<?xml version="1.0" standalone="no"?>
<!DOCTYPE svg PUBLIC "-//W3C//DTD SVG 1.1//EN" "http://www.w3.org/Graphics/SVG/1.1/DTD/svg11.dtd">
<svg width="90mm" height="98mm" viewBox="-45 -184 90 98" xmlns="http://www.w3.org/2000/svg" version="1.1">
<title>OpenSCAD Model</title>
<path d="
M 40.4369,-140.089 L 41.0451,-140.245 L 41.6289,-140.476 L 42.1791,-140.778 L 42.6871,-141.147 L 43.1448,-141.577
 L 43.5451,-142.061 L 43.8815,-142.591 L 44.1489,-143.159 L 44.3429,-143.757 L 44.4606,-144.373 L 44.5,-145
 L 44.5,-179 L 44.4606,-179.627 L 44.3429,-180.243 L 44.1489,-180.841 L 43.8815,-181.409 L 43.5451,-181.939
 L 43.1448,-182.423 L 42.6871,-182.853 L 42.1791,-183.222 L 41.6289,-183.524 L 41.0451,-183.755 L 40.4369,-183.911
 L 39.8139,-183.99 L -39.8139,-183.99 L -40.4369,-183.911 L -41.0451,-183.755 L -41.6289,-183.524 L -42.1791,-183.222
 L -42.6871,-182.853 L -43.1448,-182.423 L -43.5451,-181.939 L -43.8815,-181.409 L -44.1489,-180.841 L -44.3429,-180.243
 L -44.4606,-179.627 L -44.5,-179 L -44.5,-145 L -44.4606,-144.373 L -44.3429,-143.757 L -44.1489,-143.159
 L -43.8815,-142.591 L -43.5451,-142.061 L -43.1448,-141.577 L -42.6871,-141.147 L -42.1791,-140.778 L -41.6289,-140.476
 L -41.0451,-140.245 L -40.4369,-140.089 L -39.8139,-140.01 L 39.8139,-140.01 z
M -22.6884,-174.006 L -23.0621,-174.053 L -23.427,-174.147 L -23.7773,-174.286 L -24.1075,-174.467 L -24.4123,-174.688
 L -24.6869,-174.946 L -24.927,-175.237 L -25.1289,-175.555 L -25.2893,-175.896 L -25.4057,-176.254 L -25.4763,-176.624
 L -25.5,-177 L -25.4763,-177.376 L -25.4057,-177.746 L -25.2893,-178.104 L -25.1289,-178.445 L -24.927,-178.763
 L -24.6869,-179.054 L -24.4123,-179.312 L -24.1075,-179.533 L -23.7773,-179.714 L -23.427,-179.853 L -23.0621,-179.947
 L -22.6884,-179.994 L -22.3116,-179.994 L -21.9379,-179.947 L -21.5729,-179.853 L -21.2227,-179.714 L -20.8925,-179.533
 L -20.5877,-179.312 L -20.3131,-179.054 L -20.0729,-178.763 L -19.8711,-178.445 L -19.7107,-178.104 L -19.5942,-177.746
 L -19.5237,-177.376 L -19.5,-177 L -19.5237,-176.624 L -19.5942,-176.254 L -19.7107,-175.896 L -19.8711,-175.555
 L -20.0729,-175.237 L -20.3131,-174.946 L -20.5877,-174.688 L -20.8925,-174.467 L -21.2227,-174.286 L -21.5729,-174.147
 L -21.9379,-174.053 L -22.3116,-174.006 z
M -37.6884,-174.006 L -38.0621,-174.053 L -38.427,-174.147 L -38.7773,-174.286 L -39.1075,-174.467 L -39.4123,-174.688
 L -39.6869,-174.946 L -39.927,-175.237 L -40.1289,-175.555 L -40.2893,-175.896 L -40.4057,-176.254 L -40.4763,-176.624
 L -40.5,-177 L -40.4763,-177.376 L -40.4057,-177.746 L -40.2893,-178.104 L -40.1289,-178.445 L -39.927,-178.763
 L -39.6869,-179.054 L -39.4123,-179.312 L -39.1075,-179.533 L -38.7773,-179.714 L -38.427,-179.853 L -38.0621,-179.947
 L -37.6884,-179.994 L -37.3116,-179.994 L -36.9379,-179.947 L -36.5729,-179.853 L -36.2227,-179.714 L -35.8925,-179.533
 L -35.5877,-179.312 L -35.3131,-179.054 L -35.0729,-178.763 L -34.8711,-178.445 L -34.7107,-178.104 L -34.5942,-177.746
 L -34.5237,-177.376 L -34.5,-177 L -34.5237,-176.624 L -34.5942,-176.254 L -34.7107,-175.896 L -34.8711,-175.555
 L -35.0729,-175.237 L -35.3131,-174.946 L -35.5877,-174.688 L -35.8925,-174.467 L -36.2227,-174.286 L -36.5729,-174.147
 L -36.9379,-174.053 L -37.3116,-174.006 z
M -7.68837,-174.006 L -8.06213,-174.053 L -8.42705,-174.147 L -8.77733,-174.286 L -9.10747,-174.467 L -9.41226,-174.688
 L -9.6869,-174.946 L -9.92705,-175.237 L -10.1289,-175.555 L -10.2893,-175.896 L -10.4057,-176.254 L -10.4763,-176.624
 L -10.5,-177 L -10.4763,-177.376 L -10.4057,-177.746 L -10.2893,-178.104 L -10.1289,-178.445 L -9.92705,-178.763
 L -9.6869,-179.054 L -9.41226,-179.312 L -9.10747,-179.533 L -8.77733,-179.714 L -8.42705,-179.853 L -8.06213,-179.947
 L -7.68837,-179.994 L -7.31161,-179.994 L -6.93785,-179.947 L -6.57294,-179.853 L -6.22266,-179.714 L -5.89252,-179.533
 L -5.58772,-179.312 L -5.31308,-179.054 L -5.07294,-178.763 L -4.87108,-178.445 L -4.71066,-178.104 L -4.59424,-177.746
 L -4.52365,-177.376 L -4.5,-177 L -4.52365,-176.624 L -4.59424,-176.254 L -4.71066,-175.896 L -4.87108,-175.555
 L -5.07294,-175.237 L -5.31308,-174.946 L -5.58772,-174.688 L -5.89252,-174.467 L -6.22266,-174.286 L -6.57294,-174.147
 L -6.93785,-174.053 L -7.31161,-174.006 z
M 37.3116,-174.006 L 36.9379,-174.053 L 36.5729,-174.147 L 36.2227,-174.286 L 35.8925,-174.467 L 35.5877,-174.688
 L 35.3131,-174.946 L 35.0729,-175.237 L 34.8711,-175.555 L 34.7107,-175.896 L 34.5942,-176.254 L 34.5237,-176.624
 L 34.5,-177 L 34.5237,-177.376 L 34.5942,-177.746 L 34.7107,-178.104 L 34.8711,-178.445 L 35.0729,-178.763
 L 35.3131,-179.054 L 35.5877,-179.312 L 35.8925,-179.533 L 36.2227,-179.714 L 36.5729,-179.853 L 36.9379,-179.947
 L 37.3116,-179.994 L 37.6884,-179.994 L 38.0621,-179.947 L 38.427,-179.853 L 38.7773,-179.714 L 39.1075,-179.533
 L 39.4123,-179.312 L 39.6869,-179.054 L 39.927,-178.763 L 40.1289,-178.445 L 40.2893,-178.104 L 40.4057,-177.746
 L 40.4763,-177.376 L 40.5,-177 L 40.4763,-176.624 L 40.4057,-176.254 L 40.2893,-175.896 L 40.1289,-175.555
 L 39.927,-175.237 L 39.6869,-174.946 L 39.4123,-174.688 L 39.1075,-174.467 L 38.7773,-174.286 L 38.427,-174.147
 L 38.0621,-174.053 L 37.6884,-174.006 z
M 7.31161,-174.006 L 6.93785,-174.053 L 6.57294,-174.147 L 6.22266,-174.286 L 5.89252,-174.467 L 5.58772,-174.688
 L 5.31308,-174.946 L 5.07294,-175.237 L 4.87108,-175.555 L 4.71066,-175.896 L 4.59424,-176.254 L 4.52365,-176.624
 L 4.5,-177 L 4.52365,-177.376 L 4.59424,-177.746 L 4.71066,-178.104 L 4.87108,-178.445 L 5.07294,-178.763
 L 5.31308,-179.054 L 5.58772,-179.312 L 5.89252,-179.533 L 6.22266,-179.714 L 6.57294,-179.853 L 6.93785,-179.947
 L 7.31161,-179.994 L 7.68837,-179.994 L 8.06213,-179.947 L 8.42705,-179.853 L 8.77733,-179.714 L 9.10747,-179.533
 L 9.41226,-179.312 L 9.6869,-179.054 L 9.92705,-178.763 L 10.1289,-178.445 L 10.2893,-178.104 L 10.4057,-177.746
 L 10.4763,-177.376 L 10.5,-177 L 10.4763,-176.624 L 10.4057,-176.254 L 10.2893,-175.896 L 10.1289,-175.555
 L 9.92705,-175.237 L 9.6869,-174.946 L 9.41226,-174.688 L 9.10747,-174.467 L 8.77733,-174.286 L 8.42705,-174.147
 L 8.06213,-174.053 L 7.68837,-174.006 z
M 22.3116,-174.006 L 21.9379,-174.053 L 21.5729,-174.147 L 21.2227,-174.286 L 20.8925,-174.467 L 20.5877,-174.688
 L 20.3131,-174.946 L 20.0729,-175.237 L 19.8711,-175.555 L 19.7107,-175.896 L 19.5942,-176.254 L 19.5237,-176.624
 L 19.5,-177 L 19.5237,-177.376 L 19.5942,-177.746 L 19.7107,-178.104 L 19.8711,-178.445 L 20.0729,-178.763
 L 20.3131,-179.054 L 20.5877,-179.312 L 20.8925,-179.533 L 21.2227,-179.714 L 21.5729,-179.853 L 21.9379,-179.947
 L 22.3116,-179.994 L 22.6884,-179.994 L 23.0621,-179.947 L 23.427,-179.853 L 23.7773,-179.714 L 24.1075,-179.533
 L 24.4123,-179.312 L 24.6869,-179.054 L 24.927,-178.763 L 25.1289,-178.445 L 25.2893,-178.104 L 25.4057,-177.746
 L 25.4763,-177.376 L 25.5,-177 L 25.4763,-176.624 L 25.4057,-176.254 L 25.2893,-175.896 L 25.1289,-175.555
 L 24.927,-175.237 L 24.6869,-174.946 L 24.4123,-174.688 L 24.1075,-174.467 L 23.7773,-174.286 L 23.427,-174.147
 L 23.0621,-174.053 L 22.6884,-174.006 z
M 37.3116,-159.006 L 36.9379,-159.053 L 36.5729,-159.147 L 36.2227,-159.286 L 35.8925,-159.467 L 35.5877,-159.688
 L 35.3131,-159.946 L 35.0729,-160.237 L 34.8711,-160.555 L 34.7107,-160.896 L 34.5942,-161.254 L 34.5237,-161.624
 L 34.5,-162 L 34.5237,-162.376 L 34.5942,-162.746 L 34.7107,-163.104 L 34.8711,-163.445 L 35.0729,-163.763
 L 35.3131,-164.054 L 35.5877,-164.312 L 35.8925,-164.533 L 36.2227,-164.714 L 36.5729,-164.853 L 36.9379,-164.947
 L 37.3116,-164.994 L 37.6884,-164.994 L 38.0621,-164.947 L 38.427,-164.853 L 38.7773,-164.714 L 39.1075,-164.533
 L 39.4123,-164.312 L 39.6869,-164.054 L 39.927,-163.763 L 40.1289,-163.445 L 40.2893,-163.104 L 40.4057,-162.746
 L 40.4763,-162.376 L 40.5,-162 L 40.4763,-161.624 L 40.4057,-161.254 L 40.2893,-160.896 L 40.1289,-160.555
 L 39.927,-160.237 L 39.6869,-159.946 L 39.4123,-159.688 L 39.1075,-159.467 L 38.7773,-159.286 L 38.427,-159.147
 L 38.0621,-159.053 L 37.6884,-159.006 z
M 22.3116,-159.006 L 21.9379,-159.053 L 21.5729,-159.147 L 21.2227,-159.286 L 20.8925,-159.467 L 20.5877,-159.688
 L 20.3131,-159.946 L 20.0729,-160.237 L 19.8711,-160.555 L 19.7107,-160.896 L 19.5942,-161.254 L 19.5237,-161.624
 L 19.5,-162 L 19.5237,-162.376 L 19.5942,-162.746 L 19.7107,-163.104 L 19.8711,-163.445 L 20.0729,-163.763
 L 20.3131,-164.054 L 20.5877,-164.312 L 20.8925,-164.533 L 21.2227,-164.714 L 21.5729,-164.853 L 21.9379,-164.947
 L 22.3116,-164.994 L 22.6884,-164.994 L 23.0621,-164.947 L 23.427,-164.853 L 23.7773,-164.714 L 24.1075,-164.533
 L 24.4123,-164.312 L 24.6869,-164.054 L 24.927,-163.763 L 25.1289,-163.445 L 25.2893,-163.104 L 25.4057,-162.746
 L 25.4763,-162.376 L 25.5,-162 L 25.4763,-161.624 L 25.4057,-161.254 L 25.2893,-160.896 L 25.1289,-160.555
 L 24.927,-160.237 L 24.6869,-159.946 L 24.4123,-159.688 L 24.1075,-159.467 L 23.7773,-159.286 L 23.427,-159.147
 L 23.0621,-159.053 L 22.6884,-159.006 z
M -22.6884,-159.006 L -23.0621,-159.053 L -23.427,-159.147 L -23.7773,-159.286 L -24.1075,-159.467 L -24.4123,-159.688
 L -24.6869,-159.946 L -24.927,-160.237 L -25.1289,-160.555 L -25.2893,-160.896 L -25.4057,-161.254 L -25.4763,-161.624
 L -25.5,-162 L -25.4763,-162.376 L -25.4057,-162.746 L -25.2893,-163.104 L -25.1289,-163.445 L -24.927,-163.763
 L -24.6869,-164.054 L -24.4123,-164.312 L -24.1075,-164.533 L -23.7773,-164.714 L -23.427,-164.853 L -23.0621,-164.947
 L -22.6884,-164.994 L -22.3116,-164.994 L -21.9379,-164.947 L -21.5729,-164.853 L -21.2227,-164.714 L -20.8925,-164.533
 L -20.5877,-164.312 L -20.3131,-164.054 L -20.0729,-163.763 L -19.8711,-163.445 L -19.7107,-163.104 L -19.5942,-162.746
 L -19.5237,-162.376 L -19.5,-162 L -19.5237,-161.624 L -19.5942,-161.254 L -19.7107,-160.896 L -19.8711,-160.555
 L -20.0729,-160.237 L -20.3131,-159.946 L -20.5877,-159.688 L -20.8925,-159.467 L -21.2227,-159.286 L -21.5729,-159.147
 L -21.9379,-159.053 L -22.3116,-159.006 z
M 7.31161,-159.006 L 6.93785,-159.053 L 6.57294,-159.147 L 6.22266,-159.286 L 5.89252,-159.467 L 5.58772,-159.688
 L 5.31308,-159.946 L 5.07294,-160.237 L 4.87108,-160.555 L 4.71066,-160.896 L 4.59424,-161.254 L 4.52365,-161.624
 L 4.5,-162 L 4.52365,-162.376 L 4.59424,-162.746 L 4.71066,-163.104 L 4.87108,-163.445 L 5.07294,-163.763
 L 5.31308,-164.054 L 5.58772,-164.312 L 5.89252,-164.533 L 6.22266,-164.714 L 6.57294,-164.853 L 6.93785,-164.947
 L 7.31161,-164.994 L 7.68837,-164.994 L 8.06213,-164.947 L 8.42705,-164.853 L 8.77733,-164.714 L 9.10747,-164.533
 L 9.41226,-164.312 L 9.6869,-164.054 L 9.92705,-163.763 L 10.1289,-163.445 L 10.2893,-163.104 L 10.4057,-162.746
 L 10.4763,-162.376 L 10.5,-162 L 10.4763,-161.624 L 10.4057,-161.254 L 10.2893,-160.896 L 10.1289,-160.555
 L 9.92705,-160.237 L 9.6869,-159.946 L 9.41226,-159.688 L 9.10747,-159.467 L 8.77733,-159.286 L 8.42705,-159.147
 L 8.06213,-159.053 L 7.68837,-159.006 z
M -37.6884,-159.006 L -38.0621,-159.053 L -38.427,-159.147 L -38.7773,-159.286 L -39.1075,-159.467 L -39.4123,-159.688
 L -39.6869,-159.946 L -39.927,-160.237 L -40.1289,-160.555 L -40.2893,-160.896 L -40.4057,-161.254 L -40.4763,-161.624
 L -40.5,-162 L -40.4763,-162.376 L -40.4057,-162.746 L -40.2893,-163.104 L -40.1289,-163.445 L -39.927,-163.763
 L -39.6869,-164.054 L -39.4123,-164.312 L -39.1075,-164.533 L -38.7773,-164.714 L -38.427,-164.853 L -38.0621,-164.947
 L -37.6884,-164.994 L -37.3116,-164.994 L -36.9379,-164.947 L -36.5729,-164.853 L -36.2227,-164.714 L -35.8925,-164.533
 L -35.5877,-164.312 L -35.3131,-164.054 L -35.0729,-163.763 L -34.8711,-163.445 L -34.7107,-163.104 L -34.5942,-162.746
 L -34.5237,-162.376 L -34.5,-162 L -34.5237,-161.624 L -34.5942,-161.254 L -34.7107,-160.896 L -34.8711,-160.555
 L -35.0729,-160.237 L -35.3131,-159.946 L -35.5877,-159.688 L -35.8925,-159.467 L -36.2227,-159.286 L -36.5729,-159.147
 L -36.9379,-159.053 L -37.3116,-159.006 z
M -7.68837,-159.006 L -8.06213,-159.053 L -8.42705,-159.147 L -8.77733,-159.286 L -9.10747,-159.467 L -9.41226,-159.688
 L -9.6869,-159.946 L -9.92705,-160.237 L -10.1289,-160.555 L -10.2893,-160.896 L -10.4057,-161.254 L -10.4763,-161.624
 L -10.5,-162 L -10.4763,-162.376 L -10.4057,-162.746 L -10.2893,-163.104 L -10.1289,-163.445 L -9.92705,-163.763
 L -9.6869,-164.054 L -9.41226,-164.312 L -9.10747,-164.533 L -8.77733,-164.714 L -8.42705,-164.853 L -8.06213,-164.947
 L -7.68837,-164.994 L -7.31161,-164.994 L -6.93785,-164.947 L -6.57294,-164.853 L -6.22266,-164.714 L -5.89252,-164.533
 L -5.58772,-164.312 L -5.31308,-164.054 L -5.07294,-163.763 L -4.87108,-163.445 L -4.71066,-163.104 L -4.59424,-162.746
 L -4.52365,-162.376 L -4.5,-162 L -4.52365,-161.624 L -4.59424,-161.254 L -4.71066,-160.896 L -4.87108,-160.555
 L -5.07294,-160.237 L -5.31308,-159.946 L -5.58772,-159.688 L -5.89252,-159.467 L -6.22266,-159.286 L -6.57294,-159.147
 L -6.93785,-159.053 L -7.31161,-159.006 z
M 7.31161,-144.006 L 6.93785,-144.053 L 6.57294,-144.147 L 6.22266,-144.286 L 5.89252,-144.467 L 5.58772,-144.688
 L 5.31308,-144.946 L 5.07294,-145.237 L 4.87108,-145.555 L 4.71066,-145.896 L 4.59424,-146.254 L 4.52365,-146.624
 L 4.5,-147 L 4.52365,-147.376 L 4.59424,-147.746 L 4.71066,-148.104 L 4.87108,-148.445 L 5.07294,-148.763
 L 5.31308,-149.054 L 5.58772,-149.312 L 5.89252,-149.533 L 6.22266,-149.714 L 6.57294,-149.853 L 6.93785,-149.947
 L 7.31161,-149.994 L 7.68837,-149.994 L 8.06213,-149.947 L 8.42705,-149.853 L 8.77733,-149.714 L 9.10747,-149.533
 L 9.41226,-149.312 L 9.6869,-149.054 L 9.92705,-148.763 L 10.1289,-148.445 L 10.2893,-148.104 L 10.4057,-147.746
 L 10.4763,-147.376 L 10.5,-147 L 10.4763,-146.624 L 10.4057,-146.254 L 10.2893,-145.896 L 10.1289,-145.555
 L 9.92705,-145.237 L 9.6869,-144.946 L 9.41226,-144.688 L 9.10747,-144.467 L 8.77733,-144.286 L 8.42705,-144.147
 L 8.06213,-144.053 L 7.68837,-144.006 z
M 37.3116,-144.006 L 36.9379,-144.053 L 36.5729,-144.147 L 36.2227,-144.286 L 35.8925,-144.467 L 35.5877,-144.688
 L 35.3131,-144.946 L 35.0729,-145.237 L 34.8711,-145.555 L 34.7107,-145.896 L 34.5942,-146.254 L 34.5237,-146.624
 L 34.5,-147 L 34.5237,-147.376 L 34.5942,-147.746 L 34.7107,-148.104 L 34.8711,-148.445 L 35.0729,-148.763
 L 35.3131,-149.054 L 35.5877,-149.312 L 35.8925,-149.533 L 36.2227,-149.714 L 36.5729,-149.853 L 36.9379,-149.947
 L 37.3116,-149.994 L 37.6884,-149.994 L 38.0621,-149.947 L 38.427,-149.853 L 38.7773,-149.714 L 39.1075,-149.533
 L 39.4123,-149.312 L 39.6869,-149.054 L 39.927,-148.763 L 40.1289,-148.445 L 40.2893,-148.104 L 40.4057,-147.746
 L 40.4763,-147.376 L 40.5,-147 L 40.4763,-146.624 L 40.4057,-146.254 L 40.2893,-145.896 L 40.1289,-145.555
 L 39.927,-145.237 L 39.6869,-144.946 L 39.4123,-144.688 L 39.1075,-144.467 L 38.7773,-144.286 L 38.427,-144.147
 L 38.0621,-144.053 L 37.6884,-144.006 z
M 22.3116,-144.006 L 21.9379,-144.053 L 21.5729,-144.147 L 21.2227,-144.286 L 20.8925,-144.467 L 20.5877,-144.688
 L 20.3131,-144.946 L 20.0729,-145.237 L 19.8711,-145.555 L 19.7107,-145.896 L 19.5942,-146.254 L 19.5237,-146.624
 L 19.5,-147 L 19.5237,-147.376 L 19.5942,-147.746 L 19.7107,-148.104 L 19.8711,-148.445 L 20.0729,-148.763
 L 20.3131,-149.054 L 20.5877,-149.312 L 20.8925,-149.533 L 21.2227,-149.714 L 21.5729,-149.853 L 21.9379,-149.947
 L 22.3116,-149.994 L 22.6884,-149.994 L 23.0621,-149.947 L 23.427,-149.853 L 23.7773,-149.714 L 24.1075,-149.533
 L 24.4123,-149.312 L 24.6869,-149.054 L 24.927,-148.763 L 25.1289,-148.445 L 25.2893,-148.104 L 25.4057,-147.746
 L 25.4763,-147.376 L 25.5,-147 L 25.4763,-146.624 L 25.4057,-146.254 L 25.2893,-145.896 L 25.1289,-145.555
 L 24.927,-145.237 L 24.6869,-144.946 L 24.4123,-144.688 L 24.1075,-144.467 L 23.7773,-144.286 L 23.427,-144.147
 L 23.0621,-144.053 L 22.6884,-144.006 z
M -22.6884,-144.006 L -23.0621,-144.053 L -23.427,-144.147 L -23.7773,-144.286 L -24.1075,-144.467 L -24.4123,-144.688
 L -24.6869,-144.946 L -24.927,-145.237 L -25.1289,-145.555 L -25.2893,-145.896 L -25.4057,-146.254 L -25.4763,-146.624
 L -25.5,-147 L -25.4763,-147.376 L -25.4057,-147.746 L -25.2893,-148.104 L -25.1289,-148.445 L -24.927,-148.763
 L -24.6869,-149.054 L -24.4123,-149.312 L -24.1075,-149.533 L -23.7773,-149.714 L -23.427,-149.853 L -23.0621,-149.947
 L -22.6884,-149.994 L -22.3116,-149.994 L -21.9379,-149.947 L -21.5729,-149.853 L -21.2227,-149.714 L -20.8925,-149.533
 L -20.5877,-149.312 L -20.3131,-149.054 L -20.0729,-148.763 L -19.8711,-148.445 L -19.7107,-148.104 L -19.5942,-147.746
 L -19.5237,-147.376 L -19.5,-147 L -19.5237,-146.624 L -19.5942,-146.254 L -19.7107,-145.896 L -19.8711,-145.555
 L -20.0729,-145.237 L -20.3131,-144.946 L -20.5877,-144.688 L -20.8925,-144.467 L -21.2227,-144.286 L -21.5729,-144.147
 L -21.9379,-144.053 L -22.3116,-144.006 z
M -37.6884,-144.006 L -38.0621,-144.053 L -38.427,-144.147 L -38.7773,-144.286 L -39.1075,-144.467 L -39.4123,-144.688
 L -39.6869,-144.946 L -39.927,-145.237 L -40.1289,-145.555 L -40.2893,-145.896 L -40.4057,-146.254 L -40.4763,-146.624
 L -40.5,-147 L -40.4763,-147.376 L -40.4057,-147.746 L -40.2893,-148.104 L -40.1289,-148.445 L -39.927,-148.763
 L -39.6869,-149.054 L -39.4123,-149.312 L -39.1075,-149.533 L -38.7773,-149.714 L -38.427,-149.853 L -38.0621,-149.947
 L -37.6884,-149.994 L -37.3116,-149.994 L -36.9379,-149.947 L -36.5729,-149.853 L -36.2227,-149.714 L -35.8925,-149.533
 L -35.5877,-149.312 L -35.3131,-149.054 L -35.0729,-148.763 L -34.8711,-148.445 L -34.7107,-148.104 L -34.5942,-147.746
 L -34.5237,-147.376 L -34.5,-147 L -34.5237,-146.624 L -34.5942,-146.254 L -34.7107,-145.896 L -34.8711,-145.555
 L -35.0729,-145.237 L -35.3131,-144.946 L -35.5877,-144.688 L -35.8925,-144.467 L -36.2227,-144.286 L -36.5729,-144.147
 L -36.9379,-144.053 L -37.3116,-144.006 z
M -7.68837,-144.006 L -8.06213,-144.053 L -8.42705,-144.147 L -8.77733,-144.286 L -9.10747,-144.467 L -9.41226,-144.688
 L -9.6869,-144.946 L -9.92705,-145.237 L -10.1289,-145.555 L -10.2893,-145.896 L -10.4057,-146.254 L -10.4763,-146.624
 L -10.5,-147 L -10.4763,-147.376 L -10.4057,-147.746 L -10.2893,-148.104 L -10.1289,-148.445 L -9.92705,-148.763
 L -9.6869,-149.054 L -9.41226,-149.312 L -9.10747,-149.533 L -8.77733,-149.714 L -8.42705,-149.853 L -8.06213,-149.947
 L -7.68837,-149.994 L -7.31161,-149.994 L -6.93785,-149.947 L -6.57294,-149.853 L -6.22266,-149.714 L -5.89252,-149.533
 L -5.58772,-149.312 L -5.31308,-149.054 L -5.07294,-148.763 L -4.87108,-148.445 L -4.71066,-148.104 L -4.59424,-147.746
 L -4.52365,-147.376 L -4.5,-147 L -4.52365,-146.624 L -4.59424,-146.254 L -4.71066,-145.896 L -4.87108,-145.555
 L -5.07294,-145.237 L -5.31308,-144.946 L -5.58772,-144.688 L -5.89252,-144.467 L -6.22266,-144.286 L -6.57294,-144.147
 L -6.93785,-144.053 L -7.31161,-144.006 z
M 40.4369,-86.0886 L 41.0451,-86.2447 L 41.6289,-86.4759 L 42.1791,-86.7784 L 42.6871,-87.1474 L 43.1448,-87.5773
 L 43.5451,-88.0611 L 43.8815,-88.5912 L 44.1489,-89.1594 L 44.3429,-89.7566 L 44.4606,-90.3733 L 44.5,-91
 L 44.5,-125 L 44.4606,-125.627 L 44.3429,-126.243 L 44.1489,-126.841 L 43.8815,-127.409 L 43.5451,-127.939
 L 43.1448,-128.423 L 42.6871,-128.853 L 42.1791,-129.222 L 41.6289,-129.524 L 41.0451,-129.755 L 40.4369,-129.911
 L 39.8139,-129.99 L -39.8139,-129.99 L -40.4369,-129.911 L -41.0451,-129.755 L -41.6289,-129.524 L -42.1791,-129.222
 L -42.6871,-128.853 L -43.1448,-128.423 L -43.5451,-127.939 L -43.8815,-127.409 L -44.1489,-126.841 L -44.3429,-126.243
 L -44.4606,-125.627 L -44.5,-125 L -44.5,-91 L -44.4606,-90.3733 L -44.3429,-89.7566 L -44.1489,-89.1594
 L -43.8815,-88.5912 L -43.5451,-88.0611 L -43.1448,-87.5773 L -42.6871,-87.1474 L -42.1791,-86.7784 L -41.6289,-86.4759
 L -41.0451,-86.2447 L -40.4369,-86.0886 L -39.8139,-86.0099 L 39.8139,-86.0099 z
M -22.6884,-120.006 L -23.0621,-120.053 L -23.427,-120.147 L -23.7773,-120.286 L -24.1075,-120.467 L -24.4123,-120.688
 L -24.6869,-120.946 L -24.927,-121.237 L -25.1289,-121.555 L -25.2893,-121.896 L -25.4057,-122.254 L -25.4763,-122.624
 L -25.5,-123 L -25.4763,-123.376 L -25.4057,-123.746 L -25.2893,-124.104 L -25.1289,-124.445 L -24.927,-124.763
 L -24.6869,-125.054 L -24.4123,-125.312 L -24.1075,-125.533 L -23.7773,-125.714 L -23.427,-125.853 L -23.0621,-125.947
 L -22.6884,-125.994 L -22.3116,-125.994 L -21.9379,-125.947 L -21.5729,-125.853 L -21.2227,-125.714 L -20.8925,-125.533
 L -20.5877,-125.312 L -20.3131,-125.054 L -20.0729,-124.763 L -19.8711,-124.445 L -19.7107,-124.104 L -19.5942,-123.746
 L -19.5237,-123.376 L -19.5,-123 L -19.5237,-122.624 L -19.5942,-122.254 L -19.7107,-121.896 L -19.8711,-121.555
 L -20.0729,-121.237 L -20.3131,-120.946 L -20.5877,-120.688 L -20.8925,-120.467 L -21.2227,-120.286 L -21.5729,-120.147
 L -21.9379,-120.053 L -22.3116,-120.006 z
M -37.6884,-120.006 L -38.0621,-120.053 L -38.427,-120.147 L -38.7773,-120.286 L -39.1075,-120.467 L -39.4123,-120.688
 L -39.6869,-120.946 L -39.927,-121.237 L -40.1289,-121.555 L -40.2893,-121.896 L -40.4057,-122.254 L -40.4763,-122.624
 L -40.5,-123 L -40.4763,-123.376 L -40.4057,-123.746 L -40.2893,-124.104 L -40.1289,-124.445 L -39.927,-124.763
 L -39.6869,-125.054 L -39.4123,-125.312 L -39.1075,-125.533 L -38.7773,-125.714 L -38.427,-125.853 L -38.0621,-125.947
 L -37.6884,-125.994 L -37.3116,-125.994 L -36.9379,-125.947 L -36.5729,-125.853 L -36.2227,-125.714 L -35.8925,-125.533
 L -35.5877,-125.312 L -35.3131,-125.054 L -35.0729,-124.763 L -34.8711,-124.445 L -34.7107,-124.104 L -34.5942,-123.746
 L -34.5237,-123.376 L -34.5,-123 L -34.5237,-122.624 L -34.5942,-122.254 L -34.7107,-121.896 L -34.8711,-121.555
 L -35.0729,-121.237 L -35.3131,-120.946 L -35.5877,-120.688 L -35.8925,-120.467 L -36.2227,-120.286 L -36.5729,-120.147
 L -36.9379,-120.053 L -37.3116,-120.006 z
M -7.68837,-120.006 L -8.06213,-120.053 L -8.42705,-120.147 L -8.77733,-120.286 L -9.10747,-120.467 L -9.41226,-120.688
 L -9.6869,-120.946 L -9.92705,-121.237 L -10.1289,-121.555 L -10.2893,-121.896 L -10.4057,-122.254 L -10.4763,-122.624
 L -10.5,-123 L -10.4763,-123.376 L -10.4057,-123.746 L -10.2893,-124.104 L -10.1289,-124.445 L -9.92705,-124.763
 L -9.6869,-125.054 L -9.41226,-125.312 L -9.10747,-125.533 L -8.77733,-125.714 L -8.42705,-125.853 L -8.06213,-125.947
 L -7.68837,-125.994 L -7.31161,-125.994 L -6.93785,-125.947 L -6.57294,-125.853 L -6.22266,-125.714 L -5.89252,-125.533
 L -5.58772,-125.312 L -5.31308,-125.054 L -5.07294,-124.763 L -4.87108,-124.445 L -4.71066,-124.104 L -4.59424,-123.746
 L -4.52365,-123.376 L -4.5,-123 L -4.52365,-122.624 L -4.59424,-122.254 L -4.71066,-121.896 L -4.87108,-121.555
 L -5.07294,-121.237 L -5.31308,-120.946 L -5.58772,-120.688 L -5.89252,-120.467 L -6.22266,-120.286 L -6.57294,-120.147
 L -6.93785,-120.053 L -7.31161,-120.006 z
M 37.3116,-120.006 L 36.9379,-120.053 L 36.5729,-120.147 L 36.2227,-120.286 L 35.8925,-120.467 L 35.5877,-120.688
 L 35.3131,-120.946 L 35.0729,-121.237 L 34.8711,-121.555 L 34.7107,-121.896 L 34.5942,-122.254 L 34.5237,-122.624
 L 34.5,-123 L 34.5237,-123.376 L 34.5942,-123.746 L 34.7107,-124.104 L 34.8711,-124.445 L 35.0729,-124.763
 L 35.3131,-125.054 L 35.5877,-125.312 L 35.8925,-125.533 L 36.2227,-125.714 L 36.5729,-125.853 L 36.9379,-125.947
 L 37.3116,-125.994 L 37.6884,-125.994 L 38.0621,-125.947 L 38.427,-125.853 L 38.7773,-125.714 L 39.1075,-125.533
 L 39.4123,-125.312 L 39.6869,-125.054 L 39.927,-124.763 L 40.1289,-124.445 L 40.2893,-124.104 L 40.4057,-123.746
 L 40.4763,-123.376 L 40.5,-123 L 40.4763,-122.624 L 40.4057,-122.254 L 40.2893,-121.896 L 40.1289,-121.555
 L 39.927,-121.237 L 39.6869,-120.946 L 39.4123,-120.688 L 39.1075,-120.467 L 38.7773,-120.286 L 38.427,-120.147
 L 38.0621,-120.053 L 37.6884,-120.006 z
M 7.31161,-120.006 L 6.93785,-120.053 L 6.57294,-120.147 L 6.22266,-120.286 L 5.89252,-120.467 L 5.58772,-120.688
 L 5.31308,-120.946 L 5.07294,-121.237 L 4.87108,-121.555 L 4.71066,-121.896 L 4.59424,-122.254 L 4.52365,-122.624
 L 4.5,-123 L 4.52365,-123.376 L 4.59424,-123.746 L 4.71066,-124.104 L 4.87108,-124.445 L 5.07294,-124.763
 L 5.31308,-125.054 L 5.58772,-125.312 L 5.89252,-125.533 L 6.22266,-125.714 L 6.57294,-125.853 L 6.93785,-125.947
 L 7.31161,-125.994 L 7.68837,-125.994 L 8.06213,-125.947 L 8.42705,-125.853 L 8.77733,-125.714 L 9.10747,-125.533
 L 9.41226,-125.312 L 9.6869,-125.054 L 9.92705,-124.763 L 10.1289,-124.445 L 10.2893,-124.104 L 10.4057,-123.746
 L 10.4763,-123.376 L 10.5,-123 L 10.4763,-122.624 L 10.4057,-122.254 L 10.2893,-121.896 L 10.1289,-121.555
 L 9.92705,-121.237 L 9.6869,-120.946 L 9.41226,-120.688 L 9.10747,-120.467 L 8.77733,-120.286 L 8.42705,-120.147
 L 8.06213,-120.053 L 7.68837,-120.006 z
M 22.3116,-120.006 L 21.9379,-120.053 L 21.5729,-120.147 L 21.2227,-120.286 L 20.8925,-120.467 L 20.5877,-120.688
 L 20.3131,-120.946 L 20.0729,-121.237 L 19.8711,-121.555 L 19.7107,-121.896 L 19.5942,-122.254 L 19.5237,-122.624
 L 19.5,-123 L 19.5237,-123.376 L 19.5942,-123.746 L 19.7107,-124.104 L 19.8711,-124.445 L 20.0729,-124.763
 L 20.3131,-125.054 L 20.5877,-125.312 L 20.8925,-125.533 L 21.2227,-125.714 L 21.5729,-125.853 L 21.9379,-125.947
 L 22.3116,-125.994 L 22.6884,-125.994 L 23.0621,-125.947 L 23.427,-125.853 L 23.7773,-125.714 L 24.1075,-125.533
 L 24.4123,-125.312 L 24.6869,-125.054 L 24.927,-124.763 L 25.1289,-124.445 L 25.2893,-124.104 L 25.4057,-123.746
 L 25.4763,-123.376 L 25.5,-123 L 25.4763,-122.624 L 25.4057,-122.254 L 25.2893,-121.896 L 25.1289,-121.555
 L 24.927,-121.237 L 24.6869,-120.946 L 24.4123,-120.688 L 24.1075,-120.467 L 23.7773,-120.286 L 23.427,-120.147
 L 23.0621,-120.053 L 22.6884,-120.006 z
M 37.3116,-105.006 L 36.9379,-105.053 L 36.5729,-105.147 L 36.2227,-105.286 L 35.8925,-105.467 L 35.5877,-105.688
 L 35.3131,-105.946 L 35.0729,-106.237 L 34.8711,-106.555 L 34.7107,-106.896 L 34.5942,-107.254 L 34.5237,-107.624
 L 34.5,-108 L 34.5237,-108.376 L 34.5942,-108.746 L 34.7107,-109.104 L 34.8711,-109.445 L 35.0729,-109.763
 L 35.3131,-110.054 L 35.5877,-110.312 L 35.8925,-110.533 L 36.2227,-110.714 L 36.5729,-110.853 L 36.9379,-110.947
 L 37.3116,-110.994 L 37.6884,-110.994 L 38.0621,-110.947 L 38.427,-110.853 L 38.7773,-110.714 L 39.1075,-110.533
 L 39.4123,-110.312 L 39.6869,-110.054 L 39.927,-109.763 L 40.1289,-109.445 L 40.2893,-109.104 L 40.4057,-108.746
 L 40.4763,-108.376 L 40.5,-108 L 40.4763,-107.624 L 40.4057,-107.254 L 40.2893,-106.896 L 40.1289,-106.555
 L 39.927,-106.237 L 39.6869,-105.946 L 39.4123,-105.688 L 39.1075,-105.467 L 38.7773,-105.286 L 38.427,-105.147
 L 38.0621,-105.053 L 37.6884,-105.006 z
M 22.3116,-105.006 L 21.9379,-105.053 L 21.5729,-105.147 L 21.2227,-105.286 L 20.8925,-105.467 L 20.5877,-105.688
 L 20.3131,-105.946 L 20.0729,-106.237 L 19.8711,-106.555 L 19.7107,-106.896 L 19.5942,-107.254 L 19.5237,-107.624
 L 19.5,-108 L 19.5237,-108.376 L 19.5942,-108.746 L 19.7107,-109.104 L 19.8711,-109.445 L 20.0729,-109.763
 L 20.3131,-110.054 L 20.5877,-110.312 L 20.8925,-110.533 L 21.2227,-110.714 L 21.5729,-110.853 L 21.9379,-110.947
 L 22.3116,-110.994 L 22.6884,-110.994 L 23.0621,-110.947 L 23.427,-110.853 L 23.7773,-110.714 L 24.1075,-110.533
 L 24.4123,-110.312 L 24.6869,-110.054 L 24.927,-109.763 L 25.1289,-109.445 L 25.2893,-109.104 L 25.4057,-108.746
 L 25.4763,-108.376 L 25.5,-108 L 25.4763,-107.624 L 25.4057,-107.254 L 25.2893,-106.896 L 25.1289,-106.555
 L 24.927,-106.237 L 24.6869,-105.946 L 24.4123,-105.688 L 24.1075,-105.467 L 23.7773,-105.286 L 23.427,-105.147
 L 23.0621,-105.053 L 22.6884,-105.006 z
M -22.6884,-105.006 L -23.0621,-105.053 L -23.427,-105.147 L -23.7773,-105.286 L -24.1075,-105.467 L -24.4123,-105.688
 L -24.6869,-105.946 L -24.927,-106.237 L -25.1289,-106.555 L -25.2893,-106.896 L -25.4057,-107.254 L -25.4763,-107.624
 L -25.5,-108 L -25.4763,-108.376 L -25.4057,-108.746 L -25.2893,-109.104 L -25.1289,-109.445 L -24.927,-109.763
 L -24.6869,-110.054 L -24.4123,-110.312 L -24.1075,-110.533 L -23.7773,-110.714 L -23.427,-110.853 L -23.0621,-110.947
 L -22.6884,-110.994 L -22.3116,-110.994 L -21.9379,-110.947 L -21.5729,-110.853 L -21.2227,-110.714 L -20.8925,-110.533
 L -20.5877,-110.312 L -20.3131,-110.054 L -20.0729,-109.763 L -19.8711,-109.445 L -19.7107,-109.104 L -19.5942,-108.746
 L -19.5237,-108.376 L -19.5,-108 L -19.5237,-107.624 L -19.5942,-107.254 L -19.7107,-106.896 L -19.8711,-106.555
 L -20.0729,-106.237 L -20.3131,-105.946 L -20.5877,-105.688 L -20.8925,-105.467 L -21.2227,-105.286 L -21.5729,-105.147
 L -21.9379,-105.053 L -22.3116,-105.006 z
M 7.31161,-105.006 L 6.93785,-105.053 L 6.57294,-105.147 L 6.22266,-105.286 L 5.89252,-105.467 L 5.58772,-105.688
 L 5.31308,-105.946 L 5.07294,-106.237 L 4.87108,-106.555 L 4.71066,-106.896 L 4.59424,-107.254 L 4.52365,-107.624
 L 4.5,-108 L 4.52365,-108.376 L 4.59424,-108.746 L 4.71066,-109.104 L 4.87108,-109.445 L 5.07294,-109.763
 L 5.31308,-110.054 L 5.58772,-110.312 L 5.89252,-110.533 L 6.22266,-110.714 L 6.57294,-110.853 L 6.93785,-110.947
 L 7.31161,-110.994 L 7.68837,-110.994 L 8.06213,-110.947 L 8.42705,-110.853 L 8.77733,-110.714 L 9.10747,-110.533
 L 9.41226,-110.312 L 9.6869,-110.054 L 9.92705,-109.763 L 10.1289,-109.445 L 10.2893,-109.104 L 10.4057,-108.746
 L 10.4763,-108.376 L 10.5,-108 L 10.4763,-107.624 L 10.4057,-107.254 L 10.2893,-106.896 L 10.1289,-106.555
 L 9.92705,-106.237 L 9.6869,-105.946 L 9.41226,-105.688 L 9.10747,-105.467 L 8.77733,-105.286 L 8.42705,-105.147
 L 8.06213,-105.053 L 7.68837,-105.006 z
M -37.6884,-105.006 L -38.0621,-105.053 L -38.427,-105.147 L -38.7773,-105.286 L -39.1075,-105.467 L -39.4123,-105.688
 L -39.6869,-105.946 L -39.927,-106.237 L -40.1289,-106.555 L -40.2893,-106.896 L -40.4057,-107.254 L -40.4763,-107.624
 L -40.5,-108 L -40.4763,-108.376 L -40.4057,-108.746 L -40.2893,-109.104 L -40.1289,-109.445 L -39.927,-109.763
 L -39.6869,-110.054 L -39.4123,-110.312 L -39.1075,-110.533 L -38.7773,-110.714 L -38.427,-110.853 L -38.0621,-110.947
 L -37.6884,-110.994 L -37.3116,-110.994 L -36.9379,-110.947 L -36.5729,-110.853 L -36.2227,-110.714 L -35.8925,-110.533
 L -35.5877,-110.312 L -35.3131,-110.054 L -35.0729,-109.763 L -34.8711,-109.445 L -34.7107,-109.104 L -34.5942,-108.746
 L -34.5237,-108.376 L -34.5,-108 L -34.5237,-107.624 L -34.5942,-107.254 L -34.7107,-106.896 L -34.8711,-106.555
 L -35.0729,-106.237 L -35.3131,-105.946 L -35.5877,-105.688 L -35.8925,-105.467 L -36.2227,-105.286 L -36.5729,-105.147
 L -36.9379,-105.053 L -37.3116,-105.006 z
M -7.68837,-105.006 L -8.06213,-105.053 L -8.42705,-105.147 L -8.77733,-105.286 L -9.10747,-105.467 L -9.41226,-105.688
 L -9.6869,-105.946 L -9.92705,-106.237 L -10.1289,-106.555 L -10.2893,-106.896 L -10.4057,-107.254 L -10.4763,-107.624
 L -10.5,-108 L -10.4763,-108.376 L -10.4057,-108.746 L -10.2893,-109.104 L -10.1289,-109.445 L -9.92705,-109.763
 L -9.6869,-110.054 L -9.41226,-110.312 L -9.10747,-110.533 L -8.77733,-110.714 L -8.42705,-110.853 L -8.06213,-110.947
 L -7.68837,-110.994 L -7.31161,-110.994 L -6.93785,-110.947 L -6.57294,-110.853 L -6.22266,-110.714 L -5.89252,-110.533
 L -5.58772,-110.312 L -5.31308,-110.054 L -5.07294,-109.763 L -4.87108,-109.445 L -4.71066,-109.104 L -4.59424,-108.746
 L -4.52365,-108.376 L -4.5,-108 L -4.52365,-107.624 L -4.59424,-107.254 L -4.71066,-106.896 L -4.87108,-106.555
 L -5.07294,-106.237 L -5.31308,-105.946 L -5.58772,-105.688 L -5.89252,-105.467 L -6.22266,-105.286 L -6.57294,-105.147
 L -6.93785,-105.053 L -7.31161,-105.006 z
M 7.31161,-90.0059 L 6.93785,-90.0531 L 6.57294,-90.1468 L 6.22266,-90.2855 L 5.89252,-90.467 L 5.58772,-90.6885
 L 5.31308,-90.9464 L 5.07294,-91.2366 L 4.87108,-91.5547 L 4.71066,-91.8956 L 4.59424,-92.2539 L 4.52365,-92.624
 L 4.5,-93 L 4.52365,-93.376 L 4.59424,-93.7461 L 4.71066,-94.1044 L 4.87108,-94.4453 L 5.07294,-94.7634
 L 5.31308,-95.0536 L 5.58772,-95.3116 L 5.89252,-95.533 L 6.22266,-95.7145 L 6.57294,-95.8532 L 6.93785,-95.9469
 L 7.31161,-95.9941 L 7.68837,-95.9941 L 8.06213,-95.9469 L 8.42705,-95.8532 L 8.77733,-95.7145 L 9.10747,-95.533
 L 9.41226,-95.3116 L 9.6869,-95.0536 L 9.92705,-94.7634 L 10.1289,-94.4453 L 10.2893,-94.1044 L 10.4057,-93.7461
 L 10.4763,-93.376 L 10.5,-93 L 10.4763,-92.624 L 10.4057,-92.2539 L 10.2893,-91.8956 L 10.1289,-91.5547
 L 9.92705,-91.2366 L 9.6869,-90.9464 L 9.41226,-90.6885 L 9.10747,-90.467 L 8.77733,-90.2855 L 8.42705,-90.1468
 L 8.06213,-90.0531 L 7.68837,-90.0059 z
M 37.3116,-90.0059 L 36.9379,-90.0531 L 36.5729,-90.1468 L 36.2227,-90.2855 L 35.8925,-90.467 L 35.5877,-90.6885
 L 35.3131,-90.9464 L 35.0729,-91.2366 L 34.8711,-91.5547 L 34.7107,-91.8956 L 34.5942,-92.2539 L 34.5237,-92.624
 L 34.5,-93 L 34.5237,-93.376 L 34.5942,-93.7461 L 34.7107,-94.1044 L 34.8711,-94.4453 L 35.0729,-94.7634
 L 35.3131,-95.0536 L 35.5877,-95.3116 L 35.8925,-95.533 L 36.2227,-95.7145 L 36.5729,-95.8532 L 36.9379,-95.9469
 L 37.3116,-95.9941 L 37.6884,-95.9941 L 38.0621,-95.9469 L 38.427,-95.8532 L 38.7773,-95.7145 L 39.1075,-95.533
 L 39.4123,-95.3116 L 39.6869,-95.0536 L 39.927,-94.7634 L 40.1289,-94.4453 L 40.2893,-94.1044 L 40.4057,-93.7461
 L 40.4763,-93.376 L 40.5,-93 L 40.4763,-92.624 L 40.4057,-92.2539 L 40.2893,-91.8956 L 40.1289,-91.5547
 L 39.927,-91.2366 L 39.6869,-90.9464 L 39.4123,-90.6885 L 39.1075,-90.467 L 38.7773,-90.2855 L 38.427,-90.1468
 L 38.0621,-90.0531 L 37.6884,-90.0059 z
M 22.3116,-90.0059 L 21.9379,-90.0531 L 21.5729,-90.1468 L 21.2227,-90.2855 L 20.8925,-90.467 L 20.5877,-90.6885
 L 20.3131,-90.9464 L 20.0729,-91.2366 L 19.8711,-91.5547 L 19.7107,-91.8956 L 19.5942,-92.2539 L 19.5237,-92.624
 L 19.5,-93 L 19.5237,-93.376 L 19.5942,-93.7461 L 19.7107,-94.1044 L 19.8711,-94.4453 L 20.0729,-94.7634
 L 20.3131,-95.0536 L 20.5877,-95.3116 L 20.8925,-95.533 L 21.2227,-95.7145 L 21.5729,-95.8532 L 21.9379,-95.9469
 L 22.3116,-95.9941 L 22.6884,-95.9941 L 23.0621,-95.9469 L 23.427,-95.8532 L 23.7773,-95.7145 L 24.1075,-95.533
 L 24.4123,-95.3116 L 24.6869,-95.0536 L 24.927,-94.7634 L 25.1289,-94.4453 L 25.2893,-94.1044 L 25.4057,-93.7461
 L 25.4763,-93.376 L 25.5,-93 L 25.4763,-92.624 L 25.4057,-92.2539 L 25.2893,-91.8956 L 25.1289,-91.5547
 L 24.927,-91.2366 L 24.6869,-90.9464 L 24.4123,-90.6885 L 24.1075,-90.467 L 23.7773,-90.2855 L 23.427,-90.1468
 L 23.0621,-90.0531 L 22.6884,-90.0059 z
M -22.6884,-90.0059 L -23.0621,-90.0531 L -23.427,-90.1468 L -23.7773,-90.2855 L -24.1075,-90.467 L -24.4123,-90.6885
 L -24.6869,-90.9464 L -24.927,-91.2366 L -25.1289,-91.5547 L -25.2893,-91.8956 L -25.4057,-92.2539 L -25.4763,-92.624
 L -25.5,-93 L -25.4763,-93.376 L -25.4057,-93.7461 L -25.2893,-94.1044 L -25.1289,-94.4453 L -24.927,-94.7634
 L -24.6869,-95.0536 L -24.4123,-95.3116 L -24.1075,-95.533 L -23.7773,-95.7145 L -23.427,-95.8532 L -23.0621,-95.9469
 L -22.6884,-95.9941 L -22.3116,-95.9941 L -21.9379,-95.9469 L -21.5729,-95.8532 L -21.2227,-95.7145 L -20.8925,-95.533
 L -20.5877,-95.3116 L -20.3131,-95.0536 L -20.0729,-94.7634 L -19.8711,-94.4453 L -19.7107,-94.1044 L -19.5942,-93.7461
 L -19.5237,-93.376 L -19.5,-93 L -19.5237,-92.624 L -19.5942,-92.2539 L -19.7107,-91.8956 L -19.8711,-91.5547
 L -20.0729,-91.2366 L -20.3131,-90.9464 L -20.5877,-90.6885 L -20.8925,-90.467 L -21.2227,-90.2855 L -21.5729,-90.1468
 L -21.9379,-90.0531 L -22.3116,-90.0059 z
M -37.6884,-90.0059 L -38.0621,-90.0531 L -38.427,-90.1468 L -38.7773,-90.2855 L -39.1075,-90.467 L -39.4123,-90.6885
 L -39.6869,-90.9464 L -39.927,-91.2366 L -40.1289,-91.5547 L -40.2893,-91.8956 L -40.4057,-92.2539 L -40.4763,-92.624
 L -40.5,-93 L -40.4763,-93.376 L -40.4057,-93.7461 L -40.2893,-94.1044 L -40.1289,-94.4453 L -39.927,-94.7634
 L -39.6869,-95.0536 L -39.4123,-95.3116 L -39.1075,-95.533 L -38.7773,-95.7145 L -38.427,-95.8532 L -38.0621,-95.9469
 L -37.6884,-95.9941 L -37.3116,-95.9941 L -36.9379,-95.9469 L -36.5729,-95.8532 L -36.2227,-95.7145 L -35.8925,-95.533
 L -35.5877,-95.3116 L -35.3131,-95.0536 L -35.0729,-94.7634 L -34.8711,-94.4453 L -34.7107,-94.1044 L -34.5942,-93.7461
 L -34.5237,-93.376 L -34.5,-93 L -34.5237,-92.624 L -34.5942,-92.2539 L -34.7107,-91.8956 L -34.8711,-91.5547
 L -35.0729,-91.2366 L -35.3131,-90.9464 L -35.5877,-90.6885 L -35.8925,-90.467 L -36.2227,-90.2855 L -36.5729,-90.1468
 L -36.9379,-90.0531 L -37.3116,-90.0059 z
M -7.68837,-90.0059 L -8.06213,-90.0531 L -8.42705,-90.1468 L -8.77733,-90.2855 L -9.10747,-90.467 L -9.41226,-90.6885
 L -9.6869,-90.9464 L -9.92705,-91.2366 L -10.1289,-91.5547 L -10.2893,-91.8956 L -10.4057,-92.2539 L -10.4763,-92.624
 L -10.5,-93 L -10.4763,-93.376 L -10.4057,-93.7461 L -10.2893,-94.1044 L -10.1289,-94.4453 L -9.92705,-94.7634
 L -9.6869,-95.0536 L -9.41226,-95.3116 L -9.10747,-95.533 L -8.77733,-95.7145 L -8.42705,-95.8532 L -8.06213,-95.9469
 L -7.68837,-95.9941 L -7.31161,-95.9941 L -6.93785,-95.9469 L -6.57294,-95.8532 L -6.22266,-95.7145 L -5.89252,-95.533
 L -5.58772,-95.3116 L -5.31308,-95.0536 L -5.07294,-94.7634 L -4.87108,-94.4453 L -4.71066,-94.1044 L -4.59424,-93.7461
 L -4.52365,-93.376 L -4.5,-93 L -4.52365,-92.624 L -4.59424,-92.2539 L -4.71066,-91.8956 L -4.87108,-91.5547
 L -5.07294,-91.2366 L -5.31308,-90.9464 L -5.58772,-90.6885 L -5.89252,-90.467 L -6.22266,-90.2855 L -6.57294,-90.1468
 L -6.93785,-90.0531 L -7.31161,-90.0059 z
" stroke="black" fill="lightgray" stroke-width="0.5"/>
</svg>
