  0
SECTION
  2
BLOCKS
  0
ENDSEC
  0
SECTION
  2
ENTITIES
  0
LINE
  8
0
 10
107.937
 20
-14.4114
 11
108.545
 21
-14.2553
  0
LINE
  8
0
 10
108.545
 20
-14.2553
 11
109.129
 21
-14.0241
  0
LINE
  8
0
 10
109.129
 20
-14.0241
 11
109.679
 21
-13.7216
  0
LINE
  8
0
 10
109.679
 20
-13.7216
 11
110.187
 21
-13.3526
  0
LINE
  8
0
 10
110.187
 20
-13.3526
 11
110.645
 21
-12.9227
  0
LINE
  8
0
 10
110.645
 20
-12.9227
 11
111.045
 21
-12.4389
  0
LINE
  8
0
 10
111.045
 20
-12.4389
 11
111.382
 21
-11.9088
  0
LINE
  8
0
 10
111.382
 20
-11.9088
 11
111.649
 21
-11.3406
  0
LINE
  8
0
 10
111.649
 20
-11.3406
 11
111.843
 21
-10.7434
  0
LINE
  8
0
 10
111.843
 20
-10.7434
 11
111.961
 21
-10.1267
  0
LINE
  8
0
 10
111.961
 20
-10.1267
 11
112
 21
-9.5
  0
LINE
  8
0
 10
112
 20
-9.5
 11
112
 21
9.5
  0
LINE
  8
0
 10
112
 20
9.5
 11
111.961
 21
10.1267
  0
LINE
  8
0
 10
111.961
 20
10.1267
 11
111.843
 21
10.7434
  0
LINE
  8
0
 10
111.843
 20
10.7434
 11
111.649
 21
11.3406
  0
LINE
  8
0
 10
111.649
 20
11.3406
 11
111.382
 21
11.9088
  0
LINE
  8
0
 10
111.382
 20
11.9088
 11
111.045
 21
12.4389
  0
LINE
  8
0
 10
111.045
 20
12.4389
 11
110.645
 21
12.9227
  0
LINE
  8
0
 10
110.645
 20
12.9227
 11
110.187
 21
13.3526
  0
LINE
  8
0
 10
110.187
 20
13.3526
 11
109.679
 21
13.7216
  0
LINE
  8
0
 10
109.679
 20
13.7216
 11
109.129
 21
14.0241
  0
LINE
  8
0
 10
109.129
 20
14.0241
 11
108.545
 21
14.2553
  0
LINE
  8
0
 10
108.545
 20
14.2553
 11
107.937
 21
14.4114
  0
LINE
  8
0
 10
107.937
 20
14.4114
 11
107.314
 21
14.4901
  0
LINE
  8
0
 10
107.314
 20
14.4901
 11
-107.314
 21
14.4901
  0
LINE
  8
0
 10
-107.314
 20
14.4901
 11
-107.937
 21
14.4114
  0
LINE
  8
0
 10
-107.937
 20
14.4114
 11
-108.545
 21
14.2553
  0
LINE
  8
0
 10
-108.545
 20
14.2553
 11
-109.129
 21
14.0241
  0
LINE
  8
0
 10
-109.129
 20
14.0241
 11
-109.679
 21
13.7216
  0
LINE
  8
0
 10
-109.679
 20
13.7216
 11
-110.187
 21
13.3526
  0
LINE
  8
0
 10
-110.187
 20
13.3526
 11
-110.645
 21
12.9227
  0
LINE
  8
0
 10
-110.645
 20
12.9227
 11
-111.045
 21
12.4389
  0
LINE
  8
0
 10
-111.045
 20
12.4389
 11
-111.382
 21
11.9088
  0
LINE
  8
0
 10
-111.382
 20
11.9088
 11
-111.649
 21
11.3406
  0
LINE
  8
0
 10
-111.649
 20
11.3406
 11
-111.843
 21
10.7434
  0
LINE
  8
0
 10
-111.843
 20
10.7434
 11
-111.961
 21
10.1267
  0
LINE
  8
0
 10
-111.961
 20
10.1267
 11
-112
 21
9.5
  0
LINE
  8
0
 10
-112
 20
9.5
 11
-112
 21
-9.5
  0
LINE
  8
0
 10
-112
 20
-9.5
 11
-111.961
 21
-10.1267
  0
LINE
  8
0
 10
-111.961
 20
-10.1267
 11
-111.843
 21
-10.7434
  0
LINE
  8
0
 10
-111.843
 20
-10.7434
 11
-111.649
 21
-11.3406
  0
LINE
  8
0
 10
-111.649
 20
-11.3406
 11
-111.382
 21
-11.9088
  0
LINE
  8
0
 10
-111.382
 20
-11.9088
 11
-111.045
 21
-12.4389
  0
LINE
  8
0
 10
-111.045
 20
-12.4389
 11
-110.645
 21
-12.9227
  0
LINE
  8
0
 10
-110.645
 20
-12.9227
 11
-110.187
 21
-13.3526
  0
LINE
  8
0
 10
-110.187
 20
-13.3526
 11
-109.679
 21
-13.7216
  0
LINE
  8
0
 10
-109.679
 20
-13.7216
 11
-109.129
 21
-14.0241
  0
LINE
  8
0
 10
-109.129
 20
-14.0241
 11
-108.545
 21
-14.2553
  0
LINE
  8
0
 10
-108.545
 20
-14.2553
 11
-107.937
 21
-14.4114
  0
LINE
  8
0
 10
-107.937
 20
-14.4114
 11
-107.314
 21
-14.4901
  0
LINE
  8
0
 10
-107.314
 20
-14.4901
 11
107.314
 21
-14.4901
  0
LINE
  8
0
 10
107.314
 20
-14.4901
 11
107.937
 21
-14.4114
  0
LINE
  8
0
 10
-105.188
 20
4.50591
 11
-105.562
 21
4.55313
  0
LINE
  8
0
 10
-105.562
 20
4.55313
 11
-105.927
 21
4.64682
  0
LINE
  8
0
 10
-105.927
 20
4.64682
 11
-106.277
 21
4.78551
  0
LINE
  8
0
 10
-106.277
 20
4.78551
 11
-106.607
 21
4.96701
  0
LINE
  8
0
 10
-106.607
 20
4.96701
 11
-106.912
 21
5.18845
  0
LINE
  8
0
 10
-106.912
 20
5.18845
 11
-107.187
 21
5.44635
  0
LINE
  8
0
 10
-107.187
 20
5.44635
 11
-107.427
 21
5.73663
  0
LINE
  8
0
 10
-107.427
 20
5.73663
 11
-107.629
 21
6.05473
  0
LINE
  8
0
 10
-107.629
 20
6.05473
 11
-107.789
 21
6.39561
  0
LINE
  8
0
 10
-107.789
 20
6.39561
 11
-107.906
 21
6.75392
  0
LINE
  8
0
 10
-107.906
 20
6.75392
 11
-107.976
 21
7.12399
  0
LINE
  8
0
 10
-107.976
 20
7.12399
 11
-108
 21
7.5
  0
LINE
  8
0
 10
-108
 20
7.5
 11
-107.976
 21
7.87599
  0
LINE
  8
0
 10
-107.976
 20
7.87599
 11
-107.906
 21
8.24606
  0
LINE
  8
0
 10
-107.906
 20
8.24606
 11
-107.789
 21
8.60437
  0
LINE
  8
0
 10
-107.789
 20
8.60437
 11
-107.629
 21
8.94525
  0
LINE
  8
0
 10
-107.629
 20
8.94525
 11
-107.427
 21
9.26335
  0
LINE
  8
0
 10
-107.427
 20
9.26335
 11
-107.187
 21
9.55363
  0
LINE
  8
0
 10
-107.187
 20
9.55363
 11
-106.912
 21
9.81154
  0
LINE
  8
0
 10
-106.912
 20
9.81154
 11
-106.607
 21
10.033
  0
LINE
  8
0
 10
-106.607
 20
10.033
 11
-106.277
 21
10.2145
  0
LINE
  8
0
 10
-106.277
 20
10.2145
 11
-105.927
 21
10.3532
  0
LINE
  8
0
 10
-105.927
 20
10.3532
 11
-105.562
 21
10.4469
  0
LINE
  8
0
 10
-105.562
 20
10.4469
 11
-105.188
 21
10.4941
  0
LINE
  8
0
 10
-105.188
 20
10.4941
 11
-104.812
 21
10.4941
  0
LINE
  8
0
 10
-104.812
 20
10.4941
 11
-104.438
 21
10.4469
  0
LINE
  8
0
 10
-104.438
 20
10.4469
 11
-104.073
 21
10.3532
  0
LINE
  8
0
 10
-104.073
 20
10.3532
 11
-103.723
 21
10.2145
  0
LINE
  8
0
 10
-103.723
 20
10.2145
 11
-103.393
 21
10.033
  0
LINE
  8
0
 10
-103.393
 20
10.033
 11
-103.088
 21
9.81154
  0
LINE
  8
0
 10
-103.088
 20
9.81154
 11
-102.813
 21
9.55363
  0
LINE
  8
0
 10
-102.813
 20
9.55363
 11
-102.573
 21
9.26335
  0
LINE
  8
0
 10
-102.573
 20
9.26335
 11
-102.371
 21
8.94525
  0
LINE
  8
0
 10
-102.371
 20
8.94525
 11
-102.211
 21
8.60437
  0
LINE
  8
0
 10
-102.211
 20
8.60437
 11
-102.094
 21
8.24606
  0
LINE
  8
0
 10
-102.094
 20
8.24606
 11
-102.024
 21
7.87599
  0
LINE
  8
0
 10
-102.024
 20
7.87599
 11
-102
 21
7.5
  0
LINE
  8
0
 10
-102
 20
7.5
 11
-102.024
 21
7.12399
  0
LINE
  8
0
 10
-102.024
 20
7.12399
 11
-102.094
 21
6.75392
  0
LINE
  8
0
 10
-102.094
 20
6.75392
 11
-102.211
 21
6.39561
  0
LINE
  8
0
 10
-102.211
 20
6.39561
 11
-102.371
 21
6.05473
  0
LINE
  8
0
 10
-102.371
 20
6.05473
 11
-102.573
 21
5.73663
  0
LINE
  8
0
 10
-102.573
 20
5.73663
 11
-102.813
 21
5.44635
  0
LINE
  8
0
 10
-102.813
 20
5.44635
 11
-103.088
 21
5.18845
  0
LINE
  8
0
 10
-103.088
 20
5.18845
 11
-103.393
 21
4.96701
  0
LINE
  8
0
 10
-103.393
 20
4.96701
 11
-103.723
 21
4.78551
  0
LINE
  8
0
 10
-103.723
 20
4.78551
 11
-104.073
 21
4.64682
  0
LINE
  8
0
 10
-104.073
 20
4.64682
 11
-104.438
 21
4.55313
  0
LINE
  8
0
 10
-104.438
 20
4.55313
 11
-104.812
 21
4.50591
  0
LINE
  8
0
 10
-104.812
 20
4.50591
 11
-105.188
 21
4.50591
  0
LINE
  8
0
 10
-105.094
 20
-1.49704
 11
-105.281
 21
-1.47342
  0
LINE
  8
0
 10
-105.281
 20
-1.47342
 11
-105.464
 21
-1.42657
  0
LINE
  8
0
 10
-105.464
 20
-1.42657
 11
-105.639
 21
-1.35724
  0
LINE
  8
0
 10
-105.639
 20
-1.35724
 11
-105.804
 21
-1.26648
  0
LINE
  8
0
 10
-105.804
 20
-1.26648
 11
-105.956
 21
-1.15576
  0
LINE
  8
0
 10
-105.956
 20
-1.15576
 11
-106.093
 21
-1.02681
  0
LINE
  8
0
 10
-106.093
 20
-1.02681
 11
-106.214
 21
-0.881668
  0
LINE
  8
0
 10
-106.214
 20
-0.881668
 11
-106.314
 21
-0.722626
  0
LINE
  8
0
 10
-106.314
 20
-0.722626
 11
-106.395
 21
-0.552185
  0
LINE
  8
0
 10
-106.395
 20
-0.552185
 11
-106.453
 21
-0.373032
  0
LINE
  8
0
 10
-106.453
 20
-0.373032
 11
-106.488
 21
-0.187988
  0
LINE
  8
0
 10
-106.488
 20
-0.187988
 11
-106.5
 21
0
  0
LINE
  8
0
 10
-106.5
 20
0
 11
-106.488
 21
0.187988
  0
LINE
  8
0
 10
-106.488
 20
0.187988
 11
-106.453
 21
0.373032
  0
LINE
  8
0
 10
-106.453
 20
0.373032
 11
-106.395
 21
0.552185
  0
LINE
  8
0
 10
-106.395
 20
0.552185
 11
-106.314
 21
0.722626
  0
LINE
  8
0
 10
-106.314
 20
0.722626
 11
-106.214
 21
0.881668
  0
LINE
  8
0
 10
-106.214
 20
0.881668
 11
-106.093
 21
1.02681
  0
LINE
  8
0
 10
-106.093
 20
1.02681
 11
-105.956
 21
1.15576
  0
LINE
  8
0
 10
-105.956
 20
1.15576
 11
-105.804
 21
1.26648
  0
LINE
  8
0
 10
-105.804
 20
1.26648
 11
-105.639
 21
1.35724
  0
LINE
  8
0
 10
-105.639
 20
1.35724
 11
-105.464
 21
1.42657
  0
LINE
  8
0
 10
-105.464
 20
1.42657
 11
-105.281
 21
1.47342
  0
LINE
  8
0
 10
-105.281
 20
1.47342
 11
-105.094
 21
1.49704
  0
LINE
  8
0
 10
-105.094
 20
1.49704
 11
-104.906
 21
1.49704
  0
LINE
  8
0
 10
-104.906
 20
1.49704
 11
-104.719
 21
1.47342
  0
LINE
  8
0
 10
-104.719
 20
1.47342
 11
-104.536
 21
1.42657
  0
LINE
  8
0
 10
-104.536
 20
1.42657
 11
-104.361
 21
1.35724
  0
LINE
  8
0
 10
-104.361
 20
1.35724
 11
-104.196
 21
1.26648
  0
LINE
  8
0
 10
-104.196
 20
1.26648
 11
-104.044
 21
1.15576
  0
LINE
  8
0
 10
-104.044
 20
1.15576
 11
-103.907
 21
1.02681
  0
LINE
  8
0
 10
-103.907
 20
1.02681
 11
-103.786
 21
0.881668
  0
LINE
  8
0
 10
-103.786
 20
0.881668
 11
-103.686
 21
0.722626
  0
LINE
  8
0
 10
-103.686
 20
0.722626
 11
-103.605
 21
0.552185
  0
LINE
  8
0
 10
-103.605
 20
0.552185
 11
-103.547
 21
0.373032
  0
LINE
  8
0
 10
-103.547
 20
0.373032
 11
-103.512
 21
0.187988
  0
LINE
  8
0
 10
-103.512
 20
0.187988
 11
-103.5
 21
0
  0
LINE
  8
0
 10
-103.5
 20
0
 11
-103.512
 21
-0.187988
  0
LINE
  8
0
 10
-103.512
 20
-0.187988
 11
-103.547
 21
-0.373032
  0
LINE
  8
0
 10
-103.547
 20
-0.373032
 11
-103.605
 21
-0.552185
  0
LINE
  8
0
 10
-103.605
 20
-0.552185
 11
-103.686
 21
-0.722626
  0
LINE
  8
0
 10
-103.686
 20
-0.722626
 11
-103.786
 21
-0.881668
  0
LINE
  8
0
 10
-103.786
 20
-0.881668
 11
-103.907
 21
-1.02681
  0
LINE
  8
0
 10
-103.907
 20
-1.02681
 11
-104.044
 21
-1.15576
  0
LINE
  8
0
 10
-104.044
 20
-1.15576
 11
-104.196
 21
-1.26648
  0
LINE
  8
0
 10
-104.196
 20
-1.26648
 11
-104.361
 21
-1.35724
  0
LINE
  8
0
 10
-104.361
 20
-1.35724
 11
-104.536
 21
-1.42657
  0
LINE
  8
0
 10
-104.536
 20
-1.42657
 11
-104.719
 21
-1.47342
  0
LINE
  8
0
 10
-104.719
 20
-1.47342
 11
-104.906
 21
-1.49704
  0
LINE
  8
0
 10
-104.906
 20
-1.49704
 11
-105.094
 21
-1.49704
  0
LINE
  8
0
 10
-105.188
 20
-10.4941
 11
-105.562
 21
-10.4469
  0
LINE
  8
0
 10
-105.562
 20
-10.4469
 11
-105.927
 21
-10.3532
  0
LINE
  8
0
 10
-105.927
 20
-10.3532
 11
-106.277
 21
-10.2145
  0
LINE
  8
0
 10
-106.277
 20
-10.2145
 11
-106.607
 21
-10.033
  0
LINE
  8
0
 10
-106.607
 20
-10.033
 11
-106.912
 21
-9.81154
  0
LINE
  8
0
 10
-106.912
 20
-9.81154
 11
-107.187
 21
-9.55363
  0
LINE
  8
0
 10
-107.187
 20
-9.55363
 11
-107.427
 21
-9.26335
  0
LINE
  8
0
 10
-107.427
 20
-9.26335
 11
-107.629
 21
-8.94525
  0
LINE
  8
0
 10
-107.629
 20
-8.94525
 11
-107.789
 21
-8.60437
  0
LINE
  8
0
 10
-107.789
 20
-8.60437
 11
-107.906
 21
-8.24606
  0
LINE
  8
0
 10
-107.906
 20
-8.24606
 11
-107.976
 21
-7.87599
  0
LINE
  8
0
 10
-107.976
 20
-7.87599
 11
-108
 21
-7.5
  0
LINE
  8
0
 10
-108
 20
-7.5
 11
-107.976
 21
-7.12399
  0
LINE
  8
0
 10
-107.976
 20
-7.12399
 11
-107.906
 21
-6.75392
  0
LINE
  8
0
 10
-107.906
 20
-6.75392
 11
-107.789
 21
-6.39561
  0
LINE
  8
0
 10
-107.789
 20
-6.39561
 11
-107.629
 21
-6.05473
  0
LINE
  8
0
 10
-107.629
 20
-6.05473
 11
-107.427
 21
-5.73663
  0
LINE
  8
0
 10
-107.427
 20
-5.73663
 11
-107.187
 21
-5.44635
  0
LINE
  8
0
 10
-107.187
 20
-5.44635
 11
-106.912
 21
-5.18845
  0
LINE
  8
0
 10
-106.912
 20
-5.18845
 11
-106.607
 21
-4.96701
  0
LINE
  8
0
 10
-106.607
 20
-4.96701
 11
-106.277
 21
-4.78551
  0
LINE
  8
0
 10
-106.277
 20
-4.78551
 11
-105.927
 21
-4.64682
  0
LINE
  8
0
 10
-105.927
 20
-4.64682
 11
-105.562
 21
-4.55313
  0
LINE
  8
0
 10
-105.562
 20
-4.55313
 11
-105.188
 21
-4.50591
  0
LINE
  8
0
 10
-105.188
 20
-4.50591
 11
-104.812
 21
-4.50591
  0
LINE
  8
0
 10
-104.812
 20
-4.50591
 11
-104.438
 21
-4.55313
  0
LINE
  8
0
 10
-104.438
 20
-4.55313
 11
-104.073
 21
-4.64682
  0
LINE
  8
0
 10
-104.073
 20
-4.64682
 11
-103.723
 21
-4.78551
  0
LINE
  8
0
 10
-103.723
 20
-4.78551
 11
-103.393
 21
-4.96701
  0
LINE
  8
0
 10
-103.393
 20
-4.96701
 11
-103.088
 21
-5.18845
  0
LINE
  8
0
 10
-103.088
 20
-5.18845
 11
-102.813
 21
-5.44635
  0
LINE
  8
0
 10
-102.813
 20
-5.44635
 11
-102.573
 21
-5.73663
  0
LINE
  8
0
 10
-102.573
 20
-5.73663
 11
-102.371
 21
-6.05473
  0
LINE
  8
0
 10
-102.371
 20
-6.05473
 11
-102.211
 21
-6.39561
  0
LINE
  8
0
 10
-102.211
 20
-6.39561
 11
-102.094
 21
-6.75392
  0
LINE
  8
0
 10
-102.094
 20
-6.75392
 11
-102.024
 21
-7.12399
  0
LINE
  8
0
 10
-102.024
 20
-7.12399
 11
-102
 21
-7.5
  0
LINE
  8
0
 10
-102
 20
-7.5
 11
-102.024
 21
-7.87599
  0
LINE
  8
0
 10
-102.024
 20
-7.87599
 11
-102.094
 21
-8.24606
  0
LINE
  8
0
 10
-102.094
 20
-8.24606
 11
-102.211
 21
-8.60437
  0
LINE
  8
0
 10
-102.211
 20
-8.60437
 11
-102.371
 21
-8.94525
  0
LINE
  8
0
 10
-102.371
 20
-8.94525
 11
-102.573
 21
-9.26335
  0
LINE
  8
0
 10
-102.573
 20
-9.26335
 11
-102.813
 21
-9.55363
  0
LINE
  8
0
 10
-102.813
 20
-9.55363
 11
-103.088
 21
-9.81154
  0
LINE
  8
0
 10
-103.088
 20
-9.81154
 11
-103.393
 21
-10.033
  0
LINE
  8
0
 10
-103.393
 20
-10.033
 11
-103.723
 21
-10.2145
  0
LINE
  8
0
 10
-103.723
 20
-10.2145
 11
-104.073
 21
-10.3532
  0
LINE
  8
0
 10
-104.073
 20
-10.3532
 11
-104.438
 21
-10.4469
  0
LINE
  8
0
 10
-104.438
 20
-10.4469
 11
-104.812
 21
-10.4941
  0
LINE
  8
0
 10
-104.812
 20
-10.4941
 11
-105.188
 21
-10.4941
  0
ENDSEC
  0
SECTION
  2
OBJECTS
  0
DICTIONARY
  0
ENDSEC
  0
EOF
