  0
SECTION
  2
BLOCKS
  0
ENDSEC
  0
SECTION
  2
ENTITIES
  0
LINE
  8
0
 10
130.437
 20
62.0886
 11
131.045
 21
62.2447
  0
LINE
  8
0
 10
131.045
 20
62.2447
 11
131.629
 21
62.4759
  0
LINE
  8
0
 10
131.629
 20
62.4759
 11
132.179
 21
62.7784
  0
LINE
  8
0
 10
132.179
 20
62.7784
 11
132.687
 21
63.1474
  0
LINE
  8
0
 10
132.687
 20
63.1474
 11
133.145
 21
63.5773
  0
LINE
  8
0
 10
133.145
 20
63.5773
 11
133.545
 21
64.0611
  0
LINE
  8
0
 10
133.545
 20
64.0611
 11
133.882
 21
64.5912
  0
LINE
  8
0
 10
133.882
 20
64.5912
 11
134.149
 21
65.1594
  0
LINE
  8
0
 10
134.149
 20
65.1594
 11
134.343
 21
65.7566
  0
LINE
  8
0
 10
134.343
 20
65.7566
 11
134.461
 21
66.3733
  0
LINE
  8
0
 10
134.461
 20
66.3733
 11
134.5
 21
67
  0
LINE
  8
0
 10
134.5
 20
67
 11
134.5
 21
161
  0
LINE
  8
0
 10
134.5
 20
161
 11
134.461
 21
161.627
  0
LINE
  8
0
 10
134.461
 20
161.627
 11
134.343
 21
162.243
  0
LINE
  8
0
 10
134.343
 20
162.243
 11
134.149
 21
162.841
  0
LINE
  8
0
 10
134.149
 20
162.841
 11
133.882
 21
163.409
  0
LINE
  8
0
 10
133.882
 20
163.409
 11
133.545
 21
163.939
  0
LINE
  8
0
 10
133.545
 20
163.939
 11
133.145
 21
164.423
  0
LINE
  8
0
 10
133.145
 20
164.423
 11
132.687
 21
164.853
  0
LINE
  8
0
 10
132.687
 20
164.853
 11
132.179
 21
165.222
  0
LINE
  8
0
 10
132.179
 20
165.222
 11
131.629
 21
165.524
  0
LINE
  8
0
 10
131.629
 20
165.524
 11
131.045
 21
165.755
  0
LINE
  8
0
 10
131.045
 20
165.755
 11
130.437
 21
165.911
  0
LINE
  8
0
 10
130.437
 20
165.911
 11
129.814
 21
165.99
  0
LINE
  8
0
 10
129.814
 20
165.99
 11
-129.814
 21
165.99
  0
LINE
  8
0
 10
-129.814
 20
165.99
 11
-130.437
 21
165.911
  0
LINE
  8
0
 10
-130.437
 20
165.911
 11
-131.045
 21
165.755
  0
LINE
  8
0
 10
-131.045
 20
165.755
 11
-131.629
 21
165.524
  0
LINE
  8
0
 10
-131.629
 20
165.524
 11
-132.179
 21
165.222
  0
LINE
  8
0
 10
-132.179
 20
165.222
 11
-132.687
 21
164.853
  0
LINE
  8
0
 10
-132.687
 20
164.853
 11
-133.145
 21
164.423
  0
LINE
  8
0
 10
-133.145
 20
164.423
 11
-133.545
 21
163.939
  0
LINE
  8
0
 10
-133.545
 20
163.939
 11
-133.882
 21
163.409
  0
LINE
  8
0
 10
-133.882
 20
163.409
 11
-134.149
 21
162.841
  0
LINE
  8
0
 10
-134.149
 20
162.841
 11
-134.343
 21
162.243
  0
LINE
  8
0
 10
-134.343
 20
162.243
 11
-134.461
 21
161.627
  0
LINE
  8
0
 10
-134.461
 20
161.627
 11
-134.5
 21
161
  0
LINE
  8
0
 10
-134.5
 20
161
 11
-134.5
 21
67
  0
LINE
  8
0
 10
-134.5
 20
67
 11
-134.461
 21
66.3733
  0
LINE
  8
0
 10
-134.461
 20
66.3733
 11
-134.343
 21
65.7566
  0
LINE
  8
0
 10
-134.343
 20
65.7566
 11
-134.149
 21
65.1594
  0
LINE
  8
0
 10
-134.149
 20
65.1594
 11
-133.882
 21
64.5912
  0
LINE
  8
0
 10
-133.882
 20
64.5912
 11
-133.545
 21
64.0611
  0
LINE
  8
0
 10
-133.545
 20
64.0611
 11
-133.145
 21
63.5773
  0
LINE
  8
0
 10
-133.145
 20
63.5773
 11
-132.687
 21
63.1474
  0
LINE
  8
0
 10
-132.687
 20
63.1474
 11
-132.179
 21
62.7784
  0
LINE
  8
0
 10
-132.179
 20
62.7784
 11
-131.629
 21
62.4759
  0
LINE
  8
0
 10
-131.629
 20
62.4759
 11
-131.045
 21
62.2447
  0
LINE
  8
0
 10
-131.045
 20
62.2447
 11
-130.437
 21
62.0886
  0
LINE
  8
0
 10
-130.437
 20
62.0886
 11
-129.814
 21
62.0099
  0
LINE
  8
0
 10
-129.814
 20
62.0099
 11
129.814
 21
62.0099
  0
LINE
  8
0
 10
129.814
 20
62.0099
 11
130.437
 21
62.0886
  0
LINE
  8
0
 10
-127.688
 20
156.006
 11
-128.062
 21
156.053
  0
LINE
  8
0
 10
-128.062
 20
156.053
 11
-128.427
 21
156.147
  0
LINE
  8
0
 10
-128.427
 20
156.147
 11
-128.777
 21
156.286
  0
LINE
  8
0
 10
-128.777
 20
156.286
 11
-129.107
 21
156.467
  0
LINE
  8
0
 10
-129.107
 20
156.467
 11
-129.412
 21
156.688
  0
LINE
  8
0
 10
-129.412
 20
156.688
 11
-129.687
 21
156.946
  0
LINE
  8
0
 10
-129.687
 20
156.946
 11
-129.927
 21
157.237
  0
LINE
  8
0
 10
-129.927
 20
157.237
 11
-130.129
 21
157.555
  0
LINE
  8
0
 10
-130.129
 20
157.555
 11
-130.289
 21
157.896
  0
LINE
  8
0
 10
-130.289
 20
157.896
 11
-130.406
 21
158.254
  0
LINE
  8
0
 10
-130.406
 20
158.254
 11
-130.476
 21
158.624
  0
LINE
  8
0
 10
-130.476
 20
158.624
 11
-130.5
 21
159
  0
LINE
  8
0
 10
-130.5
 20
159
 11
-130.476
 21
159.376
  0
LINE
  8
0
 10
-130.476
 20
159.376
 11
-130.406
 21
159.746
  0
LINE
  8
0
 10
-130.406
 20
159.746
 11
-130.289
 21
160.104
  0
LINE
  8
0
 10
-130.289
 20
160.104
 11
-130.129
 21
160.445
  0
LINE
  8
0
 10
-130.129
 20
160.445
 11
-129.927
 21
160.763
  0
LINE
  8
0
 10
-129.927
 20
160.763
 11
-129.687
 21
161.054
  0
LINE
  8
0
 10
-129.687
 20
161.054
 11
-129.412
 21
161.312
  0
LINE
  8
0
 10
-129.412
 20
161.312
 11
-129.107
 21
161.533
  0
LINE
  8
0
 10
-129.107
 20
161.533
 11
-128.777
 21
161.714
  0
LINE
  8
0
 10
-128.777
 20
161.714
 11
-128.427
 21
161.853
  0
LINE
  8
0
 10
-128.427
 20
161.853
 11
-128.062
 21
161.947
  0
LINE
  8
0
 10
-128.062
 20
161.947
 11
-127.688
 21
161.994
  0
LINE
  8
0
 10
-127.688
 20
161.994
 11
-127.312
 21
161.994
  0
LINE
  8
0
 10
-127.312
 20
161.994
 11
-126.938
 21
161.947
  0
LINE
  8
0
 10
-126.938
 20
161.947
 11
-126.573
 21
161.853
  0
LINE
  8
0
 10
-126.573
 20
161.853
 11
-126.223
 21
161.714
  0
LINE
  8
0
 10
-126.223
 20
161.714
 11
-125.893
 21
161.533
  0
LINE
  8
0
 10
-125.893
 20
161.533
 11
-125.588
 21
161.312
  0
LINE
  8
0
 10
-125.588
 20
161.312
 11
-125.313
 21
161.054
  0
LINE
  8
0
 10
-125.313
 20
161.054
 11
-125.073
 21
160.763
  0
LINE
  8
0
 10
-125.073
 20
160.763
 11
-124.871
 21
160.445
  0
LINE
  8
0
 10
-124.871
 20
160.445
 11
-124.711
 21
160.104
  0
LINE
  8
0
 10
-124.711
 20
160.104
 11
-124.594
 21
159.746
  0
LINE
  8
0
 10
-124.594
 20
159.746
 11
-124.524
 21
159.376
  0
LINE
  8
0
 10
-124.524
 20
159.376
 11
-124.5
 21
159
  0
LINE
  8
0
 10
-124.5
 20
159
 11
-124.524
 21
158.624
  0
LINE
  8
0
 10
-124.524
 20
158.624
 11
-124.594
 21
158.254
  0
LINE
  8
0
 10
-124.594
 20
158.254
 11
-124.711
 21
157.896
  0
LINE
  8
0
 10
-124.711
 20
157.896
 11
-124.871
 21
157.555
  0
LINE
  8
0
 10
-124.871
 20
157.555
 11
-125.073
 21
157.237
  0
LINE
  8
0
 10
-125.073
 20
157.237
 11
-125.313
 21
156.946
  0
LINE
  8
0
 10
-125.313
 20
156.946
 11
-125.588
 21
156.688
  0
LINE
  8
0
 10
-125.588
 20
156.688
 11
-125.893
 21
156.467
  0
LINE
  8
0
 10
-125.893
 20
156.467
 11
-126.223
 21
156.286
  0
LINE
  8
0
 10
-126.223
 20
156.286
 11
-126.573
 21
156.147
  0
LINE
  8
0
 10
-126.573
 20
156.147
 11
-126.938
 21
156.053
  0
LINE
  8
0
 10
-126.938
 20
156.053
 11
-127.312
 21
156.006
  0
LINE
  8
0
 10
-127.312
 20
156.006
 11
-127.688
 21
156.006
  0
LINE
  8
0
 10
127.312
 20
156.006
 11
126.938
 21
156.053
  0
LINE
  8
0
 10
126.938
 20
156.053
 11
126.573
 21
156.147
  0
LINE
  8
0
 10
126.573
 20
156.147
 11
126.223
 21
156.286
  0
LINE
  8
0
 10
126.223
 20
156.286
 11
125.893
 21
156.467
  0
LINE
  8
0
 10
125.893
 20
156.467
 11
125.588
 21
156.688
  0
LINE
  8
0
 10
125.588
 20
156.688
 11
125.313
 21
156.946
  0
LINE
  8
0
 10
125.313
 20
156.946
 11
125.073
 21
157.237
  0
LINE
  8
0
 10
125.073
 20
157.237
 11
124.871
 21
157.555
  0
LINE
  8
0
 10
124.871
 20
157.555
 11
124.711
 21
157.896
  0
LINE
  8
0
 10
124.711
 20
157.896
 11
124.594
 21
158.254
  0
LINE
  8
0
 10
124.594
 20
158.254
 11
124.524
 21
158.624
  0
LINE
  8
0
 10
124.524
 20
158.624
 11
124.5
 21
159
  0
LINE
  8
0
 10
124.5
 20
159
 11
124.524
 21
159.376
  0
LINE
  8
0
 10
124.524
 20
159.376
 11
124.594
 21
159.746
  0
LINE
  8
0
 10
124.594
 20
159.746
 11
124.711
 21
160.104
  0
LINE
  8
0
 10
124.711
 20
160.104
 11
124.871
 21
160.445
  0
LINE
  8
0
 10
124.871
 20
160.445
 11
125.073
 21
160.763
  0
LINE
  8
0
 10
125.073
 20
160.763
 11
125.313
 21
161.054
  0
LINE
  8
0
 10
125.313
 20
161.054
 11
125.588
 21
161.312
  0
LINE
  8
0
 10
125.588
 20
161.312
 11
125.893
 21
161.533
  0
LINE
  8
0
 10
125.893
 20
161.533
 11
126.223
 21
161.714
  0
LINE
  8
0
 10
126.223
 20
161.714
 11
126.573
 21
161.853
  0
LINE
  8
0
 10
126.573
 20
161.853
 11
126.938
 21
161.947
  0
LINE
  8
0
 10
126.938
 20
161.947
 11
127.312
 21
161.994
  0
LINE
  8
0
 10
127.312
 20
161.994
 11
127.688
 21
161.994
  0
LINE
  8
0
 10
127.688
 20
161.994
 11
128.062
 21
161.947
  0
LINE
  8
0
 10
128.062
 20
161.947
 11
128.427
 21
161.853
  0
LINE
  8
0
 10
128.427
 20
161.853
 11
128.777
 21
161.714
  0
LINE
  8
0
 10
128.777
 20
161.714
 11
129.107
 21
161.533
  0
LINE
  8
0
 10
129.107
 20
161.533
 11
129.412
 21
161.312
  0
LINE
  8
0
 10
129.412
 20
161.312
 11
129.687
 21
161.054
  0
LINE
  8
0
 10
129.687
 20
161.054
 11
129.927
 21
160.763
  0
LINE
  8
0
 10
129.927
 20
160.763
 11
130.129
 21
160.445
  0
LINE
  8
0
 10
130.129
 20
160.445
 11
130.289
 21
160.104
  0
LINE
  8
0
 10
130.289
 20
160.104
 11
130.406
 21
159.746
  0
LINE
  8
0
 10
130.406
 20
159.746
 11
130.476
 21
159.376
  0
LINE
  8
0
 10
130.476
 20
159.376
 11
130.5
 21
159
  0
LINE
  8
0
 10
130.5
 20
159
 11
130.476
 21
158.624
  0
LINE
  8
0
 10
130.476
 20
158.624
 11
130.406
 21
158.254
  0
LINE
  8
0
 10
130.406
 20
158.254
 11
130.289
 21
157.896
  0
LINE
  8
0
 10
130.289
 20
157.896
 11
130.129
 21
157.555
  0
LINE
  8
0
 10
130.129
 20
157.555
 11
129.927
 21
157.237
  0
LINE
  8
0
 10
129.927
 20
157.237
 11
129.687
 21
156.946
  0
LINE
  8
0
 10
129.687
 20
156.946
 11
129.412
 21
156.688
  0
LINE
  8
0
 10
129.412
 20
156.688
 11
129.107
 21
156.467
  0
LINE
  8
0
 10
129.107
 20
156.467
 11
128.777
 21
156.286
  0
LINE
  8
0
 10
128.777
 20
156.286
 11
128.427
 21
156.147
  0
LINE
  8
0
 10
128.427
 20
156.147
 11
128.062
 21
156.053
  0
LINE
  8
0
 10
128.062
 20
156.053
 11
127.688
 21
156.006
  0
LINE
  8
0
 10
127.688
 20
156.006
 11
127.312
 21
156.006
  0
LINE
  8
0
 10
-127.688
 20
66.0059
 11
-128.062
 21
66.0531
  0
LINE
  8
0
 10
-128.062
 20
66.0531
 11
-128.427
 21
66.1468
  0
LINE
  8
0
 10
-128.427
 20
66.1468
 11
-128.777
 21
66.2855
  0
LINE
  8
0
 10
-128.777
 20
66.2855
 11
-129.107
 21
66.467
  0
LINE
  8
0
 10
-129.107
 20
66.467
 11
-129.412
 21
66.6885
  0
LINE
  8
0
 10
-129.412
 20
66.6885
 11
-129.687
 21
66.9464
  0
LINE
  8
0
 10
-129.687
 20
66.9464
 11
-129.927
 21
67.2366
  0
LINE
  8
0
 10
-129.927
 20
67.2366
 11
-130.129
 21
67.5547
  0
LINE
  8
0
 10
-130.129
 20
67.5547
 11
-130.289
 21
67.8956
  0
LINE
  8
0
 10
-130.289
 20
67.8956
 11
-130.406
 21
68.2539
  0
LINE
  8
0
 10
-130.406
 20
68.2539
 11
-130.476
 21
68.624
  0
LINE
  8
0
 10
-130.476
 20
68.624
 11
-130.5
 21
69
  0
LINE
  8
0
 10
-130.5
 20
69
 11
-130.476
 21
69.376
  0
LINE
  8
0
 10
-130.476
 20
69.376
 11
-130.406
 21
69.7461
  0
LINE
  8
0
 10
-130.406
 20
69.7461
 11
-130.289
 21
70.1044
  0
LINE
  8
0
 10
-130.289
 20
70.1044
 11
-130.129
 21
70.4453
  0
LINE
  8
0
 10
-130.129
 20
70.4453
 11
-129.927
 21
70.7634
  0
LINE
  8
0
 10
-129.927
 20
70.7634
 11
-129.687
 21
71.0536
  0
LINE
  8
0
 10
-129.687
 20
71.0536
 11
-129.412
 21
71.3115
  0
LINE
  8
0
 10
-129.412
 20
71.3115
 11
-129.107
 21
71.533
  0
LINE
  8
0
 10
-129.107
 20
71.533
 11
-128.777
 21
71.7145
  0
LINE
  8
0
 10
-128.777
 20
71.7145
 11
-128.427
 21
71.8532
  0
LINE
  8
0
 10
-128.427
 20
71.8532
 11
-128.062
 21
71.9469
  0
LINE
  8
0
 10
-128.062
 20
71.9469
 11
-127.688
 21
71.9941
  0
LINE
  8
0
 10
-127.688
 20
71.9941
 11
-127.312
 21
71.9941
  0
LINE
  8
0
 10
-127.312
 20
71.9941
 11
-126.938
 21
71.9469
  0
LINE
  8
0
 10
-126.938
 20
71.9469
 11
-126.573
 21
71.8532
  0
LINE
  8
0
 10
-126.573
 20
71.8532
 11
-126.223
 21
71.7145
  0
LINE
  8
0
 10
-126.223
 20
71.7145
 11
-125.893
 21
71.533
  0
LINE
  8
0
 10
-125.893
 20
71.533
 11
-125.588
 21
71.3115
  0
LINE
  8
0
 10
-125.588
 20
71.3115
 11
-125.313
 21
71.0536
  0
LINE
  8
0
 10
-125.313
 20
71.0536
 11
-125.073
 21
70.7634
  0
LINE
  8
0
 10
-125.073
 20
70.7634
 11
-124.871
 21
70.4453
  0
LINE
  8
0
 10
-124.871
 20
70.4453
 11
-124.711
 21
70.1044
  0
LINE
  8
0
 10
-124.711
 20
70.1044
 11
-124.594
 21
69.7461
  0
LINE
  8
0
 10
-124.594
 20
69.7461
 11
-124.524
 21
69.376
  0
LINE
  8
0
 10
-124.524
 20
69.376
 11
-124.5
 21
69
  0
LINE
  8
0
 10
-124.5
 20
69
 11
-124.524
 21
68.624
  0
LINE
  8
0
 10
-124.524
 20
68.624
 11
-124.594
 21
68.2539
  0
LINE
  8
0
 10
-124.594
 20
68.2539
 11
-124.711
 21
67.8956
  0
LINE
  8
0
 10
-124.711
 20
67.8956
 11
-124.871
 21
67.5547
  0
LINE
  8
0
 10
-124.871
 20
67.5547
 11
-125.073
 21
67.2366
  0
LINE
  8
0
 10
-125.073
 20
67.2366
 11
-125.313
 21
66.9464
  0
LINE
  8
0
 10
-125.313
 20
66.9464
 11
-125.588
 21
66.6885
  0
LINE
  8
0
 10
-125.588
 20
66.6885
 11
-125.893
 21
66.467
  0
LINE
  8
0
 10
-125.893
 20
66.467
 11
-126.223
 21
66.2855
  0
LINE
  8
0
 10
-126.223
 20
66.2855
 11
-126.573
 21
66.1468
  0
LINE
  8
0
 10
-126.573
 20
66.1468
 11
-126.938
 21
66.0531
  0
LINE
  8
0
 10
-126.938
 20
66.0531
 11
-127.312
 21
66.0059
  0
LINE
  8
0
 10
-127.312
 20
66.0059
 11
-127.688
 21
66.0059
  0
LINE
  8
0
 10
127.312
 20
66.0059
 11
126.938
 21
66.0531
  0
LINE
  8
0
 10
126.938
 20
66.0531
 11
126.573
 21
66.1468
  0
LINE
  8
0
 10
126.573
 20
66.1468
 11
126.223
 21
66.2855
  0
LINE
  8
0
 10
126.223
 20
66.2855
 11
125.893
 21
66.467
  0
LINE
  8
0
 10
125.893
 20
66.467
 11
125.588
 21
66.6885
  0
LINE
  8
0
 10
125.588
 20
66.6885
 11
125.313
 21
66.9464
  0
LINE
  8
0
 10
125.313
 20
66.9464
 11
125.073
 21
67.2366
  0
LINE
  8
0
 10
125.073
 20
67.2366
 11
124.871
 21
67.5547
  0
LINE
  8
0
 10
124.871
 20
67.5547
 11
124.711
 21
67.8956
  0
LINE
  8
0
 10
124.711
 20
67.8956
 11
124.594
 21
68.2539
  0
LINE
  8
0
 10
124.594
 20
68.2539
 11
124.524
 21
68.624
  0
LINE
  8
0
 10
124.524
 20
68.624
 11
124.5
 21
69
  0
LINE
  8
0
 10
124.5
 20
69
 11
124.524
 21
69.376
  0
LINE
  8
0
 10
124.524
 20
69.376
 11
124.594
 21
69.7461
  0
LINE
  8
0
 10
124.594
 20
69.7461
 11
124.711
 21
70.1044
  0
LINE
  8
0
 10
124.711
 20
70.1044
 11
124.871
 21
70.4453
  0
LINE
  8
0
 10
124.871
 20
70.4453
 11
125.073
 21
70.7634
  0
LINE
  8
0
 10
125.073
 20
70.7634
 11
125.313
 21
71.0536
  0
LINE
  8
0
 10
125.313
 20
71.0536
 11
125.588
 21
71.3115
  0
LINE
  8
0
 10
125.588
 20
71.3115
 11
125.893
 21
71.533
  0
LINE
  8
0
 10
125.893
 20
71.533
 11
126.223
 21
71.7145
  0
LINE
  8
0
 10
126.223
 20
71.7145
 11
126.573
 21
71.8532
  0
LINE
  8
0
 10
126.573
 20
71.8532
 11
126.938
 21
71.9469
  0
LINE
  8
0
 10
126.938
 20
71.9469
 11
127.312
 21
71.9941
  0
LINE
  8
0
 10
127.312
 20
71.9941
 11
127.688
 21
71.9941
  0
LINE
  8
0
 10
127.688
 20
71.9941
 11
128.062
 21
71.9469
  0
LINE
  8
0
 10
128.062
 20
71.9469
 11
128.427
 21
71.8532
  0
LINE
  8
0
 10
128.427
 20
71.8532
 11
128.777
 21
71.7145
  0
LINE
  8
0
 10
128.777
 20
71.7145
 11
129.107
 21
71.533
  0
LINE
  8
0
 10
129.107
 20
71.533
 11
129.412
 21
71.3115
  0
LINE
  8
0
 10
129.412
 20
71.3115
 11
129.687
 21
71.0536
  0
LINE
  8
0
 10
129.687
 20
71.0536
 11
129.927
 21
70.7634
  0
LINE
  8
0
 10
129.927
 20
70.7634
 11
130.129
 21
70.4453
  0
LINE
  8
0
 10
130.129
 20
70.4453
 11
130.289
 21
70.1044
  0
LINE
  8
0
 10
130.289
 20
70.1044
 11
130.406
 21
69.7461
  0
LINE
  8
0
 10
130.406
 20
69.7461
 11
130.476
 21
69.376
  0
LINE
  8
0
 10
130.476
 20
69.376
 11
130.5
 21
69
  0
LINE
  8
0
 10
130.5
 20
69
 11
130.476
 21
68.624
  0
LINE
  8
0
 10
130.476
 20
68.624
 11
130.406
 21
68.2539
  0
LINE
  8
0
 10
130.406
 20
68.2539
 11
130.289
 21
67.8956
  0
LINE
  8
0
 10
130.289
 20
67.8956
 11
130.129
 21
67.5547
  0
LINE
  8
0
 10
130.129
 20
67.5547
 11
129.927
 21
67.2366
  0
LINE
  8
0
 10
129.927
 20
67.2366
 11
129.687
 21
66.9464
  0
LINE
  8
0
 10
129.687
 20
66.9464
 11
129.412
 21
66.6885
  0
LINE
  8
0
 10
129.412
 20
66.6885
 11
129.107
 21
66.467
  0
LINE
  8
0
 10
129.107
 20
66.467
 11
128.777
 21
66.2855
  0
LINE
  8
0
 10
128.777
 20
66.2855
 11
128.427
 21
66.1468
  0
LINE
  8
0
 10
128.427
 20
66.1468
 11
128.062
 21
66.0531
  0
LINE
  8
0
 10
128.062
 20
66.0531
 11
127.688
 21
66.0059
  0
LINE
  8
0
 10
127.688
 20
66.0059
 11
127.312
 21
66.0059
  0
ENDSEC
  0
SECTION
  2
OBJECTS
  0
DICTIONARY
  0
ENDSEC
  0
EOF
