  0
SECTION
  2
BLOCKS
  0
ENDSEC
  0
SECTION
  2
ENTITIES
  0
LINE
  8
0
 10
152.937
 20
-21.9114
 11
153.545
 21
-21.7553
  0
LINE
  8
0
 10
153.545
 20
-21.7553
 11
154.129
 21
-21.5241
  0
LINE
  8
0
 10
154.129
 20
-21.5241
 11
154.679
 21
-21.2216
  0
LINE
  8
0
 10
154.679
 20
-21.2216
 11
155.187
 21
-20.8526
  0
LINE
  8
0
 10
155.187
 20
-20.8526
 11
155.645
 21
-20.4227
  0
LINE
  8
0
 10
155.645
 20
-20.4227
 11
156.045
 21
-19.9389
  0
LINE
  8
0
 10
156.045
 20
-19.9389
 11
156.382
 21
-19.4088
  0
LINE
  8
0
 10
156.382
 20
-19.4088
 11
156.649
 21
-18.8406
  0
LINE
  8
0
 10
156.649
 20
-18.8406
 11
156.843
 21
-18.2434
  0
LINE
  8
0
 10
156.843
 20
-18.2434
 11
156.961
 21
-17.6267
  0
LINE
  8
0
 10
156.961
 20
-17.6267
 11
157
 21
-17
  0
LINE
  8
0
 10
157
 20
-17
 11
157
 21
17
  0
LINE
  8
0
 10
157
 20
17
 11
156.961
 21
17.6267
  0
LINE
  8
0
 10
156.961
 20
17.6267
 11
156.843
 21
18.2434
  0
LINE
  8
0
 10
156.843
 20
18.2434
 11
156.649
 21
18.8406
  0
LINE
  8
0
 10
156.649
 20
18.8406
 11
156.382
 21
19.4088
  0
LINE
  8
0
 10
156.382
 20
19.4088
 11
156.045
 21
19.9389
  0
LINE
  8
0
 10
156.045
 20
19.9389
 11
155.645
 21
20.4227
  0
LINE
  8
0
 10
155.645
 20
20.4227
 11
155.187
 21
20.8526
  0
LINE
  8
0
 10
155.187
 20
20.8526
 11
154.679
 21
21.2216
  0
LINE
  8
0
 10
154.679
 20
21.2216
 11
154.129
 21
21.5241
  0
LINE
  8
0
 10
154.129
 20
21.5241
 11
153.545
 21
21.7553
  0
LINE
  8
0
 10
153.545
 20
21.7553
 11
152.937
 21
21.9114
  0
LINE
  8
0
 10
152.937
 20
21.9114
 11
152.314
 21
21.9901
  0
LINE
  8
0
 10
152.314
 20
21.9901
 11
-152.314
 21
21.9901
  0
LINE
  8
0
 10
-152.314
 20
21.9901
 11
-152.937
 21
21.9114
  0
LINE
  8
0
 10
-152.937
 20
21.9114
 11
-153.545
 21
21.7553
  0
LINE
  8
0
 10
-153.545
 20
21.7553
 11
-154.129
 21
21.5241
  0
LINE
  8
0
 10
-154.129
 20
21.5241
 11
-154.679
 21
21.2216
  0
LINE
  8
0
 10
-154.679
 20
21.2216
 11
-155.187
 21
20.8526
  0
LINE
  8
0
 10
-155.187
 20
20.8526
 11
-155.645
 21
20.4227
  0
LINE
  8
0
 10
-155.645
 20
20.4227
 11
-156.045
 21
19.9389
  0
LINE
  8
0
 10
-156.045
 20
19.9389
 11
-156.382
 21
19.4088
  0
LINE
  8
0
 10
-156.382
 20
19.4088
 11
-156.649
 21
18.8406
  0
LINE
  8
0
 10
-156.649
 20
18.8406
 11
-156.843
 21
18.2434
  0
LINE
  8
0
 10
-156.843
 20
18.2434
 11
-156.961
 21
17.6267
  0
LINE
  8
0
 10
-156.961
 20
17.6267
 11
-157
 21
17
  0
LINE
  8
0
 10
-157
 20
17
 11
-157
 21
-17
  0
LINE
  8
0
 10
-157
 20
-17
 11
-156.961
 21
-17.6267
  0
LINE
  8
0
 10
-156.961
 20
-17.6267
 11
-156.843
 21
-18.2434
  0
LINE
  8
0
 10
-156.843
 20
-18.2434
 11
-156.649
 21
-18.8406
  0
LINE
  8
0
 10
-156.649
 20
-18.8406
 11
-156.382
 21
-19.4088
  0
LINE
  8
0
 10
-156.382
 20
-19.4088
 11
-156.045
 21
-19.9389
  0
LINE
  8
0
 10
-156.045
 20
-19.9389
 11
-155.645
 21
-20.4227
  0
LINE
  8
0
 10
-155.645
 20
-20.4227
 11
-155.187
 21
-20.8526
  0
LINE
  8
0
 10
-155.187
 20
-20.8526
 11
-154.679
 21
-21.2216
  0
LINE
  8
0
 10
-154.679
 20
-21.2216
 11
-154.129
 21
-21.5241
  0
LINE
  8
0
 10
-154.129
 20
-21.5241
 11
-153.545
 21
-21.7553
  0
LINE
  8
0
 10
-153.545
 20
-21.7553
 11
-152.937
 21
-21.9114
  0
LINE
  8
0
 10
-152.937
 20
-21.9114
 11
-152.314
 21
-21.9901
  0
LINE
  8
0
 10
-152.314
 20
-21.9901
 11
152.314
 21
-21.9901
  0
LINE
  8
0
 10
152.314
 20
-21.9901
 11
152.937
 21
-21.9114
  0
LINE
  8
0
 10
147.024
 20
15.376
 11
147.094
 21
15.7461
  0
LINE
  8
0
 10
147.094
 20
15.7461
 11
147.211
 21
16.1044
  0
LINE
  8
0
 10
147.211
 20
16.1044
 11
147.371
 21
16.4453
  0
LINE
  8
0
 10
147.371
 20
16.4453
 11
147.573
 21
16.7634
  0
LINE
  8
0
 10
147.573
 20
16.7634
 11
147.813
 21
17.0536
  0
LINE
  8
0
 10
147.813
 20
17.0536
 11
148.088
 21
17.3115
  0
LINE
  8
0
 10
148.088
 20
17.3115
 11
148.393
 21
17.533
  0
LINE
  8
0
 10
148.393
 20
17.533
 11
148.723
 21
17.7145
  0
LINE
  8
0
 10
148.723
 20
17.7145
 11
149.073
 21
17.8532
  0
LINE
  8
0
 10
149.073
 20
17.8532
 11
149.438
 21
17.9469
  0
LINE
  8
0
 10
149.438
 20
17.9469
 11
149.812
 21
17.9941
  0
LINE
  8
0
 10
149.812
 20
17.9941
 11
150.188
 21
17.9941
  0
LINE
  8
0
 10
150.188
 20
17.9941
 11
150.562
 21
17.9469
  0
LINE
  8
0
 10
150.562
 20
17.9469
 11
150.927
 21
17.8532
  0
LINE
  8
0
 10
150.927
 20
17.8532
 11
151.277
 21
17.7145
  0
LINE
  8
0
 10
151.277
 20
17.7145
 11
151.607
 21
17.533
  0
LINE
  8
0
 10
151.607
 20
17.533
 11
151.912
 21
17.3115
  0
LINE
  8
0
 10
151.912
 20
17.3115
 11
152.187
 21
17.0536
  0
LINE
  8
0
 10
152.187
 20
17.0536
 11
152.427
 21
16.7634
  0
LINE
  8
0
 10
152.427
 20
16.7634
 11
152.629
 21
16.4453
  0
LINE
  8
0
 10
152.629
 20
16.4453
 11
152.789
 21
16.1044
  0
LINE
  8
0
 10
152.789
 20
16.1044
 11
152.906
 21
15.7461
  0
LINE
  8
0
 10
152.906
 20
15.7461
 11
152.976
 21
15.376
  0
LINE
  8
0
 10
152.976
 20
15.376
 11
153
 21
15
  0
LINE
  8
0
 10
153
 20
15
 11
152.976
 21
14.624
  0
LINE
  8
0
 10
152.976
 20
14.624
 11
152.906
 21
14.2539
  0
LINE
  8
0
 10
152.906
 20
14.2539
 11
152.789
 21
13.8956
  0
LINE
  8
0
 10
152.789
 20
13.8956
 11
152.629
 21
13.5547
  0
LINE
  8
0
 10
152.629
 20
13.5547
 11
152.427
 21
13.2366
  0
LINE
  8
0
 10
152.427
 20
13.2366
 11
152.187
 21
12.9464
  0
LINE
  8
0
 10
152.187
 20
12.9464
 11
151.912
 21
12.6884
  0
LINE
  8
0
 10
151.912
 20
12.6884
 11
151.607
 21
12.467
  0
LINE
  8
0
 10
151.607
 20
12.467
 11
151.277
 21
12.2855
  0
LINE
  8
0
 10
151.277
 20
12.2855
 11
150.927
 21
12.1468
  0
LINE
  8
0
 10
150.927
 20
12.1468
 11
150.562
 21
12.0531
  0
LINE
  8
0
 10
150.562
 20
12.0531
 11
150.188
 21
12.0059
  0
LINE
  8
0
 10
150.188
 20
12.0059
 11
149.812
 21
12.0059
  0
LINE
  8
0
 10
149.812
 20
12.0059
 11
149.438
 21
12.0531
  0
LINE
  8
0
 10
149.438
 20
12.0531
 11
149.073
 21
12.1468
  0
LINE
  8
0
 10
149.073
 20
12.1468
 11
148.723
 21
12.2855
  0
LINE
  8
0
 10
148.723
 20
12.2855
 11
148.393
 21
12.467
  0
LINE
  8
0
 10
148.393
 20
12.467
 11
148.088
 21
12.6884
  0
LINE
  8
0
 10
148.088
 20
12.6884
 11
147.813
 21
12.9464
  0
LINE
  8
0
 10
147.813
 20
12.9464
 11
147.573
 21
13.2366
  0
LINE
  8
0
 10
147.573
 20
13.2366
 11
147.371
 21
13.5547
  0
LINE
  8
0
 10
147.371
 20
13.5547
 11
147.211
 21
13.8956
  0
LINE
  8
0
 10
147.211
 20
13.8956
 11
147.094
 21
14.2539
  0
LINE
  8
0
 10
147.094
 20
14.2539
 11
147.024
 21
14.624
  0
LINE
  8
0
 10
147.024
 20
14.624
 11
147
 21
15
  0
LINE
  8
0
 10
147
 20
15
 11
147.024
 21
15.376
  0
LINE
  8
0
 10
-150.188
 20
-17.9941
 11
-150.562
 21
-17.9469
  0
LINE
  8
0
 10
-150.562
 20
-17.9469
 11
-150.927
 21
-17.8532
  0
LINE
  8
0
 10
-150.927
 20
-17.8532
 11
-151.277
 21
-17.7145
  0
LINE
  8
0
 10
-151.277
 20
-17.7145
 11
-151.607
 21
-17.533
  0
LINE
  8
0
 10
-151.607
 20
-17.533
 11
-151.912
 21
-17.3115
  0
LINE
  8
0
 10
-151.912
 20
-17.3115
 11
-152.187
 21
-17.0536
  0
LINE
  8
0
 10
-152.187
 20
-17.0536
 11
-152.427
 21
-16.7634
  0
LINE
  8
0
 10
-152.427
 20
-16.7634
 11
-152.629
 21
-16.4453
  0
LINE
  8
0
 10
-152.629
 20
-16.4453
 11
-152.789
 21
-16.1044
  0
LINE
  8
0
 10
-152.789
 20
-16.1044
 11
-152.906
 21
-15.7461
  0
LINE
  8
0
 10
-152.906
 20
-15.7461
 11
-152.976
 21
-15.376
  0
LINE
  8
0
 10
-152.976
 20
-15.376
 11
-153
 21
-15
  0
LINE
  8
0
 10
-153
 20
-15
 11
-152.976
 21
-14.624
  0
LINE
  8
0
 10
-152.976
 20
-14.624
 11
-152.906
 21
-14.2539
  0
LINE
  8
0
 10
-152.906
 20
-14.2539
 11
-152.789
 21
-13.8956
  0
LINE
  8
0
 10
-152.789
 20
-13.8956
 11
-152.629
 21
-13.5547
  0
LINE
  8
0
 10
-152.629
 20
-13.5547
 11
-152.427
 21
-13.2366
  0
LINE
  8
0
 10
-152.427
 20
-13.2366
 11
-152.187
 21
-12.9464
  0
LINE
  8
0
 10
-152.187
 20
-12.9464
 11
-151.912
 21
-12.6884
  0
LINE
  8
0
 10
-151.912
 20
-12.6884
 11
-151.607
 21
-12.467
  0
LINE
  8
0
 10
-151.607
 20
-12.467
 11
-151.277
 21
-12.2855
  0
LINE
  8
0
 10
-151.277
 20
-12.2855
 11
-150.927
 21
-12.1468
  0
LINE
  8
0
 10
-150.927
 20
-12.1468
 11
-150.562
 21
-12.0531
  0
LINE
  8
0
 10
-150.562
 20
-12.0531
 11
-150.188
 21
-12.0059
  0
LINE
  8
0
 10
-150.188
 20
-12.0059
 11
-149.812
 21
-12.0059
  0
LINE
  8
0
 10
-149.812
 20
-12.0059
 11
-149.438
 21
-12.0531
  0
LINE
  8
0
 10
-149.438
 20
-12.0531
 11
-149.073
 21
-12.1468
  0
LINE
  8
0
 10
-149.073
 20
-12.1468
 11
-148.723
 21
-12.2855
  0
LINE
  8
0
 10
-148.723
 20
-12.2855
 11
-148.393
 21
-12.467
  0
LINE
  8
0
 10
-148.393
 20
-12.467
 11
-148.088
 21
-12.6884
  0
LINE
  8
0
 10
-148.088
 20
-12.6884
 11
-147.813
 21
-12.9464
  0
LINE
  8
0
 10
-147.813
 20
-12.9464
 11
-147.573
 21
-13.2366
  0
LINE
  8
0
 10
-147.573
 20
-13.2366
 11
-147.371
 21
-13.5547
  0
LINE
  8
0
 10
-147.371
 20
-13.5547
 11
-147.211
 21
-13.8956
  0
LINE
  8
0
 10
-147.211
 20
-13.8956
 11
-147.094
 21
-14.2539
  0
LINE
  8
0
 10
-147.094
 20
-14.2539
 11
-147.024
 21
-14.624
  0
LINE
  8
0
 10
-147.024
 20
-14.624
 11
-147
 21
-15
  0
LINE
  8
0
 10
-147
 20
-15
 11
-147.024
 21
-15.376
  0
LINE
  8
0
 10
-147.024
 20
-15.376
 11
-147.094
 21
-15.7461
  0
LINE
  8
0
 10
-147.094
 20
-15.7461
 11
-147.211
 21
-16.1044
  0
LINE
  8
0
 10
-147.211
 20
-16.1044
 11
-147.371
 21
-16.4453
  0
LINE
  8
0
 10
-147.371
 20
-16.4453
 11
-147.573
 21
-16.7634
  0
LINE
  8
0
 10
-147.573
 20
-16.7634
 11
-147.813
 21
-17.0536
  0
LINE
  8
0
 10
-147.813
 20
-17.0536
 11
-148.088
 21
-17.3115
  0
LINE
  8
0
 10
-148.088
 20
-17.3115
 11
-148.393
 21
-17.533
  0
LINE
  8
0
 10
-148.393
 20
-17.533
 11
-148.723
 21
-17.7145
  0
LINE
  8
0
 10
-148.723
 20
-17.7145
 11
-149.073
 21
-17.8532
  0
LINE
  8
0
 10
-149.073
 20
-17.8532
 11
-149.438
 21
-17.9469
  0
LINE
  8
0
 10
-149.438
 20
-17.9469
 11
-149.812
 21
-17.9941
  0
LINE
  8
0
 10
-149.812
 20
-17.9941
 11
-150.188
 21
-17.9941
  0
LINE
  8
0
 10
149.812
 20
-17.9941
 11
149.438
 21
-17.9469
  0
LINE
  8
0
 10
149.438
 20
-17.9469
 11
149.073
 21
-17.8532
  0
LINE
  8
0
 10
149.073
 20
-17.8532
 11
148.723
 21
-17.7145
  0
LINE
  8
0
 10
148.723
 20
-17.7145
 11
148.393
 21
-17.533
  0
LINE
  8
0
 10
148.393
 20
-17.533
 11
148.088
 21
-17.3115
  0
LINE
  8
0
 10
148.088
 20
-17.3115
 11
147.813
 21
-17.0536
  0
LINE
  8
0
 10
147.813
 20
-17.0536
 11
147.573
 21
-16.7634
  0
LINE
  8
0
 10
147.573
 20
-16.7634
 11
147.371
 21
-16.4453
  0
LINE
  8
0
 10
147.371
 20
-16.4453
 11
147.211
 21
-16.1044
  0
LINE
  8
0
 10
147.211
 20
-16.1044
 11
147.094
 21
-15.7461
  0
LINE
  8
0
 10
147.094
 20
-15.7461
 11
147.024
 21
-15.376
  0
LINE
  8
0
 10
147.024
 20
-15.376
 11
147
 21
-15
  0
LINE
  8
0
 10
147
 20
-15
 11
147.024
 21
-14.624
  0
LINE
  8
0
 10
147.024
 20
-14.624
 11
147.094
 21
-14.2539
  0
LINE
  8
0
 10
147.094
 20
-14.2539
 11
147.211
 21
-13.8956
  0
LINE
  8
0
 10
147.211
 20
-13.8956
 11
147.371
 21
-13.5547
  0
LINE
  8
0
 10
147.371
 20
-13.5547
 11
147.573
 21
-13.2366
  0
LINE
  8
0
 10
147.573
 20
-13.2366
 11
147.813
 21
-12.9464
  0
LINE
  8
0
 10
147.813
 20
-12.9464
 11
148.088
 21
-12.6884
  0
LINE
  8
0
 10
148.088
 20
-12.6884
 11
148.393
 21
-12.467
  0
LINE
  8
0
 10
148.393
 20
-12.467
 11
148.723
 21
-12.2855
  0
LINE
  8
0
 10
148.723
 20
-12.2855
 11
149.073
 21
-12.1468
  0
LINE
  8
0
 10
149.073
 20
-12.1468
 11
149.438
 21
-12.0531
  0
LINE
  8
0
 10
149.438
 20
-12.0531
 11
149.812
 21
-12.0059
  0
LINE
  8
0
 10
149.812
 20
-12.0059
 11
150.188
 21
-12.0059
  0
LINE
  8
0
 10
150.188
 20
-12.0059
 11
150.562
 21
-12.0531
  0
LINE
  8
0
 10
150.562
 20
-12.0531
 11
150.927
 21
-12.1468
  0
LINE
  8
0
 10
150.927
 20
-12.1468
 11
151.277
 21
-12.2855
  0
LINE
  8
0
 10
151.277
 20
-12.2855
 11
151.607
 21
-12.467
  0
LINE
  8
0
 10
151.607
 20
-12.467
 11
151.912
 21
-12.6884
  0
LINE
  8
0
 10
151.912
 20
-12.6884
 11
152.187
 21
-12.9464
  0
LINE
  8
0
 10
152.187
 20
-12.9464
 11
152.427
 21
-13.2366
  0
LINE
  8
0
 10
152.427
 20
-13.2366
 11
152.629
 21
-13.5547
  0
LINE
  8
0
 10
152.629
 20
-13.5547
 11
152.789
 21
-13.8956
  0
LINE
  8
0
 10
152.789
 20
-13.8956
 11
152.906
 21
-14.2539
  0
LINE
  8
0
 10
152.906
 20
-14.2539
 11
152.976
 21
-14.624
  0
LINE
  8
0
 10
152.976
 20
-14.624
 11
153
 21
-15
  0
LINE
  8
0
 10
153
 20
-15
 11
152.976
 21
-15.376
  0
LINE
  8
0
 10
152.976
 20
-15.376
 11
152.906
 21
-15.7461
  0
LINE
  8
0
 10
152.906
 20
-15.7461
 11
152.789
 21
-16.1044
  0
LINE
  8
0
 10
152.789
 20
-16.1044
 11
152.629
 21
-16.4453
  0
LINE
  8
0
 10
152.629
 20
-16.4453
 11
152.427
 21
-16.7634
  0
LINE
  8
0
 10
152.427
 20
-16.7634
 11
152.187
 21
-17.0536
  0
LINE
  8
0
 10
152.187
 20
-17.0536
 11
151.912
 21
-17.3115
  0
LINE
  8
0
 10
151.912
 20
-17.3115
 11
151.607
 21
-17.533
  0
LINE
  8
0
 10
151.607
 20
-17.533
 11
151.277
 21
-17.7145
  0
LINE
  8
0
 10
151.277
 20
-17.7145
 11
150.927
 21
-17.8532
  0
LINE
  8
0
 10
150.927
 20
-17.8532
 11
150.562
 21
-17.9469
  0
LINE
  8
0
 10
150.562
 20
-17.9469
 11
150.188
 21
-17.9941
  0
LINE
  8
0
 10
150.188
 20
-17.9941
 11
149.812
 21
-17.9941
  0
LINE
  8
0
 10
-147.211
 20
13.8956
 11
-147.371
 21
13.5547
  0
LINE
  8
0
 10
-147.371
 20
13.5547
 11
-147.573
 21
13.2366
  0
LINE
  8
0
 10
-147.573
 20
13.2366
 11
-147.813
 21
12.9464
  0
LINE
  8
0
 10
-147.813
 20
12.9464
 11
-148.088
 21
12.6884
  0
LINE
  8
0
 10
-148.088
 20
12.6884
 11
-148.393
 21
12.467
  0
LINE
  8
0
 10
-148.393
 20
12.467
 11
-148.723
 21
12.2855
  0
LINE
  8
0
 10
-148.723
 20
12.2855
 11
-149.073
 21
12.1468
  0
LINE
  8
0
 10
-149.073
 20
12.1468
 11
-149.438
 21
12.0531
  0
LINE
  8
0
 10
-149.438
 20
12.0531
 11
-149.812
 21
12.0059
  0
LINE
  8
0
 10
-149.812
 20
12.0059
 11
-150.188
 21
12.0059
  0
LINE
  8
0
 10
-150.188
 20
12.0059
 11
-150.562
 21
12.0531
  0
LINE
  8
0
 10
-150.562
 20
12.0531
 11
-150.927
 21
12.1468
  0
LINE
  8
0
 10
-150.927
 20
12.1468
 11
-151.277
 21
12.2855
  0
LINE
  8
0
 10
-151.277
 20
12.2855
 11
-151.607
 21
12.467
  0
LINE
  8
0
 10
-151.607
 20
12.467
 11
-151.912
 21
12.6884
  0
LINE
  8
0
 10
-151.912
 20
12.6884
 11
-152.187
 21
12.9464
  0
LINE
  8
0
 10
-152.187
 20
12.9464
 11
-152.427
 21
13.2366
  0
LINE
  8
0
 10
-152.427
 20
13.2366
 11
-152.629
 21
13.5547
  0
LINE
  8
0
 10
-152.629
 20
13.5547
 11
-152.789
 21
13.8956
  0
LINE
  8
0
 10
-152.789
 20
13.8956
 11
-152.906
 21
14.2539
  0
LINE
  8
0
 10
-152.906
 20
14.2539
 11
-152.976
 21
14.624
  0
LINE
  8
0
 10
-152.976
 20
14.624
 11
-153
 21
15
  0
LINE
  8
0
 10
-153
 20
15
 11
-152.976
 21
15.376
  0
LINE
  8
0
 10
-152.976
 20
15.376
 11
-152.906
 21
15.7461
  0
LINE
  8
0
 10
-152.906
 20
15.7461
 11
-152.789
 21
16.1044
  0
LINE
  8
0
 10
-152.789
 20
16.1044
 11
-152.629
 21
16.4453
  0
LINE
  8
0
 10
-152.629
 20
16.4453
 11
-152.427
 21
16.7634
  0
LINE
  8
0
 10
-152.427
 20
16.7634
 11
-152.187
 21
17.0536
  0
LINE
  8
0
 10
-152.187
 20
17.0536
 11
-151.912
 21
17.3115
  0
LINE
  8
0
 10
-151.912
 20
17.3115
 11
-151.607
 21
17.533
  0
LINE
  8
0
 10
-151.607
 20
17.533
 11
-151.277
 21
17.7145
  0
LINE
  8
0
 10
-151.277
 20
17.7145
 11
-150.927
 21
17.8532
  0
LINE
  8
0
 10
-150.927
 20
17.8532
 11
-150.562
 21
17.9469
  0
LINE
  8
0
 10
-150.562
 20
17.9469
 11
-150.188
 21
17.9941
  0
LINE
  8
0
 10
-150.188
 20
17.9941
 11
-149.812
 21
17.9941
  0
LINE
  8
0
 10
-149.812
 20
17.9941
 11
-149.438
 21
17.9469
  0
LINE
  8
0
 10
-149.438
 20
17.9469
 11
-149.073
 21
17.8532
  0
LINE
  8
0
 10
-149.073
 20
17.8532
 11
-148.723
 21
17.7145
  0
LINE
  8
0
 10
-148.723
 20
17.7145
 11
-148.393
 21
17.533
  0
LINE
  8
0
 10
-148.393
 20
17.533
 11
-148.088
 21
17.3115
  0
LINE
  8
0
 10
-148.088
 20
17.3115
 11
-147.813
 21
17.0536
  0
LINE
  8
0
 10
-147.813
 20
17.0536
 11
-147.573
 21
16.7634
  0
LINE
  8
0
 10
-147.573
 20
16.7634
 11
-147.371
 21
16.4453
  0
LINE
  8
0
 10
-147.371
 20
16.4453
 11
-147.211
 21
16.1044
  0
LINE
  8
0
 10
-147.211
 20
16.1044
 11
-147.094
 21
15.7461
  0
LINE
  8
0
 10
-147.094
 20
15.7461
 11
-147.024
 21
15.376
  0
LINE
  8
0
 10
-147.024
 20
15.376
 11
-147
 21
15
  0
LINE
  8
0
 10
-147
 20
15
 11
-147.024
 21
14.624
  0
LINE
  8
0
 10
-147.024
 20
14.624
 11
-147.094
 21
14.2539
  0
LINE
  8
0
 10
-147.094
 20
14.2539
 11
-147.211
 21
13.8956
  0
ENDSEC
  0
SECTION
  2
OBJECTS
  0
DICTIONARY
  0
ENDSEC
  0
EOF
