solid OpenSCAD_Model
  facet normal -0.904619 -0.426222 0
    outer loop
      vertex -169.478 1.1964 0
      vertex -169.652 1.5657 9
      vertex -169.652 1.5657 0
    endloop
  endfacet
  facet normal -0.904619 -0.426222 0
    outer loop
      vertex -169.652 1.5657 9
      vertex -169.478 1.1964 0
      vertex -169.478 1.1964 9
    endloop
  endfacet
  facet normal -0.843984 -0.536368 0
    outer loop
      vertex -169.652 1.5657 0
      vertex -169.871 1.9103 9
      vertex -169.871 1.9103 0
    endloop
  endfacet
  facet normal -0.843984 -0.536368 0
    outer loop
      vertex -169.871 1.9103 9
      vertex -169.652 1.5657 0
      vertex -169.652 1.5657 9
    endloop
  endfacet
  facet normal -0.367675 -0.929954 0
    outer loop
      vertex -171.496 3.09093 0
      vertex -171.116 2.94069 9
      vertex -171.496 3.09093 9
    endloop
  endfacet
  facet normal -0.367675 -0.929954 -0
    outer loop
      vertex -171.116 2.94069 9
      vertex -171.496 3.09093 0
      vertex -171.116 2.94069 0
    endloop
  endfacet
  facet normal 0.367675 -0.929954 0
    outer loop
      vertex -173.884 2.94069 0
      vertex -173.504 3.09093 9
      vertex -173.884 2.94069 9
    endloop
  endfacet
  facet normal 0.367675 -0.929954 0
    outer loop
      vertex -173.504 3.09093 9
      vertex -173.884 2.94069 0
      vertex -173.504 3.09093 0
    endloop
  endfacet
  facet normal 0.904619 -0.426222 0
    outer loop
      vertex -175.522 1.1964 9
      vertex -175.348 1.5657 0
      vertex -175.348 1.5657 9
    endloop
  endfacet
  facet normal 0.904619 -0.426222 0
    outer loop
      vertex -175.348 1.5657 0
      vertex -175.522 1.1964 9
      vertex -175.522 1.1964 0
    endloop
  endfacet
  facet normal -0.982502 0.186252 0
    outer loop
      vertex -169.352 -0.808242 0
      vertex -169.276 -0.407332 9
      vertex -169.276 -0.407332 0
    endloop
  endfacet
  facet normal -0.982502 0.186252 0
    outer loop
      vertex -169.276 -0.407332 9
      vertex -169.352 -0.808242 0
      vertex -169.352 -0.808242 9
    endloop
  endfacet
  facet normal -0.125325 -0.992116 0
    outer loop
      vertex -172.296 3.24359 0
      vertex -171.891 3.19243 9
      vertex -172.296 3.24359 9
    endloop
  endfacet
  facet normal -0.125325 -0.992116 -0
    outer loop
      vertex -171.891 3.19243 9
      vertex -172.296 3.24359 0
      vertex -171.891 3.19243 0
    endloop
  endfacet
  facet normal -0.586847 -0.809698 0
    outer loop
      vertex -170.759 2.74407 0
      vertex -170.428 2.50417 9
      vertex -170.759 2.74407 9
    endloop
  endfacet
  facet normal -0.586847 -0.809698 -0
    outer loop
      vertex -170.428 2.50417 9
      vertex -170.759 2.74407 0
      vertex -170.428 2.50417 0
    endloop
  endfacet
  facet normal 0.982502 -0.186252 0
    outer loop
      vertex -175.724 0.407332 9
      vertex -175.648 0.808242 0
      vertex -175.648 0.808242 9
    endloop
  endfacet
  facet normal 0.982502 -0.186252 0
    outer loop
      vertex -175.648 0.808242 0
      vertex -175.724 0.407332 9
      vertex -175.724 0.407332 0
    endloop
  endfacet
  facet normal 0.770706 -0.63719 0
    outer loop
      vertex -175.129 1.9103 9
      vertex -174.869 2.22478 0
      vertex -174.869 2.22478 9
    endloop
  endfacet
  facet normal 0.770706 -0.63719 0
    outer loop
      vertex -174.869 2.22478 0
      vertex -175.129 1.9103 9
      vertex -175.129 1.9103 0
    endloop
  endfacet
  facet normal 0.482427 -0.875936 0
    outer loop
      vertex -174.241 2.74407 0
      vertex -173.884 2.94069 9
      vertex -174.241 2.74407 9
    endloop
  endfacet
  facet normal 0.482427 -0.875936 0
    outer loop
      vertex -173.884 2.94069 9
      vertex -174.241 2.74407 0
      vertex -173.884 2.94069 0
    endloop
  endfacet
  facet normal 0.125325 -0.992116 0
    outer loop
      vertex -173.109 3.19243 0
      vertex -172.704 3.24359 9
      vertex -173.109 3.19243 9
    endloop
  endfacet
  facet normal 0.125325 -0.992116 0
    outer loop
      vertex -172.704 3.24359 9
      vertex -173.109 3.19243 0
      vertex -172.704 3.24359 0
    endloop
  endfacet
  facet normal -0.997969 -0.0637004 0
    outer loop
      vertex -169.25 0 0
      vertex -169.276 0.407332 9
      vertex -169.276 0.407332 0
    endloop
  endfacet
  facet normal -0.997969 -0.0637004 0
    outer loop
      vertex -169.276 0.407332 9
      vertex -169.25 0 0
      vertex -169.25 0 9
    endloop
  endfacet
  facet normal -0.951143 0.308751 0
    outer loop
      vertex -169.478 -1.1964 0
      vertex -169.352 -0.808242 9
      vertex -169.352 -0.808242 0
    endloop
  endfacet
  facet normal -0.951143 0.308751 0
    outer loop
      vertex -169.352 -0.808242 9
      vertex -169.478 -1.1964 0
      vertex -169.478 -1.1964 9
    endloop
  endfacet
  facet normal -0.586847 0.809698 0
    outer loop
      vertex -170.428 -2.50417 0
      vertex -170.759 -2.74407 9
      vertex -170.428 -2.50417 9
    endloop
  endfacet
  facet normal -0.586847 0.809698 0
    outer loop
      vertex -170.759 -2.74407 9
      vertex -170.428 -2.50417 0
      vertex -170.759 -2.74407 0
    endloop
  endfacet
  facet normal -0.982502 -0.186252 0
    outer loop
      vertex -169.276 0.407332 0
      vertex -169.352 0.808242 9
      vertex -169.352 0.808242 0
    endloop
  endfacet
  facet normal -0.982502 -0.186252 0
    outer loop
      vertex -169.352 0.808242 9
      vertex -169.276 0.407332 0
      vertex -169.276 0.407332 9
    endloop
  endfacet
  facet normal -0.951143 -0.308751 0
    outer loop
      vertex -169.352 0.808242 0
      vertex -169.478 1.1964 9
      vertex -169.478 1.1964 0
    endloop
  endfacet
  facet normal -0.951143 -0.308751 0
    outer loop
      vertex -169.478 1.1964 9
      vertex -169.352 0.808242 0
      vertex -169.352 0.808242 9
    endloop
  endfacet
  facet normal -0.685183 -0.728371 0
    outer loop
      vertex -170.428 2.50417 0
      vertex -170.131 2.22478 9
      vertex -170.428 2.50417 9
    endloop
  endfacet
  facet normal -0.685183 -0.728371 -0
    outer loop
      vertex -170.131 2.22478 9
      vertex -170.428 2.50417 0
      vertex -170.131 2.22478 0
    endloop
  endfacet
  facet normal -0.770706 -0.63719 0
    outer loop
      vertex -169.871 1.9103 0
      vertex -170.131 2.22478 9
      vertex -170.131 2.22478 0
    endloop
  endfacet
  facet normal -0.770706 -0.63719 0
    outer loop
      vertex -170.131 2.22478 9
      vertex -169.871 1.9103 0
      vertex -169.871 1.9103 9
    endloop
  endfacet
  facet normal 0 -1 0
    outer loop
      vertex -172.704 3.24359 0
      vertex -172.296 3.24359 9
      vertex -172.704 3.24359 9
    endloop
  endfacet
  facet normal 0 -1 -0
    outer loop
      vertex -172.296 3.24359 9
      vertex -172.704 3.24359 0
      vertex -172.296 3.24359 0
    endloop
  endfacet
  facet normal -0.248877 -0.968535 0
    outer loop
      vertex -171.891 3.19243 0
      vertex -171.496 3.09093 9
      vertex -171.891 3.19243 9
    endloop
  endfacet
  facet normal -0.248877 -0.968535 -0
    outer loop
      vertex -171.496 3.09093 9
      vertex -171.891 3.19243 0
      vertex -171.496 3.09093 0
    endloop
  endfacet
  facet normal -0.482427 -0.875936 0
    outer loop
      vertex -171.116 2.94069 0
      vertex -170.759 2.74407 9
      vertex -171.116 2.94069 9
    endloop
  endfacet
  facet normal -0.482427 -0.875936 -0
    outer loop
      vertex -170.759 2.74407 9
      vertex -171.116 2.94069 0
      vertex -170.759 2.74407 0
    endloop
  endfacet
  facet normal 0.997969 -0.0637004 0
    outer loop
      vertex -175.75 0 9
      vertex -175.724 0.407332 0
      vertex -175.724 0.407332 9
    endloop
  endfacet
  facet normal 0.997969 -0.0637004 0
    outer loop
      vertex -175.724 0.407332 0
      vertex -175.75 0 9
      vertex -175.75 0 0
    endloop
  endfacet
  facet normal 0 0 1
    outer loop
      vertex 174.814 6.99013 9
      vertex 179.5 2 9
      vertex 179.461 2.62667 9
    endloop
  endfacet
  facet normal 0 0 1
    outer loop
      vertex 179.5 2 9
      vertex 174.814 6.99013 9
      vertex 179.5 -2 9
    endloop
  endfacet
  facet normal 0 0 1
    outer loop
      vertex 174.814 6.99013 9
      vertex 179.461 2.62667 9
      vertex 179.343 3.24345 9
    endloop
  endfacet
  facet normal 0 0 1
    outer loop
      vertex 174.814 -6.99013 9
      vertex 179.5 -2 9
      vertex 174.814 6.99013 9
    endloop
  endfacet
  facet normal 0 0 1
    outer loop
      vertex 174.814 6.99013 9
      vertex 179.343 3.24345 9
      vertex 179.149 3.84062 9
    endloop
  endfacet
  facet normal 0 0 1
    outer loop
      vertex 179.5 -2 9
      vertex 174.814 -6.99013 9
      vertex 179.461 -2.62667 9
    endloop
  endfacet
  facet normal 0 0 1
    outer loop
      vertex 174.814 6.99013 9
      vertex 179.149 3.84062 9
      vertex 178.882 4.40877 9
    endloop
  endfacet
  facet normal 0 0 1
    outer loop
      vertex 179.461 -2.62667 9
      vertex 174.814 -6.99013 9
      vertex 179.343 -3.24345 9
    endloop
  endfacet
  facet normal 0 0 1
    outer loop
      vertex 174.814 6.99013 9
      vertex 178.882 4.40877 9
      vertex 178.545 4.93893 9
    endloop
  endfacet
  facet normal 0 0 1
    outer loop
      vertex 179.343 -3.24345 9
      vertex 174.814 -6.99013 9
      vertex 179.149 -3.84062 9
    endloop
  endfacet
  facet normal 0 0 1
    outer loop
      vertex 174.814 6.99013 9
      vertex 178.545 4.93893 9
      vertex 178.145 5.42274 9
    endloop
  endfacet
  facet normal 0 0 1
    outer loop
      vertex 179.149 -3.84062 9
      vertex 174.814 -6.99013 9
      vertex 178.882 -4.40877 9
    endloop
  endfacet
  facet normal 0 0 1
    outer loop
      vertex 174.814 6.99013 9
      vertex 178.145 5.42274 9
      vertex 177.687 5.85257 9
    endloop
  endfacet
  facet normal 0 0 1
    outer loop
      vertex 178.882 -4.40877 9
      vertex 174.814 -6.99013 9
      vertex 178.545 -4.93893 9
    endloop
  endfacet
  facet normal 0 0 1
    outer loop
      vertex 174.814 6.99013 9
      vertex 177.687 5.85257 9
      vertex 177.179 6.22164 9
    endloop
  endfacet
  facet normal 0 0 1
    outer loop
      vertex 178.545 -4.93893 9
      vertex 174.814 -6.99013 9
      vertex 178.145 -5.42274 9
    endloop
  endfacet
  facet normal 0 0 1
    outer loop
      vertex 174.814 6.99013 9
      vertex 177.179 6.22164 9
      vertex 176.629 6.52413 9
    endloop
  endfacet
  facet normal 0 0 1
    outer loop
      vertex 178.145 -5.42274 9
      vertex 174.814 -6.99013 9
      vertex 177.687 -5.85257 9
    endloop
  endfacet
  facet normal 0 0 1
    outer loop
      vertex 174.814 6.99013 9
      vertex 176.629 6.52413 9
      vertex 176.045 6.75528 9
    endloop
  endfacet
  facet normal 0 0 1
    outer loop
      vertex 177.687 -5.85257 9
      vertex 174.814 -6.99013 9
      vertex 177.179 -6.22164 9
    endloop
  endfacet
  facet normal 0 0 1
    outer loop
      vertex 174.814 6.99013 9
      vertex 176.045 6.75528 9
      vertex 175.437 6.91144 9
    endloop
  endfacet
  facet normal 0 0 1
    outer loop
      vertex 177.179 -6.22164 9
      vertex 174.814 -6.99013 9
      vertex 176.629 -6.52413 9
    endloop
  endfacet
  facet normal 0 0 1
    outer loop
      vertex 176.629 -6.52413 9
      vertex 174.814 -6.99013 9
      vertex 176.045 -6.75528 9
    endloop
  endfacet
  facet normal 0 0 1
    outer loop
      vertex 176.045 -6.75528 9
      vertex 174.814 -6.99013 9
      vertex 175.437 -6.91144 9
    endloop
  endfacet
  facet normal 0 0 1
    outer loop
      vertex 174.814 6.99013 9
      vertex -169.25 0 9
      vertex 174.814 -6.99013 9
    endloop
  endfacet
  facet normal 0 0 1
    outer loop
      vertex 174.814 6.99013 9
      vertex -169.276 0.407332 9
      vertex -169.25 0 9
    endloop
  endfacet
  facet normal 0 0 1
    outer loop
      vertex 174.814 6.99013 9
      vertex -169.352 0.808242 9
      vertex -169.276 0.407332 9
    endloop
  endfacet
  facet normal 0 0 1
    outer loop
      vertex 174.814 6.99013 9
      vertex -169.478 1.1964 9
      vertex -169.352 0.808242 9
    endloop
  endfacet
  facet normal 0 0 1
    outer loop
      vertex 174.814 6.99013 9
      vertex -169.652 1.5657 9
      vertex -169.478 1.1964 9
    endloop
  endfacet
  facet normal 0 0 1
    outer loop
      vertex 174.814 6.99013 9
      vertex -169.871 1.9103 9
      vertex -169.652 1.5657 9
    endloop
  endfacet
  facet normal 0 0 1
    outer loop
      vertex 174.814 6.99013 9
      vertex -170.131 2.22478 9
      vertex -169.871 1.9103 9
    endloop
  endfacet
  facet normal -0 0 1
    outer loop
      vertex -174.814 6.99013 9
      vertex -170.131 2.22478 9
      vertex 174.814 6.99013 9
    endloop
  endfacet
  facet normal 0 0 1
    outer loop
      vertex -170.131 2.22478 9
      vertex -174.814 6.99013 9
      vertex -170.428 2.50417 9
    endloop
  endfacet
  facet normal 0 0 1
    outer loop
      vertex -170.428 2.50417 9
      vertex -174.814 6.99013 9
      vertex -170.759 2.74407 9
    endloop
  endfacet
  facet normal 0 0 1
    outer loop
      vertex -170.759 2.74407 9
      vertex -174.814 6.99013 9
      vertex -171.116 2.94069 9
    endloop
  endfacet
  facet normal 0 0 1
    outer loop
      vertex -171.116 2.94069 9
      vertex -174.814 6.99013 9
      vertex -171.496 3.09093 9
    endloop
  endfacet
  facet normal 0 0 1
    outer loop
      vertex -171.496 3.09093 9
      vertex -174.814 6.99013 9
      vertex -171.891 3.19243 9
    endloop
  endfacet
  facet normal 0 0 1
    outer loop
      vertex -171.891 3.19243 9
      vertex -174.814 6.99013 9
      vertex -172.296 3.24359 9
    endloop
  endfacet
  facet normal 0 0 1
    outer loop
      vertex -172.296 3.24359 9
      vertex -174.814 6.99013 9
      vertex -172.704 3.24359 9
    endloop
  endfacet
  facet normal 0 0 1
    outer loop
      vertex -174.814 6.99013 9
      vertex -173.109 3.19243 9
      vertex -172.704 3.24359 9
    endloop
  endfacet
  facet normal 0 0 1
    outer loop
      vertex -174.814 6.99013 9
      vertex -173.504 3.09093 9
      vertex -173.109 3.19243 9
    endloop
  endfacet
  facet normal 0 0 1
    outer loop
      vertex -174.814 6.99013 9
      vertex -173.884 2.94069 9
      vertex -173.504 3.09093 9
    endloop
  endfacet
  facet normal -0 0 1
    outer loop
      vertex -175.437 6.91144 9
      vertex -173.884 2.94069 9
      vertex -174.814 6.99013 9
    endloop
  endfacet
  facet normal 0 0 1
    outer loop
      vertex -173.884 2.94069 9
      vertex -175.437 6.91144 9
      vertex -174.241 2.74407 9
    endloop
  endfacet
  facet normal -0 0 1
    outer loop
      vertex -176.045 6.75528 9
      vertex -174.241 2.74407 9
      vertex -175.437 6.91144 9
    endloop
  endfacet
  facet normal -0 0 1
    outer loop
      vertex -176.629 6.52413 9
      vertex -174.241 2.74407 9
      vertex -176.045 6.75528 9
    endloop
  endfacet
  facet normal 0 0 1
    outer loop
      vertex -174.241 2.74407 9
      vertex -176.629 6.52413 9
      vertex -174.572 2.50417 9
    endloop
  endfacet
  facet normal -0 0 1
    outer loop
      vertex -177.179 6.22164 9
      vertex -174.572 2.50417 9
      vertex -176.629 6.52413 9
    endloop
  endfacet
  facet normal -0 0 1
    outer loop
      vertex -177.687 5.85257 9
      vertex -174.572 2.50417 9
      vertex -177.179 6.22164 9
    endloop
  endfacet
  facet normal 0 0 1
    outer loop
      vertex -174.572 2.50417 9
      vertex -177.687 5.85257 9
      vertex -174.869 2.22478 9
    endloop
  endfacet
  facet normal -0 0 1
    outer loop
      vertex -178.145 5.42274 9
      vertex -174.869 2.22478 9
      vertex -177.687 5.85257 9
    endloop
  endfacet
  facet normal -0 0 1
    outer loop
      vertex -178.545 4.93893 9
      vertex -174.869 2.22478 9
      vertex -178.145 5.42274 9
    endloop
  endfacet
  facet normal 0 0 1
    outer loop
      vertex -174.869 2.22478 9
      vertex -178.545 4.93893 9
      vertex -175.129 1.9103 9
    endloop
  endfacet
  facet normal -0 0 1
    outer loop
      vertex -169.276 -0.407332 9
      vertex 174.814 -6.99013 9
      vertex -169.25 0 9
    endloop
  endfacet
  facet normal -0 0 1
    outer loop
      vertex -169.352 -0.808242 9
      vertex 174.814 -6.99013 9
      vertex -169.276 -0.407332 9
    endloop
  endfacet
  facet normal -0 0 1
    outer loop
      vertex -169.478 -1.1964 9
      vertex 174.814 -6.99013 9
      vertex -169.352 -0.808242 9
    endloop
  endfacet
  facet normal -0 0 1
    outer loop
      vertex -169.652 -1.5657 9
      vertex 174.814 -6.99013 9
      vertex -169.478 -1.1964 9
    endloop
  endfacet
  facet normal -0 0 1
    outer loop
      vertex -169.871 -1.9103 9
      vertex 174.814 -6.99013 9
      vertex -169.652 -1.5657 9
    endloop
  endfacet
  facet normal -0 0 1
    outer loop
      vertex -170.131 -2.22478 9
      vertex 174.814 -6.99013 9
      vertex -169.871 -1.9103 9
    endloop
  endfacet
  facet normal 0 0 1
    outer loop
      vertex -174.814 -6.99013 9
      vertex -170.131 -2.22478 9
      vertex -170.428 -2.50417 9
    endloop
  endfacet
  facet normal 0 0 1
    outer loop
      vertex -174.814 -6.99013 9
      vertex -170.428 -2.50417 9
      vertex -170.759 -2.74407 9
    endloop
  endfacet
  facet normal 0 0 1
    outer loop
      vertex -174.814 -6.99013 9
      vertex -170.759 -2.74407 9
      vertex -171.116 -2.94069 9
    endloop
  endfacet
  facet normal 0 0 1
    outer loop
      vertex -174.814 -6.99013 9
      vertex -171.116 -2.94069 9
      vertex -171.496 -3.09093 9
    endloop
  endfacet
  facet normal 0 0 1
    outer loop
      vertex -174.814 -6.99013 9
      vertex -171.496 -3.09093 9
      vertex -171.891 -3.19243 9
    endloop
  endfacet
  facet normal 0 0 1
    outer loop
      vertex -174.814 -6.99013 9
      vertex -171.891 -3.19243 9
      vertex -172.296 -3.24359 9
    endloop
  endfacet
  facet normal 0 0 1
    outer loop
      vertex -174.814 -6.99013 9
      vertex -172.296 -3.24359 9
      vertex -172.704 -3.24359 9
    endloop
  endfacet
  facet normal 0 0 1
    outer loop
      vertex -170.131 -2.22478 9
      vertex -174.814 -6.99013 9
      vertex 174.814 -6.99013 9
    endloop
  endfacet
  facet normal 0 0 1
    outer loop
      vertex -173.109 -3.19243 9
      vertex -174.814 -6.99013 9
      vertex -172.704 -3.24359 9
    endloop
  endfacet
  facet normal 0 0 1
    outer loop
      vertex -173.504 -3.09093 9
      vertex -174.814 -6.99013 9
      vertex -173.109 -3.19243 9
    endloop
  endfacet
  facet normal 0 0 1
    outer loop
      vertex -173.884 -2.94069 9
      vertex -174.814 -6.99013 9
      vertex -173.504 -3.09093 9
    endloop
  endfacet
  facet normal 0 0 1
    outer loop
      vertex -175.437 -6.91144 9
      vertex -173.884 -2.94069 9
      vertex -174.241 -2.74407 9
    endloop
  endfacet
  facet normal 0 0 1
    outer loop
      vertex -176.629 -6.52413 9
      vertex -174.241 -2.74407 9
      vertex -174.572 -2.50417 9
    endloop
  endfacet
  facet normal 0 0 1
    outer loop
      vertex -177.687 -5.85257 9
      vertex -174.572 -2.50417 9
      vertex -174.869 -2.22478 9
    endloop
  endfacet
  facet normal 0 0 1
    outer loop
      vertex -178.545 -4.93893 9
      vertex -174.869 -2.22478 9
      vertex -175.129 -1.9103 9
    endloop
  endfacet
  facet normal 0 0 1
    outer loop
      vertex -179.149 -3.84062 9
      vertex -175.129 -1.9103 9
      vertex -175.348 -1.5657 9
    endloop
  endfacet
  facet normal 0 0 1
    outer loop
      vertex -173.884 -2.94069 9
      vertex -175.437 -6.91144 9
      vertex -174.814 -6.99013 9
    endloop
  endfacet
  facet normal 0 0 1
    outer loop
      vertex -179.461 -2.62667 9
      vertex -175.348 -1.5657 9
      vertex -175.522 -1.1964 9
    endloop
  endfacet
  facet normal 0 0 1
    outer loop
      vertex -179.5 -2 9
      vertex -175.522 -1.1964 9
      vertex -175.648 -0.808242 9
    endloop
  endfacet
  facet normal 0 0 1
    outer loop
      vertex -179.5 -2 9
      vertex -175.648 -0.808242 9
      vertex -175.724 -0.407332 9
    endloop
  endfacet
  facet normal 0 0 1
    outer loop
      vertex -179.5 -2 9
      vertex -175.724 -0.407332 9
      vertex -175.75 0 9
    endloop
  endfacet
  facet normal 0 0 1
    outer loop
      vertex -174.241 -2.74407 9
      vertex -176.045 -6.75528 9
      vertex -175.437 -6.91144 9
    endloop
  endfacet
  facet normal -0 0 1
    outer loop
      vertex -178.882 4.40877 9
      vertex -175.129 1.9103 9
      vertex -178.545 4.93893 9
    endloop
  endfacet
  facet normal -0 0 1
    outer loop
      vertex -179.149 3.84062 9
      vertex -175.129 1.9103 9
      vertex -178.882 4.40877 9
    endloop
  endfacet
  facet normal 0 0 1
    outer loop
      vertex -179.5 -2 9
      vertex -175.75 0 9
      vertex -179.5 2 9
    endloop
  endfacet
  facet normal 0 0 1
    outer loop
      vertex -175.129 1.9103 9
      vertex -179.149 3.84062 9
      vertex -175.348 1.5657 9
    endloop
  endfacet
  facet normal 0 0 1
    outer loop
      vertex -175.522 -1.1964 9
      vertex -179.5 -2 9
      vertex -179.461 -2.62667 9
    endloop
  endfacet
  facet normal -0 0 1
    outer loop
      vertex -179.343 3.24345 9
      vertex -175.348 1.5657 9
      vertex -179.149 3.84062 9
    endloop
  endfacet
  facet normal 0 0 1
    outer loop
      vertex -174.241 -2.74407 9
      vertex -176.629 -6.52413 9
      vertex -176.045 -6.75528 9
    endloop
  endfacet
  facet normal -0 0 1
    outer loop
      vertex -179.461 2.62667 9
      vertex -175.348 1.5657 9
      vertex -179.343 3.24345 9
    endloop
  endfacet
  facet normal 0 0 1
    outer loop
      vertex -174.572 -2.50417 9
      vertex -177.179 -6.22164 9
      vertex -176.629 -6.52413 9
    endloop
  endfacet
  facet normal 0 0 1
    outer loop
      vertex -175.348 1.5657 9
      vertex -179.461 2.62667 9
      vertex -175.522 1.1964 9
    endloop
  endfacet
  facet normal 0 0 1
    outer loop
      vertex -174.572 -2.50417 9
      vertex -177.687 -5.85257 9
      vertex -177.179 -6.22164 9
    endloop
  endfacet
  facet normal -0 0 1
    outer loop
      vertex -179.5 2 9
      vertex -175.522 1.1964 9
      vertex -179.461 2.62667 9
    endloop
  endfacet
  facet normal 0 0 1
    outer loop
      vertex -174.869 -2.22478 9
      vertex -178.145 -5.42274 9
      vertex -177.687 -5.85257 9
    endloop
  endfacet
  facet normal 0 0 1
    outer loop
      vertex -175.522 1.1964 9
      vertex -179.5 2 9
      vertex -175.648 0.808242 9
    endloop
  endfacet
  facet normal 0 0 1
    outer loop
      vertex -174.869 -2.22478 9
      vertex -178.545 -4.93893 9
      vertex -178.145 -5.42274 9
    endloop
  endfacet
  facet normal 0 0 1
    outer loop
      vertex -175.648 0.808242 9
      vertex -179.5 2 9
      vertex -175.724 0.407332 9
    endloop
  endfacet
  facet normal 0 0 1
    outer loop
      vertex -175.129 -1.9103 9
      vertex -178.882 -4.40877 9
      vertex -178.545 -4.93893 9
    endloop
  endfacet
  facet normal 0 0 1
    outer loop
      vertex -175.724 0.407332 9
      vertex -179.5 2 9
      vertex -175.75 0 9
    endloop
  endfacet
  facet normal 0 0 1
    outer loop
      vertex -175.129 -1.9103 9
      vertex -179.149 -3.84062 9
      vertex -178.882 -4.40877 9
    endloop
  endfacet
  facet normal 0 0 1
    outer loop
      vertex -175.348 -1.5657 9
      vertex -179.343 -3.24345 9
      vertex -179.149 -3.84062 9
    endloop
  endfacet
  facet normal 0 0 1
    outer loop
      vertex -175.348 -1.5657 9
      vertex -179.461 -2.62667 9
      vertex -179.343 -3.24345 9
    endloop
  endfacet
  facet normal 0.951143 -0.308751 0
    outer loop
      vertex -175.648 0.808242 9
      vertex -175.522 1.1964 0
      vertex -175.522 1.1964 9
    endloop
  endfacet
  facet normal 0.951143 -0.308751 0
    outer loop
      vertex -175.522 1.1964 0
      vertex -175.648 0.808242 9
      vertex -175.648 0.808242 0
    endloop
  endfacet
  facet normal 0.843984 -0.536368 0
    outer loop
      vertex -175.348 1.5657 9
      vertex -175.129 1.9103 0
      vertex -175.129 1.9103 9
    endloop
  endfacet
  facet normal 0.843984 -0.536368 0
    outer loop
      vertex -175.129 1.9103 0
      vertex -175.348 1.5657 9
      vertex -175.348 1.5657 0
    endloop
  endfacet
  facet normal 0.248877 -0.968535 0
    outer loop
      vertex -173.504 3.09093 0
      vertex -173.109 3.19243 9
      vertex -173.504 3.09093 9
    endloop
  endfacet
  facet normal 0.248877 -0.968535 0
    outer loop
      vertex -173.109 3.19243 9
      vertex -173.504 3.09093 0
      vertex -173.109 3.19243 0
    endloop
  endfacet
  facet normal 0.586847 -0.809698 0
    outer loop
      vertex -174.572 2.50417 0
      vertex -174.241 2.74407 9
      vertex -174.572 2.50417 9
    endloop
  endfacet
  facet normal 0.586847 -0.809698 0
    outer loop
      vertex -174.241 2.74407 9
      vertex -174.572 2.50417 0
      vertex -174.241 2.74407 0
    endloop
  endfacet
  facet normal 0.685183 -0.728371 0
    outer loop
      vertex -174.869 2.22478 0
      vertex -174.572 2.50417 9
      vertex -174.869 2.22478 9
    endloop
  endfacet
  facet normal 0.685183 -0.728371 0
    outer loop
      vertex -174.572 2.50417 9
      vertex -174.869 2.22478 0
      vertex -174.572 2.50417 0
    endloop
  endfacet
  facet normal -0.843984 0.536368 0
    outer loop
      vertex -169.871 -1.9103 0
      vertex -169.652 -1.5657 9
      vertex -169.652 -1.5657 0
    endloop
  endfacet
  facet normal -0.843984 0.536368 0
    outer loop
      vertex -169.652 -1.5657 9
      vertex -169.871 -1.9103 0
      vertex -169.871 -1.9103 9
    endloop
  endfacet
  facet normal 0 1 -0
    outer loop
      vertex -172.296 -3.24359 0
      vertex -172.704 -3.24359 9
      vertex -172.296 -3.24359 9
    endloop
  endfacet
  facet normal 0 1 0
    outer loop
      vertex -172.704 -3.24359 9
      vertex -172.296 -3.24359 0
      vertex -172.704 -3.24359 0
    endloop
  endfacet
  facet normal 0.951143 0.308751 0
    outer loop
      vertex -175.522 -1.1964 9
      vertex -175.648 -0.808242 0
      vertex -175.648 -0.808242 9
    endloop
  endfacet
  facet normal 0.951143 0.308751 0
    outer loop
      vertex -175.648 -0.808242 0
      vertex -175.522 -1.1964 9
      vertex -175.522 -1.1964 0
    endloop
  endfacet
  facet normal 0.904619 0.426222 0
    outer loop
      vertex -175.348 -1.5657 9
      vertex -175.522 -1.1964 0
      vertex -175.522 -1.1964 9
    endloop
  endfacet
  facet normal 0.904619 0.426222 0
    outer loop
      vertex -175.522 -1.1964 0
      vertex -175.348 -1.5657 9
      vertex -175.348 -1.5657 0
    endloop
  endfacet
  facet normal -0.125325 0.992116 0
    outer loop
      vertex -171.891 -3.19243 0
      vertex -172.296 -3.24359 9
      vertex -171.891 -3.19243 9
    endloop
  endfacet
  facet normal -0.125325 0.992116 0
    outer loop
      vertex -172.296 -3.24359 9
      vertex -171.891 -3.19243 0
      vertex -172.296 -3.24359 0
    endloop
  endfacet
  facet normal -0.997969 0.0637004 0
    outer loop
      vertex -169.276 -0.407332 0
      vertex -169.25 0 9
      vertex -169.25 0 0
    endloop
  endfacet
  facet normal -0.997969 0.0637004 0
    outer loop
      vertex -169.25 0 9
      vertex -169.276 -0.407332 0
      vertex -169.276 -0.407332 9
    endloop
  endfacet
  facet normal 0 0 -1
    outer loop
      vertex 174.814 -6.99013 0
      vertex 179.5 -2 0
      vertex 179.461 -2.62667 0
    endloop
  endfacet
  facet normal -0 0 -1
    outer loop
      vertex 179.5 -2 0
      vertex 174.814 -6.99013 0
      vertex 179.5 2 0
    endloop
  endfacet
  facet normal 0 0 -1
    outer loop
      vertex 174.814 -6.99013 0
      vertex 179.461 -2.62667 0
      vertex 179.343 -3.24345 0
    endloop
  endfacet
  facet normal 0 0 -1
    outer loop
      vertex 174.814 6.99013 0
      vertex 179.5 2 0
      vertex 174.814 -6.99013 0
    endloop
  endfacet
  facet normal 0 0 -1
    outer loop
      vertex 174.814 -6.99013 0
      vertex 179.343 -3.24345 0
      vertex 179.149 -3.84062 0
    endloop
  endfacet
  facet normal 0 0 -1
    outer loop
      vertex 179.5 2 0
      vertex 174.814 6.99013 0
      vertex 179.461 2.62667 0
    endloop
  endfacet
  facet normal 0 0 -1
    outer loop
      vertex 174.814 -6.99013 0
      vertex 179.149 -3.84062 0
      vertex 178.882 -4.40877 0
    endloop
  endfacet
  facet normal 0 0 -1
    outer loop
      vertex 179.461 2.62667 0
      vertex 174.814 6.99013 0
      vertex 179.343 3.24345 0
    endloop
  endfacet
  facet normal 0 0 -1
    outer loop
      vertex 174.814 -6.99013 0
      vertex 178.882 -4.40877 0
      vertex 178.545 -4.93893 0
    endloop
  endfacet
  facet normal 0 0 -1
    outer loop
      vertex 179.343 3.24345 0
      vertex 174.814 6.99013 0
      vertex 179.149 3.84062 0
    endloop
  endfacet
  facet normal 0 0 -1
    outer loop
      vertex 174.814 -6.99013 0
      vertex 178.545 -4.93893 0
      vertex 178.145 -5.42274 0
    endloop
  endfacet
  facet normal 0 0 -1
    outer loop
      vertex 179.149 3.84062 0
      vertex 174.814 6.99013 0
      vertex 178.882 4.40877 0
    endloop
  endfacet
  facet normal 0 0 -1
    outer loop
      vertex 174.814 -6.99013 0
      vertex 178.145 -5.42274 0
      vertex 177.687 -5.85257 0
    endloop
  endfacet
  facet normal 0 0 -1
    outer loop
      vertex 178.882 4.40877 0
      vertex 174.814 6.99013 0
      vertex 178.545 4.93893 0
    endloop
  endfacet
  facet normal 0 0 -1
    outer loop
      vertex 174.814 -6.99013 0
      vertex 177.687 -5.85257 0
      vertex 177.179 -6.22164 0
    endloop
  endfacet
  facet normal 0 0 -1
    outer loop
      vertex 178.545 4.93893 0
      vertex 174.814 6.99013 0
      vertex 178.145 5.42274 0
    endloop
  endfacet
  facet normal 0 0 -1
    outer loop
      vertex 174.814 -6.99013 0
      vertex 177.179 -6.22164 0
      vertex 176.629 -6.52413 0
    endloop
  endfacet
  facet normal 0 0 -1
    outer loop
      vertex 178.145 5.42274 0
      vertex 174.814 6.99013 0
      vertex 177.687 5.85257 0
    endloop
  endfacet
  facet normal 0 0 -1
    outer loop
      vertex 174.814 -6.99013 0
      vertex 176.629 -6.52413 0
      vertex 176.045 -6.75528 0
    endloop
  endfacet
  facet normal 0 0 -1
    outer loop
      vertex 177.687 5.85257 0
      vertex 174.814 6.99013 0
      vertex 177.179 6.22164 0
    endloop
  endfacet
  facet normal 0 0 -1
    outer loop
      vertex 174.814 -6.99013 0
      vertex 176.045 -6.75528 0
      vertex 175.437 -6.91144 0
    endloop
  endfacet
  facet normal 0 0 -1
    outer loop
      vertex 177.179 6.22164 0
      vertex 174.814 6.99013 0
      vertex 176.629 6.52413 0
    endloop
  endfacet
  facet normal 0 0 -1
    outer loop
      vertex 176.629 6.52413 0
      vertex 174.814 6.99013 0
      vertex 176.045 6.75528 0
    endloop
  endfacet
  facet normal 0 0 -1
    outer loop
      vertex 176.045 6.75528 0
      vertex 174.814 6.99013 0
      vertex 175.437 6.91144 0
    endloop
  endfacet
  facet normal 0 0 -1
    outer loop
      vertex 174.814 -6.99013 0
      vertex -169.25 0 0
      vertex 174.814 6.99013 0
    endloop
  endfacet
  facet normal 0 0 -1
    outer loop
      vertex 174.814 -6.99013 0
      vertex -169.276 -0.407332 0
      vertex -169.25 0 0
    endloop
  endfacet
  facet normal 0 0 -1
    outer loop
      vertex 174.814 -6.99013 0
      vertex -169.352 -0.808242 0
      vertex -169.276 -0.407332 0
    endloop
  endfacet
  facet normal 0 0 -1
    outer loop
      vertex 174.814 -6.99013 0
      vertex -169.478 -1.1964 0
      vertex -169.352 -0.808242 0
    endloop
  endfacet
  facet normal 0 0 -1
    outer loop
      vertex 174.814 -6.99013 0
      vertex -169.652 -1.5657 0
      vertex -169.478 -1.1964 0
    endloop
  endfacet
  facet normal 0 0 -1
    outer loop
      vertex 174.814 -6.99013 0
      vertex -169.871 -1.9103 0
      vertex -169.652 -1.5657 0
    endloop
  endfacet
  facet normal 0 0 -1
    outer loop
      vertex 174.814 -6.99013 0
      vertex -170.131 -2.22478 0
      vertex -169.871 -1.9103 0
    endloop
  endfacet
  facet normal 0 0 -1
    outer loop
      vertex -174.814 -6.99013 0
      vertex -170.131 -2.22478 0
      vertex 174.814 -6.99013 0
    endloop
  endfacet
  facet normal 0 0 -1
    outer loop
      vertex -170.131 -2.22478 0
      vertex -174.814 -6.99013 0
      vertex -170.428 -2.50417 0
    endloop
  endfacet
  facet normal 0 0 -1
    outer loop
      vertex -170.428 -2.50417 0
      vertex -174.814 -6.99013 0
      vertex -170.759 -2.74407 0
    endloop
  endfacet
  facet normal 0 0 -1
    outer loop
      vertex -170.759 -2.74407 0
      vertex -174.814 -6.99013 0
      vertex -171.116 -2.94069 0
    endloop
  endfacet
  facet normal 0 0 -1
    outer loop
      vertex -171.116 -2.94069 0
      vertex -174.814 -6.99013 0
      vertex -171.496 -3.09093 0
    endloop
  endfacet
  facet normal 0 0 -1
    outer loop
      vertex -171.496 -3.09093 0
      vertex -174.814 -6.99013 0
      vertex -171.891 -3.19243 0
    endloop
  endfacet
  facet normal 0 0 -1
    outer loop
      vertex -171.891 -3.19243 0
      vertex -174.814 -6.99013 0
      vertex -172.296 -3.24359 0
    endloop
  endfacet
  facet normal -0 0 -1
    outer loop
      vertex -172.296 -3.24359 0
      vertex -174.814 -6.99013 0
      vertex -172.704 -3.24359 0
    endloop
  endfacet
  facet normal 0 0 -1
    outer loop
      vertex -174.814 -6.99013 0
      vertex -173.109 -3.19243 0
      vertex -172.704 -3.24359 0
    endloop
  endfacet
  facet normal 0 0 -1
    outer loop
      vertex -174.814 -6.99013 0
      vertex -173.504 -3.09093 0
      vertex -173.109 -3.19243 0
    endloop
  endfacet
  facet normal 0 0 -1
    outer loop
      vertex -174.814 -6.99013 0
      vertex -173.884 -2.94069 0
      vertex -173.504 -3.09093 0
    endloop
  endfacet
  facet normal 0 0 -1
    outer loop
      vertex -175.437 -6.91144 0
      vertex -173.884 -2.94069 0
      vertex -174.814 -6.99013 0
    endloop
  endfacet
  facet normal -0 0 -1
    outer loop
      vertex -173.884 -2.94069 0
      vertex -175.437 -6.91144 0
      vertex -174.241 -2.74407 0
    endloop
  endfacet
  facet normal 0 0 -1
    outer loop
      vertex -176.045 -6.75528 0
      vertex -174.241 -2.74407 0
      vertex -175.437 -6.91144 0
    endloop
  endfacet
  facet normal 0 0 -1
    outer loop
      vertex -176.629 -6.52413 0
      vertex -174.241 -2.74407 0
      vertex -176.045 -6.75528 0
    endloop
  endfacet
  facet normal -0 0 -1
    outer loop
      vertex -174.241 -2.74407 0
      vertex -176.629 -6.52413 0
      vertex -174.572 -2.50417 0
    endloop
  endfacet
  facet normal 0 0 -1
    outer loop
      vertex -177.179 -6.22164 0
      vertex -174.572 -2.50417 0
      vertex -176.629 -6.52413 0
    endloop
  endfacet
  facet normal 0 0 -1
    outer loop
      vertex -177.687 -5.85257 0
      vertex -174.572 -2.50417 0
      vertex -177.179 -6.22164 0
    endloop
  endfacet
  facet normal -0 0 -1
    outer loop
      vertex -174.572 -2.50417 0
      vertex -177.687 -5.85257 0
      vertex -174.869 -2.22478 0
    endloop
  endfacet
  facet normal 0 0 -1
    outer loop
      vertex -178.145 -5.42274 0
      vertex -174.869 -2.22478 0
      vertex -177.687 -5.85257 0
    endloop
  endfacet
  facet normal 0 0 -1
    outer loop
      vertex -178.545 -4.93893 0
      vertex -174.869 -2.22478 0
      vertex -178.145 -5.42274 0
    endloop
  endfacet
  facet normal -0 0 -1
    outer loop
      vertex -174.869 -2.22478 0
      vertex -178.545 -4.93893 0
      vertex -175.129 -1.9103 0
    endloop
  endfacet
  facet normal 0 0 -1
    outer loop
      vertex -169.276 0.407332 0
      vertex 174.814 6.99013 0
      vertex -169.25 0 0
    endloop
  endfacet
  facet normal 0 0 -1
    outer loop
      vertex -169.352 0.808242 0
      vertex 174.814 6.99013 0
      vertex -169.276 0.407332 0
    endloop
  endfacet
  facet normal 0 0 -1
    outer loop
      vertex -169.478 1.1964 0
      vertex 174.814 6.99013 0
      vertex -169.352 0.808242 0
    endloop
  endfacet
  facet normal 0 0 -1
    outer loop
      vertex -169.652 1.5657 0
      vertex 174.814 6.99013 0
      vertex -169.478 1.1964 0
    endloop
  endfacet
  facet normal 0 0 -1
    outer loop
      vertex -169.871 1.9103 0
      vertex 174.814 6.99013 0
      vertex -169.652 1.5657 0
    endloop
  endfacet
  facet normal 0 0 -1
    outer loop
      vertex -170.131 2.22478 0
      vertex 174.814 6.99013 0
      vertex -169.871 1.9103 0
    endloop
  endfacet
  facet normal 0 0 -1
    outer loop
      vertex -174.814 6.99013 0
      vertex -170.131 2.22478 0
      vertex -170.428 2.50417 0
    endloop
  endfacet
  facet normal 0 0 -1
    outer loop
      vertex -174.814 6.99013 0
      vertex -170.428 2.50417 0
      vertex -170.759 2.74407 0
    endloop
  endfacet
  facet normal 0 0 -1
    outer loop
      vertex -174.814 6.99013 0
      vertex -170.759 2.74407 0
      vertex -171.116 2.94069 0
    endloop
  endfacet
  facet normal 0 0 -1
    outer loop
      vertex -174.814 6.99013 0
      vertex -171.116 2.94069 0
      vertex -171.496 3.09093 0
    endloop
  endfacet
  facet normal 0 0 -1
    outer loop
      vertex -174.814 6.99013 0
      vertex -171.496 3.09093 0
      vertex -171.891 3.19243 0
    endloop
  endfacet
  facet normal 0 0 -1
    outer loop
      vertex -174.814 6.99013 0
      vertex -171.891 3.19243 0
      vertex -172.296 3.24359 0
    endloop
  endfacet
  facet normal 0 0 -1
    outer loop
      vertex -174.814 6.99013 0
      vertex -172.296 3.24359 0
      vertex -172.704 3.24359 0
    endloop
  endfacet
  facet normal 0 0 -1
    outer loop
      vertex -170.131 2.22478 0
      vertex -174.814 6.99013 0
      vertex 174.814 6.99013 0
    endloop
  endfacet
  facet normal 0 0 -1
    outer loop
      vertex -173.109 3.19243 0
      vertex -174.814 6.99013 0
      vertex -172.704 3.24359 0
    endloop
  endfacet
  facet normal 0 0 -1
    outer loop
      vertex -173.504 3.09093 0
      vertex -174.814 6.99013 0
      vertex -173.109 3.19243 0
    endloop
  endfacet
  facet normal 0 0 -1
    outer loop
      vertex -173.884 2.94069 0
      vertex -174.814 6.99013 0
      vertex -173.504 3.09093 0
    endloop
  endfacet
  facet normal 0 0 -1
    outer loop
      vertex -175.437 6.91144 0
      vertex -173.884 2.94069 0
      vertex -174.241 2.74407 0
    endloop
  endfacet
  facet normal 0 0 -1
    outer loop
      vertex -176.629 6.52413 0
      vertex -174.241 2.74407 0
      vertex -174.572 2.50417 0
    endloop
  endfacet
  facet normal 0 0 -1
    outer loop
      vertex -177.687 5.85257 0
      vertex -174.572 2.50417 0
      vertex -174.869 2.22478 0
    endloop
  endfacet
  facet normal 0 0 -1
    outer loop
      vertex -178.545 4.93893 0
      vertex -174.869 2.22478 0
      vertex -175.129 1.9103 0
    endloop
  endfacet
  facet normal 0 0 -1
    outer loop
      vertex -179.149 3.84062 0
      vertex -175.129 1.9103 0
      vertex -175.348 1.5657 0
    endloop
  endfacet
  facet normal 0 0 -1
    outer loop
      vertex -173.884 2.94069 0
      vertex -175.437 6.91144 0
      vertex -174.814 6.99013 0
    endloop
  endfacet
  facet normal 0 0 -1
    outer loop
      vertex -179.461 2.62667 0
      vertex -175.348 1.5657 0
      vertex -175.522 1.1964 0
    endloop
  endfacet
  facet normal 0 0 -1
    outer loop
      vertex -179.5 2 0
      vertex -175.522 1.1964 0
      vertex -175.648 0.808242 0
    endloop
  endfacet
  facet normal 0 0 -1
    outer loop
      vertex -179.5 2 0
      vertex -175.648 0.808242 0
      vertex -175.724 0.407332 0
    endloop
  endfacet
  facet normal 0 0 -1
    outer loop
      vertex -179.5 2 0
      vertex -175.724 0.407332 0
      vertex -175.75 0 0
    endloop
  endfacet
  facet normal 0 0 -1
    outer loop
      vertex -174.241 2.74407 0
      vertex -176.045 6.75528 0
      vertex -175.437 6.91144 0
    endloop
  endfacet
  facet normal 0 0 -1
    outer loop
      vertex -178.882 -4.40877 0
      vertex -175.129 -1.9103 0
      vertex -178.545 -4.93893 0
    endloop
  endfacet
  facet normal 0 0 -1
    outer loop
      vertex -179.149 -3.84062 0
      vertex -175.129 -1.9103 0
      vertex -178.882 -4.40877 0
    endloop
  endfacet
  facet normal 0 0 -1
    outer loop
      vertex -179.5 2 0
      vertex -175.75 0 0
      vertex -179.5 -2 0
    endloop
  endfacet
  facet normal -0 0 -1
    outer loop
      vertex -175.129 -1.9103 0
      vertex -179.149 -3.84062 0
      vertex -175.348 -1.5657 0
    endloop
  endfacet
  facet normal 0 0 -1
    outer loop
      vertex -175.522 1.1964 0
      vertex -179.5 2 0
      vertex -179.461 2.62667 0
    endloop
  endfacet
  facet normal 0 0 -1
    outer loop
      vertex -179.343 -3.24345 0
      vertex -175.348 -1.5657 0
      vertex -179.149 -3.84062 0
    endloop
  endfacet
  facet normal 0 0 -1
    outer loop
      vertex -174.241 2.74407 0
      vertex -176.629 6.52413 0
      vertex -176.045 6.75528 0
    endloop
  endfacet
  facet normal 0 0 -1
    outer loop
      vertex -179.461 -2.62667 0
      vertex -175.348 -1.5657 0
      vertex -179.343 -3.24345 0
    endloop
  endfacet
  facet normal 0 0 -1
    outer loop
      vertex -174.572 2.50417 0
      vertex -177.179 6.22164 0
      vertex -176.629 6.52413 0
    endloop
  endfacet
  facet normal -0 0 -1
    outer loop
      vertex -175.348 -1.5657 0
      vertex -179.461 -2.62667 0
      vertex -175.522 -1.1964 0
    endloop
  endfacet
  facet normal 0 0 -1
    outer loop
      vertex -174.572 2.50417 0
      vertex -177.687 5.85257 0
      vertex -177.179 6.22164 0
    endloop
  endfacet
  facet normal 0 0 -1
    outer loop
      vertex -179.5 -2 0
      vertex -175.522 -1.1964 0
      vertex -179.461 -2.62667 0
    endloop
  endfacet
  facet normal 0 0 -1
    outer loop
      vertex -174.869 2.22478 0
      vertex -178.145 5.42274 0
      vertex -177.687 5.85257 0
    endloop
  endfacet
  facet normal -0 0 -1
    outer loop
      vertex -175.522 -1.1964 0
      vertex -179.5 -2 0
      vertex -175.648 -0.808242 0
    endloop
  endfacet
  facet normal 0 0 -1
    outer loop
      vertex -174.869 2.22478 0
      vertex -178.545 4.93893 0
      vertex -178.145 5.42274 0
    endloop
  endfacet
  facet normal -0 0 -1
    outer loop
      vertex -175.648 -0.808242 0
      vertex -179.5 -2 0
      vertex -175.724 -0.407332 0
    endloop
  endfacet
  facet normal 0 0 -1
    outer loop
      vertex -175.129 1.9103 0
      vertex -178.882 4.40877 0
      vertex -178.545 4.93893 0
    endloop
  endfacet
  facet normal -0 0 -1
    outer loop
      vertex -175.724 -0.407332 0
      vertex -179.5 -2 0
      vertex -175.75 0 0
    endloop
  endfacet
  facet normal 0 0 -1
    outer loop
      vertex -175.129 1.9103 0
      vertex -179.149 3.84062 0
      vertex -178.882 4.40877 0
    endloop
  endfacet
  facet normal 0 0 -1
    outer loop
      vertex -175.348 1.5657 0
      vertex -179.343 3.24345 0
      vertex -179.149 3.84062 0
    endloop
  endfacet
  facet normal 0 0 -1
    outer loop
      vertex -175.348 1.5657 0
      vertex -179.461 2.62667 0
      vertex -179.343 3.24345 0
    endloop
  endfacet
  facet normal -0.248877 0.968535 0
    outer loop
      vertex -171.496 -3.09093 0
      vertex -171.891 -3.19243 9
      vertex -171.496 -3.09093 9
    endloop
  endfacet
  facet normal -0.248877 0.968535 0
    outer loop
      vertex -171.891 -3.19243 9
      vertex -171.496 -3.09093 0
      vertex -171.891 -3.19243 0
    endloop
  endfacet
  facet normal -0.482427 0.875936 0
    outer loop
      vertex -170.759 -2.74407 0
      vertex -171.116 -2.94069 9
      vertex -170.759 -2.74407 9
    endloop
  endfacet
  facet normal -0.482427 0.875936 0
    outer loop
      vertex -171.116 -2.94069 9
      vertex -170.759 -2.74407 0
      vertex -171.116 -2.94069 0
    endloop
  endfacet
  facet normal -0.367675 0.929954 0
    outer loop
      vertex -171.116 -2.94069 0
      vertex -171.496 -3.09093 9
      vertex -171.116 -2.94069 9
    endloop
  endfacet
  facet normal -0.367675 0.929954 0
    outer loop
      vertex -171.496 -3.09093 9
      vertex -171.116 -2.94069 0
      vertex -171.496 -3.09093 0
    endloop
  endfacet
  facet normal -0.685183 0.728371 0
    outer loop
      vertex -170.131 -2.22478 0
      vertex -170.428 -2.50417 9
      vertex -170.131 -2.22478 9
    endloop
  endfacet
  facet normal -0.685183 0.728371 0
    outer loop
      vertex -170.428 -2.50417 9
      vertex -170.131 -2.22478 0
      vertex -170.428 -2.50417 0
    endloop
  endfacet
  facet normal -0.904619 0.426222 0
    outer loop
      vertex -169.652 -1.5657 0
      vertex -169.478 -1.1964 9
      vertex -169.478 -1.1964 0
    endloop
  endfacet
  facet normal -0.904619 0.426222 0
    outer loop
      vertex -169.478 -1.1964 9
      vertex -169.652 -1.5657 0
      vertex -169.652 -1.5657 9
    endloop
  endfacet
  facet normal 0.586847 0.809698 -0
    outer loop
      vertex -174.241 -2.74407 0
      vertex -174.572 -2.50417 9
      vertex -174.241 -2.74407 9
    endloop
  endfacet
  facet normal 0.586847 0.809698 0
    outer loop
      vertex -174.572 -2.50417 9
      vertex -174.241 -2.74407 0
      vertex -174.572 -2.50417 0
    endloop
  endfacet
  facet normal 0.248877 0.968535 -0
    outer loop
      vertex -173.109 -3.19243 0
      vertex -173.504 -3.09093 9
      vertex -173.109 -3.19243 9
    endloop
  endfacet
  facet normal 0.248877 0.968535 0
    outer loop
      vertex -173.504 -3.09093 9
      vertex -173.109 -3.19243 0
      vertex -173.504 -3.09093 0
    endloop
  endfacet
  facet normal 0.125325 0.992116 -0
    outer loop
      vertex -172.704 -3.24359 0
      vertex -173.109 -3.19243 9
      vertex -172.704 -3.24359 9
    endloop
  endfacet
  facet normal 0.125325 0.992116 0
    outer loop
      vertex -173.109 -3.19243 9
      vertex -172.704 -3.24359 0
      vertex -173.109 -3.19243 0
    endloop
  endfacet
  facet normal 0.770706 0.63719 0
    outer loop
      vertex -174.869 -2.22478 9
      vertex -175.129 -1.9103 0
      vertex -175.129 -1.9103 9
    endloop
  endfacet
  facet normal 0.770706 0.63719 0
    outer loop
      vertex -175.129 -1.9103 0
      vertex -174.869 -2.22478 9
      vertex -174.869 -2.22478 0
    endloop
  endfacet
  facet normal 0.685183 0.728371 -0
    outer loop
      vertex -174.572 -2.50417 0
      vertex -174.869 -2.22478 9
      vertex -174.572 -2.50417 9
    endloop
  endfacet
  facet normal 0.685183 0.728371 0
    outer loop
      vertex -174.869 -2.22478 9
      vertex -174.572 -2.50417 0
      vertex -174.869 -2.22478 0
    endloop
  endfacet
  facet normal 0.982502 0.186252 0
    outer loop
      vertex -175.648 -0.808242 9
      vertex -175.724 -0.407332 0
      vertex -175.724 -0.407332 9
    endloop
  endfacet
  facet normal 0.982502 0.186252 0
    outer loop
      vertex -175.724 -0.407332 0
      vertex -175.648 -0.808242 9
      vertex -175.648 -0.808242 0
    endloop
  endfacet
  facet normal 0.997969 0.0637004 0
    outer loop
      vertex -175.724 -0.407332 9
      vertex -175.75 0 0
      vertex -175.75 0 9
    endloop
  endfacet
  facet normal 0.997969 0.0637004 0
    outer loop
      vertex -175.75 0 0
      vertex -175.724 -0.407332 9
      vertex -175.724 -0.407332 0
    endloop
  endfacet
  facet normal -0.770706 0.63719 0
    outer loop
      vertex -170.131 -2.22478 0
      vertex -169.871 -1.9103 9
      vertex -169.871 -1.9103 0
    endloop
  endfacet
  facet normal -0.770706 0.63719 0
    outer loop
      vertex -169.871 -1.9103 9
      vertex -170.131 -2.22478 0
      vertex -170.131 -2.22478 9
    endloop
  endfacet
  facet normal 0.482427 0.875936 -0
    outer loop
      vertex -173.884 -2.94069 0
      vertex -174.241 -2.74407 9
      vertex -173.884 -2.94069 9
    endloop
  endfacet
  facet normal 0.482427 0.875936 0
    outer loop
      vertex -174.241 -2.74407 9
      vertex -173.884 -2.94069 0
      vertex -174.241 -2.74407 0
    endloop
  endfacet
  facet normal 0.843984 0.536368 0
    outer loop
      vertex -175.129 -1.9103 9
      vertex -175.348 -1.5657 0
      vertex -175.348 -1.5657 9
    endloop
  endfacet
  facet normal 0.843984 0.536368 0
    outer loop
      vertex -175.348 -1.5657 0
      vertex -175.129 -1.9103 9
      vertex -175.129 -1.9103 0
    endloop
  endfacet
  facet normal 0.367675 0.929954 -0
    outer loop
      vertex -173.504 -3.09093 0
      vertex -173.884 -2.94069 9
      vertex -173.504 -3.09093 9
    endloop
  endfacet
  facet normal 0.367675 0.929954 0
    outer loop
      vertex -173.884 -2.94069 9
      vertex -173.504 -3.09093 0
      vertex -173.884 -2.94069 0
    endloop
  endfacet
  facet normal -1 0 0
    outer loop
      vertex -179.5 -2 0
      vertex -179.5 2 9
      vertex -179.5 2 0
    endloop
  endfacet
  facet normal -1 -0 0
    outer loop
      vertex -179.5 2 9
      vertex -179.5 -2 0
      vertex -179.5 -2 9
    endloop
  endfacet
  facet normal 0 1 -0
    outer loop
      vertex 174.814 6.99013 0
      vertex -174.814 6.99013 9
      vertex 174.814 6.99013 9
    endloop
  endfacet
  facet normal 0 1 0
    outer loop
      vertex -174.814 6.99013 9
      vertex 174.814 6.99013 0
      vertex -174.814 6.99013 0
    endloop
  endfacet
  facet normal 0 -1 0
    outer loop
      vertex -174.814 -6.99013 0
      vertex 174.814 -6.99013 9
      vertex -174.814 -6.99013 9
    endloop
  endfacet
  facet normal 0 -1 -0
    outer loop
      vertex 174.814 -6.99013 9
      vertex -174.814 -6.99013 0
      vertex 174.814 -6.99013 0
    endloop
  endfacet
  facet normal -0.684327 -0.729176 0
    outer loop
      vertex -178.145 -5.42274 0
      vertex -177.687 -5.85257 9
      vertex -178.145 -5.42274 9
    endloop
  endfacet
  facet normal -0.684327 -0.729176 -0
    outer loop
      vertex -177.687 -5.85257 9
      vertex -178.145 -5.42274 0
      vertex -177.687 -5.85257 0
    endloop
  endfacet
  facet normal 0.998069 -0.0621135 0
    outer loop
      vertex 179.461 -2.62667 9
      vertex 179.5 -2 0
      vertex 179.5 -2 9
    endloop
  endfacet
  facet normal 0.998069 -0.0621135 0
    outer loop
      vertex 179.5 -2 0
      vertex 179.461 -2.62667 9
      vertex 179.461 -2.62667 0
    endloop
  endfacet
  facet normal 0.125313 -0.992117 0
    outer loop
      vertex 174.814 -6.99013 0
      vertex 175.437 -6.91144 9
      vertex 174.814 -6.99013 9
    endloop
  endfacet
  facet normal 0.125313 -0.992117 0
    outer loop
      vertex 175.437 -6.91144 9
      vertex 174.814 -6.99013 0
      vertex 175.437 -6.91144 0
    endloop
  endfacet
  facet normal -0.951072 -0.30897 0
    outer loop
      vertex -179.149 -3.84062 0
      vertex -179.343 -3.24345 9
      vertex -179.343 -3.24345 0
    endloop
  endfacet
  facet normal -0.951072 -0.30897 0
    outer loop
      vertex -179.343 -3.24345 9
      vertex -179.149 -3.84062 0
      vertex -179.149 -3.84062 9
    endloop
  endfacet
  facet normal -0.368026 -0.929816 0
    outer loop
      vertex -176.629 -6.52413 0
      vertex -176.045 -6.75528 9
      vertex -176.629 -6.52413 9
    endloop
  endfacet
  facet normal -0.368026 -0.929816 -0
    outer loop
      vertex -176.045 -6.75528 9
      vertex -176.629 -6.52413 0
      vertex -176.045 -6.75528 0
    endloop
  endfacet
  facet normal -0.481907 -0.876223 0
    outer loop
      vertex -177.179 -6.22164 0
      vertex -176.629 -6.52413 9
      vertex -177.179 -6.22164 9
    endloop
  endfacet
  facet normal -0.481907 -0.876223 -0
    outer loop
      vertex -176.629 -6.52413 9
      vertex -177.179 -6.22164 0
      vertex -176.629 -6.52413 0
    endloop
  endfacet
  facet normal -0.248768 -0.968563 0
    outer loop
      vertex -176.045 -6.75528 0
      vertex -175.437 -6.91144 9
      vertex -176.045 -6.75528 9
    endloop
  endfacet
  facet normal -0.248768 -0.968563 -0
    outer loop
      vertex -175.437 -6.91144 9
      vertex -176.045 -6.75528 0
      vertex -175.437 -6.91144 0
    endloop
  endfacet
  facet normal 0.843931 -0.536451 0
    outer loop
      vertex 178.545 -4.93893 9
      vertex 178.882 -4.40877 0
      vertex 178.882 -4.40877 9
    endloop
  endfacet
  facet normal 0.843931 -0.536451 0
    outer loop
      vertex 178.882 -4.40877 0
      vertex 178.545 -4.93893 9
      vertex 178.545 -4.93893 0
    endloop
  endfacet
  facet normal 0.951072 0.30897 0
    outer loop
      vertex 179.343 3.24345 9
      vertex 179.149 3.84062 0
      vertex 179.149 3.84062 9
    endloop
  endfacet
  facet normal 0.951072 0.30897 0
    outer loop
      vertex 179.149 3.84062 0
      vertex 179.343 3.24345 9
      vertex 179.343 3.24345 0
    endloop
  endfacet
  facet normal 0.770703 0.637195 0
    outer loop
      vertex 178.545 4.93893 9
      vertex 178.145 5.42274 0
      vertex 178.145 5.42274 9
    endloop
  endfacet
  facet normal 0.770703 0.637195 0
    outer loop
      vertex 178.145 5.42274 0
      vertex 178.545 4.93893 9
      vertex 178.545 4.93893 0
    endloop
  endfacet
  facet normal 0.684327 0.729176 -0
    outer loop
      vertex 178.145 5.42274 0
      vertex 177.687 5.85257 9
      vertex 178.145 5.42274 9
    endloop
  endfacet
  facet normal 0.684327 0.729176 0
    outer loop
      vertex 177.687 5.85257 9
      vertex 178.145 5.42274 0
      vertex 177.687 5.85257 0
    endloop
  endfacet
  facet normal 0.125313 0.992117 -0
    outer loop
      vertex 175.437 6.91144 0
      vertex 174.814 6.99013 9
      vertex 175.437 6.91144 9
    endloop
  endfacet
  facet normal 0.125313 0.992117 0
    outer loop
      vertex 174.814 6.99013 9
      vertex 175.437 6.91144 0
      vertex 174.814 6.99013 0
    endloop
  endfacet
  facet normal 0.368026 0.929816 -0
    outer loop
      vertex 176.629 6.52413 0
      vertex 176.045 6.75528 9
      vertex 176.629 6.52413 9
    endloop
  endfacet
  facet normal 0.368026 0.929816 0
    outer loop
      vertex 176.045 6.75528 9
      vertex 176.629 6.52413 0
      vertex 176.045 6.75528 0
    endloop
  endfacet
  facet normal -0.125313 0.992117 0
    outer loop
      vertex -174.814 6.99013 0
      vertex -175.437 6.91144 9
      vertex -174.814 6.99013 9
    endloop
  endfacet
  facet normal -0.125313 0.992117 0
    outer loop
      vertex -175.437 6.91144 9
      vertex -174.814 6.99013 0
      vertex -175.437 6.91144 0
    endloop
  endfacet
  facet normal -0.905042 0.425321 0
    outer loop
      vertex -179.149 3.84062 0
      vertex -178.882 4.40877 9
      vertex -178.882 4.40877 0
    endloop
  endfacet
  facet normal -0.905042 0.425321 0
    outer loop
      vertex -178.882 4.40877 9
      vertex -179.149 3.84062 0
      vertex -179.149 3.84062 9
    endloop
  endfacet
  facet normal -0.998069 -0.0621135 0
    outer loop
      vertex -179.461 -2.62667 0
      vertex -179.5 -2 9
      vertex -179.5 -2 0
    endloop
  endfacet
  facet normal -0.998069 -0.0621135 0
    outer loop
      vertex -179.5 -2 9
      vertex -179.461 -2.62667 0
      vertex -179.461 -2.62667 9
    endloop
  endfacet
  facet normal -0.982187 -0.187908 0
    outer loop
      vertex -179.343 -3.24345 0
      vertex -179.461 -2.62667 9
      vertex -179.461 -2.62667 0
    endloop
  endfacet
  facet normal -0.982187 -0.187908 0
    outer loop
      vertex -179.461 -2.62667 9
      vertex -179.343 -3.24345 0
      vertex -179.343 -3.24345 9
    endloop
  endfacet
  facet normal -0.905042 -0.425321 0
    outer loop
      vertex -178.882 -4.40877 0
      vertex -179.149 -3.84062 9
      vertex -179.149 -3.84062 0
    endloop
  endfacet
  facet normal -0.905042 -0.425321 0
    outer loop
      vertex -179.149 -3.84062 9
      vertex -178.882 -4.40877 0
      vertex -178.882 -4.40877 9
    endloop
  endfacet
  facet normal -0.770703 -0.637195 0
    outer loop
      vertex -178.145 -5.42274 0
      vertex -178.545 -4.93893 9
      vertex -178.545 -4.93893 0
    endloop
  endfacet
  facet normal -0.770703 -0.637195 0
    outer loop
      vertex -178.545 -4.93893 9
      vertex -178.145 -5.42274 0
      vertex -178.145 -5.42274 9
    endloop
  endfacet
  facet normal -0.843931 -0.536451 0
    outer loop
      vertex -178.545 -4.93893 0
      vertex -178.882 -4.40877 9
      vertex -178.882 -4.40877 0
    endloop
  endfacet
  facet normal -0.843931 -0.536451 0
    outer loop
      vertex -178.882 -4.40877 9
      vertex -178.545 -4.93893 0
      vertex -178.545 -4.93893 9
    endloop
  endfacet
  facet normal -0.587771 -0.809027 0
    outer loop
      vertex -177.687 -5.85257 0
      vertex -177.179 -6.22164 9
      vertex -177.687 -5.85257 9
    endloop
  endfacet
  facet normal -0.587771 -0.809027 -0
    outer loop
      vertex -177.179 -6.22164 9
      vertex -177.687 -5.85257 0
      vertex -177.179 -6.22164 0
    endloop
  endfacet
  facet normal 1 -0 0
    outer loop
      vertex 179.5 -2 9
      vertex 179.5 2 0
      vertex 179.5 2 9
    endloop
  endfacet
  facet normal 1 0 0
    outer loop
      vertex 179.5 2 0
      vertex 179.5 -2 9
      vertex 179.5 -2 0
    endloop
  endfacet
  facet normal 0.982187 0.187908 0
    outer loop
      vertex 179.461 2.62667 9
      vertex 179.343 3.24345 0
      vertex 179.343 3.24345 9
    endloop
  endfacet
  facet normal 0.982187 0.187908 0
    outer loop
      vertex 179.343 3.24345 0
      vertex 179.461 2.62667 9
      vertex 179.461 2.62667 0
    endloop
  endfacet
  facet normal 0.982187 -0.187908 0
    outer loop
      vertex 179.343 -3.24345 9
      vertex 179.461 -2.62667 0
      vertex 179.461 -2.62667 9
    endloop
  endfacet
  facet normal 0.982187 -0.187908 0
    outer loop
      vertex 179.461 -2.62667 0
      vertex 179.343 -3.24345 9
      vertex 179.343 -3.24345 0
    endloop
  endfacet
  facet normal 0.951072 -0.30897 0
    outer loop
      vertex 179.149 -3.84062 9
      vertex 179.343 -3.24345 0
      vertex 179.343 -3.24345 9
    endloop
  endfacet
  facet normal 0.951072 -0.30897 0
    outer loop
      vertex 179.343 -3.24345 0
      vertex 179.149 -3.84062 9
      vertex 179.149 -3.84062 0
    endloop
  endfacet
  facet normal 0.905042 -0.425321 0
    outer loop
      vertex 178.882 -4.40877 9
      vertex 179.149 -3.84062 0
      vertex 179.149 -3.84062 9
    endloop
  endfacet
  facet normal 0.905042 -0.425321 0
    outer loop
      vertex 179.149 -3.84062 0
      vertex 178.882 -4.40877 9
      vertex 178.882 -4.40877 0
    endloop
  endfacet
  facet normal 0.684327 -0.729176 0
    outer loop
      vertex 177.687 -5.85257 0
      vertex 178.145 -5.42274 9
      vertex 177.687 -5.85257 9
    endloop
  endfacet
  facet normal 0.684327 -0.729176 0
    outer loop
      vertex 178.145 -5.42274 9
      vertex 177.687 -5.85257 0
      vertex 178.145 -5.42274 0
    endloop
  endfacet
  facet normal 0.587771 -0.809027 0
    outer loop
      vertex 177.179 -6.22164 0
      vertex 177.687 -5.85257 9
      vertex 177.179 -6.22164 9
    endloop
  endfacet
  facet normal 0.587771 -0.809027 0
    outer loop
      vertex 177.687 -5.85257 9
      vertex 177.179 -6.22164 0
      vertex 177.687 -5.85257 0
    endloop
  endfacet
  facet normal 0.770703 -0.637195 0
    outer loop
      vertex 178.145 -5.42274 9
      vertex 178.545 -4.93893 0
      vertex 178.545 -4.93893 9
    endloop
  endfacet
  facet normal 0.770703 -0.637195 0
    outer loop
      vertex 178.545 -4.93893 0
      vertex 178.145 -5.42274 9
      vertex 178.145 -5.42274 0
    endloop
  endfacet
  facet normal 0.368026 -0.929816 0
    outer loop
      vertex 176.045 -6.75528 0
      vertex 176.629 -6.52413 9
      vertex 176.045 -6.75528 9
    endloop
  endfacet
  facet normal 0.368026 -0.929816 0
    outer loop
      vertex 176.629 -6.52413 9
      vertex 176.045 -6.75528 0
      vertex 176.629 -6.52413 0
    endloop
  endfacet
  facet normal 0.481907 -0.876223 0
    outer loop
      vertex 176.629 -6.52413 0
      vertex 177.179 -6.22164 9
      vertex 176.629 -6.52413 9
    endloop
  endfacet
  facet normal 0.481907 -0.876223 0
    outer loop
      vertex 177.179 -6.22164 9
      vertex 176.629 -6.52413 0
      vertex 177.179 -6.22164 0
    endloop
  endfacet
  facet normal 0.248768 -0.968563 0
    outer loop
      vertex 175.437 -6.91144 0
      vertex 176.045 -6.75528 9
      vertex 175.437 -6.91144 9
    endloop
  endfacet
  facet normal 0.248768 -0.968563 0
    outer loop
      vertex 176.045 -6.75528 9
      vertex 175.437 -6.91144 0
      vertex 176.045 -6.75528 0
    endloop
  endfacet
  facet normal 0.905042 0.425321 0
    outer loop
      vertex 179.149 3.84062 9
      vertex 178.882 4.40877 0
      vertex 178.882 4.40877 9
    endloop
  endfacet
  facet normal 0.905042 0.425321 0
    outer loop
      vertex 178.882 4.40877 0
      vertex 179.149 3.84062 9
      vertex 179.149 3.84062 0
    endloop
  endfacet
  facet normal 0.843931 0.536451 0
    outer loop
      vertex 178.882 4.40877 9
      vertex 178.545 4.93893 0
      vertex 178.545 4.93893 9
    endloop
  endfacet
  facet normal 0.843931 0.536451 0
    outer loop
      vertex 178.545 4.93893 0
      vertex 178.882 4.40877 9
      vertex 178.882 4.40877 0
    endloop
  endfacet
  facet normal 0.248768 0.968563 -0
    outer loop
      vertex 176.045 6.75528 0
      vertex 175.437 6.91144 9
      vertex 176.045 6.75528 9
    endloop
  endfacet
  facet normal 0.248768 0.968563 0
    outer loop
      vertex 175.437 6.91144 9
      vertex 176.045 6.75528 0
      vertex 175.437 6.91144 0
    endloop
  endfacet
  facet normal 0.481907 0.876223 -0
    outer loop
      vertex 177.179 6.22164 0
      vertex 176.629 6.52413 9
      vertex 177.179 6.22164 9
    endloop
  endfacet
  facet normal 0.481907 0.876223 0
    outer loop
      vertex 176.629 6.52413 9
      vertex 177.179 6.22164 0
      vertex 176.629 6.52413 0
    endloop
  endfacet
  facet normal -0.684327 0.729176 0
    outer loop
      vertex -177.687 5.85257 0
      vertex -178.145 5.42274 9
      vertex -177.687 5.85257 9
    endloop
  endfacet
  facet normal -0.684327 0.729176 0
    outer loop
      vertex -178.145 5.42274 9
      vertex -177.687 5.85257 0
      vertex -178.145 5.42274 0
    endloop
  endfacet
  facet normal -0.368026 0.929816 0
    outer loop
      vertex -176.045 6.75528 0
      vertex -176.629 6.52413 9
      vertex -176.045 6.75528 9
    endloop
  endfacet
  facet normal -0.368026 0.929816 0
    outer loop
      vertex -176.629 6.52413 9
      vertex -176.045 6.75528 0
      vertex -176.629 6.52413 0
    endloop
  endfacet
  facet normal -0.951072 0.30897 0
    outer loop
      vertex -179.343 3.24345 0
      vertex -179.149 3.84062 9
      vertex -179.149 3.84062 0
    endloop
  endfacet
  facet normal -0.951072 0.30897 0
    outer loop
      vertex -179.149 3.84062 9
      vertex -179.343 3.24345 0
      vertex -179.343 3.24345 9
    endloop
  endfacet
  facet normal -0.125313 -0.992117 0
    outer loop
      vertex -175.437 -6.91144 0
      vertex -174.814 -6.99013 9
      vertex -175.437 -6.91144 9
    endloop
  endfacet
  facet normal -0.125313 -0.992117 -0
    outer loop
      vertex -174.814 -6.99013 9
      vertex -175.437 -6.91144 0
      vertex -174.814 -6.99013 0
    endloop
  endfacet
  facet normal 0.998069 0.0621135 0
    outer loop
      vertex 179.5 2 9
      vertex 179.461 2.62667 0
      vertex 179.461 2.62667 9
    endloop
  endfacet
  facet normal 0.998069 0.0621135 0
    outer loop
      vertex 179.461 2.62667 0
      vertex 179.5 2 9
      vertex 179.5 2 0
    endloop
  endfacet
  facet normal 0.587771 0.809027 -0
    outer loop
      vertex 177.687 5.85257 0
      vertex 177.179 6.22164 9
      vertex 177.687 5.85257 9
    endloop
  endfacet
  facet normal 0.587771 0.809027 0
    outer loop
      vertex 177.179 6.22164 9
      vertex 177.687 5.85257 0
      vertex 177.179 6.22164 0
    endloop
  endfacet
  facet normal -0.770703 0.637195 0
    outer loop
      vertex -178.545 4.93893 0
      vertex -178.145 5.42274 9
      vertex -178.145 5.42274 0
    endloop
  endfacet
  facet normal -0.770703 0.637195 0
    outer loop
      vertex -178.145 5.42274 9
      vertex -178.545 4.93893 0
      vertex -178.545 4.93893 9
    endloop
  endfacet
  facet normal -0.248768 0.968563 0
    outer loop
      vertex -175.437 6.91144 0
      vertex -176.045 6.75528 9
      vertex -175.437 6.91144 9
    endloop
  endfacet
  facet normal -0.248768 0.968563 0
    outer loop
      vertex -176.045 6.75528 9
      vertex -175.437 6.91144 0
      vertex -176.045 6.75528 0
    endloop
  endfacet
  facet normal -0.998069 0.0621135 0
    outer loop
      vertex -179.5 2 0
      vertex -179.461 2.62667 9
      vertex -179.461 2.62667 0
    endloop
  endfacet
  facet normal -0.998069 0.0621135 0
    outer loop
      vertex -179.461 2.62667 9
      vertex -179.5 2 0
      vertex -179.5 2 9
    endloop
  endfacet
  facet normal -0.982187 0.187908 0
    outer loop
      vertex -179.461 2.62667 0
      vertex -179.343 3.24345 9
      vertex -179.343 3.24345 0
    endloop
  endfacet
  facet normal -0.982187 0.187908 0
    outer loop
      vertex -179.343 3.24345 9
      vertex -179.461 2.62667 0
      vertex -179.461 2.62667 9
    endloop
  endfacet
  facet normal -0.587771 0.809027 0
    outer loop
      vertex -177.179 6.22164 0
      vertex -177.687 5.85257 9
      vertex -177.179 6.22164 9
    endloop
  endfacet
  facet normal -0.587771 0.809027 0
    outer loop
      vertex -177.687 5.85257 9
      vertex -177.179 6.22164 0
      vertex -177.687 5.85257 0
    endloop
  endfacet
  facet normal -0.481907 0.876223 0
    outer loop
      vertex -176.629 6.52413 0
      vertex -177.179 6.22164 9
      vertex -176.629 6.52413 9
    endloop
  endfacet
  facet normal -0.481907 0.876223 0
    outer loop
      vertex -177.179 6.22164 9
      vertex -176.629 6.52413 0
      vertex -177.179 6.22164 0
    endloop
  endfacet
  facet normal -0.843931 0.536451 0
    outer loop
      vertex -178.882 4.40877 0
      vertex -178.545 4.93893 9
      vertex -178.545 4.93893 0
    endloop
  endfacet
  facet normal -0.843931 0.536451 0
    outer loop
      vertex -178.545 4.93893 9
      vertex -178.882 4.40877 0
      vertex -178.882 4.40877 9
    endloop
  endfacet
endsolid OpenSCAD_Model
