  0
SECTION
  2
BLOCKS
  0
ENDSEC
  0
SECTION
  2
ENTITIES
  0
LINE
  8
0
 10
1.31166
 20
89.124
 11
2.16312
 21
89.3426
  0
LINE
  8
0
 10
2.16312
 20
89.3426
 11
2.98045
 21
89.6662
  0
LINE
  8
0
 10
2.98045
 20
89.6662
 11
3.75078
 21
90.0897
  0
LINE
  8
0
 10
3.75078
 20
90.0897
 11
4.46196
 21
90.6064
  0
LINE
  8
0
 10
4.46196
 20
90.6064
 11
5.10277
 21
91.2082
  0
LINE
  8
0
 10
5.10277
 20
91.2082
 11
5.66312
 21
91.8855
  0
LINE
  8
0
 10
5.66312
 20
91.8855
 11
6.13414
 21
92.6277
  0
LINE
  8
0
 10
6.13414
 20
92.6277
 11
6.50842
 21
93.4231
  0
LINE
  8
0
 10
6.50842
 20
93.4231
 11
6.78008
 21
94.2592
  0
LINE
  8
0
 10
6.78008
 20
94.2592
 11
6.94479
 21
95.1227
  0
LINE
  8
0
 10
6.94479
 20
95.1227
 11
7
 21
96
  0
LINE
  8
0
 10
7
 20
96
 11
6.94479
 21
96.8773
  0
LINE
  8
0
 10
6.94479
 20
96.8773
 11
6.78008
 21
97.7408
  0
LINE
  8
0
 10
6.78008
 20
97.7408
 11
6.50842
 21
98.5769
  0
LINE
  8
0
 10
6.50842
 20
98.5769
 11
6.13414
 21
99.3723
  0
LINE
  8
0
 10
6.13414
 20
99.3723
 11
5.66312
 21
100.114
  0
LINE
  8
0
 10
5.66312
 20
100.114
 11
5.10277
 21
100.792
  0
LINE
  8
0
 10
5.10277
 20
100.792
 11
4.46196
 21
101.394
  0
LINE
  8
0
 10
4.46196
 20
101.394
 11
3.75078
 21
101.91
  0
LINE
  8
0
 10
3.75078
 20
101.91
 11
2.98045
 21
102.334
  0
LINE
  8
0
 10
2.98045
 20
102.334
 11
2.16312
 21
102.657
  0
LINE
  8
0
 10
2.16312
 20
102.657
 11
1.31166
 21
102.876
  0
LINE
  8
0
 10
1.31166
 20
102.876
 11
0.439529
 21
102.986
  0
LINE
  8
0
 10
0.439529
 20
102.986
 11
-0.439529
 21
102.986
  0
LINE
  8
0
 10
-0.439529
 20
102.986
 11
-1.31166
 21
102.876
  0
LINE
  8
0
 10
-1.31166
 20
102.876
 11
-2.16312
 21
102.657
  0
LINE
  8
0
 10
-2.16312
 20
102.657
 11
-2.98045
 21
102.334
  0
LINE
  8
0
 10
-2.98045
 20
102.334
 11
-3.75078
 21
101.91
  0
LINE
  8
0
 10
-3.75078
 20
101.91
 11
-4.46196
 21
101.394
  0
LINE
  8
0
 10
-4.46196
 20
101.394
 11
-5.10277
 21
100.792
  0
LINE
  8
0
 10
-5.10277
 20
100.792
 11
-5.66312
 21
100.114
  0
LINE
  8
0
 10
-5.66312
 20
100.114
 11
-6.13414
 21
99.3723
  0
LINE
  8
0
 10
-6.13414
 20
99.3723
 11
-6.50842
 21
98.5769
  0
LINE
  8
0
 10
-6.50842
 20
98.5769
 11
-6.78008
 21
97.7408
  0
LINE
  8
0
 10
-6.78008
 20
97.7408
 11
-6.94479
 21
96.8773
  0
LINE
  8
0
 10
-6.94479
 20
96.8773
 11
-7
 21
96
  0
LINE
  8
0
 10
-7
 20
96
 11
-6.94479
 21
95.1227
  0
LINE
  8
0
 10
-6.94479
 20
95.1227
 11
-6.78008
 21
94.2592
  0
LINE
  8
0
 10
-6.78008
 20
94.2592
 11
-6.50842
 21
93.4231
  0
LINE
  8
0
 10
-6.50842
 20
93.4231
 11
-6.13414
 21
92.6277
  0
LINE
  8
0
 10
-6.13414
 20
92.6277
 11
-5.66312
 21
91.8855
  0
LINE
  8
0
 10
-5.66312
 20
91.8855
 11
-5.10277
 21
91.2082
  0
LINE
  8
0
 10
-5.10277
 20
91.2082
 11
-4.46196
 21
90.6064
  0
LINE
  8
0
 10
-4.46196
 20
90.6064
 11
-3.75078
 21
90.0897
  0
LINE
  8
0
 10
-3.75078
 20
90.0897
 11
-2.98045
 21
89.6662
  0
LINE
  8
0
 10
-2.98045
 20
89.6662
 11
-2.16312
 21
89.3426
  0
LINE
  8
0
 10
-2.16312
 20
89.3426
 11
-1.31166
 21
89.124
  0
LINE
  8
0
 10
-1.31166
 20
89.124
 11
-0.439529
 21
89.0138
  0
LINE
  8
0
 10
-0.439529
 20
89.0138
 11
0.439529
 21
89.0138
  0
LINE
  8
0
 10
0.439529
 20
89.0138
 11
1.31166
 21
89.124
  0
LINE
  8
0
 10
-0.0941772
 20
94.503
 11
-0.281067
 21
94.5266
  0
LINE
  8
0
 10
-0.281067
 20
94.5266
 11
-0.463516
 21
94.5734
  0
LINE
  8
0
 10
-0.463516
 20
94.5734
 11
-0.638657
 21
94.6428
  0
LINE
  8
0
 10
-0.638657
 20
94.6428
 11
-0.803726
 21
94.7335
  0
LINE
  8
0
 10
-0.803726
 20
94.7335
 11
-0.956131
 21
94.8442
  0
LINE
  8
0
 10
-0.956131
 20
94.8442
 11
-1.09344
 21
94.9732
  0
LINE
  8
0
 10
-1.09344
 20
94.9732
 11
-1.21352
 21
95.1183
  0
LINE
  8
0
 10
-1.21352
 20
95.1183
 11
-1.31445
 21
95.2774
  0
LINE
  8
0
 10
-1.31445
 20
95.2774
 11
-1.39465
 21
95.4478
  0
LINE
  8
0
 10
-1.39465
 20
95.4478
 11
-1.45287
 21
95.627
  0
LINE
  8
0
 10
-1.45287
 20
95.627
 11
-1.48816
 21
95.812
  0
LINE
  8
0
 10
-1.48816
 20
95.812
 11
-1.5
 21
96
  0
LINE
  8
0
 10
-1.5
 20
96
 11
-1.48816
 21
96.188
  0
LINE
  8
0
 10
-1.48816
 20
96.188
 11
-1.45287
 21
96.373
  0
LINE
  8
0
 10
-1.45287
 20
96.373
 11
-1.39465
 21
96.5522
  0
LINE
  8
0
 10
-1.39465
 20
96.5522
 11
-1.31445
 21
96.7226
  0
LINE
  8
0
 10
-1.31445
 20
96.7226
 11
-1.21352
 21
96.8817
  0
LINE
  8
0
 10
-1.21352
 20
96.8817
 11
-1.09344
 21
97.0268
  0
LINE
  8
0
 10
-1.09344
 20
97.0268
 11
-0.956131
 21
97.1558
  0
LINE
  8
0
 10
-0.956131
 20
97.1558
 11
-0.803726
 21
97.2665
  0
LINE
  8
0
 10
-0.803726
 20
97.2665
 11
-0.638657
 21
97.3572
  0
LINE
  8
0
 10
-0.638657
 20
97.3572
 11
-0.463516
 21
97.4266
  0
LINE
  8
0
 10
-0.463516
 20
97.4266
 11
-0.281067
 21
97.4734
  0
LINE
  8
0
 10
-0.281067
 20
97.4734
 11
-0.0941772
 21
97.497
  0
LINE
  8
0
 10
-0.0941772
 20
97.497
 11
0.0941772
 21
97.497
  0
LINE
  8
0
 10
0.0941772
 20
97.497
 11
0.281067
 21
97.4734
  0
LINE
  8
0
 10
0.281067
 20
97.4734
 11
0.463516
 21
97.4266
  0
LINE
  8
0
 10
0.463516
 20
97.4266
 11
0.638657
 21
97.3572
  0
LINE
  8
0
 10
0.638657
 20
97.3572
 11
0.803726
 21
97.2665
  0
LINE
  8
0
 10
0.803726
 20
97.2665
 11
0.956131
 21
97.1558
  0
LINE
  8
0
 10
0.956131
 20
97.1558
 11
1.09344
 21
97.0268
  0
LINE
  8
0
 10
1.09344
 20
97.0268
 11
1.21352
 21
96.8817
  0
LINE
  8
0
 10
1.21352
 20
96.8817
 11
1.31445
 21
96.7226
  0
LINE
  8
0
 10
1.31445
 20
96.7226
 11
1.39465
 21
96.5522
  0
LINE
  8
0
 10
1.39465
 20
96.5522
 11
1.45287
 21
96.373
  0
LINE
  8
0
 10
1.45287
 20
96.373
 11
1.48816
 21
96.188
  0
LINE
  8
0
 10
1.48816
 20
96.188
 11
1.5
 21
96
  0
LINE
  8
0
 10
1.5
 20
96
 11
1.48816
 21
95.812
  0
LINE
  8
0
 10
1.48816
 20
95.812
 11
1.45287
 21
95.627
  0
LINE
  8
0
 10
1.45287
 20
95.627
 11
1.39465
 21
95.4478
  0
LINE
  8
0
 10
1.39465
 20
95.4478
 11
1.31445
 21
95.2774
  0
LINE
  8
0
 10
1.31445
 20
95.2774
 11
1.21352
 21
95.1183
  0
LINE
  8
0
 10
1.21352
 20
95.1183
 11
1.09344
 21
94.9732
  0
LINE
  8
0
 10
1.09344
 20
94.9732
 11
0.956131
 21
94.8442
  0
LINE
  8
0
 10
0.956131
 20
94.8442
 11
0.803726
 21
94.7335
  0
LINE
  8
0
 10
0.803726
 20
94.7335
 11
0.638657
 21
94.6428
  0
LINE
  8
0
 10
0.638657
 20
94.6428
 11
0.463516
 21
94.5734
  0
LINE
  8
0
 10
0.463516
 20
94.5734
 11
0.281067
 21
94.5266
  0
LINE
  8
0
 10
0.281067
 20
94.5266
 11
0.0941772
 21
94.503
  0
LINE
  8
0
 10
0.0941772
 20
94.503
 11
-0.0941772
 21
94.503
  0
LINE
  8
0
 10
1.31166
 20
65.124
 11
2.16312
 21
65.3426
  0
LINE
  8
0
 10
2.16312
 20
65.3426
 11
2.98045
 21
65.6662
  0
LINE
  8
0
 10
2.98045
 20
65.6662
 11
3.75078
 21
66.0897
  0
LINE
  8
0
 10
3.75078
 20
66.0897
 11
4.46196
 21
66.6064
  0
LINE
  8
0
 10
4.46196
 20
66.6064
 11
5.10277
 21
67.2082
  0
LINE
  8
0
 10
5.10277
 20
67.2082
 11
5.66312
 21
67.8855
  0
LINE
  8
0
 10
5.66312
 20
67.8855
 11
6.13414
 21
68.6277
  0
LINE
  8
0
 10
6.13414
 20
68.6277
 11
6.50842
 21
69.4231
  0
LINE
  8
0
 10
6.50842
 20
69.4231
 11
6.78008
 21
70.2592
  0
LINE
  8
0
 10
6.78008
 20
70.2592
 11
6.94479
 21
71.1227
  0
LINE
  8
0
 10
6.94479
 20
71.1227
 11
7
 21
72
  0
LINE
  8
0
 10
7
 20
72
 11
6.94479
 21
72.8773
  0
LINE
  8
0
 10
6.94479
 20
72.8773
 11
6.78008
 21
73.7408
  0
LINE
  8
0
 10
6.78008
 20
73.7408
 11
6.50842
 21
74.5769
  0
LINE
  8
0
 10
6.50842
 20
74.5769
 11
6.13414
 21
75.3723
  0
LINE
  8
0
 10
6.13414
 20
75.3723
 11
5.66312
 21
76.1145
  0
LINE
  8
0
 10
5.66312
 20
76.1145
 11
5.10277
 21
76.7918
  0
LINE
  8
0
 10
5.10277
 20
76.7918
 11
4.46196
 21
77.3936
  0
LINE
  8
0
 10
4.46196
 20
77.3936
 11
3.75078
 21
77.9103
  0
LINE
  8
0
 10
3.75078
 20
77.9103
 11
2.98045
 21
78.3338
  0
LINE
  8
0
 10
2.98045
 20
78.3338
 11
2.16312
 21
78.6574
  0
LINE
  8
0
 10
2.16312
 20
78.6574
 11
1.31166
 21
78.876
  0
LINE
  8
0
 10
1.31166
 20
78.876
 11
0.439529
 21
78.9862
  0
LINE
  8
0
 10
0.439529
 20
78.9862
 11
-0.439529
 21
78.9862
  0
LINE
  8
0
 10
-0.439529
 20
78.9862
 11
-1.31166
 21
78.876
  0
LINE
  8
0
 10
-1.31166
 20
78.876
 11
-2.16312
 21
78.6574
  0
LINE
  8
0
 10
-2.16312
 20
78.6574
 11
-2.98045
 21
78.3338
  0
LINE
  8
0
 10
-2.98045
 20
78.3338
 11
-3.75078
 21
77.9103
  0
LINE
  8
0
 10
-3.75078
 20
77.9103
 11
-4.46196
 21
77.3936
  0
LINE
  8
0
 10
-4.46196
 20
77.3936
 11
-5.10277
 21
76.7918
  0
LINE
  8
0
 10
-5.10277
 20
76.7918
 11
-5.66312
 21
76.1145
  0
LINE
  8
0
 10
-5.66312
 20
76.1145
 11
-6.13414
 21
75.3723
  0
LINE
  8
0
 10
-6.13414
 20
75.3723
 11
-6.50842
 21
74.5769
  0
LINE
  8
0
 10
-6.50842
 20
74.5769
 11
-6.78008
 21
73.7408
  0
LINE
  8
0
 10
-6.78008
 20
73.7408
 11
-6.94479
 21
72.8773
  0
LINE
  8
0
 10
-6.94479
 20
72.8773
 11
-7
 21
72
  0
LINE
  8
0
 10
-7
 20
72
 11
-6.94479
 21
71.1227
  0
LINE
  8
0
 10
-6.94479
 20
71.1227
 11
-6.78008
 21
70.2592
  0
LINE
  8
0
 10
-6.78008
 20
70.2592
 11
-6.50842
 21
69.4231
  0
LINE
  8
0
 10
-6.50842
 20
69.4231
 11
-6.13414
 21
68.6277
  0
LINE
  8
0
 10
-6.13414
 20
68.6277
 11
-5.66312
 21
67.8855
  0
LINE
  8
0
 10
-5.66312
 20
67.8855
 11
-5.10277
 21
67.2082
  0
LINE
  8
0
 10
-5.10277
 20
67.2082
 11
-4.46196
 21
66.6064
  0
LINE
  8
0
 10
-4.46196
 20
66.6064
 11
-3.75078
 21
66.0897
  0
LINE
  8
0
 10
-3.75078
 20
66.0897
 11
-2.98045
 21
65.6662
  0
LINE
  8
0
 10
-2.98045
 20
65.6662
 11
-2.16312
 21
65.3426
  0
LINE
  8
0
 10
-2.16312
 20
65.3426
 11
-1.31166
 21
65.124
  0
LINE
  8
0
 10
-1.31166
 20
65.124
 11
-0.439529
 21
65.0138
  0
LINE
  8
0
 10
-0.439529
 20
65.0138
 11
0.439529
 21
65.0138
  0
LINE
  8
0
 10
0.439529
 20
65.0138
 11
1.31166
 21
65.124
  0
LINE
  8
0
 10
-0.0941772
 20
70.503
 11
-0.281067
 21
70.5266
  0
LINE
  8
0
 10
-0.281067
 20
70.5266
 11
-0.463516
 21
70.5734
  0
LINE
  8
0
 10
-0.463516
 20
70.5734
 11
-0.638657
 21
70.6428
  0
LINE
  8
0
 10
-0.638657
 20
70.6428
 11
-0.803726
 21
70.7335
  0
LINE
  8
0
 10
-0.803726
 20
70.7335
 11
-0.956131
 21
70.8442
  0
LINE
  8
0
 10
-0.956131
 20
70.8442
 11
-1.09344
 21
70.9732
  0
LINE
  8
0
 10
-1.09344
 20
70.9732
 11
-1.21352
 21
71.1183
  0
LINE
  8
0
 10
-1.21352
 20
71.1183
 11
-1.31445
 21
71.2774
  0
LINE
  8
0
 10
-1.31445
 20
71.2774
 11
-1.39465
 21
71.4478
  0
LINE
  8
0
 10
-1.39465
 20
71.4478
 11
-1.45287
 21
71.627
  0
LINE
  8
0
 10
-1.45287
 20
71.627
 11
-1.48816
 21
71.812
  0
LINE
  8
0
 10
-1.48816
 20
71.812
 11
-1.5
 21
72
  0
LINE
  8
0
 10
-1.5
 20
72
 11
-1.48816
 21
72.188
  0
LINE
  8
0
 10
-1.48816
 20
72.188
 11
-1.45287
 21
72.373
  0
LINE
  8
0
 10
-1.45287
 20
72.373
 11
-1.39465
 21
72.5522
  0
LINE
  8
0
 10
-1.39465
 20
72.5522
 11
-1.31445
 21
72.7226
  0
LINE
  8
0
 10
-1.31445
 20
72.7226
 11
-1.21352
 21
72.8817
  0
LINE
  8
0
 10
-1.21352
 20
72.8817
 11
-1.09344
 21
73.0268
  0
LINE
  8
0
 10
-1.09344
 20
73.0268
 11
-0.956131
 21
73.1558
  0
LINE
  8
0
 10
-0.956131
 20
73.1558
 11
-0.803726
 21
73.2665
  0
LINE
  8
0
 10
-0.803726
 20
73.2665
 11
-0.638657
 21
73.3572
  0
LINE
  8
0
 10
-0.638657
 20
73.3572
 11
-0.463516
 21
73.4266
  0
LINE
  8
0
 10
-0.463516
 20
73.4266
 11
-0.281067
 21
73.4734
  0
LINE
  8
0
 10
-0.281067
 20
73.4734
 11
-0.0941772
 21
73.497
  0
LINE
  8
0
 10
-0.0941772
 20
73.497
 11
0.0941772
 21
73.497
  0
LINE
  8
0
 10
0.0941772
 20
73.497
 11
0.281067
 21
73.4734
  0
LINE
  8
0
 10
0.281067
 20
73.4734
 11
0.463516
 21
73.4266
  0
LINE
  8
0
 10
0.463516
 20
73.4266
 11
0.638657
 21
73.3572
  0
LINE
  8
0
 10
0.638657
 20
73.3572
 11
0.803726
 21
73.2665
  0
LINE
  8
0
 10
0.803726
 20
73.2665
 11
0.956131
 21
73.1558
  0
LINE
  8
0
 10
0.956131
 20
73.1558
 11
1.09344
 21
73.0268
  0
LINE
  8
0
 10
1.09344
 20
73.0268
 11
1.21352
 21
72.8817
  0
LINE
  8
0
 10
1.21352
 20
72.8817
 11
1.31445
 21
72.7226
  0
LINE
  8
0
 10
1.31445
 20
72.7226
 11
1.39465
 21
72.5522
  0
LINE
  8
0
 10
1.39465
 20
72.5522
 11
1.45287
 21
72.373
  0
LINE
  8
0
 10
1.45287
 20
72.373
 11
1.48816
 21
72.188
  0
LINE
  8
0
 10
1.48816
 20
72.188
 11
1.5
 21
72
  0
LINE
  8
0
 10
1.5
 20
72
 11
1.48816
 21
71.812
  0
LINE
  8
0
 10
1.48816
 20
71.812
 11
1.45287
 21
71.627
  0
LINE
  8
0
 10
1.45287
 20
71.627
 11
1.39465
 21
71.4478
  0
LINE
  8
0
 10
1.39465
 20
71.4478
 11
1.31445
 21
71.2774
  0
LINE
  8
0
 10
1.31445
 20
71.2774
 11
1.21352
 21
71.1183
  0
LINE
  8
0
 10
1.21352
 20
71.1183
 11
1.09344
 21
70.9732
  0
LINE
  8
0
 10
1.09344
 20
70.9732
 11
0.956131
 21
70.8442
  0
LINE
  8
0
 10
0.956131
 20
70.8442
 11
0.803726
 21
70.7335
  0
LINE
  8
0
 10
0.803726
 20
70.7335
 11
0.638657
 21
70.6428
  0
LINE
  8
0
 10
0.638657
 20
70.6428
 11
0.463516
 21
70.5734
  0
LINE
  8
0
 10
0.463516
 20
70.5734
 11
0.281067
 21
70.5266
  0
LINE
  8
0
 10
0.281067
 20
70.5266
 11
0.0941772
 21
70.503
  0
LINE
  8
0
 10
0.0941772
 20
70.503
 11
-0.0941772
 21
70.503
  0
LINE
  8
0
 10
1.31166
 20
41.124
 11
2.16312
 21
41.3426
  0
LINE
  8
0
 10
2.16312
 20
41.3426
 11
2.98045
 21
41.6662
  0
LINE
  8
0
 10
2.98045
 20
41.6662
 11
3.75078
 21
42.0897
  0
LINE
  8
0
 10
3.75078
 20
42.0897
 11
4.46196
 21
42.6064
  0
LINE
  8
0
 10
4.46196
 20
42.6064
 11
5.10277
 21
43.2082
  0
LINE
  8
0
 10
5.10277
 20
43.2082
 11
5.66312
 21
43.8855
  0
LINE
  8
0
 10
5.66312
 20
43.8855
 11
6.13414
 21
44.6277
  0
LINE
  8
0
 10
6.13414
 20
44.6277
 11
6.50842
 21
45.4231
  0
LINE
  8
0
 10
6.50842
 20
45.4231
 11
6.78008
 21
46.2592
  0
LINE
  8
0
 10
6.78008
 20
46.2592
 11
6.94479
 21
47.1227
  0
LINE
  8
0
 10
6.94479
 20
47.1227
 11
7
 21
48
  0
LINE
  8
0
 10
7
 20
48
 11
6.94479
 21
48.8773
  0
LINE
  8
0
 10
6.94479
 20
48.8773
 11
6.78008
 21
49.7408
  0
LINE
  8
0
 10
6.78008
 20
49.7408
 11
6.50842
 21
50.5769
  0
LINE
  8
0
 10
6.50842
 20
50.5769
 11
6.13414
 21
51.3723
  0
LINE
  8
0
 10
6.13414
 20
51.3723
 11
5.66312
 21
52.1145
  0
LINE
  8
0
 10
5.66312
 20
52.1145
 11
5.10277
 21
52.7918
  0
LINE
  8
0
 10
5.10277
 20
52.7918
 11
4.46196
 21
53.3936
  0
LINE
  8
0
 10
4.46196
 20
53.3936
 11
3.75078
 21
53.9103
  0
LINE
  8
0
 10
3.75078
 20
53.9103
 11
2.98045
 21
54.3338
  0
LINE
  8
0
 10
2.98045
 20
54.3338
 11
2.16312
 21
54.6574
  0
LINE
  8
0
 10
2.16312
 20
54.6574
 11
1.31166
 21
54.876
  0
LINE
  8
0
 10
1.31166
 20
54.876
 11
0.439529
 21
54.9862
  0
LINE
  8
0
 10
0.439529
 20
54.9862
 11
-0.439529
 21
54.9862
  0
LINE
  8
0
 10
-0.439529
 20
54.9862
 11
-1.31166
 21
54.876
  0
LINE
  8
0
 10
-1.31166
 20
54.876
 11
-2.16312
 21
54.6574
  0
LINE
  8
0
 10
-2.16312
 20
54.6574
 11
-2.98045
 21
54.3338
  0
LINE
  8
0
 10
-2.98045
 20
54.3338
 11
-3.75078
 21
53.9103
  0
LINE
  8
0
 10
-3.75078
 20
53.9103
 11
-4.46196
 21
53.3936
  0
LINE
  8
0
 10
-4.46196
 20
53.3936
 11
-5.10277
 21
52.7918
  0
LINE
  8
0
 10
-5.10277
 20
52.7918
 11
-5.66312
 21
52.1145
  0
LINE
  8
0
 10
-5.66312
 20
52.1145
 11
-6.13414
 21
51.3723
  0
LINE
  8
0
 10
-6.13414
 20
51.3723
 11
-6.50842
 21
50.5769
  0
LINE
  8
0
 10
-6.50842
 20
50.5769
 11
-6.78008
 21
49.7408
  0
LINE
  8
0
 10
-6.78008
 20
49.7408
 11
-6.94479
 21
48.8773
  0
LINE
  8
0
 10
-6.94479
 20
48.8773
 11
-7
 21
48
  0
LINE
  8
0
 10
-7
 20
48
 11
-6.94479
 21
47.1227
  0
LINE
  8
0
 10
-6.94479
 20
47.1227
 11
-6.78008
 21
46.2592
  0
LINE
  8
0
 10
-6.78008
 20
46.2592
 11
-6.50842
 21
45.4231
  0
LINE
  8
0
 10
-6.50842
 20
45.4231
 11
-6.13414
 21
44.6277
  0
LINE
  8
0
 10
-6.13414
 20
44.6277
 11
-5.66312
 21
43.8855
  0
LINE
  8
0
 10
-5.66312
 20
43.8855
 11
-5.10277
 21
43.2082
  0
LINE
  8
0
 10
-5.10277
 20
43.2082
 11
-4.46196
 21
42.6064
  0
LINE
  8
0
 10
-4.46196
 20
42.6064
 11
-3.75078
 21
42.0897
  0
LINE
  8
0
 10
-3.75078
 20
42.0897
 11
-2.98045
 21
41.6662
  0
LINE
  8
0
 10
-2.98045
 20
41.6662
 11
-2.16312
 21
41.3426
  0
LINE
  8
0
 10
-2.16312
 20
41.3426
 11
-1.31166
 21
41.124
  0
LINE
  8
0
 10
-1.31166
 20
41.124
 11
-0.439529
 21
41.0138
  0
LINE
  8
0
 10
-0.439529
 20
41.0138
 11
0.439529
 21
41.0138
  0
LINE
  8
0
 10
0.439529
 20
41.0138
 11
1.31166
 21
41.124
  0
LINE
  8
0
 10
-0.0941772
 20
46.503
 11
-0.281067
 21
46.5266
  0
LINE
  8
0
 10
-0.281067
 20
46.5266
 11
-0.463516
 21
46.5734
  0
LINE
  8
0
 10
-0.463516
 20
46.5734
 11
-0.638657
 21
46.6428
  0
LINE
  8
0
 10
-0.638657
 20
46.6428
 11
-0.803726
 21
46.7335
  0
LINE
  8
0
 10
-0.803726
 20
46.7335
 11
-0.956131
 21
46.8442
  0
LINE
  8
0
 10
-0.956131
 20
46.8442
 11
-1.09344
 21
46.9732
  0
LINE
  8
0
 10
-1.09344
 20
46.9732
 11
-1.21352
 21
47.1183
  0
LINE
  8
0
 10
-1.21352
 20
47.1183
 11
-1.31445
 21
47.2774
  0
LINE
  8
0
 10
-1.31445
 20
47.2774
 11
-1.39465
 21
47.4478
  0
LINE
  8
0
 10
-1.39465
 20
47.4478
 11
-1.45287
 21
47.627
  0
LINE
  8
0
 10
-1.45287
 20
47.627
 11
-1.48816
 21
47.812
  0
LINE
  8
0
 10
-1.48816
 20
47.812
 11
-1.5
 21
48
  0
LINE
  8
0
 10
-1.5
 20
48
 11
-1.48816
 21
48.188
  0
LINE
  8
0
 10
-1.48816
 20
48.188
 11
-1.45287
 21
48.373
  0
LINE
  8
0
 10
-1.45287
 20
48.373
 11
-1.39465
 21
48.5522
  0
LINE
  8
0
 10
-1.39465
 20
48.5522
 11
-1.31445
 21
48.7226
  0
LINE
  8
0
 10
-1.31445
 20
48.7226
 11
-1.21352
 21
48.8817
  0
LINE
  8
0
 10
-1.21352
 20
48.8817
 11
-1.09344
 21
49.0268
  0
LINE
  8
0
 10
-1.09344
 20
49.0268
 11
-0.956131
 21
49.1558
  0
LINE
  8
0
 10
-0.956131
 20
49.1558
 11
-0.803726
 21
49.2665
  0
LINE
  8
0
 10
-0.803726
 20
49.2665
 11
-0.638657
 21
49.3572
  0
LINE
  8
0
 10
-0.638657
 20
49.3572
 11
-0.463516
 21
49.4266
  0
LINE
  8
0
 10
-0.463516
 20
49.4266
 11
-0.281067
 21
49.4734
  0
LINE
  8
0
 10
-0.281067
 20
49.4734
 11
-0.0941772
 21
49.497
  0
LINE
  8
0
 10
-0.0941772
 20
49.497
 11
0.0941772
 21
49.497
  0
LINE
  8
0
 10
0.0941772
 20
49.497
 11
0.281067
 21
49.4734
  0
LINE
  8
0
 10
0.281067
 20
49.4734
 11
0.463516
 21
49.4266
  0
LINE
  8
0
 10
0.463516
 20
49.4266
 11
0.638657
 21
49.3572
  0
LINE
  8
0
 10
0.638657
 20
49.3572
 11
0.803726
 21
49.2665
  0
LINE
  8
0
 10
0.803726
 20
49.2665
 11
0.956131
 21
49.1558
  0
LINE
  8
0
 10
0.956131
 20
49.1558
 11
1.09344
 21
49.0268
  0
LINE
  8
0
 10
1.09344
 20
49.0268
 11
1.21352
 21
48.8817
  0
LINE
  8
0
 10
1.21352
 20
48.8817
 11
1.31445
 21
48.7226
  0
LINE
  8
0
 10
1.31445
 20
48.7226
 11
1.39465
 21
48.5522
  0
LINE
  8
0
 10
1.39465
 20
48.5522
 11
1.45287
 21
48.373
  0
LINE
  8
0
 10
1.45287
 20
48.373
 11
1.48816
 21
48.188
  0
LINE
  8
0
 10
1.48816
 20
48.188
 11
1.5
 21
48
  0
LINE
  8
0
 10
1.5
 20
48
 11
1.48816
 21
47.812
  0
LINE
  8
0
 10
1.48816
 20
47.812
 11
1.45287
 21
47.627
  0
LINE
  8
0
 10
1.45287
 20
47.627
 11
1.39465
 21
47.4478
  0
LINE
  8
0
 10
1.39465
 20
47.4478
 11
1.31445
 21
47.2774
  0
LINE
  8
0
 10
1.31445
 20
47.2774
 11
1.21352
 21
47.1183
  0
LINE
  8
0
 10
1.21352
 20
47.1183
 11
1.09344
 21
46.9732
  0
LINE
  8
0
 10
1.09344
 20
46.9732
 11
0.956131
 21
46.8442
  0
LINE
  8
0
 10
0.956131
 20
46.8442
 11
0.803726
 21
46.7335
  0
LINE
  8
0
 10
0.803726
 20
46.7335
 11
0.638657
 21
46.6428
  0
LINE
  8
0
 10
0.638657
 20
46.6428
 11
0.463516
 21
46.5734
  0
LINE
  8
0
 10
0.463516
 20
46.5734
 11
0.281067
 21
46.5266
  0
LINE
  8
0
 10
0.281067
 20
46.5266
 11
0.0941772
 21
46.503
  0
LINE
  8
0
 10
0.0941772
 20
46.503
 11
-0.0941772
 21
46.503
  0
ENDSEC
  0
SECTION
  2
OBJECTS
  0
DICTIONARY
  0
ENDSEC
  0
EOF
