  0
SECTION
  2
BLOCKS
  0
ENDSEC
  0
SECTION
  2
ENTITIES
  0
LINE
  8
0
 10
152.937
 20
-36.9114
 11
153.545
 21
-36.7553
  0
LINE
  8
0
 10
153.545
 20
-36.7553
 11
154.129
 21
-36.5241
  0
LINE
  8
0
 10
154.129
 20
-36.5241
 11
154.679
 21
-36.2216
  0
LINE
  8
0
 10
154.679
 20
-36.2216
 11
155.187
 21
-35.8526
  0
LINE
  8
0
 10
155.187
 20
-35.8526
 11
155.645
 21
-35.4227
  0
LINE
  8
0
 10
155.645
 20
-35.4227
 11
156.045
 21
-34.9389
  0
LINE
  8
0
 10
156.045
 20
-34.9389
 11
156.382
 21
-34.4088
  0
LINE
  8
0
 10
156.382
 20
-34.4088
 11
156.649
 21
-33.8406
  0
LINE
  8
0
 10
156.649
 20
-33.8406
 11
156.843
 21
-33.2434
  0
LINE
  8
0
 10
156.843
 20
-33.2434
 11
156.961
 21
-32.6267
  0
LINE
  8
0
 10
156.961
 20
-32.6267
 11
157
 21
-32
  0
LINE
  8
0
 10
157
 20
-32
 11
157
 21
32
  0
LINE
  8
0
 10
157
 20
32
 11
156.961
 21
32.6267
  0
LINE
  8
0
 10
156.961
 20
32.6267
 11
156.843
 21
33.2434
  0
LINE
  8
0
 10
156.843
 20
33.2434
 11
156.649
 21
33.8406
  0
LINE
  8
0
 10
156.649
 20
33.8406
 11
156.382
 21
34.4088
  0
LINE
  8
0
 10
156.382
 20
34.4088
 11
156.045
 21
34.9389
  0
LINE
  8
0
 10
156.045
 20
34.9389
 11
155.645
 21
35.4227
  0
LINE
  8
0
 10
155.645
 20
35.4227
 11
155.187
 21
35.8526
  0
LINE
  8
0
 10
155.187
 20
35.8526
 11
154.679
 21
36.2216
  0
LINE
  8
0
 10
154.679
 20
36.2216
 11
154.129
 21
36.5241
  0
LINE
  8
0
 10
154.129
 20
36.5241
 11
153.545
 21
36.7553
  0
LINE
  8
0
 10
153.545
 20
36.7553
 11
152.937
 21
36.9114
  0
LINE
  8
0
 10
152.937
 20
36.9114
 11
152.314
 21
36.9901
  0
LINE
  8
0
 10
152.314
 20
36.9901
 11
-152.314
 21
36.9901
  0
LINE
  8
0
 10
-152.314
 20
36.9901
 11
-152.937
 21
36.9114
  0
LINE
  8
0
 10
-152.937
 20
36.9114
 11
-153.545
 21
36.7553
  0
LINE
  8
0
 10
-153.545
 20
36.7553
 11
-154.129
 21
36.5241
  0
LINE
  8
0
 10
-154.129
 20
36.5241
 11
-154.679
 21
36.2216
  0
LINE
  8
0
 10
-154.679
 20
36.2216
 11
-155.187
 21
35.8526
  0
LINE
  8
0
 10
-155.187
 20
35.8526
 11
-155.645
 21
35.4227
  0
LINE
  8
0
 10
-155.645
 20
35.4227
 11
-156.045
 21
34.9389
  0
LINE
  8
0
 10
-156.045
 20
34.9389
 11
-156.382
 21
34.4088
  0
LINE
  8
0
 10
-156.382
 20
34.4088
 11
-156.649
 21
33.8406
  0
LINE
  8
0
 10
-156.649
 20
33.8406
 11
-156.843
 21
33.2434
  0
LINE
  8
0
 10
-156.843
 20
33.2434
 11
-156.961
 21
32.6267
  0
LINE
  8
0
 10
-156.961
 20
32.6267
 11
-157
 21
32
  0
LINE
  8
0
 10
-157
 20
32
 11
-157
 21
-32
  0
LINE
  8
0
 10
-157
 20
-32
 11
-156.961
 21
-32.6267
  0
LINE
  8
0
 10
-156.961
 20
-32.6267
 11
-156.843
 21
-33.2434
  0
LINE
  8
0
 10
-156.843
 20
-33.2434
 11
-156.649
 21
-33.8406
  0
LINE
  8
0
 10
-156.649
 20
-33.8406
 11
-156.382
 21
-34.4088
  0
LINE
  8
0
 10
-156.382
 20
-34.4088
 11
-156.045
 21
-34.9389
  0
LINE
  8
0
 10
-156.045
 20
-34.9389
 11
-155.645
 21
-35.4227
  0
LINE
  8
0
 10
-155.645
 20
-35.4227
 11
-155.187
 21
-35.8526
  0
LINE
  8
0
 10
-155.187
 20
-35.8526
 11
-154.679
 21
-36.2216
  0
LINE
  8
0
 10
-154.679
 20
-36.2216
 11
-154.129
 21
-36.5241
  0
LINE
  8
0
 10
-154.129
 20
-36.5241
 11
-153.545
 21
-36.7553
  0
LINE
  8
0
 10
-153.545
 20
-36.7553
 11
-152.937
 21
-36.9114
  0
LINE
  8
0
 10
-152.937
 20
-36.9114
 11
-152.314
 21
-36.9901
  0
LINE
  8
0
 10
-152.314
 20
-36.9901
 11
152.314
 21
-36.9901
  0
LINE
  8
0
 10
152.314
 20
-36.9901
 11
152.937
 21
-36.9114
  0
LINE
  8
0
 10
147.024
 20
30.376
 11
147.094
 21
30.7461
  0
LINE
  8
0
 10
147.094
 20
30.7461
 11
147.211
 21
31.1044
  0
LINE
  8
0
 10
147.211
 20
31.1044
 11
147.371
 21
31.4453
  0
LINE
  8
0
 10
147.371
 20
31.4453
 11
147.573
 21
31.7634
  0
LINE
  8
0
 10
147.573
 20
31.7634
 11
147.813
 21
32.0536
  0
LINE
  8
0
 10
147.813
 20
32.0536
 11
148.088
 21
32.3115
  0
LINE
  8
0
 10
148.088
 20
32.3115
 11
148.393
 21
32.533
  0
LINE
  8
0
 10
148.393
 20
32.533
 11
148.723
 21
32.7145
  0
LINE
  8
0
 10
148.723
 20
32.7145
 11
149.073
 21
32.8532
  0
LINE
  8
0
 10
149.073
 20
32.8532
 11
149.438
 21
32.9469
  0
LINE
  8
0
 10
149.438
 20
32.9469
 11
149.812
 21
32.9941
  0
LINE
  8
0
 10
149.812
 20
32.9941
 11
150.188
 21
32.9941
  0
LINE
  8
0
 10
150.188
 20
32.9941
 11
150.562
 21
32.9469
  0
LINE
  8
0
 10
150.562
 20
32.9469
 11
150.927
 21
32.8532
  0
LINE
  8
0
 10
150.927
 20
32.8532
 11
151.277
 21
32.7145
  0
LINE
  8
0
 10
151.277
 20
32.7145
 11
151.607
 21
32.533
  0
LINE
  8
0
 10
151.607
 20
32.533
 11
151.912
 21
32.3115
  0
LINE
  8
0
 10
151.912
 20
32.3115
 11
152.187
 21
32.0536
  0
LINE
  8
0
 10
152.187
 20
32.0536
 11
152.427
 21
31.7634
  0
LINE
  8
0
 10
152.427
 20
31.7634
 11
152.629
 21
31.4453
  0
LINE
  8
0
 10
152.629
 20
31.4453
 11
152.789
 21
31.1044
  0
LINE
  8
0
 10
152.789
 20
31.1044
 11
152.906
 21
30.7461
  0
LINE
  8
0
 10
152.906
 20
30.7461
 11
152.976
 21
30.376
  0
LINE
  8
0
 10
152.976
 20
30.376
 11
153
 21
30
  0
LINE
  8
0
 10
153
 20
30
 11
152.976
 21
29.624
  0
LINE
  8
0
 10
152.976
 20
29.624
 11
152.906
 21
29.2539
  0
LINE
  8
0
 10
152.906
 20
29.2539
 11
152.789
 21
28.8956
  0
LINE
  8
0
 10
152.789
 20
28.8956
 11
152.629
 21
28.5547
  0
LINE
  8
0
 10
152.629
 20
28.5547
 11
152.427
 21
28.2366
  0
LINE
  8
0
 10
152.427
 20
28.2366
 11
152.187
 21
27.9464
  0
LINE
  8
0
 10
152.187
 20
27.9464
 11
151.912
 21
27.6884
  0
LINE
  8
0
 10
151.912
 20
27.6884
 11
151.607
 21
27.467
  0
LINE
  8
0
 10
151.607
 20
27.467
 11
151.277
 21
27.2855
  0
LINE
  8
0
 10
151.277
 20
27.2855
 11
150.927
 21
27.1468
  0
LINE
  8
0
 10
150.927
 20
27.1468
 11
150.562
 21
27.0531
  0
LINE
  8
0
 10
150.562
 20
27.0531
 11
150.188
 21
27.0059
  0
LINE
  8
0
 10
150.188
 20
27.0059
 11
149.812
 21
27.0059
  0
LINE
  8
0
 10
149.812
 20
27.0059
 11
149.438
 21
27.0531
  0
LINE
  8
0
 10
149.438
 20
27.0531
 11
149.073
 21
27.1468
  0
LINE
  8
0
 10
149.073
 20
27.1468
 11
148.723
 21
27.2855
  0
LINE
  8
0
 10
148.723
 20
27.2855
 11
148.393
 21
27.467
  0
LINE
  8
0
 10
148.393
 20
27.467
 11
148.088
 21
27.6884
  0
LINE
  8
0
 10
148.088
 20
27.6884
 11
147.813
 21
27.9464
  0
LINE
  8
0
 10
147.813
 20
27.9464
 11
147.573
 21
28.2366
  0
LINE
  8
0
 10
147.573
 20
28.2366
 11
147.371
 21
28.5547
  0
LINE
  8
0
 10
147.371
 20
28.5547
 11
147.211
 21
28.8956
  0
LINE
  8
0
 10
147.211
 20
28.8956
 11
147.094
 21
29.2539
  0
LINE
  8
0
 10
147.094
 20
29.2539
 11
147.024
 21
29.624
  0
LINE
  8
0
 10
147.024
 20
29.624
 11
147
 21
30
  0
LINE
  8
0
 10
147
 20
30
 11
147.024
 21
30.376
  0
LINE
  8
0
 10
-150.188
 20
-32.9941
 11
-150.562
 21
-32.9469
  0
LINE
  8
0
 10
-150.562
 20
-32.9469
 11
-150.927
 21
-32.8532
  0
LINE
  8
0
 10
-150.927
 20
-32.8532
 11
-151.277
 21
-32.7145
  0
LINE
  8
0
 10
-151.277
 20
-32.7145
 11
-151.607
 21
-32.533
  0
LINE
  8
0
 10
-151.607
 20
-32.533
 11
-151.912
 21
-32.3115
  0
LINE
  8
0
 10
-151.912
 20
-32.3115
 11
-152.187
 21
-32.0536
  0
LINE
  8
0
 10
-152.187
 20
-32.0536
 11
-152.427
 21
-31.7634
  0
LINE
  8
0
 10
-152.427
 20
-31.7634
 11
-152.629
 21
-31.4453
  0
LINE
  8
0
 10
-152.629
 20
-31.4453
 11
-152.789
 21
-31.1044
  0
LINE
  8
0
 10
-152.789
 20
-31.1044
 11
-152.906
 21
-30.7461
  0
LINE
  8
0
 10
-152.906
 20
-30.7461
 11
-152.976
 21
-30.376
  0
LINE
  8
0
 10
-152.976
 20
-30.376
 11
-153
 21
-30
  0
LINE
  8
0
 10
-153
 20
-30
 11
-152.976
 21
-29.624
  0
LINE
  8
0
 10
-152.976
 20
-29.624
 11
-152.906
 21
-29.2539
  0
LINE
  8
0
 10
-152.906
 20
-29.2539
 11
-152.789
 21
-28.8956
  0
LINE
  8
0
 10
-152.789
 20
-28.8956
 11
-152.629
 21
-28.5547
  0
LINE
  8
0
 10
-152.629
 20
-28.5547
 11
-152.427
 21
-28.2366
  0
LINE
  8
0
 10
-152.427
 20
-28.2366
 11
-152.187
 21
-27.9464
  0
LINE
  8
0
 10
-152.187
 20
-27.9464
 11
-151.912
 21
-27.6884
  0
LINE
  8
0
 10
-151.912
 20
-27.6884
 11
-151.607
 21
-27.467
  0
LINE
  8
0
 10
-151.607
 20
-27.467
 11
-151.277
 21
-27.2855
  0
LINE
  8
0
 10
-151.277
 20
-27.2855
 11
-150.927
 21
-27.1468
  0
LINE
  8
0
 10
-150.927
 20
-27.1468
 11
-150.562
 21
-27.0531
  0
LINE
  8
0
 10
-150.562
 20
-27.0531
 11
-150.188
 21
-27.0059
  0
LINE
  8
0
 10
-150.188
 20
-27.0059
 11
-149.812
 21
-27.0059
  0
LINE
  8
0
 10
-149.812
 20
-27.0059
 11
-149.438
 21
-27.0531
  0
LINE
  8
0
 10
-149.438
 20
-27.0531
 11
-149.073
 21
-27.1468
  0
LINE
  8
0
 10
-149.073
 20
-27.1468
 11
-148.723
 21
-27.2855
  0
LINE
  8
0
 10
-148.723
 20
-27.2855
 11
-148.393
 21
-27.467
  0
LINE
  8
0
 10
-148.393
 20
-27.467
 11
-148.088
 21
-27.6884
  0
LINE
  8
0
 10
-148.088
 20
-27.6884
 11
-147.813
 21
-27.9464
  0
LINE
  8
0
 10
-147.813
 20
-27.9464
 11
-147.573
 21
-28.2366
  0
LINE
  8
0
 10
-147.573
 20
-28.2366
 11
-147.371
 21
-28.5547
  0
LINE
  8
0
 10
-147.371
 20
-28.5547
 11
-147.211
 21
-28.8956
  0
LINE
  8
0
 10
-147.211
 20
-28.8956
 11
-147.094
 21
-29.2539
  0
LINE
  8
0
 10
-147.094
 20
-29.2539
 11
-147.024
 21
-29.624
  0
LINE
  8
0
 10
-147.024
 20
-29.624
 11
-147
 21
-30
  0
LINE
  8
0
 10
-147
 20
-30
 11
-147.024
 21
-30.376
  0
LINE
  8
0
 10
-147.024
 20
-30.376
 11
-147.094
 21
-30.7461
  0
LINE
  8
0
 10
-147.094
 20
-30.7461
 11
-147.211
 21
-31.1044
  0
LINE
  8
0
 10
-147.211
 20
-31.1044
 11
-147.371
 21
-31.4453
  0
LINE
  8
0
 10
-147.371
 20
-31.4453
 11
-147.573
 21
-31.7634
  0
LINE
  8
0
 10
-147.573
 20
-31.7634
 11
-147.813
 21
-32.0536
  0
LINE
  8
0
 10
-147.813
 20
-32.0536
 11
-148.088
 21
-32.3115
  0
LINE
  8
0
 10
-148.088
 20
-32.3115
 11
-148.393
 21
-32.533
  0
LINE
  8
0
 10
-148.393
 20
-32.533
 11
-148.723
 21
-32.7145
  0
LINE
  8
0
 10
-148.723
 20
-32.7145
 11
-149.073
 21
-32.8532
  0
LINE
  8
0
 10
-149.073
 20
-32.8532
 11
-149.438
 21
-32.9469
  0
LINE
  8
0
 10
-149.438
 20
-32.9469
 11
-149.812
 21
-32.9941
  0
LINE
  8
0
 10
-149.812
 20
-32.9941
 11
-150.188
 21
-32.9941
  0
LINE
  8
0
 10
149.812
 20
-32.9941
 11
149.438
 21
-32.9469
  0
LINE
  8
0
 10
149.438
 20
-32.9469
 11
149.073
 21
-32.8532
  0
LINE
  8
0
 10
149.073
 20
-32.8532
 11
148.723
 21
-32.7145
  0
LINE
  8
0
 10
148.723
 20
-32.7145
 11
148.393
 21
-32.533
  0
LINE
  8
0
 10
148.393
 20
-32.533
 11
148.088
 21
-32.3115
  0
LINE
  8
0
 10
148.088
 20
-32.3115
 11
147.813
 21
-32.0536
  0
LINE
  8
0
 10
147.813
 20
-32.0536
 11
147.573
 21
-31.7634
  0
LINE
  8
0
 10
147.573
 20
-31.7634
 11
147.371
 21
-31.4453
  0
LINE
  8
0
 10
147.371
 20
-31.4453
 11
147.211
 21
-31.1044
  0
LINE
  8
0
 10
147.211
 20
-31.1044
 11
147.094
 21
-30.7461
  0
LINE
  8
0
 10
147.094
 20
-30.7461
 11
147.024
 21
-30.376
  0
LINE
  8
0
 10
147.024
 20
-30.376
 11
147
 21
-30
  0
LINE
  8
0
 10
147
 20
-30
 11
147.024
 21
-29.624
  0
LINE
  8
0
 10
147.024
 20
-29.624
 11
147.094
 21
-29.2539
  0
LINE
  8
0
 10
147.094
 20
-29.2539
 11
147.211
 21
-28.8956
  0
LINE
  8
0
 10
147.211
 20
-28.8956
 11
147.371
 21
-28.5547
  0
LINE
  8
0
 10
147.371
 20
-28.5547
 11
147.573
 21
-28.2366
  0
LINE
  8
0
 10
147.573
 20
-28.2366
 11
147.813
 21
-27.9464
  0
LINE
  8
0
 10
147.813
 20
-27.9464
 11
148.088
 21
-27.6884
  0
LINE
  8
0
 10
148.088
 20
-27.6884
 11
148.393
 21
-27.467
  0
LINE
  8
0
 10
148.393
 20
-27.467
 11
148.723
 21
-27.2855
  0
LINE
  8
0
 10
148.723
 20
-27.2855
 11
149.073
 21
-27.1468
  0
LINE
  8
0
 10
149.073
 20
-27.1468
 11
149.438
 21
-27.0531
  0
LINE
  8
0
 10
149.438
 20
-27.0531
 11
149.812
 21
-27.0059
  0
LINE
  8
0
 10
149.812
 20
-27.0059
 11
150.188
 21
-27.0059
  0
LINE
  8
0
 10
150.188
 20
-27.0059
 11
150.562
 21
-27.0531
  0
LINE
  8
0
 10
150.562
 20
-27.0531
 11
150.927
 21
-27.1468
  0
LINE
  8
0
 10
150.927
 20
-27.1468
 11
151.277
 21
-27.2855
  0
LINE
  8
0
 10
151.277
 20
-27.2855
 11
151.607
 21
-27.467
  0
LINE
  8
0
 10
151.607
 20
-27.467
 11
151.912
 21
-27.6884
  0
LINE
  8
0
 10
151.912
 20
-27.6884
 11
152.187
 21
-27.9464
  0
LINE
  8
0
 10
152.187
 20
-27.9464
 11
152.427
 21
-28.2366
  0
LINE
  8
0
 10
152.427
 20
-28.2366
 11
152.629
 21
-28.5547
  0
LINE
  8
0
 10
152.629
 20
-28.5547
 11
152.789
 21
-28.8956
  0
LINE
  8
0
 10
152.789
 20
-28.8956
 11
152.906
 21
-29.2539
  0
LINE
  8
0
 10
152.906
 20
-29.2539
 11
152.976
 21
-29.624
  0
LINE
  8
0
 10
152.976
 20
-29.624
 11
153
 21
-30
  0
LINE
  8
0
 10
153
 20
-30
 11
152.976
 21
-30.376
  0
LINE
  8
0
 10
152.976
 20
-30.376
 11
152.906
 21
-30.7461
  0
LINE
  8
0
 10
152.906
 20
-30.7461
 11
152.789
 21
-31.1044
  0
LINE
  8
0
 10
152.789
 20
-31.1044
 11
152.629
 21
-31.4453
  0
LINE
  8
0
 10
152.629
 20
-31.4453
 11
152.427
 21
-31.7634
  0
LINE
  8
0
 10
152.427
 20
-31.7634
 11
152.187
 21
-32.0536
  0
LINE
  8
0
 10
152.187
 20
-32.0536
 11
151.912
 21
-32.3115
  0
LINE
  8
0
 10
151.912
 20
-32.3115
 11
151.607
 21
-32.533
  0
LINE
  8
0
 10
151.607
 20
-32.533
 11
151.277
 21
-32.7145
  0
LINE
  8
0
 10
151.277
 20
-32.7145
 11
150.927
 21
-32.8532
  0
LINE
  8
0
 10
150.927
 20
-32.8532
 11
150.562
 21
-32.9469
  0
LINE
  8
0
 10
150.562
 20
-32.9469
 11
150.188
 21
-32.9941
  0
LINE
  8
0
 10
150.188
 20
-32.9941
 11
149.812
 21
-32.9941
  0
LINE
  8
0
 10
-147.211
 20
28.8956
 11
-147.371
 21
28.5547
  0
LINE
  8
0
 10
-147.371
 20
28.5547
 11
-147.573
 21
28.2366
  0
LINE
  8
0
 10
-147.573
 20
28.2366
 11
-147.813
 21
27.9464
  0
LINE
  8
0
 10
-147.813
 20
27.9464
 11
-148.088
 21
27.6884
  0
LINE
  8
0
 10
-148.088
 20
27.6884
 11
-148.393
 21
27.467
  0
LINE
  8
0
 10
-148.393
 20
27.467
 11
-148.723
 21
27.2855
  0
LINE
  8
0
 10
-148.723
 20
27.2855
 11
-149.073
 21
27.1468
  0
LINE
  8
0
 10
-149.073
 20
27.1468
 11
-149.438
 21
27.0531
  0
LINE
  8
0
 10
-149.438
 20
27.0531
 11
-149.812
 21
27.0059
  0
LINE
  8
0
 10
-149.812
 20
27.0059
 11
-150.188
 21
27.0059
  0
LINE
  8
0
 10
-150.188
 20
27.0059
 11
-150.562
 21
27.0531
  0
LINE
  8
0
 10
-150.562
 20
27.0531
 11
-150.927
 21
27.1468
  0
LINE
  8
0
 10
-150.927
 20
27.1468
 11
-151.277
 21
27.2855
  0
LINE
  8
0
 10
-151.277
 20
27.2855
 11
-151.607
 21
27.467
  0
LINE
  8
0
 10
-151.607
 20
27.467
 11
-151.912
 21
27.6884
  0
LINE
  8
0
 10
-151.912
 20
27.6884
 11
-152.187
 21
27.9464
  0
LINE
  8
0
 10
-152.187
 20
27.9464
 11
-152.427
 21
28.2366
  0
LINE
  8
0
 10
-152.427
 20
28.2366
 11
-152.629
 21
28.5547
  0
LINE
  8
0
 10
-152.629
 20
28.5547
 11
-152.789
 21
28.8956
  0
LINE
  8
0
 10
-152.789
 20
28.8956
 11
-152.906
 21
29.2539
  0
LINE
  8
0
 10
-152.906
 20
29.2539
 11
-152.976
 21
29.624
  0
LINE
  8
0
 10
-152.976
 20
29.624
 11
-153
 21
30
  0
LINE
  8
0
 10
-153
 20
30
 11
-152.976
 21
30.376
  0
LINE
  8
0
 10
-152.976
 20
30.376
 11
-152.906
 21
30.7461
  0
LINE
  8
0
 10
-152.906
 20
30.7461
 11
-152.789
 21
31.1044
  0
LINE
  8
0
 10
-152.789
 20
31.1044
 11
-152.629
 21
31.4453
  0
LINE
  8
0
 10
-152.629
 20
31.4453
 11
-152.427
 21
31.7634
  0
LINE
  8
0
 10
-152.427
 20
31.7634
 11
-152.187
 21
32.0536
  0
LINE
  8
0
 10
-152.187
 20
32.0536
 11
-151.912
 21
32.3115
  0
LINE
  8
0
 10
-151.912
 20
32.3115
 11
-151.607
 21
32.533
  0
LINE
  8
0
 10
-151.607
 20
32.533
 11
-151.277
 21
32.7145
  0
LINE
  8
0
 10
-151.277
 20
32.7145
 11
-150.927
 21
32.8532
  0
LINE
  8
0
 10
-150.927
 20
32.8532
 11
-150.562
 21
32.9469
  0
LINE
  8
0
 10
-150.562
 20
32.9469
 11
-150.188
 21
32.9941
  0
LINE
  8
0
 10
-150.188
 20
32.9941
 11
-149.812
 21
32.9941
  0
LINE
  8
0
 10
-149.812
 20
32.9941
 11
-149.438
 21
32.9469
  0
LINE
  8
0
 10
-149.438
 20
32.9469
 11
-149.073
 21
32.8532
  0
LINE
  8
0
 10
-149.073
 20
32.8532
 11
-148.723
 21
32.7145
  0
LINE
  8
0
 10
-148.723
 20
32.7145
 11
-148.393
 21
32.533
  0
LINE
  8
0
 10
-148.393
 20
32.533
 11
-148.088
 21
32.3115
  0
LINE
  8
0
 10
-148.088
 20
32.3115
 11
-147.813
 21
32.0536
  0
LINE
  8
0
 10
-147.813
 20
32.0536
 11
-147.573
 21
31.7634
  0
LINE
  8
0
 10
-147.573
 20
31.7634
 11
-147.371
 21
31.4453
  0
LINE
  8
0
 10
-147.371
 20
31.4453
 11
-147.211
 21
31.1044
  0
LINE
  8
0
 10
-147.211
 20
31.1044
 11
-147.094
 21
30.7461
  0
LINE
  8
0
 10
-147.094
 20
30.7461
 11
-147.024
 21
30.376
  0
LINE
  8
0
 10
-147.024
 20
30.376
 11
-147
 21
30
  0
LINE
  8
0
 10
-147
 20
30
 11
-147.024
 21
29.624
  0
LINE
  8
0
 10
-147.024
 20
29.624
 11
-147.094
 21
29.2539
  0
LINE
  8
0
 10
-147.094
 20
29.2539
 11
-147.211
 21
28.8956
  0
ENDSEC
  0
SECTION
  2
OBJECTS
  0
DICTIONARY
  0
ENDSEC
  0
EOF
