  0
SECTION
  2
BLOCKS
  0
ENDSEC
  0
SECTION
  2
ENTITIES
  0
LINE
  8
0
 10
130.437
 20
-6.91142
 11
131.045
 21
-6.75528
  0
LINE
  8
0
 10
131.045
 20
-6.75528
 11
131.629
 21
-6.52412
  0
LINE
  8
0
 10
131.629
 20
-6.52412
 11
132.179
 21
-6.22163
  0
LINE
  8
0
 10
132.179
 20
-6.22163
 11
132.687
 21
-5.85255
  0
LINE
  8
0
 10
132.687
 20
-5.85255
 11
133.145
 21
-5.42273
  0
LINE
  8
0
 10
133.145
 20
-5.42273
 11
133.545
 21
-4.93892
  0
LINE
  8
0
 10
133.545
 20
-4.93892
 11
133.882
 21
-4.40877
  0
LINE
  8
0
 10
133.882
 20
-4.40877
 11
134.149
 21
-3.84062
  0
LINE
  8
0
 10
134.149
 20
-3.84062
 11
134.343
 21
-3.24344
  0
LINE
  8
0
 10
134.343
 20
-3.24344
 11
134.461
 21
-2.62666
  0
LINE
  8
0
 10
134.461
 20
-2.62666
 11
134.5
 21
-2
  0
LINE
  8
0
 10
134.5
 20
-2
 11
134.5
 21
2
  0
LINE
  8
0
 10
134.5
 20
2
 11
134.461
 21
2.62666
  0
LINE
  8
0
 10
134.461
 20
2.62666
 11
134.343
 21
3.24344
  0
LINE
  8
0
 10
134.343
 20
3.24344
 11
134.149
 21
3.84062
  0
LINE
  8
0
 10
134.149
 20
3.84062
 11
133.882
 21
4.40877
  0
LINE
  8
0
 10
133.882
 20
4.40877
 11
133.545
 21
4.93892
  0
LINE
  8
0
 10
133.545
 20
4.93892
 11
133.145
 21
5.42273
  0
LINE
  8
0
 10
133.145
 20
5.42273
 11
132.687
 21
5.85255
  0
LINE
  8
0
 10
132.687
 20
5.85255
 11
132.179
 21
6.22163
  0
LINE
  8
0
 10
132.179
 20
6.22163
 11
131.629
 21
6.52412
  0
LINE
  8
0
 10
131.629
 20
6.52412
 11
131.045
 21
6.75528
  0
LINE
  8
0
 10
131.045
 20
6.75528
 11
130.437
 21
6.91142
  0
LINE
  8
0
 10
130.437
 20
6.91142
 11
129.814
 21
6.99013
  0
LINE
  8
0
 10
129.814
 20
6.99013
 11
-129.814
 21
6.99013
  0
LINE
  8
0
 10
-129.814
 20
6.99013
 11
-130.437
 21
6.91142
  0
LINE
  8
0
 10
-130.437
 20
6.91142
 11
-131.045
 21
6.75528
  0
LINE
  8
0
 10
-131.045
 20
6.75528
 11
-131.629
 21
6.52412
  0
LINE
  8
0
 10
-131.629
 20
6.52412
 11
-132.179
 21
6.22163
  0
LINE
  8
0
 10
-132.179
 20
6.22163
 11
-132.687
 21
5.85255
  0
LINE
  8
0
 10
-132.687
 20
5.85255
 11
-133.145
 21
5.42273
  0
LINE
  8
0
 10
-133.145
 20
5.42273
 11
-133.545
 21
4.93892
  0
LINE
  8
0
 10
-133.545
 20
4.93892
 11
-133.882
 21
4.40877
  0
LINE
  8
0
 10
-133.882
 20
4.40877
 11
-134.149
 21
3.84062
  0
LINE
  8
0
 10
-134.149
 20
3.84062
 11
-134.343
 21
3.24344
  0
LINE
  8
0
 10
-134.343
 20
3.24344
 11
-134.461
 21
2.62666
  0
LINE
  8
0
 10
-134.461
 20
2.62666
 11
-134.5
 21
2
  0
LINE
  8
0
 10
-134.5
 20
2
 11
-134.5
 21
-2
  0
LINE
  8
0
 10
-134.5
 20
-2
 11
-134.461
 21
-2.62666
  0
LINE
  8
0
 10
-134.461
 20
-2.62666
 11
-134.343
 21
-3.24344
  0
LINE
  8
0
 10
-134.343
 20
-3.24344
 11
-134.149
 21
-3.84062
  0
LINE
  8
0
 10
-134.149
 20
-3.84062
 11
-133.882
 21
-4.40877
  0
LINE
  8
0
 10
-133.882
 20
-4.40877
 11
-133.545
 21
-4.93892
  0
LINE
  8
0
 10
-133.545
 20
-4.93892
 11
-133.145
 21
-5.42273
  0
LINE
  8
0
 10
-133.145
 20
-5.42273
 11
-132.687
 21
-5.85255
  0
LINE
  8
0
 10
-132.687
 20
-5.85255
 11
-132.179
 21
-6.22163
  0
LINE
  8
0
 10
-132.179
 20
-6.22163
 11
-131.629
 21
-6.52412
  0
LINE
  8
0
 10
-131.629
 20
-6.52412
 11
-131.045
 21
-6.75528
  0
LINE
  8
0
 10
-131.045
 20
-6.75528
 11
-130.437
 21
-6.91142
  0
LINE
  8
0
 10
-130.437
 20
-6.91142
 11
-129.814
 21
-6.99013
  0
LINE
  8
0
 10
-129.814
 20
-6.99013
 11
129.814
 21
-6.99013
  0
LINE
  8
0
 10
129.814
 20
-6.99013
 11
130.437
 21
-6.91142
  0
LINE
  8
0
 10
-127.688
 20
-2.99408
 11
-128.062
 21
-2.94685
  0
LINE
  8
0
 10
-128.062
 20
-2.94685
 11
-128.427
 21
-2.85316
  0
LINE
  8
0
 10
-128.427
 20
-2.85316
 11
-128.777
 21
-2.71448
  0
LINE
  8
0
 10
-128.777
 20
-2.71448
 11
-129.107
 21
-2.53297
  0
LINE
  8
0
 10
-129.107
 20
-2.53297
 11
-129.412
 21
-2.31154
  0
LINE
  8
0
 10
-129.412
 20
-2.31154
 11
-129.687
 21
-2.05363
  0
LINE
  8
0
 10
-129.687
 20
-2.05363
 11
-129.927
 21
-1.76335
  0
LINE
  8
0
 10
-129.927
 20
-1.76335
 11
-130.129
 21
-1.44525
  0
LINE
  8
0
 10
-130.129
 20
-1.44525
 11
-130.289
 21
-1.10437
  0
LINE
  8
0
 10
-130.289
 20
-1.10437
 11
-130.406
 21
-0.746063
  0
LINE
  8
0
 10
-130.406
 20
-0.746063
 11
-130.476
 21
-0.375992
  0
LINE
  8
0
 10
-130.476
 20
-0.375992
 11
-130.5
 21
0
  0
LINE
  8
0
 10
-130.5
 20
0
 11
-130.476
 21
0.375992
  0
LINE
  8
0
 10
-130.476
 20
0.375992
 11
-130.406
 21
0.746063
  0
LINE
  8
0
 10
-130.406
 20
0.746063
 11
-130.289
 21
1.10437
  0
LINE
  8
0
 10
-130.289
 20
1.10437
 11
-130.129
 21
1.44525
  0
LINE
  8
0
 10
-130.129
 20
1.44525
 11
-129.927
 21
1.76335
  0
LINE
  8
0
 10
-129.927
 20
1.76335
 11
-129.687
 21
2.05363
  0
LINE
  8
0
 10
-129.687
 20
2.05363
 11
-129.412
 21
2.31154
  0
LINE
  8
0
 10
-129.412
 20
2.31154
 11
-129.107
 21
2.53297
  0
LINE
  8
0
 10
-129.107
 20
2.53297
 11
-128.777
 21
2.71448
  0
LINE
  8
0
 10
-128.777
 20
2.71448
 11
-128.427
 21
2.85316
  0
LINE
  8
0
 10
-128.427
 20
2.85316
 11
-128.062
 21
2.94685
  0
LINE
  8
0
 10
-128.062
 20
2.94685
 11
-127.688
 21
2.99408
  0
LINE
  8
0
 10
-127.688
 20
2.99408
 11
-127.312
 21
2.99408
  0
LINE
  8
0
 10
-127.312
 20
2.99408
 11
-126.938
 21
2.94685
  0
LINE
  8
0
 10
-126.938
 20
2.94685
 11
-126.573
 21
2.85316
  0
LINE
  8
0
 10
-126.573
 20
2.85316
 11
-126.223
 21
2.71448
  0
LINE
  8
0
 10
-126.223
 20
2.71448
 11
-125.893
 21
2.53297
  0
LINE
  8
0
 10
-125.893
 20
2.53297
 11
-125.588
 21
2.31154
  0
LINE
  8
0
 10
-125.588
 20
2.31154
 11
-125.313
 21
2.05363
  0
LINE
  8
0
 10
-125.313
 20
2.05363
 11
-125.073
 21
1.76335
  0
LINE
  8
0
 10
-125.073
 20
1.76335
 11
-124.871
 21
1.44525
  0
LINE
  8
0
 10
-124.871
 20
1.44525
 11
-124.711
 21
1.10437
  0
LINE
  8
0
 10
-124.711
 20
1.10437
 11
-124.594
 21
0.746063
  0
LINE
  8
0
 10
-124.594
 20
0.746063
 11
-124.524
 21
0.375992
  0
LINE
  8
0
 10
-124.524
 20
0.375992
 11
-124.5
 21
0
  0
LINE
  8
0
 10
-124.5
 20
0
 11
-124.524
 21
-0.375992
  0
LINE
  8
0
 10
-124.524
 20
-0.375992
 11
-124.594
 21
-0.746063
  0
LINE
  8
0
 10
-124.594
 20
-0.746063
 11
-124.711
 21
-1.10437
  0
LINE
  8
0
 10
-124.711
 20
-1.10437
 11
-124.871
 21
-1.44525
  0
LINE
  8
0
 10
-124.871
 20
-1.44525
 11
-125.073
 21
-1.76335
  0
LINE
  8
0
 10
-125.073
 20
-1.76335
 11
-125.313
 21
-2.05363
  0
LINE
  8
0
 10
-125.313
 20
-2.05363
 11
-125.588
 21
-2.31154
  0
LINE
  8
0
 10
-125.588
 20
-2.31154
 11
-125.893
 21
-2.53297
  0
LINE
  8
0
 10
-125.893
 20
-2.53297
 11
-126.223
 21
-2.71448
  0
LINE
  8
0
 10
-126.223
 20
-2.71448
 11
-126.573
 21
-2.85316
  0
LINE
  8
0
 10
-126.573
 20
-2.85316
 11
-126.938
 21
-2.94685
  0
LINE
  8
0
 10
-126.938
 20
-2.94685
 11
-127.312
 21
-2.99408
  0
LINE
  8
0
 10
-127.312
 20
-2.99408
 11
-127.688
 21
-2.99408
  0
ENDSEC
  0
SECTION
  2
OBJECTS
  0
DICTIONARY
  0
ENDSEC
  0
EOF
