  0
SECTION
  2
BLOCKS
  0
ENDSEC
  0
SECTION
  2
ENTITIES
  0
LINE
  8
0
 10
115.437
 20
-111.911
 11
116.045
 21
-111.755
  0
LINE
  8
0
 10
116.045
 20
-111.755
 11
116.629
 21
-111.524
  0
LINE
  8
0
 10
116.629
 20
-111.524
 11
117.179
 21
-111.222
  0
LINE
  8
0
 10
117.179
 20
-111.222
 11
117.687
 21
-110.853
  0
LINE
  8
0
 10
117.687
 20
-110.853
 11
118.145
 21
-110.423
  0
LINE
  8
0
 10
118.145
 20
-110.423
 11
118.545
 21
-109.939
  0
LINE
  8
0
 10
118.545
 20
-109.939
 11
118.882
 21
-109.409
  0
LINE
  8
0
 10
118.882
 20
-109.409
 11
119.149
 21
-108.841
  0
LINE
  8
0
 10
119.149
 20
-108.841
 11
119.343
 21
-108.243
  0
LINE
  8
0
 10
119.343
 20
-108.243
 11
119.461
 21
-107.627
  0
LINE
  8
0
 10
119.461
 20
-107.627
 11
119.5
 21
-107
  0
LINE
  8
0
 10
119.5
 20
-107
 11
119.5
 21
107
  0
LINE
  8
0
 10
119.5
 20
107
 11
119.461
 21
107.627
  0
LINE
  8
0
 10
119.461
 20
107.627
 11
119.343
 21
108.243
  0
LINE
  8
0
 10
119.343
 20
108.243
 11
119.149
 21
108.841
  0
LINE
  8
0
 10
119.149
 20
108.841
 11
118.882
 21
109.409
  0
LINE
  8
0
 10
118.882
 20
109.409
 11
118.545
 21
109.939
  0
LINE
  8
0
 10
118.545
 20
109.939
 11
118.145
 21
110.423
  0
LINE
  8
0
 10
118.145
 20
110.423
 11
117.687
 21
110.853
  0
LINE
  8
0
 10
117.687
 20
110.853
 11
117.179
 21
111.222
  0
LINE
  8
0
 10
117.179
 20
111.222
 11
116.629
 21
111.524
  0
LINE
  8
0
 10
116.629
 20
111.524
 11
116.045
 21
111.755
  0
LINE
  8
0
 10
116.045
 20
111.755
 11
115.437
 21
111.911
  0
LINE
  8
0
 10
115.437
 20
111.911
 11
114.814
 21
111.99
  0
LINE
  8
0
 10
114.814
 20
111.99
 11
-114.814
 21
111.99
  0
LINE
  8
0
 10
-114.814
 20
111.99
 11
-115.437
 21
111.911
  0
LINE
  8
0
 10
-115.437
 20
111.911
 11
-116.045
 21
111.755
  0
LINE
  8
0
 10
-116.045
 20
111.755
 11
-116.629
 21
111.524
  0
LINE
  8
0
 10
-116.629
 20
111.524
 11
-117.179
 21
111.222
  0
LINE
  8
0
 10
-117.179
 20
111.222
 11
-117.687
 21
110.853
  0
LINE
  8
0
 10
-117.687
 20
110.853
 11
-118.145
 21
110.423
  0
LINE
  8
0
 10
-118.145
 20
110.423
 11
-118.545
 21
109.939
  0
LINE
  8
0
 10
-118.545
 20
109.939
 11
-118.882
 21
109.409
  0
LINE
  8
0
 10
-118.882
 20
109.409
 11
-119.149
 21
108.841
  0
LINE
  8
0
 10
-119.149
 20
108.841
 11
-119.343
 21
108.243
  0
LINE
  8
0
 10
-119.343
 20
108.243
 11
-119.461
 21
107.627
  0
LINE
  8
0
 10
-119.461
 20
107.627
 11
-119.5
 21
107
  0
LINE
  8
0
 10
-119.5
 20
107
 11
-119.5
 21
-107
  0
LINE
  8
0
 10
-119.5
 20
-107
 11
-119.461
 21
-107.627
  0
LINE
  8
0
 10
-119.461
 20
-107.627
 11
-119.343
 21
-108.243
  0
LINE
  8
0
 10
-119.343
 20
-108.243
 11
-119.149
 21
-108.841
  0
LINE
  8
0
 10
-119.149
 20
-108.841
 11
-118.882
 21
-109.409
  0
LINE
  8
0
 10
-118.882
 20
-109.409
 11
-118.545
 21
-109.939
  0
LINE
  8
0
 10
-118.545
 20
-109.939
 11
-118.145
 21
-110.423
  0
LINE
  8
0
 10
-118.145
 20
-110.423
 11
-117.687
 21
-110.853
  0
LINE
  8
0
 10
-117.687
 20
-110.853
 11
-117.179
 21
-111.222
  0
LINE
  8
0
 10
-117.179
 20
-111.222
 11
-116.629
 21
-111.524
  0
LINE
  8
0
 10
-116.629
 20
-111.524
 11
-116.045
 21
-111.755
  0
LINE
  8
0
 10
-116.045
 20
-111.755
 11
-115.437
 21
-111.911
  0
LINE
  8
0
 10
-115.437
 20
-111.911
 11
-114.814
 21
-111.99
  0
LINE
  8
0
 10
-114.814
 20
-111.99
 11
114.814
 21
-111.99
  0
LINE
  8
0
 10
114.814
 20
-111.99
 11
115.437
 21
-111.911
  0
LINE
  8
0
 10
112.312
 20
102.006
 11
111.938
 21
102.053
  0
LINE
  8
0
 10
111.938
 20
102.053
 11
111.573
 21
102.147
  0
LINE
  8
0
 10
111.573
 20
102.147
 11
111.223
 21
102.286
  0
LINE
  8
0
 10
111.223
 20
102.286
 11
110.893
 21
102.467
  0
LINE
  8
0
 10
110.893
 20
102.467
 11
110.588
 21
102.688
  0
LINE
  8
0
 10
110.588
 20
102.688
 11
110.313
 21
102.946
  0
LINE
  8
0
 10
110.313
 20
102.946
 11
110.073
 21
103.237
  0
LINE
  8
0
 10
110.073
 20
103.237
 11
109.871
 21
103.555
  0
LINE
  8
0
 10
109.871
 20
103.555
 11
109.711
 21
103.896
  0
LINE
  8
0
 10
109.711
 20
103.896
 11
109.594
 21
104.254
  0
LINE
  8
0
 10
109.594
 20
104.254
 11
109.524
 21
104.624
  0
LINE
  8
0
 10
109.524
 20
104.624
 11
109.5
 21
105
  0
LINE
  8
0
 10
109.5
 20
105
 11
109.524
 21
105.376
  0
LINE
  8
0
 10
109.524
 20
105.376
 11
109.594
 21
105.746
  0
LINE
  8
0
 10
109.594
 20
105.746
 11
109.711
 21
106.104
  0
LINE
  8
0
 10
109.711
 20
106.104
 11
109.871
 21
106.445
  0
LINE
  8
0
 10
109.871
 20
106.445
 11
110.073
 21
106.763
  0
LINE
  8
0
 10
110.073
 20
106.763
 11
110.313
 21
107.054
  0
LINE
  8
0
 10
110.313
 20
107.054
 11
110.588
 21
107.312
  0
LINE
  8
0
 10
110.588
 20
107.312
 11
110.893
 21
107.533
  0
LINE
  8
0
 10
110.893
 20
107.533
 11
111.223
 21
107.714
  0
LINE
  8
0
 10
111.223
 20
107.714
 11
111.573
 21
107.853
  0
LINE
  8
0
 10
111.573
 20
107.853
 11
111.938
 21
107.947
  0
LINE
  8
0
 10
111.938
 20
107.947
 11
112.312
 21
107.994
  0
LINE
  8
0
 10
112.312
 20
107.994
 11
112.688
 21
107.994
  0
LINE
  8
0
 10
112.688
 20
107.994
 11
113.062
 21
107.947
  0
LINE
  8
0
 10
113.062
 20
107.947
 11
113.427
 21
107.853
  0
LINE
  8
0
 10
113.427
 20
107.853
 11
113.777
 21
107.714
  0
LINE
  8
0
 10
113.777
 20
107.714
 11
114.107
 21
107.533
  0
LINE
  8
0
 10
114.107
 20
107.533
 11
114.412
 21
107.312
  0
LINE
  8
0
 10
114.412
 20
107.312
 11
114.687
 21
107.054
  0
LINE
  8
0
 10
114.687
 20
107.054
 11
114.927
 21
106.763
  0
LINE
  8
0
 10
114.927
 20
106.763
 11
115.129
 21
106.445
  0
LINE
  8
0
 10
115.129
 20
106.445
 11
115.289
 21
106.104
  0
LINE
  8
0
 10
115.289
 20
106.104
 11
115.406
 21
105.746
  0
LINE
  8
0
 10
115.406
 20
105.746
 11
115.476
 21
105.376
  0
LINE
  8
0
 10
115.476
 20
105.376
 11
115.5
 21
105
  0
LINE
  8
0
 10
115.5
 20
105
 11
115.476
 21
104.624
  0
LINE
  8
0
 10
115.476
 20
104.624
 11
115.406
 21
104.254
  0
LINE
  8
0
 10
115.406
 20
104.254
 11
115.289
 21
103.896
  0
LINE
  8
0
 10
115.289
 20
103.896
 11
115.129
 21
103.555
  0
LINE
  8
0
 10
115.129
 20
103.555
 11
114.927
 21
103.237
  0
LINE
  8
0
 10
114.927
 20
103.237
 11
114.687
 21
102.946
  0
LINE
  8
0
 10
114.687
 20
102.946
 11
114.412
 21
102.688
  0
LINE
  8
0
 10
114.412
 20
102.688
 11
114.107
 21
102.467
  0
LINE
  8
0
 10
114.107
 20
102.467
 11
113.777
 21
102.286
  0
LINE
  8
0
 10
113.777
 20
102.286
 11
113.427
 21
102.147
  0
LINE
  8
0
 10
113.427
 20
102.147
 11
113.062
 21
102.053
  0
LINE
  8
0
 10
113.062
 20
102.053
 11
112.688
 21
102.006
  0
LINE
  8
0
 10
112.688
 20
102.006
 11
112.312
 21
102.006
  0
LINE
  8
0
 10
-112.688
 20
102.006
 11
-113.062
 21
102.053
  0
LINE
  8
0
 10
-113.062
 20
102.053
 11
-113.427
 21
102.147
  0
LINE
  8
0
 10
-113.427
 20
102.147
 11
-113.777
 21
102.286
  0
LINE
  8
0
 10
-113.777
 20
102.286
 11
-114.107
 21
102.467
  0
LINE
  8
0
 10
-114.107
 20
102.467
 11
-114.412
 21
102.688
  0
LINE
  8
0
 10
-114.412
 20
102.688
 11
-114.687
 21
102.946
  0
LINE
  8
0
 10
-114.687
 20
102.946
 11
-114.927
 21
103.237
  0
LINE
  8
0
 10
-114.927
 20
103.237
 11
-115.129
 21
103.555
  0
LINE
  8
0
 10
-115.129
 20
103.555
 11
-115.289
 21
103.896
  0
LINE
  8
0
 10
-115.289
 20
103.896
 11
-115.406
 21
104.254
  0
LINE
  8
0
 10
-115.406
 20
104.254
 11
-115.476
 21
104.624
  0
LINE
  8
0
 10
-115.476
 20
104.624
 11
-115.5
 21
105
  0
LINE
  8
0
 10
-115.5
 20
105
 11
-115.476
 21
105.376
  0
LINE
  8
0
 10
-115.476
 20
105.376
 11
-115.406
 21
105.746
  0
LINE
  8
0
 10
-115.406
 20
105.746
 11
-115.289
 21
106.104
  0
LINE
  8
0
 10
-115.289
 20
106.104
 11
-115.129
 21
106.445
  0
LINE
  8
0
 10
-115.129
 20
106.445
 11
-114.927
 21
106.763
  0
LINE
  8
0
 10
-114.927
 20
106.763
 11
-114.687
 21
107.054
  0
LINE
  8
0
 10
-114.687
 20
107.054
 11
-114.412
 21
107.312
  0
LINE
  8
0
 10
-114.412
 20
107.312
 11
-114.107
 21
107.533
  0
LINE
  8
0
 10
-114.107
 20
107.533
 11
-113.777
 21
107.714
  0
LINE
  8
0
 10
-113.777
 20
107.714
 11
-113.427
 21
107.853
  0
LINE
  8
0
 10
-113.427
 20
107.853
 11
-113.062
 21
107.947
  0
LINE
  8
0
 10
-113.062
 20
107.947
 11
-112.688
 21
107.994
  0
LINE
  8
0
 10
-112.688
 20
107.994
 11
-112.312
 21
107.994
  0
LINE
  8
0
 10
-112.312
 20
107.994
 11
-111.938
 21
107.947
  0
LINE
  8
0
 10
-111.938
 20
107.947
 11
-111.573
 21
107.853
  0
LINE
  8
0
 10
-111.573
 20
107.853
 11
-111.223
 21
107.714
  0
LINE
  8
0
 10
-111.223
 20
107.714
 11
-110.893
 21
107.533
  0
LINE
  8
0
 10
-110.893
 20
107.533
 11
-110.588
 21
107.312
  0
LINE
  8
0
 10
-110.588
 20
107.312
 11
-110.313
 21
107.054
  0
LINE
  8
0
 10
-110.313
 20
107.054
 11
-110.073
 21
106.763
  0
LINE
  8
0
 10
-110.073
 20
106.763
 11
-109.871
 21
106.445
  0
LINE
  8
0
 10
-109.871
 20
106.445
 11
-109.711
 21
106.104
  0
LINE
  8
0
 10
-109.711
 20
106.104
 11
-109.594
 21
105.746
  0
LINE
  8
0
 10
-109.594
 20
105.746
 11
-109.524
 21
105.376
  0
LINE
  8
0
 10
-109.524
 20
105.376
 11
-109.5
 21
105
  0
LINE
  8
0
 10
-109.5
 20
105
 11
-109.524
 21
104.624
  0
LINE
  8
0
 10
-109.524
 20
104.624
 11
-109.594
 21
104.254
  0
LINE
  8
0
 10
-109.594
 20
104.254
 11
-109.711
 21
103.896
  0
LINE
  8
0
 10
-109.711
 20
103.896
 11
-109.871
 21
103.555
  0
LINE
  8
0
 10
-109.871
 20
103.555
 11
-110.073
 21
103.237
  0
LINE
  8
0
 10
-110.073
 20
103.237
 11
-110.313
 21
102.946
  0
LINE
  8
0
 10
-110.313
 20
102.946
 11
-110.588
 21
102.688
  0
LINE
  8
0
 10
-110.588
 20
102.688
 11
-110.893
 21
102.467
  0
LINE
  8
0
 10
-110.893
 20
102.467
 11
-111.223
 21
102.286
  0
LINE
  8
0
 10
-111.223
 20
102.286
 11
-111.573
 21
102.147
  0
LINE
  8
0
 10
-111.573
 20
102.147
 11
-111.938
 21
102.053
  0
LINE
  8
0
 10
-111.938
 20
102.053
 11
-112.312
 21
102.006
  0
LINE
  8
0
 10
-112.312
 20
102.006
 11
-112.688
 21
102.006
  0
LINE
  8
0
 10
112.312
 20
-107.994
 11
111.938
 21
-107.947
  0
LINE
  8
0
 10
111.938
 20
-107.947
 11
111.573
 21
-107.853
  0
LINE
  8
0
 10
111.573
 20
-107.853
 11
111.223
 21
-107.714
  0
LINE
  8
0
 10
111.223
 20
-107.714
 11
110.893
 21
-107.533
  0
LINE
  8
0
 10
110.893
 20
-107.533
 11
110.588
 21
-107.312
  0
LINE
  8
0
 10
110.588
 20
-107.312
 11
110.313
 21
-107.054
  0
LINE
  8
0
 10
110.313
 20
-107.054
 11
110.073
 21
-106.763
  0
LINE
  8
0
 10
110.073
 20
-106.763
 11
109.871
 21
-106.445
  0
LINE
  8
0
 10
109.871
 20
-106.445
 11
109.711
 21
-106.104
  0
LINE
  8
0
 10
109.711
 20
-106.104
 11
109.594
 21
-105.746
  0
LINE
  8
0
 10
109.594
 20
-105.746
 11
109.524
 21
-105.376
  0
LINE
  8
0
 10
109.524
 20
-105.376
 11
109.5
 21
-105
  0
LINE
  8
0
 10
109.5
 20
-105
 11
109.524
 21
-104.624
  0
LINE
  8
0
 10
109.524
 20
-104.624
 11
109.594
 21
-104.254
  0
LINE
  8
0
 10
109.594
 20
-104.254
 11
109.711
 21
-103.896
  0
LINE
  8
0
 10
109.711
 20
-103.896
 11
109.871
 21
-103.555
  0
LINE
  8
0
 10
109.871
 20
-103.555
 11
110.073
 21
-103.237
  0
LINE
  8
0
 10
110.073
 20
-103.237
 11
110.313
 21
-102.946
  0
LINE
  8
0
 10
110.313
 20
-102.946
 11
110.588
 21
-102.688
  0
LINE
  8
0
 10
110.588
 20
-102.688
 11
110.893
 21
-102.467
  0
LINE
  8
0
 10
110.893
 20
-102.467
 11
111.223
 21
-102.286
  0
LINE
  8
0
 10
111.223
 20
-102.286
 11
111.573
 21
-102.147
  0
LINE
  8
0
 10
111.573
 20
-102.147
 11
111.938
 21
-102.053
  0
LINE
  8
0
 10
111.938
 20
-102.053
 11
112.312
 21
-102.006
  0
LINE
  8
0
 10
112.312
 20
-102.006
 11
112.688
 21
-102.006
  0
LINE
  8
0
 10
112.688
 20
-102.006
 11
113.062
 21
-102.053
  0
LINE
  8
0
 10
113.062
 20
-102.053
 11
113.427
 21
-102.147
  0
LINE
  8
0
 10
113.427
 20
-102.147
 11
113.777
 21
-102.286
  0
LINE
  8
0
 10
113.777
 20
-102.286
 11
114.107
 21
-102.467
  0
LINE
  8
0
 10
114.107
 20
-102.467
 11
114.412
 21
-102.688
  0
LINE
  8
0
 10
114.412
 20
-102.688
 11
114.687
 21
-102.946
  0
LINE
  8
0
 10
114.687
 20
-102.946
 11
114.927
 21
-103.237
  0
LINE
  8
0
 10
114.927
 20
-103.237
 11
115.129
 21
-103.555
  0
LINE
  8
0
 10
115.129
 20
-103.555
 11
115.289
 21
-103.896
  0
LINE
  8
0
 10
115.289
 20
-103.896
 11
115.406
 21
-104.254
  0
LINE
  8
0
 10
115.406
 20
-104.254
 11
115.476
 21
-104.624
  0
LINE
  8
0
 10
115.476
 20
-104.624
 11
115.5
 21
-105
  0
LINE
  8
0
 10
115.5
 20
-105
 11
115.476
 21
-105.376
  0
LINE
  8
0
 10
115.476
 20
-105.376
 11
115.406
 21
-105.746
  0
LINE
  8
0
 10
115.406
 20
-105.746
 11
115.289
 21
-106.104
  0
LINE
  8
0
 10
115.289
 20
-106.104
 11
115.129
 21
-106.445
  0
LINE
  8
0
 10
115.129
 20
-106.445
 11
114.927
 21
-106.763
  0
LINE
  8
0
 10
114.927
 20
-106.763
 11
114.687
 21
-107.054
  0
LINE
  8
0
 10
114.687
 20
-107.054
 11
114.412
 21
-107.312
  0
LINE
  8
0
 10
114.412
 20
-107.312
 11
114.107
 21
-107.533
  0
LINE
  8
0
 10
114.107
 20
-107.533
 11
113.777
 21
-107.714
  0
LINE
  8
0
 10
113.777
 20
-107.714
 11
113.427
 21
-107.853
  0
LINE
  8
0
 10
113.427
 20
-107.853
 11
113.062
 21
-107.947
  0
LINE
  8
0
 10
113.062
 20
-107.947
 11
112.688
 21
-107.994
  0
LINE
  8
0
 10
112.688
 20
-107.994
 11
112.312
 21
-107.994
  0
LINE
  8
0
 10
-112.688
 20
-107.994
 11
-113.062
 21
-107.947
  0
LINE
  8
0
 10
-113.062
 20
-107.947
 11
-113.427
 21
-107.853
  0
LINE
  8
0
 10
-113.427
 20
-107.853
 11
-113.777
 21
-107.714
  0
LINE
  8
0
 10
-113.777
 20
-107.714
 11
-114.107
 21
-107.533
  0
LINE
  8
0
 10
-114.107
 20
-107.533
 11
-114.412
 21
-107.312
  0
LINE
  8
0
 10
-114.412
 20
-107.312
 11
-114.687
 21
-107.054
  0
LINE
  8
0
 10
-114.687
 20
-107.054
 11
-114.927
 21
-106.763
  0
LINE
  8
0
 10
-114.927
 20
-106.763
 11
-115.129
 21
-106.445
  0
LINE
  8
0
 10
-115.129
 20
-106.445
 11
-115.289
 21
-106.104
  0
LINE
  8
0
 10
-115.289
 20
-106.104
 11
-115.406
 21
-105.746
  0
LINE
  8
0
 10
-115.406
 20
-105.746
 11
-115.476
 21
-105.376
  0
LINE
  8
0
 10
-115.476
 20
-105.376
 11
-115.5
 21
-105
  0
LINE
  8
0
 10
-115.5
 20
-105
 11
-115.476
 21
-104.624
  0
LINE
  8
0
 10
-115.476
 20
-104.624
 11
-115.406
 21
-104.254
  0
LINE
  8
0
 10
-115.406
 20
-104.254
 11
-115.289
 21
-103.896
  0
LINE
  8
0
 10
-115.289
 20
-103.896
 11
-115.129
 21
-103.555
  0
LINE
  8
0
 10
-115.129
 20
-103.555
 11
-114.927
 21
-103.237
  0
LINE
  8
0
 10
-114.927
 20
-103.237
 11
-114.687
 21
-102.946
  0
LINE
  8
0
 10
-114.687
 20
-102.946
 11
-114.412
 21
-102.688
  0
LINE
  8
0
 10
-114.412
 20
-102.688
 11
-114.107
 21
-102.467
  0
LINE
  8
0
 10
-114.107
 20
-102.467
 11
-113.777
 21
-102.286
  0
LINE
  8
0
 10
-113.777
 20
-102.286
 11
-113.427
 21
-102.147
  0
LINE
  8
0
 10
-113.427
 20
-102.147
 11
-113.062
 21
-102.053
  0
LINE
  8
0
 10
-113.062
 20
-102.053
 11
-112.688
 21
-102.006
  0
LINE
  8
0
 10
-112.688
 20
-102.006
 11
-112.312
 21
-102.006
  0
LINE
  8
0
 10
-112.312
 20
-102.006
 11
-111.938
 21
-102.053
  0
LINE
  8
0
 10
-111.938
 20
-102.053
 11
-111.573
 21
-102.147
  0
LINE
  8
0
 10
-111.573
 20
-102.147
 11
-111.223
 21
-102.286
  0
LINE
  8
0
 10
-111.223
 20
-102.286
 11
-110.893
 21
-102.467
  0
LINE
  8
0
 10
-110.893
 20
-102.467
 11
-110.588
 21
-102.688
  0
LINE
  8
0
 10
-110.588
 20
-102.688
 11
-110.313
 21
-102.946
  0
LINE
  8
0
 10
-110.313
 20
-102.946
 11
-110.073
 21
-103.237
  0
LINE
  8
0
 10
-110.073
 20
-103.237
 11
-109.871
 21
-103.555
  0
LINE
  8
0
 10
-109.871
 20
-103.555
 11
-109.711
 21
-103.896
  0
LINE
  8
0
 10
-109.711
 20
-103.896
 11
-109.594
 21
-104.254
  0
LINE
  8
0
 10
-109.594
 20
-104.254
 11
-109.524
 21
-104.624
  0
LINE
  8
0
 10
-109.524
 20
-104.624
 11
-109.5
 21
-105
  0
LINE
  8
0
 10
-109.5
 20
-105
 11
-109.524
 21
-105.376
  0
LINE
  8
0
 10
-109.524
 20
-105.376
 11
-109.594
 21
-105.746
  0
LINE
  8
0
 10
-109.594
 20
-105.746
 11
-109.711
 21
-106.104
  0
LINE
  8
0
 10
-109.711
 20
-106.104
 11
-109.871
 21
-106.445
  0
LINE
  8
0
 10
-109.871
 20
-106.445
 11
-110.073
 21
-106.763
  0
LINE
  8
0
 10
-110.073
 20
-106.763
 11
-110.313
 21
-107.054
  0
LINE
  8
0
 10
-110.313
 20
-107.054
 11
-110.588
 21
-107.312
  0
LINE
  8
0
 10
-110.588
 20
-107.312
 11
-110.893
 21
-107.533
  0
LINE
  8
0
 10
-110.893
 20
-107.533
 11
-111.223
 21
-107.714
  0
LINE
  8
0
 10
-111.223
 20
-107.714
 11
-111.573
 21
-107.853
  0
LINE
  8
0
 10
-111.573
 20
-107.853
 11
-111.938
 21
-107.947
  0
LINE
  8
0
 10
-111.938
 20
-107.947
 11
-112.312
 21
-107.994
  0
LINE
  8
0
 10
-112.312
 20
-107.994
 11
-112.688
 21
-107.994
  0
ENDSEC
  0
SECTION
  2
OBJECTS
  0
DICTIONARY
  0
ENDSEC
  0
EOF
