<?xml version="1.0" standalone="no"?>
<!DOCTYPE svg PUBLIC "-//W3C//DTD SVG 1.1//EN" "http://www.w3.org/Graphics/SVG/1.1/DTD/svg11.dtd">
<svg width="74mm" height="110mm" viewBox="-37 -223 74 110" xmlns="http://www.w3.org/2000/svg" version="1.1">
<title>OpenSCAD Model</title>
<path d="
M 32.9369,-209.089 L 33.5451,-209.245 L 34.1289,-209.476 L 34.6791,-209.778 L 35.1871,-210.147 L 35.6448,-210.577
 L 36.0451,-211.061 L 36.3815,-211.591 L 36.6489,-212.159 L 36.8429,-212.757 L 36.9606,-213.373 L 37,-214
 L 37,-218 L 36.9606,-218.627 L 36.8429,-219.243 L 36.6489,-219.841 L 36.3815,-220.409 L 36.0451,-220.939
 L 35.6448,-221.423 L 35.1871,-221.853 L 34.6791,-222.222 L 34.1289,-222.524 L 33.5451,-222.755 L 32.9369,-222.911
 L 32.3139,-222.99 L -32.3139,-222.99 L -32.9369,-222.911 L -33.5451,-222.755 L -34.1289,-222.524 L -34.6791,-222.222
 L -35.1871,-221.853 L -35.6448,-221.423 L -36.0451,-220.939 L -36.3815,-220.409 L -36.6489,-219.841 L -36.8429,-219.243
 L -36.9606,-218.627 L -37,-218 L -37,-214 L -36.9606,-213.373 L -36.8429,-212.757 L -36.6489,-212.159
 L -36.3815,-211.591 L -36.0451,-211.061 L -35.6448,-210.577 L -35.1871,-210.147 L -34.6791,-209.778 L -34.1289,-209.476
 L -33.5451,-209.245 L -32.9369,-209.089 L -32.3139,-209.01 L 32.3139,-209.01 z
M -0.18837,-213.006 L -0.562134,-213.053 L -0.927048,-213.147 L -1.27733,-213.286 L -1.60747,-213.467 L -1.91226,-213.688
 L -2.1869,-213.946 L -2.42705,-214.237 L -2.62891,-214.555 L -2.78932,-214.896 L -2.90575,-215.254 L -2.97633,-215.624
 L -3,-216 L -2.97633,-216.376 L -2.90575,-216.746 L -2.78932,-217.104 L -2.62891,-217.445 L -2.42705,-217.763
 L -2.1869,-218.054 L -1.91226,-218.312 L -1.60747,-218.533 L -1.27733,-218.714 L -0.927048,-218.853 L -0.562134,-218.947
 L -0.18837,-218.994 L 0.18837,-218.994 L 0.562134,-218.947 L 0.927048,-218.853 L 1.27733,-218.714 L 1.60747,-218.533
 L 1.91226,-218.312 L 2.1869,-218.054 L 2.42705,-217.763 L 2.62891,-217.445 L 2.78932,-217.104 L 2.90575,-216.746
 L 2.97633,-216.376 L 3,-216 L 2.97633,-215.624 L 2.90575,-215.254 L 2.78932,-214.896 L 2.62891,-214.555
 L 2.42705,-214.237 L 2.1869,-213.946 L 1.91226,-213.688 L 1.60747,-213.467 L 1.27733,-213.286 L 0.927048,-213.147
 L 0.562134,-213.053 L 0.18837,-213.006 z
M -15.1884,-213.006 L -15.5621,-213.053 L -15.927,-213.147 L -16.2773,-213.286 L -16.6075,-213.467 L -16.9123,-213.688
 L -17.1869,-213.946 L -17.427,-214.237 L -17.6289,-214.555 L -17.7893,-214.896 L -17.9057,-215.254 L -17.9763,-215.624
 L -18,-216 L -17.9763,-216.376 L -17.9057,-216.746 L -17.7893,-217.104 L -17.6289,-217.445 L -17.427,-217.763
 L -17.1869,-218.054 L -16.9123,-218.312 L -16.6075,-218.533 L -16.2773,-218.714 L -15.927,-218.853 L -15.5621,-218.947
 L -15.1884,-218.994 L -14.8116,-218.994 L -14.4379,-218.947 L -14.0729,-218.853 L -13.7227,-218.714 L -13.3925,-218.533
 L -13.0877,-218.312 L -12.8131,-218.054 L -12.5729,-217.763 L -12.3711,-217.445 L -12.2107,-217.104 L -12.0942,-216.746
 L -12.0237,-216.376 L -12,-216 L -12.0237,-215.624 L -12.0942,-215.254 L -12.2107,-214.896 L -12.3711,-214.555
 L -12.5729,-214.237 L -12.8131,-213.946 L -13.0877,-213.688 L -13.3925,-213.467 L -13.7227,-213.286 L -14.0729,-213.147
 L -14.4379,-213.053 L -14.8116,-213.006 z
M 14.8116,-213.006 L 14.4379,-213.053 L 14.0729,-213.147 L 13.7227,-213.286 L 13.3925,-213.467 L 13.0877,-213.688
 L 12.8131,-213.946 L 12.5729,-214.237 L 12.3711,-214.555 L 12.2107,-214.896 L 12.0942,-215.254 L 12.0237,-215.624
 L 12,-216 L 12.0237,-216.376 L 12.0942,-216.746 L 12.2107,-217.104 L 12.3711,-217.445 L 12.5729,-217.763
 L 12.8131,-218.054 L 13.0877,-218.312 L 13.3925,-218.533 L 13.7227,-218.714 L 14.0729,-218.853 L 14.4379,-218.947
 L 14.8116,-218.994 L 15.1884,-218.994 L 15.5621,-218.947 L 15.927,-218.853 L 16.2773,-218.714 L 16.6075,-218.533
 L 16.9123,-218.312 L 17.1869,-218.054 L 17.427,-217.763 L 17.6289,-217.445 L 17.7893,-217.104 L 17.9057,-216.746
 L 17.9763,-216.376 L 18,-216 L 17.9763,-215.624 L 17.9057,-215.254 L 17.7893,-214.896 L 17.6289,-214.555
 L 17.427,-214.237 L 17.1869,-213.946 L 16.9123,-213.688 L 16.6075,-213.467 L 16.2773,-213.286 L 15.927,-213.147
 L 15.5621,-213.053 L 15.1884,-213.006 z
M 29.8116,-213.006 L 29.4379,-213.053 L 29.0729,-213.147 L 28.7227,-213.286 L 28.3925,-213.467 L 28.0877,-213.688
 L 27.8131,-213.946 L 27.5729,-214.237 L 27.3711,-214.555 L 27.2107,-214.896 L 27.0942,-215.254 L 27.0237,-215.624
 L 27,-216 L 27.0237,-216.376 L 27.0942,-216.746 L 27.2107,-217.104 L 27.3711,-217.445 L 27.5729,-217.763
 L 27.8131,-218.054 L 28.0877,-218.312 L 28.3925,-218.533 L 28.7227,-218.714 L 29.0729,-218.853 L 29.4379,-218.947
 L 29.8116,-218.994 L 30.1884,-218.994 L 30.5621,-218.947 L 30.927,-218.853 L 31.2773,-218.714 L 31.6075,-218.533
 L 31.9123,-218.312 L 32.1869,-218.054 L 32.427,-217.763 L 32.6289,-217.445 L 32.7893,-217.104 L 32.9057,-216.746
 L 32.9763,-216.376 L 33,-216 L 32.9763,-215.624 L 32.9057,-215.254 L 32.7893,-214.896 L 32.6289,-214.555
 L 32.427,-214.237 L 32.1869,-213.946 L 31.9123,-213.688 L 31.6075,-213.467 L 31.2773,-213.286 L 30.927,-213.147
 L 30.5621,-213.053 L 30.1884,-213.006 z
M -30.1884,-213.006 L -30.5621,-213.053 L -30.927,-213.147 L -31.2773,-213.286 L -31.6075,-213.467 L -31.9123,-213.688
 L -32.1869,-213.946 L -32.427,-214.237 L -32.6289,-214.555 L -32.7893,-214.896 L -32.9057,-215.254 L -32.9763,-215.624
 L -33,-216 L -32.9763,-216.376 L -32.9057,-216.746 L -32.7893,-217.104 L -32.6289,-217.445 L -32.427,-217.763
 L -32.1869,-218.054 L -31.9123,-218.312 L -31.6075,-218.533 L -31.2773,-218.714 L -30.927,-218.853 L -30.5621,-218.947
 L -30.1884,-218.994 L -29.8116,-218.994 L -29.4379,-218.947 L -29.0729,-218.853 L -28.7227,-218.714 L -28.3925,-218.533
 L -28.0877,-218.312 L -27.8131,-218.054 L -27.5729,-217.763 L -27.3711,-217.445 L -27.2107,-217.104 L -27.0942,-216.746
 L -27.0237,-216.376 L -27,-216 L -27.0237,-215.624 L -27.0942,-215.254 L -27.2107,-214.896 L -27.3711,-214.555
 L -27.5729,-214.237 L -27.8131,-213.946 L -28.0877,-213.688 L -28.3925,-213.467 L -28.7227,-213.286 L -29.0729,-213.147
 L -29.4379,-213.053 L -29.8116,-213.006 z
M 32.9369,-185.089 L 33.5451,-185.245 L 34.1289,-185.476 L 34.6791,-185.778 L 35.1871,-186.147 L 35.6448,-186.577
 L 36.0451,-187.061 L 36.3815,-187.591 L 36.6489,-188.159 L 36.8429,-188.757 L 36.9606,-189.373 L 37,-190
 L 37,-194 L 36.9606,-194.627 L 36.8429,-195.243 L 36.6489,-195.841 L 36.3815,-196.409 L 36.0451,-196.939
 L 35.6448,-197.423 L 35.1871,-197.853 L 34.6791,-198.222 L 34.1289,-198.524 L 33.5451,-198.755 L 32.9369,-198.911
 L 32.3139,-198.99 L -32.3139,-198.99 L -32.9369,-198.911 L -33.5451,-198.755 L -34.1289,-198.524 L -34.6791,-198.222
 L -35.1871,-197.853 L -35.6448,-197.423 L -36.0451,-196.939 L -36.3815,-196.409 L -36.6489,-195.841 L -36.8429,-195.243
 L -36.9606,-194.627 L -37,-194 L -37,-190 L -36.9606,-189.373 L -36.8429,-188.757 L -36.6489,-188.159
 L -36.3815,-187.591 L -36.0451,-187.061 L -35.6448,-186.577 L -35.1871,-186.147 L -34.6791,-185.778 L -34.1289,-185.476
 L -33.5451,-185.245 L -32.9369,-185.089 L -32.3139,-185.01 L 32.3139,-185.01 z
M -0.18837,-189.006 L -0.562134,-189.053 L -0.927048,-189.147 L -1.27733,-189.286 L -1.60747,-189.467 L -1.91226,-189.688
 L -2.1869,-189.946 L -2.42705,-190.237 L -2.62891,-190.555 L -2.78932,-190.896 L -2.90575,-191.254 L -2.97633,-191.624
 L -3,-192 L -2.97633,-192.376 L -2.90575,-192.746 L -2.78932,-193.104 L -2.62891,-193.445 L -2.42705,-193.763
 L -2.1869,-194.054 L -1.91226,-194.312 L -1.60747,-194.533 L -1.27733,-194.714 L -0.927048,-194.853 L -0.562134,-194.947
 L -0.18837,-194.994 L 0.18837,-194.994 L 0.562134,-194.947 L 0.927048,-194.853 L 1.27733,-194.714 L 1.60747,-194.533
 L 1.91226,-194.312 L 2.1869,-194.054 L 2.42705,-193.763 L 2.62891,-193.445 L 2.78932,-193.104 L 2.90575,-192.746
 L 2.97633,-192.376 L 3,-192 L 2.97633,-191.624 L 2.90575,-191.254 L 2.78932,-190.896 L 2.62891,-190.555
 L 2.42705,-190.237 L 2.1869,-189.946 L 1.91226,-189.688 L 1.60747,-189.467 L 1.27733,-189.286 L 0.927048,-189.147
 L 0.562134,-189.053 L 0.18837,-189.006 z
M -15.1884,-189.006 L -15.5621,-189.053 L -15.927,-189.147 L -16.2773,-189.286 L -16.6075,-189.467 L -16.9123,-189.688
 L -17.1869,-189.946 L -17.427,-190.237 L -17.6289,-190.555 L -17.7893,-190.896 L -17.9057,-191.254 L -17.9763,-191.624
 L -18,-192 L -17.9763,-192.376 L -17.9057,-192.746 L -17.7893,-193.104 L -17.6289,-193.445 L -17.427,-193.763
 L -17.1869,-194.054 L -16.9123,-194.312 L -16.6075,-194.533 L -16.2773,-194.714 L -15.927,-194.853 L -15.5621,-194.947
 L -15.1884,-194.994 L -14.8116,-194.994 L -14.4379,-194.947 L -14.0729,-194.853 L -13.7227,-194.714 L -13.3925,-194.533
 L -13.0877,-194.312 L -12.8131,-194.054 L -12.5729,-193.763 L -12.3711,-193.445 L -12.2107,-193.104 L -12.0942,-192.746
 L -12.0237,-192.376 L -12,-192 L -12.0237,-191.624 L -12.0942,-191.254 L -12.2107,-190.896 L -12.3711,-190.555
 L -12.5729,-190.237 L -12.8131,-189.946 L -13.0877,-189.688 L -13.3925,-189.467 L -13.7227,-189.286 L -14.0729,-189.147
 L -14.4379,-189.053 L -14.8116,-189.006 z
M 14.8116,-189.006 L 14.4379,-189.053 L 14.0729,-189.147 L 13.7227,-189.286 L 13.3925,-189.467 L 13.0877,-189.688
 L 12.8131,-189.946 L 12.5729,-190.237 L 12.3711,-190.555 L 12.2107,-190.896 L 12.0942,-191.254 L 12.0237,-191.624
 L 12,-192 L 12.0237,-192.376 L 12.0942,-192.746 L 12.2107,-193.104 L 12.3711,-193.445 L 12.5729,-193.763
 L 12.8131,-194.054 L 13.0877,-194.312 L 13.3925,-194.533 L 13.7227,-194.714 L 14.0729,-194.853 L 14.4379,-194.947
 L 14.8116,-194.994 L 15.1884,-194.994 L 15.5621,-194.947 L 15.927,-194.853 L 16.2773,-194.714 L 16.6075,-194.533
 L 16.9123,-194.312 L 17.1869,-194.054 L 17.427,-193.763 L 17.6289,-193.445 L 17.7893,-193.104 L 17.9057,-192.746
 L 17.9763,-192.376 L 18,-192 L 17.9763,-191.624 L 17.9057,-191.254 L 17.7893,-190.896 L 17.6289,-190.555
 L 17.427,-190.237 L 17.1869,-189.946 L 16.9123,-189.688 L 16.6075,-189.467 L 16.2773,-189.286 L 15.927,-189.147
 L 15.5621,-189.053 L 15.1884,-189.006 z
M 29.8116,-189.006 L 29.4379,-189.053 L 29.0729,-189.147 L 28.7227,-189.286 L 28.3925,-189.467 L 28.0877,-189.688
 L 27.8131,-189.946 L 27.5729,-190.237 L 27.3711,-190.555 L 27.2107,-190.896 L 27.0942,-191.254 L 27.0237,-191.624
 L 27,-192 L 27.0237,-192.376 L 27.0942,-192.746 L 27.2107,-193.104 L 27.3711,-193.445 L 27.5729,-193.763
 L 27.8131,-194.054 L 28.0877,-194.312 L 28.3925,-194.533 L 28.7227,-194.714 L 29.0729,-194.853 L 29.4379,-194.947
 L 29.8116,-194.994 L 30.1884,-194.994 L 30.5621,-194.947 L 30.927,-194.853 L 31.2773,-194.714 L 31.6075,-194.533
 L 31.9123,-194.312 L 32.1869,-194.054 L 32.427,-193.763 L 32.6289,-193.445 L 32.7893,-193.104 L 32.9057,-192.746
 L 32.9763,-192.376 L 33,-192 L 32.9763,-191.624 L 32.9057,-191.254 L 32.7893,-190.896 L 32.6289,-190.555
 L 32.427,-190.237 L 32.1869,-189.946 L 31.9123,-189.688 L 31.6075,-189.467 L 31.2773,-189.286 L 30.927,-189.147
 L 30.5621,-189.053 L 30.1884,-189.006 z
M -30.1884,-189.006 L -30.5621,-189.053 L -30.927,-189.147 L -31.2773,-189.286 L -31.6075,-189.467 L -31.9123,-189.688
 L -32.1869,-189.946 L -32.427,-190.237 L -32.6289,-190.555 L -32.7893,-190.896 L -32.9057,-191.254 L -32.9763,-191.624
 L -33,-192 L -32.9763,-192.376 L -32.9057,-192.746 L -32.7893,-193.104 L -32.6289,-193.445 L -32.427,-193.763
 L -32.1869,-194.054 L -31.9123,-194.312 L -31.6075,-194.533 L -31.2773,-194.714 L -30.927,-194.853 L -30.5621,-194.947
 L -30.1884,-194.994 L -29.8116,-194.994 L -29.4379,-194.947 L -29.0729,-194.853 L -28.7227,-194.714 L -28.3925,-194.533
 L -28.0877,-194.312 L -27.8131,-194.054 L -27.5729,-193.763 L -27.3711,-193.445 L -27.2107,-193.104 L -27.0942,-192.746
 L -27.0237,-192.376 L -27,-192 L -27.0237,-191.624 L -27.0942,-191.254 L -27.2107,-190.896 L -27.3711,-190.555
 L -27.5729,-190.237 L -27.8131,-189.946 L -28.0877,-189.688 L -28.3925,-189.467 L -28.7227,-189.286 L -29.0729,-189.147
 L -29.4379,-189.053 L -29.8116,-189.006 z
M 32.9369,-161.089 L 33.5451,-161.245 L 34.1289,-161.476 L 34.6791,-161.778 L 35.1871,-162.147 L 35.6448,-162.577
 L 36.0451,-163.061 L 36.3815,-163.591 L 36.6489,-164.159 L 36.8429,-164.757 L 36.9606,-165.373 L 37,-166
 L 37,-170 L 36.9606,-170.627 L 36.8429,-171.243 L 36.6489,-171.841 L 36.3815,-172.409 L 36.0451,-172.939
 L 35.6448,-173.423 L 35.1871,-173.853 L 34.6791,-174.222 L 34.1289,-174.524 L 33.5451,-174.755 L 32.9369,-174.911
 L 32.3139,-174.99 L -32.3139,-174.99 L -32.9369,-174.911 L -33.5451,-174.755 L -34.1289,-174.524 L -34.6791,-174.222
 L -35.1871,-173.853 L -35.6448,-173.423 L -36.0451,-172.939 L -36.3815,-172.409 L -36.6489,-171.841 L -36.8429,-171.243
 L -36.9606,-170.627 L -37,-170 L -37,-166 L -36.9606,-165.373 L -36.8429,-164.757 L -36.6489,-164.159
 L -36.3815,-163.591 L -36.0451,-163.061 L -35.6448,-162.577 L -35.1871,-162.147 L -34.6791,-161.778 L -34.1289,-161.476
 L -33.5451,-161.245 L -32.9369,-161.089 L -32.3139,-161.01 L 32.3139,-161.01 z
M 14.8116,-165.006 L 14.4379,-165.053 L 14.0729,-165.147 L 13.7227,-165.286 L 13.3925,-165.467 L 13.0877,-165.688
 L 12.8131,-165.946 L 12.5729,-166.237 L 12.3711,-166.555 L 12.2107,-166.896 L 12.0942,-167.254 L 12.0237,-167.624
 L 12,-168 L 12.0237,-168.376 L 12.0942,-168.746 L 12.2107,-169.104 L 12.3711,-169.445 L 12.5729,-169.763
 L 12.8131,-170.054 L 13.0877,-170.312 L 13.3925,-170.533 L 13.7227,-170.714 L 14.0729,-170.853 L 14.4379,-170.947
 L 14.8116,-170.994 L 15.1884,-170.994 L 15.5621,-170.947 L 15.927,-170.853 L 16.2773,-170.714 L 16.6075,-170.533
 L 16.9123,-170.312 L 17.1869,-170.054 L 17.427,-169.763 L 17.6289,-169.445 L 17.7893,-169.104 L 17.9057,-168.746
 L 17.9763,-168.376 L 18,-168 L 17.9763,-167.624 L 17.9057,-167.254 L 17.7893,-166.896 L 17.6289,-166.555
 L 17.427,-166.237 L 17.1869,-165.946 L 16.9123,-165.688 L 16.6075,-165.467 L 16.2773,-165.286 L 15.927,-165.147
 L 15.5621,-165.053 L 15.1884,-165.006 z
M -0.18837,-165.006 L -0.562134,-165.053 L -0.927048,-165.147 L -1.27733,-165.286 L -1.60747,-165.467 L -1.91226,-165.688
 L -2.1869,-165.946 L -2.42705,-166.237 L -2.62891,-166.555 L -2.78932,-166.896 L -2.90575,-167.254 L -2.97633,-167.624
 L -3,-168 L -2.97633,-168.376 L -2.90575,-168.746 L -2.78932,-169.104 L -2.62891,-169.445 L -2.42705,-169.763
 L -2.1869,-170.054 L -1.91226,-170.312 L -1.60747,-170.533 L -1.27733,-170.714 L -0.927048,-170.853 L -0.562134,-170.947
 L -0.18837,-170.994 L 0.18837,-170.994 L 0.562134,-170.947 L 0.927048,-170.853 L 1.27733,-170.714 L 1.60747,-170.533
 L 1.91226,-170.312 L 2.1869,-170.054 L 2.42705,-169.763 L 2.62891,-169.445 L 2.78932,-169.104 L 2.90575,-168.746
 L 2.97633,-168.376 L 3,-168 L 2.97633,-167.624 L 2.90575,-167.254 L 2.78932,-166.896 L 2.62891,-166.555
 L 2.42705,-166.237 L 2.1869,-165.946 L 1.91226,-165.688 L 1.60747,-165.467 L 1.27733,-165.286 L 0.927048,-165.147
 L 0.562134,-165.053 L 0.18837,-165.006 z
M -15.1884,-165.006 L -15.5621,-165.053 L -15.927,-165.147 L -16.2773,-165.286 L -16.6075,-165.467 L -16.9123,-165.688
 L -17.1869,-165.946 L -17.427,-166.237 L -17.6289,-166.555 L -17.7893,-166.896 L -17.9057,-167.254 L -17.9763,-167.624
 L -18,-168 L -17.9763,-168.376 L -17.9057,-168.746 L -17.7893,-169.104 L -17.6289,-169.445 L -17.427,-169.763
 L -17.1869,-170.054 L -16.9123,-170.312 L -16.6075,-170.533 L -16.2773,-170.714 L -15.927,-170.853 L -15.5621,-170.947
 L -15.1884,-170.994 L -14.8116,-170.994 L -14.4379,-170.947 L -14.0729,-170.853 L -13.7227,-170.714 L -13.3925,-170.533
 L -13.0877,-170.312 L -12.8131,-170.054 L -12.5729,-169.763 L -12.3711,-169.445 L -12.2107,-169.104 L -12.0942,-168.746
 L -12.0237,-168.376 L -12,-168 L -12.0237,-167.624 L -12.0942,-167.254 L -12.2107,-166.896 L -12.3711,-166.555
 L -12.5729,-166.237 L -12.8131,-165.946 L -13.0877,-165.688 L -13.3925,-165.467 L -13.7227,-165.286 L -14.0729,-165.147
 L -14.4379,-165.053 L -14.8116,-165.006 z
M 29.8116,-165.006 L 29.4379,-165.053 L 29.0729,-165.147 L 28.7227,-165.286 L 28.3925,-165.467 L 28.0877,-165.688
 L 27.8131,-165.946 L 27.5729,-166.237 L 27.3711,-166.555 L 27.2107,-166.896 L 27.0942,-167.254 L 27.0237,-167.624
 L 27,-168 L 27.0237,-168.376 L 27.0942,-168.746 L 27.2107,-169.104 L 27.3711,-169.445 L 27.5729,-169.763
 L 27.8131,-170.054 L 28.0877,-170.312 L 28.3925,-170.533 L 28.7227,-170.714 L 29.0729,-170.853 L 29.4379,-170.947
 L 29.8116,-170.994 L 30.1884,-170.994 L 30.5621,-170.947 L 30.927,-170.853 L 31.2773,-170.714 L 31.6075,-170.533
 L 31.9123,-170.312 L 32.1869,-170.054 L 32.427,-169.763 L 32.6289,-169.445 L 32.7893,-169.104 L 32.9057,-168.746
 L 32.9763,-168.376 L 33,-168 L 32.9763,-167.624 L 32.9057,-167.254 L 32.7893,-166.896 L 32.6289,-166.555
 L 32.427,-166.237 L 32.1869,-165.946 L 31.9123,-165.688 L 31.6075,-165.467 L 31.2773,-165.286 L 30.927,-165.147
 L 30.5621,-165.053 L 30.1884,-165.006 z
M -30.1884,-165.006 L -30.5621,-165.053 L -30.927,-165.147 L -31.2773,-165.286 L -31.6075,-165.467 L -31.9123,-165.688
 L -32.1869,-165.946 L -32.427,-166.237 L -32.6289,-166.555 L -32.7893,-166.896 L -32.9057,-167.254 L -32.9763,-167.624
 L -33,-168 L -32.9763,-168.376 L -32.9057,-168.746 L -32.7893,-169.104 L -32.6289,-169.445 L -32.427,-169.763
 L -32.1869,-170.054 L -31.9123,-170.312 L -31.6075,-170.533 L -31.2773,-170.714 L -30.927,-170.853 L -30.5621,-170.947
 L -30.1884,-170.994 L -29.8116,-170.994 L -29.4379,-170.947 L -29.0729,-170.853 L -28.7227,-170.714 L -28.3925,-170.533
 L -28.0877,-170.312 L -27.8131,-170.054 L -27.5729,-169.763 L -27.3711,-169.445 L -27.2107,-169.104 L -27.0942,-168.746
 L -27.0237,-168.376 L -27,-168 L -27.0237,-167.624 L -27.0942,-167.254 L -27.2107,-166.896 L -27.3711,-166.555
 L -27.5729,-166.237 L -27.8131,-165.946 L -28.0877,-165.688 L -28.3925,-165.467 L -28.7227,-165.286 L -29.0729,-165.147
 L -29.4379,-165.053 L -29.8116,-165.006 z
M 32.9369,-137.089 L 33.5451,-137.245 L 34.1289,-137.476 L 34.6791,-137.778 L 35.1871,-138.147 L 35.6448,-138.577
 L 36.0451,-139.061 L 36.3815,-139.591 L 36.6489,-140.159 L 36.8429,-140.757 L 36.9606,-141.373 L 37,-142
 L 37,-146 L 36.9606,-146.627 L 36.8429,-147.243 L 36.6489,-147.841 L 36.3815,-148.409 L 36.0451,-148.939
 L 35.6448,-149.423 L 35.1871,-149.853 L 34.6791,-150.222 L 34.1289,-150.524 L 33.5451,-150.755 L 32.9369,-150.911
 L 32.3139,-150.99 L -32.3139,-150.99 L -32.9369,-150.911 L -33.5451,-150.755 L -34.1289,-150.524 L -34.6791,-150.222
 L -35.1871,-149.853 L -35.6448,-149.423 L -36.0451,-148.939 L -36.3815,-148.409 L -36.6489,-147.841 L -36.8429,-147.243
 L -36.9606,-146.627 L -37,-146 L -37,-142 L -36.9606,-141.373 L -36.8429,-140.757 L -36.6489,-140.159
 L -36.3815,-139.591 L -36.0451,-139.061 L -35.6448,-138.577 L -35.1871,-138.147 L -34.6791,-137.778 L -34.1289,-137.476
 L -33.5451,-137.245 L -32.9369,-137.089 L -32.3139,-137.01 L 32.3139,-137.01 z
M -0.18837,-141.006 L -0.562134,-141.053 L -0.927048,-141.147 L -1.27733,-141.286 L -1.60747,-141.467 L -1.91226,-141.688
 L -2.1869,-141.946 L -2.42705,-142.237 L -2.62891,-142.555 L -2.78932,-142.896 L -2.90575,-143.254 L -2.97633,-143.624
 L -3,-144 L -2.97633,-144.376 L -2.90575,-144.746 L -2.78932,-145.104 L -2.62891,-145.445 L -2.42705,-145.763
 L -2.1869,-146.054 L -1.91226,-146.312 L -1.60747,-146.533 L -1.27733,-146.714 L -0.927048,-146.853 L -0.562134,-146.947
 L -0.18837,-146.994 L 0.18837,-146.994 L 0.562134,-146.947 L 0.927048,-146.853 L 1.27733,-146.714 L 1.60747,-146.533
 L 1.91226,-146.312 L 2.1869,-146.054 L 2.42705,-145.763 L 2.62891,-145.445 L 2.78932,-145.104 L 2.90575,-144.746
 L 2.97633,-144.376 L 3,-144 L 2.97633,-143.624 L 2.90575,-143.254 L 2.78932,-142.896 L 2.62891,-142.555
 L 2.42705,-142.237 L 2.1869,-141.946 L 1.91226,-141.688 L 1.60747,-141.467 L 1.27733,-141.286 L 0.927048,-141.147
 L 0.562134,-141.053 L 0.18837,-141.006 z
M -15.1884,-141.006 L -15.5621,-141.053 L -15.927,-141.147 L -16.2773,-141.286 L -16.6075,-141.467 L -16.9123,-141.688
 L -17.1869,-141.946 L -17.427,-142.237 L -17.6289,-142.555 L -17.7893,-142.896 L -17.9057,-143.254 L -17.9763,-143.624
 L -18,-144 L -17.9763,-144.376 L -17.9057,-144.746 L -17.7893,-145.104 L -17.6289,-145.445 L -17.427,-145.763
 L -17.1869,-146.054 L -16.9123,-146.312 L -16.6075,-146.533 L -16.2773,-146.714 L -15.927,-146.853 L -15.5621,-146.947
 L -15.1884,-146.994 L -14.8116,-146.994 L -14.4379,-146.947 L -14.0729,-146.853 L -13.7227,-146.714 L -13.3925,-146.533
 L -13.0877,-146.312 L -12.8131,-146.054 L -12.5729,-145.763 L -12.3711,-145.445 L -12.2107,-145.104 L -12.0942,-144.746
 L -12.0237,-144.376 L -12,-144 L -12.0237,-143.624 L -12.0942,-143.254 L -12.2107,-142.896 L -12.3711,-142.555
 L -12.5729,-142.237 L -12.8131,-141.946 L -13.0877,-141.688 L -13.3925,-141.467 L -13.7227,-141.286 L -14.0729,-141.147
 L -14.4379,-141.053 L -14.8116,-141.006 z
M 14.8116,-141.006 L 14.4379,-141.053 L 14.0729,-141.147 L 13.7227,-141.286 L 13.3925,-141.467 L 13.0877,-141.688
 L 12.8131,-141.946 L 12.5729,-142.237 L 12.3711,-142.555 L 12.2107,-142.896 L 12.0942,-143.254 L 12.0237,-143.624
 L 12,-144 L 12.0237,-144.376 L 12.0942,-144.746 L 12.2107,-145.104 L 12.3711,-145.445 L 12.5729,-145.763
 L 12.8131,-146.054 L 13.0877,-146.312 L 13.3925,-146.533 L 13.7227,-146.714 L 14.0729,-146.853 L 14.4379,-146.947
 L 14.8116,-146.994 L 15.1884,-146.994 L 15.5621,-146.947 L 15.927,-146.853 L 16.2773,-146.714 L 16.6075,-146.533
 L 16.9123,-146.312 L 17.1869,-146.054 L 17.427,-145.763 L 17.6289,-145.445 L 17.7893,-145.104 L 17.9057,-144.746
 L 17.9763,-144.376 L 18,-144 L 17.9763,-143.624 L 17.9057,-143.254 L 17.7893,-142.896 L 17.6289,-142.555
 L 17.427,-142.237 L 17.1869,-141.946 L 16.9123,-141.688 L 16.6075,-141.467 L 16.2773,-141.286 L 15.927,-141.147
 L 15.5621,-141.053 L 15.1884,-141.006 z
M 29.8116,-141.006 L 29.4379,-141.053 L 29.0729,-141.147 L 28.7227,-141.286 L 28.3925,-141.467 L 28.0877,-141.688
 L 27.8131,-141.946 L 27.5729,-142.237 L 27.3711,-142.555 L 27.2107,-142.896 L 27.0942,-143.254 L 27.0237,-143.624
 L 27,-144 L 27.0237,-144.376 L 27.0942,-144.746 L 27.2107,-145.104 L 27.3711,-145.445 L 27.5729,-145.763
 L 27.8131,-146.054 L 28.0877,-146.312 L 28.3925,-146.533 L 28.7227,-146.714 L 29.0729,-146.853 L 29.4379,-146.947
 L 29.8116,-146.994 L 30.1884,-146.994 L 30.5621,-146.947 L 30.927,-146.853 L 31.2773,-146.714 L 31.6075,-146.533
 L 31.9123,-146.312 L 32.1869,-146.054 L 32.427,-145.763 L 32.6289,-145.445 L 32.7893,-145.104 L 32.9057,-144.746
 L 32.9763,-144.376 L 33,-144 L 32.9763,-143.624 L 32.9057,-143.254 L 32.7893,-142.896 L 32.6289,-142.555
 L 32.427,-142.237 L 32.1869,-141.946 L 31.9123,-141.688 L 31.6075,-141.467 L 31.2773,-141.286 L 30.927,-141.147
 L 30.5621,-141.053 L 30.1884,-141.006 z
M -30.1884,-141.006 L -30.5621,-141.053 L -30.927,-141.147 L -31.2773,-141.286 L -31.6075,-141.467 L -31.9123,-141.688
 L -32.1869,-141.946 L -32.427,-142.237 L -32.6289,-142.555 L -32.7893,-142.896 L -32.9057,-143.254 L -32.9763,-143.624
 L -33,-144 L -32.9763,-144.376 L -32.9057,-144.746 L -32.7893,-145.104 L -32.6289,-145.445 L -32.427,-145.763
 L -32.1869,-146.054 L -31.9123,-146.312 L -31.6075,-146.533 L -31.2773,-146.714 L -30.927,-146.853 L -30.5621,-146.947
 L -30.1884,-146.994 L -29.8116,-146.994 L -29.4379,-146.947 L -29.0729,-146.853 L -28.7227,-146.714 L -28.3925,-146.533
 L -28.0877,-146.312 L -27.8131,-146.054 L -27.5729,-145.763 L -27.3711,-145.445 L -27.2107,-145.104 L -27.0942,-144.746
 L -27.0237,-144.376 L -27,-144 L -27.0237,-143.624 L -27.0942,-143.254 L -27.2107,-142.896 L -27.3711,-142.555
 L -27.5729,-142.237 L -27.8131,-141.946 L -28.0877,-141.688 L -28.3925,-141.467 L -28.7227,-141.286 L -29.0729,-141.147
 L -29.4379,-141.053 L -29.8116,-141.006 z
M 32.9369,-113.089 L 33.5451,-113.245 L 34.1289,-113.476 L 34.6791,-113.778 L 35.1871,-114.147 L 35.6448,-114.577
 L 36.0451,-115.061 L 36.3815,-115.591 L 36.6489,-116.159 L 36.8429,-116.757 L 36.9606,-117.373 L 37,-118
 L 37,-122 L 36.9606,-122.627 L 36.8429,-123.243 L 36.6489,-123.841 L 36.3815,-124.409 L 36.0451,-124.939
 L 35.6448,-125.423 L 35.1871,-125.853 L 34.6791,-126.222 L 34.1289,-126.524 L 33.5451,-126.755 L 32.9369,-126.911
 L 32.3139,-126.99 L -32.3139,-126.99 L -32.9369,-126.911 L -33.5451,-126.755 L -34.1289,-126.524 L -34.6791,-126.222
 L -35.1871,-125.853 L -35.6448,-125.423 L -36.0451,-124.939 L -36.3815,-124.409 L -36.6489,-123.841 L -36.8429,-123.243
 L -36.9606,-122.627 L -37,-122 L -37,-118 L -36.9606,-117.373 L -36.8429,-116.757 L -36.6489,-116.159
 L -36.3815,-115.591 L -36.0451,-115.061 L -35.6448,-114.577 L -35.1871,-114.147 L -34.6791,-113.778 L -34.1289,-113.476
 L -33.5451,-113.245 L -32.9369,-113.089 L -32.3139,-113.01 L 32.3139,-113.01 z
M -0.18837,-117.006 L -0.562134,-117.053 L -0.927048,-117.147 L -1.27733,-117.286 L -1.60747,-117.467 L -1.91226,-117.688
 L -2.1869,-117.946 L -2.42705,-118.237 L -2.62891,-118.555 L -2.78932,-118.896 L -2.90575,-119.254 L -2.97633,-119.624
 L -3,-120 L -2.97633,-120.376 L -2.90575,-120.746 L -2.78932,-121.104 L -2.62891,-121.445 L -2.42705,-121.763
 L -2.1869,-122.054 L -1.91226,-122.312 L -1.60747,-122.533 L -1.27733,-122.714 L -0.927048,-122.853 L -0.562134,-122.947
 L -0.18837,-122.994 L 0.18837,-122.994 L 0.562134,-122.947 L 0.927048,-122.853 L 1.27733,-122.714 L 1.60747,-122.533
 L 1.91226,-122.312 L 2.1869,-122.054 L 2.42705,-121.763 L 2.62891,-121.445 L 2.78932,-121.104 L 2.90575,-120.746
 L 2.97633,-120.376 L 3,-120 L 2.97633,-119.624 L 2.90575,-119.254 L 2.78932,-118.896 L 2.62891,-118.555
 L 2.42705,-118.237 L 2.1869,-117.946 L 1.91226,-117.688 L 1.60747,-117.467 L 1.27733,-117.286 L 0.927048,-117.147
 L 0.562134,-117.053 L 0.18837,-117.006 z
M -15.1884,-117.006 L -15.5621,-117.053 L -15.927,-117.147 L -16.2773,-117.286 L -16.6075,-117.467 L -16.9123,-117.688
 L -17.1869,-117.946 L -17.427,-118.237 L -17.6289,-118.555 L -17.7893,-118.896 L -17.9057,-119.254 L -17.9763,-119.624
 L -18,-120 L -17.9763,-120.376 L -17.9057,-120.746 L -17.7893,-121.104 L -17.6289,-121.445 L -17.427,-121.763
 L -17.1869,-122.054 L -16.9123,-122.312 L -16.6075,-122.533 L -16.2773,-122.714 L -15.927,-122.853 L -15.5621,-122.947
 L -15.1884,-122.994 L -14.8116,-122.994 L -14.4379,-122.947 L -14.0729,-122.853 L -13.7227,-122.714 L -13.3925,-122.533
 L -13.0877,-122.312 L -12.8131,-122.054 L -12.5729,-121.763 L -12.3711,-121.445 L -12.2107,-121.104 L -12.0942,-120.746
 L -12.0237,-120.376 L -12,-120 L -12.0237,-119.624 L -12.0942,-119.254 L -12.2107,-118.896 L -12.3711,-118.555
 L -12.5729,-118.237 L -12.8131,-117.946 L -13.0877,-117.688 L -13.3925,-117.467 L -13.7227,-117.286 L -14.0729,-117.147
 L -14.4379,-117.053 L -14.8116,-117.006 z
M 14.8116,-117.006 L 14.4379,-117.053 L 14.0729,-117.147 L 13.7227,-117.286 L 13.3925,-117.467 L 13.0877,-117.688
 L 12.8131,-117.946 L 12.5729,-118.237 L 12.3711,-118.555 L 12.2107,-118.896 L 12.0942,-119.254 L 12.0237,-119.624
 L 12,-120 L 12.0237,-120.376 L 12.0942,-120.746 L 12.2107,-121.104 L 12.3711,-121.445 L 12.5729,-121.763
 L 12.8131,-122.054 L 13.0877,-122.312 L 13.3925,-122.533 L 13.7227,-122.714 L 14.0729,-122.853 L 14.4379,-122.947
 L 14.8116,-122.994 L 15.1884,-122.994 L 15.5621,-122.947 L 15.927,-122.853 L 16.2773,-122.714 L 16.6075,-122.533
 L 16.9123,-122.312 L 17.1869,-122.054 L 17.427,-121.763 L 17.6289,-121.445 L 17.7893,-121.104 L 17.9057,-120.746
 L 17.9763,-120.376 L 18,-120 L 17.9763,-119.624 L 17.9057,-119.254 L 17.7893,-118.896 L 17.6289,-118.555
 L 17.427,-118.237 L 17.1869,-117.946 L 16.9123,-117.688 L 16.6075,-117.467 L 16.2773,-117.286 L 15.927,-117.147
 L 15.5621,-117.053 L 15.1884,-117.006 z
M 29.8116,-117.006 L 29.4379,-117.053 L 29.0729,-117.147 L 28.7227,-117.286 L 28.3925,-117.467 L 28.0877,-117.688
 L 27.8131,-117.946 L 27.5729,-118.237 L 27.3711,-118.555 L 27.2107,-118.896 L 27.0942,-119.254 L 27.0237,-119.624
 L 27,-120 L 27.0237,-120.376 L 27.0942,-120.746 L 27.2107,-121.104 L 27.3711,-121.445 L 27.5729,-121.763
 L 27.8131,-122.054 L 28.0877,-122.312 L 28.3925,-122.533 L 28.7227,-122.714 L 29.0729,-122.853 L 29.4379,-122.947
 L 29.8116,-122.994 L 30.1884,-122.994 L 30.5621,-122.947 L 30.927,-122.853 L 31.2773,-122.714 L 31.6075,-122.533
 L 31.9123,-122.312 L 32.1869,-122.054 L 32.427,-121.763 L 32.6289,-121.445 L 32.7893,-121.104 L 32.9057,-120.746
 L 32.9763,-120.376 L 33,-120 L 32.9763,-119.624 L 32.9057,-119.254 L 32.7893,-118.896 L 32.6289,-118.555
 L 32.427,-118.237 L 32.1869,-117.946 L 31.9123,-117.688 L 31.6075,-117.467 L 31.2773,-117.286 L 30.927,-117.147
 L 30.5621,-117.053 L 30.1884,-117.006 z
M -30.1884,-117.006 L -30.5621,-117.053 L -30.927,-117.147 L -31.2773,-117.286 L -31.6075,-117.467 L -31.9123,-117.688
 L -32.1869,-117.946 L -32.427,-118.237 L -32.6289,-118.555 L -32.7893,-118.896 L -32.9057,-119.254 L -32.9763,-119.624
 L -33,-120 L -32.9763,-120.376 L -32.9057,-120.746 L -32.7893,-121.104 L -32.6289,-121.445 L -32.427,-121.763
 L -32.1869,-122.054 L -31.9123,-122.312 L -31.6075,-122.533 L -31.2773,-122.714 L -30.927,-122.853 L -30.5621,-122.947
 L -30.1884,-122.994 L -29.8116,-122.994 L -29.4379,-122.947 L -29.0729,-122.853 L -28.7227,-122.714 L -28.3925,-122.533
 L -28.0877,-122.312 L -27.8131,-122.054 L -27.5729,-121.763 L -27.3711,-121.445 L -27.2107,-121.104 L -27.0942,-120.746
 L -27.0237,-120.376 L -27,-120 L -27.0237,-119.624 L -27.0942,-119.254 L -27.2107,-118.896 L -27.3711,-118.555
 L -27.5729,-118.237 L -27.8131,-117.946 L -28.0877,-117.688 L -28.3925,-117.467 L -28.7227,-117.286 L -29.0729,-117.147
 L -29.4379,-117.053 L -29.8116,-117.006 z
" stroke="black" fill="lightgray" stroke-width="0.5"/>
</svg>
