  0
SECTION
  2
BLOCKS
  0
ENDSEC
  0
SECTION
  2
ENTITIES
  0
LINE
  8
0
 10
1.31166
 20
329.124
 11
2.16312
 21
329.343
  0
LINE
  8
0
 10
2.16312
 20
329.343
 11
2.98045
 21
329.666
  0
LINE
  8
0
 10
2.98045
 20
329.666
 11
3.75078
 21
330.09
  0
LINE
  8
0
 10
3.75078
 20
330.09
 11
4.46196
 21
330.606
  0
LINE
  8
0
 10
4.46196
 20
330.606
 11
5.10277
 21
331.208
  0
LINE
  8
0
 10
5.10277
 20
331.208
 11
5.66312
 21
331.886
  0
LINE
  8
0
 10
5.66312
 20
331.886
 11
6.13414
 21
332.628
  0
LINE
  8
0
 10
6.13414
 20
332.628
 11
6.50842
 21
333.423
  0
LINE
  8
0
 10
6.50842
 20
333.423
 11
6.78008
 21
334.259
  0
LINE
  8
0
 10
6.78008
 20
334.259
 11
6.94479
 21
335.123
  0
LINE
  8
0
 10
6.94479
 20
335.123
 11
7
 21
336
  0
LINE
  8
0
 10
7
 20
336
 11
6.94479
 21
336.877
  0
LINE
  8
0
 10
6.94479
 20
336.877
 11
6.78008
 21
337.741
  0
LINE
  8
0
 10
6.78008
 20
337.741
 11
6.50842
 21
338.577
  0
LINE
  8
0
 10
6.50842
 20
338.577
 11
6.13414
 21
339.372
  0
LINE
  8
0
 10
6.13414
 20
339.372
 11
5.66312
 21
340.114
  0
LINE
  8
0
 10
5.66312
 20
340.114
 11
5.10277
 21
340.792
  0
LINE
  8
0
 10
5.10277
 20
340.792
 11
4.46196
 21
341.394
  0
LINE
  8
0
 10
4.46196
 20
341.394
 11
3.75078
 21
341.91
  0
LINE
  8
0
 10
3.75078
 20
341.91
 11
2.98045
 21
342.334
  0
LINE
  8
0
 10
2.98045
 20
342.334
 11
2.16312
 21
342.657
  0
LINE
  8
0
 10
2.16312
 20
342.657
 11
1.31166
 21
342.876
  0
LINE
  8
0
 10
1.31166
 20
342.876
 11
0.439529
 21
342.986
  0
LINE
  8
0
 10
0.439529
 20
342.986
 11
-0.439529
 21
342.986
  0
LINE
  8
0
 10
-0.439529
 20
342.986
 11
-1.31166
 21
342.876
  0
LINE
  8
0
 10
-1.31166
 20
342.876
 11
-2.16312
 21
342.657
  0
LINE
  8
0
 10
-2.16312
 20
342.657
 11
-2.98045
 21
342.334
  0
LINE
  8
0
 10
-2.98045
 20
342.334
 11
-3.75078
 21
341.91
  0
LINE
  8
0
 10
-3.75078
 20
341.91
 11
-4.46196
 21
341.394
  0
LINE
  8
0
 10
-4.46196
 20
341.394
 11
-5.10277
 21
340.792
  0
LINE
  8
0
 10
-5.10277
 20
340.792
 11
-5.66312
 21
340.114
  0
LINE
  8
0
 10
-5.66312
 20
340.114
 11
-6.13414
 21
339.372
  0
LINE
  8
0
 10
-6.13414
 20
339.372
 11
-6.50842
 21
338.577
  0
LINE
  8
0
 10
-6.50842
 20
338.577
 11
-6.78008
 21
337.741
  0
LINE
  8
0
 10
-6.78008
 20
337.741
 11
-6.94479
 21
336.877
  0
LINE
  8
0
 10
-6.94479
 20
336.877
 11
-7
 21
336
  0
LINE
  8
0
 10
-7
 20
336
 11
-6.94479
 21
335.123
  0
LINE
  8
0
 10
-6.94479
 20
335.123
 11
-6.78008
 21
334.259
  0
LINE
  8
0
 10
-6.78008
 20
334.259
 11
-6.50842
 21
333.423
  0
LINE
  8
0
 10
-6.50842
 20
333.423
 11
-6.13414
 21
332.628
  0
LINE
  8
0
 10
-6.13414
 20
332.628
 11
-5.66312
 21
331.886
  0
LINE
  8
0
 10
-5.66312
 20
331.886
 11
-5.10277
 21
331.208
  0
LINE
  8
0
 10
-5.10277
 20
331.208
 11
-4.46196
 21
330.606
  0
LINE
  8
0
 10
-4.46196
 20
330.606
 11
-3.75078
 21
330.09
  0
LINE
  8
0
 10
-3.75078
 20
330.09
 11
-2.98045
 21
329.666
  0
LINE
  8
0
 10
-2.98045
 20
329.666
 11
-2.16312
 21
329.343
  0
LINE
  8
0
 10
-2.16312
 20
329.343
 11
-1.31166
 21
329.124
  0
LINE
  8
0
 10
-1.31166
 20
329.124
 11
-0.439529
 21
329.014
  0
LINE
  8
0
 10
-0.439529
 20
329.014
 11
0.439529
 21
329.014
  0
LINE
  8
0
 10
0.439529
 20
329.014
 11
1.31166
 21
329.124
  0
LINE
  8
0
 10
-0.0941772
 20
334.503
 11
-0.281067
 21
334.527
  0
LINE
  8
0
 10
-0.281067
 20
334.527
 11
-0.463516
 21
334.573
  0
LINE
  8
0
 10
-0.463516
 20
334.573
 11
-0.638657
 21
334.643
  0
LINE
  8
0
 10
-0.638657
 20
334.643
 11
-0.803726
 21
334.734
  0
LINE
  8
0
 10
-0.803726
 20
334.734
 11
-0.956131
 21
334.844
  0
LINE
  8
0
 10
-0.956131
 20
334.844
 11
-1.09344
 21
334.973
  0
LINE
  8
0
 10
-1.09344
 20
334.973
 11
-1.21352
 21
335.118
  0
LINE
  8
0
 10
-1.21352
 20
335.118
 11
-1.31445
 21
335.277
  0
LINE
  8
0
 10
-1.31445
 20
335.277
 11
-1.39465
 21
335.448
  0
LINE
  8
0
 10
-1.39465
 20
335.448
 11
-1.45287
 21
335.627
  0
LINE
  8
0
 10
-1.45287
 20
335.627
 11
-1.48816
 21
335.812
  0
LINE
  8
0
 10
-1.48816
 20
335.812
 11
-1.5
 21
336
  0
LINE
  8
0
 10
-1.5
 20
336
 11
-1.48816
 21
336.188
  0
LINE
  8
0
 10
-1.48816
 20
336.188
 11
-1.45287
 21
336.373
  0
LINE
  8
0
 10
-1.45287
 20
336.373
 11
-1.39465
 21
336.552
  0
LINE
  8
0
 10
-1.39465
 20
336.552
 11
-1.31445
 21
336.723
  0
LINE
  8
0
 10
-1.31445
 20
336.723
 11
-1.21352
 21
336.882
  0
LINE
  8
0
 10
-1.21352
 20
336.882
 11
-1.09344
 21
337.027
  0
LINE
  8
0
 10
-1.09344
 20
337.027
 11
-0.956131
 21
337.156
  0
LINE
  8
0
 10
-0.956131
 20
337.156
 11
-0.803726
 21
337.266
  0
LINE
  8
0
 10
-0.803726
 20
337.266
 11
-0.638657
 21
337.357
  0
LINE
  8
0
 10
-0.638657
 20
337.357
 11
-0.463516
 21
337.427
  0
LINE
  8
0
 10
-0.463516
 20
337.427
 11
-0.281067
 21
337.473
  0
LINE
  8
0
 10
-0.281067
 20
337.473
 11
-0.0941772
 21
337.497
  0
LINE
  8
0
 10
-0.0941772
 20
337.497
 11
0.0941772
 21
337.497
  0
LINE
  8
0
 10
0.0941772
 20
337.497
 11
0.281067
 21
337.473
  0
LINE
  8
0
 10
0.281067
 20
337.473
 11
0.463516
 21
337.427
  0
LINE
  8
0
 10
0.463516
 20
337.427
 11
0.638657
 21
337.357
  0
LINE
  8
0
 10
0.638657
 20
337.357
 11
0.803726
 21
337.266
  0
LINE
  8
0
 10
0.803726
 20
337.266
 11
0.956131
 21
337.156
  0
LINE
  8
0
 10
0.956131
 20
337.156
 11
1.09344
 21
337.027
  0
LINE
  8
0
 10
1.09344
 20
337.027
 11
1.21352
 21
336.882
  0
LINE
  8
0
 10
1.21352
 20
336.882
 11
1.31445
 21
336.723
  0
LINE
  8
0
 10
1.31445
 20
336.723
 11
1.39465
 21
336.552
  0
LINE
  8
0
 10
1.39465
 20
336.552
 11
1.45287
 21
336.373
  0
LINE
  8
0
 10
1.45287
 20
336.373
 11
1.48816
 21
336.188
  0
LINE
  8
0
 10
1.48816
 20
336.188
 11
1.5
 21
336
  0
LINE
  8
0
 10
1.5
 20
336
 11
1.48816
 21
335.812
  0
LINE
  8
0
 10
1.48816
 20
335.812
 11
1.45287
 21
335.627
  0
LINE
  8
0
 10
1.45287
 20
335.627
 11
1.39465
 21
335.448
  0
LINE
  8
0
 10
1.39465
 20
335.448
 11
1.31445
 21
335.277
  0
LINE
  8
0
 10
1.31445
 20
335.277
 11
1.21352
 21
335.118
  0
LINE
  8
0
 10
1.21352
 20
335.118
 11
1.09344
 21
334.973
  0
LINE
  8
0
 10
1.09344
 20
334.973
 11
0.956131
 21
334.844
  0
LINE
  8
0
 10
0.956131
 20
334.844
 11
0.803726
 21
334.734
  0
LINE
  8
0
 10
0.803726
 20
334.734
 11
0.638657
 21
334.643
  0
LINE
  8
0
 10
0.638657
 20
334.643
 11
0.463516
 21
334.573
  0
LINE
  8
0
 10
0.463516
 20
334.573
 11
0.281067
 21
334.527
  0
LINE
  8
0
 10
0.281067
 20
334.527
 11
0.0941772
 21
334.503
  0
LINE
  8
0
 10
0.0941772
 20
334.503
 11
-0.0941772
 21
334.503
  0
LINE
  8
0
 10
1.31166
 20
305.124
 11
2.16312
 21
305.343
  0
LINE
  8
0
 10
2.16312
 20
305.343
 11
2.98045
 21
305.666
  0
LINE
  8
0
 10
2.98045
 20
305.666
 11
3.75078
 21
306.09
  0
LINE
  8
0
 10
3.75078
 20
306.09
 11
4.46196
 21
306.606
  0
LINE
  8
0
 10
4.46196
 20
306.606
 11
5.10277
 21
307.208
  0
LINE
  8
0
 10
5.10277
 20
307.208
 11
5.66312
 21
307.886
  0
LINE
  8
0
 10
5.66312
 20
307.886
 11
6.13414
 21
308.628
  0
LINE
  8
0
 10
6.13414
 20
308.628
 11
6.50842
 21
309.423
  0
LINE
  8
0
 10
6.50842
 20
309.423
 11
6.78008
 21
310.259
  0
LINE
  8
0
 10
6.78008
 20
310.259
 11
6.94479
 21
311.123
  0
LINE
  8
0
 10
6.94479
 20
311.123
 11
7
 21
312
  0
LINE
  8
0
 10
7
 20
312
 11
6.94479
 21
312.877
  0
LINE
  8
0
 10
6.94479
 20
312.877
 11
6.78008
 21
313.741
  0
LINE
  8
0
 10
6.78008
 20
313.741
 11
6.50842
 21
314.577
  0
LINE
  8
0
 10
6.50842
 20
314.577
 11
6.13414
 21
315.372
  0
LINE
  8
0
 10
6.13414
 20
315.372
 11
5.66312
 21
316.114
  0
LINE
  8
0
 10
5.66312
 20
316.114
 11
5.10277
 21
316.792
  0
LINE
  8
0
 10
5.10277
 20
316.792
 11
4.46196
 21
317.394
  0
LINE
  8
0
 10
4.46196
 20
317.394
 11
3.75078
 21
317.91
  0
LINE
  8
0
 10
3.75078
 20
317.91
 11
2.98045
 21
318.334
  0
LINE
  8
0
 10
2.98045
 20
318.334
 11
2.16312
 21
318.657
  0
LINE
  8
0
 10
2.16312
 20
318.657
 11
1.31166
 21
318.876
  0
LINE
  8
0
 10
1.31166
 20
318.876
 11
0.439529
 21
318.986
  0
LINE
  8
0
 10
0.439529
 20
318.986
 11
-0.439529
 21
318.986
  0
LINE
  8
0
 10
-0.439529
 20
318.986
 11
-1.31166
 21
318.876
  0
LINE
  8
0
 10
-1.31166
 20
318.876
 11
-2.16312
 21
318.657
  0
LINE
  8
0
 10
-2.16312
 20
318.657
 11
-2.98045
 21
318.334
  0
LINE
  8
0
 10
-2.98045
 20
318.334
 11
-3.75078
 21
317.91
  0
LINE
  8
0
 10
-3.75078
 20
317.91
 11
-4.46196
 21
317.394
  0
LINE
  8
0
 10
-4.46196
 20
317.394
 11
-5.10277
 21
316.792
  0
LINE
  8
0
 10
-5.10277
 20
316.792
 11
-5.66312
 21
316.114
  0
LINE
  8
0
 10
-5.66312
 20
316.114
 11
-6.13414
 21
315.372
  0
LINE
  8
0
 10
-6.13414
 20
315.372
 11
-6.50842
 21
314.577
  0
LINE
  8
0
 10
-6.50842
 20
314.577
 11
-6.78008
 21
313.741
  0
LINE
  8
0
 10
-6.78008
 20
313.741
 11
-6.94479
 21
312.877
  0
LINE
  8
0
 10
-6.94479
 20
312.877
 11
-7
 21
312
  0
LINE
  8
0
 10
-7
 20
312
 11
-6.94479
 21
311.123
  0
LINE
  8
0
 10
-6.94479
 20
311.123
 11
-6.78008
 21
310.259
  0
LINE
  8
0
 10
-6.78008
 20
310.259
 11
-6.50842
 21
309.423
  0
LINE
  8
0
 10
-6.50842
 20
309.423
 11
-6.13414
 21
308.628
  0
LINE
  8
0
 10
-6.13414
 20
308.628
 11
-5.66312
 21
307.886
  0
LINE
  8
0
 10
-5.66312
 20
307.886
 11
-5.10277
 21
307.208
  0
LINE
  8
0
 10
-5.10277
 20
307.208
 11
-4.46196
 21
306.606
  0
LINE
  8
0
 10
-4.46196
 20
306.606
 11
-3.75078
 21
306.09
  0
LINE
  8
0
 10
-3.75078
 20
306.09
 11
-2.98045
 21
305.666
  0
LINE
  8
0
 10
-2.98045
 20
305.666
 11
-2.16312
 21
305.343
  0
LINE
  8
0
 10
-2.16312
 20
305.343
 11
-1.31166
 21
305.124
  0
LINE
  8
0
 10
-1.31166
 20
305.124
 11
-0.439529
 21
305.014
  0
LINE
  8
0
 10
-0.439529
 20
305.014
 11
0.439529
 21
305.014
  0
LINE
  8
0
 10
0.439529
 20
305.014
 11
1.31166
 21
305.124
  0
LINE
  8
0
 10
-0.0941772
 20
310.503
 11
-0.281067
 21
310.527
  0
LINE
  8
0
 10
-0.281067
 20
310.527
 11
-0.463516
 21
310.573
  0
LINE
  8
0
 10
-0.463516
 20
310.573
 11
-0.638657
 21
310.643
  0
LINE
  8
0
 10
-0.638657
 20
310.643
 11
-0.803726
 21
310.734
  0
LINE
  8
0
 10
-0.803726
 20
310.734
 11
-0.956131
 21
310.844
  0
LINE
  8
0
 10
-0.956131
 20
310.844
 11
-1.09344
 21
310.973
  0
LINE
  8
0
 10
-1.09344
 20
310.973
 11
-1.21352
 21
311.118
  0
LINE
  8
0
 10
-1.21352
 20
311.118
 11
-1.31445
 21
311.277
  0
LINE
  8
0
 10
-1.31445
 20
311.277
 11
-1.39465
 21
311.448
  0
LINE
  8
0
 10
-1.39465
 20
311.448
 11
-1.45287
 21
311.627
  0
LINE
  8
0
 10
-1.45287
 20
311.627
 11
-1.48816
 21
311.812
  0
LINE
  8
0
 10
-1.48816
 20
311.812
 11
-1.5
 21
312
  0
LINE
  8
0
 10
-1.5
 20
312
 11
-1.48816
 21
312.188
  0
LINE
  8
0
 10
-1.48816
 20
312.188
 11
-1.45287
 21
312.373
  0
LINE
  8
0
 10
-1.45287
 20
312.373
 11
-1.39465
 21
312.552
  0
LINE
  8
0
 10
-1.39465
 20
312.552
 11
-1.31445
 21
312.723
  0
LINE
  8
0
 10
-1.31445
 20
312.723
 11
-1.21352
 21
312.882
  0
LINE
  8
0
 10
-1.21352
 20
312.882
 11
-1.09344
 21
313.027
  0
LINE
  8
0
 10
-1.09344
 20
313.027
 11
-0.956131
 21
313.156
  0
LINE
  8
0
 10
-0.956131
 20
313.156
 11
-0.803726
 21
313.266
  0
LINE
  8
0
 10
-0.803726
 20
313.266
 11
-0.638657
 21
313.357
  0
LINE
  8
0
 10
-0.638657
 20
313.357
 11
-0.463516
 21
313.427
  0
LINE
  8
0
 10
-0.463516
 20
313.427
 11
-0.281067
 21
313.473
  0
LINE
  8
0
 10
-0.281067
 20
313.473
 11
-0.0941772
 21
313.497
  0
LINE
  8
0
 10
-0.0941772
 20
313.497
 11
0.0941772
 21
313.497
  0
LINE
  8
0
 10
0.0941772
 20
313.497
 11
0.281067
 21
313.473
  0
LINE
  8
0
 10
0.281067
 20
313.473
 11
0.463516
 21
313.427
  0
LINE
  8
0
 10
0.463516
 20
313.427
 11
0.638657
 21
313.357
  0
LINE
  8
0
 10
0.638657
 20
313.357
 11
0.803726
 21
313.266
  0
LINE
  8
0
 10
0.803726
 20
313.266
 11
0.956131
 21
313.156
  0
LINE
  8
0
 10
0.956131
 20
313.156
 11
1.09344
 21
313.027
  0
LINE
  8
0
 10
1.09344
 20
313.027
 11
1.21352
 21
312.882
  0
LINE
  8
0
 10
1.21352
 20
312.882
 11
1.31445
 21
312.723
  0
LINE
  8
0
 10
1.31445
 20
312.723
 11
1.39465
 21
312.552
  0
LINE
  8
0
 10
1.39465
 20
312.552
 11
1.45287
 21
312.373
  0
LINE
  8
0
 10
1.45287
 20
312.373
 11
1.48816
 21
312.188
  0
LINE
  8
0
 10
1.48816
 20
312.188
 11
1.5
 21
312
  0
LINE
  8
0
 10
1.5
 20
312
 11
1.48816
 21
311.812
  0
LINE
  8
0
 10
1.48816
 20
311.812
 11
1.45287
 21
311.627
  0
LINE
  8
0
 10
1.45287
 20
311.627
 11
1.39465
 21
311.448
  0
LINE
  8
0
 10
1.39465
 20
311.448
 11
1.31445
 21
311.277
  0
LINE
  8
0
 10
1.31445
 20
311.277
 11
1.21352
 21
311.118
  0
LINE
  8
0
 10
1.21352
 20
311.118
 11
1.09344
 21
310.973
  0
LINE
  8
0
 10
1.09344
 20
310.973
 11
0.956131
 21
310.844
  0
LINE
  8
0
 10
0.956131
 20
310.844
 11
0.803726
 21
310.734
  0
LINE
  8
0
 10
0.803726
 20
310.734
 11
0.638657
 21
310.643
  0
LINE
  8
0
 10
0.638657
 20
310.643
 11
0.463516
 21
310.573
  0
LINE
  8
0
 10
0.463516
 20
310.573
 11
0.281067
 21
310.527
  0
LINE
  8
0
 10
0.281067
 20
310.527
 11
0.0941772
 21
310.503
  0
LINE
  8
0
 10
0.0941772
 20
310.503
 11
-0.0941772
 21
310.503
  0
LINE
  8
0
 10
1.31166
 20
281.124
 11
2.16312
 21
281.343
  0
LINE
  8
0
 10
2.16312
 20
281.343
 11
2.98045
 21
281.666
  0
LINE
  8
0
 10
2.98045
 20
281.666
 11
3.75078
 21
282.09
  0
LINE
  8
0
 10
3.75078
 20
282.09
 11
4.46196
 21
282.606
  0
LINE
  8
0
 10
4.46196
 20
282.606
 11
5.10277
 21
283.208
  0
LINE
  8
0
 10
5.10277
 20
283.208
 11
5.66312
 21
283.886
  0
LINE
  8
0
 10
5.66312
 20
283.886
 11
6.13414
 21
284.628
  0
LINE
  8
0
 10
6.13414
 20
284.628
 11
6.50842
 21
285.423
  0
LINE
  8
0
 10
6.50842
 20
285.423
 11
6.78008
 21
286.259
  0
LINE
  8
0
 10
6.78008
 20
286.259
 11
6.94479
 21
287.123
  0
LINE
  8
0
 10
6.94479
 20
287.123
 11
7
 21
288
  0
LINE
  8
0
 10
7
 20
288
 11
6.94479
 21
288.877
  0
LINE
  8
0
 10
6.94479
 20
288.877
 11
6.78008
 21
289.741
  0
LINE
  8
0
 10
6.78008
 20
289.741
 11
6.50842
 21
290.577
  0
LINE
  8
0
 10
6.50842
 20
290.577
 11
6.13414
 21
291.372
  0
LINE
  8
0
 10
6.13414
 20
291.372
 11
5.66312
 21
292.114
  0
LINE
  8
0
 10
5.66312
 20
292.114
 11
5.10277
 21
292.792
  0
LINE
  8
0
 10
5.10277
 20
292.792
 11
4.46196
 21
293.394
  0
LINE
  8
0
 10
4.46196
 20
293.394
 11
3.75078
 21
293.91
  0
LINE
  8
0
 10
3.75078
 20
293.91
 11
2.98045
 21
294.334
  0
LINE
  8
0
 10
2.98045
 20
294.334
 11
2.16312
 21
294.657
  0
LINE
  8
0
 10
2.16312
 20
294.657
 11
1.31166
 21
294.876
  0
LINE
  8
0
 10
1.31166
 20
294.876
 11
0.439529
 21
294.986
  0
LINE
  8
0
 10
0.439529
 20
294.986
 11
-0.439529
 21
294.986
  0
LINE
  8
0
 10
-0.439529
 20
294.986
 11
-1.31166
 21
294.876
  0
LINE
  8
0
 10
-1.31166
 20
294.876
 11
-2.16312
 21
294.657
  0
LINE
  8
0
 10
-2.16312
 20
294.657
 11
-2.98045
 21
294.334
  0
LINE
  8
0
 10
-2.98045
 20
294.334
 11
-3.75078
 21
293.91
  0
LINE
  8
0
 10
-3.75078
 20
293.91
 11
-4.46196
 21
293.394
  0
LINE
  8
0
 10
-4.46196
 20
293.394
 11
-5.10277
 21
292.792
  0
LINE
  8
0
 10
-5.10277
 20
292.792
 11
-5.66312
 21
292.114
  0
LINE
  8
0
 10
-5.66312
 20
292.114
 11
-6.13414
 21
291.372
  0
LINE
  8
0
 10
-6.13414
 20
291.372
 11
-6.50842
 21
290.577
  0
LINE
  8
0
 10
-6.50842
 20
290.577
 11
-6.78008
 21
289.741
  0
LINE
  8
0
 10
-6.78008
 20
289.741
 11
-6.94479
 21
288.877
  0
LINE
  8
0
 10
-6.94479
 20
288.877
 11
-7
 21
288
  0
LINE
  8
0
 10
-7
 20
288
 11
-6.94479
 21
287.123
  0
LINE
  8
0
 10
-6.94479
 20
287.123
 11
-6.78008
 21
286.259
  0
LINE
  8
0
 10
-6.78008
 20
286.259
 11
-6.50842
 21
285.423
  0
LINE
  8
0
 10
-6.50842
 20
285.423
 11
-6.13414
 21
284.628
  0
LINE
  8
0
 10
-6.13414
 20
284.628
 11
-5.66312
 21
283.886
  0
LINE
  8
0
 10
-5.66312
 20
283.886
 11
-5.10277
 21
283.208
  0
LINE
  8
0
 10
-5.10277
 20
283.208
 11
-4.46196
 21
282.606
  0
LINE
  8
0
 10
-4.46196
 20
282.606
 11
-3.75078
 21
282.09
  0
LINE
  8
0
 10
-3.75078
 20
282.09
 11
-2.98045
 21
281.666
  0
LINE
  8
0
 10
-2.98045
 20
281.666
 11
-2.16312
 21
281.343
  0
LINE
  8
0
 10
-2.16312
 20
281.343
 11
-1.31166
 21
281.124
  0
LINE
  8
0
 10
-1.31166
 20
281.124
 11
-0.439529
 21
281.014
  0
LINE
  8
0
 10
-0.439529
 20
281.014
 11
0.439529
 21
281.014
  0
LINE
  8
0
 10
0.439529
 20
281.014
 11
1.31166
 21
281.124
  0
LINE
  8
0
 10
-0.0941772
 20
286.503
 11
-0.281067
 21
286.527
  0
LINE
  8
0
 10
-0.281067
 20
286.527
 11
-0.463516
 21
286.573
  0
LINE
  8
0
 10
-0.463516
 20
286.573
 11
-0.638657
 21
286.643
  0
LINE
  8
0
 10
-0.638657
 20
286.643
 11
-0.803726
 21
286.734
  0
LINE
  8
0
 10
-0.803726
 20
286.734
 11
-0.956131
 21
286.844
  0
LINE
  8
0
 10
-0.956131
 20
286.844
 11
-1.09344
 21
286.973
  0
LINE
  8
0
 10
-1.09344
 20
286.973
 11
-1.21352
 21
287.118
  0
LINE
  8
0
 10
-1.21352
 20
287.118
 11
-1.31445
 21
287.277
  0
LINE
  8
0
 10
-1.31445
 20
287.277
 11
-1.39465
 21
287.448
  0
LINE
  8
0
 10
-1.39465
 20
287.448
 11
-1.45287
 21
287.627
  0
LINE
  8
0
 10
-1.45287
 20
287.627
 11
-1.48816
 21
287.812
  0
LINE
  8
0
 10
-1.48816
 20
287.812
 11
-1.5
 21
288
  0
LINE
  8
0
 10
-1.5
 20
288
 11
-1.48816
 21
288.188
  0
LINE
  8
0
 10
-1.48816
 20
288.188
 11
-1.45287
 21
288.373
  0
LINE
  8
0
 10
-1.45287
 20
288.373
 11
-1.39465
 21
288.552
  0
LINE
  8
0
 10
-1.39465
 20
288.552
 11
-1.31445
 21
288.723
  0
LINE
  8
0
 10
-1.31445
 20
288.723
 11
-1.21352
 21
288.882
  0
LINE
  8
0
 10
-1.21352
 20
288.882
 11
-1.09344
 21
289.027
  0
LINE
  8
0
 10
-1.09344
 20
289.027
 11
-0.956131
 21
289.156
  0
LINE
  8
0
 10
-0.956131
 20
289.156
 11
-0.803726
 21
289.266
  0
LINE
  8
0
 10
-0.803726
 20
289.266
 11
-0.638657
 21
289.357
  0
LINE
  8
0
 10
-0.638657
 20
289.357
 11
-0.463516
 21
289.427
  0
LINE
  8
0
 10
-0.463516
 20
289.427
 11
-0.281067
 21
289.473
  0
LINE
  8
0
 10
-0.281067
 20
289.473
 11
-0.0941772
 21
289.497
  0
LINE
  8
0
 10
-0.0941772
 20
289.497
 11
0.0941772
 21
289.497
  0
LINE
  8
0
 10
0.0941772
 20
289.497
 11
0.281067
 21
289.473
  0
LINE
  8
0
 10
0.281067
 20
289.473
 11
0.463516
 21
289.427
  0
LINE
  8
0
 10
0.463516
 20
289.427
 11
0.638657
 21
289.357
  0
LINE
  8
0
 10
0.638657
 20
289.357
 11
0.803726
 21
289.266
  0
LINE
  8
0
 10
0.803726
 20
289.266
 11
0.956131
 21
289.156
  0
LINE
  8
0
 10
0.956131
 20
289.156
 11
1.09344
 21
289.027
  0
LINE
  8
0
 10
1.09344
 20
289.027
 11
1.21352
 21
288.882
  0
LINE
  8
0
 10
1.21352
 20
288.882
 11
1.31445
 21
288.723
  0
LINE
  8
0
 10
1.31445
 20
288.723
 11
1.39465
 21
288.552
  0
LINE
  8
0
 10
1.39465
 20
288.552
 11
1.45287
 21
288.373
  0
LINE
  8
0
 10
1.45287
 20
288.373
 11
1.48816
 21
288.188
  0
LINE
  8
0
 10
1.48816
 20
288.188
 11
1.5
 21
288
  0
LINE
  8
0
 10
1.5
 20
288
 11
1.48816
 21
287.812
  0
LINE
  8
0
 10
1.48816
 20
287.812
 11
1.45287
 21
287.627
  0
LINE
  8
0
 10
1.45287
 20
287.627
 11
1.39465
 21
287.448
  0
LINE
  8
0
 10
1.39465
 20
287.448
 11
1.31445
 21
287.277
  0
LINE
  8
0
 10
1.31445
 20
287.277
 11
1.21352
 21
287.118
  0
LINE
  8
0
 10
1.21352
 20
287.118
 11
1.09344
 21
286.973
  0
LINE
  8
0
 10
1.09344
 20
286.973
 11
0.956131
 21
286.844
  0
LINE
  8
0
 10
0.956131
 20
286.844
 11
0.803726
 21
286.734
  0
LINE
  8
0
 10
0.803726
 20
286.734
 11
0.638657
 21
286.643
  0
LINE
  8
0
 10
0.638657
 20
286.643
 11
0.463516
 21
286.573
  0
LINE
  8
0
 10
0.463516
 20
286.573
 11
0.281067
 21
286.527
  0
LINE
  8
0
 10
0.281067
 20
286.527
 11
0.0941772
 21
286.503
  0
LINE
  8
0
 10
0.0941772
 20
286.503
 11
-0.0941772
 21
286.503
  0
LINE
  8
0
 10
1.31166
 20
257.124
 11
2.16312
 21
257.343
  0
LINE
  8
0
 10
2.16312
 20
257.343
 11
2.98045
 21
257.666
  0
LINE
  8
0
 10
2.98045
 20
257.666
 11
3.75078
 21
258.09
  0
LINE
  8
0
 10
3.75078
 20
258.09
 11
4.46196
 21
258.606
  0
LINE
  8
0
 10
4.46196
 20
258.606
 11
5.10277
 21
259.208
  0
LINE
  8
0
 10
5.10277
 20
259.208
 11
5.66312
 21
259.886
  0
LINE
  8
0
 10
5.66312
 20
259.886
 11
6.13414
 21
260.628
  0
LINE
  8
0
 10
6.13414
 20
260.628
 11
6.50842
 21
261.423
  0
LINE
  8
0
 10
6.50842
 20
261.423
 11
6.78008
 21
262.259
  0
LINE
  8
0
 10
6.78008
 20
262.259
 11
6.94479
 21
263.123
  0
LINE
  8
0
 10
6.94479
 20
263.123
 11
7
 21
264
  0
LINE
  8
0
 10
7
 20
264
 11
6.94479
 21
264.877
  0
LINE
  8
0
 10
6.94479
 20
264.877
 11
6.78008
 21
265.741
  0
LINE
  8
0
 10
6.78008
 20
265.741
 11
6.50842
 21
266.577
  0
LINE
  8
0
 10
6.50842
 20
266.577
 11
6.13414
 21
267.372
  0
LINE
  8
0
 10
6.13414
 20
267.372
 11
5.66312
 21
268.114
  0
LINE
  8
0
 10
5.66312
 20
268.114
 11
5.10277
 21
268.792
  0
LINE
  8
0
 10
5.10277
 20
268.792
 11
4.46196
 21
269.394
  0
LINE
  8
0
 10
4.46196
 20
269.394
 11
3.75078
 21
269.91
  0
LINE
  8
0
 10
3.75078
 20
269.91
 11
2.98045
 21
270.334
  0
LINE
  8
0
 10
2.98045
 20
270.334
 11
2.16312
 21
270.657
  0
LINE
  8
0
 10
2.16312
 20
270.657
 11
1.31166
 21
270.876
  0
LINE
  8
0
 10
1.31166
 20
270.876
 11
0.439529
 21
270.986
  0
LINE
  8
0
 10
0.439529
 20
270.986
 11
-0.439529
 21
270.986
  0
LINE
  8
0
 10
-0.439529
 20
270.986
 11
-1.31166
 21
270.876
  0
LINE
  8
0
 10
-1.31166
 20
270.876
 11
-2.16312
 21
270.657
  0
LINE
  8
0
 10
-2.16312
 20
270.657
 11
-2.98045
 21
270.334
  0
LINE
  8
0
 10
-2.98045
 20
270.334
 11
-3.75078
 21
269.91
  0
LINE
  8
0
 10
-3.75078
 20
269.91
 11
-4.46196
 21
269.394
  0
LINE
  8
0
 10
-4.46196
 20
269.394
 11
-5.10277
 21
268.792
  0
LINE
  8
0
 10
-5.10277
 20
268.792
 11
-5.66312
 21
268.114
  0
LINE
  8
0
 10
-5.66312
 20
268.114
 11
-6.13414
 21
267.372
  0
LINE
  8
0
 10
-6.13414
 20
267.372
 11
-6.50842
 21
266.577
  0
LINE
  8
0
 10
-6.50842
 20
266.577
 11
-6.78008
 21
265.741
  0
LINE
  8
0
 10
-6.78008
 20
265.741
 11
-6.94479
 21
264.877
  0
LINE
  8
0
 10
-6.94479
 20
264.877
 11
-7
 21
264
  0
LINE
  8
0
 10
-7
 20
264
 11
-6.94479
 21
263.123
  0
LINE
  8
0
 10
-6.94479
 20
263.123
 11
-6.78008
 21
262.259
  0
LINE
  8
0
 10
-6.78008
 20
262.259
 11
-6.50842
 21
261.423
  0
LINE
  8
0
 10
-6.50842
 20
261.423
 11
-6.13414
 21
260.628
  0
LINE
  8
0
 10
-6.13414
 20
260.628
 11
-5.66312
 21
259.886
  0
LINE
  8
0
 10
-5.66312
 20
259.886
 11
-5.10277
 21
259.208
  0
LINE
  8
0
 10
-5.10277
 20
259.208
 11
-4.46196
 21
258.606
  0
LINE
  8
0
 10
-4.46196
 20
258.606
 11
-3.75078
 21
258.09
  0
LINE
  8
0
 10
-3.75078
 20
258.09
 11
-2.98045
 21
257.666
  0
LINE
  8
0
 10
-2.98045
 20
257.666
 11
-2.16312
 21
257.343
  0
LINE
  8
0
 10
-2.16312
 20
257.343
 11
-1.31166
 21
257.124
  0
LINE
  8
0
 10
-1.31166
 20
257.124
 11
-0.439529
 21
257.014
  0
LINE
  8
0
 10
-0.439529
 20
257.014
 11
0.439529
 21
257.014
  0
LINE
  8
0
 10
0.439529
 20
257.014
 11
1.31166
 21
257.124
  0
LINE
  8
0
 10
-0.0941772
 20
262.503
 11
-0.281067
 21
262.527
  0
LINE
  8
0
 10
-0.281067
 20
262.527
 11
-0.463516
 21
262.573
  0
LINE
  8
0
 10
-0.463516
 20
262.573
 11
-0.638657
 21
262.643
  0
LINE
  8
0
 10
-0.638657
 20
262.643
 11
-0.803726
 21
262.734
  0
LINE
  8
0
 10
-0.803726
 20
262.734
 11
-0.956131
 21
262.844
  0
LINE
  8
0
 10
-0.956131
 20
262.844
 11
-1.09344
 21
262.973
  0
LINE
  8
0
 10
-1.09344
 20
262.973
 11
-1.21352
 21
263.118
  0
LINE
  8
0
 10
-1.21352
 20
263.118
 11
-1.31445
 21
263.277
  0
LINE
  8
0
 10
-1.31445
 20
263.277
 11
-1.39465
 21
263.448
  0
LINE
  8
0
 10
-1.39465
 20
263.448
 11
-1.45287
 21
263.627
  0
LINE
  8
0
 10
-1.45287
 20
263.627
 11
-1.48816
 21
263.812
  0
LINE
  8
0
 10
-1.48816
 20
263.812
 11
-1.5
 21
264
  0
LINE
  8
0
 10
-1.5
 20
264
 11
-1.48816
 21
264.188
  0
LINE
  8
0
 10
-1.48816
 20
264.188
 11
-1.45287
 21
264.373
  0
LINE
  8
0
 10
-1.45287
 20
264.373
 11
-1.39465
 21
264.552
  0
LINE
  8
0
 10
-1.39465
 20
264.552
 11
-1.31445
 21
264.723
  0
LINE
  8
0
 10
-1.31445
 20
264.723
 11
-1.21352
 21
264.882
  0
LINE
  8
0
 10
-1.21352
 20
264.882
 11
-1.09344
 21
265.027
  0
LINE
  8
0
 10
-1.09344
 20
265.027
 11
-0.956131
 21
265.156
  0
LINE
  8
0
 10
-0.956131
 20
265.156
 11
-0.803726
 21
265.266
  0
LINE
  8
0
 10
-0.803726
 20
265.266
 11
-0.638657
 21
265.357
  0
LINE
  8
0
 10
-0.638657
 20
265.357
 11
-0.463516
 21
265.427
  0
LINE
  8
0
 10
-0.463516
 20
265.427
 11
-0.281067
 21
265.473
  0
LINE
  8
0
 10
-0.281067
 20
265.473
 11
-0.0941772
 21
265.497
  0
LINE
  8
0
 10
-0.0941772
 20
265.497
 11
0.0941772
 21
265.497
  0
LINE
  8
0
 10
0.0941772
 20
265.497
 11
0.281067
 21
265.473
  0
LINE
  8
0
 10
0.281067
 20
265.473
 11
0.463516
 21
265.427
  0
LINE
  8
0
 10
0.463516
 20
265.427
 11
0.638657
 21
265.357
  0
LINE
  8
0
 10
0.638657
 20
265.357
 11
0.803726
 21
265.266
  0
LINE
  8
0
 10
0.803726
 20
265.266
 11
0.956131
 21
265.156
  0
LINE
  8
0
 10
0.956131
 20
265.156
 11
1.09344
 21
265.027
  0
LINE
  8
0
 10
1.09344
 20
265.027
 11
1.21352
 21
264.882
  0
LINE
  8
0
 10
1.21352
 20
264.882
 11
1.31445
 21
264.723
  0
LINE
  8
0
 10
1.31445
 20
264.723
 11
1.39465
 21
264.552
  0
LINE
  8
0
 10
1.39465
 20
264.552
 11
1.45287
 21
264.373
  0
LINE
  8
0
 10
1.45287
 20
264.373
 11
1.48816
 21
264.188
  0
LINE
  8
0
 10
1.48816
 20
264.188
 11
1.5
 21
264
  0
LINE
  8
0
 10
1.5
 20
264
 11
1.48816
 21
263.812
  0
LINE
  8
0
 10
1.48816
 20
263.812
 11
1.45287
 21
263.627
  0
LINE
  8
0
 10
1.45287
 20
263.627
 11
1.39465
 21
263.448
  0
LINE
  8
0
 10
1.39465
 20
263.448
 11
1.31445
 21
263.277
  0
LINE
  8
0
 10
1.31445
 20
263.277
 11
1.21352
 21
263.118
  0
LINE
  8
0
 10
1.21352
 20
263.118
 11
1.09344
 21
262.973
  0
LINE
  8
0
 10
1.09344
 20
262.973
 11
0.956131
 21
262.844
  0
LINE
  8
0
 10
0.956131
 20
262.844
 11
0.803726
 21
262.734
  0
LINE
  8
0
 10
0.803726
 20
262.734
 11
0.638657
 21
262.643
  0
LINE
  8
0
 10
0.638657
 20
262.643
 11
0.463516
 21
262.573
  0
LINE
  8
0
 10
0.463516
 20
262.573
 11
0.281067
 21
262.527
  0
LINE
  8
0
 10
0.281067
 20
262.527
 11
0.0941772
 21
262.503
  0
LINE
  8
0
 10
0.0941772
 20
262.503
 11
-0.0941772
 21
262.503
  0
LINE
  8
0
 10
1.31166
 20
233.124
 11
2.16312
 21
233.343
  0
LINE
  8
0
 10
2.16312
 20
233.343
 11
2.98045
 21
233.666
  0
LINE
  8
0
 10
2.98045
 20
233.666
 11
3.75078
 21
234.09
  0
LINE
  8
0
 10
3.75078
 20
234.09
 11
4.46196
 21
234.606
  0
LINE
  8
0
 10
4.46196
 20
234.606
 11
5.10277
 21
235.208
  0
LINE
  8
0
 10
5.10277
 20
235.208
 11
5.66312
 21
235.886
  0
LINE
  8
0
 10
5.66312
 20
235.886
 11
6.13414
 21
236.628
  0
LINE
  8
0
 10
6.13414
 20
236.628
 11
6.50842
 21
237.423
  0
LINE
  8
0
 10
6.50842
 20
237.423
 11
6.78008
 21
238.259
  0
LINE
  8
0
 10
6.78008
 20
238.259
 11
6.94479
 21
239.123
  0
LINE
  8
0
 10
6.94479
 20
239.123
 11
7
 21
240
  0
LINE
  8
0
 10
7
 20
240
 11
6.94479
 21
240.877
  0
LINE
  8
0
 10
6.94479
 20
240.877
 11
6.78008
 21
241.741
  0
LINE
  8
0
 10
6.78008
 20
241.741
 11
6.50842
 21
242.577
  0
LINE
  8
0
 10
6.50842
 20
242.577
 11
6.13414
 21
243.372
  0
LINE
  8
0
 10
6.13414
 20
243.372
 11
5.66312
 21
244.114
  0
LINE
  8
0
 10
5.66312
 20
244.114
 11
5.10277
 21
244.792
  0
LINE
  8
0
 10
5.10277
 20
244.792
 11
4.46196
 21
245.394
  0
LINE
  8
0
 10
4.46196
 20
245.394
 11
3.75078
 21
245.91
  0
LINE
  8
0
 10
3.75078
 20
245.91
 11
2.98045
 21
246.334
  0
LINE
  8
0
 10
2.98045
 20
246.334
 11
2.16312
 21
246.657
  0
LINE
  8
0
 10
2.16312
 20
246.657
 11
1.31166
 21
246.876
  0
LINE
  8
0
 10
1.31166
 20
246.876
 11
0.439529
 21
246.986
  0
LINE
  8
0
 10
0.439529
 20
246.986
 11
-0.439529
 21
246.986
  0
LINE
  8
0
 10
-0.439529
 20
246.986
 11
-1.31166
 21
246.876
  0
LINE
  8
0
 10
-1.31166
 20
246.876
 11
-2.16312
 21
246.657
  0
LINE
  8
0
 10
-2.16312
 20
246.657
 11
-2.98045
 21
246.334
  0
LINE
  8
0
 10
-2.98045
 20
246.334
 11
-3.75078
 21
245.91
  0
LINE
  8
0
 10
-3.75078
 20
245.91
 11
-4.46196
 21
245.394
  0
LINE
  8
0
 10
-4.46196
 20
245.394
 11
-5.10277
 21
244.792
  0
LINE
  8
0
 10
-5.10277
 20
244.792
 11
-5.66312
 21
244.114
  0
LINE
  8
0
 10
-5.66312
 20
244.114
 11
-6.13414
 21
243.372
  0
LINE
  8
0
 10
-6.13414
 20
243.372
 11
-6.50842
 21
242.577
  0
LINE
  8
0
 10
-6.50842
 20
242.577
 11
-6.78008
 21
241.741
  0
LINE
  8
0
 10
-6.78008
 20
241.741
 11
-6.94479
 21
240.877
  0
LINE
  8
0
 10
-6.94479
 20
240.877
 11
-7
 21
240
  0
LINE
  8
0
 10
-7
 20
240
 11
-6.94479
 21
239.123
  0
LINE
  8
0
 10
-6.94479
 20
239.123
 11
-6.78008
 21
238.259
  0
LINE
  8
0
 10
-6.78008
 20
238.259
 11
-6.50842
 21
237.423
  0
LINE
  8
0
 10
-6.50842
 20
237.423
 11
-6.13414
 21
236.628
  0
LINE
  8
0
 10
-6.13414
 20
236.628
 11
-5.66312
 21
235.886
  0
LINE
  8
0
 10
-5.66312
 20
235.886
 11
-5.10277
 21
235.208
  0
LINE
  8
0
 10
-5.10277
 20
235.208
 11
-4.46196
 21
234.606
  0
LINE
  8
0
 10
-4.46196
 20
234.606
 11
-3.75078
 21
234.09
  0
LINE
  8
0
 10
-3.75078
 20
234.09
 11
-2.98045
 21
233.666
  0
LINE
  8
0
 10
-2.98045
 20
233.666
 11
-2.16312
 21
233.343
  0
LINE
  8
0
 10
-2.16312
 20
233.343
 11
-1.31166
 21
233.124
  0
LINE
  8
0
 10
-1.31166
 20
233.124
 11
-0.439529
 21
233.014
  0
LINE
  8
0
 10
-0.439529
 20
233.014
 11
0.439529
 21
233.014
  0
LINE
  8
0
 10
0.439529
 20
233.014
 11
1.31166
 21
233.124
  0
LINE
  8
0
 10
-0.0941772
 20
238.503
 11
-0.281067
 21
238.527
  0
LINE
  8
0
 10
-0.281067
 20
238.527
 11
-0.463516
 21
238.573
  0
LINE
  8
0
 10
-0.463516
 20
238.573
 11
-0.638657
 21
238.643
  0
LINE
  8
0
 10
-0.638657
 20
238.643
 11
-0.803726
 21
238.734
  0
LINE
  8
0
 10
-0.803726
 20
238.734
 11
-0.956131
 21
238.844
  0
LINE
  8
0
 10
-0.956131
 20
238.844
 11
-1.09344
 21
238.973
  0
LINE
  8
0
 10
-1.09344
 20
238.973
 11
-1.21352
 21
239.118
  0
LINE
  8
0
 10
-1.21352
 20
239.118
 11
-1.31445
 21
239.277
  0
LINE
  8
0
 10
-1.31445
 20
239.277
 11
-1.39465
 21
239.448
  0
LINE
  8
0
 10
-1.39465
 20
239.448
 11
-1.45287
 21
239.627
  0
LINE
  8
0
 10
-1.45287
 20
239.627
 11
-1.48816
 21
239.812
  0
LINE
  8
0
 10
-1.48816
 20
239.812
 11
-1.5
 21
240
  0
LINE
  8
0
 10
-1.5
 20
240
 11
-1.48816
 21
240.188
  0
LINE
  8
0
 10
-1.48816
 20
240.188
 11
-1.45287
 21
240.373
  0
LINE
  8
0
 10
-1.45287
 20
240.373
 11
-1.39465
 21
240.552
  0
LINE
  8
0
 10
-1.39465
 20
240.552
 11
-1.31445
 21
240.723
  0
LINE
  8
0
 10
-1.31445
 20
240.723
 11
-1.21352
 21
240.882
  0
LINE
  8
0
 10
-1.21352
 20
240.882
 11
-1.09344
 21
241.027
  0
LINE
  8
0
 10
-1.09344
 20
241.027
 11
-0.956131
 21
241.156
  0
LINE
  8
0
 10
-0.956131
 20
241.156
 11
-0.803726
 21
241.266
  0
LINE
  8
0
 10
-0.803726
 20
241.266
 11
-0.638657
 21
241.357
  0
LINE
  8
0
 10
-0.638657
 20
241.357
 11
-0.463516
 21
241.427
  0
LINE
  8
0
 10
-0.463516
 20
241.427
 11
-0.281067
 21
241.473
  0
LINE
  8
0
 10
-0.281067
 20
241.473
 11
-0.0941772
 21
241.497
  0
LINE
  8
0
 10
-0.0941772
 20
241.497
 11
0.0941772
 21
241.497
  0
LINE
  8
0
 10
0.0941772
 20
241.497
 11
0.281067
 21
241.473
  0
LINE
  8
0
 10
0.281067
 20
241.473
 11
0.463516
 21
241.427
  0
LINE
  8
0
 10
0.463516
 20
241.427
 11
0.638657
 21
241.357
  0
LINE
  8
0
 10
0.638657
 20
241.357
 11
0.803726
 21
241.266
  0
LINE
  8
0
 10
0.803726
 20
241.266
 11
0.956131
 21
241.156
  0
LINE
  8
0
 10
0.956131
 20
241.156
 11
1.09344
 21
241.027
  0
LINE
  8
0
 10
1.09344
 20
241.027
 11
1.21352
 21
240.882
  0
LINE
  8
0
 10
1.21352
 20
240.882
 11
1.31445
 21
240.723
  0
LINE
  8
0
 10
1.31445
 20
240.723
 11
1.39465
 21
240.552
  0
LINE
  8
0
 10
1.39465
 20
240.552
 11
1.45287
 21
240.373
  0
LINE
  8
0
 10
1.45287
 20
240.373
 11
1.48816
 21
240.188
  0
LINE
  8
0
 10
1.48816
 20
240.188
 11
1.5
 21
240
  0
LINE
  8
0
 10
1.5
 20
240
 11
1.48816
 21
239.812
  0
LINE
  8
0
 10
1.48816
 20
239.812
 11
1.45287
 21
239.627
  0
LINE
  8
0
 10
1.45287
 20
239.627
 11
1.39465
 21
239.448
  0
LINE
  8
0
 10
1.39465
 20
239.448
 11
1.31445
 21
239.277
  0
LINE
  8
0
 10
1.31445
 20
239.277
 11
1.21352
 21
239.118
  0
LINE
  8
0
 10
1.21352
 20
239.118
 11
1.09344
 21
238.973
  0
LINE
  8
0
 10
1.09344
 20
238.973
 11
0.956131
 21
238.844
  0
LINE
  8
0
 10
0.956131
 20
238.844
 11
0.803726
 21
238.734
  0
LINE
  8
0
 10
0.803726
 20
238.734
 11
0.638657
 21
238.643
  0
LINE
  8
0
 10
0.638657
 20
238.643
 11
0.463516
 21
238.573
  0
LINE
  8
0
 10
0.463516
 20
238.573
 11
0.281067
 21
238.527
  0
LINE
  8
0
 10
0.281067
 20
238.527
 11
0.0941772
 21
238.503
  0
LINE
  8
0
 10
0.0941772
 20
238.503
 11
-0.0941772
 21
238.503
  0
LINE
  8
0
 10
1.31166
 20
209.124
 11
2.16312
 21
209.343
  0
LINE
  8
0
 10
2.16312
 20
209.343
 11
2.98045
 21
209.666
  0
LINE
  8
0
 10
2.98045
 20
209.666
 11
3.75078
 21
210.09
  0
LINE
  8
0
 10
3.75078
 20
210.09
 11
4.46196
 21
210.606
  0
LINE
  8
0
 10
4.46196
 20
210.606
 11
5.10277
 21
211.208
  0
LINE
  8
0
 10
5.10277
 20
211.208
 11
5.66312
 21
211.886
  0
LINE
  8
0
 10
5.66312
 20
211.886
 11
6.13414
 21
212.628
  0
LINE
  8
0
 10
6.13414
 20
212.628
 11
6.50842
 21
213.423
  0
LINE
  8
0
 10
6.50842
 20
213.423
 11
6.78008
 21
214.259
  0
LINE
  8
0
 10
6.78008
 20
214.259
 11
6.94479
 21
215.123
  0
LINE
  8
0
 10
6.94479
 20
215.123
 11
7
 21
216
  0
LINE
  8
0
 10
7
 20
216
 11
6.94479
 21
216.877
  0
LINE
  8
0
 10
6.94479
 20
216.877
 11
6.78008
 21
217.741
  0
LINE
  8
0
 10
6.78008
 20
217.741
 11
6.50842
 21
218.577
  0
LINE
  8
0
 10
6.50842
 20
218.577
 11
6.13414
 21
219.372
  0
LINE
  8
0
 10
6.13414
 20
219.372
 11
5.66312
 21
220.114
  0
LINE
  8
0
 10
5.66312
 20
220.114
 11
5.10277
 21
220.792
  0
LINE
  8
0
 10
5.10277
 20
220.792
 11
4.46196
 21
221.394
  0
LINE
  8
0
 10
4.46196
 20
221.394
 11
3.75078
 21
221.91
  0
LINE
  8
0
 10
3.75078
 20
221.91
 11
2.98045
 21
222.334
  0
LINE
  8
0
 10
2.98045
 20
222.334
 11
2.16312
 21
222.657
  0
LINE
  8
0
 10
2.16312
 20
222.657
 11
1.31166
 21
222.876
  0
LINE
  8
0
 10
1.31166
 20
222.876
 11
0.439529
 21
222.986
  0
LINE
  8
0
 10
0.439529
 20
222.986
 11
-0.439529
 21
222.986
  0
LINE
  8
0
 10
-0.439529
 20
222.986
 11
-1.31166
 21
222.876
  0
LINE
  8
0
 10
-1.31166
 20
222.876
 11
-2.16312
 21
222.657
  0
LINE
  8
0
 10
-2.16312
 20
222.657
 11
-2.98045
 21
222.334
  0
LINE
  8
0
 10
-2.98045
 20
222.334
 11
-3.75078
 21
221.91
  0
LINE
  8
0
 10
-3.75078
 20
221.91
 11
-4.46196
 21
221.394
  0
LINE
  8
0
 10
-4.46196
 20
221.394
 11
-5.10277
 21
220.792
  0
LINE
  8
0
 10
-5.10277
 20
220.792
 11
-5.66312
 21
220.114
  0
LINE
  8
0
 10
-5.66312
 20
220.114
 11
-6.13414
 21
219.372
  0
LINE
  8
0
 10
-6.13414
 20
219.372
 11
-6.50842
 21
218.577
  0
LINE
  8
0
 10
-6.50842
 20
218.577
 11
-6.78008
 21
217.741
  0
LINE
  8
0
 10
-6.78008
 20
217.741
 11
-6.94479
 21
216.877
  0
LINE
  8
0
 10
-6.94479
 20
216.877
 11
-7
 21
216
  0
LINE
  8
0
 10
-7
 20
216
 11
-6.94479
 21
215.123
  0
LINE
  8
0
 10
-6.94479
 20
215.123
 11
-6.78008
 21
214.259
  0
LINE
  8
0
 10
-6.78008
 20
214.259
 11
-6.50842
 21
213.423
  0
LINE
  8
0
 10
-6.50842
 20
213.423
 11
-6.13414
 21
212.628
  0
LINE
  8
0
 10
-6.13414
 20
212.628
 11
-5.66312
 21
211.886
  0
LINE
  8
0
 10
-5.66312
 20
211.886
 11
-5.10277
 21
211.208
  0
LINE
  8
0
 10
-5.10277
 20
211.208
 11
-4.46196
 21
210.606
  0
LINE
  8
0
 10
-4.46196
 20
210.606
 11
-3.75078
 21
210.09
  0
LINE
  8
0
 10
-3.75078
 20
210.09
 11
-2.98045
 21
209.666
  0
LINE
  8
0
 10
-2.98045
 20
209.666
 11
-2.16312
 21
209.343
  0
LINE
  8
0
 10
-2.16312
 20
209.343
 11
-1.31166
 21
209.124
  0
LINE
  8
0
 10
-1.31166
 20
209.124
 11
-0.439529
 21
209.014
  0
LINE
  8
0
 10
-0.439529
 20
209.014
 11
0.439529
 21
209.014
  0
LINE
  8
0
 10
0.439529
 20
209.014
 11
1.31166
 21
209.124
  0
LINE
  8
0
 10
-0.0941772
 20
214.503
 11
-0.281067
 21
214.527
  0
LINE
  8
0
 10
-0.281067
 20
214.527
 11
-0.463516
 21
214.573
  0
LINE
  8
0
 10
-0.463516
 20
214.573
 11
-0.638657
 21
214.643
  0
LINE
  8
0
 10
-0.638657
 20
214.643
 11
-0.803726
 21
214.734
  0
LINE
  8
0
 10
-0.803726
 20
214.734
 11
-0.956131
 21
214.844
  0
LINE
  8
0
 10
-0.956131
 20
214.844
 11
-1.09344
 21
214.973
  0
LINE
  8
0
 10
-1.09344
 20
214.973
 11
-1.21352
 21
215.118
  0
LINE
  8
0
 10
-1.21352
 20
215.118
 11
-1.31445
 21
215.277
  0
LINE
  8
0
 10
-1.31445
 20
215.277
 11
-1.39465
 21
215.448
  0
LINE
  8
0
 10
-1.39465
 20
215.448
 11
-1.45287
 21
215.627
  0
LINE
  8
0
 10
-1.45287
 20
215.627
 11
-1.48816
 21
215.812
  0
LINE
  8
0
 10
-1.48816
 20
215.812
 11
-1.5
 21
216
  0
LINE
  8
0
 10
-1.5
 20
216
 11
-1.48816
 21
216.188
  0
LINE
  8
0
 10
-1.48816
 20
216.188
 11
-1.45287
 21
216.373
  0
LINE
  8
0
 10
-1.45287
 20
216.373
 11
-1.39465
 21
216.552
  0
LINE
  8
0
 10
-1.39465
 20
216.552
 11
-1.31445
 21
216.723
  0
LINE
  8
0
 10
-1.31445
 20
216.723
 11
-1.21352
 21
216.882
  0
LINE
  8
0
 10
-1.21352
 20
216.882
 11
-1.09344
 21
217.027
  0
LINE
  8
0
 10
-1.09344
 20
217.027
 11
-0.956131
 21
217.156
  0
LINE
  8
0
 10
-0.956131
 20
217.156
 11
-0.803726
 21
217.266
  0
LINE
  8
0
 10
-0.803726
 20
217.266
 11
-0.638657
 21
217.357
  0
LINE
  8
0
 10
-0.638657
 20
217.357
 11
-0.463516
 21
217.427
  0
LINE
  8
0
 10
-0.463516
 20
217.427
 11
-0.281067
 21
217.473
  0
LINE
  8
0
 10
-0.281067
 20
217.473
 11
-0.0941772
 21
217.497
  0
LINE
  8
0
 10
-0.0941772
 20
217.497
 11
0.0941772
 21
217.497
  0
LINE
  8
0
 10
0.0941772
 20
217.497
 11
0.281067
 21
217.473
  0
LINE
  8
0
 10
0.281067
 20
217.473
 11
0.463516
 21
217.427
  0
LINE
  8
0
 10
0.463516
 20
217.427
 11
0.638657
 21
217.357
  0
LINE
  8
0
 10
0.638657
 20
217.357
 11
0.803726
 21
217.266
  0
LINE
  8
0
 10
0.803726
 20
217.266
 11
0.956131
 21
217.156
  0
LINE
  8
0
 10
0.956131
 20
217.156
 11
1.09344
 21
217.027
  0
LINE
  8
0
 10
1.09344
 20
217.027
 11
1.21352
 21
216.882
  0
LINE
  8
0
 10
1.21352
 20
216.882
 11
1.31445
 21
216.723
  0
LINE
  8
0
 10
1.31445
 20
216.723
 11
1.39465
 21
216.552
  0
LINE
  8
0
 10
1.39465
 20
216.552
 11
1.45287
 21
216.373
  0
LINE
  8
0
 10
1.45287
 20
216.373
 11
1.48816
 21
216.188
  0
LINE
  8
0
 10
1.48816
 20
216.188
 11
1.5
 21
216
  0
LINE
  8
0
 10
1.5
 20
216
 11
1.48816
 21
215.812
  0
LINE
  8
0
 10
1.48816
 20
215.812
 11
1.45287
 21
215.627
  0
LINE
  8
0
 10
1.45287
 20
215.627
 11
1.39465
 21
215.448
  0
LINE
  8
0
 10
1.39465
 20
215.448
 11
1.31445
 21
215.277
  0
LINE
  8
0
 10
1.31445
 20
215.277
 11
1.21352
 21
215.118
  0
LINE
  8
0
 10
1.21352
 20
215.118
 11
1.09344
 21
214.973
  0
LINE
  8
0
 10
1.09344
 20
214.973
 11
0.956131
 21
214.844
  0
LINE
  8
0
 10
0.956131
 20
214.844
 11
0.803726
 21
214.734
  0
LINE
  8
0
 10
0.803726
 20
214.734
 11
0.638657
 21
214.643
  0
LINE
  8
0
 10
0.638657
 20
214.643
 11
0.463516
 21
214.573
  0
LINE
  8
0
 10
0.463516
 20
214.573
 11
0.281067
 21
214.527
  0
LINE
  8
0
 10
0.281067
 20
214.527
 11
0.0941772
 21
214.503
  0
LINE
  8
0
 10
0.0941772
 20
214.503
 11
-0.0941772
 21
214.503
  0
LINE
  8
0
 10
1.31166
 20
185.124
 11
2.16312
 21
185.343
  0
LINE
  8
0
 10
2.16312
 20
185.343
 11
2.98045
 21
185.666
  0
LINE
  8
0
 10
2.98045
 20
185.666
 11
3.75078
 21
186.09
  0
LINE
  8
0
 10
3.75078
 20
186.09
 11
4.46196
 21
186.606
  0
LINE
  8
0
 10
4.46196
 20
186.606
 11
5.10277
 21
187.208
  0
LINE
  8
0
 10
5.10277
 20
187.208
 11
5.66312
 21
187.886
  0
LINE
  8
0
 10
5.66312
 20
187.886
 11
6.13414
 21
188.628
  0
LINE
  8
0
 10
6.13414
 20
188.628
 11
6.50842
 21
189.423
  0
LINE
  8
0
 10
6.50842
 20
189.423
 11
6.78008
 21
190.259
  0
LINE
  8
0
 10
6.78008
 20
190.259
 11
6.94479
 21
191.123
  0
LINE
  8
0
 10
6.94479
 20
191.123
 11
7
 21
192
  0
LINE
  8
0
 10
7
 20
192
 11
6.94479
 21
192.877
  0
LINE
  8
0
 10
6.94479
 20
192.877
 11
6.78008
 21
193.741
  0
LINE
  8
0
 10
6.78008
 20
193.741
 11
6.50842
 21
194.577
  0
LINE
  8
0
 10
6.50842
 20
194.577
 11
6.13414
 21
195.372
  0
LINE
  8
0
 10
6.13414
 20
195.372
 11
5.66312
 21
196.114
  0
LINE
  8
0
 10
5.66312
 20
196.114
 11
5.10277
 21
196.792
  0
LINE
  8
0
 10
5.10277
 20
196.792
 11
4.46196
 21
197.394
  0
LINE
  8
0
 10
4.46196
 20
197.394
 11
3.75078
 21
197.91
  0
LINE
  8
0
 10
3.75078
 20
197.91
 11
2.98045
 21
198.334
  0
LINE
  8
0
 10
2.98045
 20
198.334
 11
2.16312
 21
198.657
  0
LINE
  8
0
 10
2.16312
 20
198.657
 11
1.31166
 21
198.876
  0
LINE
  8
0
 10
1.31166
 20
198.876
 11
0.439529
 21
198.986
  0
LINE
  8
0
 10
0.439529
 20
198.986
 11
-0.439529
 21
198.986
  0
LINE
  8
0
 10
-0.439529
 20
198.986
 11
-1.31166
 21
198.876
  0
LINE
  8
0
 10
-1.31166
 20
198.876
 11
-2.16312
 21
198.657
  0
LINE
  8
0
 10
-2.16312
 20
198.657
 11
-2.98045
 21
198.334
  0
LINE
  8
0
 10
-2.98045
 20
198.334
 11
-3.75078
 21
197.91
  0
LINE
  8
0
 10
-3.75078
 20
197.91
 11
-4.46196
 21
197.394
  0
LINE
  8
0
 10
-4.46196
 20
197.394
 11
-5.10277
 21
196.792
  0
LINE
  8
0
 10
-5.10277
 20
196.792
 11
-5.66312
 21
196.114
  0
LINE
  8
0
 10
-5.66312
 20
196.114
 11
-6.13414
 21
195.372
  0
LINE
  8
0
 10
-6.13414
 20
195.372
 11
-6.50842
 21
194.577
  0
LINE
  8
0
 10
-6.50842
 20
194.577
 11
-6.78008
 21
193.741
  0
LINE
  8
0
 10
-6.78008
 20
193.741
 11
-6.94479
 21
192.877
  0
LINE
  8
0
 10
-6.94479
 20
192.877
 11
-7
 21
192
  0
LINE
  8
0
 10
-7
 20
192
 11
-6.94479
 21
191.123
  0
LINE
  8
0
 10
-6.94479
 20
191.123
 11
-6.78008
 21
190.259
  0
LINE
  8
0
 10
-6.78008
 20
190.259
 11
-6.50842
 21
189.423
  0
LINE
  8
0
 10
-6.50842
 20
189.423
 11
-6.13414
 21
188.628
  0
LINE
  8
0
 10
-6.13414
 20
188.628
 11
-5.66312
 21
187.886
  0
LINE
  8
0
 10
-5.66312
 20
187.886
 11
-5.10277
 21
187.208
  0
LINE
  8
0
 10
-5.10277
 20
187.208
 11
-4.46196
 21
186.606
  0
LINE
  8
0
 10
-4.46196
 20
186.606
 11
-3.75078
 21
186.09
  0
LINE
  8
0
 10
-3.75078
 20
186.09
 11
-2.98045
 21
185.666
  0
LINE
  8
0
 10
-2.98045
 20
185.666
 11
-2.16312
 21
185.343
  0
LINE
  8
0
 10
-2.16312
 20
185.343
 11
-1.31166
 21
185.124
  0
LINE
  8
0
 10
-1.31166
 20
185.124
 11
-0.439529
 21
185.014
  0
LINE
  8
0
 10
-0.439529
 20
185.014
 11
0.439529
 21
185.014
  0
LINE
  8
0
 10
0.439529
 20
185.014
 11
1.31166
 21
185.124
  0
LINE
  8
0
 10
-0.0941772
 20
190.503
 11
-0.281067
 21
190.527
  0
LINE
  8
0
 10
-0.281067
 20
190.527
 11
-0.463516
 21
190.573
  0
LINE
  8
0
 10
-0.463516
 20
190.573
 11
-0.638657
 21
190.643
  0
LINE
  8
0
 10
-0.638657
 20
190.643
 11
-0.803726
 21
190.734
  0
LINE
  8
0
 10
-0.803726
 20
190.734
 11
-0.956131
 21
190.844
  0
LINE
  8
0
 10
-0.956131
 20
190.844
 11
-1.09344
 21
190.973
  0
LINE
  8
0
 10
-1.09344
 20
190.973
 11
-1.21352
 21
191.118
  0
LINE
  8
0
 10
-1.21352
 20
191.118
 11
-1.31445
 21
191.277
  0
LINE
  8
0
 10
-1.31445
 20
191.277
 11
-1.39465
 21
191.448
  0
LINE
  8
0
 10
-1.39465
 20
191.448
 11
-1.45287
 21
191.627
  0
LINE
  8
0
 10
-1.45287
 20
191.627
 11
-1.48816
 21
191.812
  0
LINE
  8
0
 10
-1.48816
 20
191.812
 11
-1.5
 21
192
  0
LINE
  8
0
 10
-1.5
 20
192
 11
-1.48816
 21
192.188
  0
LINE
  8
0
 10
-1.48816
 20
192.188
 11
-1.45287
 21
192.373
  0
LINE
  8
0
 10
-1.45287
 20
192.373
 11
-1.39465
 21
192.552
  0
LINE
  8
0
 10
-1.39465
 20
192.552
 11
-1.31445
 21
192.723
  0
LINE
  8
0
 10
-1.31445
 20
192.723
 11
-1.21352
 21
192.882
  0
LINE
  8
0
 10
-1.21352
 20
192.882
 11
-1.09344
 21
193.027
  0
LINE
  8
0
 10
-1.09344
 20
193.027
 11
-0.956131
 21
193.156
  0
LINE
  8
0
 10
-0.956131
 20
193.156
 11
-0.803726
 21
193.266
  0
LINE
  8
0
 10
-0.803726
 20
193.266
 11
-0.638657
 21
193.357
  0
LINE
  8
0
 10
-0.638657
 20
193.357
 11
-0.463516
 21
193.427
  0
LINE
  8
0
 10
-0.463516
 20
193.427
 11
-0.281067
 21
193.473
  0
LINE
  8
0
 10
-0.281067
 20
193.473
 11
-0.0941772
 21
193.497
  0
LINE
  8
0
 10
-0.0941772
 20
193.497
 11
0.0941772
 21
193.497
  0
LINE
  8
0
 10
0.0941772
 20
193.497
 11
0.281067
 21
193.473
  0
LINE
  8
0
 10
0.281067
 20
193.473
 11
0.463516
 21
193.427
  0
LINE
  8
0
 10
0.463516
 20
193.427
 11
0.638657
 21
193.357
  0
LINE
  8
0
 10
0.638657
 20
193.357
 11
0.803726
 21
193.266
  0
LINE
  8
0
 10
0.803726
 20
193.266
 11
0.956131
 21
193.156
  0
LINE
  8
0
 10
0.956131
 20
193.156
 11
1.09344
 21
193.027
  0
LINE
  8
0
 10
1.09344
 20
193.027
 11
1.21352
 21
192.882
  0
LINE
  8
0
 10
1.21352
 20
192.882
 11
1.31445
 21
192.723
  0
LINE
  8
0
 10
1.31445
 20
192.723
 11
1.39465
 21
192.552
  0
LINE
  8
0
 10
1.39465
 20
192.552
 11
1.45287
 21
192.373
  0
LINE
  8
0
 10
1.45287
 20
192.373
 11
1.48816
 21
192.188
  0
LINE
  8
0
 10
1.48816
 20
192.188
 11
1.5
 21
192
  0
LINE
  8
0
 10
1.5
 20
192
 11
1.48816
 21
191.812
  0
LINE
  8
0
 10
1.48816
 20
191.812
 11
1.45287
 21
191.627
  0
LINE
  8
0
 10
1.45287
 20
191.627
 11
1.39465
 21
191.448
  0
LINE
  8
0
 10
1.39465
 20
191.448
 11
1.31445
 21
191.277
  0
LINE
  8
0
 10
1.31445
 20
191.277
 11
1.21352
 21
191.118
  0
LINE
  8
0
 10
1.21352
 20
191.118
 11
1.09344
 21
190.973
  0
LINE
  8
0
 10
1.09344
 20
190.973
 11
0.956131
 21
190.844
  0
LINE
  8
0
 10
0.956131
 20
190.844
 11
0.803726
 21
190.734
  0
LINE
  8
0
 10
0.803726
 20
190.734
 11
0.638657
 21
190.643
  0
LINE
  8
0
 10
0.638657
 20
190.643
 11
0.463516
 21
190.573
  0
LINE
  8
0
 10
0.463516
 20
190.573
 11
0.281067
 21
190.527
  0
LINE
  8
0
 10
0.281067
 20
190.527
 11
0.0941772
 21
190.503
  0
LINE
  8
0
 10
0.0941772
 20
190.503
 11
-0.0941772
 21
190.503
  0
LINE
  8
0
 10
1.31166
 20
161.124
 11
2.16312
 21
161.343
  0
LINE
  8
0
 10
2.16312
 20
161.343
 11
2.98045
 21
161.666
  0
LINE
  8
0
 10
2.98045
 20
161.666
 11
3.75078
 21
162.09
  0
LINE
  8
0
 10
3.75078
 20
162.09
 11
4.46196
 21
162.606
  0
LINE
  8
0
 10
4.46196
 20
162.606
 11
5.10277
 21
163.208
  0
LINE
  8
0
 10
5.10277
 20
163.208
 11
5.66312
 21
163.886
  0
LINE
  8
0
 10
5.66312
 20
163.886
 11
6.13414
 21
164.628
  0
LINE
  8
0
 10
6.13414
 20
164.628
 11
6.50842
 21
165.423
  0
LINE
  8
0
 10
6.50842
 20
165.423
 11
6.78008
 21
166.259
  0
LINE
  8
0
 10
6.78008
 20
166.259
 11
6.94479
 21
167.123
  0
LINE
  8
0
 10
6.94479
 20
167.123
 11
7
 21
168
  0
LINE
  8
0
 10
7
 20
168
 11
6.94479
 21
168.877
  0
LINE
  8
0
 10
6.94479
 20
168.877
 11
6.78008
 21
169.741
  0
LINE
  8
0
 10
6.78008
 20
169.741
 11
6.50842
 21
170.577
  0
LINE
  8
0
 10
6.50842
 20
170.577
 11
6.13414
 21
171.372
  0
LINE
  8
0
 10
6.13414
 20
171.372
 11
5.66312
 21
172.114
  0
LINE
  8
0
 10
5.66312
 20
172.114
 11
5.10277
 21
172.792
  0
LINE
  8
0
 10
5.10277
 20
172.792
 11
4.46196
 21
173.394
  0
LINE
  8
0
 10
4.46196
 20
173.394
 11
3.75078
 21
173.91
  0
LINE
  8
0
 10
3.75078
 20
173.91
 11
2.98045
 21
174.334
  0
LINE
  8
0
 10
2.98045
 20
174.334
 11
2.16312
 21
174.657
  0
LINE
  8
0
 10
2.16312
 20
174.657
 11
1.31166
 21
174.876
  0
LINE
  8
0
 10
1.31166
 20
174.876
 11
0.439529
 21
174.986
  0
LINE
  8
0
 10
0.439529
 20
174.986
 11
-0.439529
 21
174.986
  0
LINE
  8
0
 10
-0.439529
 20
174.986
 11
-1.31166
 21
174.876
  0
LINE
  8
0
 10
-1.31166
 20
174.876
 11
-2.16312
 21
174.657
  0
LINE
  8
0
 10
-2.16312
 20
174.657
 11
-2.98045
 21
174.334
  0
LINE
  8
0
 10
-2.98045
 20
174.334
 11
-3.75078
 21
173.91
  0
LINE
  8
0
 10
-3.75078
 20
173.91
 11
-4.46196
 21
173.394
  0
LINE
  8
0
 10
-4.46196
 20
173.394
 11
-5.10277
 21
172.792
  0
LINE
  8
0
 10
-5.10277
 20
172.792
 11
-5.66312
 21
172.114
  0
LINE
  8
0
 10
-5.66312
 20
172.114
 11
-6.13414
 21
171.372
  0
LINE
  8
0
 10
-6.13414
 20
171.372
 11
-6.50842
 21
170.577
  0
LINE
  8
0
 10
-6.50842
 20
170.577
 11
-6.78008
 21
169.741
  0
LINE
  8
0
 10
-6.78008
 20
169.741
 11
-6.94479
 21
168.877
  0
LINE
  8
0
 10
-6.94479
 20
168.877
 11
-7
 21
168
  0
LINE
  8
0
 10
-7
 20
168
 11
-6.94479
 21
167.123
  0
LINE
  8
0
 10
-6.94479
 20
167.123
 11
-6.78008
 21
166.259
  0
LINE
  8
0
 10
-6.78008
 20
166.259
 11
-6.50842
 21
165.423
  0
LINE
  8
0
 10
-6.50842
 20
165.423
 11
-6.13414
 21
164.628
  0
LINE
  8
0
 10
-6.13414
 20
164.628
 11
-5.66312
 21
163.886
  0
LINE
  8
0
 10
-5.66312
 20
163.886
 11
-5.10277
 21
163.208
  0
LINE
  8
0
 10
-5.10277
 20
163.208
 11
-4.46196
 21
162.606
  0
LINE
  8
0
 10
-4.46196
 20
162.606
 11
-3.75078
 21
162.09
  0
LINE
  8
0
 10
-3.75078
 20
162.09
 11
-2.98045
 21
161.666
  0
LINE
  8
0
 10
-2.98045
 20
161.666
 11
-2.16312
 21
161.343
  0
LINE
  8
0
 10
-2.16312
 20
161.343
 11
-1.31166
 21
161.124
  0
LINE
  8
0
 10
-1.31166
 20
161.124
 11
-0.439529
 21
161.014
  0
LINE
  8
0
 10
-0.439529
 20
161.014
 11
0.439529
 21
161.014
  0
LINE
  8
0
 10
0.439529
 20
161.014
 11
1.31166
 21
161.124
  0
LINE
  8
0
 10
-0.0941772
 20
166.503
 11
-0.281067
 21
166.527
  0
LINE
  8
0
 10
-0.281067
 20
166.527
 11
-0.463516
 21
166.573
  0
LINE
  8
0
 10
-0.463516
 20
166.573
 11
-0.638657
 21
166.643
  0
LINE
  8
0
 10
-0.638657
 20
166.643
 11
-0.803726
 21
166.734
  0
LINE
  8
0
 10
-0.803726
 20
166.734
 11
-0.956131
 21
166.844
  0
LINE
  8
0
 10
-0.956131
 20
166.844
 11
-1.09344
 21
166.973
  0
LINE
  8
0
 10
-1.09344
 20
166.973
 11
-1.21352
 21
167.118
  0
LINE
  8
0
 10
-1.21352
 20
167.118
 11
-1.31445
 21
167.277
  0
LINE
  8
0
 10
-1.31445
 20
167.277
 11
-1.39465
 21
167.448
  0
LINE
  8
0
 10
-1.39465
 20
167.448
 11
-1.45287
 21
167.627
  0
LINE
  8
0
 10
-1.45287
 20
167.627
 11
-1.48816
 21
167.812
  0
LINE
  8
0
 10
-1.48816
 20
167.812
 11
-1.5
 21
168
  0
LINE
  8
0
 10
-1.5
 20
168
 11
-1.48816
 21
168.188
  0
LINE
  8
0
 10
-1.48816
 20
168.188
 11
-1.45287
 21
168.373
  0
LINE
  8
0
 10
-1.45287
 20
168.373
 11
-1.39465
 21
168.552
  0
LINE
  8
0
 10
-1.39465
 20
168.552
 11
-1.31445
 21
168.723
  0
LINE
  8
0
 10
-1.31445
 20
168.723
 11
-1.21352
 21
168.882
  0
LINE
  8
0
 10
-1.21352
 20
168.882
 11
-1.09344
 21
169.027
  0
LINE
  8
0
 10
-1.09344
 20
169.027
 11
-0.956131
 21
169.156
  0
LINE
  8
0
 10
-0.956131
 20
169.156
 11
-0.803726
 21
169.266
  0
LINE
  8
0
 10
-0.803726
 20
169.266
 11
-0.638657
 21
169.357
  0
LINE
  8
0
 10
-0.638657
 20
169.357
 11
-0.463516
 21
169.427
  0
LINE
  8
0
 10
-0.463516
 20
169.427
 11
-0.281067
 21
169.473
  0
LINE
  8
0
 10
-0.281067
 20
169.473
 11
-0.0941772
 21
169.497
  0
LINE
  8
0
 10
-0.0941772
 20
169.497
 11
0.0941772
 21
169.497
  0
LINE
  8
0
 10
0.0941772
 20
169.497
 11
0.281067
 21
169.473
  0
LINE
  8
0
 10
0.281067
 20
169.473
 11
0.463516
 21
169.427
  0
LINE
  8
0
 10
0.463516
 20
169.427
 11
0.638657
 21
169.357
  0
LINE
  8
0
 10
0.638657
 20
169.357
 11
0.803726
 21
169.266
  0
LINE
  8
0
 10
0.803726
 20
169.266
 11
0.956131
 21
169.156
  0
LINE
  8
0
 10
0.956131
 20
169.156
 11
1.09344
 21
169.027
  0
LINE
  8
0
 10
1.09344
 20
169.027
 11
1.21352
 21
168.882
  0
LINE
  8
0
 10
1.21352
 20
168.882
 11
1.31445
 21
168.723
  0
LINE
  8
0
 10
1.31445
 20
168.723
 11
1.39465
 21
168.552
  0
LINE
  8
0
 10
1.39465
 20
168.552
 11
1.45287
 21
168.373
  0
LINE
  8
0
 10
1.45287
 20
168.373
 11
1.48816
 21
168.188
  0
LINE
  8
0
 10
1.48816
 20
168.188
 11
1.5
 21
168
  0
LINE
  8
0
 10
1.5
 20
168
 11
1.48816
 21
167.812
  0
LINE
  8
0
 10
1.48816
 20
167.812
 11
1.45287
 21
167.627
  0
LINE
  8
0
 10
1.45287
 20
167.627
 11
1.39465
 21
167.448
  0
LINE
  8
0
 10
1.39465
 20
167.448
 11
1.31445
 21
167.277
  0
LINE
  8
0
 10
1.31445
 20
167.277
 11
1.21352
 21
167.118
  0
LINE
  8
0
 10
1.21352
 20
167.118
 11
1.09344
 21
166.973
  0
LINE
  8
0
 10
1.09344
 20
166.973
 11
0.956131
 21
166.844
  0
LINE
  8
0
 10
0.956131
 20
166.844
 11
0.803726
 21
166.734
  0
LINE
  8
0
 10
0.803726
 20
166.734
 11
0.638657
 21
166.643
  0
LINE
  8
0
 10
0.638657
 20
166.643
 11
0.463516
 21
166.573
  0
LINE
  8
0
 10
0.463516
 20
166.573
 11
0.281067
 21
166.527
  0
LINE
  8
0
 10
0.281067
 20
166.527
 11
0.0941772
 21
166.503
  0
LINE
  8
0
 10
0.0941772
 20
166.503
 11
-0.0941772
 21
166.503
  0
ENDSEC
  0
SECTION
  2
OBJECTS
  0
DICTIONARY
  0
ENDSEC
  0
EOF
