  0
SECTION
  2
BLOCKS
  0
ENDSEC
  0
SECTION
  2
ENTITIES
  0
LINE
  8
0
 10
182.937
 20
41.0886
 11
183.545
 21
41.2447
  0
LINE
  8
0
 10
183.545
 20
41.2447
 11
184.129
 21
41.4759
  0
LINE
  8
0
 10
184.129
 20
41.4759
 11
184.679
 21
41.7784
  0
LINE
  8
0
 10
184.679
 20
41.7784
 11
185.187
 21
42.1474
  0
LINE
  8
0
 10
185.187
 20
42.1474
 11
185.645
 21
42.5773
  0
LINE
  8
0
 10
185.645
 20
42.5773
 11
186.045
 21
43.0611
  0
LINE
  8
0
 10
186.045
 20
43.0611
 11
186.382
 21
43.5912
  0
LINE
  8
0
 10
186.382
 20
43.5912
 11
186.649
 21
44.1594
  0
LINE
  8
0
 10
186.649
 20
44.1594
 11
186.843
 21
44.7566
  0
LINE
  8
0
 10
186.843
 20
44.7566
 11
186.961
 21
45.3733
  0
LINE
  8
0
 10
186.961
 20
45.3733
 11
187
 21
46
  0
LINE
  8
0
 10
187
 20
46
 11
187
 21
50
  0
LINE
  8
0
 10
187
 20
50
 11
186.961
 21
50.6267
  0
LINE
  8
0
 10
186.961
 20
50.6267
 11
186.843
 21
51.2434
  0
LINE
  8
0
 10
186.843
 20
51.2434
 11
186.649
 21
51.8406
  0
LINE
  8
0
 10
186.649
 20
51.8406
 11
186.382
 21
52.4088
  0
LINE
  8
0
 10
186.382
 20
52.4088
 11
186.045
 21
52.9389
  0
LINE
  8
0
 10
186.045
 20
52.9389
 11
185.645
 21
53.4227
  0
LINE
  8
0
 10
185.645
 20
53.4227
 11
185.187
 21
53.8526
  0
LINE
  8
0
 10
185.187
 20
53.8526
 11
184.679
 21
54.2216
  0
LINE
  8
0
 10
184.679
 20
54.2216
 11
184.129
 21
54.5241
  0
LINE
  8
0
 10
184.129
 20
54.5241
 11
183.545
 21
54.7553
  0
LINE
  8
0
 10
183.545
 20
54.7553
 11
182.937
 21
54.9114
  0
LINE
  8
0
 10
182.937
 20
54.9114
 11
182.314
 21
54.9901
  0
LINE
  8
0
 10
182.314
 20
54.9901
 11
-182.314
 21
54.9901
  0
LINE
  8
0
 10
-182.314
 20
54.9901
 11
-182.937
 21
54.9114
  0
LINE
  8
0
 10
-182.937
 20
54.9114
 11
-183.545
 21
54.7553
  0
LINE
  8
0
 10
-183.545
 20
54.7553
 11
-184.129
 21
54.5241
  0
LINE
  8
0
 10
-184.129
 20
54.5241
 11
-184.679
 21
54.2216
  0
LINE
  8
0
 10
-184.679
 20
54.2216
 11
-185.187
 21
53.8526
  0
LINE
  8
0
 10
-185.187
 20
53.8526
 11
-185.645
 21
53.4227
  0
LINE
  8
0
 10
-185.645
 20
53.4227
 11
-186.045
 21
52.9389
  0
LINE
  8
0
 10
-186.045
 20
52.9389
 11
-186.382
 21
52.4088
  0
LINE
  8
0
 10
-186.382
 20
52.4088
 11
-186.649
 21
51.8406
  0
LINE
  8
0
 10
-186.649
 20
51.8406
 11
-186.843
 21
51.2434
  0
LINE
  8
0
 10
-186.843
 20
51.2434
 11
-186.961
 21
50.6267
  0
LINE
  8
0
 10
-186.961
 20
50.6267
 11
-187
 21
50
  0
LINE
  8
0
 10
-187
 20
50
 11
-187
 21
46
  0
LINE
  8
0
 10
-187
 20
46
 11
-186.961
 21
45.3733
  0
LINE
  8
0
 10
-186.961
 20
45.3733
 11
-186.843
 21
44.7566
  0
LINE
  8
0
 10
-186.843
 20
44.7566
 11
-186.649
 21
44.1594
  0
LINE
  8
0
 10
-186.649
 20
44.1594
 11
-186.382
 21
43.5912
  0
LINE
  8
0
 10
-186.382
 20
43.5912
 11
-186.045
 21
43.0611
  0
LINE
  8
0
 10
-186.045
 20
43.0611
 11
-185.645
 21
42.5773
  0
LINE
  8
0
 10
-185.645
 20
42.5773
 11
-185.187
 21
42.1474
  0
LINE
  8
0
 10
-185.187
 20
42.1474
 11
-184.679
 21
41.7784
  0
LINE
  8
0
 10
-184.679
 20
41.7784
 11
-184.129
 21
41.4759
  0
LINE
  8
0
 10
-184.129
 20
41.4759
 11
-183.545
 21
41.2447
  0
LINE
  8
0
 10
-183.545
 20
41.2447
 11
-182.937
 21
41.0886
  0
LINE
  8
0
 10
-182.937
 20
41.0886
 11
-182.314
 21
41.0099
  0
LINE
  8
0
 10
-182.314
 20
41.0099
 11
182.314
 21
41.0099
  0
LINE
  8
0
 10
182.314
 20
41.0099
 11
182.937
 21
41.0886
  0
LINE
  8
0
 10
179.812
 20
45.0059
 11
179.438
 21
45.0531
  0
LINE
  8
0
 10
179.438
 20
45.0531
 11
179.073
 21
45.1468
  0
LINE
  8
0
 10
179.073
 20
45.1468
 11
178.723
 21
45.2855
  0
LINE
  8
0
 10
178.723
 20
45.2855
 11
178.393
 21
45.467
  0
LINE
  8
0
 10
178.393
 20
45.467
 11
178.088
 21
45.6885
  0
LINE
  8
0
 10
178.088
 20
45.6885
 11
177.813
 21
45.9464
  0
LINE
  8
0
 10
177.813
 20
45.9464
 11
177.573
 21
46.2366
  0
LINE
  8
0
 10
177.573
 20
46.2366
 11
177.371
 21
46.5547
  0
LINE
  8
0
 10
177.371
 20
46.5547
 11
177.211
 21
46.8956
  0
LINE
  8
0
 10
177.211
 20
46.8956
 11
177.094
 21
47.2539
  0
LINE
  8
0
 10
177.094
 20
47.2539
 11
177.024
 21
47.624
  0
LINE
  8
0
 10
177.024
 20
47.624
 11
177
 21
48
  0
LINE
  8
0
 10
177
 20
48
 11
177.024
 21
48.376
  0
LINE
  8
0
 10
177.024
 20
48.376
 11
177.094
 21
48.7461
  0
LINE
  8
0
 10
177.094
 20
48.7461
 11
177.211
 21
49.1044
  0
LINE
  8
0
 10
177.211
 20
49.1044
 11
177.371
 21
49.4453
  0
LINE
  8
0
 10
177.371
 20
49.4453
 11
177.573
 21
49.7634
  0
LINE
  8
0
 10
177.573
 20
49.7634
 11
177.813
 21
50.0536
  0
LINE
  8
0
 10
177.813
 20
50.0536
 11
178.088
 21
50.3115
  0
LINE
  8
0
 10
178.088
 20
50.3115
 11
178.393
 21
50.533
  0
LINE
  8
0
 10
178.393
 20
50.533
 11
178.723
 21
50.7145
  0
LINE
  8
0
 10
178.723
 20
50.7145
 11
179.073
 21
50.8532
  0
LINE
  8
0
 10
179.073
 20
50.8532
 11
179.438
 21
50.9469
  0
LINE
  8
0
 10
179.438
 20
50.9469
 11
179.812
 21
50.9941
  0
LINE
  8
0
 10
179.812
 20
50.9941
 11
180.188
 21
50.9941
  0
LINE
  8
0
 10
180.188
 20
50.9941
 11
180.562
 21
50.9469
  0
LINE
  8
0
 10
180.562
 20
50.9469
 11
180.927
 21
50.8532
  0
LINE
  8
0
 10
180.927
 20
50.8532
 11
181.277
 21
50.7145
  0
LINE
  8
0
 10
181.277
 20
50.7145
 11
181.607
 21
50.533
  0
LINE
  8
0
 10
181.607
 20
50.533
 11
181.912
 21
50.3115
  0
LINE
  8
0
 10
181.912
 20
50.3115
 11
182.187
 21
50.0536
  0
LINE
  8
0
 10
182.187
 20
50.0536
 11
182.427
 21
49.7634
  0
LINE
  8
0
 10
182.427
 20
49.7634
 11
182.629
 21
49.4453
  0
LINE
  8
0
 10
182.629
 20
49.4453
 11
182.789
 21
49.1044
  0
LINE
  8
0
 10
182.789
 20
49.1044
 11
182.906
 21
48.7461
  0
LINE
  8
0
 10
182.906
 20
48.7461
 11
182.976
 21
48.376
  0
LINE
  8
0
 10
182.976
 20
48.376
 11
183
 21
48
  0
LINE
  8
0
 10
183
 20
48
 11
182.976
 21
47.624
  0
LINE
  8
0
 10
182.976
 20
47.624
 11
182.906
 21
47.2539
  0
LINE
  8
0
 10
182.906
 20
47.2539
 11
182.789
 21
46.8956
  0
LINE
  8
0
 10
182.789
 20
46.8956
 11
182.629
 21
46.5547
  0
LINE
  8
0
 10
182.629
 20
46.5547
 11
182.427
 21
46.2366
  0
LINE
  8
0
 10
182.427
 20
46.2366
 11
182.187
 21
45.9464
  0
LINE
  8
0
 10
182.187
 20
45.9464
 11
181.912
 21
45.6885
  0
LINE
  8
0
 10
181.912
 20
45.6885
 11
181.607
 21
45.467
  0
LINE
  8
0
 10
181.607
 20
45.467
 11
181.277
 21
45.2855
  0
LINE
  8
0
 10
181.277
 20
45.2855
 11
180.927
 21
45.1468
  0
LINE
  8
0
 10
180.927
 20
45.1468
 11
180.562
 21
45.0531
  0
LINE
  8
0
 10
180.562
 20
45.0531
 11
180.188
 21
45.0059
  0
LINE
  8
0
 10
180.188
 20
45.0059
 11
179.812
 21
45.0059
  0
LINE
  8
0
 10
-180.188
 20
45.0059
 11
-180.562
 21
45.0531
  0
LINE
  8
0
 10
-180.562
 20
45.0531
 11
-180.927
 21
45.1468
  0
LINE
  8
0
 10
-180.927
 20
45.1468
 11
-181.277
 21
45.2855
  0
LINE
  8
0
 10
-181.277
 20
45.2855
 11
-181.607
 21
45.467
  0
LINE
  8
0
 10
-181.607
 20
45.467
 11
-181.912
 21
45.6885
  0
LINE
  8
0
 10
-181.912
 20
45.6885
 11
-182.187
 21
45.9464
  0
LINE
  8
0
 10
-182.187
 20
45.9464
 11
-182.427
 21
46.2366
  0
LINE
  8
0
 10
-182.427
 20
46.2366
 11
-182.629
 21
46.5547
  0
LINE
  8
0
 10
-182.629
 20
46.5547
 11
-182.789
 21
46.8956
  0
LINE
  8
0
 10
-182.789
 20
46.8956
 11
-182.906
 21
47.2539
  0
LINE
  8
0
 10
-182.906
 20
47.2539
 11
-182.976
 21
47.624
  0
LINE
  8
0
 10
-182.976
 20
47.624
 11
-183
 21
48
  0
LINE
  8
0
 10
-183
 20
48
 11
-182.976
 21
48.376
  0
LINE
  8
0
 10
-182.976
 20
48.376
 11
-182.906
 21
48.7461
  0
LINE
  8
0
 10
-182.906
 20
48.7461
 11
-182.789
 21
49.1044
  0
LINE
  8
0
 10
-182.789
 20
49.1044
 11
-182.629
 21
49.4453
  0
LINE
  8
0
 10
-182.629
 20
49.4453
 11
-182.427
 21
49.7634
  0
LINE
  8
0
 10
-182.427
 20
49.7634
 11
-182.187
 21
50.0536
  0
LINE
  8
0
 10
-182.187
 20
50.0536
 11
-181.912
 21
50.3115
  0
LINE
  8
0
 10
-181.912
 20
50.3115
 11
-181.607
 21
50.533
  0
LINE
  8
0
 10
-181.607
 20
50.533
 11
-181.277
 21
50.7145
  0
LINE
  8
0
 10
-181.277
 20
50.7145
 11
-180.927
 21
50.8532
  0
LINE
  8
0
 10
-180.927
 20
50.8532
 11
-180.562
 21
50.9469
  0
LINE
  8
0
 10
-180.562
 20
50.9469
 11
-180.188
 21
50.9941
  0
LINE
  8
0
 10
-180.188
 20
50.9941
 11
-179.812
 21
50.9941
  0
LINE
  8
0
 10
-179.812
 20
50.9941
 11
-179.438
 21
50.9469
  0
LINE
  8
0
 10
-179.438
 20
50.9469
 11
-179.073
 21
50.8532
  0
LINE
  8
0
 10
-179.073
 20
50.8532
 11
-178.723
 21
50.7145
  0
LINE
  8
0
 10
-178.723
 20
50.7145
 11
-178.393
 21
50.533
  0
LINE
  8
0
 10
-178.393
 20
50.533
 11
-178.088
 21
50.3115
  0
LINE
  8
0
 10
-178.088
 20
50.3115
 11
-177.813
 21
50.0536
  0
LINE
  8
0
 10
-177.813
 20
50.0536
 11
-177.573
 21
49.7634
  0
LINE
  8
0
 10
-177.573
 20
49.7634
 11
-177.371
 21
49.4453
  0
LINE
  8
0
 10
-177.371
 20
49.4453
 11
-177.211
 21
49.1044
  0
LINE
  8
0
 10
-177.211
 20
49.1044
 11
-177.094
 21
48.7461
  0
LINE
  8
0
 10
-177.094
 20
48.7461
 11
-177.024
 21
48.376
  0
LINE
  8
0
 10
-177.024
 20
48.376
 11
-177
 21
48
  0
LINE
  8
0
 10
-177
 20
48
 11
-177.024
 21
47.624
  0
LINE
  8
0
 10
-177.024
 20
47.624
 11
-177.094
 21
47.2539
  0
LINE
  8
0
 10
-177.094
 20
47.2539
 11
-177.211
 21
46.8956
  0
LINE
  8
0
 10
-177.211
 20
46.8956
 11
-177.371
 21
46.5547
  0
LINE
  8
0
 10
-177.371
 20
46.5547
 11
-177.573
 21
46.2366
  0
LINE
  8
0
 10
-177.573
 20
46.2366
 11
-177.813
 21
45.9464
  0
LINE
  8
0
 10
-177.813
 20
45.9464
 11
-178.088
 21
45.6885
  0
LINE
  8
0
 10
-178.088
 20
45.6885
 11
-178.393
 21
45.467
  0
LINE
  8
0
 10
-178.393
 20
45.467
 11
-178.723
 21
45.2855
  0
LINE
  8
0
 10
-178.723
 20
45.2855
 11
-179.073
 21
45.1468
  0
LINE
  8
0
 10
-179.073
 20
45.1468
 11
-179.438
 21
45.0531
  0
LINE
  8
0
 10
-179.438
 20
45.0531
 11
-179.812
 21
45.0059
  0
LINE
  8
0
 10
-179.812
 20
45.0059
 11
-180.188
 21
45.0059
  0
LINE
  8
0
 10
182.937
 20
17.0886
 11
183.545
 21
17.2447
  0
LINE
  8
0
 10
183.545
 20
17.2447
 11
184.129
 21
17.4759
  0
LINE
  8
0
 10
184.129
 20
17.4759
 11
184.679
 21
17.7784
  0
LINE
  8
0
 10
184.679
 20
17.7784
 11
185.187
 21
18.1474
  0
LINE
  8
0
 10
185.187
 20
18.1474
 11
185.645
 21
18.5773
  0
LINE
  8
0
 10
185.645
 20
18.5773
 11
186.045
 21
19.0611
  0
LINE
  8
0
 10
186.045
 20
19.0611
 11
186.382
 21
19.5912
  0
LINE
  8
0
 10
186.382
 20
19.5912
 11
186.649
 21
20.1594
  0
LINE
  8
0
 10
186.649
 20
20.1594
 11
186.843
 21
20.7566
  0
LINE
  8
0
 10
186.843
 20
20.7566
 11
186.961
 21
21.3733
  0
LINE
  8
0
 10
186.961
 20
21.3733
 11
187
 21
22
  0
LINE
  8
0
 10
187
 20
22
 11
187
 21
26
  0
LINE
  8
0
 10
187
 20
26
 11
186.961
 21
26.6267
  0
LINE
  8
0
 10
186.961
 20
26.6267
 11
186.843
 21
27.2434
  0
LINE
  8
0
 10
186.843
 20
27.2434
 11
186.649
 21
27.8406
  0
LINE
  8
0
 10
186.649
 20
27.8406
 11
186.382
 21
28.4088
  0
LINE
  8
0
 10
186.382
 20
28.4088
 11
186.045
 21
28.9389
  0
LINE
  8
0
 10
186.045
 20
28.9389
 11
185.645
 21
29.4227
  0
LINE
  8
0
 10
185.645
 20
29.4227
 11
185.187
 21
29.8526
  0
LINE
  8
0
 10
185.187
 20
29.8526
 11
184.679
 21
30.2216
  0
LINE
  8
0
 10
184.679
 20
30.2216
 11
184.129
 21
30.5241
  0
LINE
  8
0
 10
184.129
 20
30.5241
 11
183.545
 21
30.7553
  0
LINE
  8
0
 10
183.545
 20
30.7553
 11
182.937
 21
30.9114
  0
LINE
  8
0
 10
182.937
 20
30.9114
 11
182.314
 21
30.9901
  0
LINE
  8
0
 10
182.314
 20
30.9901
 11
-182.314
 21
30.9901
  0
LINE
  8
0
 10
-182.314
 20
30.9901
 11
-182.937
 21
30.9114
  0
LINE
  8
0
 10
-182.937
 20
30.9114
 11
-183.545
 21
30.7553
  0
LINE
  8
0
 10
-183.545
 20
30.7553
 11
-184.129
 21
30.5241
  0
LINE
  8
0
 10
-184.129
 20
30.5241
 11
-184.679
 21
30.2216
  0
LINE
  8
0
 10
-184.679
 20
30.2216
 11
-185.187
 21
29.8526
  0
LINE
  8
0
 10
-185.187
 20
29.8526
 11
-185.645
 21
29.4227
  0
LINE
  8
0
 10
-185.645
 20
29.4227
 11
-186.045
 21
28.9389
  0
LINE
  8
0
 10
-186.045
 20
28.9389
 11
-186.382
 21
28.4088
  0
LINE
  8
0
 10
-186.382
 20
28.4088
 11
-186.649
 21
27.8406
  0
LINE
  8
0
 10
-186.649
 20
27.8406
 11
-186.843
 21
27.2434
  0
LINE
  8
0
 10
-186.843
 20
27.2434
 11
-186.961
 21
26.6267
  0
LINE
  8
0
 10
-186.961
 20
26.6267
 11
-187
 21
26
  0
LINE
  8
0
 10
-187
 20
26
 11
-187
 21
22
  0
LINE
  8
0
 10
-187
 20
22
 11
-186.961
 21
21.3733
  0
LINE
  8
0
 10
-186.961
 20
21.3733
 11
-186.843
 21
20.7566
  0
LINE
  8
0
 10
-186.843
 20
20.7566
 11
-186.649
 21
20.1594
  0
LINE
  8
0
 10
-186.649
 20
20.1594
 11
-186.382
 21
19.5912
  0
LINE
  8
0
 10
-186.382
 20
19.5912
 11
-186.045
 21
19.0611
  0
LINE
  8
0
 10
-186.045
 20
19.0611
 11
-185.645
 21
18.5773
  0
LINE
  8
0
 10
-185.645
 20
18.5773
 11
-185.187
 21
18.1474
  0
LINE
  8
0
 10
-185.187
 20
18.1474
 11
-184.679
 21
17.7784
  0
LINE
  8
0
 10
-184.679
 20
17.7784
 11
-184.129
 21
17.4759
  0
LINE
  8
0
 10
-184.129
 20
17.4759
 11
-183.545
 21
17.2447
  0
LINE
  8
0
 10
-183.545
 20
17.2447
 11
-182.937
 21
17.0886
  0
LINE
  8
0
 10
-182.937
 20
17.0886
 11
-182.314
 21
17.0099
  0
LINE
  8
0
 10
-182.314
 20
17.0099
 11
182.314
 21
17.0099
  0
LINE
  8
0
 10
182.314
 20
17.0099
 11
182.937
 21
17.0886
  0
LINE
  8
0
 10
-180.188
 20
21.0059
 11
-180.562
 21
21.0531
  0
LINE
  8
0
 10
-180.562
 20
21.0531
 11
-180.927
 21
21.1468
  0
LINE
  8
0
 10
-180.927
 20
21.1468
 11
-181.277
 21
21.2855
  0
LINE
  8
0
 10
-181.277
 20
21.2855
 11
-181.607
 21
21.467
  0
LINE
  8
0
 10
-181.607
 20
21.467
 11
-181.912
 21
21.6885
  0
LINE
  8
0
 10
-181.912
 20
21.6885
 11
-182.187
 21
21.9464
  0
LINE
  8
0
 10
-182.187
 20
21.9464
 11
-182.427
 21
22.2366
  0
LINE
  8
0
 10
-182.427
 20
22.2366
 11
-182.629
 21
22.5547
  0
LINE
  8
0
 10
-182.629
 20
22.5547
 11
-182.789
 21
22.8956
  0
LINE
  8
0
 10
-182.789
 20
22.8956
 11
-182.906
 21
23.2539
  0
LINE
  8
0
 10
-182.906
 20
23.2539
 11
-182.976
 21
23.624
  0
LINE
  8
0
 10
-182.976
 20
23.624
 11
-183
 21
24
  0
LINE
  8
0
 10
-183
 20
24
 11
-182.976
 21
24.376
  0
LINE
  8
0
 10
-182.976
 20
24.376
 11
-182.906
 21
24.7461
  0
LINE
  8
0
 10
-182.906
 20
24.7461
 11
-182.789
 21
25.1044
  0
LINE
  8
0
 10
-182.789
 20
25.1044
 11
-182.629
 21
25.4453
  0
LINE
  8
0
 10
-182.629
 20
25.4453
 11
-182.427
 21
25.7634
  0
LINE
  8
0
 10
-182.427
 20
25.7634
 11
-182.187
 21
26.0536
  0
LINE
  8
0
 10
-182.187
 20
26.0536
 11
-181.912
 21
26.3115
  0
LINE
  8
0
 10
-181.912
 20
26.3115
 11
-181.607
 21
26.533
  0
LINE
  8
0
 10
-181.607
 20
26.533
 11
-181.277
 21
26.7145
  0
LINE
  8
0
 10
-181.277
 20
26.7145
 11
-180.927
 21
26.8532
  0
LINE
  8
0
 10
-180.927
 20
26.8532
 11
-180.562
 21
26.9469
  0
LINE
  8
0
 10
-180.562
 20
26.9469
 11
-180.188
 21
26.9941
  0
LINE
  8
0
 10
-180.188
 20
26.9941
 11
-179.812
 21
26.9941
  0
LINE
  8
0
 10
-179.812
 20
26.9941
 11
-179.438
 21
26.9469
  0
LINE
  8
0
 10
-179.438
 20
26.9469
 11
-179.073
 21
26.8532
  0
LINE
  8
0
 10
-179.073
 20
26.8532
 11
-178.723
 21
26.7145
  0
LINE
  8
0
 10
-178.723
 20
26.7145
 11
-178.393
 21
26.533
  0
LINE
  8
0
 10
-178.393
 20
26.533
 11
-178.088
 21
26.3115
  0
LINE
  8
0
 10
-178.088
 20
26.3115
 11
-177.813
 21
26.0536
  0
LINE
  8
0
 10
-177.813
 20
26.0536
 11
-177.573
 21
25.7634
  0
LINE
  8
0
 10
-177.573
 20
25.7634
 11
-177.371
 21
25.4453
  0
LINE
  8
0
 10
-177.371
 20
25.4453
 11
-177.211
 21
25.1044
  0
LINE
  8
0
 10
-177.211
 20
25.1044
 11
-177.094
 21
24.7461
  0
LINE
  8
0
 10
-177.094
 20
24.7461
 11
-177.024
 21
24.376
  0
LINE
  8
0
 10
-177.024
 20
24.376
 11
-177
 21
24
  0
LINE
  8
0
 10
-177
 20
24
 11
-177.024
 21
23.624
  0
LINE
  8
0
 10
-177.024
 20
23.624
 11
-177.094
 21
23.2539
  0
LINE
  8
0
 10
-177.094
 20
23.2539
 11
-177.211
 21
22.8956
  0
LINE
  8
0
 10
-177.211
 20
22.8956
 11
-177.371
 21
22.5547
  0
LINE
  8
0
 10
-177.371
 20
22.5547
 11
-177.573
 21
22.2366
  0
LINE
  8
0
 10
-177.573
 20
22.2366
 11
-177.813
 21
21.9464
  0
LINE
  8
0
 10
-177.813
 20
21.9464
 11
-178.088
 21
21.6885
  0
LINE
  8
0
 10
-178.088
 20
21.6885
 11
-178.393
 21
21.467
  0
LINE
  8
0
 10
-178.393
 20
21.467
 11
-178.723
 21
21.2855
  0
LINE
  8
0
 10
-178.723
 20
21.2855
 11
-179.073
 21
21.1468
  0
LINE
  8
0
 10
-179.073
 20
21.1468
 11
-179.438
 21
21.0531
  0
LINE
  8
0
 10
-179.438
 20
21.0531
 11
-179.812
 21
21.0059
  0
LINE
  8
0
 10
-179.812
 20
21.0059
 11
-180.188
 21
21.0059
  0
LINE
  8
0
 10
179.812
 20
21.0059
 11
179.438
 21
21.0531
  0
LINE
  8
0
 10
179.438
 20
21.0531
 11
179.073
 21
21.1468
  0
LINE
  8
0
 10
179.073
 20
21.1468
 11
178.723
 21
21.2855
  0
LINE
  8
0
 10
178.723
 20
21.2855
 11
178.393
 21
21.467
  0
LINE
  8
0
 10
178.393
 20
21.467
 11
178.088
 21
21.6885
  0
LINE
  8
0
 10
178.088
 20
21.6885
 11
177.813
 21
21.9464
  0
LINE
  8
0
 10
177.813
 20
21.9464
 11
177.573
 21
22.2366
  0
LINE
  8
0
 10
177.573
 20
22.2366
 11
177.371
 21
22.5547
  0
LINE
  8
0
 10
177.371
 20
22.5547
 11
177.211
 21
22.8956
  0
LINE
  8
0
 10
177.211
 20
22.8956
 11
177.094
 21
23.2539
  0
LINE
  8
0
 10
177.094
 20
23.2539
 11
177.024
 21
23.624
  0
LINE
  8
0
 10
177.024
 20
23.624
 11
177
 21
24
  0
LINE
  8
0
 10
177
 20
24
 11
177.024
 21
24.376
  0
LINE
  8
0
 10
177.024
 20
24.376
 11
177.094
 21
24.7461
  0
LINE
  8
0
 10
177.094
 20
24.7461
 11
177.211
 21
25.1044
  0
LINE
  8
0
 10
177.211
 20
25.1044
 11
177.371
 21
25.4453
  0
LINE
  8
0
 10
177.371
 20
25.4453
 11
177.573
 21
25.7634
  0
LINE
  8
0
 10
177.573
 20
25.7634
 11
177.813
 21
26.0536
  0
LINE
  8
0
 10
177.813
 20
26.0536
 11
178.088
 21
26.3115
  0
LINE
  8
0
 10
178.088
 20
26.3115
 11
178.393
 21
26.533
  0
LINE
  8
0
 10
178.393
 20
26.533
 11
178.723
 21
26.7145
  0
LINE
  8
0
 10
178.723
 20
26.7145
 11
179.073
 21
26.8532
  0
LINE
  8
0
 10
179.073
 20
26.8532
 11
179.438
 21
26.9469
  0
LINE
  8
0
 10
179.438
 20
26.9469
 11
179.812
 21
26.9941
  0
LINE
  8
0
 10
179.812
 20
26.9941
 11
180.188
 21
26.9941
  0
LINE
  8
0
 10
180.188
 20
26.9941
 11
180.562
 21
26.9469
  0
LINE
  8
0
 10
180.562
 20
26.9469
 11
180.927
 21
26.8532
  0
LINE
  8
0
 10
180.927
 20
26.8532
 11
181.277
 21
26.7145
  0
LINE
  8
0
 10
181.277
 20
26.7145
 11
181.607
 21
26.533
  0
LINE
  8
0
 10
181.607
 20
26.533
 11
181.912
 21
26.3115
  0
LINE
  8
0
 10
181.912
 20
26.3115
 11
182.187
 21
26.0536
  0
LINE
  8
0
 10
182.187
 20
26.0536
 11
182.427
 21
25.7634
  0
LINE
  8
0
 10
182.427
 20
25.7634
 11
182.629
 21
25.4453
  0
LINE
  8
0
 10
182.629
 20
25.4453
 11
182.789
 21
25.1044
  0
LINE
  8
0
 10
182.789
 20
25.1044
 11
182.906
 21
24.7461
  0
LINE
  8
0
 10
182.906
 20
24.7461
 11
182.976
 21
24.376
  0
LINE
  8
0
 10
182.976
 20
24.376
 11
183
 21
24
  0
LINE
  8
0
 10
183
 20
24
 11
182.976
 21
23.624
  0
LINE
  8
0
 10
182.976
 20
23.624
 11
182.906
 21
23.2539
  0
LINE
  8
0
 10
182.906
 20
23.2539
 11
182.789
 21
22.8956
  0
LINE
  8
0
 10
182.789
 20
22.8956
 11
182.629
 21
22.5547
  0
LINE
  8
0
 10
182.629
 20
22.5547
 11
182.427
 21
22.2366
  0
LINE
  8
0
 10
182.427
 20
22.2366
 11
182.187
 21
21.9464
  0
LINE
  8
0
 10
182.187
 20
21.9464
 11
181.912
 21
21.6885
  0
LINE
  8
0
 10
181.912
 20
21.6885
 11
181.607
 21
21.467
  0
LINE
  8
0
 10
181.607
 20
21.467
 11
181.277
 21
21.2855
  0
LINE
  8
0
 10
181.277
 20
21.2855
 11
180.927
 21
21.1468
  0
LINE
  8
0
 10
180.927
 20
21.1468
 11
180.562
 21
21.0531
  0
LINE
  8
0
 10
180.562
 20
21.0531
 11
180.188
 21
21.0059
  0
LINE
  8
0
 10
180.188
 20
21.0059
 11
179.812
 21
21.0059
  0
ENDSEC
  0
SECTION
  2
OBJECTS
  0
DICTIONARY
  0
ENDSEC
  0
EOF
