  0
SECTION
  2
BLOCKS
  0
ENDSEC
  0
SECTION
  2
ENTITIES
  0
LINE
  8
0
 10
25.4369
 20
65.0886
 11
26.0451
 21
65.2447
  0
LINE
  8
0
 10
26.0451
 20
65.2447
 11
26.6289
 21
65.4759
  0
LINE
  8
0
 10
26.6289
 20
65.4759
 11
27.1791
 21
65.7784
  0
LINE
  8
0
 10
27.1791
 20
65.7784
 11
27.6871
 21
66.1474
  0
LINE
  8
0
 10
27.6871
 20
66.1474
 11
28.1448
 21
66.5773
  0
LINE
  8
0
 10
28.1448
 20
66.5773
 11
28.5451
 21
67.0611
  0
LINE
  8
0
 10
28.5451
 20
67.0611
 11
28.8815
 21
67.5912
  0
LINE
  8
0
 10
28.8815
 20
67.5912
 11
29.1489
 21
68.1594
  0
LINE
  8
0
 10
29.1489
 20
68.1594
 11
29.3429
 21
68.7566
  0
LINE
  8
0
 10
29.3429
 20
68.7566
 11
29.4606
 21
69.3733
  0
LINE
  8
0
 10
29.4606
 20
69.3733
 11
29.5
 21
70
  0
LINE
  8
0
 10
29.5
 20
70
 11
29.5
 21
74
  0
LINE
  8
0
 10
29.5
 20
74
 11
29.4606
 21
74.6267
  0
LINE
  8
0
 10
29.4606
 20
74.6267
 11
29.3429
 21
75.2434
  0
LINE
  8
0
 10
29.3429
 20
75.2434
 11
29.1489
 21
75.8406
  0
LINE
  8
0
 10
29.1489
 20
75.8406
 11
28.8815
 21
76.4088
  0
LINE
  8
0
 10
28.8815
 20
76.4088
 11
28.5451
 21
76.9389
  0
LINE
  8
0
 10
28.5451
 20
76.9389
 11
28.1448
 21
77.4227
  0
LINE
  8
0
 10
28.1448
 20
77.4227
 11
27.6871
 21
77.8526
  0
LINE
  8
0
 10
27.6871
 20
77.8526
 11
27.1791
 21
78.2216
  0
LINE
  8
0
 10
27.1791
 20
78.2216
 11
26.6289
 21
78.5241
  0
LINE
  8
0
 10
26.6289
 20
78.5241
 11
26.0451
 21
78.7553
  0
LINE
  8
0
 10
26.0451
 20
78.7553
 11
25.4369
 21
78.9114
  0
LINE
  8
0
 10
25.4369
 20
78.9114
 11
24.8139
 21
78.9901
  0
LINE
  8
0
 10
24.8139
 20
78.9901
 11
-24.8139
 21
78.9901
  0
LINE
  8
0
 10
-24.8139
 20
78.9901
 11
-25.4369
 21
78.9114
  0
LINE
  8
0
 10
-25.4369
 20
78.9114
 11
-26.0451
 21
78.7553
  0
LINE
  8
0
 10
-26.0451
 20
78.7553
 11
-26.6289
 21
78.5241
  0
LINE
  8
0
 10
-26.6289
 20
78.5241
 11
-27.1791
 21
78.2216
  0
LINE
  8
0
 10
-27.1791
 20
78.2216
 11
-27.6871
 21
77.8526
  0
LINE
  8
0
 10
-27.6871
 20
77.8526
 11
-28.1448
 21
77.4227
  0
LINE
  8
0
 10
-28.1448
 20
77.4227
 11
-28.5451
 21
76.9389
  0
LINE
  8
0
 10
-28.5451
 20
76.9389
 11
-28.8815
 21
76.4088
  0
LINE
  8
0
 10
-28.8815
 20
76.4088
 11
-29.1489
 21
75.8406
  0
LINE
  8
0
 10
-29.1489
 20
75.8406
 11
-29.3429
 21
75.2434
  0
LINE
  8
0
 10
-29.3429
 20
75.2434
 11
-29.4606
 21
74.6267
  0
LINE
  8
0
 10
-29.4606
 20
74.6267
 11
-29.5
 21
74
  0
LINE
  8
0
 10
-29.5
 20
74
 11
-29.5
 21
70
  0
LINE
  8
0
 10
-29.5
 20
70
 11
-29.4606
 21
69.3733
  0
LINE
  8
0
 10
-29.4606
 20
69.3733
 11
-29.3429
 21
68.7566
  0
LINE
  8
0
 10
-29.3429
 20
68.7566
 11
-29.1489
 21
68.1594
  0
LINE
  8
0
 10
-29.1489
 20
68.1594
 11
-28.8815
 21
67.5912
  0
LINE
  8
0
 10
-28.8815
 20
67.5912
 11
-28.5451
 21
67.0611
  0
LINE
  8
0
 10
-28.5451
 20
67.0611
 11
-28.1448
 21
66.5773
  0
LINE
  8
0
 10
-28.1448
 20
66.5773
 11
-27.6871
 21
66.1474
  0
LINE
  8
0
 10
-27.6871
 20
66.1474
 11
-27.1791
 21
65.7784
  0
LINE
  8
0
 10
-27.1791
 20
65.7784
 11
-26.6289
 21
65.4759
  0
LINE
  8
0
 10
-26.6289
 20
65.4759
 11
-26.0451
 21
65.2447
  0
LINE
  8
0
 10
-26.0451
 20
65.2447
 11
-25.4369
 21
65.0886
  0
LINE
  8
0
 10
-25.4369
 20
65.0886
 11
-24.8139
 21
65.0099
  0
LINE
  8
0
 10
-24.8139
 20
65.0099
 11
24.8139
 21
65.0099
  0
LINE
  8
0
 10
24.8139
 20
65.0099
 11
25.4369
 21
65.0886
  0
LINE
  8
0
 10
-22.5942
 20
70.503
 11
-22.7811
 21
70.5266
  0
LINE
  8
0
 10
-22.7811
 20
70.5266
 11
-22.9635
 21
70.5734
  0
LINE
  8
0
 10
-22.9635
 20
70.5734
 11
-23.1387
 21
70.6428
  0
LINE
  8
0
 10
-23.1387
 20
70.6428
 11
-23.3037
 21
70.7335
  0
LINE
  8
0
 10
-23.3037
 20
70.7335
 11
-23.4561
 21
70.8442
  0
LINE
  8
0
 10
-23.4561
 20
70.8442
 11
-23.5934
 21
70.9732
  0
LINE
  8
0
 10
-23.5934
 20
70.9732
 11
-23.7135
 21
71.1183
  0
LINE
  8
0
 10
-23.7135
 20
71.1183
 11
-23.8145
 21
71.2774
  0
LINE
  8
0
 10
-23.8145
 20
71.2774
 11
-23.8947
 21
71.4478
  0
LINE
  8
0
 10
-23.8947
 20
71.4478
 11
-23.9529
 21
71.627
  0
LINE
  8
0
 10
-23.9529
 20
71.627
 11
-23.9882
 21
71.812
  0
LINE
  8
0
 10
-23.9882
 20
71.812
 11
-24
 21
72
  0
LINE
  8
0
 10
-24
 20
72
 11
-23.9882
 21
72.188
  0
LINE
  8
0
 10
-23.9882
 20
72.188
 11
-23.9529
 21
72.373
  0
LINE
  8
0
 10
-23.9529
 20
72.373
 11
-23.8947
 21
72.5522
  0
LINE
  8
0
 10
-23.8947
 20
72.5522
 11
-23.8145
 21
72.7226
  0
LINE
  8
0
 10
-23.8145
 20
72.7226
 11
-23.7135
 21
72.8817
  0
LINE
  8
0
 10
-23.7135
 20
72.8817
 11
-23.5934
 21
73.0268
  0
LINE
  8
0
 10
-23.5934
 20
73.0268
 11
-23.4561
 21
73.1558
  0
LINE
  8
0
 10
-23.4561
 20
73.1558
 11
-23.3037
 21
73.2665
  0
LINE
  8
0
 10
-23.3037
 20
73.2665
 11
-23.1387
 21
73.3572
  0
LINE
  8
0
 10
-23.1387
 20
73.3572
 11
-22.9635
 21
73.4266
  0
LINE
  8
0
 10
-22.9635
 20
73.4266
 11
-22.7811
 21
73.4734
  0
LINE
  8
0
 10
-22.7811
 20
73.4734
 11
-22.5942
 21
73.497
  0
LINE
  8
0
 10
-22.5942
 20
73.497
 11
-22.4058
 21
73.497
  0
LINE
  8
0
 10
-22.4058
 20
73.497
 11
-22.2189
 21
73.4734
  0
LINE
  8
0
 10
-22.2189
 20
73.4734
 11
-22.0365
 21
73.4266
  0
LINE
  8
0
 10
-22.0365
 20
73.4266
 11
-21.8613
 21
73.3572
  0
LINE
  8
0
 10
-21.8613
 20
73.3572
 11
-21.6963
 21
73.2665
  0
LINE
  8
0
 10
-21.6963
 20
73.2665
 11
-21.5439
 21
73.1558
  0
LINE
  8
0
 10
-21.5439
 20
73.1558
 11
-21.4065
 21
73.0268
  0
LINE
  8
0
 10
-21.4065
 20
73.0268
 11
-21.2865
 21
72.8817
  0
LINE
  8
0
 10
-21.2865
 20
72.8817
 11
-21.1855
 21
72.7226
  0
LINE
  8
0
 10
-21.1855
 20
72.7226
 11
-21.1053
 21
72.5522
  0
LINE
  8
0
 10
-21.1053
 20
72.5522
 11
-21.0471
 21
72.373
  0
LINE
  8
0
 10
-21.0471
 20
72.373
 11
-21.0118
 21
72.188
  0
LINE
  8
0
 10
-21.0118
 20
72.188
 11
-21
 21
72
  0
LINE
  8
0
 10
-21
 20
72
 11
-21.0118
 21
71.812
  0
LINE
  8
0
 10
-21.0118
 20
71.812
 11
-21.0471
 21
71.627
  0
LINE
  8
0
 10
-21.0471
 20
71.627
 11
-21.1053
 21
71.4478
  0
LINE
  8
0
 10
-21.1053
 20
71.4478
 11
-21.1855
 21
71.2774
  0
LINE
  8
0
 10
-21.1855
 20
71.2774
 11
-21.2865
 21
71.1183
  0
LINE
  8
0
 10
-21.2865
 20
71.1183
 11
-21.4065
 21
70.9732
  0
LINE
  8
0
 10
-21.4065
 20
70.9732
 11
-21.5439
 21
70.8442
  0
LINE
  8
0
 10
-21.5439
 20
70.8442
 11
-21.6963
 21
70.7335
  0
LINE
  8
0
 10
-21.6963
 20
70.7335
 11
-21.8613
 21
70.6428
  0
LINE
  8
0
 10
-21.8613
 20
70.6428
 11
-22.0365
 21
70.5734
  0
LINE
  8
0
 10
-22.0365
 20
70.5734
 11
-22.2189
 21
70.5266
  0
LINE
  8
0
 10
-22.2189
 20
70.5266
 11
-22.4058
 21
70.503
  0
LINE
  8
0
 10
-22.4058
 20
70.503
 11
-22.5942
 21
70.503
  0
LINE
  8
0
 10
7.40581
 20
70.503
 11
7.21892
 21
70.5266
  0
LINE
  8
0
 10
7.21892
 20
70.5266
 11
7.03647
 21
70.5734
  0
LINE
  8
0
 10
7.03647
 20
70.5734
 11
6.86133
 21
70.6428
  0
LINE
  8
0
 10
6.86133
 20
70.6428
 11
6.69626
 21
70.7335
  0
LINE
  8
0
 10
6.69626
 20
70.7335
 11
6.54385
 21
70.8442
  0
LINE
  8
0
 10
6.54385
 20
70.8442
 11
6.40654
 21
70.9732
  0
LINE
  8
0
 10
6.40654
 20
70.9732
 11
6.28647
 21
71.1183
  0
LINE
  8
0
 10
6.28647
 20
71.1183
 11
6.18553
 21
71.2774
  0
LINE
  8
0
 10
6.18553
 20
71.2774
 11
6.10533
 21
71.4478
  0
LINE
  8
0
 10
6.10533
 20
71.4478
 11
6.04712
 21
71.627
  0
LINE
  8
0
 10
6.04712
 20
71.627
 11
6.01183
 21
71.812
  0
LINE
  8
0
 10
6.01183
 20
71.812
 11
6
 21
72
  0
LINE
  8
0
 10
6
 20
72
 11
6.01183
 21
72.188
  0
LINE
  8
0
 10
6.01183
 20
72.188
 11
6.04712
 21
72.373
  0
LINE
  8
0
 10
6.04712
 20
72.373
 11
6.10533
 21
72.5522
  0
LINE
  8
0
 10
6.10533
 20
72.5522
 11
6.18553
 21
72.7226
  0
LINE
  8
0
 10
6.18553
 20
72.7226
 11
6.28647
 21
72.8817
  0
LINE
  8
0
 10
6.28647
 20
72.8817
 11
6.40654
 21
73.0268
  0
LINE
  8
0
 10
6.40654
 20
73.0268
 11
6.54385
 21
73.1558
  0
LINE
  8
0
 10
6.54385
 20
73.1558
 11
6.69626
 21
73.2665
  0
LINE
  8
0
 10
6.69626
 20
73.2665
 11
6.86133
 21
73.3572
  0
LINE
  8
0
 10
6.86133
 20
73.3572
 11
7.03647
 21
73.4266
  0
LINE
  8
0
 10
7.03647
 20
73.4266
 11
7.21892
 21
73.4734
  0
LINE
  8
0
 10
7.21892
 20
73.4734
 11
7.40581
 21
73.497
  0
LINE
  8
0
 10
7.40581
 20
73.497
 11
7.59418
 21
73.497
  0
LINE
  8
0
 10
7.59418
 20
73.497
 11
7.78107
 21
73.4734
  0
LINE
  8
0
 10
7.78107
 20
73.4734
 11
7.96352
 21
73.4266
  0
LINE
  8
0
 10
7.96352
 20
73.4266
 11
8.13866
 21
73.3572
  0
LINE
  8
0
 10
8.13866
 20
73.3572
 11
8.30373
 21
73.2665
  0
LINE
  8
0
 10
8.30373
 20
73.2665
 11
8.45613
 21
73.1558
  0
LINE
  8
0
 10
8.45613
 20
73.1558
 11
8.59344
 21
73.0268
  0
LINE
  8
0
 10
8.59344
 20
73.0268
 11
8.71352
 21
72.8817
  0
LINE
  8
0
 10
8.71352
 20
72.8817
 11
8.81445
 21
72.7226
  0
LINE
  8
0
 10
8.81445
 20
72.7226
 11
8.89465
 21
72.5522
  0
LINE
  8
0
 10
8.89465
 20
72.5522
 11
8.95287
 21
72.373
  0
LINE
  8
0
 10
8.95287
 20
72.373
 11
8.98816
 21
72.188
  0
LINE
  8
0
 10
8.98816
 20
72.188
 11
9
 21
72
  0
LINE
  8
0
 10
9
 20
72
 11
8.98816
 21
71.812
  0
LINE
  8
0
 10
8.98816
 20
71.812
 11
8.95287
 21
71.627
  0
LINE
  8
0
 10
8.95287
 20
71.627
 11
8.89465
 21
71.4478
  0
LINE
  8
0
 10
8.89465
 20
71.4478
 11
8.81445
 21
71.2774
  0
LINE
  8
0
 10
8.81445
 20
71.2774
 11
8.71352
 21
71.1183
  0
LINE
  8
0
 10
8.71352
 20
71.1183
 11
8.59344
 21
70.9732
  0
LINE
  8
0
 10
8.59344
 20
70.9732
 11
8.45613
 21
70.8442
  0
LINE
  8
0
 10
8.45613
 20
70.8442
 11
8.30373
 21
70.7335
  0
LINE
  8
0
 10
8.30373
 20
70.7335
 11
8.13866
 21
70.6428
  0
LINE
  8
0
 10
8.13866
 20
70.6428
 11
7.96352
 21
70.5734
  0
LINE
  8
0
 10
7.96352
 20
70.5734
 11
7.78107
 21
70.5266
  0
LINE
  8
0
 10
7.78107
 20
70.5266
 11
7.59418
 21
70.503
  0
LINE
  8
0
 10
7.59418
 20
70.503
 11
7.40581
 21
70.503
  0
LINE
  8
0
 10
-15.0942
 20
70.503
 11
-15.2811
 21
70.5266
  0
LINE
  8
0
 10
-15.2811
 20
70.5266
 11
-15.4635
 21
70.5734
  0
LINE
  8
0
 10
-15.4635
 20
70.5734
 11
-15.6387
 21
70.6428
  0
LINE
  8
0
 10
-15.6387
 20
70.6428
 11
-15.8037
 21
70.7335
  0
LINE
  8
0
 10
-15.8037
 20
70.7335
 11
-15.9561
 21
70.8442
  0
LINE
  8
0
 10
-15.9561
 20
70.8442
 11
-16.0934
 21
70.9732
  0
LINE
  8
0
 10
-16.0934
 20
70.9732
 11
-16.2135
 21
71.1183
  0
LINE
  8
0
 10
-16.2135
 20
71.1183
 11
-16.3145
 21
71.2774
  0
LINE
  8
0
 10
-16.3145
 20
71.2774
 11
-16.3947
 21
71.4478
  0
LINE
  8
0
 10
-16.3947
 20
71.4478
 11
-16.4529
 21
71.627
  0
LINE
  8
0
 10
-16.4529
 20
71.627
 11
-16.4882
 21
71.812
  0
LINE
  8
0
 10
-16.4882
 20
71.812
 11
-16.5
 21
72
  0
LINE
  8
0
 10
-16.5
 20
72
 11
-16.4882
 21
72.188
  0
LINE
  8
0
 10
-16.4882
 20
72.188
 11
-16.4529
 21
72.373
  0
LINE
  8
0
 10
-16.4529
 20
72.373
 11
-16.3947
 21
72.5522
  0
LINE
  8
0
 10
-16.3947
 20
72.5522
 11
-16.3145
 21
72.7226
  0
LINE
  8
0
 10
-16.3145
 20
72.7226
 11
-16.2135
 21
72.8817
  0
LINE
  8
0
 10
-16.2135
 20
72.8817
 11
-16.0934
 21
73.0268
  0
LINE
  8
0
 10
-16.0934
 20
73.0268
 11
-15.9561
 21
73.1558
  0
LINE
  8
0
 10
-15.9561
 20
73.1558
 11
-15.8037
 21
73.2665
  0
LINE
  8
0
 10
-15.8037
 20
73.2665
 11
-15.6387
 21
73.3572
  0
LINE
  8
0
 10
-15.6387
 20
73.3572
 11
-15.4635
 21
73.4266
  0
LINE
  8
0
 10
-15.4635
 20
73.4266
 11
-15.2811
 21
73.4734
  0
LINE
  8
0
 10
-15.2811
 20
73.4734
 11
-15.0942
 21
73.497
  0
LINE
  8
0
 10
-15.0942
 20
73.497
 11
-14.9058
 21
73.497
  0
LINE
  8
0
 10
-14.9058
 20
73.497
 11
-14.7189
 21
73.4734
  0
LINE
  8
0
 10
-14.7189
 20
73.4734
 11
-14.5365
 21
73.4266
  0
LINE
  8
0
 10
-14.5365
 20
73.4266
 11
-14.3613
 21
73.3572
  0
LINE
  8
0
 10
-14.3613
 20
73.3572
 11
-14.1963
 21
73.2665
  0
LINE
  8
0
 10
-14.1963
 20
73.2665
 11
-14.0439
 21
73.1558
  0
LINE
  8
0
 10
-14.0439
 20
73.1558
 11
-13.9065
 21
73.0268
  0
LINE
  8
0
 10
-13.9065
 20
73.0268
 11
-13.7865
 21
72.8817
  0
LINE
  8
0
 10
-13.7865
 20
72.8817
 11
-13.6855
 21
72.7226
  0
LINE
  8
0
 10
-13.6855
 20
72.7226
 11
-13.6053
 21
72.5522
  0
LINE
  8
0
 10
-13.6053
 20
72.5522
 11
-13.5471
 21
72.373
  0
LINE
  8
0
 10
-13.5471
 20
72.373
 11
-13.5118
 21
72.188
  0
LINE
  8
0
 10
-13.5118
 20
72.188
 11
-13.5
 21
72
  0
LINE
  8
0
 10
-13.5
 20
72
 11
-13.5118
 21
71.812
  0
LINE
  8
0
 10
-13.5118
 20
71.812
 11
-13.5471
 21
71.627
  0
LINE
  8
0
 10
-13.5471
 20
71.627
 11
-13.6053
 21
71.4478
  0
LINE
  8
0
 10
-13.6053
 20
71.4478
 11
-13.6855
 21
71.2774
  0
LINE
  8
0
 10
-13.6855
 20
71.2774
 11
-13.7865
 21
71.1183
  0
LINE
  8
0
 10
-13.7865
 20
71.1183
 11
-13.9065
 21
70.9732
  0
LINE
  8
0
 10
-13.9065
 20
70.9732
 11
-14.0439
 21
70.8442
  0
LINE
  8
0
 10
-14.0439
 20
70.8442
 11
-14.1963
 21
70.7335
  0
LINE
  8
0
 10
-14.1963
 20
70.7335
 11
-14.3613
 21
70.6428
  0
LINE
  8
0
 10
-14.3613
 20
70.6428
 11
-14.5365
 21
70.5734
  0
LINE
  8
0
 10
-14.5365
 20
70.5734
 11
-14.7189
 21
70.5266
  0
LINE
  8
0
 10
-14.7189
 20
70.5266
 11
-14.9058
 21
70.503
  0
LINE
  8
0
 10
-14.9058
 20
70.503
 11
-15.0942
 21
70.503
  0
LINE
  8
0
 10
-0.0941772
 20
70.503
 11
-0.281067
 21
70.5266
  0
LINE
  8
0
 10
-0.281067
 20
70.5266
 11
-0.463516
 21
70.5734
  0
LINE
  8
0
 10
-0.463516
 20
70.5734
 11
-0.638657
 21
70.6428
  0
LINE
  8
0
 10
-0.638657
 20
70.6428
 11
-0.803726
 21
70.7335
  0
LINE
  8
0
 10
-0.803726
 20
70.7335
 11
-0.956131
 21
70.8442
  0
LINE
  8
0
 10
-0.956131
 20
70.8442
 11
-1.09344
 21
70.9732
  0
LINE
  8
0
 10
-1.09344
 20
70.9732
 11
-1.21352
 21
71.1183
  0
LINE
  8
0
 10
-1.21352
 20
71.1183
 11
-1.31445
 21
71.2774
  0
LINE
  8
0
 10
-1.31445
 20
71.2774
 11
-1.39465
 21
71.4478
  0
LINE
  8
0
 10
-1.39465
 20
71.4478
 11
-1.45287
 21
71.627
  0
LINE
  8
0
 10
-1.45287
 20
71.627
 11
-1.48816
 21
71.812
  0
LINE
  8
0
 10
-1.48816
 20
71.812
 11
-1.5
 21
72
  0
LINE
  8
0
 10
-1.5
 20
72
 11
-1.48816
 21
72.188
  0
LINE
  8
0
 10
-1.48816
 20
72.188
 11
-1.45287
 21
72.373
  0
LINE
  8
0
 10
-1.45287
 20
72.373
 11
-1.39465
 21
72.5522
  0
LINE
  8
0
 10
-1.39465
 20
72.5522
 11
-1.31445
 21
72.7226
  0
LINE
  8
0
 10
-1.31445
 20
72.7226
 11
-1.21352
 21
72.8817
  0
LINE
  8
0
 10
-1.21352
 20
72.8817
 11
-1.09344
 21
73.0268
  0
LINE
  8
0
 10
-1.09344
 20
73.0268
 11
-0.956131
 21
73.1558
  0
LINE
  8
0
 10
-0.956131
 20
73.1558
 11
-0.803726
 21
73.2665
  0
LINE
  8
0
 10
-0.803726
 20
73.2665
 11
-0.638657
 21
73.3572
  0
LINE
  8
0
 10
-0.638657
 20
73.3572
 11
-0.463516
 21
73.4266
  0
LINE
  8
0
 10
-0.463516
 20
73.4266
 11
-0.281067
 21
73.4734
  0
LINE
  8
0
 10
-0.281067
 20
73.4734
 11
-0.0941772
 21
73.497
  0
LINE
  8
0
 10
-0.0941772
 20
73.497
 11
0.0941772
 21
73.497
  0
LINE
  8
0
 10
0.0941772
 20
73.497
 11
0.281067
 21
73.4734
  0
LINE
  8
0
 10
0.281067
 20
73.4734
 11
0.463516
 21
73.4266
  0
LINE
  8
0
 10
0.463516
 20
73.4266
 11
0.638657
 21
73.3572
  0
LINE
  8
0
 10
0.638657
 20
73.3572
 11
0.803726
 21
73.2665
  0
LINE
  8
0
 10
0.803726
 20
73.2665
 11
0.956131
 21
73.1558
  0
LINE
  8
0
 10
0.956131
 20
73.1558
 11
1.09344
 21
73.0268
  0
LINE
  8
0
 10
1.09344
 20
73.0268
 11
1.21352
 21
72.8817
  0
LINE
  8
0
 10
1.21352
 20
72.8817
 11
1.31445
 21
72.7226
  0
LINE
  8
0
 10
1.31445
 20
72.7226
 11
1.39465
 21
72.5522
  0
LINE
  8
0
 10
1.39465
 20
72.5522
 11
1.45287
 21
72.373
  0
LINE
  8
0
 10
1.45287
 20
72.373
 11
1.48816
 21
72.188
  0
LINE
  8
0
 10
1.48816
 20
72.188
 11
1.5
 21
72
  0
LINE
  8
0
 10
1.5
 20
72
 11
1.48816
 21
71.812
  0
LINE
  8
0
 10
1.48816
 20
71.812
 11
1.45287
 21
71.627
  0
LINE
  8
0
 10
1.45287
 20
71.627
 11
1.39465
 21
71.4478
  0
LINE
  8
0
 10
1.39465
 20
71.4478
 11
1.31445
 21
71.2774
  0
LINE
  8
0
 10
1.31445
 20
71.2774
 11
1.21352
 21
71.1183
  0
LINE
  8
0
 10
1.21352
 20
71.1183
 11
1.09344
 21
70.9732
  0
LINE
  8
0
 10
1.09344
 20
70.9732
 11
0.956131
 21
70.8442
  0
LINE
  8
0
 10
0.956131
 20
70.8442
 11
0.803726
 21
70.7335
  0
LINE
  8
0
 10
0.803726
 20
70.7335
 11
0.638657
 21
70.6428
  0
LINE
  8
0
 10
0.638657
 20
70.6428
 11
0.463516
 21
70.5734
  0
LINE
  8
0
 10
0.463516
 20
70.5734
 11
0.281067
 21
70.5266
  0
LINE
  8
0
 10
0.281067
 20
70.5266
 11
0.0941772
 21
70.503
  0
LINE
  8
0
 10
0.0941772
 20
70.503
 11
-0.0941772
 21
70.503
  0
LINE
  8
0
 10
22.4058
 20
70.503
 11
22.2189
 21
70.5266
  0
LINE
  8
0
 10
22.2189
 20
70.5266
 11
22.0365
 21
70.5734
  0
LINE
  8
0
 10
22.0365
 20
70.5734
 11
21.8613
 21
70.6428
  0
LINE
  8
0
 10
21.8613
 20
70.6428
 11
21.6963
 21
70.7335
  0
LINE
  8
0
 10
21.6963
 20
70.7335
 11
21.5439
 21
70.8442
  0
LINE
  8
0
 10
21.5439
 20
70.8442
 11
21.4065
 21
70.9732
  0
LINE
  8
0
 10
21.4065
 20
70.9732
 11
21.2865
 21
71.1183
  0
LINE
  8
0
 10
21.2865
 20
71.1183
 11
21.1855
 21
71.2774
  0
LINE
  8
0
 10
21.1855
 20
71.2774
 11
21.1053
 21
71.4478
  0
LINE
  8
0
 10
21.1053
 20
71.4478
 11
21.0471
 21
71.627
  0
LINE
  8
0
 10
21.0471
 20
71.627
 11
21.0118
 21
71.812
  0
LINE
  8
0
 10
21.0118
 20
71.812
 11
21
 21
72
  0
LINE
  8
0
 10
21
 20
72
 11
21.0118
 21
72.188
  0
LINE
  8
0
 10
21.0118
 20
72.188
 11
21.0471
 21
72.373
  0
LINE
  8
0
 10
21.0471
 20
72.373
 11
21.1053
 21
72.5522
  0
LINE
  8
0
 10
21.1053
 20
72.5522
 11
21.1855
 21
72.7226
  0
LINE
  8
0
 10
21.1855
 20
72.7226
 11
21.2865
 21
72.8817
  0
LINE
  8
0
 10
21.2865
 20
72.8817
 11
21.4065
 21
73.0268
  0
LINE
  8
0
 10
21.4065
 20
73.0268
 11
21.5439
 21
73.1558
  0
LINE
  8
0
 10
21.5439
 20
73.1558
 11
21.6963
 21
73.2665
  0
LINE
  8
0
 10
21.6963
 20
73.2665
 11
21.8613
 21
73.3572
  0
LINE
  8
0
 10
21.8613
 20
73.3572
 11
22.0365
 21
73.4266
  0
LINE
  8
0
 10
22.0365
 20
73.4266
 11
22.2189
 21
73.4734
  0
LINE
  8
0
 10
22.2189
 20
73.4734
 11
22.4058
 21
73.497
  0
LINE
  8
0
 10
22.4058
 20
73.497
 11
22.5942
 21
73.497
  0
LINE
  8
0
 10
22.5942
 20
73.497
 11
22.7811
 21
73.4734
  0
LINE
  8
0
 10
22.7811
 20
73.4734
 11
22.9635
 21
73.4266
  0
LINE
  8
0
 10
22.9635
 20
73.4266
 11
23.1387
 21
73.3572
  0
LINE
  8
0
 10
23.1387
 20
73.3572
 11
23.3037
 21
73.2665
  0
LINE
  8
0
 10
23.3037
 20
73.2665
 11
23.4561
 21
73.1558
  0
LINE
  8
0
 10
23.4561
 20
73.1558
 11
23.5934
 21
73.0268
  0
LINE
  8
0
 10
23.5934
 20
73.0268
 11
23.7135
 21
72.8817
  0
LINE
  8
0
 10
23.7135
 20
72.8817
 11
23.8145
 21
72.7226
  0
LINE
  8
0
 10
23.8145
 20
72.7226
 11
23.8947
 21
72.5522
  0
LINE
  8
0
 10
23.8947
 20
72.5522
 11
23.9529
 21
72.373
  0
LINE
  8
0
 10
23.9529
 20
72.373
 11
23.9882
 21
72.188
  0
LINE
  8
0
 10
23.9882
 20
72.188
 11
24
 21
72
  0
LINE
  8
0
 10
24
 20
72
 11
23.9882
 21
71.812
  0
LINE
  8
0
 10
23.9882
 20
71.812
 11
23.9529
 21
71.627
  0
LINE
  8
0
 10
23.9529
 20
71.627
 11
23.8947
 21
71.4478
  0
LINE
  8
0
 10
23.8947
 20
71.4478
 11
23.8145
 21
71.2774
  0
LINE
  8
0
 10
23.8145
 20
71.2774
 11
23.7135
 21
71.1183
  0
LINE
  8
0
 10
23.7135
 20
71.1183
 11
23.5934
 21
70.9732
  0
LINE
  8
0
 10
23.5934
 20
70.9732
 11
23.4561
 21
70.8442
  0
LINE
  8
0
 10
23.4561
 20
70.8442
 11
23.3037
 21
70.7335
  0
LINE
  8
0
 10
23.3037
 20
70.7335
 11
23.1387
 21
70.6428
  0
LINE
  8
0
 10
23.1387
 20
70.6428
 11
22.9635
 21
70.5734
  0
LINE
  8
0
 10
22.9635
 20
70.5734
 11
22.7811
 21
70.5266
  0
LINE
  8
0
 10
22.7811
 20
70.5266
 11
22.5942
 21
70.503
  0
LINE
  8
0
 10
22.5942
 20
70.503
 11
22.4058
 21
70.503
  0
LINE
  8
0
 10
-7.59418
 20
70.503
 11
-7.78107
 21
70.5266
  0
LINE
  8
0
 10
-7.78107
 20
70.5266
 11
-7.96352
 21
70.5734
  0
LINE
  8
0
 10
-7.96352
 20
70.5734
 11
-8.13866
 21
70.6428
  0
LINE
  8
0
 10
-8.13866
 20
70.6428
 11
-8.30373
 21
70.7335
  0
LINE
  8
0
 10
-8.30373
 20
70.7335
 11
-8.45613
 21
70.8442
  0
LINE
  8
0
 10
-8.45613
 20
70.8442
 11
-8.59344
 21
70.9732
  0
LINE
  8
0
 10
-8.59344
 20
70.9732
 11
-8.71352
 21
71.1183
  0
LINE
  8
0
 10
-8.71352
 20
71.1183
 11
-8.81445
 21
71.2774
  0
LINE
  8
0
 10
-8.81445
 20
71.2774
 11
-8.89465
 21
71.4478
  0
LINE
  8
0
 10
-8.89465
 20
71.4478
 11
-8.95287
 21
71.627
  0
LINE
  8
0
 10
-8.95287
 20
71.627
 11
-8.98816
 21
71.812
  0
LINE
  8
0
 10
-8.98816
 20
71.812
 11
-9
 21
72
  0
LINE
  8
0
 10
-9
 20
72
 11
-8.98816
 21
72.188
  0
LINE
  8
0
 10
-8.98816
 20
72.188
 11
-8.95287
 21
72.373
  0
LINE
  8
0
 10
-8.95287
 20
72.373
 11
-8.89465
 21
72.5522
  0
LINE
  8
0
 10
-8.89465
 20
72.5522
 11
-8.81445
 21
72.7226
  0
LINE
  8
0
 10
-8.81445
 20
72.7226
 11
-8.71352
 21
72.8817
  0
LINE
  8
0
 10
-8.71352
 20
72.8817
 11
-8.59344
 21
73.0268
  0
LINE
  8
0
 10
-8.59344
 20
73.0268
 11
-8.45613
 21
73.1558
  0
LINE
  8
0
 10
-8.45613
 20
73.1558
 11
-8.30373
 21
73.2665
  0
LINE
  8
0
 10
-8.30373
 20
73.2665
 11
-8.13866
 21
73.3572
  0
LINE
  8
0
 10
-8.13866
 20
73.3572
 11
-7.96352
 21
73.4266
  0
LINE
  8
0
 10
-7.96352
 20
73.4266
 11
-7.78107
 21
73.4734
  0
LINE
  8
0
 10
-7.78107
 20
73.4734
 11
-7.59418
 21
73.497
  0
LINE
  8
0
 10
-7.59418
 20
73.497
 11
-7.40581
 21
73.497
  0
LINE
  8
0
 10
-7.40581
 20
73.497
 11
-7.21892
 21
73.4734
  0
LINE
  8
0
 10
-7.21892
 20
73.4734
 11
-7.03647
 21
73.4266
  0
LINE
  8
0
 10
-7.03647
 20
73.4266
 11
-6.86133
 21
73.3572
  0
LINE
  8
0
 10
-6.86133
 20
73.3572
 11
-6.69626
 21
73.2665
  0
LINE
  8
0
 10
-6.69626
 20
73.2665
 11
-6.54385
 21
73.1558
  0
LINE
  8
0
 10
-6.54385
 20
73.1558
 11
-6.40654
 21
73.0268
  0
LINE
  8
0
 10
-6.40654
 20
73.0268
 11
-6.28647
 21
72.8817
  0
LINE
  8
0
 10
-6.28647
 20
72.8817
 11
-6.18553
 21
72.7226
  0
LINE
  8
0
 10
-6.18553
 20
72.7226
 11
-6.10533
 21
72.5522
  0
LINE
  8
0
 10
-6.10533
 20
72.5522
 11
-6.04712
 21
72.373
  0
LINE
  8
0
 10
-6.04712
 20
72.373
 11
-6.01183
 21
72.188
  0
LINE
  8
0
 10
-6.01183
 20
72.188
 11
-6
 21
72
  0
LINE
  8
0
 10
-6
 20
72
 11
-6.01183
 21
71.812
  0
LINE
  8
0
 10
-6.01183
 20
71.812
 11
-6.04712
 21
71.627
  0
LINE
  8
0
 10
-6.04712
 20
71.627
 11
-6.10533
 21
71.4478
  0
LINE
  8
0
 10
-6.10533
 20
71.4478
 11
-6.18553
 21
71.2774
  0
LINE
  8
0
 10
-6.18553
 20
71.2774
 11
-6.28647
 21
71.1183
  0
LINE
  8
0
 10
-6.28647
 20
71.1183
 11
-6.40654
 21
70.9732
  0
LINE
  8
0
 10
-6.40654
 20
70.9732
 11
-6.54385
 21
70.8442
  0
LINE
  8
0
 10
-6.54385
 20
70.8442
 11
-6.69626
 21
70.7335
  0
LINE
  8
0
 10
-6.69626
 20
70.7335
 11
-6.86133
 21
70.6428
  0
LINE
  8
0
 10
-6.86133
 20
70.6428
 11
-7.03647
 21
70.5734
  0
LINE
  8
0
 10
-7.03647
 20
70.5734
 11
-7.21892
 21
70.5266
  0
LINE
  8
0
 10
-7.21892
 20
70.5266
 11
-7.40581
 21
70.503
  0
LINE
  8
0
 10
-7.40581
 20
70.503
 11
-7.59418
 21
70.503
  0
LINE
  8
0
 10
14.9058
 20
70.503
 11
14.7189
 21
70.5266
  0
LINE
  8
0
 10
14.7189
 20
70.5266
 11
14.5365
 21
70.5734
  0
LINE
  8
0
 10
14.5365
 20
70.5734
 11
14.3613
 21
70.6428
  0
LINE
  8
0
 10
14.3613
 20
70.6428
 11
14.1963
 21
70.7335
  0
LINE
  8
0
 10
14.1963
 20
70.7335
 11
14.0439
 21
70.8442
  0
LINE
  8
0
 10
14.0439
 20
70.8442
 11
13.9065
 21
70.9732
  0
LINE
  8
0
 10
13.9065
 20
70.9732
 11
13.7865
 21
71.1183
  0
LINE
  8
0
 10
13.7865
 20
71.1183
 11
13.6855
 21
71.2774
  0
LINE
  8
0
 10
13.6855
 20
71.2774
 11
13.6053
 21
71.4478
  0
LINE
  8
0
 10
13.6053
 20
71.4478
 11
13.5471
 21
71.627
  0
LINE
  8
0
 10
13.5471
 20
71.627
 11
13.5118
 21
71.812
  0
LINE
  8
0
 10
13.5118
 20
71.812
 11
13.5
 21
72
  0
LINE
  8
0
 10
13.5
 20
72
 11
13.5118
 21
72.188
  0
LINE
  8
0
 10
13.5118
 20
72.188
 11
13.5471
 21
72.373
  0
LINE
  8
0
 10
13.5471
 20
72.373
 11
13.6053
 21
72.5522
  0
LINE
  8
0
 10
13.6053
 20
72.5522
 11
13.6855
 21
72.7226
  0
LINE
  8
0
 10
13.6855
 20
72.7226
 11
13.7865
 21
72.8817
  0
LINE
  8
0
 10
13.7865
 20
72.8817
 11
13.9065
 21
73.0268
  0
LINE
  8
0
 10
13.9065
 20
73.0268
 11
14.0439
 21
73.1558
  0
LINE
  8
0
 10
14.0439
 20
73.1558
 11
14.1963
 21
73.2665
  0
LINE
  8
0
 10
14.1963
 20
73.2665
 11
14.3613
 21
73.3572
  0
LINE
  8
0
 10
14.3613
 20
73.3572
 11
14.5365
 21
73.4266
  0
LINE
  8
0
 10
14.5365
 20
73.4266
 11
14.7189
 21
73.4734
  0
LINE
  8
0
 10
14.7189
 20
73.4734
 11
14.9058
 21
73.497
  0
LINE
  8
0
 10
14.9058
 20
73.497
 11
15.0942
 21
73.497
  0
LINE
  8
0
 10
15.0942
 20
73.497
 11
15.2811
 21
73.4734
  0
LINE
  8
0
 10
15.2811
 20
73.4734
 11
15.4635
 21
73.4266
  0
LINE
  8
0
 10
15.4635
 20
73.4266
 11
15.6387
 21
73.3572
  0
LINE
  8
0
 10
15.6387
 20
73.3572
 11
15.8037
 21
73.2665
  0
LINE
  8
0
 10
15.8037
 20
73.2665
 11
15.9561
 21
73.1558
  0
LINE
  8
0
 10
15.9561
 20
73.1558
 11
16.0934
 21
73.0268
  0
LINE
  8
0
 10
16.0934
 20
73.0268
 11
16.2135
 21
72.8817
  0
LINE
  8
0
 10
16.2135
 20
72.8817
 11
16.3145
 21
72.7226
  0
LINE
  8
0
 10
16.3145
 20
72.7226
 11
16.3947
 21
72.5522
  0
LINE
  8
0
 10
16.3947
 20
72.5522
 11
16.4529
 21
72.373
  0
LINE
  8
0
 10
16.4529
 20
72.373
 11
16.4882
 21
72.188
  0
LINE
  8
0
 10
16.4882
 20
72.188
 11
16.5
 21
72
  0
LINE
  8
0
 10
16.5
 20
72
 11
16.4882
 21
71.812
  0
LINE
  8
0
 10
16.4882
 20
71.812
 11
16.4529
 21
71.627
  0
LINE
  8
0
 10
16.4529
 20
71.627
 11
16.3947
 21
71.4478
  0
LINE
  8
0
 10
16.3947
 20
71.4478
 11
16.3145
 21
71.2774
  0
LINE
  8
0
 10
16.3145
 20
71.2774
 11
16.2135
 21
71.1183
  0
LINE
  8
0
 10
16.2135
 20
71.1183
 11
16.0934
 21
70.9732
  0
LINE
  8
0
 10
16.0934
 20
70.9732
 11
15.9561
 21
70.8442
  0
LINE
  8
0
 10
15.9561
 20
70.8442
 11
15.8037
 21
70.7335
  0
LINE
  8
0
 10
15.8037
 20
70.7335
 11
15.6387
 21
70.6428
  0
LINE
  8
0
 10
15.6387
 20
70.6428
 11
15.4635
 21
70.5734
  0
LINE
  8
0
 10
15.4635
 20
70.5734
 11
15.2811
 21
70.5266
  0
LINE
  8
0
 10
15.2811
 20
70.5266
 11
15.0942
 21
70.503
  0
LINE
  8
0
 10
15.0942
 20
70.503
 11
14.9058
 21
70.503
  0
LINE
  8
0
 10
25.4369
 20
41.0886
 11
26.0451
 21
41.2447
  0
LINE
  8
0
 10
26.0451
 20
41.2447
 11
26.6289
 21
41.4759
  0
LINE
  8
0
 10
26.6289
 20
41.4759
 11
27.1791
 21
41.7784
  0
LINE
  8
0
 10
27.1791
 20
41.7784
 11
27.6871
 21
42.1474
  0
LINE
  8
0
 10
27.6871
 20
42.1474
 11
28.1448
 21
42.5773
  0
LINE
  8
0
 10
28.1448
 20
42.5773
 11
28.5451
 21
43.0611
  0
LINE
  8
0
 10
28.5451
 20
43.0611
 11
28.8815
 21
43.5912
  0
LINE
  8
0
 10
28.8815
 20
43.5912
 11
29.1489
 21
44.1594
  0
LINE
  8
0
 10
29.1489
 20
44.1594
 11
29.3429
 21
44.7566
  0
LINE
  8
0
 10
29.3429
 20
44.7566
 11
29.4606
 21
45.3733
  0
LINE
  8
0
 10
29.4606
 20
45.3733
 11
29.5
 21
46
  0
LINE
  8
0
 10
29.5
 20
46
 11
29.5
 21
50
  0
LINE
  8
0
 10
29.5
 20
50
 11
29.4606
 21
50.6267
  0
LINE
  8
0
 10
29.4606
 20
50.6267
 11
29.3429
 21
51.2434
  0
LINE
  8
0
 10
29.3429
 20
51.2434
 11
29.1489
 21
51.8406
  0
LINE
  8
0
 10
29.1489
 20
51.8406
 11
28.8815
 21
52.4088
  0
LINE
  8
0
 10
28.8815
 20
52.4088
 11
28.5451
 21
52.9389
  0
LINE
  8
0
 10
28.5451
 20
52.9389
 11
28.1448
 21
53.4227
  0
LINE
  8
0
 10
28.1448
 20
53.4227
 11
27.6871
 21
53.8526
  0
LINE
  8
0
 10
27.6871
 20
53.8526
 11
27.1791
 21
54.2216
  0
LINE
  8
0
 10
27.1791
 20
54.2216
 11
26.6289
 21
54.5241
  0
LINE
  8
0
 10
26.6289
 20
54.5241
 11
26.0451
 21
54.7553
  0
LINE
  8
0
 10
26.0451
 20
54.7553
 11
25.4369
 21
54.9114
  0
LINE
  8
0
 10
25.4369
 20
54.9114
 11
24.8139
 21
54.9901
  0
LINE
  8
0
 10
24.8139
 20
54.9901
 11
-24.8139
 21
54.9901
  0
LINE
  8
0
 10
-24.8139
 20
54.9901
 11
-25.4369
 21
54.9114
  0
LINE
  8
0
 10
-25.4369
 20
54.9114
 11
-26.0451
 21
54.7553
  0
LINE
  8
0
 10
-26.0451
 20
54.7553
 11
-26.6289
 21
54.5241
  0
LINE
  8
0
 10
-26.6289
 20
54.5241
 11
-27.1791
 21
54.2216
  0
LINE
  8
0
 10
-27.1791
 20
54.2216
 11
-27.6871
 21
53.8526
  0
LINE
  8
0
 10
-27.6871
 20
53.8526
 11
-28.1448
 21
53.4227
  0
LINE
  8
0
 10
-28.1448
 20
53.4227
 11
-28.5451
 21
52.9389
  0
LINE
  8
0
 10
-28.5451
 20
52.9389
 11
-28.8815
 21
52.4088
  0
LINE
  8
0
 10
-28.8815
 20
52.4088
 11
-29.1489
 21
51.8406
  0
LINE
  8
0
 10
-29.1489
 20
51.8406
 11
-29.3429
 21
51.2434
  0
LINE
  8
0
 10
-29.3429
 20
51.2434
 11
-29.4606
 21
50.6267
  0
LINE
  8
0
 10
-29.4606
 20
50.6267
 11
-29.5
 21
50
  0
LINE
  8
0
 10
-29.5
 20
50
 11
-29.5
 21
46
  0
LINE
  8
0
 10
-29.5
 20
46
 11
-29.4606
 21
45.3733
  0
LINE
  8
0
 10
-29.4606
 20
45.3733
 11
-29.3429
 21
44.7566
  0
LINE
  8
0
 10
-29.3429
 20
44.7566
 11
-29.1489
 21
44.1594
  0
LINE
  8
0
 10
-29.1489
 20
44.1594
 11
-28.8815
 21
43.5912
  0
LINE
  8
0
 10
-28.8815
 20
43.5912
 11
-28.5451
 21
43.0611
  0
LINE
  8
0
 10
-28.5451
 20
43.0611
 11
-28.1448
 21
42.5773
  0
LINE
  8
0
 10
-28.1448
 20
42.5773
 11
-27.6871
 21
42.1474
  0
LINE
  8
0
 10
-27.6871
 20
42.1474
 11
-27.1791
 21
41.7784
  0
LINE
  8
0
 10
-27.1791
 20
41.7784
 11
-26.6289
 21
41.4759
  0
LINE
  8
0
 10
-26.6289
 20
41.4759
 11
-26.0451
 21
41.2447
  0
LINE
  8
0
 10
-26.0451
 20
41.2447
 11
-25.4369
 21
41.0886
  0
LINE
  8
0
 10
-25.4369
 20
41.0886
 11
-24.8139
 21
41.0099
  0
LINE
  8
0
 10
-24.8139
 20
41.0099
 11
24.8139
 21
41.0099
  0
LINE
  8
0
 10
24.8139
 20
41.0099
 11
25.4369
 21
41.0886
  0
LINE
  8
0
 10
-22.5942
 20
46.503
 11
-22.7811
 21
46.5266
  0
LINE
  8
0
 10
-22.7811
 20
46.5266
 11
-22.9635
 21
46.5734
  0
LINE
  8
0
 10
-22.9635
 20
46.5734
 11
-23.1387
 21
46.6428
  0
LINE
  8
0
 10
-23.1387
 20
46.6428
 11
-23.3037
 21
46.7335
  0
LINE
  8
0
 10
-23.3037
 20
46.7335
 11
-23.4561
 21
46.8442
  0
LINE
  8
0
 10
-23.4561
 20
46.8442
 11
-23.5934
 21
46.9732
  0
LINE
  8
0
 10
-23.5934
 20
46.9732
 11
-23.7135
 21
47.1183
  0
LINE
  8
0
 10
-23.7135
 20
47.1183
 11
-23.8145
 21
47.2774
  0
LINE
  8
0
 10
-23.8145
 20
47.2774
 11
-23.8947
 21
47.4478
  0
LINE
  8
0
 10
-23.8947
 20
47.4478
 11
-23.9529
 21
47.627
  0
LINE
  8
0
 10
-23.9529
 20
47.627
 11
-23.9882
 21
47.812
  0
LINE
  8
0
 10
-23.9882
 20
47.812
 11
-24
 21
48
  0
LINE
  8
0
 10
-24
 20
48
 11
-23.9882
 21
48.188
  0
LINE
  8
0
 10
-23.9882
 20
48.188
 11
-23.9529
 21
48.373
  0
LINE
  8
0
 10
-23.9529
 20
48.373
 11
-23.8947
 21
48.5522
  0
LINE
  8
0
 10
-23.8947
 20
48.5522
 11
-23.8145
 21
48.7226
  0
LINE
  8
0
 10
-23.8145
 20
48.7226
 11
-23.7135
 21
48.8817
  0
LINE
  8
0
 10
-23.7135
 20
48.8817
 11
-23.5934
 21
49.0268
  0
LINE
  8
0
 10
-23.5934
 20
49.0268
 11
-23.4561
 21
49.1558
  0
LINE
  8
0
 10
-23.4561
 20
49.1558
 11
-23.3037
 21
49.2665
  0
LINE
  8
0
 10
-23.3037
 20
49.2665
 11
-23.1387
 21
49.3572
  0
LINE
  8
0
 10
-23.1387
 20
49.3572
 11
-22.9635
 21
49.4266
  0
LINE
  8
0
 10
-22.9635
 20
49.4266
 11
-22.7811
 21
49.4734
  0
LINE
  8
0
 10
-22.7811
 20
49.4734
 11
-22.5942
 21
49.497
  0
LINE
  8
0
 10
-22.5942
 20
49.497
 11
-22.4058
 21
49.497
  0
LINE
  8
0
 10
-22.4058
 20
49.497
 11
-22.2189
 21
49.4734
  0
LINE
  8
0
 10
-22.2189
 20
49.4734
 11
-22.0365
 21
49.4266
  0
LINE
  8
0
 10
-22.0365
 20
49.4266
 11
-21.8613
 21
49.3572
  0
LINE
  8
0
 10
-21.8613
 20
49.3572
 11
-21.6963
 21
49.2665
  0
LINE
  8
0
 10
-21.6963
 20
49.2665
 11
-21.5439
 21
49.1558
  0
LINE
  8
0
 10
-21.5439
 20
49.1558
 11
-21.4065
 21
49.0268
  0
LINE
  8
0
 10
-21.4065
 20
49.0268
 11
-21.2865
 21
48.8817
  0
LINE
  8
0
 10
-21.2865
 20
48.8817
 11
-21.1855
 21
48.7226
  0
LINE
  8
0
 10
-21.1855
 20
48.7226
 11
-21.1053
 21
48.5522
  0
LINE
  8
0
 10
-21.1053
 20
48.5522
 11
-21.0471
 21
48.373
  0
LINE
  8
0
 10
-21.0471
 20
48.373
 11
-21.0118
 21
48.188
  0
LINE
  8
0
 10
-21.0118
 20
48.188
 11
-21
 21
48
  0
LINE
  8
0
 10
-21
 20
48
 11
-21.0118
 21
47.812
  0
LINE
  8
0
 10
-21.0118
 20
47.812
 11
-21.0471
 21
47.627
  0
LINE
  8
0
 10
-21.0471
 20
47.627
 11
-21.1053
 21
47.4478
  0
LINE
  8
0
 10
-21.1053
 20
47.4478
 11
-21.1855
 21
47.2774
  0
LINE
  8
0
 10
-21.1855
 20
47.2774
 11
-21.2865
 21
47.1183
  0
LINE
  8
0
 10
-21.2865
 20
47.1183
 11
-21.4065
 21
46.9732
  0
LINE
  8
0
 10
-21.4065
 20
46.9732
 11
-21.5439
 21
46.8442
  0
LINE
  8
0
 10
-21.5439
 20
46.8442
 11
-21.6963
 21
46.7335
  0
LINE
  8
0
 10
-21.6963
 20
46.7335
 11
-21.8613
 21
46.6428
  0
LINE
  8
0
 10
-21.8613
 20
46.6428
 11
-22.0365
 21
46.5734
  0
LINE
  8
0
 10
-22.0365
 20
46.5734
 11
-22.2189
 21
46.5266
  0
LINE
  8
0
 10
-22.2189
 20
46.5266
 11
-22.4058
 21
46.503
  0
LINE
  8
0
 10
-22.4058
 20
46.503
 11
-22.5942
 21
46.503
  0
LINE
  8
0
 10
7.40581
 20
46.503
 11
7.21892
 21
46.5266
  0
LINE
  8
0
 10
7.21892
 20
46.5266
 11
7.03647
 21
46.5734
  0
LINE
  8
0
 10
7.03647
 20
46.5734
 11
6.86133
 21
46.6428
  0
LINE
  8
0
 10
6.86133
 20
46.6428
 11
6.69626
 21
46.7335
  0
LINE
  8
0
 10
6.69626
 20
46.7335
 11
6.54385
 21
46.8442
  0
LINE
  8
0
 10
6.54385
 20
46.8442
 11
6.40654
 21
46.9732
  0
LINE
  8
0
 10
6.40654
 20
46.9732
 11
6.28647
 21
47.1183
  0
LINE
  8
0
 10
6.28647
 20
47.1183
 11
6.18553
 21
47.2774
  0
LINE
  8
0
 10
6.18553
 20
47.2774
 11
6.10533
 21
47.4478
  0
LINE
  8
0
 10
6.10533
 20
47.4478
 11
6.04712
 21
47.627
  0
LINE
  8
0
 10
6.04712
 20
47.627
 11
6.01183
 21
47.812
  0
LINE
  8
0
 10
6.01183
 20
47.812
 11
6
 21
48
  0
LINE
  8
0
 10
6
 20
48
 11
6.01183
 21
48.188
  0
LINE
  8
0
 10
6.01183
 20
48.188
 11
6.04712
 21
48.373
  0
LINE
  8
0
 10
6.04712
 20
48.373
 11
6.10533
 21
48.5522
  0
LINE
  8
0
 10
6.10533
 20
48.5522
 11
6.18553
 21
48.7226
  0
LINE
  8
0
 10
6.18553
 20
48.7226
 11
6.28647
 21
48.8817
  0
LINE
  8
0
 10
6.28647
 20
48.8817
 11
6.40654
 21
49.0268
  0
LINE
  8
0
 10
6.40654
 20
49.0268
 11
6.54385
 21
49.1558
  0
LINE
  8
0
 10
6.54385
 20
49.1558
 11
6.69626
 21
49.2665
  0
LINE
  8
0
 10
6.69626
 20
49.2665
 11
6.86133
 21
49.3572
  0
LINE
  8
0
 10
6.86133
 20
49.3572
 11
7.03647
 21
49.4266
  0
LINE
  8
0
 10
7.03647
 20
49.4266
 11
7.21892
 21
49.4734
  0
LINE
  8
0
 10
7.21892
 20
49.4734
 11
7.40581
 21
49.497
  0
LINE
  8
0
 10
7.40581
 20
49.497
 11
7.59418
 21
49.497
  0
LINE
  8
0
 10
7.59418
 20
49.497
 11
7.78107
 21
49.4734
  0
LINE
  8
0
 10
7.78107
 20
49.4734
 11
7.96352
 21
49.4266
  0
LINE
  8
0
 10
7.96352
 20
49.4266
 11
8.13866
 21
49.3572
  0
LINE
  8
0
 10
8.13866
 20
49.3572
 11
8.30373
 21
49.2665
  0
LINE
  8
0
 10
8.30373
 20
49.2665
 11
8.45613
 21
49.1558
  0
LINE
  8
0
 10
8.45613
 20
49.1558
 11
8.59344
 21
49.0268
  0
LINE
  8
0
 10
8.59344
 20
49.0268
 11
8.71352
 21
48.8817
  0
LINE
  8
0
 10
8.71352
 20
48.8817
 11
8.81445
 21
48.7226
  0
LINE
  8
0
 10
8.81445
 20
48.7226
 11
8.89465
 21
48.5522
  0
LINE
  8
0
 10
8.89465
 20
48.5522
 11
8.95287
 21
48.373
  0
LINE
  8
0
 10
8.95287
 20
48.373
 11
8.98816
 21
48.188
  0
LINE
  8
0
 10
8.98816
 20
48.188
 11
9
 21
48
  0
LINE
  8
0
 10
9
 20
48
 11
8.98816
 21
47.812
  0
LINE
  8
0
 10
8.98816
 20
47.812
 11
8.95287
 21
47.627
  0
LINE
  8
0
 10
8.95287
 20
47.627
 11
8.89465
 21
47.4478
  0
LINE
  8
0
 10
8.89465
 20
47.4478
 11
8.81445
 21
47.2774
  0
LINE
  8
0
 10
8.81445
 20
47.2774
 11
8.71352
 21
47.1183
  0
LINE
  8
0
 10
8.71352
 20
47.1183
 11
8.59344
 21
46.9732
  0
LINE
  8
0
 10
8.59344
 20
46.9732
 11
8.45613
 21
46.8442
  0
LINE
  8
0
 10
8.45613
 20
46.8442
 11
8.30373
 21
46.7335
  0
LINE
  8
0
 10
8.30373
 20
46.7335
 11
8.13866
 21
46.6428
  0
LINE
  8
0
 10
8.13866
 20
46.6428
 11
7.96352
 21
46.5734
  0
LINE
  8
0
 10
7.96352
 20
46.5734
 11
7.78107
 21
46.5266
  0
LINE
  8
0
 10
7.78107
 20
46.5266
 11
7.59418
 21
46.503
  0
LINE
  8
0
 10
7.59418
 20
46.503
 11
7.40581
 21
46.503
  0
LINE
  8
0
 10
-15.0942
 20
46.503
 11
-15.2811
 21
46.5266
  0
LINE
  8
0
 10
-15.2811
 20
46.5266
 11
-15.4635
 21
46.5734
  0
LINE
  8
0
 10
-15.4635
 20
46.5734
 11
-15.6387
 21
46.6428
  0
LINE
  8
0
 10
-15.6387
 20
46.6428
 11
-15.8037
 21
46.7335
  0
LINE
  8
0
 10
-15.8037
 20
46.7335
 11
-15.9561
 21
46.8442
  0
LINE
  8
0
 10
-15.9561
 20
46.8442
 11
-16.0934
 21
46.9732
  0
LINE
  8
0
 10
-16.0934
 20
46.9732
 11
-16.2135
 21
47.1183
  0
LINE
  8
0
 10
-16.2135
 20
47.1183
 11
-16.3145
 21
47.2774
  0
LINE
  8
0
 10
-16.3145
 20
47.2774
 11
-16.3947
 21
47.4478
  0
LINE
  8
0
 10
-16.3947
 20
47.4478
 11
-16.4529
 21
47.627
  0
LINE
  8
0
 10
-16.4529
 20
47.627
 11
-16.4882
 21
47.812
  0
LINE
  8
0
 10
-16.4882
 20
47.812
 11
-16.5
 21
48
  0
LINE
  8
0
 10
-16.5
 20
48
 11
-16.4882
 21
48.188
  0
LINE
  8
0
 10
-16.4882
 20
48.188
 11
-16.4529
 21
48.373
  0
LINE
  8
0
 10
-16.4529
 20
48.373
 11
-16.3947
 21
48.5522
  0
LINE
  8
0
 10
-16.3947
 20
48.5522
 11
-16.3145
 21
48.7226
  0
LINE
  8
0
 10
-16.3145
 20
48.7226
 11
-16.2135
 21
48.8817
  0
LINE
  8
0
 10
-16.2135
 20
48.8817
 11
-16.0934
 21
49.0268
  0
LINE
  8
0
 10
-16.0934
 20
49.0268
 11
-15.9561
 21
49.1558
  0
LINE
  8
0
 10
-15.9561
 20
49.1558
 11
-15.8037
 21
49.2665
  0
LINE
  8
0
 10
-15.8037
 20
49.2665
 11
-15.6387
 21
49.3572
  0
LINE
  8
0
 10
-15.6387
 20
49.3572
 11
-15.4635
 21
49.4266
  0
LINE
  8
0
 10
-15.4635
 20
49.4266
 11
-15.2811
 21
49.4734
  0
LINE
  8
0
 10
-15.2811
 20
49.4734
 11
-15.0942
 21
49.497
  0
LINE
  8
0
 10
-15.0942
 20
49.497
 11
-14.9058
 21
49.497
  0
LINE
  8
0
 10
-14.9058
 20
49.497
 11
-14.7189
 21
49.4734
  0
LINE
  8
0
 10
-14.7189
 20
49.4734
 11
-14.5365
 21
49.4266
  0
LINE
  8
0
 10
-14.5365
 20
49.4266
 11
-14.3613
 21
49.3572
  0
LINE
  8
0
 10
-14.3613
 20
49.3572
 11
-14.1963
 21
49.2665
  0
LINE
  8
0
 10
-14.1963
 20
49.2665
 11
-14.0439
 21
49.1558
  0
LINE
  8
0
 10
-14.0439
 20
49.1558
 11
-13.9065
 21
49.0268
  0
LINE
  8
0
 10
-13.9065
 20
49.0268
 11
-13.7865
 21
48.8817
  0
LINE
  8
0
 10
-13.7865
 20
48.8817
 11
-13.6855
 21
48.7226
  0
LINE
  8
0
 10
-13.6855
 20
48.7226
 11
-13.6053
 21
48.5522
  0
LINE
  8
0
 10
-13.6053
 20
48.5522
 11
-13.5471
 21
48.373
  0
LINE
  8
0
 10
-13.5471
 20
48.373
 11
-13.5118
 21
48.188
  0
LINE
  8
0
 10
-13.5118
 20
48.188
 11
-13.5
 21
48
  0
LINE
  8
0
 10
-13.5
 20
48
 11
-13.5118
 21
47.812
  0
LINE
  8
0
 10
-13.5118
 20
47.812
 11
-13.5471
 21
47.627
  0
LINE
  8
0
 10
-13.5471
 20
47.627
 11
-13.6053
 21
47.4478
  0
LINE
  8
0
 10
-13.6053
 20
47.4478
 11
-13.6855
 21
47.2774
  0
LINE
  8
0
 10
-13.6855
 20
47.2774
 11
-13.7865
 21
47.1183
  0
LINE
  8
0
 10
-13.7865
 20
47.1183
 11
-13.9065
 21
46.9732
  0
LINE
  8
0
 10
-13.9065
 20
46.9732
 11
-14.0439
 21
46.8442
  0
LINE
  8
0
 10
-14.0439
 20
46.8442
 11
-14.1963
 21
46.7335
  0
LINE
  8
0
 10
-14.1963
 20
46.7335
 11
-14.3613
 21
46.6428
  0
LINE
  8
0
 10
-14.3613
 20
46.6428
 11
-14.5365
 21
46.5734
  0
LINE
  8
0
 10
-14.5365
 20
46.5734
 11
-14.7189
 21
46.5266
  0
LINE
  8
0
 10
-14.7189
 20
46.5266
 11
-14.9058
 21
46.503
  0
LINE
  8
0
 10
-14.9058
 20
46.503
 11
-15.0942
 21
46.503
  0
LINE
  8
0
 10
-0.0941772
 20
46.503
 11
-0.281067
 21
46.5266
  0
LINE
  8
0
 10
-0.281067
 20
46.5266
 11
-0.463516
 21
46.5734
  0
LINE
  8
0
 10
-0.463516
 20
46.5734
 11
-0.638657
 21
46.6428
  0
LINE
  8
0
 10
-0.638657
 20
46.6428
 11
-0.803726
 21
46.7335
  0
LINE
  8
0
 10
-0.803726
 20
46.7335
 11
-0.956131
 21
46.8442
  0
LINE
  8
0
 10
-0.956131
 20
46.8442
 11
-1.09344
 21
46.9732
  0
LINE
  8
0
 10
-1.09344
 20
46.9732
 11
-1.21352
 21
47.1183
  0
LINE
  8
0
 10
-1.21352
 20
47.1183
 11
-1.31445
 21
47.2774
  0
LINE
  8
0
 10
-1.31445
 20
47.2774
 11
-1.39465
 21
47.4478
  0
LINE
  8
0
 10
-1.39465
 20
47.4478
 11
-1.45287
 21
47.627
  0
LINE
  8
0
 10
-1.45287
 20
47.627
 11
-1.48816
 21
47.812
  0
LINE
  8
0
 10
-1.48816
 20
47.812
 11
-1.5
 21
48
  0
LINE
  8
0
 10
-1.5
 20
48
 11
-1.48816
 21
48.188
  0
LINE
  8
0
 10
-1.48816
 20
48.188
 11
-1.45287
 21
48.373
  0
LINE
  8
0
 10
-1.45287
 20
48.373
 11
-1.39465
 21
48.5522
  0
LINE
  8
0
 10
-1.39465
 20
48.5522
 11
-1.31445
 21
48.7226
  0
LINE
  8
0
 10
-1.31445
 20
48.7226
 11
-1.21352
 21
48.8817
  0
LINE
  8
0
 10
-1.21352
 20
48.8817
 11
-1.09344
 21
49.0268
  0
LINE
  8
0
 10
-1.09344
 20
49.0268
 11
-0.956131
 21
49.1558
  0
LINE
  8
0
 10
-0.956131
 20
49.1558
 11
-0.803726
 21
49.2665
  0
LINE
  8
0
 10
-0.803726
 20
49.2665
 11
-0.638657
 21
49.3572
  0
LINE
  8
0
 10
-0.638657
 20
49.3572
 11
-0.463516
 21
49.4266
  0
LINE
  8
0
 10
-0.463516
 20
49.4266
 11
-0.281067
 21
49.4734
  0
LINE
  8
0
 10
-0.281067
 20
49.4734
 11
-0.0941772
 21
49.497
  0
LINE
  8
0
 10
-0.0941772
 20
49.497
 11
0.0941772
 21
49.497
  0
LINE
  8
0
 10
0.0941772
 20
49.497
 11
0.281067
 21
49.4734
  0
LINE
  8
0
 10
0.281067
 20
49.4734
 11
0.463516
 21
49.4266
  0
LINE
  8
0
 10
0.463516
 20
49.4266
 11
0.638657
 21
49.3572
  0
LINE
  8
0
 10
0.638657
 20
49.3572
 11
0.803726
 21
49.2665
  0
LINE
  8
0
 10
0.803726
 20
49.2665
 11
0.956131
 21
49.1558
  0
LINE
  8
0
 10
0.956131
 20
49.1558
 11
1.09344
 21
49.0268
  0
LINE
  8
0
 10
1.09344
 20
49.0268
 11
1.21352
 21
48.8817
  0
LINE
  8
0
 10
1.21352
 20
48.8817
 11
1.31445
 21
48.7226
  0
LINE
  8
0
 10
1.31445
 20
48.7226
 11
1.39465
 21
48.5522
  0
LINE
  8
0
 10
1.39465
 20
48.5522
 11
1.45287
 21
48.373
  0
LINE
  8
0
 10
1.45287
 20
48.373
 11
1.48816
 21
48.188
  0
LINE
  8
0
 10
1.48816
 20
48.188
 11
1.5
 21
48
  0
LINE
  8
0
 10
1.5
 20
48
 11
1.48816
 21
47.812
  0
LINE
  8
0
 10
1.48816
 20
47.812
 11
1.45287
 21
47.627
  0
LINE
  8
0
 10
1.45287
 20
47.627
 11
1.39465
 21
47.4478
  0
LINE
  8
0
 10
1.39465
 20
47.4478
 11
1.31445
 21
47.2774
  0
LINE
  8
0
 10
1.31445
 20
47.2774
 11
1.21352
 21
47.1183
  0
LINE
  8
0
 10
1.21352
 20
47.1183
 11
1.09344
 21
46.9732
  0
LINE
  8
0
 10
1.09344
 20
46.9732
 11
0.956131
 21
46.8442
  0
LINE
  8
0
 10
0.956131
 20
46.8442
 11
0.803726
 21
46.7335
  0
LINE
  8
0
 10
0.803726
 20
46.7335
 11
0.638657
 21
46.6428
  0
LINE
  8
0
 10
0.638657
 20
46.6428
 11
0.463516
 21
46.5734
  0
LINE
  8
0
 10
0.463516
 20
46.5734
 11
0.281067
 21
46.5266
  0
LINE
  8
0
 10
0.281067
 20
46.5266
 11
0.0941772
 21
46.503
  0
LINE
  8
0
 10
0.0941772
 20
46.503
 11
-0.0941772
 21
46.503
  0
LINE
  8
0
 10
22.4058
 20
46.503
 11
22.2189
 21
46.5266
  0
LINE
  8
0
 10
22.2189
 20
46.5266
 11
22.0365
 21
46.5734
  0
LINE
  8
0
 10
22.0365
 20
46.5734
 11
21.8613
 21
46.6428
  0
LINE
  8
0
 10
21.8613
 20
46.6428
 11
21.6963
 21
46.7335
  0
LINE
  8
0
 10
21.6963
 20
46.7335
 11
21.5439
 21
46.8442
  0
LINE
  8
0
 10
21.5439
 20
46.8442
 11
21.4065
 21
46.9732
  0
LINE
  8
0
 10
21.4065
 20
46.9732
 11
21.2865
 21
47.1183
  0
LINE
  8
0
 10
21.2865
 20
47.1183
 11
21.1855
 21
47.2774
  0
LINE
  8
0
 10
21.1855
 20
47.2774
 11
21.1053
 21
47.4478
  0
LINE
  8
0
 10
21.1053
 20
47.4478
 11
21.0471
 21
47.627
  0
LINE
  8
0
 10
21.0471
 20
47.627
 11
21.0118
 21
47.812
  0
LINE
  8
0
 10
21.0118
 20
47.812
 11
21
 21
48
  0
LINE
  8
0
 10
21
 20
48
 11
21.0118
 21
48.188
  0
LINE
  8
0
 10
21.0118
 20
48.188
 11
21.0471
 21
48.373
  0
LINE
  8
0
 10
21.0471
 20
48.373
 11
21.1053
 21
48.5522
  0
LINE
  8
0
 10
21.1053
 20
48.5522
 11
21.1855
 21
48.7226
  0
LINE
  8
0
 10
21.1855
 20
48.7226
 11
21.2865
 21
48.8817
  0
LINE
  8
0
 10
21.2865
 20
48.8817
 11
21.4065
 21
49.0268
  0
LINE
  8
0
 10
21.4065
 20
49.0268
 11
21.5439
 21
49.1558
  0
LINE
  8
0
 10
21.5439
 20
49.1558
 11
21.6963
 21
49.2665
  0
LINE
  8
0
 10
21.6963
 20
49.2665
 11
21.8613
 21
49.3572
  0
LINE
  8
0
 10
21.8613
 20
49.3572
 11
22.0365
 21
49.4266
  0
LINE
  8
0
 10
22.0365
 20
49.4266
 11
22.2189
 21
49.4734
  0
LINE
  8
0
 10
22.2189
 20
49.4734
 11
22.4058
 21
49.497
  0
LINE
  8
0
 10
22.4058
 20
49.497
 11
22.5942
 21
49.497
  0
LINE
  8
0
 10
22.5942
 20
49.497
 11
22.7811
 21
49.4734
  0
LINE
  8
0
 10
22.7811
 20
49.4734
 11
22.9635
 21
49.4266
  0
LINE
  8
0
 10
22.9635
 20
49.4266
 11
23.1387
 21
49.3572
  0
LINE
  8
0
 10
23.1387
 20
49.3572
 11
23.3037
 21
49.2665
  0
LINE
  8
0
 10
23.3037
 20
49.2665
 11
23.4561
 21
49.1558
  0
LINE
  8
0
 10
23.4561
 20
49.1558
 11
23.5934
 21
49.0268
  0
LINE
  8
0
 10
23.5934
 20
49.0268
 11
23.7135
 21
48.8817
  0
LINE
  8
0
 10
23.7135
 20
48.8817
 11
23.8145
 21
48.7226
  0
LINE
  8
0
 10
23.8145
 20
48.7226
 11
23.8947
 21
48.5522
  0
LINE
  8
0
 10
23.8947
 20
48.5522
 11
23.9529
 21
48.373
  0
LINE
  8
0
 10
23.9529
 20
48.373
 11
23.9882
 21
48.188
  0
LINE
  8
0
 10
23.9882
 20
48.188
 11
24
 21
48
  0
LINE
  8
0
 10
24
 20
48
 11
23.9882
 21
47.812
  0
LINE
  8
0
 10
23.9882
 20
47.812
 11
23.9529
 21
47.627
  0
LINE
  8
0
 10
23.9529
 20
47.627
 11
23.8947
 21
47.4478
  0
LINE
  8
0
 10
23.8947
 20
47.4478
 11
23.8145
 21
47.2774
  0
LINE
  8
0
 10
23.8145
 20
47.2774
 11
23.7135
 21
47.1183
  0
LINE
  8
0
 10
23.7135
 20
47.1183
 11
23.5934
 21
46.9732
  0
LINE
  8
0
 10
23.5934
 20
46.9732
 11
23.4561
 21
46.8442
  0
LINE
  8
0
 10
23.4561
 20
46.8442
 11
23.3037
 21
46.7335
  0
LINE
  8
0
 10
23.3037
 20
46.7335
 11
23.1387
 21
46.6428
  0
LINE
  8
0
 10
23.1387
 20
46.6428
 11
22.9635
 21
46.5734
  0
LINE
  8
0
 10
22.9635
 20
46.5734
 11
22.7811
 21
46.5266
  0
LINE
  8
0
 10
22.7811
 20
46.5266
 11
22.5942
 21
46.503
  0
LINE
  8
0
 10
22.5942
 20
46.503
 11
22.4058
 21
46.503
  0
LINE
  8
0
 10
-7.59418
 20
46.503
 11
-7.78107
 21
46.5266
  0
LINE
  8
0
 10
-7.78107
 20
46.5266
 11
-7.96352
 21
46.5734
  0
LINE
  8
0
 10
-7.96352
 20
46.5734
 11
-8.13866
 21
46.6428
  0
LINE
  8
0
 10
-8.13866
 20
46.6428
 11
-8.30373
 21
46.7335
  0
LINE
  8
0
 10
-8.30373
 20
46.7335
 11
-8.45613
 21
46.8442
  0
LINE
  8
0
 10
-8.45613
 20
46.8442
 11
-8.59344
 21
46.9732
  0
LINE
  8
0
 10
-8.59344
 20
46.9732
 11
-8.71352
 21
47.1183
  0
LINE
  8
0
 10
-8.71352
 20
47.1183
 11
-8.81445
 21
47.2774
  0
LINE
  8
0
 10
-8.81445
 20
47.2774
 11
-8.89465
 21
47.4478
  0
LINE
  8
0
 10
-8.89465
 20
47.4478
 11
-8.95287
 21
47.627
  0
LINE
  8
0
 10
-8.95287
 20
47.627
 11
-8.98816
 21
47.812
  0
LINE
  8
0
 10
-8.98816
 20
47.812
 11
-9
 21
48
  0
LINE
  8
0
 10
-9
 20
48
 11
-8.98816
 21
48.188
  0
LINE
  8
0
 10
-8.98816
 20
48.188
 11
-8.95287
 21
48.373
  0
LINE
  8
0
 10
-8.95287
 20
48.373
 11
-8.89465
 21
48.5522
  0
LINE
  8
0
 10
-8.89465
 20
48.5522
 11
-8.81445
 21
48.7226
  0
LINE
  8
0
 10
-8.81445
 20
48.7226
 11
-8.71352
 21
48.8817
  0
LINE
  8
0
 10
-8.71352
 20
48.8817
 11
-8.59344
 21
49.0268
  0
LINE
  8
0
 10
-8.59344
 20
49.0268
 11
-8.45613
 21
49.1558
  0
LINE
  8
0
 10
-8.45613
 20
49.1558
 11
-8.30373
 21
49.2665
  0
LINE
  8
0
 10
-8.30373
 20
49.2665
 11
-8.13866
 21
49.3572
  0
LINE
  8
0
 10
-8.13866
 20
49.3572
 11
-7.96352
 21
49.4266
  0
LINE
  8
0
 10
-7.96352
 20
49.4266
 11
-7.78107
 21
49.4734
  0
LINE
  8
0
 10
-7.78107
 20
49.4734
 11
-7.59418
 21
49.497
  0
LINE
  8
0
 10
-7.59418
 20
49.497
 11
-7.40581
 21
49.497
  0
LINE
  8
0
 10
-7.40581
 20
49.497
 11
-7.21892
 21
49.4734
  0
LINE
  8
0
 10
-7.21892
 20
49.4734
 11
-7.03647
 21
49.4266
  0
LINE
  8
0
 10
-7.03647
 20
49.4266
 11
-6.86133
 21
49.3572
  0
LINE
  8
0
 10
-6.86133
 20
49.3572
 11
-6.69626
 21
49.2665
  0
LINE
  8
0
 10
-6.69626
 20
49.2665
 11
-6.54385
 21
49.1558
  0
LINE
  8
0
 10
-6.54385
 20
49.1558
 11
-6.40654
 21
49.0268
  0
LINE
  8
0
 10
-6.40654
 20
49.0268
 11
-6.28647
 21
48.8817
  0
LINE
  8
0
 10
-6.28647
 20
48.8817
 11
-6.18553
 21
48.7226
  0
LINE
  8
0
 10
-6.18553
 20
48.7226
 11
-6.10533
 21
48.5522
  0
LINE
  8
0
 10
-6.10533
 20
48.5522
 11
-6.04712
 21
48.373
  0
LINE
  8
0
 10
-6.04712
 20
48.373
 11
-6.01183
 21
48.188
  0
LINE
  8
0
 10
-6.01183
 20
48.188
 11
-6
 21
48
  0
LINE
  8
0
 10
-6
 20
48
 11
-6.01183
 21
47.812
  0
LINE
  8
0
 10
-6.01183
 20
47.812
 11
-6.04712
 21
47.627
  0
LINE
  8
0
 10
-6.04712
 20
47.627
 11
-6.10533
 21
47.4478
  0
LINE
  8
0
 10
-6.10533
 20
47.4478
 11
-6.18553
 21
47.2774
  0
LINE
  8
0
 10
-6.18553
 20
47.2774
 11
-6.28647
 21
47.1183
  0
LINE
  8
0
 10
-6.28647
 20
47.1183
 11
-6.40654
 21
46.9732
  0
LINE
  8
0
 10
-6.40654
 20
46.9732
 11
-6.54385
 21
46.8442
  0
LINE
  8
0
 10
-6.54385
 20
46.8442
 11
-6.69626
 21
46.7335
  0
LINE
  8
0
 10
-6.69626
 20
46.7335
 11
-6.86133
 21
46.6428
  0
LINE
  8
0
 10
-6.86133
 20
46.6428
 11
-7.03647
 21
46.5734
  0
LINE
  8
0
 10
-7.03647
 20
46.5734
 11
-7.21892
 21
46.5266
  0
LINE
  8
0
 10
-7.21892
 20
46.5266
 11
-7.40581
 21
46.503
  0
LINE
  8
0
 10
-7.40581
 20
46.503
 11
-7.59418
 21
46.503
  0
LINE
  8
0
 10
14.9058
 20
46.503
 11
14.7189
 21
46.5266
  0
LINE
  8
0
 10
14.7189
 20
46.5266
 11
14.5365
 21
46.5734
  0
LINE
  8
0
 10
14.5365
 20
46.5734
 11
14.3613
 21
46.6428
  0
LINE
  8
0
 10
14.3613
 20
46.6428
 11
14.1963
 21
46.7335
  0
LINE
  8
0
 10
14.1963
 20
46.7335
 11
14.0439
 21
46.8442
  0
LINE
  8
0
 10
14.0439
 20
46.8442
 11
13.9065
 21
46.9732
  0
LINE
  8
0
 10
13.9065
 20
46.9732
 11
13.7865
 21
47.1183
  0
LINE
  8
0
 10
13.7865
 20
47.1183
 11
13.6855
 21
47.2774
  0
LINE
  8
0
 10
13.6855
 20
47.2774
 11
13.6053
 21
47.4478
  0
LINE
  8
0
 10
13.6053
 20
47.4478
 11
13.5471
 21
47.627
  0
LINE
  8
0
 10
13.5471
 20
47.627
 11
13.5118
 21
47.812
  0
LINE
  8
0
 10
13.5118
 20
47.812
 11
13.5
 21
48
  0
LINE
  8
0
 10
13.5
 20
48
 11
13.5118
 21
48.188
  0
LINE
  8
0
 10
13.5118
 20
48.188
 11
13.5471
 21
48.373
  0
LINE
  8
0
 10
13.5471
 20
48.373
 11
13.6053
 21
48.5522
  0
LINE
  8
0
 10
13.6053
 20
48.5522
 11
13.6855
 21
48.7226
  0
LINE
  8
0
 10
13.6855
 20
48.7226
 11
13.7865
 21
48.8817
  0
LINE
  8
0
 10
13.7865
 20
48.8817
 11
13.9065
 21
49.0268
  0
LINE
  8
0
 10
13.9065
 20
49.0268
 11
14.0439
 21
49.1558
  0
LINE
  8
0
 10
14.0439
 20
49.1558
 11
14.1963
 21
49.2665
  0
LINE
  8
0
 10
14.1963
 20
49.2665
 11
14.3613
 21
49.3572
  0
LINE
  8
0
 10
14.3613
 20
49.3572
 11
14.5365
 21
49.4266
  0
LINE
  8
0
 10
14.5365
 20
49.4266
 11
14.7189
 21
49.4734
  0
LINE
  8
0
 10
14.7189
 20
49.4734
 11
14.9058
 21
49.497
  0
LINE
  8
0
 10
14.9058
 20
49.497
 11
15.0942
 21
49.497
  0
LINE
  8
0
 10
15.0942
 20
49.497
 11
15.2811
 21
49.4734
  0
LINE
  8
0
 10
15.2811
 20
49.4734
 11
15.4635
 21
49.4266
  0
LINE
  8
0
 10
15.4635
 20
49.4266
 11
15.6387
 21
49.3572
  0
LINE
  8
0
 10
15.6387
 20
49.3572
 11
15.8037
 21
49.2665
  0
LINE
  8
0
 10
15.8037
 20
49.2665
 11
15.9561
 21
49.1558
  0
LINE
  8
0
 10
15.9561
 20
49.1558
 11
16.0934
 21
49.0268
  0
LINE
  8
0
 10
16.0934
 20
49.0268
 11
16.2135
 21
48.8817
  0
LINE
  8
0
 10
16.2135
 20
48.8817
 11
16.3145
 21
48.7226
  0
LINE
  8
0
 10
16.3145
 20
48.7226
 11
16.3947
 21
48.5522
  0
LINE
  8
0
 10
16.3947
 20
48.5522
 11
16.4529
 21
48.373
  0
LINE
  8
0
 10
16.4529
 20
48.373
 11
16.4882
 21
48.188
  0
LINE
  8
0
 10
16.4882
 20
48.188
 11
16.5
 21
48
  0
LINE
  8
0
 10
16.5
 20
48
 11
16.4882
 21
47.812
  0
LINE
  8
0
 10
16.4882
 20
47.812
 11
16.4529
 21
47.627
  0
LINE
  8
0
 10
16.4529
 20
47.627
 11
16.3947
 21
47.4478
  0
LINE
  8
0
 10
16.3947
 20
47.4478
 11
16.3145
 21
47.2774
  0
LINE
  8
0
 10
16.3145
 20
47.2774
 11
16.2135
 21
47.1183
  0
LINE
  8
0
 10
16.2135
 20
47.1183
 11
16.0934
 21
46.9732
  0
LINE
  8
0
 10
16.0934
 20
46.9732
 11
15.9561
 21
46.8442
  0
LINE
  8
0
 10
15.9561
 20
46.8442
 11
15.8037
 21
46.7335
  0
LINE
  8
0
 10
15.8037
 20
46.7335
 11
15.6387
 21
46.6428
  0
LINE
  8
0
 10
15.6387
 20
46.6428
 11
15.4635
 21
46.5734
  0
LINE
  8
0
 10
15.4635
 20
46.5734
 11
15.2811
 21
46.5266
  0
LINE
  8
0
 10
15.2811
 20
46.5266
 11
15.0942
 21
46.503
  0
LINE
  8
0
 10
15.0942
 20
46.503
 11
14.9058
 21
46.503
  0
ENDSEC
  0
SECTION
  2
OBJECTS
  0
DICTIONARY
  0
ENDSEC
  0
EOF
