  0
SECTION
  2
BLOCKS
  0
ENDSEC
  0
SECTION
  2
ENTITIES
  0
LINE
  8
0
 10
32.9369
 20
131.089
 11
33.5451
 21
131.245
  0
LINE
  8
0
 10
33.5451
 20
131.245
 11
34.1289
 21
131.476
  0
LINE
  8
0
 10
34.1289
 20
131.476
 11
34.6791
 21
131.778
  0
LINE
  8
0
 10
34.6791
 20
131.778
 11
35.1871
 21
132.147
  0
LINE
  8
0
 10
35.1871
 20
132.147
 11
35.6448
 21
132.577
  0
LINE
  8
0
 10
35.6448
 20
132.577
 11
36.0451
 21
133.061
  0
LINE
  8
0
 10
36.0451
 20
133.061
 11
36.3815
 21
133.591
  0
LINE
  8
0
 10
36.3815
 20
133.591
 11
36.6489
 21
134.159
  0
LINE
  8
0
 10
36.6489
 20
134.159
 11
36.8429
 21
134.757
  0
LINE
  8
0
 10
36.8429
 20
134.757
 11
36.9606
 21
135.373
  0
LINE
  8
0
 10
36.9606
 20
135.373
 11
37
 21
136
  0
LINE
  8
0
 10
37
 20
136
 11
37
 21
200
  0
LINE
  8
0
 10
37
 20
200
 11
36.9606
 21
200.627
  0
LINE
  8
0
 10
36.9606
 20
200.627
 11
36.8429
 21
201.243
  0
LINE
  8
0
 10
36.8429
 20
201.243
 11
36.6489
 21
201.841
  0
LINE
  8
0
 10
36.6489
 20
201.841
 11
36.3815
 21
202.409
  0
LINE
  8
0
 10
36.3815
 20
202.409
 11
36.0451
 21
202.939
  0
LINE
  8
0
 10
36.0451
 20
202.939
 11
35.6448
 21
203.423
  0
LINE
  8
0
 10
35.6448
 20
203.423
 11
35.1871
 21
203.853
  0
LINE
  8
0
 10
35.1871
 20
203.853
 11
34.6791
 21
204.222
  0
LINE
  8
0
 10
34.6791
 20
204.222
 11
34.1289
 21
204.524
  0
LINE
  8
0
 10
34.1289
 20
204.524
 11
33.5451
 21
204.755
  0
LINE
  8
0
 10
33.5451
 20
204.755
 11
32.9369
 21
204.911
  0
LINE
  8
0
 10
32.9369
 20
204.911
 11
32.3139
 21
204.99
  0
LINE
  8
0
 10
32.3139
 20
204.99
 11
-32.3139
 21
204.99
  0
LINE
  8
0
 10
-32.3139
 20
204.99
 11
-32.9369
 21
204.911
  0
LINE
  8
0
 10
-32.9369
 20
204.911
 11
-33.5451
 21
204.755
  0
LINE
  8
0
 10
-33.5451
 20
204.755
 11
-34.1289
 21
204.524
  0
LINE
  8
0
 10
-34.1289
 20
204.524
 11
-34.6791
 21
204.222
  0
LINE
  8
0
 10
-34.6791
 20
204.222
 11
-35.1871
 21
203.853
  0
LINE
  8
0
 10
-35.1871
 20
203.853
 11
-35.6448
 21
203.423
  0
LINE
  8
0
 10
-35.6448
 20
203.423
 11
-36.0451
 21
202.939
  0
LINE
  8
0
 10
-36.0451
 20
202.939
 11
-36.3815
 21
202.409
  0
LINE
  8
0
 10
-36.3815
 20
202.409
 11
-36.6489
 21
201.841
  0
LINE
  8
0
 10
-36.6489
 20
201.841
 11
-36.8429
 21
201.243
  0
LINE
  8
0
 10
-36.8429
 20
201.243
 11
-36.9606
 21
200.627
  0
LINE
  8
0
 10
-36.9606
 20
200.627
 11
-37
 21
200
  0
LINE
  8
0
 10
-37
 20
200
 11
-37
 21
136
  0
LINE
  8
0
 10
-37
 20
136
 11
-36.9606
 21
135.373
  0
LINE
  8
0
 10
-36.9606
 20
135.373
 11
-36.8429
 21
134.757
  0
LINE
  8
0
 10
-36.8429
 20
134.757
 11
-36.6489
 21
134.159
  0
LINE
  8
0
 10
-36.6489
 20
134.159
 11
-36.3815
 21
133.591
  0
LINE
  8
0
 10
-36.3815
 20
133.591
 11
-36.0451
 21
133.061
  0
LINE
  8
0
 10
-36.0451
 20
133.061
 11
-35.6448
 21
132.577
  0
LINE
  8
0
 10
-35.6448
 20
132.577
 11
-35.1871
 21
132.147
  0
LINE
  8
0
 10
-35.1871
 20
132.147
 11
-34.6791
 21
131.778
  0
LINE
  8
0
 10
-34.6791
 20
131.778
 11
-34.1289
 21
131.476
  0
LINE
  8
0
 10
-34.1289
 20
131.476
 11
-33.5451
 21
131.245
  0
LINE
  8
0
 10
-33.5451
 20
131.245
 11
-32.9369
 21
131.089
  0
LINE
  8
0
 10
-32.9369
 20
131.089
 11
-32.3139
 21
131.01
  0
LINE
  8
0
 10
-32.3139
 20
131.01
 11
32.3139
 21
131.01
  0
LINE
  8
0
 10
32.3139
 20
131.01
 11
32.9369
 21
131.089
  0
LINE
  8
0
 10
29.8116
 20
195.006
 11
29.4379
 21
195.053
  0
LINE
  8
0
 10
29.4379
 20
195.053
 11
29.0729
 21
195.147
  0
LINE
  8
0
 10
29.0729
 20
195.147
 11
28.7227
 21
195.286
  0
LINE
  8
0
 10
28.7227
 20
195.286
 11
28.3925
 21
195.467
  0
LINE
  8
0
 10
28.3925
 20
195.467
 11
28.0877
 21
195.688
  0
LINE
  8
0
 10
28.0877
 20
195.688
 11
27.8131
 21
195.946
  0
LINE
  8
0
 10
27.8131
 20
195.946
 11
27.5729
 21
196.237
  0
LINE
  8
0
 10
27.5729
 20
196.237
 11
27.3711
 21
196.555
  0
LINE
  8
0
 10
27.3711
 20
196.555
 11
27.2107
 21
196.896
  0
LINE
  8
0
 10
27.2107
 20
196.896
 11
27.0942
 21
197.254
  0
LINE
  8
0
 10
27.0942
 20
197.254
 11
27.0237
 21
197.624
  0
LINE
  8
0
 10
27.0237
 20
197.624
 11
27
 21
198
  0
LINE
  8
0
 10
27
 20
198
 11
27.0237
 21
198.376
  0
LINE
  8
0
 10
27.0237
 20
198.376
 11
27.0942
 21
198.746
  0
LINE
  8
0
 10
27.0942
 20
198.746
 11
27.2107
 21
199.104
  0
LINE
  8
0
 10
27.2107
 20
199.104
 11
27.3711
 21
199.445
  0
LINE
  8
0
 10
27.3711
 20
199.445
 11
27.5729
 21
199.763
  0
LINE
  8
0
 10
27.5729
 20
199.763
 11
27.8131
 21
200.054
  0
LINE
  8
0
 10
27.8131
 20
200.054
 11
28.0877
 21
200.312
  0
LINE
  8
0
 10
28.0877
 20
200.312
 11
28.3925
 21
200.533
  0
LINE
  8
0
 10
28.3925
 20
200.533
 11
28.7227
 21
200.714
  0
LINE
  8
0
 10
28.7227
 20
200.714
 11
29.0729
 21
200.853
  0
LINE
  8
0
 10
29.0729
 20
200.853
 11
29.4379
 21
200.947
  0
LINE
  8
0
 10
29.4379
 20
200.947
 11
29.8116
 21
200.994
  0
LINE
  8
0
 10
29.8116
 20
200.994
 11
30.1884
 21
200.994
  0
LINE
  8
0
 10
30.1884
 20
200.994
 11
30.5621
 21
200.947
  0
LINE
  8
0
 10
30.5621
 20
200.947
 11
30.927
 21
200.853
  0
LINE
  8
0
 10
30.927
 20
200.853
 11
31.2773
 21
200.714
  0
LINE
  8
0
 10
31.2773
 20
200.714
 11
31.6075
 21
200.533
  0
LINE
  8
0
 10
31.6075
 20
200.533
 11
31.9123
 21
200.312
  0
LINE
  8
0
 10
31.9123
 20
200.312
 11
32.1869
 21
200.054
  0
LINE
  8
0
 10
32.1869
 20
200.054
 11
32.427
 21
199.763
  0
LINE
  8
0
 10
32.427
 20
199.763
 11
32.6289
 21
199.445
  0
LINE
  8
0
 10
32.6289
 20
199.445
 11
32.7893
 21
199.104
  0
LINE
  8
0
 10
32.7893
 20
199.104
 11
32.9057
 21
198.746
  0
LINE
  8
0
 10
32.9057
 20
198.746
 11
32.9763
 21
198.376
  0
LINE
  8
0
 10
32.9763
 20
198.376
 11
33
 21
198
  0
LINE
  8
0
 10
33
 20
198
 11
32.9763
 21
197.624
  0
LINE
  8
0
 10
32.9763
 20
197.624
 11
32.9057
 21
197.254
  0
LINE
  8
0
 10
32.9057
 20
197.254
 11
32.7893
 21
196.896
  0
LINE
  8
0
 10
32.7893
 20
196.896
 11
32.6289
 21
196.555
  0
LINE
  8
0
 10
32.6289
 20
196.555
 11
32.427
 21
196.237
  0
LINE
  8
0
 10
32.427
 20
196.237
 11
32.1869
 21
195.946
  0
LINE
  8
0
 10
32.1869
 20
195.946
 11
31.9123
 21
195.688
  0
LINE
  8
0
 10
31.9123
 20
195.688
 11
31.6075
 21
195.467
  0
LINE
  8
0
 10
31.6075
 20
195.467
 11
31.2773
 21
195.286
  0
LINE
  8
0
 10
31.2773
 20
195.286
 11
30.927
 21
195.147
  0
LINE
  8
0
 10
30.927
 20
195.147
 11
30.5621
 21
195.053
  0
LINE
  8
0
 10
30.5621
 20
195.053
 11
30.1884
 21
195.006
  0
LINE
  8
0
 10
30.1884
 20
195.006
 11
29.8116
 21
195.006
  0
LINE
  8
0
 10
-30.1884
 20
195.006
 11
-30.5621
 21
195.053
  0
LINE
  8
0
 10
-30.5621
 20
195.053
 11
-30.927
 21
195.147
  0
LINE
  8
0
 10
-30.927
 20
195.147
 11
-31.2773
 21
195.286
  0
LINE
  8
0
 10
-31.2773
 20
195.286
 11
-31.6075
 21
195.467
  0
LINE
  8
0
 10
-31.6075
 20
195.467
 11
-31.9123
 21
195.688
  0
LINE
  8
0
 10
-31.9123
 20
195.688
 11
-32.1869
 21
195.946
  0
LINE
  8
0
 10
-32.1869
 20
195.946
 11
-32.427
 21
196.237
  0
LINE
  8
0
 10
-32.427
 20
196.237
 11
-32.6289
 21
196.555
  0
LINE
  8
0
 10
-32.6289
 20
196.555
 11
-32.7893
 21
196.896
  0
LINE
  8
0
 10
-32.7893
 20
196.896
 11
-32.9057
 21
197.254
  0
LINE
  8
0
 10
-32.9057
 20
197.254
 11
-32.9763
 21
197.624
  0
LINE
  8
0
 10
-32.9763
 20
197.624
 11
-33
 21
198
  0
LINE
  8
0
 10
-33
 20
198
 11
-32.9763
 21
198.376
  0
LINE
  8
0
 10
-32.9763
 20
198.376
 11
-32.9057
 21
198.746
  0
LINE
  8
0
 10
-32.9057
 20
198.746
 11
-32.7893
 21
199.104
  0
LINE
  8
0
 10
-32.7893
 20
199.104
 11
-32.6289
 21
199.445
  0
LINE
  8
0
 10
-32.6289
 20
199.445
 11
-32.427
 21
199.763
  0
LINE
  8
0
 10
-32.427
 20
199.763
 11
-32.1869
 21
200.054
  0
LINE
  8
0
 10
-32.1869
 20
200.054
 11
-31.9123
 21
200.312
  0
LINE
  8
0
 10
-31.9123
 20
200.312
 11
-31.6075
 21
200.533
  0
LINE
  8
0
 10
-31.6075
 20
200.533
 11
-31.2773
 21
200.714
  0
LINE
  8
0
 10
-31.2773
 20
200.714
 11
-30.927
 21
200.853
  0
LINE
  8
0
 10
-30.927
 20
200.853
 11
-30.5621
 21
200.947
  0
LINE
  8
0
 10
-30.5621
 20
200.947
 11
-30.1884
 21
200.994
  0
LINE
  8
0
 10
-30.1884
 20
200.994
 11
-29.8116
 21
200.994
  0
LINE
  8
0
 10
-29.8116
 20
200.994
 11
-29.4379
 21
200.947
  0
LINE
  8
0
 10
-29.4379
 20
200.947
 11
-29.0729
 21
200.853
  0
LINE
  8
0
 10
-29.0729
 20
200.853
 11
-28.7227
 21
200.714
  0
LINE
  8
0
 10
-28.7227
 20
200.714
 11
-28.3925
 21
200.533
  0
LINE
  8
0
 10
-28.3925
 20
200.533
 11
-28.0877
 21
200.312
  0
LINE
  8
0
 10
-28.0877
 20
200.312
 11
-27.8131
 21
200.054
  0
LINE
  8
0
 10
-27.8131
 20
200.054
 11
-27.5729
 21
199.763
  0
LINE
  8
0
 10
-27.5729
 20
199.763
 11
-27.3711
 21
199.445
  0
LINE
  8
0
 10
-27.3711
 20
199.445
 11
-27.2107
 21
199.104
  0
LINE
  8
0
 10
-27.2107
 20
199.104
 11
-27.0942
 21
198.746
  0
LINE
  8
0
 10
-27.0942
 20
198.746
 11
-27.0237
 21
198.376
  0
LINE
  8
0
 10
-27.0237
 20
198.376
 11
-27
 21
198
  0
LINE
  8
0
 10
-27
 20
198
 11
-27.0237
 21
197.624
  0
LINE
  8
0
 10
-27.0237
 20
197.624
 11
-27.0942
 21
197.254
  0
LINE
  8
0
 10
-27.0942
 20
197.254
 11
-27.2107
 21
196.896
  0
LINE
  8
0
 10
-27.2107
 20
196.896
 11
-27.3711
 21
196.555
  0
LINE
  8
0
 10
-27.3711
 20
196.555
 11
-27.5729
 21
196.237
  0
LINE
  8
0
 10
-27.5729
 20
196.237
 11
-27.8131
 21
195.946
  0
LINE
  8
0
 10
-27.8131
 20
195.946
 11
-28.0877
 21
195.688
  0
LINE
  8
0
 10
-28.0877
 20
195.688
 11
-28.3925
 21
195.467
  0
LINE
  8
0
 10
-28.3925
 20
195.467
 11
-28.7227
 21
195.286
  0
LINE
  8
0
 10
-28.7227
 20
195.286
 11
-29.0729
 21
195.147
  0
LINE
  8
0
 10
-29.0729
 20
195.147
 11
-29.4379
 21
195.053
  0
LINE
  8
0
 10
-29.4379
 20
195.053
 11
-29.8116
 21
195.006
  0
LINE
  8
0
 10
-29.8116
 20
195.006
 11
-30.1884
 21
195.006
  0
LINE
  8
0
 10
29.8116
 20
135.006
 11
29.4379
 21
135.053
  0
LINE
  8
0
 10
29.4379
 20
135.053
 11
29.0729
 21
135.147
  0
LINE
  8
0
 10
29.0729
 20
135.147
 11
28.7227
 21
135.286
  0
LINE
  8
0
 10
28.7227
 20
135.286
 11
28.3925
 21
135.467
  0
LINE
  8
0
 10
28.3925
 20
135.467
 11
28.0877
 21
135.688
  0
LINE
  8
0
 10
28.0877
 20
135.688
 11
27.8131
 21
135.946
  0
LINE
  8
0
 10
27.8131
 20
135.946
 11
27.5729
 21
136.237
  0
LINE
  8
0
 10
27.5729
 20
136.237
 11
27.3711
 21
136.555
  0
LINE
  8
0
 10
27.3711
 20
136.555
 11
27.2107
 21
136.896
  0
LINE
  8
0
 10
27.2107
 20
136.896
 11
27.0942
 21
137.254
  0
LINE
  8
0
 10
27.0942
 20
137.254
 11
27.0237
 21
137.624
  0
LINE
  8
0
 10
27.0237
 20
137.624
 11
27
 21
138
  0
LINE
  8
0
 10
27
 20
138
 11
27.0237
 21
138.376
  0
LINE
  8
0
 10
27.0237
 20
138.376
 11
27.0942
 21
138.746
  0
LINE
  8
0
 10
27.0942
 20
138.746
 11
27.2107
 21
139.104
  0
LINE
  8
0
 10
27.2107
 20
139.104
 11
27.3711
 21
139.445
  0
LINE
  8
0
 10
27.3711
 20
139.445
 11
27.5729
 21
139.763
  0
LINE
  8
0
 10
27.5729
 20
139.763
 11
27.8131
 21
140.054
  0
LINE
  8
0
 10
27.8131
 20
140.054
 11
28.0877
 21
140.312
  0
LINE
  8
0
 10
28.0877
 20
140.312
 11
28.3925
 21
140.533
  0
LINE
  8
0
 10
28.3925
 20
140.533
 11
28.7227
 21
140.714
  0
LINE
  8
0
 10
28.7227
 20
140.714
 11
29.0729
 21
140.853
  0
LINE
  8
0
 10
29.0729
 20
140.853
 11
29.4379
 21
140.947
  0
LINE
  8
0
 10
29.4379
 20
140.947
 11
29.8116
 21
140.994
  0
LINE
  8
0
 10
29.8116
 20
140.994
 11
30.1884
 21
140.994
  0
LINE
  8
0
 10
30.1884
 20
140.994
 11
30.5621
 21
140.947
  0
LINE
  8
0
 10
30.5621
 20
140.947
 11
30.927
 21
140.853
  0
LINE
  8
0
 10
30.927
 20
140.853
 11
31.2773
 21
140.714
  0
LINE
  8
0
 10
31.2773
 20
140.714
 11
31.6075
 21
140.533
  0
LINE
  8
0
 10
31.6075
 20
140.533
 11
31.9123
 21
140.312
  0
LINE
  8
0
 10
31.9123
 20
140.312
 11
32.1869
 21
140.054
  0
LINE
  8
0
 10
32.1869
 20
140.054
 11
32.427
 21
139.763
  0
LINE
  8
0
 10
32.427
 20
139.763
 11
32.6289
 21
139.445
  0
LINE
  8
0
 10
32.6289
 20
139.445
 11
32.7893
 21
139.104
  0
LINE
  8
0
 10
32.7893
 20
139.104
 11
32.9057
 21
138.746
  0
LINE
  8
0
 10
32.9057
 20
138.746
 11
32.9763
 21
138.376
  0
LINE
  8
0
 10
32.9763
 20
138.376
 11
33
 21
138
  0
LINE
  8
0
 10
33
 20
138
 11
32.9763
 21
137.624
  0
LINE
  8
0
 10
32.9763
 20
137.624
 11
32.9057
 21
137.254
  0
LINE
  8
0
 10
32.9057
 20
137.254
 11
32.7893
 21
136.896
  0
LINE
  8
0
 10
32.7893
 20
136.896
 11
32.6289
 21
136.555
  0
LINE
  8
0
 10
32.6289
 20
136.555
 11
32.427
 21
136.237
  0
LINE
  8
0
 10
32.427
 20
136.237
 11
32.1869
 21
135.946
  0
LINE
  8
0
 10
32.1869
 20
135.946
 11
31.9123
 21
135.688
  0
LINE
  8
0
 10
31.9123
 20
135.688
 11
31.6075
 21
135.467
  0
LINE
  8
0
 10
31.6075
 20
135.467
 11
31.2773
 21
135.286
  0
LINE
  8
0
 10
31.2773
 20
135.286
 11
30.927
 21
135.147
  0
LINE
  8
0
 10
30.927
 20
135.147
 11
30.5621
 21
135.053
  0
LINE
  8
0
 10
30.5621
 20
135.053
 11
30.1884
 21
135.006
  0
LINE
  8
0
 10
30.1884
 20
135.006
 11
29.8116
 21
135.006
  0
LINE
  8
0
 10
-30.1884
 20
135.006
 11
-30.5621
 21
135.053
  0
LINE
  8
0
 10
-30.5621
 20
135.053
 11
-30.927
 21
135.147
  0
LINE
  8
0
 10
-30.927
 20
135.147
 11
-31.2773
 21
135.286
  0
LINE
  8
0
 10
-31.2773
 20
135.286
 11
-31.6075
 21
135.467
  0
LINE
  8
0
 10
-31.6075
 20
135.467
 11
-31.9123
 21
135.688
  0
LINE
  8
0
 10
-31.9123
 20
135.688
 11
-32.1869
 21
135.946
  0
LINE
  8
0
 10
-32.1869
 20
135.946
 11
-32.427
 21
136.237
  0
LINE
  8
0
 10
-32.427
 20
136.237
 11
-32.6289
 21
136.555
  0
LINE
  8
0
 10
-32.6289
 20
136.555
 11
-32.7893
 21
136.896
  0
LINE
  8
0
 10
-32.7893
 20
136.896
 11
-32.9057
 21
137.254
  0
LINE
  8
0
 10
-32.9057
 20
137.254
 11
-32.9763
 21
137.624
  0
LINE
  8
0
 10
-32.9763
 20
137.624
 11
-33
 21
138
  0
LINE
  8
0
 10
-33
 20
138
 11
-32.9763
 21
138.376
  0
LINE
  8
0
 10
-32.9763
 20
138.376
 11
-32.9057
 21
138.746
  0
LINE
  8
0
 10
-32.9057
 20
138.746
 11
-32.7893
 21
139.104
  0
LINE
  8
0
 10
-32.7893
 20
139.104
 11
-32.6289
 21
139.445
  0
LINE
  8
0
 10
-32.6289
 20
139.445
 11
-32.427
 21
139.763
  0
LINE
  8
0
 10
-32.427
 20
139.763
 11
-32.1869
 21
140.054
  0
LINE
  8
0
 10
-32.1869
 20
140.054
 11
-31.9123
 21
140.312
  0
LINE
  8
0
 10
-31.9123
 20
140.312
 11
-31.6075
 21
140.533
  0
LINE
  8
0
 10
-31.6075
 20
140.533
 11
-31.2773
 21
140.714
  0
LINE
  8
0
 10
-31.2773
 20
140.714
 11
-30.927
 21
140.853
  0
LINE
  8
0
 10
-30.927
 20
140.853
 11
-30.5621
 21
140.947
  0
LINE
  8
0
 10
-30.5621
 20
140.947
 11
-30.1884
 21
140.994
  0
LINE
  8
0
 10
-30.1884
 20
140.994
 11
-29.8116
 21
140.994
  0
LINE
  8
0
 10
-29.8116
 20
140.994
 11
-29.4379
 21
140.947
  0
LINE
  8
0
 10
-29.4379
 20
140.947
 11
-29.0729
 21
140.853
  0
LINE
  8
0
 10
-29.0729
 20
140.853
 11
-28.7227
 21
140.714
  0
LINE
  8
0
 10
-28.7227
 20
140.714
 11
-28.3925
 21
140.533
  0
LINE
  8
0
 10
-28.3925
 20
140.533
 11
-28.0877
 21
140.312
  0
LINE
  8
0
 10
-28.0877
 20
140.312
 11
-27.8131
 21
140.054
  0
LINE
  8
0
 10
-27.8131
 20
140.054
 11
-27.5729
 21
139.763
  0
LINE
  8
0
 10
-27.5729
 20
139.763
 11
-27.3711
 21
139.445
  0
LINE
  8
0
 10
-27.3711
 20
139.445
 11
-27.2107
 21
139.104
  0
LINE
  8
0
 10
-27.2107
 20
139.104
 11
-27.0942
 21
138.746
  0
LINE
  8
0
 10
-27.0942
 20
138.746
 11
-27.0237
 21
138.376
  0
LINE
  8
0
 10
-27.0237
 20
138.376
 11
-27
 21
138
  0
LINE
  8
0
 10
-27
 20
138
 11
-27.0237
 21
137.624
  0
LINE
  8
0
 10
-27.0237
 20
137.624
 11
-27.0942
 21
137.254
  0
LINE
  8
0
 10
-27.0942
 20
137.254
 11
-27.2107
 21
136.896
  0
LINE
  8
0
 10
-27.2107
 20
136.896
 11
-27.3711
 21
136.555
  0
LINE
  8
0
 10
-27.3711
 20
136.555
 11
-27.5729
 21
136.237
  0
LINE
  8
0
 10
-27.5729
 20
136.237
 11
-27.8131
 21
135.946
  0
LINE
  8
0
 10
-27.8131
 20
135.946
 11
-28.0877
 21
135.688
  0
LINE
  8
0
 10
-28.0877
 20
135.688
 11
-28.3925
 21
135.467
  0
LINE
  8
0
 10
-28.3925
 20
135.467
 11
-28.7227
 21
135.286
  0
LINE
  8
0
 10
-28.7227
 20
135.286
 11
-29.0729
 21
135.147
  0
LINE
  8
0
 10
-29.0729
 20
135.147
 11
-29.4379
 21
135.053
  0
LINE
  8
0
 10
-29.4379
 20
135.053
 11
-29.8116
 21
135.006
  0
LINE
  8
0
 10
-29.8116
 20
135.006
 11
-30.1884
 21
135.006
  0
LINE
  8
0
 10
32.9369
 20
47.0886
 11
33.5451
 21
47.2447
  0
LINE
  8
0
 10
33.5451
 20
47.2447
 11
34.1289
 21
47.4759
  0
LINE
  8
0
 10
34.1289
 20
47.4759
 11
34.6791
 21
47.7784
  0
LINE
  8
0
 10
34.6791
 20
47.7784
 11
35.1871
 21
48.1474
  0
LINE
  8
0
 10
35.1871
 20
48.1474
 11
35.6448
 21
48.5773
  0
LINE
  8
0
 10
35.6448
 20
48.5773
 11
36.0451
 21
49.0611
  0
LINE
  8
0
 10
36.0451
 20
49.0611
 11
36.3815
 21
49.5912
  0
LINE
  8
0
 10
36.3815
 20
49.5912
 11
36.6489
 21
50.1594
  0
LINE
  8
0
 10
36.6489
 20
50.1594
 11
36.8429
 21
50.7566
  0
LINE
  8
0
 10
36.8429
 20
50.7566
 11
36.9606
 21
51.3733
  0
LINE
  8
0
 10
36.9606
 20
51.3733
 11
37
 21
52
  0
LINE
  8
0
 10
37
 20
52
 11
37
 21
116
  0
LINE
  8
0
 10
37
 20
116
 11
36.9606
 21
116.627
  0
LINE
  8
0
 10
36.9606
 20
116.627
 11
36.8429
 21
117.243
  0
LINE
  8
0
 10
36.8429
 20
117.243
 11
36.6489
 21
117.841
  0
LINE
  8
0
 10
36.6489
 20
117.841
 11
36.3815
 21
118.409
  0
LINE
  8
0
 10
36.3815
 20
118.409
 11
36.0451
 21
118.939
  0
LINE
  8
0
 10
36.0451
 20
118.939
 11
35.6448
 21
119.423
  0
LINE
  8
0
 10
35.6448
 20
119.423
 11
35.1871
 21
119.853
  0
LINE
  8
0
 10
35.1871
 20
119.853
 11
34.6791
 21
120.222
  0
LINE
  8
0
 10
34.6791
 20
120.222
 11
34.1289
 21
120.524
  0
LINE
  8
0
 10
34.1289
 20
120.524
 11
33.5451
 21
120.755
  0
LINE
  8
0
 10
33.5451
 20
120.755
 11
32.9369
 21
120.911
  0
LINE
  8
0
 10
32.9369
 20
120.911
 11
32.3139
 21
120.99
  0
LINE
  8
0
 10
32.3139
 20
120.99
 11
-32.3139
 21
120.99
  0
LINE
  8
0
 10
-32.3139
 20
120.99
 11
-32.9369
 21
120.911
  0
LINE
  8
0
 10
-32.9369
 20
120.911
 11
-33.5451
 21
120.755
  0
LINE
  8
0
 10
-33.5451
 20
120.755
 11
-34.1289
 21
120.524
  0
LINE
  8
0
 10
-34.1289
 20
120.524
 11
-34.6791
 21
120.222
  0
LINE
  8
0
 10
-34.6791
 20
120.222
 11
-35.1871
 21
119.853
  0
LINE
  8
0
 10
-35.1871
 20
119.853
 11
-35.6448
 21
119.423
  0
LINE
  8
0
 10
-35.6448
 20
119.423
 11
-36.0451
 21
118.939
  0
LINE
  8
0
 10
-36.0451
 20
118.939
 11
-36.3815
 21
118.409
  0
LINE
  8
0
 10
-36.3815
 20
118.409
 11
-36.6489
 21
117.841
  0
LINE
  8
0
 10
-36.6489
 20
117.841
 11
-36.8429
 21
117.243
  0
LINE
  8
0
 10
-36.8429
 20
117.243
 11
-36.9606
 21
116.627
  0
LINE
  8
0
 10
-36.9606
 20
116.627
 11
-37
 21
116
  0
LINE
  8
0
 10
-37
 20
116
 11
-37
 21
52
  0
LINE
  8
0
 10
-37
 20
52
 11
-36.9606
 21
51.3733
  0
LINE
  8
0
 10
-36.9606
 20
51.3733
 11
-36.8429
 21
50.7566
  0
LINE
  8
0
 10
-36.8429
 20
50.7566
 11
-36.6489
 21
50.1594
  0
LINE
  8
0
 10
-36.6489
 20
50.1594
 11
-36.3815
 21
49.5912
  0
LINE
  8
0
 10
-36.3815
 20
49.5912
 11
-36.0451
 21
49.0611
  0
LINE
  8
0
 10
-36.0451
 20
49.0611
 11
-35.6448
 21
48.5773
  0
LINE
  8
0
 10
-35.6448
 20
48.5773
 11
-35.1871
 21
48.1474
  0
LINE
  8
0
 10
-35.1871
 20
48.1474
 11
-34.6791
 21
47.7784
  0
LINE
  8
0
 10
-34.6791
 20
47.7784
 11
-34.1289
 21
47.4759
  0
LINE
  8
0
 10
-34.1289
 20
47.4759
 11
-33.5451
 21
47.2447
  0
LINE
  8
0
 10
-33.5451
 20
47.2447
 11
-32.9369
 21
47.0886
  0
LINE
  8
0
 10
-32.9369
 20
47.0886
 11
-32.3139
 21
47.0099
  0
LINE
  8
0
 10
-32.3139
 20
47.0099
 11
32.3139
 21
47.0099
  0
LINE
  8
0
 10
32.3139
 20
47.0099
 11
32.9369
 21
47.0886
  0
LINE
  8
0
 10
-30.1884
 20
111.006
 11
-30.5621
 21
111.053
  0
LINE
  8
0
 10
-30.5621
 20
111.053
 11
-30.927
 21
111.147
  0
LINE
  8
0
 10
-30.927
 20
111.147
 11
-31.2773
 21
111.286
  0
LINE
  8
0
 10
-31.2773
 20
111.286
 11
-31.6075
 21
111.467
  0
LINE
  8
0
 10
-31.6075
 20
111.467
 11
-31.9123
 21
111.688
  0
LINE
  8
0
 10
-31.9123
 20
111.688
 11
-32.1869
 21
111.946
  0
LINE
  8
0
 10
-32.1869
 20
111.946
 11
-32.427
 21
112.237
  0
LINE
  8
0
 10
-32.427
 20
112.237
 11
-32.6289
 21
112.555
  0
LINE
  8
0
 10
-32.6289
 20
112.555
 11
-32.7893
 21
112.896
  0
LINE
  8
0
 10
-32.7893
 20
112.896
 11
-32.9057
 21
113.254
  0
LINE
  8
0
 10
-32.9057
 20
113.254
 11
-32.9763
 21
113.624
  0
LINE
  8
0
 10
-32.9763
 20
113.624
 11
-33
 21
114
  0
LINE
  8
0
 10
-33
 20
114
 11
-32.9763
 21
114.376
  0
LINE
  8
0
 10
-32.9763
 20
114.376
 11
-32.9057
 21
114.746
  0
LINE
  8
0
 10
-32.9057
 20
114.746
 11
-32.7893
 21
115.104
  0
LINE
  8
0
 10
-32.7893
 20
115.104
 11
-32.6289
 21
115.445
  0
LINE
  8
0
 10
-32.6289
 20
115.445
 11
-32.427
 21
115.763
  0
LINE
  8
0
 10
-32.427
 20
115.763
 11
-32.1869
 21
116.054
  0
LINE
  8
0
 10
-32.1869
 20
116.054
 11
-31.9123
 21
116.312
  0
LINE
  8
0
 10
-31.9123
 20
116.312
 11
-31.6075
 21
116.533
  0
LINE
  8
0
 10
-31.6075
 20
116.533
 11
-31.2773
 21
116.714
  0
LINE
  8
0
 10
-31.2773
 20
116.714
 11
-30.927
 21
116.853
  0
LINE
  8
0
 10
-30.927
 20
116.853
 11
-30.5621
 21
116.947
  0
LINE
  8
0
 10
-30.5621
 20
116.947
 11
-30.1884
 21
116.994
  0
LINE
  8
0
 10
-30.1884
 20
116.994
 11
-29.8116
 21
116.994
  0
LINE
  8
0
 10
-29.8116
 20
116.994
 11
-29.4379
 21
116.947
  0
LINE
  8
0
 10
-29.4379
 20
116.947
 11
-29.0729
 21
116.853
  0
LINE
  8
0
 10
-29.0729
 20
116.853
 11
-28.7227
 21
116.714
  0
LINE
  8
0
 10
-28.7227
 20
116.714
 11
-28.3925
 21
116.533
  0
LINE
  8
0
 10
-28.3925
 20
116.533
 11
-28.0877
 21
116.312
  0
LINE
  8
0
 10
-28.0877
 20
116.312
 11
-27.8131
 21
116.054
  0
LINE
  8
0
 10
-27.8131
 20
116.054
 11
-27.5729
 21
115.763
  0
LINE
  8
0
 10
-27.5729
 20
115.763
 11
-27.3711
 21
115.445
  0
LINE
  8
0
 10
-27.3711
 20
115.445
 11
-27.2107
 21
115.104
  0
LINE
  8
0
 10
-27.2107
 20
115.104
 11
-27.0942
 21
114.746
  0
LINE
  8
0
 10
-27.0942
 20
114.746
 11
-27.0237
 21
114.376
  0
LINE
  8
0
 10
-27.0237
 20
114.376
 11
-27
 21
114
  0
LINE
  8
0
 10
-27
 20
114
 11
-27.0237
 21
113.624
  0
LINE
  8
0
 10
-27.0237
 20
113.624
 11
-27.0942
 21
113.254
  0
LINE
  8
0
 10
-27.0942
 20
113.254
 11
-27.2107
 21
112.896
  0
LINE
  8
0
 10
-27.2107
 20
112.896
 11
-27.3711
 21
112.555
  0
LINE
  8
0
 10
-27.3711
 20
112.555
 11
-27.5729
 21
112.237
  0
LINE
  8
0
 10
-27.5729
 20
112.237
 11
-27.8131
 21
111.946
  0
LINE
  8
0
 10
-27.8131
 20
111.946
 11
-28.0877
 21
111.688
  0
LINE
  8
0
 10
-28.0877
 20
111.688
 11
-28.3925
 21
111.467
  0
LINE
  8
0
 10
-28.3925
 20
111.467
 11
-28.7227
 21
111.286
  0
LINE
  8
0
 10
-28.7227
 20
111.286
 11
-29.0729
 21
111.147
  0
LINE
  8
0
 10
-29.0729
 20
111.147
 11
-29.4379
 21
111.053
  0
LINE
  8
0
 10
-29.4379
 20
111.053
 11
-29.8116
 21
111.006
  0
LINE
  8
0
 10
-29.8116
 20
111.006
 11
-30.1884
 21
111.006
  0
LINE
  8
0
 10
29.8116
 20
111.006
 11
29.4379
 21
111.053
  0
LINE
  8
0
 10
29.4379
 20
111.053
 11
29.0729
 21
111.147
  0
LINE
  8
0
 10
29.0729
 20
111.147
 11
28.7227
 21
111.286
  0
LINE
  8
0
 10
28.7227
 20
111.286
 11
28.3925
 21
111.467
  0
LINE
  8
0
 10
28.3925
 20
111.467
 11
28.0877
 21
111.688
  0
LINE
  8
0
 10
28.0877
 20
111.688
 11
27.8131
 21
111.946
  0
LINE
  8
0
 10
27.8131
 20
111.946
 11
27.5729
 21
112.237
  0
LINE
  8
0
 10
27.5729
 20
112.237
 11
27.3711
 21
112.555
  0
LINE
  8
0
 10
27.3711
 20
112.555
 11
27.2107
 21
112.896
  0
LINE
  8
0
 10
27.2107
 20
112.896
 11
27.0942
 21
113.254
  0
LINE
  8
0
 10
27.0942
 20
113.254
 11
27.0237
 21
113.624
  0
LINE
  8
0
 10
27.0237
 20
113.624
 11
27
 21
114
  0
LINE
  8
0
 10
27
 20
114
 11
27.0237
 21
114.376
  0
LINE
  8
0
 10
27.0237
 20
114.376
 11
27.0942
 21
114.746
  0
LINE
  8
0
 10
27.0942
 20
114.746
 11
27.2107
 21
115.104
  0
LINE
  8
0
 10
27.2107
 20
115.104
 11
27.3711
 21
115.445
  0
LINE
  8
0
 10
27.3711
 20
115.445
 11
27.5729
 21
115.763
  0
LINE
  8
0
 10
27.5729
 20
115.763
 11
27.8131
 21
116.054
  0
LINE
  8
0
 10
27.8131
 20
116.054
 11
28.0877
 21
116.312
  0
LINE
  8
0
 10
28.0877
 20
116.312
 11
28.3925
 21
116.533
  0
LINE
  8
0
 10
28.3925
 20
116.533
 11
28.7227
 21
116.714
  0
LINE
  8
0
 10
28.7227
 20
116.714
 11
29.0729
 21
116.853
  0
LINE
  8
0
 10
29.0729
 20
116.853
 11
29.4379
 21
116.947
  0
LINE
  8
0
 10
29.4379
 20
116.947
 11
29.8116
 21
116.994
  0
LINE
  8
0
 10
29.8116
 20
116.994
 11
30.1884
 21
116.994
  0
LINE
  8
0
 10
30.1884
 20
116.994
 11
30.5621
 21
116.947
  0
LINE
  8
0
 10
30.5621
 20
116.947
 11
30.927
 21
116.853
  0
LINE
  8
0
 10
30.927
 20
116.853
 11
31.2773
 21
116.714
  0
LINE
  8
0
 10
31.2773
 20
116.714
 11
31.6075
 21
116.533
  0
LINE
  8
0
 10
31.6075
 20
116.533
 11
31.9123
 21
116.312
  0
LINE
  8
0
 10
31.9123
 20
116.312
 11
32.1869
 21
116.054
  0
LINE
  8
0
 10
32.1869
 20
116.054
 11
32.427
 21
115.763
  0
LINE
  8
0
 10
32.427
 20
115.763
 11
32.6289
 21
115.445
  0
LINE
  8
0
 10
32.6289
 20
115.445
 11
32.7893
 21
115.104
  0
LINE
  8
0
 10
32.7893
 20
115.104
 11
32.9057
 21
114.746
  0
LINE
  8
0
 10
32.9057
 20
114.746
 11
32.9763
 21
114.376
  0
LINE
  8
0
 10
32.9763
 20
114.376
 11
33
 21
114
  0
LINE
  8
0
 10
33
 20
114
 11
32.9763
 21
113.624
  0
LINE
  8
0
 10
32.9763
 20
113.624
 11
32.9057
 21
113.254
  0
LINE
  8
0
 10
32.9057
 20
113.254
 11
32.7893
 21
112.896
  0
LINE
  8
0
 10
32.7893
 20
112.896
 11
32.6289
 21
112.555
  0
LINE
  8
0
 10
32.6289
 20
112.555
 11
32.427
 21
112.237
  0
LINE
  8
0
 10
32.427
 20
112.237
 11
32.1869
 21
111.946
  0
LINE
  8
0
 10
32.1869
 20
111.946
 11
31.9123
 21
111.688
  0
LINE
  8
0
 10
31.9123
 20
111.688
 11
31.6075
 21
111.467
  0
LINE
  8
0
 10
31.6075
 20
111.467
 11
31.2773
 21
111.286
  0
LINE
  8
0
 10
31.2773
 20
111.286
 11
30.927
 21
111.147
  0
LINE
  8
0
 10
30.927
 20
111.147
 11
30.5621
 21
111.053
  0
LINE
  8
0
 10
30.5621
 20
111.053
 11
30.1884
 21
111.006
  0
LINE
  8
0
 10
30.1884
 20
111.006
 11
29.8116
 21
111.006
  0
LINE
  8
0
 10
-30.1884
 20
51.0059
 11
-30.5621
 21
51.0531
  0
LINE
  8
0
 10
-30.5621
 20
51.0531
 11
-30.927
 21
51.1468
  0
LINE
  8
0
 10
-30.927
 20
51.1468
 11
-31.2773
 21
51.2855
  0
LINE
  8
0
 10
-31.2773
 20
51.2855
 11
-31.6075
 21
51.467
  0
LINE
  8
0
 10
-31.6075
 20
51.467
 11
-31.9123
 21
51.6885
  0
LINE
  8
0
 10
-31.9123
 20
51.6885
 11
-32.1869
 21
51.9464
  0
LINE
  8
0
 10
-32.1869
 20
51.9464
 11
-32.427
 21
52.2366
  0
LINE
  8
0
 10
-32.427
 20
52.2366
 11
-32.6289
 21
52.5547
  0
LINE
  8
0
 10
-32.6289
 20
52.5547
 11
-32.7893
 21
52.8956
  0
LINE
  8
0
 10
-32.7893
 20
52.8956
 11
-32.9057
 21
53.2539
  0
LINE
  8
0
 10
-32.9057
 20
53.2539
 11
-32.9763
 21
53.624
  0
LINE
  8
0
 10
-32.9763
 20
53.624
 11
-33
 21
54
  0
LINE
  8
0
 10
-33
 20
54
 11
-32.9763
 21
54.376
  0
LINE
  8
0
 10
-32.9763
 20
54.376
 11
-32.9057
 21
54.7461
  0
LINE
  8
0
 10
-32.9057
 20
54.7461
 11
-32.7893
 21
55.1044
  0
LINE
  8
0
 10
-32.7893
 20
55.1044
 11
-32.6289
 21
55.4453
  0
LINE
  8
0
 10
-32.6289
 20
55.4453
 11
-32.427
 21
55.7634
  0
LINE
  8
0
 10
-32.427
 20
55.7634
 11
-32.1869
 21
56.0536
  0
LINE
  8
0
 10
-32.1869
 20
56.0536
 11
-31.9123
 21
56.3116
  0
LINE
  8
0
 10
-31.9123
 20
56.3116
 11
-31.6075
 21
56.533
  0
LINE
  8
0
 10
-31.6075
 20
56.533
 11
-31.2773
 21
56.7145
  0
LINE
  8
0
 10
-31.2773
 20
56.7145
 11
-30.927
 21
56.8532
  0
LINE
  8
0
 10
-30.927
 20
56.8532
 11
-30.5621
 21
56.9469
  0
LINE
  8
0
 10
-30.5621
 20
56.9469
 11
-30.1884
 21
56.9941
  0
LINE
  8
0
 10
-30.1884
 20
56.9941
 11
-29.8116
 21
56.9941
  0
LINE
  8
0
 10
-29.8116
 20
56.9941
 11
-29.4379
 21
56.9469
  0
LINE
  8
0
 10
-29.4379
 20
56.9469
 11
-29.0729
 21
56.8532
  0
LINE
  8
0
 10
-29.0729
 20
56.8532
 11
-28.7227
 21
56.7145
  0
LINE
  8
0
 10
-28.7227
 20
56.7145
 11
-28.3925
 21
56.533
  0
LINE
  8
0
 10
-28.3925
 20
56.533
 11
-28.0877
 21
56.3116
  0
LINE
  8
0
 10
-28.0877
 20
56.3116
 11
-27.8131
 21
56.0536
  0
LINE
  8
0
 10
-27.8131
 20
56.0536
 11
-27.5729
 21
55.7634
  0
LINE
  8
0
 10
-27.5729
 20
55.7634
 11
-27.3711
 21
55.4453
  0
LINE
  8
0
 10
-27.3711
 20
55.4453
 11
-27.2107
 21
55.1044
  0
LINE
  8
0
 10
-27.2107
 20
55.1044
 11
-27.0942
 21
54.7461
  0
LINE
  8
0
 10
-27.0942
 20
54.7461
 11
-27.0237
 21
54.376
  0
LINE
  8
0
 10
-27.0237
 20
54.376
 11
-27
 21
54
  0
LINE
  8
0
 10
-27
 20
54
 11
-27.0237
 21
53.624
  0
LINE
  8
0
 10
-27.0237
 20
53.624
 11
-27.0942
 21
53.2539
  0
LINE
  8
0
 10
-27.0942
 20
53.2539
 11
-27.2107
 21
52.8956
  0
LINE
  8
0
 10
-27.2107
 20
52.8956
 11
-27.3711
 21
52.5547
  0
LINE
  8
0
 10
-27.3711
 20
52.5547
 11
-27.5729
 21
52.2366
  0
LINE
  8
0
 10
-27.5729
 20
52.2366
 11
-27.8131
 21
51.9464
  0
LINE
  8
0
 10
-27.8131
 20
51.9464
 11
-28.0877
 21
51.6885
  0
LINE
  8
0
 10
-28.0877
 20
51.6885
 11
-28.3925
 21
51.467
  0
LINE
  8
0
 10
-28.3925
 20
51.467
 11
-28.7227
 21
51.2855
  0
LINE
  8
0
 10
-28.7227
 20
51.2855
 11
-29.0729
 21
51.1468
  0
LINE
  8
0
 10
-29.0729
 20
51.1468
 11
-29.4379
 21
51.0531
  0
LINE
  8
0
 10
-29.4379
 20
51.0531
 11
-29.8116
 21
51.0059
  0
LINE
  8
0
 10
-29.8116
 20
51.0059
 11
-30.1884
 21
51.0059
  0
LINE
  8
0
 10
29.8116
 20
51.0059
 11
29.4379
 21
51.0531
  0
LINE
  8
0
 10
29.4379
 20
51.0531
 11
29.0729
 21
51.1468
  0
LINE
  8
0
 10
29.0729
 20
51.1468
 11
28.7227
 21
51.2855
  0
LINE
  8
0
 10
28.7227
 20
51.2855
 11
28.3925
 21
51.467
  0
LINE
  8
0
 10
28.3925
 20
51.467
 11
28.0877
 21
51.6885
  0
LINE
  8
0
 10
28.0877
 20
51.6885
 11
27.8131
 21
51.9464
  0
LINE
  8
0
 10
27.8131
 20
51.9464
 11
27.5729
 21
52.2366
  0
LINE
  8
0
 10
27.5729
 20
52.2366
 11
27.3711
 21
52.5547
  0
LINE
  8
0
 10
27.3711
 20
52.5547
 11
27.2107
 21
52.8956
  0
LINE
  8
0
 10
27.2107
 20
52.8956
 11
27.0942
 21
53.2539
  0
LINE
  8
0
 10
27.0942
 20
53.2539
 11
27.0237
 21
53.624
  0
LINE
  8
0
 10
27.0237
 20
53.624
 11
27
 21
54
  0
LINE
  8
0
 10
27
 20
54
 11
27.0237
 21
54.376
  0
LINE
  8
0
 10
27.0237
 20
54.376
 11
27.0942
 21
54.7461
  0
LINE
  8
0
 10
27.0942
 20
54.7461
 11
27.2107
 21
55.1044
  0
LINE
  8
0
 10
27.2107
 20
55.1044
 11
27.3711
 21
55.4453
  0
LINE
  8
0
 10
27.3711
 20
55.4453
 11
27.5729
 21
55.7634
  0
LINE
  8
0
 10
27.5729
 20
55.7634
 11
27.8131
 21
56.0536
  0
LINE
  8
0
 10
27.8131
 20
56.0536
 11
28.0877
 21
56.3116
  0
LINE
  8
0
 10
28.0877
 20
56.3116
 11
28.3925
 21
56.533
  0
LINE
  8
0
 10
28.3925
 20
56.533
 11
28.7227
 21
56.7145
  0
LINE
  8
0
 10
28.7227
 20
56.7145
 11
29.0729
 21
56.8532
  0
LINE
  8
0
 10
29.0729
 20
56.8532
 11
29.4379
 21
56.9469
  0
LINE
  8
0
 10
29.4379
 20
56.9469
 11
29.8116
 21
56.9941
  0
LINE
  8
0
 10
29.8116
 20
56.9941
 11
30.1884
 21
56.9941
  0
LINE
  8
0
 10
30.1884
 20
56.9941
 11
30.5621
 21
56.9469
  0
LINE
  8
0
 10
30.5621
 20
56.9469
 11
30.927
 21
56.8532
  0
LINE
  8
0
 10
30.927
 20
56.8532
 11
31.2773
 21
56.7145
  0
LINE
  8
0
 10
31.2773
 20
56.7145
 11
31.6075
 21
56.533
  0
LINE
  8
0
 10
31.6075
 20
56.533
 11
31.9123
 21
56.3116
  0
LINE
  8
0
 10
31.9123
 20
56.3116
 11
32.1869
 21
56.0536
  0
LINE
  8
0
 10
32.1869
 20
56.0536
 11
32.427
 21
55.7634
  0
LINE
  8
0
 10
32.427
 20
55.7634
 11
32.6289
 21
55.4453
  0
LINE
  8
0
 10
32.6289
 20
55.4453
 11
32.7893
 21
55.1044
  0
LINE
  8
0
 10
32.7893
 20
55.1044
 11
32.9057
 21
54.7461
  0
LINE
  8
0
 10
32.9057
 20
54.7461
 11
32.9763
 21
54.376
  0
LINE
  8
0
 10
32.9763
 20
54.376
 11
33
 21
54
  0
LINE
  8
0
 10
33
 20
54
 11
32.9763
 21
53.624
  0
LINE
  8
0
 10
32.9763
 20
53.624
 11
32.9057
 21
53.2539
  0
LINE
  8
0
 10
32.9057
 20
53.2539
 11
32.7893
 21
52.8956
  0
LINE
  8
0
 10
32.7893
 20
52.8956
 11
32.6289
 21
52.5547
  0
LINE
  8
0
 10
32.6289
 20
52.5547
 11
32.427
 21
52.2366
  0
LINE
  8
0
 10
32.427
 20
52.2366
 11
32.1869
 21
51.9464
  0
LINE
  8
0
 10
32.1869
 20
51.9464
 11
31.9123
 21
51.6885
  0
LINE
  8
0
 10
31.9123
 20
51.6885
 11
31.6075
 21
51.467
  0
LINE
  8
0
 10
31.6075
 20
51.467
 11
31.2773
 21
51.2855
  0
LINE
  8
0
 10
31.2773
 20
51.2855
 11
30.927
 21
51.1468
  0
LINE
  8
0
 10
30.927
 20
51.1468
 11
30.5621
 21
51.0531
  0
LINE
  8
0
 10
30.5621
 20
51.0531
 11
30.1884
 21
51.0059
  0
LINE
  8
0
 10
30.1884
 20
51.0059
 11
29.8116
 21
51.0059
  0
ENDSEC
  0
SECTION
  2
OBJECTS
  0
DICTIONARY
  0
ENDSEC
  0
EOF
