  0
SECTION
  2
BLOCKS
  0
ENDSEC
  0
SECTION
  2
ENTITIES
  0
LINE
  8
0
 10
70.4369
 20
137.089
 11
71.0451
 21
137.245
  0
LINE
  8
0
 10
71.0451
 20
137.245
 11
71.6289
 21
137.476
  0
LINE
  8
0
 10
71.6289
 20
137.476
 11
72.1791
 21
137.778
  0
LINE
  8
0
 10
72.1791
 20
137.778
 11
72.6871
 21
138.147
  0
LINE
  8
0
 10
72.6871
 20
138.147
 11
73.1448
 21
138.577
  0
LINE
  8
0
 10
73.1448
 20
138.577
 11
73.5451
 21
139.061
  0
LINE
  8
0
 10
73.5451
 20
139.061
 11
73.8815
 21
139.591
  0
LINE
  8
0
 10
73.8815
 20
139.591
 11
74.1489
 21
140.159
  0
LINE
  8
0
 10
74.1489
 20
140.159
 11
74.3429
 21
140.757
  0
LINE
  8
0
 10
74.3429
 20
140.757
 11
74.4606
 21
141.373
  0
LINE
  8
0
 10
74.4606
 20
141.373
 11
74.5
 21
142
  0
LINE
  8
0
 10
74.5
 20
142
 11
74.5
 21
146
  0
LINE
  8
0
 10
74.5
 20
146
 11
74.4606
 21
146.627
  0
LINE
  8
0
 10
74.4606
 20
146.627
 11
74.3429
 21
147.243
  0
LINE
  8
0
 10
74.3429
 20
147.243
 11
74.1489
 21
147.841
  0
LINE
  8
0
 10
74.1489
 20
147.841
 11
73.8815
 21
148.409
  0
LINE
  8
0
 10
73.8815
 20
148.409
 11
73.5451
 21
148.939
  0
LINE
  8
0
 10
73.5451
 20
148.939
 11
73.1448
 21
149.423
  0
LINE
  8
0
 10
73.1448
 20
149.423
 11
72.6871
 21
149.853
  0
LINE
  8
0
 10
72.6871
 20
149.853
 11
72.1791
 21
150.222
  0
LINE
  8
0
 10
72.1791
 20
150.222
 11
71.6289
 21
150.524
  0
LINE
  8
0
 10
71.6289
 20
150.524
 11
71.0451
 21
150.755
  0
LINE
  8
0
 10
71.0451
 20
150.755
 11
70.4369
 21
150.911
  0
LINE
  8
0
 10
70.4369
 20
150.911
 11
69.8139
 21
150.99
  0
LINE
  8
0
 10
69.8139
 20
150.99
 11
-69.8139
 21
150.99
  0
LINE
  8
0
 10
-69.8139
 20
150.99
 11
-70.4369
 21
150.911
  0
LINE
  8
0
 10
-70.4369
 20
150.911
 11
-71.0451
 21
150.755
  0
LINE
  8
0
 10
-71.0451
 20
150.755
 11
-71.6289
 21
150.524
  0
LINE
  8
0
 10
-71.6289
 20
150.524
 11
-72.1791
 21
150.222
  0
LINE
  8
0
 10
-72.1791
 20
150.222
 11
-72.6871
 21
149.853
  0
LINE
  8
0
 10
-72.6871
 20
149.853
 11
-73.1448
 21
149.423
  0
LINE
  8
0
 10
-73.1448
 20
149.423
 11
-73.5451
 21
148.939
  0
LINE
  8
0
 10
-73.5451
 20
148.939
 11
-73.8815
 21
148.409
  0
LINE
  8
0
 10
-73.8815
 20
148.409
 11
-74.1489
 21
147.841
  0
LINE
  8
0
 10
-74.1489
 20
147.841
 11
-74.3429
 21
147.243
  0
LINE
  8
0
 10
-74.3429
 20
147.243
 11
-74.4606
 21
146.627
  0
LINE
  8
0
 10
-74.4606
 20
146.627
 11
-74.5
 21
146
  0
LINE
  8
0
 10
-74.5
 20
146
 11
-74.5
 21
142
  0
LINE
  8
0
 10
-74.5
 20
142
 11
-74.4606
 21
141.373
  0
LINE
  8
0
 10
-74.4606
 20
141.373
 11
-74.3429
 21
140.757
  0
LINE
  8
0
 10
-74.3429
 20
140.757
 11
-74.1489
 21
140.159
  0
LINE
  8
0
 10
-74.1489
 20
140.159
 11
-73.8815
 21
139.591
  0
LINE
  8
0
 10
-73.8815
 20
139.591
 11
-73.5451
 21
139.061
  0
LINE
  8
0
 10
-73.5451
 20
139.061
 11
-73.1448
 21
138.577
  0
LINE
  8
0
 10
-73.1448
 20
138.577
 11
-72.6871
 21
138.147
  0
LINE
  8
0
 10
-72.6871
 20
138.147
 11
-72.1791
 21
137.778
  0
LINE
  8
0
 10
-72.1791
 20
137.778
 11
-71.6289
 21
137.476
  0
LINE
  8
0
 10
-71.6289
 20
137.476
 11
-71.0451
 21
137.245
  0
LINE
  8
0
 10
-71.0451
 20
137.245
 11
-70.4369
 21
137.089
  0
LINE
  8
0
 10
-70.4369
 20
137.089
 11
-69.8139
 21
137.01
  0
LINE
  8
0
 10
-69.8139
 20
137.01
 11
69.8139
 21
137.01
  0
LINE
  8
0
 10
69.8139
 20
137.01
 11
70.4369
 21
137.089
  0
LINE
  8
0
 10
67.3116
 20
141.006
 11
66.9379
 21
141.053
  0
LINE
  8
0
 10
66.9379
 20
141.053
 11
66.573
 21
141.147
  0
LINE
  8
0
 10
66.573
 20
141.147
 11
66.2227
 21
141.286
  0
LINE
  8
0
 10
66.2227
 20
141.286
 11
65.8925
 21
141.467
  0
LINE
  8
0
 10
65.8925
 20
141.467
 11
65.5877
 21
141.688
  0
LINE
  8
0
 10
65.5877
 20
141.688
 11
65.3131
 21
141.946
  0
LINE
  8
0
 10
65.3131
 20
141.946
 11
65.073
 21
142.237
  0
LINE
  8
0
 10
65.073
 20
142.237
 11
64.8711
 21
142.555
  0
LINE
  8
0
 10
64.8711
 20
142.555
 11
64.7107
 21
142.896
  0
LINE
  8
0
 10
64.7107
 20
142.896
 11
64.5943
 21
143.254
  0
LINE
  8
0
 10
64.5943
 20
143.254
 11
64.5237
 21
143.624
  0
LINE
  8
0
 10
64.5237
 20
143.624
 11
64.5
 21
144
  0
LINE
  8
0
 10
64.5
 20
144
 11
64.5237
 21
144.376
  0
LINE
  8
0
 10
64.5237
 20
144.376
 11
64.5943
 21
144.746
  0
LINE
  8
0
 10
64.5943
 20
144.746
 11
64.7107
 21
145.104
  0
LINE
  8
0
 10
64.7107
 20
145.104
 11
64.8711
 21
145.445
  0
LINE
  8
0
 10
64.8711
 20
145.445
 11
65.073
 21
145.763
  0
LINE
  8
0
 10
65.073
 20
145.763
 11
65.3131
 21
146.054
  0
LINE
  8
0
 10
65.3131
 20
146.054
 11
65.5877
 21
146.312
  0
LINE
  8
0
 10
65.5877
 20
146.312
 11
65.8925
 21
146.533
  0
LINE
  8
0
 10
65.8925
 20
146.533
 11
66.2227
 21
146.714
  0
LINE
  8
0
 10
66.2227
 20
146.714
 11
66.573
 21
146.853
  0
LINE
  8
0
 10
66.573
 20
146.853
 11
66.9379
 21
146.947
  0
LINE
  8
0
 10
66.9379
 20
146.947
 11
67.3116
 21
146.994
  0
LINE
  8
0
 10
67.3116
 20
146.994
 11
67.6884
 21
146.994
  0
LINE
  8
0
 10
67.6884
 20
146.994
 11
68.0621
 21
146.947
  0
LINE
  8
0
 10
68.0621
 20
146.947
 11
68.427
 21
146.853
  0
LINE
  8
0
 10
68.427
 20
146.853
 11
68.7773
 21
146.714
  0
LINE
  8
0
 10
68.7773
 20
146.714
 11
69.1075
 21
146.533
  0
LINE
  8
0
 10
69.1075
 20
146.533
 11
69.4123
 21
146.312
  0
LINE
  8
0
 10
69.4123
 20
146.312
 11
69.6869
 21
146.054
  0
LINE
  8
0
 10
69.6869
 20
146.054
 11
69.927
 21
145.763
  0
LINE
  8
0
 10
69.927
 20
145.763
 11
70.1289
 21
145.445
  0
LINE
  8
0
 10
70.1289
 20
145.445
 11
70.2893
 21
145.104
  0
LINE
  8
0
 10
70.2893
 20
145.104
 11
70.4057
 21
144.746
  0
LINE
  8
0
 10
70.4057
 20
144.746
 11
70.4763
 21
144.376
  0
LINE
  8
0
 10
70.4763
 20
144.376
 11
70.5
 21
144
  0
LINE
  8
0
 10
70.5
 20
144
 11
70.4763
 21
143.624
  0
LINE
  8
0
 10
70.4763
 20
143.624
 11
70.4057
 21
143.254
  0
LINE
  8
0
 10
70.4057
 20
143.254
 11
70.2893
 21
142.896
  0
LINE
  8
0
 10
70.2893
 20
142.896
 11
70.1289
 21
142.555
  0
LINE
  8
0
 10
70.1289
 20
142.555
 11
69.927
 21
142.237
  0
LINE
  8
0
 10
69.927
 20
142.237
 11
69.6869
 21
141.946
  0
LINE
  8
0
 10
69.6869
 20
141.946
 11
69.4123
 21
141.688
  0
LINE
  8
0
 10
69.4123
 20
141.688
 11
69.1075
 21
141.467
  0
LINE
  8
0
 10
69.1075
 20
141.467
 11
68.7773
 21
141.286
  0
LINE
  8
0
 10
68.7773
 20
141.286
 11
68.427
 21
141.147
  0
LINE
  8
0
 10
68.427
 20
141.147
 11
68.0621
 21
141.053
  0
LINE
  8
0
 10
68.0621
 20
141.053
 11
67.6884
 21
141.006
  0
LINE
  8
0
 10
67.6884
 20
141.006
 11
67.3116
 21
141.006
  0
LINE
  8
0
 10
-67.6884
 20
141.006
 11
-68.0621
 21
141.053
  0
LINE
  8
0
 10
-68.0621
 20
141.053
 11
-68.427
 21
141.147
  0
LINE
  8
0
 10
-68.427
 20
141.147
 11
-68.7773
 21
141.286
  0
LINE
  8
0
 10
-68.7773
 20
141.286
 11
-69.1075
 21
141.467
  0
LINE
  8
0
 10
-69.1075
 20
141.467
 11
-69.4123
 21
141.688
  0
LINE
  8
0
 10
-69.4123
 20
141.688
 11
-69.6869
 21
141.946
  0
LINE
  8
0
 10
-69.6869
 20
141.946
 11
-69.927
 21
142.237
  0
LINE
  8
0
 10
-69.927
 20
142.237
 11
-70.1289
 21
142.555
  0
LINE
  8
0
 10
-70.1289
 20
142.555
 11
-70.2893
 21
142.896
  0
LINE
  8
0
 10
-70.2893
 20
142.896
 11
-70.4057
 21
143.254
  0
LINE
  8
0
 10
-70.4057
 20
143.254
 11
-70.4763
 21
143.624
  0
LINE
  8
0
 10
-70.4763
 20
143.624
 11
-70.5
 21
144
  0
LINE
  8
0
 10
-70.5
 20
144
 11
-70.4763
 21
144.376
  0
LINE
  8
0
 10
-70.4763
 20
144.376
 11
-70.4057
 21
144.746
  0
LINE
  8
0
 10
-70.4057
 20
144.746
 11
-70.2893
 21
145.104
  0
LINE
  8
0
 10
-70.2893
 20
145.104
 11
-70.1289
 21
145.445
  0
LINE
  8
0
 10
-70.1289
 20
145.445
 11
-69.927
 21
145.763
  0
LINE
  8
0
 10
-69.927
 20
145.763
 11
-69.6869
 21
146.054
  0
LINE
  8
0
 10
-69.6869
 20
146.054
 11
-69.4123
 21
146.312
  0
LINE
  8
0
 10
-69.4123
 20
146.312
 11
-69.1075
 21
146.533
  0
LINE
  8
0
 10
-69.1075
 20
146.533
 11
-68.7773
 21
146.714
  0
LINE
  8
0
 10
-68.7773
 20
146.714
 11
-68.427
 21
146.853
  0
LINE
  8
0
 10
-68.427
 20
146.853
 11
-68.0621
 21
146.947
  0
LINE
  8
0
 10
-68.0621
 20
146.947
 11
-67.6884
 21
146.994
  0
LINE
  8
0
 10
-67.6884
 20
146.994
 11
-67.3116
 21
146.994
  0
LINE
  8
0
 10
-67.3116
 20
146.994
 11
-66.9379
 21
146.947
  0
LINE
  8
0
 10
-66.9379
 20
146.947
 11
-66.573
 21
146.853
  0
LINE
  8
0
 10
-66.573
 20
146.853
 11
-66.2227
 21
146.714
  0
LINE
  8
0
 10
-66.2227
 20
146.714
 11
-65.8925
 21
146.533
  0
LINE
  8
0
 10
-65.8925
 20
146.533
 11
-65.5877
 21
146.312
  0
LINE
  8
0
 10
-65.5877
 20
146.312
 11
-65.3131
 21
146.054
  0
LINE
  8
0
 10
-65.3131
 20
146.054
 11
-65.073
 21
145.763
  0
LINE
  8
0
 10
-65.073
 20
145.763
 11
-64.8711
 21
145.445
  0
LINE
  8
0
 10
-64.8711
 20
145.445
 11
-64.7107
 21
145.104
  0
LINE
  8
0
 10
-64.7107
 20
145.104
 11
-64.5943
 21
144.746
  0
LINE
  8
0
 10
-64.5943
 20
144.746
 11
-64.5237
 21
144.376
  0
LINE
  8
0
 10
-64.5237
 20
144.376
 11
-64.5
 21
144
  0
LINE
  8
0
 10
-64.5
 20
144
 11
-64.5237
 21
143.624
  0
LINE
  8
0
 10
-64.5237
 20
143.624
 11
-64.5943
 21
143.254
  0
LINE
  8
0
 10
-64.5943
 20
143.254
 11
-64.7107
 21
142.896
  0
LINE
  8
0
 10
-64.7107
 20
142.896
 11
-64.8711
 21
142.555
  0
LINE
  8
0
 10
-64.8711
 20
142.555
 11
-65.073
 21
142.237
  0
LINE
  8
0
 10
-65.073
 20
142.237
 11
-65.3131
 21
141.946
  0
LINE
  8
0
 10
-65.3131
 20
141.946
 11
-65.5877
 21
141.688
  0
LINE
  8
0
 10
-65.5877
 20
141.688
 11
-65.8925
 21
141.467
  0
LINE
  8
0
 10
-65.8925
 20
141.467
 11
-66.2227
 21
141.286
  0
LINE
  8
0
 10
-66.2227
 20
141.286
 11
-66.573
 21
141.147
  0
LINE
  8
0
 10
-66.573
 20
141.147
 11
-66.9379
 21
141.053
  0
LINE
  8
0
 10
-66.9379
 20
141.053
 11
-67.3116
 21
141.006
  0
LINE
  8
0
 10
-67.3116
 20
141.006
 11
-67.6884
 21
141.006
  0
LINE
  8
0
 10
70.4369
 20
113.089
 11
71.0451
 21
113.245
  0
LINE
  8
0
 10
71.0451
 20
113.245
 11
71.6289
 21
113.476
  0
LINE
  8
0
 10
71.6289
 20
113.476
 11
72.1791
 21
113.778
  0
LINE
  8
0
 10
72.1791
 20
113.778
 11
72.6871
 21
114.147
  0
LINE
  8
0
 10
72.6871
 20
114.147
 11
73.1448
 21
114.577
  0
LINE
  8
0
 10
73.1448
 20
114.577
 11
73.5451
 21
115.061
  0
LINE
  8
0
 10
73.5451
 20
115.061
 11
73.8815
 21
115.591
  0
LINE
  8
0
 10
73.8815
 20
115.591
 11
74.1489
 21
116.159
  0
LINE
  8
0
 10
74.1489
 20
116.159
 11
74.3429
 21
116.757
  0
LINE
  8
0
 10
74.3429
 20
116.757
 11
74.4606
 21
117.373
  0
LINE
  8
0
 10
74.4606
 20
117.373
 11
74.5
 21
118
  0
LINE
  8
0
 10
74.5
 20
118
 11
74.5
 21
122
  0
LINE
  8
0
 10
74.5
 20
122
 11
74.4606
 21
122.627
  0
LINE
  8
0
 10
74.4606
 20
122.627
 11
74.3429
 21
123.243
  0
LINE
  8
0
 10
74.3429
 20
123.243
 11
74.1489
 21
123.841
  0
LINE
  8
0
 10
74.1489
 20
123.841
 11
73.8815
 21
124.409
  0
LINE
  8
0
 10
73.8815
 20
124.409
 11
73.5451
 21
124.939
  0
LINE
  8
0
 10
73.5451
 20
124.939
 11
73.1448
 21
125.423
  0
LINE
  8
0
 10
73.1448
 20
125.423
 11
72.6871
 21
125.853
  0
LINE
  8
0
 10
72.6871
 20
125.853
 11
72.1791
 21
126.222
  0
LINE
  8
0
 10
72.1791
 20
126.222
 11
71.6289
 21
126.524
  0
LINE
  8
0
 10
71.6289
 20
126.524
 11
71.0451
 21
126.755
  0
LINE
  8
0
 10
71.0451
 20
126.755
 11
70.4369
 21
126.911
  0
LINE
  8
0
 10
70.4369
 20
126.911
 11
69.8139
 21
126.99
  0
LINE
  8
0
 10
69.8139
 20
126.99
 11
-69.8139
 21
126.99
  0
LINE
  8
0
 10
-69.8139
 20
126.99
 11
-70.4369
 21
126.911
  0
LINE
  8
0
 10
-70.4369
 20
126.911
 11
-71.0451
 21
126.755
  0
LINE
  8
0
 10
-71.0451
 20
126.755
 11
-71.6289
 21
126.524
  0
LINE
  8
0
 10
-71.6289
 20
126.524
 11
-72.1791
 21
126.222
  0
LINE
  8
0
 10
-72.1791
 20
126.222
 11
-72.6871
 21
125.853
  0
LINE
  8
0
 10
-72.6871
 20
125.853
 11
-73.1448
 21
125.423
  0
LINE
  8
0
 10
-73.1448
 20
125.423
 11
-73.5451
 21
124.939
  0
LINE
  8
0
 10
-73.5451
 20
124.939
 11
-73.8815
 21
124.409
  0
LINE
  8
0
 10
-73.8815
 20
124.409
 11
-74.1489
 21
123.841
  0
LINE
  8
0
 10
-74.1489
 20
123.841
 11
-74.3429
 21
123.243
  0
LINE
  8
0
 10
-74.3429
 20
123.243
 11
-74.4606
 21
122.627
  0
LINE
  8
0
 10
-74.4606
 20
122.627
 11
-74.5
 21
122
  0
LINE
  8
0
 10
-74.5
 20
122
 11
-74.5
 21
118
  0
LINE
  8
0
 10
-74.5
 20
118
 11
-74.4606
 21
117.373
  0
LINE
  8
0
 10
-74.4606
 20
117.373
 11
-74.3429
 21
116.757
  0
LINE
  8
0
 10
-74.3429
 20
116.757
 11
-74.1489
 21
116.159
  0
LINE
  8
0
 10
-74.1489
 20
116.159
 11
-73.8815
 21
115.591
  0
LINE
  8
0
 10
-73.8815
 20
115.591
 11
-73.5451
 21
115.061
  0
LINE
  8
0
 10
-73.5451
 20
115.061
 11
-73.1448
 21
114.577
  0
LINE
  8
0
 10
-73.1448
 20
114.577
 11
-72.6871
 21
114.147
  0
LINE
  8
0
 10
-72.6871
 20
114.147
 11
-72.1791
 21
113.778
  0
LINE
  8
0
 10
-72.1791
 20
113.778
 11
-71.6289
 21
113.476
  0
LINE
  8
0
 10
-71.6289
 20
113.476
 11
-71.0451
 21
113.245
  0
LINE
  8
0
 10
-71.0451
 20
113.245
 11
-70.4369
 21
113.089
  0
LINE
  8
0
 10
-70.4369
 20
113.089
 11
-69.8139
 21
113.01
  0
LINE
  8
0
 10
-69.8139
 20
113.01
 11
69.8139
 21
113.01
  0
LINE
  8
0
 10
69.8139
 20
113.01
 11
70.4369
 21
113.089
  0
LINE
  8
0
 10
67.3116
 20
117.006
 11
66.9379
 21
117.053
  0
LINE
  8
0
 10
66.9379
 20
117.053
 11
66.573
 21
117.147
  0
LINE
  8
0
 10
66.573
 20
117.147
 11
66.2227
 21
117.286
  0
LINE
  8
0
 10
66.2227
 20
117.286
 11
65.8925
 21
117.467
  0
LINE
  8
0
 10
65.8925
 20
117.467
 11
65.5877
 21
117.688
  0
LINE
  8
0
 10
65.5877
 20
117.688
 11
65.3131
 21
117.946
  0
LINE
  8
0
 10
65.3131
 20
117.946
 11
65.073
 21
118.237
  0
LINE
  8
0
 10
65.073
 20
118.237
 11
64.8711
 21
118.555
  0
LINE
  8
0
 10
64.8711
 20
118.555
 11
64.7107
 21
118.896
  0
LINE
  8
0
 10
64.7107
 20
118.896
 11
64.5943
 21
119.254
  0
LINE
  8
0
 10
64.5943
 20
119.254
 11
64.5237
 21
119.624
  0
LINE
  8
0
 10
64.5237
 20
119.624
 11
64.5
 21
120
  0
LINE
  8
0
 10
64.5
 20
120
 11
64.5237
 21
120.376
  0
LINE
  8
0
 10
64.5237
 20
120.376
 11
64.5943
 21
120.746
  0
LINE
  8
0
 10
64.5943
 20
120.746
 11
64.7107
 21
121.104
  0
LINE
  8
0
 10
64.7107
 20
121.104
 11
64.8711
 21
121.445
  0
LINE
  8
0
 10
64.8711
 20
121.445
 11
65.073
 21
121.763
  0
LINE
  8
0
 10
65.073
 20
121.763
 11
65.3131
 21
122.054
  0
LINE
  8
0
 10
65.3131
 20
122.054
 11
65.5877
 21
122.312
  0
LINE
  8
0
 10
65.5877
 20
122.312
 11
65.8925
 21
122.533
  0
LINE
  8
0
 10
65.8925
 20
122.533
 11
66.2227
 21
122.714
  0
LINE
  8
0
 10
66.2227
 20
122.714
 11
66.573
 21
122.853
  0
LINE
  8
0
 10
66.573
 20
122.853
 11
66.9379
 21
122.947
  0
LINE
  8
0
 10
66.9379
 20
122.947
 11
67.3116
 21
122.994
  0
LINE
  8
0
 10
67.3116
 20
122.994
 11
67.6884
 21
122.994
  0
LINE
  8
0
 10
67.6884
 20
122.994
 11
68.0621
 21
122.947
  0
LINE
  8
0
 10
68.0621
 20
122.947
 11
68.427
 21
122.853
  0
LINE
  8
0
 10
68.427
 20
122.853
 11
68.7773
 21
122.714
  0
LINE
  8
0
 10
68.7773
 20
122.714
 11
69.1075
 21
122.533
  0
LINE
  8
0
 10
69.1075
 20
122.533
 11
69.4123
 21
122.312
  0
LINE
  8
0
 10
69.4123
 20
122.312
 11
69.6869
 21
122.054
  0
LINE
  8
0
 10
69.6869
 20
122.054
 11
69.927
 21
121.763
  0
LINE
  8
0
 10
69.927
 20
121.763
 11
70.1289
 21
121.445
  0
LINE
  8
0
 10
70.1289
 20
121.445
 11
70.2893
 21
121.104
  0
LINE
  8
0
 10
70.2893
 20
121.104
 11
70.4057
 21
120.746
  0
LINE
  8
0
 10
70.4057
 20
120.746
 11
70.4763
 21
120.376
  0
LINE
  8
0
 10
70.4763
 20
120.376
 11
70.5
 21
120
  0
LINE
  8
0
 10
70.5
 20
120
 11
70.4763
 21
119.624
  0
LINE
  8
0
 10
70.4763
 20
119.624
 11
70.4057
 21
119.254
  0
LINE
  8
0
 10
70.4057
 20
119.254
 11
70.2893
 21
118.896
  0
LINE
  8
0
 10
70.2893
 20
118.896
 11
70.1289
 21
118.555
  0
LINE
  8
0
 10
70.1289
 20
118.555
 11
69.927
 21
118.237
  0
LINE
  8
0
 10
69.927
 20
118.237
 11
69.6869
 21
117.946
  0
LINE
  8
0
 10
69.6869
 20
117.946
 11
69.4123
 21
117.688
  0
LINE
  8
0
 10
69.4123
 20
117.688
 11
69.1075
 21
117.467
  0
LINE
  8
0
 10
69.1075
 20
117.467
 11
68.7773
 21
117.286
  0
LINE
  8
0
 10
68.7773
 20
117.286
 11
68.427
 21
117.147
  0
LINE
  8
0
 10
68.427
 20
117.147
 11
68.0621
 21
117.053
  0
LINE
  8
0
 10
68.0621
 20
117.053
 11
67.6884
 21
117.006
  0
LINE
  8
0
 10
67.6884
 20
117.006
 11
67.3116
 21
117.006
  0
LINE
  8
0
 10
-67.6884
 20
117.006
 11
-68.0621
 21
117.053
  0
LINE
  8
0
 10
-68.0621
 20
117.053
 11
-68.427
 21
117.147
  0
LINE
  8
0
 10
-68.427
 20
117.147
 11
-68.7773
 21
117.286
  0
LINE
  8
0
 10
-68.7773
 20
117.286
 11
-69.1075
 21
117.467
  0
LINE
  8
0
 10
-69.1075
 20
117.467
 11
-69.4123
 21
117.688
  0
LINE
  8
0
 10
-69.4123
 20
117.688
 11
-69.6869
 21
117.946
  0
LINE
  8
0
 10
-69.6869
 20
117.946
 11
-69.927
 21
118.237
  0
LINE
  8
0
 10
-69.927
 20
118.237
 11
-70.1289
 21
118.555
  0
LINE
  8
0
 10
-70.1289
 20
118.555
 11
-70.2893
 21
118.896
  0
LINE
  8
0
 10
-70.2893
 20
118.896
 11
-70.4057
 21
119.254
  0
LINE
  8
0
 10
-70.4057
 20
119.254
 11
-70.4763
 21
119.624
  0
LINE
  8
0
 10
-70.4763
 20
119.624
 11
-70.5
 21
120
  0
LINE
  8
0
 10
-70.5
 20
120
 11
-70.4763
 21
120.376
  0
LINE
  8
0
 10
-70.4763
 20
120.376
 11
-70.4057
 21
120.746
  0
LINE
  8
0
 10
-70.4057
 20
120.746
 11
-70.2893
 21
121.104
  0
LINE
  8
0
 10
-70.2893
 20
121.104
 11
-70.1289
 21
121.445
  0
LINE
  8
0
 10
-70.1289
 20
121.445
 11
-69.927
 21
121.763
  0
LINE
  8
0
 10
-69.927
 20
121.763
 11
-69.6869
 21
122.054
  0
LINE
  8
0
 10
-69.6869
 20
122.054
 11
-69.4123
 21
122.312
  0
LINE
  8
0
 10
-69.4123
 20
122.312
 11
-69.1075
 21
122.533
  0
LINE
  8
0
 10
-69.1075
 20
122.533
 11
-68.7773
 21
122.714
  0
LINE
  8
0
 10
-68.7773
 20
122.714
 11
-68.427
 21
122.853
  0
LINE
  8
0
 10
-68.427
 20
122.853
 11
-68.0621
 21
122.947
  0
LINE
  8
0
 10
-68.0621
 20
122.947
 11
-67.6884
 21
122.994
  0
LINE
  8
0
 10
-67.6884
 20
122.994
 11
-67.3116
 21
122.994
  0
LINE
  8
0
 10
-67.3116
 20
122.994
 11
-66.9379
 21
122.947
  0
LINE
  8
0
 10
-66.9379
 20
122.947
 11
-66.573
 21
122.853
  0
LINE
  8
0
 10
-66.573
 20
122.853
 11
-66.2227
 21
122.714
  0
LINE
  8
0
 10
-66.2227
 20
122.714
 11
-65.8925
 21
122.533
  0
LINE
  8
0
 10
-65.8925
 20
122.533
 11
-65.5877
 21
122.312
  0
LINE
  8
0
 10
-65.5877
 20
122.312
 11
-65.3131
 21
122.054
  0
LINE
  8
0
 10
-65.3131
 20
122.054
 11
-65.073
 21
121.763
  0
LINE
  8
0
 10
-65.073
 20
121.763
 11
-64.8711
 21
121.445
  0
LINE
  8
0
 10
-64.8711
 20
121.445
 11
-64.7107
 21
121.104
  0
LINE
  8
0
 10
-64.7107
 20
121.104
 11
-64.5943
 21
120.746
  0
LINE
  8
0
 10
-64.5943
 20
120.746
 11
-64.5237
 21
120.376
  0
LINE
  8
0
 10
-64.5237
 20
120.376
 11
-64.5
 21
120
  0
LINE
  8
0
 10
-64.5
 20
120
 11
-64.5237
 21
119.624
  0
LINE
  8
0
 10
-64.5237
 20
119.624
 11
-64.5943
 21
119.254
  0
LINE
  8
0
 10
-64.5943
 20
119.254
 11
-64.7107
 21
118.896
  0
LINE
  8
0
 10
-64.7107
 20
118.896
 11
-64.8711
 21
118.555
  0
LINE
  8
0
 10
-64.8711
 20
118.555
 11
-65.073
 21
118.237
  0
LINE
  8
0
 10
-65.073
 20
118.237
 11
-65.3131
 21
117.946
  0
LINE
  8
0
 10
-65.3131
 20
117.946
 11
-65.5877
 21
117.688
  0
LINE
  8
0
 10
-65.5877
 20
117.688
 11
-65.8925
 21
117.467
  0
LINE
  8
0
 10
-65.8925
 20
117.467
 11
-66.2227
 21
117.286
  0
LINE
  8
0
 10
-66.2227
 20
117.286
 11
-66.573
 21
117.147
  0
LINE
  8
0
 10
-66.573
 20
117.147
 11
-66.9379
 21
117.053
  0
LINE
  8
0
 10
-66.9379
 20
117.053
 11
-67.3116
 21
117.006
  0
LINE
  8
0
 10
-67.3116
 20
117.006
 11
-67.6884
 21
117.006
  0
LINE
  8
0
 10
70.4369
 20
89.0886
 11
71.0451
 21
89.2447
  0
LINE
  8
0
 10
71.0451
 20
89.2447
 11
71.6289
 21
89.4759
  0
LINE
  8
0
 10
71.6289
 20
89.4759
 11
72.1791
 21
89.7784
  0
LINE
  8
0
 10
72.1791
 20
89.7784
 11
72.6871
 21
90.1474
  0
LINE
  8
0
 10
72.6871
 20
90.1474
 11
73.1448
 21
90.5773
  0
LINE
  8
0
 10
73.1448
 20
90.5773
 11
73.5451
 21
91.0611
  0
LINE
  8
0
 10
73.5451
 20
91.0611
 11
73.8815
 21
91.5912
  0
LINE
  8
0
 10
73.8815
 20
91.5912
 11
74.1489
 21
92.1594
  0
LINE
  8
0
 10
74.1489
 20
92.1594
 11
74.3429
 21
92.7566
  0
LINE
  8
0
 10
74.3429
 20
92.7566
 11
74.4606
 21
93.3733
  0
LINE
  8
0
 10
74.4606
 20
93.3733
 11
74.5
 21
94
  0
LINE
  8
0
 10
74.5
 20
94
 11
74.5
 21
98
  0
LINE
  8
0
 10
74.5
 20
98
 11
74.4606
 21
98.6267
  0
LINE
  8
0
 10
74.4606
 20
98.6267
 11
74.3429
 21
99.2434
  0
LINE
  8
0
 10
74.3429
 20
99.2434
 11
74.1489
 21
99.8406
  0
LINE
  8
0
 10
74.1489
 20
99.8406
 11
73.8815
 21
100.409
  0
LINE
  8
0
 10
73.8815
 20
100.409
 11
73.5451
 21
100.939
  0
LINE
  8
0
 10
73.5451
 20
100.939
 11
73.1448
 21
101.423
  0
LINE
  8
0
 10
73.1448
 20
101.423
 11
72.6871
 21
101.853
  0
LINE
  8
0
 10
72.6871
 20
101.853
 11
72.1791
 21
102.222
  0
LINE
  8
0
 10
72.1791
 20
102.222
 11
71.6289
 21
102.524
  0
LINE
  8
0
 10
71.6289
 20
102.524
 11
71.0451
 21
102.755
  0
LINE
  8
0
 10
71.0451
 20
102.755
 11
70.4369
 21
102.911
  0
LINE
  8
0
 10
70.4369
 20
102.911
 11
69.8139
 21
102.99
  0
LINE
  8
0
 10
69.8139
 20
102.99
 11
-69.8139
 21
102.99
  0
LINE
  8
0
 10
-69.8139
 20
102.99
 11
-70.4369
 21
102.911
  0
LINE
  8
0
 10
-70.4369
 20
102.911
 11
-71.0451
 21
102.755
  0
LINE
  8
0
 10
-71.0451
 20
102.755
 11
-71.6289
 21
102.524
  0
LINE
  8
0
 10
-71.6289
 20
102.524
 11
-72.1791
 21
102.222
  0
LINE
  8
0
 10
-72.1791
 20
102.222
 11
-72.6871
 21
101.853
  0
LINE
  8
0
 10
-72.6871
 20
101.853
 11
-73.1448
 21
101.423
  0
LINE
  8
0
 10
-73.1448
 20
101.423
 11
-73.5451
 21
100.939
  0
LINE
  8
0
 10
-73.5451
 20
100.939
 11
-73.8815
 21
100.409
  0
LINE
  8
0
 10
-73.8815
 20
100.409
 11
-74.1489
 21
99.8406
  0
LINE
  8
0
 10
-74.1489
 20
99.8406
 11
-74.3429
 21
99.2434
  0
LINE
  8
0
 10
-74.3429
 20
99.2434
 11
-74.4606
 21
98.6267
  0
LINE
  8
0
 10
-74.4606
 20
98.6267
 11
-74.5
 21
98
  0
LINE
  8
0
 10
-74.5
 20
98
 11
-74.5
 21
94
  0
LINE
  8
0
 10
-74.5
 20
94
 11
-74.4606
 21
93.3733
  0
LINE
  8
0
 10
-74.4606
 20
93.3733
 11
-74.3429
 21
92.7566
  0
LINE
  8
0
 10
-74.3429
 20
92.7566
 11
-74.1489
 21
92.1594
  0
LINE
  8
0
 10
-74.1489
 20
92.1594
 11
-73.8815
 21
91.5912
  0
LINE
  8
0
 10
-73.8815
 20
91.5912
 11
-73.5451
 21
91.0611
  0
LINE
  8
0
 10
-73.5451
 20
91.0611
 11
-73.1448
 21
90.5773
  0
LINE
  8
0
 10
-73.1448
 20
90.5773
 11
-72.6871
 21
90.1474
  0
LINE
  8
0
 10
-72.6871
 20
90.1474
 11
-72.1791
 21
89.7784
  0
LINE
  8
0
 10
-72.1791
 20
89.7784
 11
-71.6289
 21
89.4759
  0
LINE
  8
0
 10
-71.6289
 20
89.4759
 11
-71.0451
 21
89.2447
  0
LINE
  8
0
 10
-71.0451
 20
89.2447
 11
-70.4369
 21
89.0886
  0
LINE
  8
0
 10
-70.4369
 20
89.0886
 11
-69.8139
 21
89.0099
  0
LINE
  8
0
 10
-69.8139
 20
89.0099
 11
69.8139
 21
89.0099
  0
LINE
  8
0
 10
69.8139
 20
89.0099
 11
70.4369
 21
89.0886
  0
LINE
  8
0
 10
67.3116
 20
93.0059
 11
66.9379
 21
93.0531
  0
LINE
  8
0
 10
66.9379
 20
93.0531
 11
66.573
 21
93.1468
  0
LINE
  8
0
 10
66.573
 20
93.1468
 11
66.2227
 21
93.2855
  0
LINE
  8
0
 10
66.2227
 20
93.2855
 11
65.8925
 21
93.467
  0
LINE
  8
0
 10
65.8925
 20
93.467
 11
65.5877
 21
93.6885
  0
LINE
  8
0
 10
65.5877
 20
93.6885
 11
65.3131
 21
93.9464
  0
LINE
  8
0
 10
65.3131
 20
93.9464
 11
65.073
 21
94.2366
  0
LINE
  8
0
 10
65.073
 20
94.2366
 11
64.8711
 21
94.5547
  0
LINE
  8
0
 10
64.8711
 20
94.5547
 11
64.7107
 21
94.8956
  0
LINE
  8
0
 10
64.7107
 20
94.8956
 11
64.5943
 21
95.2539
  0
LINE
  8
0
 10
64.5943
 20
95.2539
 11
64.5237
 21
95.624
  0
LINE
  8
0
 10
64.5237
 20
95.624
 11
64.5
 21
96
  0
LINE
  8
0
 10
64.5
 20
96
 11
64.5237
 21
96.376
  0
LINE
  8
0
 10
64.5237
 20
96.376
 11
64.5943
 21
96.7461
  0
LINE
  8
0
 10
64.5943
 20
96.7461
 11
64.7107
 21
97.1044
  0
LINE
  8
0
 10
64.7107
 20
97.1044
 11
64.8711
 21
97.4453
  0
LINE
  8
0
 10
64.8711
 20
97.4453
 11
65.073
 21
97.7634
  0
LINE
  8
0
 10
65.073
 20
97.7634
 11
65.3131
 21
98.0536
  0
LINE
  8
0
 10
65.3131
 20
98.0536
 11
65.5877
 21
98.3115
  0
LINE
  8
0
 10
65.5877
 20
98.3115
 11
65.8925
 21
98.533
  0
LINE
  8
0
 10
65.8925
 20
98.533
 11
66.2227
 21
98.7145
  0
LINE
  8
0
 10
66.2227
 20
98.7145
 11
66.573
 21
98.8532
  0
LINE
  8
0
 10
66.573
 20
98.8532
 11
66.9379
 21
98.9469
  0
LINE
  8
0
 10
66.9379
 20
98.9469
 11
67.3116
 21
98.9941
  0
LINE
  8
0
 10
67.3116
 20
98.9941
 11
67.6884
 21
98.9941
  0
LINE
  8
0
 10
67.6884
 20
98.9941
 11
68.0621
 21
98.9469
  0
LINE
  8
0
 10
68.0621
 20
98.9469
 11
68.427
 21
98.8532
  0
LINE
  8
0
 10
68.427
 20
98.8532
 11
68.7773
 21
98.7145
  0
LINE
  8
0
 10
68.7773
 20
98.7145
 11
69.1075
 21
98.533
  0
LINE
  8
0
 10
69.1075
 20
98.533
 11
69.4123
 21
98.3115
  0
LINE
  8
0
 10
69.4123
 20
98.3115
 11
69.6869
 21
98.0536
  0
LINE
  8
0
 10
69.6869
 20
98.0536
 11
69.927
 21
97.7634
  0
LINE
  8
0
 10
69.927
 20
97.7634
 11
70.1289
 21
97.4453
  0
LINE
  8
0
 10
70.1289
 20
97.4453
 11
70.2893
 21
97.1044
  0
LINE
  8
0
 10
70.2893
 20
97.1044
 11
70.4057
 21
96.7461
  0
LINE
  8
0
 10
70.4057
 20
96.7461
 11
70.4763
 21
96.376
  0
LINE
  8
0
 10
70.4763
 20
96.376
 11
70.5
 21
96
  0
LINE
  8
0
 10
70.5
 20
96
 11
70.4763
 21
95.624
  0
LINE
  8
0
 10
70.4763
 20
95.624
 11
70.4057
 21
95.2539
  0
LINE
  8
0
 10
70.4057
 20
95.2539
 11
70.2893
 21
94.8956
  0
LINE
  8
0
 10
70.2893
 20
94.8956
 11
70.1289
 21
94.5547
  0
LINE
  8
0
 10
70.1289
 20
94.5547
 11
69.927
 21
94.2366
  0
LINE
  8
0
 10
69.927
 20
94.2366
 11
69.6869
 21
93.9464
  0
LINE
  8
0
 10
69.6869
 20
93.9464
 11
69.4123
 21
93.6885
  0
LINE
  8
0
 10
69.4123
 20
93.6885
 11
69.1075
 21
93.467
  0
LINE
  8
0
 10
69.1075
 20
93.467
 11
68.7773
 21
93.2855
  0
LINE
  8
0
 10
68.7773
 20
93.2855
 11
68.427
 21
93.1468
  0
LINE
  8
0
 10
68.427
 20
93.1468
 11
68.0621
 21
93.0531
  0
LINE
  8
0
 10
68.0621
 20
93.0531
 11
67.6884
 21
93.0059
  0
LINE
  8
0
 10
67.6884
 20
93.0059
 11
67.3116
 21
93.0059
  0
LINE
  8
0
 10
-67.6884
 20
93.0059
 11
-68.0621
 21
93.0531
  0
LINE
  8
0
 10
-68.0621
 20
93.0531
 11
-68.427
 21
93.1468
  0
LINE
  8
0
 10
-68.427
 20
93.1468
 11
-68.7773
 21
93.2855
  0
LINE
  8
0
 10
-68.7773
 20
93.2855
 11
-69.1075
 21
93.467
  0
LINE
  8
0
 10
-69.1075
 20
93.467
 11
-69.4123
 21
93.6885
  0
LINE
  8
0
 10
-69.4123
 20
93.6885
 11
-69.6869
 21
93.9464
  0
LINE
  8
0
 10
-69.6869
 20
93.9464
 11
-69.927
 21
94.2366
  0
LINE
  8
0
 10
-69.927
 20
94.2366
 11
-70.1289
 21
94.5547
  0
LINE
  8
0
 10
-70.1289
 20
94.5547
 11
-70.2893
 21
94.8956
  0
LINE
  8
0
 10
-70.2893
 20
94.8956
 11
-70.4057
 21
95.2539
  0
LINE
  8
0
 10
-70.4057
 20
95.2539
 11
-70.4763
 21
95.624
  0
LINE
  8
0
 10
-70.4763
 20
95.624
 11
-70.5
 21
96
  0
LINE
  8
0
 10
-70.5
 20
96
 11
-70.4763
 21
96.376
  0
LINE
  8
0
 10
-70.4763
 20
96.376
 11
-70.4057
 21
96.7461
  0
LINE
  8
0
 10
-70.4057
 20
96.7461
 11
-70.2893
 21
97.1044
  0
LINE
  8
0
 10
-70.2893
 20
97.1044
 11
-70.1289
 21
97.4453
  0
LINE
  8
0
 10
-70.1289
 20
97.4453
 11
-69.927
 21
97.7634
  0
LINE
  8
0
 10
-69.927
 20
97.7634
 11
-69.6869
 21
98.0536
  0
LINE
  8
0
 10
-69.6869
 20
98.0536
 11
-69.4123
 21
98.3115
  0
LINE
  8
0
 10
-69.4123
 20
98.3115
 11
-69.1075
 21
98.533
  0
LINE
  8
0
 10
-69.1075
 20
98.533
 11
-68.7773
 21
98.7145
  0
LINE
  8
0
 10
-68.7773
 20
98.7145
 11
-68.427
 21
98.8532
  0
LINE
  8
0
 10
-68.427
 20
98.8532
 11
-68.0621
 21
98.9469
  0
LINE
  8
0
 10
-68.0621
 20
98.9469
 11
-67.6884
 21
98.9941
  0
LINE
  8
0
 10
-67.6884
 20
98.9941
 11
-67.3116
 21
98.9941
  0
LINE
  8
0
 10
-67.3116
 20
98.9941
 11
-66.9379
 21
98.9469
  0
LINE
  8
0
 10
-66.9379
 20
98.9469
 11
-66.573
 21
98.8532
  0
LINE
  8
0
 10
-66.573
 20
98.8532
 11
-66.2227
 21
98.7145
  0
LINE
  8
0
 10
-66.2227
 20
98.7145
 11
-65.8925
 21
98.533
  0
LINE
  8
0
 10
-65.8925
 20
98.533
 11
-65.5877
 21
98.3115
  0
LINE
  8
0
 10
-65.5877
 20
98.3115
 11
-65.3131
 21
98.0536
  0
LINE
  8
0
 10
-65.3131
 20
98.0536
 11
-65.073
 21
97.7634
  0
LINE
  8
0
 10
-65.073
 20
97.7634
 11
-64.8711
 21
97.4453
  0
LINE
  8
0
 10
-64.8711
 20
97.4453
 11
-64.7107
 21
97.1044
  0
LINE
  8
0
 10
-64.7107
 20
97.1044
 11
-64.5943
 21
96.7461
  0
LINE
  8
0
 10
-64.5943
 20
96.7461
 11
-64.5237
 21
96.376
  0
LINE
  8
0
 10
-64.5237
 20
96.376
 11
-64.5
 21
96
  0
LINE
  8
0
 10
-64.5
 20
96
 11
-64.5237
 21
95.624
  0
LINE
  8
0
 10
-64.5237
 20
95.624
 11
-64.5943
 21
95.2539
  0
LINE
  8
0
 10
-64.5943
 20
95.2539
 11
-64.7107
 21
94.8956
  0
LINE
  8
0
 10
-64.7107
 20
94.8956
 11
-64.8711
 21
94.5547
  0
LINE
  8
0
 10
-64.8711
 20
94.5547
 11
-65.073
 21
94.2366
  0
LINE
  8
0
 10
-65.073
 20
94.2366
 11
-65.3131
 21
93.9464
  0
LINE
  8
0
 10
-65.3131
 20
93.9464
 11
-65.5877
 21
93.6885
  0
LINE
  8
0
 10
-65.5877
 20
93.6885
 11
-65.8925
 21
93.467
  0
LINE
  8
0
 10
-65.8925
 20
93.467
 11
-66.2227
 21
93.2855
  0
LINE
  8
0
 10
-66.2227
 20
93.2855
 11
-66.573
 21
93.1468
  0
LINE
  8
0
 10
-66.573
 20
93.1468
 11
-66.9379
 21
93.0531
  0
LINE
  8
0
 10
-66.9379
 20
93.0531
 11
-67.3116
 21
93.0059
  0
LINE
  8
0
 10
-67.3116
 20
93.0059
 11
-67.6884
 21
93.0059
  0
LINE
  8
0
 10
70.4369
 20
65.0886
 11
71.0451
 21
65.2447
  0
LINE
  8
0
 10
71.0451
 20
65.2447
 11
71.6289
 21
65.4759
  0
LINE
  8
0
 10
71.6289
 20
65.4759
 11
72.1791
 21
65.7784
  0
LINE
  8
0
 10
72.1791
 20
65.7784
 11
72.6871
 21
66.1474
  0
LINE
  8
0
 10
72.6871
 20
66.1474
 11
73.1448
 21
66.5773
  0
LINE
  8
0
 10
73.1448
 20
66.5773
 11
73.5451
 21
67.0611
  0
LINE
  8
0
 10
73.5451
 20
67.0611
 11
73.8815
 21
67.5912
  0
LINE
  8
0
 10
73.8815
 20
67.5912
 11
74.1489
 21
68.1594
  0
LINE
  8
0
 10
74.1489
 20
68.1594
 11
74.3429
 21
68.7566
  0
LINE
  8
0
 10
74.3429
 20
68.7566
 11
74.4606
 21
69.3733
  0
LINE
  8
0
 10
74.4606
 20
69.3733
 11
74.5
 21
70
  0
LINE
  8
0
 10
74.5
 20
70
 11
74.5
 21
74
  0
LINE
  8
0
 10
74.5
 20
74
 11
74.4606
 21
74.6267
  0
LINE
  8
0
 10
74.4606
 20
74.6267
 11
74.3429
 21
75.2434
  0
LINE
  8
0
 10
74.3429
 20
75.2434
 11
74.1489
 21
75.8406
  0
LINE
  8
0
 10
74.1489
 20
75.8406
 11
73.8815
 21
76.4088
  0
LINE
  8
0
 10
73.8815
 20
76.4088
 11
73.5451
 21
76.9389
  0
LINE
  8
0
 10
73.5451
 20
76.9389
 11
73.1448
 21
77.4227
  0
LINE
  8
0
 10
73.1448
 20
77.4227
 11
72.6871
 21
77.8526
  0
LINE
  8
0
 10
72.6871
 20
77.8526
 11
72.1791
 21
78.2216
  0
LINE
  8
0
 10
72.1791
 20
78.2216
 11
71.6289
 21
78.5241
  0
LINE
  8
0
 10
71.6289
 20
78.5241
 11
71.0451
 21
78.7553
  0
LINE
  8
0
 10
71.0451
 20
78.7553
 11
70.4369
 21
78.9114
  0
LINE
  8
0
 10
70.4369
 20
78.9114
 11
69.8139
 21
78.9901
  0
LINE
  8
0
 10
69.8139
 20
78.9901
 11
-69.8139
 21
78.9901
  0
LINE
  8
0
 10
-69.8139
 20
78.9901
 11
-70.4369
 21
78.9114
  0
LINE
  8
0
 10
-70.4369
 20
78.9114
 11
-71.0451
 21
78.7553
  0
LINE
  8
0
 10
-71.0451
 20
78.7553
 11
-71.6289
 21
78.5241
  0
LINE
  8
0
 10
-71.6289
 20
78.5241
 11
-72.1791
 21
78.2216
  0
LINE
  8
0
 10
-72.1791
 20
78.2216
 11
-72.6871
 21
77.8526
  0
LINE
  8
0
 10
-72.6871
 20
77.8526
 11
-73.1448
 21
77.4227
  0
LINE
  8
0
 10
-73.1448
 20
77.4227
 11
-73.5451
 21
76.9389
  0
LINE
  8
0
 10
-73.5451
 20
76.9389
 11
-73.8815
 21
76.4088
  0
LINE
  8
0
 10
-73.8815
 20
76.4088
 11
-74.1489
 21
75.8406
  0
LINE
  8
0
 10
-74.1489
 20
75.8406
 11
-74.3429
 21
75.2434
  0
LINE
  8
0
 10
-74.3429
 20
75.2434
 11
-74.4606
 21
74.6267
  0
LINE
  8
0
 10
-74.4606
 20
74.6267
 11
-74.5
 21
74
  0
LINE
  8
0
 10
-74.5
 20
74
 11
-74.5
 21
70
  0
LINE
  8
0
 10
-74.5
 20
70
 11
-74.4606
 21
69.3733
  0
LINE
  8
0
 10
-74.4606
 20
69.3733
 11
-74.3429
 21
68.7566
  0
LINE
  8
0
 10
-74.3429
 20
68.7566
 11
-74.1489
 21
68.1594
  0
LINE
  8
0
 10
-74.1489
 20
68.1594
 11
-73.8815
 21
67.5912
  0
LINE
  8
0
 10
-73.8815
 20
67.5912
 11
-73.5451
 21
67.0611
  0
LINE
  8
0
 10
-73.5451
 20
67.0611
 11
-73.1448
 21
66.5773
  0
LINE
  8
0
 10
-73.1448
 20
66.5773
 11
-72.6871
 21
66.1474
  0
LINE
  8
0
 10
-72.6871
 20
66.1474
 11
-72.1791
 21
65.7784
  0
LINE
  8
0
 10
-72.1791
 20
65.7784
 11
-71.6289
 21
65.4759
  0
LINE
  8
0
 10
-71.6289
 20
65.4759
 11
-71.0451
 21
65.2447
  0
LINE
  8
0
 10
-71.0451
 20
65.2447
 11
-70.4369
 21
65.0886
  0
LINE
  8
0
 10
-70.4369
 20
65.0886
 11
-69.8139
 21
65.0099
  0
LINE
  8
0
 10
-69.8139
 20
65.0099
 11
69.8139
 21
65.0099
  0
LINE
  8
0
 10
69.8139
 20
65.0099
 11
70.4369
 21
65.0886
  0
LINE
  8
0
 10
-67.6884
 20
69.0059
 11
-68.0621
 21
69.0531
  0
LINE
  8
0
 10
-68.0621
 20
69.0531
 11
-68.427
 21
69.1468
  0
LINE
  8
0
 10
-68.427
 20
69.1468
 11
-68.7773
 21
69.2855
  0
LINE
  8
0
 10
-68.7773
 20
69.2855
 11
-69.1075
 21
69.467
  0
LINE
  8
0
 10
-69.1075
 20
69.467
 11
-69.4123
 21
69.6885
  0
LINE
  8
0
 10
-69.4123
 20
69.6885
 11
-69.6869
 21
69.9464
  0
LINE
  8
0
 10
-69.6869
 20
69.9464
 11
-69.927
 21
70.2366
  0
LINE
  8
0
 10
-69.927
 20
70.2366
 11
-70.1289
 21
70.5547
  0
LINE
  8
0
 10
-70.1289
 20
70.5547
 11
-70.2893
 21
70.8956
  0
LINE
  8
0
 10
-70.2893
 20
70.8956
 11
-70.4057
 21
71.2539
  0
LINE
  8
0
 10
-70.4057
 20
71.2539
 11
-70.4763
 21
71.624
  0
LINE
  8
0
 10
-70.4763
 20
71.624
 11
-70.5
 21
72
  0
LINE
  8
0
 10
-70.5
 20
72
 11
-70.4763
 21
72.376
  0
LINE
  8
0
 10
-70.4763
 20
72.376
 11
-70.4057
 21
72.7461
  0
LINE
  8
0
 10
-70.4057
 20
72.7461
 11
-70.2893
 21
73.1044
  0
LINE
  8
0
 10
-70.2893
 20
73.1044
 11
-70.1289
 21
73.4453
  0
LINE
  8
0
 10
-70.1289
 20
73.4453
 11
-69.927
 21
73.7634
  0
LINE
  8
0
 10
-69.927
 20
73.7634
 11
-69.6869
 21
74.0536
  0
LINE
  8
0
 10
-69.6869
 20
74.0536
 11
-69.4123
 21
74.3115
  0
LINE
  8
0
 10
-69.4123
 20
74.3115
 11
-69.1075
 21
74.533
  0
LINE
  8
0
 10
-69.1075
 20
74.533
 11
-68.7773
 21
74.7145
  0
LINE
  8
0
 10
-68.7773
 20
74.7145
 11
-68.427
 21
74.8532
  0
LINE
  8
0
 10
-68.427
 20
74.8532
 11
-68.0621
 21
74.9469
  0
LINE
  8
0
 10
-68.0621
 20
74.9469
 11
-67.6884
 21
74.9941
  0
LINE
  8
0
 10
-67.6884
 20
74.9941
 11
-67.3116
 21
74.9941
  0
LINE
  8
0
 10
-67.3116
 20
74.9941
 11
-66.9379
 21
74.9469
  0
LINE
  8
0
 10
-66.9379
 20
74.9469
 11
-66.573
 21
74.8532
  0
LINE
  8
0
 10
-66.573
 20
74.8532
 11
-66.2227
 21
74.7145
  0
LINE
  8
0
 10
-66.2227
 20
74.7145
 11
-65.8925
 21
74.533
  0
LINE
  8
0
 10
-65.8925
 20
74.533
 11
-65.5877
 21
74.3115
  0
LINE
  8
0
 10
-65.5877
 20
74.3115
 11
-65.3131
 21
74.0536
  0
LINE
  8
0
 10
-65.3131
 20
74.0536
 11
-65.073
 21
73.7634
  0
LINE
  8
0
 10
-65.073
 20
73.7634
 11
-64.8711
 21
73.4453
  0
LINE
  8
0
 10
-64.8711
 20
73.4453
 11
-64.7107
 21
73.1044
  0
LINE
  8
0
 10
-64.7107
 20
73.1044
 11
-64.5943
 21
72.7461
  0
LINE
  8
0
 10
-64.5943
 20
72.7461
 11
-64.5237
 21
72.376
  0
LINE
  8
0
 10
-64.5237
 20
72.376
 11
-64.5
 21
72
  0
LINE
  8
0
 10
-64.5
 20
72
 11
-64.5237
 21
71.624
  0
LINE
  8
0
 10
-64.5237
 20
71.624
 11
-64.5943
 21
71.2539
  0
LINE
  8
0
 10
-64.5943
 20
71.2539
 11
-64.7107
 21
70.8956
  0
LINE
  8
0
 10
-64.7107
 20
70.8956
 11
-64.8711
 21
70.5547
  0
LINE
  8
0
 10
-64.8711
 20
70.5547
 11
-65.073
 21
70.2366
  0
LINE
  8
0
 10
-65.073
 20
70.2366
 11
-65.3131
 21
69.9464
  0
LINE
  8
0
 10
-65.3131
 20
69.9464
 11
-65.5877
 21
69.6885
  0
LINE
  8
0
 10
-65.5877
 20
69.6885
 11
-65.8925
 21
69.467
  0
LINE
  8
0
 10
-65.8925
 20
69.467
 11
-66.2227
 21
69.2855
  0
LINE
  8
0
 10
-66.2227
 20
69.2855
 11
-66.573
 21
69.1468
  0
LINE
  8
0
 10
-66.573
 20
69.1468
 11
-66.9379
 21
69.0531
  0
LINE
  8
0
 10
-66.9379
 20
69.0531
 11
-67.3116
 21
69.0059
  0
LINE
  8
0
 10
-67.3116
 20
69.0059
 11
-67.6884
 21
69.0059
  0
LINE
  8
0
 10
67.3116
 20
69.0059
 11
66.9379
 21
69.0531
  0
LINE
  8
0
 10
66.9379
 20
69.0531
 11
66.573
 21
69.1468
  0
LINE
  8
0
 10
66.573
 20
69.1468
 11
66.2227
 21
69.2855
  0
LINE
  8
0
 10
66.2227
 20
69.2855
 11
65.8925
 21
69.467
  0
LINE
  8
0
 10
65.8925
 20
69.467
 11
65.5877
 21
69.6885
  0
LINE
  8
0
 10
65.5877
 20
69.6885
 11
65.3131
 21
69.9464
  0
LINE
  8
0
 10
65.3131
 20
69.9464
 11
65.073
 21
70.2366
  0
LINE
  8
0
 10
65.073
 20
70.2366
 11
64.8711
 21
70.5547
  0
LINE
  8
0
 10
64.8711
 20
70.5547
 11
64.7107
 21
70.8956
  0
LINE
  8
0
 10
64.7107
 20
70.8956
 11
64.5943
 21
71.2539
  0
LINE
  8
0
 10
64.5943
 20
71.2539
 11
64.5237
 21
71.624
  0
LINE
  8
0
 10
64.5237
 20
71.624
 11
64.5
 21
72
  0
LINE
  8
0
 10
64.5
 20
72
 11
64.5237
 21
72.376
  0
LINE
  8
0
 10
64.5237
 20
72.376
 11
64.5943
 21
72.7461
  0
LINE
  8
0
 10
64.5943
 20
72.7461
 11
64.7107
 21
73.1044
  0
LINE
  8
0
 10
64.7107
 20
73.1044
 11
64.8711
 21
73.4453
  0
LINE
  8
0
 10
64.8711
 20
73.4453
 11
65.073
 21
73.7634
  0
LINE
  8
0
 10
65.073
 20
73.7634
 11
65.3131
 21
74.0536
  0
LINE
  8
0
 10
65.3131
 20
74.0536
 11
65.5877
 21
74.3115
  0
LINE
  8
0
 10
65.5877
 20
74.3115
 11
65.8925
 21
74.533
  0
LINE
  8
0
 10
65.8925
 20
74.533
 11
66.2227
 21
74.7145
  0
LINE
  8
0
 10
66.2227
 20
74.7145
 11
66.573
 21
74.8532
  0
LINE
  8
0
 10
66.573
 20
74.8532
 11
66.9379
 21
74.9469
  0
LINE
  8
0
 10
66.9379
 20
74.9469
 11
67.3116
 21
74.9941
  0
LINE
  8
0
 10
67.3116
 20
74.9941
 11
67.6884
 21
74.9941
  0
LINE
  8
0
 10
67.6884
 20
74.9941
 11
68.0621
 21
74.9469
  0
LINE
  8
0
 10
68.0621
 20
74.9469
 11
68.427
 21
74.8532
  0
LINE
  8
0
 10
68.427
 20
74.8532
 11
68.7773
 21
74.7145
  0
LINE
  8
0
 10
68.7773
 20
74.7145
 11
69.1075
 21
74.533
  0
LINE
  8
0
 10
69.1075
 20
74.533
 11
69.4123
 21
74.3115
  0
LINE
  8
0
 10
69.4123
 20
74.3115
 11
69.6869
 21
74.0536
  0
LINE
  8
0
 10
69.6869
 20
74.0536
 11
69.927
 21
73.7634
  0
LINE
  8
0
 10
69.927
 20
73.7634
 11
70.1289
 21
73.4453
  0
LINE
  8
0
 10
70.1289
 20
73.4453
 11
70.2893
 21
73.1044
  0
LINE
  8
0
 10
70.2893
 20
73.1044
 11
70.4057
 21
72.7461
  0
LINE
  8
0
 10
70.4057
 20
72.7461
 11
70.4763
 21
72.376
  0
LINE
  8
0
 10
70.4763
 20
72.376
 11
70.5
 21
72
  0
LINE
  8
0
 10
70.5
 20
72
 11
70.4763
 21
71.624
  0
LINE
  8
0
 10
70.4763
 20
71.624
 11
70.4057
 21
71.2539
  0
LINE
  8
0
 10
70.4057
 20
71.2539
 11
70.2893
 21
70.8956
  0
LINE
  8
0
 10
70.2893
 20
70.8956
 11
70.1289
 21
70.5547
  0
LINE
  8
0
 10
70.1289
 20
70.5547
 11
69.927
 21
70.2366
  0
LINE
  8
0
 10
69.927
 20
70.2366
 11
69.6869
 21
69.9464
  0
LINE
  8
0
 10
69.6869
 20
69.9464
 11
69.4123
 21
69.6885
  0
LINE
  8
0
 10
69.4123
 20
69.6885
 11
69.1075
 21
69.467
  0
LINE
  8
0
 10
69.1075
 20
69.467
 11
68.7773
 21
69.2855
  0
LINE
  8
0
 10
68.7773
 20
69.2855
 11
68.427
 21
69.1468
  0
LINE
  8
0
 10
68.427
 20
69.1468
 11
68.0621
 21
69.0531
  0
LINE
  8
0
 10
68.0621
 20
69.0531
 11
67.6884
 21
69.0059
  0
LINE
  8
0
 10
67.6884
 20
69.0059
 11
67.3116
 21
69.0059
  0
ENDSEC
  0
SECTION
  2
OBJECTS
  0
DICTIONARY
  0
ENDSEC
  0
EOF
