  0
SECTION
  2
BLOCKS
  0
ENDSEC
  0
SECTION
  2
ENTITIES
  0
LINE
  8
0
 10
122.937
 20
-6.91142
 11
123.545
 21
-6.75528
  0
LINE
  8
0
 10
123.545
 20
-6.75528
 11
124.129
 21
-6.52412
  0
LINE
  8
0
 10
124.129
 20
-6.52412
 11
124.679
 21
-6.22163
  0
LINE
  8
0
 10
124.679
 20
-6.22163
 11
125.187
 21
-5.85255
  0
LINE
  8
0
 10
125.187
 20
-5.85255
 11
125.645
 21
-5.42273
  0
LINE
  8
0
 10
125.645
 20
-5.42273
 11
126.045
 21
-4.93892
  0
LINE
  8
0
 10
126.045
 20
-4.93892
 11
126.382
 21
-4.40877
  0
LINE
  8
0
 10
126.382
 20
-4.40877
 11
126.649
 21
-3.84062
  0
LINE
  8
0
 10
126.649
 20
-3.84062
 11
126.843
 21
-3.24344
  0
LINE
  8
0
 10
126.843
 20
-3.24344
 11
126.961
 21
-2.62666
  0
LINE
  8
0
 10
126.961
 20
-2.62666
 11
127
 21
-2
  0
LINE
  8
0
 10
127
 20
-2
 11
127
 21
2
  0
LINE
  8
0
 10
127
 20
2
 11
126.961
 21
2.62666
  0
LINE
  8
0
 10
126.961
 20
2.62666
 11
126.843
 21
3.24344
  0
LINE
  8
0
 10
126.843
 20
3.24344
 11
126.649
 21
3.84062
  0
LINE
  8
0
 10
126.649
 20
3.84062
 11
126.382
 21
4.40877
  0
LINE
  8
0
 10
126.382
 20
4.40877
 11
126.045
 21
4.93892
  0
LINE
  8
0
 10
126.045
 20
4.93892
 11
125.645
 21
5.42273
  0
LINE
  8
0
 10
125.645
 20
5.42273
 11
125.187
 21
5.85255
  0
LINE
  8
0
 10
125.187
 20
5.85255
 11
124.679
 21
6.22163
  0
LINE
  8
0
 10
124.679
 20
6.22163
 11
124.129
 21
6.52412
  0
LINE
  8
0
 10
124.129
 20
6.52412
 11
123.545
 21
6.75528
  0
LINE
  8
0
 10
123.545
 20
6.75528
 11
122.937
 21
6.91142
  0
LINE
  8
0
 10
122.937
 20
6.91142
 11
122.314
 21
6.99013
  0
LINE
  8
0
 10
122.314
 20
6.99013
 11
-122.314
 21
6.99013
  0
LINE
  8
0
 10
-122.314
 20
6.99013
 11
-122.937
 21
6.91142
  0
LINE
  8
0
 10
-122.937
 20
6.91142
 11
-123.545
 21
6.75528
  0
LINE
  8
0
 10
-123.545
 20
6.75528
 11
-124.129
 21
6.52412
  0
LINE
  8
0
 10
-124.129
 20
6.52412
 11
-124.679
 21
6.22163
  0
LINE
  8
0
 10
-124.679
 20
6.22163
 11
-125.187
 21
5.85255
  0
LINE
  8
0
 10
-125.187
 20
5.85255
 11
-125.645
 21
5.42273
  0
LINE
  8
0
 10
-125.645
 20
5.42273
 11
-126.045
 21
4.93892
  0
LINE
  8
0
 10
-126.045
 20
4.93892
 11
-126.382
 21
4.40877
  0
LINE
  8
0
 10
-126.382
 20
4.40877
 11
-126.649
 21
3.84062
  0
LINE
  8
0
 10
-126.649
 20
3.84062
 11
-126.843
 21
3.24344
  0
LINE
  8
0
 10
-126.843
 20
3.24344
 11
-126.961
 21
2.62666
  0
LINE
  8
0
 10
-126.961
 20
2.62666
 11
-127
 21
2
  0
LINE
  8
0
 10
-127
 20
2
 11
-127
 21
-2
  0
LINE
  8
0
 10
-127
 20
-2
 11
-126.961
 21
-2.62666
  0
LINE
  8
0
 10
-126.961
 20
-2.62666
 11
-126.843
 21
-3.24344
  0
LINE
  8
0
 10
-126.843
 20
-3.24344
 11
-126.649
 21
-3.84062
  0
LINE
  8
0
 10
-126.649
 20
-3.84062
 11
-126.382
 21
-4.40877
  0
LINE
  8
0
 10
-126.382
 20
-4.40877
 11
-126.045
 21
-4.93892
  0
LINE
  8
0
 10
-126.045
 20
-4.93892
 11
-125.645
 21
-5.42273
  0
LINE
  8
0
 10
-125.645
 20
-5.42273
 11
-125.187
 21
-5.85255
  0
LINE
  8
0
 10
-125.187
 20
-5.85255
 11
-124.679
 21
-6.22163
  0
LINE
  8
0
 10
-124.679
 20
-6.22163
 11
-124.129
 21
-6.52412
  0
LINE
  8
0
 10
-124.129
 20
-6.52412
 11
-123.545
 21
-6.75528
  0
LINE
  8
0
 10
-123.545
 20
-6.75528
 11
-122.937
 21
-6.91142
  0
LINE
  8
0
 10
-122.937
 20
-6.91142
 11
-122.314
 21
-6.99013
  0
LINE
  8
0
 10
-122.314
 20
-6.99013
 11
122.314
 21
-6.99013
  0
LINE
  8
0
 10
122.314
 20
-6.99013
 11
122.937
 21
-6.91142
  0
LINE
  8
0
 10
119.812
 20
-2.99408
 11
119.438
 21
-2.94685
  0
LINE
  8
0
 10
119.438
 20
-2.94685
 11
119.073
 21
-2.85316
  0
LINE
  8
0
 10
119.073
 20
-2.85316
 11
118.723
 21
-2.71448
  0
LINE
  8
0
 10
118.723
 20
-2.71448
 11
118.393
 21
-2.53297
  0
LINE
  8
0
 10
118.393
 20
-2.53297
 11
118.088
 21
-2.31154
  0
LINE
  8
0
 10
118.088
 20
-2.31154
 11
117.813
 21
-2.05363
  0
LINE
  8
0
 10
117.813
 20
-2.05363
 11
117.573
 21
-1.76335
  0
LINE
  8
0
 10
117.573
 20
-1.76335
 11
117.371
 21
-1.44525
  0
LINE
  8
0
 10
117.371
 20
-1.44525
 11
117.211
 21
-1.10437
  0
LINE
  8
0
 10
117.211
 20
-1.10437
 11
117.094
 21
-0.746063
  0
LINE
  8
0
 10
117.094
 20
-0.746063
 11
117.024
 21
-0.375992
  0
LINE
  8
0
 10
117.024
 20
-0.375992
 11
117
 21
0
  0
LINE
  8
0
 10
117
 20
0
 11
117.024
 21
0.375992
  0
LINE
  8
0
 10
117.024
 20
0.375992
 11
117.094
 21
0.746063
  0
LINE
  8
0
 10
117.094
 20
0.746063
 11
117.211
 21
1.10437
  0
LINE
  8
0
 10
117.211
 20
1.10437
 11
117.371
 21
1.44525
  0
LINE
  8
0
 10
117.371
 20
1.44525
 11
117.573
 21
1.76335
  0
LINE
  8
0
 10
117.573
 20
1.76335
 11
117.813
 21
2.05363
  0
LINE
  8
0
 10
117.813
 20
2.05363
 11
118.088
 21
2.31154
  0
LINE
  8
0
 10
118.088
 20
2.31154
 11
118.393
 21
2.53297
  0
LINE
  8
0
 10
118.393
 20
2.53297
 11
118.723
 21
2.71448
  0
LINE
  8
0
 10
118.723
 20
2.71448
 11
119.073
 21
2.85316
  0
LINE
  8
0
 10
119.073
 20
2.85316
 11
119.438
 21
2.94685
  0
LINE
  8
0
 10
119.438
 20
2.94685
 11
119.812
 21
2.99408
  0
LINE
  8
0
 10
119.812
 20
2.99408
 11
120.188
 21
2.99408
  0
LINE
  8
0
 10
120.188
 20
2.99408
 11
120.562
 21
2.94685
  0
LINE
  8
0
 10
120.562
 20
2.94685
 11
120.927
 21
2.85316
  0
LINE
  8
0
 10
120.927
 20
2.85316
 11
121.277
 21
2.71448
  0
LINE
  8
0
 10
121.277
 20
2.71448
 11
121.607
 21
2.53297
  0
LINE
  8
0
 10
121.607
 20
2.53297
 11
121.912
 21
2.31154
  0
LINE
  8
0
 10
121.912
 20
2.31154
 11
122.187
 21
2.05363
  0
LINE
  8
0
 10
122.187
 20
2.05363
 11
122.427
 21
1.76335
  0
LINE
  8
0
 10
122.427
 20
1.76335
 11
122.629
 21
1.44525
  0
LINE
  8
0
 10
122.629
 20
1.44525
 11
122.789
 21
1.10437
  0
LINE
  8
0
 10
122.789
 20
1.10437
 11
122.906
 21
0.746063
  0
LINE
  8
0
 10
122.906
 20
0.746063
 11
122.976
 21
0.375992
  0
LINE
  8
0
 10
122.976
 20
0.375992
 11
123
 21
0
  0
LINE
  8
0
 10
123
 20
0
 11
122.976
 21
-0.375992
  0
LINE
  8
0
 10
122.976
 20
-0.375992
 11
122.906
 21
-0.746063
  0
LINE
  8
0
 10
122.906
 20
-0.746063
 11
122.789
 21
-1.10437
  0
LINE
  8
0
 10
122.789
 20
-1.10437
 11
122.629
 21
-1.44525
  0
LINE
  8
0
 10
122.629
 20
-1.44525
 11
122.427
 21
-1.76335
  0
LINE
  8
0
 10
122.427
 20
-1.76335
 11
122.187
 21
-2.05363
  0
LINE
  8
0
 10
122.187
 20
-2.05363
 11
121.912
 21
-2.31154
  0
LINE
  8
0
 10
121.912
 20
-2.31154
 11
121.607
 21
-2.53297
  0
LINE
  8
0
 10
121.607
 20
-2.53297
 11
121.277
 21
-2.71448
  0
LINE
  8
0
 10
121.277
 20
-2.71448
 11
120.927
 21
-2.85316
  0
LINE
  8
0
 10
120.927
 20
-2.85316
 11
120.562
 21
-2.94685
  0
LINE
  8
0
 10
120.562
 20
-2.94685
 11
120.188
 21
-2.99408
  0
LINE
  8
0
 10
120.188
 20
-2.99408
 11
119.812
 21
-2.99408
  0
LINE
  8
0
 10
-120.188
 20
-2.99408
 11
-120.562
 21
-2.94685
  0
LINE
  8
0
 10
-120.562
 20
-2.94685
 11
-120.927
 21
-2.85316
  0
LINE
  8
0
 10
-120.927
 20
-2.85316
 11
-121.277
 21
-2.71448
  0
LINE
  8
0
 10
-121.277
 20
-2.71448
 11
-121.607
 21
-2.53297
  0
LINE
  8
0
 10
-121.607
 20
-2.53297
 11
-121.912
 21
-2.31154
  0
LINE
  8
0
 10
-121.912
 20
-2.31154
 11
-122.187
 21
-2.05363
  0
LINE
  8
0
 10
-122.187
 20
-2.05363
 11
-122.427
 21
-1.76335
  0
LINE
  8
0
 10
-122.427
 20
-1.76335
 11
-122.629
 21
-1.44525
  0
LINE
  8
0
 10
-122.629
 20
-1.44525
 11
-122.789
 21
-1.10437
  0
LINE
  8
0
 10
-122.789
 20
-1.10437
 11
-122.906
 21
-0.746063
  0
LINE
  8
0
 10
-122.906
 20
-0.746063
 11
-122.976
 21
-0.375992
  0
LINE
  8
0
 10
-122.976
 20
-0.375992
 11
-123
 21
0
  0
LINE
  8
0
 10
-123
 20
0
 11
-122.976
 21
0.375992
  0
LINE
  8
0
 10
-122.976
 20
0.375992
 11
-122.906
 21
0.746063
  0
LINE
  8
0
 10
-122.906
 20
0.746063
 11
-122.789
 21
1.10437
  0
LINE
  8
0
 10
-122.789
 20
1.10437
 11
-122.629
 21
1.44525
  0
LINE
  8
0
 10
-122.629
 20
1.44525
 11
-122.427
 21
1.76335
  0
LINE
  8
0
 10
-122.427
 20
1.76335
 11
-122.187
 21
2.05363
  0
LINE
  8
0
 10
-122.187
 20
2.05363
 11
-121.912
 21
2.31154
  0
LINE
  8
0
 10
-121.912
 20
2.31154
 11
-121.607
 21
2.53297
  0
LINE
  8
0
 10
-121.607
 20
2.53297
 11
-121.277
 21
2.71448
  0
LINE
  8
0
 10
-121.277
 20
2.71448
 11
-120.927
 21
2.85316
  0
LINE
  8
0
 10
-120.927
 20
2.85316
 11
-120.562
 21
2.94685
  0
LINE
  8
0
 10
-120.562
 20
2.94685
 11
-120.188
 21
2.99408
  0
LINE
  8
0
 10
-120.188
 20
2.99408
 11
-119.812
 21
2.99408
  0
LINE
  8
0
 10
-119.812
 20
2.99408
 11
-119.438
 21
2.94685
  0
LINE
  8
0
 10
-119.438
 20
2.94685
 11
-119.073
 21
2.85316
  0
LINE
  8
0
 10
-119.073
 20
2.85316
 11
-118.723
 21
2.71448
  0
LINE
  8
0
 10
-118.723
 20
2.71448
 11
-118.393
 21
2.53297
  0
LINE
  8
0
 10
-118.393
 20
2.53297
 11
-118.088
 21
2.31154
  0
LINE
  8
0
 10
-118.088
 20
2.31154
 11
-117.813
 21
2.05363
  0
LINE
  8
0
 10
-117.813
 20
2.05363
 11
-117.573
 21
1.76335
  0
LINE
  8
0
 10
-117.573
 20
1.76335
 11
-117.371
 21
1.44525
  0
LINE
  8
0
 10
-117.371
 20
1.44525
 11
-117.211
 21
1.10437
  0
LINE
  8
0
 10
-117.211
 20
1.10437
 11
-117.094
 21
0.746063
  0
LINE
  8
0
 10
-117.094
 20
0.746063
 11
-117.024
 21
0.375992
  0
LINE
  8
0
 10
-117.024
 20
0.375992
 11
-117
 21
0
  0
LINE
  8
0
 10
-117
 20
0
 11
-117.024
 21
-0.375992
  0
LINE
  8
0
 10
-117.024
 20
-0.375992
 11
-117.094
 21
-0.746063
  0
LINE
  8
0
 10
-117.094
 20
-0.746063
 11
-117.211
 21
-1.10437
  0
LINE
  8
0
 10
-117.211
 20
-1.10437
 11
-117.371
 21
-1.44525
  0
LINE
  8
0
 10
-117.371
 20
-1.44525
 11
-117.573
 21
-1.76335
  0
LINE
  8
0
 10
-117.573
 20
-1.76335
 11
-117.813
 21
-2.05363
  0
LINE
  8
0
 10
-117.813
 20
-2.05363
 11
-118.088
 21
-2.31154
  0
LINE
  8
0
 10
-118.088
 20
-2.31154
 11
-118.393
 21
-2.53297
  0
LINE
  8
0
 10
-118.393
 20
-2.53297
 11
-118.723
 21
-2.71448
  0
LINE
  8
0
 10
-118.723
 20
-2.71448
 11
-119.073
 21
-2.85316
  0
LINE
  8
0
 10
-119.073
 20
-2.85316
 11
-119.438
 21
-2.94685
  0
LINE
  8
0
 10
-119.438
 20
-2.94685
 11
-119.812
 21
-2.99408
  0
LINE
  8
0
 10
-119.812
 20
-2.99408
 11
-120.188
 21
-2.99408
  0
ENDSEC
  0
SECTION
  2
OBJECTS
  0
DICTIONARY
  0
ENDSEC
  0
EOF
