  0
SECTION
  2
BLOCKS
  0
ENDSEC
  0
SECTION
  2
ENTITIES
  0
LINE
  8
0
 10
32.9369
 20
47.0886
 11
33.5451
 21
47.2447
  0
LINE
  8
0
 10
33.5451
 20
47.2447
 11
34.1289
 21
47.4759
  0
LINE
  8
0
 10
34.1289
 20
47.4759
 11
34.6791
 21
47.7784
  0
LINE
  8
0
 10
34.6791
 20
47.7784
 11
35.1871
 21
48.1474
  0
LINE
  8
0
 10
35.1871
 20
48.1474
 11
35.6448
 21
48.5773
  0
LINE
  8
0
 10
35.6448
 20
48.5773
 11
36.0451
 21
49.0611
  0
LINE
  8
0
 10
36.0451
 20
49.0611
 11
36.3815
 21
49.5912
  0
LINE
  8
0
 10
36.3815
 20
49.5912
 11
36.6489
 21
50.1594
  0
LINE
  8
0
 10
36.6489
 20
50.1594
 11
36.8429
 21
50.7566
  0
LINE
  8
0
 10
36.8429
 20
50.7566
 11
36.9606
 21
51.3733
  0
LINE
  8
0
 10
36.9606
 20
51.3733
 11
37
 21
52
  0
LINE
  8
0
 10
37
 20
52
 11
37
 21
116
  0
LINE
  8
0
 10
37
 20
116
 11
36.9606
 21
116.627
  0
LINE
  8
0
 10
36.9606
 20
116.627
 11
36.8429
 21
117.243
  0
LINE
  8
0
 10
36.8429
 20
117.243
 11
36.6489
 21
117.841
  0
LINE
  8
0
 10
36.6489
 20
117.841
 11
36.3815
 21
118.409
  0
LINE
  8
0
 10
36.3815
 20
118.409
 11
36.0451
 21
118.939
  0
LINE
  8
0
 10
36.0451
 20
118.939
 11
35.6448
 21
119.423
  0
LINE
  8
0
 10
35.6448
 20
119.423
 11
35.1871
 21
119.853
  0
LINE
  8
0
 10
35.1871
 20
119.853
 11
34.6791
 21
120.222
  0
LINE
  8
0
 10
34.6791
 20
120.222
 11
34.1289
 21
120.524
  0
LINE
  8
0
 10
34.1289
 20
120.524
 11
33.5451
 21
120.755
  0
LINE
  8
0
 10
33.5451
 20
120.755
 11
32.9369
 21
120.911
  0
LINE
  8
0
 10
32.9369
 20
120.911
 11
32.3139
 21
120.99
  0
LINE
  8
0
 10
32.3139
 20
120.99
 11
-32.3139
 21
120.99
  0
LINE
  8
0
 10
-32.3139
 20
120.99
 11
-32.9369
 21
120.911
  0
LINE
  8
0
 10
-32.9369
 20
120.911
 11
-33.5451
 21
120.755
  0
LINE
  8
0
 10
-33.5451
 20
120.755
 11
-34.1289
 21
120.524
  0
LINE
  8
0
 10
-34.1289
 20
120.524
 11
-34.6791
 21
120.222
  0
LINE
  8
0
 10
-34.6791
 20
120.222
 11
-35.1871
 21
119.853
  0
LINE
  8
0
 10
-35.1871
 20
119.853
 11
-35.6448
 21
119.423
  0
LINE
  8
0
 10
-35.6448
 20
119.423
 11
-36.0451
 21
118.939
  0
LINE
  8
0
 10
-36.0451
 20
118.939
 11
-36.3815
 21
118.409
  0
LINE
  8
0
 10
-36.3815
 20
118.409
 11
-36.6489
 21
117.841
  0
LINE
  8
0
 10
-36.6489
 20
117.841
 11
-36.8429
 21
117.243
  0
LINE
  8
0
 10
-36.8429
 20
117.243
 11
-36.9606
 21
116.627
  0
LINE
  8
0
 10
-36.9606
 20
116.627
 11
-37
 21
116
  0
LINE
  8
0
 10
-37
 20
116
 11
-37
 21
52
  0
LINE
  8
0
 10
-37
 20
52
 11
-36.9606
 21
51.3733
  0
LINE
  8
0
 10
-36.9606
 20
51.3733
 11
-36.8429
 21
50.7566
  0
LINE
  8
0
 10
-36.8429
 20
50.7566
 11
-36.6489
 21
50.1594
  0
LINE
  8
0
 10
-36.6489
 20
50.1594
 11
-36.3815
 21
49.5912
  0
LINE
  8
0
 10
-36.3815
 20
49.5912
 11
-36.0451
 21
49.0611
  0
LINE
  8
0
 10
-36.0451
 20
49.0611
 11
-35.6448
 21
48.5773
  0
LINE
  8
0
 10
-35.6448
 20
48.5773
 11
-35.1871
 21
48.1474
  0
LINE
  8
0
 10
-35.1871
 20
48.1474
 11
-34.6791
 21
47.7784
  0
LINE
  8
0
 10
-34.6791
 20
47.7784
 11
-34.1289
 21
47.4759
  0
LINE
  8
0
 10
-34.1289
 20
47.4759
 11
-33.5451
 21
47.2447
  0
LINE
  8
0
 10
-33.5451
 20
47.2447
 11
-32.9369
 21
47.0886
  0
LINE
  8
0
 10
-32.9369
 20
47.0886
 11
-32.3139
 21
47.0099
  0
LINE
  8
0
 10
-32.3139
 20
47.0099
 11
32.3139
 21
47.0099
  0
LINE
  8
0
 10
32.3139
 20
47.0099
 11
32.9369
 21
47.0886
  0
LINE
  8
0
 10
29.8116
 20
111.006
 11
29.4379
 21
111.053
  0
LINE
  8
0
 10
29.4379
 20
111.053
 11
29.0729
 21
111.147
  0
LINE
  8
0
 10
29.0729
 20
111.147
 11
28.7227
 21
111.286
  0
LINE
  8
0
 10
28.7227
 20
111.286
 11
28.3925
 21
111.467
  0
LINE
  8
0
 10
28.3925
 20
111.467
 11
28.0877
 21
111.688
  0
LINE
  8
0
 10
28.0877
 20
111.688
 11
27.8131
 21
111.946
  0
LINE
  8
0
 10
27.8131
 20
111.946
 11
27.5729
 21
112.237
  0
LINE
  8
0
 10
27.5729
 20
112.237
 11
27.3711
 21
112.555
  0
LINE
  8
0
 10
27.3711
 20
112.555
 11
27.2107
 21
112.896
  0
LINE
  8
0
 10
27.2107
 20
112.896
 11
27.0942
 21
113.254
  0
LINE
  8
0
 10
27.0942
 20
113.254
 11
27.0237
 21
113.624
  0
LINE
  8
0
 10
27.0237
 20
113.624
 11
27
 21
114
  0
LINE
  8
0
 10
27
 20
114
 11
27.0237
 21
114.376
  0
LINE
  8
0
 10
27.0237
 20
114.376
 11
27.0942
 21
114.746
  0
LINE
  8
0
 10
27.0942
 20
114.746
 11
27.2107
 21
115.104
  0
LINE
  8
0
 10
27.2107
 20
115.104
 11
27.3711
 21
115.445
  0
LINE
  8
0
 10
27.3711
 20
115.445
 11
27.5729
 21
115.763
  0
LINE
  8
0
 10
27.5729
 20
115.763
 11
27.8131
 21
116.054
  0
LINE
  8
0
 10
27.8131
 20
116.054
 11
28.0877
 21
116.312
  0
LINE
  8
0
 10
28.0877
 20
116.312
 11
28.3925
 21
116.533
  0
LINE
  8
0
 10
28.3925
 20
116.533
 11
28.7227
 21
116.714
  0
LINE
  8
0
 10
28.7227
 20
116.714
 11
29.0729
 21
116.853
  0
LINE
  8
0
 10
29.0729
 20
116.853
 11
29.4379
 21
116.947
  0
LINE
  8
0
 10
29.4379
 20
116.947
 11
29.8116
 21
116.994
  0
LINE
  8
0
 10
29.8116
 20
116.994
 11
30.1884
 21
116.994
  0
LINE
  8
0
 10
30.1884
 20
116.994
 11
30.5621
 21
116.947
  0
LINE
  8
0
 10
30.5621
 20
116.947
 11
30.927
 21
116.853
  0
LINE
  8
0
 10
30.927
 20
116.853
 11
31.2773
 21
116.714
  0
LINE
  8
0
 10
31.2773
 20
116.714
 11
31.6075
 21
116.533
  0
LINE
  8
0
 10
31.6075
 20
116.533
 11
31.9123
 21
116.312
  0
LINE
  8
0
 10
31.9123
 20
116.312
 11
32.1869
 21
116.054
  0
LINE
  8
0
 10
32.1869
 20
116.054
 11
32.427
 21
115.763
  0
LINE
  8
0
 10
32.427
 20
115.763
 11
32.6289
 21
115.445
  0
LINE
  8
0
 10
32.6289
 20
115.445
 11
32.7893
 21
115.104
  0
LINE
  8
0
 10
32.7893
 20
115.104
 11
32.9057
 21
114.746
  0
LINE
  8
0
 10
32.9057
 20
114.746
 11
32.9763
 21
114.376
  0
LINE
  8
0
 10
32.9763
 20
114.376
 11
33
 21
114
  0
LINE
  8
0
 10
33
 20
114
 11
32.9763
 21
113.624
  0
LINE
  8
0
 10
32.9763
 20
113.624
 11
32.9057
 21
113.254
  0
LINE
  8
0
 10
32.9057
 20
113.254
 11
32.7893
 21
112.896
  0
LINE
  8
0
 10
32.7893
 20
112.896
 11
32.6289
 21
112.555
  0
LINE
  8
0
 10
32.6289
 20
112.555
 11
32.427
 21
112.237
  0
LINE
  8
0
 10
32.427
 20
112.237
 11
32.1869
 21
111.946
  0
LINE
  8
0
 10
32.1869
 20
111.946
 11
31.9123
 21
111.688
  0
LINE
  8
0
 10
31.9123
 20
111.688
 11
31.6075
 21
111.467
  0
LINE
  8
0
 10
31.6075
 20
111.467
 11
31.2773
 21
111.286
  0
LINE
  8
0
 10
31.2773
 20
111.286
 11
30.927
 21
111.147
  0
LINE
  8
0
 10
30.927
 20
111.147
 11
30.5621
 21
111.053
  0
LINE
  8
0
 10
30.5621
 20
111.053
 11
30.1884
 21
111.006
  0
LINE
  8
0
 10
30.1884
 20
111.006
 11
29.8116
 21
111.006
  0
LINE
  8
0
 10
-30.1884
 20
111.006
 11
-30.5621
 21
111.053
  0
LINE
  8
0
 10
-30.5621
 20
111.053
 11
-30.927
 21
111.147
  0
LINE
  8
0
 10
-30.927
 20
111.147
 11
-31.2773
 21
111.286
  0
LINE
  8
0
 10
-31.2773
 20
111.286
 11
-31.6075
 21
111.467
  0
LINE
  8
0
 10
-31.6075
 20
111.467
 11
-31.9123
 21
111.688
  0
LINE
  8
0
 10
-31.9123
 20
111.688
 11
-32.1869
 21
111.946
  0
LINE
  8
0
 10
-32.1869
 20
111.946
 11
-32.427
 21
112.237
  0
LINE
  8
0
 10
-32.427
 20
112.237
 11
-32.6289
 21
112.555
  0
LINE
  8
0
 10
-32.6289
 20
112.555
 11
-32.7893
 21
112.896
  0
LINE
  8
0
 10
-32.7893
 20
112.896
 11
-32.9057
 21
113.254
  0
LINE
  8
0
 10
-32.9057
 20
113.254
 11
-32.9763
 21
113.624
  0
LINE
  8
0
 10
-32.9763
 20
113.624
 11
-33
 21
114
  0
LINE
  8
0
 10
-33
 20
114
 11
-32.9763
 21
114.376
  0
LINE
  8
0
 10
-32.9763
 20
114.376
 11
-32.9057
 21
114.746
  0
LINE
  8
0
 10
-32.9057
 20
114.746
 11
-32.7893
 21
115.104
  0
LINE
  8
0
 10
-32.7893
 20
115.104
 11
-32.6289
 21
115.445
  0
LINE
  8
0
 10
-32.6289
 20
115.445
 11
-32.427
 21
115.763
  0
LINE
  8
0
 10
-32.427
 20
115.763
 11
-32.1869
 21
116.054
  0
LINE
  8
0
 10
-32.1869
 20
116.054
 11
-31.9123
 21
116.312
  0
LINE
  8
0
 10
-31.9123
 20
116.312
 11
-31.6075
 21
116.533
  0
LINE
  8
0
 10
-31.6075
 20
116.533
 11
-31.2773
 21
116.714
  0
LINE
  8
0
 10
-31.2773
 20
116.714
 11
-30.927
 21
116.853
  0
LINE
  8
0
 10
-30.927
 20
116.853
 11
-30.5621
 21
116.947
  0
LINE
  8
0
 10
-30.5621
 20
116.947
 11
-30.1884
 21
116.994
  0
LINE
  8
0
 10
-30.1884
 20
116.994
 11
-29.8116
 21
116.994
  0
LINE
  8
0
 10
-29.8116
 20
116.994
 11
-29.4379
 21
116.947
  0
LINE
  8
0
 10
-29.4379
 20
116.947
 11
-29.0729
 21
116.853
  0
LINE
  8
0
 10
-29.0729
 20
116.853
 11
-28.7227
 21
116.714
  0
LINE
  8
0
 10
-28.7227
 20
116.714
 11
-28.3925
 21
116.533
  0
LINE
  8
0
 10
-28.3925
 20
116.533
 11
-28.0877
 21
116.312
  0
LINE
  8
0
 10
-28.0877
 20
116.312
 11
-27.8131
 21
116.054
  0
LINE
  8
0
 10
-27.8131
 20
116.054
 11
-27.5729
 21
115.763
  0
LINE
  8
0
 10
-27.5729
 20
115.763
 11
-27.3711
 21
115.445
  0
LINE
  8
0
 10
-27.3711
 20
115.445
 11
-27.2107
 21
115.104
  0
LINE
  8
0
 10
-27.2107
 20
115.104
 11
-27.0942
 21
114.746
  0
LINE
  8
0
 10
-27.0942
 20
114.746
 11
-27.0237
 21
114.376
  0
LINE
  8
0
 10
-27.0237
 20
114.376
 11
-27
 21
114
  0
LINE
  8
0
 10
-27
 20
114
 11
-27.0237
 21
113.624
  0
LINE
  8
0
 10
-27.0237
 20
113.624
 11
-27.0942
 21
113.254
  0
LINE
  8
0
 10
-27.0942
 20
113.254
 11
-27.2107
 21
112.896
  0
LINE
  8
0
 10
-27.2107
 20
112.896
 11
-27.3711
 21
112.555
  0
LINE
  8
0
 10
-27.3711
 20
112.555
 11
-27.5729
 21
112.237
  0
LINE
  8
0
 10
-27.5729
 20
112.237
 11
-27.8131
 21
111.946
  0
LINE
  8
0
 10
-27.8131
 20
111.946
 11
-28.0877
 21
111.688
  0
LINE
  8
0
 10
-28.0877
 20
111.688
 11
-28.3925
 21
111.467
  0
LINE
  8
0
 10
-28.3925
 20
111.467
 11
-28.7227
 21
111.286
  0
LINE
  8
0
 10
-28.7227
 20
111.286
 11
-29.0729
 21
111.147
  0
LINE
  8
0
 10
-29.0729
 20
111.147
 11
-29.4379
 21
111.053
  0
LINE
  8
0
 10
-29.4379
 20
111.053
 11
-29.8116
 21
111.006
  0
LINE
  8
0
 10
-29.8116
 20
111.006
 11
-30.1884
 21
111.006
  0
LINE
  8
0
 10
29.8116
 20
51.0059
 11
29.4379
 21
51.0531
  0
LINE
  8
0
 10
29.4379
 20
51.0531
 11
29.0729
 21
51.1468
  0
LINE
  8
0
 10
29.0729
 20
51.1468
 11
28.7227
 21
51.2855
  0
LINE
  8
0
 10
28.7227
 20
51.2855
 11
28.3925
 21
51.467
  0
LINE
  8
0
 10
28.3925
 20
51.467
 11
28.0877
 21
51.6885
  0
LINE
  8
0
 10
28.0877
 20
51.6885
 11
27.8131
 21
51.9464
  0
LINE
  8
0
 10
27.8131
 20
51.9464
 11
27.5729
 21
52.2366
  0
LINE
  8
0
 10
27.5729
 20
52.2366
 11
27.3711
 21
52.5547
  0
LINE
  8
0
 10
27.3711
 20
52.5547
 11
27.2107
 21
52.8956
  0
LINE
  8
0
 10
27.2107
 20
52.8956
 11
27.0942
 21
53.2539
  0
LINE
  8
0
 10
27.0942
 20
53.2539
 11
27.0237
 21
53.624
  0
LINE
  8
0
 10
27.0237
 20
53.624
 11
27
 21
54
  0
LINE
  8
0
 10
27
 20
54
 11
27.0237
 21
54.376
  0
LINE
  8
0
 10
27.0237
 20
54.376
 11
27.0942
 21
54.7461
  0
LINE
  8
0
 10
27.0942
 20
54.7461
 11
27.2107
 21
55.1044
  0
LINE
  8
0
 10
27.2107
 20
55.1044
 11
27.3711
 21
55.4453
  0
LINE
  8
0
 10
27.3711
 20
55.4453
 11
27.5729
 21
55.7634
  0
LINE
  8
0
 10
27.5729
 20
55.7634
 11
27.8131
 21
56.0536
  0
LINE
  8
0
 10
27.8131
 20
56.0536
 11
28.0877
 21
56.3116
  0
LINE
  8
0
 10
28.0877
 20
56.3116
 11
28.3925
 21
56.533
  0
LINE
  8
0
 10
28.3925
 20
56.533
 11
28.7227
 21
56.7145
  0
LINE
  8
0
 10
28.7227
 20
56.7145
 11
29.0729
 21
56.8532
  0
LINE
  8
0
 10
29.0729
 20
56.8532
 11
29.4379
 21
56.9469
  0
LINE
  8
0
 10
29.4379
 20
56.9469
 11
29.8116
 21
56.9941
  0
LINE
  8
0
 10
29.8116
 20
56.9941
 11
30.1884
 21
56.9941
  0
LINE
  8
0
 10
30.1884
 20
56.9941
 11
30.5621
 21
56.9469
  0
LINE
  8
0
 10
30.5621
 20
56.9469
 11
30.927
 21
56.8532
  0
LINE
  8
0
 10
30.927
 20
56.8532
 11
31.2773
 21
56.7145
  0
LINE
  8
0
 10
31.2773
 20
56.7145
 11
31.6075
 21
56.533
  0
LINE
  8
0
 10
31.6075
 20
56.533
 11
31.9123
 21
56.3116
  0
LINE
  8
0
 10
31.9123
 20
56.3116
 11
32.1869
 21
56.0536
  0
LINE
  8
0
 10
32.1869
 20
56.0536
 11
32.427
 21
55.7634
  0
LINE
  8
0
 10
32.427
 20
55.7634
 11
32.6289
 21
55.4453
  0
LINE
  8
0
 10
32.6289
 20
55.4453
 11
32.7893
 21
55.1044
  0
LINE
  8
0
 10
32.7893
 20
55.1044
 11
32.9057
 21
54.7461
  0
LINE
  8
0
 10
32.9057
 20
54.7461
 11
32.9763
 21
54.376
  0
LINE
  8
0
 10
32.9763
 20
54.376
 11
33
 21
54
  0
LINE
  8
0
 10
33
 20
54
 11
32.9763
 21
53.624
  0
LINE
  8
0
 10
32.9763
 20
53.624
 11
32.9057
 21
53.2539
  0
LINE
  8
0
 10
32.9057
 20
53.2539
 11
32.7893
 21
52.8956
  0
LINE
  8
0
 10
32.7893
 20
52.8956
 11
32.6289
 21
52.5547
  0
LINE
  8
0
 10
32.6289
 20
52.5547
 11
32.427
 21
52.2366
  0
LINE
  8
0
 10
32.427
 20
52.2366
 11
32.1869
 21
51.9464
  0
LINE
  8
0
 10
32.1869
 20
51.9464
 11
31.9123
 21
51.6885
  0
LINE
  8
0
 10
31.9123
 20
51.6885
 11
31.6075
 21
51.467
  0
LINE
  8
0
 10
31.6075
 20
51.467
 11
31.2773
 21
51.2855
  0
LINE
  8
0
 10
31.2773
 20
51.2855
 11
30.927
 21
51.1468
  0
LINE
  8
0
 10
30.927
 20
51.1468
 11
30.5621
 21
51.0531
  0
LINE
  8
0
 10
30.5621
 20
51.0531
 11
30.1884
 21
51.0059
  0
LINE
  8
0
 10
30.1884
 20
51.0059
 11
29.8116
 21
51.0059
  0
LINE
  8
0
 10
-30.1884
 20
51.0059
 11
-30.5621
 21
51.0531
  0
LINE
  8
0
 10
-30.5621
 20
51.0531
 11
-30.927
 21
51.1468
  0
LINE
  8
0
 10
-30.927
 20
51.1468
 11
-31.2773
 21
51.2855
  0
LINE
  8
0
 10
-31.2773
 20
51.2855
 11
-31.6075
 21
51.467
  0
LINE
  8
0
 10
-31.6075
 20
51.467
 11
-31.9123
 21
51.6885
  0
LINE
  8
0
 10
-31.9123
 20
51.6885
 11
-32.1869
 21
51.9464
  0
LINE
  8
0
 10
-32.1869
 20
51.9464
 11
-32.427
 21
52.2366
  0
LINE
  8
0
 10
-32.427
 20
52.2366
 11
-32.6289
 21
52.5547
  0
LINE
  8
0
 10
-32.6289
 20
52.5547
 11
-32.7893
 21
52.8956
  0
LINE
  8
0
 10
-32.7893
 20
52.8956
 11
-32.9057
 21
53.2539
  0
LINE
  8
0
 10
-32.9057
 20
53.2539
 11
-32.9763
 21
53.624
  0
LINE
  8
0
 10
-32.9763
 20
53.624
 11
-33
 21
54
  0
LINE
  8
0
 10
-33
 20
54
 11
-32.9763
 21
54.376
  0
LINE
  8
0
 10
-32.9763
 20
54.376
 11
-32.9057
 21
54.7461
  0
LINE
  8
0
 10
-32.9057
 20
54.7461
 11
-32.7893
 21
55.1044
  0
LINE
  8
0
 10
-32.7893
 20
55.1044
 11
-32.6289
 21
55.4453
  0
LINE
  8
0
 10
-32.6289
 20
55.4453
 11
-32.427
 21
55.7634
  0
LINE
  8
0
 10
-32.427
 20
55.7634
 11
-32.1869
 21
56.0536
  0
LINE
  8
0
 10
-32.1869
 20
56.0536
 11
-31.9123
 21
56.3116
  0
LINE
  8
0
 10
-31.9123
 20
56.3116
 11
-31.6075
 21
56.533
  0
LINE
  8
0
 10
-31.6075
 20
56.533
 11
-31.2773
 21
56.7145
  0
LINE
  8
0
 10
-31.2773
 20
56.7145
 11
-30.927
 21
56.8532
  0
LINE
  8
0
 10
-30.927
 20
56.8532
 11
-30.5621
 21
56.9469
  0
LINE
  8
0
 10
-30.5621
 20
56.9469
 11
-30.1884
 21
56.9941
  0
LINE
  8
0
 10
-30.1884
 20
56.9941
 11
-29.8116
 21
56.9941
  0
LINE
  8
0
 10
-29.8116
 20
56.9941
 11
-29.4379
 21
56.9469
  0
LINE
  8
0
 10
-29.4379
 20
56.9469
 11
-29.0729
 21
56.8532
  0
LINE
  8
0
 10
-29.0729
 20
56.8532
 11
-28.7227
 21
56.7145
  0
LINE
  8
0
 10
-28.7227
 20
56.7145
 11
-28.3925
 21
56.533
  0
LINE
  8
0
 10
-28.3925
 20
56.533
 11
-28.0877
 21
56.3116
  0
LINE
  8
0
 10
-28.0877
 20
56.3116
 11
-27.8131
 21
56.0536
  0
LINE
  8
0
 10
-27.8131
 20
56.0536
 11
-27.5729
 21
55.7634
  0
LINE
  8
0
 10
-27.5729
 20
55.7634
 11
-27.3711
 21
55.4453
  0
LINE
  8
0
 10
-27.3711
 20
55.4453
 11
-27.2107
 21
55.1044
  0
LINE
  8
0
 10
-27.2107
 20
55.1044
 11
-27.0942
 21
54.7461
  0
LINE
  8
0
 10
-27.0942
 20
54.7461
 11
-27.0237
 21
54.376
  0
LINE
  8
0
 10
-27.0237
 20
54.376
 11
-27
 21
54
  0
LINE
  8
0
 10
-27
 20
54
 11
-27.0237
 21
53.624
  0
LINE
  8
0
 10
-27.0237
 20
53.624
 11
-27.0942
 21
53.2539
  0
LINE
  8
0
 10
-27.0942
 20
53.2539
 11
-27.2107
 21
52.8956
  0
LINE
  8
0
 10
-27.2107
 20
52.8956
 11
-27.3711
 21
52.5547
  0
LINE
  8
0
 10
-27.3711
 20
52.5547
 11
-27.5729
 21
52.2366
  0
LINE
  8
0
 10
-27.5729
 20
52.2366
 11
-27.8131
 21
51.9464
  0
LINE
  8
0
 10
-27.8131
 20
51.9464
 11
-28.0877
 21
51.6885
  0
LINE
  8
0
 10
-28.0877
 20
51.6885
 11
-28.3925
 21
51.467
  0
LINE
  8
0
 10
-28.3925
 20
51.467
 11
-28.7227
 21
51.2855
  0
LINE
  8
0
 10
-28.7227
 20
51.2855
 11
-29.0729
 21
51.1468
  0
LINE
  8
0
 10
-29.0729
 20
51.1468
 11
-29.4379
 21
51.0531
  0
LINE
  8
0
 10
-29.4379
 20
51.0531
 11
-29.8116
 21
51.0059
  0
LINE
  8
0
 10
-29.8116
 20
51.0059
 11
-30.1884
 21
51.0059
  0
ENDSEC
  0
SECTION
  2
OBJECTS
  0
DICTIONARY
  0
ENDSEC
  0
EOF
