  0
SECTION
  2
BLOCKS
  0
ENDSEC
  0
SECTION
  2
ENTITIES
  0
LINE
  8
0
 10
70.4369
 20
-59.4114
 11
71.0451
 21
-59.2553
  0
LINE
  8
0
 10
71.0451
 20
-59.2553
 11
71.6289
 21
-59.0241
  0
LINE
  8
0
 10
71.6289
 20
-59.0241
 11
72.1791
 21
-58.7216
  0
LINE
  8
0
 10
72.1791
 20
-58.7216
 11
72.6871
 21
-58.3526
  0
LINE
  8
0
 10
72.6871
 20
-58.3526
 11
73.1448
 21
-57.9227
  0
LINE
  8
0
 10
73.1448
 20
-57.9227
 11
73.5451
 21
-57.4389
  0
LINE
  8
0
 10
73.5451
 20
-57.4389
 11
73.8815
 21
-56.9088
  0
LINE
  8
0
 10
73.8815
 20
-56.9088
 11
74.1489
 21
-56.3406
  0
LINE
  8
0
 10
74.1489
 20
-56.3406
 11
74.3429
 21
-55.7434
  0
LINE
  8
0
 10
74.3429
 20
-55.7434
 11
74.4606
 21
-55.1267
  0
LINE
  8
0
 10
74.4606
 20
-55.1267
 11
74.5
 21
-54.5
  0
LINE
  8
0
 10
74.5
 20
-54.5
 11
74.5
 21
54.5
  0
LINE
  8
0
 10
74.5
 20
54.5
 11
74.4606
 21
55.1267
  0
LINE
  8
0
 10
74.4606
 20
55.1267
 11
74.3429
 21
55.7434
  0
LINE
  8
0
 10
74.3429
 20
55.7434
 11
74.1489
 21
56.3406
  0
LINE
  8
0
 10
74.1489
 20
56.3406
 11
73.8815
 21
56.9088
  0
LINE
  8
0
 10
73.8815
 20
56.9088
 11
73.5451
 21
57.4389
  0
LINE
  8
0
 10
73.5451
 20
57.4389
 11
73.1448
 21
57.9227
  0
LINE
  8
0
 10
73.1448
 20
57.9227
 11
72.6871
 21
58.3526
  0
LINE
  8
0
 10
72.6871
 20
58.3526
 11
72.1791
 21
58.7216
  0
LINE
  8
0
 10
72.1791
 20
58.7216
 11
71.6289
 21
59.0241
  0
LINE
  8
0
 10
71.6289
 20
59.0241
 11
71.0451
 21
59.2553
  0
LINE
  8
0
 10
71.0451
 20
59.2553
 11
70.4369
 21
59.4114
  0
LINE
  8
0
 10
70.4369
 20
59.4114
 11
69.8139
 21
59.4901
  0
LINE
  8
0
 10
69.8139
 20
59.4901
 11
-69.8139
 21
59.4901
  0
LINE
  8
0
 10
-69.8139
 20
59.4901
 11
-70.4369
 21
59.4114
  0
LINE
  8
0
 10
-70.4369
 20
59.4114
 11
-71.0451
 21
59.2553
  0
LINE
  8
0
 10
-71.0451
 20
59.2553
 11
-71.6289
 21
59.0241
  0
LINE
  8
0
 10
-71.6289
 20
59.0241
 11
-72.1791
 21
58.7216
  0
LINE
  8
0
 10
-72.1791
 20
58.7216
 11
-72.6871
 21
58.3526
  0
LINE
  8
0
 10
-72.6871
 20
58.3526
 11
-73.1448
 21
57.9227
  0
LINE
  8
0
 10
-73.1448
 20
57.9227
 11
-73.5451
 21
57.4389
  0
LINE
  8
0
 10
-73.5451
 20
57.4389
 11
-73.8815
 21
56.9088
  0
LINE
  8
0
 10
-73.8815
 20
56.9088
 11
-74.1489
 21
56.3406
  0
LINE
  8
0
 10
-74.1489
 20
56.3406
 11
-74.3429
 21
55.7434
  0
LINE
  8
0
 10
-74.3429
 20
55.7434
 11
-74.4606
 21
55.1267
  0
LINE
  8
0
 10
-74.4606
 20
55.1267
 11
-74.5
 21
54.5
  0
LINE
  8
0
 10
-74.5
 20
54.5
 11
-74.5
 21
-54.5
  0
LINE
  8
0
 10
-74.5
 20
-54.5
 11
-74.4606
 21
-55.1267
  0
LINE
  8
0
 10
-74.4606
 20
-55.1267
 11
-74.3429
 21
-55.7434
  0
LINE
  8
0
 10
-74.3429
 20
-55.7434
 11
-74.1489
 21
-56.3406
  0
LINE
  8
0
 10
-74.1489
 20
-56.3406
 11
-73.8815
 21
-56.9088
  0
LINE
  8
0
 10
-73.8815
 20
-56.9088
 11
-73.5451
 21
-57.4389
  0
LINE
  8
0
 10
-73.5451
 20
-57.4389
 11
-73.1448
 21
-57.9227
  0
LINE
  8
0
 10
-73.1448
 20
-57.9227
 11
-72.6871
 21
-58.3526
  0
LINE
  8
0
 10
-72.6871
 20
-58.3526
 11
-72.1791
 21
-58.7216
  0
LINE
  8
0
 10
-72.1791
 20
-58.7216
 11
-71.6289
 21
-59.0241
  0
LINE
  8
0
 10
-71.6289
 20
-59.0241
 11
-71.0451
 21
-59.2553
  0
LINE
  8
0
 10
-71.0451
 20
-59.2553
 11
-70.4369
 21
-59.4114
  0
LINE
  8
0
 10
-70.4369
 20
-59.4114
 11
-69.8139
 21
-59.4901
  0
LINE
  8
0
 10
-69.8139
 20
-59.4901
 11
69.8139
 21
-59.4901
  0
LINE
  8
0
 10
69.8139
 20
-59.4901
 11
70.4369
 21
-59.4114
  0
LINE
  8
0
 10
-67.6884
 20
49.5059
 11
-68.0621
 21
49.5531
  0
LINE
  8
0
 10
-68.0621
 20
49.5531
 11
-68.427
 21
49.6468
  0
LINE
  8
0
 10
-68.427
 20
49.6468
 11
-68.7773
 21
49.7855
  0
LINE
  8
0
 10
-68.7773
 20
49.7855
 11
-69.1075
 21
49.967
  0
LINE
  8
0
 10
-69.1075
 20
49.967
 11
-69.4123
 21
50.1885
  0
LINE
  8
0
 10
-69.4123
 20
50.1885
 11
-69.6869
 21
50.4464
  0
LINE
  8
0
 10
-69.6869
 20
50.4464
 11
-69.927
 21
50.7366
  0
LINE
  8
0
 10
-69.927
 20
50.7366
 11
-70.1289
 21
51.0547
  0
LINE
  8
0
 10
-70.1289
 20
51.0547
 11
-70.2893
 21
51.3956
  0
LINE
  8
0
 10
-70.2893
 20
51.3956
 11
-70.4057
 21
51.7539
  0
LINE
  8
0
 10
-70.4057
 20
51.7539
 11
-70.4763
 21
52.124
  0
LINE
  8
0
 10
-70.4763
 20
52.124
 11
-70.5
 21
52.5
  0
LINE
  8
0
 10
-70.5
 20
52.5
 11
-70.4763
 21
52.876
  0
LINE
  8
0
 10
-70.4763
 20
52.876
 11
-70.4057
 21
53.2461
  0
LINE
  8
0
 10
-70.4057
 20
53.2461
 11
-70.2893
 21
53.6044
  0
LINE
  8
0
 10
-70.2893
 20
53.6044
 11
-70.1289
 21
53.9453
  0
LINE
  8
0
 10
-70.1289
 20
53.9453
 11
-69.927
 21
54.2634
  0
LINE
  8
0
 10
-69.927
 20
54.2634
 11
-69.6869
 21
54.5536
  0
LINE
  8
0
 10
-69.6869
 20
54.5536
 11
-69.4123
 21
54.8115
  0
LINE
  8
0
 10
-69.4123
 20
54.8115
 11
-69.1075
 21
55.033
  0
LINE
  8
0
 10
-69.1075
 20
55.033
 11
-68.7773
 21
55.2145
  0
LINE
  8
0
 10
-68.7773
 20
55.2145
 11
-68.427
 21
55.3532
  0
LINE
  8
0
 10
-68.427
 20
55.3532
 11
-68.0621
 21
55.4469
  0
LINE
  8
0
 10
-68.0621
 20
55.4469
 11
-67.6884
 21
55.4941
  0
LINE
  8
0
 10
-67.6884
 20
55.4941
 11
-67.3116
 21
55.4941
  0
LINE
  8
0
 10
-67.3116
 20
55.4941
 11
-66.9379
 21
55.4469
  0
LINE
  8
0
 10
-66.9379
 20
55.4469
 11
-66.573
 21
55.3532
  0
LINE
  8
0
 10
-66.573
 20
55.3532
 11
-66.2227
 21
55.2145
  0
LINE
  8
0
 10
-66.2227
 20
55.2145
 11
-65.8925
 21
55.033
  0
LINE
  8
0
 10
-65.8925
 20
55.033
 11
-65.5877
 21
54.8115
  0
LINE
  8
0
 10
-65.5877
 20
54.8115
 11
-65.3131
 21
54.5536
  0
LINE
  8
0
 10
-65.3131
 20
54.5536
 11
-65.073
 21
54.2634
  0
LINE
  8
0
 10
-65.073
 20
54.2634
 11
-64.8711
 21
53.9453
  0
LINE
  8
0
 10
-64.8711
 20
53.9453
 11
-64.7107
 21
53.6044
  0
LINE
  8
0
 10
-64.7107
 20
53.6044
 11
-64.5943
 21
53.2461
  0
LINE
  8
0
 10
-64.5943
 20
53.2461
 11
-64.5237
 21
52.876
  0
LINE
  8
0
 10
-64.5237
 20
52.876
 11
-64.5
 21
52.5
  0
LINE
  8
0
 10
-64.5
 20
52.5
 11
-64.5237
 21
52.124
  0
LINE
  8
0
 10
-64.5237
 20
52.124
 11
-64.5943
 21
51.7539
  0
LINE
  8
0
 10
-64.5943
 20
51.7539
 11
-64.7107
 21
51.3956
  0
LINE
  8
0
 10
-64.7107
 20
51.3956
 11
-64.8711
 21
51.0547
  0
LINE
  8
0
 10
-64.8711
 20
51.0547
 11
-65.073
 21
50.7366
  0
LINE
  8
0
 10
-65.073
 20
50.7366
 11
-65.3131
 21
50.4464
  0
LINE
  8
0
 10
-65.3131
 20
50.4464
 11
-65.5877
 21
50.1885
  0
LINE
  8
0
 10
-65.5877
 20
50.1885
 11
-65.8925
 21
49.967
  0
LINE
  8
0
 10
-65.8925
 20
49.967
 11
-66.2227
 21
49.7855
  0
LINE
  8
0
 10
-66.2227
 20
49.7855
 11
-66.573
 21
49.6468
  0
LINE
  8
0
 10
-66.573
 20
49.6468
 11
-66.9379
 21
49.5531
  0
LINE
  8
0
 10
-66.9379
 20
49.5531
 11
-67.3116
 21
49.5059
  0
LINE
  8
0
 10
-67.3116
 20
49.5059
 11
-67.6884
 21
49.5059
  0
LINE
  8
0
 10
67.3116
 20
49.5059
 11
66.9379
 21
49.5531
  0
LINE
  8
0
 10
66.9379
 20
49.5531
 11
66.573
 21
49.6468
  0
LINE
  8
0
 10
66.573
 20
49.6468
 11
66.2227
 21
49.7855
  0
LINE
  8
0
 10
66.2227
 20
49.7855
 11
65.8925
 21
49.967
  0
LINE
  8
0
 10
65.8925
 20
49.967
 11
65.5877
 21
50.1885
  0
LINE
  8
0
 10
65.5877
 20
50.1885
 11
65.3131
 21
50.4464
  0
LINE
  8
0
 10
65.3131
 20
50.4464
 11
65.073
 21
50.7366
  0
LINE
  8
0
 10
65.073
 20
50.7366
 11
64.8711
 21
51.0547
  0
LINE
  8
0
 10
64.8711
 20
51.0547
 11
64.7107
 21
51.3956
  0
LINE
  8
0
 10
64.7107
 20
51.3956
 11
64.5943
 21
51.7539
  0
LINE
  8
0
 10
64.5943
 20
51.7539
 11
64.5237
 21
52.124
  0
LINE
  8
0
 10
64.5237
 20
52.124
 11
64.5
 21
52.5
  0
LINE
  8
0
 10
64.5
 20
52.5
 11
64.5237
 21
52.876
  0
LINE
  8
0
 10
64.5237
 20
52.876
 11
64.5943
 21
53.2461
  0
LINE
  8
0
 10
64.5943
 20
53.2461
 11
64.7107
 21
53.6044
  0
LINE
  8
0
 10
64.7107
 20
53.6044
 11
64.8711
 21
53.9453
  0
LINE
  8
0
 10
64.8711
 20
53.9453
 11
65.073
 21
54.2634
  0
LINE
  8
0
 10
65.073
 20
54.2634
 11
65.3131
 21
54.5536
  0
LINE
  8
0
 10
65.3131
 20
54.5536
 11
65.5877
 21
54.8115
  0
LINE
  8
0
 10
65.5877
 20
54.8115
 11
65.8925
 21
55.033
  0
LINE
  8
0
 10
65.8925
 20
55.033
 11
66.2227
 21
55.2145
  0
LINE
  8
0
 10
66.2227
 20
55.2145
 11
66.573
 21
55.3532
  0
LINE
  8
0
 10
66.573
 20
55.3532
 11
66.9379
 21
55.4469
  0
LINE
  8
0
 10
66.9379
 20
55.4469
 11
67.3116
 21
55.4941
  0
LINE
  8
0
 10
67.3116
 20
55.4941
 11
67.6884
 21
55.4941
  0
LINE
  8
0
 10
67.6884
 20
55.4941
 11
68.0621
 21
55.4469
  0
LINE
  8
0
 10
68.0621
 20
55.4469
 11
68.427
 21
55.3532
  0
LINE
  8
0
 10
68.427
 20
55.3532
 11
68.7773
 21
55.2145
  0
LINE
  8
0
 10
68.7773
 20
55.2145
 11
69.1075
 21
55.033
  0
LINE
  8
0
 10
69.1075
 20
55.033
 11
69.4123
 21
54.8115
  0
LINE
  8
0
 10
69.4123
 20
54.8115
 11
69.6869
 21
54.5536
  0
LINE
  8
0
 10
69.6869
 20
54.5536
 11
69.927
 21
54.2634
  0
LINE
  8
0
 10
69.927
 20
54.2634
 11
70.1289
 21
53.9453
  0
LINE
  8
0
 10
70.1289
 20
53.9453
 11
70.2893
 21
53.6044
  0
LINE
  8
0
 10
70.2893
 20
53.6044
 11
70.4057
 21
53.2461
  0
LINE
  8
0
 10
70.4057
 20
53.2461
 11
70.4763
 21
52.876
  0
LINE
  8
0
 10
70.4763
 20
52.876
 11
70.5
 21
52.5
  0
LINE
  8
0
 10
70.5
 20
52.5
 11
70.4763
 21
52.124
  0
LINE
  8
0
 10
70.4763
 20
52.124
 11
70.4057
 21
51.7539
  0
LINE
  8
0
 10
70.4057
 20
51.7539
 11
70.2893
 21
51.3956
  0
LINE
  8
0
 10
70.2893
 20
51.3956
 11
70.1289
 21
51.0547
  0
LINE
  8
0
 10
70.1289
 20
51.0547
 11
69.927
 21
50.7366
  0
LINE
  8
0
 10
69.927
 20
50.7366
 11
69.6869
 21
50.4464
  0
LINE
  8
0
 10
69.6869
 20
50.4464
 11
69.4123
 21
50.1885
  0
LINE
  8
0
 10
69.4123
 20
50.1885
 11
69.1075
 21
49.967
  0
LINE
  8
0
 10
69.1075
 20
49.967
 11
68.7773
 21
49.7855
  0
LINE
  8
0
 10
68.7773
 20
49.7855
 11
68.427
 21
49.6468
  0
LINE
  8
0
 10
68.427
 20
49.6468
 11
68.0621
 21
49.5531
  0
LINE
  8
0
 10
68.0621
 20
49.5531
 11
67.6884
 21
49.5059
  0
LINE
  8
0
 10
67.6884
 20
49.5059
 11
67.3116
 21
49.5059
  0
LINE
  8
0
 10
67.3116
 20
-55.4941
 11
66.9379
 21
-55.4469
  0
LINE
  8
0
 10
66.9379
 20
-55.4469
 11
66.573
 21
-55.3532
  0
LINE
  8
0
 10
66.573
 20
-55.3532
 11
66.2227
 21
-55.2145
  0
LINE
  8
0
 10
66.2227
 20
-55.2145
 11
65.8925
 21
-55.033
  0
LINE
  8
0
 10
65.8925
 20
-55.033
 11
65.5877
 21
-54.8115
  0
LINE
  8
0
 10
65.5877
 20
-54.8115
 11
65.3131
 21
-54.5536
  0
LINE
  8
0
 10
65.3131
 20
-54.5536
 11
65.073
 21
-54.2634
  0
LINE
  8
0
 10
65.073
 20
-54.2634
 11
64.8711
 21
-53.9453
  0
LINE
  8
0
 10
64.8711
 20
-53.9453
 11
64.7107
 21
-53.6044
  0
LINE
  8
0
 10
64.7107
 20
-53.6044
 11
64.5943
 21
-53.2461
  0
LINE
  8
0
 10
64.5943
 20
-53.2461
 11
64.5237
 21
-52.876
  0
LINE
  8
0
 10
64.5237
 20
-52.876
 11
64.5
 21
-52.5
  0
LINE
  8
0
 10
64.5
 20
-52.5
 11
64.5237
 21
-52.124
  0
LINE
  8
0
 10
64.5237
 20
-52.124
 11
64.5943
 21
-51.7539
  0
LINE
  8
0
 10
64.5943
 20
-51.7539
 11
64.7107
 21
-51.3956
  0
LINE
  8
0
 10
64.7107
 20
-51.3956
 11
64.8711
 21
-51.0547
  0
LINE
  8
0
 10
64.8711
 20
-51.0547
 11
65.073
 21
-50.7366
  0
LINE
  8
0
 10
65.073
 20
-50.7366
 11
65.3131
 21
-50.4464
  0
LINE
  8
0
 10
65.3131
 20
-50.4464
 11
65.5877
 21
-50.1885
  0
LINE
  8
0
 10
65.5877
 20
-50.1885
 11
65.8925
 21
-49.967
  0
LINE
  8
0
 10
65.8925
 20
-49.967
 11
66.2227
 21
-49.7855
  0
LINE
  8
0
 10
66.2227
 20
-49.7855
 11
66.573
 21
-49.6468
  0
LINE
  8
0
 10
66.573
 20
-49.6468
 11
66.9379
 21
-49.5531
  0
LINE
  8
0
 10
66.9379
 20
-49.5531
 11
67.3116
 21
-49.5059
  0
LINE
  8
0
 10
67.3116
 20
-49.5059
 11
67.6884
 21
-49.5059
  0
LINE
  8
0
 10
67.6884
 20
-49.5059
 11
68.0621
 21
-49.5531
  0
LINE
  8
0
 10
68.0621
 20
-49.5531
 11
68.427
 21
-49.6468
  0
LINE
  8
0
 10
68.427
 20
-49.6468
 11
68.7773
 21
-49.7855
  0
LINE
  8
0
 10
68.7773
 20
-49.7855
 11
69.1075
 21
-49.967
  0
LINE
  8
0
 10
69.1075
 20
-49.967
 11
69.4123
 21
-50.1885
  0
LINE
  8
0
 10
69.4123
 20
-50.1885
 11
69.6869
 21
-50.4464
  0
LINE
  8
0
 10
69.6869
 20
-50.4464
 11
69.927
 21
-50.7366
  0
LINE
  8
0
 10
69.927
 20
-50.7366
 11
70.1289
 21
-51.0547
  0
LINE
  8
0
 10
70.1289
 20
-51.0547
 11
70.2893
 21
-51.3956
  0
LINE
  8
0
 10
70.2893
 20
-51.3956
 11
70.4057
 21
-51.7539
  0
LINE
  8
0
 10
70.4057
 20
-51.7539
 11
70.4763
 21
-52.124
  0
LINE
  8
0
 10
70.4763
 20
-52.124
 11
70.5
 21
-52.5
  0
LINE
  8
0
 10
70.5
 20
-52.5
 11
70.4763
 21
-52.876
  0
LINE
  8
0
 10
70.4763
 20
-52.876
 11
70.4057
 21
-53.2461
  0
LINE
  8
0
 10
70.4057
 20
-53.2461
 11
70.2893
 21
-53.6044
  0
LINE
  8
0
 10
70.2893
 20
-53.6044
 11
70.1289
 21
-53.9453
  0
LINE
  8
0
 10
70.1289
 20
-53.9453
 11
69.927
 21
-54.2634
  0
LINE
  8
0
 10
69.927
 20
-54.2634
 11
69.6869
 21
-54.5536
  0
LINE
  8
0
 10
69.6869
 20
-54.5536
 11
69.4123
 21
-54.8115
  0
LINE
  8
0
 10
69.4123
 20
-54.8115
 11
69.1075
 21
-55.033
  0
LINE
  8
0
 10
69.1075
 20
-55.033
 11
68.7773
 21
-55.2145
  0
LINE
  8
0
 10
68.7773
 20
-55.2145
 11
68.427
 21
-55.3532
  0
LINE
  8
0
 10
68.427
 20
-55.3532
 11
68.0621
 21
-55.4469
  0
LINE
  8
0
 10
68.0621
 20
-55.4469
 11
67.6884
 21
-55.4941
  0
LINE
  8
0
 10
67.6884
 20
-55.4941
 11
67.3116
 21
-55.4941
  0
LINE
  8
0
 10
-67.6884
 20
-55.4941
 11
-68.0621
 21
-55.4469
  0
LINE
  8
0
 10
-68.0621
 20
-55.4469
 11
-68.427
 21
-55.3532
  0
LINE
  8
0
 10
-68.427
 20
-55.3532
 11
-68.7773
 21
-55.2145
  0
LINE
  8
0
 10
-68.7773
 20
-55.2145
 11
-69.1075
 21
-55.033
  0
LINE
  8
0
 10
-69.1075
 20
-55.033
 11
-69.4123
 21
-54.8115
  0
LINE
  8
0
 10
-69.4123
 20
-54.8115
 11
-69.6869
 21
-54.5536
  0
LINE
  8
0
 10
-69.6869
 20
-54.5536
 11
-69.927
 21
-54.2634
  0
LINE
  8
0
 10
-69.927
 20
-54.2634
 11
-70.1289
 21
-53.9453
  0
LINE
  8
0
 10
-70.1289
 20
-53.9453
 11
-70.2893
 21
-53.6044
  0
LINE
  8
0
 10
-70.2893
 20
-53.6044
 11
-70.4057
 21
-53.2461
  0
LINE
  8
0
 10
-70.4057
 20
-53.2461
 11
-70.4763
 21
-52.876
  0
LINE
  8
0
 10
-70.4763
 20
-52.876
 11
-70.5
 21
-52.5
  0
LINE
  8
0
 10
-70.5
 20
-52.5
 11
-70.4763
 21
-52.124
  0
LINE
  8
0
 10
-70.4763
 20
-52.124
 11
-70.4057
 21
-51.7539
  0
LINE
  8
0
 10
-70.4057
 20
-51.7539
 11
-70.2893
 21
-51.3956
  0
LINE
  8
0
 10
-70.2893
 20
-51.3956
 11
-70.1289
 21
-51.0547
  0
LINE
  8
0
 10
-70.1289
 20
-51.0547
 11
-69.927
 21
-50.7366
  0
LINE
  8
0
 10
-69.927
 20
-50.7366
 11
-69.6869
 21
-50.4464
  0
LINE
  8
0
 10
-69.6869
 20
-50.4464
 11
-69.4123
 21
-50.1885
  0
LINE
  8
0
 10
-69.4123
 20
-50.1885
 11
-69.1075
 21
-49.967
  0
LINE
  8
0
 10
-69.1075
 20
-49.967
 11
-68.7773
 21
-49.7855
  0
LINE
  8
0
 10
-68.7773
 20
-49.7855
 11
-68.427
 21
-49.6468
  0
LINE
  8
0
 10
-68.427
 20
-49.6468
 11
-68.0621
 21
-49.5531
  0
LINE
  8
0
 10
-68.0621
 20
-49.5531
 11
-67.6884
 21
-49.5059
  0
LINE
  8
0
 10
-67.6884
 20
-49.5059
 11
-67.3116
 21
-49.5059
  0
LINE
  8
0
 10
-67.3116
 20
-49.5059
 11
-66.9379
 21
-49.5531
  0
LINE
  8
0
 10
-66.9379
 20
-49.5531
 11
-66.573
 21
-49.6468
  0
LINE
  8
0
 10
-66.573
 20
-49.6468
 11
-66.2227
 21
-49.7855
  0
LINE
  8
0
 10
-66.2227
 20
-49.7855
 11
-65.8925
 21
-49.967
  0
LINE
  8
0
 10
-65.8925
 20
-49.967
 11
-65.5877
 21
-50.1885
  0
LINE
  8
0
 10
-65.5877
 20
-50.1885
 11
-65.3131
 21
-50.4464
  0
LINE
  8
0
 10
-65.3131
 20
-50.4464
 11
-65.073
 21
-50.7366
  0
LINE
  8
0
 10
-65.073
 20
-50.7366
 11
-64.8711
 21
-51.0547
  0
LINE
  8
0
 10
-64.8711
 20
-51.0547
 11
-64.7107
 21
-51.3956
  0
LINE
  8
0
 10
-64.7107
 20
-51.3956
 11
-64.5943
 21
-51.7539
  0
LINE
  8
0
 10
-64.5943
 20
-51.7539
 11
-64.5237
 21
-52.124
  0
LINE
  8
0
 10
-64.5237
 20
-52.124
 11
-64.5
 21
-52.5
  0
LINE
  8
0
 10
-64.5
 20
-52.5
 11
-64.5237
 21
-52.876
  0
LINE
  8
0
 10
-64.5237
 20
-52.876
 11
-64.5943
 21
-53.2461
  0
LINE
  8
0
 10
-64.5943
 20
-53.2461
 11
-64.7107
 21
-53.6044
  0
LINE
  8
0
 10
-64.7107
 20
-53.6044
 11
-64.8711
 21
-53.9453
  0
LINE
  8
0
 10
-64.8711
 20
-53.9453
 11
-65.073
 21
-54.2634
  0
LINE
  8
0
 10
-65.073
 20
-54.2634
 11
-65.3131
 21
-54.5536
  0
LINE
  8
0
 10
-65.3131
 20
-54.5536
 11
-65.5877
 21
-54.8115
  0
LINE
  8
0
 10
-65.5877
 20
-54.8115
 11
-65.8925
 21
-55.033
  0
LINE
  8
0
 10
-65.8925
 20
-55.033
 11
-66.2227
 21
-55.2145
  0
LINE
  8
0
 10
-66.2227
 20
-55.2145
 11
-66.573
 21
-55.3532
  0
LINE
  8
0
 10
-66.573
 20
-55.3532
 11
-66.9379
 21
-55.4469
  0
LINE
  8
0
 10
-66.9379
 20
-55.4469
 11
-67.3116
 21
-55.4941
  0
LINE
  8
0
 10
-67.3116
 20
-55.4941
 11
-67.6884
 21
-55.4941
  0
ENDSEC
  0
SECTION
  2
OBJECTS
  0
DICTIONARY
  0
ENDSEC
  0
EOF
