  0
SECTION
  2
BLOCKS
  0
ENDSEC
  0
SECTION
  2
ENTITIES
  0
LINE
  8
0
 10
107.937
 20
-74.4114
 11
108.545
 21
-74.2553
  0
LINE
  8
0
 10
108.545
 20
-74.2553
 11
109.129
 21
-74.0241
  0
LINE
  8
0
 10
109.129
 20
-74.0241
 11
109.679
 21
-73.7216
  0
LINE
  8
0
 10
109.679
 20
-73.7216
 11
110.187
 21
-73.3526
  0
LINE
  8
0
 10
110.187
 20
-73.3526
 11
110.645
 21
-72.9227
  0
LINE
  8
0
 10
110.645
 20
-72.9227
 11
111.045
 21
-72.4389
  0
LINE
  8
0
 10
111.045
 20
-72.4389
 11
111.382
 21
-71.9088
  0
LINE
  8
0
 10
111.382
 20
-71.9088
 11
111.649
 21
-71.3406
  0
LINE
  8
0
 10
111.649
 20
-71.3406
 11
111.843
 21
-70.7434
  0
LINE
  8
0
 10
111.843
 20
-70.7434
 11
111.961
 21
-70.1267
  0
LINE
  8
0
 10
111.961
 20
-70.1267
 11
112
 21
-69.5
  0
LINE
  8
0
 10
112
 20
-69.5
 11
112
 21
69.5
  0
LINE
  8
0
 10
112
 20
69.5
 11
111.961
 21
70.1267
  0
LINE
  8
0
 10
111.961
 20
70.1267
 11
111.843
 21
70.7434
  0
LINE
  8
0
 10
111.843
 20
70.7434
 11
111.649
 21
71.3406
  0
LINE
  8
0
 10
111.649
 20
71.3406
 11
111.382
 21
71.9088
  0
LINE
  8
0
 10
111.382
 20
71.9088
 11
111.045
 21
72.4389
  0
LINE
  8
0
 10
111.045
 20
72.4389
 11
110.645
 21
72.9227
  0
LINE
  8
0
 10
110.645
 20
72.9227
 11
110.187
 21
73.3526
  0
LINE
  8
0
 10
110.187
 20
73.3526
 11
109.679
 21
73.7216
  0
LINE
  8
0
 10
109.679
 20
73.7216
 11
109.129
 21
74.0241
  0
LINE
  8
0
 10
109.129
 20
74.0241
 11
108.545
 21
74.2553
  0
LINE
  8
0
 10
108.545
 20
74.2553
 11
107.937
 21
74.4114
  0
LINE
  8
0
 10
107.937
 20
74.4114
 11
107.314
 21
74.4901
  0
LINE
  8
0
 10
107.314
 20
74.4901
 11
-107.314
 21
74.4901
  0
LINE
  8
0
 10
-107.314
 20
74.4901
 11
-107.937
 21
74.4114
  0
LINE
  8
0
 10
-107.937
 20
74.4114
 11
-108.545
 21
74.2553
  0
LINE
  8
0
 10
-108.545
 20
74.2553
 11
-109.129
 21
74.0241
  0
LINE
  8
0
 10
-109.129
 20
74.0241
 11
-109.679
 21
73.7216
  0
LINE
  8
0
 10
-109.679
 20
73.7216
 11
-110.187
 21
73.3526
  0
LINE
  8
0
 10
-110.187
 20
73.3526
 11
-110.645
 21
72.9227
  0
LINE
  8
0
 10
-110.645
 20
72.9227
 11
-111.045
 21
72.4389
  0
LINE
  8
0
 10
-111.045
 20
72.4389
 11
-111.382
 21
71.9088
  0
LINE
  8
0
 10
-111.382
 20
71.9088
 11
-111.649
 21
71.3406
  0
LINE
  8
0
 10
-111.649
 20
71.3406
 11
-111.843
 21
70.7434
  0
LINE
  8
0
 10
-111.843
 20
70.7434
 11
-111.961
 21
70.1267
  0
LINE
  8
0
 10
-111.961
 20
70.1267
 11
-112
 21
69.5
  0
LINE
  8
0
 10
-112
 20
69.5
 11
-112
 21
-69.5
  0
LINE
  8
0
 10
-112
 20
-69.5
 11
-111.961
 21
-70.1267
  0
LINE
  8
0
 10
-111.961
 20
-70.1267
 11
-111.843
 21
-70.7434
  0
LINE
  8
0
 10
-111.843
 20
-70.7434
 11
-111.649
 21
-71.3406
  0
LINE
  8
0
 10
-111.649
 20
-71.3406
 11
-111.382
 21
-71.9088
  0
LINE
  8
0
 10
-111.382
 20
-71.9088
 11
-111.045
 21
-72.4389
  0
LINE
  8
0
 10
-111.045
 20
-72.4389
 11
-110.645
 21
-72.9227
  0
LINE
  8
0
 10
-110.645
 20
-72.9227
 11
-110.187
 21
-73.3526
  0
LINE
  8
0
 10
-110.187
 20
-73.3526
 11
-109.679
 21
-73.7216
  0
LINE
  8
0
 10
-109.679
 20
-73.7216
 11
-109.129
 21
-74.0241
  0
LINE
  8
0
 10
-109.129
 20
-74.0241
 11
-108.545
 21
-74.2553
  0
LINE
  8
0
 10
-108.545
 20
-74.2553
 11
-107.937
 21
-74.4114
  0
LINE
  8
0
 10
-107.937
 20
-74.4114
 11
-107.314
 21
-74.4901
  0
LINE
  8
0
 10
-107.314
 20
-74.4901
 11
107.314
 21
-74.4901
  0
LINE
  8
0
 10
107.314
 20
-74.4901
 11
107.937
 21
-74.4114
  0
LINE
  8
0
 10
104.812
 20
64.5059
 11
104.438
 21
64.5531
  0
LINE
  8
0
 10
104.438
 20
64.5531
 11
104.073
 21
64.6468
  0
LINE
  8
0
 10
104.073
 20
64.6468
 11
103.723
 21
64.7855
  0
LINE
  8
0
 10
103.723
 20
64.7855
 11
103.393
 21
64.967
  0
LINE
  8
0
 10
103.393
 20
64.967
 11
103.088
 21
65.1885
  0
LINE
  8
0
 10
103.088
 20
65.1885
 11
102.813
 21
65.4464
  0
LINE
  8
0
 10
102.813
 20
65.4464
 11
102.573
 21
65.7366
  0
LINE
  8
0
 10
102.573
 20
65.7366
 11
102.371
 21
66.0547
  0
LINE
  8
0
 10
102.371
 20
66.0547
 11
102.211
 21
66.3956
  0
LINE
  8
0
 10
102.211
 20
66.3956
 11
102.094
 21
66.7539
  0
LINE
  8
0
 10
102.094
 20
66.7539
 11
102.024
 21
67.124
  0
LINE
  8
0
 10
102.024
 20
67.124
 11
102
 21
67.5
  0
LINE
  8
0
 10
102
 20
67.5
 11
102.024
 21
67.876
  0
LINE
  8
0
 10
102.024
 20
67.876
 11
102.094
 21
68.2461
  0
LINE
  8
0
 10
102.094
 20
68.2461
 11
102.211
 21
68.6044
  0
LINE
  8
0
 10
102.211
 20
68.6044
 11
102.371
 21
68.9453
  0
LINE
  8
0
 10
102.371
 20
68.9453
 11
102.573
 21
69.2634
  0
LINE
  8
0
 10
102.573
 20
69.2634
 11
102.813
 21
69.5536
  0
LINE
  8
0
 10
102.813
 20
69.5536
 11
103.088
 21
69.8115
  0
LINE
  8
0
 10
103.088
 20
69.8115
 11
103.393
 21
70.033
  0
LINE
  8
0
 10
103.393
 20
70.033
 11
103.723
 21
70.2145
  0
LINE
  8
0
 10
103.723
 20
70.2145
 11
104.073
 21
70.3532
  0
LINE
  8
0
 10
104.073
 20
70.3532
 11
104.438
 21
70.4469
  0
LINE
  8
0
 10
104.438
 20
70.4469
 11
104.812
 21
70.4941
  0
LINE
  8
0
 10
104.812
 20
70.4941
 11
105.188
 21
70.4941
  0
LINE
  8
0
 10
105.188
 20
70.4941
 11
105.562
 21
70.4469
  0
LINE
  8
0
 10
105.562
 20
70.4469
 11
105.927
 21
70.3532
  0
LINE
  8
0
 10
105.927
 20
70.3532
 11
106.277
 21
70.2145
  0
LINE
  8
0
 10
106.277
 20
70.2145
 11
106.607
 21
70.033
  0
LINE
  8
0
 10
106.607
 20
70.033
 11
106.912
 21
69.8115
  0
LINE
  8
0
 10
106.912
 20
69.8115
 11
107.187
 21
69.5536
  0
LINE
  8
0
 10
107.187
 20
69.5536
 11
107.427
 21
69.2634
  0
LINE
  8
0
 10
107.427
 20
69.2634
 11
107.629
 21
68.9453
  0
LINE
  8
0
 10
107.629
 20
68.9453
 11
107.789
 21
68.6044
  0
LINE
  8
0
 10
107.789
 20
68.6044
 11
107.906
 21
68.2461
  0
LINE
  8
0
 10
107.906
 20
68.2461
 11
107.976
 21
67.876
  0
LINE
  8
0
 10
107.976
 20
67.876
 11
108
 21
67.5
  0
LINE
  8
0
 10
108
 20
67.5
 11
107.976
 21
67.124
  0
LINE
  8
0
 10
107.976
 20
67.124
 11
107.906
 21
66.7539
  0
LINE
  8
0
 10
107.906
 20
66.7539
 11
107.789
 21
66.3956
  0
LINE
  8
0
 10
107.789
 20
66.3956
 11
107.629
 21
66.0547
  0
LINE
  8
0
 10
107.629
 20
66.0547
 11
107.427
 21
65.7366
  0
LINE
  8
0
 10
107.427
 20
65.7366
 11
107.187
 21
65.4464
  0
LINE
  8
0
 10
107.187
 20
65.4464
 11
106.912
 21
65.1885
  0
LINE
  8
0
 10
106.912
 20
65.1885
 11
106.607
 21
64.967
  0
LINE
  8
0
 10
106.607
 20
64.967
 11
106.277
 21
64.7855
  0
LINE
  8
0
 10
106.277
 20
64.7855
 11
105.927
 21
64.6468
  0
LINE
  8
0
 10
105.927
 20
64.6468
 11
105.562
 21
64.5531
  0
LINE
  8
0
 10
105.562
 20
64.5531
 11
105.188
 21
64.5059
  0
LINE
  8
0
 10
105.188
 20
64.5059
 11
104.812
 21
64.5059
  0
LINE
  8
0
 10
-105.188
 20
64.5059
 11
-105.562
 21
64.5531
  0
LINE
  8
0
 10
-105.562
 20
64.5531
 11
-105.927
 21
64.6468
  0
LINE
  8
0
 10
-105.927
 20
64.6468
 11
-106.277
 21
64.7855
  0
LINE
  8
0
 10
-106.277
 20
64.7855
 11
-106.607
 21
64.967
  0
LINE
  8
0
 10
-106.607
 20
64.967
 11
-106.912
 21
65.1885
  0
LINE
  8
0
 10
-106.912
 20
65.1885
 11
-107.187
 21
65.4464
  0
LINE
  8
0
 10
-107.187
 20
65.4464
 11
-107.427
 21
65.7366
  0
LINE
  8
0
 10
-107.427
 20
65.7366
 11
-107.629
 21
66.0547
  0
LINE
  8
0
 10
-107.629
 20
66.0547
 11
-107.789
 21
66.3956
  0
LINE
  8
0
 10
-107.789
 20
66.3956
 11
-107.906
 21
66.7539
  0
LINE
  8
0
 10
-107.906
 20
66.7539
 11
-107.976
 21
67.124
  0
LINE
  8
0
 10
-107.976
 20
67.124
 11
-108
 21
67.5
  0
LINE
  8
0
 10
-108
 20
67.5
 11
-107.976
 21
67.876
  0
LINE
  8
0
 10
-107.976
 20
67.876
 11
-107.906
 21
68.2461
  0
LINE
  8
0
 10
-107.906
 20
68.2461
 11
-107.789
 21
68.6044
  0
LINE
  8
0
 10
-107.789
 20
68.6044
 11
-107.629
 21
68.9453
  0
LINE
  8
0
 10
-107.629
 20
68.9453
 11
-107.427
 21
69.2634
  0
LINE
  8
0
 10
-107.427
 20
69.2634
 11
-107.187
 21
69.5536
  0
LINE
  8
0
 10
-107.187
 20
69.5536
 11
-106.912
 21
69.8115
  0
LINE
  8
0
 10
-106.912
 20
69.8115
 11
-106.607
 21
70.033
  0
LINE
  8
0
 10
-106.607
 20
70.033
 11
-106.277
 21
70.2145
  0
LINE
  8
0
 10
-106.277
 20
70.2145
 11
-105.927
 21
70.3532
  0
LINE
  8
0
 10
-105.927
 20
70.3532
 11
-105.562
 21
70.4469
  0
LINE
  8
0
 10
-105.562
 20
70.4469
 11
-105.188
 21
70.4941
  0
LINE
  8
0
 10
-105.188
 20
70.4941
 11
-104.812
 21
70.4941
  0
LINE
  8
0
 10
-104.812
 20
70.4941
 11
-104.438
 21
70.4469
  0
LINE
  8
0
 10
-104.438
 20
70.4469
 11
-104.073
 21
70.3532
  0
LINE
  8
0
 10
-104.073
 20
70.3532
 11
-103.723
 21
70.2145
  0
LINE
  8
0
 10
-103.723
 20
70.2145
 11
-103.393
 21
70.033
  0
LINE
  8
0
 10
-103.393
 20
70.033
 11
-103.088
 21
69.8115
  0
LINE
  8
0
 10
-103.088
 20
69.8115
 11
-102.813
 21
69.5536
  0
LINE
  8
0
 10
-102.813
 20
69.5536
 11
-102.573
 21
69.2634
  0
LINE
  8
0
 10
-102.573
 20
69.2634
 11
-102.371
 21
68.9453
  0
LINE
  8
0
 10
-102.371
 20
68.9453
 11
-102.211
 21
68.6044
  0
LINE
  8
0
 10
-102.211
 20
68.6044
 11
-102.094
 21
68.2461
  0
LINE
  8
0
 10
-102.094
 20
68.2461
 11
-102.024
 21
67.876
  0
LINE
  8
0
 10
-102.024
 20
67.876
 11
-102
 21
67.5
  0
LINE
  8
0
 10
-102
 20
67.5
 11
-102.024
 21
67.124
  0
LINE
  8
0
 10
-102.024
 20
67.124
 11
-102.094
 21
66.7539
  0
LINE
  8
0
 10
-102.094
 20
66.7539
 11
-102.211
 21
66.3956
  0
LINE
  8
0
 10
-102.211
 20
66.3956
 11
-102.371
 21
66.0547
  0
LINE
  8
0
 10
-102.371
 20
66.0547
 11
-102.573
 21
65.7366
  0
LINE
  8
0
 10
-102.573
 20
65.7366
 11
-102.813
 21
65.4464
  0
LINE
  8
0
 10
-102.813
 20
65.4464
 11
-103.088
 21
65.1885
  0
LINE
  8
0
 10
-103.088
 20
65.1885
 11
-103.393
 21
64.967
  0
LINE
  8
0
 10
-103.393
 20
64.967
 11
-103.723
 21
64.7855
  0
LINE
  8
0
 10
-103.723
 20
64.7855
 11
-104.073
 21
64.6468
  0
LINE
  8
0
 10
-104.073
 20
64.6468
 11
-104.438
 21
64.5531
  0
LINE
  8
0
 10
-104.438
 20
64.5531
 11
-104.812
 21
64.5059
  0
LINE
  8
0
 10
-104.812
 20
64.5059
 11
-105.188
 21
64.5059
  0
LINE
  8
0
 10
104.812
 20
-70.4941
 11
104.438
 21
-70.4469
  0
LINE
  8
0
 10
104.438
 20
-70.4469
 11
104.073
 21
-70.3532
  0
LINE
  8
0
 10
104.073
 20
-70.3532
 11
103.723
 21
-70.2145
  0
LINE
  8
0
 10
103.723
 20
-70.2145
 11
103.393
 21
-70.033
  0
LINE
  8
0
 10
103.393
 20
-70.033
 11
103.088
 21
-69.8115
  0
LINE
  8
0
 10
103.088
 20
-69.8115
 11
102.813
 21
-69.5536
  0
LINE
  8
0
 10
102.813
 20
-69.5536
 11
102.573
 21
-69.2634
  0
LINE
  8
0
 10
102.573
 20
-69.2634
 11
102.371
 21
-68.9453
  0
LINE
  8
0
 10
102.371
 20
-68.9453
 11
102.211
 21
-68.6044
  0
LINE
  8
0
 10
102.211
 20
-68.6044
 11
102.094
 21
-68.2461
  0
LINE
  8
0
 10
102.094
 20
-68.2461
 11
102.024
 21
-67.876
  0
LINE
  8
0
 10
102.024
 20
-67.876
 11
102
 21
-67.5
  0
LINE
  8
0
 10
102
 20
-67.5
 11
102.024
 21
-67.124
  0
LINE
  8
0
 10
102.024
 20
-67.124
 11
102.094
 21
-66.7539
  0
LINE
  8
0
 10
102.094
 20
-66.7539
 11
102.211
 21
-66.3956
  0
LINE
  8
0
 10
102.211
 20
-66.3956
 11
102.371
 21
-66.0547
  0
LINE
  8
0
 10
102.371
 20
-66.0547
 11
102.573
 21
-65.7366
  0
LINE
  8
0
 10
102.573
 20
-65.7366
 11
102.813
 21
-65.4464
  0
LINE
  8
0
 10
102.813
 20
-65.4464
 11
103.088
 21
-65.1885
  0
LINE
  8
0
 10
103.088
 20
-65.1885
 11
103.393
 21
-64.967
  0
LINE
  8
0
 10
103.393
 20
-64.967
 11
103.723
 21
-64.7855
  0
LINE
  8
0
 10
103.723
 20
-64.7855
 11
104.073
 21
-64.6468
  0
LINE
  8
0
 10
104.073
 20
-64.6468
 11
104.438
 21
-64.5531
  0
LINE
  8
0
 10
104.438
 20
-64.5531
 11
104.812
 21
-64.5059
  0
LINE
  8
0
 10
104.812
 20
-64.5059
 11
105.188
 21
-64.5059
  0
LINE
  8
0
 10
105.188
 20
-64.5059
 11
105.562
 21
-64.5531
  0
LINE
  8
0
 10
105.562
 20
-64.5531
 11
105.927
 21
-64.6468
  0
LINE
  8
0
 10
105.927
 20
-64.6468
 11
106.277
 21
-64.7855
  0
LINE
  8
0
 10
106.277
 20
-64.7855
 11
106.607
 21
-64.967
  0
LINE
  8
0
 10
106.607
 20
-64.967
 11
106.912
 21
-65.1885
  0
LINE
  8
0
 10
106.912
 20
-65.1885
 11
107.187
 21
-65.4464
  0
LINE
  8
0
 10
107.187
 20
-65.4464
 11
107.427
 21
-65.7366
  0
LINE
  8
0
 10
107.427
 20
-65.7366
 11
107.629
 21
-66.0547
  0
LINE
  8
0
 10
107.629
 20
-66.0547
 11
107.789
 21
-66.3956
  0
LINE
  8
0
 10
107.789
 20
-66.3956
 11
107.906
 21
-66.7539
  0
LINE
  8
0
 10
107.906
 20
-66.7539
 11
107.976
 21
-67.124
  0
LINE
  8
0
 10
107.976
 20
-67.124
 11
108
 21
-67.5
  0
LINE
  8
0
 10
108
 20
-67.5
 11
107.976
 21
-67.876
  0
LINE
  8
0
 10
107.976
 20
-67.876
 11
107.906
 21
-68.2461
  0
LINE
  8
0
 10
107.906
 20
-68.2461
 11
107.789
 21
-68.6044
  0
LINE
  8
0
 10
107.789
 20
-68.6044
 11
107.629
 21
-68.9453
  0
LINE
  8
0
 10
107.629
 20
-68.9453
 11
107.427
 21
-69.2634
  0
LINE
  8
0
 10
107.427
 20
-69.2634
 11
107.187
 21
-69.5536
  0
LINE
  8
0
 10
107.187
 20
-69.5536
 11
106.912
 21
-69.8115
  0
LINE
  8
0
 10
106.912
 20
-69.8115
 11
106.607
 21
-70.033
  0
LINE
  8
0
 10
106.607
 20
-70.033
 11
106.277
 21
-70.2145
  0
LINE
  8
0
 10
106.277
 20
-70.2145
 11
105.927
 21
-70.3532
  0
LINE
  8
0
 10
105.927
 20
-70.3532
 11
105.562
 21
-70.4469
  0
LINE
  8
0
 10
105.562
 20
-70.4469
 11
105.188
 21
-70.4941
  0
LINE
  8
0
 10
105.188
 20
-70.4941
 11
104.812
 21
-70.4941
  0
LINE
  8
0
 10
-105.188
 20
-70.4941
 11
-105.562
 21
-70.4469
  0
LINE
  8
0
 10
-105.562
 20
-70.4469
 11
-105.927
 21
-70.3532
  0
LINE
  8
0
 10
-105.927
 20
-70.3532
 11
-106.277
 21
-70.2145
  0
LINE
  8
0
 10
-106.277
 20
-70.2145
 11
-106.607
 21
-70.033
  0
LINE
  8
0
 10
-106.607
 20
-70.033
 11
-106.912
 21
-69.8115
  0
LINE
  8
0
 10
-106.912
 20
-69.8115
 11
-107.187
 21
-69.5536
  0
LINE
  8
0
 10
-107.187
 20
-69.5536
 11
-107.427
 21
-69.2634
  0
LINE
  8
0
 10
-107.427
 20
-69.2634
 11
-107.629
 21
-68.9453
  0
LINE
  8
0
 10
-107.629
 20
-68.9453
 11
-107.789
 21
-68.6044
  0
LINE
  8
0
 10
-107.789
 20
-68.6044
 11
-107.906
 21
-68.2461
  0
LINE
  8
0
 10
-107.906
 20
-68.2461
 11
-107.976
 21
-67.876
  0
LINE
  8
0
 10
-107.976
 20
-67.876
 11
-108
 21
-67.5
  0
LINE
  8
0
 10
-108
 20
-67.5
 11
-107.976
 21
-67.124
  0
LINE
  8
0
 10
-107.976
 20
-67.124
 11
-107.906
 21
-66.7539
  0
LINE
  8
0
 10
-107.906
 20
-66.7539
 11
-107.789
 21
-66.3956
  0
LINE
  8
0
 10
-107.789
 20
-66.3956
 11
-107.629
 21
-66.0547
  0
LINE
  8
0
 10
-107.629
 20
-66.0547
 11
-107.427
 21
-65.7366
  0
LINE
  8
0
 10
-107.427
 20
-65.7366
 11
-107.187
 21
-65.4464
  0
LINE
  8
0
 10
-107.187
 20
-65.4464
 11
-106.912
 21
-65.1885
  0
LINE
  8
0
 10
-106.912
 20
-65.1885
 11
-106.607
 21
-64.967
  0
LINE
  8
0
 10
-106.607
 20
-64.967
 11
-106.277
 21
-64.7855
  0
LINE
  8
0
 10
-106.277
 20
-64.7855
 11
-105.927
 21
-64.6468
  0
LINE
  8
0
 10
-105.927
 20
-64.6468
 11
-105.562
 21
-64.5531
  0
LINE
  8
0
 10
-105.562
 20
-64.5531
 11
-105.188
 21
-64.5059
  0
LINE
  8
0
 10
-105.188
 20
-64.5059
 11
-104.812
 21
-64.5059
  0
LINE
  8
0
 10
-104.812
 20
-64.5059
 11
-104.438
 21
-64.5531
  0
LINE
  8
0
 10
-104.438
 20
-64.5531
 11
-104.073
 21
-64.6468
  0
LINE
  8
0
 10
-104.073
 20
-64.6468
 11
-103.723
 21
-64.7855
  0
LINE
  8
0
 10
-103.723
 20
-64.7855
 11
-103.393
 21
-64.967
  0
LINE
  8
0
 10
-103.393
 20
-64.967
 11
-103.088
 21
-65.1885
  0
LINE
  8
0
 10
-103.088
 20
-65.1885
 11
-102.813
 21
-65.4464
  0
LINE
  8
0
 10
-102.813
 20
-65.4464
 11
-102.573
 21
-65.7366
  0
LINE
  8
0
 10
-102.573
 20
-65.7366
 11
-102.371
 21
-66.0547
  0
LINE
  8
0
 10
-102.371
 20
-66.0547
 11
-102.211
 21
-66.3956
  0
LINE
  8
0
 10
-102.211
 20
-66.3956
 11
-102.094
 21
-66.7539
  0
LINE
  8
0
 10
-102.094
 20
-66.7539
 11
-102.024
 21
-67.124
  0
LINE
  8
0
 10
-102.024
 20
-67.124
 11
-102
 21
-67.5
  0
LINE
  8
0
 10
-102
 20
-67.5
 11
-102.024
 21
-67.876
  0
LINE
  8
0
 10
-102.024
 20
-67.876
 11
-102.094
 21
-68.2461
  0
LINE
  8
0
 10
-102.094
 20
-68.2461
 11
-102.211
 21
-68.6044
  0
LINE
  8
0
 10
-102.211
 20
-68.6044
 11
-102.371
 21
-68.9453
  0
LINE
  8
0
 10
-102.371
 20
-68.9453
 11
-102.573
 21
-69.2634
  0
LINE
  8
0
 10
-102.573
 20
-69.2634
 11
-102.813
 21
-69.5536
  0
LINE
  8
0
 10
-102.813
 20
-69.5536
 11
-103.088
 21
-69.8115
  0
LINE
  8
0
 10
-103.088
 20
-69.8115
 11
-103.393
 21
-70.033
  0
LINE
  8
0
 10
-103.393
 20
-70.033
 11
-103.723
 21
-70.2145
  0
LINE
  8
0
 10
-103.723
 20
-70.2145
 11
-104.073
 21
-70.3532
  0
LINE
  8
0
 10
-104.073
 20
-70.3532
 11
-104.438
 21
-70.4469
  0
LINE
  8
0
 10
-104.438
 20
-70.4469
 11
-104.812
 21
-70.4941
  0
LINE
  8
0
 10
-104.812
 20
-70.4941
 11
-105.188
 21
-70.4941
  0
ENDSEC
  0
SECTION
  2
OBJECTS
  0
DICTIONARY
  0
ENDSEC
  0
EOF
