<?xml version="1.0" standalone="no"?>
<!DOCTYPE svg PUBLIC "-//W3C//DTD SVG 1.1//EN" "http://www.w3.org/Graphics/SVG/1.1/DTD/svg11.dtd">
<svg width="374mm" height="14mm" viewBox="-187 -31 374 14" xmlns="http://www.w3.org/2000/svg" version="1.1">
<title>OpenSCAD Model</title>
<path d="
M 182.937,-17.0886 L 183.545,-17.2447 L 184.129,-17.4759 L 184.679,-17.7784 L 185.187,-18.1474 L 185.645,-18.5773
 L 186.045,-19.0611 L 186.382,-19.5912 L 186.649,-20.1594 L 186.843,-20.7566 L 186.961,-21.3733 L 187,-22
 L 187,-26 L 186.961,-26.6267 L 186.843,-27.2434 L 186.649,-27.8406 L 186.382,-28.4088 L 186.045,-28.9389
 L 185.645,-29.4227 L 185.187,-29.8526 L 184.679,-30.2216 L 184.129,-30.5241 L 183.545,-30.7553 L 182.937,-30.9114
 L 182.314,-30.9901 L -182.314,-30.9901 L -182.937,-30.9114 L -183.545,-30.7553 L -184.129,-30.5241 L -184.679,-30.2216
 L -185.187,-29.8526 L -185.645,-29.4227 L -186.045,-28.9389 L -186.382,-28.4088 L -186.649,-27.8406 L -186.843,-27.2434
 L -186.961,-26.6267 L -187,-26 L -187,-22 L -186.961,-21.3733 L -186.843,-20.7566 L -186.649,-20.1594
 L -186.382,-19.5912 L -186.045,-19.0611 L -185.645,-18.5773 L -185.187,-18.1474 L -184.679,-17.7784 L -184.129,-17.4759
 L -183.545,-17.2447 L -182.937,-17.0886 L -182.314,-17.0099 L 182.314,-17.0099 z
M 164.812,-21.0059 L 164.438,-21.0531 L 164.073,-21.1468 L 163.723,-21.2855 L 163.393,-21.467 L 163.088,-21.6885
 L 162.813,-21.9464 L 162.573,-22.2366 L 162.371,-22.5547 L 162.211,-22.8956 L 162.094,-23.2539 L 162.024,-23.624
 L 162,-24 L 162.024,-24.376 L 162.094,-24.7461 L 162.211,-25.1044 L 162.371,-25.4453 L 162.573,-25.7634
 L 162.813,-26.0536 L 163.088,-26.3115 L 163.393,-26.533 L 163.723,-26.7145 L 164.073,-26.8532 L 164.438,-26.9469
 L 164.812,-26.9941 L 165.188,-26.9941 L 165.562,-26.9469 L 165.927,-26.8532 L 166.277,-26.7145 L 166.607,-26.533
 L 166.912,-26.3115 L 167.187,-26.0536 L 167.427,-25.7634 L 167.629,-25.4453 L 167.789,-25.1044 L 167.906,-24.7461
 L 167.976,-24.376 L 168,-24 L 167.976,-23.624 L 167.906,-23.2539 L 167.789,-22.8956 L 167.629,-22.5547
 L 167.427,-22.2366 L 167.187,-21.9464 L 166.912,-21.6885 L 166.607,-21.467 L 166.277,-21.2855 L 165.927,-21.1468
 L 165.562,-21.0531 L 165.188,-21.0059 z
M 89.8116,-21.0059 L 89.4379,-21.0531 L 89.073,-21.1468 L 88.7227,-21.2855 L 88.3925,-21.467 L 88.0877,-21.6885
 L 87.8131,-21.9464 L 87.573,-22.2366 L 87.3711,-22.5547 L 87.2107,-22.8956 L 87.0943,-23.2539 L 87.0237,-23.624
 L 87,-24 L 87.0237,-24.376 L 87.0943,-24.7461 L 87.2107,-25.1044 L 87.3711,-25.4453 L 87.573,-25.7634
 L 87.8131,-26.0536 L 88.0877,-26.3115 L 88.3925,-26.533 L 88.7227,-26.7145 L 89.073,-26.8532 L 89.4379,-26.9469
 L 89.8116,-26.9941 L 90.1884,-26.9941 L 90.5621,-26.9469 L 90.927,-26.8532 L 91.2773,-26.7145 L 91.6075,-26.533
 L 91.9123,-26.3115 L 92.1869,-26.0536 L 92.427,-25.7634 L 92.6289,-25.4453 L 92.7893,-25.1044 L 92.9057,-24.7461
 L 92.9763,-24.376 L 93,-24 L 92.9763,-23.624 L 92.9057,-23.2539 L 92.7893,-22.8956 L 92.6289,-22.5547
 L 92.427,-22.2366 L 92.1869,-21.9464 L 91.9123,-21.6885 L 91.6075,-21.467 L 91.2773,-21.2855 L 90.927,-21.1468
 L 90.5621,-21.0531 L 90.1884,-21.0059 z
M 44.8116,-21.0059 L 44.4379,-21.0531 L 44.0729,-21.1468 L 43.7227,-21.2855 L 43.3925,-21.467 L 43.0877,-21.6885
 L 42.8131,-21.9464 L 42.5729,-22.2366 L 42.3711,-22.5547 L 42.2107,-22.8956 L 42.0942,-23.2539 L 42.0237,-23.624
 L 42,-24 L 42.0237,-24.376 L 42.0942,-24.7461 L 42.2107,-25.1044 L 42.3711,-25.4453 L 42.5729,-25.7634
 L 42.8131,-26.0536 L 43.0877,-26.3115 L 43.3925,-26.533 L 43.7227,-26.7145 L 44.0729,-26.8532 L 44.4379,-26.9469
 L 44.8116,-26.9941 L 45.1884,-26.9941 L 45.5621,-26.9469 L 45.927,-26.8532 L 46.2773,-26.7145 L 46.6075,-26.533
 L 46.9123,-26.3115 L 47.1869,-26.0536 L 47.427,-25.7634 L 47.6289,-25.4453 L 47.7893,-25.1044 L 47.9057,-24.7461
 L 47.9763,-24.376 L 48,-24 L 47.9763,-23.624 L 47.9057,-23.2539 L 47.7893,-22.8956 L 47.6289,-22.5547
 L 47.427,-22.2366 L 47.1869,-21.9464 L 46.9123,-21.6885 L 46.6075,-21.467 L 46.2773,-21.2855 L 45.927,-21.1468
 L 45.5621,-21.0531 L 45.1884,-21.0059 z
M 59.8116,-21.0059 L 59.4379,-21.0531 L 59.0729,-21.1468 L 58.7227,-21.2855 L 58.3925,-21.467 L 58.0877,-21.6885
 L 57.8131,-21.9464 L 57.5729,-22.2366 L 57.3711,-22.5547 L 57.2107,-22.8956 L 57.0942,-23.2539 L 57.0237,-23.624
 L 57,-24 L 57.0237,-24.376 L 57.0942,-24.7461 L 57.2107,-25.1044 L 57.3711,-25.4453 L 57.5729,-25.7634
 L 57.8131,-26.0536 L 58.0877,-26.3115 L 58.3925,-26.533 L 58.7227,-26.7145 L 59.0729,-26.8532 L 59.4379,-26.9469
 L 59.8116,-26.9941 L 60.1884,-26.9941 L 60.5621,-26.9469 L 60.927,-26.8532 L 61.2773,-26.7145 L 61.6075,-26.533
 L 61.9123,-26.3115 L 62.1869,-26.0536 L 62.427,-25.7634 L 62.6289,-25.4453 L 62.7893,-25.1044 L 62.9057,-24.7461
 L 62.9763,-24.376 L 63,-24 L 62.9763,-23.624 L 62.9057,-23.2539 L 62.7893,-22.8956 L 62.6289,-22.5547
 L 62.427,-22.2366 L 62.1869,-21.9464 L 61.9123,-21.6885 L 61.6075,-21.467 L 61.2773,-21.2855 L 60.927,-21.1468
 L 60.5621,-21.0531 L 60.1884,-21.0059 z
M 149.812,-21.0059 L 149.438,-21.0531 L 149.073,-21.1468 L 148.723,-21.2855 L 148.393,-21.467 L 148.088,-21.6885
 L 147.813,-21.9464 L 147.573,-22.2366 L 147.371,-22.5547 L 147.211,-22.8956 L 147.094,-23.2539 L 147.024,-23.624
 L 147,-24 L 147.024,-24.376 L 147.094,-24.7461 L 147.211,-25.1044 L 147.371,-25.4453 L 147.573,-25.7634
 L 147.813,-26.0536 L 148.088,-26.3115 L 148.393,-26.533 L 148.723,-26.7145 L 149.073,-26.8532 L 149.438,-26.9469
 L 149.812,-26.9941 L 150.188,-26.9941 L 150.562,-26.9469 L 150.927,-26.8532 L 151.277,-26.7145 L 151.607,-26.533
 L 151.912,-26.3115 L 152.187,-26.0536 L 152.427,-25.7634 L 152.629,-25.4453 L 152.789,-25.1044 L 152.906,-24.7461
 L 152.976,-24.376 L 153,-24 L 152.976,-23.624 L 152.906,-23.2539 L 152.789,-22.8956 L 152.629,-22.5547
 L 152.427,-22.2366 L 152.187,-21.9464 L 151.912,-21.6885 L 151.607,-21.467 L 151.277,-21.2855 L 150.927,-21.1468
 L 150.562,-21.0531 L 150.188,-21.0059 z
M -0.18837,-21.0059 L -0.562134,-21.0531 L -0.927048,-21.1468 L -1.27733,-21.2855 L -1.60747,-21.467 L -1.91226,-21.6885
 L -2.1869,-21.9464 L -2.42705,-22.2366 L -2.62891,-22.5547 L -2.78932,-22.8956 L -2.90575,-23.2539 L -2.97633,-23.624
 L -3,-24 L -2.97633,-24.376 L -2.90575,-24.7461 L -2.78932,-25.1044 L -2.62891,-25.4453 L -2.42705,-25.7634
 L -2.1869,-26.0536 L -1.91226,-26.3115 L -1.60747,-26.533 L -1.27733,-26.7145 L -0.927048,-26.8532 L -0.562134,-26.9469
 L -0.18837,-26.9941 L 0.18837,-26.9941 L 0.562134,-26.9469 L 0.927048,-26.8532 L 1.27733,-26.7145 L 1.60747,-26.533
 L 1.91226,-26.3115 L 2.1869,-26.0536 L 2.42705,-25.7634 L 2.62891,-25.4453 L 2.78932,-25.1044 L 2.90575,-24.7461
 L 2.97633,-24.376 L 3,-24 L 2.97633,-23.624 L 2.90575,-23.2539 L 2.78932,-22.8956 L 2.62891,-22.5547
 L 2.42705,-22.2366 L 2.1869,-21.9464 L 1.91226,-21.6885 L 1.60747,-21.467 L 1.27733,-21.2855 L 0.927048,-21.1468
 L 0.562134,-21.0531 L 0.18837,-21.0059 z
M 74.8116,-21.0059 L 74.4379,-21.0531 L 74.073,-21.1468 L 73.7227,-21.2855 L 73.3925,-21.467 L 73.0877,-21.6885
 L 72.8131,-21.9464 L 72.573,-22.2366 L 72.3711,-22.5547 L 72.2107,-22.8956 L 72.0943,-23.2539 L 72.0237,-23.624
 L 72,-24 L 72.0237,-24.376 L 72.0943,-24.7461 L 72.2107,-25.1044 L 72.3711,-25.4453 L 72.573,-25.7634
 L 72.8131,-26.0536 L 73.0877,-26.3115 L 73.3925,-26.533 L 73.7227,-26.7145 L 74.073,-26.8532 L 74.4379,-26.9469
 L 74.8116,-26.9941 L 75.1884,-26.9941 L 75.5621,-26.9469 L 75.927,-26.8532 L 76.2773,-26.7145 L 76.6075,-26.533
 L 76.9123,-26.3115 L 77.1869,-26.0536 L 77.427,-25.7634 L 77.6289,-25.4453 L 77.7893,-25.1044 L 77.9057,-24.7461
 L 77.9763,-24.376 L 78,-24 L 77.9763,-23.624 L 77.9057,-23.2539 L 77.7893,-22.8956 L 77.6289,-22.5547
 L 77.427,-22.2366 L 77.1869,-21.9464 L 76.9123,-21.6885 L 76.6075,-21.467 L 76.2773,-21.2855 L 75.927,-21.1468
 L 75.5621,-21.0531 L 75.1884,-21.0059 z
M 119.812,-21.0059 L 119.438,-21.0531 L 119.073,-21.1468 L 118.723,-21.2855 L 118.393,-21.467 L 118.088,-21.6885
 L 117.813,-21.9464 L 117.573,-22.2366 L 117.371,-22.5547 L 117.211,-22.8956 L 117.094,-23.2539 L 117.024,-23.624
 L 117,-24 L 117.024,-24.376 L 117.094,-24.7461 L 117.211,-25.1044 L 117.371,-25.4453 L 117.573,-25.7634
 L 117.813,-26.0536 L 118.088,-26.3115 L 118.393,-26.533 L 118.723,-26.7145 L 119.073,-26.8532 L 119.438,-26.9469
 L 119.812,-26.9941 L 120.188,-26.9941 L 120.562,-26.9469 L 120.927,-26.8532 L 121.277,-26.7145 L 121.607,-26.533
 L 121.912,-26.3115 L 122.187,-26.0536 L 122.427,-25.7634 L 122.629,-25.4453 L 122.789,-25.1044 L 122.906,-24.7461
 L 122.976,-24.376 L 123,-24 L 122.976,-23.624 L 122.906,-23.2539 L 122.789,-22.8956 L 122.629,-22.5547
 L 122.427,-22.2366 L 122.187,-21.9464 L 121.912,-21.6885 L 121.607,-21.467 L 121.277,-21.2855 L 120.927,-21.1468
 L 120.562,-21.0531 L 120.188,-21.0059 z
M 29.8116,-21.0059 L 29.4379,-21.0531 L 29.0729,-21.1468 L 28.7227,-21.2855 L 28.3925,-21.467 L 28.0877,-21.6885
 L 27.8131,-21.9464 L 27.5729,-22.2366 L 27.3711,-22.5547 L 27.2107,-22.8956 L 27.0942,-23.2539 L 27.0237,-23.624
 L 27,-24 L 27.0237,-24.376 L 27.0942,-24.7461 L 27.2107,-25.1044 L 27.3711,-25.4453 L 27.5729,-25.7634
 L 27.8131,-26.0536 L 28.0877,-26.3115 L 28.3925,-26.533 L 28.7227,-26.7145 L 29.0729,-26.8532 L 29.4379,-26.9469
 L 29.8116,-26.9941 L 30.1884,-26.9941 L 30.5621,-26.9469 L 30.927,-26.8532 L 31.2773,-26.7145 L 31.6075,-26.533
 L 31.9123,-26.3115 L 32.1869,-26.0536 L 32.427,-25.7634 L 32.6289,-25.4453 L 32.7893,-25.1044 L 32.9057,-24.7461
 L 32.9763,-24.376 L 33,-24 L 32.9763,-23.624 L 32.9057,-23.2539 L 32.7893,-22.8956 L 32.6289,-22.5547
 L 32.427,-22.2366 L 32.1869,-21.9464 L 31.9123,-21.6885 L 31.6075,-21.467 L 31.2773,-21.2855 L 30.927,-21.1468
 L 30.5621,-21.0531 L 30.1884,-21.0059 z
M 104.812,-21.0059 L 104.438,-21.0531 L 104.073,-21.1468 L 103.723,-21.2855 L 103.393,-21.467 L 103.088,-21.6885
 L 102.813,-21.9464 L 102.573,-22.2366 L 102.371,-22.5547 L 102.211,-22.8956 L 102.094,-23.2539 L 102.024,-23.624
 L 102,-24 L 102.024,-24.376 L 102.094,-24.7461 L 102.211,-25.1044 L 102.371,-25.4453 L 102.573,-25.7634
 L 102.813,-26.0536 L 103.088,-26.3115 L 103.393,-26.533 L 103.723,-26.7145 L 104.073,-26.8532 L 104.438,-26.9469
 L 104.812,-26.9941 L 105.188,-26.9941 L 105.562,-26.9469 L 105.927,-26.8532 L 106.277,-26.7145 L 106.607,-26.533
 L 106.912,-26.3115 L 107.187,-26.0536 L 107.427,-25.7634 L 107.629,-25.4453 L 107.789,-25.1044 L 107.906,-24.7461
 L 107.976,-24.376 L 108,-24 L 107.976,-23.624 L 107.906,-23.2539 L 107.789,-22.8956 L 107.629,-22.5547
 L 107.427,-22.2366 L 107.187,-21.9464 L 106.912,-21.6885 L 106.607,-21.467 L 106.277,-21.2855 L 105.927,-21.1468
 L 105.562,-21.0531 L 105.188,-21.0059 z
M 134.812,-21.0059 L 134.438,-21.0531 L 134.073,-21.1468 L 133.723,-21.2855 L 133.393,-21.467 L 133.088,-21.6885
 L 132.813,-21.9464 L 132.573,-22.2366 L 132.371,-22.5547 L 132.211,-22.8956 L 132.094,-23.2539 L 132.024,-23.624
 L 132,-24 L 132.024,-24.376 L 132.094,-24.7461 L 132.211,-25.1044 L 132.371,-25.4453 L 132.573,-25.7634
 L 132.813,-26.0536 L 133.088,-26.3115 L 133.393,-26.533 L 133.723,-26.7145 L 134.073,-26.8532 L 134.438,-26.9469
 L 134.812,-26.9941 L 135.188,-26.9941 L 135.562,-26.9469 L 135.927,-26.8532 L 136.277,-26.7145 L 136.607,-26.533
 L 136.912,-26.3115 L 137.187,-26.0536 L 137.427,-25.7634 L 137.629,-25.4453 L 137.789,-25.1044 L 137.906,-24.7461
 L 137.976,-24.376 L 138,-24 L 137.976,-23.624 L 137.906,-23.2539 L 137.789,-22.8956 L 137.629,-22.5547
 L 137.427,-22.2366 L 137.187,-21.9464 L 136.912,-21.6885 L 136.607,-21.467 L 136.277,-21.2855 L 135.927,-21.1468
 L 135.562,-21.0531 L 135.188,-21.0059 z
M 14.8116,-21.0059 L 14.4379,-21.0531 L 14.0729,-21.1468 L 13.7227,-21.2855 L 13.3925,-21.467 L 13.0877,-21.6885
 L 12.8131,-21.9464 L 12.5729,-22.2366 L 12.3711,-22.5547 L 12.2107,-22.8956 L 12.0942,-23.2539 L 12.0237,-23.624
 L 12,-24 L 12.0237,-24.376 L 12.0942,-24.7461 L 12.2107,-25.1044 L 12.3711,-25.4453 L 12.5729,-25.7634
 L 12.8131,-26.0536 L 13.0877,-26.3115 L 13.3925,-26.533 L 13.7227,-26.7145 L 14.0729,-26.8532 L 14.4379,-26.9469
 L 14.8116,-26.9941 L 15.1884,-26.9941 L 15.5621,-26.9469 L 15.927,-26.8532 L 16.2773,-26.7145 L 16.6075,-26.533
 L 16.9123,-26.3115 L 17.1869,-26.0536 L 17.427,-25.7634 L 17.6289,-25.4453 L 17.7893,-25.1044 L 17.9057,-24.7461
 L 17.9763,-24.376 L 18,-24 L 17.9763,-23.624 L 17.9057,-23.2539 L 17.7893,-22.8956 L 17.6289,-22.5547
 L 17.427,-22.2366 L 17.1869,-21.9464 L 16.9123,-21.6885 L 16.6075,-21.467 L 16.2773,-21.2855 L 15.927,-21.1468
 L 15.5621,-21.0531 L 15.1884,-21.0059 z
M -105.188,-21.0059 L -105.562,-21.0531 L -105.927,-21.1468 L -106.277,-21.2855 L -106.607,-21.467 L -106.912,-21.6885
 L -107.187,-21.9464 L -107.427,-22.2366 L -107.629,-22.5547 L -107.789,-22.8956 L -107.906,-23.2539 L -107.976,-23.624
 L -108,-24 L -107.976,-24.376 L -107.906,-24.7461 L -107.789,-25.1044 L -107.629,-25.4453 L -107.427,-25.7634
 L -107.187,-26.0536 L -106.912,-26.3115 L -106.607,-26.533 L -106.277,-26.7145 L -105.927,-26.8532 L -105.562,-26.9469
 L -105.188,-26.9941 L -104.812,-26.9941 L -104.438,-26.9469 L -104.073,-26.8532 L -103.723,-26.7145 L -103.393,-26.533
 L -103.088,-26.3115 L -102.813,-26.0536 L -102.573,-25.7634 L -102.371,-25.4453 L -102.211,-25.1044 L -102.094,-24.7461
 L -102.024,-24.376 L -102,-24 L -102.024,-23.624 L -102.094,-23.2539 L -102.211,-22.8956 L -102.371,-22.5547
 L -102.573,-22.2366 L -102.813,-21.9464 L -103.088,-21.6885 L -103.393,-21.467 L -103.723,-21.2855 L -104.073,-21.1468
 L -104.438,-21.0531 L -104.812,-21.0059 z
M 179.812,-21.0059 L 179.438,-21.0531 L 179.073,-21.1468 L 178.723,-21.2855 L 178.393,-21.467 L 178.088,-21.6885
 L 177.813,-21.9464 L 177.573,-22.2366 L 177.371,-22.5547 L 177.211,-22.8956 L 177.094,-23.2539 L 177.024,-23.624
 L 177,-24 L 177.024,-24.376 L 177.094,-24.7461 L 177.211,-25.1044 L 177.371,-25.4453 L 177.573,-25.7634
 L 177.813,-26.0536 L 178.088,-26.3115 L 178.393,-26.533 L 178.723,-26.7145 L 179.073,-26.8532 L 179.438,-26.9469
 L 179.812,-26.9941 L 180.188,-26.9941 L 180.562,-26.9469 L 180.927,-26.8532 L 181.277,-26.7145 L 181.607,-26.533
 L 181.912,-26.3115 L 182.187,-26.0536 L 182.427,-25.7634 L 182.629,-25.4453 L 182.789,-25.1044 L 182.906,-24.7461
 L 182.976,-24.376 L 183,-24 L 182.976,-23.624 L 182.906,-23.2539 L 182.789,-22.8956 L 182.629,-22.5547
 L 182.427,-22.2366 L 182.187,-21.9464 L 181.912,-21.6885 L 181.607,-21.467 L 181.277,-21.2855 L 180.927,-21.1468
 L 180.562,-21.0531 L 180.188,-21.0059 z
M -165.188,-21.0059 L -165.562,-21.0531 L -165.927,-21.1468 L -166.277,-21.2855 L -166.607,-21.467 L -166.912,-21.6885
 L -167.187,-21.9464 L -167.427,-22.2366 L -167.629,-22.5547 L -167.789,-22.8956 L -167.906,-23.2539 L -167.976,-23.624
 L -168,-24 L -167.976,-24.376 L -167.906,-24.7461 L -167.789,-25.1044 L -167.629,-25.4453 L -167.427,-25.7634
 L -167.187,-26.0536 L -166.912,-26.3115 L -166.607,-26.533 L -166.277,-26.7145 L -165.927,-26.8532 L -165.562,-26.9469
 L -165.188,-26.9941 L -164.812,-26.9941 L -164.438,-26.9469 L -164.073,-26.8532 L -163.723,-26.7145 L -163.393,-26.533
 L -163.088,-26.3115 L -162.813,-26.0536 L -162.573,-25.7634 L -162.371,-25.4453 L -162.211,-25.1044 L -162.094,-24.7461
 L -162.024,-24.376 L -162,-24 L -162.024,-23.624 L -162.094,-23.2539 L -162.211,-22.8956 L -162.371,-22.5547
 L -162.573,-22.2366 L -162.813,-21.9464 L -163.088,-21.6885 L -163.393,-21.467 L -163.723,-21.2855 L -164.073,-21.1468
 L -164.438,-21.0531 L -164.812,-21.0059 z
M -90.1884,-21.0059 L -90.5621,-21.0531 L -90.927,-21.1468 L -91.2773,-21.2855 L -91.6075,-21.467 L -91.9123,-21.6885
 L -92.1869,-21.9464 L -92.427,-22.2366 L -92.6289,-22.5547 L -92.7893,-22.8956 L -92.9057,-23.2539 L -92.9763,-23.624
 L -93,-24 L -92.9763,-24.376 L -92.9057,-24.7461 L -92.7893,-25.1044 L -92.6289,-25.4453 L -92.427,-25.7634
 L -92.1869,-26.0536 L -91.9123,-26.3115 L -91.6075,-26.533 L -91.2773,-26.7145 L -90.927,-26.8532 L -90.5621,-26.9469
 L -90.1884,-26.9941 L -89.8116,-26.9941 L -89.4379,-26.9469 L -89.073,-26.8532 L -88.7227,-26.7145 L -88.3925,-26.533
 L -88.0877,-26.3115 L -87.8131,-26.0536 L -87.573,-25.7634 L -87.3711,-25.4453 L -87.2107,-25.1044 L -87.0943,-24.7461
 L -87.0237,-24.376 L -87,-24 L -87.0237,-23.624 L -87.0943,-23.2539 L -87.2107,-22.8956 L -87.3711,-22.5547
 L -87.573,-22.2366 L -87.8131,-21.9464 L -88.0877,-21.6885 L -88.3925,-21.467 L -88.7227,-21.2855 L -89.073,-21.1468
 L -89.4379,-21.0531 L -89.8116,-21.0059 z
M -45.1884,-21.0059 L -45.5621,-21.0531 L -45.927,-21.1468 L -46.2773,-21.2855 L -46.6075,-21.467 L -46.9123,-21.6885
 L -47.1869,-21.9464 L -47.427,-22.2366 L -47.6289,-22.5547 L -47.7893,-22.8956 L -47.9057,-23.2539 L -47.9763,-23.624
 L -48,-24 L -47.9763,-24.376 L -47.9057,-24.7461 L -47.7893,-25.1044 L -47.6289,-25.4453 L -47.427,-25.7634
 L -47.1869,-26.0536 L -46.9123,-26.3115 L -46.6075,-26.533 L -46.2773,-26.7145 L -45.927,-26.8532 L -45.5621,-26.9469
 L -45.1884,-26.9941 L -44.8116,-26.9941 L -44.4379,-26.9469 L -44.0729,-26.8532 L -43.7227,-26.7145 L -43.3925,-26.533
 L -43.0877,-26.3115 L -42.8131,-26.0536 L -42.5729,-25.7634 L -42.3711,-25.4453 L -42.2107,-25.1044 L -42.0942,-24.7461
 L -42.0237,-24.376 L -42,-24 L -42.0237,-23.624 L -42.0942,-23.2539 L -42.2107,-22.8956 L -42.3711,-22.5547
 L -42.5729,-22.2366 L -42.8131,-21.9464 L -43.0877,-21.6885 L -43.3925,-21.467 L -43.7227,-21.2855 L -44.0729,-21.1468
 L -44.4379,-21.0531 L -44.8116,-21.0059 z
M -75.1884,-21.0059 L -75.5621,-21.0531 L -75.927,-21.1468 L -76.2773,-21.2855 L -76.6075,-21.467 L -76.9123,-21.6885
 L -77.1869,-21.9464 L -77.427,-22.2366 L -77.6289,-22.5547 L -77.7893,-22.8956 L -77.9057,-23.2539 L -77.9763,-23.624
 L -78,-24 L -77.9763,-24.376 L -77.9057,-24.7461 L -77.7893,-25.1044 L -77.6289,-25.4453 L -77.427,-25.7634
 L -77.1869,-26.0536 L -76.9123,-26.3115 L -76.6075,-26.533 L -76.2773,-26.7145 L -75.927,-26.8532 L -75.5621,-26.9469
 L -75.1884,-26.9941 L -74.8116,-26.9941 L -74.4379,-26.9469 L -74.073,-26.8532 L -73.7227,-26.7145 L -73.3925,-26.533
 L -73.0877,-26.3115 L -72.8131,-26.0536 L -72.573,-25.7634 L -72.3711,-25.4453 L -72.2107,-25.1044 L -72.0943,-24.7461
 L -72.0237,-24.376 L -72,-24 L -72.0237,-23.624 L -72.0943,-23.2539 L -72.2107,-22.8956 L -72.3711,-22.5547
 L -72.573,-22.2366 L -72.8131,-21.9464 L -73.0877,-21.6885 L -73.3925,-21.467 L -73.7227,-21.2855 L -74.073,-21.1468
 L -74.4379,-21.0531 L -74.8116,-21.0059 z
M -150.188,-21.0059 L -150.562,-21.0531 L -150.927,-21.1468 L -151.277,-21.2855 L -151.607,-21.467 L -151.912,-21.6885
 L -152.187,-21.9464 L -152.427,-22.2366 L -152.629,-22.5547 L -152.789,-22.8956 L -152.906,-23.2539 L -152.976,-23.624
 L -153,-24 L -152.976,-24.376 L -152.906,-24.7461 L -152.789,-25.1044 L -152.629,-25.4453 L -152.427,-25.7634
 L -152.187,-26.0536 L -151.912,-26.3115 L -151.607,-26.533 L -151.277,-26.7145 L -150.927,-26.8532 L -150.562,-26.9469
 L -150.188,-26.9941 L -149.812,-26.9941 L -149.438,-26.9469 L -149.073,-26.8532 L -148.723,-26.7145 L -148.393,-26.533
 L -148.088,-26.3115 L -147.813,-26.0536 L -147.573,-25.7634 L -147.371,-25.4453 L -147.211,-25.1044 L -147.094,-24.7461
 L -147.024,-24.376 L -147,-24 L -147.024,-23.624 L -147.094,-23.2539 L -147.211,-22.8956 L -147.371,-22.5547
 L -147.573,-22.2366 L -147.813,-21.9464 L -148.088,-21.6885 L -148.393,-21.467 L -148.723,-21.2855 L -149.073,-21.1468
 L -149.438,-21.0531 L -149.812,-21.0059 z
M -60.1884,-21.0059 L -60.5621,-21.0531 L -60.927,-21.1468 L -61.2773,-21.2855 L -61.6075,-21.467 L -61.9123,-21.6885
 L -62.1869,-21.9464 L -62.427,-22.2366 L -62.6289,-22.5547 L -62.7893,-22.8956 L -62.9057,-23.2539 L -62.9763,-23.624
 L -63,-24 L -62.9763,-24.376 L -62.9057,-24.7461 L -62.7893,-25.1044 L -62.6289,-25.4453 L -62.427,-25.7634
 L -62.1869,-26.0536 L -61.9123,-26.3115 L -61.6075,-26.533 L -61.2773,-26.7145 L -60.927,-26.8532 L -60.5621,-26.9469
 L -60.1884,-26.9941 L -59.8116,-26.9941 L -59.4379,-26.9469 L -59.0729,-26.8532 L -58.7227,-26.7145 L -58.3925,-26.533
 L -58.0877,-26.3115 L -57.8131,-26.0536 L -57.5729,-25.7634 L -57.3711,-25.4453 L -57.2107,-25.1044 L -57.0942,-24.7461
 L -57.0237,-24.376 L -57,-24 L -57.0237,-23.624 L -57.0942,-23.2539 L -57.2107,-22.8956 L -57.3711,-22.5547
 L -57.5729,-22.2366 L -57.8131,-21.9464 L -58.0877,-21.6885 L -58.3925,-21.467 L -58.7227,-21.2855 L -59.0729,-21.1468
 L -59.4379,-21.0531 L -59.8116,-21.0059 z
M -135.188,-21.0059 L -135.562,-21.0531 L -135.927,-21.1468 L -136.277,-21.2855 L -136.607,-21.467 L -136.912,-21.6885
 L -137.187,-21.9464 L -137.427,-22.2366 L -137.629,-22.5547 L -137.789,-22.8956 L -137.906,-23.2539 L -137.976,-23.624
 L -138,-24 L -137.976,-24.376 L -137.906,-24.7461 L -137.789,-25.1044 L -137.629,-25.4453 L -137.427,-25.7634
 L -137.187,-26.0536 L -136.912,-26.3115 L -136.607,-26.533 L -136.277,-26.7145 L -135.927,-26.8532 L -135.562,-26.9469
 L -135.188,-26.9941 L -134.812,-26.9941 L -134.438,-26.9469 L -134.073,-26.8532 L -133.723,-26.7145 L -133.393,-26.533
 L -133.088,-26.3115 L -132.813,-26.0536 L -132.573,-25.7634 L -132.371,-25.4453 L -132.211,-25.1044 L -132.094,-24.7461
 L -132.024,-24.376 L -132,-24 L -132.024,-23.624 L -132.094,-23.2539 L -132.211,-22.8956 L -132.371,-22.5547
 L -132.573,-22.2366 L -132.813,-21.9464 L -133.088,-21.6885 L -133.393,-21.467 L -133.723,-21.2855 L -134.073,-21.1468
 L -134.438,-21.0531 L -134.812,-21.0059 z
M -15.1884,-21.0059 L -15.5621,-21.0531 L -15.927,-21.1468 L -16.2773,-21.2855 L -16.6075,-21.467 L -16.9123,-21.6885
 L -17.1869,-21.9464 L -17.427,-22.2366 L -17.6289,-22.5547 L -17.7893,-22.8956 L -17.9057,-23.2539 L -17.9763,-23.624
 L -18,-24 L -17.9763,-24.376 L -17.9057,-24.7461 L -17.7893,-25.1044 L -17.6289,-25.4453 L -17.427,-25.7634
 L -17.1869,-26.0536 L -16.9123,-26.3115 L -16.6075,-26.533 L -16.2773,-26.7145 L -15.927,-26.8532 L -15.5621,-26.9469
 L -15.1884,-26.9941 L -14.8116,-26.9941 L -14.4379,-26.9469 L -14.0729,-26.8532 L -13.7227,-26.7145 L -13.3925,-26.533
 L -13.0877,-26.3115 L -12.8131,-26.0536 L -12.5729,-25.7634 L -12.3711,-25.4453 L -12.2107,-25.1044 L -12.0942,-24.7461
 L -12.0237,-24.376 L -12,-24 L -12.0237,-23.624 L -12.0942,-23.2539 L -12.2107,-22.8956 L -12.3711,-22.5547
 L -12.5729,-22.2366 L -12.8131,-21.9464 L -13.0877,-21.6885 L -13.3925,-21.467 L -13.7227,-21.2855 L -14.0729,-21.1468
 L -14.4379,-21.0531 L -14.8116,-21.0059 z
M -180.188,-21.0059 L -180.562,-21.0531 L -180.927,-21.1468 L -181.277,-21.2855 L -181.607,-21.467 L -181.912,-21.6885
 L -182.187,-21.9464 L -182.427,-22.2366 L -182.629,-22.5547 L -182.789,-22.8956 L -182.906,-23.2539 L -182.976,-23.624
 L -183,-24 L -182.976,-24.376 L -182.906,-24.7461 L -182.789,-25.1044 L -182.629,-25.4453 L -182.427,-25.7634
 L -182.187,-26.0536 L -181.912,-26.3115 L -181.607,-26.533 L -181.277,-26.7145 L -180.927,-26.8532 L -180.562,-26.9469
 L -180.188,-26.9941 L -179.812,-26.9941 L -179.438,-26.9469 L -179.073,-26.8532 L -178.723,-26.7145 L -178.393,-26.533
 L -178.088,-26.3115 L -177.813,-26.0536 L -177.573,-25.7634 L -177.371,-25.4453 L -177.211,-25.1044 L -177.094,-24.7461
 L -177.024,-24.376 L -177,-24 L -177.024,-23.624 L -177.094,-23.2539 L -177.211,-22.8956 L -177.371,-22.5547
 L -177.573,-22.2366 L -177.813,-21.9464 L -178.088,-21.6885 L -178.393,-21.467 L -178.723,-21.2855 L -179.073,-21.1468
 L -179.438,-21.0531 L -179.812,-21.0059 z
M -30.1884,-21.0059 L -30.5621,-21.0531 L -30.927,-21.1468 L -31.2773,-21.2855 L -31.6075,-21.467 L -31.9123,-21.6885
 L -32.1869,-21.9464 L -32.427,-22.2366 L -32.6289,-22.5547 L -32.7893,-22.8956 L -32.9057,-23.2539 L -32.9763,-23.624
 L -33,-24 L -32.9763,-24.376 L -32.9057,-24.7461 L -32.7893,-25.1044 L -32.6289,-25.4453 L -32.427,-25.7634
 L -32.1869,-26.0536 L -31.9123,-26.3115 L -31.6075,-26.533 L -31.2773,-26.7145 L -30.927,-26.8532 L -30.5621,-26.9469
 L -30.1884,-26.9941 L -29.8116,-26.9941 L -29.4379,-26.9469 L -29.0729,-26.8532 L -28.7227,-26.7145 L -28.3925,-26.533
 L -28.0877,-26.3115 L -27.8131,-26.0536 L -27.5729,-25.7634 L -27.3711,-25.4453 L -27.2107,-25.1044 L -27.0942,-24.7461
 L -27.0237,-24.376 L -27,-24 L -27.0237,-23.624 L -27.0942,-23.2539 L -27.2107,-22.8956 L -27.3711,-22.5547
 L -27.5729,-22.2366 L -27.8131,-21.9464 L -28.0877,-21.6885 L -28.3925,-21.467 L -28.7227,-21.2855 L -29.0729,-21.1468
 L -29.4379,-21.0531 L -29.8116,-21.0059 z
M -120.188,-21.0059 L -120.562,-21.0531 L -120.927,-21.1468 L -121.277,-21.2855 L -121.607,-21.467 L -121.912,-21.6885
 L -122.187,-21.9464 L -122.427,-22.2366 L -122.629,-22.5547 L -122.789,-22.8956 L -122.906,-23.2539 L -122.976,-23.624
 L -123,-24 L -122.976,-24.376 L -122.906,-24.7461 L -122.789,-25.1044 L -122.629,-25.4453 L -122.427,-25.7634
 L -122.187,-26.0536 L -121.912,-26.3115 L -121.607,-26.533 L -121.277,-26.7145 L -120.927,-26.8532 L -120.562,-26.9469
 L -120.188,-26.9941 L -119.812,-26.9941 L -119.438,-26.9469 L -119.073,-26.8532 L -118.723,-26.7145 L -118.393,-26.533
 L -118.088,-26.3115 L -117.813,-26.0536 L -117.573,-25.7634 L -117.371,-25.4453 L -117.211,-25.1044 L -117.094,-24.7461
 L -117.024,-24.376 L -117,-24 L -117.024,-23.624 L -117.094,-23.2539 L -117.211,-22.8956 L -117.371,-22.5547
 L -117.573,-22.2366 L -117.813,-21.9464 L -118.088,-21.6885 L -118.393,-21.467 L -118.723,-21.2855 L -119.073,-21.1468
 L -119.438,-21.0531 L -119.812,-21.0059 z
" stroke="black" fill="lightgray" stroke-width="0.5"/>
</svg>
