  0
SECTION
  2
BLOCKS
  0
ENDSEC
  0
SECTION
  2
ENTITIES
  0
LINE
  8
0
 10
182.937
 20
-21.9114
 11
183.545
 21
-21.7553
  0
LINE
  8
0
 10
183.545
 20
-21.7553
 11
184.129
 21
-21.5241
  0
LINE
  8
0
 10
184.129
 20
-21.5241
 11
184.679
 21
-21.2216
  0
LINE
  8
0
 10
184.679
 20
-21.2216
 11
185.187
 21
-20.8526
  0
LINE
  8
0
 10
185.187
 20
-20.8526
 11
185.645
 21
-20.4227
  0
LINE
  8
0
 10
185.645
 20
-20.4227
 11
186.045
 21
-19.9389
  0
LINE
  8
0
 10
186.045
 20
-19.9389
 11
186.382
 21
-19.4088
  0
LINE
  8
0
 10
186.382
 20
-19.4088
 11
186.649
 21
-18.8406
  0
LINE
  8
0
 10
186.649
 20
-18.8406
 11
186.843
 21
-18.2434
  0
LINE
  8
0
 10
186.843
 20
-18.2434
 11
186.961
 21
-17.6267
  0
LINE
  8
0
 10
186.961
 20
-17.6267
 11
187
 21
-17
  0
LINE
  8
0
 10
187
 20
-17
 11
187
 21
17
  0
LINE
  8
0
 10
187
 20
17
 11
186.961
 21
17.6267
  0
LINE
  8
0
 10
186.961
 20
17.6267
 11
186.843
 21
18.2434
  0
LINE
  8
0
 10
186.843
 20
18.2434
 11
186.649
 21
18.8406
  0
LINE
  8
0
 10
186.649
 20
18.8406
 11
186.382
 21
19.4088
  0
LINE
  8
0
 10
186.382
 20
19.4088
 11
186.045
 21
19.9389
  0
LINE
  8
0
 10
186.045
 20
19.9389
 11
185.645
 21
20.4227
  0
LINE
  8
0
 10
185.645
 20
20.4227
 11
185.187
 21
20.8526
  0
LINE
  8
0
 10
185.187
 20
20.8526
 11
184.679
 21
21.2216
  0
LINE
  8
0
 10
184.679
 20
21.2216
 11
184.129
 21
21.5241
  0
LINE
  8
0
 10
184.129
 20
21.5241
 11
183.545
 21
21.7553
  0
LINE
  8
0
 10
183.545
 20
21.7553
 11
182.937
 21
21.9114
  0
LINE
  8
0
 10
182.937
 20
21.9114
 11
182.314
 21
21.9901
  0
LINE
  8
0
 10
182.314
 20
21.9901
 11
-182.314
 21
21.9901
  0
LINE
  8
0
 10
-182.314
 20
21.9901
 11
-182.937
 21
21.9114
  0
LINE
  8
0
 10
-182.937
 20
21.9114
 11
-183.545
 21
21.7553
  0
LINE
  8
0
 10
-183.545
 20
21.7553
 11
-184.129
 21
21.5241
  0
LINE
  8
0
 10
-184.129
 20
21.5241
 11
-184.679
 21
21.2216
  0
LINE
  8
0
 10
-184.679
 20
21.2216
 11
-185.187
 21
20.8526
  0
LINE
  8
0
 10
-185.187
 20
20.8526
 11
-185.645
 21
20.4227
  0
LINE
  8
0
 10
-185.645
 20
20.4227
 11
-186.045
 21
19.9389
  0
LINE
  8
0
 10
-186.045
 20
19.9389
 11
-186.382
 21
19.4088
  0
LINE
  8
0
 10
-186.382
 20
19.4088
 11
-186.649
 21
18.8406
  0
LINE
  8
0
 10
-186.649
 20
18.8406
 11
-186.843
 21
18.2434
  0
LINE
  8
0
 10
-186.843
 20
18.2434
 11
-186.961
 21
17.6267
  0
LINE
  8
0
 10
-186.961
 20
17.6267
 11
-187
 21
17
  0
LINE
  8
0
 10
-187
 20
17
 11
-187
 21
-17
  0
LINE
  8
0
 10
-187
 20
-17
 11
-186.961
 21
-17.6267
  0
LINE
  8
0
 10
-186.961
 20
-17.6267
 11
-186.843
 21
-18.2434
  0
LINE
  8
0
 10
-186.843
 20
-18.2434
 11
-186.649
 21
-18.8406
  0
LINE
  8
0
 10
-186.649
 20
-18.8406
 11
-186.382
 21
-19.4088
  0
LINE
  8
0
 10
-186.382
 20
-19.4088
 11
-186.045
 21
-19.9389
  0
LINE
  8
0
 10
-186.045
 20
-19.9389
 11
-185.645
 21
-20.4227
  0
LINE
  8
0
 10
-185.645
 20
-20.4227
 11
-185.187
 21
-20.8526
  0
LINE
  8
0
 10
-185.187
 20
-20.8526
 11
-184.679
 21
-21.2216
  0
LINE
  8
0
 10
-184.679
 20
-21.2216
 11
-184.129
 21
-21.5241
  0
LINE
  8
0
 10
-184.129
 20
-21.5241
 11
-183.545
 21
-21.7553
  0
LINE
  8
0
 10
-183.545
 20
-21.7553
 11
-182.937
 21
-21.9114
  0
LINE
  8
0
 10
-182.937
 20
-21.9114
 11
-182.314
 21
-21.9901
  0
LINE
  8
0
 10
-182.314
 20
-21.9901
 11
182.314
 21
-21.9901
  0
LINE
  8
0
 10
182.314
 20
-21.9901
 11
182.937
 21
-21.9114
  0
LINE
  8
0
 10
177.024
 20
15.376
 11
177.094
 21
15.7461
  0
LINE
  8
0
 10
177.094
 20
15.7461
 11
177.211
 21
16.1044
  0
LINE
  8
0
 10
177.211
 20
16.1044
 11
177.371
 21
16.4453
  0
LINE
  8
0
 10
177.371
 20
16.4453
 11
177.573
 21
16.7634
  0
LINE
  8
0
 10
177.573
 20
16.7634
 11
177.813
 21
17.0536
  0
LINE
  8
0
 10
177.813
 20
17.0536
 11
178.088
 21
17.3115
  0
LINE
  8
0
 10
178.088
 20
17.3115
 11
178.393
 21
17.533
  0
LINE
  8
0
 10
178.393
 20
17.533
 11
178.723
 21
17.7145
  0
LINE
  8
0
 10
178.723
 20
17.7145
 11
179.073
 21
17.8532
  0
LINE
  8
0
 10
179.073
 20
17.8532
 11
179.438
 21
17.9469
  0
LINE
  8
0
 10
179.438
 20
17.9469
 11
179.812
 21
17.9941
  0
LINE
  8
0
 10
179.812
 20
17.9941
 11
180.188
 21
17.9941
  0
LINE
  8
0
 10
180.188
 20
17.9941
 11
180.562
 21
17.9469
  0
LINE
  8
0
 10
180.562
 20
17.9469
 11
180.927
 21
17.8532
  0
LINE
  8
0
 10
180.927
 20
17.8532
 11
181.277
 21
17.7145
  0
LINE
  8
0
 10
181.277
 20
17.7145
 11
181.607
 21
17.533
  0
LINE
  8
0
 10
181.607
 20
17.533
 11
181.912
 21
17.3115
  0
LINE
  8
0
 10
181.912
 20
17.3115
 11
182.187
 21
17.0536
  0
LINE
  8
0
 10
182.187
 20
17.0536
 11
182.427
 21
16.7634
  0
LINE
  8
0
 10
182.427
 20
16.7634
 11
182.629
 21
16.4453
  0
LINE
  8
0
 10
182.629
 20
16.4453
 11
182.789
 21
16.1044
  0
LINE
  8
0
 10
182.789
 20
16.1044
 11
182.906
 21
15.7461
  0
LINE
  8
0
 10
182.906
 20
15.7461
 11
182.976
 21
15.376
  0
LINE
  8
0
 10
182.976
 20
15.376
 11
183
 21
15
  0
LINE
  8
0
 10
183
 20
15
 11
182.976
 21
14.624
  0
LINE
  8
0
 10
182.976
 20
14.624
 11
182.906
 21
14.2539
  0
LINE
  8
0
 10
182.906
 20
14.2539
 11
182.789
 21
13.8956
  0
LINE
  8
0
 10
182.789
 20
13.8956
 11
182.629
 21
13.5547
  0
LINE
  8
0
 10
182.629
 20
13.5547
 11
182.427
 21
13.2366
  0
LINE
  8
0
 10
182.427
 20
13.2366
 11
182.187
 21
12.9464
  0
LINE
  8
0
 10
182.187
 20
12.9464
 11
181.912
 21
12.6884
  0
LINE
  8
0
 10
181.912
 20
12.6884
 11
181.607
 21
12.467
  0
LINE
  8
0
 10
181.607
 20
12.467
 11
181.277
 21
12.2855
  0
LINE
  8
0
 10
181.277
 20
12.2855
 11
180.927
 21
12.1468
  0
LINE
  8
0
 10
180.927
 20
12.1468
 11
180.562
 21
12.0531
  0
LINE
  8
0
 10
180.562
 20
12.0531
 11
180.188
 21
12.0059
  0
LINE
  8
0
 10
180.188
 20
12.0059
 11
179.812
 21
12.0059
  0
LINE
  8
0
 10
179.812
 20
12.0059
 11
179.438
 21
12.0531
  0
LINE
  8
0
 10
179.438
 20
12.0531
 11
179.073
 21
12.1468
  0
LINE
  8
0
 10
179.073
 20
12.1468
 11
178.723
 21
12.2855
  0
LINE
  8
0
 10
178.723
 20
12.2855
 11
178.393
 21
12.467
  0
LINE
  8
0
 10
178.393
 20
12.467
 11
178.088
 21
12.6884
  0
LINE
  8
0
 10
178.088
 20
12.6884
 11
177.813
 21
12.9464
  0
LINE
  8
0
 10
177.813
 20
12.9464
 11
177.573
 21
13.2366
  0
LINE
  8
0
 10
177.573
 20
13.2366
 11
177.371
 21
13.5547
  0
LINE
  8
0
 10
177.371
 20
13.5547
 11
177.211
 21
13.8956
  0
LINE
  8
0
 10
177.211
 20
13.8956
 11
177.094
 21
14.2539
  0
LINE
  8
0
 10
177.094
 20
14.2539
 11
177.024
 21
14.624
  0
LINE
  8
0
 10
177.024
 20
14.624
 11
177
 21
15
  0
LINE
  8
0
 10
177
 20
15
 11
177.024
 21
15.376
  0
LINE
  8
0
 10
-180.188
 20
-17.9941
 11
-180.562
 21
-17.9469
  0
LINE
  8
0
 10
-180.562
 20
-17.9469
 11
-180.927
 21
-17.8532
  0
LINE
  8
0
 10
-180.927
 20
-17.8532
 11
-181.277
 21
-17.7145
  0
LINE
  8
0
 10
-181.277
 20
-17.7145
 11
-181.607
 21
-17.533
  0
LINE
  8
0
 10
-181.607
 20
-17.533
 11
-181.912
 21
-17.3115
  0
LINE
  8
0
 10
-181.912
 20
-17.3115
 11
-182.187
 21
-17.0536
  0
LINE
  8
0
 10
-182.187
 20
-17.0536
 11
-182.427
 21
-16.7634
  0
LINE
  8
0
 10
-182.427
 20
-16.7634
 11
-182.629
 21
-16.4453
  0
LINE
  8
0
 10
-182.629
 20
-16.4453
 11
-182.789
 21
-16.1044
  0
LINE
  8
0
 10
-182.789
 20
-16.1044
 11
-182.906
 21
-15.7461
  0
LINE
  8
0
 10
-182.906
 20
-15.7461
 11
-182.976
 21
-15.376
  0
LINE
  8
0
 10
-182.976
 20
-15.376
 11
-183
 21
-15
  0
LINE
  8
0
 10
-183
 20
-15
 11
-182.976
 21
-14.624
  0
LINE
  8
0
 10
-182.976
 20
-14.624
 11
-182.906
 21
-14.2539
  0
LINE
  8
0
 10
-182.906
 20
-14.2539
 11
-182.789
 21
-13.8956
  0
LINE
  8
0
 10
-182.789
 20
-13.8956
 11
-182.629
 21
-13.5547
  0
LINE
  8
0
 10
-182.629
 20
-13.5547
 11
-182.427
 21
-13.2366
  0
LINE
  8
0
 10
-182.427
 20
-13.2366
 11
-182.187
 21
-12.9464
  0
LINE
  8
0
 10
-182.187
 20
-12.9464
 11
-181.912
 21
-12.6884
  0
LINE
  8
0
 10
-181.912
 20
-12.6884
 11
-181.607
 21
-12.467
  0
LINE
  8
0
 10
-181.607
 20
-12.467
 11
-181.277
 21
-12.2855
  0
LINE
  8
0
 10
-181.277
 20
-12.2855
 11
-180.927
 21
-12.1468
  0
LINE
  8
0
 10
-180.927
 20
-12.1468
 11
-180.562
 21
-12.0531
  0
LINE
  8
0
 10
-180.562
 20
-12.0531
 11
-180.188
 21
-12.0059
  0
LINE
  8
0
 10
-180.188
 20
-12.0059
 11
-179.812
 21
-12.0059
  0
LINE
  8
0
 10
-179.812
 20
-12.0059
 11
-179.438
 21
-12.0531
  0
LINE
  8
0
 10
-179.438
 20
-12.0531
 11
-179.073
 21
-12.1468
  0
LINE
  8
0
 10
-179.073
 20
-12.1468
 11
-178.723
 21
-12.2855
  0
LINE
  8
0
 10
-178.723
 20
-12.2855
 11
-178.393
 21
-12.467
  0
LINE
  8
0
 10
-178.393
 20
-12.467
 11
-178.088
 21
-12.6884
  0
LINE
  8
0
 10
-178.088
 20
-12.6884
 11
-177.813
 21
-12.9464
  0
LINE
  8
0
 10
-177.813
 20
-12.9464
 11
-177.573
 21
-13.2366
  0
LINE
  8
0
 10
-177.573
 20
-13.2366
 11
-177.371
 21
-13.5547
  0
LINE
  8
0
 10
-177.371
 20
-13.5547
 11
-177.211
 21
-13.8956
  0
LINE
  8
0
 10
-177.211
 20
-13.8956
 11
-177.094
 21
-14.2539
  0
LINE
  8
0
 10
-177.094
 20
-14.2539
 11
-177.024
 21
-14.624
  0
LINE
  8
0
 10
-177.024
 20
-14.624
 11
-177
 21
-15
  0
LINE
  8
0
 10
-177
 20
-15
 11
-177.024
 21
-15.376
  0
LINE
  8
0
 10
-177.024
 20
-15.376
 11
-177.094
 21
-15.7461
  0
LINE
  8
0
 10
-177.094
 20
-15.7461
 11
-177.211
 21
-16.1044
  0
LINE
  8
0
 10
-177.211
 20
-16.1044
 11
-177.371
 21
-16.4453
  0
LINE
  8
0
 10
-177.371
 20
-16.4453
 11
-177.573
 21
-16.7634
  0
LINE
  8
0
 10
-177.573
 20
-16.7634
 11
-177.813
 21
-17.0536
  0
LINE
  8
0
 10
-177.813
 20
-17.0536
 11
-178.088
 21
-17.3115
  0
LINE
  8
0
 10
-178.088
 20
-17.3115
 11
-178.393
 21
-17.533
  0
LINE
  8
0
 10
-178.393
 20
-17.533
 11
-178.723
 21
-17.7145
  0
LINE
  8
0
 10
-178.723
 20
-17.7145
 11
-179.073
 21
-17.8532
  0
LINE
  8
0
 10
-179.073
 20
-17.8532
 11
-179.438
 21
-17.9469
  0
LINE
  8
0
 10
-179.438
 20
-17.9469
 11
-179.812
 21
-17.9941
  0
LINE
  8
0
 10
-179.812
 20
-17.9941
 11
-180.188
 21
-17.9941
  0
LINE
  8
0
 10
179.812
 20
-17.9941
 11
179.438
 21
-17.9469
  0
LINE
  8
0
 10
179.438
 20
-17.9469
 11
179.073
 21
-17.8532
  0
LINE
  8
0
 10
179.073
 20
-17.8532
 11
178.723
 21
-17.7145
  0
LINE
  8
0
 10
178.723
 20
-17.7145
 11
178.393
 21
-17.533
  0
LINE
  8
0
 10
178.393
 20
-17.533
 11
178.088
 21
-17.3115
  0
LINE
  8
0
 10
178.088
 20
-17.3115
 11
177.813
 21
-17.0536
  0
LINE
  8
0
 10
177.813
 20
-17.0536
 11
177.573
 21
-16.7634
  0
LINE
  8
0
 10
177.573
 20
-16.7634
 11
177.371
 21
-16.4453
  0
LINE
  8
0
 10
177.371
 20
-16.4453
 11
177.211
 21
-16.1044
  0
LINE
  8
0
 10
177.211
 20
-16.1044
 11
177.094
 21
-15.7461
  0
LINE
  8
0
 10
177.094
 20
-15.7461
 11
177.024
 21
-15.376
  0
LINE
  8
0
 10
177.024
 20
-15.376
 11
177
 21
-15
  0
LINE
  8
0
 10
177
 20
-15
 11
177.024
 21
-14.624
  0
LINE
  8
0
 10
177.024
 20
-14.624
 11
177.094
 21
-14.2539
  0
LINE
  8
0
 10
177.094
 20
-14.2539
 11
177.211
 21
-13.8956
  0
LINE
  8
0
 10
177.211
 20
-13.8956
 11
177.371
 21
-13.5547
  0
LINE
  8
0
 10
177.371
 20
-13.5547
 11
177.573
 21
-13.2366
  0
LINE
  8
0
 10
177.573
 20
-13.2366
 11
177.813
 21
-12.9464
  0
LINE
  8
0
 10
177.813
 20
-12.9464
 11
178.088
 21
-12.6884
  0
LINE
  8
0
 10
178.088
 20
-12.6884
 11
178.393
 21
-12.467
  0
LINE
  8
0
 10
178.393
 20
-12.467
 11
178.723
 21
-12.2855
  0
LINE
  8
0
 10
178.723
 20
-12.2855
 11
179.073
 21
-12.1468
  0
LINE
  8
0
 10
179.073
 20
-12.1468
 11
179.438
 21
-12.0531
  0
LINE
  8
0
 10
179.438
 20
-12.0531
 11
179.812
 21
-12.0059
  0
LINE
  8
0
 10
179.812
 20
-12.0059
 11
180.188
 21
-12.0059
  0
LINE
  8
0
 10
180.188
 20
-12.0059
 11
180.562
 21
-12.0531
  0
LINE
  8
0
 10
180.562
 20
-12.0531
 11
180.927
 21
-12.1468
  0
LINE
  8
0
 10
180.927
 20
-12.1468
 11
181.277
 21
-12.2855
  0
LINE
  8
0
 10
181.277
 20
-12.2855
 11
181.607
 21
-12.467
  0
LINE
  8
0
 10
181.607
 20
-12.467
 11
181.912
 21
-12.6884
  0
LINE
  8
0
 10
181.912
 20
-12.6884
 11
182.187
 21
-12.9464
  0
LINE
  8
0
 10
182.187
 20
-12.9464
 11
182.427
 21
-13.2366
  0
LINE
  8
0
 10
182.427
 20
-13.2366
 11
182.629
 21
-13.5547
  0
LINE
  8
0
 10
182.629
 20
-13.5547
 11
182.789
 21
-13.8956
  0
LINE
  8
0
 10
182.789
 20
-13.8956
 11
182.906
 21
-14.2539
  0
LINE
  8
0
 10
182.906
 20
-14.2539
 11
182.976
 21
-14.624
  0
LINE
  8
0
 10
182.976
 20
-14.624
 11
183
 21
-15
  0
LINE
  8
0
 10
183
 20
-15
 11
182.976
 21
-15.376
  0
LINE
  8
0
 10
182.976
 20
-15.376
 11
182.906
 21
-15.7461
  0
LINE
  8
0
 10
182.906
 20
-15.7461
 11
182.789
 21
-16.1044
  0
LINE
  8
0
 10
182.789
 20
-16.1044
 11
182.629
 21
-16.4453
  0
LINE
  8
0
 10
182.629
 20
-16.4453
 11
182.427
 21
-16.7634
  0
LINE
  8
0
 10
182.427
 20
-16.7634
 11
182.187
 21
-17.0536
  0
LINE
  8
0
 10
182.187
 20
-17.0536
 11
181.912
 21
-17.3115
  0
LINE
  8
0
 10
181.912
 20
-17.3115
 11
181.607
 21
-17.533
  0
LINE
  8
0
 10
181.607
 20
-17.533
 11
181.277
 21
-17.7145
  0
LINE
  8
0
 10
181.277
 20
-17.7145
 11
180.927
 21
-17.8532
  0
LINE
  8
0
 10
180.927
 20
-17.8532
 11
180.562
 21
-17.9469
  0
LINE
  8
0
 10
180.562
 20
-17.9469
 11
180.188
 21
-17.9941
  0
LINE
  8
0
 10
180.188
 20
-17.9941
 11
179.812
 21
-17.9941
  0
LINE
  8
0
 10
-177.211
 20
13.8956
 11
-177.371
 21
13.5547
  0
LINE
  8
0
 10
-177.371
 20
13.5547
 11
-177.573
 21
13.2366
  0
LINE
  8
0
 10
-177.573
 20
13.2366
 11
-177.813
 21
12.9464
  0
LINE
  8
0
 10
-177.813
 20
12.9464
 11
-178.088
 21
12.6884
  0
LINE
  8
0
 10
-178.088
 20
12.6884
 11
-178.393
 21
12.467
  0
LINE
  8
0
 10
-178.393
 20
12.467
 11
-178.723
 21
12.2855
  0
LINE
  8
0
 10
-178.723
 20
12.2855
 11
-179.073
 21
12.1468
  0
LINE
  8
0
 10
-179.073
 20
12.1468
 11
-179.438
 21
12.0531
  0
LINE
  8
0
 10
-179.438
 20
12.0531
 11
-179.812
 21
12.0059
  0
LINE
  8
0
 10
-179.812
 20
12.0059
 11
-180.188
 21
12.0059
  0
LINE
  8
0
 10
-180.188
 20
12.0059
 11
-180.562
 21
12.0531
  0
LINE
  8
0
 10
-180.562
 20
12.0531
 11
-180.927
 21
12.1468
  0
LINE
  8
0
 10
-180.927
 20
12.1468
 11
-181.277
 21
12.2855
  0
LINE
  8
0
 10
-181.277
 20
12.2855
 11
-181.607
 21
12.467
  0
LINE
  8
0
 10
-181.607
 20
12.467
 11
-181.912
 21
12.6884
  0
LINE
  8
0
 10
-181.912
 20
12.6884
 11
-182.187
 21
12.9464
  0
LINE
  8
0
 10
-182.187
 20
12.9464
 11
-182.427
 21
13.2366
  0
LINE
  8
0
 10
-182.427
 20
13.2366
 11
-182.629
 21
13.5547
  0
LINE
  8
0
 10
-182.629
 20
13.5547
 11
-182.789
 21
13.8956
  0
LINE
  8
0
 10
-182.789
 20
13.8956
 11
-182.906
 21
14.2539
  0
LINE
  8
0
 10
-182.906
 20
14.2539
 11
-182.976
 21
14.624
  0
LINE
  8
0
 10
-182.976
 20
14.624
 11
-183
 21
15
  0
LINE
  8
0
 10
-183
 20
15
 11
-182.976
 21
15.376
  0
LINE
  8
0
 10
-182.976
 20
15.376
 11
-182.906
 21
15.7461
  0
LINE
  8
0
 10
-182.906
 20
15.7461
 11
-182.789
 21
16.1044
  0
LINE
  8
0
 10
-182.789
 20
16.1044
 11
-182.629
 21
16.4453
  0
LINE
  8
0
 10
-182.629
 20
16.4453
 11
-182.427
 21
16.7634
  0
LINE
  8
0
 10
-182.427
 20
16.7634
 11
-182.187
 21
17.0536
  0
LINE
  8
0
 10
-182.187
 20
17.0536
 11
-181.912
 21
17.3115
  0
LINE
  8
0
 10
-181.912
 20
17.3115
 11
-181.607
 21
17.533
  0
LINE
  8
0
 10
-181.607
 20
17.533
 11
-181.277
 21
17.7145
  0
LINE
  8
0
 10
-181.277
 20
17.7145
 11
-180.927
 21
17.8532
  0
LINE
  8
0
 10
-180.927
 20
17.8532
 11
-180.562
 21
17.9469
  0
LINE
  8
0
 10
-180.562
 20
17.9469
 11
-180.188
 21
17.9941
  0
LINE
  8
0
 10
-180.188
 20
17.9941
 11
-179.812
 21
17.9941
  0
LINE
  8
0
 10
-179.812
 20
17.9941
 11
-179.438
 21
17.9469
  0
LINE
  8
0
 10
-179.438
 20
17.9469
 11
-179.073
 21
17.8532
  0
LINE
  8
0
 10
-179.073
 20
17.8532
 11
-178.723
 21
17.7145
  0
LINE
  8
0
 10
-178.723
 20
17.7145
 11
-178.393
 21
17.533
  0
LINE
  8
0
 10
-178.393
 20
17.533
 11
-178.088
 21
17.3115
  0
LINE
  8
0
 10
-178.088
 20
17.3115
 11
-177.813
 21
17.0536
  0
LINE
  8
0
 10
-177.813
 20
17.0536
 11
-177.573
 21
16.7634
  0
LINE
  8
0
 10
-177.573
 20
16.7634
 11
-177.371
 21
16.4453
  0
LINE
  8
0
 10
-177.371
 20
16.4453
 11
-177.211
 21
16.1044
  0
LINE
  8
0
 10
-177.211
 20
16.1044
 11
-177.094
 21
15.7461
  0
LINE
  8
0
 10
-177.094
 20
15.7461
 11
-177.024
 21
15.376
  0
LINE
  8
0
 10
-177.024
 20
15.376
 11
-177
 21
15
  0
LINE
  8
0
 10
-177
 20
15
 11
-177.024
 21
14.624
  0
LINE
  8
0
 10
-177.024
 20
14.624
 11
-177.094
 21
14.2539
  0
LINE
  8
0
 10
-177.094
 20
14.2539
 11
-177.211
 21
13.8956
  0
ENDSEC
  0
SECTION
  2
OBJECTS
  0
DICTIONARY
  0
ENDSEC
  0
EOF
