  0
SECTION
  2
BLOCKS
  0
ENDSEC
  0
SECTION
  2
ENTITIES
  0
LINE
  8
0
 10
62.9369
 20
-29.4114
 11
63.5451
 21
-29.2553
  0
LINE
  8
0
 10
63.5451
 20
-29.2553
 11
64.1289
 21
-29.0241
  0
LINE
  8
0
 10
64.1289
 20
-29.0241
 11
64.6791
 21
-28.7216
  0
LINE
  8
0
 10
64.6791
 20
-28.7216
 11
65.1871
 21
-28.3526
  0
LINE
  8
0
 10
65.1871
 20
-28.3526
 11
65.6448
 21
-27.9227
  0
LINE
  8
0
 10
65.6448
 20
-27.9227
 11
66.0451
 21
-27.4389
  0
LINE
  8
0
 10
66.0451
 20
-27.4389
 11
66.3815
 21
-26.9088
  0
LINE
  8
0
 10
66.3815
 20
-26.9088
 11
66.6489
 21
-26.3406
  0
LINE
  8
0
 10
66.6489
 20
-26.3406
 11
66.8429
 21
-25.7434
  0
LINE
  8
0
 10
66.8429
 20
-25.7434
 11
66.9606
 21
-25.1267
  0
LINE
  8
0
 10
66.9606
 20
-25.1267
 11
67
 21
-24.5
  0
LINE
  8
0
 10
67
 20
-24.5
 11
67
 21
24.5
  0
LINE
  8
0
 10
67
 20
24.5
 11
66.9606
 21
25.1267
  0
LINE
  8
0
 10
66.9606
 20
25.1267
 11
66.8429
 21
25.7434
  0
LINE
  8
0
 10
66.8429
 20
25.7434
 11
66.6489
 21
26.3406
  0
LINE
  8
0
 10
66.6489
 20
26.3406
 11
66.3815
 21
26.9088
  0
LINE
  8
0
 10
66.3815
 20
26.9088
 11
66.0451
 21
27.4389
  0
LINE
  8
0
 10
66.0451
 20
27.4389
 11
65.6448
 21
27.9227
  0
LINE
  8
0
 10
65.6448
 20
27.9227
 11
65.1871
 21
28.3526
  0
LINE
  8
0
 10
65.1871
 20
28.3526
 11
64.6791
 21
28.7216
  0
LINE
  8
0
 10
64.6791
 20
28.7216
 11
64.1289
 21
29.0241
  0
LINE
  8
0
 10
64.1289
 20
29.0241
 11
63.5451
 21
29.2553
  0
LINE
  8
0
 10
63.5451
 20
29.2553
 11
62.9369
 21
29.4114
  0
LINE
  8
0
 10
62.9369
 20
29.4114
 11
62.3139
 21
29.4901
  0
LINE
  8
0
 10
62.3139
 20
29.4901
 11
-62.3139
 21
29.4901
  0
LINE
  8
0
 10
-62.3139
 20
29.4901
 11
-62.9369
 21
29.4114
  0
LINE
  8
0
 10
-62.9369
 20
29.4114
 11
-63.5451
 21
29.2553
  0
LINE
  8
0
 10
-63.5451
 20
29.2553
 11
-64.1289
 21
29.0241
  0
LINE
  8
0
 10
-64.1289
 20
29.0241
 11
-64.6791
 21
28.7216
  0
LINE
  8
0
 10
-64.6791
 20
28.7216
 11
-65.1871
 21
28.3526
  0
LINE
  8
0
 10
-65.1871
 20
28.3526
 11
-65.6448
 21
27.9227
  0
LINE
  8
0
 10
-65.6448
 20
27.9227
 11
-66.0451
 21
27.4389
  0
LINE
  8
0
 10
-66.0451
 20
27.4389
 11
-66.3815
 21
26.9088
  0
LINE
  8
0
 10
-66.3815
 20
26.9088
 11
-66.6489
 21
26.3406
  0
LINE
  8
0
 10
-66.6489
 20
26.3406
 11
-66.8429
 21
25.7434
  0
LINE
  8
0
 10
-66.8429
 20
25.7434
 11
-66.9606
 21
25.1267
  0
LINE
  8
0
 10
-66.9606
 20
25.1267
 11
-67
 21
24.5
  0
LINE
  8
0
 10
-67
 20
24.5
 11
-67
 21
-24.5
  0
LINE
  8
0
 10
-67
 20
-24.5
 11
-66.9606
 21
-25.1267
  0
LINE
  8
0
 10
-66.9606
 20
-25.1267
 11
-66.8429
 21
-25.7434
  0
LINE
  8
0
 10
-66.8429
 20
-25.7434
 11
-66.6489
 21
-26.3406
  0
LINE
  8
0
 10
-66.6489
 20
-26.3406
 11
-66.3815
 21
-26.9088
  0
LINE
  8
0
 10
-66.3815
 20
-26.9088
 11
-66.0451
 21
-27.4389
  0
LINE
  8
0
 10
-66.0451
 20
-27.4389
 11
-65.6448
 21
-27.9227
  0
LINE
  8
0
 10
-65.6448
 20
-27.9227
 11
-65.1871
 21
-28.3526
  0
LINE
  8
0
 10
-65.1871
 20
-28.3526
 11
-64.6791
 21
-28.7216
  0
LINE
  8
0
 10
-64.6791
 20
-28.7216
 11
-64.1289
 21
-29.0241
  0
LINE
  8
0
 10
-64.1289
 20
-29.0241
 11
-63.5451
 21
-29.2553
  0
LINE
  8
0
 10
-63.5451
 20
-29.2553
 11
-62.9369
 21
-29.4114
  0
LINE
  8
0
 10
-62.9369
 20
-29.4114
 11
-62.3139
 21
-29.4901
  0
LINE
  8
0
 10
-62.3139
 20
-29.4901
 11
62.3139
 21
-29.4901
  0
LINE
  8
0
 10
62.3139
 20
-29.4901
 11
62.9369
 21
-29.4114
  0
LINE
  8
0
 10
-60.1884
 20
19.5059
 11
-60.5621
 21
19.5531
  0
LINE
  8
0
 10
-60.5621
 20
19.5531
 11
-60.927
 21
19.6468
  0
LINE
  8
0
 10
-60.927
 20
19.6468
 11
-61.2773
 21
19.7855
  0
LINE
  8
0
 10
-61.2773
 20
19.7855
 11
-61.6075
 21
19.967
  0
LINE
  8
0
 10
-61.6075
 20
19.967
 11
-61.9123
 21
20.1884
  0
LINE
  8
0
 10
-61.9123
 20
20.1884
 11
-62.1869
 21
20.4464
  0
LINE
  8
0
 10
-62.1869
 20
20.4464
 11
-62.427
 21
20.7366
  0
LINE
  8
0
 10
-62.427
 20
20.7366
 11
-62.6289
 21
21.0547
  0
LINE
  8
0
 10
-62.6289
 20
21.0547
 11
-62.7893
 21
21.3956
  0
LINE
  8
0
 10
-62.7893
 20
21.3956
 11
-62.9057
 21
21.7539
  0
LINE
  8
0
 10
-62.9057
 20
21.7539
 11
-62.9763
 21
22.124
  0
LINE
  8
0
 10
-62.9763
 20
22.124
 11
-63
 21
22.5
  0
LINE
  8
0
 10
-63
 20
22.5
 11
-62.9763
 21
22.876
  0
LINE
  8
0
 10
-62.9763
 20
22.876
 11
-62.9057
 21
23.2461
  0
LINE
  8
0
 10
-62.9057
 20
23.2461
 11
-62.7893
 21
23.6044
  0
LINE
  8
0
 10
-62.7893
 20
23.6044
 11
-62.6289
 21
23.9453
  0
LINE
  8
0
 10
-62.6289
 20
23.9453
 11
-62.427
 21
24.2634
  0
LINE
  8
0
 10
-62.427
 20
24.2634
 11
-62.1869
 21
24.5536
  0
LINE
  8
0
 10
-62.1869
 20
24.5536
 11
-61.9123
 21
24.8115
  0
LINE
  8
0
 10
-61.9123
 20
24.8115
 11
-61.6075
 21
25.033
  0
LINE
  8
0
 10
-61.6075
 20
25.033
 11
-61.2773
 21
25.2145
  0
LINE
  8
0
 10
-61.2773
 20
25.2145
 11
-60.927
 21
25.3532
  0
LINE
  8
0
 10
-60.927
 20
25.3532
 11
-60.5621
 21
25.4469
  0
LINE
  8
0
 10
-60.5621
 20
25.4469
 11
-60.1884
 21
25.4941
  0
LINE
  8
0
 10
-60.1884
 20
25.4941
 11
-59.8116
 21
25.4941
  0
LINE
  8
0
 10
-59.8116
 20
25.4941
 11
-59.4379
 21
25.4469
  0
LINE
  8
0
 10
-59.4379
 20
25.4469
 11
-59.0729
 21
25.3532
  0
LINE
  8
0
 10
-59.0729
 20
25.3532
 11
-58.7227
 21
25.2145
  0
LINE
  8
0
 10
-58.7227
 20
25.2145
 11
-58.3925
 21
25.033
  0
LINE
  8
0
 10
-58.3925
 20
25.033
 11
-58.0877
 21
24.8115
  0
LINE
  8
0
 10
-58.0877
 20
24.8115
 11
-57.8131
 21
24.5536
  0
LINE
  8
0
 10
-57.8131
 20
24.5536
 11
-57.5729
 21
24.2634
  0
LINE
  8
0
 10
-57.5729
 20
24.2634
 11
-57.3711
 21
23.9453
  0
LINE
  8
0
 10
-57.3711
 20
23.9453
 11
-57.2107
 21
23.6044
  0
LINE
  8
0
 10
-57.2107
 20
23.6044
 11
-57.0942
 21
23.2461
  0
LINE
  8
0
 10
-57.0942
 20
23.2461
 11
-57.0237
 21
22.876
  0
LINE
  8
0
 10
-57.0237
 20
22.876
 11
-57
 21
22.5
  0
LINE
  8
0
 10
-57
 20
22.5
 11
-57.0237
 21
22.124
  0
LINE
  8
0
 10
-57.0237
 20
22.124
 11
-57.0942
 21
21.7539
  0
LINE
  8
0
 10
-57.0942
 20
21.7539
 11
-57.2107
 21
21.3956
  0
LINE
  8
0
 10
-57.2107
 20
21.3956
 11
-57.3711
 21
21.0547
  0
LINE
  8
0
 10
-57.3711
 20
21.0547
 11
-57.5729
 21
20.7366
  0
LINE
  8
0
 10
-57.5729
 20
20.7366
 11
-57.8131
 21
20.4464
  0
LINE
  8
0
 10
-57.8131
 20
20.4464
 11
-58.0877
 21
20.1884
  0
LINE
  8
0
 10
-58.0877
 20
20.1884
 11
-58.3925
 21
19.967
  0
LINE
  8
0
 10
-58.3925
 20
19.967
 11
-58.7227
 21
19.7855
  0
LINE
  8
0
 10
-58.7227
 20
19.7855
 11
-59.0729
 21
19.6468
  0
LINE
  8
0
 10
-59.0729
 20
19.6468
 11
-59.4379
 21
19.5531
  0
LINE
  8
0
 10
-59.4379
 20
19.5531
 11
-59.8116
 21
19.5059
  0
LINE
  8
0
 10
-59.8116
 20
19.5059
 11
-60.1884
 21
19.5059
  0
LINE
  8
0
 10
59.8116
 20
19.5059
 11
59.4379
 21
19.5531
  0
LINE
  8
0
 10
59.4379
 20
19.5531
 11
59.0729
 21
19.6468
  0
LINE
  8
0
 10
59.0729
 20
19.6468
 11
58.7227
 21
19.7855
  0
LINE
  8
0
 10
58.7227
 20
19.7855
 11
58.3925
 21
19.967
  0
LINE
  8
0
 10
58.3925
 20
19.967
 11
58.0877
 21
20.1884
  0
LINE
  8
0
 10
58.0877
 20
20.1884
 11
57.8131
 21
20.4464
  0
LINE
  8
0
 10
57.8131
 20
20.4464
 11
57.5729
 21
20.7366
  0
LINE
  8
0
 10
57.5729
 20
20.7366
 11
57.3711
 21
21.0547
  0
LINE
  8
0
 10
57.3711
 20
21.0547
 11
57.2107
 21
21.3956
  0
LINE
  8
0
 10
57.2107
 20
21.3956
 11
57.0942
 21
21.7539
  0
LINE
  8
0
 10
57.0942
 20
21.7539
 11
57.0237
 21
22.124
  0
LINE
  8
0
 10
57.0237
 20
22.124
 11
57
 21
22.5
  0
LINE
  8
0
 10
57
 20
22.5
 11
57.0237
 21
22.876
  0
LINE
  8
0
 10
57.0237
 20
22.876
 11
57.0942
 21
23.2461
  0
LINE
  8
0
 10
57.0942
 20
23.2461
 11
57.2107
 21
23.6044
  0
LINE
  8
0
 10
57.2107
 20
23.6044
 11
57.3711
 21
23.9453
  0
LINE
  8
0
 10
57.3711
 20
23.9453
 11
57.5729
 21
24.2634
  0
LINE
  8
0
 10
57.5729
 20
24.2634
 11
57.8131
 21
24.5536
  0
LINE
  8
0
 10
57.8131
 20
24.5536
 11
58.0877
 21
24.8115
  0
LINE
  8
0
 10
58.0877
 20
24.8115
 11
58.3925
 21
25.033
  0
LINE
  8
0
 10
58.3925
 20
25.033
 11
58.7227
 21
25.2145
  0
LINE
  8
0
 10
58.7227
 20
25.2145
 11
59.0729
 21
25.3532
  0
LINE
  8
0
 10
59.0729
 20
25.3532
 11
59.4379
 21
25.4469
  0
LINE
  8
0
 10
59.4379
 20
25.4469
 11
59.8116
 21
25.4941
  0
LINE
  8
0
 10
59.8116
 20
25.4941
 11
60.1884
 21
25.4941
  0
LINE
  8
0
 10
60.1884
 20
25.4941
 11
60.5621
 21
25.4469
  0
LINE
  8
0
 10
60.5621
 20
25.4469
 11
60.927
 21
25.3532
  0
LINE
  8
0
 10
60.927
 20
25.3532
 11
61.2773
 21
25.2145
  0
LINE
  8
0
 10
61.2773
 20
25.2145
 11
61.6075
 21
25.033
  0
LINE
  8
0
 10
61.6075
 20
25.033
 11
61.9123
 21
24.8115
  0
LINE
  8
0
 10
61.9123
 20
24.8115
 11
62.1869
 21
24.5536
  0
LINE
  8
0
 10
62.1869
 20
24.5536
 11
62.427
 21
24.2634
  0
LINE
  8
0
 10
62.427
 20
24.2634
 11
62.6289
 21
23.9453
  0
LINE
  8
0
 10
62.6289
 20
23.9453
 11
62.7893
 21
23.6044
  0
LINE
  8
0
 10
62.7893
 20
23.6044
 11
62.9057
 21
23.2461
  0
LINE
  8
0
 10
62.9057
 20
23.2461
 11
62.9763
 21
22.876
  0
LINE
  8
0
 10
62.9763
 20
22.876
 11
63
 21
22.5
  0
LINE
  8
0
 10
63
 20
22.5
 11
62.9763
 21
22.124
  0
LINE
  8
0
 10
62.9763
 20
22.124
 11
62.9057
 21
21.7539
  0
LINE
  8
0
 10
62.9057
 20
21.7539
 11
62.7893
 21
21.3956
  0
LINE
  8
0
 10
62.7893
 20
21.3956
 11
62.6289
 21
21.0547
  0
LINE
  8
0
 10
62.6289
 20
21.0547
 11
62.427
 21
20.7366
  0
LINE
  8
0
 10
62.427
 20
20.7366
 11
62.1869
 21
20.4464
  0
LINE
  8
0
 10
62.1869
 20
20.4464
 11
61.9123
 21
20.1884
  0
LINE
  8
0
 10
61.9123
 20
20.1884
 11
61.6075
 21
19.967
  0
LINE
  8
0
 10
61.6075
 20
19.967
 11
61.2773
 21
19.7855
  0
LINE
  8
0
 10
61.2773
 20
19.7855
 11
60.927
 21
19.6468
  0
LINE
  8
0
 10
60.927
 20
19.6468
 11
60.5621
 21
19.5531
  0
LINE
  8
0
 10
60.5621
 20
19.5531
 11
60.1884
 21
19.5059
  0
LINE
  8
0
 10
60.1884
 20
19.5059
 11
59.8116
 21
19.5059
  0
LINE
  8
0
 10
-60.1884
 20
-25.4941
 11
-60.5621
 21
-25.4469
  0
LINE
  8
0
 10
-60.5621
 20
-25.4469
 11
-60.927
 21
-25.3532
  0
LINE
  8
0
 10
-60.927
 20
-25.3532
 11
-61.2773
 21
-25.2145
  0
LINE
  8
0
 10
-61.2773
 20
-25.2145
 11
-61.6075
 21
-25.033
  0
LINE
  8
0
 10
-61.6075
 20
-25.033
 11
-61.9123
 21
-24.8115
  0
LINE
  8
0
 10
-61.9123
 20
-24.8115
 11
-62.1869
 21
-24.5536
  0
LINE
  8
0
 10
-62.1869
 20
-24.5536
 11
-62.427
 21
-24.2634
  0
LINE
  8
0
 10
-62.427
 20
-24.2634
 11
-62.6289
 21
-23.9453
  0
LINE
  8
0
 10
-62.6289
 20
-23.9453
 11
-62.7893
 21
-23.6044
  0
LINE
  8
0
 10
-62.7893
 20
-23.6044
 11
-62.9057
 21
-23.2461
  0
LINE
  8
0
 10
-62.9057
 20
-23.2461
 11
-62.9763
 21
-22.876
  0
LINE
  8
0
 10
-62.9763
 20
-22.876
 11
-63
 21
-22.5
  0
LINE
  8
0
 10
-63
 20
-22.5
 11
-62.9763
 21
-22.124
  0
LINE
  8
0
 10
-62.9763
 20
-22.124
 11
-62.9057
 21
-21.7539
  0
LINE
  8
0
 10
-62.9057
 20
-21.7539
 11
-62.7893
 21
-21.3956
  0
LINE
  8
0
 10
-62.7893
 20
-21.3956
 11
-62.6289
 21
-21.0547
  0
LINE
  8
0
 10
-62.6289
 20
-21.0547
 11
-62.427
 21
-20.7366
  0
LINE
  8
0
 10
-62.427
 20
-20.7366
 11
-62.1869
 21
-20.4464
  0
LINE
  8
0
 10
-62.1869
 20
-20.4464
 11
-61.9123
 21
-20.1884
  0
LINE
  8
0
 10
-61.9123
 20
-20.1884
 11
-61.6075
 21
-19.967
  0
LINE
  8
0
 10
-61.6075
 20
-19.967
 11
-61.2773
 21
-19.7855
  0
LINE
  8
0
 10
-61.2773
 20
-19.7855
 11
-60.927
 21
-19.6468
  0
LINE
  8
0
 10
-60.927
 20
-19.6468
 11
-60.5621
 21
-19.5531
  0
LINE
  8
0
 10
-60.5621
 20
-19.5531
 11
-60.1884
 21
-19.5059
  0
LINE
  8
0
 10
-60.1884
 20
-19.5059
 11
-59.8116
 21
-19.5059
  0
LINE
  8
0
 10
-59.8116
 20
-19.5059
 11
-59.4379
 21
-19.5531
  0
LINE
  8
0
 10
-59.4379
 20
-19.5531
 11
-59.0729
 21
-19.6468
  0
LINE
  8
0
 10
-59.0729
 20
-19.6468
 11
-58.7227
 21
-19.7855
  0
LINE
  8
0
 10
-58.7227
 20
-19.7855
 11
-58.3925
 21
-19.967
  0
LINE
  8
0
 10
-58.3925
 20
-19.967
 11
-58.0877
 21
-20.1884
  0
LINE
  8
0
 10
-58.0877
 20
-20.1884
 11
-57.8131
 21
-20.4464
  0
LINE
  8
0
 10
-57.8131
 20
-20.4464
 11
-57.5729
 21
-20.7366
  0
LINE
  8
0
 10
-57.5729
 20
-20.7366
 11
-57.3711
 21
-21.0547
  0
LINE
  8
0
 10
-57.3711
 20
-21.0547
 11
-57.2107
 21
-21.3956
  0
LINE
  8
0
 10
-57.2107
 20
-21.3956
 11
-57.0942
 21
-21.7539
  0
LINE
  8
0
 10
-57.0942
 20
-21.7539
 11
-57.0237
 21
-22.124
  0
LINE
  8
0
 10
-57.0237
 20
-22.124
 11
-57
 21
-22.5
  0
LINE
  8
0
 10
-57
 20
-22.5
 11
-57.0237
 21
-22.876
  0
LINE
  8
0
 10
-57.0237
 20
-22.876
 11
-57.0942
 21
-23.2461
  0
LINE
  8
0
 10
-57.0942
 20
-23.2461
 11
-57.2107
 21
-23.6044
  0
LINE
  8
0
 10
-57.2107
 20
-23.6044
 11
-57.3711
 21
-23.9453
  0
LINE
  8
0
 10
-57.3711
 20
-23.9453
 11
-57.5729
 21
-24.2634
  0
LINE
  8
0
 10
-57.5729
 20
-24.2634
 11
-57.8131
 21
-24.5536
  0
LINE
  8
0
 10
-57.8131
 20
-24.5536
 11
-58.0877
 21
-24.8115
  0
LINE
  8
0
 10
-58.0877
 20
-24.8115
 11
-58.3925
 21
-25.033
  0
LINE
  8
0
 10
-58.3925
 20
-25.033
 11
-58.7227
 21
-25.2145
  0
LINE
  8
0
 10
-58.7227
 20
-25.2145
 11
-59.0729
 21
-25.3532
  0
LINE
  8
0
 10
-59.0729
 20
-25.3532
 11
-59.4379
 21
-25.4469
  0
LINE
  8
0
 10
-59.4379
 20
-25.4469
 11
-59.8116
 21
-25.4941
  0
LINE
  8
0
 10
-59.8116
 20
-25.4941
 11
-60.1884
 21
-25.4941
  0
LINE
  8
0
 10
59.8116
 20
-25.4941
 11
59.4379
 21
-25.4469
  0
LINE
  8
0
 10
59.4379
 20
-25.4469
 11
59.0729
 21
-25.3532
  0
LINE
  8
0
 10
59.0729
 20
-25.3532
 11
58.7227
 21
-25.2145
  0
LINE
  8
0
 10
58.7227
 20
-25.2145
 11
58.3925
 21
-25.033
  0
LINE
  8
0
 10
58.3925
 20
-25.033
 11
58.0877
 21
-24.8115
  0
LINE
  8
0
 10
58.0877
 20
-24.8115
 11
57.8131
 21
-24.5536
  0
LINE
  8
0
 10
57.8131
 20
-24.5536
 11
57.5729
 21
-24.2634
  0
LINE
  8
0
 10
57.5729
 20
-24.2634
 11
57.3711
 21
-23.9453
  0
LINE
  8
0
 10
57.3711
 20
-23.9453
 11
57.2107
 21
-23.6044
  0
LINE
  8
0
 10
57.2107
 20
-23.6044
 11
57.0942
 21
-23.2461
  0
LINE
  8
0
 10
57.0942
 20
-23.2461
 11
57.0237
 21
-22.876
  0
LINE
  8
0
 10
57.0237
 20
-22.876
 11
57
 21
-22.5
  0
LINE
  8
0
 10
57
 20
-22.5
 11
57.0237
 21
-22.124
  0
LINE
  8
0
 10
57.0237
 20
-22.124
 11
57.0942
 21
-21.7539
  0
LINE
  8
0
 10
57.0942
 20
-21.7539
 11
57.2107
 21
-21.3956
  0
LINE
  8
0
 10
57.2107
 20
-21.3956
 11
57.3711
 21
-21.0547
  0
LINE
  8
0
 10
57.3711
 20
-21.0547
 11
57.5729
 21
-20.7366
  0
LINE
  8
0
 10
57.5729
 20
-20.7366
 11
57.8131
 21
-20.4464
  0
LINE
  8
0
 10
57.8131
 20
-20.4464
 11
58.0877
 21
-20.1884
  0
LINE
  8
0
 10
58.0877
 20
-20.1884
 11
58.3925
 21
-19.967
  0
LINE
  8
0
 10
58.3925
 20
-19.967
 11
58.7227
 21
-19.7855
  0
LINE
  8
0
 10
58.7227
 20
-19.7855
 11
59.0729
 21
-19.6468
  0
LINE
  8
0
 10
59.0729
 20
-19.6468
 11
59.4379
 21
-19.5531
  0
LINE
  8
0
 10
59.4379
 20
-19.5531
 11
59.8116
 21
-19.5059
  0
LINE
  8
0
 10
59.8116
 20
-19.5059
 11
60.1884
 21
-19.5059
  0
LINE
  8
0
 10
60.1884
 20
-19.5059
 11
60.5621
 21
-19.5531
  0
LINE
  8
0
 10
60.5621
 20
-19.5531
 11
60.927
 21
-19.6468
  0
LINE
  8
0
 10
60.927
 20
-19.6468
 11
61.2773
 21
-19.7855
  0
LINE
  8
0
 10
61.2773
 20
-19.7855
 11
61.6075
 21
-19.967
  0
LINE
  8
0
 10
61.6075
 20
-19.967
 11
61.9123
 21
-20.1884
  0
LINE
  8
0
 10
61.9123
 20
-20.1884
 11
62.1869
 21
-20.4464
  0
LINE
  8
0
 10
62.1869
 20
-20.4464
 11
62.427
 21
-20.7366
  0
LINE
  8
0
 10
62.427
 20
-20.7366
 11
62.6289
 21
-21.0547
  0
LINE
  8
0
 10
62.6289
 20
-21.0547
 11
62.7893
 21
-21.3956
  0
LINE
  8
0
 10
62.7893
 20
-21.3956
 11
62.9057
 21
-21.7539
  0
LINE
  8
0
 10
62.9057
 20
-21.7539
 11
62.9763
 21
-22.124
  0
LINE
  8
0
 10
62.9763
 20
-22.124
 11
63
 21
-22.5
  0
LINE
  8
0
 10
63
 20
-22.5
 11
62.9763
 21
-22.876
  0
LINE
  8
0
 10
62.9763
 20
-22.876
 11
62.9057
 21
-23.2461
  0
LINE
  8
0
 10
62.9057
 20
-23.2461
 11
62.7893
 21
-23.6044
  0
LINE
  8
0
 10
62.7893
 20
-23.6044
 11
62.6289
 21
-23.9453
  0
LINE
  8
0
 10
62.6289
 20
-23.9453
 11
62.427
 21
-24.2634
  0
LINE
  8
0
 10
62.427
 20
-24.2634
 11
62.1869
 21
-24.5536
  0
LINE
  8
0
 10
62.1869
 20
-24.5536
 11
61.9123
 21
-24.8115
  0
LINE
  8
0
 10
61.9123
 20
-24.8115
 11
61.6075
 21
-25.033
  0
LINE
  8
0
 10
61.6075
 20
-25.033
 11
61.2773
 21
-25.2145
  0
LINE
  8
0
 10
61.2773
 20
-25.2145
 11
60.927
 21
-25.3532
  0
LINE
  8
0
 10
60.927
 20
-25.3532
 11
60.5621
 21
-25.4469
  0
LINE
  8
0
 10
60.5621
 20
-25.4469
 11
60.1884
 21
-25.4941
  0
LINE
  8
0
 10
60.1884
 20
-25.4941
 11
59.8116
 21
-25.4941
  0
ENDSEC
  0
SECTION
  2
OBJECTS
  0
DICTIONARY
  0
ENDSEC
  0
EOF
