  0
SECTION
  2
BLOCKS
  0
ENDSEC
  0
SECTION
  2
ENTITIES
  0
LINE
  8
0
 10
32.9369
 20
131.089
 11
33.5451
 21
131.245
  0
LINE
  8
0
 10
33.5451
 20
131.245
 11
34.1289
 21
131.476
  0
LINE
  8
0
 10
34.1289
 20
131.476
 11
34.6791
 21
131.778
  0
LINE
  8
0
 10
34.6791
 20
131.778
 11
35.1871
 21
132.147
  0
LINE
  8
0
 10
35.1871
 20
132.147
 11
35.6448
 21
132.577
  0
LINE
  8
0
 10
35.6448
 20
132.577
 11
36.0451
 21
133.061
  0
LINE
  8
0
 10
36.0451
 20
133.061
 11
36.3815
 21
133.591
  0
LINE
  8
0
 10
36.3815
 20
133.591
 11
36.6489
 21
134.159
  0
LINE
  8
0
 10
36.6489
 20
134.159
 11
36.8429
 21
134.757
  0
LINE
  8
0
 10
36.8429
 20
134.757
 11
36.9606
 21
135.373
  0
LINE
  8
0
 10
36.9606
 20
135.373
 11
37
 21
136
  0
LINE
  8
0
 10
37
 20
136
 11
37
 21
200
  0
LINE
  8
0
 10
37
 20
200
 11
36.9606
 21
200.627
  0
LINE
  8
0
 10
36.9606
 20
200.627
 11
36.8429
 21
201.243
  0
LINE
  8
0
 10
36.8429
 20
201.243
 11
36.6489
 21
201.841
  0
LINE
  8
0
 10
36.6489
 20
201.841
 11
36.3815
 21
202.409
  0
LINE
  8
0
 10
36.3815
 20
202.409
 11
36.0451
 21
202.939
  0
LINE
  8
0
 10
36.0451
 20
202.939
 11
35.6448
 21
203.423
  0
LINE
  8
0
 10
35.6448
 20
203.423
 11
35.1871
 21
203.853
  0
LINE
  8
0
 10
35.1871
 20
203.853
 11
34.6791
 21
204.222
  0
LINE
  8
0
 10
34.6791
 20
204.222
 11
34.1289
 21
204.524
  0
LINE
  8
0
 10
34.1289
 20
204.524
 11
33.5451
 21
204.755
  0
LINE
  8
0
 10
33.5451
 20
204.755
 11
32.9369
 21
204.911
  0
LINE
  8
0
 10
32.9369
 20
204.911
 11
32.3139
 21
204.99
  0
LINE
  8
0
 10
32.3139
 20
204.99
 11
-32.3139
 21
204.99
  0
LINE
  8
0
 10
-32.3139
 20
204.99
 11
-32.9369
 21
204.911
  0
LINE
  8
0
 10
-32.9369
 20
204.911
 11
-33.5451
 21
204.755
  0
LINE
  8
0
 10
-33.5451
 20
204.755
 11
-34.1289
 21
204.524
  0
LINE
  8
0
 10
-34.1289
 20
204.524
 11
-34.6791
 21
204.222
  0
LINE
  8
0
 10
-34.6791
 20
204.222
 11
-35.1871
 21
203.853
  0
LINE
  8
0
 10
-35.1871
 20
203.853
 11
-35.6448
 21
203.423
  0
LINE
  8
0
 10
-35.6448
 20
203.423
 11
-36.0451
 21
202.939
  0
LINE
  8
0
 10
-36.0451
 20
202.939
 11
-36.3815
 21
202.409
  0
LINE
  8
0
 10
-36.3815
 20
202.409
 11
-36.6489
 21
201.841
  0
LINE
  8
0
 10
-36.6489
 20
201.841
 11
-36.8429
 21
201.243
  0
LINE
  8
0
 10
-36.8429
 20
201.243
 11
-36.9606
 21
200.627
  0
LINE
  8
0
 10
-36.9606
 20
200.627
 11
-37
 21
200
  0
LINE
  8
0
 10
-37
 20
200
 11
-37
 21
136
  0
LINE
  8
0
 10
-37
 20
136
 11
-36.9606
 21
135.373
  0
LINE
  8
0
 10
-36.9606
 20
135.373
 11
-36.8429
 21
134.757
  0
LINE
  8
0
 10
-36.8429
 20
134.757
 11
-36.6489
 21
134.159
  0
LINE
  8
0
 10
-36.6489
 20
134.159
 11
-36.3815
 21
133.591
  0
LINE
  8
0
 10
-36.3815
 20
133.591
 11
-36.0451
 21
133.061
  0
LINE
  8
0
 10
-36.0451
 20
133.061
 11
-35.6448
 21
132.577
  0
LINE
  8
0
 10
-35.6448
 20
132.577
 11
-35.1871
 21
132.147
  0
LINE
  8
0
 10
-35.1871
 20
132.147
 11
-34.6791
 21
131.778
  0
LINE
  8
0
 10
-34.6791
 20
131.778
 11
-34.1289
 21
131.476
  0
LINE
  8
0
 10
-34.1289
 20
131.476
 11
-33.5451
 21
131.245
  0
LINE
  8
0
 10
-33.5451
 20
131.245
 11
-32.9369
 21
131.089
  0
LINE
  8
0
 10
-32.9369
 20
131.089
 11
-32.3139
 21
131.01
  0
LINE
  8
0
 10
-32.3139
 20
131.01
 11
32.3139
 21
131.01
  0
LINE
  8
0
 10
32.3139
 20
131.01
 11
32.9369
 21
131.089
  0
LINE
  8
0
 10
-15.1884
 20
195.006
 11
-15.5621
 21
195.053
  0
LINE
  8
0
 10
-15.5621
 20
195.053
 11
-15.927
 21
195.147
  0
LINE
  8
0
 10
-15.927
 20
195.147
 11
-16.2773
 21
195.286
  0
LINE
  8
0
 10
-16.2773
 20
195.286
 11
-16.6075
 21
195.467
  0
LINE
  8
0
 10
-16.6075
 20
195.467
 11
-16.9123
 21
195.688
  0
LINE
  8
0
 10
-16.9123
 20
195.688
 11
-17.1869
 21
195.946
  0
LINE
  8
0
 10
-17.1869
 20
195.946
 11
-17.427
 21
196.237
  0
LINE
  8
0
 10
-17.427
 20
196.237
 11
-17.6289
 21
196.555
  0
LINE
  8
0
 10
-17.6289
 20
196.555
 11
-17.7893
 21
196.896
  0
LINE
  8
0
 10
-17.7893
 20
196.896
 11
-17.9057
 21
197.254
  0
LINE
  8
0
 10
-17.9057
 20
197.254
 11
-17.9763
 21
197.624
  0
LINE
  8
0
 10
-17.9763
 20
197.624
 11
-18
 21
198
  0
LINE
  8
0
 10
-18
 20
198
 11
-17.9763
 21
198.376
  0
LINE
  8
0
 10
-17.9763
 20
198.376
 11
-17.9057
 21
198.746
  0
LINE
  8
0
 10
-17.9057
 20
198.746
 11
-17.7893
 21
199.104
  0
LINE
  8
0
 10
-17.7893
 20
199.104
 11
-17.6289
 21
199.445
  0
LINE
  8
0
 10
-17.6289
 20
199.445
 11
-17.427
 21
199.763
  0
LINE
  8
0
 10
-17.427
 20
199.763
 11
-17.1869
 21
200.054
  0
LINE
  8
0
 10
-17.1869
 20
200.054
 11
-16.9123
 21
200.312
  0
LINE
  8
0
 10
-16.9123
 20
200.312
 11
-16.6075
 21
200.533
  0
LINE
  8
0
 10
-16.6075
 20
200.533
 11
-16.2773
 21
200.714
  0
LINE
  8
0
 10
-16.2773
 20
200.714
 11
-15.927
 21
200.853
  0
LINE
  8
0
 10
-15.927
 20
200.853
 11
-15.5621
 21
200.947
  0
LINE
  8
0
 10
-15.5621
 20
200.947
 11
-15.1884
 21
200.994
  0
LINE
  8
0
 10
-15.1884
 20
200.994
 11
-14.8116
 21
200.994
  0
LINE
  8
0
 10
-14.8116
 20
200.994
 11
-14.4379
 21
200.947
  0
LINE
  8
0
 10
-14.4379
 20
200.947
 11
-14.0729
 21
200.853
  0
LINE
  8
0
 10
-14.0729
 20
200.853
 11
-13.7227
 21
200.714
  0
LINE
  8
0
 10
-13.7227
 20
200.714
 11
-13.3925
 21
200.533
  0
LINE
  8
0
 10
-13.3925
 20
200.533
 11
-13.0877
 21
200.312
  0
LINE
  8
0
 10
-13.0877
 20
200.312
 11
-12.8131
 21
200.054
  0
LINE
  8
0
 10
-12.8131
 20
200.054
 11
-12.5729
 21
199.763
  0
LINE
  8
0
 10
-12.5729
 20
199.763
 11
-12.3711
 21
199.445
  0
LINE
  8
0
 10
-12.3711
 20
199.445
 11
-12.2107
 21
199.104
  0
LINE
  8
0
 10
-12.2107
 20
199.104
 11
-12.0942
 21
198.746
  0
LINE
  8
0
 10
-12.0942
 20
198.746
 11
-12.0237
 21
198.376
  0
LINE
  8
0
 10
-12.0237
 20
198.376
 11
-12
 21
198
  0
LINE
  8
0
 10
-12
 20
198
 11
-12.0237
 21
197.624
  0
LINE
  8
0
 10
-12.0237
 20
197.624
 11
-12.0942
 21
197.254
  0
LINE
  8
0
 10
-12.0942
 20
197.254
 11
-12.2107
 21
196.896
  0
LINE
  8
0
 10
-12.2107
 20
196.896
 11
-12.3711
 21
196.555
  0
LINE
  8
0
 10
-12.3711
 20
196.555
 11
-12.5729
 21
196.237
  0
LINE
  8
0
 10
-12.5729
 20
196.237
 11
-12.8131
 21
195.946
  0
LINE
  8
0
 10
-12.8131
 20
195.946
 11
-13.0877
 21
195.688
  0
LINE
  8
0
 10
-13.0877
 20
195.688
 11
-13.3925
 21
195.467
  0
LINE
  8
0
 10
-13.3925
 20
195.467
 11
-13.7227
 21
195.286
  0
LINE
  8
0
 10
-13.7227
 20
195.286
 11
-14.0729
 21
195.147
  0
LINE
  8
0
 10
-14.0729
 20
195.147
 11
-14.4379
 21
195.053
  0
LINE
  8
0
 10
-14.4379
 20
195.053
 11
-14.8116
 21
195.006
  0
LINE
  8
0
 10
-14.8116
 20
195.006
 11
-15.1884
 21
195.006
  0
LINE
  8
0
 10
-0.18837
 20
195.006
 11
-0.562134
 21
195.053
  0
LINE
  8
0
 10
-0.562134
 20
195.053
 11
-0.927048
 21
195.147
  0
LINE
  8
0
 10
-0.927048
 20
195.147
 11
-1.27733
 21
195.286
  0
LINE
  8
0
 10
-1.27733
 20
195.286
 11
-1.60747
 21
195.467
  0
LINE
  8
0
 10
-1.60747
 20
195.467
 11
-1.91226
 21
195.688
  0
LINE
  8
0
 10
-1.91226
 20
195.688
 11
-2.1869
 21
195.946
  0
LINE
  8
0
 10
-2.1869
 20
195.946
 11
-2.42705
 21
196.237
  0
LINE
  8
0
 10
-2.42705
 20
196.237
 11
-2.62891
 21
196.555
  0
LINE
  8
0
 10
-2.62891
 20
196.555
 11
-2.78932
 21
196.896
  0
LINE
  8
0
 10
-2.78932
 20
196.896
 11
-2.90575
 21
197.254
  0
LINE
  8
0
 10
-2.90575
 20
197.254
 11
-2.97633
 21
197.624
  0
LINE
  8
0
 10
-2.97633
 20
197.624
 11
-3
 21
198
  0
LINE
  8
0
 10
-3
 20
198
 11
-2.97633
 21
198.376
  0
LINE
  8
0
 10
-2.97633
 20
198.376
 11
-2.90575
 21
198.746
  0
LINE
  8
0
 10
-2.90575
 20
198.746
 11
-2.78932
 21
199.104
  0
LINE
  8
0
 10
-2.78932
 20
199.104
 11
-2.62891
 21
199.445
  0
LINE
  8
0
 10
-2.62891
 20
199.445
 11
-2.42705
 21
199.763
  0
LINE
  8
0
 10
-2.42705
 20
199.763
 11
-2.1869
 21
200.054
  0
LINE
  8
0
 10
-2.1869
 20
200.054
 11
-1.91226
 21
200.312
  0
LINE
  8
0
 10
-1.91226
 20
200.312
 11
-1.60747
 21
200.533
  0
LINE
  8
0
 10
-1.60747
 20
200.533
 11
-1.27733
 21
200.714
  0
LINE
  8
0
 10
-1.27733
 20
200.714
 11
-0.927048
 21
200.853
  0
LINE
  8
0
 10
-0.927048
 20
200.853
 11
-0.562134
 21
200.947
  0
LINE
  8
0
 10
-0.562134
 20
200.947
 11
-0.18837
 21
200.994
  0
LINE
  8
0
 10
-0.18837
 20
200.994
 11
0.18837
 21
200.994
  0
LINE
  8
0
 10
0.18837
 20
200.994
 11
0.562134
 21
200.947
  0
LINE
  8
0
 10
0.562134
 20
200.947
 11
0.927048
 21
200.853
  0
LINE
  8
0
 10
0.927048
 20
200.853
 11
1.27733
 21
200.714
  0
LINE
  8
0
 10
1.27733
 20
200.714
 11
1.60747
 21
200.533
  0
LINE
  8
0
 10
1.60747
 20
200.533
 11
1.91226
 21
200.312
  0
LINE
  8
0
 10
1.91226
 20
200.312
 11
2.1869
 21
200.054
  0
LINE
  8
0
 10
2.1869
 20
200.054
 11
2.42705
 21
199.763
  0
LINE
  8
0
 10
2.42705
 20
199.763
 11
2.62891
 21
199.445
  0
LINE
  8
0
 10
2.62891
 20
199.445
 11
2.78932
 21
199.104
  0
LINE
  8
0
 10
2.78932
 20
199.104
 11
2.90575
 21
198.746
  0
LINE
  8
0
 10
2.90575
 20
198.746
 11
2.97633
 21
198.376
  0
LINE
  8
0
 10
2.97633
 20
198.376
 11
3
 21
198
  0
LINE
  8
0
 10
3
 20
198
 11
2.97633
 21
197.624
  0
LINE
  8
0
 10
2.97633
 20
197.624
 11
2.90575
 21
197.254
  0
LINE
  8
0
 10
2.90575
 20
197.254
 11
2.78932
 21
196.896
  0
LINE
  8
0
 10
2.78932
 20
196.896
 11
2.62891
 21
196.555
  0
LINE
  8
0
 10
2.62891
 20
196.555
 11
2.42705
 21
196.237
  0
LINE
  8
0
 10
2.42705
 20
196.237
 11
2.1869
 21
195.946
  0
LINE
  8
0
 10
2.1869
 20
195.946
 11
1.91226
 21
195.688
  0
LINE
  8
0
 10
1.91226
 20
195.688
 11
1.60747
 21
195.467
  0
LINE
  8
0
 10
1.60747
 20
195.467
 11
1.27733
 21
195.286
  0
LINE
  8
0
 10
1.27733
 20
195.286
 11
0.927048
 21
195.147
  0
LINE
  8
0
 10
0.927048
 20
195.147
 11
0.562134
 21
195.053
  0
LINE
  8
0
 10
0.562134
 20
195.053
 11
0.18837
 21
195.006
  0
LINE
  8
0
 10
0.18837
 20
195.006
 11
-0.18837
 21
195.006
  0
LINE
  8
0
 10
29.8116
 20
195.006
 11
29.4379
 21
195.053
  0
LINE
  8
0
 10
29.4379
 20
195.053
 11
29.0729
 21
195.147
  0
LINE
  8
0
 10
29.0729
 20
195.147
 11
28.7227
 21
195.286
  0
LINE
  8
0
 10
28.7227
 20
195.286
 11
28.3925
 21
195.467
  0
LINE
  8
0
 10
28.3925
 20
195.467
 11
28.0877
 21
195.688
  0
LINE
  8
0
 10
28.0877
 20
195.688
 11
27.8131
 21
195.946
  0
LINE
  8
0
 10
27.8131
 20
195.946
 11
27.5729
 21
196.237
  0
LINE
  8
0
 10
27.5729
 20
196.237
 11
27.3711
 21
196.555
  0
LINE
  8
0
 10
27.3711
 20
196.555
 11
27.2107
 21
196.896
  0
LINE
  8
0
 10
27.2107
 20
196.896
 11
27.0942
 21
197.254
  0
LINE
  8
0
 10
27.0942
 20
197.254
 11
27.0237
 21
197.624
  0
LINE
  8
0
 10
27.0237
 20
197.624
 11
27
 21
198
  0
LINE
  8
0
 10
27
 20
198
 11
27.0237
 21
198.376
  0
LINE
  8
0
 10
27.0237
 20
198.376
 11
27.0942
 21
198.746
  0
LINE
  8
0
 10
27.0942
 20
198.746
 11
27.2107
 21
199.104
  0
LINE
  8
0
 10
27.2107
 20
199.104
 11
27.3711
 21
199.445
  0
LINE
  8
0
 10
27.3711
 20
199.445
 11
27.5729
 21
199.763
  0
LINE
  8
0
 10
27.5729
 20
199.763
 11
27.8131
 21
200.054
  0
LINE
  8
0
 10
27.8131
 20
200.054
 11
28.0877
 21
200.312
  0
LINE
  8
0
 10
28.0877
 20
200.312
 11
28.3925
 21
200.533
  0
LINE
  8
0
 10
28.3925
 20
200.533
 11
28.7227
 21
200.714
  0
LINE
  8
0
 10
28.7227
 20
200.714
 11
29.0729
 21
200.853
  0
LINE
  8
0
 10
29.0729
 20
200.853
 11
29.4379
 21
200.947
  0
LINE
  8
0
 10
29.4379
 20
200.947
 11
29.8116
 21
200.994
  0
LINE
  8
0
 10
29.8116
 20
200.994
 11
30.1884
 21
200.994
  0
LINE
  8
0
 10
30.1884
 20
200.994
 11
30.5621
 21
200.947
  0
LINE
  8
0
 10
30.5621
 20
200.947
 11
30.927
 21
200.853
  0
LINE
  8
0
 10
30.927
 20
200.853
 11
31.2773
 21
200.714
  0
LINE
  8
0
 10
31.2773
 20
200.714
 11
31.6075
 21
200.533
  0
LINE
  8
0
 10
31.6075
 20
200.533
 11
31.9123
 21
200.312
  0
LINE
  8
0
 10
31.9123
 20
200.312
 11
32.1869
 21
200.054
  0
LINE
  8
0
 10
32.1869
 20
200.054
 11
32.427
 21
199.763
  0
LINE
  8
0
 10
32.427
 20
199.763
 11
32.6289
 21
199.445
  0
LINE
  8
0
 10
32.6289
 20
199.445
 11
32.7893
 21
199.104
  0
LINE
  8
0
 10
32.7893
 20
199.104
 11
32.9057
 21
198.746
  0
LINE
  8
0
 10
32.9057
 20
198.746
 11
32.9763
 21
198.376
  0
LINE
  8
0
 10
32.9763
 20
198.376
 11
33
 21
198
  0
LINE
  8
0
 10
33
 20
198
 11
32.9763
 21
197.624
  0
LINE
  8
0
 10
32.9763
 20
197.624
 11
32.9057
 21
197.254
  0
LINE
  8
0
 10
32.9057
 20
197.254
 11
32.7893
 21
196.896
  0
LINE
  8
0
 10
32.7893
 20
196.896
 11
32.6289
 21
196.555
  0
LINE
  8
0
 10
32.6289
 20
196.555
 11
32.427
 21
196.237
  0
LINE
  8
0
 10
32.427
 20
196.237
 11
32.1869
 21
195.946
  0
LINE
  8
0
 10
32.1869
 20
195.946
 11
31.9123
 21
195.688
  0
LINE
  8
0
 10
31.9123
 20
195.688
 11
31.6075
 21
195.467
  0
LINE
  8
0
 10
31.6075
 20
195.467
 11
31.2773
 21
195.286
  0
LINE
  8
0
 10
31.2773
 20
195.286
 11
30.927
 21
195.147
  0
LINE
  8
0
 10
30.927
 20
195.147
 11
30.5621
 21
195.053
  0
LINE
  8
0
 10
30.5621
 20
195.053
 11
30.1884
 21
195.006
  0
LINE
  8
0
 10
30.1884
 20
195.006
 11
29.8116
 21
195.006
  0
LINE
  8
0
 10
14.8116
 20
195.006
 11
14.4379
 21
195.053
  0
LINE
  8
0
 10
14.4379
 20
195.053
 11
14.0729
 21
195.147
  0
LINE
  8
0
 10
14.0729
 20
195.147
 11
13.7227
 21
195.286
  0
LINE
  8
0
 10
13.7227
 20
195.286
 11
13.3925
 21
195.467
  0
LINE
  8
0
 10
13.3925
 20
195.467
 11
13.0877
 21
195.688
  0
LINE
  8
0
 10
13.0877
 20
195.688
 11
12.8131
 21
195.946
  0
LINE
  8
0
 10
12.8131
 20
195.946
 11
12.5729
 21
196.237
  0
LINE
  8
0
 10
12.5729
 20
196.237
 11
12.3711
 21
196.555
  0
LINE
  8
0
 10
12.3711
 20
196.555
 11
12.2107
 21
196.896
  0
LINE
  8
0
 10
12.2107
 20
196.896
 11
12.0942
 21
197.254
  0
LINE
  8
0
 10
12.0942
 20
197.254
 11
12.0237
 21
197.624
  0
LINE
  8
0
 10
12.0237
 20
197.624
 11
12
 21
198
  0
LINE
  8
0
 10
12
 20
198
 11
12.0237
 21
198.376
  0
LINE
  8
0
 10
12.0237
 20
198.376
 11
12.0942
 21
198.746
  0
LINE
  8
0
 10
12.0942
 20
198.746
 11
12.2107
 21
199.104
  0
LINE
  8
0
 10
12.2107
 20
199.104
 11
12.3711
 21
199.445
  0
LINE
  8
0
 10
12.3711
 20
199.445
 11
12.5729
 21
199.763
  0
LINE
  8
0
 10
12.5729
 20
199.763
 11
12.8131
 21
200.054
  0
LINE
  8
0
 10
12.8131
 20
200.054
 11
13.0877
 21
200.312
  0
LINE
  8
0
 10
13.0877
 20
200.312
 11
13.3925
 21
200.533
  0
LINE
  8
0
 10
13.3925
 20
200.533
 11
13.7227
 21
200.714
  0
LINE
  8
0
 10
13.7227
 20
200.714
 11
14.0729
 21
200.853
  0
LINE
  8
0
 10
14.0729
 20
200.853
 11
14.4379
 21
200.947
  0
LINE
  8
0
 10
14.4379
 20
200.947
 11
14.8116
 21
200.994
  0
LINE
  8
0
 10
14.8116
 20
200.994
 11
15.1884
 21
200.994
  0
LINE
  8
0
 10
15.1884
 20
200.994
 11
15.5621
 21
200.947
  0
LINE
  8
0
 10
15.5621
 20
200.947
 11
15.927
 21
200.853
  0
LINE
  8
0
 10
15.927
 20
200.853
 11
16.2773
 21
200.714
  0
LINE
  8
0
 10
16.2773
 20
200.714
 11
16.6075
 21
200.533
  0
LINE
  8
0
 10
16.6075
 20
200.533
 11
16.9123
 21
200.312
  0
LINE
  8
0
 10
16.9123
 20
200.312
 11
17.1869
 21
200.054
  0
LINE
  8
0
 10
17.1869
 20
200.054
 11
17.427
 21
199.763
  0
LINE
  8
0
 10
17.427
 20
199.763
 11
17.6289
 21
199.445
  0
LINE
  8
0
 10
17.6289
 20
199.445
 11
17.7893
 21
199.104
  0
LINE
  8
0
 10
17.7893
 20
199.104
 11
17.9057
 21
198.746
  0
LINE
  8
0
 10
17.9057
 20
198.746
 11
17.9763
 21
198.376
  0
LINE
  8
0
 10
17.9763
 20
198.376
 11
18
 21
198
  0
LINE
  8
0
 10
18
 20
198
 11
17.9763
 21
197.624
  0
LINE
  8
0
 10
17.9763
 20
197.624
 11
17.9057
 21
197.254
  0
LINE
  8
0
 10
17.9057
 20
197.254
 11
17.7893
 21
196.896
  0
LINE
  8
0
 10
17.7893
 20
196.896
 11
17.6289
 21
196.555
  0
LINE
  8
0
 10
17.6289
 20
196.555
 11
17.427
 21
196.237
  0
LINE
  8
0
 10
17.427
 20
196.237
 11
17.1869
 21
195.946
  0
LINE
  8
0
 10
17.1869
 20
195.946
 11
16.9123
 21
195.688
  0
LINE
  8
0
 10
16.9123
 20
195.688
 11
16.6075
 21
195.467
  0
LINE
  8
0
 10
16.6075
 20
195.467
 11
16.2773
 21
195.286
  0
LINE
  8
0
 10
16.2773
 20
195.286
 11
15.927
 21
195.147
  0
LINE
  8
0
 10
15.927
 20
195.147
 11
15.5621
 21
195.053
  0
LINE
  8
0
 10
15.5621
 20
195.053
 11
15.1884
 21
195.006
  0
LINE
  8
0
 10
15.1884
 20
195.006
 11
14.8116
 21
195.006
  0
LINE
  8
0
 10
-30.1884
 20
195.006
 11
-30.5621
 21
195.053
  0
LINE
  8
0
 10
-30.5621
 20
195.053
 11
-30.927
 21
195.147
  0
LINE
  8
0
 10
-30.927
 20
195.147
 11
-31.2773
 21
195.286
  0
LINE
  8
0
 10
-31.2773
 20
195.286
 11
-31.6075
 21
195.467
  0
LINE
  8
0
 10
-31.6075
 20
195.467
 11
-31.9123
 21
195.688
  0
LINE
  8
0
 10
-31.9123
 20
195.688
 11
-32.1869
 21
195.946
  0
LINE
  8
0
 10
-32.1869
 20
195.946
 11
-32.427
 21
196.237
  0
LINE
  8
0
 10
-32.427
 20
196.237
 11
-32.6289
 21
196.555
  0
LINE
  8
0
 10
-32.6289
 20
196.555
 11
-32.7893
 21
196.896
  0
LINE
  8
0
 10
-32.7893
 20
196.896
 11
-32.9057
 21
197.254
  0
LINE
  8
0
 10
-32.9057
 20
197.254
 11
-32.9763
 21
197.624
  0
LINE
  8
0
 10
-32.9763
 20
197.624
 11
-33
 21
198
  0
LINE
  8
0
 10
-33
 20
198
 11
-32.9763
 21
198.376
  0
LINE
  8
0
 10
-32.9763
 20
198.376
 11
-32.9057
 21
198.746
  0
LINE
  8
0
 10
-32.9057
 20
198.746
 11
-32.7893
 21
199.104
  0
LINE
  8
0
 10
-32.7893
 20
199.104
 11
-32.6289
 21
199.445
  0
LINE
  8
0
 10
-32.6289
 20
199.445
 11
-32.427
 21
199.763
  0
LINE
  8
0
 10
-32.427
 20
199.763
 11
-32.1869
 21
200.054
  0
LINE
  8
0
 10
-32.1869
 20
200.054
 11
-31.9123
 21
200.312
  0
LINE
  8
0
 10
-31.9123
 20
200.312
 11
-31.6075
 21
200.533
  0
LINE
  8
0
 10
-31.6075
 20
200.533
 11
-31.2773
 21
200.714
  0
LINE
  8
0
 10
-31.2773
 20
200.714
 11
-30.927
 21
200.853
  0
LINE
  8
0
 10
-30.927
 20
200.853
 11
-30.5621
 21
200.947
  0
LINE
  8
0
 10
-30.5621
 20
200.947
 11
-30.1884
 21
200.994
  0
LINE
  8
0
 10
-30.1884
 20
200.994
 11
-29.8116
 21
200.994
  0
LINE
  8
0
 10
-29.8116
 20
200.994
 11
-29.4379
 21
200.947
  0
LINE
  8
0
 10
-29.4379
 20
200.947
 11
-29.0729
 21
200.853
  0
LINE
  8
0
 10
-29.0729
 20
200.853
 11
-28.7227
 21
200.714
  0
LINE
  8
0
 10
-28.7227
 20
200.714
 11
-28.3925
 21
200.533
  0
LINE
  8
0
 10
-28.3925
 20
200.533
 11
-28.0877
 21
200.312
  0
LINE
  8
0
 10
-28.0877
 20
200.312
 11
-27.8131
 21
200.054
  0
LINE
  8
0
 10
-27.8131
 20
200.054
 11
-27.5729
 21
199.763
  0
LINE
  8
0
 10
-27.5729
 20
199.763
 11
-27.3711
 21
199.445
  0
LINE
  8
0
 10
-27.3711
 20
199.445
 11
-27.2107
 21
199.104
  0
LINE
  8
0
 10
-27.2107
 20
199.104
 11
-27.0942
 21
198.746
  0
LINE
  8
0
 10
-27.0942
 20
198.746
 11
-27.0237
 21
198.376
  0
LINE
  8
0
 10
-27.0237
 20
198.376
 11
-27
 21
198
  0
LINE
  8
0
 10
-27
 20
198
 11
-27.0237
 21
197.624
  0
LINE
  8
0
 10
-27.0237
 20
197.624
 11
-27.0942
 21
197.254
  0
LINE
  8
0
 10
-27.0942
 20
197.254
 11
-27.2107
 21
196.896
  0
LINE
  8
0
 10
-27.2107
 20
196.896
 11
-27.3711
 21
196.555
  0
LINE
  8
0
 10
-27.3711
 20
196.555
 11
-27.5729
 21
196.237
  0
LINE
  8
0
 10
-27.5729
 20
196.237
 11
-27.8131
 21
195.946
  0
LINE
  8
0
 10
-27.8131
 20
195.946
 11
-28.0877
 21
195.688
  0
LINE
  8
0
 10
-28.0877
 20
195.688
 11
-28.3925
 21
195.467
  0
LINE
  8
0
 10
-28.3925
 20
195.467
 11
-28.7227
 21
195.286
  0
LINE
  8
0
 10
-28.7227
 20
195.286
 11
-29.0729
 21
195.147
  0
LINE
  8
0
 10
-29.0729
 20
195.147
 11
-29.4379
 21
195.053
  0
LINE
  8
0
 10
-29.4379
 20
195.053
 11
-29.8116
 21
195.006
  0
LINE
  8
0
 10
-29.8116
 20
195.006
 11
-30.1884
 21
195.006
  0
LINE
  8
0
 10
14.8116
 20
180.006
 11
14.4379
 21
180.053
  0
LINE
  8
0
 10
14.4379
 20
180.053
 11
14.0729
 21
180.147
  0
LINE
  8
0
 10
14.0729
 20
180.147
 11
13.7227
 21
180.286
  0
LINE
  8
0
 10
13.7227
 20
180.286
 11
13.3925
 21
180.467
  0
LINE
  8
0
 10
13.3925
 20
180.467
 11
13.0877
 21
180.688
  0
LINE
  8
0
 10
13.0877
 20
180.688
 11
12.8131
 21
180.946
  0
LINE
  8
0
 10
12.8131
 20
180.946
 11
12.5729
 21
181.237
  0
LINE
  8
0
 10
12.5729
 20
181.237
 11
12.3711
 21
181.555
  0
LINE
  8
0
 10
12.3711
 20
181.555
 11
12.2107
 21
181.896
  0
LINE
  8
0
 10
12.2107
 20
181.896
 11
12.0942
 21
182.254
  0
LINE
  8
0
 10
12.0942
 20
182.254
 11
12.0237
 21
182.624
  0
LINE
  8
0
 10
12.0237
 20
182.624
 11
12
 21
183
  0
LINE
  8
0
 10
12
 20
183
 11
12.0237
 21
183.376
  0
LINE
  8
0
 10
12.0237
 20
183.376
 11
12.0942
 21
183.746
  0
LINE
  8
0
 10
12.0942
 20
183.746
 11
12.2107
 21
184.104
  0
LINE
  8
0
 10
12.2107
 20
184.104
 11
12.3711
 21
184.445
  0
LINE
  8
0
 10
12.3711
 20
184.445
 11
12.5729
 21
184.763
  0
LINE
  8
0
 10
12.5729
 20
184.763
 11
12.8131
 21
185.054
  0
LINE
  8
0
 10
12.8131
 20
185.054
 11
13.0877
 21
185.312
  0
LINE
  8
0
 10
13.0877
 20
185.312
 11
13.3925
 21
185.533
  0
LINE
  8
0
 10
13.3925
 20
185.533
 11
13.7227
 21
185.714
  0
LINE
  8
0
 10
13.7227
 20
185.714
 11
14.0729
 21
185.853
  0
LINE
  8
0
 10
14.0729
 20
185.853
 11
14.4379
 21
185.947
  0
LINE
  8
0
 10
14.4379
 20
185.947
 11
14.8116
 21
185.994
  0
LINE
  8
0
 10
14.8116
 20
185.994
 11
15.1884
 21
185.994
  0
LINE
  8
0
 10
15.1884
 20
185.994
 11
15.5621
 21
185.947
  0
LINE
  8
0
 10
15.5621
 20
185.947
 11
15.927
 21
185.853
  0
LINE
  8
0
 10
15.927
 20
185.853
 11
16.2773
 21
185.714
  0
LINE
  8
0
 10
16.2773
 20
185.714
 11
16.6075
 21
185.533
  0
LINE
  8
0
 10
16.6075
 20
185.533
 11
16.9123
 21
185.312
  0
LINE
  8
0
 10
16.9123
 20
185.312
 11
17.1869
 21
185.054
  0
LINE
  8
0
 10
17.1869
 20
185.054
 11
17.427
 21
184.763
  0
LINE
  8
0
 10
17.427
 20
184.763
 11
17.6289
 21
184.445
  0
LINE
  8
0
 10
17.6289
 20
184.445
 11
17.7893
 21
184.104
  0
LINE
  8
0
 10
17.7893
 20
184.104
 11
17.9057
 21
183.746
  0
LINE
  8
0
 10
17.9057
 20
183.746
 11
17.9763
 21
183.376
  0
LINE
  8
0
 10
17.9763
 20
183.376
 11
18
 21
183
  0
LINE
  8
0
 10
18
 20
183
 11
17.9763
 21
182.624
  0
LINE
  8
0
 10
17.9763
 20
182.624
 11
17.9057
 21
182.254
  0
LINE
  8
0
 10
17.9057
 20
182.254
 11
17.7893
 21
181.896
  0
LINE
  8
0
 10
17.7893
 20
181.896
 11
17.6289
 21
181.555
  0
LINE
  8
0
 10
17.6289
 20
181.555
 11
17.427
 21
181.237
  0
LINE
  8
0
 10
17.427
 20
181.237
 11
17.1869
 21
180.946
  0
LINE
  8
0
 10
17.1869
 20
180.946
 11
16.9123
 21
180.688
  0
LINE
  8
0
 10
16.9123
 20
180.688
 11
16.6075
 21
180.467
  0
LINE
  8
0
 10
16.6075
 20
180.467
 11
16.2773
 21
180.286
  0
LINE
  8
0
 10
16.2773
 20
180.286
 11
15.927
 21
180.147
  0
LINE
  8
0
 10
15.927
 20
180.147
 11
15.5621
 21
180.053
  0
LINE
  8
0
 10
15.5621
 20
180.053
 11
15.1884
 21
180.006
  0
LINE
  8
0
 10
15.1884
 20
180.006
 11
14.8116
 21
180.006
  0
LINE
  8
0
 10
-0.18837
 20
180.006
 11
-0.562134
 21
180.053
  0
LINE
  8
0
 10
-0.562134
 20
180.053
 11
-0.927048
 21
180.147
  0
LINE
  8
0
 10
-0.927048
 20
180.147
 11
-1.27733
 21
180.286
  0
LINE
  8
0
 10
-1.27733
 20
180.286
 11
-1.60747
 21
180.467
  0
LINE
  8
0
 10
-1.60747
 20
180.467
 11
-1.91226
 21
180.688
  0
LINE
  8
0
 10
-1.91226
 20
180.688
 11
-2.1869
 21
180.946
  0
LINE
  8
0
 10
-2.1869
 20
180.946
 11
-2.42705
 21
181.237
  0
LINE
  8
0
 10
-2.42705
 20
181.237
 11
-2.62891
 21
181.555
  0
LINE
  8
0
 10
-2.62891
 20
181.555
 11
-2.78932
 21
181.896
  0
LINE
  8
0
 10
-2.78932
 20
181.896
 11
-2.90575
 21
182.254
  0
LINE
  8
0
 10
-2.90575
 20
182.254
 11
-2.97633
 21
182.624
  0
LINE
  8
0
 10
-2.97633
 20
182.624
 11
-3
 21
183
  0
LINE
  8
0
 10
-3
 20
183
 11
-2.97633
 21
183.376
  0
LINE
  8
0
 10
-2.97633
 20
183.376
 11
-2.90575
 21
183.746
  0
LINE
  8
0
 10
-2.90575
 20
183.746
 11
-2.78932
 21
184.104
  0
LINE
  8
0
 10
-2.78932
 20
184.104
 11
-2.62891
 21
184.445
  0
LINE
  8
0
 10
-2.62891
 20
184.445
 11
-2.42705
 21
184.763
  0
LINE
  8
0
 10
-2.42705
 20
184.763
 11
-2.1869
 21
185.054
  0
LINE
  8
0
 10
-2.1869
 20
185.054
 11
-1.91226
 21
185.312
  0
LINE
  8
0
 10
-1.91226
 20
185.312
 11
-1.60747
 21
185.533
  0
LINE
  8
0
 10
-1.60747
 20
185.533
 11
-1.27733
 21
185.714
  0
LINE
  8
0
 10
-1.27733
 20
185.714
 11
-0.927048
 21
185.853
  0
LINE
  8
0
 10
-0.927048
 20
185.853
 11
-0.562134
 21
185.947
  0
LINE
  8
0
 10
-0.562134
 20
185.947
 11
-0.18837
 21
185.994
  0
LINE
  8
0
 10
-0.18837
 20
185.994
 11
0.18837
 21
185.994
  0
LINE
  8
0
 10
0.18837
 20
185.994
 11
0.562134
 21
185.947
  0
LINE
  8
0
 10
0.562134
 20
185.947
 11
0.927048
 21
185.853
  0
LINE
  8
0
 10
0.927048
 20
185.853
 11
1.27733
 21
185.714
  0
LINE
  8
0
 10
1.27733
 20
185.714
 11
1.60747
 21
185.533
  0
LINE
  8
0
 10
1.60747
 20
185.533
 11
1.91226
 21
185.312
  0
LINE
  8
0
 10
1.91226
 20
185.312
 11
2.1869
 21
185.054
  0
LINE
  8
0
 10
2.1869
 20
185.054
 11
2.42705
 21
184.763
  0
LINE
  8
0
 10
2.42705
 20
184.763
 11
2.62891
 21
184.445
  0
LINE
  8
0
 10
2.62891
 20
184.445
 11
2.78932
 21
184.104
  0
LINE
  8
0
 10
2.78932
 20
184.104
 11
2.90575
 21
183.746
  0
LINE
  8
0
 10
2.90575
 20
183.746
 11
2.97633
 21
183.376
  0
LINE
  8
0
 10
2.97633
 20
183.376
 11
3
 21
183
  0
LINE
  8
0
 10
3
 20
183
 11
2.97633
 21
182.624
  0
LINE
  8
0
 10
2.97633
 20
182.624
 11
2.90575
 21
182.254
  0
LINE
  8
0
 10
2.90575
 20
182.254
 11
2.78932
 21
181.896
  0
LINE
  8
0
 10
2.78932
 20
181.896
 11
2.62891
 21
181.555
  0
LINE
  8
0
 10
2.62891
 20
181.555
 11
2.42705
 21
181.237
  0
LINE
  8
0
 10
2.42705
 20
181.237
 11
2.1869
 21
180.946
  0
LINE
  8
0
 10
2.1869
 20
180.946
 11
1.91226
 21
180.688
  0
LINE
  8
0
 10
1.91226
 20
180.688
 11
1.60747
 21
180.467
  0
LINE
  8
0
 10
1.60747
 20
180.467
 11
1.27733
 21
180.286
  0
LINE
  8
0
 10
1.27733
 20
180.286
 11
0.927048
 21
180.147
  0
LINE
  8
0
 10
0.927048
 20
180.147
 11
0.562134
 21
180.053
  0
LINE
  8
0
 10
0.562134
 20
180.053
 11
0.18837
 21
180.006
  0
LINE
  8
0
 10
0.18837
 20
180.006
 11
-0.18837
 21
180.006
  0
LINE
  8
0
 10
-30.1884
 20
180.006
 11
-30.5621
 21
180.053
  0
LINE
  8
0
 10
-30.5621
 20
180.053
 11
-30.927
 21
180.147
  0
LINE
  8
0
 10
-30.927
 20
180.147
 11
-31.2773
 21
180.286
  0
LINE
  8
0
 10
-31.2773
 20
180.286
 11
-31.6075
 21
180.467
  0
LINE
  8
0
 10
-31.6075
 20
180.467
 11
-31.9123
 21
180.688
  0
LINE
  8
0
 10
-31.9123
 20
180.688
 11
-32.1869
 21
180.946
  0
LINE
  8
0
 10
-32.1869
 20
180.946
 11
-32.427
 21
181.237
  0
LINE
  8
0
 10
-32.427
 20
181.237
 11
-32.6289
 21
181.555
  0
LINE
  8
0
 10
-32.6289
 20
181.555
 11
-32.7893
 21
181.896
  0
LINE
  8
0
 10
-32.7893
 20
181.896
 11
-32.9057
 21
182.254
  0
LINE
  8
0
 10
-32.9057
 20
182.254
 11
-32.9763
 21
182.624
  0
LINE
  8
0
 10
-32.9763
 20
182.624
 11
-33
 21
183
  0
LINE
  8
0
 10
-33
 20
183
 11
-32.9763
 21
183.376
  0
LINE
  8
0
 10
-32.9763
 20
183.376
 11
-32.9057
 21
183.746
  0
LINE
  8
0
 10
-32.9057
 20
183.746
 11
-32.7893
 21
184.104
  0
LINE
  8
0
 10
-32.7893
 20
184.104
 11
-32.6289
 21
184.445
  0
LINE
  8
0
 10
-32.6289
 20
184.445
 11
-32.427
 21
184.763
  0
LINE
  8
0
 10
-32.427
 20
184.763
 11
-32.1869
 21
185.054
  0
LINE
  8
0
 10
-32.1869
 20
185.054
 11
-31.9123
 21
185.312
  0
LINE
  8
0
 10
-31.9123
 20
185.312
 11
-31.6075
 21
185.533
  0
LINE
  8
0
 10
-31.6075
 20
185.533
 11
-31.2773
 21
185.714
  0
LINE
  8
0
 10
-31.2773
 20
185.714
 11
-30.927
 21
185.853
  0
LINE
  8
0
 10
-30.927
 20
185.853
 11
-30.5621
 21
185.947
  0
LINE
  8
0
 10
-30.5621
 20
185.947
 11
-30.1884
 21
185.994
  0
LINE
  8
0
 10
-30.1884
 20
185.994
 11
-29.8116
 21
185.994
  0
LINE
  8
0
 10
-29.8116
 20
185.994
 11
-29.4379
 21
185.947
  0
LINE
  8
0
 10
-29.4379
 20
185.947
 11
-29.0729
 21
185.853
  0
LINE
  8
0
 10
-29.0729
 20
185.853
 11
-28.7227
 21
185.714
  0
LINE
  8
0
 10
-28.7227
 20
185.714
 11
-28.3925
 21
185.533
  0
LINE
  8
0
 10
-28.3925
 20
185.533
 11
-28.0877
 21
185.312
  0
LINE
  8
0
 10
-28.0877
 20
185.312
 11
-27.8131
 21
185.054
  0
LINE
  8
0
 10
-27.8131
 20
185.054
 11
-27.5729
 21
184.763
  0
LINE
  8
0
 10
-27.5729
 20
184.763
 11
-27.3711
 21
184.445
  0
LINE
  8
0
 10
-27.3711
 20
184.445
 11
-27.2107
 21
184.104
  0
LINE
  8
0
 10
-27.2107
 20
184.104
 11
-27.0942
 21
183.746
  0
LINE
  8
0
 10
-27.0942
 20
183.746
 11
-27.0237
 21
183.376
  0
LINE
  8
0
 10
-27.0237
 20
183.376
 11
-27
 21
183
  0
LINE
  8
0
 10
-27
 20
183
 11
-27.0237
 21
182.624
  0
LINE
  8
0
 10
-27.0237
 20
182.624
 11
-27.0942
 21
182.254
  0
LINE
  8
0
 10
-27.0942
 20
182.254
 11
-27.2107
 21
181.896
  0
LINE
  8
0
 10
-27.2107
 20
181.896
 11
-27.3711
 21
181.555
  0
LINE
  8
0
 10
-27.3711
 20
181.555
 11
-27.5729
 21
181.237
  0
LINE
  8
0
 10
-27.5729
 20
181.237
 11
-27.8131
 21
180.946
  0
LINE
  8
0
 10
-27.8131
 20
180.946
 11
-28.0877
 21
180.688
  0
LINE
  8
0
 10
-28.0877
 20
180.688
 11
-28.3925
 21
180.467
  0
LINE
  8
0
 10
-28.3925
 20
180.467
 11
-28.7227
 21
180.286
  0
LINE
  8
0
 10
-28.7227
 20
180.286
 11
-29.0729
 21
180.147
  0
LINE
  8
0
 10
-29.0729
 20
180.147
 11
-29.4379
 21
180.053
  0
LINE
  8
0
 10
-29.4379
 20
180.053
 11
-29.8116
 21
180.006
  0
LINE
  8
0
 10
-29.8116
 20
180.006
 11
-30.1884
 21
180.006
  0
LINE
  8
0
 10
-15.1884
 20
180.006
 11
-15.5621
 21
180.053
  0
LINE
  8
0
 10
-15.5621
 20
180.053
 11
-15.927
 21
180.147
  0
LINE
  8
0
 10
-15.927
 20
180.147
 11
-16.2773
 21
180.286
  0
LINE
  8
0
 10
-16.2773
 20
180.286
 11
-16.6075
 21
180.467
  0
LINE
  8
0
 10
-16.6075
 20
180.467
 11
-16.9123
 21
180.688
  0
LINE
  8
0
 10
-16.9123
 20
180.688
 11
-17.1869
 21
180.946
  0
LINE
  8
0
 10
-17.1869
 20
180.946
 11
-17.427
 21
181.237
  0
LINE
  8
0
 10
-17.427
 20
181.237
 11
-17.6289
 21
181.555
  0
LINE
  8
0
 10
-17.6289
 20
181.555
 11
-17.7893
 21
181.896
  0
LINE
  8
0
 10
-17.7893
 20
181.896
 11
-17.9057
 21
182.254
  0
LINE
  8
0
 10
-17.9057
 20
182.254
 11
-17.9763
 21
182.624
  0
LINE
  8
0
 10
-17.9763
 20
182.624
 11
-18
 21
183
  0
LINE
  8
0
 10
-18
 20
183
 11
-17.9763
 21
183.376
  0
LINE
  8
0
 10
-17.9763
 20
183.376
 11
-17.9057
 21
183.746
  0
LINE
  8
0
 10
-17.9057
 20
183.746
 11
-17.7893
 21
184.104
  0
LINE
  8
0
 10
-17.7893
 20
184.104
 11
-17.6289
 21
184.445
  0
LINE
  8
0
 10
-17.6289
 20
184.445
 11
-17.427
 21
184.763
  0
LINE
  8
0
 10
-17.427
 20
184.763
 11
-17.1869
 21
185.054
  0
LINE
  8
0
 10
-17.1869
 20
185.054
 11
-16.9123
 21
185.312
  0
LINE
  8
0
 10
-16.9123
 20
185.312
 11
-16.6075
 21
185.533
  0
LINE
  8
0
 10
-16.6075
 20
185.533
 11
-16.2773
 21
185.714
  0
LINE
  8
0
 10
-16.2773
 20
185.714
 11
-15.927
 21
185.853
  0
LINE
  8
0
 10
-15.927
 20
185.853
 11
-15.5621
 21
185.947
  0
LINE
  8
0
 10
-15.5621
 20
185.947
 11
-15.1884
 21
185.994
  0
LINE
  8
0
 10
-15.1884
 20
185.994
 11
-14.8116
 21
185.994
  0
LINE
  8
0
 10
-14.8116
 20
185.994
 11
-14.4379
 21
185.947
  0
LINE
  8
0
 10
-14.4379
 20
185.947
 11
-14.0729
 21
185.853
  0
LINE
  8
0
 10
-14.0729
 20
185.853
 11
-13.7227
 21
185.714
  0
LINE
  8
0
 10
-13.7227
 20
185.714
 11
-13.3925
 21
185.533
  0
LINE
  8
0
 10
-13.3925
 20
185.533
 11
-13.0877
 21
185.312
  0
LINE
  8
0
 10
-13.0877
 20
185.312
 11
-12.8131
 21
185.054
  0
LINE
  8
0
 10
-12.8131
 20
185.054
 11
-12.5729
 21
184.763
  0
LINE
  8
0
 10
-12.5729
 20
184.763
 11
-12.3711
 21
184.445
  0
LINE
  8
0
 10
-12.3711
 20
184.445
 11
-12.2107
 21
184.104
  0
LINE
  8
0
 10
-12.2107
 20
184.104
 11
-12.0942
 21
183.746
  0
LINE
  8
0
 10
-12.0942
 20
183.746
 11
-12.0237
 21
183.376
  0
LINE
  8
0
 10
-12.0237
 20
183.376
 11
-12
 21
183
  0
LINE
  8
0
 10
-12
 20
183
 11
-12.0237
 21
182.624
  0
LINE
  8
0
 10
-12.0237
 20
182.624
 11
-12.0942
 21
182.254
  0
LINE
  8
0
 10
-12.0942
 20
182.254
 11
-12.2107
 21
181.896
  0
LINE
  8
0
 10
-12.2107
 20
181.896
 11
-12.3711
 21
181.555
  0
LINE
  8
0
 10
-12.3711
 20
181.555
 11
-12.5729
 21
181.237
  0
LINE
  8
0
 10
-12.5729
 20
181.237
 11
-12.8131
 21
180.946
  0
LINE
  8
0
 10
-12.8131
 20
180.946
 11
-13.0877
 21
180.688
  0
LINE
  8
0
 10
-13.0877
 20
180.688
 11
-13.3925
 21
180.467
  0
LINE
  8
0
 10
-13.3925
 20
180.467
 11
-13.7227
 21
180.286
  0
LINE
  8
0
 10
-13.7227
 20
180.286
 11
-14.0729
 21
180.147
  0
LINE
  8
0
 10
-14.0729
 20
180.147
 11
-14.4379
 21
180.053
  0
LINE
  8
0
 10
-14.4379
 20
180.053
 11
-14.8116
 21
180.006
  0
LINE
  8
0
 10
-14.8116
 20
180.006
 11
-15.1884
 21
180.006
  0
LINE
  8
0
 10
29.8116
 20
180.006
 11
29.4379
 21
180.053
  0
LINE
  8
0
 10
29.4379
 20
180.053
 11
29.0729
 21
180.147
  0
LINE
  8
0
 10
29.0729
 20
180.147
 11
28.7227
 21
180.286
  0
LINE
  8
0
 10
28.7227
 20
180.286
 11
28.3925
 21
180.467
  0
LINE
  8
0
 10
28.3925
 20
180.467
 11
28.0877
 21
180.688
  0
LINE
  8
0
 10
28.0877
 20
180.688
 11
27.8131
 21
180.946
  0
LINE
  8
0
 10
27.8131
 20
180.946
 11
27.5729
 21
181.237
  0
LINE
  8
0
 10
27.5729
 20
181.237
 11
27.3711
 21
181.555
  0
LINE
  8
0
 10
27.3711
 20
181.555
 11
27.2107
 21
181.896
  0
LINE
  8
0
 10
27.2107
 20
181.896
 11
27.0942
 21
182.254
  0
LINE
  8
0
 10
27.0942
 20
182.254
 11
27.0237
 21
182.624
  0
LINE
  8
0
 10
27.0237
 20
182.624
 11
27
 21
183
  0
LINE
  8
0
 10
27
 20
183
 11
27.0237
 21
183.376
  0
LINE
  8
0
 10
27.0237
 20
183.376
 11
27.0942
 21
183.746
  0
LINE
  8
0
 10
27.0942
 20
183.746
 11
27.2107
 21
184.104
  0
LINE
  8
0
 10
27.2107
 20
184.104
 11
27.3711
 21
184.445
  0
LINE
  8
0
 10
27.3711
 20
184.445
 11
27.5729
 21
184.763
  0
LINE
  8
0
 10
27.5729
 20
184.763
 11
27.8131
 21
185.054
  0
LINE
  8
0
 10
27.8131
 20
185.054
 11
28.0877
 21
185.312
  0
LINE
  8
0
 10
28.0877
 20
185.312
 11
28.3925
 21
185.533
  0
LINE
  8
0
 10
28.3925
 20
185.533
 11
28.7227
 21
185.714
  0
LINE
  8
0
 10
28.7227
 20
185.714
 11
29.0729
 21
185.853
  0
LINE
  8
0
 10
29.0729
 20
185.853
 11
29.4379
 21
185.947
  0
LINE
  8
0
 10
29.4379
 20
185.947
 11
29.8116
 21
185.994
  0
LINE
  8
0
 10
29.8116
 20
185.994
 11
30.1884
 21
185.994
  0
LINE
  8
0
 10
30.1884
 20
185.994
 11
30.5621
 21
185.947
  0
LINE
  8
0
 10
30.5621
 20
185.947
 11
30.927
 21
185.853
  0
LINE
  8
0
 10
30.927
 20
185.853
 11
31.2773
 21
185.714
  0
LINE
  8
0
 10
31.2773
 20
185.714
 11
31.6075
 21
185.533
  0
LINE
  8
0
 10
31.6075
 20
185.533
 11
31.9123
 21
185.312
  0
LINE
  8
0
 10
31.9123
 20
185.312
 11
32.1869
 21
185.054
  0
LINE
  8
0
 10
32.1869
 20
185.054
 11
32.427
 21
184.763
  0
LINE
  8
0
 10
32.427
 20
184.763
 11
32.6289
 21
184.445
  0
LINE
  8
0
 10
32.6289
 20
184.445
 11
32.7893
 21
184.104
  0
LINE
  8
0
 10
32.7893
 20
184.104
 11
32.9057
 21
183.746
  0
LINE
  8
0
 10
32.9057
 20
183.746
 11
32.9763
 21
183.376
  0
LINE
  8
0
 10
32.9763
 20
183.376
 11
33
 21
183
  0
LINE
  8
0
 10
33
 20
183
 11
32.9763
 21
182.624
  0
LINE
  8
0
 10
32.9763
 20
182.624
 11
32.9057
 21
182.254
  0
LINE
  8
0
 10
32.9057
 20
182.254
 11
32.7893
 21
181.896
  0
LINE
  8
0
 10
32.7893
 20
181.896
 11
32.6289
 21
181.555
  0
LINE
  8
0
 10
32.6289
 20
181.555
 11
32.427
 21
181.237
  0
LINE
  8
0
 10
32.427
 20
181.237
 11
32.1869
 21
180.946
  0
LINE
  8
0
 10
32.1869
 20
180.946
 11
31.9123
 21
180.688
  0
LINE
  8
0
 10
31.9123
 20
180.688
 11
31.6075
 21
180.467
  0
LINE
  8
0
 10
31.6075
 20
180.467
 11
31.2773
 21
180.286
  0
LINE
  8
0
 10
31.2773
 20
180.286
 11
30.927
 21
180.147
  0
LINE
  8
0
 10
30.927
 20
180.147
 11
30.5621
 21
180.053
  0
LINE
  8
0
 10
30.5621
 20
180.053
 11
30.1884
 21
180.006
  0
LINE
  8
0
 10
30.1884
 20
180.006
 11
29.8116
 21
180.006
  0
LINE
  8
0
 10
29.8116
 20
165.006
 11
29.4379
 21
165.053
  0
LINE
  8
0
 10
29.4379
 20
165.053
 11
29.0729
 21
165.147
  0
LINE
  8
0
 10
29.0729
 20
165.147
 11
28.7227
 21
165.286
  0
LINE
  8
0
 10
28.7227
 20
165.286
 11
28.3925
 21
165.467
  0
LINE
  8
0
 10
28.3925
 20
165.467
 11
28.0877
 21
165.688
  0
LINE
  8
0
 10
28.0877
 20
165.688
 11
27.8131
 21
165.946
  0
LINE
  8
0
 10
27.8131
 20
165.946
 11
27.5729
 21
166.237
  0
LINE
  8
0
 10
27.5729
 20
166.237
 11
27.3711
 21
166.555
  0
LINE
  8
0
 10
27.3711
 20
166.555
 11
27.2107
 21
166.896
  0
LINE
  8
0
 10
27.2107
 20
166.896
 11
27.0942
 21
167.254
  0
LINE
  8
0
 10
27.0942
 20
167.254
 11
27.0237
 21
167.624
  0
LINE
  8
0
 10
27.0237
 20
167.624
 11
27
 21
168
  0
LINE
  8
0
 10
27
 20
168
 11
27.0237
 21
168.376
  0
LINE
  8
0
 10
27.0237
 20
168.376
 11
27.0942
 21
168.746
  0
LINE
  8
0
 10
27.0942
 20
168.746
 11
27.2107
 21
169.104
  0
LINE
  8
0
 10
27.2107
 20
169.104
 11
27.3711
 21
169.445
  0
LINE
  8
0
 10
27.3711
 20
169.445
 11
27.5729
 21
169.763
  0
LINE
  8
0
 10
27.5729
 20
169.763
 11
27.8131
 21
170.054
  0
LINE
  8
0
 10
27.8131
 20
170.054
 11
28.0877
 21
170.312
  0
LINE
  8
0
 10
28.0877
 20
170.312
 11
28.3925
 21
170.533
  0
LINE
  8
0
 10
28.3925
 20
170.533
 11
28.7227
 21
170.714
  0
LINE
  8
0
 10
28.7227
 20
170.714
 11
29.0729
 21
170.853
  0
LINE
  8
0
 10
29.0729
 20
170.853
 11
29.4379
 21
170.947
  0
LINE
  8
0
 10
29.4379
 20
170.947
 11
29.8116
 21
170.994
  0
LINE
  8
0
 10
29.8116
 20
170.994
 11
30.1884
 21
170.994
  0
LINE
  8
0
 10
30.1884
 20
170.994
 11
30.5621
 21
170.947
  0
LINE
  8
0
 10
30.5621
 20
170.947
 11
30.927
 21
170.853
  0
LINE
  8
0
 10
30.927
 20
170.853
 11
31.2773
 21
170.714
  0
LINE
  8
0
 10
31.2773
 20
170.714
 11
31.6075
 21
170.533
  0
LINE
  8
0
 10
31.6075
 20
170.533
 11
31.9123
 21
170.312
  0
LINE
  8
0
 10
31.9123
 20
170.312
 11
32.1869
 21
170.054
  0
LINE
  8
0
 10
32.1869
 20
170.054
 11
32.427
 21
169.763
  0
LINE
  8
0
 10
32.427
 20
169.763
 11
32.6289
 21
169.445
  0
LINE
  8
0
 10
32.6289
 20
169.445
 11
32.7893
 21
169.104
  0
LINE
  8
0
 10
32.7893
 20
169.104
 11
32.9057
 21
168.746
  0
LINE
  8
0
 10
32.9057
 20
168.746
 11
32.9763
 21
168.376
  0
LINE
  8
0
 10
32.9763
 20
168.376
 11
33
 21
168
  0
LINE
  8
0
 10
33
 20
168
 11
32.9763
 21
167.624
  0
LINE
  8
0
 10
32.9763
 20
167.624
 11
32.9057
 21
167.254
  0
LINE
  8
0
 10
32.9057
 20
167.254
 11
32.7893
 21
166.896
  0
LINE
  8
0
 10
32.7893
 20
166.896
 11
32.6289
 21
166.555
  0
LINE
  8
0
 10
32.6289
 20
166.555
 11
32.427
 21
166.237
  0
LINE
  8
0
 10
32.427
 20
166.237
 11
32.1869
 21
165.946
  0
LINE
  8
0
 10
32.1869
 20
165.946
 11
31.9123
 21
165.688
  0
LINE
  8
0
 10
31.9123
 20
165.688
 11
31.6075
 21
165.467
  0
LINE
  8
0
 10
31.6075
 20
165.467
 11
31.2773
 21
165.286
  0
LINE
  8
0
 10
31.2773
 20
165.286
 11
30.927
 21
165.147
  0
LINE
  8
0
 10
30.927
 20
165.147
 11
30.5621
 21
165.053
  0
LINE
  8
0
 10
30.5621
 20
165.053
 11
30.1884
 21
165.006
  0
LINE
  8
0
 10
30.1884
 20
165.006
 11
29.8116
 21
165.006
  0
LINE
  8
0
 10
-30.1884
 20
165.006
 11
-30.5621
 21
165.053
  0
LINE
  8
0
 10
-30.5621
 20
165.053
 11
-30.927
 21
165.147
  0
LINE
  8
0
 10
-30.927
 20
165.147
 11
-31.2773
 21
165.286
  0
LINE
  8
0
 10
-31.2773
 20
165.286
 11
-31.6075
 21
165.467
  0
LINE
  8
0
 10
-31.6075
 20
165.467
 11
-31.9123
 21
165.688
  0
LINE
  8
0
 10
-31.9123
 20
165.688
 11
-32.1869
 21
165.946
  0
LINE
  8
0
 10
-32.1869
 20
165.946
 11
-32.427
 21
166.237
  0
LINE
  8
0
 10
-32.427
 20
166.237
 11
-32.6289
 21
166.555
  0
LINE
  8
0
 10
-32.6289
 20
166.555
 11
-32.7893
 21
166.896
  0
LINE
  8
0
 10
-32.7893
 20
166.896
 11
-32.9057
 21
167.254
  0
LINE
  8
0
 10
-32.9057
 20
167.254
 11
-32.9763
 21
167.624
  0
LINE
  8
0
 10
-32.9763
 20
167.624
 11
-33
 21
168
  0
LINE
  8
0
 10
-33
 20
168
 11
-32.9763
 21
168.376
  0
LINE
  8
0
 10
-32.9763
 20
168.376
 11
-32.9057
 21
168.746
  0
LINE
  8
0
 10
-32.9057
 20
168.746
 11
-32.7893
 21
169.104
  0
LINE
  8
0
 10
-32.7893
 20
169.104
 11
-32.6289
 21
169.445
  0
LINE
  8
0
 10
-32.6289
 20
169.445
 11
-32.427
 21
169.763
  0
LINE
  8
0
 10
-32.427
 20
169.763
 11
-32.1869
 21
170.054
  0
LINE
  8
0
 10
-32.1869
 20
170.054
 11
-31.9123
 21
170.312
  0
LINE
  8
0
 10
-31.9123
 20
170.312
 11
-31.6075
 21
170.533
  0
LINE
  8
0
 10
-31.6075
 20
170.533
 11
-31.2773
 21
170.714
  0
LINE
  8
0
 10
-31.2773
 20
170.714
 11
-30.927
 21
170.853
  0
LINE
  8
0
 10
-30.927
 20
170.853
 11
-30.5621
 21
170.947
  0
LINE
  8
0
 10
-30.5621
 20
170.947
 11
-30.1884
 21
170.994
  0
LINE
  8
0
 10
-30.1884
 20
170.994
 11
-29.8116
 21
170.994
  0
LINE
  8
0
 10
-29.8116
 20
170.994
 11
-29.4379
 21
170.947
  0
LINE
  8
0
 10
-29.4379
 20
170.947
 11
-29.0729
 21
170.853
  0
LINE
  8
0
 10
-29.0729
 20
170.853
 11
-28.7227
 21
170.714
  0
LINE
  8
0
 10
-28.7227
 20
170.714
 11
-28.3925
 21
170.533
  0
LINE
  8
0
 10
-28.3925
 20
170.533
 11
-28.0877
 21
170.312
  0
LINE
  8
0
 10
-28.0877
 20
170.312
 11
-27.8131
 21
170.054
  0
LINE
  8
0
 10
-27.8131
 20
170.054
 11
-27.5729
 21
169.763
  0
LINE
  8
0
 10
-27.5729
 20
169.763
 11
-27.3711
 21
169.445
  0
LINE
  8
0
 10
-27.3711
 20
169.445
 11
-27.2107
 21
169.104
  0
LINE
  8
0
 10
-27.2107
 20
169.104
 11
-27.0942
 21
168.746
  0
LINE
  8
0
 10
-27.0942
 20
168.746
 11
-27.0237
 21
168.376
  0
LINE
  8
0
 10
-27.0237
 20
168.376
 11
-27
 21
168
  0
LINE
  8
0
 10
-27
 20
168
 11
-27.0237
 21
167.624
  0
LINE
  8
0
 10
-27.0237
 20
167.624
 11
-27.0942
 21
167.254
  0
LINE
  8
0
 10
-27.0942
 20
167.254
 11
-27.2107
 21
166.896
  0
LINE
  8
0
 10
-27.2107
 20
166.896
 11
-27.3711
 21
166.555
  0
LINE
  8
0
 10
-27.3711
 20
166.555
 11
-27.5729
 21
166.237
  0
LINE
  8
0
 10
-27.5729
 20
166.237
 11
-27.8131
 21
165.946
  0
LINE
  8
0
 10
-27.8131
 20
165.946
 11
-28.0877
 21
165.688
  0
LINE
  8
0
 10
-28.0877
 20
165.688
 11
-28.3925
 21
165.467
  0
LINE
  8
0
 10
-28.3925
 20
165.467
 11
-28.7227
 21
165.286
  0
LINE
  8
0
 10
-28.7227
 20
165.286
 11
-29.0729
 21
165.147
  0
LINE
  8
0
 10
-29.0729
 20
165.147
 11
-29.4379
 21
165.053
  0
LINE
  8
0
 10
-29.4379
 20
165.053
 11
-29.8116
 21
165.006
  0
LINE
  8
0
 10
-29.8116
 20
165.006
 11
-30.1884
 21
165.006
  0
LINE
  8
0
 10
-15.1884
 20
165.006
 11
-15.5621
 21
165.053
  0
LINE
  8
0
 10
-15.5621
 20
165.053
 11
-15.927
 21
165.147
  0
LINE
  8
0
 10
-15.927
 20
165.147
 11
-16.2773
 21
165.286
  0
LINE
  8
0
 10
-16.2773
 20
165.286
 11
-16.6075
 21
165.467
  0
LINE
  8
0
 10
-16.6075
 20
165.467
 11
-16.9123
 21
165.688
  0
LINE
  8
0
 10
-16.9123
 20
165.688
 11
-17.1869
 21
165.946
  0
LINE
  8
0
 10
-17.1869
 20
165.946
 11
-17.427
 21
166.237
  0
LINE
  8
0
 10
-17.427
 20
166.237
 11
-17.6289
 21
166.555
  0
LINE
  8
0
 10
-17.6289
 20
166.555
 11
-17.7893
 21
166.896
  0
LINE
  8
0
 10
-17.7893
 20
166.896
 11
-17.9057
 21
167.254
  0
LINE
  8
0
 10
-17.9057
 20
167.254
 11
-17.9763
 21
167.624
  0
LINE
  8
0
 10
-17.9763
 20
167.624
 11
-18
 21
168
  0
LINE
  8
0
 10
-18
 20
168
 11
-17.9763
 21
168.376
  0
LINE
  8
0
 10
-17.9763
 20
168.376
 11
-17.9057
 21
168.746
  0
LINE
  8
0
 10
-17.9057
 20
168.746
 11
-17.7893
 21
169.104
  0
LINE
  8
0
 10
-17.7893
 20
169.104
 11
-17.6289
 21
169.445
  0
LINE
  8
0
 10
-17.6289
 20
169.445
 11
-17.427
 21
169.763
  0
LINE
  8
0
 10
-17.427
 20
169.763
 11
-17.1869
 21
170.054
  0
LINE
  8
0
 10
-17.1869
 20
170.054
 11
-16.9123
 21
170.312
  0
LINE
  8
0
 10
-16.9123
 20
170.312
 11
-16.6075
 21
170.533
  0
LINE
  8
0
 10
-16.6075
 20
170.533
 11
-16.2773
 21
170.714
  0
LINE
  8
0
 10
-16.2773
 20
170.714
 11
-15.927
 21
170.853
  0
LINE
  8
0
 10
-15.927
 20
170.853
 11
-15.5621
 21
170.947
  0
LINE
  8
0
 10
-15.5621
 20
170.947
 11
-15.1884
 21
170.994
  0
LINE
  8
0
 10
-15.1884
 20
170.994
 11
-14.8116
 21
170.994
  0
LINE
  8
0
 10
-14.8116
 20
170.994
 11
-14.4379
 21
170.947
  0
LINE
  8
0
 10
-14.4379
 20
170.947
 11
-14.0729
 21
170.853
  0
LINE
  8
0
 10
-14.0729
 20
170.853
 11
-13.7227
 21
170.714
  0
LINE
  8
0
 10
-13.7227
 20
170.714
 11
-13.3925
 21
170.533
  0
LINE
  8
0
 10
-13.3925
 20
170.533
 11
-13.0877
 21
170.312
  0
LINE
  8
0
 10
-13.0877
 20
170.312
 11
-12.8131
 21
170.054
  0
LINE
  8
0
 10
-12.8131
 20
170.054
 11
-12.5729
 21
169.763
  0
LINE
  8
0
 10
-12.5729
 20
169.763
 11
-12.3711
 21
169.445
  0
LINE
  8
0
 10
-12.3711
 20
169.445
 11
-12.2107
 21
169.104
  0
LINE
  8
0
 10
-12.2107
 20
169.104
 11
-12.0942
 21
168.746
  0
LINE
  8
0
 10
-12.0942
 20
168.746
 11
-12.0237
 21
168.376
  0
LINE
  8
0
 10
-12.0237
 20
168.376
 11
-12
 21
168
  0
LINE
  8
0
 10
-12
 20
168
 11
-12.0237
 21
167.624
  0
LINE
  8
0
 10
-12.0237
 20
167.624
 11
-12.0942
 21
167.254
  0
LINE
  8
0
 10
-12.0942
 20
167.254
 11
-12.2107
 21
166.896
  0
LINE
  8
0
 10
-12.2107
 20
166.896
 11
-12.3711
 21
166.555
  0
LINE
  8
0
 10
-12.3711
 20
166.555
 11
-12.5729
 21
166.237
  0
LINE
  8
0
 10
-12.5729
 20
166.237
 11
-12.8131
 21
165.946
  0
LINE
  8
0
 10
-12.8131
 20
165.946
 11
-13.0877
 21
165.688
  0
LINE
  8
0
 10
-13.0877
 20
165.688
 11
-13.3925
 21
165.467
  0
LINE
  8
0
 10
-13.3925
 20
165.467
 11
-13.7227
 21
165.286
  0
LINE
  8
0
 10
-13.7227
 20
165.286
 11
-14.0729
 21
165.147
  0
LINE
  8
0
 10
-14.0729
 20
165.147
 11
-14.4379
 21
165.053
  0
LINE
  8
0
 10
-14.4379
 20
165.053
 11
-14.8116
 21
165.006
  0
LINE
  8
0
 10
-14.8116
 20
165.006
 11
-15.1884
 21
165.006
  0
LINE
  8
0
 10
14.8116
 20
165.006
 11
14.4379
 21
165.053
  0
LINE
  8
0
 10
14.4379
 20
165.053
 11
14.0729
 21
165.147
  0
LINE
  8
0
 10
14.0729
 20
165.147
 11
13.7227
 21
165.286
  0
LINE
  8
0
 10
13.7227
 20
165.286
 11
13.3925
 21
165.467
  0
LINE
  8
0
 10
13.3925
 20
165.467
 11
13.0877
 21
165.688
  0
LINE
  8
0
 10
13.0877
 20
165.688
 11
12.8131
 21
165.946
  0
LINE
  8
0
 10
12.8131
 20
165.946
 11
12.5729
 21
166.237
  0
LINE
  8
0
 10
12.5729
 20
166.237
 11
12.3711
 21
166.555
  0
LINE
  8
0
 10
12.3711
 20
166.555
 11
12.2107
 21
166.896
  0
LINE
  8
0
 10
12.2107
 20
166.896
 11
12.0942
 21
167.254
  0
LINE
  8
0
 10
12.0942
 20
167.254
 11
12.0237
 21
167.624
  0
LINE
  8
0
 10
12.0237
 20
167.624
 11
12
 21
168
  0
LINE
  8
0
 10
12
 20
168
 11
12.0237
 21
168.376
  0
LINE
  8
0
 10
12.0237
 20
168.376
 11
12.0942
 21
168.746
  0
LINE
  8
0
 10
12.0942
 20
168.746
 11
12.2107
 21
169.104
  0
LINE
  8
0
 10
12.2107
 20
169.104
 11
12.3711
 21
169.445
  0
LINE
  8
0
 10
12.3711
 20
169.445
 11
12.5729
 21
169.763
  0
LINE
  8
0
 10
12.5729
 20
169.763
 11
12.8131
 21
170.054
  0
LINE
  8
0
 10
12.8131
 20
170.054
 11
13.0877
 21
170.312
  0
LINE
  8
0
 10
13.0877
 20
170.312
 11
13.3925
 21
170.533
  0
LINE
  8
0
 10
13.3925
 20
170.533
 11
13.7227
 21
170.714
  0
LINE
  8
0
 10
13.7227
 20
170.714
 11
14.0729
 21
170.853
  0
LINE
  8
0
 10
14.0729
 20
170.853
 11
14.4379
 21
170.947
  0
LINE
  8
0
 10
14.4379
 20
170.947
 11
14.8116
 21
170.994
  0
LINE
  8
0
 10
14.8116
 20
170.994
 11
15.1884
 21
170.994
  0
LINE
  8
0
 10
15.1884
 20
170.994
 11
15.5621
 21
170.947
  0
LINE
  8
0
 10
15.5621
 20
170.947
 11
15.927
 21
170.853
  0
LINE
  8
0
 10
15.927
 20
170.853
 11
16.2773
 21
170.714
  0
LINE
  8
0
 10
16.2773
 20
170.714
 11
16.6075
 21
170.533
  0
LINE
  8
0
 10
16.6075
 20
170.533
 11
16.9123
 21
170.312
  0
LINE
  8
0
 10
16.9123
 20
170.312
 11
17.1869
 21
170.054
  0
LINE
  8
0
 10
17.1869
 20
170.054
 11
17.427
 21
169.763
  0
LINE
  8
0
 10
17.427
 20
169.763
 11
17.6289
 21
169.445
  0
LINE
  8
0
 10
17.6289
 20
169.445
 11
17.7893
 21
169.104
  0
LINE
  8
0
 10
17.7893
 20
169.104
 11
17.9057
 21
168.746
  0
LINE
  8
0
 10
17.9057
 20
168.746
 11
17.9763
 21
168.376
  0
LINE
  8
0
 10
17.9763
 20
168.376
 11
18
 21
168
  0
LINE
  8
0
 10
18
 20
168
 11
17.9763
 21
167.624
  0
LINE
  8
0
 10
17.9763
 20
167.624
 11
17.9057
 21
167.254
  0
LINE
  8
0
 10
17.9057
 20
167.254
 11
17.7893
 21
166.896
  0
LINE
  8
0
 10
17.7893
 20
166.896
 11
17.6289
 21
166.555
  0
LINE
  8
0
 10
17.6289
 20
166.555
 11
17.427
 21
166.237
  0
LINE
  8
0
 10
17.427
 20
166.237
 11
17.1869
 21
165.946
  0
LINE
  8
0
 10
17.1869
 20
165.946
 11
16.9123
 21
165.688
  0
LINE
  8
0
 10
16.9123
 20
165.688
 11
16.6075
 21
165.467
  0
LINE
  8
0
 10
16.6075
 20
165.467
 11
16.2773
 21
165.286
  0
LINE
  8
0
 10
16.2773
 20
165.286
 11
15.927
 21
165.147
  0
LINE
  8
0
 10
15.927
 20
165.147
 11
15.5621
 21
165.053
  0
LINE
  8
0
 10
15.5621
 20
165.053
 11
15.1884
 21
165.006
  0
LINE
  8
0
 10
15.1884
 20
165.006
 11
14.8116
 21
165.006
  0
LINE
  8
0
 10
-0.18837
 20
165.006
 11
-0.562134
 21
165.053
  0
LINE
  8
0
 10
-0.562134
 20
165.053
 11
-0.927048
 21
165.147
  0
LINE
  8
0
 10
-0.927048
 20
165.147
 11
-1.27733
 21
165.286
  0
LINE
  8
0
 10
-1.27733
 20
165.286
 11
-1.60747
 21
165.467
  0
LINE
  8
0
 10
-1.60747
 20
165.467
 11
-1.91226
 21
165.688
  0
LINE
  8
0
 10
-1.91226
 20
165.688
 11
-2.1869
 21
165.946
  0
LINE
  8
0
 10
-2.1869
 20
165.946
 11
-2.42705
 21
166.237
  0
LINE
  8
0
 10
-2.42705
 20
166.237
 11
-2.62891
 21
166.555
  0
LINE
  8
0
 10
-2.62891
 20
166.555
 11
-2.78932
 21
166.896
  0
LINE
  8
0
 10
-2.78932
 20
166.896
 11
-2.90575
 21
167.254
  0
LINE
  8
0
 10
-2.90575
 20
167.254
 11
-2.97633
 21
167.624
  0
LINE
  8
0
 10
-2.97633
 20
167.624
 11
-3
 21
168
  0
LINE
  8
0
 10
-3
 20
168
 11
-2.97633
 21
168.376
  0
LINE
  8
0
 10
-2.97633
 20
168.376
 11
-2.90575
 21
168.746
  0
LINE
  8
0
 10
-2.90575
 20
168.746
 11
-2.78932
 21
169.104
  0
LINE
  8
0
 10
-2.78932
 20
169.104
 11
-2.62891
 21
169.445
  0
LINE
  8
0
 10
-2.62891
 20
169.445
 11
-2.42705
 21
169.763
  0
LINE
  8
0
 10
-2.42705
 20
169.763
 11
-2.1869
 21
170.054
  0
LINE
  8
0
 10
-2.1869
 20
170.054
 11
-1.91226
 21
170.312
  0
LINE
  8
0
 10
-1.91226
 20
170.312
 11
-1.60747
 21
170.533
  0
LINE
  8
0
 10
-1.60747
 20
170.533
 11
-1.27733
 21
170.714
  0
LINE
  8
0
 10
-1.27733
 20
170.714
 11
-0.927048
 21
170.853
  0
LINE
  8
0
 10
-0.927048
 20
170.853
 11
-0.562134
 21
170.947
  0
LINE
  8
0
 10
-0.562134
 20
170.947
 11
-0.18837
 21
170.994
  0
LINE
  8
0
 10
-0.18837
 20
170.994
 11
0.18837
 21
170.994
  0
LINE
  8
0
 10
0.18837
 20
170.994
 11
0.562134
 21
170.947
  0
LINE
  8
0
 10
0.562134
 20
170.947
 11
0.927048
 21
170.853
  0
LINE
  8
0
 10
0.927048
 20
170.853
 11
1.27733
 21
170.714
  0
LINE
  8
0
 10
1.27733
 20
170.714
 11
1.60747
 21
170.533
  0
LINE
  8
0
 10
1.60747
 20
170.533
 11
1.91226
 21
170.312
  0
LINE
  8
0
 10
1.91226
 20
170.312
 11
2.1869
 21
170.054
  0
LINE
  8
0
 10
2.1869
 20
170.054
 11
2.42705
 21
169.763
  0
LINE
  8
0
 10
2.42705
 20
169.763
 11
2.62891
 21
169.445
  0
LINE
  8
0
 10
2.62891
 20
169.445
 11
2.78932
 21
169.104
  0
LINE
  8
0
 10
2.78932
 20
169.104
 11
2.90575
 21
168.746
  0
LINE
  8
0
 10
2.90575
 20
168.746
 11
2.97633
 21
168.376
  0
LINE
  8
0
 10
2.97633
 20
168.376
 11
3
 21
168
  0
LINE
  8
0
 10
3
 20
168
 11
2.97633
 21
167.624
  0
LINE
  8
0
 10
2.97633
 20
167.624
 11
2.90575
 21
167.254
  0
LINE
  8
0
 10
2.90575
 20
167.254
 11
2.78932
 21
166.896
  0
LINE
  8
0
 10
2.78932
 20
166.896
 11
2.62891
 21
166.555
  0
LINE
  8
0
 10
2.62891
 20
166.555
 11
2.42705
 21
166.237
  0
LINE
  8
0
 10
2.42705
 20
166.237
 11
2.1869
 21
165.946
  0
LINE
  8
0
 10
2.1869
 20
165.946
 11
1.91226
 21
165.688
  0
LINE
  8
0
 10
1.91226
 20
165.688
 11
1.60747
 21
165.467
  0
LINE
  8
0
 10
1.60747
 20
165.467
 11
1.27733
 21
165.286
  0
LINE
  8
0
 10
1.27733
 20
165.286
 11
0.927048
 21
165.147
  0
LINE
  8
0
 10
0.927048
 20
165.147
 11
0.562134
 21
165.053
  0
LINE
  8
0
 10
0.562134
 20
165.053
 11
0.18837
 21
165.006
  0
LINE
  8
0
 10
0.18837
 20
165.006
 11
-0.18837
 21
165.006
  0
LINE
  8
0
 10
14.8116
 20
150.006
 11
14.4379
 21
150.053
  0
LINE
  8
0
 10
14.4379
 20
150.053
 11
14.0729
 21
150.147
  0
LINE
  8
0
 10
14.0729
 20
150.147
 11
13.7227
 21
150.286
  0
LINE
  8
0
 10
13.7227
 20
150.286
 11
13.3925
 21
150.467
  0
LINE
  8
0
 10
13.3925
 20
150.467
 11
13.0877
 21
150.688
  0
LINE
  8
0
 10
13.0877
 20
150.688
 11
12.8131
 21
150.946
  0
LINE
  8
0
 10
12.8131
 20
150.946
 11
12.5729
 21
151.237
  0
LINE
  8
0
 10
12.5729
 20
151.237
 11
12.3711
 21
151.555
  0
LINE
  8
0
 10
12.3711
 20
151.555
 11
12.2107
 21
151.896
  0
LINE
  8
0
 10
12.2107
 20
151.896
 11
12.0942
 21
152.254
  0
LINE
  8
0
 10
12.0942
 20
152.254
 11
12.0237
 21
152.624
  0
LINE
  8
0
 10
12.0237
 20
152.624
 11
12
 21
153
  0
LINE
  8
0
 10
12
 20
153
 11
12.0237
 21
153.376
  0
LINE
  8
0
 10
12.0237
 20
153.376
 11
12.0942
 21
153.746
  0
LINE
  8
0
 10
12.0942
 20
153.746
 11
12.2107
 21
154.104
  0
LINE
  8
0
 10
12.2107
 20
154.104
 11
12.3711
 21
154.445
  0
LINE
  8
0
 10
12.3711
 20
154.445
 11
12.5729
 21
154.763
  0
LINE
  8
0
 10
12.5729
 20
154.763
 11
12.8131
 21
155.054
  0
LINE
  8
0
 10
12.8131
 20
155.054
 11
13.0877
 21
155.312
  0
LINE
  8
0
 10
13.0877
 20
155.312
 11
13.3925
 21
155.533
  0
LINE
  8
0
 10
13.3925
 20
155.533
 11
13.7227
 21
155.714
  0
LINE
  8
0
 10
13.7227
 20
155.714
 11
14.0729
 21
155.853
  0
LINE
  8
0
 10
14.0729
 20
155.853
 11
14.4379
 21
155.947
  0
LINE
  8
0
 10
14.4379
 20
155.947
 11
14.8116
 21
155.994
  0
LINE
  8
0
 10
14.8116
 20
155.994
 11
15.1884
 21
155.994
  0
LINE
  8
0
 10
15.1884
 20
155.994
 11
15.5621
 21
155.947
  0
LINE
  8
0
 10
15.5621
 20
155.947
 11
15.927
 21
155.853
  0
LINE
  8
0
 10
15.927
 20
155.853
 11
16.2773
 21
155.714
  0
LINE
  8
0
 10
16.2773
 20
155.714
 11
16.6075
 21
155.533
  0
LINE
  8
0
 10
16.6075
 20
155.533
 11
16.9123
 21
155.312
  0
LINE
  8
0
 10
16.9123
 20
155.312
 11
17.1869
 21
155.054
  0
LINE
  8
0
 10
17.1869
 20
155.054
 11
17.427
 21
154.763
  0
LINE
  8
0
 10
17.427
 20
154.763
 11
17.6289
 21
154.445
  0
LINE
  8
0
 10
17.6289
 20
154.445
 11
17.7893
 21
154.104
  0
LINE
  8
0
 10
17.7893
 20
154.104
 11
17.9057
 21
153.746
  0
LINE
  8
0
 10
17.9057
 20
153.746
 11
17.9763
 21
153.376
  0
LINE
  8
0
 10
17.9763
 20
153.376
 11
18
 21
153
  0
LINE
  8
0
 10
18
 20
153
 11
17.9763
 21
152.624
  0
LINE
  8
0
 10
17.9763
 20
152.624
 11
17.9057
 21
152.254
  0
LINE
  8
0
 10
17.9057
 20
152.254
 11
17.7893
 21
151.896
  0
LINE
  8
0
 10
17.7893
 20
151.896
 11
17.6289
 21
151.555
  0
LINE
  8
0
 10
17.6289
 20
151.555
 11
17.427
 21
151.237
  0
LINE
  8
0
 10
17.427
 20
151.237
 11
17.1869
 21
150.946
  0
LINE
  8
0
 10
17.1869
 20
150.946
 11
16.9123
 21
150.688
  0
LINE
  8
0
 10
16.9123
 20
150.688
 11
16.6075
 21
150.467
  0
LINE
  8
0
 10
16.6075
 20
150.467
 11
16.2773
 21
150.286
  0
LINE
  8
0
 10
16.2773
 20
150.286
 11
15.927
 21
150.147
  0
LINE
  8
0
 10
15.927
 20
150.147
 11
15.5621
 21
150.053
  0
LINE
  8
0
 10
15.5621
 20
150.053
 11
15.1884
 21
150.006
  0
LINE
  8
0
 10
15.1884
 20
150.006
 11
14.8116
 21
150.006
  0
LINE
  8
0
 10
-0.18837
 20
150.006
 11
-0.562134
 21
150.053
  0
LINE
  8
0
 10
-0.562134
 20
150.053
 11
-0.927048
 21
150.147
  0
LINE
  8
0
 10
-0.927048
 20
150.147
 11
-1.27733
 21
150.286
  0
LINE
  8
0
 10
-1.27733
 20
150.286
 11
-1.60747
 21
150.467
  0
LINE
  8
0
 10
-1.60747
 20
150.467
 11
-1.91226
 21
150.688
  0
LINE
  8
0
 10
-1.91226
 20
150.688
 11
-2.1869
 21
150.946
  0
LINE
  8
0
 10
-2.1869
 20
150.946
 11
-2.42705
 21
151.237
  0
LINE
  8
0
 10
-2.42705
 20
151.237
 11
-2.62891
 21
151.555
  0
LINE
  8
0
 10
-2.62891
 20
151.555
 11
-2.78932
 21
151.896
  0
LINE
  8
0
 10
-2.78932
 20
151.896
 11
-2.90575
 21
152.254
  0
LINE
  8
0
 10
-2.90575
 20
152.254
 11
-2.97633
 21
152.624
  0
LINE
  8
0
 10
-2.97633
 20
152.624
 11
-3
 21
153
  0
LINE
  8
0
 10
-3
 20
153
 11
-2.97633
 21
153.376
  0
LINE
  8
0
 10
-2.97633
 20
153.376
 11
-2.90575
 21
153.746
  0
LINE
  8
0
 10
-2.90575
 20
153.746
 11
-2.78932
 21
154.104
  0
LINE
  8
0
 10
-2.78932
 20
154.104
 11
-2.62891
 21
154.445
  0
LINE
  8
0
 10
-2.62891
 20
154.445
 11
-2.42705
 21
154.763
  0
LINE
  8
0
 10
-2.42705
 20
154.763
 11
-2.1869
 21
155.054
  0
LINE
  8
0
 10
-2.1869
 20
155.054
 11
-1.91226
 21
155.312
  0
LINE
  8
0
 10
-1.91226
 20
155.312
 11
-1.60747
 21
155.533
  0
LINE
  8
0
 10
-1.60747
 20
155.533
 11
-1.27733
 21
155.714
  0
LINE
  8
0
 10
-1.27733
 20
155.714
 11
-0.927048
 21
155.853
  0
LINE
  8
0
 10
-0.927048
 20
155.853
 11
-0.562134
 21
155.947
  0
LINE
  8
0
 10
-0.562134
 20
155.947
 11
-0.18837
 21
155.994
  0
LINE
  8
0
 10
-0.18837
 20
155.994
 11
0.18837
 21
155.994
  0
LINE
  8
0
 10
0.18837
 20
155.994
 11
0.562134
 21
155.947
  0
LINE
  8
0
 10
0.562134
 20
155.947
 11
0.927048
 21
155.853
  0
LINE
  8
0
 10
0.927048
 20
155.853
 11
1.27733
 21
155.714
  0
LINE
  8
0
 10
1.27733
 20
155.714
 11
1.60747
 21
155.533
  0
LINE
  8
0
 10
1.60747
 20
155.533
 11
1.91226
 21
155.312
  0
LINE
  8
0
 10
1.91226
 20
155.312
 11
2.1869
 21
155.054
  0
LINE
  8
0
 10
2.1869
 20
155.054
 11
2.42705
 21
154.763
  0
LINE
  8
0
 10
2.42705
 20
154.763
 11
2.62891
 21
154.445
  0
LINE
  8
0
 10
2.62891
 20
154.445
 11
2.78932
 21
154.104
  0
LINE
  8
0
 10
2.78932
 20
154.104
 11
2.90575
 21
153.746
  0
LINE
  8
0
 10
2.90575
 20
153.746
 11
2.97633
 21
153.376
  0
LINE
  8
0
 10
2.97633
 20
153.376
 11
3
 21
153
  0
LINE
  8
0
 10
3
 20
153
 11
2.97633
 21
152.624
  0
LINE
  8
0
 10
2.97633
 20
152.624
 11
2.90575
 21
152.254
  0
LINE
  8
0
 10
2.90575
 20
152.254
 11
2.78932
 21
151.896
  0
LINE
  8
0
 10
2.78932
 20
151.896
 11
2.62891
 21
151.555
  0
LINE
  8
0
 10
2.62891
 20
151.555
 11
2.42705
 21
151.237
  0
LINE
  8
0
 10
2.42705
 20
151.237
 11
2.1869
 21
150.946
  0
LINE
  8
0
 10
2.1869
 20
150.946
 11
1.91226
 21
150.688
  0
LINE
  8
0
 10
1.91226
 20
150.688
 11
1.60747
 21
150.467
  0
LINE
  8
0
 10
1.60747
 20
150.467
 11
1.27733
 21
150.286
  0
LINE
  8
0
 10
1.27733
 20
150.286
 11
0.927048
 21
150.147
  0
LINE
  8
0
 10
0.927048
 20
150.147
 11
0.562134
 21
150.053
  0
LINE
  8
0
 10
0.562134
 20
150.053
 11
0.18837
 21
150.006
  0
LINE
  8
0
 10
0.18837
 20
150.006
 11
-0.18837
 21
150.006
  0
LINE
  8
0
 10
29.8116
 20
150.006
 11
29.4379
 21
150.053
  0
LINE
  8
0
 10
29.4379
 20
150.053
 11
29.0729
 21
150.147
  0
LINE
  8
0
 10
29.0729
 20
150.147
 11
28.7227
 21
150.286
  0
LINE
  8
0
 10
28.7227
 20
150.286
 11
28.3925
 21
150.467
  0
LINE
  8
0
 10
28.3925
 20
150.467
 11
28.0877
 21
150.688
  0
LINE
  8
0
 10
28.0877
 20
150.688
 11
27.8131
 21
150.946
  0
LINE
  8
0
 10
27.8131
 20
150.946
 11
27.5729
 21
151.237
  0
LINE
  8
0
 10
27.5729
 20
151.237
 11
27.3711
 21
151.555
  0
LINE
  8
0
 10
27.3711
 20
151.555
 11
27.2107
 21
151.896
  0
LINE
  8
0
 10
27.2107
 20
151.896
 11
27.0942
 21
152.254
  0
LINE
  8
0
 10
27.0942
 20
152.254
 11
27.0237
 21
152.624
  0
LINE
  8
0
 10
27.0237
 20
152.624
 11
27
 21
153
  0
LINE
  8
0
 10
27
 20
153
 11
27.0237
 21
153.376
  0
LINE
  8
0
 10
27.0237
 20
153.376
 11
27.0942
 21
153.746
  0
LINE
  8
0
 10
27.0942
 20
153.746
 11
27.2107
 21
154.104
  0
LINE
  8
0
 10
27.2107
 20
154.104
 11
27.3711
 21
154.445
  0
LINE
  8
0
 10
27.3711
 20
154.445
 11
27.5729
 21
154.763
  0
LINE
  8
0
 10
27.5729
 20
154.763
 11
27.8131
 21
155.054
  0
LINE
  8
0
 10
27.8131
 20
155.054
 11
28.0877
 21
155.312
  0
LINE
  8
0
 10
28.0877
 20
155.312
 11
28.3925
 21
155.533
  0
LINE
  8
0
 10
28.3925
 20
155.533
 11
28.7227
 21
155.714
  0
LINE
  8
0
 10
28.7227
 20
155.714
 11
29.0729
 21
155.853
  0
LINE
  8
0
 10
29.0729
 20
155.853
 11
29.4379
 21
155.947
  0
LINE
  8
0
 10
29.4379
 20
155.947
 11
29.8116
 21
155.994
  0
LINE
  8
0
 10
29.8116
 20
155.994
 11
30.1884
 21
155.994
  0
LINE
  8
0
 10
30.1884
 20
155.994
 11
30.5621
 21
155.947
  0
LINE
  8
0
 10
30.5621
 20
155.947
 11
30.927
 21
155.853
  0
LINE
  8
0
 10
30.927
 20
155.853
 11
31.2773
 21
155.714
  0
LINE
  8
0
 10
31.2773
 20
155.714
 11
31.6075
 21
155.533
  0
LINE
  8
0
 10
31.6075
 20
155.533
 11
31.9123
 21
155.312
  0
LINE
  8
0
 10
31.9123
 20
155.312
 11
32.1869
 21
155.054
  0
LINE
  8
0
 10
32.1869
 20
155.054
 11
32.427
 21
154.763
  0
LINE
  8
0
 10
32.427
 20
154.763
 11
32.6289
 21
154.445
  0
LINE
  8
0
 10
32.6289
 20
154.445
 11
32.7893
 21
154.104
  0
LINE
  8
0
 10
32.7893
 20
154.104
 11
32.9057
 21
153.746
  0
LINE
  8
0
 10
32.9057
 20
153.746
 11
32.9763
 21
153.376
  0
LINE
  8
0
 10
32.9763
 20
153.376
 11
33
 21
153
  0
LINE
  8
0
 10
33
 20
153
 11
32.9763
 21
152.624
  0
LINE
  8
0
 10
32.9763
 20
152.624
 11
32.9057
 21
152.254
  0
LINE
  8
0
 10
32.9057
 20
152.254
 11
32.7893
 21
151.896
  0
LINE
  8
0
 10
32.7893
 20
151.896
 11
32.6289
 21
151.555
  0
LINE
  8
0
 10
32.6289
 20
151.555
 11
32.427
 21
151.237
  0
LINE
  8
0
 10
32.427
 20
151.237
 11
32.1869
 21
150.946
  0
LINE
  8
0
 10
32.1869
 20
150.946
 11
31.9123
 21
150.688
  0
LINE
  8
0
 10
31.9123
 20
150.688
 11
31.6075
 21
150.467
  0
LINE
  8
0
 10
31.6075
 20
150.467
 11
31.2773
 21
150.286
  0
LINE
  8
0
 10
31.2773
 20
150.286
 11
30.927
 21
150.147
  0
LINE
  8
0
 10
30.927
 20
150.147
 11
30.5621
 21
150.053
  0
LINE
  8
0
 10
30.5621
 20
150.053
 11
30.1884
 21
150.006
  0
LINE
  8
0
 10
30.1884
 20
150.006
 11
29.8116
 21
150.006
  0
LINE
  8
0
 10
-15.1884
 20
150.006
 11
-15.5621
 21
150.053
  0
LINE
  8
0
 10
-15.5621
 20
150.053
 11
-15.927
 21
150.147
  0
LINE
  8
0
 10
-15.927
 20
150.147
 11
-16.2773
 21
150.286
  0
LINE
  8
0
 10
-16.2773
 20
150.286
 11
-16.6075
 21
150.467
  0
LINE
  8
0
 10
-16.6075
 20
150.467
 11
-16.9123
 21
150.688
  0
LINE
  8
0
 10
-16.9123
 20
150.688
 11
-17.1869
 21
150.946
  0
LINE
  8
0
 10
-17.1869
 20
150.946
 11
-17.427
 21
151.237
  0
LINE
  8
0
 10
-17.427
 20
151.237
 11
-17.6289
 21
151.555
  0
LINE
  8
0
 10
-17.6289
 20
151.555
 11
-17.7893
 21
151.896
  0
LINE
  8
0
 10
-17.7893
 20
151.896
 11
-17.9057
 21
152.254
  0
LINE
  8
0
 10
-17.9057
 20
152.254
 11
-17.9763
 21
152.624
  0
LINE
  8
0
 10
-17.9763
 20
152.624
 11
-18
 21
153
  0
LINE
  8
0
 10
-18
 20
153
 11
-17.9763
 21
153.376
  0
LINE
  8
0
 10
-17.9763
 20
153.376
 11
-17.9057
 21
153.746
  0
LINE
  8
0
 10
-17.9057
 20
153.746
 11
-17.7893
 21
154.104
  0
LINE
  8
0
 10
-17.7893
 20
154.104
 11
-17.6289
 21
154.445
  0
LINE
  8
0
 10
-17.6289
 20
154.445
 11
-17.427
 21
154.763
  0
LINE
  8
0
 10
-17.427
 20
154.763
 11
-17.1869
 21
155.054
  0
LINE
  8
0
 10
-17.1869
 20
155.054
 11
-16.9123
 21
155.312
  0
LINE
  8
0
 10
-16.9123
 20
155.312
 11
-16.6075
 21
155.533
  0
LINE
  8
0
 10
-16.6075
 20
155.533
 11
-16.2773
 21
155.714
  0
LINE
  8
0
 10
-16.2773
 20
155.714
 11
-15.927
 21
155.853
  0
LINE
  8
0
 10
-15.927
 20
155.853
 11
-15.5621
 21
155.947
  0
LINE
  8
0
 10
-15.5621
 20
155.947
 11
-15.1884
 21
155.994
  0
LINE
  8
0
 10
-15.1884
 20
155.994
 11
-14.8116
 21
155.994
  0
LINE
  8
0
 10
-14.8116
 20
155.994
 11
-14.4379
 21
155.947
  0
LINE
  8
0
 10
-14.4379
 20
155.947
 11
-14.0729
 21
155.853
  0
LINE
  8
0
 10
-14.0729
 20
155.853
 11
-13.7227
 21
155.714
  0
LINE
  8
0
 10
-13.7227
 20
155.714
 11
-13.3925
 21
155.533
  0
LINE
  8
0
 10
-13.3925
 20
155.533
 11
-13.0877
 21
155.312
  0
LINE
  8
0
 10
-13.0877
 20
155.312
 11
-12.8131
 21
155.054
  0
LINE
  8
0
 10
-12.8131
 20
155.054
 11
-12.5729
 21
154.763
  0
LINE
  8
0
 10
-12.5729
 20
154.763
 11
-12.3711
 21
154.445
  0
LINE
  8
0
 10
-12.3711
 20
154.445
 11
-12.2107
 21
154.104
  0
LINE
  8
0
 10
-12.2107
 20
154.104
 11
-12.0942
 21
153.746
  0
LINE
  8
0
 10
-12.0942
 20
153.746
 11
-12.0237
 21
153.376
  0
LINE
  8
0
 10
-12.0237
 20
153.376
 11
-12
 21
153
  0
LINE
  8
0
 10
-12
 20
153
 11
-12.0237
 21
152.624
  0
LINE
  8
0
 10
-12.0237
 20
152.624
 11
-12.0942
 21
152.254
  0
LINE
  8
0
 10
-12.0942
 20
152.254
 11
-12.2107
 21
151.896
  0
LINE
  8
0
 10
-12.2107
 20
151.896
 11
-12.3711
 21
151.555
  0
LINE
  8
0
 10
-12.3711
 20
151.555
 11
-12.5729
 21
151.237
  0
LINE
  8
0
 10
-12.5729
 20
151.237
 11
-12.8131
 21
150.946
  0
LINE
  8
0
 10
-12.8131
 20
150.946
 11
-13.0877
 21
150.688
  0
LINE
  8
0
 10
-13.0877
 20
150.688
 11
-13.3925
 21
150.467
  0
LINE
  8
0
 10
-13.3925
 20
150.467
 11
-13.7227
 21
150.286
  0
LINE
  8
0
 10
-13.7227
 20
150.286
 11
-14.0729
 21
150.147
  0
LINE
  8
0
 10
-14.0729
 20
150.147
 11
-14.4379
 21
150.053
  0
LINE
  8
0
 10
-14.4379
 20
150.053
 11
-14.8116
 21
150.006
  0
LINE
  8
0
 10
-14.8116
 20
150.006
 11
-15.1884
 21
150.006
  0
LINE
  8
0
 10
-30.1884
 20
150.006
 11
-30.5621
 21
150.053
  0
LINE
  8
0
 10
-30.5621
 20
150.053
 11
-30.927
 21
150.147
  0
LINE
  8
0
 10
-30.927
 20
150.147
 11
-31.2773
 21
150.286
  0
LINE
  8
0
 10
-31.2773
 20
150.286
 11
-31.6075
 21
150.467
  0
LINE
  8
0
 10
-31.6075
 20
150.467
 11
-31.9123
 21
150.688
  0
LINE
  8
0
 10
-31.9123
 20
150.688
 11
-32.1869
 21
150.946
  0
LINE
  8
0
 10
-32.1869
 20
150.946
 11
-32.427
 21
151.237
  0
LINE
  8
0
 10
-32.427
 20
151.237
 11
-32.6289
 21
151.555
  0
LINE
  8
0
 10
-32.6289
 20
151.555
 11
-32.7893
 21
151.896
  0
LINE
  8
0
 10
-32.7893
 20
151.896
 11
-32.9057
 21
152.254
  0
LINE
  8
0
 10
-32.9057
 20
152.254
 11
-32.9763
 21
152.624
  0
LINE
  8
0
 10
-32.9763
 20
152.624
 11
-33
 21
153
  0
LINE
  8
0
 10
-33
 20
153
 11
-32.9763
 21
153.376
  0
LINE
  8
0
 10
-32.9763
 20
153.376
 11
-32.9057
 21
153.746
  0
LINE
  8
0
 10
-32.9057
 20
153.746
 11
-32.7893
 21
154.104
  0
LINE
  8
0
 10
-32.7893
 20
154.104
 11
-32.6289
 21
154.445
  0
LINE
  8
0
 10
-32.6289
 20
154.445
 11
-32.427
 21
154.763
  0
LINE
  8
0
 10
-32.427
 20
154.763
 11
-32.1869
 21
155.054
  0
LINE
  8
0
 10
-32.1869
 20
155.054
 11
-31.9123
 21
155.312
  0
LINE
  8
0
 10
-31.9123
 20
155.312
 11
-31.6075
 21
155.533
  0
LINE
  8
0
 10
-31.6075
 20
155.533
 11
-31.2773
 21
155.714
  0
LINE
  8
0
 10
-31.2773
 20
155.714
 11
-30.927
 21
155.853
  0
LINE
  8
0
 10
-30.927
 20
155.853
 11
-30.5621
 21
155.947
  0
LINE
  8
0
 10
-30.5621
 20
155.947
 11
-30.1884
 21
155.994
  0
LINE
  8
0
 10
-30.1884
 20
155.994
 11
-29.8116
 21
155.994
  0
LINE
  8
0
 10
-29.8116
 20
155.994
 11
-29.4379
 21
155.947
  0
LINE
  8
0
 10
-29.4379
 20
155.947
 11
-29.0729
 21
155.853
  0
LINE
  8
0
 10
-29.0729
 20
155.853
 11
-28.7227
 21
155.714
  0
LINE
  8
0
 10
-28.7227
 20
155.714
 11
-28.3925
 21
155.533
  0
LINE
  8
0
 10
-28.3925
 20
155.533
 11
-28.0877
 21
155.312
  0
LINE
  8
0
 10
-28.0877
 20
155.312
 11
-27.8131
 21
155.054
  0
LINE
  8
0
 10
-27.8131
 20
155.054
 11
-27.5729
 21
154.763
  0
LINE
  8
0
 10
-27.5729
 20
154.763
 11
-27.3711
 21
154.445
  0
LINE
  8
0
 10
-27.3711
 20
154.445
 11
-27.2107
 21
154.104
  0
LINE
  8
0
 10
-27.2107
 20
154.104
 11
-27.0942
 21
153.746
  0
LINE
  8
0
 10
-27.0942
 20
153.746
 11
-27.0237
 21
153.376
  0
LINE
  8
0
 10
-27.0237
 20
153.376
 11
-27
 21
153
  0
LINE
  8
0
 10
-27
 20
153
 11
-27.0237
 21
152.624
  0
LINE
  8
0
 10
-27.0237
 20
152.624
 11
-27.0942
 21
152.254
  0
LINE
  8
0
 10
-27.0942
 20
152.254
 11
-27.2107
 21
151.896
  0
LINE
  8
0
 10
-27.2107
 20
151.896
 11
-27.3711
 21
151.555
  0
LINE
  8
0
 10
-27.3711
 20
151.555
 11
-27.5729
 21
151.237
  0
LINE
  8
0
 10
-27.5729
 20
151.237
 11
-27.8131
 21
150.946
  0
LINE
  8
0
 10
-27.8131
 20
150.946
 11
-28.0877
 21
150.688
  0
LINE
  8
0
 10
-28.0877
 20
150.688
 11
-28.3925
 21
150.467
  0
LINE
  8
0
 10
-28.3925
 20
150.467
 11
-28.7227
 21
150.286
  0
LINE
  8
0
 10
-28.7227
 20
150.286
 11
-29.0729
 21
150.147
  0
LINE
  8
0
 10
-29.0729
 20
150.147
 11
-29.4379
 21
150.053
  0
LINE
  8
0
 10
-29.4379
 20
150.053
 11
-29.8116
 21
150.006
  0
LINE
  8
0
 10
-29.8116
 20
150.006
 11
-30.1884
 21
150.006
  0
LINE
  8
0
 10
-15.1884
 20
135.006
 11
-15.5621
 21
135.053
  0
LINE
  8
0
 10
-15.5621
 20
135.053
 11
-15.927
 21
135.147
  0
LINE
  8
0
 10
-15.927
 20
135.147
 11
-16.2773
 21
135.286
  0
LINE
  8
0
 10
-16.2773
 20
135.286
 11
-16.6075
 21
135.467
  0
LINE
  8
0
 10
-16.6075
 20
135.467
 11
-16.9123
 21
135.688
  0
LINE
  8
0
 10
-16.9123
 20
135.688
 11
-17.1869
 21
135.946
  0
LINE
  8
0
 10
-17.1869
 20
135.946
 11
-17.427
 21
136.237
  0
LINE
  8
0
 10
-17.427
 20
136.237
 11
-17.6289
 21
136.555
  0
LINE
  8
0
 10
-17.6289
 20
136.555
 11
-17.7893
 21
136.896
  0
LINE
  8
0
 10
-17.7893
 20
136.896
 11
-17.9057
 21
137.254
  0
LINE
  8
0
 10
-17.9057
 20
137.254
 11
-17.9763
 21
137.624
  0
LINE
  8
0
 10
-17.9763
 20
137.624
 11
-18
 21
138
  0
LINE
  8
0
 10
-18
 20
138
 11
-17.9763
 21
138.376
  0
LINE
  8
0
 10
-17.9763
 20
138.376
 11
-17.9057
 21
138.746
  0
LINE
  8
0
 10
-17.9057
 20
138.746
 11
-17.7893
 21
139.104
  0
LINE
  8
0
 10
-17.7893
 20
139.104
 11
-17.6289
 21
139.445
  0
LINE
  8
0
 10
-17.6289
 20
139.445
 11
-17.427
 21
139.763
  0
LINE
  8
0
 10
-17.427
 20
139.763
 11
-17.1869
 21
140.054
  0
LINE
  8
0
 10
-17.1869
 20
140.054
 11
-16.9123
 21
140.312
  0
LINE
  8
0
 10
-16.9123
 20
140.312
 11
-16.6075
 21
140.533
  0
LINE
  8
0
 10
-16.6075
 20
140.533
 11
-16.2773
 21
140.714
  0
LINE
  8
0
 10
-16.2773
 20
140.714
 11
-15.927
 21
140.853
  0
LINE
  8
0
 10
-15.927
 20
140.853
 11
-15.5621
 21
140.947
  0
LINE
  8
0
 10
-15.5621
 20
140.947
 11
-15.1884
 21
140.994
  0
LINE
  8
0
 10
-15.1884
 20
140.994
 11
-14.8116
 21
140.994
  0
LINE
  8
0
 10
-14.8116
 20
140.994
 11
-14.4379
 21
140.947
  0
LINE
  8
0
 10
-14.4379
 20
140.947
 11
-14.0729
 21
140.853
  0
LINE
  8
0
 10
-14.0729
 20
140.853
 11
-13.7227
 21
140.714
  0
LINE
  8
0
 10
-13.7227
 20
140.714
 11
-13.3925
 21
140.533
  0
LINE
  8
0
 10
-13.3925
 20
140.533
 11
-13.0877
 21
140.312
  0
LINE
  8
0
 10
-13.0877
 20
140.312
 11
-12.8131
 21
140.054
  0
LINE
  8
0
 10
-12.8131
 20
140.054
 11
-12.5729
 21
139.763
  0
LINE
  8
0
 10
-12.5729
 20
139.763
 11
-12.3711
 21
139.445
  0
LINE
  8
0
 10
-12.3711
 20
139.445
 11
-12.2107
 21
139.104
  0
LINE
  8
0
 10
-12.2107
 20
139.104
 11
-12.0942
 21
138.746
  0
LINE
  8
0
 10
-12.0942
 20
138.746
 11
-12.0237
 21
138.376
  0
LINE
  8
0
 10
-12.0237
 20
138.376
 11
-12
 21
138
  0
LINE
  8
0
 10
-12
 20
138
 11
-12.0237
 21
137.624
  0
LINE
  8
0
 10
-12.0237
 20
137.624
 11
-12.0942
 21
137.254
  0
LINE
  8
0
 10
-12.0942
 20
137.254
 11
-12.2107
 21
136.896
  0
LINE
  8
0
 10
-12.2107
 20
136.896
 11
-12.3711
 21
136.555
  0
LINE
  8
0
 10
-12.3711
 20
136.555
 11
-12.5729
 21
136.237
  0
LINE
  8
0
 10
-12.5729
 20
136.237
 11
-12.8131
 21
135.946
  0
LINE
  8
0
 10
-12.8131
 20
135.946
 11
-13.0877
 21
135.688
  0
LINE
  8
0
 10
-13.0877
 20
135.688
 11
-13.3925
 21
135.467
  0
LINE
  8
0
 10
-13.3925
 20
135.467
 11
-13.7227
 21
135.286
  0
LINE
  8
0
 10
-13.7227
 20
135.286
 11
-14.0729
 21
135.147
  0
LINE
  8
0
 10
-14.0729
 20
135.147
 11
-14.4379
 21
135.053
  0
LINE
  8
0
 10
-14.4379
 20
135.053
 11
-14.8116
 21
135.006
  0
LINE
  8
0
 10
-14.8116
 20
135.006
 11
-15.1884
 21
135.006
  0
LINE
  8
0
 10
14.8116
 20
135.006
 11
14.4379
 21
135.053
  0
LINE
  8
0
 10
14.4379
 20
135.053
 11
14.0729
 21
135.147
  0
LINE
  8
0
 10
14.0729
 20
135.147
 11
13.7227
 21
135.286
  0
LINE
  8
0
 10
13.7227
 20
135.286
 11
13.3925
 21
135.467
  0
LINE
  8
0
 10
13.3925
 20
135.467
 11
13.0877
 21
135.688
  0
LINE
  8
0
 10
13.0877
 20
135.688
 11
12.8131
 21
135.946
  0
LINE
  8
0
 10
12.8131
 20
135.946
 11
12.5729
 21
136.237
  0
LINE
  8
0
 10
12.5729
 20
136.237
 11
12.3711
 21
136.555
  0
LINE
  8
0
 10
12.3711
 20
136.555
 11
12.2107
 21
136.896
  0
LINE
  8
0
 10
12.2107
 20
136.896
 11
12.0942
 21
137.254
  0
LINE
  8
0
 10
12.0942
 20
137.254
 11
12.0237
 21
137.624
  0
LINE
  8
0
 10
12.0237
 20
137.624
 11
12
 21
138
  0
LINE
  8
0
 10
12
 20
138
 11
12.0237
 21
138.376
  0
LINE
  8
0
 10
12.0237
 20
138.376
 11
12.0942
 21
138.746
  0
LINE
  8
0
 10
12.0942
 20
138.746
 11
12.2107
 21
139.104
  0
LINE
  8
0
 10
12.2107
 20
139.104
 11
12.3711
 21
139.445
  0
LINE
  8
0
 10
12.3711
 20
139.445
 11
12.5729
 21
139.763
  0
LINE
  8
0
 10
12.5729
 20
139.763
 11
12.8131
 21
140.054
  0
LINE
  8
0
 10
12.8131
 20
140.054
 11
13.0877
 21
140.312
  0
LINE
  8
0
 10
13.0877
 20
140.312
 11
13.3925
 21
140.533
  0
LINE
  8
0
 10
13.3925
 20
140.533
 11
13.7227
 21
140.714
  0
LINE
  8
0
 10
13.7227
 20
140.714
 11
14.0729
 21
140.853
  0
LINE
  8
0
 10
14.0729
 20
140.853
 11
14.4379
 21
140.947
  0
LINE
  8
0
 10
14.4379
 20
140.947
 11
14.8116
 21
140.994
  0
LINE
  8
0
 10
14.8116
 20
140.994
 11
15.1884
 21
140.994
  0
LINE
  8
0
 10
15.1884
 20
140.994
 11
15.5621
 21
140.947
  0
LINE
  8
0
 10
15.5621
 20
140.947
 11
15.927
 21
140.853
  0
LINE
  8
0
 10
15.927
 20
140.853
 11
16.2773
 21
140.714
  0
LINE
  8
0
 10
16.2773
 20
140.714
 11
16.6075
 21
140.533
  0
LINE
  8
0
 10
16.6075
 20
140.533
 11
16.9123
 21
140.312
  0
LINE
  8
0
 10
16.9123
 20
140.312
 11
17.1869
 21
140.054
  0
LINE
  8
0
 10
17.1869
 20
140.054
 11
17.427
 21
139.763
  0
LINE
  8
0
 10
17.427
 20
139.763
 11
17.6289
 21
139.445
  0
LINE
  8
0
 10
17.6289
 20
139.445
 11
17.7893
 21
139.104
  0
LINE
  8
0
 10
17.7893
 20
139.104
 11
17.9057
 21
138.746
  0
LINE
  8
0
 10
17.9057
 20
138.746
 11
17.9763
 21
138.376
  0
LINE
  8
0
 10
17.9763
 20
138.376
 11
18
 21
138
  0
LINE
  8
0
 10
18
 20
138
 11
17.9763
 21
137.624
  0
LINE
  8
0
 10
17.9763
 20
137.624
 11
17.9057
 21
137.254
  0
LINE
  8
0
 10
17.9057
 20
137.254
 11
17.7893
 21
136.896
  0
LINE
  8
0
 10
17.7893
 20
136.896
 11
17.6289
 21
136.555
  0
LINE
  8
0
 10
17.6289
 20
136.555
 11
17.427
 21
136.237
  0
LINE
  8
0
 10
17.427
 20
136.237
 11
17.1869
 21
135.946
  0
LINE
  8
0
 10
17.1869
 20
135.946
 11
16.9123
 21
135.688
  0
LINE
  8
0
 10
16.9123
 20
135.688
 11
16.6075
 21
135.467
  0
LINE
  8
0
 10
16.6075
 20
135.467
 11
16.2773
 21
135.286
  0
LINE
  8
0
 10
16.2773
 20
135.286
 11
15.927
 21
135.147
  0
LINE
  8
0
 10
15.927
 20
135.147
 11
15.5621
 21
135.053
  0
LINE
  8
0
 10
15.5621
 20
135.053
 11
15.1884
 21
135.006
  0
LINE
  8
0
 10
15.1884
 20
135.006
 11
14.8116
 21
135.006
  0
LINE
  8
0
 10
-30.1884
 20
135.006
 11
-30.5621
 21
135.053
  0
LINE
  8
0
 10
-30.5621
 20
135.053
 11
-30.927
 21
135.147
  0
LINE
  8
0
 10
-30.927
 20
135.147
 11
-31.2773
 21
135.286
  0
LINE
  8
0
 10
-31.2773
 20
135.286
 11
-31.6075
 21
135.467
  0
LINE
  8
0
 10
-31.6075
 20
135.467
 11
-31.9123
 21
135.688
  0
LINE
  8
0
 10
-31.9123
 20
135.688
 11
-32.1869
 21
135.946
  0
LINE
  8
0
 10
-32.1869
 20
135.946
 11
-32.427
 21
136.237
  0
LINE
  8
0
 10
-32.427
 20
136.237
 11
-32.6289
 21
136.555
  0
LINE
  8
0
 10
-32.6289
 20
136.555
 11
-32.7893
 21
136.896
  0
LINE
  8
0
 10
-32.7893
 20
136.896
 11
-32.9057
 21
137.254
  0
LINE
  8
0
 10
-32.9057
 20
137.254
 11
-32.9763
 21
137.624
  0
LINE
  8
0
 10
-32.9763
 20
137.624
 11
-33
 21
138
  0
LINE
  8
0
 10
-33
 20
138
 11
-32.9763
 21
138.376
  0
LINE
  8
0
 10
-32.9763
 20
138.376
 11
-32.9057
 21
138.746
  0
LINE
  8
0
 10
-32.9057
 20
138.746
 11
-32.7893
 21
139.104
  0
LINE
  8
0
 10
-32.7893
 20
139.104
 11
-32.6289
 21
139.445
  0
LINE
  8
0
 10
-32.6289
 20
139.445
 11
-32.427
 21
139.763
  0
LINE
  8
0
 10
-32.427
 20
139.763
 11
-32.1869
 21
140.054
  0
LINE
  8
0
 10
-32.1869
 20
140.054
 11
-31.9123
 21
140.312
  0
LINE
  8
0
 10
-31.9123
 20
140.312
 11
-31.6075
 21
140.533
  0
LINE
  8
0
 10
-31.6075
 20
140.533
 11
-31.2773
 21
140.714
  0
LINE
  8
0
 10
-31.2773
 20
140.714
 11
-30.927
 21
140.853
  0
LINE
  8
0
 10
-30.927
 20
140.853
 11
-30.5621
 21
140.947
  0
LINE
  8
0
 10
-30.5621
 20
140.947
 11
-30.1884
 21
140.994
  0
LINE
  8
0
 10
-30.1884
 20
140.994
 11
-29.8116
 21
140.994
  0
LINE
  8
0
 10
-29.8116
 20
140.994
 11
-29.4379
 21
140.947
  0
LINE
  8
0
 10
-29.4379
 20
140.947
 11
-29.0729
 21
140.853
  0
LINE
  8
0
 10
-29.0729
 20
140.853
 11
-28.7227
 21
140.714
  0
LINE
  8
0
 10
-28.7227
 20
140.714
 11
-28.3925
 21
140.533
  0
LINE
  8
0
 10
-28.3925
 20
140.533
 11
-28.0877
 21
140.312
  0
LINE
  8
0
 10
-28.0877
 20
140.312
 11
-27.8131
 21
140.054
  0
LINE
  8
0
 10
-27.8131
 20
140.054
 11
-27.5729
 21
139.763
  0
LINE
  8
0
 10
-27.5729
 20
139.763
 11
-27.3711
 21
139.445
  0
LINE
  8
0
 10
-27.3711
 20
139.445
 11
-27.2107
 21
139.104
  0
LINE
  8
0
 10
-27.2107
 20
139.104
 11
-27.0942
 21
138.746
  0
LINE
  8
0
 10
-27.0942
 20
138.746
 11
-27.0237
 21
138.376
  0
LINE
  8
0
 10
-27.0237
 20
138.376
 11
-27
 21
138
  0
LINE
  8
0
 10
-27
 20
138
 11
-27.0237
 21
137.624
  0
LINE
  8
0
 10
-27.0237
 20
137.624
 11
-27.0942
 21
137.254
  0
LINE
  8
0
 10
-27.0942
 20
137.254
 11
-27.2107
 21
136.896
  0
LINE
  8
0
 10
-27.2107
 20
136.896
 11
-27.3711
 21
136.555
  0
LINE
  8
0
 10
-27.3711
 20
136.555
 11
-27.5729
 21
136.237
  0
LINE
  8
0
 10
-27.5729
 20
136.237
 11
-27.8131
 21
135.946
  0
LINE
  8
0
 10
-27.8131
 20
135.946
 11
-28.0877
 21
135.688
  0
LINE
  8
0
 10
-28.0877
 20
135.688
 11
-28.3925
 21
135.467
  0
LINE
  8
0
 10
-28.3925
 20
135.467
 11
-28.7227
 21
135.286
  0
LINE
  8
0
 10
-28.7227
 20
135.286
 11
-29.0729
 21
135.147
  0
LINE
  8
0
 10
-29.0729
 20
135.147
 11
-29.4379
 21
135.053
  0
LINE
  8
0
 10
-29.4379
 20
135.053
 11
-29.8116
 21
135.006
  0
LINE
  8
0
 10
-29.8116
 20
135.006
 11
-30.1884
 21
135.006
  0
LINE
  8
0
 10
-0.18837
 20
135.006
 11
-0.562134
 21
135.053
  0
LINE
  8
0
 10
-0.562134
 20
135.053
 11
-0.927048
 21
135.147
  0
LINE
  8
0
 10
-0.927048
 20
135.147
 11
-1.27733
 21
135.286
  0
LINE
  8
0
 10
-1.27733
 20
135.286
 11
-1.60747
 21
135.467
  0
LINE
  8
0
 10
-1.60747
 20
135.467
 11
-1.91226
 21
135.688
  0
LINE
  8
0
 10
-1.91226
 20
135.688
 11
-2.1869
 21
135.946
  0
LINE
  8
0
 10
-2.1869
 20
135.946
 11
-2.42705
 21
136.237
  0
LINE
  8
0
 10
-2.42705
 20
136.237
 11
-2.62891
 21
136.555
  0
LINE
  8
0
 10
-2.62891
 20
136.555
 11
-2.78932
 21
136.896
  0
LINE
  8
0
 10
-2.78932
 20
136.896
 11
-2.90575
 21
137.254
  0
LINE
  8
0
 10
-2.90575
 20
137.254
 11
-2.97633
 21
137.624
  0
LINE
  8
0
 10
-2.97633
 20
137.624
 11
-3
 21
138
  0
LINE
  8
0
 10
-3
 20
138
 11
-2.97633
 21
138.376
  0
LINE
  8
0
 10
-2.97633
 20
138.376
 11
-2.90575
 21
138.746
  0
LINE
  8
0
 10
-2.90575
 20
138.746
 11
-2.78932
 21
139.104
  0
LINE
  8
0
 10
-2.78932
 20
139.104
 11
-2.62891
 21
139.445
  0
LINE
  8
0
 10
-2.62891
 20
139.445
 11
-2.42705
 21
139.763
  0
LINE
  8
0
 10
-2.42705
 20
139.763
 11
-2.1869
 21
140.054
  0
LINE
  8
0
 10
-2.1869
 20
140.054
 11
-1.91226
 21
140.312
  0
LINE
  8
0
 10
-1.91226
 20
140.312
 11
-1.60747
 21
140.533
  0
LINE
  8
0
 10
-1.60747
 20
140.533
 11
-1.27733
 21
140.714
  0
LINE
  8
0
 10
-1.27733
 20
140.714
 11
-0.927048
 21
140.853
  0
LINE
  8
0
 10
-0.927048
 20
140.853
 11
-0.562134
 21
140.947
  0
LINE
  8
0
 10
-0.562134
 20
140.947
 11
-0.18837
 21
140.994
  0
LINE
  8
0
 10
-0.18837
 20
140.994
 11
0.18837
 21
140.994
  0
LINE
  8
0
 10
0.18837
 20
140.994
 11
0.562134
 21
140.947
  0
LINE
  8
0
 10
0.562134
 20
140.947
 11
0.927048
 21
140.853
  0
LINE
  8
0
 10
0.927048
 20
140.853
 11
1.27733
 21
140.714
  0
LINE
  8
0
 10
1.27733
 20
140.714
 11
1.60747
 21
140.533
  0
LINE
  8
0
 10
1.60747
 20
140.533
 11
1.91226
 21
140.312
  0
LINE
  8
0
 10
1.91226
 20
140.312
 11
2.1869
 21
140.054
  0
LINE
  8
0
 10
2.1869
 20
140.054
 11
2.42705
 21
139.763
  0
LINE
  8
0
 10
2.42705
 20
139.763
 11
2.62891
 21
139.445
  0
LINE
  8
0
 10
2.62891
 20
139.445
 11
2.78932
 21
139.104
  0
LINE
  8
0
 10
2.78932
 20
139.104
 11
2.90575
 21
138.746
  0
LINE
  8
0
 10
2.90575
 20
138.746
 11
2.97633
 21
138.376
  0
LINE
  8
0
 10
2.97633
 20
138.376
 11
3
 21
138
  0
LINE
  8
0
 10
3
 20
138
 11
2.97633
 21
137.624
  0
LINE
  8
0
 10
2.97633
 20
137.624
 11
2.90575
 21
137.254
  0
LINE
  8
0
 10
2.90575
 20
137.254
 11
2.78932
 21
136.896
  0
LINE
  8
0
 10
2.78932
 20
136.896
 11
2.62891
 21
136.555
  0
LINE
  8
0
 10
2.62891
 20
136.555
 11
2.42705
 21
136.237
  0
LINE
  8
0
 10
2.42705
 20
136.237
 11
2.1869
 21
135.946
  0
LINE
  8
0
 10
2.1869
 20
135.946
 11
1.91226
 21
135.688
  0
LINE
  8
0
 10
1.91226
 20
135.688
 11
1.60747
 21
135.467
  0
LINE
  8
0
 10
1.60747
 20
135.467
 11
1.27733
 21
135.286
  0
LINE
  8
0
 10
1.27733
 20
135.286
 11
0.927048
 21
135.147
  0
LINE
  8
0
 10
0.927048
 20
135.147
 11
0.562134
 21
135.053
  0
LINE
  8
0
 10
0.562134
 20
135.053
 11
0.18837
 21
135.006
  0
LINE
  8
0
 10
0.18837
 20
135.006
 11
-0.18837
 21
135.006
  0
LINE
  8
0
 10
29.8116
 20
135.006
 11
29.4379
 21
135.053
  0
LINE
  8
0
 10
29.4379
 20
135.053
 11
29.0729
 21
135.147
  0
LINE
  8
0
 10
29.0729
 20
135.147
 11
28.7227
 21
135.286
  0
LINE
  8
0
 10
28.7227
 20
135.286
 11
28.3925
 21
135.467
  0
LINE
  8
0
 10
28.3925
 20
135.467
 11
28.0877
 21
135.688
  0
LINE
  8
0
 10
28.0877
 20
135.688
 11
27.8131
 21
135.946
  0
LINE
  8
0
 10
27.8131
 20
135.946
 11
27.5729
 21
136.237
  0
LINE
  8
0
 10
27.5729
 20
136.237
 11
27.3711
 21
136.555
  0
LINE
  8
0
 10
27.3711
 20
136.555
 11
27.2107
 21
136.896
  0
LINE
  8
0
 10
27.2107
 20
136.896
 11
27.0942
 21
137.254
  0
LINE
  8
0
 10
27.0942
 20
137.254
 11
27.0237
 21
137.624
  0
LINE
  8
0
 10
27.0237
 20
137.624
 11
27
 21
138
  0
LINE
  8
0
 10
27
 20
138
 11
27.0237
 21
138.376
  0
LINE
  8
0
 10
27.0237
 20
138.376
 11
27.0942
 21
138.746
  0
LINE
  8
0
 10
27.0942
 20
138.746
 11
27.2107
 21
139.104
  0
LINE
  8
0
 10
27.2107
 20
139.104
 11
27.3711
 21
139.445
  0
LINE
  8
0
 10
27.3711
 20
139.445
 11
27.5729
 21
139.763
  0
LINE
  8
0
 10
27.5729
 20
139.763
 11
27.8131
 21
140.054
  0
LINE
  8
0
 10
27.8131
 20
140.054
 11
28.0877
 21
140.312
  0
LINE
  8
0
 10
28.0877
 20
140.312
 11
28.3925
 21
140.533
  0
LINE
  8
0
 10
28.3925
 20
140.533
 11
28.7227
 21
140.714
  0
LINE
  8
0
 10
28.7227
 20
140.714
 11
29.0729
 21
140.853
  0
LINE
  8
0
 10
29.0729
 20
140.853
 11
29.4379
 21
140.947
  0
LINE
  8
0
 10
29.4379
 20
140.947
 11
29.8116
 21
140.994
  0
LINE
  8
0
 10
29.8116
 20
140.994
 11
30.1884
 21
140.994
  0
LINE
  8
0
 10
30.1884
 20
140.994
 11
30.5621
 21
140.947
  0
LINE
  8
0
 10
30.5621
 20
140.947
 11
30.927
 21
140.853
  0
LINE
  8
0
 10
30.927
 20
140.853
 11
31.2773
 21
140.714
  0
LINE
  8
0
 10
31.2773
 20
140.714
 11
31.6075
 21
140.533
  0
LINE
  8
0
 10
31.6075
 20
140.533
 11
31.9123
 21
140.312
  0
LINE
  8
0
 10
31.9123
 20
140.312
 11
32.1869
 21
140.054
  0
LINE
  8
0
 10
32.1869
 20
140.054
 11
32.427
 21
139.763
  0
LINE
  8
0
 10
32.427
 20
139.763
 11
32.6289
 21
139.445
  0
LINE
  8
0
 10
32.6289
 20
139.445
 11
32.7893
 21
139.104
  0
LINE
  8
0
 10
32.7893
 20
139.104
 11
32.9057
 21
138.746
  0
LINE
  8
0
 10
32.9057
 20
138.746
 11
32.9763
 21
138.376
  0
LINE
  8
0
 10
32.9763
 20
138.376
 11
33
 21
138
  0
LINE
  8
0
 10
33
 20
138
 11
32.9763
 21
137.624
  0
LINE
  8
0
 10
32.9763
 20
137.624
 11
32.9057
 21
137.254
  0
LINE
  8
0
 10
32.9057
 20
137.254
 11
32.7893
 21
136.896
  0
LINE
  8
0
 10
32.7893
 20
136.896
 11
32.6289
 21
136.555
  0
LINE
  8
0
 10
32.6289
 20
136.555
 11
32.427
 21
136.237
  0
LINE
  8
0
 10
32.427
 20
136.237
 11
32.1869
 21
135.946
  0
LINE
  8
0
 10
32.1869
 20
135.946
 11
31.9123
 21
135.688
  0
LINE
  8
0
 10
31.9123
 20
135.688
 11
31.6075
 21
135.467
  0
LINE
  8
0
 10
31.6075
 20
135.467
 11
31.2773
 21
135.286
  0
LINE
  8
0
 10
31.2773
 20
135.286
 11
30.927
 21
135.147
  0
LINE
  8
0
 10
30.927
 20
135.147
 11
30.5621
 21
135.053
  0
LINE
  8
0
 10
30.5621
 20
135.053
 11
30.1884
 21
135.006
  0
LINE
  8
0
 10
30.1884
 20
135.006
 11
29.8116
 21
135.006
  0
LINE
  8
0
 10
32.9369
 20
47.0886
 11
33.5451
 21
47.2447
  0
LINE
  8
0
 10
33.5451
 20
47.2447
 11
34.1289
 21
47.4759
  0
LINE
  8
0
 10
34.1289
 20
47.4759
 11
34.6791
 21
47.7784
  0
LINE
  8
0
 10
34.6791
 20
47.7784
 11
35.1871
 21
48.1474
  0
LINE
  8
0
 10
35.1871
 20
48.1474
 11
35.6448
 21
48.5773
  0
LINE
  8
0
 10
35.6448
 20
48.5773
 11
36.0451
 21
49.0611
  0
LINE
  8
0
 10
36.0451
 20
49.0611
 11
36.3815
 21
49.5912
  0
LINE
  8
0
 10
36.3815
 20
49.5912
 11
36.6489
 21
50.1594
  0
LINE
  8
0
 10
36.6489
 20
50.1594
 11
36.8429
 21
50.7566
  0
LINE
  8
0
 10
36.8429
 20
50.7566
 11
36.9606
 21
51.3733
  0
LINE
  8
0
 10
36.9606
 20
51.3733
 11
37
 21
52
  0
LINE
  8
0
 10
37
 20
52
 11
37
 21
116
  0
LINE
  8
0
 10
37
 20
116
 11
36.9606
 21
116.627
  0
LINE
  8
0
 10
36.9606
 20
116.627
 11
36.8429
 21
117.243
  0
LINE
  8
0
 10
36.8429
 20
117.243
 11
36.6489
 21
117.841
  0
LINE
  8
0
 10
36.6489
 20
117.841
 11
36.3815
 21
118.409
  0
LINE
  8
0
 10
36.3815
 20
118.409
 11
36.0451
 21
118.939
  0
LINE
  8
0
 10
36.0451
 20
118.939
 11
35.6448
 21
119.423
  0
LINE
  8
0
 10
35.6448
 20
119.423
 11
35.1871
 21
119.853
  0
LINE
  8
0
 10
35.1871
 20
119.853
 11
34.6791
 21
120.222
  0
LINE
  8
0
 10
34.6791
 20
120.222
 11
34.1289
 21
120.524
  0
LINE
  8
0
 10
34.1289
 20
120.524
 11
33.5451
 21
120.755
  0
LINE
  8
0
 10
33.5451
 20
120.755
 11
32.9369
 21
120.911
  0
LINE
  8
0
 10
32.9369
 20
120.911
 11
32.3139
 21
120.99
  0
LINE
  8
0
 10
32.3139
 20
120.99
 11
-32.3139
 21
120.99
  0
LINE
  8
0
 10
-32.3139
 20
120.99
 11
-32.9369
 21
120.911
  0
LINE
  8
0
 10
-32.9369
 20
120.911
 11
-33.5451
 21
120.755
  0
LINE
  8
0
 10
-33.5451
 20
120.755
 11
-34.1289
 21
120.524
  0
LINE
  8
0
 10
-34.1289
 20
120.524
 11
-34.6791
 21
120.222
  0
LINE
  8
0
 10
-34.6791
 20
120.222
 11
-35.1871
 21
119.853
  0
LINE
  8
0
 10
-35.1871
 20
119.853
 11
-35.6448
 21
119.423
  0
LINE
  8
0
 10
-35.6448
 20
119.423
 11
-36.0451
 21
118.939
  0
LINE
  8
0
 10
-36.0451
 20
118.939
 11
-36.3815
 21
118.409
  0
LINE
  8
0
 10
-36.3815
 20
118.409
 11
-36.6489
 21
117.841
  0
LINE
  8
0
 10
-36.6489
 20
117.841
 11
-36.8429
 21
117.243
  0
LINE
  8
0
 10
-36.8429
 20
117.243
 11
-36.9606
 21
116.627
  0
LINE
  8
0
 10
-36.9606
 20
116.627
 11
-37
 21
116
  0
LINE
  8
0
 10
-37
 20
116
 11
-37
 21
52
  0
LINE
  8
0
 10
-37
 20
52
 11
-36.9606
 21
51.3733
  0
LINE
  8
0
 10
-36.9606
 20
51.3733
 11
-36.8429
 21
50.7566
  0
LINE
  8
0
 10
-36.8429
 20
50.7566
 11
-36.6489
 21
50.1594
  0
LINE
  8
0
 10
-36.6489
 20
50.1594
 11
-36.3815
 21
49.5912
  0
LINE
  8
0
 10
-36.3815
 20
49.5912
 11
-36.0451
 21
49.0611
  0
LINE
  8
0
 10
-36.0451
 20
49.0611
 11
-35.6448
 21
48.5773
  0
LINE
  8
0
 10
-35.6448
 20
48.5773
 11
-35.1871
 21
48.1474
  0
LINE
  8
0
 10
-35.1871
 20
48.1474
 11
-34.6791
 21
47.7784
  0
LINE
  8
0
 10
-34.6791
 20
47.7784
 11
-34.1289
 21
47.4759
  0
LINE
  8
0
 10
-34.1289
 20
47.4759
 11
-33.5451
 21
47.2447
  0
LINE
  8
0
 10
-33.5451
 20
47.2447
 11
-32.9369
 21
47.0886
  0
LINE
  8
0
 10
-32.9369
 20
47.0886
 11
-32.3139
 21
47.0099
  0
LINE
  8
0
 10
-32.3139
 20
47.0099
 11
32.3139
 21
47.0099
  0
LINE
  8
0
 10
32.3139
 20
47.0099
 11
32.9369
 21
47.0886
  0
LINE
  8
0
 10
29.8116
 20
111.006
 11
29.4379
 21
111.053
  0
LINE
  8
0
 10
29.4379
 20
111.053
 11
29.0729
 21
111.147
  0
LINE
  8
0
 10
29.0729
 20
111.147
 11
28.7227
 21
111.286
  0
LINE
  8
0
 10
28.7227
 20
111.286
 11
28.3925
 21
111.467
  0
LINE
  8
0
 10
28.3925
 20
111.467
 11
28.0877
 21
111.688
  0
LINE
  8
0
 10
28.0877
 20
111.688
 11
27.8131
 21
111.946
  0
LINE
  8
0
 10
27.8131
 20
111.946
 11
27.5729
 21
112.237
  0
LINE
  8
0
 10
27.5729
 20
112.237
 11
27.3711
 21
112.555
  0
LINE
  8
0
 10
27.3711
 20
112.555
 11
27.2107
 21
112.896
  0
LINE
  8
0
 10
27.2107
 20
112.896
 11
27.0942
 21
113.254
  0
LINE
  8
0
 10
27.0942
 20
113.254
 11
27.0237
 21
113.624
  0
LINE
  8
0
 10
27.0237
 20
113.624
 11
27
 21
114
  0
LINE
  8
0
 10
27
 20
114
 11
27.0237
 21
114.376
  0
LINE
  8
0
 10
27.0237
 20
114.376
 11
27.0942
 21
114.746
  0
LINE
  8
0
 10
27.0942
 20
114.746
 11
27.2107
 21
115.104
  0
LINE
  8
0
 10
27.2107
 20
115.104
 11
27.3711
 21
115.445
  0
LINE
  8
0
 10
27.3711
 20
115.445
 11
27.5729
 21
115.763
  0
LINE
  8
0
 10
27.5729
 20
115.763
 11
27.8131
 21
116.054
  0
LINE
  8
0
 10
27.8131
 20
116.054
 11
28.0877
 21
116.312
  0
LINE
  8
0
 10
28.0877
 20
116.312
 11
28.3925
 21
116.533
  0
LINE
  8
0
 10
28.3925
 20
116.533
 11
28.7227
 21
116.714
  0
LINE
  8
0
 10
28.7227
 20
116.714
 11
29.0729
 21
116.853
  0
LINE
  8
0
 10
29.0729
 20
116.853
 11
29.4379
 21
116.947
  0
LINE
  8
0
 10
29.4379
 20
116.947
 11
29.8116
 21
116.994
  0
LINE
  8
0
 10
29.8116
 20
116.994
 11
30.1884
 21
116.994
  0
LINE
  8
0
 10
30.1884
 20
116.994
 11
30.5621
 21
116.947
  0
LINE
  8
0
 10
30.5621
 20
116.947
 11
30.927
 21
116.853
  0
LINE
  8
0
 10
30.927
 20
116.853
 11
31.2773
 21
116.714
  0
LINE
  8
0
 10
31.2773
 20
116.714
 11
31.6075
 21
116.533
  0
LINE
  8
0
 10
31.6075
 20
116.533
 11
31.9123
 21
116.312
  0
LINE
  8
0
 10
31.9123
 20
116.312
 11
32.1869
 21
116.054
  0
LINE
  8
0
 10
32.1869
 20
116.054
 11
32.427
 21
115.763
  0
LINE
  8
0
 10
32.427
 20
115.763
 11
32.6289
 21
115.445
  0
LINE
  8
0
 10
32.6289
 20
115.445
 11
32.7893
 21
115.104
  0
LINE
  8
0
 10
32.7893
 20
115.104
 11
32.9057
 21
114.746
  0
LINE
  8
0
 10
32.9057
 20
114.746
 11
32.9763
 21
114.376
  0
LINE
  8
0
 10
32.9763
 20
114.376
 11
33
 21
114
  0
LINE
  8
0
 10
33
 20
114
 11
32.9763
 21
113.624
  0
LINE
  8
0
 10
32.9763
 20
113.624
 11
32.9057
 21
113.254
  0
LINE
  8
0
 10
32.9057
 20
113.254
 11
32.7893
 21
112.896
  0
LINE
  8
0
 10
32.7893
 20
112.896
 11
32.6289
 21
112.555
  0
LINE
  8
0
 10
32.6289
 20
112.555
 11
32.427
 21
112.237
  0
LINE
  8
0
 10
32.427
 20
112.237
 11
32.1869
 21
111.946
  0
LINE
  8
0
 10
32.1869
 20
111.946
 11
31.9123
 21
111.688
  0
LINE
  8
0
 10
31.9123
 20
111.688
 11
31.6075
 21
111.467
  0
LINE
  8
0
 10
31.6075
 20
111.467
 11
31.2773
 21
111.286
  0
LINE
  8
0
 10
31.2773
 20
111.286
 11
30.927
 21
111.147
  0
LINE
  8
0
 10
30.927
 20
111.147
 11
30.5621
 21
111.053
  0
LINE
  8
0
 10
30.5621
 20
111.053
 11
30.1884
 21
111.006
  0
LINE
  8
0
 10
30.1884
 20
111.006
 11
29.8116
 21
111.006
  0
LINE
  8
0
 10
-0.18837
 20
111.006
 11
-0.562134
 21
111.053
  0
LINE
  8
0
 10
-0.562134
 20
111.053
 11
-0.927048
 21
111.147
  0
LINE
  8
0
 10
-0.927048
 20
111.147
 11
-1.27733
 21
111.286
  0
LINE
  8
0
 10
-1.27733
 20
111.286
 11
-1.60747
 21
111.467
  0
LINE
  8
0
 10
-1.60747
 20
111.467
 11
-1.91226
 21
111.688
  0
LINE
  8
0
 10
-1.91226
 20
111.688
 11
-2.1869
 21
111.946
  0
LINE
  8
0
 10
-2.1869
 20
111.946
 11
-2.42705
 21
112.237
  0
LINE
  8
0
 10
-2.42705
 20
112.237
 11
-2.62891
 21
112.555
  0
LINE
  8
0
 10
-2.62891
 20
112.555
 11
-2.78932
 21
112.896
  0
LINE
  8
0
 10
-2.78932
 20
112.896
 11
-2.90575
 21
113.254
  0
LINE
  8
0
 10
-2.90575
 20
113.254
 11
-2.97633
 21
113.624
  0
LINE
  8
0
 10
-2.97633
 20
113.624
 11
-3
 21
114
  0
LINE
  8
0
 10
-3
 20
114
 11
-2.97633
 21
114.376
  0
LINE
  8
0
 10
-2.97633
 20
114.376
 11
-2.90575
 21
114.746
  0
LINE
  8
0
 10
-2.90575
 20
114.746
 11
-2.78932
 21
115.104
  0
LINE
  8
0
 10
-2.78932
 20
115.104
 11
-2.62891
 21
115.445
  0
LINE
  8
0
 10
-2.62891
 20
115.445
 11
-2.42705
 21
115.763
  0
LINE
  8
0
 10
-2.42705
 20
115.763
 11
-2.1869
 21
116.054
  0
LINE
  8
0
 10
-2.1869
 20
116.054
 11
-1.91226
 21
116.312
  0
LINE
  8
0
 10
-1.91226
 20
116.312
 11
-1.60747
 21
116.533
  0
LINE
  8
0
 10
-1.60747
 20
116.533
 11
-1.27733
 21
116.714
  0
LINE
  8
0
 10
-1.27733
 20
116.714
 11
-0.927048
 21
116.853
  0
LINE
  8
0
 10
-0.927048
 20
116.853
 11
-0.562134
 21
116.947
  0
LINE
  8
0
 10
-0.562134
 20
116.947
 11
-0.18837
 21
116.994
  0
LINE
  8
0
 10
-0.18837
 20
116.994
 11
0.18837
 21
116.994
  0
LINE
  8
0
 10
0.18837
 20
116.994
 11
0.562134
 21
116.947
  0
LINE
  8
0
 10
0.562134
 20
116.947
 11
0.927048
 21
116.853
  0
LINE
  8
0
 10
0.927048
 20
116.853
 11
1.27733
 21
116.714
  0
LINE
  8
0
 10
1.27733
 20
116.714
 11
1.60747
 21
116.533
  0
LINE
  8
0
 10
1.60747
 20
116.533
 11
1.91226
 21
116.312
  0
LINE
  8
0
 10
1.91226
 20
116.312
 11
2.1869
 21
116.054
  0
LINE
  8
0
 10
2.1869
 20
116.054
 11
2.42705
 21
115.763
  0
LINE
  8
0
 10
2.42705
 20
115.763
 11
2.62891
 21
115.445
  0
LINE
  8
0
 10
2.62891
 20
115.445
 11
2.78932
 21
115.104
  0
LINE
  8
0
 10
2.78932
 20
115.104
 11
2.90575
 21
114.746
  0
LINE
  8
0
 10
2.90575
 20
114.746
 11
2.97633
 21
114.376
  0
LINE
  8
0
 10
2.97633
 20
114.376
 11
3
 21
114
  0
LINE
  8
0
 10
3
 20
114
 11
2.97633
 21
113.624
  0
LINE
  8
0
 10
2.97633
 20
113.624
 11
2.90575
 21
113.254
  0
LINE
  8
0
 10
2.90575
 20
113.254
 11
2.78932
 21
112.896
  0
LINE
  8
0
 10
2.78932
 20
112.896
 11
2.62891
 21
112.555
  0
LINE
  8
0
 10
2.62891
 20
112.555
 11
2.42705
 21
112.237
  0
LINE
  8
0
 10
2.42705
 20
112.237
 11
2.1869
 21
111.946
  0
LINE
  8
0
 10
2.1869
 20
111.946
 11
1.91226
 21
111.688
  0
LINE
  8
0
 10
1.91226
 20
111.688
 11
1.60747
 21
111.467
  0
LINE
  8
0
 10
1.60747
 20
111.467
 11
1.27733
 21
111.286
  0
LINE
  8
0
 10
1.27733
 20
111.286
 11
0.927048
 21
111.147
  0
LINE
  8
0
 10
0.927048
 20
111.147
 11
0.562134
 21
111.053
  0
LINE
  8
0
 10
0.562134
 20
111.053
 11
0.18837
 21
111.006
  0
LINE
  8
0
 10
0.18837
 20
111.006
 11
-0.18837
 21
111.006
  0
LINE
  8
0
 10
14.8116
 20
111.006
 11
14.4379
 21
111.053
  0
LINE
  8
0
 10
14.4379
 20
111.053
 11
14.0729
 21
111.147
  0
LINE
  8
0
 10
14.0729
 20
111.147
 11
13.7227
 21
111.286
  0
LINE
  8
0
 10
13.7227
 20
111.286
 11
13.3925
 21
111.467
  0
LINE
  8
0
 10
13.3925
 20
111.467
 11
13.0877
 21
111.688
  0
LINE
  8
0
 10
13.0877
 20
111.688
 11
12.8131
 21
111.946
  0
LINE
  8
0
 10
12.8131
 20
111.946
 11
12.5729
 21
112.237
  0
LINE
  8
0
 10
12.5729
 20
112.237
 11
12.3711
 21
112.555
  0
LINE
  8
0
 10
12.3711
 20
112.555
 11
12.2107
 21
112.896
  0
LINE
  8
0
 10
12.2107
 20
112.896
 11
12.0942
 21
113.254
  0
LINE
  8
0
 10
12.0942
 20
113.254
 11
12.0237
 21
113.624
  0
LINE
  8
0
 10
12.0237
 20
113.624
 11
12
 21
114
  0
LINE
  8
0
 10
12
 20
114
 11
12.0237
 21
114.376
  0
LINE
  8
0
 10
12.0237
 20
114.376
 11
12.0942
 21
114.746
  0
LINE
  8
0
 10
12.0942
 20
114.746
 11
12.2107
 21
115.104
  0
LINE
  8
0
 10
12.2107
 20
115.104
 11
12.3711
 21
115.445
  0
LINE
  8
0
 10
12.3711
 20
115.445
 11
12.5729
 21
115.763
  0
LINE
  8
0
 10
12.5729
 20
115.763
 11
12.8131
 21
116.054
  0
LINE
  8
0
 10
12.8131
 20
116.054
 11
13.0877
 21
116.312
  0
LINE
  8
0
 10
13.0877
 20
116.312
 11
13.3925
 21
116.533
  0
LINE
  8
0
 10
13.3925
 20
116.533
 11
13.7227
 21
116.714
  0
LINE
  8
0
 10
13.7227
 20
116.714
 11
14.0729
 21
116.853
  0
LINE
  8
0
 10
14.0729
 20
116.853
 11
14.4379
 21
116.947
  0
LINE
  8
0
 10
14.4379
 20
116.947
 11
14.8116
 21
116.994
  0
LINE
  8
0
 10
14.8116
 20
116.994
 11
15.1884
 21
116.994
  0
LINE
  8
0
 10
15.1884
 20
116.994
 11
15.5621
 21
116.947
  0
LINE
  8
0
 10
15.5621
 20
116.947
 11
15.927
 21
116.853
  0
LINE
  8
0
 10
15.927
 20
116.853
 11
16.2773
 21
116.714
  0
LINE
  8
0
 10
16.2773
 20
116.714
 11
16.6075
 21
116.533
  0
LINE
  8
0
 10
16.6075
 20
116.533
 11
16.9123
 21
116.312
  0
LINE
  8
0
 10
16.9123
 20
116.312
 11
17.1869
 21
116.054
  0
LINE
  8
0
 10
17.1869
 20
116.054
 11
17.427
 21
115.763
  0
LINE
  8
0
 10
17.427
 20
115.763
 11
17.6289
 21
115.445
  0
LINE
  8
0
 10
17.6289
 20
115.445
 11
17.7893
 21
115.104
  0
LINE
  8
0
 10
17.7893
 20
115.104
 11
17.9057
 21
114.746
  0
LINE
  8
0
 10
17.9057
 20
114.746
 11
17.9763
 21
114.376
  0
LINE
  8
0
 10
17.9763
 20
114.376
 11
18
 21
114
  0
LINE
  8
0
 10
18
 20
114
 11
17.9763
 21
113.624
  0
LINE
  8
0
 10
17.9763
 20
113.624
 11
17.9057
 21
113.254
  0
LINE
  8
0
 10
17.9057
 20
113.254
 11
17.7893
 21
112.896
  0
LINE
  8
0
 10
17.7893
 20
112.896
 11
17.6289
 21
112.555
  0
LINE
  8
0
 10
17.6289
 20
112.555
 11
17.427
 21
112.237
  0
LINE
  8
0
 10
17.427
 20
112.237
 11
17.1869
 21
111.946
  0
LINE
  8
0
 10
17.1869
 20
111.946
 11
16.9123
 21
111.688
  0
LINE
  8
0
 10
16.9123
 20
111.688
 11
16.6075
 21
111.467
  0
LINE
  8
0
 10
16.6075
 20
111.467
 11
16.2773
 21
111.286
  0
LINE
  8
0
 10
16.2773
 20
111.286
 11
15.927
 21
111.147
  0
LINE
  8
0
 10
15.927
 20
111.147
 11
15.5621
 21
111.053
  0
LINE
  8
0
 10
15.5621
 20
111.053
 11
15.1884
 21
111.006
  0
LINE
  8
0
 10
15.1884
 20
111.006
 11
14.8116
 21
111.006
  0
LINE
  8
0
 10
-15.1884
 20
111.006
 11
-15.5621
 21
111.053
  0
LINE
  8
0
 10
-15.5621
 20
111.053
 11
-15.927
 21
111.147
  0
LINE
  8
0
 10
-15.927
 20
111.147
 11
-16.2773
 21
111.286
  0
LINE
  8
0
 10
-16.2773
 20
111.286
 11
-16.6075
 21
111.467
  0
LINE
  8
0
 10
-16.6075
 20
111.467
 11
-16.9123
 21
111.688
  0
LINE
  8
0
 10
-16.9123
 20
111.688
 11
-17.1869
 21
111.946
  0
LINE
  8
0
 10
-17.1869
 20
111.946
 11
-17.427
 21
112.237
  0
LINE
  8
0
 10
-17.427
 20
112.237
 11
-17.6289
 21
112.555
  0
LINE
  8
0
 10
-17.6289
 20
112.555
 11
-17.7893
 21
112.896
  0
LINE
  8
0
 10
-17.7893
 20
112.896
 11
-17.9057
 21
113.254
  0
LINE
  8
0
 10
-17.9057
 20
113.254
 11
-17.9763
 21
113.624
  0
LINE
  8
0
 10
-17.9763
 20
113.624
 11
-18
 21
114
  0
LINE
  8
0
 10
-18
 20
114
 11
-17.9763
 21
114.376
  0
LINE
  8
0
 10
-17.9763
 20
114.376
 11
-17.9057
 21
114.746
  0
LINE
  8
0
 10
-17.9057
 20
114.746
 11
-17.7893
 21
115.104
  0
LINE
  8
0
 10
-17.7893
 20
115.104
 11
-17.6289
 21
115.445
  0
LINE
  8
0
 10
-17.6289
 20
115.445
 11
-17.427
 21
115.763
  0
LINE
  8
0
 10
-17.427
 20
115.763
 11
-17.1869
 21
116.054
  0
LINE
  8
0
 10
-17.1869
 20
116.054
 11
-16.9123
 21
116.312
  0
LINE
  8
0
 10
-16.9123
 20
116.312
 11
-16.6075
 21
116.533
  0
LINE
  8
0
 10
-16.6075
 20
116.533
 11
-16.2773
 21
116.714
  0
LINE
  8
0
 10
-16.2773
 20
116.714
 11
-15.927
 21
116.853
  0
LINE
  8
0
 10
-15.927
 20
116.853
 11
-15.5621
 21
116.947
  0
LINE
  8
0
 10
-15.5621
 20
116.947
 11
-15.1884
 21
116.994
  0
LINE
  8
0
 10
-15.1884
 20
116.994
 11
-14.8116
 21
116.994
  0
LINE
  8
0
 10
-14.8116
 20
116.994
 11
-14.4379
 21
116.947
  0
LINE
  8
0
 10
-14.4379
 20
116.947
 11
-14.0729
 21
116.853
  0
LINE
  8
0
 10
-14.0729
 20
116.853
 11
-13.7227
 21
116.714
  0
LINE
  8
0
 10
-13.7227
 20
116.714
 11
-13.3925
 21
116.533
  0
LINE
  8
0
 10
-13.3925
 20
116.533
 11
-13.0877
 21
116.312
  0
LINE
  8
0
 10
-13.0877
 20
116.312
 11
-12.8131
 21
116.054
  0
LINE
  8
0
 10
-12.8131
 20
116.054
 11
-12.5729
 21
115.763
  0
LINE
  8
0
 10
-12.5729
 20
115.763
 11
-12.3711
 21
115.445
  0
LINE
  8
0
 10
-12.3711
 20
115.445
 11
-12.2107
 21
115.104
  0
LINE
  8
0
 10
-12.2107
 20
115.104
 11
-12.0942
 21
114.746
  0
LINE
  8
0
 10
-12.0942
 20
114.746
 11
-12.0237
 21
114.376
  0
LINE
  8
0
 10
-12.0237
 20
114.376
 11
-12
 21
114
  0
LINE
  8
0
 10
-12
 20
114
 11
-12.0237
 21
113.624
  0
LINE
  8
0
 10
-12.0237
 20
113.624
 11
-12.0942
 21
113.254
  0
LINE
  8
0
 10
-12.0942
 20
113.254
 11
-12.2107
 21
112.896
  0
LINE
  8
0
 10
-12.2107
 20
112.896
 11
-12.3711
 21
112.555
  0
LINE
  8
0
 10
-12.3711
 20
112.555
 11
-12.5729
 21
112.237
  0
LINE
  8
0
 10
-12.5729
 20
112.237
 11
-12.8131
 21
111.946
  0
LINE
  8
0
 10
-12.8131
 20
111.946
 11
-13.0877
 21
111.688
  0
LINE
  8
0
 10
-13.0877
 20
111.688
 11
-13.3925
 21
111.467
  0
LINE
  8
0
 10
-13.3925
 20
111.467
 11
-13.7227
 21
111.286
  0
LINE
  8
0
 10
-13.7227
 20
111.286
 11
-14.0729
 21
111.147
  0
LINE
  8
0
 10
-14.0729
 20
111.147
 11
-14.4379
 21
111.053
  0
LINE
  8
0
 10
-14.4379
 20
111.053
 11
-14.8116
 21
111.006
  0
LINE
  8
0
 10
-14.8116
 20
111.006
 11
-15.1884
 21
111.006
  0
LINE
  8
0
 10
-30.1884
 20
111.006
 11
-30.5621
 21
111.053
  0
LINE
  8
0
 10
-30.5621
 20
111.053
 11
-30.927
 21
111.147
  0
LINE
  8
0
 10
-30.927
 20
111.147
 11
-31.2773
 21
111.286
  0
LINE
  8
0
 10
-31.2773
 20
111.286
 11
-31.6075
 21
111.467
  0
LINE
  8
0
 10
-31.6075
 20
111.467
 11
-31.9123
 21
111.688
  0
LINE
  8
0
 10
-31.9123
 20
111.688
 11
-32.1869
 21
111.946
  0
LINE
  8
0
 10
-32.1869
 20
111.946
 11
-32.427
 21
112.237
  0
LINE
  8
0
 10
-32.427
 20
112.237
 11
-32.6289
 21
112.555
  0
LINE
  8
0
 10
-32.6289
 20
112.555
 11
-32.7893
 21
112.896
  0
LINE
  8
0
 10
-32.7893
 20
112.896
 11
-32.9057
 21
113.254
  0
LINE
  8
0
 10
-32.9057
 20
113.254
 11
-32.9763
 21
113.624
  0
LINE
  8
0
 10
-32.9763
 20
113.624
 11
-33
 21
114
  0
LINE
  8
0
 10
-33
 20
114
 11
-32.9763
 21
114.376
  0
LINE
  8
0
 10
-32.9763
 20
114.376
 11
-32.9057
 21
114.746
  0
LINE
  8
0
 10
-32.9057
 20
114.746
 11
-32.7893
 21
115.104
  0
LINE
  8
0
 10
-32.7893
 20
115.104
 11
-32.6289
 21
115.445
  0
LINE
  8
0
 10
-32.6289
 20
115.445
 11
-32.427
 21
115.763
  0
LINE
  8
0
 10
-32.427
 20
115.763
 11
-32.1869
 21
116.054
  0
LINE
  8
0
 10
-32.1869
 20
116.054
 11
-31.9123
 21
116.312
  0
LINE
  8
0
 10
-31.9123
 20
116.312
 11
-31.6075
 21
116.533
  0
LINE
  8
0
 10
-31.6075
 20
116.533
 11
-31.2773
 21
116.714
  0
LINE
  8
0
 10
-31.2773
 20
116.714
 11
-30.927
 21
116.853
  0
LINE
  8
0
 10
-30.927
 20
116.853
 11
-30.5621
 21
116.947
  0
LINE
  8
0
 10
-30.5621
 20
116.947
 11
-30.1884
 21
116.994
  0
LINE
  8
0
 10
-30.1884
 20
116.994
 11
-29.8116
 21
116.994
  0
LINE
  8
0
 10
-29.8116
 20
116.994
 11
-29.4379
 21
116.947
  0
LINE
  8
0
 10
-29.4379
 20
116.947
 11
-29.0729
 21
116.853
  0
LINE
  8
0
 10
-29.0729
 20
116.853
 11
-28.7227
 21
116.714
  0
LINE
  8
0
 10
-28.7227
 20
116.714
 11
-28.3925
 21
116.533
  0
LINE
  8
0
 10
-28.3925
 20
116.533
 11
-28.0877
 21
116.312
  0
LINE
  8
0
 10
-28.0877
 20
116.312
 11
-27.8131
 21
116.054
  0
LINE
  8
0
 10
-27.8131
 20
116.054
 11
-27.5729
 21
115.763
  0
LINE
  8
0
 10
-27.5729
 20
115.763
 11
-27.3711
 21
115.445
  0
LINE
  8
0
 10
-27.3711
 20
115.445
 11
-27.2107
 21
115.104
  0
LINE
  8
0
 10
-27.2107
 20
115.104
 11
-27.0942
 21
114.746
  0
LINE
  8
0
 10
-27.0942
 20
114.746
 11
-27.0237
 21
114.376
  0
LINE
  8
0
 10
-27.0237
 20
114.376
 11
-27
 21
114
  0
LINE
  8
0
 10
-27
 20
114
 11
-27.0237
 21
113.624
  0
LINE
  8
0
 10
-27.0237
 20
113.624
 11
-27.0942
 21
113.254
  0
LINE
  8
0
 10
-27.0942
 20
113.254
 11
-27.2107
 21
112.896
  0
LINE
  8
0
 10
-27.2107
 20
112.896
 11
-27.3711
 21
112.555
  0
LINE
  8
0
 10
-27.3711
 20
112.555
 11
-27.5729
 21
112.237
  0
LINE
  8
0
 10
-27.5729
 20
112.237
 11
-27.8131
 21
111.946
  0
LINE
  8
0
 10
-27.8131
 20
111.946
 11
-28.0877
 21
111.688
  0
LINE
  8
0
 10
-28.0877
 20
111.688
 11
-28.3925
 21
111.467
  0
LINE
  8
0
 10
-28.3925
 20
111.467
 11
-28.7227
 21
111.286
  0
LINE
  8
0
 10
-28.7227
 20
111.286
 11
-29.0729
 21
111.147
  0
LINE
  8
0
 10
-29.0729
 20
111.147
 11
-29.4379
 21
111.053
  0
LINE
  8
0
 10
-29.4379
 20
111.053
 11
-29.8116
 21
111.006
  0
LINE
  8
0
 10
-29.8116
 20
111.006
 11
-30.1884
 21
111.006
  0
LINE
  8
0
 10
-30.1884
 20
96.0059
 11
-30.5621
 21
96.0531
  0
LINE
  8
0
 10
-30.5621
 20
96.0531
 11
-30.927
 21
96.1468
  0
LINE
  8
0
 10
-30.927
 20
96.1468
 11
-31.2773
 21
96.2855
  0
LINE
  8
0
 10
-31.2773
 20
96.2855
 11
-31.6075
 21
96.467
  0
LINE
  8
0
 10
-31.6075
 20
96.467
 11
-31.9123
 21
96.6884
  0
LINE
  8
0
 10
-31.9123
 20
96.6884
 11
-32.1869
 21
96.9464
  0
LINE
  8
0
 10
-32.1869
 20
96.9464
 11
-32.427
 21
97.2366
  0
LINE
  8
0
 10
-32.427
 20
97.2366
 11
-32.6289
 21
97.5547
  0
LINE
  8
0
 10
-32.6289
 20
97.5547
 11
-32.7893
 21
97.8956
  0
LINE
  8
0
 10
-32.7893
 20
97.8956
 11
-32.9057
 21
98.2539
  0
LINE
  8
0
 10
-32.9057
 20
98.2539
 11
-32.9763
 21
98.624
  0
LINE
  8
0
 10
-32.9763
 20
98.624
 11
-33
 21
99
  0
LINE
  8
0
 10
-33
 20
99
 11
-32.9763
 21
99.376
  0
LINE
  8
0
 10
-32.9763
 20
99.376
 11
-32.9057
 21
99.7461
  0
LINE
  8
0
 10
-32.9057
 20
99.7461
 11
-32.7893
 21
100.104
  0
LINE
  8
0
 10
-32.7893
 20
100.104
 11
-32.6289
 21
100.445
  0
LINE
  8
0
 10
-32.6289
 20
100.445
 11
-32.427
 21
100.763
  0
LINE
  8
0
 10
-32.427
 20
100.763
 11
-32.1869
 21
101.054
  0
LINE
  8
0
 10
-32.1869
 20
101.054
 11
-31.9123
 21
101.312
  0
LINE
  8
0
 10
-31.9123
 20
101.312
 11
-31.6075
 21
101.533
  0
LINE
  8
0
 10
-31.6075
 20
101.533
 11
-31.2773
 21
101.714
  0
LINE
  8
0
 10
-31.2773
 20
101.714
 11
-30.927
 21
101.853
  0
LINE
  8
0
 10
-30.927
 20
101.853
 11
-30.5621
 21
101.947
  0
LINE
  8
0
 10
-30.5621
 20
101.947
 11
-30.1884
 21
101.994
  0
LINE
  8
0
 10
-30.1884
 20
101.994
 11
-29.8116
 21
101.994
  0
LINE
  8
0
 10
-29.8116
 20
101.994
 11
-29.4379
 21
101.947
  0
LINE
  8
0
 10
-29.4379
 20
101.947
 11
-29.0729
 21
101.853
  0
LINE
  8
0
 10
-29.0729
 20
101.853
 11
-28.7227
 21
101.714
  0
LINE
  8
0
 10
-28.7227
 20
101.714
 11
-28.3925
 21
101.533
  0
LINE
  8
0
 10
-28.3925
 20
101.533
 11
-28.0877
 21
101.312
  0
LINE
  8
0
 10
-28.0877
 20
101.312
 11
-27.8131
 21
101.054
  0
LINE
  8
0
 10
-27.8131
 20
101.054
 11
-27.5729
 21
100.763
  0
LINE
  8
0
 10
-27.5729
 20
100.763
 11
-27.3711
 21
100.445
  0
LINE
  8
0
 10
-27.3711
 20
100.445
 11
-27.2107
 21
100.104
  0
LINE
  8
0
 10
-27.2107
 20
100.104
 11
-27.0942
 21
99.7461
  0
LINE
  8
0
 10
-27.0942
 20
99.7461
 11
-27.0237
 21
99.376
  0
LINE
  8
0
 10
-27.0237
 20
99.376
 11
-27
 21
99
  0
LINE
  8
0
 10
-27
 20
99
 11
-27.0237
 21
98.624
  0
LINE
  8
0
 10
-27.0237
 20
98.624
 11
-27.0942
 21
98.2539
  0
LINE
  8
0
 10
-27.0942
 20
98.2539
 11
-27.2107
 21
97.8956
  0
LINE
  8
0
 10
-27.2107
 20
97.8956
 11
-27.3711
 21
97.5547
  0
LINE
  8
0
 10
-27.3711
 20
97.5547
 11
-27.5729
 21
97.2366
  0
LINE
  8
0
 10
-27.5729
 20
97.2366
 11
-27.8131
 21
96.9464
  0
LINE
  8
0
 10
-27.8131
 20
96.9464
 11
-28.0877
 21
96.6884
  0
LINE
  8
0
 10
-28.0877
 20
96.6884
 11
-28.3925
 21
96.467
  0
LINE
  8
0
 10
-28.3925
 20
96.467
 11
-28.7227
 21
96.2855
  0
LINE
  8
0
 10
-28.7227
 20
96.2855
 11
-29.0729
 21
96.1468
  0
LINE
  8
0
 10
-29.0729
 20
96.1468
 11
-29.4379
 21
96.0531
  0
LINE
  8
0
 10
-29.4379
 20
96.0531
 11
-29.8116
 21
96.0059
  0
LINE
  8
0
 10
-29.8116
 20
96.0059
 11
-30.1884
 21
96.0059
  0
LINE
  8
0
 10
-15.1884
 20
96.0059
 11
-15.5621
 21
96.0531
  0
LINE
  8
0
 10
-15.5621
 20
96.0531
 11
-15.927
 21
96.1468
  0
LINE
  8
0
 10
-15.927
 20
96.1468
 11
-16.2773
 21
96.2855
  0
LINE
  8
0
 10
-16.2773
 20
96.2855
 11
-16.6075
 21
96.467
  0
LINE
  8
0
 10
-16.6075
 20
96.467
 11
-16.9123
 21
96.6884
  0
LINE
  8
0
 10
-16.9123
 20
96.6884
 11
-17.1869
 21
96.9464
  0
LINE
  8
0
 10
-17.1869
 20
96.9464
 11
-17.427
 21
97.2366
  0
LINE
  8
0
 10
-17.427
 20
97.2366
 11
-17.6289
 21
97.5547
  0
LINE
  8
0
 10
-17.6289
 20
97.5547
 11
-17.7893
 21
97.8956
  0
LINE
  8
0
 10
-17.7893
 20
97.8956
 11
-17.9057
 21
98.2539
  0
LINE
  8
0
 10
-17.9057
 20
98.2539
 11
-17.9763
 21
98.624
  0
LINE
  8
0
 10
-17.9763
 20
98.624
 11
-18
 21
99
  0
LINE
  8
0
 10
-18
 20
99
 11
-17.9763
 21
99.376
  0
LINE
  8
0
 10
-17.9763
 20
99.376
 11
-17.9057
 21
99.7461
  0
LINE
  8
0
 10
-17.9057
 20
99.7461
 11
-17.7893
 21
100.104
  0
LINE
  8
0
 10
-17.7893
 20
100.104
 11
-17.6289
 21
100.445
  0
LINE
  8
0
 10
-17.6289
 20
100.445
 11
-17.427
 21
100.763
  0
LINE
  8
0
 10
-17.427
 20
100.763
 11
-17.1869
 21
101.054
  0
LINE
  8
0
 10
-17.1869
 20
101.054
 11
-16.9123
 21
101.312
  0
LINE
  8
0
 10
-16.9123
 20
101.312
 11
-16.6075
 21
101.533
  0
LINE
  8
0
 10
-16.6075
 20
101.533
 11
-16.2773
 21
101.714
  0
LINE
  8
0
 10
-16.2773
 20
101.714
 11
-15.927
 21
101.853
  0
LINE
  8
0
 10
-15.927
 20
101.853
 11
-15.5621
 21
101.947
  0
LINE
  8
0
 10
-15.5621
 20
101.947
 11
-15.1884
 21
101.994
  0
LINE
  8
0
 10
-15.1884
 20
101.994
 11
-14.8116
 21
101.994
  0
LINE
  8
0
 10
-14.8116
 20
101.994
 11
-14.4379
 21
101.947
  0
LINE
  8
0
 10
-14.4379
 20
101.947
 11
-14.0729
 21
101.853
  0
LINE
  8
0
 10
-14.0729
 20
101.853
 11
-13.7227
 21
101.714
  0
LINE
  8
0
 10
-13.7227
 20
101.714
 11
-13.3925
 21
101.533
  0
LINE
  8
0
 10
-13.3925
 20
101.533
 11
-13.0877
 21
101.312
  0
LINE
  8
0
 10
-13.0877
 20
101.312
 11
-12.8131
 21
101.054
  0
LINE
  8
0
 10
-12.8131
 20
101.054
 11
-12.5729
 21
100.763
  0
LINE
  8
0
 10
-12.5729
 20
100.763
 11
-12.3711
 21
100.445
  0
LINE
  8
0
 10
-12.3711
 20
100.445
 11
-12.2107
 21
100.104
  0
LINE
  8
0
 10
-12.2107
 20
100.104
 11
-12.0942
 21
99.7461
  0
LINE
  8
0
 10
-12.0942
 20
99.7461
 11
-12.0237
 21
99.376
  0
LINE
  8
0
 10
-12.0237
 20
99.376
 11
-12
 21
99
  0
LINE
  8
0
 10
-12
 20
99
 11
-12.0237
 21
98.624
  0
LINE
  8
0
 10
-12.0237
 20
98.624
 11
-12.0942
 21
98.2539
  0
LINE
  8
0
 10
-12.0942
 20
98.2539
 11
-12.2107
 21
97.8956
  0
LINE
  8
0
 10
-12.2107
 20
97.8956
 11
-12.3711
 21
97.5547
  0
LINE
  8
0
 10
-12.3711
 20
97.5547
 11
-12.5729
 21
97.2366
  0
LINE
  8
0
 10
-12.5729
 20
97.2366
 11
-12.8131
 21
96.9464
  0
LINE
  8
0
 10
-12.8131
 20
96.9464
 11
-13.0877
 21
96.6884
  0
LINE
  8
0
 10
-13.0877
 20
96.6884
 11
-13.3925
 21
96.467
  0
LINE
  8
0
 10
-13.3925
 20
96.467
 11
-13.7227
 21
96.2855
  0
LINE
  8
0
 10
-13.7227
 20
96.2855
 11
-14.0729
 21
96.1468
  0
LINE
  8
0
 10
-14.0729
 20
96.1468
 11
-14.4379
 21
96.0531
  0
LINE
  8
0
 10
-14.4379
 20
96.0531
 11
-14.8116
 21
96.0059
  0
LINE
  8
0
 10
-14.8116
 20
96.0059
 11
-15.1884
 21
96.0059
  0
LINE
  8
0
 10
-0.18837
 20
96.0059
 11
-0.562134
 21
96.0531
  0
LINE
  8
0
 10
-0.562134
 20
96.0531
 11
-0.927048
 21
96.1468
  0
LINE
  8
0
 10
-0.927048
 20
96.1468
 11
-1.27733
 21
96.2855
  0
LINE
  8
0
 10
-1.27733
 20
96.2855
 11
-1.60747
 21
96.467
  0
LINE
  8
0
 10
-1.60747
 20
96.467
 11
-1.91226
 21
96.6884
  0
LINE
  8
0
 10
-1.91226
 20
96.6884
 11
-2.1869
 21
96.9464
  0
LINE
  8
0
 10
-2.1869
 20
96.9464
 11
-2.42705
 21
97.2366
  0
LINE
  8
0
 10
-2.42705
 20
97.2366
 11
-2.62891
 21
97.5547
  0
LINE
  8
0
 10
-2.62891
 20
97.5547
 11
-2.78932
 21
97.8956
  0
LINE
  8
0
 10
-2.78932
 20
97.8956
 11
-2.90575
 21
98.2539
  0
LINE
  8
0
 10
-2.90575
 20
98.2539
 11
-2.97633
 21
98.624
  0
LINE
  8
0
 10
-2.97633
 20
98.624
 11
-3
 21
99
  0
LINE
  8
0
 10
-3
 20
99
 11
-2.97633
 21
99.376
  0
LINE
  8
0
 10
-2.97633
 20
99.376
 11
-2.90575
 21
99.7461
  0
LINE
  8
0
 10
-2.90575
 20
99.7461
 11
-2.78932
 21
100.104
  0
LINE
  8
0
 10
-2.78932
 20
100.104
 11
-2.62891
 21
100.445
  0
LINE
  8
0
 10
-2.62891
 20
100.445
 11
-2.42705
 21
100.763
  0
LINE
  8
0
 10
-2.42705
 20
100.763
 11
-2.1869
 21
101.054
  0
LINE
  8
0
 10
-2.1869
 20
101.054
 11
-1.91226
 21
101.312
  0
LINE
  8
0
 10
-1.91226
 20
101.312
 11
-1.60747
 21
101.533
  0
LINE
  8
0
 10
-1.60747
 20
101.533
 11
-1.27733
 21
101.714
  0
LINE
  8
0
 10
-1.27733
 20
101.714
 11
-0.927048
 21
101.853
  0
LINE
  8
0
 10
-0.927048
 20
101.853
 11
-0.562134
 21
101.947
  0
LINE
  8
0
 10
-0.562134
 20
101.947
 11
-0.18837
 21
101.994
  0
LINE
  8
0
 10
-0.18837
 20
101.994
 11
0.18837
 21
101.994
  0
LINE
  8
0
 10
0.18837
 20
101.994
 11
0.562134
 21
101.947
  0
LINE
  8
0
 10
0.562134
 20
101.947
 11
0.927048
 21
101.853
  0
LINE
  8
0
 10
0.927048
 20
101.853
 11
1.27733
 21
101.714
  0
LINE
  8
0
 10
1.27733
 20
101.714
 11
1.60747
 21
101.533
  0
LINE
  8
0
 10
1.60747
 20
101.533
 11
1.91226
 21
101.312
  0
LINE
  8
0
 10
1.91226
 20
101.312
 11
2.1869
 21
101.054
  0
LINE
  8
0
 10
2.1869
 20
101.054
 11
2.42705
 21
100.763
  0
LINE
  8
0
 10
2.42705
 20
100.763
 11
2.62891
 21
100.445
  0
LINE
  8
0
 10
2.62891
 20
100.445
 11
2.78932
 21
100.104
  0
LINE
  8
0
 10
2.78932
 20
100.104
 11
2.90575
 21
99.7461
  0
LINE
  8
0
 10
2.90575
 20
99.7461
 11
2.97633
 21
99.376
  0
LINE
  8
0
 10
2.97633
 20
99.376
 11
3
 21
99
  0
LINE
  8
0
 10
3
 20
99
 11
2.97633
 21
98.624
  0
LINE
  8
0
 10
2.97633
 20
98.624
 11
2.90575
 21
98.2539
  0
LINE
  8
0
 10
2.90575
 20
98.2539
 11
2.78932
 21
97.8956
  0
LINE
  8
0
 10
2.78932
 20
97.8956
 11
2.62891
 21
97.5547
  0
LINE
  8
0
 10
2.62891
 20
97.5547
 11
2.42705
 21
97.2366
  0
LINE
  8
0
 10
2.42705
 20
97.2366
 11
2.1869
 21
96.9464
  0
LINE
  8
0
 10
2.1869
 20
96.9464
 11
1.91226
 21
96.6884
  0
LINE
  8
0
 10
1.91226
 20
96.6884
 11
1.60747
 21
96.467
  0
LINE
  8
0
 10
1.60747
 20
96.467
 11
1.27733
 21
96.2855
  0
LINE
  8
0
 10
1.27733
 20
96.2855
 11
0.927048
 21
96.1468
  0
LINE
  8
0
 10
0.927048
 20
96.1468
 11
0.562134
 21
96.0531
  0
LINE
  8
0
 10
0.562134
 20
96.0531
 11
0.18837
 21
96.0059
  0
LINE
  8
0
 10
0.18837
 20
96.0059
 11
-0.18837
 21
96.0059
  0
LINE
  8
0
 10
14.8116
 20
96.0059
 11
14.4379
 21
96.0531
  0
LINE
  8
0
 10
14.4379
 20
96.0531
 11
14.0729
 21
96.1468
  0
LINE
  8
0
 10
14.0729
 20
96.1468
 11
13.7227
 21
96.2855
  0
LINE
  8
0
 10
13.7227
 20
96.2855
 11
13.3925
 21
96.467
  0
LINE
  8
0
 10
13.3925
 20
96.467
 11
13.0877
 21
96.6884
  0
LINE
  8
0
 10
13.0877
 20
96.6884
 11
12.8131
 21
96.9464
  0
LINE
  8
0
 10
12.8131
 20
96.9464
 11
12.5729
 21
97.2366
  0
LINE
  8
0
 10
12.5729
 20
97.2366
 11
12.3711
 21
97.5547
  0
LINE
  8
0
 10
12.3711
 20
97.5547
 11
12.2107
 21
97.8956
  0
LINE
  8
0
 10
12.2107
 20
97.8956
 11
12.0942
 21
98.2539
  0
LINE
  8
0
 10
12.0942
 20
98.2539
 11
12.0237
 21
98.624
  0
LINE
  8
0
 10
12.0237
 20
98.624
 11
12
 21
99
  0
LINE
  8
0
 10
12
 20
99
 11
12.0237
 21
99.376
  0
LINE
  8
0
 10
12.0237
 20
99.376
 11
12.0942
 21
99.7461
  0
LINE
  8
0
 10
12.0942
 20
99.7461
 11
12.2107
 21
100.104
  0
LINE
  8
0
 10
12.2107
 20
100.104
 11
12.3711
 21
100.445
  0
LINE
  8
0
 10
12.3711
 20
100.445
 11
12.5729
 21
100.763
  0
LINE
  8
0
 10
12.5729
 20
100.763
 11
12.8131
 21
101.054
  0
LINE
  8
0
 10
12.8131
 20
101.054
 11
13.0877
 21
101.312
  0
LINE
  8
0
 10
13.0877
 20
101.312
 11
13.3925
 21
101.533
  0
LINE
  8
0
 10
13.3925
 20
101.533
 11
13.7227
 21
101.714
  0
LINE
  8
0
 10
13.7227
 20
101.714
 11
14.0729
 21
101.853
  0
LINE
  8
0
 10
14.0729
 20
101.853
 11
14.4379
 21
101.947
  0
LINE
  8
0
 10
14.4379
 20
101.947
 11
14.8116
 21
101.994
  0
LINE
  8
0
 10
14.8116
 20
101.994
 11
15.1884
 21
101.994
  0
LINE
  8
0
 10
15.1884
 20
101.994
 11
15.5621
 21
101.947
  0
LINE
  8
0
 10
15.5621
 20
101.947
 11
15.927
 21
101.853
  0
LINE
  8
0
 10
15.927
 20
101.853
 11
16.2773
 21
101.714
  0
LINE
  8
0
 10
16.2773
 20
101.714
 11
16.6075
 21
101.533
  0
LINE
  8
0
 10
16.6075
 20
101.533
 11
16.9123
 21
101.312
  0
LINE
  8
0
 10
16.9123
 20
101.312
 11
17.1869
 21
101.054
  0
LINE
  8
0
 10
17.1869
 20
101.054
 11
17.427
 21
100.763
  0
LINE
  8
0
 10
17.427
 20
100.763
 11
17.6289
 21
100.445
  0
LINE
  8
0
 10
17.6289
 20
100.445
 11
17.7893
 21
100.104
  0
LINE
  8
0
 10
17.7893
 20
100.104
 11
17.9057
 21
99.7461
  0
LINE
  8
0
 10
17.9057
 20
99.7461
 11
17.9763
 21
99.376
  0
LINE
  8
0
 10
17.9763
 20
99.376
 11
18
 21
99
  0
LINE
  8
0
 10
18
 20
99
 11
17.9763
 21
98.624
  0
LINE
  8
0
 10
17.9763
 20
98.624
 11
17.9057
 21
98.2539
  0
LINE
  8
0
 10
17.9057
 20
98.2539
 11
17.7893
 21
97.8956
  0
LINE
  8
0
 10
17.7893
 20
97.8956
 11
17.6289
 21
97.5547
  0
LINE
  8
0
 10
17.6289
 20
97.5547
 11
17.427
 21
97.2366
  0
LINE
  8
0
 10
17.427
 20
97.2366
 11
17.1869
 21
96.9464
  0
LINE
  8
0
 10
17.1869
 20
96.9464
 11
16.9123
 21
96.6884
  0
LINE
  8
0
 10
16.9123
 20
96.6884
 11
16.6075
 21
96.467
  0
LINE
  8
0
 10
16.6075
 20
96.467
 11
16.2773
 21
96.2855
  0
LINE
  8
0
 10
16.2773
 20
96.2855
 11
15.927
 21
96.1468
  0
LINE
  8
0
 10
15.927
 20
96.1468
 11
15.5621
 21
96.0531
  0
LINE
  8
0
 10
15.5621
 20
96.0531
 11
15.1884
 21
96.0059
  0
LINE
  8
0
 10
15.1884
 20
96.0059
 11
14.8116
 21
96.0059
  0
LINE
  8
0
 10
29.8116
 20
96.0059
 11
29.4379
 21
96.0531
  0
LINE
  8
0
 10
29.4379
 20
96.0531
 11
29.0729
 21
96.1468
  0
LINE
  8
0
 10
29.0729
 20
96.1468
 11
28.7227
 21
96.2855
  0
LINE
  8
0
 10
28.7227
 20
96.2855
 11
28.3925
 21
96.467
  0
LINE
  8
0
 10
28.3925
 20
96.467
 11
28.0877
 21
96.6884
  0
LINE
  8
0
 10
28.0877
 20
96.6884
 11
27.8131
 21
96.9464
  0
LINE
  8
0
 10
27.8131
 20
96.9464
 11
27.5729
 21
97.2366
  0
LINE
  8
0
 10
27.5729
 20
97.2366
 11
27.3711
 21
97.5547
  0
LINE
  8
0
 10
27.3711
 20
97.5547
 11
27.2107
 21
97.8956
  0
LINE
  8
0
 10
27.2107
 20
97.8956
 11
27.0942
 21
98.2539
  0
LINE
  8
0
 10
27.0942
 20
98.2539
 11
27.0237
 21
98.624
  0
LINE
  8
0
 10
27.0237
 20
98.624
 11
27
 21
99
  0
LINE
  8
0
 10
27
 20
99
 11
27.0237
 21
99.376
  0
LINE
  8
0
 10
27.0237
 20
99.376
 11
27.0942
 21
99.7461
  0
LINE
  8
0
 10
27.0942
 20
99.7461
 11
27.2107
 21
100.104
  0
LINE
  8
0
 10
27.2107
 20
100.104
 11
27.3711
 21
100.445
  0
LINE
  8
0
 10
27.3711
 20
100.445
 11
27.5729
 21
100.763
  0
LINE
  8
0
 10
27.5729
 20
100.763
 11
27.8131
 21
101.054
  0
LINE
  8
0
 10
27.8131
 20
101.054
 11
28.0877
 21
101.312
  0
LINE
  8
0
 10
28.0877
 20
101.312
 11
28.3925
 21
101.533
  0
LINE
  8
0
 10
28.3925
 20
101.533
 11
28.7227
 21
101.714
  0
LINE
  8
0
 10
28.7227
 20
101.714
 11
29.0729
 21
101.853
  0
LINE
  8
0
 10
29.0729
 20
101.853
 11
29.4379
 21
101.947
  0
LINE
  8
0
 10
29.4379
 20
101.947
 11
29.8116
 21
101.994
  0
LINE
  8
0
 10
29.8116
 20
101.994
 11
30.1884
 21
101.994
  0
LINE
  8
0
 10
30.1884
 20
101.994
 11
30.5621
 21
101.947
  0
LINE
  8
0
 10
30.5621
 20
101.947
 11
30.927
 21
101.853
  0
LINE
  8
0
 10
30.927
 20
101.853
 11
31.2773
 21
101.714
  0
LINE
  8
0
 10
31.2773
 20
101.714
 11
31.6075
 21
101.533
  0
LINE
  8
0
 10
31.6075
 20
101.533
 11
31.9123
 21
101.312
  0
LINE
  8
0
 10
31.9123
 20
101.312
 11
32.1869
 21
101.054
  0
LINE
  8
0
 10
32.1869
 20
101.054
 11
32.427
 21
100.763
  0
LINE
  8
0
 10
32.427
 20
100.763
 11
32.6289
 21
100.445
  0
LINE
  8
0
 10
32.6289
 20
100.445
 11
32.7893
 21
100.104
  0
LINE
  8
0
 10
32.7893
 20
100.104
 11
32.9057
 21
99.7461
  0
LINE
  8
0
 10
32.9057
 20
99.7461
 11
32.9763
 21
99.376
  0
LINE
  8
0
 10
32.9763
 20
99.376
 11
33
 21
99
  0
LINE
  8
0
 10
33
 20
99
 11
32.9763
 21
98.624
  0
LINE
  8
0
 10
32.9763
 20
98.624
 11
32.9057
 21
98.2539
  0
LINE
  8
0
 10
32.9057
 20
98.2539
 11
32.7893
 21
97.8956
  0
LINE
  8
0
 10
32.7893
 20
97.8956
 11
32.6289
 21
97.5547
  0
LINE
  8
0
 10
32.6289
 20
97.5547
 11
32.427
 21
97.2366
  0
LINE
  8
0
 10
32.427
 20
97.2366
 11
32.1869
 21
96.9464
  0
LINE
  8
0
 10
32.1869
 20
96.9464
 11
31.9123
 21
96.6884
  0
LINE
  8
0
 10
31.9123
 20
96.6884
 11
31.6075
 21
96.467
  0
LINE
  8
0
 10
31.6075
 20
96.467
 11
31.2773
 21
96.2855
  0
LINE
  8
0
 10
31.2773
 20
96.2855
 11
30.927
 21
96.1468
  0
LINE
  8
0
 10
30.927
 20
96.1468
 11
30.5621
 21
96.0531
  0
LINE
  8
0
 10
30.5621
 20
96.0531
 11
30.1884
 21
96.0059
  0
LINE
  8
0
 10
30.1884
 20
96.0059
 11
29.8116
 21
96.0059
  0
LINE
  8
0
 10
-0.18837
 20
81.0059
 11
-0.562134
 21
81.0531
  0
LINE
  8
0
 10
-0.562134
 20
81.0531
 11
-0.927048
 21
81.1468
  0
LINE
  8
0
 10
-0.927048
 20
81.1468
 11
-1.27733
 21
81.2855
  0
LINE
  8
0
 10
-1.27733
 20
81.2855
 11
-1.60747
 21
81.467
  0
LINE
  8
0
 10
-1.60747
 20
81.467
 11
-1.91226
 21
81.6885
  0
LINE
  8
0
 10
-1.91226
 20
81.6885
 11
-2.1869
 21
81.9464
  0
LINE
  8
0
 10
-2.1869
 20
81.9464
 11
-2.42705
 21
82.2366
  0
LINE
  8
0
 10
-2.42705
 20
82.2366
 11
-2.62891
 21
82.5547
  0
LINE
  8
0
 10
-2.62891
 20
82.5547
 11
-2.78932
 21
82.8956
  0
LINE
  8
0
 10
-2.78932
 20
82.8956
 11
-2.90575
 21
83.2539
  0
LINE
  8
0
 10
-2.90575
 20
83.2539
 11
-2.97633
 21
83.624
  0
LINE
  8
0
 10
-2.97633
 20
83.624
 11
-3
 21
84
  0
LINE
  8
0
 10
-3
 20
84
 11
-2.97633
 21
84.376
  0
LINE
  8
0
 10
-2.97633
 20
84.376
 11
-2.90575
 21
84.7461
  0
LINE
  8
0
 10
-2.90575
 20
84.7461
 11
-2.78932
 21
85.1044
  0
LINE
  8
0
 10
-2.78932
 20
85.1044
 11
-2.62891
 21
85.4453
  0
LINE
  8
0
 10
-2.62891
 20
85.4453
 11
-2.42705
 21
85.7634
  0
LINE
  8
0
 10
-2.42705
 20
85.7634
 11
-2.1869
 21
86.0536
  0
LINE
  8
0
 10
-2.1869
 20
86.0536
 11
-1.91226
 21
86.3115
  0
LINE
  8
0
 10
-1.91226
 20
86.3115
 11
-1.60747
 21
86.533
  0
LINE
  8
0
 10
-1.60747
 20
86.533
 11
-1.27733
 21
86.7145
  0
LINE
  8
0
 10
-1.27733
 20
86.7145
 11
-0.927048
 21
86.8532
  0
LINE
  8
0
 10
-0.927048
 20
86.8532
 11
-0.562134
 21
86.9469
  0
LINE
  8
0
 10
-0.562134
 20
86.9469
 11
-0.18837
 21
86.9941
  0
LINE
  8
0
 10
-0.18837
 20
86.9941
 11
0.18837
 21
86.9941
  0
LINE
  8
0
 10
0.18837
 20
86.9941
 11
0.562134
 21
86.9469
  0
LINE
  8
0
 10
0.562134
 20
86.9469
 11
0.927048
 21
86.8532
  0
LINE
  8
0
 10
0.927048
 20
86.8532
 11
1.27733
 21
86.7145
  0
LINE
  8
0
 10
1.27733
 20
86.7145
 11
1.60747
 21
86.533
  0
LINE
  8
0
 10
1.60747
 20
86.533
 11
1.91226
 21
86.3115
  0
LINE
  8
0
 10
1.91226
 20
86.3115
 11
2.1869
 21
86.0536
  0
LINE
  8
0
 10
2.1869
 20
86.0536
 11
2.42705
 21
85.7634
  0
LINE
  8
0
 10
2.42705
 20
85.7634
 11
2.62891
 21
85.4453
  0
LINE
  8
0
 10
2.62891
 20
85.4453
 11
2.78932
 21
85.1044
  0
LINE
  8
0
 10
2.78932
 20
85.1044
 11
2.90575
 21
84.7461
  0
LINE
  8
0
 10
2.90575
 20
84.7461
 11
2.97633
 21
84.376
  0
LINE
  8
0
 10
2.97633
 20
84.376
 11
3
 21
84
  0
LINE
  8
0
 10
3
 20
84
 11
2.97633
 21
83.624
  0
LINE
  8
0
 10
2.97633
 20
83.624
 11
2.90575
 21
83.2539
  0
LINE
  8
0
 10
2.90575
 20
83.2539
 11
2.78932
 21
82.8956
  0
LINE
  8
0
 10
2.78932
 20
82.8956
 11
2.62891
 21
82.5547
  0
LINE
  8
0
 10
2.62891
 20
82.5547
 11
2.42705
 21
82.2366
  0
LINE
  8
0
 10
2.42705
 20
82.2366
 11
2.1869
 21
81.9464
  0
LINE
  8
0
 10
2.1869
 20
81.9464
 11
1.91226
 21
81.6885
  0
LINE
  8
0
 10
1.91226
 20
81.6885
 11
1.60747
 21
81.467
  0
LINE
  8
0
 10
1.60747
 20
81.467
 11
1.27733
 21
81.2855
  0
LINE
  8
0
 10
1.27733
 20
81.2855
 11
0.927048
 21
81.1468
  0
LINE
  8
0
 10
0.927048
 20
81.1468
 11
0.562134
 21
81.0531
  0
LINE
  8
0
 10
0.562134
 20
81.0531
 11
0.18837
 21
81.0059
  0
LINE
  8
0
 10
0.18837
 20
81.0059
 11
-0.18837
 21
81.0059
  0
LINE
  8
0
 10
29.8116
 20
81.0059
 11
29.4379
 21
81.0531
  0
LINE
  8
0
 10
29.4379
 20
81.0531
 11
29.0729
 21
81.1468
  0
LINE
  8
0
 10
29.0729
 20
81.1468
 11
28.7227
 21
81.2855
  0
LINE
  8
0
 10
28.7227
 20
81.2855
 11
28.3925
 21
81.467
  0
LINE
  8
0
 10
28.3925
 20
81.467
 11
28.0877
 21
81.6885
  0
LINE
  8
0
 10
28.0877
 20
81.6885
 11
27.8131
 21
81.9464
  0
LINE
  8
0
 10
27.8131
 20
81.9464
 11
27.5729
 21
82.2366
  0
LINE
  8
0
 10
27.5729
 20
82.2366
 11
27.3711
 21
82.5547
  0
LINE
  8
0
 10
27.3711
 20
82.5547
 11
27.2107
 21
82.8956
  0
LINE
  8
0
 10
27.2107
 20
82.8956
 11
27.0942
 21
83.2539
  0
LINE
  8
0
 10
27.0942
 20
83.2539
 11
27.0237
 21
83.624
  0
LINE
  8
0
 10
27.0237
 20
83.624
 11
27
 21
84
  0
LINE
  8
0
 10
27
 20
84
 11
27.0237
 21
84.376
  0
LINE
  8
0
 10
27.0237
 20
84.376
 11
27.0942
 21
84.7461
  0
LINE
  8
0
 10
27.0942
 20
84.7461
 11
27.2107
 21
85.1044
  0
LINE
  8
0
 10
27.2107
 20
85.1044
 11
27.3711
 21
85.4453
  0
LINE
  8
0
 10
27.3711
 20
85.4453
 11
27.5729
 21
85.7634
  0
LINE
  8
0
 10
27.5729
 20
85.7634
 11
27.8131
 21
86.0536
  0
LINE
  8
0
 10
27.8131
 20
86.0536
 11
28.0877
 21
86.3115
  0
LINE
  8
0
 10
28.0877
 20
86.3115
 11
28.3925
 21
86.533
  0
LINE
  8
0
 10
28.3925
 20
86.533
 11
28.7227
 21
86.7145
  0
LINE
  8
0
 10
28.7227
 20
86.7145
 11
29.0729
 21
86.8532
  0
LINE
  8
0
 10
29.0729
 20
86.8532
 11
29.4379
 21
86.9469
  0
LINE
  8
0
 10
29.4379
 20
86.9469
 11
29.8116
 21
86.9941
  0
LINE
  8
0
 10
29.8116
 20
86.9941
 11
30.1884
 21
86.9941
  0
LINE
  8
0
 10
30.1884
 20
86.9941
 11
30.5621
 21
86.9469
  0
LINE
  8
0
 10
30.5621
 20
86.9469
 11
30.927
 21
86.8532
  0
LINE
  8
0
 10
30.927
 20
86.8532
 11
31.2773
 21
86.7145
  0
LINE
  8
0
 10
31.2773
 20
86.7145
 11
31.6075
 21
86.533
  0
LINE
  8
0
 10
31.6075
 20
86.533
 11
31.9123
 21
86.3115
  0
LINE
  8
0
 10
31.9123
 20
86.3115
 11
32.1869
 21
86.0536
  0
LINE
  8
0
 10
32.1869
 20
86.0536
 11
32.427
 21
85.7634
  0
LINE
  8
0
 10
32.427
 20
85.7634
 11
32.6289
 21
85.4453
  0
LINE
  8
0
 10
32.6289
 20
85.4453
 11
32.7893
 21
85.1044
  0
LINE
  8
0
 10
32.7893
 20
85.1044
 11
32.9057
 21
84.7461
  0
LINE
  8
0
 10
32.9057
 20
84.7461
 11
32.9763
 21
84.376
  0
LINE
  8
0
 10
32.9763
 20
84.376
 11
33
 21
84
  0
LINE
  8
0
 10
33
 20
84
 11
32.9763
 21
83.624
  0
LINE
  8
0
 10
32.9763
 20
83.624
 11
32.9057
 21
83.2539
  0
LINE
  8
0
 10
32.9057
 20
83.2539
 11
32.7893
 21
82.8956
  0
LINE
  8
0
 10
32.7893
 20
82.8956
 11
32.6289
 21
82.5547
  0
LINE
  8
0
 10
32.6289
 20
82.5547
 11
32.427
 21
82.2366
  0
LINE
  8
0
 10
32.427
 20
82.2366
 11
32.1869
 21
81.9464
  0
LINE
  8
0
 10
32.1869
 20
81.9464
 11
31.9123
 21
81.6885
  0
LINE
  8
0
 10
31.9123
 20
81.6885
 11
31.6075
 21
81.467
  0
LINE
  8
0
 10
31.6075
 20
81.467
 11
31.2773
 21
81.2855
  0
LINE
  8
0
 10
31.2773
 20
81.2855
 11
30.927
 21
81.1468
  0
LINE
  8
0
 10
30.927
 20
81.1468
 11
30.5621
 21
81.0531
  0
LINE
  8
0
 10
30.5621
 20
81.0531
 11
30.1884
 21
81.0059
  0
LINE
  8
0
 10
30.1884
 20
81.0059
 11
29.8116
 21
81.0059
  0
LINE
  8
0
 10
-15.1884
 20
81.0059
 11
-15.5621
 21
81.0531
  0
LINE
  8
0
 10
-15.5621
 20
81.0531
 11
-15.927
 21
81.1468
  0
LINE
  8
0
 10
-15.927
 20
81.1468
 11
-16.2773
 21
81.2855
  0
LINE
  8
0
 10
-16.2773
 20
81.2855
 11
-16.6075
 21
81.467
  0
LINE
  8
0
 10
-16.6075
 20
81.467
 11
-16.9123
 21
81.6885
  0
LINE
  8
0
 10
-16.9123
 20
81.6885
 11
-17.1869
 21
81.9464
  0
LINE
  8
0
 10
-17.1869
 20
81.9464
 11
-17.427
 21
82.2366
  0
LINE
  8
0
 10
-17.427
 20
82.2366
 11
-17.6289
 21
82.5547
  0
LINE
  8
0
 10
-17.6289
 20
82.5547
 11
-17.7893
 21
82.8956
  0
LINE
  8
0
 10
-17.7893
 20
82.8956
 11
-17.9057
 21
83.2539
  0
LINE
  8
0
 10
-17.9057
 20
83.2539
 11
-17.9763
 21
83.624
  0
LINE
  8
0
 10
-17.9763
 20
83.624
 11
-18
 21
84
  0
LINE
  8
0
 10
-18
 20
84
 11
-17.9763
 21
84.376
  0
LINE
  8
0
 10
-17.9763
 20
84.376
 11
-17.9057
 21
84.7461
  0
LINE
  8
0
 10
-17.9057
 20
84.7461
 11
-17.7893
 21
85.1044
  0
LINE
  8
0
 10
-17.7893
 20
85.1044
 11
-17.6289
 21
85.4453
  0
LINE
  8
0
 10
-17.6289
 20
85.4453
 11
-17.427
 21
85.7634
  0
LINE
  8
0
 10
-17.427
 20
85.7634
 11
-17.1869
 21
86.0536
  0
LINE
  8
0
 10
-17.1869
 20
86.0536
 11
-16.9123
 21
86.3115
  0
LINE
  8
0
 10
-16.9123
 20
86.3115
 11
-16.6075
 21
86.533
  0
LINE
  8
0
 10
-16.6075
 20
86.533
 11
-16.2773
 21
86.7145
  0
LINE
  8
0
 10
-16.2773
 20
86.7145
 11
-15.927
 21
86.8532
  0
LINE
  8
0
 10
-15.927
 20
86.8532
 11
-15.5621
 21
86.9469
  0
LINE
  8
0
 10
-15.5621
 20
86.9469
 11
-15.1884
 21
86.9941
  0
LINE
  8
0
 10
-15.1884
 20
86.9941
 11
-14.8116
 21
86.9941
  0
LINE
  8
0
 10
-14.8116
 20
86.9941
 11
-14.4379
 21
86.9469
  0
LINE
  8
0
 10
-14.4379
 20
86.9469
 11
-14.0729
 21
86.8532
  0
LINE
  8
0
 10
-14.0729
 20
86.8532
 11
-13.7227
 21
86.7145
  0
LINE
  8
0
 10
-13.7227
 20
86.7145
 11
-13.3925
 21
86.533
  0
LINE
  8
0
 10
-13.3925
 20
86.533
 11
-13.0877
 21
86.3115
  0
LINE
  8
0
 10
-13.0877
 20
86.3115
 11
-12.8131
 21
86.0536
  0
LINE
  8
0
 10
-12.8131
 20
86.0536
 11
-12.5729
 21
85.7634
  0
LINE
  8
0
 10
-12.5729
 20
85.7634
 11
-12.3711
 21
85.4453
  0
LINE
  8
0
 10
-12.3711
 20
85.4453
 11
-12.2107
 21
85.1044
  0
LINE
  8
0
 10
-12.2107
 20
85.1044
 11
-12.0942
 21
84.7461
  0
LINE
  8
0
 10
-12.0942
 20
84.7461
 11
-12.0237
 21
84.376
  0
LINE
  8
0
 10
-12.0237
 20
84.376
 11
-12
 21
84
  0
LINE
  8
0
 10
-12
 20
84
 11
-12.0237
 21
83.624
  0
LINE
  8
0
 10
-12.0237
 20
83.624
 11
-12.0942
 21
83.2539
  0
LINE
  8
0
 10
-12.0942
 20
83.2539
 11
-12.2107
 21
82.8956
  0
LINE
  8
0
 10
-12.2107
 20
82.8956
 11
-12.3711
 21
82.5547
  0
LINE
  8
0
 10
-12.3711
 20
82.5547
 11
-12.5729
 21
82.2366
  0
LINE
  8
0
 10
-12.5729
 20
82.2366
 11
-12.8131
 21
81.9464
  0
LINE
  8
0
 10
-12.8131
 20
81.9464
 11
-13.0877
 21
81.6885
  0
LINE
  8
0
 10
-13.0877
 20
81.6885
 11
-13.3925
 21
81.467
  0
LINE
  8
0
 10
-13.3925
 20
81.467
 11
-13.7227
 21
81.2855
  0
LINE
  8
0
 10
-13.7227
 20
81.2855
 11
-14.0729
 21
81.1468
  0
LINE
  8
0
 10
-14.0729
 20
81.1468
 11
-14.4379
 21
81.0531
  0
LINE
  8
0
 10
-14.4379
 20
81.0531
 11
-14.8116
 21
81.0059
  0
LINE
  8
0
 10
-14.8116
 20
81.0059
 11
-15.1884
 21
81.0059
  0
LINE
  8
0
 10
-30.1884
 20
81.0059
 11
-30.5621
 21
81.0531
  0
LINE
  8
0
 10
-30.5621
 20
81.0531
 11
-30.927
 21
81.1468
  0
LINE
  8
0
 10
-30.927
 20
81.1468
 11
-31.2773
 21
81.2855
  0
LINE
  8
0
 10
-31.2773
 20
81.2855
 11
-31.6075
 21
81.467
  0
LINE
  8
0
 10
-31.6075
 20
81.467
 11
-31.9123
 21
81.6885
  0
LINE
  8
0
 10
-31.9123
 20
81.6885
 11
-32.1869
 21
81.9464
  0
LINE
  8
0
 10
-32.1869
 20
81.9464
 11
-32.427
 21
82.2366
  0
LINE
  8
0
 10
-32.427
 20
82.2366
 11
-32.6289
 21
82.5547
  0
LINE
  8
0
 10
-32.6289
 20
82.5547
 11
-32.7893
 21
82.8956
  0
LINE
  8
0
 10
-32.7893
 20
82.8956
 11
-32.9057
 21
83.2539
  0
LINE
  8
0
 10
-32.9057
 20
83.2539
 11
-32.9763
 21
83.624
  0
LINE
  8
0
 10
-32.9763
 20
83.624
 11
-33
 21
84
  0
LINE
  8
0
 10
-33
 20
84
 11
-32.9763
 21
84.376
  0
LINE
  8
0
 10
-32.9763
 20
84.376
 11
-32.9057
 21
84.7461
  0
LINE
  8
0
 10
-32.9057
 20
84.7461
 11
-32.7893
 21
85.1044
  0
LINE
  8
0
 10
-32.7893
 20
85.1044
 11
-32.6289
 21
85.4453
  0
LINE
  8
0
 10
-32.6289
 20
85.4453
 11
-32.427
 21
85.7634
  0
LINE
  8
0
 10
-32.427
 20
85.7634
 11
-32.1869
 21
86.0536
  0
LINE
  8
0
 10
-32.1869
 20
86.0536
 11
-31.9123
 21
86.3115
  0
LINE
  8
0
 10
-31.9123
 20
86.3115
 11
-31.6075
 21
86.533
  0
LINE
  8
0
 10
-31.6075
 20
86.533
 11
-31.2773
 21
86.7145
  0
LINE
  8
0
 10
-31.2773
 20
86.7145
 11
-30.927
 21
86.8532
  0
LINE
  8
0
 10
-30.927
 20
86.8532
 11
-30.5621
 21
86.9469
  0
LINE
  8
0
 10
-30.5621
 20
86.9469
 11
-30.1884
 21
86.9941
  0
LINE
  8
0
 10
-30.1884
 20
86.9941
 11
-29.8116
 21
86.9941
  0
LINE
  8
0
 10
-29.8116
 20
86.9941
 11
-29.4379
 21
86.9469
  0
LINE
  8
0
 10
-29.4379
 20
86.9469
 11
-29.0729
 21
86.8532
  0
LINE
  8
0
 10
-29.0729
 20
86.8532
 11
-28.7227
 21
86.7145
  0
LINE
  8
0
 10
-28.7227
 20
86.7145
 11
-28.3925
 21
86.533
  0
LINE
  8
0
 10
-28.3925
 20
86.533
 11
-28.0877
 21
86.3115
  0
LINE
  8
0
 10
-28.0877
 20
86.3115
 11
-27.8131
 21
86.0536
  0
LINE
  8
0
 10
-27.8131
 20
86.0536
 11
-27.5729
 21
85.7634
  0
LINE
  8
0
 10
-27.5729
 20
85.7634
 11
-27.3711
 21
85.4453
  0
LINE
  8
0
 10
-27.3711
 20
85.4453
 11
-27.2107
 21
85.1044
  0
LINE
  8
0
 10
-27.2107
 20
85.1044
 11
-27.0942
 21
84.7461
  0
LINE
  8
0
 10
-27.0942
 20
84.7461
 11
-27.0237
 21
84.376
  0
LINE
  8
0
 10
-27.0237
 20
84.376
 11
-27
 21
84
  0
LINE
  8
0
 10
-27
 20
84
 11
-27.0237
 21
83.624
  0
LINE
  8
0
 10
-27.0237
 20
83.624
 11
-27.0942
 21
83.2539
  0
LINE
  8
0
 10
-27.0942
 20
83.2539
 11
-27.2107
 21
82.8956
  0
LINE
  8
0
 10
-27.2107
 20
82.8956
 11
-27.3711
 21
82.5547
  0
LINE
  8
0
 10
-27.3711
 20
82.5547
 11
-27.5729
 21
82.2366
  0
LINE
  8
0
 10
-27.5729
 20
82.2366
 11
-27.8131
 21
81.9464
  0
LINE
  8
0
 10
-27.8131
 20
81.9464
 11
-28.0877
 21
81.6885
  0
LINE
  8
0
 10
-28.0877
 20
81.6885
 11
-28.3925
 21
81.467
  0
LINE
  8
0
 10
-28.3925
 20
81.467
 11
-28.7227
 21
81.2855
  0
LINE
  8
0
 10
-28.7227
 20
81.2855
 11
-29.0729
 21
81.1468
  0
LINE
  8
0
 10
-29.0729
 20
81.1468
 11
-29.4379
 21
81.0531
  0
LINE
  8
0
 10
-29.4379
 20
81.0531
 11
-29.8116
 21
81.0059
  0
LINE
  8
0
 10
-29.8116
 20
81.0059
 11
-30.1884
 21
81.0059
  0
LINE
  8
0
 10
14.8116
 20
81.0059
 11
14.4379
 21
81.0531
  0
LINE
  8
0
 10
14.4379
 20
81.0531
 11
14.0729
 21
81.1468
  0
LINE
  8
0
 10
14.0729
 20
81.1468
 11
13.7227
 21
81.2855
  0
LINE
  8
0
 10
13.7227
 20
81.2855
 11
13.3925
 21
81.467
  0
LINE
  8
0
 10
13.3925
 20
81.467
 11
13.0877
 21
81.6885
  0
LINE
  8
0
 10
13.0877
 20
81.6885
 11
12.8131
 21
81.9464
  0
LINE
  8
0
 10
12.8131
 20
81.9464
 11
12.5729
 21
82.2366
  0
LINE
  8
0
 10
12.5729
 20
82.2366
 11
12.3711
 21
82.5547
  0
LINE
  8
0
 10
12.3711
 20
82.5547
 11
12.2107
 21
82.8956
  0
LINE
  8
0
 10
12.2107
 20
82.8956
 11
12.0942
 21
83.2539
  0
LINE
  8
0
 10
12.0942
 20
83.2539
 11
12.0237
 21
83.624
  0
LINE
  8
0
 10
12.0237
 20
83.624
 11
12
 21
84
  0
LINE
  8
0
 10
12
 20
84
 11
12.0237
 21
84.376
  0
LINE
  8
0
 10
12.0237
 20
84.376
 11
12.0942
 21
84.7461
  0
LINE
  8
0
 10
12.0942
 20
84.7461
 11
12.2107
 21
85.1044
  0
LINE
  8
0
 10
12.2107
 20
85.1044
 11
12.3711
 21
85.4453
  0
LINE
  8
0
 10
12.3711
 20
85.4453
 11
12.5729
 21
85.7634
  0
LINE
  8
0
 10
12.5729
 20
85.7634
 11
12.8131
 21
86.0536
  0
LINE
  8
0
 10
12.8131
 20
86.0536
 11
13.0877
 21
86.3115
  0
LINE
  8
0
 10
13.0877
 20
86.3115
 11
13.3925
 21
86.533
  0
LINE
  8
0
 10
13.3925
 20
86.533
 11
13.7227
 21
86.7145
  0
LINE
  8
0
 10
13.7227
 20
86.7145
 11
14.0729
 21
86.8532
  0
LINE
  8
0
 10
14.0729
 20
86.8532
 11
14.4379
 21
86.9469
  0
LINE
  8
0
 10
14.4379
 20
86.9469
 11
14.8116
 21
86.9941
  0
LINE
  8
0
 10
14.8116
 20
86.9941
 11
15.1884
 21
86.9941
  0
LINE
  8
0
 10
15.1884
 20
86.9941
 11
15.5621
 21
86.9469
  0
LINE
  8
0
 10
15.5621
 20
86.9469
 11
15.927
 21
86.8532
  0
LINE
  8
0
 10
15.927
 20
86.8532
 11
16.2773
 21
86.7145
  0
LINE
  8
0
 10
16.2773
 20
86.7145
 11
16.6075
 21
86.533
  0
LINE
  8
0
 10
16.6075
 20
86.533
 11
16.9123
 21
86.3115
  0
LINE
  8
0
 10
16.9123
 20
86.3115
 11
17.1869
 21
86.0536
  0
LINE
  8
0
 10
17.1869
 20
86.0536
 11
17.427
 21
85.7634
  0
LINE
  8
0
 10
17.427
 20
85.7634
 11
17.6289
 21
85.4453
  0
LINE
  8
0
 10
17.6289
 20
85.4453
 11
17.7893
 21
85.1044
  0
LINE
  8
0
 10
17.7893
 20
85.1044
 11
17.9057
 21
84.7461
  0
LINE
  8
0
 10
17.9057
 20
84.7461
 11
17.9763
 21
84.376
  0
LINE
  8
0
 10
17.9763
 20
84.376
 11
18
 21
84
  0
LINE
  8
0
 10
18
 20
84
 11
17.9763
 21
83.624
  0
LINE
  8
0
 10
17.9763
 20
83.624
 11
17.9057
 21
83.2539
  0
LINE
  8
0
 10
17.9057
 20
83.2539
 11
17.7893
 21
82.8956
  0
LINE
  8
0
 10
17.7893
 20
82.8956
 11
17.6289
 21
82.5547
  0
LINE
  8
0
 10
17.6289
 20
82.5547
 11
17.427
 21
82.2366
  0
LINE
  8
0
 10
17.427
 20
82.2366
 11
17.1869
 21
81.9464
  0
LINE
  8
0
 10
17.1869
 20
81.9464
 11
16.9123
 21
81.6885
  0
LINE
  8
0
 10
16.9123
 20
81.6885
 11
16.6075
 21
81.467
  0
LINE
  8
0
 10
16.6075
 20
81.467
 11
16.2773
 21
81.2855
  0
LINE
  8
0
 10
16.2773
 20
81.2855
 11
15.927
 21
81.1468
  0
LINE
  8
0
 10
15.927
 20
81.1468
 11
15.5621
 21
81.0531
  0
LINE
  8
0
 10
15.5621
 20
81.0531
 11
15.1884
 21
81.0059
  0
LINE
  8
0
 10
15.1884
 20
81.0059
 11
14.8116
 21
81.0059
  0
LINE
  8
0
 10
29.8116
 20
66.0059
 11
29.4379
 21
66.0531
  0
LINE
  8
0
 10
29.4379
 20
66.0531
 11
29.0729
 21
66.1468
  0
LINE
  8
0
 10
29.0729
 20
66.1468
 11
28.7227
 21
66.2855
  0
LINE
  8
0
 10
28.7227
 20
66.2855
 11
28.3925
 21
66.467
  0
LINE
  8
0
 10
28.3925
 20
66.467
 11
28.0877
 21
66.6885
  0
LINE
  8
0
 10
28.0877
 20
66.6885
 11
27.8131
 21
66.9464
  0
LINE
  8
0
 10
27.8131
 20
66.9464
 11
27.5729
 21
67.2366
  0
LINE
  8
0
 10
27.5729
 20
67.2366
 11
27.3711
 21
67.5547
  0
LINE
  8
0
 10
27.3711
 20
67.5547
 11
27.2107
 21
67.8956
  0
LINE
  8
0
 10
27.2107
 20
67.8956
 11
27.0942
 21
68.2539
  0
LINE
  8
0
 10
27.0942
 20
68.2539
 11
27.0237
 21
68.624
  0
LINE
  8
0
 10
27.0237
 20
68.624
 11
27
 21
69
  0
LINE
  8
0
 10
27
 20
69
 11
27.0237
 21
69.376
  0
LINE
  8
0
 10
27.0237
 20
69.376
 11
27.0942
 21
69.7461
  0
LINE
  8
0
 10
27.0942
 20
69.7461
 11
27.2107
 21
70.1044
  0
LINE
  8
0
 10
27.2107
 20
70.1044
 11
27.3711
 21
70.4453
  0
LINE
  8
0
 10
27.3711
 20
70.4453
 11
27.5729
 21
70.7634
  0
LINE
  8
0
 10
27.5729
 20
70.7634
 11
27.8131
 21
71.0536
  0
LINE
  8
0
 10
27.8131
 20
71.0536
 11
28.0877
 21
71.3116
  0
LINE
  8
0
 10
28.0877
 20
71.3116
 11
28.3925
 21
71.533
  0
LINE
  8
0
 10
28.3925
 20
71.533
 11
28.7227
 21
71.7145
  0
LINE
  8
0
 10
28.7227
 20
71.7145
 11
29.0729
 21
71.8532
  0
LINE
  8
0
 10
29.0729
 20
71.8532
 11
29.4379
 21
71.9469
  0
LINE
  8
0
 10
29.4379
 20
71.9469
 11
29.8116
 21
71.9941
  0
LINE
  8
0
 10
29.8116
 20
71.9941
 11
30.1884
 21
71.9941
  0
LINE
  8
0
 10
30.1884
 20
71.9941
 11
30.5621
 21
71.9469
  0
LINE
  8
0
 10
30.5621
 20
71.9469
 11
30.927
 21
71.8532
  0
LINE
  8
0
 10
30.927
 20
71.8532
 11
31.2773
 21
71.7145
  0
LINE
  8
0
 10
31.2773
 20
71.7145
 11
31.6075
 21
71.533
  0
LINE
  8
0
 10
31.6075
 20
71.533
 11
31.9123
 21
71.3116
  0
LINE
  8
0
 10
31.9123
 20
71.3116
 11
32.1869
 21
71.0536
  0
LINE
  8
0
 10
32.1869
 20
71.0536
 11
32.427
 21
70.7634
  0
LINE
  8
0
 10
32.427
 20
70.7634
 11
32.6289
 21
70.4453
  0
LINE
  8
0
 10
32.6289
 20
70.4453
 11
32.7893
 21
70.1044
  0
LINE
  8
0
 10
32.7893
 20
70.1044
 11
32.9057
 21
69.7461
  0
LINE
  8
0
 10
32.9057
 20
69.7461
 11
32.9763
 21
69.376
  0
LINE
  8
0
 10
32.9763
 20
69.376
 11
33
 21
69
  0
LINE
  8
0
 10
33
 20
69
 11
32.9763
 21
68.624
  0
LINE
  8
0
 10
32.9763
 20
68.624
 11
32.9057
 21
68.2539
  0
LINE
  8
0
 10
32.9057
 20
68.2539
 11
32.7893
 21
67.8956
  0
LINE
  8
0
 10
32.7893
 20
67.8956
 11
32.6289
 21
67.5547
  0
LINE
  8
0
 10
32.6289
 20
67.5547
 11
32.427
 21
67.2366
  0
LINE
  8
0
 10
32.427
 20
67.2366
 11
32.1869
 21
66.9464
  0
LINE
  8
0
 10
32.1869
 20
66.9464
 11
31.9123
 21
66.6885
  0
LINE
  8
0
 10
31.9123
 20
66.6885
 11
31.6075
 21
66.467
  0
LINE
  8
0
 10
31.6075
 20
66.467
 11
31.2773
 21
66.2855
  0
LINE
  8
0
 10
31.2773
 20
66.2855
 11
30.927
 21
66.1468
  0
LINE
  8
0
 10
30.927
 20
66.1468
 11
30.5621
 21
66.0531
  0
LINE
  8
0
 10
30.5621
 20
66.0531
 11
30.1884
 21
66.0059
  0
LINE
  8
0
 10
30.1884
 20
66.0059
 11
29.8116
 21
66.0059
  0
LINE
  8
0
 10
14.8116
 20
66.0059
 11
14.4379
 21
66.0531
  0
LINE
  8
0
 10
14.4379
 20
66.0531
 11
14.0729
 21
66.1468
  0
LINE
  8
0
 10
14.0729
 20
66.1468
 11
13.7227
 21
66.2855
  0
LINE
  8
0
 10
13.7227
 20
66.2855
 11
13.3925
 21
66.467
  0
LINE
  8
0
 10
13.3925
 20
66.467
 11
13.0877
 21
66.6885
  0
LINE
  8
0
 10
13.0877
 20
66.6885
 11
12.8131
 21
66.9464
  0
LINE
  8
0
 10
12.8131
 20
66.9464
 11
12.5729
 21
67.2366
  0
LINE
  8
0
 10
12.5729
 20
67.2366
 11
12.3711
 21
67.5547
  0
LINE
  8
0
 10
12.3711
 20
67.5547
 11
12.2107
 21
67.8956
  0
LINE
  8
0
 10
12.2107
 20
67.8956
 11
12.0942
 21
68.2539
  0
LINE
  8
0
 10
12.0942
 20
68.2539
 11
12.0237
 21
68.624
  0
LINE
  8
0
 10
12.0237
 20
68.624
 11
12
 21
69
  0
LINE
  8
0
 10
12
 20
69
 11
12.0237
 21
69.376
  0
LINE
  8
0
 10
12.0237
 20
69.376
 11
12.0942
 21
69.7461
  0
LINE
  8
0
 10
12.0942
 20
69.7461
 11
12.2107
 21
70.1044
  0
LINE
  8
0
 10
12.2107
 20
70.1044
 11
12.3711
 21
70.4453
  0
LINE
  8
0
 10
12.3711
 20
70.4453
 11
12.5729
 21
70.7634
  0
LINE
  8
0
 10
12.5729
 20
70.7634
 11
12.8131
 21
71.0536
  0
LINE
  8
0
 10
12.8131
 20
71.0536
 11
13.0877
 21
71.3116
  0
LINE
  8
0
 10
13.0877
 20
71.3116
 11
13.3925
 21
71.533
  0
LINE
  8
0
 10
13.3925
 20
71.533
 11
13.7227
 21
71.7145
  0
LINE
  8
0
 10
13.7227
 20
71.7145
 11
14.0729
 21
71.8532
  0
LINE
  8
0
 10
14.0729
 20
71.8532
 11
14.4379
 21
71.9469
  0
LINE
  8
0
 10
14.4379
 20
71.9469
 11
14.8116
 21
71.9941
  0
LINE
  8
0
 10
14.8116
 20
71.9941
 11
15.1884
 21
71.9941
  0
LINE
  8
0
 10
15.1884
 20
71.9941
 11
15.5621
 21
71.9469
  0
LINE
  8
0
 10
15.5621
 20
71.9469
 11
15.927
 21
71.8532
  0
LINE
  8
0
 10
15.927
 20
71.8532
 11
16.2773
 21
71.7145
  0
LINE
  8
0
 10
16.2773
 20
71.7145
 11
16.6075
 21
71.533
  0
LINE
  8
0
 10
16.6075
 20
71.533
 11
16.9123
 21
71.3116
  0
LINE
  8
0
 10
16.9123
 20
71.3116
 11
17.1869
 21
71.0536
  0
LINE
  8
0
 10
17.1869
 20
71.0536
 11
17.427
 21
70.7634
  0
LINE
  8
0
 10
17.427
 20
70.7634
 11
17.6289
 21
70.4453
  0
LINE
  8
0
 10
17.6289
 20
70.4453
 11
17.7893
 21
70.1044
  0
LINE
  8
0
 10
17.7893
 20
70.1044
 11
17.9057
 21
69.7461
  0
LINE
  8
0
 10
17.9057
 20
69.7461
 11
17.9763
 21
69.376
  0
LINE
  8
0
 10
17.9763
 20
69.376
 11
18
 21
69
  0
LINE
  8
0
 10
18
 20
69
 11
17.9763
 21
68.624
  0
LINE
  8
0
 10
17.9763
 20
68.624
 11
17.9057
 21
68.2539
  0
LINE
  8
0
 10
17.9057
 20
68.2539
 11
17.7893
 21
67.8956
  0
LINE
  8
0
 10
17.7893
 20
67.8956
 11
17.6289
 21
67.5547
  0
LINE
  8
0
 10
17.6289
 20
67.5547
 11
17.427
 21
67.2366
  0
LINE
  8
0
 10
17.427
 20
67.2366
 11
17.1869
 21
66.9464
  0
LINE
  8
0
 10
17.1869
 20
66.9464
 11
16.9123
 21
66.6885
  0
LINE
  8
0
 10
16.9123
 20
66.6885
 11
16.6075
 21
66.467
  0
LINE
  8
0
 10
16.6075
 20
66.467
 11
16.2773
 21
66.2855
  0
LINE
  8
0
 10
16.2773
 20
66.2855
 11
15.927
 21
66.1468
  0
LINE
  8
0
 10
15.927
 20
66.1468
 11
15.5621
 21
66.0531
  0
LINE
  8
0
 10
15.5621
 20
66.0531
 11
15.1884
 21
66.0059
  0
LINE
  8
0
 10
15.1884
 20
66.0059
 11
14.8116
 21
66.0059
  0
LINE
  8
0
 10
-0.18837
 20
66.0059
 11
-0.562134
 21
66.0531
  0
LINE
  8
0
 10
-0.562134
 20
66.0531
 11
-0.927048
 21
66.1468
  0
LINE
  8
0
 10
-0.927048
 20
66.1468
 11
-1.27733
 21
66.2855
  0
LINE
  8
0
 10
-1.27733
 20
66.2855
 11
-1.60747
 21
66.467
  0
LINE
  8
0
 10
-1.60747
 20
66.467
 11
-1.91226
 21
66.6885
  0
LINE
  8
0
 10
-1.91226
 20
66.6885
 11
-2.1869
 21
66.9464
  0
LINE
  8
0
 10
-2.1869
 20
66.9464
 11
-2.42705
 21
67.2366
  0
LINE
  8
0
 10
-2.42705
 20
67.2366
 11
-2.62891
 21
67.5547
  0
LINE
  8
0
 10
-2.62891
 20
67.5547
 11
-2.78932
 21
67.8956
  0
LINE
  8
0
 10
-2.78932
 20
67.8956
 11
-2.90575
 21
68.2539
  0
LINE
  8
0
 10
-2.90575
 20
68.2539
 11
-2.97633
 21
68.624
  0
LINE
  8
0
 10
-2.97633
 20
68.624
 11
-3
 21
69
  0
LINE
  8
0
 10
-3
 20
69
 11
-2.97633
 21
69.376
  0
LINE
  8
0
 10
-2.97633
 20
69.376
 11
-2.90575
 21
69.7461
  0
LINE
  8
0
 10
-2.90575
 20
69.7461
 11
-2.78932
 21
70.1044
  0
LINE
  8
0
 10
-2.78932
 20
70.1044
 11
-2.62891
 21
70.4453
  0
LINE
  8
0
 10
-2.62891
 20
70.4453
 11
-2.42705
 21
70.7634
  0
LINE
  8
0
 10
-2.42705
 20
70.7634
 11
-2.1869
 21
71.0536
  0
LINE
  8
0
 10
-2.1869
 20
71.0536
 11
-1.91226
 21
71.3116
  0
LINE
  8
0
 10
-1.91226
 20
71.3116
 11
-1.60747
 21
71.533
  0
LINE
  8
0
 10
-1.60747
 20
71.533
 11
-1.27733
 21
71.7145
  0
LINE
  8
0
 10
-1.27733
 20
71.7145
 11
-0.927048
 21
71.8532
  0
LINE
  8
0
 10
-0.927048
 20
71.8532
 11
-0.562134
 21
71.9469
  0
LINE
  8
0
 10
-0.562134
 20
71.9469
 11
-0.18837
 21
71.9941
  0
LINE
  8
0
 10
-0.18837
 20
71.9941
 11
0.18837
 21
71.9941
  0
LINE
  8
0
 10
0.18837
 20
71.9941
 11
0.562134
 21
71.9469
  0
LINE
  8
0
 10
0.562134
 20
71.9469
 11
0.927048
 21
71.8532
  0
LINE
  8
0
 10
0.927048
 20
71.8532
 11
1.27733
 21
71.7145
  0
LINE
  8
0
 10
1.27733
 20
71.7145
 11
1.60747
 21
71.533
  0
LINE
  8
0
 10
1.60747
 20
71.533
 11
1.91226
 21
71.3116
  0
LINE
  8
0
 10
1.91226
 20
71.3116
 11
2.1869
 21
71.0536
  0
LINE
  8
0
 10
2.1869
 20
71.0536
 11
2.42705
 21
70.7634
  0
LINE
  8
0
 10
2.42705
 20
70.7634
 11
2.62891
 21
70.4453
  0
LINE
  8
0
 10
2.62891
 20
70.4453
 11
2.78932
 21
70.1044
  0
LINE
  8
0
 10
2.78932
 20
70.1044
 11
2.90575
 21
69.7461
  0
LINE
  8
0
 10
2.90575
 20
69.7461
 11
2.97633
 21
69.376
  0
LINE
  8
0
 10
2.97633
 20
69.376
 11
3
 21
69
  0
LINE
  8
0
 10
3
 20
69
 11
2.97633
 21
68.624
  0
LINE
  8
0
 10
2.97633
 20
68.624
 11
2.90575
 21
68.2539
  0
LINE
  8
0
 10
2.90575
 20
68.2539
 11
2.78932
 21
67.8956
  0
LINE
  8
0
 10
2.78932
 20
67.8956
 11
2.62891
 21
67.5547
  0
LINE
  8
0
 10
2.62891
 20
67.5547
 11
2.42705
 21
67.2366
  0
LINE
  8
0
 10
2.42705
 20
67.2366
 11
2.1869
 21
66.9464
  0
LINE
  8
0
 10
2.1869
 20
66.9464
 11
1.91226
 21
66.6885
  0
LINE
  8
0
 10
1.91226
 20
66.6885
 11
1.60747
 21
66.467
  0
LINE
  8
0
 10
1.60747
 20
66.467
 11
1.27733
 21
66.2855
  0
LINE
  8
0
 10
1.27733
 20
66.2855
 11
0.927048
 21
66.1468
  0
LINE
  8
0
 10
0.927048
 20
66.1468
 11
0.562134
 21
66.0531
  0
LINE
  8
0
 10
0.562134
 20
66.0531
 11
0.18837
 21
66.0059
  0
LINE
  8
0
 10
0.18837
 20
66.0059
 11
-0.18837
 21
66.0059
  0
LINE
  8
0
 10
-15.1884
 20
66.0059
 11
-15.5621
 21
66.0531
  0
LINE
  8
0
 10
-15.5621
 20
66.0531
 11
-15.927
 21
66.1468
  0
LINE
  8
0
 10
-15.927
 20
66.1468
 11
-16.2773
 21
66.2855
  0
LINE
  8
0
 10
-16.2773
 20
66.2855
 11
-16.6075
 21
66.467
  0
LINE
  8
0
 10
-16.6075
 20
66.467
 11
-16.9123
 21
66.6885
  0
LINE
  8
0
 10
-16.9123
 20
66.6885
 11
-17.1869
 21
66.9464
  0
LINE
  8
0
 10
-17.1869
 20
66.9464
 11
-17.427
 21
67.2366
  0
LINE
  8
0
 10
-17.427
 20
67.2366
 11
-17.6289
 21
67.5547
  0
LINE
  8
0
 10
-17.6289
 20
67.5547
 11
-17.7893
 21
67.8956
  0
LINE
  8
0
 10
-17.7893
 20
67.8956
 11
-17.9057
 21
68.2539
  0
LINE
  8
0
 10
-17.9057
 20
68.2539
 11
-17.9763
 21
68.624
  0
LINE
  8
0
 10
-17.9763
 20
68.624
 11
-18
 21
69
  0
LINE
  8
0
 10
-18
 20
69
 11
-17.9763
 21
69.376
  0
LINE
  8
0
 10
-17.9763
 20
69.376
 11
-17.9057
 21
69.7461
  0
LINE
  8
0
 10
-17.9057
 20
69.7461
 11
-17.7893
 21
70.1044
  0
LINE
  8
0
 10
-17.7893
 20
70.1044
 11
-17.6289
 21
70.4453
  0
LINE
  8
0
 10
-17.6289
 20
70.4453
 11
-17.427
 21
70.7634
  0
LINE
  8
0
 10
-17.427
 20
70.7634
 11
-17.1869
 21
71.0536
  0
LINE
  8
0
 10
-17.1869
 20
71.0536
 11
-16.9123
 21
71.3116
  0
LINE
  8
0
 10
-16.9123
 20
71.3116
 11
-16.6075
 21
71.533
  0
LINE
  8
0
 10
-16.6075
 20
71.533
 11
-16.2773
 21
71.7145
  0
LINE
  8
0
 10
-16.2773
 20
71.7145
 11
-15.927
 21
71.8532
  0
LINE
  8
0
 10
-15.927
 20
71.8532
 11
-15.5621
 21
71.9469
  0
LINE
  8
0
 10
-15.5621
 20
71.9469
 11
-15.1884
 21
71.9941
  0
LINE
  8
0
 10
-15.1884
 20
71.9941
 11
-14.8116
 21
71.9941
  0
LINE
  8
0
 10
-14.8116
 20
71.9941
 11
-14.4379
 21
71.9469
  0
LINE
  8
0
 10
-14.4379
 20
71.9469
 11
-14.0729
 21
71.8532
  0
LINE
  8
0
 10
-14.0729
 20
71.8532
 11
-13.7227
 21
71.7145
  0
LINE
  8
0
 10
-13.7227
 20
71.7145
 11
-13.3925
 21
71.533
  0
LINE
  8
0
 10
-13.3925
 20
71.533
 11
-13.0877
 21
71.3116
  0
LINE
  8
0
 10
-13.0877
 20
71.3116
 11
-12.8131
 21
71.0536
  0
LINE
  8
0
 10
-12.8131
 20
71.0536
 11
-12.5729
 21
70.7634
  0
LINE
  8
0
 10
-12.5729
 20
70.7634
 11
-12.3711
 21
70.4453
  0
LINE
  8
0
 10
-12.3711
 20
70.4453
 11
-12.2107
 21
70.1044
  0
LINE
  8
0
 10
-12.2107
 20
70.1044
 11
-12.0942
 21
69.7461
  0
LINE
  8
0
 10
-12.0942
 20
69.7461
 11
-12.0237
 21
69.376
  0
LINE
  8
0
 10
-12.0237
 20
69.376
 11
-12
 21
69
  0
LINE
  8
0
 10
-12
 20
69
 11
-12.0237
 21
68.624
  0
LINE
  8
0
 10
-12.0237
 20
68.624
 11
-12.0942
 21
68.2539
  0
LINE
  8
0
 10
-12.0942
 20
68.2539
 11
-12.2107
 21
67.8956
  0
LINE
  8
0
 10
-12.2107
 20
67.8956
 11
-12.3711
 21
67.5547
  0
LINE
  8
0
 10
-12.3711
 20
67.5547
 11
-12.5729
 21
67.2366
  0
LINE
  8
0
 10
-12.5729
 20
67.2366
 11
-12.8131
 21
66.9464
  0
LINE
  8
0
 10
-12.8131
 20
66.9464
 11
-13.0877
 21
66.6885
  0
LINE
  8
0
 10
-13.0877
 20
66.6885
 11
-13.3925
 21
66.467
  0
LINE
  8
0
 10
-13.3925
 20
66.467
 11
-13.7227
 21
66.2855
  0
LINE
  8
0
 10
-13.7227
 20
66.2855
 11
-14.0729
 21
66.1468
  0
LINE
  8
0
 10
-14.0729
 20
66.1468
 11
-14.4379
 21
66.0531
  0
LINE
  8
0
 10
-14.4379
 20
66.0531
 11
-14.8116
 21
66.0059
  0
LINE
  8
0
 10
-14.8116
 20
66.0059
 11
-15.1884
 21
66.0059
  0
LINE
  8
0
 10
-30.1884
 20
66.0059
 11
-30.5621
 21
66.0531
  0
LINE
  8
0
 10
-30.5621
 20
66.0531
 11
-30.927
 21
66.1468
  0
LINE
  8
0
 10
-30.927
 20
66.1468
 11
-31.2773
 21
66.2855
  0
LINE
  8
0
 10
-31.2773
 20
66.2855
 11
-31.6075
 21
66.467
  0
LINE
  8
0
 10
-31.6075
 20
66.467
 11
-31.9123
 21
66.6885
  0
LINE
  8
0
 10
-31.9123
 20
66.6885
 11
-32.1869
 21
66.9464
  0
LINE
  8
0
 10
-32.1869
 20
66.9464
 11
-32.427
 21
67.2366
  0
LINE
  8
0
 10
-32.427
 20
67.2366
 11
-32.6289
 21
67.5547
  0
LINE
  8
0
 10
-32.6289
 20
67.5547
 11
-32.7893
 21
67.8956
  0
LINE
  8
0
 10
-32.7893
 20
67.8956
 11
-32.9057
 21
68.2539
  0
LINE
  8
0
 10
-32.9057
 20
68.2539
 11
-32.9763
 21
68.624
  0
LINE
  8
0
 10
-32.9763
 20
68.624
 11
-33
 21
69
  0
LINE
  8
0
 10
-33
 20
69
 11
-32.9763
 21
69.376
  0
LINE
  8
0
 10
-32.9763
 20
69.376
 11
-32.9057
 21
69.7461
  0
LINE
  8
0
 10
-32.9057
 20
69.7461
 11
-32.7893
 21
70.1044
  0
LINE
  8
0
 10
-32.7893
 20
70.1044
 11
-32.6289
 21
70.4453
  0
LINE
  8
0
 10
-32.6289
 20
70.4453
 11
-32.427
 21
70.7634
  0
LINE
  8
0
 10
-32.427
 20
70.7634
 11
-32.1869
 21
71.0536
  0
LINE
  8
0
 10
-32.1869
 20
71.0536
 11
-31.9123
 21
71.3116
  0
LINE
  8
0
 10
-31.9123
 20
71.3116
 11
-31.6075
 21
71.533
  0
LINE
  8
0
 10
-31.6075
 20
71.533
 11
-31.2773
 21
71.7145
  0
LINE
  8
0
 10
-31.2773
 20
71.7145
 11
-30.927
 21
71.8532
  0
LINE
  8
0
 10
-30.927
 20
71.8532
 11
-30.5621
 21
71.9469
  0
LINE
  8
0
 10
-30.5621
 20
71.9469
 11
-30.1884
 21
71.9941
  0
LINE
  8
0
 10
-30.1884
 20
71.9941
 11
-29.8116
 21
71.9941
  0
LINE
  8
0
 10
-29.8116
 20
71.9941
 11
-29.4379
 21
71.9469
  0
LINE
  8
0
 10
-29.4379
 20
71.9469
 11
-29.0729
 21
71.8532
  0
LINE
  8
0
 10
-29.0729
 20
71.8532
 11
-28.7227
 21
71.7145
  0
LINE
  8
0
 10
-28.7227
 20
71.7145
 11
-28.3925
 21
71.533
  0
LINE
  8
0
 10
-28.3925
 20
71.533
 11
-28.0877
 21
71.3116
  0
LINE
  8
0
 10
-28.0877
 20
71.3116
 11
-27.8131
 21
71.0536
  0
LINE
  8
0
 10
-27.8131
 20
71.0536
 11
-27.5729
 21
70.7634
  0
LINE
  8
0
 10
-27.5729
 20
70.7634
 11
-27.3711
 21
70.4453
  0
LINE
  8
0
 10
-27.3711
 20
70.4453
 11
-27.2107
 21
70.1044
  0
LINE
  8
0
 10
-27.2107
 20
70.1044
 11
-27.0942
 21
69.7461
  0
LINE
  8
0
 10
-27.0942
 20
69.7461
 11
-27.0237
 21
69.376
  0
LINE
  8
0
 10
-27.0237
 20
69.376
 11
-27
 21
69
  0
LINE
  8
0
 10
-27
 20
69
 11
-27.0237
 21
68.624
  0
LINE
  8
0
 10
-27.0237
 20
68.624
 11
-27.0942
 21
68.2539
  0
LINE
  8
0
 10
-27.0942
 20
68.2539
 11
-27.2107
 21
67.8956
  0
LINE
  8
0
 10
-27.2107
 20
67.8956
 11
-27.3711
 21
67.5547
  0
LINE
  8
0
 10
-27.3711
 20
67.5547
 11
-27.5729
 21
67.2366
  0
LINE
  8
0
 10
-27.5729
 20
67.2366
 11
-27.8131
 21
66.9464
  0
LINE
  8
0
 10
-27.8131
 20
66.9464
 11
-28.0877
 21
66.6885
  0
LINE
  8
0
 10
-28.0877
 20
66.6885
 11
-28.3925
 21
66.467
  0
LINE
  8
0
 10
-28.3925
 20
66.467
 11
-28.7227
 21
66.2855
  0
LINE
  8
0
 10
-28.7227
 20
66.2855
 11
-29.0729
 21
66.1468
  0
LINE
  8
0
 10
-29.0729
 20
66.1468
 11
-29.4379
 21
66.0531
  0
LINE
  8
0
 10
-29.4379
 20
66.0531
 11
-29.8116
 21
66.0059
  0
LINE
  8
0
 10
-29.8116
 20
66.0059
 11
-30.1884
 21
66.0059
  0
LINE
  8
0
 10
-15.1884
 20
51.0059
 11
-15.5621
 21
51.0531
  0
LINE
  8
0
 10
-15.5621
 20
51.0531
 11
-15.927
 21
51.1468
  0
LINE
  8
0
 10
-15.927
 20
51.1468
 11
-16.2773
 21
51.2855
  0
LINE
  8
0
 10
-16.2773
 20
51.2855
 11
-16.6075
 21
51.467
  0
LINE
  8
0
 10
-16.6075
 20
51.467
 11
-16.9123
 21
51.6885
  0
LINE
  8
0
 10
-16.9123
 20
51.6885
 11
-17.1869
 21
51.9464
  0
LINE
  8
0
 10
-17.1869
 20
51.9464
 11
-17.427
 21
52.2366
  0
LINE
  8
0
 10
-17.427
 20
52.2366
 11
-17.6289
 21
52.5547
  0
LINE
  8
0
 10
-17.6289
 20
52.5547
 11
-17.7893
 21
52.8956
  0
LINE
  8
0
 10
-17.7893
 20
52.8956
 11
-17.9057
 21
53.2539
  0
LINE
  8
0
 10
-17.9057
 20
53.2539
 11
-17.9763
 21
53.624
  0
LINE
  8
0
 10
-17.9763
 20
53.624
 11
-18
 21
54
  0
LINE
  8
0
 10
-18
 20
54
 11
-17.9763
 21
54.376
  0
LINE
  8
0
 10
-17.9763
 20
54.376
 11
-17.9057
 21
54.7461
  0
LINE
  8
0
 10
-17.9057
 20
54.7461
 11
-17.7893
 21
55.1044
  0
LINE
  8
0
 10
-17.7893
 20
55.1044
 11
-17.6289
 21
55.4453
  0
LINE
  8
0
 10
-17.6289
 20
55.4453
 11
-17.427
 21
55.7634
  0
LINE
  8
0
 10
-17.427
 20
55.7634
 11
-17.1869
 21
56.0536
  0
LINE
  8
0
 10
-17.1869
 20
56.0536
 11
-16.9123
 21
56.3116
  0
LINE
  8
0
 10
-16.9123
 20
56.3116
 11
-16.6075
 21
56.533
  0
LINE
  8
0
 10
-16.6075
 20
56.533
 11
-16.2773
 21
56.7145
  0
LINE
  8
0
 10
-16.2773
 20
56.7145
 11
-15.927
 21
56.8532
  0
LINE
  8
0
 10
-15.927
 20
56.8532
 11
-15.5621
 21
56.9469
  0
LINE
  8
0
 10
-15.5621
 20
56.9469
 11
-15.1884
 21
56.9941
  0
LINE
  8
0
 10
-15.1884
 20
56.9941
 11
-14.8116
 21
56.9941
  0
LINE
  8
0
 10
-14.8116
 20
56.9941
 11
-14.4379
 21
56.9469
  0
LINE
  8
0
 10
-14.4379
 20
56.9469
 11
-14.0729
 21
56.8532
  0
LINE
  8
0
 10
-14.0729
 20
56.8532
 11
-13.7227
 21
56.7145
  0
LINE
  8
0
 10
-13.7227
 20
56.7145
 11
-13.3925
 21
56.533
  0
LINE
  8
0
 10
-13.3925
 20
56.533
 11
-13.0877
 21
56.3116
  0
LINE
  8
0
 10
-13.0877
 20
56.3116
 11
-12.8131
 21
56.0536
  0
LINE
  8
0
 10
-12.8131
 20
56.0536
 11
-12.5729
 21
55.7634
  0
LINE
  8
0
 10
-12.5729
 20
55.7634
 11
-12.3711
 21
55.4453
  0
LINE
  8
0
 10
-12.3711
 20
55.4453
 11
-12.2107
 21
55.1044
  0
LINE
  8
0
 10
-12.2107
 20
55.1044
 11
-12.0942
 21
54.7461
  0
LINE
  8
0
 10
-12.0942
 20
54.7461
 11
-12.0237
 21
54.376
  0
LINE
  8
0
 10
-12.0237
 20
54.376
 11
-12
 21
54
  0
LINE
  8
0
 10
-12
 20
54
 11
-12.0237
 21
53.624
  0
LINE
  8
0
 10
-12.0237
 20
53.624
 11
-12.0942
 21
53.2539
  0
LINE
  8
0
 10
-12.0942
 20
53.2539
 11
-12.2107
 21
52.8956
  0
LINE
  8
0
 10
-12.2107
 20
52.8956
 11
-12.3711
 21
52.5547
  0
LINE
  8
0
 10
-12.3711
 20
52.5547
 11
-12.5729
 21
52.2366
  0
LINE
  8
0
 10
-12.5729
 20
52.2366
 11
-12.8131
 21
51.9464
  0
LINE
  8
0
 10
-12.8131
 20
51.9464
 11
-13.0877
 21
51.6885
  0
LINE
  8
0
 10
-13.0877
 20
51.6885
 11
-13.3925
 21
51.467
  0
LINE
  8
0
 10
-13.3925
 20
51.467
 11
-13.7227
 21
51.2855
  0
LINE
  8
0
 10
-13.7227
 20
51.2855
 11
-14.0729
 21
51.1468
  0
LINE
  8
0
 10
-14.0729
 20
51.1468
 11
-14.4379
 21
51.0531
  0
LINE
  8
0
 10
-14.4379
 20
51.0531
 11
-14.8116
 21
51.0059
  0
LINE
  8
0
 10
-14.8116
 20
51.0059
 11
-15.1884
 21
51.0059
  0
LINE
  8
0
 10
14.8116
 20
51.0059
 11
14.4379
 21
51.0531
  0
LINE
  8
0
 10
14.4379
 20
51.0531
 11
14.0729
 21
51.1468
  0
LINE
  8
0
 10
14.0729
 20
51.1468
 11
13.7227
 21
51.2855
  0
LINE
  8
0
 10
13.7227
 20
51.2855
 11
13.3925
 21
51.467
  0
LINE
  8
0
 10
13.3925
 20
51.467
 11
13.0877
 21
51.6885
  0
LINE
  8
0
 10
13.0877
 20
51.6885
 11
12.8131
 21
51.9464
  0
LINE
  8
0
 10
12.8131
 20
51.9464
 11
12.5729
 21
52.2366
  0
LINE
  8
0
 10
12.5729
 20
52.2366
 11
12.3711
 21
52.5547
  0
LINE
  8
0
 10
12.3711
 20
52.5547
 11
12.2107
 21
52.8956
  0
LINE
  8
0
 10
12.2107
 20
52.8956
 11
12.0942
 21
53.2539
  0
LINE
  8
0
 10
12.0942
 20
53.2539
 11
12.0237
 21
53.624
  0
LINE
  8
0
 10
12.0237
 20
53.624
 11
12
 21
54
  0
LINE
  8
0
 10
12
 20
54
 11
12.0237
 21
54.376
  0
LINE
  8
0
 10
12.0237
 20
54.376
 11
12.0942
 21
54.7461
  0
LINE
  8
0
 10
12.0942
 20
54.7461
 11
12.2107
 21
55.1044
  0
LINE
  8
0
 10
12.2107
 20
55.1044
 11
12.3711
 21
55.4453
  0
LINE
  8
0
 10
12.3711
 20
55.4453
 11
12.5729
 21
55.7634
  0
LINE
  8
0
 10
12.5729
 20
55.7634
 11
12.8131
 21
56.0536
  0
LINE
  8
0
 10
12.8131
 20
56.0536
 11
13.0877
 21
56.3116
  0
LINE
  8
0
 10
13.0877
 20
56.3116
 11
13.3925
 21
56.533
  0
LINE
  8
0
 10
13.3925
 20
56.533
 11
13.7227
 21
56.7145
  0
LINE
  8
0
 10
13.7227
 20
56.7145
 11
14.0729
 21
56.8532
  0
LINE
  8
0
 10
14.0729
 20
56.8532
 11
14.4379
 21
56.9469
  0
LINE
  8
0
 10
14.4379
 20
56.9469
 11
14.8116
 21
56.9941
  0
LINE
  8
0
 10
14.8116
 20
56.9941
 11
15.1884
 21
56.9941
  0
LINE
  8
0
 10
15.1884
 20
56.9941
 11
15.5621
 21
56.9469
  0
LINE
  8
0
 10
15.5621
 20
56.9469
 11
15.927
 21
56.8532
  0
LINE
  8
0
 10
15.927
 20
56.8532
 11
16.2773
 21
56.7145
  0
LINE
  8
0
 10
16.2773
 20
56.7145
 11
16.6075
 21
56.533
  0
LINE
  8
0
 10
16.6075
 20
56.533
 11
16.9123
 21
56.3116
  0
LINE
  8
0
 10
16.9123
 20
56.3116
 11
17.1869
 21
56.0536
  0
LINE
  8
0
 10
17.1869
 20
56.0536
 11
17.427
 21
55.7634
  0
LINE
  8
0
 10
17.427
 20
55.7634
 11
17.6289
 21
55.4453
  0
LINE
  8
0
 10
17.6289
 20
55.4453
 11
17.7893
 21
55.1044
  0
LINE
  8
0
 10
17.7893
 20
55.1044
 11
17.9057
 21
54.7461
  0
LINE
  8
0
 10
17.9057
 20
54.7461
 11
17.9763
 21
54.376
  0
LINE
  8
0
 10
17.9763
 20
54.376
 11
18
 21
54
  0
LINE
  8
0
 10
18
 20
54
 11
17.9763
 21
53.624
  0
LINE
  8
0
 10
17.9763
 20
53.624
 11
17.9057
 21
53.2539
  0
LINE
  8
0
 10
17.9057
 20
53.2539
 11
17.7893
 21
52.8956
  0
LINE
  8
0
 10
17.7893
 20
52.8956
 11
17.6289
 21
52.5547
  0
LINE
  8
0
 10
17.6289
 20
52.5547
 11
17.427
 21
52.2366
  0
LINE
  8
0
 10
17.427
 20
52.2366
 11
17.1869
 21
51.9464
  0
LINE
  8
0
 10
17.1869
 20
51.9464
 11
16.9123
 21
51.6885
  0
LINE
  8
0
 10
16.9123
 20
51.6885
 11
16.6075
 21
51.467
  0
LINE
  8
0
 10
16.6075
 20
51.467
 11
16.2773
 21
51.2855
  0
LINE
  8
0
 10
16.2773
 20
51.2855
 11
15.927
 21
51.1468
  0
LINE
  8
0
 10
15.927
 20
51.1468
 11
15.5621
 21
51.0531
  0
LINE
  8
0
 10
15.5621
 20
51.0531
 11
15.1884
 21
51.0059
  0
LINE
  8
0
 10
15.1884
 20
51.0059
 11
14.8116
 21
51.0059
  0
LINE
  8
0
 10
-30.1884
 20
51.0059
 11
-30.5621
 21
51.0531
  0
LINE
  8
0
 10
-30.5621
 20
51.0531
 11
-30.927
 21
51.1468
  0
LINE
  8
0
 10
-30.927
 20
51.1468
 11
-31.2773
 21
51.2855
  0
LINE
  8
0
 10
-31.2773
 20
51.2855
 11
-31.6075
 21
51.467
  0
LINE
  8
0
 10
-31.6075
 20
51.467
 11
-31.9123
 21
51.6885
  0
LINE
  8
0
 10
-31.9123
 20
51.6885
 11
-32.1869
 21
51.9464
  0
LINE
  8
0
 10
-32.1869
 20
51.9464
 11
-32.427
 21
52.2366
  0
LINE
  8
0
 10
-32.427
 20
52.2366
 11
-32.6289
 21
52.5547
  0
LINE
  8
0
 10
-32.6289
 20
52.5547
 11
-32.7893
 21
52.8956
  0
LINE
  8
0
 10
-32.7893
 20
52.8956
 11
-32.9057
 21
53.2539
  0
LINE
  8
0
 10
-32.9057
 20
53.2539
 11
-32.9763
 21
53.624
  0
LINE
  8
0
 10
-32.9763
 20
53.624
 11
-33
 21
54
  0
LINE
  8
0
 10
-33
 20
54
 11
-32.9763
 21
54.376
  0
LINE
  8
0
 10
-32.9763
 20
54.376
 11
-32.9057
 21
54.7461
  0
LINE
  8
0
 10
-32.9057
 20
54.7461
 11
-32.7893
 21
55.1044
  0
LINE
  8
0
 10
-32.7893
 20
55.1044
 11
-32.6289
 21
55.4453
  0
LINE
  8
0
 10
-32.6289
 20
55.4453
 11
-32.427
 21
55.7634
  0
LINE
  8
0
 10
-32.427
 20
55.7634
 11
-32.1869
 21
56.0536
  0
LINE
  8
0
 10
-32.1869
 20
56.0536
 11
-31.9123
 21
56.3116
  0
LINE
  8
0
 10
-31.9123
 20
56.3116
 11
-31.6075
 21
56.533
  0
LINE
  8
0
 10
-31.6075
 20
56.533
 11
-31.2773
 21
56.7145
  0
LINE
  8
0
 10
-31.2773
 20
56.7145
 11
-30.927
 21
56.8532
  0
LINE
  8
0
 10
-30.927
 20
56.8532
 11
-30.5621
 21
56.9469
  0
LINE
  8
0
 10
-30.5621
 20
56.9469
 11
-30.1884
 21
56.9941
  0
LINE
  8
0
 10
-30.1884
 20
56.9941
 11
-29.8116
 21
56.9941
  0
LINE
  8
0
 10
-29.8116
 20
56.9941
 11
-29.4379
 21
56.9469
  0
LINE
  8
0
 10
-29.4379
 20
56.9469
 11
-29.0729
 21
56.8532
  0
LINE
  8
0
 10
-29.0729
 20
56.8532
 11
-28.7227
 21
56.7145
  0
LINE
  8
0
 10
-28.7227
 20
56.7145
 11
-28.3925
 21
56.533
  0
LINE
  8
0
 10
-28.3925
 20
56.533
 11
-28.0877
 21
56.3116
  0
LINE
  8
0
 10
-28.0877
 20
56.3116
 11
-27.8131
 21
56.0536
  0
LINE
  8
0
 10
-27.8131
 20
56.0536
 11
-27.5729
 21
55.7634
  0
LINE
  8
0
 10
-27.5729
 20
55.7634
 11
-27.3711
 21
55.4453
  0
LINE
  8
0
 10
-27.3711
 20
55.4453
 11
-27.2107
 21
55.1044
  0
LINE
  8
0
 10
-27.2107
 20
55.1044
 11
-27.0942
 21
54.7461
  0
LINE
  8
0
 10
-27.0942
 20
54.7461
 11
-27.0237
 21
54.376
  0
LINE
  8
0
 10
-27.0237
 20
54.376
 11
-27
 21
54
  0
LINE
  8
0
 10
-27
 20
54
 11
-27.0237
 21
53.624
  0
LINE
  8
0
 10
-27.0237
 20
53.624
 11
-27.0942
 21
53.2539
  0
LINE
  8
0
 10
-27.0942
 20
53.2539
 11
-27.2107
 21
52.8956
  0
LINE
  8
0
 10
-27.2107
 20
52.8956
 11
-27.3711
 21
52.5547
  0
LINE
  8
0
 10
-27.3711
 20
52.5547
 11
-27.5729
 21
52.2366
  0
LINE
  8
0
 10
-27.5729
 20
52.2366
 11
-27.8131
 21
51.9464
  0
LINE
  8
0
 10
-27.8131
 20
51.9464
 11
-28.0877
 21
51.6885
  0
LINE
  8
0
 10
-28.0877
 20
51.6885
 11
-28.3925
 21
51.467
  0
LINE
  8
0
 10
-28.3925
 20
51.467
 11
-28.7227
 21
51.2855
  0
LINE
  8
0
 10
-28.7227
 20
51.2855
 11
-29.0729
 21
51.1468
  0
LINE
  8
0
 10
-29.0729
 20
51.1468
 11
-29.4379
 21
51.0531
  0
LINE
  8
0
 10
-29.4379
 20
51.0531
 11
-29.8116
 21
51.0059
  0
LINE
  8
0
 10
-29.8116
 20
51.0059
 11
-30.1884
 21
51.0059
  0
LINE
  8
0
 10
29.8116
 20
51.0059
 11
29.4379
 21
51.0531
  0
LINE
  8
0
 10
29.4379
 20
51.0531
 11
29.0729
 21
51.1468
  0
LINE
  8
0
 10
29.0729
 20
51.1468
 11
28.7227
 21
51.2855
  0
LINE
  8
0
 10
28.7227
 20
51.2855
 11
28.3925
 21
51.467
  0
LINE
  8
0
 10
28.3925
 20
51.467
 11
28.0877
 21
51.6885
  0
LINE
  8
0
 10
28.0877
 20
51.6885
 11
27.8131
 21
51.9464
  0
LINE
  8
0
 10
27.8131
 20
51.9464
 11
27.5729
 21
52.2366
  0
LINE
  8
0
 10
27.5729
 20
52.2366
 11
27.3711
 21
52.5547
  0
LINE
  8
0
 10
27.3711
 20
52.5547
 11
27.2107
 21
52.8956
  0
LINE
  8
0
 10
27.2107
 20
52.8956
 11
27.0942
 21
53.2539
  0
LINE
  8
0
 10
27.0942
 20
53.2539
 11
27.0237
 21
53.624
  0
LINE
  8
0
 10
27.0237
 20
53.624
 11
27
 21
54
  0
LINE
  8
0
 10
27
 20
54
 11
27.0237
 21
54.376
  0
LINE
  8
0
 10
27.0237
 20
54.376
 11
27.0942
 21
54.7461
  0
LINE
  8
0
 10
27.0942
 20
54.7461
 11
27.2107
 21
55.1044
  0
LINE
  8
0
 10
27.2107
 20
55.1044
 11
27.3711
 21
55.4453
  0
LINE
  8
0
 10
27.3711
 20
55.4453
 11
27.5729
 21
55.7634
  0
LINE
  8
0
 10
27.5729
 20
55.7634
 11
27.8131
 21
56.0536
  0
LINE
  8
0
 10
27.8131
 20
56.0536
 11
28.0877
 21
56.3116
  0
LINE
  8
0
 10
28.0877
 20
56.3116
 11
28.3925
 21
56.533
  0
LINE
  8
0
 10
28.3925
 20
56.533
 11
28.7227
 21
56.7145
  0
LINE
  8
0
 10
28.7227
 20
56.7145
 11
29.0729
 21
56.8532
  0
LINE
  8
0
 10
29.0729
 20
56.8532
 11
29.4379
 21
56.9469
  0
LINE
  8
0
 10
29.4379
 20
56.9469
 11
29.8116
 21
56.9941
  0
LINE
  8
0
 10
29.8116
 20
56.9941
 11
30.1884
 21
56.9941
  0
LINE
  8
0
 10
30.1884
 20
56.9941
 11
30.5621
 21
56.9469
  0
LINE
  8
0
 10
30.5621
 20
56.9469
 11
30.927
 21
56.8532
  0
LINE
  8
0
 10
30.927
 20
56.8532
 11
31.2773
 21
56.7145
  0
LINE
  8
0
 10
31.2773
 20
56.7145
 11
31.6075
 21
56.533
  0
LINE
  8
0
 10
31.6075
 20
56.533
 11
31.9123
 21
56.3116
  0
LINE
  8
0
 10
31.9123
 20
56.3116
 11
32.1869
 21
56.0536
  0
LINE
  8
0
 10
32.1869
 20
56.0536
 11
32.427
 21
55.7634
  0
LINE
  8
0
 10
32.427
 20
55.7634
 11
32.6289
 21
55.4453
  0
LINE
  8
0
 10
32.6289
 20
55.4453
 11
32.7893
 21
55.1044
  0
LINE
  8
0
 10
32.7893
 20
55.1044
 11
32.9057
 21
54.7461
  0
LINE
  8
0
 10
32.9057
 20
54.7461
 11
32.9763
 21
54.376
  0
LINE
  8
0
 10
32.9763
 20
54.376
 11
33
 21
54
  0
LINE
  8
0
 10
33
 20
54
 11
32.9763
 21
53.624
  0
LINE
  8
0
 10
32.9763
 20
53.624
 11
32.9057
 21
53.2539
  0
LINE
  8
0
 10
32.9057
 20
53.2539
 11
32.7893
 21
52.8956
  0
LINE
  8
0
 10
32.7893
 20
52.8956
 11
32.6289
 21
52.5547
  0
LINE
  8
0
 10
32.6289
 20
52.5547
 11
32.427
 21
52.2366
  0
LINE
  8
0
 10
32.427
 20
52.2366
 11
32.1869
 21
51.9464
  0
LINE
  8
0
 10
32.1869
 20
51.9464
 11
31.9123
 21
51.6885
  0
LINE
  8
0
 10
31.9123
 20
51.6885
 11
31.6075
 21
51.467
  0
LINE
  8
0
 10
31.6075
 20
51.467
 11
31.2773
 21
51.2855
  0
LINE
  8
0
 10
31.2773
 20
51.2855
 11
30.927
 21
51.1468
  0
LINE
  8
0
 10
30.927
 20
51.1468
 11
30.5621
 21
51.0531
  0
LINE
  8
0
 10
30.5621
 20
51.0531
 11
30.1884
 21
51.0059
  0
LINE
  8
0
 10
30.1884
 20
51.0059
 11
29.8116
 21
51.0059
  0
LINE
  8
0
 10
-0.18837
 20
51.0059
 11
-0.562134
 21
51.0531
  0
LINE
  8
0
 10
-0.562134
 20
51.0531
 11
-0.927048
 21
51.1468
  0
LINE
  8
0
 10
-0.927048
 20
51.1468
 11
-1.27733
 21
51.2855
  0
LINE
  8
0
 10
-1.27733
 20
51.2855
 11
-1.60747
 21
51.467
  0
LINE
  8
0
 10
-1.60747
 20
51.467
 11
-1.91226
 21
51.6885
  0
LINE
  8
0
 10
-1.91226
 20
51.6885
 11
-2.1869
 21
51.9464
  0
LINE
  8
0
 10
-2.1869
 20
51.9464
 11
-2.42705
 21
52.2366
  0
LINE
  8
0
 10
-2.42705
 20
52.2366
 11
-2.62891
 21
52.5547
  0
LINE
  8
0
 10
-2.62891
 20
52.5547
 11
-2.78932
 21
52.8956
  0
LINE
  8
0
 10
-2.78932
 20
52.8956
 11
-2.90575
 21
53.2539
  0
LINE
  8
0
 10
-2.90575
 20
53.2539
 11
-2.97633
 21
53.624
  0
LINE
  8
0
 10
-2.97633
 20
53.624
 11
-3
 21
54
  0
LINE
  8
0
 10
-3
 20
54
 11
-2.97633
 21
54.376
  0
LINE
  8
0
 10
-2.97633
 20
54.376
 11
-2.90575
 21
54.7461
  0
LINE
  8
0
 10
-2.90575
 20
54.7461
 11
-2.78932
 21
55.1044
  0
LINE
  8
0
 10
-2.78932
 20
55.1044
 11
-2.62891
 21
55.4453
  0
LINE
  8
0
 10
-2.62891
 20
55.4453
 11
-2.42705
 21
55.7634
  0
LINE
  8
0
 10
-2.42705
 20
55.7634
 11
-2.1869
 21
56.0536
  0
LINE
  8
0
 10
-2.1869
 20
56.0536
 11
-1.91226
 21
56.3116
  0
LINE
  8
0
 10
-1.91226
 20
56.3116
 11
-1.60747
 21
56.533
  0
LINE
  8
0
 10
-1.60747
 20
56.533
 11
-1.27733
 21
56.7145
  0
LINE
  8
0
 10
-1.27733
 20
56.7145
 11
-0.927048
 21
56.8532
  0
LINE
  8
0
 10
-0.927048
 20
56.8532
 11
-0.562134
 21
56.9469
  0
LINE
  8
0
 10
-0.562134
 20
56.9469
 11
-0.18837
 21
56.9941
  0
LINE
  8
0
 10
-0.18837
 20
56.9941
 11
0.18837
 21
56.9941
  0
LINE
  8
0
 10
0.18837
 20
56.9941
 11
0.562134
 21
56.9469
  0
LINE
  8
0
 10
0.562134
 20
56.9469
 11
0.927048
 21
56.8532
  0
LINE
  8
0
 10
0.927048
 20
56.8532
 11
1.27733
 21
56.7145
  0
LINE
  8
0
 10
1.27733
 20
56.7145
 11
1.60747
 21
56.533
  0
LINE
  8
0
 10
1.60747
 20
56.533
 11
1.91226
 21
56.3116
  0
LINE
  8
0
 10
1.91226
 20
56.3116
 11
2.1869
 21
56.0536
  0
LINE
  8
0
 10
2.1869
 20
56.0536
 11
2.42705
 21
55.7634
  0
LINE
  8
0
 10
2.42705
 20
55.7634
 11
2.62891
 21
55.4453
  0
LINE
  8
0
 10
2.62891
 20
55.4453
 11
2.78932
 21
55.1044
  0
LINE
  8
0
 10
2.78932
 20
55.1044
 11
2.90575
 21
54.7461
  0
LINE
  8
0
 10
2.90575
 20
54.7461
 11
2.97633
 21
54.376
  0
LINE
  8
0
 10
2.97633
 20
54.376
 11
3
 21
54
  0
LINE
  8
0
 10
3
 20
54
 11
2.97633
 21
53.624
  0
LINE
  8
0
 10
2.97633
 20
53.624
 11
2.90575
 21
53.2539
  0
LINE
  8
0
 10
2.90575
 20
53.2539
 11
2.78932
 21
52.8956
  0
LINE
  8
0
 10
2.78932
 20
52.8956
 11
2.62891
 21
52.5547
  0
LINE
  8
0
 10
2.62891
 20
52.5547
 11
2.42705
 21
52.2366
  0
LINE
  8
0
 10
2.42705
 20
52.2366
 11
2.1869
 21
51.9464
  0
LINE
  8
0
 10
2.1869
 20
51.9464
 11
1.91226
 21
51.6885
  0
LINE
  8
0
 10
1.91226
 20
51.6885
 11
1.60747
 21
51.467
  0
LINE
  8
0
 10
1.60747
 20
51.467
 11
1.27733
 21
51.2855
  0
LINE
  8
0
 10
1.27733
 20
51.2855
 11
0.927048
 21
51.1468
  0
LINE
  8
0
 10
0.927048
 20
51.1468
 11
0.562134
 21
51.0531
  0
LINE
  8
0
 10
0.562134
 20
51.0531
 11
0.18837
 21
51.0059
  0
LINE
  8
0
 10
0.18837
 20
51.0059
 11
-0.18837
 21
51.0059
  0
ENDSEC
  0
SECTION
  2
OBJECTS
  0
DICTIONARY
  0
ENDSEC
  0
EOF
