<?xml version="1.0" standalone="no"?>
<!DOCTYPE svg PUBLIC "-//W3C//DTD SVG 1.1//EN" "http://www.w3.org/Graphics/SVG/1.1/DTD/svg11.dtd">
<svg width="74mm" height="158mm" viewBox="-37 -205 74 158" xmlns="http://www.w3.org/2000/svg" version="1.1">
<title>OpenSCAD Model</title>
<path d="
M 32.9369,-131.089 L 33.5451,-131.245 L 34.1289,-131.476 L 34.6791,-131.778 L 35.1871,-132.147 L 35.6448,-132.577
 L 36.0451,-133.061 L 36.3815,-133.591 L 36.6489,-134.159 L 36.8429,-134.757 L 36.9606,-135.373 L 37,-136
 L 37,-200 L 36.9606,-200.627 L 36.8429,-201.243 L 36.6489,-201.841 L 36.3815,-202.409 L 36.0451,-202.939
 L 35.6448,-203.423 L 35.1871,-203.853 L 34.6791,-204.222 L 34.1289,-204.524 L 33.5451,-204.755 L 32.9369,-204.911
 L 32.3139,-204.99 L -32.3139,-204.99 L -32.9369,-204.911 L -33.5451,-204.755 L -34.1289,-204.524 L -34.6791,-204.222
 L -35.1871,-203.853 L -35.6448,-203.423 L -36.0451,-202.939 L -36.3815,-202.409 L -36.6489,-201.841 L -36.8429,-201.243
 L -36.9606,-200.627 L -37,-200 L -37,-136 L -36.9606,-135.373 L -36.8429,-134.757 L -36.6489,-134.159
 L -36.3815,-133.591 L -36.0451,-133.061 L -35.6448,-132.577 L -35.1871,-132.147 L -34.6791,-131.778 L -34.1289,-131.476
 L -33.5451,-131.245 L -32.9369,-131.089 L -32.3139,-131.01 L 32.3139,-131.01 z
M -15.1884,-195.006 L -15.5621,-195.053 L -15.927,-195.147 L -16.2773,-195.286 L -16.6075,-195.467 L -16.9123,-195.688
 L -17.1869,-195.946 L -17.427,-196.237 L -17.6289,-196.555 L -17.7893,-196.896 L -17.9057,-197.254 L -17.9763,-197.624
 L -18,-198 L -17.9763,-198.376 L -17.9057,-198.746 L -17.7893,-199.104 L -17.6289,-199.445 L -17.427,-199.763
 L -17.1869,-200.054 L -16.9123,-200.312 L -16.6075,-200.533 L -16.2773,-200.714 L -15.927,-200.853 L -15.5621,-200.947
 L -15.1884,-200.994 L -14.8116,-200.994 L -14.4379,-200.947 L -14.0729,-200.853 L -13.7227,-200.714 L -13.3925,-200.533
 L -13.0877,-200.312 L -12.8131,-200.054 L -12.5729,-199.763 L -12.3711,-199.445 L -12.2107,-199.104 L -12.0942,-198.746
 L -12.0237,-198.376 L -12,-198 L -12.0237,-197.624 L -12.0942,-197.254 L -12.2107,-196.896 L -12.3711,-196.555
 L -12.5729,-196.237 L -12.8131,-195.946 L -13.0877,-195.688 L -13.3925,-195.467 L -13.7227,-195.286 L -14.0729,-195.147
 L -14.4379,-195.053 L -14.8116,-195.006 z
M -0.18837,-195.006 L -0.562134,-195.053 L -0.927048,-195.147 L -1.27733,-195.286 L -1.60747,-195.467 L -1.91226,-195.688
 L -2.1869,-195.946 L -2.42705,-196.237 L -2.62891,-196.555 L -2.78932,-196.896 L -2.90575,-197.254 L -2.97633,-197.624
 L -3,-198 L -2.97633,-198.376 L -2.90575,-198.746 L -2.78932,-199.104 L -2.62891,-199.445 L -2.42705,-199.763
 L -2.1869,-200.054 L -1.91226,-200.312 L -1.60747,-200.533 L -1.27733,-200.714 L -0.927048,-200.853 L -0.562134,-200.947
 L -0.18837,-200.994 L 0.18837,-200.994 L 0.562134,-200.947 L 0.927048,-200.853 L 1.27733,-200.714 L 1.60747,-200.533
 L 1.91226,-200.312 L 2.1869,-200.054 L 2.42705,-199.763 L 2.62891,-199.445 L 2.78932,-199.104 L 2.90575,-198.746
 L 2.97633,-198.376 L 3,-198 L 2.97633,-197.624 L 2.90575,-197.254 L 2.78932,-196.896 L 2.62891,-196.555
 L 2.42705,-196.237 L 2.1869,-195.946 L 1.91226,-195.688 L 1.60747,-195.467 L 1.27733,-195.286 L 0.927048,-195.147
 L 0.562134,-195.053 L 0.18837,-195.006 z
M 29.8116,-195.006 L 29.4379,-195.053 L 29.0729,-195.147 L 28.7227,-195.286 L 28.3925,-195.467 L 28.0877,-195.688
 L 27.8131,-195.946 L 27.5729,-196.237 L 27.3711,-196.555 L 27.2107,-196.896 L 27.0942,-197.254 L 27.0237,-197.624
 L 27,-198 L 27.0237,-198.376 L 27.0942,-198.746 L 27.2107,-199.104 L 27.3711,-199.445 L 27.5729,-199.763
 L 27.8131,-200.054 L 28.0877,-200.312 L 28.3925,-200.533 L 28.7227,-200.714 L 29.0729,-200.853 L 29.4379,-200.947
 L 29.8116,-200.994 L 30.1884,-200.994 L 30.5621,-200.947 L 30.927,-200.853 L 31.2773,-200.714 L 31.6075,-200.533
 L 31.9123,-200.312 L 32.1869,-200.054 L 32.427,-199.763 L 32.6289,-199.445 L 32.7893,-199.104 L 32.9057,-198.746
 L 32.9763,-198.376 L 33,-198 L 32.9763,-197.624 L 32.9057,-197.254 L 32.7893,-196.896 L 32.6289,-196.555
 L 32.427,-196.237 L 32.1869,-195.946 L 31.9123,-195.688 L 31.6075,-195.467 L 31.2773,-195.286 L 30.927,-195.147
 L 30.5621,-195.053 L 30.1884,-195.006 z
M 14.8116,-195.006 L 14.4379,-195.053 L 14.0729,-195.147 L 13.7227,-195.286 L 13.3925,-195.467 L 13.0877,-195.688
 L 12.8131,-195.946 L 12.5729,-196.237 L 12.3711,-196.555 L 12.2107,-196.896 L 12.0942,-197.254 L 12.0237,-197.624
 L 12,-198 L 12.0237,-198.376 L 12.0942,-198.746 L 12.2107,-199.104 L 12.3711,-199.445 L 12.5729,-199.763
 L 12.8131,-200.054 L 13.0877,-200.312 L 13.3925,-200.533 L 13.7227,-200.714 L 14.0729,-200.853 L 14.4379,-200.947
 L 14.8116,-200.994 L 15.1884,-200.994 L 15.5621,-200.947 L 15.927,-200.853 L 16.2773,-200.714 L 16.6075,-200.533
 L 16.9123,-200.312 L 17.1869,-200.054 L 17.427,-199.763 L 17.6289,-199.445 L 17.7893,-199.104 L 17.9057,-198.746
 L 17.9763,-198.376 L 18,-198 L 17.9763,-197.624 L 17.9057,-197.254 L 17.7893,-196.896 L 17.6289,-196.555
 L 17.427,-196.237 L 17.1869,-195.946 L 16.9123,-195.688 L 16.6075,-195.467 L 16.2773,-195.286 L 15.927,-195.147
 L 15.5621,-195.053 L 15.1884,-195.006 z
M -30.1884,-195.006 L -30.5621,-195.053 L -30.927,-195.147 L -31.2773,-195.286 L -31.6075,-195.467 L -31.9123,-195.688
 L -32.1869,-195.946 L -32.427,-196.237 L -32.6289,-196.555 L -32.7893,-196.896 L -32.9057,-197.254 L -32.9763,-197.624
 L -33,-198 L -32.9763,-198.376 L -32.9057,-198.746 L -32.7893,-199.104 L -32.6289,-199.445 L -32.427,-199.763
 L -32.1869,-200.054 L -31.9123,-200.312 L -31.6075,-200.533 L -31.2773,-200.714 L -30.927,-200.853 L -30.5621,-200.947
 L -30.1884,-200.994 L -29.8116,-200.994 L -29.4379,-200.947 L -29.0729,-200.853 L -28.7227,-200.714 L -28.3925,-200.533
 L -28.0877,-200.312 L -27.8131,-200.054 L -27.5729,-199.763 L -27.3711,-199.445 L -27.2107,-199.104 L -27.0942,-198.746
 L -27.0237,-198.376 L -27,-198 L -27.0237,-197.624 L -27.0942,-197.254 L -27.2107,-196.896 L -27.3711,-196.555
 L -27.5729,-196.237 L -27.8131,-195.946 L -28.0877,-195.688 L -28.3925,-195.467 L -28.7227,-195.286 L -29.0729,-195.147
 L -29.4379,-195.053 L -29.8116,-195.006 z
M 14.8116,-180.006 L 14.4379,-180.053 L 14.0729,-180.147 L 13.7227,-180.286 L 13.3925,-180.467 L 13.0877,-180.688
 L 12.8131,-180.946 L 12.5729,-181.237 L 12.3711,-181.555 L 12.2107,-181.896 L 12.0942,-182.254 L 12.0237,-182.624
 L 12,-183 L 12.0237,-183.376 L 12.0942,-183.746 L 12.2107,-184.104 L 12.3711,-184.445 L 12.5729,-184.763
 L 12.8131,-185.054 L 13.0877,-185.312 L 13.3925,-185.533 L 13.7227,-185.714 L 14.0729,-185.853 L 14.4379,-185.947
 L 14.8116,-185.994 L 15.1884,-185.994 L 15.5621,-185.947 L 15.927,-185.853 L 16.2773,-185.714 L 16.6075,-185.533
 L 16.9123,-185.312 L 17.1869,-185.054 L 17.427,-184.763 L 17.6289,-184.445 L 17.7893,-184.104 L 17.9057,-183.746
 L 17.9763,-183.376 L 18,-183 L 17.9763,-182.624 L 17.9057,-182.254 L 17.7893,-181.896 L 17.6289,-181.555
 L 17.427,-181.237 L 17.1869,-180.946 L 16.9123,-180.688 L 16.6075,-180.467 L 16.2773,-180.286 L 15.927,-180.147
 L 15.5621,-180.053 L 15.1884,-180.006 z
M -0.18837,-180.006 L -0.562134,-180.053 L -0.927048,-180.147 L -1.27733,-180.286 L -1.60747,-180.467 L -1.91226,-180.688
 L -2.1869,-180.946 L -2.42705,-181.237 L -2.62891,-181.555 L -2.78932,-181.896 L -2.90575,-182.254 L -2.97633,-182.624
 L -3,-183 L -2.97633,-183.376 L -2.90575,-183.746 L -2.78932,-184.104 L -2.62891,-184.445 L -2.42705,-184.763
 L -2.1869,-185.054 L -1.91226,-185.312 L -1.60747,-185.533 L -1.27733,-185.714 L -0.927048,-185.853 L -0.562134,-185.947
 L -0.18837,-185.994 L 0.18837,-185.994 L 0.562134,-185.947 L 0.927048,-185.853 L 1.27733,-185.714 L 1.60747,-185.533
 L 1.91226,-185.312 L 2.1869,-185.054 L 2.42705,-184.763 L 2.62891,-184.445 L 2.78932,-184.104 L 2.90575,-183.746
 L 2.97633,-183.376 L 3,-183 L 2.97633,-182.624 L 2.90575,-182.254 L 2.78932,-181.896 L 2.62891,-181.555
 L 2.42705,-181.237 L 2.1869,-180.946 L 1.91226,-180.688 L 1.60747,-180.467 L 1.27733,-180.286 L 0.927048,-180.147
 L 0.562134,-180.053 L 0.18837,-180.006 z
M -30.1884,-180.006 L -30.5621,-180.053 L -30.927,-180.147 L -31.2773,-180.286 L -31.6075,-180.467 L -31.9123,-180.688
 L -32.1869,-180.946 L -32.427,-181.237 L -32.6289,-181.555 L -32.7893,-181.896 L -32.9057,-182.254 L -32.9763,-182.624
 L -33,-183 L -32.9763,-183.376 L -32.9057,-183.746 L -32.7893,-184.104 L -32.6289,-184.445 L -32.427,-184.763
 L -32.1869,-185.054 L -31.9123,-185.312 L -31.6075,-185.533 L -31.2773,-185.714 L -30.927,-185.853 L -30.5621,-185.947
 L -30.1884,-185.994 L -29.8116,-185.994 L -29.4379,-185.947 L -29.0729,-185.853 L -28.7227,-185.714 L -28.3925,-185.533
 L -28.0877,-185.312 L -27.8131,-185.054 L -27.5729,-184.763 L -27.3711,-184.445 L -27.2107,-184.104 L -27.0942,-183.746
 L -27.0237,-183.376 L -27,-183 L -27.0237,-182.624 L -27.0942,-182.254 L -27.2107,-181.896 L -27.3711,-181.555
 L -27.5729,-181.237 L -27.8131,-180.946 L -28.0877,-180.688 L -28.3925,-180.467 L -28.7227,-180.286 L -29.0729,-180.147
 L -29.4379,-180.053 L -29.8116,-180.006 z
M -15.1884,-180.006 L -15.5621,-180.053 L -15.927,-180.147 L -16.2773,-180.286 L -16.6075,-180.467 L -16.9123,-180.688
 L -17.1869,-180.946 L -17.427,-181.237 L -17.6289,-181.555 L -17.7893,-181.896 L -17.9057,-182.254 L -17.9763,-182.624
 L -18,-183 L -17.9763,-183.376 L -17.9057,-183.746 L -17.7893,-184.104 L -17.6289,-184.445 L -17.427,-184.763
 L -17.1869,-185.054 L -16.9123,-185.312 L -16.6075,-185.533 L -16.2773,-185.714 L -15.927,-185.853 L -15.5621,-185.947
 L -15.1884,-185.994 L -14.8116,-185.994 L -14.4379,-185.947 L -14.0729,-185.853 L -13.7227,-185.714 L -13.3925,-185.533
 L -13.0877,-185.312 L -12.8131,-185.054 L -12.5729,-184.763 L -12.3711,-184.445 L -12.2107,-184.104 L -12.0942,-183.746
 L -12.0237,-183.376 L -12,-183 L -12.0237,-182.624 L -12.0942,-182.254 L -12.2107,-181.896 L -12.3711,-181.555
 L -12.5729,-181.237 L -12.8131,-180.946 L -13.0877,-180.688 L -13.3925,-180.467 L -13.7227,-180.286 L -14.0729,-180.147
 L -14.4379,-180.053 L -14.8116,-180.006 z
M 29.8116,-180.006 L 29.4379,-180.053 L 29.0729,-180.147 L 28.7227,-180.286 L 28.3925,-180.467 L 28.0877,-180.688
 L 27.8131,-180.946 L 27.5729,-181.237 L 27.3711,-181.555 L 27.2107,-181.896 L 27.0942,-182.254 L 27.0237,-182.624
 L 27,-183 L 27.0237,-183.376 L 27.0942,-183.746 L 27.2107,-184.104 L 27.3711,-184.445 L 27.5729,-184.763
 L 27.8131,-185.054 L 28.0877,-185.312 L 28.3925,-185.533 L 28.7227,-185.714 L 29.0729,-185.853 L 29.4379,-185.947
 L 29.8116,-185.994 L 30.1884,-185.994 L 30.5621,-185.947 L 30.927,-185.853 L 31.2773,-185.714 L 31.6075,-185.533
 L 31.9123,-185.312 L 32.1869,-185.054 L 32.427,-184.763 L 32.6289,-184.445 L 32.7893,-184.104 L 32.9057,-183.746
 L 32.9763,-183.376 L 33,-183 L 32.9763,-182.624 L 32.9057,-182.254 L 32.7893,-181.896 L 32.6289,-181.555
 L 32.427,-181.237 L 32.1869,-180.946 L 31.9123,-180.688 L 31.6075,-180.467 L 31.2773,-180.286 L 30.927,-180.147
 L 30.5621,-180.053 L 30.1884,-180.006 z
M 29.8116,-165.006 L 29.4379,-165.053 L 29.0729,-165.147 L 28.7227,-165.286 L 28.3925,-165.467 L 28.0877,-165.688
 L 27.8131,-165.946 L 27.5729,-166.237 L 27.3711,-166.555 L 27.2107,-166.896 L 27.0942,-167.254 L 27.0237,-167.624
 L 27,-168 L 27.0237,-168.376 L 27.0942,-168.746 L 27.2107,-169.104 L 27.3711,-169.445 L 27.5729,-169.763
 L 27.8131,-170.054 L 28.0877,-170.312 L 28.3925,-170.533 L 28.7227,-170.714 L 29.0729,-170.853 L 29.4379,-170.947
 L 29.8116,-170.994 L 30.1884,-170.994 L 30.5621,-170.947 L 30.927,-170.853 L 31.2773,-170.714 L 31.6075,-170.533
 L 31.9123,-170.312 L 32.1869,-170.054 L 32.427,-169.763 L 32.6289,-169.445 L 32.7893,-169.104 L 32.9057,-168.746
 L 32.9763,-168.376 L 33,-168 L 32.9763,-167.624 L 32.9057,-167.254 L 32.7893,-166.896 L 32.6289,-166.555
 L 32.427,-166.237 L 32.1869,-165.946 L 31.9123,-165.688 L 31.6075,-165.467 L 31.2773,-165.286 L 30.927,-165.147
 L 30.5621,-165.053 L 30.1884,-165.006 z
M -30.1884,-165.006 L -30.5621,-165.053 L -30.927,-165.147 L -31.2773,-165.286 L -31.6075,-165.467 L -31.9123,-165.688
 L -32.1869,-165.946 L -32.427,-166.237 L -32.6289,-166.555 L -32.7893,-166.896 L -32.9057,-167.254 L -32.9763,-167.624
 L -33,-168 L -32.9763,-168.376 L -32.9057,-168.746 L -32.7893,-169.104 L -32.6289,-169.445 L -32.427,-169.763
 L -32.1869,-170.054 L -31.9123,-170.312 L -31.6075,-170.533 L -31.2773,-170.714 L -30.927,-170.853 L -30.5621,-170.947
 L -30.1884,-170.994 L -29.8116,-170.994 L -29.4379,-170.947 L -29.0729,-170.853 L -28.7227,-170.714 L -28.3925,-170.533
 L -28.0877,-170.312 L -27.8131,-170.054 L -27.5729,-169.763 L -27.3711,-169.445 L -27.2107,-169.104 L -27.0942,-168.746
 L -27.0237,-168.376 L -27,-168 L -27.0237,-167.624 L -27.0942,-167.254 L -27.2107,-166.896 L -27.3711,-166.555
 L -27.5729,-166.237 L -27.8131,-165.946 L -28.0877,-165.688 L -28.3925,-165.467 L -28.7227,-165.286 L -29.0729,-165.147
 L -29.4379,-165.053 L -29.8116,-165.006 z
M -15.1884,-165.006 L -15.5621,-165.053 L -15.927,-165.147 L -16.2773,-165.286 L -16.6075,-165.467 L -16.9123,-165.688
 L -17.1869,-165.946 L -17.427,-166.237 L -17.6289,-166.555 L -17.7893,-166.896 L -17.9057,-167.254 L -17.9763,-167.624
 L -18,-168 L -17.9763,-168.376 L -17.9057,-168.746 L -17.7893,-169.104 L -17.6289,-169.445 L -17.427,-169.763
 L -17.1869,-170.054 L -16.9123,-170.312 L -16.6075,-170.533 L -16.2773,-170.714 L -15.927,-170.853 L -15.5621,-170.947
 L -15.1884,-170.994 L -14.8116,-170.994 L -14.4379,-170.947 L -14.0729,-170.853 L -13.7227,-170.714 L -13.3925,-170.533
 L -13.0877,-170.312 L -12.8131,-170.054 L -12.5729,-169.763 L -12.3711,-169.445 L -12.2107,-169.104 L -12.0942,-168.746
 L -12.0237,-168.376 L -12,-168 L -12.0237,-167.624 L -12.0942,-167.254 L -12.2107,-166.896 L -12.3711,-166.555
 L -12.5729,-166.237 L -12.8131,-165.946 L -13.0877,-165.688 L -13.3925,-165.467 L -13.7227,-165.286 L -14.0729,-165.147
 L -14.4379,-165.053 L -14.8116,-165.006 z
M 14.8116,-165.006 L 14.4379,-165.053 L 14.0729,-165.147 L 13.7227,-165.286 L 13.3925,-165.467 L 13.0877,-165.688
 L 12.8131,-165.946 L 12.5729,-166.237 L 12.3711,-166.555 L 12.2107,-166.896 L 12.0942,-167.254 L 12.0237,-167.624
 L 12,-168 L 12.0237,-168.376 L 12.0942,-168.746 L 12.2107,-169.104 L 12.3711,-169.445 L 12.5729,-169.763
 L 12.8131,-170.054 L 13.0877,-170.312 L 13.3925,-170.533 L 13.7227,-170.714 L 14.0729,-170.853 L 14.4379,-170.947
 L 14.8116,-170.994 L 15.1884,-170.994 L 15.5621,-170.947 L 15.927,-170.853 L 16.2773,-170.714 L 16.6075,-170.533
 L 16.9123,-170.312 L 17.1869,-170.054 L 17.427,-169.763 L 17.6289,-169.445 L 17.7893,-169.104 L 17.9057,-168.746
 L 17.9763,-168.376 L 18,-168 L 17.9763,-167.624 L 17.9057,-167.254 L 17.7893,-166.896 L 17.6289,-166.555
 L 17.427,-166.237 L 17.1869,-165.946 L 16.9123,-165.688 L 16.6075,-165.467 L 16.2773,-165.286 L 15.927,-165.147
 L 15.5621,-165.053 L 15.1884,-165.006 z
M -0.18837,-165.006 L -0.562134,-165.053 L -0.927048,-165.147 L -1.27733,-165.286 L -1.60747,-165.467 L -1.91226,-165.688
 L -2.1869,-165.946 L -2.42705,-166.237 L -2.62891,-166.555 L -2.78932,-166.896 L -2.90575,-167.254 L -2.97633,-167.624
 L -3,-168 L -2.97633,-168.376 L -2.90575,-168.746 L -2.78932,-169.104 L -2.62891,-169.445 L -2.42705,-169.763
 L -2.1869,-170.054 L -1.91226,-170.312 L -1.60747,-170.533 L -1.27733,-170.714 L -0.927048,-170.853 L -0.562134,-170.947
 L -0.18837,-170.994 L 0.18837,-170.994 L 0.562134,-170.947 L 0.927048,-170.853 L 1.27733,-170.714 L 1.60747,-170.533
 L 1.91226,-170.312 L 2.1869,-170.054 L 2.42705,-169.763 L 2.62891,-169.445 L 2.78932,-169.104 L 2.90575,-168.746
 L 2.97633,-168.376 L 3,-168 L 2.97633,-167.624 L 2.90575,-167.254 L 2.78932,-166.896 L 2.62891,-166.555
 L 2.42705,-166.237 L 2.1869,-165.946 L 1.91226,-165.688 L 1.60747,-165.467 L 1.27733,-165.286 L 0.927048,-165.147
 L 0.562134,-165.053 L 0.18837,-165.006 z
M 14.8116,-150.006 L 14.4379,-150.053 L 14.0729,-150.147 L 13.7227,-150.286 L 13.3925,-150.467 L 13.0877,-150.688
 L 12.8131,-150.946 L 12.5729,-151.237 L 12.3711,-151.555 L 12.2107,-151.896 L 12.0942,-152.254 L 12.0237,-152.624
 L 12,-153 L 12.0237,-153.376 L 12.0942,-153.746 L 12.2107,-154.104 L 12.3711,-154.445 L 12.5729,-154.763
 L 12.8131,-155.054 L 13.0877,-155.312 L 13.3925,-155.533 L 13.7227,-155.714 L 14.0729,-155.853 L 14.4379,-155.947
 L 14.8116,-155.994 L 15.1884,-155.994 L 15.5621,-155.947 L 15.927,-155.853 L 16.2773,-155.714 L 16.6075,-155.533
 L 16.9123,-155.312 L 17.1869,-155.054 L 17.427,-154.763 L 17.6289,-154.445 L 17.7893,-154.104 L 17.9057,-153.746
 L 17.9763,-153.376 L 18,-153 L 17.9763,-152.624 L 17.9057,-152.254 L 17.7893,-151.896 L 17.6289,-151.555
 L 17.427,-151.237 L 17.1869,-150.946 L 16.9123,-150.688 L 16.6075,-150.467 L 16.2773,-150.286 L 15.927,-150.147
 L 15.5621,-150.053 L 15.1884,-150.006 z
M -0.18837,-150.006 L -0.562134,-150.053 L -0.927048,-150.147 L -1.27733,-150.286 L -1.60747,-150.467 L -1.91226,-150.688
 L -2.1869,-150.946 L -2.42705,-151.237 L -2.62891,-151.555 L -2.78932,-151.896 L -2.90575,-152.254 L -2.97633,-152.624
 L -3,-153 L -2.97633,-153.376 L -2.90575,-153.746 L -2.78932,-154.104 L -2.62891,-154.445 L -2.42705,-154.763
 L -2.1869,-155.054 L -1.91226,-155.312 L -1.60747,-155.533 L -1.27733,-155.714 L -0.927048,-155.853 L -0.562134,-155.947
 L -0.18837,-155.994 L 0.18837,-155.994 L 0.562134,-155.947 L 0.927048,-155.853 L 1.27733,-155.714 L 1.60747,-155.533
 L 1.91226,-155.312 L 2.1869,-155.054 L 2.42705,-154.763 L 2.62891,-154.445 L 2.78932,-154.104 L 2.90575,-153.746
 L 2.97633,-153.376 L 3,-153 L 2.97633,-152.624 L 2.90575,-152.254 L 2.78932,-151.896 L 2.62891,-151.555
 L 2.42705,-151.237 L 2.1869,-150.946 L 1.91226,-150.688 L 1.60747,-150.467 L 1.27733,-150.286 L 0.927048,-150.147
 L 0.562134,-150.053 L 0.18837,-150.006 z
M 29.8116,-150.006 L 29.4379,-150.053 L 29.0729,-150.147 L 28.7227,-150.286 L 28.3925,-150.467 L 28.0877,-150.688
 L 27.8131,-150.946 L 27.5729,-151.237 L 27.3711,-151.555 L 27.2107,-151.896 L 27.0942,-152.254 L 27.0237,-152.624
 L 27,-153 L 27.0237,-153.376 L 27.0942,-153.746 L 27.2107,-154.104 L 27.3711,-154.445 L 27.5729,-154.763
 L 27.8131,-155.054 L 28.0877,-155.312 L 28.3925,-155.533 L 28.7227,-155.714 L 29.0729,-155.853 L 29.4379,-155.947
 L 29.8116,-155.994 L 30.1884,-155.994 L 30.5621,-155.947 L 30.927,-155.853 L 31.2773,-155.714 L 31.6075,-155.533
 L 31.9123,-155.312 L 32.1869,-155.054 L 32.427,-154.763 L 32.6289,-154.445 L 32.7893,-154.104 L 32.9057,-153.746
 L 32.9763,-153.376 L 33,-153 L 32.9763,-152.624 L 32.9057,-152.254 L 32.7893,-151.896 L 32.6289,-151.555
 L 32.427,-151.237 L 32.1869,-150.946 L 31.9123,-150.688 L 31.6075,-150.467 L 31.2773,-150.286 L 30.927,-150.147
 L 30.5621,-150.053 L 30.1884,-150.006 z
M -15.1884,-150.006 L -15.5621,-150.053 L -15.927,-150.147 L -16.2773,-150.286 L -16.6075,-150.467 L -16.9123,-150.688
 L -17.1869,-150.946 L -17.427,-151.237 L -17.6289,-151.555 L -17.7893,-151.896 L -17.9057,-152.254 L -17.9763,-152.624
 L -18,-153 L -17.9763,-153.376 L -17.9057,-153.746 L -17.7893,-154.104 L -17.6289,-154.445 L -17.427,-154.763
 L -17.1869,-155.054 L -16.9123,-155.312 L -16.6075,-155.533 L -16.2773,-155.714 L -15.927,-155.853 L -15.5621,-155.947
 L -15.1884,-155.994 L -14.8116,-155.994 L -14.4379,-155.947 L -14.0729,-155.853 L -13.7227,-155.714 L -13.3925,-155.533
 L -13.0877,-155.312 L -12.8131,-155.054 L -12.5729,-154.763 L -12.3711,-154.445 L -12.2107,-154.104 L -12.0942,-153.746
 L -12.0237,-153.376 L -12,-153 L -12.0237,-152.624 L -12.0942,-152.254 L -12.2107,-151.896 L -12.3711,-151.555
 L -12.5729,-151.237 L -12.8131,-150.946 L -13.0877,-150.688 L -13.3925,-150.467 L -13.7227,-150.286 L -14.0729,-150.147
 L -14.4379,-150.053 L -14.8116,-150.006 z
M -30.1884,-150.006 L -30.5621,-150.053 L -30.927,-150.147 L -31.2773,-150.286 L -31.6075,-150.467 L -31.9123,-150.688
 L -32.1869,-150.946 L -32.427,-151.237 L -32.6289,-151.555 L -32.7893,-151.896 L -32.9057,-152.254 L -32.9763,-152.624
 L -33,-153 L -32.9763,-153.376 L -32.9057,-153.746 L -32.7893,-154.104 L -32.6289,-154.445 L -32.427,-154.763
 L -32.1869,-155.054 L -31.9123,-155.312 L -31.6075,-155.533 L -31.2773,-155.714 L -30.927,-155.853 L -30.5621,-155.947
 L -30.1884,-155.994 L -29.8116,-155.994 L -29.4379,-155.947 L -29.0729,-155.853 L -28.7227,-155.714 L -28.3925,-155.533
 L -28.0877,-155.312 L -27.8131,-155.054 L -27.5729,-154.763 L -27.3711,-154.445 L -27.2107,-154.104 L -27.0942,-153.746
 L -27.0237,-153.376 L -27,-153 L -27.0237,-152.624 L -27.0942,-152.254 L -27.2107,-151.896 L -27.3711,-151.555
 L -27.5729,-151.237 L -27.8131,-150.946 L -28.0877,-150.688 L -28.3925,-150.467 L -28.7227,-150.286 L -29.0729,-150.147
 L -29.4379,-150.053 L -29.8116,-150.006 z
M -15.1884,-135.006 L -15.5621,-135.053 L -15.927,-135.147 L -16.2773,-135.286 L -16.6075,-135.467 L -16.9123,-135.688
 L -17.1869,-135.946 L -17.427,-136.237 L -17.6289,-136.555 L -17.7893,-136.896 L -17.9057,-137.254 L -17.9763,-137.624
 L -18,-138 L -17.9763,-138.376 L -17.9057,-138.746 L -17.7893,-139.104 L -17.6289,-139.445 L -17.427,-139.763
 L -17.1869,-140.054 L -16.9123,-140.312 L -16.6075,-140.533 L -16.2773,-140.714 L -15.927,-140.853 L -15.5621,-140.947
 L -15.1884,-140.994 L -14.8116,-140.994 L -14.4379,-140.947 L -14.0729,-140.853 L -13.7227,-140.714 L -13.3925,-140.533
 L -13.0877,-140.312 L -12.8131,-140.054 L -12.5729,-139.763 L -12.3711,-139.445 L -12.2107,-139.104 L -12.0942,-138.746
 L -12.0237,-138.376 L -12,-138 L -12.0237,-137.624 L -12.0942,-137.254 L -12.2107,-136.896 L -12.3711,-136.555
 L -12.5729,-136.237 L -12.8131,-135.946 L -13.0877,-135.688 L -13.3925,-135.467 L -13.7227,-135.286 L -14.0729,-135.147
 L -14.4379,-135.053 L -14.8116,-135.006 z
M 14.8116,-135.006 L 14.4379,-135.053 L 14.0729,-135.147 L 13.7227,-135.286 L 13.3925,-135.467 L 13.0877,-135.688
 L 12.8131,-135.946 L 12.5729,-136.237 L 12.3711,-136.555 L 12.2107,-136.896 L 12.0942,-137.254 L 12.0237,-137.624
 L 12,-138 L 12.0237,-138.376 L 12.0942,-138.746 L 12.2107,-139.104 L 12.3711,-139.445 L 12.5729,-139.763
 L 12.8131,-140.054 L 13.0877,-140.312 L 13.3925,-140.533 L 13.7227,-140.714 L 14.0729,-140.853 L 14.4379,-140.947
 L 14.8116,-140.994 L 15.1884,-140.994 L 15.5621,-140.947 L 15.927,-140.853 L 16.2773,-140.714 L 16.6075,-140.533
 L 16.9123,-140.312 L 17.1869,-140.054 L 17.427,-139.763 L 17.6289,-139.445 L 17.7893,-139.104 L 17.9057,-138.746
 L 17.9763,-138.376 L 18,-138 L 17.9763,-137.624 L 17.9057,-137.254 L 17.7893,-136.896 L 17.6289,-136.555
 L 17.427,-136.237 L 17.1869,-135.946 L 16.9123,-135.688 L 16.6075,-135.467 L 16.2773,-135.286 L 15.927,-135.147
 L 15.5621,-135.053 L 15.1884,-135.006 z
M -30.1884,-135.006 L -30.5621,-135.053 L -30.927,-135.147 L -31.2773,-135.286 L -31.6075,-135.467 L -31.9123,-135.688
 L -32.1869,-135.946 L -32.427,-136.237 L -32.6289,-136.555 L -32.7893,-136.896 L -32.9057,-137.254 L -32.9763,-137.624
 L -33,-138 L -32.9763,-138.376 L -32.9057,-138.746 L -32.7893,-139.104 L -32.6289,-139.445 L -32.427,-139.763
 L -32.1869,-140.054 L -31.9123,-140.312 L -31.6075,-140.533 L -31.2773,-140.714 L -30.927,-140.853 L -30.5621,-140.947
 L -30.1884,-140.994 L -29.8116,-140.994 L -29.4379,-140.947 L -29.0729,-140.853 L -28.7227,-140.714 L -28.3925,-140.533
 L -28.0877,-140.312 L -27.8131,-140.054 L -27.5729,-139.763 L -27.3711,-139.445 L -27.2107,-139.104 L -27.0942,-138.746
 L -27.0237,-138.376 L -27,-138 L -27.0237,-137.624 L -27.0942,-137.254 L -27.2107,-136.896 L -27.3711,-136.555
 L -27.5729,-136.237 L -27.8131,-135.946 L -28.0877,-135.688 L -28.3925,-135.467 L -28.7227,-135.286 L -29.0729,-135.147
 L -29.4379,-135.053 L -29.8116,-135.006 z
M -0.18837,-135.006 L -0.562134,-135.053 L -0.927048,-135.147 L -1.27733,-135.286 L -1.60747,-135.467 L -1.91226,-135.688
 L -2.1869,-135.946 L -2.42705,-136.237 L -2.62891,-136.555 L -2.78932,-136.896 L -2.90575,-137.254 L -2.97633,-137.624
 L -3,-138 L -2.97633,-138.376 L -2.90575,-138.746 L -2.78932,-139.104 L -2.62891,-139.445 L -2.42705,-139.763
 L -2.1869,-140.054 L -1.91226,-140.312 L -1.60747,-140.533 L -1.27733,-140.714 L -0.927048,-140.853 L -0.562134,-140.947
 L -0.18837,-140.994 L 0.18837,-140.994 L 0.562134,-140.947 L 0.927048,-140.853 L 1.27733,-140.714 L 1.60747,-140.533
 L 1.91226,-140.312 L 2.1869,-140.054 L 2.42705,-139.763 L 2.62891,-139.445 L 2.78932,-139.104 L 2.90575,-138.746
 L 2.97633,-138.376 L 3,-138 L 2.97633,-137.624 L 2.90575,-137.254 L 2.78932,-136.896 L 2.62891,-136.555
 L 2.42705,-136.237 L 2.1869,-135.946 L 1.91226,-135.688 L 1.60747,-135.467 L 1.27733,-135.286 L 0.927048,-135.147
 L 0.562134,-135.053 L 0.18837,-135.006 z
M 29.8116,-135.006 L 29.4379,-135.053 L 29.0729,-135.147 L 28.7227,-135.286 L 28.3925,-135.467 L 28.0877,-135.688
 L 27.8131,-135.946 L 27.5729,-136.237 L 27.3711,-136.555 L 27.2107,-136.896 L 27.0942,-137.254 L 27.0237,-137.624
 L 27,-138 L 27.0237,-138.376 L 27.0942,-138.746 L 27.2107,-139.104 L 27.3711,-139.445 L 27.5729,-139.763
 L 27.8131,-140.054 L 28.0877,-140.312 L 28.3925,-140.533 L 28.7227,-140.714 L 29.0729,-140.853 L 29.4379,-140.947
 L 29.8116,-140.994 L 30.1884,-140.994 L 30.5621,-140.947 L 30.927,-140.853 L 31.2773,-140.714 L 31.6075,-140.533
 L 31.9123,-140.312 L 32.1869,-140.054 L 32.427,-139.763 L 32.6289,-139.445 L 32.7893,-139.104 L 32.9057,-138.746
 L 32.9763,-138.376 L 33,-138 L 32.9763,-137.624 L 32.9057,-137.254 L 32.7893,-136.896 L 32.6289,-136.555
 L 32.427,-136.237 L 32.1869,-135.946 L 31.9123,-135.688 L 31.6075,-135.467 L 31.2773,-135.286 L 30.927,-135.147
 L 30.5621,-135.053 L 30.1884,-135.006 z
M 32.9369,-47.0886 L 33.5451,-47.2447 L 34.1289,-47.4759 L 34.6791,-47.7784 L 35.1871,-48.1474 L 35.6448,-48.5773
 L 36.0451,-49.0611 L 36.3815,-49.5912 L 36.6489,-50.1594 L 36.8429,-50.7566 L 36.9606,-51.3733 L 37,-52
 L 37,-116 L 36.9606,-116.627 L 36.8429,-117.243 L 36.6489,-117.841 L 36.3815,-118.409 L 36.0451,-118.939
 L 35.6448,-119.423 L 35.1871,-119.853 L 34.6791,-120.222 L 34.1289,-120.524 L 33.5451,-120.755 L 32.9369,-120.911
 L 32.3139,-120.99 L -32.3139,-120.99 L -32.9369,-120.911 L -33.5451,-120.755 L -34.1289,-120.524 L -34.6791,-120.222
 L -35.1871,-119.853 L -35.6448,-119.423 L -36.0451,-118.939 L -36.3815,-118.409 L -36.6489,-117.841 L -36.8429,-117.243
 L -36.9606,-116.627 L -37,-116 L -37,-52 L -36.9606,-51.3733 L -36.8429,-50.7566 L -36.6489,-50.1594
 L -36.3815,-49.5912 L -36.0451,-49.0611 L -35.6448,-48.5773 L -35.1871,-48.1474 L -34.6791,-47.7784 L -34.1289,-47.4759
 L -33.5451,-47.2447 L -32.9369,-47.0886 L -32.3139,-47.0099 L 32.3139,-47.0099 z
M 29.8116,-111.006 L 29.4379,-111.053 L 29.0729,-111.147 L 28.7227,-111.286 L 28.3925,-111.467 L 28.0877,-111.688
 L 27.8131,-111.946 L 27.5729,-112.237 L 27.3711,-112.555 L 27.2107,-112.896 L 27.0942,-113.254 L 27.0237,-113.624
 L 27,-114 L 27.0237,-114.376 L 27.0942,-114.746 L 27.2107,-115.104 L 27.3711,-115.445 L 27.5729,-115.763
 L 27.8131,-116.054 L 28.0877,-116.312 L 28.3925,-116.533 L 28.7227,-116.714 L 29.0729,-116.853 L 29.4379,-116.947
 L 29.8116,-116.994 L 30.1884,-116.994 L 30.5621,-116.947 L 30.927,-116.853 L 31.2773,-116.714 L 31.6075,-116.533
 L 31.9123,-116.312 L 32.1869,-116.054 L 32.427,-115.763 L 32.6289,-115.445 L 32.7893,-115.104 L 32.9057,-114.746
 L 32.9763,-114.376 L 33,-114 L 32.9763,-113.624 L 32.9057,-113.254 L 32.7893,-112.896 L 32.6289,-112.555
 L 32.427,-112.237 L 32.1869,-111.946 L 31.9123,-111.688 L 31.6075,-111.467 L 31.2773,-111.286 L 30.927,-111.147
 L 30.5621,-111.053 L 30.1884,-111.006 z
M -0.18837,-111.006 L -0.562134,-111.053 L -0.927048,-111.147 L -1.27733,-111.286 L -1.60747,-111.467 L -1.91226,-111.688
 L -2.1869,-111.946 L -2.42705,-112.237 L -2.62891,-112.555 L -2.78932,-112.896 L -2.90575,-113.254 L -2.97633,-113.624
 L -3,-114 L -2.97633,-114.376 L -2.90575,-114.746 L -2.78932,-115.104 L -2.62891,-115.445 L -2.42705,-115.763
 L -2.1869,-116.054 L -1.91226,-116.312 L -1.60747,-116.533 L -1.27733,-116.714 L -0.927048,-116.853 L -0.562134,-116.947
 L -0.18837,-116.994 L 0.18837,-116.994 L 0.562134,-116.947 L 0.927048,-116.853 L 1.27733,-116.714 L 1.60747,-116.533
 L 1.91226,-116.312 L 2.1869,-116.054 L 2.42705,-115.763 L 2.62891,-115.445 L 2.78932,-115.104 L 2.90575,-114.746
 L 2.97633,-114.376 L 3,-114 L 2.97633,-113.624 L 2.90575,-113.254 L 2.78932,-112.896 L 2.62891,-112.555
 L 2.42705,-112.237 L 2.1869,-111.946 L 1.91226,-111.688 L 1.60747,-111.467 L 1.27733,-111.286 L 0.927048,-111.147
 L 0.562134,-111.053 L 0.18837,-111.006 z
M 14.8116,-111.006 L 14.4379,-111.053 L 14.0729,-111.147 L 13.7227,-111.286 L 13.3925,-111.467 L 13.0877,-111.688
 L 12.8131,-111.946 L 12.5729,-112.237 L 12.3711,-112.555 L 12.2107,-112.896 L 12.0942,-113.254 L 12.0237,-113.624
 L 12,-114 L 12.0237,-114.376 L 12.0942,-114.746 L 12.2107,-115.104 L 12.3711,-115.445 L 12.5729,-115.763
 L 12.8131,-116.054 L 13.0877,-116.312 L 13.3925,-116.533 L 13.7227,-116.714 L 14.0729,-116.853 L 14.4379,-116.947
 L 14.8116,-116.994 L 15.1884,-116.994 L 15.5621,-116.947 L 15.927,-116.853 L 16.2773,-116.714 L 16.6075,-116.533
 L 16.9123,-116.312 L 17.1869,-116.054 L 17.427,-115.763 L 17.6289,-115.445 L 17.7893,-115.104 L 17.9057,-114.746
 L 17.9763,-114.376 L 18,-114 L 17.9763,-113.624 L 17.9057,-113.254 L 17.7893,-112.896 L 17.6289,-112.555
 L 17.427,-112.237 L 17.1869,-111.946 L 16.9123,-111.688 L 16.6075,-111.467 L 16.2773,-111.286 L 15.927,-111.147
 L 15.5621,-111.053 L 15.1884,-111.006 z
M -15.1884,-111.006 L -15.5621,-111.053 L -15.927,-111.147 L -16.2773,-111.286 L -16.6075,-111.467 L -16.9123,-111.688
 L -17.1869,-111.946 L -17.427,-112.237 L -17.6289,-112.555 L -17.7893,-112.896 L -17.9057,-113.254 L -17.9763,-113.624
 L -18,-114 L -17.9763,-114.376 L -17.9057,-114.746 L -17.7893,-115.104 L -17.6289,-115.445 L -17.427,-115.763
 L -17.1869,-116.054 L -16.9123,-116.312 L -16.6075,-116.533 L -16.2773,-116.714 L -15.927,-116.853 L -15.5621,-116.947
 L -15.1884,-116.994 L -14.8116,-116.994 L -14.4379,-116.947 L -14.0729,-116.853 L -13.7227,-116.714 L -13.3925,-116.533
 L -13.0877,-116.312 L -12.8131,-116.054 L -12.5729,-115.763 L -12.3711,-115.445 L -12.2107,-115.104 L -12.0942,-114.746
 L -12.0237,-114.376 L -12,-114 L -12.0237,-113.624 L -12.0942,-113.254 L -12.2107,-112.896 L -12.3711,-112.555
 L -12.5729,-112.237 L -12.8131,-111.946 L -13.0877,-111.688 L -13.3925,-111.467 L -13.7227,-111.286 L -14.0729,-111.147
 L -14.4379,-111.053 L -14.8116,-111.006 z
M -30.1884,-111.006 L -30.5621,-111.053 L -30.927,-111.147 L -31.2773,-111.286 L -31.6075,-111.467 L -31.9123,-111.688
 L -32.1869,-111.946 L -32.427,-112.237 L -32.6289,-112.555 L -32.7893,-112.896 L -32.9057,-113.254 L -32.9763,-113.624
 L -33,-114 L -32.9763,-114.376 L -32.9057,-114.746 L -32.7893,-115.104 L -32.6289,-115.445 L -32.427,-115.763
 L -32.1869,-116.054 L -31.9123,-116.312 L -31.6075,-116.533 L -31.2773,-116.714 L -30.927,-116.853 L -30.5621,-116.947
 L -30.1884,-116.994 L -29.8116,-116.994 L -29.4379,-116.947 L -29.0729,-116.853 L -28.7227,-116.714 L -28.3925,-116.533
 L -28.0877,-116.312 L -27.8131,-116.054 L -27.5729,-115.763 L -27.3711,-115.445 L -27.2107,-115.104 L -27.0942,-114.746
 L -27.0237,-114.376 L -27,-114 L -27.0237,-113.624 L -27.0942,-113.254 L -27.2107,-112.896 L -27.3711,-112.555
 L -27.5729,-112.237 L -27.8131,-111.946 L -28.0877,-111.688 L -28.3925,-111.467 L -28.7227,-111.286 L -29.0729,-111.147
 L -29.4379,-111.053 L -29.8116,-111.006 z
M -30.1884,-96.0059 L -30.5621,-96.0531 L -30.927,-96.1468 L -31.2773,-96.2855 L -31.6075,-96.467 L -31.9123,-96.6884
 L -32.1869,-96.9464 L -32.427,-97.2366 L -32.6289,-97.5547 L -32.7893,-97.8956 L -32.9057,-98.2539 L -32.9763,-98.624
 L -33,-99 L -32.9763,-99.376 L -32.9057,-99.7461 L -32.7893,-100.104 L -32.6289,-100.445 L -32.427,-100.763
 L -32.1869,-101.054 L -31.9123,-101.312 L -31.6075,-101.533 L -31.2773,-101.714 L -30.927,-101.853 L -30.5621,-101.947
 L -30.1884,-101.994 L -29.8116,-101.994 L -29.4379,-101.947 L -29.0729,-101.853 L -28.7227,-101.714 L -28.3925,-101.533
 L -28.0877,-101.312 L -27.8131,-101.054 L -27.5729,-100.763 L -27.3711,-100.445 L -27.2107,-100.104 L -27.0942,-99.7461
 L -27.0237,-99.376 L -27,-99 L -27.0237,-98.624 L -27.0942,-98.2539 L -27.2107,-97.8956 L -27.3711,-97.5547
 L -27.5729,-97.2366 L -27.8131,-96.9464 L -28.0877,-96.6884 L -28.3925,-96.467 L -28.7227,-96.2855 L -29.0729,-96.1468
 L -29.4379,-96.0531 L -29.8116,-96.0059 z
M -15.1884,-96.0059 L -15.5621,-96.0531 L -15.927,-96.1468 L -16.2773,-96.2855 L -16.6075,-96.467 L -16.9123,-96.6884
 L -17.1869,-96.9464 L -17.427,-97.2366 L -17.6289,-97.5547 L -17.7893,-97.8956 L -17.9057,-98.2539 L -17.9763,-98.624
 L -18,-99 L -17.9763,-99.376 L -17.9057,-99.7461 L -17.7893,-100.104 L -17.6289,-100.445 L -17.427,-100.763
 L -17.1869,-101.054 L -16.9123,-101.312 L -16.6075,-101.533 L -16.2773,-101.714 L -15.927,-101.853 L -15.5621,-101.947
 L -15.1884,-101.994 L -14.8116,-101.994 L -14.4379,-101.947 L -14.0729,-101.853 L -13.7227,-101.714 L -13.3925,-101.533
 L -13.0877,-101.312 L -12.8131,-101.054 L -12.5729,-100.763 L -12.3711,-100.445 L -12.2107,-100.104 L -12.0942,-99.7461
 L -12.0237,-99.376 L -12,-99 L -12.0237,-98.624 L -12.0942,-98.2539 L -12.2107,-97.8956 L -12.3711,-97.5547
 L -12.5729,-97.2366 L -12.8131,-96.9464 L -13.0877,-96.6884 L -13.3925,-96.467 L -13.7227,-96.2855 L -14.0729,-96.1468
 L -14.4379,-96.0531 L -14.8116,-96.0059 z
M -0.18837,-96.0059 L -0.562134,-96.0531 L -0.927048,-96.1468 L -1.27733,-96.2855 L -1.60747,-96.467 L -1.91226,-96.6884
 L -2.1869,-96.9464 L -2.42705,-97.2366 L -2.62891,-97.5547 L -2.78932,-97.8956 L -2.90575,-98.2539 L -2.97633,-98.624
 L -3,-99 L -2.97633,-99.376 L -2.90575,-99.7461 L -2.78932,-100.104 L -2.62891,-100.445 L -2.42705,-100.763
 L -2.1869,-101.054 L -1.91226,-101.312 L -1.60747,-101.533 L -1.27733,-101.714 L -0.927048,-101.853 L -0.562134,-101.947
 L -0.18837,-101.994 L 0.18837,-101.994 L 0.562134,-101.947 L 0.927048,-101.853 L 1.27733,-101.714 L 1.60747,-101.533
 L 1.91226,-101.312 L 2.1869,-101.054 L 2.42705,-100.763 L 2.62891,-100.445 L 2.78932,-100.104 L 2.90575,-99.7461
 L 2.97633,-99.376 L 3,-99 L 2.97633,-98.624 L 2.90575,-98.2539 L 2.78932,-97.8956 L 2.62891,-97.5547
 L 2.42705,-97.2366 L 2.1869,-96.9464 L 1.91226,-96.6884 L 1.60747,-96.467 L 1.27733,-96.2855 L 0.927048,-96.1468
 L 0.562134,-96.0531 L 0.18837,-96.0059 z
M 14.8116,-96.0059 L 14.4379,-96.0531 L 14.0729,-96.1468 L 13.7227,-96.2855 L 13.3925,-96.467 L 13.0877,-96.6884
 L 12.8131,-96.9464 L 12.5729,-97.2366 L 12.3711,-97.5547 L 12.2107,-97.8956 L 12.0942,-98.2539 L 12.0237,-98.624
 L 12,-99 L 12.0237,-99.376 L 12.0942,-99.7461 L 12.2107,-100.104 L 12.3711,-100.445 L 12.5729,-100.763
 L 12.8131,-101.054 L 13.0877,-101.312 L 13.3925,-101.533 L 13.7227,-101.714 L 14.0729,-101.853 L 14.4379,-101.947
 L 14.8116,-101.994 L 15.1884,-101.994 L 15.5621,-101.947 L 15.927,-101.853 L 16.2773,-101.714 L 16.6075,-101.533
 L 16.9123,-101.312 L 17.1869,-101.054 L 17.427,-100.763 L 17.6289,-100.445 L 17.7893,-100.104 L 17.9057,-99.7461
 L 17.9763,-99.376 L 18,-99 L 17.9763,-98.624 L 17.9057,-98.2539 L 17.7893,-97.8956 L 17.6289,-97.5547
 L 17.427,-97.2366 L 17.1869,-96.9464 L 16.9123,-96.6884 L 16.6075,-96.467 L 16.2773,-96.2855 L 15.927,-96.1468
 L 15.5621,-96.0531 L 15.1884,-96.0059 z
M 29.8116,-96.0059 L 29.4379,-96.0531 L 29.0729,-96.1468 L 28.7227,-96.2855 L 28.3925,-96.467 L 28.0877,-96.6884
 L 27.8131,-96.9464 L 27.5729,-97.2366 L 27.3711,-97.5547 L 27.2107,-97.8956 L 27.0942,-98.2539 L 27.0237,-98.624
 L 27,-99 L 27.0237,-99.376 L 27.0942,-99.7461 L 27.2107,-100.104 L 27.3711,-100.445 L 27.5729,-100.763
 L 27.8131,-101.054 L 28.0877,-101.312 L 28.3925,-101.533 L 28.7227,-101.714 L 29.0729,-101.853 L 29.4379,-101.947
 L 29.8116,-101.994 L 30.1884,-101.994 L 30.5621,-101.947 L 30.927,-101.853 L 31.2773,-101.714 L 31.6075,-101.533
 L 31.9123,-101.312 L 32.1869,-101.054 L 32.427,-100.763 L 32.6289,-100.445 L 32.7893,-100.104 L 32.9057,-99.7461
 L 32.9763,-99.376 L 33,-99 L 32.9763,-98.624 L 32.9057,-98.2539 L 32.7893,-97.8956 L 32.6289,-97.5547
 L 32.427,-97.2366 L 32.1869,-96.9464 L 31.9123,-96.6884 L 31.6075,-96.467 L 31.2773,-96.2855 L 30.927,-96.1468
 L 30.5621,-96.0531 L 30.1884,-96.0059 z
M -0.18837,-81.0059 L -0.562134,-81.0531 L -0.927048,-81.1468 L -1.27733,-81.2855 L -1.60747,-81.467 L -1.91226,-81.6885
 L -2.1869,-81.9464 L -2.42705,-82.2366 L -2.62891,-82.5547 L -2.78932,-82.8956 L -2.90575,-83.2539 L -2.97633,-83.624
 L -3,-84 L -2.97633,-84.376 L -2.90575,-84.7461 L -2.78932,-85.1044 L -2.62891,-85.4453 L -2.42705,-85.7634
 L -2.1869,-86.0536 L -1.91226,-86.3115 L -1.60747,-86.533 L -1.27733,-86.7145 L -0.927048,-86.8532 L -0.562134,-86.9469
 L -0.18837,-86.9941 L 0.18837,-86.9941 L 0.562134,-86.9469 L 0.927048,-86.8532 L 1.27733,-86.7145 L 1.60747,-86.533
 L 1.91226,-86.3115 L 2.1869,-86.0536 L 2.42705,-85.7634 L 2.62891,-85.4453 L 2.78932,-85.1044 L 2.90575,-84.7461
 L 2.97633,-84.376 L 3,-84 L 2.97633,-83.624 L 2.90575,-83.2539 L 2.78932,-82.8956 L 2.62891,-82.5547
 L 2.42705,-82.2366 L 2.1869,-81.9464 L 1.91226,-81.6885 L 1.60747,-81.467 L 1.27733,-81.2855 L 0.927048,-81.1468
 L 0.562134,-81.0531 L 0.18837,-81.0059 z
M 29.8116,-81.0059 L 29.4379,-81.0531 L 29.0729,-81.1468 L 28.7227,-81.2855 L 28.3925,-81.467 L 28.0877,-81.6885
 L 27.8131,-81.9464 L 27.5729,-82.2366 L 27.3711,-82.5547 L 27.2107,-82.8956 L 27.0942,-83.2539 L 27.0237,-83.624
 L 27,-84 L 27.0237,-84.376 L 27.0942,-84.7461 L 27.2107,-85.1044 L 27.3711,-85.4453 L 27.5729,-85.7634
 L 27.8131,-86.0536 L 28.0877,-86.3115 L 28.3925,-86.533 L 28.7227,-86.7145 L 29.0729,-86.8532 L 29.4379,-86.9469
 L 29.8116,-86.9941 L 30.1884,-86.9941 L 30.5621,-86.9469 L 30.927,-86.8532 L 31.2773,-86.7145 L 31.6075,-86.533
 L 31.9123,-86.3115 L 32.1869,-86.0536 L 32.427,-85.7634 L 32.6289,-85.4453 L 32.7893,-85.1044 L 32.9057,-84.7461
 L 32.9763,-84.376 L 33,-84 L 32.9763,-83.624 L 32.9057,-83.2539 L 32.7893,-82.8956 L 32.6289,-82.5547
 L 32.427,-82.2366 L 32.1869,-81.9464 L 31.9123,-81.6885 L 31.6075,-81.467 L 31.2773,-81.2855 L 30.927,-81.1468
 L 30.5621,-81.0531 L 30.1884,-81.0059 z
M -15.1884,-81.0059 L -15.5621,-81.0531 L -15.927,-81.1468 L -16.2773,-81.2855 L -16.6075,-81.467 L -16.9123,-81.6885
 L -17.1869,-81.9464 L -17.427,-82.2366 L -17.6289,-82.5547 L -17.7893,-82.8956 L -17.9057,-83.2539 L -17.9763,-83.624
 L -18,-84 L -17.9763,-84.376 L -17.9057,-84.7461 L -17.7893,-85.1044 L -17.6289,-85.4453 L -17.427,-85.7634
 L -17.1869,-86.0536 L -16.9123,-86.3115 L -16.6075,-86.533 L -16.2773,-86.7145 L -15.927,-86.8532 L -15.5621,-86.9469
 L -15.1884,-86.9941 L -14.8116,-86.9941 L -14.4379,-86.9469 L -14.0729,-86.8532 L -13.7227,-86.7145 L -13.3925,-86.533
 L -13.0877,-86.3115 L -12.8131,-86.0536 L -12.5729,-85.7634 L -12.3711,-85.4453 L -12.2107,-85.1044 L -12.0942,-84.7461
 L -12.0237,-84.376 L -12,-84 L -12.0237,-83.624 L -12.0942,-83.2539 L -12.2107,-82.8956 L -12.3711,-82.5547
 L -12.5729,-82.2366 L -12.8131,-81.9464 L -13.0877,-81.6885 L -13.3925,-81.467 L -13.7227,-81.2855 L -14.0729,-81.1468
 L -14.4379,-81.0531 L -14.8116,-81.0059 z
M -30.1884,-81.0059 L -30.5621,-81.0531 L -30.927,-81.1468 L -31.2773,-81.2855 L -31.6075,-81.467 L -31.9123,-81.6885
 L -32.1869,-81.9464 L -32.427,-82.2366 L -32.6289,-82.5547 L -32.7893,-82.8956 L -32.9057,-83.2539 L -32.9763,-83.624
 L -33,-84 L -32.9763,-84.376 L -32.9057,-84.7461 L -32.7893,-85.1044 L -32.6289,-85.4453 L -32.427,-85.7634
 L -32.1869,-86.0536 L -31.9123,-86.3115 L -31.6075,-86.533 L -31.2773,-86.7145 L -30.927,-86.8532 L -30.5621,-86.9469
 L -30.1884,-86.9941 L -29.8116,-86.9941 L -29.4379,-86.9469 L -29.0729,-86.8532 L -28.7227,-86.7145 L -28.3925,-86.533
 L -28.0877,-86.3115 L -27.8131,-86.0536 L -27.5729,-85.7634 L -27.3711,-85.4453 L -27.2107,-85.1044 L -27.0942,-84.7461
 L -27.0237,-84.376 L -27,-84 L -27.0237,-83.624 L -27.0942,-83.2539 L -27.2107,-82.8956 L -27.3711,-82.5547
 L -27.5729,-82.2366 L -27.8131,-81.9464 L -28.0877,-81.6885 L -28.3925,-81.467 L -28.7227,-81.2855 L -29.0729,-81.1468
 L -29.4379,-81.0531 L -29.8116,-81.0059 z
M 14.8116,-81.0059 L 14.4379,-81.0531 L 14.0729,-81.1468 L 13.7227,-81.2855 L 13.3925,-81.467 L 13.0877,-81.6885
 L 12.8131,-81.9464 L 12.5729,-82.2366 L 12.3711,-82.5547 L 12.2107,-82.8956 L 12.0942,-83.2539 L 12.0237,-83.624
 L 12,-84 L 12.0237,-84.376 L 12.0942,-84.7461 L 12.2107,-85.1044 L 12.3711,-85.4453 L 12.5729,-85.7634
 L 12.8131,-86.0536 L 13.0877,-86.3115 L 13.3925,-86.533 L 13.7227,-86.7145 L 14.0729,-86.8532 L 14.4379,-86.9469
 L 14.8116,-86.9941 L 15.1884,-86.9941 L 15.5621,-86.9469 L 15.927,-86.8532 L 16.2773,-86.7145 L 16.6075,-86.533
 L 16.9123,-86.3115 L 17.1869,-86.0536 L 17.427,-85.7634 L 17.6289,-85.4453 L 17.7893,-85.1044 L 17.9057,-84.7461
 L 17.9763,-84.376 L 18,-84 L 17.9763,-83.624 L 17.9057,-83.2539 L 17.7893,-82.8956 L 17.6289,-82.5547
 L 17.427,-82.2366 L 17.1869,-81.9464 L 16.9123,-81.6885 L 16.6075,-81.467 L 16.2773,-81.2855 L 15.927,-81.1468
 L 15.5621,-81.0531 L 15.1884,-81.0059 z
M 29.8116,-66.0059 L 29.4379,-66.0531 L 29.0729,-66.1468 L 28.7227,-66.2855 L 28.3925,-66.467 L 28.0877,-66.6885
 L 27.8131,-66.9464 L 27.5729,-67.2366 L 27.3711,-67.5547 L 27.2107,-67.8956 L 27.0942,-68.2539 L 27.0237,-68.624
 L 27,-69 L 27.0237,-69.376 L 27.0942,-69.7461 L 27.2107,-70.1044 L 27.3711,-70.4453 L 27.5729,-70.7634
 L 27.8131,-71.0536 L 28.0877,-71.3116 L 28.3925,-71.533 L 28.7227,-71.7145 L 29.0729,-71.8532 L 29.4379,-71.9469
 L 29.8116,-71.9941 L 30.1884,-71.9941 L 30.5621,-71.9469 L 30.927,-71.8532 L 31.2773,-71.7145 L 31.6075,-71.533
 L 31.9123,-71.3116 L 32.1869,-71.0536 L 32.427,-70.7634 L 32.6289,-70.4453 L 32.7893,-70.1044 L 32.9057,-69.7461
 L 32.9763,-69.376 L 33,-69 L 32.9763,-68.624 L 32.9057,-68.2539 L 32.7893,-67.8956 L 32.6289,-67.5547
 L 32.427,-67.2366 L 32.1869,-66.9464 L 31.9123,-66.6885 L 31.6075,-66.467 L 31.2773,-66.2855 L 30.927,-66.1468
 L 30.5621,-66.0531 L 30.1884,-66.0059 z
M 14.8116,-66.0059 L 14.4379,-66.0531 L 14.0729,-66.1468 L 13.7227,-66.2855 L 13.3925,-66.467 L 13.0877,-66.6885
 L 12.8131,-66.9464 L 12.5729,-67.2366 L 12.3711,-67.5547 L 12.2107,-67.8956 L 12.0942,-68.2539 L 12.0237,-68.624
 L 12,-69 L 12.0237,-69.376 L 12.0942,-69.7461 L 12.2107,-70.1044 L 12.3711,-70.4453 L 12.5729,-70.7634
 L 12.8131,-71.0536 L 13.0877,-71.3116 L 13.3925,-71.533 L 13.7227,-71.7145 L 14.0729,-71.8532 L 14.4379,-71.9469
 L 14.8116,-71.9941 L 15.1884,-71.9941 L 15.5621,-71.9469 L 15.927,-71.8532 L 16.2773,-71.7145 L 16.6075,-71.533
 L 16.9123,-71.3116 L 17.1869,-71.0536 L 17.427,-70.7634 L 17.6289,-70.4453 L 17.7893,-70.1044 L 17.9057,-69.7461
 L 17.9763,-69.376 L 18,-69 L 17.9763,-68.624 L 17.9057,-68.2539 L 17.7893,-67.8956 L 17.6289,-67.5547
 L 17.427,-67.2366 L 17.1869,-66.9464 L 16.9123,-66.6885 L 16.6075,-66.467 L 16.2773,-66.2855 L 15.927,-66.1468
 L 15.5621,-66.0531 L 15.1884,-66.0059 z
M -0.18837,-66.0059 L -0.562134,-66.0531 L -0.927048,-66.1468 L -1.27733,-66.2855 L -1.60747,-66.467 L -1.91226,-66.6885
 L -2.1869,-66.9464 L -2.42705,-67.2366 L -2.62891,-67.5547 L -2.78932,-67.8956 L -2.90575,-68.2539 L -2.97633,-68.624
 L -3,-69 L -2.97633,-69.376 L -2.90575,-69.7461 L -2.78932,-70.1044 L -2.62891,-70.4453 L -2.42705,-70.7634
 L -2.1869,-71.0536 L -1.91226,-71.3116 L -1.60747,-71.533 L -1.27733,-71.7145 L -0.927048,-71.8532 L -0.562134,-71.9469
 L -0.18837,-71.9941 L 0.18837,-71.9941 L 0.562134,-71.9469 L 0.927048,-71.8532 L 1.27733,-71.7145 L 1.60747,-71.533
 L 1.91226,-71.3116 L 2.1869,-71.0536 L 2.42705,-70.7634 L 2.62891,-70.4453 L 2.78932,-70.1044 L 2.90575,-69.7461
 L 2.97633,-69.376 L 3,-69 L 2.97633,-68.624 L 2.90575,-68.2539 L 2.78932,-67.8956 L 2.62891,-67.5547
 L 2.42705,-67.2366 L 2.1869,-66.9464 L 1.91226,-66.6885 L 1.60747,-66.467 L 1.27733,-66.2855 L 0.927048,-66.1468
 L 0.562134,-66.0531 L 0.18837,-66.0059 z
M -15.1884,-66.0059 L -15.5621,-66.0531 L -15.927,-66.1468 L -16.2773,-66.2855 L -16.6075,-66.467 L -16.9123,-66.6885
 L -17.1869,-66.9464 L -17.427,-67.2366 L -17.6289,-67.5547 L -17.7893,-67.8956 L -17.9057,-68.2539 L -17.9763,-68.624
 L -18,-69 L -17.9763,-69.376 L -17.9057,-69.7461 L -17.7893,-70.1044 L -17.6289,-70.4453 L -17.427,-70.7634
 L -17.1869,-71.0536 L -16.9123,-71.3116 L -16.6075,-71.533 L -16.2773,-71.7145 L -15.927,-71.8532 L -15.5621,-71.9469
 L -15.1884,-71.9941 L -14.8116,-71.9941 L -14.4379,-71.9469 L -14.0729,-71.8532 L -13.7227,-71.7145 L -13.3925,-71.533
 L -13.0877,-71.3116 L -12.8131,-71.0536 L -12.5729,-70.7634 L -12.3711,-70.4453 L -12.2107,-70.1044 L -12.0942,-69.7461
 L -12.0237,-69.376 L -12,-69 L -12.0237,-68.624 L -12.0942,-68.2539 L -12.2107,-67.8956 L -12.3711,-67.5547
 L -12.5729,-67.2366 L -12.8131,-66.9464 L -13.0877,-66.6885 L -13.3925,-66.467 L -13.7227,-66.2855 L -14.0729,-66.1468
 L -14.4379,-66.0531 L -14.8116,-66.0059 z
M -30.1884,-66.0059 L -30.5621,-66.0531 L -30.927,-66.1468 L -31.2773,-66.2855 L -31.6075,-66.467 L -31.9123,-66.6885
 L -32.1869,-66.9464 L -32.427,-67.2366 L -32.6289,-67.5547 L -32.7893,-67.8956 L -32.9057,-68.2539 L -32.9763,-68.624
 L -33,-69 L -32.9763,-69.376 L -32.9057,-69.7461 L -32.7893,-70.1044 L -32.6289,-70.4453 L -32.427,-70.7634
 L -32.1869,-71.0536 L -31.9123,-71.3116 L -31.6075,-71.533 L -31.2773,-71.7145 L -30.927,-71.8532 L -30.5621,-71.9469
 L -30.1884,-71.9941 L -29.8116,-71.9941 L -29.4379,-71.9469 L -29.0729,-71.8532 L -28.7227,-71.7145 L -28.3925,-71.533
 L -28.0877,-71.3116 L -27.8131,-71.0536 L -27.5729,-70.7634 L -27.3711,-70.4453 L -27.2107,-70.1044 L -27.0942,-69.7461
 L -27.0237,-69.376 L -27,-69 L -27.0237,-68.624 L -27.0942,-68.2539 L -27.2107,-67.8956 L -27.3711,-67.5547
 L -27.5729,-67.2366 L -27.8131,-66.9464 L -28.0877,-66.6885 L -28.3925,-66.467 L -28.7227,-66.2855 L -29.0729,-66.1468
 L -29.4379,-66.0531 L -29.8116,-66.0059 z
M -15.1884,-51.0059 L -15.5621,-51.0531 L -15.927,-51.1468 L -16.2773,-51.2855 L -16.6075,-51.467 L -16.9123,-51.6885
 L -17.1869,-51.9464 L -17.427,-52.2366 L -17.6289,-52.5547 L -17.7893,-52.8956 L -17.9057,-53.2539 L -17.9763,-53.624
 L -18,-54 L -17.9763,-54.376 L -17.9057,-54.7461 L -17.7893,-55.1044 L -17.6289,-55.4453 L -17.427,-55.7634
 L -17.1869,-56.0536 L -16.9123,-56.3116 L -16.6075,-56.533 L -16.2773,-56.7145 L -15.927,-56.8532 L -15.5621,-56.9469
 L -15.1884,-56.9941 L -14.8116,-56.9941 L -14.4379,-56.9469 L -14.0729,-56.8532 L -13.7227,-56.7145 L -13.3925,-56.533
 L -13.0877,-56.3116 L -12.8131,-56.0536 L -12.5729,-55.7634 L -12.3711,-55.4453 L -12.2107,-55.1044 L -12.0942,-54.7461
 L -12.0237,-54.376 L -12,-54 L -12.0237,-53.624 L -12.0942,-53.2539 L -12.2107,-52.8956 L -12.3711,-52.5547
 L -12.5729,-52.2366 L -12.8131,-51.9464 L -13.0877,-51.6885 L -13.3925,-51.467 L -13.7227,-51.2855 L -14.0729,-51.1468
 L -14.4379,-51.0531 L -14.8116,-51.0059 z
M 14.8116,-51.0059 L 14.4379,-51.0531 L 14.0729,-51.1468 L 13.7227,-51.2855 L 13.3925,-51.467 L 13.0877,-51.6885
 L 12.8131,-51.9464 L 12.5729,-52.2366 L 12.3711,-52.5547 L 12.2107,-52.8956 L 12.0942,-53.2539 L 12.0237,-53.624
 L 12,-54 L 12.0237,-54.376 L 12.0942,-54.7461 L 12.2107,-55.1044 L 12.3711,-55.4453 L 12.5729,-55.7634
 L 12.8131,-56.0536 L 13.0877,-56.3116 L 13.3925,-56.533 L 13.7227,-56.7145 L 14.0729,-56.8532 L 14.4379,-56.9469
 L 14.8116,-56.9941 L 15.1884,-56.9941 L 15.5621,-56.9469 L 15.927,-56.8532 L 16.2773,-56.7145 L 16.6075,-56.533
 L 16.9123,-56.3116 L 17.1869,-56.0536 L 17.427,-55.7634 L 17.6289,-55.4453 L 17.7893,-55.1044 L 17.9057,-54.7461
 L 17.9763,-54.376 L 18,-54 L 17.9763,-53.624 L 17.9057,-53.2539 L 17.7893,-52.8956 L 17.6289,-52.5547
 L 17.427,-52.2366 L 17.1869,-51.9464 L 16.9123,-51.6885 L 16.6075,-51.467 L 16.2773,-51.2855 L 15.927,-51.1468
 L 15.5621,-51.0531 L 15.1884,-51.0059 z
M -30.1884,-51.0059 L -30.5621,-51.0531 L -30.927,-51.1468 L -31.2773,-51.2855 L -31.6075,-51.467 L -31.9123,-51.6885
 L -32.1869,-51.9464 L -32.427,-52.2366 L -32.6289,-52.5547 L -32.7893,-52.8956 L -32.9057,-53.2539 L -32.9763,-53.624
 L -33,-54 L -32.9763,-54.376 L -32.9057,-54.7461 L -32.7893,-55.1044 L -32.6289,-55.4453 L -32.427,-55.7634
 L -32.1869,-56.0536 L -31.9123,-56.3116 L -31.6075,-56.533 L -31.2773,-56.7145 L -30.927,-56.8532 L -30.5621,-56.9469
 L -30.1884,-56.9941 L -29.8116,-56.9941 L -29.4379,-56.9469 L -29.0729,-56.8532 L -28.7227,-56.7145 L -28.3925,-56.533
 L -28.0877,-56.3116 L -27.8131,-56.0536 L -27.5729,-55.7634 L -27.3711,-55.4453 L -27.2107,-55.1044 L -27.0942,-54.7461
 L -27.0237,-54.376 L -27,-54 L -27.0237,-53.624 L -27.0942,-53.2539 L -27.2107,-52.8956 L -27.3711,-52.5547
 L -27.5729,-52.2366 L -27.8131,-51.9464 L -28.0877,-51.6885 L -28.3925,-51.467 L -28.7227,-51.2855 L -29.0729,-51.1468
 L -29.4379,-51.0531 L -29.8116,-51.0059 z
M 29.8116,-51.0059 L 29.4379,-51.0531 L 29.0729,-51.1468 L 28.7227,-51.2855 L 28.3925,-51.467 L 28.0877,-51.6885
 L 27.8131,-51.9464 L 27.5729,-52.2366 L 27.3711,-52.5547 L 27.2107,-52.8956 L 27.0942,-53.2539 L 27.0237,-53.624
 L 27,-54 L 27.0237,-54.376 L 27.0942,-54.7461 L 27.2107,-55.1044 L 27.3711,-55.4453 L 27.5729,-55.7634
 L 27.8131,-56.0536 L 28.0877,-56.3116 L 28.3925,-56.533 L 28.7227,-56.7145 L 29.0729,-56.8532 L 29.4379,-56.9469
 L 29.8116,-56.9941 L 30.1884,-56.9941 L 30.5621,-56.9469 L 30.927,-56.8532 L 31.2773,-56.7145 L 31.6075,-56.533
 L 31.9123,-56.3116 L 32.1869,-56.0536 L 32.427,-55.7634 L 32.6289,-55.4453 L 32.7893,-55.1044 L 32.9057,-54.7461
 L 32.9763,-54.376 L 33,-54 L 32.9763,-53.624 L 32.9057,-53.2539 L 32.7893,-52.8956 L 32.6289,-52.5547
 L 32.427,-52.2366 L 32.1869,-51.9464 L 31.9123,-51.6885 L 31.6075,-51.467 L 31.2773,-51.2855 L 30.927,-51.1468
 L 30.5621,-51.0531 L 30.1884,-51.0059 z
M -0.18837,-51.0059 L -0.562134,-51.0531 L -0.927048,-51.1468 L -1.27733,-51.2855 L -1.60747,-51.467 L -1.91226,-51.6885
 L -2.1869,-51.9464 L -2.42705,-52.2366 L -2.62891,-52.5547 L -2.78932,-52.8956 L -2.90575,-53.2539 L -2.97633,-53.624
 L -3,-54 L -2.97633,-54.376 L -2.90575,-54.7461 L -2.78932,-55.1044 L -2.62891,-55.4453 L -2.42705,-55.7634
 L -2.1869,-56.0536 L -1.91226,-56.3116 L -1.60747,-56.533 L -1.27733,-56.7145 L -0.927048,-56.8532 L -0.562134,-56.9469
 L -0.18837,-56.9941 L 0.18837,-56.9941 L 0.562134,-56.9469 L 0.927048,-56.8532 L 1.27733,-56.7145 L 1.60747,-56.533
 L 1.91226,-56.3116 L 2.1869,-56.0536 L 2.42705,-55.7634 L 2.62891,-55.4453 L 2.78932,-55.1044 L 2.90575,-54.7461
 L 2.97633,-54.376 L 3,-54 L 2.97633,-53.624 L 2.90575,-53.2539 L 2.78932,-52.8956 L 2.62891,-52.5547
 L 2.42705,-52.2366 L 2.1869,-51.9464 L 1.91226,-51.6885 L 1.60747,-51.467 L 1.27733,-51.2855 L 0.927048,-51.1468
 L 0.562134,-51.0531 L 0.18837,-51.0059 z
" stroke="black" fill="lightgray" stroke-width="0.5"/>
</svg>
