  0
SECTION
  2
BLOCKS
  0
ENDSEC
  0
SECTION
  2
ENTITIES
  0
LINE
  8
0
 10
107.937
 20
-21.9114
 11
108.545
 21
-21.7553
  0
LINE
  8
0
 10
108.545
 20
-21.7553
 11
109.129
 21
-21.5241
  0
LINE
  8
0
 10
109.129
 20
-21.5241
 11
109.679
 21
-21.2216
  0
LINE
  8
0
 10
109.679
 20
-21.2216
 11
110.187
 21
-20.8526
  0
LINE
  8
0
 10
110.187
 20
-20.8526
 11
110.645
 21
-20.4227
  0
LINE
  8
0
 10
110.645
 20
-20.4227
 11
111.045
 21
-19.9389
  0
LINE
  8
0
 10
111.045
 20
-19.9389
 11
111.382
 21
-19.4088
  0
LINE
  8
0
 10
111.382
 20
-19.4088
 11
111.649
 21
-18.8406
  0
LINE
  8
0
 10
111.649
 20
-18.8406
 11
111.843
 21
-18.2434
  0
LINE
  8
0
 10
111.843
 20
-18.2434
 11
111.961
 21
-17.6267
  0
LINE
  8
0
 10
111.961
 20
-17.6267
 11
112
 21
-17
  0
LINE
  8
0
 10
112
 20
-17
 11
112
 21
17
  0
LINE
  8
0
 10
112
 20
17
 11
111.961
 21
17.6267
  0
LINE
  8
0
 10
111.961
 20
17.6267
 11
111.843
 21
18.2434
  0
LINE
  8
0
 10
111.843
 20
18.2434
 11
111.649
 21
18.8406
  0
LINE
  8
0
 10
111.649
 20
18.8406
 11
111.382
 21
19.4088
  0
LINE
  8
0
 10
111.382
 20
19.4088
 11
111.045
 21
19.9389
  0
LINE
  8
0
 10
111.045
 20
19.9389
 11
110.645
 21
20.4227
  0
LINE
  8
0
 10
110.645
 20
20.4227
 11
110.187
 21
20.8526
  0
LINE
  8
0
 10
110.187
 20
20.8526
 11
109.679
 21
21.2216
  0
LINE
  8
0
 10
109.679
 20
21.2216
 11
109.129
 21
21.5241
  0
LINE
  8
0
 10
109.129
 20
21.5241
 11
108.545
 21
21.7553
  0
LINE
  8
0
 10
108.545
 20
21.7553
 11
107.937
 21
21.9114
  0
LINE
  8
0
 10
107.937
 20
21.9114
 11
107.314
 21
21.9901
  0
LINE
  8
0
 10
107.314
 20
21.9901
 11
-107.314
 21
21.9901
  0
LINE
  8
0
 10
-107.314
 20
21.9901
 11
-107.937
 21
21.9114
  0
LINE
  8
0
 10
-107.937
 20
21.9114
 11
-108.545
 21
21.7553
  0
LINE
  8
0
 10
-108.545
 20
21.7553
 11
-109.129
 21
21.5241
  0
LINE
  8
0
 10
-109.129
 20
21.5241
 11
-109.679
 21
21.2216
  0
LINE
  8
0
 10
-109.679
 20
21.2216
 11
-110.187
 21
20.8526
  0
LINE
  8
0
 10
-110.187
 20
20.8526
 11
-110.645
 21
20.4227
  0
LINE
  8
0
 10
-110.645
 20
20.4227
 11
-111.045
 21
19.9389
  0
LINE
  8
0
 10
-111.045
 20
19.9389
 11
-111.382
 21
19.4088
  0
LINE
  8
0
 10
-111.382
 20
19.4088
 11
-111.649
 21
18.8406
  0
LINE
  8
0
 10
-111.649
 20
18.8406
 11
-111.843
 21
18.2434
  0
LINE
  8
0
 10
-111.843
 20
18.2434
 11
-111.961
 21
17.6267
  0
LINE
  8
0
 10
-111.961
 20
17.6267
 11
-112
 21
17
  0
LINE
  8
0
 10
-112
 20
17
 11
-112
 21
-17
  0
LINE
  8
0
 10
-112
 20
-17
 11
-111.961
 21
-17.6267
  0
LINE
  8
0
 10
-111.961
 20
-17.6267
 11
-111.843
 21
-18.2434
  0
LINE
  8
0
 10
-111.843
 20
-18.2434
 11
-111.649
 21
-18.8406
  0
LINE
  8
0
 10
-111.649
 20
-18.8406
 11
-111.382
 21
-19.4088
  0
LINE
  8
0
 10
-111.382
 20
-19.4088
 11
-111.045
 21
-19.9389
  0
LINE
  8
0
 10
-111.045
 20
-19.9389
 11
-110.645
 21
-20.4227
  0
LINE
  8
0
 10
-110.645
 20
-20.4227
 11
-110.187
 21
-20.8526
  0
LINE
  8
0
 10
-110.187
 20
-20.8526
 11
-109.679
 21
-21.2216
  0
LINE
  8
0
 10
-109.679
 20
-21.2216
 11
-109.129
 21
-21.5241
  0
LINE
  8
0
 10
-109.129
 20
-21.5241
 11
-108.545
 21
-21.7553
  0
LINE
  8
0
 10
-108.545
 20
-21.7553
 11
-107.937
 21
-21.9114
  0
LINE
  8
0
 10
-107.937
 20
-21.9114
 11
-107.314
 21
-21.9901
  0
LINE
  8
0
 10
-107.314
 20
-21.9901
 11
107.314
 21
-21.9901
  0
LINE
  8
0
 10
107.314
 20
-21.9901
 11
107.937
 21
-21.9114
  0
LINE
  8
0
 10
102.024
 20
15.376
 11
102.094
 21
15.7461
  0
LINE
  8
0
 10
102.094
 20
15.7461
 11
102.211
 21
16.1044
  0
LINE
  8
0
 10
102.211
 20
16.1044
 11
102.371
 21
16.4453
  0
LINE
  8
0
 10
102.371
 20
16.4453
 11
102.573
 21
16.7634
  0
LINE
  8
0
 10
102.573
 20
16.7634
 11
102.813
 21
17.0536
  0
LINE
  8
0
 10
102.813
 20
17.0536
 11
103.088
 21
17.3115
  0
LINE
  8
0
 10
103.088
 20
17.3115
 11
103.393
 21
17.533
  0
LINE
  8
0
 10
103.393
 20
17.533
 11
103.723
 21
17.7145
  0
LINE
  8
0
 10
103.723
 20
17.7145
 11
104.073
 21
17.8532
  0
LINE
  8
0
 10
104.073
 20
17.8532
 11
104.438
 21
17.9469
  0
LINE
  8
0
 10
104.438
 20
17.9469
 11
104.812
 21
17.9941
  0
LINE
  8
0
 10
104.812
 20
17.9941
 11
105.188
 21
17.9941
  0
LINE
  8
0
 10
105.188
 20
17.9941
 11
105.562
 21
17.9469
  0
LINE
  8
0
 10
105.562
 20
17.9469
 11
105.927
 21
17.8532
  0
LINE
  8
0
 10
105.927
 20
17.8532
 11
106.277
 21
17.7145
  0
LINE
  8
0
 10
106.277
 20
17.7145
 11
106.607
 21
17.533
  0
LINE
  8
0
 10
106.607
 20
17.533
 11
106.912
 21
17.3115
  0
LINE
  8
0
 10
106.912
 20
17.3115
 11
107.187
 21
17.0536
  0
LINE
  8
0
 10
107.187
 20
17.0536
 11
107.427
 21
16.7634
  0
LINE
  8
0
 10
107.427
 20
16.7634
 11
107.629
 21
16.4453
  0
LINE
  8
0
 10
107.629
 20
16.4453
 11
107.789
 21
16.1044
  0
LINE
  8
0
 10
107.789
 20
16.1044
 11
107.906
 21
15.7461
  0
LINE
  8
0
 10
107.906
 20
15.7461
 11
107.976
 21
15.376
  0
LINE
  8
0
 10
107.976
 20
15.376
 11
108
 21
15
  0
LINE
  8
0
 10
108
 20
15
 11
107.976
 21
14.624
  0
LINE
  8
0
 10
107.976
 20
14.624
 11
107.906
 21
14.2539
  0
LINE
  8
0
 10
107.906
 20
14.2539
 11
107.789
 21
13.8956
  0
LINE
  8
0
 10
107.789
 20
13.8956
 11
107.629
 21
13.5547
  0
LINE
  8
0
 10
107.629
 20
13.5547
 11
107.427
 21
13.2366
  0
LINE
  8
0
 10
107.427
 20
13.2366
 11
107.187
 21
12.9464
  0
LINE
  8
0
 10
107.187
 20
12.9464
 11
106.912
 21
12.6884
  0
LINE
  8
0
 10
106.912
 20
12.6884
 11
106.607
 21
12.467
  0
LINE
  8
0
 10
106.607
 20
12.467
 11
106.277
 21
12.2855
  0
LINE
  8
0
 10
106.277
 20
12.2855
 11
105.927
 21
12.1468
  0
LINE
  8
0
 10
105.927
 20
12.1468
 11
105.562
 21
12.0531
  0
LINE
  8
0
 10
105.562
 20
12.0531
 11
105.188
 21
12.0059
  0
LINE
  8
0
 10
105.188
 20
12.0059
 11
104.812
 21
12.0059
  0
LINE
  8
0
 10
104.812
 20
12.0059
 11
104.438
 21
12.0531
  0
LINE
  8
0
 10
104.438
 20
12.0531
 11
104.073
 21
12.1468
  0
LINE
  8
0
 10
104.073
 20
12.1468
 11
103.723
 21
12.2855
  0
LINE
  8
0
 10
103.723
 20
12.2855
 11
103.393
 21
12.467
  0
LINE
  8
0
 10
103.393
 20
12.467
 11
103.088
 21
12.6884
  0
LINE
  8
0
 10
103.088
 20
12.6884
 11
102.813
 21
12.9464
  0
LINE
  8
0
 10
102.813
 20
12.9464
 11
102.573
 21
13.2366
  0
LINE
  8
0
 10
102.573
 20
13.2366
 11
102.371
 21
13.5547
  0
LINE
  8
0
 10
102.371
 20
13.5547
 11
102.211
 21
13.8956
  0
LINE
  8
0
 10
102.211
 20
13.8956
 11
102.094
 21
14.2539
  0
LINE
  8
0
 10
102.094
 20
14.2539
 11
102.024
 21
14.624
  0
LINE
  8
0
 10
102.024
 20
14.624
 11
102
 21
15
  0
LINE
  8
0
 10
102
 20
15
 11
102.024
 21
15.376
  0
LINE
  8
0
 10
-105.188
 20
-17.9941
 11
-105.562
 21
-17.9469
  0
LINE
  8
0
 10
-105.562
 20
-17.9469
 11
-105.927
 21
-17.8532
  0
LINE
  8
0
 10
-105.927
 20
-17.8532
 11
-106.277
 21
-17.7145
  0
LINE
  8
0
 10
-106.277
 20
-17.7145
 11
-106.607
 21
-17.533
  0
LINE
  8
0
 10
-106.607
 20
-17.533
 11
-106.912
 21
-17.3115
  0
LINE
  8
0
 10
-106.912
 20
-17.3115
 11
-107.187
 21
-17.0536
  0
LINE
  8
0
 10
-107.187
 20
-17.0536
 11
-107.427
 21
-16.7634
  0
LINE
  8
0
 10
-107.427
 20
-16.7634
 11
-107.629
 21
-16.4453
  0
LINE
  8
0
 10
-107.629
 20
-16.4453
 11
-107.789
 21
-16.1044
  0
LINE
  8
0
 10
-107.789
 20
-16.1044
 11
-107.906
 21
-15.7461
  0
LINE
  8
0
 10
-107.906
 20
-15.7461
 11
-107.976
 21
-15.376
  0
LINE
  8
0
 10
-107.976
 20
-15.376
 11
-108
 21
-15
  0
LINE
  8
0
 10
-108
 20
-15
 11
-107.976
 21
-14.624
  0
LINE
  8
0
 10
-107.976
 20
-14.624
 11
-107.906
 21
-14.2539
  0
LINE
  8
0
 10
-107.906
 20
-14.2539
 11
-107.789
 21
-13.8956
  0
LINE
  8
0
 10
-107.789
 20
-13.8956
 11
-107.629
 21
-13.5547
  0
LINE
  8
0
 10
-107.629
 20
-13.5547
 11
-107.427
 21
-13.2366
  0
LINE
  8
0
 10
-107.427
 20
-13.2366
 11
-107.187
 21
-12.9464
  0
LINE
  8
0
 10
-107.187
 20
-12.9464
 11
-106.912
 21
-12.6884
  0
LINE
  8
0
 10
-106.912
 20
-12.6884
 11
-106.607
 21
-12.467
  0
LINE
  8
0
 10
-106.607
 20
-12.467
 11
-106.277
 21
-12.2855
  0
LINE
  8
0
 10
-106.277
 20
-12.2855
 11
-105.927
 21
-12.1468
  0
LINE
  8
0
 10
-105.927
 20
-12.1468
 11
-105.562
 21
-12.0531
  0
LINE
  8
0
 10
-105.562
 20
-12.0531
 11
-105.188
 21
-12.0059
  0
LINE
  8
0
 10
-105.188
 20
-12.0059
 11
-104.812
 21
-12.0059
  0
LINE
  8
0
 10
-104.812
 20
-12.0059
 11
-104.438
 21
-12.0531
  0
LINE
  8
0
 10
-104.438
 20
-12.0531
 11
-104.073
 21
-12.1468
  0
LINE
  8
0
 10
-104.073
 20
-12.1468
 11
-103.723
 21
-12.2855
  0
LINE
  8
0
 10
-103.723
 20
-12.2855
 11
-103.393
 21
-12.467
  0
LINE
  8
0
 10
-103.393
 20
-12.467
 11
-103.088
 21
-12.6884
  0
LINE
  8
0
 10
-103.088
 20
-12.6884
 11
-102.813
 21
-12.9464
  0
LINE
  8
0
 10
-102.813
 20
-12.9464
 11
-102.573
 21
-13.2366
  0
LINE
  8
0
 10
-102.573
 20
-13.2366
 11
-102.371
 21
-13.5547
  0
LINE
  8
0
 10
-102.371
 20
-13.5547
 11
-102.211
 21
-13.8956
  0
LINE
  8
0
 10
-102.211
 20
-13.8956
 11
-102.094
 21
-14.2539
  0
LINE
  8
0
 10
-102.094
 20
-14.2539
 11
-102.024
 21
-14.624
  0
LINE
  8
0
 10
-102.024
 20
-14.624
 11
-102
 21
-15
  0
LINE
  8
0
 10
-102
 20
-15
 11
-102.024
 21
-15.376
  0
LINE
  8
0
 10
-102.024
 20
-15.376
 11
-102.094
 21
-15.7461
  0
LINE
  8
0
 10
-102.094
 20
-15.7461
 11
-102.211
 21
-16.1044
  0
LINE
  8
0
 10
-102.211
 20
-16.1044
 11
-102.371
 21
-16.4453
  0
LINE
  8
0
 10
-102.371
 20
-16.4453
 11
-102.573
 21
-16.7634
  0
LINE
  8
0
 10
-102.573
 20
-16.7634
 11
-102.813
 21
-17.0536
  0
LINE
  8
0
 10
-102.813
 20
-17.0536
 11
-103.088
 21
-17.3115
  0
LINE
  8
0
 10
-103.088
 20
-17.3115
 11
-103.393
 21
-17.533
  0
LINE
  8
0
 10
-103.393
 20
-17.533
 11
-103.723
 21
-17.7145
  0
LINE
  8
0
 10
-103.723
 20
-17.7145
 11
-104.073
 21
-17.8532
  0
LINE
  8
0
 10
-104.073
 20
-17.8532
 11
-104.438
 21
-17.9469
  0
LINE
  8
0
 10
-104.438
 20
-17.9469
 11
-104.812
 21
-17.9941
  0
LINE
  8
0
 10
-104.812
 20
-17.9941
 11
-105.188
 21
-17.9941
  0
LINE
  8
0
 10
104.812
 20
-17.9941
 11
104.438
 21
-17.9469
  0
LINE
  8
0
 10
104.438
 20
-17.9469
 11
104.073
 21
-17.8532
  0
LINE
  8
0
 10
104.073
 20
-17.8532
 11
103.723
 21
-17.7145
  0
LINE
  8
0
 10
103.723
 20
-17.7145
 11
103.393
 21
-17.533
  0
LINE
  8
0
 10
103.393
 20
-17.533
 11
103.088
 21
-17.3115
  0
LINE
  8
0
 10
103.088
 20
-17.3115
 11
102.813
 21
-17.0536
  0
LINE
  8
0
 10
102.813
 20
-17.0536
 11
102.573
 21
-16.7634
  0
LINE
  8
0
 10
102.573
 20
-16.7634
 11
102.371
 21
-16.4453
  0
LINE
  8
0
 10
102.371
 20
-16.4453
 11
102.211
 21
-16.1044
  0
LINE
  8
0
 10
102.211
 20
-16.1044
 11
102.094
 21
-15.7461
  0
LINE
  8
0
 10
102.094
 20
-15.7461
 11
102.024
 21
-15.376
  0
LINE
  8
0
 10
102.024
 20
-15.376
 11
102
 21
-15
  0
LINE
  8
0
 10
102
 20
-15
 11
102.024
 21
-14.624
  0
LINE
  8
0
 10
102.024
 20
-14.624
 11
102.094
 21
-14.2539
  0
LINE
  8
0
 10
102.094
 20
-14.2539
 11
102.211
 21
-13.8956
  0
LINE
  8
0
 10
102.211
 20
-13.8956
 11
102.371
 21
-13.5547
  0
LINE
  8
0
 10
102.371
 20
-13.5547
 11
102.573
 21
-13.2366
  0
LINE
  8
0
 10
102.573
 20
-13.2366
 11
102.813
 21
-12.9464
  0
LINE
  8
0
 10
102.813
 20
-12.9464
 11
103.088
 21
-12.6884
  0
LINE
  8
0
 10
103.088
 20
-12.6884
 11
103.393
 21
-12.467
  0
LINE
  8
0
 10
103.393
 20
-12.467
 11
103.723
 21
-12.2855
  0
LINE
  8
0
 10
103.723
 20
-12.2855
 11
104.073
 21
-12.1468
  0
LINE
  8
0
 10
104.073
 20
-12.1468
 11
104.438
 21
-12.0531
  0
LINE
  8
0
 10
104.438
 20
-12.0531
 11
104.812
 21
-12.0059
  0
LINE
  8
0
 10
104.812
 20
-12.0059
 11
105.188
 21
-12.0059
  0
LINE
  8
0
 10
105.188
 20
-12.0059
 11
105.562
 21
-12.0531
  0
LINE
  8
0
 10
105.562
 20
-12.0531
 11
105.927
 21
-12.1468
  0
LINE
  8
0
 10
105.927
 20
-12.1468
 11
106.277
 21
-12.2855
  0
LINE
  8
0
 10
106.277
 20
-12.2855
 11
106.607
 21
-12.467
  0
LINE
  8
0
 10
106.607
 20
-12.467
 11
106.912
 21
-12.6884
  0
LINE
  8
0
 10
106.912
 20
-12.6884
 11
107.187
 21
-12.9464
  0
LINE
  8
0
 10
107.187
 20
-12.9464
 11
107.427
 21
-13.2366
  0
LINE
  8
0
 10
107.427
 20
-13.2366
 11
107.629
 21
-13.5547
  0
LINE
  8
0
 10
107.629
 20
-13.5547
 11
107.789
 21
-13.8956
  0
LINE
  8
0
 10
107.789
 20
-13.8956
 11
107.906
 21
-14.2539
  0
LINE
  8
0
 10
107.906
 20
-14.2539
 11
107.976
 21
-14.624
  0
LINE
  8
0
 10
107.976
 20
-14.624
 11
108
 21
-15
  0
LINE
  8
0
 10
108
 20
-15
 11
107.976
 21
-15.376
  0
LINE
  8
0
 10
107.976
 20
-15.376
 11
107.906
 21
-15.7461
  0
LINE
  8
0
 10
107.906
 20
-15.7461
 11
107.789
 21
-16.1044
  0
LINE
  8
0
 10
107.789
 20
-16.1044
 11
107.629
 21
-16.4453
  0
LINE
  8
0
 10
107.629
 20
-16.4453
 11
107.427
 21
-16.7634
  0
LINE
  8
0
 10
107.427
 20
-16.7634
 11
107.187
 21
-17.0536
  0
LINE
  8
0
 10
107.187
 20
-17.0536
 11
106.912
 21
-17.3115
  0
LINE
  8
0
 10
106.912
 20
-17.3115
 11
106.607
 21
-17.533
  0
LINE
  8
0
 10
106.607
 20
-17.533
 11
106.277
 21
-17.7145
  0
LINE
  8
0
 10
106.277
 20
-17.7145
 11
105.927
 21
-17.8532
  0
LINE
  8
0
 10
105.927
 20
-17.8532
 11
105.562
 21
-17.9469
  0
LINE
  8
0
 10
105.562
 20
-17.9469
 11
105.188
 21
-17.9941
  0
LINE
  8
0
 10
105.188
 20
-17.9941
 11
104.812
 21
-17.9941
  0
LINE
  8
0
 10
-102.211
 20
13.8956
 11
-102.371
 21
13.5547
  0
LINE
  8
0
 10
-102.371
 20
13.5547
 11
-102.573
 21
13.2366
  0
LINE
  8
0
 10
-102.573
 20
13.2366
 11
-102.813
 21
12.9464
  0
LINE
  8
0
 10
-102.813
 20
12.9464
 11
-103.088
 21
12.6884
  0
LINE
  8
0
 10
-103.088
 20
12.6884
 11
-103.393
 21
12.467
  0
LINE
  8
0
 10
-103.393
 20
12.467
 11
-103.723
 21
12.2855
  0
LINE
  8
0
 10
-103.723
 20
12.2855
 11
-104.073
 21
12.1468
  0
LINE
  8
0
 10
-104.073
 20
12.1468
 11
-104.438
 21
12.0531
  0
LINE
  8
0
 10
-104.438
 20
12.0531
 11
-104.812
 21
12.0059
  0
LINE
  8
0
 10
-104.812
 20
12.0059
 11
-105.188
 21
12.0059
  0
LINE
  8
0
 10
-105.188
 20
12.0059
 11
-105.562
 21
12.0531
  0
LINE
  8
0
 10
-105.562
 20
12.0531
 11
-105.927
 21
12.1468
  0
LINE
  8
0
 10
-105.927
 20
12.1468
 11
-106.277
 21
12.2855
  0
LINE
  8
0
 10
-106.277
 20
12.2855
 11
-106.607
 21
12.467
  0
LINE
  8
0
 10
-106.607
 20
12.467
 11
-106.912
 21
12.6884
  0
LINE
  8
0
 10
-106.912
 20
12.6884
 11
-107.187
 21
12.9464
  0
LINE
  8
0
 10
-107.187
 20
12.9464
 11
-107.427
 21
13.2366
  0
LINE
  8
0
 10
-107.427
 20
13.2366
 11
-107.629
 21
13.5547
  0
LINE
  8
0
 10
-107.629
 20
13.5547
 11
-107.789
 21
13.8956
  0
LINE
  8
0
 10
-107.789
 20
13.8956
 11
-107.906
 21
14.2539
  0
LINE
  8
0
 10
-107.906
 20
14.2539
 11
-107.976
 21
14.624
  0
LINE
  8
0
 10
-107.976
 20
14.624
 11
-108
 21
15
  0
LINE
  8
0
 10
-108
 20
15
 11
-107.976
 21
15.376
  0
LINE
  8
0
 10
-107.976
 20
15.376
 11
-107.906
 21
15.7461
  0
LINE
  8
0
 10
-107.906
 20
15.7461
 11
-107.789
 21
16.1044
  0
LINE
  8
0
 10
-107.789
 20
16.1044
 11
-107.629
 21
16.4453
  0
LINE
  8
0
 10
-107.629
 20
16.4453
 11
-107.427
 21
16.7634
  0
LINE
  8
0
 10
-107.427
 20
16.7634
 11
-107.187
 21
17.0536
  0
LINE
  8
0
 10
-107.187
 20
17.0536
 11
-106.912
 21
17.3115
  0
LINE
  8
0
 10
-106.912
 20
17.3115
 11
-106.607
 21
17.533
  0
LINE
  8
0
 10
-106.607
 20
17.533
 11
-106.277
 21
17.7145
  0
LINE
  8
0
 10
-106.277
 20
17.7145
 11
-105.927
 21
17.8532
  0
LINE
  8
0
 10
-105.927
 20
17.8532
 11
-105.562
 21
17.9469
  0
LINE
  8
0
 10
-105.562
 20
17.9469
 11
-105.188
 21
17.9941
  0
LINE
  8
0
 10
-105.188
 20
17.9941
 11
-104.812
 21
17.9941
  0
LINE
  8
0
 10
-104.812
 20
17.9941
 11
-104.438
 21
17.9469
  0
LINE
  8
0
 10
-104.438
 20
17.9469
 11
-104.073
 21
17.8532
  0
LINE
  8
0
 10
-104.073
 20
17.8532
 11
-103.723
 21
17.7145
  0
LINE
  8
0
 10
-103.723
 20
17.7145
 11
-103.393
 21
17.533
  0
LINE
  8
0
 10
-103.393
 20
17.533
 11
-103.088
 21
17.3115
  0
LINE
  8
0
 10
-103.088
 20
17.3115
 11
-102.813
 21
17.0536
  0
LINE
  8
0
 10
-102.813
 20
17.0536
 11
-102.573
 21
16.7634
  0
LINE
  8
0
 10
-102.573
 20
16.7634
 11
-102.371
 21
16.4453
  0
LINE
  8
0
 10
-102.371
 20
16.4453
 11
-102.211
 21
16.1044
  0
LINE
  8
0
 10
-102.211
 20
16.1044
 11
-102.094
 21
15.7461
  0
LINE
  8
0
 10
-102.094
 20
15.7461
 11
-102.024
 21
15.376
  0
LINE
  8
0
 10
-102.024
 20
15.376
 11
-102
 21
15
  0
LINE
  8
0
 10
-102
 20
15
 11
-102.024
 21
14.624
  0
LINE
  8
0
 10
-102.024
 20
14.624
 11
-102.094
 21
14.2539
  0
LINE
  8
0
 10
-102.094
 20
14.2539
 11
-102.211
 21
13.8956
  0
ENDSEC
  0
SECTION
  2
OBJECTS
  0
DICTIONARY
  0
ENDSEC
  0
EOF
