  0
SECTION
  2
BLOCKS
  0
ENDSEC
  0
SECTION
  2
ENTITIES
  0
LINE
  8
0
 10
32.9369
 20
302.089
 11
33.5451
 21
302.245
  0
LINE
  8
0
 10
33.5451
 20
302.245
 11
34.1289
 21
302.476
  0
LINE
  8
0
 10
34.1289
 20
302.476
 11
34.6791
 21
302.778
  0
LINE
  8
0
 10
34.6791
 20
302.778
 11
35.1871
 21
303.147
  0
LINE
  8
0
 10
35.1871
 20
303.147
 11
35.6448
 21
303.577
  0
LINE
  8
0
 10
35.6448
 20
303.577
 11
36.0451
 21
304.061
  0
LINE
  8
0
 10
36.0451
 20
304.061
 11
36.3815
 21
304.591
  0
LINE
  8
0
 10
36.3815
 20
304.591
 11
36.6489
 21
305.159
  0
LINE
  8
0
 10
36.6489
 20
305.159
 11
36.8429
 21
305.757
  0
LINE
  8
0
 10
36.8429
 20
305.757
 11
36.9606
 21
306.373
  0
LINE
  8
0
 10
36.9606
 20
306.373
 11
37
 21
307
  0
LINE
  8
0
 10
37
 20
307
 11
37
 21
341
  0
LINE
  8
0
 10
37
 20
341
 11
36.9606
 21
341.627
  0
LINE
  8
0
 10
36.9606
 20
341.627
 11
36.8429
 21
342.243
  0
LINE
  8
0
 10
36.8429
 20
342.243
 11
36.6489
 21
342.841
  0
LINE
  8
0
 10
36.6489
 20
342.841
 11
36.3815
 21
343.409
  0
LINE
  8
0
 10
36.3815
 20
343.409
 11
36.0451
 21
343.939
  0
LINE
  8
0
 10
36.0451
 20
343.939
 11
35.6448
 21
344.423
  0
LINE
  8
0
 10
35.6448
 20
344.423
 11
35.1871
 21
344.853
  0
LINE
  8
0
 10
35.1871
 20
344.853
 11
34.6791
 21
345.222
  0
LINE
  8
0
 10
34.6791
 20
345.222
 11
34.1289
 21
345.524
  0
LINE
  8
0
 10
34.1289
 20
345.524
 11
33.5451
 21
345.755
  0
LINE
  8
0
 10
33.5451
 20
345.755
 11
32.9369
 21
345.911
  0
LINE
  8
0
 10
32.9369
 20
345.911
 11
32.3139
 21
345.99
  0
LINE
  8
0
 10
32.3139
 20
345.99
 11
-32.3139
 21
345.99
  0
LINE
  8
0
 10
-32.3139
 20
345.99
 11
-32.9369
 21
345.911
  0
LINE
  8
0
 10
-32.9369
 20
345.911
 11
-33.5451
 21
345.755
  0
LINE
  8
0
 10
-33.5451
 20
345.755
 11
-34.1289
 21
345.524
  0
LINE
  8
0
 10
-34.1289
 20
345.524
 11
-34.6791
 21
345.222
  0
LINE
  8
0
 10
-34.6791
 20
345.222
 11
-35.1871
 21
344.853
  0
LINE
  8
0
 10
-35.1871
 20
344.853
 11
-35.6448
 21
344.423
  0
LINE
  8
0
 10
-35.6448
 20
344.423
 11
-36.0451
 21
343.939
  0
LINE
  8
0
 10
-36.0451
 20
343.939
 11
-36.3815
 21
343.409
  0
LINE
  8
0
 10
-36.3815
 20
343.409
 11
-36.6489
 21
342.841
  0
LINE
  8
0
 10
-36.6489
 20
342.841
 11
-36.8429
 21
342.243
  0
LINE
  8
0
 10
-36.8429
 20
342.243
 11
-36.9606
 21
341.627
  0
LINE
  8
0
 10
-36.9606
 20
341.627
 11
-37
 21
341
  0
LINE
  8
0
 10
-37
 20
341
 11
-37
 21
307
  0
LINE
  8
0
 10
-37
 20
307
 11
-36.9606
 21
306.373
  0
LINE
  8
0
 10
-36.9606
 20
306.373
 11
-36.8429
 21
305.757
  0
LINE
  8
0
 10
-36.8429
 20
305.757
 11
-36.6489
 21
305.159
  0
LINE
  8
0
 10
-36.6489
 20
305.159
 11
-36.3815
 21
304.591
  0
LINE
  8
0
 10
-36.3815
 20
304.591
 11
-36.0451
 21
304.061
  0
LINE
  8
0
 10
-36.0451
 20
304.061
 11
-35.6448
 21
303.577
  0
LINE
  8
0
 10
-35.6448
 20
303.577
 11
-35.1871
 21
303.147
  0
LINE
  8
0
 10
-35.1871
 20
303.147
 11
-34.6791
 21
302.778
  0
LINE
  8
0
 10
-34.6791
 20
302.778
 11
-34.1289
 21
302.476
  0
LINE
  8
0
 10
-34.1289
 20
302.476
 11
-33.5451
 21
302.245
  0
LINE
  8
0
 10
-33.5451
 20
302.245
 11
-32.9369
 21
302.089
  0
LINE
  8
0
 10
-32.9369
 20
302.089
 11
-32.3139
 21
302.01
  0
LINE
  8
0
 10
-32.3139
 20
302.01
 11
32.3139
 21
302.01
  0
LINE
  8
0
 10
32.3139
 20
302.01
 11
32.9369
 21
302.089
  0
LINE
  8
0
 10
29.8116
 20
336.006
 11
29.4379
 21
336.053
  0
LINE
  8
0
 10
29.4379
 20
336.053
 11
29.0729
 21
336.147
  0
LINE
  8
0
 10
29.0729
 20
336.147
 11
28.7227
 21
336.286
  0
LINE
  8
0
 10
28.7227
 20
336.286
 11
28.3925
 21
336.467
  0
LINE
  8
0
 10
28.3925
 20
336.467
 11
28.0877
 21
336.688
  0
LINE
  8
0
 10
28.0877
 20
336.688
 11
27.8131
 21
336.946
  0
LINE
  8
0
 10
27.8131
 20
336.946
 11
27.5729
 21
337.237
  0
LINE
  8
0
 10
27.5729
 20
337.237
 11
27.3711
 21
337.555
  0
LINE
  8
0
 10
27.3711
 20
337.555
 11
27.2107
 21
337.896
  0
LINE
  8
0
 10
27.2107
 20
337.896
 11
27.0942
 21
338.254
  0
LINE
  8
0
 10
27.0942
 20
338.254
 11
27.0237
 21
338.624
  0
LINE
  8
0
 10
27.0237
 20
338.624
 11
27
 21
339
  0
LINE
  8
0
 10
27
 20
339
 11
27.0237
 21
339.376
  0
LINE
  8
0
 10
27.0237
 20
339.376
 11
27.0942
 21
339.746
  0
LINE
  8
0
 10
27.0942
 20
339.746
 11
27.2107
 21
340.104
  0
LINE
  8
0
 10
27.2107
 20
340.104
 11
27.3711
 21
340.445
  0
LINE
  8
0
 10
27.3711
 20
340.445
 11
27.5729
 21
340.763
  0
LINE
  8
0
 10
27.5729
 20
340.763
 11
27.8131
 21
341.054
  0
LINE
  8
0
 10
27.8131
 20
341.054
 11
28.0877
 21
341.312
  0
LINE
  8
0
 10
28.0877
 20
341.312
 11
28.3925
 21
341.533
  0
LINE
  8
0
 10
28.3925
 20
341.533
 11
28.7227
 21
341.714
  0
LINE
  8
0
 10
28.7227
 20
341.714
 11
29.0729
 21
341.853
  0
LINE
  8
0
 10
29.0729
 20
341.853
 11
29.4379
 21
341.947
  0
LINE
  8
0
 10
29.4379
 20
341.947
 11
29.8116
 21
341.994
  0
LINE
  8
0
 10
29.8116
 20
341.994
 11
30.1884
 21
341.994
  0
LINE
  8
0
 10
30.1884
 20
341.994
 11
30.5621
 21
341.947
  0
LINE
  8
0
 10
30.5621
 20
341.947
 11
30.927
 21
341.853
  0
LINE
  8
0
 10
30.927
 20
341.853
 11
31.2773
 21
341.714
  0
LINE
  8
0
 10
31.2773
 20
341.714
 11
31.6075
 21
341.533
  0
LINE
  8
0
 10
31.6075
 20
341.533
 11
31.9123
 21
341.312
  0
LINE
  8
0
 10
31.9123
 20
341.312
 11
32.1869
 21
341.054
  0
LINE
  8
0
 10
32.1869
 20
341.054
 11
32.427
 21
340.763
  0
LINE
  8
0
 10
32.427
 20
340.763
 11
32.6289
 21
340.445
  0
LINE
  8
0
 10
32.6289
 20
340.445
 11
32.7893
 21
340.104
  0
LINE
  8
0
 10
32.7893
 20
340.104
 11
32.9057
 21
339.746
  0
LINE
  8
0
 10
32.9057
 20
339.746
 11
32.9763
 21
339.376
  0
LINE
  8
0
 10
32.9763
 20
339.376
 11
33
 21
339
  0
LINE
  8
0
 10
33
 20
339
 11
32.9763
 21
338.624
  0
LINE
  8
0
 10
32.9763
 20
338.624
 11
32.9057
 21
338.254
  0
LINE
  8
0
 10
32.9057
 20
338.254
 11
32.7893
 21
337.896
  0
LINE
  8
0
 10
32.7893
 20
337.896
 11
32.6289
 21
337.555
  0
LINE
  8
0
 10
32.6289
 20
337.555
 11
32.427
 21
337.237
  0
LINE
  8
0
 10
32.427
 20
337.237
 11
32.1869
 21
336.946
  0
LINE
  8
0
 10
32.1869
 20
336.946
 11
31.9123
 21
336.688
  0
LINE
  8
0
 10
31.9123
 20
336.688
 11
31.6075
 21
336.467
  0
LINE
  8
0
 10
31.6075
 20
336.467
 11
31.2773
 21
336.286
  0
LINE
  8
0
 10
31.2773
 20
336.286
 11
30.927
 21
336.147
  0
LINE
  8
0
 10
30.927
 20
336.147
 11
30.5621
 21
336.053
  0
LINE
  8
0
 10
30.5621
 20
336.053
 11
30.1884
 21
336.006
  0
LINE
  8
0
 10
30.1884
 20
336.006
 11
29.8116
 21
336.006
  0
LINE
  8
0
 10
-30.1884
 20
336.006
 11
-30.5621
 21
336.053
  0
LINE
  8
0
 10
-30.5621
 20
336.053
 11
-30.927
 21
336.147
  0
LINE
  8
0
 10
-30.927
 20
336.147
 11
-31.2773
 21
336.286
  0
LINE
  8
0
 10
-31.2773
 20
336.286
 11
-31.6075
 21
336.467
  0
LINE
  8
0
 10
-31.6075
 20
336.467
 11
-31.9123
 21
336.688
  0
LINE
  8
0
 10
-31.9123
 20
336.688
 11
-32.1869
 21
336.946
  0
LINE
  8
0
 10
-32.1869
 20
336.946
 11
-32.427
 21
337.237
  0
LINE
  8
0
 10
-32.427
 20
337.237
 11
-32.6289
 21
337.555
  0
LINE
  8
0
 10
-32.6289
 20
337.555
 11
-32.7893
 21
337.896
  0
LINE
  8
0
 10
-32.7893
 20
337.896
 11
-32.9057
 21
338.254
  0
LINE
  8
0
 10
-32.9057
 20
338.254
 11
-32.9763
 21
338.624
  0
LINE
  8
0
 10
-32.9763
 20
338.624
 11
-33
 21
339
  0
LINE
  8
0
 10
-33
 20
339
 11
-32.9763
 21
339.376
  0
LINE
  8
0
 10
-32.9763
 20
339.376
 11
-32.9057
 21
339.746
  0
LINE
  8
0
 10
-32.9057
 20
339.746
 11
-32.7893
 21
340.104
  0
LINE
  8
0
 10
-32.7893
 20
340.104
 11
-32.6289
 21
340.445
  0
LINE
  8
0
 10
-32.6289
 20
340.445
 11
-32.427
 21
340.763
  0
LINE
  8
0
 10
-32.427
 20
340.763
 11
-32.1869
 21
341.054
  0
LINE
  8
0
 10
-32.1869
 20
341.054
 11
-31.9123
 21
341.312
  0
LINE
  8
0
 10
-31.9123
 20
341.312
 11
-31.6075
 21
341.533
  0
LINE
  8
0
 10
-31.6075
 20
341.533
 11
-31.2773
 21
341.714
  0
LINE
  8
0
 10
-31.2773
 20
341.714
 11
-30.927
 21
341.853
  0
LINE
  8
0
 10
-30.927
 20
341.853
 11
-30.5621
 21
341.947
  0
LINE
  8
0
 10
-30.5621
 20
341.947
 11
-30.1884
 21
341.994
  0
LINE
  8
0
 10
-30.1884
 20
341.994
 11
-29.8116
 21
341.994
  0
LINE
  8
0
 10
-29.8116
 20
341.994
 11
-29.4379
 21
341.947
  0
LINE
  8
0
 10
-29.4379
 20
341.947
 11
-29.0729
 21
341.853
  0
LINE
  8
0
 10
-29.0729
 20
341.853
 11
-28.7227
 21
341.714
  0
LINE
  8
0
 10
-28.7227
 20
341.714
 11
-28.3925
 21
341.533
  0
LINE
  8
0
 10
-28.3925
 20
341.533
 11
-28.0877
 21
341.312
  0
LINE
  8
0
 10
-28.0877
 20
341.312
 11
-27.8131
 21
341.054
  0
LINE
  8
0
 10
-27.8131
 20
341.054
 11
-27.5729
 21
340.763
  0
LINE
  8
0
 10
-27.5729
 20
340.763
 11
-27.3711
 21
340.445
  0
LINE
  8
0
 10
-27.3711
 20
340.445
 11
-27.2107
 21
340.104
  0
LINE
  8
0
 10
-27.2107
 20
340.104
 11
-27.0942
 21
339.746
  0
LINE
  8
0
 10
-27.0942
 20
339.746
 11
-27.0237
 21
339.376
  0
LINE
  8
0
 10
-27.0237
 20
339.376
 11
-27
 21
339
  0
LINE
  8
0
 10
-27
 20
339
 11
-27.0237
 21
338.624
  0
LINE
  8
0
 10
-27.0237
 20
338.624
 11
-27.0942
 21
338.254
  0
LINE
  8
0
 10
-27.0942
 20
338.254
 11
-27.2107
 21
337.896
  0
LINE
  8
0
 10
-27.2107
 20
337.896
 11
-27.3711
 21
337.555
  0
LINE
  8
0
 10
-27.3711
 20
337.555
 11
-27.5729
 21
337.237
  0
LINE
  8
0
 10
-27.5729
 20
337.237
 11
-27.8131
 21
336.946
  0
LINE
  8
0
 10
-27.8131
 20
336.946
 11
-28.0877
 21
336.688
  0
LINE
  8
0
 10
-28.0877
 20
336.688
 11
-28.3925
 21
336.467
  0
LINE
  8
0
 10
-28.3925
 20
336.467
 11
-28.7227
 21
336.286
  0
LINE
  8
0
 10
-28.7227
 20
336.286
 11
-29.0729
 21
336.147
  0
LINE
  8
0
 10
-29.0729
 20
336.147
 11
-29.4379
 21
336.053
  0
LINE
  8
0
 10
-29.4379
 20
336.053
 11
-29.8116
 21
336.006
  0
LINE
  8
0
 10
-29.8116
 20
336.006
 11
-30.1884
 21
336.006
  0
LINE
  8
0
 10
-30.1884
 20
306.006
 11
-30.5621
 21
306.053
  0
LINE
  8
0
 10
-30.5621
 20
306.053
 11
-30.927
 21
306.147
  0
LINE
  8
0
 10
-30.927
 20
306.147
 11
-31.2773
 21
306.286
  0
LINE
  8
0
 10
-31.2773
 20
306.286
 11
-31.6075
 21
306.467
  0
LINE
  8
0
 10
-31.6075
 20
306.467
 11
-31.9123
 21
306.688
  0
LINE
  8
0
 10
-31.9123
 20
306.688
 11
-32.1869
 21
306.946
  0
LINE
  8
0
 10
-32.1869
 20
306.946
 11
-32.427
 21
307.237
  0
LINE
  8
0
 10
-32.427
 20
307.237
 11
-32.6289
 21
307.555
  0
LINE
  8
0
 10
-32.6289
 20
307.555
 11
-32.7893
 21
307.896
  0
LINE
  8
0
 10
-32.7893
 20
307.896
 11
-32.9057
 21
308.254
  0
LINE
  8
0
 10
-32.9057
 20
308.254
 11
-32.9763
 21
308.624
  0
LINE
  8
0
 10
-32.9763
 20
308.624
 11
-33
 21
309
  0
LINE
  8
0
 10
-33
 20
309
 11
-32.9763
 21
309.376
  0
LINE
  8
0
 10
-32.9763
 20
309.376
 11
-32.9057
 21
309.746
  0
LINE
  8
0
 10
-32.9057
 20
309.746
 11
-32.7893
 21
310.104
  0
LINE
  8
0
 10
-32.7893
 20
310.104
 11
-32.6289
 21
310.445
  0
LINE
  8
0
 10
-32.6289
 20
310.445
 11
-32.427
 21
310.763
  0
LINE
  8
0
 10
-32.427
 20
310.763
 11
-32.1869
 21
311.054
  0
LINE
  8
0
 10
-32.1869
 20
311.054
 11
-31.9123
 21
311.312
  0
LINE
  8
0
 10
-31.9123
 20
311.312
 11
-31.6075
 21
311.533
  0
LINE
  8
0
 10
-31.6075
 20
311.533
 11
-31.2773
 21
311.714
  0
LINE
  8
0
 10
-31.2773
 20
311.714
 11
-30.927
 21
311.853
  0
LINE
  8
0
 10
-30.927
 20
311.853
 11
-30.5621
 21
311.947
  0
LINE
  8
0
 10
-30.5621
 20
311.947
 11
-30.1884
 21
311.994
  0
LINE
  8
0
 10
-30.1884
 20
311.994
 11
-29.8116
 21
311.994
  0
LINE
  8
0
 10
-29.8116
 20
311.994
 11
-29.4379
 21
311.947
  0
LINE
  8
0
 10
-29.4379
 20
311.947
 11
-29.0729
 21
311.853
  0
LINE
  8
0
 10
-29.0729
 20
311.853
 11
-28.7227
 21
311.714
  0
LINE
  8
0
 10
-28.7227
 20
311.714
 11
-28.3925
 21
311.533
  0
LINE
  8
0
 10
-28.3925
 20
311.533
 11
-28.0877
 21
311.312
  0
LINE
  8
0
 10
-28.0877
 20
311.312
 11
-27.8131
 21
311.054
  0
LINE
  8
0
 10
-27.8131
 20
311.054
 11
-27.5729
 21
310.763
  0
LINE
  8
0
 10
-27.5729
 20
310.763
 11
-27.3711
 21
310.445
  0
LINE
  8
0
 10
-27.3711
 20
310.445
 11
-27.2107
 21
310.104
  0
LINE
  8
0
 10
-27.2107
 20
310.104
 11
-27.0942
 21
309.746
  0
LINE
  8
0
 10
-27.0942
 20
309.746
 11
-27.0237
 21
309.376
  0
LINE
  8
0
 10
-27.0237
 20
309.376
 11
-27
 21
309
  0
LINE
  8
0
 10
-27
 20
309
 11
-27.0237
 21
308.624
  0
LINE
  8
0
 10
-27.0237
 20
308.624
 11
-27.0942
 21
308.254
  0
LINE
  8
0
 10
-27.0942
 20
308.254
 11
-27.2107
 21
307.896
  0
LINE
  8
0
 10
-27.2107
 20
307.896
 11
-27.3711
 21
307.555
  0
LINE
  8
0
 10
-27.3711
 20
307.555
 11
-27.5729
 21
307.237
  0
LINE
  8
0
 10
-27.5729
 20
307.237
 11
-27.8131
 21
306.946
  0
LINE
  8
0
 10
-27.8131
 20
306.946
 11
-28.0877
 21
306.688
  0
LINE
  8
0
 10
-28.0877
 20
306.688
 11
-28.3925
 21
306.467
  0
LINE
  8
0
 10
-28.3925
 20
306.467
 11
-28.7227
 21
306.286
  0
LINE
  8
0
 10
-28.7227
 20
306.286
 11
-29.0729
 21
306.147
  0
LINE
  8
0
 10
-29.0729
 20
306.147
 11
-29.4379
 21
306.053
  0
LINE
  8
0
 10
-29.4379
 20
306.053
 11
-29.8116
 21
306.006
  0
LINE
  8
0
 10
-29.8116
 20
306.006
 11
-30.1884
 21
306.006
  0
LINE
  8
0
 10
29.8116
 20
306.006
 11
29.4379
 21
306.053
  0
LINE
  8
0
 10
29.4379
 20
306.053
 11
29.0729
 21
306.147
  0
LINE
  8
0
 10
29.0729
 20
306.147
 11
28.7227
 21
306.286
  0
LINE
  8
0
 10
28.7227
 20
306.286
 11
28.3925
 21
306.467
  0
LINE
  8
0
 10
28.3925
 20
306.467
 11
28.0877
 21
306.688
  0
LINE
  8
0
 10
28.0877
 20
306.688
 11
27.8131
 21
306.946
  0
LINE
  8
0
 10
27.8131
 20
306.946
 11
27.5729
 21
307.237
  0
LINE
  8
0
 10
27.5729
 20
307.237
 11
27.3711
 21
307.555
  0
LINE
  8
0
 10
27.3711
 20
307.555
 11
27.2107
 21
307.896
  0
LINE
  8
0
 10
27.2107
 20
307.896
 11
27.0942
 21
308.254
  0
LINE
  8
0
 10
27.0942
 20
308.254
 11
27.0237
 21
308.624
  0
LINE
  8
0
 10
27.0237
 20
308.624
 11
27
 21
309
  0
LINE
  8
0
 10
27
 20
309
 11
27.0237
 21
309.376
  0
LINE
  8
0
 10
27.0237
 20
309.376
 11
27.0942
 21
309.746
  0
LINE
  8
0
 10
27.0942
 20
309.746
 11
27.2107
 21
310.104
  0
LINE
  8
0
 10
27.2107
 20
310.104
 11
27.3711
 21
310.445
  0
LINE
  8
0
 10
27.3711
 20
310.445
 11
27.5729
 21
310.763
  0
LINE
  8
0
 10
27.5729
 20
310.763
 11
27.8131
 21
311.054
  0
LINE
  8
0
 10
27.8131
 20
311.054
 11
28.0877
 21
311.312
  0
LINE
  8
0
 10
28.0877
 20
311.312
 11
28.3925
 21
311.533
  0
LINE
  8
0
 10
28.3925
 20
311.533
 11
28.7227
 21
311.714
  0
LINE
  8
0
 10
28.7227
 20
311.714
 11
29.0729
 21
311.853
  0
LINE
  8
0
 10
29.0729
 20
311.853
 11
29.4379
 21
311.947
  0
LINE
  8
0
 10
29.4379
 20
311.947
 11
29.8116
 21
311.994
  0
LINE
  8
0
 10
29.8116
 20
311.994
 11
30.1884
 21
311.994
  0
LINE
  8
0
 10
30.1884
 20
311.994
 11
30.5621
 21
311.947
  0
LINE
  8
0
 10
30.5621
 20
311.947
 11
30.927
 21
311.853
  0
LINE
  8
0
 10
30.927
 20
311.853
 11
31.2773
 21
311.714
  0
LINE
  8
0
 10
31.2773
 20
311.714
 11
31.6075
 21
311.533
  0
LINE
  8
0
 10
31.6075
 20
311.533
 11
31.9123
 21
311.312
  0
LINE
  8
0
 10
31.9123
 20
311.312
 11
32.1869
 21
311.054
  0
LINE
  8
0
 10
32.1869
 20
311.054
 11
32.427
 21
310.763
  0
LINE
  8
0
 10
32.427
 20
310.763
 11
32.6289
 21
310.445
  0
LINE
  8
0
 10
32.6289
 20
310.445
 11
32.7893
 21
310.104
  0
LINE
  8
0
 10
32.7893
 20
310.104
 11
32.9057
 21
309.746
  0
LINE
  8
0
 10
32.9057
 20
309.746
 11
32.9763
 21
309.376
  0
LINE
  8
0
 10
32.9763
 20
309.376
 11
33
 21
309
  0
LINE
  8
0
 10
33
 20
309
 11
32.9763
 21
308.624
  0
LINE
  8
0
 10
32.9763
 20
308.624
 11
32.9057
 21
308.254
  0
LINE
  8
0
 10
32.9057
 20
308.254
 11
32.7893
 21
307.896
  0
LINE
  8
0
 10
32.7893
 20
307.896
 11
32.6289
 21
307.555
  0
LINE
  8
0
 10
32.6289
 20
307.555
 11
32.427
 21
307.237
  0
LINE
  8
0
 10
32.427
 20
307.237
 11
32.1869
 21
306.946
  0
LINE
  8
0
 10
32.1869
 20
306.946
 11
31.9123
 21
306.688
  0
LINE
  8
0
 10
31.9123
 20
306.688
 11
31.6075
 21
306.467
  0
LINE
  8
0
 10
31.6075
 20
306.467
 11
31.2773
 21
306.286
  0
LINE
  8
0
 10
31.2773
 20
306.286
 11
30.927
 21
306.147
  0
LINE
  8
0
 10
30.927
 20
306.147
 11
30.5621
 21
306.053
  0
LINE
  8
0
 10
30.5621
 20
306.053
 11
30.1884
 21
306.006
  0
LINE
  8
0
 10
30.1884
 20
306.006
 11
29.8116
 21
306.006
  0
LINE
  8
0
 10
32.9369
 20
248.089
 11
33.5451
 21
248.245
  0
LINE
  8
0
 10
33.5451
 20
248.245
 11
34.1289
 21
248.476
  0
LINE
  8
0
 10
34.1289
 20
248.476
 11
34.6791
 21
248.778
  0
LINE
  8
0
 10
34.6791
 20
248.778
 11
35.1871
 21
249.147
  0
LINE
  8
0
 10
35.1871
 20
249.147
 11
35.6448
 21
249.577
  0
LINE
  8
0
 10
35.6448
 20
249.577
 11
36.0451
 21
250.061
  0
LINE
  8
0
 10
36.0451
 20
250.061
 11
36.3815
 21
250.591
  0
LINE
  8
0
 10
36.3815
 20
250.591
 11
36.6489
 21
251.159
  0
LINE
  8
0
 10
36.6489
 20
251.159
 11
36.8429
 21
251.757
  0
LINE
  8
0
 10
36.8429
 20
251.757
 11
36.9606
 21
252.373
  0
LINE
  8
0
 10
36.9606
 20
252.373
 11
37
 21
253
  0
LINE
  8
0
 10
37
 20
253
 11
37
 21
287
  0
LINE
  8
0
 10
37
 20
287
 11
36.9606
 21
287.627
  0
LINE
  8
0
 10
36.9606
 20
287.627
 11
36.8429
 21
288.243
  0
LINE
  8
0
 10
36.8429
 20
288.243
 11
36.6489
 21
288.841
  0
LINE
  8
0
 10
36.6489
 20
288.841
 11
36.3815
 21
289.409
  0
LINE
  8
0
 10
36.3815
 20
289.409
 11
36.0451
 21
289.939
  0
LINE
  8
0
 10
36.0451
 20
289.939
 11
35.6448
 21
290.423
  0
LINE
  8
0
 10
35.6448
 20
290.423
 11
35.1871
 21
290.853
  0
LINE
  8
0
 10
35.1871
 20
290.853
 11
34.6791
 21
291.222
  0
LINE
  8
0
 10
34.6791
 20
291.222
 11
34.1289
 21
291.524
  0
LINE
  8
0
 10
34.1289
 20
291.524
 11
33.5451
 21
291.755
  0
LINE
  8
0
 10
33.5451
 20
291.755
 11
32.9369
 21
291.911
  0
LINE
  8
0
 10
32.9369
 20
291.911
 11
32.3139
 21
291.99
  0
LINE
  8
0
 10
32.3139
 20
291.99
 11
-32.3139
 21
291.99
  0
LINE
  8
0
 10
-32.3139
 20
291.99
 11
-32.9369
 21
291.911
  0
LINE
  8
0
 10
-32.9369
 20
291.911
 11
-33.5451
 21
291.755
  0
LINE
  8
0
 10
-33.5451
 20
291.755
 11
-34.1289
 21
291.524
  0
LINE
  8
0
 10
-34.1289
 20
291.524
 11
-34.6791
 21
291.222
  0
LINE
  8
0
 10
-34.6791
 20
291.222
 11
-35.1871
 21
290.853
  0
LINE
  8
0
 10
-35.1871
 20
290.853
 11
-35.6448
 21
290.423
  0
LINE
  8
0
 10
-35.6448
 20
290.423
 11
-36.0451
 21
289.939
  0
LINE
  8
0
 10
-36.0451
 20
289.939
 11
-36.3815
 21
289.409
  0
LINE
  8
0
 10
-36.3815
 20
289.409
 11
-36.6489
 21
288.841
  0
LINE
  8
0
 10
-36.6489
 20
288.841
 11
-36.8429
 21
288.243
  0
LINE
  8
0
 10
-36.8429
 20
288.243
 11
-36.9606
 21
287.627
  0
LINE
  8
0
 10
-36.9606
 20
287.627
 11
-37
 21
287
  0
LINE
  8
0
 10
-37
 20
287
 11
-37
 21
253
  0
LINE
  8
0
 10
-37
 20
253
 11
-36.9606
 21
252.373
  0
LINE
  8
0
 10
-36.9606
 20
252.373
 11
-36.8429
 21
251.757
  0
LINE
  8
0
 10
-36.8429
 20
251.757
 11
-36.6489
 21
251.159
  0
LINE
  8
0
 10
-36.6489
 20
251.159
 11
-36.3815
 21
250.591
  0
LINE
  8
0
 10
-36.3815
 20
250.591
 11
-36.0451
 21
250.061
  0
LINE
  8
0
 10
-36.0451
 20
250.061
 11
-35.6448
 21
249.577
  0
LINE
  8
0
 10
-35.6448
 20
249.577
 11
-35.1871
 21
249.147
  0
LINE
  8
0
 10
-35.1871
 20
249.147
 11
-34.6791
 21
248.778
  0
LINE
  8
0
 10
-34.6791
 20
248.778
 11
-34.1289
 21
248.476
  0
LINE
  8
0
 10
-34.1289
 20
248.476
 11
-33.5451
 21
248.245
  0
LINE
  8
0
 10
-33.5451
 20
248.245
 11
-32.9369
 21
248.089
  0
LINE
  8
0
 10
-32.9369
 20
248.089
 11
-32.3139
 21
248.01
  0
LINE
  8
0
 10
-32.3139
 20
248.01
 11
32.3139
 21
248.01
  0
LINE
  8
0
 10
32.3139
 20
248.01
 11
32.9369
 21
248.089
  0
LINE
  8
0
 10
-30.1884
 20
282.006
 11
-30.5621
 21
282.053
  0
LINE
  8
0
 10
-30.5621
 20
282.053
 11
-30.927
 21
282.147
  0
LINE
  8
0
 10
-30.927
 20
282.147
 11
-31.2773
 21
282.286
  0
LINE
  8
0
 10
-31.2773
 20
282.286
 11
-31.6075
 21
282.467
  0
LINE
  8
0
 10
-31.6075
 20
282.467
 11
-31.9123
 21
282.688
  0
LINE
  8
0
 10
-31.9123
 20
282.688
 11
-32.1869
 21
282.946
  0
LINE
  8
0
 10
-32.1869
 20
282.946
 11
-32.427
 21
283.237
  0
LINE
  8
0
 10
-32.427
 20
283.237
 11
-32.6289
 21
283.555
  0
LINE
  8
0
 10
-32.6289
 20
283.555
 11
-32.7893
 21
283.896
  0
LINE
  8
0
 10
-32.7893
 20
283.896
 11
-32.9057
 21
284.254
  0
LINE
  8
0
 10
-32.9057
 20
284.254
 11
-32.9763
 21
284.624
  0
LINE
  8
0
 10
-32.9763
 20
284.624
 11
-33
 21
285
  0
LINE
  8
0
 10
-33
 20
285
 11
-32.9763
 21
285.376
  0
LINE
  8
0
 10
-32.9763
 20
285.376
 11
-32.9057
 21
285.746
  0
LINE
  8
0
 10
-32.9057
 20
285.746
 11
-32.7893
 21
286.104
  0
LINE
  8
0
 10
-32.7893
 20
286.104
 11
-32.6289
 21
286.445
  0
LINE
  8
0
 10
-32.6289
 20
286.445
 11
-32.427
 21
286.763
  0
LINE
  8
0
 10
-32.427
 20
286.763
 11
-32.1869
 21
287.054
  0
LINE
  8
0
 10
-32.1869
 20
287.054
 11
-31.9123
 21
287.312
  0
LINE
  8
0
 10
-31.9123
 20
287.312
 11
-31.6075
 21
287.533
  0
LINE
  8
0
 10
-31.6075
 20
287.533
 11
-31.2773
 21
287.714
  0
LINE
  8
0
 10
-31.2773
 20
287.714
 11
-30.927
 21
287.853
  0
LINE
  8
0
 10
-30.927
 20
287.853
 11
-30.5621
 21
287.947
  0
LINE
  8
0
 10
-30.5621
 20
287.947
 11
-30.1884
 21
287.994
  0
LINE
  8
0
 10
-30.1884
 20
287.994
 11
-29.8116
 21
287.994
  0
LINE
  8
0
 10
-29.8116
 20
287.994
 11
-29.4379
 21
287.947
  0
LINE
  8
0
 10
-29.4379
 20
287.947
 11
-29.0729
 21
287.853
  0
LINE
  8
0
 10
-29.0729
 20
287.853
 11
-28.7227
 21
287.714
  0
LINE
  8
0
 10
-28.7227
 20
287.714
 11
-28.3925
 21
287.533
  0
LINE
  8
0
 10
-28.3925
 20
287.533
 11
-28.0877
 21
287.312
  0
LINE
  8
0
 10
-28.0877
 20
287.312
 11
-27.8131
 21
287.054
  0
LINE
  8
0
 10
-27.8131
 20
287.054
 11
-27.5729
 21
286.763
  0
LINE
  8
0
 10
-27.5729
 20
286.763
 11
-27.3711
 21
286.445
  0
LINE
  8
0
 10
-27.3711
 20
286.445
 11
-27.2107
 21
286.104
  0
LINE
  8
0
 10
-27.2107
 20
286.104
 11
-27.0942
 21
285.746
  0
LINE
  8
0
 10
-27.0942
 20
285.746
 11
-27.0237
 21
285.376
  0
LINE
  8
0
 10
-27.0237
 20
285.376
 11
-27
 21
285
  0
LINE
  8
0
 10
-27
 20
285
 11
-27.0237
 21
284.624
  0
LINE
  8
0
 10
-27.0237
 20
284.624
 11
-27.0942
 21
284.254
  0
LINE
  8
0
 10
-27.0942
 20
284.254
 11
-27.2107
 21
283.896
  0
LINE
  8
0
 10
-27.2107
 20
283.896
 11
-27.3711
 21
283.555
  0
LINE
  8
0
 10
-27.3711
 20
283.555
 11
-27.5729
 21
283.237
  0
LINE
  8
0
 10
-27.5729
 20
283.237
 11
-27.8131
 21
282.946
  0
LINE
  8
0
 10
-27.8131
 20
282.946
 11
-28.0877
 21
282.688
  0
LINE
  8
0
 10
-28.0877
 20
282.688
 11
-28.3925
 21
282.467
  0
LINE
  8
0
 10
-28.3925
 20
282.467
 11
-28.7227
 21
282.286
  0
LINE
  8
0
 10
-28.7227
 20
282.286
 11
-29.0729
 21
282.147
  0
LINE
  8
0
 10
-29.0729
 20
282.147
 11
-29.4379
 21
282.053
  0
LINE
  8
0
 10
-29.4379
 20
282.053
 11
-29.8116
 21
282.006
  0
LINE
  8
0
 10
-29.8116
 20
282.006
 11
-30.1884
 21
282.006
  0
LINE
  8
0
 10
29.8116
 20
282.006
 11
29.4379
 21
282.053
  0
LINE
  8
0
 10
29.4379
 20
282.053
 11
29.0729
 21
282.147
  0
LINE
  8
0
 10
29.0729
 20
282.147
 11
28.7227
 21
282.286
  0
LINE
  8
0
 10
28.7227
 20
282.286
 11
28.3925
 21
282.467
  0
LINE
  8
0
 10
28.3925
 20
282.467
 11
28.0877
 21
282.688
  0
LINE
  8
0
 10
28.0877
 20
282.688
 11
27.8131
 21
282.946
  0
LINE
  8
0
 10
27.8131
 20
282.946
 11
27.5729
 21
283.237
  0
LINE
  8
0
 10
27.5729
 20
283.237
 11
27.3711
 21
283.555
  0
LINE
  8
0
 10
27.3711
 20
283.555
 11
27.2107
 21
283.896
  0
LINE
  8
0
 10
27.2107
 20
283.896
 11
27.0942
 21
284.254
  0
LINE
  8
0
 10
27.0942
 20
284.254
 11
27.0237
 21
284.624
  0
LINE
  8
0
 10
27.0237
 20
284.624
 11
27
 21
285
  0
LINE
  8
0
 10
27
 20
285
 11
27.0237
 21
285.376
  0
LINE
  8
0
 10
27.0237
 20
285.376
 11
27.0942
 21
285.746
  0
LINE
  8
0
 10
27.0942
 20
285.746
 11
27.2107
 21
286.104
  0
LINE
  8
0
 10
27.2107
 20
286.104
 11
27.3711
 21
286.445
  0
LINE
  8
0
 10
27.3711
 20
286.445
 11
27.5729
 21
286.763
  0
LINE
  8
0
 10
27.5729
 20
286.763
 11
27.8131
 21
287.054
  0
LINE
  8
0
 10
27.8131
 20
287.054
 11
28.0877
 21
287.312
  0
LINE
  8
0
 10
28.0877
 20
287.312
 11
28.3925
 21
287.533
  0
LINE
  8
0
 10
28.3925
 20
287.533
 11
28.7227
 21
287.714
  0
LINE
  8
0
 10
28.7227
 20
287.714
 11
29.0729
 21
287.853
  0
LINE
  8
0
 10
29.0729
 20
287.853
 11
29.4379
 21
287.947
  0
LINE
  8
0
 10
29.4379
 20
287.947
 11
29.8116
 21
287.994
  0
LINE
  8
0
 10
29.8116
 20
287.994
 11
30.1884
 21
287.994
  0
LINE
  8
0
 10
30.1884
 20
287.994
 11
30.5621
 21
287.947
  0
LINE
  8
0
 10
30.5621
 20
287.947
 11
30.927
 21
287.853
  0
LINE
  8
0
 10
30.927
 20
287.853
 11
31.2773
 21
287.714
  0
LINE
  8
0
 10
31.2773
 20
287.714
 11
31.6075
 21
287.533
  0
LINE
  8
0
 10
31.6075
 20
287.533
 11
31.9123
 21
287.312
  0
LINE
  8
0
 10
31.9123
 20
287.312
 11
32.1869
 21
287.054
  0
LINE
  8
0
 10
32.1869
 20
287.054
 11
32.427
 21
286.763
  0
LINE
  8
0
 10
32.427
 20
286.763
 11
32.6289
 21
286.445
  0
LINE
  8
0
 10
32.6289
 20
286.445
 11
32.7893
 21
286.104
  0
LINE
  8
0
 10
32.7893
 20
286.104
 11
32.9057
 21
285.746
  0
LINE
  8
0
 10
32.9057
 20
285.746
 11
32.9763
 21
285.376
  0
LINE
  8
0
 10
32.9763
 20
285.376
 11
33
 21
285
  0
LINE
  8
0
 10
33
 20
285
 11
32.9763
 21
284.624
  0
LINE
  8
0
 10
32.9763
 20
284.624
 11
32.9057
 21
284.254
  0
LINE
  8
0
 10
32.9057
 20
284.254
 11
32.7893
 21
283.896
  0
LINE
  8
0
 10
32.7893
 20
283.896
 11
32.6289
 21
283.555
  0
LINE
  8
0
 10
32.6289
 20
283.555
 11
32.427
 21
283.237
  0
LINE
  8
0
 10
32.427
 20
283.237
 11
32.1869
 21
282.946
  0
LINE
  8
0
 10
32.1869
 20
282.946
 11
31.9123
 21
282.688
  0
LINE
  8
0
 10
31.9123
 20
282.688
 11
31.6075
 21
282.467
  0
LINE
  8
0
 10
31.6075
 20
282.467
 11
31.2773
 21
282.286
  0
LINE
  8
0
 10
31.2773
 20
282.286
 11
30.927
 21
282.147
  0
LINE
  8
0
 10
30.927
 20
282.147
 11
30.5621
 21
282.053
  0
LINE
  8
0
 10
30.5621
 20
282.053
 11
30.1884
 21
282.006
  0
LINE
  8
0
 10
30.1884
 20
282.006
 11
29.8116
 21
282.006
  0
LINE
  8
0
 10
29.8116
 20
252.006
 11
29.4379
 21
252.053
  0
LINE
  8
0
 10
29.4379
 20
252.053
 11
29.0729
 21
252.147
  0
LINE
  8
0
 10
29.0729
 20
252.147
 11
28.7227
 21
252.286
  0
LINE
  8
0
 10
28.7227
 20
252.286
 11
28.3925
 21
252.467
  0
LINE
  8
0
 10
28.3925
 20
252.467
 11
28.0877
 21
252.688
  0
LINE
  8
0
 10
28.0877
 20
252.688
 11
27.8131
 21
252.946
  0
LINE
  8
0
 10
27.8131
 20
252.946
 11
27.5729
 21
253.237
  0
LINE
  8
0
 10
27.5729
 20
253.237
 11
27.3711
 21
253.555
  0
LINE
  8
0
 10
27.3711
 20
253.555
 11
27.2107
 21
253.896
  0
LINE
  8
0
 10
27.2107
 20
253.896
 11
27.0942
 21
254.254
  0
LINE
  8
0
 10
27.0942
 20
254.254
 11
27.0237
 21
254.624
  0
LINE
  8
0
 10
27.0237
 20
254.624
 11
27
 21
255
  0
LINE
  8
0
 10
27
 20
255
 11
27.0237
 21
255.376
  0
LINE
  8
0
 10
27.0237
 20
255.376
 11
27.0942
 21
255.746
  0
LINE
  8
0
 10
27.0942
 20
255.746
 11
27.2107
 21
256.104
  0
LINE
  8
0
 10
27.2107
 20
256.104
 11
27.3711
 21
256.445
  0
LINE
  8
0
 10
27.3711
 20
256.445
 11
27.5729
 21
256.763
  0
LINE
  8
0
 10
27.5729
 20
256.763
 11
27.8131
 21
257.054
  0
LINE
  8
0
 10
27.8131
 20
257.054
 11
28.0877
 21
257.312
  0
LINE
  8
0
 10
28.0877
 20
257.312
 11
28.3925
 21
257.533
  0
LINE
  8
0
 10
28.3925
 20
257.533
 11
28.7227
 21
257.714
  0
LINE
  8
0
 10
28.7227
 20
257.714
 11
29.0729
 21
257.853
  0
LINE
  8
0
 10
29.0729
 20
257.853
 11
29.4379
 21
257.947
  0
LINE
  8
0
 10
29.4379
 20
257.947
 11
29.8116
 21
257.994
  0
LINE
  8
0
 10
29.8116
 20
257.994
 11
30.1884
 21
257.994
  0
LINE
  8
0
 10
30.1884
 20
257.994
 11
30.5621
 21
257.947
  0
LINE
  8
0
 10
30.5621
 20
257.947
 11
30.927
 21
257.853
  0
LINE
  8
0
 10
30.927
 20
257.853
 11
31.2773
 21
257.714
  0
LINE
  8
0
 10
31.2773
 20
257.714
 11
31.6075
 21
257.533
  0
LINE
  8
0
 10
31.6075
 20
257.533
 11
31.9123
 21
257.312
  0
LINE
  8
0
 10
31.9123
 20
257.312
 11
32.1869
 21
257.054
  0
LINE
  8
0
 10
32.1869
 20
257.054
 11
32.427
 21
256.763
  0
LINE
  8
0
 10
32.427
 20
256.763
 11
32.6289
 21
256.445
  0
LINE
  8
0
 10
32.6289
 20
256.445
 11
32.7893
 21
256.104
  0
LINE
  8
0
 10
32.7893
 20
256.104
 11
32.9057
 21
255.746
  0
LINE
  8
0
 10
32.9057
 20
255.746
 11
32.9763
 21
255.376
  0
LINE
  8
0
 10
32.9763
 20
255.376
 11
33
 21
255
  0
LINE
  8
0
 10
33
 20
255
 11
32.9763
 21
254.624
  0
LINE
  8
0
 10
32.9763
 20
254.624
 11
32.9057
 21
254.254
  0
LINE
  8
0
 10
32.9057
 20
254.254
 11
32.7893
 21
253.896
  0
LINE
  8
0
 10
32.7893
 20
253.896
 11
32.6289
 21
253.555
  0
LINE
  8
0
 10
32.6289
 20
253.555
 11
32.427
 21
253.237
  0
LINE
  8
0
 10
32.427
 20
253.237
 11
32.1869
 21
252.946
  0
LINE
  8
0
 10
32.1869
 20
252.946
 11
31.9123
 21
252.688
  0
LINE
  8
0
 10
31.9123
 20
252.688
 11
31.6075
 21
252.467
  0
LINE
  8
0
 10
31.6075
 20
252.467
 11
31.2773
 21
252.286
  0
LINE
  8
0
 10
31.2773
 20
252.286
 11
30.927
 21
252.147
  0
LINE
  8
0
 10
30.927
 20
252.147
 11
30.5621
 21
252.053
  0
LINE
  8
0
 10
30.5621
 20
252.053
 11
30.1884
 21
252.006
  0
LINE
  8
0
 10
30.1884
 20
252.006
 11
29.8116
 21
252.006
  0
LINE
  8
0
 10
-30.1884
 20
252.006
 11
-30.5621
 21
252.053
  0
LINE
  8
0
 10
-30.5621
 20
252.053
 11
-30.927
 21
252.147
  0
LINE
  8
0
 10
-30.927
 20
252.147
 11
-31.2773
 21
252.286
  0
LINE
  8
0
 10
-31.2773
 20
252.286
 11
-31.6075
 21
252.467
  0
LINE
  8
0
 10
-31.6075
 20
252.467
 11
-31.9123
 21
252.688
  0
LINE
  8
0
 10
-31.9123
 20
252.688
 11
-32.1869
 21
252.946
  0
LINE
  8
0
 10
-32.1869
 20
252.946
 11
-32.427
 21
253.237
  0
LINE
  8
0
 10
-32.427
 20
253.237
 11
-32.6289
 21
253.555
  0
LINE
  8
0
 10
-32.6289
 20
253.555
 11
-32.7893
 21
253.896
  0
LINE
  8
0
 10
-32.7893
 20
253.896
 11
-32.9057
 21
254.254
  0
LINE
  8
0
 10
-32.9057
 20
254.254
 11
-32.9763
 21
254.624
  0
LINE
  8
0
 10
-32.9763
 20
254.624
 11
-33
 21
255
  0
LINE
  8
0
 10
-33
 20
255
 11
-32.9763
 21
255.376
  0
LINE
  8
0
 10
-32.9763
 20
255.376
 11
-32.9057
 21
255.746
  0
LINE
  8
0
 10
-32.9057
 20
255.746
 11
-32.7893
 21
256.104
  0
LINE
  8
0
 10
-32.7893
 20
256.104
 11
-32.6289
 21
256.445
  0
LINE
  8
0
 10
-32.6289
 20
256.445
 11
-32.427
 21
256.763
  0
LINE
  8
0
 10
-32.427
 20
256.763
 11
-32.1869
 21
257.054
  0
LINE
  8
0
 10
-32.1869
 20
257.054
 11
-31.9123
 21
257.312
  0
LINE
  8
0
 10
-31.9123
 20
257.312
 11
-31.6075
 21
257.533
  0
LINE
  8
0
 10
-31.6075
 20
257.533
 11
-31.2773
 21
257.714
  0
LINE
  8
0
 10
-31.2773
 20
257.714
 11
-30.927
 21
257.853
  0
LINE
  8
0
 10
-30.927
 20
257.853
 11
-30.5621
 21
257.947
  0
LINE
  8
0
 10
-30.5621
 20
257.947
 11
-30.1884
 21
257.994
  0
LINE
  8
0
 10
-30.1884
 20
257.994
 11
-29.8116
 21
257.994
  0
LINE
  8
0
 10
-29.8116
 20
257.994
 11
-29.4379
 21
257.947
  0
LINE
  8
0
 10
-29.4379
 20
257.947
 11
-29.0729
 21
257.853
  0
LINE
  8
0
 10
-29.0729
 20
257.853
 11
-28.7227
 21
257.714
  0
LINE
  8
0
 10
-28.7227
 20
257.714
 11
-28.3925
 21
257.533
  0
LINE
  8
0
 10
-28.3925
 20
257.533
 11
-28.0877
 21
257.312
  0
LINE
  8
0
 10
-28.0877
 20
257.312
 11
-27.8131
 21
257.054
  0
LINE
  8
0
 10
-27.8131
 20
257.054
 11
-27.5729
 21
256.763
  0
LINE
  8
0
 10
-27.5729
 20
256.763
 11
-27.3711
 21
256.445
  0
LINE
  8
0
 10
-27.3711
 20
256.445
 11
-27.2107
 21
256.104
  0
LINE
  8
0
 10
-27.2107
 20
256.104
 11
-27.0942
 21
255.746
  0
LINE
  8
0
 10
-27.0942
 20
255.746
 11
-27.0237
 21
255.376
  0
LINE
  8
0
 10
-27.0237
 20
255.376
 11
-27
 21
255
  0
LINE
  8
0
 10
-27
 20
255
 11
-27.0237
 21
254.624
  0
LINE
  8
0
 10
-27.0237
 20
254.624
 11
-27.0942
 21
254.254
  0
LINE
  8
0
 10
-27.0942
 20
254.254
 11
-27.2107
 21
253.896
  0
LINE
  8
0
 10
-27.2107
 20
253.896
 11
-27.3711
 21
253.555
  0
LINE
  8
0
 10
-27.3711
 20
253.555
 11
-27.5729
 21
253.237
  0
LINE
  8
0
 10
-27.5729
 20
253.237
 11
-27.8131
 21
252.946
  0
LINE
  8
0
 10
-27.8131
 20
252.946
 11
-28.0877
 21
252.688
  0
LINE
  8
0
 10
-28.0877
 20
252.688
 11
-28.3925
 21
252.467
  0
LINE
  8
0
 10
-28.3925
 20
252.467
 11
-28.7227
 21
252.286
  0
LINE
  8
0
 10
-28.7227
 20
252.286
 11
-29.0729
 21
252.147
  0
LINE
  8
0
 10
-29.0729
 20
252.147
 11
-29.4379
 21
252.053
  0
LINE
  8
0
 10
-29.4379
 20
252.053
 11
-29.8116
 21
252.006
  0
LINE
  8
0
 10
-29.8116
 20
252.006
 11
-30.1884
 21
252.006
  0
LINE
  8
0
 10
32.9369
 20
194.089
 11
33.5451
 21
194.245
  0
LINE
  8
0
 10
33.5451
 20
194.245
 11
34.1289
 21
194.476
  0
LINE
  8
0
 10
34.1289
 20
194.476
 11
34.6791
 21
194.778
  0
LINE
  8
0
 10
34.6791
 20
194.778
 11
35.1871
 21
195.147
  0
LINE
  8
0
 10
35.1871
 20
195.147
 11
35.6448
 21
195.577
  0
LINE
  8
0
 10
35.6448
 20
195.577
 11
36.0451
 21
196.061
  0
LINE
  8
0
 10
36.0451
 20
196.061
 11
36.3815
 21
196.591
  0
LINE
  8
0
 10
36.3815
 20
196.591
 11
36.6489
 21
197.159
  0
LINE
  8
0
 10
36.6489
 20
197.159
 11
36.8429
 21
197.757
  0
LINE
  8
0
 10
36.8429
 20
197.757
 11
36.9606
 21
198.373
  0
LINE
  8
0
 10
36.9606
 20
198.373
 11
37
 21
199
  0
LINE
  8
0
 10
37
 20
199
 11
37
 21
233
  0
LINE
  8
0
 10
37
 20
233
 11
36.9606
 21
233.627
  0
LINE
  8
0
 10
36.9606
 20
233.627
 11
36.8429
 21
234.243
  0
LINE
  8
0
 10
36.8429
 20
234.243
 11
36.6489
 21
234.841
  0
LINE
  8
0
 10
36.6489
 20
234.841
 11
36.3815
 21
235.409
  0
LINE
  8
0
 10
36.3815
 20
235.409
 11
36.0451
 21
235.939
  0
LINE
  8
0
 10
36.0451
 20
235.939
 11
35.6448
 21
236.423
  0
LINE
  8
0
 10
35.6448
 20
236.423
 11
35.1871
 21
236.853
  0
LINE
  8
0
 10
35.1871
 20
236.853
 11
34.6791
 21
237.222
  0
LINE
  8
0
 10
34.6791
 20
237.222
 11
34.1289
 21
237.524
  0
LINE
  8
0
 10
34.1289
 20
237.524
 11
33.5451
 21
237.755
  0
LINE
  8
0
 10
33.5451
 20
237.755
 11
32.9369
 21
237.911
  0
LINE
  8
0
 10
32.9369
 20
237.911
 11
32.3139
 21
237.99
  0
LINE
  8
0
 10
32.3139
 20
237.99
 11
-32.3139
 21
237.99
  0
LINE
  8
0
 10
-32.3139
 20
237.99
 11
-32.9369
 21
237.911
  0
LINE
  8
0
 10
-32.9369
 20
237.911
 11
-33.5451
 21
237.755
  0
LINE
  8
0
 10
-33.5451
 20
237.755
 11
-34.1289
 21
237.524
  0
LINE
  8
0
 10
-34.1289
 20
237.524
 11
-34.6791
 21
237.222
  0
LINE
  8
0
 10
-34.6791
 20
237.222
 11
-35.1871
 21
236.853
  0
LINE
  8
0
 10
-35.1871
 20
236.853
 11
-35.6448
 21
236.423
  0
LINE
  8
0
 10
-35.6448
 20
236.423
 11
-36.0451
 21
235.939
  0
LINE
  8
0
 10
-36.0451
 20
235.939
 11
-36.3815
 21
235.409
  0
LINE
  8
0
 10
-36.3815
 20
235.409
 11
-36.6489
 21
234.841
  0
LINE
  8
0
 10
-36.6489
 20
234.841
 11
-36.8429
 21
234.243
  0
LINE
  8
0
 10
-36.8429
 20
234.243
 11
-36.9606
 21
233.627
  0
LINE
  8
0
 10
-36.9606
 20
233.627
 11
-37
 21
233
  0
LINE
  8
0
 10
-37
 20
233
 11
-37
 21
199
  0
LINE
  8
0
 10
-37
 20
199
 11
-36.9606
 21
198.373
  0
LINE
  8
0
 10
-36.9606
 20
198.373
 11
-36.8429
 21
197.757
  0
LINE
  8
0
 10
-36.8429
 20
197.757
 11
-36.6489
 21
197.159
  0
LINE
  8
0
 10
-36.6489
 20
197.159
 11
-36.3815
 21
196.591
  0
LINE
  8
0
 10
-36.3815
 20
196.591
 11
-36.0451
 21
196.061
  0
LINE
  8
0
 10
-36.0451
 20
196.061
 11
-35.6448
 21
195.577
  0
LINE
  8
0
 10
-35.6448
 20
195.577
 11
-35.1871
 21
195.147
  0
LINE
  8
0
 10
-35.1871
 20
195.147
 11
-34.6791
 21
194.778
  0
LINE
  8
0
 10
-34.6791
 20
194.778
 11
-34.1289
 21
194.476
  0
LINE
  8
0
 10
-34.1289
 20
194.476
 11
-33.5451
 21
194.245
  0
LINE
  8
0
 10
-33.5451
 20
194.245
 11
-32.9369
 21
194.089
  0
LINE
  8
0
 10
-32.9369
 20
194.089
 11
-32.3139
 21
194.01
  0
LINE
  8
0
 10
-32.3139
 20
194.01
 11
32.3139
 21
194.01
  0
LINE
  8
0
 10
32.3139
 20
194.01
 11
32.9369
 21
194.089
  0
LINE
  8
0
 10
-30.1884
 20
228.006
 11
-30.5621
 21
228.053
  0
LINE
  8
0
 10
-30.5621
 20
228.053
 11
-30.927
 21
228.147
  0
LINE
  8
0
 10
-30.927
 20
228.147
 11
-31.2773
 21
228.286
  0
LINE
  8
0
 10
-31.2773
 20
228.286
 11
-31.6075
 21
228.467
  0
LINE
  8
0
 10
-31.6075
 20
228.467
 11
-31.9123
 21
228.688
  0
LINE
  8
0
 10
-31.9123
 20
228.688
 11
-32.1869
 21
228.946
  0
LINE
  8
0
 10
-32.1869
 20
228.946
 11
-32.427
 21
229.237
  0
LINE
  8
0
 10
-32.427
 20
229.237
 11
-32.6289
 21
229.555
  0
LINE
  8
0
 10
-32.6289
 20
229.555
 11
-32.7893
 21
229.896
  0
LINE
  8
0
 10
-32.7893
 20
229.896
 11
-32.9057
 21
230.254
  0
LINE
  8
0
 10
-32.9057
 20
230.254
 11
-32.9763
 21
230.624
  0
LINE
  8
0
 10
-32.9763
 20
230.624
 11
-33
 21
231
  0
LINE
  8
0
 10
-33
 20
231
 11
-32.9763
 21
231.376
  0
LINE
  8
0
 10
-32.9763
 20
231.376
 11
-32.9057
 21
231.746
  0
LINE
  8
0
 10
-32.9057
 20
231.746
 11
-32.7893
 21
232.104
  0
LINE
  8
0
 10
-32.7893
 20
232.104
 11
-32.6289
 21
232.445
  0
LINE
  8
0
 10
-32.6289
 20
232.445
 11
-32.427
 21
232.763
  0
LINE
  8
0
 10
-32.427
 20
232.763
 11
-32.1869
 21
233.054
  0
LINE
  8
0
 10
-32.1869
 20
233.054
 11
-31.9123
 21
233.312
  0
LINE
  8
0
 10
-31.9123
 20
233.312
 11
-31.6075
 21
233.533
  0
LINE
  8
0
 10
-31.6075
 20
233.533
 11
-31.2773
 21
233.714
  0
LINE
  8
0
 10
-31.2773
 20
233.714
 11
-30.927
 21
233.853
  0
LINE
  8
0
 10
-30.927
 20
233.853
 11
-30.5621
 21
233.947
  0
LINE
  8
0
 10
-30.5621
 20
233.947
 11
-30.1884
 21
233.994
  0
LINE
  8
0
 10
-30.1884
 20
233.994
 11
-29.8116
 21
233.994
  0
LINE
  8
0
 10
-29.8116
 20
233.994
 11
-29.4379
 21
233.947
  0
LINE
  8
0
 10
-29.4379
 20
233.947
 11
-29.0729
 21
233.853
  0
LINE
  8
0
 10
-29.0729
 20
233.853
 11
-28.7227
 21
233.714
  0
LINE
  8
0
 10
-28.7227
 20
233.714
 11
-28.3925
 21
233.533
  0
LINE
  8
0
 10
-28.3925
 20
233.533
 11
-28.0877
 21
233.312
  0
LINE
  8
0
 10
-28.0877
 20
233.312
 11
-27.8131
 21
233.054
  0
LINE
  8
0
 10
-27.8131
 20
233.054
 11
-27.5729
 21
232.763
  0
LINE
  8
0
 10
-27.5729
 20
232.763
 11
-27.3711
 21
232.445
  0
LINE
  8
0
 10
-27.3711
 20
232.445
 11
-27.2107
 21
232.104
  0
LINE
  8
0
 10
-27.2107
 20
232.104
 11
-27.0942
 21
231.746
  0
LINE
  8
0
 10
-27.0942
 20
231.746
 11
-27.0237
 21
231.376
  0
LINE
  8
0
 10
-27.0237
 20
231.376
 11
-27
 21
231
  0
LINE
  8
0
 10
-27
 20
231
 11
-27.0237
 21
230.624
  0
LINE
  8
0
 10
-27.0237
 20
230.624
 11
-27.0942
 21
230.254
  0
LINE
  8
0
 10
-27.0942
 20
230.254
 11
-27.2107
 21
229.896
  0
LINE
  8
0
 10
-27.2107
 20
229.896
 11
-27.3711
 21
229.555
  0
LINE
  8
0
 10
-27.3711
 20
229.555
 11
-27.5729
 21
229.237
  0
LINE
  8
0
 10
-27.5729
 20
229.237
 11
-27.8131
 21
228.946
  0
LINE
  8
0
 10
-27.8131
 20
228.946
 11
-28.0877
 21
228.688
  0
LINE
  8
0
 10
-28.0877
 20
228.688
 11
-28.3925
 21
228.467
  0
LINE
  8
0
 10
-28.3925
 20
228.467
 11
-28.7227
 21
228.286
  0
LINE
  8
0
 10
-28.7227
 20
228.286
 11
-29.0729
 21
228.147
  0
LINE
  8
0
 10
-29.0729
 20
228.147
 11
-29.4379
 21
228.053
  0
LINE
  8
0
 10
-29.4379
 20
228.053
 11
-29.8116
 21
228.006
  0
LINE
  8
0
 10
-29.8116
 20
228.006
 11
-30.1884
 21
228.006
  0
LINE
  8
0
 10
29.8116
 20
228.006
 11
29.4379
 21
228.053
  0
LINE
  8
0
 10
29.4379
 20
228.053
 11
29.0729
 21
228.147
  0
LINE
  8
0
 10
29.0729
 20
228.147
 11
28.7227
 21
228.286
  0
LINE
  8
0
 10
28.7227
 20
228.286
 11
28.3925
 21
228.467
  0
LINE
  8
0
 10
28.3925
 20
228.467
 11
28.0877
 21
228.688
  0
LINE
  8
0
 10
28.0877
 20
228.688
 11
27.8131
 21
228.946
  0
LINE
  8
0
 10
27.8131
 20
228.946
 11
27.5729
 21
229.237
  0
LINE
  8
0
 10
27.5729
 20
229.237
 11
27.3711
 21
229.555
  0
LINE
  8
0
 10
27.3711
 20
229.555
 11
27.2107
 21
229.896
  0
LINE
  8
0
 10
27.2107
 20
229.896
 11
27.0942
 21
230.254
  0
LINE
  8
0
 10
27.0942
 20
230.254
 11
27.0237
 21
230.624
  0
LINE
  8
0
 10
27.0237
 20
230.624
 11
27
 21
231
  0
LINE
  8
0
 10
27
 20
231
 11
27.0237
 21
231.376
  0
LINE
  8
0
 10
27.0237
 20
231.376
 11
27.0942
 21
231.746
  0
LINE
  8
0
 10
27.0942
 20
231.746
 11
27.2107
 21
232.104
  0
LINE
  8
0
 10
27.2107
 20
232.104
 11
27.3711
 21
232.445
  0
LINE
  8
0
 10
27.3711
 20
232.445
 11
27.5729
 21
232.763
  0
LINE
  8
0
 10
27.5729
 20
232.763
 11
27.8131
 21
233.054
  0
LINE
  8
0
 10
27.8131
 20
233.054
 11
28.0877
 21
233.312
  0
LINE
  8
0
 10
28.0877
 20
233.312
 11
28.3925
 21
233.533
  0
LINE
  8
0
 10
28.3925
 20
233.533
 11
28.7227
 21
233.714
  0
LINE
  8
0
 10
28.7227
 20
233.714
 11
29.0729
 21
233.853
  0
LINE
  8
0
 10
29.0729
 20
233.853
 11
29.4379
 21
233.947
  0
LINE
  8
0
 10
29.4379
 20
233.947
 11
29.8116
 21
233.994
  0
LINE
  8
0
 10
29.8116
 20
233.994
 11
30.1884
 21
233.994
  0
LINE
  8
0
 10
30.1884
 20
233.994
 11
30.5621
 21
233.947
  0
LINE
  8
0
 10
30.5621
 20
233.947
 11
30.927
 21
233.853
  0
LINE
  8
0
 10
30.927
 20
233.853
 11
31.2773
 21
233.714
  0
LINE
  8
0
 10
31.2773
 20
233.714
 11
31.6075
 21
233.533
  0
LINE
  8
0
 10
31.6075
 20
233.533
 11
31.9123
 21
233.312
  0
LINE
  8
0
 10
31.9123
 20
233.312
 11
32.1869
 21
233.054
  0
LINE
  8
0
 10
32.1869
 20
233.054
 11
32.427
 21
232.763
  0
LINE
  8
0
 10
32.427
 20
232.763
 11
32.6289
 21
232.445
  0
LINE
  8
0
 10
32.6289
 20
232.445
 11
32.7893
 21
232.104
  0
LINE
  8
0
 10
32.7893
 20
232.104
 11
32.9057
 21
231.746
  0
LINE
  8
0
 10
32.9057
 20
231.746
 11
32.9763
 21
231.376
  0
LINE
  8
0
 10
32.9763
 20
231.376
 11
33
 21
231
  0
LINE
  8
0
 10
33
 20
231
 11
32.9763
 21
230.624
  0
LINE
  8
0
 10
32.9763
 20
230.624
 11
32.9057
 21
230.254
  0
LINE
  8
0
 10
32.9057
 20
230.254
 11
32.7893
 21
229.896
  0
LINE
  8
0
 10
32.7893
 20
229.896
 11
32.6289
 21
229.555
  0
LINE
  8
0
 10
32.6289
 20
229.555
 11
32.427
 21
229.237
  0
LINE
  8
0
 10
32.427
 20
229.237
 11
32.1869
 21
228.946
  0
LINE
  8
0
 10
32.1869
 20
228.946
 11
31.9123
 21
228.688
  0
LINE
  8
0
 10
31.9123
 20
228.688
 11
31.6075
 21
228.467
  0
LINE
  8
0
 10
31.6075
 20
228.467
 11
31.2773
 21
228.286
  0
LINE
  8
0
 10
31.2773
 20
228.286
 11
30.927
 21
228.147
  0
LINE
  8
0
 10
30.927
 20
228.147
 11
30.5621
 21
228.053
  0
LINE
  8
0
 10
30.5621
 20
228.053
 11
30.1884
 21
228.006
  0
LINE
  8
0
 10
30.1884
 20
228.006
 11
29.8116
 21
228.006
  0
LINE
  8
0
 10
29.8116
 20
198.006
 11
29.4379
 21
198.053
  0
LINE
  8
0
 10
29.4379
 20
198.053
 11
29.0729
 21
198.147
  0
LINE
  8
0
 10
29.0729
 20
198.147
 11
28.7227
 21
198.286
  0
LINE
  8
0
 10
28.7227
 20
198.286
 11
28.3925
 21
198.467
  0
LINE
  8
0
 10
28.3925
 20
198.467
 11
28.0877
 21
198.688
  0
LINE
  8
0
 10
28.0877
 20
198.688
 11
27.8131
 21
198.946
  0
LINE
  8
0
 10
27.8131
 20
198.946
 11
27.5729
 21
199.237
  0
LINE
  8
0
 10
27.5729
 20
199.237
 11
27.3711
 21
199.555
  0
LINE
  8
0
 10
27.3711
 20
199.555
 11
27.2107
 21
199.896
  0
LINE
  8
0
 10
27.2107
 20
199.896
 11
27.0942
 21
200.254
  0
LINE
  8
0
 10
27.0942
 20
200.254
 11
27.0237
 21
200.624
  0
LINE
  8
0
 10
27.0237
 20
200.624
 11
27
 21
201
  0
LINE
  8
0
 10
27
 20
201
 11
27.0237
 21
201.376
  0
LINE
  8
0
 10
27.0237
 20
201.376
 11
27.0942
 21
201.746
  0
LINE
  8
0
 10
27.0942
 20
201.746
 11
27.2107
 21
202.104
  0
LINE
  8
0
 10
27.2107
 20
202.104
 11
27.3711
 21
202.445
  0
LINE
  8
0
 10
27.3711
 20
202.445
 11
27.5729
 21
202.763
  0
LINE
  8
0
 10
27.5729
 20
202.763
 11
27.8131
 21
203.054
  0
LINE
  8
0
 10
27.8131
 20
203.054
 11
28.0877
 21
203.312
  0
LINE
  8
0
 10
28.0877
 20
203.312
 11
28.3925
 21
203.533
  0
LINE
  8
0
 10
28.3925
 20
203.533
 11
28.7227
 21
203.714
  0
LINE
  8
0
 10
28.7227
 20
203.714
 11
29.0729
 21
203.853
  0
LINE
  8
0
 10
29.0729
 20
203.853
 11
29.4379
 21
203.947
  0
LINE
  8
0
 10
29.4379
 20
203.947
 11
29.8116
 21
203.994
  0
LINE
  8
0
 10
29.8116
 20
203.994
 11
30.1884
 21
203.994
  0
LINE
  8
0
 10
30.1884
 20
203.994
 11
30.5621
 21
203.947
  0
LINE
  8
0
 10
30.5621
 20
203.947
 11
30.927
 21
203.853
  0
LINE
  8
0
 10
30.927
 20
203.853
 11
31.2773
 21
203.714
  0
LINE
  8
0
 10
31.2773
 20
203.714
 11
31.6075
 21
203.533
  0
LINE
  8
0
 10
31.6075
 20
203.533
 11
31.9123
 21
203.312
  0
LINE
  8
0
 10
31.9123
 20
203.312
 11
32.1869
 21
203.054
  0
LINE
  8
0
 10
32.1869
 20
203.054
 11
32.427
 21
202.763
  0
LINE
  8
0
 10
32.427
 20
202.763
 11
32.6289
 21
202.445
  0
LINE
  8
0
 10
32.6289
 20
202.445
 11
32.7893
 21
202.104
  0
LINE
  8
0
 10
32.7893
 20
202.104
 11
32.9057
 21
201.746
  0
LINE
  8
0
 10
32.9057
 20
201.746
 11
32.9763
 21
201.376
  0
LINE
  8
0
 10
32.9763
 20
201.376
 11
33
 21
201
  0
LINE
  8
0
 10
33
 20
201
 11
32.9763
 21
200.624
  0
LINE
  8
0
 10
32.9763
 20
200.624
 11
32.9057
 21
200.254
  0
LINE
  8
0
 10
32.9057
 20
200.254
 11
32.7893
 21
199.896
  0
LINE
  8
0
 10
32.7893
 20
199.896
 11
32.6289
 21
199.555
  0
LINE
  8
0
 10
32.6289
 20
199.555
 11
32.427
 21
199.237
  0
LINE
  8
0
 10
32.427
 20
199.237
 11
32.1869
 21
198.946
  0
LINE
  8
0
 10
32.1869
 20
198.946
 11
31.9123
 21
198.688
  0
LINE
  8
0
 10
31.9123
 20
198.688
 11
31.6075
 21
198.467
  0
LINE
  8
0
 10
31.6075
 20
198.467
 11
31.2773
 21
198.286
  0
LINE
  8
0
 10
31.2773
 20
198.286
 11
30.927
 21
198.147
  0
LINE
  8
0
 10
30.927
 20
198.147
 11
30.5621
 21
198.053
  0
LINE
  8
0
 10
30.5621
 20
198.053
 11
30.1884
 21
198.006
  0
LINE
  8
0
 10
30.1884
 20
198.006
 11
29.8116
 21
198.006
  0
LINE
  8
0
 10
-30.1884
 20
198.006
 11
-30.5621
 21
198.053
  0
LINE
  8
0
 10
-30.5621
 20
198.053
 11
-30.927
 21
198.147
  0
LINE
  8
0
 10
-30.927
 20
198.147
 11
-31.2773
 21
198.286
  0
LINE
  8
0
 10
-31.2773
 20
198.286
 11
-31.6075
 21
198.467
  0
LINE
  8
0
 10
-31.6075
 20
198.467
 11
-31.9123
 21
198.688
  0
LINE
  8
0
 10
-31.9123
 20
198.688
 11
-32.1869
 21
198.946
  0
LINE
  8
0
 10
-32.1869
 20
198.946
 11
-32.427
 21
199.237
  0
LINE
  8
0
 10
-32.427
 20
199.237
 11
-32.6289
 21
199.555
  0
LINE
  8
0
 10
-32.6289
 20
199.555
 11
-32.7893
 21
199.896
  0
LINE
  8
0
 10
-32.7893
 20
199.896
 11
-32.9057
 21
200.254
  0
LINE
  8
0
 10
-32.9057
 20
200.254
 11
-32.9763
 21
200.624
  0
LINE
  8
0
 10
-32.9763
 20
200.624
 11
-33
 21
201
  0
LINE
  8
0
 10
-33
 20
201
 11
-32.9763
 21
201.376
  0
LINE
  8
0
 10
-32.9763
 20
201.376
 11
-32.9057
 21
201.746
  0
LINE
  8
0
 10
-32.9057
 20
201.746
 11
-32.7893
 21
202.104
  0
LINE
  8
0
 10
-32.7893
 20
202.104
 11
-32.6289
 21
202.445
  0
LINE
  8
0
 10
-32.6289
 20
202.445
 11
-32.427
 21
202.763
  0
LINE
  8
0
 10
-32.427
 20
202.763
 11
-32.1869
 21
203.054
  0
LINE
  8
0
 10
-32.1869
 20
203.054
 11
-31.9123
 21
203.312
  0
LINE
  8
0
 10
-31.9123
 20
203.312
 11
-31.6075
 21
203.533
  0
LINE
  8
0
 10
-31.6075
 20
203.533
 11
-31.2773
 21
203.714
  0
LINE
  8
0
 10
-31.2773
 20
203.714
 11
-30.927
 21
203.853
  0
LINE
  8
0
 10
-30.927
 20
203.853
 11
-30.5621
 21
203.947
  0
LINE
  8
0
 10
-30.5621
 20
203.947
 11
-30.1884
 21
203.994
  0
LINE
  8
0
 10
-30.1884
 20
203.994
 11
-29.8116
 21
203.994
  0
LINE
  8
0
 10
-29.8116
 20
203.994
 11
-29.4379
 21
203.947
  0
LINE
  8
0
 10
-29.4379
 20
203.947
 11
-29.0729
 21
203.853
  0
LINE
  8
0
 10
-29.0729
 20
203.853
 11
-28.7227
 21
203.714
  0
LINE
  8
0
 10
-28.7227
 20
203.714
 11
-28.3925
 21
203.533
  0
LINE
  8
0
 10
-28.3925
 20
203.533
 11
-28.0877
 21
203.312
  0
LINE
  8
0
 10
-28.0877
 20
203.312
 11
-27.8131
 21
203.054
  0
LINE
  8
0
 10
-27.8131
 20
203.054
 11
-27.5729
 21
202.763
  0
LINE
  8
0
 10
-27.5729
 20
202.763
 11
-27.3711
 21
202.445
  0
LINE
  8
0
 10
-27.3711
 20
202.445
 11
-27.2107
 21
202.104
  0
LINE
  8
0
 10
-27.2107
 20
202.104
 11
-27.0942
 21
201.746
  0
LINE
  8
0
 10
-27.0942
 20
201.746
 11
-27.0237
 21
201.376
  0
LINE
  8
0
 10
-27.0237
 20
201.376
 11
-27
 21
201
  0
LINE
  8
0
 10
-27
 20
201
 11
-27.0237
 21
200.624
  0
LINE
  8
0
 10
-27.0237
 20
200.624
 11
-27.0942
 21
200.254
  0
LINE
  8
0
 10
-27.0942
 20
200.254
 11
-27.2107
 21
199.896
  0
LINE
  8
0
 10
-27.2107
 20
199.896
 11
-27.3711
 21
199.555
  0
LINE
  8
0
 10
-27.3711
 20
199.555
 11
-27.5729
 21
199.237
  0
LINE
  8
0
 10
-27.5729
 20
199.237
 11
-27.8131
 21
198.946
  0
LINE
  8
0
 10
-27.8131
 20
198.946
 11
-28.0877
 21
198.688
  0
LINE
  8
0
 10
-28.0877
 20
198.688
 11
-28.3925
 21
198.467
  0
LINE
  8
0
 10
-28.3925
 20
198.467
 11
-28.7227
 21
198.286
  0
LINE
  8
0
 10
-28.7227
 20
198.286
 11
-29.0729
 21
198.147
  0
LINE
  8
0
 10
-29.0729
 20
198.147
 11
-29.4379
 21
198.053
  0
LINE
  8
0
 10
-29.4379
 20
198.053
 11
-29.8116
 21
198.006
  0
LINE
  8
0
 10
-29.8116
 20
198.006
 11
-30.1884
 21
198.006
  0
LINE
  8
0
 10
32.9369
 20
140.089
 11
33.5451
 21
140.245
  0
LINE
  8
0
 10
33.5451
 20
140.245
 11
34.1289
 21
140.476
  0
LINE
  8
0
 10
34.1289
 20
140.476
 11
34.6791
 21
140.778
  0
LINE
  8
0
 10
34.6791
 20
140.778
 11
35.1871
 21
141.147
  0
LINE
  8
0
 10
35.1871
 20
141.147
 11
35.6448
 21
141.577
  0
LINE
  8
0
 10
35.6448
 20
141.577
 11
36.0451
 21
142.061
  0
LINE
  8
0
 10
36.0451
 20
142.061
 11
36.3815
 21
142.591
  0
LINE
  8
0
 10
36.3815
 20
142.591
 11
36.6489
 21
143.159
  0
LINE
  8
0
 10
36.6489
 20
143.159
 11
36.8429
 21
143.757
  0
LINE
  8
0
 10
36.8429
 20
143.757
 11
36.9606
 21
144.373
  0
LINE
  8
0
 10
36.9606
 20
144.373
 11
37
 21
145
  0
LINE
  8
0
 10
37
 20
145
 11
37
 21
179
  0
LINE
  8
0
 10
37
 20
179
 11
36.9606
 21
179.627
  0
LINE
  8
0
 10
36.9606
 20
179.627
 11
36.8429
 21
180.243
  0
LINE
  8
0
 10
36.8429
 20
180.243
 11
36.6489
 21
180.841
  0
LINE
  8
0
 10
36.6489
 20
180.841
 11
36.3815
 21
181.409
  0
LINE
  8
0
 10
36.3815
 20
181.409
 11
36.0451
 21
181.939
  0
LINE
  8
0
 10
36.0451
 20
181.939
 11
35.6448
 21
182.423
  0
LINE
  8
0
 10
35.6448
 20
182.423
 11
35.1871
 21
182.853
  0
LINE
  8
0
 10
35.1871
 20
182.853
 11
34.6791
 21
183.222
  0
LINE
  8
0
 10
34.6791
 20
183.222
 11
34.1289
 21
183.524
  0
LINE
  8
0
 10
34.1289
 20
183.524
 11
33.5451
 21
183.755
  0
LINE
  8
0
 10
33.5451
 20
183.755
 11
32.9369
 21
183.911
  0
LINE
  8
0
 10
32.9369
 20
183.911
 11
32.3139
 21
183.99
  0
LINE
  8
0
 10
32.3139
 20
183.99
 11
-32.3139
 21
183.99
  0
LINE
  8
0
 10
-32.3139
 20
183.99
 11
-32.9369
 21
183.911
  0
LINE
  8
0
 10
-32.9369
 20
183.911
 11
-33.5451
 21
183.755
  0
LINE
  8
0
 10
-33.5451
 20
183.755
 11
-34.1289
 21
183.524
  0
LINE
  8
0
 10
-34.1289
 20
183.524
 11
-34.6791
 21
183.222
  0
LINE
  8
0
 10
-34.6791
 20
183.222
 11
-35.1871
 21
182.853
  0
LINE
  8
0
 10
-35.1871
 20
182.853
 11
-35.6448
 21
182.423
  0
LINE
  8
0
 10
-35.6448
 20
182.423
 11
-36.0451
 21
181.939
  0
LINE
  8
0
 10
-36.0451
 20
181.939
 11
-36.3815
 21
181.409
  0
LINE
  8
0
 10
-36.3815
 20
181.409
 11
-36.6489
 21
180.841
  0
LINE
  8
0
 10
-36.6489
 20
180.841
 11
-36.8429
 21
180.243
  0
LINE
  8
0
 10
-36.8429
 20
180.243
 11
-36.9606
 21
179.627
  0
LINE
  8
0
 10
-36.9606
 20
179.627
 11
-37
 21
179
  0
LINE
  8
0
 10
-37
 20
179
 11
-37
 21
145
  0
LINE
  8
0
 10
-37
 20
145
 11
-36.9606
 21
144.373
  0
LINE
  8
0
 10
-36.9606
 20
144.373
 11
-36.8429
 21
143.757
  0
LINE
  8
0
 10
-36.8429
 20
143.757
 11
-36.6489
 21
143.159
  0
LINE
  8
0
 10
-36.6489
 20
143.159
 11
-36.3815
 21
142.591
  0
LINE
  8
0
 10
-36.3815
 20
142.591
 11
-36.0451
 21
142.061
  0
LINE
  8
0
 10
-36.0451
 20
142.061
 11
-35.6448
 21
141.577
  0
LINE
  8
0
 10
-35.6448
 20
141.577
 11
-35.1871
 21
141.147
  0
LINE
  8
0
 10
-35.1871
 20
141.147
 11
-34.6791
 21
140.778
  0
LINE
  8
0
 10
-34.6791
 20
140.778
 11
-34.1289
 21
140.476
  0
LINE
  8
0
 10
-34.1289
 20
140.476
 11
-33.5451
 21
140.245
  0
LINE
  8
0
 10
-33.5451
 20
140.245
 11
-32.9369
 21
140.089
  0
LINE
  8
0
 10
-32.9369
 20
140.089
 11
-32.3139
 21
140.01
  0
LINE
  8
0
 10
-32.3139
 20
140.01
 11
32.3139
 21
140.01
  0
LINE
  8
0
 10
32.3139
 20
140.01
 11
32.9369
 21
140.089
  0
LINE
  8
0
 10
29.8116
 20
174.006
 11
29.4379
 21
174.053
  0
LINE
  8
0
 10
29.4379
 20
174.053
 11
29.0729
 21
174.147
  0
LINE
  8
0
 10
29.0729
 20
174.147
 11
28.7227
 21
174.286
  0
LINE
  8
0
 10
28.7227
 20
174.286
 11
28.3925
 21
174.467
  0
LINE
  8
0
 10
28.3925
 20
174.467
 11
28.0877
 21
174.688
  0
LINE
  8
0
 10
28.0877
 20
174.688
 11
27.8131
 21
174.946
  0
LINE
  8
0
 10
27.8131
 20
174.946
 11
27.5729
 21
175.237
  0
LINE
  8
0
 10
27.5729
 20
175.237
 11
27.3711
 21
175.555
  0
LINE
  8
0
 10
27.3711
 20
175.555
 11
27.2107
 21
175.896
  0
LINE
  8
0
 10
27.2107
 20
175.896
 11
27.0942
 21
176.254
  0
LINE
  8
0
 10
27.0942
 20
176.254
 11
27.0237
 21
176.624
  0
LINE
  8
0
 10
27.0237
 20
176.624
 11
27
 21
177
  0
LINE
  8
0
 10
27
 20
177
 11
27.0237
 21
177.376
  0
LINE
  8
0
 10
27.0237
 20
177.376
 11
27.0942
 21
177.746
  0
LINE
  8
0
 10
27.0942
 20
177.746
 11
27.2107
 21
178.104
  0
LINE
  8
0
 10
27.2107
 20
178.104
 11
27.3711
 21
178.445
  0
LINE
  8
0
 10
27.3711
 20
178.445
 11
27.5729
 21
178.763
  0
LINE
  8
0
 10
27.5729
 20
178.763
 11
27.8131
 21
179.054
  0
LINE
  8
0
 10
27.8131
 20
179.054
 11
28.0877
 21
179.312
  0
LINE
  8
0
 10
28.0877
 20
179.312
 11
28.3925
 21
179.533
  0
LINE
  8
0
 10
28.3925
 20
179.533
 11
28.7227
 21
179.714
  0
LINE
  8
0
 10
28.7227
 20
179.714
 11
29.0729
 21
179.853
  0
LINE
  8
0
 10
29.0729
 20
179.853
 11
29.4379
 21
179.947
  0
LINE
  8
0
 10
29.4379
 20
179.947
 11
29.8116
 21
179.994
  0
LINE
  8
0
 10
29.8116
 20
179.994
 11
30.1884
 21
179.994
  0
LINE
  8
0
 10
30.1884
 20
179.994
 11
30.5621
 21
179.947
  0
LINE
  8
0
 10
30.5621
 20
179.947
 11
30.927
 21
179.853
  0
LINE
  8
0
 10
30.927
 20
179.853
 11
31.2773
 21
179.714
  0
LINE
  8
0
 10
31.2773
 20
179.714
 11
31.6075
 21
179.533
  0
LINE
  8
0
 10
31.6075
 20
179.533
 11
31.9123
 21
179.312
  0
LINE
  8
0
 10
31.9123
 20
179.312
 11
32.1869
 21
179.054
  0
LINE
  8
0
 10
32.1869
 20
179.054
 11
32.427
 21
178.763
  0
LINE
  8
0
 10
32.427
 20
178.763
 11
32.6289
 21
178.445
  0
LINE
  8
0
 10
32.6289
 20
178.445
 11
32.7893
 21
178.104
  0
LINE
  8
0
 10
32.7893
 20
178.104
 11
32.9057
 21
177.746
  0
LINE
  8
0
 10
32.9057
 20
177.746
 11
32.9763
 21
177.376
  0
LINE
  8
0
 10
32.9763
 20
177.376
 11
33
 21
177
  0
LINE
  8
0
 10
33
 20
177
 11
32.9763
 21
176.624
  0
LINE
  8
0
 10
32.9763
 20
176.624
 11
32.9057
 21
176.254
  0
LINE
  8
0
 10
32.9057
 20
176.254
 11
32.7893
 21
175.896
  0
LINE
  8
0
 10
32.7893
 20
175.896
 11
32.6289
 21
175.555
  0
LINE
  8
0
 10
32.6289
 20
175.555
 11
32.427
 21
175.237
  0
LINE
  8
0
 10
32.427
 20
175.237
 11
32.1869
 21
174.946
  0
LINE
  8
0
 10
32.1869
 20
174.946
 11
31.9123
 21
174.688
  0
LINE
  8
0
 10
31.9123
 20
174.688
 11
31.6075
 21
174.467
  0
LINE
  8
0
 10
31.6075
 20
174.467
 11
31.2773
 21
174.286
  0
LINE
  8
0
 10
31.2773
 20
174.286
 11
30.927
 21
174.147
  0
LINE
  8
0
 10
30.927
 20
174.147
 11
30.5621
 21
174.053
  0
LINE
  8
0
 10
30.5621
 20
174.053
 11
30.1884
 21
174.006
  0
LINE
  8
0
 10
30.1884
 20
174.006
 11
29.8116
 21
174.006
  0
LINE
  8
0
 10
-30.1884
 20
174.006
 11
-30.5621
 21
174.053
  0
LINE
  8
0
 10
-30.5621
 20
174.053
 11
-30.927
 21
174.147
  0
LINE
  8
0
 10
-30.927
 20
174.147
 11
-31.2773
 21
174.286
  0
LINE
  8
0
 10
-31.2773
 20
174.286
 11
-31.6075
 21
174.467
  0
LINE
  8
0
 10
-31.6075
 20
174.467
 11
-31.9123
 21
174.688
  0
LINE
  8
0
 10
-31.9123
 20
174.688
 11
-32.1869
 21
174.946
  0
LINE
  8
0
 10
-32.1869
 20
174.946
 11
-32.427
 21
175.237
  0
LINE
  8
0
 10
-32.427
 20
175.237
 11
-32.6289
 21
175.555
  0
LINE
  8
0
 10
-32.6289
 20
175.555
 11
-32.7893
 21
175.896
  0
LINE
  8
0
 10
-32.7893
 20
175.896
 11
-32.9057
 21
176.254
  0
LINE
  8
0
 10
-32.9057
 20
176.254
 11
-32.9763
 21
176.624
  0
LINE
  8
0
 10
-32.9763
 20
176.624
 11
-33
 21
177
  0
LINE
  8
0
 10
-33
 20
177
 11
-32.9763
 21
177.376
  0
LINE
  8
0
 10
-32.9763
 20
177.376
 11
-32.9057
 21
177.746
  0
LINE
  8
0
 10
-32.9057
 20
177.746
 11
-32.7893
 21
178.104
  0
LINE
  8
0
 10
-32.7893
 20
178.104
 11
-32.6289
 21
178.445
  0
LINE
  8
0
 10
-32.6289
 20
178.445
 11
-32.427
 21
178.763
  0
LINE
  8
0
 10
-32.427
 20
178.763
 11
-32.1869
 21
179.054
  0
LINE
  8
0
 10
-32.1869
 20
179.054
 11
-31.9123
 21
179.312
  0
LINE
  8
0
 10
-31.9123
 20
179.312
 11
-31.6075
 21
179.533
  0
LINE
  8
0
 10
-31.6075
 20
179.533
 11
-31.2773
 21
179.714
  0
LINE
  8
0
 10
-31.2773
 20
179.714
 11
-30.927
 21
179.853
  0
LINE
  8
0
 10
-30.927
 20
179.853
 11
-30.5621
 21
179.947
  0
LINE
  8
0
 10
-30.5621
 20
179.947
 11
-30.1884
 21
179.994
  0
LINE
  8
0
 10
-30.1884
 20
179.994
 11
-29.8116
 21
179.994
  0
LINE
  8
0
 10
-29.8116
 20
179.994
 11
-29.4379
 21
179.947
  0
LINE
  8
0
 10
-29.4379
 20
179.947
 11
-29.0729
 21
179.853
  0
LINE
  8
0
 10
-29.0729
 20
179.853
 11
-28.7227
 21
179.714
  0
LINE
  8
0
 10
-28.7227
 20
179.714
 11
-28.3925
 21
179.533
  0
LINE
  8
0
 10
-28.3925
 20
179.533
 11
-28.0877
 21
179.312
  0
LINE
  8
0
 10
-28.0877
 20
179.312
 11
-27.8131
 21
179.054
  0
LINE
  8
0
 10
-27.8131
 20
179.054
 11
-27.5729
 21
178.763
  0
LINE
  8
0
 10
-27.5729
 20
178.763
 11
-27.3711
 21
178.445
  0
LINE
  8
0
 10
-27.3711
 20
178.445
 11
-27.2107
 21
178.104
  0
LINE
  8
0
 10
-27.2107
 20
178.104
 11
-27.0942
 21
177.746
  0
LINE
  8
0
 10
-27.0942
 20
177.746
 11
-27.0237
 21
177.376
  0
LINE
  8
0
 10
-27.0237
 20
177.376
 11
-27
 21
177
  0
LINE
  8
0
 10
-27
 20
177
 11
-27.0237
 21
176.624
  0
LINE
  8
0
 10
-27.0237
 20
176.624
 11
-27.0942
 21
176.254
  0
LINE
  8
0
 10
-27.0942
 20
176.254
 11
-27.2107
 21
175.896
  0
LINE
  8
0
 10
-27.2107
 20
175.896
 11
-27.3711
 21
175.555
  0
LINE
  8
0
 10
-27.3711
 20
175.555
 11
-27.5729
 21
175.237
  0
LINE
  8
0
 10
-27.5729
 20
175.237
 11
-27.8131
 21
174.946
  0
LINE
  8
0
 10
-27.8131
 20
174.946
 11
-28.0877
 21
174.688
  0
LINE
  8
0
 10
-28.0877
 20
174.688
 11
-28.3925
 21
174.467
  0
LINE
  8
0
 10
-28.3925
 20
174.467
 11
-28.7227
 21
174.286
  0
LINE
  8
0
 10
-28.7227
 20
174.286
 11
-29.0729
 21
174.147
  0
LINE
  8
0
 10
-29.0729
 20
174.147
 11
-29.4379
 21
174.053
  0
LINE
  8
0
 10
-29.4379
 20
174.053
 11
-29.8116
 21
174.006
  0
LINE
  8
0
 10
-29.8116
 20
174.006
 11
-30.1884
 21
174.006
  0
LINE
  8
0
 10
29.8116
 20
144.006
 11
29.4379
 21
144.053
  0
LINE
  8
0
 10
29.4379
 20
144.053
 11
29.0729
 21
144.147
  0
LINE
  8
0
 10
29.0729
 20
144.147
 11
28.7227
 21
144.286
  0
LINE
  8
0
 10
28.7227
 20
144.286
 11
28.3925
 21
144.467
  0
LINE
  8
0
 10
28.3925
 20
144.467
 11
28.0877
 21
144.688
  0
LINE
  8
0
 10
28.0877
 20
144.688
 11
27.8131
 21
144.946
  0
LINE
  8
0
 10
27.8131
 20
144.946
 11
27.5729
 21
145.237
  0
LINE
  8
0
 10
27.5729
 20
145.237
 11
27.3711
 21
145.555
  0
LINE
  8
0
 10
27.3711
 20
145.555
 11
27.2107
 21
145.896
  0
LINE
  8
0
 10
27.2107
 20
145.896
 11
27.0942
 21
146.254
  0
LINE
  8
0
 10
27.0942
 20
146.254
 11
27.0237
 21
146.624
  0
LINE
  8
0
 10
27.0237
 20
146.624
 11
27
 21
147
  0
LINE
  8
0
 10
27
 20
147
 11
27.0237
 21
147.376
  0
LINE
  8
0
 10
27.0237
 20
147.376
 11
27.0942
 21
147.746
  0
LINE
  8
0
 10
27.0942
 20
147.746
 11
27.2107
 21
148.104
  0
LINE
  8
0
 10
27.2107
 20
148.104
 11
27.3711
 21
148.445
  0
LINE
  8
0
 10
27.3711
 20
148.445
 11
27.5729
 21
148.763
  0
LINE
  8
0
 10
27.5729
 20
148.763
 11
27.8131
 21
149.054
  0
LINE
  8
0
 10
27.8131
 20
149.054
 11
28.0877
 21
149.312
  0
LINE
  8
0
 10
28.0877
 20
149.312
 11
28.3925
 21
149.533
  0
LINE
  8
0
 10
28.3925
 20
149.533
 11
28.7227
 21
149.714
  0
LINE
  8
0
 10
28.7227
 20
149.714
 11
29.0729
 21
149.853
  0
LINE
  8
0
 10
29.0729
 20
149.853
 11
29.4379
 21
149.947
  0
LINE
  8
0
 10
29.4379
 20
149.947
 11
29.8116
 21
149.994
  0
LINE
  8
0
 10
29.8116
 20
149.994
 11
30.1884
 21
149.994
  0
LINE
  8
0
 10
30.1884
 20
149.994
 11
30.5621
 21
149.947
  0
LINE
  8
0
 10
30.5621
 20
149.947
 11
30.927
 21
149.853
  0
LINE
  8
0
 10
30.927
 20
149.853
 11
31.2773
 21
149.714
  0
LINE
  8
0
 10
31.2773
 20
149.714
 11
31.6075
 21
149.533
  0
LINE
  8
0
 10
31.6075
 20
149.533
 11
31.9123
 21
149.312
  0
LINE
  8
0
 10
31.9123
 20
149.312
 11
32.1869
 21
149.054
  0
LINE
  8
0
 10
32.1869
 20
149.054
 11
32.427
 21
148.763
  0
LINE
  8
0
 10
32.427
 20
148.763
 11
32.6289
 21
148.445
  0
LINE
  8
0
 10
32.6289
 20
148.445
 11
32.7893
 21
148.104
  0
LINE
  8
0
 10
32.7893
 20
148.104
 11
32.9057
 21
147.746
  0
LINE
  8
0
 10
32.9057
 20
147.746
 11
32.9763
 21
147.376
  0
LINE
  8
0
 10
32.9763
 20
147.376
 11
33
 21
147
  0
LINE
  8
0
 10
33
 20
147
 11
32.9763
 21
146.624
  0
LINE
  8
0
 10
32.9763
 20
146.624
 11
32.9057
 21
146.254
  0
LINE
  8
0
 10
32.9057
 20
146.254
 11
32.7893
 21
145.896
  0
LINE
  8
0
 10
32.7893
 20
145.896
 11
32.6289
 21
145.555
  0
LINE
  8
0
 10
32.6289
 20
145.555
 11
32.427
 21
145.237
  0
LINE
  8
0
 10
32.427
 20
145.237
 11
32.1869
 21
144.946
  0
LINE
  8
0
 10
32.1869
 20
144.946
 11
31.9123
 21
144.688
  0
LINE
  8
0
 10
31.9123
 20
144.688
 11
31.6075
 21
144.467
  0
LINE
  8
0
 10
31.6075
 20
144.467
 11
31.2773
 21
144.286
  0
LINE
  8
0
 10
31.2773
 20
144.286
 11
30.927
 21
144.147
  0
LINE
  8
0
 10
30.927
 20
144.147
 11
30.5621
 21
144.053
  0
LINE
  8
0
 10
30.5621
 20
144.053
 11
30.1884
 21
144.006
  0
LINE
  8
0
 10
30.1884
 20
144.006
 11
29.8116
 21
144.006
  0
LINE
  8
0
 10
-30.1884
 20
144.006
 11
-30.5621
 21
144.053
  0
LINE
  8
0
 10
-30.5621
 20
144.053
 11
-30.927
 21
144.147
  0
LINE
  8
0
 10
-30.927
 20
144.147
 11
-31.2773
 21
144.286
  0
LINE
  8
0
 10
-31.2773
 20
144.286
 11
-31.6075
 21
144.467
  0
LINE
  8
0
 10
-31.6075
 20
144.467
 11
-31.9123
 21
144.688
  0
LINE
  8
0
 10
-31.9123
 20
144.688
 11
-32.1869
 21
144.946
  0
LINE
  8
0
 10
-32.1869
 20
144.946
 11
-32.427
 21
145.237
  0
LINE
  8
0
 10
-32.427
 20
145.237
 11
-32.6289
 21
145.555
  0
LINE
  8
0
 10
-32.6289
 20
145.555
 11
-32.7893
 21
145.896
  0
LINE
  8
0
 10
-32.7893
 20
145.896
 11
-32.9057
 21
146.254
  0
LINE
  8
0
 10
-32.9057
 20
146.254
 11
-32.9763
 21
146.624
  0
LINE
  8
0
 10
-32.9763
 20
146.624
 11
-33
 21
147
  0
LINE
  8
0
 10
-33
 20
147
 11
-32.9763
 21
147.376
  0
LINE
  8
0
 10
-32.9763
 20
147.376
 11
-32.9057
 21
147.746
  0
LINE
  8
0
 10
-32.9057
 20
147.746
 11
-32.7893
 21
148.104
  0
LINE
  8
0
 10
-32.7893
 20
148.104
 11
-32.6289
 21
148.445
  0
LINE
  8
0
 10
-32.6289
 20
148.445
 11
-32.427
 21
148.763
  0
LINE
  8
0
 10
-32.427
 20
148.763
 11
-32.1869
 21
149.054
  0
LINE
  8
0
 10
-32.1869
 20
149.054
 11
-31.9123
 21
149.312
  0
LINE
  8
0
 10
-31.9123
 20
149.312
 11
-31.6075
 21
149.533
  0
LINE
  8
0
 10
-31.6075
 20
149.533
 11
-31.2773
 21
149.714
  0
LINE
  8
0
 10
-31.2773
 20
149.714
 11
-30.927
 21
149.853
  0
LINE
  8
0
 10
-30.927
 20
149.853
 11
-30.5621
 21
149.947
  0
LINE
  8
0
 10
-30.5621
 20
149.947
 11
-30.1884
 21
149.994
  0
LINE
  8
0
 10
-30.1884
 20
149.994
 11
-29.8116
 21
149.994
  0
LINE
  8
0
 10
-29.8116
 20
149.994
 11
-29.4379
 21
149.947
  0
LINE
  8
0
 10
-29.4379
 20
149.947
 11
-29.0729
 21
149.853
  0
LINE
  8
0
 10
-29.0729
 20
149.853
 11
-28.7227
 21
149.714
  0
LINE
  8
0
 10
-28.7227
 20
149.714
 11
-28.3925
 21
149.533
  0
LINE
  8
0
 10
-28.3925
 20
149.533
 11
-28.0877
 21
149.312
  0
LINE
  8
0
 10
-28.0877
 20
149.312
 11
-27.8131
 21
149.054
  0
LINE
  8
0
 10
-27.8131
 20
149.054
 11
-27.5729
 21
148.763
  0
LINE
  8
0
 10
-27.5729
 20
148.763
 11
-27.3711
 21
148.445
  0
LINE
  8
0
 10
-27.3711
 20
148.445
 11
-27.2107
 21
148.104
  0
LINE
  8
0
 10
-27.2107
 20
148.104
 11
-27.0942
 21
147.746
  0
LINE
  8
0
 10
-27.0942
 20
147.746
 11
-27.0237
 21
147.376
  0
LINE
  8
0
 10
-27.0237
 20
147.376
 11
-27
 21
147
  0
LINE
  8
0
 10
-27
 20
147
 11
-27.0237
 21
146.624
  0
LINE
  8
0
 10
-27.0237
 20
146.624
 11
-27.0942
 21
146.254
  0
LINE
  8
0
 10
-27.0942
 20
146.254
 11
-27.2107
 21
145.896
  0
LINE
  8
0
 10
-27.2107
 20
145.896
 11
-27.3711
 21
145.555
  0
LINE
  8
0
 10
-27.3711
 20
145.555
 11
-27.5729
 21
145.237
  0
LINE
  8
0
 10
-27.5729
 20
145.237
 11
-27.8131
 21
144.946
  0
LINE
  8
0
 10
-27.8131
 20
144.946
 11
-28.0877
 21
144.688
  0
LINE
  8
0
 10
-28.0877
 20
144.688
 11
-28.3925
 21
144.467
  0
LINE
  8
0
 10
-28.3925
 20
144.467
 11
-28.7227
 21
144.286
  0
LINE
  8
0
 10
-28.7227
 20
144.286
 11
-29.0729
 21
144.147
  0
LINE
  8
0
 10
-29.0729
 20
144.147
 11
-29.4379
 21
144.053
  0
LINE
  8
0
 10
-29.4379
 20
144.053
 11
-29.8116
 21
144.006
  0
LINE
  8
0
 10
-29.8116
 20
144.006
 11
-30.1884
 21
144.006
  0
ENDSEC
  0
SECTION
  2
OBJECTS
  0
DICTIONARY
  0
ENDSEC
  0
EOF
