  0
SECTION
  2
BLOCKS
  0
ENDSEC
  0
SECTION
  2
ENTITIES
  0
LINE
  8
0
 10
122.937
 20
17.0886
 11
123.545
 21
17.2447
  0
LINE
  8
0
 10
123.545
 20
17.2447
 11
124.129
 21
17.4759
  0
LINE
  8
0
 10
124.129
 20
17.4759
 11
124.679
 21
17.7784
  0
LINE
  8
0
 10
124.679
 20
17.7784
 11
125.187
 21
18.1474
  0
LINE
  8
0
 10
125.187
 20
18.1474
 11
125.645
 21
18.5773
  0
LINE
  8
0
 10
125.645
 20
18.5773
 11
126.045
 21
19.0611
  0
LINE
  8
0
 10
126.045
 20
19.0611
 11
126.382
 21
19.5912
  0
LINE
  8
0
 10
126.382
 20
19.5912
 11
126.649
 21
20.1594
  0
LINE
  8
0
 10
126.649
 20
20.1594
 11
126.843
 21
20.7566
  0
LINE
  8
0
 10
126.843
 20
20.7566
 11
126.961
 21
21.3733
  0
LINE
  8
0
 10
126.961
 20
21.3733
 11
127
 21
22
  0
LINE
  8
0
 10
127
 20
22
 11
127
 21
26
  0
LINE
  8
0
 10
127
 20
26
 11
126.961
 21
26.6267
  0
LINE
  8
0
 10
126.961
 20
26.6267
 11
126.843
 21
27.2434
  0
LINE
  8
0
 10
126.843
 20
27.2434
 11
126.649
 21
27.8406
  0
LINE
  8
0
 10
126.649
 20
27.8406
 11
126.382
 21
28.4088
  0
LINE
  8
0
 10
126.382
 20
28.4088
 11
126.045
 21
28.9389
  0
LINE
  8
0
 10
126.045
 20
28.9389
 11
125.645
 21
29.4227
  0
LINE
  8
0
 10
125.645
 20
29.4227
 11
125.187
 21
29.8526
  0
LINE
  8
0
 10
125.187
 20
29.8526
 11
124.679
 21
30.2216
  0
LINE
  8
0
 10
124.679
 20
30.2216
 11
124.129
 21
30.5241
  0
LINE
  8
0
 10
124.129
 20
30.5241
 11
123.545
 21
30.7553
  0
LINE
  8
0
 10
123.545
 20
30.7553
 11
122.937
 21
30.9114
  0
LINE
  8
0
 10
122.937
 20
30.9114
 11
122.314
 21
30.9901
  0
LINE
  8
0
 10
122.314
 20
30.9901
 11
-122.314
 21
30.9901
  0
LINE
  8
0
 10
-122.314
 20
30.9901
 11
-122.937
 21
30.9114
  0
LINE
  8
0
 10
-122.937
 20
30.9114
 11
-123.545
 21
30.7553
  0
LINE
  8
0
 10
-123.545
 20
30.7553
 11
-124.129
 21
30.5241
  0
LINE
  8
0
 10
-124.129
 20
30.5241
 11
-124.679
 21
30.2216
  0
LINE
  8
0
 10
-124.679
 20
30.2216
 11
-125.187
 21
29.8526
  0
LINE
  8
0
 10
-125.187
 20
29.8526
 11
-125.645
 21
29.4227
  0
LINE
  8
0
 10
-125.645
 20
29.4227
 11
-126.045
 21
28.9389
  0
LINE
  8
0
 10
-126.045
 20
28.9389
 11
-126.382
 21
28.4088
  0
LINE
  8
0
 10
-126.382
 20
28.4088
 11
-126.649
 21
27.8406
  0
LINE
  8
0
 10
-126.649
 20
27.8406
 11
-126.843
 21
27.2434
  0
LINE
  8
0
 10
-126.843
 20
27.2434
 11
-126.961
 21
26.6267
  0
LINE
  8
0
 10
-126.961
 20
26.6267
 11
-127
 21
26
  0
LINE
  8
0
 10
-127
 20
26
 11
-127
 21
22
  0
LINE
  8
0
 10
-127
 20
22
 11
-126.961
 21
21.3733
  0
LINE
  8
0
 10
-126.961
 20
21.3733
 11
-126.843
 21
20.7566
  0
LINE
  8
0
 10
-126.843
 20
20.7566
 11
-126.649
 21
20.1594
  0
LINE
  8
0
 10
-126.649
 20
20.1594
 11
-126.382
 21
19.5912
  0
LINE
  8
0
 10
-126.382
 20
19.5912
 11
-126.045
 21
19.0611
  0
LINE
  8
0
 10
-126.045
 20
19.0611
 11
-125.645
 21
18.5773
  0
LINE
  8
0
 10
-125.645
 20
18.5773
 11
-125.187
 21
18.1474
  0
LINE
  8
0
 10
-125.187
 20
18.1474
 11
-124.679
 21
17.7784
  0
LINE
  8
0
 10
-124.679
 20
17.7784
 11
-124.129
 21
17.4759
  0
LINE
  8
0
 10
-124.129
 20
17.4759
 11
-123.545
 21
17.2447
  0
LINE
  8
0
 10
-123.545
 20
17.2447
 11
-122.937
 21
17.0886
  0
LINE
  8
0
 10
-122.937
 20
17.0886
 11
-122.314
 21
17.0099
  0
LINE
  8
0
 10
-122.314
 20
17.0099
 11
122.314
 21
17.0099
  0
LINE
  8
0
 10
122.314
 20
17.0099
 11
122.937
 21
17.0886
  0
LINE
  8
0
 10
119.812
 20
21.0059
 11
119.438
 21
21.0531
  0
LINE
  8
0
 10
119.438
 20
21.0531
 11
119.073
 21
21.1468
  0
LINE
  8
0
 10
119.073
 20
21.1468
 11
118.723
 21
21.2855
  0
LINE
  8
0
 10
118.723
 20
21.2855
 11
118.393
 21
21.467
  0
LINE
  8
0
 10
118.393
 20
21.467
 11
118.088
 21
21.6885
  0
LINE
  8
0
 10
118.088
 20
21.6885
 11
117.813
 21
21.9464
  0
LINE
  8
0
 10
117.813
 20
21.9464
 11
117.573
 21
22.2366
  0
LINE
  8
0
 10
117.573
 20
22.2366
 11
117.371
 21
22.5547
  0
LINE
  8
0
 10
117.371
 20
22.5547
 11
117.211
 21
22.8956
  0
LINE
  8
0
 10
117.211
 20
22.8956
 11
117.094
 21
23.2539
  0
LINE
  8
0
 10
117.094
 20
23.2539
 11
117.024
 21
23.624
  0
LINE
  8
0
 10
117.024
 20
23.624
 11
117
 21
24
  0
LINE
  8
0
 10
117
 20
24
 11
117.024
 21
24.376
  0
LINE
  8
0
 10
117.024
 20
24.376
 11
117.094
 21
24.7461
  0
LINE
  8
0
 10
117.094
 20
24.7461
 11
117.211
 21
25.1044
  0
LINE
  8
0
 10
117.211
 20
25.1044
 11
117.371
 21
25.4453
  0
LINE
  8
0
 10
117.371
 20
25.4453
 11
117.573
 21
25.7634
  0
LINE
  8
0
 10
117.573
 20
25.7634
 11
117.813
 21
26.0536
  0
LINE
  8
0
 10
117.813
 20
26.0536
 11
118.088
 21
26.3115
  0
LINE
  8
0
 10
118.088
 20
26.3115
 11
118.393
 21
26.533
  0
LINE
  8
0
 10
118.393
 20
26.533
 11
118.723
 21
26.7145
  0
LINE
  8
0
 10
118.723
 20
26.7145
 11
119.073
 21
26.8532
  0
LINE
  8
0
 10
119.073
 20
26.8532
 11
119.438
 21
26.9469
  0
LINE
  8
0
 10
119.438
 20
26.9469
 11
119.812
 21
26.9941
  0
LINE
  8
0
 10
119.812
 20
26.9941
 11
120.188
 21
26.9941
  0
LINE
  8
0
 10
120.188
 20
26.9941
 11
120.562
 21
26.9469
  0
LINE
  8
0
 10
120.562
 20
26.9469
 11
120.927
 21
26.8532
  0
LINE
  8
0
 10
120.927
 20
26.8532
 11
121.277
 21
26.7145
  0
LINE
  8
0
 10
121.277
 20
26.7145
 11
121.607
 21
26.533
  0
LINE
  8
0
 10
121.607
 20
26.533
 11
121.912
 21
26.3115
  0
LINE
  8
0
 10
121.912
 20
26.3115
 11
122.187
 21
26.0536
  0
LINE
  8
0
 10
122.187
 20
26.0536
 11
122.427
 21
25.7634
  0
LINE
  8
0
 10
122.427
 20
25.7634
 11
122.629
 21
25.4453
  0
LINE
  8
0
 10
122.629
 20
25.4453
 11
122.789
 21
25.1044
  0
LINE
  8
0
 10
122.789
 20
25.1044
 11
122.906
 21
24.7461
  0
LINE
  8
0
 10
122.906
 20
24.7461
 11
122.976
 21
24.376
  0
LINE
  8
0
 10
122.976
 20
24.376
 11
123
 21
24
  0
LINE
  8
0
 10
123
 20
24
 11
122.976
 21
23.624
  0
LINE
  8
0
 10
122.976
 20
23.624
 11
122.906
 21
23.2539
  0
LINE
  8
0
 10
122.906
 20
23.2539
 11
122.789
 21
22.8956
  0
LINE
  8
0
 10
122.789
 20
22.8956
 11
122.629
 21
22.5547
  0
LINE
  8
0
 10
122.629
 20
22.5547
 11
122.427
 21
22.2366
  0
LINE
  8
0
 10
122.427
 20
22.2366
 11
122.187
 21
21.9464
  0
LINE
  8
0
 10
122.187
 20
21.9464
 11
121.912
 21
21.6885
  0
LINE
  8
0
 10
121.912
 20
21.6885
 11
121.607
 21
21.467
  0
LINE
  8
0
 10
121.607
 20
21.467
 11
121.277
 21
21.2855
  0
LINE
  8
0
 10
121.277
 20
21.2855
 11
120.927
 21
21.1468
  0
LINE
  8
0
 10
120.927
 20
21.1468
 11
120.562
 21
21.0531
  0
LINE
  8
0
 10
120.562
 20
21.0531
 11
120.188
 21
21.0059
  0
LINE
  8
0
 10
120.188
 20
21.0059
 11
119.812
 21
21.0059
  0
LINE
  8
0
 10
-120.188
 20
21.0059
 11
-120.562
 21
21.0531
  0
LINE
  8
0
 10
-120.562
 20
21.0531
 11
-120.927
 21
21.1468
  0
LINE
  8
0
 10
-120.927
 20
21.1468
 11
-121.277
 21
21.2855
  0
LINE
  8
0
 10
-121.277
 20
21.2855
 11
-121.607
 21
21.467
  0
LINE
  8
0
 10
-121.607
 20
21.467
 11
-121.912
 21
21.6885
  0
LINE
  8
0
 10
-121.912
 20
21.6885
 11
-122.187
 21
21.9464
  0
LINE
  8
0
 10
-122.187
 20
21.9464
 11
-122.427
 21
22.2366
  0
LINE
  8
0
 10
-122.427
 20
22.2366
 11
-122.629
 21
22.5547
  0
LINE
  8
0
 10
-122.629
 20
22.5547
 11
-122.789
 21
22.8956
  0
LINE
  8
0
 10
-122.789
 20
22.8956
 11
-122.906
 21
23.2539
  0
LINE
  8
0
 10
-122.906
 20
23.2539
 11
-122.976
 21
23.624
  0
LINE
  8
0
 10
-122.976
 20
23.624
 11
-123
 21
24
  0
LINE
  8
0
 10
-123
 20
24
 11
-122.976
 21
24.376
  0
LINE
  8
0
 10
-122.976
 20
24.376
 11
-122.906
 21
24.7461
  0
LINE
  8
0
 10
-122.906
 20
24.7461
 11
-122.789
 21
25.1044
  0
LINE
  8
0
 10
-122.789
 20
25.1044
 11
-122.629
 21
25.4453
  0
LINE
  8
0
 10
-122.629
 20
25.4453
 11
-122.427
 21
25.7634
  0
LINE
  8
0
 10
-122.427
 20
25.7634
 11
-122.187
 21
26.0536
  0
LINE
  8
0
 10
-122.187
 20
26.0536
 11
-121.912
 21
26.3115
  0
LINE
  8
0
 10
-121.912
 20
26.3115
 11
-121.607
 21
26.533
  0
LINE
  8
0
 10
-121.607
 20
26.533
 11
-121.277
 21
26.7145
  0
LINE
  8
0
 10
-121.277
 20
26.7145
 11
-120.927
 21
26.8532
  0
LINE
  8
0
 10
-120.927
 20
26.8532
 11
-120.562
 21
26.9469
  0
LINE
  8
0
 10
-120.562
 20
26.9469
 11
-120.188
 21
26.9941
  0
LINE
  8
0
 10
-120.188
 20
26.9941
 11
-119.812
 21
26.9941
  0
LINE
  8
0
 10
-119.812
 20
26.9941
 11
-119.438
 21
26.9469
  0
LINE
  8
0
 10
-119.438
 20
26.9469
 11
-119.073
 21
26.8532
  0
LINE
  8
0
 10
-119.073
 20
26.8532
 11
-118.723
 21
26.7145
  0
LINE
  8
0
 10
-118.723
 20
26.7145
 11
-118.393
 21
26.533
  0
LINE
  8
0
 10
-118.393
 20
26.533
 11
-118.088
 21
26.3115
  0
LINE
  8
0
 10
-118.088
 20
26.3115
 11
-117.813
 21
26.0536
  0
LINE
  8
0
 10
-117.813
 20
26.0536
 11
-117.573
 21
25.7634
  0
LINE
  8
0
 10
-117.573
 20
25.7634
 11
-117.371
 21
25.4453
  0
LINE
  8
0
 10
-117.371
 20
25.4453
 11
-117.211
 21
25.1044
  0
LINE
  8
0
 10
-117.211
 20
25.1044
 11
-117.094
 21
24.7461
  0
LINE
  8
0
 10
-117.094
 20
24.7461
 11
-117.024
 21
24.376
  0
LINE
  8
0
 10
-117.024
 20
24.376
 11
-117
 21
24
  0
LINE
  8
0
 10
-117
 20
24
 11
-117.024
 21
23.624
  0
LINE
  8
0
 10
-117.024
 20
23.624
 11
-117.094
 21
23.2539
  0
LINE
  8
0
 10
-117.094
 20
23.2539
 11
-117.211
 21
22.8956
  0
LINE
  8
0
 10
-117.211
 20
22.8956
 11
-117.371
 21
22.5547
  0
LINE
  8
0
 10
-117.371
 20
22.5547
 11
-117.573
 21
22.2366
  0
LINE
  8
0
 10
-117.573
 20
22.2366
 11
-117.813
 21
21.9464
  0
LINE
  8
0
 10
-117.813
 20
21.9464
 11
-118.088
 21
21.6885
  0
LINE
  8
0
 10
-118.088
 20
21.6885
 11
-118.393
 21
21.467
  0
LINE
  8
0
 10
-118.393
 20
21.467
 11
-118.723
 21
21.2855
  0
LINE
  8
0
 10
-118.723
 20
21.2855
 11
-119.073
 21
21.1468
  0
LINE
  8
0
 10
-119.073
 20
21.1468
 11
-119.438
 21
21.0531
  0
LINE
  8
0
 10
-119.438
 20
21.0531
 11
-119.812
 21
21.0059
  0
LINE
  8
0
 10
-119.812
 20
21.0059
 11
-120.188
 21
21.0059
  0
ENDSEC
  0
SECTION
  2
OBJECTS
  0
DICTIONARY
  0
ENDSEC
  0
EOF
