solid OpenSCAD_Model
  facet normal -0.904619 -0.426222 0
    outer loop
      vertex -131.978 1.1964 0
      vertex -132.152 1.5657 30
      vertex -132.152 1.5657 0
    endloop
  endfacet
  facet normal -0.904619 -0.426222 0
    outer loop
      vertex -132.152 1.5657 30
      vertex -131.978 1.1964 0
      vertex -131.978 1.1964 30
    endloop
  endfacet
  facet normal -0.843984 -0.536368 0
    outer loop
      vertex -132.152 1.5657 0
      vertex -132.371 1.9103 30
      vertex -132.371 1.9103 0
    endloop
  endfacet
  facet normal -0.843984 -0.536368 0
    outer loop
      vertex -132.371 1.9103 30
      vertex -132.152 1.5657 0
      vertex -132.152 1.5657 30
    endloop
  endfacet
  facet normal -0.367675 -0.929954 0
    outer loop
      vertex -133.996 3.09093 0
      vertex -133.616 2.94069 30
      vertex -133.996 3.09093 30
    endloop
  endfacet
  facet normal -0.367675 -0.929954 -0
    outer loop
      vertex -133.616 2.94069 30
      vertex -133.996 3.09093 0
      vertex -133.616 2.94069 0
    endloop
  endfacet
  facet normal 0.367675 -0.929954 0
    outer loop
      vertex -136.384 2.94069 0
      vertex -136.004 3.09093 30
      vertex -136.384 2.94069 30
    endloop
  endfacet
  facet normal 0.367675 -0.929954 0
    outer loop
      vertex -136.004 3.09093 30
      vertex -136.384 2.94069 0
      vertex -136.004 3.09093 0
    endloop
  endfacet
  facet normal 0.904619 -0.426222 0
    outer loop
      vertex -138.022 1.1964 30
      vertex -137.848 1.5657 0
      vertex -137.848 1.5657 30
    endloop
  endfacet
  facet normal 0.904619 -0.426222 0
    outer loop
      vertex -137.848 1.5657 0
      vertex -138.022 1.1964 30
      vertex -138.022 1.1964 0
    endloop
  endfacet
  facet normal -0.982502 0.186252 0
    outer loop
      vertex -131.852 -0.808242 0
      vertex -131.776 -0.407332 30
      vertex -131.776 -0.407332 0
    endloop
  endfacet
  facet normal -0.982502 0.186252 0
    outer loop
      vertex -131.776 -0.407332 30
      vertex -131.852 -0.808242 0
      vertex -131.852 -0.808242 30
    endloop
  endfacet
  facet normal -0.125325 -0.992116 0
    outer loop
      vertex -134.796 3.24359 0
      vertex -134.391 3.19243 30
      vertex -134.796 3.24359 30
    endloop
  endfacet
  facet normal -0.125325 -0.992116 -0
    outer loop
      vertex -134.391 3.19243 30
      vertex -134.796 3.24359 0
      vertex -134.391 3.19243 0
    endloop
  endfacet
  facet normal -0.586847 -0.809698 0
    outer loop
      vertex -133.259 2.74407 0
      vertex -132.928 2.50417 30
      vertex -133.259 2.74407 30
    endloop
  endfacet
  facet normal -0.586847 -0.809698 -0
    outer loop
      vertex -132.928 2.50417 30
      vertex -133.259 2.74407 0
      vertex -132.928 2.50417 0
    endloop
  endfacet
  facet normal 0.982502 -0.186252 0
    outer loop
      vertex -138.224 0.407332 30
      vertex -138.148 0.808242 0
      vertex -138.148 0.808242 30
    endloop
  endfacet
  facet normal 0.982502 -0.186252 0
    outer loop
      vertex -138.148 0.808242 0
      vertex -138.224 0.407332 30
      vertex -138.224 0.407332 0
    endloop
  endfacet
  facet normal 0.770706 -0.63719 0
    outer loop
      vertex -137.629 1.9103 30
      vertex -137.369 2.22478 0
      vertex -137.369 2.22478 30
    endloop
  endfacet
  facet normal 0.770706 -0.63719 0
    outer loop
      vertex -137.369 2.22478 0
      vertex -137.629 1.9103 30
      vertex -137.629 1.9103 0
    endloop
  endfacet
  facet normal 0.482427 -0.875936 0
    outer loop
      vertex -136.741 2.74407 0
      vertex -136.384 2.94069 30
      vertex -136.741 2.74407 30
    endloop
  endfacet
  facet normal 0.482427 -0.875936 0
    outer loop
      vertex -136.384 2.94069 30
      vertex -136.741 2.74407 0
      vertex -136.384 2.94069 0
    endloop
  endfacet
  facet normal 0.125325 -0.992116 0
    outer loop
      vertex -135.609 3.19243 0
      vertex -135.204 3.24359 30
      vertex -135.609 3.19243 30
    endloop
  endfacet
  facet normal 0.125325 -0.992116 0
    outer loop
      vertex -135.204 3.24359 30
      vertex -135.609 3.19243 0
      vertex -135.204 3.24359 0
    endloop
  endfacet
  facet normal -0.997969 -0.0637004 0
    outer loop
      vertex -131.75 0 0
      vertex -131.776 0.407332 30
      vertex -131.776 0.407332 0
    endloop
  endfacet
  facet normal -0.997969 -0.0637004 0
    outer loop
      vertex -131.776 0.407332 30
      vertex -131.75 0 0
      vertex -131.75 0 30
    endloop
  endfacet
  facet normal -0.951143 0.308751 0
    outer loop
      vertex -131.978 -1.1964 0
      vertex -131.852 -0.808242 30
      vertex -131.852 -0.808242 0
    endloop
  endfacet
  facet normal -0.951143 0.308751 0
    outer loop
      vertex -131.852 -0.808242 30
      vertex -131.978 -1.1964 0
      vertex -131.978 -1.1964 30
    endloop
  endfacet
  facet normal -0.586847 0.809698 0
    outer loop
      vertex -132.928 -2.50417 0
      vertex -133.259 -2.74407 30
      vertex -132.928 -2.50417 30
    endloop
  endfacet
  facet normal -0.586847 0.809698 0
    outer loop
      vertex -133.259 -2.74407 30
      vertex -132.928 -2.50417 0
      vertex -133.259 -2.74407 0
    endloop
  endfacet
  facet normal -0.982502 -0.186252 0
    outer loop
      vertex -131.776 0.407332 0
      vertex -131.852 0.808242 30
      vertex -131.852 0.808242 0
    endloop
  endfacet
  facet normal -0.982502 -0.186252 0
    outer loop
      vertex -131.852 0.808242 30
      vertex -131.776 0.407332 0
      vertex -131.776 0.407332 30
    endloop
  endfacet
  facet normal -0.951143 -0.308751 0
    outer loop
      vertex -131.852 0.808242 0
      vertex -131.978 1.1964 30
      vertex -131.978 1.1964 0
    endloop
  endfacet
  facet normal -0.951143 -0.308751 0
    outer loop
      vertex -131.978 1.1964 30
      vertex -131.852 0.808242 0
      vertex -131.852 0.808242 30
    endloop
  endfacet
  facet normal -0.685183 -0.728371 0
    outer loop
      vertex -132.928 2.50417 0
      vertex -132.631 2.22478 30
      vertex -132.928 2.50417 30
    endloop
  endfacet
  facet normal -0.685183 -0.728371 -0
    outer loop
      vertex -132.631 2.22478 30
      vertex -132.928 2.50417 0
      vertex -132.631 2.22478 0
    endloop
  endfacet
  facet normal 0 -1 0
    outer loop
      vertex -135.204 3.24359 0
      vertex -134.796 3.24359 30
      vertex -135.204 3.24359 30
    endloop
  endfacet
  facet normal 0 -1 -0
    outer loop
      vertex -134.796 3.24359 30
      vertex -135.204 3.24359 0
      vertex -134.796 3.24359 0
    endloop
  endfacet
  facet normal -0.248877 -0.968535 0
    outer loop
      vertex -134.391 3.19243 0
      vertex -133.996 3.09093 30
      vertex -134.391 3.19243 30
    endloop
  endfacet
  facet normal -0.248877 -0.968535 -0
    outer loop
      vertex -133.996 3.09093 30
      vertex -134.391 3.19243 0
      vertex -133.996 3.09093 0
    endloop
  endfacet
  facet normal -0.482427 -0.875936 0
    outer loop
      vertex -133.616 2.94069 0
      vertex -133.259 2.74407 30
      vertex -133.616 2.94069 30
    endloop
  endfacet
  facet normal -0.482427 -0.875936 -0
    outer loop
      vertex -133.259 2.74407 30
      vertex -133.616 2.94069 0
      vertex -133.259 2.74407 0
    endloop
  endfacet
  facet normal 0.997969 -0.0637004 0
    outer loop
      vertex -138.25 0 30
      vertex -138.224 0.407332 0
      vertex -138.224 0.407332 30
    endloop
  endfacet
  facet normal 0.997969 -0.0637004 0
    outer loop
      vertex -138.224 0.407332 0
      vertex -138.25 0 30
      vertex -138.25 0 0
    endloop
  endfacet
  facet normal 0 0 1
    outer loop
      vertex 138.022 1.1964 30
      vertex 142 2 30
      vertex 141.961 2.62667 30
    endloop
  endfacet
  facet normal 0 0 1
    outer loop
      vertex 142 2 30
      vertex 138.25 0 30
      vertex 142 -2 30
    endloop
  endfacet
  facet normal 0 0 1
    outer loop
      vertex 137.848 1.5657 30
      vertex 141.961 2.62667 30
      vertex 141.843 3.24345 30
    endloop
  endfacet
  facet normal -0 0 1
    outer loop
      vertex 138.224 -0.407332 30
      vertex 142 -2 30
      vertex 138.25 0 30
    endloop
  endfacet
  facet normal 0 0 1
    outer loop
      vertex 137.848 1.5657 30
      vertex 141.843 3.24345 30
      vertex 141.649 3.84062 30
    endloop
  endfacet
  facet normal -0 0 1
    outer loop
      vertex 138.148 -0.808242 30
      vertex 142 -2 30
      vertex 138.224 -0.407332 30
    endloop
  endfacet
  facet normal 0 0 1
    outer loop
      vertex 137.629 1.9103 30
      vertex 141.649 3.84062 30
      vertex 141.382 4.40877 30
    endloop
  endfacet
  facet normal -0 0 1
    outer loop
      vertex 138.022 -1.1964 30
      vertex 142 -2 30
      vertex 138.148 -0.808242 30
    endloop
  endfacet
  facet normal 0 0 1
    outer loop
      vertex 137.629 1.9103 30
      vertex 141.382 4.40877 30
      vertex 141.045 4.93893 30
    endloop
  endfacet
  facet normal 0 0 1
    outer loop
      vertex 142 -2 30
      vertex 138.022 -1.1964 30
      vertex 141.961 -2.62667 30
    endloop
  endfacet
  facet normal 0 0 1
    outer loop
      vertex 137.369 2.22478 30
      vertex 141.045 4.93893 30
      vertex 140.645 5.42274 30
    endloop
  endfacet
  facet normal -0 0 1
    outer loop
      vertex 137.848 -1.5657 30
      vertex 141.961 -2.62667 30
      vertex 138.022 -1.1964 30
    endloop
  endfacet
  facet normal 0 0 1
    outer loop
      vertex 137.369 2.22478 30
      vertex 140.645 5.42274 30
      vertex 140.187 5.85257 30
    endloop
  endfacet
  facet normal 0 0 1
    outer loop
      vertex 141.961 -2.62667 30
      vertex 137.848 -1.5657 30
      vertex 141.843 -3.24345 30
    endloop
  endfacet
  facet normal 0 0 1
    outer loop
      vertex 137.072 2.50417 30
      vertex 140.187 5.85257 30
      vertex 139.679 6.22164 30
    endloop
  endfacet
  facet normal 0 0 1
    outer loop
      vertex 141.843 -3.24345 30
      vertex 137.848 -1.5657 30
      vertex 141.649 -3.84062 30
    endloop
  endfacet
  facet normal 0 0 1
    outer loop
      vertex 137.072 2.50417 30
      vertex 139.679 6.22164 30
      vertex 139.129 6.52413 30
    endloop
  endfacet
  facet normal -0 0 1
    outer loop
      vertex 137.629 -1.9103 30
      vertex 141.649 -3.84062 30
      vertex 137.848 -1.5657 30
    endloop
  endfacet
  facet normal 0 0 1
    outer loop
      vertex 136.741 2.74407 30
      vertex 139.129 6.52413 30
      vertex 138.545 6.75528 30
    endloop
  endfacet
  facet normal 0 0 1
    outer loop
      vertex 141.649 -3.84062 30
      vertex 137.629 -1.9103 30
      vertex 141.382 -4.40877 30
    endloop
  endfacet
  facet normal 0 0 1
    outer loop
      vertex 141.382 -4.40877 30
      vertex 137.629 -1.9103 30
      vertex 141.045 -4.93893 30
    endloop
  endfacet
  facet normal 0 0 1
    outer loop
      vertex 142 2 30
      vertex 138.224 0.407332 30
      vertex 138.25 0 30
    endloop
  endfacet
  facet normal 0 0 1
    outer loop
      vertex 142 2 30
      vertex 138.148 0.808242 30
      vertex 138.224 0.407332 30
    endloop
  endfacet
  facet normal 0 0 1
    outer loop
      vertex 142 2 30
      vertex 138.022 1.1964 30
      vertex 138.148 0.808242 30
    endloop
  endfacet
  facet normal 0 0 1
    outer loop
      vertex 136.741 2.74407 30
      vertex 138.545 6.75528 30
      vertex 137.937 6.91144 30
    endloop
  endfacet
  facet normal 0 0 1
    outer loop
      vertex 141.961 2.62667 30
      vertex 137.848 1.5657 30
      vertex 138.022 1.1964 30
    endloop
  endfacet
  facet normal 0 0 1
    outer loop
      vertex 141.649 3.84062 30
      vertex 137.629 1.9103 30
      vertex 137.848 1.5657 30
    endloop
  endfacet
  facet normal 0 0 1
    outer loop
      vertex 141.045 4.93893 30
      vertex 137.369 2.22478 30
      vertex 137.629 1.9103 30
    endloop
  endfacet
  facet normal 0 0 1
    outer loop
      vertex 136.384 2.94069 30
      vertex 137.937 6.91144 30
      vertex 137.314 6.99013 30
    endloop
  endfacet
  facet normal 0 0 1
    outer loop
      vertex 140.187 5.85257 30
      vertex 137.072 2.50417 30
      vertex 137.369 2.22478 30
    endloop
  endfacet
  facet normal 0 0 1
    outer loop
      vertex 139.129 6.52413 30
      vertex 136.741 2.74407 30
      vertex 137.072 2.50417 30
    endloop
  endfacet
  facet normal 0 0 1
    outer loop
      vertex 137.937 6.91144 30
      vertex 136.384 2.94069 30
      vertex 136.741 2.74407 30
    endloop
  endfacet
  facet normal 0 0 1
    outer loop
      vertex 137.314 6.99013 30
      vertex 136.004 3.09093 30
      vertex 136.384 2.94069 30
    endloop
  endfacet
  facet normal 0 0 1
    outer loop
      vertex 137.314 6.99013 30
      vertex 135.609 3.19243 30
      vertex 136.004 3.09093 30
    endloop
  endfacet
  facet normal 0 0 1
    outer loop
      vertex 137.314 6.99013 30
      vertex 135.204 3.24359 30
      vertex 135.609 3.19243 30
    endloop
  endfacet
  facet normal 0 0 1
    outer loop
      vertex 137.314 6.99013 30
      vertex 134.796 3.24359 30
      vertex 135.204 3.24359 30
    endloop
  endfacet
  facet normal 0 0 1
    outer loop
      vertex 137.314 6.99013 30
      vertex 134.391 3.19243 30
      vertex 134.796 3.24359 30
    endloop
  endfacet
  facet normal 0 0 1
    outer loop
      vertex 137.314 6.99013 30
      vertex 133.996 3.09093 30
      vertex 134.391 3.19243 30
    endloop
  endfacet
  facet normal 0 0 1
    outer loop
      vertex 137.314 6.99013 30
      vertex 133.616 2.94069 30
      vertex 133.996 3.09093 30
    endloop
  endfacet
  facet normal 0 0 1
    outer loop
      vertex 137.314 6.99013 30
      vertex 133.259 2.74407 30
      vertex 133.616 2.94069 30
    endloop
  endfacet
  facet normal 0 0 1
    outer loop
      vertex 137.314 6.99013 30
      vertex 132.928 2.50417 30
      vertex 133.259 2.74407 30
    endloop
  endfacet
  facet normal 0 0 1
    outer loop
      vertex 137.314 6.99013 30
      vertex 132.631 2.22478 30
      vertex 132.928 2.50417 30
    endloop
  endfacet
  facet normal 0 0 1
    outer loop
      vertex 131.776 0.407332 30
      vertex -131.75 0 30
      vertex 131.75 0 30
    endloop
  endfacet
  facet normal 0 0 1
    outer loop
      vertex -131.776 0.407332 30
      vertex 131.776 0.407332 30
      vertex 131.852 0.808242 30
    endloop
  endfacet
  facet normal 0 0 1
    outer loop
      vertex -131.852 0.808242 30
      vertex 131.852 0.808242 30
      vertex 131.978 1.1964 30
    endloop
  endfacet
  facet normal 0 0 1
    outer loop
      vertex -131.978 1.1964 30
      vertex 131.978 1.1964 30
      vertex 132.152 1.5657 30
    endloop
  endfacet
  facet normal 0 0 1
    outer loop
      vertex -132.152 1.5657 30
      vertex 132.152 1.5657 30
      vertex 132.371 1.9103 30
    endloop
  endfacet
  facet normal 0 0 1
    outer loop
      vertex -132.371 1.9103 30
      vertex 132.371 1.9103 30
      vertex 132.631 2.22478 30
    endloop
  endfacet
  facet normal 0 0 1
    outer loop
      vertex -132.631 2.22478 30
      vertex 132.631 2.22478 30
      vertex 137.314 6.99013 30
    endloop
  endfacet
  facet normal 0 0 1
    outer loop
      vertex 131.776 0.407332 30
      vertex -131.776 0.407332 30
      vertex -131.75 0 30
    endloop
  endfacet
  facet normal 0 0 1
    outer loop
      vertex 131.852 0.808242 30
      vertex -131.852 0.808242 30
      vertex -131.776 0.407332 30
    endloop
  endfacet
  facet normal 0 0 1
    outer loop
      vertex 131.978 1.1964 30
      vertex -131.978 1.1964 30
      vertex -131.852 0.808242 30
    endloop
  endfacet
  facet normal 0 0 1
    outer loop
      vertex 132.152 1.5657 30
      vertex -132.152 1.5657 30
      vertex -131.978 1.1964 30
    endloop
  endfacet
  facet normal 0 0 1
    outer loop
      vertex 132.371 1.9103 30
      vertex -132.371 1.9103 30
      vertex -132.152 1.5657 30
    endloop
  endfacet
  facet normal 0 0 1
    outer loop
      vertex 132.631 2.22478 30
      vertex -132.631 2.22478 30
      vertex -132.371 1.9103 30
    endloop
  endfacet
  facet normal -0 0 1
    outer loop
      vertex -137.314 6.99013 30
      vertex -132.631 2.22478 30
      vertex 137.314 6.99013 30
    endloop
  endfacet
  facet normal 0 0 1
    outer loop
      vertex -132.631 2.22478 30
      vertex -137.314 6.99013 30
      vertex -132.928 2.50417 30
    endloop
  endfacet
  facet normal 0 0 1
    outer loop
      vertex -132.928 2.50417 30
      vertex -137.314 6.99013 30
      vertex -133.259 2.74407 30
    endloop
  endfacet
  facet normal 0 0 1
    outer loop
      vertex -133.259 2.74407 30
      vertex -137.314 6.99013 30
      vertex -133.616 2.94069 30
    endloop
  endfacet
  facet normal 0 0 1
    outer loop
      vertex -133.616 2.94069 30
      vertex -137.314 6.99013 30
      vertex -133.996 3.09093 30
    endloop
  endfacet
  facet normal 0 0 1
    outer loop
      vertex -133.996 3.09093 30
      vertex -137.314 6.99013 30
      vertex -134.391 3.19243 30
    endloop
  endfacet
  facet normal 0 0 1
    outer loop
      vertex -134.391 3.19243 30
      vertex -137.314 6.99013 30
      vertex -134.796 3.24359 30
    endloop
  endfacet
  facet normal 0 0 1
    outer loop
      vertex -134.796 3.24359 30
      vertex -137.314 6.99013 30
      vertex -135.204 3.24359 30
    endloop
  endfacet
  facet normal 0 0 1
    outer loop
      vertex -137.314 6.99013 30
      vertex -135.609 3.19243 30
      vertex -135.204 3.24359 30
    endloop
  endfacet
  facet normal 0 0 1
    outer loop
      vertex -137.314 6.99013 30
      vertex -136.004 3.09093 30
      vertex -135.609 3.19243 30
    endloop
  endfacet
  facet normal 0 0 1
    outer loop
      vertex -137.314 6.99013 30
      vertex -136.384 2.94069 30
      vertex -136.004 3.09093 30
    endloop
  endfacet
  facet normal -0 0 1
    outer loop
      vertex -137.937 6.91144 30
      vertex -136.384 2.94069 30
      vertex -137.314 6.99013 30
    endloop
  endfacet
  facet normal 0 0 1
    outer loop
      vertex -136.384 2.94069 30
      vertex -137.937 6.91144 30
      vertex -136.741 2.74407 30
    endloop
  endfacet
  facet normal -0 0 1
    outer loop
      vertex -138.545 6.75528 30
      vertex -136.741 2.74407 30
      vertex -137.937 6.91144 30
    endloop
  endfacet
  facet normal -0 0 1
    outer loop
      vertex -139.129 6.52413 30
      vertex -136.741 2.74407 30
      vertex -138.545 6.75528 30
    endloop
  endfacet
  facet normal 0 0 1
    outer loop
      vertex -136.741 2.74407 30
      vertex -139.129 6.52413 30
      vertex -137.072 2.50417 30
    endloop
  endfacet
  facet normal -0 0 1
    outer loop
      vertex -139.679 6.22164 30
      vertex -137.072 2.50417 30
      vertex -139.129 6.52413 30
    endloop
  endfacet
  facet normal -0 0 1
    outer loop
      vertex -140.187 5.85257 30
      vertex -137.072 2.50417 30
      vertex -139.679 6.22164 30
    endloop
  endfacet
  facet normal 0 0 1
    outer loop
      vertex -137.072 2.50417 30
      vertex -140.187 5.85257 30
      vertex -137.369 2.22478 30
    endloop
  endfacet
  facet normal -0 0 1
    outer loop
      vertex -140.645 5.42274 30
      vertex -137.369 2.22478 30
      vertex -140.187 5.85257 30
    endloop
  endfacet
  facet normal -0 0 1
    outer loop
      vertex -141.045 4.93893 30
      vertex -137.369 2.22478 30
      vertex -140.645 5.42274 30
    endloop
  endfacet
  facet normal 0 0 1
    outer loop
      vertex -137.369 2.22478 30
      vertex -141.045 4.93893 30
      vertex -137.629 1.9103 30
    endloop
  endfacet
  facet normal -0 0 1
    outer loop
      vertex 137.369 -2.22478 30
      vertex 141.045 -4.93893 30
      vertex 137.629 -1.9103 30
    endloop
  endfacet
  facet normal 0 0 1
    outer loop
      vertex 141.045 -4.93893 30
      vertex 137.369 -2.22478 30
      vertex 140.645 -5.42274 30
    endloop
  endfacet
  facet normal 0 0 1
    outer loop
      vertex 140.645 -5.42274 30
      vertex 137.369 -2.22478 30
      vertex 140.187 -5.85257 30
    endloop
  endfacet
  facet normal -0 0 1
    outer loop
      vertex 137.072 -2.50417 30
      vertex 140.187 -5.85257 30
      vertex 137.369 -2.22478 30
    endloop
  endfacet
  facet normal 0 0 1
    outer loop
      vertex 140.187 -5.85257 30
      vertex 137.072 -2.50417 30
      vertex 139.679 -6.22164 30
    endloop
  endfacet
  facet normal 0 0 1
    outer loop
      vertex 139.679 -6.22164 30
      vertex 137.072 -2.50417 30
      vertex 139.129 -6.52413 30
    endloop
  endfacet
  facet normal -0 0 1
    outer loop
      vertex 136.741 -2.74407 30
      vertex 139.129 -6.52413 30
      vertex 137.072 -2.50417 30
    endloop
  endfacet
  facet normal 0 0 1
    outer loop
      vertex 139.129 -6.52413 30
      vertex 136.741 -2.74407 30
      vertex 138.545 -6.75528 30
    endloop
  endfacet
  facet normal 0 0 1
    outer loop
      vertex 138.545 -6.75528 30
      vertex 136.741 -2.74407 30
      vertex 137.937 -6.91144 30
    endloop
  endfacet
  facet normal -0 0 1
    outer loop
      vertex 136.384 -2.94069 30
      vertex 137.937 -6.91144 30
      vertex 136.741 -2.74407 30
    endloop
  endfacet
  facet normal 0 0 1
    outer loop
      vertex 137.937 -6.91144 30
      vertex 136.384 -2.94069 30
      vertex 137.314 -6.99013 30
    endloop
  endfacet
  facet normal -0 0 1
    outer loop
      vertex 136.004 -3.09093 30
      vertex 137.314 -6.99013 30
      vertex 136.384 -2.94069 30
    endloop
  endfacet
  facet normal -0 0 1
    outer loop
      vertex 135.609 -3.19243 30
      vertex 137.314 -6.99013 30
      vertex 136.004 -3.09093 30
    endloop
  endfacet
  facet normal -0 0 1
    outer loop
      vertex 135.204 -3.24359 30
      vertex 137.314 -6.99013 30
      vertex 135.609 -3.19243 30
    endloop
  endfacet
  facet normal -0 0 1
    outer loop
      vertex 134.796 -3.24359 30
      vertex 137.314 -6.99013 30
      vertex 135.204 -3.24359 30
    endloop
  endfacet
  facet normal 0 0 1
    outer loop
      vertex 134.391 -3.19243 30
      vertex 137.314 -6.99013 30
      vertex 134.796 -3.24359 30
    endloop
  endfacet
  facet normal 0 0 1
    outer loop
      vertex 133.996 -3.09093 30
      vertex 137.314 -6.99013 30
      vertex 134.391 -3.19243 30
    endloop
  endfacet
  facet normal 0 0 1
    outer loop
      vertex 133.616 -2.94069 30
      vertex 137.314 -6.99013 30
      vertex 133.996 -3.09093 30
    endloop
  endfacet
  facet normal 0 0 1
    outer loop
      vertex 133.259 -2.74407 30
      vertex 137.314 -6.99013 30
      vertex 133.616 -2.94069 30
    endloop
  endfacet
  facet normal 0 0 1
    outer loop
      vertex 132.928 -2.50417 30
      vertex 137.314 -6.99013 30
      vertex 133.259 -2.74407 30
    endloop
  endfacet
  facet normal 0 0 1
    outer loop
      vertex 132.631 -2.22478 30
      vertex 137.314 -6.99013 30
      vertex 132.928 -2.50417 30
    endloop
  endfacet
  facet normal -0 0 1
    outer loop
      vertex -131.75 0 30
      vertex 131.776 -0.407332 30
      vertex 131.75 0 30
    endloop
  endfacet
  facet normal 0 0 1
    outer loop
      vertex -131.776 -0.407332 30
      vertex 131.776 -0.407332 30
      vertex -131.75 0 30
    endloop
  endfacet
  facet normal 0 0 1
    outer loop
      vertex 131.776 -0.407332 30
      vertex -131.776 -0.407332 30
      vertex 131.852 -0.808242 30
    endloop
  endfacet
  facet normal 0 0 1
    outer loop
      vertex -131.852 -0.808242 30
      vertex 131.852 -0.808242 30
      vertex -131.776 -0.407332 30
    endloop
  endfacet
  facet normal 0 0 1
    outer loop
      vertex 131.852 -0.808242 30
      vertex -131.852 -0.808242 30
      vertex 131.978 -1.1964 30
    endloop
  endfacet
  facet normal 0 0 1
    outer loop
      vertex -131.978 -1.1964 30
      vertex 131.978 -1.1964 30
      vertex -131.852 -0.808242 30
    endloop
  endfacet
  facet normal 0 0 1
    outer loop
      vertex 131.978 -1.1964 30
      vertex -131.978 -1.1964 30
      vertex 132.152 -1.5657 30
    endloop
  endfacet
  facet normal 0 0 1
    outer loop
      vertex -132.152 -1.5657 30
      vertex 132.152 -1.5657 30
      vertex -131.978 -1.1964 30
    endloop
  endfacet
  facet normal 0 0 1
    outer loop
      vertex 132.152 -1.5657 30
      vertex -132.152 -1.5657 30
      vertex 132.371 -1.9103 30
    endloop
  endfacet
  facet normal 0 0 1
    outer loop
      vertex -132.371 -1.9103 30
      vertex 132.371 -1.9103 30
      vertex -132.152 -1.5657 30
    endloop
  endfacet
  facet normal 0 0 1
    outer loop
      vertex 132.371 -1.9103 30
      vertex -132.371 -1.9103 30
      vertex 132.631 -2.22478 30
    endloop
  endfacet
  facet normal 0 0 1
    outer loop
      vertex -132.631 -2.22478 30
      vertex 132.631 -2.22478 30
      vertex -132.371 -1.9103 30
    endloop
  endfacet
  facet normal 0 0 1
    outer loop
      vertex 132.631 -2.22478 30
      vertex -132.631 -2.22478 30
      vertex 137.314 -6.99013 30
    endloop
  endfacet
  facet normal 0 0 1
    outer loop
      vertex -137.314 -6.99013 30
      vertex -132.631 -2.22478 30
      vertex -132.928 -2.50417 30
    endloop
  endfacet
  facet normal 0 0 1
    outer loop
      vertex -137.314 -6.99013 30
      vertex -132.928 -2.50417 30
      vertex -133.259 -2.74407 30
    endloop
  endfacet
  facet normal 0 0 1
    outer loop
      vertex -137.314 -6.99013 30
      vertex -133.259 -2.74407 30
      vertex -133.616 -2.94069 30
    endloop
  endfacet
  facet normal 0 0 1
    outer loop
      vertex -137.314 -6.99013 30
      vertex -133.616 -2.94069 30
      vertex -133.996 -3.09093 30
    endloop
  endfacet
  facet normal 0 0 1
    outer loop
      vertex -137.314 -6.99013 30
      vertex -133.996 -3.09093 30
      vertex -134.391 -3.19243 30
    endloop
  endfacet
  facet normal 0 0 1
    outer loop
      vertex -137.314 -6.99013 30
      vertex -134.391 -3.19243 30
      vertex -134.796 -3.24359 30
    endloop
  endfacet
  facet normal 0 0 1
    outer loop
      vertex -137.314 -6.99013 30
      vertex -134.796 -3.24359 30
      vertex -135.204 -3.24359 30
    endloop
  endfacet
  facet normal 0 0 1
    outer loop
      vertex -132.631 -2.22478 30
      vertex -137.314 -6.99013 30
      vertex 137.314 -6.99013 30
    endloop
  endfacet
  facet normal 0 0 1
    outer loop
      vertex -135.609 -3.19243 30
      vertex -137.314 -6.99013 30
      vertex -135.204 -3.24359 30
    endloop
  endfacet
  facet normal 0 0 1
    outer loop
      vertex -136.004 -3.09093 30
      vertex -137.314 -6.99013 30
      vertex -135.609 -3.19243 30
    endloop
  endfacet
  facet normal 0 0 1
    outer loop
      vertex -136.384 -2.94069 30
      vertex -137.314 -6.99013 30
      vertex -136.004 -3.09093 30
    endloop
  endfacet
  facet normal 0 0 1
    outer loop
      vertex -137.937 -6.91144 30
      vertex -136.384 -2.94069 30
      vertex -136.741 -2.74407 30
    endloop
  endfacet
  facet normal 0 0 1
    outer loop
      vertex -139.129 -6.52413 30
      vertex -136.741 -2.74407 30
      vertex -137.072 -2.50417 30
    endloop
  endfacet
  facet normal 0 0 1
    outer loop
      vertex -140.187 -5.85257 30
      vertex -137.072 -2.50417 30
      vertex -137.369 -2.22478 30
    endloop
  endfacet
  facet normal 0 0 1
    outer loop
      vertex -141.045 -4.93893 30
      vertex -137.369 -2.22478 30
      vertex -137.629 -1.9103 30
    endloop
  endfacet
  facet normal 0 0 1
    outer loop
      vertex -141.649 -3.84062 30
      vertex -137.629 -1.9103 30
      vertex -137.848 -1.5657 30
    endloop
  endfacet
  facet normal 0 0 1
    outer loop
      vertex -136.384 -2.94069 30
      vertex -137.937 -6.91144 30
      vertex -137.314 -6.99013 30
    endloop
  endfacet
  facet normal 0 0 1
    outer loop
      vertex -141.961 -2.62667 30
      vertex -137.848 -1.5657 30
      vertex -138.022 -1.1964 30
    endloop
  endfacet
  facet normal 0 0 1
    outer loop
      vertex -142 -2 30
      vertex -138.022 -1.1964 30
      vertex -138.148 -0.808242 30
    endloop
  endfacet
  facet normal 0 0 1
    outer loop
      vertex -142 -2 30
      vertex -138.148 -0.808242 30
      vertex -138.224 -0.407332 30
    endloop
  endfacet
  facet normal 0 0 1
    outer loop
      vertex -142 -2 30
      vertex -138.224 -0.407332 30
      vertex -138.25 0 30
    endloop
  endfacet
  facet normal 0 0 1
    outer loop
      vertex -136.741 -2.74407 30
      vertex -138.545 -6.75528 30
      vertex -137.937 -6.91144 30
    endloop
  endfacet
  facet normal -0 0 1
    outer loop
      vertex -141.382 4.40877 30
      vertex -137.629 1.9103 30
      vertex -141.045 4.93893 30
    endloop
  endfacet
  facet normal -0 0 1
    outer loop
      vertex -141.649 3.84062 30
      vertex -137.629 1.9103 30
      vertex -141.382 4.40877 30
    endloop
  endfacet
  facet normal 0 0 1
    outer loop
      vertex -142 -2 30
      vertex -138.25 0 30
      vertex -142 2 30
    endloop
  endfacet
  facet normal 0 0 1
    outer loop
      vertex -137.629 1.9103 30
      vertex -141.649 3.84062 30
      vertex -137.848 1.5657 30
    endloop
  endfacet
  facet normal 0 0 1
    outer loop
      vertex -138.022 -1.1964 30
      vertex -142 -2 30
      vertex -141.961 -2.62667 30
    endloop
  endfacet
  facet normal -0 0 1
    outer loop
      vertex -141.843 3.24345 30
      vertex -137.848 1.5657 30
      vertex -141.649 3.84062 30
    endloop
  endfacet
  facet normal 0 0 1
    outer loop
      vertex -136.741 -2.74407 30
      vertex -139.129 -6.52413 30
      vertex -138.545 -6.75528 30
    endloop
  endfacet
  facet normal -0 0 1
    outer loop
      vertex -141.961 2.62667 30
      vertex -137.848 1.5657 30
      vertex -141.843 3.24345 30
    endloop
  endfacet
  facet normal 0 0 1
    outer loop
      vertex -137.072 -2.50417 30
      vertex -139.679 -6.22164 30
      vertex -139.129 -6.52413 30
    endloop
  endfacet
  facet normal 0 0 1
    outer loop
      vertex -137.848 1.5657 30
      vertex -141.961 2.62667 30
      vertex -138.022 1.1964 30
    endloop
  endfacet
  facet normal 0 0 1
    outer loop
      vertex -137.072 -2.50417 30
      vertex -140.187 -5.85257 30
      vertex -139.679 -6.22164 30
    endloop
  endfacet
  facet normal -0 0 1
    outer loop
      vertex -142 2 30
      vertex -138.022 1.1964 30
      vertex -141.961 2.62667 30
    endloop
  endfacet
  facet normal 0 0 1
    outer loop
      vertex -137.369 -2.22478 30
      vertex -140.645 -5.42274 30
      vertex -140.187 -5.85257 30
    endloop
  endfacet
  facet normal 0 0 1
    outer loop
      vertex -138.022 1.1964 30
      vertex -142 2 30
      vertex -138.148 0.808242 30
    endloop
  endfacet
  facet normal 0 0 1
    outer loop
      vertex -137.369 -2.22478 30
      vertex -141.045 -4.93893 30
      vertex -140.645 -5.42274 30
    endloop
  endfacet
  facet normal 0 0 1
    outer loop
      vertex -138.148 0.808242 30
      vertex -142 2 30
      vertex -138.224 0.407332 30
    endloop
  endfacet
  facet normal 0 0 1
    outer loop
      vertex -137.629 -1.9103 30
      vertex -141.382 -4.40877 30
      vertex -141.045 -4.93893 30
    endloop
  endfacet
  facet normal 0 0 1
    outer loop
      vertex -138.224 0.407332 30
      vertex -142 2 30
      vertex -138.25 0 30
    endloop
  endfacet
  facet normal 0 0 1
    outer loop
      vertex -137.629 -1.9103 30
      vertex -141.649 -3.84062 30
      vertex -141.382 -4.40877 30
    endloop
  endfacet
  facet normal 0 0 1
    outer loop
      vertex -137.848 -1.5657 30
      vertex -141.843 -3.24345 30
      vertex -141.649 -3.84062 30
    endloop
  endfacet
  facet normal 0 0 1
    outer loop
      vertex -137.848 -1.5657 30
      vertex -141.961 -2.62667 30
      vertex -141.843 -3.24345 30
    endloop
  endfacet
  facet normal 0.951143 -0.308751 0
    outer loop
      vertex -138.148 0.808242 30
      vertex -138.022 1.1964 0
      vertex -138.022 1.1964 30
    endloop
  endfacet
  facet normal 0.951143 -0.308751 0
    outer loop
      vertex -138.022 1.1964 0
      vertex -138.148 0.808242 30
      vertex -138.148 0.808242 0
    endloop
  endfacet
  facet normal 0.843984 -0.536368 0
    outer loop
      vertex -137.848 1.5657 30
      vertex -137.629 1.9103 0
      vertex -137.629 1.9103 30
    endloop
  endfacet
  facet normal 0.843984 -0.536368 0
    outer loop
      vertex -137.629 1.9103 0
      vertex -137.848 1.5657 30
      vertex -137.848 1.5657 0
    endloop
  endfacet
  facet normal 0.248877 -0.968535 0
    outer loop
      vertex -136.004 3.09093 0
      vertex -135.609 3.19243 30
      vertex -136.004 3.09093 30
    endloop
  endfacet
  facet normal 0.248877 -0.968535 0
    outer loop
      vertex -135.609 3.19243 30
      vertex -136.004 3.09093 0
      vertex -135.609 3.19243 0
    endloop
  endfacet
  facet normal 0.586847 -0.809698 0
    outer loop
      vertex -137.072 2.50417 0
      vertex -136.741 2.74407 30
      vertex -137.072 2.50417 30
    endloop
  endfacet
  facet normal 0.586847 -0.809698 0
    outer loop
      vertex -136.741 2.74407 30
      vertex -137.072 2.50417 0
      vertex -136.741 2.74407 0
    endloop
  endfacet
  facet normal 0.685183 -0.728371 0
    outer loop
      vertex -137.369 2.22478 0
      vertex -137.072 2.50417 30
      vertex -137.369 2.22478 30
    endloop
  endfacet
  facet normal 0.685183 -0.728371 0
    outer loop
      vertex -137.072 2.50417 30
      vertex -137.369 2.22478 0
      vertex -137.072 2.50417 0
    endloop
  endfacet
  facet normal -0.843984 0.536368 0
    outer loop
      vertex -132.371 -1.9103 0
      vertex -132.152 -1.5657 30
      vertex -132.152 -1.5657 0
    endloop
  endfacet
  facet normal -0.843984 0.536368 0
    outer loop
      vertex -132.152 -1.5657 30
      vertex -132.371 -1.9103 0
      vertex -132.371 -1.9103 30
    endloop
  endfacet
  facet normal 0 1 -0
    outer loop
      vertex -134.796 -3.24359 0
      vertex -135.204 -3.24359 30
      vertex -134.796 -3.24359 30
    endloop
  endfacet
  facet normal 0 1 0
    outer loop
      vertex -135.204 -3.24359 30
      vertex -134.796 -3.24359 0
      vertex -135.204 -3.24359 0
    endloop
  endfacet
  facet normal 0.951143 0.308751 0
    outer loop
      vertex -138.022 -1.1964 30
      vertex -138.148 -0.808242 0
      vertex -138.148 -0.808242 30
    endloop
  endfacet
  facet normal 0.951143 0.308751 0
    outer loop
      vertex -138.148 -0.808242 0
      vertex -138.022 -1.1964 30
      vertex -138.022 -1.1964 0
    endloop
  endfacet
  facet normal 0.904619 0.426222 0
    outer loop
      vertex -137.848 -1.5657 30
      vertex -138.022 -1.1964 0
      vertex -138.022 -1.1964 30
    endloop
  endfacet
  facet normal 0.904619 0.426222 0
    outer loop
      vertex -138.022 -1.1964 0
      vertex -137.848 -1.5657 30
      vertex -137.848 -1.5657 0
    endloop
  endfacet
  facet normal -0.125325 0.992116 0
    outer loop
      vertex -134.391 -3.19243 0
      vertex -134.796 -3.24359 30
      vertex -134.391 -3.19243 30
    endloop
  endfacet
  facet normal -0.125325 0.992116 0
    outer loop
      vertex -134.796 -3.24359 30
      vertex -134.391 -3.19243 0
      vertex -134.796 -3.24359 0
    endloop
  endfacet
  facet normal -0.770706 -0.63719 0
    outer loop
      vertex -132.371 1.9103 0
      vertex -132.631 2.22478 30
      vertex -132.631 2.22478 0
    endloop
  endfacet
  facet normal -0.770706 -0.63719 0
    outer loop
      vertex -132.631 2.22478 30
      vertex -132.371 1.9103 0
      vertex -132.371 1.9103 30
    endloop
  endfacet
  facet normal -0.997969 0.0637004 0
    outer loop
      vertex -131.776 -0.407332 0
      vertex -131.75 0 30
      vertex -131.75 0 0
    endloop
  endfacet
  facet normal -0.997969 0.0637004 0
    outer loop
      vertex -131.75 0 30
      vertex -131.776 -0.407332 0
      vertex -131.776 -0.407332 30
    endloop
  endfacet
  facet normal 0.367675 0.929954 -0
    outer loop
      vertex -136.004 -3.09093 0
      vertex -136.384 -2.94069 30
      vertex -136.004 -3.09093 30
    endloop
  endfacet
  facet normal 0.367675 0.929954 0
    outer loop
      vertex -136.384 -2.94069 30
      vertex -136.004 -3.09093 0
      vertex -136.384 -2.94069 0
    endloop
  endfacet
  facet normal 0 0 -1
    outer loop
      vertex 138.022 -1.1964 0
      vertex 142 -2 0
      vertex 141.961 -2.62667 0
    endloop
  endfacet
  facet normal 0 0 -1
    outer loop
      vertex 142 -2 0
      vertex 138.25 0 0
      vertex 142 2 0
    endloop
  endfacet
  facet normal 0 0 -1
    outer loop
      vertex 137.848 -1.5657 0
      vertex 141.961 -2.62667 0
      vertex 141.843 -3.24345 0
    endloop
  endfacet
  facet normal 0 0 -1
    outer loop
      vertex 138.224 0.407332 0
      vertex 142 2 0
      vertex 138.25 0 0
    endloop
  endfacet
  facet normal 0 0 -1
    outer loop
      vertex 137.848 -1.5657 0
      vertex 141.843 -3.24345 0
      vertex 141.649 -3.84062 0
    endloop
  endfacet
  facet normal 0 0 -1
    outer loop
      vertex 138.148 0.808242 0
      vertex 142 2 0
      vertex 138.224 0.407332 0
    endloop
  endfacet
  facet normal 0 0 -1
    outer loop
      vertex 137.629 -1.9103 0
      vertex 141.649 -3.84062 0
      vertex 141.382 -4.40877 0
    endloop
  endfacet
  facet normal 0 0 -1
    outer loop
      vertex 138.022 1.1964 0
      vertex 142 2 0
      vertex 138.148 0.808242 0
    endloop
  endfacet
  facet normal 0 0 -1
    outer loop
      vertex 137.629 -1.9103 0
      vertex 141.382 -4.40877 0
      vertex 141.045 -4.93893 0
    endloop
  endfacet
  facet normal -0 0 -1
    outer loop
      vertex 142 2 0
      vertex 138.022 1.1964 0
      vertex 141.961 2.62667 0
    endloop
  endfacet
  facet normal 0 0 -1
    outer loop
      vertex 137.369 -2.22478 0
      vertex 141.045 -4.93893 0
      vertex 140.645 -5.42274 0
    endloop
  endfacet
  facet normal 0 0 -1
    outer loop
      vertex 137.848 1.5657 0
      vertex 141.961 2.62667 0
      vertex 138.022 1.1964 0
    endloop
  endfacet
  facet normal 0 0 -1
    outer loop
      vertex 137.369 -2.22478 0
      vertex 140.645 -5.42274 0
      vertex 140.187 -5.85257 0
    endloop
  endfacet
  facet normal -0 0 -1
    outer loop
      vertex 141.961 2.62667 0
      vertex 137.848 1.5657 0
      vertex 141.843 3.24345 0
    endloop
  endfacet
  facet normal 0 0 -1
    outer loop
      vertex 137.072 -2.50417 0
      vertex 140.187 -5.85257 0
      vertex 139.679 -6.22164 0
    endloop
  endfacet
  facet normal -0 0 -1
    outer loop
      vertex 141.843 3.24345 0
      vertex 137.848 1.5657 0
      vertex 141.649 3.84062 0
    endloop
  endfacet
  facet normal 0 0 -1
    outer loop
      vertex 137.072 -2.50417 0
      vertex 139.679 -6.22164 0
      vertex 139.129 -6.52413 0
    endloop
  endfacet
  facet normal 0 0 -1
    outer loop
      vertex 137.629 1.9103 0
      vertex 141.649 3.84062 0
      vertex 137.848 1.5657 0
    endloop
  endfacet
  facet normal 0 0 -1
    outer loop
      vertex 136.741 -2.74407 0
      vertex 139.129 -6.52413 0
      vertex 138.545 -6.75528 0
    endloop
  endfacet
  facet normal -0 0 -1
    outer loop
      vertex 141.649 3.84062 0
      vertex 137.629 1.9103 0
      vertex 141.382 4.40877 0
    endloop
  endfacet
  facet normal -0 0 -1
    outer loop
      vertex 141.382 4.40877 0
      vertex 137.629 1.9103 0
      vertex 141.045 4.93893 0
    endloop
  endfacet
  facet normal 0 0 -1
    outer loop
      vertex 142 -2 0
      vertex 138.224 -0.407332 0
      vertex 138.25 0 0
    endloop
  endfacet
  facet normal 0 0 -1
    outer loop
      vertex 142 -2 0
      vertex 138.148 -0.808242 0
      vertex 138.224 -0.407332 0
    endloop
  endfacet
  facet normal 0 0 -1
    outer loop
      vertex 142 -2 0
      vertex 138.022 -1.1964 0
      vertex 138.148 -0.808242 0
    endloop
  endfacet
  facet normal 0 0 -1
    outer loop
      vertex 136.741 -2.74407 0
      vertex 138.545 -6.75528 0
      vertex 137.937 -6.91144 0
    endloop
  endfacet
  facet normal 0 0 -1
    outer loop
      vertex 141.961 -2.62667 0
      vertex 137.848 -1.5657 0
      vertex 138.022 -1.1964 0
    endloop
  endfacet
  facet normal 0 0 -1
    outer loop
      vertex 141.649 -3.84062 0
      vertex 137.629 -1.9103 0
      vertex 137.848 -1.5657 0
    endloop
  endfacet
  facet normal 0 0 -1
    outer loop
      vertex 141.045 -4.93893 0
      vertex 137.369 -2.22478 0
      vertex 137.629 -1.9103 0
    endloop
  endfacet
  facet normal 0 0 -1
    outer loop
      vertex 136.384 -2.94069 0
      vertex 137.937 -6.91144 0
      vertex 137.314 -6.99013 0
    endloop
  endfacet
  facet normal 0 0 -1
    outer loop
      vertex 140.187 -5.85257 0
      vertex 137.072 -2.50417 0
      vertex 137.369 -2.22478 0
    endloop
  endfacet
  facet normal 0 0 -1
    outer loop
      vertex 139.129 -6.52413 0
      vertex 136.741 -2.74407 0
      vertex 137.072 -2.50417 0
    endloop
  endfacet
  facet normal 0 0 -1
    outer loop
      vertex 137.937 -6.91144 0
      vertex 136.384 -2.94069 0
      vertex 136.741 -2.74407 0
    endloop
  endfacet
  facet normal 0 0 -1
    outer loop
      vertex 137.314 -6.99013 0
      vertex 136.004 -3.09093 0
      vertex 136.384 -2.94069 0
    endloop
  endfacet
  facet normal 0 0 -1
    outer loop
      vertex 137.314 -6.99013 0
      vertex 135.609 -3.19243 0
      vertex 136.004 -3.09093 0
    endloop
  endfacet
  facet normal 0 0 -1
    outer loop
      vertex 137.314 -6.99013 0
      vertex 135.204 -3.24359 0
      vertex 135.609 -3.19243 0
    endloop
  endfacet
  facet normal 0 0 -1
    outer loop
      vertex 137.314 -6.99013 0
      vertex 134.796 -3.24359 0
      vertex 135.204 -3.24359 0
    endloop
  endfacet
  facet normal 0 0 -1
    outer loop
      vertex 137.314 -6.99013 0
      vertex 134.391 -3.19243 0
      vertex 134.796 -3.24359 0
    endloop
  endfacet
  facet normal 0 0 -1
    outer loop
      vertex 137.314 -6.99013 0
      vertex 133.996 -3.09093 0
      vertex 134.391 -3.19243 0
    endloop
  endfacet
  facet normal 0 0 -1
    outer loop
      vertex 137.314 -6.99013 0
      vertex 133.616 -2.94069 0
      vertex 133.996 -3.09093 0
    endloop
  endfacet
  facet normal 0 0 -1
    outer loop
      vertex 137.314 -6.99013 0
      vertex 133.259 -2.74407 0
      vertex 133.616 -2.94069 0
    endloop
  endfacet
  facet normal 0 0 -1
    outer loop
      vertex 137.314 -6.99013 0
      vertex 132.928 -2.50417 0
      vertex 133.259 -2.74407 0
    endloop
  endfacet
  facet normal 0 0 -1
    outer loop
      vertex 137.314 -6.99013 0
      vertex 132.631 -2.22478 0
      vertex 132.928 -2.50417 0
    endloop
  endfacet
  facet normal 0 0 -1
    outer loop
      vertex 131.776 -0.407332 0
      vertex -131.75 0 0
      vertex 131.75 0 0
    endloop
  endfacet
  facet normal 0 0 -1
    outer loop
      vertex -131.776 -0.407332 0
      vertex 131.776 -0.407332 0
      vertex 131.852 -0.808242 0
    endloop
  endfacet
  facet normal 0 0 -1
    outer loop
      vertex -131.852 -0.808242 0
      vertex 131.852 -0.808242 0
      vertex 131.978 -1.1964 0
    endloop
  endfacet
  facet normal 0 0 -1
    outer loop
      vertex -131.978 -1.1964 0
      vertex 131.978 -1.1964 0
      vertex 132.152 -1.5657 0
    endloop
  endfacet
  facet normal 0 0 -1
    outer loop
      vertex -132.152 -1.5657 0
      vertex 132.152 -1.5657 0
      vertex 132.371 -1.9103 0
    endloop
  endfacet
  facet normal 0 0 -1
    outer loop
      vertex -132.371 -1.9103 0
      vertex 132.371 -1.9103 0
      vertex 132.631 -2.22478 0
    endloop
  endfacet
  facet normal 0 0 -1
    outer loop
      vertex -132.631 -2.22478 0
      vertex 132.631 -2.22478 0
      vertex 137.314 -6.99013 0
    endloop
  endfacet
  facet normal 0 0 -1
    outer loop
      vertex 131.776 -0.407332 0
      vertex -131.776 -0.407332 0
      vertex -131.75 0 0
    endloop
  endfacet
  facet normal 0 0 -1
    outer loop
      vertex 131.852 -0.808242 0
      vertex -131.852 -0.808242 0
      vertex -131.776 -0.407332 0
    endloop
  endfacet
  facet normal 0 0 -1
    outer loop
      vertex 131.978 -1.1964 0
      vertex -131.978 -1.1964 0
      vertex -131.852 -0.808242 0
    endloop
  endfacet
  facet normal 0 0 -1
    outer loop
      vertex 132.152 -1.5657 0
      vertex -132.152 -1.5657 0
      vertex -131.978 -1.1964 0
    endloop
  endfacet
  facet normal 0 0 -1
    outer loop
      vertex 132.371 -1.9103 0
      vertex -132.371 -1.9103 0
      vertex -132.152 -1.5657 0
    endloop
  endfacet
  facet normal 0 0 -1
    outer loop
      vertex 132.631 -2.22478 0
      vertex -132.631 -2.22478 0
      vertex -132.371 -1.9103 0
    endloop
  endfacet
  facet normal 0 0 -1
    outer loop
      vertex -137.314 -6.99013 0
      vertex -132.631 -2.22478 0
      vertex 137.314 -6.99013 0
    endloop
  endfacet
  facet normal 0 0 -1
    outer loop
      vertex -132.631 -2.22478 0
      vertex -137.314 -6.99013 0
      vertex -132.928 -2.50417 0
    endloop
  endfacet
  facet normal 0 0 -1
    outer loop
      vertex -132.928 -2.50417 0
      vertex -137.314 -6.99013 0
      vertex -133.259 -2.74407 0
    endloop
  endfacet
  facet normal 0 0 -1
    outer loop
      vertex -133.259 -2.74407 0
      vertex -137.314 -6.99013 0
      vertex -133.616 -2.94069 0
    endloop
  endfacet
  facet normal 0 0 -1
    outer loop
      vertex -133.616 -2.94069 0
      vertex -137.314 -6.99013 0
      vertex -133.996 -3.09093 0
    endloop
  endfacet
  facet normal 0 0 -1
    outer loop
      vertex -133.996 -3.09093 0
      vertex -137.314 -6.99013 0
      vertex -134.391 -3.19243 0
    endloop
  endfacet
  facet normal 0 0 -1
    outer loop
      vertex -134.391 -3.19243 0
      vertex -137.314 -6.99013 0
      vertex -134.796 -3.24359 0
    endloop
  endfacet
  facet normal -0 0 -1
    outer loop
      vertex -134.796 -3.24359 0
      vertex -137.314 -6.99013 0
      vertex -135.204 -3.24359 0
    endloop
  endfacet
  facet normal 0 0 -1
    outer loop
      vertex -137.314 -6.99013 0
      vertex -135.609 -3.19243 0
      vertex -135.204 -3.24359 0
    endloop
  endfacet
  facet normal 0 0 -1
    outer loop
      vertex -137.314 -6.99013 0
      vertex -136.004 -3.09093 0
      vertex -135.609 -3.19243 0
    endloop
  endfacet
  facet normal 0 0 -1
    outer loop
      vertex -137.314 -6.99013 0
      vertex -136.384 -2.94069 0
      vertex -136.004 -3.09093 0
    endloop
  endfacet
  facet normal 0 0 -1
    outer loop
      vertex -137.937 -6.91144 0
      vertex -136.384 -2.94069 0
      vertex -137.314 -6.99013 0
    endloop
  endfacet
  facet normal -0 0 -1
    outer loop
      vertex -136.384 -2.94069 0
      vertex -137.937 -6.91144 0
      vertex -136.741 -2.74407 0
    endloop
  endfacet
  facet normal 0 0 -1
    outer loop
      vertex -138.545 -6.75528 0
      vertex -136.741 -2.74407 0
      vertex -137.937 -6.91144 0
    endloop
  endfacet
  facet normal 0 0 -1
    outer loop
      vertex -139.129 -6.52413 0
      vertex -136.741 -2.74407 0
      vertex -138.545 -6.75528 0
    endloop
  endfacet
  facet normal -0 0 -1
    outer loop
      vertex -136.741 -2.74407 0
      vertex -139.129 -6.52413 0
      vertex -137.072 -2.50417 0
    endloop
  endfacet
  facet normal 0 0 -1
    outer loop
      vertex -139.679 -6.22164 0
      vertex -137.072 -2.50417 0
      vertex -139.129 -6.52413 0
    endloop
  endfacet
  facet normal 0 0 -1
    outer loop
      vertex -140.187 -5.85257 0
      vertex -137.072 -2.50417 0
      vertex -139.679 -6.22164 0
    endloop
  endfacet
  facet normal -0 0 -1
    outer loop
      vertex -137.072 -2.50417 0
      vertex -140.187 -5.85257 0
      vertex -137.369 -2.22478 0
    endloop
  endfacet
  facet normal 0 0 -1
    outer loop
      vertex -140.645 -5.42274 0
      vertex -137.369 -2.22478 0
      vertex -140.187 -5.85257 0
    endloop
  endfacet
  facet normal 0 0 -1
    outer loop
      vertex -141.045 -4.93893 0
      vertex -137.369 -2.22478 0
      vertex -140.645 -5.42274 0
    endloop
  endfacet
  facet normal -0 0 -1
    outer loop
      vertex -137.369 -2.22478 0
      vertex -141.045 -4.93893 0
      vertex -137.629 -1.9103 0
    endloop
  endfacet
  facet normal 0 0 -1
    outer loop
      vertex 137.369 2.22478 0
      vertex 141.045 4.93893 0
      vertex 137.629 1.9103 0
    endloop
  endfacet
  facet normal -0 0 -1
    outer loop
      vertex 141.045 4.93893 0
      vertex 137.369 2.22478 0
      vertex 140.645 5.42274 0
    endloop
  endfacet
  facet normal -0 0 -1
    outer loop
      vertex 140.645 5.42274 0
      vertex 137.369 2.22478 0
      vertex 140.187 5.85257 0
    endloop
  endfacet
  facet normal 0 0 -1
    outer loop
      vertex 137.072 2.50417 0
      vertex 140.187 5.85257 0
      vertex 137.369 2.22478 0
    endloop
  endfacet
  facet normal -0 0 -1
    outer loop
      vertex 140.187 5.85257 0
      vertex 137.072 2.50417 0
      vertex 139.679 6.22164 0
    endloop
  endfacet
  facet normal -0 0 -1
    outer loop
      vertex 139.679 6.22164 0
      vertex 137.072 2.50417 0
      vertex 139.129 6.52413 0
    endloop
  endfacet
  facet normal 0 0 -1
    outer loop
      vertex 136.741 2.74407 0
      vertex 139.129 6.52413 0
      vertex 137.072 2.50417 0
    endloop
  endfacet
  facet normal -0 0 -1
    outer loop
      vertex 139.129 6.52413 0
      vertex 136.741 2.74407 0
      vertex 138.545 6.75528 0
    endloop
  endfacet
  facet normal -0 0 -1
    outer loop
      vertex 138.545 6.75528 0
      vertex 136.741 2.74407 0
      vertex 137.937 6.91144 0
    endloop
  endfacet
  facet normal 0 0 -1
    outer loop
      vertex 136.384 2.94069 0
      vertex 137.937 6.91144 0
      vertex 136.741 2.74407 0
    endloop
  endfacet
  facet normal -0 0 -1
    outer loop
      vertex 137.937 6.91144 0
      vertex 136.384 2.94069 0
      vertex 137.314 6.99013 0
    endloop
  endfacet
  facet normal 0 0 -1
    outer loop
      vertex 136.004 3.09093 0
      vertex 137.314 6.99013 0
      vertex 136.384 2.94069 0
    endloop
  endfacet
  facet normal 0 0 -1
    outer loop
      vertex 135.609 3.19243 0
      vertex 137.314 6.99013 0
      vertex 136.004 3.09093 0
    endloop
  endfacet
  facet normal 0 0 -1
    outer loop
      vertex 135.204 3.24359 0
      vertex 137.314 6.99013 0
      vertex 135.609 3.19243 0
    endloop
  endfacet
  facet normal 0 0 -1
    outer loop
      vertex 134.796 3.24359 0
      vertex 137.314 6.99013 0
      vertex 135.204 3.24359 0
    endloop
  endfacet
  facet normal 0 0 -1
    outer loop
      vertex 134.391 3.19243 0
      vertex 137.314 6.99013 0
      vertex 134.796 3.24359 0
    endloop
  endfacet
  facet normal 0 0 -1
    outer loop
      vertex 133.996 3.09093 0
      vertex 137.314 6.99013 0
      vertex 134.391 3.19243 0
    endloop
  endfacet
  facet normal 0 0 -1
    outer loop
      vertex 133.616 2.94069 0
      vertex 137.314 6.99013 0
      vertex 133.996 3.09093 0
    endloop
  endfacet
  facet normal 0 0 -1
    outer loop
      vertex 133.259 2.74407 0
      vertex 137.314 6.99013 0
      vertex 133.616 2.94069 0
    endloop
  endfacet
  facet normal 0 0 -1
    outer loop
      vertex 132.928 2.50417 0
      vertex 137.314 6.99013 0
      vertex 133.259 2.74407 0
    endloop
  endfacet
  facet normal 0 0 -1
    outer loop
      vertex 132.631 2.22478 0
      vertex 137.314 6.99013 0
      vertex 132.928 2.50417 0
    endloop
  endfacet
  facet normal 0 0 -1
    outer loop
      vertex -131.75 0 0
      vertex 131.776 0.407332 0
      vertex 131.75 0 0
    endloop
  endfacet
  facet normal 0 0 -1
    outer loop
      vertex -131.776 0.407332 0
      vertex 131.776 0.407332 0
      vertex -131.75 0 0
    endloop
  endfacet
  facet normal 0 0 -1
    outer loop
      vertex 131.776 0.407332 0
      vertex -131.776 0.407332 0
      vertex 131.852 0.808242 0
    endloop
  endfacet
  facet normal 0 0 -1
    outer loop
      vertex -131.852 0.808242 0
      vertex 131.852 0.808242 0
      vertex -131.776 0.407332 0
    endloop
  endfacet
  facet normal 0 0 -1
    outer loop
      vertex 131.852 0.808242 0
      vertex -131.852 0.808242 0
      vertex 131.978 1.1964 0
    endloop
  endfacet
  facet normal 0 0 -1
    outer loop
      vertex -131.978 1.1964 0
      vertex 131.978 1.1964 0
      vertex -131.852 0.808242 0
    endloop
  endfacet
  facet normal 0 0 -1
    outer loop
      vertex 131.978 1.1964 0
      vertex -131.978 1.1964 0
      vertex 132.152 1.5657 0
    endloop
  endfacet
  facet normal 0 0 -1
    outer loop
      vertex -132.152 1.5657 0
      vertex 132.152 1.5657 0
      vertex -131.978 1.1964 0
    endloop
  endfacet
  facet normal 0 0 -1
    outer loop
      vertex 132.152 1.5657 0
      vertex -132.152 1.5657 0
      vertex 132.371 1.9103 0
    endloop
  endfacet
  facet normal 0 0 -1
    outer loop
      vertex -132.371 1.9103 0
      vertex 132.371 1.9103 0
      vertex -132.152 1.5657 0
    endloop
  endfacet
  facet normal 0 0 -1
    outer loop
      vertex 132.371 1.9103 0
      vertex -132.371 1.9103 0
      vertex 132.631 2.22478 0
    endloop
  endfacet
  facet normal 0 0 -1
    outer loop
      vertex -132.631 2.22478 0
      vertex 132.631 2.22478 0
      vertex -132.371 1.9103 0
    endloop
  endfacet
  facet normal 0 0 -1
    outer loop
      vertex 132.631 2.22478 0
      vertex -132.631 2.22478 0
      vertex 137.314 6.99013 0
    endloop
  endfacet
  facet normal 0 0 -1
    outer loop
      vertex -137.314 6.99013 0
      vertex -132.631 2.22478 0
      vertex -132.928 2.50417 0
    endloop
  endfacet
  facet normal 0 0 -1
    outer loop
      vertex -137.314 6.99013 0
      vertex -132.928 2.50417 0
      vertex -133.259 2.74407 0
    endloop
  endfacet
  facet normal 0 0 -1
    outer loop
      vertex -137.314 6.99013 0
      vertex -133.259 2.74407 0
      vertex -133.616 2.94069 0
    endloop
  endfacet
  facet normal 0 0 -1
    outer loop
      vertex -137.314 6.99013 0
      vertex -133.616 2.94069 0
      vertex -133.996 3.09093 0
    endloop
  endfacet
  facet normal 0 0 -1
    outer loop
      vertex -137.314 6.99013 0
      vertex -133.996 3.09093 0
      vertex -134.391 3.19243 0
    endloop
  endfacet
  facet normal 0 0 -1
    outer loop
      vertex -137.314 6.99013 0
      vertex -134.391 3.19243 0
      vertex -134.796 3.24359 0
    endloop
  endfacet
  facet normal 0 0 -1
    outer loop
      vertex -137.314 6.99013 0
      vertex -134.796 3.24359 0
      vertex -135.204 3.24359 0
    endloop
  endfacet
  facet normal 0 0 -1
    outer loop
      vertex -132.631 2.22478 0
      vertex -137.314 6.99013 0
      vertex 137.314 6.99013 0
    endloop
  endfacet
  facet normal 0 0 -1
    outer loop
      vertex -135.609 3.19243 0
      vertex -137.314 6.99013 0
      vertex -135.204 3.24359 0
    endloop
  endfacet
  facet normal 0 0 -1
    outer loop
      vertex -136.004 3.09093 0
      vertex -137.314 6.99013 0
      vertex -135.609 3.19243 0
    endloop
  endfacet
  facet normal 0 0 -1
    outer loop
      vertex -136.384 2.94069 0
      vertex -137.314 6.99013 0
      vertex -136.004 3.09093 0
    endloop
  endfacet
  facet normal 0 0 -1
    outer loop
      vertex -137.937 6.91144 0
      vertex -136.384 2.94069 0
      vertex -136.741 2.74407 0
    endloop
  endfacet
  facet normal 0 0 -1
    outer loop
      vertex -139.129 6.52413 0
      vertex -136.741 2.74407 0
      vertex -137.072 2.50417 0
    endloop
  endfacet
  facet normal 0 0 -1
    outer loop
      vertex -140.187 5.85257 0
      vertex -137.072 2.50417 0
      vertex -137.369 2.22478 0
    endloop
  endfacet
  facet normal 0 0 -1
    outer loop
      vertex -141.045 4.93893 0
      vertex -137.369 2.22478 0
      vertex -137.629 1.9103 0
    endloop
  endfacet
  facet normal 0 0 -1
    outer loop
      vertex -141.649 3.84062 0
      vertex -137.629 1.9103 0
      vertex -137.848 1.5657 0
    endloop
  endfacet
  facet normal 0 0 -1
    outer loop
      vertex -136.384 2.94069 0
      vertex -137.937 6.91144 0
      vertex -137.314 6.99013 0
    endloop
  endfacet
  facet normal 0 0 -1
    outer loop
      vertex -141.961 2.62667 0
      vertex -137.848 1.5657 0
      vertex -138.022 1.1964 0
    endloop
  endfacet
  facet normal 0 0 -1
    outer loop
      vertex -142 2 0
      vertex -138.022 1.1964 0
      vertex -138.148 0.808242 0
    endloop
  endfacet
  facet normal 0 0 -1
    outer loop
      vertex -142 2 0
      vertex -138.148 0.808242 0
      vertex -138.224 0.407332 0
    endloop
  endfacet
  facet normal 0 0 -1
    outer loop
      vertex -142 2 0
      vertex -138.224 0.407332 0
      vertex -138.25 0 0
    endloop
  endfacet
  facet normal 0 0 -1
    outer loop
      vertex -136.741 2.74407 0
      vertex -138.545 6.75528 0
      vertex -137.937 6.91144 0
    endloop
  endfacet
  facet normal 0 0 -1
    outer loop
      vertex -141.382 -4.40877 0
      vertex -137.629 -1.9103 0
      vertex -141.045 -4.93893 0
    endloop
  endfacet
  facet normal 0 0 -1
    outer loop
      vertex -141.649 -3.84062 0
      vertex -137.629 -1.9103 0
      vertex -141.382 -4.40877 0
    endloop
  endfacet
  facet normal 0 0 -1
    outer loop
      vertex -142 2 0
      vertex -138.25 0 0
      vertex -142 -2 0
    endloop
  endfacet
  facet normal -0 0 -1
    outer loop
      vertex -137.629 -1.9103 0
      vertex -141.649 -3.84062 0
      vertex -137.848 -1.5657 0
    endloop
  endfacet
  facet normal 0 0 -1
    outer loop
      vertex -138.022 1.1964 0
      vertex -142 2 0
      vertex -141.961 2.62667 0
    endloop
  endfacet
  facet normal 0 0 -1
    outer loop
      vertex -141.843 -3.24345 0
      vertex -137.848 -1.5657 0
      vertex -141.649 -3.84062 0
    endloop
  endfacet
  facet normal 0 0 -1
    outer loop
      vertex -136.741 2.74407 0
      vertex -139.129 6.52413 0
      vertex -138.545 6.75528 0
    endloop
  endfacet
  facet normal 0 0 -1
    outer loop
      vertex -141.961 -2.62667 0
      vertex -137.848 -1.5657 0
      vertex -141.843 -3.24345 0
    endloop
  endfacet
  facet normal 0 0 -1
    outer loop
      vertex -137.072 2.50417 0
      vertex -139.679 6.22164 0
      vertex -139.129 6.52413 0
    endloop
  endfacet
  facet normal -0 0 -1
    outer loop
      vertex -137.848 -1.5657 0
      vertex -141.961 -2.62667 0
      vertex -138.022 -1.1964 0
    endloop
  endfacet
  facet normal 0 0 -1
    outer loop
      vertex -137.072 2.50417 0
      vertex -140.187 5.85257 0
      vertex -139.679 6.22164 0
    endloop
  endfacet
  facet normal 0 0 -1
    outer loop
      vertex -142 -2 0
      vertex -138.022 -1.1964 0
      vertex -141.961 -2.62667 0
    endloop
  endfacet
  facet normal 0 0 -1
    outer loop
      vertex -137.369 2.22478 0
      vertex -140.645 5.42274 0
      vertex -140.187 5.85257 0
    endloop
  endfacet
  facet normal -0 0 -1
    outer loop
      vertex -138.022 -1.1964 0
      vertex -142 -2 0
      vertex -138.148 -0.808242 0
    endloop
  endfacet
  facet normal 0 0 -1
    outer loop
      vertex -137.369 2.22478 0
      vertex -141.045 4.93893 0
      vertex -140.645 5.42274 0
    endloop
  endfacet
  facet normal -0 0 -1
    outer loop
      vertex -138.148 -0.808242 0
      vertex -142 -2 0
      vertex -138.224 -0.407332 0
    endloop
  endfacet
  facet normal 0 0 -1
    outer loop
      vertex -137.629 1.9103 0
      vertex -141.382 4.40877 0
      vertex -141.045 4.93893 0
    endloop
  endfacet
  facet normal -0 0 -1
    outer loop
      vertex -138.224 -0.407332 0
      vertex -142 -2 0
      vertex -138.25 0 0
    endloop
  endfacet
  facet normal 0 0 -1
    outer loop
      vertex -137.629 1.9103 0
      vertex -141.649 3.84062 0
      vertex -141.382 4.40877 0
    endloop
  endfacet
  facet normal 0 0 -1
    outer loop
      vertex -137.848 1.5657 0
      vertex -141.843 3.24345 0
      vertex -141.649 3.84062 0
    endloop
  endfacet
  facet normal 0 0 -1
    outer loop
      vertex -137.848 1.5657 0
      vertex -141.961 2.62667 0
      vertex -141.843 3.24345 0
    endloop
  endfacet
  facet normal -0.248877 0.968535 0
    outer loop
      vertex -133.996 -3.09093 0
      vertex -134.391 -3.19243 30
      vertex -133.996 -3.09093 30
    endloop
  endfacet
  facet normal -0.248877 0.968535 0
    outer loop
      vertex -134.391 -3.19243 30
      vertex -133.996 -3.09093 0
      vertex -134.391 -3.19243 0
    endloop
  endfacet
  facet normal -0.482427 0.875936 0
    outer loop
      vertex -133.259 -2.74407 0
      vertex -133.616 -2.94069 30
      vertex -133.259 -2.74407 30
    endloop
  endfacet
  facet normal -0.482427 0.875936 0
    outer loop
      vertex -133.616 -2.94069 30
      vertex -133.259 -2.74407 0
      vertex -133.616 -2.94069 0
    endloop
  endfacet
  facet normal -0.685183 0.728371 0
    outer loop
      vertex -132.631 -2.22478 0
      vertex -132.928 -2.50417 30
      vertex -132.631 -2.22478 30
    endloop
  endfacet
  facet normal -0.685183 0.728371 0
    outer loop
      vertex -132.928 -2.50417 30
      vertex -132.631 -2.22478 0
      vertex -132.928 -2.50417 0
    endloop
  endfacet
  facet normal -0.904619 0.426222 0
    outer loop
      vertex -132.152 -1.5657 0
      vertex -131.978 -1.1964 30
      vertex -131.978 -1.1964 0
    endloop
  endfacet
  facet normal -0.904619 0.426222 0
    outer loop
      vertex -131.978 -1.1964 30
      vertex -132.152 -1.5657 0
      vertex -132.152 -1.5657 30
    endloop
  endfacet
  facet normal 0.586847 0.809698 -0
    outer loop
      vertex -136.741 -2.74407 0
      vertex -137.072 -2.50417 30
      vertex -136.741 -2.74407 30
    endloop
  endfacet
  facet normal 0.586847 0.809698 0
    outer loop
      vertex -137.072 -2.50417 30
      vertex -136.741 -2.74407 0
      vertex -137.072 -2.50417 0
    endloop
  endfacet
  facet normal 0.248877 0.968535 -0
    outer loop
      vertex -135.609 -3.19243 0
      vertex -136.004 -3.09093 30
      vertex -135.609 -3.19243 30
    endloop
  endfacet
  facet normal 0.248877 0.968535 0
    outer loop
      vertex -136.004 -3.09093 30
      vertex -135.609 -3.19243 0
      vertex -136.004 -3.09093 0
    endloop
  endfacet
  facet normal 0.125325 0.992116 -0
    outer loop
      vertex -135.204 -3.24359 0
      vertex -135.609 -3.19243 30
      vertex -135.204 -3.24359 30
    endloop
  endfacet
  facet normal 0.125325 0.992116 0
    outer loop
      vertex -135.609 -3.19243 30
      vertex -135.204 -3.24359 0
      vertex -135.609 -3.19243 0
    endloop
  endfacet
  facet normal 0.770706 0.63719 0
    outer loop
      vertex -137.369 -2.22478 30
      vertex -137.629 -1.9103 0
      vertex -137.629 -1.9103 30
    endloop
  endfacet
  facet normal 0.770706 0.63719 0
    outer loop
      vertex -137.629 -1.9103 0
      vertex -137.369 -2.22478 30
      vertex -137.369 -2.22478 0
    endloop
  endfacet
  facet normal 0.685183 0.728371 -0
    outer loop
      vertex -137.072 -2.50417 0
      vertex -137.369 -2.22478 30
      vertex -137.072 -2.50417 30
    endloop
  endfacet
  facet normal 0.685183 0.728371 0
    outer loop
      vertex -137.369 -2.22478 30
      vertex -137.072 -2.50417 0
      vertex -137.369 -2.22478 0
    endloop
  endfacet
  facet normal 0.982502 0.186252 0
    outer loop
      vertex -138.148 -0.808242 30
      vertex -138.224 -0.407332 0
      vertex -138.224 -0.407332 30
    endloop
  endfacet
  facet normal 0.982502 0.186252 0
    outer loop
      vertex -138.224 -0.407332 0
      vertex -138.148 -0.808242 30
      vertex -138.148 -0.808242 0
    endloop
  endfacet
  facet normal 0.997969 0.0637004 0
    outer loop
      vertex -138.224 -0.407332 30
      vertex -138.25 0 0
      vertex -138.25 0 30
    endloop
  endfacet
  facet normal 0.997969 0.0637004 0
    outer loop
      vertex -138.25 0 0
      vertex -138.224 -0.407332 30
      vertex -138.224 -0.407332 0
    endloop
  endfacet
  facet normal -0.770706 0.63719 0
    outer loop
      vertex -132.631 -2.22478 0
      vertex -132.371 -1.9103 30
      vertex -132.371 -1.9103 0
    endloop
  endfacet
  facet normal -0.770706 0.63719 0
    outer loop
      vertex -132.371 -1.9103 30
      vertex -132.631 -2.22478 0
      vertex -132.631 -2.22478 30
    endloop
  endfacet
  facet normal 0.482427 0.875936 -0
    outer loop
      vertex -136.384 -2.94069 0
      vertex -136.741 -2.74407 30
      vertex -136.384 -2.94069 30
    endloop
  endfacet
  facet normal 0.482427 0.875936 0
    outer loop
      vertex -136.741 -2.74407 30
      vertex -136.384 -2.94069 0
      vertex -136.741 -2.74407 0
    endloop
  endfacet
  facet normal 0.843984 0.536368 0
    outer loop
      vertex -137.629 -1.9103 30
      vertex -137.848 -1.5657 0
      vertex -137.848 -1.5657 30
    endloop
  endfacet
  facet normal 0.843984 0.536368 0
    outer loop
      vertex -137.848 -1.5657 0
      vertex -137.629 -1.9103 30
      vertex -137.629 -1.9103 0
    endloop
  endfacet
  facet normal -0.367675 0.929954 0
    outer loop
      vertex -133.616 -2.94069 0
      vertex -133.996 -3.09093 30
      vertex -133.616 -2.94069 30
    endloop
  endfacet
  facet normal -0.367675 0.929954 0
    outer loop
      vertex -133.996 -3.09093 30
      vertex -133.616 -2.94069 0
      vertex -133.996 -3.09093 0
    endloop
  endfacet
  facet normal -0.951143 -0.308751 0
    outer loop
      vertex 138.148 0.808242 0
      vertex 138.022 1.1964 30
      vertex 138.022 1.1964 0
    endloop
  endfacet
  facet normal -0.951143 -0.308751 0
    outer loop
      vertex 138.022 1.1964 30
      vertex 138.148 0.808242 0
      vertex 138.148 0.808242 30
    endloop
  endfacet
  facet normal -0.997969 -0.0637004 0
    outer loop
      vertex 138.25 0 0
      vertex 138.224 0.407332 30
      vertex 138.224 0.407332 0
    endloop
  endfacet
  facet normal -0.997969 -0.0637004 0
    outer loop
      vertex 138.224 0.407332 30
      vertex 138.25 0 0
      vertex 138.25 0 30
    endloop
  endfacet
  facet normal 0 -1 0
    outer loop
      vertex 134.796 3.24359 0
      vertex 135.204 3.24359 30
      vertex 134.796 3.24359 30
    endloop
  endfacet
  facet normal 0 -1 -0
    outer loop
      vertex 135.204 3.24359 30
      vertex 134.796 3.24359 0
      vertex 135.204 3.24359 0
    endloop
  endfacet
  facet normal -0.685183 -0.728371 0
    outer loop
      vertex 137.072 2.50417 0
      vertex 137.369 2.22478 30
      vertex 137.072 2.50417 30
    endloop
  endfacet
  facet normal -0.685183 -0.728371 -0
    outer loop
      vertex 137.369 2.22478 30
      vertex 137.072 2.50417 0
      vertex 137.369 2.22478 0
    endloop
  endfacet
  facet normal 0.770706 -0.63719 0
    outer loop
      vertex 132.371 1.9103 30
      vertex 132.631 2.22478 0
      vertex 132.631 2.22478 30
    endloop
  endfacet
  facet normal 0.770706 -0.63719 0
    outer loop
      vertex 132.631 2.22478 0
      vertex 132.371 1.9103 30
      vertex 132.371 1.9103 0
    endloop
  endfacet
  facet normal 0.482427 -0.875936 0
    outer loop
      vertex 133.259 2.74407 0
      vertex 133.616 2.94069 30
      vertex 133.259 2.74407 30
    endloop
  endfacet
  facet normal 0.482427 -0.875936 0
    outer loop
      vertex 133.616 2.94069 30
      vertex 133.259 2.74407 0
      vertex 133.616 2.94069 0
    endloop
  endfacet
  facet normal 0.770706 0.63719 0
    outer loop
      vertex 132.631 -2.22478 30
      vertex 132.371 -1.9103 0
      vertex 132.371 -1.9103 30
    endloop
  endfacet
  facet normal 0.770706 0.63719 0
    outer loop
      vertex 132.371 -1.9103 0
      vertex 132.631 -2.22478 30
      vertex 132.631 -2.22478 0
    endloop
  endfacet
  facet normal -0.904619 -0.426222 0
    outer loop
      vertex 138.022 1.1964 0
      vertex 137.848 1.5657 30
      vertex 137.848 1.5657 0
    endloop
  endfacet
  facet normal -0.904619 -0.426222 0
    outer loop
      vertex 137.848 1.5657 30
      vertex 138.022 1.1964 0
      vertex 138.022 1.1964 30
    endloop
  endfacet
  facet normal -0.843984 -0.536368 0
    outer loop
      vertex 137.848 1.5657 0
      vertex 137.629 1.9103 30
      vertex 137.629 1.9103 0
    endloop
  endfacet
  facet normal -0.843984 -0.536368 0
    outer loop
      vertex 137.629 1.9103 30
      vertex 137.848 1.5657 0
      vertex 137.848 1.5657 30
    endloop
  endfacet
  facet normal -0.367675 -0.929954 0
    outer loop
      vertex 136.004 3.09093 0
      vertex 136.384 2.94069 30
      vertex 136.004 3.09093 30
    endloop
  endfacet
  facet normal -0.367675 -0.929954 -0
    outer loop
      vertex 136.384 2.94069 30
      vertex 136.004 3.09093 0
      vertex 136.384 2.94069 0
    endloop
  endfacet
  facet normal -0.248877 -0.968535 0
    outer loop
      vertex 135.609 3.19243 0
      vertex 136.004 3.09093 30
      vertex 135.609 3.19243 30
    endloop
  endfacet
  facet normal -0.248877 -0.968535 -0
    outer loop
      vertex 136.004 3.09093 30
      vertex 135.609 3.19243 0
      vertex 136.004 3.09093 0
    endloop
  endfacet
  facet normal -0.586847 -0.809698 0
    outer loop
      vertex 136.741 2.74407 0
      vertex 137.072 2.50417 30
      vertex 136.741 2.74407 30
    endloop
  endfacet
  facet normal -0.586847 -0.809698 -0
    outer loop
      vertex 137.072 2.50417 30
      vertex 136.741 2.74407 0
      vertex 137.072 2.50417 0
    endloop
  endfacet
  facet normal 0.951143 -0.308751 0
    outer loop
      vertex 131.852 0.808242 30
      vertex 131.978 1.1964 0
      vertex 131.978 1.1964 30
    endloop
  endfacet
  facet normal 0.951143 -0.308751 0
    outer loop
      vertex 131.978 1.1964 0
      vertex 131.852 0.808242 30
      vertex 131.852 0.808242 0
    endloop
  endfacet
  facet normal 0.904619 -0.426222 0
    outer loop
      vertex 131.978 1.1964 30
      vertex 132.152 1.5657 0
      vertex 132.152 1.5657 30
    endloop
  endfacet
  facet normal 0.904619 -0.426222 0
    outer loop
      vertex 132.152 1.5657 0
      vertex 131.978 1.1964 30
      vertex 131.978 1.1964 0
    endloop
  endfacet
  facet normal 0.997969 -0.0637004 0
    outer loop
      vertex 131.75 0 30
      vertex 131.776 0.407332 0
      vertex 131.776 0.407332 30
    endloop
  endfacet
  facet normal 0.997969 -0.0637004 0
    outer loop
      vertex 131.776 0.407332 0
      vertex 131.75 0 30
      vertex 131.75 0 0
    endloop
  endfacet
  facet normal 0.586847 -0.809698 0
    outer loop
      vertex 132.928 2.50417 0
      vertex 133.259 2.74407 30
      vertex 132.928 2.50417 30
    endloop
  endfacet
  facet normal 0.586847 -0.809698 0
    outer loop
      vertex 133.259 2.74407 30
      vertex 132.928 2.50417 0
      vertex 133.259 2.74407 0
    endloop
  endfacet
  facet normal -0.367675 0.929954 0
    outer loop
      vertex 136.384 -2.94069 0
      vertex 136.004 -3.09093 30
      vertex 136.384 -2.94069 30
    endloop
  endfacet
  facet normal -0.367675 0.929954 0
    outer loop
      vertex 136.004 -3.09093 30
      vertex 136.384 -2.94069 0
      vertex 136.004 -3.09093 0
    endloop
  endfacet
  facet normal -0.770706 0.63719 0
    outer loop
      vertex 137.369 -2.22478 0
      vertex 137.629 -1.9103 30
      vertex 137.629 -1.9103 0
    endloop
  endfacet
  facet normal -0.770706 0.63719 0
    outer loop
      vertex 137.629 -1.9103 30
      vertex 137.369 -2.22478 0
      vertex 137.369 -2.22478 30
    endloop
  endfacet
  facet normal -0.586847 0.809698 0
    outer loop
      vertex 137.072 -2.50417 0
      vertex 136.741 -2.74407 30
      vertex 137.072 -2.50417 30
    endloop
  endfacet
  facet normal -0.586847 0.809698 0
    outer loop
      vertex 136.741 -2.74407 30
      vertex 137.072 -2.50417 0
      vertex 136.741 -2.74407 0
    endloop
  endfacet
  facet normal -0.843984 0.536368 0
    outer loop
      vertex 137.629 -1.9103 0
      vertex 137.848 -1.5657 30
      vertex 137.848 -1.5657 0
    endloop
  endfacet
  facet normal -0.843984 0.536368 0
    outer loop
      vertex 137.848 -1.5657 30
      vertex 137.629 -1.9103 0
      vertex 137.629 -1.9103 30
    endloop
  endfacet
  facet normal 0.586847 0.809698 -0
    outer loop
      vertex 133.259 -2.74407 0
      vertex 132.928 -2.50417 30
      vertex 133.259 -2.74407 30
    endloop
  endfacet
  facet normal 0.586847 0.809698 0
    outer loop
      vertex 132.928 -2.50417 30
      vertex 133.259 -2.74407 0
      vertex 132.928 -2.50417 0
    endloop
  endfacet
  facet normal 0.248877 0.968535 -0
    outer loop
      vertex 134.391 -3.19243 0
      vertex 133.996 -3.09093 30
      vertex 134.391 -3.19243 30
    endloop
  endfacet
  facet normal 0.248877 0.968535 0
    outer loop
      vertex 133.996 -3.09093 30
      vertex 134.391 -3.19243 0
      vertex 133.996 -3.09093 0
    endloop
  endfacet
  facet normal 0.843984 0.536368 0
    outer loop
      vertex 132.371 -1.9103 30
      vertex 132.152 -1.5657 0
      vertex 132.152 -1.5657 30
    endloop
  endfacet
  facet normal 0.843984 0.536368 0
    outer loop
      vertex 132.152 -1.5657 0
      vertex 132.371 -1.9103 30
      vertex 132.371 -1.9103 0
    endloop
  endfacet
  facet normal 0.997969 0.0637004 0
    outer loop
      vertex 131.776 -0.407332 30
      vertex 131.75 0 0
      vertex 131.75 0 30
    endloop
  endfacet
  facet normal 0.997969 0.0637004 0
    outer loop
      vertex 131.75 0 0
      vertex 131.776 -0.407332 30
      vertex 131.776 -0.407332 0
    endloop
  endfacet
  facet normal 0.125325 -0.992116 0
    outer loop
      vertex 134.391 3.19243 0
      vertex 134.796 3.24359 30
      vertex 134.391 3.19243 30
    endloop
  endfacet
  facet normal 0.125325 -0.992116 0
    outer loop
      vertex 134.796 3.24359 30
      vertex 134.391 3.19243 0
      vertex 134.796 3.24359 0
    endloop
  endfacet
  facet normal 0.367675 -0.929954 0
    outer loop
      vertex 133.616 2.94069 0
      vertex 133.996 3.09093 30
      vertex 133.616 2.94069 30
    endloop
  endfacet
  facet normal 0.367675 -0.929954 0
    outer loop
      vertex 133.996 3.09093 30
      vertex 133.616 2.94069 0
      vertex 133.996 3.09093 0
    endloop
  endfacet
  facet normal 0.248877 -0.968535 0
    outer loop
      vertex 133.996 3.09093 0
      vertex 134.391 3.19243 30
      vertex 133.996 3.09093 30
    endloop
  endfacet
  facet normal 0.248877 -0.968535 0
    outer loop
      vertex 134.391 3.19243 30
      vertex 133.996 3.09093 0
      vertex 134.391 3.19243 0
    endloop
  endfacet
  facet normal -0.125325 0.992116 0
    outer loop
      vertex 135.609 -3.19243 0
      vertex 135.204 -3.24359 30
      vertex 135.609 -3.19243 30
    endloop
  endfacet
  facet normal -0.125325 0.992116 0
    outer loop
      vertex 135.204 -3.24359 30
      vertex 135.609 -3.19243 0
      vertex 135.204 -3.24359 0
    endloop
  endfacet
  facet normal -0.248877 0.968535 0
    outer loop
      vertex 136.004 -3.09093 0
      vertex 135.609 -3.19243 30
      vertex 136.004 -3.09093 30
    endloop
  endfacet
  facet normal -0.248877 0.968535 0
    outer loop
      vertex 135.609 -3.19243 30
      vertex 136.004 -3.09093 0
      vertex 135.609 -3.19243 0
    endloop
  endfacet
  facet normal -0.685183 0.728371 0
    outer loop
      vertex 137.369 -2.22478 0
      vertex 137.072 -2.50417 30
      vertex 137.369 -2.22478 30
    endloop
  endfacet
  facet normal -0.685183 0.728371 0
    outer loop
      vertex 137.072 -2.50417 30
      vertex 137.369 -2.22478 0
      vertex 137.072 -2.50417 0
    endloop
  endfacet
  facet normal -0.951143 0.308751 0
    outer loop
      vertex 138.022 -1.1964 0
      vertex 138.148 -0.808242 30
      vertex 138.148 -0.808242 0
    endloop
  endfacet
  facet normal -0.951143 0.308751 0
    outer loop
      vertex 138.148 -0.808242 30
      vertex 138.022 -1.1964 0
      vertex 138.022 -1.1964 30
    endloop
  endfacet
  facet normal -0.997969 0.0637004 0
    outer loop
      vertex 138.224 -0.407332 0
      vertex 138.25 0 30
      vertex 138.25 0 0
    endloop
  endfacet
  facet normal -0.997969 0.0637004 0
    outer loop
      vertex 138.25 0 30
      vertex 138.224 -0.407332 0
      vertex 138.224 -0.407332 30
    endloop
  endfacet
  facet normal 0.125325 0.992116 -0
    outer loop
      vertex 134.796 -3.24359 0
      vertex 134.391 -3.19243 30
      vertex 134.796 -3.24359 30
    endloop
  endfacet
  facet normal 0.125325 0.992116 0
    outer loop
      vertex 134.391 -3.19243 30
      vertex 134.796 -3.24359 0
      vertex 134.391 -3.19243 0
    endloop
  endfacet
  facet normal 0.482427 0.875936 -0
    outer loop
      vertex 133.616 -2.94069 0
      vertex 133.259 -2.74407 30
      vertex 133.616 -2.94069 30
    endloop
  endfacet
  facet normal 0.482427 0.875936 0
    outer loop
      vertex 133.259 -2.74407 30
      vertex 133.616 -2.94069 0
      vertex 133.259 -2.74407 0
    endloop
  endfacet
  facet normal 0 1 -0
    outer loop
      vertex 135.204 -3.24359 0
      vertex 134.796 -3.24359 30
      vertex 135.204 -3.24359 30
    endloop
  endfacet
  facet normal 0 1 0
    outer loop
      vertex 134.796 -3.24359 30
      vertex 135.204 -3.24359 0
      vertex 134.796 -3.24359 0
    endloop
  endfacet
  facet normal 0.685183 0.728371 -0
    outer loop
      vertex 132.928 -2.50417 0
      vertex 132.631 -2.22478 30
      vertex 132.928 -2.50417 30
    endloop
  endfacet
  facet normal 0.685183 0.728371 0
    outer loop
      vertex 132.631 -2.22478 30
      vertex 132.928 -2.50417 0
      vertex 132.631 -2.22478 0
    endloop
  endfacet
  facet normal 0.904619 0.426222 0
    outer loop
      vertex 132.152 -1.5657 30
      vertex 131.978 -1.1964 0
      vertex 131.978 -1.1964 30
    endloop
  endfacet
  facet normal 0.904619 0.426222 0
    outer loop
      vertex 131.978 -1.1964 0
      vertex 132.152 -1.5657 30
      vertex 132.152 -1.5657 0
    endloop
  endfacet
  facet normal 0.982502 0.186252 0
    outer loop
      vertex 131.852 -0.808242 30
      vertex 131.776 -0.407332 0
      vertex 131.776 -0.407332 30
    endloop
  endfacet
  facet normal 0.982502 0.186252 0
    outer loop
      vertex 131.776 -0.407332 0
      vertex 131.852 -0.808242 30
      vertex 131.852 -0.808242 0
    endloop
  endfacet
  facet normal -0.982502 -0.186252 0
    outer loop
      vertex 138.224 0.407332 0
      vertex 138.148 0.808242 30
      vertex 138.148 0.808242 0
    endloop
  endfacet
  facet normal -0.982502 -0.186252 0
    outer loop
      vertex 138.148 0.808242 30
      vertex 138.224 0.407332 0
      vertex 138.224 0.407332 30
    endloop
  endfacet
  facet normal -0.770706 -0.63719 0
    outer loop
      vertex 137.629 1.9103 0
      vertex 137.369 2.22478 30
      vertex 137.369 2.22478 0
    endloop
  endfacet
  facet normal -0.770706 -0.63719 0
    outer loop
      vertex 137.369 2.22478 30
      vertex 137.629 1.9103 0
      vertex 137.629 1.9103 30
    endloop
  endfacet
  facet normal -0.125325 -0.992116 0
    outer loop
      vertex 135.204 3.24359 0
      vertex 135.609 3.19243 30
      vertex 135.204 3.24359 30
    endloop
  endfacet
  facet normal -0.125325 -0.992116 -0
    outer loop
      vertex 135.609 3.19243 30
      vertex 135.204 3.24359 0
      vertex 135.609 3.19243 0
    endloop
  endfacet
  facet normal -0.482427 -0.875936 0
    outer loop
      vertex 136.384 2.94069 0
      vertex 136.741 2.74407 30
      vertex 136.384 2.94069 30
    endloop
  endfacet
  facet normal -0.482427 -0.875936 -0
    outer loop
      vertex 136.741 2.74407 30
      vertex 136.384 2.94069 0
      vertex 136.741 2.74407 0
    endloop
  endfacet
  facet normal 0.843984 -0.536368 0
    outer loop
      vertex 132.152 1.5657 30
      vertex 132.371 1.9103 0
      vertex 132.371 1.9103 30
    endloop
  endfacet
  facet normal 0.843984 -0.536368 0
    outer loop
      vertex 132.371 1.9103 0
      vertex 132.152 1.5657 30
      vertex 132.152 1.5657 0
    endloop
  endfacet
  facet normal 0.982502 -0.186252 0
    outer loop
      vertex 131.776 0.407332 30
      vertex 131.852 0.808242 0
      vertex 131.852 0.808242 30
    endloop
  endfacet
  facet normal 0.982502 -0.186252 0
    outer loop
      vertex 131.852 0.808242 0
      vertex 131.776 0.407332 30
      vertex 131.776 0.407332 0
    endloop
  endfacet
  facet normal 0.685183 -0.728371 0
    outer loop
      vertex 132.631 2.22478 0
      vertex 132.928 2.50417 30
      vertex 132.631 2.22478 30
    endloop
  endfacet
  facet normal 0.685183 -0.728371 0
    outer loop
      vertex 132.928 2.50417 30
      vertex 132.631 2.22478 0
      vertex 132.928 2.50417 0
    endloop
  endfacet
  facet normal -0.482427 0.875936 0
    outer loop
      vertex 136.741 -2.74407 0
      vertex 136.384 -2.94069 30
      vertex 136.741 -2.74407 30
    endloop
  endfacet
  facet normal -0.482427 0.875936 0
    outer loop
      vertex 136.384 -2.94069 30
      vertex 136.741 -2.74407 0
      vertex 136.384 -2.94069 0
    endloop
  endfacet
  facet normal -0.982502 0.186252 0
    outer loop
      vertex 138.148 -0.808242 0
      vertex 138.224 -0.407332 30
      vertex 138.224 -0.407332 0
    endloop
  endfacet
  facet normal -0.982502 0.186252 0
    outer loop
      vertex 138.224 -0.407332 30
      vertex 138.148 -0.808242 0
      vertex 138.148 -0.808242 30
    endloop
  endfacet
  facet normal -0.904619 0.426222 0
    outer loop
      vertex 137.848 -1.5657 0
      vertex 138.022 -1.1964 30
      vertex 138.022 -1.1964 0
    endloop
  endfacet
  facet normal -0.904619 0.426222 0
    outer loop
      vertex 138.022 -1.1964 30
      vertex 137.848 -1.5657 0
      vertex 137.848 -1.5657 30
    endloop
  endfacet
  facet normal 0.367675 0.929954 -0
    outer loop
      vertex 133.996 -3.09093 0
      vertex 133.616 -2.94069 30
      vertex 133.996 -3.09093 30
    endloop
  endfacet
  facet normal 0.367675 0.929954 0
    outer loop
      vertex 133.616 -2.94069 30
      vertex 133.996 -3.09093 0
      vertex 133.616 -2.94069 0
    endloop
  endfacet
  facet normal 0.951143 0.308751 0
    outer loop
      vertex 131.978 -1.1964 30
      vertex 131.852 -0.808242 0
      vertex 131.852 -0.808242 30
    endloop
  endfacet
  facet normal 0.951143 0.308751 0
    outer loop
      vertex 131.852 -0.808242 0
      vertex 131.978 -1.1964 30
      vertex 131.978 -1.1964 0
    endloop
  endfacet
  facet normal -1 0 0
    outer loop
      vertex -142 -2 0
      vertex -142 2 30
      vertex -142 2 0
    endloop
  endfacet
  facet normal -1 -0 0
    outer loop
      vertex -142 2 30
      vertex -142 -2 0
      vertex -142 -2 30
    endloop
  endfacet
  facet normal -0.998069 -0.0621135 0
    outer loop
      vertex -141.961 -2.62667 0
      vertex -142 -2 30
      vertex -142 -2 0
    endloop
  endfacet
  facet normal -0.998069 -0.0621135 0
    outer loop
      vertex -142 -2 30
      vertex -141.961 -2.62667 0
      vertex -141.961 -2.62667 30
    endloop
  endfacet
  facet normal -0.125313 -0.992117 0
    outer loop
      vertex -137.937 -6.91144 0
      vertex -137.314 -6.99013 30
      vertex -137.937 -6.91144 30
    endloop
  endfacet
  facet normal -0.125313 -0.992117 -0
    outer loop
      vertex -137.314 -6.99013 30
      vertex -137.937 -6.91144 0
      vertex -137.314 -6.99013 0
    endloop
  endfacet
  facet normal 0 1 -0
    outer loop
      vertex 137.314 6.99013 0
      vertex -137.314 6.99013 30
      vertex 137.314 6.99013 30
    endloop
  endfacet
  facet normal 0 1 0
    outer loop
      vertex -137.314 6.99013 30
      vertex 137.314 6.99013 0
      vertex -137.314 6.99013 0
    endloop
  endfacet
  facet normal 0 -1 0
    outer loop
      vertex -137.314 -6.99013 0
      vertex 137.314 -6.99013 30
      vertex -137.314 -6.99013 30
    endloop
  endfacet
  facet normal 0 -1 -0
    outer loop
      vertex 137.314 -6.99013 30
      vertex -137.314 -6.99013 0
      vertex 137.314 -6.99013 0
    endloop
  endfacet
  facet normal 0.481907 -0.876223 0
    outer loop
      vertex 139.129 -6.52413 0
      vertex 139.679 -6.22164 30
      vertex 139.129 -6.52413 30
    endloop
  endfacet
  facet normal 0.481907 -0.876223 0
    outer loop
      vertex 139.679 -6.22164 30
      vertex 139.129 -6.52413 0
      vertex 139.679 -6.22164 0
    endloop
  endfacet
  facet normal -0.998069 0.0621135 0
    outer loop
      vertex -142 2 0
      vertex -141.961 2.62667 30
      vertex -141.961 2.62667 0
    endloop
  endfacet
  facet normal -0.998069 0.0621135 0
    outer loop
      vertex -141.961 2.62667 30
      vertex -142 2 0
      vertex -142 2 30
    endloop
  endfacet
  facet normal 0.905042 -0.425321 0
    outer loop
      vertex 141.382 -4.40877 30
      vertex 141.649 -3.84062 0
      vertex 141.649 -3.84062 30
    endloop
  endfacet
  facet normal 0.905042 -0.425321 0
    outer loop
      vertex 141.649 -3.84062 0
      vertex 141.382 -4.40877 30
      vertex 141.382 -4.40877 0
    endloop
  endfacet
  facet normal -0.368026 -0.929816 0
    outer loop
      vertex -139.129 -6.52413 0
      vertex -138.545 -6.75528 30
      vertex -139.129 -6.52413 30
    endloop
  endfacet
  facet normal -0.368026 -0.929816 -0
    outer loop
      vertex -138.545 -6.75528 30
      vertex -139.129 -6.52413 0
      vertex -138.545 -6.75528 0
    endloop
  endfacet
  facet normal -0.684327 -0.729176 0
    outer loop
      vertex -140.645 -5.42274 0
      vertex -140.187 -5.85257 30
      vertex -140.645 -5.42274 30
    endloop
  endfacet
  facet normal -0.684327 -0.729176 -0
    outer loop
      vertex -140.187 -5.85257 30
      vertex -140.645 -5.42274 0
      vertex -140.187 -5.85257 0
    endloop
  endfacet
  facet normal 1 -0 0
    outer loop
      vertex 142 -2 30
      vertex 142 2 0
      vertex 142 2 30
    endloop
  endfacet
  facet normal 1 0 0
    outer loop
      vertex 142 2 0
      vertex 142 -2 30
      vertex 142 -2 0
    endloop
  endfacet
  facet normal 0.951072 -0.30897 0
    outer loop
      vertex 141.649 -3.84062 30
      vertex 141.843 -3.24345 0
      vertex 141.843 -3.24345 30
    endloop
  endfacet
  facet normal 0.951072 -0.30897 0
    outer loop
      vertex 141.843 -3.24345 0
      vertex 141.649 -3.84062 30
      vertex 141.649 -3.84062 0
    endloop
  endfacet
  facet normal 0.905042 0.425321 0
    outer loop
      vertex 141.649 3.84062 30
      vertex 141.382 4.40877 0
      vertex 141.382 4.40877 30
    endloop
  endfacet
  facet normal 0.905042 0.425321 0
    outer loop
      vertex 141.382 4.40877 0
      vertex 141.649 3.84062 30
      vertex 141.649 3.84062 0
    endloop
  endfacet
  facet normal 0.951072 0.30897 0
    outer loop
      vertex 141.843 3.24345 30
      vertex 141.649 3.84062 0
      vertex 141.649 3.84062 30
    endloop
  endfacet
  facet normal 0.951072 0.30897 0
    outer loop
      vertex 141.649 3.84062 0
      vertex 141.843 3.24345 30
      vertex 141.843 3.24345 0
    endloop
  endfacet
  facet normal 0.684327 0.729176 -0
    outer loop
      vertex 140.645 5.42274 0
      vertex 140.187 5.85257 30
      vertex 140.645 5.42274 30
    endloop
  endfacet
  facet normal 0.684327 0.729176 0
    outer loop
      vertex 140.187 5.85257 30
      vertex 140.645 5.42274 0
      vertex 140.187 5.85257 0
    endloop
  endfacet
  facet normal 0.368026 0.929816 -0
    outer loop
      vertex 139.129 6.52413 0
      vertex 138.545 6.75528 30
      vertex 139.129 6.52413 30
    endloop
  endfacet
  facet normal 0.368026 0.929816 0
    outer loop
      vertex 138.545 6.75528 30
      vertex 139.129 6.52413 0
      vertex 138.545 6.75528 0
    endloop
  endfacet
  facet normal 0.248768 0.968563 -0
    outer loop
      vertex 138.545 6.75528 0
      vertex 137.937 6.91144 30
      vertex 138.545 6.75528 30
    endloop
  endfacet
  facet normal 0.248768 0.968563 0
    outer loop
      vertex 137.937 6.91144 30
      vertex 138.545 6.75528 0
      vertex 137.937 6.91144 0
    endloop
  endfacet
  facet normal 0.125313 0.992117 -0
    outer loop
      vertex 137.937 6.91144 0
      vertex 137.314 6.99013 30
      vertex 137.937 6.91144 30
    endloop
  endfacet
  facet normal 0.125313 0.992117 0
    outer loop
      vertex 137.314 6.99013 30
      vertex 137.937 6.91144 0
      vertex 137.314 6.99013 0
    endloop
  endfacet
  facet normal -0.481907 0.876223 0
    outer loop
      vertex -139.129 6.52413 0
      vertex -139.679 6.22164 30
      vertex -139.129 6.52413 30
    endloop
  endfacet
  facet normal -0.481907 0.876223 0
    outer loop
      vertex -139.679 6.22164 30
      vertex -139.129 6.52413 0
      vertex -139.679 6.22164 0
    endloop
  endfacet
  facet normal -0.248768 0.968563 0
    outer loop
      vertex -137.937 6.91144 0
      vertex -138.545 6.75528 30
      vertex -137.937 6.91144 30
    endloop
  endfacet
  facet normal -0.248768 0.968563 0
    outer loop
      vertex -138.545 6.75528 30
      vertex -137.937 6.91144 0
      vertex -138.545 6.75528 0
    endloop
  endfacet
  facet normal -0.770703 0.637195 0
    outer loop
      vertex -141.045 4.93893 0
      vertex -140.645 5.42274 30
      vertex -140.645 5.42274 0
    endloop
  endfacet
  facet normal -0.770703 0.637195 0
    outer loop
      vertex -140.645 5.42274 30
      vertex -141.045 4.93893 0
      vertex -141.045 4.93893 30
    endloop
  endfacet
  facet normal -0.951072 -0.30897 0
    outer loop
      vertex -141.649 -3.84062 0
      vertex -141.843 -3.24345 30
      vertex -141.843 -3.24345 0
    endloop
  endfacet
  facet normal -0.951072 -0.30897 0
    outer loop
      vertex -141.843 -3.24345 30
      vertex -141.649 -3.84062 0
      vertex -141.649 -3.84062 30
    endloop
  endfacet
  facet normal -0.770703 -0.637195 0
    outer loop
      vertex -140.645 -5.42274 0
      vertex -141.045 -4.93893 30
      vertex -141.045 -4.93893 0
    endloop
  endfacet
  facet normal -0.770703 -0.637195 0
    outer loop
      vertex -141.045 -4.93893 30
      vertex -140.645 -5.42274 0
      vertex -140.645 -5.42274 30
    endloop
  endfacet
  facet normal -0.905042 -0.425321 0
    outer loop
      vertex -141.382 -4.40877 0
      vertex -141.649 -3.84062 30
      vertex -141.649 -3.84062 0
    endloop
  endfacet
  facet normal -0.905042 -0.425321 0
    outer loop
      vertex -141.649 -3.84062 30
      vertex -141.382 -4.40877 0
      vertex -141.382 -4.40877 30
    endloop
  endfacet
  facet normal -0.248768 -0.968563 0
    outer loop
      vertex -138.545 -6.75528 0
      vertex -137.937 -6.91144 30
      vertex -138.545 -6.75528 30
    endloop
  endfacet
  facet normal -0.248768 -0.968563 -0
    outer loop
      vertex -137.937 -6.91144 30
      vertex -138.545 -6.75528 0
      vertex -137.937 -6.91144 0
    endloop
  endfacet
  facet normal -0.587771 -0.809027 0
    outer loop
      vertex -140.187 -5.85257 0
      vertex -139.679 -6.22164 30
      vertex -140.187 -5.85257 30
    endloop
  endfacet
  facet normal -0.587771 -0.809027 -0
    outer loop
      vertex -139.679 -6.22164 30
      vertex -140.187 -5.85257 0
      vertex -139.679 -6.22164 0
    endloop
  endfacet
  facet normal 0.998069 -0.0621135 0
    outer loop
      vertex 141.961 -2.62667 30
      vertex 142 -2 0
      vertex 142 -2 30
    endloop
  endfacet
  facet normal 0.998069 -0.0621135 0
    outer loop
      vertex 142 -2 0
      vertex 141.961 -2.62667 30
      vertex 141.961 -2.62667 0
    endloop
  endfacet
  facet normal 0.587771 -0.809027 0
    outer loop
      vertex 139.679 -6.22164 0
      vertex 140.187 -5.85257 30
      vertex 139.679 -6.22164 30
    endloop
  endfacet
  facet normal 0.587771 -0.809027 0
    outer loop
      vertex 140.187 -5.85257 30
      vertex 139.679 -6.22164 0
      vertex 140.187 -5.85257 0
    endloop
  endfacet
  facet normal 0.770703 -0.637195 0
    outer loop
      vertex 140.645 -5.42274 30
      vertex 141.045 -4.93893 0
      vertex 141.045 -4.93893 30
    endloop
  endfacet
  facet normal 0.770703 -0.637195 0
    outer loop
      vertex 141.045 -4.93893 0
      vertex 140.645 -5.42274 30
      vertex 140.645 -5.42274 0
    endloop
  endfacet
  facet normal 0.368026 -0.929816 0
    outer loop
      vertex 138.545 -6.75528 0
      vertex 139.129 -6.52413 30
      vertex 138.545 -6.75528 30
    endloop
  endfacet
  facet normal 0.368026 -0.929816 0
    outer loop
      vertex 139.129 -6.52413 30
      vertex 138.545 -6.75528 0
      vertex 139.129 -6.52413 0
    endloop
  endfacet
  facet normal 0.125313 -0.992117 0
    outer loop
      vertex 137.314 -6.99013 0
      vertex 137.937 -6.91144 30
      vertex 137.314 -6.99013 30
    endloop
  endfacet
  facet normal 0.125313 -0.992117 0
    outer loop
      vertex 137.937 -6.91144 30
      vertex 137.314 -6.99013 0
      vertex 137.937 -6.91144 0
    endloop
  endfacet
  facet normal 0.770703 0.637195 0
    outer loop
      vertex 141.045 4.93893 30
      vertex 140.645 5.42274 0
      vertex 140.645 5.42274 30
    endloop
  endfacet
  facet normal 0.770703 0.637195 0
    outer loop
      vertex 140.645 5.42274 0
      vertex 141.045 4.93893 30
      vertex 141.045 4.93893 0
    endloop
  endfacet
  facet normal 0.843931 0.536451 0
    outer loop
      vertex 141.382 4.40877 30
      vertex 141.045 4.93893 0
      vertex 141.045 4.93893 30
    endloop
  endfacet
  facet normal 0.843931 0.536451 0
    outer loop
      vertex 141.045 4.93893 0
      vertex 141.382 4.40877 30
      vertex 141.382 4.40877 0
    endloop
  endfacet
  facet normal 0.587771 0.809027 -0
    outer loop
      vertex 140.187 5.85257 0
      vertex 139.679 6.22164 30
      vertex 140.187 5.85257 30
    endloop
  endfacet
  facet normal 0.587771 0.809027 0
    outer loop
      vertex 139.679 6.22164 30
      vertex 140.187 5.85257 0
      vertex 139.679 6.22164 0
    endloop
  endfacet
  facet normal 0.481907 0.876223 -0
    outer loop
      vertex 139.679 6.22164 0
      vertex 139.129 6.52413 30
      vertex 139.679 6.22164 30
    endloop
  endfacet
  facet normal 0.481907 0.876223 0
    outer loop
      vertex 139.129 6.52413 30
      vertex 139.679 6.22164 0
      vertex 139.129 6.52413 0
    endloop
  endfacet
  facet normal -0.125313 0.992117 0
    outer loop
      vertex -137.314 6.99013 0
      vertex -137.937 6.91144 30
      vertex -137.314 6.99013 30
    endloop
  endfacet
  facet normal -0.125313 0.992117 0
    outer loop
      vertex -137.937 6.91144 30
      vertex -137.314 6.99013 0
      vertex -137.937 6.91144 0
    endloop
  endfacet
  facet normal -0.951072 0.30897 0
    outer loop
      vertex -141.843 3.24345 0
      vertex -141.649 3.84062 30
      vertex -141.649 3.84062 0
    endloop
  endfacet
  facet normal -0.951072 0.30897 0
    outer loop
      vertex -141.649 3.84062 30
      vertex -141.843 3.24345 0
      vertex -141.843 3.24345 30
    endloop
  endfacet
  facet normal -0.982187 -0.187908 0
    outer loop
      vertex -141.843 -3.24345 0
      vertex -141.961 -2.62667 30
      vertex -141.961 -2.62667 0
    endloop
  endfacet
  facet normal -0.982187 -0.187908 0
    outer loop
      vertex -141.961 -2.62667 30
      vertex -141.843 -3.24345 0
      vertex -141.843 -3.24345 30
    endloop
  endfacet
  facet normal -0.843931 -0.536451 0
    outer loop
      vertex -141.045 -4.93893 0
      vertex -141.382 -4.40877 30
      vertex -141.382 -4.40877 0
    endloop
  endfacet
  facet normal -0.843931 -0.536451 0
    outer loop
      vertex -141.382 -4.40877 30
      vertex -141.045 -4.93893 0
      vertex -141.045 -4.93893 30
    endloop
  endfacet
  facet normal -0.481907 -0.876223 0
    outer loop
      vertex -139.679 -6.22164 0
      vertex -139.129 -6.52413 30
      vertex -139.679 -6.22164 30
    endloop
  endfacet
  facet normal -0.481907 -0.876223 -0
    outer loop
      vertex -139.129 -6.52413 30
      vertex -139.679 -6.22164 0
      vertex -139.129 -6.52413 0
    endloop
  endfacet
  facet normal 0.982187 -0.187908 0
    outer loop
      vertex 141.843 -3.24345 30
      vertex 141.961 -2.62667 0
      vertex 141.961 -2.62667 30
    endloop
  endfacet
  facet normal 0.982187 -0.187908 0
    outer loop
      vertex 141.961 -2.62667 0
      vertex 141.843 -3.24345 30
      vertex 141.843 -3.24345 0
    endloop
  endfacet
  facet normal 0.684327 -0.729176 0
    outer loop
      vertex 140.187 -5.85257 0
      vertex 140.645 -5.42274 30
      vertex 140.187 -5.85257 30
    endloop
  endfacet
  facet normal 0.684327 -0.729176 0
    outer loop
      vertex 140.645 -5.42274 30
      vertex 140.187 -5.85257 0
      vertex 140.645 -5.42274 0
    endloop
  endfacet
  facet normal 0.843931 -0.536451 0
    outer loop
      vertex 141.045 -4.93893 30
      vertex 141.382 -4.40877 0
      vertex 141.382 -4.40877 30
    endloop
  endfacet
  facet normal 0.843931 -0.536451 0
    outer loop
      vertex 141.382 -4.40877 0
      vertex 141.045 -4.93893 30
      vertex 141.045 -4.93893 0
    endloop
  endfacet
  facet normal 0.248768 -0.968563 0
    outer loop
      vertex 137.937 -6.91144 0
      vertex 138.545 -6.75528 30
      vertex 137.937 -6.91144 30
    endloop
  endfacet
  facet normal 0.248768 -0.968563 0
    outer loop
      vertex 138.545 -6.75528 30
      vertex 137.937 -6.91144 0
      vertex 138.545 -6.75528 0
    endloop
  endfacet
  facet normal -0.684327 0.729176 0
    outer loop
      vertex -140.187 5.85257 0
      vertex -140.645 5.42274 30
      vertex -140.187 5.85257 30
    endloop
  endfacet
  facet normal -0.684327 0.729176 0
    outer loop
      vertex -140.645 5.42274 30
      vertex -140.187 5.85257 0
      vertex -140.645 5.42274 0
    endloop
  endfacet
  facet normal -0.368026 0.929816 0
    outer loop
      vertex -138.545 6.75528 0
      vertex -139.129 6.52413 30
      vertex -138.545 6.75528 30
    endloop
  endfacet
  facet normal -0.368026 0.929816 0
    outer loop
      vertex -139.129 6.52413 30
      vertex -138.545 6.75528 0
      vertex -139.129 6.52413 0
    endloop
  endfacet
  facet normal -0.843931 0.536451 0
    outer loop
      vertex -141.382 4.40877 0
      vertex -141.045 4.93893 30
      vertex -141.045 4.93893 0
    endloop
  endfacet
  facet normal -0.843931 0.536451 0
    outer loop
      vertex -141.045 4.93893 30
      vertex -141.382 4.40877 0
      vertex -141.382 4.40877 30
    endloop
  endfacet
  facet normal -0.982187 0.187908 0
    outer loop
      vertex -141.961 2.62667 0
      vertex -141.843 3.24345 30
      vertex -141.843 3.24345 0
    endloop
  endfacet
  facet normal -0.982187 0.187908 0
    outer loop
      vertex -141.843 3.24345 30
      vertex -141.961 2.62667 0
      vertex -141.961 2.62667 30
    endloop
  endfacet
  facet normal 0.982187 0.187908 0
    outer loop
      vertex 141.961 2.62667 30
      vertex 141.843 3.24345 0
      vertex 141.843 3.24345 30
    endloop
  endfacet
  facet normal 0.982187 0.187908 0
    outer loop
      vertex 141.843 3.24345 0
      vertex 141.961 2.62667 30
      vertex 141.961 2.62667 0
    endloop
  endfacet
  facet normal 0.998069 0.0621135 0
    outer loop
      vertex 142 2 30
      vertex 141.961 2.62667 0
      vertex 141.961 2.62667 30
    endloop
  endfacet
  facet normal 0.998069 0.0621135 0
    outer loop
      vertex 141.961 2.62667 0
      vertex 142 2 30
      vertex 142 2 0
    endloop
  endfacet
  facet normal -0.587771 0.809027 0
    outer loop
      vertex -139.679 6.22164 0
      vertex -140.187 5.85257 30
      vertex -139.679 6.22164 30
    endloop
  endfacet
  facet normal -0.587771 0.809027 0
    outer loop
      vertex -140.187 5.85257 30
      vertex -139.679 6.22164 0
      vertex -140.187 5.85257 0
    endloop
  endfacet
  facet normal -0.905042 0.425321 0
    outer loop
      vertex -141.649 3.84062 0
      vertex -141.382 4.40877 30
      vertex -141.382 4.40877 0
    endloop
  endfacet
  facet normal -0.905042 0.425321 0
    outer loop
      vertex -141.382 4.40877 30
      vertex -141.649 3.84062 0
      vertex -141.649 3.84062 30
    endloop
  endfacet
endsolid OpenSCAD_Model
