solid OpenSCAD_Model
  facet normal -0.904808 -0.425821 0
    outer loop
      vertex -94.4782 1.1964 0
      vertex -94.652 1.5657 9
      vertex -94.652 1.5657 0
    endloop
  endfacet
  facet normal -0.904808 -0.425821 0
    outer loop
      vertex -94.652 1.5657 9
      vertex -94.4782 1.1964 0
      vertex -94.4782 1.1964 9
    endloop
  endfacet
  facet normal -0.844317 -0.535845 0
    outer loop
      vertex -94.652 1.5657 0
      vertex -94.8707 1.9103 9
      vertex -94.8707 1.9103 0
    endloop
  endfacet
  facet normal -0.844317 -0.535845 0
    outer loop
      vertex -94.8707 1.9103 9
      vertex -94.652 1.5657 0
      vertex -94.652 1.5657 9
    endloop
  endfacet
  facet normal -0.368093 -0.929789 0
    outer loop
      vertex -96.4957 3.09093 0
      vertex -96.1162 2.94069 9
      vertex -96.4957 3.09093 9
    endloop
  endfacet
  facet normal -0.368093 -0.929789 -0
    outer loop
      vertex -96.1162 2.94069 9
      vertex -96.4957 3.09093 0
      vertex -96.1162 2.94069 0
    endloop
  endfacet
  facet normal 0.368093 -0.929789 0
    outer loop
      vertex -98.8838 2.94069 0
      vertex -98.5043 3.09093 9
      vertex -98.8838 2.94069 9
    endloop
  endfacet
  facet normal 0.368093 -0.929789 0
    outer loop
      vertex -98.5043 3.09093 9
      vertex -98.8838 2.94069 0
      vertex -98.5043 3.09093 0
    endloop
  endfacet
  facet normal 0.904619 -0.426222 0
    outer loop
      vertex -100.522 1.1964 9
      vertex -100.348 1.5657 0
      vertex -100.348 1.5657 9
    endloop
  endfacet
  facet normal 0.904619 -0.426222 0
    outer loop
      vertex -100.348 1.5657 0
      vertex -100.522 1.1964 9
      vertex -100.522 1.1964 0
    endloop
  endfacet
  facet normal -0.982277 0.187434 0
    outer loop
      vertex -94.3521 -0.808242 0
      vertex -94.2756 -0.407332 9
      vertex -94.2756 -0.407332 0
    endloop
  endfacet
  facet normal -0.982277 0.187434 0
    outer loop
      vertex -94.2756 -0.407332 9
      vertex -94.3521 -0.808242 0
      vertex -94.3521 -0.808242 9
    endloop
  endfacet
  facet normal -0.125356 -0.992112 0
    outer loop
      vertex -97.2959 3.24359 0
      vertex -96.891 3.19243 9
      vertex -97.2959 3.24359 9
    endloop
  endfacet
  facet normal -0.125356 -0.992112 -0
    outer loop
      vertex -96.891 3.19243 9
      vertex -97.2959 3.24359 0
      vertex -96.891 3.19243 0
    endloop
  endfacet
  facet normal -0.587778 -0.809022 0
    outer loop
      vertex -95.7586 2.74407 0
      vertex -95.4284 2.50417 9
      vertex -95.7586 2.74407 9
    endloop
  endfacet
  facet normal -0.587778 -0.809022 -0
    outer loop
      vertex -95.4284 2.50417 9
      vertex -95.7586 2.74407 0
      vertex -95.4284 2.50417 0
    endloop
  endfacet
  facet normal 0.982502 -0.186252 0
    outer loop
      vertex -100.724 0.407332 9
      vertex -100.648 0.808242 0
      vertex -100.648 0.808242 9
    endloop
  endfacet
  facet normal 0.982502 -0.186252 0
    outer loop
      vertex -100.648 0.808242 0
      vertex -100.724 0.407332 9
      vertex -100.724 0.407332 0
    endloop
  endfacet
  facet normal 0.770827 -0.637045 0
    outer loop
      vertex -100.129 1.9103 9
      vertex -99.8691 2.22478 0
      vertex -99.8691 2.22478 9
    endloop
  endfacet
  facet normal 0.770827 -0.637045 0
    outer loop
      vertex -99.8691 2.22478 0
      vertex -100.129 1.9103 9
      vertex -100.129 1.9103 0
    endloop
  endfacet
  facet normal 0.481806 -0.876278 0
    outer loop
      vertex -99.2414 2.74407 0
      vertex -98.8838 2.94069 9
      vertex -99.2414 2.74407 9
    endloop
  endfacet
  facet normal 0.481806 -0.876278 0
    outer loop
      vertex -98.8838 2.94069 9
      vertex -99.2414 2.74407 0
      vertex -98.8838 2.94069 0
    endloop
  endfacet
  facet normal 0.125356 -0.992112 0
    outer loop
      vertex -98.109 3.19243 0
      vertex -97.7041 3.24359 9
      vertex -98.109 3.19243 9
    endloop
  endfacet
  facet normal 0.125356 -0.992112 0
    outer loop
      vertex -97.7041 3.24359 9
      vertex -98.109 3.19243 0
      vertex -97.7041 3.24359 0
    endloop
  endfacet
  facet normal -0.998031 -0.0627242 0
    outer loop
      vertex -94.25 0 0
      vertex -94.2756 0.407332 9
      vertex -94.2756 0.407332 0
    endloop
  endfacet
  facet normal -0.998031 -0.0627242 0
    outer loop
      vertex -94.2756 0.407332 9
      vertex -94.25 0 0
      vertex -94.25 0 9
    endloop
  endfacet
  facet normal -0.951071 0.308972 0
    outer loop
      vertex -94.4782 -1.1964 0
      vertex -94.3521 -0.808242 9
      vertex -94.3521 -0.808242 0
    endloop
  endfacet
  facet normal -0.951071 0.308972 0
    outer loop
      vertex -94.3521 -0.808242 9
      vertex -94.4782 -1.1964 0
      vertex -94.4782 -1.1964 9
    endloop
  endfacet
  facet normal -0.587778 0.809022 0
    outer loop
      vertex -95.4284 -2.50417 0
      vertex -95.7586 -2.74407 9
      vertex -95.4284 -2.50417 9
    endloop
  endfacet
  facet normal -0.587778 0.809022 0
    outer loop
      vertex -95.7586 -2.74407 9
      vertex -95.4284 -2.50417 0
      vertex -95.7586 -2.74407 0
    endloop
  endfacet
  facet normal -0.951071 -0.308972 0
    outer loop
      vertex -94.3521 0.808242 0
      vertex -94.4782 1.1964 9
      vertex -94.4782 1.1964 0
    endloop
  endfacet
  facet normal -0.951071 -0.308972 0
    outer loop
      vertex -94.4782 1.1964 9
      vertex -94.3521 0.808242 0
      vertex -94.3521 0.808242 9
    endloop
  endfacet
  facet normal -0.684572 -0.728946 0
    outer loop
      vertex -95.4284 2.50417 0
      vertex -95.1309 2.22478 9
      vertex -95.4284 2.50417 9
    endloop
  endfacet
  facet normal -0.684572 -0.728946 -0
    outer loop
      vertex -95.1309 2.22478 9
      vertex -95.4284 2.50417 0
      vertex -95.1309 2.22478 0
    endloop
  endfacet
  facet normal -0.770466 -0.637481 0
    outer loop
      vertex -94.8707 1.9103 0
      vertex -95.1309 2.22478 9
      vertex -95.1309 2.22478 0
    endloop
  endfacet
  facet normal -0.770466 -0.637481 0
    outer loop
      vertex -95.1309 2.22478 9
      vertex -94.8707 1.9103 0
      vertex -94.8707 1.9103 9
    endloop
  endfacet
  facet normal 0 -1 0
    outer loop
      vertex -97.7041 3.24359 0
      vertex -97.2959 3.24359 9
      vertex -97.7041 3.24359 9
    endloop
  endfacet
  facet normal 0 -1 -0
    outer loop
      vertex -97.2959 3.24359 9
      vertex -97.7041 3.24359 0
      vertex -97.2959 3.24359 0
    endloop
  endfacet
  facet normal -0.2487 -0.968581 0
    outer loop
      vertex -96.891 3.19243 0
      vertex -96.4957 3.09093 9
      vertex -96.891 3.19243 9
    endloop
  endfacet
  facet normal -0.2487 -0.968581 -0
    outer loop
      vertex -96.4957 3.09093 9
      vertex -96.891 3.19243 0
      vertex -96.4957 3.09093 0
    endloop
  endfacet
  facet normal -0.481806 -0.876278 0
    outer loop
      vertex -96.1162 2.94069 0
      vertex -95.7586 2.74407 9
      vertex -96.1162 2.94069 9
    endloop
  endfacet
  facet normal -0.481806 -0.876278 -0
    outer loop
      vertex -95.7586 2.74407 9
      vertex -96.1162 2.94069 0
      vertex -95.7586 2.74407 0
    endloop
  endfacet
  facet normal 0.997969 -0.0637004 0
    outer loop
      vertex -100.75 0 9
      vertex -100.724 0.407332 0
      vertex -100.724 0.407332 9
    endloop
  endfacet
  facet normal 0.997969 -0.0637004 0
    outer loop
      vertex -100.724 0.407332 0
      vertex -100.75 0 9
      vertex -100.75 0 0
    endloop
  endfacet
  facet normal 0.951143 -0.308751 0
    outer loop
      vertex -100.648 0.808242 9
      vertex -100.522 1.1964 0
      vertex -100.522 1.1964 9
    endloop
  endfacet
  facet normal 0.951143 -0.308751 0
    outer loop
      vertex -100.522 1.1964 0
      vertex -100.648 0.808242 9
      vertex -100.648 0.808242 0
    endloop
  endfacet
  facet normal 0.843984 -0.536368 0
    outer loop
      vertex -100.348 1.5657 9
      vertex -100.129 1.9103 0
      vertex -100.129 1.9103 9
    endloop
  endfacet
  facet normal 0.843984 -0.536368 0
    outer loop
      vertex -100.129 1.9103 0
      vertex -100.348 1.5657 9
      vertex -100.348 1.5657 0
    endloop
  endfacet
  facet normal 0.2487 -0.968581 0
    outer loop
      vertex -98.5043 3.09093 0
      vertex -98.109 3.19243 9
      vertex -98.5043 3.09093 9
    endloop
  endfacet
  facet normal 0.2487 -0.968581 0
    outer loop
      vertex -98.109 3.19243 9
      vertex -98.5043 3.09093 0
      vertex -98.109 3.19243 0
    endloop
  endfacet
  facet normal 0.587778 -0.809022 0
    outer loop
      vertex -99.5716 2.50417 0
      vertex -99.2414 2.74407 9
      vertex -99.5716 2.50417 9
    endloop
  endfacet
  facet normal 0.587778 -0.809022 0
    outer loop
      vertex -99.2414 2.74407 9
      vertex -99.5716 2.50417 0
      vertex -99.2414 2.74407 0
    endloop
  endfacet
  facet normal 0.684572 -0.728946 0
    outer loop
      vertex -99.8691 2.22478 0
      vertex -99.5716 2.50417 9
      vertex -99.8691 2.22478 9
    endloop
  endfacet
  facet normal 0.684572 -0.728946 0
    outer loop
      vertex -99.5716 2.50417 9
      vertex -99.8691 2.22478 0
      vertex -99.5716 2.50417 0
    endloop
  endfacet
  facet normal -0.998031 0.0627242 0
    outer loop
      vertex -94.2756 -0.407332 0
      vertex -94.25 0 9
      vertex -94.25 0 0
    endloop
  endfacet
  facet normal -0.998031 0.0627242 0
    outer loop
      vertex -94.25 0 9
      vertex -94.2756 -0.407332 0
      vertex -94.2756 -0.407332 9
    endloop
  endfacet
  facet normal 0 1 -0
    outer loop
      vertex -97.2959 -3.24359 0
      vertex -97.7041 -3.24359 9
      vertex -97.2959 -3.24359 9
    endloop
  endfacet
  facet normal 0 1 0
    outer loop
      vertex -97.7041 -3.24359 9
      vertex -97.2959 -3.24359 0
      vertex -97.7041 -3.24359 0
    endloop
  endfacet
  facet normal 0.951143 0.308751 0
    outer loop
      vertex -100.522 -1.1964 9
      vertex -100.648 -0.808242 0
      vertex -100.648 -0.808242 9
    endloop
  endfacet
  facet normal 0.951143 0.308751 0
    outer loop
      vertex -100.648 -0.808242 0
      vertex -100.522 -1.1964 9
      vertex -100.522 -1.1964 0
    endloop
  endfacet
  facet normal 0.904619 0.426222 0
    outer loop
      vertex -100.348 -1.5657 9
      vertex -100.522 -1.1964 0
      vertex -100.522 -1.1964 9
    endloop
  endfacet
  facet normal 0.904619 0.426222 0
    outer loop
      vertex -100.522 -1.1964 0
      vertex -100.348 -1.5657 9
      vertex -100.348 -1.5657 0
    endloop
  endfacet
  facet normal -0.125356 0.992112 0
    outer loop
      vertex -96.891 -3.19243 0
      vertex -97.2959 -3.24359 9
      vertex -96.891 -3.19243 9
    endloop
  endfacet
  facet normal -0.125356 0.992112 0
    outer loop
      vertex -97.2959 -3.24359 9
      vertex -96.891 -3.19243 0
      vertex -97.2959 -3.24359 0
    endloop
  endfacet
  facet normal -0.770466 0.637481 0
    outer loop
      vertex -95.1309 -2.22478 0
      vertex -94.8707 -1.9103 9
      vertex -94.8707 -1.9103 0
    endloop
  endfacet
  facet normal -0.770466 0.637481 0
    outer loop
      vertex -94.8707 -1.9103 9
      vertex -95.1309 -2.22478 0
      vertex -95.1309 -2.22478 9
    endloop
  endfacet
  facet normal -0.982277 -0.187434 0
    outer loop
      vertex -94.2756 0.407332 0
      vertex -94.3521 0.808242 9
      vertex -94.3521 0.808242 0
    endloop
  endfacet
  facet normal -0.982277 -0.187434 0
    outer loop
      vertex -94.3521 0.808242 9
      vertex -94.2756 0.407332 0
      vertex -94.2756 0.407332 9
    endloop
  endfacet
  facet normal -0.2487 0.968581 0
    outer loop
      vertex -96.4957 -3.09093 0
      vertex -96.891 -3.19243 9
      vertex -96.4957 -3.09093 9
    endloop
  endfacet
  facet normal -0.2487 0.968581 0
    outer loop
      vertex -96.891 -3.19243 9
      vertex -96.4957 -3.09093 0
      vertex -96.891 -3.19243 0
    endloop
  endfacet
  facet normal -0.481806 0.876278 0
    outer loop
      vertex -95.7586 -2.74407 0
      vertex -96.1162 -2.94069 9
      vertex -95.7586 -2.74407 9
    endloop
  endfacet
  facet normal -0.481806 0.876278 0
    outer loop
      vertex -96.1162 -2.94069 9
      vertex -95.7586 -2.74407 0
      vertex -96.1162 -2.94069 0
    endloop
  endfacet
  facet normal -0.368093 0.929789 0
    outer loop
      vertex -96.1162 -2.94069 0
      vertex -96.4957 -3.09093 9
      vertex -96.1162 -2.94069 9
    endloop
  endfacet
  facet normal -0.368093 0.929789 0
    outer loop
      vertex -96.4957 -3.09093 9
      vertex -96.1162 -2.94069 0
      vertex -96.4957 -3.09093 0
    endloop
  endfacet
  facet normal -0.684572 0.728946 0
    outer loop
      vertex -95.1309 -2.22478 0
      vertex -95.4284 -2.50417 9
      vertex -95.1309 -2.22478 9
    endloop
  endfacet
  facet normal -0.684572 0.728946 0
    outer loop
      vertex -95.4284 -2.50417 9
      vertex -95.1309 -2.22478 0
      vertex -95.4284 -2.50417 0
    endloop
  endfacet
  facet normal -0.904808 0.425821 0
    outer loop
      vertex -94.652 -1.5657 0
      vertex -94.4782 -1.1964 9
      vertex -94.4782 -1.1964 0
    endloop
  endfacet
  facet normal -0.904808 0.425821 0
    outer loop
      vertex -94.4782 -1.1964 9
      vertex -94.652 -1.5657 0
      vertex -94.652 -1.5657 9
    endloop
  endfacet
  facet normal -0.844317 0.535845 0
    outer loop
      vertex -94.8707 -1.9103 0
      vertex -94.652 -1.5657 9
      vertex -94.652 -1.5657 0
    endloop
  endfacet
  facet normal -0.844317 0.535845 0
    outer loop
      vertex -94.652 -1.5657 9
      vertex -94.8707 -1.9103 0
      vertex -94.8707 -1.9103 9
    endloop
  endfacet
  facet normal 0.587778 0.809022 -0
    outer loop
      vertex -99.2414 -2.74407 0
      vertex -99.5716 -2.50417 9
      vertex -99.2414 -2.74407 9
    endloop
  endfacet
  facet normal 0.587778 0.809022 0
    outer loop
      vertex -99.5716 -2.50417 9
      vertex -99.2414 -2.74407 0
      vertex -99.5716 -2.50417 0
    endloop
  endfacet
  facet normal 0.2487 0.968581 -0
    outer loop
      vertex -98.109 -3.19243 0
      vertex -98.5043 -3.09093 9
      vertex -98.109 -3.19243 9
    endloop
  endfacet
  facet normal 0.2487 0.968581 0
    outer loop
      vertex -98.5043 -3.09093 9
      vertex -98.109 -3.19243 0
      vertex -98.5043 -3.09093 0
    endloop
  endfacet
  facet normal 0.770827 0.637045 0
    outer loop
      vertex -99.8691 -2.22478 9
      vertex -100.129 -1.9103 0
      vertex -100.129 -1.9103 9
    endloop
  endfacet
  facet normal 0.770827 0.637045 0
    outer loop
      vertex -100.129 -1.9103 0
      vertex -99.8691 -2.22478 9
      vertex -99.8691 -2.22478 0
    endloop
  endfacet
  facet normal 0.684572 0.728946 -0
    outer loop
      vertex -99.5716 -2.50417 0
      vertex -99.8691 -2.22478 9
      vertex -99.5716 -2.50417 9
    endloop
  endfacet
  facet normal 0.684572 0.728946 0
    outer loop
      vertex -99.8691 -2.22478 9
      vertex -99.5716 -2.50417 0
      vertex -99.8691 -2.22478 0
    endloop
  endfacet
  facet normal 0.982502 0.186252 0
    outer loop
      vertex -100.648 -0.808242 9
      vertex -100.724 -0.407332 0
      vertex -100.724 -0.407332 9
    endloop
  endfacet
  facet normal 0.982502 0.186252 0
    outer loop
      vertex -100.724 -0.407332 0
      vertex -100.648 -0.808242 9
      vertex -100.648 -0.808242 0
    endloop
  endfacet
  facet normal 0.997969 0.0637004 0
    outer loop
      vertex -100.724 -0.407332 9
      vertex -100.75 0 0
      vertex -100.75 0 9
    endloop
  endfacet
  facet normal 0.997969 0.0637004 0
    outer loop
      vertex -100.75 0 0
      vertex -100.724 -0.407332 9
      vertex -100.724 -0.407332 0
    endloop
  endfacet
  facet normal 0.481806 0.876278 -0
    outer loop
      vertex -98.8838 -2.94069 0
      vertex -99.2414 -2.74407 9
      vertex -98.8838 -2.94069 9
    endloop
  endfacet
  facet normal 0.481806 0.876278 0
    outer loop
      vertex -99.2414 -2.74407 9
      vertex -98.8838 -2.94069 0
      vertex -99.2414 -2.74407 0
    endloop
  endfacet
  facet normal 0.125356 0.992112 -0
    outer loop
      vertex -97.7041 -3.24359 0
      vertex -98.109 -3.19243 9
      vertex -97.7041 -3.24359 9
    endloop
  endfacet
  facet normal 0.125356 0.992112 0
    outer loop
      vertex -98.109 -3.19243 9
      vertex -97.7041 -3.24359 0
      vertex -98.109 -3.19243 0
    endloop
  endfacet
  facet normal 0.843984 0.536368 0
    outer loop
      vertex -100.129 -1.9103 9
      vertex -100.348 -1.5657 0
      vertex -100.348 -1.5657 9
    endloop
  endfacet
  facet normal 0.843984 0.536368 0
    outer loop
      vertex -100.348 -1.5657 0
      vertex -100.129 -1.9103 9
      vertex -100.129 -1.9103 0
    endloop
  endfacet
  facet normal 0.368093 0.929789 -0
    outer loop
      vertex -98.5043 -3.09093 0
      vertex -98.8838 -2.94069 9
      vertex -98.5043 -3.09093 9
    endloop
  endfacet
  facet normal 0.368093 0.929789 0
    outer loop
      vertex -98.8838 -2.94069 9
      vertex -98.5043 -3.09093 0
      vertex -98.8838 -2.94069 0
    endloop
  endfacet
  facet normal -0.587778 -0.809022 0
    outer loop
      vertex 99.2414 2.74407 0
      vertex 99.5716 2.50417 9
      vertex 99.2414 2.74407 9
    endloop
  endfacet
  facet normal -0.587778 -0.809022 -0
    outer loop
      vertex 99.5716 2.50417 9
      vertex 99.2414 2.74407 0
      vertex 99.5716 2.50417 0
    endloop
  endfacet
  facet normal -0.997969 0.0637004 0
    outer loop
      vertex 100.724 -0.407332 0
      vertex 100.75 0 9
      vertex 100.75 0 0
    endloop
  endfacet
  facet normal -0.997969 0.0637004 0
    outer loop
      vertex 100.75 0 9
      vertex 100.724 -0.407332 0
      vertex 100.724 -0.407332 9
    endloop
  endfacet
  facet normal 0.2487 0.968581 -0
    outer loop
      vertex 96.891 -3.19243 0
      vertex 96.4957 -3.09093 9
      vertex 96.891 -3.19243 9
    endloop
  endfacet
  facet normal 0.2487 0.968581 0
    outer loop
      vertex 96.4957 -3.09093 9
      vertex 96.891 -3.19243 0
      vertex 96.4957 -3.09093 0
    endloop
  endfacet
  facet normal 0.481806 -0.876278 0
    outer loop
      vertex 95.7586 2.74407 0
      vertex 96.1162 2.94069 9
      vertex 95.7586 2.74407 9
    endloop
  endfacet
  facet normal 0.481806 -0.876278 0
    outer loop
      vertex 96.1162 2.94069 9
      vertex 95.7586 2.74407 0
      vertex 96.1162 2.94069 0
    endloop
  endfacet
  facet normal 0.951071 -0.308972 0
    outer loop
      vertex 94.3521 0.808242 9
      vertex 94.4782 1.1964 0
      vertex 94.4782 1.1964 9
    endloop
  endfacet
  facet normal 0.951071 -0.308972 0
    outer loop
      vertex 94.4782 1.1964 0
      vertex 94.3521 0.808242 9
      vertex 94.3521 0.808242 0
    endloop
  endfacet
  facet normal 0.844317 0.535845 0
    outer loop
      vertex 94.8707 -1.9103 9
      vertex 94.652 -1.5657 0
      vertex 94.652 -1.5657 9
    endloop
  endfacet
  facet normal 0.844317 0.535845 0
    outer loop
      vertex 94.652 -1.5657 0
      vertex 94.8707 -1.9103 9
      vertex 94.8707 -1.9103 0
    endloop
  endfacet
  facet normal -0.951143 -0.308751 0
    outer loop
      vertex 100.648 0.808242 0
      vertex 100.522 1.1964 9
      vertex 100.522 1.1964 0
    endloop
  endfacet
  facet normal -0.951143 -0.308751 0
    outer loop
      vertex 100.522 1.1964 9
      vertex 100.648 0.808242 0
      vertex 100.648 0.808242 9
    endloop
  endfacet
  facet normal -0.904619 -0.426222 0
    outer loop
      vertex 100.522 1.1964 0
      vertex 100.348 1.5657 9
      vertex 100.348 1.5657 0
    endloop
  endfacet
  facet normal -0.904619 -0.426222 0
    outer loop
      vertex 100.348 1.5657 9
      vertex 100.522 1.1964 0
      vertex 100.522 1.1964 9
    endloop
  endfacet
  facet normal -0.843984 -0.536368 0
    outer loop
      vertex 100.348 1.5657 0
      vertex 100.129 1.9103 9
      vertex 100.129 1.9103 0
    endloop
  endfacet
  facet normal -0.843984 -0.536368 0
    outer loop
      vertex 100.129 1.9103 9
      vertex 100.348 1.5657 0
      vertex 100.348 1.5657 9
    endloop
  endfacet
  facet normal -0.770827 -0.637045 0
    outer loop
      vertex 100.129 1.9103 0
      vertex 99.8691 2.22478 9
      vertex 99.8691 2.22478 0
    endloop
  endfacet
  facet normal -0.770827 -0.637045 0
    outer loop
      vertex 99.8691 2.22478 9
      vertex 100.129 1.9103 0
      vertex 100.129 1.9103 9
    endloop
  endfacet
  facet normal -0.481806 -0.876278 0
    outer loop
      vertex 98.8838 2.94069 0
      vertex 99.2414 2.74407 9
      vertex 98.8838 2.94069 9
    endloop
  endfacet
  facet normal -0.481806 -0.876278 -0
    outer loop
      vertex 99.2414 2.74407 9
      vertex 98.8838 2.94069 0
      vertex 99.2414 2.74407 0
    endloop
  endfacet
  facet normal -0.2487 -0.968581 0
    outer loop
      vertex 98.109 3.19243 0
      vertex 98.5043 3.09093 9
      vertex 98.109 3.19243 9
    endloop
  endfacet
  facet normal -0.2487 -0.968581 -0
    outer loop
      vertex 98.5043 3.09093 9
      vertex 98.109 3.19243 0
      vertex 98.5043 3.09093 0
    endloop
  endfacet
  facet normal 0.998031 -0.0627242 0
    outer loop
      vertex 94.25 0 9
      vertex 94.2756 0.407332 0
      vertex 94.2756 0.407332 9
    endloop
  endfacet
  facet normal 0.998031 -0.0627242 0
    outer loop
      vertex 94.2756 0.407332 0
      vertex 94.25 0 9
      vertex 94.25 0 0
    endloop
  endfacet
  facet normal 0.844317 -0.535845 0
    outer loop
      vertex 94.652 1.5657 9
      vertex 94.8707 1.9103 0
      vertex 94.8707 1.9103 9
    endloop
  endfacet
  facet normal 0.844317 -0.535845 0
    outer loop
      vertex 94.8707 1.9103 0
      vertex 94.652 1.5657 9
      vertex 94.652 1.5657 0
    endloop
  endfacet
  facet normal 0.587778 -0.809022 0
    outer loop
      vertex 95.4284 2.50417 0
      vertex 95.7586 2.74407 9
      vertex 95.4284 2.50417 9
    endloop
  endfacet
  facet normal 0.587778 -0.809022 0
    outer loop
      vertex 95.7586 2.74407 9
      vertex 95.4284 2.50417 0
      vertex 95.7586 2.74407 0
    endloop
  endfacet
  facet normal 0.684572 -0.728946 0
    outer loop
      vertex 95.1309 2.22478 0
      vertex 95.4284 2.50417 9
      vertex 95.1309 2.22478 9
    endloop
  endfacet
  facet normal 0.684572 -0.728946 0
    outer loop
      vertex 95.4284 2.50417 9
      vertex 95.1309 2.22478 0
      vertex 95.4284 2.50417 0
    endloop
  endfacet
  facet normal -0.997969 -0.0637004 0
    outer loop
      vertex 100.75 0 0
      vertex 100.724 0.407332 9
      vertex 100.724 0.407332 0
    endloop
  endfacet
  facet normal -0.997969 -0.0637004 0
    outer loop
      vertex 100.724 0.407332 9
      vertex 100.75 0 0
      vertex 100.75 0 9
    endloop
  endfacet
  facet normal -0.843984 0.536368 0
    outer loop
      vertex 100.129 -1.9103 0
      vertex 100.348 -1.5657 9
      vertex 100.348 -1.5657 0
    endloop
  endfacet
  facet normal -0.843984 0.536368 0
    outer loop
      vertex 100.348 -1.5657 9
      vertex 100.129 -1.9103 0
      vertex 100.129 -1.9103 9
    endloop
  endfacet
  facet normal -0.368093 0.929789 0
    outer loop
      vertex 98.8838 -2.94069 0
      vertex 98.5043 -3.09093 9
      vertex 98.8838 -2.94069 9
    endloop
  endfacet
  facet normal -0.368093 0.929789 0
    outer loop
      vertex 98.5043 -3.09093 9
      vertex 98.8838 -2.94069 0
      vertex 98.5043 -3.09093 0
    endloop
  endfacet
  facet normal -0.770827 0.637045 0
    outer loop
      vertex 99.8691 -2.22478 0
      vertex 100.129 -1.9103 9
      vertex 100.129 -1.9103 0
    endloop
  endfacet
  facet normal -0.770827 0.637045 0
    outer loop
      vertex 100.129 -1.9103 9
      vertex 99.8691 -2.22478 0
      vertex 99.8691 -2.22478 9
    endloop
  endfacet
  facet normal -0.587778 0.809022 0
    outer loop
      vertex 99.5716 -2.50417 0
      vertex 99.2414 -2.74407 9
      vertex 99.5716 -2.50417 9
    endloop
  endfacet
  facet normal -0.587778 0.809022 0
    outer loop
      vertex 99.2414 -2.74407 9
      vertex 99.5716 -2.50417 0
      vertex 99.2414 -2.74407 0
    endloop
  endfacet
  facet normal 0 1 -0
    outer loop
      vertex 97.7041 -3.24359 0
      vertex 97.2959 -3.24359 9
      vertex 97.7041 -3.24359 9
    endloop
  endfacet
  facet normal 0 1 0
    outer loop
      vertex 97.2959 -3.24359 9
      vertex 97.7041 -3.24359 0
      vertex 97.2959 -3.24359 0
    endloop
  endfacet
  facet normal 0.481806 0.876278 -0
    outer loop
      vertex 96.1162 -2.94069 0
      vertex 95.7586 -2.74407 9
      vertex 96.1162 -2.94069 9
    endloop
  endfacet
  facet normal 0.481806 0.876278 0
    outer loop
      vertex 95.7586 -2.74407 9
      vertex 96.1162 -2.94069 0
      vertex 95.7586 -2.74407 0
    endloop
  endfacet
  facet normal 0.587778 0.809022 -0
    outer loop
      vertex 95.7586 -2.74407 0
      vertex 95.4284 -2.50417 9
      vertex 95.7586 -2.74407 9
    endloop
  endfacet
  facet normal 0.587778 0.809022 0
    outer loop
      vertex 95.4284 -2.50417 9
      vertex 95.7586 -2.74407 0
      vertex 95.4284 -2.50417 0
    endloop
  endfacet
  facet normal 0.951071 0.308972 0
    outer loop
      vertex 94.4782 -1.1964 9
      vertex 94.3521 -0.808242 0
      vertex 94.3521 -0.808242 9
    endloop
  endfacet
  facet normal 0.951071 0.308972 0
    outer loop
      vertex 94.3521 -0.808242 0
      vertex 94.4782 -1.1964 9
      vertex 94.4782 -1.1964 0
    endloop
  endfacet
  facet normal -0.684572 -0.728946 0
    outer loop
      vertex 99.5716 2.50417 0
      vertex 99.8691 2.22478 9
      vertex 99.5716 2.50417 9
    endloop
  endfacet
  facet normal -0.684572 -0.728946 -0
    outer loop
      vertex 99.8691 2.22478 9
      vertex 99.5716 2.50417 0
      vertex 99.8691 2.22478 0
    endloop
  endfacet
  facet normal 0 -1 0
    outer loop
      vertex 97.2959 3.24359 0
      vertex 97.7041 3.24359 9
      vertex 97.2959 3.24359 9
    endloop
  endfacet
  facet normal 0 -1 -0
    outer loop
      vertex 97.7041 3.24359 9
      vertex 97.2959 3.24359 0
      vertex 97.7041 3.24359 0
    endloop
  endfacet
  facet normal -0.368093 -0.929789 0
    outer loop
      vertex 98.5043 3.09093 0
      vertex 98.8838 2.94069 9
      vertex 98.5043 3.09093 9
    endloop
  endfacet
  facet normal -0.368093 -0.929789 -0
    outer loop
      vertex 98.8838 2.94069 9
      vertex 98.5043 3.09093 0
      vertex 98.8838 2.94069 0
    endloop
  endfacet
  facet normal 0.998031 0.0627242 0
    outer loop
      vertex 94.2756 -0.407332 9
      vertex 94.25 0 0
      vertex 94.25 0 9
    endloop
  endfacet
  facet normal 0.998031 0.0627242 0
    outer loop
      vertex 94.25 0 0
      vertex 94.2756 -0.407332 9
      vertex 94.2756 -0.407332 0
    endloop
  endfacet
  facet normal 0.982277 -0.187434 0
    outer loop
      vertex 94.2756 0.407332 9
      vertex 94.3521 0.808242 0
      vertex 94.3521 0.808242 9
    endloop
  endfacet
  facet normal 0.982277 -0.187434 0
    outer loop
      vertex 94.3521 0.808242 0
      vertex 94.2756 0.407332 9
      vertex 94.2756 0.407332 0
    endloop
  endfacet
  facet normal 0.904808 -0.425821 0
    outer loop
      vertex 94.4782 1.1964 9
      vertex 94.652 1.5657 0
      vertex 94.652 1.5657 9
    endloop
  endfacet
  facet normal 0.904808 -0.425821 0
    outer loop
      vertex 94.652 1.5657 0
      vertex 94.4782 1.1964 9
      vertex 94.4782 1.1964 0
    endloop
  endfacet
  facet normal 0.125356 -0.992112 0
    outer loop
      vertex 96.891 3.19243 0
      vertex 97.2959 3.24359 9
      vertex 96.891 3.19243 9
    endloop
  endfacet
  facet normal 0.125356 -0.992112 0
    outer loop
      vertex 97.2959 3.24359 9
      vertex 96.891 3.19243 0
      vertex 97.2959 3.24359 0
    endloop
  endfacet
  facet normal 0.368093 -0.929789 0
    outer loop
      vertex 96.1162 2.94069 0
      vertex 96.4957 3.09093 9
      vertex 96.1162 2.94069 9
    endloop
  endfacet
  facet normal 0.368093 -0.929789 0
    outer loop
      vertex 96.4957 3.09093 9
      vertex 96.1162 2.94069 0
      vertex 96.4957 3.09093 0
    endloop
  endfacet
  facet normal 0.2487 -0.968581 0
    outer loop
      vertex 96.4957 3.09093 0
      vertex 96.891 3.19243 9
      vertex 96.4957 3.09093 9
    endloop
  endfacet
  facet normal 0.2487 -0.968581 0
    outer loop
      vertex 96.891 3.19243 9
      vertex 96.4957 3.09093 0
      vertex 96.891 3.19243 0
    endloop
  endfacet
  facet normal 0.770466 -0.637481 0
    outer loop
      vertex 94.8707 1.9103 9
      vertex 95.1309 2.22478 0
      vertex 95.1309 2.22478 9
    endloop
  endfacet
  facet normal 0.770466 -0.637481 0
    outer loop
      vertex 95.1309 2.22478 0
      vertex 94.8707 1.9103 9
      vertex 94.8707 1.9103 0
    endloop
  endfacet
  facet normal -0.125356 0.992112 0
    outer loop
      vertex 98.109 -3.19243 0
      vertex 97.7041 -3.24359 9
      vertex 98.109 -3.19243 9
    endloop
  endfacet
  facet normal -0.125356 0.992112 0
    outer loop
      vertex 97.7041 -3.24359 9
      vertex 98.109 -3.19243 0
      vertex 97.7041 -3.24359 0
    endloop
  endfacet
  facet normal -0.982502 0.186252 0
    outer loop
      vertex 100.648 -0.808242 0
      vertex 100.724 -0.407332 9
      vertex 100.724 -0.407332 0
    endloop
  endfacet
  facet normal -0.982502 0.186252 0
    outer loop
      vertex 100.724 -0.407332 9
      vertex 100.648 -0.808242 0
      vertex 100.648 -0.808242 9
    endloop
  endfacet
  facet normal -0.951143 0.308751 0
    outer loop
      vertex 100.522 -1.1964 0
      vertex 100.648 -0.808242 9
      vertex 100.648 -0.808242 0
    endloop
  endfacet
  facet normal -0.951143 0.308751 0
    outer loop
      vertex 100.648 -0.808242 9
      vertex 100.522 -1.1964 0
      vertex 100.522 -1.1964 9
    endloop
  endfacet
  facet normal -0.2487 0.968581 0
    outer loop
      vertex 98.5043 -3.09093 0
      vertex 98.109 -3.19243 9
      vertex 98.5043 -3.09093 9
    endloop
  endfacet
  facet normal -0.2487 0.968581 0
    outer loop
      vertex 98.109 -3.19243 9
      vertex 98.5043 -3.09093 0
      vertex 98.109 -3.19243 0
    endloop
  endfacet
  facet normal -0.684572 0.728946 0
    outer loop
      vertex 99.8691 -2.22478 0
      vertex 99.5716 -2.50417 9
      vertex 99.8691 -2.22478 9
    endloop
  endfacet
  facet normal -0.684572 0.728946 0
    outer loop
      vertex 99.5716 -2.50417 9
      vertex 99.8691 -2.22478 0
      vertex 99.5716 -2.50417 0
    endloop
  endfacet
  facet normal 0.125356 0.992112 -0
    outer loop
      vertex 97.2959 -3.24359 0
      vertex 96.891 -3.19243 9
      vertex 97.2959 -3.24359 9
    endloop
  endfacet
  facet normal 0.125356 0.992112 0
    outer loop
      vertex 96.891 -3.19243 9
      vertex 97.2959 -3.24359 0
      vertex 96.891 -3.19243 0
    endloop
  endfacet
  facet normal 0.368093 0.929789 -0
    outer loop
      vertex 96.4957 -3.09093 0
      vertex 96.1162 -2.94069 9
      vertex 96.4957 -3.09093 9
    endloop
  endfacet
  facet normal 0.368093 0.929789 0
    outer loop
      vertex 96.1162 -2.94069 9
      vertex 96.4957 -3.09093 0
      vertex 96.1162 -2.94069 0
    endloop
  endfacet
  facet normal 0.904808 0.425821 0
    outer loop
      vertex 94.652 -1.5657 9
      vertex 94.4782 -1.1964 0
      vertex 94.4782 -1.1964 9
    endloop
  endfacet
  facet normal 0.904808 0.425821 0
    outer loop
      vertex 94.4782 -1.1964 0
      vertex 94.652 -1.5657 9
      vertex 94.652 -1.5657 0
    endloop
  endfacet
  facet normal 0.982277 0.187434 0
    outer loop
      vertex 94.3521 -0.808242 9
      vertex 94.2756 -0.407332 0
      vertex 94.2756 -0.407332 9
    endloop
  endfacet
  facet normal 0.982277 0.187434 0
    outer loop
      vertex 94.2756 -0.407332 0
      vertex 94.3521 -0.808242 9
      vertex 94.3521 -0.808242 0
    endloop
  endfacet
  facet normal 0.770466 0.637481 0
    outer loop
      vertex 95.1309 -2.22478 9
      vertex 94.8707 -1.9103 0
      vertex 94.8707 -1.9103 9
    endloop
  endfacet
  facet normal 0.770466 0.637481 0
    outer loop
      vertex 94.8707 -1.9103 0
      vertex 95.1309 -2.22478 9
      vertex 95.1309 -2.22478 0
    endloop
  endfacet
  facet normal 0.684572 0.728946 -0
    outer loop
      vertex 95.4284 -2.50417 0
      vertex 95.1309 -2.22478 9
      vertex 95.4284 -2.50417 9
    endloop
  endfacet
  facet normal 0.684572 0.728946 0
    outer loop
      vertex 95.1309 -2.22478 9
      vertex 95.4284 -2.50417 0
      vertex 95.1309 -2.22478 0
    endloop
  endfacet
  facet normal -0.982502 -0.186252 0
    outer loop
      vertex 100.724 0.407332 0
      vertex 100.648 0.808242 9
      vertex 100.648 0.808242 0
    endloop
  endfacet
  facet normal -0.982502 -0.186252 0
    outer loop
      vertex 100.648 0.808242 9
      vertex 100.724 0.407332 0
      vertex 100.724 0.407332 9
    endloop
  endfacet
  facet normal -0.125356 -0.992112 0
    outer loop
      vertex 97.7041 3.24359 0
      vertex 98.109 3.19243 9
      vertex 97.7041 3.24359 9
    endloop
  endfacet
  facet normal -0.125356 -0.992112 -0
    outer loop
      vertex 98.109 3.19243 9
      vertex 97.7041 3.24359 0
      vertex 98.109 3.19243 0
    endloop
  endfacet
  facet normal -0.904619 0.426222 0
    outer loop
      vertex 100.348 -1.5657 0
      vertex 100.522 -1.1964 9
      vertex 100.522 -1.1964 0
    endloop
  endfacet
  facet normal -0.904619 0.426222 0
    outer loop
      vertex 100.522 -1.1964 9
      vertex 100.348 -1.5657 0
      vertex 100.348 -1.5657 9
    endloop
  endfacet
  facet normal -0.481806 0.876278 0
    outer loop
      vertex 99.2414 -2.74407 0
      vertex 98.8838 -2.94069 9
      vertex 99.2414 -2.74407 9
    endloop
  endfacet
  facet normal -0.481806 0.876278 0
    outer loop
      vertex 98.8838 -2.94069 9
      vertex 99.2414 -2.74407 0
      vertex 98.8838 -2.94069 0
    endloop
  endfacet
  facet normal -1 0 0
    outer loop
      vertex -104.5 -2 0
      vertex -104.5 2 9
      vertex -104.5 2 0
    endloop
  endfacet
  facet normal -1 -0 0
    outer loop
      vertex -104.5 2 9
      vertex -104.5 -2 0
      vertex -104.5 -2 9
    endloop
  endfacet
  facet normal 0 1 -0
    outer loop
      vertex 99.8139 6.99013 0
      vertex -99.8139 6.99013 9
      vertex 99.8139 6.99013 9
    endloop
  endfacet
  facet normal 0 1 0
    outer loop
      vertex -99.8139 6.99013 9
      vertex 99.8139 6.99013 0
      vertex -99.8139 6.99013 0
    endloop
  endfacet
  facet normal 0 -1 0
    outer loop
      vertex -99.8139 -6.99013 0
      vertex 99.8139 -6.99013 9
      vertex -99.8139 -6.99013 9
    endloop
  endfacet
  facet normal 0 -1 -0
    outer loop
      vertex 99.8139 -6.99013 9
      vertex -99.8139 -6.99013 0
      vertex 99.8139 -6.99013 0
    endloop
  endfacet
  facet normal -0.684327 -0.729176 0
    outer loop
      vertex -103.145 -5.42274 0
      vertex -102.687 -5.85257 9
      vertex -103.145 -5.42274 9
    endloop
  endfacet
  facet normal -0.684327 -0.729176 -0
    outer loop
      vertex -102.687 -5.85257 9
      vertex -103.145 -5.42274 0
      vertex -102.687 -5.85257 0
    endloop
  endfacet
  facet normal 0.998069 -0.0621135 0
    outer loop
      vertex 104.461 -2.62667 9
      vertex 104.5 -2 0
      vertex 104.5 -2 9
    endloop
  endfacet
  facet normal 0.998069 -0.0621135 0
    outer loop
      vertex 104.5 -2 0
      vertex 104.461 -2.62667 9
      vertex 104.461 -2.62667 0
    endloop
  endfacet
  facet normal 0.125293 -0.99212 0
    outer loop
      vertex 99.8139 -6.99013 0
      vertex 100.437 -6.91144 9
      vertex 99.8139 -6.99013 9
    endloop
  endfacet
  facet normal 0.125293 -0.99212 0
    outer loop
      vertex 100.437 -6.91144 9
      vertex 99.8139 -6.99013 0
      vertex 100.437 -6.91144 0
    endloop
  endfacet
  facet normal 0 0 1
    outer loop
      vertex 100.522 1.1964 9
      vertex 104.5 2 9
      vertex 104.461 2.62667 9
    endloop
  endfacet
  facet normal 0 0 1
    outer loop
      vertex 104.5 2 9
      vertex 100.75 0 9
      vertex 104.5 -2 9
    endloop
  endfacet
  facet normal 0 0 1
    outer loop
      vertex 100.348 1.5657 9
      vertex 104.461 2.62667 9
      vertex 104.343 3.24345 9
    endloop
  endfacet
  facet normal -0 0 1
    outer loop
      vertex 100.724 -0.407332 9
      vertex 104.5 -2 9
      vertex 100.75 0 9
    endloop
  endfacet
  facet normal 0 0 1
    outer loop
      vertex 100.348 1.5657 9
      vertex 104.343 3.24345 9
      vertex 104.149 3.84062 9
    endloop
  endfacet
  facet normal -0 0 1
    outer loop
      vertex 100.648 -0.808242 9
      vertex 104.5 -2 9
      vertex 100.724 -0.407332 9
    endloop
  endfacet
  facet normal 0 0 1
    outer loop
      vertex 100.129 1.9103 9
      vertex 104.149 3.84062 9
      vertex 103.882 4.40877 9
    endloop
  endfacet
  facet normal -0 0 1
    outer loop
      vertex 100.522 -1.1964 9
      vertex 104.5 -2 9
      vertex 100.648 -0.808242 9
    endloop
  endfacet
  facet normal 0 0 1
    outer loop
      vertex 100.129 1.9103 9
      vertex 103.882 4.40877 9
      vertex 103.545 4.93893 9
    endloop
  endfacet
  facet normal 0 0 1
    outer loop
      vertex 104.5 -2 9
      vertex 100.522 -1.1964 9
      vertex 104.461 -2.62667 9
    endloop
  endfacet
  facet normal 0 0 1
    outer loop
      vertex 99.8691 2.22478 9
      vertex 103.545 4.93893 9
      vertex 103.145 5.42274 9
    endloop
  endfacet
  facet normal -0 0 1
    outer loop
      vertex 100.348 -1.5657 9
      vertex 104.461 -2.62667 9
      vertex 100.522 -1.1964 9
    endloop
  endfacet
  facet normal 0 0 1
    outer loop
      vertex 99.8691 2.22478 9
      vertex 103.145 5.42274 9
      vertex 102.687 5.85257 9
    endloop
  endfacet
  facet normal 0 0 1
    outer loop
      vertex 104.461 -2.62667 9
      vertex 100.348 -1.5657 9
      vertex 104.343 -3.24345 9
    endloop
  endfacet
  facet normal 0 0 1
    outer loop
      vertex 99.5716 2.50417 9
      vertex 102.687 5.85257 9
      vertex 102.179 6.22164 9
    endloop
  endfacet
  facet normal 0 0 1
    outer loop
      vertex 104.343 -3.24345 9
      vertex 100.348 -1.5657 9
      vertex 104.149 -3.84062 9
    endloop
  endfacet
  facet normal 0 0 1
    outer loop
      vertex 99.5716 2.50417 9
      vertex 102.179 6.22164 9
      vertex 101.629 6.52413 9
    endloop
  endfacet
  facet normal -0 0 1
    outer loop
      vertex 100.129 -1.9103 9
      vertex 104.149 -3.84062 9
      vertex 100.348 -1.5657 9
    endloop
  endfacet
  facet normal 0 0 1
    outer loop
      vertex 99.2414 2.74407 9
      vertex 101.629 6.52413 9
      vertex 101.045 6.75528 9
    endloop
  endfacet
  facet normal 0 0 1
    outer loop
      vertex 104.149 -3.84062 9
      vertex 100.129 -1.9103 9
      vertex 103.882 -4.40877 9
    endloop
  endfacet
  facet normal 0 0 1
    outer loop
      vertex 103.882 -4.40877 9
      vertex 100.129 -1.9103 9
      vertex 103.545 -4.93893 9
    endloop
  endfacet
  facet normal 0 0 1
    outer loop
      vertex 104.5 2 9
      vertex 100.724 0.407332 9
      vertex 100.75 0 9
    endloop
  endfacet
  facet normal 0 0 1
    outer loop
      vertex 104.5 2 9
      vertex 100.648 0.808242 9
      vertex 100.724 0.407332 9
    endloop
  endfacet
  facet normal 0 0 1
    outer loop
      vertex 104.5 2 9
      vertex 100.522 1.1964 9
      vertex 100.648 0.808242 9
    endloop
  endfacet
  facet normal 0 0 1
    outer loop
      vertex 99.2414 2.74407 9
      vertex 101.045 6.75528 9
      vertex 100.437 6.91144 9
    endloop
  endfacet
  facet normal 0 0 1
    outer loop
      vertex 104.461 2.62667 9
      vertex 100.348 1.5657 9
      vertex 100.522 1.1964 9
    endloop
  endfacet
  facet normal 0 0 1
    outer loop
      vertex 104.149 3.84062 9
      vertex 100.129 1.9103 9
      vertex 100.348 1.5657 9
    endloop
  endfacet
  facet normal 0 0 1
    outer loop
      vertex 103.545 4.93893 9
      vertex 99.8691 2.22478 9
      vertex 100.129 1.9103 9
    endloop
  endfacet
  facet normal 0 0 1
    outer loop
      vertex 98.8838 2.94069 9
      vertex 100.437 6.91144 9
      vertex 99.8139 6.99013 9
    endloop
  endfacet
  facet normal 0 0 1
    outer loop
      vertex 102.687 5.85257 9
      vertex 99.5716 2.50417 9
      vertex 99.8691 2.22478 9
    endloop
  endfacet
  facet normal 0 0 1
    outer loop
      vertex 101.629 6.52413 9
      vertex 99.2414 2.74407 9
      vertex 99.5716 2.50417 9
    endloop
  endfacet
  facet normal 0 0 1
    outer loop
      vertex 100.437 6.91144 9
      vertex 98.8838 2.94069 9
      vertex 99.2414 2.74407 9
    endloop
  endfacet
  facet normal 0 0 1
    outer loop
      vertex 99.8139 6.99013 9
      vertex 98.5043 3.09093 9
      vertex 98.8838 2.94069 9
    endloop
  endfacet
  facet normal 0 0 1
    outer loop
      vertex 99.8139 6.99013 9
      vertex 98.109 3.19243 9
      vertex 98.5043 3.09093 9
    endloop
  endfacet
  facet normal 0 0 1
    outer loop
      vertex 99.8139 6.99013 9
      vertex 97.7041 3.24359 9
      vertex 98.109 3.19243 9
    endloop
  endfacet
  facet normal 0 0 1
    outer loop
      vertex 99.8139 6.99013 9
      vertex 97.2959 3.24359 9
      vertex 97.7041 3.24359 9
    endloop
  endfacet
  facet normal 0 0 1
    outer loop
      vertex 99.8139 6.99013 9
      vertex 96.891 3.19243 9
      vertex 97.2959 3.24359 9
    endloop
  endfacet
  facet normal 0 0 1
    outer loop
      vertex 99.8139 6.99013 9
      vertex 96.4957 3.09093 9
      vertex 96.891 3.19243 9
    endloop
  endfacet
  facet normal 0 0 1
    outer loop
      vertex 99.8139 6.99013 9
      vertex 96.1162 2.94069 9
      vertex 96.4957 3.09093 9
    endloop
  endfacet
  facet normal 0 0 1
    outer loop
      vertex 99.8139 6.99013 9
      vertex 95.7586 2.74407 9
      vertex 96.1162 2.94069 9
    endloop
  endfacet
  facet normal 0 0 1
    outer loop
      vertex 99.8139 6.99013 9
      vertex 95.4284 2.50417 9
      vertex 95.7586 2.74407 9
    endloop
  endfacet
  facet normal 0 0 1
    outer loop
      vertex 99.8139 6.99013 9
      vertex 95.1309 2.22478 9
      vertex 95.4284 2.50417 9
    endloop
  endfacet
  facet normal 0 0 1
    outer loop
      vertex 94.2756 0.407332 9
      vertex -94.25 0 9
      vertex 94.25 0 9
    endloop
  endfacet
  facet normal 0 0 1
    outer loop
      vertex -94.2756 0.407332 9
      vertex 94.2756 0.407332 9
      vertex 94.3521 0.808242 9
    endloop
  endfacet
  facet normal 0 0 1
    outer loop
      vertex -94.3521 0.808242 9
      vertex 94.3521 0.808242 9
      vertex 94.4782 1.1964 9
    endloop
  endfacet
  facet normal 0 0 1
    outer loop
      vertex -94.4782 1.1964 9
      vertex 94.4782 1.1964 9
      vertex 94.652 1.5657 9
    endloop
  endfacet
  facet normal 0 0 1
    outer loop
      vertex -94.652 1.5657 9
      vertex 94.652 1.5657 9
      vertex 94.8707 1.9103 9
    endloop
  endfacet
  facet normal 0 0 1
    outer loop
      vertex -94.8707 1.9103 9
      vertex 94.8707 1.9103 9
      vertex 95.1309 2.22478 9
    endloop
  endfacet
  facet normal 0 0 1
    outer loop
      vertex -95.1309 2.22478 9
      vertex 95.1309 2.22478 9
      vertex 99.8139 6.99013 9
    endloop
  endfacet
  facet normal 0 0 1
    outer loop
      vertex 94.2756 0.407332 9
      vertex -94.2756 0.407332 9
      vertex -94.25 0 9
    endloop
  endfacet
  facet normal 0 0 1
    outer loop
      vertex 94.3521 0.808242 9
      vertex -94.3521 0.808242 9
      vertex -94.2756 0.407332 9
    endloop
  endfacet
  facet normal 0 0 1
    outer loop
      vertex 94.4782 1.1964 9
      vertex -94.4782 1.1964 9
      vertex -94.3521 0.808242 9
    endloop
  endfacet
  facet normal 0 0 1
    outer loop
      vertex 94.652 1.5657 9
      vertex -94.652 1.5657 9
      vertex -94.4782 1.1964 9
    endloop
  endfacet
  facet normal 0 0 1
    outer loop
      vertex 94.8707 1.9103 9
      vertex -94.8707 1.9103 9
      vertex -94.652 1.5657 9
    endloop
  endfacet
  facet normal 0 0 1
    outer loop
      vertex 95.1309 2.22478 9
      vertex -95.1309 2.22478 9
      vertex -94.8707 1.9103 9
    endloop
  endfacet
  facet normal -0 0 1
    outer loop
      vertex -99.8139 6.99013 9
      vertex -95.1309 2.22478 9
      vertex 99.8139 6.99013 9
    endloop
  endfacet
  facet normal 0 0 1
    outer loop
      vertex -95.1309 2.22478 9
      vertex -99.8139 6.99013 9
      vertex -95.4284 2.50417 9
    endloop
  endfacet
  facet normal 0 0 1
    outer loop
      vertex -95.4284 2.50417 9
      vertex -99.8139 6.99013 9
      vertex -95.7586 2.74407 9
    endloop
  endfacet
  facet normal 0 0 1
    outer loop
      vertex -95.7586 2.74407 9
      vertex -99.8139 6.99013 9
      vertex -96.1162 2.94069 9
    endloop
  endfacet
  facet normal 0 0 1
    outer loop
      vertex -96.1162 2.94069 9
      vertex -99.8139 6.99013 9
      vertex -96.4957 3.09093 9
    endloop
  endfacet
  facet normal 0 0 1
    outer loop
      vertex -96.4957 3.09093 9
      vertex -99.8139 6.99013 9
      vertex -96.891 3.19243 9
    endloop
  endfacet
  facet normal 0 0 1
    outer loop
      vertex -96.891 3.19243 9
      vertex -99.8139 6.99013 9
      vertex -97.2959 3.24359 9
    endloop
  endfacet
  facet normal 0 0 1
    outer loop
      vertex -97.2959 3.24359 9
      vertex -99.8139 6.99013 9
      vertex -97.7041 3.24359 9
    endloop
  endfacet
  facet normal 0 0 1
    outer loop
      vertex -99.8139 6.99013 9
      vertex -98.109 3.19243 9
      vertex -97.7041 3.24359 9
    endloop
  endfacet
  facet normal 0 0 1
    outer loop
      vertex -99.8139 6.99013 9
      vertex -98.5043 3.09093 9
      vertex -98.109 3.19243 9
    endloop
  endfacet
  facet normal 0 0 1
    outer loop
      vertex -99.8139 6.99013 9
      vertex -98.8838 2.94069 9
      vertex -98.5043 3.09093 9
    endloop
  endfacet
  facet normal -0 0 1
    outer loop
      vertex -100.437 6.91144 9
      vertex -98.8838 2.94069 9
      vertex -99.8139 6.99013 9
    endloop
  endfacet
  facet normal 0 0 1
    outer loop
      vertex -98.8838 2.94069 9
      vertex -100.437 6.91144 9
      vertex -99.2414 2.74407 9
    endloop
  endfacet
  facet normal -0 0 1
    outer loop
      vertex -101.045 6.75528 9
      vertex -99.2414 2.74407 9
      vertex -100.437 6.91144 9
    endloop
  endfacet
  facet normal -0 0 1
    outer loop
      vertex -101.629 6.52413 9
      vertex -99.2414 2.74407 9
      vertex -101.045 6.75528 9
    endloop
  endfacet
  facet normal 0 0 1
    outer loop
      vertex -99.2414 2.74407 9
      vertex -101.629 6.52413 9
      vertex -99.5716 2.50417 9
    endloop
  endfacet
  facet normal -0 0 1
    outer loop
      vertex -102.179 6.22164 9
      vertex -99.5716 2.50417 9
      vertex -101.629 6.52413 9
    endloop
  endfacet
  facet normal -0 0 1
    outer loop
      vertex -102.687 5.85257 9
      vertex -99.5716 2.50417 9
      vertex -102.179 6.22164 9
    endloop
  endfacet
  facet normal 0 0 1
    outer loop
      vertex -99.5716 2.50417 9
      vertex -102.687 5.85257 9
      vertex -99.8691 2.22478 9
    endloop
  endfacet
  facet normal -0 0 1
    outer loop
      vertex -103.145 5.42274 9
      vertex -99.8691 2.22478 9
      vertex -102.687 5.85257 9
    endloop
  endfacet
  facet normal -0 0 1
    outer loop
      vertex -103.545 4.93893 9
      vertex -99.8691 2.22478 9
      vertex -103.145 5.42274 9
    endloop
  endfacet
  facet normal 0 0 1
    outer loop
      vertex -99.8691 2.22478 9
      vertex -103.545 4.93893 9
      vertex -100.129 1.9103 9
    endloop
  endfacet
  facet normal -0 0 1
    outer loop
      vertex 99.8691 -2.22478 9
      vertex 103.545 -4.93893 9
      vertex 100.129 -1.9103 9
    endloop
  endfacet
  facet normal 0 0 1
    outer loop
      vertex 103.545 -4.93893 9
      vertex 99.8691 -2.22478 9
      vertex 103.145 -5.42274 9
    endloop
  endfacet
  facet normal 0 0 1
    outer loop
      vertex 103.145 -5.42274 9
      vertex 99.8691 -2.22478 9
      vertex 102.687 -5.85257 9
    endloop
  endfacet
  facet normal -0 0 1
    outer loop
      vertex 99.5716 -2.50417 9
      vertex 102.687 -5.85257 9
      vertex 99.8691 -2.22478 9
    endloop
  endfacet
  facet normal 0 0 1
    outer loop
      vertex 102.687 -5.85257 9
      vertex 99.5716 -2.50417 9
      vertex 102.179 -6.22164 9
    endloop
  endfacet
  facet normal 0 0 1
    outer loop
      vertex 102.179 -6.22164 9
      vertex 99.5716 -2.50417 9
      vertex 101.629 -6.52413 9
    endloop
  endfacet
  facet normal -0 0 1
    outer loop
      vertex 99.2414 -2.74407 9
      vertex 101.629 -6.52413 9
      vertex 99.5716 -2.50417 9
    endloop
  endfacet
  facet normal 0 0 1
    outer loop
      vertex 101.629 -6.52413 9
      vertex 99.2414 -2.74407 9
      vertex 101.045 -6.75528 9
    endloop
  endfacet
  facet normal 0 0 1
    outer loop
      vertex 101.045 -6.75528 9
      vertex 99.2414 -2.74407 9
      vertex 100.437 -6.91144 9
    endloop
  endfacet
  facet normal -0 0 1
    outer loop
      vertex 98.8838 -2.94069 9
      vertex 100.437 -6.91144 9
      vertex 99.2414 -2.74407 9
    endloop
  endfacet
  facet normal 0 0 1
    outer loop
      vertex 100.437 -6.91144 9
      vertex 98.8838 -2.94069 9
      vertex 99.8139 -6.99013 9
    endloop
  endfacet
  facet normal -0 0 1
    outer loop
      vertex 98.5043 -3.09093 9
      vertex 99.8139 -6.99013 9
      vertex 98.8838 -2.94069 9
    endloop
  endfacet
  facet normal -0 0 1
    outer loop
      vertex 98.109 -3.19243 9
      vertex 99.8139 -6.99013 9
      vertex 98.5043 -3.09093 9
    endloop
  endfacet
  facet normal -0 0 1
    outer loop
      vertex 97.7041 -3.24359 9
      vertex 99.8139 -6.99013 9
      vertex 98.109 -3.19243 9
    endloop
  endfacet
  facet normal -0 0 1
    outer loop
      vertex 97.2959 -3.24359 9
      vertex 99.8139 -6.99013 9
      vertex 97.7041 -3.24359 9
    endloop
  endfacet
  facet normal 0 0 1
    outer loop
      vertex 96.891 -3.19243 9
      vertex 99.8139 -6.99013 9
      vertex 97.2959 -3.24359 9
    endloop
  endfacet
  facet normal 0 0 1
    outer loop
      vertex 96.4957 -3.09093 9
      vertex 99.8139 -6.99013 9
      vertex 96.891 -3.19243 9
    endloop
  endfacet
  facet normal 0 0 1
    outer loop
      vertex 96.1162 -2.94069 9
      vertex 99.8139 -6.99013 9
      vertex 96.4957 -3.09093 9
    endloop
  endfacet
  facet normal 0 0 1
    outer loop
      vertex 95.7586 -2.74407 9
      vertex 99.8139 -6.99013 9
      vertex 96.1162 -2.94069 9
    endloop
  endfacet
  facet normal 0 0 1
    outer loop
      vertex 95.4284 -2.50417 9
      vertex 99.8139 -6.99013 9
      vertex 95.7586 -2.74407 9
    endloop
  endfacet
  facet normal 0 0 1
    outer loop
      vertex 95.1309 -2.22478 9
      vertex 99.8139 -6.99013 9
      vertex 95.4284 -2.50417 9
    endloop
  endfacet
  facet normal -0 0 1
    outer loop
      vertex -94.25 0 9
      vertex 94.2756 -0.407332 9
      vertex 94.25 0 9
    endloop
  endfacet
  facet normal 0 0 1
    outer loop
      vertex -94.2756 -0.407332 9
      vertex 94.2756 -0.407332 9
      vertex -94.25 0 9
    endloop
  endfacet
  facet normal 0 0 1
    outer loop
      vertex 94.2756 -0.407332 9
      vertex -94.2756 -0.407332 9
      vertex 94.3521 -0.808242 9
    endloop
  endfacet
  facet normal 0 0 1
    outer loop
      vertex -94.3521 -0.808242 9
      vertex 94.3521 -0.808242 9
      vertex -94.2756 -0.407332 9
    endloop
  endfacet
  facet normal 0 0 1
    outer loop
      vertex 94.3521 -0.808242 9
      vertex -94.3521 -0.808242 9
      vertex 94.4782 -1.1964 9
    endloop
  endfacet
  facet normal 0 0 1
    outer loop
      vertex -94.4782 -1.1964 9
      vertex 94.4782 -1.1964 9
      vertex -94.3521 -0.808242 9
    endloop
  endfacet
  facet normal 0 0 1
    outer loop
      vertex 94.4782 -1.1964 9
      vertex -94.4782 -1.1964 9
      vertex 94.652 -1.5657 9
    endloop
  endfacet
  facet normal 0 0 1
    outer loop
      vertex -94.652 -1.5657 9
      vertex 94.652 -1.5657 9
      vertex -94.4782 -1.1964 9
    endloop
  endfacet
  facet normal 0 0 1
    outer loop
      vertex 94.652 -1.5657 9
      vertex -94.652 -1.5657 9
      vertex 94.8707 -1.9103 9
    endloop
  endfacet
  facet normal 0 0 1
    outer loop
      vertex -94.8707 -1.9103 9
      vertex 94.8707 -1.9103 9
      vertex -94.652 -1.5657 9
    endloop
  endfacet
  facet normal 0 0 1
    outer loop
      vertex 94.8707 -1.9103 9
      vertex -94.8707 -1.9103 9
      vertex 95.1309 -2.22478 9
    endloop
  endfacet
  facet normal 0 0 1
    outer loop
      vertex -95.1309 -2.22478 9
      vertex 95.1309 -2.22478 9
      vertex -94.8707 -1.9103 9
    endloop
  endfacet
  facet normal 0 0 1
    outer loop
      vertex 95.1309 -2.22478 9
      vertex -95.1309 -2.22478 9
      vertex 99.8139 -6.99013 9
    endloop
  endfacet
  facet normal 0 0 1
    outer loop
      vertex -99.8139 -6.99013 9
      vertex -95.1309 -2.22478 9
      vertex -95.4284 -2.50417 9
    endloop
  endfacet
  facet normal 0 0 1
    outer loop
      vertex -99.8139 -6.99013 9
      vertex -95.4284 -2.50417 9
      vertex -95.7586 -2.74407 9
    endloop
  endfacet
  facet normal 0 0 1
    outer loop
      vertex -99.8139 -6.99013 9
      vertex -95.7586 -2.74407 9
      vertex -96.1162 -2.94069 9
    endloop
  endfacet
  facet normal 0 0 1
    outer loop
      vertex -99.8139 -6.99013 9
      vertex -96.1162 -2.94069 9
      vertex -96.4957 -3.09093 9
    endloop
  endfacet
  facet normal 0 0 1
    outer loop
      vertex -99.8139 -6.99013 9
      vertex -96.4957 -3.09093 9
      vertex -96.891 -3.19243 9
    endloop
  endfacet
  facet normal 0 0 1
    outer loop
      vertex -99.8139 -6.99013 9
      vertex -96.891 -3.19243 9
      vertex -97.2959 -3.24359 9
    endloop
  endfacet
  facet normal 0 0 1
    outer loop
      vertex -99.8139 -6.99013 9
      vertex -97.2959 -3.24359 9
      vertex -97.7041 -3.24359 9
    endloop
  endfacet
  facet normal 0 0 1
    outer loop
      vertex -95.1309 -2.22478 9
      vertex -99.8139 -6.99013 9
      vertex 99.8139 -6.99013 9
    endloop
  endfacet
  facet normal 0 0 1
    outer loop
      vertex -98.109 -3.19243 9
      vertex -99.8139 -6.99013 9
      vertex -97.7041 -3.24359 9
    endloop
  endfacet
  facet normal 0 0 1
    outer loop
      vertex -98.5043 -3.09093 9
      vertex -99.8139 -6.99013 9
      vertex -98.109 -3.19243 9
    endloop
  endfacet
  facet normal 0 0 1
    outer loop
      vertex -98.8838 -2.94069 9
      vertex -99.8139 -6.99013 9
      vertex -98.5043 -3.09093 9
    endloop
  endfacet
  facet normal 0 0 1
    outer loop
      vertex -100.437 -6.91144 9
      vertex -98.8838 -2.94069 9
      vertex -99.2414 -2.74407 9
    endloop
  endfacet
  facet normal 0 0 1
    outer loop
      vertex -101.629 -6.52413 9
      vertex -99.2414 -2.74407 9
      vertex -99.5716 -2.50417 9
    endloop
  endfacet
  facet normal 0 0 1
    outer loop
      vertex -102.687 -5.85257 9
      vertex -99.5716 -2.50417 9
      vertex -99.8691 -2.22478 9
    endloop
  endfacet
  facet normal 0 0 1
    outer loop
      vertex -103.545 -4.93893 9
      vertex -99.8691 -2.22478 9
      vertex -100.129 -1.9103 9
    endloop
  endfacet
  facet normal 0 0 1
    outer loop
      vertex -104.149 -3.84062 9
      vertex -100.129 -1.9103 9
      vertex -100.348 -1.5657 9
    endloop
  endfacet
  facet normal 0 0 1
    outer loop
      vertex -98.8838 -2.94069 9
      vertex -100.437 -6.91144 9
      vertex -99.8139 -6.99013 9
    endloop
  endfacet
  facet normal 0 0 1
    outer loop
      vertex -104.461 -2.62667 9
      vertex -100.348 -1.5657 9
      vertex -100.522 -1.1964 9
    endloop
  endfacet
  facet normal 0 0 1
    outer loop
      vertex -104.5 -2 9
      vertex -100.522 -1.1964 9
      vertex -100.648 -0.808242 9
    endloop
  endfacet
  facet normal 0 0 1
    outer loop
      vertex -104.5 -2 9
      vertex -100.648 -0.808242 9
      vertex -100.724 -0.407332 9
    endloop
  endfacet
  facet normal 0 0 1
    outer loop
      vertex -104.5 -2 9
      vertex -100.724 -0.407332 9
      vertex -100.75 0 9
    endloop
  endfacet
  facet normal 0 0 1
    outer loop
      vertex -99.2414 -2.74407 9
      vertex -101.045 -6.75528 9
      vertex -100.437 -6.91144 9
    endloop
  endfacet
  facet normal -0 0 1
    outer loop
      vertex -103.882 4.40877 9
      vertex -100.129 1.9103 9
      vertex -103.545 4.93893 9
    endloop
  endfacet
  facet normal -0 0 1
    outer loop
      vertex -104.149 3.84062 9
      vertex -100.129 1.9103 9
      vertex -103.882 4.40877 9
    endloop
  endfacet
  facet normal 0 0 1
    outer loop
      vertex -104.5 -2 9
      vertex -100.75 0 9
      vertex -104.5 2 9
    endloop
  endfacet
  facet normal 0 0 1
    outer loop
      vertex -100.129 1.9103 9
      vertex -104.149 3.84062 9
      vertex -100.348 1.5657 9
    endloop
  endfacet
  facet normal 0 0 1
    outer loop
      vertex -100.522 -1.1964 9
      vertex -104.5 -2 9
      vertex -104.461 -2.62667 9
    endloop
  endfacet
  facet normal -0 0 1
    outer loop
      vertex -104.343 3.24345 9
      vertex -100.348 1.5657 9
      vertex -104.149 3.84062 9
    endloop
  endfacet
  facet normal 0 0 1
    outer loop
      vertex -99.2414 -2.74407 9
      vertex -101.629 -6.52413 9
      vertex -101.045 -6.75528 9
    endloop
  endfacet
  facet normal -0 0 1
    outer loop
      vertex -104.461 2.62667 9
      vertex -100.348 1.5657 9
      vertex -104.343 3.24345 9
    endloop
  endfacet
  facet normal 0 0 1
    outer loop
      vertex -99.5716 -2.50417 9
      vertex -102.179 -6.22164 9
      vertex -101.629 -6.52413 9
    endloop
  endfacet
  facet normal 0 0 1
    outer loop
      vertex -100.348 1.5657 9
      vertex -104.461 2.62667 9
      vertex -100.522 1.1964 9
    endloop
  endfacet
  facet normal 0 0 1
    outer loop
      vertex -99.5716 -2.50417 9
      vertex -102.687 -5.85257 9
      vertex -102.179 -6.22164 9
    endloop
  endfacet
  facet normal -0 0 1
    outer loop
      vertex -104.5 2 9
      vertex -100.522 1.1964 9
      vertex -104.461 2.62667 9
    endloop
  endfacet
  facet normal 0 0 1
    outer loop
      vertex -99.8691 -2.22478 9
      vertex -103.145 -5.42274 9
      vertex -102.687 -5.85257 9
    endloop
  endfacet
  facet normal 0 0 1
    outer loop
      vertex -100.522 1.1964 9
      vertex -104.5 2 9
      vertex -100.648 0.808242 9
    endloop
  endfacet
  facet normal 0 0 1
    outer loop
      vertex -99.8691 -2.22478 9
      vertex -103.545 -4.93893 9
      vertex -103.145 -5.42274 9
    endloop
  endfacet
  facet normal 0 0 1
    outer loop
      vertex -100.648 0.808242 9
      vertex -104.5 2 9
      vertex -100.724 0.407332 9
    endloop
  endfacet
  facet normal 0 0 1
    outer loop
      vertex -100.129 -1.9103 9
      vertex -103.882 -4.40877 9
      vertex -103.545 -4.93893 9
    endloop
  endfacet
  facet normal 0 0 1
    outer loop
      vertex -100.724 0.407332 9
      vertex -104.5 2 9
      vertex -100.75 0 9
    endloop
  endfacet
  facet normal 0 0 1
    outer loop
      vertex -100.129 -1.9103 9
      vertex -104.149 -3.84062 9
      vertex -103.882 -4.40877 9
    endloop
  endfacet
  facet normal 0 0 1
    outer loop
      vertex -100.348 -1.5657 9
      vertex -104.343 -3.24345 9
      vertex -104.149 -3.84062 9
    endloop
  endfacet
  facet normal 0 0 1
    outer loop
      vertex -100.348 -1.5657 9
      vertex -104.461 -2.62667 9
      vertex -104.343 -3.24345 9
    endloop
  endfacet
  facet normal -0.951072 -0.30897 0
    outer loop
      vertex -104.149 -3.84062 0
      vertex -104.343 -3.24345 9
      vertex -104.343 -3.24345 0
    endloop
  endfacet
  facet normal -0.951072 -0.30897 0
    outer loop
      vertex -104.343 -3.24345 9
      vertex -104.149 -3.84062 0
      vertex -104.149 -3.84062 9
    endloop
  endfacet
  facet normal 0 0 -1
    outer loop
      vertex 100.522 -1.1964 0
      vertex 104.5 -2 0
      vertex 104.461 -2.62667 0
    endloop
  endfacet
  facet normal 0 0 -1
    outer loop
      vertex 104.5 -2 0
      vertex 100.75 0 0
      vertex 104.5 2 0
    endloop
  endfacet
  facet normal 0 0 -1
    outer loop
      vertex 100.348 -1.5657 0
      vertex 104.461 -2.62667 0
      vertex 104.343 -3.24345 0
    endloop
  endfacet
  facet normal 0 0 -1
    outer loop
      vertex 100.724 0.407332 0
      vertex 104.5 2 0
      vertex 100.75 0 0
    endloop
  endfacet
  facet normal 0 0 -1
    outer loop
      vertex 100.348 -1.5657 0
      vertex 104.343 -3.24345 0
      vertex 104.149 -3.84062 0
    endloop
  endfacet
  facet normal 0 0 -1
    outer loop
      vertex 100.648 0.808242 0
      vertex 104.5 2 0
      vertex 100.724 0.407332 0
    endloop
  endfacet
  facet normal 0 0 -1
    outer loop
      vertex 100.129 -1.9103 0
      vertex 104.149 -3.84062 0
      vertex 103.882 -4.40877 0
    endloop
  endfacet
  facet normal 0 0 -1
    outer loop
      vertex 100.522 1.1964 0
      vertex 104.5 2 0
      vertex 100.648 0.808242 0
    endloop
  endfacet
  facet normal 0 0 -1
    outer loop
      vertex 100.129 -1.9103 0
      vertex 103.882 -4.40877 0
      vertex 103.545 -4.93893 0
    endloop
  endfacet
  facet normal -0 0 -1
    outer loop
      vertex 104.5 2 0
      vertex 100.522 1.1964 0
      vertex 104.461 2.62667 0
    endloop
  endfacet
  facet normal 0 0 -1
    outer loop
      vertex 99.8691 -2.22478 0
      vertex 103.545 -4.93893 0
      vertex 103.145 -5.42274 0
    endloop
  endfacet
  facet normal 0 0 -1
    outer loop
      vertex 100.348 1.5657 0
      vertex 104.461 2.62667 0
      vertex 100.522 1.1964 0
    endloop
  endfacet
  facet normal 0 0 -1
    outer loop
      vertex 99.8691 -2.22478 0
      vertex 103.145 -5.42274 0
      vertex 102.687 -5.85257 0
    endloop
  endfacet
  facet normal -0 0 -1
    outer loop
      vertex 104.461 2.62667 0
      vertex 100.348 1.5657 0
      vertex 104.343 3.24345 0
    endloop
  endfacet
  facet normal 0 0 -1
    outer loop
      vertex 99.5716 -2.50417 0
      vertex 102.687 -5.85257 0
      vertex 102.179 -6.22164 0
    endloop
  endfacet
  facet normal -0 0 -1
    outer loop
      vertex 104.343 3.24345 0
      vertex 100.348 1.5657 0
      vertex 104.149 3.84062 0
    endloop
  endfacet
  facet normal 0 0 -1
    outer loop
      vertex 99.5716 -2.50417 0
      vertex 102.179 -6.22164 0
      vertex 101.629 -6.52413 0
    endloop
  endfacet
  facet normal 0 0 -1
    outer loop
      vertex 100.129 1.9103 0
      vertex 104.149 3.84062 0
      vertex 100.348 1.5657 0
    endloop
  endfacet
  facet normal 0 0 -1
    outer loop
      vertex 99.2414 -2.74407 0
      vertex 101.629 -6.52413 0
      vertex 101.045 -6.75528 0
    endloop
  endfacet
  facet normal -0 0 -1
    outer loop
      vertex 104.149 3.84062 0
      vertex 100.129 1.9103 0
      vertex 103.882 4.40877 0
    endloop
  endfacet
  facet normal -0 0 -1
    outer loop
      vertex 103.882 4.40877 0
      vertex 100.129 1.9103 0
      vertex 103.545 4.93893 0
    endloop
  endfacet
  facet normal 0 0 -1
    outer loop
      vertex 104.5 -2 0
      vertex 100.724 -0.407332 0
      vertex 100.75 0 0
    endloop
  endfacet
  facet normal 0 0 -1
    outer loop
      vertex 104.5 -2 0
      vertex 100.648 -0.808242 0
      vertex 100.724 -0.407332 0
    endloop
  endfacet
  facet normal 0 0 -1
    outer loop
      vertex 104.5 -2 0
      vertex 100.522 -1.1964 0
      vertex 100.648 -0.808242 0
    endloop
  endfacet
  facet normal 0 0 -1
    outer loop
      vertex 99.2414 -2.74407 0
      vertex 101.045 -6.75528 0
      vertex 100.437 -6.91144 0
    endloop
  endfacet
  facet normal 0 0 -1
    outer loop
      vertex 104.461 -2.62667 0
      vertex 100.348 -1.5657 0
      vertex 100.522 -1.1964 0
    endloop
  endfacet
  facet normal 0 0 -1
    outer loop
      vertex 104.149 -3.84062 0
      vertex 100.129 -1.9103 0
      vertex 100.348 -1.5657 0
    endloop
  endfacet
  facet normal 0 0 -1
    outer loop
      vertex 103.545 -4.93893 0
      vertex 99.8691 -2.22478 0
      vertex 100.129 -1.9103 0
    endloop
  endfacet
  facet normal 0 0 -1
    outer loop
      vertex 98.8838 -2.94069 0
      vertex 100.437 -6.91144 0
      vertex 99.8139 -6.99013 0
    endloop
  endfacet
  facet normal 0 0 -1
    outer loop
      vertex 102.687 -5.85257 0
      vertex 99.5716 -2.50417 0
      vertex 99.8691 -2.22478 0
    endloop
  endfacet
  facet normal 0 0 -1
    outer loop
      vertex 101.629 -6.52413 0
      vertex 99.2414 -2.74407 0
      vertex 99.5716 -2.50417 0
    endloop
  endfacet
  facet normal 0 0 -1
    outer loop
      vertex 100.437 -6.91144 0
      vertex 98.8838 -2.94069 0
      vertex 99.2414 -2.74407 0
    endloop
  endfacet
  facet normal 0 0 -1
    outer loop
      vertex 99.8139 -6.99013 0
      vertex 98.5043 -3.09093 0
      vertex 98.8838 -2.94069 0
    endloop
  endfacet
  facet normal 0 0 -1
    outer loop
      vertex 99.8139 -6.99013 0
      vertex 98.109 -3.19243 0
      vertex 98.5043 -3.09093 0
    endloop
  endfacet
  facet normal 0 0 -1
    outer loop
      vertex 99.8139 -6.99013 0
      vertex 97.7041 -3.24359 0
      vertex 98.109 -3.19243 0
    endloop
  endfacet
  facet normal 0 0 -1
    outer loop
      vertex 99.8139 -6.99013 0
      vertex 97.2959 -3.24359 0
      vertex 97.7041 -3.24359 0
    endloop
  endfacet
  facet normal 0 0 -1
    outer loop
      vertex 99.8139 -6.99013 0
      vertex 96.891 -3.19243 0
      vertex 97.2959 -3.24359 0
    endloop
  endfacet
  facet normal 0 0 -1
    outer loop
      vertex 99.8139 -6.99013 0
      vertex 96.4957 -3.09093 0
      vertex 96.891 -3.19243 0
    endloop
  endfacet
  facet normal 0 0 -1
    outer loop
      vertex 99.8139 -6.99013 0
      vertex 96.1162 -2.94069 0
      vertex 96.4957 -3.09093 0
    endloop
  endfacet
  facet normal 0 0 -1
    outer loop
      vertex 99.8139 -6.99013 0
      vertex 95.7586 -2.74407 0
      vertex 96.1162 -2.94069 0
    endloop
  endfacet
  facet normal 0 0 -1
    outer loop
      vertex 99.8139 -6.99013 0
      vertex 95.4284 -2.50417 0
      vertex 95.7586 -2.74407 0
    endloop
  endfacet
  facet normal 0 0 -1
    outer loop
      vertex 99.8139 -6.99013 0
      vertex 95.1309 -2.22478 0
      vertex 95.4284 -2.50417 0
    endloop
  endfacet
  facet normal 0 0 -1
    outer loop
      vertex 94.2756 -0.407332 0
      vertex -94.25 0 0
      vertex 94.25 0 0
    endloop
  endfacet
  facet normal 0 0 -1
    outer loop
      vertex -94.2756 -0.407332 0
      vertex 94.2756 -0.407332 0
      vertex 94.3521 -0.808242 0
    endloop
  endfacet
  facet normal 0 0 -1
    outer loop
      vertex -94.3521 -0.808242 0
      vertex 94.3521 -0.808242 0
      vertex 94.4782 -1.1964 0
    endloop
  endfacet
  facet normal 0 0 -1
    outer loop
      vertex -94.4782 -1.1964 0
      vertex 94.4782 -1.1964 0
      vertex 94.652 -1.5657 0
    endloop
  endfacet
  facet normal 0 0 -1
    outer loop
      vertex -94.652 -1.5657 0
      vertex 94.652 -1.5657 0
      vertex 94.8707 -1.9103 0
    endloop
  endfacet
  facet normal 0 0 -1
    outer loop
      vertex -94.8707 -1.9103 0
      vertex 94.8707 -1.9103 0
      vertex 95.1309 -2.22478 0
    endloop
  endfacet
  facet normal 0 0 -1
    outer loop
      vertex -95.1309 -2.22478 0
      vertex 95.1309 -2.22478 0
      vertex 99.8139 -6.99013 0
    endloop
  endfacet
  facet normal 0 0 -1
    outer loop
      vertex 94.2756 -0.407332 0
      vertex -94.2756 -0.407332 0
      vertex -94.25 0 0
    endloop
  endfacet
  facet normal 0 0 -1
    outer loop
      vertex 94.3521 -0.808242 0
      vertex -94.3521 -0.808242 0
      vertex -94.2756 -0.407332 0
    endloop
  endfacet
  facet normal 0 0 -1
    outer loop
      vertex 94.4782 -1.1964 0
      vertex -94.4782 -1.1964 0
      vertex -94.3521 -0.808242 0
    endloop
  endfacet
  facet normal 0 0 -1
    outer loop
      vertex 94.652 -1.5657 0
      vertex -94.652 -1.5657 0
      vertex -94.4782 -1.1964 0
    endloop
  endfacet
  facet normal 0 0 -1
    outer loop
      vertex 94.8707 -1.9103 0
      vertex -94.8707 -1.9103 0
      vertex -94.652 -1.5657 0
    endloop
  endfacet
  facet normal 0 0 -1
    outer loop
      vertex 95.1309 -2.22478 0
      vertex -95.1309 -2.22478 0
      vertex -94.8707 -1.9103 0
    endloop
  endfacet
  facet normal 0 0 -1
    outer loop
      vertex -99.8139 -6.99013 0
      vertex -95.1309 -2.22478 0
      vertex 99.8139 -6.99013 0
    endloop
  endfacet
  facet normal 0 0 -1
    outer loop
      vertex -95.1309 -2.22478 0
      vertex -99.8139 -6.99013 0
      vertex -95.4284 -2.50417 0
    endloop
  endfacet
  facet normal 0 0 -1
    outer loop
      vertex -95.4284 -2.50417 0
      vertex -99.8139 -6.99013 0
      vertex -95.7586 -2.74407 0
    endloop
  endfacet
  facet normal 0 0 -1
    outer loop
      vertex -95.7586 -2.74407 0
      vertex -99.8139 -6.99013 0
      vertex -96.1162 -2.94069 0
    endloop
  endfacet
  facet normal 0 0 -1
    outer loop
      vertex -96.1162 -2.94069 0
      vertex -99.8139 -6.99013 0
      vertex -96.4957 -3.09093 0
    endloop
  endfacet
  facet normal 0 0 -1
    outer loop
      vertex -96.4957 -3.09093 0
      vertex -99.8139 -6.99013 0
      vertex -96.891 -3.19243 0
    endloop
  endfacet
  facet normal 0 0 -1
    outer loop
      vertex -96.891 -3.19243 0
      vertex -99.8139 -6.99013 0
      vertex -97.2959 -3.24359 0
    endloop
  endfacet
  facet normal -0 0 -1
    outer loop
      vertex -97.2959 -3.24359 0
      vertex -99.8139 -6.99013 0
      vertex -97.7041 -3.24359 0
    endloop
  endfacet
  facet normal 0 0 -1
    outer loop
      vertex -99.8139 -6.99013 0
      vertex -98.109 -3.19243 0
      vertex -97.7041 -3.24359 0
    endloop
  endfacet
  facet normal 0 0 -1
    outer loop
      vertex -99.8139 -6.99013 0
      vertex -98.5043 -3.09093 0
      vertex -98.109 -3.19243 0
    endloop
  endfacet
  facet normal 0 0 -1
    outer loop
      vertex -99.8139 -6.99013 0
      vertex -98.8838 -2.94069 0
      vertex -98.5043 -3.09093 0
    endloop
  endfacet
  facet normal 0 0 -1
    outer loop
      vertex -100.437 -6.91144 0
      vertex -98.8838 -2.94069 0
      vertex -99.8139 -6.99013 0
    endloop
  endfacet
  facet normal -0 0 -1
    outer loop
      vertex -98.8838 -2.94069 0
      vertex -100.437 -6.91144 0
      vertex -99.2414 -2.74407 0
    endloop
  endfacet
  facet normal 0 0 -1
    outer loop
      vertex -101.045 -6.75528 0
      vertex -99.2414 -2.74407 0
      vertex -100.437 -6.91144 0
    endloop
  endfacet
  facet normal 0 0 -1
    outer loop
      vertex -101.629 -6.52413 0
      vertex -99.2414 -2.74407 0
      vertex -101.045 -6.75528 0
    endloop
  endfacet
  facet normal -0 0 -1
    outer loop
      vertex -99.2414 -2.74407 0
      vertex -101.629 -6.52413 0
      vertex -99.5716 -2.50417 0
    endloop
  endfacet
  facet normal 0 0 -1
    outer loop
      vertex -102.179 -6.22164 0
      vertex -99.5716 -2.50417 0
      vertex -101.629 -6.52413 0
    endloop
  endfacet
  facet normal 0 0 -1
    outer loop
      vertex -102.687 -5.85257 0
      vertex -99.5716 -2.50417 0
      vertex -102.179 -6.22164 0
    endloop
  endfacet
  facet normal -0 0 -1
    outer loop
      vertex -99.5716 -2.50417 0
      vertex -102.687 -5.85257 0
      vertex -99.8691 -2.22478 0
    endloop
  endfacet
  facet normal 0 0 -1
    outer loop
      vertex -103.145 -5.42274 0
      vertex -99.8691 -2.22478 0
      vertex -102.687 -5.85257 0
    endloop
  endfacet
  facet normal 0 0 -1
    outer loop
      vertex -103.545 -4.93893 0
      vertex -99.8691 -2.22478 0
      vertex -103.145 -5.42274 0
    endloop
  endfacet
  facet normal -0 0 -1
    outer loop
      vertex -99.8691 -2.22478 0
      vertex -103.545 -4.93893 0
      vertex -100.129 -1.9103 0
    endloop
  endfacet
  facet normal 0 0 -1
    outer loop
      vertex 99.8691 2.22478 0
      vertex 103.545 4.93893 0
      vertex 100.129 1.9103 0
    endloop
  endfacet
  facet normal -0 0 -1
    outer loop
      vertex 103.545 4.93893 0
      vertex 99.8691 2.22478 0
      vertex 103.145 5.42274 0
    endloop
  endfacet
  facet normal -0 0 -1
    outer loop
      vertex 103.145 5.42274 0
      vertex 99.8691 2.22478 0
      vertex 102.687 5.85257 0
    endloop
  endfacet
  facet normal 0 0 -1
    outer loop
      vertex 99.5716 2.50417 0
      vertex 102.687 5.85257 0
      vertex 99.8691 2.22478 0
    endloop
  endfacet
  facet normal -0 0 -1
    outer loop
      vertex 102.687 5.85257 0
      vertex 99.5716 2.50417 0
      vertex 102.179 6.22164 0
    endloop
  endfacet
  facet normal -0 0 -1
    outer loop
      vertex 102.179 6.22164 0
      vertex 99.5716 2.50417 0
      vertex 101.629 6.52413 0
    endloop
  endfacet
  facet normal 0 0 -1
    outer loop
      vertex 99.2414 2.74407 0
      vertex 101.629 6.52413 0
      vertex 99.5716 2.50417 0
    endloop
  endfacet
  facet normal -0 0 -1
    outer loop
      vertex 101.629 6.52413 0
      vertex 99.2414 2.74407 0
      vertex 101.045 6.75528 0
    endloop
  endfacet
  facet normal -0 0 -1
    outer loop
      vertex 101.045 6.75528 0
      vertex 99.2414 2.74407 0
      vertex 100.437 6.91144 0
    endloop
  endfacet
  facet normal 0 0 -1
    outer loop
      vertex 98.8838 2.94069 0
      vertex 100.437 6.91144 0
      vertex 99.2414 2.74407 0
    endloop
  endfacet
  facet normal -0 0 -1
    outer loop
      vertex 100.437 6.91144 0
      vertex 98.8838 2.94069 0
      vertex 99.8139 6.99013 0
    endloop
  endfacet
  facet normal 0 0 -1
    outer loop
      vertex 98.5043 3.09093 0
      vertex 99.8139 6.99013 0
      vertex 98.8838 2.94069 0
    endloop
  endfacet
  facet normal 0 0 -1
    outer loop
      vertex 98.109 3.19243 0
      vertex 99.8139 6.99013 0
      vertex 98.5043 3.09093 0
    endloop
  endfacet
  facet normal 0 0 -1
    outer loop
      vertex 97.7041 3.24359 0
      vertex 99.8139 6.99013 0
      vertex 98.109 3.19243 0
    endloop
  endfacet
  facet normal 0 0 -1
    outer loop
      vertex 97.2959 3.24359 0
      vertex 99.8139 6.99013 0
      vertex 97.7041 3.24359 0
    endloop
  endfacet
  facet normal 0 0 -1
    outer loop
      vertex 96.891 3.19243 0
      vertex 99.8139 6.99013 0
      vertex 97.2959 3.24359 0
    endloop
  endfacet
  facet normal 0 0 -1
    outer loop
      vertex 96.4957 3.09093 0
      vertex 99.8139 6.99013 0
      vertex 96.891 3.19243 0
    endloop
  endfacet
  facet normal 0 0 -1
    outer loop
      vertex 96.1162 2.94069 0
      vertex 99.8139 6.99013 0
      vertex 96.4957 3.09093 0
    endloop
  endfacet
  facet normal 0 0 -1
    outer loop
      vertex 95.7586 2.74407 0
      vertex 99.8139 6.99013 0
      vertex 96.1162 2.94069 0
    endloop
  endfacet
  facet normal 0 0 -1
    outer loop
      vertex 95.4284 2.50417 0
      vertex 99.8139 6.99013 0
      vertex 95.7586 2.74407 0
    endloop
  endfacet
  facet normal 0 0 -1
    outer loop
      vertex 95.1309 2.22478 0
      vertex 99.8139 6.99013 0
      vertex 95.4284 2.50417 0
    endloop
  endfacet
  facet normal 0 0 -1
    outer loop
      vertex -94.25 0 0
      vertex 94.2756 0.407332 0
      vertex 94.25 0 0
    endloop
  endfacet
  facet normal 0 0 -1
    outer loop
      vertex -94.2756 0.407332 0
      vertex 94.2756 0.407332 0
      vertex -94.25 0 0
    endloop
  endfacet
  facet normal 0 0 -1
    outer loop
      vertex 94.2756 0.407332 0
      vertex -94.2756 0.407332 0
      vertex 94.3521 0.808242 0
    endloop
  endfacet
  facet normal 0 0 -1
    outer loop
      vertex -94.3521 0.808242 0
      vertex 94.3521 0.808242 0
      vertex -94.2756 0.407332 0
    endloop
  endfacet
  facet normal 0 0 -1
    outer loop
      vertex 94.3521 0.808242 0
      vertex -94.3521 0.808242 0
      vertex 94.4782 1.1964 0
    endloop
  endfacet
  facet normal 0 0 -1
    outer loop
      vertex -94.4782 1.1964 0
      vertex 94.4782 1.1964 0
      vertex -94.3521 0.808242 0
    endloop
  endfacet
  facet normal 0 0 -1
    outer loop
      vertex 94.4782 1.1964 0
      vertex -94.4782 1.1964 0
      vertex 94.652 1.5657 0
    endloop
  endfacet
  facet normal 0 0 -1
    outer loop
      vertex -94.652 1.5657 0
      vertex 94.652 1.5657 0
      vertex -94.4782 1.1964 0
    endloop
  endfacet
  facet normal 0 0 -1
    outer loop
      vertex 94.652 1.5657 0
      vertex -94.652 1.5657 0
      vertex 94.8707 1.9103 0
    endloop
  endfacet
  facet normal 0 0 -1
    outer loop
      vertex -94.8707 1.9103 0
      vertex 94.8707 1.9103 0
      vertex -94.652 1.5657 0
    endloop
  endfacet
  facet normal 0 0 -1
    outer loop
      vertex 94.8707 1.9103 0
      vertex -94.8707 1.9103 0
      vertex 95.1309 2.22478 0
    endloop
  endfacet
  facet normal 0 0 -1
    outer loop
      vertex -95.1309 2.22478 0
      vertex 95.1309 2.22478 0
      vertex -94.8707 1.9103 0
    endloop
  endfacet
  facet normal 0 0 -1
    outer loop
      vertex 95.1309 2.22478 0
      vertex -95.1309 2.22478 0
      vertex 99.8139 6.99013 0
    endloop
  endfacet
  facet normal 0 0 -1
    outer loop
      vertex -99.8139 6.99013 0
      vertex -95.1309 2.22478 0
      vertex -95.4284 2.50417 0
    endloop
  endfacet
  facet normal 0 0 -1
    outer loop
      vertex -99.8139 6.99013 0
      vertex -95.4284 2.50417 0
      vertex -95.7586 2.74407 0
    endloop
  endfacet
  facet normal 0 0 -1
    outer loop
      vertex -99.8139 6.99013 0
      vertex -95.7586 2.74407 0
      vertex -96.1162 2.94069 0
    endloop
  endfacet
  facet normal 0 0 -1
    outer loop
      vertex -99.8139 6.99013 0
      vertex -96.1162 2.94069 0
      vertex -96.4957 3.09093 0
    endloop
  endfacet
  facet normal 0 0 -1
    outer loop
      vertex -99.8139 6.99013 0
      vertex -96.4957 3.09093 0
      vertex -96.891 3.19243 0
    endloop
  endfacet
  facet normal 0 0 -1
    outer loop
      vertex -99.8139 6.99013 0
      vertex -96.891 3.19243 0
      vertex -97.2959 3.24359 0
    endloop
  endfacet
  facet normal 0 0 -1
    outer loop
      vertex -99.8139 6.99013 0
      vertex -97.2959 3.24359 0
      vertex -97.7041 3.24359 0
    endloop
  endfacet
  facet normal 0 0 -1
    outer loop
      vertex -95.1309 2.22478 0
      vertex -99.8139 6.99013 0
      vertex 99.8139 6.99013 0
    endloop
  endfacet
  facet normal 0 0 -1
    outer loop
      vertex -98.109 3.19243 0
      vertex -99.8139 6.99013 0
      vertex -97.7041 3.24359 0
    endloop
  endfacet
  facet normal 0 0 -1
    outer loop
      vertex -98.5043 3.09093 0
      vertex -99.8139 6.99013 0
      vertex -98.109 3.19243 0
    endloop
  endfacet
  facet normal 0 0 -1
    outer loop
      vertex -98.8838 2.94069 0
      vertex -99.8139 6.99013 0
      vertex -98.5043 3.09093 0
    endloop
  endfacet
  facet normal 0 0 -1
    outer loop
      vertex -100.437 6.91144 0
      vertex -98.8838 2.94069 0
      vertex -99.2414 2.74407 0
    endloop
  endfacet
  facet normal 0 0 -1
    outer loop
      vertex -101.629 6.52413 0
      vertex -99.2414 2.74407 0
      vertex -99.5716 2.50417 0
    endloop
  endfacet
  facet normal 0 0 -1
    outer loop
      vertex -102.687 5.85257 0
      vertex -99.5716 2.50417 0
      vertex -99.8691 2.22478 0
    endloop
  endfacet
  facet normal 0 0 -1
    outer loop
      vertex -103.545 4.93893 0
      vertex -99.8691 2.22478 0
      vertex -100.129 1.9103 0
    endloop
  endfacet
  facet normal 0 0 -1
    outer loop
      vertex -104.149 3.84062 0
      vertex -100.129 1.9103 0
      vertex -100.348 1.5657 0
    endloop
  endfacet
  facet normal 0 0 -1
    outer loop
      vertex -98.8838 2.94069 0
      vertex -100.437 6.91144 0
      vertex -99.8139 6.99013 0
    endloop
  endfacet
  facet normal 0 0 -1
    outer loop
      vertex -104.461 2.62667 0
      vertex -100.348 1.5657 0
      vertex -100.522 1.1964 0
    endloop
  endfacet
  facet normal 0 0 -1
    outer loop
      vertex -104.5 2 0
      vertex -100.522 1.1964 0
      vertex -100.648 0.808242 0
    endloop
  endfacet
  facet normal 0 0 -1
    outer loop
      vertex -104.5 2 0
      vertex -100.648 0.808242 0
      vertex -100.724 0.407332 0
    endloop
  endfacet
  facet normal 0 0 -1
    outer loop
      vertex -104.5 2 0
      vertex -100.724 0.407332 0
      vertex -100.75 0 0
    endloop
  endfacet
  facet normal 0 0 -1
    outer loop
      vertex -99.2414 2.74407 0
      vertex -101.045 6.75528 0
      vertex -100.437 6.91144 0
    endloop
  endfacet
  facet normal 0 0 -1
    outer loop
      vertex -103.882 -4.40877 0
      vertex -100.129 -1.9103 0
      vertex -103.545 -4.93893 0
    endloop
  endfacet
  facet normal 0 0 -1
    outer loop
      vertex -104.149 -3.84062 0
      vertex -100.129 -1.9103 0
      vertex -103.882 -4.40877 0
    endloop
  endfacet
  facet normal 0 0 -1
    outer loop
      vertex -104.5 2 0
      vertex -100.75 0 0
      vertex -104.5 -2 0
    endloop
  endfacet
  facet normal -0 0 -1
    outer loop
      vertex -100.129 -1.9103 0
      vertex -104.149 -3.84062 0
      vertex -100.348 -1.5657 0
    endloop
  endfacet
  facet normal 0 0 -1
    outer loop
      vertex -100.522 1.1964 0
      vertex -104.5 2 0
      vertex -104.461 2.62667 0
    endloop
  endfacet
  facet normal 0 0 -1
    outer loop
      vertex -104.343 -3.24345 0
      vertex -100.348 -1.5657 0
      vertex -104.149 -3.84062 0
    endloop
  endfacet
  facet normal 0 0 -1
    outer loop
      vertex -99.2414 2.74407 0
      vertex -101.629 6.52413 0
      vertex -101.045 6.75528 0
    endloop
  endfacet
  facet normal 0 0 -1
    outer loop
      vertex -104.461 -2.62667 0
      vertex -100.348 -1.5657 0
      vertex -104.343 -3.24345 0
    endloop
  endfacet
  facet normal 0 0 -1
    outer loop
      vertex -99.5716 2.50417 0
      vertex -102.179 6.22164 0
      vertex -101.629 6.52413 0
    endloop
  endfacet
  facet normal -0 0 -1
    outer loop
      vertex -100.348 -1.5657 0
      vertex -104.461 -2.62667 0
      vertex -100.522 -1.1964 0
    endloop
  endfacet
  facet normal 0 0 -1
    outer loop
      vertex -99.5716 2.50417 0
      vertex -102.687 5.85257 0
      vertex -102.179 6.22164 0
    endloop
  endfacet
  facet normal 0 0 -1
    outer loop
      vertex -104.5 -2 0
      vertex -100.522 -1.1964 0
      vertex -104.461 -2.62667 0
    endloop
  endfacet
  facet normal 0 0 -1
    outer loop
      vertex -99.8691 2.22478 0
      vertex -103.145 5.42274 0
      vertex -102.687 5.85257 0
    endloop
  endfacet
  facet normal -0 0 -1
    outer loop
      vertex -100.522 -1.1964 0
      vertex -104.5 -2 0
      vertex -100.648 -0.808242 0
    endloop
  endfacet
  facet normal 0 0 -1
    outer loop
      vertex -99.8691 2.22478 0
      vertex -103.545 4.93893 0
      vertex -103.145 5.42274 0
    endloop
  endfacet
  facet normal -0 0 -1
    outer loop
      vertex -100.648 -0.808242 0
      vertex -104.5 -2 0
      vertex -100.724 -0.407332 0
    endloop
  endfacet
  facet normal 0 0 -1
    outer loop
      vertex -100.129 1.9103 0
      vertex -103.882 4.40877 0
      vertex -103.545 4.93893 0
    endloop
  endfacet
  facet normal -0 0 -1
    outer loop
      vertex -100.724 -0.407332 0
      vertex -104.5 -2 0
      vertex -100.75 0 0
    endloop
  endfacet
  facet normal 0 0 -1
    outer loop
      vertex -100.129 1.9103 0
      vertex -104.149 3.84062 0
      vertex -103.882 4.40877 0
    endloop
  endfacet
  facet normal 0 0 -1
    outer loop
      vertex -100.348 1.5657 0
      vertex -104.343 3.24345 0
      vertex -104.149 3.84062 0
    endloop
  endfacet
  facet normal 0 0 -1
    outer loop
      vertex -100.348 1.5657 0
      vertex -104.461 2.62667 0
      vertex -104.343 3.24345 0
    endloop
  endfacet
  facet normal -0.368026 -0.929816 0
    outer loop
      vertex -101.629 -6.52413 0
      vertex -101.045 -6.75528 9
      vertex -101.629 -6.52413 9
    endloop
  endfacet
  facet normal -0.368026 -0.929816 -0
    outer loop
      vertex -101.045 -6.75528 9
      vertex -101.629 -6.52413 0
      vertex -101.045 -6.75528 0
    endloop
  endfacet
  facet normal -0.481907 -0.876223 0
    outer loop
      vertex -102.179 -6.22164 0
      vertex -101.629 -6.52413 9
      vertex -102.179 -6.22164 9
    endloop
  endfacet
  facet normal -0.481907 -0.876223 -0
    outer loop
      vertex -101.629 -6.52413 9
      vertex -102.179 -6.22164 0
      vertex -101.629 -6.52413 0
    endloop
  endfacet
  facet normal -0.248768 -0.968563 0
    outer loop
      vertex -101.045 -6.75528 0
      vertex -100.437 -6.91144 9
      vertex -101.045 -6.75528 9
    endloop
  endfacet
  facet normal -0.248768 -0.968563 -0
    outer loop
      vertex -100.437 -6.91144 9
      vertex -101.045 -6.75528 0
      vertex -100.437 -6.91144 0
    endloop
  endfacet
  facet normal 0.843931 -0.536451 0
    outer loop
      vertex 103.545 -4.93893 9
      vertex 103.882 -4.40877 0
      vertex 103.882 -4.40877 9
    endloop
  endfacet
  facet normal 0.843931 -0.536451 0
    outer loop
      vertex 103.882 -4.40877 0
      vertex 103.545 -4.93893 9
      vertex 103.545 -4.93893 0
    endloop
  endfacet
  facet normal 0.951072 0.30897 0
    outer loop
      vertex 104.343 3.24345 9
      vertex 104.149 3.84062 0
      vertex 104.149 3.84062 9
    endloop
  endfacet
  facet normal 0.951072 0.30897 0
    outer loop
      vertex 104.149 3.84062 0
      vertex 104.343 3.24345 9
      vertex 104.343 3.24345 0
    endloop
  endfacet
  facet normal 0.770703 0.637195 0
    outer loop
      vertex 103.545 4.93893 9
      vertex 103.145 5.42274 0
      vertex 103.145 5.42274 9
    endloop
  endfacet
  facet normal 0.770703 0.637195 0
    outer loop
      vertex 103.145 5.42274 0
      vertex 103.545 4.93893 9
      vertex 103.545 4.93893 0
    endloop
  endfacet
  facet normal 0.684327 0.729176 -0
    outer loop
      vertex 103.145 5.42274 0
      vertex 102.687 5.85257 9
      vertex 103.145 5.42274 9
    endloop
  endfacet
  facet normal 0.684327 0.729176 0
    outer loop
      vertex 102.687 5.85257 9
      vertex 103.145 5.42274 0
      vertex 102.687 5.85257 0
    endloop
  endfacet
  facet normal 0.125293 0.99212 -0
    outer loop
      vertex 100.437 6.91144 0
      vertex 99.8139 6.99013 9
      vertex 100.437 6.91144 9
    endloop
  endfacet
  facet normal 0.125293 0.99212 0
    outer loop
      vertex 99.8139 6.99013 9
      vertex 100.437 6.91144 0
      vertex 99.8139 6.99013 0
    endloop
  endfacet
  facet normal 0.368026 0.929816 -0
    outer loop
      vertex 101.629 6.52413 0
      vertex 101.045 6.75528 9
      vertex 101.629 6.52413 9
    endloop
  endfacet
  facet normal 0.368026 0.929816 0
    outer loop
      vertex 101.045 6.75528 9
      vertex 101.629 6.52413 0
      vertex 101.045 6.75528 0
    endloop
  endfacet
  facet normal -0.125293 0.99212 0
    outer loop
      vertex -99.8139 6.99013 0
      vertex -100.437 6.91144 9
      vertex -99.8139 6.99013 9
    endloop
  endfacet
  facet normal -0.125293 0.99212 0
    outer loop
      vertex -100.437 6.91144 9
      vertex -99.8139 6.99013 0
      vertex -100.437 6.91144 0
    endloop
  endfacet
  facet normal -0.905042 0.425321 0
    outer loop
      vertex -104.149 3.84062 0
      vertex -103.882 4.40877 9
      vertex -103.882 4.40877 0
    endloop
  endfacet
  facet normal -0.905042 0.425321 0
    outer loop
      vertex -103.882 4.40877 9
      vertex -104.149 3.84062 0
      vertex -104.149 3.84062 9
    endloop
  endfacet
  facet normal -0.998069 -0.0621135 0
    outer loop
      vertex -104.461 -2.62667 0
      vertex -104.5 -2 9
      vertex -104.5 -2 0
    endloop
  endfacet
  facet normal -0.998069 -0.0621135 0
    outer loop
      vertex -104.5 -2 9
      vertex -104.461 -2.62667 0
      vertex -104.461 -2.62667 9
    endloop
  endfacet
  facet normal -0.982187 -0.187908 0
    outer loop
      vertex -104.343 -3.24345 0
      vertex -104.461 -2.62667 9
      vertex -104.461 -2.62667 0
    endloop
  endfacet
  facet normal -0.982187 -0.187908 0
    outer loop
      vertex -104.461 -2.62667 9
      vertex -104.343 -3.24345 0
      vertex -104.343 -3.24345 9
    endloop
  endfacet
  facet normal -0.905042 -0.425321 0
    outer loop
      vertex -103.882 -4.40877 0
      vertex -104.149 -3.84062 9
      vertex -104.149 -3.84062 0
    endloop
  endfacet
  facet normal -0.905042 -0.425321 0
    outer loop
      vertex -104.149 -3.84062 9
      vertex -103.882 -4.40877 0
      vertex -103.882 -4.40877 9
    endloop
  endfacet
  facet normal -0.770703 -0.637195 0
    outer loop
      vertex -103.145 -5.42274 0
      vertex -103.545 -4.93893 9
      vertex -103.545 -4.93893 0
    endloop
  endfacet
  facet normal -0.770703 -0.637195 0
    outer loop
      vertex -103.545 -4.93893 9
      vertex -103.145 -5.42274 0
      vertex -103.145 -5.42274 9
    endloop
  endfacet
  facet normal -0.843931 -0.536451 0
    outer loop
      vertex -103.545 -4.93893 0
      vertex -103.882 -4.40877 9
      vertex -103.882 -4.40877 0
    endloop
  endfacet
  facet normal -0.843931 -0.536451 0
    outer loop
      vertex -103.882 -4.40877 9
      vertex -103.545 -4.93893 0
      vertex -103.545 -4.93893 9
    endloop
  endfacet
  facet normal -0.587771 -0.809027 0
    outer loop
      vertex -102.687 -5.85257 0
      vertex -102.179 -6.22164 9
      vertex -102.687 -5.85257 9
    endloop
  endfacet
  facet normal -0.587771 -0.809027 -0
    outer loop
      vertex -102.179 -6.22164 9
      vertex -102.687 -5.85257 0
      vertex -102.179 -6.22164 0
    endloop
  endfacet
  facet normal 1 -0 0
    outer loop
      vertex 104.5 -2 9
      vertex 104.5 2 0
      vertex 104.5 2 9
    endloop
  endfacet
  facet normal 1 0 0
    outer loop
      vertex 104.5 2 0
      vertex 104.5 -2 9
      vertex 104.5 -2 0
    endloop
  endfacet
  facet normal 0.982187 0.187908 0
    outer loop
      vertex 104.461 2.62667 9
      vertex 104.343 3.24345 0
      vertex 104.343 3.24345 9
    endloop
  endfacet
  facet normal 0.982187 0.187908 0
    outer loop
      vertex 104.343 3.24345 0
      vertex 104.461 2.62667 9
      vertex 104.461 2.62667 0
    endloop
  endfacet
  facet normal 0.982187 -0.187908 0
    outer loop
      vertex 104.343 -3.24345 9
      vertex 104.461 -2.62667 0
      vertex 104.461 -2.62667 9
    endloop
  endfacet
  facet normal 0.982187 -0.187908 0
    outer loop
      vertex 104.461 -2.62667 0
      vertex 104.343 -3.24345 9
      vertex 104.343 -3.24345 0
    endloop
  endfacet
  facet normal 0.951072 -0.30897 0
    outer loop
      vertex 104.149 -3.84062 9
      vertex 104.343 -3.24345 0
      vertex 104.343 -3.24345 9
    endloop
  endfacet
  facet normal 0.951072 -0.30897 0
    outer loop
      vertex 104.343 -3.24345 0
      vertex 104.149 -3.84062 9
      vertex 104.149 -3.84062 0
    endloop
  endfacet
  facet normal 0.905042 -0.425321 0
    outer loop
      vertex 103.882 -4.40877 9
      vertex 104.149 -3.84062 0
      vertex 104.149 -3.84062 9
    endloop
  endfacet
  facet normal 0.905042 -0.425321 0
    outer loop
      vertex 104.149 -3.84062 0
      vertex 103.882 -4.40877 9
      vertex 103.882 -4.40877 0
    endloop
  endfacet
  facet normal 0.684327 -0.729176 0
    outer loop
      vertex 102.687 -5.85257 0
      vertex 103.145 -5.42274 9
      vertex 102.687 -5.85257 9
    endloop
  endfacet
  facet normal 0.684327 -0.729176 0
    outer loop
      vertex 103.145 -5.42274 9
      vertex 102.687 -5.85257 0
      vertex 103.145 -5.42274 0
    endloop
  endfacet
  facet normal 0.587771 -0.809027 0
    outer loop
      vertex 102.179 -6.22164 0
      vertex 102.687 -5.85257 9
      vertex 102.179 -6.22164 9
    endloop
  endfacet
  facet normal 0.587771 -0.809027 0
    outer loop
      vertex 102.687 -5.85257 9
      vertex 102.179 -6.22164 0
      vertex 102.687 -5.85257 0
    endloop
  endfacet
  facet normal 0.770703 -0.637195 0
    outer loop
      vertex 103.145 -5.42274 9
      vertex 103.545 -4.93893 0
      vertex 103.545 -4.93893 9
    endloop
  endfacet
  facet normal 0.770703 -0.637195 0
    outer loop
      vertex 103.545 -4.93893 0
      vertex 103.145 -5.42274 9
      vertex 103.145 -5.42274 0
    endloop
  endfacet
  facet normal 0.368026 -0.929816 0
    outer loop
      vertex 101.045 -6.75528 0
      vertex 101.629 -6.52413 9
      vertex 101.045 -6.75528 9
    endloop
  endfacet
  facet normal 0.368026 -0.929816 0
    outer loop
      vertex 101.629 -6.52413 9
      vertex 101.045 -6.75528 0
      vertex 101.629 -6.52413 0
    endloop
  endfacet
  facet normal 0.481907 -0.876223 0
    outer loop
      vertex 101.629 -6.52413 0
      vertex 102.179 -6.22164 9
      vertex 101.629 -6.52413 9
    endloop
  endfacet
  facet normal 0.481907 -0.876223 0
    outer loop
      vertex 102.179 -6.22164 9
      vertex 101.629 -6.52413 0
      vertex 102.179 -6.22164 0
    endloop
  endfacet
  facet normal 0.248768 -0.968563 0
    outer loop
      vertex 100.437 -6.91144 0
      vertex 101.045 -6.75528 9
      vertex 100.437 -6.91144 9
    endloop
  endfacet
  facet normal 0.248768 -0.968563 0
    outer loop
      vertex 101.045 -6.75528 9
      vertex 100.437 -6.91144 0
      vertex 101.045 -6.75528 0
    endloop
  endfacet
  facet normal 0.905042 0.425321 0
    outer loop
      vertex 104.149 3.84062 9
      vertex 103.882 4.40877 0
      vertex 103.882 4.40877 9
    endloop
  endfacet
  facet normal 0.905042 0.425321 0
    outer loop
      vertex 103.882 4.40877 0
      vertex 104.149 3.84062 9
      vertex 104.149 3.84062 0
    endloop
  endfacet
  facet normal 0.587771 0.809027 -0
    outer loop
      vertex 102.687 5.85257 0
      vertex 102.179 6.22164 9
      vertex 102.687 5.85257 9
    endloop
  endfacet
  facet normal 0.587771 0.809027 0
    outer loop
      vertex 102.179 6.22164 9
      vertex 102.687 5.85257 0
      vertex 102.179 6.22164 0
    endloop
  endfacet
  facet normal 0.248768 0.968563 -0
    outer loop
      vertex 101.045 6.75528 0
      vertex 100.437 6.91144 9
      vertex 101.045 6.75528 9
    endloop
  endfacet
  facet normal 0.248768 0.968563 0
    outer loop
      vertex 100.437 6.91144 9
      vertex 101.045 6.75528 0
      vertex 100.437 6.91144 0
    endloop
  endfacet
  facet normal 0.481907 0.876223 -0
    outer loop
      vertex 102.179 6.22164 0
      vertex 101.629 6.52413 9
      vertex 102.179 6.22164 9
    endloop
  endfacet
  facet normal 0.481907 0.876223 0
    outer loop
      vertex 101.629 6.52413 9
      vertex 102.179 6.22164 0
      vertex 101.629 6.52413 0
    endloop
  endfacet
  facet normal -0.684327 0.729176 0
    outer loop
      vertex -102.687 5.85257 0
      vertex -103.145 5.42274 9
      vertex -102.687 5.85257 9
    endloop
  endfacet
  facet normal -0.684327 0.729176 0
    outer loop
      vertex -103.145 5.42274 9
      vertex -102.687 5.85257 0
      vertex -103.145 5.42274 0
    endloop
  endfacet
  facet normal -0.368026 0.929816 0
    outer loop
      vertex -101.045 6.75528 0
      vertex -101.629 6.52413 9
      vertex -101.045 6.75528 9
    endloop
  endfacet
  facet normal -0.368026 0.929816 0
    outer loop
      vertex -101.629 6.52413 9
      vertex -101.045 6.75528 0
      vertex -101.629 6.52413 0
    endloop
  endfacet
  facet normal -0.951072 0.30897 0
    outer loop
      vertex -104.343 3.24345 0
      vertex -104.149 3.84062 9
      vertex -104.149 3.84062 0
    endloop
  endfacet
  facet normal -0.951072 0.30897 0
    outer loop
      vertex -104.149 3.84062 9
      vertex -104.343 3.24345 0
      vertex -104.343 3.24345 9
    endloop
  endfacet
  facet normal -0.125293 -0.99212 0
    outer loop
      vertex -100.437 -6.91144 0
      vertex -99.8139 -6.99013 9
      vertex -100.437 -6.91144 9
    endloop
  endfacet
  facet normal -0.125293 -0.99212 -0
    outer loop
      vertex -99.8139 -6.99013 9
      vertex -100.437 -6.91144 0
      vertex -99.8139 -6.99013 0
    endloop
  endfacet
  facet normal 0.998069 0.0621135 0
    outer loop
      vertex 104.5 2 9
      vertex 104.461 2.62667 0
      vertex 104.461 2.62667 9
    endloop
  endfacet
  facet normal 0.998069 0.0621135 0
    outer loop
      vertex 104.461 2.62667 0
      vertex 104.5 2 9
      vertex 104.5 2 0
    endloop
  endfacet
  facet normal -0.770703 0.637195 0
    outer loop
      vertex -103.545 4.93893 0
      vertex -103.145 5.42274 9
      vertex -103.145 5.42274 0
    endloop
  endfacet
  facet normal -0.770703 0.637195 0
    outer loop
      vertex -103.145 5.42274 9
      vertex -103.545 4.93893 0
      vertex -103.545 4.93893 9
    endloop
  endfacet
  facet normal -0.248768 0.968563 0
    outer loop
      vertex -100.437 6.91144 0
      vertex -101.045 6.75528 9
      vertex -100.437 6.91144 9
    endloop
  endfacet
  facet normal -0.248768 0.968563 0
    outer loop
      vertex -101.045 6.75528 9
      vertex -100.437 6.91144 0
      vertex -101.045 6.75528 0
    endloop
  endfacet
  facet normal -0.998069 0.0621135 0
    outer loop
      vertex -104.5 2 0
      vertex -104.461 2.62667 9
      vertex -104.461 2.62667 0
    endloop
  endfacet
  facet normal -0.998069 0.0621135 0
    outer loop
      vertex -104.461 2.62667 9
      vertex -104.5 2 0
      vertex -104.5 2 9
    endloop
  endfacet
  facet normal -0.982187 0.187908 0
    outer loop
      vertex -104.461 2.62667 0
      vertex -104.343 3.24345 9
      vertex -104.343 3.24345 0
    endloop
  endfacet
  facet normal -0.982187 0.187908 0
    outer loop
      vertex -104.343 3.24345 9
      vertex -104.461 2.62667 0
      vertex -104.461 2.62667 9
    endloop
  endfacet
  facet normal 0.843931 0.536451 0
    outer loop
      vertex 103.882 4.40877 9
      vertex 103.545 4.93893 0
      vertex 103.545 4.93893 9
    endloop
  endfacet
  facet normal 0.843931 0.536451 0
    outer loop
      vertex 103.545 4.93893 0
      vertex 103.882 4.40877 9
      vertex 103.882 4.40877 0
    endloop
  endfacet
  facet normal -0.587771 0.809027 0
    outer loop
      vertex -102.179 6.22164 0
      vertex -102.687 5.85257 9
      vertex -102.179 6.22164 9
    endloop
  endfacet
  facet normal -0.587771 0.809027 0
    outer loop
      vertex -102.687 5.85257 9
      vertex -102.179 6.22164 0
      vertex -102.687 5.85257 0
    endloop
  endfacet
  facet normal -0.481907 0.876223 0
    outer loop
      vertex -101.629 6.52413 0
      vertex -102.179 6.22164 9
      vertex -101.629 6.52413 9
    endloop
  endfacet
  facet normal -0.481907 0.876223 0
    outer loop
      vertex -102.179 6.22164 9
      vertex -101.629 6.52413 0
      vertex -102.179 6.22164 0
    endloop
  endfacet
  facet normal -0.843931 0.536451 0
    outer loop
      vertex -103.882 4.40877 0
      vertex -103.545 4.93893 9
      vertex -103.545 4.93893 0
    endloop
  endfacet
  facet normal -0.843931 0.536451 0
    outer loop
      vertex -103.545 4.93893 9
      vertex -103.882 4.40877 0
      vertex -103.882 4.40877 9
    endloop
  endfacet
endsolid OpenSCAD_Model
