  0
SECTION
  2
BLOCKS
  0
ENDSEC
  0
SECTION
  2
ENTITIES
  0
LINE
  8
0
 10
85.4369
 20
-36.9114
 11
86.0451
 21
-36.7553
  0
LINE
  8
0
 10
86.0451
 20
-36.7553
 11
86.6289
 21
-36.5241
  0
LINE
  8
0
 10
86.6289
 20
-36.5241
 11
87.1791
 21
-36.2216
  0
LINE
  8
0
 10
87.1791
 20
-36.2216
 11
87.6871
 21
-35.8526
  0
LINE
  8
0
 10
87.6871
 20
-35.8526
 11
88.1448
 21
-35.4227
  0
LINE
  8
0
 10
88.1448
 20
-35.4227
 11
88.5451
 21
-34.9389
  0
LINE
  8
0
 10
88.5451
 20
-34.9389
 11
88.8815
 21
-34.4088
  0
LINE
  8
0
 10
88.8815
 20
-34.4088
 11
89.1489
 21
-33.8406
  0
LINE
  8
0
 10
89.1489
 20
-33.8406
 11
89.3429
 21
-33.2434
  0
LINE
  8
0
 10
89.3429
 20
-33.2434
 11
89.4606
 21
-32.6267
  0
LINE
  8
0
 10
89.4606
 20
-32.6267
 11
89.5
 21
-32
  0
LINE
  8
0
 10
89.5
 20
-32
 11
89.5
 21
32
  0
LINE
  8
0
 10
89.5
 20
32
 11
89.4606
 21
32.6267
  0
LINE
  8
0
 10
89.4606
 20
32.6267
 11
89.3429
 21
33.2434
  0
LINE
  8
0
 10
89.3429
 20
33.2434
 11
89.1489
 21
33.8406
  0
LINE
  8
0
 10
89.1489
 20
33.8406
 11
88.8815
 21
34.4088
  0
LINE
  8
0
 10
88.8815
 20
34.4088
 11
88.5451
 21
34.9389
  0
LINE
  8
0
 10
88.5451
 20
34.9389
 11
88.1448
 21
35.4227
  0
LINE
  8
0
 10
88.1448
 20
35.4227
 11
87.6871
 21
35.8526
  0
LINE
  8
0
 10
87.6871
 20
35.8526
 11
87.1791
 21
36.2216
  0
LINE
  8
0
 10
87.1791
 20
36.2216
 11
86.6289
 21
36.5241
  0
LINE
  8
0
 10
86.6289
 20
36.5241
 11
86.0451
 21
36.7553
  0
LINE
  8
0
 10
86.0451
 20
36.7553
 11
85.4369
 21
36.9114
  0
LINE
  8
0
 10
85.4369
 20
36.9114
 11
84.8139
 21
36.9901
  0
LINE
  8
0
 10
84.8139
 20
36.9901
 11
-84.8139
 21
36.9901
  0
LINE
  8
0
 10
-84.8139
 20
36.9901
 11
-85.4369
 21
36.9114
  0
LINE
  8
0
 10
-85.4369
 20
36.9114
 11
-86.0451
 21
36.7553
  0
LINE
  8
0
 10
-86.0451
 20
36.7553
 11
-86.6289
 21
36.5241
  0
LINE
  8
0
 10
-86.6289
 20
36.5241
 11
-87.1791
 21
36.2216
  0
LINE
  8
0
 10
-87.1791
 20
36.2216
 11
-87.6871
 21
35.8526
  0
LINE
  8
0
 10
-87.6871
 20
35.8526
 11
-88.1448
 21
35.4227
  0
LINE
  8
0
 10
-88.1448
 20
35.4227
 11
-88.5451
 21
34.9389
  0
LINE
  8
0
 10
-88.5451
 20
34.9389
 11
-88.8815
 21
34.4088
  0
LINE
  8
0
 10
-88.8815
 20
34.4088
 11
-89.1489
 21
33.8406
  0
LINE
  8
0
 10
-89.1489
 20
33.8406
 11
-89.3429
 21
33.2434
  0
LINE
  8
0
 10
-89.3429
 20
33.2434
 11
-89.4606
 21
32.6267
  0
LINE
  8
0
 10
-89.4606
 20
32.6267
 11
-89.5
 21
32
  0
LINE
  8
0
 10
-89.5
 20
32
 11
-89.5
 21
-32
  0
LINE
  8
0
 10
-89.5
 20
-32
 11
-89.4606
 21
-32.6267
  0
LINE
  8
0
 10
-89.4606
 20
-32.6267
 11
-89.3429
 21
-33.2434
  0
LINE
  8
0
 10
-89.3429
 20
-33.2434
 11
-89.1489
 21
-33.8406
  0
LINE
  8
0
 10
-89.1489
 20
-33.8406
 11
-88.8815
 21
-34.4088
  0
LINE
  8
0
 10
-88.8815
 20
-34.4088
 11
-88.5451
 21
-34.9389
  0
LINE
  8
0
 10
-88.5451
 20
-34.9389
 11
-88.1448
 21
-35.4227
  0
LINE
  8
0
 10
-88.1448
 20
-35.4227
 11
-87.6871
 21
-35.8526
  0
LINE
  8
0
 10
-87.6871
 20
-35.8526
 11
-87.1791
 21
-36.2216
  0
LINE
  8
0
 10
-87.1791
 20
-36.2216
 11
-86.6289
 21
-36.5241
  0
LINE
  8
0
 10
-86.6289
 20
-36.5241
 11
-86.0451
 21
-36.7553
  0
LINE
  8
0
 10
-86.0451
 20
-36.7553
 11
-85.4369
 21
-36.9114
  0
LINE
  8
0
 10
-85.4369
 20
-36.9114
 11
-84.8139
 21
-36.9901
  0
LINE
  8
0
 10
-84.8139
 20
-36.9901
 11
84.8139
 21
-36.9901
  0
LINE
  8
0
 10
84.8139
 20
-36.9901
 11
85.4369
 21
-36.9114
  0
LINE
  8
0
 10
82.3116
 20
27.0059
 11
81.9379
 21
27.0531
  0
LINE
  8
0
 10
81.9379
 20
27.0531
 11
81.573
 21
27.1468
  0
LINE
  8
0
 10
81.573
 20
27.1468
 11
81.2227
 21
27.2855
  0
LINE
  8
0
 10
81.2227
 20
27.2855
 11
80.8925
 21
27.467
  0
LINE
  8
0
 10
80.8925
 20
27.467
 11
80.5877
 21
27.6884
  0
LINE
  8
0
 10
80.5877
 20
27.6884
 11
80.3131
 21
27.9464
  0
LINE
  8
0
 10
80.3131
 20
27.9464
 11
80.073
 21
28.2366
  0
LINE
  8
0
 10
80.073
 20
28.2366
 11
79.8711
 21
28.5547
  0
LINE
  8
0
 10
79.8711
 20
28.5547
 11
79.7107
 21
28.8956
  0
LINE
  8
0
 10
79.7107
 20
28.8956
 11
79.5943
 21
29.2539
  0
LINE
  8
0
 10
79.5943
 20
29.2539
 11
79.5237
 21
29.624
  0
LINE
  8
0
 10
79.5237
 20
29.624
 11
79.5
 21
30
  0
LINE
  8
0
 10
79.5
 20
30
 11
79.5237
 21
30.376
  0
LINE
  8
0
 10
79.5237
 20
30.376
 11
79.5943
 21
30.7461
  0
LINE
  8
0
 10
79.5943
 20
30.7461
 11
79.7107
 21
31.1044
  0
LINE
  8
0
 10
79.7107
 20
31.1044
 11
79.8711
 21
31.4453
  0
LINE
  8
0
 10
79.8711
 20
31.4453
 11
80.073
 21
31.7634
  0
LINE
  8
0
 10
80.073
 20
31.7634
 11
80.3131
 21
32.0536
  0
LINE
  8
0
 10
80.3131
 20
32.0536
 11
80.5877
 21
32.3115
  0
LINE
  8
0
 10
80.5877
 20
32.3115
 11
80.8925
 21
32.533
  0
LINE
  8
0
 10
80.8925
 20
32.533
 11
81.2227
 21
32.7145
  0
LINE
  8
0
 10
81.2227
 20
32.7145
 11
81.573
 21
32.8532
  0
LINE
  8
0
 10
81.573
 20
32.8532
 11
81.9379
 21
32.9469
  0
LINE
  8
0
 10
81.9379
 20
32.9469
 11
82.3116
 21
32.9941
  0
LINE
  8
0
 10
82.3116
 20
32.9941
 11
82.6884
 21
32.9941
  0
LINE
  8
0
 10
82.6884
 20
32.9941
 11
83.0621
 21
32.9469
  0
LINE
  8
0
 10
83.0621
 20
32.9469
 11
83.427
 21
32.8532
  0
LINE
  8
0
 10
83.427
 20
32.8532
 11
83.7773
 21
32.7145
  0
LINE
  8
0
 10
83.7773
 20
32.7145
 11
84.1075
 21
32.533
  0
LINE
  8
0
 10
84.1075
 20
32.533
 11
84.4123
 21
32.3115
  0
LINE
  8
0
 10
84.4123
 20
32.3115
 11
84.6869
 21
32.0536
  0
LINE
  8
0
 10
84.6869
 20
32.0536
 11
84.927
 21
31.7634
  0
LINE
  8
0
 10
84.927
 20
31.7634
 11
85.1289
 21
31.4453
  0
LINE
  8
0
 10
85.1289
 20
31.4453
 11
85.2893
 21
31.1044
  0
LINE
  8
0
 10
85.2893
 20
31.1044
 11
85.4057
 21
30.7461
  0
LINE
  8
0
 10
85.4057
 20
30.7461
 11
85.4763
 21
30.376
  0
LINE
  8
0
 10
85.4763
 20
30.376
 11
85.5
 21
30
  0
LINE
  8
0
 10
85.5
 20
30
 11
85.4763
 21
29.624
  0
LINE
  8
0
 10
85.4763
 20
29.624
 11
85.4057
 21
29.2539
  0
LINE
  8
0
 10
85.4057
 20
29.2539
 11
85.2893
 21
28.8956
  0
LINE
  8
0
 10
85.2893
 20
28.8956
 11
85.1289
 21
28.5547
  0
LINE
  8
0
 10
85.1289
 20
28.5547
 11
84.927
 21
28.2366
  0
LINE
  8
0
 10
84.927
 20
28.2366
 11
84.6869
 21
27.9464
  0
LINE
  8
0
 10
84.6869
 20
27.9464
 11
84.4123
 21
27.6884
  0
LINE
  8
0
 10
84.4123
 20
27.6884
 11
84.1075
 21
27.467
  0
LINE
  8
0
 10
84.1075
 20
27.467
 11
83.7773
 21
27.2855
  0
LINE
  8
0
 10
83.7773
 20
27.2855
 11
83.427
 21
27.1468
  0
LINE
  8
0
 10
83.427
 20
27.1468
 11
83.0621
 21
27.0531
  0
LINE
  8
0
 10
83.0621
 20
27.0531
 11
82.6884
 21
27.0059
  0
LINE
  8
0
 10
82.6884
 20
27.0059
 11
82.3116
 21
27.0059
  0
LINE
  8
0
 10
-82.6884
 20
27.0059
 11
-83.0621
 21
27.0531
  0
LINE
  8
0
 10
-83.0621
 20
27.0531
 11
-83.427
 21
27.1468
  0
LINE
  8
0
 10
-83.427
 20
27.1468
 11
-83.7773
 21
27.2855
  0
LINE
  8
0
 10
-83.7773
 20
27.2855
 11
-84.1075
 21
27.467
  0
LINE
  8
0
 10
-84.1075
 20
27.467
 11
-84.4123
 21
27.6884
  0
LINE
  8
0
 10
-84.4123
 20
27.6884
 11
-84.6869
 21
27.9464
  0
LINE
  8
0
 10
-84.6869
 20
27.9464
 11
-84.927
 21
28.2366
  0
LINE
  8
0
 10
-84.927
 20
28.2366
 11
-85.1289
 21
28.5547
  0
LINE
  8
0
 10
-85.1289
 20
28.5547
 11
-85.2893
 21
28.8956
  0
LINE
  8
0
 10
-85.2893
 20
28.8956
 11
-85.4057
 21
29.2539
  0
LINE
  8
0
 10
-85.4057
 20
29.2539
 11
-85.4763
 21
29.624
  0
LINE
  8
0
 10
-85.4763
 20
29.624
 11
-85.5
 21
30
  0
LINE
  8
0
 10
-85.5
 20
30
 11
-85.4763
 21
30.376
  0
LINE
  8
0
 10
-85.4763
 20
30.376
 11
-85.4057
 21
30.7461
  0
LINE
  8
0
 10
-85.4057
 20
30.7461
 11
-85.2893
 21
31.1044
  0
LINE
  8
0
 10
-85.2893
 20
31.1044
 11
-85.1289
 21
31.4453
  0
LINE
  8
0
 10
-85.1289
 20
31.4453
 11
-84.927
 21
31.7634
  0
LINE
  8
0
 10
-84.927
 20
31.7634
 11
-84.6869
 21
32.0536
  0
LINE
  8
0
 10
-84.6869
 20
32.0536
 11
-84.4123
 21
32.3115
  0
LINE
  8
0
 10
-84.4123
 20
32.3115
 11
-84.1075
 21
32.533
  0
LINE
  8
0
 10
-84.1075
 20
32.533
 11
-83.7773
 21
32.7145
  0
LINE
  8
0
 10
-83.7773
 20
32.7145
 11
-83.427
 21
32.8532
  0
LINE
  8
0
 10
-83.427
 20
32.8532
 11
-83.0621
 21
32.9469
  0
LINE
  8
0
 10
-83.0621
 20
32.9469
 11
-82.6884
 21
32.9941
  0
LINE
  8
0
 10
-82.6884
 20
32.9941
 11
-82.3116
 21
32.9941
  0
LINE
  8
0
 10
-82.3116
 20
32.9941
 11
-81.9379
 21
32.9469
  0
LINE
  8
0
 10
-81.9379
 20
32.9469
 11
-81.573
 21
32.8532
  0
LINE
  8
0
 10
-81.573
 20
32.8532
 11
-81.2227
 21
32.7145
  0
LINE
  8
0
 10
-81.2227
 20
32.7145
 11
-80.8925
 21
32.533
  0
LINE
  8
0
 10
-80.8925
 20
32.533
 11
-80.5877
 21
32.3115
  0
LINE
  8
0
 10
-80.5877
 20
32.3115
 11
-80.3131
 21
32.0536
  0
LINE
  8
0
 10
-80.3131
 20
32.0536
 11
-80.073
 21
31.7634
  0
LINE
  8
0
 10
-80.073
 20
31.7634
 11
-79.8711
 21
31.4453
  0
LINE
  8
0
 10
-79.8711
 20
31.4453
 11
-79.7107
 21
31.1044
  0
LINE
  8
0
 10
-79.7107
 20
31.1044
 11
-79.5943
 21
30.7461
  0
LINE
  8
0
 10
-79.5943
 20
30.7461
 11
-79.5237
 21
30.376
  0
LINE
  8
0
 10
-79.5237
 20
30.376
 11
-79.5
 21
30
  0
LINE
  8
0
 10
-79.5
 20
30
 11
-79.5237
 21
29.624
  0
LINE
  8
0
 10
-79.5237
 20
29.624
 11
-79.5943
 21
29.2539
  0
LINE
  8
0
 10
-79.5943
 20
29.2539
 11
-79.7107
 21
28.8956
  0
LINE
  8
0
 10
-79.7107
 20
28.8956
 11
-79.8711
 21
28.5547
  0
LINE
  8
0
 10
-79.8711
 20
28.5547
 11
-80.073
 21
28.2366
  0
LINE
  8
0
 10
-80.073
 20
28.2366
 11
-80.3131
 21
27.9464
  0
LINE
  8
0
 10
-80.3131
 20
27.9464
 11
-80.5877
 21
27.6884
  0
LINE
  8
0
 10
-80.5877
 20
27.6884
 11
-80.8925
 21
27.467
  0
LINE
  8
0
 10
-80.8925
 20
27.467
 11
-81.2227
 21
27.2855
  0
LINE
  8
0
 10
-81.2227
 20
27.2855
 11
-81.573
 21
27.1468
  0
LINE
  8
0
 10
-81.573
 20
27.1468
 11
-81.9379
 21
27.0531
  0
LINE
  8
0
 10
-81.9379
 20
27.0531
 11
-82.3116
 21
27.0059
  0
LINE
  8
0
 10
-82.3116
 20
27.0059
 11
-82.6884
 21
27.0059
  0
LINE
  8
0
 10
82.4058
 20
21.003
 11
82.2189
 21
21.0266
  0
LINE
  8
0
 10
82.2189
 20
21.0266
 11
82.0365
 21
21.0734
  0
LINE
  8
0
 10
82.0365
 20
21.0734
 11
81.8613
 21
21.1427
  0
LINE
  8
0
 10
81.8613
 20
21.1427
 11
81.6963
 21
21.2335
  0
LINE
  8
0
 10
81.6963
 20
21.2335
 11
81.5439
 21
21.3442
  0
LINE
  8
0
 10
81.5439
 20
21.3442
 11
81.4065
 21
21.4732
  0
LINE
  8
0
 10
81.4065
 20
21.4732
 11
81.2865
 21
21.6183
  0
LINE
  8
0
 10
81.2865
 20
21.6183
 11
81.1855
 21
21.7774
  0
LINE
  8
0
 10
81.1855
 20
21.7774
 11
81.1053
 21
21.9478
  0
LINE
  8
0
 10
81.1053
 20
21.9478
 11
81.0471
 21
22.127
  0
LINE
  8
0
 10
81.0471
 20
22.127
 11
81.0118
 21
22.312
  0
LINE
  8
0
 10
81.0118
 20
22.312
 11
81
 21
22.5
  0
LINE
  8
0
 10
81
 20
22.5
 11
81.0118
 21
22.688
  0
LINE
  8
0
 10
81.0118
 20
22.688
 11
81.0471
 21
22.873
  0
LINE
  8
0
 10
81.0471
 20
22.873
 11
81.1053
 21
23.0522
  0
LINE
  8
0
 10
81.1053
 20
23.0522
 11
81.1855
 21
23.2226
  0
LINE
  8
0
 10
81.1855
 20
23.2226
 11
81.2865
 21
23.3817
  0
LINE
  8
0
 10
81.2865
 20
23.3817
 11
81.4065
 21
23.5268
  0
LINE
  8
0
 10
81.4065
 20
23.5268
 11
81.5439
 21
23.6558
  0
LINE
  8
0
 10
81.5439
 20
23.6558
 11
81.6963
 21
23.7665
  0
LINE
  8
0
 10
81.6963
 20
23.7665
 11
81.8613
 21
23.8572
  0
LINE
  8
0
 10
81.8613
 20
23.8572
 11
82.0365
 21
23.9266
  0
LINE
  8
0
 10
82.0365
 20
23.9266
 11
82.2189
 21
23.9734
  0
LINE
  8
0
 10
82.2189
 20
23.9734
 11
82.4058
 21
23.997
  0
LINE
  8
0
 10
82.4058
 20
23.997
 11
82.5942
 21
23.997
  0
LINE
  8
0
 10
82.5942
 20
23.997
 11
82.7811
 21
23.9734
  0
LINE
  8
0
 10
82.7811
 20
23.9734
 11
82.9635
 21
23.9266
  0
LINE
  8
0
 10
82.9635
 20
23.9266
 11
83.1387
 21
23.8572
  0
LINE
  8
0
 10
83.1387
 20
23.8572
 11
83.3037
 21
23.7665
  0
LINE
  8
0
 10
83.3037
 20
23.7665
 11
83.4561
 21
23.6558
  0
LINE
  8
0
 10
83.4561
 20
23.6558
 11
83.5934
 21
23.5268
  0
LINE
  8
0
 10
83.5934
 20
23.5268
 11
83.7135
 21
23.3817
  0
LINE
  8
0
 10
83.7135
 20
23.3817
 11
83.8145
 21
23.2226
  0
LINE
  8
0
 10
83.8145
 20
23.2226
 11
83.8947
 21
23.0522
  0
LINE
  8
0
 10
83.8947
 20
23.0522
 11
83.9529
 21
22.873
  0
LINE
  8
0
 10
83.9529
 20
22.873
 11
83.9882
 21
22.688
  0
LINE
  8
0
 10
83.9882
 20
22.688
 11
84
 21
22.5
  0
LINE
  8
0
 10
84
 20
22.5
 11
83.9882
 21
22.312
  0
LINE
  8
0
 10
83.9882
 20
22.312
 11
83.9529
 21
22.127
  0
LINE
  8
0
 10
83.9529
 20
22.127
 11
83.8947
 21
21.9478
  0
LINE
  8
0
 10
83.8947
 20
21.9478
 11
83.8145
 21
21.7774
  0
LINE
  8
0
 10
83.8145
 20
21.7774
 11
83.7135
 21
21.6183
  0
LINE
  8
0
 10
83.7135
 20
21.6183
 11
83.5934
 21
21.4732
  0
LINE
  8
0
 10
83.5934
 20
21.4732
 11
83.4561
 21
21.3442
  0
LINE
  8
0
 10
83.4561
 20
21.3442
 11
83.3037
 21
21.2335
  0
LINE
  8
0
 10
83.3037
 20
21.2335
 11
83.1387
 21
21.1427
  0
LINE
  8
0
 10
83.1387
 20
21.1427
 11
82.9635
 21
21.0734
  0
LINE
  8
0
 10
82.9635
 20
21.0734
 11
82.7811
 21
21.0266
  0
LINE
  8
0
 10
82.7811
 20
21.0266
 11
82.5942
 21
21.003
  0
LINE
  8
0
 10
82.5942
 20
21.003
 11
82.4058
 21
21.003
  0
LINE
  8
0
 10
-82.5942
 20
21.003
 11
-82.7811
 21
21.0266
  0
LINE
  8
0
 10
-82.7811
 20
21.0266
 11
-82.9635
 21
21.0734
  0
LINE
  8
0
 10
-82.9635
 20
21.0734
 11
-83.1387
 21
21.1427
  0
LINE
  8
0
 10
-83.1387
 20
21.1427
 11
-83.3037
 21
21.2335
  0
LINE
  8
0
 10
-83.3037
 20
21.2335
 11
-83.4561
 21
21.3442
  0
LINE
  8
0
 10
-83.4561
 20
21.3442
 11
-83.5934
 21
21.4732
  0
LINE
  8
0
 10
-83.5934
 20
21.4732
 11
-83.7135
 21
21.6183
  0
LINE
  8
0
 10
-83.7135
 20
21.6183
 11
-83.8145
 21
21.7774
  0
LINE
  8
0
 10
-83.8145
 20
21.7774
 11
-83.8947
 21
21.9478
  0
LINE
  8
0
 10
-83.8947
 20
21.9478
 11
-83.9529
 21
22.127
  0
LINE
  8
0
 10
-83.9529
 20
22.127
 11
-83.9882
 21
22.312
  0
LINE
  8
0
 10
-83.9882
 20
22.312
 11
-84
 21
22.5
  0
LINE
  8
0
 10
-84
 20
22.5
 11
-83.9882
 21
22.688
  0
LINE
  8
0
 10
-83.9882
 20
22.688
 11
-83.9529
 21
22.873
  0
LINE
  8
0
 10
-83.9529
 20
22.873
 11
-83.8947
 21
23.0522
  0
LINE
  8
0
 10
-83.8947
 20
23.0522
 11
-83.8145
 21
23.2226
  0
LINE
  8
0
 10
-83.8145
 20
23.2226
 11
-83.7135
 21
23.3817
  0
LINE
  8
0
 10
-83.7135
 20
23.3817
 11
-83.5934
 21
23.5268
  0
LINE
  8
0
 10
-83.5934
 20
23.5268
 11
-83.4561
 21
23.6558
  0
LINE
  8
0
 10
-83.4561
 20
23.6558
 11
-83.3037
 21
23.7665
  0
LINE
  8
0
 10
-83.3037
 20
23.7665
 11
-83.1387
 21
23.8572
  0
LINE
  8
0
 10
-83.1387
 20
23.8572
 11
-82.9635
 21
23.9266
  0
LINE
  8
0
 10
-82.9635
 20
23.9266
 11
-82.7811
 21
23.9734
  0
LINE
  8
0
 10
-82.7811
 20
23.9734
 11
-82.5942
 21
23.997
  0
LINE
  8
0
 10
-82.5942
 20
23.997
 11
-82.4058
 21
23.997
  0
LINE
  8
0
 10
-82.4058
 20
23.997
 11
-82.2189
 21
23.9734
  0
LINE
  8
0
 10
-82.2189
 20
23.9734
 11
-82.0365
 21
23.9266
  0
LINE
  8
0
 10
-82.0365
 20
23.9266
 11
-81.8613
 21
23.8572
  0
LINE
  8
0
 10
-81.8613
 20
23.8572
 11
-81.6963
 21
23.7665
  0
LINE
  8
0
 10
-81.6963
 20
23.7665
 11
-81.5439
 21
23.6558
  0
LINE
  8
0
 10
-81.5439
 20
23.6558
 11
-81.4065
 21
23.5268
  0
LINE
  8
0
 10
-81.4065
 20
23.5268
 11
-81.2865
 21
23.3817
  0
LINE
  8
0
 10
-81.2865
 20
23.3817
 11
-81.1855
 21
23.2226
  0
LINE
  8
0
 10
-81.1855
 20
23.2226
 11
-81.1053
 21
23.0522
  0
LINE
  8
0
 10
-81.1053
 20
23.0522
 11
-81.0471
 21
22.873
  0
LINE
  8
0
 10
-81.0471
 20
22.873
 11
-81.0118
 21
22.688
  0
LINE
  8
0
 10
-81.0118
 20
22.688
 11
-81
 21
22.5
  0
LINE
  8
0
 10
-81
 20
22.5
 11
-81.0118
 21
22.312
  0
LINE
  8
0
 10
-81.0118
 20
22.312
 11
-81.0471
 21
22.127
  0
LINE
  8
0
 10
-81.0471
 20
22.127
 11
-81.1053
 21
21.9478
  0
LINE
  8
0
 10
-81.1053
 20
21.9478
 11
-81.1855
 21
21.7774
  0
LINE
  8
0
 10
-81.1855
 20
21.7774
 11
-81.2865
 21
21.6183
  0
LINE
  8
0
 10
-81.2865
 20
21.6183
 11
-81.4065
 21
21.4732
  0
LINE
  8
0
 10
-81.4065
 20
21.4732
 11
-81.5439
 21
21.3442
  0
LINE
  8
0
 10
-81.5439
 20
21.3442
 11
-81.6963
 21
21.2335
  0
LINE
  8
0
 10
-81.6963
 20
21.2335
 11
-81.8613
 21
21.1427
  0
LINE
  8
0
 10
-81.8613
 20
21.1427
 11
-82.0365
 21
21.0734
  0
LINE
  8
0
 10
-82.0365
 20
21.0734
 11
-82.2189
 21
21.0266
  0
LINE
  8
0
 10
-82.2189
 20
21.0266
 11
-82.4058
 21
21.003
  0
LINE
  8
0
 10
-82.4058
 20
21.003
 11
-82.5942
 21
21.003
  0
LINE
  8
0
 10
79.5237
 20
15.376
 11
79.5943
 21
15.7461
  0
LINE
  8
0
 10
79.5943
 20
15.7461
 11
79.7107
 21
16.1044
  0
LINE
  8
0
 10
79.7107
 20
16.1044
 11
79.8711
 21
16.4453
  0
LINE
  8
0
 10
79.8711
 20
16.4453
 11
80.073
 21
16.7634
  0
LINE
  8
0
 10
80.073
 20
16.7634
 11
80.3131
 21
17.0536
  0
LINE
  8
0
 10
80.3131
 20
17.0536
 11
80.5877
 21
17.3115
  0
LINE
  8
0
 10
80.5877
 20
17.3115
 11
80.8925
 21
17.533
  0
LINE
  8
0
 10
80.8925
 20
17.533
 11
81.2227
 21
17.7145
  0
LINE
  8
0
 10
81.2227
 20
17.7145
 11
81.573
 21
17.8532
  0
LINE
  8
0
 10
81.573
 20
17.8532
 11
81.9379
 21
17.9469
  0
LINE
  8
0
 10
81.9379
 20
17.9469
 11
82.3116
 21
17.9941
  0
LINE
  8
0
 10
82.3116
 20
17.9941
 11
82.6884
 21
17.9941
  0
LINE
  8
0
 10
82.6884
 20
17.9941
 11
83.0621
 21
17.9469
  0
LINE
  8
0
 10
83.0621
 20
17.9469
 11
83.427
 21
17.8532
  0
LINE
  8
0
 10
83.427
 20
17.8532
 11
83.7773
 21
17.7145
  0
LINE
  8
0
 10
83.7773
 20
17.7145
 11
84.1075
 21
17.533
  0
LINE
  8
0
 10
84.1075
 20
17.533
 11
84.4123
 21
17.3115
  0
LINE
  8
0
 10
84.4123
 20
17.3115
 11
84.6869
 21
17.0536
  0
LINE
  8
0
 10
84.6869
 20
17.0536
 11
84.927
 21
16.7634
  0
LINE
  8
0
 10
84.927
 20
16.7634
 11
85.1289
 21
16.4453
  0
LINE
  8
0
 10
85.1289
 20
16.4453
 11
85.2893
 21
16.1044
  0
LINE
  8
0
 10
85.2893
 20
16.1044
 11
85.4057
 21
15.7461
  0
LINE
  8
0
 10
85.4057
 20
15.7461
 11
85.4763
 21
15.376
  0
LINE
  8
0
 10
85.4763
 20
15.376
 11
85.5
 21
15
  0
LINE
  8
0
 10
85.5
 20
15
 11
85.4763
 21
14.624
  0
LINE
  8
0
 10
85.4763
 20
14.624
 11
85.4057
 21
14.2539
  0
LINE
  8
0
 10
85.4057
 20
14.2539
 11
85.2893
 21
13.8956
  0
LINE
  8
0
 10
85.2893
 20
13.8956
 11
85.1289
 21
13.5547
  0
LINE
  8
0
 10
85.1289
 20
13.5547
 11
84.927
 21
13.2366
  0
LINE
  8
0
 10
84.927
 20
13.2366
 11
84.6869
 21
12.9464
  0
LINE
  8
0
 10
84.6869
 20
12.9464
 11
84.4123
 21
12.6884
  0
LINE
  8
0
 10
84.4123
 20
12.6884
 11
84.1075
 21
12.467
  0
LINE
  8
0
 10
84.1075
 20
12.467
 11
83.7773
 21
12.2855
  0
LINE
  8
0
 10
83.7773
 20
12.2855
 11
83.427
 21
12.1468
  0
LINE
  8
0
 10
83.427
 20
12.1468
 11
83.0621
 21
12.0531
  0
LINE
  8
0
 10
83.0621
 20
12.0531
 11
82.6884
 21
12.0059
  0
LINE
  8
0
 10
82.6884
 20
12.0059
 11
82.3116
 21
12.0059
  0
LINE
  8
0
 10
82.3116
 20
12.0059
 11
81.9379
 21
12.0531
  0
LINE
  8
0
 10
81.9379
 20
12.0531
 11
81.573
 21
12.1468
  0
LINE
  8
0
 10
81.573
 20
12.1468
 11
81.2227
 21
12.2855
  0
LINE
  8
0
 10
81.2227
 20
12.2855
 11
80.8925
 21
12.467
  0
LINE
  8
0
 10
80.8925
 20
12.467
 11
80.5877
 21
12.6884
  0
LINE
  8
0
 10
80.5877
 20
12.6884
 11
80.3131
 21
12.9464
  0
LINE
  8
0
 10
80.3131
 20
12.9464
 11
80.073
 21
13.2366
  0
LINE
  8
0
 10
80.073
 20
13.2366
 11
79.8711
 21
13.5547
  0
LINE
  8
0
 10
79.8711
 20
13.5547
 11
79.7107
 21
13.8956
  0
LINE
  8
0
 10
79.7107
 20
13.8956
 11
79.5943
 21
14.2539
  0
LINE
  8
0
 10
79.5943
 20
14.2539
 11
79.5237
 21
14.624
  0
LINE
  8
0
 10
79.5237
 20
14.624
 11
79.5
 21
15
  0
LINE
  8
0
 10
79.5
 20
15
 11
79.5237
 21
15.376
  0
LINE
  8
0
 10
82.4058
 20
6.00294
 11
82.2189
 21
6.02657
  0
LINE
  8
0
 10
82.2189
 20
6.02657
 11
82.0365
 21
6.07341
  0
LINE
  8
0
 10
82.0365
 20
6.07341
 11
81.8613
 21
6.14275
  0
LINE
  8
0
 10
81.8613
 20
6.14275
 11
81.6963
 21
6.23351
  0
LINE
  8
0
 10
81.6963
 20
6.23351
 11
81.5439
 21
6.34422
  0
LINE
  8
0
 10
81.5439
 20
6.34422
 11
81.4065
 21
6.47318
  0
LINE
  8
0
 10
81.4065
 20
6.47318
 11
81.2865
 21
6.61832
  0
LINE
  8
0
 10
81.2865
 20
6.61832
 11
81.1855
 21
6.77736
  0
LINE
  8
0
 10
81.1855
 20
6.77736
 11
81.1053
 21
6.9478
  0
LINE
  8
0
 10
81.1053
 20
6.9478
 11
81.0471
 21
7.12695
  0
LINE
  8
0
 10
81.0471
 20
7.12695
 11
81.0118
 21
7.312
  0
LINE
  8
0
 10
81.0118
 20
7.312
 11
81
 21
7.5
  0
LINE
  8
0
 10
81
 20
7.5
 11
81.0118
 21
7.68799
  0
LINE
  8
0
 10
81.0118
 20
7.68799
 11
81.0471
 21
7.87303
  0
LINE
  8
0
 10
81.0471
 20
7.87303
 11
81.1053
 21
8.05219
  0
LINE
  8
0
 10
81.1053
 20
8.05219
 11
81.1855
 21
8.22263
  0
LINE
  8
0
 10
81.1855
 20
8.22263
 11
81.2865
 21
8.38167
  0
LINE
  8
0
 10
81.2865
 20
8.38167
 11
81.4065
 21
8.52681
  0
LINE
  8
0
 10
81.4065
 20
8.52681
 11
81.5439
 21
8.65576
  0
LINE
  8
0
 10
81.5439
 20
8.65576
 11
81.6963
 21
8.76648
  0
LINE
  8
0
 10
81.6963
 20
8.76648
 11
81.8613
 21
8.85724
  0
LINE
  8
0
 10
81.8613
 20
8.85724
 11
82.0365
 21
8.92657
  0
LINE
  8
0
 10
82.0365
 20
8.92657
 11
82.2189
 21
8.97342
  0
LINE
  8
0
 10
82.2189
 20
8.97342
 11
82.4058
 21
8.99704
  0
LINE
  8
0
 10
82.4058
 20
8.99704
 11
82.5942
 21
8.99704
  0
LINE
  8
0
 10
82.5942
 20
8.99704
 11
82.7811
 21
8.97342
  0
LINE
  8
0
 10
82.7811
 20
8.97342
 11
82.9635
 21
8.92657
  0
LINE
  8
0
 10
82.9635
 20
8.92657
 11
83.1387
 21
8.85724
  0
LINE
  8
0
 10
83.1387
 20
8.85724
 11
83.3037
 21
8.76648
  0
LINE
  8
0
 10
83.3037
 20
8.76648
 11
83.4561
 21
8.65576
  0
LINE
  8
0
 10
83.4561
 20
8.65576
 11
83.5934
 21
8.52681
  0
LINE
  8
0
 10
83.5934
 20
8.52681
 11
83.7135
 21
8.38167
  0
LINE
  8
0
 10
83.7135
 20
8.38167
 11
83.8145
 21
8.22263
  0
LINE
  8
0
 10
83.8145
 20
8.22263
 11
83.8947
 21
8.05219
  0
LINE
  8
0
 10
83.8947
 20
8.05219
 11
83.9529
 21
7.87303
  0
LINE
  8
0
 10
83.9529
 20
7.87303
 11
83.9882
 21
7.68799
  0
LINE
  8
0
 10
83.9882
 20
7.68799
 11
84
 21
7.5
  0
LINE
  8
0
 10
84
 20
7.5
 11
83.9882
 21
7.312
  0
LINE
  8
0
 10
83.9882
 20
7.312
 11
83.9529
 21
7.12695
  0
LINE
  8
0
 10
83.9529
 20
7.12695
 11
83.8947
 21
6.9478
  0
LINE
  8
0
 10
83.8947
 20
6.9478
 11
83.8145
 21
6.77736
  0
LINE
  8
0
 10
83.8145
 20
6.77736
 11
83.7135
 21
6.61832
  0
LINE
  8
0
 10
83.7135
 20
6.61832
 11
83.5934
 21
6.47318
  0
LINE
  8
0
 10
83.5934
 20
6.47318
 11
83.4561
 21
6.34422
  0
LINE
  8
0
 10
83.4561
 20
6.34422
 11
83.3037
 21
6.23351
  0
LINE
  8
0
 10
83.3037
 20
6.23351
 11
83.1387
 21
6.14275
  0
LINE
  8
0
 10
83.1387
 20
6.14275
 11
82.9635
 21
6.07341
  0
LINE
  8
0
 10
82.9635
 20
6.07341
 11
82.7811
 21
6.02657
  0
LINE
  8
0
 10
82.7811
 20
6.02657
 11
82.5942
 21
6.00294
  0
LINE
  8
0
 10
82.5942
 20
6.00294
 11
82.4058
 21
6.00294
  0
LINE
  8
0
 10
-82.5942
 20
6.00294
 11
-82.7811
 21
6.02657
  0
LINE
  8
0
 10
-82.7811
 20
6.02657
 11
-82.9635
 21
6.07341
  0
LINE
  8
0
 10
-82.9635
 20
6.07341
 11
-83.1387
 21
6.14275
  0
LINE
  8
0
 10
-83.1387
 20
6.14275
 11
-83.3037
 21
6.23351
  0
LINE
  8
0
 10
-83.3037
 20
6.23351
 11
-83.4561
 21
6.34422
  0
LINE
  8
0
 10
-83.4561
 20
6.34422
 11
-83.5934
 21
6.47318
  0
LINE
  8
0
 10
-83.5934
 20
6.47318
 11
-83.7135
 21
6.61832
  0
LINE
  8
0
 10
-83.7135
 20
6.61832
 11
-83.8145
 21
6.77736
  0
LINE
  8
0
 10
-83.8145
 20
6.77736
 11
-83.8947
 21
6.9478
  0
LINE
  8
0
 10
-83.8947
 20
6.9478
 11
-83.9529
 21
7.12695
  0
LINE
  8
0
 10
-83.9529
 20
7.12695
 11
-83.9882
 21
7.312
  0
LINE
  8
0
 10
-83.9882
 20
7.312
 11
-84
 21
7.5
  0
LINE
  8
0
 10
-84
 20
7.5
 11
-83.9882
 21
7.68799
  0
LINE
  8
0
 10
-83.9882
 20
7.68799
 11
-83.9529
 21
7.87303
  0
LINE
  8
0
 10
-83.9529
 20
7.87303
 11
-83.8947
 21
8.05219
  0
LINE
  8
0
 10
-83.8947
 20
8.05219
 11
-83.8145
 21
8.22263
  0
LINE
  8
0
 10
-83.8145
 20
8.22263
 11
-83.7135
 21
8.38167
  0
LINE
  8
0
 10
-83.7135
 20
8.38167
 11
-83.5934
 21
8.52681
  0
LINE
  8
0
 10
-83.5934
 20
8.52681
 11
-83.4561
 21
8.65576
  0
LINE
  8
0
 10
-83.4561
 20
8.65576
 11
-83.3037
 21
8.76648
  0
LINE
  8
0
 10
-83.3037
 20
8.76648
 11
-83.1387
 21
8.85724
  0
LINE
  8
0
 10
-83.1387
 20
8.85724
 11
-82.9635
 21
8.92657
  0
LINE
  8
0
 10
-82.9635
 20
8.92657
 11
-82.7811
 21
8.97342
  0
LINE
  8
0
 10
-82.7811
 20
8.97342
 11
-82.5942
 21
8.99704
  0
LINE
  8
0
 10
-82.5942
 20
8.99704
 11
-82.4058
 21
8.99704
  0
LINE
  8
0
 10
-82.4058
 20
8.99704
 11
-82.2189
 21
8.97342
  0
LINE
  8
0
 10
-82.2189
 20
8.97342
 11
-82.0365
 21
8.92657
  0
LINE
  8
0
 10
-82.0365
 20
8.92657
 11
-81.8613
 21
8.85724
  0
LINE
  8
0
 10
-81.8613
 20
8.85724
 11
-81.6963
 21
8.76648
  0
LINE
  8
0
 10
-81.6963
 20
8.76648
 11
-81.5439
 21
8.65576
  0
LINE
  8
0
 10
-81.5439
 20
8.65576
 11
-81.4065
 21
8.52681
  0
LINE
  8
0
 10
-81.4065
 20
8.52681
 11
-81.2865
 21
8.38167
  0
LINE
  8
0
 10
-81.2865
 20
8.38167
 11
-81.1855
 21
8.22263
  0
LINE
  8
0
 10
-81.1855
 20
8.22263
 11
-81.1053
 21
8.05219
  0
LINE
  8
0
 10
-81.1053
 20
8.05219
 11
-81.0471
 21
7.87303
  0
LINE
  8
0
 10
-81.0471
 20
7.87303
 11
-81.0118
 21
7.68799
  0
LINE
  8
0
 10
-81.0118
 20
7.68799
 11
-81
 21
7.5
  0
LINE
  8
0
 10
-81
 20
7.5
 11
-81.0118
 21
7.312
  0
LINE
  8
0
 10
-81.0118
 20
7.312
 11
-81.0471
 21
7.12695
  0
LINE
  8
0
 10
-81.0471
 20
7.12695
 11
-81.1053
 21
6.9478
  0
LINE
  8
0
 10
-81.1053
 20
6.9478
 11
-81.1855
 21
6.77736
  0
LINE
  8
0
 10
-81.1855
 20
6.77736
 11
-81.2865
 21
6.61832
  0
LINE
  8
0
 10
-81.2865
 20
6.61832
 11
-81.4065
 21
6.47318
  0
LINE
  8
0
 10
-81.4065
 20
6.47318
 11
-81.5439
 21
6.34422
  0
LINE
  8
0
 10
-81.5439
 20
6.34422
 11
-81.6963
 21
6.23351
  0
LINE
  8
0
 10
-81.6963
 20
6.23351
 11
-81.8613
 21
6.14275
  0
LINE
  8
0
 10
-81.8613
 20
6.14275
 11
-82.0365
 21
6.07341
  0
LINE
  8
0
 10
-82.0365
 20
6.07341
 11
-82.2189
 21
6.02657
  0
LINE
  8
0
 10
-82.2189
 20
6.02657
 11
-82.4058
 21
6.00294
  0
LINE
  8
0
 10
-82.4058
 20
6.00294
 11
-82.5942
 21
6.00294
  0
LINE
  8
0
 10
79.7107
 20
1.10437
 11
79.8711
 21
1.44525
  0
LINE
  8
0
 10
79.8711
 20
1.44525
 11
80.073
 21
1.76335
  0
LINE
  8
0
 10
80.073
 20
1.76335
 11
80.3131
 21
2.05363
  0
LINE
  8
0
 10
80.3131
 20
2.05363
 11
80.5877
 21
2.31154
  0
LINE
  8
0
 10
80.5877
 20
2.31154
 11
80.8925
 21
2.53297
  0
LINE
  8
0
 10
80.8925
 20
2.53297
 11
81.2227
 21
2.71448
  0
LINE
  8
0
 10
81.2227
 20
2.71448
 11
81.573
 21
2.85316
  0
LINE
  8
0
 10
81.573
 20
2.85316
 11
81.9379
 21
2.94685
  0
LINE
  8
0
 10
81.9379
 20
2.94685
 11
82.3116
 21
2.99408
  0
LINE
  8
0
 10
82.3116
 20
2.99408
 11
82.6884
 21
2.99408
  0
LINE
  8
0
 10
82.6884
 20
2.99408
 11
83.0621
 21
2.94685
  0
LINE
  8
0
 10
83.0621
 20
2.94685
 11
83.427
 21
2.85316
  0
LINE
  8
0
 10
83.427
 20
2.85316
 11
83.7773
 21
2.71448
  0
LINE
  8
0
 10
83.7773
 20
2.71448
 11
84.1075
 21
2.53297
  0
LINE
  8
0
 10
84.1075
 20
2.53297
 11
84.4123
 21
2.31154
  0
LINE
  8
0
 10
84.4123
 20
2.31154
 11
84.6869
 21
2.05363
  0
LINE
  8
0
 10
84.6869
 20
2.05363
 11
84.927
 21
1.76335
  0
LINE
  8
0
 10
84.927
 20
1.76335
 11
85.1289
 21
1.44525
  0
LINE
  8
0
 10
85.1289
 20
1.44525
 11
85.2893
 21
1.10437
  0
LINE
  8
0
 10
85.2893
 20
1.10437
 11
85.4057
 21
0.746063
  0
LINE
  8
0
 10
85.4057
 20
0.746063
 11
85.4763
 21
0.375992
  0
LINE
  8
0
 10
85.4763
 20
0.375992
 11
85.5
 21
0
  0
LINE
  8
0
 10
85.5
 20
0
 11
85.4763
 21
-0.375992
  0
LINE
  8
0
 10
85.4763
 20
-0.375992
 11
85.4057
 21
-0.746063
  0
LINE
  8
0
 10
85.4057
 20
-0.746063
 11
85.2893
 21
-1.10437
  0
LINE
  8
0
 10
85.2893
 20
-1.10437
 11
85.1289
 21
-1.44525
  0
LINE
  8
0
 10
85.1289
 20
-1.44525
 11
84.927
 21
-1.76335
  0
LINE
  8
0
 10
84.927
 20
-1.76335
 11
84.6869
 21
-2.05363
  0
LINE
  8
0
 10
84.6869
 20
-2.05363
 11
84.4123
 21
-2.31154
  0
LINE
  8
0
 10
84.4123
 20
-2.31154
 11
84.1075
 21
-2.53297
  0
LINE
  8
0
 10
84.1075
 20
-2.53297
 11
83.7773
 21
-2.71448
  0
LINE
  8
0
 10
83.7773
 20
-2.71448
 11
83.427
 21
-2.85316
  0
LINE
  8
0
 10
83.427
 20
-2.85316
 11
83.0621
 21
-2.94685
  0
LINE
  8
0
 10
83.0621
 20
-2.94685
 11
82.6884
 21
-2.99408
  0
LINE
  8
0
 10
82.6884
 20
-2.99408
 11
82.3116
 21
-2.99408
  0
LINE
  8
0
 10
82.3116
 20
-2.99408
 11
81.9379
 21
-2.94685
  0
LINE
  8
0
 10
81.9379
 20
-2.94685
 11
81.573
 21
-2.85316
  0
LINE
  8
0
 10
81.573
 20
-2.85316
 11
81.2227
 21
-2.71448
  0
LINE
  8
0
 10
81.2227
 20
-2.71448
 11
80.8925
 21
-2.53297
  0
LINE
  8
0
 10
80.8925
 20
-2.53297
 11
80.5877
 21
-2.31154
  0
LINE
  8
0
 10
80.5877
 20
-2.31154
 11
80.3131
 21
-2.05363
  0
LINE
  8
0
 10
80.3131
 20
-2.05363
 11
80.073
 21
-1.76335
  0
LINE
  8
0
 10
80.073
 20
-1.76335
 11
79.8711
 21
-1.44525
  0
LINE
  8
0
 10
79.8711
 20
-1.44525
 11
79.7107
 21
-1.10437
  0
LINE
  8
0
 10
79.7107
 20
-1.10437
 11
79.5943
 21
-0.746063
  0
LINE
  8
0
 10
79.5943
 20
-0.746063
 11
79.5237
 21
-0.375992
  0
LINE
  8
0
 10
79.5237
 20
-0.375992
 11
79.5
 21
0
  0
LINE
  8
0
 10
79.5
 20
0
 11
79.5237
 21
0.375992
  0
LINE
  8
0
 10
79.5237
 20
0.375992
 11
79.5943
 21
0.746063
  0
LINE
  8
0
 10
79.5943
 20
0.746063
 11
79.7107
 21
1.10437
  0
LINE
  8
0
 10
82.4058
 20
-8.99704
 11
82.2189
 21
-8.97342
  0
LINE
  8
0
 10
82.2189
 20
-8.97342
 11
82.0365
 21
-8.92657
  0
LINE
  8
0
 10
82.0365
 20
-8.92657
 11
81.8613
 21
-8.85724
  0
LINE
  8
0
 10
81.8613
 20
-8.85724
 11
81.6963
 21
-8.76648
  0
LINE
  8
0
 10
81.6963
 20
-8.76648
 11
81.5439
 21
-8.65576
  0
LINE
  8
0
 10
81.5439
 20
-8.65576
 11
81.4065
 21
-8.52681
  0
LINE
  8
0
 10
81.4065
 20
-8.52681
 11
81.2865
 21
-8.38167
  0
LINE
  8
0
 10
81.2865
 20
-8.38167
 11
81.1855
 21
-8.22263
  0
LINE
  8
0
 10
81.1855
 20
-8.22263
 11
81.1053
 21
-8.05219
  0
LINE
  8
0
 10
81.1053
 20
-8.05219
 11
81.0471
 21
-7.87303
  0
LINE
  8
0
 10
81.0471
 20
-7.87303
 11
81.0118
 21
-7.68799
  0
LINE
  8
0
 10
81.0118
 20
-7.68799
 11
81
 21
-7.5
  0
LINE
  8
0
 10
81
 20
-7.5
 11
81.0118
 21
-7.312
  0
LINE
  8
0
 10
81.0118
 20
-7.312
 11
81.0471
 21
-7.12695
  0
LINE
  8
0
 10
81.0471
 20
-7.12695
 11
81.1053
 21
-6.9478
  0
LINE
  8
0
 10
81.1053
 20
-6.9478
 11
81.1855
 21
-6.77736
  0
LINE
  8
0
 10
81.1855
 20
-6.77736
 11
81.2865
 21
-6.61832
  0
LINE
  8
0
 10
81.2865
 20
-6.61832
 11
81.4065
 21
-6.47318
  0
LINE
  8
0
 10
81.4065
 20
-6.47318
 11
81.5439
 21
-6.34422
  0
LINE
  8
0
 10
81.5439
 20
-6.34422
 11
81.6963
 21
-6.23351
  0
LINE
  8
0
 10
81.6963
 20
-6.23351
 11
81.8613
 21
-6.14275
  0
LINE
  8
0
 10
81.8613
 20
-6.14275
 11
82.0365
 21
-6.07341
  0
LINE
  8
0
 10
82.0365
 20
-6.07341
 11
82.2189
 21
-6.02657
  0
LINE
  8
0
 10
82.2189
 20
-6.02657
 11
82.4058
 21
-6.00294
  0
LINE
  8
0
 10
82.4058
 20
-6.00294
 11
82.5942
 21
-6.00294
  0
LINE
  8
0
 10
82.5942
 20
-6.00294
 11
82.7811
 21
-6.02657
  0
LINE
  8
0
 10
82.7811
 20
-6.02657
 11
82.9635
 21
-6.07341
  0
LINE
  8
0
 10
82.9635
 20
-6.07341
 11
83.1387
 21
-6.14275
  0
LINE
  8
0
 10
83.1387
 20
-6.14275
 11
83.3037
 21
-6.23351
  0
LINE
  8
0
 10
83.3037
 20
-6.23351
 11
83.4561
 21
-6.34422
  0
LINE
  8
0
 10
83.4561
 20
-6.34422
 11
83.5934
 21
-6.47318
  0
LINE
  8
0
 10
83.5934
 20
-6.47318
 11
83.7135
 21
-6.61832
  0
LINE
  8
0
 10
83.7135
 20
-6.61832
 11
83.8145
 21
-6.77736
  0
LINE
  8
0
 10
83.8145
 20
-6.77736
 11
83.8947
 21
-6.9478
  0
LINE
  8
0
 10
83.8947
 20
-6.9478
 11
83.9529
 21
-7.12695
  0
LINE
  8
0
 10
83.9529
 20
-7.12695
 11
83.9882
 21
-7.312
  0
LINE
  8
0
 10
83.9882
 20
-7.312
 11
84
 21
-7.5
  0
LINE
  8
0
 10
84
 20
-7.5
 11
83.9882
 21
-7.68799
  0
LINE
  8
0
 10
83.9882
 20
-7.68799
 11
83.9529
 21
-7.87303
  0
LINE
  8
0
 10
83.9529
 20
-7.87303
 11
83.8947
 21
-8.05219
  0
LINE
  8
0
 10
83.8947
 20
-8.05219
 11
83.8145
 21
-8.22263
  0
LINE
  8
0
 10
83.8145
 20
-8.22263
 11
83.7135
 21
-8.38167
  0
LINE
  8
0
 10
83.7135
 20
-8.38167
 11
83.5934
 21
-8.52681
  0
LINE
  8
0
 10
83.5934
 20
-8.52681
 11
83.4561
 21
-8.65576
  0
LINE
  8
0
 10
83.4561
 20
-8.65576
 11
83.3037
 21
-8.76648
  0
LINE
  8
0
 10
83.3037
 20
-8.76648
 11
83.1387
 21
-8.85724
  0
LINE
  8
0
 10
83.1387
 20
-8.85724
 11
82.9635
 21
-8.92657
  0
LINE
  8
0
 10
82.9635
 20
-8.92657
 11
82.7811
 21
-8.97342
  0
LINE
  8
0
 10
82.7811
 20
-8.97342
 11
82.5942
 21
-8.99704
  0
LINE
  8
0
 10
82.5942
 20
-8.99704
 11
82.4058
 21
-8.99704
  0
LINE
  8
0
 10
-82.5942
 20
-8.99704
 11
-82.7811
 21
-8.97342
  0
LINE
  8
0
 10
-82.7811
 20
-8.97342
 11
-82.9635
 21
-8.92657
  0
LINE
  8
0
 10
-82.9635
 20
-8.92657
 11
-83.1387
 21
-8.85724
  0
LINE
  8
0
 10
-83.1387
 20
-8.85724
 11
-83.3037
 21
-8.76648
  0
LINE
  8
0
 10
-83.3037
 20
-8.76648
 11
-83.4561
 21
-8.65576
  0
LINE
  8
0
 10
-83.4561
 20
-8.65576
 11
-83.5934
 21
-8.52681
  0
LINE
  8
0
 10
-83.5934
 20
-8.52681
 11
-83.7135
 21
-8.38167
  0
LINE
  8
0
 10
-83.7135
 20
-8.38167
 11
-83.8145
 21
-8.22263
  0
LINE
  8
0
 10
-83.8145
 20
-8.22263
 11
-83.8947
 21
-8.05219
  0
LINE
  8
0
 10
-83.8947
 20
-8.05219
 11
-83.9529
 21
-7.87303
  0
LINE
  8
0
 10
-83.9529
 20
-7.87303
 11
-83.9882
 21
-7.68799
  0
LINE
  8
0
 10
-83.9882
 20
-7.68799
 11
-84
 21
-7.5
  0
LINE
  8
0
 10
-84
 20
-7.5
 11
-83.9882
 21
-7.312
  0
LINE
  8
0
 10
-83.9882
 20
-7.312
 11
-83.9529
 21
-7.12695
  0
LINE
  8
0
 10
-83.9529
 20
-7.12695
 11
-83.8947
 21
-6.9478
  0
LINE
  8
0
 10
-83.8947
 20
-6.9478
 11
-83.8145
 21
-6.77736
  0
LINE
  8
0
 10
-83.8145
 20
-6.77736
 11
-83.7135
 21
-6.61832
  0
LINE
  8
0
 10
-83.7135
 20
-6.61832
 11
-83.5934
 21
-6.47318
  0
LINE
  8
0
 10
-83.5934
 20
-6.47318
 11
-83.4561
 21
-6.34422
  0
LINE
  8
0
 10
-83.4561
 20
-6.34422
 11
-83.3037
 21
-6.23351
  0
LINE
  8
0
 10
-83.3037
 20
-6.23351
 11
-83.1387
 21
-6.14275
  0
LINE
  8
0
 10
-83.1387
 20
-6.14275
 11
-82.9635
 21
-6.07341
  0
LINE
  8
0
 10
-82.9635
 20
-6.07341
 11
-82.7811
 21
-6.02657
  0
LINE
  8
0
 10
-82.7811
 20
-6.02657
 11
-82.5942
 21
-6.00294
  0
LINE
  8
0
 10
-82.5942
 20
-6.00294
 11
-82.4058
 21
-6.00294
  0
LINE
  8
0
 10
-82.4058
 20
-6.00294
 11
-82.2189
 21
-6.02657
  0
LINE
  8
0
 10
-82.2189
 20
-6.02657
 11
-82.0365
 21
-6.07341
  0
LINE
  8
0
 10
-82.0365
 20
-6.07341
 11
-81.8613
 21
-6.14275
  0
LINE
  8
0
 10
-81.8613
 20
-6.14275
 11
-81.6963
 21
-6.23351
  0
LINE
  8
0
 10
-81.6963
 20
-6.23351
 11
-81.5439
 21
-6.34422
  0
LINE
  8
0
 10
-81.5439
 20
-6.34422
 11
-81.4065
 21
-6.47318
  0
LINE
  8
0
 10
-81.4065
 20
-6.47318
 11
-81.2865
 21
-6.61832
  0
LINE
  8
0
 10
-81.2865
 20
-6.61832
 11
-81.1855
 21
-6.77736
  0
LINE
  8
0
 10
-81.1855
 20
-6.77736
 11
-81.1053
 21
-6.9478
  0
LINE
  8
0
 10
-81.1053
 20
-6.9478
 11
-81.0471
 21
-7.12695
  0
LINE
  8
0
 10
-81.0471
 20
-7.12695
 11
-81.0118
 21
-7.312
  0
LINE
  8
0
 10
-81.0118
 20
-7.312
 11
-81
 21
-7.5
  0
LINE
  8
0
 10
-81
 20
-7.5
 11
-81.0118
 21
-7.68799
  0
LINE
  8
0
 10
-81.0118
 20
-7.68799
 11
-81.0471
 21
-7.87303
  0
LINE
  8
0
 10
-81.0471
 20
-7.87303
 11
-81.1053
 21
-8.05219
  0
LINE
  8
0
 10
-81.1053
 20
-8.05219
 11
-81.1855
 21
-8.22263
  0
LINE
  8
0
 10
-81.1855
 20
-8.22263
 11
-81.2865
 21
-8.38167
  0
LINE
  8
0
 10
-81.2865
 20
-8.38167
 11
-81.4065
 21
-8.52681
  0
LINE
  8
0
 10
-81.4065
 20
-8.52681
 11
-81.5439
 21
-8.65576
  0
LINE
  8
0
 10
-81.5439
 20
-8.65576
 11
-81.6963
 21
-8.76648
  0
LINE
  8
0
 10
-81.6963
 20
-8.76648
 11
-81.8613
 21
-8.85724
  0
LINE
  8
0
 10
-81.8613
 20
-8.85724
 11
-82.0365
 21
-8.92657
  0
LINE
  8
0
 10
-82.0365
 20
-8.92657
 11
-82.2189
 21
-8.97342
  0
LINE
  8
0
 10
-82.2189
 20
-8.97342
 11
-82.4058
 21
-8.99704
  0
LINE
  8
0
 10
-82.4058
 20
-8.99704
 11
-82.5942
 21
-8.99704
  0
LINE
  8
0
 10
-82.6884
 20
-17.9941
 11
-83.0621
 21
-17.9469
  0
LINE
  8
0
 10
-83.0621
 20
-17.9469
 11
-83.427
 21
-17.8532
  0
LINE
  8
0
 10
-83.427
 20
-17.8532
 11
-83.7773
 21
-17.7145
  0
LINE
  8
0
 10
-83.7773
 20
-17.7145
 11
-84.1075
 21
-17.533
  0
LINE
  8
0
 10
-84.1075
 20
-17.533
 11
-84.4123
 21
-17.3115
  0
LINE
  8
0
 10
-84.4123
 20
-17.3115
 11
-84.6869
 21
-17.0536
  0
LINE
  8
0
 10
-84.6869
 20
-17.0536
 11
-84.927
 21
-16.7634
  0
LINE
  8
0
 10
-84.927
 20
-16.7634
 11
-85.1289
 21
-16.4453
  0
LINE
  8
0
 10
-85.1289
 20
-16.4453
 11
-85.2893
 21
-16.1044
  0
LINE
  8
0
 10
-85.2893
 20
-16.1044
 11
-85.4057
 21
-15.7461
  0
LINE
  8
0
 10
-85.4057
 20
-15.7461
 11
-85.4763
 21
-15.376
  0
LINE
  8
0
 10
-85.4763
 20
-15.376
 11
-85.5
 21
-15
  0
LINE
  8
0
 10
-85.5
 20
-15
 11
-85.4763
 21
-14.624
  0
LINE
  8
0
 10
-85.4763
 20
-14.624
 11
-85.4057
 21
-14.2539
  0
LINE
  8
0
 10
-85.4057
 20
-14.2539
 11
-85.2893
 21
-13.8956
  0
LINE
  8
0
 10
-85.2893
 20
-13.8956
 11
-85.1289
 21
-13.5547
  0
LINE
  8
0
 10
-85.1289
 20
-13.5547
 11
-84.927
 21
-13.2366
  0
LINE
  8
0
 10
-84.927
 20
-13.2366
 11
-84.6869
 21
-12.9464
  0
LINE
  8
0
 10
-84.6869
 20
-12.9464
 11
-84.4123
 21
-12.6884
  0
LINE
  8
0
 10
-84.4123
 20
-12.6884
 11
-84.1075
 21
-12.467
  0
LINE
  8
0
 10
-84.1075
 20
-12.467
 11
-83.7773
 21
-12.2855
  0
LINE
  8
0
 10
-83.7773
 20
-12.2855
 11
-83.427
 21
-12.1468
  0
LINE
  8
0
 10
-83.427
 20
-12.1468
 11
-83.0621
 21
-12.0531
  0
LINE
  8
0
 10
-83.0621
 20
-12.0531
 11
-82.6884
 21
-12.0059
  0
LINE
  8
0
 10
-82.6884
 20
-12.0059
 11
-82.3116
 21
-12.0059
  0
LINE
  8
0
 10
-82.3116
 20
-12.0059
 11
-81.9379
 21
-12.0531
  0
LINE
  8
0
 10
-81.9379
 20
-12.0531
 11
-81.573
 21
-12.1468
  0
LINE
  8
0
 10
-81.573
 20
-12.1468
 11
-81.2227
 21
-12.2855
  0
LINE
  8
0
 10
-81.2227
 20
-12.2855
 11
-80.8925
 21
-12.467
  0
LINE
  8
0
 10
-80.8925
 20
-12.467
 11
-80.5877
 21
-12.6884
  0
LINE
  8
0
 10
-80.5877
 20
-12.6884
 11
-80.3131
 21
-12.9464
  0
LINE
  8
0
 10
-80.3131
 20
-12.9464
 11
-80.073
 21
-13.2366
  0
LINE
  8
0
 10
-80.073
 20
-13.2366
 11
-79.8711
 21
-13.5547
  0
LINE
  8
0
 10
-79.8711
 20
-13.5547
 11
-79.7107
 21
-13.8956
  0
LINE
  8
0
 10
-79.7107
 20
-13.8956
 11
-79.5943
 21
-14.2539
  0
LINE
  8
0
 10
-79.5943
 20
-14.2539
 11
-79.5237
 21
-14.624
  0
LINE
  8
0
 10
-79.5237
 20
-14.624
 11
-79.5
 21
-15
  0
LINE
  8
0
 10
-79.5
 20
-15
 11
-79.5237
 21
-15.376
  0
LINE
  8
0
 10
-79.5237
 20
-15.376
 11
-79.5943
 21
-15.7461
  0
LINE
  8
0
 10
-79.5943
 20
-15.7461
 11
-79.7107
 21
-16.1044
  0
LINE
  8
0
 10
-79.7107
 20
-16.1044
 11
-79.8711
 21
-16.4453
  0
LINE
  8
0
 10
-79.8711
 20
-16.4453
 11
-80.073
 21
-16.7634
  0
LINE
  8
0
 10
-80.073
 20
-16.7634
 11
-80.3131
 21
-17.0536
  0
LINE
  8
0
 10
-80.3131
 20
-17.0536
 11
-80.5877
 21
-17.3115
  0
LINE
  8
0
 10
-80.5877
 20
-17.3115
 11
-80.8925
 21
-17.533
  0
LINE
  8
0
 10
-80.8925
 20
-17.533
 11
-81.2227
 21
-17.7145
  0
LINE
  8
0
 10
-81.2227
 20
-17.7145
 11
-81.573
 21
-17.8532
  0
LINE
  8
0
 10
-81.573
 20
-17.8532
 11
-81.9379
 21
-17.9469
  0
LINE
  8
0
 10
-81.9379
 20
-17.9469
 11
-82.3116
 21
-17.9941
  0
LINE
  8
0
 10
-82.3116
 20
-17.9941
 11
-82.6884
 21
-17.9941
  0
LINE
  8
0
 10
82.3116
 20
-17.9941
 11
81.9379
 21
-17.9469
  0
LINE
  8
0
 10
81.9379
 20
-17.9469
 11
81.573
 21
-17.8532
  0
LINE
  8
0
 10
81.573
 20
-17.8532
 11
81.2227
 21
-17.7145
  0
LINE
  8
0
 10
81.2227
 20
-17.7145
 11
80.8925
 21
-17.533
  0
LINE
  8
0
 10
80.8925
 20
-17.533
 11
80.5877
 21
-17.3115
  0
LINE
  8
0
 10
80.5877
 20
-17.3115
 11
80.3131
 21
-17.0536
  0
LINE
  8
0
 10
80.3131
 20
-17.0536
 11
80.073
 21
-16.7634
  0
LINE
  8
0
 10
80.073
 20
-16.7634
 11
79.8711
 21
-16.4453
  0
LINE
  8
0
 10
79.8711
 20
-16.4453
 11
79.7107
 21
-16.1044
  0
LINE
  8
0
 10
79.7107
 20
-16.1044
 11
79.5943
 21
-15.7461
  0
LINE
  8
0
 10
79.5943
 20
-15.7461
 11
79.5237
 21
-15.376
  0
LINE
  8
0
 10
79.5237
 20
-15.376
 11
79.5
 21
-15
  0
LINE
  8
0
 10
79.5
 20
-15
 11
79.5237
 21
-14.624
  0
LINE
  8
0
 10
79.5237
 20
-14.624
 11
79.5943
 21
-14.2539
  0
LINE
  8
0
 10
79.5943
 20
-14.2539
 11
79.7107
 21
-13.8956
  0
LINE
  8
0
 10
79.7107
 20
-13.8956
 11
79.8711
 21
-13.5547
  0
LINE
  8
0
 10
79.8711
 20
-13.5547
 11
80.073
 21
-13.2366
  0
LINE
  8
0
 10
80.073
 20
-13.2366
 11
80.3131
 21
-12.9464
  0
LINE
  8
0
 10
80.3131
 20
-12.9464
 11
80.5877
 21
-12.6884
  0
LINE
  8
0
 10
80.5877
 20
-12.6884
 11
80.8925
 21
-12.467
  0
LINE
  8
0
 10
80.8925
 20
-12.467
 11
81.2227
 21
-12.2855
  0
LINE
  8
0
 10
81.2227
 20
-12.2855
 11
81.573
 21
-12.1468
  0
LINE
  8
0
 10
81.573
 20
-12.1468
 11
81.9379
 21
-12.0531
  0
LINE
  8
0
 10
81.9379
 20
-12.0531
 11
82.3116
 21
-12.0059
  0
LINE
  8
0
 10
82.3116
 20
-12.0059
 11
82.6884
 21
-12.0059
  0
LINE
  8
0
 10
82.6884
 20
-12.0059
 11
83.0621
 21
-12.0531
  0
LINE
  8
0
 10
83.0621
 20
-12.0531
 11
83.427
 21
-12.1468
  0
LINE
  8
0
 10
83.427
 20
-12.1468
 11
83.7773
 21
-12.2855
  0
LINE
  8
0
 10
83.7773
 20
-12.2855
 11
84.1075
 21
-12.467
  0
LINE
  8
0
 10
84.1075
 20
-12.467
 11
84.4123
 21
-12.6884
  0
LINE
  8
0
 10
84.4123
 20
-12.6884
 11
84.6869
 21
-12.9464
  0
LINE
  8
0
 10
84.6869
 20
-12.9464
 11
84.927
 21
-13.2366
  0
LINE
  8
0
 10
84.927
 20
-13.2366
 11
85.1289
 21
-13.5547
  0
LINE
  8
0
 10
85.1289
 20
-13.5547
 11
85.2893
 21
-13.8956
  0
LINE
  8
0
 10
85.2893
 20
-13.8956
 11
85.4057
 21
-14.2539
  0
LINE
  8
0
 10
85.4057
 20
-14.2539
 11
85.4763
 21
-14.624
  0
LINE
  8
0
 10
85.4763
 20
-14.624
 11
85.5
 21
-15
  0
LINE
  8
0
 10
85.5
 20
-15
 11
85.4763
 21
-15.376
  0
LINE
  8
0
 10
85.4763
 20
-15.376
 11
85.4057
 21
-15.7461
  0
LINE
  8
0
 10
85.4057
 20
-15.7461
 11
85.2893
 21
-16.1044
  0
LINE
  8
0
 10
85.2893
 20
-16.1044
 11
85.1289
 21
-16.4453
  0
LINE
  8
0
 10
85.1289
 20
-16.4453
 11
84.927
 21
-16.7634
  0
LINE
  8
0
 10
84.927
 20
-16.7634
 11
84.6869
 21
-17.0536
  0
LINE
  8
0
 10
84.6869
 20
-17.0536
 11
84.4123
 21
-17.3115
  0
LINE
  8
0
 10
84.4123
 20
-17.3115
 11
84.1075
 21
-17.533
  0
LINE
  8
0
 10
84.1075
 20
-17.533
 11
83.7773
 21
-17.7145
  0
LINE
  8
0
 10
83.7773
 20
-17.7145
 11
83.427
 21
-17.8532
  0
LINE
  8
0
 10
83.427
 20
-17.8532
 11
83.0621
 21
-17.9469
  0
LINE
  8
0
 10
83.0621
 20
-17.9469
 11
82.6884
 21
-17.9941
  0
LINE
  8
0
 10
82.6884
 20
-17.9941
 11
82.3116
 21
-17.9941
  0
LINE
  8
0
 10
82.4058
 20
-23.997
 11
82.2189
 21
-23.9734
  0
LINE
  8
0
 10
82.2189
 20
-23.9734
 11
82.0365
 21
-23.9266
  0
LINE
  8
0
 10
82.0365
 20
-23.9266
 11
81.8613
 21
-23.8572
  0
LINE
  8
0
 10
81.8613
 20
-23.8572
 11
81.6963
 21
-23.7665
  0
LINE
  8
0
 10
81.6963
 20
-23.7665
 11
81.5439
 21
-23.6558
  0
LINE
  8
0
 10
81.5439
 20
-23.6558
 11
81.4065
 21
-23.5268
  0
LINE
  8
0
 10
81.4065
 20
-23.5268
 11
81.2865
 21
-23.3817
  0
LINE
  8
0
 10
81.2865
 20
-23.3817
 11
81.1855
 21
-23.2226
  0
LINE
  8
0
 10
81.1855
 20
-23.2226
 11
81.1053
 21
-23.0522
  0
LINE
  8
0
 10
81.1053
 20
-23.0522
 11
81.0471
 21
-22.873
  0
LINE
  8
0
 10
81.0471
 20
-22.873
 11
81.0118
 21
-22.688
  0
LINE
  8
0
 10
81.0118
 20
-22.688
 11
81
 21
-22.5
  0
LINE
  8
0
 10
81
 20
-22.5
 11
81.0118
 21
-22.312
  0
LINE
  8
0
 10
81.0118
 20
-22.312
 11
81.0471
 21
-22.127
  0
LINE
  8
0
 10
81.0471
 20
-22.127
 11
81.1053
 21
-21.9478
  0
LINE
  8
0
 10
81.1053
 20
-21.9478
 11
81.1855
 21
-21.7774
  0
LINE
  8
0
 10
81.1855
 20
-21.7774
 11
81.2865
 21
-21.6183
  0
LINE
  8
0
 10
81.2865
 20
-21.6183
 11
81.4065
 21
-21.4732
  0
LINE
  8
0
 10
81.4065
 20
-21.4732
 11
81.5439
 21
-21.3442
  0
LINE
  8
0
 10
81.5439
 20
-21.3442
 11
81.6963
 21
-21.2335
  0
LINE
  8
0
 10
81.6963
 20
-21.2335
 11
81.8613
 21
-21.1427
  0
LINE
  8
0
 10
81.8613
 20
-21.1427
 11
82.0365
 21
-21.0734
  0
LINE
  8
0
 10
82.0365
 20
-21.0734
 11
82.2189
 21
-21.0266
  0
LINE
  8
0
 10
82.2189
 20
-21.0266
 11
82.4058
 21
-21.003
  0
LINE
  8
0
 10
82.4058
 20
-21.003
 11
82.5942
 21
-21.003
  0
LINE
  8
0
 10
82.5942
 20
-21.003
 11
82.7811
 21
-21.0266
  0
LINE
  8
0
 10
82.7811
 20
-21.0266
 11
82.9635
 21
-21.0734
  0
LINE
  8
0
 10
82.9635
 20
-21.0734
 11
83.1387
 21
-21.1427
  0
LINE
  8
0
 10
83.1387
 20
-21.1427
 11
83.3037
 21
-21.2335
  0
LINE
  8
0
 10
83.3037
 20
-21.2335
 11
83.4561
 21
-21.3442
  0
LINE
  8
0
 10
83.4561
 20
-21.3442
 11
83.5934
 21
-21.4732
  0
LINE
  8
0
 10
83.5934
 20
-21.4732
 11
83.7135
 21
-21.6183
  0
LINE
  8
0
 10
83.7135
 20
-21.6183
 11
83.8145
 21
-21.7774
  0
LINE
  8
0
 10
83.8145
 20
-21.7774
 11
83.8947
 21
-21.9478
  0
LINE
  8
0
 10
83.8947
 20
-21.9478
 11
83.9529
 21
-22.127
  0
LINE
  8
0
 10
83.9529
 20
-22.127
 11
83.9882
 21
-22.312
  0
LINE
  8
0
 10
83.9882
 20
-22.312
 11
84
 21
-22.5
  0
LINE
  8
0
 10
84
 20
-22.5
 11
83.9882
 21
-22.688
  0
LINE
  8
0
 10
83.9882
 20
-22.688
 11
83.9529
 21
-22.873
  0
LINE
  8
0
 10
83.9529
 20
-22.873
 11
83.8947
 21
-23.0522
  0
LINE
  8
0
 10
83.8947
 20
-23.0522
 11
83.8145
 21
-23.2226
  0
LINE
  8
0
 10
83.8145
 20
-23.2226
 11
83.7135
 21
-23.3817
  0
LINE
  8
0
 10
83.7135
 20
-23.3817
 11
83.5934
 21
-23.5268
  0
LINE
  8
0
 10
83.5934
 20
-23.5268
 11
83.4561
 21
-23.6558
  0
LINE
  8
0
 10
83.4561
 20
-23.6558
 11
83.3037
 21
-23.7665
  0
LINE
  8
0
 10
83.3037
 20
-23.7665
 11
83.1387
 21
-23.8572
  0
LINE
  8
0
 10
83.1387
 20
-23.8572
 11
82.9635
 21
-23.9266
  0
LINE
  8
0
 10
82.9635
 20
-23.9266
 11
82.7811
 21
-23.9734
  0
LINE
  8
0
 10
82.7811
 20
-23.9734
 11
82.5942
 21
-23.997
  0
LINE
  8
0
 10
82.5942
 20
-23.997
 11
82.4058
 21
-23.997
  0
LINE
  8
0
 10
-82.5942
 20
-23.997
 11
-82.7811
 21
-23.9734
  0
LINE
  8
0
 10
-82.7811
 20
-23.9734
 11
-82.9635
 21
-23.9266
  0
LINE
  8
0
 10
-82.9635
 20
-23.9266
 11
-83.1387
 21
-23.8572
  0
LINE
  8
0
 10
-83.1387
 20
-23.8572
 11
-83.3037
 21
-23.7665
  0
LINE
  8
0
 10
-83.3037
 20
-23.7665
 11
-83.4561
 21
-23.6558
  0
LINE
  8
0
 10
-83.4561
 20
-23.6558
 11
-83.5934
 21
-23.5268
  0
LINE
  8
0
 10
-83.5934
 20
-23.5268
 11
-83.7135
 21
-23.3817
  0
LINE
  8
0
 10
-83.7135
 20
-23.3817
 11
-83.8145
 21
-23.2226
  0
LINE
  8
0
 10
-83.8145
 20
-23.2226
 11
-83.8947
 21
-23.0522
  0
LINE
  8
0
 10
-83.8947
 20
-23.0522
 11
-83.9529
 21
-22.873
  0
LINE
  8
0
 10
-83.9529
 20
-22.873
 11
-83.9882
 21
-22.688
  0
LINE
  8
0
 10
-83.9882
 20
-22.688
 11
-84
 21
-22.5
  0
LINE
  8
0
 10
-84
 20
-22.5
 11
-83.9882
 21
-22.312
  0
LINE
  8
0
 10
-83.9882
 20
-22.312
 11
-83.9529
 21
-22.127
  0
LINE
  8
0
 10
-83.9529
 20
-22.127
 11
-83.8947
 21
-21.9478
  0
LINE
  8
0
 10
-83.8947
 20
-21.9478
 11
-83.8145
 21
-21.7774
  0
LINE
  8
0
 10
-83.8145
 20
-21.7774
 11
-83.7135
 21
-21.6183
  0
LINE
  8
0
 10
-83.7135
 20
-21.6183
 11
-83.5934
 21
-21.4732
  0
LINE
  8
0
 10
-83.5934
 20
-21.4732
 11
-83.4561
 21
-21.3442
  0
LINE
  8
0
 10
-83.4561
 20
-21.3442
 11
-83.3037
 21
-21.2335
  0
LINE
  8
0
 10
-83.3037
 20
-21.2335
 11
-83.1387
 21
-21.1427
  0
LINE
  8
0
 10
-83.1387
 20
-21.1427
 11
-82.9635
 21
-21.0734
  0
LINE
  8
0
 10
-82.9635
 20
-21.0734
 11
-82.7811
 21
-21.0266
  0
LINE
  8
0
 10
-82.7811
 20
-21.0266
 11
-82.5942
 21
-21.003
  0
LINE
  8
0
 10
-82.5942
 20
-21.003
 11
-82.4058
 21
-21.003
  0
LINE
  8
0
 10
-82.4058
 20
-21.003
 11
-82.2189
 21
-21.0266
  0
LINE
  8
0
 10
-82.2189
 20
-21.0266
 11
-82.0365
 21
-21.0734
  0
LINE
  8
0
 10
-82.0365
 20
-21.0734
 11
-81.8613
 21
-21.1427
  0
LINE
  8
0
 10
-81.8613
 20
-21.1427
 11
-81.6963
 21
-21.2335
  0
LINE
  8
0
 10
-81.6963
 20
-21.2335
 11
-81.5439
 21
-21.3442
  0
LINE
  8
0
 10
-81.5439
 20
-21.3442
 11
-81.4065
 21
-21.4732
  0
LINE
  8
0
 10
-81.4065
 20
-21.4732
 11
-81.2865
 21
-21.6183
  0
LINE
  8
0
 10
-81.2865
 20
-21.6183
 11
-81.1855
 21
-21.7774
  0
LINE
  8
0
 10
-81.1855
 20
-21.7774
 11
-81.1053
 21
-21.9478
  0
LINE
  8
0
 10
-81.1053
 20
-21.9478
 11
-81.0471
 21
-22.127
  0
LINE
  8
0
 10
-81.0471
 20
-22.127
 11
-81.0118
 21
-22.312
  0
LINE
  8
0
 10
-81.0118
 20
-22.312
 11
-81
 21
-22.5
  0
LINE
  8
0
 10
-81
 20
-22.5
 11
-81.0118
 21
-22.688
  0
LINE
  8
0
 10
-81.0118
 20
-22.688
 11
-81.0471
 21
-22.873
  0
LINE
  8
0
 10
-81.0471
 20
-22.873
 11
-81.1053
 21
-23.0522
  0
LINE
  8
0
 10
-81.1053
 20
-23.0522
 11
-81.1855
 21
-23.2226
  0
LINE
  8
0
 10
-81.1855
 20
-23.2226
 11
-81.2865
 21
-23.3817
  0
LINE
  8
0
 10
-81.2865
 20
-23.3817
 11
-81.4065
 21
-23.5268
  0
LINE
  8
0
 10
-81.4065
 20
-23.5268
 11
-81.5439
 21
-23.6558
  0
LINE
  8
0
 10
-81.5439
 20
-23.6558
 11
-81.6963
 21
-23.7665
  0
LINE
  8
0
 10
-81.6963
 20
-23.7665
 11
-81.8613
 21
-23.8572
  0
LINE
  8
0
 10
-81.8613
 20
-23.8572
 11
-82.0365
 21
-23.9266
  0
LINE
  8
0
 10
-82.0365
 20
-23.9266
 11
-82.2189
 21
-23.9734
  0
LINE
  8
0
 10
-82.2189
 20
-23.9734
 11
-82.4058
 21
-23.997
  0
LINE
  8
0
 10
-82.4058
 20
-23.997
 11
-82.5942
 21
-23.997
  0
LINE
  8
0
 10
82.3116
 20
-32.9941
 11
81.9379
 21
-32.9469
  0
LINE
  8
0
 10
81.9379
 20
-32.9469
 11
81.573
 21
-32.8532
  0
LINE
  8
0
 10
81.573
 20
-32.8532
 11
81.2227
 21
-32.7145
  0
LINE
  8
0
 10
81.2227
 20
-32.7145
 11
80.8925
 21
-32.533
  0
LINE
  8
0
 10
80.8925
 20
-32.533
 11
80.5877
 21
-32.3115
  0
LINE
  8
0
 10
80.5877
 20
-32.3115
 11
80.3131
 21
-32.0536
  0
LINE
  8
0
 10
80.3131
 20
-32.0536
 11
80.073
 21
-31.7634
  0
LINE
  8
0
 10
80.073
 20
-31.7634
 11
79.8711
 21
-31.4453
  0
LINE
  8
0
 10
79.8711
 20
-31.4453
 11
79.7107
 21
-31.1044
  0
LINE
  8
0
 10
79.7107
 20
-31.1044
 11
79.5943
 21
-30.7461
  0
LINE
  8
0
 10
79.5943
 20
-30.7461
 11
79.5237
 21
-30.376
  0
LINE
  8
0
 10
79.5237
 20
-30.376
 11
79.5
 21
-30
  0
LINE
  8
0
 10
79.5
 20
-30
 11
79.5237
 21
-29.624
  0
LINE
  8
0
 10
79.5237
 20
-29.624
 11
79.5943
 21
-29.2539
  0
LINE
  8
0
 10
79.5943
 20
-29.2539
 11
79.7107
 21
-28.8956
  0
LINE
  8
0
 10
79.7107
 20
-28.8956
 11
79.8711
 21
-28.5547
  0
LINE
  8
0
 10
79.8711
 20
-28.5547
 11
80.073
 21
-28.2366
  0
LINE
  8
0
 10
80.073
 20
-28.2366
 11
80.3131
 21
-27.9464
  0
LINE
  8
0
 10
80.3131
 20
-27.9464
 11
80.5877
 21
-27.6884
  0
LINE
  8
0
 10
80.5877
 20
-27.6884
 11
80.8925
 21
-27.467
  0
LINE
  8
0
 10
80.8925
 20
-27.467
 11
81.2227
 21
-27.2855
  0
LINE
  8
0
 10
81.2227
 20
-27.2855
 11
81.573
 21
-27.1468
  0
LINE
  8
0
 10
81.573
 20
-27.1468
 11
81.9379
 21
-27.0531
  0
LINE
  8
0
 10
81.9379
 20
-27.0531
 11
82.3116
 21
-27.0059
  0
LINE
  8
0
 10
82.3116
 20
-27.0059
 11
82.6884
 21
-27.0059
  0
LINE
  8
0
 10
82.6884
 20
-27.0059
 11
83.0621
 21
-27.0531
  0
LINE
  8
0
 10
83.0621
 20
-27.0531
 11
83.427
 21
-27.1468
  0
LINE
  8
0
 10
83.427
 20
-27.1468
 11
83.7773
 21
-27.2855
  0
LINE
  8
0
 10
83.7773
 20
-27.2855
 11
84.1075
 21
-27.467
  0
LINE
  8
0
 10
84.1075
 20
-27.467
 11
84.4123
 21
-27.6884
  0
LINE
  8
0
 10
84.4123
 20
-27.6884
 11
84.6869
 21
-27.9464
  0
LINE
  8
0
 10
84.6869
 20
-27.9464
 11
84.927
 21
-28.2366
  0
LINE
  8
0
 10
84.927
 20
-28.2366
 11
85.1289
 21
-28.5547
  0
LINE
  8
0
 10
85.1289
 20
-28.5547
 11
85.2893
 21
-28.8956
  0
LINE
  8
0
 10
85.2893
 20
-28.8956
 11
85.4057
 21
-29.2539
  0
LINE
  8
0
 10
85.4057
 20
-29.2539
 11
85.4763
 21
-29.624
  0
LINE
  8
0
 10
85.4763
 20
-29.624
 11
85.5
 21
-30
  0
LINE
  8
0
 10
85.5
 20
-30
 11
85.4763
 21
-30.376
  0
LINE
  8
0
 10
85.4763
 20
-30.376
 11
85.4057
 21
-30.7461
  0
LINE
  8
0
 10
85.4057
 20
-30.7461
 11
85.2893
 21
-31.1044
  0
LINE
  8
0
 10
85.2893
 20
-31.1044
 11
85.1289
 21
-31.4453
  0
LINE
  8
0
 10
85.1289
 20
-31.4453
 11
84.927
 21
-31.7634
  0
LINE
  8
0
 10
84.927
 20
-31.7634
 11
84.6869
 21
-32.0536
  0
LINE
  8
0
 10
84.6869
 20
-32.0536
 11
84.4123
 21
-32.3115
  0
LINE
  8
0
 10
84.4123
 20
-32.3115
 11
84.1075
 21
-32.533
  0
LINE
  8
0
 10
84.1075
 20
-32.533
 11
83.7773
 21
-32.7145
  0
LINE
  8
0
 10
83.7773
 20
-32.7145
 11
83.427
 21
-32.8532
  0
LINE
  8
0
 10
83.427
 20
-32.8532
 11
83.0621
 21
-32.9469
  0
LINE
  8
0
 10
83.0621
 20
-32.9469
 11
82.6884
 21
-32.9941
  0
LINE
  8
0
 10
82.6884
 20
-32.9941
 11
82.3116
 21
-32.9941
  0
LINE
  8
0
 10
-82.6884
 20
-32.9941
 11
-83.0621
 21
-32.9469
  0
LINE
  8
0
 10
-83.0621
 20
-32.9469
 11
-83.427
 21
-32.8532
  0
LINE
  8
0
 10
-83.427
 20
-32.8532
 11
-83.7773
 21
-32.7145
  0
LINE
  8
0
 10
-83.7773
 20
-32.7145
 11
-84.1075
 21
-32.533
  0
LINE
  8
0
 10
-84.1075
 20
-32.533
 11
-84.4123
 21
-32.3115
  0
LINE
  8
0
 10
-84.4123
 20
-32.3115
 11
-84.6869
 21
-32.0536
  0
LINE
  8
0
 10
-84.6869
 20
-32.0536
 11
-84.927
 21
-31.7634
  0
LINE
  8
0
 10
-84.927
 20
-31.7634
 11
-85.1289
 21
-31.4453
  0
LINE
  8
0
 10
-85.1289
 20
-31.4453
 11
-85.2893
 21
-31.1044
  0
LINE
  8
0
 10
-85.2893
 20
-31.1044
 11
-85.4057
 21
-30.7461
  0
LINE
  8
0
 10
-85.4057
 20
-30.7461
 11
-85.4763
 21
-30.376
  0
LINE
  8
0
 10
-85.4763
 20
-30.376
 11
-85.5
 21
-30
  0
LINE
  8
0
 10
-85.5
 20
-30
 11
-85.4763
 21
-29.624
  0
LINE
  8
0
 10
-85.4763
 20
-29.624
 11
-85.4057
 21
-29.2539
  0
LINE
  8
0
 10
-85.4057
 20
-29.2539
 11
-85.2893
 21
-28.8956
  0
LINE
  8
0
 10
-85.2893
 20
-28.8956
 11
-85.1289
 21
-28.5547
  0
LINE
  8
0
 10
-85.1289
 20
-28.5547
 11
-84.927
 21
-28.2366
  0
LINE
  8
0
 10
-84.927
 20
-28.2366
 11
-84.6869
 21
-27.9464
  0
LINE
  8
0
 10
-84.6869
 20
-27.9464
 11
-84.4123
 21
-27.6884
  0
LINE
  8
0
 10
-84.4123
 20
-27.6884
 11
-84.1075
 21
-27.467
  0
LINE
  8
0
 10
-84.1075
 20
-27.467
 11
-83.7773
 21
-27.2855
  0
LINE
  8
0
 10
-83.7773
 20
-27.2855
 11
-83.427
 21
-27.1468
  0
LINE
  8
0
 10
-83.427
 20
-27.1468
 11
-83.0621
 21
-27.0531
  0
LINE
  8
0
 10
-83.0621
 20
-27.0531
 11
-82.6884
 21
-27.0059
  0
LINE
  8
0
 10
-82.6884
 20
-27.0059
 11
-82.3116
 21
-27.0059
  0
LINE
  8
0
 10
-82.3116
 20
-27.0059
 11
-81.9379
 21
-27.0531
  0
LINE
  8
0
 10
-81.9379
 20
-27.0531
 11
-81.573
 21
-27.1468
  0
LINE
  8
0
 10
-81.573
 20
-27.1468
 11
-81.2227
 21
-27.2855
  0
LINE
  8
0
 10
-81.2227
 20
-27.2855
 11
-80.8925
 21
-27.467
  0
LINE
  8
0
 10
-80.8925
 20
-27.467
 11
-80.5877
 21
-27.6884
  0
LINE
  8
0
 10
-80.5877
 20
-27.6884
 11
-80.3131
 21
-27.9464
  0
LINE
  8
0
 10
-80.3131
 20
-27.9464
 11
-80.073
 21
-28.2366
  0
LINE
  8
0
 10
-80.073
 20
-28.2366
 11
-79.8711
 21
-28.5547
  0
LINE
  8
0
 10
-79.8711
 20
-28.5547
 11
-79.7107
 21
-28.8956
  0
LINE
  8
0
 10
-79.7107
 20
-28.8956
 11
-79.5943
 21
-29.2539
  0
LINE
  8
0
 10
-79.5943
 20
-29.2539
 11
-79.5237
 21
-29.624
  0
LINE
  8
0
 10
-79.5237
 20
-29.624
 11
-79.5
 21
-30
  0
LINE
  8
0
 10
-79.5
 20
-30
 11
-79.5237
 21
-30.376
  0
LINE
  8
0
 10
-79.5237
 20
-30.376
 11
-79.5943
 21
-30.7461
  0
LINE
  8
0
 10
-79.5943
 20
-30.7461
 11
-79.7107
 21
-31.1044
  0
LINE
  8
0
 10
-79.7107
 20
-31.1044
 11
-79.8711
 21
-31.4453
  0
LINE
  8
0
 10
-79.8711
 20
-31.4453
 11
-80.073
 21
-31.7634
  0
LINE
  8
0
 10
-80.073
 20
-31.7634
 11
-80.3131
 21
-32.0536
  0
LINE
  8
0
 10
-80.3131
 20
-32.0536
 11
-80.5877
 21
-32.3115
  0
LINE
  8
0
 10
-80.5877
 20
-32.3115
 11
-80.8925
 21
-32.533
  0
LINE
  8
0
 10
-80.8925
 20
-32.533
 11
-81.2227
 21
-32.7145
  0
LINE
  8
0
 10
-81.2227
 20
-32.7145
 11
-81.573
 21
-32.8532
  0
LINE
  8
0
 10
-81.573
 20
-32.8532
 11
-81.9379
 21
-32.9469
  0
LINE
  8
0
 10
-81.9379
 20
-32.9469
 11
-82.3116
 21
-32.9941
  0
LINE
  8
0
 10
-82.3116
 20
-32.9941
 11
-82.6884
 21
-32.9941
  0
LINE
  8
0
 10
-79.7107
 20
13.8956
 11
-79.8711
 21
13.5547
  0
LINE
  8
0
 10
-79.8711
 20
13.5547
 11
-80.073
 21
13.2366
  0
LINE
  8
0
 10
-80.073
 20
13.2366
 11
-80.3131
 21
12.9464
  0
LINE
  8
0
 10
-80.3131
 20
12.9464
 11
-80.5877
 21
12.6884
  0
LINE
  8
0
 10
-80.5877
 20
12.6884
 11
-80.8925
 21
12.467
  0
LINE
  8
0
 10
-80.8925
 20
12.467
 11
-81.2227
 21
12.2855
  0
LINE
  8
0
 10
-81.2227
 20
12.2855
 11
-81.573
 21
12.1468
  0
LINE
  8
0
 10
-81.573
 20
12.1468
 11
-81.9379
 21
12.0531
  0
LINE
  8
0
 10
-81.9379
 20
12.0531
 11
-82.3116
 21
12.0059
  0
LINE
  8
0
 10
-82.3116
 20
12.0059
 11
-82.6884
 21
12.0059
  0
LINE
  8
0
 10
-82.6884
 20
12.0059
 11
-83.0621
 21
12.0531
  0
LINE
  8
0
 10
-83.0621
 20
12.0531
 11
-83.427
 21
12.1468
  0
LINE
  8
0
 10
-83.427
 20
12.1468
 11
-83.7773
 21
12.2855
  0
LINE
  8
0
 10
-83.7773
 20
12.2855
 11
-84.1075
 21
12.467
  0
LINE
  8
0
 10
-84.1075
 20
12.467
 11
-84.4123
 21
12.6884
  0
LINE
  8
0
 10
-84.4123
 20
12.6884
 11
-84.6869
 21
12.9464
  0
LINE
  8
0
 10
-84.6869
 20
12.9464
 11
-84.927
 21
13.2366
  0
LINE
  8
0
 10
-84.927
 20
13.2366
 11
-85.1289
 21
13.5547
  0
LINE
  8
0
 10
-85.1289
 20
13.5547
 11
-85.2893
 21
13.8956
  0
LINE
  8
0
 10
-85.2893
 20
13.8956
 11
-85.4057
 21
14.2539
  0
LINE
  8
0
 10
-85.4057
 20
14.2539
 11
-85.4763
 21
14.624
  0
LINE
  8
0
 10
-85.4763
 20
14.624
 11
-85.5
 21
15
  0
LINE
  8
0
 10
-85.5
 20
15
 11
-85.4763
 21
15.376
  0
LINE
  8
0
 10
-85.4763
 20
15.376
 11
-85.4057
 21
15.7461
  0
LINE
  8
0
 10
-85.4057
 20
15.7461
 11
-85.2893
 21
16.1044
  0
LINE
  8
0
 10
-85.2893
 20
16.1044
 11
-85.1289
 21
16.4453
  0
LINE
  8
0
 10
-85.1289
 20
16.4453
 11
-84.927
 21
16.7634
  0
LINE
  8
0
 10
-84.927
 20
16.7634
 11
-84.6869
 21
17.0536
  0
LINE
  8
0
 10
-84.6869
 20
17.0536
 11
-84.4123
 21
17.3115
  0
LINE
  8
0
 10
-84.4123
 20
17.3115
 11
-84.1075
 21
17.533
  0
LINE
  8
0
 10
-84.1075
 20
17.533
 11
-83.7773
 21
17.7145
  0
LINE
  8
0
 10
-83.7773
 20
17.7145
 11
-83.427
 21
17.8532
  0
LINE
  8
0
 10
-83.427
 20
17.8532
 11
-83.0621
 21
17.9469
  0
LINE
  8
0
 10
-83.0621
 20
17.9469
 11
-82.6884
 21
17.9941
  0
LINE
  8
0
 10
-82.6884
 20
17.9941
 11
-82.3116
 21
17.9941
  0
LINE
  8
0
 10
-82.3116
 20
17.9941
 11
-81.9379
 21
17.9469
  0
LINE
  8
0
 10
-81.9379
 20
17.9469
 11
-81.573
 21
17.8532
  0
LINE
  8
0
 10
-81.573
 20
17.8532
 11
-81.2227
 21
17.7145
  0
LINE
  8
0
 10
-81.2227
 20
17.7145
 11
-80.8925
 21
17.533
  0
LINE
  8
0
 10
-80.8925
 20
17.533
 11
-80.5877
 21
17.3115
  0
LINE
  8
0
 10
-80.5877
 20
17.3115
 11
-80.3131
 21
17.0536
  0
LINE
  8
0
 10
-80.3131
 20
17.0536
 11
-80.073
 21
16.7634
  0
LINE
  8
0
 10
-80.073
 20
16.7634
 11
-79.8711
 21
16.4453
  0
LINE
  8
0
 10
-79.8711
 20
16.4453
 11
-79.7107
 21
16.1044
  0
LINE
  8
0
 10
-79.7107
 20
16.1044
 11
-79.5943
 21
15.7461
  0
LINE
  8
0
 10
-79.5943
 20
15.7461
 11
-79.5237
 21
15.376
  0
LINE
  8
0
 10
-79.5237
 20
15.376
 11
-79.5
 21
15
  0
LINE
  8
0
 10
-79.5
 20
15
 11
-79.5237
 21
14.624
  0
LINE
  8
0
 10
-79.5237
 20
14.624
 11
-79.5943
 21
14.2539
  0
LINE
  8
0
 10
-79.5943
 20
14.2539
 11
-79.7107
 21
13.8956
  0
LINE
  8
0
 10
-79.5237
 20
-0.375992
 11
-79.5943
 21
-0.746063
  0
LINE
  8
0
 10
-79.5943
 20
-0.746063
 11
-79.7107
 21
-1.10437
  0
LINE
  8
0
 10
-79.7107
 20
-1.10437
 11
-79.8711
 21
-1.44525
  0
LINE
  8
0
 10
-79.8711
 20
-1.44525
 11
-80.073
 21
-1.76335
  0
LINE
  8
0
 10
-80.073
 20
-1.76335
 11
-80.3131
 21
-2.05363
  0
LINE
  8
0
 10
-80.3131
 20
-2.05363
 11
-80.5877
 21
-2.31154
  0
LINE
  8
0
 10
-80.5877
 20
-2.31154
 11
-80.8925
 21
-2.53297
  0
LINE
  8
0
 10
-80.8925
 20
-2.53297
 11
-81.2227
 21
-2.71448
  0
LINE
  8
0
 10
-81.2227
 20
-2.71448
 11
-81.573
 21
-2.85316
  0
LINE
  8
0
 10
-81.573
 20
-2.85316
 11
-81.9379
 21
-2.94685
  0
LINE
  8
0
 10
-81.9379
 20
-2.94685
 11
-82.3116
 21
-2.99408
  0
LINE
  8
0
 10
-82.3116
 20
-2.99408
 11
-82.6884
 21
-2.99408
  0
LINE
  8
0
 10
-82.6884
 20
-2.99408
 11
-83.0621
 21
-2.94685
  0
LINE
  8
0
 10
-83.0621
 20
-2.94685
 11
-83.427
 21
-2.85316
  0
LINE
  8
0
 10
-83.427
 20
-2.85316
 11
-83.7773
 21
-2.71448
  0
LINE
  8
0
 10
-83.7773
 20
-2.71448
 11
-84.1075
 21
-2.53297
  0
LINE
  8
0
 10
-84.1075
 20
-2.53297
 11
-84.4123
 21
-2.31154
  0
LINE
  8
0
 10
-84.4123
 20
-2.31154
 11
-84.6869
 21
-2.05363
  0
LINE
  8
0
 10
-84.6869
 20
-2.05363
 11
-84.927
 21
-1.76335
  0
LINE
  8
0
 10
-84.927
 20
-1.76335
 11
-85.1289
 21
-1.44525
  0
LINE
  8
0
 10
-85.1289
 20
-1.44525
 11
-85.2893
 21
-1.10437
  0
LINE
  8
0
 10
-85.2893
 20
-1.10437
 11
-85.4057
 21
-0.746063
  0
LINE
  8
0
 10
-85.4057
 20
-0.746063
 11
-85.4763
 21
-0.375992
  0
LINE
  8
0
 10
-85.4763
 20
-0.375992
 11
-85.5
 21
0
  0
LINE
  8
0
 10
-85.5
 20
0
 11
-85.4763
 21
0.375992
  0
LINE
  8
0
 10
-85.4763
 20
0.375992
 11
-85.4057
 21
0.746063
  0
LINE
  8
0
 10
-85.4057
 20
0.746063
 11
-85.2893
 21
1.10437
  0
LINE
  8
0
 10
-85.2893
 20
1.10437
 11
-85.1289
 21
1.44525
  0
LINE
  8
0
 10
-85.1289
 20
1.44525
 11
-84.927
 21
1.76335
  0
LINE
  8
0
 10
-84.927
 20
1.76335
 11
-84.6869
 21
2.05363
  0
LINE
  8
0
 10
-84.6869
 20
2.05363
 11
-84.4123
 21
2.31154
  0
LINE
  8
0
 10
-84.4123
 20
2.31154
 11
-84.1075
 21
2.53297
  0
LINE
  8
0
 10
-84.1075
 20
2.53297
 11
-83.7773
 21
2.71448
  0
LINE
  8
0
 10
-83.7773
 20
2.71448
 11
-83.427
 21
2.85316
  0
LINE
  8
0
 10
-83.427
 20
2.85316
 11
-83.0621
 21
2.94685
  0
LINE
  8
0
 10
-83.0621
 20
2.94685
 11
-82.6884
 21
2.99408
  0
LINE
  8
0
 10
-82.6884
 20
2.99408
 11
-82.3116
 21
2.99408
  0
LINE
  8
0
 10
-82.3116
 20
2.99408
 11
-81.9379
 21
2.94685
  0
LINE
  8
0
 10
-81.9379
 20
2.94685
 11
-81.573
 21
2.85316
  0
LINE
  8
0
 10
-81.573
 20
2.85316
 11
-81.2227
 21
2.71448
  0
LINE
  8
0
 10
-81.2227
 20
2.71448
 11
-80.8925
 21
2.53297
  0
LINE
  8
0
 10
-80.8925
 20
2.53297
 11
-80.5877
 21
2.31154
  0
LINE
  8
0
 10
-80.5877
 20
2.31154
 11
-80.3131
 21
2.05363
  0
LINE
  8
0
 10
-80.3131
 20
2.05363
 11
-80.073
 21
1.76335
  0
LINE
  8
0
 10
-80.073
 20
1.76335
 11
-79.8711
 21
1.44525
  0
LINE
  8
0
 10
-79.8711
 20
1.44525
 11
-79.7107
 21
1.10437
  0
LINE
  8
0
 10
-79.7107
 20
1.10437
 11
-79.5943
 21
0.746063
  0
LINE
  8
0
 10
-79.5943
 20
0.746063
 11
-79.5237
 21
0.375992
  0
LINE
  8
0
 10
-79.5237
 20
0.375992
 11
-79.5
 21
0
  0
LINE
  8
0
 10
-79.5
 20
0
 11
-79.5237
 21
-0.375992
  0
ENDSEC
  0
SECTION
  2
OBJECTS
  0
DICTIONARY
  0
ENDSEC
  0
EOF
