  0
SECTION
  2
BLOCKS
  0
ENDSEC
  0
SECTION
  2
ENTITIES
  0
LINE
  8
0
 10
190.437
 20
-6.91142
 11
191.045
 21
-6.75528
  0
LINE
  8
0
 10
191.045
 20
-6.75528
 11
191.629
 21
-6.52412
  0
LINE
  8
0
 10
191.629
 20
-6.52412
 11
192.179
 21
-6.22163
  0
LINE
  8
0
 10
192.179
 20
-6.22163
 11
192.687
 21
-5.85255
  0
LINE
  8
0
 10
192.687
 20
-5.85255
 11
193.145
 21
-5.42273
  0
LINE
  8
0
 10
193.145
 20
-5.42273
 11
193.545
 21
-4.93892
  0
LINE
  8
0
 10
193.545
 20
-4.93892
 11
193.882
 21
-4.40877
  0
LINE
  8
0
 10
193.882
 20
-4.40877
 11
194.149
 21
-3.84062
  0
LINE
  8
0
 10
194.149
 20
-3.84062
 11
194.343
 21
-3.24344
  0
LINE
  8
0
 10
194.343
 20
-3.24344
 11
194.461
 21
-2.62666
  0
LINE
  8
0
 10
194.461
 20
-2.62666
 11
194.5
 21
-2
  0
LINE
  8
0
 10
194.5
 20
-2
 11
194.5
 21
2
  0
LINE
  8
0
 10
194.5
 20
2
 11
194.461
 21
2.62666
  0
LINE
  8
0
 10
194.461
 20
2.62666
 11
194.343
 21
3.24344
  0
LINE
  8
0
 10
194.343
 20
3.24344
 11
194.149
 21
3.84062
  0
LINE
  8
0
 10
194.149
 20
3.84062
 11
193.882
 21
4.40877
  0
LINE
  8
0
 10
193.882
 20
4.40877
 11
193.545
 21
4.93892
  0
LINE
  8
0
 10
193.545
 20
4.93892
 11
193.145
 21
5.42273
  0
LINE
  8
0
 10
193.145
 20
5.42273
 11
192.687
 21
5.85255
  0
LINE
  8
0
 10
192.687
 20
5.85255
 11
192.179
 21
6.22163
  0
LINE
  8
0
 10
192.179
 20
6.22163
 11
191.629
 21
6.52412
  0
LINE
  8
0
 10
191.629
 20
6.52412
 11
191.045
 21
6.75528
  0
LINE
  8
0
 10
191.045
 20
6.75528
 11
190.437
 21
6.91142
  0
LINE
  8
0
 10
190.437
 20
6.91142
 11
189.814
 21
6.99013
  0
LINE
  8
0
 10
189.814
 20
6.99013
 11
-189.814
 21
6.99013
  0
LINE
  8
0
 10
-189.814
 20
6.99013
 11
-190.437
 21
6.91142
  0
LINE
  8
0
 10
-190.437
 20
6.91142
 11
-191.045
 21
6.75528
  0
LINE
  8
0
 10
-191.045
 20
6.75528
 11
-191.629
 21
6.52412
  0
LINE
  8
0
 10
-191.629
 20
6.52412
 11
-192.179
 21
6.22163
  0
LINE
  8
0
 10
-192.179
 20
6.22163
 11
-192.687
 21
5.85255
  0
LINE
  8
0
 10
-192.687
 20
5.85255
 11
-193.145
 21
5.42273
  0
LINE
  8
0
 10
-193.145
 20
5.42273
 11
-193.545
 21
4.93892
  0
LINE
  8
0
 10
-193.545
 20
4.93892
 11
-193.882
 21
4.40877
  0
LINE
  8
0
 10
-193.882
 20
4.40877
 11
-194.149
 21
3.84062
  0
LINE
  8
0
 10
-194.149
 20
3.84062
 11
-194.343
 21
3.24344
  0
LINE
  8
0
 10
-194.343
 20
3.24344
 11
-194.461
 21
2.62666
  0
LINE
  8
0
 10
-194.461
 20
2.62666
 11
-194.5
 21
2
  0
LINE
  8
0
 10
-194.5
 20
2
 11
-194.5
 21
-2
  0
LINE
  8
0
 10
-194.5
 20
-2
 11
-194.461
 21
-2.62666
  0
LINE
  8
0
 10
-194.461
 20
-2.62666
 11
-194.343
 21
-3.24344
  0
LINE
  8
0
 10
-194.343
 20
-3.24344
 11
-194.149
 21
-3.84062
  0
LINE
  8
0
 10
-194.149
 20
-3.84062
 11
-193.882
 21
-4.40877
  0
LINE
  8
0
 10
-193.882
 20
-4.40877
 11
-193.545
 21
-4.93892
  0
LINE
  8
0
 10
-193.545
 20
-4.93892
 11
-193.145
 21
-5.42273
  0
LINE
  8
0
 10
-193.145
 20
-5.42273
 11
-192.687
 21
-5.85255
  0
LINE
  8
0
 10
-192.687
 20
-5.85255
 11
-192.179
 21
-6.22163
  0
LINE
  8
0
 10
-192.179
 20
-6.22163
 11
-191.629
 21
-6.52412
  0
LINE
  8
0
 10
-191.629
 20
-6.52412
 11
-191.045
 21
-6.75528
  0
LINE
  8
0
 10
-191.045
 20
-6.75528
 11
-190.437
 21
-6.91142
  0
LINE
  8
0
 10
-190.437
 20
-6.91142
 11
-189.814
 21
-6.99013
  0
LINE
  8
0
 10
-189.814
 20
-6.99013
 11
189.814
 21
-6.99013
  0
LINE
  8
0
 10
189.814
 20
-6.99013
 11
190.437
 21
-6.91142
  0
LINE
  8
0
 10
-187.688
 20
-2.99408
 11
-188.062
 21
-2.94685
  0
LINE
  8
0
 10
-188.062
 20
-2.94685
 11
-188.427
 21
-2.85316
  0
LINE
  8
0
 10
-188.427
 20
-2.85316
 11
-188.777
 21
-2.71448
  0
LINE
  8
0
 10
-188.777
 20
-2.71448
 11
-189.107
 21
-2.53297
  0
LINE
  8
0
 10
-189.107
 20
-2.53297
 11
-189.412
 21
-2.31154
  0
LINE
  8
0
 10
-189.412
 20
-2.31154
 11
-189.687
 21
-2.05363
  0
LINE
  8
0
 10
-189.687
 20
-2.05363
 11
-189.927
 21
-1.76335
  0
LINE
  8
0
 10
-189.927
 20
-1.76335
 11
-190.129
 21
-1.44525
  0
LINE
  8
0
 10
-190.129
 20
-1.44525
 11
-190.289
 21
-1.10437
  0
LINE
  8
0
 10
-190.289
 20
-1.10437
 11
-190.406
 21
-0.746063
  0
LINE
  8
0
 10
-190.406
 20
-0.746063
 11
-190.476
 21
-0.375992
  0
LINE
  8
0
 10
-190.476
 20
-0.375992
 11
-190.5
 21
0
  0
LINE
  8
0
 10
-190.5
 20
0
 11
-190.476
 21
0.375992
  0
LINE
  8
0
 10
-190.476
 20
0.375992
 11
-190.406
 21
0.746063
  0
LINE
  8
0
 10
-190.406
 20
0.746063
 11
-190.289
 21
1.10437
  0
LINE
  8
0
 10
-190.289
 20
1.10437
 11
-190.129
 21
1.44525
  0
LINE
  8
0
 10
-190.129
 20
1.44525
 11
-189.927
 21
1.76335
  0
LINE
  8
0
 10
-189.927
 20
1.76335
 11
-189.687
 21
2.05363
  0
LINE
  8
0
 10
-189.687
 20
2.05363
 11
-189.412
 21
2.31154
  0
LINE
  8
0
 10
-189.412
 20
2.31154
 11
-189.107
 21
2.53297
  0
LINE
  8
0
 10
-189.107
 20
2.53297
 11
-188.777
 21
2.71448
  0
LINE
  8
0
 10
-188.777
 20
2.71448
 11
-188.427
 21
2.85316
  0
LINE
  8
0
 10
-188.427
 20
2.85316
 11
-188.062
 21
2.94685
  0
LINE
  8
0
 10
-188.062
 20
2.94685
 11
-187.688
 21
2.99408
  0
LINE
  8
0
 10
-187.688
 20
2.99408
 11
-187.312
 21
2.99408
  0
LINE
  8
0
 10
-187.312
 20
2.99408
 11
-186.938
 21
2.94685
  0
LINE
  8
0
 10
-186.938
 20
2.94685
 11
-186.573
 21
2.85316
  0
LINE
  8
0
 10
-186.573
 20
2.85316
 11
-186.223
 21
2.71448
  0
LINE
  8
0
 10
-186.223
 20
2.71448
 11
-185.893
 21
2.53297
  0
LINE
  8
0
 10
-185.893
 20
2.53297
 11
-185.588
 21
2.31154
  0
LINE
  8
0
 10
-185.588
 20
2.31154
 11
-185.313
 21
2.05363
  0
LINE
  8
0
 10
-185.313
 20
2.05363
 11
-185.073
 21
1.76335
  0
LINE
  8
0
 10
-185.073
 20
1.76335
 11
-184.871
 21
1.44525
  0
LINE
  8
0
 10
-184.871
 20
1.44525
 11
-184.711
 21
1.10437
  0
LINE
  8
0
 10
-184.711
 20
1.10437
 11
-184.594
 21
0.746063
  0
LINE
  8
0
 10
-184.594
 20
0.746063
 11
-184.524
 21
0.375992
  0
LINE
  8
0
 10
-184.524
 20
0.375992
 11
-184.5
 21
0
  0
LINE
  8
0
 10
-184.5
 20
0
 11
-184.524
 21
-0.375992
  0
LINE
  8
0
 10
-184.524
 20
-0.375992
 11
-184.594
 21
-0.746063
  0
LINE
  8
0
 10
-184.594
 20
-0.746063
 11
-184.711
 21
-1.10437
  0
LINE
  8
0
 10
-184.711
 20
-1.10437
 11
-184.871
 21
-1.44525
  0
LINE
  8
0
 10
-184.871
 20
-1.44525
 11
-185.073
 21
-1.76335
  0
LINE
  8
0
 10
-185.073
 20
-1.76335
 11
-185.313
 21
-2.05363
  0
LINE
  8
0
 10
-185.313
 20
-2.05363
 11
-185.588
 21
-2.31154
  0
LINE
  8
0
 10
-185.588
 20
-2.31154
 11
-185.893
 21
-2.53297
  0
LINE
  8
0
 10
-185.893
 20
-2.53297
 11
-186.223
 21
-2.71448
  0
LINE
  8
0
 10
-186.223
 20
-2.71448
 11
-186.573
 21
-2.85316
  0
LINE
  8
0
 10
-186.573
 20
-2.85316
 11
-186.938
 21
-2.94685
  0
LINE
  8
0
 10
-186.938
 20
-2.94685
 11
-187.312
 21
-2.99408
  0
LINE
  8
0
 10
-187.312
 20
-2.99408
 11
-187.688
 21
-2.99408
  0
ENDSEC
  0
SECTION
  2
OBJECTS
  0
DICTIONARY
  0
ENDSEC
  0
EOF
