  0
SECTION
  2
BLOCKS
  0
ENDSEC
  0
SECTION
  2
ENTITIES
  0
LINE
  8
0
 10
145.437
 20
-36.9114
 11
146.045
 21
-36.7553
  0
LINE
  8
0
 10
146.045
 20
-36.7553
 11
146.629
 21
-36.5241
  0
LINE
  8
0
 10
146.629
 20
-36.5241
 11
147.179
 21
-36.2216
  0
LINE
  8
0
 10
147.179
 20
-36.2216
 11
147.687
 21
-35.8526
  0
LINE
  8
0
 10
147.687
 20
-35.8526
 11
148.145
 21
-35.4227
  0
LINE
  8
0
 10
148.145
 20
-35.4227
 11
148.545
 21
-34.9389
  0
LINE
  8
0
 10
148.545
 20
-34.9389
 11
148.882
 21
-34.4088
  0
LINE
  8
0
 10
148.882
 20
-34.4088
 11
149.149
 21
-33.8406
  0
LINE
  8
0
 10
149.149
 20
-33.8406
 11
149.343
 21
-33.2434
  0
LINE
  8
0
 10
149.343
 20
-33.2434
 11
149.461
 21
-32.6267
  0
LINE
  8
0
 10
149.461
 20
-32.6267
 11
149.5
 21
-32
  0
LINE
  8
0
 10
149.5
 20
-32
 11
149.5
 21
32
  0
LINE
  8
0
 10
149.5
 20
32
 11
149.461
 21
32.6267
  0
LINE
  8
0
 10
149.461
 20
32.6267
 11
149.343
 21
33.2434
  0
LINE
  8
0
 10
149.343
 20
33.2434
 11
149.149
 21
33.8406
  0
LINE
  8
0
 10
149.149
 20
33.8406
 11
148.882
 21
34.4088
  0
LINE
  8
0
 10
148.882
 20
34.4088
 11
148.545
 21
34.9389
  0
LINE
  8
0
 10
148.545
 20
34.9389
 11
148.145
 21
35.4227
  0
LINE
  8
0
 10
148.145
 20
35.4227
 11
147.687
 21
35.8526
  0
LINE
  8
0
 10
147.687
 20
35.8526
 11
147.179
 21
36.2216
  0
LINE
  8
0
 10
147.179
 20
36.2216
 11
146.629
 21
36.5241
  0
LINE
  8
0
 10
146.629
 20
36.5241
 11
146.045
 21
36.7553
  0
LINE
  8
0
 10
146.045
 20
36.7553
 11
145.437
 21
36.9114
  0
LINE
  8
0
 10
145.437
 20
36.9114
 11
144.814
 21
36.9901
  0
LINE
  8
0
 10
144.814
 20
36.9901
 11
-144.814
 21
36.9901
  0
LINE
  8
0
 10
-144.814
 20
36.9901
 11
-145.437
 21
36.9114
  0
LINE
  8
0
 10
-145.437
 20
36.9114
 11
-146.045
 21
36.7553
  0
LINE
  8
0
 10
-146.045
 20
36.7553
 11
-146.629
 21
36.5241
  0
LINE
  8
0
 10
-146.629
 20
36.5241
 11
-147.179
 21
36.2216
  0
LINE
  8
0
 10
-147.179
 20
36.2216
 11
-147.687
 21
35.8526
  0
LINE
  8
0
 10
-147.687
 20
35.8526
 11
-148.145
 21
35.4227
  0
LINE
  8
0
 10
-148.145
 20
35.4227
 11
-148.545
 21
34.9389
  0
LINE
  8
0
 10
-148.545
 20
34.9389
 11
-148.882
 21
34.4088
  0
LINE
  8
0
 10
-148.882
 20
34.4088
 11
-149.149
 21
33.8406
  0
LINE
  8
0
 10
-149.149
 20
33.8406
 11
-149.343
 21
33.2434
  0
LINE
  8
0
 10
-149.343
 20
33.2434
 11
-149.461
 21
32.6267
  0
LINE
  8
0
 10
-149.461
 20
32.6267
 11
-149.5
 21
32
  0
LINE
  8
0
 10
-149.5
 20
32
 11
-149.5
 21
-32
  0
LINE
  8
0
 10
-149.5
 20
-32
 11
-149.461
 21
-32.6267
  0
LINE
  8
0
 10
-149.461
 20
-32.6267
 11
-149.343
 21
-33.2434
  0
LINE
  8
0
 10
-149.343
 20
-33.2434
 11
-149.149
 21
-33.8406
  0
LINE
  8
0
 10
-149.149
 20
-33.8406
 11
-148.882
 21
-34.4088
  0
LINE
  8
0
 10
-148.882
 20
-34.4088
 11
-148.545
 21
-34.9389
  0
LINE
  8
0
 10
-148.545
 20
-34.9389
 11
-148.145
 21
-35.4227
  0
LINE
  8
0
 10
-148.145
 20
-35.4227
 11
-147.687
 21
-35.8526
  0
LINE
  8
0
 10
-147.687
 20
-35.8526
 11
-147.179
 21
-36.2216
  0
LINE
  8
0
 10
-147.179
 20
-36.2216
 11
-146.629
 21
-36.5241
  0
LINE
  8
0
 10
-146.629
 20
-36.5241
 11
-146.045
 21
-36.7553
  0
LINE
  8
0
 10
-146.045
 20
-36.7553
 11
-145.437
 21
-36.9114
  0
LINE
  8
0
 10
-145.437
 20
-36.9114
 11
-144.814
 21
-36.9901
  0
LINE
  8
0
 10
-144.814
 20
-36.9901
 11
144.814
 21
-36.9901
  0
LINE
  8
0
 10
144.814
 20
-36.9901
 11
145.437
 21
-36.9114
  0
LINE
  8
0
 10
142.312
 20
27.0059
 11
141.938
 21
27.0531
  0
LINE
  8
0
 10
141.938
 20
27.0531
 11
141.573
 21
27.1468
  0
LINE
  8
0
 10
141.573
 20
27.1468
 11
141.223
 21
27.2855
  0
LINE
  8
0
 10
141.223
 20
27.2855
 11
140.893
 21
27.467
  0
LINE
  8
0
 10
140.893
 20
27.467
 11
140.588
 21
27.6884
  0
LINE
  8
0
 10
140.588
 20
27.6884
 11
140.313
 21
27.9464
  0
LINE
  8
0
 10
140.313
 20
27.9464
 11
140.073
 21
28.2366
  0
LINE
  8
0
 10
140.073
 20
28.2366
 11
139.871
 21
28.5547
  0
LINE
  8
0
 10
139.871
 20
28.5547
 11
139.711
 21
28.8956
  0
LINE
  8
0
 10
139.711
 20
28.8956
 11
139.594
 21
29.2539
  0
LINE
  8
0
 10
139.594
 20
29.2539
 11
139.524
 21
29.624
  0
LINE
  8
0
 10
139.524
 20
29.624
 11
139.5
 21
30
  0
LINE
  8
0
 10
139.5
 20
30
 11
139.524
 21
30.376
  0
LINE
  8
0
 10
139.524
 20
30.376
 11
139.594
 21
30.7461
  0
LINE
  8
0
 10
139.594
 20
30.7461
 11
139.711
 21
31.1044
  0
LINE
  8
0
 10
139.711
 20
31.1044
 11
139.871
 21
31.4453
  0
LINE
  8
0
 10
139.871
 20
31.4453
 11
140.073
 21
31.7634
  0
LINE
  8
0
 10
140.073
 20
31.7634
 11
140.313
 21
32.0536
  0
LINE
  8
0
 10
140.313
 20
32.0536
 11
140.588
 21
32.3115
  0
LINE
  8
0
 10
140.588
 20
32.3115
 11
140.893
 21
32.533
  0
LINE
  8
0
 10
140.893
 20
32.533
 11
141.223
 21
32.7145
  0
LINE
  8
0
 10
141.223
 20
32.7145
 11
141.573
 21
32.8532
  0
LINE
  8
0
 10
141.573
 20
32.8532
 11
141.938
 21
32.9469
  0
LINE
  8
0
 10
141.938
 20
32.9469
 11
142.312
 21
32.9941
  0
LINE
  8
0
 10
142.312
 20
32.9941
 11
142.688
 21
32.9941
  0
LINE
  8
0
 10
142.688
 20
32.9941
 11
143.062
 21
32.9469
  0
LINE
  8
0
 10
143.062
 20
32.9469
 11
143.427
 21
32.8532
  0
LINE
  8
0
 10
143.427
 20
32.8532
 11
143.777
 21
32.7145
  0
LINE
  8
0
 10
143.777
 20
32.7145
 11
144.107
 21
32.533
  0
LINE
  8
0
 10
144.107
 20
32.533
 11
144.412
 21
32.3115
  0
LINE
  8
0
 10
144.412
 20
32.3115
 11
144.687
 21
32.0536
  0
LINE
  8
0
 10
144.687
 20
32.0536
 11
144.927
 21
31.7634
  0
LINE
  8
0
 10
144.927
 20
31.7634
 11
145.129
 21
31.4453
  0
LINE
  8
0
 10
145.129
 20
31.4453
 11
145.289
 21
31.1044
  0
LINE
  8
0
 10
145.289
 20
31.1044
 11
145.406
 21
30.7461
  0
LINE
  8
0
 10
145.406
 20
30.7461
 11
145.476
 21
30.376
  0
LINE
  8
0
 10
145.476
 20
30.376
 11
145.5
 21
30
  0
LINE
  8
0
 10
145.5
 20
30
 11
145.476
 21
29.624
  0
LINE
  8
0
 10
145.476
 20
29.624
 11
145.406
 21
29.2539
  0
LINE
  8
0
 10
145.406
 20
29.2539
 11
145.289
 21
28.8956
  0
LINE
  8
0
 10
145.289
 20
28.8956
 11
145.129
 21
28.5547
  0
LINE
  8
0
 10
145.129
 20
28.5547
 11
144.927
 21
28.2366
  0
LINE
  8
0
 10
144.927
 20
28.2366
 11
144.687
 21
27.9464
  0
LINE
  8
0
 10
144.687
 20
27.9464
 11
144.412
 21
27.6884
  0
LINE
  8
0
 10
144.412
 20
27.6884
 11
144.107
 21
27.467
  0
LINE
  8
0
 10
144.107
 20
27.467
 11
143.777
 21
27.2855
  0
LINE
  8
0
 10
143.777
 20
27.2855
 11
143.427
 21
27.1468
  0
LINE
  8
0
 10
143.427
 20
27.1468
 11
143.062
 21
27.0531
  0
LINE
  8
0
 10
143.062
 20
27.0531
 11
142.688
 21
27.0059
  0
LINE
  8
0
 10
142.688
 20
27.0059
 11
142.312
 21
27.0059
  0
LINE
  8
0
 10
-142.688
 20
27.0059
 11
-143.062
 21
27.0531
  0
LINE
  8
0
 10
-143.062
 20
27.0531
 11
-143.427
 21
27.1468
  0
LINE
  8
0
 10
-143.427
 20
27.1468
 11
-143.777
 21
27.2855
  0
LINE
  8
0
 10
-143.777
 20
27.2855
 11
-144.107
 21
27.467
  0
LINE
  8
0
 10
-144.107
 20
27.467
 11
-144.412
 21
27.6884
  0
LINE
  8
0
 10
-144.412
 20
27.6884
 11
-144.687
 21
27.9464
  0
LINE
  8
0
 10
-144.687
 20
27.9464
 11
-144.927
 21
28.2366
  0
LINE
  8
0
 10
-144.927
 20
28.2366
 11
-145.129
 21
28.5547
  0
LINE
  8
0
 10
-145.129
 20
28.5547
 11
-145.289
 21
28.8956
  0
LINE
  8
0
 10
-145.289
 20
28.8956
 11
-145.406
 21
29.2539
  0
LINE
  8
0
 10
-145.406
 20
29.2539
 11
-145.476
 21
29.624
  0
LINE
  8
0
 10
-145.476
 20
29.624
 11
-145.5
 21
30
  0
LINE
  8
0
 10
-145.5
 20
30
 11
-145.476
 21
30.376
  0
LINE
  8
0
 10
-145.476
 20
30.376
 11
-145.406
 21
30.7461
  0
LINE
  8
0
 10
-145.406
 20
30.7461
 11
-145.289
 21
31.1044
  0
LINE
  8
0
 10
-145.289
 20
31.1044
 11
-145.129
 21
31.4453
  0
LINE
  8
0
 10
-145.129
 20
31.4453
 11
-144.927
 21
31.7634
  0
LINE
  8
0
 10
-144.927
 20
31.7634
 11
-144.687
 21
32.0536
  0
LINE
  8
0
 10
-144.687
 20
32.0536
 11
-144.412
 21
32.3115
  0
LINE
  8
0
 10
-144.412
 20
32.3115
 11
-144.107
 21
32.533
  0
LINE
  8
0
 10
-144.107
 20
32.533
 11
-143.777
 21
32.7145
  0
LINE
  8
0
 10
-143.777
 20
32.7145
 11
-143.427
 21
32.8532
  0
LINE
  8
0
 10
-143.427
 20
32.8532
 11
-143.062
 21
32.9469
  0
LINE
  8
0
 10
-143.062
 20
32.9469
 11
-142.688
 21
32.9941
  0
LINE
  8
0
 10
-142.688
 20
32.9941
 11
-142.312
 21
32.9941
  0
LINE
  8
0
 10
-142.312
 20
32.9941
 11
-141.938
 21
32.9469
  0
LINE
  8
0
 10
-141.938
 20
32.9469
 11
-141.573
 21
32.8532
  0
LINE
  8
0
 10
-141.573
 20
32.8532
 11
-141.223
 21
32.7145
  0
LINE
  8
0
 10
-141.223
 20
32.7145
 11
-140.893
 21
32.533
  0
LINE
  8
0
 10
-140.893
 20
32.533
 11
-140.588
 21
32.3115
  0
LINE
  8
0
 10
-140.588
 20
32.3115
 11
-140.313
 21
32.0536
  0
LINE
  8
0
 10
-140.313
 20
32.0536
 11
-140.073
 21
31.7634
  0
LINE
  8
0
 10
-140.073
 20
31.7634
 11
-139.871
 21
31.4453
  0
LINE
  8
0
 10
-139.871
 20
31.4453
 11
-139.711
 21
31.1044
  0
LINE
  8
0
 10
-139.711
 20
31.1044
 11
-139.594
 21
30.7461
  0
LINE
  8
0
 10
-139.594
 20
30.7461
 11
-139.524
 21
30.376
  0
LINE
  8
0
 10
-139.524
 20
30.376
 11
-139.5
 21
30
  0
LINE
  8
0
 10
-139.5
 20
30
 11
-139.524
 21
29.624
  0
LINE
  8
0
 10
-139.524
 20
29.624
 11
-139.594
 21
29.2539
  0
LINE
  8
0
 10
-139.594
 20
29.2539
 11
-139.711
 21
28.8956
  0
LINE
  8
0
 10
-139.711
 20
28.8956
 11
-139.871
 21
28.5547
  0
LINE
  8
0
 10
-139.871
 20
28.5547
 11
-140.073
 21
28.2366
  0
LINE
  8
0
 10
-140.073
 20
28.2366
 11
-140.313
 21
27.9464
  0
LINE
  8
0
 10
-140.313
 20
27.9464
 11
-140.588
 21
27.6884
  0
LINE
  8
0
 10
-140.588
 20
27.6884
 11
-140.893
 21
27.467
  0
LINE
  8
0
 10
-140.893
 20
27.467
 11
-141.223
 21
27.2855
  0
LINE
  8
0
 10
-141.223
 20
27.2855
 11
-141.573
 21
27.1468
  0
LINE
  8
0
 10
-141.573
 20
27.1468
 11
-141.938
 21
27.0531
  0
LINE
  8
0
 10
-141.938
 20
27.0531
 11
-142.312
 21
27.0059
  0
LINE
  8
0
 10
-142.312
 20
27.0059
 11
-142.688
 21
27.0059
  0
LINE
  8
0
 10
142.312
 20
-32.9941
 11
141.938
 21
-32.9469
  0
LINE
  8
0
 10
141.938
 20
-32.9469
 11
141.573
 21
-32.8532
  0
LINE
  8
0
 10
141.573
 20
-32.8532
 11
141.223
 21
-32.7145
  0
LINE
  8
0
 10
141.223
 20
-32.7145
 11
140.893
 21
-32.533
  0
LINE
  8
0
 10
140.893
 20
-32.533
 11
140.588
 21
-32.3115
  0
LINE
  8
0
 10
140.588
 20
-32.3115
 11
140.313
 21
-32.0536
  0
LINE
  8
0
 10
140.313
 20
-32.0536
 11
140.073
 21
-31.7634
  0
LINE
  8
0
 10
140.073
 20
-31.7634
 11
139.871
 21
-31.4453
  0
LINE
  8
0
 10
139.871
 20
-31.4453
 11
139.711
 21
-31.1044
  0
LINE
  8
0
 10
139.711
 20
-31.1044
 11
139.594
 21
-30.7461
  0
LINE
  8
0
 10
139.594
 20
-30.7461
 11
139.524
 21
-30.376
  0
LINE
  8
0
 10
139.524
 20
-30.376
 11
139.5
 21
-30
  0
LINE
  8
0
 10
139.5
 20
-30
 11
139.524
 21
-29.624
  0
LINE
  8
0
 10
139.524
 20
-29.624
 11
139.594
 21
-29.2539
  0
LINE
  8
0
 10
139.594
 20
-29.2539
 11
139.711
 21
-28.8956
  0
LINE
  8
0
 10
139.711
 20
-28.8956
 11
139.871
 21
-28.5547
  0
LINE
  8
0
 10
139.871
 20
-28.5547
 11
140.073
 21
-28.2366
  0
LINE
  8
0
 10
140.073
 20
-28.2366
 11
140.313
 21
-27.9464
  0
LINE
  8
0
 10
140.313
 20
-27.9464
 11
140.588
 21
-27.6884
  0
LINE
  8
0
 10
140.588
 20
-27.6884
 11
140.893
 21
-27.467
  0
LINE
  8
0
 10
140.893
 20
-27.467
 11
141.223
 21
-27.2855
  0
LINE
  8
0
 10
141.223
 20
-27.2855
 11
141.573
 21
-27.1468
  0
LINE
  8
0
 10
141.573
 20
-27.1468
 11
141.938
 21
-27.0531
  0
LINE
  8
0
 10
141.938
 20
-27.0531
 11
142.312
 21
-27.0059
  0
LINE
  8
0
 10
142.312
 20
-27.0059
 11
142.688
 21
-27.0059
  0
LINE
  8
0
 10
142.688
 20
-27.0059
 11
143.062
 21
-27.0531
  0
LINE
  8
0
 10
143.062
 20
-27.0531
 11
143.427
 21
-27.1468
  0
LINE
  8
0
 10
143.427
 20
-27.1468
 11
143.777
 21
-27.2855
  0
LINE
  8
0
 10
143.777
 20
-27.2855
 11
144.107
 21
-27.467
  0
LINE
  8
0
 10
144.107
 20
-27.467
 11
144.412
 21
-27.6884
  0
LINE
  8
0
 10
144.412
 20
-27.6884
 11
144.687
 21
-27.9464
  0
LINE
  8
0
 10
144.687
 20
-27.9464
 11
144.927
 21
-28.2366
  0
LINE
  8
0
 10
144.927
 20
-28.2366
 11
145.129
 21
-28.5547
  0
LINE
  8
0
 10
145.129
 20
-28.5547
 11
145.289
 21
-28.8956
  0
LINE
  8
0
 10
145.289
 20
-28.8956
 11
145.406
 21
-29.2539
  0
LINE
  8
0
 10
145.406
 20
-29.2539
 11
145.476
 21
-29.624
  0
LINE
  8
0
 10
145.476
 20
-29.624
 11
145.5
 21
-30
  0
LINE
  8
0
 10
145.5
 20
-30
 11
145.476
 21
-30.376
  0
LINE
  8
0
 10
145.476
 20
-30.376
 11
145.406
 21
-30.7461
  0
LINE
  8
0
 10
145.406
 20
-30.7461
 11
145.289
 21
-31.1044
  0
LINE
  8
0
 10
145.289
 20
-31.1044
 11
145.129
 21
-31.4453
  0
LINE
  8
0
 10
145.129
 20
-31.4453
 11
144.927
 21
-31.7634
  0
LINE
  8
0
 10
144.927
 20
-31.7634
 11
144.687
 21
-32.0536
  0
LINE
  8
0
 10
144.687
 20
-32.0536
 11
144.412
 21
-32.3115
  0
LINE
  8
0
 10
144.412
 20
-32.3115
 11
144.107
 21
-32.533
  0
LINE
  8
0
 10
144.107
 20
-32.533
 11
143.777
 21
-32.7145
  0
LINE
  8
0
 10
143.777
 20
-32.7145
 11
143.427
 21
-32.8532
  0
LINE
  8
0
 10
143.427
 20
-32.8532
 11
143.062
 21
-32.9469
  0
LINE
  8
0
 10
143.062
 20
-32.9469
 11
142.688
 21
-32.9941
  0
LINE
  8
0
 10
142.688
 20
-32.9941
 11
142.312
 21
-32.9941
  0
LINE
  8
0
 10
-142.688
 20
-32.9941
 11
-143.062
 21
-32.9469
  0
LINE
  8
0
 10
-143.062
 20
-32.9469
 11
-143.427
 21
-32.8532
  0
LINE
  8
0
 10
-143.427
 20
-32.8532
 11
-143.777
 21
-32.7145
  0
LINE
  8
0
 10
-143.777
 20
-32.7145
 11
-144.107
 21
-32.533
  0
LINE
  8
0
 10
-144.107
 20
-32.533
 11
-144.412
 21
-32.3115
  0
LINE
  8
0
 10
-144.412
 20
-32.3115
 11
-144.687
 21
-32.0536
  0
LINE
  8
0
 10
-144.687
 20
-32.0536
 11
-144.927
 21
-31.7634
  0
LINE
  8
0
 10
-144.927
 20
-31.7634
 11
-145.129
 21
-31.4453
  0
LINE
  8
0
 10
-145.129
 20
-31.4453
 11
-145.289
 21
-31.1044
  0
LINE
  8
0
 10
-145.289
 20
-31.1044
 11
-145.406
 21
-30.7461
  0
LINE
  8
0
 10
-145.406
 20
-30.7461
 11
-145.476
 21
-30.376
  0
LINE
  8
0
 10
-145.476
 20
-30.376
 11
-145.5
 21
-30
  0
LINE
  8
0
 10
-145.5
 20
-30
 11
-145.476
 21
-29.624
  0
LINE
  8
0
 10
-145.476
 20
-29.624
 11
-145.406
 21
-29.2539
  0
LINE
  8
0
 10
-145.406
 20
-29.2539
 11
-145.289
 21
-28.8956
  0
LINE
  8
0
 10
-145.289
 20
-28.8956
 11
-145.129
 21
-28.5547
  0
LINE
  8
0
 10
-145.129
 20
-28.5547
 11
-144.927
 21
-28.2366
  0
LINE
  8
0
 10
-144.927
 20
-28.2366
 11
-144.687
 21
-27.9464
  0
LINE
  8
0
 10
-144.687
 20
-27.9464
 11
-144.412
 21
-27.6884
  0
LINE
  8
0
 10
-144.412
 20
-27.6884
 11
-144.107
 21
-27.467
  0
LINE
  8
0
 10
-144.107
 20
-27.467
 11
-143.777
 21
-27.2855
  0
LINE
  8
0
 10
-143.777
 20
-27.2855
 11
-143.427
 21
-27.1468
  0
LINE
  8
0
 10
-143.427
 20
-27.1468
 11
-143.062
 21
-27.0531
  0
LINE
  8
0
 10
-143.062
 20
-27.0531
 11
-142.688
 21
-27.0059
  0
LINE
  8
0
 10
-142.688
 20
-27.0059
 11
-142.312
 21
-27.0059
  0
LINE
  8
0
 10
-142.312
 20
-27.0059
 11
-141.938
 21
-27.0531
  0
LINE
  8
0
 10
-141.938
 20
-27.0531
 11
-141.573
 21
-27.1468
  0
LINE
  8
0
 10
-141.573
 20
-27.1468
 11
-141.223
 21
-27.2855
  0
LINE
  8
0
 10
-141.223
 20
-27.2855
 11
-140.893
 21
-27.467
  0
LINE
  8
0
 10
-140.893
 20
-27.467
 11
-140.588
 21
-27.6884
  0
LINE
  8
0
 10
-140.588
 20
-27.6884
 11
-140.313
 21
-27.9464
  0
LINE
  8
0
 10
-140.313
 20
-27.9464
 11
-140.073
 21
-28.2366
  0
LINE
  8
0
 10
-140.073
 20
-28.2366
 11
-139.871
 21
-28.5547
  0
LINE
  8
0
 10
-139.871
 20
-28.5547
 11
-139.711
 21
-28.8956
  0
LINE
  8
0
 10
-139.711
 20
-28.8956
 11
-139.594
 21
-29.2539
  0
LINE
  8
0
 10
-139.594
 20
-29.2539
 11
-139.524
 21
-29.624
  0
LINE
  8
0
 10
-139.524
 20
-29.624
 11
-139.5
 21
-30
  0
LINE
  8
0
 10
-139.5
 20
-30
 11
-139.524
 21
-30.376
  0
LINE
  8
0
 10
-139.524
 20
-30.376
 11
-139.594
 21
-30.7461
  0
LINE
  8
0
 10
-139.594
 20
-30.7461
 11
-139.711
 21
-31.1044
  0
LINE
  8
0
 10
-139.711
 20
-31.1044
 11
-139.871
 21
-31.4453
  0
LINE
  8
0
 10
-139.871
 20
-31.4453
 11
-140.073
 21
-31.7634
  0
LINE
  8
0
 10
-140.073
 20
-31.7634
 11
-140.313
 21
-32.0536
  0
LINE
  8
0
 10
-140.313
 20
-32.0536
 11
-140.588
 21
-32.3115
  0
LINE
  8
0
 10
-140.588
 20
-32.3115
 11
-140.893
 21
-32.533
  0
LINE
  8
0
 10
-140.893
 20
-32.533
 11
-141.223
 21
-32.7145
  0
LINE
  8
0
 10
-141.223
 20
-32.7145
 11
-141.573
 21
-32.8532
  0
LINE
  8
0
 10
-141.573
 20
-32.8532
 11
-141.938
 21
-32.9469
  0
LINE
  8
0
 10
-141.938
 20
-32.9469
 11
-142.312
 21
-32.9941
  0
LINE
  8
0
 10
-142.312
 20
-32.9941
 11
-142.688
 21
-32.9941
  0
ENDSEC
  0
SECTION
  2
OBJECTS
  0
DICTIONARY
  0
ENDSEC
  0
EOF
