  0
SECTION
  2
BLOCKS
  0
ENDSEC
  0
SECTION
  2
ENTITIES
  0
LINE
  8
0
 10
145.437
 20
-21.9114
 11
146.045
 21
-21.7553
  0
LINE
  8
0
 10
146.045
 20
-21.7553
 11
146.629
 21
-21.5241
  0
LINE
  8
0
 10
146.629
 20
-21.5241
 11
147.179
 21
-21.2216
  0
LINE
  8
0
 10
147.179
 20
-21.2216
 11
147.687
 21
-20.8526
  0
LINE
  8
0
 10
147.687
 20
-20.8526
 11
148.145
 21
-20.4227
  0
LINE
  8
0
 10
148.145
 20
-20.4227
 11
148.545
 21
-19.9389
  0
LINE
  8
0
 10
148.545
 20
-19.9389
 11
148.882
 21
-19.4088
  0
LINE
  8
0
 10
148.882
 20
-19.4088
 11
149.149
 21
-18.8406
  0
LINE
  8
0
 10
149.149
 20
-18.8406
 11
149.343
 21
-18.2434
  0
LINE
  8
0
 10
149.343
 20
-18.2434
 11
149.461
 21
-17.6267
  0
LINE
  8
0
 10
149.461
 20
-17.6267
 11
149.5
 21
-17
  0
LINE
  8
0
 10
149.5
 20
-17
 11
149.5
 21
17
  0
LINE
  8
0
 10
149.5
 20
17
 11
149.461
 21
17.6267
  0
LINE
  8
0
 10
149.461
 20
17.6267
 11
149.343
 21
18.2434
  0
LINE
  8
0
 10
149.343
 20
18.2434
 11
149.149
 21
18.8406
  0
LINE
  8
0
 10
149.149
 20
18.8406
 11
148.882
 21
19.4088
  0
LINE
  8
0
 10
148.882
 20
19.4088
 11
148.545
 21
19.9389
  0
LINE
  8
0
 10
148.545
 20
19.9389
 11
148.145
 21
20.4227
  0
LINE
  8
0
 10
148.145
 20
20.4227
 11
147.687
 21
20.8526
  0
LINE
  8
0
 10
147.687
 20
20.8526
 11
147.179
 21
21.2216
  0
LINE
  8
0
 10
147.179
 20
21.2216
 11
146.629
 21
21.5241
  0
LINE
  8
0
 10
146.629
 20
21.5241
 11
146.045
 21
21.7553
  0
LINE
  8
0
 10
146.045
 20
21.7553
 11
145.437
 21
21.9114
  0
LINE
  8
0
 10
145.437
 20
21.9114
 11
144.814
 21
21.9901
  0
LINE
  8
0
 10
144.814
 20
21.9901
 11
-144.814
 21
21.9901
  0
LINE
  8
0
 10
-144.814
 20
21.9901
 11
-145.437
 21
21.9114
  0
LINE
  8
0
 10
-145.437
 20
21.9114
 11
-146.045
 21
21.7553
  0
LINE
  8
0
 10
-146.045
 20
21.7553
 11
-146.629
 21
21.5241
  0
LINE
  8
0
 10
-146.629
 20
21.5241
 11
-147.179
 21
21.2216
  0
LINE
  8
0
 10
-147.179
 20
21.2216
 11
-147.687
 21
20.8526
  0
LINE
  8
0
 10
-147.687
 20
20.8526
 11
-148.145
 21
20.4227
  0
LINE
  8
0
 10
-148.145
 20
20.4227
 11
-148.545
 21
19.9389
  0
LINE
  8
0
 10
-148.545
 20
19.9389
 11
-148.882
 21
19.4088
  0
LINE
  8
0
 10
-148.882
 20
19.4088
 11
-149.149
 21
18.8406
  0
LINE
  8
0
 10
-149.149
 20
18.8406
 11
-149.343
 21
18.2434
  0
LINE
  8
0
 10
-149.343
 20
18.2434
 11
-149.461
 21
17.6267
  0
LINE
  8
0
 10
-149.461
 20
17.6267
 11
-149.5
 21
17
  0
LINE
  8
0
 10
-149.5
 20
17
 11
-149.5
 21
-17
  0
LINE
  8
0
 10
-149.5
 20
-17
 11
-149.461
 21
-17.6267
  0
LINE
  8
0
 10
-149.461
 20
-17.6267
 11
-149.343
 21
-18.2434
  0
LINE
  8
0
 10
-149.343
 20
-18.2434
 11
-149.149
 21
-18.8406
  0
LINE
  8
0
 10
-149.149
 20
-18.8406
 11
-148.882
 21
-19.4088
  0
LINE
  8
0
 10
-148.882
 20
-19.4088
 11
-148.545
 21
-19.9389
  0
LINE
  8
0
 10
-148.545
 20
-19.9389
 11
-148.145
 21
-20.4227
  0
LINE
  8
0
 10
-148.145
 20
-20.4227
 11
-147.687
 21
-20.8526
  0
LINE
  8
0
 10
-147.687
 20
-20.8526
 11
-147.179
 21
-21.2216
  0
LINE
  8
0
 10
-147.179
 20
-21.2216
 11
-146.629
 21
-21.5241
  0
LINE
  8
0
 10
-146.629
 20
-21.5241
 11
-146.045
 21
-21.7553
  0
LINE
  8
0
 10
-146.045
 20
-21.7553
 11
-145.437
 21
-21.9114
  0
LINE
  8
0
 10
-145.437
 20
-21.9114
 11
-144.814
 21
-21.9901
  0
LINE
  8
0
 10
-144.814
 20
-21.9901
 11
144.814
 21
-21.9901
  0
LINE
  8
0
 10
144.814
 20
-21.9901
 11
145.437
 21
-21.9114
  0
LINE
  8
0
 10
139.524
 20
15.376
 11
139.594
 21
15.7461
  0
LINE
  8
0
 10
139.594
 20
15.7461
 11
139.711
 21
16.1044
  0
LINE
  8
0
 10
139.711
 20
16.1044
 11
139.871
 21
16.4453
  0
LINE
  8
0
 10
139.871
 20
16.4453
 11
140.073
 21
16.7634
  0
LINE
  8
0
 10
140.073
 20
16.7634
 11
140.313
 21
17.0536
  0
LINE
  8
0
 10
140.313
 20
17.0536
 11
140.588
 21
17.3115
  0
LINE
  8
0
 10
140.588
 20
17.3115
 11
140.893
 21
17.533
  0
LINE
  8
0
 10
140.893
 20
17.533
 11
141.223
 21
17.7145
  0
LINE
  8
0
 10
141.223
 20
17.7145
 11
141.573
 21
17.8532
  0
LINE
  8
0
 10
141.573
 20
17.8532
 11
141.938
 21
17.9469
  0
LINE
  8
0
 10
141.938
 20
17.9469
 11
142.312
 21
17.9941
  0
LINE
  8
0
 10
142.312
 20
17.9941
 11
142.688
 21
17.9941
  0
LINE
  8
0
 10
142.688
 20
17.9941
 11
143.062
 21
17.9469
  0
LINE
  8
0
 10
143.062
 20
17.9469
 11
143.427
 21
17.8532
  0
LINE
  8
0
 10
143.427
 20
17.8532
 11
143.777
 21
17.7145
  0
LINE
  8
0
 10
143.777
 20
17.7145
 11
144.107
 21
17.533
  0
LINE
  8
0
 10
144.107
 20
17.533
 11
144.412
 21
17.3115
  0
LINE
  8
0
 10
144.412
 20
17.3115
 11
144.687
 21
17.0536
  0
LINE
  8
0
 10
144.687
 20
17.0536
 11
144.927
 21
16.7634
  0
LINE
  8
0
 10
144.927
 20
16.7634
 11
145.129
 21
16.4453
  0
LINE
  8
0
 10
145.129
 20
16.4453
 11
145.289
 21
16.1044
  0
LINE
  8
0
 10
145.289
 20
16.1044
 11
145.406
 21
15.7461
  0
LINE
  8
0
 10
145.406
 20
15.7461
 11
145.476
 21
15.376
  0
LINE
  8
0
 10
145.476
 20
15.376
 11
145.5
 21
15
  0
LINE
  8
0
 10
145.5
 20
15
 11
145.476
 21
14.624
  0
LINE
  8
0
 10
145.476
 20
14.624
 11
145.406
 21
14.2539
  0
LINE
  8
0
 10
145.406
 20
14.2539
 11
145.289
 21
13.8956
  0
LINE
  8
0
 10
145.289
 20
13.8956
 11
145.129
 21
13.5547
  0
LINE
  8
0
 10
145.129
 20
13.5547
 11
144.927
 21
13.2366
  0
LINE
  8
0
 10
144.927
 20
13.2366
 11
144.687
 21
12.9464
  0
LINE
  8
0
 10
144.687
 20
12.9464
 11
144.412
 21
12.6884
  0
LINE
  8
0
 10
144.412
 20
12.6884
 11
144.107
 21
12.467
  0
LINE
  8
0
 10
144.107
 20
12.467
 11
143.777
 21
12.2855
  0
LINE
  8
0
 10
143.777
 20
12.2855
 11
143.427
 21
12.1468
  0
LINE
  8
0
 10
143.427
 20
12.1468
 11
143.062
 21
12.0531
  0
LINE
  8
0
 10
143.062
 20
12.0531
 11
142.688
 21
12.0059
  0
LINE
  8
0
 10
142.688
 20
12.0059
 11
142.312
 21
12.0059
  0
LINE
  8
0
 10
142.312
 20
12.0059
 11
141.938
 21
12.0531
  0
LINE
  8
0
 10
141.938
 20
12.0531
 11
141.573
 21
12.1468
  0
LINE
  8
0
 10
141.573
 20
12.1468
 11
141.223
 21
12.2855
  0
LINE
  8
0
 10
141.223
 20
12.2855
 11
140.893
 21
12.467
  0
LINE
  8
0
 10
140.893
 20
12.467
 11
140.588
 21
12.6884
  0
LINE
  8
0
 10
140.588
 20
12.6884
 11
140.313
 21
12.9464
  0
LINE
  8
0
 10
140.313
 20
12.9464
 11
140.073
 21
13.2366
  0
LINE
  8
0
 10
140.073
 20
13.2366
 11
139.871
 21
13.5547
  0
LINE
  8
0
 10
139.871
 20
13.5547
 11
139.711
 21
13.8956
  0
LINE
  8
0
 10
139.711
 20
13.8956
 11
139.594
 21
14.2539
  0
LINE
  8
0
 10
139.594
 20
14.2539
 11
139.524
 21
14.624
  0
LINE
  8
0
 10
139.524
 20
14.624
 11
139.5
 21
15
  0
LINE
  8
0
 10
139.5
 20
15
 11
139.524
 21
15.376
  0
LINE
  8
0
 10
-142.688
 20
-17.9941
 11
-143.062
 21
-17.9469
  0
LINE
  8
0
 10
-143.062
 20
-17.9469
 11
-143.427
 21
-17.8532
  0
LINE
  8
0
 10
-143.427
 20
-17.8532
 11
-143.777
 21
-17.7145
  0
LINE
  8
0
 10
-143.777
 20
-17.7145
 11
-144.107
 21
-17.533
  0
LINE
  8
0
 10
-144.107
 20
-17.533
 11
-144.412
 21
-17.3115
  0
LINE
  8
0
 10
-144.412
 20
-17.3115
 11
-144.687
 21
-17.0536
  0
LINE
  8
0
 10
-144.687
 20
-17.0536
 11
-144.927
 21
-16.7634
  0
LINE
  8
0
 10
-144.927
 20
-16.7634
 11
-145.129
 21
-16.4453
  0
LINE
  8
0
 10
-145.129
 20
-16.4453
 11
-145.289
 21
-16.1044
  0
LINE
  8
0
 10
-145.289
 20
-16.1044
 11
-145.406
 21
-15.7461
  0
LINE
  8
0
 10
-145.406
 20
-15.7461
 11
-145.476
 21
-15.376
  0
LINE
  8
0
 10
-145.476
 20
-15.376
 11
-145.5
 21
-15
  0
LINE
  8
0
 10
-145.5
 20
-15
 11
-145.476
 21
-14.624
  0
LINE
  8
0
 10
-145.476
 20
-14.624
 11
-145.406
 21
-14.2539
  0
LINE
  8
0
 10
-145.406
 20
-14.2539
 11
-145.289
 21
-13.8956
  0
LINE
  8
0
 10
-145.289
 20
-13.8956
 11
-145.129
 21
-13.5547
  0
LINE
  8
0
 10
-145.129
 20
-13.5547
 11
-144.927
 21
-13.2366
  0
LINE
  8
0
 10
-144.927
 20
-13.2366
 11
-144.687
 21
-12.9464
  0
LINE
  8
0
 10
-144.687
 20
-12.9464
 11
-144.412
 21
-12.6884
  0
LINE
  8
0
 10
-144.412
 20
-12.6884
 11
-144.107
 21
-12.467
  0
LINE
  8
0
 10
-144.107
 20
-12.467
 11
-143.777
 21
-12.2855
  0
LINE
  8
0
 10
-143.777
 20
-12.2855
 11
-143.427
 21
-12.1468
  0
LINE
  8
0
 10
-143.427
 20
-12.1468
 11
-143.062
 21
-12.0531
  0
LINE
  8
0
 10
-143.062
 20
-12.0531
 11
-142.688
 21
-12.0059
  0
LINE
  8
0
 10
-142.688
 20
-12.0059
 11
-142.312
 21
-12.0059
  0
LINE
  8
0
 10
-142.312
 20
-12.0059
 11
-141.938
 21
-12.0531
  0
LINE
  8
0
 10
-141.938
 20
-12.0531
 11
-141.573
 21
-12.1468
  0
LINE
  8
0
 10
-141.573
 20
-12.1468
 11
-141.223
 21
-12.2855
  0
LINE
  8
0
 10
-141.223
 20
-12.2855
 11
-140.893
 21
-12.467
  0
LINE
  8
0
 10
-140.893
 20
-12.467
 11
-140.588
 21
-12.6884
  0
LINE
  8
0
 10
-140.588
 20
-12.6884
 11
-140.313
 21
-12.9464
  0
LINE
  8
0
 10
-140.313
 20
-12.9464
 11
-140.073
 21
-13.2366
  0
LINE
  8
0
 10
-140.073
 20
-13.2366
 11
-139.871
 21
-13.5547
  0
LINE
  8
0
 10
-139.871
 20
-13.5547
 11
-139.711
 21
-13.8956
  0
LINE
  8
0
 10
-139.711
 20
-13.8956
 11
-139.594
 21
-14.2539
  0
LINE
  8
0
 10
-139.594
 20
-14.2539
 11
-139.524
 21
-14.624
  0
LINE
  8
0
 10
-139.524
 20
-14.624
 11
-139.5
 21
-15
  0
LINE
  8
0
 10
-139.5
 20
-15
 11
-139.524
 21
-15.376
  0
LINE
  8
0
 10
-139.524
 20
-15.376
 11
-139.594
 21
-15.7461
  0
LINE
  8
0
 10
-139.594
 20
-15.7461
 11
-139.711
 21
-16.1044
  0
LINE
  8
0
 10
-139.711
 20
-16.1044
 11
-139.871
 21
-16.4453
  0
LINE
  8
0
 10
-139.871
 20
-16.4453
 11
-140.073
 21
-16.7634
  0
LINE
  8
0
 10
-140.073
 20
-16.7634
 11
-140.313
 21
-17.0536
  0
LINE
  8
0
 10
-140.313
 20
-17.0536
 11
-140.588
 21
-17.3115
  0
LINE
  8
0
 10
-140.588
 20
-17.3115
 11
-140.893
 21
-17.533
  0
LINE
  8
0
 10
-140.893
 20
-17.533
 11
-141.223
 21
-17.7145
  0
LINE
  8
0
 10
-141.223
 20
-17.7145
 11
-141.573
 21
-17.8532
  0
LINE
  8
0
 10
-141.573
 20
-17.8532
 11
-141.938
 21
-17.9469
  0
LINE
  8
0
 10
-141.938
 20
-17.9469
 11
-142.312
 21
-17.9941
  0
LINE
  8
0
 10
-142.312
 20
-17.9941
 11
-142.688
 21
-17.9941
  0
LINE
  8
0
 10
142.312
 20
-17.9941
 11
141.938
 21
-17.9469
  0
LINE
  8
0
 10
141.938
 20
-17.9469
 11
141.573
 21
-17.8532
  0
LINE
  8
0
 10
141.573
 20
-17.8532
 11
141.223
 21
-17.7145
  0
LINE
  8
0
 10
141.223
 20
-17.7145
 11
140.893
 21
-17.533
  0
LINE
  8
0
 10
140.893
 20
-17.533
 11
140.588
 21
-17.3115
  0
LINE
  8
0
 10
140.588
 20
-17.3115
 11
140.313
 21
-17.0536
  0
LINE
  8
0
 10
140.313
 20
-17.0536
 11
140.073
 21
-16.7634
  0
LINE
  8
0
 10
140.073
 20
-16.7634
 11
139.871
 21
-16.4453
  0
LINE
  8
0
 10
139.871
 20
-16.4453
 11
139.711
 21
-16.1044
  0
LINE
  8
0
 10
139.711
 20
-16.1044
 11
139.594
 21
-15.7461
  0
LINE
  8
0
 10
139.594
 20
-15.7461
 11
139.524
 21
-15.376
  0
LINE
  8
0
 10
139.524
 20
-15.376
 11
139.5
 21
-15
  0
LINE
  8
0
 10
139.5
 20
-15
 11
139.524
 21
-14.624
  0
LINE
  8
0
 10
139.524
 20
-14.624
 11
139.594
 21
-14.2539
  0
LINE
  8
0
 10
139.594
 20
-14.2539
 11
139.711
 21
-13.8956
  0
LINE
  8
0
 10
139.711
 20
-13.8956
 11
139.871
 21
-13.5547
  0
LINE
  8
0
 10
139.871
 20
-13.5547
 11
140.073
 21
-13.2366
  0
LINE
  8
0
 10
140.073
 20
-13.2366
 11
140.313
 21
-12.9464
  0
LINE
  8
0
 10
140.313
 20
-12.9464
 11
140.588
 21
-12.6884
  0
LINE
  8
0
 10
140.588
 20
-12.6884
 11
140.893
 21
-12.467
  0
LINE
  8
0
 10
140.893
 20
-12.467
 11
141.223
 21
-12.2855
  0
LINE
  8
0
 10
141.223
 20
-12.2855
 11
141.573
 21
-12.1468
  0
LINE
  8
0
 10
141.573
 20
-12.1468
 11
141.938
 21
-12.0531
  0
LINE
  8
0
 10
141.938
 20
-12.0531
 11
142.312
 21
-12.0059
  0
LINE
  8
0
 10
142.312
 20
-12.0059
 11
142.688
 21
-12.0059
  0
LINE
  8
0
 10
142.688
 20
-12.0059
 11
143.062
 21
-12.0531
  0
LINE
  8
0
 10
143.062
 20
-12.0531
 11
143.427
 21
-12.1468
  0
LINE
  8
0
 10
143.427
 20
-12.1468
 11
143.777
 21
-12.2855
  0
LINE
  8
0
 10
143.777
 20
-12.2855
 11
144.107
 21
-12.467
  0
LINE
  8
0
 10
144.107
 20
-12.467
 11
144.412
 21
-12.6884
  0
LINE
  8
0
 10
144.412
 20
-12.6884
 11
144.687
 21
-12.9464
  0
LINE
  8
0
 10
144.687
 20
-12.9464
 11
144.927
 21
-13.2366
  0
LINE
  8
0
 10
144.927
 20
-13.2366
 11
145.129
 21
-13.5547
  0
LINE
  8
0
 10
145.129
 20
-13.5547
 11
145.289
 21
-13.8956
  0
LINE
  8
0
 10
145.289
 20
-13.8956
 11
145.406
 21
-14.2539
  0
LINE
  8
0
 10
145.406
 20
-14.2539
 11
145.476
 21
-14.624
  0
LINE
  8
0
 10
145.476
 20
-14.624
 11
145.5
 21
-15
  0
LINE
  8
0
 10
145.5
 20
-15
 11
145.476
 21
-15.376
  0
LINE
  8
0
 10
145.476
 20
-15.376
 11
145.406
 21
-15.7461
  0
LINE
  8
0
 10
145.406
 20
-15.7461
 11
145.289
 21
-16.1044
  0
LINE
  8
0
 10
145.289
 20
-16.1044
 11
145.129
 21
-16.4453
  0
LINE
  8
0
 10
145.129
 20
-16.4453
 11
144.927
 21
-16.7634
  0
LINE
  8
0
 10
144.927
 20
-16.7634
 11
144.687
 21
-17.0536
  0
LINE
  8
0
 10
144.687
 20
-17.0536
 11
144.412
 21
-17.3115
  0
LINE
  8
0
 10
144.412
 20
-17.3115
 11
144.107
 21
-17.533
  0
LINE
  8
0
 10
144.107
 20
-17.533
 11
143.777
 21
-17.7145
  0
LINE
  8
0
 10
143.777
 20
-17.7145
 11
143.427
 21
-17.8532
  0
LINE
  8
0
 10
143.427
 20
-17.8532
 11
143.062
 21
-17.9469
  0
LINE
  8
0
 10
143.062
 20
-17.9469
 11
142.688
 21
-17.9941
  0
LINE
  8
0
 10
142.688
 20
-17.9941
 11
142.312
 21
-17.9941
  0
LINE
  8
0
 10
-139.711
 20
13.8956
 11
-139.871
 21
13.5547
  0
LINE
  8
0
 10
-139.871
 20
13.5547
 11
-140.073
 21
13.2366
  0
LINE
  8
0
 10
-140.073
 20
13.2366
 11
-140.313
 21
12.9464
  0
LINE
  8
0
 10
-140.313
 20
12.9464
 11
-140.588
 21
12.6884
  0
LINE
  8
0
 10
-140.588
 20
12.6884
 11
-140.893
 21
12.467
  0
LINE
  8
0
 10
-140.893
 20
12.467
 11
-141.223
 21
12.2855
  0
LINE
  8
0
 10
-141.223
 20
12.2855
 11
-141.573
 21
12.1468
  0
LINE
  8
0
 10
-141.573
 20
12.1468
 11
-141.938
 21
12.0531
  0
LINE
  8
0
 10
-141.938
 20
12.0531
 11
-142.312
 21
12.0059
  0
LINE
  8
0
 10
-142.312
 20
12.0059
 11
-142.688
 21
12.0059
  0
LINE
  8
0
 10
-142.688
 20
12.0059
 11
-143.062
 21
12.0531
  0
LINE
  8
0
 10
-143.062
 20
12.0531
 11
-143.427
 21
12.1468
  0
LINE
  8
0
 10
-143.427
 20
12.1468
 11
-143.777
 21
12.2855
  0
LINE
  8
0
 10
-143.777
 20
12.2855
 11
-144.107
 21
12.467
  0
LINE
  8
0
 10
-144.107
 20
12.467
 11
-144.412
 21
12.6884
  0
LINE
  8
0
 10
-144.412
 20
12.6884
 11
-144.687
 21
12.9464
  0
LINE
  8
0
 10
-144.687
 20
12.9464
 11
-144.927
 21
13.2366
  0
LINE
  8
0
 10
-144.927
 20
13.2366
 11
-145.129
 21
13.5547
  0
LINE
  8
0
 10
-145.129
 20
13.5547
 11
-145.289
 21
13.8956
  0
LINE
  8
0
 10
-145.289
 20
13.8956
 11
-145.406
 21
14.2539
  0
LINE
  8
0
 10
-145.406
 20
14.2539
 11
-145.476
 21
14.624
  0
LINE
  8
0
 10
-145.476
 20
14.624
 11
-145.5
 21
15
  0
LINE
  8
0
 10
-145.5
 20
15
 11
-145.476
 21
15.376
  0
LINE
  8
0
 10
-145.476
 20
15.376
 11
-145.406
 21
15.7461
  0
LINE
  8
0
 10
-145.406
 20
15.7461
 11
-145.289
 21
16.1044
  0
LINE
  8
0
 10
-145.289
 20
16.1044
 11
-145.129
 21
16.4453
  0
LINE
  8
0
 10
-145.129
 20
16.4453
 11
-144.927
 21
16.7634
  0
LINE
  8
0
 10
-144.927
 20
16.7634
 11
-144.687
 21
17.0536
  0
LINE
  8
0
 10
-144.687
 20
17.0536
 11
-144.412
 21
17.3115
  0
LINE
  8
0
 10
-144.412
 20
17.3115
 11
-144.107
 21
17.533
  0
LINE
  8
0
 10
-144.107
 20
17.533
 11
-143.777
 21
17.7145
  0
LINE
  8
0
 10
-143.777
 20
17.7145
 11
-143.427
 21
17.8532
  0
LINE
  8
0
 10
-143.427
 20
17.8532
 11
-143.062
 21
17.9469
  0
LINE
  8
0
 10
-143.062
 20
17.9469
 11
-142.688
 21
17.9941
  0
LINE
  8
0
 10
-142.688
 20
17.9941
 11
-142.312
 21
17.9941
  0
LINE
  8
0
 10
-142.312
 20
17.9941
 11
-141.938
 21
17.9469
  0
LINE
  8
0
 10
-141.938
 20
17.9469
 11
-141.573
 21
17.8532
  0
LINE
  8
0
 10
-141.573
 20
17.8532
 11
-141.223
 21
17.7145
  0
LINE
  8
0
 10
-141.223
 20
17.7145
 11
-140.893
 21
17.533
  0
LINE
  8
0
 10
-140.893
 20
17.533
 11
-140.588
 21
17.3115
  0
LINE
  8
0
 10
-140.588
 20
17.3115
 11
-140.313
 21
17.0536
  0
LINE
  8
0
 10
-140.313
 20
17.0536
 11
-140.073
 21
16.7634
  0
LINE
  8
0
 10
-140.073
 20
16.7634
 11
-139.871
 21
16.4453
  0
LINE
  8
0
 10
-139.871
 20
16.4453
 11
-139.711
 21
16.1044
  0
LINE
  8
0
 10
-139.711
 20
16.1044
 11
-139.594
 21
15.7461
  0
LINE
  8
0
 10
-139.594
 20
15.7461
 11
-139.524
 21
15.376
  0
LINE
  8
0
 10
-139.524
 20
15.376
 11
-139.5
 21
15
  0
LINE
  8
0
 10
-139.5
 20
15
 11
-139.524
 21
14.624
  0
LINE
  8
0
 10
-139.524
 20
14.624
 11
-139.594
 21
14.2539
  0
LINE
  8
0
 10
-139.594
 20
14.2539
 11
-139.711
 21
13.8956
  0
ENDSEC
  0
SECTION
  2
OBJECTS
  0
DICTIONARY
  0
ENDSEC
  0
EOF
