  0
SECTION
  2
BLOCKS
  0
ENDSEC
  0
SECTION
  2
ENTITIES
  0
LINE
  8
0
 10
107.937
 20
-81.9114
 11
108.545
 21
-81.7553
  0
LINE
  8
0
 10
108.545
 20
-81.7553
 11
109.129
 21
-81.5241
  0
LINE
  8
0
 10
109.129
 20
-81.5241
 11
109.679
 21
-81.2216
  0
LINE
  8
0
 10
109.679
 20
-81.2216
 11
110.187
 21
-80.8526
  0
LINE
  8
0
 10
110.187
 20
-80.8526
 11
110.645
 21
-80.4227
  0
LINE
  8
0
 10
110.645
 20
-80.4227
 11
111.045
 21
-79.9389
  0
LINE
  8
0
 10
111.045
 20
-79.9389
 11
111.382
 21
-79.4088
  0
LINE
  8
0
 10
111.382
 20
-79.4088
 11
111.649
 21
-78.8406
  0
LINE
  8
0
 10
111.649
 20
-78.8406
 11
111.843
 21
-78.2434
  0
LINE
  8
0
 10
111.843
 20
-78.2434
 11
111.961
 21
-77.6267
  0
LINE
  8
0
 10
111.961
 20
-77.6267
 11
112
 21
-77
  0
LINE
  8
0
 10
112
 20
-77
 11
112
 21
77
  0
LINE
  8
0
 10
112
 20
77
 11
111.961
 21
77.6267
  0
LINE
  8
0
 10
111.961
 20
77.6267
 11
111.843
 21
78.2434
  0
LINE
  8
0
 10
111.843
 20
78.2434
 11
111.649
 21
78.8406
  0
LINE
  8
0
 10
111.649
 20
78.8406
 11
111.382
 21
79.4088
  0
LINE
  8
0
 10
111.382
 20
79.4088
 11
111.045
 21
79.9389
  0
LINE
  8
0
 10
111.045
 20
79.9389
 11
110.645
 21
80.4227
  0
LINE
  8
0
 10
110.645
 20
80.4227
 11
110.187
 21
80.8526
  0
LINE
  8
0
 10
110.187
 20
80.8526
 11
109.679
 21
81.2216
  0
LINE
  8
0
 10
109.679
 20
81.2216
 11
109.129
 21
81.5241
  0
LINE
  8
0
 10
109.129
 20
81.5241
 11
108.545
 21
81.7553
  0
LINE
  8
0
 10
108.545
 20
81.7553
 11
107.937
 21
81.9114
  0
LINE
  8
0
 10
107.937
 20
81.9114
 11
107.314
 21
81.9901
  0
LINE
  8
0
 10
107.314
 20
81.9901
 11
-107.314
 21
81.9901
  0
LINE
  8
0
 10
-107.314
 20
81.9901
 11
-107.937
 21
81.9114
  0
LINE
  8
0
 10
-107.937
 20
81.9114
 11
-108.545
 21
81.7553
  0
LINE
  8
0
 10
-108.545
 20
81.7553
 11
-109.129
 21
81.5241
  0
LINE
  8
0
 10
-109.129
 20
81.5241
 11
-109.679
 21
81.2216
  0
LINE
  8
0
 10
-109.679
 20
81.2216
 11
-110.187
 21
80.8526
  0
LINE
  8
0
 10
-110.187
 20
80.8526
 11
-110.645
 21
80.4227
  0
LINE
  8
0
 10
-110.645
 20
80.4227
 11
-111.045
 21
79.9389
  0
LINE
  8
0
 10
-111.045
 20
79.9389
 11
-111.382
 21
79.4088
  0
LINE
  8
0
 10
-111.382
 20
79.4088
 11
-111.649
 21
78.8406
  0
LINE
  8
0
 10
-111.649
 20
78.8406
 11
-111.843
 21
78.2434
  0
LINE
  8
0
 10
-111.843
 20
78.2434
 11
-111.961
 21
77.6267
  0
LINE
  8
0
 10
-111.961
 20
77.6267
 11
-112
 21
77
  0
LINE
  8
0
 10
-112
 20
77
 11
-112
 21
-77
  0
LINE
  8
0
 10
-112
 20
-77
 11
-111.961
 21
-77.6267
  0
LINE
  8
0
 10
-111.961
 20
-77.6267
 11
-111.843
 21
-78.2434
  0
LINE
  8
0
 10
-111.843
 20
-78.2434
 11
-111.649
 21
-78.8406
  0
LINE
  8
0
 10
-111.649
 20
-78.8406
 11
-111.382
 21
-79.4088
  0
LINE
  8
0
 10
-111.382
 20
-79.4088
 11
-111.045
 21
-79.9389
  0
LINE
  8
0
 10
-111.045
 20
-79.9389
 11
-110.645
 21
-80.4227
  0
LINE
  8
0
 10
-110.645
 20
-80.4227
 11
-110.187
 21
-80.8526
  0
LINE
  8
0
 10
-110.187
 20
-80.8526
 11
-109.679
 21
-81.2216
  0
LINE
  8
0
 10
-109.679
 20
-81.2216
 11
-109.129
 21
-81.5241
  0
LINE
  8
0
 10
-109.129
 20
-81.5241
 11
-108.545
 21
-81.7553
  0
LINE
  8
0
 10
-108.545
 20
-81.7553
 11
-107.937
 21
-81.9114
  0
LINE
  8
0
 10
-107.937
 20
-81.9114
 11
-107.314
 21
-81.9901
  0
LINE
  8
0
 10
-107.314
 20
-81.9901
 11
107.314
 21
-81.9901
  0
LINE
  8
0
 10
107.314
 20
-81.9901
 11
107.937
 21
-81.9114
  0
LINE
  8
0
 10
-105.188
 20
72.0059
 11
-105.562
 21
72.0531
  0
LINE
  8
0
 10
-105.562
 20
72.0531
 11
-105.927
 21
72.1468
  0
LINE
  8
0
 10
-105.927
 20
72.1468
 11
-106.277
 21
72.2855
  0
LINE
  8
0
 10
-106.277
 20
72.2855
 11
-106.607
 21
72.467
  0
LINE
  8
0
 10
-106.607
 20
72.467
 11
-106.912
 21
72.6885
  0
LINE
  8
0
 10
-106.912
 20
72.6885
 11
-107.187
 21
72.9464
  0
LINE
  8
0
 10
-107.187
 20
72.9464
 11
-107.427
 21
73.2366
  0
LINE
  8
0
 10
-107.427
 20
73.2366
 11
-107.629
 21
73.5547
  0
LINE
  8
0
 10
-107.629
 20
73.5547
 11
-107.789
 21
73.8956
  0
LINE
  8
0
 10
-107.789
 20
73.8956
 11
-107.906
 21
74.2539
  0
LINE
  8
0
 10
-107.906
 20
74.2539
 11
-107.976
 21
74.624
  0
LINE
  8
0
 10
-107.976
 20
74.624
 11
-108
 21
75
  0
LINE
  8
0
 10
-108
 20
75
 11
-107.976
 21
75.376
  0
LINE
  8
0
 10
-107.976
 20
75.376
 11
-107.906
 21
75.7461
  0
LINE
  8
0
 10
-107.906
 20
75.7461
 11
-107.789
 21
76.1044
  0
LINE
  8
0
 10
-107.789
 20
76.1044
 11
-107.629
 21
76.4453
  0
LINE
  8
0
 10
-107.629
 20
76.4453
 11
-107.427
 21
76.7634
  0
LINE
  8
0
 10
-107.427
 20
76.7634
 11
-107.187
 21
77.0536
  0
LINE
  8
0
 10
-107.187
 20
77.0536
 11
-106.912
 21
77.3115
  0
LINE
  8
0
 10
-106.912
 20
77.3115
 11
-106.607
 21
77.533
  0
LINE
  8
0
 10
-106.607
 20
77.533
 11
-106.277
 21
77.7145
  0
LINE
  8
0
 10
-106.277
 20
77.7145
 11
-105.927
 21
77.8532
  0
LINE
  8
0
 10
-105.927
 20
77.8532
 11
-105.562
 21
77.9469
  0
LINE
  8
0
 10
-105.562
 20
77.9469
 11
-105.188
 21
77.9941
  0
LINE
  8
0
 10
-105.188
 20
77.9941
 11
-104.812
 21
77.9941
  0
LINE
  8
0
 10
-104.812
 20
77.9941
 11
-104.438
 21
77.9469
  0
LINE
  8
0
 10
-104.438
 20
77.9469
 11
-104.073
 21
77.8532
  0
LINE
  8
0
 10
-104.073
 20
77.8532
 11
-103.723
 21
77.7145
  0
LINE
  8
0
 10
-103.723
 20
77.7145
 11
-103.393
 21
77.533
  0
LINE
  8
0
 10
-103.393
 20
77.533
 11
-103.088
 21
77.3115
  0
LINE
  8
0
 10
-103.088
 20
77.3115
 11
-102.813
 21
77.0536
  0
LINE
  8
0
 10
-102.813
 20
77.0536
 11
-102.573
 21
76.7634
  0
LINE
  8
0
 10
-102.573
 20
76.7634
 11
-102.371
 21
76.4453
  0
LINE
  8
0
 10
-102.371
 20
76.4453
 11
-102.211
 21
76.1044
  0
LINE
  8
0
 10
-102.211
 20
76.1044
 11
-102.094
 21
75.7461
  0
LINE
  8
0
 10
-102.094
 20
75.7461
 11
-102.024
 21
75.376
  0
LINE
  8
0
 10
-102.024
 20
75.376
 11
-102
 21
75
  0
LINE
  8
0
 10
-102
 20
75
 11
-102.024
 21
74.624
  0
LINE
  8
0
 10
-102.024
 20
74.624
 11
-102.094
 21
74.2539
  0
LINE
  8
0
 10
-102.094
 20
74.2539
 11
-102.211
 21
73.8956
  0
LINE
  8
0
 10
-102.211
 20
73.8956
 11
-102.371
 21
73.5547
  0
LINE
  8
0
 10
-102.371
 20
73.5547
 11
-102.573
 21
73.2366
  0
LINE
  8
0
 10
-102.573
 20
73.2366
 11
-102.813
 21
72.9464
  0
LINE
  8
0
 10
-102.813
 20
72.9464
 11
-103.088
 21
72.6885
  0
LINE
  8
0
 10
-103.088
 20
72.6885
 11
-103.393
 21
72.467
  0
LINE
  8
0
 10
-103.393
 20
72.467
 11
-103.723
 21
72.2855
  0
LINE
  8
0
 10
-103.723
 20
72.2855
 11
-104.073
 21
72.1468
  0
LINE
  8
0
 10
-104.073
 20
72.1468
 11
-104.438
 21
72.0531
  0
LINE
  8
0
 10
-104.438
 20
72.0531
 11
-104.812
 21
72.0059
  0
LINE
  8
0
 10
-104.812
 20
72.0059
 11
-105.188
 21
72.0059
  0
LINE
  8
0
 10
104.812
 20
72.0059
 11
104.438
 21
72.0531
  0
LINE
  8
0
 10
104.438
 20
72.0531
 11
104.073
 21
72.1468
  0
LINE
  8
0
 10
104.073
 20
72.1468
 11
103.723
 21
72.2855
  0
LINE
  8
0
 10
103.723
 20
72.2855
 11
103.393
 21
72.467
  0
LINE
  8
0
 10
103.393
 20
72.467
 11
103.088
 21
72.6885
  0
LINE
  8
0
 10
103.088
 20
72.6885
 11
102.813
 21
72.9464
  0
LINE
  8
0
 10
102.813
 20
72.9464
 11
102.573
 21
73.2366
  0
LINE
  8
0
 10
102.573
 20
73.2366
 11
102.371
 21
73.5547
  0
LINE
  8
0
 10
102.371
 20
73.5547
 11
102.211
 21
73.8956
  0
LINE
  8
0
 10
102.211
 20
73.8956
 11
102.094
 21
74.2539
  0
LINE
  8
0
 10
102.094
 20
74.2539
 11
102.024
 21
74.624
  0
LINE
  8
0
 10
102.024
 20
74.624
 11
102
 21
75
  0
LINE
  8
0
 10
102
 20
75
 11
102.024
 21
75.376
  0
LINE
  8
0
 10
102.024
 20
75.376
 11
102.094
 21
75.7461
  0
LINE
  8
0
 10
102.094
 20
75.7461
 11
102.211
 21
76.1044
  0
LINE
  8
0
 10
102.211
 20
76.1044
 11
102.371
 21
76.4453
  0
LINE
  8
0
 10
102.371
 20
76.4453
 11
102.573
 21
76.7634
  0
LINE
  8
0
 10
102.573
 20
76.7634
 11
102.813
 21
77.0536
  0
LINE
  8
0
 10
102.813
 20
77.0536
 11
103.088
 21
77.3115
  0
LINE
  8
0
 10
103.088
 20
77.3115
 11
103.393
 21
77.533
  0
LINE
  8
0
 10
103.393
 20
77.533
 11
103.723
 21
77.7145
  0
LINE
  8
0
 10
103.723
 20
77.7145
 11
104.073
 21
77.8532
  0
LINE
  8
0
 10
104.073
 20
77.8532
 11
104.438
 21
77.9469
  0
LINE
  8
0
 10
104.438
 20
77.9469
 11
104.812
 21
77.9941
  0
LINE
  8
0
 10
104.812
 20
77.9941
 11
105.188
 21
77.9941
  0
LINE
  8
0
 10
105.188
 20
77.9941
 11
105.562
 21
77.9469
  0
LINE
  8
0
 10
105.562
 20
77.9469
 11
105.927
 21
77.8532
  0
LINE
  8
0
 10
105.927
 20
77.8532
 11
106.277
 21
77.7145
  0
LINE
  8
0
 10
106.277
 20
77.7145
 11
106.607
 21
77.533
  0
LINE
  8
0
 10
106.607
 20
77.533
 11
106.912
 21
77.3115
  0
LINE
  8
0
 10
106.912
 20
77.3115
 11
107.187
 21
77.0536
  0
LINE
  8
0
 10
107.187
 20
77.0536
 11
107.427
 21
76.7634
  0
LINE
  8
0
 10
107.427
 20
76.7634
 11
107.629
 21
76.4453
  0
LINE
  8
0
 10
107.629
 20
76.4453
 11
107.789
 21
76.1044
  0
LINE
  8
0
 10
107.789
 20
76.1044
 11
107.906
 21
75.7461
  0
LINE
  8
0
 10
107.906
 20
75.7461
 11
107.976
 21
75.376
  0
LINE
  8
0
 10
107.976
 20
75.376
 11
108
 21
75
  0
LINE
  8
0
 10
108
 20
75
 11
107.976
 21
74.624
  0
LINE
  8
0
 10
107.976
 20
74.624
 11
107.906
 21
74.2539
  0
LINE
  8
0
 10
107.906
 20
74.2539
 11
107.789
 21
73.8956
  0
LINE
  8
0
 10
107.789
 20
73.8956
 11
107.629
 21
73.5547
  0
LINE
  8
0
 10
107.629
 20
73.5547
 11
107.427
 21
73.2366
  0
LINE
  8
0
 10
107.427
 20
73.2366
 11
107.187
 21
72.9464
  0
LINE
  8
0
 10
107.187
 20
72.9464
 11
106.912
 21
72.6885
  0
LINE
  8
0
 10
106.912
 20
72.6885
 11
106.607
 21
72.467
  0
LINE
  8
0
 10
106.607
 20
72.467
 11
106.277
 21
72.2855
  0
LINE
  8
0
 10
106.277
 20
72.2855
 11
105.927
 21
72.1468
  0
LINE
  8
0
 10
105.927
 20
72.1468
 11
105.562
 21
72.0531
  0
LINE
  8
0
 10
105.562
 20
72.0531
 11
105.188
 21
72.0059
  0
LINE
  8
0
 10
105.188
 20
72.0059
 11
104.812
 21
72.0059
  0
LINE
  8
0
 10
-105.094
 20
66.003
 11
-105.281
 21
66.0266
  0
LINE
  8
0
 10
-105.281
 20
66.0266
 11
-105.464
 21
66.0734
  0
LINE
  8
0
 10
-105.464
 20
66.0734
 11
-105.639
 21
66.1428
  0
LINE
  8
0
 10
-105.639
 20
66.1428
 11
-105.804
 21
66.2335
  0
LINE
  8
0
 10
-105.804
 20
66.2335
 11
-105.956
 21
66.3442
  0
LINE
  8
0
 10
-105.956
 20
66.3442
 11
-106.093
 21
66.4732
  0
LINE
  8
0
 10
-106.093
 20
66.4732
 11
-106.214
 21
66.6183
  0
LINE
  8
0
 10
-106.214
 20
66.6183
 11
-106.314
 21
66.7774
  0
LINE
  8
0
 10
-106.314
 20
66.7774
 11
-106.395
 21
66.9478
  0
LINE
  8
0
 10
-106.395
 20
66.9478
 11
-106.453
 21
67.127
  0
LINE
  8
0
 10
-106.453
 20
67.127
 11
-106.488
 21
67.312
  0
LINE
  8
0
 10
-106.488
 20
67.312
 11
-106.5
 21
67.5
  0
LINE
  8
0
 10
-106.5
 20
67.5
 11
-106.488
 21
67.688
  0
LINE
  8
0
 10
-106.488
 20
67.688
 11
-106.453
 21
67.873
  0
LINE
  8
0
 10
-106.453
 20
67.873
 11
-106.395
 21
68.0522
  0
LINE
  8
0
 10
-106.395
 20
68.0522
 11
-106.314
 21
68.2226
  0
LINE
  8
0
 10
-106.314
 20
68.2226
 11
-106.214
 21
68.3817
  0
LINE
  8
0
 10
-106.214
 20
68.3817
 11
-106.093
 21
68.5268
  0
LINE
  8
0
 10
-106.093
 20
68.5268
 11
-105.956
 21
68.6558
  0
LINE
  8
0
 10
-105.956
 20
68.6558
 11
-105.804
 21
68.7665
  0
LINE
  8
0
 10
-105.804
 20
68.7665
 11
-105.639
 21
68.8572
  0
LINE
  8
0
 10
-105.639
 20
68.8572
 11
-105.464
 21
68.9266
  0
LINE
  8
0
 10
-105.464
 20
68.9266
 11
-105.281
 21
68.9734
  0
LINE
  8
0
 10
-105.281
 20
68.9734
 11
-105.094
 21
68.997
  0
LINE
  8
0
 10
-105.094
 20
68.997
 11
-104.906
 21
68.997
  0
LINE
  8
0
 10
-104.906
 20
68.997
 11
-104.719
 21
68.9734
  0
LINE
  8
0
 10
-104.719
 20
68.9734
 11
-104.536
 21
68.9266
  0
LINE
  8
0
 10
-104.536
 20
68.9266
 11
-104.361
 21
68.8572
  0
LINE
  8
0
 10
-104.361
 20
68.8572
 11
-104.196
 21
68.7665
  0
LINE
  8
0
 10
-104.196
 20
68.7665
 11
-104.044
 21
68.6558
  0
LINE
  8
0
 10
-104.044
 20
68.6558
 11
-103.907
 21
68.5268
  0
LINE
  8
0
 10
-103.907
 20
68.5268
 11
-103.786
 21
68.3817
  0
LINE
  8
0
 10
-103.786
 20
68.3817
 11
-103.686
 21
68.2226
  0
LINE
  8
0
 10
-103.686
 20
68.2226
 11
-103.605
 21
68.0522
  0
LINE
  8
0
 10
-103.605
 20
68.0522
 11
-103.547
 21
67.873
  0
LINE
  8
0
 10
-103.547
 20
67.873
 11
-103.512
 21
67.688
  0
LINE
  8
0
 10
-103.512
 20
67.688
 11
-103.5
 21
67.5
  0
LINE
  8
0
 10
-103.5
 20
67.5
 11
-103.512
 21
67.312
  0
LINE
  8
0
 10
-103.512
 20
67.312
 11
-103.547
 21
67.127
  0
LINE
  8
0
 10
-103.547
 20
67.127
 11
-103.605
 21
66.9478
  0
LINE
  8
0
 10
-103.605
 20
66.9478
 11
-103.686
 21
66.7774
  0
LINE
  8
0
 10
-103.686
 20
66.7774
 11
-103.786
 21
66.6183
  0
LINE
  8
0
 10
-103.786
 20
66.6183
 11
-103.907
 21
66.4732
  0
LINE
  8
0
 10
-103.907
 20
66.4732
 11
-104.044
 21
66.3442
  0
LINE
  8
0
 10
-104.044
 20
66.3442
 11
-104.196
 21
66.2335
  0
LINE
  8
0
 10
-104.196
 20
66.2335
 11
-104.361
 21
66.1428
  0
LINE
  8
0
 10
-104.361
 20
66.1428
 11
-104.536
 21
66.0734
  0
LINE
  8
0
 10
-104.536
 20
66.0734
 11
-104.719
 21
66.0266
  0
LINE
  8
0
 10
-104.719
 20
66.0266
 11
-104.906
 21
66.003
  0
LINE
  8
0
 10
-104.906
 20
66.003
 11
-105.094
 21
66.003
  0
LINE
  8
0
 10
104.906
 20
66.003
 11
104.719
 21
66.0266
  0
LINE
  8
0
 10
104.719
 20
66.0266
 11
104.536
 21
66.0734
  0
LINE
  8
0
 10
104.536
 20
66.0734
 11
104.361
 21
66.1428
  0
LINE
  8
0
 10
104.361
 20
66.1428
 11
104.196
 21
66.2335
  0
LINE
  8
0
 10
104.196
 20
66.2335
 11
104.044
 21
66.3442
  0
LINE
  8
0
 10
104.044
 20
66.3442
 11
103.907
 21
66.4732
  0
LINE
  8
0
 10
103.907
 20
66.4732
 11
103.786
 21
66.6183
  0
LINE
  8
0
 10
103.786
 20
66.6183
 11
103.686
 21
66.7774
  0
LINE
  8
0
 10
103.686
 20
66.7774
 11
103.605
 21
66.9478
  0
LINE
  8
0
 10
103.605
 20
66.9478
 11
103.547
 21
67.127
  0
LINE
  8
0
 10
103.547
 20
67.127
 11
103.512
 21
67.312
  0
LINE
  8
0
 10
103.512
 20
67.312
 11
103.5
 21
67.5
  0
LINE
  8
0
 10
103.5
 20
67.5
 11
103.512
 21
67.688
  0
LINE
  8
0
 10
103.512
 20
67.688
 11
103.547
 21
67.873
  0
LINE
  8
0
 10
103.547
 20
67.873
 11
103.605
 21
68.0522
  0
LINE
  8
0
 10
103.605
 20
68.0522
 11
103.686
 21
68.2226
  0
LINE
  8
0
 10
103.686
 20
68.2226
 11
103.786
 21
68.3817
  0
LINE
  8
0
 10
103.786
 20
68.3817
 11
103.907
 21
68.5268
  0
LINE
  8
0
 10
103.907
 20
68.5268
 11
104.044
 21
68.6558
  0
LINE
  8
0
 10
104.044
 20
68.6558
 11
104.196
 21
68.7665
  0
LINE
  8
0
 10
104.196
 20
68.7665
 11
104.361
 21
68.8572
  0
LINE
  8
0
 10
104.361
 20
68.8572
 11
104.536
 21
68.9266
  0
LINE
  8
0
 10
104.536
 20
68.9266
 11
104.719
 21
68.9734
  0
LINE
  8
0
 10
104.719
 20
68.9734
 11
104.906
 21
68.997
  0
LINE
  8
0
 10
104.906
 20
68.997
 11
105.094
 21
68.997
  0
LINE
  8
0
 10
105.094
 20
68.997
 11
105.281
 21
68.9734
  0
LINE
  8
0
 10
105.281
 20
68.9734
 11
105.464
 21
68.9266
  0
LINE
  8
0
 10
105.464
 20
68.9266
 11
105.639
 21
68.8572
  0
LINE
  8
0
 10
105.639
 20
68.8572
 11
105.804
 21
68.7665
  0
LINE
  8
0
 10
105.804
 20
68.7665
 11
105.956
 21
68.6558
  0
LINE
  8
0
 10
105.956
 20
68.6558
 11
106.093
 21
68.5268
  0
LINE
  8
0
 10
106.093
 20
68.5268
 11
106.214
 21
68.3817
  0
LINE
  8
0
 10
106.214
 20
68.3817
 11
106.314
 21
68.2226
  0
LINE
  8
0
 10
106.314
 20
68.2226
 11
106.395
 21
68.0522
  0
LINE
  8
0
 10
106.395
 20
68.0522
 11
106.453
 21
67.873
  0
LINE
  8
0
 10
106.453
 20
67.873
 11
106.488
 21
67.688
  0
LINE
  8
0
 10
106.488
 20
67.688
 11
106.5
 21
67.5
  0
LINE
  8
0
 10
106.5
 20
67.5
 11
106.488
 21
67.312
  0
LINE
  8
0
 10
106.488
 20
67.312
 11
106.453
 21
67.127
  0
LINE
  8
0
 10
106.453
 20
67.127
 11
106.395
 21
66.9478
  0
LINE
  8
0
 10
106.395
 20
66.9478
 11
106.314
 21
66.7774
  0
LINE
  8
0
 10
106.314
 20
66.7774
 11
106.214
 21
66.6183
  0
LINE
  8
0
 10
106.214
 20
66.6183
 11
106.093
 21
66.4732
  0
LINE
  8
0
 10
106.093
 20
66.4732
 11
105.956
 21
66.3442
  0
LINE
  8
0
 10
105.956
 20
66.3442
 11
105.804
 21
66.2335
  0
LINE
  8
0
 10
105.804
 20
66.2335
 11
105.639
 21
66.1428
  0
LINE
  8
0
 10
105.639
 20
66.1428
 11
105.464
 21
66.0734
  0
LINE
  8
0
 10
105.464
 20
66.0734
 11
105.281
 21
66.0266
  0
LINE
  8
0
 10
105.281
 20
66.0266
 11
105.094
 21
66.003
  0
LINE
  8
0
 10
105.094
 20
66.003
 11
104.906
 21
66.003
  0
LINE
  8
0
 10
104.812
 20
57.0059
 11
104.438
 21
57.0531
  0
LINE
  8
0
 10
104.438
 20
57.0531
 11
104.073
 21
57.1468
  0
LINE
  8
0
 10
104.073
 20
57.1468
 11
103.723
 21
57.2855
  0
LINE
  8
0
 10
103.723
 20
57.2855
 11
103.393
 21
57.467
  0
LINE
  8
0
 10
103.393
 20
57.467
 11
103.088
 21
57.6885
  0
LINE
  8
0
 10
103.088
 20
57.6885
 11
102.813
 21
57.9464
  0
LINE
  8
0
 10
102.813
 20
57.9464
 11
102.573
 21
58.2366
  0
LINE
  8
0
 10
102.573
 20
58.2366
 11
102.371
 21
58.5547
  0
LINE
  8
0
 10
102.371
 20
58.5547
 11
102.211
 21
58.8956
  0
LINE
  8
0
 10
102.211
 20
58.8956
 11
102.094
 21
59.2539
  0
LINE
  8
0
 10
102.094
 20
59.2539
 11
102.024
 21
59.624
  0
LINE
  8
0
 10
102.024
 20
59.624
 11
102
 21
60
  0
LINE
  8
0
 10
102
 20
60
 11
102.024
 21
60.376
  0
LINE
  8
0
 10
102.024
 20
60.376
 11
102.094
 21
60.7461
  0
LINE
  8
0
 10
102.094
 20
60.7461
 11
102.211
 21
61.1044
  0
LINE
  8
0
 10
102.211
 20
61.1044
 11
102.371
 21
61.4453
  0
LINE
  8
0
 10
102.371
 20
61.4453
 11
102.573
 21
61.7634
  0
LINE
  8
0
 10
102.573
 20
61.7634
 11
102.813
 21
62.0536
  0
LINE
  8
0
 10
102.813
 20
62.0536
 11
103.088
 21
62.3115
  0
LINE
  8
0
 10
103.088
 20
62.3115
 11
103.393
 21
62.533
  0
LINE
  8
0
 10
103.393
 20
62.533
 11
103.723
 21
62.7145
  0
LINE
  8
0
 10
103.723
 20
62.7145
 11
104.073
 21
62.8532
  0
LINE
  8
0
 10
104.073
 20
62.8532
 11
104.438
 21
62.9469
  0
LINE
  8
0
 10
104.438
 20
62.9469
 11
104.812
 21
62.9941
  0
LINE
  8
0
 10
104.812
 20
62.9941
 11
105.188
 21
62.9941
  0
LINE
  8
0
 10
105.188
 20
62.9941
 11
105.562
 21
62.9469
  0
LINE
  8
0
 10
105.562
 20
62.9469
 11
105.927
 21
62.8532
  0
LINE
  8
0
 10
105.927
 20
62.8532
 11
106.277
 21
62.7145
  0
LINE
  8
0
 10
106.277
 20
62.7145
 11
106.607
 21
62.533
  0
LINE
  8
0
 10
106.607
 20
62.533
 11
106.912
 21
62.3115
  0
LINE
  8
0
 10
106.912
 20
62.3115
 11
107.187
 21
62.0536
  0
LINE
  8
0
 10
107.187
 20
62.0536
 11
107.427
 21
61.7634
  0
LINE
  8
0
 10
107.427
 20
61.7634
 11
107.629
 21
61.4453
  0
LINE
  8
0
 10
107.629
 20
61.4453
 11
107.789
 21
61.1044
  0
LINE
  8
0
 10
107.789
 20
61.1044
 11
107.906
 21
60.7461
  0
LINE
  8
0
 10
107.906
 20
60.7461
 11
107.976
 21
60.376
  0
LINE
  8
0
 10
107.976
 20
60.376
 11
108
 21
60
  0
LINE
  8
0
 10
108
 20
60
 11
107.976
 21
59.624
  0
LINE
  8
0
 10
107.976
 20
59.624
 11
107.906
 21
59.2539
  0
LINE
  8
0
 10
107.906
 20
59.2539
 11
107.789
 21
58.8956
  0
LINE
  8
0
 10
107.789
 20
58.8956
 11
107.629
 21
58.5547
  0
LINE
  8
0
 10
107.629
 20
58.5547
 11
107.427
 21
58.2366
  0
LINE
  8
0
 10
107.427
 20
58.2366
 11
107.187
 21
57.9464
  0
LINE
  8
0
 10
107.187
 20
57.9464
 11
106.912
 21
57.6885
  0
LINE
  8
0
 10
106.912
 20
57.6885
 11
106.607
 21
57.467
  0
LINE
  8
0
 10
106.607
 20
57.467
 11
106.277
 21
57.2855
  0
LINE
  8
0
 10
106.277
 20
57.2855
 11
105.927
 21
57.1468
  0
LINE
  8
0
 10
105.927
 20
57.1468
 11
105.562
 21
57.0531
  0
LINE
  8
0
 10
105.562
 20
57.0531
 11
105.188
 21
57.0059
  0
LINE
  8
0
 10
105.188
 20
57.0059
 11
104.812
 21
57.0059
  0
LINE
  8
0
 10
-105.188
 20
57.0059
 11
-105.562
 21
57.0531
  0
LINE
  8
0
 10
-105.562
 20
57.0531
 11
-105.927
 21
57.1468
  0
LINE
  8
0
 10
-105.927
 20
57.1468
 11
-106.277
 21
57.2855
  0
LINE
  8
0
 10
-106.277
 20
57.2855
 11
-106.607
 21
57.467
  0
LINE
  8
0
 10
-106.607
 20
57.467
 11
-106.912
 21
57.6885
  0
LINE
  8
0
 10
-106.912
 20
57.6885
 11
-107.187
 21
57.9464
  0
LINE
  8
0
 10
-107.187
 20
57.9464
 11
-107.427
 21
58.2366
  0
LINE
  8
0
 10
-107.427
 20
58.2366
 11
-107.629
 21
58.5547
  0
LINE
  8
0
 10
-107.629
 20
58.5547
 11
-107.789
 21
58.8956
  0
LINE
  8
0
 10
-107.789
 20
58.8956
 11
-107.906
 21
59.2539
  0
LINE
  8
0
 10
-107.906
 20
59.2539
 11
-107.976
 21
59.624
  0
LINE
  8
0
 10
-107.976
 20
59.624
 11
-108
 21
60
  0
LINE
  8
0
 10
-108
 20
60
 11
-107.976
 21
60.376
  0
LINE
  8
0
 10
-107.976
 20
60.376
 11
-107.906
 21
60.7461
  0
LINE
  8
0
 10
-107.906
 20
60.7461
 11
-107.789
 21
61.1044
  0
LINE
  8
0
 10
-107.789
 20
61.1044
 11
-107.629
 21
61.4453
  0
LINE
  8
0
 10
-107.629
 20
61.4453
 11
-107.427
 21
61.7634
  0
LINE
  8
0
 10
-107.427
 20
61.7634
 11
-107.187
 21
62.0536
  0
LINE
  8
0
 10
-107.187
 20
62.0536
 11
-106.912
 21
62.3115
  0
LINE
  8
0
 10
-106.912
 20
62.3115
 11
-106.607
 21
62.533
  0
LINE
  8
0
 10
-106.607
 20
62.533
 11
-106.277
 21
62.7145
  0
LINE
  8
0
 10
-106.277
 20
62.7145
 11
-105.927
 21
62.8532
  0
LINE
  8
0
 10
-105.927
 20
62.8532
 11
-105.562
 21
62.9469
  0
LINE
  8
0
 10
-105.562
 20
62.9469
 11
-105.188
 21
62.9941
  0
LINE
  8
0
 10
-105.188
 20
62.9941
 11
-104.812
 21
62.9941
  0
LINE
  8
0
 10
-104.812
 20
62.9941
 11
-104.438
 21
62.9469
  0
LINE
  8
0
 10
-104.438
 20
62.9469
 11
-104.073
 21
62.8532
  0
LINE
  8
0
 10
-104.073
 20
62.8532
 11
-103.723
 21
62.7145
  0
LINE
  8
0
 10
-103.723
 20
62.7145
 11
-103.393
 21
62.533
  0
LINE
  8
0
 10
-103.393
 20
62.533
 11
-103.088
 21
62.3115
  0
LINE
  8
0
 10
-103.088
 20
62.3115
 11
-102.813
 21
62.0536
  0
LINE
  8
0
 10
-102.813
 20
62.0536
 11
-102.573
 21
61.7634
  0
LINE
  8
0
 10
-102.573
 20
61.7634
 11
-102.371
 21
61.4453
  0
LINE
  8
0
 10
-102.371
 20
61.4453
 11
-102.211
 21
61.1044
  0
LINE
  8
0
 10
-102.211
 20
61.1044
 11
-102.094
 21
60.7461
  0
LINE
  8
0
 10
-102.094
 20
60.7461
 11
-102.024
 21
60.376
  0
LINE
  8
0
 10
-102.024
 20
60.376
 11
-102
 21
60
  0
LINE
  8
0
 10
-102
 20
60
 11
-102.024
 21
59.624
  0
LINE
  8
0
 10
-102.024
 20
59.624
 11
-102.094
 21
59.2539
  0
LINE
  8
0
 10
-102.094
 20
59.2539
 11
-102.211
 21
58.8956
  0
LINE
  8
0
 10
-102.211
 20
58.8956
 11
-102.371
 21
58.5547
  0
LINE
  8
0
 10
-102.371
 20
58.5547
 11
-102.573
 21
58.2366
  0
LINE
  8
0
 10
-102.573
 20
58.2366
 11
-102.813
 21
57.9464
  0
LINE
  8
0
 10
-102.813
 20
57.9464
 11
-103.088
 21
57.6885
  0
LINE
  8
0
 10
-103.088
 20
57.6885
 11
-103.393
 21
57.467
  0
LINE
  8
0
 10
-103.393
 20
57.467
 11
-103.723
 21
57.2855
  0
LINE
  8
0
 10
-103.723
 20
57.2855
 11
-104.073
 21
57.1468
  0
LINE
  8
0
 10
-104.073
 20
57.1468
 11
-104.438
 21
57.0531
  0
LINE
  8
0
 10
-104.438
 20
57.0531
 11
-104.812
 21
57.0059
  0
LINE
  8
0
 10
-104.812
 20
57.0059
 11
-105.188
 21
57.0059
  0
LINE
  8
0
 10
104.906
 20
51.003
 11
104.719
 21
51.0266
  0
LINE
  8
0
 10
104.719
 20
51.0266
 11
104.536
 21
51.0734
  0
LINE
  8
0
 10
104.536
 20
51.0734
 11
104.361
 21
51.1428
  0
LINE
  8
0
 10
104.361
 20
51.1428
 11
104.196
 21
51.2335
  0
LINE
  8
0
 10
104.196
 20
51.2335
 11
104.044
 21
51.3442
  0
LINE
  8
0
 10
104.044
 20
51.3442
 11
103.907
 21
51.4732
  0
LINE
  8
0
 10
103.907
 20
51.4732
 11
103.786
 21
51.6183
  0
LINE
  8
0
 10
103.786
 20
51.6183
 11
103.686
 21
51.7774
  0
LINE
  8
0
 10
103.686
 20
51.7774
 11
103.605
 21
51.9478
  0
LINE
  8
0
 10
103.605
 20
51.9478
 11
103.547
 21
52.127
  0
LINE
  8
0
 10
103.547
 20
52.127
 11
103.512
 21
52.312
  0
LINE
  8
0
 10
103.512
 20
52.312
 11
103.5
 21
52.5
  0
LINE
  8
0
 10
103.5
 20
52.5
 11
103.512
 21
52.688
  0
LINE
  8
0
 10
103.512
 20
52.688
 11
103.547
 21
52.873
  0
LINE
  8
0
 10
103.547
 20
52.873
 11
103.605
 21
53.0522
  0
LINE
  8
0
 10
103.605
 20
53.0522
 11
103.686
 21
53.2226
  0
LINE
  8
0
 10
103.686
 20
53.2226
 11
103.786
 21
53.3817
  0
LINE
  8
0
 10
103.786
 20
53.3817
 11
103.907
 21
53.5268
  0
LINE
  8
0
 10
103.907
 20
53.5268
 11
104.044
 21
53.6558
  0
LINE
  8
0
 10
104.044
 20
53.6558
 11
104.196
 21
53.7665
  0
LINE
  8
0
 10
104.196
 20
53.7665
 11
104.361
 21
53.8572
  0
LINE
  8
0
 10
104.361
 20
53.8572
 11
104.536
 21
53.9266
  0
LINE
  8
0
 10
104.536
 20
53.9266
 11
104.719
 21
53.9734
  0
LINE
  8
0
 10
104.719
 20
53.9734
 11
104.906
 21
53.997
  0
LINE
  8
0
 10
104.906
 20
53.997
 11
105.094
 21
53.997
  0
LINE
  8
0
 10
105.094
 20
53.997
 11
105.281
 21
53.9734
  0
LINE
  8
0
 10
105.281
 20
53.9734
 11
105.464
 21
53.9266
  0
LINE
  8
0
 10
105.464
 20
53.9266
 11
105.639
 21
53.8572
  0
LINE
  8
0
 10
105.639
 20
53.8572
 11
105.804
 21
53.7665
  0
LINE
  8
0
 10
105.804
 20
53.7665
 11
105.956
 21
53.6558
  0
LINE
  8
0
 10
105.956
 20
53.6558
 11
106.093
 21
53.5268
  0
LINE
  8
0
 10
106.093
 20
53.5268
 11
106.214
 21
53.3817
  0
LINE
  8
0
 10
106.214
 20
53.3817
 11
106.314
 21
53.2226
  0
LINE
  8
0
 10
106.314
 20
53.2226
 11
106.395
 21
53.0522
  0
LINE
  8
0
 10
106.395
 20
53.0522
 11
106.453
 21
52.873
  0
LINE
  8
0
 10
106.453
 20
52.873
 11
106.488
 21
52.688
  0
LINE
  8
0
 10
106.488
 20
52.688
 11
106.5
 21
52.5
  0
LINE
  8
0
 10
106.5
 20
52.5
 11
106.488
 21
52.312
  0
LINE
  8
0
 10
106.488
 20
52.312
 11
106.453
 21
52.127
  0
LINE
  8
0
 10
106.453
 20
52.127
 11
106.395
 21
51.9478
  0
LINE
  8
0
 10
106.395
 20
51.9478
 11
106.314
 21
51.7774
  0
LINE
  8
0
 10
106.314
 20
51.7774
 11
106.214
 21
51.6183
  0
LINE
  8
0
 10
106.214
 20
51.6183
 11
106.093
 21
51.4732
  0
LINE
  8
0
 10
106.093
 20
51.4732
 11
105.956
 21
51.3442
  0
LINE
  8
0
 10
105.956
 20
51.3442
 11
105.804
 21
51.2335
  0
LINE
  8
0
 10
105.804
 20
51.2335
 11
105.639
 21
51.1428
  0
LINE
  8
0
 10
105.639
 20
51.1428
 11
105.464
 21
51.0734
  0
LINE
  8
0
 10
105.464
 20
51.0734
 11
105.281
 21
51.0266
  0
LINE
  8
0
 10
105.281
 20
51.0266
 11
105.094
 21
51.003
  0
LINE
  8
0
 10
105.094
 20
51.003
 11
104.906
 21
51.003
  0
LINE
  8
0
 10
-105.094
 20
51.003
 11
-105.281
 21
51.0266
  0
LINE
  8
0
 10
-105.281
 20
51.0266
 11
-105.464
 21
51.0734
  0
LINE
  8
0
 10
-105.464
 20
51.0734
 11
-105.639
 21
51.1428
  0
LINE
  8
0
 10
-105.639
 20
51.1428
 11
-105.804
 21
51.2335
  0
LINE
  8
0
 10
-105.804
 20
51.2335
 11
-105.956
 21
51.3442
  0
LINE
  8
0
 10
-105.956
 20
51.3442
 11
-106.093
 21
51.4732
  0
LINE
  8
0
 10
-106.093
 20
51.4732
 11
-106.214
 21
51.6183
  0
LINE
  8
0
 10
-106.214
 20
51.6183
 11
-106.314
 21
51.7774
  0
LINE
  8
0
 10
-106.314
 20
51.7774
 11
-106.395
 21
51.9478
  0
LINE
  8
0
 10
-106.395
 20
51.9478
 11
-106.453
 21
52.127
  0
LINE
  8
0
 10
-106.453
 20
52.127
 11
-106.488
 21
52.312
  0
LINE
  8
0
 10
-106.488
 20
52.312
 11
-106.5
 21
52.5
  0
LINE
  8
0
 10
-106.5
 20
52.5
 11
-106.488
 21
52.688
  0
LINE
  8
0
 10
-106.488
 20
52.688
 11
-106.453
 21
52.873
  0
LINE
  8
0
 10
-106.453
 20
52.873
 11
-106.395
 21
53.0522
  0
LINE
  8
0
 10
-106.395
 20
53.0522
 11
-106.314
 21
53.2226
  0
LINE
  8
0
 10
-106.314
 20
53.2226
 11
-106.214
 21
53.3817
  0
LINE
  8
0
 10
-106.214
 20
53.3817
 11
-106.093
 21
53.5268
  0
LINE
  8
0
 10
-106.093
 20
53.5268
 11
-105.956
 21
53.6558
  0
LINE
  8
0
 10
-105.956
 20
53.6558
 11
-105.804
 21
53.7665
  0
LINE
  8
0
 10
-105.804
 20
53.7665
 11
-105.639
 21
53.8572
  0
LINE
  8
0
 10
-105.639
 20
53.8572
 11
-105.464
 21
53.9266
  0
LINE
  8
0
 10
-105.464
 20
53.9266
 11
-105.281
 21
53.9734
  0
LINE
  8
0
 10
-105.281
 20
53.9734
 11
-105.094
 21
53.997
  0
LINE
  8
0
 10
-105.094
 20
53.997
 11
-104.906
 21
53.997
  0
LINE
  8
0
 10
-104.906
 20
53.997
 11
-104.719
 21
53.9734
  0
LINE
  8
0
 10
-104.719
 20
53.9734
 11
-104.536
 21
53.9266
  0
LINE
  8
0
 10
-104.536
 20
53.9266
 11
-104.361
 21
53.8572
  0
LINE
  8
0
 10
-104.361
 20
53.8572
 11
-104.196
 21
53.7665
  0
LINE
  8
0
 10
-104.196
 20
53.7665
 11
-104.044
 21
53.6558
  0
LINE
  8
0
 10
-104.044
 20
53.6558
 11
-103.907
 21
53.5268
  0
LINE
  8
0
 10
-103.907
 20
53.5268
 11
-103.786
 21
53.3817
  0
LINE
  8
0
 10
-103.786
 20
53.3817
 11
-103.686
 21
53.2226
  0
LINE
  8
0
 10
-103.686
 20
53.2226
 11
-103.605
 21
53.0522
  0
LINE
  8
0
 10
-103.605
 20
53.0522
 11
-103.547
 21
52.873
  0
LINE
  8
0
 10
-103.547
 20
52.873
 11
-103.512
 21
52.688
  0
LINE
  8
0
 10
-103.512
 20
52.688
 11
-103.5
 21
52.5
  0
LINE
  8
0
 10
-103.5
 20
52.5
 11
-103.512
 21
52.312
  0
LINE
  8
0
 10
-103.512
 20
52.312
 11
-103.547
 21
52.127
  0
LINE
  8
0
 10
-103.547
 20
52.127
 11
-103.605
 21
51.9478
  0
LINE
  8
0
 10
-103.605
 20
51.9478
 11
-103.686
 21
51.7774
  0
LINE
  8
0
 10
-103.686
 20
51.7774
 11
-103.786
 21
51.6183
  0
LINE
  8
0
 10
-103.786
 20
51.6183
 11
-103.907
 21
51.4732
  0
LINE
  8
0
 10
-103.907
 20
51.4732
 11
-104.044
 21
51.3442
  0
LINE
  8
0
 10
-104.044
 20
51.3442
 11
-104.196
 21
51.2335
  0
LINE
  8
0
 10
-104.196
 20
51.2335
 11
-104.361
 21
51.1428
  0
LINE
  8
0
 10
-104.361
 20
51.1428
 11
-104.536
 21
51.0734
  0
LINE
  8
0
 10
-104.536
 20
51.0734
 11
-104.719
 21
51.0266
  0
LINE
  8
0
 10
-104.719
 20
51.0266
 11
-104.906
 21
51.003
  0
LINE
  8
0
 10
-104.906
 20
51.003
 11
-105.094
 21
51.003
  0
LINE
  8
0
 10
104.812
 20
42.0059
 11
104.438
 21
42.0531
  0
LINE
  8
0
 10
104.438
 20
42.0531
 11
104.073
 21
42.1468
  0
LINE
  8
0
 10
104.073
 20
42.1468
 11
103.723
 21
42.2855
  0
LINE
  8
0
 10
103.723
 20
42.2855
 11
103.393
 21
42.467
  0
LINE
  8
0
 10
103.393
 20
42.467
 11
103.088
 21
42.6885
  0
LINE
  8
0
 10
103.088
 20
42.6885
 11
102.813
 21
42.9464
  0
LINE
  8
0
 10
102.813
 20
42.9464
 11
102.573
 21
43.2366
  0
LINE
  8
0
 10
102.573
 20
43.2366
 11
102.371
 21
43.5547
  0
LINE
  8
0
 10
102.371
 20
43.5547
 11
102.211
 21
43.8956
  0
LINE
  8
0
 10
102.211
 20
43.8956
 11
102.094
 21
44.2539
  0
LINE
  8
0
 10
102.094
 20
44.2539
 11
102.024
 21
44.624
  0
LINE
  8
0
 10
102.024
 20
44.624
 11
102
 21
45
  0
LINE
  8
0
 10
102
 20
45
 11
102.024
 21
45.376
  0
LINE
  8
0
 10
102.024
 20
45.376
 11
102.094
 21
45.7461
  0
LINE
  8
0
 10
102.094
 20
45.7461
 11
102.211
 21
46.1044
  0
LINE
  8
0
 10
102.211
 20
46.1044
 11
102.371
 21
46.4453
  0
LINE
  8
0
 10
102.371
 20
46.4453
 11
102.573
 21
46.7634
  0
LINE
  8
0
 10
102.573
 20
46.7634
 11
102.813
 21
47.0536
  0
LINE
  8
0
 10
102.813
 20
47.0536
 11
103.088
 21
47.3115
  0
LINE
  8
0
 10
103.088
 20
47.3115
 11
103.393
 21
47.533
  0
LINE
  8
0
 10
103.393
 20
47.533
 11
103.723
 21
47.7145
  0
LINE
  8
0
 10
103.723
 20
47.7145
 11
104.073
 21
47.8532
  0
LINE
  8
0
 10
104.073
 20
47.8532
 11
104.438
 21
47.9469
  0
LINE
  8
0
 10
104.438
 20
47.9469
 11
104.812
 21
47.9941
  0
LINE
  8
0
 10
104.812
 20
47.9941
 11
105.188
 21
47.9941
  0
LINE
  8
0
 10
105.188
 20
47.9941
 11
105.562
 21
47.9469
  0
LINE
  8
0
 10
105.562
 20
47.9469
 11
105.927
 21
47.8532
  0
LINE
  8
0
 10
105.927
 20
47.8532
 11
106.277
 21
47.7145
  0
LINE
  8
0
 10
106.277
 20
47.7145
 11
106.607
 21
47.533
  0
LINE
  8
0
 10
106.607
 20
47.533
 11
106.912
 21
47.3115
  0
LINE
  8
0
 10
106.912
 20
47.3115
 11
107.187
 21
47.0536
  0
LINE
  8
0
 10
107.187
 20
47.0536
 11
107.427
 21
46.7634
  0
LINE
  8
0
 10
107.427
 20
46.7634
 11
107.629
 21
46.4453
  0
LINE
  8
0
 10
107.629
 20
46.4453
 11
107.789
 21
46.1044
  0
LINE
  8
0
 10
107.789
 20
46.1044
 11
107.906
 21
45.7461
  0
LINE
  8
0
 10
107.906
 20
45.7461
 11
107.976
 21
45.376
  0
LINE
  8
0
 10
107.976
 20
45.376
 11
108
 21
45
  0
LINE
  8
0
 10
108
 20
45
 11
107.976
 21
44.624
  0
LINE
  8
0
 10
107.976
 20
44.624
 11
107.906
 21
44.2539
  0
LINE
  8
0
 10
107.906
 20
44.2539
 11
107.789
 21
43.8956
  0
LINE
  8
0
 10
107.789
 20
43.8956
 11
107.629
 21
43.5547
  0
LINE
  8
0
 10
107.629
 20
43.5547
 11
107.427
 21
43.2366
  0
LINE
  8
0
 10
107.427
 20
43.2366
 11
107.187
 21
42.9464
  0
LINE
  8
0
 10
107.187
 20
42.9464
 11
106.912
 21
42.6885
  0
LINE
  8
0
 10
106.912
 20
42.6885
 11
106.607
 21
42.467
  0
LINE
  8
0
 10
106.607
 20
42.467
 11
106.277
 21
42.2855
  0
LINE
  8
0
 10
106.277
 20
42.2855
 11
105.927
 21
42.1468
  0
LINE
  8
0
 10
105.927
 20
42.1468
 11
105.562
 21
42.0531
  0
LINE
  8
0
 10
105.562
 20
42.0531
 11
105.188
 21
42.0059
  0
LINE
  8
0
 10
105.188
 20
42.0059
 11
104.812
 21
42.0059
  0
LINE
  8
0
 10
-105.188
 20
42.0059
 11
-105.562
 21
42.0531
  0
LINE
  8
0
 10
-105.562
 20
42.0531
 11
-105.927
 21
42.1468
  0
LINE
  8
0
 10
-105.927
 20
42.1468
 11
-106.277
 21
42.2855
  0
LINE
  8
0
 10
-106.277
 20
42.2855
 11
-106.607
 21
42.467
  0
LINE
  8
0
 10
-106.607
 20
42.467
 11
-106.912
 21
42.6885
  0
LINE
  8
0
 10
-106.912
 20
42.6885
 11
-107.187
 21
42.9464
  0
LINE
  8
0
 10
-107.187
 20
42.9464
 11
-107.427
 21
43.2366
  0
LINE
  8
0
 10
-107.427
 20
43.2366
 11
-107.629
 21
43.5547
  0
LINE
  8
0
 10
-107.629
 20
43.5547
 11
-107.789
 21
43.8956
  0
LINE
  8
0
 10
-107.789
 20
43.8956
 11
-107.906
 21
44.2539
  0
LINE
  8
0
 10
-107.906
 20
44.2539
 11
-107.976
 21
44.624
  0
LINE
  8
0
 10
-107.976
 20
44.624
 11
-108
 21
45
  0
LINE
  8
0
 10
-108
 20
45
 11
-107.976
 21
45.376
  0
LINE
  8
0
 10
-107.976
 20
45.376
 11
-107.906
 21
45.7461
  0
LINE
  8
0
 10
-107.906
 20
45.7461
 11
-107.789
 21
46.1044
  0
LINE
  8
0
 10
-107.789
 20
46.1044
 11
-107.629
 21
46.4453
  0
LINE
  8
0
 10
-107.629
 20
46.4453
 11
-107.427
 21
46.7634
  0
LINE
  8
0
 10
-107.427
 20
46.7634
 11
-107.187
 21
47.0536
  0
LINE
  8
0
 10
-107.187
 20
47.0536
 11
-106.912
 21
47.3115
  0
LINE
  8
0
 10
-106.912
 20
47.3115
 11
-106.607
 21
47.533
  0
LINE
  8
0
 10
-106.607
 20
47.533
 11
-106.277
 21
47.7145
  0
LINE
  8
0
 10
-106.277
 20
47.7145
 11
-105.927
 21
47.8532
  0
LINE
  8
0
 10
-105.927
 20
47.8532
 11
-105.562
 21
47.9469
  0
LINE
  8
0
 10
-105.562
 20
47.9469
 11
-105.188
 21
47.9941
  0
LINE
  8
0
 10
-105.188
 20
47.9941
 11
-104.812
 21
47.9941
  0
LINE
  8
0
 10
-104.812
 20
47.9941
 11
-104.438
 21
47.9469
  0
LINE
  8
0
 10
-104.438
 20
47.9469
 11
-104.073
 21
47.8532
  0
LINE
  8
0
 10
-104.073
 20
47.8532
 11
-103.723
 21
47.7145
  0
LINE
  8
0
 10
-103.723
 20
47.7145
 11
-103.393
 21
47.533
  0
LINE
  8
0
 10
-103.393
 20
47.533
 11
-103.088
 21
47.3115
  0
LINE
  8
0
 10
-103.088
 20
47.3115
 11
-102.813
 21
47.0536
  0
LINE
  8
0
 10
-102.813
 20
47.0536
 11
-102.573
 21
46.7634
  0
LINE
  8
0
 10
-102.573
 20
46.7634
 11
-102.371
 21
46.4453
  0
LINE
  8
0
 10
-102.371
 20
46.4453
 11
-102.211
 21
46.1044
  0
LINE
  8
0
 10
-102.211
 20
46.1044
 11
-102.094
 21
45.7461
  0
LINE
  8
0
 10
-102.094
 20
45.7461
 11
-102.024
 21
45.376
  0
LINE
  8
0
 10
-102.024
 20
45.376
 11
-102
 21
45
  0
LINE
  8
0
 10
-102
 20
45
 11
-102.024
 21
44.624
  0
LINE
  8
0
 10
-102.024
 20
44.624
 11
-102.094
 21
44.2539
  0
LINE
  8
0
 10
-102.094
 20
44.2539
 11
-102.211
 21
43.8956
  0
LINE
  8
0
 10
-102.211
 20
43.8956
 11
-102.371
 21
43.5547
  0
LINE
  8
0
 10
-102.371
 20
43.5547
 11
-102.573
 21
43.2366
  0
LINE
  8
0
 10
-102.573
 20
43.2366
 11
-102.813
 21
42.9464
  0
LINE
  8
0
 10
-102.813
 20
42.9464
 11
-103.088
 21
42.6885
  0
LINE
  8
0
 10
-103.088
 20
42.6885
 11
-103.393
 21
42.467
  0
LINE
  8
0
 10
-103.393
 20
42.467
 11
-103.723
 21
42.2855
  0
LINE
  8
0
 10
-103.723
 20
42.2855
 11
-104.073
 21
42.1468
  0
LINE
  8
0
 10
-104.073
 20
42.1468
 11
-104.438
 21
42.0531
  0
LINE
  8
0
 10
-104.438
 20
42.0531
 11
-104.812
 21
42.0059
  0
LINE
  8
0
 10
-104.812
 20
42.0059
 11
-105.188
 21
42.0059
  0
LINE
  8
0
 10
104.906
 20
36.003
 11
104.719
 21
36.0266
  0
LINE
  8
0
 10
104.719
 20
36.0266
 11
104.536
 21
36.0734
  0
LINE
  8
0
 10
104.536
 20
36.0734
 11
104.361
 21
36.1428
  0
LINE
  8
0
 10
104.361
 20
36.1428
 11
104.196
 21
36.2335
  0
LINE
  8
0
 10
104.196
 20
36.2335
 11
104.044
 21
36.3442
  0
LINE
  8
0
 10
104.044
 20
36.3442
 11
103.907
 21
36.4732
  0
LINE
  8
0
 10
103.907
 20
36.4732
 11
103.786
 21
36.6183
  0
LINE
  8
0
 10
103.786
 20
36.6183
 11
103.686
 21
36.7774
  0
LINE
  8
0
 10
103.686
 20
36.7774
 11
103.605
 21
36.9478
  0
LINE
  8
0
 10
103.605
 20
36.9478
 11
103.547
 21
37.127
  0
LINE
  8
0
 10
103.547
 20
37.127
 11
103.512
 21
37.312
  0
LINE
  8
0
 10
103.512
 20
37.312
 11
103.5
 21
37.5
  0
LINE
  8
0
 10
103.5
 20
37.5
 11
103.512
 21
37.688
  0
LINE
  8
0
 10
103.512
 20
37.688
 11
103.547
 21
37.873
  0
LINE
  8
0
 10
103.547
 20
37.873
 11
103.605
 21
38.0522
  0
LINE
  8
0
 10
103.605
 20
38.0522
 11
103.686
 21
38.2226
  0
LINE
  8
0
 10
103.686
 20
38.2226
 11
103.786
 21
38.3817
  0
LINE
  8
0
 10
103.786
 20
38.3817
 11
103.907
 21
38.5268
  0
LINE
  8
0
 10
103.907
 20
38.5268
 11
104.044
 21
38.6558
  0
LINE
  8
0
 10
104.044
 20
38.6558
 11
104.196
 21
38.7665
  0
LINE
  8
0
 10
104.196
 20
38.7665
 11
104.361
 21
38.8572
  0
LINE
  8
0
 10
104.361
 20
38.8572
 11
104.536
 21
38.9266
  0
LINE
  8
0
 10
104.536
 20
38.9266
 11
104.719
 21
38.9734
  0
LINE
  8
0
 10
104.719
 20
38.9734
 11
104.906
 21
38.997
  0
LINE
  8
0
 10
104.906
 20
38.997
 11
105.094
 21
38.997
  0
LINE
  8
0
 10
105.094
 20
38.997
 11
105.281
 21
38.9734
  0
LINE
  8
0
 10
105.281
 20
38.9734
 11
105.464
 21
38.9266
  0
LINE
  8
0
 10
105.464
 20
38.9266
 11
105.639
 21
38.8572
  0
LINE
  8
0
 10
105.639
 20
38.8572
 11
105.804
 21
38.7665
  0
LINE
  8
0
 10
105.804
 20
38.7665
 11
105.956
 21
38.6558
  0
LINE
  8
0
 10
105.956
 20
38.6558
 11
106.093
 21
38.5268
  0
LINE
  8
0
 10
106.093
 20
38.5268
 11
106.214
 21
38.3817
  0
LINE
  8
0
 10
106.214
 20
38.3817
 11
106.314
 21
38.2226
  0
LINE
  8
0
 10
106.314
 20
38.2226
 11
106.395
 21
38.0522
  0
LINE
  8
0
 10
106.395
 20
38.0522
 11
106.453
 21
37.873
  0
LINE
  8
0
 10
106.453
 20
37.873
 11
106.488
 21
37.688
  0
LINE
  8
0
 10
106.488
 20
37.688
 11
106.5
 21
37.5
  0
LINE
  8
0
 10
106.5
 20
37.5
 11
106.488
 21
37.312
  0
LINE
  8
0
 10
106.488
 20
37.312
 11
106.453
 21
37.127
  0
LINE
  8
0
 10
106.453
 20
37.127
 11
106.395
 21
36.9478
  0
LINE
  8
0
 10
106.395
 20
36.9478
 11
106.314
 21
36.7774
  0
LINE
  8
0
 10
106.314
 20
36.7774
 11
106.214
 21
36.6183
  0
LINE
  8
0
 10
106.214
 20
36.6183
 11
106.093
 21
36.4732
  0
LINE
  8
0
 10
106.093
 20
36.4732
 11
105.956
 21
36.3442
  0
LINE
  8
0
 10
105.956
 20
36.3442
 11
105.804
 21
36.2335
  0
LINE
  8
0
 10
105.804
 20
36.2335
 11
105.639
 21
36.1428
  0
LINE
  8
0
 10
105.639
 20
36.1428
 11
105.464
 21
36.0734
  0
LINE
  8
0
 10
105.464
 20
36.0734
 11
105.281
 21
36.0266
  0
LINE
  8
0
 10
105.281
 20
36.0266
 11
105.094
 21
36.003
  0
LINE
  8
0
 10
105.094
 20
36.003
 11
104.906
 21
36.003
  0
LINE
  8
0
 10
-105.094
 20
36.003
 11
-105.281
 21
36.0266
  0
LINE
  8
0
 10
-105.281
 20
36.0266
 11
-105.464
 21
36.0734
  0
LINE
  8
0
 10
-105.464
 20
36.0734
 11
-105.639
 21
36.1428
  0
LINE
  8
0
 10
-105.639
 20
36.1428
 11
-105.804
 21
36.2335
  0
LINE
  8
0
 10
-105.804
 20
36.2335
 11
-105.956
 21
36.3442
  0
LINE
  8
0
 10
-105.956
 20
36.3442
 11
-106.093
 21
36.4732
  0
LINE
  8
0
 10
-106.093
 20
36.4732
 11
-106.214
 21
36.6183
  0
LINE
  8
0
 10
-106.214
 20
36.6183
 11
-106.314
 21
36.7774
  0
LINE
  8
0
 10
-106.314
 20
36.7774
 11
-106.395
 21
36.9478
  0
LINE
  8
0
 10
-106.395
 20
36.9478
 11
-106.453
 21
37.127
  0
LINE
  8
0
 10
-106.453
 20
37.127
 11
-106.488
 21
37.312
  0
LINE
  8
0
 10
-106.488
 20
37.312
 11
-106.5
 21
37.5
  0
LINE
  8
0
 10
-106.5
 20
37.5
 11
-106.488
 21
37.688
  0
LINE
  8
0
 10
-106.488
 20
37.688
 11
-106.453
 21
37.873
  0
LINE
  8
0
 10
-106.453
 20
37.873
 11
-106.395
 21
38.0522
  0
LINE
  8
0
 10
-106.395
 20
38.0522
 11
-106.314
 21
38.2226
  0
LINE
  8
0
 10
-106.314
 20
38.2226
 11
-106.214
 21
38.3817
  0
LINE
  8
0
 10
-106.214
 20
38.3817
 11
-106.093
 21
38.5268
  0
LINE
  8
0
 10
-106.093
 20
38.5268
 11
-105.956
 21
38.6558
  0
LINE
  8
0
 10
-105.956
 20
38.6558
 11
-105.804
 21
38.7665
  0
LINE
  8
0
 10
-105.804
 20
38.7665
 11
-105.639
 21
38.8572
  0
LINE
  8
0
 10
-105.639
 20
38.8572
 11
-105.464
 21
38.9266
  0
LINE
  8
0
 10
-105.464
 20
38.9266
 11
-105.281
 21
38.9734
  0
LINE
  8
0
 10
-105.281
 20
38.9734
 11
-105.094
 21
38.997
  0
LINE
  8
0
 10
-105.094
 20
38.997
 11
-104.906
 21
38.997
  0
LINE
  8
0
 10
-104.906
 20
38.997
 11
-104.719
 21
38.9734
  0
LINE
  8
0
 10
-104.719
 20
38.9734
 11
-104.536
 21
38.9266
  0
LINE
  8
0
 10
-104.536
 20
38.9266
 11
-104.361
 21
38.8572
  0
LINE
  8
0
 10
-104.361
 20
38.8572
 11
-104.196
 21
38.7665
  0
LINE
  8
0
 10
-104.196
 20
38.7665
 11
-104.044
 21
38.6558
  0
LINE
  8
0
 10
-104.044
 20
38.6558
 11
-103.907
 21
38.5268
  0
LINE
  8
0
 10
-103.907
 20
38.5268
 11
-103.786
 21
38.3817
  0
LINE
  8
0
 10
-103.786
 20
38.3817
 11
-103.686
 21
38.2226
  0
LINE
  8
0
 10
-103.686
 20
38.2226
 11
-103.605
 21
38.0522
  0
LINE
  8
0
 10
-103.605
 20
38.0522
 11
-103.547
 21
37.873
  0
LINE
  8
0
 10
-103.547
 20
37.873
 11
-103.512
 21
37.688
  0
LINE
  8
0
 10
-103.512
 20
37.688
 11
-103.5
 21
37.5
  0
LINE
  8
0
 10
-103.5
 20
37.5
 11
-103.512
 21
37.312
  0
LINE
  8
0
 10
-103.512
 20
37.312
 11
-103.547
 21
37.127
  0
LINE
  8
0
 10
-103.547
 20
37.127
 11
-103.605
 21
36.9478
  0
LINE
  8
0
 10
-103.605
 20
36.9478
 11
-103.686
 21
36.7774
  0
LINE
  8
0
 10
-103.686
 20
36.7774
 11
-103.786
 21
36.6183
  0
LINE
  8
0
 10
-103.786
 20
36.6183
 11
-103.907
 21
36.4732
  0
LINE
  8
0
 10
-103.907
 20
36.4732
 11
-104.044
 21
36.3442
  0
LINE
  8
0
 10
-104.044
 20
36.3442
 11
-104.196
 21
36.2335
  0
LINE
  8
0
 10
-104.196
 20
36.2335
 11
-104.361
 21
36.1428
  0
LINE
  8
0
 10
-104.361
 20
36.1428
 11
-104.536
 21
36.0734
  0
LINE
  8
0
 10
-104.536
 20
36.0734
 11
-104.719
 21
36.0266
  0
LINE
  8
0
 10
-104.719
 20
36.0266
 11
-104.906
 21
36.003
  0
LINE
  8
0
 10
-104.906
 20
36.003
 11
-105.094
 21
36.003
  0
LINE
  8
0
 10
104.812
 20
27.0059
 11
104.438
 21
27.0531
  0
LINE
  8
0
 10
104.438
 20
27.0531
 11
104.073
 21
27.1468
  0
LINE
  8
0
 10
104.073
 20
27.1468
 11
103.723
 21
27.2855
  0
LINE
  8
0
 10
103.723
 20
27.2855
 11
103.393
 21
27.467
  0
LINE
  8
0
 10
103.393
 20
27.467
 11
103.088
 21
27.6884
  0
LINE
  8
0
 10
103.088
 20
27.6884
 11
102.813
 21
27.9464
  0
LINE
  8
0
 10
102.813
 20
27.9464
 11
102.573
 21
28.2366
  0
LINE
  8
0
 10
102.573
 20
28.2366
 11
102.371
 21
28.5547
  0
LINE
  8
0
 10
102.371
 20
28.5547
 11
102.211
 21
28.8956
  0
LINE
  8
0
 10
102.211
 20
28.8956
 11
102.094
 21
29.2539
  0
LINE
  8
0
 10
102.094
 20
29.2539
 11
102.024
 21
29.624
  0
LINE
  8
0
 10
102.024
 20
29.624
 11
102
 21
30
  0
LINE
  8
0
 10
102
 20
30
 11
102.024
 21
30.376
  0
LINE
  8
0
 10
102.024
 20
30.376
 11
102.094
 21
30.7461
  0
LINE
  8
0
 10
102.094
 20
30.7461
 11
102.211
 21
31.1044
  0
LINE
  8
0
 10
102.211
 20
31.1044
 11
102.371
 21
31.4453
  0
LINE
  8
0
 10
102.371
 20
31.4453
 11
102.573
 21
31.7634
  0
LINE
  8
0
 10
102.573
 20
31.7634
 11
102.813
 21
32.0536
  0
LINE
  8
0
 10
102.813
 20
32.0536
 11
103.088
 21
32.3115
  0
LINE
  8
0
 10
103.088
 20
32.3115
 11
103.393
 21
32.533
  0
LINE
  8
0
 10
103.393
 20
32.533
 11
103.723
 21
32.7145
  0
LINE
  8
0
 10
103.723
 20
32.7145
 11
104.073
 21
32.8532
  0
LINE
  8
0
 10
104.073
 20
32.8532
 11
104.438
 21
32.9469
  0
LINE
  8
0
 10
104.438
 20
32.9469
 11
104.812
 21
32.9941
  0
LINE
  8
0
 10
104.812
 20
32.9941
 11
105.188
 21
32.9941
  0
LINE
  8
0
 10
105.188
 20
32.9941
 11
105.562
 21
32.9469
  0
LINE
  8
0
 10
105.562
 20
32.9469
 11
105.927
 21
32.8532
  0
LINE
  8
0
 10
105.927
 20
32.8532
 11
106.277
 21
32.7145
  0
LINE
  8
0
 10
106.277
 20
32.7145
 11
106.607
 21
32.533
  0
LINE
  8
0
 10
106.607
 20
32.533
 11
106.912
 21
32.3115
  0
LINE
  8
0
 10
106.912
 20
32.3115
 11
107.187
 21
32.0536
  0
LINE
  8
0
 10
107.187
 20
32.0536
 11
107.427
 21
31.7634
  0
LINE
  8
0
 10
107.427
 20
31.7634
 11
107.629
 21
31.4453
  0
LINE
  8
0
 10
107.629
 20
31.4453
 11
107.789
 21
31.1044
  0
LINE
  8
0
 10
107.789
 20
31.1044
 11
107.906
 21
30.7461
  0
LINE
  8
0
 10
107.906
 20
30.7461
 11
107.976
 21
30.376
  0
LINE
  8
0
 10
107.976
 20
30.376
 11
108
 21
30
  0
LINE
  8
0
 10
108
 20
30
 11
107.976
 21
29.624
  0
LINE
  8
0
 10
107.976
 20
29.624
 11
107.906
 21
29.2539
  0
LINE
  8
0
 10
107.906
 20
29.2539
 11
107.789
 21
28.8956
  0
LINE
  8
0
 10
107.789
 20
28.8956
 11
107.629
 21
28.5547
  0
LINE
  8
0
 10
107.629
 20
28.5547
 11
107.427
 21
28.2366
  0
LINE
  8
0
 10
107.427
 20
28.2366
 11
107.187
 21
27.9464
  0
LINE
  8
0
 10
107.187
 20
27.9464
 11
106.912
 21
27.6884
  0
LINE
  8
0
 10
106.912
 20
27.6884
 11
106.607
 21
27.467
  0
LINE
  8
0
 10
106.607
 20
27.467
 11
106.277
 21
27.2855
  0
LINE
  8
0
 10
106.277
 20
27.2855
 11
105.927
 21
27.1468
  0
LINE
  8
0
 10
105.927
 20
27.1468
 11
105.562
 21
27.0531
  0
LINE
  8
0
 10
105.562
 20
27.0531
 11
105.188
 21
27.0059
  0
LINE
  8
0
 10
105.188
 20
27.0059
 11
104.812
 21
27.0059
  0
LINE
  8
0
 10
-105.188
 20
27.0059
 11
-105.562
 21
27.0531
  0
LINE
  8
0
 10
-105.562
 20
27.0531
 11
-105.927
 21
27.1468
  0
LINE
  8
0
 10
-105.927
 20
27.1468
 11
-106.277
 21
27.2855
  0
LINE
  8
0
 10
-106.277
 20
27.2855
 11
-106.607
 21
27.467
  0
LINE
  8
0
 10
-106.607
 20
27.467
 11
-106.912
 21
27.6884
  0
LINE
  8
0
 10
-106.912
 20
27.6884
 11
-107.187
 21
27.9464
  0
LINE
  8
0
 10
-107.187
 20
27.9464
 11
-107.427
 21
28.2366
  0
LINE
  8
0
 10
-107.427
 20
28.2366
 11
-107.629
 21
28.5547
  0
LINE
  8
0
 10
-107.629
 20
28.5547
 11
-107.789
 21
28.8956
  0
LINE
  8
0
 10
-107.789
 20
28.8956
 11
-107.906
 21
29.2539
  0
LINE
  8
0
 10
-107.906
 20
29.2539
 11
-107.976
 21
29.624
  0
LINE
  8
0
 10
-107.976
 20
29.624
 11
-108
 21
30
  0
LINE
  8
0
 10
-108
 20
30
 11
-107.976
 21
30.376
  0
LINE
  8
0
 10
-107.976
 20
30.376
 11
-107.906
 21
30.7461
  0
LINE
  8
0
 10
-107.906
 20
30.7461
 11
-107.789
 21
31.1044
  0
LINE
  8
0
 10
-107.789
 20
31.1044
 11
-107.629
 21
31.4453
  0
LINE
  8
0
 10
-107.629
 20
31.4453
 11
-107.427
 21
31.7634
  0
LINE
  8
0
 10
-107.427
 20
31.7634
 11
-107.187
 21
32.0536
  0
LINE
  8
0
 10
-107.187
 20
32.0536
 11
-106.912
 21
32.3115
  0
LINE
  8
0
 10
-106.912
 20
32.3115
 11
-106.607
 21
32.533
  0
LINE
  8
0
 10
-106.607
 20
32.533
 11
-106.277
 21
32.7145
  0
LINE
  8
0
 10
-106.277
 20
32.7145
 11
-105.927
 21
32.8532
  0
LINE
  8
0
 10
-105.927
 20
32.8532
 11
-105.562
 21
32.9469
  0
LINE
  8
0
 10
-105.562
 20
32.9469
 11
-105.188
 21
32.9941
  0
LINE
  8
0
 10
-105.188
 20
32.9941
 11
-104.812
 21
32.9941
  0
LINE
  8
0
 10
-104.812
 20
32.9941
 11
-104.438
 21
32.9469
  0
LINE
  8
0
 10
-104.438
 20
32.9469
 11
-104.073
 21
32.8532
  0
LINE
  8
0
 10
-104.073
 20
32.8532
 11
-103.723
 21
32.7145
  0
LINE
  8
0
 10
-103.723
 20
32.7145
 11
-103.393
 21
32.533
  0
LINE
  8
0
 10
-103.393
 20
32.533
 11
-103.088
 21
32.3115
  0
LINE
  8
0
 10
-103.088
 20
32.3115
 11
-102.813
 21
32.0536
  0
LINE
  8
0
 10
-102.813
 20
32.0536
 11
-102.573
 21
31.7634
  0
LINE
  8
0
 10
-102.573
 20
31.7634
 11
-102.371
 21
31.4453
  0
LINE
  8
0
 10
-102.371
 20
31.4453
 11
-102.211
 21
31.1044
  0
LINE
  8
0
 10
-102.211
 20
31.1044
 11
-102.094
 21
30.7461
  0
LINE
  8
0
 10
-102.094
 20
30.7461
 11
-102.024
 21
30.376
  0
LINE
  8
0
 10
-102.024
 20
30.376
 11
-102
 21
30
  0
LINE
  8
0
 10
-102
 20
30
 11
-102.024
 21
29.624
  0
LINE
  8
0
 10
-102.024
 20
29.624
 11
-102.094
 21
29.2539
  0
LINE
  8
0
 10
-102.094
 20
29.2539
 11
-102.211
 21
28.8956
  0
LINE
  8
0
 10
-102.211
 20
28.8956
 11
-102.371
 21
28.5547
  0
LINE
  8
0
 10
-102.371
 20
28.5547
 11
-102.573
 21
28.2366
  0
LINE
  8
0
 10
-102.573
 20
28.2366
 11
-102.813
 21
27.9464
  0
LINE
  8
0
 10
-102.813
 20
27.9464
 11
-103.088
 21
27.6884
  0
LINE
  8
0
 10
-103.088
 20
27.6884
 11
-103.393
 21
27.467
  0
LINE
  8
0
 10
-103.393
 20
27.467
 11
-103.723
 21
27.2855
  0
LINE
  8
0
 10
-103.723
 20
27.2855
 11
-104.073
 21
27.1468
  0
LINE
  8
0
 10
-104.073
 20
27.1468
 11
-104.438
 21
27.0531
  0
LINE
  8
0
 10
-104.438
 20
27.0531
 11
-104.812
 21
27.0059
  0
LINE
  8
0
 10
-104.812
 20
27.0059
 11
-105.188
 21
27.0059
  0
LINE
  8
0
 10
-105.094
 20
21.003
 11
-105.281
 21
21.0266
  0
LINE
  8
0
 10
-105.281
 20
21.0266
 11
-105.464
 21
21.0734
  0
LINE
  8
0
 10
-105.464
 20
21.0734
 11
-105.639
 21
21.1427
  0
LINE
  8
0
 10
-105.639
 20
21.1427
 11
-105.804
 21
21.2335
  0
LINE
  8
0
 10
-105.804
 20
21.2335
 11
-105.956
 21
21.3442
  0
LINE
  8
0
 10
-105.956
 20
21.3442
 11
-106.093
 21
21.4732
  0
LINE
  8
0
 10
-106.093
 20
21.4732
 11
-106.214
 21
21.6183
  0
LINE
  8
0
 10
-106.214
 20
21.6183
 11
-106.314
 21
21.7774
  0
LINE
  8
0
 10
-106.314
 20
21.7774
 11
-106.395
 21
21.9478
  0
LINE
  8
0
 10
-106.395
 20
21.9478
 11
-106.453
 21
22.127
  0
LINE
  8
0
 10
-106.453
 20
22.127
 11
-106.488
 21
22.312
  0
LINE
  8
0
 10
-106.488
 20
22.312
 11
-106.5
 21
22.5
  0
LINE
  8
0
 10
-106.5
 20
22.5
 11
-106.488
 21
22.688
  0
LINE
  8
0
 10
-106.488
 20
22.688
 11
-106.453
 21
22.873
  0
LINE
  8
0
 10
-106.453
 20
22.873
 11
-106.395
 21
23.0522
  0
LINE
  8
0
 10
-106.395
 20
23.0522
 11
-106.314
 21
23.2226
  0
LINE
  8
0
 10
-106.314
 20
23.2226
 11
-106.214
 21
23.3817
  0
LINE
  8
0
 10
-106.214
 20
23.3817
 11
-106.093
 21
23.5268
  0
LINE
  8
0
 10
-106.093
 20
23.5268
 11
-105.956
 21
23.6558
  0
LINE
  8
0
 10
-105.956
 20
23.6558
 11
-105.804
 21
23.7665
  0
LINE
  8
0
 10
-105.804
 20
23.7665
 11
-105.639
 21
23.8572
  0
LINE
  8
0
 10
-105.639
 20
23.8572
 11
-105.464
 21
23.9266
  0
LINE
  8
0
 10
-105.464
 20
23.9266
 11
-105.281
 21
23.9734
  0
LINE
  8
0
 10
-105.281
 20
23.9734
 11
-105.094
 21
23.997
  0
LINE
  8
0
 10
-105.094
 20
23.997
 11
-104.906
 21
23.997
  0
LINE
  8
0
 10
-104.906
 20
23.997
 11
-104.719
 21
23.9734
  0
LINE
  8
0
 10
-104.719
 20
23.9734
 11
-104.536
 21
23.9266
  0
LINE
  8
0
 10
-104.536
 20
23.9266
 11
-104.361
 21
23.8572
  0
LINE
  8
0
 10
-104.361
 20
23.8572
 11
-104.196
 21
23.7665
  0
LINE
  8
0
 10
-104.196
 20
23.7665
 11
-104.044
 21
23.6558
  0
LINE
  8
0
 10
-104.044
 20
23.6558
 11
-103.907
 21
23.5268
  0
LINE
  8
0
 10
-103.907
 20
23.5268
 11
-103.786
 21
23.3817
  0
LINE
  8
0
 10
-103.786
 20
23.3817
 11
-103.686
 21
23.2226
  0
LINE
  8
0
 10
-103.686
 20
23.2226
 11
-103.605
 21
23.0522
  0
LINE
  8
0
 10
-103.605
 20
23.0522
 11
-103.547
 21
22.873
  0
LINE
  8
0
 10
-103.547
 20
22.873
 11
-103.512
 21
22.688
  0
LINE
  8
0
 10
-103.512
 20
22.688
 11
-103.5
 21
22.5
  0
LINE
  8
0
 10
-103.5
 20
22.5
 11
-103.512
 21
22.312
  0
LINE
  8
0
 10
-103.512
 20
22.312
 11
-103.547
 21
22.127
  0
LINE
  8
0
 10
-103.547
 20
22.127
 11
-103.605
 21
21.9478
  0
LINE
  8
0
 10
-103.605
 20
21.9478
 11
-103.686
 21
21.7774
  0
LINE
  8
0
 10
-103.686
 20
21.7774
 11
-103.786
 21
21.6183
  0
LINE
  8
0
 10
-103.786
 20
21.6183
 11
-103.907
 21
21.4732
  0
LINE
  8
0
 10
-103.907
 20
21.4732
 11
-104.044
 21
21.3442
  0
LINE
  8
0
 10
-104.044
 20
21.3442
 11
-104.196
 21
21.2335
  0
LINE
  8
0
 10
-104.196
 20
21.2335
 11
-104.361
 21
21.1427
  0
LINE
  8
0
 10
-104.361
 20
21.1427
 11
-104.536
 21
21.0734
  0
LINE
  8
0
 10
-104.536
 20
21.0734
 11
-104.719
 21
21.0266
  0
LINE
  8
0
 10
-104.719
 20
21.0266
 11
-104.906
 21
21.003
  0
LINE
  8
0
 10
-104.906
 20
21.003
 11
-105.094
 21
21.003
  0
LINE
  8
0
 10
104.906
 20
21.003
 11
104.719
 21
21.0266
  0
LINE
  8
0
 10
104.719
 20
21.0266
 11
104.536
 21
21.0734
  0
LINE
  8
0
 10
104.536
 20
21.0734
 11
104.361
 21
21.1427
  0
LINE
  8
0
 10
104.361
 20
21.1427
 11
104.196
 21
21.2335
  0
LINE
  8
0
 10
104.196
 20
21.2335
 11
104.044
 21
21.3442
  0
LINE
  8
0
 10
104.044
 20
21.3442
 11
103.907
 21
21.4732
  0
LINE
  8
0
 10
103.907
 20
21.4732
 11
103.786
 21
21.6183
  0
LINE
  8
0
 10
103.786
 20
21.6183
 11
103.686
 21
21.7774
  0
LINE
  8
0
 10
103.686
 20
21.7774
 11
103.605
 21
21.9478
  0
LINE
  8
0
 10
103.605
 20
21.9478
 11
103.547
 21
22.127
  0
LINE
  8
0
 10
103.547
 20
22.127
 11
103.512
 21
22.312
  0
LINE
  8
0
 10
103.512
 20
22.312
 11
103.5
 21
22.5
  0
LINE
  8
0
 10
103.5
 20
22.5
 11
103.512
 21
22.688
  0
LINE
  8
0
 10
103.512
 20
22.688
 11
103.547
 21
22.873
  0
LINE
  8
0
 10
103.547
 20
22.873
 11
103.605
 21
23.0522
  0
LINE
  8
0
 10
103.605
 20
23.0522
 11
103.686
 21
23.2226
  0
LINE
  8
0
 10
103.686
 20
23.2226
 11
103.786
 21
23.3817
  0
LINE
  8
0
 10
103.786
 20
23.3817
 11
103.907
 21
23.5268
  0
LINE
  8
0
 10
103.907
 20
23.5268
 11
104.044
 21
23.6558
  0
LINE
  8
0
 10
104.044
 20
23.6558
 11
104.196
 21
23.7665
  0
LINE
  8
0
 10
104.196
 20
23.7665
 11
104.361
 21
23.8572
  0
LINE
  8
0
 10
104.361
 20
23.8572
 11
104.536
 21
23.9266
  0
LINE
  8
0
 10
104.536
 20
23.9266
 11
104.719
 21
23.9734
  0
LINE
  8
0
 10
104.719
 20
23.9734
 11
104.906
 21
23.997
  0
LINE
  8
0
 10
104.906
 20
23.997
 11
105.094
 21
23.997
  0
LINE
  8
0
 10
105.094
 20
23.997
 11
105.281
 21
23.9734
  0
LINE
  8
0
 10
105.281
 20
23.9734
 11
105.464
 21
23.9266
  0
LINE
  8
0
 10
105.464
 20
23.9266
 11
105.639
 21
23.8572
  0
LINE
  8
0
 10
105.639
 20
23.8572
 11
105.804
 21
23.7665
  0
LINE
  8
0
 10
105.804
 20
23.7665
 11
105.956
 21
23.6558
  0
LINE
  8
0
 10
105.956
 20
23.6558
 11
106.093
 21
23.5268
  0
LINE
  8
0
 10
106.093
 20
23.5268
 11
106.214
 21
23.3817
  0
LINE
  8
0
 10
106.214
 20
23.3817
 11
106.314
 21
23.2226
  0
LINE
  8
0
 10
106.314
 20
23.2226
 11
106.395
 21
23.0522
  0
LINE
  8
0
 10
106.395
 20
23.0522
 11
106.453
 21
22.873
  0
LINE
  8
0
 10
106.453
 20
22.873
 11
106.488
 21
22.688
  0
LINE
  8
0
 10
106.488
 20
22.688
 11
106.5
 21
22.5
  0
LINE
  8
0
 10
106.5
 20
22.5
 11
106.488
 21
22.312
  0
LINE
  8
0
 10
106.488
 20
22.312
 11
106.453
 21
22.127
  0
LINE
  8
0
 10
106.453
 20
22.127
 11
106.395
 21
21.9478
  0
LINE
  8
0
 10
106.395
 20
21.9478
 11
106.314
 21
21.7774
  0
LINE
  8
0
 10
106.314
 20
21.7774
 11
106.214
 21
21.6183
  0
LINE
  8
0
 10
106.214
 20
21.6183
 11
106.093
 21
21.4732
  0
LINE
  8
0
 10
106.093
 20
21.4732
 11
105.956
 21
21.3442
  0
LINE
  8
0
 10
105.956
 20
21.3442
 11
105.804
 21
21.2335
  0
LINE
  8
0
 10
105.804
 20
21.2335
 11
105.639
 21
21.1427
  0
LINE
  8
0
 10
105.639
 20
21.1427
 11
105.464
 21
21.0734
  0
LINE
  8
0
 10
105.464
 20
21.0734
 11
105.281
 21
21.0266
  0
LINE
  8
0
 10
105.281
 20
21.0266
 11
105.094
 21
21.003
  0
LINE
  8
0
 10
105.094
 20
21.003
 11
104.906
 21
21.003
  0
LINE
  8
0
 10
-105.188
 20
12.0059
 11
-105.562
 21
12.0531
  0
LINE
  8
0
 10
-105.562
 20
12.0531
 11
-105.927
 21
12.1468
  0
LINE
  8
0
 10
-105.927
 20
12.1468
 11
-106.277
 21
12.2855
  0
LINE
  8
0
 10
-106.277
 20
12.2855
 11
-106.607
 21
12.467
  0
LINE
  8
0
 10
-106.607
 20
12.467
 11
-106.912
 21
12.6884
  0
LINE
  8
0
 10
-106.912
 20
12.6884
 11
-107.187
 21
12.9464
  0
LINE
  8
0
 10
-107.187
 20
12.9464
 11
-107.427
 21
13.2366
  0
LINE
  8
0
 10
-107.427
 20
13.2366
 11
-107.629
 21
13.5547
  0
LINE
  8
0
 10
-107.629
 20
13.5547
 11
-107.789
 21
13.8956
  0
LINE
  8
0
 10
-107.789
 20
13.8956
 11
-107.906
 21
14.2539
  0
LINE
  8
0
 10
-107.906
 20
14.2539
 11
-107.976
 21
14.624
  0
LINE
  8
0
 10
-107.976
 20
14.624
 11
-108
 21
15
  0
LINE
  8
0
 10
-108
 20
15
 11
-107.976
 21
15.376
  0
LINE
  8
0
 10
-107.976
 20
15.376
 11
-107.906
 21
15.7461
  0
LINE
  8
0
 10
-107.906
 20
15.7461
 11
-107.789
 21
16.1044
  0
LINE
  8
0
 10
-107.789
 20
16.1044
 11
-107.629
 21
16.4453
  0
LINE
  8
0
 10
-107.629
 20
16.4453
 11
-107.427
 21
16.7634
  0
LINE
  8
0
 10
-107.427
 20
16.7634
 11
-107.187
 21
17.0536
  0
LINE
  8
0
 10
-107.187
 20
17.0536
 11
-106.912
 21
17.3115
  0
LINE
  8
0
 10
-106.912
 20
17.3115
 11
-106.607
 21
17.533
  0
LINE
  8
0
 10
-106.607
 20
17.533
 11
-106.277
 21
17.7145
  0
LINE
  8
0
 10
-106.277
 20
17.7145
 11
-105.927
 21
17.8532
  0
LINE
  8
0
 10
-105.927
 20
17.8532
 11
-105.562
 21
17.9469
  0
LINE
  8
0
 10
-105.562
 20
17.9469
 11
-105.188
 21
17.9941
  0
LINE
  8
0
 10
-105.188
 20
17.9941
 11
-104.812
 21
17.9941
  0
LINE
  8
0
 10
-104.812
 20
17.9941
 11
-104.438
 21
17.9469
  0
LINE
  8
0
 10
-104.438
 20
17.9469
 11
-104.073
 21
17.8532
  0
LINE
  8
0
 10
-104.073
 20
17.8532
 11
-103.723
 21
17.7145
  0
LINE
  8
0
 10
-103.723
 20
17.7145
 11
-103.393
 21
17.533
  0
LINE
  8
0
 10
-103.393
 20
17.533
 11
-103.088
 21
17.3115
  0
LINE
  8
0
 10
-103.088
 20
17.3115
 11
-102.813
 21
17.0536
  0
LINE
  8
0
 10
-102.813
 20
17.0536
 11
-102.573
 21
16.7634
  0
LINE
  8
0
 10
-102.573
 20
16.7634
 11
-102.371
 21
16.4453
  0
LINE
  8
0
 10
-102.371
 20
16.4453
 11
-102.211
 21
16.1044
  0
LINE
  8
0
 10
-102.211
 20
16.1044
 11
-102.094
 21
15.7461
  0
LINE
  8
0
 10
-102.094
 20
15.7461
 11
-102.024
 21
15.376
  0
LINE
  8
0
 10
-102.024
 20
15.376
 11
-102
 21
15
  0
LINE
  8
0
 10
-102
 20
15
 11
-102.024
 21
14.624
  0
LINE
  8
0
 10
-102.024
 20
14.624
 11
-102.094
 21
14.2539
  0
LINE
  8
0
 10
-102.094
 20
14.2539
 11
-102.211
 21
13.8956
  0
LINE
  8
0
 10
-102.211
 20
13.8956
 11
-102.371
 21
13.5547
  0
LINE
  8
0
 10
-102.371
 20
13.5547
 11
-102.573
 21
13.2366
  0
LINE
  8
0
 10
-102.573
 20
13.2366
 11
-102.813
 21
12.9464
  0
LINE
  8
0
 10
-102.813
 20
12.9464
 11
-103.088
 21
12.6884
  0
LINE
  8
0
 10
-103.088
 20
12.6884
 11
-103.393
 21
12.467
  0
LINE
  8
0
 10
-103.393
 20
12.467
 11
-103.723
 21
12.2855
  0
LINE
  8
0
 10
-103.723
 20
12.2855
 11
-104.073
 21
12.1468
  0
LINE
  8
0
 10
-104.073
 20
12.1468
 11
-104.438
 21
12.0531
  0
LINE
  8
0
 10
-104.438
 20
12.0531
 11
-104.812
 21
12.0059
  0
LINE
  8
0
 10
-104.812
 20
12.0059
 11
-105.188
 21
12.0059
  0
LINE
  8
0
 10
104.812
 20
12.0059
 11
104.438
 21
12.0531
  0
LINE
  8
0
 10
104.438
 20
12.0531
 11
104.073
 21
12.1468
  0
LINE
  8
0
 10
104.073
 20
12.1468
 11
103.723
 21
12.2855
  0
LINE
  8
0
 10
103.723
 20
12.2855
 11
103.393
 21
12.467
  0
LINE
  8
0
 10
103.393
 20
12.467
 11
103.088
 21
12.6884
  0
LINE
  8
0
 10
103.088
 20
12.6884
 11
102.813
 21
12.9464
  0
LINE
  8
0
 10
102.813
 20
12.9464
 11
102.573
 21
13.2366
  0
LINE
  8
0
 10
102.573
 20
13.2366
 11
102.371
 21
13.5547
  0
LINE
  8
0
 10
102.371
 20
13.5547
 11
102.211
 21
13.8956
  0
LINE
  8
0
 10
102.211
 20
13.8956
 11
102.094
 21
14.2539
  0
LINE
  8
0
 10
102.094
 20
14.2539
 11
102.024
 21
14.624
  0
LINE
  8
0
 10
102.024
 20
14.624
 11
102
 21
15
  0
LINE
  8
0
 10
102
 20
15
 11
102.024
 21
15.376
  0
LINE
  8
0
 10
102.024
 20
15.376
 11
102.094
 21
15.7461
  0
LINE
  8
0
 10
102.094
 20
15.7461
 11
102.211
 21
16.1044
  0
LINE
  8
0
 10
102.211
 20
16.1044
 11
102.371
 21
16.4453
  0
LINE
  8
0
 10
102.371
 20
16.4453
 11
102.573
 21
16.7634
  0
LINE
  8
0
 10
102.573
 20
16.7634
 11
102.813
 21
17.0536
  0
LINE
  8
0
 10
102.813
 20
17.0536
 11
103.088
 21
17.3115
  0
LINE
  8
0
 10
103.088
 20
17.3115
 11
103.393
 21
17.533
  0
LINE
  8
0
 10
103.393
 20
17.533
 11
103.723
 21
17.7145
  0
LINE
  8
0
 10
103.723
 20
17.7145
 11
104.073
 21
17.8532
  0
LINE
  8
0
 10
104.073
 20
17.8532
 11
104.438
 21
17.9469
  0
LINE
  8
0
 10
104.438
 20
17.9469
 11
104.812
 21
17.9941
  0
LINE
  8
0
 10
104.812
 20
17.9941
 11
105.188
 21
17.9941
  0
LINE
  8
0
 10
105.188
 20
17.9941
 11
105.562
 21
17.9469
  0
LINE
  8
0
 10
105.562
 20
17.9469
 11
105.927
 21
17.8532
  0
LINE
  8
0
 10
105.927
 20
17.8532
 11
106.277
 21
17.7145
  0
LINE
  8
0
 10
106.277
 20
17.7145
 11
106.607
 21
17.533
  0
LINE
  8
0
 10
106.607
 20
17.533
 11
106.912
 21
17.3115
  0
LINE
  8
0
 10
106.912
 20
17.3115
 11
107.187
 21
17.0536
  0
LINE
  8
0
 10
107.187
 20
17.0536
 11
107.427
 21
16.7634
  0
LINE
  8
0
 10
107.427
 20
16.7634
 11
107.629
 21
16.4453
  0
LINE
  8
0
 10
107.629
 20
16.4453
 11
107.789
 21
16.1044
  0
LINE
  8
0
 10
107.789
 20
16.1044
 11
107.906
 21
15.7461
  0
LINE
  8
0
 10
107.906
 20
15.7461
 11
107.976
 21
15.376
  0
LINE
  8
0
 10
107.976
 20
15.376
 11
108
 21
15
  0
LINE
  8
0
 10
108
 20
15
 11
107.976
 21
14.624
  0
LINE
  8
0
 10
107.976
 20
14.624
 11
107.906
 21
14.2539
  0
LINE
  8
0
 10
107.906
 20
14.2539
 11
107.789
 21
13.8956
  0
LINE
  8
0
 10
107.789
 20
13.8956
 11
107.629
 21
13.5547
  0
LINE
  8
0
 10
107.629
 20
13.5547
 11
107.427
 21
13.2366
  0
LINE
  8
0
 10
107.427
 20
13.2366
 11
107.187
 21
12.9464
  0
LINE
  8
0
 10
107.187
 20
12.9464
 11
106.912
 21
12.6884
  0
LINE
  8
0
 10
106.912
 20
12.6884
 11
106.607
 21
12.467
  0
LINE
  8
0
 10
106.607
 20
12.467
 11
106.277
 21
12.2855
  0
LINE
  8
0
 10
106.277
 20
12.2855
 11
105.927
 21
12.1468
  0
LINE
  8
0
 10
105.927
 20
12.1468
 11
105.562
 21
12.0531
  0
LINE
  8
0
 10
105.562
 20
12.0531
 11
105.188
 21
12.0059
  0
LINE
  8
0
 10
105.188
 20
12.0059
 11
104.812
 21
12.0059
  0
LINE
  8
0
 10
104.906
 20
6.00294
 11
104.719
 21
6.02657
  0
LINE
  8
0
 10
104.719
 20
6.02657
 11
104.536
 21
6.07341
  0
LINE
  8
0
 10
104.536
 20
6.07341
 11
104.361
 21
6.14275
  0
LINE
  8
0
 10
104.361
 20
6.14275
 11
104.196
 21
6.23351
  0
LINE
  8
0
 10
104.196
 20
6.23351
 11
104.044
 21
6.34422
  0
LINE
  8
0
 10
104.044
 20
6.34422
 11
103.907
 21
6.47318
  0
LINE
  8
0
 10
103.907
 20
6.47318
 11
103.786
 21
6.61832
  0
LINE
  8
0
 10
103.786
 20
6.61832
 11
103.686
 21
6.77736
  0
LINE
  8
0
 10
103.686
 20
6.77736
 11
103.605
 21
6.9478
  0
LINE
  8
0
 10
103.605
 20
6.9478
 11
103.547
 21
7.12695
  0
LINE
  8
0
 10
103.547
 20
7.12695
 11
103.512
 21
7.312
  0
LINE
  8
0
 10
103.512
 20
7.312
 11
103.5
 21
7.5
  0
LINE
  8
0
 10
103.5
 20
7.5
 11
103.512
 21
7.68799
  0
LINE
  8
0
 10
103.512
 20
7.68799
 11
103.547
 21
7.87303
  0
LINE
  8
0
 10
103.547
 20
7.87303
 11
103.605
 21
8.05219
  0
LINE
  8
0
 10
103.605
 20
8.05219
 11
103.686
 21
8.22263
  0
LINE
  8
0
 10
103.686
 20
8.22263
 11
103.786
 21
8.38167
  0
LINE
  8
0
 10
103.786
 20
8.38167
 11
103.907
 21
8.52681
  0
LINE
  8
0
 10
103.907
 20
8.52681
 11
104.044
 21
8.65576
  0
LINE
  8
0
 10
104.044
 20
8.65576
 11
104.196
 21
8.76648
  0
LINE
  8
0
 10
104.196
 20
8.76648
 11
104.361
 21
8.85724
  0
LINE
  8
0
 10
104.361
 20
8.85724
 11
104.536
 21
8.92657
  0
LINE
  8
0
 10
104.536
 20
8.92657
 11
104.719
 21
8.97342
  0
LINE
  8
0
 10
104.719
 20
8.97342
 11
104.906
 21
8.99704
  0
LINE
  8
0
 10
104.906
 20
8.99704
 11
105.094
 21
8.99704
  0
LINE
  8
0
 10
105.094
 20
8.99704
 11
105.281
 21
8.97342
  0
LINE
  8
0
 10
105.281
 20
8.97342
 11
105.464
 21
8.92657
  0
LINE
  8
0
 10
105.464
 20
8.92657
 11
105.639
 21
8.85724
  0
LINE
  8
0
 10
105.639
 20
8.85724
 11
105.804
 21
8.76648
  0
LINE
  8
0
 10
105.804
 20
8.76648
 11
105.956
 21
8.65576
  0
LINE
  8
0
 10
105.956
 20
8.65576
 11
106.093
 21
8.52681
  0
LINE
  8
0
 10
106.093
 20
8.52681
 11
106.214
 21
8.38167
  0
LINE
  8
0
 10
106.214
 20
8.38167
 11
106.314
 21
8.22263
  0
LINE
  8
0
 10
106.314
 20
8.22263
 11
106.395
 21
8.05219
  0
LINE
  8
0
 10
106.395
 20
8.05219
 11
106.453
 21
7.87303
  0
LINE
  8
0
 10
106.453
 20
7.87303
 11
106.488
 21
7.68799
  0
LINE
  8
0
 10
106.488
 20
7.68799
 11
106.5
 21
7.5
  0
LINE
  8
0
 10
106.5
 20
7.5
 11
106.488
 21
7.312
  0
LINE
  8
0
 10
106.488
 20
7.312
 11
106.453
 21
7.12695
  0
LINE
  8
0
 10
106.453
 20
7.12695
 11
106.395
 21
6.9478
  0
LINE
  8
0
 10
106.395
 20
6.9478
 11
106.314
 21
6.77736
  0
LINE
  8
0
 10
106.314
 20
6.77736
 11
106.214
 21
6.61832
  0
LINE
  8
0
 10
106.214
 20
6.61832
 11
106.093
 21
6.47318
  0
LINE
  8
0
 10
106.093
 20
6.47318
 11
105.956
 21
6.34422
  0
LINE
  8
0
 10
105.956
 20
6.34422
 11
105.804
 21
6.23351
  0
LINE
  8
0
 10
105.804
 20
6.23351
 11
105.639
 21
6.14275
  0
LINE
  8
0
 10
105.639
 20
6.14275
 11
105.464
 21
6.07341
  0
LINE
  8
0
 10
105.464
 20
6.07341
 11
105.281
 21
6.02657
  0
LINE
  8
0
 10
105.281
 20
6.02657
 11
105.094
 21
6.00294
  0
LINE
  8
0
 10
105.094
 20
6.00294
 11
104.906
 21
6.00294
  0
LINE
  8
0
 10
-105.094
 20
6.00294
 11
-105.281
 21
6.02657
  0
LINE
  8
0
 10
-105.281
 20
6.02657
 11
-105.464
 21
6.07341
  0
LINE
  8
0
 10
-105.464
 20
6.07341
 11
-105.639
 21
6.14275
  0
LINE
  8
0
 10
-105.639
 20
6.14275
 11
-105.804
 21
6.23351
  0
LINE
  8
0
 10
-105.804
 20
6.23351
 11
-105.956
 21
6.34422
  0
LINE
  8
0
 10
-105.956
 20
6.34422
 11
-106.093
 21
6.47318
  0
LINE
  8
0
 10
-106.093
 20
6.47318
 11
-106.214
 21
6.61832
  0
LINE
  8
0
 10
-106.214
 20
6.61832
 11
-106.314
 21
6.77736
  0
LINE
  8
0
 10
-106.314
 20
6.77736
 11
-106.395
 21
6.9478
  0
LINE
  8
0
 10
-106.395
 20
6.9478
 11
-106.453
 21
7.12695
  0
LINE
  8
0
 10
-106.453
 20
7.12695
 11
-106.488
 21
7.312
  0
LINE
  8
0
 10
-106.488
 20
7.312
 11
-106.5
 21
7.5
  0
LINE
  8
0
 10
-106.5
 20
7.5
 11
-106.488
 21
7.68799
  0
LINE
  8
0
 10
-106.488
 20
7.68799
 11
-106.453
 21
7.87303
  0
LINE
  8
0
 10
-106.453
 20
7.87303
 11
-106.395
 21
8.05219
  0
LINE
  8
0
 10
-106.395
 20
8.05219
 11
-106.314
 21
8.22263
  0
LINE
  8
0
 10
-106.314
 20
8.22263
 11
-106.214
 21
8.38167
  0
LINE
  8
0
 10
-106.214
 20
8.38167
 11
-106.093
 21
8.52681
  0
LINE
  8
0
 10
-106.093
 20
8.52681
 11
-105.956
 21
8.65576
  0
LINE
  8
0
 10
-105.956
 20
8.65576
 11
-105.804
 21
8.76648
  0
LINE
  8
0
 10
-105.804
 20
8.76648
 11
-105.639
 21
8.85724
  0
LINE
  8
0
 10
-105.639
 20
8.85724
 11
-105.464
 21
8.92657
  0
LINE
  8
0
 10
-105.464
 20
8.92657
 11
-105.281
 21
8.97342
  0
LINE
  8
0
 10
-105.281
 20
8.97342
 11
-105.094
 21
8.99704
  0
LINE
  8
0
 10
-105.094
 20
8.99704
 11
-104.906
 21
8.99704
  0
LINE
  8
0
 10
-104.906
 20
8.99704
 11
-104.719
 21
8.97342
  0
LINE
  8
0
 10
-104.719
 20
8.97342
 11
-104.536
 21
8.92657
  0
LINE
  8
0
 10
-104.536
 20
8.92657
 11
-104.361
 21
8.85724
  0
LINE
  8
0
 10
-104.361
 20
8.85724
 11
-104.196
 21
8.76648
  0
LINE
  8
0
 10
-104.196
 20
8.76648
 11
-104.044
 21
8.65576
  0
LINE
  8
0
 10
-104.044
 20
8.65576
 11
-103.907
 21
8.52681
  0
LINE
  8
0
 10
-103.907
 20
8.52681
 11
-103.786
 21
8.38167
  0
LINE
  8
0
 10
-103.786
 20
8.38167
 11
-103.686
 21
8.22263
  0
LINE
  8
0
 10
-103.686
 20
8.22263
 11
-103.605
 21
8.05219
  0
LINE
  8
0
 10
-103.605
 20
8.05219
 11
-103.547
 21
7.87303
  0
LINE
  8
0
 10
-103.547
 20
7.87303
 11
-103.512
 21
7.68799
  0
LINE
  8
0
 10
-103.512
 20
7.68799
 11
-103.5
 21
7.5
  0
LINE
  8
0
 10
-103.5
 20
7.5
 11
-103.512
 21
7.312
  0
LINE
  8
0
 10
-103.512
 20
7.312
 11
-103.547
 21
7.12695
  0
LINE
  8
0
 10
-103.547
 20
7.12695
 11
-103.605
 21
6.9478
  0
LINE
  8
0
 10
-103.605
 20
6.9478
 11
-103.686
 21
6.77736
  0
LINE
  8
0
 10
-103.686
 20
6.77736
 11
-103.786
 21
6.61832
  0
LINE
  8
0
 10
-103.786
 20
6.61832
 11
-103.907
 21
6.47318
  0
LINE
  8
0
 10
-103.907
 20
6.47318
 11
-104.044
 21
6.34422
  0
LINE
  8
0
 10
-104.044
 20
6.34422
 11
-104.196
 21
6.23351
  0
LINE
  8
0
 10
-104.196
 20
6.23351
 11
-104.361
 21
6.14275
  0
LINE
  8
0
 10
-104.361
 20
6.14275
 11
-104.536
 21
6.07341
  0
LINE
  8
0
 10
-104.536
 20
6.07341
 11
-104.719
 21
6.02657
  0
LINE
  8
0
 10
-104.719
 20
6.02657
 11
-104.906
 21
6.00294
  0
LINE
  8
0
 10
-104.906
 20
6.00294
 11
-105.094
 21
6.00294
  0
LINE
  8
0
 10
-105.188
 20
-2.99408
 11
-105.562
 21
-2.94685
  0
LINE
  8
0
 10
-105.562
 20
-2.94685
 11
-105.927
 21
-2.85316
  0
LINE
  8
0
 10
-105.927
 20
-2.85316
 11
-106.277
 21
-2.71448
  0
LINE
  8
0
 10
-106.277
 20
-2.71448
 11
-106.607
 21
-2.53297
  0
LINE
  8
0
 10
-106.607
 20
-2.53297
 11
-106.912
 21
-2.31154
  0
LINE
  8
0
 10
-106.912
 20
-2.31154
 11
-107.187
 21
-2.05363
  0
LINE
  8
0
 10
-107.187
 20
-2.05363
 11
-107.427
 21
-1.76335
  0
LINE
  8
0
 10
-107.427
 20
-1.76335
 11
-107.629
 21
-1.44525
  0
LINE
  8
0
 10
-107.629
 20
-1.44525
 11
-107.789
 21
-1.10437
  0
LINE
  8
0
 10
-107.789
 20
-1.10437
 11
-107.906
 21
-0.746063
  0
LINE
  8
0
 10
-107.906
 20
-0.746063
 11
-107.976
 21
-0.375992
  0
LINE
  8
0
 10
-107.976
 20
-0.375992
 11
-108
 21
0
  0
LINE
  8
0
 10
-108
 20
0
 11
-107.976
 21
0.375992
  0
LINE
  8
0
 10
-107.976
 20
0.375992
 11
-107.906
 21
0.746063
  0
LINE
  8
0
 10
-107.906
 20
0.746063
 11
-107.789
 21
1.10437
  0
LINE
  8
0
 10
-107.789
 20
1.10437
 11
-107.629
 21
1.44525
  0
LINE
  8
0
 10
-107.629
 20
1.44525
 11
-107.427
 21
1.76335
  0
LINE
  8
0
 10
-107.427
 20
1.76335
 11
-107.187
 21
2.05363
  0
LINE
  8
0
 10
-107.187
 20
2.05363
 11
-106.912
 21
2.31154
  0
LINE
  8
0
 10
-106.912
 20
2.31154
 11
-106.607
 21
2.53297
  0
LINE
  8
0
 10
-106.607
 20
2.53297
 11
-106.277
 21
2.71448
  0
LINE
  8
0
 10
-106.277
 20
2.71448
 11
-105.927
 21
2.85316
  0
LINE
  8
0
 10
-105.927
 20
2.85316
 11
-105.562
 21
2.94685
  0
LINE
  8
0
 10
-105.562
 20
2.94685
 11
-105.188
 21
2.99408
  0
LINE
  8
0
 10
-105.188
 20
2.99408
 11
-104.812
 21
2.99408
  0
LINE
  8
0
 10
-104.812
 20
2.99408
 11
-104.438
 21
2.94685
  0
LINE
  8
0
 10
-104.438
 20
2.94685
 11
-104.073
 21
2.85316
  0
LINE
  8
0
 10
-104.073
 20
2.85316
 11
-103.723
 21
2.71448
  0
LINE
  8
0
 10
-103.723
 20
2.71448
 11
-103.393
 21
2.53297
  0
LINE
  8
0
 10
-103.393
 20
2.53297
 11
-103.088
 21
2.31154
  0
LINE
  8
0
 10
-103.088
 20
2.31154
 11
-102.813
 21
2.05363
  0
LINE
  8
0
 10
-102.813
 20
2.05363
 11
-102.573
 21
1.76335
  0
LINE
  8
0
 10
-102.573
 20
1.76335
 11
-102.371
 21
1.44525
  0
LINE
  8
0
 10
-102.371
 20
1.44525
 11
-102.211
 21
1.10437
  0
LINE
  8
0
 10
-102.211
 20
1.10437
 11
-102.094
 21
0.746063
  0
LINE
  8
0
 10
-102.094
 20
0.746063
 11
-102.024
 21
0.375992
  0
LINE
  8
0
 10
-102.024
 20
0.375992
 11
-102
 21
0
  0
LINE
  8
0
 10
-102
 20
0
 11
-102.024
 21
-0.375992
  0
LINE
  8
0
 10
-102.024
 20
-0.375992
 11
-102.094
 21
-0.746063
  0
LINE
  8
0
 10
-102.094
 20
-0.746063
 11
-102.211
 21
-1.10437
  0
LINE
  8
0
 10
-102.211
 20
-1.10437
 11
-102.371
 21
-1.44525
  0
LINE
  8
0
 10
-102.371
 20
-1.44525
 11
-102.573
 21
-1.76335
  0
LINE
  8
0
 10
-102.573
 20
-1.76335
 11
-102.813
 21
-2.05363
  0
LINE
  8
0
 10
-102.813
 20
-2.05363
 11
-103.088
 21
-2.31154
  0
LINE
  8
0
 10
-103.088
 20
-2.31154
 11
-103.393
 21
-2.53297
  0
LINE
  8
0
 10
-103.393
 20
-2.53297
 11
-103.723
 21
-2.71448
  0
LINE
  8
0
 10
-103.723
 20
-2.71448
 11
-104.073
 21
-2.85316
  0
LINE
  8
0
 10
-104.073
 20
-2.85316
 11
-104.438
 21
-2.94685
  0
LINE
  8
0
 10
-104.438
 20
-2.94685
 11
-104.812
 21
-2.99408
  0
LINE
  8
0
 10
-104.812
 20
-2.99408
 11
-105.188
 21
-2.99408
  0
LINE
  8
0
 10
104.812
 20
-2.99408
 11
104.438
 21
-2.94685
  0
LINE
  8
0
 10
104.438
 20
-2.94685
 11
104.073
 21
-2.85316
  0
LINE
  8
0
 10
104.073
 20
-2.85316
 11
103.723
 21
-2.71448
  0
LINE
  8
0
 10
103.723
 20
-2.71448
 11
103.393
 21
-2.53297
  0
LINE
  8
0
 10
103.393
 20
-2.53297
 11
103.088
 21
-2.31154
  0
LINE
  8
0
 10
103.088
 20
-2.31154
 11
102.813
 21
-2.05363
  0
LINE
  8
0
 10
102.813
 20
-2.05363
 11
102.573
 21
-1.76335
  0
LINE
  8
0
 10
102.573
 20
-1.76335
 11
102.371
 21
-1.44525
  0
LINE
  8
0
 10
102.371
 20
-1.44525
 11
102.211
 21
-1.10437
  0
LINE
  8
0
 10
102.211
 20
-1.10437
 11
102.094
 21
-0.746063
  0
LINE
  8
0
 10
102.094
 20
-0.746063
 11
102.024
 21
-0.375992
  0
LINE
  8
0
 10
102.024
 20
-0.375992
 11
102
 21
0
  0
LINE
  8
0
 10
102
 20
0
 11
102.024
 21
0.375992
  0
LINE
  8
0
 10
102.024
 20
0.375992
 11
102.094
 21
0.746063
  0
LINE
  8
0
 10
102.094
 20
0.746063
 11
102.211
 21
1.10437
  0
LINE
  8
0
 10
102.211
 20
1.10437
 11
102.371
 21
1.44525
  0
LINE
  8
0
 10
102.371
 20
1.44525
 11
102.573
 21
1.76335
  0
LINE
  8
0
 10
102.573
 20
1.76335
 11
102.813
 21
2.05363
  0
LINE
  8
0
 10
102.813
 20
2.05363
 11
103.088
 21
2.31154
  0
LINE
  8
0
 10
103.088
 20
2.31154
 11
103.393
 21
2.53297
  0
LINE
  8
0
 10
103.393
 20
2.53297
 11
103.723
 21
2.71448
  0
LINE
  8
0
 10
103.723
 20
2.71448
 11
104.073
 21
2.85316
  0
LINE
  8
0
 10
104.073
 20
2.85316
 11
104.438
 21
2.94685
  0
LINE
  8
0
 10
104.438
 20
2.94685
 11
104.812
 21
2.99408
  0
LINE
  8
0
 10
104.812
 20
2.99408
 11
105.188
 21
2.99408
  0
LINE
  8
0
 10
105.188
 20
2.99408
 11
105.562
 21
2.94685
  0
LINE
  8
0
 10
105.562
 20
2.94685
 11
105.927
 21
2.85316
  0
LINE
  8
0
 10
105.927
 20
2.85316
 11
106.277
 21
2.71448
  0
LINE
  8
0
 10
106.277
 20
2.71448
 11
106.607
 21
2.53297
  0
LINE
  8
0
 10
106.607
 20
2.53297
 11
106.912
 21
2.31154
  0
LINE
  8
0
 10
106.912
 20
2.31154
 11
107.187
 21
2.05363
  0
LINE
  8
0
 10
107.187
 20
2.05363
 11
107.427
 21
1.76335
  0
LINE
  8
0
 10
107.427
 20
1.76335
 11
107.629
 21
1.44525
  0
LINE
  8
0
 10
107.629
 20
1.44525
 11
107.789
 21
1.10437
  0
LINE
  8
0
 10
107.789
 20
1.10437
 11
107.906
 21
0.746063
  0
LINE
  8
0
 10
107.906
 20
0.746063
 11
107.976
 21
0.375992
  0
LINE
  8
0
 10
107.976
 20
0.375992
 11
108
 21
0
  0
LINE
  8
0
 10
108
 20
0
 11
107.976
 21
-0.375992
  0
LINE
  8
0
 10
107.976
 20
-0.375992
 11
107.906
 21
-0.746063
  0
LINE
  8
0
 10
107.906
 20
-0.746063
 11
107.789
 21
-1.10437
  0
LINE
  8
0
 10
107.789
 20
-1.10437
 11
107.629
 21
-1.44525
  0
LINE
  8
0
 10
107.629
 20
-1.44525
 11
107.427
 21
-1.76335
  0
LINE
  8
0
 10
107.427
 20
-1.76335
 11
107.187
 21
-2.05363
  0
LINE
  8
0
 10
107.187
 20
-2.05363
 11
106.912
 21
-2.31154
  0
LINE
  8
0
 10
106.912
 20
-2.31154
 11
106.607
 21
-2.53297
  0
LINE
  8
0
 10
106.607
 20
-2.53297
 11
106.277
 21
-2.71448
  0
LINE
  8
0
 10
106.277
 20
-2.71448
 11
105.927
 21
-2.85316
  0
LINE
  8
0
 10
105.927
 20
-2.85316
 11
105.562
 21
-2.94685
  0
LINE
  8
0
 10
105.562
 20
-2.94685
 11
105.188
 21
-2.99408
  0
LINE
  8
0
 10
105.188
 20
-2.99408
 11
104.812
 21
-2.99408
  0
LINE
  8
0
 10
104.906
 20
-8.99704
 11
104.719
 21
-8.97342
  0
LINE
  8
0
 10
104.719
 20
-8.97342
 11
104.536
 21
-8.92657
  0
LINE
  8
0
 10
104.536
 20
-8.92657
 11
104.361
 21
-8.85724
  0
LINE
  8
0
 10
104.361
 20
-8.85724
 11
104.196
 21
-8.76648
  0
LINE
  8
0
 10
104.196
 20
-8.76648
 11
104.044
 21
-8.65576
  0
LINE
  8
0
 10
104.044
 20
-8.65576
 11
103.907
 21
-8.52681
  0
LINE
  8
0
 10
103.907
 20
-8.52681
 11
103.786
 21
-8.38167
  0
LINE
  8
0
 10
103.786
 20
-8.38167
 11
103.686
 21
-8.22263
  0
LINE
  8
0
 10
103.686
 20
-8.22263
 11
103.605
 21
-8.05219
  0
LINE
  8
0
 10
103.605
 20
-8.05219
 11
103.547
 21
-7.87303
  0
LINE
  8
0
 10
103.547
 20
-7.87303
 11
103.512
 21
-7.68799
  0
LINE
  8
0
 10
103.512
 20
-7.68799
 11
103.5
 21
-7.5
  0
LINE
  8
0
 10
103.5
 20
-7.5
 11
103.512
 21
-7.312
  0
LINE
  8
0
 10
103.512
 20
-7.312
 11
103.547
 21
-7.12695
  0
LINE
  8
0
 10
103.547
 20
-7.12695
 11
103.605
 21
-6.9478
  0
LINE
  8
0
 10
103.605
 20
-6.9478
 11
103.686
 21
-6.77736
  0
LINE
  8
0
 10
103.686
 20
-6.77736
 11
103.786
 21
-6.61832
  0
LINE
  8
0
 10
103.786
 20
-6.61832
 11
103.907
 21
-6.47318
  0
LINE
  8
0
 10
103.907
 20
-6.47318
 11
104.044
 21
-6.34422
  0
LINE
  8
0
 10
104.044
 20
-6.34422
 11
104.196
 21
-6.23351
  0
LINE
  8
0
 10
104.196
 20
-6.23351
 11
104.361
 21
-6.14275
  0
LINE
  8
0
 10
104.361
 20
-6.14275
 11
104.536
 21
-6.07341
  0
LINE
  8
0
 10
104.536
 20
-6.07341
 11
104.719
 21
-6.02657
  0
LINE
  8
0
 10
104.719
 20
-6.02657
 11
104.906
 21
-6.00294
  0
LINE
  8
0
 10
104.906
 20
-6.00294
 11
105.094
 21
-6.00294
  0
LINE
  8
0
 10
105.094
 20
-6.00294
 11
105.281
 21
-6.02657
  0
LINE
  8
0
 10
105.281
 20
-6.02657
 11
105.464
 21
-6.07341
  0
LINE
  8
0
 10
105.464
 20
-6.07341
 11
105.639
 21
-6.14275
  0
LINE
  8
0
 10
105.639
 20
-6.14275
 11
105.804
 21
-6.23351
  0
LINE
  8
0
 10
105.804
 20
-6.23351
 11
105.956
 21
-6.34422
  0
LINE
  8
0
 10
105.956
 20
-6.34422
 11
106.093
 21
-6.47318
  0
LINE
  8
0
 10
106.093
 20
-6.47318
 11
106.214
 21
-6.61832
  0
LINE
  8
0
 10
106.214
 20
-6.61832
 11
106.314
 21
-6.77736
  0
LINE
  8
0
 10
106.314
 20
-6.77736
 11
106.395
 21
-6.9478
  0
LINE
  8
0
 10
106.395
 20
-6.9478
 11
106.453
 21
-7.12695
  0
LINE
  8
0
 10
106.453
 20
-7.12695
 11
106.488
 21
-7.312
  0
LINE
  8
0
 10
106.488
 20
-7.312
 11
106.5
 21
-7.5
  0
LINE
  8
0
 10
106.5
 20
-7.5
 11
106.488
 21
-7.68799
  0
LINE
  8
0
 10
106.488
 20
-7.68799
 11
106.453
 21
-7.87303
  0
LINE
  8
0
 10
106.453
 20
-7.87303
 11
106.395
 21
-8.05219
  0
LINE
  8
0
 10
106.395
 20
-8.05219
 11
106.314
 21
-8.22263
  0
LINE
  8
0
 10
106.314
 20
-8.22263
 11
106.214
 21
-8.38167
  0
LINE
  8
0
 10
106.214
 20
-8.38167
 11
106.093
 21
-8.52681
  0
LINE
  8
0
 10
106.093
 20
-8.52681
 11
105.956
 21
-8.65576
  0
LINE
  8
0
 10
105.956
 20
-8.65576
 11
105.804
 21
-8.76648
  0
LINE
  8
0
 10
105.804
 20
-8.76648
 11
105.639
 21
-8.85724
  0
LINE
  8
0
 10
105.639
 20
-8.85724
 11
105.464
 21
-8.92657
  0
LINE
  8
0
 10
105.464
 20
-8.92657
 11
105.281
 21
-8.97342
  0
LINE
  8
0
 10
105.281
 20
-8.97342
 11
105.094
 21
-8.99704
  0
LINE
  8
0
 10
105.094
 20
-8.99704
 11
104.906
 21
-8.99704
  0
LINE
  8
0
 10
-105.094
 20
-8.99704
 11
-105.281
 21
-8.97342
  0
LINE
  8
0
 10
-105.281
 20
-8.97342
 11
-105.464
 21
-8.92657
  0
LINE
  8
0
 10
-105.464
 20
-8.92657
 11
-105.639
 21
-8.85724
  0
LINE
  8
0
 10
-105.639
 20
-8.85724
 11
-105.804
 21
-8.76648
  0
LINE
  8
0
 10
-105.804
 20
-8.76648
 11
-105.956
 21
-8.65576
  0
LINE
  8
0
 10
-105.956
 20
-8.65576
 11
-106.093
 21
-8.52681
  0
LINE
  8
0
 10
-106.093
 20
-8.52681
 11
-106.214
 21
-8.38167
  0
LINE
  8
0
 10
-106.214
 20
-8.38167
 11
-106.314
 21
-8.22263
  0
LINE
  8
0
 10
-106.314
 20
-8.22263
 11
-106.395
 21
-8.05219
  0
LINE
  8
0
 10
-106.395
 20
-8.05219
 11
-106.453
 21
-7.87303
  0
LINE
  8
0
 10
-106.453
 20
-7.87303
 11
-106.488
 21
-7.68799
  0
LINE
  8
0
 10
-106.488
 20
-7.68799
 11
-106.5
 21
-7.5
  0
LINE
  8
0
 10
-106.5
 20
-7.5
 11
-106.488
 21
-7.312
  0
LINE
  8
0
 10
-106.488
 20
-7.312
 11
-106.453
 21
-7.12695
  0
LINE
  8
0
 10
-106.453
 20
-7.12695
 11
-106.395
 21
-6.9478
  0
LINE
  8
0
 10
-106.395
 20
-6.9478
 11
-106.314
 21
-6.77736
  0
LINE
  8
0
 10
-106.314
 20
-6.77736
 11
-106.214
 21
-6.61832
  0
LINE
  8
0
 10
-106.214
 20
-6.61832
 11
-106.093
 21
-6.47318
  0
LINE
  8
0
 10
-106.093
 20
-6.47318
 11
-105.956
 21
-6.34422
  0
LINE
  8
0
 10
-105.956
 20
-6.34422
 11
-105.804
 21
-6.23351
  0
LINE
  8
0
 10
-105.804
 20
-6.23351
 11
-105.639
 21
-6.14275
  0
LINE
  8
0
 10
-105.639
 20
-6.14275
 11
-105.464
 21
-6.07341
  0
LINE
  8
0
 10
-105.464
 20
-6.07341
 11
-105.281
 21
-6.02657
  0
LINE
  8
0
 10
-105.281
 20
-6.02657
 11
-105.094
 21
-6.00294
  0
LINE
  8
0
 10
-105.094
 20
-6.00294
 11
-104.906
 21
-6.00294
  0
LINE
  8
0
 10
-104.906
 20
-6.00294
 11
-104.719
 21
-6.02657
  0
LINE
  8
0
 10
-104.719
 20
-6.02657
 11
-104.536
 21
-6.07341
  0
LINE
  8
0
 10
-104.536
 20
-6.07341
 11
-104.361
 21
-6.14275
  0
LINE
  8
0
 10
-104.361
 20
-6.14275
 11
-104.196
 21
-6.23351
  0
LINE
  8
0
 10
-104.196
 20
-6.23351
 11
-104.044
 21
-6.34422
  0
LINE
  8
0
 10
-104.044
 20
-6.34422
 11
-103.907
 21
-6.47318
  0
LINE
  8
0
 10
-103.907
 20
-6.47318
 11
-103.786
 21
-6.61832
  0
LINE
  8
0
 10
-103.786
 20
-6.61832
 11
-103.686
 21
-6.77736
  0
LINE
  8
0
 10
-103.686
 20
-6.77736
 11
-103.605
 21
-6.9478
  0
LINE
  8
0
 10
-103.605
 20
-6.9478
 11
-103.547
 21
-7.12695
  0
LINE
  8
0
 10
-103.547
 20
-7.12695
 11
-103.512
 21
-7.312
  0
LINE
  8
0
 10
-103.512
 20
-7.312
 11
-103.5
 21
-7.5
  0
LINE
  8
0
 10
-103.5
 20
-7.5
 11
-103.512
 21
-7.68799
  0
LINE
  8
0
 10
-103.512
 20
-7.68799
 11
-103.547
 21
-7.87303
  0
LINE
  8
0
 10
-103.547
 20
-7.87303
 11
-103.605
 21
-8.05219
  0
LINE
  8
0
 10
-103.605
 20
-8.05219
 11
-103.686
 21
-8.22263
  0
LINE
  8
0
 10
-103.686
 20
-8.22263
 11
-103.786
 21
-8.38167
  0
LINE
  8
0
 10
-103.786
 20
-8.38167
 11
-103.907
 21
-8.52681
  0
LINE
  8
0
 10
-103.907
 20
-8.52681
 11
-104.044
 21
-8.65576
  0
LINE
  8
0
 10
-104.044
 20
-8.65576
 11
-104.196
 21
-8.76648
  0
LINE
  8
0
 10
-104.196
 20
-8.76648
 11
-104.361
 21
-8.85724
  0
LINE
  8
0
 10
-104.361
 20
-8.85724
 11
-104.536
 21
-8.92657
  0
LINE
  8
0
 10
-104.536
 20
-8.92657
 11
-104.719
 21
-8.97342
  0
LINE
  8
0
 10
-104.719
 20
-8.97342
 11
-104.906
 21
-8.99704
  0
LINE
  8
0
 10
-104.906
 20
-8.99704
 11
-105.094
 21
-8.99704
  0
LINE
  8
0
 10
104.812
 20
-17.9941
 11
104.438
 21
-17.9469
  0
LINE
  8
0
 10
104.438
 20
-17.9469
 11
104.073
 21
-17.8532
  0
LINE
  8
0
 10
104.073
 20
-17.8532
 11
103.723
 21
-17.7145
  0
LINE
  8
0
 10
103.723
 20
-17.7145
 11
103.393
 21
-17.533
  0
LINE
  8
0
 10
103.393
 20
-17.533
 11
103.088
 21
-17.3115
  0
LINE
  8
0
 10
103.088
 20
-17.3115
 11
102.813
 21
-17.0536
  0
LINE
  8
0
 10
102.813
 20
-17.0536
 11
102.573
 21
-16.7634
  0
LINE
  8
0
 10
102.573
 20
-16.7634
 11
102.371
 21
-16.4453
  0
LINE
  8
0
 10
102.371
 20
-16.4453
 11
102.211
 21
-16.1044
  0
LINE
  8
0
 10
102.211
 20
-16.1044
 11
102.094
 21
-15.7461
  0
LINE
  8
0
 10
102.094
 20
-15.7461
 11
102.024
 21
-15.376
  0
LINE
  8
0
 10
102.024
 20
-15.376
 11
102
 21
-15
  0
LINE
  8
0
 10
102
 20
-15
 11
102.024
 21
-14.624
  0
LINE
  8
0
 10
102.024
 20
-14.624
 11
102.094
 21
-14.2539
  0
LINE
  8
0
 10
102.094
 20
-14.2539
 11
102.211
 21
-13.8956
  0
LINE
  8
0
 10
102.211
 20
-13.8956
 11
102.371
 21
-13.5547
  0
LINE
  8
0
 10
102.371
 20
-13.5547
 11
102.573
 21
-13.2366
  0
LINE
  8
0
 10
102.573
 20
-13.2366
 11
102.813
 21
-12.9464
  0
LINE
  8
0
 10
102.813
 20
-12.9464
 11
103.088
 21
-12.6884
  0
LINE
  8
0
 10
103.088
 20
-12.6884
 11
103.393
 21
-12.467
  0
LINE
  8
0
 10
103.393
 20
-12.467
 11
103.723
 21
-12.2855
  0
LINE
  8
0
 10
103.723
 20
-12.2855
 11
104.073
 21
-12.1468
  0
LINE
  8
0
 10
104.073
 20
-12.1468
 11
104.438
 21
-12.0531
  0
LINE
  8
0
 10
104.438
 20
-12.0531
 11
104.812
 21
-12.0059
  0
LINE
  8
0
 10
104.812
 20
-12.0059
 11
105.188
 21
-12.0059
  0
LINE
  8
0
 10
105.188
 20
-12.0059
 11
105.562
 21
-12.0531
  0
LINE
  8
0
 10
105.562
 20
-12.0531
 11
105.927
 21
-12.1468
  0
LINE
  8
0
 10
105.927
 20
-12.1468
 11
106.277
 21
-12.2855
  0
LINE
  8
0
 10
106.277
 20
-12.2855
 11
106.607
 21
-12.467
  0
LINE
  8
0
 10
106.607
 20
-12.467
 11
106.912
 21
-12.6884
  0
LINE
  8
0
 10
106.912
 20
-12.6884
 11
107.187
 21
-12.9464
  0
LINE
  8
0
 10
107.187
 20
-12.9464
 11
107.427
 21
-13.2366
  0
LINE
  8
0
 10
107.427
 20
-13.2366
 11
107.629
 21
-13.5547
  0
LINE
  8
0
 10
107.629
 20
-13.5547
 11
107.789
 21
-13.8956
  0
LINE
  8
0
 10
107.789
 20
-13.8956
 11
107.906
 21
-14.2539
  0
LINE
  8
0
 10
107.906
 20
-14.2539
 11
107.976
 21
-14.624
  0
LINE
  8
0
 10
107.976
 20
-14.624
 11
108
 21
-15
  0
LINE
  8
0
 10
108
 20
-15
 11
107.976
 21
-15.376
  0
LINE
  8
0
 10
107.976
 20
-15.376
 11
107.906
 21
-15.7461
  0
LINE
  8
0
 10
107.906
 20
-15.7461
 11
107.789
 21
-16.1044
  0
LINE
  8
0
 10
107.789
 20
-16.1044
 11
107.629
 21
-16.4453
  0
LINE
  8
0
 10
107.629
 20
-16.4453
 11
107.427
 21
-16.7634
  0
LINE
  8
0
 10
107.427
 20
-16.7634
 11
107.187
 21
-17.0536
  0
LINE
  8
0
 10
107.187
 20
-17.0536
 11
106.912
 21
-17.3115
  0
LINE
  8
0
 10
106.912
 20
-17.3115
 11
106.607
 21
-17.533
  0
LINE
  8
0
 10
106.607
 20
-17.533
 11
106.277
 21
-17.7145
  0
LINE
  8
0
 10
106.277
 20
-17.7145
 11
105.927
 21
-17.8532
  0
LINE
  8
0
 10
105.927
 20
-17.8532
 11
105.562
 21
-17.9469
  0
LINE
  8
0
 10
105.562
 20
-17.9469
 11
105.188
 21
-17.9941
  0
LINE
  8
0
 10
105.188
 20
-17.9941
 11
104.812
 21
-17.9941
  0
LINE
  8
0
 10
-105.188
 20
-17.9941
 11
-105.562
 21
-17.9469
  0
LINE
  8
0
 10
-105.562
 20
-17.9469
 11
-105.927
 21
-17.8532
  0
LINE
  8
0
 10
-105.927
 20
-17.8532
 11
-106.277
 21
-17.7145
  0
LINE
  8
0
 10
-106.277
 20
-17.7145
 11
-106.607
 21
-17.533
  0
LINE
  8
0
 10
-106.607
 20
-17.533
 11
-106.912
 21
-17.3115
  0
LINE
  8
0
 10
-106.912
 20
-17.3115
 11
-107.187
 21
-17.0536
  0
LINE
  8
0
 10
-107.187
 20
-17.0536
 11
-107.427
 21
-16.7634
  0
LINE
  8
0
 10
-107.427
 20
-16.7634
 11
-107.629
 21
-16.4453
  0
LINE
  8
0
 10
-107.629
 20
-16.4453
 11
-107.789
 21
-16.1044
  0
LINE
  8
0
 10
-107.789
 20
-16.1044
 11
-107.906
 21
-15.7461
  0
LINE
  8
0
 10
-107.906
 20
-15.7461
 11
-107.976
 21
-15.376
  0
LINE
  8
0
 10
-107.976
 20
-15.376
 11
-108
 21
-15
  0
LINE
  8
0
 10
-108
 20
-15
 11
-107.976
 21
-14.624
  0
LINE
  8
0
 10
-107.976
 20
-14.624
 11
-107.906
 21
-14.2539
  0
LINE
  8
0
 10
-107.906
 20
-14.2539
 11
-107.789
 21
-13.8956
  0
LINE
  8
0
 10
-107.789
 20
-13.8956
 11
-107.629
 21
-13.5547
  0
LINE
  8
0
 10
-107.629
 20
-13.5547
 11
-107.427
 21
-13.2366
  0
LINE
  8
0
 10
-107.427
 20
-13.2366
 11
-107.187
 21
-12.9464
  0
LINE
  8
0
 10
-107.187
 20
-12.9464
 11
-106.912
 21
-12.6884
  0
LINE
  8
0
 10
-106.912
 20
-12.6884
 11
-106.607
 21
-12.467
  0
LINE
  8
0
 10
-106.607
 20
-12.467
 11
-106.277
 21
-12.2855
  0
LINE
  8
0
 10
-106.277
 20
-12.2855
 11
-105.927
 21
-12.1468
  0
LINE
  8
0
 10
-105.927
 20
-12.1468
 11
-105.562
 21
-12.0531
  0
LINE
  8
0
 10
-105.562
 20
-12.0531
 11
-105.188
 21
-12.0059
  0
LINE
  8
0
 10
-105.188
 20
-12.0059
 11
-104.812
 21
-12.0059
  0
LINE
  8
0
 10
-104.812
 20
-12.0059
 11
-104.438
 21
-12.0531
  0
LINE
  8
0
 10
-104.438
 20
-12.0531
 11
-104.073
 21
-12.1468
  0
LINE
  8
0
 10
-104.073
 20
-12.1468
 11
-103.723
 21
-12.2855
  0
LINE
  8
0
 10
-103.723
 20
-12.2855
 11
-103.393
 21
-12.467
  0
LINE
  8
0
 10
-103.393
 20
-12.467
 11
-103.088
 21
-12.6884
  0
LINE
  8
0
 10
-103.088
 20
-12.6884
 11
-102.813
 21
-12.9464
  0
LINE
  8
0
 10
-102.813
 20
-12.9464
 11
-102.573
 21
-13.2366
  0
LINE
  8
0
 10
-102.573
 20
-13.2366
 11
-102.371
 21
-13.5547
  0
LINE
  8
0
 10
-102.371
 20
-13.5547
 11
-102.211
 21
-13.8956
  0
LINE
  8
0
 10
-102.211
 20
-13.8956
 11
-102.094
 21
-14.2539
  0
LINE
  8
0
 10
-102.094
 20
-14.2539
 11
-102.024
 21
-14.624
  0
LINE
  8
0
 10
-102.024
 20
-14.624
 11
-102
 21
-15
  0
LINE
  8
0
 10
-102
 20
-15
 11
-102.024
 21
-15.376
  0
LINE
  8
0
 10
-102.024
 20
-15.376
 11
-102.094
 21
-15.7461
  0
LINE
  8
0
 10
-102.094
 20
-15.7461
 11
-102.211
 21
-16.1044
  0
LINE
  8
0
 10
-102.211
 20
-16.1044
 11
-102.371
 21
-16.4453
  0
LINE
  8
0
 10
-102.371
 20
-16.4453
 11
-102.573
 21
-16.7634
  0
LINE
  8
0
 10
-102.573
 20
-16.7634
 11
-102.813
 21
-17.0536
  0
LINE
  8
0
 10
-102.813
 20
-17.0536
 11
-103.088
 21
-17.3115
  0
LINE
  8
0
 10
-103.088
 20
-17.3115
 11
-103.393
 21
-17.533
  0
LINE
  8
0
 10
-103.393
 20
-17.533
 11
-103.723
 21
-17.7145
  0
LINE
  8
0
 10
-103.723
 20
-17.7145
 11
-104.073
 21
-17.8532
  0
LINE
  8
0
 10
-104.073
 20
-17.8532
 11
-104.438
 21
-17.9469
  0
LINE
  8
0
 10
-104.438
 20
-17.9469
 11
-104.812
 21
-17.9941
  0
LINE
  8
0
 10
-104.812
 20
-17.9941
 11
-105.188
 21
-17.9941
  0
LINE
  8
0
 10
104.906
 20
-23.997
 11
104.719
 21
-23.9734
  0
LINE
  8
0
 10
104.719
 20
-23.9734
 11
104.536
 21
-23.9266
  0
LINE
  8
0
 10
104.536
 20
-23.9266
 11
104.361
 21
-23.8572
  0
LINE
  8
0
 10
104.361
 20
-23.8572
 11
104.196
 21
-23.7665
  0
LINE
  8
0
 10
104.196
 20
-23.7665
 11
104.044
 21
-23.6558
  0
LINE
  8
0
 10
104.044
 20
-23.6558
 11
103.907
 21
-23.5268
  0
LINE
  8
0
 10
103.907
 20
-23.5268
 11
103.786
 21
-23.3817
  0
LINE
  8
0
 10
103.786
 20
-23.3817
 11
103.686
 21
-23.2226
  0
LINE
  8
0
 10
103.686
 20
-23.2226
 11
103.605
 21
-23.0522
  0
LINE
  8
0
 10
103.605
 20
-23.0522
 11
103.547
 21
-22.873
  0
LINE
  8
0
 10
103.547
 20
-22.873
 11
103.512
 21
-22.688
  0
LINE
  8
0
 10
103.512
 20
-22.688
 11
103.5
 21
-22.5
  0
LINE
  8
0
 10
103.5
 20
-22.5
 11
103.512
 21
-22.312
  0
LINE
  8
0
 10
103.512
 20
-22.312
 11
103.547
 21
-22.127
  0
LINE
  8
0
 10
103.547
 20
-22.127
 11
103.605
 21
-21.9478
  0
LINE
  8
0
 10
103.605
 20
-21.9478
 11
103.686
 21
-21.7774
  0
LINE
  8
0
 10
103.686
 20
-21.7774
 11
103.786
 21
-21.6183
  0
LINE
  8
0
 10
103.786
 20
-21.6183
 11
103.907
 21
-21.4732
  0
LINE
  8
0
 10
103.907
 20
-21.4732
 11
104.044
 21
-21.3442
  0
LINE
  8
0
 10
104.044
 20
-21.3442
 11
104.196
 21
-21.2335
  0
LINE
  8
0
 10
104.196
 20
-21.2335
 11
104.361
 21
-21.1427
  0
LINE
  8
0
 10
104.361
 20
-21.1427
 11
104.536
 21
-21.0734
  0
LINE
  8
0
 10
104.536
 20
-21.0734
 11
104.719
 21
-21.0266
  0
LINE
  8
0
 10
104.719
 20
-21.0266
 11
104.906
 21
-21.003
  0
LINE
  8
0
 10
104.906
 20
-21.003
 11
105.094
 21
-21.003
  0
LINE
  8
0
 10
105.094
 20
-21.003
 11
105.281
 21
-21.0266
  0
LINE
  8
0
 10
105.281
 20
-21.0266
 11
105.464
 21
-21.0734
  0
LINE
  8
0
 10
105.464
 20
-21.0734
 11
105.639
 21
-21.1427
  0
LINE
  8
0
 10
105.639
 20
-21.1427
 11
105.804
 21
-21.2335
  0
LINE
  8
0
 10
105.804
 20
-21.2335
 11
105.956
 21
-21.3442
  0
LINE
  8
0
 10
105.956
 20
-21.3442
 11
106.093
 21
-21.4732
  0
LINE
  8
0
 10
106.093
 20
-21.4732
 11
106.214
 21
-21.6183
  0
LINE
  8
0
 10
106.214
 20
-21.6183
 11
106.314
 21
-21.7774
  0
LINE
  8
0
 10
106.314
 20
-21.7774
 11
106.395
 21
-21.9478
  0
LINE
  8
0
 10
106.395
 20
-21.9478
 11
106.453
 21
-22.127
  0
LINE
  8
0
 10
106.453
 20
-22.127
 11
106.488
 21
-22.312
  0
LINE
  8
0
 10
106.488
 20
-22.312
 11
106.5
 21
-22.5
  0
LINE
  8
0
 10
106.5
 20
-22.5
 11
106.488
 21
-22.688
  0
LINE
  8
0
 10
106.488
 20
-22.688
 11
106.453
 21
-22.873
  0
LINE
  8
0
 10
106.453
 20
-22.873
 11
106.395
 21
-23.0522
  0
LINE
  8
0
 10
106.395
 20
-23.0522
 11
106.314
 21
-23.2226
  0
LINE
  8
0
 10
106.314
 20
-23.2226
 11
106.214
 21
-23.3817
  0
LINE
  8
0
 10
106.214
 20
-23.3817
 11
106.093
 21
-23.5268
  0
LINE
  8
0
 10
106.093
 20
-23.5268
 11
105.956
 21
-23.6558
  0
LINE
  8
0
 10
105.956
 20
-23.6558
 11
105.804
 21
-23.7665
  0
LINE
  8
0
 10
105.804
 20
-23.7665
 11
105.639
 21
-23.8572
  0
LINE
  8
0
 10
105.639
 20
-23.8572
 11
105.464
 21
-23.9266
  0
LINE
  8
0
 10
105.464
 20
-23.9266
 11
105.281
 21
-23.9734
  0
LINE
  8
0
 10
105.281
 20
-23.9734
 11
105.094
 21
-23.997
  0
LINE
  8
0
 10
105.094
 20
-23.997
 11
104.906
 21
-23.997
  0
LINE
  8
0
 10
-105.094
 20
-23.997
 11
-105.281
 21
-23.9734
  0
LINE
  8
0
 10
-105.281
 20
-23.9734
 11
-105.464
 21
-23.9266
  0
LINE
  8
0
 10
-105.464
 20
-23.9266
 11
-105.639
 21
-23.8572
  0
LINE
  8
0
 10
-105.639
 20
-23.8572
 11
-105.804
 21
-23.7665
  0
LINE
  8
0
 10
-105.804
 20
-23.7665
 11
-105.956
 21
-23.6558
  0
LINE
  8
0
 10
-105.956
 20
-23.6558
 11
-106.093
 21
-23.5268
  0
LINE
  8
0
 10
-106.093
 20
-23.5268
 11
-106.214
 21
-23.3817
  0
LINE
  8
0
 10
-106.214
 20
-23.3817
 11
-106.314
 21
-23.2226
  0
LINE
  8
0
 10
-106.314
 20
-23.2226
 11
-106.395
 21
-23.0522
  0
LINE
  8
0
 10
-106.395
 20
-23.0522
 11
-106.453
 21
-22.873
  0
LINE
  8
0
 10
-106.453
 20
-22.873
 11
-106.488
 21
-22.688
  0
LINE
  8
0
 10
-106.488
 20
-22.688
 11
-106.5
 21
-22.5
  0
LINE
  8
0
 10
-106.5
 20
-22.5
 11
-106.488
 21
-22.312
  0
LINE
  8
0
 10
-106.488
 20
-22.312
 11
-106.453
 21
-22.127
  0
LINE
  8
0
 10
-106.453
 20
-22.127
 11
-106.395
 21
-21.9478
  0
LINE
  8
0
 10
-106.395
 20
-21.9478
 11
-106.314
 21
-21.7774
  0
LINE
  8
0
 10
-106.314
 20
-21.7774
 11
-106.214
 21
-21.6183
  0
LINE
  8
0
 10
-106.214
 20
-21.6183
 11
-106.093
 21
-21.4732
  0
LINE
  8
0
 10
-106.093
 20
-21.4732
 11
-105.956
 21
-21.3442
  0
LINE
  8
0
 10
-105.956
 20
-21.3442
 11
-105.804
 21
-21.2335
  0
LINE
  8
0
 10
-105.804
 20
-21.2335
 11
-105.639
 21
-21.1427
  0
LINE
  8
0
 10
-105.639
 20
-21.1427
 11
-105.464
 21
-21.0734
  0
LINE
  8
0
 10
-105.464
 20
-21.0734
 11
-105.281
 21
-21.0266
  0
LINE
  8
0
 10
-105.281
 20
-21.0266
 11
-105.094
 21
-21.003
  0
LINE
  8
0
 10
-105.094
 20
-21.003
 11
-104.906
 21
-21.003
  0
LINE
  8
0
 10
-104.906
 20
-21.003
 11
-104.719
 21
-21.0266
  0
LINE
  8
0
 10
-104.719
 20
-21.0266
 11
-104.536
 21
-21.0734
  0
LINE
  8
0
 10
-104.536
 20
-21.0734
 11
-104.361
 21
-21.1427
  0
LINE
  8
0
 10
-104.361
 20
-21.1427
 11
-104.196
 21
-21.2335
  0
LINE
  8
0
 10
-104.196
 20
-21.2335
 11
-104.044
 21
-21.3442
  0
LINE
  8
0
 10
-104.044
 20
-21.3442
 11
-103.907
 21
-21.4732
  0
LINE
  8
0
 10
-103.907
 20
-21.4732
 11
-103.786
 21
-21.6183
  0
LINE
  8
0
 10
-103.786
 20
-21.6183
 11
-103.686
 21
-21.7774
  0
LINE
  8
0
 10
-103.686
 20
-21.7774
 11
-103.605
 21
-21.9478
  0
LINE
  8
0
 10
-103.605
 20
-21.9478
 11
-103.547
 21
-22.127
  0
LINE
  8
0
 10
-103.547
 20
-22.127
 11
-103.512
 21
-22.312
  0
LINE
  8
0
 10
-103.512
 20
-22.312
 11
-103.5
 21
-22.5
  0
LINE
  8
0
 10
-103.5
 20
-22.5
 11
-103.512
 21
-22.688
  0
LINE
  8
0
 10
-103.512
 20
-22.688
 11
-103.547
 21
-22.873
  0
LINE
  8
0
 10
-103.547
 20
-22.873
 11
-103.605
 21
-23.0522
  0
LINE
  8
0
 10
-103.605
 20
-23.0522
 11
-103.686
 21
-23.2226
  0
LINE
  8
0
 10
-103.686
 20
-23.2226
 11
-103.786
 21
-23.3817
  0
LINE
  8
0
 10
-103.786
 20
-23.3817
 11
-103.907
 21
-23.5268
  0
LINE
  8
0
 10
-103.907
 20
-23.5268
 11
-104.044
 21
-23.6558
  0
LINE
  8
0
 10
-104.044
 20
-23.6558
 11
-104.196
 21
-23.7665
  0
LINE
  8
0
 10
-104.196
 20
-23.7665
 11
-104.361
 21
-23.8572
  0
LINE
  8
0
 10
-104.361
 20
-23.8572
 11
-104.536
 21
-23.9266
  0
LINE
  8
0
 10
-104.536
 20
-23.9266
 11
-104.719
 21
-23.9734
  0
LINE
  8
0
 10
-104.719
 20
-23.9734
 11
-104.906
 21
-23.997
  0
LINE
  8
0
 10
-104.906
 20
-23.997
 11
-105.094
 21
-23.997
  0
LINE
  8
0
 10
104.812
 20
-32.9941
 11
104.438
 21
-32.9469
  0
LINE
  8
0
 10
104.438
 20
-32.9469
 11
104.073
 21
-32.8532
  0
LINE
  8
0
 10
104.073
 20
-32.8532
 11
103.723
 21
-32.7145
  0
LINE
  8
0
 10
103.723
 20
-32.7145
 11
103.393
 21
-32.533
  0
LINE
  8
0
 10
103.393
 20
-32.533
 11
103.088
 21
-32.3115
  0
LINE
  8
0
 10
103.088
 20
-32.3115
 11
102.813
 21
-32.0536
  0
LINE
  8
0
 10
102.813
 20
-32.0536
 11
102.573
 21
-31.7634
  0
LINE
  8
0
 10
102.573
 20
-31.7634
 11
102.371
 21
-31.4453
  0
LINE
  8
0
 10
102.371
 20
-31.4453
 11
102.211
 21
-31.1044
  0
LINE
  8
0
 10
102.211
 20
-31.1044
 11
102.094
 21
-30.7461
  0
LINE
  8
0
 10
102.094
 20
-30.7461
 11
102.024
 21
-30.376
  0
LINE
  8
0
 10
102.024
 20
-30.376
 11
102
 21
-30
  0
LINE
  8
0
 10
102
 20
-30
 11
102.024
 21
-29.624
  0
LINE
  8
0
 10
102.024
 20
-29.624
 11
102.094
 21
-29.2539
  0
LINE
  8
0
 10
102.094
 20
-29.2539
 11
102.211
 21
-28.8956
  0
LINE
  8
0
 10
102.211
 20
-28.8956
 11
102.371
 21
-28.5547
  0
LINE
  8
0
 10
102.371
 20
-28.5547
 11
102.573
 21
-28.2366
  0
LINE
  8
0
 10
102.573
 20
-28.2366
 11
102.813
 21
-27.9464
  0
LINE
  8
0
 10
102.813
 20
-27.9464
 11
103.088
 21
-27.6884
  0
LINE
  8
0
 10
103.088
 20
-27.6884
 11
103.393
 21
-27.467
  0
LINE
  8
0
 10
103.393
 20
-27.467
 11
103.723
 21
-27.2855
  0
LINE
  8
0
 10
103.723
 20
-27.2855
 11
104.073
 21
-27.1468
  0
LINE
  8
0
 10
104.073
 20
-27.1468
 11
104.438
 21
-27.0531
  0
LINE
  8
0
 10
104.438
 20
-27.0531
 11
104.812
 21
-27.0059
  0
LINE
  8
0
 10
104.812
 20
-27.0059
 11
105.188
 21
-27.0059
  0
LINE
  8
0
 10
105.188
 20
-27.0059
 11
105.562
 21
-27.0531
  0
LINE
  8
0
 10
105.562
 20
-27.0531
 11
105.927
 21
-27.1468
  0
LINE
  8
0
 10
105.927
 20
-27.1468
 11
106.277
 21
-27.2855
  0
LINE
  8
0
 10
106.277
 20
-27.2855
 11
106.607
 21
-27.467
  0
LINE
  8
0
 10
106.607
 20
-27.467
 11
106.912
 21
-27.6884
  0
LINE
  8
0
 10
106.912
 20
-27.6884
 11
107.187
 21
-27.9464
  0
LINE
  8
0
 10
107.187
 20
-27.9464
 11
107.427
 21
-28.2366
  0
LINE
  8
0
 10
107.427
 20
-28.2366
 11
107.629
 21
-28.5547
  0
LINE
  8
0
 10
107.629
 20
-28.5547
 11
107.789
 21
-28.8956
  0
LINE
  8
0
 10
107.789
 20
-28.8956
 11
107.906
 21
-29.2539
  0
LINE
  8
0
 10
107.906
 20
-29.2539
 11
107.976
 21
-29.624
  0
LINE
  8
0
 10
107.976
 20
-29.624
 11
108
 21
-30
  0
LINE
  8
0
 10
108
 20
-30
 11
107.976
 21
-30.376
  0
LINE
  8
0
 10
107.976
 20
-30.376
 11
107.906
 21
-30.7461
  0
LINE
  8
0
 10
107.906
 20
-30.7461
 11
107.789
 21
-31.1044
  0
LINE
  8
0
 10
107.789
 20
-31.1044
 11
107.629
 21
-31.4453
  0
LINE
  8
0
 10
107.629
 20
-31.4453
 11
107.427
 21
-31.7634
  0
LINE
  8
0
 10
107.427
 20
-31.7634
 11
107.187
 21
-32.0536
  0
LINE
  8
0
 10
107.187
 20
-32.0536
 11
106.912
 21
-32.3115
  0
LINE
  8
0
 10
106.912
 20
-32.3115
 11
106.607
 21
-32.533
  0
LINE
  8
0
 10
106.607
 20
-32.533
 11
106.277
 21
-32.7145
  0
LINE
  8
0
 10
106.277
 20
-32.7145
 11
105.927
 21
-32.8532
  0
LINE
  8
0
 10
105.927
 20
-32.8532
 11
105.562
 21
-32.9469
  0
LINE
  8
0
 10
105.562
 20
-32.9469
 11
105.188
 21
-32.9941
  0
LINE
  8
0
 10
105.188
 20
-32.9941
 11
104.812
 21
-32.9941
  0
LINE
  8
0
 10
-105.188
 20
-32.9941
 11
-105.562
 21
-32.9469
  0
LINE
  8
0
 10
-105.562
 20
-32.9469
 11
-105.927
 21
-32.8532
  0
LINE
  8
0
 10
-105.927
 20
-32.8532
 11
-106.277
 21
-32.7145
  0
LINE
  8
0
 10
-106.277
 20
-32.7145
 11
-106.607
 21
-32.533
  0
LINE
  8
0
 10
-106.607
 20
-32.533
 11
-106.912
 21
-32.3115
  0
LINE
  8
0
 10
-106.912
 20
-32.3115
 11
-107.187
 21
-32.0536
  0
LINE
  8
0
 10
-107.187
 20
-32.0536
 11
-107.427
 21
-31.7634
  0
LINE
  8
0
 10
-107.427
 20
-31.7634
 11
-107.629
 21
-31.4453
  0
LINE
  8
0
 10
-107.629
 20
-31.4453
 11
-107.789
 21
-31.1044
  0
LINE
  8
0
 10
-107.789
 20
-31.1044
 11
-107.906
 21
-30.7461
  0
LINE
  8
0
 10
-107.906
 20
-30.7461
 11
-107.976
 21
-30.376
  0
LINE
  8
0
 10
-107.976
 20
-30.376
 11
-108
 21
-30
  0
LINE
  8
0
 10
-108
 20
-30
 11
-107.976
 21
-29.624
  0
LINE
  8
0
 10
-107.976
 20
-29.624
 11
-107.906
 21
-29.2539
  0
LINE
  8
0
 10
-107.906
 20
-29.2539
 11
-107.789
 21
-28.8956
  0
LINE
  8
0
 10
-107.789
 20
-28.8956
 11
-107.629
 21
-28.5547
  0
LINE
  8
0
 10
-107.629
 20
-28.5547
 11
-107.427
 21
-28.2366
  0
LINE
  8
0
 10
-107.427
 20
-28.2366
 11
-107.187
 21
-27.9464
  0
LINE
  8
0
 10
-107.187
 20
-27.9464
 11
-106.912
 21
-27.6884
  0
LINE
  8
0
 10
-106.912
 20
-27.6884
 11
-106.607
 21
-27.467
  0
LINE
  8
0
 10
-106.607
 20
-27.467
 11
-106.277
 21
-27.2855
  0
LINE
  8
0
 10
-106.277
 20
-27.2855
 11
-105.927
 21
-27.1468
  0
LINE
  8
0
 10
-105.927
 20
-27.1468
 11
-105.562
 21
-27.0531
  0
LINE
  8
0
 10
-105.562
 20
-27.0531
 11
-105.188
 21
-27.0059
  0
LINE
  8
0
 10
-105.188
 20
-27.0059
 11
-104.812
 21
-27.0059
  0
LINE
  8
0
 10
-104.812
 20
-27.0059
 11
-104.438
 21
-27.0531
  0
LINE
  8
0
 10
-104.438
 20
-27.0531
 11
-104.073
 21
-27.1468
  0
LINE
  8
0
 10
-104.073
 20
-27.1468
 11
-103.723
 21
-27.2855
  0
LINE
  8
0
 10
-103.723
 20
-27.2855
 11
-103.393
 21
-27.467
  0
LINE
  8
0
 10
-103.393
 20
-27.467
 11
-103.088
 21
-27.6884
  0
LINE
  8
0
 10
-103.088
 20
-27.6884
 11
-102.813
 21
-27.9464
  0
LINE
  8
0
 10
-102.813
 20
-27.9464
 11
-102.573
 21
-28.2366
  0
LINE
  8
0
 10
-102.573
 20
-28.2366
 11
-102.371
 21
-28.5547
  0
LINE
  8
0
 10
-102.371
 20
-28.5547
 11
-102.211
 21
-28.8956
  0
LINE
  8
0
 10
-102.211
 20
-28.8956
 11
-102.094
 21
-29.2539
  0
LINE
  8
0
 10
-102.094
 20
-29.2539
 11
-102.024
 21
-29.624
  0
LINE
  8
0
 10
-102.024
 20
-29.624
 11
-102
 21
-30
  0
LINE
  8
0
 10
-102
 20
-30
 11
-102.024
 21
-30.376
  0
LINE
  8
0
 10
-102.024
 20
-30.376
 11
-102.094
 21
-30.7461
  0
LINE
  8
0
 10
-102.094
 20
-30.7461
 11
-102.211
 21
-31.1044
  0
LINE
  8
0
 10
-102.211
 20
-31.1044
 11
-102.371
 21
-31.4453
  0
LINE
  8
0
 10
-102.371
 20
-31.4453
 11
-102.573
 21
-31.7634
  0
LINE
  8
0
 10
-102.573
 20
-31.7634
 11
-102.813
 21
-32.0536
  0
LINE
  8
0
 10
-102.813
 20
-32.0536
 11
-103.088
 21
-32.3115
  0
LINE
  8
0
 10
-103.088
 20
-32.3115
 11
-103.393
 21
-32.533
  0
LINE
  8
0
 10
-103.393
 20
-32.533
 11
-103.723
 21
-32.7145
  0
LINE
  8
0
 10
-103.723
 20
-32.7145
 11
-104.073
 21
-32.8532
  0
LINE
  8
0
 10
-104.073
 20
-32.8532
 11
-104.438
 21
-32.9469
  0
LINE
  8
0
 10
-104.438
 20
-32.9469
 11
-104.812
 21
-32.9941
  0
LINE
  8
0
 10
-104.812
 20
-32.9941
 11
-105.188
 21
-32.9941
  0
LINE
  8
0
 10
-105.094
 20
-38.997
 11
-105.281
 21
-38.9734
  0
LINE
  8
0
 10
-105.281
 20
-38.9734
 11
-105.464
 21
-38.9266
  0
LINE
  8
0
 10
-105.464
 20
-38.9266
 11
-105.639
 21
-38.8572
  0
LINE
  8
0
 10
-105.639
 20
-38.8572
 11
-105.804
 21
-38.7665
  0
LINE
  8
0
 10
-105.804
 20
-38.7665
 11
-105.956
 21
-38.6558
  0
LINE
  8
0
 10
-105.956
 20
-38.6558
 11
-106.093
 21
-38.5268
  0
LINE
  8
0
 10
-106.093
 20
-38.5268
 11
-106.214
 21
-38.3817
  0
LINE
  8
0
 10
-106.214
 20
-38.3817
 11
-106.314
 21
-38.2226
  0
LINE
  8
0
 10
-106.314
 20
-38.2226
 11
-106.395
 21
-38.0522
  0
LINE
  8
0
 10
-106.395
 20
-38.0522
 11
-106.453
 21
-37.873
  0
LINE
  8
0
 10
-106.453
 20
-37.873
 11
-106.488
 21
-37.688
  0
LINE
  8
0
 10
-106.488
 20
-37.688
 11
-106.5
 21
-37.5
  0
LINE
  8
0
 10
-106.5
 20
-37.5
 11
-106.488
 21
-37.312
  0
LINE
  8
0
 10
-106.488
 20
-37.312
 11
-106.453
 21
-37.127
  0
LINE
  8
0
 10
-106.453
 20
-37.127
 11
-106.395
 21
-36.9478
  0
LINE
  8
0
 10
-106.395
 20
-36.9478
 11
-106.314
 21
-36.7774
  0
LINE
  8
0
 10
-106.314
 20
-36.7774
 11
-106.214
 21
-36.6183
  0
LINE
  8
0
 10
-106.214
 20
-36.6183
 11
-106.093
 21
-36.4732
  0
LINE
  8
0
 10
-106.093
 20
-36.4732
 11
-105.956
 21
-36.3442
  0
LINE
  8
0
 10
-105.956
 20
-36.3442
 11
-105.804
 21
-36.2335
  0
LINE
  8
0
 10
-105.804
 20
-36.2335
 11
-105.639
 21
-36.1428
  0
LINE
  8
0
 10
-105.639
 20
-36.1428
 11
-105.464
 21
-36.0734
  0
LINE
  8
0
 10
-105.464
 20
-36.0734
 11
-105.281
 21
-36.0266
  0
LINE
  8
0
 10
-105.281
 20
-36.0266
 11
-105.094
 21
-36.003
  0
LINE
  8
0
 10
-105.094
 20
-36.003
 11
-104.906
 21
-36.003
  0
LINE
  8
0
 10
-104.906
 20
-36.003
 11
-104.719
 21
-36.0266
  0
LINE
  8
0
 10
-104.719
 20
-36.0266
 11
-104.536
 21
-36.0734
  0
LINE
  8
0
 10
-104.536
 20
-36.0734
 11
-104.361
 21
-36.1428
  0
LINE
  8
0
 10
-104.361
 20
-36.1428
 11
-104.196
 21
-36.2335
  0
LINE
  8
0
 10
-104.196
 20
-36.2335
 11
-104.044
 21
-36.3442
  0
LINE
  8
0
 10
-104.044
 20
-36.3442
 11
-103.907
 21
-36.4732
  0
LINE
  8
0
 10
-103.907
 20
-36.4732
 11
-103.786
 21
-36.6183
  0
LINE
  8
0
 10
-103.786
 20
-36.6183
 11
-103.686
 21
-36.7774
  0
LINE
  8
0
 10
-103.686
 20
-36.7774
 11
-103.605
 21
-36.9478
  0
LINE
  8
0
 10
-103.605
 20
-36.9478
 11
-103.547
 21
-37.127
  0
LINE
  8
0
 10
-103.547
 20
-37.127
 11
-103.512
 21
-37.312
  0
LINE
  8
0
 10
-103.512
 20
-37.312
 11
-103.5
 21
-37.5
  0
LINE
  8
0
 10
-103.5
 20
-37.5
 11
-103.512
 21
-37.688
  0
LINE
  8
0
 10
-103.512
 20
-37.688
 11
-103.547
 21
-37.873
  0
LINE
  8
0
 10
-103.547
 20
-37.873
 11
-103.605
 21
-38.0522
  0
LINE
  8
0
 10
-103.605
 20
-38.0522
 11
-103.686
 21
-38.2226
  0
LINE
  8
0
 10
-103.686
 20
-38.2226
 11
-103.786
 21
-38.3817
  0
LINE
  8
0
 10
-103.786
 20
-38.3817
 11
-103.907
 21
-38.5268
  0
LINE
  8
0
 10
-103.907
 20
-38.5268
 11
-104.044
 21
-38.6558
  0
LINE
  8
0
 10
-104.044
 20
-38.6558
 11
-104.196
 21
-38.7665
  0
LINE
  8
0
 10
-104.196
 20
-38.7665
 11
-104.361
 21
-38.8572
  0
LINE
  8
0
 10
-104.361
 20
-38.8572
 11
-104.536
 21
-38.9266
  0
LINE
  8
0
 10
-104.536
 20
-38.9266
 11
-104.719
 21
-38.9734
  0
LINE
  8
0
 10
-104.719
 20
-38.9734
 11
-104.906
 21
-38.997
  0
LINE
  8
0
 10
-104.906
 20
-38.997
 11
-105.094
 21
-38.997
  0
LINE
  8
0
 10
104.906
 20
-38.997
 11
104.719
 21
-38.9734
  0
LINE
  8
0
 10
104.719
 20
-38.9734
 11
104.536
 21
-38.9266
  0
LINE
  8
0
 10
104.536
 20
-38.9266
 11
104.361
 21
-38.8572
  0
LINE
  8
0
 10
104.361
 20
-38.8572
 11
104.196
 21
-38.7665
  0
LINE
  8
0
 10
104.196
 20
-38.7665
 11
104.044
 21
-38.6558
  0
LINE
  8
0
 10
104.044
 20
-38.6558
 11
103.907
 21
-38.5268
  0
LINE
  8
0
 10
103.907
 20
-38.5268
 11
103.786
 21
-38.3817
  0
LINE
  8
0
 10
103.786
 20
-38.3817
 11
103.686
 21
-38.2226
  0
LINE
  8
0
 10
103.686
 20
-38.2226
 11
103.605
 21
-38.0522
  0
LINE
  8
0
 10
103.605
 20
-38.0522
 11
103.547
 21
-37.873
  0
LINE
  8
0
 10
103.547
 20
-37.873
 11
103.512
 21
-37.688
  0
LINE
  8
0
 10
103.512
 20
-37.688
 11
103.5
 21
-37.5
  0
LINE
  8
0
 10
103.5
 20
-37.5
 11
103.512
 21
-37.312
  0
LINE
  8
0
 10
103.512
 20
-37.312
 11
103.547
 21
-37.127
  0
LINE
  8
0
 10
103.547
 20
-37.127
 11
103.605
 21
-36.9478
  0
LINE
  8
0
 10
103.605
 20
-36.9478
 11
103.686
 21
-36.7774
  0
LINE
  8
0
 10
103.686
 20
-36.7774
 11
103.786
 21
-36.6183
  0
LINE
  8
0
 10
103.786
 20
-36.6183
 11
103.907
 21
-36.4732
  0
LINE
  8
0
 10
103.907
 20
-36.4732
 11
104.044
 21
-36.3442
  0
LINE
  8
0
 10
104.044
 20
-36.3442
 11
104.196
 21
-36.2335
  0
LINE
  8
0
 10
104.196
 20
-36.2335
 11
104.361
 21
-36.1428
  0
LINE
  8
0
 10
104.361
 20
-36.1428
 11
104.536
 21
-36.0734
  0
LINE
  8
0
 10
104.536
 20
-36.0734
 11
104.719
 21
-36.0266
  0
LINE
  8
0
 10
104.719
 20
-36.0266
 11
104.906
 21
-36.003
  0
LINE
  8
0
 10
104.906
 20
-36.003
 11
105.094
 21
-36.003
  0
LINE
  8
0
 10
105.094
 20
-36.003
 11
105.281
 21
-36.0266
  0
LINE
  8
0
 10
105.281
 20
-36.0266
 11
105.464
 21
-36.0734
  0
LINE
  8
0
 10
105.464
 20
-36.0734
 11
105.639
 21
-36.1428
  0
LINE
  8
0
 10
105.639
 20
-36.1428
 11
105.804
 21
-36.2335
  0
LINE
  8
0
 10
105.804
 20
-36.2335
 11
105.956
 21
-36.3442
  0
LINE
  8
0
 10
105.956
 20
-36.3442
 11
106.093
 21
-36.4732
  0
LINE
  8
0
 10
106.093
 20
-36.4732
 11
106.214
 21
-36.6183
  0
LINE
  8
0
 10
106.214
 20
-36.6183
 11
106.314
 21
-36.7774
  0
LINE
  8
0
 10
106.314
 20
-36.7774
 11
106.395
 21
-36.9478
  0
LINE
  8
0
 10
106.395
 20
-36.9478
 11
106.453
 21
-37.127
  0
LINE
  8
0
 10
106.453
 20
-37.127
 11
106.488
 21
-37.312
  0
LINE
  8
0
 10
106.488
 20
-37.312
 11
106.5
 21
-37.5
  0
LINE
  8
0
 10
106.5
 20
-37.5
 11
106.488
 21
-37.688
  0
LINE
  8
0
 10
106.488
 20
-37.688
 11
106.453
 21
-37.873
  0
LINE
  8
0
 10
106.453
 20
-37.873
 11
106.395
 21
-38.0522
  0
LINE
  8
0
 10
106.395
 20
-38.0522
 11
106.314
 21
-38.2226
  0
LINE
  8
0
 10
106.314
 20
-38.2226
 11
106.214
 21
-38.3817
  0
LINE
  8
0
 10
106.214
 20
-38.3817
 11
106.093
 21
-38.5268
  0
LINE
  8
0
 10
106.093
 20
-38.5268
 11
105.956
 21
-38.6558
  0
LINE
  8
0
 10
105.956
 20
-38.6558
 11
105.804
 21
-38.7665
  0
LINE
  8
0
 10
105.804
 20
-38.7665
 11
105.639
 21
-38.8572
  0
LINE
  8
0
 10
105.639
 20
-38.8572
 11
105.464
 21
-38.9266
  0
LINE
  8
0
 10
105.464
 20
-38.9266
 11
105.281
 21
-38.9734
  0
LINE
  8
0
 10
105.281
 20
-38.9734
 11
105.094
 21
-38.997
  0
LINE
  8
0
 10
105.094
 20
-38.997
 11
104.906
 21
-38.997
  0
LINE
  8
0
 10
102.094
 20
-44.2539
 11
102.211
 21
-43.8956
  0
LINE
  8
0
 10
102.211
 20
-43.8956
 11
102.371
 21
-43.5547
  0
LINE
  8
0
 10
102.371
 20
-43.5547
 11
102.573
 21
-43.2366
  0
LINE
  8
0
 10
102.573
 20
-43.2366
 11
102.813
 21
-42.9464
  0
LINE
  8
0
 10
102.813
 20
-42.9464
 11
103.088
 21
-42.6885
  0
LINE
  8
0
 10
103.088
 20
-42.6885
 11
103.393
 21
-42.467
  0
LINE
  8
0
 10
103.393
 20
-42.467
 11
103.723
 21
-42.2855
  0
LINE
  8
0
 10
103.723
 20
-42.2855
 11
104.073
 21
-42.1468
  0
LINE
  8
0
 10
104.073
 20
-42.1468
 11
104.438
 21
-42.0531
  0
LINE
  8
0
 10
104.438
 20
-42.0531
 11
104.812
 21
-42.0059
  0
LINE
  8
0
 10
104.812
 20
-42.0059
 11
105.188
 21
-42.0059
  0
LINE
  8
0
 10
105.188
 20
-42.0059
 11
105.562
 21
-42.0531
  0
LINE
  8
0
 10
105.562
 20
-42.0531
 11
105.927
 21
-42.1468
  0
LINE
  8
0
 10
105.927
 20
-42.1468
 11
106.277
 21
-42.2855
  0
LINE
  8
0
 10
106.277
 20
-42.2855
 11
106.607
 21
-42.467
  0
LINE
  8
0
 10
106.607
 20
-42.467
 11
106.912
 21
-42.6885
  0
LINE
  8
0
 10
106.912
 20
-42.6885
 11
107.187
 21
-42.9464
  0
LINE
  8
0
 10
107.187
 20
-42.9464
 11
107.427
 21
-43.2366
  0
LINE
  8
0
 10
107.427
 20
-43.2366
 11
107.629
 21
-43.5547
  0
LINE
  8
0
 10
107.629
 20
-43.5547
 11
107.789
 21
-43.8956
  0
LINE
  8
0
 10
107.789
 20
-43.8956
 11
107.906
 21
-44.2539
  0
LINE
  8
0
 10
107.906
 20
-44.2539
 11
107.976
 21
-44.624
  0
LINE
  8
0
 10
107.976
 20
-44.624
 11
108
 21
-45
  0
LINE
  8
0
 10
108
 20
-45
 11
107.976
 21
-45.376
  0
LINE
  8
0
 10
107.976
 20
-45.376
 11
107.906
 21
-45.7461
  0
LINE
  8
0
 10
107.906
 20
-45.7461
 11
107.789
 21
-46.1044
  0
LINE
  8
0
 10
107.789
 20
-46.1044
 11
107.629
 21
-46.4453
  0
LINE
  8
0
 10
107.629
 20
-46.4453
 11
107.427
 21
-46.7634
  0
LINE
  8
0
 10
107.427
 20
-46.7634
 11
107.187
 21
-47.0536
  0
LINE
  8
0
 10
107.187
 20
-47.0536
 11
106.912
 21
-47.3115
  0
LINE
  8
0
 10
106.912
 20
-47.3115
 11
106.607
 21
-47.533
  0
LINE
  8
0
 10
106.607
 20
-47.533
 11
106.277
 21
-47.7145
  0
LINE
  8
0
 10
106.277
 20
-47.7145
 11
105.927
 21
-47.8532
  0
LINE
  8
0
 10
105.927
 20
-47.8532
 11
105.562
 21
-47.9469
  0
LINE
  8
0
 10
105.562
 20
-47.9469
 11
105.188
 21
-47.9941
  0
LINE
  8
0
 10
105.188
 20
-47.9941
 11
104.812
 21
-47.9941
  0
LINE
  8
0
 10
104.812
 20
-47.9941
 11
104.438
 21
-47.9469
  0
LINE
  8
0
 10
104.438
 20
-47.9469
 11
104.073
 21
-47.8532
  0
LINE
  8
0
 10
104.073
 20
-47.8532
 11
103.723
 21
-47.7145
  0
LINE
  8
0
 10
103.723
 20
-47.7145
 11
103.393
 21
-47.533
  0
LINE
  8
0
 10
103.393
 20
-47.533
 11
103.088
 21
-47.3115
  0
LINE
  8
0
 10
103.088
 20
-47.3115
 11
102.813
 21
-47.0536
  0
LINE
  8
0
 10
102.813
 20
-47.0536
 11
102.573
 21
-46.7634
  0
LINE
  8
0
 10
102.573
 20
-46.7634
 11
102.371
 21
-46.4453
  0
LINE
  8
0
 10
102.371
 20
-46.4453
 11
102.211
 21
-46.1044
  0
LINE
  8
0
 10
102.211
 20
-46.1044
 11
102.094
 21
-45.7461
  0
LINE
  8
0
 10
102.094
 20
-45.7461
 11
102.024
 21
-45.376
  0
LINE
  8
0
 10
102.024
 20
-45.376
 11
102
 21
-45
  0
LINE
  8
0
 10
102
 20
-45
 11
102.024
 21
-44.624
  0
LINE
  8
0
 10
102.024
 20
-44.624
 11
102.094
 21
-44.2539
  0
LINE
  8
0
 10
-105.094
 20
-53.997
 11
-105.281
 21
-53.9734
  0
LINE
  8
0
 10
-105.281
 20
-53.9734
 11
-105.464
 21
-53.9266
  0
LINE
  8
0
 10
-105.464
 20
-53.9266
 11
-105.639
 21
-53.8572
  0
LINE
  8
0
 10
-105.639
 20
-53.8572
 11
-105.804
 21
-53.7665
  0
LINE
  8
0
 10
-105.804
 20
-53.7665
 11
-105.956
 21
-53.6558
  0
LINE
  8
0
 10
-105.956
 20
-53.6558
 11
-106.093
 21
-53.5268
  0
LINE
  8
0
 10
-106.093
 20
-53.5268
 11
-106.214
 21
-53.3817
  0
LINE
  8
0
 10
-106.214
 20
-53.3817
 11
-106.314
 21
-53.2226
  0
LINE
  8
0
 10
-106.314
 20
-53.2226
 11
-106.395
 21
-53.0522
  0
LINE
  8
0
 10
-106.395
 20
-53.0522
 11
-106.453
 21
-52.873
  0
LINE
  8
0
 10
-106.453
 20
-52.873
 11
-106.488
 21
-52.688
  0
LINE
  8
0
 10
-106.488
 20
-52.688
 11
-106.5
 21
-52.5
  0
LINE
  8
0
 10
-106.5
 20
-52.5
 11
-106.488
 21
-52.312
  0
LINE
  8
0
 10
-106.488
 20
-52.312
 11
-106.453
 21
-52.127
  0
LINE
  8
0
 10
-106.453
 20
-52.127
 11
-106.395
 21
-51.9478
  0
LINE
  8
0
 10
-106.395
 20
-51.9478
 11
-106.314
 21
-51.7774
  0
LINE
  8
0
 10
-106.314
 20
-51.7774
 11
-106.214
 21
-51.6183
  0
LINE
  8
0
 10
-106.214
 20
-51.6183
 11
-106.093
 21
-51.4732
  0
LINE
  8
0
 10
-106.093
 20
-51.4732
 11
-105.956
 21
-51.3442
  0
LINE
  8
0
 10
-105.956
 20
-51.3442
 11
-105.804
 21
-51.2335
  0
LINE
  8
0
 10
-105.804
 20
-51.2335
 11
-105.639
 21
-51.1428
  0
LINE
  8
0
 10
-105.639
 20
-51.1428
 11
-105.464
 21
-51.0734
  0
LINE
  8
0
 10
-105.464
 20
-51.0734
 11
-105.281
 21
-51.0266
  0
LINE
  8
0
 10
-105.281
 20
-51.0266
 11
-105.094
 21
-51.003
  0
LINE
  8
0
 10
-105.094
 20
-51.003
 11
-104.906
 21
-51.003
  0
LINE
  8
0
 10
-104.906
 20
-51.003
 11
-104.719
 21
-51.0266
  0
LINE
  8
0
 10
-104.719
 20
-51.0266
 11
-104.536
 21
-51.0734
  0
LINE
  8
0
 10
-104.536
 20
-51.0734
 11
-104.361
 21
-51.1428
  0
LINE
  8
0
 10
-104.361
 20
-51.1428
 11
-104.196
 21
-51.2335
  0
LINE
  8
0
 10
-104.196
 20
-51.2335
 11
-104.044
 21
-51.3442
  0
LINE
  8
0
 10
-104.044
 20
-51.3442
 11
-103.907
 21
-51.4732
  0
LINE
  8
0
 10
-103.907
 20
-51.4732
 11
-103.786
 21
-51.6183
  0
LINE
  8
0
 10
-103.786
 20
-51.6183
 11
-103.686
 21
-51.7774
  0
LINE
  8
0
 10
-103.686
 20
-51.7774
 11
-103.605
 21
-51.9478
  0
LINE
  8
0
 10
-103.605
 20
-51.9478
 11
-103.547
 21
-52.127
  0
LINE
  8
0
 10
-103.547
 20
-52.127
 11
-103.512
 21
-52.312
  0
LINE
  8
0
 10
-103.512
 20
-52.312
 11
-103.5
 21
-52.5
  0
LINE
  8
0
 10
-103.5
 20
-52.5
 11
-103.512
 21
-52.688
  0
LINE
  8
0
 10
-103.512
 20
-52.688
 11
-103.547
 21
-52.873
  0
LINE
  8
0
 10
-103.547
 20
-52.873
 11
-103.605
 21
-53.0522
  0
LINE
  8
0
 10
-103.605
 20
-53.0522
 11
-103.686
 21
-53.2226
  0
LINE
  8
0
 10
-103.686
 20
-53.2226
 11
-103.786
 21
-53.3817
  0
LINE
  8
0
 10
-103.786
 20
-53.3817
 11
-103.907
 21
-53.5268
  0
LINE
  8
0
 10
-103.907
 20
-53.5268
 11
-104.044
 21
-53.6558
  0
LINE
  8
0
 10
-104.044
 20
-53.6558
 11
-104.196
 21
-53.7665
  0
LINE
  8
0
 10
-104.196
 20
-53.7665
 11
-104.361
 21
-53.8572
  0
LINE
  8
0
 10
-104.361
 20
-53.8572
 11
-104.536
 21
-53.9266
  0
LINE
  8
0
 10
-104.536
 20
-53.9266
 11
-104.719
 21
-53.9734
  0
LINE
  8
0
 10
-104.719
 20
-53.9734
 11
-104.906
 21
-53.997
  0
LINE
  8
0
 10
-104.906
 20
-53.997
 11
-105.094
 21
-53.997
  0
LINE
  8
0
 10
104.906
 20
-53.997
 11
104.719
 21
-53.9734
  0
LINE
  8
0
 10
104.719
 20
-53.9734
 11
104.536
 21
-53.9266
  0
LINE
  8
0
 10
104.536
 20
-53.9266
 11
104.361
 21
-53.8572
  0
LINE
  8
0
 10
104.361
 20
-53.8572
 11
104.196
 21
-53.7665
  0
LINE
  8
0
 10
104.196
 20
-53.7665
 11
104.044
 21
-53.6558
  0
LINE
  8
0
 10
104.044
 20
-53.6558
 11
103.907
 21
-53.5268
  0
LINE
  8
0
 10
103.907
 20
-53.5268
 11
103.786
 21
-53.3817
  0
LINE
  8
0
 10
103.786
 20
-53.3817
 11
103.686
 21
-53.2226
  0
LINE
  8
0
 10
103.686
 20
-53.2226
 11
103.605
 21
-53.0522
  0
LINE
  8
0
 10
103.605
 20
-53.0522
 11
103.547
 21
-52.873
  0
LINE
  8
0
 10
103.547
 20
-52.873
 11
103.512
 21
-52.688
  0
LINE
  8
0
 10
103.512
 20
-52.688
 11
103.5
 21
-52.5
  0
LINE
  8
0
 10
103.5
 20
-52.5
 11
103.512
 21
-52.312
  0
LINE
  8
0
 10
103.512
 20
-52.312
 11
103.547
 21
-52.127
  0
LINE
  8
0
 10
103.547
 20
-52.127
 11
103.605
 21
-51.9478
  0
LINE
  8
0
 10
103.605
 20
-51.9478
 11
103.686
 21
-51.7774
  0
LINE
  8
0
 10
103.686
 20
-51.7774
 11
103.786
 21
-51.6183
  0
LINE
  8
0
 10
103.786
 20
-51.6183
 11
103.907
 21
-51.4732
  0
LINE
  8
0
 10
103.907
 20
-51.4732
 11
104.044
 21
-51.3442
  0
LINE
  8
0
 10
104.044
 20
-51.3442
 11
104.196
 21
-51.2335
  0
LINE
  8
0
 10
104.196
 20
-51.2335
 11
104.361
 21
-51.1428
  0
LINE
  8
0
 10
104.361
 20
-51.1428
 11
104.536
 21
-51.0734
  0
LINE
  8
0
 10
104.536
 20
-51.0734
 11
104.719
 21
-51.0266
  0
LINE
  8
0
 10
104.719
 20
-51.0266
 11
104.906
 21
-51.003
  0
LINE
  8
0
 10
104.906
 20
-51.003
 11
105.094
 21
-51.003
  0
LINE
  8
0
 10
105.094
 20
-51.003
 11
105.281
 21
-51.0266
  0
LINE
  8
0
 10
105.281
 20
-51.0266
 11
105.464
 21
-51.0734
  0
LINE
  8
0
 10
105.464
 20
-51.0734
 11
105.639
 21
-51.1428
  0
LINE
  8
0
 10
105.639
 20
-51.1428
 11
105.804
 21
-51.2335
  0
LINE
  8
0
 10
105.804
 20
-51.2335
 11
105.956
 21
-51.3442
  0
LINE
  8
0
 10
105.956
 20
-51.3442
 11
106.093
 21
-51.4732
  0
LINE
  8
0
 10
106.093
 20
-51.4732
 11
106.214
 21
-51.6183
  0
LINE
  8
0
 10
106.214
 20
-51.6183
 11
106.314
 21
-51.7774
  0
LINE
  8
0
 10
106.314
 20
-51.7774
 11
106.395
 21
-51.9478
  0
LINE
  8
0
 10
106.395
 20
-51.9478
 11
106.453
 21
-52.127
  0
LINE
  8
0
 10
106.453
 20
-52.127
 11
106.488
 21
-52.312
  0
LINE
  8
0
 10
106.488
 20
-52.312
 11
106.5
 21
-52.5
  0
LINE
  8
0
 10
106.5
 20
-52.5
 11
106.488
 21
-52.688
  0
LINE
  8
0
 10
106.488
 20
-52.688
 11
106.453
 21
-52.873
  0
LINE
  8
0
 10
106.453
 20
-52.873
 11
106.395
 21
-53.0522
  0
LINE
  8
0
 10
106.395
 20
-53.0522
 11
106.314
 21
-53.2226
  0
LINE
  8
0
 10
106.314
 20
-53.2226
 11
106.214
 21
-53.3817
  0
LINE
  8
0
 10
106.214
 20
-53.3817
 11
106.093
 21
-53.5268
  0
LINE
  8
0
 10
106.093
 20
-53.5268
 11
105.956
 21
-53.6558
  0
LINE
  8
0
 10
105.956
 20
-53.6558
 11
105.804
 21
-53.7665
  0
LINE
  8
0
 10
105.804
 20
-53.7665
 11
105.639
 21
-53.8572
  0
LINE
  8
0
 10
105.639
 20
-53.8572
 11
105.464
 21
-53.9266
  0
LINE
  8
0
 10
105.464
 20
-53.9266
 11
105.281
 21
-53.9734
  0
LINE
  8
0
 10
105.281
 20
-53.9734
 11
105.094
 21
-53.997
  0
LINE
  8
0
 10
105.094
 20
-53.997
 11
104.906
 21
-53.997
  0
LINE
  8
0
 10
-105.188
 20
-62.9941
 11
-105.562
 21
-62.9469
  0
LINE
  8
0
 10
-105.562
 20
-62.9469
 11
-105.927
 21
-62.8532
  0
LINE
  8
0
 10
-105.927
 20
-62.8532
 11
-106.277
 21
-62.7145
  0
LINE
  8
0
 10
-106.277
 20
-62.7145
 11
-106.607
 21
-62.533
  0
LINE
  8
0
 10
-106.607
 20
-62.533
 11
-106.912
 21
-62.3115
  0
LINE
  8
0
 10
-106.912
 20
-62.3115
 11
-107.187
 21
-62.0536
  0
LINE
  8
0
 10
-107.187
 20
-62.0536
 11
-107.427
 21
-61.7634
  0
LINE
  8
0
 10
-107.427
 20
-61.7634
 11
-107.629
 21
-61.4453
  0
LINE
  8
0
 10
-107.629
 20
-61.4453
 11
-107.789
 21
-61.1044
  0
LINE
  8
0
 10
-107.789
 20
-61.1044
 11
-107.906
 21
-60.7461
  0
LINE
  8
0
 10
-107.906
 20
-60.7461
 11
-107.976
 21
-60.376
  0
LINE
  8
0
 10
-107.976
 20
-60.376
 11
-108
 21
-60
  0
LINE
  8
0
 10
-108
 20
-60
 11
-107.976
 21
-59.624
  0
LINE
  8
0
 10
-107.976
 20
-59.624
 11
-107.906
 21
-59.2539
  0
LINE
  8
0
 10
-107.906
 20
-59.2539
 11
-107.789
 21
-58.8956
  0
LINE
  8
0
 10
-107.789
 20
-58.8956
 11
-107.629
 21
-58.5547
  0
LINE
  8
0
 10
-107.629
 20
-58.5547
 11
-107.427
 21
-58.2366
  0
LINE
  8
0
 10
-107.427
 20
-58.2366
 11
-107.187
 21
-57.9464
  0
LINE
  8
0
 10
-107.187
 20
-57.9464
 11
-106.912
 21
-57.6885
  0
LINE
  8
0
 10
-106.912
 20
-57.6885
 11
-106.607
 21
-57.467
  0
LINE
  8
0
 10
-106.607
 20
-57.467
 11
-106.277
 21
-57.2855
  0
LINE
  8
0
 10
-106.277
 20
-57.2855
 11
-105.927
 21
-57.1468
  0
LINE
  8
0
 10
-105.927
 20
-57.1468
 11
-105.562
 21
-57.0531
  0
LINE
  8
0
 10
-105.562
 20
-57.0531
 11
-105.188
 21
-57.0059
  0
LINE
  8
0
 10
-105.188
 20
-57.0059
 11
-104.812
 21
-57.0059
  0
LINE
  8
0
 10
-104.812
 20
-57.0059
 11
-104.438
 21
-57.0531
  0
LINE
  8
0
 10
-104.438
 20
-57.0531
 11
-104.073
 21
-57.1468
  0
LINE
  8
0
 10
-104.073
 20
-57.1468
 11
-103.723
 21
-57.2855
  0
LINE
  8
0
 10
-103.723
 20
-57.2855
 11
-103.393
 21
-57.467
  0
LINE
  8
0
 10
-103.393
 20
-57.467
 11
-103.088
 21
-57.6885
  0
LINE
  8
0
 10
-103.088
 20
-57.6885
 11
-102.813
 21
-57.9464
  0
LINE
  8
0
 10
-102.813
 20
-57.9464
 11
-102.573
 21
-58.2366
  0
LINE
  8
0
 10
-102.573
 20
-58.2366
 11
-102.371
 21
-58.5547
  0
LINE
  8
0
 10
-102.371
 20
-58.5547
 11
-102.211
 21
-58.8956
  0
LINE
  8
0
 10
-102.211
 20
-58.8956
 11
-102.094
 21
-59.2539
  0
LINE
  8
0
 10
-102.094
 20
-59.2539
 11
-102.024
 21
-59.624
  0
LINE
  8
0
 10
-102.024
 20
-59.624
 11
-102
 21
-60
  0
LINE
  8
0
 10
-102
 20
-60
 11
-102.024
 21
-60.376
  0
LINE
  8
0
 10
-102.024
 20
-60.376
 11
-102.094
 21
-60.7461
  0
LINE
  8
0
 10
-102.094
 20
-60.7461
 11
-102.211
 21
-61.1044
  0
LINE
  8
0
 10
-102.211
 20
-61.1044
 11
-102.371
 21
-61.4453
  0
LINE
  8
0
 10
-102.371
 20
-61.4453
 11
-102.573
 21
-61.7634
  0
LINE
  8
0
 10
-102.573
 20
-61.7634
 11
-102.813
 21
-62.0536
  0
LINE
  8
0
 10
-102.813
 20
-62.0536
 11
-103.088
 21
-62.3115
  0
LINE
  8
0
 10
-103.088
 20
-62.3115
 11
-103.393
 21
-62.533
  0
LINE
  8
0
 10
-103.393
 20
-62.533
 11
-103.723
 21
-62.7145
  0
LINE
  8
0
 10
-103.723
 20
-62.7145
 11
-104.073
 21
-62.8532
  0
LINE
  8
0
 10
-104.073
 20
-62.8532
 11
-104.438
 21
-62.9469
  0
LINE
  8
0
 10
-104.438
 20
-62.9469
 11
-104.812
 21
-62.9941
  0
LINE
  8
0
 10
-104.812
 20
-62.9941
 11
-105.188
 21
-62.9941
  0
LINE
  8
0
 10
104.812
 20
-62.9941
 11
104.438
 21
-62.9469
  0
LINE
  8
0
 10
104.438
 20
-62.9469
 11
104.073
 21
-62.8532
  0
LINE
  8
0
 10
104.073
 20
-62.8532
 11
103.723
 21
-62.7145
  0
LINE
  8
0
 10
103.723
 20
-62.7145
 11
103.393
 21
-62.533
  0
LINE
  8
0
 10
103.393
 20
-62.533
 11
103.088
 21
-62.3115
  0
LINE
  8
0
 10
103.088
 20
-62.3115
 11
102.813
 21
-62.0536
  0
LINE
  8
0
 10
102.813
 20
-62.0536
 11
102.573
 21
-61.7634
  0
LINE
  8
0
 10
102.573
 20
-61.7634
 11
102.371
 21
-61.4453
  0
LINE
  8
0
 10
102.371
 20
-61.4453
 11
102.211
 21
-61.1044
  0
LINE
  8
0
 10
102.211
 20
-61.1044
 11
102.094
 21
-60.7461
  0
LINE
  8
0
 10
102.094
 20
-60.7461
 11
102.024
 21
-60.376
  0
LINE
  8
0
 10
102.024
 20
-60.376
 11
102
 21
-60
  0
LINE
  8
0
 10
102
 20
-60
 11
102.024
 21
-59.624
  0
LINE
  8
0
 10
102.024
 20
-59.624
 11
102.094
 21
-59.2539
  0
LINE
  8
0
 10
102.094
 20
-59.2539
 11
102.211
 21
-58.8956
  0
LINE
  8
0
 10
102.211
 20
-58.8956
 11
102.371
 21
-58.5547
  0
LINE
  8
0
 10
102.371
 20
-58.5547
 11
102.573
 21
-58.2366
  0
LINE
  8
0
 10
102.573
 20
-58.2366
 11
102.813
 21
-57.9464
  0
LINE
  8
0
 10
102.813
 20
-57.9464
 11
103.088
 21
-57.6885
  0
LINE
  8
0
 10
103.088
 20
-57.6885
 11
103.393
 21
-57.467
  0
LINE
  8
0
 10
103.393
 20
-57.467
 11
103.723
 21
-57.2855
  0
LINE
  8
0
 10
103.723
 20
-57.2855
 11
104.073
 21
-57.1468
  0
LINE
  8
0
 10
104.073
 20
-57.1468
 11
104.438
 21
-57.0531
  0
LINE
  8
0
 10
104.438
 20
-57.0531
 11
104.812
 21
-57.0059
  0
LINE
  8
0
 10
104.812
 20
-57.0059
 11
105.188
 21
-57.0059
  0
LINE
  8
0
 10
105.188
 20
-57.0059
 11
105.562
 21
-57.0531
  0
LINE
  8
0
 10
105.562
 20
-57.0531
 11
105.927
 21
-57.1468
  0
LINE
  8
0
 10
105.927
 20
-57.1468
 11
106.277
 21
-57.2855
  0
LINE
  8
0
 10
106.277
 20
-57.2855
 11
106.607
 21
-57.467
  0
LINE
  8
0
 10
106.607
 20
-57.467
 11
106.912
 21
-57.6885
  0
LINE
  8
0
 10
106.912
 20
-57.6885
 11
107.187
 21
-57.9464
  0
LINE
  8
0
 10
107.187
 20
-57.9464
 11
107.427
 21
-58.2366
  0
LINE
  8
0
 10
107.427
 20
-58.2366
 11
107.629
 21
-58.5547
  0
LINE
  8
0
 10
107.629
 20
-58.5547
 11
107.789
 21
-58.8956
  0
LINE
  8
0
 10
107.789
 20
-58.8956
 11
107.906
 21
-59.2539
  0
LINE
  8
0
 10
107.906
 20
-59.2539
 11
107.976
 21
-59.624
  0
LINE
  8
0
 10
107.976
 20
-59.624
 11
108
 21
-60
  0
LINE
  8
0
 10
108
 20
-60
 11
107.976
 21
-60.376
  0
LINE
  8
0
 10
107.976
 20
-60.376
 11
107.906
 21
-60.7461
  0
LINE
  8
0
 10
107.906
 20
-60.7461
 11
107.789
 21
-61.1044
  0
LINE
  8
0
 10
107.789
 20
-61.1044
 11
107.629
 21
-61.4453
  0
LINE
  8
0
 10
107.629
 20
-61.4453
 11
107.427
 21
-61.7634
  0
LINE
  8
0
 10
107.427
 20
-61.7634
 11
107.187
 21
-62.0536
  0
LINE
  8
0
 10
107.187
 20
-62.0536
 11
106.912
 21
-62.3115
  0
LINE
  8
0
 10
106.912
 20
-62.3115
 11
106.607
 21
-62.533
  0
LINE
  8
0
 10
106.607
 20
-62.533
 11
106.277
 21
-62.7145
  0
LINE
  8
0
 10
106.277
 20
-62.7145
 11
105.927
 21
-62.8532
  0
LINE
  8
0
 10
105.927
 20
-62.8532
 11
105.562
 21
-62.9469
  0
LINE
  8
0
 10
105.562
 20
-62.9469
 11
105.188
 21
-62.9941
  0
LINE
  8
0
 10
105.188
 20
-62.9941
 11
104.812
 21
-62.9941
  0
LINE
  8
0
 10
104.906
 20
-68.997
 11
104.719
 21
-68.9734
  0
LINE
  8
0
 10
104.719
 20
-68.9734
 11
104.536
 21
-68.9266
  0
LINE
  8
0
 10
104.536
 20
-68.9266
 11
104.361
 21
-68.8572
  0
LINE
  8
0
 10
104.361
 20
-68.8572
 11
104.196
 21
-68.7665
  0
LINE
  8
0
 10
104.196
 20
-68.7665
 11
104.044
 21
-68.6558
  0
LINE
  8
0
 10
104.044
 20
-68.6558
 11
103.907
 21
-68.5268
  0
LINE
  8
0
 10
103.907
 20
-68.5268
 11
103.786
 21
-68.3817
  0
LINE
  8
0
 10
103.786
 20
-68.3817
 11
103.686
 21
-68.2226
  0
LINE
  8
0
 10
103.686
 20
-68.2226
 11
103.605
 21
-68.0522
  0
LINE
  8
0
 10
103.605
 20
-68.0522
 11
103.547
 21
-67.873
  0
LINE
  8
0
 10
103.547
 20
-67.873
 11
103.512
 21
-67.688
  0
LINE
  8
0
 10
103.512
 20
-67.688
 11
103.5
 21
-67.5
  0
LINE
  8
0
 10
103.5
 20
-67.5
 11
103.512
 21
-67.312
  0
LINE
  8
0
 10
103.512
 20
-67.312
 11
103.547
 21
-67.127
  0
LINE
  8
0
 10
103.547
 20
-67.127
 11
103.605
 21
-66.9478
  0
LINE
  8
0
 10
103.605
 20
-66.9478
 11
103.686
 21
-66.7774
  0
LINE
  8
0
 10
103.686
 20
-66.7774
 11
103.786
 21
-66.6183
  0
LINE
  8
0
 10
103.786
 20
-66.6183
 11
103.907
 21
-66.4732
  0
LINE
  8
0
 10
103.907
 20
-66.4732
 11
104.044
 21
-66.3442
  0
LINE
  8
0
 10
104.044
 20
-66.3442
 11
104.196
 21
-66.2335
  0
LINE
  8
0
 10
104.196
 20
-66.2335
 11
104.361
 21
-66.1428
  0
LINE
  8
0
 10
104.361
 20
-66.1428
 11
104.536
 21
-66.0734
  0
LINE
  8
0
 10
104.536
 20
-66.0734
 11
104.719
 21
-66.0266
  0
LINE
  8
0
 10
104.719
 20
-66.0266
 11
104.906
 21
-66.003
  0
LINE
  8
0
 10
104.906
 20
-66.003
 11
105.094
 21
-66.003
  0
LINE
  8
0
 10
105.094
 20
-66.003
 11
105.281
 21
-66.0266
  0
LINE
  8
0
 10
105.281
 20
-66.0266
 11
105.464
 21
-66.0734
  0
LINE
  8
0
 10
105.464
 20
-66.0734
 11
105.639
 21
-66.1428
  0
LINE
  8
0
 10
105.639
 20
-66.1428
 11
105.804
 21
-66.2335
  0
LINE
  8
0
 10
105.804
 20
-66.2335
 11
105.956
 21
-66.3442
  0
LINE
  8
0
 10
105.956
 20
-66.3442
 11
106.093
 21
-66.4732
  0
LINE
  8
0
 10
106.093
 20
-66.4732
 11
106.214
 21
-66.6183
  0
LINE
  8
0
 10
106.214
 20
-66.6183
 11
106.314
 21
-66.7774
  0
LINE
  8
0
 10
106.314
 20
-66.7774
 11
106.395
 21
-66.9478
  0
LINE
  8
0
 10
106.395
 20
-66.9478
 11
106.453
 21
-67.127
  0
LINE
  8
0
 10
106.453
 20
-67.127
 11
106.488
 21
-67.312
  0
LINE
  8
0
 10
106.488
 20
-67.312
 11
106.5
 21
-67.5
  0
LINE
  8
0
 10
106.5
 20
-67.5
 11
106.488
 21
-67.688
  0
LINE
  8
0
 10
106.488
 20
-67.688
 11
106.453
 21
-67.873
  0
LINE
  8
0
 10
106.453
 20
-67.873
 11
106.395
 21
-68.0522
  0
LINE
  8
0
 10
106.395
 20
-68.0522
 11
106.314
 21
-68.2226
  0
LINE
  8
0
 10
106.314
 20
-68.2226
 11
106.214
 21
-68.3817
  0
LINE
  8
0
 10
106.214
 20
-68.3817
 11
106.093
 21
-68.5268
  0
LINE
  8
0
 10
106.093
 20
-68.5268
 11
105.956
 21
-68.6558
  0
LINE
  8
0
 10
105.956
 20
-68.6558
 11
105.804
 21
-68.7665
  0
LINE
  8
0
 10
105.804
 20
-68.7665
 11
105.639
 21
-68.8572
  0
LINE
  8
0
 10
105.639
 20
-68.8572
 11
105.464
 21
-68.9266
  0
LINE
  8
0
 10
105.464
 20
-68.9266
 11
105.281
 21
-68.9734
  0
LINE
  8
0
 10
105.281
 20
-68.9734
 11
105.094
 21
-68.997
  0
LINE
  8
0
 10
105.094
 20
-68.997
 11
104.906
 21
-68.997
  0
LINE
  8
0
 10
-105.094
 20
-68.997
 11
-105.281
 21
-68.9734
  0
LINE
  8
0
 10
-105.281
 20
-68.9734
 11
-105.464
 21
-68.9266
  0
LINE
  8
0
 10
-105.464
 20
-68.9266
 11
-105.639
 21
-68.8572
  0
LINE
  8
0
 10
-105.639
 20
-68.8572
 11
-105.804
 21
-68.7665
  0
LINE
  8
0
 10
-105.804
 20
-68.7665
 11
-105.956
 21
-68.6558
  0
LINE
  8
0
 10
-105.956
 20
-68.6558
 11
-106.093
 21
-68.5268
  0
LINE
  8
0
 10
-106.093
 20
-68.5268
 11
-106.214
 21
-68.3817
  0
LINE
  8
0
 10
-106.214
 20
-68.3817
 11
-106.314
 21
-68.2226
  0
LINE
  8
0
 10
-106.314
 20
-68.2226
 11
-106.395
 21
-68.0522
  0
LINE
  8
0
 10
-106.395
 20
-68.0522
 11
-106.453
 21
-67.873
  0
LINE
  8
0
 10
-106.453
 20
-67.873
 11
-106.488
 21
-67.688
  0
LINE
  8
0
 10
-106.488
 20
-67.688
 11
-106.5
 21
-67.5
  0
LINE
  8
0
 10
-106.5
 20
-67.5
 11
-106.488
 21
-67.312
  0
LINE
  8
0
 10
-106.488
 20
-67.312
 11
-106.453
 21
-67.127
  0
LINE
  8
0
 10
-106.453
 20
-67.127
 11
-106.395
 21
-66.9478
  0
LINE
  8
0
 10
-106.395
 20
-66.9478
 11
-106.314
 21
-66.7774
  0
LINE
  8
0
 10
-106.314
 20
-66.7774
 11
-106.214
 21
-66.6183
  0
LINE
  8
0
 10
-106.214
 20
-66.6183
 11
-106.093
 21
-66.4732
  0
LINE
  8
0
 10
-106.093
 20
-66.4732
 11
-105.956
 21
-66.3442
  0
LINE
  8
0
 10
-105.956
 20
-66.3442
 11
-105.804
 21
-66.2335
  0
LINE
  8
0
 10
-105.804
 20
-66.2335
 11
-105.639
 21
-66.1428
  0
LINE
  8
0
 10
-105.639
 20
-66.1428
 11
-105.464
 21
-66.0734
  0
LINE
  8
0
 10
-105.464
 20
-66.0734
 11
-105.281
 21
-66.0266
  0
LINE
  8
0
 10
-105.281
 20
-66.0266
 11
-105.094
 21
-66.003
  0
LINE
  8
0
 10
-105.094
 20
-66.003
 11
-104.906
 21
-66.003
  0
LINE
  8
0
 10
-104.906
 20
-66.003
 11
-104.719
 21
-66.0266
  0
LINE
  8
0
 10
-104.719
 20
-66.0266
 11
-104.536
 21
-66.0734
  0
LINE
  8
0
 10
-104.536
 20
-66.0734
 11
-104.361
 21
-66.1428
  0
LINE
  8
0
 10
-104.361
 20
-66.1428
 11
-104.196
 21
-66.2335
  0
LINE
  8
0
 10
-104.196
 20
-66.2335
 11
-104.044
 21
-66.3442
  0
LINE
  8
0
 10
-104.044
 20
-66.3442
 11
-103.907
 21
-66.4732
  0
LINE
  8
0
 10
-103.907
 20
-66.4732
 11
-103.786
 21
-66.6183
  0
LINE
  8
0
 10
-103.786
 20
-66.6183
 11
-103.686
 21
-66.7774
  0
LINE
  8
0
 10
-103.686
 20
-66.7774
 11
-103.605
 21
-66.9478
  0
LINE
  8
0
 10
-103.605
 20
-66.9478
 11
-103.547
 21
-67.127
  0
LINE
  8
0
 10
-103.547
 20
-67.127
 11
-103.512
 21
-67.312
  0
LINE
  8
0
 10
-103.512
 20
-67.312
 11
-103.5
 21
-67.5
  0
LINE
  8
0
 10
-103.5
 20
-67.5
 11
-103.512
 21
-67.688
  0
LINE
  8
0
 10
-103.512
 20
-67.688
 11
-103.547
 21
-67.873
  0
LINE
  8
0
 10
-103.547
 20
-67.873
 11
-103.605
 21
-68.0522
  0
LINE
  8
0
 10
-103.605
 20
-68.0522
 11
-103.686
 21
-68.2226
  0
LINE
  8
0
 10
-103.686
 20
-68.2226
 11
-103.786
 21
-68.3817
  0
LINE
  8
0
 10
-103.786
 20
-68.3817
 11
-103.907
 21
-68.5268
  0
LINE
  8
0
 10
-103.907
 20
-68.5268
 11
-104.044
 21
-68.6558
  0
LINE
  8
0
 10
-104.044
 20
-68.6558
 11
-104.196
 21
-68.7665
  0
LINE
  8
0
 10
-104.196
 20
-68.7665
 11
-104.361
 21
-68.8572
  0
LINE
  8
0
 10
-104.361
 20
-68.8572
 11
-104.536
 21
-68.9266
  0
LINE
  8
0
 10
-104.536
 20
-68.9266
 11
-104.719
 21
-68.9734
  0
LINE
  8
0
 10
-104.719
 20
-68.9734
 11
-104.906
 21
-68.997
  0
LINE
  8
0
 10
-104.906
 20
-68.997
 11
-105.094
 21
-68.997
  0
LINE
  8
0
 10
-105.188
 20
-77.9941
 11
-105.562
 21
-77.9469
  0
LINE
  8
0
 10
-105.562
 20
-77.9469
 11
-105.927
 21
-77.8532
  0
LINE
  8
0
 10
-105.927
 20
-77.8532
 11
-106.277
 21
-77.7145
  0
LINE
  8
0
 10
-106.277
 20
-77.7145
 11
-106.607
 21
-77.533
  0
LINE
  8
0
 10
-106.607
 20
-77.533
 11
-106.912
 21
-77.3115
  0
LINE
  8
0
 10
-106.912
 20
-77.3115
 11
-107.187
 21
-77.0536
  0
LINE
  8
0
 10
-107.187
 20
-77.0536
 11
-107.427
 21
-76.7634
  0
LINE
  8
0
 10
-107.427
 20
-76.7634
 11
-107.629
 21
-76.4453
  0
LINE
  8
0
 10
-107.629
 20
-76.4453
 11
-107.789
 21
-76.1044
  0
LINE
  8
0
 10
-107.789
 20
-76.1044
 11
-107.906
 21
-75.7461
  0
LINE
  8
0
 10
-107.906
 20
-75.7461
 11
-107.976
 21
-75.376
  0
LINE
  8
0
 10
-107.976
 20
-75.376
 11
-108
 21
-75
  0
LINE
  8
0
 10
-108
 20
-75
 11
-107.976
 21
-74.624
  0
LINE
  8
0
 10
-107.976
 20
-74.624
 11
-107.906
 21
-74.2539
  0
LINE
  8
0
 10
-107.906
 20
-74.2539
 11
-107.789
 21
-73.8956
  0
LINE
  8
0
 10
-107.789
 20
-73.8956
 11
-107.629
 21
-73.5547
  0
LINE
  8
0
 10
-107.629
 20
-73.5547
 11
-107.427
 21
-73.2366
  0
LINE
  8
0
 10
-107.427
 20
-73.2366
 11
-107.187
 21
-72.9464
  0
LINE
  8
0
 10
-107.187
 20
-72.9464
 11
-106.912
 21
-72.6885
  0
LINE
  8
0
 10
-106.912
 20
-72.6885
 11
-106.607
 21
-72.467
  0
LINE
  8
0
 10
-106.607
 20
-72.467
 11
-106.277
 21
-72.2855
  0
LINE
  8
0
 10
-106.277
 20
-72.2855
 11
-105.927
 21
-72.1468
  0
LINE
  8
0
 10
-105.927
 20
-72.1468
 11
-105.562
 21
-72.0531
  0
LINE
  8
0
 10
-105.562
 20
-72.0531
 11
-105.188
 21
-72.0059
  0
LINE
  8
0
 10
-105.188
 20
-72.0059
 11
-104.812
 21
-72.0059
  0
LINE
  8
0
 10
-104.812
 20
-72.0059
 11
-104.438
 21
-72.0531
  0
LINE
  8
0
 10
-104.438
 20
-72.0531
 11
-104.073
 21
-72.1468
  0
LINE
  8
0
 10
-104.073
 20
-72.1468
 11
-103.723
 21
-72.2855
  0
LINE
  8
0
 10
-103.723
 20
-72.2855
 11
-103.393
 21
-72.467
  0
LINE
  8
0
 10
-103.393
 20
-72.467
 11
-103.088
 21
-72.6885
  0
LINE
  8
0
 10
-103.088
 20
-72.6885
 11
-102.813
 21
-72.9464
  0
LINE
  8
0
 10
-102.813
 20
-72.9464
 11
-102.573
 21
-73.2366
  0
LINE
  8
0
 10
-102.573
 20
-73.2366
 11
-102.371
 21
-73.5547
  0
LINE
  8
0
 10
-102.371
 20
-73.5547
 11
-102.211
 21
-73.8956
  0
LINE
  8
0
 10
-102.211
 20
-73.8956
 11
-102.094
 21
-74.2539
  0
LINE
  8
0
 10
-102.094
 20
-74.2539
 11
-102.024
 21
-74.624
  0
LINE
  8
0
 10
-102.024
 20
-74.624
 11
-102
 21
-75
  0
LINE
  8
0
 10
-102
 20
-75
 11
-102.024
 21
-75.376
  0
LINE
  8
0
 10
-102.024
 20
-75.376
 11
-102.094
 21
-75.7461
  0
LINE
  8
0
 10
-102.094
 20
-75.7461
 11
-102.211
 21
-76.1044
  0
LINE
  8
0
 10
-102.211
 20
-76.1044
 11
-102.371
 21
-76.4453
  0
LINE
  8
0
 10
-102.371
 20
-76.4453
 11
-102.573
 21
-76.7634
  0
LINE
  8
0
 10
-102.573
 20
-76.7634
 11
-102.813
 21
-77.0536
  0
LINE
  8
0
 10
-102.813
 20
-77.0536
 11
-103.088
 21
-77.3115
  0
LINE
  8
0
 10
-103.088
 20
-77.3115
 11
-103.393
 21
-77.533
  0
LINE
  8
0
 10
-103.393
 20
-77.533
 11
-103.723
 21
-77.7145
  0
LINE
  8
0
 10
-103.723
 20
-77.7145
 11
-104.073
 21
-77.8532
  0
LINE
  8
0
 10
-104.073
 20
-77.8532
 11
-104.438
 21
-77.9469
  0
LINE
  8
0
 10
-104.438
 20
-77.9469
 11
-104.812
 21
-77.9941
  0
LINE
  8
0
 10
-104.812
 20
-77.9941
 11
-105.188
 21
-77.9941
  0
LINE
  8
0
 10
104.812
 20
-77.9941
 11
104.438
 21
-77.9469
  0
LINE
  8
0
 10
104.438
 20
-77.9469
 11
104.073
 21
-77.8532
  0
LINE
  8
0
 10
104.073
 20
-77.8532
 11
103.723
 21
-77.7145
  0
LINE
  8
0
 10
103.723
 20
-77.7145
 11
103.393
 21
-77.533
  0
LINE
  8
0
 10
103.393
 20
-77.533
 11
103.088
 21
-77.3115
  0
LINE
  8
0
 10
103.088
 20
-77.3115
 11
102.813
 21
-77.0536
  0
LINE
  8
0
 10
102.813
 20
-77.0536
 11
102.573
 21
-76.7634
  0
LINE
  8
0
 10
102.573
 20
-76.7634
 11
102.371
 21
-76.4453
  0
LINE
  8
0
 10
102.371
 20
-76.4453
 11
102.211
 21
-76.1044
  0
LINE
  8
0
 10
102.211
 20
-76.1044
 11
102.094
 21
-75.7461
  0
LINE
  8
0
 10
102.094
 20
-75.7461
 11
102.024
 21
-75.376
  0
LINE
  8
0
 10
102.024
 20
-75.376
 11
102
 21
-75
  0
LINE
  8
0
 10
102
 20
-75
 11
102.024
 21
-74.624
  0
LINE
  8
0
 10
102.024
 20
-74.624
 11
102.094
 21
-74.2539
  0
LINE
  8
0
 10
102.094
 20
-74.2539
 11
102.211
 21
-73.8956
  0
LINE
  8
0
 10
102.211
 20
-73.8956
 11
102.371
 21
-73.5547
  0
LINE
  8
0
 10
102.371
 20
-73.5547
 11
102.573
 21
-73.2366
  0
LINE
  8
0
 10
102.573
 20
-73.2366
 11
102.813
 21
-72.9464
  0
LINE
  8
0
 10
102.813
 20
-72.9464
 11
103.088
 21
-72.6885
  0
LINE
  8
0
 10
103.088
 20
-72.6885
 11
103.393
 21
-72.467
  0
LINE
  8
0
 10
103.393
 20
-72.467
 11
103.723
 21
-72.2855
  0
LINE
  8
0
 10
103.723
 20
-72.2855
 11
104.073
 21
-72.1468
  0
LINE
  8
0
 10
104.073
 20
-72.1468
 11
104.438
 21
-72.0531
  0
LINE
  8
0
 10
104.438
 20
-72.0531
 11
104.812
 21
-72.0059
  0
LINE
  8
0
 10
104.812
 20
-72.0059
 11
105.188
 21
-72.0059
  0
LINE
  8
0
 10
105.188
 20
-72.0059
 11
105.562
 21
-72.0531
  0
LINE
  8
0
 10
105.562
 20
-72.0531
 11
105.927
 21
-72.1468
  0
LINE
  8
0
 10
105.927
 20
-72.1468
 11
106.277
 21
-72.2855
  0
LINE
  8
0
 10
106.277
 20
-72.2855
 11
106.607
 21
-72.467
  0
LINE
  8
0
 10
106.607
 20
-72.467
 11
106.912
 21
-72.6885
  0
LINE
  8
0
 10
106.912
 20
-72.6885
 11
107.187
 21
-72.9464
  0
LINE
  8
0
 10
107.187
 20
-72.9464
 11
107.427
 21
-73.2366
  0
LINE
  8
0
 10
107.427
 20
-73.2366
 11
107.629
 21
-73.5547
  0
LINE
  8
0
 10
107.629
 20
-73.5547
 11
107.789
 21
-73.8956
  0
LINE
  8
0
 10
107.789
 20
-73.8956
 11
107.906
 21
-74.2539
  0
LINE
  8
0
 10
107.906
 20
-74.2539
 11
107.976
 21
-74.624
  0
LINE
  8
0
 10
107.976
 20
-74.624
 11
108
 21
-75
  0
LINE
  8
0
 10
108
 20
-75
 11
107.976
 21
-75.376
  0
LINE
  8
0
 10
107.976
 20
-75.376
 11
107.906
 21
-75.7461
  0
LINE
  8
0
 10
107.906
 20
-75.7461
 11
107.789
 21
-76.1044
  0
LINE
  8
0
 10
107.789
 20
-76.1044
 11
107.629
 21
-76.4453
  0
LINE
  8
0
 10
107.629
 20
-76.4453
 11
107.427
 21
-76.7634
  0
LINE
  8
0
 10
107.427
 20
-76.7634
 11
107.187
 21
-77.0536
  0
LINE
  8
0
 10
107.187
 20
-77.0536
 11
106.912
 21
-77.3115
  0
LINE
  8
0
 10
106.912
 20
-77.3115
 11
106.607
 21
-77.533
  0
LINE
  8
0
 10
106.607
 20
-77.533
 11
106.277
 21
-77.7145
  0
LINE
  8
0
 10
106.277
 20
-77.7145
 11
105.927
 21
-77.8532
  0
LINE
  8
0
 10
105.927
 20
-77.8532
 11
105.562
 21
-77.9469
  0
LINE
  8
0
 10
105.562
 20
-77.9469
 11
105.188
 21
-77.9941
  0
LINE
  8
0
 10
105.188
 20
-77.9941
 11
104.812
 21
-77.9941
  0
LINE
  8
0
 10
-102.094
 20
-45.7461
 11
-102.211
 21
-46.1044
  0
LINE
  8
0
 10
-102.211
 20
-46.1044
 11
-102.371
 21
-46.4453
  0
LINE
  8
0
 10
-102.371
 20
-46.4453
 11
-102.573
 21
-46.7634
  0
LINE
  8
0
 10
-102.573
 20
-46.7634
 11
-102.813
 21
-47.0536
  0
LINE
  8
0
 10
-102.813
 20
-47.0536
 11
-103.088
 21
-47.3115
  0
LINE
  8
0
 10
-103.088
 20
-47.3115
 11
-103.393
 21
-47.533
  0
LINE
  8
0
 10
-103.393
 20
-47.533
 11
-103.723
 21
-47.7145
  0
LINE
  8
0
 10
-103.723
 20
-47.7145
 11
-104.073
 21
-47.8532
  0
LINE
  8
0
 10
-104.073
 20
-47.8532
 11
-104.438
 21
-47.9469
  0
LINE
  8
0
 10
-104.438
 20
-47.9469
 11
-104.812
 21
-47.9941
  0
LINE
  8
0
 10
-104.812
 20
-47.9941
 11
-105.188
 21
-47.9941
  0
LINE
  8
0
 10
-105.188
 20
-47.9941
 11
-105.562
 21
-47.9469
  0
LINE
  8
0
 10
-105.562
 20
-47.9469
 11
-105.927
 21
-47.8532
  0
LINE
  8
0
 10
-105.927
 20
-47.8532
 11
-106.277
 21
-47.7145
  0
LINE
  8
0
 10
-106.277
 20
-47.7145
 11
-106.607
 21
-47.533
  0
LINE
  8
0
 10
-106.607
 20
-47.533
 11
-106.912
 21
-47.3115
  0
LINE
  8
0
 10
-106.912
 20
-47.3115
 11
-107.187
 21
-47.0536
  0
LINE
  8
0
 10
-107.187
 20
-47.0536
 11
-107.427
 21
-46.7634
  0
LINE
  8
0
 10
-107.427
 20
-46.7634
 11
-107.629
 21
-46.4453
  0
LINE
  8
0
 10
-107.629
 20
-46.4453
 11
-107.789
 21
-46.1044
  0
LINE
  8
0
 10
-107.789
 20
-46.1044
 11
-107.906
 21
-45.7461
  0
LINE
  8
0
 10
-107.906
 20
-45.7461
 11
-107.976
 21
-45.376
  0
LINE
  8
0
 10
-107.976
 20
-45.376
 11
-108
 21
-45
  0
LINE
  8
0
 10
-108
 20
-45
 11
-107.976
 21
-44.624
  0
LINE
  8
0
 10
-107.976
 20
-44.624
 11
-107.906
 21
-44.2539
  0
LINE
  8
0
 10
-107.906
 20
-44.2539
 11
-107.789
 21
-43.8956
  0
LINE
  8
0
 10
-107.789
 20
-43.8956
 11
-107.629
 21
-43.5547
  0
LINE
  8
0
 10
-107.629
 20
-43.5547
 11
-107.427
 21
-43.2366
  0
LINE
  8
0
 10
-107.427
 20
-43.2366
 11
-107.187
 21
-42.9464
  0
LINE
  8
0
 10
-107.187
 20
-42.9464
 11
-106.912
 21
-42.6885
  0
LINE
  8
0
 10
-106.912
 20
-42.6885
 11
-106.607
 21
-42.467
  0
LINE
  8
0
 10
-106.607
 20
-42.467
 11
-106.277
 21
-42.2855
  0
LINE
  8
0
 10
-106.277
 20
-42.2855
 11
-105.927
 21
-42.1468
  0
LINE
  8
0
 10
-105.927
 20
-42.1468
 11
-105.562
 21
-42.0531
  0
LINE
  8
0
 10
-105.562
 20
-42.0531
 11
-105.188
 21
-42.0059
  0
LINE
  8
0
 10
-105.188
 20
-42.0059
 11
-104.812
 21
-42.0059
  0
LINE
  8
0
 10
-104.812
 20
-42.0059
 11
-104.438
 21
-42.0531
  0
LINE
  8
0
 10
-104.438
 20
-42.0531
 11
-104.073
 21
-42.1468
  0
LINE
  8
0
 10
-104.073
 20
-42.1468
 11
-103.723
 21
-42.2855
  0
LINE
  8
0
 10
-103.723
 20
-42.2855
 11
-103.393
 21
-42.467
  0
LINE
  8
0
 10
-103.393
 20
-42.467
 11
-103.088
 21
-42.6885
  0
LINE
  8
0
 10
-103.088
 20
-42.6885
 11
-102.813
 21
-42.9464
  0
LINE
  8
0
 10
-102.813
 20
-42.9464
 11
-102.573
 21
-43.2366
  0
LINE
  8
0
 10
-102.573
 20
-43.2366
 11
-102.371
 21
-43.5547
  0
LINE
  8
0
 10
-102.371
 20
-43.5547
 11
-102.211
 21
-43.8956
  0
LINE
  8
0
 10
-102.211
 20
-43.8956
 11
-102.094
 21
-44.2539
  0
LINE
  8
0
 10
-102.094
 20
-44.2539
 11
-102.024
 21
-44.624
  0
LINE
  8
0
 10
-102.024
 20
-44.624
 11
-102
 21
-45
  0
LINE
  8
0
 10
-102
 20
-45
 11
-102.024
 21
-45.376
  0
LINE
  8
0
 10
-102.024
 20
-45.376
 11
-102.094
 21
-45.7461
  0
ENDSEC
  0
SECTION
  2
OBJECTS
  0
DICTIONARY
  0
ENDSEC
  0
EOF
