  0
SECTION
  2
BLOCKS
  0
ENDSEC
  0
SECTION
  2
ENTITIES
  0
LINE
  8
0
 10
130.437
 20
176.089
 11
131.045
 21
176.245
  0
LINE
  8
0
 10
131.045
 20
176.245
 11
131.629
 21
176.476
  0
LINE
  8
0
 10
131.629
 20
176.476
 11
132.179
 21
176.778
  0
LINE
  8
0
 10
132.179
 20
176.778
 11
132.687
 21
177.147
  0
LINE
  8
0
 10
132.687
 20
177.147
 11
133.145
 21
177.577
  0
LINE
  8
0
 10
133.145
 20
177.577
 11
133.545
 21
178.061
  0
LINE
  8
0
 10
133.545
 20
178.061
 11
133.882
 21
178.591
  0
LINE
  8
0
 10
133.882
 20
178.591
 11
134.149
 21
179.159
  0
LINE
  8
0
 10
134.149
 20
179.159
 11
134.343
 21
179.757
  0
LINE
  8
0
 10
134.343
 20
179.757
 11
134.461
 21
180.373
  0
LINE
  8
0
 10
134.461
 20
180.373
 11
134.5
 21
181
  0
LINE
  8
0
 10
134.5
 20
181
 11
134.5
 21
275
  0
LINE
  8
0
 10
134.5
 20
275
 11
134.461
 21
275.627
  0
LINE
  8
0
 10
134.461
 20
275.627
 11
134.343
 21
276.243
  0
LINE
  8
0
 10
134.343
 20
276.243
 11
134.149
 21
276.841
  0
LINE
  8
0
 10
134.149
 20
276.841
 11
133.882
 21
277.409
  0
LINE
  8
0
 10
133.882
 20
277.409
 11
133.545
 21
277.939
  0
LINE
  8
0
 10
133.545
 20
277.939
 11
133.145
 21
278.423
  0
LINE
  8
0
 10
133.145
 20
278.423
 11
132.687
 21
278.853
  0
LINE
  8
0
 10
132.687
 20
278.853
 11
132.179
 21
279.222
  0
LINE
  8
0
 10
132.179
 20
279.222
 11
131.629
 21
279.524
  0
LINE
  8
0
 10
131.629
 20
279.524
 11
131.045
 21
279.755
  0
LINE
  8
0
 10
131.045
 20
279.755
 11
130.437
 21
279.911
  0
LINE
  8
0
 10
130.437
 20
279.911
 11
129.814
 21
279.99
  0
LINE
  8
0
 10
129.814
 20
279.99
 11
-129.814
 21
279.99
  0
LINE
  8
0
 10
-129.814
 20
279.99
 11
-130.437
 21
279.911
  0
LINE
  8
0
 10
-130.437
 20
279.911
 11
-131.045
 21
279.755
  0
LINE
  8
0
 10
-131.045
 20
279.755
 11
-131.629
 21
279.524
  0
LINE
  8
0
 10
-131.629
 20
279.524
 11
-132.179
 21
279.222
  0
LINE
  8
0
 10
-132.179
 20
279.222
 11
-132.687
 21
278.853
  0
LINE
  8
0
 10
-132.687
 20
278.853
 11
-133.145
 21
278.423
  0
LINE
  8
0
 10
-133.145
 20
278.423
 11
-133.545
 21
277.939
  0
LINE
  8
0
 10
-133.545
 20
277.939
 11
-133.882
 21
277.409
  0
LINE
  8
0
 10
-133.882
 20
277.409
 11
-134.149
 21
276.841
  0
LINE
  8
0
 10
-134.149
 20
276.841
 11
-134.343
 21
276.243
  0
LINE
  8
0
 10
-134.343
 20
276.243
 11
-134.461
 21
275.627
  0
LINE
  8
0
 10
-134.461
 20
275.627
 11
-134.5
 21
275
  0
LINE
  8
0
 10
-134.5
 20
275
 11
-134.5
 21
181
  0
LINE
  8
0
 10
-134.5
 20
181
 11
-134.461
 21
180.373
  0
LINE
  8
0
 10
-134.461
 20
180.373
 11
-134.343
 21
179.757
  0
LINE
  8
0
 10
-134.343
 20
179.757
 11
-134.149
 21
179.159
  0
LINE
  8
0
 10
-134.149
 20
179.159
 11
-133.882
 21
178.591
  0
LINE
  8
0
 10
-133.882
 20
178.591
 11
-133.545
 21
178.061
  0
LINE
  8
0
 10
-133.545
 20
178.061
 11
-133.145
 21
177.577
  0
LINE
  8
0
 10
-133.145
 20
177.577
 11
-132.687
 21
177.147
  0
LINE
  8
0
 10
-132.687
 20
177.147
 11
-132.179
 21
176.778
  0
LINE
  8
0
 10
-132.179
 20
176.778
 11
-131.629
 21
176.476
  0
LINE
  8
0
 10
-131.629
 20
176.476
 11
-131.045
 21
176.245
  0
LINE
  8
0
 10
-131.045
 20
176.245
 11
-130.437
 21
176.089
  0
LINE
  8
0
 10
-130.437
 20
176.089
 11
-129.814
 21
176.01
  0
LINE
  8
0
 10
-129.814
 20
176.01
 11
129.814
 21
176.01
  0
LINE
  8
0
 10
129.814
 20
176.01
 11
130.437
 21
176.089
  0
LINE
  8
0
 10
-127.688
 20
270.006
 11
-128.062
 21
270.053
  0
LINE
  8
0
 10
-128.062
 20
270.053
 11
-128.427
 21
270.147
  0
LINE
  8
0
 10
-128.427
 20
270.147
 11
-128.777
 21
270.286
  0
LINE
  8
0
 10
-128.777
 20
270.286
 11
-129.107
 21
270.467
  0
LINE
  8
0
 10
-129.107
 20
270.467
 11
-129.412
 21
270.688
  0
LINE
  8
0
 10
-129.412
 20
270.688
 11
-129.687
 21
270.946
  0
LINE
  8
0
 10
-129.687
 20
270.946
 11
-129.927
 21
271.237
  0
LINE
  8
0
 10
-129.927
 20
271.237
 11
-130.129
 21
271.555
  0
LINE
  8
0
 10
-130.129
 20
271.555
 11
-130.289
 21
271.896
  0
LINE
  8
0
 10
-130.289
 20
271.896
 11
-130.406
 21
272.254
  0
LINE
  8
0
 10
-130.406
 20
272.254
 11
-130.476
 21
272.624
  0
LINE
  8
0
 10
-130.476
 20
272.624
 11
-130.5
 21
273
  0
LINE
  8
0
 10
-130.5
 20
273
 11
-130.476
 21
273.376
  0
LINE
  8
0
 10
-130.476
 20
273.376
 11
-130.406
 21
273.746
  0
LINE
  8
0
 10
-130.406
 20
273.746
 11
-130.289
 21
274.104
  0
LINE
  8
0
 10
-130.289
 20
274.104
 11
-130.129
 21
274.445
  0
LINE
  8
0
 10
-130.129
 20
274.445
 11
-129.927
 21
274.763
  0
LINE
  8
0
 10
-129.927
 20
274.763
 11
-129.687
 21
275.054
  0
LINE
  8
0
 10
-129.687
 20
275.054
 11
-129.412
 21
275.312
  0
LINE
  8
0
 10
-129.412
 20
275.312
 11
-129.107
 21
275.533
  0
LINE
  8
0
 10
-129.107
 20
275.533
 11
-128.777
 21
275.714
  0
LINE
  8
0
 10
-128.777
 20
275.714
 11
-128.427
 21
275.853
  0
LINE
  8
0
 10
-128.427
 20
275.853
 11
-128.062
 21
275.947
  0
LINE
  8
0
 10
-128.062
 20
275.947
 11
-127.688
 21
275.994
  0
LINE
  8
0
 10
-127.688
 20
275.994
 11
-127.312
 21
275.994
  0
LINE
  8
0
 10
-127.312
 20
275.994
 11
-126.938
 21
275.947
  0
LINE
  8
0
 10
-126.938
 20
275.947
 11
-126.573
 21
275.853
  0
LINE
  8
0
 10
-126.573
 20
275.853
 11
-126.223
 21
275.714
  0
LINE
  8
0
 10
-126.223
 20
275.714
 11
-125.893
 21
275.533
  0
LINE
  8
0
 10
-125.893
 20
275.533
 11
-125.588
 21
275.312
  0
LINE
  8
0
 10
-125.588
 20
275.312
 11
-125.313
 21
275.054
  0
LINE
  8
0
 10
-125.313
 20
275.054
 11
-125.073
 21
274.763
  0
LINE
  8
0
 10
-125.073
 20
274.763
 11
-124.871
 21
274.445
  0
LINE
  8
0
 10
-124.871
 20
274.445
 11
-124.711
 21
274.104
  0
LINE
  8
0
 10
-124.711
 20
274.104
 11
-124.594
 21
273.746
  0
LINE
  8
0
 10
-124.594
 20
273.746
 11
-124.524
 21
273.376
  0
LINE
  8
0
 10
-124.524
 20
273.376
 11
-124.5
 21
273
  0
LINE
  8
0
 10
-124.5
 20
273
 11
-124.524
 21
272.624
  0
LINE
  8
0
 10
-124.524
 20
272.624
 11
-124.594
 21
272.254
  0
LINE
  8
0
 10
-124.594
 20
272.254
 11
-124.711
 21
271.896
  0
LINE
  8
0
 10
-124.711
 20
271.896
 11
-124.871
 21
271.555
  0
LINE
  8
0
 10
-124.871
 20
271.555
 11
-125.073
 21
271.237
  0
LINE
  8
0
 10
-125.073
 20
271.237
 11
-125.313
 21
270.946
  0
LINE
  8
0
 10
-125.313
 20
270.946
 11
-125.588
 21
270.688
  0
LINE
  8
0
 10
-125.588
 20
270.688
 11
-125.893
 21
270.467
  0
LINE
  8
0
 10
-125.893
 20
270.467
 11
-126.223
 21
270.286
  0
LINE
  8
0
 10
-126.223
 20
270.286
 11
-126.573
 21
270.147
  0
LINE
  8
0
 10
-126.573
 20
270.147
 11
-126.938
 21
270.053
  0
LINE
  8
0
 10
-126.938
 20
270.053
 11
-127.312
 21
270.006
  0
LINE
  8
0
 10
-127.312
 20
270.006
 11
-127.688
 21
270.006
  0
LINE
  8
0
 10
127.312
 20
270.006
 11
126.938
 21
270.053
  0
LINE
  8
0
 10
126.938
 20
270.053
 11
126.573
 21
270.147
  0
LINE
  8
0
 10
126.573
 20
270.147
 11
126.223
 21
270.286
  0
LINE
  8
0
 10
126.223
 20
270.286
 11
125.893
 21
270.467
  0
LINE
  8
0
 10
125.893
 20
270.467
 11
125.588
 21
270.688
  0
LINE
  8
0
 10
125.588
 20
270.688
 11
125.313
 21
270.946
  0
LINE
  8
0
 10
125.313
 20
270.946
 11
125.073
 21
271.237
  0
LINE
  8
0
 10
125.073
 20
271.237
 11
124.871
 21
271.555
  0
LINE
  8
0
 10
124.871
 20
271.555
 11
124.711
 21
271.896
  0
LINE
  8
0
 10
124.711
 20
271.896
 11
124.594
 21
272.254
  0
LINE
  8
0
 10
124.594
 20
272.254
 11
124.524
 21
272.624
  0
LINE
  8
0
 10
124.524
 20
272.624
 11
124.5
 21
273
  0
LINE
  8
0
 10
124.5
 20
273
 11
124.524
 21
273.376
  0
LINE
  8
0
 10
124.524
 20
273.376
 11
124.594
 21
273.746
  0
LINE
  8
0
 10
124.594
 20
273.746
 11
124.711
 21
274.104
  0
LINE
  8
0
 10
124.711
 20
274.104
 11
124.871
 21
274.445
  0
LINE
  8
0
 10
124.871
 20
274.445
 11
125.073
 21
274.763
  0
LINE
  8
0
 10
125.073
 20
274.763
 11
125.313
 21
275.054
  0
LINE
  8
0
 10
125.313
 20
275.054
 11
125.588
 21
275.312
  0
LINE
  8
0
 10
125.588
 20
275.312
 11
125.893
 21
275.533
  0
LINE
  8
0
 10
125.893
 20
275.533
 11
126.223
 21
275.714
  0
LINE
  8
0
 10
126.223
 20
275.714
 11
126.573
 21
275.853
  0
LINE
  8
0
 10
126.573
 20
275.853
 11
126.938
 21
275.947
  0
LINE
  8
0
 10
126.938
 20
275.947
 11
127.312
 21
275.994
  0
LINE
  8
0
 10
127.312
 20
275.994
 11
127.688
 21
275.994
  0
LINE
  8
0
 10
127.688
 20
275.994
 11
128.062
 21
275.947
  0
LINE
  8
0
 10
128.062
 20
275.947
 11
128.427
 21
275.853
  0
LINE
  8
0
 10
128.427
 20
275.853
 11
128.777
 21
275.714
  0
LINE
  8
0
 10
128.777
 20
275.714
 11
129.107
 21
275.533
  0
LINE
  8
0
 10
129.107
 20
275.533
 11
129.412
 21
275.312
  0
LINE
  8
0
 10
129.412
 20
275.312
 11
129.687
 21
275.054
  0
LINE
  8
0
 10
129.687
 20
275.054
 11
129.927
 21
274.763
  0
LINE
  8
0
 10
129.927
 20
274.763
 11
130.129
 21
274.445
  0
LINE
  8
0
 10
130.129
 20
274.445
 11
130.289
 21
274.104
  0
LINE
  8
0
 10
130.289
 20
274.104
 11
130.406
 21
273.746
  0
LINE
  8
0
 10
130.406
 20
273.746
 11
130.476
 21
273.376
  0
LINE
  8
0
 10
130.476
 20
273.376
 11
130.5
 21
273
  0
LINE
  8
0
 10
130.5
 20
273
 11
130.476
 21
272.624
  0
LINE
  8
0
 10
130.476
 20
272.624
 11
130.406
 21
272.254
  0
LINE
  8
0
 10
130.406
 20
272.254
 11
130.289
 21
271.896
  0
LINE
  8
0
 10
130.289
 20
271.896
 11
130.129
 21
271.555
  0
LINE
  8
0
 10
130.129
 20
271.555
 11
129.927
 21
271.237
  0
LINE
  8
0
 10
129.927
 20
271.237
 11
129.687
 21
270.946
  0
LINE
  8
0
 10
129.687
 20
270.946
 11
129.412
 21
270.688
  0
LINE
  8
0
 10
129.412
 20
270.688
 11
129.107
 21
270.467
  0
LINE
  8
0
 10
129.107
 20
270.467
 11
128.777
 21
270.286
  0
LINE
  8
0
 10
128.777
 20
270.286
 11
128.427
 21
270.147
  0
LINE
  8
0
 10
128.427
 20
270.147
 11
128.062
 21
270.053
  0
LINE
  8
0
 10
128.062
 20
270.053
 11
127.688
 21
270.006
  0
LINE
  8
0
 10
127.688
 20
270.006
 11
127.312
 21
270.006
  0
LINE
  8
0
 10
-127.688
 20
180.006
 11
-128.062
 21
180.053
  0
LINE
  8
0
 10
-128.062
 20
180.053
 11
-128.427
 21
180.147
  0
LINE
  8
0
 10
-128.427
 20
180.147
 11
-128.777
 21
180.286
  0
LINE
  8
0
 10
-128.777
 20
180.286
 11
-129.107
 21
180.467
  0
LINE
  8
0
 10
-129.107
 20
180.467
 11
-129.412
 21
180.688
  0
LINE
  8
0
 10
-129.412
 20
180.688
 11
-129.687
 21
180.946
  0
LINE
  8
0
 10
-129.687
 20
180.946
 11
-129.927
 21
181.237
  0
LINE
  8
0
 10
-129.927
 20
181.237
 11
-130.129
 21
181.555
  0
LINE
  8
0
 10
-130.129
 20
181.555
 11
-130.289
 21
181.896
  0
LINE
  8
0
 10
-130.289
 20
181.896
 11
-130.406
 21
182.254
  0
LINE
  8
0
 10
-130.406
 20
182.254
 11
-130.476
 21
182.624
  0
LINE
  8
0
 10
-130.476
 20
182.624
 11
-130.5
 21
183
  0
LINE
  8
0
 10
-130.5
 20
183
 11
-130.476
 21
183.376
  0
LINE
  8
0
 10
-130.476
 20
183.376
 11
-130.406
 21
183.746
  0
LINE
  8
0
 10
-130.406
 20
183.746
 11
-130.289
 21
184.104
  0
LINE
  8
0
 10
-130.289
 20
184.104
 11
-130.129
 21
184.445
  0
LINE
  8
0
 10
-130.129
 20
184.445
 11
-129.927
 21
184.763
  0
LINE
  8
0
 10
-129.927
 20
184.763
 11
-129.687
 21
185.054
  0
LINE
  8
0
 10
-129.687
 20
185.054
 11
-129.412
 21
185.312
  0
LINE
  8
0
 10
-129.412
 20
185.312
 11
-129.107
 21
185.533
  0
LINE
  8
0
 10
-129.107
 20
185.533
 11
-128.777
 21
185.714
  0
LINE
  8
0
 10
-128.777
 20
185.714
 11
-128.427
 21
185.853
  0
LINE
  8
0
 10
-128.427
 20
185.853
 11
-128.062
 21
185.947
  0
LINE
  8
0
 10
-128.062
 20
185.947
 11
-127.688
 21
185.994
  0
LINE
  8
0
 10
-127.688
 20
185.994
 11
-127.312
 21
185.994
  0
LINE
  8
0
 10
-127.312
 20
185.994
 11
-126.938
 21
185.947
  0
LINE
  8
0
 10
-126.938
 20
185.947
 11
-126.573
 21
185.853
  0
LINE
  8
0
 10
-126.573
 20
185.853
 11
-126.223
 21
185.714
  0
LINE
  8
0
 10
-126.223
 20
185.714
 11
-125.893
 21
185.533
  0
LINE
  8
0
 10
-125.893
 20
185.533
 11
-125.588
 21
185.312
  0
LINE
  8
0
 10
-125.588
 20
185.312
 11
-125.313
 21
185.054
  0
LINE
  8
0
 10
-125.313
 20
185.054
 11
-125.073
 21
184.763
  0
LINE
  8
0
 10
-125.073
 20
184.763
 11
-124.871
 21
184.445
  0
LINE
  8
0
 10
-124.871
 20
184.445
 11
-124.711
 21
184.104
  0
LINE
  8
0
 10
-124.711
 20
184.104
 11
-124.594
 21
183.746
  0
LINE
  8
0
 10
-124.594
 20
183.746
 11
-124.524
 21
183.376
  0
LINE
  8
0
 10
-124.524
 20
183.376
 11
-124.5
 21
183
  0
LINE
  8
0
 10
-124.5
 20
183
 11
-124.524
 21
182.624
  0
LINE
  8
0
 10
-124.524
 20
182.624
 11
-124.594
 21
182.254
  0
LINE
  8
0
 10
-124.594
 20
182.254
 11
-124.711
 21
181.896
  0
LINE
  8
0
 10
-124.711
 20
181.896
 11
-124.871
 21
181.555
  0
LINE
  8
0
 10
-124.871
 20
181.555
 11
-125.073
 21
181.237
  0
LINE
  8
0
 10
-125.073
 20
181.237
 11
-125.313
 21
180.946
  0
LINE
  8
0
 10
-125.313
 20
180.946
 11
-125.588
 21
180.688
  0
LINE
  8
0
 10
-125.588
 20
180.688
 11
-125.893
 21
180.467
  0
LINE
  8
0
 10
-125.893
 20
180.467
 11
-126.223
 21
180.286
  0
LINE
  8
0
 10
-126.223
 20
180.286
 11
-126.573
 21
180.147
  0
LINE
  8
0
 10
-126.573
 20
180.147
 11
-126.938
 21
180.053
  0
LINE
  8
0
 10
-126.938
 20
180.053
 11
-127.312
 21
180.006
  0
LINE
  8
0
 10
-127.312
 20
180.006
 11
-127.688
 21
180.006
  0
LINE
  8
0
 10
127.312
 20
180.006
 11
126.938
 21
180.053
  0
LINE
  8
0
 10
126.938
 20
180.053
 11
126.573
 21
180.147
  0
LINE
  8
0
 10
126.573
 20
180.147
 11
126.223
 21
180.286
  0
LINE
  8
0
 10
126.223
 20
180.286
 11
125.893
 21
180.467
  0
LINE
  8
0
 10
125.893
 20
180.467
 11
125.588
 21
180.688
  0
LINE
  8
0
 10
125.588
 20
180.688
 11
125.313
 21
180.946
  0
LINE
  8
0
 10
125.313
 20
180.946
 11
125.073
 21
181.237
  0
LINE
  8
0
 10
125.073
 20
181.237
 11
124.871
 21
181.555
  0
LINE
  8
0
 10
124.871
 20
181.555
 11
124.711
 21
181.896
  0
LINE
  8
0
 10
124.711
 20
181.896
 11
124.594
 21
182.254
  0
LINE
  8
0
 10
124.594
 20
182.254
 11
124.524
 21
182.624
  0
LINE
  8
0
 10
124.524
 20
182.624
 11
124.5
 21
183
  0
LINE
  8
0
 10
124.5
 20
183
 11
124.524
 21
183.376
  0
LINE
  8
0
 10
124.524
 20
183.376
 11
124.594
 21
183.746
  0
LINE
  8
0
 10
124.594
 20
183.746
 11
124.711
 21
184.104
  0
LINE
  8
0
 10
124.711
 20
184.104
 11
124.871
 21
184.445
  0
LINE
  8
0
 10
124.871
 20
184.445
 11
125.073
 21
184.763
  0
LINE
  8
0
 10
125.073
 20
184.763
 11
125.313
 21
185.054
  0
LINE
  8
0
 10
125.313
 20
185.054
 11
125.588
 21
185.312
  0
LINE
  8
0
 10
125.588
 20
185.312
 11
125.893
 21
185.533
  0
LINE
  8
0
 10
125.893
 20
185.533
 11
126.223
 21
185.714
  0
LINE
  8
0
 10
126.223
 20
185.714
 11
126.573
 21
185.853
  0
LINE
  8
0
 10
126.573
 20
185.853
 11
126.938
 21
185.947
  0
LINE
  8
0
 10
126.938
 20
185.947
 11
127.312
 21
185.994
  0
LINE
  8
0
 10
127.312
 20
185.994
 11
127.688
 21
185.994
  0
LINE
  8
0
 10
127.688
 20
185.994
 11
128.062
 21
185.947
  0
LINE
  8
0
 10
128.062
 20
185.947
 11
128.427
 21
185.853
  0
LINE
  8
0
 10
128.427
 20
185.853
 11
128.777
 21
185.714
  0
LINE
  8
0
 10
128.777
 20
185.714
 11
129.107
 21
185.533
  0
LINE
  8
0
 10
129.107
 20
185.533
 11
129.412
 21
185.312
  0
LINE
  8
0
 10
129.412
 20
185.312
 11
129.687
 21
185.054
  0
LINE
  8
0
 10
129.687
 20
185.054
 11
129.927
 21
184.763
  0
LINE
  8
0
 10
129.927
 20
184.763
 11
130.129
 21
184.445
  0
LINE
  8
0
 10
130.129
 20
184.445
 11
130.289
 21
184.104
  0
LINE
  8
0
 10
130.289
 20
184.104
 11
130.406
 21
183.746
  0
LINE
  8
0
 10
130.406
 20
183.746
 11
130.476
 21
183.376
  0
LINE
  8
0
 10
130.476
 20
183.376
 11
130.5
 21
183
  0
LINE
  8
0
 10
130.5
 20
183
 11
130.476
 21
182.624
  0
LINE
  8
0
 10
130.476
 20
182.624
 11
130.406
 21
182.254
  0
LINE
  8
0
 10
130.406
 20
182.254
 11
130.289
 21
181.896
  0
LINE
  8
0
 10
130.289
 20
181.896
 11
130.129
 21
181.555
  0
LINE
  8
0
 10
130.129
 20
181.555
 11
129.927
 21
181.237
  0
LINE
  8
0
 10
129.927
 20
181.237
 11
129.687
 21
180.946
  0
LINE
  8
0
 10
129.687
 20
180.946
 11
129.412
 21
180.688
  0
LINE
  8
0
 10
129.412
 20
180.688
 11
129.107
 21
180.467
  0
LINE
  8
0
 10
129.107
 20
180.467
 11
128.777
 21
180.286
  0
LINE
  8
0
 10
128.777
 20
180.286
 11
128.427
 21
180.147
  0
LINE
  8
0
 10
128.427
 20
180.147
 11
128.062
 21
180.053
  0
LINE
  8
0
 10
128.062
 20
180.053
 11
127.688
 21
180.006
  0
LINE
  8
0
 10
127.688
 20
180.006
 11
127.312
 21
180.006
  0
LINE
  8
0
 10
130.437
 20
62.0886
 11
131.045
 21
62.2447
  0
LINE
  8
0
 10
131.045
 20
62.2447
 11
131.629
 21
62.4759
  0
LINE
  8
0
 10
131.629
 20
62.4759
 11
132.179
 21
62.7784
  0
LINE
  8
0
 10
132.179
 20
62.7784
 11
132.687
 21
63.1474
  0
LINE
  8
0
 10
132.687
 20
63.1474
 11
133.145
 21
63.5773
  0
LINE
  8
0
 10
133.145
 20
63.5773
 11
133.545
 21
64.0611
  0
LINE
  8
0
 10
133.545
 20
64.0611
 11
133.882
 21
64.5912
  0
LINE
  8
0
 10
133.882
 20
64.5912
 11
134.149
 21
65.1594
  0
LINE
  8
0
 10
134.149
 20
65.1594
 11
134.343
 21
65.7566
  0
LINE
  8
0
 10
134.343
 20
65.7566
 11
134.461
 21
66.3733
  0
LINE
  8
0
 10
134.461
 20
66.3733
 11
134.5
 21
67
  0
LINE
  8
0
 10
134.5
 20
67
 11
134.5
 21
161
  0
LINE
  8
0
 10
134.5
 20
161
 11
134.461
 21
161.627
  0
LINE
  8
0
 10
134.461
 20
161.627
 11
134.343
 21
162.243
  0
LINE
  8
0
 10
134.343
 20
162.243
 11
134.149
 21
162.841
  0
LINE
  8
0
 10
134.149
 20
162.841
 11
133.882
 21
163.409
  0
LINE
  8
0
 10
133.882
 20
163.409
 11
133.545
 21
163.939
  0
LINE
  8
0
 10
133.545
 20
163.939
 11
133.145
 21
164.423
  0
LINE
  8
0
 10
133.145
 20
164.423
 11
132.687
 21
164.853
  0
LINE
  8
0
 10
132.687
 20
164.853
 11
132.179
 21
165.222
  0
LINE
  8
0
 10
132.179
 20
165.222
 11
131.629
 21
165.524
  0
LINE
  8
0
 10
131.629
 20
165.524
 11
131.045
 21
165.755
  0
LINE
  8
0
 10
131.045
 20
165.755
 11
130.437
 21
165.911
  0
LINE
  8
0
 10
130.437
 20
165.911
 11
129.814
 21
165.99
  0
LINE
  8
0
 10
129.814
 20
165.99
 11
-129.814
 21
165.99
  0
LINE
  8
0
 10
-129.814
 20
165.99
 11
-130.437
 21
165.911
  0
LINE
  8
0
 10
-130.437
 20
165.911
 11
-131.045
 21
165.755
  0
LINE
  8
0
 10
-131.045
 20
165.755
 11
-131.629
 21
165.524
  0
LINE
  8
0
 10
-131.629
 20
165.524
 11
-132.179
 21
165.222
  0
LINE
  8
0
 10
-132.179
 20
165.222
 11
-132.687
 21
164.853
  0
LINE
  8
0
 10
-132.687
 20
164.853
 11
-133.145
 21
164.423
  0
LINE
  8
0
 10
-133.145
 20
164.423
 11
-133.545
 21
163.939
  0
LINE
  8
0
 10
-133.545
 20
163.939
 11
-133.882
 21
163.409
  0
LINE
  8
0
 10
-133.882
 20
163.409
 11
-134.149
 21
162.841
  0
LINE
  8
0
 10
-134.149
 20
162.841
 11
-134.343
 21
162.243
  0
LINE
  8
0
 10
-134.343
 20
162.243
 11
-134.461
 21
161.627
  0
LINE
  8
0
 10
-134.461
 20
161.627
 11
-134.5
 21
161
  0
LINE
  8
0
 10
-134.5
 20
161
 11
-134.5
 21
67
  0
LINE
  8
0
 10
-134.5
 20
67
 11
-134.461
 21
66.3733
  0
LINE
  8
0
 10
-134.461
 20
66.3733
 11
-134.343
 21
65.7566
  0
LINE
  8
0
 10
-134.343
 20
65.7566
 11
-134.149
 21
65.1594
  0
LINE
  8
0
 10
-134.149
 20
65.1594
 11
-133.882
 21
64.5912
  0
LINE
  8
0
 10
-133.882
 20
64.5912
 11
-133.545
 21
64.0611
  0
LINE
  8
0
 10
-133.545
 20
64.0611
 11
-133.145
 21
63.5773
  0
LINE
  8
0
 10
-133.145
 20
63.5773
 11
-132.687
 21
63.1474
  0
LINE
  8
0
 10
-132.687
 20
63.1474
 11
-132.179
 21
62.7784
  0
LINE
  8
0
 10
-132.179
 20
62.7784
 11
-131.629
 21
62.4759
  0
LINE
  8
0
 10
-131.629
 20
62.4759
 11
-131.045
 21
62.2447
  0
LINE
  8
0
 10
-131.045
 20
62.2447
 11
-130.437
 21
62.0886
  0
LINE
  8
0
 10
-130.437
 20
62.0886
 11
-129.814
 21
62.0099
  0
LINE
  8
0
 10
-129.814
 20
62.0099
 11
129.814
 21
62.0099
  0
LINE
  8
0
 10
129.814
 20
62.0099
 11
130.437
 21
62.0886
  0
LINE
  8
0
 10
127.312
 20
156.006
 11
126.938
 21
156.053
  0
LINE
  8
0
 10
126.938
 20
156.053
 11
126.573
 21
156.147
  0
LINE
  8
0
 10
126.573
 20
156.147
 11
126.223
 21
156.286
  0
LINE
  8
0
 10
126.223
 20
156.286
 11
125.893
 21
156.467
  0
LINE
  8
0
 10
125.893
 20
156.467
 11
125.588
 21
156.688
  0
LINE
  8
0
 10
125.588
 20
156.688
 11
125.313
 21
156.946
  0
LINE
  8
0
 10
125.313
 20
156.946
 11
125.073
 21
157.237
  0
LINE
  8
0
 10
125.073
 20
157.237
 11
124.871
 21
157.555
  0
LINE
  8
0
 10
124.871
 20
157.555
 11
124.711
 21
157.896
  0
LINE
  8
0
 10
124.711
 20
157.896
 11
124.594
 21
158.254
  0
LINE
  8
0
 10
124.594
 20
158.254
 11
124.524
 21
158.624
  0
LINE
  8
0
 10
124.524
 20
158.624
 11
124.5
 21
159
  0
LINE
  8
0
 10
124.5
 20
159
 11
124.524
 21
159.376
  0
LINE
  8
0
 10
124.524
 20
159.376
 11
124.594
 21
159.746
  0
LINE
  8
0
 10
124.594
 20
159.746
 11
124.711
 21
160.104
  0
LINE
  8
0
 10
124.711
 20
160.104
 11
124.871
 21
160.445
  0
LINE
  8
0
 10
124.871
 20
160.445
 11
125.073
 21
160.763
  0
LINE
  8
0
 10
125.073
 20
160.763
 11
125.313
 21
161.054
  0
LINE
  8
0
 10
125.313
 20
161.054
 11
125.588
 21
161.312
  0
LINE
  8
0
 10
125.588
 20
161.312
 11
125.893
 21
161.533
  0
LINE
  8
0
 10
125.893
 20
161.533
 11
126.223
 21
161.714
  0
LINE
  8
0
 10
126.223
 20
161.714
 11
126.573
 21
161.853
  0
LINE
  8
0
 10
126.573
 20
161.853
 11
126.938
 21
161.947
  0
LINE
  8
0
 10
126.938
 20
161.947
 11
127.312
 21
161.994
  0
LINE
  8
0
 10
127.312
 20
161.994
 11
127.688
 21
161.994
  0
LINE
  8
0
 10
127.688
 20
161.994
 11
128.062
 21
161.947
  0
LINE
  8
0
 10
128.062
 20
161.947
 11
128.427
 21
161.853
  0
LINE
  8
0
 10
128.427
 20
161.853
 11
128.777
 21
161.714
  0
LINE
  8
0
 10
128.777
 20
161.714
 11
129.107
 21
161.533
  0
LINE
  8
0
 10
129.107
 20
161.533
 11
129.412
 21
161.312
  0
LINE
  8
0
 10
129.412
 20
161.312
 11
129.687
 21
161.054
  0
LINE
  8
0
 10
129.687
 20
161.054
 11
129.927
 21
160.763
  0
LINE
  8
0
 10
129.927
 20
160.763
 11
130.129
 21
160.445
  0
LINE
  8
0
 10
130.129
 20
160.445
 11
130.289
 21
160.104
  0
LINE
  8
0
 10
130.289
 20
160.104
 11
130.406
 21
159.746
  0
LINE
  8
0
 10
130.406
 20
159.746
 11
130.476
 21
159.376
  0
LINE
  8
0
 10
130.476
 20
159.376
 11
130.5
 21
159
  0
LINE
  8
0
 10
130.5
 20
159
 11
130.476
 21
158.624
  0
LINE
  8
0
 10
130.476
 20
158.624
 11
130.406
 21
158.254
  0
LINE
  8
0
 10
130.406
 20
158.254
 11
130.289
 21
157.896
  0
LINE
  8
0
 10
130.289
 20
157.896
 11
130.129
 21
157.555
  0
LINE
  8
0
 10
130.129
 20
157.555
 11
129.927
 21
157.237
  0
LINE
  8
0
 10
129.927
 20
157.237
 11
129.687
 21
156.946
  0
LINE
  8
0
 10
129.687
 20
156.946
 11
129.412
 21
156.688
  0
LINE
  8
0
 10
129.412
 20
156.688
 11
129.107
 21
156.467
  0
LINE
  8
0
 10
129.107
 20
156.467
 11
128.777
 21
156.286
  0
LINE
  8
0
 10
128.777
 20
156.286
 11
128.427
 21
156.147
  0
LINE
  8
0
 10
128.427
 20
156.147
 11
128.062
 21
156.053
  0
LINE
  8
0
 10
128.062
 20
156.053
 11
127.688
 21
156.006
  0
LINE
  8
0
 10
127.688
 20
156.006
 11
127.312
 21
156.006
  0
LINE
  8
0
 10
-127.688
 20
156.006
 11
-128.062
 21
156.053
  0
LINE
  8
0
 10
-128.062
 20
156.053
 11
-128.427
 21
156.147
  0
LINE
  8
0
 10
-128.427
 20
156.147
 11
-128.777
 21
156.286
  0
LINE
  8
0
 10
-128.777
 20
156.286
 11
-129.107
 21
156.467
  0
LINE
  8
0
 10
-129.107
 20
156.467
 11
-129.412
 21
156.688
  0
LINE
  8
0
 10
-129.412
 20
156.688
 11
-129.687
 21
156.946
  0
LINE
  8
0
 10
-129.687
 20
156.946
 11
-129.927
 21
157.237
  0
LINE
  8
0
 10
-129.927
 20
157.237
 11
-130.129
 21
157.555
  0
LINE
  8
0
 10
-130.129
 20
157.555
 11
-130.289
 21
157.896
  0
LINE
  8
0
 10
-130.289
 20
157.896
 11
-130.406
 21
158.254
  0
LINE
  8
0
 10
-130.406
 20
158.254
 11
-130.476
 21
158.624
  0
LINE
  8
0
 10
-130.476
 20
158.624
 11
-130.5
 21
159
  0
LINE
  8
0
 10
-130.5
 20
159
 11
-130.476
 21
159.376
  0
LINE
  8
0
 10
-130.476
 20
159.376
 11
-130.406
 21
159.746
  0
LINE
  8
0
 10
-130.406
 20
159.746
 11
-130.289
 21
160.104
  0
LINE
  8
0
 10
-130.289
 20
160.104
 11
-130.129
 21
160.445
  0
LINE
  8
0
 10
-130.129
 20
160.445
 11
-129.927
 21
160.763
  0
LINE
  8
0
 10
-129.927
 20
160.763
 11
-129.687
 21
161.054
  0
LINE
  8
0
 10
-129.687
 20
161.054
 11
-129.412
 21
161.312
  0
LINE
  8
0
 10
-129.412
 20
161.312
 11
-129.107
 21
161.533
  0
LINE
  8
0
 10
-129.107
 20
161.533
 11
-128.777
 21
161.714
  0
LINE
  8
0
 10
-128.777
 20
161.714
 11
-128.427
 21
161.853
  0
LINE
  8
0
 10
-128.427
 20
161.853
 11
-128.062
 21
161.947
  0
LINE
  8
0
 10
-128.062
 20
161.947
 11
-127.688
 21
161.994
  0
LINE
  8
0
 10
-127.688
 20
161.994
 11
-127.312
 21
161.994
  0
LINE
  8
0
 10
-127.312
 20
161.994
 11
-126.938
 21
161.947
  0
LINE
  8
0
 10
-126.938
 20
161.947
 11
-126.573
 21
161.853
  0
LINE
  8
0
 10
-126.573
 20
161.853
 11
-126.223
 21
161.714
  0
LINE
  8
0
 10
-126.223
 20
161.714
 11
-125.893
 21
161.533
  0
LINE
  8
0
 10
-125.893
 20
161.533
 11
-125.588
 21
161.312
  0
LINE
  8
0
 10
-125.588
 20
161.312
 11
-125.313
 21
161.054
  0
LINE
  8
0
 10
-125.313
 20
161.054
 11
-125.073
 21
160.763
  0
LINE
  8
0
 10
-125.073
 20
160.763
 11
-124.871
 21
160.445
  0
LINE
  8
0
 10
-124.871
 20
160.445
 11
-124.711
 21
160.104
  0
LINE
  8
0
 10
-124.711
 20
160.104
 11
-124.594
 21
159.746
  0
LINE
  8
0
 10
-124.594
 20
159.746
 11
-124.524
 21
159.376
  0
LINE
  8
0
 10
-124.524
 20
159.376
 11
-124.5
 21
159
  0
LINE
  8
0
 10
-124.5
 20
159
 11
-124.524
 21
158.624
  0
LINE
  8
0
 10
-124.524
 20
158.624
 11
-124.594
 21
158.254
  0
LINE
  8
0
 10
-124.594
 20
158.254
 11
-124.711
 21
157.896
  0
LINE
  8
0
 10
-124.711
 20
157.896
 11
-124.871
 21
157.555
  0
LINE
  8
0
 10
-124.871
 20
157.555
 11
-125.073
 21
157.237
  0
LINE
  8
0
 10
-125.073
 20
157.237
 11
-125.313
 21
156.946
  0
LINE
  8
0
 10
-125.313
 20
156.946
 11
-125.588
 21
156.688
  0
LINE
  8
0
 10
-125.588
 20
156.688
 11
-125.893
 21
156.467
  0
LINE
  8
0
 10
-125.893
 20
156.467
 11
-126.223
 21
156.286
  0
LINE
  8
0
 10
-126.223
 20
156.286
 11
-126.573
 21
156.147
  0
LINE
  8
0
 10
-126.573
 20
156.147
 11
-126.938
 21
156.053
  0
LINE
  8
0
 10
-126.938
 20
156.053
 11
-127.312
 21
156.006
  0
LINE
  8
0
 10
-127.312
 20
156.006
 11
-127.688
 21
156.006
  0
LINE
  8
0
 10
-127.688
 20
66.0059
 11
-128.062
 21
66.0531
  0
LINE
  8
0
 10
-128.062
 20
66.0531
 11
-128.427
 21
66.1468
  0
LINE
  8
0
 10
-128.427
 20
66.1468
 11
-128.777
 21
66.2855
  0
LINE
  8
0
 10
-128.777
 20
66.2855
 11
-129.107
 21
66.467
  0
LINE
  8
0
 10
-129.107
 20
66.467
 11
-129.412
 21
66.6885
  0
LINE
  8
0
 10
-129.412
 20
66.6885
 11
-129.687
 21
66.9464
  0
LINE
  8
0
 10
-129.687
 20
66.9464
 11
-129.927
 21
67.2366
  0
LINE
  8
0
 10
-129.927
 20
67.2366
 11
-130.129
 21
67.5547
  0
LINE
  8
0
 10
-130.129
 20
67.5547
 11
-130.289
 21
67.8956
  0
LINE
  8
0
 10
-130.289
 20
67.8956
 11
-130.406
 21
68.2539
  0
LINE
  8
0
 10
-130.406
 20
68.2539
 11
-130.476
 21
68.624
  0
LINE
  8
0
 10
-130.476
 20
68.624
 11
-130.5
 21
69
  0
LINE
  8
0
 10
-130.5
 20
69
 11
-130.476
 21
69.376
  0
LINE
  8
0
 10
-130.476
 20
69.376
 11
-130.406
 21
69.7461
  0
LINE
  8
0
 10
-130.406
 20
69.7461
 11
-130.289
 21
70.1044
  0
LINE
  8
0
 10
-130.289
 20
70.1044
 11
-130.129
 21
70.4453
  0
LINE
  8
0
 10
-130.129
 20
70.4453
 11
-129.927
 21
70.7634
  0
LINE
  8
0
 10
-129.927
 20
70.7634
 11
-129.687
 21
71.0536
  0
LINE
  8
0
 10
-129.687
 20
71.0536
 11
-129.412
 21
71.3115
  0
LINE
  8
0
 10
-129.412
 20
71.3115
 11
-129.107
 21
71.533
  0
LINE
  8
0
 10
-129.107
 20
71.533
 11
-128.777
 21
71.7145
  0
LINE
  8
0
 10
-128.777
 20
71.7145
 11
-128.427
 21
71.8532
  0
LINE
  8
0
 10
-128.427
 20
71.8532
 11
-128.062
 21
71.9469
  0
LINE
  8
0
 10
-128.062
 20
71.9469
 11
-127.688
 21
71.9941
  0
LINE
  8
0
 10
-127.688
 20
71.9941
 11
-127.312
 21
71.9941
  0
LINE
  8
0
 10
-127.312
 20
71.9941
 11
-126.938
 21
71.9469
  0
LINE
  8
0
 10
-126.938
 20
71.9469
 11
-126.573
 21
71.8532
  0
LINE
  8
0
 10
-126.573
 20
71.8532
 11
-126.223
 21
71.7145
  0
LINE
  8
0
 10
-126.223
 20
71.7145
 11
-125.893
 21
71.533
  0
LINE
  8
0
 10
-125.893
 20
71.533
 11
-125.588
 21
71.3115
  0
LINE
  8
0
 10
-125.588
 20
71.3115
 11
-125.313
 21
71.0536
  0
LINE
  8
0
 10
-125.313
 20
71.0536
 11
-125.073
 21
70.7634
  0
LINE
  8
0
 10
-125.073
 20
70.7634
 11
-124.871
 21
70.4453
  0
LINE
  8
0
 10
-124.871
 20
70.4453
 11
-124.711
 21
70.1044
  0
LINE
  8
0
 10
-124.711
 20
70.1044
 11
-124.594
 21
69.7461
  0
LINE
  8
0
 10
-124.594
 20
69.7461
 11
-124.524
 21
69.376
  0
LINE
  8
0
 10
-124.524
 20
69.376
 11
-124.5
 21
69
  0
LINE
  8
0
 10
-124.5
 20
69
 11
-124.524
 21
68.624
  0
LINE
  8
0
 10
-124.524
 20
68.624
 11
-124.594
 21
68.2539
  0
LINE
  8
0
 10
-124.594
 20
68.2539
 11
-124.711
 21
67.8956
  0
LINE
  8
0
 10
-124.711
 20
67.8956
 11
-124.871
 21
67.5547
  0
LINE
  8
0
 10
-124.871
 20
67.5547
 11
-125.073
 21
67.2366
  0
LINE
  8
0
 10
-125.073
 20
67.2366
 11
-125.313
 21
66.9464
  0
LINE
  8
0
 10
-125.313
 20
66.9464
 11
-125.588
 21
66.6885
  0
LINE
  8
0
 10
-125.588
 20
66.6885
 11
-125.893
 21
66.467
  0
LINE
  8
0
 10
-125.893
 20
66.467
 11
-126.223
 21
66.2855
  0
LINE
  8
0
 10
-126.223
 20
66.2855
 11
-126.573
 21
66.1468
  0
LINE
  8
0
 10
-126.573
 20
66.1468
 11
-126.938
 21
66.0531
  0
LINE
  8
0
 10
-126.938
 20
66.0531
 11
-127.312
 21
66.0059
  0
LINE
  8
0
 10
-127.312
 20
66.0059
 11
-127.688
 21
66.0059
  0
LINE
  8
0
 10
127.312
 20
66.0059
 11
126.938
 21
66.0531
  0
LINE
  8
0
 10
126.938
 20
66.0531
 11
126.573
 21
66.1468
  0
LINE
  8
0
 10
126.573
 20
66.1468
 11
126.223
 21
66.2855
  0
LINE
  8
0
 10
126.223
 20
66.2855
 11
125.893
 21
66.467
  0
LINE
  8
0
 10
125.893
 20
66.467
 11
125.588
 21
66.6885
  0
LINE
  8
0
 10
125.588
 20
66.6885
 11
125.313
 21
66.9464
  0
LINE
  8
0
 10
125.313
 20
66.9464
 11
125.073
 21
67.2366
  0
LINE
  8
0
 10
125.073
 20
67.2366
 11
124.871
 21
67.5547
  0
LINE
  8
0
 10
124.871
 20
67.5547
 11
124.711
 21
67.8956
  0
LINE
  8
0
 10
124.711
 20
67.8956
 11
124.594
 21
68.2539
  0
LINE
  8
0
 10
124.594
 20
68.2539
 11
124.524
 21
68.624
  0
LINE
  8
0
 10
124.524
 20
68.624
 11
124.5
 21
69
  0
LINE
  8
0
 10
124.5
 20
69
 11
124.524
 21
69.376
  0
LINE
  8
0
 10
124.524
 20
69.376
 11
124.594
 21
69.7461
  0
LINE
  8
0
 10
124.594
 20
69.7461
 11
124.711
 21
70.1044
  0
LINE
  8
0
 10
124.711
 20
70.1044
 11
124.871
 21
70.4453
  0
LINE
  8
0
 10
124.871
 20
70.4453
 11
125.073
 21
70.7634
  0
LINE
  8
0
 10
125.073
 20
70.7634
 11
125.313
 21
71.0536
  0
LINE
  8
0
 10
125.313
 20
71.0536
 11
125.588
 21
71.3115
  0
LINE
  8
0
 10
125.588
 20
71.3115
 11
125.893
 21
71.533
  0
LINE
  8
0
 10
125.893
 20
71.533
 11
126.223
 21
71.7145
  0
LINE
  8
0
 10
126.223
 20
71.7145
 11
126.573
 21
71.8532
  0
LINE
  8
0
 10
126.573
 20
71.8532
 11
126.938
 21
71.9469
  0
LINE
  8
0
 10
126.938
 20
71.9469
 11
127.312
 21
71.9941
  0
LINE
  8
0
 10
127.312
 20
71.9941
 11
127.688
 21
71.9941
  0
LINE
  8
0
 10
127.688
 20
71.9941
 11
128.062
 21
71.9469
  0
LINE
  8
0
 10
128.062
 20
71.9469
 11
128.427
 21
71.8532
  0
LINE
  8
0
 10
128.427
 20
71.8532
 11
128.777
 21
71.7145
  0
LINE
  8
0
 10
128.777
 20
71.7145
 11
129.107
 21
71.533
  0
LINE
  8
0
 10
129.107
 20
71.533
 11
129.412
 21
71.3115
  0
LINE
  8
0
 10
129.412
 20
71.3115
 11
129.687
 21
71.0536
  0
LINE
  8
0
 10
129.687
 20
71.0536
 11
129.927
 21
70.7634
  0
LINE
  8
0
 10
129.927
 20
70.7634
 11
130.129
 21
70.4453
  0
LINE
  8
0
 10
130.129
 20
70.4453
 11
130.289
 21
70.1044
  0
LINE
  8
0
 10
130.289
 20
70.1044
 11
130.406
 21
69.7461
  0
LINE
  8
0
 10
130.406
 20
69.7461
 11
130.476
 21
69.376
  0
LINE
  8
0
 10
130.476
 20
69.376
 11
130.5
 21
69
  0
LINE
  8
0
 10
130.5
 20
69
 11
130.476
 21
68.624
  0
LINE
  8
0
 10
130.476
 20
68.624
 11
130.406
 21
68.2539
  0
LINE
  8
0
 10
130.406
 20
68.2539
 11
130.289
 21
67.8956
  0
LINE
  8
0
 10
130.289
 20
67.8956
 11
130.129
 21
67.5547
  0
LINE
  8
0
 10
130.129
 20
67.5547
 11
129.927
 21
67.2366
  0
LINE
  8
0
 10
129.927
 20
67.2366
 11
129.687
 21
66.9464
  0
LINE
  8
0
 10
129.687
 20
66.9464
 11
129.412
 21
66.6885
  0
LINE
  8
0
 10
129.412
 20
66.6885
 11
129.107
 21
66.467
  0
LINE
  8
0
 10
129.107
 20
66.467
 11
128.777
 21
66.2855
  0
LINE
  8
0
 10
128.777
 20
66.2855
 11
128.427
 21
66.1468
  0
LINE
  8
0
 10
128.427
 20
66.1468
 11
128.062
 21
66.0531
  0
LINE
  8
0
 10
128.062
 20
66.0531
 11
127.688
 21
66.0059
  0
LINE
  8
0
 10
127.688
 20
66.0059
 11
127.312
 21
66.0059
  0
ENDSEC
  0
SECTION
  2
OBJECTS
  0
DICTIONARY
  0
ENDSEC
  0
EOF
