  0
SECTION
  2
BLOCKS
  0
ENDSEC
  0
SECTION
  2
ENTITIES
  0
LINE
  8
0
 10
10.4369
 20
17.0886
 11
11.0451
 21
17.2447
  0
LINE
  8
0
 10
11.0451
 20
17.2447
 11
11.6289
 21
17.4759
  0
LINE
  8
0
 10
11.6289
 20
17.4759
 11
12.1791
 21
17.7784
  0
LINE
  8
0
 10
12.1791
 20
17.7784
 11
12.6871
 21
18.1474
  0
LINE
  8
0
 10
12.6871
 20
18.1474
 11
13.1448
 21
18.5773
  0
LINE
  8
0
 10
13.1448
 20
18.5773
 11
13.5451
 21
19.0611
  0
LINE
  8
0
 10
13.5451
 20
19.0611
 11
13.8815
 21
19.5912
  0
LINE
  8
0
 10
13.8815
 20
19.5912
 11
14.1489
 21
20.1594
  0
LINE
  8
0
 10
14.1489
 20
20.1594
 11
14.3429
 21
20.7566
  0
LINE
  8
0
 10
14.3429
 20
20.7566
 11
14.4606
 21
21.3733
  0
LINE
  8
0
 10
14.4606
 20
21.3733
 11
14.5
 21
22
  0
LINE
  8
0
 10
14.5
 20
22
 11
14.5
 21
26
  0
LINE
  8
0
 10
14.5
 20
26
 11
14.4606
 21
26.6267
  0
LINE
  8
0
 10
14.4606
 20
26.6267
 11
14.3429
 21
27.2434
  0
LINE
  8
0
 10
14.3429
 20
27.2434
 11
14.1489
 21
27.8406
  0
LINE
  8
0
 10
14.1489
 20
27.8406
 11
13.8815
 21
28.4088
  0
LINE
  8
0
 10
13.8815
 20
28.4088
 11
13.5451
 21
28.9389
  0
LINE
  8
0
 10
13.5451
 20
28.9389
 11
13.1448
 21
29.4227
  0
LINE
  8
0
 10
13.1448
 20
29.4227
 11
12.6871
 21
29.8526
  0
LINE
  8
0
 10
12.6871
 20
29.8526
 11
12.1791
 21
30.2216
  0
LINE
  8
0
 10
12.1791
 20
30.2216
 11
11.6289
 21
30.5241
  0
LINE
  8
0
 10
11.6289
 20
30.5241
 11
11.0451
 21
30.7553
  0
LINE
  8
0
 10
11.0451
 20
30.7553
 11
10.4369
 21
30.9114
  0
LINE
  8
0
 10
10.4369
 20
30.9114
 11
9.81395
 21
30.9901
  0
LINE
  8
0
 10
9.81395
 20
30.9901
 11
-9.81395
 21
30.9901
  0
LINE
  8
0
 10
-9.81395
 20
30.9901
 11
-10.4369
 21
30.9114
  0
LINE
  8
0
 10
-10.4369
 20
30.9114
 11
-11.0451
 21
30.7553
  0
LINE
  8
0
 10
-11.0451
 20
30.7553
 11
-11.6289
 21
30.5241
  0
LINE
  8
0
 10
-11.6289
 20
30.5241
 11
-12.1791
 21
30.2216
  0
LINE
  8
0
 10
-12.1791
 20
30.2216
 11
-12.6871
 21
29.8526
  0
LINE
  8
0
 10
-12.6871
 20
29.8526
 11
-13.1448
 21
29.4227
  0
LINE
  8
0
 10
-13.1448
 20
29.4227
 11
-13.5451
 21
28.9389
  0
LINE
  8
0
 10
-13.5451
 20
28.9389
 11
-13.8815
 21
28.4088
  0
LINE
  8
0
 10
-13.8815
 20
28.4088
 11
-14.1489
 21
27.8406
  0
LINE
  8
0
 10
-14.1489
 20
27.8406
 11
-14.3429
 21
27.2434
  0
LINE
  8
0
 10
-14.3429
 20
27.2434
 11
-14.4606
 21
26.6267
  0
LINE
  8
0
 10
-14.4606
 20
26.6267
 11
-14.5
 21
26
  0
LINE
  8
0
 10
-14.5
 20
26
 11
-14.5
 21
22
  0
LINE
  8
0
 10
-14.5
 20
22
 11
-14.4606
 21
21.3733
  0
LINE
  8
0
 10
-14.4606
 20
21.3733
 11
-14.3429
 21
20.7566
  0
LINE
  8
0
 10
-14.3429
 20
20.7566
 11
-14.1489
 21
20.1594
  0
LINE
  8
0
 10
-14.1489
 20
20.1594
 11
-13.8815
 21
19.5912
  0
LINE
  8
0
 10
-13.8815
 20
19.5912
 11
-13.5451
 21
19.0611
  0
LINE
  8
0
 10
-13.5451
 20
19.0611
 11
-13.1448
 21
18.5773
  0
LINE
  8
0
 10
-13.1448
 20
18.5773
 11
-12.6871
 21
18.1474
  0
LINE
  8
0
 10
-12.6871
 20
18.1474
 11
-12.1791
 21
17.7784
  0
LINE
  8
0
 10
-12.1791
 20
17.7784
 11
-11.6289
 21
17.4759
  0
LINE
  8
0
 10
-11.6289
 20
17.4759
 11
-11.0451
 21
17.2447
  0
LINE
  8
0
 10
-11.0451
 20
17.2447
 11
-10.4369
 21
17.0886
  0
LINE
  8
0
 10
-10.4369
 20
17.0886
 11
-9.81395
 21
17.0099
  0
LINE
  8
0
 10
-9.81395
 20
17.0099
 11
9.81395
 21
17.0099
  0
LINE
  8
0
 10
9.81395
 20
17.0099
 11
10.4369
 21
17.0886
  0
LINE
  8
0
 10
7.40581
 20
22.503
 11
7.21892
 21
22.5266
  0
LINE
  8
0
 10
7.21892
 20
22.5266
 11
7.03647
 21
22.5734
  0
LINE
  8
0
 10
7.03647
 20
22.5734
 11
6.86133
 21
22.6428
  0
LINE
  8
0
 10
6.86133
 20
22.6428
 11
6.69626
 21
22.7335
  0
LINE
  8
0
 10
6.69626
 20
22.7335
 11
6.54385
 21
22.8442
  0
LINE
  8
0
 10
6.54385
 20
22.8442
 11
6.40654
 21
22.9732
  0
LINE
  8
0
 10
6.40654
 20
22.9732
 11
6.28647
 21
23.1183
  0
LINE
  8
0
 10
6.28647
 20
23.1183
 11
6.18553
 21
23.2774
  0
LINE
  8
0
 10
6.18553
 20
23.2774
 11
6.10533
 21
23.4478
  0
LINE
  8
0
 10
6.10533
 20
23.4478
 11
6.04712
 21
23.627
  0
LINE
  8
0
 10
6.04712
 20
23.627
 11
6.01183
 21
23.812
  0
LINE
  8
0
 10
6.01183
 20
23.812
 11
6
 21
24
  0
LINE
  8
0
 10
6
 20
24
 11
6.01183
 21
24.188
  0
LINE
  8
0
 10
6.01183
 20
24.188
 11
6.04712
 21
24.373
  0
LINE
  8
0
 10
6.04712
 20
24.373
 11
6.10533
 21
24.5522
  0
LINE
  8
0
 10
6.10533
 20
24.5522
 11
6.18553
 21
24.7226
  0
LINE
  8
0
 10
6.18553
 20
24.7226
 11
6.28647
 21
24.8817
  0
LINE
  8
0
 10
6.28647
 20
24.8817
 11
6.40654
 21
25.0268
  0
LINE
  8
0
 10
6.40654
 20
25.0268
 11
6.54385
 21
25.1558
  0
LINE
  8
0
 10
6.54385
 20
25.1558
 11
6.69626
 21
25.2665
  0
LINE
  8
0
 10
6.69626
 20
25.2665
 11
6.86133
 21
25.3572
  0
LINE
  8
0
 10
6.86133
 20
25.3572
 11
7.03647
 21
25.4266
  0
LINE
  8
0
 10
7.03647
 20
25.4266
 11
7.21892
 21
25.4734
  0
LINE
  8
0
 10
7.21892
 20
25.4734
 11
7.40581
 21
25.497
  0
LINE
  8
0
 10
7.40581
 20
25.497
 11
7.59418
 21
25.497
  0
LINE
  8
0
 10
7.59418
 20
25.497
 11
7.78107
 21
25.4734
  0
LINE
  8
0
 10
7.78107
 20
25.4734
 11
7.96352
 21
25.4266
  0
LINE
  8
0
 10
7.96352
 20
25.4266
 11
8.13866
 21
25.3572
  0
LINE
  8
0
 10
8.13866
 20
25.3572
 11
8.30373
 21
25.2665
  0
LINE
  8
0
 10
8.30373
 20
25.2665
 11
8.45613
 21
25.1558
  0
LINE
  8
0
 10
8.45613
 20
25.1558
 11
8.59344
 21
25.0268
  0
LINE
  8
0
 10
8.59344
 20
25.0268
 11
8.71352
 21
24.8817
  0
LINE
  8
0
 10
8.71352
 20
24.8817
 11
8.81445
 21
24.7226
  0
LINE
  8
0
 10
8.81445
 20
24.7226
 11
8.89465
 21
24.5522
  0
LINE
  8
0
 10
8.89465
 20
24.5522
 11
8.95287
 21
24.373
  0
LINE
  8
0
 10
8.95287
 20
24.373
 11
8.98816
 21
24.188
  0
LINE
  8
0
 10
8.98816
 20
24.188
 11
9
 21
24
  0
LINE
  8
0
 10
9
 20
24
 11
8.98816
 21
23.812
  0
LINE
  8
0
 10
8.98816
 20
23.812
 11
8.95287
 21
23.627
  0
LINE
  8
0
 10
8.95287
 20
23.627
 11
8.89465
 21
23.4478
  0
LINE
  8
0
 10
8.89465
 20
23.4478
 11
8.81445
 21
23.2774
  0
LINE
  8
0
 10
8.81445
 20
23.2774
 11
8.71352
 21
23.1183
  0
LINE
  8
0
 10
8.71352
 20
23.1183
 11
8.59344
 21
22.9732
  0
LINE
  8
0
 10
8.59344
 20
22.9732
 11
8.45613
 21
22.8442
  0
LINE
  8
0
 10
8.45613
 20
22.8442
 11
8.30373
 21
22.7335
  0
LINE
  8
0
 10
8.30373
 20
22.7335
 11
8.13866
 21
22.6428
  0
LINE
  8
0
 10
8.13866
 20
22.6428
 11
7.96352
 21
22.5734
  0
LINE
  8
0
 10
7.96352
 20
22.5734
 11
7.78107
 21
22.5266
  0
LINE
  8
0
 10
7.78107
 20
22.5266
 11
7.59418
 21
22.503
  0
LINE
  8
0
 10
7.59418
 20
22.503
 11
7.40581
 21
22.503
  0
LINE
  8
0
 10
-0.0941772
 20
22.503
 11
-0.281067
 21
22.5266
  0
LINE
  8
0
 10
-0.281067
 20
22.5266
 11
-0.463516
 21
22.5734
  0
LINE
  8
0
 10
-0.463516
 20
22.5734
 11
-0.638657
 21
22.6428
  0
LINE
  8
0
 10
-0.638657
 20
22.6428
 11
-0.803726
 21
22.7335
  0
LINE
  8
0
 10
-0.803726
 20
22.7335
 11
-0.956131
 21
22.8442
  0
LINE
  8
0
 10
-0.956131
 20
22.8442
 11
-1.09344
 21
22.9732
  0
LINE
  8
0
 10
-1.09344
 20
22.9732
 11
-1.21352
 21
23.1183
  0
LINE
  8
0
 10
-1.21352
 20
23.1183
 11
-1.31445
 21
23.2774
  0
LINE
  8
0
 10
-1.31445
 20
23.2774
 11
-1.39465
 21
23.4478
  0
LINE
  8
0
 10
-1.39465
 20
23.4478
 11
-1.45287
 21
23.627
  0
LINE
  8
0
 10
-1.45287
 20
23.627
 11
-1.48816
 21
23.812
  0
LINE
  8
0
 10
-1.48816
 20
23.812
 11
-1.5
 21
24
  0
LINE
  8
0
 10
-1.5
 20
24
 11
-1.48816
 21
24.188
  0
LINE
  8
0
 10
-1.48816
 20
24.188
 11
-1.45287
 21
24.373
  0
LINE
  8
0
 10
-1.45287
 20
24.373
 11
-1.39465
 21
24.5522
  0
LINE
  8
0
 10
-1.39465
 20
24.5522
 11
-1.31445
 21
24.7226
  0
LINE
  8
0
 10
-1.31445
 20
24.7226
 11
-1.21352
 21
24.8817
  0
LINE
  8
0
 10
-1.21352
 20
24.8817
 11
-1.09344
 21
25.0268
  0
LINE
  8
0
 10
-1.09344
 20
25.0268
 11
-0.956131
 21
25.1558
  0
LINE
  8
0
 10
-0.956131
 20
25.1558
 11
-0.803726
 21
25.2665
  0
LINE
  8
0
 10
-0.803726
 20
25.2665
 11
-0.638657
 21
25.3572
  0
LINE
  8
0
 10
-0.638657
 20
25.3572
 11
-0.463516
 21
25.4266
  0
LINE
  8
0
 10
-0.463516
 20
25.4266
 11
-0.281067
 21
25.4734
  0
LINE
  8
0
 10
-0.281067
 20
25.4734
 11
-0.0941772
 21
25.497
  0
LINE
  8
0
 10
-0.0941772
 20
25.497
 11
0.0941772
 21
25.497
  0
LINE
  8
0
 10
0.0941772
 20
25.497
 11
0.281067
 21
25.4734
  0
LINE
  8
0
 10
0.281067
 20
25.4734
 11
0.463516
 21
25.4266
  0
LINE
  8
0
 10
0.463516
 20
25.4266
 11
0.638657
 21
25.3572
  0
LINE
  8
0
 10
0.638657
 20
25.3572
 11
0.803726
 21
25.2665
  0
LINE
  8
0
 10
0.803726
 20
25.2665
 11
0.956131
 21
25.1558
  0
LINE
  8
0
 10
0.956131
 20
25.1558
 11
1.09344
 21
25.0268
  0
LINE
  8
0
 10
1.09344
 20
25.0268
 11
1.21352
 21
24.8817
  0
LINE
  8
0
 10
1.21352
 20
24.8817
 11
1.31445
 21
24.7226
  0
LINE
  8
0
 10
1.31445
 20
24.7226
 11
1.39465
 21
24.5522
  0
LINE
  8
0
 10
1.39465
 20
24.5522
 11
1.45287
 21
24.373
  0
LINE
  8
0
 10
1.45287
 20
24.373
 11
1.48816
 21
24.188
  0
LINE
  8
0
 10
1.48816
 20
24.188
 11
1.5
 21
24
  0
LINE
  8
0
 10
1.5
 20
24
 11
1.48816
 21
23.812
  0
LINE
  8
0
 10
1.48816
 20
23.812
 11
1.45287
 21
23.627
  0
LINE
  8
0
 10
1.45287
 20
23.627
 11
1.39465
 21
23.4478
  0
LINE
  8
0
 10
1.39465
 20
23.4478
 11
1.31445
 21
23.2774
  0
LINE
  8
0
 10
1.31445
 20
23.2774
 11
1.21352
 21
23.1183
  0
LINE
  8
0
 10
1.21352
 20
23.1183
 11
1.09344
 21
22.9732
  0
LINE
  8
0
 10
1.09344
 20
22.9732
 11
0.956131
 21
22.8442
  0
LINE
  8
0
 10
0.956131
 20
22.8442
 11
0.803726
 21
22.7335
  0
LINE
  8
0
 10
0.803726
 20
22.7335
 11
0.638657
 21
22.6428
  0
LINE
  8
0
 10
0.638657
 20
22.6428
 11
0.463516
 21
22.5734
  0
LINE
  8
0
 10
0.463516
 20
22.5734
 11
0.281067
 21
22.5266
  0
LINE
  8
0
 10
0.281067
 20
22.5266
 11
0.0941772
 21
22.503
  0
LINE
  8
0
 10
0.0941772
 20
22.503
 11
-0.0941772
 21
22.503
  0
LINE
  8
0
 10
-7.59418
 20
22.503
 11
-7.78107
 21
22.5266
  0
LINE
  8
0
 10
-7.78107
 20
22.5266
 11
-7.96352
 21
22.5734
  0
LINE
  8
0
 10
-7.96352
 20
22.5734
 11
-8.13866
 21
22.6428
  0
LINE
  8
0
 10
-8.13866
 20
22.6428
 11
-8.30373
 21
22.7335
  0
LINE
  8
0
 10
-8.30373
 20
22.7335
 11
-8.45613
 21
22.8442
  0
LINE
  8
0
 10
-8.45613
 20
22.8442
 11
-8.59344
 21
22.9732
  0
LINE
  8
0
 10
-8.59344
 20
22.9732
 11
-8.71352
 21
23.1183
  0
LINE
  8
0
 10
-8.71352
 20
23.1183
 11
-8.81445
 21
23.2774
  0
LINE
  8
0
 10
-8.81445
 20
23.2774
 11
-8.89465
 21
23.4478
  0
LINE
  8
0
 10
-8.89465
 20
23.4478
 11
-8.95287
 21
23.627
  0
LINE
  8
0
 10
-8.95287
 20
23.627
 11
-8.98816
 21
23.812
  0
LINE
  8
0
 10
-8.98816
 20
23.812
 11
-9
 21
24
  0
LINE
  8
0
 10
-9
 20
24
 11
-8.98816
 21
24.188
  0
LINE
  8
0
 10
-8.98816
 20
24.188
 11
-8.95287
 21
24.373
  0
LINE
  8
0
 10
-8.95287
 20
24.373
 11
-8.89465
 21
24.5522
  0
LINE
  8
0
 10
-8.89465
 20
24.5522
 11
-8.81445
 21
24.7226
  0
LINE
  8
0
 10
-8.81445
 20
24.7226
 11
-8.71352
 21
24.8817
  0
LINE
  8
0
 10
-8.71352
 20
24.8817
 11
-8.59344
 21
25.0268
  0
LINE
  8
0
 10
-8.59344
 20
25.0268
 11
-8.45613
 21
25.1558
  0
LINE
  8
0
 10
-8.45613
 20
25.1558
 11
-8.30373
 21
25.2665
  0
LINE
  8
0
 10
-8.30373
 20
25.2665
 11
-8.13866
 21
25.3572
  0
LINE
  8
0
 10
-8.13866
 20
25.3572
 11
-7.96352
 21
25.4266
  0
LINE
  8
0
 10
-7.96352
 20
25.4266
 11
-7.78107
 21
25.4734
  0
LINE
  8
0
 10
-7.78107
 20
25.4734
 11
-7.59418
 21
25.497
  0
LINE
  8
0
 10
-7.59418
 20
25.497
 11
-7.40581
 21
25.497
  0
LINE
  8
0
 10
-7.40581
 20
25.497
 11
-7.21892
 21
25.4734
  0
LINE
  8
0
 10
-7.21892
 20
25.4734
 11
-7.03647
 21
25.4266
  0
LINE
  8
0
 10
-7.03647
 20
25.4266
 11
-6.86133
 21
25.3572
  0
LINE
  8
0
 10
-6.86133
 20
25.3572
 11
-6.69626
 21
25.2665
  0
LINE
  8
0
 10
-6.69626
 20
25.2665
 11
-6.54385
 21
25.1558
  0
LINE
  8
0
 10
-6.54385
 20
25.1558
 11
-6.40654
 21
25.0268
  0
LINE
  8
0
 10
-6.40654
 20
25.0268
 11
-6.28647
 21
24.8817
  0
LINE
  8
0
 10
-6.28647
 20
24.8817
 11
-6.18553
 21
24.7226
  0
LINE
  8
0
 10
-6.18553
 20
24.7226
 11
-6.10533
 21
24.5522
  0
LINE
  8
0
 10
-6.10533
 20
24.5522
 11
-6.04712
 21
24.373
  0
LINE
  8
0
 10
-6.04712
 20
24.373
 11
-6.01183
 21
24.188
  0
LINE
  8
0
 10
-6.01183
 20
24.188
 11
-6
 21
24
  0
LINE
  8
0
 10
-6
 20
24
 11
-6.01183
 21
23.812
  0
LINE
  8
0
 10
-6.01183
 20
23.812
 11
-6.04712
 21
23.627
  0
LINE
  8
0
 10
-6.04712
 20
23.627
 11
-6.10533
 21
23.4478
  0
LINE
  8
0
 10
-6.10533
 20
23.4478
 11
-6.18553
 21
23.2774
  0
LINE
  8
0
 10
-6.18553
 20
23.2774
 11
-6.28647
 21
23.1183
  0
LINE
  8
0
 10
-6.28647
 20
23.1183
 11
-6.40654
 21
22.9732
  0
LINE
  8
0
 10
-6.40654
 20
22.9732
 11
-6.54385
 21
22.8442
  0
LINE
  8
0
 10
-6.54385
 20
22.8442
 11
-6.69626
 21
22.7335
  0
LINE
  8
0
 10
-6.69626
 20
22.7335
 11
-6.86133
 21
22.6428
  0
LINE
  8
0
 10
-6.86133
 20
22.6428
 11
-7.03647
 21
22.5734
  0
LINE
  8
0
 10
-7.03647
 20
22.5734
 11
-7.21892
 21
22.5266
  0
LINE
  8
0
 10
-7.21892
 20
22.5266
 11
-7.40581
 21
22.503
  0
LINE
  8
0
 10
-7.40581
 20
22.503
 11
-7.59418
 21
22.503
  0
ENDSEC
  0
SECTION
  2
OBJECTS
  0
DICTIONARY
  0
ENDSEC
  0
EOF
