  0
SECTION
  2
BLOCKS
  0
ENDSEC
  0
SECTION
  2
ENTITIES
  0
LINE
  8
0
 10
130.437
 20
974.089
 11
131.045
 21
974.245
  0
LINE
  8
0
 10
131.045
 20
974.245
 11
131.629
 21
974.476
  0
LINE
  8
0
 10
131.629
 20
974.476
 11
132.179
 21
974.778
  0
LINE
  8
0
 10
132.179
 20
974.778
 11
132.687
 21
975.147
  0
LINE
  8
0
 10
132.687
 20
975.147
 11
133.145
 21
975.577
  0
LINE
  8
0
 10
133.145
 20
975.577
 11
133.545
 21
976.061
  0
LINE
  8
0
 10
133.545
 20
976.061
 11
133.882
 21
976.591
  0
LINE
  8
0
 10
133.882
 20
976.591
 11
134.149
 21
977.159
  0
LINE
  8
0
 10
134.149
 20
977.159
 11
134.343
 21
977.757
  0
LINE
  8
0
 10
134.343
 20
977.757
 11
134.461
 21
978.373
  0
LINE
  8
0
 10
134.461
 20
978.373
 11
134.5
 21
979
  0
LINE
  8
0
 10
134.5
 20
979
 11
134.5
 21
1073
  0
LINE
  8
0
 10
134.5
 20
1073
 11
134.461
 21
1073.63
  0
LINE
  8
0
 10
134.461
 20
1073.63
 11
134.343
 21
1074.24
  0
LINE
  8
0
 10
134.343
 20
1074.24
 11
134.149
 21
1074.84
  0
LINE
  8
0
 10
134.149
 20
1074.84
 11
133.882
 21
1075.41
  0
LINE
  8
0
 10
133.882
 20
1075.41
 11
133.545
 21
1075.94
  0
LINE
  8
0
 10
133.545
 20
1075.94
 11
133.145
 21
1076.42
  0
LINE
  8
0
 10
133.145
 20
1076.42
 11
132.687
 21
1076.85
  0
LINE
  8
0
 10
132.687
 20
1076.85
 11
132.179
 21
1077.22
  0
LINE
  8
0
 10
132.179
 20
1077.22
 11
131.629
 21
1077.52
  0
LINE
  8
0
 10
131.629
 20
1077.52
 11
131.045
 21
1077.76
  0
LINE
  8
0
 10
131.045
 20
1077.76
 11
130.437
 21
1077.91
  0
LINE
  8
0
 10
130.437
 20
1077.91
 11
129.814
 21
1077.99
  0
LINE
  8
0
 10
129.814
 20
1077.99
 11
-129.814
 21
1077.99
  0
LINE
  8
0
 10
-129.814
 20
1077.99
 11
-130.437
 21
1077.91
  0
LINE
  8
0
 10
-130.437
 20
1077.91
 11
-131.045
 21
1077.76
  0
LINE
  8
0
 10
-131.045
 20
1077.76
 11
-131.629
 21
1077.52
  0
LINE
  8
0
 10
-131.629
 20
1077.52
 11
-132.179
 21
1077.22
  0
LINE
  8
0
 10
-132.179
 20
1077.22
 11
-132.687
 21
1076.85
  0
LINE
  8
0
 10
-132.687
 20
1076.85
 11
-133.145
 21
1076.42
  0
LINE
  8
0
 10
-133.145
 20
1076.42
 11
-133.545
 21
1075.94
  0
LINE
  8
0
 10
-133.545
 20
1075.94
 11
-133.882
 21
1075.41
  0
LINE
  8
0
 10
-133.882
 20
1075.41
 11
-134.149
 21
1074.84
  0
LINE
  8
0
 10
-134.149
 20
1074.84
 11
-134.343
 21
1074.24
  0
LINE
  8
0
 10
-134.343
 20
1074.24
 11
-134.461
 21
1073.63
  0
LINE
  8
0
 10
-134.461
 20
1073.63
 11
-134.5
 21
1073
  0
LINE
  8
0
 10
-134.5
 20
1073
 11
-134.5
 21
979
  0
LINE
  8
0
 10
-134.5
 20
979
 11
-134.461
 21
978.373
  0
LINE
  8
0
 10
-134.461
 20
978.373
 11
-134.343
 21
977.757
  0
LINE
  8
0
 10
-134.343
 20
977.757
 11
-134.149
 21
977.159
  0
LINE
  8
0
 10
-134.149
 20
977.159
 11
-133.882
 21
976.591
  0
LINE
  8
0
 10
-133.882
 20
976.591
 11
-133.545
 21
976.061
  0
LINE
  8
0
 10
-133.545
 20
976.061
 11
-133.145
 21
975.577
  0
LINE
  8
0
 10
-133.145
 20
975.577
 11
-132.687
 21
975.147
  0
LINE
  8
0
 10
-132.687
 20
975.147
 11
-132.179
 21
974.778
  0
LINE
  8
0
 10
-132.179
 20
974.778
 11
-131.629
 21
974.476
  0
LINE
  8
0
 10
-131.629
 20
974.476
 11
-131.045
 21
974.245
  0
LINE
  8
0
 10
-131.045
 20
974.245
 11
-130.437
 21
974.089
  0
LINE
  8
0
 10
-130.437
 20
974.089
 11
-129.814
 21
974.01
  0
LINE
  8
0
 10
-129.814
 20
974.01
 11
129.814
 21
974.01
  0
LINE
  8
0
 10
129.814
 20
974.01
 11
130.437
 21
974.089
  0
LINE
  8
0
 10
127.312
 20
1068.01
 11
126.938
 21
1068.05
  0
LINE
  8
0
 10
126.938
 20
1068.05
 11
126.573
 21
1068.15
  0
LINE
  8
0
 10
126.573
 20
1068.15
 11
126.223
 21
1068.29
  0
LINE
  8
0
 10
126.223
 20
1068.29
 11
125.893
 21
1068.47
  0
LINE
  8
0
 10
125.893
 20
1068.47
 11
125.588
 21
1068.69
  0
LINE
  8
0
 10
125.588
 20
1068.69
 11
125.313
 21
1068.95
  0
LINE
  8
0
 10
125.313
 20
1068.95
 11
125.073
 21
1069.24
  0
LINE
  8
0
 10
125.073
 20
1069.24
 11
124.871
 21
1069.55
  0
LINE
  8
0
 10
124.871
 20
1069.55
 11
124.711
 21
1069.9
  0
LINE
  8
0
 10
124.711
 20
1069.9
 11
124.594
 21
1070.25
  0
LINE
  8
0
 10
124.594
 20
1070.25
 11
124.524
 21
1070.62
  0
LINE
  8
0
 10
124.524
 20
1070.62
 11
124.5
 21
1071
  0
LINE
  8
0
 10
124.5
 20
1071
 11
124.524
 21
1071.38
  0
LINE
  8
0
 10
124.524
 20
1071.38
 11
124.594
 21
1071.75
  0
LINE
  8
0
 10
124.594
 20
1071.75
 11
124.711
 21
1072.1
  0
LINE
  8
0
 10
124.711
 20
1072.1
 11
124.871
 21
1072.45
  0
LINE
  8
0
 10
124.871
 20
1072.45
 11
125.073
 21
1072.76
  0
LINE
  8
0
 10
125.073
 20
1072.76
 11
125.313
 21
1073.05
  0
LINE
  8
0
 10
125.313
 20
1073.05
 11
125.588
 21
1073.31
  0
LINE
  8
0
 10
125.588
 20
1073.31
 11
125.893
 21
1073.53
  0
LINE
  8
0
 10
125.893
 20
1073.53
 11
126.223
 21
1073.71
  0
LINE
  8
0
 10
126.223
 20
1073.71
 11
126.573
 21
1073.85
  0
LINE
  8
0
 10
126.573
 20
1073.85
 11
126.938
 21
1073.95
  0
LINE
  8
0
 10
126.938
 20
1073.95
 11
127.312
 21
1073.99
  0
LINE
  8
0
 10
127.312
 20
1073.99
 11
127.688
 21
1073.99
  0
LINE
  8
0
 10
127.688
 20
1073.99
 11
128.062
 21
1073.95
  0
LINE
  8
0
 10
128.062
 20
1073.95
 11
128.427
 21
1073.85
  0
LINE
  8
0
 10
128.427
 20
1073.85
 11
128.777
 21
1073.71
  0
LINE
  8
0
 10
128.777
 20
1073.71
 11
129.107
 21
1073.53
  0
LINE
  8
0
 10
129.107
 20
1073.53
 11
129.412
 21
1073.31
  0
LINE
  8
0
 10
129.412
 20
1073.31
 11
129.687
 21
1073.05
  0
LINE
  8
0
 10
129.687
 20
1073.05
 11
129.927
 21
1072.76
  0
LINE
  8
0
 10
129.927
 20
1072.76
 11
130.129
 21
1072.45
  0
LINE
  8
0
 10
130.129
 20
1072.45
 11
130.289
 21
1072.1
  0
LINE
  8
0
 10
130.289
 20
1072.1
 11
130.406
 21
1071.75
  0
LINE
  8
0
 10
130.406
 20
1071.75
 11
130.476
 21
1071.38
  0
LINE
  8
0
 10
130.476
 20
1071.38
 11
130.5
 21
1071
  0
LINE
  8
0
 10
130.5
 20
1071
 11
130.476
 21
1070.62
  0
LINE
  8
0
 10
130.476
 20
1070.62
 11
130.406
 21
1070.25
  0
LINE
  8
0
 10
130.406
 20
1070.25
 11
130.289
 21
1069.9
  0
LINE
  8
0
 10
130.289
 20
1069.9
 11
130.129
 21
1069.55
  0
LINE
  8
0
 10
130.129
 20
1069.55
 11
129.927
 21
1069.24
  0
LINE
  8
0
 10
129.927
 20
1069.24
 11
129.687
 21
1068.95
  0
LINE
  8
0
 10
129.687
 20
1068.95
 11
129.412
 21
1068.69
  0
LINE
  8
0
 10
129.412
 20
1068.69
 11
129.107
 21
1068.47
  0
LINE
  8
0
 10
129.107
 20
1068.47
 11
128.777
 21
1068.29
  0
LINE
  8
0
 10
128.777
 20
1068.29
 11
128.427
 21
1068.15
  0
LINE
  8
0
 10
128.427
 20
1068.15
 11
128.062
 21
1068.05
  0
LINE
  8
0
 10
128.062
 20
1068.05
 11
127.688
 21
1068.01
  0
LINE
  8
0
 10
127.688
 20
1068.01
 11
127.312
 21
1068.01
  0
LINE
  8
0
 10
-127.688
 20
1068.01
 11
-128.062
 21
1068.05
  0
LINE
  8
0
 10
-128.062
 20
1068.05
 11
-128.427
 21
1068.15
  0
LINE
  8
0
 10
-128.427
 20
1068.15
 11
-128.777
 21
1068.29
  0
LINE
  8
0
 10
-128.777
 20
1068.29
 11
-129.107
 21
1068.47
  0
LINE
  8
0
 10
-129.107
 20
1068.47
 11
-129.412
 21
1068.69
  0
LINE
  8
0
 10
-129.412
 20
1068.69
 11
-129.687
 21
1068.95
  0
LINE
  8
0
 10
-129.687
 20
1068.95
 11
-129.927
 21
1069.24
  0
LINE
  8
0
 10
-129.927
 20
1069.24
 11
-130.129
 21
1069.55
  0
LINE
  8
0
 10
-130.129
 20
1069.55
 11
-130.289
 21
1069.9
  0
LINE
  8
0
 10
-130.289
 20
1069.9
 11
-130.406
 21
1070.25
  0
LINE
  8
0
 10
-130.406
 20
1070.25
 11
-130.476
 21
1070.62
  0
LINE
  8
0
 10
-130.476
 20
1070.62
 11
-130.5
 21
1071
  0
LINE
  8
0
 10
-130.5
 20
1071
 11
-130.476
 21
1071.38
  0
LINE
  8
0
 10
-130.476
 20
1071.38
 11
-130.406
 21
1071.75
  0
LINE
  8
0
 10
-130.406
 20
1071.75
 11
-130.289
 21
1072.1
  0
LINE
  8
0
 10
-130.289
 20
1072.1
 11
-130.129
 21
1072.45
  0
LINE
  8
0
 10
-130.129
 20
1072.45
 11
-129.927
 21
1072.76
  0
LINE
  8
0
 10
-129.927
 20
1072.76
 11
-129.687
 21
1073.05
  0
LINE
  8
0
 10
-129.687
 20
1073.05
 11
-129.412
 21
1073.31
  0
LINE
  8
0
 10
-129.412
 20
1073.31
 11
-129.107
 21
1073.53
  0
LINE
  8
0
 10
-129.107
 20
1073.53
 11
-128.777
 21
1073.71
  0
LINE
  8
0
 10
-128.777
 20
1073.71
 11
-128.427
 21
1073.85
  0
LINE
  8
0
 10
-128.427
 20
1073.85
 11
-128.062
 21
1073.95
  0
LINE
  8
0
 10
-128.062
 20
1073.95
 11
-127.688
 21
1073.99
  0
LINE
  8
0
 10
-127.688
 20
1073.99
 11
-127.312
 21
1073.99
  0
LINE
  8
0
 10
-127.312
 20
1073.99
 11
-126.938
 21
1073.95
  0
LINE
  8
0
 10
-126.938
 20
1073.95
 11
-126.573
 21
1073.85
  0
LINE
  8
0
 10
-126.573
 20
1073.85
 11
-126.223
 21
1073.71
  0
LINE
  8
0
 10
-126.223
 20
1073.71
 11
-125.893
 21
1073.53
  0
LINE
  8
0
 10
-125.893
 20
1073.53
 11
-125.588
 21
1073.31
  0
LINE
  8
0
 10
-125.588
 20
1073.31
 11
-125.313
 21
1073.05
  0
LINE
  8
0
 10
-125.313
 20
1073.05
 11
-125.073
 21
1072.76
  0
LINE
  8
0
 10
-125.073
 20
1072.76
 11
-124.871
 21
1072.45
  0
LINE
  8
0
 10
-124.871
 20
1072.45
 11
-124.711
 21
1072.1
  0
LINE
  8
0
 10
-124.711
 20
1072.1
 11
-124.594
 21
1071.75
  0
LINE
  8
0
 10
-124.594
 20
1071.75
 11
-124.524
 21
1071.38
  0
LINE
  8
0
 10
-124.524
 20
1071.38
 11
-124.5
 21
1071
  0
LINE
  8
0
 10
-124.5
 20
1071
 11
-124.524
 21
1070.62
  0
LINE
  8
0
 10
-124.524
 20
1070.62
 11
-124.594
 21
1070.25
  0
LINE
  8
0
 10
-124.594
 20
1070.25
 11
-124.711
 21
1069.9
  0
LINE
  8
0
 10
-124.711
 20
1069.9
 11
-124.871
 21
1069.55
  0
LINE
  8
0
 10
-124.871
 20
1069.55
 11
-125.073
 21
1069.24
  0
LINE
  8
0
 10
-125.073
 20
1069.24
 11
-125.313
 21
1068.95
  0
LINE
  8
0
 10
-125.313
 20
1068.95
 11
-125.588
 21
1068.69
  0
LINE
  8
0
 10
-125.588
 20
1068.69
 11
-125.893
 21
1068.47
  0
LINE
  8
0
 10
-125.893
 20
1068.47
 11
-126.223
 21
1068.29
  0
LINE
  8
0
 10
-126.223
 20
1068.29
 11
-126.573
 21
1068.15
  0
LINE
  8
0
 10
-126.573
 20
1068.15
 11
-126.938
 21
1068.05
  0
LINE
  8
0
 10
-126.938
 20
1068.05
 11
-127.312
 21
1068.01
  0
LINE
  8
0
 10
-127.312
 20
1068.01
 11
-127.688
 21
1068.01
  0
LINE
  8
0
 10
127.312
 20
978.006
 11
126.938
 21
978.053
  0
LINE
  8
0
 10
126.938
 20
978.053
 11
126.573
 21
978.147
  0
LINE
  8
0
 10
126.573
 20
978.147
 11
126.223
 21
978.286
  0
LINE
  8
0
 10
126.223
 20
978.286
 11
125.893
 21
978.467
  0
LINE
  8
0
 10
125.893
 20
978.467
 11
125.588
 21
978.688
  0
LINE
  8
0
 10
125.588
 20
978.688
 11
125.313
 21
978.946
  0
LINE
  8
0
 10
125.313
 20
978.946
 11
125.073
 21
979.237
  0
LINE
  8
0
 10
125.073
 20
979.237
 11
124.871
 21
979.555
  0
LINE
  8
0
 10
124.871
 20
979.555
 11
124.711
 21
979.896
  0
LINE
  8
0
 10
124.711
 20
979.896
 11
124.594
 21
980.254
  0
LINE
  8
0
 10
124.594
 20
980.254
 11
124.524
 21
980.624
  0
LINE
  8
0
 10
124.524
 20
980.624
 11
124.5
 21
981
  0
LINE
  8
0
 10
124.5
 20
981
 11
124.524
 21
981.376
  0
LINE
  8
0
 10
124.524
 20
981.376
 11
124.594
 21
981.746
  0
LINE
  8
0
 10
124.594
 20
981.746
 11
124.711
 21
982.104
  0
LINE
  8
0
 10
124.711
 20
982.104
 11
124.871
 21
982.445
  0
LINE
  8
0
 10
124.871
 20
982.445
 11
125.073
 21
982.763
  0
LINE
  8
0
 10
125.073
 20
982.763
 11
125.313
 21
983.054
  0
LINE
  8
0
 10
125.313
 20
983.054
 11
125.588
 21
983.312
  0
LINE
  8
0
 10
125.588
 20
983.312
 11
125.893
 21
983.533
  0
LINE
  8
0
 10
125.893
 20
983.533
 11
126.223
 21
983.714
  0
LINE
  8
0
 10
126.223
 20
983.714
 11
126.573
 21
983.853
  0
LINE
  8
0
 10
126.573
 20
983.853
 11
126.938
 21
983.947
  0
LINE
  8
0
 10
126.938
 20
983.947
 11
127.312
 21
983.994
  0
LINE
  8
0
 10
127.312
 20
983.994
 11
127.688
 21
983.994
  0
LINE
  8
0
 10
127.688
 20
983.994
 11
128.062
 21
983.947
  0
LINE
  8
0
 10
128.062
 20
983.947
 11
128.427
 21
983.853
  0
LINE
  8
0
 10
128.427
 20
983.853
 11
128.777
 21
983.714
  0
LINE
  8
0
 10
128.777
 20
983.714
 11
129.107
 21
983.533
  0
LINE
  8
0
 10
129.107
 20
983.533
 11
129.412
 21
983.312
  0
LINE
  8
0
 10
129.412
 20
983.312
 11
129.687
 21
983.054
  0
LINE
  8
0
 10
129.687
 20
983.054
 11
129.927
 21
982.763
  0
LINE
  8
0
 10
129.927
 20
982.763
 11
130.129
 21
982.445
  0
LINE
  8
0
 10
130.129
 20
982.445
 11
130.289
 21
982.104
  0
LINE
  8
0
 10
130.289
 20
982.104
 11
130.406
 21
981.746
  0
LINE
  8
0
 10
130.406
 20
981.746
 11
130.476
 21
981.376
  0
LINE
  8
0
 10
130.476
 20
981.376
 11
130.5
 21
981
  0
LINE
  8
0
 10
130.5
 20
981
 11
130.476
 21
980.624
  0
LINE
  8
0
 10
130.476
 20
980.624
 11
130.406
 21
980.254
  0
LINE
  8
0
 10
130.406
 20
980.254
 11
130.289
 21
979.896
  0
LINE
  8
0
 10
130.289
 20
979.896
 11
130.129
 21
979.555
  0
LINE
  8
0
 10
130.129
 20
979.555
 11
129.927
 21
979.237
  0
LINE
  8
0
 10
129.927
 20
979.237
 11
129.687
 21
978.946
  0
LINE
  8
0
 10
129.687
 20
978.946
 11
129.412
 21
978.688
  0
LINE
  8
0
 10
129.412
 20
978.688
 11
129.107
 21
978.467
  0
LINE
  8
0
 10
129.107
 20
978.467
 11
128.777
 21
978.286
  0
LINE
  8
0
 10
128.777
 20
978.286
 11
128.427
 21
978.147
  0
LINE
  8
0
 10
128.427
 20
978.147
 11
128.062
 21
978.053
  0
LINE
  8
0
 10
128.062
 20
978.053
 11
127.688
 21
978.006
  0
LINE
  8
0
 10
127.688
 20
978.006
 11
127.312
 21
978.006
  0
LINE
  8
0
 10
-127.688
 20
978.006
 11
-128.062
 21
978.053
  0
LINE
  8
0
 10
-128.062
 20
978.053
 11
-128.427
 21
978.147
  0
LINE
  8
0
 10
-128.427
 20
978.147
 11
-128.777
 21
978.286
  0
LINE
  8
0
 10
-128.777
 20
978.286
 11
-129.107
 21
978.467
  0
LINE
  8
0
 10
-129.107
 20
978.467
 11
-129.412
 21
978.688
  0
LINE
  8
0
 10
-129.412
 20
978.688
 11
-129.687
 21
978.946
  0
LINE
  8
0
 10
-129.687
 20
978.946
 11
-129.927
 21
979.237
  0
LINE
  8
0
 10
-129.927
 20
979.237
 11
-130.129
 21
979.555
  0
LINE
  8
0
 10
-130.129
 20
979.555
 11
-130.289
 21
979.896
  0
LINE
  8
0
 10
-130.289
 20
979.896
 11
-130.406
 21
980.254
  0
LINE
  8
0
 10
-130.406
 20
980.254
 11
-130.476
 21
980.624
  0
LINE
  8
0
 10
-130.476
 20
980.624
 11
-130.5
 21
981
  0
LINE
  8
0
 10
-130.5
 20
981
 11
-130.476
 21
981.376
  0
LINE
  8
0
 10
-130.476
 20
981.376
 11
-130.406
 21
981.746
  0
LINE
  8
0
 10
-130.406
 20
981.746
 11
-130.289
 21
982.104
  0
LINE
  8
0
 10
-130.289
 20
982.104
 11
-130.129
 21
982.445
  0
LINE
  8
0
 10
-130.129
 20
982.445
 11
-129.927
 21
982.763
  0
LINE
  8
0
 10
-129.927
 20
982.763
 11
-129.687
 21
983.054
  0
LINE
  8
0
 10
-129.687
 20
983.054
 11
-129.412
 21
983.312
  0
LINE
  8
0
 10
-129.412
 20
983.312
 11
-129.107
 21
983.533
  0
LINE
  8
0
 10
-129.107
 20
983.533
 11
-128.777
 21
983.714
  0
LINE
  8
0
 10
-128.777
 20
983.714
 11
-128.427
 21
983.853
  0
LINE
  8
0
 10
-128.427
 20
983.853
 11
-128.062
 21
983.947
  0
LINE
  8
0
 10
-128.062
 20
983.947
 11
-127.688
 21
983.994
  0
LINE
  8
0
 10
-127.688
 20
983.994
 11
-127.312
 21
983.994
  0
LINE
  8
0
 10
-127.312
 20
983.994
 11
-126.938
 21
983.947
  0
LINE
  8
0
 10
-126.938
 20
983.947
 11
-126.573
 21
983.853
  0
LINE
  8
0
 10
-126.573
 20
983.853
 11
-126.223
 21
983.714
  0
LINE
  8
0
 10
-126.223
 20
983.714
 11
-125.893
 21
983.533
  0
LINE
  8
0
 10
-125.893
 20
983.533
 11
-125.588
 21
983.312
  0
LINE
  8
0
 10
-125.588
 20
983.312
 11
-125.313
 21
983.054
  0
LINE
  8
0
 10
-125.313
 20
983.054
 11
-125.073
 21
982.763
  0
LINE
  8
0
 10
-125.073
 20
982.763
 11
-124.871
 21
982.445
  0
LINE
  8
0
 10
-124.871
 20
982.445
 11
-124.711
 21
982.104
  0
LINE
  8
0
 10
-124.711
 20
982.104
 11
-124.594
 21
981.746
  0
LINE
  8
0
 10
-124.594
 20
981.746
 11
-124.524
 21
981.376
  0
LINE
  8
0
 10
-124.524
 20
981.376
 11
-124.5
 21
981
  0
LINE
  8
0
 10
-124.5
 20
981
 11
-124.524
 21
980.624
  0
LINE
  8
0
 10
-124.524
 20
980.624
 11
-124.594
 21
980.254
  0
LINE
  8
0
 10
-124.594
 20
980.254
 11
-124.711
 21
979.896
  0
LINE
  8
0
 10
-124.711
 20
979.896
 11
-124.871
 21
979.555
  0
LINE
  8
0
 10
-124.871
 20
979.555
 11
-125.073
 21
979.237
  0
LINE
  8
0
 10
-125.073
 20
979.237
 11
-125.313
 21
978.946
  0
LINE
  8
0
 10
-125.313
 20
978.946
 11
-125.588
 21
978.688
  0
LINE
  8
0
 10
-125.588
 20
978.688
 11
-125.893
 21
978.467
  0
LINE
  8
0
 10
-125.893
 20
978.467
 11
-126.223
 21
978.286
  0
LINE
  8
0
 10
-126.223
 20
978.286
 11
-126.573
 21
978.147
  0
LINE
  8
0
 10
-126.573
 20
978.147
 11
-126.938
 21
978.053
  0
LINE
  8
0
 10
-126.938
 20
978.053
 11
-127.312
 21
978.006
  0
LINE
  8
0
 10
-127.312
 20
978.006
 11
-127.688
 21
978.006
  0
LINE
  8
0
 10
130.437
 20
860.089
 11
131.045
 21
860.245
  0
LINE
  8
0
 10
131.045
 20
860.245
 11
131.629
 21
860.476
  0
LINE
  8
0
 10
131.629
 20
860.476
 11
132.179
 21
860.778
  0
LINE
  8
0
 10
132.179
 20
860.778
 11
132.687
 21
861.147
  0
LINE
  8
0
 10
132.687
 20
861.147
 11
133.145
 21
861.577
  0
LINE
  8
0
 10
133.145
 20
861.577
 11
133.545
 21
862.061
  0
LINE
  8
0
 10
133.545
 20
862.061
 11
133.882
 21
862.591
  0
LINE
  8
0
 10
133.882
 20
862.591
 11
134.149
 21
863.159
  0
LINE
  8
0
 10
134.149
 20
863.159
 11
134.343
 21
863.757
  0
LINE
  8
0
 10
134.343
 20
863.757
 11
134.461
 21
864.373
  0
LINE
  8
0
 10
134.461
 20
864.373
 11
134.5
 21
865
  0
LINE
  8
0
 10
134.5
 20
865
 11
134.5
 21
959
  0
LINE
  8
0
 10
134.5
 20
959
 11
134.461
 21
959.627
  0
LINE
  8
0
 10
134.461
 20
959.627
 11
134.343
 21
960.243
  0
LINE
  8
0
 10
134.343
 20
960.243
 11
134.149
 21
960.841
  0
LINE
  8
0
 10
134.149
 20
960.841
 11
133.882
 21
961.409
  0
LINE
  8
0
 10
133.882
 20
961.409
 11
133.545
 21
961.939
  0
LINE
  8
0
 10
133.545
 20
961.939
 11
133.145
 21
962.423
  0
LINE
  8
0
 10
133.145
 20
962.423
 11
132.687
 21
962.853
  0
LINE
  8
0
 10
132.687
 20
962.853
 11
132.179
 21
963.222
  0
LINE
  8
0
 10
132.179
 20
963.222
 11
131.629
 21
963.524
  0
LINE
  8
0
 10
131.629
 20
963.524
 11
131.045
 21
963.755
  0
LINE
  8
0
 10
131.045
 20
963.755
 11
130.437
 21
963.911
  0
LINE
  8
0
 10
130.437
 20
963.911
 11
129.814
 21
963.99
  0
LINE
  8
0
 10
129.814
 20
963.99
 11
-129.814
 21
963.99
  0
LINE
  8
0
 10
-129.814
 20
963.99
 11
-130.437
 21
963.911
  0
LINE
  8
0
 10
-130.437
 20
963.911
 11
-131.045
 21
963.755
  0
LINE
  8
0
 10
-131.045
 20
963.755
 11
-131.629
 21
963.524
  0
LINE
  8
0
 10
-131.629
 20
963.524
 11
-132.179
 21
963.222
  0
LINE
  8
0
 10
-132.179
 20
963.222
 11
-132.687
 21
962.853
  0
LINE
  8
0
 10
-132.687
 20
962.853
 11
-133.145
 21
962.423
  0
LINE
  8
0
 10
-133.145
 20
962.423
 11
-133.545
 21
961.939
  0
LINE
  8
0
 10
-133.545
 20
961.939
 11
-133.882
 21
961.409
  0
LINE
  8
0
 10
-133.882
 20
961.409
 11
-134.149
 21
960.841
  0
LINE
  8
0
 10
-134.149
 20
960.841
 11
-134.343
 21
960.243
  0
LINE
  8
0
 10
-134.343
 20
960.243
 11
-134.461
 21
959.627
  0
LINE
  8
0
 10
-134.461
 20
959.627
 11
-134.5
 21
959
  0
LINE
  8
0
 10
-134.5
 20
959
 11
-134.5
 21
865
  0
LINE
  8
0
 10
-134.5
 20
865
 11
-134.461
 21
864.373
  0
LINE
  8
0
 10
-134.461
 20
864.373
 11
-134.343
 21
863.757
  0
LINE
  8
0
 10
-134.343
 20
863.757
 11
-134.149
 21
863.159
  0
LINE
  8
0
 10
-134.149
 20
863.159
 11
-133.882
 21
862.591
  0
LINE
  8
0
 10
-133.882
 20
862.591
 11
-133.545
 21
862.061
  0
LINE
  8
0
 10
-133.545
 20
862.061
 11
-133.145
 21
861.577
  0
LINE
  8
0
 10
-133.145
 20
861.577
 11
-132.687
 21
861.147
  0
LINE
  8
0
 10
-132.687
 20
861.147
 11
-132.179
 21
860.778
  0
LINE
  8
0
 10
-132.179
 20
860.778
 11
-131.629
 21
860.476
  0
LINE
  8
0
 10
-131.629
 20
860.476
 11
-131.045
 21
860.245
  0
LINE
  8
0
 10
-131.045
 20
860.245
 11
-130.437
 21
860.089
  0
LINE
  8
0
 10
-130.437
 20
860.089
 11
-129.814
 21
860.01
  0
LINE
  8
0
 10
-129.814
 20
860.01
 11
129.814
 21
860.01
  0
LINE
  8
0
 10
129.814
 20
860.01
 11
130.437
 21
860.089
  0
LINE
  8
0
 10
127.312
 20
954.006
 11
126.938
 21
954.053
  0
LINE
  8
0
 10
126.938
 20
954.053
 11
126.573
 21
954.147
  0
LINE
  8
0
 10
126.573
 20
954.147
 11
126.223
 21
954.286
  0
LINE
  8
0
 10
126.223
 20
954.286
 11
125.893
 21
954.467
  0
LINE
  8
0
 10
125.893
 20
954.467
 11
125.588
 21
954.688
  0
LINE
  8
0
 10
125.588
 20
954.688
 11
125.313
 21
954.946
  0
LINE
  8
0
 10
125.313
 20
954.946
 11
125.073
 21
955.237
  0
LINE
  8
0
 10
125.073
 20
955.237
 11
124.871
 21
955.555
  0
LINE
  8
0
 10
124.871
 20
955.555
 11
124.711
 21
955.896
  0
LINE
  8
0
 10
124.711
 20
955.896
 11
124.594
 21
956.254
  0
LINE
  8
0
 10
124.594
 20
956.254
 11
124.524
 21
956.624
  0
LINE
  8
0
 10
124.524
 20
956.624
 11
124.5
 21
957
  0
LINE
  8
0
 10
124.5
 20
957
 11
124.524
 21
957.376
  0
LINE
  8
0
 10
124.524
 20
957.376
 11
124.594
 21
957.746
  0
LINE
  8
0
 10
124.594
 20
957.746
 11
124.711
 21
958.104
  0
LINE
  8
0
 10
124.711
 20
958.104
 11
124.871
 21
958.445
  0
LINE
  8
0
 10
124.871
 20
958.445
 11
125.073
 21
958.763
  0
LINE
  8
0
 10
125.073
 20
958.763
 11
125.313
 21
959.054
  0
LINE
  8
0
 10
125.313
 20
959.054
 11
125.588
 21
959.312
  0
LINE
  8
0
 10
125.588
 20
959.312
 11
125.893
 21
959.533
  0
LINE
  8
0
 10
125.893
 20
959.533
 11
126.223
 21
959.714
  0
LINE
  8
0
 10
126.223
 20
959.714
 11
126.573
 21
959.853
  0
LINE
  8
0
 10
126.573
 20
959.853
 11
126.938
 21
959.947
  0
LINE
  8
0
 10
126.938
 20
959.947
 11
127.312
 21
959.994
  0
LINE
  8
0
 10
127.312
 20
959.994
 11
127.688
 21
959.994
  0
LINE
  8
0
 10
127.688
 20
959.994
 11
128.062
 21
959.947
  0
LINE
  8
0
 10
128.062
 20
959.947
 11
128.427
 21
959.853
  0
LINE
  8
0
 10
128.427
 20
959.853
 11
128.777
 21
959.714
  0
LINE
  8
0
 10
128.777
 20
959.714
 11
129.107
 21
959.533
  0
LINE
  8
0
 10
129.107
 20
959.533
 11
129.412
 21
959.312
  0
LINE
  8
0
 10
129.412
 20
959.312
 11
129.687
 21
959.054
  0
LINE
  8
0
 10
129.687
 20
959.054
 11
129.927
 21
958.763
  0
LINE
  8
0
 10
129.927
 20
958.763
 11
130.129
 21
958.445
  0
LINE
  8
0
 10
130.129
 20
958.445
 11
130.289
 21
958.104
  0
LINE
  8
0
 10
130.289
 20
958.104
 11
130.406
 21
957.746
  0
LINE
  8
0
 10
130.406
 20
957.746
 11
130.476
 21
957.376
  0
LINE
  8
0
 10
130.476
 20
957.376
 11
130.5
 21
957
  0
LINE
  8
0
 10
130.5
 20
957
 11
130.476
 21
956.624
  0
LINE
  8
0
 10
130.476
 20
956.624
 11
130.406
 21
956.254
  0
LINE
  8
0
 10
130.406
 20
956.254
 11
130.289
 21
955.896
  0
LINE
  8
0
 10
130.289
 20
955.896
 11
130.129
 21
955.555
  0
LINE
  8
0
 10
130.129
 20
955.555
 11
129.927
 21
955.237
  0
LINE
  8
0
 10
129.927
 20
955.237
 11
129.687
 21
954.946
  0
LINE
  8
0
 10
129.687
 20
954.946
 11
129.412
 21
954.688
  0
LINE
  8
0
 10
129.412
 20
954.688
 11
129.107
 21
954.467
  0
LINE
  8
0
 10
129.107
 20
954.467
 11
128.777
 21
954.286
  0
LINE
  8
0
 10
128.777
 20
954.286
 11
128.427
 21
954.147
  0
LINE
  8
0
 10
128.427
 20
954.147
 11
128.062
 21
954.053
  0
LINE
  8
0
 10
128.062
 20
954.053
 11
127.688
 21
954.006
  0
LINE
  8
0
 10
127.688
 20
954.006
 11
127.312
 21
954.006
  0
LINE
  8
0
 10
-127.688
 20
954.006
 11
-128.062
 21
954.053
  0
LINE
  8
0
 10
-128.062
 20
954.053
 11
-128.427
 21
954.147
  0
LINE
  8
0
 10
-128.427
 20
954.147
 11
-128.777
 21
954.286
  0
LINE
  8
0
 10
-128.777
 20
954.286
 11
-129.107
 21
954.467
  0
LINE
  8
0
 10
-129.107
 20
954.467
 11
-129.412
 21
954.688
  0
LINE
  8
0
 10
-129.412
 20
954.688
 11
-129.687
 21
954.946
  0
LINE
  8
0
 10
-129.687
 20
954.946
 11
-129.927
 21
955.237
  0
LINE
  8
0
 10
-129.927
 20
955.237
 11
-130.129
 21
955.555
  0
LINE
  8
0
 10
-130.129
 20
955.555
 11
-130.289
 21
955.896
  0
LINE
  8
0
 10
-130.289
 20
955.896
 11
-130.406
 21
956.254
  0
LINE
  8
0
 10
-130.406
 20
956.254
 11
-130.476
 21
956.624
  0
LINE
  8
0
 10
-130.476
 20
956.624
 11
-130.5
 21
957
  0
LINE
  8
0
 10
-130.5
 20
957
 11
-130.476
 21
957.376
  0
LINE
  8
0
 10
-130.476
 20
957.376
 11
-130.406
 21
957.746
  0
LINE
  8
0
 10
-130.406
 20
957.746
 11
-130.289
 21
958.104
  0
LINE
  8
0
 10
-130.289
 20
958.104
 11
-130.129
 21
958.445
  0
LINE
  8
0
 10
-130.129
 20
958.445
 11
-129.927
 21
958.763
  0
LINE
  8
0
 10
-129.927
 20
958.763
 11
-129.687
 21
959.054
  0
LINE
  8
0
 10
-129.687
 20
959.054
 11
-129.412
 21
959.312
  0
LINE
  8
0
 10
-129.412
 20
959.312
 11
-129.107
 21
959.533
  0
LINE
  8
0
 10
-129.107
 20
959.533
 11
-128.777
 21
959.714
  0
LINE
  8
0
 10
-128.777
 20
959.714
 11
-128.427
 21
959.853
  0
LINE
  8
0
 10
-128.427
 20
959.853
 11
-128.062
 21
959.947
  0
LINE
  8
0
 10
-128.062
 20
959.947
 11
-127.688
 21
959.994
  0
LINE
  8
0
 10
-127.688
 20
959.994
 11
-127.312
 21
959.994
  0
LINE
  8
0
 10
-127.312
 20
959.994
 11
-126.938
 21
959.947
  0
LINE
  8
0
 10
-126.938
 20
959.947
 11
-126.573
 21
959.853
  0
LINE
  8
0
 10
-126.573
 20
959.853
 11
-126.223
 21
959.714
  0
LINE
  8
0
 10
-126.223
 20
959.714
 11
-125.893
 21
959.533
  0
LINE
  8
0
 10
-125.893
 20
959.533
 11
-125.588
 21
959.312
  0
LINE
  8
0
 10
-125.588
 20
959.312
 11
-125.313
 21
959.054
  0
LINE
  8
0
 10
-125.313
 20
959.054
 11
-125.073
 21
958.763
  0
LINE
  8
0
 10
-125.073
 20
958.763
 11
-124.871
 21
958.445
  0
LINE
  8
0
 10
-124.871
 20
958.445
 11
-124.711
 21
958.104
  0
LINE
  8
0
 10
-124.711
 20
958.104
 11
-124.594
 21
957.746
  0
LINE
  8
0
 10
-124.594
 20
957.746
 11
-124.524
 21
957.376
  0
LINE
  8
0
 10
-124.524
 20
957.376
 11
-124.5
 21
957
  0
LINE
  8
0
 10
-124.5
 20
957
 11
-124.524
 21
956.624
  0
LINE
  8
0
 10
-124.524
 20
956.624
 11
-124.594
 21
956.254
  0
LINE
  8
0
 10
-124.594
 20
956.254
 11
-124.711
 21
955.896
  0
LINE
  8
0
 10
-124.711
 20
955.896
 11
-124.871
 21
955.555
  0
LINE
  8
0
 10
-124.871
 20
955.555
 11
-125.073
 21
955.237
  0
LINE
  8
0
 10
-125.073
 20
955.237
 11
-125.313
 21
954.946
  0
LINE
  8
0
 10
-125.313
 20
954.946
 11
-125.588
 21
954.688
  0
LINE
  8
0
 10
-125.588
 20
954.688
 11
-125.893
 21
954.467
  0
LINE
  8
0
 10
-125.893
 20
954.467
 11
-126.223
 21
954.286
  0
LINE
  8
0
 10
-126.223
 20
954.286
 11
-126.573
 21
954.147
  0
LINE
  8
0
 10
-126.573
 20
954.147
 11
-126.938
 21
954.053
  0
LINE
  8
0
 10
-126.938
 20
954.053
 11
-127.312
 21
954.006
  0
LINE
  8
0
 10
-127.312
 20
954.006
 11
-127.688
 21
954.006
  0
LINE
  8
0
 10
127.312
 20
864.006
 11
126.938
 21
864.053
  0
LINE
  8
0
 10
126.938
 20
864.053
 11
126.573
 21
864.147
  0
LINE
  8
0
 10
126.573
 20
864.147
 11
126.223
 21
864.286
  0
LINE
  8
0
 10
126.223
 20
864.286
 11
125.893
 21
864.467
  0
LINE
  8
0
 10
125.893
 20
864.467
 11
125.588
 21
864.688
  0
LINE
  8
0
 10
125.588
 20
864.688
 11
125.313
 21
864.946
  0
LINE
  8
0
 10
125.313
 20
864.946
 11
125.073
 21
865.237
  0
LINE
  8
0
 10
125.073
 20
865.237
 11
124.871
 21
865.555
  0
LINE
  8
0
 10
124.871
 20
865.555
 11
124.711
 21
865.896
  0
LINE
  8
0
 10
124.711
 20
865.896
 11
124.594
 21
866.254
  0
LINE
  8
0
 10
124.594
 20
866.254
 11
124.524
 21
866.624
  0
LINE
  8
0
 10
124.524
 20
866.624
 11
124.5
 21
867
  0
LINE
  8
0
 10
124.5
 20
867
 11
124.524
 21
867.376
  0
LINE
  8
0
 10
124.524
 20
867.376
 11
124.594
 21
867.746
  0
LINE
  8
0
 10
124.594
 20
867.746
 11
124.711
 21
868.104
  0
LINE
  8
0
 10
124.711
 20
868.104
 11
124.871
 21
868.445
  0
LINE
  8
0
 10
124.871
 20
868.445
 11
125.073
 21
868.763
  0
LINE
  8
0
 10
125.073
 20
868.763
 11
125.313
 21
869.054
  0
LINE
  8
0
 10
125.313
 20
869.054
 11
125.588
 21
869.312
  0
LINE
  8
0
 10
125.588
 20
869.312
 11
125.893
 21
869.533
  0
LINE
  8
0
 10
125.893
 20
869.533
 11
126.223
 21
869.714
  0
LINE
  8
0
 10
126.223
 20
869.714
 11
126.573
 21
869.853
  0
LINE
  8
0
 10
126.573
 20
869.853
 11
126.938
 21
869.947
  0
LINE
  8
0
 10
126.938
 20
869.947
 11
127.312
 21
869.994
  0
LINE
  8
0
 10
127.312
 20
869.994
 11
127.688
 21
869.994
  0
LINE
  8
0
 10
127.688
 20
869.994
 11
128.062
 21
869.947
  0
LINE
  8
0
 10
128.062
 20
869.947
 11
128.427
 21
869.853
  0
LINE
  8
0
 10
128.427
 20
869.853
 11
128.777
 21
869.714
  0
LINE
  8
0
 10
128.777
 20
869.714
 11
129.107
 21
869.533
  0
LINE
  8
0
 10
129.107
 20
869.533
 11
129.412
 21
869.312
  0
LINE
  8
0
 10
129.412
 20
869.312
 11
129.687
 21
869.054
  0
LINE
  8
0
 10
129.687
 20
869.054
 11
129.927
 21
868.763
  0
LINE
  8
0
 10
129.927
 20
868.763
 11
130.129
 21
868.445
  0
LINE
  8
0
 10
130.129
 20
868.445
 11
130.289
 21
868.104
  0
LINE
  8
0
 10
130.289
 20
868.104
 11
130.406
 21
867.746
  0
LINE
  8
0
 10
130.406
 20
867.746
 11
130.476
 21
867.376
  0
LINE
  8
0
 10
130.476
 20
867.376
 11
130.5
 21
867
  0
LINE
  8
0
 10
130.5
 20
867
 11
130.476
 21
866.624
  0
LINE
  8
0
 10
130.476
 20
866.624
 11
130.406
 21
866.254
  0
LINE
  8
0
 10
130.406
 20
866.254
 11
130.289
 21
865.896
  0
LINE
  8
0
 10
130.289
 20
865.896
 11
130.129
 21
865.555
  0
LINE
  8
0
 10
130.129
 20
865.555
 11
129.927
 21
865.237
  0
LINE
  8
0
 10
129.927
 20
865.237
 11
129.687
 21
864.946
  0
LINE
  8
0
 10
129.687
 20
864.946
 11
129.412
 21
864.688
  0
LINE
  8
0
 10
129.412
 20
864.688
 11
129.107
 21
864.467
  0
LINE
  8
0
 10
129.107
 20
864.467
 11
128.777
 21
864.286
  0
LINE
  8
0
 10
128.777
 20
864.286
 11
128.427
 21
864.147
  0
LINE
  8
0
 10
128.427
 20
864.147
 11
128.062
 21
864.053
  0
LINE
  8
0
 10
128.062
 20
864.053
 11
127.688
 21
864.006
  0
LINE
  8
0
 10
127.688
 20
864.006
 11
127.312
 21
864.006
  0
LINE
  8
0
 10
-127.688
 20
864.006
 11
-128.062
 21
864.053
  0
LINE
  8
0
 10
-128.062
 20
864.053
 11
-128.427
 21
864.147
  0
LINE
  8
0
 10
-128.427
 20
864.147
 11
-128.777
 21
864.286
  0
LINE
  8
0
 10
-128.777
 20
864.286
 11
-129.107
 21
864.467
  0
LINE
  8
0
 10
-129.107
 20
864.467
 11
-129.412
 21
864.688
  0
LINE
  8
0
 10
-129.412
 20
864.688
 11
-129.687
 21
864.946
  0
LINE
  8
0
 10
-129.687
 20
864.946
 11
-129.927
 21
865.237
  0
LINE
  8
0
 10
-129.927
 20
865.237
 11
-130.129
 21
865.555
  0
LINE
  8
0
 10
-130.129
 20
865.555
 11
-130.289
 21
865.896
  0
LINE
  8
0
 10
-130.289
 20
865.896
 11
-130.406
 21
866.254
  0
LINE
  8
0
 10
-130.406
 20
866.254
 11
-130.476
 21
866.624
  0
LINE
  8
0
 10
-130.476
 20
866.624
 11
-130.5
 21
867
  0
LINE
  8
0
 10
-130.5
 20
867
 11
-130.476
 21
867.376
  0
LINE
  8
0
 10
-130.476
 20
867.376
 11
-130.406
 21
867.746
  0
LINE
  8
0
 10
-130.406
 20
867.746
 11
-130.289
 21
868.104
  0
LINE
  8
0
 10
-130.289
 20
868.104
 11
-130.129
 21
868.445
  0
LINE
  8
0
 10
-130.129
 20
868.445
 11
-129.927
 21
868.763
  0
LINE
  8
0
 10
-129.927
 20
868.763
 11
-129.687
 21
869.054
  0
LINE
  8
0
 10
-129.687
 20
869.054
 11
-129.412
 21
869.312
  0
LINE
  8
0
 10
-129.412
 20
869.312
 11
-129.107
 21
869.533
  0
LINE
  8
0
 10
-129.107
 20
869.533
 11
-128.777
 21
869.714
  0
LINE
  8
0
 10
-128.777
 20
869.714
 11
-128.427
 21
869.853
  0
LINE
  8
0
 10
-128.427
 20
869.853
 11
-128.062
 21
869.947
  0
LINE
  8
0
 10
-128.062
 20
869.947
 11
-127.688
 21
869.994
  0
LINE
  8
0
 10
-127.688
 20
869.994
 11
-127.312
 21
869.994
  0
LINE
  8
0
 10
-127.312
 20
869.994
 11
-126.938
 21
869.947
  0
LINE
  8
0
 10
-126.938
 20
869.947
 11
-126.573
 21
869.853
  0
LINE
  8
0
 10
-126.573
 20
869.853
 11
-126.223
 21
869.714
  0
LINE
  8
0
 10
-126.223
 20
869.714
 11
-125.893
 21
869.533
  0
LINE
  8
0
 10
-125.893
 20
869.533
 11
-125.588
 21
869.312
  0
LINE
  8
0
 10
-125.588
 20
869.312
 11
-125.313
 21
869.054
  0
LINE
  8
0
 10
-125.313
 20
869.054
 11
-125.073
 21
868.763
  0
LINE
  8
0
 10
-125.073
 20
868.763
 11
-124.871
 21
868.445
  0
LINE
  8
0
 10
-124.871
 20
868.445
 11
-124.711
 21
868.104
  0
LINE
  8
0
 10
-124.711
 20
868.104
 11
-124.594
 21
867.746
  0
LINE
  8
0
 10
-124.594
 20
867.746
 11
-124.524
 21
867.376
  0
LINE
  8
0
 10
-124.524
 20
867.376
 11
-124.5
 21
867
  0
LINE
  8
0
 10
-124.5
 20
867
 11
-124.524
 21
866.624
  0
LINE
  8
0
 10
-124.524
 20
866.624
 11
-124.594
 21
866.254
  0
LINE
  8
0
 10
-124.594
 20
866.254
 11
-124.711
 21
865.896
  0
LINE
  8
0
 10
-124.711
 20
865.896
 11
-124.871
 21
865.555
  0
LINE
  8
0
 10
-124.871
 20
865.555
 11
-125.073
 21
865.237
  0
LINE
  8
0
 10
-125.073
 20
865.237
 11
-125.313
 21
864.946
  0
LINE
  8
0
 10
-125.313
 20
864.946
 11
-125.588
 21
864.688
  0
LINE
  8
0
 10
-125.588
 20
864.688
 11
-125.893
 21
864.467
  0
LINE
  8
0
 10
-125.893
 20
864.467
 11
-126.223
 21
864.286
  0
LINE
  8
0
 10
-126.223
 20
864.286
 11
-126.573
 21
864.147
  0
LINE
  8
0
 10
-126.573
 20
864.147
 11
-126.938
 21
864.053
  0
LINE
  8
0
 10
-126.938
 20
864.053
 11
-127.312
 21
864.006
  0
LINE
  8
0
 10
-127.312
 20
864.006
 11
-127.688
 21
864.006
  0
LINE
  8
0
 10
130.437
 20
746.089
 11
131.045
 21
746.245
  0
LINE
  8
0
 10
131.045
 20
746.245
 11
131.629
 21
746.476
  0
LINE
  8
0
 10
131.629
 20
746.476
 11
132.179
 21
746.778
  0
LINE
  8
0
 10
132.179
 20
746.778
 11
132.687
 21
747.147
  0
LINE
  8
0
 10
132.687
 20
747.147
 11
133.145
 21
747.577
  0
LINE
  8
0
 10
133.145
 20
747.577
 11
133.545
 21
748.061
  0
LINE
  8
0
 10
133.545
 20
748.061
 11
133.882
 21
748.591
  0
LINE
  8
0
 10
133.882
 20
748.591
 11
134.149
 21
749.159
  0
LINE
  8
0
 10
134.149
 20
749.159
 11
134.343
 21
749.757
  0
LINE
  8
0
 10
134.343
 20
749.757
 11
134.461
 21
750.373
  0
LINE
  8
0
 10
134.461
 20
750.373
 11
134.5
 21
751
  0
LINE
  8
0
 10
134.5
 20
751
 11
134.5
 21
845
  0
LINE
  8
0
 10
134.5
 20
845
 11
134.461
 21
845.627
  0
LINE
  8
0
 10
134.461
 20
845.627
 11
134.343
 21
846.243
  0
LINE
  8
0
 10
134.343
 20
846.243
 11
134.149
 21
846.841
  0
LINE
  8
0
 10
134.149
 20
846.841
 11
133.882
 21
847.409
  0
LINE
  8
0
 10
133.882
 20
847.409
 11
133.545
 21
847.939
  0
LINE
  8
0
 10
133.545
 20
847.939
 11
133.145
 21
848.423
  0
LINE
  8
0
 10
133.145
 20
848.423
 11
132.687
 21
848.853
  0
LINE
  8
0
 10
132.687
 20
848.853
 11
132.179
 21
849.222
  0
LINE
  8
0
 10
132.179
 20
849.222
 11
131.629
 21
849.524
  0
LINE
  8
0
 10
131.629
 20
849.524
 11
131.045
 21
849.755
  0
LINE
  8
0
 10
131.045
 20
849.755
 11
130.437
 21
849.911
  0
LINE
  8
0
 10
130.437
 20
849.911
 11
129.814
 21
849.99
  0
LINE
  8
0
 10
129.814
 20
849.99
 11
-129.814
 21
849.99
  0
LINE
  8
0
 10
-129.814
 20
849.99
 11
-130.437
 21
849.911
  0
LINE
  8
0
 10
-130.437
 20
849.911
 11
-131.045
 21
849.755
  0
LINE
  8
0
 10
-131.045
 20
849.755
 11
-131.629
 21
849.524
  0
LINE
  8
0
 10
-131.629
 20
849.524
 11
-132.179
 21
849.222
  0
LINE
  8
0
 10
-132.179
 20
849.222
 11
-132.687
 21
848.853
  0
LINE
  8
0
 10
-132.687
 20
848.853
 11
-133.145
 21
848.423
  0
LINE
  8
0
 10
-133.145
 20
848.423
 11
-133.545
 21
847.939
  0
LINE
  8
0
 10
-133.545
 20
847.939
 11
-133.882
 21
847.409
  0
LINE
  8
0
 10
-133.882
 20
847.409
 11
-134.149
 21
846.841
  0
LINE
  8
0
 10
-134.149
 20
846.841
 11
-134.343
 21
846.243
  0
LINE
  8
0
 10
-134.343
 20
846.243
 11
-134.461
 21
845.627
  0
LINE
  8
0
 10
-134.461
 20
845.627
 11
-134.5
 21
845
  0
LINE
  8
0
 10
-134.5
 20
845
 11
-134.5
 21
751
  0
LINE
  8
0
 10
-134.5
 20
751
 11
-134.461
 21
750.373
  0
LINE
  8
0
 10
-134.461
 20
750.373
 11
-134.343
 21
749.757
  0
LINE
  8
0
 10
-134.343
 20
749.757
 11
-134.149
 21
749.159
  0
LINE
  8
0
 10
-134.149
 20
749.159
 11
-133.882
 21
748.591
  0
LINE
  8
0
 10
-133.882
 20
748.591
 11
-133.545
 21
748.061
  0
LINE
  8
0
 10
-133.545
 20
748.061
 11
-133.145
 21
747.577
  0
LINE
  8
0
 10
-133.145
 20
747.577
 11
-132.687
 21
747.147
  0
LINE
  8
0
 10
-132.687
 20
747.147
 11
-132.179
 21
746.778
  0
LINE
  8
0
 10
-132.179
 20
746.778
 11
-131.629
 21
746.476
  0
LINE
  8
0
 10
-131.629
 20
746.476
 11
-131.045
 21
746.245
  0
LINE
  8
0
 10
-131.045
 20
746.245
 11
-130.437
 21
746.089
  0
LINE
  8
0
 10
-130.437
 20
746.089
 11
-129.814
 21
746.01
  0
LINE
  8
0
 10
-129.814
 20
746.01
 11
129.814
 21
746.01
  0
LINE
  8
0
 10
129.814
 20
746.01
 11
130.437
 21
746.089
  0
LINE
  8
0
 10
127.312
 20
840.006
 11
126.938
 21
840.053
  0
LINE
  8
0
 10
126.938
 20
840.053
 11
126.573
 21
840.147
  0
LINE
  8
0
 10
126.573
 20
840.147
 11
126.223
 21
840.286
  0
LINE
  8
0
 10
126.223
 20
840.286
 11
125.893
 21
840.467
  0
LINE
  8
0
 10
125.893
 20
840.467
 11
125.588
 21
840.688
  0
LINE
  8
0
 10
125.588
 20
840.688
 11
125.313
 21
840.946
  0
LINE
  8
0
 10
125.313
 20
840.946
 11
125.073
 21
841.237
  0
LINE
  8
0
 10
125.073
 20
841.237
 11
124.871
 21
841.555
  0
LINE
  8
0
 10
124.871
 20
841.555
 11
124.711
 21
841.896
  0
LINE
  8
0
 10
124.711
 20
841.896
 11
124.594
 21
842.254
  0
LINE
  8
0
 10
124.594
 20
842.254
 11
124.524
 21
842.624
  0
LINE
  8
0
 10
124.524
 20
842.624
 11
124.5
 21
843
  0
LINE
  8
0
 10
124.5
 20
843
 11
124.524
 21
843.376
  0
LINE
  8
0
 10
124.524
 20
843.376
 11
124.594
 21
843.746
  0
LINE
  8
0
 10
124.594
 20
843.746
 11
124.711
 21
844.104
  0
LINE
  8
0
 10
124.711
 20
844.104
 11
124.871
 21
844.445
  0
LINE
  8
0
 10
124.871
 20
844.445
 11
125.073
 21
844.763
  0
LINE
  8
0
 10
125.073
 20
844.763
 11
125.313
 21
845.054
  0
LINE
  8
0
 10
125.313
 20
845.054
 11
125.588
 21
845.312
  0
LINE
  8
0
 10
125.588
 20
845.312
 11
125.893
 21
845.533
  0
LINE
  8
0
 10
125.893
 20
845.533
 11
126.223
 21
845.714
  0
LINE
  8
0
 10
126.223
 20
845.714
 11
126.573
 21
845.853
  0
LINE
  8
0
 10
126.573
 20
845.853
 11
126.938
 21
845.947
  0
LINE
  8
0
 10
126.938
 20
845.947
 11
127.312
 21
845.994
  0
LINE
  8
0
 10
127.312
 20
845.994
 11
127.688
 21
845.994
  0
LINE
  8
0
 10
127.688
 20
845.994
 11
128.062
 21
845.947
  0
LINE
  8
0
 10
128.062
 20
845.947
 11
128.427
 21
845.853
  0
LINE
  8
0
 10
128.427
 20
845.853
 11
128.777
 21
845.714
  0
LINE
  8
0
 10
128.777
 20
845.714
 11
129.107
 21
845.533
  0
LINE
  8
0
 10
129.107
 20
845.533
 11
129.412
 21
845.312
  0
LINE
  8
0
 10
129.412
 20
845.312
 11
129.687
 21
845.054
  0
LINE
  8
0
 10
129.687
 20
845.054
 11
129.927
 21
844.763
  0
LINE
  8
0
 10
129.927
 20
844.763
 11
130.129
 21
844.445
  0
LINE
  8
0
 10
130.129
 20
844.445
 11
130.289
 21
844.104
  0
LINE
  8
0
 10
130.289
 20
844.104
 11
130.406
 21
843.746
  0
LINE
  8
0
 10
130.406
 20
843.746
 11
130.476
 21
843.376
  0
LINE
  8
0
 10
130.476
 20
843.376
 11
130.5
 21
843
  0
LINE
  8
0
 10
130.5
 20
843
 11
130.476
 21
842.624
  0
LINE
  8
0
 10
130.476
 20
842.624
 11
130.406
 21
842.254
  0
LINE
  8
0
 10
130.406
 20
842.254
 11
130.289
 21
841.896
  0
LINE
  8
0
 10
130.289
 20
841.896
 11
130.129
 21
841.555
  0
LINE
  8
0
 10
130.129
 20
841.555
 11
129.927
 21
841.237
  0
LINE
  8
0
 10
129.927
 20
841.237
 11
129.687
 21
840.946
  0
LINE
  8
0
 10
129.687
 20
840.946
 11
129.412
 21
840.688
  0
LINE
  8
0
 10
129.412
 20
840.688
 11
129.107
 21
840.467
  0
LINE
  8
0
 10
129.107
 20
840.467
 11
128.777
 21
840.286
  0
LINE
  8
0
 10
128.777
 20
840.286
 11
128.427
 21
840.147
  0
LINE
  8
0
 10
128.427
 20
840.147
 11
128.062
 21
840.053
  0
LINE
  8
0
 10
128.062
 20
840.053
 11
127.688
 21
840.006
  0
LINE
  8
0
 10
127.688
 20
840.006
 11
127.312
 21
840.006
  0
LINE
  8
0
 10
-127.688
 20
840.006
 11
-128.062
 21
840.053
  0
LINE
  8
0
 10
-128.062
 20
840.053
 11
-128.427
 21
840.147
  0
LINE
  8
0
 10
-128.427
 20
840.147
 11
-128.777
 21
840.286
  0
LINE
  8
0
 10
-128.777
 20
840.286
 11
-129.107
 21
840.467
  0
LINE
  8
0
 10
-129.107
 20
840.467
 11
-129.412
 21
840.688
  0
LINE
  8
0
 10
-129.412
 20
840.688
 11
-129.687
 21
840.946
  0
LINE
  8
0
 10
-129.687
 20
840.946
 11
-129.927
 21
841.237
  0
LINE
  8
0
 10
-129.927
 20
841.237
 11
-130.129
 21
841.555
  0
LINE
  8
0
 10
-130.129
 20
841.555
 11
-130.289
 21
841.896
  0
LINE
  8
0
 10
-130.289
 20
841.896
 11
-130.406
 21
842.254
  0
LINE
  8
0
 10
-130.406
 20
842.254
 11
-130.476
 21
842.624
  0
LINE
  8
0
 10
-130.476
 20
842.624
 11
-130.5
 21
843
  0
LINE
  8
0
 10
-130.5
 20
843
 11
-130.476
 21
843.376
  0
LINE
  8
0
 10
-130.476
 20
843.376
 11
-130.406
 21
843.746
  0
LINE
  8
0
 10
-130.406
 20
843.746
 11
-130.289
 21
844.104
  0
LINE
  8
0
 10
-130.289
 20
844.104
 11
-130.129
 21
844.445
  0
LINE
  8
0
 10
-130.129
 20
844.445
 11
-129.927
 21
844.763
  0
LINE
  8
0
 10
-129.927
 20
844.763
 11
-129.687
 21
845.054
  0
LINE
  8
0
 10
-129.687
 20
845.054
 11
-129.412
 21
845.312
  0
LINE
  8
0
 10
-129.412
 20
845.312
 11
-129.107
 21
845.533
  0
LINE
  8
0
 10
-129.107
 20
845.533
 11
-128.777
 21
845.714
  0
LINE
  8
0
 10
-128.777
 20
845.714
 11
-128.427
 21
845.853
  0
LINE
  8
0
 10
-128.427
 20
845.853
 11
-128.062
 21
845.947
  0
LINE
  8
0
 10
-128.062
 20
845.947
 11
-127.688
 21
845.994
  0
LINE
  8
0
 10
-127.688
 20
845.994
 11
-127.312
 21
845.994
  0
LINE
  8
0
 10
-127.312
 20
845.994
 11
-126.938
 21
845.947
  0
LINE
  8
0
 10
-126.938
 20
845.947
 11
-126.573
 21
845.853
  0
LINE
  8
0
 10
-126.573
 20
845.853
 11
-126.223
 21
845.714
  0
LINE
  8
0
 10
-126.223
 20
845.714
 11
-125.893
 21
845.533
  0
LINE
  8
0
 10
-125.893
 20
845.533
 11
-125.588
 21
845.312
  0
LINE
  8
0
 10
-125.588
 20
845.312
 11
-125.313
 21
845.054
  0
LINE
  8
0
 10
-125.313
 20
845.054
 11
-125.073
 21
844.763
  0
LINE
  8
0
 10
-125.073
 20
844.763
 11
-124.871
 21
844.445
  0
LINE
  8
0
 10
-124.871
 20
844.445
 11
-124.711
 21
844.104
  0
LINE
  8
0
 10
-124.711
 20
844.104
 11
-124.594
 21
843.746
  0
LINE
  8
0
 10
-124.594
 20
843.746
 11
-124.524
 21
843.376
  0
LINE
  8
0
 10
-124.524
 20
843.376
 11
-124.5
 21
843
  0
LINE
  8
0
 10
-124.5
 20
843
 11
-124.524
 21
842.624
  0
LINE
  8
0
 10
-124.524
 20
842.624
 11
-124.594
 21
842.254
  0
LINE
  8
0
 10
-124.594
 20
842.254
 11
-124.711
 21
841.896
  0
LINE
  8
0
 10
-124.711
 20
841.896
 11
-124.871
 21
841.555
  0
LINE
  8
0
 10
-124.871
 20
841.555
 11
-125.073
 21
841.237
  0
LINE
  8
0
 10
-125.073
 20
841.237
 11
-125.313
 21
840.946
  0
LINE
  8
0
 10
-125.313
 20
840.946
 11
-125.588
 21
840.688
  0
LINE
  8
0
 10
-125.588
 20
840.688
 11
-125.893
 21
840.467
  0
LINE
  8
0
 10
-125.893
 20
840.467
 11
-126.223
 21
840.286
  0
LINE
  8
0
 10
-126.223
 20
840.286
 11
-126.573
 21
840.147
  0
LINE
  8
0
 10
-126.573
 20
840.147
 11
-126.938
 21
840.053
  0
LINE
  8
0
 10
-126.938
 20
840.053
 11
-127.312
 21
840.006
  0
LINE
  8
0
 10
-127.312
 20
840.006
 11
-127.688
 21
840.006
  0
LINE
  8
0
 10
-127.688
 20
750.006
 11
-128.062
 21
750.053
  0
LINE
  8
0
 10
-128.062
 20
750.053
 11
-128.427
 21
750.147
  0
LINE
  8
0
 10
-128.427
 20
750.147
 11
-128.777
 21
750.286
  0
LINE
  8
0
 10
-128.777
 20
750.286
 11
-129.107
 21
750.467
  0
LINE
  8
0
 10
-129.107
 20
750.467
 11
-129.412
 21
750.688
  0
LINE
  8
0
 10
-129.412
 20
750.688
 11
-129.687
 21
750.946
  0
LINE
  8
0
 10
-129.687
 20
750.946
 11
-129.927
 21
751.237
  0
LINE
  8
0
 10
-129.927
 20
751.237
 11
-130.129
 21
751.555
  0
LINE
  8
0
 10
-130.129
 20
751.555
 11
-130.289
 21
751.896
  0
LINE
  8
0
 10
-130.289
 20
751.896
 11
-130.406
 21
752.254
  0
LINE
  8
0
 10
-130.406
 20
752.254
 11
-130.476
 21
752.624
  0
LINE
  8
0
 10
-130.476
 20
752.624
 11
-130.5
 21
753
  0
LINE
  8
0
 10
-130.5
 20
753
 11
-130.476
 21
753.376
  0
LINE
  8
0
 10
-130.476
 20
753.376
 11
-130.406
 21
753.746
  0
LINE
  8
0
 10
-130.406
 20
753.746
 11
-130.289
 21
754.104
  0
LINE
  8
0
 10
-130.289
 20
754.104
 11
-130.129
 21
754.445
  0
LINE
  8
0
 10
-130.129
 20
754.445
 11
-129.927
 21
754.763
  0
LINE
  8
0
 10
-129.927
 20
754.763
 11
-129.687
 21
755.054
  0
LINE
  8
0
 10
-129.687
 20
755.054
 11
-129.412
 21
755.312
  0
LINE
  8
0
 10
-129.412
 20
755.312
 11
-129.107
 21
755.533
  0
LINE
  8
0
 10
-129.107
 20
755.533
 11
-128.777
 21
755.714
  0
LINE
  8
0
 10
-128.777
 20
755.714
 11
-128.427
 21
755.853
  0
LINE
  8
0
 10
-128.427
 20
755.853
 11
-128.062
 21
755.947
  0
LINE
  8
0
 10
-128.062
 20
755.947
 11
-127.688
 21
755.994
  0
LINE
  8
0
 10
-127.688
 20
755.994
 11
-127.312
 21
755.994
  0
LINE
  8
0
 10
-127.312
 20
755.994
 11
-126.938
 21
755.947
  0
LINE
  8
0
 10
-126.938
 20
755.947
 11
-126.573
 21
755.853
  0
LINE
  8
0
 10
-126.573
 20
755.853
 11
-126.223
 21
755.714
  0
LINE
  8
0
 10
-126.223
 20
755.714
 11
-125.893
 21
755.533
  0
LINE
  8
0
 10
-125.893
 20
755.533
 11
-125.588
 21
755.312
  0
LINE
  8
0
 10
-125.588
 20
755.312
 11
-125.313
 21
755.054
  0
LINE
  8
0
 10
-125.313
 20
755.054
 11
-125.073
 21
754.763
  0
LINE
  8
0
 10
-125.073
 20
754.763
 11
-124.871
 21
754.445
  0
LINE
  8
0
 10
-124.871
 20
754.445
 11
-124.711
 21
754.104
  0
LINE
  8
0
 10
-124.711
 20
754.104
 11
-124.594
 21
753.746
  0
LINE
  8
0
 10
-124.594
 20
753.746
 11
-124.524
 21
753.376
  0
LINE
  8
0
 10
-124.524
 20
753.376
 11
-124.5
 21
753
  0
LINE
  8
0
 10
-124.5
 20
753
 11
-124.524
 21
752.624
  0
LINE
  8
0
 10
-124.524
 20
752.624
 11
-124.594
 21
752.254
  0
LINE
  8
0
 10
-124.594
 20
752.254
 11
-124.711
 21
751.896
  0
LINE
  8
0
 10
-124.711
 20
751.896
 11
-124.871
 21
751.555
  0
LINE
  8
0
 10
-124.871
 20
751.555
 11
-125.073
 21
751.237
  0
LINE
  8
0
 10
-125.073
 20
751.237
 11
-125.313
 21
750.946
  0
LINE
  8
0
 10
-125.313
 20
750.946
 11
-125.588
 21
750.688
  0
LINE
  8
0
 10
-125.588
 20
750.688
 11
-125.893
 21
750.467
  0
LINE
  8
0
 10
-125.893
 20
750.467
 11
-126.223
 21
750.286
  0
LINE
  8
0
 10
-126.223
 20
750.286
 11
-126.573
 21
750.147
  0
LINE
  8
0
 10
-126.573
 20
750.147
 11
-126.938
 21
750.053
  0
LINE
  8
0
 10
-126.938
 20
750.053
 11
-127.312
 21
750.006
  0
LINE
  8
0
 10
-127.312
 20
750.006
 11
-127.688
 21
750.006
  0
LINE
  8
0
 10
127.312
 20
750.006
 11
126.938
 21
750.053
  0
LINE
  8
0
 10
126.938
 20
750.053
 11
126.573
 21
750.147
  0
LINE
  8
0
 10
126.573
 20
750.147
 11
126.223
 21
750.286
  0
LINE
  8
0
 10
126.223
 20
750.286
 11
125.893
 21
750.467
  0
LINE
  8
0
 10
125.893
 20
750.467
 11
125.588
 21
750.688
  0
LINE
  8
0
 10
125.588
 20
750.688
 11
125.313
 21
750.946
  0
LINE
  8
0
 10
125.313
 20
750.946
 11
125.073
 21
751.237
  0
LINE
  8
0
 10
125.073
 20
751.237
 11
124.871
 21
751.555
  0
LINE
  8
0
 10
124.871
 20
751.555
 11
124.711
 21
751.896
  0
LINE
  8
0
 10
124.711
 20
751.896
 11
124.594
 21
752.254
  0
LINE
  8
0
 10
124.594
 20
752.254
 11
124.524
 21
752.624
  0
LINE
  8
0
 10
124.524
 20
752.624
 11
124.5
 21
753
  0
LINE
  8
0
 10
124.5
 20
753
 11
124.524
 21
753.376
  0
LINE
  8
0
 10
124.524
 20
753.376
 11
124.594
 21
753.746
  0
LINE
  8
0
 10
124.594
 20
753.746
 11
124.711
 21
754.104
  0
LINE
  8
0
 10
124.711
 20
754.104
 11
124.871
 21
754.445
  0
LINE
  8
0
 10
124.871
 20
754.445
 11
125.073
 21
754.763
  0
LINE
  8
0
 10
125.073
 20
754.763
 11
125.313
 21
755.054
  0
LINE
  8
0
 10
125.313
 20
755.054
 11
125.588
 21
755.312
  0
LINE
  8
0
 10
125.588
 20
755.312
 11
125.893
 21
755.533
  0
LINE
  8
0
 10
125.893
 20
755.533
 11
126.223
 21
755.714
  0
LINE
  8
0
 10
126.223
 20
755.714
 11
126.573
 21
755.853
  0
LINE
  8
0
 10
126.573
 20
755.853
 11
126.938
 21
755.947
  0
LINE
  8
0
 10
126.938
 20
755.947
 11
127.312
 21
755.994
  0
LINE
  8
0
 10
127.312
 20
755.994
 11
127.688
 21
755.994
  0
LINE
  8
0
 10
127.688
 20
755.994
 11
128.062
 21
755.947
  0
LINE
  8
0
 10
128.062
 20
755.947
 11
128.427
 21
755.853
  0
LINE
  8
0
 10
128.427
 20
755.853
 11
128.777
 21
755.714
  0
LINE
  8
0
 10
128.777
 20
755.714
 11
129.107
 21
755.533
  0
LINE
  8
0
 10
129.107
 20
755.533
 11
129.412
 21
755.312
  0
LINE
  8
0
 10
129.412
 20
755.312
 11
129.687
 21
755.054
  0
LINE
  8
0
 10
129.687
 20
755.054
 11
129.927
 21
754.763
  0
LINE
  8
0
 10
129.927
 20
754.763
 11
130.129
 21
754.445
  0
LINE
  8
0
 10
130.129
 20
754.445
 11
130.289
 21
754.104
  0
LINE
  8
0
 10
130.289
 20
754.104
 11
130.406
 21
753.746
  0
LINE
  8
0
 10
130.406
 20
753.746
 11
130.476
 21
753.376
  0
LINE
  8
0
 10
130.476
 20
753.376
 11
130.5
 21
753
  0
LINE
  8
0
 10
130.5
 20
753
 11
130.476
 21
752.624
  0
LINE
  8
0
 10
130.476
 20
752.624
 11
130.406
 21
752.254
  0
LINE
  8
0
 10
130.406
 20
752.254
 11
130.289
 21
751.896
  0
LINE
  8
0
 10
130.289
 20
751.896
 11
130.129
 21
751.555
  0
LINE
  8
0
 10
130.129
 20
751.555
 11
129.927
 21
751.237
  0
LINE
  8
0
 10
129.927
 20
751.237
 11
129.687
 21
750.946
  0
LINE
  8
0
 10
129.687
 20
750.946
 11
129.412
 21
750.688
  0
LINE
  8
0
 10
129.412
 20
750.688
 11
129.107
 21
750.467
  0
LINE
  8
0
 10
129.107
 20
750.467
 11
128.777
 21
750.286
  0
LINE
  8
0
 10
128.777
 20
750.286
 11
128.427
 21
750.147
  0
LINE
  8
0
 10
128.427
 20
750.147
 11
128.062
 21
750.053
  0
LINE
  8
0
 10
128.062
 20
750.053
 11
127.688
 21
750.006
  0
LINE
  8
0
 10
127.688
 20
750.006
 11
127.312
 21
750.006
  0
LINE
  8
0
 10
130.437
 20
632.089
 11
131.045
 21
632.245
  0
LINE
  8
0
 10
131.045
 20
632.245
 11
131.629
 21
632.476
  0
LINE
  8
0
 10
131.629
 20
632.476
 11
132.179
 21
632.778
  0
LINE
  8
0
 10
132.179
 20
632.778
 11
132.687
 21
633.147
  0
LINE
  8
0
 10
132.687
 20
633.147
 11
133.145
 21
633.577
  0
LINE
  8
0
 10
133.145
 20
633.577
 11
133.545
 21
634.061
  0
LINE
  8
0
 10
133.545
 20
634.061
 11
133.882
 21
634.591
  0
LINE
  8
0
 10
133.882
 20
634.591
 11
134.149
 21
635.159
  0
LINE
  8
0
 10
134.149
 20
635.159
 11
134.343
 21
635.757
  0
LINE
  8
0
 10
134.343
 20
635.757
 11
134.461
 21
636.373
  0
LINE
  8
0
 10
134.461
 20
636.373
 11
134.5
 21
637
  0
LINE
  8
0
 10
134.5
 20
637
 11
134.5
 21
731
  0
LINE
  8
0
 10
134.5
 20
731
 11
134.461
 21
731.627
  0
LINE
  8
0
 10
134.461
 20
731.627
 11
134.343
 21
732.243
  0
LINE
  8
0
 10
134.343
 20
732.243
 11
134.149
 21
732.841
  0
LINE
  8
0
 10
134.149
 20
732.841
 11
133.882
 21
733.409
  0
LINE
  8
0
 10
133.882
 20
733.409
 11
133.545
 21
733.939
  0
LINE
  8
0
 10
133.545
 20
733.939
 11
133.145
 21
734.423
  0
LINE
  8
0
 10
133.145
 20
734.423
 11
132.687
 21
734.853
  0
LINE
  8
0
 10
132.687
 20
734.853
 11
132.179
 21
735.222
  0
LINE
  8
0
 10
132.179
 20
735.222
 11
131.629
 21
735.524
  0
LINE
  8
0
 10
131.629
 20
735.524
 11
131.045
 21
735.755
  0
LINE
  8
0
 10
131.045
 20
735.755
 11
130.437
 21
735.911
  0
LINE
  8
0
 10
130.437
 20
735.911
 11
129.814
 21
735.99
  0
LINE
  8
0
 10
129.814
 20
735.99
 11
-129.814
 21
735.99
  0
LINE
  8
0
 10
-129.814
 20
735.99
 11
-130.437
 21
735.911
  0
LINE
  8
0
 10
-130.437
 20
735.911
 11
-131.045
 21
735.755
  0
LINE
  8
0
 10
-131.045
 20
735.755
 11
-131.629
 21
735.524
  0
LINE
  8
0
 10
-131.629
 20
735.524
 11
-132.179
 21
735.222
  0
LINE
  8
0
 10
-132.179
 20
735.222
 11
-132.687
 21
734.853
  0
LINE
  8
0
 10
-132.687
 20
734.853
 11
-133.145
 21
734.423
  0
LINE
  8
0
 10
-133.145
 20
734.423
 11
-133.545
 21
733.939
  0
LINE
  8
0
 10
-133.545
 20
733.939
 11
-133.882
 21
733.409
  0
LINE
  8
0
 10
-133.882
 20
733.409
 11
-134.149
 21
732.841
  0
LINE
  8
0
 10
-134.149
 20
732.841
 11
-134.343
 21
732.243
  0
LINE
  8
0
 10
-134.343
 20
732.243
 11
-134.461
 21
731.627
  0
LINE
  8
0
 10
-134.461
 20
731.627
 11
-134.5
 21
731
  0
LINE
  8
0
 10
-134.5
 20
731
 11
-134.5
 21
637
  0
LINE
  8
0
 10
-134.5
 20
637
 11
-134.461
 21
636.373
  0
LINE
  8
0
 10
-134.461
 20
636.373
 11
-134.343
 21
635.757
  0
LINE
  8
0
 10
-134.343
 20
635.757
 11
-134.149
 21
635.159
  0
LINE
  8
0
 10
-134.149
 20
635.159
 11
-133.882
 21
634.591
  0
LINE
  8
0
 10
-133.882
 20
634.591
 11
-133.545
 21
634.061
  0
LINE
  8
0
 10
-133.545
 20
634.061
 11
-133.145
 21
633.577
  0
LINE
  8
0
 10
-133.145
 20
633.577
 11
-132.687
 21
633.147
  0
LINE
  8
0
 10
-132.687
 20
633.147
 11
-132.179
 21
632.778
  0
LINE
  8
0
 10
-132.179
 20
632.778
 11
-131.629
 21
632.476
  0
LINE
  8
0
 10
-131.629
 20
632.476
 11
-131.045
 21
632.245
  0
LINE
  8
0
 10
-131.045
 20
632.245
 11
-130.437
 21
632.089
  0
LINE
  8
0
 10
-130.437
 20
632.089
 11
-129.814
 21
632.01
  0
LINE
  8
0
 10
-129.814
 20
632.01
 11
129.814
 21
632.01
  0
LINE
  8
0
 10
129.814
 20
632.01
 11
130.437
 21
632.089
  0
LINE
  8
0
 10
127.312
 20
726.006
 11
126.938
 21
726.053
  0
LINE
  8
0
 10
126.938
 20
726.053
 11
126.573
 21
726.147
  0
LINE
  8
0
 10
126.573
 20
726.147
 11
126.223
 21
726.286
  0
LINE
  8
0
 10
126.223
 20
726.286
 11
125.893
 21
726.467
  0
LINE
  8
0
 10
125.893
 20
726.467
 11
125.588
 21
726.688
  0
LINE
  8
0
 10
125.588
 20
726.688
 11
125.313
 21
726.946
  0
LINE
  8
0
 10
125.313
 20
726.946
 11
125.073
 21
727.237
  0
LINE
  8
0
 10
125.073
 20
727.237
 11
124.871
 21
727.555
  0
LINE
  8
0
 10
124.871
 20
727.555
 11
124.711
 21
727.896
  0
LINE
  8
0
 10
124.711
 20
727.896
 11
124.594
 21
728.254
  0
LINE
  8
0
 10
124.594
 20
728.254
 11
124.524
 21
728.624
  0
LINE
  8
0
 10
124.524
 20
728.624
 11
124.5
 21
729
  0
LINE
  8
0
 10
124.5
 20
729
 11
124.524
 21
729.376
  0
LINE
  8
0
 10
124.524
 20
729.376
 11
124.594
 21
729.746
  0
LINE
  8
0
 10
124.594
 20
729.746
 11
124.711
 21
730.104
  0
LINE
  8
0
 10
124.711
 20
730.104
 11
124.871
 21
730.445
  0
LINE
  8
0
 10
124.871
 20
730.445
 11
125.073
 21
730.763
  0
LINE
  8
0
 10
125.073
 20
730.763
 11
125.313
 21
731.054
  0
LINE
  8
0
 10
125.313
 20
731.054
 11
125.588
 21
731.312
  0
LINE
  8
0
 10
125.588
 20
731.312
 11
125.893
 21
731.533
  0
LINE
  8
0
 10
125.893
 20
731.533
 11
126.223
 21
731.714
  0
LINE
  8
0
 10
126.223
 20
731.714
 11
126.573
 21
731.853
  0
LINE
  8
0
 10
126.573
 20
731.853
 11
126.938
 21
731.947
  0
LINE
  8
0
 10
126.938
 20
731.947
 11
127.312
 21
731.994
  0
LINE
  8
0
 10
127.312
 20
731.994
 11
127.688
 21
731.994
  0
LINE
  8
0
 10
127.688
 20
731.994
 11
128.062
 21
731.947
  0
LINE
  8
0
 10
128.062
 20
731.947
 11
128.427
 21
731.853
  0
LINE
  8
0
 10
128.427
 20
731.853
 11
128.777
 21
731.714
  0
LINE
  8
0
 10
128.777
 20
731.714
 11
129.107
 21
731.533
  0
LINE
  8
0
 10
129.107
 20
731.533
 11
129.412
 21
731.312
  0
LINE
  8
0
 10
129.412
 20
731.312
 11
129.687
 21
731.054
  0
LINE
  8
0
 10
129.687
 20
731.054
 11
129.927
 21
730.763
  0
LINE
  8
0
 10
129.927
 20
730.763
 11
130.129
 21
730.445
  0
LINE
  8
0
 10
130.129
 20
730.445
 11
130.289
 21
730.104
  0
LINE
  8
0
 10
130.289
 20
730.104
 11
130.406
 21
729.746
  0
LINE
  8
0
 10
130.406
 20
729.746
 11
130.476
 21
729.376
  0
LINE
  8
0
 10
130.476
 20
729.376
 11
130.5
 21
729
  0
LINE
  8
0
 10
130.5
 20
729
 11
130.476
 21
728.624
  0
LINE
  8
0
 10
130.476
 20
728.624
 11
130.406
 21
728.254
  0
LINE
  8
0
 10
130.406
 20
728.254
 11
130.289
 21
727.896
  0
LINE
  8
0
 10
130.289
 20
727.896
 11
130.129
 21
727.555
  0
LINE
  8
0
 10
130.129
 20
727.555
 11
129.927
 21
727.237
  0
LINE
  8
0
 10
129.927
 20
727.237
 11
129.687
 21
726.946
  0
LINE
  8
0
 10
129.687
 20
726.946
 11
129.412
 21
726.688
  0
LINE
  8
0
 10
129.412
 20
726.688
 11
129.107
 21
726.467
  0
LINE
  8
0
 10
129.107
 20
726.467
 11
128.777
 21
726.286
  0
LINE
  8
0
 10
128.777
 20
726.286
 11
128.427
 21
726.147
  0
LINE
  8
0
 10
128.427
 20
726.147
 11
128.062
 21
726.053
  0
LINE
  8
0
 10
128.062
 20
726.053
 11
127.688
 21
726.006
  0
LINE
  8
0
 10
127.688
 20
726.006
 11
127.312
 21
726.006
  0
LINE
  8
0
 10
-127.688
 20
726.006
 11
-128.062
 21
726.053
  0
LINE
  8
0
 10
-128.062
 20
726.053
 11
-128.427
 21
726.147
  0
LINE
  8
0
 10
-128.427
 20
726.147
 11
-128.777
 21
726.286
  0
LINE
  8
0
 10
-128.777
 20
726.286
 11
-129.107
 21
726.467
  0
LINE
  8
0
 10
-129.107
 20
726.467
 11
-129.412
 21
726.688
  0
LINE
  8
0
 10
-129.412
 20
726.688
 11
-129.687
 21
726.946
  0
LINE
  8
0
 10
-129.687
 20
726.946
 11
-129.927
 21
727.237
  0
LINE
  8
0
 10
-129.927
 20
727.237
 11
-130.129
 21
727.555
  0
LINE
  8
0
 10
-130.129
 20
727.555
 11
-130.289
 21
727.896
  0
LINE
  8
0
 10
-130.289
 20
727.896
 11
-130.406
 21
728.254
  0
LINE
  8
0
 10
-130.406
 20
728.254
 11
-130.476
 21
728.624
  0
LINE
  8
0
 10
-130.476
 20
728.624
 11
-130.5
 21
729
  0
LINE
  8
0
 10
-130.5
 20
729
 11
-130.476
 21
729.376
  0
LINE
  8
0
 10
-130.476
 20
729.376
 11
-130.406
 21
729.746
  0
LINE
  8
0
 10
-130.406
 20
729.746
 11
-130.289
 21
730.104
  0
LINE
  8
0
 10
-130.289
 20
730.104
 11
-130.129
 21
730.445
  0
LINE
  8
0
 10
-130.129
 20
730.445
 11
-129.927
 21
730.763
  0
LINE
  8
0
 10
-129.927
 20
730.763
 11
-129.687
 21
731.054
  0
LINE
  8
0
 10
-129.687
 20
731.054
 11
-129.412
 21
731.312
  0
LINE
  8
0
 10
-129.412
 20
731.312
 11
-129.107
 21
731.533
  0
LINE
  8
0
 10
-129.107
 20
731.533
 11
-128.777
 21
731.714
  0
LINE
  8
0
 10
-128.777
 20
731.714
 11
-128.427
 21
731.853
  0
LINE
  8
0
 10
-128.427
 20
731.853
 11
-128.062
 21
731.947
  0
LINE
  8
0
 10
-128.062
 20
731.947
 11
-127.688
 21
731.994
  0
LINE
  8
0
 10
-127.688
 20
731.994
 11
-127.312
 21
731.994
  0
LINE
  8
0
 10
-127.312
 20
731.994
 11
-126.938
 21
731.947
  0
LINE
  8
0
 10
-126.938
 20
731.947
 11
-126.573
 21
731.853
  0
LINE
  8
0
 10
-126.573
 20
731.853
 11
-126.223
 21
731.714
  0
LINE
  8
0
 10
-126.223
 20
731.714
 11
-125.893
 21
731.533
  0
LINE
  8
0
 10
-125.893
 20
731.533
 11
-125.588
 21
731.312
  0
LINE
  8
0
 10
-125.588
 20
731.312
 11
-125.313
 21
731.054
  0
LINE
  8
0
 10
-125.313
 20
731.054
 11
-125.073
 21
730.763
  0
LINE
  8
0
 10
-125.073
 20
730.763
 11
-124.871
 21
730.445
  0
LINE
  8
0
 10
-124.871
 20
730.445
 11
-124.711
 21
730.104
  0
LINE
  8
0
 10
-124.711
 20
730.104
 11
-124.594
 21
729.746
  0
LINE
  8
0
 10
-124.594
 20
729.746
 11
-124.524
 21
729.376
  0
LINE
  8
0
 10
-124.524
 20
729.376
 11
-124.5
 21
729
  0
LINE
  8
0
 10
-124.5
 20
729
 11
-124.524
 21
728.624
  0
LINE
  8
0
 10
-124.524
 20
728.624
 11
-124.594
 21
728.254
  0
LINE
  8
0
 10
-124.594
 20
728.254
 11
-124.711
 21
727.896
  0
LINE
  8
0
 10
-124.711
 20
727.896
 11
-124.871
 21
727.555
  0
LINE
  8
0
 10
-124.871
 20
727.555
 11
-125.073
 21
727.237
  0
LINE
  8
0
 10
-125.073
 20
727.237
 11
-125.313
 21
726.946
  0
LINE
  8
0
 10
-125.313
 20
726.946
 11
-125.588
 21
726.688
  0
LINE
  8
0
 10
-125.588
 20
726.688
 11
-125.893
 21
726.467
  0
LINE
  8
0
 10
-125.893
 20
726.467
 11
-126.223
 21
726.286
  0
LINE
  8
0
 10
-126.223
 20
726.286
 11
-126.573
 21
726.147
  0
LINE
  8
0
 10
-126.573
 20
726.147
 11
-126.938
 21
726.053
  0
LINE
  8
0
 10
-126.938
 20
726.053
 11
-127.312
 21
726.006
  0
LINE
  8
0
 10
-127.312
 20
726.006
 11
-127.688
 21
726.006
  0
LINE
  8
0
 10
127.312
 20
636.006
 11
126.938
 21
636.053
  0
LINE
  8
0
 10
126.938
 20
636.053
 11
126.573
 21
636.147
  0
LINE
  8
0
 10
126.573
 20
636.147
 11
126.223
 21
636.286
  0
LINE
  8
0
 10
126.223
 20
636.286
 11
125.893
 21
636.467
  0
LINE
  8
0
 10
125.893
 20
636.467
 11
125.588
 21
636.688
  0
LINE
  8
0
 10
125.588
 20
636.688
 11
125.313
 21
636.946
  0
LINE
  8
0
 10
125.313
 20
636.946
 11
125.073
 21
637.237
  0
LINE
  8
0
 10
125.073
 20
637.237
 11
124.871
 21
637.555
  0
LINE
  8
0
 10
124.871
 20
637.555
 11
124.711
 21
637.896
  0
LINE
  8
0
 10
124.711
 20
637.896
 11
124.594
 21
638.254
  0
LINE
  8
0
 10
124.594
 20
638.254
 11
124.524
 21
638.624
  0
LINE
  8
0
 10
124.524
 20
638.624
 11
124.5
 21
639
  0
LINE
  8
0
 10
124.5
 20
639
 11
124.524
 21
639.376
  0
LINE
  8
0
 10
124.524
 20
639.376
 11
124.594
 21
639.746
  0
LINE
  8
0
 10
124.594
 20
639.746
 11
124.711
 21
640.104
  0
LINE
  8
0
 10
124.711
 20
640.104
 11
124.871
 21
640.445
  0
LINE
  8
0
 10
124.871
 20
640.445
 11
125.073
 21
640.763
  0
LINE
  8
0
 10
125.073
 20
640.763
 11
125.313
 21
641.054
  0
LINE
  8
0
 10
125.313
 20
641.054
 11
125.588
 21
641.312
  0
LINE
  8
0
 10
125.588
 20
641.312
 11
125.893
 21
641.533
  0
LINE
  8
0
 10
125.893
 20
641.533
 11
126.223
 21
641.714
  0
LINE
  8
0
 10
126.223
 20
641.714
 11
126.573
 21
641.853
  0
LINE
  8
0
 10
126.573
 20
641.853
 11
126.938
 21
641.947
  0
LINE
  8
0
 10
126.938
 20
641.947
 11
127.312
 21
641.994
  0
LINE
  8
0
 10
127.312
 20
641.994
 11
127.688
 21
641.994
  0
LINE
  8
0
 10
127.688
 20
641.994
 11
128.062
 21
641.947
  0
LINE
  8
0
 10
128.062
 20
641.947
 11
128.427
 21
641.853
  0
LINE
  8
0
 10
128.427
 20
641.853
 11
128.777
 21
641.714
  0
LINE
  8
0
 10
128.777
 20
641.714
 11
129.107
 21
641.533
  0
LINE
  8
0
 10
129.107
 20
641.533
 11
129.412
 21
641.312
  0
LINE
  8
0
 10
129.412
 20
641.312
 11
129.687
 21
641.054
  0
LINE
  8
0
 10
129.687
 20
641.054
 11
129.927
 21
640.763
  0
LINE
  8
0
 10
129.927
 20
640.763
 11
130.129
 21
640.445
  0
LINE
  8
0
 10
130.129
 20
640.445
 11
130.289
 21
640.104
  0
LINE
  8
0
 10
130.289
 20
640.104
 11
130.406
 21
639.746
  0
LINE
  8
0
 10
130.406
 20
639.746
 11
130.476
 21
639.376
  0
LINE
  8
0
 10
130.476
 20
639.376
 11
130.5
 21
639
  0
LINE
  8
0
 10
130.5
 20
639
 11
130.476
 21
638.624
  0
LINE
  8
0
 10
130.476
 20
638.624
 11
130.406
 21
638.254
  0
LINE
  8
0
 10
130.406
 20
638.254
 11
130.289
 21
637.896
  0
LINE
  8
0
 10
130.289
 20
637.896
 11
130.129
 21
637.555
  0
LINE
  8
0
 10
130.129
 20
637.555
 11
129.927
 21
637.237
  0
LINE
  8
0
 10
129.927
 20
637.237
 11
129.687
 21
636.946
  0
LINE
  8
0
 10
129.687
 20
636.946
 11
129.412
 21
636.688
  0
LINE
  8
0
 10
129.412
 20
636.688
 11
129.107
 21
636.467
  0
LINE
  8
0
 10
129.107
 20
636.467
 11
128.777
 21
636.286
  0
LINE
  8
0
 10
128.777
 20
636.286
 11
128.427
 21
636.147
  0
LINE
  8
0
 10
128.427
 20
636.147
 11
128.062
 21
636.053
  0
LINE
  8
0
 10
128.062
 20
636.053
 11
127.688
 21
636.006
  0
LINE
  8
0
 10
127.688
 20
636.006
 11
127.312
 21
636.006
  0
LINE
  8
0
 10
-127.688
 20
636.006
 11
-128.062
 21
636.053
  0
LINE
  8
0
 10
-128.062
 20
636.053
 11
-128.427
 21
636.147
  0
LINE
  8
0
 10
-128.427
 20
636.147
 11
-128.777
 21
636.286
  0
LINE
  8
0
 10
-128.777
 20
636.286
 11
-129.107
 21
636.467
  0
LINE
  8
0
 10
-129.107
 20
636.467
 11
-129.412
 21
636.688
  0
LINE
  8
0
 10
-129.412
 20
636.688
 11
-129.687
 21
636.946
  0
LINE
  8
0
 10
-129.687
 20
636.946
 11
-129.927
 21
637.237
  0
LINE
  8
0
 10
-129.927
 20
637.237
 11
-130.129
 21
637.555
  0
LINE
  8
0
 10
-130.129
 20
637.555
 11
-130.289
 21
637.896
  0
LINE
  8
0
 10
-130.289
 20
637.896
 11
-130.406
 21
638.254
  0
LINE
  8
0
 10
-130.406
 20
638.254
 11
-130.476
 21
638.624
  0
LINE
  8
0
 10
-130.476
 20
638.624
 11
-130.5
 21
639
  0
LINE
  8
0
 10
-130.5
 20
639
 11
-130.476
 21
639.376
  0
LINE
  8
0
 10
-130.476
 20
639.376
 11
-130.406
 21
639.746
  0
LINE
  8
0
 10
-130.406
 20
639.746
 11
-130.289
 21
640.104
  0
LINE
  8
0
 10
-130.289
 20
640.104
 11
-130.129
 21
640.445
  0
LINE
  8
0
 10
-130.129
 20
640.445
 11
-129.927
 21
640.763
  0
LINE
  8
0
 10
-129.927
 20
640.763
 11
-129.687
 21
641.054
  0
LINE
  8
0
 10
-129.687
 20
641.054
 11
-129.412
 21
641.312
  0
LINE
  8
0
 10
-129.412
 20
641.312
 11
-129.107
 21
641.533
  0
LINE
  8
0
 10
-129.107
 20
641.533
 11
-128.777
 21
641.714
  0
LINE
  8
0
 10
-128.777
 20
641.714
 11
-128.427
 21
641.853
  0
LINE
  8
0
 10
-128.427
 20
641.853
 11
-128.062
 21
641.947
  0
LINE
  8
0
 10
-128.062
 20
641.947
 11
-127.688
 21
641.994
  0
LINE
  8
0
 10
-127.688
 20
641.994
 11
-127.312
 21
641.994
  0
LINE
  8
0
 10
-127.312
 20
641.994
 11
-126.938
 21
641.947
  0
LINE
  8
0
 10
-126.938
 20
641.947
 11
-126.573
 21
641.853
  0
LINE
  8
0
 10
-126.573
 20
641.853
 11
-126.223
 21
641.714
  0
LINE
  8
0
 10
-126.223
 20
641.714
 11
-125.893
 21
641.533
  0
LINE
  8
0
 10
-125.893
 20
641.533
 11
-125.588
 21
641.312
  0
LINE
  8
0
 10
-125.588
 20
641.312
 11
-125.313
 21
641.054
  0
LINE
  8
0
 10
-125.313
 20
641.054
 11
-125.073
 21
640.763
  0
LINE
  8
0
 10
-125.073
 20
640.763
 11
-124.871
 21
640.445
  0
LINE
  8
0
 10
-124.871
 20
640.445
 11
-124.711
 21
640.104
  0
LINE
  8
0
 10
-124.711
 20
640.104
 11
-124.594
 21
639.746
  0
LINE
  8
0
 10
-124.594
 20
639.746
 11
-124.524
 21
639.376
  0
LINE
  8
0
 10
-124.524
 20
639.376
 11
-124.5
 21
639
  0
LINE
  8
0
 10
-124.5
 20
639
 11
-124.524
 21
638.624
  0
LINE
  8
0
 10
-124.524
 20
638.624
 11
-124.594
 21
638.254
  0
LINE
  8
0
 10
-124.594
 20
638.254
 11
-124.711
 21
637.896
  0
LINE
  8
0
 10
-124.711
 20
637.896
 11
-124.871
 21
637.555
  0
LINE
  8
0
 10
-124.871
 20
637.555
 11
-125.073
 21
637.237
  0
LINE
  8
0
 10
-125.073
 20
637.237
 11
-125.313
 21
636.946
  0
LINE
  8
0
 10
-125.313
 20
636.946
 11
-125.588
 21
636.688
  0
LINE
  8
0
 10
-125.588
 20
636.688
 11
-125.893
 21
636.467
  0
LINE
  8
0
 10
-125.893
 20
636.467
 11
-126.223
 21
636.286
  0
LINE
  8
0
 10
-126.223
 20
636.286
 11
-126.573
 21
636.147
  0
LINE
  8
0
 10
-126.573
 20
636.147
 11
-126.938
 21
636.053
  0
LINE
  8
0
 10
-126.938
 20
636.053
 11
-127.312
 21
636.006
  0
LINE
  8
0
 10
-127.312
 20
636.006
 11
-127.688
 21
636.006
  0
LINE
  8
0
 10
130.437
 20
518.089
 11
131.045
 21
518.245
  0
LINE
  8
0
 10
131.045
 20
518.245
 11
131.629
 21
518.476
  0
LINE
  8
0
 10
131.629
 20
518.476
 11
132.179
 21
518.778
  0
LINE
  8
0
 10
132.179
 20
518.778
 11
132.687
 21
519.147
  0
LINE
  8
0
 10
132.687
 20
519.147
 11
133.145
 21
519.577
  0
LINE
  8
0
 10
133.145
 20
519.577
 11
133.545
 21
520.061
  0
LINE
  8
0
 10
133.545
 20
520.061
 11
133.882
 21
520.591
  0
LINE
  8
0
 10
133.882
 20
520.591
 11
134.149
 21
521.159
  0
LINE
  8
0
 10
134.149
 20
521.159
 11
134.343
 21
521.757
  0
LINE
  8
0
 10
134.343
 20
521.757
 11
134.461
 21
522.373
  0
LINE
  8
0
 10
134.461
 20
522.373
 11
134.5
 21
523
  0
LINE
  8
0
 10
134.5
 20
523
 11
134.5
 21
617
  0
LINE
  8
0
 10
134.5
 20
617
 11
134.461
 21
617.627
  0
LINE
  8
0
 10
134.461
 20
617.627
 11
134.343
 21
618.243
  0
LINE
  8
0
 10
134.343
 20
618.243
 11
134.149
 21
618.841
  0
LINE
  8
0
 10
134.149
 20
618.841
 11
133.882
 21
619.409
  0
LINE
  8
0
 10
133.882
 20
619.409
 11
133.545
 21
619.939
  0
LINE
  8
0
 10
133.545
 20
619.939
 11
133.145
 21
620.423
  0
LINE
  8
0
 10
133.145
 20
620.423
 11
132.687
 21
620.853
  0
LINE
  8
0
 10
132.687
 20
620.853
 11
132.179
 21
621.222
  0
LINE
  8
0
 10
132.179
 20
621.222
 11
131.629
 21
621.524
  0
LINE
  8
0
 10
131.629
 20
621.524
 11
131.045
 21
621.755
  0
LINE
  8
0
 10
131.045
 20
621.755
 11
130.437
 21
621.911
  0
LINE
  8
0
 10
130.437
 20
621.911
 11
129.814
 21
621.99
  0
LINE
  8
0
 10
129.814
 20
621.99
 11
-129.814
 21
621.99
  0
LINE
  8
0
 10
-129.814
 20
621.99
 11
-130.437
 21
621.911
  0
LINE
  8
0
 10
-130.437
 20
621.911
 11
-131.045
 21
621.755
  0
LINE
  8
0
 10
-131.045
 20
621.755
 11
-131.629
 21
621.524
  0
LINE
  8
0
 10
-131.629
 20
621.524
 11
-132.179
 21
621.222
  0
LINE
  8
0
 10
-132.179
 20
621.222
 11
-132.687
 21
620.853
  0
LINE
  8
0
 10
-132.687
 20
620.853
 11
-133.145
 21
620.423
  0
LINE
  8
0
 10
-133.145
 20
620.423
 11
-133.545
 21
619.939
  0
LINE
  8
0
 10
-133.545
 20
619.939
 11
-133.882
 21
619.409
  0
LINE
  8
0
 10
-133.882
 20
619.409
 11
-134.149
 21
618.841
  0
LINE
  8
0
 10
-134.149
 20
618.841
 11
-134.343
 21
618.243
  0
LINE
  8
0
 10
-134.343
 20
618.243
 11
-134.461
 21
617.627
  0
LINE
  8
0
 10
-134.461
 20
617.627
 11
-134.5
 21
617
  0
LINE
  8
0
 10
-134.5
 20
617
 11
-134.5
 21
523
  0
LINE
  8
0
 10
-134.5
 20
523
 11
-134.461
 21
522.373
  0
LINE
  8
0
 10
-134.461
 20
522.373
 11
-134.343
 21
521.757
  0
LINE
  8
0
 10
-134.343
 20
521.757
 11
-134.149
 21
521.159
  0
LINE
  8
0
 10
-134.149
 20
521.159
 11
-133.882
 21
520.591
  0
LINE
  8
0
 10
-133.882
 20
520.591
 11
-133.545
 21
520.061
  0
LINE
  8
0
 10
-133.545
 20
520.061
 11
-133.145
 21
519.577
  0
LINE
  8
0
 10
-133.145
 20
519.577
 11
-132.687
 21
519.147
  0
LINE
  8
0
 10
-132.687
 20
519.147
 11
-132.179
 21
518.778
  0
LINE
  8
0
 10
-132.179
 20
518.778
 11
-131.629
 21
518.476
  0
LINE
  8
0
 10
-131.629
 20
518.476
 11
-131.045
 21
518.245
  0
LINE
  8
0
 10
-131.045
 20
518.245
 11
-130.437
 21
518.089
  0
LINE
  8
0
 10
-130.437
 20
518.089
 11
-129.814
 21
518.01
  0
LINE
  8
0
 10
-129.814
 20
518.01
 11
129.814
 21
518.01
  0
LINE
  8
0
 10
129.814
 20
518.01
 11
130.437
 21
518.089
  0
LINE
  8
0
 10
127.312
 20
612.006
 11
126.938
 21
612.053
  0
LINE
  8
0
 10
126.938
 20
612.053
 11
126.573
 21
612.147
  0
LINE
  8
0
 10
126.573
 20
612.147
 11
126.223
 21
612.286
  0
LINE
  8
0
 10
126.223
 20
612.286
 11
125.893
 21
612.467
  0
LINE
  8
0
 10
125.893
 20
612.467
 11
125.588
 21
612.688
  0
LINE
  8
0
 10
125.588
 20
612.688
 11
125.313
 21
612.946
  0
LINE
  8
0
 10
125.313
 20
612.946
 11
125.073
 21
613.237
  0
LINE
  8
0
 10
125.073
 20
613.237
 11
124.871
 21
613.555
  0
LINE
  8
0
 10
124.871
 20
613.555
 11
124.711
 21
613.896
  0
LINE
  8
0
 10
124.711
 20
613.896
 11
124.594
 21
614.254
  0
LINE
  8
0
 10
124.594
 20
614.254
 11
124.524
 21
614.624
  0
LINE
  8
0
 10
124.524
 20
614.624
 11
124.5
 21
615
  0
LINE
  8
0
 10
124.5
 20
615
 11
124.524
 21
615.376
  0
LINE
  8
0
 10
124.524
 20
615.376
 11
124.594
 21
615.746
  0
LINE
  8
0
 10
124.594
 20
615.746
 11
124.711
 21
616.104
  0
LINE
  8
0
 10
124.711
 20
616.104
 11
124.871
 21
616.445
  0
LINE
  8
0
 10
124.871
 20
616.445
 11
125.073
 21
616.763
  0
LINE
  8
0
 10
125.073
 20
616.763
 11
125.313
 21
617.054
  0
LINE
  8
0
 10
125.313
 20
617.054
 11
125.588
 21
617.312
  0
LINE
  8
0
 10
125.588
 20
617.312
 11
125.893
 21
617.533
  0
LINE
  8
0
 10
125.893
 20
617.533
 11
126.223
 21
617.714
  0
LINE
  8
0
 10
126.223
 20
617.714
 11
126.573
 21
617.853
  0
LINE
  8
0
 10
126.573
 20
617.853
 11
126.938
 21
617.947
  0
LINE
  8
0
 10
126.938
 20
617.947
 11
127.312
 21
617.994
  0
LINE
  8
0
 10
127.312
 20
617.994
 11
127.688
 21
617.994
  0
LINE
  8
0
 10
127.688
 20
617.994
 11
128.062
 21
617.947
  0
LINE
  8
0
 10
128.062
 20
617.947
 11
128.427
 21
617.853
  0
LINE
  8
0
 10
128.427
 20
617.853
 11
128.777
 21
617.714
  0
LINE
  8
0
 10
128.777
 20
617.714
 11
129.107
 21
617.533
  0
LINE
  8
0
 10
129.107
 20
617.533
 11
129.412
 21
617.312
  0
LINE
  8
0
 10
129.412
 20
617.312
 11
129.687
 21
617.054
  0
LINE
  8
0
 10
129.687
 20
617.054
 11
129.927
 21
616.763
  0
LINE
  8
0
 10
129.927
 20
616.763
 11
130.129
 21
616.445
  0
LINE
  8
0
 10
130.129
 20
616.445
 11
130.289
 21
616.104
  0
LINE
  8
0
 10
130.289
 20
616.104
 11
130.406
 21
615.746
  0
LINE
  8
0
 10
130.406
 20
615.746
 11
130.476
 21
615.376
  0
LINE
  8
0
 10
130.476
 20
615.376
 11
130.5
 21
615
  0
LINE
  8
0
 10
130.5
 20
615
 11
130.476
 21
614.624
  0
LINE
  8
0
 10
130.476
 20
614.624
 11
130.406
 21
614.254
  0
LINE
  8
0
 10
130.406
 20
614.254
 11
130.289
 21
613.896
  0
LINE
  8
0
 10
130.289
 20
613.896
 11
130.129
 21
613.555
  0
LINE
  8
0
 10
130.129
 20
613.555
 11
129.927
 21
613.237
  0
LINE
  8
0
 10
129.927
 20
613.237
 11
129.687
 21
612.946
  0
LINE
  8
0
 10
129.687
 20
612.946
 11
129.412
 21
612.688
  0
LINE
  8
0
 10
129.412
 20
612.688
 11
129.107
 21
612.467
  0
LINE
  8
0
 10
129.107
 20
612.467
 11
128.777
 21
612.286
  0
LINE
  8
0
 10
128.777
 20
612.286
 11
128.427
 21
612.147
  0
LINE
  8
0
 10
128.427
 20
612.147
 11
128.062
 21
612.053
  0
LINE
  8
0
 10
128.062
 20
612.053
 11
127.688
 21
612.006
  0
LINE
  8
0
 10
127.688
 20
612.006
 11
127.312
 21
612.006
  0
LINE
  8
0
 10
-127.688
 20
612.006
 11
-128.062
 21
612.053
  0
LINE
  8
0
 10
-128.062
 20
612.053
 11
-128.427
 21
612.147
  0
LINE
  8
0
 10
-128.427
 20
612.147
 11
-128.777
 21
612.286
  0
LINE
  8
0
 10
-128.777
 20
612.286
 11
-129.107
 21
612.467
  0
LINE
  8
0
 10
-129.107
 20
612.467
 11
-129.412
 21
612.688
  0
LINE
  8
0
 10
-129.412
 20
612.688
 11
-129.687
 21
612.946
  0
LINE
  8
0
 10
-129.687
 20
612.946
 11
-129.927
 21
613.237
  0
LINE
  8
0
 10
-129.927
 20
613.237
 11
-130.129
 21
613.555
  0
LINE
  8
0
 10
-130.129
 20
613.555
 11
-130.289
 21
613.896
  0
LINE
  8
0
 10
-130.289
 20
613.896
 11
-130.406
 21
614.254
  0
LINE
  8
0
 10
-130.406
 20
614.254
 11
-130.476
 21
614.624
  0
LINE
  8
0
 10
-130.476
 20
614.624
 11
-130.5
 21
615
  0
LINE
  8
0
 10
-130.5
 20
615
 11
-130.476
 21
615.376
  0
LINE
  8
0
 10
-130.476
 20
615.376
 11
-130.406
 21
615.746
  0
LINE
  8
0
 10
-130.406
 20
615.746
 11
-130.289
 21
616.104
  0
LINE
  8
0
 10
-130.289
 20
616.104
 11
-130.129
 21
616.445
  0
LINE
  8
0
 10
-130.129
 20
616.445
 11
-129.927
 21
616.763
  0
LINE
  8
0
 10
-129.927
 20
616.763
 11
-129.687
 21
617.054
  0
LINE
  8
0
 10
-129.687
 20
617.054
 11
-129.412
 21
617.312
  0
LINE
  8
0
 10
-129.412
 20
617.312
 11
-129.107
 21
617.533
  0
LINE
  8
0
 10
-129.107
 20
617.533
 11
-128.777
 21
617.714
  0
LINE
  8
0
 10
-128.777
 20
617.714
 11
-128.427
 21
617.853
  0
LINE
  8
0
 10
-128.427
 20
617.853
 11
-128.062
 21
617.947
  0
LINE
  8
0
 10
-128.062
 20
617.947
 11
-127.688
 21
617.994
  0
LINE
  8
0
 10
-127.688
 20
617.994
 11
-127.312
 21
617.994
  0
LINE
  8
0
 10
-127.312
 20
617.994
 11
-126.938
 21
617.947
  0
LINE
  8
0
 10
-126.938
 20
617.947
 11
-126.573
 21
617.853
  0
LINE
  8
0
 10
-126.573
 20
617.853
 11
-126.223
 21
617.714
  0
LINE
  8
0
 10
-126.223
 20
617.714
 11
-125.893
 21
617.533
  0
LINE
  8
0
 10
-125.893
 20
617.533
 11
-125.588
 21
617.312
  0
LINE
  8
0
 10
-125.588
 20
617.312
 11
-125.313
 21
617.054
  0
LINE
  8
0
 10
-125.313
 20
617.054
 11
-125.073
 21
616.763
  0
LINE
  8
0
 10
-125.073
 20
616.763
 11
-124.871
 21
616.445
  0
LINE
  8
0
 10
-124.871
 20
616.445
 11
-124.711
 21
616.104
  0
LINE
  8
0
 10
-124.711
 20
616.104
 11
-124.594
 21
615.746
  0
LINE
  8
0
 10
-124.594
 20
615.746
 11
-124.524
 21
615.376
  0
LINE
  8
0
 10
-124.524
 20
615.376
 11
-124.5
 21
615
  0
LINE
  8
0
 10
-124.5
 20
615
 11
-124.524
 21
614.624
  0
LINE
  8
0
 10
-124.524
 20
614.624
 11
-124.594
 21
614.254
  0
LINE
  8
0
 10
-124.594
 20
614.254
 11
-124.711
 21
613.896
  0
LINE
  8
0
 10
-124.711
 20
613.896
 11
-124.871
 21
613.555
  0
LINE
  8
0
 10
-124.871
 20
613.555
 11
-125.073
 21
613.237
  0
LINE
  8
0
 10
-125.073
 20
613.237
 11
-125.313
 21
612.946
  0
LINE
  8
0
 10
-125.313
 20
612.946
 11
-125.588
 21
612.688
  0
LINE
  8
0
 10
-125.588
 20
612.688
 11
-125.893
 21
612.467
  0
LINE
  8
0
 10
-125.893
 20
612.467
 11
-126.223
 21
612.286
  0
LINE
  8
0
 10
-126.223
 20
612.286
 11
-126.573
 21
612.147
  0
LINE
  8
0
 10
-126.573
 20
612.147
 11
-126.938
 21
612.053
  0
LINE
  8
0
 10
-126.938
 20
612.053
 11
-127.312
 21
612.006
  0
LINE
  8
0
 10
-127.312
 20
612.006
 11
-127.688
 21
612.006
  0
LINE
  8
0
 10
127.312
 20
522.006
 11
126.938
 21
522.053
  0
LINE
  8
0
 10
126.938
 20
522.053
 11
126.573
 21
522.147
  0
LINE
  8
0
 10
126.573
 20
522.147
 11
126.223
 21
522.286
  0
LINE
  8
0
 10
126.223
 20
522.286
 11
125.893
 21
522.467
  0
LINE
  8
0
 10
125.893
 20
522.467
 11
125.588
 21
522.688
  0
LINE
  8
0
 10
125.588
 20
522.688
 11
125.313
 21
522.946
  0
LINE
  8
0
 10
125.313
 20
522.946
 11
125.073
 21
523.237
  0
LINE
  8
0
 10
125.073
 20
523.237
 11
124.871
 21
523.555
  0
LINE
  8
0
 10
124.871
 20
523.555
 11
124.711
 21
523.896
  0
LINE
  8
0
 10
124.711
 20
523.896
 11
124.594
 21
524.254
  0
LINE
  8
0
 10
124.594
 20
524.254
 11
124.524
 21
524.624
  0
LINE
  8
0
 10
124.524
 20
524.624
 11
124.5
 21
525
  0
LINE
  8
0
 10
124.5
 20
525
 11
124.524
 21
525.376
  0
LINE
  8
0
 10
124.524
 20
525.376
 11
124.594
 21
525.746
  0
LINE
  8
0
 10
124.594
 20
525.746
 11
124.711
 21
526.104
  0
LINE
  8
0
 10
124.711
 20
526.104
 11
124.871
 21
526.445
  0
LINE
  8
0
 10
124.871
 20
526.445
 11
125.073
 21
526.763
  0
LINE
  8
0
 10
125.073
 20
526.763
 11
125.313
 21
527.054
  0
LINE
  8
0
 10
125.313
 20
527.054
 11
125.588
 21
527.312
  0
LINE
  8
0
 10
125.588
 20
527.312
 11
125.893
 21
527.533
  0
LINE
  8
0
 10
125.893
 20
527.533
 11
126.223
 21
527.714
  0
LINE
  8
0
 10
126.223
 20
527.714
 11
126.573
 21
527.853
  0
LINE
  8
0
 10
126.573
 20
527.853
 11
126.938
 21
527.947
  0
LINE
  8
0
 10
126.938
 20
527.947
 11
127.312
 21
527.994
  0
LINE
  8
0
 10
127.312
 20
527.994
 11
127.688
 21
527.994
  0
LINE
  8
0
 10
127.688
 20
527.994
 11
128.062
 21
527.947
  0
LINE
  8
0
 10
128.062
 20
527.947
 11
128.427
 21
527.853
  0
LINE
  8
0
 10
128.427
 20
527.853
 11
128.777
 21
527.714
  0
LINE
  8
0
 10
128.777
 20
527.714
 11
129.107
 21
527.533
  0
LINE
  8
0
 10
129.107
 20
527.533
 11
129.412
 21
527.312
  0
LINE
  8
0
 10
129.412
 20
527.312
 11
129.687
 21
527.054
  0
LINE
  8
0
 10
129.687
 20
527.054
 11
129.927
 21
526.763
  0
LINE
  8
0
 10
129.927
 20
526.763
 11
130.129
 21
526.445
  0
LINE
  8
0
 10
130.129
 20
526.445
 11
130.289
 21
526.104
  0
LINE
  8
0
 10
130.289
 20
526.104
 11
130.406
 21
525.746
  0
LINE
  8
0
 10
130.406
 20
525.746
 11
130.476
 21
525.376
  0
LINE
  8
0
 10
130.476
 20
525.376
 11
130.5
 21
525
  0
LINE
  8
0
 10
130.5
 20
525
 11
130.476
 21
524.624
  0
LINE
  8
0
 10
130.476
 20
524.624
 11
130.406
 21
524.254
  0
LINE
  8
0
 10
130.406
 20
524.254
 11
130.289
 21
523.896
  0
LINE
  8
0
 10
130.289
 20
523.896
 11
130.129
 21
523.555
  0
LINE
  8
0
 10
130.129
 20
523.555
 11
129.927
 21
523.237
  0
LINE
  8
0
 10
129.927
 20
523.237
 11
129.687
 21
522.946
  0
LINE
  8
0
 10
129.687
 20
522.946
 11
129.412
 21
522.688
  0
LINE
  8
0
 10
129.412
 20
522.688
 11
129.107
 21
522.467
  0
LINE
  8
0
 10
129.107
 20
522.467
 11
128.777
 21
522.286
  0
LINE
  8
0
 10
128.777
 20
522.286
 11
128.427
 21
522.147
  0
LINE
  8
0
 10
128.427
 20
522.147
 11
128.062
 21
522.053
  0
LINE
  8
0
 10
128.062
 20
522.053
 11
127.688
 21
522.006
  0
LINE
  8
0
 10
127.688
 20
522.006
 11
127.312
 21
522.006
  0
LINE
  8
0
 10
-127.688
 20
522.006
 11
-128.062
 21
522.053
  0
LINE
  8
0
 10
-128.062
 20
522.053
 11
-128.427
 21
522.147
  0
LINE
  8
0
 10
-128.427
 20
522.147
 11
-128.777
 21
522.286
  0
LINE
  8
0
 10
-128.777
 20
522.286
 11
-129.107
 21
522.467
  0
LINE
  8
0
 10
-129.107
 20
522.467
 11
-129.412
 21
522.688
  0
LINE
  8
0
 10
-129.412
 20
522.688
 11
-129.687
 21
522.946
  0
LINE
  8
0
 10
-129.687
 20
522.946
 11
-129.927
 21
523.237
  0
LINE
  8
0
 10
-129.927
 20
523.237
 11
-130.129
 21
523.555
  0
LINE
  8
0
 10
-130.129
 20
523.555
 11
-130.289
 21
523.896
  0
LINE
  8
0
 10
-130.289
 20
523.896
 11
-130.406
 21
524.254
  0
LINE
  8
0
 10
-130.406
 20
524.254
 11
-130.476
 21
524.624
  0
LINE
  8
0
 10
-130.476
 20
524.624
 11
-130.5
 21
525
  0
LINE
  8
0
 10
-130.5
 20
525
 11
-130.476
 21
525.376
  0
LINE
  8
0
 10
-130.476
 20
525.376
 11
-130.406
 21
525.746
  0
LINE
  8
0
 10
-130.406
 20
525.746
 11
-130.289
 21
526.104
  0
LINE
  8
0
 10
-130.289
 20
526.104
 11
-130.129
 21
526.445
  0
LINE
  8
0
 10
-130.129
 20
526.445
 11
-129.927
 21
526.763
  0
LINE
  8
0
 10
-129.927
 20
526.763
 11
-129.687
 21
527.054
  0
LINE
  8
0
 10
-129.687
 20
527.054
 11
-129.412
 21
527.312
  0
LINE
  8
0
 10
-129.412
 20
527.312
 11
-129.107
 21
527.533
  0
LINE
  8
0
 10
-129.107
 20
527.533
 11
-128.777
 21
527.714
  0
LINE
  8
0
 10
-128.777
 20
527.714
 11
-128.427
 21
527.853
  0
LINE
  8
0
 10
-128.427
 20
527.853
 11
-128.062
 21
527.947
  0
LINE
  8
0
 10
-128.062
 20
527.947
 11
-127.688
 21
527.994
  0
LINE
  8
0
 10
-127.688
 20
527.994
 11
-127.312
 21
527.994
  0
LINE
  8
0
 10
-127.312
 20
527.994
 11
-126.938
 21
527.947
  0
LINE
  8
0
 10
-126.938
 20
527.947
 11
-126.573
 21
527.853
  0
LINE
  8
0
 10
-126.573
 20
527.853
 11
-126.223
 21
527.714
  0
LINE
  8
0
 10
-126.223
 20
527.714
 11
-125.893
 21
527.533
  0
LINE
  8
0
 10
-125.893
 20
527.533
 11
-125.588
 21
527.312
  0
LINE
  8
0
 10
-125.588
 20
527.312
 11
-125.313
 21
527.054
  0
LINE
  8
0
 10
-125.313
 20
527.054
 11
-125.073
 21
526.763
  0
LINE
  8
0
 10
-125.073
 20
526.763
 11
-124.871
 21
526.445
  0
LINE
  8
0
 10
-124.871
 20
526.445
 11
-124.711
 21
526.104
  0
LINE
  8
0
 10
-124.711
 20
526.104
 11
-124.594
 21
525.746
  0
LINE
  8
0
 10
-124.594
 20
525.746
 11
-124.524
 21
525.376
  0
LINE
  8
0
 10
-124.524
 20
525.376
 11
-124.5
 21
525
  0
LINE
  8
0
 10
-124.5
 20
525
 11
-124.524
 21
524.624
  0
LINE
  8
0
 10
-124.524
 20
524.624
 11
-124.594
 21
524.254
  0
LINE
  8
0
 10
-124.594
 20
524.254
 11
-124.711
 21
523.896
  0
LINE
  8
0
 10
-124.711
 20
523.896
 11
-124.871
 21
523.555
  0
LINE
  8
0
 10
-124.871
 20
523.555
 11
-125.073
 21
523.237
  0
LINE
  8
0
 10
-125.073
 20
523.237
 11
-125.313
 21
522.946
  0
LINE
  8
0
 10
-125.313
 20
522.946
 11
-125.588
 21
522.688
  0
LINE
  8
0
 10
-125.588
 20
522.688
 11
-125.893
 21
522.467
  0
LINE
  8
0
 10
-125.893
 20
522.467
 11
-126.223
 21
522.286
  0
LINE
  8
0
 10
-126.223
 20
522.286
 11
-126.573
 21
522.147
  0
LINE
  8
0
 10
-126.573
 20
522.147
 11
-126.938
 21
522.053
  0
LINE
  8
0
 10
-126.938
 20
522.053
 11
-127.312
 21
522.006
  0
LINE
  8
0
 10
-127.312
 20
522.006
 11
-127.688
 21
522.006
  0
ENDSEC
  0
SECTION
  2
OBJECTS
  0
DICTIONARY
  0
ENDSEC
  0
EOF
