  0
SECTION
  2
BLOCKS
  0
ENDSEC
  0
SECTION
  2
ENTITIES
  0
LINE
  8
0
 10
17.9369
 20
41.0886
 11
18.5451
 21
41.2447
  0
LINE
  8
0
 10
18.5451
 20
41.2447
 11
19.1289
 21
41.4759
  0
LINE
  8
0
 10
19.1289
 20
41.4759
 11
19.6791
 21
41.7784
  0
LINE
  8
0
 10
19.6791
 20
41.7784
 11
20.1871
 21
42.1474
  0
LINE
  8
0
 10
20.1871
 20
42.1474
 11
20.6448
 21
42.5773
  0
LINE
  8
0
 10
20.6448
 20
42.5773
 11
21.0451
 21
43.0611
  0
LINE
  8
0
 10
21.0451
 20
43.0611
 11
21.3815
 21
43.5912
  0
LINE
  8
0
 10
21.3815
 20
43.5912
 11
21.6489
 21
44.1594
  0
LINE
  8
0
 10
21.6489
 20
44.1594
 11
21.8429
 21
44.7566
  0
LINE
  8
0
 10
21.8429
 20
44.7566
 11
21.9606
 21
45.3733
  0
LINE
  8
0
 10
21.9606
 20
45.3733
 11
22
 21
46
  0
LINE
  8
0
 10
22
 20
46
 11
22
 21
50
  0
LINE
  8
0
 10
22
 20
50
 11
21.9606
 21
50.6267
  0
LINE
  8
0
 10
21.9606
 20
50.6267
 11
21.8429
 21
51.2434
  0
LINE
  8
0
 10
21.8429
 20
51.2434
 11
21.6489
 21
51.8406
  0
LINE
  8
0
 10
21.6489
 20
51.8406
 11
21.3815
 21
52.4088
  0
LINE
  8
0
 10
21.3815
 20
52.4088
 11
21.0451
 21
52.9389
  0
LINE
  8
0
 10
21.0451
 20
52.9389
 11
20.6448
 21
53.4227
  0
LINE
  8
0
 10
20.6448
 20
53.4227
 11
20.1871
 21
53.8526
  0
LINE
  8
0
 10
20.1871
 20
53.8526
 11
19.6791
 21
54.2216
  0
LINE
  8
0
 10
19.6791
 20
54.2216
 11
19.1289
 21
54.5241
  0
LINE
  8
0
 10
19.1289
 20
54.5241
 11
18.5451
 21
54.7553
  0
LINE
  8
0
 10
18.5451
 20
54.7553
 11
17.9369
 21
54.9114
  0
LINE
  8
0
 10
17.9369
 20
54.9114
 11
17.3139
 21
54.9901
  0
LINE
  8
0
 10
17.3139
 20
54.9901
 11
-17.3139
 21
54.9901
  0
LINE
  8
0
 10
-17.3139
 20
54.9901
 11
-17.9369
 21
54.9114
  0
LINE
  8
0
 10
-17.9369
 20
54.9114
 11
-18.5451
 21
54.7553
  0
LINE
  8
0
 10
-18.5451
 20
54.7553
 11
-19.1289
 21
54.5241
  0
LINE
  8
0
 10
-19.1289
 20
54.5241
 11
-19.6791
 21
54.2216
  0
LINE
  8
0
 10
-19.6791
 20
54.2216
 11
-20.1871
 21
53.8526
  0
LINE
  8
0
 10
-20.1871
 20
53.8526
 11
-20.6448
 21
53.4227
  0
LINE
  8
0
 10
-20.6448
 20
53.4227
 11
-21.0451
 21
52.9389
  0
LINE
  8
0
 10
-21.0451
 20
52.9389
 11
-21.3815
 21
52.4088
  0
LINE
  8
0
 10
-21.3815
 20
52.4088
 11
-21.6489
 21
51.8406
  0
LINE
  8
0
 10
-21.6489
 20
51.8406
 11
-21.8429
 21
51.2434
  0
LINE
  8
0
 10
-21.8429
 20
51.2434
 11
-21.9606
 21
50.6267
  0
LINE
  8
0
 10
-21.9606
 20
50.6267
 11
-22
 21
50
  0
LINE
  8
0
 10
-22
 20
50
 11
-22
 21
46
  0
LINE
  8
0
 10
-22
 20
46
 11
-21.9606
 21
45.3733
  0
LINE
  8
0
 10
-21.9606
 20
45.3733
 11
-21.8429
 21
44.7566
  0
LINE
  8
0
 10
-21.8429
 20
44.7566
 11
-21.6489
 21
44.1594
  0
LINE
  8
0
 10
-21.6489
 20
44.1594
 11
-21.3815
 21
43.5912
  0
LINE
  8
0
 10
-21.3815
 20
43.5912
 11
-21.0451
 21
43.0611
  0
LINE
  8
0
 10
-21.0451
 20
43.0611
 11
-20.6448
 21
42.5773
  0
LINE
  8
0
 10
-20.6448
 20
42.5773
 11
-20.1871
 21
42.1474
  0
LINE
  8
0
 10
-20.1871
 20
42.1474
 11
-19.6791
 21
41.7784
  0
LINE
  8
0
 10
-19.6791
 20
41.7784
 11
-19.1289
 21
41.4759
  0
LINE
  8
0
 10
-19.1289
 20
41.4759
 11
-18.5451
 21
41.2447
  0
LINE
  8
0
 10
-18.5451
 20
41.2447
 11
-17.9369
 21
41.0886
  0
LINE
  8
0
 10
-17.9369
 20
41.0886
 11
-17.3139
 21
41.0099
  0
LINE
  8
0
 10
-17.3139
 20
41.0099
 11
17.3139
 21
41.0099
  0
LINE
  8
0
 10
17.3139
 20
41.0099
 11
17.9369
 21
41.0886
  0
LINE
  8
0
 10
-7.59418
 20
46.503
 11
-7.78107
 21
46.5266
  0
LINE
  8
0
 10
-7.78107
 20
46.5266
 11
-7.96352
 21
46.5734
  0
LINE
  8
0
 10
-7.96352
 20
46.5734
 11
-8.13866
 21
46.6428
  0
LINE
  8
0
 10
-8.13866
 20
46.6428
 11
-8.30373
 21
46.7335
  0
LINE
  8
0
 10
-8.30373
 20
46.7335
 11
-8.45613
 21
46.8442
  0
LINE
  8
0
 10
-8.45613
 20
46.8442
 11
-8.59344
 21
46.9732
  0
LINE
  8
0
 10
-8.59344
 20
46.9732
 11
-8.71352
 21
47.1183
  0
LINE
  8
0
 10
-8.71352
 20
47.1183
 11
-8.81445
 21
47.2774
  0
LINE
  8
0
 10
-8.81445
 20
47.2774
 11
-8.89465
 21
47.4478
  0
LINE
  8
0
 10
-8.89465
 20
47.4478
 11
-8.95287
 21
47.627
  0
LINE
  8
0
 10
-8.95287
 20
47.627
 11
-8.98816
 21
47.812
  0
LINE
  8
0
 10
-8.98816
 20
47.812
 11
-9
 21
48
  0
LINE
  8
0
 10
-9
 20
48
 11
-8.98816
 21
48.188
  0
LINE
  8
0
 10
-8.98816
 20
48.188
 11
-8.95287
 21
48.373
  0
LINE
  8
0
 10
-8.95287
 20
48.373
 11
-8.89465
 21
48.5522
  0
LINE
  8
0
 10
-8.89465
 20
48.5522
 11
-8.81445
 21
48.7226
  0
LINE
  8
0
 10
-8.81445
 20
48.7226
 11
-8.71352
 21
48.8817
  0
LINE
  8
0
 10
-8.71352
 20
48.8817
 11
-8.59344
 21
49.0268
  0
LINE
  8
0
 10
-8.59344
 20
49.0268
 11
-8.45613
 21
49.1558
  0
LINE
  8
0
 10
-8.45613
 20
49.1558
 11
-8.30373
 21
49.2665
  0
LINE
  8
0
 10
-8.30373
 20
49.2665
 11
-8.13866
 21
49.3572
  0
LINE
  8
0
 10
-8.13866
 20
49.3572
 11
-7.96352
 21
49.4266
  0
LINE
  8
0
 10
-7.96352
 20
49.4266
 11
-7.78107
 21
49.4734
  0
LINE
  8
0
 10
-7.78107
 20
49.4734
 11
-7.59418
 21
49.497
  0
LINE
  8
0
 10
-7.59418
 20
49.497
 11
-7.40581
 21
49.497
  0
LINE
  8
0
 10
-7.40581
 20
49.497
 11
-7.21892
 21
49.4734
  0
LINE
  8
0
 10
-7.21892
 20
49.4734
 11
-7.03647
 21
49.4266
  0
LINE
  8
0
 10
-7.03647
 20
49.4266
 11
-6.86133
 21
49.3572
  0
LINE
  8
0
 10
-6.86133
 20
49.3572
 11
-6.69626
 21
49.2665
  0
LINE
  8
0
 10
-6.69626
 20
49.2665
 11
-6.54385
 21
49.1558
  0
LINE
  8
0
 10
-6.54385
 20
49.1558
 11
-6.40654
 21
49.0268
  0
LINE
  8
0
 10
-6.40654
 20
49.0268
 11
-6.28647
 21
48.8817
  0
LINE
  8
0
 10
-6.28647
 20
48.8817
 11
-6.18553
 21
48.7226
  0
LINE
  8
0
 10
-6.18553
 20
48.7226
 11
-6.10533
 21
48.5522
  0
LINE
  8
0
 10
-6.10533
 20
48.5522
 11
-6.04712
 21
48.373
  0
LINE
  8
0
 10
-6.04712
 20
48.373
 11
-6.01183
 21
48.188
  0
LINE
  8
0
 10
-6.01183
 20
48.188
 11
-6
 21
48
  0
LINE
  8
0
 10
-6
 20
48
 11
-6.01183
 21
47.812
  0
LINE
  8
0
 10
-6.01183
 20
47.812
 11
-6.04712
 21
47.627
  0
LINE
  8
0
 10
-6.04712
 20
47.627
 11
-6.10533
 21
47.4478
  0
LINE
  8
0
 10
-6.10533
 20
47.4478
 11
-6.18553
 21
47.2774
  0
LINE
  8
0
 10
-6.18553
 20
47.2774
 11
-6.28647
 21
47.1183
  0
LINE
  8
0
 10
-6.28647
 20
47.1183
 11
-6.40654
 21
46.9732
  0
LINE
  8
0
 10
-6.40654
 20
46.9732
 11
-6.54385
 21
46.8442
  0
LINE
  8
0
 10
-6.54385
 20
46.8442
 11
-6.69626
 21
46.7335
  0
LINE
  8
0
 10
-6.69626
 20
46.7335
 11
-6.86133
 21
46.6428
  0
LINE
  8
0
 10
-6.86133
 20
46.6428
 11
-7.03647
 21
46.5734
  0
LINE
  8
0
 10
-7.03647
 20
46.5734
 11
-7.21892
 21
46.5266
  0
LINE
  8
0
 10
-7.21892
 20
46.5266
 11
-7.40581
 21
46.503
  0
LINE
  8
0
 10
-7.40581
 20
46.503
 11
-7.59418
 21
46.503
  0
LINE
  8
0
 10
-15.0942
 20
46.503
 11
-15.2811
 21
46.5266
  0
LINE
  8
0
 10
-15.2811
 20
46.5266
 11
-15.4635
 21
46.5734
  0
LINE
  8
0
 10
-15.4635
 20
46.5734
 11
-15.6387
 21
46.6428
  0
LINE
  8
0
 10
-15.6387
 20
46.6428
 11
-15.8037
 21
46.7335
  0
LINE
  8
0
 10
-15.8037
 20
46.7335
 11
-15.9561
 21
46.8442
  0
LINE
  8
0
 10
-15.9561
 20
46.8442
 11
-16.0934
 21
46.9732
  0
LINE
  8
0
 10
-16.0934
 20
46.9732
 11
-16.2135
 21
47.1183
  0
LINE
  8
0
 10
-16.2135
 20
47.1183
 11
-16.3145
 21
47.2774
  0
LINE
  8
0
 10
-16.3145
 20
47.2774
 11
-16.3947
 21
47.4478
  0
LINE
  8
0
 10
-16.3947
 20
47.4478
 11
-16.4529
 21
47.627
  0
LINE
  8
0
 10
-16.4529
 20
47.627
 11
-16.4882
 21
47.812
  0
LINE
  8
0
 10
-16.4882
 20
47.812
 11
-16.5
 21
48
  0
LINE
  8
0
 10
-16.5
 20
48
 11
-16.4882
 21
48.188
  0
LINE
  8
0
 10
-16.4882
 20
48.188
 11
-16.4529
 21
48.373
  0
LINE
  8
0
 10
-16.4529
 20
48.373
 11
-16.3947
 21
48.5522
  0
LINE
  8
0
 10
-16.3947
 20
48.5522
 11
-16.3145
 21
48.7226
  0
LINE
  8
0
 10
-16.3145
 20
48.7226
 11
-16.2135
 21
48.8817
  0
LINE
  8
0
 10
-16.2135
 20
48.8817
 11
-16.0934
 21
49.0268
  0
LINE
  8
0
 10
-16.0934
 20
49.0268
 11
-15.9561
 21
49.1558
  0
LINE
  8
0
 10
-15.9561
 20
49.1558
 11
-15.8037
 21
49.2665
  0
LINE
  8
0
 10
-15.8037
 20
49.2665
 11
-15.6387
 21
49.3572
  0
LINE
  8
0
 10
-15.6387
 20
49.3572
 11
-15.4635
 21
49.4266
  0
LINE
  8
0
 10
-15.4635
 20
49.4266
 11
-15.2811
 21
49.4734
  0
LINE
  8
0
 10
-15.2811
 20
49.4734
 11
-15.0942
 21
49.497
  0
LINE
  8
0
 10
-15.0942
 20
49.497
 11
-14.9058
 21
49.497
  0
LINE
  8
0
 10
-14.9058
 20
49.497
 11
-14.7189
 21
49.4734
  0
LINE
  8
0
 10
-14.7189
 20
49.4734
 11
-14.5365
 21
49.4266
  0
LINE
  8
0
 10
-14.5365
 20
49.4266
 11
-14.3613
 21
49.3572
  0
LINE
  8
0
 10
-14.3613
 20
49.3572
 11
-14.1963
 21
49.2665
  0
LINE
  8
0
 10
-14.1963
 20
49.2665
 11
-14.0439
 21
49.1558
  0
LINE
  8
0
 10
-14.0439
 20
49.1558
 11
-13.9065
 21
49.0268
  0
LINE
  8
0
 10
-13.9065
 20
49.0268
 11
-13.7865
 21
48.8817
  0
LINE
  8
0
 10
-13.7865
 20
48.8817
 11
-13.6855
 21
48.7226
  0
LINE
  8
0
 10
-13.6855
 20
48.7226
 11
-13.6053
 21
48.5522
  0
LINE
  8
0
 10
-13.6053
 20
48.5522
 11
-13.5471
 21
48.373
  0
LINE
  8
0
 10
-13.5471
 20
48.373
 11
-13.5118
 21
48.188
  0
LINE
  8
0
 10
-13.5118
 20
48.188
 11
-13.5
 21
48
  0
LINE
  8
0
 10
-13.5
 20
48
 11
-13.5118
 21
47.812
  0
LINE
  8
0
 10
-13.5118
 20
47.812
 11
-13.5471
 21
47.627
  0
LINE
  8
0
 10
-13.5471
 20
47.627
 11
-13.6053
 21
47.4478
  0
LINE
  8
0
 10
-13.6053
 20
47.4478
 11
-13.6855
 21
47.2774
  0
LINE
  8
0
 10
-13.6855
 20
47.2774
 11
-13.7865
 21
47.1183
  0
LINE
  8
0
 10
-13.7865
 20
47.1183
 11
-13.9065
 21
46.9732
  0
LINE
  8
0
 10
-13.9065
 20
46.9732
 11
-14.0439
 21
46.8442
  0
LINE
  8
0
 10
-14.0439
 20
46.8442
 11
-14.1963
 21
46.7335
  0
LINE
  8
0
 10
-14.1963
 20
46.7335
 11
-14.3613
 21
46.6428
  0
LINE
  8
0
 10
-14.3613
 20
46.6428
 11
-14.5365
 21
46.5734
  0
LINE
  8
0
 10
-14.5365
 20
46.5734
 11
-14.7189
 21
46.5266
  0
LINE
  8
0
 10
-14.7189
 20
46.5266
 11
-14.9058
 21
46.503
  0
LINE
  8
0
 10
-14.9058
 20
46.503
 11
-15.0942
 21
46.503
  0
LINE
  8
0
 10
7.40581
 20
46.503
 11
7.21892
 21
46.5266
  0
LINE
  8
0
 10
7.21892
 20
46.5266
 11
7.03647
 21
46.5734
  0
LINE
  8
0
 10
7.03647
 20
46.5734
 11
6.86133
 21
46.6428
  0
LINE
  8
0
 10
6.86133
 20
46.6428
 11
6.69626
 21
46.7335
  0
LINE
  8
0
 10
6.69626
 20
46.7335
 11
6.54385
 21
46.8442
  0
LINE
  8
0
 10
6.54385
 20
46.8442
 11
6.40654
 21
46.9732
  0
LINE
  8
0
 10
6.40654
 20
46.9732
 11
6.28647
 21
47.1183
  0
LINE
  8
0
 10
6.28647
 20
47.1183
 11
6.18553
 21
47.2774
  0
LINE
  8
0
 10
6.18553
 20
47.2774
 11
6.10533
 21
47.4478
  0
LINE
  8
0
 10
6.10533
 20
47.4478
 11
6.04712
 21
47.627
  0
LINE
  8
0
 10
6.04712
 20
47.627
 11
6.01183
 21
47.812
  0
LINE
  8
0
 10
6.01183
 20
47.812
 11
6
 21
48
  0
LINE
  8
0
 10
6
 20
48
 11
6.01183
 21
48.188
  0
LINE
  8
0
 10
6.01183
 20
48.188
 11
6.04712
 21
48.373
  0
LINE
  8
0
 10
6.04712
 20
48.373
 11
6.10533
 21
48.5522
  0
LINE
  8
0
 10
6.10533
 20
48.5522
 11
6.18553
 21
48.7226
  0
LINE
  8
0
 10
6.18553
 20
48.7226
 11
6.28647
 21
48.8817
  0
LINE
  8
0
 10
6.28647
 20
48.8817
 11
6.40654
 21
49.0268
  0
LINE
  8
0
 10
6.40654
 20
49.0268
 11
6.54385
 21
49.1558
  0
LINE
  8
0
 10
6.54385
 20
49.1558
 11
6.69626
 21
49.2665
  0
LINE
  8
0
 10
6.69626
 20
49.2665
 11
6.86133
 21
49.3572
  0
LINE
  8
0
 10
6.86133
 20
49.3572
 11
7.03647
 21
49.4266
  0
LINE
  8
0
 10
7.03647
 20
49.4266
 11
7.21892
 21
49.4734
  0
LINE
  8
0
 10
7.21892
 20
49.4734
 11
7.40581
 21
49.497
  0
LINE
  8
0
 10
7.40581
 20
49.497
 11
7.59418
 21
49.497
  0
LINE
  8
0
 10
7.59418
 20
49.497
 11
7.78107
 21
49.4734
  0
LINE
  8
0
 10
7.78107
 20
49.4734
 11
7.96352
 21
49.4266
  0
LINE
  8
0
 10
7.96352
 20
49.4266
 11
8.13866
 21
49.3572
  0
LINE
  8
0
 10
8.13866
 20
49.3572
 11
8.30373
 21
49.2665
  0
LINE
  8
0
 10
8.30373
 20
49.2665
 11
8.45613
 21
49.1558
  0
LINE
  8
0
 10
8.45613
 20
49.1558
 11
8.59344
 21
49.0268
  0
LINE
  8
0
 10
8.59344
 20
49.0268
 11
8.71352
 21
48.8817
  0
LINE
  8
0
 10
8.71352
 20
48.8817
 11
8.81445
 21
48.7226
  0
LINE
  8
0
 10
8.81445
 20
48.7226
 11
8.89465
 21
48.5522
  0
LINE
  8
0
 10
8.89465
 20
48.5522
 11
8.95287
 21
48.373
  0
LINE
  8
0
 10
8.95287
 20
48.373
 11
8.98816
 21
48.188
  0
LINE
  8
0
 10
8.98816
 20
48.188
 11
9
 21
48
  0
LINE
  8
0
 10
9
 20
48
 11
8.98816
 21
47.812
  0
LINE
  8
0
 10
8.98816
 20
47.812
 11
8.95287
 21
47.627
  0
LINE
  8
0
 10
8.95287
 20
47.627
 11
8.89465
 21
47.4478
  0
LINE
  8
0
 10
8.89465
 20
47.4478
 11
8.81445
 21
47.2774
  0
LINE
  8
0
 10
8.81445
 20
47.2774
 11
8.71352
 21
47.1183
  0
LINE
  8
0
 10
8.71352
 20
47.1183
 11
8.59344
 21
46.9732
  0
LINE
  8
0
 10
8.59344
 20
46.9732
 11
8.45613
 21
46.8442
  0
LINE
  8
0
 10
8.45613
 20
46.8442
 11
8.30373
 21
46.7335
  0
LINE
  8
0
 10
8.30373
 20
46.7335
 11
8.13866
 21
46.6428
  0
LINE
  8
0
 10
8.13866
 20
46.6428
 11
7.96352
 21
46.5734
  0
LINE
  8
0
 10
7.96352
 20
46.5734
 11
7.78107
 21
46.5266
  0
LINE
  8
0
 10
7.78107
 20
46.5266
 11
7.59418
 21
46.503
  0
LINE
  8
0
 10
7.59418
 20
46.503
 11
7.40581
 21
46.503
  0
LINE
  8
0
 10
-0.0941772
 20
46.503
 11
-0.281067
 21
46.5266
  0
LINE
  8
0
 10
-0.281067
 20
46.5266
 11
-0.463516
 21
46.5734
  0
LINE
  8
0
 10
-0.463516
 20
46.5734
 11
-0.638657
 21
46.6428
  0
LINE
  8
0
 10
-0.638657
 20
46.6428
 11
-0.803726
 21
46.7335
  0
LINE
  8
0
 10
-0.803726
 20
46.7335
 11
-0.956131
 21
46.8442
  0
LINE
  8
0
 10
-0.956131
 20
46.8442
 11
-1.09344
 21
46.9732
  0
LINE
  8
0
 10
-1.09344
 20
46.9732
 11
-1.21352
 21
47.1183
  0
LINE
  8
0
 10
-1.21352
 20
47.1183
 11
-1.31445
 21
47.2774
  0
LINE
  8
0
 10
-1.31445
 20
47.2774
 11
-1.39465
 21
47.4478
  0
LINE
  8
0
 10
-1.39465
 20
47.4478
 11
-1.45287
 21
47.627
  0
LINE
  8
0
 10
-1.45287
 20
47.627
 11
-1.48816
 21
47.812
  0
LINE
  8
0
 10
-1.48816
 20
47.812
 11
-1.5
 21
48
  0
LINE
  8
0
 10
-1.5
 20
48
 11
-1.48816
 21
48.188
  0
LINE
  8
0
 10
-1.48816
 20
48.188
 11
-1.45287
 21
48.373
  0
LINE
  8
0
 10
-1.45287
 20
48.373
 11
-1.39465
 21
48.5522
  0
LINE
  8
0
 10
-1.39465
 20
48.5522
 11
-1.31445
 21
48.7226
  0
LINE
  8
0
 10
-1.31445
 20
48.7226
 11
-1.21352
 21
48.8817
  0
LINE
  8
0
 10
-1.21352
 20
48.8817
 11
-1.09344
 21
49.0268
  0
LINE
  8
0
 10
-1.09344
 20
49.0268
 11
-0.956131
 21
49.1558
  0
LINE
  8
0
 10
-0.956131
 20
49.1558
 11
-0.803726
 21
49.2665
  0
LINE
  8
0
 10
-0.803726
 20
49.2665
 11
-0.638657
 21
49.3572
  0
LINE
  8
0
 10
-0.638657
 20
49.3572
 11
-0.463516
 21
49.4266
  0
LINE
  8
0
 10
-0.463516
 20
49.4266
 11
-0.281067
 21
49.4734
  0
LINE
  8
0
 10
-0.281067
 20
49.4734
 11
-0.0941772
 21
49.497
  0
LINE
  8
0
 10
-0.0941772
 20
49.497
 11
0.0941772
 21
49.497
  0
LINE
  8
0
 10
0.0941772
 20
49.497
 11
0.281067
 21
49.4734
  0
LINE
  8
0
 10
0.281067
 20
49.4734
 11
0.463516
 21
49.4266
  0
LINE
  8
0
 10
0.463516
 20
49.4266
 11
0.638657
 21
49.3572
  0
LINE
  8
0
 10
0.638657
 20
49.3572
 11
0.803726
 21
49.2665
  0
LINE
  8
0
 10
0.803726
 20
49.2665
 11
0.956131
 21
49.1558
  0
LINE
  8
0
 10
0.956131
 20
49.1558
 11
1.09344
 21
49.0268
  0
LINE
  8
0
 10
1.09344
 20
49.0268
 11
1.21352
 21
48.8817
  0
LINE
  8
0
 10
1.21352
 20
48.8817
 11
1.31445
 21
48.7226
  0
LINE
  8
0
 10
1.31445
 20
48.7226
 11
1.39465
 21
48.5522
  0
LINE
  8
0
 10
1.39465
 20
48.5522
 11
1.45287
 21
48.373
  0
LINE
  8
0
 10
1.45287
 20
48.373
 11
1.48816
 21
48.188
  0
LINE
  8
0
 10
1.48816
 20
48.188
 11
1.5
 21
48
  0
LINE
  8
0
 10
1.5
 20
48
 11
1.48816
 21
47.812
  0
LINE
  8
0
 10
1.48816
 20
47.812
 11
1.45287
 21
47.627
  0
LINE
  8
0
 10
1.45287
 20
47.627
 11
1.39465
 21
47.4478
  0
LINE
  8
0
 10
1.39465
 20
47.4478
 11
1.31445
 21
47.2774
  0
LINE
  8
0
 10
1.31445
 20
47.2774
 11
1.21352
 21
47.1183
  0
LINE
  8
0
 10
1.21352
 20
47.1183
 11
1.09344
 21
46.9732
  0
LINE
  8
0
 10
1.09344
 20
46.9732
 11
0.956131
 21
46.8442
  0
LINE
  8
0
 10
0.956131
 20
46.8442
 11
0.803726
 21
46.7335
  0
LINE
  8
0
 10
0.803726
 20
46.7335
 11
0.638657
 21
46.6428
  0
LINE
  8
0
 10
0.638657
 20
46.6428
 11
0.463516
 21
46.5734
  0
LINE
  8
0
 10
0.463516
 20
46.5734
 11
0.281067
 21
46.5266
  0
LINE
  8
0
 10
0.281067
 20
46.5266
 11
0.0941772
 21
46.503
  0
LINE
  8
0
 10
0.0941772
 20
46.503
 11
-0.0941772
 21
46.503
  0
LINE
  8
0
 10
14.9058
 20
46.503
 11
14.7189
 21
46.5266
  0
LINE
  8
0
 10
14.7189
 20
46.5266
 11
14.5365
 21
46.5734
  0
LINE
  8
0
 10
14.5365
 20
46.5734
 11
14.3613
 21
46.6428
  0
LINE
  8
0
 10
14.3613
 20
46.6428
 11
14.1963
 21
46.7335
  0
LINE
  8
0
 10
14.1963
 20
46.7335
 11
14.0439
 21
46.8442
  0
LINE
  8
0
 10
14.0439
 20
46.8442
 11
13.9065
 21
46.9732
  0
LINE
  8
0
 10
13.9065
 20
46.9732
 11
13.7865
 21
47.1183
  0
LINE
  8
0
 10
13.7865
 20
47.1183
 11
13.6855
 21
47.2774
  0
LINE
  8
0
 10
13.6855
 20
47.2774
 11
13.6053
 21
47.4478
  0
LINE
  8
0
 10
13.6053
 20
47.4478
 11
13.5471
 21
47.627
  0
LINE
  8
0
 10
13.5471
 20
47.627
 11
13.5118
 21
47.812
  0
LINE
  8
0
 10
13.5118
 20
47.812
 11
13.5
 21
48
  0
LINE
  8
0
 10
13.5
 20
48
 11
13.5118
 21
48.188
  0
LINE
  8
0
 10
13.5118
 20
48.188
 11
13.5471
 21
48.373
  0
LINE
  8
0
 10
13.5471
 20
48.373
 11
13.6053
 21
48.5522
  0
LINE
  8
0
 10
13.6053
 20
48.5522
 11
13.6855
 21
48.7226
  0
LINE
  8
0
 10
13.6855
 20
48.7226
 11
13.7865
 21
48.8817
  0
LINE
  8
0
 10
13.7865
 20
48.8817
 11
13.9065
 21
49.0268
  0
LINE
  8
0
 10
13.9065
 20
49.0268
 11
14.0439
 21
49.1558
  0
LINE
  8
0
 10
14.0439
 20
49.1558
 11
14.1963
 21
49.2665
  0
LINE
  8
0
 10
14.1963
 20
49.2665
 11
14.3613
 21
49.3572
  0
LINE
  8
0
 10
14.3613
 20
49.3572
 11
14.5365
 21
49.4266
  0
LINE
  8
0
 10
14.5365
 20
49.4266
 11
14.7189
 21
49.4734
  0
LINE
  8
0
 10
14.7189
 20
49.4734
 11
14.9058
 21
49.497
  0
LINE
  8
0
 10
14.9058
 20
49.497
 11
15.0942
 21
49.497
  0
LINE
  8
0
 10
15.0942
 20
49.497
 11
15.2811
 21
49.4734
  0
LINE
  8
0
 10
15.2811
 20
49.4734
 11
15.4635
 21
49.4266
  0
LINE
  8
0
 10
15.4635
 20
49.4266
 11
15.6387
 21
49.3572
  0
LINE
  8
0
 10
15.6387
 20
49.3572
 11
15.8037
 21
49.2665
  0
LINE
  8
0
 10
15.8037
 20
49.2665
 11
15.9561
 21
49.1558
  0
LINE
  8
0
 10
15.9561
 20
49.1558
 11
16.0934
 21
49.0268
  0
LINE
  8
0
 10
16.0934
 20
49.0268
 11
16.2135
 21
48.8817
  0
LINE
  8
0
 10
16.2135
 20
48.8817
 11
16.3145
 21
48.7226
  0
LINE
  8
0
 10
16.3145
 20
48.7226
 11
16.3947
 21
48.5522
  0
LINE
  8
0
 10
16.3947
 20
48.5522
 11
16.4529
 21
48.373
  0
LINE
  8
0
 10
16.4529
 20
48.373
 11
16.4882
 21
48.188
  0
LINE
  8
0
 10
16.4882
 20
48.188
 11
16.5
 21
48
  0
LINE
  8
0
 10
16.5
 20
48
 11
16.4882
 21
47.812
  0
LINE
  8
0
 10
16.4882
 20
47.812
 11
16.4529
 21
47.627
  0
LINE
  8
0
 10
16.4529
 20
47.627
 11
16.3947
 21
47.4478
  0
LINE
  8
0
 10
16.3947
 20
47.4478
 11
16.3145
 21
47.2774
  0
LINE
  8
0
 10
16.3145
 20
47.2774
 11
16.2135
 21
47.1183
  0
LINE
  8
0
 10
16.2135
 20
47.1183
 11
16.0934
 21
46.9732
  0
LINE
  8
0
 10
16.0934
 20
46.9732
 11
15.9561
 21
46.8442
  0
LINE
  8
0
 10
15.9561
 20
46.8442
 11
15.8037
 21
46.7335
  0
LINE
  8
0
 10
15.8037
 20
46.7335
 11
15.6387
 21
46.6428
  0
LINE
  8
0
 10
15.6387
 20
46.6428
 11
15.4635
 21
46.5734
  0
LINE
  8
0
 10
15.4635
 20
46.5734
 11
15.2811
 21
46.5266
  0
LINE
  8
0
 10
15.2811
 20
46.5266
 11
15.0942
 21
46.503
  0
LINE
  8
0
 10
15.0942
 20
46.503
 11
14.9058
 21
46.503
  0
LINE
  8
0
 10
17.9369
 20
17.0886
 11
18.5451
 21
17.2447
  0
LINE
  8
0
 10
18.5451
 20
17.2447
 11
19.1289
 21
17.4759
  0
LINE
  8
0
 10
19.1289
 20
17.4759
 11
19.6791
 21
17.7784
  0
LINE
  8
0
 10
19.6791
 20
17.7784
 11
20.1871
 21
18.1474
  0
LINE
  8
0
 10
20.1871
 20
18.1474
 11
20.6448
 21
18.5773
  0
LINE
  8
0
 10
20.6448
 20
18.5773
 11
21.0451
 21
19.0611
  0
LINE
  8
0
 10
21.0451
 20
19.0611
 11
21.3815
 21
19.5912
  0
LINE
  8
0
 10
21.3815
 20
19.5912
 11
21.6489
 21
20.1594
  0
LINE
  8
0
 10
21.6489
 20
20.1594
 11
21.8429
 21
20.7566
  0
LINE
  8
0
 10
21.8429
 20
20.7566
 11
21.9606
 21
21.3733
  0
LINE
  8
0
 10
21.9606
 20
21.3733
 11
22
 21
22
  0
LINE
  8
0
 10
22
 20
22
 11
22
 21
26
  0
LINE
  8
0
 10
22
 20
26
 11
21.9606
 21
26.6267
  0
LINE
  8
0
 10
21.9606
 20
26.6267
 11
21.8429
 21
27.2434
  0
LINE
  8
0
 10
21.8429
 20
27.2434
 11
21.6489
 21
27.8406
  0
LINE
  8
0
 10
21.6489
 20
27.8406
 11
21.3815
 21
28.4088
  0
LINE
  8
0
 10
21.3815
 20
28.4088
 11
21.0451
 21
28.9389
  0
LINE
  8
0
 10
21.0451
 20
28.9389
 11
20.6448
 21
29.4227
  0
LINE
  8
0
 10
20.6448
 20
29.4227
 11
20.1871
 21
29.8526
  0
LINE
  8
0
 10
20.1871
 20
29.8526
 11
19.6791
 21
30.2216
  0
LINE
  8
0
 10
19.6791
 20
30.2216
 11
19.1289
 21
30.5241
  0
LINE
  8
0
 10
19.1289
 20
30.5241
 11
18.5451
 21
30.7553
  0
LINE
  8
0
 10
18.5451
 20
30.7553
 11
17.9369
 21
30.9114
  0
LINE
  8
0
 10
17.9369
 20
30.9114
 11
17.3139
 21
30.9901
  0
LINE
  8
0
 10
17.3139
 20
30.9901
 11
-17.3139
 21
30.9901
  0
LINE
  8
0
 10
-17.3139
 20
30.9901
 11
-17.9369
 21
30.9114
  0
LINE
  8
0
 10
-17.9369
 20
30.9114
 11
-18.5451
 21
30.7553
  0
LINE
  8
0
 10
-18.5451
 20
30.7553
 11
-19.1289
 21
30.5241
  0
LINE
  8
0
 10
-19.1289
 20
30.5241
 11
-19.6791
 21
30.2216
  0
LINE
  8
0
 10
-19.6791
 20
30.2216
 11
-20.1871
 21
29.8526
  0
LINE
  8
0
 10
-20.1871
 20
29.8526
 11
-20.6448
 21
29.4227
  0
LINE
  8
0
 10
-20.6448
 20
29.4227
 11
-21.0451
 21
28.9389
  0
LINE
  8
0
 10
-21.0451
 20
28.9389
 11
-21.3815
 21
28.4088
  0
LINE
  8
0
 10
-21.3815
 20
28.4088
 11
-21.6489
 21
27.8406
  0
LINE
  8
0
 10
-21.6489
 20
27.8406
 11
-21.8429
 21
27.2434
  0
LINE
  8
0
 10
-21.8429
 20
27.2434
 11
-21.9606
 21
26.6267
  0
LINE
  8
0
 10
-21.9606
 20
26.6267
 11
-22
 21
26
  0
LINE
  8
0
 10
-22
 20
26
 11
-22
 21
22
  0
LINE
  8
0
 10
-22
 20
22
 11
-21.9606
 21
21.3733
  0
LINE
  8
0
 10
-21.9606
 20
21.3733
 11
-21.8429
 21
20.7566
  0
LINE
  8
0
 10
-21.8429
 20
20.7566
 11
-21.6489
 21
20.1594
  0
LINE
  8
0
 10
-21.6489
 20
20.1594
 11
-21.3815
 21
19.5912
  0
LINE
  8
0
 10
-21.3815
 20
19.5912
 11
-21.0451
 21
19.0611
  0
LINE
  8
0
 10
-21.0451
 20
19.0611
 11
-20.6448
 21
18.5773
  0
LINE
  8
0
 10
-20.6448
 20
18.5773
 11
-20.1871
 21
18.1474
  0
LINE
  8
0
 10
-20.1871
 20
18.1474
 11
-19.6791
 21
17.7784
  0
LINE
  8
0
 10
-19.6791
 20
17.7784
 11
-19.1289
 21
17.4759
  0
LINE
  8
0
 10
-19.1289
 20
17.4759
 11
-18.5451
 21
17.2447
  0
LINE
  8
0
 10
-18.5451
 20
17.2447
 11
-17.9369
 21
17.0886
  0
LINE
  8
0
 10
-17.9369
 20
17.0886
 11
-17.3139
 21
17.0099
  0
LINE
  8
0
 10
-17.3139
 20
17.0099
 11
17.3139
 21
17.0099
  0
LINE
  8
0
 10
17.3139
 20
17.0099
 11
17.9369
 21
17.0886
  0
LINE
  8
0
 10
14.9058
 20
22.503
 11
14.7189
 21
22.5266
  0
LINE
  8
0
 10
14.7189
 20
22.5266
 11
14.5365
 21
22.5734
  0
LINE
  8
0
 10
14.5365
 20
22.5734
 11
14.3613
 21
22.6428
  0
LINE
  8
0
 10
14.3613
 20
22.6428
 11
14.1963
 21
22.7335
  0
LINE
  8
0
 10
14.1963
 20
22.7335
 11
14.0439
 21
22.8442
  0
LINE
  8
0
 10
14.0439
 20
22.8442
 11
13.9065
 21
22.9732
  0
LINE
  8
0
 10
13.9065
 20
22.9732
 11
13.7865
 21
23.1183
  0
LINE
  8
0
 10
13.7865
 20
23.1183
 11
13.6855
 21
23.2774
  0
LINE
  8
0
 10
13.6855
 20
23.2774
 11
13.6053
 21
23.4478
  0
LINE
  8
0
 10
13.6053
 20
23.4478
 11
13.5471
 21
23.627
  0
LINE
  8
0
 10
13.5471
 20
23.627
 11
13.5118
 21
23.812
  0
LINE
  8
0
 10
13.5118
 20
23.812
 11
13.5
 21
24
  0
LINE
  8
0
 10
13.5
 20
24
 11
13.5118
 21
24.188
  0
LINE
  8
0
 10
13.5118
 20
24.188
 11
13.5471
 21
24.373
  0
LINE
  8
0
 10
13.5471
 20
24.373
 11
13.6053
 21
24.5522
  0
LINE
  8
0
 10
13.6053
 20
24.5522
 11
13.6855
 21
24.7226
  0
LINE
  8
0
 10
13.6855
 20
24.7226
 11
13.7865
 21
24.8817
  0
LINE
  8
0
 10
13.7865
 20
24.8817
 11
13.9065
 21
25.0268
  0
LINE
  8
0
 10
13.9065
 20
25.0268
 11
14.0439
 21
25.1558
  0
LINE
  8
0
 10
14.0439
 20
25.1558
 11
14.1963
 21
25.2665
  0
LINE
  8
0
 10
14.1963
 20
25.2665
 11
14.3613
 21
25.3572
  0
LINE
  8
0
 10
14.3613
 20
25.3572
 11
14.5365
 21
25.4266
  0
LINE
  8
0
 10
14.5365
 20
25.4266
 11
14.7189
 21
25.4734
  0
LINE
  8
0
 10
14.7189
 20
25.4734
 11
14.9058
 21
25.497
  0
LINE
  8
0
 10
14.9058
 20
25.497
 11
15.0942
 21
25.497
  0
LINE
  8
0
 10
15.0942
 20
25.497
 11
15.2811
 21
25.4734
  0
LINE
  8
0
 10
15.2811
 20
25.4734
 11
15.4635
 21
25.4266
  0
LINE
  8
0
 10
15.4635
 20
25.4266
 11
15.6387
 21
25.3572
  0
LINE
  8
0
 10
15.6387
 20
25.3572
 11
15.8037
 21
25.2665
  0
LINE
  8
0
 10
15.8037
 20
25.2665
 11
15.9561
 21
25.1558
  0
LINE
  8
0
 10
15.9561
 20
25.1558
 11
16.0934
 21
25.0268
  0
LINE
  8
0
 10
16.0934
 20
25.0268
 11
16.2135
 21
24.8817
  0
LINE
  8
0
 10
16.2135
 20
24.8817
 11
16.3145
 21
24.7226
  0
LINE
  8
0
 10
16.3145
 20
24.7226
 11
16.3947
 21
24.5522
  0
LINE
  8
0
 10
16.3947
 20
24.5522
 11
16.4529
 21
24.373
  0
LINE
  8
0
 10
16.4529
 20
24.373
 11
16.4882
 21
24.188
  0
LINE
  8
0
 10
16.4882
 20
24.188
 11
16.5
 21
24
  0
LINE
  8
0
 10
16.5
 20
24
 11
16.4882
 21
23.812
  0
LINE
  8
0
 10
16.4882
 20
23.812
 11
16.4529
 21
23.627
  0
LINE
  8
0
 10
16.4529
 20
23.627
 11
16.3947
 21
23.4478
  0
LINE
  8
0
 10
16.3947
 20
23.4478
 11
16.3145
 21
23.2774
  0
LINE
  8
0
 10
16.3145
 20
23.2774
 11
16.2135
 21
23.1183
  0
LINE
  8
0
 10
16.2135
 20
23.1183
 11
16.0934
 21
22.9732
  0
LINE
  8
0
 10
16.0934
 20
22.9732
 11
15.9561
 21
22.8442
  0
LINE
  8
0
 10
15.9561
 20
22.8442
 11
15.8037
 21
22.7335
  0
LINE
  8
0
 10
15.8037
 20
22.7335
 11
15.6387
 21
22.6428
  0
LINE
  8
0
 10
15.6387
 20
22.6428
 11
15.4635
 21
22.5734
  0
LINE
  8
0
 10
15.4635
 20
22.5734
 11
15.2811
 21
22.5266
  0
LINE
  8
0
 10
15.2811
 20
22.5266
 11
15.0942
 21
22.503
  0
LINE
  8
0
 10
15.0942
 20
22.503
 11
14.9058
 21
22.503
  0
LINE
  8
0
 10
-15.0942
 20
22.503
 11
-15.2811
 21
22.5266
  0
LINE
  8
0
 10
-15.2811
 20
22.5266
 11
-15.4635
 21
22.5734
  0
LINE
  8
0
 10
-15.4635
 20
22.5734
 11
-15.6387
 21
22.6428
  0
LINE
  8
0
 10
-15.6387
 20
22.6428
 11
-15.8037
 21
22.7335
  0
LINE
  8
0
 10
-15.8037
 20
22.7335
 11
-15.9561
 21
22.8442
  0
LINE
  8
0
 10
-15.9561
 20
22.8442
 11
-16.0934
 21
22.9732
  0
LINE
  8
0
 10
-16.0934
 20
22.9732
 11
-16.2135
 21
23.1183
  0
LINE
  8
0
 10
-16.2135
 20
23.1183
 11
-16.3145
 21
23.2774
  0
LINE
  8
0
 10
-16.3145
 20
23.2774
 11
-16.3947
 21
23.4478
  0
LINE
  8
0
 10
-16.3947
 20
23.4478
 11
-16.4529
 21
23.627
  0
LINE
  8
0
 10
-16.4529
 20
23.627
 11
-16.4882
 21
23.812
  0
LINE
  8
0
 10
-16.4882
 20
23.812
 11
-16.5
 21
24
  0
LINE
  8
0
 10
-16.5
 20
24
 11
-16.4882
 21
24.188
  0
LINE
  8
0
 10
-16.4882
 20
24.188
 11
-16.4529
 21
24.373
  0
LINE
  8
0
 10
-16.4529
 20
24.373
 11
-16.3947
 21
24.5522
  0
LINE
  8
0
 10
-16.3947
 20
24.5522
 11
-16.3145
 21
24.7226
  0
LINE
  8
0
 10
-16.3145
 20
24.7226
 11
-16.2135
 21
24.8817
  0
LINE
  8
0
 10
-16.2135
 20
24.8817
 11
-16.0934
 21
25.0268
  0
LINE
  8
0
 10
-16.0934
 20
25.0268
 11
-15.9561
 21
25.1558
  0
LINE
  8
0
 10
-15.9561
 20
25.1558
 11
-15.8037
 21
25.2665
  0
LINE
  8
0
 10
-15.8037
 20
25.2665
 11
-15.6387
 21
25.3572
  0
LINE
  8
0
 10
-15.6387
 20
25.3572
 11
-15.4635
 21
25.4266
  0
LINE
  8
0
 10
-15.4635
 20
25.4266
 11
-15.2811
 21
25.4734
  0
LINE
  8
0
 10
-15.2811
 20
25.4734
 11
-15.0942
 21
25.497
  0
LINE
  8
0
 10
-15.0942
 20
25.497
 11
-14.9058
 21
25.497
  0
LINE
  8
0
 10
-14.9058
 20
25.497
 11
-14.7189
 21
25.4734
  0
LINE
  8
0
 10
-14.7189
 20
25.4734
 11
-14.5365
 21
25.4266
  0
LINE
  8
0
 10
-14.5365
 20
25.4266
 11
-14.3613
 21
25.3572
  0
LINE
  8
0
 10
-14.3613
 20
25.3572
 11
-14.1963
 21
25.2665
  0
LINE
  8
0
 10
-14.1963
 20
25.2665
 11
-14.0439
 21
25.1558
  0
LINE
  8
0
 10
-14.0439
 20
25.1558
 11
-13.9065
 21
25.0268
  0
LINE
  8
0
 10
-13.9065
 20
25.0268
 11
-13.7865
 21
24.8817
  0
LINE
  8
0
 10
-13.7865
 20
24.8817
 11
-13.6855
 21
24.7226
  0
LINE
  8
0
 10
-13.6855
 20
24.7226
 11
-13.6053
 21
24.5522
  0
LINE
  8
0
 10
-13.6053
 20
24.5522
 11
-13.5471
 21
24.373
  0
LINE
  8
0
 10
-13.5471
 20
24.373
 11
-13.5118
 21
24.188
  0
LINE
  8
0
 10
-13.5118
 20
24.188
 11
-13.5
 21
24
  0
LINE
  8
0
 10
-13.5
 20
24
 11
-13.5118
 21
23.812
  0
LINE
  8
0
 10
-13.5118
 20
23.812
 11
-13.5471
 21
23.627
  0
LINE
  8
0
 10
-13.5471
 20
23.627
 11
-13.6053
 21
23.4478
  0
LINE
  8
0
 10
-13.6053
 20
23.4478
 11
-13.6855
 21
23.2774
  0
LINE
  8
0
 10
-13.6855
 20
23.2774
 11
-13.7865
 21
23.1183
  0
LINE
  8
0
 10
-13.7865
 20
23.1183
 11
-13.9065
 21
22.9732
  0
LINE
  8
0
 10
-13.9065
 20
22.9732
 11
-14.0439
 21
22.8442
  0
LINE
  8
0
 10
-14.0439
 20
22.8442
 11
-14.1963
 21
22.7335
  0
LINE
  8
0
 10
-14.1963
 20
22.7335
 11
-14.3613
 21
22.6428
  0
LINE
  8
0
 10
-14.3613
 20
22.6428
 11
-14.5365
 21
22.5734
  0
LINE
  8
0
 10
-14.5365
 20
22.5734
 11
-14.7189
 21
22.5266
  0
LINE
  8
0
 10
-14.7189
 20
22.5266
 11
-14.9058
 21
22.503
  0
LINE
  8
0
 10
-14.9058
 20
22.503
 11
-15.0942
 21
22.503
  0
LINE
  8
0
 10
-0.0941772
 20
22.503
 11
-0.281067
 21
22.5266
  0
LINE
  8
0
 10
-0.281067
 20
22.5266
 11
-0.463516
 21
22.5734
  0
LINE
  8
0
 10
-0.463516
 20
22.5734
 11
-0.638657
 21
22.6428
  0
LINE
  8
0
 10
-0.638657
 20
22.6428
 11
-0.803726
 21
22.7335
  0
LINE
  8
0
 10
-0.803726
 20
22.7335
 11
-0.956131
 21
22.8442
  0
LINE
  8
0
 10
-0.956131
 20
22.8442
 11
-1.09344
 21
22.9732
  0
LINE
  8
0
 10
-1.09344
 20
22.9732
 11
-1.21352
 21
23.1183
  0
LINE
  8
0
 10
-1.21352
 20
23.1183
 11
-1.31445
 21
23.2774
  0
LINE
  8
0
 10
-1.31445
 20
23.2774
 11
-1.39465
 21
23.4478
  0
LINE
  8
0
 10
-1.39465
 20
23.4478
 11
-1.45287
 21
23.627
  0
LINE
  8
0
 10
-1.45287
 20
23.627
 11
-1.48816
 21
23.812
  0
LINE
  8
0
 10
-1.48816
 20
23.812
 11
-1.5
 21
24
  0
LINE
  8
0
 10
-1.5
 20
24
 11
-1.48816
 21
24.188
  0
LINE
  8
0
 10
-1.48816
 20
24.188
 11
-1.45287
 21
24.373
  0
LINE
  8
0
 10
-1.45287
 20
24.373
 11
-1.39465
 21
24.5522
  0
LINE
  8
0
 10
-1.39465
 20
24.5522
 11
-1.31445
 21
24.7226
  0
LINE
  8
0
 10
-1.31445
 20
24.7226
 11
-1.21352
 21
24.8817
  0
LINE
  8
0
 10
-1.21352
 20
24.8817
 11
-1.09344
 21
25.0268
  0
LINE
  8
0
 10
-1.09344
 20
25.0268
 11
-0.956131
 21
25.1558
  0
LINE
  8
0
 10
-0.956131
 20
25.1558
 11
-0.803726
 21
25.2665
  0
LINE
  8
0
 10
-0.803726
 20
25.2665
 11
-0.638657
 21
25.3572
  0
LINE
  8
0
 10
-0.638657
 20
25.3572
 11
-0.463516
 21
25.4266
  0
LINE
  8
0
 10
-0.463516
 20
25.4266
 11
-0.281067
 21
25.4734
  0
LINE
  8
0
 10
-0.281067
 20
25.4734
 11
-0.0941772
 21
25.497
  0
LINE
  8
0
 10
-0.0941772
 20
25.497
 11
0.0941772
 21
25.497
  0
LINE
  8
0
 10
0.0941772
 20
25.497
 11
0.281067
 21
25.4734
  0
LINE
  8
0
 10
0.281067
 20
25.4734
 11
0.463516
 21
25.4266
  0
LINE
  8
0
 10
0.463516
 20
25.4266
 11
0.638657
 21
25.3572
  0
LINE
  8
0
 10
0.638657
 20
25.3572
 11
0.803726
 21
25.2665
  0
LINE
  8
0
 10
0.803726
 20
25.2665
 11
0.956131
 21
25.1558
  0
LINE
  8
0
 10
0.956131
 20
25.1558
 11
1.09344
 21
25.0268
  0
LINE
  8
0
 10
1.09344
 20
25.0268
 11
1.21352
 21
24.8817
  0
LINE
  8
0
 10
1.21352
 20
24.8817
 11
1.31445
 21
24.7226
  0
LINE
  8
0
 10
1.31445
 20
24.7226
 11
1.39465
 21
24.5522
  0
LINE
  8
0
 10
1.39465
 20
24.5522
 11
1.45287
 21
24.373
  0
LINE
  8
0
 10
1.45287
 20
24.373
 11
1.48816
 21
24.188
  0
LINE
  8
0
 10
1.48816
 20
24.188
 11
1.5
 21
24
  0
LINE
  8
0
 10
1.5
 20
24
 11
1.48816
 21
23.812
  0
LINE
  8
0
 10
1.48816
 20
23.812
 11
1.45287
 21
23.627
  0
LINE
  8
0
 10
1.45287
 20
23.627
 11
1.39465
 21
23.4478
  0
LINE
  8
0
 10
1.39465
 20
23.4478
 11
1.31445
 21
23.2774
  0
LINE
  8
0
 10
1.31445
 20
23.2774
 11
1.21352
 21
23.1183
  0
LINE
  8
0
 10
1.21352
 20
23.1183
 11
1.09344
 21
22.9732
  0
LINE
  8
0
 10
1.09344
 20
22.9732
 11
0.956131
 21
22.8442
  0
LINE
  8
0
 10
0.956131
 20
22.8442
 11
0.803726
 21
22.7335
  0
LINE
  8
0
 10
0.803726
 20
22.7335
 11
0.638657
 21
22.6428
  0
LINE
  8
0
 10
0.638657
 20
22.6428
 11
0.463516
 21
22.5734
  0
LINE
  8
0
 10
0.463516
 20
22.5734
 11
0.281067
 21
22.5266
  0
LINE
  8
0
 10
0.281067
 20
22.5266
 11
0.0941772
 21
22.503
  0
LINE
  8
0
 10
0.0941772
 20
22.503
 11
-0.0941772
 21
22.503
  0
LINE
  8
0
 10
-7.59418
 20
22.503
 11
-7.78107
 21
22.5266
  0
LINE
  8
0
 10
-7.78107
 20
22.5266
 11
-7.96352
 21
22.5734
  0
LINE
  8
0
 10
-7.96352
 20
22.5734
 11
-8.13866
 21
22.6428
  0
LINE
  8
0
 10
-8.13866
 20
22.6428
 11
-8.30373
 21
22.7335
  0
LINE
  8
0
 10
-8.30373
 20
22.7335
 11
-8.45613
 21
22.8442
  0
LINE
  8
0
 10
-8.45613
 20
22.8442
 11
-8.59344
 21
22.9732
  0
LINE
  8
0
 10
-8.59344
 20
22.9732
 11
-8.71352
 21
23.1183
  0
LINE
  8
0
 10
-8.71352
 20
23.1183
 11
-8.81445
 21
23.2774
  0
LINE
  8
0
 10
-8.81445
 20
23.2774
 11
-8.89465
 21
23.4478
  0
LINE
  8
0
 10
-8.89465
 20
23.4478
 11
-8.95287
 21
23.627
  0
LINE
  8
0
 10
-8.95287
 20
23.627
 11
-8.98816
 21
23.812
  0
LINE
  8
0
 10
-8.98816
 20
23.812
 11
-9
 21
24
  0
LINE
  8
0
 10
-9
 20
24
 11
-8.98816
 21
24.188
  0
LINE
  8
0
 10
-8.98816
 20
24.188
 11
-8.95287
 21
24.373
  0
LINE
  8
0
 10
-8.95287
 20
24.373
 11
-8.89465
 21
24.5522
  0
LINE
  8
0
 10
-8.89465
 20
24.5522
 11
-8.81445
 21
24.7226
  0
LINE
  8
0
 10
-8.81445
 20
24.7226
 11
-8.71352
 21
24.8817
  0
LINE
  8
0
 10
-8.71352
 20
24.8817
 11
-8.59344
 21
25.0268
  0
LINE
  8
0
 10
-8.59344
 20
25.0268
 11
-8.45613
 21
25.1558
  0
LINE
  8
0
 10
-8.45613
 20
25.1558
 11
-8.30373
 21
25.2665
  0
LINE
  8
0
 10
-8.30373
 20
25.2665
 11
-8.13866
 21
25.3572
  0
LINE
  8
0
 10
-8.13866
 20
25.3572
 11
-7.96352
 21
25.4266
  0
LINE
  8
0
 10
-7.96352
 20
25.4266
 11
-7.78107
 21
25.4734
  0
LINE
  8
0
 10
-7.78107
 20
25.4734
 11
-7.59418
 21
25.497
  0
LINE
  8
0
 10
-7.59418
 20
25.497
 11
-7.40581
 21
25.497
  0
LINE
  8
0
 10
-7.40581
 20
25.497
 11
-7.21892
 21
25.4734
  0
LINE
  8
0
 10
-7.21892
 20
25.4734
 11
-7.03647
 21
25.4266
  0
LINE
  8
0
 10
-7.03647
 20
25.4266
 11
-6.86133
 21
25.3572
  0
LINE
  8
0
 10
-6.86133
 20
25.3572
 11
-6.69626
 21
25.2665
  0
LINE
  8
0
 10
-6.69626
 20
25.2665
 11
-6.54385
 21
25.1558
  0
LINE
  8
0
 10
-6.54385
 20
25.1558
 11
-6.40654
 21
25.0268
  0
LINE
  8
0
 10
-6.40654
 20
25.0268
 11
-6.28647
 21
24.8817
  0
LINE
  8
0
 10
-6.28647
 20
24.8817
 11
-6.18553
 21
24.7226
  0
LINE
  8
0
 10
-6.18553
 20
24.7226
 11
-6.10533
 21
24.5522
  0
LINE
  8
0
 10
-6.10533
 20
24.5522
 11
-6.04712
 21
24.373
  0
LINE
  8
0
 10
-6.04712
 20
24.373
 11
-6.01183
 21
24.188
  0
LINE
  8
0
 10
-6.01183
 20
24.188
 11
-6
 21
24
  0
LINE
  8
0
 10
-6
 20
24
 11
-6.01183
 21
23.812
  0
LINE
  8
0
 10
-6.01183
 20
23.812
 11
-6.04712
 21
23.627
  0
LINE
  8
0
 10
-6.04712
 20
23.627
 11
-6.10533
 21
23.4478
  0
LINE
  8
0
 10
-6.10533
 20
23.4478
 11
-6.18553
 21
23.2774
  0
LINE
  8
0
 10
-6.18553
 20
23.2774
 11
-6.28647
 21
23.1183
  0
LINE
  8
0
 10
-6.28647
 20
23.1183
 11
-6.40654
 21
22.9732
  0
LINE
  8
0
 10
-6.40654
 20
22.9732
 11
-6.54385
 21
22.8442
  0
LINE
  8
0
 10
-6.54385
 20
22.8442
 11
-6.69626
 21
22.7335
  0
LINE
  8
0
 10
-6.69626
 20
22.7335
 11
-6.86133
 21
22.6428
  0
LINE
  8
0
 10
-6.86133
 20
22.6428
 11
-7.03647
 21
22.5734
  0
LINE
  8
0
 10
-7.03647
 20
22.5734
 11
-7.21892
 21
22.5266
  0
LINE
  8
0
 10
-7.21892
 20
22.5266
 11
-7.40581
 21
22.503
  0
LINE
  8
0
 10
-7.40581
 20
22.503
 11
-7.59418
 21
22.503
  0
LINE
  8
0
 10
7.40581
 20
22.503
 11
7.21892
 21
22.5266
  0
LINE
  8
0
 10
7.21892
 20
22.5266
 11
7.03647
 21
22.5734
  0
LINE
  8
0
 10
7.03647
 20
22.5734
 11
6.86133
 21
22.6428
  0
LINE
  8
0
 10
6.86133
 20
22.6428
 11
6.69626
 21
22.7335
  0
LINE
  8
0
 10
6.69626
 20
22.7335
 11
6.54385
 21
22.8442
  0
LINE
  8
0
 10
6.54385
 20
22.8442
 11
6.40654
 21
22.9732
  0
LINE
  8
0
 10
6.40654
 20
22.9732
 11
6.28647
 21
23.1183
  0
LINE
  8
0
 10
6.28647
 20
23.1183
 11
6.18553
 21
23.2774
  0
LINE
  8
0
 10
6.18553
 20
23.2774
 11
6.10533
 21
23.4478
  0
LINE
  8
0
 10
6.10533
 20
23.4478
 11
6.04712
 21
23.627
  0
LINE
  8
0
 10
6.04712
 20
23.627
 11
6.01183
 21
23.812
  0
LINE
  8
0
 10
6.01183
 20
23.812
 11
6
 21
24
  0
LINE
  8
0
 10
6
 20
24
 11
6.01183
 21
24.188
  0
LINE
  8
0
 10
6.01183
 20
24.188
 11
6.04712
 21
24.373
  0
LINE
  8
0
 10
6.04712
 20
24.373
 11
6.10533
 21
24.5522
  0
LINE
  8
0
 10
6.10533
 20
24.5522
 11
6.18553
 21
24.7226
  0
LINE
  8
0
 10
6.18553
 20
24.7226
 11
6.28647
 21
24.8817
  0
LINE
  8
0
 10
6.28647
 20
24.8817
 11
6.40654
 21
25.0268
  0
LINE
  8
0
 10
6.40654
 20
25.0268
 11
6.54385
 21
25.1558
  0
LINE
  8
0
 10
6.54385
 20
25.1558
 11
6.69626
 21
25.2665
  0
LINE
  8
0
 10
6.69626
 20
25.2665
 11
6.86133
 21
25.3572
  0
LINE
  8
0
 10
6.86133
 20
25.3572
 11
7.03647
 21
25.4266
  0
LINE
  8
0
 10
7.03647
 20
25.4266
 11
7.21892
 21
25.4734
  0
LINE
  8
0
 10
7.21892
 20
25.4734
 11
7.40581
 21
25.497
  0
LINE
  8
0
 10
7.40581
 20
25.497
 11
7.59418
 21
25.497
  0
LINE
  8
0
 10
7.59418
 20
25.497
 11
7.78107
 21
25.4734
  0
LINE
  8
0
 10
7.78107
 20
25.4734
 11
7.96352
 21
25.4266
  0
LINE
  8
0
 10
7.96352
 20
25.4266
 11
8.13866
 21
25.3572
  0
LINE
  8
0
 10
8.13866
 20
25.3572
 11
8.30373
 21
25.2665
  0
LINE
  8
0
 10
8.30373
 20
25.2665
 11
8.45613
 21
25.1558
  0
LINE
  8
0
 10
8.45613
 20
25.1558
 11
8.59344
 21
25.0268
  0
LINE
  8
0
 10
8.59344
 20
25.0268
 11
8.71352
 21
24.8817
  0
LINE
  8
0
 10
8.71352
 20
24.8817
 11
8.81445
 21
24.7226
  0
LINE
  8
0
 10
8.81445
 20
24.7226
 11
8.89465
 21
24.5522
  0
LINE
  8
0
 10
8.89465
 20
24.5522
 11
8.95287
 21
24.373
  0
LINE
  8
0
 10
8.95287
 20
24.373
 11
8.98816
 21
24.188
  0
LINE
  8
0
 10
8.98816
 20
24.188
 11
9
 21
24
  0
LINE
  8
0
 10
9
 20
24
 11
8.98816
 21
23.812
  0
LINE
  8
0
 10
8.98816
 20
23.812
 11
8.95287
 21
23.627
  0
LINE
  8
0
 10
8.95287
 20
23.627
 11
8.89465
 21
23.4478
  0
LINE
  8
0
 10
8.89465
 20
23.4478
 11
8.81445
 21
23.2774
  0
LINE
  8
0
 10
8.81445
 20
23.2774
 11
8.71352
 21
23.1183
  0
LINE
  8
0
 10
8.71352
 20
23.1183
 11
8.59344
 21
22.9732
  0
LINE
  8
0
 10
8.59344
 20
22.9732
 11
8.45613
 21
22.8442
  0
LINE
  8
0
 10
8.45613
 20
22.8442
 11
8.30373
 21
22.7335
  0
LINE
  8
0
 10
8.30373
 20
22.7335
 11
8.13866
 21
22.6428
  0
LINE
  8
0
 10
8.13866
 20
22.6428
 11
7.96352
 21
22.5734
  0
LINE
  8
0
 10
7.96352
 20
22.5734
 11
7.78107
 21
22.5266
  0
LINE
  8
0
 10
7.78107
 20
22.5266
 11
7.59418
 21
22.503
  0
LINE
  8
0
 10
7.59418
 20
22.503
 11
7.40581
 21
22.503
  0
ENDSEC
  0
SECTION
  2
OBJECTS
  0
DICTIONARY
  0
ENDSEC
  0
EOF
