  0
SECTION
  2
BLOCKS
  0
ENDSEC
  0
SECTION
  2
ENTITIES
  0
LINE
  8
0
 10
160.437
 20
-6.91142
 11
161.045
 21
-6.75528
  0
LINE
  8
0
 10
161.045
 20
-6.75528
 11
161.629
 21
-6.52412
  0
LINE
  8
0
 10
161.629
 20
-6.52412
 11
162.179
 21
-6.22163
  0
LINE
  8
0
 10
162.179
 20
-6.22163
 11
162.687
 21
-5.85255
  0
LINE
  8
0
 10
162.687
 20
-5.85255
 11
163.145
 21
-5.42273
  0
LINE
  8
0
 10
163.145
 20
-5.42273
 11
163.545
 21
-4.93892
  0
LINE
  8
0
 10
163.545
 20
-4.93892
 11
163.882
 21
-4.40877
  0
LINE
  8
0
 10
163.882
 20
-4.40877
 11
164.149
 21
-3.84062
  0
LINE
  8
0
 10
164.149
 20
-3.84062
 11
164.343
 21
-3.24344
  0
LINE
  8
0
 10
164.343
 20
-3.24344
 11
164.461
 21
-2.62666
  0
LINE
  8
0
 10
164.461
 20
-2.62666
 11
164.5
 21
-2
  0
LINE
  8
0
 10
164.5
 20
-2
 11
164.5
 21
2
  0
LINE
  8
0
 10
164.5
 20
2
 11
164.461
 21
2.62666
  0
LINE
  8
0
 10
164.461
 20
2.62666
 11
164.343
 21
3.24344
  0
LINE
  8
0
 10
164.343
 20
3.24344
 11
164.149
 21
3.84062
  0
LINE
  8
0
 10
164.149
 20
3.84062
 11
163.882
 21
4.40877
  0
LINE
  8
0
 10
163.882
 20
4.40877
 11
163.545
 21
4.93892
  0
LINE
  8
0
 10
163.545
 20
4.93892
 11
163.145
 21
5.42273
  0
LINE
  8
0
 10
163.145
 20
5.42273
 11
162.687
 21
5.85255
  0
LINE
  8
0
 10
162.687
 20
5.85255
 11
162.179
 21
6.22163
  0
LINE
  8
0
 10
162.179
 20
6.22163
 11
161.629
 21
6.52412
  0
LINE
  8
0
 10
161.629
 20
6.52412
 11
161.045
 21
6.75528
  0
LINE
  8
0
 10
161.045
 20
6.75528
 11
160.437
 21
6.91142
  0
LINE
  8
0
 10
160.437
 20
6.91142
 11
159.814
 21
6.99013
  0
LINE
  8
0
 10
159.814
 20
6.99013
 11
-159.814
 21
6.99013
  0
LINE
  8
0
 10
-159.814
 20
6.99013
 11
-160.437
 21
6.91142
  0
LINE
  8
0
 10
-160.437
 20
6.91142
 11
-161.045
 21
6.75528
  0
LINE
  8
0
 10
-161.045
 20
6.75528
 11
-161.629
 21
6.52412
  0
LINE
  8
0
 10
-161.629
 20
6.52412
 11
-162.179
 21
6.22163
  0
LINE
  8
0
 10
-162.179
 20
6.22163
 11
-162.687
 21
5.85255
  0
LINE
  8
0
 10
-162.687
 20
5.85255
 11
-163.145
 21
5.42273
  0
LINE
  8
0
 10
-163.145
 20
5.42273
 11
-163.545
 21
4.93892
  0
LINE
  8
0
 10
-163.545
 20
4.93892
 11
-163.882
 21
4.40877
  0
LINE
  8
0
 10
-163.882
 20
4.40877
 11
-164.149
 21
3.84062
  0
LINE
  8
0
 10
-164.149
 20
3.84062
 11
-164.343
 21
3.24344
  0
LINE
  8
0
 10
-164.343
 20
3.24344
 11
-164.461
 21
2.62666
  0
LINE
  8
0
 10
-164.461
 20
2.62666
 11
-164.5
 21
2
  0
LINE
  8
0
 10
-164.5
 20
2
 11
-164.5
 21
-2
  0
LINE
  8
0
 10
-164.5
 20
-2
 11
-164.461
 21
-2.62666
  0
LINE
  8
0
 10
-164.461
 20
-2.62666
 11
-164.343
 21
-3.24344
  0
LINE
  8
0
 10
-164.343
 20
-3.24344
 11
-164.149
 21
-3.84062
  0
LINE
  8
0
 10
-164.149
 20
-3.84062
 11
-163.882
 21
-4.40877
  0
LINE
  8
0
 10
-163.882
 20
-4.40877
 11
-163.545
 21
-4.93892
  0
LINE
  8
0
 10
-163.545
 20
-4.93892
 11
-163.145
 21
-5.42273
  0
LINE
  8
0
 10
-163.145
 20
-5.42273
 11
-162.687
 21
-5.85255
  0
LINE
  8
0
 10
-162.687
 20
-5.85255
 11
-162.179
 21
-6.22163
  0
LINE
  8
0
 10
-162.179
 20
-6.22163
 11
-161.629
 21
-6.52412
  0
LINE
  8
0
 10
-161.629
 20
-6.52412
 11
-161.045
 21
-6.75528
  0
LINE
  8
0
 10
-161.045
 20
-6.75528
 11
-160.437
 21
-6.91142
  0
LINE
  8
0
 10
-160.437
 20
-6.91142
 11
-159.814
 21
-6.99013
  0
LINE
  8
0
 10
-159.814
 20
-6.99013
 11
159.814
 21
-6.99013
  0
LINE
  8
0
 10
159.814
 20
-6.99013
 11
160.437
 21
-6.91142
  0
LINE
  8
0
 10
-157.688
 20
-2.99408
 11
-158.062
 21
-2.94685
  0
LINE
  8
0
 10
-158.062
 20
-2.94685
 11
-158.427
 21
-2.85316
  0
LINE
  8
0
 10
-158.427
 20
-2.85316
 11
-158.777
 21
-2.71448
  0
LINE
  8
0
 10
-158.777
 20
-2.71448
 11
-159.107
 21
-2.53297
  0
LINE
  8
0
 10
-159.107
 20
-2.53297
 11
-159.412
 21
-2.31154
  0
LINE
  8
0
 10
-159.412
 20
-2.31154
 11
-159.687
 21
-2.05363
  0
LINE
  8
0
 10
-159.687
 20
-2.05363
 11
-159.927
 21
-1.76335
  0
LINE
  8
0
 10
-159.927
 20
-1.76335
 11
-160.129
 21
-1.44525
  0
LINE
  8
0
 10
-160.129
 20
-1.44525
 11
-160.289
 21
-1.10437
  0
LINE
  8
0
 10
-160.289
 20
-1.10437
 11
-160.406
 21
-0.746063
  0
LINE
  8
0
 10
-160.406
 20
-0.746063
 11
-160.476
 21
-0.375992
  0
LINE
  8
0
 10
-160.476
 20
-0.375992
 11
-160.5
 21
0
  0
LINE
  8
0
 10
-160.5
 20
0
 11
-160.476
 21
0.375992
  0
LINE
  8
0
 10
-160.476
 20
0.375992
 11
-160.406
 21
0.746063
  0
LINE
  8
0
 10
-160.406
 20
0.746063
 11
-160.289
 21
1.10437
  0
LINE
  8
0
 10
-160.289
 20
1.10437
 11
-160.129
 21
1.44525
  0
LINE
  8
0
 10
-160.129
 20
1.44525
 11
-159.927
 21
1.76335
  0
LINE
  8
0
 10
-159.927
 20
1.76335
 11
-159.687
 21
2.05363
  0
LINE
  8
0
 10
-159.687
 20
2.05363
 11
-159.412
 21
2.31154
  0
LINE
  8
0
 10
-159.412
 20
2.31154
 11
-159.107
 21
2.53297
  0
LINE
  8
0
 10
-159.107
 20
2.53297
 11
-158.777
 21
2.71448
  0
LINE
  8
0
 10
-158.777
 20
2.71448
 11
-158.427
 21
2.85316
  0
LINE
  8
0
 10
-158.427
 20
2.85316
 11
-158.062
 21
2.94685
  0
LINE
  8
0
 10
-158.062
 20
2.94685
 11
-157.688
 21
2.99408
  0
LINE
  8
0
 10
-157.688
 20
2.99408
 11
-157.312
 21
2.99408
  0
LINE
  8
0
 10
-157.312
 20
2.99408
 11
-156.938
 21
2.94685
  0
LINE
  8
0
 10
-156.938
 20
2.94685
 11
-156.573
 21
2.85316
  0
LINE
  8
0
 10
-156.573
 20
2.85316
 11
-156.223
 21
2.71448
  0
LINE
  8
0
 10
-156.223
 20
2.71448
 11
-155.893
 21
2.53297
  0
LINE
  8
0
 10
-155.893
 20
2.53297
 11
-155.588
 21
2.31154
  0
LINE
  8
0
 10
-155.588
 20
2.31154
 11
-155.313
 21
2.05363
  0
LINE
  8
0
 10
-155.313
 20
2.05363
 11
-155.073
 21
1.76335
  0
LINE
  8
0
 10
-155.073
 20
1.76335
 11
-154.871
 21
1.44525
  0
LINE
  8
0
 10
-154.871
 20
1.44525
 11
-154.711
 21
1.10437
  0
LINE
  8
0
 10
-154.711
 20
1.10437
 11
-154.594
 21
0.746063
  0
LINE
  8
0
 10
-154.594
 20
0.746063
 11
-154.524
 21
0.375992
  0
LINE
  8
0
 10
-154.524
 20
0.375992
 11
-154.5
 21
0
  0
LINE
  8
0
 10
-154.5
 20
0
 11
-154.524
 21
-0.375992
  0
LINE
  8
0
 10
-154.524
 20
-0.375992
 11
-154.594
 21
-0.746063
  0
LINE
  8
0
 10
-154.594
 20
-0.746063
 11
-154.711
 21
-1.10437
  0
LINE
  8
0
 10
-154.711
 20
-1.10437
 11
-154.871
 21
-1.44525
  0
LINE
  8
0
 10
-154.871
 20
-1.44525
 11
-155.073
 21
-1.76335
  0
LINE
  8
0
 10
-155.073
 20
-1.76335
 11
-155.313
 21
-2.05363
  0
LINE
  8
0
 10
-155.313
 20
-2.05363
 11
-155.588
 21
-2.31154
  0
LINE
  8
0
 10
-155.588
 20
-2.31154
 11
-155.893
 21
-2.53297
  0
LINE
  8
0
 10
-155.893
 20
-2.53297
 11
-156.223
 21
-2.71448
  0
LINE
  8
0
 10
-156.223
 20
-2.71448
 11
-156.573
 21
-2.85316
  0
LINE
  8
0
 10
-156.573
 20
-2.85316
 11
-156.938
 21
-2.94685
  0
LINE
  8
0
 10
-156.938
 20
-2.94685
 11
-157.312
 21
-2.99408
  0
LINE
  8
0
 10
-157.312
 20
-2.99408
 11
-157.688
 21
-2.99408
  0
ENDSEC
  0
SECTION
  2
OBJECTS
  0
DICTIONARY
  0
ENDSEC
  0
EOF
