  0
SECTION
  2
BLOCKS
  0
ENDSEC
  0
SECTION
  2
ENTITIES
  0
LINE
  8
0
 10
70.4369
 20
-29.4114
 11
71.0451
 21
-29.2553
  0
LINE
  8
0
 10
71.0451
 20
-29.2553
 11
71.6289
 21
-29.0241
  0
LINE
  8
0
 10
71.6289
 20
-29.0241
 11
72.1791
 21
-28.7216
  0
LINE
  8
0
 10
72.1791
 20
-28.7216
 11
72.6871
 21
-28.3526
  0
LINE
  8
0
 10
72.6871
 20
-28.3526
 11
73.1448
 21
-27.9227
  0
LINE
  8
0
 10
73.1448
 20
-27.9227
 11
73.5451
 21
-27.4389
  0
LINE
  8
0
 10
73.5451
 20
-27.4389
 11
73.8815
 21
-26.9088
  0
LINE
  8
0
 10
73.8815
 20
-26.9088
 11
74.1489
 21
-26.3406
  0
LINE
  8
0
 10
74.1489
 20
-26.3406
 11
74.3429
 21
-25.7434
  0
LINE
  8
0
 10
74.3429
 20
-25.7434
 11
74.4606
 21
-25.1267
  0
LINE
  8
0
 10
74.4606
 20
-25.1267
 11
74.5
 21
-24.5
  0
LINE
  8
0
 10
74.5
 20
-24.5
 11
74.5
 21
24.5
  0
LINE
  8
0
 10
74.5
 20
24.5
 11
74.4606
 21
25.1267
  0
LINE
  8
0
 10
74.4606
 20
25.1267
 11
74.3429
 21
25.7434
  0
LINE
  8
0
 10
74.3429
 20
25.7434
 11
74.1489
 21
26.3406
  0
LINE
  8
0
 10
74.1489
 20
26.3406
 11
73.8815
 21
26.9088
  0
LINE
  8
0
 10
73.8815
 20
26.9088
 11
73.5451
 21
27.4389
  0
LINE
  8
0
 10
73.5451
 20
27.4389
 11
73.1448
 21
27.9227
  0
LINE
  8
0
 10
73.1448
 20
27.9227
 11
72.6871
 21
28.3526
  0
LINE
  8
0
 10
72.6871
 20
28.3526
 11
72.1791
 21
28.7216
  0
LINE
  8
0
 10
72.1791
 20
28.7216
 11
71.6289
 21
29.0241
  0
LINE
  8
0
 10
71.6289
 20
29.0241
 11
71.0451
 21
29.2553
  0
LINE
  8
0
 10
71.0451
 20
29.2553
 11
70.4369
 21
29.4114
  0
LINE
  8
0
 10
70.4369
 20
29.4114
 11
69.8139
 21
29.4901
  0
LINE
  8
0
 10
69.8139
 20
29.4901
 11
-69.8139
 21
29.4901
  0
LINE
  8
0
 10
-69.8139
 20
29.4901
 11
-70.4369
 21
29.4114
  0
LINE
  8
0
 10
-70.4369
 20
29.4114
 11
-71.0451
 21
29.2553
  0
LINE
  8
0
 10
-71.0451
 20
29.2553
 11
-71.6289
 21
29.0241
  0
LINE
  8
0
 10
-71.6289
 20
29.0241
 11
-72.1791
 21
28.7216
  0
LINE
  8
0
 10
-72.1791
 20
28.7216
 11
-72.6871
 21
28.3526
  0
LINE
  8
0
 10
-72.6871
 20
28.3526
 11
-73.1448
 21
27.9227
  0
LINE
  8
0
 10
-73.1448
 20
27.9227
 11
-73.5451
 21
27.4389
  0
LINE
  8
0
 10
-73.5451
 20
27.4389
 11
-73.8815
 21
26.9088
  0
LINE
  8
0
 10
-73.8815
 20
26.9088
 11
-74.1489
 21
26.3406
  0
LINE
  8
0
 10
-74.1489
 20
26.3406
 11
-74.3429
 21
25.7434
  0
LINE
  8
0
 10
-74.3429
 20
25.7434
 11
-74.4606
 21
25.1267
  0
LINE
  8
0
 10
-74.4606
 20
25.1267
 11
-74.5
 21
24.5
  0
LINE
  8
0
 10
-74.5
 20
24.5
 11
-74.5
 21
-24.5
  0
LINE
  8
0
 10
-74.5
 20
-24.5
 11
-74.4606
 21
-25.1267
  0
LINE
  8
0
 10
-74.4606
 20
-25.1267
 11
-74.3429
 21
-25.7434
  0
LINE
  8
0
 10
-74.3429
 20
-25.7434
 11
-74.1489
 21
-26.3406
  0
LINE
  8
0
 10
-74.1489
 20
-26.3406
 11
-73.8815
 21
-26.9088
  0
LINE
  8
0
 10
-73.8815
 20
-26.9088
 11
-73.5451
 21
-27.4389
  0
LINE
  8
0
 10
-73.5451
 20
-27.4389
 11
-73.1448
 21
-27.9227
  0
LINE
  8
0
 10
-73.1448
 20
-27.9227
 11
-72.6871
 21
-28.3526
  0
LINE
  8
0
 10
-72.6871
 20
-28.3526
 11
-72.1791
 21
-28.7216
  0
LINE
  8
0
 10
-72.1791
 20
-28.7216
 11
-71.6289
 21
-29.0241
  0
LINE
  8
0
 10
-71.6289
 20
-29.0241
 11
-71.0451
 21
-29.2553
  0
LINE
  8
0
 10
-71.0451
 20
-29.2553
 11
-70.4369
 21
-29.4114
  0
LINE
  8
0
 10
-70.4369
 20
-29.4114
 11
-69.8139
 21
-29.4901
  0
LINE
  8
0
 10
-69.8139
 20
-29.4901
 11
69.8139
 21
-29.4901
  0
LINE
  8
0
 10
69.8139
 20
-29.4901
 11
70.4369
 21
-29.4114
  0
LINE
  8
0
 10
67.3116
 20
19.5059
 11
66.9379
 21
19.5531
  0
LINE
  8
0
 10
66.9379
 20
19.5531
 11
66.573
 21
19.6468
  0
LINE
  8
0
 10
66.573
 20
19.6468
 11
66.2227
 21
19.7855
  0
LINE
  8
0
 10
66.2227
 20
19.7855
 11
65.8925
 21
19.967
  0
LINE
  8
0
 10
65.8925
 20
19.967
 11
65.5877
 21
20.1884
  0
LINE
  8
0
 10
65.5877
 20
20.1884
 11
65.3131
 21
20.4464
  0
LINE
  8
0
 10
65.3131
 20
20.4464
 11
65.073
 21
20.7366
  0
LINE
  8
0
 10
65.073
 20
20.7366
 11
64.8711
 21
21.0547
  0
LINE
  8
0
 10
64.8711
 20
21.0547
 11
64.7107
 21
21.3956
  0
LINE
  8
0
 10
64.7107
 20
21.3956
 11
64.5943
 21
21.7539
  0
LINE
  8
0
 10
64.5943
 20
21.7539
 11
64.5237
 21
22.124
  0
LINE
  8
0
 10
64.5237
 20
22.124
 11
64.5
 21
22.5
  0
LINE
  8
0
 10
64.5
 20
22.5
 11
64.5237
 21
22.876
  0
LINE
  8
0
 10
64.5237
 20
22.876
 11
64.5943
 21
23.2461
  0
LINE
  8
0
 10
64.5943
 20
23.2461
 11
64.7107
 21
23.6044
  0
LINE
  8
0
 10
64.7107
 20
23.6044
 11
64.8711
 21
23.9453
  0
LINE
  8
0
 10
64.8711
 20
23.9453
 11
65.073
 21
24.2634
  0
LINE
  8
0
 10
65.073
 20
24.2634
 11
65.3131
 21
24.5536
  0
LINE
  8
0
 10
65.3131
 20
24.5536
 11
65.5877
 21
24.8115
  0
LINE
  8
0
 10
65.5877
 20
24.8115
 11
65.8925
 21
25.033
  0
LINE
  8
0
 10
65.8925
 20
25.033
 11
66.2227
 21
25.2145
  0
LINE
  8
0
 10
66.2227
 20
25.2145
 11
66.573
 21
25.3532
  0
LINE
  8
0
 10
66.573
 20
25.3532
 11
66.9379
 21
25.4469
  0
LINE
  8
0
 10
66.9379
 20
25.4469
 11
67.3116
 21
25.4941
  0
LINE
  8
0
 10
67.3116
 20
25.4941
 11
67.6884
 21
25.4941
  0
LINE
  8
0
 10
67.6884
 20
25.4941
 11
68.0621
 21
25.4469
  0
LINE
  8
0
 10
68.0621
 20
25.4469
 11
68.427
 21
25.3532
  0
LINE
  8
0
 10
68.427
 20
25.3532
 11
68.7773
 21
25.2145
  0
LINE
  8
0
 10
68.7773
 20
25.2145
 11
69.1075
 21
25.033
  0
LINE
  8
0
 10
69.1075
 20
25.033
 11
69.4123
 21
24.8115
  0
LINE
  8
0
 10
69.4123
 20
24.8115
 11
69.6869
 21
24.5536
  0
LINE
  8
0
 10
69.6869
 20
24.5536
 11
69.927
 21
24.2634
  0
LINE
  8
0
 10
69.927
 20
24.2634
 11
70.1289
 21
23.9453
  0
LINE
  8
0
 10
70.1289
 20
23.9453
 11
70.2893
 21
23.6044
  0
LINE
  8
0
 10
70.2893
 20
23.6044
 11
70.4057
 21
23.2461
  0
LINE
  8
0
 10
70.4057
 20
23.2461
 11
70.4763
 21
22.876
  0
LINE
  8
0
 10
70.4763
 20
22.876
 11
70.5
 21
22.5
  0
LINE
  8
0
 10
70.5
 20
22.5
 11
70.4763
 21
22.124
  0
LINE
  8
0
 10
70.4763
 20
22.124
 11
70.4057
 21
21.7539
  0
LINE
  8
0
 10
70.4057
 20
21.7539
 11
70.2893
 21
21.3956
  0
LINE
  8
0
 10
70.2893
 20
21.3956
 11
70.1289
 21
21.0547
  0
LINE
  8
0
 10
70.1289
 20
21.0547
 11
69.927
 21
20.7366
  0
LINE
  8
0
 10
69.927
 20
20.7366
 11
69.6869
 21
20.4464
  0
LINE
  8
0
 10
69.6869
 20
20.4464
 11
69.4123
 21
20.1884
  0
LINE
  8
0
 10
69.4123
 20
20.1884
 11
69.1075
 21
19.967
  0
LINE
  8
0
 10
69.1075
 20
19.967
 11
68.7773
 21
19.7855
  0
LINE
  8
0
 10
68.7773
 20
19.7855
 11
68.427
 21
19.6468
  0
LINE
  8
0
 10
68.427
 20
19.6468
 11
68.0621
 21
19.5531
  0
LINE
  8
0
 10
68.0621
 20
19.5531
 11
67.6884
 21
19.5059
  0
LINE
  8
0
 10
67.6884
 20
19.5059
 11
67.3116
 21
19.5059
  0
LINE
  8
0
 10
-67.6884
 20
19.5059
 11
-68.0621
 21
19.5531
  0
LINE
  8
0
 10
-68.0621
 20
19.5531
 11
-68.427
 21
19.6468
  0
LINE
  8
0
 10
-68.427
 20
19.6468
 11
-68.7773
 21
19.7855
  0
LINE
  8
0
 10
-68.7773
 20
19.7855
 11
-69.1075
 21
19.967
  0
LINE
  8
0
 10
-69.1075
 20
19.967
 11
-69.4123
 21
20.1884
  0
LINE
  8
0
 10
-69.4123
 20
20.1884
 11
-69.6869
 21
20.4464
  0
LINE
  8
0
 10
-69.6869
 20
20.4464
 11
-69.927
 21
20.7366
  0
LINE
  8
0
 10
-69.927
 20
20.7366
 11
-70.1289
 21
21.0547
  0
LINE
  8
0
 10
-70.1289
 20
21.0547
 11
-70.2893
 21
21.3956
  0
LINE
  8
0
 10
-70.2893
 20
21.3956
 11
-70.4057
 21
21.7539
  0
LINE
  8
0
 10
-70.4057
 20
21.7539
 11
-70.4763
 21
22.124
  0
LINE
  8
0
 10
-70.4763
 20
22.124
 11
-70.5
 21
22.5
  0
LINE
  8
0
 10
-70.5
 20
22.5
 11
-70.4763
 21
22.876
  0
LINE
  8
0
 10
-70.4763
 20
22.876
 11
-70.4057
 21
23.2461
  0
LINE
  8
0
 10
-70.4057
 20
23.2461
 11
-70.2893
 21
23.6044
  0
LINE
  8
0
 10
-70.2893
 20
23.6044
 11
-70.1289
 21
23.9453
  0
LINE
  8
0
 10
-70.1289
 20
23.9453
 11
-69.927
 21
24.2634
  0
LINE
  8
0
 10
-69.927
 20
24.2634
 11
-69.6869
 21
24.5536
  0
LINE
  8
0
 10
-69.6869
 20
24.5536
 11
-69.4123
 21
24.8115
  0
LINE
  8
0
 10
-69.4123
 20
24.8115
 11
-69.1075
 21
25.033
  0
LINE
  8
0
 10
-69.1075
 20
25.033
 11
-68.7773
 21
25.2145
  0
LINE
  8
0
 10
-68.7773
 20
25.2145
 11
-68.427
 21
25.3532
  0
LINE
  8
0
 10
-68.427
 20
25.3532
 11
-68.0621
 21
25.4469
  0
LINE
  8
0
 10
-68.0621
 20
25.4469
 11
-67.6884
 21
25.4941
  0
LINE
  8
0
 10
-67.6884
 20
25.4941
 11
-67.3116
 21
25.4941
  0
LINE
  8
0
 10
-67.3116
 20
25.4941
 11
-66.9379
 21
25.4469
  0
LINE
  8
0
 10
-66.9379
 20
25.4469
 11
-66.573
 21
25.3532
  0
LINE
  8
0
 10
-66.573
 20
25.3532
 11
-66.2227
 21
25.2145
  0
LINE
  8
0
 10
-66.2227
 20
25.2145
 11
-65.8925
 21
25.033
  0
LINE
  8
0
 10
-65.8925
 20
25.033
 11
-65.5877
 21
24.8115
  0
LINE
  8
0
 10
-65.5877
 20
24.8115
 11
-65.3131
 21
24.5536
  0
LINE
  8
0
 10
-65.3131
 20
24.5536
 11
-65.073
 21
24.2634
  0
LINE
  8
0
 10
-65.073
 20
24.2634
 11
-64.8711
 21
23.9453
  0
LINE
  8
0
 10
-64.8711
 20
23.9453
 11
-64.7107
 21
23.6044
  0
LINE
  8
0
 10
-64.7107
 20
23.6044
 11
-64.5943
 21
23.2461
  0
LINE
  8
0
 10
-64.5943
 20
23.2461
 11
-64.5237
 21
22.876
  0
LINE
  8
0
 10
-64.5237
 20
22.876
 11
-64.5
 21
22.5
  0
LINE
  8
0
 10
-64.5
 20
22.5
 11
-64.5237
 21
22.124
  0
LINE
  8
0
 10
-64.5237
 20
22.124
 11
-64.5943
 21
21.7539
  0
LINE
  8
0
 10
-64.5943
 20
21.7539
 11
-64.7107
 21
21.3956
  0
LINE
  8
0
 10
-64.7107
 20
21.3956
 11
-64.8711
 21
21.0547
  0
LINE
  8
0
 10
-64.8711
 20
21.0547
 11
-65.073
 21
20.7366
  0
LINE
  8
0
 10
-65.073
 20
20.7366
 11
-65.3131
 21
20.4464
  0
LINE
  8
0
 10
-65.3131
 20
20.4464
 11
-65.5877
 21
20.1884
  0
LINE
  8
0
 10
-65.5877
 20
20.1884
 11
-65.8925
 21
19.967
  0
LINE
  8
0
 10
-65.8925
 20
19.967
 11
-66.2227
 21
19.7855
  0
LINE
  8
0
 10
-66.2227
 20
19.7855
 11
-66.573
 21
19.6468
  0
LINE
  8
0
 10
-66.573
 20
19.6468
 11
-66.9379
 21
19.5531
  0
LINE
  8
0
 10
-66.9379
 20
19.5531
 11
-67.3116
 21
19.5059
  0
LINE
  8
0
 10
-67.3116
 20
19.5059
 11
-67.6884
 21
19.5059
  0
LINE
  8
0
 10
67.3116
 20
-25.4941
 11
66.9379
 21
-25.4469
  0
LINE
  8
0
 10
66.9379
 20
-25.4469
 11
66.573
 21
-25.3532
  0
LINE
  8
0
 10
66.573
 20
-25.3532
 11
66.2227
 21
-25.2145
  0
LINE
  8
0
 10
66.2227
 20
-25.2145
 11
65.8925
 21
-25.033
  0
LINE
  8
0
 10
65.8925
 20
-25.033
 11
65.5877
 21
-24.8115
  0
LINE
  8
0
 10
65.5877
 20
-24.8115
 11
65.3131
 21
-24.5536
  0
LINE
  8
0
 10
65.3131
 20
-24.5536
 11
65.073
 21
-24.2634
  0
LINE
  8
0
 10
65.073
 20
-24.2634
 11
64.8711
 21
-23.9453
  0
LINE
  8
0
 10
64.8711
 20
-23.9453
 11
64.7107
 21
-23.6044
  0
LINE
  8
0
 10
64.7107
 20
-23.6044
 11
64.5943
 21
-23.2461
  0
LINE
  8
0
 10
64.5943
 20
-23.2461
 11
64.5237
 21
-22.876
  0
LINE
  8
0
 10
64.5237
 20
-22.876
 11
64.5
 21
-22.5
  0
LINE
  8
0
 10
64.5
 20
-22.5
 11
64.5237
 21
-22.124
  0
LINE
  8
0
 10
64.5237
 20
-22.124
 11
64.5943
 21
-21.7539
  0
LINE
  8
0
 10
64.5943
 20
-21.7539
 11
64.7107
 21
-21.3956
  0
LINE
  8
0
 10
64.7107
 20
-21.3956
 11
64.8711
 21
-21.0547
  0
LINE
  8
0
 10
64.8711
 20
-21.0547
 11
65.073
 21
-20.7366
  0
LINE
  8
0
 10
65.073
 20
-20.7366
 11
65.3131
 21
-20.4464
  0
LINE
  8
0
 10
65.3131
 20
-20.4464
 11
65.5877
 21
-20.1884
  0
LINE
  8
0
 10
65.5877
 20
-20.1884
 11
65.8925
 21
-19.967
  0
LINE
  8
0
 10
65.8925
 20
-19.967
 11
66.2227
 21
-19.7855
  0
LINE
  8
0
 10
66.2227
 20
-19.7855
 11
66.573
 21
-19.6468
  0
LINE
  8
0
 10
66.573
 20
-19.6468
 11
66.9379
 21
-19.5531
  0
LINE
  8
0
 10
66.9379
 20
-19.5531
 11
67.3116
 21
-19.5059
  0
LINE
  8
0
 10
67.3116
 20
-19.5059
 11
67.6884
 21
-19.5059
  0
LINE
  8
0
 10
67.6884
 20
-19.5059
 11
68.0621
 21
-19.5531
  0
LINE
  8
0
 10
68.0621
 20
-19.5531
 11
68.427
 21
-19.6468
  0
LINE
  8
0
 10
68.427
 20
-19.6468
 11
68.7773
 21
-19.7855
  0
LINE
  8
0
 10
68.7773
 20
-19.7855
 11
69.1075
 21
-19.967
  0
LINE
  8
0
 10
69.1075
 20
-19.967
 11
69.4123
 21
-20.1884
  0
LINE
  8
0
 10
69.4123
 20
-20.1884
 11
69.6869
 21
-20.4464
  0
LINE
  8
0
 10
69.6869
 20
-20.4464
 11
69.927
 21
-20.7366
  0
LINE
  8
0
 10
69.927
 20
-20.7366
 11
70.1289
 21
-21.0547
  0
LINE
  8
0
 10
70.1289
 20
-21.0547
 11
70.2893
 21
-21.3956
  0
LINE
  8
0
 10
70.2893
 20
-21.3956
 11
70.4057
 21
-21.7539
  0
LINE
  8
0
 10
70.4057
 20
-21.7539
 11
70.4763
 21
-22.124
  0
LINE
  8
0
 10
70.4763
 20
-22.124
 11
70.5
 21
-22.5
  0
LINE
  8
0
 10
70.5
 20
-22.5
 11
70.4763
 21
-22.876
  0
LINE
  8
0
 10
70.4763
 20
-22.876
 11
70.4057
 21
-23.2461
  0
LINE
  8
0
 10
70.4057
 20
-23.2461
 11
70.2893
 21
-23.6044
  0
LINE
  8
0
 10
70.2893
 20
-23.6044
 11
70.1289
 21
-23.9453
  0
LINE
  8
0
 10
70.1289
 20
-23.9453
 11
69.927
 21
-24.2634
  0
LINE
  8
0
 10
69.927
 20
-24.2634
 11
69.6869
 21
-24.5536
  0
LINE
  8
0
 10
69.6869
 20
-24.5536
 11
69.4123
 21
-24.8115
  0
LINE
  8
0
 10
69.4123
 20
-24.8115
 11
69.1075
 21
-25.033
  0
LINE
  8
0
 10
69.1075
 20
-25.033
 11
68.7773
 21
-25.2145
  0
LINE
  8
0
 10
68.7773
 20
-25.2145
 11
68.427
 21
-25.3532
  0
LINE
  8
0
 10
68.427
 20
-25.3532
 11
68.0621
 21
-25.4469
  0
LINE
  8
0
 10
68.0621
 20
-25.4469
 11
67.6884
 21
-25.4941
  0
LINE
  8
0
 10
67.6884
 20
-25.4941
 11
67.3116
 21
-25.4941
  0
LINE
  8
0
 10
-67.6884
 20
-25.4941
 11
-68.0621
 21
-25.4469
  0
LINE
  8
0
 10
-68.0621
 20
-25.4469
 11
-68.427
 21
-25.3532
  0
LINE
  8
0
 10
-68.427
 20
-25.3532
 11
-68.7773
 21
-25.2145
  0
LINE
  8
0
 10
-68.7773
 20
-25.2145
 11
-69.1075
 21
-25.033
  0
LINE
  8
0
 10
-69.1075
 20
-25.033
 11
-69.4123
 21
-24.8115
  0
LINE
  8
0
 10
-69.4123
 20
-24.8115
 11
-69.6869
 21
-24.5536
  0
LINE
  8
0
 10
-69.6869
 20
-24.5536
 11
-69.927
 21
-24.2634
  0
LINE
  8
0
 10
-69.927
 20
-24.2634
 11
-70.1289
 21
-23.9453
  0
LINE
  8
0
 10
-70.1289
 20
-23.9453
 11
-70.2893
 21
-23.6044
  0
LINE
  8
0
 10
-70.2893
 20
-23.6044
 11
-70.4057
 21
-23.2461
  0
LINE
  8
0
 10
-70.4057
 20
-23.2461
 11
-70.4763
 21
-22.876
  0
LINE
  8
0
 10
-70.4763
 20
-22.876
 11
-70.5
 21
-22.5
  0
LINE
  8
0
 10
-70.5
 20
-22.5
 11
-70.4763
 21
-22.124
  0
LINE
  8
0
 10
-70.4763
 20
-22.124
 11
-70.4057
 21
-21.7539
  0
LINE
  8
0
 10
-70.4057
 20
-21.7539
 11
-70.2893
 21
-21.3956
  0
LINE
  8
0
 10
-70.2893
 20
-21.3956
 11
-70.1289
 21
-21.0547
  0
LINE
  8
0
 10
-70.1289
 20
-21.0547
 11
-69.927
 21
-20.7366
  0
LINE
  8
0
 10
-69.927
 20
-20.7366
 11
-69.6869
 21
-20.4464
  0
LINE
  8
0
 10
-69.6869
 20
-20.4464
 11
-69.4123
 21
-20.1884
  0
LINE
  8
0
 10
-69.4123
 20
-20.1884
 11
-69.1075
 21
-19.967
  0
LINE
  8
0
 10
-69.1075
 20
-19.967
 11
-68.7773
 21
-19.7855
  0
LINE
  8
0
 10
-68.7773
 20
-19.7855
 11
-68.427
 21
-19.6468
  0
LINE
  8
0
 10
-68.427
 20
-19.6468
 11
-68.0621
 21
-19.5531
  0
LINE
  8
0
 10
-68.0621
 20
-19.5531
 11
-67.6884
 21
-19.5059
  0
LINE
  8
0
 10
-67.6884
 20
-19.5059
 11
-67.3116
 21
-19.5059
  0
LINE
  8
0
 10
-67.3116
 20
-19.5059
 11
-66.9379
 21
-19.5531
  0
LINE
  8
0
 10
-66.9379
 20
-19.5531
 11
-66.573
 21
-19.6468
  0
LINE
  8
0
 10
-66.573
 20
-19.6468
 11
-66.2227
 21
-19.7855
  0
LINE
  8
0
 10
-66.2227
 20
-19.7855
 11
-65.8925
 21
-19.967
  0
LINE
  8
0
 10
-65.8925
 20
-19.967
 11
-65.5877
 21
-20.1884
  0
LINE
  8
0
 10
-65.5877
 20
-20.1884
 11
-65.3131
 21
-20.4464
  0
LINE
  8
0
 10
-65.3131
 20
-20.4464
 11
-65.073
 21
-20.7366
  0
LINE
  8
0
 10
-65.073
 20
-20.7366
 11
-64.8711
 21
-21.0547
  0
LINE
  8
0
 10
-64.8711
 20
-21.0547
 11
-64.7107
 21
-21.3956
  0
LINE
  8
0
 10
-64.7107
 20
-21.3956
 11
-64.5943
 21
-21.7539
  0
LINE
  8
0
 10
-64.5943
 20
-21.7539
 11
-64.5237
 21
-22.124
  0
LINE
  8
0
 10
-64.5237
 20
-22.124
 11
-64.5
 21
-22.5
  0
LINE
  8
0
 10
-64.5
 20
-22.5
 11
-64.5237
 21
-22.876
  0
LINE
  8
0
 10
-64.5237
 20
-22.876
 11
-64.5943
 21
-23.2461
  0
LINE
  8
0
 10
-64.5943
 20
-23.2461
 11
-64.7107
 21
-23.6044
  0
LINE
  8
0
 10
-64.7107
 20
-23.6044
 11
-64.8711
 21
-23.9453
  0
LINE
  8
0
 10
-64.8711
 20
-23.9453
 11
-65.073
 21
-24.2634
  0
LINE
  8
0
 10
-65.073
 20
-24.2634
 11
-65.3131
 21
-24.5536
  0
LINE
  8
0
 10
-65.3131
 20
-24.5536
 11
-65.5877
 21
-24.8115
  0
LINE
  8
0
 10
-65.5877
 20
-24.8115
 11
-65.8925
 21
-25.033
  0
LINE
  8
0
 10
-65.8925
 20
-25.033
 11
-66.2227
 21
-25.2145
  0
LINE
  8
0
 10
-66.2227
 20
-25.2145
 11
-66.573
 21
-25.3532
  0
LINE
  8
0
 10
-66.573
 20
-25.3532
 11
-66.9379
 21
-25.4469
  0
LINE
  8
0
 10
-66.9379
 20
-25.4469
 11
-67.3116
 21
-25.4941
  0
LINE
  8
0
 10
-67.3116
 20
-25.4941
 11
-67.6884
 21
-25.4941
  0
ENDSEC
  0
SECTION
  2
OBJECTS
  0
DICTIONARY
  0
ENDSEC
  0
EOF
