  0
SECTION
  2
BLOCKS
  0
ENDSEC
  0
SECTION
  2
ENTITIES
  0
LINE
  8
0
 10
85.4369
 20
-21.9114
 11
86.0451
 21
-21.7553
  0
LINE
  8
0
 10
86.0451
 20
-21.7553
 11
86.6289
 21
-21.5241
  0
LINE
  8
0
 10
86.6289
 20
-21.5241
 11
87.1791
 21
-21.2216
  0
LINE
  8
0
 10
87.1791
 20
-21.2216
 11
87.6871
 21
-20.8526
  0
LINE
  8
0
 10
87.6871
 20
-20.8526
 11
88.1448
 21
-20.4227
  0
LINE
  8
0
 10
88.1448
 20
-20.4227
 11
88.5451
 21
-19.9389
  0
LINE
  8
0
 10
88.5451
 20
-19.9389
 11
88.8815
 21
-19.4088
  0
LINE
  8
0
 10
88.8815
 20
-19.4088
 11
89.1489
 21
-18.8406
  0
LINE
  8
0
 10
89.1489
 20
-18.8406
 11
89.3429
 21
-18.2434
  0
LINE
  8
0
 10
89.3429
 20
-18.2434
 11
89.4606
 21
-17.6267
  0
LINE
  8
0
 10
89.4606
 20
-17.6267
 11
89.5
 21
-17
  0
LINE
  8
0
 10
89.5
 20
-17
 11
89.5
 21
17
  0
LINE
  8
0
 10
89.5
 20
17
 11
89.4606
 21
17.6267
  0
LINE
  8
0
 10
89.4606
 20
17.6267
 11
89.3429
 21
18.2434
  0
LINE
  8
0
 10
89.3429
 20
18.2434
 11
89.1489
 21
18.8406
  0
LINE
  8
0
 10
89.1489
 20
18.8406
 11
88.8815
 21
19.4088
  0
LINE
  8
0
 10
88.8815
 20
19.4088
 11
88.5451
 21
19.9389
  0
LINE
  8
0
 10
88.5451
 20
19.9389
 11
88.1448
 21
20.4227
  0
LINE
  8
0
 10
88.1448
 20
20.4227
 11
87.6871
 21
20.8526
  0
LINE
  8
0
 10
87.6871
 20
20.8526
 11
87.1791
 21
21.2216
  0
LINE
  8
0
 10
87.1791
 20
21.2216
 11
86.6289
 21
21.5241
  0
LINE
  8
0
 10
86.6289
 20
21.5241
 11
86.0451
 21
21.7553
  0
LINE
  8
0
 10
86.0451
 20
21.7553
 11
85.4369
 21
21.9114
  0
LINE
  8
0
 10
85.4369
 20
21.9114
 11
84.8139
 21
21.9901
  0
LINE
  8
0
 10
84.8139
 20
21.9901
 11
-84.8139
 21
21.9901
  0
LINE
  8
0
 10
-84.8139
 20
21.9901
 11
-85.4369
 21
21.9114
  0
LINE
  8
0
 10
-85.4369
 20
21.9114
 11
-86.0451
 21
21.7553
  0
LINE
  8
0
 10
-86.0451
 20
21.7553
 11
-86.6289
 21
21.5241
  0
LINE
  8
0
 10
-86.6289
 20
21.5241
 11
-87.1791
 21
21.2216
  0
LINE
  8
0
 10
-87.1791
 20
21.2216
 11
-87.6871
 21
20.8526
  0
LINE
  8
0
 10
-87.6871
 20
20.8526
 11
-88.1448
 21
20.4227
  0
LINE
  8
0
 10
-88.1448
 20
20.4227
 11
-88.5451
 21
19.9389
  0
LINE
  8
0
 10
-88.5451
 20
19.9389
 11
-88.8815
 21
19.4088
  0
LINE
  8
0
 10
-88.8815
 20
19.4088
 11
-89.1489
 21
18.8406
  0
LINE
  8
0
 10
-89.1489
 20
18.8406
 11
-89.3429
 21
18.2434
  0
LINE
  8
0
 10
-89.3429
 20
18.2434
 11
-89.4606
 21
17.6267
  0
LINE
  8
0
 10
-89.4606
 20
17.6267
 11
-89.5
 21
17
  0
LINE
  8
0
 10
-89.5
 20
17
 11
-89.5
 21
-17
  0
LINE
  8
0
 10
-89.5
 20
-17
 11
-89.4606
 21
-17.6267
  0
LINE
  8
0
 10
-89.4606
 20
-17.6267
 11
-89.3429
 21
-18.2434
  0
LINE
  8
0
 10
-89.3429
 20
-18.2434
 11
-89.1489
 21
-18.8406
  0
LINE
  8
0
 10
-89.1489
 20
-18.8406
 11
-88.8815
 21
-19.4088
  0
LINE
  8
0
 10
-88.8815
 20
-19.4088
 11
-88.5451
 21
-19.9389
  0
LINE
  8
0
 10
-88.5451
 20
-19.9389
 11
-88.1448
 21
-20.4227
  0
LINE
  8
0
 10
-88.1448
 20
-20.4227
 11
-87.6871
 21
-20.8526
  0
LINE
  8
0
 10
-87.6871
 20
-20.8526
 11
-87.1791
 21
-21.2216
  0
LINE
  8
0
 10
-87.1791
 20
-21.2216
 11
-86.6289
 21
-21.5241
  0
LINE
  8
0
 10
-86.6289
 20
-21.5241
 11
-86.0451
 21
-21.7553
  0
LINE
  8
0
 10
-86.0451
 20
-21.7553
 11
-85.4369
 21
-21.9114
  0
LINE
  8
0
 10
-85.4369
 20
-21.9114
 11
-84.8139
 21
-21.9901
  0
LINE
  8
0
 10
-84.8139
 20
-21.9901
 11
84.8139
 21
-21.9901
  0
LINE
  8
0
 10
84.8139
 20
-21.9901
 11
85.4369
 21
-21.9114
  0
LINE
  8
0
 10
79.5237
 20
15.376
 11
79.5943
 21
15.7461
  0
LINE
  8
0
 10
79.5943
 20
15.7461
 11
79.7107
 21
16.1044
  0
LINE
  8
0
 10
79.7107
 20
16.1044
 11
79.8711
 21
16.4453
  0
LINE
  8
0
 10
79.8711
 20
16.4453
 11
80.073
 21
16.7634
  0
LINE
  8
0
 10
80.073
 20
16.7634
 11
80.3131
 21
17.0536
  0
LINE
  8
0
 10
80.3131
 20
17.0536
 11
80.5877
 21
17.3115
  0
LINE
  8
0
 10
80.5877
 20
17.3115
 11
80.8925
 21
17.533
  0
LINE
  8
0
 10
80.8925
 20
17.533
 11
81.2227
 21
17.7145
  0
LINE
  8
0
 10
81.2227
 20
17.7145
 11
81.573
 21
17.8532
  0
LINE
  8
0
 10
81.573
 20
17.8532
 11
81.9379
 21
17.9469
  0
LINE
  8
0
 10
81.9379
 20
17.9469
 11
82.3116
 21
17.9941
  0
LINE
  8
0
 10
82.3116
 20
17.9941
 11
82.6884
 21
17.9941
  0
LINE
  8
0
 10
82.6884
 20
17.9941
 11
83.0621
 21
17.9469
  0
LINE
  8
0
 10
83.0621
 20
17.9469
 11
83.427
 21
17.8532
  0
LINE
  8
0
 10
83.427
 20
17.8532
 11
83.7773
 21
17.7145
  0
LINE
  8
0
 10
83.7773
 20
17.7145
 11
84.1075
 21
17.533
  0
LINE
  8
0
 10
84.1075
 20
17.533
 11
84.4123
 21
17.3115
  0
LINE
  8
0
 10
84.4123
 20
17.3115
 11
84.6869
 21
17.0536
  0
LINE
  8
0
 10
84.6869
 20
17.0536
 11
84.927
 21
16.7634
  0
LINE
  8
0
 10
84.927
 20
16.7634
 11
85.1289
 21
16.4453
  0
LINE
  8
0
 10
85.1289
 20
16.4453
 11
85.2893
 21
16.1044
  0
LINE
  8
0
 10
85.2893
 20
16.1044
 11
85.4057
 21
15.7461
  0
LINE
  8
0
 10
85.4057
 20
15.7461
 11
85.4763
 21
15.376
  0
LINE
  8
0
 10
85.4763
 20
15.376
 11
85.5
 21
15
  0
LINE
  8
0
 10
85.5
 20
15
 11
85.4763
 21
14.624
  0
LINE
  8
0
 10
85.4763
 20
14.624
 11
85.4057
 21
14.2539
  0
LINE
  8
0
 10
85.4057
 20
14.2539
 11
85.2893
 21
13.8956
  0
LINE
  8
0
 10
85.2893
 20
13.8956
 11
85.1289
 21
13.5547
  0
LINE
  8
0
 10
85.1289
 20
13.5547
 11
84.927
 21
13.2366
  0
LINE
  8
0
 10
84.927
 20
13.2366
 11
84.6869
 21
12.9464
  0
LINE
  8
0
 10
84.6869
 20
12.9464
 11
84.4123
 21
12.6884
  0
LINE
  8
0
 10
84.4123
 20
12.6884
 11
84.1075
 21
12.467
  0
LINE
  8
0
 10
84.1075
 20
12.467
 11
83.7773
 21
12.2855
  0
LINE
  8
0
 10
83.7773
 20
12.2855
 11
83.427
 21
12.1468
  0
LINE
  8
0
 10
83.427
 20
12.1468
 11
83.0621
 21
12.0531
  0
LINE
  8
0
 10
83.0621
 20
12.0531
 11
82.6884
 21
12.0059
  0
LINE
  8
0
 10
82.6884
 20
12.0059
 11
82.3116
 21
12.0059
  0
LINE
  8
0
 10
82.3116
 20
12.0059
 11
81.9379
 21
12.0531
  0
LINE
  8
0
 10
81.9379
 20
12.0531
 11
81.573
 21
12.1468
  0
LINE
  8
0
 10
81.573
 20
12.1468
 11
81.2227
 21
12.2855
  0
LINE
  8
0
 10
81.2227
 20
12.2855
 11
80.8925
 21
12.467
  0
LINE
  8
0
 10
80.8925
 20
12.467
 11
80.5877
 21
12.6884
  0
LINE
  8
0
 10
80.5877
 20
12.6884
 11
80.3131
 21
12.9464
  0
LINE
  8
0
 10
80.3131
 20
12.9464
 11
80.073
 21
13.2366
  0
LINE
  8
0
 10
80.073
 20
13.2366
 11
79.8711
 21
13.5547
  0
LINE
  8
0
 10
79.8711
 20
13.5547
 11
79.7107
 21
13.8956
  0
LINE
  8
0
 10
79.7107
 20
13.8956
 11
79.5943
 21
14.2539
  0
LINE
  8
0
 10
79.5943
 20
14.2539
 11
79.5237
 21
14.624
  0
LINE
  8
0
 10
79.5237
 20
14.624
 11
79.5
 21
15
  0
LINE
  8
0
 10
79.5
 20
15
 11
79.5237
 21
15.376
  0
LINE
  8
0
 10
-82.6884
 20
-17.9941
 11
-83.0621
 21
-17.9469
  0
LINE
  8
0
 10
-83.0621
 20
-17.9469
 11
-83.427
 21
-17.8532
  0
LINE
  8
0
 10
-83.427
 20
-17.8532
 11
-83.7773
 21
-17.7145
  0
LINE
  8
0
 10
-83.7773
 20
-17.7145
 11
-84.1075
 21
-17.533
  0
LINE
  8
0
 10
-84.1075
 20
-17.533
 11
-84.4123
 21
-17.3115
  0
LINE
  8
0
 10
-84.4123
 20
-17.3115
 11
-84.6869
 21
-17.0536
  0
LINE
  8
0
 10
-84.6869
 20
-17.0536
 11
-84.927
 21
-16.7634
  0
LINE
  8
0
 10
-84.927
 20
-16.7634
 11
-85.1289
 21
-16.4453
  0
LINE
  8
0
 10
-85.1289
 20
-16.4453
 11
-85.2893
 21
-16.1044
  0
LINE
  8
0
 10
-85.2893
 20
-16.1044
 11
-85.4057
 21
-15.7461
  0
LINE
  8
0
 10
-85.4057
 20
-15.7461
 11
-85.4763
 21
-15.376
  0
LINE
  8
0
 10
-85.4763
 20
-15.376
 11
-85.5
 21
-15
  0
LINE
  8
0
 10
-85.5
 20
-15
 11
-85.4763
 21
-14.624
  0
LINE
  8
0
 10
-85.4763
 20
-14.624
 11
-85.4057
 21
-14.2539
  0
LINE
  8
0
 10
-85.4057
 20
-14.2539
 11
-85.2893
 21
-13.8956
  0
LINE
  8
0
 10
-85.2893
 20
-13.8956
 11
-85.1289
 21
-13.5547
  0
LINE
  8
0
 10
-85.1289
 20
-13.5547
 11
-84.927
 21
-13.2366
  0
LINE
  8
0
 10
-84.927
 20
-13.2366
 11
-84.6869
 21
-12.9464
  0
LINE
  8
0
 10
-84.6869
 20
-12.9464
 11
-84.4123
 21
-12.6884
  0
LINE
  8
0
 10
-84.4123
 20
-12.6884
 11
-84.1075
 21
-12.467
  0
LINE
  8
0
 10
-84.1075
 20
-12.467
 11
-83.7773
 21
-12.2855
  0
LINE
  8
0
 10
-83.7773
 20
-12.2855
 11
-83.427
 21
-12.1468
  0
LINE
  8
0
 10
-83.427
 20
-12.1468
 11
-83.0621
 21
-12.0531
  0
LINE
  8
0
 10
-83.0621
 20
-12.0531
 11
-82.6884
 21
-12.0059
  0
LINE
  8
0
 10
-82.6884
 20
-12.0059
 11
-82.3116
 21
-12.0059
  0
LINE
  8
0
 10
-82.3116
 20
-12.0059
 11
-81.9379
 21
-12.0531
  0
LINE
  8
0
 10
-81.9379
 20
-12.0531
 11
-81.573
 21
-12.1468
  0
LINE
  8
0
 10
-81.573
 20
-12.1468
 11
-81.2227
 21
-12.2855
  0
LINE
  8
0
 10
-81.2227
 20
-12.2855
 11
-80.8925
 21
-12.467
  0
LINE
  8
0
 10
-80.8925
 20
-12.467
 11
-80.5877
 21
-12.6884
  0
LINE
  8
0
 10
-80.5877
 20
-12.6884
 11
-80.3131
 21
-12.9464
  0
LINE
  8
0
 10
-80.3131
 20
-12.9464
 11
-80.073
 21
-13.2366
  0
LINE
  8
0
 10
-80.073
 20
-13.2366
 11
-79.8711
 21
-13.5547
  0
LINE
  8
0
 10
-79.8711
 20
-13.5547
 11
-79.7107
 21
-13.8956
  0
LINE
  8
0
 10
-79.7107
 20
-13.8956
 11
-79.5943
 21
-14.2539
  0
LINE
  8
0
 10
-79.5943
 20
-14.2539
 11
-79.5237
 21
-14.624
  0
LINE
  8
0
 10
-79.5237
 20
-14.624
 11
-79.5
 21
-15
  0
LINE
  8
0
 10
-79.5
 20
-15
 11
-79.5237
 21
-15.376
  0
LINE
  8
0
 10
-79.5237
 20
-15.376
 11
-79.5943
 21
-15.7461
  0
LINE
  8
0
 10
-79.5943
 20
-15.7461
 11
-79.7107
 21
-16.1044
  0
LINE
  8
0
 10
-79.7107
 20
-16.1044
 11
-79.8711
 21
-16.4453
  0
LINE
  8
0
 10
-79.8711
 20
-16.4453
 11
-80.073
 21
-16.7634
  0
LINE
  8
0
 10
-80.073
 20
-16.7634
 11
-80.3131
 21
-17.0536
  0
LINE
  8
0
 10
-80.3131
 20
-17.0536
 11
-80.5877
 21
-17.3115
  0
LINE
  8
0
 10
-80.5877
 20
-17.3115
 11
-80.8925
 21
-17.533
  0
LINE
  8
0
 10
-80.8925
 20
-17.533
 11
-81.2227
 21
-17.7145
  0
LINE
  8
0
 10
-81.2227
 20
-17.7145
 11
-81.573
 21
-17.8532
  0
LINE
  8
0
 10
-81.573
 20
-17.8532
 11
-81.9379
 21
-17.9469
  0
LINE
  8
0
 10
-81.9379
 20
-17.9469
 11
-82.3116
 21
-17.9941
  0
LINE
  8
0
 10
-82.3116
 20
-17.9941
 11
-82.6884
 21
-17.9941
  0
LINE
  8
0
 10
82.3116
 20
-17.9941
 11
81.9379
 21
-17.9469
  0
LINE
  8
0
 10
81.9379
 20
-17.9469
 11
81.573
 21
-17.8532
  0
LINE
  8
0
 10
81.573
 20
-17.8532
 11
81.2227
 21
-17.7145
  0
LINE
  8
0
 10
81.2227
 20
-17.7145
 11
80.8925
 21
-17.533
  0
LINE
  8
0
 10
80.8925
 20
-17.533
 11
80.5877
 21
-17.3115
  0
LINE
  8
0
 10
80.5877
 20
-17.3115
 11
80.3131
 21
-17.0536
  0
LINE
  8
0
 10
80.3131
 20
-17.0536
 11
80.073
 21
-16.7634
  0
LINE
  8
0
 10
80.073
 20
-16.7634
 11
79.8711
 21
-16.4453
  0
LINE
  8
0
 10
79.8711
 20
-16.4453
 11
79.7107
 21
-16.1044
  0
LINE
  8
0
 10
79.7107
 20
-16.1044
 11
79.5943
 21
-15.7461
  0
LINE
  8
0
 10
79.5943
 20
-15.7461
 11
79.5237
 21
-15.376
  0
LINE
  8
0
 10
79.5237
 20
-15.376
 11
79.5
 21
-15
  0
LINE
  8
0
 10
79.5
 20
-15
 11
79.5237
 21
-14.624
  0
LINE
  8
0
 10
79.5237
 20
-14.624
 11
79.5943
 21
-14.2539
  0
LINE
  8
0
 10
79.5943
 20
-14.2539
 11
79.7107
 21
-13.8956
  0
LINE
  8
0
 10
79.7107
 20
-13.8956
 11
79.8711
 21
-13.5547
  0
LINE
  8
0
 10
79.8711
 20
-13.5547
 11
80.073
 21
-13.2366
  0
LINE
  8
0
 10
80.073
 20
-13.2366
 11
80.3131
 21
-12.9464
  0
LINE
  8
0
 10
80.3131
 20
-12.9464
 11
80.5877
 21
-12.6884
  0
LINE
  8
0
 10
80.5877
 20
-12.6884
 11
80.8925
 21
-12.467
  0
LINE
  8
0
 10
80.8925
 20
-12.467
 11
81.2227
 21
-12.2855
  0
LINE
  8
0
 10
81.2227
 20
-12.2855
 11
81.573
 21
-12.1468
  0
LINE
  8
0
 10
81.573
 20
-12.1468
 11
81.9379
 21
-12.0531
  0
LINE
  8
0
 10
81.9379
 20
-12.0531
 11
82.3116
 21
-12.0059
  0
LINE
  8
0
 10
82.3116
 20
-12.0059
 11
82.6884
 21
-12.0059
  0
LINE
  8
0
 10
82.6884
 20
-12.0059
 11
83.0621
 21
-12.0531
  0
LINE
  8
0
 10
83.0621
 20
-12.0531
 11
83.427
 21
-12.1468
  0
LINE
  8
0
 10
83.427
 20
-12.1468
 11
83.7773
 21
-12.2855
  0
LINE
  8
0
 10
83.7773
 20
-12.2855
 11
84.1075
 21
-12.467
  0
LINE
  8
0
 10
84.1075
 20
-12.467
 11
84.4123
 21
-12.6884
  0
LINE
  8
0
 10
84.4123
 20
-12.6884
 11
84.6869
 21
-12.9464
  0
LINE
  8
0
 10
84.6869
 20
-12.9464
 11
84.927
 21
-13.2366
  0
LINE
  8
0
 10
84.927
 20
-13.2366
 11
85.1289
 21
-13.5547
  0
LINE
  8
0
 10
85.1289
 20
-13.5547
 11
85.2893
 21
-13.8956
  0
LINE
  8
0
 10
85.2893
 20
-13.8956
 11
85.4057
 21
-14.2539
  0
LINE
  8
0
 10
85.4057
 20
-14.2539
 11
85.4763
 21
-14.624
  0
LINE
  8
0
 10
85.4763
 20
-14.624
 11
85.5
 21
-15
  0
LINE
  8
0
 10
85.5
 20
-15
 11
85.4763
 21
-15.376
  0
LINE
  8
0
 10
85.4763
 20
-15.376
 11
85.4057
 21
-15.7461
  0
LINE
  8
0
 10
85.4057
 20
-15.7461
 11
85.2893
 21
-16.1044
  0
LINE
  8
0
 10
85.2893
 20
-16.1044
 11
85.1289
 21
-16.4453
  0
LINE
  8
0
 10
85.1289
 20
-16.4453
 11
84.927
 21
-16.7634
  0
LINE
  8
0
 10
84.927
 20
-16.7634
 11
84.6869
 21
-17.0536
  0
LINE
  8
0
 10
84.6869
 20
-17.0536
 11
84.4123
 21
-17.3115
  0
LINE
  8
0
 10
84.4123
 20
-17.3115
 11
84.1075
 21
-17.533
  0
LINE
  8
0
 10
84.1075
 20
-17.533
 11
83.7773
 21
-17.7145
  0
LINE
  8
0
 10
83.7773
 20
-17.7145
 11
83.427
 21
-17.8532
  0
LINE
  8
0
 10
83.427
 20
-17.8532
 11
83.0621
 21
-17.9469
  0
LINE
  8
0
 10
83.0621
 20
-17.9469
 11
82.6884
 21
-17.9941
  0
LINE
  8
0
 10
82.6884
 20
-17.9941
 11
82.3116
 21
-17.9941
  0
LINE
  8
0
 10
-79.7107
 20
13.8956
 11
-79.8711
 21
13.5547
  0
LINE
  8
0
 10
-79.8711
 20
13.5547
 11
-80.073
 21
13.2366
  0
LINE
  8
0
 10
-80.073
 20
13.2366
 11
-80.3131
 21
12.9464
  0
LINE
  8
0
 10
-80.3131
 20
12.9464
 11
-80.5877
 21
12.6884
  0
LINE
  8
0
 10
-80.5877
 20
12.6884
 11
-80.8925
 21
12.467
  0
LINE
  8
0
 10
-80.8925
 20
12.467
 11
-81.2227
 21
12.2855
  0
LINE
  8
0
 10
-81.2227
 20
12.2855
 11
-81.573
 21
12.1468
  0
LINE
  8
0
 10
-81.573
 20
12.1468
 11
-81.9379
 21
12.0531
  0
LINE
  8
0
 10
-81.9379
 20
12.0531
 11
-82.3116
 21
12.0059
  0
LINE
  8
0
 10
-82.3116
 20
12.0059
 11
-82.6884
 21
12.0059
  0
LINE
  8
0
 10
-82.6884
 20
12.0059
 11
-83.0621
 21
12.0531
  0
LINE
  8
0
 10
-83.0621
 20
12.0531
 11
-83.427
 21
12.1468
  0
LINE
  8
0
 10
-83.427
 20
12.1468
 11
-83.7773
 21
12.2855
  0
LINE
  8
0
 10
-83.7773
 20
12.2855
 11
-84.1075
 21
12.467
  0
LINE
  8
0
 10
-84.1075
 20
12.467
 11
-84.4123
 21
12.6884
  0
LINE
  8
0
 10
-84.4123
 20
12.6884
 11
-84.6869
 21
12.9464
  0
LINE
  8
0
 10
-84.6869
 20
12.9464
 11
-84.927
 21
13.2366
  0
LINE
  8
0
 10
-84.927
 20
13.2366
 11
-85.1289
 21
13.5547
  0
LINE
  8
0
 10
-85.1289
 20
13.5547
 11
-85.2893
 21
13.8956
  0
LINE
  8
0
 10
-85.2893
 20
13.8956
 11
-85.4057
 21
14.2539
  0
LINE
  8
0
 10
-85.4057
 20
14.2539
 11
-85.4763
 21
14.624
  0
LINE
  8
0
 10
-85.4763
 20
14.624
 11
-85.5
 21
15
  0
LINE
  8
0
 10
-85.5
 20
15
 11
-85.4763
 21
15.376
  0
LINE
  8
0
 10
-85.4763
 20
15.376
 11
-85.4057
 21
15.7461
  0
LINE
  8
0
 10
-85.4057
 20
15.7461
 11
-85.2893
 21
16.1044
  0
LINE
  8
0
 10
-85.2893
 20
16.1044
 11
-85.1289
 21
16.4453
  0
LINE
  8
0
 10
-85.1289
 20
16.4453
 11
-84.927
 21
16.7634
  0
LINE
  8
0
 10
-84.927
 20
16.7634
 11
-84.6869
 21
17.0536
  0
LINE
  8
0
 10
-84.6869
 20
17.0536
 11
-84.4123
 21
17.3115
  0
LINE
  8
0
 10
-84.4123
 20
17.3115
 11
-84.1075
 21
17.533
  0
LINE
  8
0
 10
-84.1075
 20
17.533
 11
-83.7773
 21
17.7145
  0
LINE
  8
0
 10
-83.7773
 20
17.7145
 11
-83.427
 21
17.8532
  0
LINE
  8
0
 10
-83.427
 20
17.8532
 11
-83.0621
 21
17.9469
  0
LINE
  8
0
 10
-83.0621
 20
17.9469
 11
-82.6884
 21
17.9941
  0
LINE
  8
0
 10
-82.6884
 20
17.9941
 11
-82.3116
 21
17.9941
  0
LINE
  8
0
 10
-82.3116
 20
17.9941
 11
-81.9379
 21
17.9469
  0
LINE
  8
0
 10
-81.9379
 20
17.9469
 11
-81.573
 21
17.8532
  0
LINE
  8
0
 10
-81.573
 20
17.8532
 11
-81.2227
 21
17.7145
  0
LINE
  8
0
 10
-81.2227
 20
17.7145
 11
-80.8925
 21
17.533
  0
LINE
  8
0
 10
-80.8925
 20
17.533
 11
-80.5877
 21
17.3115
  0
LINE
  8
0
 10
-80.5877
 20
17.3115
 11
-80.3131
 21
17.0536
  0
LINE
  8
0
 10
-80.3131
 20
17.0536
 11
-80.073
 21
16.7634
  0
LINE
  8
0
 10
-80.073
 20
16.7634
 11
-79.8711
 21
16.4453
  0
LINE
  8
0
 10
-79.8711
 20
16.4453
 11
-79.7107
 21
16.1044
  0
LINE
  8
0
 10
-79.7107
 20
16.1044
 11
-79.5943
 21
15.7461
  0
LINE
  8
0
 10
-79.5943
 20
15.7461
 11
-79.5237
 21
15.376
  0
LINE
  8
0
 10
-79.5237
 20
15.376
 11
-79.5
 21
15
  0
LINE
  8
0
 10
-79.5
 20
15
 11
-79.5237
 21
14.624
  0
LINE
  8
0
 10
-79.5237
 20
14.624
 11
-79.5943
 21
14.2539
  0
LINE
  8
0
 10
-79.5943
 20
14.2539
 11
-79.7107
 21
13.8956
  0
ENDSEC
  0
SECTION
  2
OBJECTS
  0
DICTIONARY
  0
ENDSEC
  0
EOF
