  0
SECTION
  2
BLOCKS
  0
ENDSEC
  0
SECTION
  2
ENTITIES
  0
LINE
  8
0
 10
70.4369
 20
-66.9114
 11
71.0451
 21
-66.7553
  0
LINE
  8
0
 10
71.0451
 20
-66.7553
 11
71.6289
 21
-66.5241
  0
LINE
  8
0
 10
71.6289
 20
-66.5241
 11
72.1791
 21
-66.2216
  0
LINE
  8
0
 10
72.1791
 20
-66.2216
 11
72.6871
 21
-65.8526
  0
LINE
  8
0
 10
72.6871
 20
-65.8526
 11
73.1448
 21
-65.4227
  0
LINE
  8
0
 10
73.1448
 20
-65.4227
 11
73.5451
 21
-64.9389
  0
LINE
  8
0
 10
73.5451
 20
-64.9389
 11
73.8815
 21
-64.4088
  0
LINE
  8
0
 10
73.8815
 20
-64.4088
 11
74.1489
 21
-63.8406
  0
LINE
  8
0
 10
74.1489
 20
-63.8406
 11
74.3429
 21
-63.2434
  0
LINE
  8
0
 10
74.3429
 20
-63.2434
 11
74.4606
 21
-62.6267
  0
LINE
  8
0
 10
74.4606
 20
-62.6267
 11
74.5
 21
-62
  0
LINE
  8
0
 10
74.5
 20
-62
 11
74.5
 21
62
  0
LINE
  8
0
 10
74.5
 20
62
 11
74.4606
 21
62.6267
  0
LINE
  8
0
 10
74.4606
 20
62.6267
 11
74.3429
 21
63.2434
  0
LINE
  8
0
 10
74.3429
 20
63.2434
 11
74.1489
 21
63.8406
  0
LINE
  8
0
 10
74.1489
 20
63.8406
 11
73.8815
 21
64.4088
  0
LINE
  8
0
 10
73.8815
 20
64.4088
 11
73.5451
 21
64.9389
  0
LINE
  8
0
 10
73.5451
 20
64.9389
 11
73.1448
 21
65.4227
  0
LINE
  8
0
 10
73.1448
 20
65.4227
 11
72.6871
 21
65.8526
  0
LINE
  8
0
 10
72.6871
 20
65.8526
 11
72.1791
 21
66.2216
  0
LINE
  8
0
 10
72.1791
 20
66.2216
 11
71.6289
 21
66.5241
  0
LINE
  8
0
 10
71.6289
 20
66.5241
 11
71.0451
 21
66.7553
  0
LINE
  8
0
 10
71.0451
 20
66.7553
 11
70.4369
 21
66.9114
  0
LINE
  8
0
 10
70.4369
 20
66.9114
 11
69.8139
 21
66.9901
  0
LINE
  8
0
 10
69.8139
 20
66.9901
 11
-69.8139
 21
66.9901
  0
LINE
  8
0
 10
-69.8139
 20
66.9901
 11
-70.4369
 21
66.9114
  0
LINE
  8
0
 10
-70.4369
 20
66.9114
 11
-71.0451
 21
66.7553
  0
LINE
  8
0
 10
-71.0451
 20
66.7553
 11
-71.6289
 21
66.5241
  0
LINE
  8
0
 10
-71.6289
 20
66.5241
 11
-72.1791
 21
66.2216
  0
LINE
  8
0
 10
-72.1791
 20
66.2216
 11
-72.6871
 21
65.8526
  0
LINE
  8
0
 10
-72.6871
 20
65.8526
 11
-73.1448
 21
65.4227
  0
LINE
  8
0
 10
-73.1448
 20
65.4227
 11
-73.5451
 21
64.9389
  0
LINE
  8
0
 10
-73.5451
 20
64.9389
 11
-73.8815
 21
64.4088
  0
LINE
  8
0
 10
-73.8815
 20
64.4088
 11
-74.1489
 21
63.8406
  0
LINE
  8
0
 10
-74.1489
 20
63.8406
 11
-74.3429
 21
63.2434
  0
LINE
  8
0
 10
-74.3429
 20
63.2434
 11
-74.4606
 21
62.6267
  0
LINE
  8
0
 10
-74.4606
 20
62.6267
 11
-74.5
 21
62
  0
LINE
  8
0
 10
-74.5
 20
62
 11
-74.5
 21
-62
  0
LINE
  8
0
 10
-74.5
 20
-62
 11
-74.4606
 21
-62.6267
  0
LINE
  8
0
 10
-74.4606
 20
-62.6267
 11
-74.3429
 21
-63.2434
  0
LINE
  8
0
 10
-74.3429
 20
-63.2434
 11
-74.1489
 21
-63.8406
  0
LINE
  8
0
 10
-74.1489
 20
-63.8406
 11
-73.8815
 21
-64.4088
  0
LINE
  8
0
 10
-73.8815
 20
-64.4088
 11
-73.5451
 21
-64.9389
  0
LINE
  8
0
 10
-73.5451
 20
-64.9389
 11
-73.1448
 21
-65.4227
  0
LINE
  8
0
 10
-73.1448
 20
-65.4227
 11
-72.6871
 21
-65.8526
  0
LINE
  8
0
 10
-72.6871
 20
-65.8526
 11
-72.1791
 21
-66.2216
  0
LINE
  8
0
 10
-72.1791
 20
-66.2216
 11
-71.6289
 21
-66.5241
  0
LINE
  8
0
 10
-71.6289
 20
-66.5241
 11
-71.0451
 21
-66.7553
  0
LINE
  8
0
 10
-71.0451
 20
-66.7553
 11
-70.4369
 21
-66.9114
  0
LINE
  8
0
 10
-70.4369
 20
-66.9114
 11
-69.8139
 21
-66.9901
  0
LINE
  8
0
 10
-69.8139
 20
-66.9901
 11
69.8139
 21
-66.9901
  0
LINE
  8
0
 10
69.8139
 20
-66.9901
 11
70.4369
 21
-66.9114
  0
LINE
  8
0
 10
67.3116
 20
57.0059
 11
66.9379
 21
57.0531
  0
LINE
  8
0
 10
66.9379
 20
57.0531
 11
66.573
 21
57.1468
  0
LINE
  8
0
 10
66.573
 20
57.1468
 11
66.2227
 21
57.2855
  0
LINE
  8
0
 10
66.2227
 20
57.2855
 11
65.8925
 21
57.467
  0
LINE
  8
0
 10
65.8925
 20
57.467
 11
65.5877
 21
57.6885
  0
LINE
  8
0
 10
65.5877
 20
57.6885
 11
65.3131
 21
57.9464
  0
LINE
  8
0
 10
65.3131
 20
57.9464
 11
65.073
 21
58.2366
  0
LINE
  8
0
 10
65.073
 20
58.2366
 11
64.8711
 21
58.5547
  0
LINE
  8
0
 10
64.8711
 20
58.5547
 11
64.7107
 21
58.8956
  0
LINE
  8
0
 10
64.7107
 20
58.8956
 11
64.5943
 21
59.2539
  0
LINE
  8
0
 10
64.5943
 20
59.2539
 11
64.5237
 21
59.624
  0
LINE
  8
0
 10
64.5237
 20
59.624
 11
64.5
 21
60
  0
LINE
  8
0
 10
64.5
 20
60
 11
64.5237
 21
60.376
  0
LINE
  8
0
 10
64.5237
 20
60.376
 11
64.5943
 21
60.7461
  0
LINE
  8
0
 10
64.5943
 20
60.7461
 11
64.7107
 21
61.1044
  0
LINE
  8
0
 10
64.7107
 20
61.1044
 11
64.8711
 21
61.4453
  0
LINE
  8
0
 10
64.8711
 20
61.4453
 11
65.073
 21
61.7634
  0
LINE
  8
0
 10
65.073
 20
61.7634
 11
65.3131
 21
62.0536
  0
LINE
  8
0
 10
65.3131
 20
62.0536
 11
65.5877
 21
62.3115
  0
LINE
  8
0
 10
65.5877
 20
62.3115
 11
65.8925
 21
62.533
  0
LINE
  8
0
 10
65.8925
 20
62.533
 11
66.2227
 21
62.7145
  0
LINE
  8
0
 10
66.2227
 20
62.7145
 11
66.573
 21
62.8532
  0
LINE
  8
0
 10
66.573
 20
62.8532
 11
66.9379
 21
62.9469
  0
LINE
  8
0
 10
66.9379
 20
62.9469
 11
67.3116
 21
62.9941
  0
LINE
  8
0
 10
67.3116
 20
62.9941
 11
67.6884
 21
62.9941
  0
LINE
  8
0
 10
67.6884
 20
62.9941
 11
68.0621
 21
62.9469
  0
LINE
  8
0
 10
68.0621
 20
62.9469
 11
68.427
 21
62.8532
  0
LINE
  8
0
 10
68.427
 20
62.8532
 11
68.7773
 21
62.7145
  0
LINE
  8
0
 10
68.7773
 20
62.7145
 11
69.1075
 21
62.533
  0
LINE
  8
0
 10
69.1075
 20
62.533
 11
69.4123
 21
62.3115
  0
LINE
  8
0
 10
69.4123
 20
62.3115
 11
69.6869
 21
62.0536
  0
LINE
  8
0
 10
69.6869
 20
62.0536
 11
69.927
 21
61.7634
  0
LINE
  8
0
 10
69.927
 20
61.7634
 11
70.1289
 21
61.4453
  0
LINE
  8
0
 10
70.1289
 20
61.4453
 11
70.2893
 21
61.1044
  0
LINE
  8
0
 10
70.2893
 20
61.1044
 11
70.4057
 21
60.7461
  0
LINE
  8
0
 10
70.4057
 20
60.7461
 11
70.4763
 21
60.376
  0
LINE
  8
0
 10
70.4763
 20
60.376
 11
70.5
 21
60
  0
LINE
  8
0
 10
70.5
 20
60
 11
70.4763
 21
59.624
  0
LINE
  8
0
 10
70.4763
 20
59.624
 11
70.4057
 21
59.2539
  0
LINE
  8
0
 10
70.4057
 20
59.2539
 11
70.2893
 21
58.8956
  0
LINE
  8
0
 10
70.2893
 20
58.8956
 11
70.1289
 21
58.5547
  0
LINE
  8
0
 10
70.1289
 20
58.5547
 11
69.927
 21
58.2366
  0
LINE
  8
0
 10
69.927
 20
58.2366
 11
69.6869
 21
57.9464
  0
LINE
  8
0
 10
69.6869
 20
57.9464
 11
69.4123
 21
57.6885
  0
LINE
  8
0
 10
69.4123
 20
57.6885
 11
69.1075
 21
57.467
  0
LINE
  8
0
 10
69.1075
 20
57.467
 11
68.7773
 21
57.2855
  0
LINE
  8
0
 10
68.7773
 20
57.2855
 11
68.427
 21
57.1468
  0
LINE
  8
0
 10
68.427
 20
57.1468
 11
68.0621
 21
57.0531
  0
LINE
  8
0
 10
68.0621
 20
57.0531
 11
67.6884
 21
57.0059
  0
LINE
  8
0
 10
67.6884
 20
57.0059
 11
67.3116
 21
57.0059
  0
LINE
  8
0
 10
-67.6884
 20
57.0059
 11
-68.0621
 21
57.0531
  0
LINE
  8
0
 10
-68.0621
 20
57.0531
 11
-68.427
 21
57.1468
  0
LINE
  8
0
 10
-68.427
 20
57.1468
 11
-68.7773
 21
57.2855
  0
LINE
  8
0
 10
-68.7773
 20
57.2855
 11
-69.1075
 21
57.467
  0
LINE
  8
0
 10
-69.1075
 20
57.467
 11
-69.4123
 21
57.6885
  0
LINE
  8
0
 10
-69.4123
 20
57.6885
 11
-69.6869
 21
57.9464
  0
LINE
  8
0
 10
-69.6869
 20
57.9464
 11
-69.927
 21
58.2366
  0
LINE
  8
0
 10
-69.927
 20
58.2366
 11
-70.1289
 21
58.5547
  0
LINE
  8
0
 10
-70.1289
 20
58.5547
 11
-70.2893
 21
58.8956
  0
LINE
  8
0
 10
-70.2893
 20
58.8956
 11
-70.4057
 21
59.2539
  0
LINE
  8
0
 10
-70.4057
 20
59.2539
 11
-70.4763
 21
59.624
  0
LINE
  8
0
 10
-70.4763
 20
59.624
 11
-70.5
 21
60
  0
LINE
  8
0
 10
-70.5
 20
60
 11
-70.4763
 21
60.376
  0
LINE
  8
0
 10
-70.4763
 20
60.376
 11
-70.4057
 21
60.7461
  0
LINE
  8
0
 10
-70.4057
 20
60.7461
 11
-70.2893
 21
61.1044
  0
LINE
  8
0
 10
-70.2893
 20
61.1044
 11
-70.1289
 21
61.4453
  0
LINE
  8
0
 10
-70.1289
 20
61.4453
 11
-69.927
 21
61.7634
  0
LINE
  8
0
 10
-69.927
 20
61.7634
 11
-69.6869
 21
62.0536
  0
LINE
  8
0
 10
-69.6869
 20
62.0536
 11
-69.4123
 21
62.3115
  0
LINE
  8
0
 10
-69.4123
 20
62.3115
 11
-69.1075
 21
62.533
  0
LINE
  8
0
 10
-69.1075
 20
62.533
 11
-68.7773
 21
62.7145
  0
LINE
  8
0
 10
-68.7773
 20
62.7145
 11
-68.427
 21
62.8532
  0
LINE
  8
0
 10
-68.427
 20
62.8532
 11
-68.0621
 21
62.9469
  0
LINE
  8
0
 10
-68.0621
 20
62.9469
 11
-67.6884
 21
62.9941
  0
LINE
  8
0
 10
-67.6884
 20
62.9941
 11
-67.3116
 21
62.9941
  0
LINE
  8
0
 10
-67.3116
 20
62.9941
 11
-66.9379
 21
62.9469
  0
LINE
  8
0
 10
-66.9379
 20
62.9469
 11
-66.573
 21
62.8532
  0
LINE
  8
0
 10
-66.573
 20
62.8532
 11
-66.2227
 21
62.7145
  0
LINE
  8
0
 10
-66.2227
 20
62.7145
 11
-65.8925
 21
62.533
  0
LINE
  8
0
 10
-65.8925
 20
62.533
 11
-65.5877
 21
62.3115
  0
LINE
  8
0
 10
-65.5877
 20
62.3115
 11
-65.3131
 21
62.0536
  0
LINE
  8
0
 10
-65.3131
 20
62.0536
 11
-65.073
 21
61.7634
  0
LINE
  8
0
 10
-65.073
 20
61.7634
 11
-64.8711
 21
61.4453
  0
LINE
  8
0
 10
-64.8711
 20
61.4453
 11
-64.7107
 21
61.1044
  0
LINE
  8
0
 10
-64.7107
 20
61.1044
 11
-64.5943
 21
60.7461
  0
LINE
  8
0
 10
-64.5943
 20
60.7461
 11
-64.5237
 21
60.376
  0
LINE
  8
0
 10
-64.5237
 20
60.376
 11
-64.5
 21
60
  0
LINE
  8
0
 10
-64.5
 20
60
 11
-64.5237
 21
59.624
  0
LINE
  8
0
 10
-64.5237
 20
59.624
 11
-64.5943
 21
59.2539
  0
LINE
  8
0
 10
-64.5943
 20
59.2539
 11
-64.7107
 21
58.8956
  0
LINE
  8
0
 10
-64.7107
 20
58.8956
 11
-64.8711
 21
58.5547
  0
LINE
  8
0
 10
-64.8711
 20
58.5547
 11
-65.073
 21
58.2366
  0
LINE
  8
0
 10
-65.073
 20
58.2366
 11
-65.3131
 21
57.9464
  0
LINE
  8
0
 10
-65.3131
 20
57.9464
 11
-65.5877
 21
57.6885
  0
LINE
  8
0
 10
-65.5877
 20
57.6885
 11
-65.8925
 21
57.467
  0
LINE
  8
0
 10
-65.8925
 20
57.467
 11
-66.2227
 21
57.2855
  0
LINE
  8
0
 10
-66.2227
 20
57.2855
 11
-66.573
 21
57.1468
  0
LINE
  8
0
 10
-66.573
 20
57.1468
 11
-66.9379
 21
57.0531
  0
LINE
  8
0
 10
-66.9379
 20
57.0531
 11
-67.3116
 21
57.0059
  0
LINE
  8
0
 10
-67.3116
 20
57.0059
 11
-67.6884
 21
57.0059
  0
LINE
  8
0
 10
67.3116
 20
-62.9941
 11
66.9379
 21
-62.9469
  0
LINE
  8
0
 10
66.9379
 20
-62.9469
 11
66.573
 21
-62.8532
  0
LINE
  8
0
 10
66.573
 20
-62.8532
 11
66.2227
 21
-62.7145
  0
LINE
  8
0
 10
66.2227
 20
-62.7145
 11
65.8925
 21
-62.533
  0
LINE
  8
0
 10
65.8925
 20
-62.533
 11
65.5877
 21
-62.3115
  0
LINE
  8
0
 10
65.5877
 20
-62.3115
 11
65.3131
 21
-62.0536
  0
LINE
  8
0
 10
65.3131
 20
-62.0536
 11
65.073
 21
-61.7634
  0
LINE
  8
0
 10
65.073
 20
-61.7634
 11
64.8711
 21
-61.4453
  0
LINE
  8
0
 10
64.8711
 20
-61.4453
 11
64.7107
 21
-61.1044
  0
LINE
  8
0
 10
64.7107
 20
-61.1044
 11
64.5943
 21
-60.7461
  0
LINE
  8
0
 10
64.5943
 20
-60.7461
 11
64.5237
 21
-60.376
  0
LINE
  8
0
 10
64.5237
 20
-60.376
 11
64.5
 21
-60
  0
LINE
  8
0
 10
64.5
 20
-60
 11
64.5237
 21
-59.624
  0
LINE
  8
0
 10
64.5237
 20
-59.624
 11
64.5943
 21
-59.2539
  0
LINE
  8
0
 10
64.5943
 20
-59.2539
 11
64.7107
 21
-58.8956
  0
LINE
  8
0
 10
64.7107
 20
-58.8956
 11
64.8711
 21
-58.5547
  0
LINE
  8
0
 10
64.8711
 20
-58.5547
 11
65.073
 21
-58.2366
  0
LINE
  8
0
 10
65.073
 20
-58.2366
 11
65.3131
 21
-57.9464
  0
LINE
  8
0
 10
65.3131
 20
-57.9464
 11
65.5877
 21
-57.6885
  0
LINE
  8
0
 10
65.5877
 20
-57.6885
 11
65.8925
 21
-57.467
  0
LINE
  8
0
 10
65.8925
 20
-57.467
 11
66.2227
 21
-57.2855
  0
LINE
  8
0
 10
66.2227
 20
-57.2855
 11
66.573
 21
-57.1468
  0
LINE
  8
0
 10
66.573
 20
-57.1468
 11
66.9379
 21
-57.0531
  0
LINE
  8
0
 10
66.9379
 20
-57.0531
 11
67.3116
 21
-57.0059
  0
LINE
  8
0
 10
67.3116
 20
-57.0059
 11
67.6884
 21
-57.0059
  0
LINE
  8
0
 10
67.6884
 20
-57.0059
 11
68.0621
 21
-57.0531
  0
LINE
  8
0
 10
68.0621
 20
-57.0531
 11
68.427
 21
-57.1468
  0
LINE
  8
0
 10
68.427
 20
-57.1468
 11
68.7773
 21
-57.2855
  0
LINE
  8
0
 10
68.7773
 20
-57.2855
 11
69.1075
 21
-57.467
  0
LINE
  8
0
 10
69.1075
 20
-57.467
 11
69.4123
 21
-57.6885
  0
LINE
  8
0
 10
69.4123
 20
-57.6885
 11
69.6869
 21
-57.9464
  0
LINE
  8
0
 10
69.6869
 20
-57.9464
 11
69.927
 21
-58.2366
  0
LINE
  8
0
 10
69.927
 20
-58.2366
 11
70.1289
 21
-58.5547
  0
LINE
  8
0
 10
70.1289
 20
-58.5547
 11
70.2893
 21
-58.8956
  0
LINE
  8
0
 10
70.2893
 20
-58.8956
 11
70.4057
 21
-59.2539
  0
LINE
  8
0
 10
70.4057
 20
-59.2539
 11
70.4763
 21
-59.624
  0
LINE
  8
0
 10
70.4763
 20
-59.624
 11
70.5
 21
-60
  0
LINE
  8
0
 10
70.5
 20
-60
 11
70.4763
 21
-60.376
  0
LINE
  8
0
 10
70.4763
 20
-60.376
 11
70.4057
 21
-60.7461
  0
LINE
  8
0
 10
70.4057
 20
-60.7461
 11
70.2893
 21
-61.1044
  0
LINE
  8
0
 10
70.2893
 20
-61.1044
 11
70.1289
 21
-61.4453
  0
LINE
  8
0
 10
70.1289
 20
-61.4453
 11
69.927
 21
-61.7634
  0
LINE
  8
0
 10
69.927
 20
-61.7634
 11
69.6869
 21
-62.0536
  0
LINE
  8
0
 10
69.6869
 20
-62.0536
 11
69.4123
 21
-62.3115
  0
LINE
  8
0
 10
69.4123
 20
-62.3115
 11
69.1075
 21
-62.533
  0
LINE
  8
0
 10
69.1075
 20
-62.533
 11
68.7773
 21
-62.7145
  0
LINE
  8
0
 10
68.7773
 20
-62.7145
 11
68.427
 21
-62.8532
  0
LINE
  8
0
 10
68.427
 20
-62.8532
 11
68.0621
 21
-62.9469
  0
LINE
  8
0
 10
68.0621
 20
-62.9469
 11
67.6884
 21
-62.9941
  0
LINE
  8
0
 10
67.6884
 20
-62.9941
 11
67.3116
 21
-62.9941
  0
LINE
  8
0
 10
-67.6884
 20
-62.9941
 11
-68.0621
 21
-62.9469
  0
LINE
  8
0
 10
-68.0621
 20
-62.9469
 11
-68.427
 21
-62.8532
  0
LINE
  8
0
 10
-68.427
 20
-62.8532
 11
-68.7773
 21
-62.7145
  0
LINE
  8
0
 10
-68.7773
 20
-62.7145
 11
-69.1075
 21
-62.533
  0
LINE
  8
0
 10
-69.1075
 20
-62.533
 11
-69.4123
 21
-62.3115
  0
LINE
  8
0
 10
-69.4123
 20
-62.3115
 11
-69.6869
 21
-62.0536
  0
LINE
  8
0
 10
-69.6869
 20
-62.0536
 11
-69.927
 21
-61.7634
  0
LINE
  8
0
 10
-69.927
 20
-61.7634
 11
-70.1289
 21
-61.4453
  0
LINE
  8
0
 10
-70.1289
 20
-61.4453
 11
-70.2893
 21
-61.1044
  0
LINE
  8
0
 10
-70.2893
 20
-61.1044
 11
-70.4057
 21
-60.7461
  0
LINE
  8
0
 10
-70.4057
 20
-60.7461
 11
-70.4763
 21
-60.376
  0
LINE
  8
0
 10
-70.4763
 20
-60.376
 11
-70.5
 21
-60
  0
LINE
  8
0
 10
-70.5
 20
-60
 11
-70.4763
 21
-59.624
  0
LINE
  8
0
 10
-70.4763
 20
-59.624
 11
-70.4057
 21
-59.2539
  0
LINE
  8
0
 10
-70.4057
 20
-59.2539
 11
-70.2893
 21
-58.8956
  0
LINE
  8
0
 10
-70.2893
 20
-58.8956
 11
-70.1289
 21
-58.5547
  0
LINE
  8
0
 10
-70.1289
 20
-58.5547
 11
-69.927
 21
-58.2366
  0
LINE
  8
0
 10
-69.927
 20
-58.2366
 11
-69.6869
 21
-57.9464
  0
LINE
  8
0
 10
-69.6869
 20
-57.9464
 11
-69.4123
 21
-57.6885
  0
LINE
  8
0
 10
-69.4123
 20
-57.6885
 11
-69.1075
 21
-57.467
  0
LINE
  8
0
 10
-69.1075
 20
-57.467
 11
-68.7773
 21
-57.2855
  0
LINE
  8
0
 10
-68.7773
 20
-57.2855
 11
-68.427
 21
-57.1468
  0
LINE
  8
0
 10
-68.427
 20
-57.1468
 11
-68.0621
 21
-57.0531
  0
LINE
  8
0
 10
-68.0621
 20
-57.0531
 11
-67.6884
 21
-57.0059
  0
LINE
  8
0
 10
-67.6884
 20
-57.0059
 11
-67.3116
 21
-57.0059
  0
LINE
  8
0
 10
-67.3116
 20
-57.0059
 11
-66.9379
 21
-57.0531
  0
LINE
  8
0
 10
-66.9379
 20
-57.0531
 11
-66.573
 21
-57.1468
  0
LINE
  8
0
 10
-66.573
 20
-57.1468
 11
-66.2227
 21
-57.2855
  0
LINE
  8
0
 10
-66.2227
 20
-57.2855
 11
-65.8925
 21
-57.467
  0
LINE
  8
0
 10
-65.8925
 20
-57.467
 11
-65.5877
 21
-57.6885
  0
LINE
  8
0
 10
-65.5877
 20
-57.6885
 11
-65.3131
 21
-57.9464
  0
LINE
  8
0
 10
-65.3131
 20
-57.9464
 11
-65.073
 21
-58.2366
  0
LINE
  8
0
 10
-65.073
 20
-58.2366
 11
-64.8711
 21
-58.5547
  0
LINE
  8
0
 10
-64.8711
 20
-58.5547
 11
-64.7107
 21
-58.8956
  0
LINE
  8
0
 10
-64.7107
 20
-58.8956
 11
-64.5943
 21
-59.2539
  0
LINE
  8
0
 10
-64.5943
 20
-59.2539
 11
-64.5237
 21
-59.624
  0
LINE
  8
0
 10
-64.5237
 20
-59.624
 11
-64.5
 21
-60
  0
LINE
  8
0
 10
-64.5
 20
-60
 11
-64.5237
 21
-60.376
  0
LINE
  8
0
 10
-64.5237
 20
-60.376
 11
-64.5943
 21
-60.7461
  0
LINE
  8
0
 10
-64.5943
 20
-60.7461
 11
-64.7107
 21
-61.1044
  0
LINE
  8
0
 10
-64.7107
 20
-61.1044
 11
-64.8711
 21
-61.4453
  0
LINE
  8
0
 10
-64.8711
 20
-61.4453
 11
-65.073
 21
-61.7634
  0
LINE
  8
0
 10
-65.073
 20
-61.7634
 11
-65.3131
 21
-62.0536
  0
LINE
  8
0
 10
-65.3131
 20
-62.0536
 11
-65.5877
 21
-62.3115
  0
LINE
  8
0
 10
-65.5877
 20
-62.3115
 11
-65.8925
 21
-62.533
  0
LINE
  8
0
 10
-65.8925
 20
-62.533
 11
-66.2227
 21
-62.7145
  0
LINE
  8
0
 10
-66.2227
 20
-62.7145
 11
-66.573
 21
-62.8532
  0
LINE
  8
0
 10
-66.573
 20
-62.8532
 11
-66.9379
 21
-62.9469
  0
LINE
  8
0
 10
-66.9379
 20
-62.9469
 11
-67.3116
 21
-62.9941
  0
LINE
  8
0
 10
-67.3116
 20
-62.9941
 11
-67.6884
 21
-62.9941
  0
ENDSEC
  0
SECTION
  2
OBJECTS
  0
DICTIONARY
  0
ENDSEC
  0
EOF
