  0
SECTION
  2
BLOCKS
  0
ENDSEC
  0
SECTION
  2
ENTITIES
  0
LINE
  8
0
 10
77.9369
 20
17.0886
 11
78.5451
 21
17.2447
  0
LINE
  8
0
 10
78.5451
 20
17.2447
 11
79.1289
 21
17.4759
  0
LINE
  8
0
 10
79.1289
 20
17.4759
 11
79.6791
 21
17.7784
  0
LINE
  8
0
 10
79.6791
 20
17.7784
 11
80.1871
 21
18.1474
  0
LINE
  8
0
 10
80.1871
 20
18.1474
 11
80.6448
 21
18.5773
  0
LINE
  8
0
 10
80.6448
 20
18.5773
 11
81.0451
 21
19.0611
  0
LINE
  8
0
 10
81.0451
 20
19.0611
 11
81.3815
 21
19.5912
  0
LINE
  8
0
 10
81.3815
 20
19.5912
 11
81.6489
 21
20.1594
  0
LINE
  8
0
 10
81.6489
 20
20.1594
 11
81.8429
 21
20.7566
  0
LINE
  8
0
 10
81.8429
 20
20.7566
 11
81.9606
 21
21.3733
  0
LINE
  8
0
 10
81.9606
 20
21.3733
 11
82
 21
22
  0
LINE
  8
0
 10
82
 20
22
 11
82
 21
26
  0
LINE
  8
0
 10
82
 20
26
 11
81.9606
 21
26.6267
  0
LINE
  8
0
 10
81.9606
 20
26.6267
 11
81.8429
 21
27.2434
  0
LINE
  8
0
 10
81.8429
 20
27.2434
 11
81.6489
 21
27.8406
  0
LINE
  8
0
 10
81.6489
 20
27.8406
 11
81.3815
 21
28.4088
  0
LINE
  8
0
 10
81.3815
 20
28.4088
 11
81.0451
 21
28.9389
  0
LINE
  8
0
 10
81.0451
 20
28.9389
 11
80.6448
 21
29.4227
  0
LINE
  8
0
 10
80.6448
 20
29.4227
 11
80.1871
 21
29.8526
  0
LINE
  8
0
 10
80.1871
 20
29.8526
 11
79.6791
 21
30.2216
  0
LINE
  8
0
 10
79.6791
 20
30.2216
 11
79.1289
 21
30.5241
  0
LINE
  8
0
 10
79.1289
 20
30.5241
 11
78.5451
 21
30.7553
  0
LINE
  8
0
 10
78.5451
 20
30.7553
 11
77.9369
 21
30.9114
  0
LINE
  8
0
 10
77.9369
 20
30.9114
 11
77.3139
 21
30.9901
  0
LINE
  8
0
 10
77.3139
 20
30.9901
 11
-77.3139
 21
30.9901
  0
LINE
  8
0
 10
-77.3139
 20
30.9901
 11
-77.9369
 21
30.9114
  0
LINE
  8
0
 10
-77.9369
 20
30.9114
 11
-78.5451
 21
30.7553
  0
LINE
  8
0
 10
-78.5451
 20
30.7553
 11
-79.1289
 21
30.5241
  0
LINE
  8
0
 10
-79.1289
 20
30.5241
 11
-79.6791
 21
30.2216
  0
LINE
  8
0
 10
-79.6791
 20
30.2216
 11
-80.1871
 21
29.8526
  0
LINE
  8
0
 10
-80.1871
 20
29.8526
 11
-80.6448
 21
29.4227
  0
LINE
  8
0
 10
-80.6448
 20
29.4227
 11
-81.0451
 21
28.9389
  0
LINE
  8
0
 10
-81.0451
 20
28.9389
 11
-81.3815
 21
28.4088
  0
LINE
  8
0
 10
-81.3815
 20
28.4088
 11
-81.6489
 21
27.8406
  0
LINE
  8
0
 10
-81.6489
 20
27.8406
 11
-81.8429
 21
27.2434
  0
LINE
  8
0
 10
-81.8429
 20
27.2434
 11
-81.9606
 21
26.6267
  0
LINE
  8
0
 10
-81.9606
 20
26.6267
 11
-82
 21
26
  0
LINE
  8
0
 10
-82
 20
26
 11
-82
 21
22
  0
LINE
  8
0
 10
-82
 20
22
 11
-81.9606
 21
21.3733
  0
LINE
  8
0
 10
-81.9606
 20
21.3733
 11
-81.8429
 21
20.7566
  0
LINE
  8
0
 10
-81.8429
 20
20.7566
 11
-81.6489
 21
20.1594
  0
LINE
  8
0
 10
-81.6489
 20
20.1594
 11
-81.3815
 21
19.5912
  0
LINE
  8
0
 10
-81.3815
 20
19.5912
 11
-81.0451
 21
19.0611
  0
LINE
  8
0
 10
-81.0451
 20
19.0611
 11
-80.6448
 21
18.5773
  0
LINE
  8
0
 10
-80.6448
 20
18.5773
 11
-80.1871
 21
18.1474
  0
LINE
  8
0
 10
-80.1871
 20
18.1474
 11
-79.6791
 21
17.7784
  0
LINE
  8
0
 10
-79.6791
 20
17.7784
 11
-79.1289
 21
17.4759
  0
LINE
  8
0
 10
-79.1289
 20
17.4759
 11
-78.5451
 21
17.2447
  0
LINE
  8
0
 10
-78.5451
 20
17.2447
 11
-77.9369
 21
17.0886
  0
LINE
  8
0
 10
-77.9369
 20
17.0886
 11
-77.3139
 21
17.0099
  0
LINE
  8
0
 10
-77.3139
 20
17.0099
 11
77.3139
 21
17.0099
  0
LINE
  8
0
 10
77.3139
 20
17.0099
 11
77.9369
 21
17.0886
  0
LINE
  8
0
 10
74.8116
 20
21.0059
 11
74.4379
 21
21.0531
  0
LINE
  8
0
 10
74.4379
 20
21.0531
 11
74.073
 21
21.1468
  0
LINE
  8
0
 10
74.073
 20
21.1468
 11
73.7227
 21
21.2855
  0
LINE
  8
0
 10
73.7227
 20
21.2855
 11
73.3925
 21
21.467
  0
LINE
  8
0
 10
73.3925
 20
21.467
 11
73.0877
 21
21.6885
  0
LINE
  8
0
 10
73.0877
 20
21.6885
 11
72.8131
 21
21.9464
  0
LINE
  8
0
 10
72.8131
 20
21.9464
 11
72.573
 21
22.2366
  0
LINE
  8
0
 10
72.573
 20
22.2366
 11
72.3711
 21
22.5547
  0
LINE
  8
0
 10
72.3711
 20
22.5547
 11
72.2107
 21
22.8956
  0
LINE
  8
0
 10
72.2107
 20
22.8956
 11
72.0943
 21
23.2539
  0
LINE
  8
0
 10
72.0943
 20
23.2539
 11
72.0237
 21
23.624
  0
LINE
  8
0
 10
72.0237
 20
23.624
 11
72
 21
24
  0
LINE
  8
0
 10
72
 20
24
 11
72.0237
 21
24.376
  0
LINE
  8
0
 10
72.0237
 20
24.376
 11
72.0943
 21
24.7461
  0
LINE
  8
0
 10
72.0943
 20
24.7461
 11
72.2107
 21
25.1044
  0
LINE
  8
0
 10
72.2107
 20
25.1044
 11
72.3711
 21
25.4453
  0
LINE
  8
0
 10
72.3711
 20
25.4453
 11
72.573
 21
25.7634
  0
LINE
  8
0
 10
72.573
 20
25.7634
 11
72.8131
 21
26.0536
  0
LINE
  8
0
 10
72.8131
 20
26.0536
 11
73.0877
 21
26.3115
  0
LINE
  8
0
 10
73.0877
 20
26.3115
 11
73.3925
 21
26.533
  0
LINE
  8
0
 10
73.3925
 20
26.533
 11
73.7227
 21
26.7145
  0
LINE
  8
0
 10
73.7227
 20
26.7145
 11
74.073
 21
26.8532
  0
LINE
  8
0
 10
74.073
 20
26.8532
 11
74.4379
 21
26.9469
  0
LINE
  8
0
 10
74.4379
 20
26.9469
 11
74.8116
 21
26.9941
  0
LINE
  8
0
 10
74.8116
 20
26.9941
 11
75.1884
 21
26.9941
  0
LINE
  8
0
 10
75.1884
 20
26.9941
 11
75.5621
 21
26.9469
  0
LINE
  8
0
 10
75.5621
 20
26.9469
 11
75.927
 21
26.8532
  0
LINE
  8
0
 10
75.927
 20
26.8532
 11
76.2773
 21
26.7145
  0
LINE
  8
0
 10
76.2773
 20
26.7145
 11
76.6075
 21
26.533
  0
LINE
  8
0
 10
76.6075
 20
26.533
 11
76.9123
 21
26.3115
  0
LINE
  8
0
 10
76.9123
 20
26.3115
 11
77.1869
 21
26.0536
  0
LINE
  8
0
 10
77.1869
 20
26.0536
 11
77.427
 21
25.7634
  0
LINE
  8
0
 10
77.427
 20
25.7634
 11
77.6289
 21
25.4453
  0
LINE
  8
0
 10
77.6289
 20
25.4453
 11
77.7893
 21
25.1044
  0
LINE
  8
0
 10
77.7893
 20
25.1044
 11
77.9057
 21
24.7461
  0
LINE
  8
0
 10
77.9057
 20
24.7461
 11
77.9763
 21
24.376
  0
LINE
  8
0
 10
77.9763
 20
24.376
 11
78
 21
24
  0
LINE
  8
0
 10
78
 20
24
 11
77.9763
 21
23.624
  0
LINE
  8
0
 10
77.9763
 20
23.624
 11
77.9057
 21
23.2539
  0
LINE
  8
0
 10
77.9057
 20
23.2539
 11
77.7893
 21
22.8956
  0
LINE
  8
0
 10
77.7893
 20
22.8956
 11
77.6289
 21
22.5547
  0
LINE
  8
0
 10
77.6289
 20
22.5547
 11
77.427
 21
22.2366
  0
LINE
  8
0
 10
77.427
 20
22.2366
 11
77.1869
 21
21.9464
  0
LINE
  8
0
 10
77.1869
 20
21.9464
 11
76.9123
 21
21.6885
  0
LINE
  8
0
 10
76.9123
 20
21.6885
 11
76.6075
 21
21.467
  0
LINE
  8
0
 10
76.6075
 20
21.467
 11
76.2773
 21
21.2855
  0
LINE
  8
0
 10
76.2773
 20
21.2855
 11
75.927
 21
21.1468
  0
LINE
  8
0
 10
75.927
 20
21.1468
 11
75.5621
 21
21.0531
  0
LINE
  8
0
 10
75.5621
 20
21.0531
 11
75.1884
 21
21.0059
  0
LINE
  8
0
 10
75.1884
 20
21.0059
 11
74.8116
 21
21.0059
  0
LINE
  8
0
 10
-75.1884
 20
21.0059
 11
-75.5621
 21
21.0531
  0
LINE
  8
0
 10
-75.5621
 20
21.0531
 11
-75.927
 21
21.1468
  0
LINE
  8
0
 10
-75.927
 20
21.1468
 11
-76.2773
 21
21.2855
  0
LINE
  8
0
 10
-76.2773
 20
21.2855
 11
-76.6075
 21
21.467
  0
LINE
  8
0
 10
-76.6075
 20
21.467
 11
-76.9123
 21
21.6885
  0
LINE
  8
0
 10
-76.9123
 20
21.6885
 11
-77.1869
 21
21.9464
  0
LINE
  8
0
 10
-77.1869
 20
21.9464
 11
-77.427
 21
22.2366
  0
LINE
  8
0
 10
-77.427
 20
22.2366
 11
-77.6289
 21
22.5547
  0
LINE
  8
0
 10
-77.6289
 20
22.5547
 11
-77.7893
 21
22.8956
  0
LINE
  8
0
 10
-77.7893
 20
22.8956
 11
-77.9057
 21
23.2539
  0
LINE
  8
0
 10
-77.9057
 20
23.2539
 11
-77.9763
 21
23.624
  0
LINE
  8
0
 10
-77.9763
 20
23.624
 11
-78
 21
24
  0
LINE
  8
0
 10
-78
 20
24
 11
-77.9763
 21
24.376
  0
LINE
  8
0
 10
-77.9763
 20
24.376
 11
-77.9057
 21
24.7461
  0
LINE
  8
0
 10
-77.9057
 20
24.7461
 11
-77.7893
 21
25.1044
  0
LINE
  8
0
 10
-77.7893
 20
25.1044
 11
-77.6289
 21
25.4453
  0
LINE
  8
0
 10
-77.6289
 20
25.4453
 11
-77.427
 21
25.7634
  0
LINE
  8
0
 10
-77.427
 20
25.7634
 11
-77.1869
 21
26.0536
  0
LINE
  8
0
 10
-77.1869
 20
26.0536
 11
-76.9123
 21
26.3115
  0
LINE
  8
0
 10
-76.9123
 20
26.3115
 11
-76.6075
 21
26.533
  0
LINE
  8
0
 10
-76.6075
 20
26.533
 11
-76.2773
 21
26.7145
  0
LINE
  8
0
 10
-76.2773
 20
26.7145
 11
-75.927
 21
26.8532
  0
LINE
  8
0
 10
-75.927
 20
26.8532
 11
-75.5621
 21
26.9469
  0
LINE
  8
0
 10
-75.5621
 20
26.9469
 11
-75.1884
 21
26.9941
  0
LINE
  8
0
 10
-75.1884
 20
26.9941
 11
-74.8116
 21
26.9941
  0
LINE
  8
0
 10
-74.8116
 20
26.9941
 11
-74.4379
 21
26.9469
  0
LINE
  8
0
 10
-74.4379
 20
26.9469
 11
-74.073
 21
26.8532
  0
LINE
  8
0
 10
-74.073
 20
26.8532
 11
-73.7227
 21
26.7145
  0
LINE
  8
0
 10
-73.7227
 20
26.7145
 11
-73.3925
 21
26.533
  0
LINE
  8
0
 10
-73.3925
 20
26.533
 11
-73.0877
 21
26.3115
  0
LINE
  8
0
 10
-73.0877
 20
26.3115
 11
-72.8131
 21
26.0536
  0
LINE
  8
0
 10
-72.8131
 20
26.0536
 11
-72.573
 21
25.7634
  0
LINE
  8
0
 10
-72.573
 20
25.7634
 11
-72.3711
 21
25.4453
  0
LINE
  8
0
 10
-72.3711
 20
25.4453
 11
-72.2107
 21
25.1044
  0
LINE
  8
0
 10
-72.2107
 20
25.1044
 11
-72.0943
 21
24.7461
  0
LINE
  8
0
 10
-72.0943
 20
24.7461
 11
-72.0237
 21
24.376
  0
LINE
  8
0
 10
-72.0237
 20
24.376
 11
-72
 21
24
  0
LINE
  8
0
 10
-72
 20
24
 11
-72.0237
 21
23.624
  0
LINE
  8
0
 10
-72.0237
 20
23.624
 11
-72.0943
 21
23.2539
  0
LINE
  8
0
 10
-72.0943
 20
23.2539
 11
-72.2107
 21
22.8956
  0
LINE
  8
0
 10
-72.2107
 20
22.8956
 11
-72.3711
 21
22.5547
  0
LINE
  8
0
 10
-72.3711
 20
22.5547
 11
-72.573
 21
22.2366
  0
LINE
  8
0
 10
-72.573
 20
22.2366
 11
-72.8131
 21
21.9464
  0
LINE
  8
0
 10
-72.8131
 20
21.9464
 11
-73.0877
 21
21.6885
  0
LINE
  8
0
 10
-73.0877
 20
21.6885
 11
-73.3925
 21
21.467
  0
LINE
  8
0
 10
-73.3925
 20
21.467
 11
-73.7227
 21
21.2855
  0
LINE
  8
0
 10
-73.7227
 20
21.2855
 11
-74.073
 21
21.1468
  0
LINE
  8
0
 10
-74.073
 20
21.1468
 11
-74.4379
 21
21.0531
  0
LINE
  8
0
 10
-74.4379
 20
21.0531
 11
-74.8116
 21
21.0059
  0
LINE
  8
0
 10
-74.8116
 20
21.0059
 11
-75.1884
 21
21.0059
  0
ENDSEC
  0
SECTION
  2
OBJECTS
  0
DICTIONARY
  0
ENDSEC
  0
EOF
