  0
SECTION
  2
BLOCKS
  0
ENDSEC
  0
SECTION
  2
ENTITIES
  0
LINE
  8
0
 10
40.4369
 20
32.0886
 11
41.0451
 21
32.2447
  0
LINE
  8
0
 10
41.0451
 20
32.2447
 11
41.6289
 21
32.4759
  0
LINE
  8
0
 10
41.6289
 20
32.4759
 11
42.1791
 21
32.7784
  0
LINE
  8
0
 10
42.1791
 20
32.7784
 11
42.6871
 21
33.1474
  0
LINE
  8
0
 10
42.6871
 20
33.1474
 11
43.1448
 21
33.5773
  0
LINE
  8
0
 10
43.1448
 20
33.5773
 11
43.5451
 21
34.0611
  0
LINE
  8
0
 10
43.5451
 20
34.0611
 11
43.8815
 21
34.5912
  0
LINE
  8
0
 10
43.8815
 20
34.5912
 11
44.1489
 21
35.1594
  0
LINE
  8
0
 10
44.1489
 20
35.1594
 11
44.3429
 21
35.7566
  0
LINE
  8
0
 10
44.3429
 20
35.7566
 11
44.4606
 21
36.3733
  0
LINE
  8
0
 10
44.4606
 20
36.3733
 11
44.5
 21
37
  0
LINE
  8
0
 10
44.5
 20
37
 11
44.5
 21
71
  0
LINE
  8
0
 10
44.5
 20
71
 11
44.4606
 21
71.6267
  0
LINE
  8
0
 10
44.4606
 20
71.6267
 11
44.3429
 21
72.2434
  0
LINE
  8
0
 10
44.3429
 20
72.2434
 11
44.1489
 21
72.8406
  0
LINE
  8
0
 10
44.1489
 20
72.8406
 11
43.8815
 21
73.4088
  0
LINE
  8
0
 10
43.8815
 20
73.4088
 11
43.5451
 21
73.9389
  0
LINE
  8
0
 10
43.5451
 20
73.9389
 11
43.1448
 21
74.4227
  0
LINE
  8
0
 10
43.1448
 20
74.4227
 11
42.6871
 21
74.8526
  0
LINE
  8
0
 10
42.6871
 20
74.8526
 11
42.1791
 21
75.2216
  0
LINE
  8
0
 10
42.1791
 20
75.2216
 11
41.6289
 21
75.5241
  0
LINE
  8
0
 10
41.6289
 20
75.5241
 11
41.0451
 21
75.7553
  0
LINE
  8
0
 10
41.0451
 20
75.7553
 11
40.4369
 21
75.9114
  0
LINE
  8
0
 10
40.4369
 20
75.9114
 11
39.8139
 21
75.9901
  0
LINE
  8
0
 10
39.8139
 20
75.9901
 11
-39.8139
 21
75.9901
  0
LINE
  8
0
 10
-39.8139
 20
75.9901
 11
-40.4369
 21
75.9114
  0
LINE
  8
0
 10
-40.4369
 20
75.9114
 11
-41.0451
 21
75.7553
  0
LINE
  8
0
 10
-41.0451
 20
75.7553
 11
-41.6289
 21
75.5241
  0
LINE
  8
0
 10
-41.6289
 20
75.5241
 11
-42.1791
 21
75.2216
  0
LINE
  8
0
 10
-42.1791
 20
75.2216
 11
-42.6871
 21
74.8526
  0
LINE
  8
0
 10
-42.6871
 20
74.8526
 11
-43.1448
 21
74.4227
  0
LINE
  8
0
 10
-43.1448
 20
74.4227
 11
-43.5451
 21
73.9389
  0
LINE
  8
0
 10
-43.5451
 20
73.9389
 11
-43.8815
 21
73.4088
  0
LINE
  8
0
 10
-43.8815
 20
73.4088
 11
-44.1489
 21
72.8406
  0
LINE
  8
0
 10
-44.1489
 20
72.8406
 11
-44.3429
 21
72.2434
  0
LINE
  8
0
 10
-44.3429
 20
72.2434
 11
-44.4606
 21
71.6267
  0
LINE
  8
0
 10
-44.4606
 20
71.6267
 11
-44.5
 21
71
  0
LINE
  8
0
 10
-44.5
 20
71
 11
-44.5
 21
37
  0
LINE
  8
0
 10
-44.5
 20
37
 11
-44.4606
 21
36.3733
  0
LINE
  8
0
 10
-44.4606
 20
36.3733
 11
-44.3429
 21
35.7566
  0
LINE
  8
0
 10
-44.3429
 20
35.7566
 11
-44.1489
 21
35.1594
  0
LINE
  8
0
 10
-44.1489
 20
35.1594
 11
-43.8815
 21
34.5912
  0
LINE
  8
0
 10
-43.8815
 20
34.5912
 11
-43.5451
 21
34.0611
  0
LINE
  8
0
 10
-43.5451
 20
34.0611
 11
-43.1448
 21
33.5773
  0
LINE
  8
0
 10
-43.1448
 20
33.5773
 11
-42.6871
 21
33.1474
  0
LINE
  8
0
 10
-42.6871
 20
33.1474
 11
-42.1791
 21
32.7784
  0
LINE
  8
0
 10
-42.1791
 20
32.7784
 11
-41.6289
 21
32.4759
  0
LINE
  8
0
 10
-41.6289
 20
32.4759
 11
-41.0451
 21
32.2447
  0
LINE
  8
0
 10
-41.0451
 20
32.2447
 11
-40.4369
 21
32.0886
  0
LINE
  8
0
 10
-40.4369
 20
32.0886
 11
-39.8139
 21
32.0099
  0
LINE
  8
0
 10
-39.8139
 20
32.0099
 11
39.8139
 21
32.0099
  0
LINE
  8
0
 10
39.8139
 20
32.0099
 11
40.4369
 21
32.0886
  0
LINE
  8
0
 10
37.4058
 20
67.5029
 11
37.2189
 21
67.5266
  0
LINE
  8
0
 10
37.2189
 20
67.5266
 11
37.0365
 21
67.5734
  0
LINE
  8
0
 10
37.0365
 20
67.5734
 11
36.8613
 21
67.6427
  0
LINE
  8
0
 10
36.8613
 20
67.6427
 11
36.6963
 21
67.7335
  0
LINE
  8
0
 10
36.6963
 20
67.7335
 11
36.5439
 21
67.8442
  0
LINE
  8
0
 10
36.5439
 20
67.8442
 11
36.4065
 21
67.9732
  0
LINE
  8
0
 10
36.4065
 20
67.9732
 11
36.2865
 21
68.1183
  0
LINE
  8
0
 10
36.2865
 20
68.1183
 11
36.1855
 21
68.2774
  0
LINE
  8
0
 10
36.1855
 20
68.2774
 11
36.1053
 21
68.4478
  0
LINE
  8
0
 10
36.1053
 20
68.4478
 11
36.0471
 21
68.627
  0
LINE
  8
0
 10
36.0471
 20
68.627
 11
36.0118
 21
68.812
  0
LINE
  8
0
 10
36.0118
 20
68.812
 11
36
 21
69
  0
LINE
  8
0
 10
36
 20
69
 11
36.0118
 21
69.188
  0
LINE
  8
0
 10
36.0118
 20
69.188
 11
36.0471
 21
69.373
  0
LINE
  8
0
 10
36.0471
 20
69.373
 11
36.1053
 21
69.5522
  0
LINE
  8
0
 10
36.1053
 20
69.5522
 11
36.1855
 21
69.7226
  0
LINE
  8
0
 10
36.1855
 20
69.7226
 11
36.2865
 21
69.8817
  0
LINE
  8
0
 10
36.2865
 20
69.8817
 11
36.4065
 21
70.0268
  0
LINE
  8
0
 10
36.4065
 20
70.0268
 11
36.5439
 21
70.1558
  0
LINE
  8
0
 10
36.5439
 20
70.1558
 11
36.6963
 21
70.2665
  0
LINE
  8
0
 10
36.6963
 20
70.2665
 11
36.8613
 21
70.3572
  0
LINE
  8
0
 10
36.8613
 20
70.3572
 11
37.0365
 21
70.4266
  0
LINE
  8
0
 10
37.0365
 20
70.4266
 11
37.2189
 21
70.4734
  0
LINE
  8
0
 10
37.2189
 20
70.4734
 11
37.4058
 21
70.497
  0
LINE
  8
0
 10
37.4058
 20
70.497
 11
37.5942
 21
70.497
  0
LINE
  8
0
 10
37.5942
 20
70.497
 11
37.7811
 21
70.4734
  0
LINE
  8
0
 10
37.7811
 20
70.4734
 11
37.9635
 21
70.4266
  0
LINE
  8
0
 10
37.9635
 20
70.4266
 11
38.1387
 21
70.3572
  0
LINE
  8
0
 10
38.1387
 20
70.3572
 11
38.3037
 21
70.2665
  0
LINE
  8
0
 10
38.3037
 20
70.2665
 11
38.4561
 21
70.1558
  0
LINE
  8
0
 10
38.4561
 20
70.1558
 11
38.5934
 21
70.0268
  0
LINE
  8
0
 10
38.5934
 20
70.0268
 11
38.7135
 21
69.8817
  0
LINE
  8
0
 10
38.7135
 20
69.8817
 11
38.8145
 21
69.7226
  0
LINE
  8
0
 10
38.8145
 20
69.7226
 11
38.8947
 21
69.5522
  0
LINE
  8
0
 10
38.8947
 20
69.5522
 11
38.9529
 21
69.373
  0
LINE
  8
0
 10
38.9529
 20
69.373
 11
38.9882
 21
69.188
  0
LINE
  8
0
 10
38.9882
 20
69.188
 11
39
 21
69
  0
LINE
  8
0
 10
39
 20
69
 11
38.9882
 21
68.812
  0
LINE
  8
0
 10
38.9882
 20
68.812
 11
38.9529
 21
68.627
  0
LINE
  8
0
 10
38.9529
 20
68.627
 11
38.8947
 21
68.4478
  0
LINE
  8
0
 10
38.8947
 20
68.4478
 11
38.8145
 21
68.2774
  0
LINE
  8
0
 10
38.8145
 20
68.2774
 11
38.7135
 21
68.1183
  0
LINE
  8
0
 10
38.7135
 20
68.1183
 11
38.5934
 21
67.9732
  0
LINE
  8
0
 10
38.5934
 20
67.9732
 11
38.4561
 21
67.8442
  0
LINE
  8
0
 10
38.4561
 20
67.8442
 11
38.3037
 21
67.7335
  0
LINE
  8
0
 10
38.3037
 20
67.7335
 11
38.1387
 21
67.6427
  0
LINE
  8
0
 10
38.1387
 20
67.6427
 11
37.9635
 21
67.5734
  0
LINE
  8
0
 10
37.9635
 20
67.5734
 11
37.7811
 21
67.5266
  0
LINE
  8
0
 10
37.7811
 20
67.5266
 11
37.5942
 21
67.5029
  0
LINE
  8
0
 10
37.5942
 20
67.5029
 11
37.4058
 21
67.5029
  0
LINE
  8
0
 10
29.9058
 20
67.5029
 11
29.7189
 21
67.5266
  0
LINE
  8
0
 10
29.7189
 20
67.5266
 11
29.5365
 21
67.5734
  0
LINE
  8
0
 10
29.5365
 20
67.5734
 11
29.3613
 21
67.6427
  0
LINE
  8
0
 10
29.3613
 20
67.6427
 11
29.1963
 21
67.7335
  0
LINE
  8
0
 10
29.1963
 20
67.7335
 11
29.0439
 21
67.8442
  0
LINE
  8
0
 10
29.0439
 20
67.8442
 11
28.9065
 21
67.9732
  0
LINE
  8
0
 10
28.9065
 20
67.9732
 11
28.7865
 21
68.1183
  0
LINE
  8
0
 10
28.7865
 20
68.1183
 11
28.6855
 21
68.2774
  0
LINE
  8
0
 10
28.6855
 20
68.2774
 11
28.6053
 21
68.4478
  0
LINE
  8
0
 10
28.6053
 20
68.4478
 11
28.5471
 21
68.627
  0
LINE
  8
0
 10
28.5471
 20
68.627
 11
28.5118
 21
68.812
  0
LINE
  8
0
 10
28.5118
 20
68.812
 11
28.5
 21
69
  0
LINE
  8
0
 10
28.5
 20
69
 11
28.5118
 21
69.188
  0
LINE
  8
0
 10
28.5118
 20
69.188
 11
28.5471
 21
69.373
  0
LINE
  8
0
 10
28.5471
 20
69.373
 11
28.6053
 21
69.5522
  0
LINE
  8
0
 10
28.6053
 20
69.5522
 11
28.6855
 21
69.7226
  0
LINE
  8
0
 10
28.6855
 20
69.7226
 11
28.7865
 21
69.8817
  0
LINE
  8
0
 10
28.7865
 20
69.8817
 11
28.9065
 21
70.0268
  0
LINE
  8
0
 10
28.9065
 20
70.0268
 11
29.0439
 21
70.1558
  0
LINE
  8
0
 10
29.0439
 20
70.1558
 11
29.1963
 21
70.2665
  0
LINE
  8
0
 10
29.1963
 20
70.2665
 11
29.3613
 21
70.3572
  0
LINE
  8
0
 10
29.3613
 20
70.3572
 11
29.5365
 21
70.4266
  0
LINE
  8
0
 10
29.5365
 20
70.4266
 11
29.7189
 21
70.4734
  0
LINE
  8
0
 10
29.7189
 20
70.4734
 11
29.9058
 21
70.497
  0
LINE
  8
0
 10
29.9058
 20
70.497
 11
30.0942
 21
70.497
  0
LINE
  8
0
 10
30.0942
 20
70.497
 11
30.2811
 21
70.4734
  0
LINE
  8
0
 10
30.2811
 20
70.4734
 11
30.4635
 21
70.4266
  0
LINE
  8
0
 10
30.4635
 20
70.4266
 11
30.6387
 21
70.3572
  0
LINE
  8
0
 10
30.6387
 20
70.3572
 11
30.8037
 21
70.2665
  0
LINE
  8
0
 10
30.8037
 20
70.2665
 11
30.9561
 21
70.1558
  0
LINE
  8
0
 10
30.9561
 20
70.1558
 11
31.0934
 21
70.0268
  0
LINE
  8
0
 10
31.0934
 20
70.0268
 11
31.2135
 21
69.8817
  0
LINE
  8
0
 10
31.2135
 20
69.8817
 11
31.3145
 21
69.7226
  0
LINE
  8
0
 10
31.3145
 20
69.7226
 11
31.3947
 21
69.5522
  0
LINE
  8
0
 10
31.3947
 20
69.5522
 11
31.4529
 21
69.373
  0
LINE
  8
0
 10
31.4529
 20
69.373
 11
31.4882
 21
69.188
  0
LINE
  8
0
 10
31.4882
 20
69.188
 11
31.5
 21
69
  0
LINE
  8
0
 10
31.5
 20
69
 11
31.4882
 21
68.812
  0
LINE
  8
0
 10
31.4882
 20
68.812
 11
31.4529
 21
68.627
  0
LINE
  8
0
 10
31.4529
 20
68.627
 11
31.3947
 21
68.4478
  0
LINE
  8
0
 10
31.3947
 20
68.4478
 11
31.3145
 21
68.2774
  0
LINE
  8
0
 10
31.3145
 20
68.2774
 11
31.2135
 21
68.1183
  0
LINE
  8
0
 10
31.2135
 20
68.1183
 11
31.0934
 21
67.9732
  0
LINE
  8
0
 10
31.0934
 20
67.9732
 11
30.9561
 21
67.8442
  0
LINE
  8
0
 10
30.9561
 20
67.8442
 11
30.8037
 21
67.7335
  0
LINE
  8
0
 10
30.8037
 20
67.7335
 11
30.6387
 21
67.6427
  0
LINE
  8
0
 10
30.6387
 20
67.6427
 11
30.4635
 21
67.5734
  0
LINE
  8
0
 10
30.4635
 20
67.5734
 11
30.2811
 21
67.5266
  0
LINE
  8
0
 10
30.2811
 20
67.5266
 11
30.0942
 21
67.5029
  0
LINE
  8
0
 10
30.0942
 20
67.5029
 11
29.9058
 21
67.5029
  0
LINE
  8
0
 10
14.9058
 20
67.5029
 11
14.7189
 21
67.5266
  0
LINE
  8
0
 10
14.7189
 20
67.5266
 11
14.5365
 21
67.5734
  0
LINE
  8
0
 10
14.5365
 20
67.5734
 11
14.3613
 21
67.6427
  0
LINE
  8
0
 10
14.3613
 20
67.6427
 11
14.1963
 21
67.7335
  0
LINE
  8
0
 10
14.1963
 20
67.7335
 11
14.0439
 21
67.8442
  0
LINE
  8
0
 10
14.0439
 20
67.8442
 11
13.9065
 21
67.9732
  0
LINE
  8
0
 10
13.9065
 20
67.9732
 11
13.7865
 21
68.1183
  0
LINE
  8
0
 10
13.7865
 20
68.1183
 11
13.6855
 21
68.2774
  0
LINE
  8
0
 10
13.6855
 20
68.2774
 11
13.6053
 21
68.4478
  0
LINE
  8
0
 10
13.6053
 20
68.4478
 11
13.5471
 21
68.627
  0
LINE
  8
0
 10
13.5471
 20
68.627
 11
13.5118
 21
68.812
  0
LINE
  8
0
 10
13.5118
 20
68.812
 11
13.5
 21
69
  0
LINE
  8
0
 10
13.5
 20
69
 11
13.5118
 21
69.188
  0
LINE
  8
0
 10
13.5118
 20
69.188
 11
13.5471
 21
69.373
  0
LINE
  8
0
 10
13.5471
 20
69.373
 11
13.6053
 21
69.5522
  0
LINE
  8
0
 10
13.6053
 20
69.5522
 11
13.6855
 21
69.7226
  0
LINE
  8
0
 10
13.6855
 20
69.7226
 11
13.7865
 21
69.8817
  0
LINE
  8
0
 10
13.7865
 20
69.8817
 11
13.9065
 21
70.0268
  0
LINE
  8
0
 10
13.9065
 20
70.0268
 11
14.0439
 21
70.1558
  0
LINE
  8
0
 10
14.0439
 20
70.1558
 11
14.1963
 21
70.2665
  0
LINE
  8
0
 10
14.1963
 20
70.2665
 11
14.3613
 21
70.3572
  0
LINE
  8
0
 10
14.3613
 20
70.3572
 11
14.5365
 21
70.4266
  0
LINE
  8
0
 10
14.5365
 20
70.4266
 11
14.7189
 21
70.4734
  0
LINE
  8
0
 10
14.7189
 20
70.4734
 11
14.9058
 21
70.497
  0
LINE
  8
0
 10
14.9058
 20
70.497
 11
15.0942
 21
70.497
  0
LINE
  8
0
 10
15.0942
 20
70.497
 11
15.2811
 21
70.4734
  0
LINE
  8
0
 10
15.2811
 20
70.4734
 11
15.4635
 21
70.4266
  0
LINE
  8
0
 10
15.4635
 20
70.4266
 11
15.6387
 21
70.3572
  0
LINE
  8
0
 10
15.6387
 20
70.3572
 11
15.8037
 21
70.2665
  0
LINE
  8
0
 10
15.8037
 20
70.2665
 11
15.9561
 21
70.1558
  0
LINE
  8
0
 10
15.9561
 20
70.1558
 11
16.0934
 21
70.0268
  0
LINE
  8
0
 10
16.0934
 20
70.0268
 11
16.2135
 21
69.8817
  0
LINE
  8
0
 10
16.2135
 20
69.8817
 11
16.3145
 21
69.7226
  0
LINE
  8
0
 10
16.3145
 20
69.7226
 11
16.3947
 21
69.5522
  0
LINE
  8
0
 10
16.3947
 20
69.5522
 11
16.4529
 21
69.373
  0
LINE
  8
0
 10
16.4529
 20
69.373
 11
16.4882
 21
69.188
  0
LINE
  8
0
 10
16.4882
 20
69.188
 11
16.5
 21
69
  0
LINE
  8
0
 10
16.5
 20
69
 11
16.4882
 21
68.812
  0
LINE
  8
0
 10
16.4882
 20
68.812
 11
16.4529
 21
68.627
  0
LINE
  8
0
 10
16.4529
 20
68.627
 11
16.3947
 21
68.4478
  0
LINE
  8
0
 10
16.3947
 20
68.4478
 11
16.3145
 21
68.2774
  0
LINE
  8
0
 10
16.3145
 20
68.2774
 11
16.2135
 21
68.1183
  0
LINE
  8
0
 10
16.2135
 20
68.1183
 11
16.0934
 21
67.9732
  0
LINE
  8
0
 10
16.0934
 20
67.9732
 11
15.9561
 21
67.8442
  0
LINE
  8
0
 10
15.9561
 20
67.8442
 11
15.8037
 21
67.7335
  0
LINE
  8
0
 10
15.8037
 20
67.7335
 11
15.6387
 21
67.6427
  0
LINE
  8
0
 10
15.6387
 20
67.6427
 11
15.4635
 21
67.5734
  0
LINE
  8
0
 10
15.4635
 20
67.5734
 11
15.2811
 21
67.5266
  0
LINE
  8
0
 10
15.2811
 20
67.5266
 11
15.0942
 21
67.5029
  0
LINE
  8
0
 10
15.0942
 20
67.5029
 11
14.9058
 21
67.5029
  0
LINE
  8
0
 10
-7.59418
 20
67.5029
 11
-7.78107
 21
67.5266
  0
LINE
  8
0
 10
-7.78107
 20
67.5266
 11
-7.96352
 21
67.5734
  0
LINE
  8
0
 10
-7.96352
 20
67.5734
 11
-8.13866
 21
67.6427
  0
LINE
  8
0
 10
-8.13866
 20
67.6427
 11
-8.30373
 21
67.7335
  0
LINE
  8
0
 10
-8.30373
 20
67.7335
 11
-8.45613
 21
67.8442
  0
LINE
  8
0
 10
-8.45613
 20
67.8442
 11
-8.59344
 21
67.9732
  0
LINE
  8
0
 10
-8.59344
 20
67.9732
 11
-8.71352
 21
68.1183
  0
LINE
  8
0
 10
-8.71352
 20
68.1183
 11
-8.81445
 21
68.2774
  0
LINE
  8
0
 10
-8.81445
 20
68.2774
 11
-8.89465
 21
68.4478
  0
LINE
  8
0
 10
-8.89465
 20
68.4478
 11
-8.95287
 21
68.627
  0
LINE
  8
0
 10
-8.95287
 20
68.627
 11
-8.98816
 21
68.812
  0
LINE
  8
0
 10
-8.98816
 20
68.812
 11
-9
 21
69
  0
LINE
  8
0
 10
-9
 20
69
 11
-8.98816
 21
69.188
  0
LINE
  8
0
 10
-8.98816
 20
69.188
 11
-8.95287
 21
69.373
  0
LINE
  8
0
 10
-8.95287
 20
69.373
 11
-8.89465
 21
69.5522
  0
LINE
  8
0
 10
-8.89465
 20
69.5522
 11
-8.81445
 21
69.7226
  0
LINE
  8
0
 10
-8.81445
 20
69.7226
 11
-8.71352
 21
69.8817
  0
LINE
  8
0
 10
-8.71352
 20
69.8817
 11
-8.59344
 21
70.0268
  0
LINE
  8
0
 10
-8.59344
 20
70.0268
 11
-8.45613
 21
70.1558
  0
LINE
  8
0
 10
-8.45613
 20
70.1558
 11
-8.30373
 21
70.2665
  0
LINE
  8
0
 10
-8.30373
 20
70.2665
 11
-8.13866
 21
70.3572
  0
LINE
  8
0
 10
-8.13866
 20
70.3572
 11
-7.96352
 21
70.4266
  0
LINE
  8
0
 10
-7.96352
 20
70.4266
 11
-7.78107
 21
70.4734
  0
LINE
  8
0
 10
-7.78107
 20
70.4734
 11
-7.59418
 21
70.497
  0
LINE
  8
0
 10
-7.59418
 20
70.497
 11
-7.40581
 21
70.497
  0
LINE
  8
0
 10
-7.40581
 20
70.497
 11
-7.21892
 21
70.4734
  0
LINE
  8
0
 10
-7.21892
 20
70.4734
 11
-7.03647
 21
70.4266
  0
LINE
  8
0
 10
-7.03647
 20
70.4266
 11
-6.86133
 21
70.3572
  0
LINE
  8
0
 10
-6.86133
 20
70.3572
 11
-6.69626
 21
70.2665
  0
LINE
  8
0
 10
-6.69626
 20
70.2665
 11
-6.54385
 21
70.1558
  0
LINE
  8
0
 10
-6.54385
 20
70.1558
 11
-6.40654
 21
70.0268
  0
LINE
  8
0
 10
-6.40654
 20
70.0268
 11
-6.28647
 21
69.8817
  0
LINE
  8
0
 10
-6.28647
 20
69.8817
 11
-6.18553
 21
69.7226
  0
LINE
  8
0
 10
-6.18553
 20
69.7226
 11
-6.10533
 21
69.5522
  0
LINE
  8
0
 10
-6.10533
 20
69.5522
 11
-6.04712
 21
69.373
  0
LINE
  8
0
 10
-6.04712
 20
69.373
 11
-6.01183
 21
69.188
  0
LINE
  8
0
 10
-6.01183
 20
69.188
 11
-6
 21
69
  0
LINE
  8
0
 10
-6
 20
69
 11
-6.01183
 21
68.812
  0
LINE
  8
0
 10
-6.01183
 20
68.812
 11
-6.04712
 21
68.627
  0
LINE
  8
0
 10
-6.04712
 20
68.627
 11
-6.10533
 21
68.4478
  0
LINE
  8
0
 10
-6.10533
 20
68.4478
 11
-6.18553
 21
68.2774
  0
LINE
  8
0
 10
-6.18553
 20
68.2774
 11
-6.28647
 21
68.1183
  0
LINE
  8
0
 10
-6.28647
 20
68.1183
 11
-6.40654
 21
67.9732
  0
LINE
  8
0
 10
-6.40654
 20
67.9732
 11
-6.54385
 21
67.8442
  0
LINE
  8
0
 10
-6.54385
 20
67.8442
 11
-6.69626
 21
67.7335
  0
LINE
  8
0
 10
-6.69626
 20
67.7335
 11
-6.86133
 21
67.6427
  0
LINE
  8
0
 10
-6.86133
 20
67.6427
 11
-7.03647
 21
67.5734
  0
LINE
  8
0
 10
-7.03647
 20
67.5734
 11
-7.21892
 21
67.5266
  0
LINE
  8
0
 10
-7.21892
 20
67.5266
 11
-7.40581
 21
67.5029
  0
LINE
  8
0
 10
-7.40581
 20
67.5029
 11
-7.59418
 21
67.5029
  0
LINE
  8
0
 10
7.40581
 20
67.5029
 11
7.21892
 21
67.5266
  0
LINE
  8
0
 10
7.21892
 20
67.5266
 11
7.03647
 21
67.5734
  0
LINE
  8
0
 10
7.03647
 20
67.5734
 11
6.86133
 21
67.6427
  0
LINE
  8
0
 10
6.86133
 20
67.6427
 11
6.69626
 21
67.7335
  0
LINE
  8
0
 10
6.69626
 20
67.7335
 11
6.54385
 21
67.8442
  0
LINE
  8
0
 10
6.54385
 20
67.8442
 11
6.40654
 21
67.9732
  0
LINE
  8
0
 10
6.40654
 20
67.9732
 11
6.28647
 21
68.1183
  0
LINE
  8
0
 10
6.28647
 20
68.1183
 11
6.18553
 21
68.2774
  0
LINE
  8
0
 10
6.18553
 20
68.2774
 11
6.10533
 21
68.4478
  0
LINE
  8
0
 10
6.10533
 20
68.4478
 11
6.04712
 21
68.627
  0
LINE
  8
0
 10
6.04712
 20
68.627
 11
6.01183
 21
68.812
  0
LINE
  8
0
 10
6.01183
 20
68.812
 11
6
 21
69
  0
LINE
  8
0
 10
6
 20
69
 11
6.01183
 21
69.188
  0
LINE
  8
0
 10
6.01183
 20
69.188
 11
6.04712
 21
69.373
  0
LINE
  8
0
 10
6.04712
 20
69.373
 11
6.10533
 21
69.5522
  0
LINE
  8
0
 10
6.10533
 20
69.5522
 11
6.18553
 21
69.7226
  0
LINE
  8
0
 10
6.18553
 20
69.7226
 11
6.28647
 21
69.8817
  0
LINE
  8
0
 10
6.28647
 20
69.8817
 11
6.40654
 21
70.0268
  0
LINE
  8
0
 10
6.40654
 20
70.0268
 11
6.54385
 21
70.1558
  0
LINE
  8
0
 10
6.54385
 20
70.1558
 11
6.69626
 21
70.2665
  0
LINE
  8
0
 10
6.69626
 20
70.2665
 11
6.86133
 21
70.3572
  0
LINE
  8
0
 10
6.86133
 20
70.3572
 11
7.03647
 21
70.4266
  0
LINE
  8
0
 10
7.03647
 20
70.4266
 11
7.21892
 21
70.4734
  0
LINE
  8
0
 10
7.21892
 20
70.4734
 11
7.40581
 21
70.497
  0
LINE
  8
0
 10
7.40581
 20
70.497
 11
7.59418
 21
70.497
  0
LINE
  8
0
 10
7.59418
 20
70.497
 11
7.78107
 21
70.4734
  0
LINE
  8
0
 10
7.78107
 20
70.4734
 11
7.96352
 21
70.4266
  0
LINE
  8
0
 10
7.96352
 20
70.4266
 11
8.13866
 21
70.3572
  0
LINE
  8
0
 10
8.13866
 20
70.3572
 11
8.30373
 21
70.2665
  0
LINE
  8
0
 10
8.30373
 20
70.2665
 11
8.45613
 21
70.1558
  0
LINE
  8
0
 10
8.45613
 20
70.1558
 11
8.59344
 21
70.0268
  0
LINE
  8
0
 10
8.59344
 20
70.0268
 11
8.71352
 21
69.8817
  0
LINE
  8
0
 10
8.71352
 20
69.8817
 11
8.81445
 21
69.7226
  0
LINE
  8
0
 10
8.81445
 20
69.7226
 11
8.89465
 21
69.5522
  0
LINE
  8
0
 10
8.89465
 20
69.5522
 11
8.95287
 21
69.373
  0
LINE
  8
0
 10
8.95287
 20
69.373
 11
8.98816
 21
69.188
  0
LINE
  8
0
 10
8.98816
 20
69.188
 11
9
 21
69
  0
LINE
  8
0
 10
9
 20
69
 11
8.98816
 21
68.812
  0
LINE
  8
0
 10
8.98816
 20
68.812
 11
8.95287
 21
68.627
  0
LINE
  8
0
 10
8.95287
 20
68.627
 11
8.89465
 21
68.4478
  0
LINE
  8
0
 10
8.89465
 20
68.4478
 11
8.81445
 21
68.2774
  0
LINE
  8
0
 10
8.81445
 20
68.2774
 11
8.71352
 21
68.1183
  0
LINE
  8
0
 10
8.71352
 20
68.1183
 11
8.59344
 21
67.9732
  0
LINE
  8
0
 10
8.59344
 20
67.9732
 11
8.45613
 21
67.8442
  0
LINE
  8
0
 10
8.45613
 20
67.8442
 11
8.30373
 21
67.7335
  0
LINE
  8
0
 10
8.30373
 20
67.7335
 11
8.13866
 21
67.6427
  0
LINE
  8
0
 10
8.13866
 20
67.6427
 11
7.96352
 21
67.5734
  0
LINE
  8
0
 10
7.96352
 20
67.5734
 11
7.78107
 21
67.5266
  0
LINE
  8
0
 10
7.78107
 20
67.5266
 11
7.59418
 21
67.5029
  0
LINE
  8
0
 10
7.59418
 20
67.5029
 11
7.40581
 21
67.5029
  0
LINE
  8
0
 10
-22.5942
 20
67.5029
 11
-22.7811
 21
67.5266
  0
LINE
  8
0
 10
-22.7811
 20
67.5266
 11
-22.9635
 21
67.5734
  0
LINE
  8
0
 10
-22.9635
 20
67.5734
 11
-23.1387
 21
67.6427
  0
LINE
  8
0
 10
-23.1387
 20
67.6427
 11
-23.3037
 21
67.7335
  0
LINE
  8
0
 10
-23.3037
 20
67.7335
 11
-23.4561
 21
67.8442
  0
LINE
  8
0
 10
-23.4561
 20
67.8442
 11
-23.5934
 21
67.9732
  0
LINE
  8
0
 10
-23.5934
 20
67.9732
 11
-23.7135
 21
68.1183
  0
LINE
  8
0
 10
-23.7135
 20
68.1183
 11
-23.8145
 21
68.2774
  0
LINE
  8
0
 10
-23.8145
 20
68.2774
 11
-23.8947
 21
68.4478
  0
LINE
  8
0
 10
-23.8947
 20
68.4478
 11
-23.9529
 21
68.627
  0
LINE
  8
0
 10
-23.9529
 20
68.627
 11
-23.9882
 21
68.812
  0
LINE
  8
0
 10
-23.9882
 20
68.812
 11
-24
 21
69
  0
LINE
  8
0
 10
-24
 20
69
 11
-23.9882
 21
69.188
  0
LINE
  8
0
 10
-23.9882
 20
69.188
 11
-23.9529
 21
69.373
  0
LINE
  8
0
 10
-23.9529
 20
69.373
 11
-23.8947
 21
69.5522
  0
LINE
  8
0
 10
-23.8947
 20
69.5522
 11
-23.8145
 21
69.7226
  0
LINE
  8
0
 10
-23.8145
 20
69.7226
 11
-23.7135
 21
69.8817
  0
LINE
  8
0
 10
-23.7135
 20
69.8817
 11
-23.5934
 21
70.0268
  0
LINE
  8
0
 10
-23.5934
 20
70.0268
 11
-23.4561
 21
70.1558
  0
LINE
  8
0
 10
-23.4561
 20
70.1558
 11
-23.3037
 21
70.2665
  0
LINE
  8
0
 10
-23.3037
 20
70.2665
 11
-23.1387
 21
70.3572
  0
LINE
  8
0
 10
-23.1387
 20
70.3572
 11
-22.9635
 21
70.4266
  0
LINE
  8
0
 10
-22.9635
 20
70.4266
 11
-22.7811
 21
70.4734
  0
LINE
  8
0
 10
-22.7811
 20
70.4734
 11
-22.5942
 21
70.497
  0
LINE
  8
0
 10
-22.5942
 20
70.497
 11
-22.4058
 21
70.497
  0
LINE
  8
0
 10
-22.4058
 20
70.497
 11
-22.2189
 21
70.4734
  0
LINE
  8
0
 10
-22.2189
 20
70.4734
 11
-22.0365
 21
70.4266
  0
LINE
  8
0
 10
-22.0365
 20
70.4266
 11
-21.8613
 21
70.3572
  0
LINE
  8
0
 10
-21.8613
 20
70.3572
 11
-21.6963
 21
70.2665
  0
LINE
  8
0
 10
-21.6963
 20
70.2665
 11
-21.5439
 21
70.1558
  0
LINE
  8
0
 10
-21.5439
 20
70.1558
 11
-21.4065
 21
70.0268
  0
LINE
  8
0
 10
-21.4065
 20
70.0268
 11
-21.2865
 21
69.8817
  0
LINE
  8
0
 10
-21.2865
 20
69.8817
 11
-21.1855
 21
69.7226
  0
LINE
  8
0
 10
-21.1855
 20
69.7226
 11
-21.1053
 21
69.5522
  0
LINE
  8
0
 10
-21.1053
 20
69.5522
 11
-21.0471
 21
69.373
  0
LINE
  8
0
 10
-21.0471
 20
69.373
 11
-21.0118
 21
69.188
  0
LINE
  8
0
 10
-21.0118
 20
69.188
 11
-21
 21
69
  0
LINE
  8
0
 10
-21
 20
69
 11
-21.0118
 21
68.812
  0
LINE
  8
0
 10
-21.0118
 20
68.812
 11
-21.0471
 21
68.627
  0
LINE
  8
0
 10
-21.0471
 20
68.627
 11
-21.1053
 21
68.4478
  0
LINE
  8
0
 10
-21.1053
 20
68.4478
 11
-21.1855
 21
68.2774
  0
LINE
  8
0
 10
-21.1855
 20
68.2774
 11
-21.2865
 21
68.1183
  0
LINE
  8
0
 10
-21.2865
 20
68.1183
 11
-21.4065
 21
67.9732
  0
LINE
  8
0
 10
-21.4065
 20
67.9732
 11
-21.5439
 21
67.8442
  0
LINE
  8
0
 10
-21.5439
 20
67.8442
 11
-21.6963
 21
67.7335
  0
LINE
  8
0
 10
-21.6963
 20
67.7335
 11
-21.8613
 21
67.6427
  0
LINE
  8
0
 10
-21.8613
 20
67.6427
 11
-22.0365
 21
67.5734
  0
LINE
  8
0
 10
-22.0365
 20
67.5734
 11
-22.2189
 21
67.5266
  0
LINE
  8
0
 10
-22.2189
 20
67.5266
 11
-22.4058
 21
67.5029
  0
LINE
  8
0
 10
-22.4058
 20
67.5029
 11
-22.5942
 21
67.5029
  0
LINE
  8
0
 10
-30.0942
 20
67.5029
 11
-30.2811
 21
67.5266
  0
LINE
  8
0
 10
-30.2811
 20
67.5266
 11
-30.4635
 21
67.5734
  0
LINE
  8
0
 10
-30.4635
 20
67.5734
 11
-30.6387
 21
67.6427
  0
LINE
  8
0
 10
-30.6387
 20
67.6427
 11
-30.8037
 21
67.7335
  0
LINE
  8
0
 10
-30.8037
 20
67.7335
 11
-30.9561
 21
67.8442
  0
LINE
  8
0
 10
-30.9561
 20
67.8442
 11
-31.0934
 21
67.9732
  0
LINE
  8
0
 10
-31.0934
 20
67.9732
 11
-31.2135
 21
68.1183
  0
LINE
  8
0
 10
-31.2135
 20
68.1183
 11
-31.3145
 21
68.2774
  0
LINE
  8
0
 10
-31.3145
 20
68.2774
 11
-31.3947
 21
68.4478
  0
LINE
  8
0
 10
-31.3947
 20
68.4478
 11
-31.4529
 21
68.627
  0
LINE
  8
0
 10
-31.4529
 20
68.627
 11
-31.4882
 21
68.812
  0
LINE
  8
0
 10
-31.4882
 20
68.812
 11
-31.5
 21
69
  0
LINE
  8
0
 10
-31.5
 20
69
 11
-31.4882
 21
69.188
  0
LINE
  8
0
 10
-31.4882
 20
69.188
 11
-31.4529
 21
69.373
  0
LINE
  8
0
 10
-31.4529
 20
69.373
 11
-31.3947
 21
69.5522
  0
LINE
  8
0
 10
-31.3947
 20
69.5522
 11
-31.3145
 21
69.7226
  0
LINE
  8
0
 10
-31.3145
 20
69.7226
 11
-31.2135
 21
69.8817
  0
LINE
  8
0
 10
-31.2135
 20
69.8817
 11
-31.0934
 21
70.0268
  0
LINE
  8
0
 10
-31.0934
 20
70.0268
 11
-30.9561
 21
70.1558
  0
LINE
  8
0
 10
-30.9561
 20
70.1558
 11
-30.8037
 21
70.2665
  0
LINE
  8
0
 10
-30.8037
 20
70.2665
 11
-30.6387
 21
70.3572
  0
LINE
  8
0
 10
-30.6387
 20
70.3572
 11
-30.4635
 21
70.4266
  0
LINE
  8
0
 10
-30.4635
 20
70.4266
 11
-30.2811
 21
70.4734
  0
LINE
  8
0
 10
-30.2811
 20
70.4734
 11
-30.0942
 21
70.497
  0
LINE
  8
0
 10
-30.0942
 20
70.497
 11
-29.9058
 21
70.497
  0
LINE
  8
0
 10
-29.9058
 20
70.497
 11
-29.7189
 21
70.4734
  0
LINE
  8
0
 10
-29.7189
 20
70.4734
 11
-29.5365
 21
70.4266
  0
LINE
  8
0
 10
-29.5365
 20
70.4266
 11
-29.3613
 21
70.3572
  0
LINE
  8
0
 10
-29.3613
 20
70.3572
 11
-29.1963
 21
70.2665
  0
LINE
  8
0
 10
-29.1963
 20
70.2665
 11
-29.0439
 21
70.1558
  0
LINE
  8
0
 10
-29.0439
 20
70.1558
 11
-28.9065
 21
70.0268
  0
LINE
  8
0
 10
-28.9065
 20
70.0268
 11
-28.7865
 21
69.8817
  0
LINE
  8
0
 10
-28.7865
 20
69.8817
 11
-28.6855
 21
69.7226
  0
LINE
  8
0
 10
-28.6855
 20
69.7226
 11
-28.6053
 21
69.5522
  0
LINE
  8
0
 10
-28.6053
 20
69.5522
 11
-28.5471
 21
69.373
  0
LINE
  8
0
 10
-28.5471
 20
69.373
 11
-28.5118
 21
69.188
  0
LINE
  8
0
 10
-28.5118
 20
69.188
 11
-28.5
 21
69
  0
LINE
  8
0
 10
-28.5
 20
69
 11
-28.5118
 21
68.812
  0
LINE
  8
0
 10
-28.5118
 20
68.812
 11
-28.5471
 21
68.627
  0
LINE
  8
0
 10
-28.5471
 20
68.627
 11
-28.6053
 21
68.4478
  0
LINE
  8
0
 10
-28.6053
 20
68.4478
 11
-28.6855
 21
68.2774
  0
LINE
  8
0
 10
-28.6855
 20
68.2774
 11
-28.7865
 21
68.1183
  0
LINE
  8
0
 10
-28.7865
 20
68.1183
 11
-28.9065
 21
67.9732
  0
LINE
  8
0
 10
-28.9065
 20
67.9732
 11
-29.0439
 21
67.8442
  0
LINE
  8
0
 10
-29.0439
 20
67.8442
 11
-29.1963
 21
67.7335
  0
LINE
  8
0
 10
-29.1963
 20
67.7335
 11
-29.3613
 21
67.6427
  0
LINE
  8
0
 10
-29.3613
 20
67.6427
 11
-29.5365
 21
67.5734
  0
LINE
  8
0
 10
-29.5365
 20
67.5734
 11
-29.7189
 21
67.5266
  0
LINE
  8
0
 10
-29.7189
 20
67.5266
 11
-29.9058
 21
67.5029
  0
LINE
  8
0
 10
-29.9058
 20
67.5029
 11
-30.0942
 21
67.5029
  0
LINE
  8
0
 10
22.4058
 20
67.5029
 11
22.2189
 21
67.5266
  0
LINE
  8
0
 10
22.2189
 20
67.5266
 11
22.0365
 21
67.5734
  0
LINE
  8
0
 10
22.0365
 20
67.5734
 11
21.8613
 21
67.6427
  0
LINE
  8
0
 10
21.8613
 20
67.6427
 11
21.6963
 21
67.7335
  0
LINE
  8
0
 10
21.6963
 20
67.7335
 11
21.5439
 21
67.8442
  0
LINE
  8
0
 10
21.5439
 20
67.8442
 11
21.4065
 21
67.9732
  0
LINE
  8
0
 10
21.4065
 20
67.9732
 11
21.2865
 21
68.1183
  0
LINE
  8
0
 10
21.2865
 20
68.1183
 11
21.1855
 21
68.2774
  0
LINE
  8
0
 10
21.1855
 20
68.2774
 11
21.1053
 21
68.4478
  0
LINE
  8
0
 10
21.1053
 20
68.4478
 11
21.0471
 21
68.627
  0
LINE
  8
0
 10
21.0471
 20
68.627
 11
21.0118
 21
68.812
  0
LINE
  8
0
 10
21.0118
 20
68.812
 11
21
 21
69
  0
LINE
  8
0
 10
21
 20
69
 11
21.0118
 21
69.188
  0
LINE
  8
0
 10
21.0118
 20
69.188
 11
21.0471
 21
69.373
  0
LINE
  8
0
 10
21.0471
 20
69.373
 11
21.1053
 21
69.5522
  0
LINE
  8
0
 10
21.1053
 20
69.5522
 11
21.1855
 21
69.7226
  0
LINE
  8
0
 10
21.1855
 20
69.7226
 11
21.2865
 21
69.8817
  0
LINE
  8
0
 10
21.2865
 20
69.8817
 11
21.4065
 21
70.0268
  0
LINE
  8
0
 10
21.4065
 20
70.0268
 11
21.5439
 21
70.1558
  0
LINE
  8
0
 10
21.5439
 20
70.1558
 11
21.6963
 21
70.2665
  0
LINE
  8
0
 10
21.6963
 20
70.2665
 11
21.8613
 21
70.3572
  0
LINE
  8
0
 10
21.8613
 20
70.3572
 11
22.0365
 21
70.4266
  0
LINE
  8
0
 10
22.0365
 20
70.4266
 11
22.2189
 21
70.4734
  0
LINE
  8
0
 10
22.2189
 20
70.4734
 11
22.4058
 21
70.497
  0
LINE
  8
0
 10
22.4058
 20
70.497
 11
22.5942
 21
70.497
  0
LINE
  8
0
 10
22.5942
 20
70.497
 11
22.7811
 21
70.4734
  0
LINE
  8
0
 10
22.7811
 20
70.4734
 11
22.9635
 21
70.4266
  0
LINE
  8
0
 10
22.9635
 20
70.4266
 11
23.1387
 21
70.3572
  0
LINE
  8
0
 10
23.1387
 20
70.3572
 11
23.3037
 21
70.2665
  0
LINE
  8
0
 10
23.3037
 20
70.2665
 11
23.4561
 21
70.1558
  0
LINE
  8
0
 10
23.4561
 20
70.1558
 11
23.5934
 21
70.0268
  0
LINE
  8
0
 10
23.5934
 20
70.0268
 11
23.7135
 21
69.8817
  0
LINE
  8
0
 10
23.7135
 20
69.8817
 11
23.8145
 21
69.7226
  0
LINE
  8
0
 10
23.8145
 20
69.7226
 11
23.8947
 21
69.5522
  0
LINE
  8
0
 10
23.8947
 20
69.5522
 11
23.9529
 21
69.373
  0
LINE
  8
0
 10
23.9529
 20
69.373
 11
23.9882
 21
69.188
  0
LINE
  8
0
 10
23.9882
 20
69.188
 11
24
 21
69
  0
LINE
  8
0
 10
24
 20
69
 11
23.9882
 21
68.812
  0
LINE
  8
0
 10
23.9882
 20
68.812
 11
23.9529
 21
68.627
  0
LINE
  8
0
 10
23.9529
 20
68.627
 11
23.8947
 21
68.4478
  0
LINE
  8
0
 10
23.8947
 20
68.4478
 11
23.8145
 21
68.2774
  0
LINE
  8
0
 10
23.8145
 20
68.2774
 11
23.7135
 21
68.1183
  0
LINE
  8
0
 10
23.7135
 20
68.1183
 11
23.5934
 21
67.9732
  0
LINE
  8
0
 10
23.5934
 20
67.9732
 11
23.4561
 21
67.8442
  0
LINE
  8
0
 10
23.4561
 20
67.8442
 11
23.3037
 21
67.7335
  0
LINE
  8
0
 10
23.3037
 20
67.7335
 11
23.1387
 21
67.6427
  0
LINE
  8
0
 10
23.1387
 20
67.6427
 11
22.9635
 21
67.5734
  0
LINE
  8
0
 10
22.9635
 20
67.5734
 11
22.7811
 21
67.5266
  0
LINE
  8
0
 10
22.7811
 20
67.5266
 11
22.5942
 21
67.5029
  0
LINE
  8
0
 10
22.5942
 20
67.5029
 11
22.4058
 21
67.5029
  0
LINE
  8
0
 10
-0.0941772
 20
67.5029
 11
-0.281067
 21
67.5266
  0
LINE
  8
0
 10
-0.281067
 20
67.5266
 11
-0.463516
 21
67.5734
  0
LINE
  8
0
 10
-0.463516
 20
67.5734
 11
-0.638657
 21
67.6427
  0
LINE
  8
0
 10
-0.638657
 20
67.6427
 11
-0.803726
 21
67.7335
  0
LINE
  8
0
 10
-0.803726
 20
67.7335
 11
-0.956131
 21
67.8442
  0
LINE
  8
0
 10
-0.956131
 20
67.8442
 11
-1.09344
 21
67.9732
  0
LINE
  8
0
 10
-1.09344
 20
67.9732
 11
-1.21352
 21
68.1183
  0
LINE
  8
0
 10
-1.21352
 20
68.1183
 11
-1.31445
 21
68.2774
  0
LINE
  8
0
 10
-1.31445
 20
68.2774
 11
-1.39465
 21
68.4478
  0
LINE
  8
0
 10
-1.39465
 20
68.4478
 11
-1.45287
 21
68.627
  0
LINE
  8
0
 10
-1.45287
 20
68.627
 11
-1.48816
 21
68.812
  0
LINE
  8
0
 10
-1.48816
 20
68.812
 11
-1.5
 21
69
  0
LINE
  8
0
 10
-1.5
 20
69
 11
-1.48816
 21
69.188
  0
LINE
  8
0
 10
-1.48816
 20
69.188
 11
-1.45287
 21
69.373
  0
LINE
  8
0
 10
-1.45287
 20
69.373
 11
-1.39465
 21
69.5522
  0
LINE
  8
0
 10
-1.39465
 20
69.5522
 11
-1.31445
 21
69.7226
  0
LINE
  8
0
 10
-1.31445
 20
69.7226
 11
-1.21352
 21
69.8817
  0
LINE
  8
0
 10
-1.21352
 20
69.8817
 11
-1.09344
 21
70.0268
  0
LINE
  8
0
 10
-1.09344
 20
70.0268
 11
-0.956131
 21
70.1558
  0
LINE
  8
0
 10
-0.956131
 20
70.1558
 11
-0.803726
 21
70.2665
  0
LINE
  8
0
 10
-0.803726
 20
70.2665
 11
-0.638657
 21
70.3572
  0
LINE
  8
0
 10
-0.638657
 20
70.3572
 11
-0.463516
 21
70.4266
  0
LINE
  8
0
 10
-0.463516
 20
70.4266
 11
-0.281067
 21
70.4734
  0
LINE
  8
0
 10
-0.281067
 20
70.4734
 11
-0.0941772
 21
70.497
  0
LINE
  8
0
 10
-0.0941772
 20
70.497
 11
0.0941772
 21
70.497
  0
LINE
  8
0
 10
0.0941772
 20
70.497
 11
0.281067
 21
70.4734
  0
LINE
  8
0
 10
0.281067
 20
70.4734
 11
0.463516
 21
70.4266
  0
LINE
  8
0
 10
0.463516
 20
70.4266
 11
0.638657
 21
70.3572
  0
LINE
  8
0
 10
0.638657
 20
70.3572
 11
0.803726
 21
70.2665
  0
LINE
  8
0
 10
0.803726
 20
70.2665
 11
0.956131
 21
70.1558
  0
LINE
  8
0
 10
0.956131
 20
70.1558
 11
1.09344
 21
70.0268
  0
LINE
  8
0
 10
1.09344
 20
70.0268
 11
1.21352
 21
69.8817
  0
LINE
  8
0
 10
1.21352
 20
69.8817
 11
1.31445
 21
69.7226
  0
LINE
  8
0
 10
1.31445
 20
69.7226
 11
1.39465
 21
69.5522
  0
LINE
  8
0
 10
1.39465
 20
69.5522
 11
1.45287
 21
69.373
  0
LINE
  8
0
 10
1.45287
 20
69.373
 11
1.48816
 21
69.188
  0
LINE
  8
0
 10
1.48816
 20
69.188
 11
1.5
 21
69
  0
LINE
  8
0
 10
1.5
 20
69
 11
1.48816
 21
68.812
  0
LINE
  8
0
 10
1.48816
 20
68.812
 11
1.45287
 21
68.627
  0
LINE
  8
0
 10
1.45287
 20
68.627
 11
1.39465
 21
68.4478
  0
LINE
  8
0
 10
1.39465
 20
68.4478
 11
1.31445
 21
68.2774
  0
LINE
  8
0
 10
1.31445
 20
68.2774
 11
1.21352
 21
68.1183
  0
LINE
  8
0
 10
1.21352
 20
68.1183
 11
1.09344
 21
67.9732
  0
LINE
  8
0
 10
1.09344
 20
67.9732
 11
0.956131
 21
67.8442
  0
LINE
  8
0
 10
0.956131
 20
67.8442
 11
0.803726
 21
67.7335
  0
LINE
  8
0
 10
0.803726
 20
67.7335
 11
0.638657
 21
67.6427
  0
LINE
  8
0
 10
0.638657
 20
67.6427
 11
0.463516
 21
67.5734
  0
LINE
  8
0
 10
0.463516
 20
67.5734
 11
0.281067
 21
67.5266
  0
LINE
  8
0
 10
0.281067
 20
67.5266
 11
0.0941772
 21
67.5029
  0
LINE
  8
0
 10
0.0941772
 20
67.5029
 11
-0.0941772
 21
67.5029
  0
LINE
  8
0
 10
-15.0942
 20
67.5029
 11
-15.2811
 21
67.5266
  0
LINE
  8
0
 10
-15.2811
 20
67.5266
 11
-15.4635
 21
67.5734
  0
LINE
  8
0
 10
-15.4635
 20
67.5734
 11
-15.6387
 21
67.6427
  0
LINE
  8
0
 10
-15.6387
 20
67.6427
 11
-15.8037
 21
67.7335
  0
LINE
  8
0
 10
-15.8037
 20
67.7335
 11
-15.9561
 21
67.8442
  0
LINE
  8
0
 10
-15.9561
 20
67.8442
 11
-16.0934
 21
67.9732
  0
LINE
  8
0
 10
-16.0934
 20
67.9732
 11
-16.2135
 21
68.1183
  0
LINE
  8
0
 10
-16.2135
 20
68.1183
 11
-16.3145
 21
68.2774
  0
LINE
  8
0
 10
-16.3145
 20
68.2774
 11
-16.3947
 21
68.4478
  0
LINE
  8
0
 10
-16.3947
 20
68.4478
 11
-16.4529
 21
68.627
  0
LINE
  8
0
 10
-16.4529
 20
68.627
 11
-16.4882
 21
68.812
  0
LINE
  8
0
 10
-16.4882
 20
68.812
 11
-16.5
 21
69
  0
LINE
  8
0
 10
-16.5
 20
69
 11
-16.4882
 21
69.188
  0
LINE
  8
0
 10
-16.4882
 20
69.188
 11
-16.4529
 21
69.373
  0
LINE
  8
0
 10
-16.4529
 20
69.373
 11
-16.3947
 21
69.5522
  0
LINE
  8
0
 10
-16.3947
 20
69.5522
 11
-16.3145
 21
69.7226
  0
LINE
  8
0
 10
-16.3145
 20
69.7226
 11
-16.2135
 21
69.8817
  0
LINE
  8
0
 10
-16.2135
 20
69.8817
 11
-16.0934
 21
70.0268
  0
LINE
  8
0
 10
-16.0934
 20
70.0268
 11
-15.9561
 21
70.1558
  0
LINE
  8
0
 10
-15.9561
 20
70.1558
 11
-15.8037
 21
70.2665
  0
LINE
  8
0
 10
-15.8037
 20
70.2665
 11
-15.6387
 21
70.3572
  0
LINE
  8
0
 10
-15.6387
 20
70.3572
 11
-15.4635
 21
70.4266
  0
LINE
  8
0
 10
-15.4635
 20
70.4266
 11
-15.2811
 21
70.4734
  0
LINE
  8
0
 10
-15.2811
 20
70.4734
 11
-15.0942
 21
70.497
  0
LINE
  8
0
 10
-15.0942
 20
70.497
 11
-14.9058
 21
70.497
  0
LINE
  8
0
 10
-14.9058
 20
70.497
 11
-14.7189
 21
70.4734
  0
LINE
  8
0
 10
-14.7189
 20
70.4734
 11
-14.5365
 21
70.4266
  0
LINE
  8
0
 10
-14.5365
 20
70.4266
 11
-14.3613
 21
70.3572
  0
LINE
  8
0
 10
-14.3613
 20
70.3572
 11
-14.1963
 21
70.2665
  0
LINE
  8
0
 10
-14.1963
 20
70.2665
 11
-14.0439
 21
70.1558
  0
LINE
  8
0
 10
-14.0439
 20
70.1558
 11
-13.9065
 21
70.0268
  0
LINE
  8
0
 10
-13.9065
 20
70.0268
 11
-13.7865
 21
69.8817
  0
LINE
  8
0
 10
-13.7865
 20
69.8817
 11
-13.6855
 21
69.7226
  0
LINE
  8
0
 10
-13.6855
 20
69.7226
 11
-13.6053
 21
69.5522
  0
LINE
  8
0
 10
-13.6053
 20
69.5522
 11
-13.5471
 21
69.373
  0
LINE
  8
0
 10
-13.5471
 20
69.373
 11
-13.5118
 21
69.188
  0
LINE
  8
0
 10
-13.5118
 20
69.188
 11
-13.5
 21
69
  0
LINE
  8
0
 10
-13.5
 20
69
 11
-13.5118
 21
68.812
  0
LINE
  8
0
 10
-13.5118
 20
68.812
 11
-13.5471
 21
68.627
  0
LINE
  8
0
 10
-13.5471
 20
68.627
 11
-13.6053
 21
68.4478
  0
LINE
  8
0
 10
-13.6053
 20
68.4478
 11
-13.6855
 21
68.2774
  0
LINE
  8
0
 10
-13.6855
 20
68.2774
 11
-13.7865
 21
68.1183
  0
LINE
  8
0
 10
-13.7865
 20
68.1183
 11
-13.9065
 21
67.9732
  0
LINE
  8
0
 10
-13.9065
 20
67.9732
 11
-14.0439
 21
67.8442
  0
LINE
  8
0
 10
-14.0439
 20
67.8442
 11
-14.1963
 21
67.7335
  0
LINE
  8
0
 10
-14.1963
 20
67.7335
 11
-14.3613
 21
67.6427
  0
LINE
  8
0
 10
-14.3613
 20
67.6427
 11
-14.5365
 21
67.5734
  0
LINE
  8
0
 10
-14.5365
 20
67.5734
 11
-14.7189
 21
67.5266
  0
LINE
  8
0
 10
-14.7189
 20
67.5266
 11
-14.9058
 21
67.5029
  0
LINE
  8
0
 10
-14.9058
 20
67.5029
 11
-15.0942
 21
67.5029
  0
LINE
  8
0
 10
-37.5942
 20
67.5029
 11
-37.7811
 21
67.5266
  0
LINE
  8
0
 10
-37.7811
 20
67.5266
 11
-37.9635
 21
67.5734
  0
LINE
  8
0
 10
-37.9635
 20
67.5734
 11
-38.1387
 21
67.6427
  0
LINE
  8
0
 10
-38.1387
 20
67.6427
 11
-38.3037
 21
67.7335
  0
LINE
  8
0
 10
-38.3037
 20
67.7335
 11
-38.4561
 21
67.8442
  0
LINE
  8
0
 10
-38.4561
 20
67.8442
 11
-38.5934
 21
67.9732
  0
LINE
  8
0
 10
-38.5934
 20
67.9732
 11
-38.7135
 21
68.1183
  0
LINE
  8
0
 10
-38.7135
 20
68.1183
 11
-38.8145
 21
68.2774
  0
LINE
  8
0
 10
-38.8145
 20
68.2774
 11
-38.8947
 21
68.4478
  0
LINE
  8
0
 10
-38.8947
 20
68.4478
 11
-38.9529
 21
68.627
  0
LINE
  8
0
 10
-38.9529
 20
68.627
 11
-38.9882
 21
68.812
  0
LINE
  8
0
 10
-38.9882
 20
68.812
 11
-39
 21
69
  0
LINE
  8
0
 10
-39
 20
69
 11
-38.9882
 21
69.188
  0
LINE
  8
0
 10
-38.9882
 20
69.188
 11
-38.9529
 21
69.373
  0
LINE
  8
0
 10
-38.9529
 20
69.373
 11
-38.8947
 21
69.5522
  0
LINE
  8
0
 10
-38.8947
 20
69.5522
 11
-38.8145
 21
69.7226
  0
LINE
  8
0
 10
-38.8145
 20
69.7226
 11
-38.7135
 21
69.8817
  0
LINE
  8
0
 10
-38.7135
 20
69.8817
 11
-38.5934
 21
70.0268
  0
LINE
  8
0
 10
-38.5934
 20
70.0268
 11
-38.4561
 21
70.1558
  0
LINE
  8
0
 10
-38.4561
 20
70.1558
 11
-38.3037
 21
70.2665
  0
LINE
  8
0
 10
-38.3037
 20
70.2665
 11
-38.1387
 21
70.3572
  0
LINE
  8
0
 10
-38.1387
 20
70.3572
 11
-37.9635
 21
70.4266
  0
LINE
  8
0
 10
-37.9635
 20
70.4266
 11
-37.7811
 21
70.4734
  0
LINE
  8
0
 10
-37.7811
 20
70.4734
 11
-37.5942
 21
70.497
  0
LINE
  8
0
 10
-37.5942
 20
70.497
 11
-37.4058
 21
70.497
  0
LINE
  8
0
 10
-37.4058
 20
70.497
 11
-37.2189
 21
70.4734
  0
LINE
  8
0
 10
-37.2189
 20
70.4734
 11
-37.0365
 21
70.4266
  0
LINE
  8
0
 10
-37.0365
 20
70.4266
 11
-36.8613
 21
70.3572
  0
LINE
  8
0
 10
-36.8613
 20
70.3572
 11
-36.6963
 21
70.2665
  0
LINE
  8
0
 10
-36.6963
 20
70.2665
 11
-36.5439
 21
70.1558
  0
LINE
  8
0
 10
-36.5439
 20
70.1558
 11
-36.4065
 21
70.0268
  0
LINE
  8
0
 10
-36.4065
 20
70.0268
 11
-36.2865
 21
69.8817
  0
LINE
  8
0
 10
-36.2865
 20
69.8817
 11
-36.1855
 21
69.7226
  0
LINE
  8
0
 10
-36.1855
 20
69.7226
 11
-36.1053
 21
69.5522
  0
LINE
  8
0
 10
-36.1053
 20
69.5522
 11
-36.0471
 21
69.373
  0
LINE
  8
0
 10
-36.0471
 20
69.373
 11
-36.0118
 21
69.188
  0
LINE
  8
0
 10
-36.0118
 20
69.188
 11
-36
 21
69
  0
LINE
  8
0
 10
-36
 20
69
 11
-36.0118
 21
68.812
  0
LINE
  8
0
 10
-36.0118
 20
68.812
 11
-36.0471
 21
68.627
  0
LINE
  8
0
 10
-36.0471
 20
68.627
 11
-36.1053
 21
68.4478
  0
LINE
  8
0
 10
-36.1053
 20
68.4478
 11
-36.1855
 21
68.2774
  0
LINE
  8
0
 10
-36.1855
 20
68.2774
 11
-36.2865
 21
68.1183
  0
LINE
  8
0
 10
-36.2865
 20
68.1183
 11
-36.4065
 21
67.9732
  0
LINE
  8
0
 10
-36.4065
 20
67.9732
 11
-36.5439
 21
67.8442
  0
LINE
  8
0
 10
-36.5439
 20
67.8442
 11
-36.6963
 21
67.7335
  0
LINE
  8
0
 10
-36.6963
 20
67.7335
 11
-36.8613
 21
67.6427
  0
LINE
  8
0
 10
-36.8613
 20
67.6427
 11
-37.0365
 21
67.5734
  0
LINE
  8
0
 10
-37.0365
 20
67.5734
 11
-37.2189
 21
67.5266
  0
LINE
  8
0
 10
-37.2189
 20
67.5266
 11
-37.4058
 21
67.5029
  0
LINE
  8
0
 10
-37.4058
 20
67.5029
 11
-37.5942
 21
67.5029
  0
LINE
  8
0
 10
14.9058
 20
60.0029
 11
14.7189
 21
60.0266
  0
LINE
  8
0
 10
14.7189
 20
60.0266
 11
14.5365
 21
60.0734
  0
LINE
  8
0
 10
14.5365
 20
60.0734
 11
14.3613
 21
60.1427
  0
LINE
  8
0
 10
14.3613
 20
60.1427
 11
14.1963
 21
60.2335
  0
LINE
  8
0
 10
14.1963
 20
60.2335
 11
14.0439
 21
60.3442
  0
LINE
  8
0
 10
14.0439
 20
60.3442
 11
13.9065
 21
60.4732
  0
LINE
  8
0
 10
13.9065
 20
60.4732
 11
13.7865
 21
60.6183
  0
LINE
  8
0
 10
13.7865
 20
60.6183
 11
13.6855
 21
60.7774
  0
LINE
  8
0
 10
13.6855
 20
60.7774
 11
13.6053
 21
60.9478
  0
LINE
  8
0
 10
13.6053
 20
60.9478
 11
13.5471
 21
61.127
  0
LINE
  8
0
 10
13.5471
 20
61.127
 11
13.5118
 21
61.312
  0
LINE
  8
0
 10
13.5118
 20
61.312
 11
13.5
 21
61.5
  0
LINE
  8
0
 10
13.5
 20
61.5
 11
13.5118
 21
61.688
  0
LINE
  8
0
 10
13.5118
 20
61.688
 11
13.5471
 21
61.873
  0
LINE
  8
0
 10
13.5471
 20
61.873
 11
13.6053
 21
62.0522
  0
LINE
  8
0
 10
13.6053
 20
62.0522
 11
13.6855
 21
62.2226
  0
LINE
  8
0
 10
13.6855
 20
62.2226
 11
13.7865
 21
62.3817
  0
LINE
  8
0
 10
13.7865
 20
62.3817
 11
13.9065
 21
62.5268
  0
LINE
  8
0
 10
13.9065
 20
62.5268
 11
14.0439
 21
62.6558
  0
LINE
  8
0
 10
14.0439
 20
62.6558
 11
14.1963
 21
62.7665
  0
LINE
  8
0
 10
14.1963
 20
62.7665
 11
14.3613
 21
62.8572
  0
LINE
  8
0
 10
14.3613
 20
62.8572
 11
14.5365
 21
62.9266
  0
LINE
  8
0
 10
14.5365
 20
62.9266
 11
14.7189
 21
62.9734
  0
LINE
  8
0
 10
14.7189
 20
62.9734
 11
14.9058
 21
62.997
  0
LINE
  8
0
 10
14.9058
 20
62.997
 11
15.0942
 21
62.997
  0
LINE
  8
0
 10
15.0942
 20
62.997
 11
15.2811
 21
62.9734
  0
LINE
  8
0
 10
15.2811
 20
62.9734
 11
15.4635
 21
62.9266
  0
LINE
  8
0
 10
15.4635
 20
62.9266
 11
15.6387
 21
62.8572
  0
LINE
  8
0
 10
15.6387
 20
62.8572
 11
15.8037
 21
62.7665
  0
LINE
  8
0
 10
15.8037
 20
62.7665
 11
15.9561
 21
62.6558
  0
LINE
  8
0
 10
15.9561
 20
62.6558
 11
16.0934
 21
62.5268
  0
LINE
  8
0
 10
16.0934
 20
62.5268
 11
16.2135
 21
62.3817
  0
LINE
  8
0
 10
16.2135
 20
62.3817
 11
16.3145
 21
62.2226
  0
LINE
  8
0
 10
16.3145
 20
62.2226
 11
16.3947
 21
62.0522
  0
LINE
  8
0
 10
16.3947
 20
62.0522
 11
16.4529
 21
61.873
  0
LINE
  8
0
 10
16.4529
 20
61.873
 11
16.4882
 21
61.688
  0
LINE
  8
0
 10
16.4882
 20
61.688
 11
16.5
 21
61.5
  0
LINE
  8
0
 10
16.5
 20
61.5
 11
16.4882
 21
61.312
  0
LINE
  8
0
 10
16.4882
 20
61.312
 11
16.4529
 21
61.127
  0
LINE
  8
0
 10
16.4529
 20
61.127
 11
16.3947
 21
60.9478
  0
LINE
  8
0
 10
16.3947
 20
60.9478
 11
16.3145
 21
60.7774
  0
LINE
  8
0
 10
16.3145
 20
60.7774
 11
16.2135
 21
60.6183
  0
LINE
  8
0
 10
16.2135
 20
60.6183
 11
16.0934
 21
60.4732
  0
LINE
  8
0
 10
16.0934
 20
60.4732
 11
15.9561
 21
60.3442
  0
LINE
  8
0
 10
15.9561
 20
60.3442
 11
15.8037
 21
60.2335
  0
LINE
  8
0
 10
15.8037
 20
60.2335
 11
15.6387
 21
60.1427
  0
LINE
  8
0
 10
15.6387
 20
60.1427
 11
15.4635
 21
60.0734
  0
LINE
  8
0
 10
15.4635
 20
60.0734
 11
15.2811
 21
60.0266
  0
LINE
  8
0
 10
15.2811
 20
60.0266
 11
15.0942
 21
60.0029
  0
LINE
  8
0
 10
15.0942
 20
60.0029
 11
14.9058
 21
60.0029
  0
LINE
  8
0
 10
-15.0942
 20
60.0029
 11
-15.2811
 21
60.0266
  0
LINE
  8
0
 10
-15.2811
 20
60.0266
 11
-15.4635
 21
60.0734
  0
LINE
  8
0
 10
-15.4635
 20
60.0734
 11
-15.6387
 21
60.1427
  0
LINE
  8
0
 10
-15.6387
 20
60.1427
 11
-15.8037
 21
60.2335
  0
LINE
  8
0
 10
-15.8037
 20
60.2335
 11
-15.9561
 21
60.3442
  0
LINE
  8
0
 10
-15.9561
 20
60.3442
 11
-16.0934
 21
60.4732
  0
LINE
  8
0
 10
-16.0934
 20
60.4732
 11
-16.2135
 21
60.6183
  0
LINE
  8
0
 10
-16.2135
 20
60.6183
 11
-16.3145
 21
60.7774
  0
LINE
  8
0
 10
-16.3145
 20
60.7774
 11
-16.3947
 21
60.9478
  0
LINE
  8
0
 10
-16.3947
 20
60.9478
 11
-16.4529
 21
61.127
  0
LINE
  8
0
 10
-16.4529
 20
61.127
 11
-16.4882
 21
61.312
  0
LINE
  8
0
 10
-16.4882
 20
61.312
 11
-16.5
 21
61.5
  0
LINE
  8
0
 10
-16.5
 20
61.5
 11
-16.4882
 21
61.688
  0
LINE
  8
0
 10
-16.4882
 20
61.688
 11
-16.4529
 21
61.873
  0
LINE
  8
0
 10
-16.4529
 20
61.873
 11
-16.3947
 21
62.0522
  0
LINE
  8
0
 10
-16.3947
 20
62.0522
 11
-16.3145
 21
62.2226
  0
LINE
  8
0
 10
-16.3145
 20
62.2226
 11
-16.2135
 21
62.3817
  0
LINE
  8
0
 10
-16.2135
 20
62.3817
 11
-16.0934
 21
62.5268
  0
LINE
  8
0
 10
-16.0934
 20
62.5268
 11
-15.9561
 21
62.6558
  0
LINE
  8
0
 10
-15.9561
 20
62.6558
 11
-15.8037
 21
62.7665
  0
LINE
  8
0
 10
-15.8037
 20
62.7665
 11
-15.6387
 21
62.8572
  0
LINE
  8
0
 10
-15.6387
 20
62.8572
 11
-15.4635
 21
62.9266
  0
LINE
  8
0
 10
-15.4635
 20
62.9266
 11
-15.2811
 21
62.9734
  0
LINE
  8
0
 10
-15.2811
 20
62.9734
 11
-15.0942
 21
62.997
  0
LINE
  8
0
 10
-15.0942
 20
62.997
 11
-14.9058
 21
62.997
  0
LINE
  8
0
 10
-14.9058
 20
62.997
 11
-14.7189
 21
62.9734
  0
LINE
  8
0
 10
-14.7189
 20
62.9734
 11
-14.5365
 21
62.9266
  0
LINE
  8
0
 10
-14.5365
 20
62.9266
 11
-14.3613
 21
62.8572
  0
LINE
  8
0
 10
-14.3613
 20
62.8572
 11
-14.1963
 21
62.7665
  0
LINE
  8
0
 10
-14.1963
 20
62.7665
 11
-14.0439
 21
62.6558
  0
LINE
  8
0
 10
-14.0439
 20
62.6558
 11
-13.9065
 21
62.5268
  0
LINE
  8
0
 10
-13.9065
 20
62.5268
 11
-13.7865
 21
62.3817
  0
LINE
  8
0
 10
-13.7865
 20
62.3817
 11
-13.6855
 21
62.2226
  0
LINE
  8
0
 10
-13.6855
 20
62.2226
 11
-13.6053
 21
62.0522
  0
LINE
  8
0
 10
-13.6053
 20
62.0522
 11
-13.5471
 21
61.873
  0
LINE
  8
0
 10
-13.5471
 20
61.873
 11
-13.5118
 21
61.688
  0
LINE
  8
0
 10
-13.5118
 20
61.688
 11
-13.5
 21
61.5
  0
LINE
  8
0
 10
-13.5
 20
61.5
 11
-13.5118
 21
61.312
  0
LINE
  8
0
 10
-13.5118
 20
61.312
 11
-13.5471
 21
61.127
  0
LINE
  8
0
 10
-13.5471
 20
61.127
 11
-13.6053
 21
60.9478
  0
LINE
  8
0
 10
-13.6053
 20
60.9478
 11
-13.6855
 21
60.7774
  0
LINE
  8
0
 10
-13.6855
 20
60.7774
 11
-13.7865
 21
60.6183
  0
LINE
  8
0
 10
-13.7865
 20
60.6183
 11
-13.9065
 21
60.4732
  0
LINE
  8
0
 10
-13.9065
 20
60.4732
 11
-14.0439
 21
60.3442
  0
LINE
  8
0
 10
-14.0439
 20
60.3442
 11
-14.1963
 21
60.2335
  0
LINE
  8
0
 10
-14.1963
 20
60.2335
 11
-14.3613
 21
60.1427
  0
LINE
  8
0
 10
-14.3613
 20
60.1427
 11
-14.5365
 21
60.0734
  0
LINE
  8
0
 10
-14.5365
 20
60.0734
 11
-14.7189
 21
60.0266
  0
LINE
  8
0
 10
-14.7189
 20
60.0266
 11
-14.9058
 21
60.0029
  0
LINE
  8
0
 10
-14.9058
 20
60.0029
 11
-15.0942
 21
60.0029
  0
LINE
  8
0
 10
22.4058
 20
60.0029
 11
22.2189
 21
60.0266
  0
LINE
  8
0
 10
22.2189
 20
60.0266
 11
22.0365
 21
60.0734
  0
LINE
  8
0
 10
22.0365
 20
60.0734
 11
21.8613
 21
60.1427
  0
LINE
  8
0
 10
21.8613
 20
60.1427
 11
21.6963
 21
60.2335
  0
LINE
  8
0
 10
21.6963
 20
60.2335
 11
21.5439
 21
60.3442
  0
LINE
  8
0
 10
21.5439
 20
60.3442
 11
21.4065
 21
60.4732
  0
LINE
  8
0
 10
21.4065
 20
60.4732
 11
21.2865
 21
60.6183
  0
LINE
  8
0
 10
21.2865
 20
60.6183
 11
21.1855
 21
60.7774
  0
LINE
  8
0
 10
21.1855
 20
60.7774
 11
21.1053
 21
60.9478
  0
LINE
  8
0
 10
21.1053
 20
60.9478
 11
21.0471
 21
61.127
  0
LINE
  8
0
 10
21.0471
 20
61.127
 11
21.0118
 21
61.312
  0
LINE
  8
0
 10
21.0118
 20
61.312
 11
21
 21
61.5
  0
LINE
  8
0
 10
21
 20
61.5
 11
21.0118
 21
61.688
  0
LINE
  8
0
 10
21.0118
 20
61.688
 11
21.0471
 21
61.873
  0
LINE
  8
0
 10
21.0471
 20
61.873
 11
21.1053
 21
62.0522
  0
LINE
  8
0
 10
21.1053
 20
62.0522
 11
21.1855
 21
62.2226
  0
LINE
  8
0
 10
21.1855
 20
62.2226
 11
21.2865
 21
62.3817
  0
LINE
  8
0
 10
21.2865
 20
62.3817
 11
21.4065
 21
62.5268
  0
LINE
  8
0
 10
21.4065
 20
62.5268
 11
21.5439
 21
62.6558
  0
LINE
  8
0
 10
21.5439
 20
62.6558
 11
21.6963
 21
62.7665
  0
LINE
  8
0
 10
21.6963
 20
62.7665
 11
21.8613
 21
62.8572
  0
LINE
  8
0
 10
21.8613
 20
62.8572
 11
22.0365
 21
62.9266
  0
LINE
  8
0
 10
22.0365
 20
62.9266
 11
22.2189
 21
62.9734
  0
LINE
  8
0
 10
22.2189
 20
62.9734
 11
22.4058
 21
62.997
  0
LINE
  8
0
 10
22.4058
 20
62.997
 11
22.5942
 21
62.997
  0
LINE
  8
0
 10
22.5942
 20
62.997
 11
22.7811
 21
62.9734
  0
LINE
  8
0
 10
22.7811
 20
62.9734
 11
22.9635
 21
62.9266
  0
LINE
  8
0
 10
22.9635
 20
62.9266
 11
23.1387
 21
62.8572
  0
LINE
  8
0
 10
23.1387
 20
62.8572
 11
23.3037
 21
62.7665
  0
LINE
  8
0
 10
23.3037
 20
62.7665
 11
23.4561
 21
62.6558
  0
LINE
  8
0
 10
23.4561
 20
62.6558
 11
23.5934
 21
62.5268
  0
LINE
  8
0
 10
23.5934
 20
62.5268
 11
23.7135
 21
62.3817
  0
LINE
  8
0
 10
23.7135
 20
62.3817
 11
23.8145
 21
62.2226
  0
LINE
  8
0
 10
23.8145
 20
62.2226
 11
23.8947
 21
62.0522
  0
LINE
  8
0
 10
23.8947
 20
62.0522
 11
23.9529
 21
61.873
  0
LINE
  8
0
 10
23.9529
 20
61.873
 11
23.9882
 21
61.688
  0
LINE
  8
0
 10
23.9882
 20
61.688
 11
24
 21
61.5
  0
LINE
  8
0
 10
24
 20
61.5
 11
23.9882
 21
61.312
  0
LINE
  8
0
 10
23.9882
 20
61.312
 11
23.9529
 21
61.127
  0
LINE
  8
0
 10
23.9529
 20
61.127
 11
23.8947
 21
60.9478
  0
LINE
  8
0
 10
23.8947
 20
60.9478
 11
23.8145
 21
60.7774
  0
LINE
  8
0
 10
23.8145
 20
60.7774
 11
23.7135
 21
60.6183
  0
LINE
  8
0
 10
23.7135
 20
60.6183
 11
23.5934
 21
60.4732
  0
LINE
  8
0
 10
23.5934
 20
60.4732
 11
23.4561
 21
60.3442
  0
LINE
  8
0
 10
23.4561
 20
60.3442
 11
23.3037
 21
60.2335
  0
LINE
  8
0
 10
23.3037
 20
60.2335
 11
23.1387
 21
60.1427
  0
LINE
  8
0
 10
23.1387
 20
60.1427
 11
22.9635
 21
60.0734
  0
LINE
  8
0
 10
22.9635
 20
60.0734
 11
22.7811
 21
60.0266
  0
LINE
  8
0
 10
22.7811
 20
60.0266
 11
22.5942
 21
60.0029
  0
LINE
  8
0
 10
22.5942
 20
60.0029
 11
22.4058
 21
60.0029
  0
LINE
  8
0
 10
7.40581
 20
60.0029
 11
7.21892
 21
60.0266
  0
LINE
  8
0
 10
7.21892
 20
60.0266
 11
7.03647
 21
60.0734
  0
LINE
  8
0
 10
7.03647
 20
60.0734
 11
6.86133
 21
60.1427
  0
LINE
  8
0
 10
6.86133
 20
60.1427
 11
6.69626
 21
60.2335
  0
LINE
  8
0
 10
6.69626
 20
60.2335
 11
6.54385
 21
60.3442
  0
LINE
  8
0
 10
6.54385
 20
60.3442
 11
6.40654
 21
60.4732
  0
LINE
  8
0
 10
6.40654
 20
60.4732
 11
6.28647
 21
60.6183
  0
LINE
  8
0
 10
6.28647
 20
60.6183
 11
6.18553
 21
60.7774
  0
LINE
  8
0
 10
6.18553
 20
60.7774
 11
6.10533
 21
60.9478
  0
LINE
  8
0
 10
6.10533
 20
60.9478
 11
6.04712
 21
61.127
  0
LINE
  8
0
 10
6.04712
 20
61.127
 11
6.01183
 21
61.312
  0
LINE
  8
0
 10
6.01183
 20
61.312
 11
6
 21
61.5
  0
LINE
  8
0
 10
6
 20
61.5
 11
6.01183
 21
61.688
  0
LINE
  8
0
 10
6.01183
 20
61.688
 11
6.04712
 21
61.873
  0
LINE
  8
0
 10
6.04712
 20
61.873
 11
6.10533
 21
62.0522
  0
LINE
  8
0
 10
6.10533
 20
62.0522
 11
6.18553
 21
62.2226
  0
LINE
  8
0
 10
6.18553
 20
62.2226
 11
6.28647
 21
62.3817
  0
LINE
  8
0
 10
6.28647
 20
62.3817
 11
6.40654
 21
62.5268
  0
LINE
  8
0
 10
6.40654
 20
62.5268
 11
6.54385
 21
62.6558
  0
LINE
  8
0
 10
6.54385
 20
62.6558
 11
6.69626
 21
62.7665
  0
LINE
  8
0
 10
6.69626
 20
62.7665
 11
6.86133
 21
62.8572
  0
LINE
  8
0
 10
6.86133
 20
62.8572
 11
7.03647
 21
62.9266
  0
LINE
  8
0
 10
7.03647
 20
62.9266
 11
7.21892
 21
62.9734
  0
LINE
  8
0
 10
7.21892
 20
62.9734
 11
7.40581
 21
62.997
  0
LINE
  8
0
 10
7.40581
 20
62.997
 11
7.59418
 21
62.997
  0
LINE
  8
0
 10
7.59418
 20
62.997
 11
7.78107
 21
62.9734
  0
LINE
  8
0
 10
7.78107
 20
62.9734
 11
7.96352
 21
62.9266
  0
LINE
  8
0
 10
7.96352
 20
62.9266
 11
8.13866
 21
62.8572
  0
LINE
  8
0
 10
8.13866
 20
62.8572
 11
8.30373
 21
62.7665
  0
LINE
  8
0
 10
8.30373
 20
62.7665
 11
8.45613
 21
62.6558
  0
LINE
  8
0
 10
8.45613
 20
62.6558
 11
8.59344
 21
62.5268
  0
LINE
  8
0
 10
8.59344
 20
62.5268
 11
8.71352
 21
62.3817
  0
LINE
  8
0
 10
8.71352
 20
62.3817
 11
8.81445
 21
62.2226
  0
LINE
  8
0
 10
8.81445
 20
62.2226
 11
8.89465
 21
62.0522
  0
LINE
  8
0
 10
8.89465
 20
62.0522
 11
8.95287
 21
61.873
  0
LINE
  8
0
 10
8.95287
 20
61.873
 11
8.98816
 21
61.688
  0
LINE
  8
0
 10
8.98816
 20
61.688
 11
9
 21
61.5
  0
LINE
  8
0
 10
9
 20
61.5
 11
8.98816
 21
61.312
  0
LINE
  8
0
 10
8.98816
 20
61.312
 11
8.95287
 21
61.127
  0
LINE
  8
0
 10
8.95287
 20
61.127
 11
8.89465
 21
60.9478
  0
LINE
  8
0
 10
8.89465
 20
60.9478
 11
8.81445
 21
60.7774
  0
LINE
  8
0
 10
8.81445
 20
60.7774
 11
8.71352
 21
60.6183
  0
LINE
  8
0
 10
8.71352
 20
60.6183
 11
8.59344
 21
60.4732
  0
LINE
  8
0
 10
8.59344
 20
60.4732
 11
8.45613
 21
60.3442
  0
LINE
  8
0
 10
8.45613
 20
60.3442
 11
8.30373
 21
60.2335
  0
LINE
  8
0
 10
8.30373
 20
60.2335
 11
8.13866
 21
60.1427
  0
LINE
  8
0
 10
8.13866
 20
60.1427
 11
7.96352
 21
60.0734
  0
LINE
  8
0
 10
7.96352
 20
60.0734
 11
7.78107
 21
60.0266
  0
LINE
  8
0
 10
7.78107
 20
60.0266
 11
7.59418
 21
60.0029
  0
LINE
  8
0
 10
7.59418
 20
60.0029
 11
7.40581
 21
60.0029
  0
LINE
  8
0
 10
-37.5942
 20
60.0029
 11
-37.7811
 21
60.0266
  0
LINE
  8
0
 10
-37.7811
 20
60.0266
 11
-37.9635
 21
60.0734
  0
LINE
  8
0
 10
-37.9635
 20
60.0734
 11
-38.1387
 21
60.1427
  0
LINE
  8
0
 10
-38.1387
 20
60.1427
 11
-38.3037
 21
60.2335
  0
LINE
  8
0
 10
-38.3037
 20
60.2335
 11
-38.4561
 21
60.3442
  0
LINE
  8
0
 10
-38.4561
 20
60.3442
 11
-38.5934
 21
60.4732
  0
LINE
  8
0
 10
-38.5934
 20
60.4732
 11
-38.7135
 21
60.6183
  0
LINE
  8
0
 10
-38.7135
 20
60.6183
 11
-38.8145
 21
60.7774
  0
LINE
  8
0
 10
-38.8145
 20
60.7774
 11
-38.8947
 21
60.9478
  0
LINE
  8
0
 10
-38.8947
 20
60.9478
 11
-38.9529
 21
61.127
  0
LINE
  8
0
 10
-38.9529
 20
61.127
 11
-38.9882
 21
61.312
  0
LINE
  8
0
 10
-38.9882
 20
61.312
 11
-39
 21
61.5
  0
LINE
  8
0
 10
-39
 20
61.5
 11
-38.9882
 21
61.688
  0
LINE
  8
0
 10
-38.9882
 20
61.688
 11
-38.9529
 21
61.873
  0
LINE
  8
0
 10
-38.9529
 20
61.873
 11
-38.8947
 21
62.0522
  0
LINE
  8
0
 10
-38.8947
 20
62.0522
 11
-38.8145
 21
62.2226
  0
LINE
  8
0
 10
-38.8145
 20
62.2226
 11
-38.7135
 21
62.3817
  0
LINE
  8
0
 10
-38.7135
 20
62.3817
 11
-38.5934
 21
62.5268
  0
LINE
  8
0
 10
-38.5934
 20
62.5268
 11
-38.4561
 21
62.6558
  0
LINE
  8
0
 10
-38.4561
 20
62.6558
 11
-38.3037
 21
62.7665
  0
LINE
  8
0
 10
-38.3037
 20
62.7665
 11
-38.1387
 21
62.8572
  0
LINE
  8
0
 10
-38.1387
 20
62.8572
 11
-37.9635
 21
62.9266
  0
LINE
  8
0
 10
-37.9635
 20
62.9266
 11
-37.7811
 21
62.9734
  0
LINE
  8
0
 10
-37.7811
 20
62.9734
 11
-37.5942
 21
62.997
  0
LINE
  8
0
 10
-37.5942
 20
62.997
 11
-37.4058
 21
62.997
  0
LINE
  8
0
 10
-37.4058
 20
62.997
 11
-37.2189
 21
62.9734
  0
LINE
  8
0
 10
-37.2189
 20
62.9734
 11
-37.0365
 21
62.9266
  0
LINE
  8
0
 10
-37.0365
 20
62.9266
 11
-36.8613
 21
62.8572
  0
LINE
  8
0
 10
-36.8613
 20
62.8572
 11
-36.6963
 21
62.7665
  0
LINE
  8
0
 10
-36.6963
 20
62.7665
 11
-36.5439
 21
62.6558
  0
LINE
  8
0
 10
-36.5439
 20
62.6558
 11
-36.4065
 21
62.5268
  0
LINE
  8
0
 10
-36.4065
 20
62.5268
 11
-36.2865
 21
62.3817
  0
LINE
  8
0
 10
-36.2865
 20
62.3817
 11
-36.1855
 21
62.2226
  0
LINE
  8
0
 10
-36.1855
 20
62.2226
 11
-36.1053
 21
62.0522
  0
LINE
  8
0
 10
-36.1053
 20
62.0522
 11
-36.0471
 21
61.873
  0
LINE
  8
0
 10
-36.0471
 20
61.873
 11
-36.0118
 21
61.688
  0
LINE
  8
0
 10
-36.0118
 20
61.688
 11
-36
 21
61.5
  0
LINE
  8
0
 10
-36
 20
61.5
 11
-36.0118
 21
61.312
  0
LINE
  8
0
 10
-36.0118
 20
61.312
 11
-36.0471
 21
61.127
  0
LINE
  8
0
 10
-36.0471
 20
61.127
 11
-36.1053
 21
60.9478
  0
LINE
  8
0
 10
-36.1053
 20
60.9478
 11
-36.1855
 21
60.7774
  0
LINE
  8
0
 10
-36.1855
 20
60.7774
 11
-36.2865
 21
60.6183
  0
LINE
  8
0
 10
-36.2865
 20
60.6183
 11
-36.4065
 21
60.4732
  0
LINE
  8
0
 10
-36.4065
 20
60.4732
 11
-36.5439
 21
60.3442
  0
LINE
  8
0
 10
-36.5439
 20
60.3442
 11
-36.6963
 21
60.2335
  0
LINE
  8
0
 10
-36.6963
 20
60.2335
 11
-36.8613
 21
60.1427
  0
LINE
  8
0
 10
-36.8613
 20
60.1427
 11
-37.0365
 21
60.0734
  0
LINE
  8
0
 10
-37.0365
 20
60.0734
 11
-37.2189
 21
60.0266
  0
LINE
  8
0
 10
-37.2189
 20
60.0266
 11
-37.4058
 21
60.0029
  0
LINE
  8
0
 10
-37.4058
 20
60.0029
 11
-37.5942
 21
60.0029
  0
LINE
  8
0
 10
-0.0941772
 20
60.0029
 11
-0.281067
 21
60.0266
  0
LINE
  8
0
 10
-0.281067
 20
60.0266
 11
-0.463516
 21
60.0734
  0
LINE
  8
0
 10
-0.463516
 20
60.0734
 11
-0.638657
 21
60.1427
  0
LINE
  8
0
 10
-0.638657
 20
60.1427
 11
-0.803726
 21
60.2335
  0
LINE
  8
0
 10
-0.803726
 20
60.2335
 11
-0.956131
 21
60.3442
  0
LINE
  8
0
 10
-0.956131
 20
60.3442
 11
-1.09344
 21
60.4732
  0
LINE
  8
0
 10
-1.09344
 20
60.4732
 11
-1.21352
 21
60.6183
  0
LINE
  8
0
 10
-1.21352
 20
60.6183
 11
-1.31445
 21
60.7774
  0
LINE
  8
0
 10
-1.31445
 20
60.7774
 11
-1.39465
 21
60.9478
  0
LINE
  8
0
 10
-1.39465
 20
60.9478
 11
-1.45287
 21
61.127
  0
LINE
  8
0
 10
-1.45287
 20
61.127
 11
-1.48816
 21
61.312
  0
LINE
  8
0
 10
-1.48816
 20
61.312
 11
-1.5
 21
61.5
  0
LINE
  8
0
 10
-1.5
 20
61.5
 11
-1.48816
 21
61.688
  0
LINE
  8
0
 10
-1.48816
 20
61.688
 11
-1.45287
 21
61.873
  0
LINE
  8
0
 10
-1.45287
 20
61.873
 11
-1.39465
 21
62.0522
  0
LINE
  8
0
 10
-1.39465
 20
62.0522
 11
-1.31445
 21
62.2226
  0
LINE
  8
0
 10
-1.31445
 20
62.2226
 11
-1.21352
 21
62.3817
  0
LINE
  8
0
 10
-1.21352
 20
62.3817
 11
-1.09344
 21
62.5268
  0
LINE
  8
0
 10
-1.09344
 20
62.5268
 11
-0.956131
 21
62.6558
  0
LINE
  8
0
 10
-0.956131
 20
62.6558
 11
-0.803726
 21
62.7665
  0
LINE
  8
0
 10
-0.803726
 20
62.7665
 11
-0.638657
 21
62.8572
  0
LINE
  8
0
 10
-0.638657
 20
62.8572
 11
-0.463516
 21
62.9266
  0
LINE
  8
0
 10
-0.463516
 20
62.9266
 11
-0.281067
 21
62.9734
  0
LINE
  8
0
 10
-0.281067
 20
62.9734
 11
-0.0941772
 21
62.997
  0
LINE
  8
0
 10
-0.0941772
 20
62.997
 11
0.0941772
 21
62.997
  0
LINE
  8
0
 10
0.0941772
 20
62.997
 11
0.281067
 21
62.9734
  0
LINE
  8
0
 10
0.281067
 20
62.9734
 11
0.463516
 21
62.9266
  0
LINE
  8
0
 10
0.463516
 20
62.9266
 11
0.638657
 21
62.8572
  0
LINE
  8
0
 10
0.638657
 20
62.8572
 11
0.803726
 21
62.7665
  0
LINE
  8
0
 10
0.803726
 20
62.7665
 11
0.956131
 21
62.6558
  0
LINE
  8
0
 10
0.956131
 20
62.6558
 11
1.09344
 21
62.5268
  0
LINE
  8
0
 10
1.09344
 20
62.5268
 11
1.21352
 21
62.3817
  0
LINE
  8
0
 10
1.21352
 20
62.3817
 11
1.31445
 21
62.2226
  0
LINE
  8
0
 10
1.31445
 20
62.2226
 11
1.39465
 21
62.0522
  0
LINE
  8
0
 10
1.39465
 20
62.0522
 11
1.45287
 21
61.873
  0
LINE
  8
0
 10
1.45287
 20
61.873
 11
1.48816
 21
61.688
  0
LINE
  8
0
 10
1.48816
 20
61.688
 11
1.5
 21
61.5
  0
LINE
  8
0
 10
1.5
 20
61.5
 11
1.48816
 21
61.312
  0
LINE
  8
0
 10
1.48816
 20
61.312
 11
1.45287
 21
61.127
  0
LINE
  8
0
 10
1.45287
 20
61.127
 11
1.39465
 21
60.9478
  0
LINE
  8
0
 10
1.39465
 20
60.9478
 11
1.31445
 21
60.7774
  0
LINE
  8
0
 10
1.31445
 20
60.7774
 11
1.21352
 21
60.6183
  0
LINE
  8
0
 10
1.21352
 20
60.6183
 11
1.09344
 21
60.4732
  0
LINE
  8
0
 10
1.09344
 20
60.4732
 11
0.956131
 21
60.3442
  0
LINE
  8
0
 10
0.956131
 20
60.3442
 11
0.803726
 21
60.2335
  0
LINE
  8
0
 10
0.803726
 20
60.2335
 11
0.638657
 21
60.1427
  0
LINE
  8
0
 10
0.638657
 20
60.1427
 11
0.463516
 21
60.0734
  0
LINE
  8
0
 10
0.463516
 20
60.0734
 11
0.281067
 21
60.0266
  0
LINE
  8
0
 10
0.281067
 20
60.0266
 11
0.0941772
 21
60.0029
  0
LINE
  8
0
 10
0.0941772
 20
60.0029
 11
-0.0941772
 21
60.0029
  0
LINE
  8
0
 10
-30.0942
 20
60.0029
 11
-30.2811
 21
60.0266
  0
LINE
  8
0
 10
-30.2811
 20
60.0266
 11
-30.4635
 21
60.0734
  0
LINE
  8
0
 10
-30.4635
 20
60.0734
 11
-30.6387
 21
60.1427
  0
LINE
  8
0
 10
-30.6387
 20
60.1427
 11
-30.8037
 21
60.2335
  0
LINE
  8
0
 10
-30.8037
 20
60.2335
 11
-30.9561
 21
60.3442
  0
LINE
  8
0
 10
-30.9561
 20
60.3442
 11
-31.0934
 21
60.4732
  0
LINE
  8
0
 10
-31.0934
 20
60.4732
 11
-31.2135
 21
60.6183
  0
LINE
  8
0
 10
-31.2135
 20
60.6183
 11
-31.3145
 21
60.7774
  0
LINE
  8
0
 10
-31.3145
 20
60.7774
 11
-31.3947
 21
60.9478
  0
LINE
  8
0
 10
-31.3947
 20
60.9478
 11
-31.4529
 21
61.127
  0
LINE
  8
0
 10
-31.4529
 20
61.127
 11
-31.4882
 21
61.312
  0
LINE
  8
0
 10
-31.4882
 20
61.312
 11
-31.5
 21
61.5
  0
LINE
  8
0
 10
-31.5
 20
61.5
 11
-31.4882
 21
61.688
  0
LINE
  8
0
 10
-31.4882
 20
61.688
 11
-31.4529
 21
61.873
  0
LINE
  8
0
 10
-31.4529
 20
61.873
 11
-31.3947
 21
62.0522
  0
LINE
  8
0
 10
-31.3947
 20
62.0522
 11
-31.3145
 21
62.2226
  0
LINE
  8
0
 10
-31.3145
 20
62.2226
 11
-31.2135
 21
62.3817
  0
LINE
  8
0
 10
-31.2135
 20
62.3817
 11
-31.0934
 21
62.5268
  0
LINE
  8
0
 10
-31.0934
 20
62.5268
 11
-30.9561
 21
62.6558
  0
LINE
  8
0
 10
-30.9561
 20
62.6558
 11
-30.8037
 21
62.7665
  0
LINE
  8
0
 10
-30.8037
 20
62.7665
 11
-30.6387
 21
62.8572
  0
LINE
  8
0
 10
-30.6387
 20
62.8572
 11
-30.4635
 21
62.9266
  0
LINE
  8
0
 10
-30.4635
 20
62.9266
 11
-30.2811
 21
62.9734
  0
LINE
  8
0
 10
-30.2811
 20
62.9734
 11
-30.0942
 21
62.997
  0
LINE
  8
0
 10
-30.0942
 20
62.997
 11
-29.9058
 21
62.997
  0
LINE
  8
0
 10
-29.9058
 20
62.997
 11
-29.7189
 21
62.9734
  0
LINE
  8
0
 10
-29.7189
 20
62.9734
 11
-29.5365
 21
62.9266
  0
LINE
  8
0
 10
-29.5365
 20
62.9266
 11
-29.3613
 21
62.8572
  0
LINE
  8
0
 10
-29.3613
 20
62.8572
 11
-29.1963
 21
62.7665
  0
LINE
  8
0
 10
-29.1963
 20
62.7665
 11
-29.0439
 21
62.6558
  0
LINE
  8
0
 10
-29.0439
 20
62.6558
 11
-28.9065
 21
62.5268
  0
LINE
  8
0
 10
-28.9065
 20
62.5268
 11
-28.7865
 21
62.3817
  0
LINE
  8
0
 10
-28.7865
 20
62.3817
 11
-28.6855
 21
62.2226
  0
LINE
  8
0
 10
-28.6855
 20
62.2226
 11
-28.6053
 21
62.0522
  0
LINE
  8
0
 10
-28.6053
 20
62.0522
 11
-28.5471
 21
61.873
  0
LINE
  8
0
 10
-28.5471
 20
61.873
 11
-28.5118
 21
61.688
  0
LINE
  8
0
 10
-28.5118
 20
61.688
 11
-28.5
 21
61.5
  0
LINE
  8
0
 10
-28.5
 20
61.5
 11
-28.5118
 21
61.312
  0
LINE
  8
0
 10
-28.5118
 20
61.312
 11
-28.5471
 21
61.127
  0
LINE
  8
0
 10
-28.5471
 20
61.127
 11
-28.6053
 21
60.9478
  0
LINE
  8
0
 10
-28.6053
 20
60.9478
 11
-28.6855
 21
60.7774
  0
LINE
  8
0
 10
-28.6855
 20
60.7774
 11
-28.7865
 21
60.6183
  0
LINE
  8
0
 10
-28.7865
 20
60.6183
 11
-28.9065
 21
60.4732
  0
LINE
  8
0
 10
-28.9065
 20
60.4732
 11
-29.0439
 21
60.3442
  0
LINE
  8
0
 10
-29.0439
 20
60.3442
 11
-29.1963
 21
60.2335
  0
LINE
  8
0
 10
-29.1963
 20
60.2335
 11
-29.3613
 21
60.1427
  0
LINE
  8
0
 10
-29.3613
 20
60.1427
 11
-29.5365
 21
60.0734
  0
LINE
  8
0
 10
-29.5365
 20
60.0734
 11
-29.7189
 21
60.0266
  0
LINE
  8
0
 10
-29.7189
 20
60.0266
 11
-29.9058
 21
60.0029
  0
LINE
  8
0
 10
-29.9058
 20
60.0029
 11
-30.0942
 21
60.0029
  0
LINE
  8
0
 10
-7.59418
 20
60.0029
 11
-7.78107
 21
60.0266
  0
LINE
  8
0
 10
-7.78107
 20
60.0266
 11
-7.96352
 21
60.0734
  0
LINE
  8
0
 10
-7.96352
 20
60.0734
 11
-8.13866
 21
60.1427
  0
LINE
  8
0
 10
-8.13866
 20
60.1427
 11
-8.30373
 21
60.2335
  0
LINE
  8
0
 10
-8.30373
 20
60.2335
 11
-8.45613
 21
60.3442
  0
LINE
  8
0
 10
-8.45613
 20
60.3442
 11
-8.59344
 21
60.4732
  0
LINE
  8
0
 10
-8.59344
 20
60.4732
 11
-8.71352
 21
60.6183
  0
LINE
  8
0
 10
-8.71352
 20
60.6183
 11
-8.81445
 21
60.7774
  0
LINE
  8
0
 10
-8.81445
 20
60.7774
 11
-8.89465
 21
60.9478
  0
LINE
  8
0
 10
-8.89465
 20
60.9478
 11
-8.95287
 21
61.127
  0
LINE
  8
0
 10
-8.95287
 20
61.127
 11
-8.98816
 21
61.312
  0
LINE
  8
0
 10
-8.98816
 20
61.312
 11
-9
 21
61.5
  0
LINE
  8
0
 10
-9
 20
61.5
 11
-8.98816
 21
61.688
  0
LINE
  8
0
 10
-8.98816
 20
61.688
 11
-8.95287
 21
61.873
  0
LINE
  8
0
 10
-8.95287
 20
61.873
 11
-8.89465
 21
62.0522
  0
LINE
  8
0
 10
-8.89465
 20
62.0522
 11
-8.81445
 21
62.2226
  0
LINE
  8
0
 10
-8.81445
 20
62.2226
 11
-8.71352
 21
62.3817
  0
LINE
  8
0
 10
-8.71352
 20
62.3817
 11
-8.59344
 21
62.5268
  0
LINE
  8
0
 10
-8.59344
 20
62.5268
 11
-8.45613
 21
62.6558
  0
LINE
  8
0
 10
-8.45613
 20
62.6558
 11
-8.30373
 21
62.7665
  0
LINE
  8
0
 10
-8.30373
 20
62.7665
 11
-8.13866
 21
62.8572
  0
LINE
  8
0
 10
-8.13866
 20
62.8572
 11
-7.96352
 21
62.9266
  0
LINE
  8
0
 10
-7.96352
 20
62.9266
 11
-7.78107
 21
62.9734
  0
LINE
  8
0
 10
-7.78107
 20
62.9734
 11
-7.59418
 21
62.997
  0
LINE
  8
0
 10
-7.59418
 20
62.997
 11
-7.40581
 21
62.997
  0
LINE
  8
0
 10
-7.40581
 20
62.997
 11
-7.21892
 21
62.9734
  0
LINE
  8
0
 10
-7.21892
 20
62.9734
 11
-7.03647
 21
62.9266
  0
LINE
  8
0
 10
-7.03647
 20
62.9266
 11
-6.86133
 21
62.8572
  0
LINE
  8
0
 10
-6.86133
 20
62.8572
 11
-6.69626
 21
62.7665
  0
LINE
  8
0
 10
-6.69626
 20
62.7665
 11
-6.54385
 21
62.6558
  0
LINE
  8
0
 10
-6.54385
 20
62.6558
 11
-6.40654
 21
62.5268
  0
LINE
  8
0
 10
-6.40654
 20
62.5268
 11
-6.28647
 21
62.3817
  0
LINE
  8
0
 10
-6.28647
 20
62.3817
 11
-6.18553
 21
62.2226
  0
LINE
  8
0
 10
-6.18553
 20
62.2226
 11
-6.10533
 21
62.0522
  0
LINE
  8
0
 10
-6.10533
 20
62.0522
 11
-6.04712
 21
61.873
  0
LINE
  8
0
 10
-6.04712
 20
61.873
 11
-6.01183
 21
61.688
  0
LINE
  8
0
 10
-6.01183
 20
61.688
 11
-6
 21
61.5
  0
LINE
  8
0
 10
-6
 20
61.5
 11
-6.01183
 21
61.312
  0
LINE
  8
0
 10
-6.01183
 20
61.312
 11
-6.04712
 21
61.127
  0
LINE
  8
0
 10
-6.04712
 20
61.127
 11
-6.10533
 21
60.9478
  0
LINE
  8
0
 10
-6.10533
 20
60.9478
 11
-6.18553
 21
60.7774
  0
LINE
  8
0
 10
-6.18553
 20
60.7774
 11
-6.28647
 21
60.6183
  0
LINE
  8
0
 10
-6.28647
 20
60.6183
 11
-6.40654
 21
60.4732
  0
LINE
  8
0
 10
-6.40654
 20
60.4732
 11
-6.54385
 21
60.3442
  0
LINE
  8
0
 10
-6.54385
 20
60.3442
 11
-6.69626
 21
60.2335
  0
LINE
  8
0
 10
-6.69626
 20
60.2335
 11
-6.86133
 21
60.1427
  0
LINE
  8
0
 10
-6.86133
 20
60.1427
 11
-7.03647
 21
60.0734
  0
LINE
  8
0
 10
-7.03647
 20
60.0734
 11
-7.21892
 21
60.0266
  0
LINE
  8
0
 10
-7.21892
 20
60.0266
 11
-7.40581
 21
60.0029
  0
LINE
  8
0
 10
-7.40581
 20
60.0029
 11
-7.59418
 21
60.0029
  0
LINE
  8
0
 10
-22.5942
 20
60.0029
 11
-22.7811
 21
60.0266
  0
LINE
  8
0
 10
-22.7811
 20
60.0266
 11
-22.9635
 21
60.0734
  0
LINE
  8
0
 10
-22.9635
 20
60.0734
 11
-23.1387
 21
60.1427
  0
LINE
  8
0
 10
-23.1387
 20
60.1427
 11
-23.3037
 21
60.2335
  0
LINE
  8
0
 10
-23.3037
 20
60.2335
 11
-23.4561
 21
60.3442
  0
LINE
  8
0
 10
-23.4561
 20
60.3442
 11
-23.5934
 21
60.4732
  0
LINE
  8
0
 10
-23.5934
 20
60.4732
 11
-23.7135
 21
60.6183
  0
LINE
  8
0
 10
-23.7135
 20
60.6183
 11
-23.8145
 21
60.7774
  0
LINE
  8
0
 10
-23.8145
 20
60.7774
 11
-23.8947
 21
60.9478
  0
LINE
  8
0
 10
-23.8947
 20
60.9478
 11
-23.9529
 21
61.127
  0
LINE
  8
0
 10
-23.9529
 20
61.127
 11
-23.9882
 21
61.312
  0
LINE
  8
0
 10
-23.9882
 20
61.312
 11
-24
 21
61.5
  0
LINE
  8
0
 10
-24
 20
61.5
 11
-23.9882
 21
61.688
  0
LINE
  8
0
 10
-23.9882
 20
61.688
 11
-23.9529
 21
61.873
  0
LINE
  8
0
 10
-23.9529
 20
61.873
 11
-23.8947
 21
62.0522
  0
LINE
  8
0
 10
-23.8947
 20
62.0522
 11
-23.8145
 21
62.2226
  0
LINE
  8
0
 10
-23.8145
 20
62.2226
 11
-23.7135
 21
62.3817
  0
LINE
  8
0
 10
-23.7135
 20
62.3817
 11
-23.5934
 21
62.5268
  0
LINE
  8
0
 10
-23.5934
 20
62.5268
 11
-23.4561
 21
62.6558
  0
LINE
  8
0
 10
-23.4561
 20
62.6558
 11
-23.3037
 21
62.7665
  0
LINE
  8
0
 10
-23.3037
 20
62.7665
 11
-23.1387
 21
62.8572
  0
LINE
  8
0
 10
-23.1387
 20
62.8572
 11
-22.9635
 21
62.9266
  0
LINE
  8
0
 10
-22.9635
 20
62.9266
 11
-22.7811
 21
62.9734
  0
LINE
  8
0
 10
-22.7811
 20
62.9734
 11
-22.5942
 21
62.997
  0
LINE
  8
0
 10
-22.5942
 20
62.997
 11
-22.4058
 21
62.997
  0
LINE
  8
0
 10
-22.4058
 20
62.997
 11
-22.2189
 21
62.9734
  0
LINE
  8
0
 10
-22.2189
 20
62.9734
 11
-22.0365
 21
62.9266
  0
LINE
  8
0
 10
-22.0365
 20
62.9266
 11
-21.8613
 21
62.8572
  0
LINE
  8
0
 10
-21.8613
 20
62.8572
 11
-21.6963
 21
62.7665
  0
LINE
  8
0
 10
-21.6963
 20
62.7665
 11
-21.5439
 21
62.6558
  0
LINE
  8
0
 10
-21.5439
 20
62.6558
 11
-21.4065
 21
62.5268
  0
LINE
  8
0
 10
-21.4065
 20
62.5268
 11
-21.2865
 21
62.3817
  0
LINE
  8
0
 10
-21.2865
 20
62.3817
 11
-21.1855
 21
62.2226
  0
LINE
  8
0
 10
-21.1855
 20
62.2226
 11
-21.1053
 21
62.0522
  0
LINE
  8
0
 10
-21.1053
 20
62.0522
 11
-21.0471
 21
61.873
  0
LINE
  8
0
 10
-21.0471
 20
61.873
 11
-21.0118
 21
61.688
  0
LINE
  8
0
 10
-21.0118
 20
61.688
 11
-21
 21
61.5
  0
LINE
  8
0
 10
-21
 20
61.5
 11
-21.0118
 21
61.312
  0
LINE
  8
0
 10
-21.0118
 20
61.312
 11
-21.0471
 21
61.127
  0
LINE
  8
0
 10
-21.0471
 20
61.127
 11
-21.1053
 21
60.9478
  0
LINE
  8
0
 10
-21.1053
 20
60.9478
 11
-21.1855
 21
60.7774
  0
LINE
  8
0
 10
-21.1855
 20
60.7774
 11
-21.2865
 21
60.6183
  0
LINE
  8
0
 10
-21.2865
 20
60.6183
 11
-21.4065
 21
60.4732
  0
LINE
  8
0
 10
-21.4065
 20
60.4732
 11
-21.5439
 21
60.3442
  0
LINE
  8
0
 10
-21.5439
 20
60.3442
 11
-21.6963
 21
60.2335
  0
LINE
  8
0
 10
-21.6963
 20
60.2335
 11
-21.8613
 21
60.1427
  0
LINE
  8
0
 10
-21.8613
 20
60.1427
 11
-22.0365
 21
60.0734
  0
LINE
  8
0
 10
-22.0365
 20
60.0734
 11
-22.2189
 21
60.0266
  0
LINE
  8
0
 10
-22.2189
 20
60.0266
 11
-22.4058
 21
60.0029
  0
LINE
  8
0
 10
-22.4058
 20
60.0029
 11
-22.5942
 21
60.0029
  0
LINE
  8
0
 10
37.4058
 20
60.0029
 11
37.2189
 21
60.0266
  0
LINE
  8
0
 10
37.2189
 20
60.0266
 11
37.0365
 21
60.0734
  0
LINE
  8
0
 10
37.0365
 20
60.0734
 11
36.8613
 21
60.1427
  0
LINE
  8
0
 10
36.8613
 20
60.1427
 11
36.6963
 21
60.2335
  0
LINE
  8
0
 10
36.6963
 20
60.2335
 11
36.5439
 21
60.3442
  0
LINE
  8
0
 10
36.5439
 20
60.3442
 11
36.4065
 21
60.4732
  0
LINE
  8
0
 10
36.4065
 20
60.4732
 11
36.2865
 21
60.6183
  0
LINE
  8
0
 10
36.2865
 20
60.6183
 11
36.1855
 21
60.7774
  0
LINE
  8
0
 10
36.1855
 20
60.7774
 11
36.1053
 21
60.9478
  0
LINE
  8
0
 10
36.1053
 20
60.9478
 11
36.0471
 21
61.127
  0
LINE
  8
0
 10
36.0471
 20
61.127
 11
36.0118
 21
61.312
  0
LINE
  8
0
 10
36.0118
 20
61.312
 11
36
 21
61.5
  0
LINE
  8
0
 10
36
 20
61.5
 11
36.0118
 21
61.688
  0
LINE
  8
0
 10
36.0118
 20
61.688
 11
36.0471
 21
61.873
  0
LINE
  8
0
 10
36.0471
 20
61.873
 11
36.1053
 21
62.0522
  0
LINE
  8
0
 10
36.1053
 20
62.0522
 11
36.1855
 21
62.2226
  0
LINE
  8
0
 10
36.1855
 20
62.2226
 11
36.2865
 21
62.3817
  0
LINE
  8
0
 10
36.2865
 20
62.3817
 11
36.4065
 21
62.5268
  0
LINE
  8
0
 10
36.4065
 20
62.5268
 11
36.5439
 21
62.6558
  0
LINE
  8
0
 10
36.5439
 20
62.6558
 11
36.6963
 21
62.7665
  0
LINE
  8
0
 10
36.6963
 20
62.7665
 11
36.8613
 21
62.8572
  0
LINE
  8
0
 10
36.8613
 20
62.8572
 11
37.0365
 21
62.9266
  0
LINE
  8
0
 10
37.0365
 20
62.9266
 11
37.2189
 21
62.9734
  0
LINE
  8
0
 10
37.2189
 20
62.9734
 11
37.4058
 21
62.997
  0
LINE
  8
0
 10
37.4058
 20
62.997
 11
37.5942
 21
62.997
  0
LINE
  8
0
 10
37.5942
 20
62.997
 11
37.7811
 21
62.9734
  0
LINE
  8
0
 10
37.7811
 20
62.9734
 11
37.9635
 21
62.9266
  0
LINE
  8
0
 10
37.9635
 20
62.9266
 11
38.1387
 21
62.8572
  0
LINE
  8
0
 10
38.1387
 20
62.8572
 11
38.3037
 21
62.7665
  0
LINE
  8
0
 10
38.3037
 20
62.7665
 11
38.4561
 21
62.6558
  0
LINE
  8
0
 10
38.4561
 20
62.6558
 11
38.5934
 21
62.5268
  0
LINE
  8
0
 10
38.5934
 20
62.5268
 11
38.7135
 21
62.3817
  0
LINE
  8
0
 10
38.7135
 20
62.3817
 11
38.8145
 21
62.2226
  0
LINE
  8
0
 10
38.8145
 20
62.2226
 11
38.8947
 21
62.0522
  0
LINE
  8
0
 10
38.8947
 20
62.0522
 11
38.9529
 21
61.873
  0
LINE
  8
0
 10
38.9529
 20
61.873
 11
38.9882
 21
61.688
  0
LINE
  8
0
 10
38.9882
 20
61.688
 11
39
 21
61.5
  0
LINE
  8
0
 10
39
 20
61.5
 11
38.9882
 21
61.312
  0
LINE
  8
0
 10
38.9882
 20
61.312
 11
38.9529
 21
61.127
  0
LINE
  8
0
 10
38.9529
 20
61.127
 11
38.8947
 21
60.9478
  0
LINE
  8
0
 10
38.8947
 20
60.9478
 11
38.8145
 21
60.7774
  0
LINE
  8
0
 10
38.8145
 20
60.7774
 11
38.7135
 21
60.6183
  0
LINE
  8
0
 10
38.7135
 20
60.6183
 11
38.5934
 21
60.4732
  0
LINE
  8
0
 10
38.5934
 20
60.4732
 11
38.4561
 21
60.3442
  0
LINE
  8
0
 10
38.4561
 20
60.3442
 11
38.3037
 21
60.2335
  0
LINE
  8
0
 10
38.3037
 20
60.2335
 11
38.1387
 21
60.1427
  0
LINE
  8
0
 10
38.1387
 20
60.1427
 11
37.9635
 21
60.0734
  0
LINE
  8
0
 10
37.9635
 20
60.0734
 11
37.7811
 21
60.0266
  0
LINE
  8
0
 10
37.7811
 20
60.0266
 11
37.5942
 21
60.0029
  0
LINE
  8
0
 10
37.5942
 20
60.0029
 11
37.4058
 21
60.0029
  0
LINE
  8
0
 10
29.9058
 20
60.0029
 11
29.7189
 21
60.0266
  0
LINE
  8
0
 10
29.7189
 20
60.0266
 11
29.5365
 21
60.0734
  0
LINE
  8
0
 10
29.5365
 20
60.0734
 11
29.3613
 21
60.1427
  0
LINE
  8
0
 10
29.3613
 20
60.1427
 11
29.1963
 21
60.2335
  0
LINE
  8
0
 10
29.1963
 20
60.2335
 11
29.0439
 21
60.3442
  0
LINE
  8
0
 10
29.0439
 20
60.3442
 11
28.9065
 21
60.4732
  0
LINE
  8
0
 10
28.9065
 20
60.4732
 11
28.7865
 21
60.6183
  0
LINE
  8
0
 10
28.7865
 20
60.6183
 11
28.6855
 21
60.7774
  0
LINE
  8
0
 10
28.6855
 20
60.7774
 11
28.6053
 21
60.9478
  0
LINE
  8
0
 10
28.6053
 20
60.9478
 11
28.5471
 21
61.127
  0
LINE
  8
0
 10
28.5471
 20
61.127
 11
28.5118
 21
61.312
  0
LINE
  8
0
 10
28.5118
 20
61.312
 11
28.5
 21
61.5
  0
LINE
  8
0
 10
28.5
 20
61.5
 11
28.5118
 21
61.688
  0
LINE
  8
0
 10
28.5118
 20
61.688
 11
28.5471
 21
61.873
  0
LINE
  8
0
 10
28.5471
 20
61.873
 11
28.6053
 21
62.0522
  0
LINE
  8
0
 10
28.6053
 20
62.0522
 11
28.6855
 21
62.2226
  0
LINE
  8
0
 10
28.6855
 20
62.2226
 11
28.7865
 21
62.3817
  0
LINE
  8
0
 10
28.7865
 20
62.3817
 11
28.9065
 21
62.5268
  0
LINE
  8
0
 10
28.9065
 20
62.5268
 11
29.0439
 21
62.6558
  0
LINE
  8
0
 10
29.0439
 20
62.6558
 11
29.1963
 21
62.7665
  0
LINE
  8
0
 10
29.1963
 20
62.7665
 11
29.3613
 21
62.8572
  0
LINE
  8
0
 10
29.3613
 20
62.8572
 11
29.5365
 21
62.9266
  0
LINE
  8
0
 10
29.5365
 20
62.9266
 11
29.7189
 21
62.9734
  0
LINE
  8
0
 10
29.7189
 20
62.9734
 11
29.9058
 21
62.997
  0
LINE
  8
0
 10
29.9058
 20
62.997
 11
30.0942
 21
62.997
  0
LINE
  8
0
 10
30.0942
 20
62.997
 11
30.2811
 21
62.9734
  0
LINE
  8
0
 10
30.2811
 20
62.9734
 11
30.4635
 21
62.9266
  0
LINE
  8
0
 10
30.4635
 20
62.9266
 11
30.6387
 21
62.8572
  0
LINE
  8
0
 10
30.6387
 20
62.8572
 11
30.8037
 21
62.7665
  0
LINE
  8
0
 10
30.8037
 20
62.7665
 11
30.9561
 21
62.6558
  0
LINE
  8
0
 10
30.9561
 20
62.6558
 11
31.0934
 21
62.5268
  0
LINE
  8
0
 10
31.0934
 20
62.5268
 11
31.2135
 21
62.3817
  0
LINE
  8
0
 10
31.2135
 20
62.3817
 11
31.3145
 21
62.2226
  0
LINE
  8
0
 10
31.3145
 20
62.2226
 11
31.3947
 21
62.0522
  0
LINE
  8
0
 10
31.3947
 20
62.0522
 11
31.4529
 21
61.873
  0
LINE
  8
0
 10
31.4529
 20
61.873
 11
31.4882
 21
61.688
  0
LINE
  8
0
 10
31.4882
 20
61.688
 11
31.5
 21
61.5
  0
LINE
  8
0
 10
31.5
 20
61.5
 11
31.4882
 21
61.312
  0
LINE
  8
0
 10
31.4882
 20
61.312
 11
31.4529
 21
61.127
  0
LINE
  8
0
 10
31.4529
 20
61.127
 11
31.3947
 21
60.9478
  0
LINE
  8
0
 10
31.3947
 20
60.9478
 11
31.3145
 21
60.7774
  0
LINE
  8
0
 10
31.3145
 20
60.7774
 11
31.2135
 21
60.6183
  0
LINE
  8
0
 10
31.2135
 20
60.6183
 11
31.0934
 21
60.4732
  0
LINE
  8
0
 10
31.0934
 20
60.4732
 11
30.9561
 21
60.3442
  0
LINE
  8
0
 10
30.9561
 20
60.3442
 11
30.8037
 21
60.2335
  0
LINE
  8
0
 10
30.8037
 20
60.2335
 11
30.6387
 21
60.1427
  0
LINE
  8
0
 10
30.6387
 20
60.1427
 11
30.4635
 21
60.0734
  0
LINE
  8
0
 10
30.4635
 20
60.0734
 11
30.2811
 21
60.0266
  0
LINE
  8
0
 10
30.2811
 20
60.0266
 11
30.0942
 21
60.0029
  0
LINE
  8
0
 10
30.0942
 20
60.0029
 11
29.9058
 21
60.0029
  0
LINE
  8
0
 10
-22.5942
 20
52.503
 11
-22.7811
 21
52.5266
  0
LINE
  8
0
 10
-22.7811
 20
52.5266
 11
-22.9635
 21
52.5734
  0
LINE
  8
0
 10
-22.9635
 20
52.5734
 11
-23.1387
 21
52.6428
  0
LINE
  8
0
 10
-23.1387
 20
52.6428
 11
-23.3037
 21
52.7335
  0
LINE
  8
0
 10
-23.3037
 20
52.7335
 11
-23.4561
 21
52.8442
  0
LINE
  8
0
 10
-23.4561
 20
52.8442
 11
-23.5934
 21
52.9732
  0
LINE
  8
0
 10
-23.5934
 20
52.9732
 11
-23.7135
 21
53.1183
  0
LINE
  8
0
 10
-23.7135
 20
53.1183
 11
-23.8145
 21
53.2774
  0
LINE
  8
0
 10
-23.8145
 20
53.2774
 11
-23.8947
 21
53.4478
  0
LINE
  8
0
 10
-23.8947
 20
53.4478
 11
-23.9529
 21
53.627
  0
LINE
  8
0
 10
-23.9529
 20
53.627
 11
-23.9882
 21
53.812
  0
LINE
  8
0
 10
-23.9882
 20
53.812
 11
-24
 21
54
  0
LINE
  8
0
 10
-24
 20
54
 11
-23.9882
 21
54.188
  0
LINE
  8
0
 10
-23.9882
 20
54.188
 11
-23.9529
 21
54.373
  0
LINE
  8
0
 10
-23.9529
 20
54.373
 11
-23.8947
 21
54.5522
  0
LINE
  8
0
 10
-23.8947
 20
54.5522
 11
-23.8145
 21
54.7226
  0
LINE
  8
0
 10
-23.8145
 20
54.7226
 11
-23.7135
 21
54.8817
  0
LINE
  8
0
 10
-23.7135
 20
54.8817
 11
-23.5934
 21
55.0268
  0
LINE
  8
0
 10
-23.5934
 20
55.0268
 11
-23.4561
 21
55.1558
  0
LINE
  8
0
 10
-23.4561
 20
55.1558
 11
-23.3037
 21
55.2665
  0
LINE
  8
0
 10
-23.3037
 20
55.2665
 11
-23.1387
 21
55.3572
  0
LINE
  8
0
 10
-23.1387
 20
55.3572
 11
-22.9635
 21
55.4266
  0
LINE
  8
0
 10
-22.9635
 20
55.4266
 11
-22.7811
 21
55.4734
  0
LINE
  8
0
 10
-22.7811
 20
55.4734
 11
-22.5942
 21
55.497
  0
LINE
  8
0
 10
-22.5942
 20
55.497
 11
-22.4058
 21
55.497
  0
LINE
  8
0
 10
-22.4058
 20
55.497
 11
-22.2189
 21
55.4734
  0
LINE
  8
0
 10
-22.2189
 20
55.4734
 11
-22.0365
 21
55.4266
  0
LINE
  8
0
 10
-22.0365
 20
55.4266
 11
-21.8613
 21
55.3572
  0
LINE
  8
0
 10
-21.8613
 20
55.3572
 11
-21.6963
 21
55.2665
  0
LINE
  8
0
 10
-21.6963
 20
55.2665
 11
-21.5439
 21
55.1558
  0
LINE
  8
0
 10
-21.5439
 20
55.1558
 11
-21.4065
 21
55.0268
  0
LINE
  8
0
 10
-21.4065
 20
55.0268
 11
-21.2865
 21
54.8817
  0
LINE
  8
0
 10
-21.2865
 20
54.8817
 11
-21.1855
 21
54.7226
  0
LINE
  8
0
 10
-21.1855
 20
54.7226
 11
-21.1053
 21
54.5522
  0
LINE
  8
0
 10
-21.1053
 20
54.5522
 11
-21.0471
 21
54.373
  0
LINE
  8
0
 10
-21.0471
 20
54.373
 11
-21.0118
 21
54.188
  0
LINE
  8
0
 10
-21.0118
 20
54.188
 11
-21
 21
54
  0
LINE
  8
0
 10
-21
 20
54
 11
-21.0118
 21
53.812
  0
LINE
  8
0
 10
-21.0118
 20
53.812
 11
-21.0471
 21
53.627
  0
LINE
  8
0
 10
-21.0471
 20
53.627
 11
-21.1053
 21
53.4478
  0
LINE
  8
0
 10
-21.1053
 20
53.4478
 11
-21.1855
 21
53.2774
  0
LINE
  8
0
 10
-21.1855
 20
53.2774
 11
-21.2865
 21
53.1183
  0
LINE
  8
0
 10
-21.2865
 20
53.1183
 11
-21.4065
 21
52.9732
  0
LINE
  8
0
 10
-21.4065
 20
52.9732
 11
-21.5439
 21
52.8442
  0
LINE
  8
0
 10
-21.5439
 20
52.8442
 11
-21.6963
 21
52.7335
  0
LINE
  8
0
 10
-21.6963
 20
52.7335
 11
-21.8613
 21
52.6428
  0
LINE
  8
0
 10
-21.8613
 20
52.6428
 11
-22.0365
 21
52.5734
  0
LINE
  8
0
 10
-22.0365
 20
52.5734
 11
-22.2189
 21
52.5266
  0
LINE
  8
0
 10
-22.2189
 20
52.5266
 11
-22.4058
 21
52.503
  0
LINE
  8
0
 10
-22.4058
 20
52.503
 11
-22.5942
 21
52.503
  0
LINE
  8
0
 10
7.40581
 20
52.503
 11
7.21892
 21
52.5266
  0
LINE
  8
0
 10
7.21892
 20
52.5266
 11
7.03647
 21
52.5734
  0
LINE
  8
0
 10
7.03647
 20
52.5734
 11
6.86133
 21
52.6428
  0
LINE
  8
0
 10
6.86133
 20
52.6428
 11
6.69626
 21
52.7335
  0
LINE
  8
0
 10
6.69626
 20
52.7335
 11
6.54385
 21
52.8442
  0
LINE
  8
0
 10
6.54385
 20
52.8442
 11
6.40654
 21
52.9732
  0
LINE
  8
0
 10
6.40654
 20
52.9732
 11
6.28647
 21
53.1183
  0
LINE
  8
0
 10
6.28647
 20
53.1183
 11
6.18553
 21
53.2774
  0
LINE
  8
0
 10
6.18553
 20
53.2774
 11
6.10533
 21
53.4478
  0
LINE
  8
0
 10
6.10533
 20
53.4478
 11
6.04712
 21
53.627
  0
LINE
  8
0
 10
6.04712
 20
53.627
 11
6.01183
 21
53.812
  0
LINE
  8
0
 10
6.01183
 20
53.812
 11
6
 21
54
  0
LINE
  8
0
 10
6
 20
54
 11
6.01183
 21
54.188
  0
LINE
  8
0
 10
6.01183
 20
54.188
 11
6.04712
 21
54.373
  0
LINE
  8
0
 10
6.04712
 20
54.373
 11
6.10533
 21
54.5522
  0
LINE
  8
0
 10
6.10533
 20
54.5522
 11
6.18553
 21
54.7226
  0
LINE
  8
0
 10
6.18553
 20
54.7226
 11
6.28647
 21
54.8817
  0
LINE
  8
0
 10
6.28647
 20
54.8817
 11
6.40654
 21
55.0268
  0
LINE
  8
0
 10
6.40654
 20
55.0268
 11
6.54385
 21
55.1558
  0
LINE
  8
0
 10
6.54385
 20
55.1558
 11
6.69626
 21
55.2665
  0
LINE
  8
0
 10
6.69626
 20
55.2665
 11
6.86133
 21
55.3572
  0
LINE
  8
0
 10
6.86133
 20
55.3572
 11
7.03647
 21
55.4266
  0
LINE
  8
0
 10
7.03647
 20
55.4266
 11
7.21892
 21
55.4734
  0
LINE
  8
0
 10
7.21892
 20
55.4734
 11
7.40581
 21
55.497
  0
LINE
  8
0
 10
7.40581
 20
55.497
 11
7.59418
 21
55.497
  0
LINE
  8
0
 10
7.59418
 20
55.497
 11
7.78107
 21
55.4734
  0
LINE
  8
0
 10
7.78107
 20
55.4734
 11
7.96352
 21
55.4266
  0
LINE
  8
0
 10
7.96352
 20
55.4266
 11
8.13866
 21
55.3572
  0
LINE
  8
0
 10
8.13866
 20
55.3572
 11
8.30373
 21
55.2665
  0
LINE
  8
0
 10
8.30373
 20
55.2665
 11
8.45613
 21
55.1558
  0
LINE
  8
0
 10
8.45613
 20
55.1558
 11
8.59344
 21
55.0268
  0
LINE
  8
0
 10
8.59344
 20
55.0268
 11
8.71352
 21
54.8817
  0
LINE
  8
0
 10
8.71352
 20
54.8817
 11
8.81445
 21
54.7226
  0
LINE
  8
0
 10
8.81445
 20
54.7226
 11
8.89465
 21
54.5522
  0
LINE
  8
0
 10
8.89465
 20
54.5522
 11
8.95287
 21
54.373
  0
LINE
  8
0
 10
8.95287
 20
54.373
 11
8.98816
 21
54.188
  0
LINE
  8
0
 10
8.98816
 20
54.188
 11
9
 21
54
  0
LINE
  8
0
 10
9
 20
54
 11
8.98816
 21
53.812
  0
LINE
  8
0
 10
8.98816
 20
53.812
 11
8.95287
 21
53.627
  0
LINE
  8
0
 10
8.95287
 20
53.627
 11
8.89465
 21
53.4478
  0
LINE
  8
0
 10
8.89465
 20
53.4478
 11
8.81445
 21
53.2774
  0
LINE
  8
0
 10
8.81445
 20
53.2774
 11
8.71352
 21
53.1183
  0
LINE
  8
0
 10
8.71352
 20
53.1183
 11
8.59344
 21
52.9732
  0
LINE
  8
0
 10
8.59344
 20
52.9732
 11
8.45613
 21
52.8442
  0
LINE
  8
0
 10
8.45613
 20
52.8442
 11
8.30373
 21
52.7335
  0
LINE
  8
0
 10
8.30373
 20
52.7335
 11
8.13866
 21
52.6428
  0
LINE
  8
0
 10
8.13866
 20
52.6428
 11
7.96352
 21
52.5734
  0
LINE
  8
0
 10
7.96352
 20
52.5734
 11
7.78107
 21
52.5266
  0
LINE
  8
0
 10
7.78107
 20
52.5266
 11
7.59418
 21
52.503
  0
LINE
  8
0
 10
7.59418
 20
52.503
 11
7.40581
 21
52.503
  0
LINE
  8
0
 10
-30.0942
 20
52.503
 11
-30.2811
 21
52.5266
  0
LINE
  8
0
 10
-30.2811
 20
52.5266
 11
-30.4635
 21
52.5734
  0
LINE
  8
0
 10
-30.4635
 20
52.5734
 11
-30.6387
 21
52.6428
  0
LINE
  8
0
 10
-30.6387
 20
52.6428
 11
-30.8037
 21
52.7335
  0
LINE
  8
0
 10
-30.8037
 20
52.7335
 11
-30.9561
 21
52.8442
  0
LINE
  8
0
 10
-30.9561
 20
52.8442
 11
-31.0934
 21
52.9732
  0
LINE
  8
0
 10
-31.0934
 20
52.9732
 11
-31.2135
 21
53.1183
  0
LINE
  8
0
 10
-31.2135
 20
53.1183
 11
-31.3145
 21
53.2774
  0
LINE
  8
0
 10
-31.3145
 20
53.2774
 11
-31.3947
 21
53.4478
  0
LINE
  8
0
 10
-31.3947
 20
53.4478
 11
-31.4529
 21
53.627
  0
LINE
  8
0
 10
-31.4529
 20
53.627
 11
-31.4882
 21
53.812
  0
LINE
  8
0
 10
-31.4882
 20
53.812
 11
-31.5
 21
54
  0
LINE
  8
0
 10
-31.5
 20
54
 11
-31.4882
 21
54.188
  0
LINE
  8
0
 10
-31.4882
 20
54.188
 11
-31.4529
 21
54.373
  0
LINE
  8
0
 10
-31.4529
 20
54.373
 11
-31.3947
 21
54.5522
  0
LINE
  8
0
 10
-31.3947
 20
54.5522
 11
-31.3145
 21
54.7226
  0
LINE
  8
0
 10
-31.3145
 20
54.7226
 11
-31.2135
 21
54.8817
  0
LINE
  8
0
 10
-31.2135
 20
54.8817
 11
-31.0934
 21
55.0268
  0
LINE
  8
0
 10
-31.0934
 20
55.0268
 11
-30.9561
 21
55.1558
  0
LINE
  8
0
 10
-30.9561
 20
55.1558
 11
-30.8037
 21
55.2665
  0
LINE
  8
0
 10
-30.8037
 20
55.2665
 11
-30.6387
 21
55.3572
  0
LINE
  8
0
 10
-30.6387
 20
55.3572
 11
-30.4635
 21
55.4266
  0
LINE
  8
0
 10
-30.4635
 20
55.4266
 11
-30.2811
 21
55.4734
  0
LINE
  8
0
 10
-30.2811
 20
55.4734
 11
-30.0942
 21
55.497
  0
LINE
  8
0
 10
-30.0942
 20
55.497
 11
-29.9058
 21
55.497
  0
LINE
  8
0
 10
-29.9058
 20
55.497
 11
-29.7189
 21
55.4734
  0
LINE
  8
0
 10
-29.7189
 20
55.4734
 11
-29.5365
 21
55.4266
  0
LINE
  8
0
 10
-29.5365
 20
55.4266
 11
-29.3613
 21
55.3572
  0
LINE
  8
0
 10
-29.3613
 20
55.3572
 11
-29.1963
 21
55.2665
  0
LINE
  8
0
 10
-29.1963
 20
55.2665
 11
-29.0439
 21
55.1558
  0
LINE
  8
0
 10
-29.0439
 20
55.1558
 11
-28.9065
 21
55.0268
  0
LINE
  8
0
 10
-28.9065
 20
55.0268
 11
-28.7865
 21
54.8817
  0
LINE
  8
0
 10
-28.7865
 20
54.8817
 11
-28.6855
 21
54.7226
  0
LINE
  8
0
 10
-28.6855
 20
54.7226
 11
-28.6053
 21
54.5522
  0
LINE
  8
0
 10
-28.6053
 20
54.5522
 11
-28.5471
 21
54.373
  0
LINE
  8
0
 10
-28.5471
 20
54.373
 11
-28.5118
 21
54.188
  0
LINE
  8
0
 10
-28.5118
 20
54.188
 11
-28.5
 21
54
  0
LINE
  8
0
 10
-28.5
 20
54
 11
-28.5118
 21
53.812
  0
LINE
  8
0
 10
-28.5118
 20
53.812
 11
-28.5471
 21
53.627
  0
LINE
  8
0
 10
-28.5471
 20
53.627
 11
-28.6053
 21
53.4478
  0
LINE
  8
0
 10
-28.6053
 20
53.4478
 11
-28.6855
 21
53.2774
  0
LINE
  8
0
 10
-28.6855
 20
53.2774
 11
-28.7865
 21
53.1183
  0
LINE
  8
0
 10
-28.7865
 20
53.1183
 11
-28.9065
 21
52.9732
  0
LINE
  8
0
 10
-28.9065
 20
52.9732
 11
-29.0439
 21
52.8442
  0
LINE
  8
0
 10
-29.0439
 20
52.8442
 11
-29.1963
 21
52.7335
  0
LINE
  8
0
 10
-29.1963
 20
52.7335
 11
-29.3613
 21
52.6428
  0
LINE
  8
0
 10
-29.3613
 20
52.6428
 11
-29.5365
 21
52.5734
  0
LINE
  8
0
 10
-29.5365
 20
52.5734
 11
-29.7189
 21
52.5266
  0
LINE
  8
0
 10
-29.7189
 20
52.5266
 11
-29.9058
 21
52.503
  0
LINE
  8
0
 10
-29.9058
 20
52.503
 11
-30.0942
 21
52.503
  0
LINE
  8
0
 10
37.4058
 20
52.503
 11
37.2189
 21
52.5266
  0
LINE
  8
0
 10
37.2189
 20
52.5266
 11
37.0365
 21
52.5734
  0
LINE
  8
0
 10
37.0365
 20
52.5734
 11
36.8613
 21
52.6428
  0
LINE
  8
0
 10
36.8613
 20
52.6428
 11
36.6963
 21
52.7335
  0
LINE
  8
0
 10
36.6963
 20
52.7335
 11
36.5439
 21
52.8442
  0
LINE
  8
0
 10
36.5439
 20
52.8442
 11
36.4065
 21
52.9732
  0
LINE
  8
0
 10
36.4065
 20
52.9732
 11
36.2865
 21
53.1183
  0
LINE
  8
0
 10
36.2865
 20
53.1183
 11
36.1855
 21
53.2774
  0
LINE
  8
0
 10
36.1855
 20
53.2774
 11
36.1053
 21
53.4478
  0
LINE
  8
0
 10
36.1053
 20
53.4478
 11
36.0471
 21
53.627
  0
LINE
  8
0
 10
36.0471
 20
53.627
 11
36.0118
 21
53.812
  0
LINE
  8
0
 10
36.0118
 20
53.812
 11
36
 21
54
  0
LINE
  8
0
 10
36
 20
54
 11
36.0118
 21
54.188
  0
LINE
  8
0
 10
36.0118
 20
54.188
 11
36.0471
 21
54.373
  0
LINE
  8
0
 10
36.0471
 20
54.373
 11
36.1053
 21
54.5522
  0
LINE
  8
0
 10
36.1053
 20
54.5522
 11
36.1855
 21
54.7226
  0
LINE
  8
0
 10
36.1855
 20
54.7226
 11
36.2865
 21
54.8817
  0
LINE
  8
0
 10
36.2865
 20
54.8817
 11
36.4065
 21
55.0268
  0
LINE
  8
0
 10
36.4065
 20
55.0268
 11
36.5439
 21
55.1558
  0
LINE
  8
0
 10
36.5439
 20
55.1558
 11
36.6963
 21
55.2665
  0
LINE
  8
0
 10
36.6963
 20
55.2665
 11
36.8613
 21
55.3572
  0
LINE
  8
0
 10
36.8613
 20
55.3572
 11
37.0365
 21
55.4266
  0
LINE
  8
0
 10
37.0365
 20
55.4266
 11
37.2189
 21
55.4734
  0
LINE
  8
0
 10
37.2189
 20
55.4734
 11
37.4058
 21
55.497
  0
LINE
  8
0
 10
37.4058
 20
55.497
 11
37.5942
 21
55.497
  0
LINE
  8
0
 10
37.5942
 20
55.497
 11
37.7811
 21
55.4734
  0
LINE
  8
0
 10
37.7811
 20
55.4734
 11
37.9635
 21
55.4266
  0
LINE
  8
0
 10
37.9635
 20
55.4266
 11
38.1387
 21
55.3572
  0
LINE
  8
0
 10
38.1387
 20
55.3572
 11
38.3037
 21
55.2665
  0
LINE
  8
0
 10
38.3037
 20
55.2665
 11
38.4561
 21
55.1558
  0
LINE
  8
0
 10
38.4561
 20
55.1558
 11
38.5934
 21
55.0268
  0
LINE
  8
0
 10
38.5934
 20
55.0268
 11
38.7135
 21
54.8817
  0
LINE
  8
0
 10
38.7135
 20
54.8817
 11
38.8145
 21
54.7226
  0
LINE
  8
0
 10
38.8145
 20
54.7226
 11
38.8947
 21
54.5522
  0
LINE
  8
0
 10
38.8947
 20
54.5522
 11
38.9529
 21
54.373
  0
LINE
  8
0
 10
38.9529
 20
54.373
 11
38.9882
 21
54.188
  0
LINE
  8
0
 10
38.9882
 20
54.188
 11
39
 21
54
  0
LINE
  8
0
 10
39
 20
54
 11
38.9882
 21
53.812
  0
LINE
  8
0
 10
38.9882
 20
53.812
 11
38.9529
 21
53.627
  0
LINE
  8
0
 10
38.9529
 20
53.627
 11
38.8947
 21
53.4478
  0
LINE
  8
0
 10
38.8947
 20
53.4478
 11
38.8145
 21
53.2774
  0
LINE
  8
0
 10
38.8145
 20
53.2774
 11
38.7135
 21
53.1183
  0
LINE
  8
0
 10
38.7135
 20
53.1183
 11
38.5934
 21
52.9732
  0
LINE
  8
0
 10
38.5934
 20
52.9732
 11
38.4561
 21
52.8442
  0
LINE
  8
0
 10
38.4561
 20
52.8442
 11
38.3037
 21
52.7335
  0
LINE
  8
0
 10
38.3037
 20
52.7335
 11
38.1387
 21
52.6428
  0
LINE
  8
0
 10
38.1387
 20
52.6428
 11
37.9635
 21
52.5734
  0
LINE
  8
0
 10
37.9635
 20
52.5734
 11
37.7811
 21
52.5266
  0
LINE
  8
0
 10
37.7811
 20
52.5266
 11
37.5942
 21
52.503
  0
LINE
  8
0
 10
37.5942
 20
52.503
 11
37.4058
 21
52.503
  0
LINE
  8
0
 10
-0.0941772
 20
52.503
 11
-0.281067
 21
52.5266
  0
LINE
  8
0
 10
-0.281067
 20
52.5266
 11
-0.463516
 21
52.5734
  0
LINE
  8
0
 10
-0.463516
 20
52.5734
 11
-0.638657
 21
52.6428
  0
LINE
  8
0
 10
-0.638657
 20
52.6428
 11
-0.803726
 21
52.7335
  0
LINE
  8
0
 10
-0.803726
 20
52.7335
 11
-0.956131
 21
52.8442
  0
LINE
  8
0
 10
-0.956131
 20
52.8442
 11
-1.09344
 21
52.9732
  0
LINE
  8
0
 10
-1.09344
 20
52.9732
 11
-1.21352
 21
53.1183
  0
LINE
  8
0
 10
-1.21352
 20
53.1183
 11
-1.31445
 21
53.2774
  0
LINE
  8
0
 10
-1.31445
 20
53.2774
 11
-1.39465
 21
53.4478
  0
LINE
  8
0
 10
-1.39465
 20
53.4478
 11
-1.45287
 21
53.627
  0
LINE
  8
0
 10
-1.45287
 20
53.627
 11
-1.48816
 21
53.812
  0
LINE
  8
0
 10
-1.48816
 20
53.812
 11
-1.5
 21
54
  0
LINE
  8
0
 10
-1.5
 20
54
 11
-1.48816
 21
54.188
  0
LINE
  8
0
 10
-1.48816
 20
54.188
 11
-1.45287
 21
54.373
  0
LINE
  8
0
 10
-1.45287
 20
54.373
 11
-1.39465
 21
54.5522
  0
LINE
  8
0
 10
-1.39465
 20
54.5522
 11
-1.31445
 21
54.7226
  0
LINE
  8
0
 10
-1.31445
 20
54.7226
 11
-1.21352
 21
54.8817
  0
LINE
  8
0
 10
-1.21352
 20
54.8817
 11
-1.09344
 21
55.0268
  0
LINE
  8
0
 10
-1.09344
 20
55.0268
 11
-0.956131
 21
55.1558
  0
LINE
  8
0
 10
-0.956131
 20
55.1558
 11
-0.803726
 21
55.2665
  0
LINE
  8
0
 10
-0.803726
 20
55.2665
 11
-0.638657
 21
55.3572
  0
LINE
  8
0
 10
-0.638657
 20
55.3572
 11
-0.463516
 21
55.4266
  0
LINE
  8
0
 10
-0.463516
 20
55.4266
 11
-0.281067
 21
55.4734
  0
LINE
  8
0
 10
-0.281067
 20
55.4734
 11
-0.0941772
 21
55.497
  0
LINE
  8
0
 10
-0.0941772
 20
55.497
 11
0.0941772
 21
55.497
  0
LINE
  8
0
 10
0.0941772
 20
55.497
 11
0.281067
 21
55.4734
  0
LINE
  8
0
 10
0.281067
 20
55.4734
 11
0.463516
 21
55.4266
  0
LINE
  8
0
 10
0.463516
 20
55.4266
 11
0.638657
 21
55.3572
  0
LINE
  8
0
 10
0.638657
 20
55.3572
 11
0.803726
 21
55.2665
  0
LINE
  8
0
 10
0.803726
 20
55.2665
 11
0.956131
 21
55.1558
  0
LINE
  8
0
 10
0.956131
 20
55.1558
 11
1.09344
 21
55.0268
  0
LINE
  8
0
 10
1.09344
 20
55.0268
 11
1.21352
 21
54.8817
  0
LINE
  8
0
 10
1.21352
 20
54.8817
 11
1.31445
 21
54.7226
  0
LINE
  8
0
 10
1.31445
 20
54.7226
 11
1.39465
 21
54.5522
  0
LINE
  8
0
 10
1.39465
 20
54.5522
 11
1.45287
 21
54.373
  0
LINE
  8
0
 10
1.45287
 20
54.373
 11
1.48816
 21
54.188
  0
LINE
  8
0
 10
1.48816
 20
54.188
 11
1.5
 21
54
  0
LINE
  8
0
 10
1.5
 20
54
 11
1.48816
 21
53.812
  0
LINE
  8
0
 10
1.48816
 20
53.812
 11
1.45287
 21
53.627
  0
LINE
  8
0
 10
1.45287
 20
53.627
 11
1.39465
 21
53.4478
  0
LINE
  8
0
 10
1.39465
 20
53.4478
 11
1.31445
 21
53.2774
  0
LINE
  8
0
 10
1.31445
 20
53.2774
 11
1.21352
 21
53.1183
  0
LINE
  8
0
 10
1.21352
 20
53.1183
 11
1.09344
 21
52.9732
  0
LINE
  8
0
 10
1.09344
 20
52.9732
 11
0.956131
 21
52.8442
  0
LINE
  8
0
 10
0.956131
 20
52.8442
 11
0.803726
 21
52.7335
  0
LINE
  8
0
 10
0.803726
 20
52.7335
 11
0.638657
 21
52.6428
  0
LINE
  8
0
 10
0.638657
 20
52.6428
 11
0.463516
 21
52.5734
  0
LINE
  8
0
 10
0.463516
 20
52.5734
 11
0.281067
 21
52.5266
  0
LINE
  8
0
 10
0.281067
 20
52.5266
 11
0.0941772
 21
52.503
  0
LINE
  8
0
 10
0.0941772
 20
52.503
 11
-0.0941772
 21
52.503
  0
LINE
  8
0
 10
14.9058
 20
52.503
 11
14.7189
 21
52.5266
  0
LINE
  8
0
 10
14.7189
 20
52.5266
 11
14.5365
 21
52.5734
  0
LINE
  8
0
 10
14.5365
 20
52.5734
 11
14.3613
 21
52.6428
  0
LINE
  8
0
 10
14.3613
 20
52.6428
 11
14.1963
 21
52.7335
  0
LINE
  8
0
 10
14.1963
 20
52.7335
 11
14.0439
 21
52.8442
  0
LINE
  8
0
 10
14.0439
 20
52.8442
 11
13.9065
 21
52.9732
  0
LINE
  8
0
 10
13.9065
 20
52.9732
 11
13.7865
 21
53.1183
  0
LINE
  8
0
 10
13.7865
 20
53.1183
 11
13.6855
 21
53.2774
  0
LINE
  8
0
 10
13.6855
 20
53.2774
 11
13.6053
 21
53.4478
  0
LINE
  8
0
 10
13.6053
 20
53.4478
 11
13.5471
 21
53.627
  0
LINE
  8
0
 10
13.5471
 20
53.627
 11
13.5118
 21
53.812
  0
LINE
  8
0
 10
13.5118
 20
53.812
 11
13.5
 21
54
  0
LINE
  8
0
 10
13.5
 20
54
 11
13.5118
 21
54.188
  0
LINE
  8
0
 10
13.5118
 20
54.188
 11
13.5471
 21
54.373
  0
LINE
  8
0
 10
13.5471
 20
54.373
 11
13.6053
 21
54.5522
  0
LINE
  8
0
 10
13.6053
 20
54.5522
 11
13.6855
 21
54.7226
  0
LINE
  8
0
 10
13.6855
 20
54.7226
 11
13.7865
 21
54.8817
  0
LINE
  8
0
 10
13.7865
 20
54.8817
 11
13.9065
 21
55.0268
  0
LINE
  8
0
 10
13.9065
 20
55.0268
 11
14.0439
 21
55.1558
  0
LINE
  8
0
 10
14.0439
 20
55.1558
 11
14.1963
 21
55.2665
  0
LINE
  8
0
 10
14.1963
 20
55.2665
 11
14.3613
 21
55.3572
  0
LINE
  8
0
 10
14.3613
 20
55.3572
 11
14.5365
 21
55.4266
  0
LINE
  8
0
 10
14.5365
 20
55.4266
 11
14.7189
 21
55.4734
  0
LINE
  8
0
 10
14.7189
 20
55.4734
 11
14.9058
 21
55.497
  0
LINE
  8
0
 10
14.9058
 20
55.497
 11
15.0942
 21
55.497
  0
LINE
  8
0
 10
15.0942
 20
55.497
 11
15.2811
 21
55.4734
  0
LINE
  8
0
 10
15.2811
 20
55.4734
 11
15.4635
 21
55.4266
  0
LINE
  8
0
 10
15.4635
 20
55.4266
 11
15.6387
 21
55.3572
  0
LINE
  8
0
 10
15.6387
 20
55.3572
 11
15.8037
 21
55.2665
  0
LINE
  8
0
 10
15.8037
 20
55.2665
 11
15.9561
 21
55.1558
  0
LINE
  8
0
 10
15.9561
 20
55.1558
 11
16.0934
 21
55.0268
  0
LINE
  8
0
 10
16.0934
 20
55.0268
 11
16.2135
 21
54.8817
  0
LINE
  8
0
 10
16.2135
 20
54.8817
 11
16.3145
 21
54.7226
  0
LINE
  8
0
 10
16.3145
 20
54.7226
 11
16.3947
 21
54.5522
  0
LINE
  8
0
 10
16.3947
 20
54.5522
 11
16.4529
 21
54.373
  0
LINE
  8
0
 10
16.4529
 20
54.373
 11
16.4882
 21
54.188
  0
LINE
  8
0
 10
16.4882
 20
54.188
 11
16.5
 21
54
  0
LINE
  8
0
 10
16.5
 20
54
 11
16.4882
 21
53.812
  0
LINE
  8
0
 10
16.4882
 20
53.812
 11
16.4529
 21
53.627
  0
LINE
  8
0
 10
16.4529
 20
53.627
 11
16.3947
 21
53.4478
  0
LINE
  8
0
 10
16.3947
 20
53.4478
 11
16.3145
 21
53.2774
  0
LINE
  8
0
 10
16.3145
 20
53.2774
 11
16.2135
 21
53.1183
  0
LINE
  8
0
 10
16.2135
 20
53.1183
 11
16.0934
 21
52.9732
  0
LINE
  8
0
 10
16.0934
 20
52.9732
 11
15.9561
 21
52.8442
  0
LINE
  8
0
 10
15.9561
 20
52.8442
 11
15.8037
 21
52.7335
  0
LINE
  8
0
 10
15.8037
 20
52.7335
 11
15.6387
 21
52.6428
  0
LINE
  8
0
 10
15.6387
 20
52.6428
 11
15.4635
 21
52.5734
  0
LINE
  8
0
 10
15.4635
 20
52.5734
 11
15.2811
 21
52.5266
  0
LINE
  8
0
 10
15.2811
 20
52.5266
 11
15.0942
 21
52.503
  0
LINE
  8
0
 10
15.0942
 20
52.503
 11
14.9058
 21
52.503
  0
LINE
  8
0
 10
-15.0942
 20
52.503
 11
-15.2811
 21
52.5266
  0
LINE
  8
0
 10
-15.2811
 20
52.5266
 11
-15.4635
 21
52.5734
  0
LINE
  8
0
 10
-15.4635
 20
52.5734
 11
-15.6387
 21
52.6428
  0
LINE
  8
0
 10
-15.6387
 20
52.6428
 11
-15.8037
 21
52.7335
  0
LINE
  8
0
 10
-15.8037
 20
52.7335
 11
-15.9561
 21
52.8442
  0
LINE
  8
0
 10
-15.9561
 20
52.8442
 11
-16.0934
 21
52.9732
  0
LINE
  8
0
 10
-16.0934
 20
52.9732
 11
-16.2135
 21
53.1183
  0
LINE
  8
0
 10
-16.2135
 20
53.1183
 11
-16.3145
 21
53.2774
  0
LINE
  8
0
 10
-16.3145
 20
53.2774
 11
-16.3947
 21
53.4478
  0
LINE
  8
0
 10
-16.3947
 20
53.4478
 11
-16.4529
 21
53.627
  0
LINE
  8
0
 10
-16.4529
 20
53.627
 11
-16.4882
 21
53.812
  0
LINE
  8
0
 10
-16.4882
 20
53.812
 11
-16.5
 21
54
  0
LINE
  8
0
 10
-16.5
 20
54
 11
-16.4882
 21
54.188
  0
LINE
  8
0
 10
-16.4882
 20
54.188
 11
-16.4529
 21
54.373
  0
LINE
  8
0
 10
-16.4529
 20
54.373
 11
-16.3947
 21
54.5522
  0
LINE
  8
0
 10
-16.3947
 20
54.5522
 11
-16.3145
 21
54.7226
  0
LINE
  8
0
 10
-16.3145
 20
54.7226
 11
-16.2135
 21
54.8817
  0
LINE
  8
0
 10
-16.2135
 20
54.8817
 11
-16.0934
 21
55.0268
  0
LINE
  8
0
 10
-16.0934
 20
55.0268
 11
-15.9561
 21
55.1558
  0
LINE
  8
0
 10
-15.9561
 20
55.1558
 11
-15.8037
 21
55.2665
  0
LINE
  8
0
 10
-15.8037
 20
55.2665
 11
-15.6387
 21
55.3572
  0
LINE
  8
0
 10
-15.6387
 20
55.3572
 11
-15.4635
 21
55.4266
  0
LINE
  8
0
 10
-15.4635
 20
55.4266
 11
-15.2811
 21
55.4734
  0
LINE
  8
0
 10
-15.2811
 20
55.4734
 11
-15.0942
 21
55.497
  0
LINE
  8
0
 10
-15.0942
 20
55.497
 11
-14.9058
 21
55.497
  0
LINE
  8
0
 10
-14.9058
 20
55.497
 11
-14.7189
 21
55.4734
  0
LINE
  8
0
 10
-14.7189
 20
55.4734
 11
-14.5365
 21
55.4266
  0
LINE
  8
0
 10
-14.5365
 20
55.4266
 11
-14.3613
 21
55.3572
  0
LINE
  8
0
 10
-14.3613
 20
55.3572
 11
-14.1963
 21
55.2665
  0
LINE
  8
0
 10
-14.1963
 20
55.2665
 11
-14.0439
 21
55.1558
  0
LINE
  8
0
 10
-14.0439
 20
55.1558
 11
-13.9065
 21
55.0268
  0
LINE
  8
0
 10
-13.9065
 20
55.0268
 11
-13.7865
 21
54.8817
  0
LINE
  8
0
 10
-13.7865
 20
54.8817
 11
-13.6855
 21
54.7226
  0
LINE
  8
0
 10
-13.6855
 20
54.7226
 11
-13.6053
 21
54.5522
  0
LINE
  8
0
 10
-13.6053
 20
54.5522
 11
-13.5471
 21
54.373
  0
LINE
  8
0
 10
-13.5471
 20
54.373
 11
-13.5118
 21
54.188
  0
LINE
  8
0
 10
-13.5118
 20
54.188
 11
-13.5
 21
54
  0
LINE
  8
0
 10
-13.5
 20
54
 11
-13.5118
 21
53.812
  0
LINE
  8
0
 10
-13.5118
 20
53.812
 11
-13.5471
 21
53.627
  0
LINE
  8
0
 10
-13.5471
 20
53.627
 11
-13.6053
 21
53.4478
  0
LINE
  8
0
 10
-13.6053
 20
53.4478
 11
-13.6855
 21
53.2774
  0
LINE
  8
0
 10
-13.6855
 20
53.2774
 11
-13.7865
 21
53.1183
  0
LINE
  8
0
 10
-13.7865
 20
53.1183
 11
-13.9065
 21
52.9732
  0
LINE
  8
0
 10
-13.9065
 20
52.9732
 11
-14.0439
 21
52.8442
  0
LINE
  8
0
 10
-14.0439
 20
52.8442
 11
-14.1963
 21
52.7335
  0
LINE
  8
0
 10
-14.1963
 20
52.7335
 11
-14.3613
 21
52.6428
  0
LINE
  8
0
 10
-14.3613
 20
52.6428
 11
-14.5365
 21
52.5734
  0
LINE
  8
0
 10
-14.5365
 20
52.5734
 11
-14.7189
 21
52.5266
  0
LINE
  8
0
 10
-14.7189
 20
52.5266
 11
-14.9058
 21
52.503
  0
LINE
  8
0
 10
-14.9058
 20
52.503
 11
-15.0942
 21
52.503
  0
LINE
  8
0
 10
-7.59418
 20
52.503
 11
-7.78107
 21
52.5266
  0
LINE
  8
0
 10
-7.78107
 20
52.5266
 11
-7.96352
 21
52.5734
  0
LINE
  8
0
 10
-7.96352
 20
52.5734
 11
-8.13866
 21
52.6428
  0
LINE
  8
0
 10
-8.13866
 20
52.6428
 11
-8.30373
 21
52.7335
  0
LINE
  8
0
 10
-8.30373
 20
52.7335
 11
-8.45613
 21
52.8442
  0
LINE
  8
0
 10
-8.45613
 20
52.8442
 11
-8.59344
 21
52.9732
  0
LINE
  8
0
 10
-8.59344
 20
52.9732
 11
-8.71352
 21
53.1183
  0
LINE
  8
0
 10
-8.71352
 20
53.1183
 11
-8.81445
 21
53.2774
  0
LINE
  8
0
 10
-8.81445
 20
53.2774
 11
-8.89465
 21
53.4478
  0
LINE
  8
0
 10
-8.89465
 20
53.4478
 11
-8.95287
 21
53.627
  0
LINE
  8
0
 10
-8.95287
 20
53.627
 11
-8.98816
 21
53.812
  0
LINE
  8
0
 10
-8.98816
 20
53.812
 11
-9
 21
54
  0
LINE
  8
0
 10
-9
 20
54
 11
-8.98816
 21
54.188
  0
LINE
  8
0
 10
-8.98816
 20
54.188
 11
-8.95287
 21
54.373
  0
LINE
  8
0
 10
-8.95287
 20
54.373
 11
-8.89465
 21
54.5522
  0
LINE
  8
0
 10
-8.89465
 20
54.5522
 11
-8.81445
 21
54.7226
  0
LINE
  8
0
 10
-8.81445
 20
54.7226
 11
-8.71352
 21
54.8817
  0
LINE
  8
0
 10
-8.71352
 20
54.8817
 11
-8.59344
 21
55.0268
  0
LINE
  8
0
 10
-8.59344
 20
55.0268
 11
-8.45613
 21
55.1558
  0
LINE
  8
0
 10
-8.45613
 20
55.1558
 11
-8.30373
 21
55.2665
  0
LINE
  8
0
 10
-8.30373
 20
55.2665
 11
-8.13866
 21
55.3572
  0
LINE
  8
0
 10
-8.13866
 20
55.3572
 11
-7.96352
 21
55.4266
  0
LINE
  8
0
 10
-7.96352
 20
55.4266
 11
-7.78107
 21
55.4734
  0
LINE
  8
0
 10
-7.78107
 20
55.4734
 11
-7.59418
 21
55.497
  0
LINE
  8
0
 10
-7.59418
 20
55.497
 11
-7.40581
 21
55.497
  0
LINE
  8
0
 10
-7.40581
 20
55.497
 11
-7.21892
 21
55.4734
  0
LINE
  8
0
 10
-7.21892
 20
55.4734
 11
-7.03647
 21
55.4266
  0
LINE
  8
0
 10
-7.03647
 20
55.4266
 11
-6.86133
 21
55.3572
  0
LINE
  8
0
 10
-6.86133
 20
55.3572
 11
-6.69626
 21
55.2665
  0
LINE
  8
0
 10
-6.69626
 20
55.2665
 11
-6.54385
 21
55.1558
  0
LINE
  8
0
 10
-6.54385
 20
55.1558
 11
-6.40654
 21
55.0268
  0
LINE
  8
0
 10
-6.40654
 20
55.0268
 11
-6.28647
 21
54.8817
  0
LINE
  8
0
 10
-6.28647
 20
54.8817
 11
-6.18553
 21
54.7226
  0
LINE
  8
0
 10
-6.18553
 20
54.7226
 11
-6.10533
 21
54.5522
  0
LINE
  8
0
 10
-6.10533
 20
54.5522
 11
-6.04712
 21
54.373
  0
LINE
  8
0
 10
-6.04712
 20
54.373
 11
-6.01183
 21
54.188
  0
LINE
  8
0
 10
-6.01183
 20
54.188
 11
-6
 21
54
  0
LINE
  8
0
 10
-6
 20
54
 11
-6.01183
 21
53.812
  0
LINE
  8
0
 10
-6.01183
 20
53.812
 11
-6.04712
 21
53.627
  0
LINE
  8
0
 10
-6.04712
 20
53.627
 11
-6.10533
 21
53.4478
  0
LINE
  8
0
 10
-6.10533
 20
53.4478
 11
-6.18553
 21
53.2774
  0
LINE
  8
0
 10
-6.18553
 20
53.2774
 11
-6.28647
 21
53.1183
  0
LINE
  8
0
 10
-6.28647
 20
53.1183
 11
-6.40654
 21
52.9732
  0
LINE
  8
0
 10
-6.40654
 20
52.9732
 11
-6.54385
 21
52.8442
  0
LINE
  8
0
 10
-6.54385
 20
52.8442
 11
-6.69626
 21
52.7335
  0
LINE
  8
0
 10
-6.69626
 20
52.7335
 11
-6.86133
 21
52.6428
  0
LINE
  8
0
 10
-6.86133
 20
52.6428
 11
-7.03647
 21
52.5734
  0
LINE
  8
0
 10
-7.03647
 20
52.5734
 11
-7.21892
 21
52.5266
  0
LINE
  8
0
 10
-7.21892
 20
52.5266
 11
-7.40581
 21
52.503
  0
LINE
  8
0
 10
-7.40581
 20
52.503
 11
-7.59418
 21
52.503
  0
LINE
  8
0
 10
22.4058
 20
52.503
 11
22.2189
 21
52.5266
  0
LINE
  8
0
 10
22.2189
 20
52.5266
 11
22.0365
 21
52.5734
  0
LINE
  8
0
 10
22.0365
 20
52.5734
 11
21.8613
 21
52.6428
  0
LINE
  8
0
 10
21.8613
 20
52.6428
 11
21.6963
 21
52.7335
  0
LINE
  8
0
 10
21.6963
 20
52.7335
 11
21.5439
 21
52.8442
  0
LINE
  8
0
 10
21.5439
 20
52.8442
 11
21.4065
 21
52.9732
  0
LINE
  8
0
 10
21.4065
 20
52.9732
 11
21.2865
 21
53.1183
  0
LINE
  8
0
 10
21.2865
 20
53.1183
 11
21.1855
 21
53.2774
  0
LINE
  8
0
 10
21.1855
 20
53.2774
 11
21.1053
 21
53.4478
  0
LINE
  8
0
 10
21.1053
 20
53.4478
 11
21.0471
 21
53.627
  0
LINE
  8
0
 10
21.0471
 20
53.627
 11
21.0118
 21
53.812
  0
LINE
  8
0
 10
21.0118
 20
53.812
 11
21
 21
54
  0
LINE
  8
0
 10
21
 20
54
 11
21.0118
 21
54.188
  0
LINE
  8
0
 10
21.0118
 20
54.188
 11
21.0471
 21
54.373
  0
LINE
  8
0
 10
21.0471
 20
54.373
 11
21.1053
 21
54.5522
  0
LINE
  8
0
 10
21.1053
 20
54.5522
 11
21.1855
 21
54.7226
  0
LINE
  8
0
 10
21.1855
 20
54.7226
 11
21.2865
 21
54.8817
  0
LINE
  8
0
 10
21.2865
 20
54.8817
 11
21.4065
 21
55.0268
  0
LINE
  8
0
 10
21.4065
 20
55.0268
 11
21.5439
 21
55.1558
  0
LINE
  8
0
 10
21.5439
 20
55.1558
 11
21.6963
 21
55.2665
  0
LINE
  8
0
 10
21.6963
 20
55.2665
 11
21.8613
 21
55.3572
  0
LINE
  8
0
 10
21.8613
 20
55.3572
 11
22.0365
 21
55.4266
  0
LINE
  8
0
 10
22.0365
 20
55.4266
 11
22.2189
 21
55.4734
  0
LINE
  8
0
 10
22.2189
 20
55.4734
 11
22.4058
 21
55.497
  0
LINE
  8
0
 10
22.4058
 20
55.497
 11
22.5942
 21
55.497
  0
LINE
  8
0
 10
22.5942
 20
55.497
 11
22.7811
 21
55.4734
  0
LINE
  8
0
 10
22.7811
 20
55.4734
 11
22.9635
 21
55.4266
  0
LINE
  8
0
 10
22.9635
 20
55.4266
 11
23.1387
 21
55.3572
  0
LINE
  8
0
 10
23.1387
 20
55.3572
 11
23.3037
 21
55.2665
  0
LINE
  8
0
 10
23.3037
 20
55.2665
 11
23.4561
 21
55.1558
  0
LINE
  8
0
 10
23.4561
 20
55.1558
 11
23.5934
 21
55.0268
  0
LINE
  8
0
 10
23.5934
 20
55.0268
 11
23.7135
 21
54.8817
  0
LINE
  8
0
 10
23.7135
 20
54.8817
 11
23.8145
 21
54.7226
  0
LINE
  8
0
 10
23.8145
 20
54.7226
 11
23.8947
 21
54.5522
  0
LINE
  8
0
 10
23.8947
 20
54.5522
 11
23.9529
 21
54.373
  0
LINE
  8
0
 10
23.9529
 20
54.373
 11
23.9882
 21
54.188
  0
LINE
  8
0
 10
23.9882
 20
54.188
 11
24
 21
54
  0
LINE
  8
0
 10
24
 20
54
 11
23.9882
 21
53.812
  0
LINE
  8
0
 10
23.9882
 20
53.812
 11
23.9529
 21
53.627
  0
LINE
  8
0
 10
23.9529
 20
53.627
 11
23.8947
 21
53.4478
  0
LINE
  8
0
 10
23.8947
 20
53.4478
 11
23.8145
 21
53.2774
  0
LINE
  8
0
 10
23.8145
 20
53.2774
 11
23.7135
 21
53.1183
  0
LINE
  8
0
 10
23.7135
 20
53.1183
 11
23.5934
 21
52.9732
  0
LINE
  8
0
 10
23.5934
 20
52.9732
 11
23.4561
 21
52.8442
  0
LINE
  8
0
 10
23.4561
 20
52.8442
 11
23.3037
 21
52.7335
  0
LINE
  8
0
 10
23.3037
 20
52.7335
 11
23.1387
 21
52.6428
  0
LINE
  8
0
 10
23.1387
 20
52.6428
 11
22.9635
 21
52.5734
  0
LINE
  8
0
 10
22.9635
 20
52.5734
 11
22.7811
 21
52.5266
  0
LINE
  8
0
 10
22.7811
 20
52.5266
 11
22.5942
 21
52.503
  0
LINE
  8
0
 10
22.5942
 20
52.503
 11
22.4058
 21
52.503
  0
LINE
  8
0
 10
-37.5942
 20
52.503
 11
-37.7811
 21
52.5266
  0
LINE
  8
0
 10
-37.7811
 20
52.5266
 11
-37.9635
 21
52.5734
  0
LINE
  8
0
 10
-37.9635
 20
52.5734
 11
-38.1387
 21
52.6428
  0
LINE
  8
0
 10
-38.1387
 20
52.6428
 11
-38.3037
 21
52.7335
  0
LINE
  8
0
 10
-38.3037
 20
52.7335
 11
-38.4561
 21
52.8442
  0
LINE
  8
0
 10
-38.4561
 20
52.8442
 11
-38.5934
 21
52.9732
  0
LINE
  8
0
 10
-38.5934
 20
52.9732
 11
-38.7135
 21
53.1183
  0
LINE
  8
0
 10
-38.7135
 20
53.1183
 11
-38.8145
 21
53.2774
  0
LINE
  8
0
 10
-38.8145
 20
53.2774
 11
-38.8947
 21
53.4478
  0
LINE
  8
0
 10
-38.8947
 20
53.4478
 11
-38.9529
 21
53.627
  0
LINE
  8
0
 10
-38.9529
 20
53.627
 11
-38.9882
 21
53.812
  0
LINE
  8
0
 10
-38.9882
 20
53.812
 11
-39
 21
54
  0
LINE
  8
0
 10
-39
 20
54
 11
-38.9882
 21
54.188
  0
LINE
  8
0
 10
-38.9882
 20
54.188
 11
-38.9529
 21
54.373
  0
LINE
  8
0
 10
-38.9529
 20
54.373
 11
-38.8947
 21
54.5522
  0
LINE
  8
0
 10
-38.8947
 20
54.5522
 11
-38.8145
 21
54.7226
  0
LINE
  8
0
 10
-38.8145
 20
54.7226
 11
-38.7135
 21
54.8817
  0
LINE
  8
0
 10
-38.7135
 20
54.8817
 11
-38.5934
 21
55.0268
  0
LINE
  8
0
 10
-38.5934
 20
55.0268
 11
-38.4561
 21
55.1558
  0
LINE
  8
0
 10
-38.4561
 20
55.1558
 11
-38.3037
 21
55.2665
  0
LINE
  8
0
 10
-38.3037
 20
55.2665
 11
-38.1387
 21
55.3572
  0
LINE
  8
0
 10
-38.1387
 20
55.3572
 11
-37.9635
 21
55.4266
  0
LINE
  8
0
 10
-37.9635
 20
55.4266
 11
-37.7811
 21
55.4734
  0
LINE
  8
0
 10
-37.7811
 20
55.4734
 11
-37.5942
 21
55.497
  0
LINE
  8
0
 10
-37.5942
 20
55.497
 11
-37.4058
 21
55.497
  0
LINE
  8
0
 10
-37.4058
 20
55.497
 11
-37.2189
 21
55.4734
  0
LINE
  8
0
 10
-37.2189
 20
55.4734
 11
-37.0365
 21
55.4266
  0
LINE
  8
0
 10
-37.0365
 20
55.4266
 11
-36.8613
 21
55.3572
  0
LINE
  8
0
 10
-36.8613
 20
55.3572
 11
-36.6963
 21
55.2665
  0
LINE
  8
0
 10
-36.6963
 20
55.2665
 11
-36.5439
 21
55.1558
  0
LINE
  8
0
 10
-36.5439
 20
55.1558
 11
-36.4065
 21
55.0268
  0
LINE
  8
0
 10
-36.4065
 20
55.0268
 11
-36.2865
 21
54.8817
  0
LINE
  8
0
 10
-36.2865
 20
54.8817
 11
-36.1855
 21
54.7226
  0
LINE
  8
0
 10
-36.1855
 20
54.7226
 11
-36.1053
 21
54.5522
  0
LINE
  8
0
 10
-36.1053
 20
54.5522
 11
-36.0471
 21
54.373
  0
LINE
  8
0
 10
-36.0471
 20
54.373
 11
-36.0118
 21
54.188
  0
LINE
  8
0
 10
-36.0118
 20
54.188
 11
-36
 21
54
  0
LINE
  8
0
 10
-36
 20
54
 11
-36.0118
 21
53.812
  0
LINE
  8
0
 10
-36.0118
 20
53.812
 11
-36.0471
 21
53.627
  0
LINE
  8
0
 10
-36.0471
 20
53.627
 11
-36.1053
 21
53.4478
  0
LINE
  8
0
 10
-36.1053
 20
53.4478
 11
-36.1855
 21
53.2774
  0
LINE
  8
0
 10
-36.1855
 20
53.2774
 11
-36.2865
 21
53.1183
  0
LINE
  8
0
 10
-36.2865
 20
53.1183
 11
-36.4065
 21
52.9732
  0
LINE
  8
0
 10
-36.4065
 20
52.9732
 11
-36.5439
 21
52.8442
  0
LINE
  8
0
 10
-36.5439
 20
52.8442
 11
-36.6963
 21
52.7335
  0
LINE
  8
0
 10
-36.6963
 20
52.7335
 11
-36.8613
 21
52.6428
  0
LINE
  8
0
 10
-36.8613
 20
52.6428
 11
-37.0365
 21
52.5734
  0
LINE
  8
0
 10
-37.0365
 20
52.5734
 11
-37.2189
 21
52.5266
  0
LINE
  8
0
 10
-37.2189
 20
52.5266
 11
-37.4058
 21
52.503
  0
LINE
  8
0
 10
-37.4058
 20
52.503
 11
-37.5942
 21
52.503
  0
LINE
  8
0
 10
29.9058
 20
52.503
 11
29.7189
 21
52.5266
  0
LINE
  8
0
 10
29.7189
 20
52.5266
 11
29.5365
 21
52.5734
  0
LINE
  8
0
 10
29.5365
 20
52.5734
 11
29.3613
 21
52.6428
  0
LINE
  8
0
 10
29.3613
 20
52.6428
 11
29.1963
 21
52.7335
  0
LINE
  8
0
 10
29.1963
 20
52.7335
 11
29.0439
 21
52.8442
  0
LINE
  8
0
 10
29.0439
 20
52.8442
 11
28.9065
 21
52.9732
  0
LINE
  8
0
 10
28.9065
 20
52.9732
 11
28.7865
 21
53.1183
  0
LINE
  8
0
 10
28.7865
 20
53.1183
 11
28.6855
 21
53.2774
  0
LINE
  8
0
 10
28.6855
 20
53.2774
 11
28.6053
 21
53.4478
  0
LINE
  8
0
 10
28.6053
 20
53.4478
 11
28.5471
 21
53.627
  0
LINE
  8
0
 10
28.5471
 20
53.627
 11
28.5118
 21
53.812
  0
LINE
  8
0
 10
28.5118
 20
53.812
 11
28.5
 21
54
  0
LINE
  8
0
 10
28.5
 20
54
 11
28.5118
 21
54.188
  0
LINE
  8
0
 10
28.5118
 20
54.188
 11
28.5471
 21
54.373
  0
LINE
  8
0
 10
28.5471
 20
54.373
 11
28.6053
 21
54.5522
  0
LINE
  8
0
 10
28.6053
 20
54.5522
 11
28.6855
 21
54.7226
  0
LINE
  8
0
 10
28.6855
 20
54.7226
 11
28.7865
 21
54.8817
  0
LINE
  8
0
 10
28.7865
 20
54.8817
 11
28.9065
 21
55.0268
  0
LINE
  8
0
 10
28.9065
 20
55.0268
 11
29.0439
 21
55.1558
  0
LINE
  8
0
 10
29.0439
 20
55.1558
 11
29.1963
 21
55.2665
  0
LINE
  8
0
 10
29.1963
 20
55.2665
 11
29.3613
 21
55.3572
  0
LINE
  8
0
 10
29.3613
 20
55.3572
 11
29.5365
 21
55.4266
  0
LINE
  8
0
 10
29.5365
 20
55.4266
 11
29.7189
 21
55.4734
  0
LINE
  8
0
 10
29.7189
 20
55.4734
 11
29.9058
 21
55.497
  0
LINE
  8
0
 10
29.9058
 20
55.497
 11
30.0942
 21
55.497
  0
LINE
  8
0
 10
30.0942
 20
55.497
 11
30.2811
 21
55.4734
  0
LINE
  8
0
 10
30.2811
 20
55.4734
 11
30.4635
 21
55.4266
  0
LINE
  8
0
 10
30.4635
 20
55.4266
 11
30.6387
 21
55.3572
  0
LINE
  8
0
 10
30.6387
 20
55.3572
 11
30.8037
 21
55.2665
  0
LINE
  8
0
 10
30.8037
 20
55.2665
 11
30.9561
 21
55.1558
  0
LINE
  8
0
 10
30.9561
 20
55.1558
 11
31.0934
 21
55.0268
  0
LINE
  8
0
 10
31.0934
 20
55.0268
 11
31.2135
 21
54.8817
  0
LINE
  8
0
 10
31.2135
 20
54.8817
 11
31.3145
 21
54.7226
  0
LINE
  8
0
 10
31.3145
 20
54.7226
 11
31.3947
 21
54.5522
  0
LINE
  8
0
 10
31.3947
 20
54.5522
 11
31.4529
 21
54.373
  0
LINE
  8
0
 10
31.4529
 20
54.373
 11
31.4882
 21
54.188
  0
LINE
  8
0
 10
31.4882
 20
54.188
 11
31.5
 21
54
  0
LINE
  8
0
 10
31.5
 20
54
 11
31.4882
 21
53.812
  0
LINE
  8
0
 10
31.4882
 20
53.812
 11
31.4529
 21
53.627
  0
LINE
  8
0
 10
31.4529
 20
53.627
 11
31.3947
 21
53.4478
  0
LINE
  8
0
 10
31.3947
 20
53.4478
 11
31.3145
 21
53.2774
  0
LINE
  8
0
 10
31.3145
 20
53.2774
 11
31.2135
 21
53.1183
  0
LINE
  8
0
 10
31.2135
 20
53.1183
 11
31.0934
 21
52.9732
  0
LINE
  8
0
 10
31.0934
 20
52.9732
 11
30.9561
 21
52.8442
  0
LINE
  8
0
 10
30.9561
 20
52.8442
 11
30.8037
 21
52.7335
  0
LINE
  8
0
 10
30.8037
 20
52.7335
 11
30.6387
 21
52.6428
  0
LINE
  8
0
 10
30.6387
 20
52.6428
 11
30.4635
 21
52.5734
  0
LINE
  8
0
 10
30.4635
 20
52.5734
 11
30.2811
 21
52.5266
  0
LINE
  8
0
 10
30.2811
 20
52.5266
 11
30.0942
 21
52.503
  0
LINE
  8
0
 10
30.0942
 20
52.503
 11
29.9058
 21
52.503
  0
LINE
  8
0
 10
-0.0941772
 20
45.003
 11
-0.281067
 21
45.0266
  0
LINE
  8
0
 10
-0.281067
 20
45.0266
 11
-0.463516
 21
45.0734
  0
LINE
  8
0
 10
-0.463516
 20
45.0734
 11
-0.638657
 21
45.1428
  0
LINE
  8
0
 10
-0.638657
 20
45.1428
 11
-0.803726
 21
45.2335
  0
LINE
  8
0
 10
-0.803726
 20
45.2335
 11
-0.956131
 21
45.3442
  0
LINE
  8
0
 10
-0.956131
 20
45.3442
 11
-1.09344
 21
45.4732
  0
LINE
  8
0
 10
-1.09344
 20
45.4732
 11
-1.21352
 21
45.6183
  0
LINE
  8
0
 10
-1.21352
 20
45.6183
 11
-1.31445
 21
45.7774
  0
LINE
  8
0
 10
-1.31445
 20
45.7774
 11
-1.39465
 21
45.9478
  0
LINE
  8
0
 10
-1.39465
 20
45.9478
 11
-1.45287
 21
46.127
  0
LINE
  8
0
 10
-1.45287
 20
46.127
 11
-1.48816
 21
46.312
  0
LINE
  8
0
 10
-1.48816
 20
46.312
 11
-1.5
 21
46.5
  0
LINE
  8
0
 10
-1.5
 20
46.5
 11
-1.48816
 21
46.688
  0
LINE
  8
0
 10
-1.48816
 20
46.688
 11
-1.45287
 21
46.873
  0
LINE
  8
0
 10
-1.45287
 20
46.873
 11
-1.39465
 21
47.0522
  0
LINE
  8
0
 10
-1.39465
 20
47.0522
 11
-1.31445
 21
47.2226
  0
LINE
  8
0
 10
-1.31445
 20
47.2226
 11
-1.21352
 21
47.3817
  0
LINE
  8
0
 10
-1.21352
 20
47.3817
 11
-1.09344
 21
47.5268
  0
LINE
  8
0
 10
-1.09344
 20
47.5268
 11
-0.956131
 21
47.6558
  0
LINE
  8
0
 10
-0.956131
 20
47.6558
 11
-0.803726
 21
47.7665
  0
LINE
  8
0
 10
-0.803726
 20
47.7665
 11
-0.638657
 21
47.8573
  0
LINE
  8
0
 10
-0.638657
 20
47.8573
 11
-0.463516
 21
47.9266
  0
LINE
  8
0
 10
-0.463516
 20
47.9266
 11
-0.281067
 21
47.9734
  0
LINE
  8
0
 10
-0.281067
 20
47.9734
 11
-0.0941772
 21
47.9971
  0
LINE
  8
0
 10
-0.0941772
 20
47.9971
 11
0.0941772
 21
47.9971
  0
LINE
  8
0
 10
0.0941772
 20
47.9971
 11
0.281067
 21
47.9734
  0
LINE
  8
0
 10
0.281067
 20
47.9734
 11
0.463516
 21
47.9266
  0
LINE
  8
0
 10
0.463516
 20
47.9266
 11
0.638657
 21
47.8573
  0
LINE
  8
0
 10
0.638657
 20
47.8573
 11
0.803726
 21
47.7665
  0
LINE
  8
0
 10
0.803726
 20
47.7665
 11
0.956131
 21
47.6558
  0
LINE
  8
0
 10
0.956131
 20
47.6558
 11
1.09344
 21
47.5268
  0
LINE
  8
0
 10
1.09344
 20
47.5268
 11
1.21352
 21
47.3817
  0
LINE
  8
0
 10
1.21352
 20
47.3817
 11
1.31445
 21
47.2226
  0
LINE
  8
0
 10
1.31445
 20
47.2226
 11
1.39465
 21
47.0522
  0
LINE
  8
0
 10
1.39465
 20
47.0522
 11
1.45287
 21
46.873
  0
LINE
  8
0
 10
1.45287
 20
46.873
 11
1.48816
 21
46.688
  0
LINE
  8
0
 10
1.48816
 20
46.688
 11
1.5
 21
46.5
  0
LINE
  8
0
 10
1.5
 20
46.5
 11
1.48816
 21
46.312
  0
LINE
  8
0
 10
1.48816
 20
46.312
 11
1.45287
 21
46.127
  0
LINE
  8
0
 10
1.45287
 20
46.127
 11
1.39465
 21
45.9478
  0
LINE
  8
0
 10
1.39465
 20
45.9478
 11
1.31445
 21
45.7774
  0
LINE
  8
0
 10
1.31445
 20
45.7774
 11
1.21352
 21
45.6183
  0
LINE
  8
0
 10
1.21352
 20
45.6183
 11
1.09344
 21
45.4732
  0
LINE
  8
0
 10
1.09344
 20
45.4732
 11
0.956131
 21
45.3442
  0
LINE
  8
0
 10
0.956131
 20
45.3442
 11
0.803726
 21
45.2335
  0
LINE
  8
0
 10
0.803726
 20
45.2335
 11
0.638657
 21
45.1428
  0
LINE
  8
0
 10
0.638657
 20
45.1428
 11
0.463516
 21
45.0734
  0
LINE
  8
0
 10
0.463516
 20
45.0734
 11
0.281067
 21
45.0266
  0
LINE
  8
0
 10
0.281067
 20
45.0266
 11
0.0941772
 21
45.003
  0
LINE
  8
0
 10
0.0941772
 20
45.003
 11
-0.0941772
 21
45.003
  0
LINE
  8
0
 10
22.4058
 20
45.003
 11
22.2189
 21
45.0266
  0
LINE
  8
0
 10
22.2189
 20
45.0266
 11
22.0365
 21
45.0734
  0
LINE
  8
0
 10
22.0365
 20
45.0734
 11
21.8613
 21
45.1428
  0
LINE
  8
0
 10
21.8613
 20
45.1428
 11
21.6963
 21
45.2335
  0
LINE
  8
0
 10
21.6963
 20
45.2335
 11
21.5439
 21
45.3442
  0
LINE
  8
0
 10
21.5439
 20
45.3442
 11
21.4065
 21
45.4732
  0
LINE
  8
0
 10
21.4065
 20
45.4732
 11
21.2865
 21
45.6183
  0
LINE
  8
0
 10
21.2865
 20
45.6183
 11
21.1855
 21
45.7774
  0
LINE
  8
0
 10
21.1855
 20
45.7774
 11
21.1053
 21
45.9478
  0
LINE
  8
0
 10
21.1053
 20
45.9478
 11
21.0471
 21
46.127
  0
LINE
  8
0
 10
21.0471
 20
46.127
 11
21.0118
 21
46.312
  0
LINE
  8
0
 10
21.0118
 20
46.312
 11
21
 21
46.5
  0
LINE
  8
0
 10
21
 20
46.5
 11
21.0118
 21
46.688
  0
LINE
  8
0
 10
21.0118
 20
46.688
 11
21.0471
 21
46.873
  0
LINE
  8
0
 10
21.0471
 20
46.873
 11
21.1053
 21
47.0522
  0
LINE
  8
0
 10
21.1053
 20
47.0522
 11
21.1855
 21
47.2226
  0
LINE
  8
0
 10
21.1855
 20
47.2226
 11
21.2865
 21
47.3817
  0
LINE
  8
0
 10
21.2865
 20
47.3817
 11
21.4065
 21
47.5268
  0
LINE
  8
0
 10
21.4065
 20
47.5268
 11
21.5439
 21
47.6558
  0
LINE
  8
0
 10
21.5439
 20
47.6558
 11
21.6963
 21
47.7665
  0
LINE
  8
0
 10
21.6963
 20
47.7665
 11
21.8613
 21
47.8573
  0
LINE
  8
0
 10
21.8613
 20
47.8573
 11
22.0365
 21
47.9266
  0
LINE
  8
0
 10
22.0365
 20
47.9266
 11
22.2189
 21
47.9734
  0
LINE
  8
0
 10
22.2189
 20
47.9734
 11
22.4058
 21
47.9971
  0
LINE
  8
0
 10
22.4058
 20
47.9971
 11
22.5942
 21
47.9971
  0
LINE
  8
0
 10
22.5942
 20
47.9971
 11
22.7811
 21
47.9734
  0
LINE
  8
0
 10
22.7811
 20
47.9734
 11
22.9635
 21
47.9266
  0
LINE
  8
0
 10
22.9635
 20
47.9266
 11
23.1387
 21
47.8573
  0
LINE
  8
0
 10
23.1387
 20
47.8573
 11
23.3037
 21
47.7665
  0
LINE
  8
0
 10
23.3037
 20
47.7665
 11
23.4561
 21
47.6558
  0
LINE
  8
0
 10
23.4561
 20
47.6558
 11
23.5934
 21
47.5268
  0
LINE
  8
0
 10
23.5934
 20
47.5268
 11
23.7135
 21
47.3817
  0
LINE
  8
0
 10
23.7135
 20
47.3817
 11
23.8145
 21
47.2226
  0
LINE
  8
0
 10
23.8145
 20
47.2226
 11
23.8947
 21
47.0522
  0
LINE
  8
0
 10
23.8947
 20
47.0522
 11
23.9529
 21
46.873
  0
LINE
  8
0
 10
23.9529
 20
46.873
 11
23.9882
 21
46.688
  0
LINE
  8
0
 10
23.9882
 20
46.688
 11
24
 21
46.5
  0
LINE
  8
0
 10
24
 20
46.5
 11
23.9882
 21
46.312
  0
LINE
  8
0
 10
23.9882
 20
46.312
 11
23.9529
 21
46.127
  0
LINE
  8
0
 10
23.9529
 20
46.127
 11
23.8947
 21
45.9478
  0
LINE
  8
0
 10
23.8947
 20
45.9478
 11
23.8145
 21
45.7774
  0
LINE
  8
0
 10
23.8145
 20
45.7774
 11
23.7135
 21
45.6183
  0
LINE
  8
0
 10
23.7135
 20
45.6183
 11
23.5934
 21
45.4732
  0
LINE
  8
0
 10
23.5934
 20
45.4732
 11
23.4561
 21
45.3442
  0
LINE
  8
0
 10
23.4561
 20
45.3442
 11
23.3037
 21
45.2335
  0
LINE
  8
0
 10
23.3037
 20
45.2335
 11
23.1387
 21
45.1428
  0
LINE
  8
0
 10
23.1387
 20
45.1428
 11
22.9635
 21
45.0734
  0
LINE
  8
0
 10
22.9635
 20
45.0734
 11
22.7811
 21
45.0266
  0
LINE
  8
0
 10
22.7811
 20
45.0266
 11
22.5942
 21
45.003
  0
LINE
  8
0
 10
22.5942
 20
45.003
 11
22.4058
 21
45.003
  0
LINE
  8
0
 10
37.4058
 20
45.003
 11
37.2189
 21
45.0266
  0
LINE
  8
0
 10
37.2189
 20
45.0266
 11
37.0365
 21
45.0734
  0
LINE
  8
0
 10
37.0365
 20
45.0734
 11
36.8613
 21
45.1428
  0
LINE
  8
0
 10
36.8613
 20
45.1428
 11
36.6963
 21
45.2335
  0
LINE
  8
0
 10
36.6963
 20
45.2335
 11
36.5439
 21
45.3442
  0
LINE
  8
0
 10
36.5439
 20
45.3442
 11
36.4065
 21
45.4732
  0
LINE
  8
0
 10
36.4065
 20
45.4732
 11
36.2865
 21
45.6183
  0
LINE
  8
0
 10
36.2865
 20
45.6183
 11
36.1855
 21
45.7774
  0
LINE
  8
0
 10
36.1855
 20
45.7774
 11
36.1053
 21
45.9478
  0
LINE
  8
0
 10
36.1053
 20
45.9478
 11
36.0471
 21
46.127
  0
LINE
  8
0
 10
36.0471
 20
46.127
 11
36.0118
 21
46.312
  0
LINE
  8
0
 10
36.0118
 20
46.312
 11
36
 21
46.5
  0
LINE
  8
0
 10
36
 20
46.5
 11
36.0118
 21
46.688
  0
LINE
  8
0
 10
36.0118
 20
46.688
 11
36.0471
 21
46.873
  0
LINE
  8
0
 10
36.0471
 20
46.873
 11
36.1053
 21
47.0522
  0
LINE
  8
0
 10
36.1053
 20
47.0522
 11
36.1855
 21
47.2226
  0
LINE
  8
0
 10
36.1855
 20
47.2226
 11
36.2865
 21
47.3817
  0
LINE
  8
0
 10
36.2865
 20
47.3817
 11
36.4065
 21
47.5268
  0
LINE
  8
0
 10
36.4065
 20
47.5268
 11
36.5439
 21
47.6558
  0
LINE
  8
0
 10
36.5439
 20
47.6558
 11
36.6963
 21
47.7665
  0
LINE
  8
0
 10
36.6963
 20
47.7665
 11
36.8613
 21
47.8573
  0
LINE
  8
0
 10
36.8613
 20
47.8573
 11
37.0365
 21
47.9266
  0
LINE
  8
0
 10
37.0365
 20
47.9266
 11
37.2189
 21
47.9734
  0
LINE
  8
0
 10
37.2189
 20
47.9734
 11
37.4058
 21
47.9971
  0
LINE
  8
0
 10
37.4058
 20
47.9971
 11
37.5942
 21
47.9971
  0
LINE
  8
0
 10
37.5942
 20
47.9971
 11
37.7811
 21
47.9734
  0
LINE
  8
0
 10
37.7811
 20
47.9734
 11
37.9635
 21
47.9266
  0
LINE
  8
0
 10
37.9635
 20
47.9266
 11
38.1387
 21
47.8573
  0
LINE
  8
0
 10
38.1387
 20
47.8573
 11
38.3037
 21
47.7665
  0
LINE
  8
0
 10
38.3037
 20
47.7665
 11
38.4561
 21
47.6558
  0
LINE
  8
0
 10
38.4561
 20
47.6558
 11
38.5934
 21
47.5268
  0
LINE
  8
0
 10
38.5934
 20
47.5268
 11
38.7135
 21
47.3817
  0
LINE
  8
0
 10
38.7135
 20
47.3817
 11
38.8145
 21
47.2226
  0
LINE
  8
0
 10
38.8145
 20
47.2226
 11
38.8947
 21
47.0522
  0
LINE
  8
0
 10
38.8947
 20
47.0522
 11
38.9529
 21
46.873
  0
LINE
  8
0
 10
38.9529
 20
46.873
 11
38.9882
 21
46.688
  0
LINE
  8
0
 10
38.9882
 20
46.688
 11
39
 21
46.5
  0
LINE
  8
0
 10
39
 20
46.5
 11
38.9882
 21
46.312
  0
LINE
  8
0
 10
38.9882
 20
46.312
 11
38.9529
 21
46.127
  0
LINE
  8
0
 10
38.9529
 20
46.127
 11
38.8947
 21
45.9478
  0
LINE
  8
0
 10
38.8947
 20
45.9478
 11
38.8145
 21
45.7774
  0
LINE
  8
0
 10
38.8145
 20
45.7774
 11
38.7135
 21
45.6183
  0
LINE
  8
0
 10
38.7135
 20
45.6183
 11
38.5934
 21
45.4732
  0
LINE
  8
0
 10
38.5934
 20
45.4732
 11
38.4561
 21
45.3442
  0
LINE
  8
0
 10
38.4561
 20
45.3442
 11
38.3037
 21
45.2335
  0
LINE
  8
0
 10
38.3037
 20
45.2335
 11
38.1387
 21
45.1428
  0
LINE
  8
0
 10
38.1387
 20
45.1428
 11
37.9635
 21
45.0734
  0
LINE
  8
0
 10
37.9635
 20
45.0734
 11
37.7811
 21
45.0266
  0
LINE
  8
0
 10
37.7811
 20
45.0266
 11
37.5942
 21
45.003
  0
LINE
  8
0
 10
37.5942
 20
45.003
 11
37.4058
 21
45.003
  0
LINE
  8
0
 10
14.9058
 20
45.003
 11
14.7189
 21
45.0266
  0
LINE
  8
0
 10
14.7189
 20
45.0266
 11
14.5365
 21
45.0734
  0
LINE
  8
0
 10
14.5365
 20
45.0734
 11
14.3613
 21
45.1428
  0
LINE
  8
0
 10
14.3613
 20
45.1428
 11
14.1963
 21
45.2335
  0
LINE
  8
0
 10
14.1963
 20
45.2335
 11
14.0439
 21
45.3442
  0
LINE
  8
0
 10
14.0439
 20
45.3442
 11
13.9065
 21
45.4732
  0
LINE
  8
0
 10
13.9065
 20
45.4732
 11
13.7865
 21
45.6183
  0
LINE
  8
0
 10
13.7865
 20
45.6183
 11
13.6855
 21
45.7774
  0
LINE
  8
0
 10
13.6855
 20
45.7774
 11
13.6053
 21
45.9478
  0
LINE
  8
0
 10
13.6053
 20
45.9478
 11
13.5471
 21
46.127
  0
LINE
  8
0
 10
13.5471
 20
46.127
 11
13.5118
 21
46.312
  0
LINE
  8
0
 10
13.5118
 20
46.312
 11
13.5
 21
46.5
  0
LINE
  8
0
 10
13.5
 20
46.5
 11
13.5118
 21
46.688
  0
LINE
  8
0
 10
13.5118
 20
46.688
 11
13.5471
 21
46.873
  0
LINE
  8
0
 10
13.5471
 20
46.873
 11
13.6053
 21
47.0522
  0
LINE
  8
0
 10
13.6053
 20
47.0522
 11
13.6855
 21
47.2226
  0
LINE
  8
0
 10
13.6855
 20
47.2226
 11
13.7865
 21
47.3817
  0
LINE
  8
0
 10
13.7865
 20
47.3817
 11
13.9065
 21
47.5268
  0
LINE
  8
0
 10
13.9065
 20
47.5268
 11
14.0439
 21
47.6558
  0
LINE
  8
0
 10
14.0439
 20
47.6558
 11
14.1963
 21
47.7665
  0
LINE
  8
0
 10
14.1963
 20
47.7665
 11
14.3613
 21
47.8573
  0
LINE
  8
0
 10
14.3613
 20
47.8573
 11
14.5365
 21
47.9266
  0
LINE
  8
0
 10
14.5365
 20
47.9266
 11
14.7189
 21
47.9734
  0
LINE
  8
0
 10
14.7189
 20
47.9734
 11
14.9058
 21
47.9971
  0
LINE
  8
0
 10
14.9058
 20
47.9971
 11
15.0942
 21
47.9971
  0
LINE
  8
0
 10
15.0942
 20
47.9971
 11
15.2811
 21
47.9734
  0
LINE
  8
0
 10
15.2811
 20
47.9734
 11
15.4635
 21
47.9266
  0
LINE
  8
0
 10
15.4635
 20
47.9266
 11
15.6387
 21
47.8573
  0
LINE
  8
0
 10
15.6387
 20
47.8573
 11
15.8037
 21
47.7665
  0
LINE
  8
0
 10
15.8037
 20
47.7665
 11
15.9561
 21
47.6558
  0
LINE
  8
0
 10
15.9561
 20
47.6558
 11
16.0934
 21
47.5268
  0
LINE
  8
0
 10
16.0934
 20
47.5268
 11
16.2135
 21
47.3817
  0
LINE
  8
0
 10
16.2135
 20
47.3817
 11
16.3145
 21
47.2226
  0
LINE
  8
0
 10
16.3145
 20
47.2226
 11
16.3947
 21
47.0522
  0
LINE
  8
0
 10
16.3947
 20
47.0522
 11
16.4529
 21
46.873
  0
LINE
  8
0
 10
16.4529
 20
46.873
 11
16.4882
 21
46.688
  0
LINE
  8
0
 10
16.4882
 20
46.688
 11
16.5
 21
46.5
  0
LINE
  8
0
 10
16.5
 20
46.5
 11
16.4882
 21
46.312
  0
LINE
  8
0
 10
16.4882
 20
46.312
 11
16.4529
 21
46.127
  0
LINE
  8
0
 10
16.4529
 20
46.127
 11
16.3947
 21
45.9478
  0
LINE
  8
0
 10
16.3947
 20
45.9478
 11
16.3145
 21
45.7774
  0
LINE
  8
0
 10
16.3145
 20
45.7774
 11
16.2135
 21
45.6183
  0
LINE
  8
0
 10
16.2135
 20
45.6183
 11
16.0934
 21
45.4732
  0
LINE
  8
0
 10
16.0934
 20
45.4732
 11
15.9561
 21
45.3442
  0
LINE
  8
0
 10
15.9561
 20
45.3442
 11
15.8037
 21
45.2335
  0
LINE
  8
0
 10
15.8037
 20
45.2335
 11
15.6387
 21
45.1428
  0
LINE
  8
0
 10
15.6387
 20
45.1428
 11
15.4635
 21
45.0734
  0
LINE
  8
0
 10
15.4635
 20
45.0734
 11
15.2811
 21
45.0266
  0
LINE
  8
0
 10
15.2811
 20
45.0266
 11
15.0942
 21
45.003
  0
LINE
  8
0
 10
15.0942
 20
45.003
 11
14.9058
 21
45.003
  0
LINE
  8
0
 10
-22.5942
 20
45.003
 11
-22.7811
 21
45.0266
  0
LINE
  8
0
 10
-22.7811
 20
45.0266
 11
-22.9635
 21
45.0734
  0
LINE
  8
0
 10
-22.9635
 20
45.0734
 11
-23.1387
 21
45.1428
  0
LINE
  8
0
 10
-23.1387
 20
45.1428
 11
-23.3037
 21
45.2335
  0
LINE
  8
0
 10
-23.3037
 20
45.2335
 11
-23.4561
 21
45.3442
  0
LINE
  8
0
 10
-23.4561
 20
45.3442
 11
-23.5934
 21
45.4732
  0
LINE
  8
0
 10
-23.5934
 20
45.4732
 11
-23.7135
 21
45.6183
  0
LINE
  8
0
 10
-23.7135
 20
45.6183
 11
-23.8145
 21
45.7774
  0
LINE
  8
0
 10
-23.8145
 20
45.7774
 11
-23.8947
 21
45.9478
  0
LINE
  8
0
 10
-23.8947
 20
45.9478
 11
-23.9529
 21
46.127
  0
LINE
  8
0
 10
-23.9529
 20
46.127
 11
-23.9882
 21
46.312
  0
LINE
  8
0
 10
-23.9882
 20
46.312
 11
-24
 21
46.5
  0
LINE
  8
0
 10
-24
 20
46.5
 11
-23.9882
 21
46.688
  0
LINE
  8
0
 10
-23.9882
 20
46.688
 11
-23.9529
 21
46.873
  0
LINE
  8
0
 10
-23.9529
 20
46.873
 11
-23.8947
 21
47.0522
  0
LINE
  8
0
 10
-23.8947
 20
47.0522
 11
-23.8145
 21
47.2226
  0
LINE
  8
0
 10
-23.8145
 20
47.2226
 11
-23.7135
 21
47.3817
  0
LINE
  8
0
 10
-23.7135
 20
47.3817
 11
-23.5934
 21
47.5268
  0
LINE
  8
0
 10
-23.5934
 20
47.5268
 11
-23.4561
 21
47.6558
  0
LINE
  8
0
 10
-23.4561
 20
47.6558
 11
-23.3037
 21
47.7665
  0
LINE
  8
0
 10
-23.3037
 20
47.7665
 11
-23.1387
 21
47.8573
  0
LINE
  8
0
 10
-23.1387
 20
47.8573
 11
-22.9635
 21
47.9266
  0
LINE
  8
0
 10
-22.9635
 20
47.9266
 11
-22.7811
 21
47.9734
  0
LINE
  8
0
 10
-22.7811
 20
47.9734
 11
-22.5942
 21
47.9971
  0
LINE
  8
0
 10
-22.5942
 20
47.9971
 11
-22.4058
 21
47.9971
  0
LINE
  8
0
 10
-22.4058
 20
47.9971
 11
-22.2189
 21
47.9734
  0
LINE
  8
0
 10
-22.2189
 20
47.9734
 11
-22.0365
 21
47.9266
  0
LINE
  8
0
 10
-22.0365
 20
47.9266
 11
-21.8613
 21
47.8573
  0
LINE
  8
0
 10
-21.8613
 20
47.8573
 11
-21.6963
 21
47.7665
  0
LINE
  8
0
 10
-21.6963
 20
47.7665
 11
-21.5439
 21
47.6558
  0
LINE
  8
0
 10
-21.5439
 20
47.6558
 11
-21.4065
 21
47.5268
  0
LINE
  8
0
 10
-21.4065
 20
47.5268
 11
-21.2865
 21
47.3817
  0
LINE
  8
0
 10
-21.2865
 20
47.3817
 11
-21.1855
 21
47.2226
  0
LINE
  8
0
 10
-21.1855
 20
47.2226
 11
-21.1053
 21
47.0522
  0
LINE
  8
0
 10
-21.1053
 20
47.0522
 11
-21.0471
 21
46.873
  0
LINE
  8
0
 10
-21.0471
 20
46.873
 11
-21.0118
 21
46.688
  0
LINE
  8
0
 10
-21.0118
 20
46.688
 11
-21
 21
46.5
  0
LINE
  8
0
 10
-21
 20
46.5
 11
-21.0118
 21
46.312
  0
LINE
  8
0
 10
-21.0118
 20
46.312
 11
-21.0471
 21
46.127
  0
LINE
  8
0
 10
-21.0471
 20
46.127
 11
-21.1053
 21
45.9478
  0
LINE
  8
0
 10
-21.1053
 20
45.9478
 11
-21.1855
 21
45.7774
  0
LINE
  8
0
 10
-21.1855
 20
45.7774
 11
-21.2865
 21
45.6183
  0
LINE
  8
0
 10
-21.2865
 20
45.6183
 11
-21.4065
 21
45.4732
  0
LINE
  8
0
 10
-21.4065
 20
45.4732
 11
-21.5439
 21
45.3442
  0
LINE
  8
0
 10
-21.5439
 20
45.3442
 11
-21.6963
 21
45.2335
  0
LINE
  8
0
 10
-21.6963
 20
45.2335
 11
-21.8613
 21
45.1428
  0
LINE
  8
0
 10
-21.8613
 20
45.1428
 11
-22.0365
 21
45.0734
  0
LINE
  8
0
 10
-22.0365
 20
45.0734
 11
-22.2189
 21
45.0266
  0
LINE
  8
0
 10
-22.2189
 20
45.0266
 11
-22.4058
 21
45.003
  0
LINE
  8
0
 10
-22.4058
 20
45.003
 11
-22.5942
 21
45.003
  0
LINE
  8
0
 10
29.9058
 20
45.003
 11
29.7189
 21
45.0266
  0
LINE
  8
0
 10
29.7189
 20
45.0266
 11
29.5365
 21
45.0734
  0
LINE
  8
0
 10
29.5365
 20
45.0734
 11
29.3613
 21
45.1428
  0
LINE
  8
0
 10
29.3613
 20
45.1428
 11
29.1963
 21
45.2335
  0
LINE
  8
0
 10
29.1963
 20
45.2335
 11
29.0439
 21
45.3442
  0
LINE
  8
0
 10
29.0439
 20
45.3442
 11
28.9065
 21
45.4732
  0
LINE
  8
0
 10
28.9065
 20
45.4732
 11
28.7865
 21
45.6183
  0
LINE
  8
0
 10
28.7865
 20
45.6183
 11
28.6855
 21
45.7774
  0
LINE
  8
0
 10
28.6855
 20
45.7774
 11
28.6053
 21
45.9478
  0
LINE
  8
0
 10
28.6053
 20
45.9478
 11
28.5471
 21
46.127
  0
LINE
  8
0
 10
28.5471
 20
46.127
 11
28.5118
 21
46.312
  0
LINE
  8
0
 10
28.5118
 20
46.312
 11
28.5
 21
46.5
  0
LINE
  8
0
 10
28.5
 20
46.5
 11
28.5118
 21
46.688
  0
LINE
  8
0
 10
28.5118
 20
46.688
 11
28.5471
 21
46.873
  0
LINE
  8
0
 10
28.5471
 20
46.873
 11
28.6053
 21
47.0522
  0
LINE
  8
0
 10
28.6053
 20
47.0522
 11
28.6855
 21
47.2226
  0
LINE
  8
0
 10
28.6855
 20
47.2226
 11
28.7865
 21
47.3817
  0
LINE
  8
0
 10
28.7865
 20
47.3817
 11
28.9065
 21
47.5268
  0
LINE
  8
0
 10
28.9065
 20
47.5268
 11
29.0439
 21
47.6558
  0
LINE
  8
0
 10
29.0439
 20
47.6558
 11
29.1963
 21
47.7665
  0
LINE
  8
0
 10
29.1963
 20
47.7665
 11
29.3613
 21
47.8573
  0
LINE
  8
0
 10
29.3613
 20
47.8573
 11
29.5365
 21
47.9266
  0
LINE
  8
0
 10
29.5365
 20
47.9266
 11
29.7189
 21
47.9734
  0
LINE
  8
0
 10
29.7189
 20
47.9734
 11
29.9058
 21
47.9971
  0
LINE
  8
0
 10
29.9058
 20
47.9971
 11
30.0942
 21
47.9971
  0
LINE
  8
0
 10
30.0942
 20
47.9971
 11
30.2811
 21
47.9734
  0
LINE
  8
0
 10
30.2811
 20
47.9734
 11
30.4635
 21
47.9266
  0
LINE
  8
0
 10
30.4635
 20
47.9266
 11
30.6387
 21
47.8573
  0
LINE
  8
0
 10
30.6387
 20
47.8573
 11
30.8037
 21
47.7665
  0
LINE
  8
0
 10
30.8037
 20
47.7665
 11
30.9561
 21
47.6558
  0
LINE
  8
0
 10
30.9561
 20
47.6558
 11
31.0934
 21
47.5268
  0
LINE
  8
0
 10
31.0934
 20
47.5268
 11
31.2135
 21
47.3817
  0
LINE
  8
0
 10
31.2135
 20
47.3817
 11
31.3145
 21
47.2226
  0
LINE
  8
0
 10
31.3145
 20
47.2226
 11
31.3947
 21
47.0522
  0
LINE
  8
0
 10
31.3947
 20
47.0522
 11
31.4529
 21
46.873
  0
LINE
  8
0
 10
31.4529
 20
46.873
 11
31.4882
 21
46.688
  0
LINE
  8
0
 10
31.4882
 20
46.688
 11
31.5
 21
46.5
  0
LINE
  8
0
 10
31.5
 20
46.5
 11
31.4882
 21
46.312
  0
LINE
  8
0
 10
31.4882
 20
46.312
 11
31.4529
 21
46.127
  0
LINE
  8
0
 10
31.4529
 20
46.127
 11
31.3947
 21
45.9478
  0
LINE
  8
0
 10
31.3947
 20
45.9478
 11
31.3145
 21
45.7774
  0
LINE
  8
0
 10
31.3145
 20
45.7774
 11
31.2135
 21
45.6183
  0
LINE
  8
0
 10
31.2135
 20
45.6183
 11
31.0934
 21
45.4732
  0
LINE
  8
0
 10
31.0934
 20
45.4732
 11
30.9561
 21
45.3442
  0
LINE
  8
0
 10
30.9561
 20
45.3442
 11
30.8037
 21
45.2335
  0
LINE
  8
0
 10
30.8037
 20
45.2335
 11
30.6387
 21
45.1428
  0
LINE
  8
0
 10
30.6387
 20
45.1428
 11
30.4635
 21
45.0734
  0
LINE
  8
0
 10
30.4635
 20
45.0734
 11
30.2811
 21
45.0266
  0
LINE
  8
0
 10
30.2811
 20
45.0266
 11
30.0942
 21
45.003
  0
LINE
  8
0
 10
30.0942
 20
45.003
 11
29.9058
 21
45.003
  0
LINE
  8
0
 10
-7.59418
 20
45.003
 11
-7.78107
 21
45.0266
  0
LINE
  8
0
 10
-7.78107
 20
45.0266
 11
-7.96352
 21
45.0734
  0
LINE
  8
0
 10
-7.96352
 20
45.0734
 11
-8.13866
 21
45.1428
  0
LINE
  8
0
 10
-8.13866
 20
45.1428
 11
-8.30373
 21
45.2335
  0
LINE
  8
0
 10
-8.30373
 20
45.2335
 11
-8.45613
 21
45.3442
  0
LINE
  8
0
 10
-8.45613
 20
45.3442
 11
-8.59344
 21
45.4732
  0
LINE
  8
0
 10
-8.59344
 20
45.4732
 11
-8.71352
 21
45.6183
  0
LINE
  8
0
 10
-8.71352
 20
45.6183
 11
-8.81445
 21
45.7774
  0
LINE
  8
0
 10
-8.81445
 20
45.7774
 11
-8.89465
 21
45.9478
  0
LINE
  8
0
 10
-8.89465
 20
45.9478
 11
-8.95287
 21
46.127
  0
LINE
  8
0
 10
-8.95287
 20
46.127
 11
-8.98816
 21
46.312
  0
LINE
  8
0
 10
-8.98816
 20
46.312
 11
-9
 21
46.5
  0
LINE
  8
0
 10
-9
 20
46.5
 11
-8.98816
 21
46.688
  0
LINE
  8
0
 10
-8.98816
 20
46.688
 11
-8.95287
 21
46.873
  0
LINE
  8
0
 10
-8.95287
 20
46.873
 11
-8.89465
 21
47.0522
  0
LINE
  8
0
 10
-8.89465
 20
47.0522
 11
-8.81445
 21
47.2226
  0
LINE
  8
0
 10
-8.81445
 20
47.2226
 11
-8.71352
 21
47.3817
  0
LINE
  8
0
 10
-8.71352
 20
47.3817
 11
-8.59344
 21
47.5268
  0
LINE
  8
0
 10
-8.59344
 20
47.5268
 11
-8.45613
 21
47.6558
  0
LINE
  8
0
 10
-8.45613
 20
47.6558
 11
-8.30373
 21
47.7665
  0
LINE
  8
0
 10
-8.30373
 20
47.7665
 11
-8.13866
 21
47.8573
  0
LINE
  8
0
 10
-8.13866
 20
47.8573
 11
-7.96352
 21
47.9266
  0
LINE
  8
0
 10
-7.96352
 20
47.9266
 11
-7.78107
 21
47.9734
  0
LINE
  8
0
 10
-7.78107
 20
47.9734
 11
-7.59418
 21
47.9971
  0
LINE
  8
0
 10
-7.59418
 20
47.9971
 11
-7.40581
 21
47.9971
  0
LINE
  8
0
 10
-7.40581
 20
47.9971
 11
-7.21892
 21
47.9734
  0
LINE
  8
0
 10
-7.21892
 20
47.9734
 11
-7.03647
 21
47.9266
  0
LINE
  8
0
 10
-7.03647
 20
47.9266
 11
-6.86133
 21
47.8573
  0
LINE
  8
0
 10
-6.86133
 20
47.8573
 11
-6.69626
 21
47.7665
  0
LINE
  8
0
 10
-6.69626
 20
47.7665
 11
-6.54385
 21
47.6558
  0
LINE
  8
0
 10
-6.54385
 20
47.6558
 11
-6.40654
 21
47.5268
  0
LINE
  8
0
 10
-6.40654
 20
47.5268
 11
-6.28647
 21
47.3817
  0
LINE
  8
0
 10
-6.28647
 20
47.3817
 11
-6.18553
 21
47.2226
  0
LINE
  8
0
 10
-6.18553
 20
47.2226
 11
-6.10533
 21
47.0522
  0
LINE
  8
0
 10
-6.10533
 20
47.0522
 11
-6.04712
 21
46.873
  0
LINE
  8
0
 10
-6.04712
 20
46.873
 11
-6.01183
 21
46.688
  0
LINE
  8
0
 10
-6.01183
 20
46.688
 11
-6
 21
46.5
  0
LINE
  8
0
 10
-6
 20
46.5
 11
-6.01183
 21
46.312
  0
LINE
  8
0
 10
-6.01183
 20
46.312
 11
-6.04712
 21
46.127
  0
LINE
  8
0
 10
-6.04712
 20
46.127
 11
-6.10533
 21
45.9478
  0
LINE
  8
0
 10
-6.10533
 20
45.9478
 11
-6.18553
 21
45.7774
  0
LINE
  8
0
 10
-6.18553
 20
45.7774
 11
-6.28647
 21
45.6183
  0
LINE
  8
0
 10
-6.28647
 20
45.6183
 11
-6.40654
 21
45.4732
  0
LINE
  8
0
 10
-6.40654
 20
45.4732
 11
-6.54385
 21
45.3442
  0
LINE
  8
0
 10
-6.54385
 20
45.3442
 11
-6.69626
 21
45.2335
  0
LINE
  8
0
 10
-6.69626
 20
45.2335
 11
-6.86133
 21
45.1428
  0
LINE
  8
0
 10
-6.86133
 20
45.1428
 11
-7.03647
 21
45.0734
  0
LINE
  8
0
 10
-7.03647
 20
45.0734
 11
-7.21892
 21
45.0266
  0
LINE
  8
0
 10
-7.21892
 20
45.0266
 11
-7.40581
 21
45.003
  0
LINE
  8
0
 10
-7.40581
 20
45.003
 11
-7.59418
 21
45.003
  0
LINE
  8
0
 10
-15.0942
 20
45.003
 11
-15.2811
 21
45.0266
  0
LINE
  8
0
 10
-15.2811
 20
45.0266
 11
-15.4635
 21
45.0734
  0
LINE
  8
0
 10
-15.4635
 20
45.0734
 11
-15.6387
 21
45.1428
  0
LINE
  8
0
 10
-15.6387
 20
45.1428
 11
-15.8037
 21
45.2335
  0
LINE
  8
0
 10
-15.8037
 20
45.2335
 11
-15.9561
 21
45.3442
  0
LINE
  8
0
 10
-15.9561
 20
45.3442
 11
-16.0934
 21
45.4732
  0
LINE
  8
0
 10
-16.0934
 20
45.4732
 11
-16.2135
 21
45.6183
  0
LINE
  8
0
 10
-16.2135
 20
45.6183
 11
-16.3145
 21
45.7774
  0
LINE
  8
0
 10
-16.3145
 20
45.7774
 11
-16.3947
 21
45.9478
  0
LINE
  8
0
 10
-16.3947
 20
45.9478
 11
-16.4529
 21
46.127
  0
LINE
  8
0
 10
-16.4529
 20
46.127
 11
-16.4882
 21
46.312
  0
LINE
  8
0
 10
-16.4882
 20
46.312
 11
-16.5
 21
46.5
  0
LINE
  8
0
 10
-16.5
 20
46.5
 11
-16.4882
 21
46.688
  0
LINE
  8
0
 10
-16.4882
 20
46.688
 11
-16.4529
 21
46.873
  0
LINE
  8
0
 10
-16.4529
 20
46.873
 11
-16.3947
 21
47.0522
  0
LINE
  8
0
 10
-16.3947
 20
47.0522
 11
-16.3145
 21
47.2226
  0
LINE
  8
0
 10
-16.3145
 20
47.2226
 11
-16.2135
 21
47.3817
  0
LINE
  8
0
 10
-16.2135
 20
47.3817
 11
-16.0934
 21
47.5268
  0
LINE
  8
0
 10
-16.0934
 20
47.5268
 11
-15.9561
 21
47.6558
  0
LINE
  8
0
 10
-15.9561
 20
47.6558
 11
-15.8037
 21
47.7665
  0
LINE
  8
0
 10
-15.8037
 20
47.7665
 11
-15.6387
 21
47.8573
  0
LINE
  8
0
 10
-15.6387
 20
47.8573
 11
-15.4635
 21
47.9266
  0
LINE
  8
0
 10
-15.4635
 20
47.9266
 11
-15.2811
 21
47.9734
  0
LINE
  8
0
 10
-15.2811
 20
47.9734
 11
-15.0942
 21
47.9971
  0
LINE
  8
0
 10
-15.0942
 20
47.9971
 11
-14.9058
 21
47.9971
  0
LINE
  8
0
 10
-14.9058
 20
47.9971
 11
-14.7189
 21
47.9734
  0
LINE
  8
0
 10
-14.7189
 20
47.9734
 11
-14.5365
 21
47.9266
  0
LINE
  8
0
 10
-14.5365
 20
47.9266
 11
-14.3613
 21
47.8573
  0
LINE
  8
0
 10
-14.3613
 20
47.8573
 11
-14.1963
 21
47.7665
  0
LINE
  8
0
 10
-14.1963
 20
47.7665
 11
-14.0439
 21
47.6558
  0
LINE
  8
0
 10
-14.0439
 20
47.6558
 11
-13.9065
 21
47.5268
  0
LINE
  8
0
 10
-13.9065
 20
47.5268
 11
-13.7865
 21
47.3817
  0
LINE
  8
0
 10
-13.7865
 20
47.3817
 11
-13.6855
 21
47.2226
  0
LINE
  8
0
 10
-13.6855
 20
47.2226
 11
-13.6053
 21
47.0522
  0
LINE
  8
0
 10
-13.6053
 20
47.0522
 11
-13.5471
 21
46.873
  0
LINE
  8
0
 10
-13.5471
 20
46.873
 11
-13.5118
 21
46.688
  0
LINE
  8
0
 10
-13.5118
 20
46.688
 11
-13.5
 21
46.5
  0
LINE
  8
0
 10
-13.5
 20
46.5
 11
-13.5118
 21
46.312
  0
LINE
  8
0
 10
-13.5118
 20
46.312
 11
-13.5471
 21
46.127
  0
LINE
  8
0
 10
-13.5471
 20
46.127
 11
-13.6053
 21
45.9478
  0
LINE
  8
0
 10
-13.6053
 20
45.9478
 11
-13.6855
 21
45.7774
  0
LINE
  8
0
 10
-13.6855
 20
45.7774
 11
-13.7865
 21
45.6183
  0
LINE
  8
0
 10
-13.7865
 20
45.6183
 11
-13.9065
 21
45.4732
  0
LINE
  8
0
 10
-13.9065
 20
45.4732
 11
-14.0439
 21
45.3442
  0
LINE
  8
0
 10
-14.0439
 20
45.3442
 11
-14.1963
 21
45.2335
  0
LINE
  8
0
 10
-14.1963
 20
45.2335
 11
-14.3613
 21
45.1428
  0
LINE
  8
0
 10
-14.3613
 20
45.1428
 11
-14.5365
 21
45.0734
  0
LINE
  8
0
 10
-14.5365
 20
45.0734
 11
-14.7189
 21
45.0266
  0
LINE
  8
0
 10
-14.7189
 20
45.0266
 11
-14.9058
 21
45.003
  0
LINE
  8
0
 10
-14.9058
 20
45.003
 11
-15.0942
 21
45.003
  0
LINE
  8
0
 10
-37.5942
 20
45.003
 11
-37.7811
 21
45.0266
  0
LINE
  8
0
 10
-37.7811
 20
45.0266
 11
-37.9635
 21
45.0734
  0
LINE
  8
0
 10
-37.9635
 20
45.0734
 11
-38.1387
 21
45.1428
  0
LINE
  8
0
 10
-38.1387
 20
45.1428
 11
-38.3037
 21
45.2335
  0
LINE
  8
0
 10
-38.3037
 20
45.2335
 11
-38.4561
 21
45.3442
  0
LINE
  8
0
 10
-38.4561
 20
45.3442
 11
-38.5934
 21
45.4732
  0
LINE
  8
0
 10
-38.5934
 20
45.4732
 11
-38.7135
 21
45.6183
  0
LINE
  8
0
 10
-38.7135
 20
45.6183
 11
-38.8145
 21
45.7774
  0
LINE
  8
0
 10
-38.8145
 20
45.7774
 11
-38.8947
 21
45.9478
  0
LINE
  8
0
 10
-38.8947
 20
45.9478
 11
-38.9529
 21
46.127
  0
LINE
  8
0
 10
-38.9529
 20
46.127
 11
-38.9882
 21
46.312
  0
LINE
  8
0
 10
-38.9882
 20
46.312
 11
-39
 21
46.5
  0
LINE
  8
0
 10
-39
 20
46.5
 11
-38.9882
 21
46.688
  0
LINE
  8
0
 10
-38.9882
 20
46.688
 11
-38.9529
 21
46.873
  0
LINE
  8
0
 10
-38.9529
 20
46.873
 11
-38.8947
 21
47.0522
  0
LINE
  8
0
 10
-38.8947
 20
47.0522
 11
-38.8145
 21
47.2226
  0
LINE
  8
0
 10
-38.8145
 20
47.2226
 11
-38.7135
 21
47.3817
  0
LINE
  8
0
 10
-38.7135
 20
47.3817
 11
-38.5934
 21
47.5268
  0
LINE
  8
0
 10
-38.5934
 20
47.5268
 11
-38.4561
 21
47.6558
  0
LINE
  8
0
 10
-38.4561
 20
47.6558
 11
-38.3037
 21
47.7665
  0
LINE
  8
0
 10
-38.3037
 20
47.7665
 11
-38.1387
 21
47.8573
  0
LINE
  8
0
 10
-38.1387
 20
47.8573
 11
-37.9635
 21
47.9266
  0
LINE
  8
0
 10
-37.9635
 20
47.9266
 11
-37.7811
 21
47.9734
  0
LINE
  8
0
 10
-37.7811
 20
47.9734
 11
-37.5942
 21
47.9971
  0
LINE
  8
0
 10
-37.5942
 20
47.9971
 11
-37.4058
 21
47.9971
  0
LINE
  8
0
 10
-37.4058
 20
47.9971
 11
-37.2189
 21
47.9734
  0
LINE
  8
0
 10
-37.2189
 20
47.9734
 11
-37.0365
 21
47.9266
  0
LINE
  8
0
 10
-37.0365
 20
47.9266
 11
-36.8613
 21
47.8573
  0
LINE
  8
0
 10
-36.8613
 20
47.8573
 11
-36.6963
 21
47.7665
  0
LINE
  8
0
 10
-36.6963
 20
47.7665
 11
-36.5439
 21
47.6558
  0
LINE
  8
0
 10
-36.5439
 20
47.6558
 11
-36.4065
 21
47.5268
  0
LINE
  8
0
 10
-36.4065
 20
47.5268
 11
-36.2865
 21
47.3817
  0
LINE
  8
0
 10
-36.2865
 20
47.3817
 11
-36.1855
 21
47.2226
  0
LINE
  8
0
 10
-36.1855
 20
47.2226
 11
-36.1053
 21
47.0522
  0
LINE
  8
0
 10
-36.1053
 20
47.0522
 11
-36.0471
 21
46.873
  0
LINE
  8
0
 10
-36.0471
 20
46.873
 11
-36.0118
 21
46.688
  0
LINE
  8
0
 10
-36.0118
 20
46.688
 11
-36
 21
46.5
  0
LINE
  8
0
 10
-36
 20
46.5
 11
-36.0118
 21
46.312
  0
LINE
  8
0
 10
-36.0118
 20
46.312
 11
-36.0471
 21
46.127
  0
LINE
  8
0
 10
-36.0471
 20
46.127
 11
-36.1053
 21
45.9478
  0
LINE
  8
0
 10
-36.1053
 20
45.9478
 11
-36.1855
 21
45.7774
  0
LINE
  8
0
 10
-36.1855
 20
45.7774
 11
-36.2865
 21
45.6183
  0
LINE
  8
0
 10
-36.2865
 20
45.6183
 11
-36.4065
 21
45.4732
  0
LINE
  8
0
 10
-36.4065
 20
45.4732
 11
-36.5439
 21
45.3442
  0
LINE
  8
0
 10
-36.5439
 20
45.3442
 11
-36.6963
 21
45.2335
  0
LINE
  8
0
 10
-36.6963
 20
45.2335
 11
-36.8613
 21
45.1428
  0
LINE
  8
0
 10
-36.8613
 20
45.1428
 11
-37.0365
 21
45.0734
  0
LINE
  8
0
 10
-37.0365
 20
45.0734
 11
-37.2189
 21
45.0266
  0
LINE
  8
0
 10
-37.2189
 20
45.0266
 11
-37.4058
 21
45.003
  0
LINE
  8
0
 10
-37.4058
 20
45.003
 11
-37.5942
 21
45.003
  0
LINE
  8
0
 10
-30.0942
 20
45.003
 11
-30.2811
 21
45.0266
  0
LINE
  8
0
 10
-30.2811
 20
45.0266
 11
-30.4635
 21
45.0734
  0
LINE
  8
0
 10
-30.4635
 20
45.0734
 11
-30.6387
 21
45.1428
  0
LINE
  8
0
 10
-30.6387
 20
45.1428
 11
-30.8037
 21
45.2335
  0
LINE
  8
0
 10
-30.8037
 20
45.2335
 11
-30.9561
 21
45.3442
  0
LINE
  8
0
 10
-30.9561
 20
45.3442
 11
-31.0934
 21
45.4732
  0
LINE
  8
0
 10
-31.0934
 20
45.4732
 11
-31.2135
 21
45.6183
  0
LINE
  8
0
 10
-31.2135
 20
45.6183
 11
-31.3145
 21
45.7774
  0
LINE
  8
0
 10
-31.3145
 20
45.7774
 11
-31.3947
 21
45.9478
  0
LINE
  8
0
 10
-31.3947
 20
45.9478
 11
-31.4529
 21
46.127
  0
LINE
  8
0
 10
-31.4529
 20
46.127
 11
-31.4882
 21
46.312
  0
LINE
  8
0
 10
-31.4882
 20
46.312
 11
-31.5
 21
46.5
  0
LINE
  8
0
 10
-31.5
 20
46.5
 11
-31.4882
 21
46.688
  0
LINE
  8
0
 10
-31.4882
 20
46.688
 11
-31.4529
 21
46.873
  0
LINE
  8
0
 10
-31.4529
 20
46.873
 11
-31.3947
 21
47.0522
  0
LINE
  8
0
 10
-31.3947
 20
47.0522
 11
-31.3145
 21
47.2226
  0
LINE
  8
0
 10
-31.3145
 20
47.2226
 11
-31.2135
 21
47.3817
  0
LINE
  8
0
 10
-31.2135
 20
47.3817
 11
-31.0934
 21
47.5268
  0
LINE
  8
0
 10
-31.0934
 20
47.5268
 11
-30.9561
 21
47.6558
  0
LINE
  8
0
 10
-30.9561
 20
47.6558
 11
-30.8037
 21
47.7665
  0
LINE
  8
0
 10
-30.8037
 20
47.7665
 11
-30.6387
 21
47.8573
  0
LINE
  8
0
 10
-30.6387
 20
47.8573
 11
-30.4635
 21
47.9266
  0
LINE
  8
0
 10
-30.4635
 20
47.9266
 11
-30.2811
 21
47.9734
  0
LINE
  8
0
 10
-30.2811
 20
47.9734
 11
-30.0942
 21
47.9971
  0
LINE
  8
0
 10
-30.0942
 20
47.9971
 11
-29.9058
 21
47.9971
  0
LINE
  8
0
 10
-29.9058
 20
47.9971
 11
-29.7189
 21
47.9734
  0
LINE
  8
0
 10
-29.7189
 20
47.9734
 11
-29.5365
 21
47.9266
  0
LINE
  8
0
 10
-29.5365
 20
47.9266
 11
-29.3613
 21
47.8573
  0
LINE
  8
0
 10
-29.3613
 20
47.8573
 11
-29.1963
 21
47.7665
  0
LINE
  8
0
 10
-29.1963
 20
47.7665
 11
-29.0439
 21
47.6558
  0
LINE
  8
0
 10
-29.0439
 20
47.6558
 11
-28.9065
 21
47.5268
  0
LINE
  8
0
 10
-28.9065
 20
47.5268
 11
-28.7865
 21
47.3817
  0
LINE
  8
0
 10
-28.7865
 20
47.3817
 11
-28.6855
 21
47.2226
  0
LINE
  8
0
 10
-28.6855
 20
47.2226
 11
-28.6053
 21
47.0522
  0
LINE
  8
0
 10
-28.6053
 20
47.0522
 11
-28.5471
 21
46.873
  0
LINE
  8
0
 10
-28.5471
 20
46.873
 11
-28.5118
 21
46.688
  0
LINE
  8
0
 10
-28.5118
 20
46.688
 11
-28.5
 21
46.5
  0
LINE
  8
0
 10
-28.5
 20
46.5
 11
-28.5118
 21
46.312
  0
LINE
  8
0
 10
-28.5118
 20
46.312
 11
-28.5471
 21
46.127
  0
LINE
  8
0
 10
-28.5471
 20
46.127
 11
-28.6053
 21
45.9478
  0
LINE
  8
0
 10
-28.6053
 20
45.9478
 11
-28.6855
 21
45.7774
  0
LINE
  8
0
 10
-28.6855
 20
45.7774
 11
-28.7865
 21
45.6183
  0
LINE
  8
0
 10
-28.7865
 20
45.6183
 11
-28.9065
 21
45.4732
  0
LINE
  8
0
 10
-28.9065
 20
45.4732
 11
-29.0439
 21
45.3442
  0
LINE
  8
0
 10
-29.0439
 20
45.3442
 11
-29.1963
 21
45.2335
  0
LINE
  8
0
 10
-29.1963
 20
45.2335
 11
-29.3613
 21
45.1428
  0
LINE
  8
0
 10
-29.3613
 20
45.1428
 11
-29.5365
 21
45.0734
  0
LINE
  8
0
 10
-29.5365
 20
45.0734
 11
-29.7189
 21
45.0266
  0
LINE
  8
0
 10
-29.7189
 20
45.0266
 11
-29.9058
 21
45.003
  0
LINE
  8
0
 10
-29.9058
 20
45.003
 11
-30.0942
 21
45.003
  0
LINE
  8
0
 10
7.40581
 20
45.003
 11
7.21892
 21
45.0266
  0
LINE
  8
0
 10
7.21892
 20
45.0266
 11
7.03647
 21
45.0734
  0
LINE
  8
0
 10
7.03647
 20
45.0734
 11
6.86133
 21
45.1428
  0
LINE
  8
0
 10
6.86133
 20
45.1428
 11
6.69626
 21
45.2335
  0
LINE
  8
0
 10
6.69626
 20
45.2335
 11
6.54385
 21
45.3442
  0
LINE
  8
0
 10
6.54385
 20
45.3442
 11
6.40654
 21
45.4732
  0
LINE
  8
0
 10
6.40654
 20
45.4732
 11
6.28647
 21
45.6183
  0
LINE
  8
0
 10
6.28647
 20
45.6183
 11
6.18553
 21
45.7774
  0
LINE
  8
0
 10
6.18553
 20
45.7774
 11
6.10533
 21
45.9478
  0
LINE
  8
0
 10
6.10533
 20
45.9478
 11
6.04712
 21
46.127
  0
LINE
  8
0
 10
6.04712
 20
46.127
 11
6.01183
 21
46.312
  0
LINE
  8
0
 10
6.01183
 20
46.312
 11
6
 21
46.5
  0
LINE
  8
0
 10
6
 20
46.5
 11
6.01183
 21
46.688
  0
LINE
  8
0
 10
6.01183
 20
46.688
 11
6.04712
 21
46.873
  0
LINE
  8
0
 10
6.04712
 20
46.873
 11
6.10533
 21
47.0522
  0
LINE
  8
0
 10
6.10533
 20
47.0522
 11
6.18553
 21
47.2226
  0
LINE
  8
0
 10
6.18553
 20
47.2226
 11
6.28647
 21
47.3817
  0
LINE
  8
0
 10
6.28647
 20
47.3817
 11
6.40654
 21
47.5268
  0
LINE
  8
0
 10
6.40654
 20
47.5268
 11
6.54385
 21
47.6558
  0
LINE
  8
0
 10
6.54385
 20
47.6558
 11
6.69626
 21
47.7665
  0
LINE
  8
0
 10
6.69626
 20
47.7665
 11
6.86133
 21
47.8573
  0
LINE
  8
0
 10
6.86133
 20
47.8573
 11
7.03647
 21
47.9266
  0
LINE
  8
0
 10
7.03647
 20
47.9266
 11
7.21892
 21
47.9734
  0
LINE
  8
0
 10
7.21892
 20
47.9734
 11
7.40581
 21
47.9971
  0
LINE
  8
0
 10
7.40581
 20
47.9971
 11
7.59418
 21
47.9971
  0
LINE
  8
0
 10
7.59418
 20
47.9971
 11
7.78107
 21
47.9734
  0
LINE
  8
0
 10
7.78107
 20
47.9734
 11
7.96352
 21
47.9266
  0
LINE
  8
0
 10
7.96352
 20
47.9266
 11
8.13866
 21
47.8573
  0
LINE
  8
0
 10
8.13866
 20
47.8573
 11
8.30373
 21
47.7665
  0
LINE
  8
0
 10
8.30373
 20
47.7665
 11
8.45613
 21
47.6558
  0
LINE
  8
0
 10
8.45613
 20
47.6558
 11
8.59344
 21
47.5268
  0
LINE
  8
0
 10
8.59344
 20
47.5268
 11
8.71352
 21
47.3817
  0
LINE
  8
0
 10
8.71352
 20
47.3817
 11
8.81445
 21
47.2226
  0
LINE
  8
0
 10
8.81445
 20
47.2226
 11
8.89465
 21
47.0522
  0
LINE
  8
0
 10
8.89465
 20
47.0522
 11
8.95287
 21
46.873
  0
LINE
  8
0
 10
8.95287
 20
46.873
 11
8.98816
 21
46.688
  0
LINE
  8
0
 10
8.98816
 20
46.688
 11
9
 21
46.5
  0
LINE
  8
0
 10
9
 20
46.5
 11
8.98816
 21
46.312
  0
LINE
  8
0
 10
8.98816
 20
46.312
 11
8.95287
 21
46.127
  0
LINE
  8
0
 10
8.95287
 20
46.127
 11
8.89465
 21
45.9478
  0
LINE
  8
0
 10
8.89465
 20
45.9478
 11
8.81445
 21
45.7774
  0
LINE
  8
0
 10
8.81445
 20
45.7774
 11
8.71352
 21
45.6183
  0
LINE
  8
0
 10
8.71352
 20
45.6183
 11
8.59344
 21
45.4732
  0
LINE
  8
0
 10
8.59344
 20
45.4732
 11
8.45613
 21
45.3442
  0
LINE
  8
0
 10
8.45613
 20
45.3442
 11
8.30373
 21
45.2335
  0
LINE
  8
0
 10
8.30373
 20
45.2335
 11
8.13866
 21
45.1428
  0
LINE
  8
0
 10
8.13866
 20
45.1428
 11
7.96352
 21
45.0734
  0
LINE
  8
0
 10
7.96352
 20
45.0734
 11
7.78107
 21
45.0266
  0
LINE
  8
0
 10
7.78107
 20
45.0266
 11
7.59418
 21
45.003
  0
LINE
  8
0
 10
7.59418
 20
45.003
 11
7.40581
 21
45.003
  0
LINE
  8
0
 10
29.9058
 20
37.503
 11
29.7189
 21
37.5266
  0
LINE
  8
0
 10
29.7189
 20
37.5266
 11
29.5365
 21
37.5734
  0
LINE
  8
0
 10
29.5365
 20
37.5734
 11
29.3613
 21
37.6428
  0
LINE
  8
0
 10
29.3613
 20
37.6428
 11
29.1963
 21
37.7335
  0
LINE
  8
0
 10
29.1963
 20
37.7335
 11
29.0439
 21
37.8442
  0
LINE
  8
0
 10
29.0439
 20
37.8442
 11
28.9065
 21
37.9732
  0
LINE
  8
0
 10
28.9065
 20
37.9732
 11
28.7865
 21
38.1183
  0
LINE
  8
0
 10
28.7865
 20
38.1183
 11
28.6855
 21
38.2774
  0
LINE
  8
0
 10
28.6855
 20
38.2774
 11
28.6053
 21
38.4478
  0
LINE
  8
0
 10
28.6053
 20
38.4478
 11
28.5471
 21
38.627
  0
LINE
  8
0
 10
28.5471
 20
38.627
 11
28.5118
 21
38.812
  0
LINE
  8
0
 10
28.5118
 20
38.812
 11
28.5
 21
39
  0
LINE
  8
0
 10
28.5
 20
39
 11
28.5118
 21
39.188
  0
LINE
  8
0
 10
28.5118
 20
39.188
 11
28.5471
 21
39.373
  0
LINE
  8
0
 10
28.5471
 20
39.373
 11
28.6053
 21
39.5522
  0
LINE
  8
0
 10
28.6053
 20
39.5522
 11
28.6855
 21
39.7226
  0
LINE
  8
0
 10
28.6855
 20
39.7226
 11
28.7865
 21
39.8817
  0
LINE
  8
0
 10
28.7865
 20
39.8817
 11
28.9065
 21
40.0268
  0
LINE
  8
0
 10
28.9065
 20
40.0268
 11
29.0439
 21
40.1558
  0
LINE
  8
0
 10
29.0439
 20
40.1558
 11
29.1963
 21
40.2665
  0
LINE
  8
0
 10
29.1963
 20
40.2665
 11
29.3613
 21
40.3573
  0
LINE
  8
0
 10
29.3613
 20
40.3573
 11
29.5365
 21
40.4266
  0
LINE
  8
0
 10
29.5365
 20
40.4266
 11
29.7189
 21
40.4734
  0
LINE
  8
0
 10
29.7189
 20
40.4734
 11
29.9058
 21
40.4971
  0
LINE
  8
0
 10
29.9058
 20
40.4971
 11
30.0942
 21
40.4971
  0
LINE
  8
0
 10
30.0942
 20
40.4971
 11
30.2811
 21
40.4734
  0
LINE
  8
0
 10
30.2811
 20
40.4734
 11
30.4635
 21
40.4266
  0
LINE
  8
0
 10
30.4635
 20
40.4266
 11
30.6387
 21
40.3573
  0
LINE
  8
0
 10
30.6387
 20
40.3573
 11
30.8037
 21
40.2665
  0
LINE
  8
0
 10
30.8037
 20
40.2665
 11
30.9561
 21
40.1558
  0
LINE
  8
0
 10
30.9561
 20
40.1558
 11
31.0934
 21
40.0268
  0
LINE
  8
0
 10
31.0934
 20
40.0268
 11
31.2135
 21
39.8817
  0
LINE
  8
0
 10
31.2135
 20
39.8817
 11
31.3145
 21
39.7226
  0
LINE
  8
0
 10
31.3145
 20
39.7226
 11
31.3947
 21
39.5522
  0
LINE
  8
0
 10
31.3947
 20
39.5522
 11
31.4529
 21
39.373
  0
LINE
  8
0
 10
31.4529
 20
39.373
 11
31.4882
 21
39.188
  0
LINE
  8
0
 10
31.4882
 20
39.188
 11
31.5
 21
39
  0
LINE
  8
0
 10
31.5
 20
39
 11
31.4882
 21
38.812
  0
LINE
  8
0
 10
31.4882
 20
38.812
 11
31.4529
 21
38.627
  0
LINE
  8
0
 10
31.4529
 20
38.627
 11
31.3947
 21
38.4478
  0
LINE
  8
0
 10
31.3947
 20
38.4478
 11
31.3145
 21
38.2774
  0
LINE
  8
0
 10
31.3145
 20
38.2774
 11
31.2135
 21
38.1183
  0
LINE
  8
0
 10
31.2135
 20
38.1183
 11
31.0934
 21
37.9732
  0
LINE
  8
0
 10
31.0934
 20
37.9732
 11
30.9561
 21
37.8442
  0
LINE
  8
0
 10
30.9561
 20
37.8442
 11
30.8037
 21
37.7335
  0
LINE
  8
0
 10
30.8037
 20
37.7335
 11
30.6387
 21
37.6428
  0
LINE
  8
0
 10
30.6387
 20
37.6428
 11
30.4635
 21
37.5734
  0
LINE
  8
0
 10
30.4635
 20
37.5734
 11
30.2811
 21
37.5266
  0
LINE
  8
0
 10
30.2811
 20
37.5266
 11
30.0942
 21
37.503
  0
LINE
  8
0
 10
30.0942
 20
37.503
 11
29.9058
 21
37.503
  0
LINE
  8
0
 10
7.40581
 20
37.503
 11
7.21892
 21
37.5266
  0
LINE
  8
0
 10
7.21892
 20
37.5266
 11
7.03647
 21
37.5734
  0
LINE
  8
0
 10
7.03647
 20
37.5734
 11
6.86133
 21
37.6428
  0
LINE
  8
0
 10
6.86133
 20
37.6428
 11
6.69626
 21
37.7335
  0
LINE
  8
0
 10
6.69626
 20
37.7335
 11
6.54385
 21
37.8442
  0
LINE
  8
0
 10
6.54385
 20
37.8442
 11
6.40654
 21
37.9732
  0
LINE
  8
0
 10
6.40654
 20
37.9732
 11
6.28647
 21
38.1183
  0
LINE
  8
0
 10
6.28647
 20
38.1183
 11
6.18553
 21
38.2774
  0
LINE
  8
0
 10
6.18553
 20
38.2774
 11
6.10533
 21
38.4478
  0
LINE
  8
0
 10
6.10533
 20
38.4478
 11
6.04712
 21
38.627
  0
LINE
  8
0
 10
6.04712
 20
38.627
 11
6.01183
 21
38.812
  0
LINE
  8
0
 10
6.01183
 20
38.812
 11
6
 21
39
  0
LINE
  8
0
 10
6
 20
39
 11
6.01183
 21
39.188
  0
LINE
  8
0
 10
6.01183
 20
39.188
 11
6.04712
 21
39.373
  0
LINE
  8
0
 10
6.04712
 20
39.373
 11
6.10533
 21
39.5522
  0
LINE
  8
0
 10
6.10533
 20
39.5522
 11
6.18553
 21
39.7226
  0
LINE
  8
0
 10
6.18553
 20
39.7226
 11
6.28647
 21
39.8817
  0
LINE
  8
0
 10
6.28647
 20
39.8817
 11
6.40654
 21
40.0268
  0
LINE
  8
0
 10
6.40654
 20
40.0268
 11
6.54385
 21
40.1558
  0
LINE
  8
0
 10
6.54385
 20
40.1558
 11
6.69626
 21
40.2665
  0
LINE
  8
0
 10
6.69626
 20
40.2665
 11
6.86133
 21
40.3573
  0
LINE
  8
0
 10
6.86133
 20
40.3573
 11
7.03647
 21
40.4266
  0
LINE
  8
0
 10
7.03647
 20
40.4266
 11
7.21892
 21
40.4734
  0
LINE
  8
0
 10
7.21892
 20
40.4734
 11
7.40581
 21
40.4971
  0
LINE
  8
0
 10
7.40581
 20
40.4971
 11
7.59418
 21
40.4971
  0
LINE
  8
0
 10
7.59418
 20
40.4971
 11
7.78107
 21
40.4734
  0
LINE
  8
0
 10
7.78107
 20
40.4734
 11
7.96352
 21
40.4266
  0
LINE
  8
0
 10
7.96352
 20
40.4266
 11
8.13866
 21
40.3573
  0
LINE
  8
0
 10
8.13866
 20
40.3573
 11
8.30373
 21
40.2665
  0
LINE
  8
0
 10
8.30373
 20
40.2665
 11
8.45613
 21
40.1558
  0
LINE
  8
0
 10
8.45613
 20
40.1558
 11
8.59344
 21
40.0268
  0
LINE
  8
0
 10
8.59344
 20
40.0268
 11
8.71352
 21
39.8817
  0
LINE
  8
0
 10
8.71352
 20
39.8817
 11
8.81445
 21
39.7226
  0
LINE
  8
0
 10
8.81445
 20
39.7226
 11
8.89465
 21
39.5522
  0
LINE
  8
0
 10
8.89465
 20
39.5522
 11
8.95287
 21
39.373
  0
LINE
  8
0
 10
8.95287
 20
39.373
 11
8.98816
 21
39.188
  0
LINE
  8
0
 10
8.98816
 20
39.188
 11
9
 21
39
  0
LINE
  8
0
 10
9
 20
39
 11
8.98816
 21
38.812
  0
LINE
  8
0
 10
8.98816
 20
38.812
 11
8.95287
 21
38.627
  0
LINE
  8
0
 10
8.95287
 20
38.627
 11
8.89465
 21
38.4478
  0
LINE
  8
0
 10
8.89465
 20
38.4478
 11
8.81445
 21
38.2774
  0
LINE
  8
0
 10
8.81445
 20
38.2774
 11
8.71352
 21
38.1183
  0
LINE
  8
0
 10
8.71352
 20
38.1183
 11
8.59344
 21
37.9732
  0
LINE
  8
0
 10
8.59344
 20
37.9732
 11
8.45613
 21
37.8442
  0
LINE
  8
0
 10
8.45613
 20
37.8442
 11
8.30373
 21
37.7335
  0
LINE
  8
0
 10
8.30373
 20
37.7335
 11
8.13866
 21
37.6428
  0
LINE
  8
0
 10
8.13866
 20
37.6428
 11
7.96352
 21
37.5734
  0
LINE
  8
0
 10
7.96352
 20
37.5734
 11
7.78107
 21
37.5266
  0
LINE
  8
0
 10
7.78107
 20
37.5266
 11
7.59418
 21
37.503
  0
LINE
  8
0
 10
7.59418
 20
37.503
 11
7.40581
 21
37.503
  0
LINE
  8
0
 10
-7.59418
 20
37.503
 11
-7.78107
 21
37.5266
  0
LINE
  8
0
 10
-7.78107
 20
37.5266
 11
-7.96352
 21
37.5734
  0
LINE
  8
0
 10
-7.96352
 20
37.5734
 11
-8.13866
 21
37.6428
  0
LINE
  8
0
 10
-8.13866
 20
37.6428
 11
-8.30373
 21
37.7335
  0
LINE
  8
0
 10
-8.30373
 20
37.7335
 11
-8.45613
 21
37.8442
  0
LINE
  8
0
 10
-8.45613
 20
37.8442
 11
-8.59344
 21
37.9732
  0
LINE
  8
0
 10
-8.59344
 20
37.9732
 11
-8.71352
 21
38.1183
  0
LINE
  8
0
 10
-8.71352
 20
38.1183
 11
-8.81445
 21
38.2774
  0
LINE
  8
0
 10
-8.81445
 20
38.2774
 11
-8.89465
 21
38.4478
  0
LINE
  8
0
 10
-8.89465
 20
38.4478
 11
-8.95287
 21
38.627
  0
LINE
  8
0
 10
-8.95287
 20
38.627
 11
-8.98816
 21
38.812
  0
LINE
  8
0
 10
-8.98816
 20
38.812
 11
-9
 21
39
  0
LINE
  8
0
 10
-9
 20
39
 11
-8.98816
 21
39.188
  0
LINE
  8
0
 10
-8.98816
 20
39.188
 11
-8.95287
 21
39.373
  0
LINE
  8
0
 10
-8.95287
 20
39.373
 11
-8.89465
 21
39.5522
  0
LINE
  8
0
 10
-8.89465
 20
39.5522
 11
-8.81445
 21
39.7226
  0
LINE
  8
0
 10
-8.81445
 20
39.7226
 11
-8.71352
 21
39.8817
  0
LINE
  8
0
 10
-8.71352
 20
39.8817
 11
-8.59344
 21
40.0268
  0
LINE
  8
0
 10
-8.59344
 20
40.0268
 11
-8.45613
 21
40.1558
  0
LINE
  8
0
 10
-8.45613
 20
40.1558
 11
-8.30373
 21
40.2665
  0
LINE
  8
0
 10
-8.30373
 20
40.2665
 11
-8.13866
 21
40.3573
  0
LINE
  8
0
 10
-8.13866
 20
40.3573
 11
-7.96352
 21
40.4266
  0
LINE
  8
0
 10
-7.96352
 20
40.4266
 11
-7.78107
 21
40.4734
  0
LINE
  8
0
 10
-7.78107
 20
40.4734
 11
-7.59418
 21
40.4971
  0
LINE
  8
0
 10
-7.59418
 20
40.4971
 11
-7.40581
 21
40.4971
  0
LINE
  8
0
 10
-7.40581
 20
40.4971
 11
-7.21892
 21
40.4734
  0
LINE
  8
0
 10
-7.21892
 20
40.4734
 11
-7.03647
 21
40.4266
  0
LINE
  8
0
 10
-7.03647
 20
40.4266
 11
-6.86133
 21
40.3573
  0
LINE
  8
0
 10
-6.86133
 20
40.3573
 11
-6.69626
 21
40.2665
  0
LINE
  8
0
 10
-6.69626
 20
40.2665
 11
-6.54385
 21
40.1558
  0
LINE
  8
0
 10
-6.54385
 20
40.1558
 11
-6.40654
 21
40.0268
  0
LINE
  8
0
 10
-6.40654
 20
40.0268
 11
-6.28647
 21
39.8817
  0
LINE
  8
0
 10
-6.28647
 20
39.8817
 11
-6.18553
 21
39.7226
  0
LINE
  8
0
 10
-6.18553
 20
39.7226
 11
-6.10533
 21
39.5522
  0
LINE
  8
0
 10
-6.10533
 20
39.5522
 11
-6.04712
 21
39.373
  0
LINE
  8
0
 10
-6.04712
 20
39.373
 11
-6.01183
 21
39.188
  0
LINE
  8
0
 10
-6.01183
 20
39.188
 11
-6
 21
39
  0
LINE
  8
0
 10
-6
 20
39
 11
-6.01183
 21
38.812
  0
LINE
  8
0
 10
-6.01183
 20
38.812
 11
-6.04712
 21
38.627
  0
LINE
  8
0
 10
-6.04712
 20
38.627
 11
-6.10533
 21
38.4478
  0
LINE
  8
0
 10
-6.10533
 20
38.4478
 11
-6.18553
 21
38.2774
  0
LINE
  8
0
 10
-6.18553
 20
38.2774
 11
-6.28647
 21
38.1183
  0
LINE
  8
0
 10
-6.28647
 20
38.1183
 11
-6.40654
 21
37.9732
  0
LINE
  8
0
 10
-6.40654
 20
37.9732
 11
-6.54385
 21
37.8442
  0
LINE
  8
0
 10
-6.54385
 20
37.8442
 11
-6.69626
 21
37.7335
  0
LINE
  8
0
 10
-6.69626
 20
37.7335
 11
-6.86133
 21
37.6428
  0
LINE
  8
0
 10
-6.86133
 20
37.6428
 11
-7.03647
 21
37.5734
  0
LINE
  8
0
 10
-7.03647
 20
37.5734
 11
-7.21892
 21
37.5266
  0
LINE
  8
0
 10
-7.21892
 20
37.5266
 11
-7.40581
 21
37.503
  0
LINE
  8
0
 10
-7.40581
 20
37.503
 11
-7.59418
 21
37.503
  0
LINE
  8
0
 10
-30.0942
 20
37.503
 11
-30.2811
 21
37.5266
  0
LINE
  8
0
 10
-30.2811
 20
37.5266
 11
-30.4635
 21
37.5734
  0
LINE
  8
0
 10
-30.4635
 20
37.5734
 11
-30.6387
 21
37.6428
  0
LINE
  8
0
 10
-30.6387
 20
37.6428
 11
-30.8037
 21
37.7335
  0
LINE
  8
0
 10
-30.8037
 20
37.7335
 11
-30.9561
 21
37.8442
  0
LINE
  8
0
 10
-30.9561
 20
37.8442
 11
-31.0934
 21
37.9732
  0
LINE
  8
0
 10
-31.0934
 20
37.9732
 11
-31.2135
 21
38.1183
  0
LINE
  8
0
 10
-31.2135
 20
38.1183
 11
-31.3145
 21
38.2774
  0
LINE
  8
0
 10
-31.3145
 20
38.2774
 11
-31.3947
 21
38.4478
  0
LINE
  8
0
 10
-31.3947
 20
38.4478
 11
-31.4529
 21
38.627
  0
LINE
  8
0
 10
-31.4529
 20
38.627
 11
-31.4882
 21
38.812
  0
LINE
  8
0
 10
-31.4882
 20
38.812
 11
-31.5
 21
39
  0
LINE
  8
0
 10
-31.5
 20
39
 11
-31.4882
 21
39.188
  0
LINE
  8
0
 10
-31.4882
 20
39.188
 11
-31.4529
 21
39.373
  0
LINE
  8
0
 10
-31.4529
 20
39.373
 11
-31.3947
 21
39.5522
  0
LINE
  8
0
 10
-31.3947
 20
39.5522
 11
-31.3145
 21
39.7226
  0
LINE
  8
0
 10
-31.3145
 20
39.7226
 11
-31.2135
 21
39.8817
  0
LINE
  8
0
 10
-31.2135
 20
39.8817
 11
-31.0934
 21
40.0268
  0
LINE
  8
0
 10
-31.0934
 20
40.0268
 11
-30.9561
 21
40.1558
  0
LINE
  8
0
 10
-30.9561
 20
40.1558
 11
-30.8037
 21
40.2665
  0
LINE
  8
0
 10
-30.8037
 20
40.2665
 11
-30.6387
 21
40.3573
  0
LINE
  8
0
 10
-30.6387
 20
40.3573
 11
-30.4635
 21
40.4266
  0
LINE
  8
0
 10
-30.4635
 20
40.4266
 11
-30.2811
 21
40.4734
  0
LINE
  8
0
 10
-30.2811
 20
40.4734
 11
-30.0942
 21
40.4971
  0
LINE
  8
0
 10
-30.0942
 20
40.4971
 11
-29.9058
 21
40.4971
  0
LINE
  8
0
 10
-29.9058
 20
40.4971
 11
-29.7189
 21
40.4734
  0
LINE
  8
0
 10
-29.7189
 20
40.4734
 11
-29.5365
 21
40.4266
  0
LINE
  8
0
 10
-29.5365
 20
40.4266
 11
-29.3613
 21
40.3573
  0
LINE
  8
0
 10
-29.3613
 20
40.3573
 11
-29.1963
 21
40.2665
  0
LINE
  8
0
 10
-29.1963
 20
40.2665
 11
-29.0439
 21
40.1558
  0
LINE
  8
0
 10
-29.0439
 20
40.1558
 11
-28.9065
 21
40.0268
  0
LINE
  8
0
 10
-28.9065
 20
40.0268
 11
-28.7865
 21
39.8817
  0
LINE
  8
0
 10
-28.7865
 20
39.8817
 11
-28.6855
 21
39.7226
  0
LINE
  8
0
 10
-28.6855
 20
39.7226
 11
-28.6053
 21
39.5522
  0
LINE
  8
0
 10
-28.6053
 20
39.5522
 11
-28.5471
 21
39.373
  0
LINE
  8
0
 10
-28.5471
 20
39.373
 11
-28.5118
 21
39.188
  0
LINE
  8
0
 10
-28.5118
 20
39.188
 11
-28.5
 21
39
  0
LINE
  8
0
 10
-28.5
 20
39
 11
-28.5118
 21
38.812
  0
LINE
  8
0
 10
-28.5118
 20
38.812
 11
-28.5471
 21
38.627
  0
LINE
  8
0
 10
-28.5471
 20
38.627
 11
-28.6053
 21
38.4478
  0
LINE
  8
0
 10
-28.6053
 20
38.4478
 11
-28.6855
 21
38.2774
  0
LINE
  8
0
 10
-28.6855
 20
38.2774
 11
-28.7865
 21
38.1183
  0
LINE
  8
0
 10
-28.7865
 20
38.1183
 11
-28.9065
 21
37.9732
  0
LINE
  8
0
 10
-28.9065
 20
37.9732
 11
-29.0439
 21
37.8442
  0
LINE
  8
0
 10
-29.0439
 20
37.8442
 11
-29.1963
 21
37.7335
  0
LINE
  8
0
 10
-29.1963
 20
37.7335
 11
-29.3613
 21
37.6428
  0
LINE
  8
0
 10
-29.3613
 20
37.6428
 11
-29.5365
 21
37.5734
  0
LINE
  8
0
 10
-29.5365
 20
37.5734
 11
-29.7189
 21
37.5266
  0
LINE
  8
0
 10
-29.7189
 20
37.5266
 11
-29.9058
 21
37.503
  0
LINE
  8
0
 10
-29.9058
 20
37.503
 11
-30.0942
 21
37.503
  0
LINE
  8
0
 10
37.4058
 20
37.503
 11
37.2189
 21
37.5266
  0
LINE
  8
0
 10
37.2189
 20
37.5266
 11
37.0365
 21
37.5734
  0
LINE
  8
0
 10
37.0365
 20
37.5734
 11
36.8613
 21
37.6428
  0
LINE
  8
0
 10
36.8613
 20
37.6428
 11
36.6963
 21
37.7335
  0
LINE
  8
0
 10
36.6963
 20
37.7335
 11
36.5439
 21
37.8442
  0
LINE
  8
0
 10
36.5439
 20
37.8442
 11
36.4065
 21
37.9732
  0
LINE
  8
0
 10
36.4065
 20
37.9732
 11
36.2865
 21
38.1183
  0
LINE
  8
0
 10
36.2865
 20
38.1183
 11
36.1855
 21
38.2774
  0
LINE
  8
0
 10
36.1855
 20
38.2774
 11
36.1053
 21
38.4478
  0
LINE
  8
0
 10
36.1053
 20
38.4478
 11
36.0471
 21
38.627
  0
LINE
  8
0
 10
36.0471
 20
38.627
 11
36.0118
 21
38.812
  0
LINE
  8
0
 10
36.0118
 20
38.812
 11
36
 21
39
  0
LINE
  8
0
 10
36
 20
39
 11
36.0118
 21
39.188
  0
LINE
  8
0
 10
36.0118
 20
39.188
 11
36.0471
 21
39.373
  0
LINE
  8
0
 10
36.0471
 20
39.373
 11
36.1053
 21
39.5522
  0
LINE
  8
0
 10
36.1053
 20
39.5522
 11
36.1855
 21
39.7226
  0
LINE
  8
0
 10
36.1855
 20
39.7226
 11
36.2865
 21
39.8817
  0
LINE
  8
0
 10
36.2865
 20
39.8817
 11
36.4065
 21
40.0268
  0
LINE
  8
0
 10
36.4065
 20
40.0268
 11
36.5439
 21
40.1558
  0
LINE
  8
0
 10
36.5439
 20
40.1558
 11
36.6963
 21
40.2665
  0
LINE
  8
0
 10
36.6963
 20
40.2665
 11
36.8613
 21
40.3573
  0
LINE
  8
0
 10
36.8613
 20
40.3573
 11
37.0365
 21
40.4266
  0
LINE
  8
0
 10
37.0365
 20
40.4266
 11
37.2189
 21
40.4734
  0
LINE
  8
0
 10
37.2189
 20
40.4734
 11
37.4058
 21
40.4971
  0
LINE
  8
0
 10
37.4058
 20
40.4971
 11
37.5942
 21
40.4971
  0
LINE
  8
0
 10
37.5942
 20
40.4971
 11
37.7811
 21
40.4734
  0
LINE
  8
0
 10
37.7811
 20
40.4734
 11
37.9635
 21
40.4266
  0
LINE
  8
0
 10
37.9635
 20
40.4266
 11
38.1387
 21
40.3573
  0
LINE
  8
0
 10
38.1387
 20
40.3573
 11
38.3037
 21
40.2665
  0
LINE
  8
0
 10
38.3037
 20
40.2665
 11
38.4561
 21
40.1558
  0
LINE
  8
0
 10
38.4561
 20
40.1558
 11
38.5934
 21
40.0268
  0
LINE
  8
0
 10
38.5934
 20
40.0268
 11
38.7135
 21
39.8817
  0
LINE
  8
0
 10
38.7135
 20
39.8817
 11
38.8145
 21
39.7226
  0
LINE
  8
0
 10
38.8145
 20
39.7226
 11
38.8947
 21
39.5522
  0
LINE
  8
0
 10
38.8947
 20
39.5522
 11
38.9529
 21
39.373
  0
LINE
  8
0
 10
38.9529
 20
39.373
 11
38.9882
 21
39.188
  0
LINE
  8
0
 10
38.9882
 20
39.188
 11
39
 21
39
  0
LINE
  8
0
 10
39
 20
39
 11
38.9882
 21
38.812
  0
LINE
  8
0
 10
38.9882
 20
38.812
 11
38.9529
 21
38.627
  0
LINE
  8
0
 10
38.9529
 20
38.627
 11
38.8947
 21
38.4478
  0
LINE
  8
0
 10
38.8947
 20
38.4478
 11
38.8145
 21
38.2774
  0
LINE
  8
0
 10
38.8145
 20
38.2774
 11
38.7135
 21
38.1183
  0
LINE
  8
0
 10
38.7135
 20
38.1183
 11
38.5934
 21
37.9732
  0
LINE
  8
0
 10
38.5934
 20
37.9732
 11
38.4561
 21
37.8442
  0
LINE
  8
0
 10
38.4561
 20
37.8442
 11
38.3037
 21
37.7335
  0
LINE
  8
0
 10
38.3037
 20
37.7335
 11
38.1387
 21
37.6428
  0
LINE
  8
0
 10
38.1387
 20
37.6428
 11
37.9635
 21
37.5734
  0
LINE
  8
0
 10
37.9635
 20
37.5734
 11
37.7811
 21
37.5266
  0
LINE
  8
0
 10
37.7811
 20
37.5266
 11
37.5942
 21
37.503
  0
LINE
  8
0
 10
37.5942
 20
37.503
 11
37.4058
 21
37.503
  0
LINE
  8
0
 10
14.9058
 20
37.503
 11
14.7189
 21
37.5266
  0
LINE
  8
0
 10
14.7189
 20
37.5266
 11
14.5365
 21
37.5734
  0
LINE
  8
0
 10
14.5365
 20
37.5734
 11
14.3613
 21
37.6428
  0
LINE
  8
0
 10
14.3613
 20
37.6428
 11
14.1963
 21
37.7335
  0
LINE
  8
0
 10
14.1963
 20
37.7335
 11
14.0439
 21
37.8442
  0
LINE
  8
0
 10
14.0439
 20
37.8442
 11
13.9065
 21
37.9732
  0
LINE
  8
0
 10
13.9065
 20
37.9732
 11
13.7865
 21
38.1183
  0
LINE
  8
0
 10
13.7865
 20
38.1183
 11
13.6855
 21
38.2774
  0
LINE
  8
0
 10
13.6855
 20
38.2774
 11
13.6053
 21
38.4478
  0
LINE
  8
0
 10
13.6053
 20
38.4478
 11
13.5471
 21
38.627
  0
LINE
  8
0
 10
13.5471
 20
38.627
 11
13.5118
 21
38.812
  0
LINE
  8
0
 10
13.5118
 20
38.812
 11
13.5
 21
39
  0
LINE
  8
0
 10
13.5
 20
39
 11
13.5118
 21
39.188
  0
LINE
  8
0
 10
13.5118
 20
39.188
 11
13.5471
 21
39.373
  0
LINE
  8
0
 10
13.5471
 20
39.373
 11
13.6053
 21
39.5522
  0
LINE
  8
0
 10
13.6053
 20
39.5522
 11
13.6855
 21
39.7226
  0
LINE
  8
0
 10
13.6855
 20
39.7226
 11
13.7865
 21
39.8817
  0
LINE
  8
0
 10
13.7865
 20
39.8817
 11
13.9065
 21
40.0268
  0
LINE
  8
0
 10
13.9065
 20
40.0268
 11
14.0439
 21
40.1558
  0
LINE
  8
0
 10
14.0439
 20
40.1558
 11
14.1963
 21
40.2665
  0
LINE
  8
0
 10
14.1963
 20
40.2665
 11
14.3613
 21
40.3573
  0
LINE
  8
0
 10
14.3613
 20
40.3573
 11
14.5365
 21
40.4266
  0
LINE
  8
0
 10
14.5365
 20
40.4266
 11
14.7189
 21
40.4734
  0
LINE
  8
0
 10
14.7189
 20
40.4734
 11
14.9058
 21
40.4971
  0
LINE
  8
0
 10
14.9058
 20
40.4971
 11
15.0942
 21
40.4971
  0
LINE
  8
0
 10
15.0942
 20
40.4971
 11
15.2811
 21
40.4734
  0
LINE
  8
0
 10
15.2811
 20
40.4734
 11
15.4635
 21
40.4266
  0
LINE
  8
0
 10
15.4635
 20
40.4266
 11
15.6387
 21
40.3573
  0
LINE
  8
0
 10
15.6387
 20
40.3573
 11
15.8037
 21
40.2665
  0
LINE
  8
0
 10
15.8037
 20
40.2665
 11
15.9561
 21
40.1558
  0
LINE
  8
0
 10
15.9561
 20
40.1558
 11
16.0934
 21
40.0268
  0
LINE
  8
0
 10
16.0934
 20
40.0268
 11
16.2135
 21
39.8817
  0
LINE
  8
0
 10
16.2135
 20
39.8817
 11
16.3145
 21
39.7226
  0
LINE
  8
0
 10
16.3145
 20
39.7226
 11
16.3947
 21
39.5522
  0
LINE
  8
0
 10
16.3947
 20
39.5522
 11
16.4529
 21
39.373
  0
LINE
  8
0
 10
16.4529
 20
39.373
 11
16.4882
 21
39.188
  0
LINE
  8
0
 10
16.4882
 20
39.188
 11
16.5
 21
39
  0
LINE
  8
0
 10
16.5
 20
39
 11
16.4882
 21
38.812
  0
LINE
  8
0
 10
16.4882
 20
38.812
 11
16.4529
 21
38.627
  0
LINE
  8
0
 10
16.4529
 20
38.627
 11
16.3947
 21
38.4478
  0
LINE
  8
0
 10
16.3947
 20
38.4478
 11
16.3145
 21
38.2774
  0
LINE
  8
0
 10
16.3145
 20
38.2774
 11
16.2135
 21
38.1183
  0
LINE
  8
0
 10
16.2135
 20
38.1183
 11
16.0934
 21
37.9732
  0
LINE
  8
0
 10
16.0934
 20
37.9732
 11
15.9561
 21
37.8442
  0
LINE
  8
0
 10
15.9561
 20
37.8442
 11
15.8037
 21
37.7335
  0
LINE
  8
0
 10
15.8037
 20
37.7335
 11
15.6387
 21
37.6428
  0
LINE
  8
0
 10
15.6387
 20
37.6428
 11
15.4635
 21
37.5734
  0
LINE
  8
0
 10
15.4635
 20
37.5734
 11
15.2811
 21
37.5266
  0
LINE
  8
0
 10
15.2811
 20
37.5266
 11
15.0942
 21
37.503
  0
LINE
  8
0
 10
15.0942
 20
37.503
 11
14.9058
 21
37.503
  0
LINE
  8
0
 10
-15.0942
 20
37.503
 11
-15.2811
 21
37.5266
  0
LINE
  8
0
 10
-15.2811
 20
37.5266
 11
-15.4635
 21
37.5734
  0
LINE
  8
0
 10
-15.4635
 20
37.5734
 11
-15.6387
 21
37.6428
  0
LINE
  8
0
 10
-15.6387
 20
37.6428
 11
-15.8037
 21
37.7335
  0
LINE
  8
0
 10
-15.8037
 20
37.7335
 11
-15.9561
 21
37.8442
  0
LINE
  8
0
 10
-15.9561
 20
37.8442
 11
-16.0934
 21
37.9732
  0
LINE
  8
0
 10
-16.0934
 20
37.9732
 11
-16.2135
 21
38.1183
  0
LINE
  8
0
 10
-16.2135
 20
38.1183
 11
-16.3145
 21
38.2774
  0
LINE
  8
0
 10
-16.3145
 20
38.2774
 11
-16.3947
 21
38.4478
  0
LINE
  8
0
 10
-16.3947
 20
38.4478
 11
-16.4529
 21
38.627
  0
LINE
  8
0
 10
-16.4529
 20
38.627
 11
-16.4882
 21
38.812
  0
LINE
  8
0
 10
-16.4882
 20
38.812
 11
-16.5
 21
39
  0
LINE
  8
0
 10
-16.5
 20
39
 11
-16.4882
 21
39.188
  0
LINE
  8
0
 10
-16.4882
 20
39.188
 11
-16.4529
 21
39.373
  0
LINE
  8
0
 10
-16.4529
 20
39.373
 11
-16.3947
 21
39.5522
  0
LINE
  8
0
 10
-16.3947
 20
39.5522
 11
-16.3145
 21
39.7226
  0
LINE
  8
0
 10
-16.3145
 20
39.7226
 11
-16.2135
 21
39.8817
  0
LINE
  8
0
 10
-16.2135
 20
39.8817
 11
-16.0934
 21
40.0268
  0
LINE
  8
0
 10
-16.0934
 20
40.0268
 11
-15.9561
 21
40.1558
  0
LINE
  8
0
 10
-15.9561
 20
40.1558
 11
-15.8037
 21
40.2665
  0
LINE
  8
0
 10
-15.8037
 20
40.2665
 11
-15.6387
 21
40.3573
  0
LINE
  8
0
 10
-15.6387
 20
40.3573
 11
-15.4635
 21
40.4266
  0
LINE
  8
0
 10
-15.4635
 20
40.4266
 11
-15.2811
 21
40.4734
  0
LINE
  8
0
 10
-15.2811
 20
40.4734
 11
-15.0942
 21
40.4971
  0
LINE
  8
0
 10
-15.0942
 20
40.4971
 11
-14.9058
 21
40.4971
  0
LINE
  8
0
 10
-14.9058
 20
40.4971
 11
-14.7189
 21
40.4734
  0
LINE
  8
0
 10
-14.7189
 20
40.4734
 11
-14.5365
 21
40.4266
  0
LINE
  8
0
 10
-14.5365
 20
40.4266
 11
-14.3613
 21
40.3573
  0
LINE
  8
0
 10
-14.3613
 20
40.3573
 11
-14.1963
 21
40.2665
  0
LINE
  8
0
 10
-14.1963
 20
40.2665
 11
-14.0439
 21
40.1558
  0
LINE
  8
0
 10
-14.0439
 20
40.1558
 11
-13.9065
 21
40.0268
  0
LINE
  8
0
 10
-13.9065
 20
40.0268
 11
-13.7865
 21
39.8817
  0
LINE
  8
0
 10
-13.7865
 20
39.8817
 11
-13.6855
 21
39.7226
  0
LINE
  8
0
 10
-13.6855
 20
39.7226
 11
-13.6053
 21
39.5522
  0
LINE
  8
0
 10
-13.6053
 20
39.5522
 11
-13.5471
 21
39.373
  0
LINE
  8
0
 10
-13.5471
 20
39.373
 11
-13.5118
 21
39.188
  0
LINE
  8
0
 10
-13.5118
 20
39.188
 11
-13.5
 21
39
  0
LINE
  8
0
 10
-13.5
 20
39
 11
-13.5118
 21
38.812
  0
LINE
  8
0
 10
-13.5118
 20
38.812
 11
-13.5471
 21
38.627
  0
LINE
  8
0
 10
-13.5471
 20
38.627
 11
-13.6053
 21
38.4478
  0
LINE
  8
0
 10
-13.6053
 20
38.4478
 11
-13.6855
 21
38.2774
  0
LINE
  8
0
 10
-13.6855
 20
38.2774
 11
-13.7865
 21
38.1183
  0
LINE
  8
0
 10
-13.7865
 20
38.1183
 11
-13.9065
 21
37.9732
  0
LINE
  8
0
 10
-13.9065
 20
37.9732
 11
-14.0439
 21
37.8442
  0
LINE
  8
0
 10
-14.0439
 20
37.8442
 11
-14.1963
 21
37.7335
  0
LINE
  8
0
 10
-14.1963
 20
37.7335
 11
-14.3613
 21
37.6428
  0
LINE
  8
0
 10
-14.3613
 20
37.6428
 11
-14.5365
 21
37.5734
  0
LINE
  8
0
 10
-14.5365
 20
37.5734
 11
-14.7189
 21
37.5266
  0
LINE
  8
0
 10
-14.7189
 20
37.5266
 11
-14.9058
 21
37.503
  0
LINE
  8
0
 10
-14.9058
 20
37.503
 11
-15.0942
 21
37.503
  0
LINE
  8
0
 10
-0.0941772
 20
37.503
 11
-0.281067
 21
37.5266
  0
LINE
  8
0
 10
-0.281067
 20
37.5266
 11
-0.463516
 21
37.5734
  0
LINE
  8
0
 10
-0.463516
 20
37.5734
 11
-0.638657
 21
37.6428
  0
LINE
  8
0
 10
-0.638657
 20
37.6428
 11
-0.803726
 21
37.7335
  0
LINE
  8
0
 10
-0.803726
 20
37.7335
 11
-0.956131
 21
37.8442
  0
LINE
  8
0
 10
-0.956131
 20
37.8442
 11
-1.09344
 21
37.9732
  0
LINE
  8
0
 10
-1.09344
 20
37.9732
 11
-1.21352
 21
38.1183
  0
LINE
  8
0
 10
-1.21352
 20
38.1183
 11
-1.31445
 21
38.2774
  0
LINE
  8
0
 10
-1.31445
 20
38.2774
 11
-1.39465
 21
38.4478
  0
LINE
  8
0
 10
-1.39465
 20
38.4478
 11
-1.45287
 21
38.627
  0
LINE
  8
0
 10
-1.45287
 20
38.627
 11
-1.48816
 21
38.812
  0
LINE
  8
0
 10
-1.48816
 20
38.812
 11
-1.5
 21
39
  0
LINE
  8
0
 10
-1.5
 20
39
 11
-1.48816
 21
39.188
  0
LINE
  8
0
 10
-1.48816
 20
39.188
 11
-1.45287
 21
39.373
  0
LINE
  8
0
 10
-1.45287
 20
39.373
 11
-1.39465
 21
39.5522
  0
LINE
  8
0
 10
-1.39465
 20
39.5522
 11
-1.31445
 21
39.7226
  0
LINE
  8
0
 10
-1.31445
 20
39.7226
 11
-1.21352
 21
39.8817
  0
LINE
  8
0
 10
-1.21352
 20
39.8817
 11
-1.09344
 21
40.0268
  0
LINE
  8
0
 10
-1.09344
 20
40.0268
 11
-0.956131
 21
40.1558
  0
LINE
  8
0
 10
-0.956131
 20
40.1558
 11
-0.803726
 21
40.2665
  0
LINE
  8
0
 10
-0.803726
 20
40.2665
 11
-0.638657
 21
40.3573
  0
LINE
  8
0
 10
-0.638657
 20
40.3573
 11
-0.463516
 21
40.4266
  0
LINE
  8
0
 10
-0.463516
 20
40.4266
 11
-0.281067
 21
40.4734
  0
LINE
  8
0
 10
-0.281067
 20
40.4734
 11
-0.0941772
 21
40.4971
  0
LINE
  8
0
 10
-0.0941772
 20
40.4971
 11
0.0941772
 21
40.4971
  0
LINE
  8
0
 10
0.0941772
 20
40.4971
 11
0.281067
 21
40.4734
  0
LINE
  8
0
 10
0.281067
 20
40.4734
 11
0.463516
 21
40.4266
  0
LINE
  8
0
 10
0.463516
 20
40.4266
 11
0.638657
 21
40.3573
  0
LINE
  8
0
 10
0.638657
 20
40.3573
 11
0.803726
 21
40.2665
  0
LINE
  8
0
 10
0.803726
 20
40.2665
 11
0.956131
 21
40.1558
  0
LINE
  8
0
 10
0.956131
 20
40.1558
 11
1.09344
 21
40.0268
  0
LINE
  8
0
 10
1.09344
 20
40.0268
 11
1.21352
 21
39.8817
  0
LINE
  8
0
 10
1.21352
 20
39.8817
 11
1.31445
 21
39.7226
  0
LINE
  8
0
 10
1.31445
 20
39.7226
 11
1.39465
 21
39.5522
  0
LINE
  8
0
 10
1.39465
 20
39.5522
 11
1.45287
 21
39.373
  0
LINE
  8
0
 10
1.45287
 20
39.373
 11
1.48816
 21
39.188
  0
LINE
  8
0
 10
1.48816
 20
39.188
 11
1.5
 21
39
  0
LINE
  8
0
 10
1.5
 20
39
 11
1.48816
 21
38.812
  0
LINE
  8
0
 10
1.48816
 20
38.812
 11
1.45287
 21
38.627
  0
LINE
  8
0
 10
1.45287
 20
38.627
 11
1.39465
 21
38.4478
  0
LINE
  8
0
 10
1.39465
 20
38.4478
 11
1.31445
 21
38.2774
  0
LINE
  8
0
 10
1.31445
 20
38.2774
 11
1.21352
 21
38.1183
  0
LINE
  8
0
 10
1.21352
 20
38.1183
 11
1.09344
 21
37.9732
  0
LINE
  8
0
 10
1.09344
 20
37.9732
 11
0.956131
 21
37.8442
  0
LINE
  8
0
 10
0.956131
 20
37.8442
 11
0.803726
 21
37.7335
  0
LINE
  8
0
 10
0.803726
 20
37.7335
 11
0.638657
 21
37.6428
  0
LINE
  8
0
 10
0.638657
 20
37.6428
 11
0.463516
 21
37.5734
  0
LINE
  8
0
 10
0.463516
 20
37.5734
 11
0.281067
 21
37.5266
  0
LINE
  8
0
 10
0.281067
 20
37.5266
 11
0.0941772
 21
37.503
  0
LINE
  8
0
 10
0.0941772
 20
37.503
 11
-0.0941772
 21
37.503
  0
LINE
  8
0
 10
-37.5942
 20
37.503
 11
-37.7811
 21
37.5266
  0
LINE
  8
0
 10
-37.7811
 20
37.5266
 11
-37.9635
 21
37.5734
  0
LINE
  8
0
 10
-37.9635
 20
37.5734
 11
-38.1387
 21
37.6428
  0
LINE
  8
0
 10
-38.1387
 20
37.6428
 11
-38.3037
 21
37.7335
  0
LINE
  8
0
 10
-38.3037
 20
37.7335
 11
-38.4561
 21
37.8442
  0
LINE
  8
0
 10
-38.4561
 20
37.8442
 11
-38.5934
 21
37.9732
  0
LINE
  8
0
 10
-38.5934
 20
37.9732
 11
-38.7135
 21
38.1183
  0
LINE
  8
0
 10
-38.7135
 20
38.1183
 11
-38.8145
 21
38.2774
  0
LINE
  8
0
 10
-38.8145
 20
38.2774
 11
-38.8947
 21
38.4478
  0
LINE
  8
0
 10
-38.8947
 20
38.4478
 11
-38.9529
 21
38.627
  0
LINE
  8
0
 10
-38.9529
 20
38.627
 11
-38.9882
 21
38.812
  0
LINE
  8
0
 10
-38.9882
 20
38.812
 11
-39
 21
39
  0
LINE
  8
0
 10
-39
 20
39
 11
-38.9882
 21
39.188
  0
LINE
  8
0
 10
-38.9882
 20
39.188
 11
-38.9529
 21
39.373
  0
LINE
  8
0
 10
-38.9529
 20
39.373
 11
-38.8947
 21
39.5522
  0
LINE
  8
0
 10
-38.8947
 20
39.5522
 11
-38.8145
 21
39.7226
  0
LINE
  8
0
 10
-38.8145
 20
39.7226
 11
-38.7135
 21
39.8817
  0
LINE
  8
0
 10
-38.7135
 20
39.8817
 11
-38.5934
 21
40.0268
  0
LINE
  8
0
 10
-38.5934
 20
40.0268
 11
-38.4561
 21
40.1558
  0
LINE
  8
0
 10
-38.4561
 20
40.1558
 11
-38.3037
 21
40.2665
  0
LINE
  8
0
 10
-38.3037
 20
40.2665
 11
-38.1387
 21
40.3573
  0
LINE
  8
0
 10
-38.1387
 20
40.3573
 11
-37.9635
 21
40.4266
  0
LINE
  8
0
 10
-37.9635
 20
40.4266
 11
-37.7811
 21
40.4734
  0
LINE
  8
0
 10
-37.7811
 20
40.4734
 11
-37.5942
 21
40.4971
  0
LINE
  8
0
 10
-37.5942
 20
40.4971
 11
-37.4058
 21
40.4971
  0
LINE
  8
0
 10
-37.4058
 20
40.4971
 11
-37.2189
 21
40.4734
  0
LINE
  8
0
 10
-37.2189
 20
40.4734
 11
-37.0365
 21
40.4266
  0
LINE
  8
0
 10
-37.0365
 20
40.4266
 11
-36.8613
 21
40.3573
  0
LINE
  8
0
 10
-36.8613
 20
40.3573
 11
-36.6963
 21
40.2665
  0
LINE
  8
0
 10
-36.6963
 20
40.2665
 11
-36.5439
 21
40.1558
  0
LINE
  8
0
 10
-36.5439
 20
40.1558
 11
-36.4065
 21
40.0268
  0
LINE
  8
0
 10
-36.4065
 20
40.0268
 11
-36.2865
 21
39.8817
  0
LINE
  8
0
 10
-36.2865
 20
39.8817
 11
-36.1855
 21
39.7226
  0
LINE
  8
0
 10
-36.1855
 20
39.7226
 11
-36.1053
 21
39.5522
  0
LINE
  8
0
 10
-36.1053
 20
39.5522
 11
-36.0471
 21
39.373
  0
LINE
  8
0
 10
-36.0471
 20
39.373
 11
-36.0118
 21
39.188
  0
LINE
  8
0
 10
-36.0118
 20
39.188
 11
-36
 21
39
  0
LINE
  8
0
 10
-36
 20
39
 11
-36.0118
 21
38.812
  0
LINE
  8
0
 10
-36.0118
 20
38.812
 11
-36.0471
 21
38.627
  0
LINE
  8
0
 10
-36.0471
 20
38.627
 11
-36.1053
 21
38.4478
  0
LINE
  8
0
 10
-36.1053
 20
38.4478
 11
-36.1855
 21
38.2774
  0
LINE
  8
0
 10
-36.1855
 20
38.2774
 11
-36.2865
 21
38.1183
  0
LINE
  8
0
 10
-36.2865
 20
38.1183
 11
-36.4065
 21
37.9732
  0
LINE
  8
0
 10
-36.4065
 20
37.9732
 11
-36.5439
 21
37.8442
  0
LINE
  8
0
 10
-36.5439
 20
37.8442
 11
-36.6963
 21
37.7335
  0
LINE
  8
0
 10
-36.6963
 20
37.7335
 11
-36.8613
 21
37.6428
  0
LINE
  8
0
 10
-36.8613
 20
37.6428
 11
-37.0365
 21
37.5734
  0
LINE
  8
0
 10
-37.0365
 20
37.5734
 11
-37.2189
 21
37.5266
  0
LINE
  8
0
 10
-37.2189
 20
37.5266
 11
-37.4058
 21
37.503
  0
LINE
  8
0
 10
-37.4058
 20
37.503
 11
-37.5942
 21
37.503
  0
LINE
  8
0
 10
22.4058
 20
37.503
 11
22.2189
 21
37.5266
  0
LINE
  8
0
 10
22.2189
 20
37.5266
 11
22.0365
 21
37.5734
  0
LINE
  8
0
 10
22.0365
 20
37.5734
 11
21.8613
 21
37.6428
  0
LINE
  8
0
 10
21.8613
 20
37.6428
 11
21.6963
 21
37.7335
  0
LINE
  8
0
 10
21.6963
 20
37.7335
 11
21.5439
 21
37.8442
  0
LINE
  8
0
 10
21.5439
 20
37.8442
 11
21.4065
 21
37.9732
  0
LINE
  8
0
 10
21.4065
 20
37.9732
 11
21.2865
 21
38.1183
  0
LINE
  8
0
 10
21.2865
 20
38.1183
 11
21.1855
 21
38.2774
  0
LINE
  8
0
 10
21.1855
 20
38.2774
 11
21.1053
 21
38.4478
  0
LINE
  8
0
 10
21.1053
 20
38.4478
 11
21.0471
 21
38.627
  0
LINE
  8
0
 10
21.0471
 20
38.627
 11
21.0118
 21
38.812
  0
LINE
  8
0
 10
21.0118
 20
38.812
 11
21
 21
39
  0
LINE
  8
0
 10
21
 20
39
 11
21.0118
 21
39.188
  0
LINE
  8
0
 10
21.0118
 20
39.188
 11
21.0471
 21
39.373
  0
LINE
  8
0
 10
21.0471
 20
39.373
 11
21.1053
 21
39.5522
  0
LINE
  8
0
 10
21.1053
 20
39.5522
 11
21.1855
 21
39.7226
  0
LINE
  8
0
 10
21.1855
 20
39.7226
 11
21.2865
 21
39.8817
  0
LINE
  8
0
 10
21.2865
 20
39.8817
 11
21.4065
 21
40.0268
  0
LINE
  8
0
 10
21.4065
 20
40.0268
 11
21.5439
 21
40.1558
  0
LINE
  8
0
 10
21.5439
 20
40.1558
 11
21.6963
 21
40.2665
  0
LINE
  8
0
 10
21.6963
 20
40.2665
 11
21.8613
 21
40.3573
  0
LINE
  8
0
 10
21.8613
 20
40.3573
 11
22.0365
 21
40.4266
  0
LINE
  8
0
 10
22.0365
 20
40.4266
 11
22.2189
 21
40.4734
  0
LINE
  8
0
 10
22.2189
 20
40.4734
 11
22.4058
 21
40.4971
  0
LINE
  8
0
 10
22.4058
 20
40.4971
 11
22.5942
 21
40.4971
  0
LINE
  8
0
 10
22.5942
 20
40.4971
 11
22.7811
 21
40.4734
  0
LINE
  8
0
 10
22.7811
 20
40.4734
 11
22.9635
 21
40.4266
  0
LINE
  8
0
 10
22.9635
 20
40.4266
 11
23.1387
 21
40.3573
  0
LINE
  8
0
 10
23.1387
 20
40.3573
 11
23.3037
 21
40.2665
  0
LINE
  8
0
 10
23.3037
 20
40.2665
 11
23.4561
 21
40.1558
  0
LINE
  8
0
 10
23.4561
 20
40.1558
 11
23.5934
 21
40.0268
  0
LINE
  8
0
 10
23.5934
 20
40.0268
 11
23.7135
 21
39.8817
  0
LINE
  8
0
 10
23.7135
 20
39.8817
 11
23.8145
 21
39.7226
  0
LINE
  8
0
 10
23.8145
 20
39.7226
 11
23.8947
 21
39.5522
  0
LINE
  8
0
 10
23.8947
 20
39.5522
 11
23.9529
 21
39.373
  0
LINE
  8
0
 10
23.9529
 20
39.373
 11
23.9882
 21
39.188
  0
LINE
  8
0
 10
23.9882
 20
39.188
 11
24
 21
39
  0
LINE
  8
0
 10
24
 20
39
 11
23.9882
 21
38.812
  0
LINE
  8
0
 10
23.9882
 20
38.812
 11
23.9529
 21
38.627
  0
LINE
  8
0
 10
23.9529
 20
38.627
 11
23.8947
 21
38.4478
  0
LINE
  8
0
 10
23.8947
 20
38.4478
 11
23.8145
 21
38.2774
  0
LINE
  8
0
 10
23.8145
 20
38.2774
 11
23.7135
 21
38.1183
  0
LINE
  8
0
 10
23.7135
 20
38.1183
 11
23.5934
 21
37.9732
  0
LINE
  8
0
 10
23.5934
 20
37.9732
 11
23.4561
 21
37.8442
  0
LINE
  8
0
 10
23.4561
 20
37.8442
 11
23.3037
 21
37.7335
  0
LINE
  8
0
 10
23.3037
 20
37.7335
 11
23.1387
 21
37.6428
  0
LINE
  8
0
 10
23.1387
 20
37.6428
 11
22.9635
 21
37.5734
  0
LINE
  8
0
 10
22.9635
 20
37.5734
 11
22.7811
 21
37.5266
  0
LINE
  8
0
 10
22.7811
 20
37.5266
 11
22.5942
 21
37.503
  0
LINE
  8
0
 10
22.5942
 20
37.503
 11
22.4058
 21
37.503
  0
LINE
  8
0
 10
-22.5942
 20
37.503
 11
-22.7811
 21
37.5266
  0
LINE
  8
0
 10
-22.7811
 20
37.5266
 11
-22.9635
 21
37.5734
  0
LINE
  8
0
 10
-22.9635
 20
37.5734
 11
-23.1387
 21
37.6428
  0
LINE
  8
0
 10
-23.1387
 20
37.6428
 11
-23.3037
 21
37.7335
  0
LINE
  8
0
 10
-23.3037
 20
37.7335
 11
-23.4561
 21
37.8442
  0
LINE
  8
0
 10
-23.4561
 20
37.8442
 11
-23.5934
 21
37.9732
  0
LINE
  8
0
 10
-23.5934
 20
37.9732
 11
-23.7135
 21
38.1183
  0
LINE
  8
0
 10
-23.7135
 20
38.1183
 11
-23.8145
 21
38.2774
  0
LINE
  8
0
 10
-23.8145
 20
38.2774
 11
-23.8947
 21
38.4478
  0
LINE
  8
0
 10
-23.8947
 20
38.4478
 11
-23.9529
 21
38.627
  0
LINE
  8
0
 10
-23.9529
 20
38.627
 11
-23.9882
 21
38.812
  0
LINE
  8
0
 10
-23.9882
 20
38.812
 11
-24
 21
39
  0
LINE
  8
0
 10
-24
 20
39
 11
-23.9882
 21
39.188
  0
LINE
  8
0
 10
-23.9882
 20
39.188
 11
-23.9529
 21
39.373
  0
LINE
  8
0
 10
-23.9529
 20
39.373
 11
-23.8947
 21
39.5522
  0
LINE
  8
0
 10
-23.8947
 20
39.5522
 11
-23.8145
 21
39.7226
  0
LINE
  8
0
 10
-23.8145
 20
39.7226
 11
-23.7135
 21
39.8817
  0
LINE
  8
0
 10
-23.7135
 20
39.8817
 11
-23.5934
 21
40.0268
  0
LINE
  8
0
 10
-23.5934
 20
40.0268
 11
-23.4561
 21
40.1558
  0
LINE
  8
0
 10
-23.4561
 20
40.1558
 11
-23.3037
 21
40.2665
  0
LINE
  8
0
 10
-23.3037
 20
40.2665
 11
-23.1387
 21
40.3573
  0
LINE
  8
0
 10
-23.1387
 20
40.3573
 11
-22.9635
 21
40.4266
  0
LINE
  8
0
 10
-22.9635
 20
40.4266
 11
-22.7811
 21
40.4734
  0
LINE
  8
0
 10
-22.7811
 20
40.4734
 11
-22.5942
 21
40.4971
  0
LINE
  8
0
 10
-22.5942
 20
40.4971
 11
-22.4058
 21
40.4971
  0
LINE
  8
0
 10
-22.4058
 20
40.4971
 11
-22.2189
 21
40.4734
  0
LINE
  8
0
 10
-22.2189
 20
40.4734
 11
-22.0365
 21
40.4266
  0
LINE
  8
0
 10
-22.0365
 20
40.4266
 11
-21.8613
 21
40.3573
  0
LINE
  8
0
 10
-21.8613
 20
40.3573
 11
-21.6963
 21
40.2665
  0
LINE
  8
0
 10
-21.6963
 20
40.2665
 11
-21.5439
 21
40.1558
  0
LINE
  8
0
 10
-21.5439
 20
40.1558
 11
-21.4065
 21
40.0268
  0
LINE
  8
0
 10
-21.4065
 20
40.0268
 11
-21.2865
 21
39.8817
  0
LINE
  8
0
 10
-21.2865
 20
39.8817
 11
-21.1855
 21
39.7226
  0
LINE
  8
0
 10
-21.1855
 20
39.7226
 11
-21.1053
 21
39.5522
  0
LINE
  8
0
 10
-21.1053
 20
39.5522
 11
-21.0471
 21
39.373
  0
LINE
  8
0
 10
-21.0471
 20
39.373
 11
-21.0118
 21
39.188
  0
LINE
  8
0
 10
-21.0118
 20
39.188
 11
-21
 21
39
  0
LINE
  8
0
 10
-21
 20
39
 11
-21.0118
 21
38.812
  0
LINE
  8
0
 10
-21.0118
 20
38.812
 11
-21.0471
 21
38.627
  0
LINE
  8
0
 10
-21.0471
 20
38.627
 11
-21.1053
 21
38.4478
  0
LINE
  8
0
 10
-21.1053
 20
38.4478
 11
-21.1855
 21
38.2774
  0
LINE
  8
0
 10
-21.1855
 20
38.2774
 11
-21.2865
 21
38.1183
  0
LINE
  8
0
 10
-21.2865
 20
38.1183
 11
-21.4065
 21
37.9732
  0
LINE
  8
0
 10
-21.4065
 20
37.9732
 11
-21.5439
 21
37.8442
  0
LINE
  8
0
 10
-21.5439
 20
37.8442
 11
-21.6963
 21
37.7335
  0
LINE
  8
0
 10
-21.6963
 20
37.7335
 11
-21.8613
 21
37.6428
  0
LINE
  8
0
 10
-21.8613
 20
37.6428
 11
-22.0365
 21
37.5734
  0
LINE
  8
0
 10
-22.0365
 20
37.5734
 11
-22.2189
 21
37.5266
  0
LINE
  8
0
 10
-22.2189
 20
37.5266
 11
-22.4058
 21
37.503
  0
LINE
  8
0
 10
-22.4058
 20
37.503
 11
-22.5942
 21
37.503
  0
ENDSEC
  0
SECTION
  2
OBJECTS
  0
DICTIONARY
  0
ENDSEC
  0
EOF
