  0
SECTION
  2
BLOCKS
  0
ENDSEC
  0
SECTION
  2
ENTITIES
  0
LINE
  8
0
 10
152.937
 20
-21.9114
 11
153.545
 21
-21.7553
  0
LINE
  8
0
 10
153.545
 20
-21.7553
 11
154.129
 21
-21.5241
  0
LINE
  8
0
 10
154.129
 20
-21.5241
 11
154.679
 21
-21.2216
  0
LINE
  8
0
 10
154.679
 20
-21.2216
 11
155.187
 21
-20.8526
  0
LINE
  8
0
 10
155.187
 20
-20.8526
 11
155.645
 21
-20.4227
  0
LINE
  8
0
 10
155.645
 20
-20.4227
 11
156.045
 21
-19.9389
  0
LINE
  8
0
 10
156.045
 20
-19.9389
 11
156.382
 21
-19.4088
  0
LINE
  8
0
 10
156.382
 20
-19.4088
 11
156.649
 21
-18.8406
  0
LINE
  8
0
 10
156.649
 20
-18.8406
 11
156.843
 21
-18.2434
  0
LINE
  8
0
 10
156.843
 20
-18.2434
 11
156.961
 21
-17.6267
  0
LINE
  8
0
 10
156.961
 20
-17.6267
 11
157
 21
-17
  0
LINE
  8
0
 10
157
 20
-17
 11
157
 21
17
  0
LINE
  8
0
 10
157
 20
17
 11
156.961
 21
17.6267
  0
LINE
  8
0
 10
156.961
 20
17.6267
 11
156.843
 21
18.2434
  0
LINE
  8
0
 10
156.843
 20
18.2434
 11
156.649
 21
18.8406
  0
LINE
  8
0
 10
156.649
 20
18.8406
 11
156.382
 21
19.4088
  0
LINE
  8
0
 10
156.382
 20
19.4088
 11
156.045
 21
19.9389
  0
LINE
  8
0
 10
156.045
 20
19.9389
 11
155.645
 21
20.4227
  0
LINE
  8
0
 10
155.645
 20
20.4227
 11
155.187
 21
20.8526
  0
LINE
  8
0
 10
155.187
 20
20.8526
 11
154.679
 21
21.2216
  0
LINE
  8
0
 10
154.679
 20
21.2216
 11
154.129
 21
21.5241
  0
LINE
  8
0
 10
154.129
 20
21.5241
 11
153.545
 21
21.7553
  0
LINE
  8
0
 10
153.545
 20
21.7553
 11
152.937
 21
21.9114
  0
LINE
  8
0
 10
152.937
 20
21.9114
 11
152.314
 21
21.9901
  0
LINE
  8
0
 10
152.314
 20
21.9901
 11
-152.314
 21
21.9901
  0
LINE
  8
0
 10
-152.314
 20
21.9901
 11
-152.937
 21
21.9114
  0
LINE
  8
0
 10
-152.937
 20
21.9114
 11
-153.545
 21
21.7553
  0
LINE
  8
0
 10
-153.545
 20
21.7553
 11
-154.129
 21
21.5241
  0
LINE
  8
0
 10
-154.129
 20
21.5241
 11
-154.679
 21
21.2216
  0
LINE
  8
0
 10
-154.679
 20
21.2216
 11
-155.187
 21
20.8526
  0
LINE
  8
0
 10
-155.187
 20
20.8526
 11
-155.645
 21
20.4227
  0
LINE
  8
0
 10
-155.645
 20
20.4227
 11
-156.045
 21
19.9389
  0
LINE
  8
0
 10
-156.045
 20
19.9389
 11
-156.382
 21
19.4088
  0
LINE
  8
0
 10
-156.382
 20
19.4088
 11
-156.649
 21
18.8406
  0
LINE
  8
0
 10
-156.649
 20
18.8406
 11
-156.843
 21
18.2434
  0
LINE
  8
0
 10
-156.843
 20
18.2434
 11
-156.961
 21
17.6267
  0
LINE
  8
0
 10
-156.961
 20
17.6267
 11
-157
 21
17
  0
LINE
  8
0
 10
-157
 20
17
 11
-157
 21
-17
  0
LINE
  8
0
 10
-157
 20
-17
 11
-156.961
 21
-17.6267
  0
LINE
  8
0
 10
-156.961
 20
-17.6267
 11
-156.843
 21
-18.2434
  0
LINE
  8
0
 10
-156.843
 20
-18.2434
 11
-156.649
 21
-18.8406
  0
LINE
  8
0
 10
-156.649
 20
-18.8406
 11
-156.382
 21
-19.4088
  0
LINE
  8
0
 10
-156.382
 20
-19.4088
 11
-156.045
 21
-19.9389
  0
LINE
  8
0
 10
-156.045
 20
-19.9389
 11
-155.645
 21
-20.4227
  0
LINE
  8
0
 10
-155.645
 20
-20.4227
 11
-155.187
 21
-20.8526
  0
LINE
  8
0
 10
-155.187
 20
-20.8526
 11
-154.679
 21
-21.2216
  0
LINE
  8
0
 10
-154.679
 20
-21.2216
 11
-154.129
 21
-21.5241
  0
LINE
  8
0
 10
-154.129
 20
-21.5241
 11
-153.545
 21
-21.7553
  0
LINE
  8
0
 10
-153.545
 20
-21.7553
 11
-152.937
 21
-21.9114
  0
LINE
  8
0
 10
-152.937
 20
-21.9114
 11
-152.314
 21
-21.9901
  0
LINE
  8
0
 10
-152.314
 20
-21.9901
 11
152.314
 21
-21.9901
  0
LINE
  8
0
 10
152.314
 20
-21.9901
 11
152.937
 21
-21.9114
  0
LINE
  8
0
 10
149.812
 20
12.0059
 11
149.438
 21
12.0531
  0
LINE
  8
0
 10
149.438
 20
12.0531
 11
149.073
 21
12.1468
  0
LINE
  8
0
 10
149.073
 20
12.1468
 11
148.723
 21
12.2855
  0
LINE
  8
0
 10
148.723
 20
12.2855
 11
148.393
 21
12.467
  0
LINE
  8
0
 10
148.393
 20
12.467
 11
148.088
 21
12.6884
  0
LINE
  8
0
 10
148.088
 20
12.6884
 11
147.813
 21
12.9464
  0
LINE
  8
0
 10
147.813
 20
12.9464
 11
147.573
 21
13.2366
  0
LINE
  8
0
 10
147.573
 20
13.2366
 11
147.371
 21
13.5547
  0
LINE
  8
0
 10
147.371
 20
13.5547
 11
147.211
 21
13.8956
  0
LINE
  8
0
 10
147.211
 20
13.8956
 11
147.094
 21
14.2539
  0
LINE
  8
0
 10
147.094
 20
14.2539
 11
147.024
 21
14.624
  0
LINE
  8
0
 10
147.024
 20
14.624
 11
147
 21
15
  0
LINE
  8
0
 10
147
 20
15
 11
147.024
 21
15.376
  0
LINE
  8
0
 10
147.024
 20
15.376
 11
147.094
 21
15.7461
  0
LINE
  8
0
 10
147.094
 20
15.7461
 11
147.211
 21
16.1044
  0
LINE
  8
0
 10
147.211
 20
16.1044
 11
147.371
 21
16.4453
  0
LINE
  8
0
 10
147.371
 20
16.4453
 11
147.573
 21
16.7634
  0
LINE
  8
0
 10
147.573
 20
16.7634
 11
147.813
 21
17.0536
  0
LINE
  8
0
 10
147.813
 20
17.0536
 11
148.088
 21
17.3115
  0
LINE
  8
0
 10
148.088
 20
17.3115
 11
148.393
 21
17.533
  0
LINE
  8
0
 10
148.393
 20
17.533
 11
148.723
 21
17.7145
  0
LINE
  8
0
 10
148.723
 20
17.7145
 11
149.073
 21
17.8532
  0
LINE
  8
0
 10
149.073
 20
17.8532
 11
149.438
 21
17.9469
  0
LINE
  8
0
 10
149.438
 20
17.9469
 11
149.812
 21
17.9941
  0
LINE
  8
0
 10
149.812
 20
17.9941
 11
150.188
 21
17.9941
  0
LINE
  8
0
 10
150.188
 20
17.9941
 11
150.562
 21
17.9469
  0
LINE
  8
0
 10
150.562
 20
17.9469
 11
150.927
 21
17.8532
  0
LINE
  8
0
 10
150.927
 20
17.8532
 11
151.277
 21
17.7145
  0
LINE
  8
0
 10
151.277
 20
17.7145
 11
151.607
 21
17.533
  0
LINE
  8
0
 10
151.607
 20
17.533
 11
151.912
 21
17.3115
  0
LINE
  8
0
 10
151.912
 20
17.3115
 11
152.187
 21
17.0536
  0
LINE
  8
0
 10
152.187
 20
17.0536
 11
152.427
 21
16.7634
  0
LINE
  8
0
 10
152.427
 20
16.7634
 11
152.629
 21
16.4453
  0
LINE
  8
0
 10
152.629
 20
16.4453
 11
152.789
 21
16.1044
  0
LINE
  8
0
 10
152.789
 20
16.1044
 11
152.906
 21
15.7461
  0
LINE
  8
0
 10
152.906
 20
15.7461
 11
152.976
 21
15.376
  0
LINE
  8
0
 10
152.976
 20
15.376
 11
153
 21
15
  0
LINE
  8
0
 10
153
 20
15
 11
152.976
 21
14.624
  0
LINE
  8
0
 10
152.976
 20
14.624
 11
152.906
 21
14.2539
  0
LINE
  8
0
 10
152.906
 20
14.2539
 11
152.789
 21
13.8956
  0
LINE
  8
0
 10
152.789
 20
13.8956
 11
152.629
 21
13.5547
  0
LINE
  8
0
 10
152.629
 20
13.5547
 11
152.427
 21
13.2366
  0
LINE
  8
0
 10
152.427
 20
13.2366
 11
152.187
 21
12.9464
  0
LINE
  8
0
 10
152.187
 20
12.9464
 11
151.912
 21
12.6884
  0
LINE
  8
0
 10
151.912
 20
12.6884
 11
151.607
 21
12.467
  0
LINE
  8
0
 10
151.607
 20
12.467
 11
151.277
 21
12.2855
  0
LINE
  8
0
 10
151.277
 20
12.2855
 11
150.927
 21
12.1468
  0
LINE
  8
0
 10
150.927
 20
12.1468
 11
150.562
 21
12.0531
  0
LINE
  8
0
 10
150.562
 20
12.0531
 11
150.188
 21
12.0059
  0
LINE
  8
0
 10
150.188
 20
12.0059
 11
149.812
 21
12.0059
  0
LINE
  8
0
 10
-150.188
 20
12.0059
 11
-150.562
 21
12.0531
  0
LINE
  8
0
 10
-150.562
 20
12.0531
 11
-150.927
 21
12.1468
  0
LINE
  8
0
 10
-150.927
 20
12.1468
 11
-151.277
 21
12.2855
  0
LINE
  8
0
 10
-151.277
 20
12.2855
 11
-151.607
 21
12.467
  0
LINE
  8
0
 10
-151.607
 20
12.467
 11
-151.912
 21
12.6884
  0
LINE
  8
0
 10
-151.912
 20
12.6884
 11
-152.187
 21
12.9464
  0
LINE
  8
0
 10
-152.187
 20
12.9464
 11
-152.427
 21
13.2366
  0
LINE
  8
0
 10
-152.427
 20
13.2366
 11
-152.629
 21
13.5547
  0
LINE
  8
0
 10
-152.629
 20
13.5547
 11
-152.789
 21
13.8956
  0
LINE
  8
0
 10
-152.789
 20
13.8956
 11
-152.906
 21
14.2539
  0
LINE
  8
0
 10
-152.906
 20
14.2539
 11
-152.976
 21
14.624
  0
LINE
  8
0
 10
-152.976
 20
14.624
 11
-153
 21
15
  0
LINE
  8
0
 10
-153
 20
15
 11
-152.976
 21
15.376
  0
LINE
  8
0
 10
-152.976
 20
15.376
 11
-152.906
 21
15.7461
  0
LINE
  8
0
 10
-152.906
 20
15.7461
 11
-152.789
 21
16.1044
  0
LINE
  8
0
 10
-152.789
 20
16.1044
 11
-152.629
 21
16.4453
  0
LINE
  8
0
 10
-152.629
 20
16.4453
 11
-152.427
 21
16.7634
  0
LINE
  8
0
 10
-152.427
 20
16.7634
 11
-152.187
 21
17.0536
  0
LINE
  8
0
 10
-152.187
 20
17.0536
 11
-151.912
 21
17.3115
  0
LINE
  8
0
 10
-151.912
 20
17.3115
 11
-151.607
 21
17.533
  0
LINE
  8
0
 10
-151.607
 20
17.533
 11
-151.277
 21
17.7145
  0
LINE
  8
0
 10
-151.277
 20
17.7145
 11
-150.927
 21
17.8532
  0
LINE
  8
0
 10
-150.927
 20
17.8532
 11
-150.562
 21
17.9469
  0
LINE
  8
0
 10
-150.562
 20
17.9469
 11
-150.188
 21
17.9941
  0
LINE
  8
0
 10
-150.188
 20
17.9941
 11
-149.812
 21
17.9941
  0
LINE
  8
0
 10
-149.812
 20
17.9941
 11
-149.438
 21
17.9469
  0
LINE
  8
0
 10
-149.438
 20
17.9469
 11
-149.073
 21
17.8532
  0
LINE
  8
0
 10
-149.073
 20
17.8532
 11
-148.723
 21
17.7145
  0
LINE
  8
0
 10
-148.723
 20
17.7145
 11
-148.393
 21
17.533
  0
LINE
  8
0
 10
-148.393
 20
17.533
 11
-148.088
 21
17.3115
  0
LINE
  8
0
 10
-148.088
 20
17.3115
 11
-147.813
 21
17.0536
  0
LINE
  8
0
 10
-147.813
 20
17.0536
 11
-147.573
 21
16.7634
  0
LINE
  8
0
 10
-147.573
 20
16.7634
 11
-147.371
 21
16.4453
  0
LINE
  8
0
 10
-147.371
 20
16.4453
 11
-147.211
 21
16.1044
  0
LINE
  8
0
 10
-147.211
 20
16.1044
 11
-147.094
 21
15.7461
  0
LINE
  8
0
 10
-147.094
 20
15.7461
 11
-147.024
 21
15.376
  0
LINE
  8
0
 10
-147.024
 20
15.376
 11
-147
 21
15
  0
LINE
  8
0
 10
-147
 20
15
 11
-147.024
 21
14.624
  0
LINE
  8
0
 10
-147.024
 20
14.624
 11
-147.094
 21
14.2539
  0
LINE
  8
0
 10
-147.094
 20
14.2539
 11
-147.211
 21
13.8956
  0
LINE
  8
0
 10
-147.211
 20
13.8956
 11
-147.371
 21
13.5547
  0
LINE
  8
0
 10
-147.371
 20
13.5547
 11
-147.573
 21
13.2366
  0
LINE
  8
0
 10
-147.573
 20
13.2366
 11
-147.813
 21
12.9464
  0
LINE
  8
0
 10
-147.813
 20
12.9464
 11
-148.088
 21
12.6884
  0
LINE
  8
0
 10
-148.088
 20
12.6884
 11
-148.393
 21
12.467
  0
LINE
  8
0
 10
-148.393
 20
12.467
 11
-148.723
 21
12.2855
  0
LINE
  8
0
 10
-148.723
 20
12.2855
 11
-149.073
 21
12.1468
  0
LINE
  8
0
 10
-149.073
 20
12.1468
 11
-149.438
 21
12.0531
  0
LINE
  8
0
 10
-149.438
 20
12.0531
 11
-149.812
 21
12.0059
  0
LINE
  8
0
 10
-149.812
 20
12.0059
 11
-150.188
 21
12.0059
  0
LINE
  8
0
 10
-150.094
 20
6.00294
 11
-150.281
 21
6.02657
  0
LINE
  8
0
 10
-150.281
 20
6.02657
 11
-150.464
 21
6.07341
  0
LINE
  8
0
 10
-150.464
 20
6.07341
 11
-150.639
 21
6.14275
  0
LINE
  8
0
 10
-150.639
 20
6.14275
 11
-150.804
 21
6.23351
  0
LINE
  8
0
 10
-150.804
 20
6.23351
 11
-150.956
 21
6.34422
  0
LINE
  8
0
 10
-150.956
 20
6.34422
 11
-151.093
 21
6.47318
  0
LINE
  8
0
 10
-151.093
 20
6.47318
 11
-151.214
 21
6.61832
  0
LINE
  8
0
 10
-151.214
 20
6.61832
 11
-151.314
 21
6.77736
  0
LINE
  8
0
 10
-151.314
 20
6.77736
 11
-151.395
 21
6.9478
  0
LINE
  8
0
 10
-151.395
 20
6.9478
 11
-151.453
 21
7.12695
  0
LINE
  8
0
 10
-151.453
 20
7.12695
 11
-151.488
 21
7.312
  0
LINE
  8
0
 10
-151.488
 20
7.312
 11
-151.5
 21
7.5
  0
LINE
  8
0
 10
-151.5
 20
7.5
 11
-151.488
 21
7.68799
  0
LINE
  8
0
 10
-151.488
 20
7.68799
 11
-151.453
 21
7.87303
  0
LINE
  8
0
 10
-151.453
 20
7.87303
 11
-151.395
 21
8.05219
  0
LINE
  8
0
 10
-151.395
 20
8.05219
 11
-151.314
 21
8.22263
  0
LINE
  8
0
 10
-151.314
 20
8.22263
 11
-151.214
 21
8.38167
  0
LINE
  8
0
 10
-151.214
 20
8.38167
 11
-151.093
 21
8.52681
  0
LINE
  8
0
 10
-151.093
 20
8.52681
 11
-150.956
 21
8.65576
  0
LINE
  8
0
 10
-150.956
 20
8.65576
 11
-150.804
 21
8.76648
  0
LINE
  8
0
 10
-150.804
 20
8.76648
 11
-150.639
 21
8.85724
  0
LINE
  8
0
 10
-150.639
 20
8.85724
 11
-150.464
 21
8.92657
  0
LINE
  8
0
 10
-150.464
 20
8.92657
 11
-150.281
 21
8.97342
  0
LINE
  8
0
 10
-150.281
 20
8.97342
 11
-150.094
 21
8.99704
  0
LINE
  8
0
 10
-150.094
 20
8.99704
 11
-149.906
 21
8.99704
  0
LINE
  8
0
 10
-149.906
 20
8.99704
 11
-149.719
 21
8.97342
  0
LINE
  8
0
 10
-149.719
 20
8.97342
 11
-149.536
 21
8.92657
  0
LINE
  8
0
 10
-149.536
 20
8.92657
 11
-149.361
 21
8.85724
  0
LINE
  8
0
 10
-149.361
 20
8.85724
 11
-149.196
 21
8.76648
  0
LINE
  8
0
 10
-149.196
 20
8.76648
 11
-149.044
 21
8.65576
  0
LINE
  8
0
 10
-149.044
 20
8.65576
 11
-148.907
 21
8.52681
  0
LINE
  8
0
 10
-148.907
 20
8.52681
 11
-148.786
 21
8.38167
  0
LINE
  8
0
 10
-148.786
 20
8.38167
 11
-148.686
 21
8.22263
  0
LINE
  8
0
 10
-148.686
 20
8.22263
 11
-148.605
 21
8.05219
  0
LINE
  8
0
 10
-148.605
 20
8.05219
 11
-148.547
 21
7.87303
  0
LINE
  8
0
 10
-148.547
 20
7.87303
 11
-148.512
 21
7.68799
  0
LINE
  8
0
 10
-148.512
 20
7.68799
 11
-148.5
 21
7.5
  0
LINE
  8
0
 10
-148.5
 20
7.5
 11
-148.512
 21
7.312
  0
LINE
  8
0
 10
-148.512
 20
7.312
 11
-148.547
 21
7.12695
  0
LINE
  8
0
 10
-148.547
 20
7.12695
 11
-148.605
 21
6.9478
  0
LINE
  8
0
 10
-148.605
 20
6.9478
 11
-148.686
 21
6.77736
  0
LINE
  8
0
 10
-148.686
 20
6.77736
 11
-148.786
 21
6.61832
  0
LINE
  8
0
 10
-148.786
 20
6.61832
 11
-148.907
 21
6.47318
  0
LINE
  8
0
 10
-148.907
 20
6.47318
 11
-149.044
 21
6.34422
  0
LINE
  8
0
 10
-149.044
 20
6.34422
 11
-149.196
 21
6.23351
  0
LINE
  8
0
 10
-149.196
 20
6.23351
 11
-149.361
 21
6.14275
  0
LINE
  8
0
 10
-149.361
 20
6.14275
 11
-149.536
 21
6.07341
  0
LINE
  8
0
 10
-149.536
 20
6.07341
 11
-149.719
 21
6.02657
  0
LINE
  8
0
 10
-149.719
 20
6.02657
 11
-149.906
 21
6.00294
  0
LINE
  8
0
 10
-149.906
 20
6.00294
 11
-150.094
 21
6.00294
  0
LINE
  8
0
 10
149.906
 20
6.00294
 11
149.719
 21
6.02657
  0
LINE
  8
0
 10
149.719
 20
6.02657
 11
149.536
 21
6.07341
  0
LINE
  8
0
 10
149.536
 20
6.07341
 11
149.361
 21
6.14275
  0
LINE
  8
0
 10
149.361
 20
6.14275
 11
149.196
 21
6.23351
  0
LINE
  8
0
 10
149.196
 20
6.23351
 11
149.044
 21
6.34422
  0
LINE
  8
0
 10
149.044
 20
6.34422
 11
148.907
 21
6.47318
  0
LINE
  8
0
 10
148.907
 20
6.47318
 11
148.786
 21
6.61832
  0
LINE
  8
0
 10
148.786
 20
6.61832
 11
148.686
 21
6.77736
  0
LINE
  8
0
 10
148.686
 20
6.77736
 11
148.605
 21
6.9478
  0
LINE
  8
0
 10
148.605
 20
6.9478
 11
148.547
 21
7.12695
  0
LINE
  8
0
 10
148.547
 20
7.12695
 11
148.512
 21
7.312
  0
LINE
  8
0
 10
148.512
 20
7.312
 11
148.5
 21
7.5
  0
LINE
  8
0
 10
148.5
 20
7.5
 11
148.512
 21
7.68799
  0
LINE
  8
0
 10
148.512
 20
7.68799
 11
148.547
 21
7.87303
  0
LINE
  8
0
 10
148.547
 20
7.87303
 11
148.605
 21
8.05219
  0
LINE
  8
0
 10
148.605
 20
8.05219
 11
148.686
 21
8.22263
  0
LINE
  8
0
 10
148.686
 20
8.22263
 11
148.786
 21
8.38167
  0
LINE
  8
0
 10
148.786
 20
8.38167
 11
148.907
 21
8.52681
  0
LINE
  8
0
 10
148.907
 20
8.52681
 11
149.044
 21
8.65576
  0
LINE
  8
0
 10
149.044
 20
8.65576
 11
149.196
 21
8.76648
  0
LINE
  8
0
 10
149.196
 20
8.76648
 11
149.361
 21
8.85724
  0
LINE
  8
0
 10
149.361
 20
8.85724
 11
149.536
 21
8.92657
  0
LINE
  8
0
 10
149.536
 20
8.92657
 11
149.719
 21
8.97342
  0
LINE
  8
0
 10
149.719
 20
8.97342
 11
149.906
 21
8.99704
  0
LINE
  8
0
 10
149.906
 20
8.99704
 11
150.094
 21
8.99704
  0
LINE
  8
0
 10
150.094
 20
8.99704
 11
150.281
 21
8.97342
  0
LINE
  8
0
 10
150.281
 20
8.97342
 11
150.464
 21
8.92657
  0
LINE
  8
0
 10
150.464
 20
8.92657
 11
150.639
 21
8.85724
  0
LINE
  8
0
 10
150.639
 20
8.85724
 11
150.804
 21
8.76648
  0
LINE
  8
0
 10
150.804
 20
8.76648
 11
150.956
 21
8.65576
  0
LINE
  8
0
 10
150.956
 20
8.65576
 11
151.093
 21
8.52681
  0
LINE
  8
0
 10
151.093
 20
8.52681
 11
151.214
 21
8.38167
  0
LINE
  8
0
 10
151.214
 20
8.38167
 11
151.314
 21
8.22263
  0
LINE
  8
0
 10
151.314
 20
8.22263
 11
151.395
 21
8.05219
  0
LINE
  8
0
 10
151.395
 20
8.05219
 11
151.453
 21
7.87303
  0
LINE
  8
0
 10
151.453
 20
7.87303
 11
151.488
 21
7.68799
  0
LINE
  8
0
 10
151.488
 20
7.68799
 11
151.5
 21
7.5
  0
LINE
  8
0
 10
151.5
 20
7.5
 11
151.488
 21
7.312
  0
LINE
  8
0
 10
151.488
 20
7.312
 11
151.453
 21
7.12695
  0
LINE
  8
0
 10
151.453
 20
7.12695
 11
151.395
 21
6.9478
  0
LINE
  8
0
 10
151.395
 20
6.9478
 11
151.314
 21
6.77736
  0
LINE
  8
0
 10
151.314
 20
6.77736
 11
151.214
 21
6.61832
  0
LINE
  8
0
 10
151.214
 20
6.61832
 11
151.093
 21
6.47318
  0
LINE
  8
0
 10
151.093
 20
6.47318
 11
150.956
 21
6.34422
  0
LINE
  8
0
 10
150.956
 20
6.34422
 11
150.804
 21
6.23351
  0
LINE
  8
0
 10
150.804
 20
6.23351
 11
150.639
 21
6.14275
  0
LINE
  8
0
 10
150.639
 20
6.14275
 11
150.464
 21
6.07341
  0
LINE
  8
0
 10
150.464
 20
6.07341
 11
150.281
 21
6.02657
  0
LINE
  8
0
 10
150.281
 20
6.02657
 11
150.094
 21
6.00294
  0
LINE
  8
0
 10
150.094
 20
6.00294
 11
149.906
 21
6.00294
  0
LINE
  8
0
 10
-150.188
 20
-2.99408
 11
-150.562
 21
-2.94685
  0
LINE
  8
0
 10
-150.562
 20
-2.94685
 11
-150.927
 21
-2.85316
  0
LINE
  8
0
 10
-150.927
 20
-2.85316
 11
-151.277
 21
-2.71448
  0
LINE
  8
0
 10
-151.277
 20
-2.71448
 11
-151.607
 21
-2.53297
  0
LINE
  8
0
 10
-151.607
 20
-2.53297
 11
-151.912
 21
-2.31154
  0
LINE
  8
0
 10
-151.912
 20
-2.31154
 11
-152.187
 21
-2.05363
  0
LINE
  8
0
 10
-152.187
 20
-2.05363
 11
-152.427
 21
-1.76335
  0
LINE
  8
0
 10
-152.427
 20
-1.76335
 11
-152.629
 21
-1.44525
  0
LINE
  8
0
 10
-152.629
 20
-1.44525
 11
-152.789
 21
-1.10437
  0
LINE
  8
0
 10
-152.789
 20
-1.10437
 11
-152.906
 21
-0.746063
  0
LINE
  8
0
 10
-152.906
 20
-0.746063
 11
-152.976
 21
-0.375992
  0
LINE
  8
0
 10
-152.976
 20
-0.375992
 11
-153
 21
0
  0
LINE
  8
0
 10
-153
 20
0
 11
-152.976
 21
0.375992
  0
LINE
  8
0
 10
-152.976
 20
0.375992
 11
-152.906
 21
0.746063
  0
LINE
  8
0
 10
-152.906
 20
0.746063
 11
-152.789
 21
1.10437
  0
LINE
  8
0
 10
-152.789
 20
1.10437
 11
-152.629
 21
1.44525
  0
LINE
  8
0
 10
-152.629
 20
1.44525
 11
-152.427
 21
1.76335
  0
LINE
  8
0
 10
-152.427
 20
1.76335
 11
-152.187
 21
2.05363
  0
LINE
  8
0
 10
-152.187
 20
2.05363
 11
-151.912
 21
2.31154
  0
LINE
  8
0
 10
-151.912
 20
2.31154
 11
-151.607
 21
2.53297
  0
LINE
  8
0
 10
-151.607
 20
2.53297
 11
-151.277
 21
2.71448
  0
LINE
  8
0
 10
-151.277
 20
2.71448
 11
-150.927
 21
2.85316
  0
LINE
  8
0
 10
-150.927
 20
2.85316
 11
-150.562
 21
2.94685
  0
LINE
  8
0
 10
-150.562
 20
2.94685
 11
-150.188
 21
2.99408
  0
LINE
  8
0
 10
-150.188
 20
2.99408
 11
-149.812
 21
2.99408
  0
LINE
  8
0
 10
-149.812
 20
2.99408
 11
-149.438
 21
2.94685
  0
LINE
  8
0
 10
-149.438
 20
2.94685
 11
-149.073
 21
2.85316
  0
LINE
  8
0
 10
-149.073
 20
2.85316
 11
-148.723
 21
2.71448
  0
LINE
  8
0
 10
-148.723
 20
2.71448
 11
-148.393
 21
2.53297
  0
LINE
  8
0
 10
-148.393
 20
2.53297
 11
-148.088
 21
2.31154
  0
LINE
  8
0
 10
-148.088
 20
2.31154
 11
-147.813
 21
2.05363
  0
LINE
  8
0
 10
-147.813
 20
2.05363
 11
-147.573
 21
1.76335
  0
LINE
  8
0
 10
-147.573
 20
1.76335
 11
-147.371
 21
1.44525
  0
LINE
  8
0
 10
-147.371
 20
1.44525
 11
-147.211
 21
1.10437
  0
LINE
  8
0
 10
-147.211
 20
1.10437
 11
-147.094
 21
0.746063
  0
LINE
  8
0
 10
-147.094
 20
0.746063
 11
-147.024
 21
0.375992
  0
LINE
  8
0
 10
-147.024
 20
0.375992
 11
-147
 21
0
  0
LINE
  8
0
 10
-147
 20
0
 11
-147.024
 21
-0.375992
  0
LINE
  8
0
 10
-147.024
 20
-0.375992
 11
-147.094
 21
-0.746063
  0
LINE
  8
0
 10
-147.094
 20
-0.746063
 11
-147.211
 21
-1.10437
  0
LINE
  8
0
 10
-147.211
 20
-1.10437
 11
-147.371
 21
-1.44525
  0
LINE
  8
0
 10
-147.371
 20
-1.44525
 11
-147.573
 21
-1.76335
  0
LINE
  8
0
 10
-147.573
 20
-1.76335
 11
-147.813
 21
-2.05363
  0
LINE
  8
0
 10
-147.813
 20
-2.05363
 11
-148.088
 21
-2.31154
  0
LINE
  8
0
 10
-148.088
 20
-2.31154
 11
-148.393
 21
-2.53297
  0
LINE
  8
0
 10
-148.393
 20
-2.53297
 11
-148.723
 21
-2.71448
  0
LINE
  8
0
 10
-148.723
 20
-2.71448
 11
-149.073
 21
-2.85316
  0
LINE
  8
0
 10
-149.073
 20
-2.85316
 11
-149.438
 21
-2.94685
  0
LINE
  8
0
 10
-149.438
 20
-2.94685
 11
-149.812
 21
-2.99408
  0
LINE
  8
0
 10
-149.812
 20
-2.99408
 11
-150.188
 21
-2.99408
  0
LINE
  8
0
 10
149.812
 20
-2.99408
 11
149.438
 21
-2.94685
  0
LINE
  8
0
 10
149.438
 20
-2.94685
 11
149.073
 21
-2.85316
  0
LINE
  8
0
 10
149.073
 20
-2.85316
 11
148.723
 21
-2.71448
  0
LINE
  8
0
 10
148.723
 20
-2.71448
 11
148.393
 21
-2.53297
  0
LINE
  8
0
 10
148.393
 20
-2.53297
 11
148.088
 21
-2.31154
  0
LINE
  8
0
 10
148.088
 20
-2.31154
 11
147.813
 21
-2.05363
  0
LINE
  8
0
 10
147.813
 20
-2.05363
 11
147.573
 21
-1.76335
  0
LINE
  8
0
 10
147.573
 20
-1.76335
 11
147.371
 21
-1.44525
  0
LINE
  8
0
 10
147.371
 20
-1.44525
 11
147.211
 21
-1.10437
  0
LINE
  8
0
 10
147.211
 20
-1.10437
 11
147.094
 21
-0.746063
  0
LINE
  8
0
 10
147.094
 20
-0.746063
 11
147.024
 21
-0.375992
  0
LINE
  8
0
 10
147.024
 20
-0.375992
 11
147
 21
0
  0
LINE
  8
0
 10
147
 20
0
 11
147.024
 21
0.375992
  0
LINE
  8
0
 10
147.024
 20
0.375992
 11
147.094
 21
0.746063
  0
LINE
  8
0
 10
147.094
 20
0.746063
 11
147.211
 21
1.10437
  0
LINE
  8
0
 10
147.211
 20
1.10437
 11
147.371
 21
1.44525
  0
LINE
  8
0
 10
147.371
 20
1.44525
 11
147.573
 21
1.76335
  0
LINE
  8
0
 10
147.573
 20
1.76335
 11
147.813
 21
2.05363
  0
LINE
  8
0
 10
147.813
 20
2.05363
 11
148.088
 21
2.31154
  0
LINE
  8
0
 10
148.088
 20
2.31154
 11
148.393
 21
2.53297
  0
LINE
  8
0
 10
148.393
 20
2.53297
 11
148.723
 21
2.71448
  0
LINE
  8
0
 10
148.723
 20
2.71448
 11
149.073
 21
2.85316
  0
LINE
  8
0
 10
149.073
 20
2.85316
 11
149.438
 21
2.94685
  0
LINE
  8
0
 10
149.438
 20
2.94685
 11
149.812
 21
2.99408
  0
LINE
  8
0
 10
149.812
 20
2.99408
 11
150.188
 21
2.99408
  0
LINE
  8
0
 10
150.188
 20
2.99408
 11
150.562
 21
2.94685
  0
LINE
  8
0
 10
150.562
 20
2.94685
 11
150.927
 21
2.85316
  0
LINE
  8
0
 10
150.927
 20
2.85316
 11
151.277
 21
2.71448
  0
LINE
  8
0
 10
151.277
 20
2.71448
 11
151.607
 21
2.53297
  0
LINE
  8
0
 10
151.607
 20
2.53297
 11
151.912
 21
2.31154
  0
LINE
  8
0
 10
151.912
 20
2.31154
 11
152.187
 21
2.05363
  0
LINE
  8
0
 10
152.187
 20
2.05363
 11
152.427
 21
1.76335
  0
LINE
  8
0
 10
152.427
 20
1.76335
 11
152.629
 21
1.44525
  0
LINE
  8
0
 10
152.629
 20
1.44525
 11
152.789
 21
1.10437
  0
LINE
  8
0
 10
152.789
 20
1.10437
 11
152.906
 21
0.746063
  0
LINE
  8
0
 10
152.906
 20
0.746063
 11
152.976
 21
0.375992
  0
LINE
  8
0
 10
152.976
 20
0.375992
 11
153
 21
0
  0
LINE
  8
0
 10
153
 20
0
 11
152.976
 21
-0.375992
  0
LINE
  8
0
 10
152.976
 20
-0.375992
 11
152.906
 21
-0.746063
  0
LINE
  8
0
 10
152.906
 20
-0.746063
 11
152.789
 21
-1.10437
  0
LINE
  8
0
 10
152.789
 20
-1.10437
 11
152.629
 21
-1.44525
  0
LINE
  8
0
 10
152.629
 20
-1.44525
 11
152.427
 21
-1.76335
  0
LINE
  8
0
 10
152.427
 20
-1.76335
 11
152.187
 21
-2.05363
  0
LINE
  8
0
 10
152.187
 20
-2.05363
 11
151.912
 21
-2.31154
  0
LINE
  8
0
 10
151.912
 20
-2.31154
 11
151.607
 21
-2.53297
  0
LINE
  8
0
 10
151.607
 20
-2.53297
 11
151.277
 21
-2.71448
  0
LINE
  8
0
 10
151.277
 20
-2.71448
 11
150.927
 21
-2.85316
  0
LINE
  8
0
 10
150.927
 20
-2.85316
 11
150.562
 21
-2.94685
  0
LINE
  8
0
 10
150.562
 20
-2.94685
 11
150.188
 21
-2.99408
  0
LINE
  8
0
 10
150.188
 20
-2.99408
 11
149.812
 21
-2.99408
  0
LINE
  8
0
 10
149.906
 20
-8.99704
 11
149.719
 21
-8.97342
  0
LINE
  8
0
 10
149.719
 20
-8.97342
 11
149.536
 21
-8.92657
  0
LINE
  8
0
 10
149.536
 20
-8.92657
 11
149.361
 21
-8.85724
  0
LINE
  8
0
 10
149.361
 20
-8.85724
 11
149.196
 21
-8.76648
  0
LINE
  8
0
 10
149.196
 20
-8.76648
 11
149.044
 21
-8.65576
  0
LINE
  8
0
 10
149.044
 20
-8.65576
 11
148.907
 21
-8.52681
  0
LINE
  8
0
 10
148.907
 20
-8.52681
 11
148.786
 21
-8.38167
  0
LINE
  8
0
 10
148.786
 20
-8.38167
 11
148.686
 21
-8.22263
  0
LINE
  8
0
 10
148.686
 20
-8.22263
 11
148.605
 21
-8.05219
  0
LINE
  8
0
 10
148.605
 20
-8.05219
 11
148.547
 21
-7.87303
  0
LINE
  8
0
 10
148.547
 20
-7.87303
 11
148.512
 21
-7.68799
  0
LINE
  8
0
 10
148.512
 20
-7.68799
 11
148.5
 21
-7.5
  0
LINE
  8
0
 10
148.5
 20
-7.5
 11
148.512
 21
-7.312
  0
LINE
  8
0
 10
148.512
 20
-7.312
 11
148.547
 21
-7.12695
  0
LINE
  8
0
 10
148.547
 20
-7.12695
 11
148.605
 21
-6.9478
  0
LINE
  8
0
 10
148.605
 20
-6.9478
 11
148.686
 21
-6.77736
  0
LINE
  8
0
 10
148.686
 20
-6.77736
 11
148.786
 21
-6.61832
  0
LINE
  8
0
 10
148.786
 20
-6.61832
 11
148.907
 21
-6.47318
  0
LINE
  8
0
 10
148.907
 20
-6.47318
 11
149.044
 21
-6.34422
  0
LINE
  8
0
 10
149.044
 20
-6.34422
 11
149.196
 21
-6.23351
  0
LINE
  8
0
 10
149.196
 20
-6.23351
 11
149.361
 21
-6.14275
  0
LINE
  8
0
 10
149.361
 20
-6.14275
 11
149.536
 21
-6.07341
  0
LINE
  8
0
 10
149.536
 20
-6.07341
 11
149.719
 21
-6.02657
  0
LINE
  8
0
 10
149.719
 20
-6.02657
 11
149.906
 21
-6.00294
  0
LINE
  8
0
 10
149.906
 20
-6.00294
 11
150.094
 21
-6.00294
  0
LINE
  8
0
 10
150.094
 20
-6.00294
 11
150.281
 21
-6.02657
  0
LINE
  8
0
 10
150.281
 20
-6.02657
 11
150.464
 21
-6.07341
  0
LINE
  8
0
 10
150.464
 20
-6.07341
 11
150.639
 21
-6.14275
  0
LINE
  8
0
 10
150.639
 20
-6.14275
 11
150.804
 21
-6.23351
  0
LINE
  8
0
 10
150.804
 20
-6.23351
 11
150.956
 21
-6.34422
  0
LINE
  8
0
 10
150.956
 20
-6.34422
 11
151.093
 21
-6.47318
  0
LINE
  8
0
 10
151.093
 20
-6.47318
 11
151.214
 21
-6.61832
  0
LINE
  8
0
 10
151.214
 20
-6.61832
 11
151.314
 21
-6.77736
  0
LINE
  8
0
 10
151.314
 20
-6.77736
 11
151.395
 21
-6.9478
  0
LINE
  8
0
 10
151.395
 20
-6.9478
 11
151.453
 21
-7.12695
  0
LINE
  8
0
 10
151.453
 20
-7.12695
 11
151.488
 21
-7.312
  0
LINE
  8
0
 10
151.488
 20
-7.312
 11
151.5
 21
-7.5
  0
LINE
  8
0
 10
151.5
 20
-7.5
 11
151.488
 21
-7.68799
  0
LINE
  8
0
 10
151.488
 20
-7.68799
 11
151.453
 21
-7.87303
  0
LINE
  8
0
 10
151.453
 20
-7.87303
 11
151.395
 21
-8.05219
  0
LINE
  8
0
 10
151.395
 20
-8.05219
 11
151.314
 21
-8.22263
  0
LINE
  8
0
 10
151.314
 20
-8.22263
 11
151.214
 21
-8.38167
  0
LINE
  8
0
 10
151.214
 20
-8.38167
 11
151.093
 21
-8.52681
  0
LINE
  8
0
 10
151.093
 20
-8.52681
 11
150.956
 21
-8.65576
  0
LINE
  8
0
 10
150.956
 20
-8.65576
 11
150.804
 21
-8.76648
  0
LINE
  8
0
 10
150.804
 20
-8.76648
 11
150.639
 21
-8.85724
  0
LINE
  8
0
 10
150.639
 20
-8.85724
 11
150.464
 21
-8.92657
  0
LINE
  8
0
 10
150.464
 20
-8.92657
 11
150.281
 21
-8.97342
  0
LINE
  8
0
 10
150.281
 20
-8.97342
 11
150.094
 21
-8.99704
  0
LINE
  8
0
 10
150.094
 20
-8.99704
 11
149.906
 21
-8.99704
  0
LINE
  8
0
 10
-150.094
 20
-8.99704
 11
-150.281
 21
-8.97342
  0
LINE
  8
0
 10
-150.281
 20
-8.97342
 11
-150.464
 21
-8.92657
  0
LINE
  8
0
 10
-150.464
 20
-8.92657
 11
-150.639
 21
-8.85724
  0
LINE
  8
0
 10
-150.639
 20
-8.85724
 11
-150.804
 21
-8.76648
  0
LINE
  8
0
 10
-150.804
 20
-8.76648
 11
-150.956
 21
-8.65576
  0
LINE
  8
0
 10
-150.956
 20
-8.65576
 11
-151.093
 21
-8.52681
  0
LINE
  8
0
 10
-151.093
 20
-8.52681
 11
-151.214
 21
-8.38167
  0
LINE
  8
0
 10
-151.214
 20
-8.38167
 11
-151.314
 21
-8.22263
  0
LINE
  8
0
 10
-151.314
 20
-8.22263
 11
-151.395
 21
-8.05219
  0
LINE
  8
0
 10
-151.395
 20
-8.05219
 11
-151.453
 21
-7.87303
  0
LINE
  8
0
 10
-151.453
 20
-7.87303
 11
-151.488
 21
-7.68799
  0
LINE
  8
0
 10
-151.488
 20
-7.68799
 11
-151.5
 21
-7.5
  0
LINE
  8
0
 10
-151.5
 20
-7.5
 11
-151.488
 21
-7.312
  0
LINE
  8
0
 10
-151.488
 20
-7.312
 11
-151.453
 21
-7.12695
  0
LINE
  8
0
 10
-151.453
 20
-7.12695
 11
-151.395
 21
-6.9478
  0
LINE
  8
0
 10
-151.395
 20
-6.9478
 11
-151.314
 21
-6.77736
  0
LINE
  8
0
 10
-151.314
 20
-6.77736
 11
-151.214
 21
-6.61832
  0
LINE
  8
0
 10
-151.214
 20
-6.61832
 11
-151.093
 21
-6.47318
  0
LINE
  8
0
 10
-151.093
 20
-6.47318
 11
-150.956
 21
-6.34422
  0
LINE
  8
0
 10
-150.956
 20
-6.34422
 11
-150.804
 21
-6.23351
  0
LINE
  8
0
 10
-150.804
 20
-6.23351
 11
-150.639
 21
-6.14275
  0
LINE
  8
0
 10
-150.639
 20
-6.14275
 11
-150.464
 21
-6.07341
  0
LINE
  8
0
 10
-150.464
 20
-6.07341
 11
-150.281
 21
-6.02657
  0
LINE
  8
0
 10
-150.281
 20
-6.02657
 11
-150.094
 21
-6.00294
  0
LINE
  8
0
 10
-150.094
 20
-6.00294
 11
-149.906
 21
-6.00294
  0
LINE
  8
0
 10
-149.906
 20
-6.00294
 11
-149.719
 21
-6.02657
  0
LINE
  8
0
 10
-149.719
 20
-6.02657
 11
-149.536
 21
-6.07341
  0
LINE
  8
0
 10
-149.536
 20
-6.07341
 11
-149.361
 21
-6.14275
  0
LINE
  8
0
 10
-149.361
 20
-6.14275
 11
-149.196
 21
-6.23351
  0
LINE
  8
0
 10
-149.196
 20
-6.23351
 11
-149.044
 21
-6.34422
  0
LINE
  8
0
 10
-149.044
 20
-6.34422
 11
-148.907
 21
-6.47318
  0
LINE
  8
0
 10
-148.907
 20
-6.47318
 11
-148.786
 21
-6.61832
  0
LINE
  8
0
 10
-148.786
 20
-6.61832
 11
-148.686
 21
-6.77736
  0
LINE
  8
0
 10
-148.686
 20
-6.77736
 11
-148.605
 21
-6.9478
  0
LINE
  8
0
 10
-148.605
 20
-6.9478
 11
-148.547
 21
-7.12695
  0
LINE
  8
0
 10
-148.547
 20
-7.12695
 11
-148.512
 21
-7.312
  0
LINE
  8
0
 10
-148.512
 20
-7.312
 11
-148.5
 21
-7.5
  0
LINE
  8
0
 10
-148.5
 20
-7.5
 11
-148.512
 21
-7.68799
  0
LINE
  8
0
 10
-148.512
 20
-7.68799
 11
-148.547
 21
-7.87303
  0
LINE
  8
0
 10
-148.547
 20
-7.87303
 11
-148.605
 21
-8.05219
  0
LINE
  8
0
 10
-148.605
 20
-8.05219
 11
-148.686
 21
-8.22263
  0
LINE
  8
0
 10
-148.686
 20
-8.22263
 11
-148.786
 21
-8.38167
  0
LINE
  8
0
 10
-148.786
 20
-8.38167
 11
-148.907
 21
-8.52681
  0
LINE
  8
0
 10
-148.907
 20
-8.52681
 11
-149.044
 21
-8.65576
  0
LINE
  8
0
 10
-149.044
 20
-8.65576
 11
-149.196
 21
-8.76648
  0
LINE
  8
0
 10
-149.196
 20
-8.76648
 11
-149.361
 21
-8.85724
  0
LINE
  8
0
 10
-149.361
 20
-8.85724
 11
-149.536
 21
-8.92657
  0
LINE
  8
0
 10
-149.536
 20
-8.92657
 11
-149.719
 21
-8.97342
  0
LINE
  8
0
 10
-149.719
 20
-8.97342
 11
-149.906
 21
-8.99704
  0
LINE
  8
0
 10
-149.906
 20
-8.99704
 11
-150.094
 21
-8.99704
  0
LINE
  8
0
 10
149.812
 20
-17.9941
 11
149.438
 21
-17.9469
  0
LINE
  8
0
 10
149.438
 20
-17.9469
 11
149.073
 21
-17.8532
  0
LINE
  8
0
 10
149.073
 20
-17.8532
 11
148.723
 21
-17.7145
  0
LINE
  8
0
 10
148.723
 20
-17.7145
 11
148.393
 21
-17.533
  0
LINE
  8
0
 10
148.393
 20
-17.533
 11
148.088
 21
-17.3115
  0
LINE
  8
0
 10
148.088
 20
-17.3115
 11
147.813
 21
-17.0536
  0
LINE
  8
0
 10
147.813
 20
-17.0536
 11
147.573
 21
-16.7634
  0
LINE
  8
0
 10
147.573
 20
-16.7634
 11
147.371
 21
-16.4453
  0
LINE
  8
0
 10
147.371
 20
-16.4453
 11
147.211
 21
-16.1044
  0
LINE
  8
0
 10
147.211
 20
-16.1044
 11
147.094
 21
-15.7461
  0
LINE
  8
0
 10
147.094
 20
-15.7461
 11
147.024
 21
-15.376
  0
LINE
  8
0
 10
147.024
 20
-15.376
 11
147
 21
-15
  0
LINE
  8
0
 10
147
 20
-15
 11
147.024
 21
-14.624
  0
LINE
  8
0
 10
147.024
 20
-14.624
 11
147.094
 21
-14.2539
  0
LINE
  8
0
 10
147.094
 20
-14.2539
 11
147.211
 21
-13.8956
  0
LINE
  8
0
 10
147.211
 20
-13.8956
 11
147.371
 21
-13.5547
  0
LINE
  8
0
 10
147.371
 20
-13.5547
 11
147.573
 21
-13.2366
  0
LINE
  8
0
 10
147.573
 20
-13.2366
 11
147.813
 21
-12.9464
  0
LINE
  8
0
 10
147.813
 20
-12.9464
 11
148.088
 21
-12.6884
  0
LINE
  8
0
 10
148.088
 20
-12.6884
 11
148.393
 21
-12.467
  0
LINE
  8
0
 10
148.393
 20
-12.467
 11
148.723
 21
-12.2855
  0
LINE
  8
0
 10
148.723
 20
-12.2855
 11
149.073
 21
-12.1468
  0
LINE
  8
0
 10
149.073
 20
-12.1468
 11
149.438
 21
-12.0531
  0
LINE
  8
0
 10
149.438
 20
-12.0531
 11
149.812
 21
-12.0059
  0
LINE
  8
0
 10
149.812
 20
-12.0059
 11
150.188
 21
-12.0059
  0
LINE
  8
0
 10
150.188
 20
-12.0059
 11
150.562
 21
-12.0531
  0
LINE
  8
0
 10
150.562
 20
-12.0531
 11
150.927
 21
-12.1468
  0
LINE
  8
0
 10
150.927
 20
-12.1468
 11
151.277
 21
-12.2855
  0
LINE
  8
0
 10
151.277
 20
-12.2855
 11
151.607
 21
-12.467
  0
LINE
  8
0
 10
151.607
 20
-12.467
 11
151.912
 21
-12.6884
  0
LINE
  8
0
 10
151.912
 20
-12.6884
 11
152.187
 21
-12.9464
  0
LINE
  8
0
 10
152.187
 20
-12.9464
 11
152.427
 21
-13.2366
  0
LINE
  8
0
 10
152.427
 20
-13.2366
 11
152.629
 21
-13.5547
  0
LINE
  8
0
 10
152.629
 20
-13.5547
 11
152.789
 21
-13.8956
  0
LINE
  8
0
 10
152.789
 20
-13.8956
 11
152.906
 21
-14.2539
  0
LINE
  8
0
 10
152.906
 20
-14.2539
 11
152.976
 21
-14.624
  0
LINE
  8
0
 10
152.976
 20
-14.624
 11
153
 21
-15
  0
LINE
  8
0
 10
153
 20
-15
 11
152.976
 21
-15.376
  0
LINE
  8
0
 10
152.976
 20
-15.376
 11
152.906
 21
-15.7461
  0
LINE
  8
0
 10
152.906
 20
-15.7461
 11
152.789
 21
-16.1044
  0
LINE
  8
0
 10
152.789
 20
-16.1044
 11
152.629
 21
-16.4453
  0
LINE
  8
0
 10
152.629
 20
-16.4453
 11
152.427
 21
-16.7634
  0
LINE
  8
0
 10
152.427
 20
-16.7634
 11
152.187
 21
-17.0536
  0
LINE
  8
0
 10
152.187
 20
-17.0536
 11
151.912
 21
-17.3115
  0
LINE
  8
0
 10
151.912
 20
-17.3115
 11
151.607
 21
-17.533
  0
LINE
  8
0
 10
151.607
 20
-17.533
 11
151.277
 21
-17.7145
  0
LINE
  8
0
 10
151.277
 20
-17.7145
 11
150.927
 21
-17.8532
  0
LINE
  8
0
 10
150.927
 20
-17.8532
 11
150.562
 21
-17.9469
  0
LINE
  8
0
 10
150.562
 20
-17.9469
 11
150.188
 21
-17.9941
  0
LINE
  8
0
 10
150.188
 20
-17.9941
 11
149.812
 21
-17.9941
  0
LINE
  8
0
 10
-150.188
 20
-17.9941
 11
-150.562
 21
-17.9469
  0
LINE
  8
0
 10
-150.562
 20
-17.9469
 11
-150.927
 21
-17.8532
  0
LINE
  8
0
 10
-150.927
 20
-17.8532
 11
-151.277
 21
-17.7145
  0
LINE
  8
0
 10
-151.277
 20
-17.7145
 11
-151.607
 21
-17.533
  0
LINE
  8
0
 10
-151.607
 20
-17.533
 11
-151.912
 21
-17.3115
  0
LINE
  8
0
 10
-151.912
 20
-17.3115
 11
-152.187
 21
-17.0536
  0
LINE
  8
0
 10
-152.187
 20
-17.0536
 11
-152.427
 21
-16.7634
  0
LINE
  8
0
 10
-152.427
 20
-16.7634
 11
-152.629
 21
-16.4453
  0
LINE
  8
0
 10
-152.629
 20
-16.4453
 11
-152.789
 21
-16.1044
  0
LINE
  8
0
 10
-152.789
 20
-16.1044
 11
-152.906
 21
-15.7461
  0
LINE
  8
0
 10
-152.906
 20
-15.7461
 11
-152.976
 21
-15.376
  0
LINE
  8
0
 10
-152.976
 20
-15.376
 11
-153
 21
-15
  0
LINE
  8
0
 10
-153
 20
-15
 11
-152.976
 21
-14.624
  0
LINE
  8
0
 10
-152.976
 20
-14.624
 11
-152.906
 21
-14.2539
  0
LINE
  8
0
 10
-152.906
 20
-14.2539
 11
-152.789
 21
-13.8956
  0
LINE
  8
0
 10
-152.789
 20
-13.8956
 11
-152.629
 21
-13.5547
  0
LINE
  8
0
 10
-152.629
 20
-13.5547
 11
-152.427
 21
-13.2366
  0
LINE
  8
0
 10
-152.427
 20
-13.2366
 11
-152.187
 21
-12.9464
  0
LINE
  8
0
 10
-152.187
 20
-12.9464
 11
-151.912
 21
-12.6884
  0
LINE
  8
0
 10
-151.912
 20
-12.6884
 11
-151.607
 21
-12.467
  0
LINE
  8
0
 10
-151.607
 20
-12.467
 11
-151.277
 21
-12.2855
  0
LINE
  8
0
 10
-151.277
 20
-12.2855
 11
-150.927
 21
-12.1468
  0
LINE
  8
0
 10
-150.927
 20
-12.1468
 11
-150.562
 21
-12.0531
  0
LINE
  8
0
 10
-150.562
 20
-12.0531
 11
-150.188
 21
-12.0059
  0
LINE
  8
0
 10
-150.188
 20
-12.0059
 11
-149.812
 21
-12.0059
  0
LINE
  8
0
 10
-149.812
 20
-12.0059
 11
-149.438
 21
-12.0531
  0
LINE
  8
0
 10
-149.438
 20
-12.0531
 11
-149.073
 21
-12.1468
  0
LINE
  8
0
 10
-149.073
 20
-12.1468
 11
-148.723
 21
-12.2855
  0
LINE
  8
0
 10
-148.723
 20
-12.2855
 11
-148.393
 21
-12.467
  0
LINE
  8
0
 10
-148.393
 20
-12.467
 11
-148.088
 21
-12.6884
  0
LINE
  8
0
 10
-148.088
 20
-12.6884
 11
-147.813
 21
-12.9464
  0
LINE
  8
0
 10
-147.813
 20
-12.9464
 11
-147.573
 21
-13.2366
  0
LINE
  8
0
 10
-147.573
 20
-13.2366
 11
-147.371
 21
-13.5547
  0
LINE
  8
0
 10
-147.371
 20
-13.5547
 11
-147.211
 21
-13.8956
  0
LINE
  8
0
 10
-147.211
 20
-13.8956
 11
-147.094
 21
-14.2539
  0
LINE
  8
0
 10
-147.094
 20
-14.2539
 11
-147.024
 21
-14.624
  0
LINE
  8
0
 10
-147.024
 20
-14.624
 11
-147
 21
-15
  0
LINE
  8
0
 10
-147
 20
-15
 11
-147.024
 21
-15.376
  0
LINE
  8
0
 10
-147.024
 20
-15.376
 11
-147.094
 21
-15.7461
  0
LINE
  8
0
 10
-147.094
 20
-15.7461
 11
-147.211
 21
-16.1044
  0
LINE
  8
0
 10
-147.211
 20
-16.1044
 11
-147.371
 21
-16.4453
  0
LINE
  8
0
 10
-147.371
 20
-16.4453
 11
-147.573
 21
-16.7634
  0
LINE
  8
0
 10
-147.573
 20
-16.7634
 11
-147.813
 21
-17.0536
  0
LINE
  8
0
 10
-147.813
 20
-17.0536
 11
-148.088
 21
-17.3115
  0
LINE
  8
0
 10
-148.088
 20
-17.3115
 11
-148.393
 21
-17.533
  0
LINE
  8
0
 10
-148.393
 20
-17.533
 11
-148.723
 21
-17.7145
  0
LINE
  8
0
 10
-148.723
 20
-17.7145
 11
-149.073
 21
-17.8532
  0
LINE
  8
0
 10
-149.073
 20
-17.8532
 11
-149.438
 21
-17.9469
  0
LINE
  8
0
 10
-149.438
 20
-17.9469
 11
-149.812
 21
-17.9941
  0
LINE
  8
0
 10
-149.812
 20
-17.9941
 11
-150.188
 21
-17.9941
  0
ENDSEC
  0
SECTION
  2
OBJECTS
  0
DICTIONARY
  0
ENDSEC
  0
EOF
