<?xml version="1.0" standalone="no"?>
<!DOCTYPE svg PUBLIC "-//W3C//DTD SVG 1.1//EN" "http://www.w3.org/Graphics/SVG/1.1/DTD/svg11.dtd">
<svg width="300mm" height="86mm" viewBox="-150 -151 300 86" xmlns="http://www.w3.org/2000/svg" version="1.1">
<title>OpenSCAD Model</title>
<path d="
M 145.437,-137.089 L 146.045,-137.245 L 146.629,-137.476 L 147.179,-137.778 L 147.687,-138.147 L 148.145,-138.577
 L 148.545,-139.061 L 148.882,-139.591 L 149.149,-140.159 L 149.343,-140.757 L 149.461,-141.373 L 149.5,-142
 L 149.5,-146 L 149.461,-146.627 L 149.343,-147.243 L 149.149,-147.841 L 148.882,-148.409 L 148.545,-148.939
 L 148.145,-149.423 L 147.687,-149.853 L 147.179,-150.222 L 146.629,-150.524 L 146.045,-150.755 L 145.437,-150.911
 L 144.814,-150.99 L -144.814,-150.99 L -145.437,-150.911 L -146.045,-150.755 L -146.629,-150.524 L -147.179,-150.222
 L -147.687,-149.853 L -148.145,-149.423 L -148.545,-148.939 L -148.882,-148.409 L -149.149,-147.841 L -149.343,-147.243
 L -149.461,-146.627 L -149.5,-146 L -149.5,-142 L -149.461,-141.373 L -149.343,-140.757 L -149.149,-140.159
 L -148.882,-139.591 L -148.545,-139.061 L -148.145,-138.577 L -147.687,-138.147 L -147.179,-137.778 L -146.629,-137.476
 L -146.045,-137.245 L -145.437,-137.089 L -144.814,-137.01 L 144.814,-137.01 z
M 82.3116,-141.006 L 81.9379,-141.053 L 81.573,-141.147 L 81.2227,-141.286 L 80.8925,-141.467 L 80.5877,-141.688
 L 80.3131,-141.946 L 80.073,-142.237 L 79.8711,-142.555 L 79.7107,-142.896 L 79.5943,-143.254 L 79.5237,-143.624
 L 79.5,-144 L 79.5237,-144.376 L 79.5943,-144.746 L 79.7107,-145.104 L 79.8711,-145.445 L 80.073,-145.763
 L 80.3131,-146.054 L 80.5877,-146.312 L 80.8925,-146.533 L 81.2227,-146.714 L 81.573,-146.853 L 81.9379,-146.947
 L 82.3116,-146.994 L 82.6884,-146.994 L 83.0621,-146.947 L 83.427,-146.853 L 83.7773,-146.714 L 84.1075,-146.533
 L 84.4123,-146.312 L 84.6869,-146.054 L 84.927,-145.763 L 85.1289,-145.445 L 85.2893,-145.104 L 85.4057,-144.746
 L 85.4763,-144.376 L 85.5,-144 L 85.4763,-143.624 L 85.4057,-143.254 L 85.2893,-142.896 L 85.1289,-142.555
 L 84.927,-142.237 L 84.6869,-141.946 L 84.4123,-141.688 L 84.1075,-141.467 L 83.7773,-141.286 L 83.427,-141.147
 L 83.0621,-141.053 L 82.6884,-141.006 z
M 7.31161,-141.006 L 6.93785,-141.053 L 6.57294,-141.147 L 6.22266,-141.286 L 5.89252,-141.467 L 5.58772,-141.688
 L 5.31308,-141.946 L 5.07294,-142.237 L 4.87108,-142.555 L 4.71066,-142.896 L 4.59424,-143.254 L 4.52365,-143.624
 L 4.5,-144 L 4.52365,-144.376 L 4.59424,-144.746 L 4.71066,-145.104 L 4.87108,-145.445 L 5.07294,-145.763
 L 5.31308,-146.054 L 5.58772,-146.312 L 5.89252,-146.533 L 6.22266,-146.714 L 6.57294,-146.853 L 6.93785,-146.947
 L 7.31161,-146.994 L 7.68837,-146.994 L 8.06213,-146.947 L 8.42705,-146.853 L 8.77733,-146.714 L 9.10747,-146.533
 L 9.41226,-146.312 L 9.6869,-146.054 L 9.92705,-145.763 L 10.1289,-145.445 L 10.2893,-145.104 L 10.4057,-144.746
 L 10.4763,-144.376 L 10.5,-144 L 10.4763,-143.624 L 10.4057,-143.254 L 10.2893,-142.896 L 10.1289,-142.555
 L 9.92705,-142.237 L 9.6869,-141.946 L 9.41226,-141.688 L 9.10747,-141.467 L 8.77733,-141.286 L 8.42705,-141.147
 L 8.06213,-141.053 L 7.68837,-141.006 z
M -67.6884,-141.006 L -68.0621,-141.053 L -68.427,-141.147 L -68.7773,-141.286 L -69.1075,-141.467 L -69.4123,-141.688
 L -69.6869,-141.946 L -69.927,-142.237 L -70.1289,-142.555 L -70.2893,-142.896 L -70.4057,-143.254 L -70.4763,-143.624
 L -70.5,-144 L -70.4763,-144.376 L -70.4057,-144.746 L -70.2893,-145.104 L -70.1289,-145.445 L -69.927,-145.763
 L -69.6869,-146.054 L -69.4123,-146.312 L -69.1075,-146.533 L -68.7773,-146.714 L -68.427,-146.853 L -68.0621,-146.947
 L -67.6884,-146.994 L -67.3116,-146.994 L -66.9379,-146.947 L -66.573,-146.853 L -66.2227,-146.714 L -65.8925,-146.533
 L -65.5877,-146.312 L -65.3131,-146.054 L -65.073,-145.763 L -64.8711,-145.445 L -64.7107,-145.104 L -64.5943,-144.746
 L -64.5237,-144.376 L -64.5,-144 L -64.5237,-143.624 L -64.5943,-143.254 L -64.7107,-142.896 L -64.8711,-142.555
 L -65.073,-142.237 L -65.3131,-141.946 L -65.5877,-141.688 L -65.8925,-141.467 L -66.2227,-141.286 L -66.573,-141.147
 L -66.9379,-141.053 L -67.3116,-141.006 z
M -52.6884,-141.006 L -53.0621,-141.053 L -53.427,-141.147 L -53.7773,-141.286 L -54.1075,-141.467 L -54.4123,-141.688
 L -54.6869,-141.946 L -54.927,-142.237 L -55.1289,-142.555 L -55.2893,-142.896 L -55.4057,-143.254 L -55.4763,-143.624
 L -55.5,-144 L -55.4763,-144.376 L -55.4057,-144.746 L -55.2893,-145.104 L -55.1289,-145.445 L -54.927,-145.763
 L -54.6869,-146.054 L -54.4123,-146.312 L -54.1075,-146.533 L -53.7773,-146.714 L -53.427,-146.853 L -53.0621,-146.947
 L -52.6884,-146.994 L -52.3116,-146.994 L -51.9379,-146.947 L -51.5729,-146.853 L -51.2227,-146.714 L -50.8925,-146.533
 L -50.5877,-146.312 L -50.3131,-146.054 L -50.0729,-145.763 L -49.8711,-145.445 L -49.7107,-145.104 L -49.5942,-144.746
 L -49.5237,-144.376 L -49.5,-144 L -49.5237,-143.624 L -49.5942,-143.254 L -49.7107,-142.896 L -49.8711,-142.555
 L -50.0729,-142.237 L -50.3131,-141.946 L -50.5877,-141.688 L -50.8925,-141.467 L -51.2227,-141.286 L -51.5729,-141.147
 L -51.9379,-141.053 L -52.3116,-141.006 z
M -22.6884,-141.006 L -23.0621,-141.053 L -23.427,-141.147 L -23.7773,-141.286 L -24.1075,-141.467 L -24.4123,-141.688
 L -24.6869,-141.946 L -24.927,-142.237 L -25.1289,-142.555 L -25.2893,-142.896 L -25.4057,-143.254 L -25.4763,-143.624
 L -25.5,-144 L -25.4763,-144.376 L -25.4057,-144.746 L -25.2893,-145.104 L -25.1289,-145.445 L -24.927,-145.763
 L -24.6869,-146.054 L -24.4123,-146.312 L -24.1075,-146.533 L -23.7773,-146.714 L -23.427,-146.853 L -23.0621,-146.947
 L -22.6884,-146.994 L -22.3116,-146.994 L -21.9379,-146.947 L -21.5729,-146.853 L -21.2227,-146.714 L -20.8925,-146.533
 L -20.5877,-146.312 L -20.3131,-146.054 L -20.0729,-145.763 L -19.8711,-145.445 L -19.7107,-145.104 L -19.5942,-144.746
 L -19.5237,-144.376 L -19.5,-144 L -19.5237,-143.624 L -19.5942,-143.254 L -19.7107,-142.896 L -19.8711,-142.555
 L -20.0729,-142.237 L -20.3131,-141.946 L -20.5877,-141.688 L -20.8925,-141.467 L -21.2227,-141.286 L -21.5729,-141.147
 L -21.9379,-141.053 L -22.3116,-141.006 z
M -7.68837,-141.006 L -8.06213,-141.053 L -8.42705,-141.147 L -8.77733,-141.286 L -9.10747,-141.467 L -9.41226,-141.688
 L -9.6869,-141.946 L -9.92705,-142.237 L -10.1289,-142.555 L -10.2893,-142.896 L -10.4057,-143.254 L -10.4763,-143.624
 L -10.5,-144 L -10.4763,-144.376 L -10.4057,-144.746 L -10.2893,-145.104 L -10.1289,-145.445 L -9.92705,-145.763
 L -9.6869,-146.054 L -9.41226,-146.312 L -9.10747,-146.533 L -8.77733,-146.714 L -8.42705,-146.853 L -8.06213,-146.947
 L -7.68837,-146.994 L -7.31161,-146.994 L -6.93785,-146.947 L -6.57294,-146.853 L -6.22266,-146.714 L -5.89252,-146.533
 L -5.58772,-146.312 L -5.31308,-146.054 L -5.07294,-145.763 L -4.87108,-145.445 L -4.71066,-145.104 L -4.59424,-144.746
 L -4.52365,-144.376 L -4.5,-144 L -4.52365,-143.624 L -4.59424,-143.254 L -4.71066,-142.896 L -4.87108,-142.555
 L -5.07294,-142.237 L -5.31308,-141.946 L -5.58772,-141.688 L -5.89252,-141.467 L -6.22266,-141.286 L -6.57294,-141.147
 L -6.93785,-141.053 L -7.31161,-141.006 z
M -37.6884,-141.006 L -38.0621,-141.053 L -38.427,-141.147 L -38.7773,-141.286 L -39.1075,-141.467 L -39.4123,-141.688
 L -39.6869,-141.946 L -39.927,-142.237 L -40.1289,-142.555 L -40.2893,-142.896 L -40.4057,-143.254 L -40.4763,-143.624
 L -40.5,-144 L -40.4763,-144.376 L -40.4057,-144.746 L -40.2893,-145.104 L -40.1289,-145.445 L -39.927,-145.763
 L -39.6869,-146.054 L -39.4123,-146.312 L -39.1075,-146.533 L -38.7773,-146.714 L -38.427,-146.853 L -38.0621,-146.947
 L -37.6884,-146.994 L -37.3116,-146.994 L -36.9379,-146.947 L -36.5729,-146.853 L -36.2227,-146.714 L -35.8925,-146.533
 L -35.5877,-146.312 L -35.3131,-146.054 L -35.0729,-145.763 L -34.8711,-145.445 L -34.7107,-145.104 L -34.5942,-144.746
 L -34.5237,-144.376 L -34.5,-144 L -34.5237,-143.624 L -34.5942,-143.254 L -34.7107,-142.896 L -34.8711,-142.555
 L -35.0729,-142.237 L -35.3131,-141.946 L -35.5877,-141.688 L -35.8925,-141.467 L -36.2227,-141.286 L -36.5729,-141.147
 L -36.9379,-141.053 L -37.3116,-141.006 z
M 112.312,-141.006 L 111.938,-141.053 L 111.573,-141.147 L 111.223,-141.286 L 110.893,-141.467 L 110.588,-141.688
 L 110.313,-141.946 L 110.073,-142.237 L 109.871,-142.555 L 109.711,-142.896 L 109.594,-143.254 L 109.524,-143.624
 L 109.5,-144 L 109.524,-144.376 L 109.594,-144.746 L 109.711,-145.104 L 109.871,-145.445 L 110.073,-145.763
 L 110.313,-146.054 L 110.588,-146.312 L 110.893,-146.533 L 111.223,-146.714 L 111.573,-146.853 L 111.938,-146.947
 L 112.312,-146.994 L 112.688,-146.994 L 113.062,-146.947 L 113.427,-146.853 L 113.777,-146.714 L 114.107,-146.533
 L 114.412,-146.312 L 114.687,-146.054 L 114.927,-145.763 L 115.129,-145.445 L 115.289,-145.104 L 115.406,-144.746
 L 115.476,-144.376 L 115.5,-144 L 115.476,-143.624 L 115.406,-143.254 L 115.289,-142.896 L 115.129,-142.555
 L 114.927,-142.237 L 114.687,-141.946 L 114.412,-141.688 L 114.107,-141.467 L 113.777,-141.286 L 113.427,-141.147
 L 113.062,-141.053 L 112.688,-141.006 z
M 97.3116,-141.006 L 96.9379,-141.053 L 96.573,-141.147 L 96.2227,-141.286 L 95.8925,-141.467 L 95.5877,-141.688
 L 95.3131,-141.946 L 95.073,-142.237 L 94.8711,-142.555 L 94.7107,-142.896 L 94.5943,-143.254 L 94.5237,-143.624
 L 94.5,-144 L 94.5237,-144.376 L 94.5943,-144.746 L 94.7107,-145.104 L 94.8711,-145.445 L 95.073,-145.763
 L 95.3131,-146.054 L 95.5877,-146.312 L 95.8925,-146.533 L 96.2227,-146.714 L 96.573,-146.853 L 96.9379,-146.947
 L 97.3116,-146.994 L 97.6884,-146.994 L 98.0621,-146.947 L 98.427,-146.853 L 98.7773,-146.714 L 99.1075,-146.533
 L 99.4123,-146.312 L 99.6869,-146.054 L 99.927,-145.763 L 100.129,-145.445 L 100.289,-145.104 L 100.406,-144.746
 L 100.476,-144.376 L 100.5,-144 L 100.476,-143.624 L 100.406,-143.254 L 100.289,-142.896 L 100.129,-142.555
 L 99.927,-142.237 L 99.6869,-141.946 L 99.4123,-141.688 L 99.1075,-141.467 L 98.7773,-141.286 L 98.427,-141.147
 L 98.0621,-141.053 L 97.6884,-141.006 z
M 67.3116,-141.006 L 66.9379,-141.053 L 66.573,-141.147 L 66.2227,-141.286 L 65.8925,-141.467 L 65.5877,-141.688
 L 65.3131,-141.946 L 65.073,-142.237 L 64.8711,-142.555 L 64.7107,-142.896 L 64.5943,-143.254 L 64.5237,-143.624
 L 64.5,-144 L 64.5237,-144.376 L 64.5943,-144.746 L 64.7107,-145.104 L 64.8711,-145.445 L 65.073,-145.763
 L 65.3131,-146.054 L 65.5877,-146.312 L 65.8925,-146.533 L 66.2227,-146.714 L 66.573,-146.853 L 66.9379,-146.947
 L 67.3116,-146.994 L 67.6884,-146.994 L 68.0621,-146.947 L 68.427,-146.853 L 68.7773,-146.714 L 69.1075,-146.533
 L 69.4123,-146.312 L 69.6869,-146.054 L 69.927,-145.763 L 70.1289,-145.445 L 70.2893,-145.104 L 70.4057,-144.746
 L 70.4763,-144.376 L 70.5,-144 L 70.4763,-143.624 L 70.4057,-143.254 L 70.2893,-142.896 L 70.1289,-142.555
 L 69.927,-142.237 L 69.6869,-141.946 L 69.4123,-141.688 L 69.1075,-141.467 L 68.7773,-141.286 L 68.427,-141.147
 L 68.0621,-141.053 L 67.6884,-141.006 z
M 127.312,-141.006 L 126.938,-141.053 L 126.573,-141.147 L 126.223,-141.286 L 125.893,-141.467 L 125.588,-141.688
 L 125.313,-141.946 L 125.073,-142.237 L 124.871,-142.555 L 124.711,-142.896 L 124.594,-143.254 L 124.524,-143.624
 L 124.5,-144 L 124.524,-144.376 L 124.594,-144.746 L 124.711,-145.104 L 124.871,-145.445 L 125.073,-145.763
 L 125.313,-146.054 L 125.588,-146.312 L 125.893,-146.533 L 126.223,-146.714 L 126.573,-146.853 L 126.938,-146.947
 L 127.312,-146.994 L 127.688,-146.994 L 128.062,-146.947 L 128.427,-146.853 L 128.777,-146.714 L 129.107,-146.533
 L 129.412,-146.312 L 129.687,-146.054 L 129.927,-145.763 L 130.129,-145.445 L 130.289,-145.104 L 130.406,-144.746
 L 130.476,-144.376 L 130.5,-144 L 130.476,-143.624 L 130.406,-143.254 L 130.289,-142.896 L 130.129,-142.555
 L 129.927,-142.237 L 129.687,-141.946 L 129.412,-141.688 L 129.107,-141.467 L 128.777,-141.286 L 128.427,-141.147
 L 128.062,-141.053 L 127.688,-141.006 z
M -127.688,-141.006 L -128.062,-141.053 L -128.427,-141.147 L -128.777,-141.286 L -129.107,-141.467 L -129.412,-141.688
 L -129.687,-141.946 L -129.927,-142.237 L -130.129,-142.555 L -130.289,-142.896 L -130.406,-143.254 L -130.476,-143.624
 L -130.5,-144 L -130.476,-144.376 L -130.406,-144.746 L -130.289,-145.104 L -130.129,-145.445 L -129.927,-145.763
 L -129.687,-146.054 L -129.412,-146.312 L -129.107,-146.533 L -128.777,-146.714 L -128.427,-146.853 L -128.062,-146.947
 L -127.688,-146.994 L -127.312,-146.994 L -126.938,-146.947 L -126.573,-146.853 L -126.223,-146.714 L -125.893,-146.533
 L -125.588,-146.312 L -125.313,-146.054 L -125.073,-145.763 L -124.871,-145.445 L -124.711,-145.104 L -124.594,-144.746
 L -124.524,-144.376 L -124.5,-144 L -124.524,-143.624 L -124.594,-143.254 L -124.711,-142.896 L -124.871,-142.555
 L -125.073,-142.237 L -125.313,-141.946 L -125.588,-141.688 L -125.893,-141.467 L -126.223,-141.286 L -126.573,-141.147
 L -126.938,-141.053 L -127.312,-141.006 z
M 142.312,-141.006 L 141.938,-141.053 L 141.573,-141.147 L 141.223,-141.286 L 140.893,-141.467 L 140.588,-141.688
 L 140.313,-141.946 L 140.073,-142.237 L 139.871,-142.555 L 139.711,-142.896 L 139.594,-143.254 L 139.524,-143.624
 L 139.5,-144 L 139.524,-144.376 L 139.594,-144.746 L 139.711,-145.104 L 139.871,-145.445 L 140.073,-145.763
 L 140.313,-146.054 L 140.588,-146.312 L 140.893,-146.533 L 141.223,-146.714 L 141.573,-146.853 L 141.938,-146.947
 L 142.312,-146.994 L 142.688,-146.994 L 143.062,-146.947 L 143.427,-146.853 L 143.777,-146.714 L 144.107,-146.533
 L 144.412,-146.312 L 144.687,-146.054 L 144.927,-145.763 L 145.129,-145.445 L 145.289,-145.104 L 145.406,-144.746
 L 145.476,-144.376 L 145.5,-144 L 145.476,-143.624 L 145.406,-143.254 L 145.289,-142.896 L 145.129,-142.555
 L 144.927,-142.237 L 144.687,-141.946 L 144.412,-141.688 L 144.107,-141.467 L 143.777,-141.286 L 143.427,-141.147
 L 143.062,-141.053 L 142.688,-141.006 z
M -112.688,-141.006 L -113.062,-141.053 L -113.427,-141.147 L -113.777,-141.286 L -114.107,-141.467 L -114.412,-141.688
 L -114.687,-141.946 L -114.927,-142.237 L -115.129,-142.555 L -115.289,-142.896 L -115.406,-143.254 L -115.476,-143.624
 L -115.5,-144 L -115.476,-144.376 L -115.406,-144.746 L -115.289,-145.104 L -115.129,-145.445 L -114.927,-145.763
 L -114.687,-146.054 L -114.412,-146.312 L -114.107,-146.533 L -113.777,-146.714 L -113.427,-146.853 L -113.062,-146.947
 L -112.688,-146.994 L -112.312,-146.994 L -111.938,-146.947 L -111.573,-146.853 L -111.223,-146.714 L -110.893,-146.533
 L -110.588,-146.312 L -110.313,-146.054 L -110.073,-145.763 L -109.871,-145.445 L -109.711,-145.104 L -109.594,-144.746
 L -109.524,-144.376 L -109.5,-144 L -109.524,-143.624 L -109.594,-143.254 L -109.711,-142.896 L -109.871,-142.555
 L -110.073,-142.237 L -110.313,-141.946 L -110.588,-141.688 L -110.893,-141.467 L -111.223,-141.286 L -111.573,-141.147
 L -111.938,-141.053 L -112.312,-141.006 z
M -142.688,-141.006 L -143.062,-141.053 L -143.427,-141.147 L -143.777,-141.286 L -144.107,-141.467 L -144.412,-141.688
 L -144.687,-141.946 L -144.927,-142.237 L -145.129,-142.555 L -145.289,-142.896 L -145.406,-143.254 L -145.476,-143.624
 L -145.5,-144 L -145.476,-144.376 L -145.406,-144.746 L -145.289,-145.104 L -145.129,-145.445 L -144.927,-145.763
 L -144.687,-146.054 L -144.412,-146.312 L -144.107,-146.533 L -143.777,-146.714 L -143.427,-146.853 L -143.062,-146.947
 L -142.688,-146.994 L -142.312,-146.994 L -141.938,-146.947 L -141.573,-146.853 L -141.223,-146.714 L -140.893,-146.533
 L -140.588,-146.312 L -140.313,-146.054 L -140.073,-145.763 L -139.871,-145.445 L -139.711,-145.104 L -139.594,-144.746
 L -139.524,-144.376 L -139.5,-144 L -139.524,-143.624 L -139.594,-143.254 L -139.711,-142.896 L -139.871,-142.555
 L -140.073,-142.237 L -140.313,-141.946 L -140.588,-141.688 L -140.893,-141.467 L -141.223,-141.286 L -141.573,-141.147
 L -141.938,-141.053 L -142.312,-141.006 z
M -82.6884,-141.006 L -83.0621,-141.053 L -83.427,-141.147 L -83.7773,-141.286 L -84.1075,-141.467 L -84.4123,-141.688
 L -84.6869,-141.946 L -84.927,-142.237 L -85.1289,-142.555 L -85.2893,-142.896 L -85.4057,-143.254 L -85.4763,-143.624
 L -85.5,-144 L -85.4763,-144.376 L -85.4057,-144.746 L -85.2893,-145.104 L -85.1289,-145.445 L -84.927,-145.763
 L -84.6869,-146.054 L -84.4123,-146.312 L -84.1075,-146.533 L -83.7773,-146.714 L -83.427,-146.853 L -83.0621,-146.947
 L -82.6884,-146.994 L -82.3116,-146.994 L -81.9379,-146.947 L -81.573,-146.853 L -81.2227,-146.714 L -80.8925,-146.533
 L -80.5877,-146.312 L -80.3131,-146.054 L -80.073,-145.763 L -79.8711,-145.445 L -79.7107,-145.104 L -79.5943,-144.746
 L -79.5237,-144.376 L -79.5,-144 L -79.5237,-143.624 L -79.5943,-143.254 L -79.7107,-142.896 L -79.8711,-142.555
 L -80.073,-142.237 L -80.3131,-141.946 L -80.5877,-141.688 L -80.8925,-141.467 L -81.2227,-141.286 L -81.573,-141.147
 L -81.9379,-141.053 L -82.3116,-141.006 z
M 22.3116,-141.006 L 21.9379,-141.053 L 21.5729,-141.147 L 21.2227,-141.286 L 20.8925,-141.467 L 20.5877,-141.688
 L 20.3131,-141.946 L 20.0729,-142.237 L 19.8711,-142.555 L 19.7107,-142.896 L 19.5942,-143.254 L 19.5237,-143.624
 L 19.5,-144 L 19.5237,-144.376 L 19.5942,-144.746 L 19.7107,-145.104 L 19.8711,-145.445 L 20.0729,-145.763
 L 20.3131,-146.054 L 20.5877,-146.312 L 20.8925,-146.533 L 21.2227,-146.714 L 21.5729,-146.853 L 21.9379,-146.947
 L 22.3116,-146.994 L 22.6884,-146.994 L 23.0621,-146.947 L 23.427,-146.853 L 23.7773,-146.714 L 24.1075,-146.533
 L 24.4123,-146.312 L 24.6869,-146.054 L 24.927,-145.763 L 25.1289,-145.445 L 25.2893,-145.104 L 25.4057,-144.746
 L 25.4763,-144.376 L 25.5,-144 L 25.4763,-143.624 L 25.4057,-143.254 L 25.2893,-142.896 L 25.1289,-142.555
 L 24.927,-142.237 L 24.6869,-141.946 L 24.4123,-141.688 L 24.1075,-141.467 L 23.7773,-141.286 L 23.427,-141.147
 L 23.0621,-141.053 L 22.6884,-141.006 z
M 37.3116,-141.006 L 36.9379,-141.053 L 36.5729,-141.147 L 36.2227,-141.286 L 35.8925,-141.467 L 35.5877,-141.688
 L 35.3131,-141.946 L 35.0729,-142.237 L 34.8711,-142.555 L 34.7107,-142.896 L 34.5942,-143.254 L 34.5237,-143.624
 L 34.5,-144 L 34.5237,-144.376 L 34.5942,-144.746 L 34.7107,-145.104 L 34.8711,-145.445 L 35.0729,-145.763
 L 35.3131,-146.054 L 35.5877,-146.312 L 35.8925,-146.533 L 36.2227,-146.714 L 36.5729,-146.853 L 36.9379,-146.947
 L 37.3116,-146.994 L 37.6884,-146.994 L 38.0621,-146.947 L 38.427,-146.853 L 38.7773,-146.714 L 39.1075,-146.533
 L 39.4123,-146.312 L 39.6869,-146.054 L 39.927,-145.763 L 40.1289,-145.445 L 40.2893,-145.104 L 40.4057,-144.746
 L 40.4763,-144.376 L 40.5,-144 L 40.4763,-143.624 L 40.4057,-143.254 L 40.2893,-142.896 L 40.1289,-142.555
 L 39.927,-142.237 L 39.6869,-141.946 L 39.4123,-141.688 L 39.1075,-141.467 L 38.7773,-141.286 L 38.427,-141.147
 L 38.0621,-141.053 L 37.6884,-141.006 z
M -97.6884,-141.006 L -98.0621,-141.053 L -98.427,-141.147 L -98.7773,-141.286 L -99.1075,-141.467 L -99.4123,-141.688
 L -99.6869,-141.946 L -99.927,-142.237 L -100.129,-142.555 L -100.289,-142.896 L -100.406,-143.254 L -100.476,-143.624
 L -100.5,-144 L -100.476,-144.376 L -100.406,-144.746 L -100.289,-145.104 L -100.129,-145.445 L -99.927,-145.763
 L -99.6869,-146.054 L -99.4123,-146.312 L -99.1075,-146.533 L -98.7773,-146.714 L -98.427,-146.853 L -98.0621,-146.947
 L -97.6884,-146.994 L -97.3116,-146.994 L -96.9379,-146.947 L -96.573,-146.853 L -96.2227,-146.714 L -95.8925,-146.533
 L -95.5877,-146.312 L -95.3131,-146.054 L -95.073,-145.763 L -94.8711,-145.445 L -94.7107,-145.104 L -94.5943,-144.746
 L -94.5237,-144.376 L -94.5,-144 L -94.5237,-143.624 L -94.5943,-143.254 L -94.7107,-142.896 L -94.8711,-142.555
 L -95.073,-142.237 L -95.3131,-141.946 L -95.5877,-141.688 L -95.8925,-141.467 L -96.2227,-141.286 L -96.573,-141.147
 L -96.9379,-141.053 L -97.3116,-141.006 z
M 52.3116,-141.006 L 51.9379,-141.053 L 51.5729,-141.147 L 51.2227,-141.286 L 50.8925,-141.467 L 50.5877,-141.688
 L 50.3131,-141.946 L 50.0729,-142.237 L 49.8711,-142.555 L 49.7107,-142.896 L 49.5942,-143.254 L 49.5237,-143.624
 L 49.5,-144 L 49.5237,-144.376 L 49.5942,-144.746 L 49.7107,-145.104 L 49.8711,-145.445 L 50.0729,-145.763
 L 50.3131,-146.054 L 50.5877,-146.312 L 50.8925,-146.533 L 51.2227,-146.714 L 51.5729,-146.853 L 51.9379,-146.947
 L 52.3116,-146.994 L 52.6884,-146.994 L 53.0621,-146.947 L 53.427,-146.853 L 53.7773,-146.714 L 54.1075,-146.533
 L 54.4123,-146.312 L 54.6869,-146.054 L 54.927,-145.763 L 55.1289,-145.445 L 55.2893,-145.104 L 55.4057,-144.746
 L 55.4763,-144.376 L 55.5,-144 L 55.4763,-143.624 L 55.4057,-143.254 L 55.2893,-142.896 L 55.1289,-142.555
 L 54.927,-142.237 L 54.6869,-141.946 L 54.4123,-141.688 L 54.1075,-141.467 L 53.7773,-141.286 L 53.427,-141.147
 L 53.0621,-141.053 L 52.6884,-141.006 z
M 145.437,-113.089 L 146.045,-113.245 L 146.629,-113.476 L 147.179,-113.778 L 147.687,-114.147 L 148.145,-114.577
 L 148.545,-115.061 L 148.882,-115.591 L 149.149,-116.159 L 149.343,-116.757 L 149.461,-117.373 L 149.5,-118
 L 149.5,-122 L 149.461,-122.627 L 149.343,-123.243 L 149.149,-123.841 L 148.882,-124.409 L 148.545,-124.939
 L 148.145,-125.423 L 147.687,-125.853 L 147.179,-126.222 L 146.629,-126.524 L 146.045,-126.755 L 145.437,-126.911
 L 144.814,-126.99 L -144.814,-126.99 L -145.437,-126.911 L -146.045,-126.755 L -146.629,-126.524 L -147.179,-126.222
 L -147.687,-125.853 L -148.145,-125.423 L -148.545,-124.939 L -148.882,-124.409 L -149.149,-123.841 L -149.343,-123.243
 L -149.461,-122.627 L -149.5,-122 L -149.5,-118 L -149.461,-117.373 L -149.343,-116.757 L -149.149,-116.159
 L -148.882,-115.591 L -148.545,-115.061 L -148.145,-114.577 L -147.687,-114.147 L -147.179,-113.778 L -146.629,-113.476
 L -146.045,-113.245 L -145.437,-113.089 L -144.814,-113.01 L 144.814,-113.01 z
M 127.312,-117.006 L 126.938,-117.053 L 126.573,-117.147 L 126.223,-117.286 L 125.893,-117.467 L 125.588,-117.688
 L 125.313,-117.946 L 125.073,-118.237 L 124.871,-118.555 L 124.711,-118.896 L 124.594,-119.254 L 124.524,-119.624
 L 124.5,-120 L 124.524,-120.376 L 124.594,-120.746 L 124.711,-121.104 L 124.871,-121.445 L 125.073,-121.763
 L 125.313,-122.054 L 125.588,-122.312 L 125.893,-122.533 L 126.223,-122.714 L 126.573,-122.853 L 126.938,-122.947
 L 127.312,-122.994 L 127.688,-122.994 L 128.062,-122.947 L 128.427,-122.853 L 128.777,-122.714 L 129.107,-122.533
 L 129.412,-122.312 L 129.687,-122.054 L 129.927,-121.763 L 130.129,-121.445 L 130.289,-121.104 L 130.406,-120.746
 L 130.476,-120.376 L 130.5,-120 L 130.476,-119.624 L 130.406,-119.254 L 130.289,-118.896 L 130.129,-118.555
 L 129.927,-118.237 L 129.687,-117.946 L 129.412,-117.688 L 129.107,-117.467 L 128.777,-117.286 L 128.427,-117.147
 L 128.062,-117.053 L 127.688,-117.006 z
M 7.31161,-117.006 L 6.93785,-117.053 L 6.57294,-117.147 L 6.22266,-117.286 L 5.89252,-117.467 L 5.58772,-117.688
 L 5.31308,-117.946 L 5.07294,-118.237 L 4.87108,-118.555 L 4.71066,-118.896 L 4.59424,-119.254 L 4.52365,-119.624
 L 4.5,-120 L 4.52365,-120.376 L 4.59424,-120.746 L 4.71066,-121.104 L 4.87108,-121.445 L 5.07294,-121.763
 L 5.31308,-122.054 L 5.58772,-122.312 L 5.89252,-122.533 L 6.22266,-122.714 L 6.57294,-122.853 L 6.93785,-122.947
 L 7.31161,-122.994 L 7.68837,-122.994 L 8.06213,-122.947 L 8.42705,-122.853 L 8.77733,-122.714 L 9.10747,-122.533
 L 9.41226,-122.312 L 9.6869,-122.054 L 9.92705,-121.763 L 10.1289,-121.445 L 10.2893,-121.104 L 10.4057,-120.746
 L 10.4763,-120.376 L 10.5,-120 L 10.4763,-119.624 L 10.4057,-119.254 L 10.2893,-118.896 L 10.1289,-118.555
 L 9.92705,-118.237 L 9.6869,-117.946 L 9.41226,-117.688 L 9.10747,-117.467 L 8.77733,-117.286 L 8.42705,-117.147
 L 8.06213,-117.053 L 7.68837,-117.006 z
M -67.6884,-117.006 L -68.0621,-117.053 L -68.427,-117.147 L -68.7773,-117.286 L -69.1075,-117.467 L -69.4123,-117.688
 L -69.6869,-117.946 L -69.927,-118.237 L -70.1289,-118.555 L -70.2893,-118.896 L -70.4057,-119.254 L -70.4763,-119.624
 L -70.5,-120 L -70.4763,-120.376 L -70.4057,-120.746 L -70.2893,-121.104 L -70.1289,-121.445 L -69.927,-121.763
 L -69.6869,-122.054 L -69.4123,-122.312 L -69.1075,-122.533 L -68.7773,-122.714 L -68.427,-122.853 L -68.0621,-122.947
 L -67.6884,-122.994 L -67.3116,-122.994 L -66.9379,-122.947 L -66.573,-122.853 L -66.2227,-122.714 L -65.8925,-122.533
 L -65.5877,-122.312 L -65.3131,-122.054 L -65.073,-121.763 L -64.8711,-121.445 L -64.7107,-121.104 L -64.5943,-120.746
 L -64.5237,-120.376 L -64.5,-120 L -64.5237,-119.624 L -64.5943,-119.254 L -64.7107,-118.896 L -64.8711,-118.555
 L -65.073,-118.237 L -65.3131,-117.946 L -65.5877,-117.688 L -65.8925,-117.467 L -66.2227,-117.286 L -66.573,-117.147
 L -66.9379,-117.053 L -67.3116,-117.006 z
M -52.6884,-117.006 L -53.0621,-117.053 L -53.427,-117.147 L -53.7773,-117.286 L -54.1075,-117.467 L -54.4123,-117.688
 L -54.6869,-117.946 L -54.927,-118.237 L -55.1289,-118.555 L -55.2893,-118.896 L -55.4057,-119.254 L -55.4763,-119.624
 L -55.5,-120 L -55.4763,-120.376 L -55.4057,-120.746 L -55.2893,-121.104 L -55.1289,-121.445 L -54.927,-121.763
 L -54.6869,-122.054 L -54.4123,-122.312 L -54.1075,-122.533 L -53.7773,-122.714 L -53.427,-122.853 L -53.0621,-122.947
 L -52.6884,-122.994 L -52.3116,-122.994 L -51.9379,-122.947 L -51.5729,-122.853 L -51.2227,-122.714 L -50.8925,-122.533
 L -50.5877,-122.312 L -50.3131,-122.054 L -50.0729,-121.763 L -49.8711,-121.445 L -49.7107,-121.104 L -49.5942,-120.746
 L -49.5237,-120.376 L -49.5,-120 L -49.5237,-119.624 L -49.5942,-119.254 L -49.7107,-118.896 L -49.8711,-118.555
 L -50.0729,-118.237 L -50.3131,-117.946 L -50.5877,-117.688 L -50.8925,-117.467 L -51.2227,-117.286 L -51.5729,-117.147
 L -51.9379,-117.053 L -52.3116,-117.006 z
M -22.6884,-117.006 L -23.0621,-117.053 L -23.427,-117.147 L -23.7773,-117.286 L -24.1075,-117.467 L -24.4123,-117.688
 L -24.6869,-117.946 L -24.927,-118.237 L -25.1289,-118.555 L -25.2893,-118.896 L -25.4057,-119.254 L -25.4763,-119.624
 L -25.5,-120 L -25.4763,-120.376 L -25.4057,-120.746 L -25.2893,-121.104 L -25.1289,-121.445 L -24.927,-121.763
 L -24.6869,-122.054 L -24.4123,-122.312 L -24.1075,-122.533 L -23.7773,-122.714 L -23.427,-122.853 L -23.0621,-122.947
 L -22.6884,-122.994 L -22.3116,-122.994 L -21.9379,-122.947 L -21.5729,-122.853 L -21.2227,-122.714 L -20.8925,-122.533
 L -20.5877,-122.312 L -20.3131,-122.054 L -20.0729,-121.763 L -19.8711,-121.445 L -19.7107,-121.104 L -19.5942,-120.746
 L -19.5237,-120.376 L -19.5,-120 L -19.5237,-119.624 L -19.5942,-119.254 L -19.7107,-118.896 L -19.8711,-118.555
 L -20.0729,-118.237 L -20.3131,-117.946 L -20.5877,-117.688 L -20.8925,-117.467 L -21.2227,-117.286 L -21.5729,-117.147
 L -21.9379,-117.053 L -22.3116,-117.006 z
M -7.68837,-117.006 L -8.06213,-117.053 L -8.42705,-117.147 L -8.77733,-117.286 L -9.10747,-117.467 L -9.41226,-117.688
 L -9.6869,-117.946 L -9.92705,-118.237 L -10.1289,-118.555 L -10.2893,-118.896 L -10.4057,-119.254 L -10.4763,-119.624
 L -10.5,-120 L -10.4763,-120.376 L -10.4057,-120.746 L -10.2893,-121.104 L -10.1289,-121.445 L -9.92705,-121.763
 L -9.6869,-122.054 L -9.41226,-122.312 L -9.10747,-122.533 L -8.77733,-122.714 L -8.42705,-122.853 L -8.06213,-122.947
 L -7.68837,-122.994 L -7.31161,-122.994 L -6.93785,-122.947 L -6.57294,-122.853 L -6.22266,-122.714 L -5.89252,-122.533
 L -5.58772,-122.312 L -5.31308,-122.054 L -5.07294,-121.763 L -4.87108,-121.445 L -4.71066,-121.104 L -4.59424,-120.746
 L -4.52365,-120.376 L -4.5,-120 L -4.52365,-119.624 L -4.59424,-119.254 L -4.71066,-118.896 L -4.87108,-118.555
 L -5.07294,-118.237 L -5.31308,-117.946 L -5.58772,-117.688 L -5.89252,-117.467 L -6.22266,-117.286 L -6.57294,-117.147
 L -6.93785,-117.053 L -7.31161,-117.006 z
M -37.6884,-117.006 L -38.0621,-117.053 L -38.427,-117.147 L -38.7773,-117.286 L -39.1075,-117.467 L -39.4123,-117.688
 L -39.6869,-117.946 L -39.927,-118.237 L -40.1289,-118.555 L -40.2893,-118.896 L -40.4057,-119.254 L -40.4763,-119.624
 L -40.5,-120 L -40.4763,-120.376 L -40.4057,-120.746 L -40.2893,-121.104 L -40.1289,-121.445 L -39.927,-121.763
 L -39.6869,-122.054 L -39.4123,-122.312 L -39.1075,-122.533 L -38.7773,-122.714 L -38.427,-122.853 L -38.0621,-122.947
 L -37.6884,-122.994 L -37.3116,-122.994 L -36.9379,-122.947 L -36.5729,-122.853 L -36.2227,-122.714 L -35.8925,-122.533
 L -35.5877,-122.312 L -35.3131,-122.054 L -35.0729,-121.763 L -34.8711,-121.445 L -34.7107,-121.104 L -34.5942,-120.746
 L -34.5237,-120.376 L -34.5,-120 L -34.5237,-119.624 L -34.5942,-119.254 L -34.7107,-118.896 L -34.8711,-118.555
 L -35.0729,-118.237 L -35.3131,-117.946 L -35.5877,-117.688 L -35.8925,-117.467 L -36.2227,-117.286 L -36.5729,-117.147
 L -36.9379,-117.053 L -37.3116,-117.006 z
M 112.312,-117.006 L 111.938,-117.053 L 111.573,-117.147 L 111.223,-117.286 L 110.893,-117.467 L 110.588,-117.688
 L 110.313,-117.946 L 110.073,-118.237 L 109.871,-118.555 L 109.711,-118.896 L 109.594,-119.254 L 109.524,-119.624
 L 109.5,-120 L 109.524,-120.376 L 109.594,-120.746 L 109.711,-121.104 L 109.871,-121.445 L 110.073,-121.763
 L 110.313,-122.054 L 110.588,-122.312 L 110.893,-122.533 L 111.223,-122.714 L 111.573,-122.853 L 111.938,-122.947
 L 112.312,-122.994 L 112.688,-122.994 L 113.062,-122.947 L 113.427,-122.853 L 113.777,-122.714 L 114.107,-122.533
 L 114.412,-122.312 L 114.687,-122.054 L 114.927,-121.763 L 115.129,-121.445 L 115.289,-121.104 L 115.406,-120.746
 L 115.476,-120.376 L 115.5,-120 L 115.476,-119.624 L 115.406,-119.254 L 115.289,-118.896 L 115.129,-118.555
 L 114.927,-118.237 L 114.687,-117.946 L 114.412,-117.688 L 114.107,-117.467 L 113.777,-117.286 L 113.427,-117.147
 L 113.062,-117.053 L 112.688,-117.006 z
M 97.3116,-117.006 L 96.9379,-117.053 L 96.573,-117.147 L 96.2227,-117.286 L 95.8925,-117.467 L 95.5877,-117.688
 L 95.3131,-117.946 L 95.073,-118.237 L 94.8711,-118.555 L 94.7107,-118.896 L 94.5943,-119.254 L 94.5237,-119.624
 L 94.5,-120 L 94.5237,-120.376 L 94.5943,-120.746 L 94.7107,-121.104 L 94.8711,-121.445 L 95.073,-121.763
 L 95.3131,-122.054 L 95.5877,-122.312 L 95.8925,-122.533 L 96.2227,-122.714 L 96.573,-122.853 L 96.9379,-122.947
 L 97.3116,-122.994 L 97.6884,-122.994 L 98.0621,-122.947 L 98.427,-122.853 L 98.7773,-122.714 L 99.1075,-122.533
 L 99.4123,-122.312 L 99.6869,-122.054 L 99.927,-121.763 L 100.129,-121.445 L 100.289,-121.104 L 100.406,-120.746
 L 100.476,-120.376 L 100.5,-120 L 100.476,-119.624 L 100.406,-119.254 L 100.289,-118.896 L 100.129,-118.555
 L 99.927,-118.237 L 99.6869,-117.946 L 99.4123,-117.688 L 99.1075,-117.467 L 98.7773,-117.286 L 98.427,-117.147
 L 98.0621,-117.053 L 97.6884,-117.006 z
M 67.3116,-117.006 L 66.9379,-117.053 L 66.573,-117.147 L 66.2227,-117.286 L 65.8925,-117.467 L 65.5877,-117.688
 L 65.3131,-117.946 L 65.073,-118.237 L 64.8711,-118.555 L 64.7107,-118.896 L 64.5943,-119.254 L 64.5237,-119.624
 L 64.5,-120 L 64.5237,-120.376 L 64.5943,-120.746 L 64.7107,-121.104 L 64.8711,-121.445 L 65.073,-121.763
 L 65.3131,-122.054 L 65.5877,-122.312 L 65.8925,-122.533 L 66.2227,-122.714 L 66.573,-122.853 L 66.9379,-122.947
 L 67.3116,-122.994 L 67.6884,-122.994 L 68.0621,-122.947 L 68.427,-122.853 L 68.7773,-122.714 L 69.1075,-122.533
 L 69.4123,-122.312 L 69.6869,-122.054 L 69.927,-121.763 L 70.1289,-121.445 L 70.2893,-121.104 L 70.4057,-120.746
 L 70.4763,-120.376 L 70.5,-120 L 70.4763,-119.624 L 70.4057,-119.254 L 70.2893,-118.896 L 70.1289,-118.555
 L 69.927,-118.237 L 69.6869,-117.946 L 69.4123,-117.688 L 69.1075,-117.467 L 68.7773,-117.286 L 68.427,-117.147
 L 68.0621,-117.053 L 67.6884,-117.006 z
M 82.3116,-117.006 L 81.9379,-117.053 L 81.573,-117.147 L 81.2227,-117.286 L 80.8925,-117.467 L 80.5877,-117.688
 L 80.3131,-117.946 L 80.073,-118.237 L 79.8711,-118.555 L 79.7107,-118.896 L 79.5943,-119.254 L 79.5237,-119.624
 L 79.5,-120 L 79.5237,-120.376 L 79.5943,-120.746 L 79.7107,-121.104 L 79.8711,-121.445 L 80.073,-121.763
 L 80.3131,-122.054 L 80.5877,-122.312 L 80.8925,-122.533 L 81.2227,-122.714 L 81.573,-122.853 L 81.9379,-122.947
 L 82.3116,-122.994 L 82.6884,-122.994 L 83.0621,-122.947 L 83.427,-122.853 L 83.7773,-122.714 L 84.1075,-122.533
 L 84.4123,-122.312 L 84.6869,-122.054 L 84.927,-121.763 L 85.1289,-121.445 L 85.2893,-121.104 L 85.4057,-120.746
 L 85.4763,-120.376 L 85.5,-120 L 85.4763,-119.624 L 85.4057,-119.254 L 85.2893,-118.896 L 85.1289,-118.555
 L 84.927,-118.237 L 84.6869,-117.946 L 84.4123,-117.688 L 84.1075,-117.467 L 83.7773,-117.286 L 83.427,-117.147
 L 83.0621,-117.053 L 82.6884,-117.006 z
M -127.688,-117.006 L -128.062,-117.053 L -128.427,-117.147 L -128.777,-117.286 L -129.107,-117.467 L -129.412,-117.688
 L -129.687,-117.946 L -129.927,-118.237 L -130.129,-118.555 L -130.289,-118.896 L -130.406,-119.254 L -130.476,-119.624
 L -130.5,-120 L -130.476,-120.376 L -130.406,-120.746 L -130.289,-121.104 L -130.129,-121.445 L -129.927,-121.763
 L -129.687,-122.054 L -129.412,-122.312 L -129.107,-122.533 L -128.777,-122.714 L -128.427,-122.853 L -128.062,-122.947
 L -127.688,-122.994 L -127.312,-122.994 L -126.938,-122.947 L -126.573,-122.853 L -126.223,-122.714 L -125.893,-122.533
 L -125.588,-122.312 L -125.313,-122.054 L -125.073,-121.763 L -124.871,-121.445 L -124.711,-121.104 L -124.594,-120.746
 L -124.524,-120.376 L -124.5,-120 L -124.524,-119.624 L -124.594,-119.254 L -124.711,-118.896 L -124.871,-118.555
 L -125.073,-118.237 L -125.313,-117.946 L -125.588,-117.688 L -125.893,-117.467 L -126.223,-117.286 L -126.573,-117.147
 L -126.938,-117.053 L -127.312,-117.006 z
M 142.312,-117.006 L 141.938,-117.053 L 141.573,-117.147 L 141.223,-117.286 L 140.893,-117.467 L 140.588,-117.688
 L 140.313,-117.946 L 140.073,-118.237 L 139.871,-118.555 L 139.711,-118.896 L 139.594,-119.254 L 139.524,-119.624
 L 139.5,-120 L 139.524,-120.376 L 139.594,-120.746 L 139.711,-121.104 L 139.871,-121.445 L 140.073,-121.763
 L 140.313,-122.054 L 140.588,-122.312 L 140.893,-122.533 L 141.223,-122.714 L 141.573,-122.853 L 141.938,-122.947
 L 142.312,-122.994 L 142.688,-122.994 L 143.062,-122.947 L 143.427,-122.853 L 143.777,-122.714 L 144.107,-122.533
 L 144.412,-122.312 L 144.687,-122.054 L 144.927,-121.763 L 145.129,-121.445 L 145.289,-121.104 L 145.406,-120.746
 L 145.476,-120.376 L 145.5,-120 L 145.476,-119.624 L 145.406,-119.254 L 145.289,-118.896 L 145.129,-118.555
 L 144.927,-118.237 L 144.687,-117.946 L 144.412,-117.688 L 144.107,-117.467 L 143.777,-117.286 L 143.427,-117.147
 L 143.062,-117.053 L 142.688,-117.006 z
M -112.688,-117.006 L -113.062,-117.053 L -113.427,-117.147 L -113.777,-117.286 L -114.107,-117.467 L -114.412,-117.688
 L -114.687,-117.946 L -114.927,-118.237 L -115.129,-118.555 L -115.289,-118.896 L -115.406,-119.254 L -115.476,-119.624
 L -115.5,-120 L -115.476,-120.376 L -115.406,-120.746 L -115.289,-121.104 L -115.129,-121.445 L -114.927,-121.763
 L -114.687,-122.054 L -114.412,-122.312 L -114.107,-122.533 L -113.777,-122.714 L -113.427,-122.853 L -113.062,-122.947
 L -112.688,-122.994 L -112.312,-122.994 L -111.938,-122.947 L -111.573,-122.853 L -111.223,-122.714 L -110.893,-122.533
 L -110.588,-122.312 L -110.313,-122.054 L -110.073,-121.763 L -109.871,-121.445 L -109.711,-121.104 L -109.594,-120.746
 L -109.524,-120.376 L -109.5,-120 L -109.524,-119.624 L -109.594,-119.254 L -109.711,-118.896 L -109.871,-118.555
 L -110.073,-118.237 L -110.313,-117.946 L -110.588,-117.688 L -110.893,-117.467 L -111.223,-117.286 L -111.573,-117.147
 L -111.938,-117.053 L -112.312,-117.006 z
M -142.688,-117.006 L -143.062,-117.053 L -143.427,-117.147 L -143.777,-117.286 L -144.107,-117.467 L -144.412,-117.688
 L -144.687,-117.946 L -144.927,-118.237 L -145.129,-118.555 L -145.289,-118.896 L -145.406,-119.254 L -145.476,-119.624
 L -145.5,-120 L -145.476,-120.376 L -145.406,-120.746 L -145.289,-121.104 L -145.129,-121.445 L -144.927,-121.763
 L -144.687,-122.054 L -144.412,-122.312 L -144.107,-122.533 L -143.777,-122.714 L -143.427,-122.853 L -143.062,-122.947
 L -142.688,-122.994 L -142.312,-122.994 L -141.938,-122.947 L -141.573,-122.853 L -141.223,-122.714 L -140.893,-122.533
 L -140.588,-122.312 L -140.313,-122.054 L -140.073,-121.763 L -139.871,-121.445 L -139.711,-121.104 L -139.594,-120.746
 L -139.524,-120.376 L -139.5,-120 L -139.524,-119.624 L -139.594,-119.254 L -139.711,-118.896 L -139.871,-118.555
 L -140.073,-118.237 L -140.313,-117.946 L -140.588,-117.688 L -140.893,-117.467 L -141.223,-117.286 L -141.573,-117.147
 L -141.938,-117.053 L -142.312,-117.006 z
M -82.6884,-117.006 L -83.0621,-117.053 L -83.427,-117.147 L -83.7773,-117.286 L -84.1075,-117.467 L -84.4123,-117.688
 L -84.6869,-117.946 L -84.927,-118.237 L -85.1289,-118.555 L -85.2893,-118.896 L -85.4057,-119.254 L -85.4763,-119.624
 L -85.5,-120 L -85.4763,-120.376 L -85.4057,-120.746 L -85.2893,-121.104 L -85.1289,-121.445 L -84.927,-121.763
 L -84.6869,-122.054 L -84.4123,-122.312 L -84.1075,-122.533 L -83.7773,-122.714 L -83.427,-122.853 L -83.0621,-122.947
 L -82.6884,-122.994 L -82.3116,-122.994 L -81.9379,-122.947 L -81.573,-122.853 L -81.2227,-122.714 L -80.8925,-122.533
 L -80.5877,-122.312 L -80.3131,-122.054 L -80.073,-121.763 L -79.8711,-121.445 L -79.7107,-121.104 L -79.5943,-120.746
 L -79.5237,-120.376 L -79.5,-120 L -79.5237,-119.624 L -79.5943,-119.254 L -79.7107,-118.896 L -79.8711,-118.555
 L -80.073,-118.237 L -80.3131,-117.946 L -80.5877,-117.688 L -80.8925,-117.467 L -81.2227,-117.286 L -81.573,-117.147
 L -81.9379,-117.053 L -82.3116,-117.006 z
M 22.3116,-117.006 L 21.9379,-117.053 L 21.5729,-117.147 L 21.2227,-117.286 L 20.8925,-117.467 L 20.5877,-117.688
 L 20.3131,-117.946 L 20.0729,-118.237 L 19.8711,-118.555 L 19.7107,-118.896 L 19.5942,-119.254 L 19.5237,-119.624
 L 19.5,-120 L 19.5237,-120.376 L 19.5942,-120.746 L 19.7107,-121.104 L 19.8711,-121.445 L 20.0729,-121.763
 L 20.3131,-122.054 L 20.5877,-122.312 L 20.8925,-122.533 L 21.2227,-122.714 L 21.5729,-122.853 L 21.9379,-122.947
 L 22.3116,-122.994 L 22.6884,-122.994 L 23.0621,-122.947 L 23.427,-122.853 L 23.7773,-122.714 L 24.1075,-122.533
 L 24.4123,-122.312 L 24.6869,-122.054 L 24.927,-121.763 L 25.1289,-121.445 L 25.2893,-121.104 L 25.4057,-120.746
 L 25.4763,-120.376 L 25.5,-120 L 25.4763,-119.624 L 25.4057,-119.254 L 25.2893,-118.896 L 25.1289,-118.555
 L 24.927,-118.237 L 24.6869,-117.946 L 24.4123,-117.688 L 24.1075,-117.467 L 23.7773,-117.286 L 23.427,-117.147
 L 23.0621,-117.053 L 22.6884,-117.006 z
M 37.3116,-117.006 L 36.9379,-117.053 L 36.5729,-117.147 L 36.2227,-117.286 L 35.8925,-117.467 L 35.5877,-117.688
 L 35.3131,-117.946 L 35.0729,-118.237 L 34.8711,-118.555 L 34.7107,-118.896 L 34.5942,-119.254 L 34.5237,-119.624
 L 34.5,-120 L 34.5237,-120.376 L 34.5942,-120.746 L 34.7107,-121.104 L 34.8711,-121.445 L 35.0729,-121.763
 L 35.3131,-122.054 L 35.5877,-122.312 L 35.8925,-122.533 L 36.2227,-122.714 L 36.5729,-122.853 L 36.9379,-122.947
 L 37.3116,-122.994 L 37.6884,-122.994 L 38.0621,-122.947 L 38.427,-122.853 L 38.7773,-122.714 L 39.1075,-122.533
 L 39.4123,-122.312 L 39.6869,-122.054 L 39.927,-121.763 L 40.1289,-121.445 L 40.2893,-121.104 L 40.4057,-120.746
 L 40.4763,-120.376 L 40.5,-120 L 40.4763,-119.624 L 40.4057,-119.254 L 40.2893,-118.896 L 40.1289,-118.555
 L 39.927,-118.237 L 39.6869,-117.946 L 39.4123,-117.688 L 39.1075,-117.467 L 38.7773,-117.286 L 38.427,-117.147
 L 38.0621,-117.053 L 37.6884,-117.006 z
M -97.6884,-117.006 L -98.0621,-117.053 L -98.427,-117.147 L -98.7773,-117.286 L -99.1075,-117.467 L -99.4123,-117.688
 L -99.6869,-117.946 L -99.927,-118.237 L -100.129,-118.555 L -100.289,-118.896 L -100.406,-119.254 L -100.476,-119.624
 L -100.5,-120 L -100.476,-120.376 L -100.406,-120.746 L -100.289,-121.104 L -100.129,-121.445 L -99.927,-121.763
 L -99.6869,-122.054 L -99.4123,-122.312 L -99.1075,-122.533 L -98.7773,-122.714 L -98.427,-122.853 L -98.0621,-122.947
 L -97.6884,-122.994 L -97.3116,-122.994 L -96.9379,-122.947 L -96.573,-122.853 L -96.2227,-122.714 L -95.8925,-122.533
 L -95.5877,-122.312 L -95.3131,-122.054 L -95.073,-121.763 L -94.8711,-121.445 L -94.7107,-121.104 L -94.5943,-120.746
 L -94.5237,-120.376 L -94.5,-120 L -94.5237,-119.624 L -94.5943,-119.254 L -94.7107,-118.896 L -94.8711,-118.555
 L -95.073,-118.237 L -95.3131,-117.946 L -95.5877,-117.688 L -95.8925,-117.467 L -96.2227,-117.286 L -96.573,-117.147
 L -96.9379,-117.053 L -97.3116,-117.006 z
M 52.3116,-117.006 L 51.9379,-117.053 L 51.5729,-117.147 L 51.2227,-117.286 L 50.8925,-117.467 L 50.5877,-117.688
 L 50.3131,-117.946 L 50.0729,-118.237 L 49.8711,-118.555 L 49.7107,-118.896 L 49.5942,-119.254 L 49.5237,-119.624
 L 49.5,-120 L 49.5237,-120.376 L 49.5942,-120.746 L 49.7107,-121.104 L 49.8711,-121.445 L 50.0729,-121.763
 L 50.3131,-122.054 L 50.5877,-122.312 L 50.8925,-122.533 L 51.2227,-122.714 L 51.5729,-122.853 L 51.9379,-122.947
 L 52.3116,-122.994 L 52.6884,-122.994 L 53.0621,-122.947 L 53.427,-122.853 L 53.7773,-122.714 L 54.1075,-122.533
 L 54.4123,-122.312 L 54.6869,-122.054 L 54.927,-121.763 L 55.1289,-121.445 L 55.2893,-121.104 L 55.4057,-120.746
 L 55.4763,-120.376 L 55.5,-120 L 55.4763,-119.624 L 55.4057,-119.254 L 55.2893,-118.896 L 55.1289,-118.555
 L 54.927,-118.237 L 54.6869,-117.946 L 54.4123,-117.688 L 54.1075,-117.467 L 53.7773,-117.286 L 53.427,-117.147
 L 53.0621,-117.053 L 52.6884,-117.006 z
M 145.437,-89.0886 L 146.045,-89.2447 L 146.629,-89.4759 L 147.179,-89.7784 L 147.687,-90.1474 L 148.145,-90.5773
 L 148.545,-91.0611 L 148.882,-91.5912 L 149.149,-92.1594 L 149.343,-92.7566 L 149.461,-93.3733 L 149.5,-94
 L 149.5,-98 L 149.461,-98.6267 L 149.343,-99.2434 L 149.149,-99.8406 L 148.882,-100.409 L 148.545,-100.939
 L 148.145,-101.423 L 147.687,-101.853 L 147.179,-102.222 L 146.629,-102.524 L 146.045,-102.755 L 145.437,-102.911
 L 144.814,-102.99 L -144.814,-102.99 L -145.437,-102.911 L -146.045,-102.755 L -146.629,-102.524 L -147.179,-102.222
 L -147.687,-101.853 L -148.145,-101.423 L -148.545,-100.939 L -148.882,-100.409 L -149.149,-99.8406 L -149.343,-99.2434
 L -149.461,-98.6267 L -149.5,-98 L -149.5,-94 L -149.461,-93.3733 L -149.343,-92.7566 L -149.149,-92.1594
 L -148.882,-91.5912 L -148.545,-91.0611 L -148.145,-90.5773 L -147.687,-90.1474 L -147.179,-89.7784 L -146.629,-89.4759
 L -146.045,-89.2447 L -145.437,-89.0886 L -144.814,-89.0099 L 144.814,-89.0099 z
M -67.6884,-93.0059 L -68.0621,-93.0531 L -68.427,-93.1468 L -68.7773,-93.2855 L -69.1075,-93.467 L -69.4123,-93.6885
 L -69.6869,-93.9464 L -69.927,-94.2366 L -70.1289,-94.5547 L -70.2893,-94.8956 L -70.4057,-95.2539 L -70.4763,-95.624
 L -70.5,-96 L -70.4763,-96.376 L -70.4057,-96.7461 L -70.2893,-97.1044 L -70.1289,-97.4453 L -69.927,-97.7634
 L -69.6869,-98.0536 L -69.4123,-98.3115 L -69.1075,-98.533 L -68.7773,-98.7145 L -68.427,-98.8532 L -68.0621,-98.9469
 L -67.6884,-98.9941 L -67.3116,-98.9941 L -66.9379,-98.9469 L -66.573,-98.8532 L -66.2227,-98.7145 L -65.8925,-98.533
 L -65.5877,-98.3115 L -65.3131,-98.0536 L -65.073,-97.7634 L -64.8711,-97.4453 L -64.7107,-97.1044 L -64.5943,-96.7461
 L -64.5237,-96.376 L -64.5,-96 L -64.5237,-95.624 L -64.5943,-95.2539 L -64.7107,-94.8956 L -64.8711,-94.5547
 L -65.073,-94.2366 L -65.3131,-93.9464 L -65.5877,-93.6885 L -65.8925,-93.467 L -66.2227,-93.2855 L -66.573,-93.1468
 L -66.9379,-93.0531 L -67.3116,-93.0059 z
M 52.3116,-93.0059 L 51.9379,-93.0531 L 51.5729,-93.1468 L 51.2227,-93.2855 L 50.8925,-93.467 L 50.5877,-93.6885
 L 50.3131,-93.9464 L 50.0729,-94.2366 L 49.8711,-94.5547 L 49.7107,-94.8956 L 49.5942,-95.2539 L 49.5237,-95.624
 L 49.5,-96 L 49.5237,-96.376 L 49.5942,-96.7461 L 49.7107,-97.1044 L 49.8711,-97.4453 L 50.0729,-97.7634
 L 50.3131,-98.0536 L 50.5877,-98.3115 L 50.8925,-98.533 L 51.2227,-98.7145 L 51.5729,-98.8532 L 51.9379,-98.9469
 L 52.3116,-98.9941 L 52.6884,-98.9941 L 53.0621,-98.9469 L 53.427,-98.8532 L 53.7773,-98.7145 L 54.1075,-98.533
 L 54.4123,-98.3115 L 54.6869,-98.0536 L 54.927,-97.7634 L 55.1289,-97.4453 L 55.2893,-97.1044 L 55.4057,-96.7461
 L 55.4763,-96.376 L 55.5,-96 L 55.4763,-95.624 L 55.4057,-95.2539 L 55.2893,-94.8956 L 55.1289,-94.5547
 L 54.927,-94.2366 L 54.6869,-93.9464 L 54.4123,-93.6885 L 54.1075,-93.467 L 53.7773,-93.2855 L 53.427,-93.1468
 L 53.0621,-93.0531 L 52.6884,-93.0059 z
M 7.31161,-93.0059 L 6.93785,-93.0531 L 6.57294,-93.1468 L 6.22266,-93.2855 L 5.89252,-93.467 L 5.58772,-93.6885
 L 5.31308,-93.9464 L 5.07294,-94.2366 L 4.87108,-94.5547 L 4.71066,-94.8956 L 4.59424,-95.2539 L 4.52365,-95.624
 L 4.5,-96 L 4.52365,-96.376 L 4.59424,-96.7461 L 4.71066,-97.1044 L 4.87108,-97.4453 L 5.07294,-97.7634
 L 5.31308,-98.0536 L 5.58772,-98.3115 L 5.89252,-98.533 L 6.22266,-98.7145 L 6.57294,-98.8532 L 6.93785,-98.9469
 L 7.31161,-98.9941 L 7.68837,-98.9941 L 8.06213,-98.9469 L 8.42705,-98.8532 L 8.77733,-98.7145 L 9.10747,-98.533
 L 9.41226,-98.3115 L 9.6869,-98.0536 L 9.92705,-97.7634 L 10.1289,-97.4453 L 10.2893,-97.1044 L 10.4057,-96.7461
 L 10.4763,-96.376 L 10.5,-96 L 10.4763,-95.624 L 10.4057,-95.2539 L 10.2893,-94.8956 L 10.1289,-94.5547
 L 9.92705,-94.2366 L 9.6869,-93.9464 L 9.41226,-93.6885 L 9.10747,-93.467 L 8.77733,-93.2855 L 8.42705,-93.1468
 L 8.06213,-93.0531 L 7.68837,-93.0059 z
M -52.6884,-93.0059 L -53.0621,-93.0531 L -53.427,-93.1468 L -53.7773,-93.2855 L -54.1075,-93.467 L -54.4123,-93.6885
 L -54.6869,-93.9464 L -54.927,-94.2366 L -55.1289,-94.5547 L -55.2893,-94.8956 L -55.4057,-95.2539 L -55.4763,-95.624
 L -55.5,-96 L -55.4763,-96.376 L -55.4057,-96.7461 L -55.2893,-97.1044 L -55.1289,-97.4453 L -54.927,-97.7634
 L -54.6869,-98.0536 L -54.4123,-98.3115 L -54.1075,-98.533 L -53.7773,-98.7145 L -53.427,-98.8532 L -53.0621,-98.9469
 L -52.6884,-98.9941 L -52.3116,-98.9941 L -51.9379,-98.9469 L -51.5729,-98.8532 L -51.2227,-98.7145 L -50.8925,-98.533
 L -50.5877,-98.3115 L -50.3131,-98.0536 L -50.0729,-97.7634 L -49.8711,-97.4453 L -49.7107,-97.1044 L -49.5942,-96.7461
 L -49.5237,-96.376 L -49.5,-96 L -49.5237,-95.624 L -49.5942,-95.2539 L -49.7107,-94.8956 L -49.8711,-94.5547
 L -50.0729,-94.2366 L -50.3131,-93.9464 L -50.5877,-93.6885 L -50.8925,-93.467 L -51.2227,-93.2855 L -51.5729,-93.1468
 L -51.9379,-93.0531 L -52.3116,-93.0059 z
M -22.6884,-93.0059 L -23.0621,-93.0531 L -23.427,-93.1468 L -23.7773,-93.2855 L -24.1075,-93.467 L -24.4123,-93.6885
 L -24.6869,-93.9464 L -24.927,-94.2366 L -25.1289,-94.5547 L -25.2893,-94.8956 L -25.4057,-95.2539 L -25.4763,-95.624
 L -25.5,-96 L -25.4763,-96.376 L -25.4057,-96.7461 L -25.2893,-97.1044 L -25.1289,-97.4453 L -24.927,-97.7634
 L -24.6869,-98.0536 L -24.4123,-98.3115 L -24.1075,-98.533 L -23.7773,-98.7145 L -23.427,-98.8532 L -23.0621,-98.9469
 L -22.6884,-98.9941 L -22.3116,-98.9941 L -21.9379,-98.9469 L -21.5729,-98.8532 L -21.2227,-98.7145 L -20.8925,-98.533
 L -20.5877,-98.3115 L -20.3131,-98.0536 L -20.0729,-97.7634 L -19.8711,-97.4453 L -19.7107,-97.1044 L -19.5942,-96.7461
 L -19.5237,-96.376 L -19.5,-96 L -19.5237,-95.624 L -19.5942,-95.2539 L -19.7107,-94.8956 L -19.8711,-94.5547
 L -20.0729,-94.2366 L -20.3131,-93.9464 L -20.5877,-93.6885 L -20.8925,-93.467 L -21.2227,-93.2855 L -21.5729,-93.1468
 L -21.9379,-93.0531 L -22.3116,-93.0059 z
M -7.68837,-93.0059 L -8.06213,-93.0531 L -8.42705,-93.1468 L -8.77733,-93.2855 L -9.10747,-93.467 L -9.41226,-93.6885
 L -9.6869,-93.9464 L -9.92705,-94.2366 L -10.1289,-94.5547 L -10.2893,-94.8956 L -10.4057,-95.2539 L -10.4763,-95.624
 L -10.5,-96 L -10.4763,-96.376 L -10.4057,-96.7461 L -10.2893,-97.1044 L -10.1289,-97.4453 L -9.92705,-97.7634
 L -9.6869,-98.0536 L -9.41226,-98.3115 L -9.10747,-98.533 L -8.77733,-98.7145 L -8.42705,-98.8532 L -8.06213,-98.9469
 L -7.68837,-98.9941 L -7.31161,-98.9941 L -6.93785,-98.9469 L -6.57294,-98.8532 L -6.22266,-98.7145 L -5.89252,-98.533
 L -5.58772,-98.3115 L -5.31308,-98.0536 L -5.07294,-97.7634 L -4.87108,-97.4453 L -4.71066,-97.1044 L -4.59424,-96.7461
 L -4.52365,-96.376 L -4.5,-96 L -4.52365,-95.624 L -4.59424,-95.2539 L -4.71066,-94.8956 L -4.87108,-94.5547
 L -5.07294,-94.2366 L -5.31308,-93.9464 L -5.58772,-93.6885 L -5.89252,-93.467 L -6.22266,-93.2855 L -6.57294,-93.1468
 L -6.93785,-93.0531 L -7.31161,-93.0059 z
M -37.6884,-93.0059 L -38.0621,-93.0531 L -38.427,-93.1468 L -38.7773,-93.2855 L -39.1075,-93.467 L -39.4123,-93.6885
 L -39.6869,-93.9464 L -39.927,-94.2366 L -40.1289,-94.5547 L -40.2893,-94.8956 L -40.4057,-95.2539 L -40.4763,-95.624
 L -40.5,-96 L -40.4763,-96.376 L -40.4057,-96.7461 L -40.2893,-97.1044 L -40.1289,-97.4453 L -39.927,-97.7634
 L -39.6869,-98.0536 L -39.4123,-98.3115 L -39.1075,-98.533 L -38.7773,-98.7145 L -38.427,-98.8532 L -38.0621,-98.9469
 L -37.6884,-98.9941 L -37.3116,-98.9941 L -36.9379,-98.9469 L -36.5729,-98.8532 L -36.2227,-98.7145 L -35.8925,-98.533
 L -35.5877,-98.3115 L -35.3131,-98.0536 L -35.0729,-97.7634 L -34.8711,-97.4453 L -34.7107,-97.1044 L -34.5942,-96.7461
 L -34.5237,-96.376 L -34.5,-96 L -34.5237,-95.624 L -34.5942,-95.2539 L -34.7107,-94.8956 L -34.8711,-94.5547
 L -35.0729,-94.2366 L -35.3131,-93.9464 L -35.5877,-93.6885 L -35.8925,-93.467 L -36.2227,-93.2855 L -36.5729,-93.1468
 L -36.9379,-93.0531 L -37.3116,-93.0059 z
M 112.312,-93.0059 L 111.938,-93.0531 L 111.573,-93.1468 L 111.223,-93.2855 L 110.893,-93.467 L 110.588,-93.6885
 L 110.313,-93.9464 L 110.073,-94.2366 L 109.871,-94.5547 L 109.711,-94.8956 L 109.594,-95.2539 L 109.524,-95.624
 L 109.5,-96 L 109.524,-96.376 L 109.594,-96.7461 L 109.711,-97.1044 L 109.871,-97.4453 L 110.073,-97.7634
 L 110.313,-98.0536 L 110.588,-98.3115 L 110.893,-98.533 L 111.223,-98.7145 L 111.573,-98.8532 L 111.938,-98.9469
 L 112.312,-98.9941 L 112.688,-98.9941 L 113.062,-98.9469 L 113.427,-98.8532 L 113.777,-98.7145 L 114.107,-98.533
 L 114.412,-98.3115 L 114.687,-98.0536 L 114.927,-97.7634 L 115.129,-97.4453 L 115.289,-97.1044 L 115.406,-96.7461
 L 115.476,-96.376 L 115.5,-96 L 115.476,-95.624 L 115.406,-95.2539 L 115.289,-94.8956 L 115.129,-94.5547
 L 114.927,-94.2366 L 114.687,-93.9464 L 114.412,-93.6885 L 114.107,-93.467 L 113.777,-93.2855 L 113.427,-93.1468
 L 113.062,-93.0531 L 112.688,-93.0059 z
M 97.3116,-93.0059 L 96.9379,-93.0531 L 96.573,-93.1468 L 96.2227,-93.2855 L 95.8925,-93.467 L 95.5877,-93.6885
 L 95.3131,-93.9464 L 95.073,-94.2366 L 94.8711,-94.5547 L 94.7107,-94.8956 L 94.5943,-95.2539 L 94.5237,-95.624
 L 94.5,-96 L 94.5237,-96.376 L 94.5943,-96.7461 L 94.7107,-97.1044 L 94.8711,-97.4453 L 95.073,-97.7634
 L 95.3131,-98.0536 L 95.5877,-98.3115 L 95.8925,-98.533 L 96.2227,-98.7145 L 96.573,-98.8532 L 96.9379,-98.9469
 L 97.3116,-98.9941 L 97.6884,-98.9941 L 98.0621,-98.9469 L 98.427,-98.8532 L 98.7773,-98.7145 L 99.1075,-98.533
 L 99.4123,-98.3115 L 99.6869,-98.0536 L 99.927,-97.7634 L 100.129,-97.4453 L 100.289,-97.1044 L 100.406,-96.7461
 L 100.476,-96.376 L 100.5,-96 L 100.476,-95.624 L 100.406,-95.2539 L 100.289,-94.8956 L 100.129,-94.5547
 L 99.927,-94.2366 L 99.6869,-93.9464 L 99.4123,-93.6885 L 99.1075,-93.467 L 98.7773,-93.2855 L 98.427,-93.1468
 L 98.0621,-93.0531 L 97.6884,-93.0059 z
M 67.3116,-93.0059 L 66.9379,-93.0531 L 66.573,-93.1468 L 66.2227,-93.2855 L 65.8925,-93.467 L 65.5877,-93.6885
 L 65.3131,-93.9464 L 65.073,-94.2366 L 64.8711,-94.5547 L 64.7107,-94.8956 L 64.5943,-95.2539 L 64.5237,-95.624
 L 64.5,-96 L 64.5237,-96.376 L 64.5943,-96.7461 L 64.7107,-97.1044 L 64.8711,-97.4453 L 65.073,-97.7634
 L 65.3131,-98.0536 L 65.5877,-98.3115 L 65.8925,-98.533 L 66.2227,-98.7145 L 66.573,-98.8532 L 66.9379,-98.9469
 L 67.3116,-98.9941 L 67.6884,-98.9941 L 68.0621,-98.9469 L 68.427,-98.8532 L 68.7773,-98.7145 L 69.1075,-98.533
 L 69.4123,-98.3115 L 69.6869,-98.0536 L 69.927,-97.7634 L 70.1289,-97.4453 L 70.2893,-97.1044 L 70.4057,-96.7461
 L 70.4763,-96.376 L 70.5,-96 L 70.4763,-95.624 L 70.4057,-95.2539 L 70.2893,-94.8956 L 70.1289,-94.5547
 L 69.927,-94.2366 L 69.6869,-93.9464 L 69.4123,-93.6885 L 69.1075,-93.467 L 68.7773,-93.2855 L 68.427,-93.1468
 L 68.0621,-93.0531 L 67.6884,-93.0059 z
M 82.3116,-93.0059 L 81.9379,-93.0531 L 81.573,-93.1468 L 81.2227,-93.2855 L 80.8925,-93.467 L 80.5877,-93.6885
 L 80.3131,-93.9464 L 80.073,-94.2366 L 79.8711,-94.5547 L 79.7107,-94.8956 L 79.5943,-95.2539 L 79.5237,-95.624
 L 79.5,-96 L 79.5237,-96.376 L 79.5943,-96.7461 L 79.7107,-97.1044 L 79.8711,-97.4453 L 80.073,-97.7634
 L 80.3131,-98.0536 L 80.5877,-98.3115 L 80.8925,-98.533 L 81.2227,-98.7145 L 81.573,-98.8532 L 81.9379,-98.9469
 L 82.3116,-98.9941 L 82.6884,-98.9941 L 83.0621,-98.9469 L 83.427,-98.8532 L 83.7773,-98.7145 L 84.1075,-98.533
 L 84.4123,-98.3115 L 84.6869,-98.0536 L 84.927,-97.7634 L 85.1289,-97.4453 L 85.2893,-97.1044 L 85.4057,-96.7461
 L 85.4763,-96.376 L 85.5,-96 L 85.4763,-95.624 L 85.4057,-95.2539 L 85.2893,-94.8956 L 85.1289,-94.5547
 L 84.927,-94.2366 L 84.6869,-93.9464 L 84.4123,-93.6885 L 84.1075,-93.467 L 83.7773,-93.2855 L 83.427,-93.1468
 L 83.0621,-93.0531 L 82.6884,-93.0059 z
M -127.688,-93.0059 L -128.062,-93.0531 L -128.427,-93.1468 L -128.777,-93.2855 L -129.107,-93.467 L -129.412,-93.6885
 L -129.687,-93.9464 L -129.927,-94.2366 L -130.129,-94.5547 L -130.289,-94.8956 L -130.406,-95.2539 L -130.476,-95.624
 L -130.5,-96 L -130.476,-96.376 L -130.406,-96.7461 L -130.289,-97.1044 L -130.129,-97.4453 L -129.927,-97.7634
 L -129.687,-98.0536 L -129.412,-98.3115 L -129.107,-98.533 L -128.777,-98.7145 L -128.427,-98.8532 L -128.062,-98.9469
 L -127.688,-98.9941 L -127.312,-98.9941 L -126.938,-98.9469 L -126.573,-98.8532 L -126.223,-98.7145 L -125.893,-98.533
 L -125.588,-98.3115 L -125.313,-98.0536 L -125.073,-97.7634 L -124.871,-97.4453 L -124.711,-97.1044 L -124.594,-96.7461
 L -124.524,-96.376 L -124.5,-96 L -124.524,-95.624 L -124.594,-95.2539 L -124.711,-94.8956 L -124.871,-94.5547
 L -125.073,-94.2366 L -125.313,-93.9464 L -125.588,-93.6885 L -125.893,-93.467 L -126.223,-93.2855 L -126.573,-93.1468
 L -126.938,-93.0531 L -127.312,-93.0059 z
M 142.312,-93.0059 L 141.938,-93.0531 L 141.573,-93.1468 L 141.223,-93.2855 L 140.893,-93.467 L 140.588,-93.6885
 L 140.313,-93.9464 L 140.073,-94.2366 L 139.871,-94.5547 L 139.711,-94.8956 L 139.594,-95.2539 L 139.524,-95.624
 L 139.5,-96 L 139.524,-96.376 L 139.594,-96.7461 L 139.711,-97.1044 L 139.871,-97.4453 L 140.073,-97.7634
 L 140.313,-98.0536 L 140.588,-98.3115 L 140.893,-98.533 L 141.223,-98.7145 L 141.573,-98.8532 L 141.938,-98.9469
 L 142.312,-98.9941 L 142.688,-98.9941 L 143.062,-98.9469 L 143.427,-98.8532 L 143.777,-98.7145 L 144.107,-98.533
 L 144.412,-98.3115 L 144.687,-98.0536 L 144.927,-97.7634 L 145.129,-97.4453 L 145.289,-97.1044 L 145.406,-96.7461
 L 145.476,-96.376 L 145.5,-96 L 145.476,-95.624 L 145.406,-95.2539 L 145.289,-94.8956 L 145.129,-94.5547
 L 144.927,-94.2366 L 144.687,-93.9464 L 144.412,-93.6885 L 144.107,-93.467 L 143.777,-93.2855 L 143.427,-93.1468
 L 143.062,-93.0531 L 142.688,-93.0059 z
M -112.688,-93.0059 L -113.062,-93.0531 L -113.427,-93.1468 L -113.777,-93.2855 L -114.107,-93.467 L -114.412,-93.6885
 L -114.687,-93.9464 L -114.927,-94.2366 L -115.129,-94.5547 L -115.289,-94.8956 L -115.406,-95.2539 L -115.476,-95.624
 L -115.5,-96 L -115.476,-96.376 L -115.406,-96.7461 L -115.289,-97.1044 L -115.129,-97.4453 L -114.927,-97.7634
 L -114.687,-98.0536 L -114.412,-98.3115 L -114.107,-98.533 L -113.777,-98.7145 L -113.427,-98.8532 L -113.062,-98.9469
 L -112.688,-98.9941 L -112.312,-98.9941 L -111.938,-98.9469 L -111.573,-98.8532 L -111.223,-98.7145 L -110.893,-98.533
 L -110.588,-98.3115 L -110.313,-98.0536 L -110.073,-97.7634 L -109.871,-97.4453 L -109.711,-97.1044 L -109.594,-96.7461
 L -109.524,-96.376 L -109.5,-96 L -109.524,-95.624 L -109.594,-95.2539 L -109.711,-94.8956 L -109.871,-94.5547
 L -110.073,-94.2366 L -110.313,-93.9464 L -110.588,-93.6885 L -110.893,-93.467 L -111.223,-93.2855 L -111.573,-93.1468
 L -111.938,-93.0531 L -112.312,-93.0059 z
M -142.688,-93.0059 L -143.062,-93.0531 L -143.427,-93.1468 L -143.777,-93.2855 L -144.107,-93.467 L -144.412,-93.6885
 L -144.687,-93.9464 L -144.927,-94.2366 L -145.129,-94.5547 L -145.289,-94.8956 L -145.406,-95.2539 L -145.476,-95.624
 L -145.5,-96 L -145.476,-96.376 L -145.406,-96.7461 L -145.289,-97.1044 L -145.129,-97.4453 L -144.927,-97.7634
 L -144.687,-98.0536 L -144.412,-98.3115 L -144.107,-98.533 L -143.777,-98.7145 L -143.427,-98.8532 L -143.062,-98.9469
 L -142.688,-98.9941 L -142.312,-98.9941 L -141.938,-98.9469 L -141.573,-98.8532 L -141.223,-98.7145 L -140.893,-98.533
 L -140.588,-98.3115 L -140.313,-98.0536 L -140.073,-97.7634 L -139.871,-97.4453 L -139.711,-97.1044 L -139.594,-96.7461
 L -139.524,-96.376 L -139.5,-96 L -139.524,-95.624 L -139.594,-95.2539 L -139.711,-94.8956 L -139.871,-94.5547
 L -140.073,-94.2366 L -140.313,-93.9464 L -140.588,-93.6885 L -140.893,-93.467 L -141.223,-93.2855 L -141.573,-93.1468
 L -141.938,-93.0531 L -142.312,-93.0059 z
M -82.6884,-93.0059 L -83.0621,-93.0531 L -83.427,-93.1468 L -83.7773,-93.2855 L -84.1075,-93.467 L -84.4123,-93.6885
 L -84.6869,-93.9464 L -84.927,-94.2366 L -85.1289,-94.5547 L -85.2893,-94.8956 L -85.4057,-95.2539 L -85.4763,-95.624
 L -85.5,-96 L -85.4763,-96.376 L -85.4057,-96.7461 L -85.2893,-97.1044 L -85.1289,-97.4453 L -84.927,-97.7634
 L -84.6869,-98.0536 L -84.4123,-98.3115 L -84.1075,-98.533 L -83.7773,-98.7145 L -83.427,-98.8532 L -83.0621,-98.9469
 L -82.6884,-98.9941 L -82.3116,-98.9941 L -81.9379,-98.9469 L -81.573,-98.8532 L -81.2227,-98.7145 L -80.8925,-98.533
 L -80.5877,-98.3115 L -80.3131,-98.0536 L -80.073,-97.7634 L -79.8711,-97.4453 L -79.7107,-97.1044 L -79.5943,-96.7461
 L -79.5237,-96.376 L -79.5,-96 L -79.5237,-95.624 L -79.5943,-95.2539 L -79.7107,-94.8956 L -79.8711,-94.5547
 L -80.073,-94.2366 L -80.3131,-93.9464 L -80.5877,-93.6885 L -80.8925,-93.467 L -81.2227,-93.2855 L -81.573,-93.1468
 L -81.9379,-93.0531 L -82.3116,-93.0059 z
M 22.3116,-93.0059 L 21.9379,-93.0531 L 21.5729,-93.1468 L 21.2227,-93.2855 L 20.8925,-93.467 L 20.5877,-93.6885
 L 20.3131,-93.9464 L 20.0729,-94.2366 L 19.8711,-94.5547 L 19.7107,-94.8956 L 19.5942,-95.2539 L 19.5237,-95.624
 L 19.5,-96 L 19.5237,-96.376 L 19.5942,-96.7461 L 19.7107,-97.1044 L 19.8711,-97.4453 L 20.0729,-97.7634
 L 20.3131,-98.0536 L 20.5877,-98.3115 L 20.8925,-98.533 L 21.2227,-98.7145 L 21.5729,-98.8532 L 21.9379,-98.9469
 L 22.3116,-98.9941 L 22.6884,-98.9941 L 23.0621,-98.9469 L 23.427,-98.8532 L 23.7773,-98.7145 L 24.1075,-98.533
 L 24.4123,-98.3115 L 24.6869,-98.0536 L 24.927,-97.7634 L 25.1289,-97.4453 L 25.2893,-97.1044 L 25.4057,-96.7461
 L 25.4763,-96.376 L 25.5,-96 L 25.4763,-95.624 L 25.4057,-95.2539 L 25.2893,-94.8956 L 25.1289,-94.5547
 L 24.927,-94.2366 L 24.6869,-93.9464 L 24.4123,-93.6885 L 24.1075,-93.467 L 23.7773,-93.2855 L 23.427,-93.1468
 L 23.0621,-93.0531 L 22.6884,-93.0059 z
M 37.3116,-93.0059 L 36.9379,-93.0531 L 36.5729,-93.1468 L 36.2227,-93.2855 L 35.8925,-93.467 L 35.5877,-93.6885
 L 35.3131,-93.9464 L 35.0729,-94.2366 L 34.8711,-94.5547 L 34.7107,-94.8956 L 34.5942,-95.2539 L 34.5237,-95.624
 L 34.5,-96 L 34.5237,-96.376 L 34.5942,-96.7461 L 34.7107,-97.1044 L 34.8711,-97.4453 L 35.0729,-97.7634
 L 35.3131,-98.0536 L 35.5877,-98.3115 L 35.8925,-98.533 L 36.2227,-98.7145 L 36.5729,-98.8532 L 36.9379,-98.9469
 L 37.3116,-98.9941 L 37.6884,-98.9941 L 38.0621,-98.9469 L 38.427,-98.8532 L 38.7773,-98.7145 L 39.1075,-98.533
 L 39.4123,-98.3115 L 39.6869,-98.0536 L 39.927,-97.7634 L 40.1289,-97.4453 L 40.2893,-97.1044 L 40.4057,-96.7461
 L 40.4763,-96.376 L 40.5,-96 L 40.4763,-95.624 L 40.4057,-95.2539 L 40.2893,-94.8956 L 40.1289,-94.5547
 L 39.927,-94.2366 L 39.6869,-93.9464 L 39.4123,-93.6885 L 39.1075,-93.467 L 38.7773,-93.2855 L 38.427,-93.1468
 L 38.0621,-93.0531 L 37.6884,-93.0059 z
M -97.6884,-93.0059 L -98.0621,-93.0531 L -98.427,-93.1468 L -98.7773,-93.2855 L -99.1075,-93.467 L -99.4123,-93.6885
 L -99.6869,-93.9464 L -99.927,-94.2366 L -100.129,-94.5547 L -100.289,-94.8956 L -100.406,-95.2539 L -100.476,-95.624
 L -100.5,-96 L -100.476,-96.376 L -100.406,-96.7461 L -100.289,-97.1044 L -100.129,-97.4453 L -99.927,-97.7634
 L -99.6869,-98.0536 L -99.4123,-98.3115 L -99.1075,-98.533 L -98.7773,-98.7145 L -98.427,-98.8532 L -98.0621,-98.9469
 L -97.6884,-98.9941 L -97.3116,-98.9941 L -96.9379,-98.9469 L -96.573,-98.8532 L -96.2227,-98.7145 L -95.8925,-98.533
 L -95.5877,-98.3115 L -95.3131,-98.0536 L -95.073,-97.7634 L -94.8711,-97.4453 L -94.7107,-97.1044 L -94.5943,-96.7461
 L -94.5237,-96.376 L -94.5,-96 L -94.5237,-95.624 L -94.5943,-95.2539 L -94.7107,-94.8956 L -94.8711,-94.5547
 L -95.073,-94.2366 L -95.3131,-93.9464 L -95.5877,-93.6885 L -95.8925,-93.467 L -96.2227,-93.2855 L -96.573,-93.1468
 L -96.9379,-93.0531 L -97.3116,-93.0059 z
M 127.312,-93.0059 L 126.938,-93.0531 L 126.573,-93.1468 L 126.223,-93.2855 L 125.893,-93.467 L 125.588,-93.6885
 L 125.313,-93.9464 L 125.073,-94.2366 L 124.871,-94.5547 L 124.711,-94.8956 L 124.594,-95.2539 L 124.524,-95.624
 L 124.5,-96 L 124.524,-96.376 L 124.594,-96.7461 L 124.711,-97.1044 L 124.871,-97.4453 L 125.073,-97.7634
 L 125.313,-98.0536 L 125.588,-98.3115 L 125.893,-98.533 L 126.223,-98.7145 L 126.573,-98.8532 L 126.938,-98.9469
 L 127.312,-98.9941 L 127.688,-98.9941 L 128.062,-98.9469 L 128.427,-98.8532 L 128.777,-98.7145 L 129.107,-98.533
 L 129.412,-98.3115 L 129.687,-98.0536 L 129.927,-97.7634 L 130.129,-97.4453 L 130.289,-97.1044 L 130.406,-96.7461
 L 130.476,-96.376 L 130.5,-96 L 130.476,-95.624 L 130.406,-95.2539 L 130.289,-94.8956 L 130.129,-94.5547
 L 129.927,-94.2366 L 129.687,-93.9464 L 129.412,-93.6885 L 129.107,-93.467 L 128.777,-93.2855 L 128.427,-93.1468
 L 128.062,-93.0531 L 127.688,-93.0059 z
M 145.437,-65.0886 L 146.045,-65.2447 L 146.629,-65.4759 L 147.179,-65.7784 L 147.687,-66.1474 L 148.145,-66.5773
 L 148.545,-67.0611 L 148.882,-67.5912 L 149.149,-68.1594 L 149.343,-68.7566 L 149.461,-69.3733 L 149.5,-70
 L 149.5,-74 L 149.461,-74.6267 L 149.343,-75.2434 L 149.149,-75.8406 L 148.882,-76.4088 L 148.545,-76.9389
 L 148.145,-77.4227 L 147.687,-77.8526 L 147.179,-78.2216 L 146.629,-78.5241 L 146.045,-78.7553 L 145.437,-78.9114
 L 144.814,-78.9901 L -144.814,-78.9901 L -145.437,-78.9114 L -146.045,-78.7553 L -146.629,-78.5241 L -147.179,-78.2216
 L -147.687,-77.8526 L -148.145,-77.4227 L -148.545,-76.9389 L -148.882,-76.4088 L -149.149,-75.8406 L -149.343,-75.2434
 L -149.461,-74.6267 L -149.5,-74 L -149.5,-70 L -149.461,-69.3733 L -149.343,-68.7566 L -149.149,-68.1594
 L -148.882,-67.5912 L -148.545,-67.0611 L -148.145,-66.5773 L -147.687,-66.1474 L -147.179,-65.7784 L -146.629,-65.4759
 L -146.045,-65.2447 L -145.437,-65.0886 L -144.814,-65.0099 L 144.814,-65.0099 z
M -67.6884,-69.0059 L -68.0621,-69.0531 L -68.427,-69.1468 L -68.7773,-69.2855 L -69.1075,-69.467 L -69.4123,-69.6885
 L -69.6869,-69.9464 L -69.927,-70.2366 L -70.1289,-70.5547 L -70.2893,-70.8956 L -70.4057,-71.2539 L -70.4763,-71.624
 L -70.5,-72 L -70.4763,-72.376 L -70.4057,-72.7461 L -70.2893,-73.1044 L -70.1289,-73.4453 L -69.927,-73.7634
 L -69.6869,-74.0536 L -69.4123,-74.3115 L -69.1075,-74.533 L -68.7773,-74.7145 L -68.427,-74.8532 L -68.0621,-74.9469
 L -67.6884,-74.9941 L -67.3116,-74.9941 L -66.9379,-74.9469 L -66.573,-74.8532 L -66.2227,-74.7145 L -65.8925,-74.533
 L -65.5877,-74.3115 L -65.3131,-74.0536 L -65.073,-73.7634 L -64.8711,-73.4453 L -64.7107,-73.1044 L -64.5943,-72.7461
 L -64.5237,-72.376 L -64.5,-72 L -64.5237,-71.624 L -64.5943,-71.2539 L -64.7107,-70.8956 L -64.8711,-70.5547
 L -65.073,-70.2366 L -65.3131,-69.9464 L -65.5877,-69.6885 L -65.8925,-69.467 L -66.2227,-69.2855 L -66.573,-69.1468
 L -66.9379,-69.0531 L -67.3116,-69.0059 z
M -37.6884,-69.0059 L -38.0621,-69.0531 L -38.427,-69.1468 L -38.7773,-69.2855 L -39.1075,-69.467 L -39.4123,-69.6885
 L -39.6869,-69.9464 L -39.927,-70.2366 L -40.1289,-70.5547 L -40.2893,-70.8956 L -40.4057,-71.2539 L -40.4763,-71.624
 L -40.5,-72 L -40.4763,-72.376 L -40.4057,-72.7461 L -40.2893,-73.1044 L -40.1289,-73.4453 L -39.927,-73.7634
 L -39.6869,-74.0536 L -39.4123,-74.3115 L -39.1075,-74.533 L -38.7773,-74.7145 L -38.427,-74.8532 L -38.0621,-74.9469
 L -37.6884,-74.9941 L -37.3116,-74.9941 L -36.9379,-74.9469 L -36.5729,-74.8532 L -36.2227,-74.7145 L -35.8925,-74.533
 L -35.5877,-74.3115 L -35.3131,-74.0536 L -35.0729,-73.7634 L -34.8711,-73.4453 L -34.7107,-73.1044 L -34.5942,-72.7461
 L -34.5237,-72.376 L -34.5,-72 L -34.5237,-71.624 L -34.5942,-71.2539 L -34.7107,-70.8956 L -34.8711,-70.5547
 L -35.0729,-70.2366 L -35.3131,-69.9464 L -35.5877,-69.6885 L -35.8925,-69.467 L -36.2227,-69.2855 L -36.5729,-69.1468
 L -36.9379,-69.0531 L -37.3116,-69.0059 z
M -112.688,-69.0059 L -113.062,-69.0531 L -113.427,-69.1468 L -113.777,-69.2855 L -114.107,-69.467 L -114.412,-69.6885
 L -114.687,-69.9464 L -114.927,-70.2366 L -115.129,-70.5547 L -115.289,-70.8956 L -115.406,-71.2539 L -115.476,-71.624
 L -115.5,-72 L -115.476,-72.376 L -115.406,-72.7461 L -115.289,-73.1044 L -115.129,-73.4453 L -114.927,-73.7634
 L -114.687,-74.0536 L -114.412,-74.3115 L -114.107,-74.533 L -113.777,-74.7145 L -113.427,-74.8532 L -113.062,-74.9469
 L -112.688,-74.9941 L -112.312,-74.9941 L -111.938,-74.9469 L -111.573,-74.8532 L -111.223,-74.7145 L -110.893,-74.533
 L -110.588,-74.3115 L -110.313,-74.0536 L -110.073,-73.7634 L -109.871,-73.4453 L -109.711,-73.1044 L -109.594,-72.7461
 L -109.524,-72.376 L -109.5,-72 L -109.524,-71.624 L -109.594,-71.2539 L -109.711,-70.8956 L -109.871,-70.5547
 L -110.073,-70.2366 L -110.313,-69.9464 L -110.588,-69.6885 L -110.893,-69.467 L -111.223,-69.2855 L -111.573,-69.1468
 L -111.938,-69.0531 L -112.312,-69.0059 z
M 52.3116,-69.0059 L 51.9379,-69.0531 L 51.5729,-69.1468 L 51.2227,-69.2855 L 50.8925,-69.467 L 50.5877,-69.6885
 L 50.3131,-69.9464 L 50.0729,-70.2366 L 49.8711,-70.5547 L 49.7107,-70.8956 L 49.5942,-71.2539 L 49.5237,-71.624
 L 49.5,-72 L 49.5237,-72.376 L 49.5942,-72.7461 L 49.7107,-73.1044 L 49.8711,-73.4453 L 50.0729,-73.7634
 L 50.3131,-74.0536 L 50.5877,-74.3115 L 50.8925,-74.533 L 51.2227,-74.7145 L 51.5729,-74.8532 L 51.9379,-74.9469
 L 52.3116,-74.9941 L 52.6884,-74.9941 L 53.0621,-74.9469 L 53.427,-74.8532 L 53.7773,-74.7145 L 54.1075,-74.533
 L 54.4123,-74.3115 L 54.6869,-74.0536 L 54.927,-73.7634 L 55.1289,-73.4453 L 55.2893,-73.1044 L 55.4057,-72.7461
 L 55.4763,-72.376 L 55.5,-72 L 55.4763,-71.624 L 55.4057,-71.2539 L 55.2893,-70.8956 L 55.1289,-70.5547
 L 54.927,-70.2366 L 54.6869,-69.9464 L 54.4123,-69.6885 L 54.1075,-69.467 L 53.7773,-69.2855 L 53.427,-69.1468
 L 53.0621,-69.0531 L 52.6884,-69.0059 z
M -127.688,-69.0059 L -128.062,-69.0531 L -128.427,-69.1468 L -128.777,-69.2855 L -129.107,-69.467 L -129.412,-69.6885
 L -129.687,-69.9464 L -129.927,-70.2366 L -130.129,-70.5547 L -130.289,-70.8956 L -130.406,-71.2539 L -130.476,-71.624
 L -130.5,-72 L -130.476,-72.376 L -130.406,-72.7461 L -130.289,-73.1044 L -130.129,-73.4453 L -129.927,-73.7634
 L -129.687,-74.0536 L -129.412,-74.3115 L -129.107,-74.533 L -128.777,-74.7145 L -128.427,-74.8532 L -128.062,-74.9469
 L -127.688,-74.9941 L -127.312,-74.9941 L -126.938,-74.9469 L -126.573,-74.8532 L -126.223,-74.7145 L -125.893,-74.533
 L -125.588,-74.3115 L -125.313,-74.0536 L -125.073,-73.7634 L -124.871,-73.4453 L -124.711,-73.1044 L -124.594,-72.7461
 L -124.524,-72.376 L -124.5,-72 L -124.524,-71.624 L -124.594,-71.2539 L -124.711,-70.8956 L -124.871,-70.5547
 L -125.073,-70.2366 L -125.313,-69.9464 L -125.588,-69.6885 L -125.893,-69.467 L -126.223,-69.2855 L -126.573,-69.1468
 L -126.938,-69.0531 L -127.312,-69.0059 z
M 67.3116,-69.0059 L 66.9379,-69.0531 L 66.573,-69.1468 L 66.2227,-69.2855 L 65.8925,-69.467 L 65.5877,-69.6885
 L 65.3131,-69.9464 L 65.073,-70.2366 L 64.8711,-70.5547 L 64.7107,-70.8956 L 64.5943,-71.2539 L 64.5237,-71.624
 L 64.5,-72 L 64.5237,-72.376 L 64.5943,-72.7461 L 64.7107,-73.1044 L 64.8711,-73.4453 L 65.073,-73.7634
 L 65.3131,-74.0536 L 65.5877,-74.3115 L 65.8925,-74.533 L 66.2227,-74.7145 L 66.573,-74.8532 L 66.9379,-74.9469
 L 67.3116,-74.9941 L 67.6884,-74.9941 L 68.0621,-74.9469 L 68.427,-74.8532 L 68.7773,-74.7145 L 69.1075,-74.533
 L 69.4123,-74.3115 L 69.6869,-74.0536 L 69.927,-73.7634 L 70.1289,-73.4453 L 70.2893,-73.1044 L 70.4057,-72.7461
 L 70.4763,-72.376 L 70.5,-72 L 70.4763,-71.624 L 70.4057,-71.2539 L 70.2893,-70.8956 L 70.1289,-70.5547
 L 69.927,-70.2366 L 69.6869,-69.9464 L 69.4123,-69.6885 L 69.1075,-69.467 L 68.7773,-69.2855 L 68.427,-69.1468
 L 68.0621,-69.0531 L 67.6884,-69.0059 z
M -7.68837,-69.0059 L -8.06213,-69.0531 L -8.42705,-69.1468 L -8.77733,-69.2855 L -9.10747,-69.467 L -9.41226,-69.6885
 L -9.6869,-69.9464 L -9.92705,-70.2366 L -10.1289,-70.5547 L -10.2893,-70.8956 L -10.4057,-71.2539 L -10.4763,-71.624
 L -10.5,-72 L -10.4763,-72.376 L -10.4057,-72.7461 L -10.2893,-73.1044 L -10.1289,-73.4453 L -9.92705,-73.7634
 L -9.6869,-74.0536 L -9.41226,-74.3115 L -9.10747,-74.533 L -8.77733,-74.7145 L -8.42705,-74.8532 L -8.06213,-74.9469
 L -7.68837,-74.9941 L -7.31161,-74.9941 L -6.93785,-74.9469 L -6.57294,-74.8532 L -6.22266,-74.7145 L -5.89252,-74.533
 L -5.58772,-74.3115 L -5.31308,-74.0536 L -5.07294,-73.7634 L -4.87108,-73.4453 L -4.71066,-73.1044 L -4.59424,-72.7461
 L -4.52365,-72.376 L -4.5,-72 L -4.52365,-71.624 L -4.59424,-71.2539 L -4.71066,-70.8956 L -4.87108,-70.5547
 L -5.07294,-70.2366 L -5.31308,-69.9464 L -5.58772,-69.6885 L -5.89252,-69.467 L -6.22266,-69.2855 L -6.57294,-69.1468
 L -6.93785,-69.0531 L -7.31161,-69.0059 z
M 112.312,-69.0059 L 111.938,-69.0531 L 111.573,-69.1468 L 111.223,-69.2855 L 110.893,-69.467 L 110.588,-69.6885
 L 110.313,-69.9464 L 110.073,-70.2366 L 109.871,-70.5547 L 109.711,-70.8956 L 109.594,-71.2539 L 109.524,-71.624
 L 109.5,-72 L 109.524,-72.376 L 109.594,-72.7461 L 109.711,-73.1044 L 109.871,-73.4453 L 110.073,-73.7634
 L 110.313,-74.0536 L 110.588,-74.3115 L 110.893,-74.533 L 111.223,-74.7145 L 111.573,-74.8532 L 111.938,-74.9469
 L 112.312,-74.9941 L 112.688,-74.9941 L 113.062,-74.9469 L 113.427,-74.8532 L 113.777,-74.7145 L 114.107,-74.533
 L 114.412,-74.3115 L 114.687,-74.0536 L 114.927,-73.7634 L 115.129,-73.4453 L 115.289,-73.1044 L 115.406,-72.7461
 L 115.476,-72.376 L 115.5,-72 L 115.476,-71.624 L 115.406,-71.2539 L 115.289,-70.8956 L 115.129,-70.5547
 L 114.927,-70.2366 L 114.687,-69.9464 L 114.412,-69.6885 L 114.107,-69.467 L 113.777,-69.2855 L 113.427,-69.1468
 L 113.062,-69.0531 L 112.688,-69.0059 z
M -82.6884,-69.0059 L -83.0621,-69.0531 L -83.427,-69.1468 L -83.7773,-69.2855 L -84.1075,-69.467 L -84.4123,-69.6885
 L -84.6869,-69.9464 L -84.927,-70.2366 L -85.1289,-70.5547 L -85.2893,-70.8956 L -85.4057,-71.2539 L -85.4763,-71.624
 L -85.5,-72 L -85.4763,-72.376 L -85.4057,-72.7461 L -85.2893,-73.1044 L -85.1289,-73.4453 L -84.927,-73.7634
 L -84.6869,-74.0536 L -84.4123,-74.3115 L -84.1075,-74.533 L -83.7773,-74.7145 L -83.427,-74.8532 L -83.0621,-74.9469
 L -82.6884,-74.9941 L -82.3116,-74.9941 L -81.9379,-74.9469 L -81.573,-74.8532 L -81.2227,-74.7145 L -80.8925,-74.533
 L -80.5877,-74.3115 L -80.3131,-74.0536 L -80.073,-73.7634 L -79.8711,-73.4453 L -79.7107,-73.1044 L -79.5943,-72.7461
 L -79.5237,-72.376 L -79.5,-72 L -79.5237,-71.624 L -79.5943,-71.2539 L -79.7107,-70.8956 L -79.8711,-70.5547
 L -80.073,-70.2366 L -80.3131,-69.9464 L -80.5877,-69.6885 L -80.8925,-69.467 L -81.2227,-69.2855 L -81.573,-69.1468
 L -81.9379,-69.0531 L -82.3116,-69.0059 z
M -97.6884,-69.0059 L -98.0621,-69.0531 L -98.427,-69.1468 L -98.7773,-69.2855 L -99.1075,-69.467 L -99.4123,-69.6885
 L -99.6869,-69.9464 L -99.927,-70.2366 L -100.129,-70.5547 L -100.289,-70.8956 L -100.406,-71.2539 L -100.476,-71.624
 L -100.5,-72 L -100.476,-72.376 L -100.406,-72.7461 L -100.289,-73.1044 L -100.129,-73.4453 L -99.927,-73.7634
 L -99.6869,-74.0536 L -99.4123,-74.3115 L -99.1075,-74.533 L -98.7773,-74.7145 L -98.427,-74.8532 L -98.0621,-74.9469
 L -97.6884,-74.9941 L -97.3116,-74.9941 L -96.9379,-74.9469 L -96.573,-74.8532 L -96.2227,-74.7145 L -95.8925,-74.533
 L -95.5877,-74.3115 L -95.3131,-74.0536 L -95.073,-73.7634 L -94.8711,-73.4453 L -94.7107,-73.1044 L -94.5943,-72.7461
 L -94.5237,-72.376 L -94.5,-72 L -94.5237,-71.624 L -94.5943,-71.2539 L -94.7107,-70.8956 L -94.8711,-70.5547
 L -95.073,-70.2366 L -95.3131,-69.9464 L -95.5877,-69.6885 L -95.8925,-69.467 L -96.2227,-69.2855 L -96.573,-69.1468
 L -96.9379,-69.0531 L -97.3116,-69.0059 z
M 127.312,-69.0059 L 126.938,-69.0531 L 126.573,-69.1468 L 126.223,-69.2855 L 125.893,-69.467 L 125.588,-69.6885
 L 125.313,-69.9464 L 125.073,-70.2366 L 124.871,-70.5547 L 124.711,-70.8956 L 124.594,-71.2539 L 124.524,-71.624
 L 124.5,-72 L 124.524,-72.376 L 124.594,-72.7461 L 124.711,-73.1044 L 124.871,-73.4453 L 125.073,-73.7634
 L 125.313,-74.0536 L 125.588,-74.3115 L 125.893,-74.533 L 126.223,-74.7145 L 126.573,-74.8532 L 126.938,-74.9469
 L 127.312,-74.9941 L 127.688,-74.9941 L 128.062,-74.9469 L 128.427,-74.8532 L 128.777,-74.7145 L 129.107,-74.533
 L 129.412,-74.3115 L 129.687,-74.0536 L 129.927,-73.7634 L 130.129,-73.4453 L 130.289,-73.1044 L 130.406,-72.7461
 L 130.476,-72.376 L 130.5,-72 L 130.476,-71.624 L 130.406,-71.2539 L 130.289,-70.8956 L 130.129,-70.5547
 L 129.927,-70.2366 L 129.687,-69.9464 L 129.412,-69.6885 L 129.107,-69.467 L 128.777,-69.2855 L 128.427,-69.1468
 L 128.062,-69.0531 L 127.688,-69.0059 z
M 7.31161,-69.0059 L 6.93785,-69.0531 L 6.57294,-69.1468 L 6.22266,-69.2855 L 5.89252,-69.467 L 5.58772,-69.6885
 L 5.31308,-69.9464 L 5.07294,-70.2366 L 4.87108,-70.5547 L 4.71066,-70.8956 L 4.59424,-71.2539 L 4.52365,-71.624
 L 4.5,-72 L 4.52365,-72.376 L 4.59424,-72.7461 L 4.71066,-73.1044 L 4.87108,-73.4453 L 5.07294,-73.7634
 L 5.31308,-74.0536 L 5.58772,-74.3115 L 5.89252,-74.533 L 6.22266,-74.7145 L 6.57294,-74.8532 L 6.93785,-74.9469
 L 7.31161,-74.9941 L 7.68837,-74.9941 L 8.06213,-74.9469 L 8.42705,-74.8532 L 8.77733,-74.7145 L 9.10747,-74.533
 L 9.41226,-74.3115 L 9.6869,-74.0536 L 9.92705,-73.7634 L 10.1289,-73.4453 L 10.2893,-73.1044 L 10.4057,-72.7461
 L 10.4763,-72.376 L 10.5,-72 L 10.4763,-71.624 L 10.4057,-71.2539 L 10.2893,-70.8956 L 10.1289,-70.5547
 L 9.92705,-70.2366 L 9.6869,-69.9464 L 9.41226,-69.6885 L 9.10747,-69.467 L 8.77733,-69.2855 L 8.42705,-69.1468
 L 8.06213,-69.0531 L 7.68837,-69.0059 z
M 142.312,-69.0059 L 141.938,-69.0531 L 141.573,-69.1468 L 141.223,-69.2855 L 140.893,-69.467 L 140.588,-69.6885
 L 140.313,-69.9464 L 140.073,-70.2366 L 139.871,-70.5547 L 139.711,-70.8956 L 139.594,-71.2539 L 139.524,-71.624
 L 139.5,-72 L 139.524,-72.376 L 139.594,-72.7461 L 139.711,-73.1044 L 139.871,-73.4453 L 140.073,-73.7634
 L 140.313,-74.0536 L 140.588,-74.3115 L 140.893,-74.533 L 141.223,-74.7145 L 141.573,-74.8532 L 141.938,-74.9469
 L 142.312,-74.9941 L 142.688,-74.9941 L 143.062,-74.9469 L 143.427,-74.8532 L 143.777,-74.7145 L 144.107,-74.533
 L 144.412,-74.3115 L 144.687,-74.0536 L 144.927,-73.7634 L 145.129,-73.4453 L 145.289,-73.1044 L 145.406,-72.7461
 L 145.476,-72.376 L 145.5,-72 L 145.476,-71.624 L 145.406,-71.2539 L 145.289,-70.8956 L 145.129,-70.5547
 L 144.927,-70.2366 L 144.687,-69.9464 L 144.412,-69.6885 L 144.107,-69.467 L 143.777,-69.2855 L 143.427,-69.1468
 L 143.062,-69.0531 L 142.688,-69.0059 z
M -52.6884,-69.0059 L -53.0621,-69.0531 L -53.427,-69.1468 L -53.7773,-69.2855 L -54.1075,-69.467 L -54.4123,-69.6885
 L -54.6869,-69.9464 L -54.927,-70.2366 L -55.1289,-70.5547 L -55.2893,-70.8956 L -55.4057,-71.2539 L -55.4763,-71.624
 L -55.5,-72 L -55.4763,-72.376 L -55.4057,-72.7461 L -55.2893,-73.1044 L -55.1289,-73.4453 L -54.927,-73.7634
 L -54.6869,-74.0536 L -54.4123,-74.3115 L -54.1075,-74.533 L -53.7773,-74.7145 L -53.427,-74.8532 L -53.0621,-74.9469
 L -52.6884,-74.9941 L -52.3116,-74.9941 L -51.9379,-74.9469 L -51.5729,-74.8532 L -51.2227,-74.7145 L -50.8925,-74.533
 L -50.5877,-74.3115 L -50.3131,-74.0536 L -50.0729,-73.7634 L -49.8711,-73.4453 L -49.7107,-73.1044 L -49.5942,-72.7461
 L -49.5237,-72.376 L -49.5,-72 L -49.5237,-71.624 L -49.5942,-71.2539 L -49.7107,-70.8956 L -49.8711,-70.5547
 L -50.0729,-70.2366 L -50.3131,-69.9464 L -50.5877,-69.6885 L -50.8925,-69.467 L -51.2227,-69.2855 L -51.5729,-69.1468
 L -51.9379,-69.0531 L -52.3116,-69.0059 z
M -22.6884,-69.0059 L -23.0621,-69.0531 L -23.427,-69.1468 L -23.7773,-69.2855 L -24.1075,-69.467 L -24.4123,-69.6885
 L -24.6869,-69.9464 L -24.927,-70.2366 L -25.1289,-70.5547 L -25.2893,-70.8956 L -25.4057,-71.2539 L -25.4763,-71.624
 L -25.5,-72 L -25.4763,-72.376 L -25.4057,-72.7461 L -25.2893,-73.1044 L -25.1289,-73.4453 L -24.927,-73.7634
 L -24.6869,-74.0536 L -24.4123,-74.3115 L -24.1075,-74.533 L -23.7773,-74.7145 L -23.427,-74.8532 L -23.0621,-74.9469
 L -22.6884,-74.9941 L -22.3116,-74.9941 L -21.9379,-74.9469 L -21.5729,-74.8532 L -21.2227,-74.7145 L -20.8925,-74.533
 L -20.5877,-74.3115 L -20.3131,-74.0536 L -20.0729,-73.7634 L -19.8711,-73.4453 L -19.7107,-73.1044 L -19.5942,-72.7461
 L -19.5237,-72.376 L -19.5,-72 L -19.5237,-71.624 L -19.5942,-71.2539 L -19.7107,-70.8956 L -19.8711,-70.5547
 L -20.0729,-70.2366 L -20.3131,-69.9464 L -20.5877,-69.6885 L -20.8925,-69.467 L -21.2227,-69.2855 L -21.5729,-69.1468
 L -21.9379,-69.0531 L -22.3116,-69.0059 z
M 22.3116,-69.0059 L 21.9379,-69.0531 L 21.5729,-69.1468 L 21.2227,-69.2855 L 20.8925,-69.467 L 20.5877,-69.6885
 L 20.3131,-69.9464 L 20.0729,-70.2366 L 19.8711,-70.5547 L 19.7107,-70.8956 L 19.5942,-71.2539 L 19.5237,-71.624
 L 19.5,-72 L 19.5237,-72.376 L 19.5942,-72.7461 L 19.7107,-73.1044 L 19.8711,-73.4453 L 20.0729,-73.7634
 L 20.3131,-74.0536 L 20.5877,-74.3115 L 20.8925,-74.533 L 21.2227,-74.7145 L 21.5729,-74.8532 L 21.9379,-74.9469
 L 22.3116,-74.9941 L 22.6884,-74.9941 L 23.0621,-74.9469 L 23.427,-74.8532 L 23.7773,-74.7145 L 24.1075,-74.533
 L 24.4123,-74.3115 L 24.6869,-74.0536 L 24.927,-73.7634 L 25.1289,-73.4453 L 25.2893,-73.1044 L 25.4057,-72.7461
 L 25.4763,-72.376 L 25.5,-72 L 25.4763,-71.624 L 25.4057,-71.2539 L 25.2893,-70.8956 L 25.1289,-70.5547
 L 24.927,-70.2366 L 24.6869,-69.9464 L 24.4123,-69.6885 L 24.1075,-69.467 L 23.7773,-69.2855 L 23.427,-69.1468
 L 23.0621,-69.0531 L 22.6884,-69.0059 z
M 97.3116,-69.0059 L 96.9379,-69.0531 L 96.573,-69.1468 L 96.2227,-69.2855 L 95.8925,-69.467 L 95.5877,-69.6885
 L 95.3131,-69.9464 L 95.073,-70.2366 L 94.8711,-70.5547 L 94.7107,-70.8956 L 94.5943,-71.2539 L 94.5237,-71.624
 L 94.5,-72 L 94.5237,-72.376 L 94.5943,-72.7461 L 94.7107,-73.1044 L 94.8711,-73.4453 L 95.073,-73.7634
 L 95.3131,-74.0536 L 95.5877,-74.3115 L 95.8925,-74.533 L 96.2227,-74.7145 L 96.573,-74.8532 L 96.9379,-74.9469
 L 97.3116,-74.9941 L 97.6884,-74.9941 L 98.0621,-74.9469 L 98.427,-74.8532 L 98.7773,-74.7145 L 99.1075,-74.533
 L 99.4123,-74.3115 L 99.6869,-74.0536 L 99.927,-73.7634 L 100.129,-73.4453 L 100.289,-73.1044 L 100.406,-72.7461
 L 100.476,-72.376 L 100.5,-72 L 100.476,-71.624 L 100.406,-71.2539 L 100.289,-70.8956 L 100.129,-70.5547
 L 99.927,-70.2366 L 99.6869,-69.9464 L 99.4123,-69.6885 L 99.1075,-69.467 L 98.7773,-69.2855 L 98.427,-69.1468
 L 98.0621,-69.0531 L 97.6884,-69.0059 z
M 37.3116,-69.0059 L 36.9379,-69.0531 L 36.5729,-69.1468 L 36.2227,-69.2855 L 35.8925,-69.467 L 35.5877,-69.6885
 L 35.3131,-69.9464 L 35.0729,-70.2366 L 34.8711,-70.5547 L 34.7107,-70.8956 L 34.5942,-71.2539 L 34.5237,-71.624
 L 34.5,-72 L 34.5237,-72.376 L 34.5942,-72.7461 L 34.7107,-73.1044 L 34.8711,-73.4453 L 35.0729,-73.7634
 L 35.3131,-74.0536 L 35.5877,-74.3115 L 35.8925,-74.533 L 36.2227,-74.7145 L 36.5729,-74.8532 L 36.9379,-74.9469
 L 37.3116,-74.9941 L 37.6884,-74.9941 L 38.0621,-74.9469 L 38.427,-74.8532 L 38.7773,-74.7145 L 39.1075,-74.533
 L 39.4123,-74.3115 L 39.6869,-74.0536 L 39.927,-73.7634 L 40.1289,-73.4453 L 40.2893,-73.1044 L 40.4057,-72.7461
 L 40.4763,-72.376 L 40.5,-72 L 40.4763,-71.624 L 40.4057,-71.2539 L 40.2893,-70.8956 L 40.1289,-70.5547
 L 39.927,-70.2366 L 39.6869,-69.9464 L 39.4123,-69.6885 L 39.1075,-69.467 L 38.7773,-69.2855 L 38.427,-69.1468
 L 38.0621,-69.0531 L 37.6884,-69.0059 z
M 82.3116,-69.0059 L 81.9379,-69.0531 L 81.573,-69.1468 L 81.2227,-69.2855 L 80.8925,-69.467 L 80.5877,-69.6885
 L 80.3131,-69.9464 L 80.073,-70.2366 L 79.8711,-70.5547 L 79.7107,-70.8956 L 79.5943,-71.2539 L 79.5237,-71.624
 L 79.5,-72 L 79.5237,-72.376 L 79.5943,-72.7461 L 79.7107,-73.1044 L 79.8711,-73.4453 L 80.073,-73.7634
 L 80.3131,-74.0536 L 80.5877,-74.3115 L 80.8925,-74.533 L 81.2227,-74.7145 L 81.573,-74.8532 L 81.9379,-74.9469
 L 82.3116,-74.9941 L 82.6884,-74.9941 L 83.0621,-74.9469 L 83.427,-74.8532 L 83.7773,-74.7145 L 84.1075,-74.533
 L 84.4123,-74.3115 L 84.6869,-74.0536 L 84.927,-73.7634 L 85.1289,-73.4453 L 85.2893,-73.1044 L 85.4057,-72.7461
 L 85.4763,-72.376 L 85.5,-72 L 85.4763,-71.624 L 85.4057,-71.2539 L 85.2893,-70.8956 L 85.1289,-70.5547
 L 84.927,-70.2366 L 84.6869,-69.9464 L 84.4123,-69.6885 L 84.1075,-69.467 L 83.7773,-69.2855 L 83.427,-69.1468
 L 83.0621,-69.0531 L 82.6884,-69.0059 z
M -142.688,-69.0059 L -143.062,-69.0531 L -143.427,-69.1468 L -143.777,-69.2855 L -144.107,-69.467 L -144.412,-69.6885
 L -144.687,-69.9464 L -144.927,-70.2366 L -145.129,-70.5547 L -145.289,-70.8956 L -145.406,-71.2539 L -145.476,-71.624
 L -145.5,-72 L -145.476,-72.376 L -145.406,-72.7461 L -145.289,-73.1044 L -145.129,-73.4453 L -144.927,-73.7634
 L -144.687,-74.0536 L -144.412,-74.3115 L -144.107,-74.533 L -143.777,-74.7145 L -143.427,-74.8532 L -143.062,-74.9469
 L -142.688,-74.9941 L -142.312,-74.9941 L -141.938,-74.9469 L -141.573,-74.8532 L -141.223,-74.7145 L -140.893,-74.533
 L -140.588,-74.3115 L -140.313,-74.0536 L -140.073,-73.7634 L -139.871,-73.4453 L -139.711,-73.1044 L -139.594,-72.7461
 L -139.524,-72.376 L -139.5,-72 L -139.524,-71.624 L -139.594,-71.2539 L -139.711,-70.8956 L -139.871,-70.5547
 L -140.073,-70.2366 L -140.313,-69.9464 L -140.588,-69.6885 L -140.893,-69.467 L -141.223,-69.2855 L -141.573,-69.1468
 L -141.938,-69.0531 L -142.312,-69.0059 z
" stroke="black" fill="lightgray" stroke-width="0.5"/>
</svg>
