  0
SECTION
  2
BLOCKS
  0
ENDSEC
  0
SECTION
  2
ENTITIES
  0
LINE
  8
0
 10
130.437
 20
-21.9114
 11
131.045
 21
-21.7553
  0
LINE
  8
0
 10
131.045
 20
-21.7553
 11
131.629
 21
-21.5241
  0
LINE
  8
0
 10
131.629
 20
-21.5241
 11
132.179
 21
-21.2216
  0
LINE
  8
0
 10
132.179
 20
-21.2216
 11
132.687
 21
-20.8526
  0
LINE
  8
0
 10
132.687
 20
-20.8526
 11
133.145
 21
-20.4227
  0
LINE
  8
0
 10
133.145
 20
-20.4227
 11
133.545
 21
-19.9389
  0
LINE
  8
0
 10
133.545
 20
-19.9389
 11
133.882
 21
-19.4088
  0
LINE
  8
0
 10
133.882
 20
-19.4088
 11
134.149
 21
-18.8406
  0
LINE
  8
0
 10
134.149
 20
-18.8406
 11
134.343
 21
-18.2434
  0
LINE
  8
0
 10
134.343
 20
-18.2434
 11
134.461
 21
-17.6267
  0
LINE
  8
0
 10
134.461
 20
-17.6267
 11
134.5
 21
-17
  0
LINE
  8
0
 10
134.5
 20
-17
 11
134.5
 21
17
  0
LINE
  8
0
 10
134.5
 20
17
 11
134.461
 21
17.6267
  0
LINE
  8
0
 10
134.461
 20
17.6267
 11
134.343
 21
18.2434
  0
LINE
  8
0
 10
134.343
 20
18.2434
 11
134.149
 21
18.8406
  0
LINE
  8
0
 10
134.149
 20
18.8406
 11
133.882
 21
19.4088
  0
LINE
  8
0
 10
133.882
 20
19.4088
 11
133.545
 21
19.9389
  0
LINE
  8
0
 10
133.545
 20
19.9389
 11
133.145
 21
20.4227
  0
LINE
  8
0
 10
133.145
 20
20.4227
 11
132.687
 21
20.8526
  0
LINE
  8
0
 10
132.687
 20
20.8526
 11
132.179
 21
21.2216
  0
LINE
  8
0
 10
132.179
 20
21.2216
 11
131.629
 21
21.5241
  0
LINE
  8
0
 10
131.629
 20
21.5241
 11
131.045
 21
21.7553
  0
LINE
  8
0
 10
131.045
 20
21.7553
 11
130.437
 21
21.9114
  0
LINE
  8
0
 10
130.437
 20
21.9114
 11
129.814
 21
21.9901
  0
LINE
  8
0
 10
129.814
 20
21.9901
 11
-129.814
 21
21.9901
  0
LINE
  8
0
 10
-129.814
 20
21.9901
 11
-130.437
 21
21.9114
  0
LINE
  8
0
 10
-130.437
 20
21.9114
 11
-131.045
 21
21.7553
  0
LINE
  8
0
 10
-131.045
 20
21.7553
 11
-131.629
 21
21.5241
  0
LINE
  8
0
 10
-131.629
 20
21.5241
 11
-132.179
 21
21.2216
  0
LINE
  8
0
 10
-132.179
 20
21.2216
 11
-132.687
 21
20.8526
  0
LINE
  8
0
 10
-132.687
 20
20.8526
 11
-133.145
 21
20.4227
  0
LINE
  8
0
 10
-133.145
 20
20.4227
 11
-133.545
 21
19.9389
  0
LINE
  8
0
 10
-133.545
 20
19.9389
 11
-133.882
 21
19.4088
  0
LINE
  8
0
 10
-133.882
 20
19.4088
 11
-134.149
 21
18.8406
  0
LINE
  8
0
 10
-134.149
 20
18.8406
 11
-134.343
 21
18.2434
  0
LINE
  8
0
 10
-134.343
 20
18.2434
 11
-134.461
 21
17.6267
  0
LINE
  8
0
 10
-134.461
 20
17.6267
 11
-134.5
 21
17
  0
LINE
  8
0
 10
-134.5
 20
17
 11
-134.5
 21
-17
  0
LINE
  8
0
 10
-134.5
 20
-17
 11
-134.461
 21
-17.6267
  0
LINE
  8
0
 10
-134.461
 20
-17.6267
 11
-134.343
 21
-18.2434
  0
LINE
  8
0
 10
-134.343
 20
-18.2434
 11
-134.149
 21
-18.8406
  0
LINE
  8
0
 10
-134.149
 20
-18.8406
 11
-133.882
 21
-19.4088
  0
LINE
  8
0
 10
-133.882
 20
-19.4088
 11
-133.545
 21
-19.9389
  0
LINE
  8
0
 10
-133.545
 20
-19.9389
 11
-133.145
 21
-20.4227
  0
LINE
  8
0
 10
-133.145
 20
-20.4227
 11
-132.687
 21
-20.8526
  0
LINE
  8
0
 10
-132.687
 20
-20.8526
 11
-132.179
 21
-21.2216
  0
LINE
  8
0
 10
-132.179
 20
-21.2216
 11
-131.629
 21
-21.5241
  0
LINE
  8
0
 10
-131.629
 20
-21.5241
 11
-131.045
 21
-21.7553
  0
LINE
  8
0
 10
-131.045
 20
-21.7553
 11
-130.437
 21
-21.9114
  0
LINE
  8
0
 10
-130.437
 20
-21.9114
 11
-129.814
 21
-21.9901
  0
LINE
  8
0
 10
-129.814
 20
-21.9901
 11
129.814
 21
-21.9901
  0
LINE
  8
0
 10
129.814
 20
-21.9901
 11
130.437
 21
-21.9114
  0
LINE
  8
0
 10
-127.688
 20
12.0059
 11
-128.062
 21
12.0531
  0
LINE
  8
0
 10
-128.062
 20
12.0531
 11
-128.427
 21
12.1468
  0
LINE
  8
0
 10
-128.427
 20
12.1468
 11
-128.777
 21
12.2855
  0
LINE
  8
0
 10
-128.777
 20
12.2855
 11
-129.107
 21
12.467
  0
LINE
  8
0
 10
-129.107
 20
12.467
 11
-129.412
 21
12.6884
  0
LINE
  8
0
 10
-129.412
 20
12.6884
 11
-129.687
 21
12.9464
  0
LINE
  8
0
 10
-129.687
 20
12.9464
 11
-129.927
 21
13.2366
  0
LINE
  8
0
 10
-129.927
 20
13.2366
 11
-130.129
 21
13.5547
  0
LINE
  8
0
 10
-130.129
 20
13.5547
 11
-130.289
 21
13.8956
  0
LINE
  8
0
 10
-130.289
 20
13.8956
 11
-130.406
 21
14.2539
  0
LINE
  8
0
 10
-130.406
 20
14.2539
 11
-130.476
 21
14.624
  0
LINE
  8
0
 10
-130.476
 20
14.624
 11
-130.5
 21
15
  0
LINE
  8
0
 10
-130.5
 20
15
 11
-130.476
 21
15.376
  0
LINE
  8
0
 10
-130.476
 20
15.376
 11
-130.406
 21
15.7461
  0
LINE
  8
0
 10
-130.406
 20
15.7461
 11
-130.289
 21
16.1044
  0
LINE
  8
0
 10
-130.289
 20
16.1044
 11
-130.129
 21
16.4453
  0
LINE
  8
0
 10
-130.129
 20
16.4453
 11
-129.927
 21
16.7634
  0
LINE
  8
0
 10
-129.927
 20
16.7634
 11
-129.687
 21
17.0536
  0
LINE
  8
0
 10
-129.687
 20
17.0536
 11
-129.412
 21
17.3115
  0
LINE
  8
0
 10
-129.412
 20
17.3115
 11
-129.107
 21
17.533
  0
LINE
  8
0
 10
-129.107
 20
17.533
 11
-128.777
 21
17.7145
  0
LINE
  8
0
 10
-128.777
 20
17.7145
 11
-128.427
 21
17.8532
  0
LINE
  8
0
 10
-128.427
 20
17.8532
 11
-128.062
 21
17.9469
  0
LINE
  8
0
 10
-128.062
 20
17.9469
 11
-127.688
 21
17.9941
  0
LINE
  8
0
 10
-127.688
 20
17.9941
 11
-127.312
 21
17.9941
  0
LINE
  8
0
 10
-127.312
 20
17.9941
 11
-126.938
 21
17.9469
  0
LINE
  8
0
 10
-126.938
 20
17.9469
 11
-126.573
 21
17.8532
  0
LINE
  8
0
 10
-126.573
 20
17.8532
 11
-126.223
 21
17.7145
  0
LINE
  8
0
 10
-126.223
 20
17.7145
 11
-125.893
 21
17.533
  0
LINE
  8
0
 10
-125.893
 20
17.533
 11
-125.588
 21
17.3115
  0
LINE
  8
0
 10
-125.588
 20
17.3115
 11
-125.313
 21
17.0536
  0
LINE
  8
0
 10
-125.313
 20
17.0536
 11
-125.073
 21
16.7634
  0
LINE
  8
0
 10
-125.073
 20
16.7634
 11
-124.871
 21
16.4453
  0
LINE
  8
0
 10
-124.871
 20
16.4453
 11
-124.711
 21
16.1044
  0
LINE
  8
0
 10
-124.711
 20
16.1044
 11
-124.594
 21
15.7461
  0
LINE
  8
0
 10
-124.594
 20
15.7461
 11
-124.524
 21
15.376
  0
LINE
  8
0
 10
-124.524
 20
15.376
 11
-124.5
 21
15
  0
LINE
  8
0
 10
-124.5
 20
15
 11
-124.524
 21
14.624
  0
LINE
  8
0
 10
-124.524
 20
14.624
 11
-124.594
 21
14.2539
  0
LINE
  8
0
 10
-124.594
 20
14.2539
 11
-124.711
 21
13.8956
  0
LINE
  8
0
 10
-124.711
 20
13.8956
 11
-124.871
 21
13.5547
  0
LINE
  8
0
 10
-124.871
 20
13.5547
 11
-125.073
 21
13.2366
  0
LINE
  8
0
 10
-125.073
 20
13.2366
 11
-125.313
 21
12.9464
  0
LINE
  8
0
 10
-125.313
 20
12.9464
 11
-125.588
 21
12.6884
  0
LINE
  8
0
 10
-125.588
 20
12.6884
 11
-125.893
 21
12.467
  0
LINE
  8
0
 10
-125.893
 20
12.467
 11
-126.223
 21
12.2855
  0
LINE
  8
0
 10
-126.223
 20
12.2855
 11
-126.573
 21
12.1468
  0
LINE
  8
0
 10
-126.573
 20
12.1468
 11
-126.938
 21
12.0531
  0
LINE
  8
0
 10
-126.938
 20
12.0531
 11
-127.312
 21
12.0059
  0
LINE
  8
0
 10
-127.312
 20
12.0059
 11
-127.688
 21
12.0059
  0
LINE
  8
0
 10
-127.594
 20
6.00294
 11
-127.781
 21
6.02657
  0
LINE
  8
0
 10
-127.781
 20
6.02657
 11
-127.964
 21
6.07341
  0
LINE
  8
0
 10
-127.964
 20
6.07341
 11
-128.139
 21
6.14275
  0
LINE
  8
0
 10
-128.139
 20
6.14275
 11
-128.304
 21
6.23351
  0
LINE
  8
0
 10
-128.304
 20
6.23351
 11
-128.456
 21
6.34422
  0
LINE
  8
0
 10
-128.456
 20
6.34422
 11
-128.593
 21
6.47318
  0
LINE
  8
0
 10
-128.593
 20
6.47318
 11
-128.714
 21
6.61832
  0
LINE
  8
0
 10
-128.714
 20
6.61832
 11
-128.814
 21
6.77736
  0
LINE
  8
0
 10
-128.814
 20
6.77736
 11
-128.895
 21
6.9478
  0
LINE
  8
0
 10
-128.895
 20
6.9478
 11
-128.953
 21
7.12695
  0
LINE
  8
0
 10
-128.953
 20
7.12695
 11
-128.988
 21
7.312
  0
LINE
  8
0
 10
-128.988
 20
7.312
 11
-129
 21
7.5
  0
LINE
  8
0
 10
-129
 20
7.5
 11
-128.988
 21
7.68799
  0
LINE
  8
0
 10
-128.988
 20
7.68799
 11
-128.953
 21
7.87303
  0
LINE
  8
0
 10
-128.953
 20
7.87303
 11
-128.895
 21
8.05219
  0
LINE
  8
0
 10
-128.895
 20
8.05219
 11
-128.814
 21
8.22263
  0
LINE
  8
0
 10
-128.814
 20
8.22263
 11
-128.714
 21
8.38167
  0
LINE
  8
0
 10
-128.714
 20
8.38167
 11
-128.593
 21
8.52681
  0
LINE
  8
0
 10
-128.593
 20
8.52681
 11
-128.456
 21
8.65576
  0
LINE
  8
0
 10
-128.456
 20
8.65576
 11
-128.304
 21
8.76648
  0
LINE
  8
0
 10
-128.304
 20
8.76648
 11
-128.139
 21
8.85724
  0
LINE
  8
0
 10
-128.139
 20
8.85724
 11
-127.964
 21
8.92657
  0
LINE
  8
0
 10
-127.964
 20
8.92657
 11
-127.781
 21
8.97342
  0
LINE
  8
0
 10
-127.781
 20
8.97342
 11
-127.594
 21
8.99704
  0
LINE
  8
0
 10
-127.594
 20
8.99704
 11
-127.406
 21
8.99704
  0
LINE
  8
0
 10
-127.406
 20
8.99704
 11
-127.219
 21
8.97342
  0
LINE
  8
0
 10
-127.219
 20
8.97342
 11
-127.036
 21
8.92657
  0
LINE
  8
0
 10
-127.036
 20
8.92657
 11
-126.861
 21
8.85724
  0
LINE
  8
0
 10
-126.861
 20
8.85724
 11
-126.696
 21
8.76648
  0
LINE
  8
0
 10
-126.696
 20
8.76648
 11
-126.544
 21
8.65576
  0
LINE
  8
0
 10
-126.544
 20
8.65576
 11
-126.407
 21
8.52681
  0
LINE
  8
0
 10
-126.407
 20
8.52681
 11
-126.286
 21
8.38167
  0
LINE
  8
0
 10
-126.286
 20
8.38167
 11
-126.186
 21
8.22263
  0
LINE
  8
0
 10
-126.186
 20
8.22263
 11
-126.105
 21
8.05219
  0
LINE
  8
0
 10
-126.105
 20
8.05219
 11
-126.047
 21
7.87303
  0
LINE
  8
0
 10
-126.047
 20
7.87303
 11
-126.012
 21
7.68799
  0
LINE
  8
0
 10
-126.012
 20
7.68799
 11
-126
 21
7.5
  0
LINE
  8
0
 10
-126
 20
7.5
 11
-126.012
 21
7.312
  0
LINE
  8
0
 10
-126.012
 20
7.312
 11
-126.047
 21
7.12695
  0
LINE
  8
0
 10
-126.047
 20
7.12695
 11
-126.105
 21
6.9478
  0
LINE
  8
0
 10
-126.105
 20
6.9478
 11
-126.186
 21
6.77736
  0
LINE
  8
0
 10
-126.186
 20
6.77736
 11
-126.286
 21
6.61832
  0
LINE
  8
0
 10
-126.286
 20
6.61832
 11
-126.407
 21
6.47318
  0
LINE
  8
0
 10
-126.407
 20
6.47318
 11
-126.544
 21
6.34422
  0
LINE
  8
0
 10
-126.544
 20
6.34422
 11
-126.696
 21
6.23351
  0
LINE
  8
0
 10
-126.696
 20
6.23351
 11
-126.861
 21
6.14275
  0
LINE
  8
0
 10
-126.861
 20
6.14275
 11
-127.036
 21
6.07341
  0
LINE
  8
0
 10
-127.036
 20
6.07341
 11
-127.219
 21
6.02657
  0
LINE
  8
0
 10
-127.219
 20
6.02657
 11
-127.406
 21
6.00294
  0
LINE
  8
0
 10
-127.406
 20
6.00294
 11
-127.594
 21
6.00294
  0
LINE
  8
0
 10
-127.688
 20
-2.99408
 11
-128.062
 21
-2.94685
  0
LINE
  8
0
 10
-128.062
 20
-2.94685
 11
-128.427
 21
-2.85316
  0
LINE
  8
0
 10
-128.427
 20
-2.85316
 11
-128.777
 21
-2.71448
  0
LINE
  8
0
 10
-128.777
 20
-2.71448
 11
-129.107
 21
-2.53297
  0
LINE
  8
0
 10
-129.107
 20
-2.53297
 11
-129.412
 21
-2.31154
  0
LINE
  8
0
 10
-129.412
 20
-2.31154
 11
-129.687
 21
-2.05363
  0
LINE
  8
0
 10
-129.687
 20
-2.05363
 11
-129.927
 21
-1.76335
  0
LINE
  8
0
 10
-129.927
 20
-1.76335
 11
-130.129
 21
-1.44525
  0
LINE
  8
0
 10
-130.129
 20
-1.44525
 11
-130.289
 21
-1.10437
  0
LINE
  8
0
 10
-130.289
 20
-1.10437
 11
-130.406
 21
-0.746063
  0
LINE
  8
0
 10
-130.406
 20
-0.746063
 11
-130.476
 21
-0.375992
  0
LINE
  8
0
 10
-130.476
 20
-0.375992
 11
-130.5
 21
0
  0
LINE
  8
0
 10
-130.5
 20
0
 11
-130.476
 21
0.375992
  0
LINE
  8
0
 10
-130.476
 20
0.375992
 11
-130.406
 21
0.746063
  0
LINE
  8
0
 10
-130.406
 20
0.746063
 11
-130.289
 21
1.10437
  0
LINE
  8
0
 10
-130.289
 20
1.10437
 11
-130.129
 21
1.44525
  0
LINE
  8
0
 10
-130.129
 20
1.44525
 11
-129.927
 21
1.76335
  0
LINE
  8
0
 10
-129.927
 20
1.76335
 11
-129.687
 21
2.05363
  0
LINE
  8
0
 10
-129.687
 20
2.05363
 11
-129.412
 21
2.31154
  0
LINE
  8
0
 10
-129.412
 20
2.31154
 11
-129.107
 21
2.53297
  0
LINE
  8
0
 10
-129.107
 20
2.53297
 11
-128.777
 21
2.71448
  0
LINE
  8
0
 10
-128.777
 20
2.71448
 11
-128.427
 21
2.85316
  0
LINE
  8
0
 10
-128.427
 20
2.85316
 11
-128.062
 21
2.94685
  0
LINE
  8
0
 10
-128.062
 20
2.94685
 11
-127.688
 21
2.99408
  0
LINE
  8
0
 10
-127.688
 20
2.99408
 11
-127.312
 21
2.99408
  0
LINE
  8
0
 10
-127.312
 20
2.99408
 11
-126.938
 21
2.94685
  0
LINE
  8
0
 10
-126.938
 20
2.94685
 11
-126.573
 21
2.85316
  0
LINE
  8
0
 10
-126.573
 20
2.85316
 11
-126.223
 21
2.71448
  0
LINE
  8
0
 10
-126.223
 20
2.71448
 11
-125.893
 21
2.53297
  0
LINE
  8
0
 10
-125.893
 20
2.53297
 11
-125.588
 21
2.31154
  0
LINE
  8
0
 10
-125.588
 20
2.31154
 11
-125.313
 21
2.05363
  0
LINE
  8
0
 10
-125.313
 20
2.05363
 11
-125.073
 21
1.76335
  0
LINE
  8
0
 10
-125.073
 20
1.76335
 11
-124.871
 21
1.44525
  0
LINE
  8
0
 10
-124.871
 20
1.44525
 11
-124.711
 21
1.10437
  0
LINE
  8
0
 10
-124.711
 20
1.10437
 11
-124.594
 21
0.746063
  0
LINE
  8
0
 10
-124.594
 20
0.746063
 11
-124.524
 21
0.375992
  0
LINE
  8
0
 10
-124.524
 20
0.375992
 11
-124.5
 21
0
  0
LINE
  8
0
 10
-124.5
 20
0
 11
-124.524
 21
-0.375992
  0
LINE
  8
0
 10
-124.524
 20
-0.375992
 11
-124.594
 21
-0.746063
  0
LINE
  8
0
 10
-124.594
 20
-0.746063
 11
-124.711
 21
-1.10437
  0
LINE
  8
0
 10
-124.711
 20
-1.10437
 11
-124.871
 21
-1.44525
  0
LINE
  8
0
 10
-124.871
 20
-1.44525
 11
-125.073
 21
-1.76335
  0
LINE
  8
0
 10
-125.073
 20
-1.76335
 11
-125.313
 21
-2.05363
  0
LINE
  8
0
 10
-125.313
 20
-2.05363
 11
-125.588
 21
-2.31154
  0
LINE
  8
0
 10
-125.588
 20
-2.31154
 11
-125.893
 21
-2.53297
  0
LINE
  8
0
 10
-125.893
 20
-2.53297
 11
-126.223
 21
-2.71448
  0
LINE
  8
0
 10
-126.223
 20
-2.71448
 11
-126.573
 21
-2.85316
  0
LINE
  8
0
 10
-126.573
 20
-2.85316
 11
-126.938
 21
-2.94685
  0
LINE
  8
0
 10
-126.938
 20
-2.94685
 11
-127.312
 21
-2.99408
  0
LINE
  8
0
 10
-127.312
 20
-2.99408
 11
-127.688
 21
-2.99408
  0
LINE
  8
0
 10
-127.594
 20
-8.99704
 11
-127.781
 21
-8.97342
  0
LINE
  8
0
 10
-127.781
 20
-8.97342
 11
-127.964
 21
-8.92657
  0
LINE
  8
0
 10
-127.964
 20
-8.92657
 11
-128.139
 21
-8.85724
  0
LINE
  8
0
 10
-128.139
 20
-8.85724
 11
-128.304
 21
-8.76648
  0
LINE
  8
0
 10
-128.304
 20
-8.76648
 11
-128.456
 21
-8.65576
  0
LINE
  8
0
 10
-128.456
 20
-8.65576
 11
-128.593
 21
-8.52681
  0
LINE
  8
0
 10
-128.593
 20
-8.52681
 11
-128.714
 21
-8.38167
  0
LINE
  8
0
 10
-128.714
 20
-8.38167
 11
-128.814
 21
-8.22263
  0
LINE
  8
0
 10
-128.814
 20
-8.22263
 11
-128.895
 21
-8.05219
  0
LINE
  8
0
 10
-128.895
 20
-8.05219
 11
-128.953
 21
-7.87303
  0
LINE
  8
0
 10
-128.953
 20
-7.87303
 11
-128.988
 21
-7.68799
  0
LINE
  8
0
 10
-128.988
 20
-7.68799
 11
-129
 21
-7.5
  0
LINE
  8
0
 10
-129
 20
-7.5
 11
-128.988
 21
-7.312
  0
LINE
  8
0
 10
-128.988
 20
-7.312
 11
-128.953
 21
-7.12695
  0
LINE
  8
0
 10
-128.953
 20
-7.12695
 11
-128.895
 21
-6.9478
  0
LINE
  8
0
 10
-128.895
 20
-6.9478
 11
-128.814
 21
-6.77736
  0
LINE
  8
0
 10
-128.814
 20
-6.77736
 11
-128.714
 21
-6.61832
  0
LINE
  8
0
 10
-128.714
 20
-6.61832
 11
-128.593
 21
-6.47318
  0
LINE
  8
0
 10
-128.593
 20
-6.47318
 11
-128.456
 21
-6.34422
  0
LINE
  8
0
 10
-128.456
 20
-6.34422
 11
-128.304
 21
-6.23351
  0
LINE
  8
0
 10
-128.304
 20
-6.23351
 11
-128.139
 21
-6.14275
  0
LINE
  8
0
 10
-128.139
 20
-6.14275
 11
-127.964
 21
-6.07341
  0
LINE
  8
0
 10
-127.964
 20
-6.07341
 11
-127.781
 21
-6.02657
  0
LINE
  8
0
 10
-127.781
 20
-6.02657
 11
-127.594
 21
-6.00294
  0
LINE
  8
0
 10
-127.594
 20
-6.00294
 11
-127.406
 21
-6.00294
  0
LINE
  8
0
 10
-127.406
 20
-6.00294
 11
-127.219
 21
-6.02657
  0
LINE
  8
0
 10
-127.219
 20
-6.02657
 11
-127.036
 21
-6.07341
  0
LINE
  8
0
 10
-127.036
 20
-6.07341
 11
-126.861
 21
-6.14275
  0
LINE
  8
0
 10
-126.861
 20
-6.14275
 11
-126.696
 21
-6.23351
  0
LINE
  8
0
 10
-126.696
 20
-6.23351
 11
-126.544
 21
-6.34422
  0
LINE
  8
0
 10
-126.544
 20
-6.34422
 11
-126.407
 21
-6.47318
  0
LINE
  8
0
 10
-126.407
 20
-6.47318
 11
-126.286
 21
-6.61832
  0
LINE
  8
0
 10
-126.286
 20
-6.61832
 11
-126.186
 21
-6.77736
  0
LINE
  8
0
 10
-126.186
 20
-6.77736
 11
-126.105
 21
-6.9478
  0
LINE
  8
0
 10
-126.105
 20
-6.9478
 11
-126.047
 21
-7.12695
  0
LINE
  8
0
 10
-126.047
 20
-7.12695
 11
-126.012
 21
-7.312
  0
LINE
  8
0
 10
-126.012
 20
-7.312
 11
-126
 21
-7.5
  0
LINE
  8
0
 10
-126
 20
-7.5
 11
-126.012
 21
-7.68799
  0
LINE
  8
0
 10
-126.012
 20
-7.68799
 11
-126.047
 21
-7.87303
  0
LINE
  8
0
 10
-126.047
 20
-7.87303
 11
-126.105
 21
-8.05219
  0
LINE
  8
0
 10
-126.105
 20
-8.05219
 11
-126.186
 21
-8.22263
  0
LINE
  8
0
 10
-126.186
 20
-8.22263
 11
-126.286
 21
-8.38167
  0
LINE
  8
0
 10
-126.286
 20
-8.38167
 11
-126.407
 21
-8.52681
  0
LINE
  8
0
 10
-126.407
 20
-8.52681
 11
-126.544
 21
-8.65576
  0
LINE
  8
0
 10
-126.544
 20
-8.65576
 11
-126.696
 21
-8.76648
  0
LINE
  8
0
 10
-126.696
 20
-8.76648
 11
-126.861
 21
-8.85724
  0
LINE
  8
0
 10
-126.861
 20
-8.85724
 11
-127.036
 21
-8.92657
  0
LINE
  8
0
 10
-127.036
 20
-8.92657
 11
-127.219
 21
-8.97342
  0
LINE
  8
0
 10
-127.219
 20
-8.97342
 11
-127.406
 21
-8.99704
  0
LINE
  8
0
 10
-127.406
 20
-8.99704
 11
-127.594
 21
-8.99704
  0
LINE
  8
0
 10
-127.688
 20
-17.9941
 11
-128.062
 21
-17.9469
  0
LINE
  8
0
 10
-128.062
 20
-17.9469
 11
-128.427
 21
-17.8532
  0
LINE
  8
0
 10
-128.427
 20
-17.8532
 11
-128.777
 21
-17.7145
  0
LINE
  8
0
 10
-128.777
 20
-17.7145
 11
-129.107
 21
-17.533
  0
LINE
  8
0
 10
-129.107
 20
-17.533
 11
-129.412
 21
-17.3115
  0
LINE
  8
0
 10
-129.412
 20
-17.3115
 11
-129.687
 21
-17.0536
  0
LINE
  8
0
 10
-129.687
 20
-17.0536
 11
-129.927
 21
-16.7634
  0
LINE
  8
0
 10
-129.927
 20
-16.7634
 11
-130.129
 21
-16.4453
  0
LINE
  8
0
 10
-130.129
 20
-16.4453
 11
-130.289
 21
-16.1044
  0
LINE
  8
0
 10
-130.289
 20
-16.1044
 11
-130.406
 21
-15.7461
  0
LINE
  8
0
 10
-130.406
 20
-15.7461
 11
-130.476
 21
-15.376
  0
LINE
  8
0
 10
-130.476
 20
-15.376
 11
-130.5
 21
-15
  0
LINE
  8
0
 10
-130.5
 20
-15
 11
-130.476
 21
-14.624
  0
LINE
  8
0
 10
-130.476
 20
-14.624
 11
-130.406
 21
-14.2539
  0
LINE
  8
0
 10
-130.406
 20
-14.2539
 11
-130.289
 21
-13.8956
  0
LINE
  8
0
 10
-130.289
 20
-13.8956
 11
-130.129
 21
-13.5547
  0
LINE
  8
0
 10
-130.129
 20
-13.5547
 11
-129.927
 21
-13.2366
  0
LINE
  8
0
 10
-129.927
 20
-13.2366
 11
-129.687
 21
-12.9464
  0
LINE
  8
0
 10
-129.687
 20
-12.9464
 11
-129.412
 21
-12.6884
  0
LINE
  8
0
 10
-129.412
 20
-12.6884
 11
-129.107
 21
-12.467
  0
LINE
  8
0
 10
-129.107
 20
-12.467
 11
-128.777
 21
-12.2855
  0
LINE
  8
0
 10
-128.777
 20
-12.2855
 11
-128.427
 21
-12.1468
  0
LINE
  8
0
 10
-128.427
 20
-12.1468
 11
-128.062
 21
-12.0531
  0
LINE
  8
0
 10
-128.062
 20
-12.0531
 11
-127.688
 21
-12.0059
  0
LINE
  8
0
 10
-127.688
 20
-12.0059
 11
-127.312
 21
-12.0059
  0
LINE
  8
0
 10
-127.312
 20
-12.0059
 11
-126.938
 21
-12.0531
  0
LINE
  8
0
 10
-126.938
 20
-12.0531
 11
-126.573
 21
-12.1468
  0
LINE
  8
0
 10
-126.573
 20
-12.1468
 11
-126.223
 21
-12.2855
  0
LINE
  8
0
 10
-126.223
 20
-12.2855
 11
-125.893
 21
-12.467
  0
LINE
  8
0
 10
-125.893
 20
-12.467
 11
-125.588
 21
-12.6884
  0
LINE
  8
0
 10
-125.588
 20
-12.6884
 11
-125.313
 21
-12.9464
  0
LINE
  8
0
 10
-125.313
 20
-12.9464
 11
-125.073
 21
-13.2366
  0
LINE
  8
0
 10
-125.073
 20
-13.2366
 11
-124.871
 21
-13.5547
  0
LINE
  8
0
 10
-124.871
 20
-13.5547
 11
-124.711
 21
-13.8956
  0
LINE
  8
0
 10
-124.711
 20
-13.8956
 11
-124.594
 21
-14.2539
  0
LINE
  8
0
 10
-124.594
 20
-14.2539
 11
-124.524
 21
-14.624
  0
LINE
  8
0
 10
-124.524
 20
-14.624
 11
-124.5
 21
-15
  0
LINE
  8
0
 10
-124.5
 20
-15
 11
-124.524
 21
-15.376
  0
LINE
  8
0
 10
-124.524
 20
-15.376
 11
-124.594
 21
-15.7461
  0
LINE
  8
0
 10
-124.594
 20
-15.7461
 11
-124.711
 21
-16.1044
  0
LINE
  8
0
 10
-124.711
 20
-16.1044
 11
-124.871
 21
-16.4453
  0
LINE
  8
0
 10
-124.871
 20
-16.4453
 11
-125.073
 21
-16.7634
  0
LINE
  8
0
 10
-125.073
 20
-16.7634
 11
-125.313
 21
-17.0536
  0
LINE
  8
0
 10
-125.313
 20
-17.0536
 11
-125.588
 21
-17.3115
  0
LINE
  8
0
 10
-125.588
 20
-17.3115
 11
-125.893
 21
-17.533
  0
LINE
  8
0
 10
-125.893
 20
-17.533
 11
-126.223
 21
-17.7145
  0
LINE
  8
0
 10
-126.223
 20
-17.7145
 11
-126.573
 21
-17.8532
  0
LINE
  8
0
 10
-126.573
 20
-17.8532
 11
-126.938
 21
-17.9469
  0
LINE
  8
0
 10
-126.938
 20
-17.9469
 11
-127.312
 21
-17.9941
  0
LINE
  8
0
 10
-127.312
 20
-17.9941
 11
-127.688
 21
-17.9941
  0
ENDSEC
  0
SECTION
  2
OBJECTS
  0
DICTIONARY
  0
ENDSEC
  0
EOF
