  0
SECTION
  2
BLOCKS
  0
ENDSEC
  0
SECTION
  2
ENTITIES
  0
LINE
  8
0
 10
55.4369
 20
-6.91142
 11
56.0451
 21
-6.75528
  0
LINE
  8
0
 10
56.0451
 20
-6.75528
 11
56.6289
 21
-6.52412
  0
LINE
  8
0
 10
56.6289
 20
-6.52412
 11
57.1791
 21
-6.22163
  0
LINE
  8
0
 10
57.1791
 20
-6.22163
 11
57.6871
 21
-5.85255
  0
LINE
  8
0
 10
57.6871
 20
-5.85255
 11
58.1448
 21
-5.42273
  0
LINE
  8
0
 10
58.1448
 20
-5.42273
 11
58.5451
 21
-4.93892
  0
LINE
  8
0
 10
58.5451
 20
-4.93892
 11
58.8815
 21
-4.40877
  0
LINE
  8
0
 10
58.8815
 20
-4.40877
 11
59.1489
 21
-3.84062
  0
LINE
  8
0
 10
59.1489
 20
-3.84062
 11
59.3429
 21
-3.24344
  0
LINE
  8
0
 10
59.3429
 20
-3.24344
 11
59.4606
 21
-2.62666
  0
LINE
  8
0
 10
59.4606
 20
-2.62666
 11
59.5
 21
-2
  0
LINE
  8
0
 10
59.5
 20
-2
 11
59.5
 21
2
  0
LINE
  8
0
 10
59.5
 20
2
 11
59.4606
 21
2.62666
  0
LINE
  8
0
 10
59.4606
 20
2.62666
 11
59.3429
 21
3.24344
  0
LINE
  8
0
 10
59.3429
 20
3.24344
 11
59.1489
 21
3.84062
  0
LINE
  8
0
 10
59.1489
 20
3.84062
 11
58.8815
 21
4.40877
  0
LINE
  8
0
 10
58.8815
 20
4.40877
 11
58.5451
 21
4.93892
  0
LINE
  8
0
 10
58.5451
 20
4.93892
 11
58.1448
 21
5.42273
  0
LINE
  8
0
 10
58.1448
 20
5.42273
 11
57.6871
 21
5.85255
  0
LINE
  8
0
 10
57.6871
 20
5.85255
 11
57.1791
 21
6.22163
  0
LINE
  8
0
 10
57.1791
 20
6.22163
 11
56.6289
 21
6.52412
  0
LINE
  8
0
 10
56.6289
 20
6.52412
 11
56.0451
 21
6.75528
  0
LINE
  8
0
 10
56.0451
 20
6.75528
 11
55.4369
 21
6.91142
  0
LINE
  8
0
 10
55.4369
 20
6.91142
 11
54.8139
 21
6.99013
  0
LINE
  8
0
 10
54.8139
 20
6.99013
 11
-54.8139
 21
6.99013
  0
LINE
  8
0
 10
-54.8139
 20
6.99013
 11
-55.4369
 21
6.91142
  0
LINE
  8
0
 10
-55.4369
 20
6.91142
 11
-56.0451
 21
6.75528
  0
LINE
  8
0
 10
-56.0451
 20
6.75528
 11
-56.6289
 21
6.52412
  0
LINE
  8
0
 10
-56.6289
 20
6.52412
 11
-57.1791
 21
6.22163
  0
LINE
  8
0
 10
-57.1791
 20
6.22163
 11
-57.6871
 21
5.85255
  0
LINE
  8
0
 10
-57.6871
 20
5.85255
 11
-58.1448
 21
5.42273
  0
LINE
  8
0
 10
-58.1448
 20
5.42273
 11
-58.5451
 21
4.93892
  0
LINE
  8
0
 10
-58.5451
 20
4.93892
 11
-58.8815
 21
4.40877
  0
LINE
  8
0
 10
-58.8815
 20
4.40877
 11
-59.1489
 21
3.84062
  0
LINE
  8
0
 10
-59.1489
 20
3.84062
 11
-59.3429
 21
3.24344
  0
LINE
  8
0
 10
-59.3429
 20
3.24344
 11
-59.4606
 21
2.62666
  0
LINE
  8
0
 10
-59.4606
 20
2.62666
 11
-59.5
 21
2
  0
LINE
  8
0
 10
-59.5
 20
2
 11
-59.5
 21
-2
  0
LINE
  8
0
 10
-59.5
 20
-2
 11
-59.4606
 21
-2.62666
  0
LINE
  8
0
 10
-59.4606
 20
-2.62666
 11
-59.3429
 21
-3.24344
  0
LINE
  8
0
 10
-59.3429
 20
-3.24344
 11
-59.1489
 21
-3.84062
  0
LINE
  8
0
 10
-59.1489
 20
-3.84062
 11
-58.8815
 21
-4.40877
  0
LINE
  8
0
 10
-58.8815
 20
-4.40877
 11
-58.5451
 21
-4.93892
  0
LINE
  8
0
 10
-58.5451
 20
-4.93892
 11
-58.1448
 21
-5.42273
  0
LINE
  8
0
 10
-58.1448
 20
-5.42273
 11
-57.6871
 21
-5.85255
  0
LINE
  8
0
 10
-57.6871
 20
-5.85255
 11
-57.1791
 21
-6.22163
  0
LINE
  8
0
 10
-57.1791
 20
-6.22163
 11
-56.6289
 21
-6.52412
  0
LINE
  8
0
 10
-56.6289
 20
-6.52412
 11
-56.0451
 21
-6.75528
  0
LINE
  8
0
 10
-56.0451
 20
-6.75528
 11
-55.4369
 21
-6.91142
  0
LINE
  8
0
 10
-55.4369
 20
-6.91142
 11
-54.8139
 21
-6.99013
  0
LINE
  8
0
 10
-54.8139
 20
-6.99013
 11
54.8139
 21
-6.99013
  0
LINE
  8
0
 10
54.8139
 20
-6.99013
 11
55.4369
 21
-6.91142
  0
LINE
  8
0
 10
-52.6884
 20
-2.99408
 11
-53.0621
 21
-2.94685
  0
LINE
  8
0
 10
-53.0621
 20
-2.94685
 11
-53.427
 21
-2.85316
  0
LINE
  8
0
 10
-53.427
 20
-2.85316
 11
-53.7773
 21
-2.71448
  0
LINE
  8
0
 10
-53.7773
 20
-2.71448
 11
-54.1075
 21
-2.53297
  0
LINE
  8
0
 10
-54.1075
 20
-2.53297
 11
-54.4123
 21
-2.31154
  0
LINE
  8
0
 10
-54.4123
 20
-2.31154
 11
-54.6869
 21
-2.05363
  0
LINE
  8
0
 10
-54.6869
 20
-2.05363
 11
-54.927
 21
-1.76335
  0
LINE
  8
0
 10
-54.927
 20
-1.76335
 11
-55.1289
 21
-1.44525
  0
LINE
  8
0
 10
-55.1289
 20
-1.44525
 11
-55.2893
 21
-1.10437
  0
LINE
  8
0
 10
-55.2893
 20
-1.10437
 11
-55.4057
 21
-0.746063
  0
LINE
  8
0
 10
-55.4057
 20
-0.746063
 11
-55.4763
 21
-0.375992
  0
LINE
  8
0
 10
-55.4763
 20
-0.375992
 11
-55.5
 21
0
  0
LINE
  8
0
 10
-55.5
 20
0
 11
-55.4763
 21
0.375992
  0
LINE
  8
0
 10
-55.4763
 20
0.375992
 11
-55.4057
 21
0.746063
  0
LINE
  8
0
 10
-55.4057
 20
0.746063
 11
-55.2893
 21
1.10437
  0
LINE
  8
0
 10
-55.2893
 20
1.10437
 11
-55.1289
 21
1.44525
  0
LINE
  8
0
 10
-55.1289
 20
1.44525
 11
-54.927
 21
1.76335
  0
LINE
  8
0
 10
-54.927
 20
1.76335
 11
-54.6869
 21
2.05363
  0
LINE
  8
0
 10
-54.6869
 20
2.05363
 11
-54.4123
 21
2.31154
  0
LINE
  8
0
 10
-54.4123
 20
2.31154
 11
-54.1075
 21
2.53297
  0
LINE
  8
0
 10
-54.1075
 20
2.53297
 11
-53.7773
 21
2.71448
  0
LINE
  8
0
 10
-53.7773
 20
2.71448
 11
-53.427
 21
2.85316
  0
LINE
  8
0
 10
-53.427
 20
2.85316
 11
-53.0621
 21
2.94685
  0
LINE
  8
0
 10
-53.0621
 20
2.94685
 11
-52.6884
 21
2.99408
  0
LINE
  8
0
 10
-52.6884
 20
2.99408
 11
-52.3116
 21
2.99408
  0
LINE
  8
0
 10
-52.3116
 20
2.99408
 11
-51.9379
 21
2.94685
  0
LINE
  8
0
 10
-51.9379
 20
2.94685
 11
-51.5729
 21
2.85316
  0
LINE
  8
0
 10
-51.5729
 20
2.85316
 11
-51.2227
 21
2.71448
  0
LINE
  8
0
 10
-51.2227
 20
2.71448
 11
-50.8925
 21
2.53297
  0
LINE
  8
0
 10
-50.8925
 20
2.53297
 11
-50.5877
 21
2.31154
  0
LINE
  8
0
 10
-50.5877
 20
2.31154
 11
-50.3131
 21
2.05363
  0
LINE
  8
0
 10
-50.3131
 20
2.05363
 11
-50.0729
 21
1.76335
  0
LINE
  8
0
 10
-50.0729
 20
1.76335
 11
-49.8711
 21
1.44525
  0
LINE
  8
0
 10
-49.8711
 20
1.44525
 11
-49.7107
 21
1.10437
  0
LINE
  8
0
 10
-49.7107
 20
1.10437
 11
-49.5942
 21
0.746063
  0
LINE
  8
0
 10
-49.5942
 20
0.746063
 11
-49.5237
 21
0.375992
  0
LINE
  8
0
 10
-49.5237
 20
0.375992
 11
-49.5
 21
0
  0
LINE
  8
0
 10
-49.5
 20
0
 11
-49.5237
 21
-0.375992
  0
LINE
  8
0
 10
-49.5237
 20
-0.375992
 11
-49.5942
 21
-0.746063
  0
LINE
  8
0
 10
-49.5942
 20
-0.746063
 11
-49.7107
 21
-1.10437
  0
LINE
  8
0
 10
-49.7107
 20
-1.10437
 11
-49.8711
 21
-1.44525
  0
LINE
  8
0
 10
-49.8711
 20
-1.44525
 11
-50.0729
 21
-1.76335
  0
LINE
  8
0
 10
-50.0729
 20
-1.76335
 11
-50.3131
 21
-2.05363
  0
LINE
  8
0
 10
-50.3131
 20
-2.05363
 11
-50.5877
 21
-2.31154
  0
LINE
  8
0
 10
-50.5877
 20
-2.31154
 11
-50.8925
 21
-2.53297
  0
LINE
  8
0
 10
-50.8925
 20
-2.53297
 11
-51.2227
 21
-2.71448
  0
LINE
  8
0
 10
-51.2227
 20
-2.71448
 11
-51.5729
 21
-2.85316
  0
LINE
  8
0
 10
-51.5729
 20
-2.85316
 11
-51.9379
 21
-2.94685
  0
LINE
  8
0
 10
-51.9379
 20
-2.94685
 11
-52.3116
 21
-2.99408
  0
LINE
  8
0
 10
-52.3116
 20
-2.99408
 11
-52.6884
 21
-2.99408
  0
ENDSEC
  0
SECTION
  2
OBJECTS
  0
DICTIONARY
  0
ENDSEC
  0
EOF
