<?xml version="1.0" standalone="no"?>
<!DOCTYPE svg PUBLIC "-//W3C//DTD SVG 1.1//EN" "http://www.w3.org/Graphics/SVG/1.1/DTD/svg11.dtd">
<svg width="194mm" height="14mm" viewBox="-97 -31 194 14" xmlns="http://www.w3.org/2000/svg" version="1.1">
<title>OpenSCAD Model</title>
<path d="
M 92.9369,-17.0886 L 93.5451,-17.2447 L 94.1289,-17.4759 L 94.6791,-17.7784 L 95.1871,-18.1474 L 95.6448,-18.5773
 L 96.0451,-19.0611 L 96.3815,-19.5912 L 96.6489,-20.1594 L 96.8429,-20.7566 L 96.9606,-21.3733 L 97,-22
 L 97,-26 L 96.9606,-26.6267 L 96.8429,-27.2434 L 96.6489,-27.8406 L 96.3815,-28.4088 L 96.0451,-28.9389
 L 95.6448,-29.4227 L 95.1871,-29.8526 L 94.6791,-30.2216 L 94.1289,-30.5241 L 93.5451,-30.7553 L 92.9369,-30.9114
 L 92.3139,-30.9901 L -92.3139,-30.9901 L -92.9369,-30.9114 L -93.5451,-30.7553 L -94.1289,-30.5241 L -94.6791,-30.2216
 L -95.1871,-29.8526 L -95.6448,-29.4227 L -96.0451,-28.9389 L -96.3815,-28.4088 L -96.6489,-27.8406 L -96.8429,-27.2434
 L -96.9606,-26.6267 L -97,-26 L -97,-22 L -96.9606,-21.3733 L -96.8429,-20.7566 L -96.6489,-20.1594
 L -96.3815,-19.5912 L -96.0451,-19.0611 L -95.6448,-18.5773 L -95.1871,-18.1474 L -94.6791,-17.7784 L -94.1289,-17.4759
 L -93.5451,-17.2447 L -92.9369,-17.0886 L -92.3139,-17.0099 L 92.3139,-17.0099 z
M 74.8116,-21.0059 L 74.4379,-21.0531 L 74.073,-21.1468 L 73.7227,-21.2855 L 73.3925,-21.467 L 73.0877,-21.6885
 L 72.8131,-21.9464 L 72.573,-22.2366 L 72.3711,-22.5547 L 72.2107,-22.8956 L 72.0943,-23.2539 L 72.0237,-23.624
 L 72,-24 L 72.0237,-24.376 L 72.0943,-24.7461 L 72.2107,-25.1044 L 72.3711,-25.4453 L 72.573,-25.7634
 L 72.8131,-26.0536 L 73.0877,-26.3115 L 73.3925,-26.533 L 73.7227,-26.7145 L 74.073,-26.8532 L 74.4379,-26.9469
 L 74.8116,-26.9941 L 75.1884,-26.9941 L 75.5621,-26.9469 L 75.927,-26.8532 L 76.2773,-26.7145 L 76.6075,-26.533
 L 76.9123,-26.3115 L 77.1869,-26.0536 L 77.427,-25.7634 L 77.6289,-25.4453 L 77.7893,-25.1044 L 77.9057,-24.7461
 L 77.9763,-24.376 L 78,-24 L 77.9763,-23.624 L 77.9057,-23.2539 L 77.7893,-22.8956 L 77.6289,-22.5547
 L 77.427,-22.2366 L 77.1869,-21.9464 L 76.9123,-21.6885 L 76.6075,-21.467 L 76.2773,-21.2855 L 75.927,-21.1468
 L 75.5621,-21.0531 L 75.1884,-21.0059 z
M -90.1884,-21.0059 L -90.5621,-21.0531 L -90.927,-21.1468 L -91.2773,-21.2855 L -91.6075,-21.467 L -91.9123,-21.6885
 L -92.1869,-21.9464 L -92.427,-22.2366 L -92.6289,-22.5547 L -92.7893,-22.8956 L -92.9057,-23.2539 L -92.9763,-23.624
 L -93,-24 L -92.9763,-24.376 L -92.9057,-24.7461 L -92.7893,-25.1044 L -92.6289,-25.4453 L -92.427,-25.7634
 L -92.1869,-26.0536 L -91.9123,-26.3115 L -91.6075,-26.533 L -91.2773,-26.7145 L -90.927,-26.8532 L -90.5621,-26.9469
 L -90.1884,-26.9941 L -89.8116,-26.9941 L -89.4379,-26.9469 L -89.073,-26.8532 L -88.7227,-26.7145 L -88.3925,-26.533
 L -88.0877,-26.3115 L -87.8131,-26.0536 L -87.573,-25.7634 L -87.3711,-25.4453 L -87.2107,-25.1044 L -87.0943,-24.7461
 L -87.0237,-24.376 L -87,-24 L -87.0237,-23.624 L -87.0943,-23.2539 L -87.2107,-22.8956 L -87.3711,-22.5547
 L -87.573,-22.2366 L -87.8131,-21.9464 L -88.0877,-21.6885 L -88.3925,-21.467 L -88.7227,-21.2855 L -89.073,-21.1468
 L -89.4379,-21.0531 L -89.8116,-21.0059 z
M 59.8116,-21.0059 L 59.4379,-21.0531 L 59.0729,-21.1468 L 58.7227,-21.2855 L 58.3925,-21.467 L 58.0877,-21.6885
 L 57.8131,-21.9464 L 57.5729,-22.2366 L 57.3711,-22.5547 L 57.2107,-22.8956 L 57.0942,-23.2539 L 57.0237,-23.624
 L 57,-24 L 57.0237,-24.376 L 57.0942,-24.7461 L 57.2107,-25.1044 L 57.3711,-25.4453 L 57.5729,-25.7634
 L 57.8131,-26.0536 L 58.0877,-26.3115 L 58.3925,-26.533 L 58.7227,-26.7145 L 59.0729,-26.8532 L 59.4379,-26.9469
 L 59.8116,-26.9941 L 60.1884,-26.9941 L 60.5621,-26.9469 L 60.927,-26.8532 L 61.2773,-26.7145 L 61.6075,-26.533
 L 61.9123,-26.3115 L 62.1869,-26.0536 L 62.427,-25.7634 L 62.6289,-25.4453 L 62.7893,-25.1044 L 62.9057,-24.7461
 L 62.9763,-24.376 L 63,-24 L 62.9763,-23.624 L 62.9057,-23.2539 L 62.7893,-22.8956 L 62.6289,-22.5547
 L 62.427,-22.2366 L 62.1869,-21.9464 L 61.9123,-21.6885 L 61.6075,-21.467 L 61.2773,-21.2855 L 60.927,-21.1468
 L 60.5621,-21.0531 L 60.1884,-21.0059 z
M -60.1884,-21.0059 L -60.5621,-21.0531 L -60.927,-21.1468 L -61.2773,-21.2855 L -61.6075,-21.467 L -61.9123,-21.6885
 L -62.1869,-21.9464 L -62.427,-22.2366 L -62.6289,-22.5547 L -62.7893,-22.8956 L -62.9057,-23.2539 L -62.9763,-23.624
 L -63,-24 L -62.9763,-24.376 L -62.9057,-24.7461 L -62.7893,-25.1044 L -62.6289,-25.4453 L -62.427,-25.7634
 L -62.1869,-26.0536 L -61.9123,-26.3115 L -61.6075,-26.533 L -61.2773,-26.7145 L -60.927,-26.8532 L -60.5621,-26.9469
 L -60.1884,-26.9941 L -59.8116,-26.9941 L -59.4379,-26.9469 L -59.0729,-26.8532 L -58.7227,-26.7145 L -58.3925,-26.533
 L -58.0877,-26.3115 L -57.8131,-26.0536 L -57.5729,-25.7634 L -57.3711,-25.4453 L -57.2107,-25.1044 L -57.0942,-24.7461
 L -57.0237,-24.376 L -57,-24 L -57.0237,-23.624 L -57.0942,-23.2539 L -57.2107,-22.8956 L -57.3711,-22.5547
 L -57.5729,-22.2366 L -57.8131,-21.9464 L -58.0877,-21.6885 L -58.3925,-21.467 L -58.7227,-21.2855 L -59.0729,-21.1468
 L -59.4379,-21.0531 L -59.8116,-21.0059 z
M -45.1884,-21.0059 L -45.5621,-21.0531 L -45.927,-21.1468 L -46.2773,-21.2855 L -46.6075,-21.467 L -46.9123,-21.6885
 L -47.1869,-21.9464 L -47.427,-22.2366 L -47.6289,-22.5547 L -47.7893,-22.8956 L -47.9057,-23.2539 L -47.9763,-23.624
 L -48,-24 L -47.9763,-24.376 L -47.9057,-24.7461 L -47.7893,-25.1044 L -47.6289,-25.4453 L -47.427,-25.7634
 L -47.1869,-26.0536 L -46.9123,-26.3115 L -46.6075,-26.533 L -46.2773,-26.7145 L -45.927,-26.8532 L -45.5621,-26.9469
 L -45.1884,-26.9941 L -44.8116,-26.9941 L -44.4379,-26.9469 L -44.0729,-26.8532 L -43.7227,-26.7145 L -43.3925,-26.533
 L -43.0877,-26.3115 L -42.8131,-26.0536 L -42.5729,-25.7634 L -42.3711,-25.4453 L -42.2107,-25.1044 L -42.0942,-24.7461
 L -42.0237,-24.376 L -42,-24 L -42.0237,-23.624 L -42.0942,-23.2539 L -42.2107,-22.8956 L -42.3711,-22.5547
 L -42.5729,-22.2366 L -42.8131,-21.9464 L -43.0877,-21.6885 L -43.3925,-21.467 L -43.7227,-21.2855 L -44.0729,-21.1468
 L -44.4379,-21.0531 L -44.8116,-21.0059 z
M 44.8116,-21.0059 L 44.4379,-21.0531 L 44.0729,-21.1468 L 43.7227,-21.2855 L 43.3925,-21.467 L 43.0877,-21.6885
 L 42.8131,-21.9464 L 42.5729,-22.2366 L 42.3711,-22.5547 L 42.2107,-22.8956 L 42.0942,-23.2539 L 42.0237,-23.624
 L 42,-24 L 42.0237,-24.376 L 42.0942,-24.7461 L 42.2107,-25.1044 L 42.3711,-25.4453 L 42.5729,-25.7634
 L 42.8131,-26.0536 L 43.0877,-26.3115 L 43.3925,-26.533 L 43.7227,-26.7145 L 44.0729,-26.8532 L 44.4379,-26.9469
 L 44.8116,-26.9941 L 45.1884,-26.9941 L 45.5621,-26.9469 L 45.927,-26.8532 L 46.2773,-26.7145 L 46.6075,-26.533
 L 46.9123,-26.3115 L 47.1869,-26.0536 L 47.427,-25.7634 L 47.6289,-25.4453 L 47.7893,-25.1044 L 47.9057,-24.7461
 L 47.9763,-24.376 L 48,-24 L 47.9763,-23.624 L 47.9057,-23.2539 L 47.7893,-22.8956 L 47.6289,-22.5547
 L 47.427,-22.2366 L 47.1869,-21.9464 L 46.9123,-21.6885 L 46.6075,-21.467 L 46.2773,-21.2855 L 45.927,-21.1468
 L 45.5621,-21.0531 L 45.1884,-21.0059 z
M 89.8116,-21.0059 L 89.4379,-21.0531 L 89.073,-21.1468 L 88.7227,-21.2855 L 88.3925,-21.467 L 88.0877,-21.6885
 L 87.8131,-21.9464 L 87.573,-22.2366 L 87.3711,-22.5547 L 87.2107,-22.8956 L 87.0943,-23.2539 L 87.0237,-23.624
 L 87,-24 L 87.0237,-24.376 L 87.0943,-24.7461 L 87.2107,-25.1044 L 87.3711,-25.4453 L 87.573,-25.7634
 L 87.8131,-26.0536 L 88.0877,-26.3115 L 88.3925,-26.533 L 88.7227,-26.7145 L 89.073,-26.8532 L 89.4379,-26.9469
 L 89.8116,-26.9941 L 90.1884,-26.9941 L 90.5621,-26.9469 L 90.927,-26.8532 L 91.2773,-26.7145 L 91.6075,-26.533
 L 91.9123,-26.3115 L 92.1869,-26.0536 L 92.427,-25.7634 L 92.6289,-25.4453 L 92.7893,-25.1044 L 92.9057,-24.7461
 L 92.9763,-24.376 L 93,-24 L 92.9763,-23.624 L 92.9057,-23.2539 L 92.7893,-22.8956 L 92.6289,-22.5547
 L 92.427,-22.2366 L 92.1869,-21.9464 L 91.9123,-21.6885 L 91.6075,-21.467 L 91.2773,-21.2855 L 90.927,-21.1468
 L 90.5621,-21.0531 L 90.1884,-21.0059 z
M 14.8116,-21.0059 L 14.4379,-21.0531 L 14.0729,-21.1468 L 13.7227,-21.2855 L 13.3925,-21.467 L 13.0877,-21.6885
 L 12.8131,-21.9464 L 12.5729,-22.2366 L 12.3711,-22.5547 L 12.2107,-22.8956 L 12.0942,-23.2539 L 12.0237,-23.624
 L 12,-24 L 12.0237,-24.376 L 12.0942,-24.7461 L 12.2107,-25.1044 L 12.3711,-25.4453 L 12.5729,-25.7634
 L 12.8131,-26.0536 L 13.0877,-26.3115 L 13.3925,-26.533 L 13.7227,-26.7145 L 14.0729,-26.8532 L 14.4379,-26.9469
 L 14.8116,-26.9941 L 15.1884,-26.9941 L 15.5621,-26.9469 L 15.927,-26.8532 L 16.2773,-26.7145 L 16.6075,-26.533
 L 16.9123,-26.3115 L 17.1869,-26.0536 L 17.427,-25.7634 L 17.6289,-25.4453 L 17.7893,-25.1044 L 17.9057,-24.7461
 L 17.9763,-24.376 L 18,-24 L 17.9763,-23.624 L 17.9057,-23.2539 L 17.7893,-22.8956 L 17.6289,-22.5547
 L 17.427,-22.2366 L 17.1869,-21.9464 L 16.9123,-21.6885 L 16.6075,-21.467 L 16.2773,-21.2855 L 15.927,-21.1468
 L 15.5621,-21.0531 L 15.1884,-21.0059 z
M -75.1884,-21.0059 L -75.5621,-21.0531 L -75.927,-21.1468 L -76.2773,-21.2855 L -76.6075,-21.467 L -76.9123,-21.6885
 L -77.1869,-21.9464 L -77.427,-22.2366 L -77.6289,-22.5547 L -77.7893,-22.8956 L -77.9057,-23.2539 L -77.9763,-23.624
 L -78,-24 L -77.9763,-24.376 L -77.9057,-24.7461 L -77.7893,-25.1044 L -77.6289,-25.4453 L -77.427,-25.7634
 L -77.1869,-26.0536 L -76.9123,-26.3115 L -76.6075,-26.533 L -76.2773,-26.7145 L -75.927,-26.8532 L -75.5621,-26.9469
 L -75.1884,-26.9941 L -74.8116,-26.9941 L -74.4379,-26.9469 L -74.073,-26.8532 L -73.7227,-26.7145 L -73.3925,-26.533
 L -73.0877,-26.3115 L -72.8131,-26.0536 L -72.573,-25.7634 L -72.3711,-25.4453 L -72.2107,-25.1044 L -72.0943,-24.7461
 L -72.0237,-24.376 L -72,-24 L -72.0237,-23.624 L -72.0943,-23.2539 L -72.2107,-22.8956 L -72.3711,-22.5547
 L -72.573,-22.2366 L -72.8131,-21.9464 L -73.0877,-21.6885 L -73.3925,-21.467 L -73.7227,-21.2855 L -74.073,-21.1468
 L -74.4379,-21.0531 L -74.8116,-21.0059 z
M -15.1884,-21.0059 L -15.5621,-21.0531 L -15.927,-21.1468 L -16.2773,-21.2855 L -16.6075,-21.467 L -16.9123,-21.6885
 L -17.1869,-21.9464 L -17.427,-22.2366 L -17.6289,-22.5547 L -17.7893,-22.8956 L -17.9057,-23.2539 L -17.9763,-23.624
 L -18,-24 L -17.9763,-24.376 L -17.9057,-24.7461 L -17.7893,-25.1044 L -17.6289,-25.4453 L -17.427,-25.7634
 L -17.1869,-26.0536 L -16.9123,-26.3115 L -16.6075,-26.533 L -16.2773,-26.7145 L -15.927,-26.8532 L -15.5621,-26.9469
 L -15.1884,-26.9941 L -14.8116,-26.9941 L -14.4379,-26.9469 L -14.0729,-26.8532 L -13.7227,-26.7145 L -13.3925,-26.533
 L -13.0877,-26.3115 L -12.8131,-26.0536 L -12.5729,-25.7634 L -12.3711,-25.4453 L -12.2107,-25.1044 L -12.0942,-24.7461
 L -12.0237,-24.376 L -12,-24 L -12.0237,-23.624 L -12.0942,-23.2539 L -12.2107,-22.8956 L -12.3711,-22.5547
 L -12.5729,-22.2366 L -12.8131,-21.9464 L -13.0877,-21.6885 L -13.3925,-21.467 L -13.7227,-21.2855 L -14.0729,-21.1468
 L -14.4379,-21.0531 L -14.8116,-21.0059 z
M -30.1884,-21.0059 L -30.5621,-21.0531 L -30.927,-21.1468 L -31.2773,-21.2855 L -31.6075,-21.467 L -31.9123,-21.6885
 L -32.1869,-21.9464 L -32.427,-22.2366 L -32.6289,-22.5547 L -32.7893,-22.8956 L -32.9057,-23.2539 L -32.9763,-23.624
 L -33,-24 L -32.9763,-24.376 L -32.9057,-24.7461 L -32.7893,-25.1044 L -32.6289,-25.4453 L -32.427,-25.7634
 L -32.1869,-26.0536 L -31.9123,-26.3115 L -31.6075,-26.533 L -31.2773,-26.7145 L -30.927,-26.8532 L -30.5621,-26.9469
 L -30.1884,-26.9941 L -29.8116,-26.9941 L -29.4379,-26.9469 L -29.0729,-26.8532 L -28.7227,-26.7145 L -28.3925,-26.533
 L -28.0877,-26.3115 L -27.8131,-26.0536 L -27.5729,-25.7634 L -27.3711,-25.4453 L -27.2107,-25.1044 L -27.0942,-24.7461
 L -27.0237,-24.376 L -27,-24 L -27.0237,-23.624 L -27.0942,-23.2539 L -27.2107,-22.8956 L -27.3711,-22.5547
 L -27.5729,-22.2366 L -27.8131,-21.9464 L -28.0877,-21.6885 L -28.3925,-21.467 L -28.7227,-21.2855 L -29.0729,-21.1468
 L -29.4379,-21.0531 L -29.8116,-21.0059 z
M 29.8116,-21.0059 L 29.4379,-21.0531 L 29.0729,-21.1468 L 28.7227,-21.2855 L 28.3925,-21.467 L 28.0877,-21.6885
 L 27.8131,-21.9464 L 27.5729,-22.2366 L 27.3711,-22.5547 L 27.2107,-22.8956 L 27.0942,-23.2539 L 27.0237,-23.624
 L 27,-24 L 27.0237,-24.376 L 27.0942,-24.7461 L 27.2107,-25.1044 L 27.3711,-25.4453 L 27.5729,-25.7634
 L 27.8131,-26.0536 L 28.0877,-26.3115 L 28.3925,-26.533 L 28.7227,-26.7145 L 29.0729,-26.8532 L 29.4379,-26.9469
 L 29.8116,-26.9941 L 30.1884,-26.9941 L 30.5621,-26.9469 L 30.927,-26.8532 L 31.2773,-26.7145 L 31.6075,-26.533
 L 31.9123,-26.3115 L 32.1869,-26.0536 L 32.427,-25.7634 L 32.6289,-25.4453 L 32.7893,-25.1044 L 32.9057,-24.7461
 L 32.9763,-24.376 L 33,-24 L 32.9763,-23.624 L 32.9057,-23.2539 L 32.7893,-22.8956 L 32.6289,-22.5547
 L 32.427,-22.2366 L 32.1869,-21.9464 L 31.9123,-21.6885 L 31.6075,-21.467 L 31.2773,-21.2855 L 30.927,-21.1468
 L 30.5621,-21.0531 L 30.1884,-21.0059 z
M -0.18837,-21.0059 L -0.562134,-21.0531 L -0.927048,-21.1468 L -1.27733,-21.2855 L -1.60747,-21.467 L -1.91226,-21.6885
 L -2.1869,-21.9464 L -2.42705,-22.2366 L -2.62891,-22.5547 L -2.78932,-22.8956 L -2.90575,-23.2539 L -2.97633,-23.624
 L -3,-24 L -2.97633,-24.376 L -2.90575,-24.7461 L -2.78932,-25.1044 L -2.62891,-25.4453 L -2.42705,-25.7634
 L -2.1869,-26.0536 L -1.91226,-26.3115 L -1.60747,-26.533 L -1.27733,-26.7145 L -0.927048,-26.8532 L -0.562134,-26.9469
 L -0.18837,-26.9941 L 0.18837,-26.9941 L 0.562134,-26.9469 L 0.927048,-26.8532 L 1.27733,-26.7145 L 1.60747,-26.533
 L 1.91226,-26.3115 L 2.1869,-26.0536 L 2.42705,-25.7634 L 2.62891,-25.4453 L 2.78932,-25.1044 L 2.90575,-24.7461
 L 2.97633,-24.376 L 3,-24 L 2.97633,-23.624 L 2.90575,-23.2539 L 2.78932,-22.8956 L 2.62891,-22.5547
 L 2.42705,-22.2366 L 2.1869,-21.9464 L 1.91226,-21.6885 L 1.60747,-21.467 L 1.27733,-21.2855 L 0.927048,-21.1468
 L 0.562134,-21.0531 L 0.18837,-21.0059 z
" stroke="black" fill="lightgray" stroke-width="0.5"/>
</svg>
