  0
SECTION
  2
BLOCKS
  0
ENDSEC
  0
SECTION
  2
ENTITIES
  0
LINE
  8
0
 10
62.9369
 20
-6.91142
 11
63.5451
 21
-6.75528
  0
LINE
  8
0
 10
63.5451
 20
-6.75528
 11
64.1289
 21
-6.52412
  0
LINE
  8
0
 10
64.1289
 20
-6.52412
 11
64.6791
 21
-6.22163
  0
LINE
  8
0
 10
64.6791
 20
-6.22163
 11
65.1871
 21
-5.85255
  0
LINE
  8
0
 10
65.1871
 20
-5.85255
 11
65.6448
 21
-5.42273
  0
LINE
  8
0
 10
65.6448
 20
-5.42273
 11
66.0451
 21
-4.93892
  0
LINE
  8
0
 10
66.0451
 20
-4.93892
 11
66.3815
 21
-4.40877
  0
LINE
  8
0
 10
66.3815
 20
-4.40877
 11
66.6489
 21
-3.84062
  0
LINE
  8
0
 10
66.6489
 20
-3.84062
 11
66.8429
 21
-3.24344
  0
LINE
  8
0
 10
66.8429
 20
-3.24344
 11
66.9606
 21
-2.62666
  0
LINE
  8
0
 10
66.9606
 20
-2.62666
 11
67
 21
-2
  0
LINE
  8
0
 10
67
 20
-2
 11
67
 21
2
  0
LINE
  8
0
 10
67
 20
2
 11
66.9606
 21
2.62666
  0
LINE
  8
0
 10
66.9606
 20
2.62666
 11
66.8429
 21
3.24344
  0
LINE
  8
0
 10
66.8429
 20
3.24344
 11
66.6489
 21
3.84062
  0
LINE
  8
0
 10
66.6489
 20
3.84062
 11
66.3815
 21
4.40877
  0
LINE
  8
0
 10
66.3815
 20
4.40877
 11
66.0451
 21
4.93892
  0
LINE
  8
0
 10
66.0451
 20
4.93892
 11
65.6448
 21
5.42273
  0
LINE
  8
0
 10
65.6448
 20
5.42273
 11
65.1871
 21
5.85255
  0
LINE
  8
0
 10
65.1871
 20
5.85255
 11
64.6791
 21
6.22163
  0
LINE
  8
0
 10
64.6791
 20
6.22163
 11
64.1289
 21
6.52412
  0
LINE
  8
0
 10
64.1289
 20
6.52412
 11
63.5451
 21
6.75528
  0
LINE
  8
0
 10
63.5451
 20
6.75528
 11
62.9369
 21
6.91142
  0
LINE
  8
0
 10
62.9369
 20
6.91142
 11
62.3139
 21
6.99013
  0
LINE
  8
0
 10
62.3139
 20
6.99013
 11
-62.3139
 21
6.99013
  0
LINE
  8
0
 10
-62.3139
 20
6.99013
 11
-62.9369
 21
6.91142
  0
LINE
  8
0
 10
-62.9369
 20
6.91142
 11
-63.5451
 21
6.75528
  0
LINE
  8
0
 10
-63.5451
 20
6.75528
 11
-64.1289
 21
6.52412
  0
LINE
  8
0
 10
-64.1289
 20
6.52412
 11
-64.6791
 21
6.22163
  0
LINE
  8
0
 10
-64.6791
 20
6.22163
 11
-65.1871
 21
5.85255
  0
LINE
  8
0
 10
-65.1871
 20
5.85255
 11
-65.6448
 21
5.42273
  0
LINE
  8
0
 10
-65.6448
 20
5.42273
 11
-66.0451
 21
4.93892
  0
LINE
  8
0
 10
-66.0451
 20
4.93892
 11
-66.3815
 21
4.40877
  0
LINE
  8
0
 10
-66.3815
 20
4.40877
 11
-66.6489
 21
3.84062
  0
LINE
  8
0
 10
-66.6489
 20
3.84062
 11
-66.8429
 21
3.24344
  0
LINE
  8
0
 10
-66.8429
 20
3.24344
 11
-66.9606
 21
2.62666
  0
LINE
  8
0
 10
-66.9606
 20
2.62666
 11
-67
 21
2
  0
LINE
  8
0
 10
-67
 20
2
 11
-67
 21
-2
  0
LINE
  8
0
 10
-67
 20
-2
 11
-66.9606
 21
-2.62666
  0
LINE
  8
0
 10
-66.9606
 20
-2.62666
 11
-66.8429
 21
-3.24344
  0
LINE
  8
0
 10
-66.8429
 20
-3.24344
 11
-66.6489
 21
-3.84062
  0
LINE
  8
0
 10
-66.6489
 20
-3.84062
 11
-66.3815
 21
-4.40877
  0
LINE
  8
0
 10
-66.3815
 20
-4.40877
 11
-66.0451
 21
-4.93892
  0
LINE
  8
0
 10
-66.0451
 20
-4.93892
 11
-65.6448
 21
-5.42273
  0
LINE
  8
0
 10
-65.6448
 20
-5.42273
 11
-65.1871
 21
-5.85255
  0
LINE
  8
0
 10
-65.1871
 20
-5.85255
 11
-64.6791
 21
-6.22163
  0
LINE
  8
0
 10
-64.6791
 20
-6.22163
 11
-64.1289
 21
-6.52412
  0
LINE
  8
0
 10
-64.1289
 20
-6.52412
 11
-63.5451
 21
-6.75528
  0
LINE
  8
0
 10
-63.5451
 20
-6.75528
 11
-62.9369
 21
-6.91142
  0
LINE
  8
0
 10
-62.9369
 20
-6.91142
 11
-62.3139
 21
-6.99013
  0
LINE
  8
0
 10
-62.3139
 20
-6.99013
 11
62.3139
 21
-6.99013
  0
LINE
  8
0
 10
62.3139
 20
-6.99013
 11
62.9369
 21
-6.91142
  0
LINE
  8
0
 10
59.8116
 20
-2.99408
 11
59.4379
 21
-2.94685
  0
LINE
  8
0
 10
59.4379
 20
-2.94685
 11
59.0729
 21
-2.85316
  0
LINE
  8
0
 10
59.0729
 20
-2.85316
 11
58.7227
 21
-2.71448
  0
LINE
  8
0
 10
58.7227
 20
-2.71448
 11
58.3925
 21
-2.53297
  0
LINE
  8
0
 10
58.3925
 20
-2.53297
 11
58.0877
 21
-2.31154
  0
LINE
  8
0
 10
58.0877
 20
-2.31154
 11
57.8131
 21
-2.05363
  0
LINE
  8
0
 10
57.8131
 20
-2.05363
 11
57.5729
 21
-1.76335
  0
LINE
  8
0
 10
57.5729
 20
-1.76335
 11
57.3711
 21
-1.44525
  0
LINE
  8
0
 10
57.3711
 20
-1.44525
 11
57.2107
 21
-1.10437
  0
LINE
  8
0
 10
57.2107
 20
-1.10437
 11
57.0942
 21
-0.746063
  0
LINE
  8
0
 10
57.0942
 20
-0.746063
 11
57.0237
 21
-0.375992
  0
LINE
  8
0
 10
57.0237
 20
-0.375992
 11
57
 21
0
  0
LINE
  8
0
 10
57
 20
0
 11
57.0237
 21
0.375992
  0
LINE
  8
0
 10
57.0237
 20
0.375992
 11
57.0942
 21
0.746063
  0
LINE
  8
0
 10
57.0942
 20
0.746063
 11
57.2107
 21
1.10437
  0
LINE
  8
0
 10
57.2107
 20
1.10437
 11
57.3711
 21
1.44525
  0
LINE
  8
0
 10
57.3711
 20
1.44525
 11
57.5729
 21
1.76335
  0
LINE
  8
0
 10
57.5729
 20
1.76335
 11
57.8131
 21
2.05363
  0
LINE
  8
0
 10
57.8131
 20
2.05363
 11
58.0877
 21
2.31154
  0
LINE
  8
0
 10
58.0877
 20
2.31154
 11
58.3925
 21
2.53297
  0
LINE
  8
0
 10
58.3925
 20
2.53297
 11
58.7227
 21
2.71448
  0
LINE
  8
0
 10
58.7227
 20
2.71448
 11
59.0729
 21
2.85316
  0
LINE
  8
0
 10
59.0729
 20
2.85316
 11
59.4379
 21
2.94685
  0
LINE
  8
0
 10
59.4379
 20
2.94685
 11
59.8116
 21
2.99408
  0
LINE
  8
0
 10
59.8116
 20
2.99408
 11
60.1884
 21
2.99408
  0
LINE
  8
0
 10
60.1884
 20
2.99408
 11
60.5621
 21
2.94685
  0
LINE
  8
0
 10
60.5621
 20
2.94685
 11
60.927
 21
2.85316
  0
LINE
  8
0
 10
60.927
 20
2.85316
 11
61.2773
 21
2.71448
  0
LINE
  8
0
 10
61.2773
 20
2.71448
 11
61.6075
 21
2.53297
  0
LINE
  8
0
 10
61.6075
 20
2.53297
 11
61.9123
 21
2.31154
  0
LINE
  8
0
 10
61.9123
 20
2.31154
 11
62.1869
 21
2.05363
  0
LINE
  8
0
 10
62.1869
 20
2.05363
 11
62.427
 21
1.76335
  0
LINE
  8
0
 10
62.427
 20
1.76335
 11
62.6289
 21
1.44525
  0
LINE
  8
0
 10
62.6289
 20
1.44525
 11
62.7893
 21
1.10437
  0
LINE
  8
0
 10
62.7893
 20
1.10437
 11
62.9057
 21
0.746063
  0
LINE
  8
0
 10
62.9057
 20
0.746063
 11
62.9763
 21
0.375992
  0
LINE
  8
0
 10
62.9763
 20
0.375992
 11
63
 21
0
  0
LINE
  8
0
 10
63
 20
0
 11
62.9763
 21
-0.375992
  0
LINE
  8
0
 10
62.9763
 20
-0.375992
 11
62.9057
 21
-0.746063
  0
LINE
  8
0
 10
62.9057
 20
-0.746063
 11
62.7893
 21
-1.10437
  0
LINE
  8
0
 10
62.7893
 20
-1.10437
 11
62.6289
 21
-1.44525
  0
LINE
  8
0
 10
62.6289
 20
-1.44525
 11
62.427
 21
-1.76335
  0
LINE
  8
0
 10
62.427
 20
-1.76335
 11
62.1869
 21
-2.05363
  0
LINE
  8
0
 10
62.1869
 20
-2.05363
 11
61.9123
 21
-2.31154
  0
LINE
  8
0
 10
61.9123
 20
-2.31154
 11
61.6075
 21
-2.53297
  0
LINE
  8
0
 10
61.6075
 20
-2.53297
 11
61.2773
 21
-2.71448
  0
LINE
  8
0
 10
61.2773
 20
-2.71448
 11
60.927
 21
-2.85316
  0
LINE
  8
0
 10
60.927
 20
-2.85316
 11
60.5621
 21
-2.94685
  0
LINE
  8
0
 10
60.5621
 20
-2.94685
 11
60.1884
 21
-2.99408
  0
LINE
  8
0
 10
60.1884
 20
-2.99408
 11
59.8116
 21
-2.99408
  0
LINE
  8
0
 10
-60.1884
 20
-2.99408
 11
-60.5621
 21
-2.94685
  0
LINE
  8
0
 10
-60.5621
 20
-2.94685
 11
-60.927
 21
-2.85316
  0
LINE
  8
0
 10
-60.927
 20
-2.85316
 11
-61.2773
 21
-2.71448
  0
LINE
  8
0
 10
-61.2773
 20
-2.71448
 11
-61.6075
 21
-2.53297
  0
LINE
  8
0
 10
-61.6075
 20
-2.53297
 11
-61.9123
 21
-2.31154
  0
LINE
  8
0
 10
-61.9123
 20
-2.31154
 11
-62.1869
 21
-2.05363
  0
LINE
  8
0
 10
-62.1869
 20
-2.05363
 11
-62.427
 21
-1.76335
  0
LINE
  8
0
 10
-62.427
 20
-1.76335
 11
-62.6289
 21
-1.44525
  0
LINE
  8
0
 10
-62.6289
 20
-1.44525
 11
-62.7893
 21
-1.10437
  0
LINE
  8
0
 10
-62.7893
 20
-1.10437
 11
-62.9057
 21
-0.746063
  0
LINE
  8
0
 10
-62.9057
 20
-0.746063
 11
-62.9763
 21
-0.375992
  0
LINE
  8
0
 10
-62.9763
 20
-0.375992
 11
-63
 21
0
  0
LINE
  8
0
 10
-63
 20
0
 11
-62.9763
 21
0.375992
  0
LINE
  8
0
 10
-62.9763
 20
0.375992
 11
-62.9057
 21
0.746063
  0
LINE
  8
0
 10
-62.9057
 20
0.746063
 11
-62.7893
 21
1.10437
  0
LINE
  8
0
 10
-62.7893
 20
1.10437
 11
-62.6289
 21
1.44525
  0
LINE
  8
0
 10
-62.6289
 20
1.44525
 11
-62.427
 21
1.76335
  0
LINE
  8
0
 10
-62.427
 20
1.76335
 11
-62.1869
 21
2.05363
  0
LINE
  8
0
 10
-62.1869
 20
2.05363
 11
-61.9123
 21
2.31154
  0
LINE
  8
0
 10
-61.9123
 20
2.31154
 11
-61.6075
 21
2.53297
  0
LINE
  8
0
 10
-61.6075
 20
2.53297
 11
-61.2773
 21
2.71448
  0
LINE
  8
0
 10
-61.2773
 20
2.71448
 11
-60.927
 21
2.85316
  0
LINE
  8
0
 10
-60.927
 20
2.85316
 11
-60.5621
 21
2.94685
  0
LINE
  8
0
 10
-60.5621
 20
2.94685
 11
-60.1884
 21
2.99408
  0
LINE
  8
0
 10
-60.1884
 20
2.99408
 11
-59.8116
 21
2.99408
  0
LINE
  8
0
 10
-59.8116
 20
2.99408
 11
-59.4379
 21
2.94685
  0
LINE
  8
0
 10
-59.4379
 20
2.94685
 11
-59.0729
 21
2.85316
  0
LINE
  8
0
 10
-59.0729
 20
2.85316
 11
-58.7227
 21
2.71448
  0
LINE
  8
0
 10
-58.7227
 20
2.71448
 11
-58.3925
 21
2.53297
  0
LINE
  8
0
 10
-58.3925
 20
2.53297
 11
-58.0877
 21
2.31154
  0
LINE
  8
0
 10
-58.0877
 20
2.31154
 11
-57.8131
 21
2.05363
  0
LINE
  8
0
 10
-57.8131
 20
2.05363
 11
-57.5729
 21
1.76335
  0
LINE
  8
0
 10
-57.5729
 20
1.76335
 11
-57.3711
 21
1.44525
  0
LINE
  8
0
 10
-57.3711
 20
1.44525
 11
-57.2107
 21
1.10437
  0
LINE
  8
0
 10
-57.2107
 20
1.10437
 11
-57.0942
 21
0.746063
  0
LINE
  8
0
 10
-57.0942
 20
0.746063
 11
-57.0237
 21
0.375992
  0
LINE
  8
0
 10
-57.0237
 20
0.375992
 11
-57
 21
0
  0
LINE
  8
0
 10
-57
 20
0
 11
-57.0237
 21
-0.375992
  0
LINE
  8
0
 10
-57.0237
 20
-0.375992
 11
-57.0942
 21
-0.746063
  0
LINE
  8
0
 10
-57.0942
 20
-0.746063
 11
-57.2107
 21
-1.10437
  0
LINE
  8
0
 10
-57.2107
 20
-1.10437
 11
-57.3711
 21
-1.44525
  0
LINE
  8
0
 10
-57.3711
 20
-1.44525
 11
-57.5729
 21
-1.76335
  0
LINE
  8
0
 10
-57.5729
 20
-1.76335
 11
-57.8131
 21
-2.05363
  0
LINE
  8
0
 10
-57.8131
 20
-2.05363
 11
-58.0877
 21
-2.31154
  0
LINE
  8
0
 10
-58.0877
 20
-2.31154
 11
-58.3925
 21
-2.53297
  0
LINE
  8
0
 10
-58.3925
 20
-2.53297
 11
-58.7227
 21
-2.71448
  0
LINE
  8
0
 10
-58.7227
 20
-2.71448
 11
-59.0729
 21
-2.85316
  0
LINE
  8
0
 10
-59.0729
 20
-2.85316
 11
-59.4379
 21
-2.94685
  0
LINE
  8
0
 10
-59.4379
 20
-2.94685
 11
-59.8116
 21
-2.99408
  0
LINE
  8
0
 10
-59.8116
 20
-2.99408
 11
-60.1884
 21
-2.99408
  0
ENDSEC
  0
SECTION
  2
OBJECTS
  0
DICTIONARY
  0
ENDSEC
  0
EOF
