<?xml version="1.0" standalone="no"?>
<!DOCTYPE svg PUBLIC "-//W3C//DTD SVG 1.1//EN" "http://www.w3.org/Graphics/SVG/1.1/DTD/svg11.dtd">
<svg width="450mm" height="38mm" viewBox="-225 -55 450 38" xmlns="http://www.w3.org/2000/svg" version="1.1">
<title>OpenSCAD Model</title>
<path d="
M 220.437,-41.0886 L 221.045,-41.2447 L 221.629,-41.4759 L 222.179,-41.7784 L 222.687,-42.1474 L 223.145,-42.5773
 L 223.545,-43.0611 L 223.882,-43.5912 L 224.149,-44.1594 L 224.343,-44.7566 L 224.461,-45.3733 L 224.5,-46
 L 224.5,-50 L 224.461,-50.6267 L 224.343,-51.2434 L 224.149,-51.8406 L 223.882,-52.4088 L 223.545,-52.9389
 L 223.145,-53.4227 L 222.687,-53.8526 L 222.179,-54.2216 L 221.629,-54.5241 L 221.045,-54.7553 L 220.437,-54.9114
 L 219.814,-54.9901 L -219.814,-54.9901 L -220.437,-54.9114 L -221.045,-54.7553 L -221.629,-54.5241 L -222.179,-54.2216
 L -222.687,-53.8526 L -223.145,-53.4227 L -223.545,-52.9389 L -223.882,-52.4088 L -224.149,-51.8406 L -224.343,-51.2434
 L -224.461,-50.6267 L -224.5,-50 L -224.5,-46 L -224.461,-45.3733 L -224.343,-44.7566 L -224.149,-44.1594
 L -223.882,-43.5912 L -223.545,-43.0611 L -223.145,-42.5773 L -222.687,-42.1474 L -222.179,-41.7784 L -221.629,-41.4759
 L -221.045,-41.2447 L -220.437,-41.0886 L -219.814,-41.0099 L 219.814,-41.0099 z
M -52.6884,-45.0059 L -53.0621,-45.0531 L -53.427,-45.1468 L -53.7773,-45.2855 L -54.1075,-45.467 L -54.4123,-45.6885
 L -54.6869,-45.9464 L -54.927,-46.2366 L -55.1289,-46.5547 L -55.2893,-46.8956 L -55.4057,-47.2539 L -55.4763,-47.624
 L -55.5,-48 L -55.4763,-48.376 L -55.4057,-48.7461 L -55.2893,-49.1044 L -55.1289,-49.4453 L -54.927,-49.7634
 L -54.6869,-50.0536 L -54.4123,-50.3115 L -54.1075,-50.533 L -53.7773,-50.7145 L -53.427,-50.8532 L -53.0621,-50.9469
 L -52.6884,-50.9941 L -52.3116,-50.9941 L -51.9379,-50.9469 L -51.5729,-50.8532 L -51.2227,-50.7145 L -50.8925,-50.533
 L -50.5877,-50.3115 L -50.3131,-50.0536 L -50.0729,-49.7634 L -49.8711,-49.4453 L -49.7107,-49.1044 L -49.5942,-48.7461
 L -49.5237,-48.376 L -49.5,-48 L -49.5237,-47.624 L -49.5942,-47.2539 L -49.7107,-46.8956 L -49.8711,-46.5547
 L -50.0729,-46.2366 L -50.3131,-45.9464 L -50.5877,-45.6885 L -50.8925,-45.467 L -51.2227,-45.2855 L -51.5729,-45.1468
 L -51.9379,-45.0531 L -52.3116,-45.0059 z
M 97.3116,-45.0059 L 96.9379,-45.0531 L 96.573,-45.1468 L 96.2227,-45.2855 L 95.8925,-45.467 L 95.5877,-45.6885
 L 95.3131,-45.9464 L 95.073,-46.2366 L 94.8711,-46.5547 L 94.7107,-46.8956 L 94.5943,-47.2539 L 94.5237,-47.624
 L 94.5,-48 L 94.5237,-48.376 L 94.5943,-48.7461 L 94.7107,-49.1044 L 94.8711,-49.4453 L 95.073,-49.7634
 L 95.3131,-50.0536 L 95.5877,-50.3115 L 95.8925,-50.533 L 96.2227,-50.7145 L 96.573,-50.8532 L 96.9379,-50.9469
 L 97.3116,-50.9941 L 97.6884,-50.9941 L 98.0621,-50.9469 L 98.427,-50.8532 L 98.7773,-50.7145 L 99.1075,-50.533
 L 99.4123,-50.3115 L 99.6869,-50.0536 L 99.927,-49.7634 L 100.129,-49.4453 L 100.289,-49.1044 L 100.406,-48.7461
 L 100.476,-48.376 L 100.5,-48 L 100.476,-47.624 L 100.406,-47.2539 L 100.289,-46.8956 L 100.129,-46.5547
 L 99.927,-46.2366 L 99.6869,-45.9464 L 99.4123,-45.6885 L 99.1075,-45.467 L 98.7773,-45.2855 L 98.427,-45.1468
 L 98.0621,-45.0531 L 97.6884,-45.0059 z
M 52.3116,-45.0059 L 51.9379,-45.0531 L 51.5729,-45.1468 L 51.2227,-45.2855 L 50.8925,-45.467 L 50.5877,-45.6885
 L 50.3131,-45.9464 L 50.0729,-46.2366 L 49.8711,-46.5547 L 49.7107,-46.8956 L 49.5942,-47.2539 L 49.5237,-47.624
 L 49.5,-48 L 49.5237,-48.376 L 49.5942,-48.7461 L 49.7107,-49.1044 L 49.8711,-49.4453 L 50.0729,-49.7634
 L 50.3131,-50.0536 L 50.5877,-50.3115 L 50.8925,-50.533 L 51.2227,-50.7145 L 51.5729,-50.8532 L 51.9379,-50.9469
 L 52.3116,-50.9941 L 52.6884,-50.9941 L 53.0621,-50.9469 L 53.427,-50.8532 L 53.7773,-50.7145 L 54.1075,-50.533
 L 54.4123,-50.3115 L 54.6869,-50.0536 L 54.927,-49.7634 L 55.1289,-49.4453 L 55.2893,-49.1044 L 55.4057,-48.7461
 L 55.4763,-48.376 L 55.5,-48 L 55.4763,-47.624 L 55.4057,-47.2539 L 55.2893,-46.8956 L 55.1289,-46.5547
 L 54.927,-46.2366 L 54.6869,-45.9464 L 54.4123,-45.6885 L 54.1075,-45.467 L 53.7773,-45.2855 L 53.427,-45.1468
 L 53.0621,-45.0531 L 52.6884,-45.0059 z
M -202.688,-45.0059 L -203.062,-45.0531 L -203.427,-45.1468 L -203.777,-45.2855 L -204.107,-45.467 L -204.412,-45.6885
 L -204.687,-45.9464 L -204.927,-46.2366 L -205.129,-46.5547 L -205.289,-46.8956 L -205.406,-47.2539 L -205.476,-47.624
 L -205.5,-48 L -205.476,-48.376 L -205.406,-48.7461 L -205.289,-49.1044 L -205.129,-49.4453 L -204.927,-49.7634
 L -204.687,-50.0536 L -204.412,-50.3115 L -204.107,-50.533 L -203.777,-50.7145 L -203.427,-50.8532 L -203.062,-50.9469
 L -202.688,-50.9941 L -202.312,-50.9941 L -201.938,-50.9469 L -201.573,-50.8532 L -201.223,-50.7145 L -200.893,-50.533
 L -200.588,-50.3115 L -200.313,-50.0536 L -200.073,-49.7634 L -199.871,-49.4453 L -199.711,-49.1044 L -199.594,-48.7461
 L -199.524,-48.376 L -199.5,-48 L -199.524,-47.624 L -199.594,-47.2539 L -199.711,-46.8956 L -199.871,-46.5547
 L -200.073,-46.2366 L -200.313,-45.9464 L -200.588,-45.6885 L -200.893,-45.467 L -201.223,-45.2855 L -201.573,-45.1468
 L -201.938,-45.0531 L -202.312,-45.0059 z
M 67.3116,-45.0059 L 66.9379,-45.0531 L 66.573,-45.1468 L 66.2227,-45.2855 L 65.8925,-45.467 L 65.5877,-45.6885
 L 65.3131,-45.9464 L 65.073,-46.2366 L 64.8711,-46.5547 L 64.7107,-46.8956 L 64.5943,-47.2539 L 64.5237,-47.624
 L 64.5,-48 L 64.5237,-48.376 L 64.5943,-48.7461 L 64.7107,-49.1044 L 64.8711,-49.4453 L 65.073,-49.7634
 L 65.3131,-50.0536 L 65.5877,-50.3115 L 65.8925,-50.533 L 66.2227,-50.7145 L 66.573,-50.8532 L 66.9379,-50.9469
 L 67.3116,-50.9941 L 67.6884,-50.9941 L 68.0621,-50.9469 L 68.427,-50.8532 L 68.7773,-50.7145 L 69.1075,-50.533
 L 69.4123,-50.3115 L 69.6869,-50.0536 L 69.927,-49.7634 L 70.1289,-49.4453 L 70.2893,-49.1044 L 70.4057,-48.7461
 L 70.4763,-48.376 L 70.5,-48 L 70.4763,-47.624 L 70.4057,-47.2539 L 70.2893,-46.8956 L 70.1289,-46.5547
 L 69.927,-46.2366 L 69.6869,-45.9464 L 69.4123,-45.6885 L 69.1075,-45.467 L 68.7773,-45.2855 L 68.427,-45.1468
 L 68.0621,-45.0531 L 67.6884,-45.0059 z
M -187.688,-45.0059 L -188.062,-45.0531 L -188.427,-45.1468 L -188.777,-45.2855 L -189.107,-45.467 L -189.412,-45.6885
 L -189.687,-45.9464 L -189.927,-46.2366 L -190.129,-46.5547 L -190.289,-46.8956 L -190.406,-47.2539 L -190.476,-47.624
 L -190.5,-48 L -190.476,-48.376 L -190.406,-48.7461 L -190.289,-49.1044 L -190.129,-49.4453 L -189.927,-49.7634
 L -189.687,-50.0536 L -189.412,-50.3115 L -189.107,-50.533 L -188.777,-50.7145 L -188.427,-50.8532 L -188.062,-50.9469
 L -187.688,-50.9941 L -187.312,-50.9941 L -186.938,-50.9469 L -186.573,-50.8532 L -186.223,-50.7145 L -185.893,-50.533
 L -185.588,-50.3115 L -185.313,-50.0536 L -185.073,-49.7634 L -184.871,-49.4453 L -184.711,-49.1044 L -184.594,-48.7461
 L -184.524,-48.376 L -184.5,-48 L -184.524,-47.624 L -184.594,-47.2539 L -184.711,-46.8956 L -184.871,-46.5547
 L -185.073,-46.2366 L -185.313,-45.9464 L -185.588,-45.6885 L -185.893,-45.467 L -186.223,-45.2855 L -186.573,-45.1468
 L -186.938,-45.0531 L -187.312,-45.0059 z
M -217.688,-45.0059 L -218.062,-45.0531 L -218.427,-45.1468 L -218.777,-45.2855 L -219.107,-45.467 L -219.412,-45.6885
 L -219.687,-45.9464 L -219.927,-46.2366 L -220.129,-46.5547 L -220.289,-46.8956 L -220.406,-47.2539 L -220.476,-47.624
 L -220.5,-48 L -220.476,-48.376 L -220.406,-48.7461 L -220.289,-49.1044 L -220.129,-49.4453 L -219.927,-49.7634
 L -219.687,-50.0536 L -219.412,-50.3115 L -219.107,-50.533 L -218.777,-50.7145 L -218.427,-50.8532 L -218.062,-50.9469
 L -217.688,-50.9941 L -217.312,-50.9941 L -216.938,-50.9469 L -216.573,-50.8532 L -216.223,-50.7145 L -215.893,-50.533
 L -215.588,-50.3115 L -215.313,-50.0536 L -215.073,-49.7634 L -214.871,-49.4453 L -214.711,-49.1044 L -214.594,-48.7461
 L -214.524,-48.376 L -214.5,-48 L -214.524,-47.624 L -214.594,-47.2539 L -214.711,-46.8956 L -214.871,-46.5547
 L -215.073,-46.2366 L -215.313,-45.9464 L -215.588,-45.6885 L -215.893,-45.467 L -216.223,-45.2855 L -216.573,-45.1468
 L -216.938,-45.0531 L -217.312,-45.0059 z
M -37.6884,-45.0059 L -38.0621,-45.0531 L -38.427,-45.1468 L -38.7773,-45.2855 L -39.1075,-45.467 L -39.4123,-45.6885
 L -39.6869,-45.9464 L -39.927,-46.2366 L -40.1289,-46.5547 L -40.2893,-46.8956 L -40.4057,-47.2539 L -40.4763,-47.624
 L -40.5,-48 L -40.4763,-48.376 L -40.4057,-48.7461 L -40.2893,-49.1044 L -40.1289,-49.4453 L -39.927,-49.7634
 L -39.6869,-50.0536 L -39.4123,-50.3115 L -39.1075,-50.533 L -38.7773,-50.7145 L -38.427,-50.8532 L -38.0621,-50.9469
 L -37.6884,-50.9941 L -37.3116,-50.9941 L -36.9379,-50.9469 L -36.5729,-50.8532 L -36.2227,-50.7145 L -35.8925,-50.533
 L -35.5877,-50.3115 L -35.3131,-50.0536 L -35.0729,-49.7634 L -34.8711,-49.4453 L -34.7107,-49.1044 L -34.5942,-48.7461
 L -34.5237,-48.376 L -34.5,-48 L -34.5237,-47.624 L -34.5942,-47.2539 L -34.7107,-46.8956 L -34.8711,-46.5547
 L -35.0729,-46.2366 L -35.3131,-45.9464 L -35.5877,-45.6885 L -35.8925,-45.467 L -36.2227,-45.2855 L -36.5729,-45.1468
 L -36.9379,-45.0531 L -37.3116,-45.0059 z
M 37.3116,-45.0059 L 36.9379,-45.0531 L 36.5729,-45.1468 L 36.2227,-45.2855 L 35.8925,-45.467 L 35.5877,-45.6885
 L 35.3131,-45.9464 L 35.0729,-46.2366 L 34.8711,-46.5547 L 34.7107,-46.8956 L 34.5942,-47.2539 L 34.5237,-47.624
 L 34.5,-48 L 34.5237,-48.376 L 34.5942,-48.7461 L 34.7107,-49.1044 L 34.8711,-49.4453 L 35.0729,-49.7634
 L 35.3131,-50.0536 L 35.5877,-50.3115 L 35.8925,-50.533 L 36.2227,-50.7145 L 36.5729,-50.8532 L 36.9379,-50.9469
 L 37.3116,-50.9941 L 37.6884,-50.9941 L 38.0621,-50.9469 L 38.427,-50.8532 L 38.7773,-50.7145 L 39.1075,-50.533
 L 39.4123,-50.3115 L 39.6869,-50.0536 L 39.927,-49.7634 L 40.1289,-49.4453 L 40.2893,-49.1044 L 40.4057,-48.7461
 L 40.4763,-48.376 L 40.5,-48 L 40.4763,-47.624 L 40.4057,-47.2539 L 40.2893,-46.8956 L 40.1289,-46.5547
 L 39.927,-46.2366 L 39.6869,-45.9464 L 39.4123,-45.6885 L 39.1075,-45.467 L 38.7773,-45.2855 L 38.427,-45.1468
 L 38.0621,-45.0531 L 37.6884,-45.0059 z
M -22.6884,-45.0059 L -23.0621,-45.0531 L -23.427,-45.1468 L -23.7773,-45.2855 L -24.1075,-45.467 L -24.4123,-45.6885
 L -24.6869,-45.9464 L -24.927,-46.2366 L -25.1289,-46.5547 L -25.2893,-46.8956 L -25.4057,-47.2539 L -25.4763,-47.624
 L -25.5,-48 L -25.4763,-48.376 L -25.4057,-48.7461 L -25.2893,-49.1044 L -25.1289,-49.4453 L -24.927,-49.7634
 L -24.6869,-50.0536 L -24.4123,-50.3115 L -24.1075,-50.533 L -23.7773,-50.7145 L -23.427,-50.8532 L -23.0621,-50.9469
 L -22.6884,-50.9941 L -22.3116,-50.9941 L -21.9379,-50.9469 L -21.5729,-50.8532 L -21.2227,-50.7145 L -20.8925,-50.533
 L -20.5877,-50.3115 L -20.3131,-50.0536 L -20.0729,-49.7634 L -19.8711,-49.4453 L -19.7107,-49.1044 L -19.5942,-48.7461
 L -19.5237,-48.376 L -19.5,-48 L -19.5237,-47.624 L -19.5942,-47.2539 L -19.7107,-46.8956 L -19.8711,-46.5547
 L -20.0729,-46.2366 L -20.3131,-45.9464 L -20.5877,-45.6885 L -20.8925,-45.467 L -21.2227,-45.2855 L -21.5729,-45.1468
 L -21.9379,-45.0531 L -22.3116,-45.0059 z
M -67.6884,-45.0059 L -68.0621,-45.0531 L -68.427,-45.1468 L -68.7773,-45.2855 L -69.1075,-45.467 L -69.4123,-45.6885
 L -69.6869,-45.9464 L -69.927,-46.2366 L -70.1289,-46.5547 L -70.2893,-46.8956 L -70.4057,-47.2539 L -70.4763,-47.624
 L -70.5,-48 L -70.4763,-48.376 L -70.4057,-48.7461 L -70.2893,-49.1044 L -70.1289,-49.4453 L -69.927,-49.7634
 L -69.6869,-50.0536 L -69.4123,-50.3115 L -69.1075,-50.533 L -68.7773,-50.7145 L -68.427,-50.8532 L -68.0621,-50.9469
 L -67.6884,-50.9941 L -67.3116,-50.9941 L -66.9379,-50.9469 L -66.573,-50.8532 L -66.2227,-50.7145 L -65.8925,-50.533
 L -65.5877,-50.3115 L -65.3131,-50.0536 L -65.073,-49.7634 L -64.8711,-49.4453 L -64.7107,-49.1044 L -64.5943,-48.7461
 L -64.5237,-48.376 L -64.5,-48 L -64.5237,-47.624 L -64.5943,-47.2539 L -64.7107,-46.8956 L -64.8711,-46.5547
 L -65.073,-46.2366 L -65.3131,-45.9464 L -65.5877,-45.6885 L -65.8925,-45.467 L -66.2227,-45.2855 L -66.573,-45.1468
 L -66.9379,-45.0531 L -67.3116,-45.0059 z
M 142.312,-45.0059 L 141.938,-45.0531 L 141.573,-45.1468 L 141.223,-45.2855 L 140.893,-45.467 L 140.588,-45.6885
 L 140.313,-45.9464 L 140.073,-46.2366 L 139.871,-46.5547 L 139.711,-46.8956 L 139.594,-47.2539 L 139.524,-47.624
 L 139.5,-48 L 139.524,-48.376 L 139.594,-48.7461 L 139.711,-49.1044 L 139.871,-49.4453 L 140.073,-49.7634
 L 140.313,-50.0536 L 140.588,-50.3115 L 140.893,-50.533 L 141.223,-50.7145 L 141.573,-50.8532 L 141.938,-50.9469
 L 142.312,-50.9941 L 142.688,-50.9941 L 143.062,-50.9469 L 143.427,-50.8532 L 143.777,-50.7145 L 144.107,-50.533
 L 144.412,-50.3115 L 144.687,-50.0536 L 144.927,-49.7634 L 145.129,-49.4453 L 145.289,-49.1044 L 145.406,-48.7461
 L 145.476,-48.376 L 145.5,-48 L 145.476,-47.624 L 145.406,-47.2539 L 145.289,-46.8956 L 145.129,-46.5547
 L 144.927,-46.2366 L 144.687,-45.9464 L 144.412,-45.6885 L 144.107,-45.467 L 143.777,-45.2855 L 143.427,-45.1468
 L 143.062,-45.0531 L 142.688,-45.0059 z
M 127.312,-45.0059 L 126.938,-45.0531 L 126.573,-45.1468 L 126.223,-45.2855 L 125.893,-45.467 L 125.588,-45.6885
 L 125.313,-45.9464 L 125.073,-46.2366 L 124.871,-46.5547 L 124.711,-46.8956 L 124.594,-47.2539 L 124.524,-47.624
 L 124.5,-48 L 124.524,-48.376 L 124.594,-48.7461 L 124.711,-49.1044 L 124.871,-49.4453 L 125.073,-49.7634
 L 125.313,-50.0536 L 125.588,-50.3115 L 125.893,-50.533 L 126.223,-50.7145 L 126.573,-50.8532 L 126.938,-50.9469
 L 127.312,-50.9941 L 127.688,-50.9941 L 128.062,-50.9469 L 128.427,-50.8532 L 128.777,-50.7145 L 129.107,-50.533
 L 129.412,-50.3115 L 129.687,-50.0536 L 129.927,-49.7634 L 130.129,-49.4453 L 130.289,-49.1044 L 130.406,-48.7461
 L 130.476,-48.376 L 130.5,-48 L 130.476,-47.624 L 130.406,-47.2539 L 130.289,-46.8956 L 130.129,-46.5547
 L 129.927,-46.2366 L 129.687,-45.9464 L 129.412,-45.6885 L 129.107,-45.467 L 128.777,-45.2855 L 128.427,-45.1468
 L 128.062,-45.0531 L 127.688,-45.0059 z
M 187.312,-45.0059 L 186.938,-45.0531 L 186.573,-45.1468 L 186.223,-45.2855 L 185.893,-45.467 L 185.588,-45.6885
 L 185.313,-45.9464 L 185.073,-46.2366 L 184.871,-46.5547 L 184.711,-46.8956 L 184.594,-47.2539 L 184.524,-47.624
 L 184.5,-48 L 184.524,-48.376 L 184.594,-48.7461 L 184.711,-49.1044 L 184.871,-49.4453 L 185.073,-49.7634
 L 185.313,-50.0536 L 185.588,-50.3115 L 185.893,-50.533 L 186.223,-50.7145 L 186.573,-50.8532 L 186.938,-50.9469
 L 187.312,-50.9941 L 187.688,-50.9941 L 188.062,-50.9469 L 188.427,-50.8532 L 188.777,-50.7145 L 189.107,-50.533
 L 189.412,-50.3115 L 189.687,-50.0536 L 189.927,-49.7634 L 190.129,-49.4453 L 190.289,-49.1044 L 190.406,-48.7461
 L 190.476,-48.376 L 190.5,-48 L 190.476,-47.624 L 190.406,-47.2539 L 190.289,-46.8956 L 190.129,-46.5547
 L 189.927,-46.2366 L 189.687,-45.9464 L 189.412,-45.6885 L 189.107,-45.467 L 188.777,-45.2855 L 188.427,-45.1468
 L 188.062,-45.0531 L 187.688,-45.0059 z
M 202.312,-45.0059 L 201.938,-45.0531 L 201.573,-45.1468 L 201.223,-45.2855 L 200.893,-45.467 L 200.588,-45.6885
 L 200.313,-45.9464 L 200.073,-46.2366 L 199.871,-46.5547 L 199.711,-46.8956 L 199.594,-47.2539 L 199.524,-47.624
 L 199.5,-48 L 199.524,-48.376 L 199.594,-48.7461 L 199.711,-49.1044 L 199.871,-49.4453 L 200.073,-49.7634
 L 200.313,-50.0536 L 200.588,-50.3115 L 200.893,-50.533 L 201.223,-50.7145 L 201.573,-50.8532 L 201.938,-50.9469
 L 202.312,-50.9941 L 202.688,-50.9941 L 203.062,-50.9469 L 203.427,-50.8532 L 203.777,-50.7145 L 204.107,-50.533
 L 204.412,-50.3115 L 204.687,-50.0536 L 204.927,-49.7634 L 205.129,-49.4453 L 205.289,-49.1044 L 205.406,-48.7461
 L 205.476,-48.376 L 205.5,-48 L 205.476,-47.624 L 205.406,-47.2539 L 205.289,-46.8956 L 205.129,-46.5547
 L 204.927,-46.2366 L 204.687,-45.9464 L 204.412,-45.6885 L 204.107,-45.467 L 203.777,-45.2855 L 203.427,-45.1468
 L 203.062,-45.0531 L 202.688,-45.0059 z
M 172.312,-45.0059 L 171.938,-45.0531 L 171.573,-45.1468 L 171.223,-45.2855 L 170.893,-45.467 L 170.588,-45.6885
 L 170.313,-45.9464 L 170.073,-46.2366 L 169.871,-46.5547 L 169.711,-46.8956 L 169.594,-47.2539 L 169.524,-47.624
 L 169.5,-48 L 169.524,-48.376 L 169.594,-48.7461 L 169.711,-49.1044 L 169.871,-49.4453 L 170.073,-49.7634
 L 170.313,-50.0536 L 170.588,-50.3115 L 170.893,-50.533 L 171.223,-50.7145 L 171.573,-50.8532 L 171.938,-50.9469
 L 172.312,-50.9941 L 172.688,-50.9941 L 173.062,-50.9469 L 173.427,-50.8532 L 173.777,-50.7145 L 174.107,-50.533
 L 174.412,-50.3115 L 174.687,-50.0536 L 174.927,-49.7634 L 175.129,-49.4453 L 175.289,-49.1044 L 175.406,-48.7461
 L 175.476,-48.376 L 175.5,-48 L 175.476,-47.624 L 175.406,-47.2539 L 175.289,-46.8956 L 175.129,-46.5547
 L 174.927,-46.2366 L 174.687,-45.9464 L 174.412,-45.6885 L 174.107,-45.467 L 173.777,-45.2855 L 173.427,-45.1468
 L 173.062,-45.0531 L 172.688,-45.0059 z
M -82.6884,-45.0059 L -83.0621,-45.0531 L -83.427,-45.1468 L -83.7773,-45.2855 L -84.1075,-45.467 L -84.4123,-45.6885
 L -84.6869,-45.9464 L -84.927,-46.2366 L -85.1289,-46.5547 L -85.2893,-46.8956 L -85.4057,-47.2539 L -85.4763,-47.624
 L -85.5,-48 L -85.4763,-48.376 L -85.4057,-48.7461 L -85.2893,-49.1044 L -85.1289,-49.4453 L -84.927,-49.7634
 L -84.6869,-50.0536 L -84.4123,-50.3115 L -84.1075,-50.533 L -83.7773,-50.7145 L -83.427,-50.8532 L -83.0621,-50.9469
 L -82.6884,-50.9941 L -82.3116,-50.9941 L -81.9379,-50.9469 L -81.573,-50.8532 L -81.2227,-50.7145 L -80.8925,-50.533
 L -80.5877,-50.3115 L -80.3131,-50.0536 L -80.073,-49.7634 L -79.8711,-49.4453 L -79.7107,-49.1044 L -79.5943,-48.7461
 L -79.5237,-48.376 L -79.5,-48 L -79.5237,-47.624 L -79.5943,-47.2539 L -79.7107,-46.8956 L -79.8711,-46.5547
 L -80.073,-46.2366 L -80.3131,-45.9464 L -80.5877,-45.6885 L -80.8925,-45.467 L -81.2227,-45.2855 L -81.573,-45.1468
 L -81.9379,-45.0531 L -82.3116,-45.0059 z
M -7.68837,-45.0059 L -8.06213,-45.0531 L -8.42705,-45.1468 L -8.77733,-45.2855 L -9.10747,-45.467 L -9.41226,-45.6885
 L -9.6869,-45.9464 L -9.92705,-46.2366 L -10.1289,-46.5547 L -10.2893,-46.8956 L -10.4057,-47.2539 L -10.4763,-47.624
 L -10.5,-48 L -10.4763,-48.376 L -10.4057,-48.7461 L -10.2893,-49.1044 L -10.1289,-49.4453 L -9.92705,-49.7634
 L -9.6869,-50.0536 L -9.41226,-50.3115 L -9.10747,-50.533 L -8.77733,-50.7145 L -8.42705,-50.8532 L -8.06213,-50.9469
 L -7.68837,-50.9941 L -7.31161,-50.9941 L -6.93785,-50.9469 L -6.57294,-50.8532 L -6.22266,-50.7145 L -5.89252,-50.533
 L -5.58772,-50.3115 L -5.31308,-50.0536 L -5.07294,-49.7634 L -4.87108,-49.4453 L -4.71066,-49.1044 L -4.59424,-48.7461
 L -4.52365,-48.376 L -4.5,-48 L -4.52365,-47.624 L -4.59424,-47.2539 L -4.71066,-46.8956 L -4.87108,-46.5547
 L -5.07294,-46.2366 L -5.31308,-45.9464 L -5.58772,-45.6885 L -5.89252,-45.467 L -6.22266,-45.2855 L -6.57294,-45.1468
 L -6.93785,-45.0531 L -7.31161,-45.0059 z
M -97.6884,-45.0059 L -98.0621,-45.0531 L -98.427,-45.1468 L -98.7773,-45.2855 L -99.1075,-45.467 L -99.4123,-45.6885
 L -99.6869,-45.9464 L -99.927,-46.2366 L -100.129,-46.5547 L -100.289,-46.8956 L -100.406,-47.2539 L -100.476,-47.624
 L -100.5,-48 L -100.476,-48.376 L -100.406,-48.7461 L -100.289,-49.1044 L -100.129,-49.4453 L -99.927,-49.7634
 L -99.6869,-50.0536 L -99.4123,-50.3115 L -99.1075,-50.533 L -98.7773,-50.7145 L -98.427,-50.8532 L -98.0621,-50.9469
 L -97.6884,-50.9941 L -97.3116,-50.9941 L -96.9379,-50.9469 L -96.573,-50.8532 L -96.2227,-50.7145 L -95.8925,-50.533
 L -95.5877,-50.3115 L -95.3131,-50.0536 L -95.073,-49.7634 L -94.8711,-49.4453 L -94.7107,-49.1044 L -94.5943,-48.7461
 L -94.5237,-48.376 L -94.5,-48 L -94.5237,-47.624 L -94.5943,-47.2539 L -94.7107,-46.8956 L -94.8711,-46.5547
 L -95.073,-46.2366 L -95.3131,-45.9464 L -95.5877,-45.6885 L -95.8925,-45.467 L -96.2227,-45.2855 L -96.573,-45.1468
 L -96.9379,-45.0531 L -97.3116,-45.0059 z
M 22.3116,-45.0059 L 21.9379,-45.0531 L 21.5729,-45.1468 L 21.2227,-45.2855 L 20.8925,-45.467 L 20.5877,-45.6885
 L 20.3131,-45.9464 L 20.0729,-46.2366 L 19.8711,-46.5547 L 19.7107,-46.8956 L 19.5942,-47.2539 L 19.5237,-47.624
 L 19.5,-48 L 19.5237,-48.376 L 19.5942,-48.7461 L 19.7107,-49.1044 L 19.8711,-49.4453 L 20.0729,-49.7634
 L 20.3131,-50.0536 L 20.5877,-50.3115 L 20.8925,-50.533 L 21.2227,-50.7145 L 21.5729,-50.8532 L 21.9379,-50.9469
 L 22.3116,-50.9941 L 22.6884,-50.9941 L 23.0621,-50.9469 L 23.427,-50.8532 L 23.7773,-50.7145 L 24.1075,-50.533
 L 24.4123,-50.3115 L 24.6869,-50.0536 L 24.927,-49.7634 L 25.1289,-49.4453 L 25.2893,-49.1044 L 25.4057,-48.7461
 L 25.4763,-48.376 L 25.5,-48 L 25.4763,-47.624 L 25.4057,-47.2539 L 25.2893,-46.8956 L 25.1289,-46.5547
 L 24.927,-46.2366 L 24.6869,-45.9464 L 24.4123,-45.6885 L 24.1075,-45.467 L 23.7773,-45.2855 L 23.427,-45.1468
 L 23.0621,-45.0531 L 22.6884,-45.0059 z
M -172.688,-45.0059 L -173.062,-45.0531 L -173.427,-45.1468 L -173.777,-45.2855 L -174.107,-45.467 L -174.412,-45.6885
 L -174.687,-45.9464 L -174.927,-46.2366 L -175.129,-46.5547 L -175.289,-46.8956 L -175.406,-47.2539 L -175.476,-47.624
 L -175.5,-48 L -175.476,-48.376 L -175.406,-48.7461 L -175.289,-49.1044 L -175.129,-49.4453 L -174.927,-49.7634
 L -174.687,-50.0536 L -174.412,-50.3115 L -174.107,-50.533 L -173.777,-50.7145 L -173.427,-50.8532 L -173.062,-50.9469
 L -172.688,-50.9941 L -172.312,-50.9941 L -171.938,-50.9469 L -171.573,-50.8532 L -171.223,-50.7145 L -170.893,-50.533
 L -170.588,-50.3115 L -170.313,-50.0536 L -170.073,-49.7634 L -169.871,-49.4453 L -169.711,-49.1044 L -169.594,-48.7461
 L -169.524,-48.376 L -169.5,-48 L -169.524,-47.624 L -169.594,-47.2539 L -169.711,-46.8956 L -169.871,-46.5547
 L -170.073,-46.2366 L -170.313,-45.9464 L -170.588,-45.6885 L -170.893,-45.467 L -171.223,-45.2855 L -171.573,-45.1468
 L -171.938,-45.0531 L -172.312,-45.0059 z
M 112.312,-45.0059 L 111.938,-45.0531 L 111.573,-45.1468 L 111.223,-45.2855 L 110.893,-45.467 L 110.588,-45.6885
 L 110.313,-45.9464 L 110.073,-46.2366 L 109.871,-46.5547 L 109.711,-46.8956 L 109.594,-47.2539 L 109.524,-47.624
 L 109.5,-48 L 109.524,-48.376 L 109.594,-48.7461 L 109.711,-49.1044 L 109.871,-49.4453 L 110.073,-49.7634
 L 110.313,-50.0536 L 110.588,-50.3115 L 110.893,-50.533 L 111.223,-50.7145 L 111.573,-50.8532 L 111.938,-50.9469
 L 112.312,-50.9941 L 112.688,-50.9941 L 113.062,-50.9469 L 113.427,-50.8532 L 113.777,-50.7145 L 114.107,-50.533
 L 114.412,-50.3115 L 114.687,-50.0536 L 114.927,-49.7634 L 115.129,-49.4453 L 115.289,-49.1044 L 115.406,-48.7461
 L 115.476,-48.376 L 115.5,-48 L 115.476,-47.624 L 115.406,-47.2539 L 115.289,-46.8956 L 115.129,-46.5547
 L 114.927,-46.2366 L 114.687,-45.9464 L 114.412,-45.6885 L 114.107,-45.467 L 113.777,-45.2855 L 113.427,-45.1468
 L 113.062,-45.0531 L 112.688,-45.0059 z
M -112.688,-45.0059 L -113.062,-45.0531 L -113.427,-45.1468 L -113.777,-45.2855 L -114.107,-45.467 L -114.412,-45.6885
 L -114.687,-45.9464 L -114.927,-46.2366 L -115.129,-46.5547 L -115.289,-46.8956 L -115.406,-47.2539 L -115.476,-47.624
 L -115.5,-48 L -115.476,-48.376 L -115.406,-48.7461 L -115.289,-49.1044 L -115.129,-49.4453 L -114.927,-49.7634
 L -114.687,-50.0536 L -114.412,-50.3115 L -114.107,-50.533 L -113.777,-50.7145 L -113.427,-50.8532 L -113.062,-50.9469
 L -112.688,-50.9941 L -112.312,-50.9941 L -111.938,-50.9469 L -111.573,-50.8532 L -111.223,-50.7145 L -110.893,-50.533
 L -110.588,-50.3115 L -110.313,-50.0536 L -110.073,-49.7634 L -109.871,-49.4453 L -109.711,-49.1044 L -109.594,-48.7461
 L -109.524,-48.376 L -109.5,-48 L -109.524,-47.624 L -109.594,-47.2539 L -109.711,-46.8956 L -109.871,-46.5547
 L -110.073,-46.2366 L -110.313,-45.9464 L -110.588,-45.6885 L -110.893,-45.467 L -111.223,-45.2855 L -111.573,-45.1468
 L -111.938,-45.0531 L -112.312,-45.0059 z
M 217.312,-45.0059 L 216.938,-45.0531 L 216.573,-45.1468 L 216.223,-45.2855 L 215.893,-45.467 L 215.588,-45.6885
 L 215.313,-45.9464 L 215.073,-46.2366 L 214.871,-46.5547 L 214.711,-46.8956 L 214.594,-47.2539 L 214.524,-47.624
 L 214.5,-48 L 214.524,-48.376 L 214.594,-48.7461 L 214.711,-49.1044 L 214.871,-49.4453 L 215.073,-49.7634
 L 215.313,-50.0536 L 215.588,-50.3115 L 215.893,-50.533 L 216.223,-50.7145 L 216.573,-50.8532 L 216.938,-50.9469
 L 217.312,-50.9941 L 217.688,-50.9941 L 218.062,-50.9469 L 218.427,-50.8532 L 218.777,-50.7145 L 219.107,-50.533
 L 219.412,-50.3115 L 219.687,-50.0536 L 219.927,-49.7634 L 220.129,-49.4453 L 220.289,-49.1044 L 220.406,-48.7461
 L 220.476,-48.376 L 220.5,-48 L 220.476,-47.624 L 220.406,-47.2539 L 220.289,-46.8956 L 220.129,-46.5547
 L 219.927,-46.2366 L 219.687,-45.9464 L 219.412,-45.6885 L 219.107,-45.467 L 218.777,-45.2855 L 218.427,-45.1468
 L 218.062,-45.0531 L 217.688,-45.0059 z
M 7.31161,-45.0059 L 6.93785,-45.0531 L 6.57294,-45.1468 L 6.22266,-45.2855 L 5.89252,-45.467 L 5.58772,-45.6885
 L 5.31308,-45.9464 L 5.07294,-46.2366 L 4.87108,-46.5547 L 4.71066,-46.8956 L 4.59424,-47.2539 L 4.52365,-47.624
 L 4.5,-48 L 4.52365,-48.376 L 4.59424,-48.7461 L 4.71066,-49.1044 L 4.87108,-49.4453 L 5.07294,-49.7634
 L 5.31308,-50.0536 L 5.58772,-50.3115 L 5.89252,-50.533 L 6.22266,-50.7145 L 6.57294,-50.8532 L 6.93785,-50.9469
 L 7.31161,-50.9941 L 7.68837,-50.9941 L 8.06213,-50.9469 L 8.42705,-50.8532 L 8.77733,-50.7145 L 9.10747,-50.533
 L 9.41226,-50.3115 L 9.6869,-50.0536 L 9.92705,-49.7634 L 10.1289,-49.4453 L 10.2893,-49.1044 L 10.4057,-48.7461
 L 10.4763,-48.376 L 10.5,-48 L 10.4763,-47.624 L 10.4057,-47.2539 L 10.2893,-46.8956 L 10.1289,-46.5547
 L 9.92705,-46.2366 L 9.6869,-45.9464 L 9.41226,-45.6885 L 9.10747,-45.467 L 8.77733,-45.2855 L 8.42705,-45.1468
 L 8.06213,-45.0531 L 7.68837,-45.0059 z
M 82.3116,-45.0059 L 81.9379,-45.0531 L 81.573,-45.1468 L 81.2227,-45.2855 L 80.8925,-45.467 L 80.5877,-45.6885
 L 80.3131,-45.9464 L 80.073,-46.2366 L 79.8711,-46.5547 L 79.7107,-46.8956 L 79.5943,-47.2539 L 79.5237,-47.624
 L 79.5,-48 L 79.5237,-48.376 L 79.5943,-48.7461 L 79.7107,-49.1044 L 79.8711,-49.4453 L 80.073,-49.7634
 L 80.3131,-50.0536 L 80.5877,-50.3115 L 80.8925,-50.533 L 81.2227,-50.7145 L 81.573,-50.8532 L 81.9379,-50.9469
 L 82.3116,-50.9941 L 82.6884,-50.9941 L 83.0621,-50.9469 L 83.427,-50.8532 L 83.7773,-50.7145 L 84.1075,-50.533
 L 84.4123,-50.3115 L 84.6869,-50.0536 L 84.927,-49.7634 L 85.1289,-49.4453 L 85.2893,-49.1044 L 85.4057,-48.7461
 L 85.4763,-48.376 L 85.5,-48 L 85.4763,-47.624 L 85.4057,-47.2539 L 85.2893,-46.8956 L 85.1289,-46.5547
 L 84.927,-46.2366 L 84.6869,-45.9464 L 84.4123,-45.6885 L 84.1075,-45.467 L 83.7773,-45.2855 L 83.427,-45.1468
 L 83.0621,-45.0531 L 82.6884,-45.0059 z
M -157.688,-45.0059 L -158.062,-45.0531 L -158.427,-45.1468 L -158.777,-45.2855 L -159.107,-45.467 L -159.412,-45.6885
 L -159.687,-45.9464 L -159.927,-46.2366 L -160.129,-46.5547 L -160.289,-46.8956 L -160.406,-47.2539 L -160.476,-47.624
 L -160.5,-48 L -160.476,-48.376 L -160.406,-48.7461 L -160.289,-49.1044 L -160.129,-49.4453 L -159.927,-49.7634
 L -159.687,-50.0536 L -159.412,-50.3115 L -159.107,-50.533 L -158.777,-50.7145 L -158.427,-50.8532 L -158.062,-50.9469
 L -157.688,-50.9941 L -157.312,-50.9941 L -156.938,-50.9469 L -156.573,-50.8532 L -156.223,-50.7145 L -155.893,-50.533
 L -155.588,-50.3115 L -155.313,-50.0536 L -155.073,-49.7634 L -154.871,-49.4453 L -154.711,-49.1044 L -154.594,-48.7461
 L -154.524,-48.376 L -154.5,-48 L -154.524,-47.624 L -154.594,-47.2539 L -154.711,-46.8956 L -154.871,-46.5547
 L -155.073,-46.2366 L -155.313,-45.9464 L -155.588,-45.6885 L -155.893,-45.467 L -156.223,-45.2855 L -156.573,-45.1468
 L -156.938,-45.0531 L -157.312,-45.0059 z
M -142.688,-45.0059 L -143.062,-45.0531 L -143.427,-45.1468 L -143.777,-45.2855 L -144.107,-45.467 L -144.412,-45.6885
 L -144.687,-45.9464 L -144.927,-46.2366 L -145.129,-46.5547 L -145.289,-46.8956 L -145.406,-47.2539 L -145.476,-47.624
 L -145.5,-48 L -145.476,-48.376 L -145.406,-48.7461 L -145.289,-49.1044 L -145.129,-49.4453 L -144.927,-49.7634
 L -144.687,-50.0536 L -144.412,-50.3115 L -144.107,-50.533 L -143.777,-50.7145 L -143.427,-50.8532 L -143.062,-50.9469
 L -142.688,-50.9941 L -142.312,-50.9941 L -141.938,-50.9469 L -141.573,-50.8532 L -141.223,-50.7145 L -140.893,-50.533
 L -140.588,-50.3115 L -140.313,-50.0536 L -140.073,-49.7634 L -139.871,-49.4453 L -139.711,-49.1044 L -139.594,-48.7461
 L -139.524,-48.376 L -139.5,-48 L -139.524,-47.624 L -139.594,-47.2539 L -139.711,-46.8956 L -139.871,-46.5547
 L -140.073,-46.2366 L -140.313,-45.9464 L -140.588,-45.6885 L -140.893,-45.467 L -141.223,-45.2855 L -141.573,-45.1468
 L -141.938,-45.0531 L -142.312,-45.0059 z
M -127.688,-45.0059 L -128.062,-45.0531 L -128.427,-45.1468 L -128.777,-45.2855 L -129.107,-45.467 L -129.412,-45.6885
 L -129.687,-45.9464 L -129.927,-46.2366 L -130.129,-46.5547 L -130.289,-46.8956 L -130.406,-47.2539 L -130.476,-47.624
 L -130.5,-48 L -130.476,-48.376 L -130.406,-48.7461 L -130.289,-49.1044 L -130.129,-49.4453 L -129.927,-49.7634
 L -129.687,-50.0536 L -129.412,-50.3115 L -129.107,-50.533 L -128.777,-50.7145 L -128.427,-50.8532 L -128.062,-50.9469
 L -127.688,-50.9941 L -127.312,-50.9941 L -126.938,-50.9469 L -126.573,-50.8532 L -126.223,-50.7145 L -125.893,-50.533
 L -125.588,-50.3115 L -125.313,-50.0536 L -125.073,-49.7634 L -124.871,-49.4453 L -124.711,-49.1044 L -124.594,-48.7461
 L -124.524,-48.376 L -124.5,-48 L -124.524,-47.624 L -124.594,-47.2539 L -124.711,-46.8956 L -124.871,-46.5547
 L -125.073,-46.2366 L -125.313,-45.9464 L -125.588,-45.6885 L -125.893,-45.467 L -126.223,-45.2855 L -126.573,-45.1468
 L -126.938,-45.0531 L -127.312,-45.0059 z
M 157.312,-45.0059 L 156.938,-45.0531 L 156.573,-45.1468 L 156.223,-45.2855 L 155.893,-45.467 L 155.588,-45.6885
 L 155.313,-45.9464 L 155.073,-46.2366 L 154.871,-46.5547 L 154.711,-46.8956 L 154.594,-47.2539 L 154.524,-47.624
 L 154.5,-48 L 154.524,-48.376 L 154.594,-48.7461 L 154.711,-49.1044 L 154.871,-49.4453 L 155.073,-49.7634
 L 155.313,-50.0536 L 155.588,-50.3115 L 155.893,-50.533 L 156.223,-50.7145 L 156.573,-50.8532 L 156.938,-50.9469
 L 157.312,-50.9941 L 157.688,-50.9941 L 158.062,-50.9469 L 158.427,-50.8532 L 158.777,-50.7145 L 159.107,-50.533
 L 159.412,-50.3115 L 159.687,-50.0536 L 159.927,-49.7634 L 160.129,-49.4453 L 160.289,-49.1044 L 160.406,-48.7461
 L 160.476,-48.376 L 160.5,-48 L 160.476,-47.624 L 160.406,-47.2539 L 160.289,-46.8956 L 160.129,-46.5547
 L 159.927,-46.2366 L 159.687,-45.9464 L 159.412,-45.6885 L 159.107,-45.467 L 158.777,-45.2855 L 158.427,-45.1468
 L 158.062,-45.0531 L 157.688,-45.0059 z
M 220.437,-17.0886 L 221.045,-17.2447 L 221.629,-17.4759 L 222.179,-17.7784 L 222.687,-18.1474 L 223.145,-18.5773
 L 223.545,-19.0611 L 223.882,-19.5912 L 224.149,-20.1594 L 224.343,-20.7566 L 224.461,-21.3733 L 224.5,-22
 L 224.5,-26 L 224.461,-26.6267 L 224.343,-27.2434 L 224.149,-27.8406 L 223.882,-28.4088 L 223.545,-28.9389
 L 223.145,-29.4227 L 222.687,-29.8526 L 222.179,-30.2216 L 221.629,-30.5241 L 221.045,-30.7553 L 220.437,-30.9114
 L 219.814,-30.9901 L -219.814,-30.9901 L -220.437,-30.9114 L -221.045,-30.7553 L -221.629,-30.5241 L -222.179,-30.2216
 L -222.687,-29.8526 L -223.145,-29.4227 L -223.545,-28.9389 L -223.882,-28.4088 L -224.149,-27.8406 L -224.343,-27.2434
 L -224.461,-26.6267 L -224.5,-26 L -224.5,-22 L -224.461,-21.3733 L -224.343,-20.7566 L -224.149,-20.1594
 L -223.882,-19.5912 L -223.545,-19.0611 L -223.145,-18.5773 L -222.687,-18.1474 L -222.179,-17.7784 L -221.629,-17.4759
 L -221.045,-17.2447 L -220.437,-17.0886 L -219.814,-17.0099 L 219.814,-17.0099 z
M 112.312,-21.0059 L 111.938,-21.0531 L 111.573,-21.1468 L 111.223,-21.2855 L 110.893,-21.467 L 110.588,-21.6885
 L 110.313,-21.9464 L 110.073,-22.2366 L 109.871,-22.5547 L 109.711,-22.8956 L 109.594,-23.2539 L 109.524,-23.624
 L 109.5,-24 L 109.524,-24.376 L 109.594,-24.7461 L 109.711,-25.1044 L 109.871,-25.4453 L 110.073,-25.7634
 L 110.313,-26.0536 L 110.588,-26.3115 L 110.893,-26.533 L 111.223,-26.7145 L 111.573,-26.8532 L 111.938,-26.9469
 L 112.312,-26.9941 L 112.688,-26.9941 L 113.062,-26.9469 L 113.427,-26.8532 L 113.777,-26.7145 L 114.107,-26.533
 L 114.412,-26.3115 L 114.687,-26.0536 L 114.927,-25.7634 L 115.129,-25.4453 L 115.289,-25.1044 L 115.406,-24.7461
 L 115.476,-24.376 L 115.5,-24 L 115.476,-23.624 L 115.406,-23.2539 L 115.289,-22.8956 L 115.129,-22.5547
 L 114.927,-22.2366 L 114.687,-21.9464 L 114.412,-21.6885 L 114.107,-21.467 L 113.777,-21.2855 L 113.427,-21.1468
 L 113.062,-21.0531 L 112.688,-21.0059 z
M -67.6884,-21.0059 L -68.0621,-21.0531 L -68.427,-21.1468 L -68.7773,-21.2855 L -69.1075,-21.467 L -69.4123,-21.6885
 L -69.6869,-21.9464 L -69.927,-22.2366 L -70.1289,-22.5547 L -70.2893,-22.8956 L -70.4057,-23.2539 L -70.4763,-23.624
 L -70.5,-24 L -70.4763,-24.376 L -70.4057,-24.7461 L -70.2893,-25.1044 L -70.1289,-25.4453 L -69.927,-25.7634
 L -69.6869,-26.0536 L -69.4123,-26.3115 L -69.1075,-26.533 L -68.7773,-26.7145 L -68.427,-26.8532 L -68.0621,-26.9469
 L -67.6884,-26.9941 L -67.3116,-26.9941 L -66.9379,-26.9469 L -66.573,-26.8532 L -66.2227,-26.7145 L -65.8925,-26.533
 L -65.5877,-26.3115 L -65.3131,-26.0536 L -65.073,-25.7634 L -64.8711,-25.4453 L -64.7107,-25.1044 L -64.5943,-24.7461
 L -64.5237,-24.376 L -64.5,-24 L -64.5237,-23.624 L -64.5943,-23.2539 L -64.7107,-22.8956 L -64.8711,-22.5547
 L -65.073,-22.2366 L -65.3131,-21.9464 L -65.5877,-21.6885 L -65.8925,-21.467 L -66.2227,-21.2855 L -66.573,-21.1468
 L -66.9379,-21.0531 L -67.3116,-21.0059 z
M -82.6884,-21.0059 L -83.0621,-21.0531 L -83.427,-21.1468 L -83.7773,-21.2855 L -84.1075,-21.467 L -84.4123,-21.6885
 L -84.6869,-21.9464 L -84.927,-22.2366 L -85.1289,-22.5547 L -85.2893,-22.8956 L -85.4057,-23.2539 L -85.4763,-23.624
 L -85.5,-24 L -85.4763,-24.376 L -85.4057,-24.7461 L -85.2893,-25.1044 L -85.1289,-25.4453 L -84.927,-25.7634
 L -84.6869,-26.0536 L -84.4123,-26.3115 L -84.1075,-26.533 L -83.7773,-26.7145 L -83.427,-26.8532 L -83.0621,-26.9469
 L -82.6884,-26.9941 L -82.3116,-26.9941 L -81.9379,-26.9469 L -81.573,-26.8532 L -81.2227,-26.7145 L -80.8925,-26.533
 L -80.5877,-26.3115 L -80.3131,-26.0536 L -80.073,-25.7634 L -79.8711,-25.4453 L -79.7107,-25.1044 L -79.5943,-24.7461
 L -79.5237,-24.376 L -79.5,-24 L -79.5237,-23.624 L -79.5943,-23.2539 L -79.7107,-22.8956 L -79.8711,-22.5547
 L -80.073,-22.2366 L -80.3131,-21.9464 L -80.5877,-21.6885 L -80.8925,-21.467 L -81.2227,-21.2855 L -81.573,-21.1468
 L -81.9379,-21.0531 L -82.3116,-21.0059 z
M 7.31161,-21.0059 L 6.93785,-21.0531 L 6.57294,-21.1468 L 6.22266,-21.2855 L 5.89252,-21.467 L 5.58772,-21.6885
 L 5.31308,-21.9464 L 5.07294,-22.2366 L 4.87108,-22.5547 L 4.71066,-22.8956 L 4.59424,-23.2539 L 4.52365,-23.624
 L 4.5,-24 L 4.52365,-24.376 L 4.59424,-24.7461 L 4.71066,-25.1044 L 4.87108,-25.4453 L 5.07294,-25.7634
 L 5.31308,-26.0536 L 5.58772,-26.3115 L 5.89252,-26.533 L 6.22266,-26.7145 L 6.57294,-26.8532 L 6.93785,-26.9469
 L 7.31161,-26.9941 L 7.68837,-26.9941 L 8.06213,-26.9469 L 8.42705,-26.8532 L 8.77733,-26.7145 L 9.10747,-26.533
 L 9.41226,-26.3115 L 9.6869,-26.0536 L 9.92705,-25.7634 L 10.1289,-25.4453 L 10.2893,-25.1044 L 10.4057,-24.7461
 L 10.4763,-24.376 L 10.5,-24 L 10.4763,-23.624 L 10.4057,-23.2539 L 10.2893,-22.8956 L 10.1289,-22.5547
 L 9.92705,-22.2366 L 9.6869,-21.9464 L 9.41226,-21.6885 L 9.10747,-21.467 L 8.77733,-21.2855 L 8.42705,-21.1468
 L 8.06213,-21.0531 L 7.68837,-21.0059 z
M -97.6884,-21.0059 L -98.0621,-21.0531 L -98.427,-21.1468 L -98.7773,-21.2855 L -99.1075,-21.467 L -99.4123,-21.6885
 L -99.6869,-21.9464 L -99.927,-22.2366 L -100.129,-22.5547 L -100.289,-22.8956 L -100.406,-23.2539 L -100.476,-23.624
 L -100.5,-24 L -100.476,-24.376 L -100.406,-24.7461 L -100.289,-25.1044 L -100.129,-25.4453 L -99.927,-25.7634
 L -99.6869,-26.0536 L -99.4123,-26.3115 L -99.1075,-26.533 L -98.7773,-26.7145 L -98.427,-26.8532 L -98.0621,-26.9469
 L -97.6884,-26.9941 L -97.3116,-26.9941 L -96.9379,-26.9469 L -96.573,-26.8532 L -96.2227,-26.7145 L -95.8925,-26.533
 L -95.5877,-26.3115 L -95.3131,-26.0536 L -95.073,-25.7634 L -94.8711,-25.4453 L -94.7107,-25.1044 L -94.5943,-24.7461
 L -94.5237,-24.376 L -94.5,-24 L -94.5237,-23.624 L -94.5943,-23.2539 L -94.7107,-22.8956 L -94.8711,-22.5547
 L -95.073,-22.2366 L -95.3131,-21.9464 L -95.5877,-21.6885 L -95.8925,-21.467 L -96.2227,-21.2855 L -96.573,-21.1468
 L -96.9379,-21.0531 L -97.3116,-21.0059 z
M 52.3116,-21.0059 L 51.9379,-21.0531 L 51.5729,-21.1468 L 51.2227,-21.2855 L 50.8925,-21.467 L 50.5877,-21.6885
 L 50.3131,-21.9464 L 50.0729,-22.2366 L 49.8711,-22.5547 L 49.7107,-22.8956 L 49.5942,-23.2539 L 49.5237,-23.624
 L 49.5,-24 L 49.5237,-24.376 L 49.5942,-24.7461 L 49.7107,-25.1044 L 49.8711,-25.4453 L 50.0729,-25.7634
 L 50.3131,-26.0536 L 50.5877,-26.3115 L 50.8925,-26.533 L 51.2227,-26.7145 L 51.5729,-26.8532 L 51.9379,-26.9469
 L 52.3116,-26.9941 L 52.6884,-26.9941 L 53.0621,-26.9469 L 53.427,-26.8532 L 53.7773,-26.7145 L 54.1075,-26.533
 L 54.4123,-26.3115 L 54.6869,-26.0536 L 54.927,-25.7634 L 55.1289,-25.4453 L 55.2893,-25.1044 L 55.4057,-24.7461
 L 55.4763,-24.376 L 55.5,-24 L 55.4763,-23.624 L 55.4057,-23.2539 L 55.2893,-22.8956 L 55.1289,-22.5547
 L 54.927,-22.2366 L 54.6869,-21.9464 L 54.4123,-21.6885 L 54.1075,-21.467 L 53.7773,-21.2855 L 53.427,-21.1468
 L 53.0621,-21.0531 L 52.6884,-21.0059 z
M -172.688,-21.0059 L -173.062,-21.0531 L -173.427,-21.1468 L -173.777,-21.2855 L -174.107,-21.467 L -174.412,-21.6885
 L -174.687,-21.9464 L -174.927,-22.2366 L -175.129,-22.5547 L -175.289,-22.8956 L -175.406,-23.2539 L -175.476,-23.624
 L -175.5,-24 L -175.476,-24.376 L -175.406,-24.7461 L -175.289,-25.1044 L -175.129,-25.4453 L -174.927,-25.7634
 L -174.687,-26.0536 L -174.412,-26.3115 L -174.107,-26.533 L -173.777,-26.7145 L -173.427,-26.8532 L -173.062,-26.9469
 L -172.688,-26.9941 L -172.312,-26.9941 L -171.938,-26.9469 L -171.573,-26.8532 L -171.223,-26.7145 L -170.893,-26.533
 L -170.588,-26.3115 L -170.313,-26.0536 L -170.073,-25.7634 L -169.871,-25.4453 L -169.711,-25.1044 L -169.594,-24.7461
 L -169.524,-24.376 L -169.5,-24 L -169.524,-23.624 L -169.594,-23.2539 L -169.711,-22.8956 L -169.871,-22.5547
 L -170.073,-22.2366 L -170.313,-21.9464 L -170.588,-21.6885 L -170.893,-21.467 L -171.223,-21.2855 L -171.573,-21.1468
 L -171.938,-21.0531 L -172.312,-21.0059 z
M -127.688,-21.0059 L -128.062,-21.0531 L -128.427,-21.1468 L -128.777,-21.2855 L -129.107,-21.467 L -129.412,-21.6885
 L -129.687,-21.9464 L -129.927,-22.2366 L -130.129,-22.5547 L -130.289,-22.8956 L -130.406,-23.2539 L -130.476,-23.624
 L -130.5,-24 L -130.476,-24.376 L -130.406,-24.7461 L -130.289,-25.1044 L -130.129,-25.4453 L -129.927,-25.7634
 L -129.687,-26.0536 L -129.412,-26.3115 L -129.107,-26.533 L -128.777,-26.7145 L -128.427,-26.8532 L -128.062,-26.9469
 L -127.688,-26.9941 L -127.312,-26.9941 L -126.938,-26.9469 L -126.573,-26.8532 L -126.223,-26.7145 L -125.893,-26.533
 L -125.588,-26.3115 L -125.313,-26.0536 L -125.073,-25.7634 L -124.871,-25.4453 L -124.711,-25.1044 L -124.594,-24.7461
 L -124.524,-24.376 L -124.5,-24 L -124.524,-23.624 L -124.594,-23.2539 L -124.711,-22.8956 L -124.871,-22.5547
 L -125.073,-22.2366 L -125.313,-21.9464 L -125.588,-21.6885 L -125.893,-21.467 L -126.223,-21.2855 L -126.573,-21.1468
 L -126.938,-21.0531 L -127.312,-21.0059 z
M 97.3116,-21.0059 L 96.9379,-21.0531 L 96.573,-21.1468 L 96.2227,-21.2855 L 95.8925,-21.467 L 95.5877,-21.6885
 L 95.3131,-21.9464 L 95.073,-22.2366 L 94.8711,-22.5547 L 94.7107,-22.8956 L 94.5943,-23.2539 L 94.5237,-23.624
 L 94.5,-24 L 94.5237,-24.376 L 94.5943,-24.7461 L 94.7107,-25.1044 L 94.8711,-25.4453 L 95.073,-25.7634
 L 95.3131,-26.0536 L 95.5877,-26.3115 L 95.8925,-26.533 L 96.2227,-26.7145 L 96.573,-26.8532 L 96.9379,-26.9469
 L 97.3116,-26.9941 L 97.6884,-26.9941 L 98.0621,-26.9469 L 98.427,-26.8532 L 98.7773,-26.7145 L 99.1075,-26.533
 L 99.4123,-26.3115 L 99.6869,-26.0536 L 99.927,-25.7634 L 100.129,-25.4453 L 100.289,-25.1044 L 100.406,-24.7461
 L 100.476,-24.376 L 100.5,-24 L 100.476,-23.624 L 100.406,-23.2539 L 100.289,-22.8956 L 100.129,-22.5547
 L 99.927,-22.2366 L 99.6869,-21.9464 L 99.4123,-21.6885 L 99.1075,-21.467 L 98.7773,-21.2855 L 98.427,-21.1468
 L 98.0621,-21.0531 L 97.6884,-21.0059 z
M -112.688,-21.0059 L -113.062,-21.0531 L -113.427,-21.1468 L -113.777,-21.2855 L -114.107,-21.467 L -114.412,-21.6885
 L -114.687,-21.9464 L -114.927,-22.2366 L -115.129,-22.5547 L -115.289,-22.8956 L -115.406,-23.2539 L -115.476,-23.624
 L -115.5,-24 L -115.476,-24.376 L -115.406,-24.7461 L -115.289,-25.1044 L -115.129,-25.4453 L -114.927,-25.7634
 L -114.687,-26.0536 L -114.412,-26.3115 L -114.107,-26.533 L -113.777,-26.7145 L -113.427,-26.8532 L -113.062,-26.9469
 L -112.688,-26.9941 L -112.312,-26.9941 L -111.938,-26.9469 L -111.573,-26.8532 L -111.223,-26.7145 L -110.893,-26.533
 L -110.588,-26.3115 L -110.313,-26.0536 L -110.073,-25.7634 L -109.871,-25.4453 L -109.711,-25.1044 L -109.594,-24.7461
 L -109.524,-24.376 L -109.5,-24 L -109.524,-23.624 L -109.594,-23.2539 L -109.711,-22.8956 L -109.871,-22.5547
 L -110.073,-22.2366 L -110.313,-21.9464 L -110.588,-21.6885 L -110.893,-21.467 L -111.223,-21.2855 L -111.573,-21.1468
 L -111.938,-21.0531 L -112.312,-21.0059 z
M 67.3116,-21.0059 L 66.9379,-21.0531 L 66.573,-21.1468 L 66.2227,-21.2855 L 65.8925,-21.467 L 65.5877,-21.6885
 L 65.3131,-21.9464 L 65.073,-22.2366 L 64.8711,-22.5547 L 64.7107,-22.8956 L 64.5943,-23.2539 L 64.5237,-23.624
 L 64.5,-24 L 64.5237,-24.376 L 64.5943,-24.7461 L 64.7107,-25.1044 L 64.8711,-25.4453 L 65.073,-25.7634
 L 65.3131,-26.0536 L 65.5877,-26.3115 L 65.8925,-26.533 L 66.2227,-26.7145 L 66.573,-26.8532 L 66.9379,-26.9469
 L 67.3116,-26.9941 L 67.6884,-26.9941 L 68.0621,-26.9469 L 68.427,-26.8532 L 68.7773,-26.7145 L 69.1075,-26.533
 L 69.4123,-26.3115 L 69.6869,-26.0536 L 69.927,-25.7634 L 70.1289,-25.4453 L 70.2893,-25.1044 L 70.4057,-24.7461
 L 70.4763,-24.376 L 70.5,-24 L 70.4763,-23.624 L 70.4057,-23.2539 L 70.2893,-22.8956 L 70.1289,-22.5547
 L 69.927,-22.2366 L 69.6869,-21.9464 L 69.4123,-21.6885 L 69.1075,-21.467 L 68.7773,-21.2855 L 68.427,-21.1468
 L 68.0621,-21.0531 L 67.6884,-21.0059 z
M -187.688,-21.0059 L -188.062,-21.0531 L -188.427,-21.1468 L -188.777,-21.2855 L -189.107,-21.467 L -189.412,-21.6885
 L -189.687,-21.9464 L -189.927,-22.2366 L -190.129,-22.5547 L -190.289,-22.8956 L -190.406,-23.2539 L -190.476,-23.624
 L -190.5,-24 L -190.476,-24.376 L -190.406,-24.7461 L -190.289,-25.1044 L -190.129,-25.4453 L -189.927,-25.7634
 L -189.687,-26.0536 L -189.412,-26.3115 L -189.107,-26.533 L -188.777,-26.7145 L -188.427,-26.8532 L -188.062,-26.9469
 L -187.688,-26.9941 L -187.312,-26.9941 L -186.938,-26.9469 L -186.573,-26.8532 L -186.223,-26.7145 L -185.893,-26.533
 L -185.588,-26.3115 L -185.313,-26.0536 L -185.073,-25.7634 L -184.871,-25.4453 L -184.711,-25.1044 L -184.594,-24.7461
 L -184.524,-24.376 L -184.5,-24 L -184.524,-23.624 L -184.594,-23.2539 L -184.711,-22.8956 L -184.871,-22.5547
 L -185.073,-22.2366 L -185.313,-21.9464 L -185.588,-21.6885 L -185.893,-21.467 L -186.223,-21.2855 L -186.573,-21.1468
 L -186.938,-21.0531 L -187.312,-21.0059 z
M -37.6884,-21.0059 L -38.0621,-21.0531 L -38.427,-21.1468 L -38.7773,-21.2855 L -39.1075,-21.467 L -39.4123,-21.6885
 L -39.6869,-21.9464 L -39.927,-22.2366 L -40.1289,-22.5547 L -40.2893,-22.8956 L -40.4057,-23.2539 L -40.4763,-23.624
 L -40.5,-24 L -40.4763,-24.376 L -40.4057,-24.7461 L -40.2893,-25.1044 L -40.1289,-25.4453 L -39.927,-25.7634
 L -39.6869,-26.0536 L -39.4123,-26.3115 L -39.1075,-26.533 L -38.7773,-26.7145 L -38.427,-26.8532 L -38.0621,-26.9469
 L -37.6884,-26.9941 L -37.3116,-26.9941 L -36.9379,-26.9469 L -36.5729,-26.8532 L -36.2227,-26.7145 L -35.8925,-26.533
 L -35.5877,-26.3115 L -35.3131,-26.0536 L -35.0729,-25.7634 L -34.8711,-25.4453 L -34.7107,-25.1044 L -34.5942,-24.7461
 L -34.5237,-24.376 L -34.5,-24 L -34.5237,-23.624 L -34.5942,-23.2539 L -34.7107,-22.8956 L -34.8711,-22.5547
 L -35.0729,-22.2366 L -35.3131,-21.9464 L -35.5877,-21.6885 L -35.8925,-21.467 L -36.2227,-21.2855 L -36.5729,-21.1468
 L -36.9379,-21.0531 L -37.3116,-21.0059 z
M 172.312,-21.0059 L 171.938,-21.0531 L 171.573,-21.1468 L 171.223,-21.2855 L 170.893,-21.467 L 170.588,-21.6885
 L 170.313,-21.9464 L 170.073,-22.2366 L 169.871,-22.5547 L 169.711,-22.8956 L 169.594,-23.2539 L 169.524,-23.624
 L 169.5,-24 L 169.524,-24.376 L 169.594,-24.7461 L 169.711,-25.1044 L 169.871,-25.4453 L 170.073,-25.7634
 L 170.313,-26.0536 L 170.588,-26.3115 L 170.893,-26.533 L 171.223,-26.7145 L 171.573,-26.8532 L 171.938,-26.9469
 L 172.312,-26.9941 L 172.688,-26.9941 L 173.062,-26.9469 L 173.427,-26.8532 L 173.777,-26.7145 L 174.107,-26.533
 L 174.412,-26.3115 L 174.687,-26.0536 L 174.927,-25.7634 L 175.129,-25.4453 L 175.289,-25.1044 L 175.406,-24.7461
 L 175.476,-24.376 L 175.5,-24 L 175.476,-23.624 L 175.406,-23.2539 L 175.289,-22.8956 L 175.129,-22.5547
 L 174.927,-22.2366 L 174.687,-21.9464 L 174.412,-21.6885 L 174.107,-21.467 L 173.777,-21.2855 L 173.427,-21.1468
 L 173.062,-21.0531 L 172.688,-21.0059 z
M -52.6884,-21.0059 L -53.0621,-21.0531 L -53.427,-21.1468 L -53.7773,-21.2855 L -54.1075,-21.467 L -54.4123,-21.6885
 L -54.6869,-21.9464 L -54.927,-22.2366 L -55.1289,-22.5547 L -55.2893,-22.8956 L -55.4057,-23.2539 L -55.4763,-23.624
 L -55.5,-24 L -55.4763,-24.376 L -55.4057,-24.7461 L -55.2893,-25.1044 L -55.1289,-25.4453 L -54.927,-25.7634
 L -54.6869,-26.0536 L -54.4123,-26.3115 L -54.1075,-26.533 L -53.7773,-26.7145 L -53.427,-26.8532 L -53.0621,-26.9469
 L -52.6884,-26.9941 L -52.3116,-26.9941 L -51.9379,-26.9469 L -51.5729,-26.8532 L -51.2227,-26.7145 L -50.8925,-26.533
 L -50.5877,-26.3115 L -50.3131,-26.0536 L -50.0729,-25.7634 L -49.8711,-25.4453 L -49.7107,-25.1044 L -49.5942,-24.7461
 L -49.5237,-24.376 L -49.5,-24 L -49.5237,-23.624 L -49.5942,-23.2539 L -49.7107,-22.8956 L -49.8711,-22.5547
 L -50.0729,-22.2366 L -50.3131,-21.9464 L -50.5877,-21.6885 L -50.8925,-21.467 L -51.2227,-21.2855 L -51.5729,-21.1468
 L -51.9379,-21.0531 L -52.3116,-21.0059 z
M -142.688,-21.0059 L -143.062,-21.0531 L -143.427,-21.1468 L -143.777,-21.2855 L -144.107,-21.467 L -144.412,-21.6885
 L -144.687,-21.9464 L -144.927,-22.2366 L -145.129,-22.5547 L -145.289,-22.8956 L -145.406,-23.2539 L -145.476,-23.624
 L -145.5,-24 L -145.476,-24.376 L -145.406,-24.7461 L -145.289,-25.1044 L -145.129,-25.4453 L -144.927,-25.7634
 L -144.687,-26.0536 L -144.412,-26.3115 L -144.107,-26.533 L -143.777,-26.7145 L -143.427,-26.8532 L -143.062,-26.9469
 L -142.688,-26.9941 L -142.312,-26.9941 L -141.938,-26.9469 L -141.573,-26.8532 L -141.223,-26.7145 L -140.893,-26.533
 L -140.588,-26.3115 L -140.313,-26.0536 L -140.073,-25.7634 L -139.871,-25.4453 L -139.711,-25.1044 L -139.594,-24.7461
 L -139.524,-24.376 L -139.5,-24 L -139.524,-23.624 L -139.594,-23.2539 L -139.711,-22.8956 L -139.871,-22.5547
 L -140.073,-22.2366 L -140.313,-21.9464 L -140.588,-21.6885 L -140.893,-21.467 L -141.223,-21.2855 L -141.573,-21.1468
 L -141.938,-21.0531 L -142.312,-21.0059 z
M -157.688,-21.0059 L -158.062,-21.0531 L -158.427,-21.1468 L -158.777,-21.2855 L -159.107,-21.467 L -159.412,-21.6885
 L -159.687,-21.9464 L -159.927,-22.2366 L -160.129,-22.5547 L -160.289,-22.8956 L -160.406,-23.2539 L -160.476,-23.624
 L -160.5,-24 L -160.476,-24.376 L -160.406,-24.7461 L -160.289,-25.1044 L -160.129,-25.4453 L -159.927,-25.7634
 L -159.687,-26.0536 L -159.412,-26.3115 L -159.107,-26.533 L -158.777,-26.7145 L -158.427,-26.8532 L -158.062,-26.9469
 L -157.688,-26.9941 L -157.312,-26.9941 L -156.938,-26.9469 L -156.573,-26.8532 L -156.223,-26.7145 L -155.893,-26.533
 L -155.588,-26.3115 L -155.313,-26.0536 L -155.073,-25.7634 L -154.871,-25.4453 L -154.711,-25.1044 L -154.594,-24.7461
 L -154.524,-24.376 L -154.5,-24 L -154.524,-23.624 L -154.594,-23.2539 L -154.711,-22.8956 L -154.871,-22.5547
 L -155.073,-22.2366 L -155.313,-21.9464 L -155.588,-21.6885 L -155.893,-21.467 L -156.223,-21.2855 L -156.573,-21.1468
 L -156.938,-21.0531 L -157.312,-21.0059 z
M 217.312,-21.0059 L 216.938,-21.0531 L 216.573,-21.1468 L 216.223,-21.2855 L 215.893,-21.467 L 215.588,-21.6885
 L 215.313,-21.9464 L 215.073,-22.2366 L 214.871,-22.5547 L 214.711,-22.8956 L 214.594,-23.2539 L 214.524,-23.624
 L 214.5,-24 L 214.524,-24.376 L 214.594,-24.7461 L 214.711,-25.1044 L 214.871,-25.4453 L 215.073,-25.7634
 L 215.313,-26.0536 L 215.588,-26.3115 L 215.893,-26.533 L 216.223,-26.7145 L 216.573,-26.8532 L 216.938,-26.9469
 L 217.312,-26.9941 L 217.688,-26.9941 L 218.062,-26.9469 L 218.427,-26.8532 L 218.777,-26.7145 L 219.107,-26.533
 L 219.412,-26.3115 L 219.687,-26.0536 L 219.927,-25.7634 L 220.129,-25.4453 L 220.289,-25.1044 L 220.406,-24.7461
 L 220.476,-24.376 L 220.5,-24 L 220.476,-23.624 L 220.406,-23.2539 L 220.289,-22.8956 L 220.129,-22.5547
 L 219.927,-22.2366 L 219.687,-21.9464 L 219.412,-21.6885 L 219.107,-21.467 L 218.777,-21.2855 L 218.427,-21.1468
 L 218.062,-21.0531 L 217.688,-21.0059 z
M -7.68837,-21.0059 L -8.06213,-21.0531 L -8.42705,-21.1468 L -8.77733,-21.2855 L -9.10747,-21.467 L -9.41226,-21.6885
 L -9.6869,-21.9464 L -9.92705,-22.2366 L -10.1289,-22.5547 L -10.2893,-22.8956 L -10.4057,-23.2539 L -10.4763,-23.624
 L -10.5,-24 L -10.4763,-24.376 L -10.4057,-24.7461 L -10.2893,-25.1044 L -10.1289,-25.4453 L -9.92705,-25.7634
 L -9.6869,-26.0536 L -9.41226,-26.3115 L -9.10747,-26.533 L -8.77733,-26.7145 L -8.42705,-26.8532 L -8.06213,-26.9469
 L -7.68837,-26.9941 L -7.31161,-26.9941 L -6.93785,-26.9469 L -6.57294,-26.8532 L -6.22266,-26.7145 L -5.89252,-26.533
 L -5.58772,-26.3115 L -5.31308,-26.0536 L -5.07294,-25.7634 L -4.87108,-25.4453 L -4.71066,-25.1044 L -4.59424,-24.7461
 L -4.52365,-24.376 L -4.5,-24 L -4.52365,-23.624 L -4.59424,-23.2539 L -4.71066,-22.8956 L -4.87108,-22.5547
 L -5.07294,-22.2366 L -5.31308,-21.9464 L -5.58772,-21.6885 L -5.89252,-21.467 L -6.22266,-21.2855 L -6.57294,-21.1468
 L -6.93785,-21.0531 L -7.31161,-21.0059 z
M 127.312,-21.0059 L 126.938,-21.0531 L 126.573,-21.1468 L 126.223,-21.2855 L 125.893,-21.467 L 125.588,-21.6885
 L 125.313,-21.9464 L 125.073,-22.2366 L 124.871,-22.5547 L 124.711,-22.8956 L 124.594,-23.2539 L 124.524,-23.624
 L 124.5,-24 L 124.524,-24.376 L 124.594,-24.7461 L 124.711,-25.1044 L 124.871,-25.4453 L 125.073,-25.7634
 L 125.313,-26.0536 L 125.588,-26.3115 L 125.893,-26.533 L 126.223,-26.7145 L 126.573,-26.8532 L 126.938,-26.9469
 L 127.312,-26.9941 L 127.688,-26.9941 L 128.062,-26.9469 L 128.427,-26.8532 L 128.777,-26.7145 L 129.107,-26.533
 L 129.412,-26.3115 L 129.687,-26.0536 L 129.927,-25.7634 L 130.129,-25.4453 L 130.289,-25.1044 L 130.406,-24.7461
 L 130.476,-24.376 L 130.5,-24 L 130.476,-23.624 L 130.406,-23.2539 L 130.289,-22.8956 L 130.129,-22.5547
 L 129.927,-22.2366 L 129.687,-21.9464 L 129.412,-21.6885 L 129.107,-21.467 L 128.777,-21.2855 L 128.427,-21.1468
 L 128.062,-21.0531 L 127.688,-21.0059 z
M -202.688,-21.0059 L -203.062,-21.0531 L -203.427,-21.1468 L -203.777,-21.2855 L -204.107,-21.467 L -204.412,-21.6885
 L -204.687,-21.9464 L -204.927,-22.2366 L -205.129,-22.5547 L -205.289,-22.8956 L -205.406,-23.2539 L -205.476,-23.624
 L -205.5,-24 L -205.476,-24.376 L -205.406,-24.7461 L -205.289,-25.1044 L -205.129,-25.4453 L -204.927,-25.7634
 L -204.687,-26.0536 L -204.412,-26.3115 L -204.107,-26.533 L -203.777,-26.7145 L -203.427,-26.8532 L -203.062,-26.9469
 L -202.688,-26.9941 L -202.312,-26.9941 L -201.938,-26.9469 L -201.573,-26.8532 L -201.223,-26.7145 L -200.893,-26.533
 L -200.588,-26.3115 L -200.313,-26.0536 L -200.073,-25.7634 L -199.871,-25.4453 L -199.711,-25.1044 L -199.594,-24.7461
 L -199.524,-24.376 L -199.5,-24 L -199.524,-23.624 L -199.594,-23.2539 L -199.711,-22.8956 L -199.871,-22.5547
 L -200.073,-22.2366 L -200.313,-21.9464 L -200.588,-21.6885 L -200.893,-21.467 L -201.223,-21.2855 L -201.573,-21.1468
 L -201.938,-21.0531 L -202.312,-21.0059 z
M 82.3116,-21.0059 L 81.9379,-21.0531 L 81.573,-21.1468 L 81.2227,-21.2855 L 80.8925,-21.467 L 80.5877,-21.6885
 L 80.3131,-21.9464 L 80.073,-22.2366 L 79.8711,-22.5547 L 79.7107,-22.8956 L 79.5943,-23.2539 L 79.5237,-23.624
 L 79.5,-24 L 79.5237,-24.376 L 79.5943,-24.7461 L 79.7107,-25.1044 L 79.8711,-25.4453 L 80.073,-25.7634
 L 80.3131,-26.0536 L 80.5877,-26.3115 L 80.8925,-26.533 L 81.2227,-26.7145 L 81.573,-26.8532 L 81.9379,-26.9469
 L 82.3116,-26.9941 L 82.6884,-26.9941 L 83.0621,-26.9469 L 83.427,-26.8532 L 83.7773,-26.7145 L 84.1075,-26.533
 L 84.4123,-26.3115 L 84.6869,-26.0536 L 84.927,-25.7634 L 85.1289,-25.4453 L 85.2893,-25.1044 L 85.4057,-24.7461
 L 85.4763,-24.376 L 85.5,-24 L 85.4763,-23.624 L 85.4057,-23.2539 L 85.2893,-22.8956 L 85.1289,-22.5547
 L 84.927,-22.2366 L 84.6869,-21.9464 L 84.4123,-21.6885 L 84.1075,-21.467 L 83.7773,-21.2855 L 83.427,-21.1468
 L 83.0621,-21.0531 L 82.6884,-21.0059 z
M 187.312,-21.0059 L 186.938,-21.0531 L 186.573,-21.1468 L 186.223,-21.2855 L 185.893,-21.467 L 185.588,-21.6885
 L 185.313,-21.9464 L 185.073,-22.2366 L 184.871,-22.5547 L 184.711,-22.8956 L 184.594,-23.2539 L 184.524,-23.624
 L 184.5,-24 L 184.524,-24.376 L 184.594,-24.7461 L 184.711,-25.1044 L 184.871,-25.4453 L 185.073,-25.7634
 L 185.313,-26.0536 L 185.588,-26.3115 L 185.893,-26.533 L 186.223,-26.7145 L 186.573,-26.8532 L 186.938,-26.9469
 L 187.312,-26.9941 L 187.688,-26.9941 L 188.062,-26.9469 L 188.427,-26.8532 L 188.777,-26.7145 L 189.107,-26.533
 L 189.412,-26.3115 L 189.687,-26.0536 L 189.927,-25.7634 L 190.129,-25.4453 L 190.289,-25.1044 L 190.406,-24.7461
 L 190.476,-24.376 L 190.5,-24 L 190.476,-23.624 L 190.406,-23.2539 L 190.289,-22.8956 L 190.129,-22.5547
 L 189.927,-22.2366 L 189.687,-21.9464 L 189.412,-21.6885 L 189.107,-21.467 L 188.777,-21.2855 L 188.427,-21.1468
 L 188.062,-21.0531 L 187.688,-21.0059 z
M -22.6884,-21.0059 L -23.0621,-21.0531 L -23.427,-21.1468 L -23.7773,-21.2855 L -24.1075,-21.467 L -24.4123,-21.6885
 L -24.6869,-21.9464 L -24.927,-22.2366 L -25.1289,-22.5547 L -25.2893,-22.8956 L -25.4057,-23.2539 L -25.4763,-23.624
 L -25.5,-24 L -25.4763,-24.376 L -25.4057,-24.7461 L -25.2893,-25.1044 L -25.1289,-25.4453 L -24.927,-25.7634
 L -24.6869,-26.0536 L -24.4123,-26.3115 L -24.1075,-26.533 L -23.7773,-26.7145 L -23.427,-26.8532 L -23.0621,-26.9469
 L -22.6884,-26.9941 L -22.3116,-26.9941 L -21.9379,-26.9469 L -21.5729,-26.8532 L -21.2227,-26.7145 L -20.8925,-26.533
 L -20.5877,-26.3115 L -20.3131,-26.0536 L -20.0729,-25.7634 L -19.8711,-25.4453 L -19.7107,-25.1044 L -19.5942,-24.7461
 L -19.5237,-24.376 L -19.5,-24 L -19.5237,-23.624 L -19.5942,-23.2539 L -19.7107,-22.8956 L -19.8711,-22.5547
 L -20.0729,-22.2366 L -20.3131,-21.9464 L -20.5877,-21.6885 L -20.8925,-21.467 L -21.2227,-21.2855 L -21.5729,-21.1468
 L -21.9379,-21.0531 L -22.3116,-21.0059 z
M 157.312,-21.0059 L 156.938,-21.0531 L 156.573,-21.1468 L 156.223,-21.2855 L 155.893,-21.467 L 155.588,-21.6885
 L 155.313,-21.9464 L 155.073,-22.2366 L 154.871,-22.5547 L 154.711,-22.8956 L 154.594,-23.2539 L 154.524,-23.624
 L 154.5,-24 L 154.524,-24.376 L 154.594,-24.7461 L 154.711,-25.1044 L 154.871,-25.4453 L 155.073,-25.7634
 L 155.313,-26.0536 L 155.588,-26.3115 L 155.893,-26.533 L 156.223,-26.7145 L 156.573,-26.8532 L 156.938,-26.9469
 L 157.312,-26.9941 L 157.688,-26.9941 L 158.062,-26.9469 L 158.427,-26.8532 L 158.777,-26.7145 L 159.107,-26.533
 L 159.412,-26.3115 L 159.687,-26.0536 L 159.927,-25.7634 L 160.129,-25.4453 L 160.289,-25.1044 L 160.406,-24.7461
 L 160.476,-24.376 L 160.5,-24 L 160.476,-23.624 L 160.406,-23.2539 L 160.289,-22.8956 L 160.129,-22.5547
 L 159.927,-22.2366 L 159.687,-21.9464 L 159.412,-21.6885 L 159.107,-21.467 L 158.777,-21.2855 L 158.427,-21.1468
 L 158.062,-21.0531 L 157.688,-21.0059 z
M 22.3116,-21.0059 L 21.9379,-21.0531 L 21.5729,-21.1468 L 21.2227,-21.2855 L 20.8925,-21.467 L 20.5877,-21.6885
 L 20.3131,-21.9464 L 20.0729,-22.2366 L 19.8711,-22.5547 L 19.7107,-22.8956 L 19.5942,-23.2539 L 19.5237,-23.624
 L 19.5,-24 L 19.5237,-24.376 L 19.5942,-24.7461 L 19.7107,-25.1044 L 19.8711,-25.4453 L 20.0729,-25.7634
 L 20.3131,-26.0536 L 20.5877,-26.3115 L 20.8925,-26.533 L 21.2227,-26.7145 L 21.5729,-26.8532 L 21.9379,-26.9469
 L 22.3116,-26.9941 L 22.6884,-26.9941 L 23.0621,-26.9469 L 23.427,-26.8532 L 23.7773,-26.7145 L 24.1075,-26.533
 L 24.4123,-26.3115 L 24.6869,-26.0536 L 24.927,-25.7634 L 25.1289,-25.4453 L 25.2893,-25.1044 L 25.4057,-24.7461
 L 25.4763,-24.376 L 25.5,-24 L 25.4763,-23.624 L 25.4057,-23.2539 L 25.2893,-22.8956 L 25.1289,-22.5547
 L 24.927,-22.2366 L 24.6869,-21.9464 L 24.4123,-21.6885 L 24.1075,-21.467 L 23.7773,-21.2855 L 23.427,-21.1468
 L 23.0621,-21.0531 L 22.6884,-21.0059 z
M 37.3116,-21.0059 L 36.9379,-21.0531 L 36.5729,-21.1468 L 36.2227,-21.2855 L 35.8925,-21.467 L 35.5877,-21.6885
 L 35.3131,-21.9464 L 35.0729,-22.2366 L 34.8711,-22.5547 L 34.7107,-22.8956 L 34.5942,-23.2539 L 34.5237,-23.624
 L 34.5,-24 L 34.5237,-24.376 L 34.5942,-24.7461 L 34.7107,-25.1044 L 34.8711,-25.4453 L 35.0729,-25.7634
 L 35.3131,-26.0536 L 35.5877,-26.3115 L 35.8925,-26.533 L 36.2227,-26.7145 L 36.5729,-26.8532 L 36.9379,-26.9469
 L 37.3116,-26.9941 L 37.6884,-26.9941 L 38.0621,-26.9469 L 38.427,-26.8532 L 38.7773,-26.7145 L 39.1075,-26.533
 L 39.4123,-26.3115 L 39.6869,-26.0536 L 39.927,-25.7634 L 40.1289,-25.4453 L 40.2893,-25.1044 L 40.4057,-24.7461
 L 40.4763,-24.376 L 40.5,-24 L 40.4763,-23.624 L 40.4057,-23.2539 L 40.2893,-22.8956 L 40.1289,-22.5547
 L 39.927,-22.2366 L 39.6869,-21.9464 L 39.4123,-21.6885 L 39.1075,-21.467 L 38.7773,-21.2855 L 38.427,-21.1468
 L 38.0621,-21.0531 L 37.6884,-21.0059 z
M 142.312,-21.0059 L 141.938,-21.0531 L 141.573,-21.1468 L 141.223,-21.2855 L 140.893,-21.467 L 140.588,-21.6885
 L 140.313,-21.9464 L 140.073,-22.2366 L 139.871,-22.5547 L 139.711,-22.8956 L 139.594,-23.2539 L 139.524,-23.624
 L 139.5,-24 L 139.524,-24.376 L 139.594,-24.7461 L 139.711,-25.1044 L 139.871,-25.4453 L 140.073,-25.7634
 L 140.313,-26.0536 L 140.588,-26.3115 L 140.893,-26.533 L 141.223,-26.7145 L 141.573,-26.8532 L 141.938,-26.9469
 L 142.312,-26.9941 L 142.688,-26.9941 L 143.062,-26.9469 L 143.427,-26.8532 L 143.777,-26.7145 L 144.107,-26.533
 L 144.412,-26.3115 L 144.687,-26.0536 L 144.927,-25.7634 L 145.129,-25.4453 L 145.289,-25.1044 L 145.406,-24.7461
 L 145.476,-24.376 L 145.5,-24 L 145.476,-23.624 L 145.406,-23.2539 L 145.289,-22.8956 L 145.129,-22.5547
 L 144.927,-22.2366 L 144.687,-21.9464 L 144.412,-21.6885 L 144.107,-21.467 L 143.777,-21.2855 L 143.427,-21.1468
 L 143.062,-21.0531 L 142.688,-21.0059 z
M -217.688,-21.0059 L -218.062,-21.0531 L -218.427,-21.1468 L -218.777,-21.2855 L -219.107,-21.467 L -219.412,-21.6885
 L -219.687,-21.9464 L -219.927,-22.2366 L -220.129,-22.5547 L -220.289,-22.8956 L -220.406,-23.2539 L -220.476,-23.624
 L -220.5,-24 L -220.476,-24.376 L -220.406,-24.7461 L -220.289,-25.1044 L -220.129,-25.4453 L -219.927,-25.7634
 L -219.687,-26.0536 L -219.412,-26.3115 L -219.107,-26.533 L -218.777,-26.7145 L -218.427,-26.8532 L -218.062,-26.9469
 L -217.688,-26.9941 L -217.312,-26.9941 L -216.938,-26.9469 L -216.573,-26.8532 L -216.223,-26.7145 L -215.893,-26.533
 L -215.588,-26.3115 L -215.313,-26.0536 L -215.073,-25.7634 L -214.871,-25.4453 L -214.711,-25.1044 L -214.594,-24.7461
 L -214.524,-24.376 L -214.5,-24 L -214.524,-23.624 L -214.594,-23.2539 L -214.711,-22.8956 L -214.871,-22.5547
 L -215.073,-22.2366 L -215.313,-21.9464 L -215.588,-21.6885 L -215.893,-21.467 L -216.223,-21.2855 L -216.573,-21.1468
 L -216.938,-21.0531 L -217.312,-21.0059 z
M 202.312,-21.0059 L 201.938,-21.0531 L 201.573,-21.1468 L 201.223,-21.2855 L 200.893,-21.467 L 200.588,-21.6885
 L 200.313,-21.9464 L 200.073,-22.2366 L 199.871,-22.5547 L 199.711,-22.8956 L 199.594,-23.2539 L 199.524,-23.624
 L 199.5,-24 L 199.524,-24.376 L 199.594,-24.7461 L 199.711,-25.1044 L 199.871,-25.4453 L 200.073,-25.7634
 L 200.313,-26.0536 L 200.588,-26.3115 L 200.893,-26.533 L 201.223,-26.7145 L 201.573,-26.8532 L 201.938,-26.9469
 L 202.312,-26.9941 L 202.688,-26.9941 L 203.062,-26.9469 L 203.427,-26.8532 L 203.777,-26.7145 L 204.107,-26.533
 L 204.412,-26.3115 L 204.687,-26.0536 L 204.927,-25.7634 L 205.129,-25.4453 L 205.289,-25.1044 L 205.406,-24.7461
 L 205.476,-24.376 L 205.5,-24 L 205.476,-23.624 L 205.406,-23.2539 L 205.289,-22.8956 L 205.129,-22.5547
 L 204.927,-22.2366 L 204.687,-21.9464 L 204.412,-21.6885 L 204.107,-21.467 L 203.777,-21.2855 L 203.427,-21.1468
 L 203.062,-21.0531 L 202.688,-21.0059 z
" stroke="black" fill="lightgray" stroke-width="0.5"/>
</svg>
