<?xml version="1.0" standalone="no"?>
<!DOCTYPE svg PUBLIC "-//W3C//DTD SVG 1.1//EN" "http://www.w3.org/Graphics/SVG/1.1/DTD/svg11.dtd">
<svg width="44mm" height="206mm" viewBox="-22 -346 44 206" xmlns="http://www.w3.org/2000/svg" version="1.1">
<title>OpenSCAD Model</title>
<path d="
M 17.9369,-302.089 L 18.5451,-302.245 L 19.1289,-302.476 L 19.6791,-302.778 L 20.1871,-303.147 L 20.6448,-303.577
 L 21.0451,-304.061 L 21.3815,-304.591 L 21.6489,-305.159 L 21.8429,-305.757 L 21.9606,-306.373 L 22,-307
 L 22,-341 L 21.9606,-341.627 L 21.8429,-342.243 L 21.6489,-342.841 L 21.3815,-343.409 L 21.0451,-343.939
 L 20.6448,-344.423 L 20.1871,-344.853 L 19.6791,-345.222 L 19.1289,-345.524 L 18.5451,-345.755 L 17.9369,-345.911
 L 17.3139,-345.99 L -17.3139,-345.99 L -17.9369,-345.911 L -18.5451,-345.755 L -19.1289,-345.524 L -19.6791,-345.222
 L -20.1871,-344.853 L -20.6448,-344.423 L -21.0451,-343.939 L -21.3815,-343.409 L -21.6489,-342.841 L -21.8429,-342.243
 L -21.9606,-341.627 L -22,-341 L -22,-307 L -21.9606,-306.373 L -21.8429,-305.757 L -21.6489,-305.159
 L -21.3815,-304.591 L -21.0451,-304.061 L -20.6448,-303.577 L -20.1871,-303.147 L -19.6791,-302.778 L -19.1289,-302.476
 L -18.5451,-302.245 L -17.9369,-302.089 L -17.3139,-302.01 L 17.3139,-302.01 z
M 14.8116,-336.006 L 14.4379,-336.053 L 14.0729,-336.147 L 13.7227,-336.286 L 13.3925,-336.467 L 13.0877,-336.688
 L 12.8131,-336.946 L 12.5729,-337.237 L 12.3711,-337.555 L 12.2107,-337.896 L 12.0942,-338.254 L 12.0237,-338.624
 L 12,-339 L 12.0237,-339.376 L 12.0942,-339.746 L 12.2107,-340.104 L 12.3711,-340.445 L 12.5729,-340.763
 L 12.8131,-341.054 L 13.0877,-341.312 L 13.3925,-341.533 L 13.7227,-341.714 L 14.0729,-341.853 L 14.4379,-341.947
 L 14.8116,-341.994 L 15.1884,-341.994 L 15.5621,-341.947 L 15.927,-341.853 L 16.2773,-341.714 L 16.6075,-341.533
 L 16.9123,-341.312 L 17.1869,-341.054 L 17.427,-340.763 L 17.6289,-340.445 L 17.7893,-340.104 L 17.9057,-339.746
 L 17.9763,-339.376 L 18,-339 L 17.9763,-338.624 L 17.9057,-338.254 L 17.7893,-337.896 L 17.6289,-337.555
 L 17.427,-337.237 L 17.1869,-336.946 L 16.9123,-336.688 L 16.6075,-336.467 L 16.2773,-336.286 L 15.927,-336.147
 L 15.5621,-336.053 L 15.1884,-336.006 z
M -0.18837,-336.006 L -0.562134,-336.053 L -0.927048,-336.147 L -1.27733,-336.286 L -1.60747,-336.467 L -1.91226,-336.688
 L -2.1869,-336.946 L -2.42705,-337.237 L -2.62891,-337.555 L -2.78932,-337.896 L -2.90575,-338.254 L -2.97633,-338.624
 L -3,-339 L -2.97633,-339.376 L -2.90575,-339.746 L -2.78932,-340.104 L -2.62891,-340.445 L -2.42705,-340.763
 L -2.1869,-341.054 L -1.91226,-341.312 L -1.60747,-341.533 L -1.27733,-341.714 L -0.927048,-341.853 L -0.562134,-341.947
 L -0.18837,-341.994 L 0.18837,-341.994 L 0.562134,-341.947 L 0.927048,-341.853 L 1.27733,-341.714 L 1.60747,-341.533
 L 1.91226,-341.312 L 2.1869,-341.054 L 2.42705,-340.763 L 2.62891,-340.445 L 2.78932,-340.104 L 2.90575,-339.746
 L 2.97633,-339.376 L 3,-339 L 2.97633,-338.624 L 2.90575,-338.254 L 2.78932,-337.896 L 2.62891,-337.555
 L 2.42705,-337.237 L 2.1869,-336.946 L 1.91226,-336.688 L 1.60747,-336.467 L 1.27733,-336.286 L 0.927048,-336.147
 L 0.562134,-336.053 L 0.18837,-336.006 z
M -15.1884,-336.006 L -15.5621,-336.053 L -15.927,-336.147 L -16.2773,-336.286 L -16.6075,-336.467 L -16.9123,-336.688
 L -17.1869,-336.946 L -17.427,-337.237 L -17.6289,-337.555 L -17.7893,-337.896 L -17.9057,-338.254 L -17.9763,-338.624
 L -18,-339 L -17.9763,-339.376 L -17.9057,-339.746 L -17.7893,-340.104 L -17.6289,-340.445 L -17.427,-340.763
 L -17.1869,-341.054 L -16.9123,-341.312 L -16.6075,-341.533 L -16.2773,-341.714 L -15.927,-341.853 L -15.5621,-341.947
 L -15.1884,-341.994 L -14.8116,-341.994 L -14.4379,-341.947 L -14.0729,-341.853 L -13.7227,-341.714 L -13.3925,-341.533
 L -13.0877,-341.312 L -12.8131,-341.054 L -12.5729,-340.763 L -12.3711,-340.445 L -12.2107,-340.104 L -12.0942,-339.746
 L -12.0237,-339.376 L -12,-339 L -12.0237,-338.624 L -12.0942,-338.254 L -12.2107,-337.896 L -12.3711,-337.555
 L -12.5729,-337.237 L -12.8131,-336.946 L -13.0877,-336.688 L -13.3925,-336.467 L -13.7227,-336.286 L -14.0729,-336.147
 L -14.4379,-336.053 L -14.8116,-336.006 z
M -0.18837,-321.006 L -0.562134,-321.053 L -0.927048,-321.147 L -1.27733,-321.286 L -1.60747,-321.467 L -1.91226,-321.688
 L -2.1869,-321.946 L -2.42705,-322.237 L -2.62891,-322.555 L -2.78932,-322.896 L -2.90575,-323.254 L -2.97633,-323.624
 L -3,-324 L -2.97633,-324.376 L -2.90575,-324.746 L -2.78932,-325.104 L -2.62891,-325.445 L -2.42705,-325.763
 L -2.1869,-326.054 L -1.91226,-326.312 L -1.60747,-326.533 L -1.27733,-326.714 L -0.927048,-326.853 L -0.562134,-326.947
 L -0.18837,-326.994 L 0.18837,-326.994 L 0.562134,-326.947 L 0.927048,-326.853 L 1.27733,-326.714 L 1.60747,-326.533
 L 1.91226,-326.312 L 2.1869,-326.054 L 2.42705,-325.763 L 2.62891,-325.445 L 2.78932,-325.104 L 2.90575,-324.746
 L 2.97633,-324.376 L 3,-324 L 2.97633,-323.624 L 2.90575,-323.254 L 2.78932,-322.896 L 2.62891,-322.555
 L 2.42705,-322.237 L 2.1869,-321.946 L 1.91226,-321.688 L 1.60747,-321.467 L 1.27733,-321.286 L 0.927048,-321.147
 L 0.562134,-321.053 L 0.18837,-321.006 z
M -15.1884,-321.006 L -15.5621,-321.053 L -15.927,-321.147 L -16.2773,-321.286 L -16.6075,-321.467 L -16.9123,-321.688
 L -17.1869,-321.946 L -17.427,-322.237 L -17.6289,-322.555 L -17.7893,-322.896 L -17.9057,-323.254 L -17.9763,-323.624
 L -18,-324 L -17.9763,-324.376 L -17.9057,-324.746 L -17.7893,-325.104 L -17.6289,-325.445 L -17.427,-325.763
 L -17.1869,-326.054 L -16.9123,-326.312 L -16.6075,-326.533 L -16.2773,-326.714 L -15.927,-326.853 L -15.5621,-326.947
 L -15.1884,-326.994 L -14.8116,-326.994 L -14.4379,-326.947 L -14.0729,-326.853 L -13.7227,-326.714 L -13.3925,-326.533
 L -13.0877,-326.312 L -12.8131,-326.054 L -12.5729,-325.763 L -12.3711,-325.445 L -12.2107,-325.104 L -12.0942,-324.746
 L -12.0237,-324.376 L -12,-324 L -12.0237,-323.624 L -12.0942,-323.254 L -12.2107,-322.896 L -12.3711,-322.555
 L -12.5729,-322.237 L -12.8131,-321.946 L -13.0877,-321.688 L -13.3925,-321.467 L -13.7227,-321.286 L -14.0729,-321.147
 L -14.4379,-321.053 L -14.8116,-321.006 z
M 14.8116,-321.006 L 14.4379,-321.053 L 14.0729,-321.147 L 13.7227,-321.286 L 13.3925,-321.467 L 13.0877,-321.688
 L 12.8131,-321.946 L 12.5729,-322.237 L 12.3711,-322.555 L 12.2107,-322.896 L 12.0942,-323.254 L 12.0237,-323.624
 L 12,-324 L 12.0237,-324.376 L 12.0942,-324.746 L 12.2107,-325.104 L 12.3711,-325.445 L 12.5729,-325.763
 L 12.8131,-326.054 L 13.0877,-326.312 L 13.3925,-326.533 L 13.7227,-326.714 L 14.0729,-326.853 L 14.4379,-326.947
 L 14.8116,-326.994 L 15.1884,-326.994 L 15.5621,-326.947 L 15.927,-326.853 L 16.2773,-326.714 L 16.6075,-326.533
 L 16.9123,-326.312 L 17.1869,-326.054 L 17.427,-325.763 L 17.6289,-325.445 L 17.7893,-325.104 L 17.9057,-324.746
 L 17.9763,-324.376 L 18,-324 L 17.9763,-323.624 L 17.9057,-323.254 L 17.7893,-322.896 L 17.6289,-322.555
 L 17.427,-322.237 L 17.1869,-321.946 L 16.9123,-321.688 L 16.6075,-321.467 L 16.2773,-321.286 L 15.927,-321.147
 L 15.5621,-321.053 L 15.1884,-321.006 z
M -15.1884,-306.006 L -15.5621,-306.053 L -15.927,-306.147 L -16.2773,-306.286 L -16.6075,-306.467 L -16.9123,-306.688
 L -17.1869,-306.946 L -17.427,-307.237 L -17.6289,-307.555 L -17.7893,-307.896 L -17.9057,-308.254 L -17.9763,-308.624
 L -18,-309 L -17.9763,-309.376 L -17.9057,-309.746 L -17.7893,-310.104 L -17.6289,-310.445 L -17.427,-310.763
 L -17.1869,-311.054 L -16.9123,-311.312 L -16.6075,-311.533 L -16.2773,-311.714 L -15.927,-311.853 L -15.5621,-311.947
 L -15.1884,-311.994 L -14.8116,-311.994 L -14.4379,-311.947 L -14.0729,-311.853 L -13.7227,-311.714 L -13.3925,-311.533
 L -13.0877,-311.312 L -12.8131,-311.054 L -12.5729,-310.763 L -12.3711,-310.445 L -12.2107,-310.104 L -12.0942,-309.746
 L -12.0237,-309.376 L -12,-309 L -12.0237,-308.624 L -12.0942,-308.254 L -12.2107,-307.896 L -12.3711,-307.555
 L -12.5729,-307.237 L -12.8131,-306.946 L -13.0877,-306.688 L -13.3925,-306.467 L -13.7227,-306.286 L -14.0729,-306.147
 L -14.4379,-306.053 L -14.8116,-306.006 z
M -0.18837,-306.006 L -0.562134,-306.053 L -0.927048,-306.147 L -1.27733,-306.286 L -1.60747,-306.467 L -1.91226,-306.688
 L -2.1869,-306.946 L -2.42705,-307.237 L -2.62891,-307.555 L -2.78932,-307.896 L -2.90575,-308.254 L -2.97633,-308.624
 L -3,-309 L -2.97633,-309.376 L -2.90575,-309.746 L -2.78932,-310.104 L -2.62891,-310.445 L -2.42705,-310.763
 L -2.1869,-311.054 L -1.91226,-311.312 L -1.60747,-311.533 L -1.27733,-311.714 L -0.927048,-311.853 L -0.562134,-311.947
 L -0.18837,-311.994 L 0.18837,-311.994 L 0.562134,-311.947 L 0.927048,-311.853 L 1.27733,-311.714 L 1.60747,-311.533
 L 1.91226,-311.312 L 2.1869,-311.054 L 2.42705,-310.763 L 2.62891,-310.445 L 2.78932,-310.104 L 2.90575,-309.746
 L 2.97633,-309.376 L 3,-309 L 2.97633,-308.624 L 2.90575,-308.254 L 2.78932,-307.896 L 2.62891,-307.555
 L 2.42705,-307.237 L 2.1869,-306.946 L 1.91226,-306.688 L 1.60747,-306.467 L 1.27733,-306.286 L 0.927048,-306.147
 L 0.562134,-306.053 L 0.18837,-306.006 z
M 14.8116,-306.006 L 14.4379,-306.053 L 14.0729,-306.147 L 13.7227,-306.286 L 13.3925,-306.467 L 13.0877,-306.688
 L 12.8131,-306.946 L 12.5729,-307.237 L 12.3711,-307.555 L 12.2107,-307.896 L 12.0942,-308.254 L 12.0237,-308.624
 L 12,-309 L 12.0237,-309.376 L 12.0942,-309.746 L 12.2107,-310.104 L 12.3711,-310.445 L 12.5729,-310.763
 L 12.8131,-311.054 L 13.0877,-311.312 L 13.3925,-311.533 L 13.7227,-311.714 L 14.0729,-311.853 L 14.4379,-311.947
 L 14.8116,-311.994 L 15.1884,-311.994 L 15.5621,-311.947 L 15.927,-311.853 L 16.2773,-311.714 L 16.6075,-311.533
 L 16.9123,-311.312 L 17.1869,-311.054 L 17.427,-310.763 L 17.6289,-310.445 L 17.7893,-310.104 L 17.9057,-309.746
 L 17.9763,-309.376 L 18,-309 L 17.9763,-308.624 L 17.9057,-308.254 L 17.7893,-307.896 L 17.6289,-307.555
 L 17.427,-307.237 L 17.1869,-306.946 L 16.9123,-306.688 L 16.6075,-306.467 L 16.2773,-306.286 L 15.927,-306.147
 L 15.5621,-306.053 L 15.1884,-306.006 z
M 17.9369,-248.089 L 18.5451,-248.245 L 19.1289,-248.476 L 19.6791,-248.778 L 20.1871,-249.147 L 20.6448,-249.577
 L 21.0451,-250.061 L 21.3815,-250.591 L 21.6489,-251.159 L 21.8429,-251.757 L 21.9606,-252.373 L 22,-253
 L 22,-287 L 21.9606,-287.627 L 21.8429,-288.243 L 21.6489,-288.841 L 21.3815,-289.409 L 21.0451,-289.939
 L 20.6448,-290.423 L 20.1871,-290.853 L 19.6791,-291.222 L 19.1289,-291.524 L 18.5451,-291.755 L 17.9369,-291.911
 L 17.3139,-291.99 L -17.3139,-291.99 L -17.9369,-291.911 L -18.5451,-291.755 L -19.1289,-291.524 L -19.6791,-291.222
 L -20.1871,-290.853 L -20.6448,-290.423 L -21.0451,-289.939 L -21.3815,-289.409 L -21.6489,-288.841 L -21.8429,-288.243
 L -21.9606,-287.627 L -22,-287 L -22,-253 L -21.9606,-252.373 L -21.8429,-251.757 L -21.6489,-251.159
 L -21.3815,-250.591 L -21.0451,-250.061 L -20.6448,-249.577 L -20.1871,-249.147 L -19.6791,-248.778 L -19.1289,-248.476
 L -18.5451,-248.245 L -17.9369,-248.089 L -17.3139,-248.01 L 17.3139,-248.01 z
M 14.8116,-282.006 L 14.4379,-282.053 L 14.0729,-282.147 L 13.7227,-282.286 L 13.3925,-282.467 L 13.0877,-282.688
 L 12.8131,-282.946 L 12.5729,-283.237 L 12.3711,-283.555 L 12.2107,-283.896 L 12.0942,-284.254 L 12.0237,-284.624
 L 12,-285 L 12.0237,-285.376 L 12.0942,-285.746 L 12.2107,-286.104 L 12.3711,-286.445 L 12.5729,-286.763
 L 12.8131,-287.054 L 13.0877,-287.312 L 13.3925,-287.533 L 13.7227,-287.714 L 14.0729,-287.853 L 14.4379,-287.947
 L 14.8116,-287.994 L 15.1884,-287.994 L 15.5621,-287.947 L 15.927,-287.853 L 16.2773,-287.714 L 16.6075,-287.533
 L 16.9123,-287.312 L 17.1869,-287.054 L 17.427,-286.763 L 17.6289,-286.445 L 17.7893,-286.104 L 17.9057,-285.746
 L 17.9763,-285.376 L 18,-285 L 17.9763,-284.624 L 17.9057,-284.254 L 17.7893,-283.896 L 17.6289,-283.555
 L 17.427,-283.237 L 17.1869,-282.946 L 16.9123,-282.688 L 16.6075,-282.467 L 16.2773,-282.286 L 15.927,-282.147
 L 15.5621,-282.053 L 15.1884,-282.006 z
M -0.18837,-282.006 L -0.562134,-282.053 L -0.927048,-282.147 L -1.27733,-282.286 L -1.60747,-282.467 L -1.91226,-282.688
 L -2.1869,-282.946 L -2.42705,-283.237 L -2.62891,-283.555 L -2.78932,-283.896 L -2.90575,-284.254 L -2.97633,-284.624
 L -3,-285 L -2.97633,-285.376 L -2.90575,-285.746 L -2.78932,-286.104 L -2.62891,-286.445 L -2.42705,-286.763
 L -2.1869,-287.054 L -1.91226,-287.312 L -1.60747,-287.533 L -1.27733,-287.714 L -0.927048,-287.853 L -0.562134,-287.947
 L -0.18837,-287.994 L 0.18837,-287.994 L 0.562134,-287.947 L 0.927048,-287.853 L 1.27733,-287.714 L 1.60747,-287.533
 L 1.91226,-287.312 L 2.1869,-287.054 L 2.42705,-286.763 L 2.62891,-286.445 L 2.78932,-286.104 L 2.90575,-285.746
 L 2.97633,-285.376 L 3,-285 L 2.97633,-284.624 L 2.90575,-284.254 L 2.78932,-283.896 L 2.62891,-283.555
 L 2.42705,-283.237 L 2.1869,-282.946 L 1.91226,-282.688 L 1.60747,-282.467 L 1.27733,-282.286 L 0.927048,-282.147
 L 0.562134,-282.053 L 0.18837,-282.006 z
M -15.1884,-282.006 L -15.5621,-282.053 L -15.927,-282.147 L -16.2773,-282.286 L -16.6075,-282.467 L -16.9123,-282.688
 L -17.1869,-282.946 L -17.427,-283.237 L -17.6289,-283.555 L -17.7893,-283.896 L -17.9057,-284.254 L -17.9763,-284.624
 L -18,-285 L -17.9763,-285.376 L -17.9057,-285.746 L -17.7893,-286.104 L -17.6289,-286.445 L -17.427,-286.763
 L -17.1869,-287.054 L -16.9123,-287.312 L -16.6075,-287.533 L -16.2773,-287.714 L -15.927,-287.853 L -15.5621,-287.947
 L -15.1884,-287.994 L -14.8116,-287.994 L -14.4379,-287.947 L -14.0729,-287.853 L -13.7227,-287.714 L -13.3925,-287.533
 L -13.0877,-287.312 L -12.8131,-287.054 L -12.5729,-286.763 L -12.3711,-286.445 L -12.2107,-286.104 L -12.0942,-285.746
 L -12.0237,-285.376 L -12,-285 L -12.0237,-284.624 L -12.0942,-284.254 L -12.2107,-283.896 L -12.3711,-283.555
 L -12.5729,-283.237 L -12.8131,-282.946 L -13.0877,-282.688 L -13.3925,-282.467 L -13.7227,-282.286 L -14.0729,-282.147
 L -14.4379,-282.053 L -14.8116,-282.006 z
M -0.18837,-267.006 L -0.562134,-267.053 L -0.927048,-267.147 L -1.27733,-267.286 L -1.60747,-267.467 L -1.91226,-267.688
 L -2.1869,-267.946 L -2.42705,-268.237 L -2.62891,-268.555 L -2.78932,-268.896 L -2.90575,-269.254 L -2.97633,-269.624
 L -3,-270 L -2.97633,-270.376 L -2.90575,-270.746 L -2.78932,-271.104 L -2.62891,-271.445 L -2.42705,-271.763
 L -2.1869,-272.054 L -1.91226,-272.312 L -1.60747,-272.533 L -1.27733,-272.714 L -0.927048,-272.853 L -0.562134,-272.947
 L -0.18837,-272.994 L 0.18837,-272.994 L 0.562134,-272.947 L 0.927048,-272.853 L 1.27733,-272.714 L 1.60747,-272.533
 L 1.91226,-272.312 L 2.1869,-272.054 L 2.42705,-271.763 L 2.62891,-271.445 L 2.78932,-271.104 L 2.90575,-270.746
 L 2.97633,-270.376 L 3,-270 L 2.97633,-269.624 L 2.90575,-269.254 L 2.78932,-268.896 L 2.62891,-268.555
 L 2.42705,-268.237 L 2.1869,-267.946 L 1.91226,-267.688 L 1.60747,-267.467 L 1.27733,-267.286 L 0.927048,-267.147
 L 0.562134,-267.053 L 0.18837,-267.006 z
M -15.1884,-267.006 L -15.5621,-267.053 L -15.927,-267.147 L -16.2773,-267.286 L -16.6075,-267.467 L -16.9123,-267.688
 L -17.1869,-267.946 L -17.427,-268.237 L -17.6289,-268.555 L -17.7893,-268.896 L -17.9057,-269.254 L -17.9763,-269.624
 L -18,-270 L -17.9763,-270.376 L -17.9057,-270.746 L -17.7893,-271.104 L -17.6289,-271.445 L -17.427,-271.763
 L -17.1869,-272.054 L -16.9123,-272.312 L -16.6075,-272.533 L -16.2773,-272.714 L -15.927,-272.853 L -15.5621,-272.947
 L -15.1884,-272.994 L -14.8116,-272.994 L -14.4379,-272.947 L -14.0729,-272.853 L -13.7227,-272.714 L -13.3925,-272.533
 L -13.0877,-272.312 L -12.8131,-272.054 L -12.5729,-271.763 L -12.3711,-271.445 L -12.2107,-271.104 L -12.0942,-270.746
 L -12.0237,-270.376 L -12,-270 L -12.0237,-269.624 L -12.0942,-269.254 L -12.2107,-268.896 L -12.3711,-268.555
 L -12.5729,-268.237 L -12.8131,-267.946 L -13.0877,-267.688 L -13.3925,-267.467 L -13.7227,-267.286 L -14.0729,-267.147
 L -14.4379,-267.053 L -14.8116,-267.006 z
M 14.8116,-267.006 L 14.4379,-267.053 L 14.0729,-267.147 L 13.7227,-267.286 L 13.3925,-267.467 L 13.0877,-267.688
 L 12.8131,-267.946 L 12.5729,-268.237 L 12.3711,-268.555 L 12.2107,-268.896 L 12.0942,-269.254 L 12.0237,-269.624
 L 12,-270 L 12.0237,-270.376 L 12.0942,-270.746 L 12.2107,-271.104 L 12.3711,-271.445 L 12.5729,-271.763
 L 12.8131,-272.054 L 13.0877,-272.312 L 13.3925,-272.533 L 13.7227,-272.714 L 14.0729,-272.853 L 14.4379,-272.947
 L 14.8116,-272.994 L 15.1884,-272.994 L 15.5621,-272.947 L 15.927,-272.853 L 16.2773,-272.714 L 16.6075,-272.533
 L 16.9123,-272.312 L 17.1869,-272.054 L 17.427,-271.763 L 17.6289,-271.445 L 17.7893,-271.104 L 17.9057,-270.746
 L 17.9763,-270.376 L 18,-270 L 17.9763,-269.624 L 17.9057,-269.254 L 17.7893,-268.896 L 17.6289,-268.555
 L 17.427,-268.237 L 17.1869,-267.946 L 16.9123,-267.688 L 16.6075,-267.467 L 16.2773,-267.286 L 15.927,-267.147
 L 15.5621,-267.053 L 15.1884,-267.006 z
M -15.1884,-252.006 L -15.5621,-252.053 L -15.927,-252.147 L -16.2773,-252.286 L -16.6075,-252.467 L -16.9123,-252.688
 L -17.1869,-252.946 L -17.427,-253.237 L -17.6289,-253.555 L -17.7893,-253.896 L -17.9057,-254.254 L -17.9763,-254.624
 L -18,-255 L -17.9763,-255.376 L -17.9057,-255.746 L -17.7893,-256.104 L -17.6289,-256.445 L -17.427,-256.763
 L -17.1869,-257.054 L -16.9123,-257.312 L -16.6075,-257.533 L -16.2773,-257.714 L -15.927,-257.853 L -15.5621,-257.947
 L -15.1884,-257.994 L -14.8116,-257.994 L -14.4379,-257.947 L -14.0729,-257.853 L -13.7227,-257.714 L -13.3925,-257.533
 L -13.0877,-257.312 L -12.8131,-257.054 L -12.5729,-256.763 L -12.3711,-256.445 L -12.2107,-256.104 L -12.0942,-255.746
 L -12.0237,-255.376 L -12,-255 L -12.0237,-254.624 L -12.0942,-254.254 L -12.2107,-253.896 L -12.3711,-253.555
 L -12.5729,-253.237 L -12.8131,-252.946 L -13.0877,-252.688 L -13.3925,-252.467 L -13.7227,-252.286 L -14.0729,-252.147
 L -14.4379,-252.053 L -14.8116,-252.006 z
M -0.18837,-252.006 L -0.562134,-252.053 L -0.927048,-252.147 L -1.27733,-252.286 L -1.60747,-252.467 L -1.91226,-252.688
 L -2.1869,-252.946 L -2.42705,-253.237 L -2.62891,-253.555 L -2.78932,-253.896 L -2.90575,-254.254 L -2.97633,-254.624
 L -3,-255 L -2.97633,-255.376 L -2.90575,-255.746 L -2.78932,-256.104 L -2.62891,-256.445 L -2.42705,-256.763
 L -2.1869,-257.054 L -1.91226,-257.312 L -1.60747,-257.533 L -1.27733,-257.714 L -0.927048,-257.853 L -0.562134,-257.947
 L -0.18837,-257.994 L 0.18837,-257.994 L 0.562134,-257.947 L 0.927048,-257.853 L 1.27733,-257.714 L 1.60747,-257.533
 L 1.91226,-257.312 L 2.1869,-257.054 L 2.42705,-256.763 L 2.62891,-256.445 L 2.78932,-256.104 L 2.90575,-255.746
 L 2.97633,-255.376 L 3,-255 L 2.97633,-254.624 L 2.90575,-254.254 L 2.78932,-253.896 L 2.62891,-253.555
 L 2.42705,-253.237 L 2.1869,-252.946 L 1.91226,-252.688 L 1.60747,-252.467 L 1.27733,-252.286 L 0.927048,-252.147
 L 0.562134,-252.053 L 0.18837,-252.006 z
M 14.8116,-252.006 L 14.4379,-252.053 L 14.0729,-252.147 L 13.7227,-252.286 L 13.3925,-252.467 L 13.0877,-252.688
 L 12.8131,-252.946 L 12.5729,-253.237 L 12.3711,-253.555 L 12.2107,-253.896 L 12.0942,-254.254 L 12.0237,-254.624
 L 12,-255 L 12.0237,-255.376 L 12.0942,-255.746 L 12.2107,-256.104 L 12.3711,-256.445 L 12.5729,-256.763
 L 12.8131,-257.054 L 13.0877,-257.312 L 13.3925,-257.533 L 13.7227,-257.714 L 14.0729,-257.853 L 14.4379,-257.947
 L 14.8116,-257.994 L 15.1884,-257.994 L 15.5621,-257.947 L 15.927,-257.853 L 16.2773,-257.714 L 16.6075,-257.533
 L 16.9123,-257.312 L 17.1869,-257.054 L 17.427,-256.763 L 17.6289,-256.445 L 17.7893,-256.104 L 17.9057,-255.746
 L 17.9763,-255.376 L 18,-255 L 17.9763,-254.624 L 17.9057,-254.254 L 17.7893,-253.896 L 17.6289,-253.555
 L 17.427,-253.237 L 17.1869,-252.946 L 16.9123,-252.688 L 16.6075,-252.467 L 16.2773,-252.286 L 15.927,-252.147
 L 15.5621,-252.053 L 15.1884,-252.006 z
M 17.9369,-194.089 L 18.5451,-194.245 L 19.1289,-194.476 L 19.6791,-194.778 L 20.1871,-195.147 L 20.6448,-195.577
 L 21.0451,-196.061 L 21.3815,-196.591 L 21.6489,-197.159 L 21.8429,-197.757 L 21.9606,-198.373 L 22,-199
 L 22,-233 L 21.9606,-233.627 L 21.8429,-234.243 L 21.6489,-234.841 L 21.3815,-235.409 L 21.0451,-235.939
 L 20.6448,-236.423 L 20.1871,-236.853 L 19.6791,-237.222 L 19.1289,-237.524 L 18.5451,-237.755 L 17.9369,-237.911
 L 17.3139,-237.99 L -17.3139,-237.99 L -17.9369,-237.911 L -18.5451,-237.755 L -19.1289,-237.524 L -19.6791,-237.222
 L -20.1871,-236.853 L -20.6448,-236.423 L -21.0451,-235.939 L -21.3815,-235.409 L -21.6489,-234.841 L -21.8429,-234.243
 L -21.9606,-233.627 L -22,-233 L -22,-199 L -21.9606,-198.373 L -21.8429,-197.757 L -21.6489,-197.159
 L -21.3815,-196.591 L -21.0451,-196.061 L -20.6448,-195.577 L -20.1871,-195.147 L -19.6791,-194.778 L -19.1289,-194.476
 L -18.5451,-194.245 L -17.9369,-194.089 L -17.3139,-194.01 L 17.3139,-194.01 z
M -0.18837,-228.006 L -0.562134,-228.053 L -0.927048,-228.147 L -1.27733,-228.286 L -1.60747,-228.467 L -1.91226,-228.688
 L -2.1869,-228.946 L -2.42705,-229.237 L -2.62891,-229.555 L -2.78932,-229.896 L -2.90575,-230.254 L -2.97633,-230.624
 L -3,-231 L -2.97633,-231.376 L -2.90575,-231.746 L -2.78932,-232.104 L -2.62891,-232.445 L -2.42705,-232.763
 L -2.1869,-233.054 L -1.91226,-233.312 L -1.60747,-233.533 L -1.27733,-233.714 L -0.927048,-233.853 L -0.562134,-233.947
 L -0.18837,-233.994 L 0.18837,-233.994 L 0.562134,-233.947 L 0.927048,-233.853 L 1.27733,-233.714 L 1.60747,-233.533
 L 1.91226,-233.312 L 2.1869,-233.054 L 2.42705,-232.763 L 2.62891,-232.445 L 2.78932,-232.104 L 2.90575,-231.746
 L 2.97633,-231.376 L 3,-231 L 2.97633,-230.624 L 2.90575,-230.254 L 2.78932,-229.896 L 2.62891,-229.555
 L 2.42705,-229.237 L 2.1869,-228.946 L 1.91226,-228.688 L 1.60747,-228.467 L 1.27733,-228.286 L 0.927048,-228.147
 L 0.562134,-228.053 L 0.18837,-228.006 z
M 14.8116,-228.006 L 14.4379,-228.053 L 14.0729,-228.147 L 13.7227,-228.286 L 13.3925,-228.467 L 13.0877,-228.688
 L 12.8131,-228.946 L 12.5729,-229.237 L 12.3711,-229.555 L 12.2107,-229.896 L 12.0942,-230.254 L 12.0237,-230.624
 L 12,-231 L 12.0237,-231.376 L 12.0942,-231.746 L 12.2107,-232.104 L 12.3711,-232.445 L 12.5729,-232.763
 L 12.8131,-233.054 L 13.0877,-233.312 L 13.3925,-233.533 L 13.7227,-233.714 L 14.0729,-233.853 L 14.4379,-233.947
 L 14.8116,-233.994 L 15.1884,-233.994 L 15.5621,-233.947 L 15.927,-233.853 L 16.2773,-233.714 L 16.6075,-233.533
 L 16.9123,-233.312 L 17.1869,-233.054 L 17.427,-232.763 L 17.6289,-232.445 L 17.7893,-232.104 L 17.9057,-231.746
 L 17.9763,-231.376 L 18,-231 L 17.9763,-230.624 L 17.9057,-230.254 L 17.7893,-229.896 L 17.6289,-229.555
 L 17.427,-229.237 L 17.1869,-228.946 L 16.9123,-228.688 L 16.6075,-228.467 L 16.2773,-228.286 L 15.927,-228.147
 L 15.5621,-228.053 L 15.1884,-228.006 z
M -15.1884,-228.006 L -15.5621,-228.053 L -15.927,-228.147 L -16.2773,-228.286 L -16.6075,-228.467 L -16.9123,-228.688
 L -17.1869,-228.946 L -17.427,-229.237 L -17.6289,-229.555 L -17.7893,-229.896 L -17.9057,-230.254 L -17.9763,-230.624
 L -18,-231 L -17.9763,-231.376 L -17.9057,-231.746 L -17.7893,-232.104 L -17.6289,-232.445 L -17.427,-232.763
 L -17.1869,-233.054 L -16.9123,-233.312 L -16.6075,-233.533 L -16.2773,-233.714 L -15.927,-233.853 L -15.5621,-233.947
 L -15.1884,-233.994 L -14.8116,-233.994 L -14.4379,-233.947 L -14.0729,-233.853 L -13.7227,-233.714 L -13.3925,-233.533
 L -13.0877,-233.312 L -12.8131,-233.054 L -12.5729,-232.763 L -12.3711,-232.445 L -12.2107,-232.104 L -12.0942,-231.746
 L -12.0237,-231.376 L -12,-231 L -12.0237,-230.624 L -12.0942,-230.254 L -12.2107,-229.896 L -12.3711,-229.555
 L -12.5729,-229.237 L -12.8131,-228.946 L -13.0877,-228.688 L -13.3925,-228.467 L -13.7227,-228.286 L -14.0729,-228.147
 L -14.4379,-228.053 L -14.8116,-228.006 z
M -0.18837,-213.006 L -0.562134,-213.053 L -0.927048,-213.147 L -1.27733,-213.286 L -1.60747,-213.467 L -1.91226,-213.688
 L -2.1869,-213.946 L -2.42705,-214.237 L -2.62891,-214.555 L -2.78932,-214.896 L -2.90575,-215.254 L -2.97633,-215.624
 L -3,-216 L -2.97633,-216.376 L -2.90575,-216.746 L -2.78932,-217.104 L -2.62891,-217.445 L -2.42705,-217.763
 L -2.1869,-218.054 L -1.91226,-218.312 L -1.60747,-218.533 L -1.27733,-218.714 L -0.927048,-218.853 L -0.562134,-218.947
 L -0.18837,-218.994 L 0.18837,-218.994 L 0.562134,-218.947 L 0.927048,-218.853 L 1.27733,-218.714 L 1.60747,-218.533
 L 1.91226,-218.312 L 2.1869,-218.054 L 2.42705,-217.763 L 2.62891,-217.445 L 2.78932,-217.104 L 2.90575,-216.746
 L 2.97633,-216.376 L 3,-216 L 2.97633,-215.624 L 2.90575,-215.254 L 2.78932,-214.896 L 2.62891,-214.555
 L 2.42705,-214.237 L 2.1869,-213.946 L 1.91226,-213.688 L 1.60747,-213.467 L 1.27733,-213.286 L 0.927048,-213.147
 L 0.562134,-213.053 L 0.18837,-213.006 z
M -15.1884,-213.006 L -15.5621,-213.053 L -15.927,-213.147 L -16.2773,-213.286 L -16.6075,-213.467 L -16.9123,-213.688
 L -17.1869,-213.946 L -17.427,-214.237 L -17.6289,-214.555 L -17.7893,-214.896 L -17.9057,-215.254 L -17.9763,-215.624
 L -18,-216 L -17.9763,-216.376 L -17.9057,-216.746 L -17.7893,-217.104 L -17.6289,-217.445 L -17.427,-217.763
 L -17.1869,-218.054 L -16.9123,-218.312 L -16.6075,-218.533 L -16.2773,-218.714 L -15.927,-218.853 L -15.5621,-218.947
 L -15.1884,-218.994 L -14.8116,-218.994 L -14.4379,-218.947 L -14.0729,-218.853 L -13.7227,-218.714 L -13.3925,-218.533
 L -13.0877,-218.312 L -12.8131,-218.054 L -12.5729,-217.763 L -12.3711,-217.445 L -12.2107,-217.104 L -12.0942,-216.746
 L -12.0237,-216.376 L -12,-216 L -12.0237,-215.624 L -12.0942,-215.254 L -12.2107,-214.896 L -12.3711,-214.555
 L -12.5729,-214.237 L -12.8131,-213.946 L -13.0877,-213.688 L -13.3925,-213.467 L -13.7227,-213.286 L -14.0729,-213.147
 L -14.4379,-213.053 L -14.8116,-213.006 z
M 14.8116,-213.006 L 14.4379,-213.053 L 14.0729,-213.147 L 13.7227,-213.286 L 13.3925,-213.467 L 13.0877,-213.688
 L 12.8131,-213.946 L 12.5729,-214.237 L 12.3711,-214.555 L 12.2107,-214.896 L 12.0942,-215.254 L 12.0237,-215.624
 L 12,-216 L 12.0237,-216.376 L 12.0942,-216.746 L 12.2107,-217.104 L 12.3711,-217.445 L 12.5729,-217.763
 L 12.8131,-218.054 L 13.0877,-218.312 L 13.3925,-218.533 L 13.7227,-218.714 L 14.0729,-218.853 L 14.4379,-218.947
 L 14.8116,-218.994 L 15.1884,-218.994 L 15.5621,-218.947 L 15.927,-218.853 L 16.2773,-218.714 L 16.6075,-218.533
 L 16.9123,-218.312 L 17.1869,-218.054 L 17.427,-217.763 L 17.6289,-217.445 L 17.7893,-217.104 L 17.9057,-216.746
 L 17.9763,-216.376 L 18,-216 L 17.9763,-215.624 L 17.9057,-215.254 L 17.7893,-214.896 L 17.6289,-214.555
 L 17.427,-214.237 L 17.1869,-213.946 L 16.9123,-213.688 L 16.6075,-213.467 L 16.2773,-213.286 L 15.927,-213.147
 L 15.5621,-213.053 L 15.1884,-213.006 z
M -15.1884,-198.006 L -15.5621,-198.053 L -15.927,-198.147 L -16.2773,-198.286 L -16.6075,-198.467 L -16.9123,-198.688
 L -17.1869,-198.946 L -17.427,-199.237 L -17.6289,-199.555 L -17.7893,-199.896 L -17.9057,-200.254 L -17.9763,-200.624
 L -18,-201 L -17.9763,-201.376 L -17.9057,-201.746 L -17.7893,-202.104 L -17.6289,-202.445 L -17.427,-202.763
 L -17.1869,-203.054 L -16.9123,-203.312 L -16.6075,-203.533 L -16.2773,-203.714 L -15.927,-203.853 L -15.5621,-203.947
 L -15.1884,-203.994 L -14.8116,-203.994 L -14.4379,-203.947 L -14.0729,-203.853 L -13.7227,-203.714 L -13.3925,-203.533
 L -13.0877,-203.312 L -12.8131,-203.054 L -12.5729,-202.763 L -12.3711,-202.445 L -12.2107,-202.104 L -12.0942,-201.746
 L -12.0237,-201.376 L -12,-201 L -12.0237,-200.624 L -12.0942,-200.254 L -12.2107,-199.896 L -12.3711,-199.555
 L -12.5729,-199.237 L -12.8131,-198.946 L -13.0877,-198.688 L -13.3925,-198.467 L -13.7227,-198.286 L -14.0729,-198.147
 L -14.4379,-198.053 L -14.8116,-198.006 z
M -0.18837,-198.006 L -0.562134,-198.053 L -0.927048,-198.147 L -1.27733,-198.286 L -1.60747,-198.467 L -1.91226,-198.688
 L -2.1869,-198.946 L -2.42705,-199.237 L -2.62891,-199.555 L -2.78932,-199.896 L -2.90575,-200.254 L -2.97633,-200.624
 L -3,-201 L -2.97633,-201.376 L -2.90575,-201.746 L -2.78932,-202.104 L -2.62891,-202.445 L -2.42705,-202.763
 L -2.1869,-203.054 L -1.91226,-203.312 L -1.60747,-203.533 L -1.27733,-203.714 L -0.927048,-203.853 L -0.562134,-203.947
 L -0.18837,-203.994 L 0.18837,-203.994 L 0.562134,-203.947 L 0.927048,-203.853 L 1.27733,-203.714 L 1.60747,-203.533
 L 1.91226,-203.312 L 2.1869,-203.054 L 2.42705,-202.763 L 2.62891,-202.445 L 2.78932,-202.104 L 2.90575,-201.746
 L 2.97633,-201.376 L 3,-201 L 2.97633,-200.624 L 2.90575,-200.254 L 2.78932,-199.896 L 2.62891,-199.555
 L 2.42705,-199.237 L 2.1869,-198.946 L 1.91226,-198.688 L 1.60747,-198.467 L 1.27733,-198.286 L 0.927048,-198.147
 L 0.562134,-198.053 L 0.18837,-198.006 z
M 14.8116,-198.006 L 14.4379,-198.053 L 14.0729,-198.147 L 13.7227,-198.286 L 13.3925,-198.467 L 13.0877,-198.688
 L 12.8131,-198.946 L 12.5729,-199.237 L 12.3711,-199.555 L 12.2107,-199.896 L 12.0942,-200.254 L 12.0237,-200.624
 L 12,-201 L 12.0237,-201.376 L 12.0942,-201.746 L 12.2107,-202.104 L 12.3711,-202.445 L 12.5729,-202.763
 L 12.8131,-203.054 L 13.0877,-203.312 L 13.3925,-203.533 L 13.7227,-203.714 L 14.0729,-203.853 L 14.4379,-203.947
 L 14.8116,-203.994 L 15.1884,-203.994 L 15.5621,-203.947 L 15.927,-203.853 L 16.2773,-203.714 L 16.6075,-203.533
 L 16.9123,-203.312 L 17.1869,-203.054 L 17.427,-202.763 L 17.6289,-202.445 L 17.7893,-202.104 L 17.9057,-201.746
 L 17.9763,-201.376 L 18,-201 L 17.9763,-200.624 L 17.9057,-200.254 L 17.7893,-199.896 L 17.6289,-199.555
 L 17.427,-199.237 L 17.1869,-198.946 L 16.9123,-198.688 L 16.6075,-198.467 L 16.2773,-198.286 L 15.927,-198.147
 L 15.5621,-198.053 L 15.1884,-198.006 z
M 17.9369,-140.089 L 18.5451,-140.245 L 19.1289,-140.476 L 19.6791,-140.778 L 20.1871,-141.147 L 20.6448,-141.577
 L 21.0451,-142.061 L 21.3815,-142.591 L 21.6489,-143.159 L 21.8429,-143.757 L 21.9606,-144.373 L 22,-145
 L 22,-179 L 21.9606,-179.627 L 21.8429,-180.243 L 21.6489,-180.841 L 21.3815,-181.409 L 21.0451,-181.939
 L 20.6448,-182.423 L 20.1871,-182.853 L 19.6791,-183.222 L 19.1289,-183.524 L 18.5451,-183.755 L 17.9369,-183.911
 L 17.3139,-183.99 L -17.3139,-183.99 L -17.9369,-183.911 L -18.5451,-183.755 L -19.1289,-183.524 L -19.6791,-183.222
 L -20.1871,-182.853 L -20.6448,-182.423 L -21.0451,-181.939 L -21.3815,-181.409 L -21.6489,-180.841 L -21.8429,-180.243
 L -21.9606,-179.627 L -22,-179 L -22,-145 L -21.9606,-144.373 L -21.8429,-143.757 L -21.6489,-143.159
 L -21.3815,-142.591 L -21.0451,-142.061 L -20.6448,-141.577 L -20.1871,-141.147 L -19.6791,-140.778 L -19.1289,-140.476
 L -18.5451,-140.245 L -17.9369,-140.089 L -17.3139,-140.01 L 17.3139,-140.01 z
M 14.8116,-174.006 L 14.4379,-174.053 L 14.0729,-174.147 L 13.7227,-174.286 L 13.3925,-174.467 L 13.0877,-174.688
 L 12.8131,-174.946 L 12.5729,-175.237 L 12.3711,-175.555 L 12.2107,-175.896 L 12.0942,-176.254 L 12.0237,-176.624
 L 12,-177 L 12.0237,-177.376 L 12.0942,-177.746 L 12.2107,-178.104 L 12.3711,-178.445 L 12.5729,-178.763
 L 12.8131,-179.054 L 13.0877,-179.312 L 13.3925,-179.533 L 13.7227,-179.714 L 14.0729,-179.853 L 14.4379,-179.947
 L 14.8116,-179.994 L 15.1884,-179.994 L 15.5621,-179.947 L 15.927,-179.853 L 16.2773,-179.714 L 16.6075,-179.533
 L 16.9123,-179.312 L 17.1869,-179.054 L 17.427,-178.763 L 17.6289,-178.445 L 17.7893,-178.104 L 17.9057,-177.746
 L 17.9763,-177.376 L 18,-177 L 17.9763,-176.624 L 17.9057,-176.254 L 17.7893,-175.896 L 17.6289,-175.555
 L 17.427,-175.237 L 17.1869,-174.946 L 16.9123,-174.688 L 16.6075,-174.467 L 16.2773,-174.286 L 15.927,-174.147
 L 15.5621,-174.053 L 15.1884,-174.006 z
M -0.18837,-174.006 L -0.562134,-174.053 L -0.927048,-174.147 L -1.27733,-174.286 L -1.60747,-174.467 L -1.91226,-174.688
 L -2.1869,-174.946 L -2.42705,-175.237 L -2.62891,-175.555 L -2.78932,-175.896 L -2.90575,-176.254 L -2.97633,-176.624
 L -3,-177 L -2.97633,-177.376 L -2.90575,-177.746 L -2.78932,-178.104 L -2.62891,-178.445 L -2.42705,-178.763
 L -2.1869,-179.054 L -1.91226,-179.312 L -1.60747,-179.533 L -1.27733,-179.714 L -0.927048,-179.853 L -0.562134,-179.947
 L -0.18837,-179.994 L 0.18837,-179.994 L 0.562134,-179.947 L 0.927048,-179.853 L 1.27733,-179.714 L 1.60747,-179.533
 L 1.91226,-179.312 L 2.1869,-179.054 L 2.42705,-178.763 L 2.62891,-178.445 L 2.78932,-178.104 L 2.90575,-177.746
 L 2.97633,-177.376 L 3,-177 L 2.97633,-176.624 L 2.90575,-176.254 L 2.78932,-175.896 L 2.62891,-175.555
 L 2.42705,-175.237 L 2.1869,-174.946 L 1.91226,-174.688 L 1.60747,-174.467 L 1.27733,-174.286 L 0.927048,-174.147
 L 0.562134,-174.053 L 0.18837,-174.006 z
M -15.1884,-174.006 L -15.5621,-174.053 L -15.927,-174.147 L -16.2773,-174.286 L -16.6075,-174.467 L -16.9123,-174.688
 L -17.1869,-174.946 L -17.427,-175.237 L -17.6289,-175.555 L -17.7893,-175.896 L -17.9057,-176.254 L -17.9763,-176.624
 L -18,-177 L -17.9763,-177.376 L -17.9057,-177.746 L -17.7893,-178.104 L -17.6289,-178.445 L -17.427,-178.763
 L -17.1869,-179.054 L -16.9123,-179.312 L -16.6075,-179.533 L -16.2773,-179.714 L -15.927,-179.853 L -15.5621,-179.947
 L -15.1884,-179.994 L -14.8116,-179.994 L -14.4379,-179.947 L -14.0729,-179.853 L -13.7227,-179.714 L -13.3925,-179.533
 L -13.0877,-179.312 L -12.8131,-179.054 L -12.5729,-178.763 L -12.3711,-178.445 L -12.2107,-178.104 L -12.0942,-177.746
 L -12.0237,-177.376 L -12,-177 L -12.0237,-176.624 L -12.0942,-176.254 L -12.2107,-175.896 L -12.3711,-175.555
 L -12.5729,-175.237 L -12.8131,-174.946 L -13.0877,-174.688 L -13.3925,-174.467 L -13.7227,-174.286 L -14.0729,-174.147
 L -14.4379,-174.053 L -14.8116,-174.006 z
M -0.18837,-159.006 L -0.562134,-159.053 L -0.927048,-159.147 L -1.27733,-159.286 L -1.60747,-159.467 L -1.91226,-159.688
 L -2.1869,-159.946 L -2.42705,-160.237 L -2.62891,-160.555 L -2.78932,-160.896 L -2.90575,-161.254 L -2.97633,-161.624
 L -3,-162 L -2.97633,-162.376 L -2.90575,-162.746 L -2.78932,-163.104 L -2.62891,-163.445 L -2.42705,-163.763
 L -2.1869,-164.054 L -1.91226,-164.312 L -1.60747,-164.533 L -1.27733,-164.714 L -0.927048,-164.853 L -0.562134,-164.947
 L -0.18837,-164.994 L 0.18837,-164.994 L 0.562134,-164.947 L 0.927048,-164.853 L 1.27733,-164.714 L 1.60747,-164.533
 L 1.91226,-164.312 L 2.1869,-164.054 L 2.42705,-163.763 L 2.62891,-163.445 L 2.78932,-163.104 L 2.90575,-162.746
 L 2.97633,-162.376 L 3,-162 L 2.97633,-161.624 L 2.90575,-161.254 L 2.78932,-160.896 L 2.62891,-160.555
 L 2.42705,-160.237 L 2.1869,-159.946 L 1.91226,-159.688 L 1.60747,-159.467 L 1.27733,-159.286 L 0.927048,-159.147
 L 0.562134,-159.053 L 0.18837,-159.006 z
M -15.1884,-159.006 L -15.5621,-159.053 L -15.927,-159.147 L -16.2773,-159.286 L -16.6075,-159.467 L -16.9123,-159.688
 L -17.1869,-159.946 L -17.427,-160.237 L -17.6289,-160.555 L -17.7893,-160.896 L -17.9057,-161.254 L -17.9763,-161.624
 L -18,-162 L -17.9763,-162.376 L -17.9057,-162.746 L -17.7893,-163.104 L -17.6289,-163.445 L -17.427,-163.763
 L -17.1869,-164.054 L -16.9123,-164.312 L -16.6075,-164.533 L -16.2773,-164.714 L -15.927,-164.853 L -15.5621,-164.947
 L -15.1884,-164.994 L -14.8116,-164.994 L -14.4379,-164.947 L -14.0729,-164.853 L -13.7227,-164.714 L -13.3925,-164.533
 L -13.0877,-164.312 L -12.8131,-164.054 L -12.5729,-163.763 L -12.3711,-163.445 L -12.2107,-163.104 L -12.0942,-162.746
 L -12.0237,-162.376 L -12,-162 L -12.0237,-161.624 L -12.0942,-161.254 L -12.2107,-160.896 L -12.3711,-160.555
 L -12.5729,-160.237 L -12.8131,-159.946 L -13.0877,-159.688 L -13.3925,-159.467 L -13.7227,-159.286 L -14.0729,-159.147
 L -14.4379,-159.053 L -14.8116,-159.006 z
M 14.8116,-159.006 L 14.4379,-159.053 L 14.0729,-159.147 L 13.7227,-159.286 L 13.3925,-159.467 L 13.0877,-159.688
 L 12.8131,-159.946 L 12.5729,-160.237 L 12.3711,-160.555 L 12.2107,-160.896 L 12.0942,-161.254 L 12.0237,-161.624
 L 12,-162 L 12.0237,-162.376 L 12.0942,-162.746 L 12.2107,-163.104 L 12.3711,-163.445 L 12.5729,-163.763
 L 12.8131,-164.054 L 13.0877,-164.312 L 13.3925,-164.533 L 13.7227,-164.714 L 14.0729,-164.853 L 14.4379,-164.947
 L 14.8116,-164.994 L 15.1884,-164.994 L 15.5621,-164.947 L 15.927,-164.853 L 16.2773,-164.714 L 16.6075,-164.533
 L 16.9123,-164.312 L 17.1869,-164.054 L 17.427,-163.763 L 17.6289,-163.445 L 17.7893,-163.104 L 17.9057,-162.746
 L 17.9763,-162.376 L 18,-162 L 17.9763,-161.624 L 17.9057,-161.254 L 17.7893,-160.896 L 17.6289,-160.555
 L 17.427,-160.237 L 17.1869,-159.946 L 16.9123,-159.688 L 16.6075,-159.467 L 16.2773,-159.286 L 15.927,-159.147
 L 15.5621,-159.053 L 15.1884,-159.006 z
M 14.8116,-144.006 L 14.4379,-144.053 L 14.0729,-144.147 L 13.7227,-144.286 L 13.3925,-144.467 L 13.0877,-144.688
 L 12.8131,-144.946 L 12.5729,-145.237 L 12.3711,-145.555 L 12.2107,-145.896 L 12.0942,-146.254 L 12.0237,-146.624
 L 12,-147 L 12.0237,-147.376 L 12.0942,-147.746 L 12.2107,-148.104 L 12.3711,-148.445 L 12.5729,-148.763
 L 12.8131,-149.054 L 13.0877,-149.312 L 13.3925,-149.533 L 13.7227,-149.714 L 14.0729,-149.853 L 14.4379,-149.947
 L 14.8116,-149.994 L 15.1884,-149.994 L 15.5621,-149.947 L 15.927,-149.853 L 16.2773,-149.714 L 16.6075,-149.533
 L 16.9123,-149.312 L 17.1869,-149.054 L 17.427,-148.763 L 17.6289,-148.445 L 17.7893,-148.104 L 17.9057,-147.746
 L 17.9763,-147.376 L 18,-147 L 17.9763,-146.624 L 17.9057,-146.254 L 17.7893,-145.896 L 17.6289,-145.555
 L 17.427,-145.237 L 17.1869,-144.946 L 16.9123,-144.688 L 16.6075,-144.467 L 16.2773,-144.286 L 15.927,-144.147
 L 15.5621,-144.053 L 15.1884,-144.006 z
M -0.18837,-144.006 L -0.562134,-144.053 L -0.927048,-144.147 L -1.27733,-144.286 L -1.60747,-144.467 L -1.91226,-144.688
 L -2.1869,-144.946 L -2.42705,-145.237 L -2.62891,-145.555 L -2.78932,-145.896 L -2.90575,-146.254 L -2.97633,-146.624
 L -3,-147 L -2.97633,-147.376 L -2.90575,-147.746 L -2.78932,-148.104 L -2.62891,-148.445 L -2.42705,-148.763
 L -2.1869,-149.054 L -1.91226,-149.312 L -1.60747,-149.533 L -1.27733,-149.714 L -0.927048,-149.853 L -0.562134,-149.947
 L -0.18837,-149.994 L 0.18837,-149.994 L 0.562134,-149.947 L 0.927048,-149.853 L 1.27733,-149.714 L 1.60747,-149.533
 L 1.91226,-149.312 L 2.1869,-149.054 L 2.42705,-148.763 L 2.62891,-148.445 L 2.78932,-148.104 L 2.90575,-147.746
 L 2.97633,-147.376 L 3,-147 L 2.97633,-146.624 L 2.90575,-146.254 L 2.78932,-145.896 L 2.62891,-145.555
 L 2.42705,-145.237 L 2.1869,-144.946 L 1.91226,-144.688 L 1.60747,-144.467 L 1.27733,-144.286 L 0.927048,-144.147
 L 0.562134,-144.053 L 0.18837,-144.006 z
M -15.1884,-144.006 L -15.5621,-144.053 L -15.927,-144.147 L -16.2773,-144.286 L -16.6075,-144.467 L -16.9123,-144.688
 L -17.1869,-144.946 L -17.427,-145.237 L -17.6289,-145.555 L -17.7893,-145.896 L -17.9057,-146.254 L -17.9763,-146.624
 L -18,-147 L -17.9763,-147.376 L -17.9057,-147.746 L -17.7893,-148.104 L -17.6289,-148.445 L -17.427,-148.763
 L -17.1869,-149.054 L -16.9123,-149.312 L -16.6075,-149.533 L -16.2773,-149.714 L -15.927,-149.853 L -15.5621,-149.947
 L -15.1884,-149.994 L -14.8116,-149.994 L -14.4379,-149.947 L -14.0729,-149.853 L -13.7227,-149.714 L -13.3925,-149.533
 L -13.0877,-149.312 L -12.8131,-149.054 L -12.5729,-148.763 L -12.3711,-148.445 L -12.2107,-148.104 L -12.0942,-147.746
 L -12.0237,-147.376 L -12,-147 L -12.0237,-146.624 L -12.0942,-146.254 L -12.2107,-145.896 L -12.3711,-145.555
 L -12.5729,-145.237 L -12.8131,-144.946 L -13.0877,-144.688 L -13.3925,-144.467 L -13.7227,-144.286 L -14.0729,-144.147
 L -14.4379,-144.053 L -14.8116,-144.006 z
" stroke="black" fill="lightgray" stroke-width="0.5"/>
</svg>
