  0
SECTION
  2
BLOCKS
  0
ENDSEC
  0
SECTION
  2
ENTITIES
  0
LINE
  8
0
 10
100.437
 20
-104.411
 11
101.045
 21
-104.255
  0
LINE
  8
0
 10
101.045
 20
-104.255
 11
101.629
 21
-104.024
  0
LINE
  8
0
 10
101.629
 20
-104.024
 11
102.179
 21
-103.722
  0
LINE
  8
0
 10
102.179
 20
-103.722
 11
102.687
 21
-103.353
  0
LINE
  8
0
 10
102.687
 20
-103.353
 11
103.145
 21
-102.923
  0
LINE
  8
0
 10
103.145
 20
-102.923
 11
103.545
 21
-102.439
  0
LINE
  8
0
 10
103.545
 20
-102.439
 11
103.882
 21
-101.909
  0
LINE
  8
0
 10
103.882
 20
-101.909
 11
104.149
 21
-101.341
  0
LINE
  8
0
 10
104.149
 20
-101.341
 11
104.343
 21
-100.743
  0
LINE
  8
0
 10
104.343
 20
-100.743
 11
104.461
 21
-100.127
  0
LINE
  8
0
 10
104.461
 20
-100.127
 11
104.5
 21
-99.5
  0
LINE
  8
0
 10
104.5
 20
-99.5
 11
104.5
 21
99.5
  0
LINE
  8
0
 10
104.5
 20
99.5
 11
104.461
 21
100.127
  0
LINE
  8
0
 10
104.461
 20
100.127
 11
104.343
 21
100.743
  0
LINE
  8
0
 10
104.343
 20
100.743
 11
104.149
 21
101.341
  0
LINE
  8
0
 10
104.149
 20
101.341
 11
103.882
 21
101.909
  0
LINE
  8
0
 10
103.882
 20
101.909
 11
103.545
 21
102.439
  0
LINE
  8
0
 10
103.545
 20
102.439
 11
103.145
 21
102.923
  0
LINE
  8
0
 10
103.145
 20
102.923
 11
102.687
 21
103.353
  0
LINE
  8
0
 10
102.687
 20
103.353
 11
102.179
 21
103.722
  0
LINE
  8
0
 10
102.179
 20
103.722
 11
101.629
 21
104.024
  0
LINE
  8
0
 10
101.629
 20
104.024
 11
101.045
 21
104.255
  0
LINE
  8
0
 10
101.045
 20
104.255
 11
100.437
 21
104.411
  0
LINE
  8
0
 10
100.437
 20
104.411
 11
99.8139
 21
104.49
  0
LINE
  8
0
 10
99.8139
 20
104.49
 11
-99.8139
 21
104.49
  0
LINE
  8
0
 10
-99.8139
 20
104.49
 11
-100.437
 21
104.411
  0
LINE
  8
0
 10
-100.437
 20
104.411
 11
-101.045
 21
104.255
  0
LINE
  8
0
 10
-101.045
 20
104.255
 11
-101.629
 21
104.024
  0
LINE
  8
0
 10
-101.629
 20
104.024
 11
-102.179
 21
103.722
  0
LINE
  8
0
 10
-102.179
 20
103.722
 11
-102.687
 21
103.353
  0
LINE
  8
0
 10
-102.687
 20
103.353
 11
-103.145
 21
102.923
  0
LINE
  8
0
 10
-103.145
 20
102.923
 11
-103.545
 21
102.439
  0
LINE
  8
0
 10
-103.545
 20
102.439
 11
-103.882
 21
101.909
  0
LINE
  8
0
 10
-103.882
 20
101.909
 11
-104.149
 21
101.341
  0
LINE
  8
0
 10
-104.149
 20
101.341
 11
-104.343
 21
100.743
  0
LINE
  8
0
 10
-104.343
 20
100.743
 11
-104.461
 21
100.127
  0
LINE
  8
0
 10
-104.461
 20
100.127
 11
-104.5
 21
99.5
  0
LINE
  8
0
 10
-104.5
 20
99.5
 11
-104.5
 21
-99.5
  0
LINE
  8
0
 10
-104.5
 20
-99.5
 11
-104.461
 21
-100.127
  0
LINE
  8
0
 10
-104.461
 20
-100.127
 11
-104.343
 21
-100.743
  0
LINE
  8
0
 10
-104.343
 20
-100.743
 11
-104.149
 21
-101.341
  0
LINE
  8
0
 10
-104.149
 20
-101.341
 11
-103.882
 21
-101.909
  0
LINE
  8
0
 10
-103.882
 20
-101.909
 11
-103.545
 21
-102.439
  0
LINE
  8
0
 10
-103.545
 20
-102.439
 11
-103.145
 21
-102.923
  0
LINE
  8
0
 10
-103.145
 20
-102.923
 11
-102.687
 21
-103.353
  0
LINE
  8
0
 10
-102.687
 20
-103.353
 11
-102.179
 21
-103.722
  0
LINE
  8
0
 10
-102.179
 20
-103.722
 11
-101.629
 21
-104.024
  0
LINE
  8
0
 10
-101.629
 20
-104.024
 11
-101.045
 21
-104.255
  0
LINE
  8
0
 10
-101.045
 20
-104.255
 11
-100.437
 21
-104.411
  0
LINE
  8
0
 10
-100.437
 20
-104.411
 11
-99.8139
 21
-104.49
  0
LINE
  8
0
 10
-99.8139
 20
-104.49
 11
99.8139
 21
-104.49
  0
LINE
  8
0
 10
99.8139
 20
-104.49
 11
100.437
 21
-104.411
  0
LINE
  8
0
 10
97.3116
 20
94.5059
 11
96.9379
 21
94.5531
  0
LINE
  8
0
 10
96.9379
 20
94.5531
 11
96.573
 21
94.6468
  0
LINE
  8
0
 10
96.573
 20
94.6468
 11
96.2227
 21
94.7855
  0
LINE
  8
0
 10
96.2227
 20
94.7855
 11
95.8925
 21
94.967
  0
LINE
  8
0
 10
95.8925
 20
94.967
 11
95.5877
 21
95.1885
  0
LINE
  8
0
 10
95.5877
 20
95.1885
 11
95.3131
 21
95.4464
  0
LINE
  8
0
 10
95.3131
 20
95.4464
 11
95.073
 21
95.7366
  0
LINE
  8
0
 10
95.073
 20
95.7366
 11
94.8711
 21
96.0547
  0
LINE
  8
0
 10
94.8711
 20
96.0547
 11
94.7107
 21
96.3956
  0
LINE
  8
0
 10
94.7107
 20
96.3956
 11
94.5943
 21
96.7539
  0
LINE
  8
0
 10
94.5943
 20
96.7539
 11
94.5237
 21
97.124
  0
LINE
  8
0
 10
94.5237
 20
97.124
 11
94.5
 21
97.5
  0
LINE
  8
0
 10
94.5
 20
97.5
 11
94.5237
 21
97.876
  0
LINE
  8
0
 10
94.5237
 20
97.876
 11
94.5943
 21
98.2461
  0
LINE
  8
0
 10
94.5943
 20
98.2461
 11
94.7107
 21
98.6044
  0
LINE
  8
0
 10
94.7107
 20
98.6044
 11
94.8711
 21
98.9453
  0
LINE
  8
0
 10
94.8711
 20
98.9453
 11
95.073
 21
99.2634
  0
LINE
  8
0
 10
95.073
 20
99.2634
 11
95.3131
 21
99.5536
  0
LINE
  8
0
 10
95.3131
 20
99.5536
 11
95.5877
 21
99.8115
  0
LINE
  8
0
 10
95.5877
 20
99.8115
 11
95.8925
 21
100.033
  0
LINE
  8
0
 10
95.8925
 20
100.033
 11
96.2227
 21
100.214
  0
LINE
  8
0
 10
96.2227
 20
100.214
 11
96.573
 21
100.353
  0
LINE
  8
0
 10
96.573
 20
100.353
 11
96.9379
 21
100.447
  0
LINE
  8
0
 10
96.9379
 20
100.447
 11
97.3116
 21
100.494
  0
LINE
  8
0
 10
97.3116
 20
100.494
 11
97.6884
 21
100.494
  0
LINE
  8
0
 10
97.6884
 20
100.494
 11
98.0621
 21
100.447
  0
LINE
  8
0
 10
98.0621
 20
100.447
 11
98.427
 21
100.353
  0
LINE
  8
0
 10
98.427
 20
100.353
 11
98.7773
 21
100.214
  0
LINE
  8
0
 10
98.7773
 20
100.214
 11
99.1075
 21
100.033
  0
LINE
  8
0
 10
99.1075
 20
100.033
 11
99.4123
 21
99.8115
  0
LINE
  8
0
 10
99.4123
 20
99.8115
 11
99.6869
 21
99.5536
  0
LINE
  8
0
 10
99.6869
 20
99.5536
 11
99.927
 21
99.2634
  0
LINE
  8
0
 10
99.927
 20
99.2634
 11
100.129
 21
98.9453
  0
LINE
  8
0
 10
100.129
 20
98.9453
 11
100.289
 21
98.6044
  0
LINE
  8
0
 10
100.289
 20
98.6044
 11
100.406
 21
98.2461
  0
LINE
  8
0
 10
100.406
 20
98.2461
 11
100.476
 21
97.876
  0
LINE
  8
0
 10
100.476
 20
97.876
 11
100.5
 21
97.5
  0
LINE
  8
0
 10
100.5
 20
97.5
 11
100.476
 21
97.124
  0
LINE
  8
0
 10
100.476
 20
97.124
 11
100.406
 21
96.7539
  0
LINE
  8
0
 10
100.406
 20
96.7539
 11
100.289
 21
96.3956
  0
LINE
  8
0
 10
100.289
 20
96.3956
 11
100.129
 21
96.0547
  0
LINE
  8
0
 10
100.129
 20
96.0547
 11
99.927
 21
95.7366
  0
LINE
  8
0
 10
99.927
 20
95.7366
 11
99.6869
 21
95.4464
  0
LINE
  8
0
 10
99.6869
 20
95.4464
 11
99.4123
 21
95.1885
  0
LINE
  8
0
 10
99.4123
 20
95.1885
 11
99.1075
 21
94.967
  0
LINE
  8
0
 10
99.1075
 20
94.967
 11
98.7773
 21
94.7855
  0
LINE
  8
0
 10
98.7773
 20
94.7855
 11
98.427
 21
94.6468
  0
LINE
  8
0
 10
98.427
 20
94.6468
 11
98.0621
 21
94.5531
  0
LINE
  8
0
 10
98.0621
 20
94.5531
 11
97.6884
 21
94.5059
  0
LINE
  8
0
 10
97.6884
 20
94.5059
 11
97.3116
 21
94.5059
  0
LINE
  8
0
 10
-97.6884
 20
94.5059
 11
-98.0621
 21
94.5531
  0
LINE
  8
0
 10
-98.0621
 20
94.5531
 11
-98.427
 21
94.6468
  0
LINE
  8
0
 10
-98.427
 20
94.6468
 11
-98.7773
 21
94.7855
  0
LINE
  8
0
 10
-98.7773
 20
94.7855
 11
-99.1075
 21
94.967
  0
LINE
  8
0
 10
-99.1075
 20
94.967
 11
-99.4123
 21
95.1885
  0
LINE
  8
0
 10
-99.4123
 20
95.1885
 11
-99.6869
 21
95.4464
  0
LINE
  8
0
 10
-99.6869
 20
95.4464
 11
-99.927
 21
95.7366
  0
LINE
  8
0
 10
-99.927
 20
95.7366
 11
-100.129
 21
96.0547
  0
LINE
  8
0
 10
-100.129
 20
96.0547
 11
-100.289
 21
96.3956
  0
LINE
  8
0
 10
-100.289
 20
96.3956
 11
-100.406
 21
96.7539
  0
LINE
  8
0
 10
-100.406
 20
96.7539
 11
-100.476
 21
97.124
  0
LINE
  8
0
 10
-100.476
 20
97.124
 11
-100.5
 21
97.5
  0
LINE
  8
0
 10
-100.5
 20
97.5
 11
-100.476
 21
97.876
  0
LINE
  8
0
 10
-100.476
 20
97.876
 11
-100.406
 21
98.2461
  0
LINE
  8
0
 10
-100.406
 20
98.2461
 11
-100.289
 21
98.6044
  0
LINE
  8
0
 10
-100.289
 20
98.6044
 11
-100.129
 21
98.9453
  0
LINE
  8
0
 10
-100.129
 20
98.9453
 11
-99.927
 21
99.2634
  0
LINE
  8
0
 10
-99.927
 20
99.2634
 11
-99.6869
 21
99.5536
  0
LINE
  8
0
 10
-99.6869
 20
99.5536
 11
-99.4123
 21
99.8115
  0
LINE
  8
0
 10
-99.4123
 20
99.8115
 11
-99.1075
 21
100.033
  0
LINE
  8
0
 10
-99.1075
 20
100.033
 11
-98.7773
 21
100.214
  0
LINE
  8
0
 10
-98.7773
 20
100.214
 11
-98.427
 21
100.353
  0
LINE
  8
0
 10
-98.427
 20
100.353
 11
-98.0621
 21
100.447
  0
LINE
  8
0
 10
-98.0621
 20
100.447
 11
-97.6884
 21
100.494
  0
LINE
  8
0
 10
-97.6884
 20
100.494
 11
-97.3116
 21
100.494
  0
LINE
  8
0
 10
-97.3116
 20
100.494
 11
-96.9379
 21
100.447
  0
LINE
  8
0
 10
-96.9379
 20
100.447
 11
-96.573
 21
100.353
  0
LINE
  8
0
 10
-96.573
 20
100.353
 11
-96.2227
 21
100.214
  0
LINE
  8
0
 10
-96.2227
 20
100.214
 11
-95.8925
 21
100.033
  0
LINE
  8
0
 10
-95.8925
 20
100.033
 11
-95.5877
 21
99.8115
  0
LINE
  8
0
 10
-95.5877
 20
99.8115
 11
-95.3131
 21
99.5536
  0
LINE
  8
0
 10
-95.3131
 20
99.5536
 11
-95.073
 21
99.2634
  0
LINE
  8
0
 10
-95.073
 20
99.2634
 11
-94.8711
 21
98.9453
  0
LINE
  8
0
 10
-94.8711
 20
98.9453
 11
-94.7107
 21
98.6044
  0
LINE
  8
0
 10
-94.7107
 20
98.6044
 11
-94.5943
 21
98.2461
  0
LINE
  8
0
 10
-94.5943
 20
98.2461
 11
-94.5237
 21
97.876
  0
LINE
  8
0
 10
-94.5237
 20
97.876
 11
-94.5
 21
97.5
  0
LINE
  8
0
 10
-94.5
 20
97.5
 11
-94.5237
 21
97.124
  0
LINE
  8
0
 10
-94.5237
 20
97.124
 11
-94.5943
 21
96.7539
  0
LINE
  8
0
 10
-94.5943
 20
96.7539
 11
-94.7107
 21
96.3956
  0
LINE
  8
0
 10
-94.7107
 20
96.3956
 11
-94.8711
 21
96.0547
  0
LINE
  8
0
 10
-94.8711
 20
96.0547
 11
-95.073
 21
95.7366
  0
LINE
  8
0
 10
-95.073
 20
95.7366
 11
-95.3131
 21
95.4464
  0
LINE
  8
0
 10
-95.3131
 20
95.4464
 11
-95.5877
 21
95.1885
  0
LINE
  8
0
 10
-95.5877
 20
95.1885
 11
-95.8925
 21
94.967
  0
LINE
  8
0
 10
-95.8925
 20
94.967
 11
-96.2227
 21
94.7855
  0
LINE
  8
0
 10
-96.2227
 20
94.7855
 11
-96.573
 21
94.6468
  0
LINE
  8
0
 10
-96.573
 20
94.6468
 11
-96.9379
 21
94.5531
  0
LINE
  8
0
 10
-96.9379
 20
94.5531
 11
-97.3116
 21
94.5059
  0
LINE
  8
0
 10
-97.3116
 20
94.5059
 11
-97.6884
 21
94.5059
  0
LINE
  8
0
 10
-97.5942
 20
88.503
 11
-97.7811
 21
88.5266
  0
LINE
  8
0
 10
-97.7811
 20
88.5266
 11
-97.9635
 21
88.5734
  0
LINE
  8
0
 10
-97.9635
 20
88.5734
 11
-98.1387
 21
88.6428
  0
LINE
  8
0
 10
-98.1387
 20
88.6428
 11
-98.3037
 21
88.7335
  0
LINE
  8
0
 10
-98.3037
 20
88.7335
 11
-98.4561
 21
88.8442
  0
LINE
  8
0
 10
-98.4561
 20
88.8442
 11
-98.5934
 21
88.9732
  0
LINE
  8
0
 10
-98.5934
 20
88.9732
 11
-98.7135
 21
89.1183
  0
LINE
  8
0
 10
-98.7135
 20
89.1183
 11
-98.8145
 21
89.2774
  0
LINE
  8
0
 10
-98.8145
 20
89.2774
 11
-98.8947
 21
89.4478
  0
LINE
  8
0
 10
-98.8947
 20
89.4478
 11
-98.9529
 21
89.627
  0
LINE
  8
0
 10
-98.9529
 20
89.627
 11
-98.9882
 21
89.812
  0
LINE
  8
0
 10
-98.9882
 20
89.812
 11
-99
 21
90
  0
LINE
  8
0
 10
-99
 20
90
 11
-98.9882
 21
90.188
  0
LINE
  8
0
 10
-98.9882
 20
90.188
 11
-98.9529
 21
90.373
  0
LINE
  8
0
 10
-98.9529
 20
90.373
 11
-98.8947
 21
90.5522
  0
LINE
  8
0
 10
-98.8947
 20
90.5522
 11
-98.8145
 21
90.7226
  0
LINE
  8
0
 10
-98.8145
 20
90.7226
 11
-98.7135
 21
90.8817
  0
LINE
  8
0
 10
-98.7135
 20
90.8817
 11
-98.5934
 21
91.0268
  0
LINE
  8
0
 10
-98.5934
 20
91.0268
 11
-98.4561
 21
91.1558
  0
LINE
  8
0
 10
-98.4561
 20
91.1558
 11
-98.3037
 21
91.2665
  0
LINE
  8
0
 10
-98.3037
 20
91.2665
 11
-98.1387
 21
91.3572
  0
LINE
  8
0
 10
-98.1387
 20
91.3572
 11
-97.9635
 21
91.4266
  0
LINE
  8
0
 10
-97.9635
 20
91.4266
 11
-97.7811
 21
91.4734
  0
LINE
  8
0
 10
-97.7811
 20
91.4734
 11
-97.5942
 21
91.497
  0
LINE
  8
0
 10
-97.5942
 20
91.497
 11
-97.4058
 21
91.497
  0
LINE
  8
0
 10
-97.4058
 20
91.497
 11
-97.2189
 21
91.4734
  0
LINE
  8
0
 10
-97.2189
 20
91.4734
 11
-97.0365
 21
91.4266
  0
LINE
  8
0
 10
-97.0365
 20
91.4266
 11
-96.8613
 21
91.3572
  0
LINE
  8
0
 10
-96.8613
 20
91.3572
 11
-96.6963
 21
91.2665
  0
LINE
  8
0
 10
-96.6963
 20
91.2665
 11
-96.5439
 21
91.1558
  0
LINE
  8
0
 10
-96.5439
 20
91.1558
 11
-96.4065
 21
91.0268
  0
LINE
  8
0
 10
-96.4065
 20
91.0268
 11
-96.2865
 21
90.8817
  0
LINE
  8
0
 10
-96.2865
 20
90.8817
 11
-96.1855
 21
90.7226
  0
LINE
  8
0
 10
-96.1855
 20
90.7226
 11
-96.1053
 21
90.5522
  0
LINE
  8
0
 10
-96.1053
 20
90.5522
 11
-96.0471
 21
90.373
  0
LINE
  8
0
 10
-96.0471
 20
90.373
 11
-96.0118
 21
90.188
  0
LINE
  8
0
 10
-96.0118
 20
90.188
 11
-96
 21
90
  0
LINE
  8
0
 10
-96
 20
90
 11
-96.0118
 21
89.812
  0
LINE
  8
0
 10
-96.0118
 20
89.812
 11
-96.0471
 21
89.627
  0
LINE
  8
0
 10
-96.0471
 20
89.627
 11
-96.1053
 21
89.4478
  0
LINE
  8
0
 10
-96.1053
 20
89.4478
 11
-96.1855
 21
89.2774
  0
LINE
  8
0
 10
-96.1855
 20
89.2774
 11
-96.2865
 21
89.1183
  0
LINE
  8
0
 10
-96.2865
 20
89.1183
 11
-96.4065
 21
88.9732
  0
LINE
  8
0
 10
-96.4065
 20
88.9732
 11
-96.5439
 21
88.8442
  0
LINE
  8
0
 10
-96.5439
 20
88.8442
 11
-96.6963
 21
88.7335
  0
LINE
  8
0
 10
-96.6963
 20
88.7335
 11
-96.8613
 21
88.6428
  0
LINE
  8
0
 10
-96.8613
 20
88.6428
 11
-97.0365
 21
88.5734
  0
LINE
  8
0
 10
-97.0365
 20
88.5734
 11
-97.2189
 21
88.5266
  0
LINE
  8
0
 10
-97.2189
 20
88.5266
 11
-97.4058
 21
88.503
  0
LINE
  8
0
 10
-97.4058
 20
88.503
 11
-97.5942
 21
88.503
  0
LINE
  8
0
 10
97.4058
 20
88.503
 11
97.2189
 21
88.5266
  0
LINE
  8
0
 10
97.2189
 20
88.5266
 11
97.0365
 21
88.5734
  0
LINE
  8
0
 10
97.0365
 20
88.5734
 11
96.8613
 21
88.6428
  0
LINE
  8
0
 10
96.8613
 20
88.6428
 11
96.6963
 21
88.7335
  0
LINE
  8
0
 10
96.6963
 20
88.7335
 11
96.5439
 21
88.8442
  0
LINE
  8
0
 10
96.5439
 20
88.8442
 11
96.4065
 21
88.9732
  0
LINE
  8
0
 10
96.4065
 20
88.9732
 11
96.2865
 21
89.1183
  0
LINE
  8
0
 10
96.2865
 20
89.1183
 11
96.1855
 21
89.2774
  0
LINE
  8
0
 10
96.1855
 20
89.2774
 11
96.1053
 21
89.4478
  0
LINE
  8
0
 10
96.1053
 20
89.4478
 11
96.0471
 21
89.627
  0
LINE
  8
0
 10
96.0471
 20
89.627
 11
96.0118
 21
89.812
  0
LINE
  8
0
 10
96.0118
 20
89.812
 11
96
 21
90
  0
LINE
  8
0
 10
96
 20
90
 11
96.0118
 21
90.188
  0
LINE
  8
0
 10
96.0118
 20
90.188
 11
96.0471
 21
90.373
  0
LINE
  8
0
 10
96.0471
 20
90.373
 11
96.1053
 21
90.5522
  0
LINE
  8
0
 10
96.1053
 20
90.5522
 11
96.1855
 21
90.7226
  0
LINE
  8
0
 10
96.1855
 20
90.7226
 11
96.2865
 21
90.8817
  0
LINE
  8
0
 10
96.2865
 20
90.8817
 11
96.4065
 21
91.0268
  0
LINE
  8
0
 10
96.4065
 20
91.0268
 11
96.5439
 21
91.1558
  0
LINE
  8
0
 10
96.5439
 20
91.1558
 11
96.6963
 21
91.2665
  0
LINE
  8
0
 10
96.6963
 20
91.2665
 11
96.8613
 21
91.3572
  0
LINE
  8
0
 10
96.8613
 20
91.3572
 11
97.0365
 21
91.4266
  0
LINE
  8
0
 10
97.0365
 20
91.4266
 11
97.2189
 21
91.4734
  0
LINE
  8
0
 10
97.2189
 20
91.4734
 11
97.4058
 21
91.497
  0
LINE
  8
0
 10
97.4058
 20
91.497
 11
97.5942
 21
91.497
  0
LINE
  8
0
 10
97.5942
 20
91.497
 11
97.7811
 21
91.4734
  0
LINE
  8
0
 10
97.7811
 20
91.4734
 11
97.9635
 21
91.4266
  0
LINE
  8
0
 10
97.9635
 20
91.4266
 11
98.1387
 21
91.3572
  0
LINE
  8
0
 10
98.1387
 20
91.3572
 11
98.3037
 21
91.2665
  0
LINE
  8
0
 10
98.3037
 20
91.2665
 11
98.4561
 21
91.1558
  0
LINE
  8
0
 10
98.4561
 20
91.1558
 11
98.5934
 21
91.0268
  0
LINE
  8
0
 10
98.5934
 20
91.0268
 11
98.7135
 21
90.8817
  0
LINE
  8
0
 10
98.7135
 20
90.8817
 11
98.8145
 21
90.7226
  0
LINE
  8
0
 10
98.8145
 20
90.7226
 11
98.8947
 21
90.5522
  0
LINE
  8
0
 10
98.8947
 20
90.5522
 11
98.9529
 21
90.373
  0
LINE
  8
0
 10
98.9529
 20
90.373
 11
98.9882
 21
90.188
  0
LINE
  8
0
 10
98.9882
 20
90.188
 11
99
 21
90
  0
LINE
  8
0
 10
99
 20
90
 11
98.9882
 21
89.812
  0
LINE
  8
0
 10
98.9882
 20
89.812
 11
98.9529
 21
89.627
  0
LINE
  8
0
 10
98.9529
 20
89.627
 11
98.8947
 21
89.4478
  0
LINE
  8
0
 10
98.8947
 20
89.4478
 11
98.8145
 21
89.2774
  0
LINE
  8
0
 10
98.8145
 20
89.2774
 11
98.7135
 21
89.1183
  0
LINE
  8
0
 10
98.7135
 20
89.1183
 11
98.5934
 21
88.9732
  0
LINE
  8
0
 10
98.5934
 20
88.9732
 11
98.4561
 21
88.8442
  0
LINE
  8
0
 10
98.4561
 20
88.8442
 11
98.3037
 21
88.7335
  0
LINE
  8
0
 10
98.3037
 20
88.7335
 11
98.1387
 21
88.6428
  0
LINE
  8
0
 10
98.1387
 20
88.6428
 11
97.9635
 21
88.5734
  0
LINE
  8
0
 10
97.9635
 20
88.5734
 11
97.7811
 21
88.5266
  0
LINE
  8
0
 10
97.7811
 20
88.5266
 11
97.5942
 21
88.503
  0
LINE
  8
0
 10
97.5942
 20
88.503
 11
97.4058
 21
88.503
  0
LINE
  8
0
 10
-97.6884
 20
79.5059
 11
-98.0621
 21
79.5531
  0
LINE
  8
0
 10
-98.0621
 20
79.5531
 11
-98.427
 21
79.6468
  0
LINE
  8
0
 10
-98.427
 20
79.6468
 11
-98.7773
 21
79.7855
  0
LINE
  8
0
 10
-98.7773
 20
79.7855
 11
-99.1075
 21
79.967
  0
LINE
  8
0
 10
-99.1075
 20
79.967
 11
-99.4123
 21
80.1885
  0
LINE
  8
0
 10
-99.4123
 20
80.1885
 11
-99.6869
 21
80.4464
  0
LINE
  8
0
 10
-99.6869
 20
80.4464
 11
-99.927
 21
80.7366
  0
LINE
  8
0
 10
-99.927
 20
80.7366
 11
-100.129
 21
81.0547
  0
LINE
  8
0
 10
-100.129
 20
81.0547
 11
-100.289
 21
81.3956
  0
LINE
  8
0
 10
-100.289
 20
81.3956
 11
-100.406
 21
81.7539
  0
LINE
  8
0
 10
-100.406
 20
81.7539
 11
-100.476
 21
82.124
  0
LINE
  8
0
 10
-100.476
 20
82.124
 11
-100.5
 21
82.5
  0
LINE
  8
0
 10
-100.5
 20
82.5
 11
-100.476
 21
82.876
  0
LINE
  8
0
 10
-100.476
 20
82.876
 11
-100.406
 21
83.2461
  0
LINE
  8
0
 10
-100.406
 20
83.2461
 11
-100.289
 21
83.6044
  0
LINE
  8
0
 10
-100.289
 20
83.6044
 11
-100.129
 21
83.9453
  0
LINE
  8
0
 10
-100.129
 20
83.9453
 11
-99.927
 21
84.2634
  0
LINE
  8
0
 10
-99.927
 20
84.2634
 11
-99.6869
 21
84.5536
  0
LINE
  8
0
 10
-99.6869
 20
84.5536
 11
-99.4123
 21
84.8115
  0
LINE
  8
0
 10
-99.4123
 20
84.8115
 11
-99.1075
 21
85.033
  0
LINE
  8
0
 10
-99.1075
 20
85.033
 11
-98.7773
 21
85.2145
  0
LINE
  8
0
 10
-98.7773
 20
85.2145
 11
-98.427
 21
85.3532
  0
LINE
  8
0
 10
-98.427
 20
85.3532
 11
-98.0621
 21
85.4469
  0
LINE
  8
0
 10
-98.0621
 20
85.4469
 11
-97.6884
 21
85.4941
  0
LINE
  8
0
 10
-97.6884
 20
85.4941
 11
-97.3116
 21
85.4941
  0
LINE
  8
0
 10
-97.3116
 20
85.4941
 11
-96.9379
 21
85.4469
  0
LINE
  8
0
 10
-96.9379
 20
85.4469
 11
-96.573
 21
85.3532
  0
LINE
  8
0
 10
-96.573
 20
85.3532
 11
-96.2227
 21
85.2145
  0
LINE
  8
0
 10
-96.2227
 20
85.2145
 11
-95.8925
 21
85.033
  0
LINE
  8
0
 10
-95.8925
 20
85.033
 11
-95.5877
 21
84.8115
  0
LINE
  8
0
 10
-95.5877
 20
84.8115
 11
-95.3131
 21
84.5536
  0
LINE
  8
0
 10
-95.3131
 20
84.5536
 11
-95.073
 21
84.2634
  0
LINE
  8
0
 10
-95.073
 20
84.2634
 11
-94.8711
 21
83.9453
  0
LINE
  8
0
 10
-94.8711
 20
83.9453
 11
-94.7107
 21
83.6044
  0
LINE
  8
0
 10
-94.7107
 20
83.6044
 11
-94.5943
 21
83.2461
  0
LINE
  8
0
 10
-94.5943
 20
83.2461
 11
-94.5237
 21
82.876
  0
LINE
  8
0
 10
-94.5237
 20
82.876
 11
-94.5
 21
82.5
  0
LINE
  8
0
 10
-94.5
 20
82.5
 11
-94.5237
 21
82.124
  0
LINE
  8
0
 10
-94.5237
 20
82.124
 11
-94.5943
 21
81.7539
  0
LINE
  8
0
 10
-94.5943
 20
81.7539
 11
-94.7107
 21
81.3956
  0
LINE
  8
0
 10
-94.7107
 20
81.3956
 11
-94.8711
 21
81.0547
  0
LINE
  8
0
 10
-94.8711
 20
81.0547
 11
-95.073
 21
80.7366
  0
LINE
  8
0
 10
-95.073
 20
80.7366
 11
-95.3131
 21
80.4464
  0
LINE
  8
0
 10
-95.3131
 20
80.4464
 11
-95.5877
 21
80.1885
  0
LINE
  8
0
 10
-95.5877
 20
80.1885
 11
-95.8925
 21
79.967
  0
LINE
  8
0
 10
-95.8925
 20
79.967
 11
-96.2227
 21
79.7855
  0
LINE
  8
0
 10
-96.2227
 20
79.7855
 11
-96.573
 21
79.6468
  0
LINE
  8
0
 10
-96.573
 20
79.6468
 11
-96.9379
 21
79.5531
  0
LINE
  8
0
 10
-96.9379
 20
79.5531
 11
-97.3116
 21
79.5059
  0
LINE
  8
0
 10
-97.3116
 20
79.5059
 11
-97.6884
 21
79.5059
  0
LINE
  8
0
 10
97.3116
 20
79.5059
 11
96.9379
 21
79.5531
  0
LINE
  8
0
 10
96.9379
 20
79.5531
 11
96.573
 21
79.6468
  0
LINE
  8
0
 10
96.573
 20
79.6468
 11
96.2227
 21
79.7855
  0
LINE
  8
0
 10
96.2227
 20
79.7855
 11
95.8925
 21
79.967
  0
LINE
  8
0
 10
95.8925
 20
79.967
 11
95.5877
 21
80.1885
  0
LINE
  8
0
 10
95.5877
 20
80.1885
 11
95.3131
 21
80.4464
  0
LINE
  8
0
 10
95.3131
 20
80.4464
 11
95.073
 21
80.7366
  0
LINE
  8
0
 10
95.073
 20
80.7366
 11
94.8711
 21
81.0547
  0
LINE
  8
0
 10
94.8711
 20
81.0547
 11
94.7107
 21
81.3956
  0
LINE
  8
0
 10
94.7107
 20
81.3956
 11
94.5943
 21
81.7539
  0
LINE
  8
0
 10
94.5943
 20
81.7539
 11
94.5237
 21
82.124
  0
LINE
  8
0
 10
94.5237
 20
82.124
 11
94.5
 21
82.5
  0
LINE
  8
0
 10
94.5
 20
82.5
 11
94.5237
 21
82.876
  0
LINE
  8
0
 10
94.5237
 20
82.876
 11
94.5943
 21
83.2461
  0
LINE
  8
0
 10
94.5943
 20
83.2461
 11
94.7107
 21
83.6044
  0
LINE
  8
0
 10
94.7107
 20
83.6044
 11
94.8711
 21
83.9453
  0
LINE
  8
0
 10
94.8711
 20
83.9453
 11
95.073
 21
84.2634
  0
LINE
  8
0
 10
95.073
 20
84.2634
 11
95.3131
 21
84.5536
  0
LINE
  8
0
 10
95.3131
 20
84.5536
 11
95.5877
 21
84.8115
  0
LINE
  8
0
 10
95.5877
 20
84.8115
 11
95.8925
 21
85.033
  0
LINE
  8
0
 10
95.8925
 20
85.033
 11
96.2227
 21
85.2145
  0
LINE
  8
0
 10
96.2227
 20
85.2145
 11
96.573
 21
85.3532
  0
LINE
  8
0
 10
96.573
 20
85.3532
 11
96.9379
 21
85.4469
  0
LINE
  8
0
 10
96.9379
 20
85.4469
 11
97.3116
 21
85.4941
  0
LINE
  8
0
 10
97.3116
 20
85.4941
 11
97.6884
 21
85.4941
  0
LINE
  8
0
 10
97.6884
 20
85.4941
 11
98.0621
 21
85.4469
  0
LINE
  8
0
 10
98.0621
 20
85.4469
 11
98.427
 21
85.3532
  0
LINE
  8
0
 10
98.427
 20
85.3532
 11
98.7773
 21
85.2145
  0
LINE
  8
0
 10
98.7773
 20
85.2145
 11
99.1075
 21
85.033
  0
LINE
  8
0
 10
99.1075
 20
85.033
 11
99.4123
 21
84.8115
  0
LINE
  8
0
 10
99.4123
 20
84.8115
 11
99.6869
 21
84.5536
  0
LINE
  8
0
 10
99.6869
 20
84.5536
 11
99.927
 21
84.2634
  0
LINE
  8
0
 10
99.927
 20
84.2634
 11
100.129
 21
83.9453
  0
LINE
  8
0
 10
100.129
 20
83.9453
 11
100.289
 21
83.6044
  0
LINE
  8
0
 10
100.289
 20
83.6044
 11
100.406
 21
83.2461
  0
LINE
  8
0
 10
100.406
 20
83.2461
 11
100.476
 21
82.876
  0
LINE
  8
0
 10
100.476
 20
82.876
 11
100.5
 21
82.5
  0
LINE
  8
0
 10
100.5
 20
82.5
 11
100.476
 21
82.124
  0
LINE
  8
0
 10
100.476
 20
82.124
 11
100.406
 21
81.7539
  0
LINE
  8
0
 10
100.406
 20
81.7539
 11
100.289
 21
81.3956
  0
LINE
  8
0
 10
100.289
 20
81.3956
 11
100.129
 21
81.0547
  0
LINE
  8
0
 10
100.129
 20
81.0547
 11
99.927
 21
80.7366
  0
LINE
  8
0
 10
99.927
 20
80.7366
 11
99.6869
 21
80.4464
  0
LINE
  8
0
 10
99.6869
 20
80.4464
 11
99.4123
 21
80.1885
  0
LINE
  8
0
 10
99.4123
 20
80.1885
 11
99.1075
 21
79.967
  0
LINE
  8
0
 10
99.1075
 20
79.967
 11
98.7773
 21
79.7855
  0
LINE
  8
0
 10
98.7773
 20
79.7855
 11
98.427
 21
79.6468
  0
LINE
  8
0
 10
98.427
 20
79.6468
 11
98.0621
 21
79.5531
  0
LINE
  8
0
 10
98.0621
 20
79.5531
 11
97.6884
 21
79.5059
  0
LINE
  8
0
 10
97.6884
 20
79.5059
 11
97.3116
 21
79.5059
  0
LINE
  8
0
 10
97.4058
 20
73.503
 11
97.2189
 21
73.5266
  0
LINE
  8
0
 10
97.2189
 20
73.5266
 11
97.0365
 21
73.5734
  0
LINE
  8
0
 10
97.0365
 20
73.5734
 11
96.8613
 21
73.6428
  0
LINE
  8
0
 10
96.8613
 20
73.6428
 11
96.6963
 21
73.7335
  0
LINE
  8
0
 10
96.6963
 20
73.7335
 11
96.5439
 21
73.8442
  0
LINE
  8
0
 10
96.5439
 20
73.8442
 11
96.4065
 21
73.9732
  0
LINE
  8
0
 10
96.4065
 20
73.9732
 11
96.2865
 21
74.1183
  0
LINE
  8
0
 10
96.2865
 20
74.1183
 11
96.1855
 21
74.2774
  0
LINE
  8
0
 10
96.1855
 20
74.2774
 11
96.1053
 21
74.4478
  0
LINE
  8
0
 10
96.1053
 20
74.4478
 11
96.0471
 21
74.627
  0
LINE
  8
0
 10
96.0471
 20
74.627
 11
96.0118
 21
74.812
  0
LINE
  8
0
 10
96.0118
 20
74.812
 11
96
 21
75
  0
LINE
  8
0
 10
96
 20
75
 11
96.0118
 21
75.188
  0
LINE
  8
0
 10
96.0118
 20
75.188
 11
96.0471
 21
75.373
  0
LINE
  8
0
 10
96.0471
 20
75.373
 11
96.1053
 21
75.5522
  0
LINE
  8
0
 10
96.1053
 20
75.5522
 11
96.1855
 21
75.7226
  0
LINE
  8
0
 10
96.1855
 20
75.7226
 11
96.2865
 21
75.8817
  0
LINE
  8
0
 10
96.2865
 20
75.8817
 11
96.4065
 21
76.0268
  0
LINE
  8
0
 10
96.4065
 20
76.0268
 11
96.5439
 21
76.1558
  0
LINE
  8
0
 10
96.5439
 20
76.1558
 11
96.6963
 21
76.2665
  0
LINE
  8
0
 10
96.6963
 20
76.2665
 11
96.8613
 21
76.3572
  0
LINE
  8
0
 10
96.8613
 20
76.3572
 11
97.0365
 21
76.4266
  0
LINE
  8
0
 10
97.0365
 20
76.4266
 11
97.2189
 21
76.4734
  0
LINE
  8
0
 10
97.2189
 20
76.4734
 11
97.4058
 21
76.497
  0
LINE
  8
0
 10
97.4058
 20
76.497
 11
97.5942
 21
76.497
  0
LINE
  8
0
 10
97.5942
 20
76.497
 11
97.7811
 21
76.4734
  0
LINE
  8
0
 10
97.7811
 20
76.4734
 11
97.9635
 21
76.4266
  0
LINE
  8
0
 10
97.9635
 20
76.4266
 11
98.1387
 21
76.3572
  0
LINE
  8
0
 10
98.1387
 20
76.3572
 11
98.3037
 21
76.2665
  0
LINE
  8
0
 10
98.3037
 20
76.2665
 11
98.4561
 21
76.1558
  0
LINE
  8
0
 10
98.4561
 20
76.1558
 11
98.5934
 21
76.0268
  0
LINE
  8
0
 10
98.5934
 20
76.0268
 11
98.7135
 21
75.8817
  0
LINE
  8
0
 10
98.7135
 20
75.8817
 11
98.8145
 21
75.7226
  0
LINE
  8
0
 10
98.8145
 20
75.7226
 11
98.8947
 21
75.5522
  0
LINE
  8
0
 10
98.8947
 20
75.5522
 11
98.9529
 21
75.373
  0
LINE
  8
0
 10
98.9529
 20
75.373
 11
98.9882
 21
75.188
  0
LINE
  8
0
 10
98.9882
 20
75.188
 11
99
 21
75
  0
LINE
  8
0
 10
99
 20
75
 11
98.9882
 21
74.812
  0
LINE
  8
0
 10
98.9882
 20
74.812
 11
98.9529
 21
74.627
  0
LINE
  8
0
 10
98.9529
 20
74.627
 11
98.8947
 21
74.4478
  0
LINE
  8
0
 10
98.8947
 20
74.4478
 11
98.8145
 21
74.2774
  0
LINE
  8
0
 10
98.8145
 20
74.2774
 11
98.7135
 21
74.1183
  0
LINE
  8
0
 10
98.7135
 20
74.1183
 11
98.5934
 21
73.9732
  0
LINE
  8
0
 10
98.5934
 20
73.9732
 11
98.4561
 21
73.8442
  0
LINE
  8
0
 10
98.4561
 20
73.8442
 11
98.3037
 21
73.7335
  0
LINE
  8
0
 10
98.3037
 20
73.7335
 11
98.1387
 21
73.6428
  0
LINE
  8
0
 10
98.1387
 20
73.6428
 11
97.9635
 21
73.5734
  0
LINE
  8
0
 10
97.9635
 20
73.5734
 11
97.7811
 21
73.5266
  0
LINE
  8
0
 10
97.7811
 20
73.5266
 11
97.5942
 21
73.503
  0
LINE
  8
0
 10
97.5942
 20
73.503
 11
97.4058
 21
73.503
  0
LINE
  8
0
 10
-97.5942
 20
73.503
 11
-97.7811
 21
73.5266
  0
LINE
  8
0
 10
-97.7811
 20
73.5266
 11
-97.9635
 21
73.5734
  0
LINE
  8
0
 10
-97.9635
 20
73.5734
 11
-98.1387
 21
73.6428
  0
LINE
  8
0
 10
-98.1387
 20
73.6428
 11
-98.3037
 21
73.7335
  0
LINE
  8
0
 10
-98.3037
 20
73.7335
 11
-98.4561
 21
73.8442
  0
LINE
  8
0
 10
-98.4561
 20
73.8442
 11
-98.5934
 21
73.9732
  0
LINE
  8
0
 10
-98.5934
 20
73.9732
 11
-98.7135
 21
74.1183
  0
LINE
  8
0
 10
-98.7135
 20
74.1183
 11
-98.8145
 21
74.2774
  0
LINE
  8
0
 10
-98.8145
 20
74.2774
 11
-98.8947
 21
74.4478
  0
LINE
  8
0
 10
-98.8947
 20
74.4478
 11
-98.9529
 21
74.627
  0
LINE
  8
0
 10
-98.9529
 20
74.627
 11
-98.9882
 21
74.812
  0
LINE
  8
0
 10
-98.9882
 20
74.812
 11
-99
 21
75
  0
LINE
  8
0
 10
-99
 20
75
 11
-98.9882
 21
75.188
  0
LINE
  8
0
 10
-98.9882
 20
75.188
 11
-98.9529
 21
75.373
  0
LINE
  8
0
 10
-98.9529
 20
75.373
 11
-98.8947
 21
75.5522
  0
LINE
  8
0
 10
-98.8947
 20
75.5522
 11
-98.8145
 21
75.7226
  0
LINE
  8
0
 10
-98.8145
 20
75.7226
 11
-98.7135
 21
75.8817
  0
LINE
  8
0
 10
-98.7135
 20
75.8817
 11
-98.5934
 21
76.0268
  0
LINE
  8
0
 10
-98.5934
 20
76.0268
 11
-98.4561
 21
76.1558
  0
LINE
  8
0
 10
-98.4561
 20
76.1558
 11
-98.3037
 21
76.2665
  0
LINE
  8
0
 10
-98.3037
 20
76.2665
 11
-98.1387
 21
76.3572
  0
LINE
  8
0
 10
-98.1387
 20
76.3572
 11
-97.9635
 21
76.4266
  0
LINE
  8
0
 10
-97.9635
 20
76.4266
 11
-97.7811
 21
76.4734
  0
LINE
  8
0
 10
-97.7811
 20
76.4734
 11
-97.5942
 21
76.497
  0
LINE
  8
0
 10
-97.5942
 20
76.497
 11
-97.4058
 21
76.497
  0
LINE
  8
0
 10
-97.4058
 20
76.497
 11
-97.2189
 21
76.4734
  0
LINE
  8
0
 10
-97.2189
 20
76.4734
 11
-97.0365
 21
76.4266
  0
LINE
  8
0
 10
-97.0365
 20
76.4266
 11
-96.8613
 21
76.3572
  0
LINE
  8
0
 10
-96.8613
 20
76.3572
 11
-96.6963
 21
76.2665
  0
LINE
  8
0
 10
-96.6963
 20
76.2665
 11
-96.5439
 21
76.1558
  0
LINE
  8
0
 10
-96.5439
 20
76.1558
 11
-96.4065
 21
76.0268
  0
LINE
  8
0
 10
-96.4065
 20
76.0268
 11
-96.2865
 21
75.8817
  0
LINE
  8
0
 10
-96.2865
 20
75.8817
 11
-96.1855
 21
75.7226
  0
LINE
  8
0
 10
-96.1855
 20
75.7226
 11
-96.1053
 21
75.5522
  0
LINE
  8
0
 10
-96.1053
 20
75.5522
 11
-96.0471
 21
75.373
  0
LINE
  8
0
 10
-96.0471
 20
75.373
 11
-96.0118
 21
75.188
  0
LINE
  8
0
 10
-96.0118
 20
75.188
 11
-96
 21
75
  0
LINE
  8
0
 10
-96
 20
75
 11
-96.0118
 21
74.812
  0
LINE
  8
0
 10
-96.0118
 20
74.812
 11
-96.0471
 21
74.627
  0
LINE
  8
0
 10
-96.0471
 20
74.627
 11
-96.1053
 21
74.4478
  0
LINE
  8
0
 10
-96.1053
 20
74.4478
 11
-96.1855
 21
74.2774
  0
LINE
  8
0
 10
-96.1855
 20
74.2774
 11
-96.2865
 21
74.1183
  0
LINE
  8
0
 10
-96.2865
 20
74.1183
 11
-96.4065
 21
73.9732
  0
LINE
  8
0
 10
-96.4065
 20
73.9732
 11
-96.5439
 21
73.8442
  0
LINE
  8
0
 10
-96.5439
 20
73.8442
 11
-96.6963
 21
73.7335
  0
LINE
  8
0
 10
-96.6963
 20
73.7335
 11
-96.8613
 21
73.6428
  0
LINE
  8
0
 10
-96.8613
 20
73.6428
 11
-97.0365
 21
73.5734
  0
LINE
  8
0
 10
-97.0365
 20
73.5734
 11
-97.2189
 21
73.5266
  0
LINE
  8
0
 10
-97.2189
 20
73.5266
 11
-97.4058
 21
73.503
  0
LINE
  8
0
 10
-97.4058
 20
73.503
 11
-97.5942
 21
73.503
  0
LINE
  8
0
 10
94.5237
 20
67.876
 11
94.5943
 21
68.2461
  0
LINE
  8
0
 10
94.5943
 20
68.2461
 11
94.7107
 21
68.6044
  0
LINE
  8
0
 10
94.7107
 20
68.6044
 11
94.8711
 21
68.9453
  0
LINE
  8
0
 10
94.8711
 20
68.9453
 11
95.073
 21
69.2634
  0
LINE
  8
0
 10
95.073
 20
69.2634
 11
95.3131
 21
69.5536
  0
LINE
  8
0
 10
95.3131
 20
69.5536
 11
95.5877
 21
69.8115
  0
LINE
  8
0
 10
95.5877
 20
69.8115
 11
95.8925
 21
70.033
  0
LINE
  8
0
 10
95.8925
 20
70.033
 11
96.2227
 21
70.2145
  0
LINE
  8
0
 10
96.2227
 20
70.2145
 11
96.573
 21
70.3532
  0
LINE
  8
0
 10
96.573
 20
70.3532
 11
96.9379
 21
70.4469
  0
LINE
  8
0
 10
96.9379
 20
70.4469
 11
97.3116
 21
70.4941
  0
LINE
  8
0
 10
97.3116
 20
70.4941
 11
97.6884
 21
70.4941
  0
LINE
  8
0
 10
97.6884
 20
70.4941
 11
98.0621
 21
70.4469
  0
LINE
  8
0
 10
98.0621
 20
70.4469
 11
98.427
 21
70.3532
  0
LINE
  8
0
 10
98.427
 20
70.3532
 11
98.7773
 21
70.2145
  0
LINE
  8
0
 10
98.7773
 20
70.2145
 11
99.1075
 21
70.033
  0
LINE
  8
0
 10
99.1075
 20
70.033
 11
99.4123
 21
69.8115
  0
LINE
  8
0
 10
99.4123
 20
69.8115
 11
99.6869
 21
69.5536
  0
LINE
  8
0
 10
99.6869
 20
69.5536
 11
99.927
 21
69.2634
  0
LINE
  8
0
 10
99.927
 20
69.2634
 11
100.129
 21
68.9453
  0
LINE
  8
0
 10
100.129
 20
68.9453
 11
100.289
 21
68.6044
  0
LINE
  8
0
 10
100.289
 20
68.6044
 11
100.406
 21
68.2461
  0
LINE
  8
0
 10
100.406
 20
68.2461
 11
100.476
 21
67.876
  0
LINE
  8
0
 10
100.476
 20
67.876
 11
100.5
 21
67.5
  0
LINE
  8
0
 10
100.5
 20
67.5
 11
100.476
 21
67.124
  0
LINE
  8
0
 10
100.476
 20
67.124
 11
100.406
 21
66.7539
  0
LINE
  8
0
 10
100.406
 20
66.7539
 11
100.289
 21
66.3956
  0
LINE
  8
0
 10
100.289
 20
66.3956
 11
100.129
 21
66.0547
  0
LINE
  8
0
 10
100.129
 20
66.0547
 11
99.927
 21
65.7366
  0
LINE
  8
0
 10
99.927
 20
65.7366
 11
99.6869
 21
65.4464
  0
LINE
  8
0
 10
99.6869
 20
65.4464
 11
99.4123
 21
65.1885
  0
LINE
  8
0
 10
99.4123
 20
65.1885
 11
99.1075
 21
64.967
  0
LINE
  8
0
 10
99.1075
 20
64.967
 11
98.7773
 21
64.7855
  0
LINE
  8
0
 10
98.7773
 20
64.7855
 11
98.427
 21
64.6468
  0
LINE
  8
0
 10
98.427
 20
64.6468
 11
98.0621
 21
64.5531
  0
LINE
  8
0
 10
98.0621
 20
64.5531
 11
97.6884
 21
64.5059
  0
LINE
  8
0
 10
97.6884
 20
64.5059
 11
97.3116
 21
64.5059
  0
LINE
  8
0
 10
97.3116
 20
64.5059
 11
96.9379
 21
64.5531
  0
LINE
  8
0
 10
96.9379
 20
64.5531
 11
96.573
 21
64.6468
  0
LINE
  8
0
 10
96.573
 20
64.6468
 11
96.2227
 21
64.7855
  0
LINE
  8
0
 10
96.2227
 20
64.7855
 11
95.8925
 21
64.967
  0
LINE
  8
0
 10
95.8925
 20
64.967
 11
95.5877
 21
65.1885
  0
LINE
  8
0
 10
95.5877
 20
65.1885
 11
95.3131
 21
65.4464
  0
LINE
  8
0
 10
95.3131
 20
65.4464
 11
95.073
 21
65.7366
  0
LINE
  8
0
 10
95.073
 20
65.7366
 11
94.8711
 21
66.0547
  0
LINE
  8
0
 10
94.8711
 20
66.0547
 11
94.7107
 21
66.3956
  0
LINE
  8
0
 10
94.7107
 20
66.3956
 11
94.5943
 21
66.7539
  0
LINE
  8
0
 10
94.5943
 20
66.7539
 11
94.5237
 21
67.124
  0
LINE
  8
0
 10
94.5237
 20
67.124
 11
94.5
 21
67.5
  0
LINE
  8
0
 10
94.5
 20
67.5
 11
94.5237
 21
67.876
  0
LINE
  8
0
 10
97.4058
 20
58.503
 11
97.2189
 21
58.5266
  0
LINE
  8
0
 10
97.2189
 20
58.5266
 11
97.0365
 21
58.5734
  0
LINE
  8
0
 10
97.0365
 20
58.5734
 11
96.8613
 21
58.6428
  0
LINE
  8
0
 10
96.8613
 20
58.6428
 11
96.6963
 21
58.7335
  0
LINE
  8
0
 10
96.6963
 20
58.7335
 11
96.5439
 21
58.8442
  0
LINE
  8
0
 10
96.5439
 20
58.8442
 11
96.4065
 21
58.9732
  0
LINE
  8
0
 10
96.4065
 20
58.9732
 11
96.2865
 21
59.1183
  0
LINE
  8
0
 10
96.2865
 20
59.1183
 11
96.1855
 21
59.2774
  0
LINE
  8
0
 10
96.1855
 20
59.2774
 11
96.1053
 21
59.4478
  0
LINE
  8
0
 10
96.1053
 20
59.4478
 11
96.0471
 21
59.627
  0
LINE
  8
0
 10
96.0471
 20
59.627
 11
96.0118
 21
59.812
  0
LINE
  8
0
 10
96.0118
 20
59.812
 11
96
 21
60
  0
LINE
  8
0
 10
96
 20
60
 11
96.0118
 21
60.188
  0
LINE
  8
0
 10
96.0118
 20
60.188
 11
96.0471
 21
60.373
  0
LINE
  8
0
 10
96.0471
 20
60.373
 11
96.1053
 21
60.5522
  0
LINE
  8
0
 10
96.1053
 20
60.5522
 11
96.1855
 21
60.7226
  0
LINE
  8
0
 10
96.1855
 20
60.7226
 11
96.2865
 21
60.8817
  0
LINE
  8
0
 10
96.2865
 20
60.8817
 11
96.4065
 21
61.0268
  0
LINE
  8
0
 10
96.4065
 20
61.0268
 11
96.5439
 21
61.1558
  0
LINE
  8
0
 10
96.5439
 20
61.1558
 11
96.6963
 21
61.2665
  0
LINE
  8
0
 10
96.6963
 20
61.2665
 11
96.8613
 21
61.3572
  0
LINE
  8
0
 10
96.8613
 20
61.3572
 11
97.0365
 21
61.4266
  0
LINE
  8
0
 10
97.0365
 20
61.4266
 11
97.2189
 21
61.4734
  0
LINE
  8
0
 10
97.2189
 20
61.4734
 11
97.4058
 21
61.497
  0
LINE
  8
0
 10
97.4058
 20
61.497
 11
97.5942
 21
61.497
  0
LINE
  8
0
 10
97.5942
 20
61.497
 11
97.7811
 21
61.4734
  0
LINE
  8
0
 10
97.7811
 20
61.4734
 11
97.9635
 21
61.4266
  0
LINE
  8
0
 10
97.9635
 20
61.4266
 11
98.1387
 21
61.3572
  0
LINE
  8
0
 10
98.1387
 20
61.3572
 11
98.3037
 21
61.2665
  0
LINE
  8
0
 10
98.3037
 20
61.2665
 11
98.4561
 21
61.1558
  0
LINE
  8
0
 10
98.4561
 20
61.1558
 11
98.5934
 21
61.0268
  0
LINE
  8
0
 10
98.5934
 20
61.0268
 11
98.7135
 21
60.8817
  0
LINE
  8
0
 10
98.7135
 20
60.8817
 11
98.8145
 21
60.7226
  0
LINE
  8
0
 10
98.8145
 20
60.7226
 11
98.8947
 21
60.5522
  0
LINE
  8
0
 10
98.8947
 20
60.5522
 11
98.9529
 21
60.373
  0
LINE
  8
0
 10
98.9529
 20
60.373
 11
98.9882
 21
60.188
  0
LINE
  8
0
 10
98.9882
 20
60.188
 11
99
 21
60
  0
LINE
  8
0
 10
99
 20
60
 11
98.9882
 21
59.812
  0
LINE
  8
0
 10
98.9882
 20
59.812
 11
98.9529
 21
59.627
  0
LINE
  8
0
 10
98.9529
 20
59.627
 11
98.8947
 21
59.4478
  0
LINE
  8
0
 10
98.8947
 20
59.4478
 11
98.8145
 21
59.2774
  0
LINE
  8
0
 10
98.8145
 20
59.2774
 11
98.7135
 21
59.1183
  0
LINE
  8
0
 10
98.7135
 20
59.1183
 11
98.5934
 21
58.9732
  0
LINE
  8
0
 10
98.5934
 20
58.9732
 11
98.4561
 21
58.8442
  0
LINE
  8
0
 10
98.4561
 20
58.8442
 11
98.3037
 21
58.7335
  0
LINE
  8
0
 10
98.3037
 20
58.7335
 11
98.1387
 21
58.6428
  0
LINE
  8
0
 10
98.1387
 20
58.6428
 11
97.9635
 21
58.5734
  0
LINE
  8
0
 10
97.9635
 20
58.5734
 11
97.7811
 21
58.5266
  0
LINE
  8
0
 10
97.7811
 20
58.5266
 11
97.5942
 21
58.503
  0
LINE
  8
0
 10
97.5942
 20
58.503
 11
97.4058
 21
58.503
  0
LINE
  8
0
 10
-97.5942
 20
58.503
 11
-97.7811
 21
58.5266
  0
LINE
  8
0
 10
-97.7811
 20
58.5266
 11
-97.9635
 21
58.5734
  0
LINE
  8
0
 10
-97.9635
 20
58.5734
 11
-98.1387
 21
58.6428
  0
LINE
  8
0
 10
-98.1387
 20
58.6428
 11
-98.3037
 21
58.7335
  0
LINE
  8
0
 10
-98.3037
 20
58.7335
 11
-98.4561
 21
58.8442
  0
LINE
  8
0
 10
-98.4561
 20
58.8442
 11
-98.5934
 21
58.9732
  0
LINE
  8
0
 10
-98.5934
 20
58.9732
 11
-98.7135
 21
59.1183
  0
LINE
  8
0
 10
-98.7135
 20
59.1183
 11
-98.8145
 21
59.2774
  0
LINE
  8
0
 10
-98.8145
 20
59.2774
 11
-98.8947
 21
59.4478
  0
LINE
  8
0
 10
-98.8947
 20
59.4478
 11
-98.9529
 21
59.627
  0
LINE
  8
0
 10
-98.9529
 20
59.627
 11
-98.9882
 21
59.812
  0
LINE
  8
0
 10
-98.9882
 20
59.812
 11
-99
 21
60
  0
LINE
  8
0
 10
-99
 20
60
 11
-98.9882
 21
60.188
  0
LINE
  8
0
 10
-98.9882
 20
60.188
 11
-98.9529
 21
60.373
  0
LINE
  8
0
 10
-98.9529
 20
60.373
 11
-98.8947
 21
60.5522
  0
LINE
  8
0
 10
-98.8947
 20
60.5522
 11
-98.8145
 21
60.7226
  0
LINE
  8
0
 10
-98.8145
 20
60.7226
 11
-98.7135
 21
60.8817
  0
LINE
  8
0
 10
-98.7135
 20
60.8817
 11
-98.5934
 21
61.0268
  0
LINE
  8
0
 10
-98.5934
 20
61.0268
 11
-98.4561
 21
61.1558
  0
LINE
  8
0
 10
-98.4561
 20
61.1558
 11
-98.3037
 21
61.2665
  0
LINE
  8
0
 10
-98.3037
 20
61.2665
 11
-98.1387
 21
61.3572
  0
LINE
  8
0
 10
-98.1387
 20
61.3572
 11
-97.9635
 21
61.4266
  0
LINE
  8
0
 10
-97.9635
 20
61.4266
 11
-97.7811
 21
61.4734
  0
LINE
  8
0
 10
-97.7811
 20
61.4734
 11
-97.5942
 21
61.497
  0
LINE
  8
0
 10
-97.5942
 20
61.497
 11
-97.4058
 21
61.497
  0
LINE
  8
0
 10
-97.4058
 20
61.497
 11
-97.2189
 21
61.4734
  0
LINE
  8
0
 10
-97.2189
 20
61.4734
 11
-97.0365
 21
61.4266
  0
LINE
  8
0
 10
-97.0365
 20
61.4266
 11
-96.8613
 21
61.3572
  0
LINE
  8
0
 10
-96.8613
 20
61.3572
 11
-96.6963
 21
61.2665
  0
LINE
  8
0
 10
-96.6963
 20
61.2665
 11
-96.5439
 21
61.1558
  0
LINE
  8
0
 10
-96.5439
 20
61.1558
 11
-96.4065
 21
61.0268
  0
LINE
  8
0
 10
-96.4065
 20
61.0268
 11
-96.2865
 21
60.8817
  0
LINE
  8
0
 10
-96.2865
 20
60.8817
 11
-96.1855
 21
60.7226
  0
LINE
  8
0
 10
-96.1855
 20
60.7226
 11
-96.1053
 21
60.5522
  0
LINE
  8
0
 10
-96.1053
 20
60.5522
 11
-96.0471
 21
60.373
  0
LINE
  8
0
 10
-96.0471
 20
60.373
 11
-96.0118
 21
60.188
  0
LINE
  8
0
 10
-96.0118
 20
60.188
 11
-96
 21
60
  0
LINE
  8
0
 10
-96
 20
60
 11
-96.0118
 21
59.812
  0
LINE
  8
0
 10
-96.0118
 20
59.812
 11
-96.0471
 21
59.627
  0
LINE
  8
0
 10
-96.0471
 20
59.627
 11
-96.1053
 21
59.4478
  0
LINE
  8
0
 10
-96.1053
 20
59.4478
 11
-96.1855
 21
59.2774
  0
LINE
  8
0
 10
-96.1855
 20
59.2774
 11
-96.2865
 21
59.1183
  0
LINE
  8
0
 10
-96.2865
 20
59.1183
 11
-96.4065
 21
58.9732
  0
LINE
  8
0
 10
-96.4065
 20
58.9732
 11
-96.5439
 21
58.8442
  0
LINE
  8
0
 10
-96.5439
 20
58.8442
 11
-96.6963
 21
58.7335
  0
LINE
  8
0
 10
-96.6963
 20
58.7335
 11
-96.8613
 21
58.6428
  0
LINE
  8
0
 10
-96.8613
 20
58.6428
 11
-97.0365
 21
58.5734
  0
LINE
  8
0
 10
-97.0365
 20
58.5734
 11
-97.2189
 21
58.5266
  0
LINE
  8
0
 10
-97.2189
 20
58.5266
 11
-97.4058
 21
58.503
  0
LINE
  8
0
 10
-97.4058
 20
58.503
 11
-97.5942
 21
58.503
  0
LINE
  8
0
 10
97.3116
 20
49.5059
 11
96.9379
 21
49.5531
  0
LINE
  8
0
 10
96.9379
 20
49.5531
 11
96.573
 21
49.6468
  0
LINE
  8
0
 10
96.573
 20
49.6468
 11
96.2227
 21
49.7855
  0
LINE
  8
0
 10
96.2227
 20
49.7855
 11
95.8925
 21
49.967
  0
LINE
  8
0
 10
95.8925
 20
49.967
 11
95.5877
 21
50.1885
  0
LINE
  8
0
 10
95.5877
 20
50.1885
 11
95.3131
 21
50.4464
  0
LINE
  8
0
 10
95.3131
 20
50.4464
 11
95.073
 21
50.7366
  0
LINE
  8
0
 10
95.073
 20
50.7366
 11
94.8711
 21
51.0547
  0
LINE
  8
0
 10
94.8711
 20
51.0547
 11
94.7107
 21
51.3956
  0
LINE
  8
0
 10
94.7107
 20
51.3956
 11
94.5943
 21
51.7539
  0
LINE
  8
0
 10
94.5943
 20
51.7539
 11
94.5237
 21
52.124
  0
LINE
  8
0
 10
94.5237
 20
52.124
 11
94.5
 21
52.5
  0
LINE
  8
0
 10
94.5
 20
52.5
 11
94.5237
 21
52.876
  0
LINE
  8
0
 10
94.5237
 20
52.876
 11
94.5943
 21
53.2461
  0
LINE
  8
0
 10
94.5943
 20
53.2461
 11
94.7107
 21
53.6044
  0
LINE
  8
0
 10
94.7107
 20
53.6044
 11
94.8711
 21
53.9453
  0
LINE
  8
0
 10
94.8711
 20
53.9453
 11
95.073
 21
54.2634
  0
LINE
  8
0
 10
95.073
 20
54.2634
 11
95.3131
 21
54.5536
  0
LINE
  8
0
 10
95.3131
 20
54.5536
 11
95.5877
 21
54.8115
  0
LINE
  8
0
 10
95.5877
 20
54.8115
 11
95.8925
 21
55.033
  0
LINE
  8
0
 10
95.8925
 20
55.033
 11
96.2227
 21
55.2145
  0
LINE
  8
0
 10
96.2227
 20
55.2145
 11
96.573
 21
55.3532
  0
LINE
  8
0
 10
96.573
 20
55.3532
 11
96.9379
 21
55.4469
  0
LINE
  8
0
 10
96.9379
 20
55.4469
 11
97.3116
 21
55.4941
  0
LINE
  8
0
 10
97.3116
 20
55.4941
 11
97.6884
 21
55.4941
  0
LINE
  8
0
 10
97.6884
 20
55.4941
 11
98.0621
 21
55.4469
  0
LINE
  8
0
 10
98.0621
 20
55.4469
 11
98.427
 21
55.3532
  0
LINE
  8
0
 10
98.427
 20
55.3532
 11
98.7773
 21
55.2145
  0
LINE
  8
0
 10
98.7773
 20
55.2145
 11
99.1075
 21
55.033
  0
LINE
  8
0
 10
99.1075
 20
55.033
 11
99.4123
 21
54.8115
  0
LINE
  8
0
 10
99.4123
 20
54.8115
 11
99.6869
 21
54.5536
  0
LINE
  8
0
 10
99.6869
 20
54.5536
 11
99.927
 21
54.2634
  0
LINE
  8
0
 10
99.927
 20
54.2634
 11
100.129
 21
53.9453
  0
LINE
  8
0
 10
100.129
 20
53.9453
 11
100.289
 21
53.6044
  0
LINE
  8
0
 10
100.289
 20
53.6044
 11
100.406
 21
53.2461
  0
LINE
  8
0
 10
100.406
 20
53.2461
 11
100.476
 21
52.876
  0
LINE
  8
0
 10
100.476
 20
52.876
 11
100.5
 21
52.5
  0
LINE
  8
0
 10
100.5
 20
52.5
 11
100.476
 21
52.124
  0
LINE
  8
0
 10
100.476
 20
52.124
 11
100.406
 21
51.7539
  0
LINE
  8
0
 10
100.406
 20
51.7539
 11
100.289
 21
51.3956
  0
LINE
  8
0
 10
100.289
 20
51.3956
 11
100.129
 21
51.0547
  0
LINE
  8
0
 10
100.129
 20
51.0547
 11
99.927
 21
50.7366
  0
LINE
  8
0
 10
99.927
 20
50.7366
 11
99.6869
 21
50.4464
  0
LINE
  8
0
 10
99.6869
 20
50.4464
 11
99.4123
 21
50.1885
  0
LINE
  8
0
 10
99.4123
 20
50.1885
 11
99.1075
 21
49.967
  0
LINE
  8
0
 10
99.1075
 20
49.967
 11
98.7773
 21
49.7855
  0
LINE
  8
0
 10
98.7773
 20
49.7855
 11
98.427
 21
49.6468
  0
LINE
  8
0
 10
98.427
 20
49.6468
 11
98.0621
 21
49.5531
  0
LINE
  8
0
 10
98.0621
 20
49.5531
 11
97.6884
 21
49.5059
  0
LINE
  8
0
 10
97.6884
 20
49.5059
 11
97.3116
 21
49.5059
  0
LINE
  8
0
 10
-97.6884
 20
49.5059
 11
-98.0621
 21
49.5531
  0
LINE
  8
0
 10
-98.0621
 20
49.5531
 11
-98.427
 21
49.6468
  0
LINE
  8
0
 10
-98.427
 20
49.6468
 11
-98.7773
 21
49.7855
  0
LINE
  8
0
 10
-98.7773
 20
49.7855
 11
-99.1075
 21
49.967
  0
LINE
  8
0
 10
-99.1075
 20
49.967
 11
-99.4123
 21
50.1885
  0
LINE
  8
0
 10
-99.4123
 20
50.1885
 11
-99.6869
 21
50.4464
  0
LINE
  8
0
 10
-99.6869
 20
50.4464
 11
-99.927
 21
50.7366
  0
LINE
  8
0
 10
-99.927
 20
50.7366
 11
-100.129
 21
51.0547
  0
LINE
  8
0
 10
-100.129
 20
51.0547
 11
-100.289
 21
51.3956
  0
LINE
  8
0
 10
-100.289
 20
51.3956
 11
-100.406
 21
51.7539
  0
LINE
  8
0
 10
-100.406
 20
51.7539
 11
-100.476
 21
52.124
  0
LINE
  8
0
 10
-100.476
 20
52.124
 11
-100.5
 21
52.5
  0
LINE
  8
0
 10
-100.5
 20
52.5
 11
-100.476
 21
52.876
  0
LINE
  8
0
 10
-100.476
 20
52.876
 11
-100.406
 21
53.2461
  0
LINE
  8
0
 10
-100.406
 20
53.2461
 11
-100.289
 21
53.6044
  0
LINE
  8
0
 10
-100.289
 20
53.6044
 11
-100.129
 21
53.9453
  0
LINE
  8
0
 10
-100.129
 20
53.9453
 11
-99.927
 21
54.2634
  0
LINE
  8
0
 10
-99.927
 20
54.2634
 11
-99.6869
 21
54.5536
  0
LINE
  8
0
 10
-99.6869
 20
54.5536
 11
-99.4123
 21
54.8115
  0
LINE
  8
0
 10
-99.4123
 20
54.8115
 11
-99.1075
 21
55.033
  0
LINE
  8
0
 10
-99.1075
 20
55.033
 11
-98.7773
 21
55.2145
  0
LINE
  8
0
 10
-98.7773
 20
55.2145
 11
-98.427
 21
55.3532
  0
LINE
  8
0
 10
-98.427
 20
55.3532
 11
-98.0621
 21
55.4469
  0
LINE
  8
0
 10
-98.0621
 20
55.4469
 11
-97.6884
 21
55.4941
  0
LINE
  8
0
 10
-97.6884
 20
55.4941
 11
-97.3116
 21
55.4941
  0
LINE
  8
0
 10
-97.3116
 20
55.4941
 11
-96.9379
 21
55.4469
  0
LINE
  8
0
 10
-96.9379
 20
55.4469
 11
-96.573
 21
55.3532
  0
LINE
  8
0
 10
-96.573
 20
55.3532
 11
-96.2227
 21
55.2145
  0
LINE
  8
0
 10
-96.2227
 20
55.2145
 11
-95.8925
 21
55.033
  0
LINE
  8
0
 10
-95.8925
 20
55.033
 11
-95.5877
 21
54.8115
  0
LINE
  8
0
 10
-95.5877
 20
54.8115
 11
-95.3131
 21
54.5536
  0
LINE
  8
0
 10
-95.3131
 20
54.5536
 11
-95.073
 21
54.2634
  0
LINE
  8
0
 10
-95.073
 20
54.2634
 11
-94.8711
 21
53.9453
  0
LINE
  8
0
 10
-94.8711
 20
53.9453
 11
-94.7107
 21
53.6044
  0
LINE
  8
0
 10
-94.7107
 20
53.6044
 11
-94.5943
 21
53.2461
  0
LINE
  8
0
 10
-94.5943
 20
53.2461
 11
-94.5237
 21
52.876
  0
LINE
  8
0
 10
-94.5237
 20
52.876
 11
-94.5
 21
52.5
  0
LINE
  8
0
 10
-94.5
 20
52.5
 11
-94.5237
 21
52.124
  0
LINE
  8
0
 10
-94.5237
 20
52.124
 11
-94.5943
 21
51.7539
  0
LINE
  8
0
 10
-94.5943
 20
51.7539
 11
-94.7107
 21
51.3956
  0
LINE
  8
0
 10
-94.7107
 20
51.3956
 11
-94.8711
 21
51.0547
  0
LINE
  8
0
 10
-94.8711
 20
51.0547
 11
-95.073
 21
50.7366
  0
LINE
  8
0
 10
-95.073
 20
50.7366
 11
-95.3131
 21
50.4464
  0
LINE
  8
0
 10
-95.3131
 20
50.4464
 11
-95.5877
 21
50.1885
  0
LINE
  8
0
 10
-95.5877
 20
50.1885
 11
-95.8925
 21
49.967
  0
LINE
  8
0
 10
-95.8925
 20
49.967
 11
-96.2227
 21
49.7855
  0
LINE
  8
0
 10
-96.2227
 20
49.7855
 11
-96.573
 21
49.6468
  0
LINE
  8
0
 10
-96.573
 20
49.6468
 11
-96.9379
 21
49.5531
  0
LINE
  8
0
 10
-96.9379
 20
49.5531
 11
-97.3116
 21
49.5059
  0
LINE
  8
0
 10
-97.3116
 20
49.5059
 11
-97.6884
 21
49.5059
  0
LINE
  8
0
 10
97.4058
 20
43.503
 11
97.2189
 21
43.5266
  0
LINE
  8
0
 10
97.2189
 20
43.5266
 11
97.0365
 21
43.5734
  0
LINE
  8
0
 10
97.0365
 20
43.5734
 11
96.8613
 21
43.6428
  0
LINE
  8
0
 10
96.8613
 20
43.6428
 11
96.6963
 21
43.7335
  0
LINE
  8
0
 10
96.6963
 20
43.7335
 11
96.5439
 21
43.8442
  0
LINE
  8
0
 10
96.5439
 20
43.8442
 11
96.4065
 21
43.9732
  0
LINE
  8
0
 10
96.4065
 20
43.9732
 11
96.2865
 21
44.1183
  0
LINE
  8
0
 10
96.2865
 20
44.1183
 11
96.1855
 21
44.2774
  0
LINE
  8
0
 10
96.1855
 20
44.2774
 11
96.1053
 21
44.4478
  0
LINE
  8
0
 10
96.1053
 20
44.4478
 11
96.0471
 21
44.627
  0
LINE
  8
0
 10
96.0471
 20
44.627
 11
96.0118
 21
44.812
  0
LINE
  8
0
 10
96.0118
 20
44.812
 11
96
 21
45
  0
LINE
  8
0
 10
96
 20
45
 11
96.0118
 21
45.188
  0
LINE
  8
0
 10
96.0118
 20
45.188
 11
96.0471
 21
45.373
  0
LINE
  8
0
 10
96.0471
 20
45.373
 11
96.1053
 21
45.5522
  0
LINE
  8
0
 10
96.1053
 20
45.5522
 11
96.1855
 21
45.7226
  0
LINE
  8
0
 10
96.1855
 20
45.7226
 11
96.2865
 21
45.8817
  0
LINE
  8
0
 10
96.2865
 20
45.8817
 11
96.4065
 21
46.0268
  0
LINE
  8
0
 10
96.4065
 20
46.0268
 11
96.5439
 21
46.1558
  0
LINE
  8
0
 10
96.5439
 20
46.1558
 11
96.6963
 21
46.2665
  0
LINE
  8
0
 10
96.6963
 20
46.2665
 11
96.8613
 21
46.3572
  0
LINE
  8
0
 10
96.8613
 20
46.3572
 11
97.0365
 21
46.4266
  0
LINE
  8
0
 10
97.0365
 20
46.4266
 11
97.2189
 21
46.4734
  0
LINE
  8
0
 10
97.2189
 20
46.4734
 11
97.4058
 21
46.497
  0
LINE
  8
0
 10
97.4058
 20
46.497
 11
97.5942
 21
46.497
  0
LINE
  8
0
 10
97.5942
 20
46.497
 11
97.7811
 21
46.4734
  0
LINE
  8
0
 10
97.7811
 20
46.4734
 11
97.9635
 21
46.4266
  0
LINE
  8
0
 10
97.9635
 20
46.4266
 11
98.1387
 21
46.3572
  0
LINE
  8
0
 10
98.1387
 20
46.3572
 11
98.3037
 21
46.2665
  0
LINE
  8
0
 10
98.3037
 20
46.2665
 11
98.4561
 21
46.1558
  0
LINE
  8
0
 10
98.4561
 20
46.1558
 11
98.5934
 21
46.0268
  0
LINE
  8
0
 10
98.5934
 20
46.0268
 11
98.7135
 21
45.8817
  0
LINE
  8
0
 10
98.7135
 20
45.8817
 11
98.8145
 21
45.7226
  0
LINE
  8
0
 10
98.8145
 20
45.7226
 11
98.8947
 21
45.5522
  0
LINE
  8
0
 10
98.8947
 20
45.5522
 11
98.9529
 21
45.373
  0
LINE
  8
0
 10
98.9529
 20
45.373
 11
98.9882
 21
45.188
  0
LINE
  8
0
 10
98.9882
 20
45.188
 11
99
 21
45
  0
LINE
  8
0
 10
99
 20
45
 11
98.9882
 21
44.812
  0
LINE
  8
0
 10
98.9882
 20
44.812
 11
98.9529
 21
44.627
  0
LINE
  8
0
 10
98.9529
 20
44.627
 11
98.8947
 21
44.4478
  0
LINE
  8
0
 10
98.8947
 20
44.4478
 11
98.8145
 21
44.2774
  0
LINE
  8
0
 10
98.8145
 20
44.2774
 11
98.7135
 21
44.1183
  0
LINE
  8
0
 10
98.7135
 20
44.1183
 11
98.5934
 21
43.9732
  0
LINE
  8
0
 10
98.5934
 20
43.9732
 11
98.4561
 21
43.8442
  0
LINE
  8
0
 10
98.4561
 20
43.8442
 11
98.3037
 21
43.7335
  0
LINE
  8
0
 10
98.3037
 20
43.7335
 11
98.1387
 21
43.6428
  0
LINE
  8
0
 10
98.1387
 20
43.6428
 11
97.9635
 21
43.5734
  0
LINE
  8
0
 10
97.9635
 20
43.5734
 11
97.7811
 21
43.5266
  0
LINE
  8
0
 10
97.7811
 20
43.5266
 11
97.5942
 21
43.503
  0
LINE
  8
0
 10
97.5942
 20
43.503
 11
97.4058
 21
43.503
  0
LINE
  8
0
 10
-97.5942
 20
43.503
 11
-97.7811
 21
43.5266
  0
LINE
  8
0
 10
-97.7811
 20
43.5266
 11
-97.9635
 21
43.5734
  0
LINE
  8
0
 10
-97.9635
 20
43.5734
 11
-98.1387
 21
43.6428
  0
LINE
  8
0
 10
-98.1387
 20
43.6428
 11
-98.3037
 21
43.7335
  0
LINE
  8
0
 10
-98.3037
 20
43.7335
 11
-98.4561
 21
43.8442
  0
LINE
  8
0
 10
-98.4561
 20
43.8442
 11
-98.5934
 21
43.9732
  0
LINE
  8
0
 10
-98.5934
 20
43.9732
 11
-98.7135
 21
44.1183
  0
LINE
  8
0
 10
-98.7135
 20
44.1183
 11
-98.8145
 21
44.2774
  0
LINE
  8
0
 10
-98.8145
 20
44.2774
 11
-98.8947
 21
44.4478
  0
LINE
  8
0
 10
-98.8947
 20
44.4478
 11
-98.9529
 21
44.627
  0
LINE
  8
0
 10
-98.9529
 20
44.627
 11
-98.9882
 21
44.812
  0
LINE
  8
0
 10
-98.9882
 20
44.812
 11
-99
 21
45
  0
LINE
  8
0
 10
-99
 20
45
 11
-98.9882
 21
45.188
  0
LINE
  8
0
 10
-98.9882
 20
45.188
 11
-98.9529
 21
45.373
  0
LINE
  8
0
 10
-98.9529
 20
45.373
 11
-98.8947
 21
45.5522
  0
LINE
  8
0
 10
-98.8947
 20
45.5522
 11
-98.8145
 21
45.7226
  0
LINE
  8
0
 10
-98.8145
 20
45.7226
 11
-98.7135
 21
45.8817
  0
LINE
  8
0
 10
-98.7135
 20
45.8817
 11
-98.5934
 21
46.0268
  0
LINE
  8
0
 10
-98.5934
 20
46.0268
 11
-98.4561
 21
46.1558
  0
LINE
  8
0
 10
-98.4561
 20
46.1558
 11
-98.3037
 21
46.2665
  0
LINE
  8
0
 10
-98.3037
 20
46.2665
 11
-98.1387
 21
46.3572
  0
LINE
  8
0
 10
-98.1387
 20
46.3572
 11
-97.9635
 21
46.4266
  0
LINE
  8
0
 10
-97.9635
 20
46.4266
 11
-97.7811
 21
46.4734
  0
LINE
  8
0
 10
-97.7811
 20
46.4734
 11
-97.5942
 21
46.497
  0
LINE
  8
0
 10
-97.5942
 20
46.497
 11
-97.4058
 21
46.497
  0
LINE
  8
0
 10
-97.4058
 20
46.497
 11
-97.2189
 21
46.4734
  0
LINE
  8
0
 10
-97.2189
 20
46.4734
 11
-97.0365
 21
46.4266
  0
LINE
  8
0
 10
-97.0365
 20
46.4266
 11
-96.8613
 21
46.3572
  0
LINE
  8
0
 10
-96.8613
 20
46.3572
 11
-96.6963
 21
46.2665
  0
LINE
  8
0
 10
-96.6963
 20
46.2665
 11
-96.5439
 21
46.1558
  0
LINE
  8
0
 10
-96.5439
 20
46.1558
 11
-96.4065
 21
46.0268
  0
LINE
  8
0
 10
-96.4065
 20
46.0268
 11
-96.2865
 21
45.8817
  0
LINE
  8
0
 10
-96.2865
 20
45.8817
 11
-96.1855
 21
45.7226
  0
LINE
  8
0
 10
-96.1855
 20
45.7226
 11
-96.1053
 21
45.5522
  0
LINE
  8
0
 10
-96.1053
 20
45.5522
 11
-96.0471
 21
45.373
  0
LINE
  8
0
 10
-96.0471
 20
45.373
 11
-96.0118
 21
45.188
  0
LINE
  8
0
 10
-96.0118
 20
45.188
 11
-96
 21
45
  0
LINE
  8
0
 10
-96
 20
45
 11
-96.0118
 21
44.812
  0
LINE
  8
0
 10
-96.0118
 20
44.812
 11
-96.0471
 21
44.627
  0
LINE
  8
0
 10
-96.0471
 20
44.627
 11
-96.1053
 21
44.4478
  0
LINE
  8
0
 10
-96.1053
 20
44.4478
 11
-96.1855
 21
44.2774
  0
LINE
  8
0
 10
-96.1855
 20
44.2774
 11
-96.2865
 21
44.1183
  0
LINE
  8
0
 10
-96.2865
 20
44.1183
 11
-96.4065
 21
43.9732
  0
LINE
  8
0
 10
-96.4065
 20
43.9732
 11
-96.5439
 21
43.8442
  0
LINE
  8
0
 10
-96.5439
 20
43.8442
 11
-96.6963
 21
43.7335
  0
LINE
  8
0
 10
-96.6963
 20
43.7335
 11
-96.8613
 21
43.6428
  0
LINE
  8
0
 10
-96.8613
 20
43.6428
 11
-97.0365
 21
43.5734
  0
LINE
  8
0
 10
-97.0365
 20
43.5734
 11
-97.2189
 21
43.5266
  0
LINE
  8
0
 10
-97.2189
 20
43.5266
 11
-97.4058
 21
43.503
  0
LINE
  8
0
 10
-97.4058
 20
43.503
 11
-97.5942
 21
43.503
  0
LINE
  8
0
 10
-97.6884
 20
34.5059
 11
-98.0621
 21
34.5531
  0
LINE
  8
0
 10
-98.0621
 20
34.5531
 11
-98.427
 21
34.6468
  0
LINE
  8
0
 10
-98.427
 20
34.6468
 11
-98.7773
 21
34.7855
  0
LINE
  8
0
 10
-98.7773
 20
34.7855
 11
-99.1075
 21
34.967
  0
LINE
  8
0
 10
-99.1075
 20
34.967
 11
-99.4123
 21
35.1885
  0
LINE
  8
0
 10
-99.4123
 20
35.1885
 11
-99.6869
 21
35.4464
  0
LINE
  8
0
 10
-99.6869
 20
35.4464
 11
-99.927
 21
35.7366
  0
LINE
  8
0
 10
-99.927
 20
35.7366
 11
-100.129
 21
36.0547
  0
LINE
  8
0
 10
-100.129
 20
36.0547
 11
-100.289
 21
36.3956
  0
LINE
  8
0
 10
-100.289
 20
36.3956
 11
-100.406
 21
36.7539
  0
LINE
  8
0
 10
-100.406
 20
36.7539
 11
-100.476
 21
37.124
  0
LINE
  8
0
 10
-100.476
 20
37.124
 11
-100.5
 21
37.5
  0
LINE
  8
0
 10
-100.5
 20
37.5
 11
-100.476
 21
37.876
  0
LINE
  8
0
 10
-100.476
 20
37.876
 11
-100.406
 21
38.2461
  0
LINE
  8
0
 10
-100.406
 20
38.2461
 11
-100.289
 21
38.6044
  0
LINE
  8
0
 10
-100.289
 20
38.6044
 11
-100.129
 21
38.9453
  0
LINE
  8
0
 10
-100.129
 20
38.9453
 11
-99.927
 21
39.2634
  0
LINE
  8
0
 10
-99.927
 20
39.2634
 11
-99.6869
 21
39.5536
  0
LINE
  8
0
 10
-99.6869
 20
39.5536
 11
-99.4123
 21
39.8115
  0
LINE
  8
0
 10
-99.4123
 20
39.8115
 11
-99.1075
 21
40.033
  0
LINE
  8
0
 10
-99.1075
 20
40.033
 11
-98.7773
 21
40.2145
  0
LINE
  8
0
 10
-98.7773
 20
40.2145
 11
-98.427
 21
40.3532
  0
LINE
  8
0
 10
-98.427
 20
40.3532
 11
-98.0621
 21
40.4469
  0
LINE
  8
0
 10
-98.0621
 20
40.4469
 11
-97.6884
 21
40.4941
  0
LINE
  8
0
 10
-97.6884
 20
40.4941
 11
-97.3116
 21
40.4941
  0
LINE
  8
0
 10
-97.3116
 20
40.4941
 11
-96.9379
 21
40.4469
  0
LINE
  8
0
 10
-96.9379
 20
40.4469
 11
-96.573
 21
40.3532
  0
LINE
  8
0
 10
-96.573
 20
40.3532
 11
-96.2227
 21
40.2145
  0
LINE
  8
0
 10
-96.2227
 20
40.2145
 11
-95.8925
 21
40.033
  0
LINE
  8
0
 10
-95.8925
 20
40.033
 11
-95.5877
 21
39.8115
  0
LINE
  8
0
 10
-95.5877
 20
39.8115
 11
-95.3131
 21
39.5536
  0
LINE
  8
0
 10
-95.3131
 20
39.5536
 11
-95.073
 21
39.2634
  0
LINE
  8
0
 10
-95.073
 20
39.2634
 11
-94.8711
 21
38.9453
  0
LINE
  8
0
 10
-94.8711
 20
38.9453
 11
-94.7107
 21
38.6044
  0
LINE
  8
0
 10
-94.7107
 20
38.6044
 11
-94.5943
 21
38.2461
  0
LINE
  8
0
 10
-94.5943
 20
38.2461
 11
-94.5237
 21
37.876
  0
LINE
  8
0
 10
-94.5237
 20
37.876
 11
-94.5
 21
37.5
  0
LINE
  8
0
 10
-94.5
 20
37.5
 11
-94.5237
 21
37.124
  0
LINE
  8
0
 10
-94.5237
 20
37.124
 11
-94.5943
 21
36.7539
  0
LINE
  8
0
 10
-94.5943
 20
36.7539
 11
-94.7107
 21
36.3956
  0
LINE
  8
0
 10
-94.7107
 20
36.3956
 11
-94.8711
 21
36.0547
  0
LINE
  8
0
 10
-94.8711
 20
36.0547
 11
-95.073
 21
35.7366
  0
LINE
  8
0
 10
-95.073
 20
35.7366
 11
-95.3131
 21
35.4464
  0
LINE
  8
0
 10
-95.3131
 20
35.4464
 11
-95.5877
 21
35.1885
  0
LINE
  8
0
 10
-95.5877
 20
35.1885
 11
-95.8925
 21
34.967
  0
LINE
  8
0
 10
-95.8925
 20
34.967
 11
-96.2227
 21
34.7855
  0
LINE
  8
0
 10
-96.2227
 20
34.7855
 11
-96.573
 21
34.6468
  0
LINE
  8
0
 10
-96.573
 20
34.6468
 11
-96.9379
 21
34.5531
  0
LINE
  8
0
 10
-96.9379
 20
34.5531
 11
-97.3116
 21
34.5059
  0
LINE
  8
0
 10
-97.3116
 20
34.5059
 11
-97.6884
 21
34.5059
  0
LINE
  8
0
 10
97.3116
 20
34.5059
 11
96.9379
 21
34.5531
  0
LINE
  8
0
 10
96.9379
 20
34.5531
 11
96.573
 21
34.6468
  0
LINE
  8
0
 10
96.573
 20
34.6468
 11
96.2227
 21
34.7855
  0
LINE
  8
0
 10
96.2227
 20
34.7855
 11
95.8925
 21
34.967
  0
LINE
  8
0
 10
95.8925
 20
34.967
 11
95.5877
 21
35.1885
  0
LINE
  8
0
 10
95.5877
 20
35.1885
 11
95.3131
 21
35.4464
  0
LINE
  8
0
 10
95.3131
 20
35.4464
 11
95.073
 21
35.7366
  0
LINE
  8
0
 10
95.073
 20
35.7366
 11
94.8711
 21
36.0547
  0
LINE
  8
0
 10
94.8711
 20
36.0547
 11
94.7107
 21
36.3956
  0
LINE
  8
0
 10
94.7107
 20
36.3956
 11
94.5943
 21
36.7539
  0
LINE
  8
0
 10
94.5943
 20
36.7539
 11
94.5237
 21
37.124
  0
LINE
  8
0
 10
94.5237
 20
37.124
 11
94.5
 21
37.5
  0
LINE
  8
0
 10
94.5
 20
37.5
 11
94.5237
 21
37.876
  0
LINE
  8
0
 10
94.5237
 20
37.876
 11
94.5943
 21
38.2461
  0
LINE
  8
0
 10
94.5943
 20
38.2461
 11
94.7107
 21
38.6044
  0
LINE
  8
0
 10
94.7107
 20
38.6044
 11
94.8711
 21
38.9453
  0
LINE
  8
0
 10
94.8711
 20
38.9453
 11
95.073
 21
39.2634
  0
LINE
  8
0
 10
95.073
 20
39.2634
 11
95.3131
 21
39.5536
  0
LINE
  8
0
 10
95.3131
 20
39.5536
 11
95.5877
 21
39.8115
  0
LINE
  8
0
 10
95.5877
 20
39.8115
 11
95.8925
 21
40.033
  0
LINE
  8
0
 10
95.8925
 20
40.033
 11
96.2227
 21
40.2145
  0
LINE
  8
0
 10
96.2227
 20
40.2145
 11
96.573
 21
40.3532
  0
LINE
  8
0
 10
96.573
 20
40.3532
 11
96.9379
 21
40.4469
  0
LINE
  8
0
 10
96.9379
 20
40.4469
 11
97.3116
 21
40.4941
  0
LINE
  8
0
 10
97.3116
 20
40.4941
 11
97.6884
 21
40.4941
  0
LINE
  8
0
 10
97.6884
 20
40.4941
 11
98.0621
 21
40.4469
  0
LINE
  8
0
 10
98.0621
 20
40.4469
 11
98.427
 21
40.3532
  0
LINE
  8
0
 10
98.427
 20
40.3532
 11
98.7773
 21
40.2145
  0
LINE
  8
0
 10
98.7773
 20
40.2145
 11
99.1075
 21
40.033
  0
LINE
  8
0
 10
99.1075
 20
40.033
 11
99.4123
 21
39.8115
  0
LINE
  8
0
 10
99.4123
 20
39.8115
 11
99.6869
 21
39.5536
  0
LINE
  8
0
 10
99.6869
 20
39.5536
 11
99.927
 21
39.2634
  0
LINE
  8
0
 10
99.927
 20
39.2634
 11
100.129
 21
38.9453
  0
LINE
  8
0
 10
100.129
 20
38.9453
 11
100.289
 21
38.6044
  0
LINE
  8
0
 10
100.289
 20
38.6044
 11
100.406
 21
38.2461
  0
LINE
  8
0
 10
100.406
 20
38.2461
 11
100.476
 21
37.876
  0
LINE
  8
0
 10
100.476
 20
37.876
 11
100.5
 21
37.5
  0
LINE
  8
0
 10
100.5
 20
37.5
 11
100.476
 21
37.124
  0
LINE
  8
0
 10
100.476
 20
37.124
 11
100.406
 21
36.7539
  0
LINE
  8
0
 10
100.406
 20
36.7539
 11
100.289
 21
36.3956
  0
LINE
  8
0
 10
100.289
 20
36.3956
 11
100.129
 21
36.0547
  0
LINE
  8
0
 10
100.129
 20
36.0547
 11
99.927
 21
35.7366
  0
LINE
  8
0
 10
99.927
 20
35.7366
 11
99.6869
 21
35.4464
  0
LINE
  8
0
 10
99.6869
 20
35.4464
 11
99.4123
 21
35.1885
  0
LINE
  8
0
 10
99.4123
 20
35.1885
 11
99.1075
 21
34.967
  0
LINE
  8
0
 10
99.1075
 20
34.967
 11
98.7773
 21
34.7855
  0
LINE
  8
0
 10
98.7773
 20
34.7855
 11
98.427
 21
34.6468
  0
LINE
  8
0
 10
98.427
 20
34.6468
 11
98.0621
 21
34.5531
  0
LINE
  8
0
 10
98.0621
 20
34.5531
 11
97.6884
 21
34.5059
  0
LINE
  8
0
 10
97.6884
 20
34.5059
 11
97.3116
 21
34.5059
  0
LINE
  8
0
 10
-97.5942
 20
28.503
 11
-97.7811
 21
28.5266
  0
LINE
  8
0
 10
-97.7811
 20
28.5266
 11
-97.9635
 21
28.5734
  0
LINE
  8
0
 10
-97.9635
 20
28.5734
 11
-98.1387
 21
28.6427
  0
LINE
  8
0
 10
-98.1387
 20
28.6427
 11
-98.3037
 21
28.7335
  0
LINE
  8
0
 10
-98.3037
 20
28.7335
 11
-98.4561
 21
28.8442
  0
LINE
  8
0
 10
-98.4561
 20
28.8442
 11
-98.5934
 21
28.9732
  0
LINE
  8
0
 10
-98.5934
 20
28.9732
 11
-98.7135
 21
29.1183
  0
LINE
  8
0
 10
-98.7135
 20
29.1183
 11
-98.8145
 21
29.2774
  0
LINE
  8
0
 10
-98.8145
 20
29.2774
 11
-98.8947
 21
29.4478
  0
LINE
  8
0
 10
-98.8947
 20
29.4478
 11
-98.9529
 21
29.627
  0
LINE
  8
0
 10
-98.9529
 20
29.627
 11
-98.9882
 21
29.812
  0
LINE
  8
0
 10
-98.9882
 20
29.812
 11
-99
 21
30
  0
LINE
  8
0
 10
-99
 20
30
 11
-98.9882
 21
30.188
  0
LINE
  8
0
 10
-98.9882
 20
30.188
 11
-98.9529
 21
30.373
  0
LINE
  8
0
 10
-98.9529
 20
30.373
 11
-98.8947
 21
30.5522
  0
LINE
  8
0
 10
-98.8947
 20
30.5522
 11
-98.8145
 21
30.7226
  0
LINE
  8
0
 10
-98.8145
 20
30.7226
 11
-98.7135
 21
30.8817
  0
LINE
  8
0
 10
-98.7135
 20
30.8817
 11
-98.5934
 21
31.0268
  0
LINE
  8
0
 10
-98.5934
 20
31.0268
 11
-98.4561
 21
31.1558
  0
LINE
  8
0
 10
-98.4561
 20
31.1558
 11
-98.3037
 21
31.2665
  0
LINE
  8
0
 10
-98.3037
 20
31.2665
 11
-98.1387
 21
31.3572
  0
LINE
  8
0
 10
-98.1387
 20
31.3572
 11
-97.9635
 21
31.4266
  0
LINE
  8
0
 10
-97.9635
 20
31.4266
 11
-97.7811
 21
31.4734
  0
LINE
  8
0
 10
-97.7811
 20
31.4734
 11
-97.5942
 21
31.497
  0
LINE
  8
0
 10
-97.5942
 20
31.497
 11
-97.4058
 21
31.497
  0
LINE
  8
0
 10
-97.4058
 20
31.497
 11
-97.2189
 21
31.4734
  0
LINE
  8
0
 10
-97.2189
 20
31.4734
 11
-97.0365
 21
31.4266
  0
LINE
  8
0
 10
-97.0365
 20
31.4266
 11
-96.8613
 21
31.3572
  0
LINE
  8
0
 10
-96.8613
 20
31.3572
 11
-96.6963
 21
31.2665
  0
LINE
  8
0
 10
-96.6963
 20
31.2665
 11
-96.5439
 21
31.1558
  0
LINE
  8
0
 10
-96.5439
 20
31.1558
 11
-96.4065
 21
31.0268
  0
LINE
  8
0
 10
-96.4065
 20
31.0268
 11
-96.2865
 21
30.8817
  0
LINE
  8
0
 10
-96.2865
 20
30.8817
 11
-96.1855
 21
30.7226
  0
LINE
  8
0
 10
-96.1855
 20
30.7226
 11
-96.1053
 21
30.5522
  0
LINE
  8
0
 10
-96.1053
 20
30.5522
 11
-96.0471
 21
30.373
  0
LINE
  8
0
 10
-96.0471
 20
30.373
 11
-96.0118
 21
30.188
  0
LINE
  8
0
 10
-96.0118
 20
30.188
 11
-96
 21
30
  0
LINE
  8
0
 10
-96
 20
30
 11
-96.0118
 21
29.812
  0
LINE
  8
0
 10
-96.0118
 20
29.812
 11
-96.0471
 21
29.627
  0
LINE
  8
0
 10
-96.0471
 20
29.627
 11
-96.1053
 21
29.4478
  0
LINE
  8
0
 10
-96.1053
 20
29.4478
 11
-96.1855
 21
29.2774
  0
LINE
  8
0
 10
-96.1855
 20
29.2774
 11
-96.2865
 21
29.1183
  0
LINE
  8
0
 10
-96.2865
 20
29.1183
 11
-96.4065
 21
28.9732
  0
LINE
  8
0
 10
-96.4065
 20
28.9732
 11
-96.5439
 21
28.8442
  0
LINE
  8
0
 10
-96.5439
 20
28.8442
 11
-96.6963
 21
28.7335
  0
LINE
  8
0
 10
-96.6963
 20
28.7335
 11
-96.8613
 21
28.6427
  0
LINE
  8
0
 10
-96.8613
 20
28.6427
 11
-97.0365
 21
28.5734
  0
LINE
  8
0
 10
-97.0365
 20
28.5734
 11
-97.2189
 21
28.5266
  0
LINE
  8
0
 10
-97.2189
 20
28.5266
 11
-97.4058
 21
28.503
  0
LINE
  8
0
 10
-97.4058
 20
28.503
 11
-97.5942
 21
28.503
  0
LINE
  8
0
 10
97.4058
 20
28.503
 11
97.2189
 21
28.5266
  0
LINE
  8
0
 10
97.2189
 20
28.5266
 11
97.0365
 21
28.5734
  0
LINE
  8
0
 10
97.0365
 20
28.5734
 11
96.8613
 21
28.6427
  0
LINE
  8
0
 10
96.8613
 20
28.6427
 11
96.6963
 21
28.7335
  0
LINE
  8
0
 10
96.6963
 20
28.7335
 11
96.5439
 21
28.8442
  0
LINE
  8
0
 10
96.5439
 20
28.8442
 11
96.4065
 21
28.9732
  0
LINE
  8
0
 10
96.4065
 20
28.9732
 11
96.2865
 21
29.1183
  0
LINE
  8
0
 10
96.2865
 20
29.1183
 11
96.1855
 21
29.2774
  0
LINE
  8
0
 10
96.1855
 20
29.2774
 11
96.1053
 21
29.4478
  0
LINE
  8
0
 10
96.1053
 20
29.4478
 11
96.0471
 21
29.627
  0
LINE
  8
0
 10
96.0471
 20
29.627
 11
96.0118
 21
29.812
  0
LINE
  8
0
 10
96.0118
 20
29.812
 11
96
 21
30
  0
LINE
  8
0
 10
96
 20
30
 11
96.0118
 21
30.188
  0
LINE
  8
0
 10
96.0118
 20
30.188
 11
96.0471
 21
30.373
  0
LINE
  8
0
 10
96.0471
 20
30.373
 11
96.1053
 21
30.5522
  0
LINE
  8
0
 10
96.1053
 20
30.5522
 11
96.1855
 21
30.7226
  0
LINE
  8
0
 10
96.1855
 20
30.7226
 11
96.2865
 21
30.8817
  0
LINE
  8
0
 10
96.2865
 20
30.8817
 11
96.4065
 21
31.0268
  0
LINE
  8
0
 10
96.4065
 20
31.0268
 11
96.5439
 21
31.1558
  0
LINE
  8
0
 10
96.5439
 20
31.1558
 11
96.6963
 21
31.2665
  0
LINE
  8
0
 10
96.6963
 20
31.2665
 11
96.8613
 21
31.3572
  0
LINE
  8
0
 10
96.8613
 20
31.3572
 11
97.0365
 21
31.4266
  0
LINE
  8
0
 10
97.0365
 20
31.4266
 11
97.2189
 21
31.4734
  0
LINE
  8
0
 10
97.2189
 20
31.4734
 11
97.4058
 21
31.497
  0
LINE
  8
0
 10
97.4058
 20
31.497
 11
97.5942
 21
31.497
  0
LINE
  8
0
 10
97.5942
 20
31.497
 11
97.7811
 21
31.4734
  0
LINE
  8
0
 10
97.7811
 20
31.4734
 11
97.9635
 21
31.4266
  0
LINE
  8
0
 10
97.9635
 20
31.4266
 11
98.1387
 21
31.3572
  0
LINE
  8
0
 10
98.1387
 20
31.3572
 11
98.3037
 21
31.2665
  0
LINE
  8
0
 10
98.3037
 20
31.2665
 11
98.4561
 21
31.1558
  0
LINE
  8
0
 10
98.4561
 20
31.1558
 11
98.5934
 21
31.0268
  0
LINE
  8
0
 10
98.5934
 20
31.0268
 11
98.7135
 21
30.8817
  0
LINE
  8
0
 10
98.7135
 20
30.8817
 11
98.8145
 21
30.7226
  0
LINE
  8
0
 10
98.8145
 20
30.7226
 11
98.8947
 21
30.5522
  0
LINE
  8
0
 10
98.8947
 20
30.5522
 11
98.9529
 21
30.373
  0
LINE
  8
0
 10
98.9529
 20
30.373
 11
98.9882
 21
30.188
  0
LINE
  8
0
 10
98.9882
 20
30.188
 11
99
 21
30
  0
LINE
  8
0
 10
99
 20
30
 11
98.9882
 21
29.812
  0
LINE
  8
0
 10
98.9882
 20
29.812
 11
98.9529
 21
29.627
  0
LINE
  8
0
 10
98.9529
 20
29.627
 11
98.8947
 21
29.4478
  0
LINE
  8
0
 10
98.8947
 20
29.4478
 11
98.8145
 21
29.2774
  0
LINE
  8
0
 10
98.8145
 20
29.2774
 11
98.7135
 21
29.1183
  0
LINE
  8
0
 10
98.7135
 20
29.1183
 11
98.5934
 21
28.9732
  0
LINE
  8
0
 10
98.5934
 20
28.9732
 11
98.4561
 21
28.8442
  0
LINE
  8
0
 10
98.4561
 20
28.8442
 11
98.3037
 21
28.7335
  0
LINE
  8
0
 10
98.3037
 20
28.7335
 11
98.1387
 21
28.6427
  0
LINE
  8
0
 10
98.1387
 20
28.6427
 11
97.9635
 21
28.5734
  0
LINE
  8
0
 10
97.9635
 20
28.5734
 11
97.7811
 21
28.5266
  0
LINE
  8
0
 10
97.7811
 20
28.5266
 11
97.5942
 21
28.503
  0
LINE
  8
0
 10
97.5942
 20
28.503
 11
97.4058
 21
28.503
  0
LINE
  8
0
 10
94.5943
 20
23.2461
 11
94.7107
 21
23.6044
  0
LINE
  8
0
 10
94.7107
 20
23.6044
 11
94.8711
 21
23.9453
  0
LINE
  8
0
 10
94.8711
 20
23.9453
 11
95.073
 21
24.2634
  0
LINE
  8
0
 10
95.073
 20
24.2634
 11
95.3131
 21
24.5536
  0
LINE
  8
0
 10
95.3131
 20
24.5536
 11
95.5877
 21
24.8115
  0
LINE
  8
0
 10
95.5877
 20
24.8115
 11
95.8925
 21
25.033
  0
LINE
  8
0
 10
95.8925
 20
25.033
 11
96.2227
 21
25.2145
  0
LINE
  8
0
 10
96.2227
 20
25.2145
 11
96.573
 21
25.3532
  0
LINE
  8
0
 10
96.573
 20
25.3532
 11
96.9379
 21
25.4469
  0
LINE
  8
0
 10
96.9379
 20
25.4469
 11
97.3116
 21
25.4941
  0
LINE
  8
0
 10
97.3116
 20
25.4941
 11
97.6884
 21
25.4941
  0
LINE
  8
0
 10
97.6884
 20
25.4941
 11
98.0621
 21
25.4469
  0
LINE
  8
0
 10
98.0621
 20
25.4469
 11
98.427
 21
25.3532
  0
LINE
  8
0
 10
98.427
 20
25.3532
 11
98.7773
 21
25.2145
  0
LINE
  8
0
 10
98.7773
 20
25.2145
 11
99.1075
 21
25.033
  0
LINE
  8
0
 10
99.1075
 20
25.033
 11
99.4123
 21
24.8115
  0
LINE
  8
0
 10
99.4123
 20
24.8115
 11
99.6869
 21
24.5536
  0
LINE
  8
0
 10
99.6869
 20
24.5536
 11
99.927
 21
24.2634
  0
LINE
  8
0
 10
99.927
 20
24.2634
 11
100.129
 21
23.9453
  0
LINE
  8
0
 10
100.129
 20
23.9453
 11
100.289
 21
23.6044
  0
LINE
  8
0
 10
100.289
 20
23.6044
 11
100.406
 21
23.2461
  0
LINE
  8
0
 10
100.406
 20
23.2461
 11
100.476
 21
22.876
  0
LINE
  8
0
 10
100.476
 20
22.876
 11
100.5
 21
22.5
  0
LINE
  8
0
 10
100.5
 20
22.5
 11
100.476
 21
22.124
  0
LINE
  8
0
 10
100.476
 20
22.124
 11
100.406
 21
21.7539
  0
LINE
  8
0
 10
100.406
 20
21.7539
 11
100.289
 21
21.3956
  0
LINE
  8
0
 10
100.289
 20
21.3956
 11
100.129
 21
21.0547
  0
LINE
  8
0
 10
100.129
 20
21.0547
 11
99.927
 21
20.7366
  0
LINE
  8
0
 10
99.927
 20
20.7366
 11
99.6869
 21
20.4464
  0
LINE
  8
0
 10
99.6869
 20
20.4464
 11
99.4123
 21
20.1884
  0
LINE
  8
0
 10
99.4123
 20
20.1884
 11
99.1075
 21
19.967
  0
LINE
  8
0
 10
99.1075
 20
19.967
 11
98.7773
 21
19.7855
  0
LINE
  8
0
 10
98.7773
 20
19.7855
 11
98.427
 21
19.6468
  0
LINE
  8
0
 10
98.427
 20
19.6468
 11
98.0621
 21
19.5531
  0
LINE
  8
0
 10
98.0621
 20
19.5531
 11
97.6884
 21
19.5059
  0
LINE
  8
0
 10
97.6884
 20
19.5059
 11
97.3116
 21
19.5059
  0
LINE
  8
0
 10
97.3116
 20
19.5059
 11
96.9379
 21
19.5531
  0
LINE
  8
0
 10
96.9379
 20
19.5531
 11
96.573
 21
19.6468
  0
LINE
  8
0
 10
96.573
 20
19.6468
 11
96.2227
 21
19.7855
  0
LINE
  8
0
 10
96.2227
 20
19.7855
 11
95.8925
 21
19.967
  0
LINE
  8
0
 10
95.8925
 20
19.967
 11
95.5877
 21
20.1884
  0
LINE
  8
0
 10
95.5877
 20
20.1884
 11
95.3131
 21
20.4464
  0
LINE
  8
0
 10
95.3131
 20
20.4464
 11
95.073
 21
20.7366
  0
LINE
  8
0
 10
95.073
 20
20.7366
 11
94.8711
 21
21.0547
  0
LINE
  8
0
 10
94.8711
 20
21.0547
 11
94.7107
 21
21.3956
  0
LINE
  8
0
 10
94.7107
 20
21.3956
 11
94.5943
 21
21.7539
  0
LINE
  8
0
 10
94.5943
 20
21.7539
 11
94.5237
 21
22.124
  0
LINE
  8
0
 10
94.5237
 20
22.124
 11
94.5
 21
22.5
  0
LINE
  8
0
 10
94.5
 20
22.5
 11
94.5237
 21
22.876
  0
LINE
  8
0
 10
94.5237
 20
22.876
 11
94.5943
 21
23.2461
  0
LINE
  8
0
 10
-97.5942
 20
13.5029
 11
-97.7811
 21
13.5266
  0
LINE
  8
0
 10
-97.7811
 20
13.5266
 11
-97.9635
 21
13.5734
  0
LINE
  8
0
 10
-97.9635
 20
13.5734
 11
-98.1387
 21
13.6427
  0
LINE
  8
0
 10
-98.1387
 20
13.6427
 11
-98.3037
 21
13.7335
  0
LINE
  8
0
 10
-98.3037
 20
13.7335
 11
-98.4561
 21
13.8442
  0
LINE
  8
0
 10
-98.4561
 20
13.8442
 11
-98.5934
 21
13.9732
  0
LINE
  8
0
 10
-98.5934
 20
13.9732
 11
-98.7135
 21
14.1183
  0
LINE
  8
0
 10
-98.7135
 20
14.1183
 11
-98.8145
 21
14.2774
  0
LINE
  8
0
 10
-98.8145
 20
14.2774
 11
-98.8947
 21
14.4478
  0
LINE
  8
0
 10
-98.8947
 20
14.4478
 11
-98.9529
 21
14.627
  0
LINE
  8
0
 10
-98.9529
 20
14.627
 11
-98.9882
 21
14.812
  0
LINE
  8
0
 10
-98.9882
 20
14.812
 11
-99
 21
15
  0
LINE
  8
0
 10
-99
 20
15
 11
-98.9882
 21
15.188
  0
LINE
  8
0
 10
-98.9882
 20
15.188
 11
-98.9529
 21
15.373
  0
LINE
  8
0
 10
-98.9529
 20
15.373
 11
-98.8947
 21
15.5522
  0
LINE
  8
0
 10
-98.8947
 20
15.5522
 11
-98.8145
 21
15.7226
  0
LINE
  8
0
 10
-98.8145
 20
15.7226
 11
-98.7135
 21
15.8817
  0
LINE
  8
0
 10
-98.7135
 20
15.8817
 11
-98.5934
 21
16.0268
  0
LINE
  8
0
 10
-98.5934
 20
16.0268
 11
-98.4561
 21
16.1558
  0
LINE
  8
0
 10
-98.4561
 20
16.1558
 11
-98.3037
 21
16.2665
  0
LINE
  8
0
 10
-98.3037
 20
16.2665
 11
-98.1387
 21
16.3572
  0
LINE
  8
0
 10
-98.1387
 20
16.3572
 11
-97.9635
 21
16.4266
  0
LINE
  8
0
 10
-97.9635
 20
16.4266
 11
-97.7811
 21
16.4734
  0
LINE
  8
0
 10
-97.7811
 20
16.4734
 11
-97.5942
 21
16.497
  0
LINE
  8
0
 10
-97.5942
 20
16.497
 11
-97.4058
 21
16.497
  0
LINE
  8
0
 10
-97.4058
 20
16.497
 11
-97.2189
 21
16.4734
  0
LINE
  8
0
 10
-97.2189
 20
16.4734
 11
-97.0365
 21
16.4266
  0
LINE
  8
0
 10
-97.0365
 20
16.4266
 11
-96.8613
 21
16.3572
  0
LINE
  8
0
 10
-96.8613
 20
16.3572
 11
-96.6963
 21
16.2665
  0
LINE
  8
0
 10
-96.6963
 20
16.2665
 11
-96.5439
 21
16.1558
  0
LINE
  8
0
 10
-96.5439
 20
16.1558
 11
-96.4065
 21
16.0268
  0
LINE
  8
0
 10
-96.4065
 20
16.0268
 11
-96.2865
 21
15.8817
  0
LINE
  8
0
 10
-96.2865
 20
15.8817
 11
-96.1855
 21
15.7226
  0
LINE
  8
0
 10
-96.1855
 20
15.7226
 11
-96.1053
 21
15.5522
  0
LINE
  8
0
 10
-96.1053
 20
15.5522
 11
-96.0471
 21
15.373
  0
LINE
  8
0
 10
-96.0471
 20
15.373
 11
-96.0118
 21
15.188
  0
LINE
  8
0
 10
-96.0118
 20
15.188
 11
-96
 21
15
  0
LINE
  8
0
 10
-96
 20
15
 11
-96.0118
 21
14.812
  0
LINE
  8
0
 10
-96.0118
 20
14.812
 11
-96.0471
 21
14.627
  0
LINE
  8
0
 10
-96.0471
 20
14.627
 11
-96.1053
 21
14.4478
  0
LINE
  8
0
 10
-96.1053
 20
14.4478
 11
-96.1855
 21
14.2774
  0
LINE
  8
0
 10
-96.1855
 20
14.2774
 11
-96.2865
 21
14.1183
  0
LINE
  8
0
 10
-96.2865
 20
14.1183
 11
-96.4065
 21
13.9732
  0
LINE
  8
0
 10
-96.4065
 20
13.9732
 11
-96.5439
 21
13.8442
  0
LINE
  8
0
 10
-96.5439
 20
13.8442
 11
-96.6963
 21
13.7335
  0
LINE
  8
0
 10
-96.6963
 20
13.7335
 11
-96.8613
 21
13.6427
  0
LINE
  8
0
 10
-96.8613
 20
13.6427
 11
-97.0365
 21
13.5734
  0
LINE
  8
0
 10
-97.0365
 20
13.5734
 11
-97.2189
 21
13.5266
  0
LINE
  8
0
 10
-97.2189
 20
13.5266
 11
-97.4058
 21
13.5029
  0
LINE
  8
0
 10
-97.4058
 20
13.5029
 11
-97.5942
 21
13.5029
  0
LINE
  8
0
 10
97.4058
 20
13.5029
 11
97.2189
 21
13.5266
  0
LINE
  8
0
 10
97.2189
 20
13.5266
 11
97.0365
 21
13.5734
  0
LINE
  8
0
 10
97.0365
 20
13.5734
 11
96.8613
 21
13.6427
  0
LINE
  8
0
 10
96.8613
 20
13.6427
 11
96.6963
 21
13.7335
  0
LINE
  8
0
 10
96.6963
 20
13.7335
 11
96.5439
 21
13.8442
  0
LINE
  8
0
 10
96.5439
 20
13.8442
 11
96.4065
 21
13.9732
  0
LINE
  8
0
 10
96.4065
 20
13.9732
 11
96.2865
 21
14.1183
  0
LINE
  8
0
 10
96.2865
 20
14.1183
 11
96.1855
 21
14.2774
  0
LINE
  8
0
 10
96.1855
 20
14.2774
 11
96.1053
 21
14.4478
  0
LINE
  8
0
 10
96.1053
 20
14.4478
 11
96.0471
 21
14.627
  0
LINE
  8
0
 10
96.0471
 20
14.627
 11
96.0118
 21
14.812
  0
LINE
  8
0
 10
96.0118
 20
14.812
 11
96
 21
15
  0
LINE
  8
0
 10
96
 20
15
 11
96.0118
 21
15.188
  0
LINE
  8
0
 10
96.0118
 20
15.188
 11
96.0471
 21
15.373
  0
LINE
  8
0
 10
96.0471
 20
15.373
 11
96.1053
 21
15.5522
  0
LINE
  8
0
 10
96.1053
 20
15.5522
 11
96.1855
 21
15.7226
  0
LINE
  8
0
 10
96.1855
 20
15.7226
 11
96.2865
 21
15.8817
  0
LINE
  8
0
 10
96.2865
 20
15.8817
 11
96.4065
 21
16.0268
  0
LINE
  8
0
 10
96.4065
 20
16.0268
 11
96.5439
 21
16.1558
  0
LINE
  8
0
 10
96.5439
 20
16.1558
 11
96.6963
 21
16.2665
  0
LINE
  8
0
 10
96.6963
 20
16.2665
 11
96.8613
 21
16.3572
  0
LINE
  8
0
 10
96.8613
 20
16.3572
 11
97.0365
 21
16.4266
  0
LINE
  8
0
 10
97.0365
 20
16.4266
 11
97.2189
 21
16.4734
  0
LINE
  8
0
 10
97.2189
 20
16.4734
 11
97.4058
 21
16.497
  0
LINE
  8
0
 10
97.4058
 20
16.497
 11
97.5942
 21
16.497
  0
LINE
  8
0
 10
97.5942
 20
16.497
 11
97.7811
 21
16.4734
  0
LINE
  8
0
 10
97.7811
 20
16.4734
 11
97.9635
 21
16.4266
  0
LINE
  8
0
 10
97.9635
 20
16.4266
 11
98.1387
 21
16.3572
  0
LINE
  8
0
 10
98.1387
 20
16.3572
 11
98.3037
 21
16.2665
  0
LINE
  8
0
 10
98.3037
 20
16.2665
 11
98.4561
 21
16.1558
  0
LINE
  8
0
 10
98.4561
 20
16.1558
 11
98.5934
 21
16.0268
  0
LINE
  8
0
 10
98.5934
 20
16.0268
 11
98.7135
 21
15.8817
  0
LINE
  8
0
 10
98.7135
 20
15.8817
 11
98.8145
 21
15.7226
  0
LINE
  8
0
 10
98.8145
 20
15.7226
 11
98.8947
 21
15.5522
  0
LINE
  8
0
 10
98.8947
 20
15.5522
 11
98.9529
 21
15.373
  0
LINE
  8
0
 10
98.9529
 20
15.373
 11
98.9882
 21
15.188
  0
LINE
  8
0
 10
98.9882
 20
15.188
 11
99
 21
15
  0
LINE
  8
0
 10
99
 20
15
 11
98.9882
 21
14.812
  0
LINE
  8
0
 10
98.9882
 20
14.812
 11
98.9529
 21
14.627
  0
LINE
  8
0
 10
98.9529
 20
14.627
 11
98.8947
 21
14.4478
  0
LINE
  8
0
 10
98.8947
 20
14.4478
 11
98.8145
 21
14.2774
  0
LINE
  8
0
 10
98.8145
 20
14.2774
 11
98.7135
 21
14.1183
  0
LINE
  8
0
 10
98.7135
 20
14.1183
 11
98.5934
 21
13.9732
  0
LINE
  8
0
 10
98.5934
 20
13.9732
 11
98.4561
 21
13.8442
  0
LINE
  8
0
 10
98.4561
 20
13.8442
 11
98.3037
 21
13.7335
  0
LINE
  8
0
 10
98.3037
 20
13.7335
 11
98.1387
 21
13.6427
  0
LINE
  8
0
 10
98.1387
 20
13.6427
 11
97.9635
 21
13.5734
  0
LINE
  8
0
 10
97.9635
 20
13.5734
 11
97.7811
 21
13.5266
  0
LINE
  8
0
 10
97.7811
 20
13.5266
 11
97.5942
 21
13.5029
  0
LINE
  8
0
 10
97.5942
 20
13.5029
 11
97.4058
 21
13.5029
  0
LINE
  8
0
 10
97.3116
 20
4.50591
 11
96.9379
 21
4.55313
  0
LINE
  8
0
 10
96.9379
 20
4.55313
 11
96.573
 21
4.64682
  0
LINE
  8
0
 10
96.573
 20
4.64682
 11
96.2227
 21
4.78551
  0
LINE
  8
0
 10
96.2227
 20
4.78551
 11
95.8925
 21
4.96701
  0
LINE
  8
0
 10
95.8925
 20
4.96701
 11
95.5877
 21
5.18845
  0
LINE
  8
0
 10
95.5877
 20
5.18845
 11
95.3131
 21
5.44635
  0
LINE
  8
0
 10
95.3131
 20
5.44635
 11
95.073
 21
5.73663
  0
LINE
  8
0
 10
95.073
 20
5.73663
 11
94.8711
 21
6.05473
  0
LINE
  8
0
 10
94.8711
 20
6.05473
 11
94.7107
 21
6.39561
  0
LINE
  8
0
 10
94.7107
 20
6.39561
 11
94.5943
 21
6.75392
  0
LINE
  8
0
 10
94.5943
 20
6.75392
 11
94.5237
 21
7.12399
  0
LINE
  8
0
 10
94.5237
 20
7.12399
 11
94.5
 21
7.5
  0
LINE
  8
0
 10
94.5
 20
7.5
 11
94.5237
 21
7.87599
  0
LINE
  8
0
 10
94.5237
 20
7.87599
 11
94.5943
 21
8.24606
  0
LINE
  8
0
 10
94.5943
 20
8.24606
 11
94.7107
 21
8.60437
  0
LINE
  8
0
 10
94.7107
 20
8.60437
 11
94.8711
 21
8.94525
  0
LINE
  8
0
 10
94.8711
 20
8.94525
 11
95.073
 21
9.26335
  0
LINE
  8
0
 10
95.073
 20
9.26335
 11
95.3131
 21
9.55363
  0
LINE
  8
0
 10
95.3131
 20
9.55363
 11
95.5877
 21
9.81154
  0
LINE
  8
0
 10
95.5877
 20
9.81154
 11
95.8925
 21
10.033
  0
LINE
  8
0
 10
95.8925
 20
10.033
 11
96.2227
 21
10.2145
  0
LINE
  8
0
 10
96.2227
 20
10.2145
 11
96.573
 21
10.3532
  0
LINE
  8
0
 10
96.573
 20
10.3532
 11
96.9379
 21
10.4469
  0
LINE
  8
0
 10
96.9379
 20
10.4469
 11
97.3116
 21
10.4941
  0
LINE
  8
0
 10
97.3116
 20
10.4941
 11
97.6884
 21
10.4941
  0
LINE
  8
0
 10
97.6884
 20
10.4941
 11
98.0621
 21
10.4469
  0
LINE
  8
0
 10
98.0621
 20
10.4469
 11
98.427
 21
10.3532
  0
LINE
  8
0
 10
98.427
 20
10.3532
 11
98.7773
 21
10.2145
  0
LINE
  8
0
 10
98.7773
 20
10.2145
 11
99.1075
 21
10.033
  0
LINE
  8
0
 10
99.1075
 20
10.033
 11
99.4123
 21
9.81154
  0
LINE
  8
0
 10
99.4123
 20
9.81154
 11
99.6869
 21
9.55363
  0
LINE
  8
0
 10
99.6869
 20
9.55363
 11
99.927
 21
9.26335
  0
LINE
  8
0
 10
99.927
 20
9.26335
 11
100.129
 21
8.94525
  0
LINE
  8
0
 10
100.129
 20
8.94525
 11
100.289
 21
8.60437
  0
LINE
  8
0
 10
100.289
 20
8.60437
 11
100.406
 21
8.24606
  0
LINE
  8
0
 10
100.406
 20
8.24606
 11
100.476
 21
7.87599
  0
LINE
  8
0
 10
100.476
 20
7.87599
 11
100.5
 21
7.5
  0
LINE
  8
0
 10
100.5
 20
7.5
 11
100.476
 21
7.12399
  0
LINE
  8
0
 10
100.476
 20
7.12399
 11
100.406
 21
6.75392
  0
LINE
  8
0
 10
100.406
 20
6.75392
 11
100.289
 21
6.39561
  0
LINE
  8
0
 10
100.289
 20
6.39561
 11
100.129
 21
6.05473
  0
LINE
  8
0
 10
100.129
 20
6.05473
 11
99.927
 21
5.73663
  0
LINE
  8
0
 10
99.927
 20
5.73663
 11
99.6869
 21
5.44635
  0
LINE
  8
0
 10
99.6869
 20
5.44635
 11
99.4123
 21
5.18845
  0
LINE
  8
0
 10
99.4123
 20
5.18845
 11
99.1075
 21
4.96701
  0
LINE
  8
0
 10
99.1075
 20
4.96701
 11
98.7773
 21
4.78551
  0
LINE
  8
0
 10
98.7773
 20
4.78551
 11
98.427
 21
4.64682
  0
LINE
  8
0
 10
98.427
 20
4.64682
 11
98.0621
 21
4.55313
  0
LINE
  8
0
 10
98.0621
 20
4.55313
 11
97.6884
 21
4.50591
  0
LINE
  8
0
 10
97.6884
 20
4.50591
 11
97.3116
 21
4.50591
  0
LINE
  8
0
 10
-97.6884
 20
4.50591
 11
-98.0621
 21
4.55313
  0
LINE
  8
0
 10
-98.0621
 20
4.55313
 11
-98.427
 21
4.64682
  0
LINE
  8
0
 10
-98.427
 20
4.64682
 11
-98.7773
 21
4.78551
  0
LINE
  8
0
 10
-98.7773
 20
4.78551
 11
-99.1075
 21
4.96701
  0
LINE
  8
0
 10
-99.1075
 20
4.96701
 11
-99.4123
 21
5.18845
  0
LINE
  8
0
 10
-99.4123
 20
5.18845
 11
-99.6869
 21
5.44635
  0
LINE
  8
0
 10
-99.6869
 20
5.44635
 11
-99.927
 21
5.73663
  0
LINE
  8
0
 10
-99.927
 20
5.73663
 11
-100.129
 21
6.05473
  0
LINE
  8
0
 10
-100.129
 20
6.05473
 11
-100.289
 21
6.39561
  0
LINE
  8
0
 10
-100.289
 20
6.39561
 11
-100.406
 21
6.75392
  0
LINE
  8
0
 10
-100.406
 20
6.75392
 11
-100.476
 21
7.12399
  0
LINE
  8
0
 10
-100.476
 20
7.12399
 11
-100.5
 21
7.5
  0
LINE
  8
0
 10
-100.5
 20
7.5
 11
-100.476
 21
7.87599
  0
LINE
  8
0
 10
-100.476
 20
7.87599
 11
-100.406
 21
8.24606
  0
LINE
  8
0
 10
-100.406
 20
8.24606
 11
-100.289
 21
8.60437
  0
LINE
  8
0
 10
-100.289
 20
8.60437
 11
-100.129
 21
8.94525
  0
LINE
  8
0
 10
-100.129
 20
8.94525
 11
-99.927
 21
9.26335
  0
LINE
  8
0
 10
-99.927
 20
9.26335
 11
-99.6869
 21
9.55363
  0
LINE
  8
0
 10
-99.6869
 20
9.55363
 11
-99.4123
 21
9.81154
  0
LINE
  8
0
 10
-99.4123
 20
9.81154
 11
-99.1075
 21
10.033
  0
LINE
  8
0
 10
-99.1075
 20
10.033
 11
-98.7773
 21
10.2145
  0
LINE
  8
0
 10
-98.7773
 20
10.2145
 11
-98.427
 21
10.3532
  0
LINE
  8
0
 10
-98.427
 20
10.3532
 11
-98.0621
 21
10.4469
  0
LINE
  8
0
 10
-98.0621
 20
10.4469
 11
-97.6884
 21
10.4941
  0
LINE
  8
0
 10
-97.6884
 20
10.4941
 11
-97.3116
 21
10.4941
  0
LINE
  8
0
 10
-97.3116
 20
10.4941
 11
-96.9379
 21
10.4469
  0
LINE
  8
0
 10
-96.9379
 20
10.4469
 11
-96.573
 21
10.3532
  0
LINE
  8
0
 10
-96.573
 20
10.3532
 11
-96.2227
 21
10.2145
  0
LINE
  8
0
 10
-96.2227
 20
10.2145
 11
-95.8925
 21
10.033
  0
LINE
  8
0
 10
-95.8925
 20
10.033
 11
-95.5877
 21
9.81154
  0
LINE
  8
0
 10
-95.5877
 20
9.81154
 11
-95.3131
 21
9.55363
  0
LINE
  8
0
 10
-95.3131
 20
9.55363
 11
-95.073
 21
9.26335
  0
LINE
  8
0
 10
-95.073
 20
9.26335
 11
-94.8711
 21
8.94525
  0
LINE
  8
0
 10
-94.8711
 20
8.94525
 11
-94.7107
 21
8.60437
  0
LINE
  8
0
 10
-94.7107
 20
8.60437
 11
-94.5943
 21
8.24606
  0
LINE
  8
0
 10
-94.5943
 20
8.24606
 11
-94.5237
 21
7.87599
  0
LINE
  8
0
 10
-94.5237
 20
7.87599
 11
-94.5
 21
7.5
  0
LINE
  8
0
 10
-94.5
 20
7.5
 11
-94.5237
 21
7.12399
  0
LINE
  8
0
 10
-94.5237
 20
7.12399
 11
-94.5943
 21
6.75392
  0
LINE
  8
0
 10
-94.5943
 20
6.75392
 11
-94.7107
 21
6.39561
  0
LINE
  8
0
 10
-94.7107
 20
6.39561
 11
-94.8711
 21
6.05473
  0
LINE
  8
0
 10
-94.8711
 20
6.05473
 11
-95.073
 21
5.73663
  0
LINE
  8
0
 10
-95.073
 20
5.73663
 11
-95.3131
 21
5.44635
  0
LINE
  8
0
 10
-95.3131
 20
5.44635
 11
-95.5877
 21
5.18845
  0
LINE
  8
0
 10
-95.5877
 20
5.18845
 11
-95.8925
 21
4.96701
  0
LINE
  8
0
 10
-95.8925
 20
4.96701
 11
-96.2227
 21
4.78551
  0
LINE
  8
0
 10
-96.2227
 20
4.78551
 11
-96.573
 21
4.64682
  0
LINE
  8
0
 10
-96.573
 20
4.64682
 11
-96.9379
 21
4.55313
  0
LINE
  8
0
 10
-96.9379
 20
4.55313
 11
-97.3116
 21
4.50591
  0
LINE
  8
0
 10
-97.3116
 20
4.50591
 11
-97.6884
 21
4.50591
  0
LINE
  8
0
 10
-97.5942
 20
-1.49704
 11
-97.7811
 21
-1.47342
  0
LINE
  8
0
 10
-97.7811
 20
-1.47342
 11
-97.9635
 21
-1.42657
  0
LINE
  8
0
 10
-97.9635
 20
-1.42657
 11
-98.1387
 21
-1.35724
  0
LINE
  8
0
 10
-98.1387
 20
-1.35724
 11
-98.3037
 21
-1.26648
  0
LINE
  8
0
 10
-98.3037
 20
-1.26648
 11
-98.4561
 21
-1.15576
  0
LINE
  8
0
 10
-98.4561
 20
-1.15576
 11
-98.5934
 21
-1.02681
  0
LINE
  8
0
 10
-98.5934
 20
-1.02681
 11
-98.7135
 21
-0.881668
  0
LINE
  8
0
 10
-98.7135
 20
-0.881668
 11
-98.8145
 21
-0.722626
  0
LINE
  8
0
 10
-98.8145
 20
-0.722626
 11
-98.8947
 21
-0.552185
  0
LINE
  8
0
 10
-98.8947
 20
-0.552185
 11
-98.9529
 21
-0.373032
  0
LINE
  8
0
 10
-98.9529
 20
-0.373032
 11
-98.9882
 21
-0.187988
  0
LINE
  8
0
 10
-98.9882
 20
-0.187988
 11
-99
 21
0
  0
LINE
  8
0
 10
-99
 20
0
 11
-98.9882
 21
0.187988
  0
LINE
  8
0
 10
-98.9882
 20
0.187988
 11
-98.9529
 21
0.373032
  0
LINE
  8
0
 10
-98.9529
 20
0.373032
 11
-98.8947
 21
0.552185
  0
LINE
  8
0
 10
-98.8947
 20
0.552185
 11
-98.8145
 21
0.722626
  0
LINE
  8
0
 10
-98.8145
 20
0.722626
 11
-98.7135
 21
0.881668
  0
LINE
  8
0
 10
-98.7135
 20
0.881668
 11
-98.5934
 21
1.02681
  0
LINE
  8
0
 10
-98.5934
 20
1.02681
 11
-98.4561
 21
1.15576
  0
LINE
  8
0
 10
-98.4561
 20
1.15576
 11
-98.3037
 21
1.26648
  0
LINE
  8
0
 10
-98.3037
 20
1.26648
 11
-98.1387
 21
1.35724
  0
LINE
  8
0
 10
-98.1387
 20
1.35724
 11
-97.9635
 21
1.42657
  0
LINE
  8
0
 10
-97.9635
 20
1.42657
 11
-97.7811
 21
1.47342
  0
LINE
  8
0
 10
-97.7811
 20
1.47342
 11
-97.5942
 21
1.49704
  0
LINE
  8
0
 10
-97.5942
 20
1.49704
 11
-97.4058
 21
1.49704
  0
LINE
  8
0
 10
-97.4058
 20
1.49704
 11
-97.2189
 21
1.47342
  0
LINE
  8
0
 10
-97.2189
 20
1.47342
 11
-97.0365
 21
1.42657
  0
LINE
  8
0
 10
-97.0365
 20
1.42657
 11
-96.8613
 21
1.35724
  0
LINE
  8
0
 10
-96.8613
 20
1.35724
 11
-96.6963
 21
1.26648
  0
LINE
  8
0
 10
-96.6963
 20
1.26648
 11
-96.5439
 21
1.15576
  0
LINE
  8
0
 10
-96.5439
 20
1.15576
 11
-96.4065
 21
1.02681
  0
LINE
  8
0
 10
-96.4065
 20
1.02681
 11
-96.2865
 21
0.881668
  0
LINE
  8
0
 10
-96.2865
 20
0.881668
 11
-96.1855
 21
0.722626
  0
LINE
  8
0
 10
-96.1855
 20
0.722626
 11
-96.1053
 21
0.552185
  0
LINE
  8
0
 10
-96.1053
 20
0.552185
 11
-96.0471
 21
0.373032
  0
LINE
  8
0
 10
-96.0471
 20
0.373032
 11
-96.0118
 21
0.187988
  0
LINE
  8
0
 10
-96.0118
 20
0.187988
 11
-96
 21
0
  0
LINE
  8
0
 10
-96
 20
0
 11
-96.0118
 21
-0.187988
  0
LINE
  8
0
 10
-96.0118
 20
-0.187988
 11
-96.0471
 21
-0.373032
  0
LINE
  8
0
 10
-96.0471
 20
-0.373032
 11
-96.1053
 21
-0.552185
  0
LINE
  8
0
 10
-96.1053
 20
-0.552185
 11
-96.1855
 21
-0.722626
  0
LINE
  8
0
 10
-96.1855
 20
-0.722626
 11
-96.2865
 21
-0.881668
  0
LINE
  8
0
 10
-96.2865
 20
-0.881668
 11
-96.4065
 21
-1.02681
  0
LINE
  8
0
 10
-96.4065
 20
-1.02681
 11
-96.5439
 21
-1.15576
  0
LINE
  8
0
 10
-96.5439
 20
-1.15576
 11
-96.6963
 21
-1.26648
  0
LINE
  8
0
 10
-96.6963
 20
-1.26648
 11
-96.8613
 21
-1.35724
  0
LINE
  8
0
 10
-96.8613
 20
-1.35724
 11
-97.0365
 21
-1.42657
  0
LINE
  8
0
 10
-97.0365
 20
-1.42657
 11
-97.2189
 21
-1.47342
  0
LINE
  8
0
 10
-97.2189
 20
-1.47342
 11
-97.4058
 21
-1.49704
  0
LINE
  8
0
 10
-97.4058
 20
-1.49704
 11
-97.5942
 21
-1.49704
  0
LINE
  8
0
 10
97.4058
 20
-1.49704
 11
97.2189
 21
-1.47342
  0
LINE
  8
0
 10
97.2189
 20
-1.47342
 11
97.0365
 21
-1.42657
  0
LINE
  8
0
 10
97.0365
 20
-1.42657
 11
96.8613
 21
-1.35724
  0
LINE
  8
0
 10
96.8613
 20
-1.35724
 11
96.6963
 21
-1.26648
  0
LINE
  8
0
 10
96.6963
 20
-1.26648
 11
96.5439
 21
-1.15576
  0
LINE
  8
0
 10
96.5439
 20
-1.15576
 11
96.4065
 21
-1.02681
  0
LINE
  8
0
 10
96.4065
 20
-1.02681
 11
96.2865
 21
-0.881668
  0
LINE
  8
0
 10
96.2865
 20
-0.881668
 11
96.1855
 21
-0.722626
  0
LINE
  8
0
 10
96.1855
 20
-0.722626
 11
96.1053
 21
-0.552185
  0
LINE
  8
0
 10
96.1053
 20
-0.552185
 11
96.0471
 21
-0.373032
  0
LINE
  8
0
 10
96.0471
 20
-0.373032
 11
96.0118
 21
-0.187988
  0
LINE
  8
0
 10
96.0118
 20
-0.187988
 11
96
 21
0
  0
LINE
  8
0
 10
96
 20
0
 11
96.0118
 21
0.187988
  0
LINE
  8
0
 10
96.0118
 20
0.187988
 11
96.0471
 21
0.373032
  0
LINE
  8
0
 10
96.0471
 20
0.373032
 11
96.1053
 21
0.552185
  0
LINE
  8
0
 10
96.1053
 20
0.552185
 11
96.1855
 21
0.722626
  0
LINE
  8
0
 10
96.1855
 20
0.722626
 11
96.2865
 21
0.881668
  0
LINE
  8
0
 10
96.2865
 20
0.881668
 11
96.4065
 21
1.02681
  0
LINE
  8
0
 10
96.4065
 20
1.02681
 11
96.5439
 21
1.15576
  0
LINE
  8
0
 10
96.5439
 20
1.15576
 11
96.6963
 21
1.26648
  0
LINE
  8
0
 10
96.6963
 20
1.26648
 11
96.8613
 21
1.35724
  0
LINE
  8
0
 10
96.8613
 20
1.35724
 11
97.0365
 21
1.42657
  0
LINE
  8
0
 10
97.0365
 20
1.42657
 11
97.2189
 21
1.47342
  0
LINE
  8
0
 10
97.2189
 20
1.47342
 11
97.4058
 21
1.49704
  0
LINE
  8
0
 10
97.4058
 20
1.49704
 11
97.5942
 21
1.49704
  0
LINE
  8
0
 10
97.5942
 20
1.49704
 11
97.7811
 21
1.47342
  0
LINE
  8
0
 10
97.7811
 20
1.47342
 11
97.9635
 21
1.42657
  0
LINE
  8
0
 10
97.9635
 20
1.42657
 11
98.1387
 21
1.35724
  0
LINE
  8
0
 10
98.1387
 20
1.35724
 11
98.3037
 21
1.26648
  0
LINE
  8
0
 10
98.3037
 20
1.26648
 11
98.4561
 21
1.15576
  0
LINE
  8
0
 10
98.4561
 20
1.15576
 11
98.5934
 21
1.02681
  0
LINE
  8
0
 10
98.5934
 20
1.02681
 11
98.7135
 21
0.881668
  0
LINE
  8
0
 10
98.7135
 20
0.881668
 11
98.8145
 21
0.722626
  0
LINE
  8
0
 10
98.8145
 20
0.722626
 11
98.8947
 21
0.552185
  0
LINE
  8
0
 10
98.8947
 20
0.552185
 11
98.9529
 21
0.373032
  0
LINE
  8
0
 10
98.9529
 20
0.373032
 11
98.9882
 21
0.187988
  0
LINE
  8
0
 10
98.9882
 20
0.187988
 11
99
 21
0
  0
LINE
  8
0
 10
99
 20
0
 11
98.9882
 21
-0.187988
  0
LINE
  8
0
 10
98.9882
 20
-0.187988
 11
98.9529
 21
-0.373032
  0
LINE
  8
0
 10
98.9529
 20
-0.373032
 11
98.8947
 21
-0.552185
  0
LINE
  8
0
 10
98.8947
 20
-0.552185
 11
98.8145
 21
-0.722626
  0
LINE
  8
0
 10
98.8145
 20
-0.722626
 11
98.7135
 21
-0.881668
  0
LINE
  8
0
 10
98.7135
 20
-0.881668
 11
98.5934
 21
-1.02681
  0
LINE
  8
0
 10
98.5934
 20
-1.02681
 11
98.4561
 21
-1.15576
  0
LINE
  8
0
 10
98.4561
 20
-1.15576
 11
98.3037
 21
-1.26648
  0
LINE
  8
0
 10
98.3037
 20
-1.26648
 11
98.1387
 21
-1.35724
  0
LINE
  8
0
 10
98.1387
 20
-1.35724
 11
97.9635
 21
-1.42657
  0
LINE
  8
0
 10
97.9635
 20
-1.42657
 11
97.7811
 21
-1.47342
  0
LINE
  8
0
 10
97.7811
 20
-1.47342
 11
97.5942
 21
-1.49704
  0
LINE
  8
0
 10
97.5942
 20
-1.49704
 11
97.4058
 21
-1.49704
  0
LINE
  8
0
 10
94.7107
 20
-6.39561
 11
94.8711
 21
-6.05473
  0
LINE
  8
0
 10
94.8711
 20
-6.05473
 11
95.073
 21
-5.73663
  0
LINE
  8
0
 10
95.073
 20
-5.73663
 11
95.3131
 21
-5.44635
  0
LINE
  8
0
 10
95.3131
 20
-5.44635
 11
95.5877
 21
-5.18845
  0
LINE
  8
0
 10
95.5877
 20
-5.18845
 11
95.8925
 21
-4.96701
  0
LINE
  8
0
 10
95.8925
 20
-4.96701
 11
96.2227
 21
-4.78551
  0
LINE
  8
0
 10
96.2227
 20
-4.78551
 11
96.573
 21
-4.64682
  0
LINE
  8
0
 10
96.573
 20
-4.64682
 11
96.9379
 21
-4.55313
  0
LINE
  8
0
 10
96.9379
 20
-4.55313
 11
97.3116
 21
-4.50591
  0
LINE
  8
0
 10
97.3116
 20
-4.50591
 11
97.6884
 21
-4.50591
  0
LINE
  8
0
 10
97.6884
 20
-4.50591
 11
98.0621
 21
-4.55313
  0
LINE
  8
0
 10
98.0621
 20
-4.55313
 11
98.427
 21
-4.64682
  0
LINE
  8
0
 10
98.427
 20
-4.64682
 11
98.7773
 21
-4.78551
  0
LINE
  8
0
 10
98.7773
 20
-4.78551
 11
99.1075
 21
-4.96701
  0
LINE
  8
0
 10
99.1075
 20
-4.96701
 11
99.4123
 21
-5.18845
  0
LINE
  8
0
 10
99.4123
 20
-5.18845
 11
99.6869
 21
-5.44635
  0
LINE
  8
0
 10
99.6869
 20
-5.44635
 11
99.927
 21
-5.73663
  0
LINE
  8
0
 10
99.927
 20
-5.73663
 11
100.129
 21
-6.05473
  0
LINE
  8
0
 10
100.129
 20
-6.05473
 11
100.289
 21
-6.39561
  0
LINE
  8
0
 10
100.289
 20
-6.39561
 11
100.406
 21
-6.75392
  0
LINE
  8
0
 10
100.406
 20
-6.75392
 11
100.476
 21
-7.12399
  0
LINE
  8
0
 10
100.476
 20
-7.12399
 11
100.5
 21
-7.5
  0
LINE
  8
0
 10
100.5
 20
-7.5
 11
100.476
 21
-7.87599
  0
LINE
  8
0
 10
100.476
 20
-7.87599
 11
100.406
 21
-8.24606
  0
LINE
  8
0
 10
100.406
 20
-8.24606
 11
100.289
 21
-8.60437
  0
LINE
  8
0
 10
100.289
 20
-8.60437
 11
100.129
 21
-8.94525
  0
LINE
  8
0
 10
100.129
 20
-8.94525
 11
99.927
 21
-9.26335
  0
LINE
  8
0
 10
99.927
 20
-9.26335
 11
99.6869
 21
-9.55363
  0
LINE
  8
0
 10
99.6869
 20
-9.55363
 11
99.4123
 21
-9.81154
  0
LINE
  8
0
 10
99.4123
 20
-9.81154
 11
99.1075
 21
-10.033
  0
LINE
  8
0
 10
99.1075
 20
-10.033
 11
98.7773
 21
-10.2145
  0
LINE
  8
0
 10
98.7773
 20
-10.2145
 11
98.427
 21
-10.3532
  0
LINE
  8
0
 10
98.427
 20
-10.3532
 11
98.0621
 21
-10.4469
  0
LINE
  8
0
 10
98.0621
 20
-10.4469
 11
97.6884
 21
-10.4941
  0
LINE
  8
0
 10
97.6884
 20
-10.4941
 11
97.3116
 21
-10.4941
  0
LINE
  8
0
 10
97.3116
 20
-10.4941
 11
96.9379
 21
-10.4469
  0
LINE
  8
0
 10
96.9379
 20
-10.4469
 11
96.573
 21
-10.3532
  0
LINE
  8
0
 10
96.573
 20
-10.3532
 11
96.2227
 21
-10.2145
  0
LINE
  8
0
 10
96.2227
 20
-10.2145
 11
95.8925
 21
-10.033
  0
LINE
  8
0
 10
95.8925
 20
-10.033
 11
95.5877
 21
-9.81154
  0
LINE
  8
0
 10
95.5877
 20
-9.81154
 11
95.3131
 21
-9.55363
  0
LINE
  8
0
 10
95.3131
 20
-9.55363
 11
95.073
 21
-9.26335
  0
LINE
  8
0
 10
95.073
 20
-9.26335
 11
94.8711
 21
-8.94525
  0
LINE
  8
0
 10
94.8711
 20
-8.94525
 11
94.7107
 21
-8.60437
  0
LINE
  8
0
 10
94.7107
 20
-8.60437
 11
94.5943
 21
-8.24606
  0
LINE
  8
0
 10
94.5943
 20
-8.24606
 11
94.5237
 21
-7.87599
  0
LINE
  8
0
 10
94.5237
 20
-7.87599
 11
94.5
 21
-7.5
  0
LINE
  8
0
 10
94.5
 20
-7.5
 11
94.5237
 21
-7.12399
  0
LINE
  8
0
 10
94.5237
 20
-7.12399
 11
94.5943
 21
-6.75392
  0
LINE
  8
0
 10
94.5943
 20
-6.75392
 11
94.7107
 21
-6.39561
  0
LINE
  8
0
 10
-97.5942
 20
-16.497
 11
-97.7811
 21
-16.4734
  0
LINE
  8
0
 10
-97.7811
 20
-16.4734
 11
-97.9635
 21
-16.4266
  0
LINE
  8
0
 10
-97.9635
 20
-16.4266
 11
-98.1387
 21
-16.3572
  0
LINE
  8
0
 10
-98.1387
 20
-16.3572
 11
-98.3037
 21
-16.2665
  0
LINE
  8
0
 10
-98.3037
 20
-16.2665
 11
-98.4561
 21
-16.1558
  0
LINE
  8
0
 10
-98.4561
 20
-16.1558
 11
-98.5934
 21
-16.0268
  0
LINE
  8
0
 10
-98.5934
 20
-16.0268
 11
-98.7135
 21
-15.8817
  0
LINE
  8
0
 10
-98.7135
 20
-15.8817
 11
-98.8145
 21
-15.7226
  0
LINE
  8
0
 10
-98.8145
 20
-15.7226
 11
-98.8947
 21
-15.5522
  0
LINE
  8
0
 10
-98.8947
 20
-15.5522
 11
-98.9529
 21
-15.373
  0
LINE
  8
0
 10
-98.9529
 20
-15.373
 11
-98.9882
 21
-15.188
  0
LINE
  8
0
 10
-98.9882
 20
-15.188
 11
-99
 21
-15
  0
LINE
  8
0
 10
-99
 20
-15
 11
-98.9882
 21
-14.812
  0
LINE
  8
0
 10
-98.9882
 20
-14.812
 11
-98.9529
 21
-14.627
  0
LINE
  8
0
 10
-98.9529
 20
-14.627
 11
-98.8947
 21
-14.4478
  0
LINE
  8
0
 10
-98.8947
 20
-14.4478
 11
-98.8145
 21
-14.2774
  0
LINE
  8
0
 10
-98.8145
 20
-14.2774
 11
-98.7135
 21
-14.1183
  0
LINE
  8
0
 10
-98.7135
 20
-14.1183
 11
-98.5934
 21
-13.9732
  0
LINE
  8
0
 10
-98.5934
 20
-13.9732
 11
-98.4561
 21
-13.8442
  0
LINE
  8
0
 10
-98.4561
 20
-13.8442
 11
-98.3037
 21
-13.7335
  0
LINE
  8
0
 10
-98.3037
 20
-13.7335
 11
-98.1387
 21
-13.6427
  0
LINE
  8
0
 10
-98.1387
 20
-13.6427
 11
-97.9635
 21
-13.5734
  0
LINE
  8
0
 10
-97.9635
 20
-13.5734
 11
-97.7811
 21
-13.5266
  0
LINE
  8
0
 10
-97.7811
 20
-13.5266
 11
-97.5942
 21
-13.5029
  0
LINE
  8
0
 10
-97.5942
 20
-13.5029
 11
-97.4058
 21
-13.5029
  0
LINE
  8
0
 10
-97.4058
 20
-13.5029
 11
-97.2189
 21
-13.5266
  0
LINE
  8
0
 10
-97.2189
 20
-13.5266
 11
-97.0365
 21
-13.5734
  0
LINE
  8
0
 10
-97.0365
 20
-13.5734
 11
-96.8613
 21
-13.6427
  0
LINE
  8
0
 10
-96.8613
 20
-13.6427
 11
-96.6963
 21
-13.7335
  0
LINE
  8
0
 10
-96.6963
 20
-13.7335
 11
-96.5439
 21
-13.8442
  0
LINE
  8
0
 10
-96.5439
 20
-13.8442
 11
-96.4065
 21
-13.9732
  0
LINE
  8
0
 10
-96.4065
 20
-13.9732
 11
-96.2865
 21
-14.1183
  0
LINE
  8
0
 10
-96.2865
 20
-14.1183
 11
-96.1855
 21
-14.2774
  0
LINE
  8
0
 10
-96.1855
 20
-14.2774
 11
-96.1053
 21
-14.4478
  0
LINE
  8
0
 10
-96.1053
 20
-14.4478
 11
-96.0471
 21
-14.627
  0
LINE
  8
0
 10
-96.0471
 20
-14.627
 11
-96.0118
 21
-14.812
  0
LINE
  8
0
 10
-96.0118
 20
-14.812
 11
-96
 21
-15
  0
LINE
  8
0
 10
-96
 20
-15
 11
-96.0118
 21
-15.188
  0
LINE
  8
0
 10
-96.0118
 20
-15.188
 11
-96.0471
 21
-15.373
  0
LINE
  8
0
 10
-96.0471
 20
-15.373
 11
-96.1053
 21
-15.5522
  0
LINE
  8
0
 10
-96.1053
 20
-15.5522
 11
-96.1855
 21
-15.7226
  0
LINE
  8
0
 10
-96.1855
 20
-15.7226
 11
-96.2865
 21
-15.8817
  0
LINE
  8
0
 10
-96.2865
 20
-15.8817
 11
-96.4065
 21
-16.0268
  0
LINE
  8
0
 10
-96.4065
 20
-16.0268
 11
-96.5439
 21
-16.1558
  0
LINE
  8
0
 10
-96.5439
 20
-16.1558
 11
-96.6963
 21
-16.2665
  0
LINE
  8
0
 10
-96.6963
 20
-16.2665
 11
-96.8613
 21
-16.3572
  0
LINE
  8
0
 10
-96.8613
 20
-16.3572
 11
-97.0365
 21
-16.4266
  0
LINE
  8
0
 10
-97.0365
 20
-16.4266
 11
-97.2189
 21
-16.4734
  0
LINE
  8
0
 10
-97.2189
 20
-16.4734
 11
-97.4058
 21
-16.497
  0
LINE
  8
0
 10
-97.4058
 20
-16.497
 11
-97.5942
 21
-16.497
  0
LINE
  8
0
 10
97.4058
 20
-16.497
 11
97.2189
 21
-16.4734
  0
LINE
  8
0
 10
97.2189
 20
-16.4734
 11
97.0365
 21
-16.4266
  0
LINE
  8
0
 10
97.0365
 20
-16.4266
 11
96.8613
 21
-16.3572
  0
LINE
  8
0
 10
96.8613
 20
-16.3572
 11
96.6963
 21
-16.2665
  0
LINE
  8
0
 10
96.6963
 20
-16.2665
 11
96.5439
 21
-16.1558
  0
LINE
  8
0
 10
96.5439
 20
-16.1558
 11
96.4065
 21
-16.0268
  0
LINE
  8
0
 10
96.4065
 20
-16.0268
 11
96.2865
 21
-15.8817
  0
LINE
  8
0
 10
96.2865
 20
-15.8817
 11
96.1855
 21
-15.7226
  0
LINE
  8
0
 10
96.1855
 20
-15.7226
 11
96.1053
 21
-15.5522
  0
LINE
  8
0
 10
96.1053
 20
-15.5522
 11
96.0471
 21
-15.373
  0
LINE
  8
0
 10
96.0471
 20
-15.373
 11
96.0118
 21
-15.188
  0
LINE
  8
0
 10
96.0118
 20
-15.188
 11
96
 21
-15
  0
LINE
  8
0
 10
96
 20
-15
 11
96.0118
 21
-14.812
  0
LINE
  8
0
 10
96.0118
 20
-14.812
 11
96.0471
 21
-14.627
  0
LINE
  8
0
 10
96.0471
 20
-14.627
 11
96.1053
 21
-14.4478
  0
LINE
  8
0
 10
96.1053
 20
-14.4478
 11
96.1855
 21
-14.2774
  0
LINE
  8
0
 10
96.1855
 20
-14.2774
 11
96.2865
 21
-14.1183
  0
LINE
  8
0
 10
96.2865
 20
-14.1183
 11
96.4065
 21
-13.9732
  0
LINE
  8
0
 10
96.4065
 20
-13.9732
 11
96.5439
 21
-13.8442
  0
LINE
  8
0
 10
96.5439
 20
-13.8442
 11
96.6963
 21
-13.7335
  0
LINE
  8
0
 10
96.6963
 20
-13.7335
 11
96.8613
 21
-13.6427
  0
LINE
  8
0
 10
96.8613
 20
-13.6427
 11
97.0365
 21
-13.5734
  0
LINE
  8
0
 10
97.0365
 20
-13.5734
 11
97.2189
 21
-13.5266
  0
LINE
  8
0
 10
97.2189
 20
-13.5266
 11
97.4058
 21
-13.5029
  0
LINE
  8
0
 10
97.4058
 20
-13.5029
 11
97.5942
 21
-13.5029
  0
LINE
  8
0
 10
97.5942
 20
-13.5029
 11
97.7811
 21
-13.5266
  0
LINE
  8
0
 10
97.7811
 20
-13.5266
 11
97.9635
 21
-13.5734
  0
LINE
  8
0
 10
97.9635
 20
-13.5734
 11
98.1387
 21
-13.6427
  0
LINE
  8
0
 10
98.1387
 20
-13.6427
 11
98.3037
 21
-13.7335
  0
LINE
  8
0
 10
98.3037
 20
-13.7335
 11
98.4561
 21
-13.8442
  0
LINE
  8
0
 10
98.4561
 20
-13.8442
 11
98.5934
 21
-13.9732
  0
LINE
  8
0
 10
98.5934
 20
-13.9732
 11
98.7135
 21
-14.1183
  0
LINE
  8
0
 10
98.7135
 20
-14.1183
 11
98.8145
 21
-14.2774
  0
LINE
  8
0
 10
98.8145
 20
-14.2774
 11
98.8947
 21
-14.4478
  0
LINE
  8
0
 10
98.8947
 20
-14.4478
 11
98.9529
 21
-14.627
  0
LINE
  8
0
 10
98.9529
 20
-14.627
 11
98.9882
 21
-14.812
  0
LINE
  8
0
 10
98.9882
 20
-14.812
 11
99
 21
-15
  0
LINE
  8
0
 10
99
 20
-15
 11
98.9882
 21
-15.188
  0
LINE
  8
0
 10
98.9882
 20
-15.188
 11
98.9529
 21
-15.373
  0
LINE
  8
0
 10
98.9529
 20
-15.373
 11
98.8947
 21
-15.5522
  0
LINE
  8
0
 10
98.8947
 20
-15.5522
 11
98.8145
 21
-15.7226
  0
LINE
  8
0
 10
98.8145
 20
-15.7226
 11
98.7135
 21
-15.8817
  0
LINE
  8
0
 10
98.7135
 20
-15.8817
 11
98.5934
 21
-16.0268
  0
LINE
  8
0
 10
98.5934
 20
-16.0268
 11
98.4561
 21
-16.1558
  0
LINE
  8
0
 10
98.4561
 20
-16.1558
 11
98.3037
 21
-16.2665
  0
LINE
  8
0
 10
98.3037
 20
-16.2665
 11
98.1387
 21
-16.3572
  0
LINE
  8
0
 10
98.1387
 20
-16.3572
 11
97.9635
 21
-16.4266
  0
LINE
  8
0
 10
97.9635
 20
-16.4266
 11
97.7811
 21
-16.4734
  0
LINE
  8
0
 10
97.7811
 20
-16.4734
 11
97.5942
 21
-16.497
  0
LINE
  8
0
 10
97.5942
 20
-16.497
 11
97.4058
 21
-16.497
  0
LINE
  8
0
 10
-97.6884
 20
-25.4941
 11
-98.0621
 21
-25.4469
  0
LINE
  8
0
 10
-98.0621
 20
-25.4469
 11
-98.427
 21
-25.3532
  0
LINE
  8
0
 10
-98.427
 20
-25.3532
 11
-98.7773
 21
-25.2145
  0
LINE
  8
0
 10
-98.7773
 20
-25.2145
 11
-99.1075
 21
-25.033
  0
LINE
  8
0
 10
-99.1075
 20
-25.033
 11
-99.4123
 21
-24.8115
  0
LINE
  8
0
 10
-99.4123
 20
-24.8115
 11
-99.6869
 21
-24.5536
  0
LINE
  8
0
 10
-99.6869
 20
-24.5536
 11
-99.927
 21
-24.2634
  0
LINE
  8
0
 10
-99.927
 20
-24.2634
 11
-100.129
 21
-23.9453
  0
LINE
  8
0
 10
-100.129
 20
-23.9453
 11
-100.289
 21
-23.6044
  0
LINE
  8
0
 10
-100.289
 20
-23.6044
 11
-100.406
 21
-23.2461
  0
LINE
  8
0
 10
-100.406
 20
-23.2461
 11
-100.476
 21
-22.876
  0
LINE
  8
0
 10
-100.476
 20
-22.876
 11
-100.5
 21
-22.5
  0
LINE
  8
0
 10
-100.5
 20
-22.5
 11
-100.476
 21
-22.124
  0
LINE
  8
0
 10
-100.476
 20
-22.124
 11
-100.406
 21
-21.7539
  0
LINE
  8
0
 10
-100.406
 20
-21.7539
 11
-100.289
 21
-21.3956
  0
LINE
  8
0
 10
-100.289
 20
-21.3956
 11
-100.129
 21
-21.0547
  0
LINE
  8
0
 10
-100.129
 20
-21.0547
 11
-99.927
 21
-20.7366
  0
LINE
  8
0
 10
-99.927
 20
-20.7366
 11
-99.6869
 21
-20.4464
  0
LINE
  8
0
 10
-99.6869
 20
-20.4464
 11
-99.4123
 21
-20.1884
  0
LINE
  8
0
 10
-99.4123
 20
-20.1884
 11
-99.1075
 21
-19.967
  0
LINE
  8
0
 10
-99.1075
 20
-19.967
 11
-98.7773
 21
-19.7855
  0
LINE
  8
0
 10
-98.7773
 20
-19.7855
 11
-98.427
 21
-19.6468
  0
LINE
  8
0
 10
-98.427
 20
-19.6468
 11
-98.0621
 21
-19.5531
  0
LINE
  8
0
 10
-98.0621
 20
-19.5531
 11
-97.6884
 21
-19.5059
  0
LINE
  8
0
 10
-97.6884
 20
-19.5059
 11
-97.3116
 21
-19.5059
  0
LINE
  8
0
 10
-97.3116
 20
-19.5059
 11
-96.9379
 21
-19.5531
  0
LINE
  8
0
 10
-96.9379
 20
-19.5531
 11
-96.573
 21
-19.6468
  0
LINE
  8
0
 10
-96.573
 20
-19.6468
 11
-96.2227
 21
-19.7855
  0
LINE
  8
0
 10
-96.2227
 20
-19.7855
 11
-95.8925
 21
-19.967
  0
LINE
  8
0
 10
-95.8925
 20
-19.967
 11
-95.5877
 21
-20.1884
  0
LINE
  8
0
 10
-95.5877
 20
-20.1884
 11
-95.3131
 21
-20.4464
  0
LINE
  8
0
 10
-95.3131
 20
-20.4464
 11
-95.073
 21
-20.7366
  0
LINE
  8
0
 10
-95.073
 20
-20.7366
 11
-94.8711
 21
-21.0547
  0
LINE
  8
0
 10
-94.8711
 20
-21.0547
 11
-94.7107
 21
-21.3956
  0
LINE
  8
0
 10
-94.7107
 20
-21.3956
 11
-94.5943
 21
-21.7539
  0
LINE
  8
0
 10
-94.5943
 20
-21.7539
 11
-94.5237
 21
-22.124
  0
LINE
  8
0
 10
-94.5237
 20
-22.124
 11
-94.5
 21
-22.5
  0
LINE
  8
0
 10
-94.5
 20
-22.5
 11
-94.5237
 21
-22.876
  0
LINE
  8
0
 10
-94.5237
 20
-22.876
 11
-94.5943
 21
-23.2461
  0
LINE
  8
0
 10
-94.5943
 20
-23.2461
 11
-94.7107
 21
-23.6044
  0
LINE
  8
0
 10
-94.7107
 20
-23.6044
 11
-94.8711
 21
-23.9453
  0
LINE
  8
0
 10
-94.8711
 20
-23.9453
 11
-95.073
 21
-24.2634
  0
LINE
  8
0
 10
-95.073
 20
-24.2634
 11
-95.3131
 21
-24.5536
  0
LINE
  8
0
 10
-95.3131
 20
-24.5536
 11
-95.5877
 21
-24.8115
  0
LINE
  8
0
 10
-95.5877
 20
-24.8115
 11
-95.8925
 21
-25.033
  0
LINE
  8
0
 10
-95.8925
 20
-25.033
 11
-96.2227
 21
-25.2145
  0
LINE
  8
0
 10
-96.2227
 20
-25.2145
 11
-96.573
 21
-25.3532
  0
LINE
  8
0
 10
-96.573
 20
-25.3532
 11
-96.9379
 21
-25.4469
  0
LINE
  8
0
 10
-96.9379
 20
-25.4469
 11
-97.3116
 21
-25.4941
  0
LINE
  8
0
 10
-97.3116
 20
-25.4941
 11
-97.6884
 21
-25.4941
  0
LINE
  8
0
 10
97.3116
 20
-25.4941
 11
96.9379
 21
-25.4469
  0
LINE
  8
0
 10
96.9379
 20
-25.4469
 11
96.573
 21
-25.3532
  0
LINE
  8
0
 10
96.573
 20
-25.3532
 11
96.2227
 21
-25.2145
  0
LINE
  8
0
 10
96.2227
 20
-25.2145
 11
95.8925
 21
-25.033
  0
LINE
  8
0
 10
95.8925
 20
-25.033
 11
95.5877
 21
-24.8115
  0
LINE
  8
0
 10
95.5877
 20
-24.8115
 11
95.3131
 21
-24.5536
  0
LINE
  8
0
 10
95.3131
 20
-24.5536
 11
95.073
 21
-24.2634
  0
LINE
  8
0
 10
95.073
 20
-24.2634
 11
94.8711
 21
-23.9453
  0
LINE
  8
0
 10
94.8711
 20
-23.9453
 11
94.7107
 21
-23.6044
  0
LINE
  8
0
 10
94.7107
 20
-23.6044
 11
94.5943
 21
-23.2461
  0
LINE
  8
0
 10
94.5943
 20
-23.2461
 11
94.5237
 21
-22.876
  0
LINE
  8
0
 10
94.5237
 20
-22.876
 11
94.5
 21
-22.5
  0
LINE
  8
0
 10
94.5
 20
-22.5
 11
94.5237
 21
-22.124
  0
LINE
  8
0
 10
94.5237
 20
-22.124
 11
94.5943
 21
-21.7539
  0
LINE
  8
0
 10
94.5943
 20
-21.7539
 11
94.7107
 21
-21.3956
  0
LINE
  8
0
 10
94.7107
 20
-21.3956
 11
94.8711
 21
-21.0547
  0
LINE
  8
0
 10
94.8711
 20
-21.0547
 11
95.073
 21
-20.7366
  0
LINE
  8
0
 10
95.073
 20
-20.7366
 11
95.3131
 21
-20.4464
  0
LINE
  8
0
 10
95.3131
 20
-20.4464
 11
95.5877
 21
-20.1884
  0
LINE
  8
0
 10
95.5877
 20
-20.1884
 11
95.8925
 21
-19.967
  0
LINE
  8
0
 10
95.8925
 20
-19.967
 11
96.2227
 21
-19.7855
  0
LINE
  8
0
 10
96.2227
 20
-19.7855
 11
96.573
 21
-19.6468
  0
LINE
  8
0
 10
96.573
 20
-19.6468
 11
96.9379
 21
-19.5531
  0
LINE
  8
0
 10
96.9379
 20
-19.5531
 11
97.3116
 21
-19.5059
  0
LINE
  8
0
 10
97.3116
 20
-19.5059
 11
97.6884
 21
-19.5059
  0
LINE
  8
0
 10
97.6884
 20
-19.5059
 11
98.0621
 21
-19.5531
  0
LINE
  8
0
 10
98.0621
 20
-19.5531
 11
98.427
 21
-19.6468
  0
LINE
  8
0
 10
98.427
 20
-19.6468
 11
98.7773
 21
-19.7855
  0
LINE
  8
0
 10
98.7773
 20
-19.7855
 11
99.1075
 21
-19.967
  0
LINE
  8
0
 10
99.1075
 20
-19.967
 11
99.4123
 21
-20.1884
  0
LINE
  8
0
 10
99.4123
 20
-20.1884
 11
99.6869
 21
-20.4464
  0
LINE
  8
0
 10
99.6869
 20
-20.4464
 11
99.927
 21
-20.7366
  0
LINE
  8
0
 10
99.927
 20
-20.7366
 11
100.129
 21
-21.0547
  0
LINE
  8
0
 10
100.129
 20
-21.0547
 11
100.289
 21
-21.3956
  0
LINE
  8
0
 10
100.289
 20
-21.3956
 11
100.406
 21
-21.7539
  0
LINE
  8
0
 10
100.406
 20
-21.7539
 11
100.476
 21
-22.124
  0
LINE
  8
0
 10
100.476
 20
-22.124
 11
100.5
 21
-22.5
  0
LINE
  8
0
 10
100.5
 20
-22.5
 11
100.476
 21
-22.876
  0
LINE
  8
0
 10
100.476
 20
-22.876
 11
100.406
 21
-23.2461
  0
LINE
  8
0
 10
100.406
 20
-23.2461
 11
100.289
 21
-23.6044
  0
LINE
  8
0
 10
100.289
 20
-23.6044
 11
100.129
 21
-23.9453
  0
LINE
  8
0
 10
100.129
 20
-23.9453
 11
99.927
 21
-24.2634
  0
LINE
  8
0
 10
99.927
 20
-24.2634
 11
99.6869
 21
-24.5536
  0
LINE
  8
0
 10
99.6869
 20
-24.5536
 11
99.4123
 21
-24.8115
  0
LINE
  8
0
 10
99.4123
 20
-24.8115
 11
99.1075
 21
-25.033
  0
LINE
  8
0
 10
99.1075
 20
-25.033
 11
98.7773
 21
-25.2145
  0
LINE
  8
0
 10
98.7773
 20
-25.2145
 11
98.427
 21
-25.3532
  0
LINE
  8
0
 10
98.427
 20
-25.3532
 11
98.0621
 21
-25.4469
  0
LINE
  8
0
 10
98.0621
 20
-25.4469
 11
97.6884
 21
-25.4941
  0
LINE
  8
0
 10
97.6884
 20
-25.4941
 11
97.3116
 21
-25.4941
  0
LINE
  8
0
 10
-97.5942
 20
-31.497
 11
-97.7811
 21
-31.4734
  0
LINE
  8
0
 10
-97.7811
 20
-31.4734
 11
-97.9635
 21
-31.4266
  0
LINE
  8
0
 10
-97.9635
 20
-31.4266
 11
-98.1387
 21
-31.3572
  0
LINE
  8
0
 10
-98.1387
 20
-31.3572
 11
-98.3037
 21
-31.2665
  0
LINE
  8
0
 10
-98.3037
 20
-31.2665
 11
-98.4561
 21
-31.1558
  0
LINE
  8
0
 10
-98.4561
 20
-31.1558
 11
-98.5934
 21
-31.0268
  0
LINE
  8
0
 10
-98.5934
 20
-31.0268
 11
-98.7135
 21
-30.8817
  0
LINE
  8
0
 10
-98.7135
 20
-30.8817
 11
-98.8145
 21
-30.7226
  0
LINE
  8
0
 10
-98.8145
 20
-30.7226
 11
-98.8947
 21
-30.5522
  0
LINE
  8
0
 10
-98.8947
 20
-30.5522
 11
-98.9529
 21
-30.373
  0
LINE
  8
0
 10
-98.9529
 20
-30.373
 11
-98.9882
 21
-30.188
  0
LINE
  8
0
 10
-98.9882
 20
-30.188
 11
-99
 21
-30
  0
LINE
  8
0
 10
-99
 20
-30
 11
-98.9882
 21
-29.812
  0
LINE
  8
0
 10
-98.9882
 20
-29.812
 11
-98.9529
 21
-29.627
  0
LINE
  8
0
 10
-98.9529
 20
-29.627
 11
-98.8947
 21
-29.4478
  0
LINE
  8
0
 10
-98.8947
 20
-29.4478
 11
-98.8145
 21
-29.2774
  0
LINE
  8
0
 10
-98.8145
 20
-29.2774
 11
-98.7135
 21
-29.1183
  0
LINE
  8
0
 10
-98.7135
 20
-29.1183
 11
-98.5934
 21
-28.9732
  0
LINE
  8
0
 10
-98.5934
 20
-28.9732
 11
-98.4561
 21
-28.8442
  0
LINE
  8
0
 10
-98.4561
 20
-28.8442
 11
-98.3037
 21
-28.7335
  0
LINE
  8
0
 10
-98.3037
 20
-28.7335
 11
-98.1387
 21
-28.6427
  0
LINE
  8
0
 10
-98.1387
 20
-28.6427
 11
-97.9635
 21
-28.5734
  0
LINE
  8
0
 10
-97.9635
 20
-28.5734
 11
-97.7811
 21
-28.5266
  0
LINE
  8
0
 10
-97.7811
 20
-28.5266
 11
-97.5942
 21
-28.503
  0
LINE
  8
0
 10
-97.5942
 20
-28.503
 11
-97.4058
 21
-28.503
  0
LINE
  8
0
 10
-97.4058
 20
-28.503
 11
-97.2189
 21
-28.5266
  0
LINE
  8
0
 10
-97.2189
 20
-28.5266
 11
-97.0365
 21
-28.5734
  0
LINE
  8
0
 10
-97.0365
 20
-28.5734
 11
-96.8613
 21
-28.6427
  0
LINE
  8
0
 10
-96.8613
 20
-28.6427
 11
-96.6963
 21
-28.7335
  0
LINE
  8
0
 10
-96.6963
 20
-28.7335
 11
-96.5439
 21
-28.8442
  0
LINE
  8
0
 10
-96.5439
 20
-28.8442
 11
-96.4065
 21
-28.9732
  0
LINE
  8
0
 10
-96.4065
 20
-28.9732
 11
-96.2865
 21
-29.1183
  0
LINE
  8
0
 10
-96.2865
 20
-29.1183
 11
-96.1855
 21
-29.2774
  0
LINE
  8
0
 10
-96.1855
 20
-29.2774
 11
-96.1053
 21
-29.4478
  0
LINE
  8
0
 10
-96.1053
 20
-29.4478
 11
-96.0471
 21
-29.627
  0
LINE
  8
0
 10
-96.0471
 20
-29.627
 11
-96.0118
 21
-29.812
  0
LINE
  8
0
 10
-96.0118
 20
-29.812
 11
-96
 21
-30
  0
LINE
  8
0
 10
-96
 20
-30
 11
-96.0118
 21
-30.188
  0
LINE
  8
0
 10
-96.0118
 20
-30.188
 11
-96.0471
 21
-30.373
  0
LINE
  8
0
 10
-96.0471
 20
-30.373
 11
-96.1053
 21
-30.5522
  0
LINE
  8
0
 10
-96.1053
 20
-30.5522
 11
-96.1855
 21
-30.7226
  0
LINE
  8
0
 10
-96.1855
 20
-30.7226
 11
-96.2865
 21
-30.8817
  0
LINE
  8
0
 10
-96.2865
 20
-30.8817
 11
-96.4065
 21
-31.0268
  0
LINE
  8
0
 10
-96.4065
 20
-31.0268
 11
-96.5439
 21
-31.1558
  0
LINE
  8
0
 10
-96.5439
 20
-31.1558
 11
-96.6963
 21
-31.2665
  0
LINE
  8
0
 10
-96.6963
 20
-31.2665
 11
-96.8613
 21
-31.3572
  0
LINE
  8
0
 10
-96.8613
 20
-31.3572
 11
-97.0365
 21
-31.4266
  0
LINE
  8
0
 10
-97.0365
 20
-31.4266
 11
-97.2189
 21
-31.4734
  0
LINE
  8
0
 10
-97.2189
 20
-31.4734
 11
-97.4058
 21
-31.497
  0
LINE
  8
0
 10
-97.4058
 20
-31.497
 11
-97.5942
 21
-31.497
  0
LINE
  8
0
 10
97.4058
 20
-31.497
 11
97.2189
 21
-31.4734
  0
LINE
  8
0
 10
97.2189
 20
-31.4734
 11
97.0365
 21
-31.4266
  0
LINE
  8
0
 10
97.0365
 20
-31.4266
 11
96.8613
 21
-31.3572
  0
LINE
  8
0
 10
96.8613
 20
-31.3572
 11
96.6963
 21
-31.2665
  0
LINE
  8
0
 10
96.6963
 20
-31.2665
 11
96.5439
 21
-31.1558
  0
LINE
  8
0
 10
96.5439
 20
-31.1558
 11
96.4065
 21
-31.0268
  0
LINE
  8
0
 10
96.4065
 20
-31.0268
 11
96.2865
 21
-30.8817
  0
LINE
  8
0
 10
96.2865
 20
-30.8817
 11
96.1855
 21
-30.7226
  0
LINE
  8
0
 10
96.1855
 20
-30.7226
 11
96.1053
 21
-30.5522
  0
LINE
  8
0
 10
96.1053
 20
-30.5522
 11
96.0471
 21
-30.373
  0
LINE
  8
0
 10
96.0471
 20
-30.373
 11
96.0118
 21
-30.188
  0
LINE
  8
0
 10
96.0118
 20
-30.188
 11
96
 21
-30
  0
LINE
  8
0
 10
96
 20
-30
 11
96.0118
 21
-29.812
  0
LINE
  8
0
 10
96.0118
 20
-29.812
 11
96.0471
 21
-29.627
  0
LINE
  8
0
 10
96.0471
 20
-29.627
 11
96.1053
 21
-29.4478
  0
LINE
  8
0
 10
96.1053
 20
-29.4478
 11
96.1855
 21
-29.2774
  0
LINE
  8
0
 10
96.1855
 20
-29.2774
 11
96.2865
 21
-29.1183
  0
LINE
  8
0
 10
96.2865
 20
-29.1183
 11
96.4065
 21
-28.9732
  0
LINE
  8
0
 10
96.4065
 20
-28.9732
 11
96.5439
 21
-28.8442
  0
LINE
  8
0
 10
96.5439
 20
-28.8442
 11
96.6963
 21
-28.7335
  0
LINE
  8
0
 10
96.6963
 20
-28.7335
 11
96.8613
 21
-28.6427
  0
LINE
  8
0
 10
96.8613
 20
-28.6427
 11
97.0365
 21
-28.5734
  0
LINE
  8
0
 10
97.0365
 20
-28.5734
 11
97.2189
 21
-28.5266
  0
LINE
  8
0
 10
97.2189
 20
-28.5266
 11
97.4058
 21
-28.503
  0
LINE
  8
0
 10
97.4058
 20
-28.503
 11
97.5942
 21
-28.503
  0
LINE
  8
0
 10
97.5942
 20
-28.503
 11
97.7811
 21
-28.5266
  0
LINE
  8
0
 10
97.7811
 20
-28.5266
 11
97.9635
 21
-28.5734
  0
LINE
  8
0
 10
97.9635
 20
-28.5734
 11
98.1387
 21
-28.6427
  0
LINE
  8
0
 10
98.1387
 20
-28.6427
 11
98.3037
 21
-28.7335
  0
LINE
  8
0
 10
98.3037
 20
-28.7335
 11
98.4561
 21
-28.8442
  0
LINE
  8
0
 10
98.4561
 20
-28.8442
 11
98.5934
 21
-28.9732
  0
LINE
  8
0
 10
98.5934
 20
-28.9732
 11
98.7135
 21
-29.1183
  0
LINE
  8
0
 10
98.7135
 20
-29.1183
 11
98.8145
 21
-29.2774
  0
LINE
  8
0
 10
98.8145
 20
-29.2774
 11
98.8947
 21
-29.4478
  0
LINE
  8
0
 10
98.8947
 20
-29.4478
 11
98.9529
 21
-29.627
  0
LINE
  8
0
 10
98.9529
 20
-29.627
 11
98.9882
 21
-29.812
  0
LINE
  8
0
 10
98.9882
 20
-29.812
 11
99
 21
-30
  0
LINE
  8
0
 10
99
 20
-30
 11
98.9882
 21
-30.188
  0
LINE
  8
0
 10
98.9882
 20
-30.188
 11
98.9529
 21
-30.373
  0
LINE
  8
0
 10
98.9529
 20
-30.373
 11
98.8947
 21
-30.5522
  0
LINE
  8
0
 10
98.8947
 20
-30.5522
 11
98.8145
 21
-30.7226
  0
LINE
  8
0
 10
98.8145
 20
-30.7226
 11
98.7135
 21
-30.8817
  0
LINE
  8
0
 10
98.7135
 20
-30.8817
 11
98.5934
 21
-31.0268
  0
LINE
  8
0
 10
98.5934
 20
-31.0268
 11
98.4561
 21
-31.1558
  0
LINE
  8
0
 10
98.4561
 20
-31.1558
 11
98.3037
 21
-31.2665
  0
LINE
  8
0
 10
98.3037
 20
-31.2665
 11
98.1387
 21
-31.3572
  0
LINE
  8
0
 10
98.1387
 20
-31.3572
 11
97.9635
 21
-31.4266
  0
LINE
  8
0
 10
97.9635
 20
-31.4266
 11
97.7811
 21
-31.4734
  0
LINE
  8
0
 10
97.7811
 20
-31.4734
 11
97.5942
 21
-31.497
  0
LINE
  8
0
 10
97.5942
 20
-31.497
 11
97.4058
 21
-31.497
  0
LINE
  8
0
 10
-97.6884
 20
-40.4941
 11
-98.0621
 21
-40.4469
  0
LINE
  8
0
 10
-98.0621
 20
-40.4469
 11
-98.427
 21
-40.3532
  0
LINE
  8
0
 10
-98.427
 20
-40.3532
 11
-98.7773
 21
-40.2145
  0
LINE
  8
0
 10
-98.7773
 20
-40.2145
 11
-99.1075
 21
-40.033
  0
LINE
  8
0
 10
-99.1075
 20
-40.033
 11
-99.4123
 21
-39.8115
  0
LINE
  8
0
 10
-99.4123
 20
-39.8115
 11
-99.6869
 21
-39.5536
  0
LINE
  8
0
 10
-99.6869
 20
-39.5536
 11
-99.927
 21
-39.2634
  0
LINE
  8
0
 10
-99.927
 20
-39.2634
 11
-100.129
 21
-38.9453
  0
LINE
  8
0
 10
-100.129
 20
-38.9453
 11
-100.289
 21
-38.6044
  0
LINE
  8
0
 10
-100.289
 20
-38.6044
 11
-100.406
 21
-38.2461
  0
LINE
  8
0
 10
-100.406
 20
-38.2461
 11
-100.476
 21
-37.876
  0
LINE
  8
0
 10
-100.476
 20
-37.876
 11
-100.5
 21
-37.5
  0
LINE
  8
0
 10
-100.5
 20
-37.5
 11
-100.476
 21
-37.124
  0
LINE
  8
0
 10
-100.476
 20
-37.124
 11
-100.406
 21
-36.7539
  0
LINE
  8
0
 10
-100.406
 20
-36.7539
 11
-100.289
 21
-36.3956
  0
LINE
  8
0
 10
-100.289
 20
-36.3956
 11
-100.129
 21
-36.0547
  0
LINE
  8
0
 10
-100.129
 20
-36.0547
 11
-99.927
 21
-35.7366
  0
LINE
  8
0
 10
-99.927
 20
-35.7366
 11
-99.6869
 21
-35.4464
  0
LINE
  8
0
 10
-99.6869
 20
-35.4464
 11
-99.4123
 21
-35.1885
  0
LINE
  8
0
 10
-99.4123
 20
-35.1885
 11
-99.1075
 21
-34.967
  0
LINE
  8
0
 10
-99.1075
 20
-34.967
 11
-98.7773
 21
-34.7855
  0
LINE
  8
0
 10
-98.7773
 20
-34.7855
 11
-98.427
 21
-34.6468
  0
LINE
  8
0
 10
-98.427
 20
-34.6468
 11
-98.0621
 21
-34.5531
  0
LINE
  8
0
 10
-98.0621
 20
-34.5531
 11
-97.6884
 21
-34.5059
  0
LINE
  8
0
 10
-97.6884
 20
-34.5059
 11
-97.3116
 21
-34.5059
  0
LINE
  8
0
 10
-97.3116
 20
-34.5059
 11
-96.9379
 21
-34.5531
  0
LINE
  8
0
 10
-96.9379
 20
-34.5531
 11
-96.573
 21
-34.6468
  0
LINE
  8
0
 10
-96.573
 20
-34.6468
 11
-96.2227
 21
-34.7855
  0
LINE
  8
0
 10
-96.2227
 20
-34.7855
 11
-95.8925
 21
-34.967
  0
LINE
  8
0
 10
-95.8925
 20
-34.967
 11
-95.5877
 21
-35.1885
  0
LINE
  8
0
 10
-95.5877
 20
-35.1885
 11
-95.3131
 21
-35.4464
  0
LINE
  8
0
 10
-95.3131
 20
-35.4464
 11
-95.073
 21
-35.7366
  0
LINE
  8
0
 10
-95.073
 20
-35.7366
 11
-94.8711
 21
-36.0547
  0
LINE
  8
0
 10
-94.8711
 20
-36.0547
 11
-94.7107
 21
-36.3956
  0
LINE
  8
0
 10
-94.7107
 20
-36.3956
 11
-94.5943
 21
-36.7539
  0
LINE
  8
0
 10
-94.5943
 20
-36.7539
 11
-94.5237
 21
-37.124
  0
LINE
  8
0
 10
-94.5237
 20
-37.124
 11
-94.5
 21
-37.5
  0
LINE
  8
0
 10
-94.5
 20
-37.5
 11
-94.5237
 21
-37.876
  0
LINE
  8
0
 10
-94.5237
 20
-37.876
 11
-94.5943
 21
-38.2461
  0
LINE
  8
0
 10
-94.5943
 20
-38.2461
 11
-94.7107
 21
-38.6044
  0
LINE
  8
0
 10
-94.7107
 20
-38.6044
 11
-94.8711
 21
-38.9453
  0
LINE
  8
0
 10
-94.8711
 20
-38.9453
 11
-95.073
 21
-39.2634
  0
LINE
  8
0
 10
-95.073
 20
-39.2634
 11
-95.3131
 21
-39.5536
  0
LINE
  8
0
 10
-95.3131
 20
-39.5536
 11
-95.5877
 21
-39.8115
  0
LINE
  8
0
 10
-95.5877
 20
-39.8115
 11
-95.8925
 21
-40.033
  0
LINE
  8
0
 10
-95.8925
 20
-40.033
 11
-96.2227
 21
-40.2145
  0
LINE
  8
0
 10
-96.2227
 20
-40.2145
 11
-96.573
 21
-40.3532
  0
LINE
  8
0
 10
-96.573
 20
-40.3532
 11
-96.9379
 21
-40.4469
  0
LINE
  8
0
 10
-96.9379
 20
-40.4469
 11
-97.3116
 21
-40.4941
  0
LINE
  8
0
 10
-97.3116
 20
-40.4941
 11
-97.6884
 21
-40.4941
  0
LINE
  8
0
 10
97.3116
 20
-40.4941
 11
96.9379
 21
-40.4469
  0
LINE
  8
0
 10
96.9379
 20
-40.4469
 11
96.573
 21
-40.3532
  0
LINE
  8
0
 10
96.573
 20
-40.3532
 11
96.2227
 21
-40.2145
  0
LINE
  8
0
 10
96.2227
 20
-40.2145
 11
95.8925
 21
-40.033
  0
LINE
  8
0
 10
95.8925
 20
-40.033
 11
95.5877
 21
-39.8115
  0
LINE
  8
0
 10
95.5877
 20
-39.8115
 11
95.3131
 21
-39.5536
  0
LINE
  8
0
 10
95.3131
 20
-39.5536
 11
95.073
 21
-39.2634
  0
LINE
  8
0
 10
95.073
 20
-39.2634
 11
94.8711
 21
-38.9453
  0
LINE
  8
0
 10
94.8711
 20
-38.9453
 11
94.7107
 21
-38.6044
  0
LINE
  8
0
 10
94.7107
 20
-38.6044
 11
94.5943
 21
-38.2461
  0
LINE
  8
0
 10
94.5943
 20
-38.2461
 11
94.5237
 21
-37.876
  0
LINE
  8
0
 10
94.5237
 20
-37.876
 11
94.5
 21
-37.5
  0
LINE
  8
0
 10
94.5
 20
-37.5
 11
94.5237
 21
-37.124
  0
LINE
  8
0
 10
94.5237
 20
-37.124
 11
94.5943
 21
-36.7539
  0
LINE
  8
0
 10
94.5943
 20
-36.7539
 11
94.7107
 21
-36.3956
  0
LINE
  8
0
 10
94.7107
 20
-36.3956
 11
94.8711
 21
-36.0547
  0
LINE
  8
0
 10
94.8711
 20
-36.0547
 11
95.073
 21
-35.7366
  0
LINE
  8
0
 10
95.073
 20
-35.7366
 11
95.3131
 21
-35.4464
  0
LINE
  8
0
 10
95.3131
 20
-35.4464
 11
95.5877
 21
-35.1885
  0
LINE
  8
0
 10
95.5877
 20
-35.1885
 11
95.8925
 21
-34.967
  0
LINE
  8
0
 10
95.8925
 20
-34.967
 11
96.2227
 21
-34.7855
  0
LINE
  8
0
 10
96.2227
 20
-34.7855
 11
96.573
 21
-34.6468
  0
LINE
  8
0
 10
96.573
 20
-34.6468
 11
96.9379
 21
-34.5531
  0
LINE
  8
0
 10
96.9379
 20
-34.5531
 11
97.3116
 21
-34.5059
  0
LINE
  8
0
 10
97.3116
 20
-34.5059
 11
97.6884
 21
-34.5059
  0
LINE
  8
0
 10
97.6884
 20
-34.5059
 11
98.0621
 21
-34.5531
  0
LINE
  8
0
 10
98.0621
 20
-34.5531
 11
98.427
 21
-34.6468
  0
LINE
  8
0
 10
98.427
 20
-34.6468
 11
98.7773
 21
-34.7855
  0
LINE
  8
0
 10
98.7773
 20
-34.7855
 11
99.1075
 21
-34.967
  0
LINE
  8
0
 10
99.1075
 20
-34.967
 11
99.4123
 21
-35.1885
  0
LINE
  8
0
 10
99.4123
 20
-35.1885
 11
99.6869
 21
-35.4464
  0
LINE
  8
0
 10
99.6869
 20
-35.4464
 11
99.927
 21
-35.7366
  0
LINE
  8
0
 10
99.927
 20
-35.7366
 11
100.129
 21
-36.0547
  0
LINE
  8
0
 10
100.129
 20
-36.0547
 11
100.289
 21
-36.3956
  0
LINE
  8
0
 10
100.289
 20
-36.3956
 11
100.406
 21
-36.7539
  0
LINE
  8
0
 10
100.406
 20
-36.7539
 11
100.476
 21
-37.124
  0
LINE
  8
0
 10
100.476
 20
-37.124
 11
100.5
 21
-37.5
  0
LINE
  8
0
 10
100.5
 20
-37.5
 11
100.476
 21
-37.876
  0
LINE
  8
0
 10
100.476
 20
-37.876
 11
100.406
 21
-38.2461
  0
LINE
  8
0
 10
100.406
 20
-38.2461
 11
100.289
 21
-38.6044
  0
LINE
  8
0
 10
100.289
 20
-38.6044
 11
100.129
 21
-38.9453
  0
LINE
  8
0
 10
100.129
 20
-38.9453
 11
99.927
 21
-39.2634
  0
LINE
  8
0
 10
99.927
 20
-39.2634
 11
99.6869
 21
-39.5536
  0
LINE
  8
0
 10
99.6869
 20
-39.5536
 11
99.4123
 21
-39.8115
  0
LINE
  8
0
 10
99.4123
 20
-39.8115
 11
99.1075
 21
-40.033
  0
LINE
  8
0
 10
99.1075
 20
-40.033
 11
98.7773
 21
-40.2145
  0
LINE
  8
0
 10
98.7773
 20
-40.2145
 11
98.427
 21
-40.3532
  0
LINE
  8
0
 10
98.427
 20
-40.3532
 11
98.0621
 21
-40.4469
  0
LINE
  8
0
 10
98.0621
 20
-40.4469
 11
97.6884
 21
-40.4941
  0
LINE
  8
0
 10
97.6884
 20
-40.4941
 11
97.3116
 21
-40.4941
  0
LINE
  8
0
 10
97.4058
 20
-46.497
 11
97.2189
 21
-46.4734
  0
LINE
  8
0
 10
97.2189
 20
-46.4734
 11
97.0365
 21
-46.4266
  0
LINE
  8
0
 10
97.0365
 20
-46.4266
 11
96.8613
 21
-46.3572
  0
LINE
  8
0
 10
96.8613
 20
-46.3572
 11
96.6963
 21
-46.2665
  0
LINE
  8
0
 10
96.6963
 20
-46.2665
 11
96.5439
 21
-46.1558
  0
LINE
  8
0
 10
96.5439
 20
-46.1558
 11
96.4065
 21
-46.0268
  0
LINE
  8
0
 10
96.4065
 20
-46.0268
 11
96.2865
 21
-45.8817
  0
LINE
  8
0
 10
96.2865
 20
-45.8817
 11
96.1855
 21
-45.7226
  0
LINE
  8
0
 10
96.1855
 20
-45.7226
 11
96.1053
 21
-45.5522
  0
LINE
  8
0
 10
96.1053
 20
-45.5522
 11
96.0471
 21
-45.373
  0
LINE
  8
0
 10
96.0471
 20
-45.373
 11
96.0118
 21
-45.188
  0
LINE
  8
0
 10
96.0118
 20
-45.188
 11
96
 21
-45
  0
LINE
  8
0
 10
96
 20
-45
 11
96.0118
 21
-44.812
  0
LINE
  8
0
 10
96.0118
 20
-44.812
 11
96.0471
 21
-44.627
  0
LINE
  8
0
 10
96.0471
 20
-44.627
 11
96.1053
 21
-44.4478
  0
LINE
  8
0
 10
96.1053
 20
-44.4478
 11
96.1855
 21
-44.2774
  0
LINE
  8
0
 10
96.1855
 20
-44.2774
 11
96.2865
 21
-44.1183
  0
LINE
  8
0
 10
96.2865
 20
-44.1183
 11
96.4065
 21
-43.9732
  0
LINE
  8
0
 10
96.4065
 20
-43.9732
 11
96.5439
 21
-43.8442
  0
LINE
  8
0
 10
96.5439
 20
-43.8442
 11
96.6963
 21
-43.7335
  0
LINE
  8
0
 10
96.6963
 20
-43.7335
 11
96.8613
 21
-43.6428
  0
LINE
  8
0
 10
96.8613
 20
-43.6428
 11
97.0365
 21
-43.5734
  0
LINE
  8
0
 10
97.0365
 20
-43.5734
 11
97.2189
 21
-43.5266
  0
LINE
  8
0
 10
97.2189
 20
-43.5266
 11
97.4058
 21
-43.503
  0
LINE
  8
0
 10
97.4058
 20
-43.503
 11
97.5942
 21
-43.503
  0
LINE
  8
0
 10
97.5942
 20
-43.503
 11
97.7811
 21
-43.5266
  0
LINE
  8
0
 10
97.7811
 20
-43.5266
 11
97.9635
 21
-43.5734
  0
LINE
  8
0
 10
97.9635
 20
-43.5734
 11
98.1387
 21
-43.6428
  0
LINE
  8
0
 10
98.1387
 20
-43.6428
 11
98.3037
 21
-43.7335
  0
LINE
  8
0
 10
98.3037
 20
-43.7335
 11
98.4561
 21
-43.8442
  0
LINE
  8
0
 10
98.4561
 20
-43.8442
 11
98.5934
 21
-43.9732
  0
LINE
  8
0
 10
98.5934
 20
-43.9732
 11
98.7135
 21
-44.1183
  0
LINE
  8
0
 10
98.7135
 20
-44.1183
 11
98.8145
 21
-44.2774
  0
LINE
  8
0
 10
98.8145
 20
-44.2774
 11
98.8947
 21
-44.4478
  0
LINE
  8
0
 10
98.8947
 20
-44.4478
 11
98.9529
 21
-44.627
  0
LINE
  8
0
 10
98.9529
 20
-44.627
 11
98.9882
 21
-44.812
  0
LINE
  8
0
 10
98.9882
 20
-44.812
 11
99
 21
-45
  0
LINE
  8
0
 10
99
 20
-45
 11
98.9882
 21
-45.188
  0
LINE
  8
0
 10
98.9882
 20
-45.188
 11
98.9529
 21
-45.373
  0
LINE
  8
0
 10
98.9529
 20
-45.373
 11
98.8947
 21
-45.5522
  0
LINE
  8
0
 10
98.8947
 20
-45.5522
 11
98.8145
 21
-45.7226
  0
LINE
  8
0
 10
98.8145
 20
-45.7226
 11
98.7135
 21
-45.8817
  0
LINE
  8
0
 10
98.7135
 20
-45.8817
 11
98.5934
 21
-46.0268
  0
LINE
  8
0
 10
98.5934
 20
-46.0268
 11
98.4561
 21
-46.1558
  0
LINE
  8
0
 10
98.4561
 20
-46.1558
 11
98.3037
 21
-46.2665
  0
LINE
  8
0
 10
98.3037
 20
-46.2665
 11
98.1387
 21
-46.3572
  0
LINE
  8
0
 10
98.1387
 20
-46.3572
 11
97.9635
 21
-46.4266
  0
LINE
  8
0
 10
97.9635
 20
-46.4266
 11
97.7811
 21
-46.4734
  0
LINE
  8
0
 10
97.7811
 20
-46.4734
 11
97.5942
 21
-46.497
  0
LINE
  8
0
 10
97.5942
 20
-46.497
 11
97.4058
 21
-46.497
  0
LINE
  8
0
 10
-97.5942
 20
-46.497
 11
-97.7811
 21
-46.4734
  0
LINE
  8
0
 10
-97.7811
 20
-46.4734
 11
-97.9635
 21
-46.4266
  0
LINE
  8
0
 10
-97.9635
 20
-46.4266
 11
-98.1387
 21
-46.3572
  0
LINE
  8
0
 10
-98.1387
 20
-46.3572
 11
-98.3037
 21
-46.2665
  0
LINE
  8
0
 10
-98.3037
 20
-46.2665
 11
-98.4561
 21
-46.1558
  0
LINE
  8
0
 10
-98.4561
 20
-46.1558
 11
-98.5934
 21
-46.0268
  0
LINE
  8
0
 10
-98.5934
 20
-46.0268
 11
-98.7135
 21
-45.8817
  0
LINE
  8
0
 10
-98.7135
 20
-45.8817
 11
-98.8145
 21
-45.7226
  0
LINE
  8
0
 10
-98.8145
 20
-45.7226
 11
-98.8947
 21
-45.5522
  0
LINE
  8
0
 10
-98.8947
 20
-45.5522
 11
-98.9529
 21
-45.373
  0
LINE
  8
0
 10
-98.9529
 20
-45.373
 11
-98.9882
 21
-45.188
  0
LINE
  8
0
 10
-98.9882
 20
-45.188
 11
-99
 21
-45
  0
LINE
  8
0
 10
-99
 20
-45
 11
-98.9882
 21
-44.812
  0
LINE
  8
0
 10
-98.9882
 20
-44.812
 11
-98.9529
 21
-44.627
  0
LINE
  8
0
 10
-98.9529
 20
-44.627
 11
-98.8947
 21
-44.4478
  0
LINE
  8
0
 10
-98.8947
 20
-44.4478
 11
-98.8145
 21
-44.2774
  0
LINE
  8
0
 10
-98.8145
 20
-44.2774
 11
-98.7135
 21
-44.1183
  0
LINE
  8
0
 10
-98.7135
 20
-44.1183
 11
-98.5934
 21
-43.9732
  0
LINE
  8
0
 10
-98.5934
 20
-43.9732
 11
-98.4561
 21
-43.8442
  0
LINE
  8
0
 10
-98.4561
 20
-43.8442
 11
-98.3037
 21
-43.7335
  0
LINE
  8
0
 10
-98.3037
 20
-43.7335
 11
-98.1387
 21
-43.6428
  0
LINE
  8
0
 10
-98.1387
 20
-43.6428
 11
-97.9635
 21
-43.5734
  0
LINE
  8
0
 10
-97.9635
 20
-43.5734
 11
-97.7811
 21
-43.5266
  0
LINE
  8
0
 10
-97.7811
 20
-43.5266
 11
-97.5942
 21
-43.503
  0
LINE
  8
0
 10
-97.5942
 20
-43.503
 11
-97.4058
 21
-43.503
  0
LINE
  8
0
 10
-97.4058
 20
-43.503
 11
-97.2189
 21
-43.5266
  0
LINE
  8
0
 10
-97.2189
 20
-43.5266
 11
-97.0365
 21
-43.5734
  0
LINE
  8
0
 10
-97.0365
 20
-43.5734
 11
-96.8613
 21
-43.6428
  0
LINE
  8
0
 10
-96.8613
 20
-43.6428
 11
-96.6963
 21
-43.7335
  0
LINE
  8
0
 10
-96.6963
 20
-43.7335
 11
-96.5439
 21
-43.8442
  0
LINE
  8
0
 10
-96.5439
 20
-43.8442
 11
-96.4065
 21
-43.9732
  0
LINE
  8
0
 10
-96.4065
 20
-43.9732
 11
-96.2865
 21
-44.1183
  0
LINE
  8
0
 10
-96.2865
 20
-44.1183
 11
-96.1855
 21
-44.2774
  0
LINE
  8
0
 10
-96.1855
 20
-44.2774
 11
-96.1053
 21
-44.4478
  0
LINE
  8
0
 10
-96.1053
 20
-44.4478
 11
-96.0471
 21
-44.627
  0
LINE
  8
0
 10
-96.0471
 20
-44.627
 11
-96.0118
 21
-44.812
  0
LINE
  8
0
 10
-96.0118
 20
-44.812
 11
-96
 21
-45
  0
LINE
  8
0
 10
-96
 20
-45
 11
-96.0118
 21
-45.188
  0
LINE
  8
0
 10
-96.0118
 20
-45.188
 11
-96.0471
 21
-45.373
  0
LINE
  8
0
 10
-96.0471
 20
-45.373
 11
-96.1053
 21
-45.5522
  0
LINE
  8
0
 10
-96.1053
 20
-45.5522
 11
-96.1855
 21
-45.7226
  0
LINE
  8
0
 10
-96.1855
 20
-45.7226
 11
-96.2865
 21
-45.8817
  0
LINE
  8
0
 10
-96.2865
 20
-45.8817
 11
-96.4065
 21
-46.0268
  0
LINE
  8
0
 10
-96.4065
 20
-46.0268
 11
-96.5439
 21
-46.1558
  0
LINE
  8
0
 10
-96.5439
 20
-46.1558
 11
-96.6963
 21
-46.2665
  0
LINE
  8
0
 10
-96.6963
 20
-46.2665
 11
-96.8613
 21
-46.3572
  0
LINE
  8
0
 10
-96.8613
 20
-46.3572
 11
-97.0365
 21
-46.4266
  0
LINE
  8
0
 10
-97.0365
 20
-46.4266
 11
-97.2189
 21
-46.4734
  0
LINE
  8
0
 10
-97.2189
 20
-46.4734
 11
-97.4058
 21
-46.497
  0
LINE
  8
0
 10
-97.4058
 20
-46.497
 11
-97.5942
 21
-46.497
  0
LINE
  8
0
 10
-97.6884
 20
-55.4941
 11
-98.0621
 21
-55.4469
  0
LINE
  8
0
 10
-98.0621
 20
-55.4469
 11
-98.427
 21
-55.3532
  0
LINE
  8
0
 10
-98.427
 20
-55.3532
 11
-98.7773
 21
-55.2145
  0
LINE
  8
0
 10
-98.7773
 20
-55.2145
 11
-99.1075
 21
-55.033
  0
LINE
  8
0
 10
-99.1075
 20
-55.033
 11
-99.4123
 21
-54.8115
  0
LINE
  8
0
 10
-99.4123
 20
-54.8115
 11
-99.6869
 21
-54.5536
  0
LINE
  8
0
 10
-99.6869
 20
-54.5536
 11
-99.927
 21
-54.2634
  0
LINE
  8
0
 10
-99.927
 20
-54.2634
 11
-100.129
 21
-53.9453
  0
LINE
  8
0
 10
-100.129
 20
-53.9453
 11
-100.289
 21
-53.6044
  0
LINE
  8
0
 10
-100.289
 20
-53.6044
 11
-100.406
 21
-53.2461
  0
LINE
  8
0
 10
-100.406
 20
-53.2461
 11
-100.476
 21
-52.876
  0
LINE
  8
0
 10
-100.476
 20
-52.876
 11
-100.5
 21
-52.5
  0
LINE
  8
0
 10
-100.5
 20
-52.5
 11
-100.476
 21
-52.124
  0
LINE
  8
0
 10
-100.476
 20
-52.124
 11
-100.406
 21
-51.7539
  0
LINE
  8
0
 10
-100.406
 20
-51.7539
 11
-100.289
 21
-51.3956
  0
LINE
  8
0
 10
-100.289
 20
-51.3956
 11
-100.129
 21
-51.0547
  0
LINE
  8
0
 10
-100.129
 20
-51.0547
 11
-99.927
 21
-50.7366
  0
LINE
  8
0
 10
-99.927
 20
-50.7366
 11
-99.6869
 21
-50.4464
  0
LINE
  8
0
 10
-99.6869
 20
-50.4464
 11
-99.4123
 21
-50.1885
  0
LINE
  8
0
 10
-99.4123
 20
-50.1885
 11
-99.1075
 21
-49.967
  0
LINE
  8
0
 10
-99.1075
 20
-49.967
 11
-98.7773
 21
-49.7855
  0
LINE
  8
0
 10
-98.7773
 20
-49.7855
 11
-98.427
 21
-49.6468
  0
LINE
  8
0
 10
-98.427
 20
-49.6468
 11
-98.0621
 21
-49.5531
  0
LINE
  8
0
 10
-98.0621
 20
-49.5531
 11
-97.6884
 21
-49.5059
  0
LINE
  8
0
 10
-97.6884
 20
-49.5059
 11
-97.3116
 21
-49.5059
  0
LINE
  8
0
 10
-97.3116
 20
-49.5059
 11
-96.9379
 21
-49.5531
  0
LINE
  8
0
 10
-96.9379
 20
-49.5531
 11
-96.573
 21
-49.6468
  0
LINE
  8
0
 10
-96.573
 20
-49.6468
 11
-96.2227
 21
-49.7855
  0
LINE
  8
0
 10
-96.2227
 20
-49.7855
 11
-95.8925
 21
-49.967
  0
LINE
  8
0
 10
-95.8925
 20
-49.967
 11
-95.5877
 21
-50.1885
  0
LINE
  8
0
 10
-95.5877
 20
-50.1885
 11
-95.3131
 21
-50.4464
  0
LINE
  8
0
 10
-95.3131
 20
-50.4464
 11
-95.073
 21
-50.7366
  0
LINE
  8
0
 10
-95.073
 20
-50.7366
 11
-94.8711
 21
-51.0547
  0
LINE
  8
0
 10
-94.8711
 20
-51.0547
 11
-94.7107
 21
-51.3956
  0
LINE
  8
0
 10
-94.7107
 20
-51.3956
 11
-94.5943
 21
-51.7539
  0
LINE
  8
0
 10
-94.5943
 20
-51.7539
 11
-94.5237
 21
-52.124
  0
LINE
  8
0
 10
-94.5237
 20
-52.124
 11
-94.5
 21
-52.5
  0
LINE
  8
0
 10
-94.5
 20
-52.5
 11
-94.5237
 21
-52.876
  0
LINE
  8
0
 10
-94.5237
 20
-52.876
 11
-94.5943
 21
-53.2461
  0
LINE
  8
0
 10
-94.5943
 20
-53.2461
 11
-94.7107
 21
-53.6044
  0
LINE
  8
0
 10
-94.7107
 20
-53.6044
 11
-94.8711
 21
-53.9453
  0
LINE
  8
0
 10
-94.8711
 20
-53.9453
 11
-95.073
 21
-54.2634
  0
LINE
  8
0
 10
-95.073
 20
-54.2634
 11
-95.3131
 21
-54.5536
  0
LINE
  8
0
 10
-95.3131
 20
-54.5536
 11
-95.5877
 21
-54.8115
  0
LINE
  8
0
 10
-95.5877
 20
-54.8115
 11
-95.8925
 21
-55.033
  0
LINE
  8
0
 10
-95.8925
 20
-55.033
 11
-96.2227
 21
-55.2145
  0
LINE
  8
0
 10
-96.2227
 20
-55.2145
 11
-96.573
 21
-55.3532
  0
LINE
  8
0
 10
-96.573
 20
-55.3532
 11
-96.9379
 21
-55.4469
  0
LINE
  8
0
 10
-96.9379
 20
-55.4469
 11
-97.3116
 21
-55.4941
  0
LINE
  8
0
 10
-97.3116
 20
-55.4941
 11
-97.6884
 21
-55.4941
  0
LINE
  8
0
 10
97.3116
 20
-55.4941
 11
96.9379
 21
-55.4469
  0
LINE
  8
0
 10
96.9379
 20
-55.4469
 11
96.573
 21
-55.3532
  0
LINE
  8
0
 10
96.573
 20
-55.3532
 11
96.2227
 21
-55.2145
  0
LINE
  8
0
 10
96.2227
 20
-55.2145
 11
95.8925
 21
-55.033
  0
LINE
  8
0
 10
95.8925
 20
-55.033
 11
95.5877
 21
-54.8115
  0
LINE
  8
0
 10
95.5877
 20
-54.8115
 11
95.3131
 21
-54.5536
  0
LINE
  8
0
 10
95.3131
 20
-54.5536
 11
95.073
 21
-54.2634
  0
LINE
  8
0
 10
95.073
 20
-54.2634
 11
94.8711
 21
-53.9453
  0
LINE
  8
0
 10
94.8711
 20
-53.9453
 11
94.7107
 21
-53.6044
  0
LINE
  8
0
 10
94.7107
 20
-53.6044
 11
94.5943
 21
-53.2461
  0
LINE
  8
0
 10
94.5943
 20
-53.2461
 11
94.5237
 21
-52.876
  0
LINE
  8
0
 10
94.5237
 20
-52.876
 11
94.5
 21
-52.5
  0
LINE
  8
0
 10
94.5
 20
-52.5
 11
94.5237
 21
-52.124
  0
LINE
  8
0
 10
94.5237
 20
-52.124
 11
94.5943
 21
-51.7539
  0
LINE
  8
0
 10
94.5943
 20
-51.7539
 11
94.7107
 21
-51.3956
  0
LINE
  8
0
 10
94.7107
 20
-51.3956
 11
94.8711
 21
-51.0547
  0
LINE
  8
0
 10
94.8711
 20
-51.0547
 11
95.073
 21
-50.7366
  0
LINE
  8
0
 10
95.073
 20
-50.7366
 11
95.3131
 21
-50.4464
  0
LINE
  8
0
 10
95.3131
 20
-50.4464
 11
95.5877
 21
-50.1885
  0
LINE
  8
0
 10
95.5877
 20
-50.1885
 11
95.8925
 21
-49.967
  0
LINE
  8
0
 10
95.8925
 20
-49.967
 11
96.2227
 21
-49.7855
  0
LINE
  8
0
 10
96.2227
 20
-49.7855
 11
96.573
 21
-49.6468
  0
LINE
  8
0
 10
96.573
 20
-49.6468
 11
96.9379
 21
-49.5531
  0
LINE
  8
0
 10
96.9379
 20
-49.5531
 11
97.3116
 21
-49.5059
  0
LINE
  8
0
 10
97.3116
 20
-49.5059
 11
97.6884
 21
-49.5059
  0
LINE
  8
0
 10
97.6884
 20
-49.5059
 11
98.0621
 21
-49.5531
  0
LINE
  8
0
 10
98.0621
 20
-49.5531
 11
98.427
 21
-49.6468
  0
LINE
  8
0
 10
98.427
 20
-49.6468
 11
98.7773
 21
-49.7855
  0
LINE
  8
0
 10
98.7773
 20
-49.7855
 11
99.1075
 21
-49.967
  0
LINE
  8
0
 10
99.1075
 20
-49.967
 11
99.4123
 21
-50.1885
  0
LINE
  8
0
 10
99.4123
 20
-50.1885
 11
99.6869
 21
-50.4464
  0
LINE
  8
0
 10
99.6869
 20
-50.4464
 11
99.927
 21
-50.7366
  0
LINE
  8
0
 10
99.927
 20
-50.7366
 11
100.129
 21
-51.0547
  0
LINE
  8
0
 10
100.129
 20
-51.0547
 11
100.289
 21
-51.3956
  0
LINE
  8
0
 10
100.289
 20
-51.3956
 11
100.406
 21
-51.7539
  0
LINE
  8
0
 10
100.406
 20
-51.7539
 11
100.476
 21
-52.124
  0
LINE
  8
0
 10
100.476
 20
-52.124
 11
100.5
 21
-52.5
  0
LINE
  8
0
 10
100.5
 20
-52.5
 11
100.476
 21
-52.876
  0
LINE
  8
0
 10
100.476
 20
-52.876
 11
100.406
 21
-53.2461
  0
LINE
  8
0
 10
100.406
 20
-53.2461
 11
100.289
 21
-53.6044
  0
LINE
  8
0
 10
100.289
 20
-53.6044
 11
100.129
 21
-53.9453
  0
LINE
  8
0
 10
100.129
 20
-53.9453
 11
99.927
 21
-54.2634
  0
LINE
  8
0
 10
99.927
 20
-54.2634
 11
99.6869
 21
-54.5536
  0
LINE
  8
0
 10
99.6869
 20
-54.5536
 11
99.4123
 21
-54.8115
  0
LINE
  8
0
 10
99.4123
 20
-54.8115
 11
99.1075
 21
-55.033
  0
LINE
  8
0
 10
99.1075
 20
-55.033
 11
98.7773
 21
-55.2145
  0
LINE
  8
0
 10
98.7773
 20
-55.2145
 11
98.427
 21
-55.3532
  0
LINE
  8
0
 10
98.427
 20
-55.3532
 11
98.0621
 21
-55.4469
  0
LINE
  8
0
 10
98.0621
 20
-55.4469
 11
97.6884
 21
-55.4941
  0
LINE
  8
0
 10
97.6884
 20
-55.4941
 11
97.3116
 21
-55.4941
  0
LINE
  8
0
 10
-97.5942
 20
-61.497
 11
-97.7811
 21
-61.4734
  0
LINE
  8
0
 10
-97.7811
 20
-61.4734
 11
-97.9635
 21
-61.4266
  0
LINE
  8
0
 10
-97.9635
 20
-61.4266
 11
-98.1387
 21
-61.3572
  0
LINE
  8
0
 10
-98.1387
 20
-61.3572
 11
-98.3037
 21
-61.2665
  0
LINE
  8
0
 10
-98.3037
 20
-61.2665
 11
-98.4561
 21
-61.1558
  0
LINE
  8
0
 10
-98.4561
 20
-61.1558
 11
-98.5934
 21
-61.0268
  0
LINE
  8
0
 10
-98.5934
 20
-61.0268
 11
-98.7135
 21
-60.8817
  0
LINE
  8
0
 10
-98.7135
 20
-60.8817
 11
-98.8145
 21
-60.7226
  0
LINE
  8
0
 10
-98.8145
 20
-60.7226
 11
-98.8947
 21
-60.5522
  0
LINE
  8
0
 10
-98.8947
 20
-60.5522
 11
-98.9529
 21
-60.373
  0
LINE
  8
0
 10
-98.9529
 20
-60.373
 11
-98.9882
 21
-60.188
  0
LINE
  8
0
 10
-98.9882
 20
-60.188
 11
-99
 21
-60
  0
LINE
  8
0
 10
-99
 20
-60
 11
-98.9882
 21
-59.812
  0
LINE
  8
0
 10
-98.9882
 20
-59.812
 11
-98.9529
 21
-59.627
  0
LINE
  8
0
 10
-98.9529
 20
-59.627
 11
-98.8947
 21
-59.4478
  0
LINE
  8
0
 10
-98.8947
 20
-59.4478
 11
-98.8145
 21
-59.2774
  0
LINE
  8
0
 10
-98.8145
 20
-59.2774
 11
-98.7135
 21
-59.1183
  0
LINE
  8
0
 10
-98.7135
 20
-59.1183
 11
-98.5934
 21
-58.9732
  0
LINE
  8
0
 10
-98.5934
 20
-58.9732
 11
-98.4561
 21
-58.8442
  0
LINE
  8
0
 10
-98.4561
 20
-58.8442
 11
-98.3037
 21
-58.7335
  0
LINE
  8
0
 10
-98.3037
 20
-58.7335
 11
-98.1387
 21
-58.6428
  0
LINE
  8
0
 10
-98.1387
 20
-58.6428
 11
-97.9635
 21
-58.5734
  0
LINE
  8
0
 10
-97.9635
 20
-58.5734
 11
-97.7811
 21
-58.5266
  0
LINE
  8
0
 10
-97.7811
 20
-58.5266
 11
-97.5942
 21
-58.503
  0
LINE
  8
0
 10
-97.5942
 20
-58.503
 11
-97.4058
 21
-58.503
  0
LINE
  8
0
 10
-97.4058
 20
-58.503
 11
-97.2189
 21
-58.5266
  0
LINE
  8
0
 10
-97.2189
 20
-58.5266
 11
-97.0365
 21
-58.5734
  0
LINE
  8
0
 10
-97.0365
 20
-58.5734
 11
-96.8613
 21
-58.6428
  0
LINE
  8
0
 10
-96.8613
 20
-58.6428
 11
-96.6963
 21
-58.7335
  0
LINE
  8
0
 10
-96.6963
 20
-58.7335
 11
-96.5439
 21
-58.8442
  0
LINE
  8
0
 10
-96.5439
 20
-58.8442
 11
-96.4065
 21
-58.9732
  0
LINE
  8
0
 10
-96.4065
 20
-58.9732
 11
-96.2865
 21
-59.1183
  0
LINE
  8
0
 10
-96.2865
 20
-59.1183
 11
-96.1855
 21
-59.2774
  0
LINE
  8
0
 10
-96.1855
 20
-59.2774
 11
-96.1053
 21
-59.4478
  0
LINE
  8
0
 10
-96.1053
 20
-59.4478
 11
-96.0471
 21
-59.627
  0
LINE
  8
0
 10
-96.0471
 20
-59.627
 11
-96.0118
 21
-59.812
  0
LINE
  8
0
 10
-96.0118
 20
-59.812
 11
-96
 21
-60
  0
LINE
  8
0
 10
-96
 20
-60
 11
-96.0118
 21
-60.188
  0
LINE
  8
0
 10
-96.0118
 20
-60.188
 11
-96.0471
 21
-60.373
  0
LINE
  8
0
 10
-96.0471
 20
-60.373
 11
-96.1053
 21
-60.5522
  0
LINE
  8
0
 10
-96.1053
 20
-60.5522
 11
-96.1855
 21
-60.7226
  0
LINE
  8
0
 10
-96.1855
 20
-60.7226
 11
-96.2865
 21
-60.8817
  0
LINE
  8
0
 10
-96.2865
 20
-60.8817
 11
-96.4065
 21
-61.0268
  0
LINE
  8
0
 10
-96.4065
 20
-61.0268
 11
-96.5439
 21
-61.1558
  0
LINE
  8
0
 10
-96.5439
 20
-61.1558
 11
-96.6963
 21
-61.2665
  0
LINE
  8
0
 10
-96.6963
 20
-61.2665
 11
-96.8613
 21
-61.3572
  0
LINE
  8
0
 10
-96.8613
 20
-61.3572
 11
-97.0365
 21
-61.4266
  0
LINE
  8
0
 10
-97.0365
 20
-61.4266
 11
-97.2189
 21
-61.4734
  0
LINE
  8
0
 10
-97.2189
 20
-61.4734
 11
-97.4058
 21
-61.497
  0
LINE
  8
0
 10
-97.4058
 20
-61.497
 11
-97.5942
 21
-61.497
  0
LINE
  8
0
 10
97.4058
 20
-61.497
 11
97.2189
 21
-61.4734
  0
LINE
  8
0
 10
97.2189
 20
-61.4734
 11
97.0365
 21
-61.4266
  0
LINE
  8
0
 10
97.0365
 20
-61.4266
 11
96.8613
 21
-61.3572
  0
LINE
  8
0
 10
96.8613
 20
-61.3572
 11
96.6963
 21
-61.2665
  0
LINE
  8
0
 10
96.6963
 20
-61.2665
 11
96.5439
 21
-61.1558
  0
LINE
  8
0
 10
96.5439
 20
-61.1558
 11
96.4065
 21
-61.0268
  0
LINE
  8
0
 10
96.4065
 20
-61.0268
 11
96.2865
 21
-60.8817
  0
LINE
  8
0
 10
96.2865
 20
-60.8817
 11
96.1855
 21
-60.7226
  0
LINE
  8
0
 10
96.1855
 20
-60.7226
 11
96.1053
 21
-60.5522
  0
LINE
  8
0
 10
96.1053
 20
-60.5522
 11
96.0471
 21
-60.373
  0
LINE
  8
0
 10
96.0471
 20
-60.373
 11
96.0118
 21
-60.188
  0
LINE
  8
0
 10
96.0118
 20
-60.188
 11
96
 21
-60
  0
LINE
  8
0
 10
96
 20
-60
 11
96.0118
 21
-59.812
  0
LINE
  8
0
 10
96.0118
 20
-59.812
 11
96.0471
 21
-59.627
  0
LINE
  8
0
 10
96.0471
 20
-59.627
 11
96.1053
 21
-59.4478
  0
LINE
  8
0
 10
96.1053
 20
-59.4478
 11
96.1855
 21
-59.2774
  0
LINE
  8
0
 10
96.1855
 20
-59.2774
 11
96.2865
 21
-59.1183
  0
LINE
  8
0
 10
96.2865
 20
-59.1183
 11
96.4065
 21
-58.9732
  0
LINE
  8
0
 10
96.4065
 20
-58.9732
 11
96.5439
 21
-58.8442
  0
LINE
  8
0
 10
96.5439
 20
-58.8442
 11
96.6963
 21
-58.7335
  0
LINE
  8
0
 10
96.6963
 20
-58.7335
 11
96.8613
 21
-58.6428
  0
LINE
  8
0
 10
96.8613
 20
-58.6428
 11
97.0365
 21
-58.5734
  0
LINE
  8
0
 10
97.0365
 20
-58.5734
 11
97.2189
 21
-58.5266
  0
LINE
  8
0
 10
97.2189
 20
-58.5266
 11
97.4058
 21
-58.503
  0
LINE
  8
0
 10
97.4058
 20
-58.503
 11
97.5942
 21
-58.503
  0
LINE
  8
0
 10
97.5942
 20
-58.503
 11
97.7811
 21
-58.5266
  0
LINE
  8
0
 10
97.7811
 20
-58.5266
 11
97.9635
 21
-58.5734
  0
LINE
  8
0
 10
97.9635
 20
-58.5734
 11
98.1387
 21
-58.6428
  0
LINE
  8
0
 10
98.1387
 20
-58.6428
 11
98.3037
 21
-58.7335
  0
LINE
  8
0
 10
98.3037
 20
-58.7335
 11
98.4561
 21
-58.8442
  0
LINE
  8
0
 10
98.4561
 20
-58.8442
 11
98.5934
 21
-58.9732
  0
LINE
  8
0
 10
98.5934
 20
-58.9732
 11
98.7135
 21
-59.1183
  0
LINE
  8
0
 10
98.7135
 20
-59.1183
 11
98.8145
 21
-59.2774
  0
LINE
  8
0
 10
98.8145
 20
-59.2774
 11
98.8947
 21
-59.4478
  0
LINE
  8
0
 10
98.8947
 20
-59.4478
 11
98.9529
 21
-59.627
  0
LINE
  8
0
 10
98.9529
 20
-59.627
 11
98.9882
 21
-59.812
  0
LINE
  8
0
 10
98.9882
 20
-59.812
 11
99
 21
-60
  0
LINE
  8
0
 10
99
 20
-60
 11
98.9882
 21
-60.188
  0
LINE
  8
0
 10
98.9882
 20
-60.188
 11
98.9529
 21
-60.373
  0
LINE
  8
0
 10
98.9529
 20
-60.373
 11
98.8947
 21
-60.5522
  0
LINE
  8
0
 10
98.8947
 20
-60.5522
 11
98.8145
 21
-60.7226
  0
LINE
  8
0
 10
98.8145
 20
-60.7226
 11
98.7135
 21
-60.8817
  0
LINE
  8
0
 10
98.7135
 20
-60.8817
 11
98.5934
 21
-61.0268
  0
LINE
  8
0
 10
98.5934
 20
-61.0268
 11
98.4561
 21
-61.1558
  0
LINE
  8
0
 10
98.4561
 20
-61.1558
 11
98.3037
 21
-61.2665
  0
LINE
  8
0
 10
98.3037
 20
-61.2665
 11
98.1387
 21
-61.3572
  0
LINE
  8
0
 10
98.1387
 20
-61.3572
 11
97.9635
 21
-61.4266
  0
LINE
  8
0
 10
97.9635
 20
-61.4266
 11
97.7811
 21
-61.4734
  0
LINE
  8
0
 10
97.7811
 20
-61.4734
 11
97.5942
 21
-61.497
  0
LINE
  8
0
 10
97.5942
 20
-61.497
 11
97.4058
 21
-61.497
  0
LINE
  8
0
 10
94.5237
 20
-67.124
 11
94.5943
 21
-66.7539
  0
LINE
  8
0
 10
94.5943
 20
-66.7539
 11
94.7107
 21
-66.3956
  0
LINE
  8
0
 10
94.7107
 20
-66.3956
 11
94.8711
 21
-66.0547
  0
LINE
  8
0
 10
94.8711
 20
-66.0547
 11
95.073
 21
-65.7366
  0
LINE
  8
0
 10
95.073
 20
-65.7366
 11
95.3131
 21
-65.4464
  0
LINE
  8
0
 10
95.3131
 20
-65.4464
 11
95.5877
 21
-65.1885
  0
LINE
  8
0
 10
95.5877
 20
-65.1885
 11
95.8925
 21
-64.967
  0
LINE
  8
0
 10
95.8925
 20
-64.967
 11
96.2227
 21
-64.7855
  0
LINE
  8
0
 10
96.2227
 20
-64.7855
 11
96.573
 21
-64.6468
  0
LINE
  8
0
 10
96.573
 20
-64.6468
 11
96.9379
 21
-64.5531
  0
LINE
  8
0
 10
96.9379
 20
-64.5531
 11
97.3116
 21
-64.5059
  0
LINE
  8
0
 10
97.3116
 20
-64.5059
 11
97.6884
 21
-64.5059
  0
LINE
  8
0
 10
97.6884
 20
-64.5059
 11
98.0621
 21
-64.5531
  0
LINE
  8
0
 10
98.0621
 20
-64.5531
 11
98.427
 21
-64.6468
  0
LINE
  8
0
 10
98.427
 20
-64.6468
 11
98.7773
 21
-64.7855
  0
LINE
  8
0
 10
98.7773
 20
-64.7855
 11
99.1075
 21
-64.967
  0
LINE
  8
0
 10
99.1075
 20
-64.967
 11
99.4123
 21
-65.1885
  0
LINE
  8
0
 10
99.4123
 20
-65.1885
 11
99.6869
 21
-65.4464
  0
LINE
  8
0
 10
99.6869
 20
-65.4464
 11
99.927
 21
-65.7366
  0
LINE
  8
0
 10
99.927
 20
-65.7366
 11
100.129
 21
-66.0547
  0
LINE
  8
0
 10
100.129
 20
-66.0547
 11
100.289
 21
-66.3956
  0
LINE
  8
0
 10
100.289
 20
-66.3956
 11
100.406
 21
-66.7539
  0
LINE
  8
0
 10
100.406
 20
-66.7539
 11
100.476
 21
-67.124
  0
LINE
  8
0
 10
100.476
 20
-67.124
 11
100.5
 21
-67.5
  0
LINE
  8
0
 10
100.5
 20
-67.5
 11
100.476
 21
-67.876
  0
LINE
  8
0
 10
100.476
 20
-67.876
 11
100.406
 21
-68.2461
  0
LINE
  8
0
 10
100.406
 20
-68.2461
 11
100.289
 21
-68.6044
  0
LINE
  8
0
 10
100.289
 20
-68.6044
 11
100.129
 21
-68.9453
  0
LINE
  8
0
 10
100.129
 20
-68.9453
 11
99.927
 21
-69.2634
  0
LINE
  8
0
 10
99.927
 20
-69.2634
 11
99.6869
 21
-69.5536
  0
LINE
  8
0
 10
99.6869
 20
-69.5536
 11
99.4123
 21
-69.8115
  0
LINE
  8
0
 10
99.4123
 20
-69.8115
 11
99.1075
 21
-70.033
  0
LINE
  8
0
 10
99.1075
 20
-70.033
 11
98.7773
 21
-70.2145
  0
LINE
  8
0
 10
98.7773
 20
-70.2145
 11
98.427
 21
-70.3532
  0
LINE
  8
0
 10
98.427
 20
-70.3532
 11
98.0621
 21
-70.4469
  0
LINE
  8
0
 10
98.0621
 20
-70.4469
 11
97.6884
 21
-70.4941
  0
LINE
  8
0
 10
97.6884
 20
-70.4941
 11
97.3116
 21
-70.4941
  0
LINE
  8
0
 10
97.3116
 20
-70.4941
 11
96.9379
 21
-70.4469
  0
LINE
  8
0
 10
96.9379
 20
-70.4469
 11
96.573
 21
-70.3532
  0
LINE
  8
0
 10
96.573
 20
-70.3532
 11
96.2227
 21
-70.2145
  0
LINE
  8
0
 10
96.2227
 20
-70.2145
 11
95.8925
 21
-70.033
  0
LINE
  8
0
 10
95.8925
 20
-70.033
 11
95.5877
 21
-69.8115
  0
LINE
  8
0
 10
95.5877
 20
-69.8115
 11
95.3131
 21
-69.5536
  0
LINE
  8
0
 10
95.3131
 20
-69.5536
 11
95.073
 21
-69.2634
  0
LINE
  8
0
 10
95.073
 20
-69.2634
 11
94.8711
 21
-68.9453
  0
LINE
  8
0
 10
94.8711
 20
-68.9453
 11
94.7107
 21
-68.6044
  0
LINE
  8
0
 10
94.7107
 20
-68.6044
 11
94.5943
 21
-68.2461
  0
LINE
  8
0
 10
94.5943
 20
-68.2461
 11
94.5237
 21
-67.876
  0
LINE
  8
0
 10
94.5237
 20
-67.876
 11
94.5
 21
-67.5
  0
LINE
  8
0
 10
94.5
 20
-67.5
 11
94.5237
 21
-67.124
  0
LINE
  8
0
 10
-97.5942
 20
-76.497
 11
-97.7811
 21
-76.4734
  0
LINE
  8
0
 10
-97.7811
 20
-76.4734
 11
-97.9635
 21
-76.4266
  0
LINE
  8
0
 10
-97.9635
 20
-76.4266
 11
-98.1387
 21
-76.3572
  0
LINE
  8
0
 10
-98.1387
 20
-76.3572
 11
-98.3037
 21
-76.2665
  0
LINE
  8
0
 10
-98.3037
 20
-76.2665
 11
-98.4561
 21
-76.1558
  0
LINE
  8
0
 10
-98.4561
 20
-76.1558
 11
-98.5934
 21
-76.0268
  0
LINE
  8
0
 10
-98.5934
 20
-76.0268
 11
-98.7135
 21
-75.8817
  0
LINE
  8
0
 10
-98.7135
 20
-75.8817
 11
-98.8145
 21
-75.7226
  0
LINE
  8
0
 10
-98.8145
 20
-75.7226
 11
-98.8947
 21
-75.5522
  0
LINE
  8
0
 10
-98.8947
 20
-75.5522
 11
-98.9529
 21
-75.373
  0
LINE
  8
0
 10
-98.9529
 20
-75.373
 11
-98.9882
 21
-75.188
  0
LINE
  8
0
 10
-98.9882
 20
-75.188
 11
-99
 21
-75
  0
LINE
  8
0
 10
-99
 20
-75
 11
-98.9882
 21
-74.812
  0
LINE
  8
0
 10
-98.9882
 20
-74.812
 11
-98.9529
 21
-74.627
  0
LINE
  8
0
 10
-98.9529
 20
-74.627
 11
-98.8947
 21
-74.4478
  0
LINE
  8
0
 10
-98.8947
 20
-74.4478
 11
-98.8145
 21
-74.2774
  0
LINE
  8
0
 10
-98.8145
 20
-74.2774
 11
-98.7135
 21
-74.1183
  0
LINE
  8
0
 10
-98.7135
 20
-74.1183
 11
-98.5934
 21
-73.9732
  0
LINE
  8
0
 10
-98.5934
 20
-73.9732
 11
-98.4561
 21
-73.8442
  0
LINE
  8
0
 10
-98.4561
 20
-73.8442
 11
-98.3037
 21
-73.7335
  0
LINE
  8
0
 10
-98.3037
 20
-73.7335
 11
-98.1387
 21
-73.6428
  0
LINE
  8
0
 10
-98.1387
 20
-73.6428
 11
-97.9635
 21
-73.5734
  0
LINE
  8
0
 10
-97.9635
 20
-73.5734
 11
-97.7811
 21
-73.5266
  0
LINE
  8
0
 10
-97.7811
 20
-73.5266
 11
-97.5942
 21
-73.503
  0
LINE
  8
0
 10
-97.5942
 20
-73.503
 11
-97.4058
 21
-73.503
  0
LINE
  8
0
 10
-97.4058
 20
-73.503
 11
-97.2189
 21
-73.5266
  0
LINE
  8
0
 10
-97.2189
 20
-73.5266
 11
-97.0365
 21
-73.5734
  0
LINE
  8
0
 10
-97.0365
 20
-73.5734
 11
-96.8613
 21
-73.6428
  0
LINE
  8
0
 10
-96.8613
 20
-73.6428
 11
-96.6963
 21
-73.7335
  0
LINE
  8
0
 10
-96.6963
 20
-73.7335
 11
-96.5439
 21
-73.8442
  0
LINE
  8
0
 10
-96.5439
 20
-73.8442
 11
-96.4065
 21
-73.9732
  0
LINE
  8
0
 10
-96.4065
 20
-73.9732
 11
-96.2865
 21
-74.1183
  0
LINE
  8
0
 10
-96.2865
 20
-74.1183
 11
-96.1855
 21
-74.2774
  0
LINE
  8
0
 10
-96.1855
 20
-74.2774
 11
-96.1053
 21
-74.4478
  0
LINE
  8
0
 10
-96.1053
 20
-74.4478
 11
-96.0471
 21
-74.627
  0
LINE
  8
0
 10
-96.0471
 20
-74.627
 11
-96.0118
 21
-74.812
  0
LINE
  8
0
 10
-96.0118
 20
-74.812
 11
-96
 21
-75
  0
LINE
  8
0
 10
-96
 20
-75
 11
-96.0118
 21
-75.188
  0
LINE
  8
0
 10
-96.0118
 20
-75.188
 11
-96.0471
 21
-75.373
  0
LINE
  8
0
 10
-96.0471
 20
-75.373
 11
-96.1053
 21
-75.5522
  0
LINE
  8
0
 10
-96.1053
 20
-75.5522
 11
-96.1855
 21
-75.7226
  0
LINE
  8
0
 10
-96.1855
 20
-75.7226
 11
-96.2865
 21
-75.8817
  0
LINE
  8
0
 10
-96.2865
 20
-75.8817
 11
-96.4065
 21
-76.0268
  0
LINE
  8
0
 10
-96.4065
 20
-76.0268
 11
-96.5439
 21
-76.1558
  0
LINE
  8
0
 10
-96.5439
 20
-76.1558
 11
-96.6963
 21
-76.2665
  0
LINE
  8
0
 10
-96.6963
 20
-76.2665
 11
-96.8613
 21
-76.3572
  0
LINE
  8
0
 10
-96.8613
 20
-76.3572
 11
-97.0365
 21
-76.4266
  0
LINE
  8
0
 10
-97.0365
 20
-76.4266
 11
-97.2189
 21
-76.4734
  0
LINE
  8
0
 10
-97.2189
 20
-76.4734
 11
-97.4058
 21
-76.497
  0
LINE
  8
0
 10
-97.4058
 20
-76.497
 11
-97.5942
 21
-76.497
  0
LINE
  8
0
 10
97.4058
 20
-76.497
 11
97.2189
 21
-76.4734
  0
LINE
  8
0
 10
97.2189
 20
-76.4734
 11
97.0365
 21
-76.4266
  0
LINE
  8
0
 10
97.0365
 20
-76.4266
 11
96.8613
 21
-76.3572
  0
LINE
  8
0
 10
96.8613
 20
-76.3572
 11
96.6963
 21
-76.2665
  0
LINE
  8
0
 10
96.6963
 20
-76.2665
 11
96.5439
 21
-76.1558
  0
LINE
  8
0
 10
96.5439
 20
-76.1558
 11
96.4065
 21
-76.0268
  0
LINE
  8
0
 10
96.4065
 20
-76.0268
 11
96.2865
 21
-75.8817
  0
LINE
  8
0
 10
96.2865
 20
-75.8817
 11
96.1855
 21
-75.7226
  0
LINE
  8
0
 10
96.1855
 20
-75.7226
 11
96.1053
 21
-75.5522
  0
LINE
  8
0
 10
96.1053
 20
-75.5522
 11
96.0471
 21
-75.373
  0
LINE
  8
0
 10
96.0471
 20
-75.373
 11
96.0118
 21
-75.188
  0
LINE
  8
0
 10
96.0118
 20
-75.188
 11
96
 21
-75
  0
LINE
  8
0
 10
96
 20
-75
 11
96.0118
 21
-74.812
  0
LINE
  8
0
 10
96.0118
 20
-74.812
 11
96.0471
 21
-74.627
  0
LINE
  8
0
 10
96.0471
 20
-74.627
 11
96.1053
 21
-74.4478
  0
LINE
  8
0
 10
96.1053
 20
-74.4478
 11
96.1855
 21
-74.2774
  0
LINE
  8
0
 10
96.1855
 20
-74.2774
 11
96.2865
 21
-74.1183
  0
LINE
  8
0
 10
96.2865
 20
-74.1183
 11
96.4065
 21
-73.9732
  0
LINE
  8
0
 10
96.4065
 20
-73.9732
 11
96.5439
 21
-73.8442
  0
LINE
  8
0
 10
96.5439
 20
-73.8442
 11
96.6963
 21
-73.7335
  0
LINE
  8
0
 10
96.6963
 20
-73.7335
 11
96.8613
 21
-73.6428
  0
LINE
  8
0
 10
96.8613
 20
-73.6428
 11
97.0365
 21
-73.5734
  0
LINE
  8
0
 10
97.0365
 20
-73.5734
 11
97.2189
 21
-73.5266
  0
LINE
  8
0
 10
97.2189
 20
-73.5266
 11
97.4058
 21
-73.503
  0
LINE
  8
0
 10
97.4058
 20
-73.503
 11
97.5942
 21
-73.503
  0
LINE
  8
0
 10
97.5942
 20
-73.503
 11
97.7811
 21
-73.5266
  0
LINE
  8
0
 10
97.7811
 20
-73.5266
 11
97.9635
 21
-73.5734
  0
LINE
  8
0
 10
97.9635
 20
-73.5734
 11
98.1387
 21
-73.6428
  0
LINE
  8
0
 10
98.1387
 20
-73.6428
 11
98.3037
 21
-73.7335
  0
LINE
  8
0
 10
98.3037
 20
-73.7335
 11
98.4561
 21
-73.8442
  0
LINE
  8
0
 10
98.4561
 20
-73.8442
 11
98.5934
 21
-73.9732
  0
LINE
  8
0
 10
98.5934
 20
-73.9732
 11
98.7135
 21
-74.1183
  0
LINE
  8
0
 10
98.7135
 20
-74.1183
 11
98.8145
 21
-74.2774
  0
LINE
  8
0
 10
98.8145
 20
-74.2774
 11
98.8947
 21
-74.4478
  0
LINE
  8
0
 10
98.8947
 20
-74.4478
 11
98.9529
 21
-74.627
  0
LINE
  8
0
 10
98.9529
 20
-74.627
 11
98.9882
 21
-74.812
  0
LINE
  8
0
 10
98.9882
 20
-74.812
 11
99
 21
-75
  0
LINE
  8
0
 10
99
 20
-75
 11
98.9882
 21
-75.188
  0
LINE
  8
0
 10
98.9882
 20
-75.188
 11
98.9529
 21
-75.373
  0
LINE
  8
0
 10
98.9529
 20
-75.373
 11
98.8947
 21
-75.5522
  0
LINE
  8
0
 10
98.8947
 20
-75.5522
 11
98.8145
 21
-75.7226
  0
LINE
  8
0
 10
98.8145
 20
-75.7226
 11
98.7135
 21
-75.8817
  0
LINE
  8
0
 10
98.7135
 20
-75.8817
 11
98.5934
 21
-76.0268
  0
LINE
  8
0
 10
98.5934
 20
-76.0268
 11
98.4561
 21
-76.1558
  0
LINE
  8
0
 10
98.4561
 20
-76.1558
 11
98.3037
 21
-76.2665
  0
LINE
  8
0
 10
98.3037
 20
-76.2665
 11
98.1387
 21
-76.3572
  0
LINE
  8
0
 10
98.1387
 20
-76.3572
 11
97.9635
 21
-76.4266
  0
LINE
  8
0
 10
97.9635
 20
-76.4266
 11
97.7811
 21
-76.4734
  0
LINE
  8
0
 10
97.7811
 20
-76.4734
 11
97.5942
 21
-76.497
  0
LINE
  8
0
 10
97.5942
 20
-76.497
 11
97.4058
 21
-76.497
  0
LINE
  8
0
 10
94.7107
 20
-81.3956
 11
94.8711
 21
-81.0547
  0
LINE
  8
0
 10
94.8711
 20
-81.0547
 11
95.073
 21
-80.7366
  0
LINE
  8
0
 10
95.073
 20
-80.7366
 11
95.3131
 21
-80.4464
  0
LINE
  8
0
 10
95.3131
 20
-80.4464
 11
95.5877
 21
-80.1885
  0
LINE
  8
0
 10
95.5877
 20
-80.1885
 11
95.8925
 21
-79.967
  0
LINE
  8
0
 10
95.8925
 20
-79.967
 11
96.2227
 21
-79.7855
  0
LINE
  8
0
 10
96.2227
 20
-79.7855
 11
96.573
 21
-79.6468
  0
LINE
  8
0
 10
96.573
 20
-79.6468
 11
96.9379
 21
-79.5531
  0
LINE
  8
0
 10
96.9379
 20
-79.5531
 11
97.3116
 21
-79.5059
  0
LINE
  8
0
 10
97.3116
 20
-79.5059
 11
97.6884
 21
-79.5059
  0
LINE
  8
0
 10
97.6884
 20
-79.5059
 11
98.0621
 21
-79.5531
  0
LINE
  8
0
 10
98.0621
 20
-79.5531
 11
98.427
 21
-79.6468
  0
LINE
  8
0
 10
98.427
 20
-79.6468
 11
98.7773
 21
-79.7855
  0
LINE
  8
0
 10
98.7773
 20
-79.7855
 11
99.1075
 21
-79.967
  0
LINE
  8
0
 10
99.1075
 20
-79.967
 11
99.4123
 21
-80.1885
  0
LINE
  8
0
 10
99.4123
 20
-80.1885
 11
99.6869
 21
-80.4464
  0
LINE
  8
0
 10
99.6869
 20
-80.4464
 11
99.927
 21
-80.7366
  0
LINE
  8
0
 10
99.927
 20
-80.7366
 11
100.129
 21
-81.0547
  0
LINE
  8
0
 10
100.129
 20
-81.0547
 11
100.289
 21
-81.3956
  0
LINE
  8
0
 10
100.289
 20
-81.3956
 11
100.406
 21
-81.7539
  0
LINE
  8
0
 10
100.406
 20
-81.7539
 11
100.476
 21
-82.124
  0
LINE
  8
0
 10
100.476
 20
-82.124
 11
100.5
 21
-82.5
  0
LINE
  8
0
 10
100.5
 20
-82.5
 11
100.476
 21
-82.876
  0
LINE
  8
0
 10
100.476
 20
-82.876
 11
100.406
 21
-83.2461
  0
LINE
  8
0
 10
100.406
 20
-83.2461
 11
100.289
 21
-83.6044
  0
LINE
  8
0
 10
100.289
 20
-83.6044
 11
100.129
 21
-83.9453
  0
LINE
  8
0
 10
100.129
 20
-83.9453
 11
99.927
 21
-84.2634
  0
LINE
  8
0
 10
99.927
 20
-84.2634
 11
99.6869
 21
-84.5536
  0
LINE
  8
0
 10
99.6869
 20
-84.5536
 11
99.4123
 21
-84.8115
  0
LINE
  8
0
 10
99.4123
 20
-84.8115
 11
99.1075
 21
-85.033
  0
LINE
  8
0
 10
99.1075
 20
-85.033
 11
98.7773
 21
-85.2145
  0
LINE
  8
0
 10
98.7773
 20
-85.2145
 11
98.427
 21
-85.3532
  0
LINE
  8
0
 10
98.427
 20
-85.3532
 11
98.0621
 21
-85.4469
  0
LINE
  8
0
 10
98.0621
 20
-85.4469
 11
97.6884
 21
-85.4941
  0
LINE
  8
0
 10
97.6884
 20
-85.4941
 11
97.3116
 21
-85.4941
  0
LINE
  8
0
 10
97.3116
 20
-85.4941
 11
96.9379
 21
-85.4469
  0
LINE
  8
0
 10
96.9379
 20
-85.4469
 11
96.573
 21
-85.3532
  0
LINE
  8
0
 10
96.573
 20
-85.3532
 11
96.2227
 21
-85.2145
  0
LINE
  8
0
 10
96.2227
 20
-85.2145
 11
95.8925
 21
-85.033
  0
LINE
  8
0
 10
95.8925
 20
-85.033
 11
95.5877
 21
-84.8115
  0
LINE
  8
0
 10
95.5877
 20
-84.8115
 11
95.3131
 21
-84.5536
  0
LINE
  8
0
 10
95.3131
 20
-84.5536
 11
95.073
 21
-84.2634
  0
LINE
  8
0
 10
95.073
 20
-84.2634
 11
94.8711
 21
-83.9453
  0
LINE
  8
0
 10
94.8711
 20
-83.9453
 11
94.7107
 21
-83.6044
  0
LINE
  8
0
 10
94.7107
 20
-83.6044
 11
94.5943
 21
-83.2461
  0
LINE
  8
0
 10
94.5943
 20
-83.2461
 11
94.5237
 21
-82.876
  0
LINE
  8
0
 10
94.5237
 20
-82.876
 11
94.5
 21
-82.5
  0
LINE
  8
0
 10
94.5
 20
-82.5
 11
94.5237
 21
-82.124
  0
LINE
  8
0
 10
94.5237
 20
-82.124
 11
94.5943
 21
-81.7539
  0
LINE
  8
0
 10
94.5943
 20
-81.7539
 11
94.7107
 21
-81.3956
  0
LINE
  8
0
 10
-97.5942
 20
-91.497
 11
-97.7811
 21
-91.4734
  0
LINE
  8
0
 10
-97.7811
 20
-91.4734
 11
-97.9635
 21
-91.4266
  0
LINE
  8
0
 10
-97.9635
 20
-91.4266
 11
-98.1387
 21
-91.3572
  0
LINE
  8
0
 10
-98.1387
 20
-91.3572
 11
-98.3037
 21
-91.2665
  0
LINE
  8
0
 10
-98.3037
 20
-91.2665
 11
-98.4561
 21
-91.1558
  0
LINE
  8
0
 10
-98.4561
 20
-91.1558
 11
-98.5934
 21
-91.0268
  0
LINE
  8
0
 10
-98.5934
 20
-91.0268
 11
-98.7135
 21
-90.8817
  0
LINE
  8
0
 10
-98.7135
 20
-90.8817
 11
-98.8145
 21
-90.7226
  0
LINE
  8
0
 10
-98.8145
 20
-90.7226
 11
-98.8947
 21
-90.5522
  0
LINE
  8
0
 10
-98.8947
 20
-90.5522
 11
-98.9529
 21
-90.373
  0
LINE
  8
0
 10
-98.9529
 20
-90.373
 11
-98.9882
 21
-90.188
  0
LINE
  8
0
 10
-98.9882
 20
-90.188
 11
-99
 21
-90
  0
LINE
  8
0
 10
-99
 20
-90
 11
-98.9882
 21
-89.812
  0
LINE
  8
0
 10
-98.9882
 20
-89.812
 11
-98.9529
 21
-89.627
  0
LINE
  8
0
 10
-98.9529
 20
-89.627
 11
-98.8947
 21
-89.4478
  0
LINE
  8
0
 10
-98.8947
 20
-89.4478
 11
-98.8145
 21
-89.2774
  0
LINE
  8
0
 10
-98.8145
 20
-89.2774
 11
-98.7135
 21
-89.1183
  0
LINE
  8
0
 10
-98.7135
 20
-89.1183
 11
-98.5934
 21
-88.9732
  0
LINE
  8
0
 10
-98.5934
 20
-88.9732
 11
-98.4561
 21
-88.8442
  0
LINE
  8
0
 10
-98.4561
 20
-88.8442
 11
-98.3037
 21
-88.7335
  0
LINE
  8
0
 10
-98.3037
 20
-88.7335
 11
-98.1387
 21
-88.6428
  0
LINE
  8
0
 10
-98.1387
 20
-88.6428
 11
-97.9635
 21
-88.5734
  0
LINE
  8
0
 10
-97.9635
 20
-88.5734
 11
-97.7811
 21
-88.5266
  0
LINE
  8
0
 10
-97.7811
 20
-88.5266
 11
-97.5942
 21
-88.503
  0
LINE
  8
0
 10
-97.5942
 20
-88.503
 11
-97.4058
 21
-88.503
  0
LINE
  8
0
 10
-97.4058
 20
-88.503
 11
-97.2189
 21
-88.5266
  0
LINE
  8
0
 10
-97.2189
 20
-88.5266
 11
-97.0365
 21
-88.5734
  0
LINE
  8
0
 10
-97.0365
 20
-88.5734
 11
-96.8613
 21
-88.6428
  0
LINE
  8
0
 10
-96.8613
 20
-88.6428
 11
-96.6963
 21
-88.7335
  0
LINE
  8
0
 10
-96.6963
 20
-88.7335
 11
-96.5439
 21
-88.8442
  0
LINE
  8
0
 10
-96.5439
 20
-88.8442
 11
-96.4065
 21
-88.9732
  0
LINE
  8
0
 10
-96.4065
 20
-88.9732
 11
-96.2865
 21
-89.1183
  0
LINE
  8
0
 10
-96.2865
 20
-89.1183
 11
-96.1855
 21
-89.2774
  0
LINE
  8
0
 10
-96.1855
 20
-89.2774
 11
-96.1053
 21
-89.4478
  0
LINE
  8
0
 10
-96.1053
 20
-89.4478
 11
-96.0471
 21
-89.627
  0
LINE
  8
0
 10
-96.0471
 20
-89.627
 11
-96.0118
 21
-89.812
  0
LINE
  8
0
 10
-96.0118
 20
-89.812
 11
-96
 21
-90
  0
LINE
  8
0
 10
-96
 20
-90
 11
-96.0118
 21
-90.188
  0
LINE
  8
0
 10
-96.0118
 20
-90.188
 11
-96.0471
 21
-90.373
  0
LINE
  8
0
 10
-96.0471
 20
-90.373
 11
-96.1053
 21
-90.5522
  0
LINE
  8
0
 10
-96.1053
 20
-90.5522
 11
-96.1855
 21
-90.7226
  0
LINE
  8
0
 10
-96.1855
 20
-90.7226
 11
-96.2865
 21
-90.8817
  0
LINE
  8
0
 10
-96.2865
 20
-90.8817
 11
-96.4065
 21
-91.0268
  0
LINE
  8
0
 10
-96.4065
 20
-91.0268
 11
-96.5439
 21
-91.1558
  0
LINE
  8
0
 10
-96.5439
 20
-91.1558
 11
-96.6963
 21
-91.2665
  0
LINE
  8
0
 10
-96.6963
 20
-91.2665
 11
-96.8613
 21
-91.3572
  0
LINE
  8
0
 10
-96.8613
 20
-91.3572
 11
-97.0365
 21
-91.4266
  0
LINE
  8
0
 10
-97.0365
 20
-91.4266
 11
-97.2189
 21
-91.4734
  0
LINE
  8
0
 10
-97.2189
 20
-91.4734
 11
-97.4058
 21
-91.497
  0
LINE
  8
0
 10
-97.4058
 20
-91.497
 11
-97.5942
 21
-91.497
  0
LINE
  8
0
 10
97.4058
 20
-91.497
 11
97.2189
 21
-91.4734
  0
LINE
  8
0
 10
97.2189
 20
-91.4734
 11
97.0365
 21
-91.4266
  0
LINE
  8
0
 10
97.0365
 20
-91.4266
 11
96.8613
 21
-91.3572
  0
LINE
  8
0
 10
96.8613
 20
-91.3572
 11
96.6963
 21
-91.2665
  0
LINE
  8
0
 10
96.6963
 20
-91.2665
 11
96.5439
 21
-91.1558
  0
LINE
  8
0
 10
96.5439
 20
-91.1558
 11
96.4065
 21
-91.0268
  0
LINE
  8
0
 10
96.4065
 20
-91.0268
 11
96.2865
 21
-90.8817
  0
LINE
  8
0
 10
96.2865
 20
-90.8817
 11
96.1855
 21
-90.7226
  0
LINE
  8
0
 10
96.1855
 20
-90.7226
 11
96.1053
 21
-90.5522
  0
LINE
  8
0
 10
96.1053
 20
-90.5522
 11
96.0471
 21
-90.373
  0
LINE
  8
0
 10
96.0471
 20
-90.373
 11
96.0118
 21
-90.188
  0
LINE
  8
0
 10
96.0118
 20
-90.188
 11
96
 21
-90
  0
LINE
  8
0
 10
96
 20
-90
 11
96.0118
 21
-89.812
  0
LINE
  8
0
 10
96.0118
 20
-89.812
 11
96.0471
 21
-89.627
  0
LINE
  8
0
 10
96.0471
 20
-89.627
 11
96.1053
 21
-89.4478
  0
LINE
  8
0
 10
96.1053
 20
-89.4478
 11
96.1855
 21
-89.2774
  0
LINE
  8
0
 10
96.1855
 20
-89.2774
 11
96.2865
 21
-89.1183
  0
LINE
  8
0
 10
96.2865
 20
-89.1183
 11
96.4065
 21
-88.9732
  0
LINE
  8
0
 10
96.4065
 20
-88.9732
 11
96.5439
 21
-88.8442
  0
LINE
  8
0
 10
96.5439
 20
-88.8442
 11
96.6963
 21
-88.7335
  0
LINE
  8
0
 10
96.6963
 20
-88.7335
 11
96.8613
 21
-88.6428
  0
LINE
  8
0
 10
96.8613
 20
-88.6428
 11
97.0365
 21
-88.5734
  0
LINE
  8
0
 10
97.0365
 20
-88.5734
 11
97.2189
 21
-88.5266
  0
LINE
  8
0
 10
97.2189
 20
-88.5266
 11
97.4058
 21
-88.503
  0
LINE
  8
0
 10
97.4058
 20
-88.503
 11
97.5942
 21
-88.503
  0
LINE
  8
0
 10
97.5942
 20
-88.503
 11
97.7811
 21
-88.5266
  0
LINE
  8
0
 10
97.7811
 20
-88.5266
 11
97.9635
 21
-88.5734
  0
LINE
  8
0
 10
97.9635
 20
-88.5734
 11
98.1387
 21
-88.6428
  0
LINE
  8
0
 10
98.1387
 20
-88.6428
 11
98.3037
 21
-88.7335
  0
LINE
  8
0
 10
98.3037
 20
-88.7335
 11
98.4561
 21
-88.8442
  0
LINE
  8
0
 10
98.4561
 20
-88.8442
 11
98.5934
 21
-88.9732
  0
LINE
  8
0
 10
98.5934
 20
-88.9732
 11
98.7135
 21
-89.1183
  0
LINE
  8
0
 10
98.7135
 20
-89.1183
 11
98.8145
 21
-89.2774
  0
LINE
  8
0
 10
98.8145
 20
-89.2774
 11
98.8947
 21
-89.4478
  0
LINE
  8
0
 10
98.8947
 20
-89.4478
 11
98.9529
 21
-89.627
  0
LINE
  8
0
 10
98.9529
 20
-89.627
 11
98.9882
 21
-89.812
  0
LINE
  8
0
 10
98.9882
 20
-89.812
 11
99
 21
-90
  0
LINE
  8
0
 10
99
 20
-90
 11
98.9882
 21
-90.188
  0
LINE
  8
0
 10
98.9882
 20
-90.188
 11
98.9529
 21
-90.373
  0
LINE
  8
0
 10
98.9529
 20
-90.373
 11
98.8947
 21
-90.5522
  0
LINE
  8
0
 10
98.8947
 20
-90.5522
 11
98.8145
 21
-90.7226
  0
LINE
  8
0
 10
98.8145
 20
-90.7226
 11
98.7135
 21
-90.8817
  0
LINE
  8
0
 10
98.7135
 20
-90.8817
 11
98.5934
 21
-91.0268
  0
LINE
  8
0
 10
98.5934
 20
-91.0268
 11
98.4561
 21
-91.1558
  0
LINE
  8
0
 10
98.4561
 20
-91.1558
 11
98.3037
 21
-91.2665
  0
LINE
  8
0
 10
98.3037
 20
-91.2665
 11
98.1387
 21
-91.3572
  0
LINE
  8
0
 10
98.1387
 20
-91.3572
 11
97.9635
 21
-91.4266
  0
LINE
  8
0
 10
97.9635
 20
-91.4266
 11
97.7811
 21
-91.4734
  0
LINE
  8
0
 10
97.7811
 20
-91.4734
 11
97.5942
 21
-91.497
  0
LINE
  8
0
 10
97.5942
 20
-91.497
 11
97.4058
 21
-91.497
  0
LINE
  8
0
 10
-97.6884
 20
-100.494
 11
-98.0621
 21
-100.447
  0
LINE
  8
0
 10
-98.0621
 20
-100.447
 11
-98.427
 21
-100.353
  0
LINE
  8
0
 10
-98.427
 20
-100.353
 11
-98.7773
 21
-100.214
  0
LINE
  8
0
 10
-98.7773
 20
-100.214
 11
-99.1075
 21
-100.033
  0
LINE
  8
0
 10
-99.1075
 20
-100.033
 11
-99.4123
 21
-99.8115
  0
LINE
  8
0
 10
-99.4123
 20
-99.8115
 11
-99.6869
 21
-99.5536
  0
LINE
  8
0
 10
-99.6869
 20
-99.5536
 11
-99.927
 21
-99.2634
  0
LINE
  8
0
 10
-99.927
 20
-99.2634
 11
-100.129
 21
-98.9453
  0
LINE
  8
0
 10
-100.129
 20
-98.9453
 11
-100.289
 21
-98.6044
  0
LINE
  8
0
 10
-100.289
 20
-98.6044
 11
-100.406
 21
-98.2461
  0
LINE
  8
0
 10
-100.406
 20
-98.2461
 11
-100.476
 21
-97.876
  0
LINE
  8
0
 10
-100.476
 20
-97.876
 11
-100.5
 21
-97.5
  0
LINE
  8
0
 10
-100.5
 20
-97.5
 11
-100.476
 21
-97.124
  0
LINE
  8
0
 10
-100.476
 20
-97.124
 11
-100.406
 21
-96.7539
  0
LINE
  8
0
 10
-100.406
 20
-96.7539
 11
-100.289
 21
-96.3956
  0
LINE
  8
0
 10
-100.289
 20
-96.3956
 11
-100.129
 21
-96.0547
  0
LINE
  8
0
 10
-100.129
 20
-96.0547
 11
-99.927
 21
-95.7366
  0
LINE
  8
0
 10
-99.927
 20
-95.7366
 11
-99.6869
 21
-95.4464
  0
LINE
  8
0
 10
-99.6869
 20
-95.4464
 11
-99.4123
 21
-95.1885
  0
LINE
  8
0
 10
-99.4123
 20
-95.1885
 11
-99.1075
 21
-94.967
  0
LINE
  8
0
 10
-99.1075
 20
-94.967
 11
-98.7773
 21
-94.7855
  0
LINE
  8
0
 10
-98.7773
 20
-94.7855
 11
-98.427
 21
-94.6468
  0
LINE
  8
0
 10
-98.427
 20
-94.6468
 11
-98.0621
 21
-94.5531
  0
LINE
  8
0
 10
-98.0621
 20
-94.5531
 11
-97.6884
 21
-94.5059
  0
LINE
  8
0
 10
-97.6884
 20
-94.5059
 11
-97.3116
 21
-94.5059
  0
LINE
  8
0
 10
-97.3116
 20
-94.5059
 11
-96.9379
 21
-94.5531
  0
LINE
  8
0
 10
-96.9379
 20
-94.5531
 11
-96.573
 21
-94.6468
  0
LINE
  8
0
 10
-96.573
 20
-94.6468
 11
-96.2227
 21
-94.7855
  0
LINE
  8
0
 10
-96.2227
 20
-94.7855
 11
-95.8925
 21
-94.967
  0
LINE
  8
0
 10
-95.8925
 20
-94.967
 11
-95.5877
 21
-95.1885
  0
LINE
  8
0
 10
-95.5877
 20
-95.1885
 11
-95.3131
 21
-95.4464
  0
LINE
  8
0
 10
-95.3131
 20
-95.4464
 11
-95.073
 21
-95.7366
  0
LINE
  8
0
 10
-95.073
 20
-95.7366
 11
-94.8711
 21
-96.0547
  0
LINE
  8
0
 10
-94.8711
 20
-96.0547
 11
-94.7107
 21
-96.3956
  0
LINE
  8
0
 10
-94.7107
 20
-96.3956
 11
-94.5943
 21
-96.7539
  0
LINE
  8
0
 10
-94.5943
 20
-96.7539
 11
-94.5237
 21
-97.124
  0
LINE
  8
0
 10
-94.5237
 20
-97.124
 11
-94.5
 21
-97.5
  0
LINE
  8
0
 10
-94.5
 20
-97.5
 11
-94.5237
 21
-97.876
  0
LINE
  8
0
 10
-94.5237
 20
-97.876
 11
-94.5943
 21
-98.2461
  0
LINE
  8
0
 10
-94.5943
 20
-98.2461
 11
-94.7107
 21
-98.6044
  0
LINE
  8
0
 10
-94.7107
 20
-98.6044
 11
-94.8711
 21
-98.9453
  0
LINE
  8
0
 10
-94.8711
 20
-98.9453
 11
-95.073
 21
-99.2634
  0
LINE
  8
0
 10
-95.073
 20
-99.2634
 11
-95.3131
 21
-99.5536
  0
LINE
  8
0
 10
-95.3131
 20
-99.5536
 11
-95.5877
 21
-99.8115
  0
LINE
  8
0
 10
-95.5877
 20
-99.8115
 11
-95.8925
 21
-100.033
  0
LINE
  8
0
 10
-95.8925
 20
-100.033
 11
-96.2227
 21
-100.214
  0
LINE
  8
0
 10
-96.2227
 20
-100.214
 11
-96.573
 21
-100.353
  0
LINE
  8
0
 10
-96.573
 20
-100.353
 11
-96.9379
 21
-100.447
  0
LINE
  8
0
 10
-96.9379
 20
-100.447
 11
-97.3116
 21
-100.494
  0
LINE
  8
0
 10
-97.3116
 20
-100.494
 11
-97.6884
 21
-100.494
  0
LINE
  8
0
 10
97.3116
 20
-100.494
 11
96.9379
 21
-100.447
  0
LINE
  8
0
 10
96.9379
 20
-100.447
 11
96.573
 21
-100.353
  0
LINE
  8
0
 10
96.573
 20
-100.353
 11
96.2227
 21
-100.214
  0
LINE
  8
0
 10
96.2227
 20
-100.214
 11
95.8925
 21
-100.033
  0
LINE
  8
0
 10
95.8925
 20
-100.033
 11
95.5877
 21
-99.8115
  0
LINE
  8
0
 10
95.5877
 20
-99.8115
 11
95.3131
 21
-99.5536
  0
LINE
  8
0
 10
95.3131
 20
-99.5536
 11
95.073
 21
-99.2634
  0
LINE
  8
0
 10
95.073
 20
-99.2634
 11
94.8711
 21
-98.9453
  0
LINE
  8
0
 10
94.8711
 20
-98.9453
 11
94.7107
 21
-98.6044
  0
LINE
  8
0
 10
94.7107
 20
-98.6044
 11
94.5943
 21
-98.2461
  0
LINE
  8
0
 10
94.5943
 20
-98.2461
 11
94.5237
 21
-97.876
  0
LINE
  8
0
 10
94.5237
 20
-97.876
 11
94.5
 21
-97.5
  0
LINE
  8
0
 10
94.5
 20
-97.5
 11
94.5237
 21
-97.124
  0
LINE
  8
0
 10
94.5237
 20
-97.124
 11
94.5943
 21
-96.7539
  0
LINE
  8
0
 10
94.5943
 20
-96.7539
 11
94.7107
 21
-96.3956
  0
LINE
  8
0
 10
94.7107
 20
-96.3956
 11
94.8711
 21
-96.0547
  0
LINE
  8
0
 10
94.8711
 20
-96.0547
 11
95.073
 21
-95.7366
  0
LINE
  8
0
 10
95.073
 20
-95.7366
 11
95.3131
 21
-95.4464
  0
LINE
  8
0
 10
95.3131
 20
-95.4464
 11
95.5877
 21
-95.1885
  0
LINE
  8
0
 10
95.5877
 20
-95.1885
 11
95.8925
 21
-94.967
  0
LINE
  8
0
 10
95.8925
 20
-94.967
 11
96.2227
 21
-94.7855
  0
LINE
  8
0
 10
96.2227
 20
-94.7855
 11
96.573
 21
-94.6468
  0
LINE
  8
0
 10
96.573
 20
-94.6468
 11
96.9379
 21
-94.5531
  0
LINE
  8
0
 10
96.9379
 20
-94.5531
 11
97.3116
 21
-94.5059
  0
LINE
  8
0
 10
97.3116
 20
-94.5059
 11
97.6884
 21
-94.5059
  0
LINE
  8
0
 10
97.6884
 20
-94.5059
 11
98.0621
 21
-94.5531
  0
LINE
  8
0
 10
98.0621
 20
-94.5531
 11
98.427
 21
-94.6468
  0
LINE
  8
0
 10
98.427
 20
-94.6468
 11
98.7773
 21
-94.7855
  0
LINE
  8
0
 10
98.7773
 20
-94.7855
 11
99.1075
 21
-94.967
  0
LINE
  8
0
 10
99.1075
 20
-94.967
 11
99.4123
 21
-95.1885
  0
LINE
  8
0
 10
99.4123
 20
-95.1885
 11
99.6869
 21
-95.4464
  0
LINE
  8
0
 10
99.6869
 20
-95.4464
 11
99.927
 21
-95.7366
  0
LINE
  8
0
 10
99.927
 20
-95.7366
 11
100.129
 21
-96.0547
  0
LINE
  8
0
 10
100.129
 20
-96.0547
 11
100.289
 21
-96.3956
  0
LINE
  8
0
 10
100.289
 20
-96.3956
 11
100.406
 21
-96.7539
  0
LINE
  8
0
 10
100.406
 20
-96.7539
 11
100.476
 21
-97.124
  0
LINE
  8
0
 10
100.476
 20
-97.124
 11
100.5
 21
-97.5
  0
LINE
  8
0
 10
100.5
 20
-97.5
 11
100.476
 21
-97.876
  0
LINE
  8
0
 10
100.476
 20
-97.876
 11
100.406
 21
-98.2461
  0
LINE
  8
0
 10
100.406
 20
-98.2461
 11
100.289
 21
-98.6044
  0
LINE
  8
0
 10
100.289
 20
-98.6044
 11
100.129
 21
-98.9453
  0
LINE
  8
0
 10
100.129
 20
-98.9453
 11
99.927
 21
-99.2634
  0
LINE
  8
0
 10
99.927
 20
-99.2634
 11
99.6869
 21
-99.5536
  0
LINE
  8
0
 10
99.6869
 20
-99.5536
 11
99.4123
 21
-99.8115
  0
LINE
  8
0
 10
99.4123
 20
-99.8115
 11
99.1075
 21
-100.033
  0
LINE
  8
0
 10
99.1075
 20
-100.033
 11
98.7773
 21
-100.214
  0
LINE
  8
0
 10
98.7773
 20
-100.214
 11
98.427
 21
-100.353
  0
LINE
  8
0
 10
98.427
 20
-100.353
 11
98.0621
 21
-100.447
  0
LINE
  8
0
 10
98.0621
 20
-100.447
 11
97.6884
 21
-100.494
  0
LINE
  8
0
 10
97.6884
 20
-100.494
 11
97.3116
 21
-100.494
  0
LINE
  8
0
 10
-94.7107
 20
66.3956
 11
-94.8711
 21
66.0547
  0
LINE
  8
0
 10
-94.8711
 20
66.0547
 11
-95.073
 21
65.7366
  0
LINE
  8
0
 10
-95.073
 20
65.7366
 11
-95.3131
 21
65.4464
  0
LINE
  8
0
 10
-95.3131
 20
65.4464
 11
-95.5877
 21
65.1885
  0
LINE
  8
0
 10
-95.5877
 20
65.1885
 11
-95.8925
 21
64.967
  0
LINE
  8
0
 10
-95.8925
 20
64.967
 11
-96.2227
 21
64.7855
  0
LINE
  8
0
 10
-96.2227
 20
64.7855
 11
-96.573
 21
64.6468
  0
LINE
  8
0
 10
-96.573
 20
64.6468
 11
-96.9379
 21
64.5531
  0
LINE
  8
0
 10
-96.9379
 20
64.5531
 11
-97.3116
 21
64.5059
  0
LINE
  8
0
 10
-97.3116
 20
64.5059
 11
-97.6884
 21
64.5059
  0
LINE
  8
0
 10
-97.6884
 20
64.5059
 11
-98.0621
 21
64.5531
  0
LINE
  8
0
 10
-98.0621
 20
64.5531
 11
-98.427
 21
64.6468
  0
LINE
  8
0
 10
-98.427
 20
64.6468
 11
-98.7773
 21
64.7855
  0
LINE
  8
0
 10
-98.7773
 20
64.7855
 11
-99.1075
 21
64.967
  0
LINE
  8
0
 10
-99.1075
 20
64.967
 11
-99.4123
 21
65.1885
  0
LINE
  8
0
 10
-99.4123
 20
65.1885
 11
-99.6869
 21
65.4464
  0
LINE
  8
0
 10
-99.6869
 20
65.4464
 11
-99.927
 21
65.7366
  0
LINE
  8
0
 10
-99.927
 20
65.7366
 11
-100.129
 21
66.0547
  0
LINE
  8
0
 10
-100.129
 20
66.0547
 11
-100.289
 21
66.3956
  0
LINE
  8
0
 10
-100.289
 20
66.3956
 11
-100.406
 21
66.7539
  0
LINE
  8
0
 10
-100.406
 20
66.7539
 11
-100.476
 21
67.124
  0
LINE
  8
0
 10
-100.476
 20
67.124
 11
-100.5
 21
67.5
  0
LINE
  8
0
 10
-100.5
 20
67.5
 11
-100.476
 21
67.876
  0
LINE
  8
0
 10
-100.476
 20
67.876
 11
-100.406
 21
68.2461
  0
LINE
  8
0
 10
-100.406
 20
68.2461
 11
-100.289
 21
68.6044
  0
LINE
  8
0
 10
-100.289
 20
68.6044
 11
-100.129
 21
68.9453
  0
LINE
  8
0
 10
-100.129
 20
68.9453
 11
-99.927
 21
69.2634
  0
LINE
  8
0
 10
-99.927
 20
69.2634
 11
-99.6869
 21
69.5536
  0
LINE
  8
0
 10
-99.6869
 20
69.5536
 11
-99.4123
 21
69.8115
  0
LINE
  8
0
 10
-99.4123
 20
69.8115
 11
-99.1075
 21
70.033
  0
LINE
  8
0
 10
-99.1075
 20
70.033
 11
-98.7773
 21
70.2145
  0
LINE
  8
0
 10
-98.7773
 20
70.2145
 11
-98.427
 21
70.3532
  0
LINE
  8
0
 10
-98.427
 20
70.3532
 11
-98.0621
 21
70.4469
  0
LINE
  8
0
 10
-98.0621
 20
70.4469
 11
-97.6884
 21
70.4941
  0
LINE
  8
0
 10
-97.6884
 20
70.4941
 11
-97.3116
 21
70.4941
  0
LINE
  8
0
 10
-97.3116
 20
70.4941
 11
-96.9379
 21
70.4469
  0
LINE
  8
0
 10
-96.9379
 20
70.4469
 11
-96.573
 21
70.3532
  0
LINE
  8
0
 10
-96.573
 20
70.3532
 11
-96.2227
 21
70.2145
  0
LINE
  8
0
 10
-96.2227
 20
70.2145
 11
-95.8925
 21
70.033
  0
LINE
  8
0
 10
-95.8925
 20
70.033
 11
-95.5877
 21
69.8115
  0
LINE
  8
0
 10
-95.5877
 20
69.8115
 11
-95.3131
 21
69.5536
  0
LINE
  8
0
 10
-95.3131
 20
69.5536
 11
-95.073
 21
69.2634
  0
LINE
  8
0
 10
-95.073
 20
69.2634
 11
-94.8711
 21
68.9453
  0
LINE
  8
0
 10
-94.8711
 20
68.9453
 11
-94.7107
 21
68.6044
  0
LINE
  8
0
 10
-94.7107
 20
68.6044
 11
-94.5943
 21
68.2461
  0
LINE
  8
0
 10
-94.5943
 20
68.2461
 11
-94.5237
 21
67.876
  0
LINE
  8
0
 10
-94.5237
 20
67.876
 11
-94.5
 21
67.5
  0
LINE
  8
0
 10
-94.5
 20
67.5
 11
-94.5237
 21
67.124
  0
LINE
  8
0
 10
-94.5237
 20
67.124
 11
-94.5943
 21
66.7539
  0
LINE
  8
0
 10
-94.5943
 20
66.7539
 11
-94.7107
 21
66.3956
  0
LINE
  8
0
 10
-94.5943
 20
21.7539
 11
-94.7107
 21
21.3956
  0
LINE
  8
0
 10
-94.7107
 20
21.3956
 11
-94.8711
 21
21.0547
  0
LINE
  8
0
 10
-94.8711
 20
21.0547
 11
-95.073
 21
20.7366
  0
LINE
  8
0
 10
-95.073
 20
20.7366
 11
-95.3131
 21
20.4464
  0
LINE
  8
0
 10
-95.3131
 20
20.4464
 11
-95.5877
 21
20.1884
  0
LINE
  8
0
 10
-95.5877
 20
20.1884
 11
-95.8925
 21
19.967
  0
LINE
  8
0
 10
-95.8925
 20
19.967
 11
-96.2227
 21
19.7855
  0
LINE
  8
0
 10
-96.2227
 20
19.7855
 11
-96.573
 21
19.6468
  0
LINE
  8
0
 10
-96.573
 20
19.6468
 11
-96.9379
 21
19.5531
  0
LINE
  8
0
 10
-96.9379
 20
19.5531
 11
-97.3116
 21
19.5059
  0
LINE
  8
0
 10
-97.3116
 20
19.5059
 11
-97.6884
 21
19.5059
  0
LINE
  8
0
 10
-97.6884
 20
19.5059
 11
-98.0621
 21
19.5531
  0
LINE
  8
0
 10
-98.0621
 20
19.5531
 11
-98.427
 21
19.6468
  0
LINE
  8
0
 10
-98.427
 20
19.6468
 11
-98.7773
 21
19.7855
  0
LINE
  8
0
 10
-98.7773
 20
19.7855
 11
-99.1075
 21
19.967
  0
LINE
  8
0
 10
-99.1075
 20
19.967
 11
-99.4123
 21
20.1884
  0
LINE
  8
0
 10
-99.4123
 20
20.1884
 11
-99.6869
 21
20.4464
  0
LINE
  8
0
 10
-99.6869
 20
20.4464
 11
-99.927
 21
20.7366
  0
LINE
  8
0
 10
-99.927
 20
20.7366
 11
-100.129
 21
21.0547
  0
LINE
  8
0
 10
-100.129
 20
21.0547
 11
-100.289
 21
21.3956
  0
LINE
  8
0
 10
-100.289
 20
21.3956
 11
-100.406
 21
21.7539
  0
LINE
  8
0
 10
-100.406
 20
21.7539
 11
-100.476
 21
22.124
  0
LINE
  8
0
 10
-100.476
 20
22.124
 11
-100.5
 21
22.5
  0
LINE
  8
0
 10
-100.5
 20
22.5
 11
-100.476
 21
22.876
  0
LINE
  8
0
 10
-100.476
 20
22.876
 11
-100.406
 21
23.2461
  0
LINE
  8
0
 10
-100.406
 20
23.2461
 11
-100.289
 21
23.6044
  0
LINE
  8
0
 10
-100.289
 20
23.6044
 11
-100.129
 21
23.9453
  0
LINE
  8
0
 10
-100.129
 20
23.9453
 11
-99.927
 21
24.2634
  0
LINE
  8
0
 10
-99.927
 20
24.2634
 11
-99.6869
 21
24.5536
  0
LINE
  8
0
 10
-99.6869
 20
24.5536
 11
-99.4123
 21
24.8115
  0
LINE
  8
0
 10
-99.4123
 20
24.8115
 11
-99.1075
 21
25.033
  0
LINE
  8
0
 10
-99.1075
 20
25.033
 11
-98.7773
 21
25.2145
  0
LINE
  8
0
 10
-98.7773
 20
25.2145
 11
-98.427
 21
25.3532
  0
LINE
  8
0
 10
-98.427
 20
25.3532
 11
-98.0621
 21
25.4469
  0
LINE
  8
0
 10
-98.0621
 20
25.4469
 11
-97.6884
 21
25.4941
  0
LINE
  8
0
 10
-97.6884
 20
25.4941
 11
-97.3116
 21
25.4941
  0
LINE
  8
0
 10
-97.3116
 20
25.4941
 11
-96.9379
 21
25.4469
  0
LINE
  8
0
 10
-96.9379
 20
25.4469
 11
-96.573
 21
25.3532
  0
LINE
  8
0
 10
-96.573
 20
25.3532
 11
-96.2227
 21
25.2145
  0
LINE
  8
0
 10
-96.2227
 20
25.2145
 11
-95.8925
 21
25.033
  0
LINE
  8
0
 10
-95.8925
 20
25.033
 11
-95.5877
 21
24.8115
  0
LINE
  8
0
 10
-95.5877
 20
24.8115
 11
-95.3131
 21
24.5536
  0
LINE
  8
0
 10
-95.3131
 20
24.5536
 11
-95.073
 21
24.2634
  0
LINE
  8
0
 10
-95.073
 20
24.2634
 11
-94.8711
 21
23.9453
  0
LINE
  8
0
 10
-94.8711
 20
23.9453
 11
-94.7107
 21
23.6044
  0
LINE
  8
0
 10
-94.7107
 20
23.6044
 11
-94.5943
 21
23.2461
  0
LINE
  8
0
 10
-94.5943
 20
23.2461
 11
-94.5237
 21
22.876
  0
LINE
  8
0
 10
-94.5237
 20
22.876
 11
-94.5
 21
22.5
  0
LINE
  8
0
 10
-94.5
 20
22.5
 11
-94.5237
 21
22.124
  0
LINE
  8
0
 10
-94.5237
 20
22.124
 11
-94.5943
 21
21.7539
  0
LINE
  8
0
 10
-94.5237
 20
-7.87599
 11
-94.5943
 21
-8.24606
  0
LINE
  8
0
 10
-94.5943
 20
-8.24606
 11
-94.7107
 21
-8.60437
  0
LINE
  8
0
 10
-94.7107
 20
-8.60437
 11
-94.8711
 21
-8.94525
  0
LINE
  8
0
 10
-94.8711
 20
-8.94525
 11
-95.073
 21
-9.26335
  0
LINE
  8
0
 10
-95.073
 20
-9.26335
 11
-95.3131
 21
-9.55363
  0
LINE
  8
0
 10
-95.3131
 20
-9.55363
 11
-95.5877
 21
-9.81154
  0
LINE
  8
0
 10
-95.5877
 20
-9.81154
 11
-95.8925
 21
-10.033
  0
LINE
  8
0
 10
-95.8925
 20
-10.033
 11
-96.2227
 21
-10.2145
  0
LINE
  8
0
 10
-96.2227
 20
-10.2145
 11
-96.573
 21
-10.3532
  0
LINE
  8
0
 10
-96.573
 20
-10.3532
 11
-96.9379
 21
-10.4469
  0
LINE
  8
0
 10
-96.9379
 20
-10.4469
 11
-97.3116
 21
-10.4941
  0
LINE
  8
0
 10
-97.3116
 20
-10.4941
 11
-97.6884
 21
-10.4941
  0
LINE
  8
0
 10
-97.6884
 20
-10.4941
 11
-98.0621
 21
-10.4469
  0
LINE
  8
0
 10
-98.0621
 20
-10.4469
 11
-98.427
 21
-10.3532
  0
LINE
  8
0
 10
-98.427
 20
-10.3532
 11
-98.7773
 21
-10.2145
  0
LINE
  8
0
 10
-98.7773
 20
-10.2145
 11
-99.1075
 21
-10.033
  0
LINE
  8
0
 10
-99.1075
 20
-10.033
 11
-99.4123
 21
-9.81154
  0
LINE
  8
0
 10
-99.4123
 20
-9.81154
 11
-99.6869
 21
-9.55363
  0
LINE
  8
0
 10
-99.6869
 20
-9.55363
 11
-99.927
 21
-9.26335
  0
LINE
  8
0
 10
-99.927
 20
-9.26335
 11
-100.129
 21
-8.94525
  0
LINE
  8
0
 10
-100.129
 20
-8.94525
 11
-100.289
 21
-8.60437
  0
LINE
  8
0
 10
-100.289
 20
-8.60437
 11
-100.406
 21
-8.24606
  0
LINE
  8
0
 10
-100.406
 20
-8.24606
 11
-100.476
 21
-7.87599
  0
LINE
  8
0
 10
-100.476
 20
-7.87599
 11
-100.5
 21
-7.5
  0
LINE
  8
0
 10
-100.5
 20
-7.5
 11
-100.476
 21
-7.12399
  0
LINE
  8
0
 10
-100.476
 20
-7.12399
 11
-100.406
 21
-6.75392
  0
LINE
  8
0
 10
-100.406
 20
-6.75392
 11
-100.289
 21
-6.39561
  0
LINE
  8
0
 10
-100.289
 20
-6.39561
 11
-100.129
 21
-6.05473
  0
LINE
  8
0
 10
-100.129
 20
-6.05473
 11
-99.927
 21
-5.73663
  0
LINE
  8
0
 10
-99.927
 20
-5.73663
 11
-99.6869
 21
-5.44635
  0
LINE
  8
0
 10
-99.6869
 20
-5.44635
 11
-99.4123
 21
-5.18845
  0
LINE
  8
0
 10
-99.4123
 20
-5.18845
 11
-99.1075
 21
-4.96701
  0
LINE
  8
0
 10
-99.1075
 20
-4.96701
 11
-98.7773
 21
-4.78551
  0
LINE
  8
0
 10
-98.7773
 20
-4.78551
 11
-98.427
 21
-4.64682
  0
LINE
  8
0
 10
-98.427
 20
-4.64682
 11
-98.0621
 21
-4.55313
  0
LINE
  8
0
 10
-98.0621
 20
-4.55313
 11
-97.6884
 21
-4.50591
  0
LINE
  8
0
 10
-97.6884
 20
-4.50591
 11
-97.3116
 21
-4.50591
  0
LINE
  8
0
 10
-97.3116
 20
-4.50591
 11
-96.9379
 21
-4.55313
  0
LINE
  8
0
 10
-96.9379
 20
-4.55313
 11
-96.573
 21
-4.64682
  0
LINE
  8
0
 10
-96.573
 20
-4.64682
 11
-96.2227
 21
-4.78551
  0
LINE
  8
0
 10
-96.2227
 20
-4.78551
 11
-95.8925
 21
-4.96701
  0
LINE
  8
0
 10
-95.8925
 20
-4.96701
 11
-95.5877
 21
-5.18845
  0
LINE
  8
0
 10
-95.5877
 20
-5.18845
 11
-95.3131
 21
-5.44635
  0
LINE
  8
0
 10
-95.3131
 20
-5.44635
 11
-95.073
 21
-5.73663
  0
LINE
  8
0
 10
-95.073
 20
-5.73663
 11
-94.8711
 21
-6.05473
  0
LINE
  8
0
 10
-94.8711
 20
-6.05473
 11
-94.7107
 21
-6.39561
  0
LINE
  8
0
 10
-94.7107
 20
-6.39561
 11
-94.5943
 21
-6.75392
  0
LINE
  8
0
 10
-94.5943
 20
-6.75392
 11
-94.5237
 21
-7.12399
  0
LINE
  8
0
 10
-94.5237
 20
-7.12399
 11
-94.5
 21
-7.5
  0
LINE
  8
0
 10
-94.5
 20
-7.5
 11
-94.5237
 21
-7.87599
  0
LINE
  8
0
 10
-94.7107
 20
-68.6044
 11
-94.8711
 21
-68.9453
  0
LINE
  8
0
 10
-94.8711
 20
-68.9453
 11
-95.073
 21
-69.2634
  0
LINE
  8
0
 10
-95.073
 20
-69.2634
 11
-95.3131
 21
-69.5536
  0
LINE
  8
0
 10
-95.3131
 20
-69.5536
 11
-95.5877
 21
-69.8115
  0
LINE
  8
0
 10
-95.5877
 20
-69.8115
 11
-95.8925
 21
-70.033
  0
LINE
  8
0
 10
-95.8925
 20
-70.033
 11
-96.2227
 21
-70.2145
  0
LINE
  8
0
 10
-96.2227
 20
-70.2145
 11
-96.573
 21
-70.3532
  0
LINE
  8
0
 10
-96.573
 20
-70.3532
 11
-96.9379
 21
-70.4469
  0
LINE
  8
0
 10
-96.9379
 20
-70.4469
 11
-97.3116
 21
-70.4941
  0
LINE
  8
0
 10
-97.3116
 20
-70.4941
 11
-97.6884
 21
-70.4941
  0
LINE
  8
0
 10
-97.6884
 20
-70.4941
 11
-98.0621
 21
-70.4469
  0
LINE
  8
0
 10
-98.0621
 20
-70.4469
 11
-98.427
 21
-70.3532
  0
LINE
  8
0
 10
-98.427
 20
-70.3532
 11
-98.7773
 21
-70.2145
  0
LINE
  8
0
 10
-98.7773
 20
-70.2145
 11
-99.1075
 21
-70.033
  0
LINE
  8
0
 10
-99.1075
 20
-70.033
 11
-99.4123
 21
-69.8115
  0
LINE
  8
0
 10
-99.4123
 20
-69.8115
 11
-99.6869
 21
-69.5536
  0
LINE
  8
0
 10
-99.6869
 20
-69.5536
 11
-99.927
 21
-69.2634
  0
LINE
  8
0
 10
-99.927
 20
-69.2634
 11
-100.129
 21
-68.9453
  0
LINE
  8
0
 10
-100.129
 20
-68.9453
 11
-100.289
 21
-68.6044
  0
LINE
  8
0
 10
-100.289
 20
-68.6044
 11
-100.406
 21
-68.2461
  0
LINE
  8
0
 10
-100.406
 20
-68.2461
 11
-100.476
 21
-67.876
  0
LINE
  8
0
 10
-100.476
 20
-67.876
 11
-100.5
 21
-67.5
  0
LINE
  8
0
 10
-100.5
 20
-67.5
 11
-100.476
 21
-67.124
  0
LINE
  8
0
 10
-100.476
 20
-67.124
 11
-100.406
 21
-66.7539
  0
LINE
  8
0
 10
-100.406
 20
-66.7539
 11
-100.289
 21
-66.3956
  0
LINE
  8
0
 10
-100.289
 20
-66.3956
 11
-100.129
 21
-66.0547
  0
LINE
  8
0
 10
-100.129
 20
-66.0547
 11
-99.927
 21
-65.7366
  0
LINE
  8
0
 10
-99.927
 20
-65.7366
 11
-99.6869
 21
-65.4464
  0
LINE
  8
0
 10
-99.6869
 20
-65.4464
 11
-99.4123
 21
-65.1885
  0
LINE
  8
0
 10
-99.4123
 20
-65.1885
 11
-99.1075
 21
-64.967
  0
LINE
  8
0
 10
-99.1075
 20
-64.967
 11
-98.7773
 21
-64.7855
  0
LINE
  8
0
 10
-98.7773
 20
-64.7855
 11
-98.427
 21
-64.6468
  0
LINE
  8
0
 10
-98.427
 20
-64.6468
 11
-98.0621
 21
-64.5531
  0
LINE
  8
0
 10
-98.0621
 20
-64.5531
 11
-97.6884
 21
-64.5059
  0
LINE
  8
0
 10
-97.6884
 20
-64.5059
 11
-97.3116
 21
-64.5059
  0
LINE
  8
0
 10
-97.3116
 20
-64.5059
 11
-96.9379
 21
-64.5531
  0
LINE
  8
0
 10
-96.9379
 20
-64.5531
 11
-96.573
 21
-64.6468
  0
LINE
  8
0
 10
-96.573
 20
-64.6468
 11
-96.2227
 21
-64.7855
  0
LINE
  8
0
 10
-96.2227
 20
-64.7855
 11
-95.8925
 21
-64.967
  0
LINE
  8
0
 10
-95.8925
 20
-64.967
 11
-95.5877
 21
-65.1885
  0
LINE
  8
0
 10
-95.5877
 20
-65.1885
 11
-95.3131
 21
-65.4464
  0
LINE
  8
0
 10
-95.3131
 20
-65.4464
 11
-95.073
 21
-65.7366
  0
LINE
  8
0
 10
-95.073
 20
-65.7366
 11
-94.8711
 21
-66.0547
  0
LINE
  8
0
 10
-94.8711
 20
-66.0547
 11
-94.7107
 21
-66.3956
  0
LINE
  8
0
 10
-94.7107
 20
-66.3956
 11
-94.5943
 21
-66.7539
  0
LINE
  8
0
 10
-94.5943
 20
-66.7539
 11
-94.5237
 21
-67.124
  0
LINE
  8
0
 10
-94.5237
 20
-67.124
 11
-94.5
 21
-67.5
  0
LINE
  8
0
 10
-94.5
 20
-67.5
 11
-94.5237
 21
-67.876
  0
LINE
  8
0
 10
-94.5237
 20
-67.876
 11
-94.5943
 21
-68.2461
  0
LINE
  8
0
 10
-94.5943
 20
-68.2461
 11
-94.7107
 21
-68.6044
  0
LINE
  8
0
 10
-94.5237
 20
-82.876
 11
-94.5943
 21
-83.2461
  0
LINE
  8
0
 10
-94.5943
 20
-83.2461
 11
-94.7107
 21
-83.6044
  0
LINE
  8
0
 10
-94.7107
 20
-83.6044
 11
-94.8711
 21
-83.9453
  0
LINE
  8
0
 10
-94.8711
 20
-83.9453
 11
-95.073
 21
-84.2634
  0
LINE
  8
0
 10
-95.073
 20
-84.2634
 11
-95.3131
 21
-84.5536
  0
LINE
  8
0
 10
-95.3131
 20
-84.5536
 11
-95.5877
 21
-84.8115
  0
LINE
  8
0
 10
-95.5877
 20
-84.8115
 11
-95.8925
 21
-85.033
  0
LINE
  8
0
 10
-95.8925
 20
-85.033
 11
-96.2227
 21
-85.2145
  0
LINE
  8
0
 10
-96.2227
 20
-85.2145
 11
-96.573
 21
-85.3532
  0
LINE
  8
0
 10
-96.573
 20
-85.3532
 11
-96.9379
 21
-85.4469
  0
LINE
  8
0
 10
-96.9379
 20
-85.4469
 11
-97.3116
 21
-85.4941
  0
LINE
  8
0
 10
-97.3116
 20
-85.4941
 11
-97.6884
 21
-85.4941
  0
LINE
  8
0
 10
-97.6884
 20
-85.4941
 11
-98.0621
 21
-85.4469
  0
LINE
  8
0
 10
-98.0621
 20
-85.4469
 11
-98.427
 21
-85.3532
  0
LINE
  8
0
 10
-98.427
 20
-85.3532
 11
-98.7773
 21
-85.2145
  0
LINE
  8
0
 10
-98.7773
 20
-85.2145
 11
-99.1075
 21
-85.033
  0
LINE
  8
0
 10
-99.1075
 20
-85.033
 11
-99.4123
 21
-84.8115
  0
LINE
  8
0
 10
-99.4123
 20
-84.8115
 11
-99.6869
 21
-84.5536
  0
LINE
  8
0
 10
-99.6869
 20
-84.5536
 11
-99.927
 21
-84.2634
  0
LINE
  8
0
 10
-99.927
 20
-84.2634
 11
-100.129
 21
-83.9453
  0
LINE
  8
0
 10
-100.129
 20
-83.9453
 11
-100.289
 21
-83.6044
  0
LINE
  8
0
 10
-100.289
 20
-83.6044
 11
-100.406
 21
-83.2461
  0
LINE
  8
0
 10
-100.406
 20
-83.2461
 11
-100.476
 21
-82.876
  0
LINE
  8
0
 10
-100.476
 20
-82.876
 11
-100.5
 21
-82.5
  0
LINE
  8
0
 10
-100.5
 20
-82.5
 11
-100.476
 21
-82.124
  0
LINE
  8
0
 10
-100.476
 20
-82.124
 11
-100.406
 21
-81.7539
  0
LINE
  8
0
 10
-100.406
 20
-81.7539
 11
-100.289
 21
-81.3956
  0
LINE
  8
0
 10
-100.289
 20
-81.3956
 11
-100.129
 21
-81.0547
  0
LINE
  8
0
 10
-100.129
 20
-81.0547
 11
-99.927
 21
-80.7366
  0
LINE
  8
0
 10
-99.927
 20
-80.7366
 11
-99.6869
 21
-80.4464
  0
LINE
  8
0
 10
-99.6869
 20
-80.4464
 11
-99.4123
 21
-80.1885
  0
LINE
  8
0
 10
-99.4123
 20
-80.1885
 11
-99.1075
 21
-79.967
  0
LINE
  8
0
 10
-99.1075
 20
-79.967
 11
-98.7773
 21
-79.7855
  0
LINE
  8
0
 10
-98.7773
 20
-79.7855
 11
-98.427
 21
-79.6468
  0
LINE
  8
0
 10
-98.427
 20
-79.6468
 11
-98.0621
 21
-79.5531
  0
LINE
  8
0
 10
-98.0621
 20
-79.5531
 11
-97.6884
 21
-79.5059
  0
LINE
  8
0
 10
-97.6884
 20
-79.5059
 11
-97.3116
 21
-79.5059
  0
LINE
  8
0
 10
-97.3116
 20
-79.5059
 11
-96.9379
 21
-79.5531
  0
LINE
  8
0
 10
-96.9379
 20
-79.5531
 11
-96.573
 21
-79.6468
  0
LINE
  8
0
 10
-96.573
 20
-79.6468
 11
-96.2227
 21
-79.7855
  0
LINE
  8
0
 10
-96.2227
 20
-79.7855
 11
-95.8925
 21
-79.967
  0
LINE
  8
0
 10
-95.8925
 20
-79.967
 11
-95.5877
 21
-80.1885
  0
LINE
  8
0
 10
-95.5877
 20
-80.1885
 11
-95.3131
 21
-80.4464
  0
LINE
  8
0
 10
-95.3131
 20
-80.4464
 11
-95.073
 21
-80.7366
  0
LINE
  8
0
 10
-95.073
 20
-80.7366
 11
-94.8711
 21
-81.0547
  0
LINE
  8
0
 10
-94.8711
 20
-81.0547
 11
-94.7107
 21
-81.3956
  0
LINE
  8
0
 10
-94.7107
 20
-81.3956
 11
-94.5943
 21
-81.7539
  0
LINE
  8
0
 10
-94.5943
 20
-81.7539
 11
-94.5237
 21
-82.124
  0
LINE
  8
0
 10
-94.5237
 20
-82.124
 11
-94.5
 21
-82.5
  0
LINE
  8
0
 10
-94.5
 20
-82.5
 11
-94.5237
 21
-82.876
  0
ENDSEC
  0
SECTION
  2
OBJECTS
  0
DICTIONARY
  0
ENDSEC
  0
EOF
