  0
SECTION
  2
BLOCKS
  0
ENDSEC
  0
SECTION
  2
ENTITIES
  0
LINE
  8
0
 10
47.9369
 20
-36.9114
 11
48.5451
 21
-36.7553
  0
LINE
  8
0
 10
48.5451
 20
-36.7553
 11
49.1289
 21
-36.5241
  0
LINE
  8
0
 10
49.1289
 20
-36.5241
 11
49.6791
 21
-36.2216
  0
LINE
  8
0
 10
49.6791
 20
-36.2216
 11
50.1871
 21
-35.8526
  0
LINE
  8
0
 10
50.1871
 20
-35.8526
 11
50.6448
 21
-35.4227
  0
LINE
  8
0
 10
50.6448
 20
-35.4227
 11
51.0451
 21
-34.9389
  0
LINE
  8
0
 10
51.0451
 20
-34.9389
 11
51.3815
 21
-34.4088
  0
LINE
  8
0
 10
51.3815
 20
-34.4088
 11
51.6489
 21
-33.8406
  0
LINE
  8
0
 10
51.6489
 20
-33.8406
 11
51.8429
 21
-33.2434
  0
LINE
  8
0
 10
51.8429
 20
-33.2434
 11
51.9606
 21
-32.6267
  0
LINE
  8
0
 10
51.9606
 20
-32.6267
 11
52
 21
-32
  0
LINE
  8
0
 10
52
 20
-32
 11
52
 21
32
  0
LINE
  8
0
 10
52
 20
32
 11
51.9606
 21
32.6267
  0
LINE
  8
0
 10
51.9606
 20
32.6267
 11
51.8429
 21
33.2434
  0
LINE
  8
0
 10
51.8429
 20
33.2434
 11
51.6489
 21
33.8406
  0
LINE
  8
0
 10
51.6489
 20
33.8406
 11
51.3815
 21
34.4088
  0
LINE
  8
0
 10
51.3815
 20
34.4088
 11
51.0451
 21
34.9389
  0
LINE
  8
0
 10
51.0451
 20
34.9389
 11
50.6448
 21
35.4227
  0
LINE
  8
0
 10
50.6448
 20
35.4227
 11
50.1871
 21
35.8526
  0
LINE
  8
0
 10
50.1871
 20
35.8526
 11
49.6791
 21
36.2216
  0
LINE
  8
0
 10
49.6791
 20
36.2216
 11
49.1289
 21
36.5241
  0
LINE
  8
0
 10
49.1289
 20
36.5241
 11
48.5451
 21
36.7553
  0
LINE
  8
0
 10
48.5451
 20
36.7553
 11
47.9369
 21
36.9114
  0
LINE
  8
0
 10
47.9369
 20
36.9114
 11
47.3139
 21
36.9901
  0
LINE
  8
0
 10
47.3139
 20
36.9901
 11
-47.3139
 21
36.9901
  0
LINE
  8
0
 10
-47.3139
 20
36.9901
 11
-47.9369
 21
36.9114
  0
LINE
  8
0
 10
-47.9369
 20
36.9114
 11
-48.5451
 21
36.7553
  0
LINE
  8
0
 10
-48.5451
 20
36.7553
 11
-49.1289
 21
36.5241
  0
LINE
  8
0
 10
-49.1289
 20
36.5241
 11
-49.6791
 21
36.2216
  0
LINE
  8
0
 10
-49.6791
 20
36.2216
 11
-50.1871
 21
35.8526
  0
LINE
  8
0
 10
-50.1871
 20
35.8526
 11
-50.6448
 21
35.4227
  0
LINE
  8
0
 10
-50.6448
 20
35.4227
 11
-51.0451
 21
34.9389
  0
LINE
  8
0
 10
-51.0451
 20
34.9389
 11
-51.3815
 21
34.4088
  0
LINE
  8
0
 10
-51.3815
 20
34.4088
 11
-51.6489
 21
33.8406
  0
LINE
  8
0
 10
-51.6489
 20
33.8406
 11
-51.8429
 21
33.2434
  0
LINE
  8
0
 10
-51.8429
 20
33.2434
 11
-51.9606
 21
32.6267
  0
LINE
  8
0
 10
-51.9606
 20
32.6267
 11
-52
 21
32
  0
LINE
  8
0
 10
-52
 20
32
 11
-52
 21
-32
  0
LINE
  8
0
 10
-52
 20
-32
 11
-51.9606
 21
-32.6267
  0
LINE
  8
0
 10
-51.9606
 20
-32.6267
 11
-51.8429
 21
-33.2434
  0
LINE
  8
0
 10
-51.8429
 20
-33.2434
 11
-51.6489
 21
-33.8406
  0
LINE
  8
0
 10
-51.6489
 20
-33.8406
 11
-51.3815
 21
-34.4088
  0
LINE
  8
0
 10
-51.3815
 20
-34.4088
 11
-51.0451
 21
-34.9389
  0
LINE
  8
0
 10
-51.0451
 20
-34.9389
 11
-50.6448
 21
-35.4227
  0
LINE
  8
0
 10
-50.6448
 20
-35.4227
 11
-50.1871
 21
-35.8526
  0
LINE
  8
0
 10
-50.1871
 20
-35.8526
 11
-49.6791
 21
-36.2216
  0
LINE
  8
0
 10
-49.6791
 20
-36.2216
 11
-49.1289
 21
-36.5241
  0
LINE
  8
0
 10
-49.1289
 20
-36.5241
 11
-48.5451
 21
-36.7553
  0
LINE
  8
0
 10
-48.5451
 20
-36.7553
 11
-47.9369
 21
-36.9114
  0
LINE
  8
0
 10
-47.9369
 20
-36.9114
 11
-47.3139
 21
-36.9901
  0
LINE
  8
0
 10
-47.3139
 20
-36.9901
 11
47.3139
 21
-36.9901
  0
LINE
  8
0
 10
47.3139
 20
-36.9901
 11
47.9369
 21
-36.9114
  0
LINE
  8
0
 10
-45.1884
 20
27.0059
 11
-45.5621
 21
27.0531
  0
LINE
  8
0
 10
-45.5621
 20
27.0531
 11
-45.927
 21
27.1468
  0
LINE
  8
0
 10
-45.927
 20
27.1468
 11
-46.2773
 21
27.2855
  0
LINE
  8
0
 10
-46.2773
 20
27.2855
 11
-46.6075
 21
27.467
  0
LINE
  8
0
 10
-46.6075
 20
27.467
 11
-46.9123
 21
27.6884
  0
LINE
  8
0
 10
-46.9123
 20
27.6884
 11
-47.1869
 21
27.9464
  0
LINE
  8
0
 10
-47.1869
 20
27.9464
 11
-47.427
 21
28.2366
  0
LINE
  8
0
 10
-47.427
 20
28.2366
 11
-47.6289
 21
28.5547
  0
LINE
  8
0
 10
-47.6289
 20
28.5547
 11
-47.7893
 21
28.8956
  0
LINE
  8
0
 10
-47.7893
 20
28.8956
 11
-47.9057
 21
29.2539
  0
LINE
  8
0
 10
-47.9057
 20
29.2539
 11
-47.9763
 21
29.624
  0
LINE
  8
0
 10
-47.9763
 20
29.624
 11
-48
 21
30
  0
LINE
  8
0
 10
-48
 20
30
 11
-47.9763
 21
30.376
  0
LINE
  8
0
 10
-47.9763
 20
30.376
 11
-47.9057
 21
30.7461
  0
LINE
  8
0
 10
-47.9057
 20
30.7461
 11
-47.7893
 21
31.1044
  0
LINE
  8
0
 10
-47.7893
 20
31.1044
 11
-47.6289
 21
31.4453
  0
LINE
  8
0
 10
-47.6289
 20
31.4453
 11
-47.427
 21
31.7634
  0
LINE
  8
0
 10
-47.427
 20
31.7634
 11
-47.1869
 21
32.0536
  0
LINE
  8
0
 10
-47.1869
 20
32.0536
 11
-46.9123
 21
32.3115
  0
LINE
  8
0
 10
-46.9123
 20
32.3115
 11
-46.6075
 21
32.533
  0
LINE
  8
0
 10
-46.6075
 20
32.533
 11
-46.2773
 21
32.7145
  0
LINE
  8
0
 10
-46.2773
 20
32.7145
 11
-45.927
 21
32.8532
  0
LINE
  8
0
 10
-45.927
 20
32.8532
 11
-45.5621
 21
32.9469
  0
LINE
  8
0
 10
-45.5621
 20
32.9469
 11
-45.1884
 21
32.9941
  0
LINE
  8
0
 10
-45.1884
 20
32.9941
 11
-44.8116
 21
32.9941
  0
LINE
  8
0
 10
-44.8116
 20
32.9941
 11
-44.4379
 21
32.9469
  0
LINE
  8
0
 10
-44.4379
 20
32.9469
 11
-44.0729
 21
32.8532
  0
LINE
  8
0
 10
-44.0729
 20
32.8532
 11
-43.7227
 21
32.7145
  0
LINE
  8
0
 10
-43.7227
 20
32.7145
 11
-43.3925
 21
32.533
  0
LINE
  8
0
 10
-43.3925
 20
32.533
 11
-43.0877
 21
32.3115
  0
LINE
  8
0
 10
-43.0877
 20
32.3115
 11
-42.8131
 21
32.0536
  0
LINE
  8
0
 10
-42.8131
 20
32.0536
 11
-42.5729
 21
31.7634
  0
LINE
  8
0
 10
-42.5729
 20
31.7634
 11
-42.3711
 21
31.4453
  0
LINE
  8
0
 10
-42.3711
 20
31.4453
 11
-42.2107
 21
31.1044
  0
LINE
  8
0
 10
-42.2107
 20
31.1044
 11
-42.0942
 21
30.7461
  0
LINE
  8
0
 10
-42.0942
 20
30.7461
 11
-42.0237
 21
30.376
  0
LINE
  8
0
 10
-42.0237
 20
30.376
 11
-42
 21
30
  0
LINE
  8
0
 10
-42
 20
30
 11
-42.0237
 21
29.624
  0
LINE
  8
0
 10
-42.0237
 20
29.624
 11
-42.0942
 21
29.2539
  0
LINE
  8
0
 10
-42.0942
 20
29.2539
 11
-42.2107
 21
28.8956
  0
LINE
  8
0
 10
-42.2107
 20
28.8956
 11
-42.3711
 21
28.5547
  0
LINE
  8
0
 10
-42.3711
 20
28.5547
 11
-42.5729
 21
28.2366
  0
LINE
  8
0
 10
-42.5729
 20
28.2366
 11
-42.8131
 21
27.9464
  0
LINE
  8
0
 10
-42.8131
 20
27.9464
 11
-43.0877
 21
27.6884
  0
LINE
  8
0
 10
-43.0877
 20
27.6884
 11
-43.3925
 21
27.467
  0
LINE
  8
0
 10
-43.3925
 20
27.467
 11
-43.7227
 21
27.2855
  0
LINE
  8
0
 10
-43.7227
 20
27.2855
 11
-44.0729
 21
27.1468
  0
LINE
  8
0
 10
-44.0729
 20
27.1468
 11
-44.4379
 21
27.0531
  0
LINE
  8
0
 10
-44.4379
 20
27.0531
 11
-44.8116
 21
27.0059
  0
LINE
  8
0
 10
-44.8116
 20
27.0059
 11
-45.1884
 21
27.0059
  0
LINE
  8
0
 10
44.8116
 20
27.0059
 11
44.4379
 21
27.0531
  0
LINE
  8
0
 10
44.4379
 20
27.0531
 11
44.0729
 21
27.1468
  0
LINE
  8
0
 10
44.0729
 20
27.1468
 11
43.7227
 21
27.2855
  0
LINE
  8
0
 10
43.7227
 20
27.2855
 11
43.3925
 21
27.467
  0
LINE
  8
0
 10
43.3925
 20
27.467
 11
43.0877
 21
27.6884
  0
LINE
  8
0
 10
43.0877
 20
27.6884
 11
42.8131
 21
27.9464
  0
LINE
  8
0
 10
42.8131
 20
27.9464
 11
42.5729
 21
28.2366
  0
LINE
  8
0
 10
42.5729
 20
28.2366
 11
42.3711
 21
28.5547
  0
LINE
  8
0
 10
42.3711
 20
28.5547
 11
42.2107
 21
28.8956
  0
LINE
  8
0
 10
42.2107
 20
28.8956
 11
42.0942
 21
29.2539
  0
LINE
  8
0
 10
42.0942
 20
29.2539
 11
42.0237
 21
29.624
  0
LINE
  8
0
 10
42.0237
 20
29.624
 11
42
 21
30
  0
LINE
  8
0
 10
42
 20
30
 11
42.0237
 21
30.376
  0
LINE
  8
0
 10
42.0237
 20
30.376
 11
42.0942
 21
30.7461
  0
LINE
  8
0
 10
42.0942
 20
30.7461
 11
42.2107
 21
31.1044
  0
LINE
  8
0
 10
42.2107
 20
31.1044
 11
42.3711
 21
31.4453
  0
LINE
  8
0
 10
42.3711
 20
31.4453
 11
42.5729
 21
31.7634
  0
LINE
  8
0
 10
42.5729
 20
31.7634
 11
42.8131
 21
32.0536
  0
LINE
  8
0
 10
42.8131
 20
32.0536
 11
43.0877
 21
32.3115
  0
LINE
  8
0
 10
43.0877
 20
32.3115
 11
43.3925
 21
32.533
  0
LINE
  8
0
 10
43.3925
 20
32.533
 11
43.7227
 21
32.7145
  0
LINE
  8
0
 10
43.7227
 20
32.7145
 11
44.0729
 21
32.8532
  0
LINE
  8
0
 10
44.0729
 20
32.8532
 11
44.4379
 21
32.9469
  0
LINE
  8
0
 10
44.4379
 20
32.9469
 11
44.8116
 21
32.9941
  0
LINE
  8
0
 10
44.8116
 20
32.9941
 11
45.1884
 21
32.9941
  0
LINE
  8
0
 10
45.1884
 20
32.9941
 11
45.5621
 21
32.9469
  0
LINE
  8
0
 10
45.5621
 20
32.9469
 11
45.927
 21
32.8532
  0
LINE
  8
0
 10
45.927
 20
32.8532
 11
46.2773
 21
32.7145
  0
LINE
  8
0
 10
46.2773
 20
32.7145
 11
46.6075
 21
32.533
  0
LINE
  8
0
 10
46.6075
 20
32.533
 11
46.9123
 21
32.3115
  0
LINE
  8
0
 10
46.9123
 20
32.3115
 11
47.1869
 21
32.0536
  0
LINE
  8
0
 10
47.1869
 20
32.0536
 11
47.427
 21
31.7634
  0
LINE
  8
0
 10
47.427
 20
31.7634
 11
47.6289
 21
31.4453
  0
LINE
  8
0
 10
47.6289
 20
31.4453
 11
47.7893
 21
31.1044
  0
LINE
  8
0
 10
47.7893
 20
31.1044
 11
47.9057
 21
30.7461
  0
LINE
  8
0
 10
47.9057
 20
30.7461
 11
47.9763
 21
30.376
  0
LINE
  8
0
 10
47.9763
 20
30.376
 11
48
 21
30
  0
LINE
  8
0
 10
48
 20
30
 11
47.9763
 21
29.624
  0
LINE
  8
0
 10
47.9763
 20
29.624
 11
47.9057
 21
29.2539
  0
LINE
  8
0
 10
47.9057
 20
29.2539
 11
47.7893
 21
28.8956
  0
LINE
  8
0
 10
47.7893
 20
28.8956
 11
47.6289
 21
28.5547
  0
LINE
  8
0
 10
47.6289
 20
28.5547
 11
47.427
 21
28.2366
  0
LINE
  8
0
 10
47.427
 20
28.2366
 11
47.1869
 21
27.9464
  0
LINE
  8
0
 10
47.1869
 20
27.9464
 11
46.9123
 21
27.6884
  0
LINE
  8
0
 10
46.9123
 20
27.6884
 11
46.6075
 21
27.467
  0
LINE
  8
0
 10
46.6075
 20
27.467
 11
46.2773
 21
27.2855
  0
LINE
  8
0
 10
46.2773
 20
27.2855
 11
45.927
 21
27.1468
  0
LINE
  8
0
 10
45.927
 20
27.1468
 11
45.5621
 21
27.0531
  0
LINE
  8
0
 10
45.5621
 20
27.0531
 11
45.1884
 21
27.0059
  0
LINE
  8
0
 10
45.1884
 20
27.0059
 11
44.8116
 21
27.0059
  0
LINE
  8
0
 10
44.8116
 20
-32.9941
 11
44.4379
 21
-32.9469
  0
LINE
  8
0
 10
44.4379
 20
-32.9469
 11
44.0729
 21
-32.8532
  0
LINE
  8
0
 10
44.0729
 20
-32.8532
 11
43.7227
 21
-32.7145
  0
LINE
  8
0
 10
43.7227
 20
-32.7145
 11
43.3925
 21
-32.533
  0
LINE
  8
0
 10
43.3925
 20
-32.533
 11
43.0877
 21
-32.3115
  0
LINE
  8
0
 10
43.0877
 20
-32.3115
 11
42.8131
 21
-32.0536
  0
LINE
  8
0
 10
42.8131
 20
-32.0536
 11
42.5729
 21
-31.7634
  0
LINE
  8
0
 10
42.5729
 20
-31.7634
 11
42.3711
 21
-31.4453
  0
LINE
  8
0
 10
42.3711
 20
-31.4453
 11
42.2107
 21
-31.1044
  0
LINE
  8
0
 10
42.2107
 20
-31.1044
 11
42.0942
 21
-30.7461
  0
LINE
  8
0
 10
42.0942
 20
-30.7461
 11
42.0237
 21
-30.376
  0
LINE
  8
0
 10
42.0237
 20
-30.376
 11
42
 21
-30
  0
LINE
  8
0
 10
42
 20
-30
 11
42.0237
 21
-29.624
  0
LINE
  8
0
 10
42.0237
 20
-29.624
 11
42.0942
 21
-29.2539
  0
LINE
  8
0
 10
42.0942
 20
-29.2539
 11
42.2107
 21
-28.8956
  0
LINE
  8
0
 10
42.2107
 20
-28.8956
 11
42.3711
 21
-28.5547
  0
LINE
  8
0
 10
42.3711
 20
-28.5547
 11
42.5729
 21
-28.2366
  0
LINE
  8
0
 10
42.5729
 20
-28.2366
 11
42.8131
 21
-27.9464
  0
LINE
  8
0
 10
42.8131
 20
-27.9464
 11
43.0877
 21
-27.6884
  0
LINE
  8
0
 10
43.0877
 20
-27.6884
 11
43.3925
 21
-27.467
  0
LINE
  8
0
 10
43.3925
 20
-27.467
 11
43.7227
 21
-27.2855
  0
LINE
  8
0
 10
43.7227
 20
-27.2855
 11
44.0729
 21
-27.1468
  0
LINE
  8
0
 10
44.0729
 20
-27.1468
 11
44.4379
 21
-27.0531
  0
LINE
  8
0
 10
44.4379
 20
-27.0531
 11
44.8116
 21
-27.0059
  0
LINE
  8
0
 10
44.8116
 20
-27.0059
 11
45.1884
 21
-27.0059
  0
LINE
  8
0
 10
45.1884
 20
-27.0059
 11
45.5621
 21
-27.0531
  0
LINE
  8
0
 10
45.5621
 20
-27.0531
 11
45.927
 21
-27.1468
  0
LINE
  8
0
 10
45.927
 20
-27.1468
 11
46.2773
 21
-27.2855
  0
LINE
  8
0
 10
46.2773
 20
-27.2855
 11
46.6075
 21
-27.467
  0
LINE
  8
0
 10
46.6075
 20
-27.467
 11
46.9123
 21
-27.6884
  0
LINE
  8
0
 10
46.9123
 20
-27.6884
 11
47.1869
 21
-27.9464
  0
LINE
  8
0
 10
47.1869
 20
-27.9464
 11
47.427
 21
-28.2366
  0
LINE
  8
0
 10
47.427
 20
-28.2366
 11
47.6289
 21
-28.5547
  0
LINE
  8
0
 10
47.6289
 20
-28.5547
 11
47.7893
 21
-28.8956
  0
LINE
  8
0
 10
47.7893
 20
-28.8956
 11
47.9057
 21
-29.2539
  0
LINE
  8
0
 10
47.9057
 20
-29.2539
 11
47.9763
 21
-29.624
  0
LINE
  8
0
 10
47.9763
 20
-29.624
 11
48
 21
-30
  0
LINE
  8
0
 10
48
 20
-30
 11
47.9763
 21
-30.376
  0
LINE
  8
0
 10
47.9763
 20
-30.376
 11
47.9057
 21
-30.7461
  0
LINE
  8
0
 10
47.9057
 20
-30.7461
 11
47.7893
 21
-31.1044
  0
LINE
  8
0
 10
47.7893
 20
-31.1044
 11
47.6289
 21
-31.4453
  0
LINE
  8
0
 10
47.6289
 20
-31.4453
 11
47.427
 21
-31.7634
  0
LINE
  8
0
 10
47.427
 20
-31.7634
 11
47.1869
 21
-32.0536
  0
LINE
  8
0
 10
47.1869
 20
-32.0536
 11
46.9123
 21
-32.3115
  0
LINE
  8
0
 10
46.9123
 20
-32.3115
 11
46.6075
 21
-32.533
  0
LINE
  8
0
 10
46.6075
 20
-32.533
 11
46.2773
 21
-32.7145
  0
LINE
  8
0
 10
46.2773
 20
-32.7145
 11
45.927
 21
-32.8532
  0
LINE
  8
0
 10
45.927
 20
-32.8532
 11
45.5621
 21
-32.9469
  0
LINE
  8
0
 10
45.5621
 20
-32.9469
 11
45.1884
 21
-32.9941
  0
LINE
  8
0
 10
45.1884
 20
-32.9941
 11
44.8116
 21
-32.9941
  0
LINE
  8
0
 10
-45.1884
 20
-32.9941
 11
-45.5621
 21
-32.9469
  0
LINE
  8
0
 10
-45.5621
 20
-32.9469
 11
-45.927
 21
-32.8532
  0
LINE
  8
0
 10
-45.927
 20
-32.8532
 11
-46.2773
 21
-32.7145
  0
LINE
  8
0
 10
-46.2773
 20
-32.7145
 11
-46.6075
 21
-32.533
  0
LINE
  8
0
 10
-46.6075
 20
-32.533
 11
-46.9123
 21
-32.3115
  0
LINE
  8
0
 10
-46.9123
 20
-32.3115
 11
-47.1869
 21
-32.0536
  0
LINE
  8
0
 10
-47.1869
 20
-32.0536
 11
-47.427
 21
-31.7634
  0
LINE
  8
0
 10
-47.427
 20
-31.7634
 11
-47.6289
 21
-31.4453
  0
LINE
  8
0
 10
-47.6289
 20
-31.4453
 11
-47.7893
 21
-31.1044
  0
LINE
  8
0
 10
-47.7893
 20
-31.1044
 11
-47.9057
 21
-30.7461
  0
LINE
  8
0
 10
-47.9057
 20
-30.7461
 11
-47.9763
 21
-30.376
  0
LINE
  8
0
 10
-47.9763
 20
-30.376
 11
-48
 21
-30
  0
LINE
  8
0
 10
-48
 20
-30
 11
-47.9763
 21
-29.624
  0
LINE
  8
0
 10
-47.9763
 20
-29.624
 11
-47.9057
 21
-29.2539
  0
LINE
  8
0
 10
-47.9057
 20
-29.2539
 11
-47.7893
 21
-28.8956
  0
LINE
  8
0
 10
-47.7893
 20
-28.8956
 11
-47.6289
 21
-28.5547
  0
LINE
  8
0
 10
-47.6289
 20
-28.5547
 11
-47.427
 21
-28.2366
  0
LINE
  8
0
 10
-47.427
 20
-28.2366
 11
-47.1869
 21
-27.9464
  0
LINE
  8
0
 10
-47.1869
 20
-27.9464
 11
-46.9123
 21
-27.6884
  0
LINE
  8
0
 10
-46.9123
 20
-27.6884
 11
-46.6075
 21
-27.467
  0
LINE
  8
0
 10
-46.6075
 20
-27.467
 11
-46.2773
 21
-27.2855
  0
LINE
  8
0
 10
-46.2773
 20
-27.2855
 11
-45.927
 21
-27.1468
  0
LINE
  8
0
 10
-45.927
 20
-27.1468
 11
-45.5621
 21
-27.0531
  0
LINE
  8
0
 10
-45.5621
 20
-27.0531
 11
-45.1884
 21
-27.0059
  0
LINE
  8
0
 10
-45.1884
 20
-27.0059
 11
-44.8116
 21
-27.0059
  0
LINE
  8
0
 10
-44.8116
 20
-27.0059
 11
-44.4379
 21
-27.0531
  0
LINE
  8
0
 10
-44.4379
 20
-27.0531
 11
-44.0729
 21
-27.1468
  0
LINE
  8
0
 10
-44.0729
 20
-27.1468
 11
-43.7227
 21
-27.2855
  0
LINE
  8
0
 10
-43.7227
 20
-27.2855
 11
-43.3925
 21
-27.467
  0
LINE
  8
0
 10
-43.3925
 20
-27.467
 11
-43.0877
 21
-27.6884
  0
LINE
  8
0
 10
-43.0877
 20
-27.6884
 11
-42.8131
 21
-27.9464
  0
LINE
  8
0
 10
-42.8131
 20
-27.9464
 11
-42.5729
 21
-28.2366
  0
LINE
  8
0
 10
-42.5729
 20
-28.2366
 11
-42.3711
 21
-28.5547
  0
LINE
  8
0
 10
-42.3711
 20
-28.5547
 11
-42.2107
 21
-28.8956
  0
LINE
  8
0
 10
-42.2107
 20
-28.8956
 11
-42.0942
 21
-29.2539
  0
LINE
  8
0
 10
-42.0942
 20
-29.2539
 11
-42.0237
 21
-29.624
  0
LINE
  8
0
 10
-42.0237
 20
-29.624
 11
-42
 21
-30
  0
LINE
  8
0
 10
-42
 20
-30
 11
-42.0237
 21
-30.376
  0
LINE
  8
0
 10
-42.0237
 20
-30.376
 11
-42.0942
 21
-30.7461
  0
LINE
  8
0
 10
-42.0942
 20
-30.7461
 11
-42.2107
 21
-31.1044
  0
LINE
  8
0
 10
-42.2107
 20
-31.1044
 11
-42.3711
 21
-31.4453
  0
LINE
  8
0
 10
-42.3711
 20
-31.4453
 11
-42.5729
 21
-31.7634
  0
LINE
  8
0
 10
-42.5729
 20
-31.7634
 11
-42.8131
 21
-32.0536
  0
LINE
  8
0
 10
-42.8131
 20
-32.0536
 11
-43.0877
 21
-32.3115
  0
LINE
  8
0
 10
-43.0877
 20
-32.3115
 11
-43.3925
 21
-32.533
  0
LINE
  8
0
 10
-43.3925
 20
-32.533
 11
-43.7227
 21
-32.7145
  0
LINE
  8
0
 10
-43.7227
 20
-32.7145
 11
-44.0729
 21
-32.8532
  0
LINE
  8
0
 10
-44.0729
 20
-32.8532
 11
-44.4379
 21
-32.9469
  0
LINE
  8
0
 10
-44.4379
 20
-32.9469
 11
-44.8116
 21
-32.9941
  0
LINE
  8
0
 10
-44.8116
 20
-32.9941
 11
-45.1884
 21
-32.9941
  0
ENDSEC
  0
SECTION
  2
OBJECTS
  0
DICTIONARY
  0
ENDSEC
  0
EOF
