  0
SECTION
  2
BLOCKS
  0
ENDSEC
  0
SECTION
  2
ENTITIES
  0
LINE
  8
0
 10
100.437
 20
-6.91142
 11
101.045
 21
-6.75528
  0
LINE
  8
0
 10
101.045
 20
-6.75528
 11
101.629
 21
-6.52412
  0
LINE
  8
0
 10
101.629
 20
-6.52412
 11
102.179
 21
-6.22163
  0
LINE
  8
0
 10
102.179
 20
-6.22163
 11
102.687
 21
-5.85255
  0
LINE
  8
0
 10
102.687
 20
-5.85255
 11
103.145
 21
-5.42273
  0
LINE
  8
0
 10
103.145
 20
-5.42273
 11
103.545
 21
-4.93892
  0
LINE
  8
0
 10
103.545
 20
-4.93892
 11
103.882
 21
-4.40877
  0
LINE
  8
0
 10
103.882
 20
-4.40877
 11
104.149
 21
-3.84062
  0
LINE
  8
0
 10
104.149
 20
-3.84062
 11
104.343
 21
-3.24344
  0
LINE
  8
0
 10
104.343
 20
-3.24344
 11
104.461
 21
-2.62666
  0
LINE
  8
0
 10
104.461
 20
-2.62666
 11
104.5
 21
-2
  0
LINE
  8
0
 10
104.5
 20
-2
 11
104.5
 21
2
  0
LINE
  8
0
 10
104.5
 20
2
 11
104.461
 21
2.62666
  0
LINE
  8
0
 10
104.461
 20
2.62666
 11
104.343
 21
3.24344
  0
LINE
  8
0
 10
104.343
 20
3.24344
 11
104.149
 21
3.84062
  0
LINE
  8
0
 10
104.149
 20
3.84062
 11
103.882
 21
4.40877
  0
LINE
  8
0
 10
103.882
 20
4.40877
 11
103.545
 21
4.93892
  0
LINE
  8
0
 10
103.545
 20
4.93892
 11
103.145
 21
5.42273
  0
LINE
  8
0
 10
103.145
 20
5.42273
 11
102.687
 21
5.85255
  0
LINE
  8
0
 10
102.687
 20
5.85255
 11
102.179
 21
6.22163
  0
LINE
  8
0
 10
102.179
 20
6.22163
 11
101.629
 21
6.52412
  0
LINE
  8
0
 10
101.629
 20
6.52412
 11
101.045
 21
6.75528
  0
LINE
  8
0
 10
101.045
 20
6.75528
 11
100.437
 21
6.91142
  0
LINE
  8
0
 10
100.437
 20
6.91142
 11
99.8139
 21
6.99013
  0
LINE
  8
0
 10
99.8139
 20
6.99013
 11
-99.8139
 21
6.99013
  0
LINE
  8
0
 10
-99.8139
 20
6.99013
 11
-100.437
 21
6.91142
  0
LINE
  8
0
 10
-100.437
 20
6.91142
 11
-101.045
 21
6.75528
  0
LINE
  8
0
 10
-101.045
 20
6.75528
 11
-101.629
 21
6.52412
  0
LINE
  8
0
 10
-101.629
 20
6.52412
 11
-102.179
 21
6.22163
  0
LINE
  8
0
 10
-102.179
 20
6.22163
 11
-102.687
 21
5.85255
  0
LINE
  8
0
 10
-102.687
 20
5.85255
 11
-103.145
 21
5.42273
  0
LINE
  8
0
 10
-103.145
 20
5.42273
 11
-103.545
 21
4.93892
  0
LINE
  8
0
 10
-103.545
 20
4.93892
 11
-103.882
 21
4.40877
  0
LINE
  8
0
 10
-103.882
 20
4.40877
 11
-104.149
 21
3.84062
  0
LINE
  8
0
 10
-104.149
 20
3.84062
 11
-104.343
 21
3.24344
  0
LINE
  8
0
 10
-104.343
 20
3.24344
 11
-104.461
 21
2.62666
  0
LINE
  8
0
 10
-104.461
 20
2.62666
 11
-104.5
 21
2
  0
LINE
  8
0
 10
-104.5
 20
2
 11
-104.5
 21
-2
  0
LINE
  8
0
 10
-104.5
 20
-2
 11
-104.461
 21
-2.62666
  0
LINE
  8
0
 10
-104.461
 20
-2.62666
 11
-104.343
 21
-3.24344
  0
LINE
  8
0
 10
-104.343
 20
-3.24344
 11
-104.149
 21
-3.84062
  0
LINE
  8
0
 10
-104.149
 20
-3.84062
 11
-103.882
 21
-4.40877
  0
LINE
  8
0
 10
-103.882
 20
-4.40877
 11
-103.545
 21
-4.93892
  0
LINE
  8
0
 10
-103.545
 20
-4.93892
 11
-103.145
 21
-5.42273
  0
LINE
  8
0
 10
-103.145
 20
-5.42273
 11
-102.687
 21
-5.85255
  0
LINE
  8
0
 10
-102.687
 20
-5.85255
 11
-102.179
 21
-6.22163
  0
LINE
  8
0
 10
-102.179
 20
-6.22163
 11
-101.629
 21
-6.52412
  0
LINE
  8
0
 10
-101.629
 20
-6.52412
 11
-101.045
 21
-6.75528
  0
LINE
  8
0
 10
-101.045
 20
-6.75528
 11
-100.437
 21
-6.91142
  0
LINE
  8
0
 10
-100.437
 20
-6.91142
 11
-99.8139
 21
-6.99013
  0
LINE
  8
0
 10
-99.8139
 20
-6.99013
 11
99.8139
 21
-6.99013
  0
LINE
  8
0
 10
99.8139
 20
-6.99013
 11
100.437
 21
-6.91142
  0
LINE
  8
0
 10
97.3116
 20
-2.99408
 11
96.9379
 21
-2.94685
  0
LINE
  8
0
 10
96.9379
 20
-2.94685
 11
96.573
 21
-2.85316
  0
LINE
  8
0
 10
96.573
 20
-2.85316
 11
96.2227
 21
-2.71448
  0
LINE
  8
0
 10
96.2227
 20
-2.71448
 11
95.8925
 21
-2.53297
  0
LINE
  8
0
 10
95.8925
 20
-2.53297
 11
95.5877
 21
-2.31154
  0
LINE
  8
0
 10
95.5877
 20
-2.31154
 11
95.3131
 21
-2.05363
  0
LINE
  8
0
 10
95.3131
 20
-2.05363
 11
95.073
 21
-1.76335
  0
LINE
  8
0
 10
95.073
 20
-1.76335
 11
94.8711
 21
-1.44525
  0
LINE
  8
0
 10
94.8711
 20
-1.44525
 11
94.7107
 21
-1.10437
  0
LINE
  8
0
 10
94.7107
 20
-1.10437
 11
94.5943
 21
-0.746063
  0
LINE
  8
0
 10
94.5943
 20
-0.746063
 11
94.5237
 21
-0.375992
  0
LINE
  8
0
 10
94.5237
 20
-0.375992
 11
94.5
 21
0
  0
LINE
  8
0
 10
94.5
 20
0
 11
94.5237
 21
0.375992
  0
LINE
  8
0
 10
94.5237
 20
0.375992
 11
94.5943
 21
0.746063
  0
LINE
  8
0
 10
94.5943
 20
0.746063
 11
94.7107
 21
1.10437
  0
LINE
  8
0
 10
94.7107
 20
1.10437
 11
94.8711
 21
1.44525
  0
LINE
  8
0
 10
94.8711
 20
1.44525
 11
95.073
 21
1.76335
  0
LINE
  8
0
 10
95.073
 20
1.76335
 11
95.3131
 21
2.05363
  0
LINE
  8
0
 10
95.3131
 20
2.05363
 11
95.5877
 21
2.31154
  0
LINE
  8
0
 10
95.5877
 20
2.31154
 11
95.8925
 21
2.53297
  0
LINE
  8
0
 10
95.8925
 20
2.53297
 11
96.2227
 21
2.71448
  0
LINE
  8
0
 10
96.2227
 20
2.71448
 11
96.573
 21
2.85316
  0
LINE
  8
0
 10
96.573
 20
2.85316
 11
96.9379
 21
2.94685
  0
LINE
  8
0
 10
96.9379
 20
2.94685
 11
97.3116
 21
2.99408
  0
LINE
  8
0
 10
97.3116
 20
2.99408
 11
97.6884
 21
2.99408
  0
LINE
  8
0
 10
97.6884
 20
2.99408
 11
98.0621
 21
2.94685
  0
LINE
  8
0
 10
98.0621
 20
2.94685
 11
98.427
 21
2.85316
  0
LINE
  8
0
 10
98.427
 20
2.85316
 11
98.7773
 21
2.71448
  0
LINE
  8
0
 10
98.7773
 20
2.71448
 11
99.1075
 21
2.53297
  0
LINE
  8
0
 10
99.1075
 20
2.53297
 11
99.4123
 21
2.31154
  0
LINE
  8
0
 10
99.4123
 20
2.31154
 11
99.6869
 21
2.05363
  0
LINE
  8
0
 10
99.6869
 20
2.05363
 11
99.927
 21
1.76335
  0
LINE
  8
0
 10
99.927
 20
1.76335
 11
100.129
 21
1.44525
  0
LINE
  8
0
 10
100.129
 20
1.44525
 11
100.289
 21
1.10437
  0
LINE
  8
0
 10
100.289
 20
1.10437
 11
100.406
 21
0.746063
  0
LINE
  8
0
 10
100.406
 20
0.746063
 11
100.476
 21
0.375992
  0
LINE
  8
0
 10
100.476
 20
0.375992
 11
100.5
 21
0
  0
LINE
  8
0
 10
100.5
 20
0
 11
100.476
 21
-0.375992
  0
LINE
  8
0
 10
100.476
 20
-0.375992
 11
100.406
 21
-0.746063
  0
LINE
  8
0
 10
100.406
 20
-0.746063
 11
100.289
 21
-1.10437
  0
LINE
  8
0
 10
100.289
 20
-1.10437
 11
100.129
 21
-1.44525
  0
LINE
  8
0
 10
100.129
 20
-1.44525
 11
99.927
 21
-1.76335
  0
LINE
  8
0
 10
99.927
 20
-1.76335
 11
99.6869
 21
-2.05363
  0
LINE
  8
0
 10
99.6869
 20
-2.05363
 11
99.4123
 21
-2.31154
  0
LINE
  8
0
 10
99.4123
 20
-2.31154
 11
99.1075
 21
-2.53297
  0
LINE
  8
0
 10
99.1075
 20
-2.53297
 11
98.7773
 21
-2.71448
  0
LINE
  8
0
 10
98.7773
 20
-2.71448
 11
98.427
 21
-2.85316
  0
LINE
  8
0
 10
98.427
 20
-2.85316
 11
98.0621
 21
-2.94685
  0
LINE
  8
0
 10
98.0621
 20
-2.94685
 11
97.6884
 21
-2.99408
  0
LINE
  8
0
 10
97.6884
 20
-2.99408
 11
97.3116
 21
-2.99408
  0
LINE
  8
0
 10
-97.6884
 20
-2.99408
 11
-98.0621
 21
-2.94685
  0
LINE
  8
0
 10
-98.0621
 20
-2.94685
 11
-98.427
 21
-2.85316
  0
LINE
  8
0
 10
-98.427
 20
-2.85316
 11
-98.7773
 21
-2.71448
  0
LINE
  8
0
 10
-98.7773
 20
-2.71448
 11
-99.1075
 21
-2.53297
  0
LINE
  8
0
 10
-99.1075
 20
-2.53297
 11
-99.4123
 21
-2.31154
  0
LINE
  8
0
 10
-99.4123
 20
-2.31154
 11
-99.6869
 21
-2.05363
  0
LINE
  8
0
 10
-99.6869
 20
-2.05363
 11
-99.927
 21
-1.76335
  0
LINE
  8
0
 10
-99.927
 20
-1.76335
 11
-100.129
 21
-1.44525
  0
LINE
  8
0
 10
-100.129
 20
-1.44525
 11
-100.289
 21
-1.10437
  0
LINE
  8
0
 10
-100.289
 20
-1.10437
 11
-100.406
 21
-0.746063
  0
LINE
  8
0
 10
-100.406
 20
-0.746063
 11
-100.476
 21
-0.375992
  0
LINE
  8
0
 10
-100.476
 20
-0.375992
 11
-100.5
 21
0
  0
LINE
  8
0
 10
-100.5
 20
0
 11
-100.476
 21
0.375992
  0
LINE
  8
0
 10
-100.476
 20
0.375992
 11
-100.406
 21
0.746063
  0
LINE
  8
0
 10
-100.406
 20
0.746063
 11
-100.289
 21
1.10437
  0
LINE
  8
0
 10
-100.289
 20
1.10437
 11
-100.129
 21
1.44525
  0
LINE
  8
0
 10
-100.129
 20
1.44525
 11
-99.927
 21
1.76335
  0
LINE
  8
0
 10
-99.927
 20
1.76335
 11
-99.6869
 21
2.05363
  0
LINE
  8
0
 10
-99.6869
 20
2.05363
 11
-99.4123
 21
2.31154
  0
LINE
  8
0
 10
-99.4123
 20
2.31154
 11
-99.1075
 21
2.53297
  0
LINE
  8
0
 10
-99.1075
 20
2.53297
 11
-98.7773
 21
2.71448
  0
LINE
  8
0
 10
-98.7773
 20
2.71448
 11
-98.427
 21
2.85316
  0
LINE
  8
0
 10
-98.427
 20
2.85316
 11
-98.0621
 21
2.94685
  0
LINE
  8
0
 10
-98.0621
 20
2.94685
 11
-97.6884
 21
2.99408
  0
LINE
  8
0
 10
-97.6884
 20
2.99408
 11
-97.3116
 21
2.99408
  0
LINE
  8
0
 10
-97.3116
 20
2.99408
 11
-96.9379
 21
2.94685
  0
LINE
  8
0
 10
-96.9379
 20
2.94685
 11
-96.573
 21
2.85316
  0
LINE
  8
0
 10
-96.573
 20
2.85316
 11
-96.2227
 21
2.71448
  0
LINE
  8
0
 10
-96.2227
 20
2.71448
 11
-95.8925
 21
2.53297
  0
LINE
  8
0
 10
-95.8925
 20
2.53297
 11
-95.5877
 21
2.31154
  0
LINE
  8
0
 10
-95.5877
 20
2.31154
 11
-95.3131
 21
2.05363
  0
LINE
  8
0
 10
-95.3131
 20
2.05363
 11
-95.073
 21
1.76335
  0
LINE
  8
0
 10
-95.073
 20
1.76335
 11
-94.8711
 21
1.44525
  0
LINE
  8
0
 10
-94.8711
 20
1.44525
 11
-94.7107
 21
1.10437
  0
LINE
  8
0
 10
-94.7107
 20
1.10437
 11
-94.5943
 21
0.746063
  0
LINE
  8
0
 10
-94.5943
 20
0.746063
 11
-94.5237
 21
0.375992
  0
LINE
  8
0
 10
-94.5237
 20
0.375992
 11
-94.5
 21
0
  0
LINE
  8
0
 10
-94.5
 20
0
 11
-94.5237
 21
-0.375992
  0
LINE
  8
0
 10
-94.5237
 20
-0.375992
 11
-94.5943
 21
-0.746063
  0
LINE
  8
0
 10
-94.5943
 20
-0.746063
 11
-94.7107
 21
-1.10437
  0
LINE
  8
0
 10
-94.7107
 20
-1.10437
 11
-94.8711
 21
-1.44525
  0
LINE
  8
0
 10
-94.8711
 20
-1.44525
 11
-95.073
 21
-1.76335
  0
LINE
  8
0
 10
-95.073
 20
-1.76335
 11
-95.3131
 21
-2.05363
  0
LINE
  8
0
 10
-95.3131
 20
-2.05363
 11
-95.5877
 21
-2.31154
  0
LINE
  8
0
 10
-95.5877
 20
-2.31154
 11
-95.8925
 21
-2.53297
  0
LINE
  8
0
 10
-95.8925
 20
-2.53297
 11
-96.2227
 21
-2.71448
  0
LINE
  8
0
 10
-96.2227
 20
-2.71448
 11
-96.573
 21
-2.85316
  0
LINE
  8
0
 10
-96.573
 20
-2.85316
 11
-96.9379
 21
-2.94685
  0
LINE
  8
0
 10
-96.9379
 20
-2.94685
 11
-97.3116
 21
-2.99408
  0
LINE
  8
0
 10
-97.3116
 20
-2.99408
 11
-97.6884
 21
-2.99408
  0
ENDSEC
  0
SECTION
  2
OBJECTS
  0
DICTIONARY
  0
ENDSEC
  0
EOF
