<?xml version="1.0" standalone="no"?>
<!DOCTYPE svg PUBLIC "-//W3C//DTD SVG 1.1//EN" "http://www.w3.org/Graphics/SVG/1.1/DTD/svg11.dtd">
<svg width="90mm" height="206mm" viewBox="-45 -346 90 206" xmlns="http://www.w3.org/2000/svg" version="1.1">
<title>OpenSCAD Model</title>
<path d="
M 40.4369,-302.089 L 41.0451,-302.245 L 41.6289,-302.476 L 42.1791,-302.778 L 42.6871,-303.147 L 43.1448,-303.577
 L 43.5451,-304.061 L 43.8815,-304.591 L 44.1489,-305.159 L 44.3429,-305.757 L 44.4606,-306.373 L 44.5,-307
 L 44.5,-341 L 44.4606,-341.627 L 44.3429,-342.243 L 44.1489,-342.841 L 43.8815,-343.409 L 43.5451,-343.939
 L 43.1448,-344.423 L 42.6871,-344.853 L 42.1791,-345.222 L 41.6289,-345.524 L 41.0451,-345.755 L 40.4369,-345.911
 L 39.8139,-345.99 L -39.8139,-345.99 L -40.4369,-345.911 L -41.0451,-345.755 L -41.6289,-345.524 L -42.1791,-345.222
 L -42.6871,-344.853 L -43.1448,-344.423 L -43.5451,-343.939 L -43.8815,-343.409 L -44.1489,-342.841 L -44.3429,-342.243
 L -44.4606,-341.627 L -44.5,-341 L -44.5,-307 L -44.4606,-306.373 L -44.3429,-305.757 L -44.1489,-305.159
 L -43.8815,-304.591 L -43.5451,-304.061 L -43.1448,-303.577 L -42.6871,-303.147 L -42.1791,-302.778 L -41.6289,-302.476
 L -41.0451,-302.245 L -40.4369,-302.089 L -39.8139,-302.01 L 39.8139,-302.01 z
M -22.6884,-336.006 L -23.0621,-336.053 L -23.427,-336.147 L -23.7773,-336.286 L -24.1075,-336.467 L -24.4123,-336.688
 L -24.6869,-336.946 L -24.927,-337.237 L -25.1289,-337.555 L -25.2893,-337.896 L -25.4057,-338.254 L -25.4763,-338.624
 L -25.5,-339 L -25.4763,-339.376 L -25.4057,-339.746 L -25.2893,-340.104 L -25.1289,-340.445 L -24.927,-340.763
 L -24.6869,-341.054 L -24.4123,-341.312 L -24.1075,-341.533 L -23.7773,-341.714 L -23.427,-341.853 L -23.0621,-341.947
 L -22.6884,-341.994 L -22.3116,-341.994 L -21.9379,-341.947 L -21.5729,-341.853 L -21.2227,-341.714 L -20.8925,-341.533
 L -20.5877,-341.312 L -20.3131,-341.054 L -20.0729,-340.763 L -19.8711,-340.445 L -19.7107,-340.104 L -19.5942,-339.746
 L -19.5237,-339.376 L -19.5,-339 L -19.5237,-338.624 L -19.5942,-338.254 L -19.7107,-337.896 L -19.8711,-337.555
 L -20.0729,-337.237 L -20.3131,-336.946 L -20.5877,-336.688 L -20.8925,-336.467 L -21.2227,-336.286 L -21.5729,-336.147
 L -21.9379,-336.053 L -22.3116,-336.006 z
M -37.6884,-336.006 L -38.0621,-336.053 L -38.427,-336.147 L -38.7773,-336.286 L -39.1075,-336.467 L -39.4123,-336.688
 L -39.6869,-336.946 L -39.927,-337.237 L -40.1289,-337.555 L -40.2893,-337.896 L -40.4057,-338.254 L -40.4763,-338.624
 L -40.5,-339 L -40.4763,-339.376 L -40.4057,-339.746 L -40.2893,-340.104 L -40.1289,-340.445 L -39.927,-340.763
 L -39.6869,-341.054 L -39.4123,-341.312 L -39.1075,-341.533 L -38.7773,-341.714 L -38.427,-341.853 L -38.0621,-341.947
 L -37.6884,-341.994 L -37.3116,-341.994 L -36.9379,-341.947 L -36.5729,-341.853 L -36.2227,-341.714 L -35.8925,-341.533
 L -35.5877,-341.312 L -35.3131,-341.054 L -35.0729,-340.763 L -34.8711,-340.445 L -34.7107,-340.104 L -34.5942,-339.746
 L -34.5237,-339.376 L -34.5,-339 L -34.5237,-338.624 L -34.5942,-338.254 L -34.7107,-337.896 L -34.8711,-337.555
 L -35.0729,-337.237 L -35.3131,-336.946 L -35.5877,-336.688 L -35.8925,-336.467 L -36.2227,-336.286 L -36.5729,-336.147
 L -36.9379,-336.053 L -37.3116,-336.006 z
M -7.68837,-336.006 L -8.06213,-336.053 L -8.42705,-336.147 L -8.77733,-336.286 L -9.10747,-336.467 L -9.41226,-336.688
 L -9.6869,-336.946 L -9.92705,-337.237 L -10.1289,-337.555 L -10.2893,-337.896 L -10.4057,-338.254 L -10.4763,-338.624
 L -10.5,-339 L -10.4763,-339.376 L -10.4057,-339.746 L -10.2893,-340.104 L -10.1289,-340.445 L -9.92705,-340.763
 L -9.6869,-341.054 L -9.41226,-341.312 L -9.10747,-341.533 L -8.77733,-341.714 L -8.42705,-341.853 L -8.06213,-341.947
 L -7.68837,-341.994 L -7.31161,-341.994 L -6.93785,-341.947 L -6.57294,-341.853 L -6.22266,-341.714 L -5.89252,-341.533
 L -5.58772,-341.312 L -5.31308,-341.054 L -5.07294,-340.763 L -4.87108,-340.445 L -4.71066,-340.104 L -4.59424,-339.746
 L -4.52365,-339.376 L -4.5,-339 L -4.52365,-338.624 L -4.59424,-338.254 L -4.71066,-337.896 L -4.87108,-337.555
 L -5.07294,-337.237 L -5.31308,-336.946 L -5.58772,-336.688 L -5.89252,-336.467 L -6.22266,-336.286 L -6.57294,-336.147
 L -6.93785,-336.053 L -7.31161,-336.006 z
M 37.3116,-336.006 L 36.9379,-336.053 L 36.5729,-336.147 L 36.2227,-336.286 L 35.8925,-336.467 L 35.5877,-336.688
 L 35.3131,-336.946 L 35.0729,-337.237 L 34.8711,-337.555 L 34.7107,-337.896 L 34.5942,-338.254 L 34.5237,-338.624
 L 34.5,-339 L 34.5237,-339.376 L 34.5942,-339.746 L 34.7107,-340.104 L 34.8711,-340.445 L 35.0729,-340.763
 L 35.3131,-341.054 L 35.5877,-341.312 L 35.8925,-341.533 L 36.2227,-341.714 L 36.5729,-341.853 L 36.9379,-341.947
 L 37.3116,-341.994 L 37.6884,-341.994 L 38.0621,-341.947 L 38.427,-341.853 L 38.7773,-341.714 L 39.1075,-341.533
 L 39.4123,-341.312 L 39.6869,-341.054 L 39.927,-340.763 L 40.1289,-340.445 L 40.2893,-340.104 L 40.4057,-339.746
 L 40.4763,-339.376 L 40.5,-339 L 40.4763,-338.624 L 40.4057,-338.254 L 40.2893,-337.896 L 40.1289,-337.555
 L 39.927,-337.237 L 39.6869,-336.946 L 39.4123,-336.688 L 39.1075,-336.467 L 38.7773,-336.286 L 38.427,-336.147
 L 38.0621,-336.053 L 37.6884,-336.006 z
M 7.31161,-336.006 L 6.93785,-336.053 L 6.57294,-336.147 L 6.22266,-336.286 L 5.89252,-336.467 L 5.58772,-336.688
 L 5.31308,-336.946 L 5.07294,-337.237 L 4.87108,-337.555 L 4.71066,-337.896 L 4.59424,-338.254 L 4.52365,-338.624
 L 4.5,-339 L 4.52365,-339.376 L 4.59424,-339.746 L 4.71066,-340.104 L 4.87108,-340.445 L 5.07294,-340.763
 L 5.31308,-341.054 L 5.58772,-341.312 L 5.89252,-341.533 L 6.22266,-341.714 L 6.57294,-341.853 L 6.93785,-341.947
 L 7.31161,-341.994 L 7.68837,-341.994 L 8.06213,-341.947 L 8.42705,-341.853 L 8.77733,-341.714 L 9.10747,-341.533
 L 9.41226,-341.312 L 9.6869,-341.054 L 9.92705,-340.763 L 10.1289,-340.445 L 10.2893,-340.104 L 10.4057,-339.746
 L 10.4763,-339.376 L 10.5,-339 L 10.4763,-338.624 L 10.4057,-338.254 L 10.2893,-337.896 L 10.1289,-337.555
 L 9.92705,-337.237 L 9.6869,-336.946 L 9.41226,-336.688 L 9.10747,-336.467 L 8.77733,-336.286 L 8.42705,-336.147
 L 8.06213,-336.053 L 7.68837,-336.006 z
M 22.3116,-336.006 L 21.9379,-336.053 L 21.5729,-336.147 L 21.2227,-336.286 L 20.8925,-336.467 L 20.5877,-336.688
 L 20.3131,-336.946 L 20.0729,-337.237 L 19.8711,-337.555 L 19.7107,-337.896 L 19.5942,-338.254 L 19.5237,-338.624
 L 19.5,-339 L 19.5237,-339.376 L 19.5942,-339.746 L 19.7107,-340.104 L 19.8711,-340.445 L 20.0729,-340.763
 L 20.3131,-341.054 L 20.5877,-341.312 L 20.8925,-341.533 L 21.2227,-341.714 L 21.5729,-341.853 L 21.9379,-341.947
 L 22.3116,-341.994 L 22.6884,-341.994 L 23.0621,-341.947 L 23.427,-341.853 L 23.7773,-341.714 L 24.1075,-341.533
 L 24.4123,-341.312 L 24.6869,-341.054 L 24.927,-340.763 L 25.1289,-340.445 L 25.2893,-340.104 L 25.4057,-339.746
 L 25.4763,-339.376 L 25.5,-339 L 25.4763,-338.624 L 25.4057,-338.254 L 25.2893,-337.896 L 25.1289,-337.555
 L 24.927,-337.237 L 24.6869,-336.946 L 24.4123,-336.688 L 24.1075,-336.467 L 23.7773,-336.286 L 23.427,-336.147
 L 23.0621,-336.053 L 22.6884,-336.006 z
M 37.3116,-321.006 L 36.9379,-321.053 L 36.5729,-321.147 L 36.2227,-321.286 L 35.8925,-321.467 L 35.5877,-321.688
 L 35.3131,-321.946 L 35.0729,-322.237 L 34.8711,-322.555 L 34.7107,-322.896 L 34.5942,-323.254 L 34.5237,-323.624
 L 34.5,-324 L 34.5237,-324.376 L 34.5942,-324.746 L 34.7107,-325.104 L 34.8711,-325.445 L 35.0729,-325.763
 L 35.3131,-326.054 L 35.5877,-326.312 L 35.8925,-326.533 L 36.2227,-326.714 L 36.5729,-326.853 L 36.9379,-326.947
 L 37.3116,-326.994 L 37.6884,-326.994 L 38.0621,-326.947 L 38.427,-326.853 L 38.7773,-326.714 L 39.1075,-326.533
 L 39.4123,-326.312 L 39.6869,-326.054 L 39.927,-325.763 L 40.1289,-325.445 L 40.2893,-325.104 L 40.4057,-324.746
 L 40.4763,-324.376 L 40.5,-324 L 40.4763,-323.624 L 40.4057,-323.254 L 40.2893,-322.896 L 40.1289,-322.555
 L 39.927,-322.237 L 39.6869,-321.946 L 39.4123,-321.688 L 39.1075,-321.467 L 38.7773,-321.286 L 38.427,-321.147
 L 38.0621,-321.053 L 37.6884,-321.006 z
M 22.3116,-321.006 L 21.9379,-321.053 L 21.5729,-321.147 L 21.2227,-321.286 L 20.8925,-321.467 L 20.5877,-321.688
 L 20.3131,-321.946 L 20.0729,-322.237 L 19.8711,-322.555 L 19.7107,-322.896 L 19.5942,-323.254 L 19.5237,-323.624
 L 19.5,-324 L 19.5237,-324.376 L 19.5942,-324.746 L 19.7107,-325.104 L 19.8711,-325.445 L 20.0729,-325.763
 L 20.3131,-326.054 L 20.5877,-326.312 L 20.8925,-326.533 L 21.2227,-326.714 L 21.5729,-326.853 L 21.9379,-326.947
 L 22.3116,-326.994 L 22.6884,-326.994 L 23.0621,-326.947 L 23.427,-326.853 L 23.7773,-326.714 L 24.1075,-326.533
 L 24.4123,-326.312 L 24.6869,-326.054 L 24.927,-325.763 L 25.1289,-325.445 L 25.2893,-325.104 L 25.4057,-324.746
 L 25.4763,-324.376 L 25.5,-324 L 25.4763,-323.624 L 25.4057,-323.254 L 25.2893,-322.896 L 25.1289,-322.555
 L 24.927,-322.237 L 24.6869,-321.946 L 24.4123,-321.688 L 24.1075,-321.467 L 23.7773,-321.286 L 23.427,-321.147
 L 23.0621,-321.053 L 22.6884,-321.006 z
M -22.6884,-321.006 L -23.0621,-321.053 L -23.427,-321.147 L -23.7773,-321.286 L -24.1075,-321.467 L -24.4123,-321.688
 L -24.6869,-321.946 L -24.927,-322.237 L -25.1289,-322.555 L -25.2893,-322.896 L -25.4057,-323.254 L -25.4763,-323.624
 L -25.5,-324 L -25.4763,-324.376 L -25.4057,-324.746 L -25.2893,-325.104 L -25.1289,-325.445 L -24.927,-325.763
 L -24.6869,-326.054 L -24.4123,-326.312 L -24.1075,-326.533 L -23.7773,-326.714 L -23.427,-326.853 L -23.0621,-326.947
 L -22.6884,-326.994 L -22.3116,-326.994 L -21.9379,-326.947 L -21.5729,-326.853 L -21.2227,-326.714 L -20.8925,-326.533
 L -20.5877,-326.312 L -20.3131,-326.054 L -20.0729,-325.763 L -19.8711,-325.445 L -19.7107,-325.104 L -19.5942,-324.746
 L -19.5237,-324.376 L -19.5,-324 L -19.5237,-323.624 L -19.5942,-323.254 L -19.7107,-322.896 L -19.8711,-322.555
 L -20.0729,-322.237 L -20.3131,-321.946 L -20.5877,-321.688 L -20.8925,-321.467 L -21.2227,-321.286 L -21.5729,-321.147
 L -21.9379,-321.053 L -22.3116,-321.006 z
M 7.31161,-321.006 L 6.93785,-321.053 L 6.57294,-321.147 L 6.22266,-321.286 L 5.89252,-321.467 L 5.58772,-321.688
 L 5.31308,-321.946 L 5.07294,-322.237 L 4.87108,-322.555 L 4.71066,-322.896 L 4.59424,-323.254 L 4.52365,-323.624
 L 4.5,-324 L 4.52365,-324.376 L 4.59424,-324.746 L 4.71066,-325.104 L 4.87108,-325.445 L 5.07294,-325.763
 L 5.31308,-326.054 L 5.58772,-326.312 L 5.89252,-326.533 L 6.22266,-326.714 L 6.57294,-326.853 L 6.93785,-326.947
 L 7.31161,-326.994 L 7.68837,-326.994 L 8.06213,-326.947 L 8.42705,-326.853 L 8.77733,-326.714 L 9.10747,-326.533
 L 9.41226,-326.312 L 9.6869,-326.054 L 9.92705,-325.763 L 10.1289,-325.445 L 10.2893,-325.104 L 10.4057,-324.746
 L 10.4763,-324.376 L 10.5,-324 L 10.4763,-323.624 L 10.4057,-323.254 L 10.2893,-322.896 L 10.1289,-322.555
 L 9.92705,-322.237 L 9.6869,-321.946 L 9.41226,-321.688 L 9.10747,-321.467 L 8.77733,-321.286 L 8.42705,-321.147
 L 8.06213,-321.053 L 7.68837,-321.006 z
M -37.6884,-321.006 L -38.0621,-321.053 L -38.427,-321.147 L -38.7773,-321.286 L -39.1075,-321.467 L -39.4123,-321.688
 L -39.6869,-321.946 L -39.927,-322.237 L -40.1289,-322.555 L -40.2893,-322.896 L -40.4057,-323.254 L -40.4763,-323.624
 L -40.5,-324 L -40.4763,-324.376 L -40.4057,-324.746 L -40.2893,-325.104 L -40.1289,-325.445 L -39.927,-325.763
 L -39.6869,-326.054 L -39.4123,-326.312 L -39.1075,-326.533 L -38.7773,-326.714 L -38.427,-326.853 L -38.0621,-326.947
 L -37.6884,-326.994 L -37.3116,-326.994 L -36.9379,-326.947 L -36.5729,-326.853 L -36.2227,-326.714 L -35.8925,-326.533
 L -35.5877,-326.312 L -35.3131,-326.054 L -35.0729,-325.763 L -34.8711,-325.445 L -34.7107,-325.104 L -34.5942,-324.746
 L -34.5237,-324.376 L -34.5,-324 L -34.5237,-323.624 L -34.5942,-323.254 L -34.7107,-322.896 L -34.8711,-322.555
 L -35.0729,-322.237 L -35.3131,-321.946 L -35.5877,-321.688 L -35.8925,-321.467 L -36.2227,-321.286 L -36.5729,-321.147
 L -36.9379,-321.053 L -37.3116,-321.006 z
M -7.68837,-321.006 L -8.06213,-321.053 L -8.42705,-321.147 L -8.77733,-321.286 L -9.10747,-321.467 L -9.41226,-321.688
 L -9.6869,-321.946 L -9.92705,-322.237 L -10.1289,-322.555 L -10.2893,-322.896 L -10.4057,-323.254 L -10.4763,-323.624
 L -10.5,-324 L -10.4763,-324.376 L -10.4057,-324.746 L -10.2893,-325.104 L -10.1289,-325.445 L -9.92705,-325.763
 L -9.6869,-326.054 L -9.41226,-326.312 L -9.10747,-326.533 L -8.77733,-326.714 L -8.42705,-326.853 L -8.06213,-326.947
 L -7.68837,-326.994 L -7.31161,-326.994 L -6.93785,-326.947 L -6.57294,-326.853 L -6.22266,-326.714 L -5.89252,-326.533
 L -5.58772,-326.312 L -5.31308,-326.054 L -5.07294,-325.763 L -4.87108,-325.445 L -4.71066,-325.104 L -4.59424,-324.746
 L -4.52365,-324.376 L -4.5,-324 L -4.52365,-323.624 L -4.59424,-323.254 L -4.71066,-322.896 L -4.87108,-322.555
 L -5.07294,-322.237 L -5.31308,-321.946 L -5.58772,-321.688 L -5.89252,-321.467 L -6.22266,-321.286 L -6.57294,-321.147
 L -6.93785,-321.053 L -7.31161,-321.006 z
M 37.3116,-306.006 L 36.9379,-306.053 L 36.5729,-306.147 L 36.2227,-306.286 L 35.8925,-306.467 L 35.5877,-306.688
 L 35.3131,-306.946 L 35.0729,-307.237 L 34.8711,-307.555 L 34.7107,-307.896 L 34.5942,-308.254 L 34.5237,-308.624
 L 34.5,-309 L 34.5237,-309.376 L 34.5942,-309.746 L 34.7107,-310.104 L 34.8711,-310.445 L 35.0729,-310.763
 L 35.3131,-311.054 L 35.5877,-311.312 L 35.8925,-311.533 L 36.2227,-311.714 L 36.5729,-311.853 L 36.9379,-311.947
 L 37.3116,-311.994 L 37.6884,-311.994 L 38.0621,-311.947 L 38.427,-311.853 L 38.7773,-311.714 L 39.1075,-311.533
 L 39.4123,-311.312 L 39.6869,-311.054 L 39.927,-310.763 L 40.1289,-310.445 L 40.2893,-310.104 L 40.4057,-309.746
 L 40.4763,-309.376 L 40.5,-309 L 40.4763,-308.624 L 40.4057,-308.254 L 40.2893,-307.896 L 40.1289,-307.555
 L 39.927,-307.237 L 39.6869,-306.946 L 39.4123,-306.688 L 39.1075,-306.467 L 38.7773,-306.286 L 38.427,-306.147
 L 38.0621,-306.053 L 37.6884,-306.006 z
M 22.3116,-306.006 L 21.9379,-306.053 L 21.5729,-306.147 L 21.2227,-306.286 L 20.8925,-306.467 L 20.5877,-306.688
 L 20.3131,-306.946 L 20.0729,-307.237 L 19.8711,-307.555 L 19.7107,-307.896 L 19.5942,-308.254 L 19.5237,-308.624
 L 19.5,-309 L 19.5237,-309.376 L 19.5942,-309.746 L 19.7107,-310.104 L 19.8711,-310.445 L 20.0729,-310.763
 L 20.3131,-311.054 L 20.5877,-311.312 L 20.8925,-311.533 L 21.2227,-311.714 L 21.5729,-311.853 L 21.9379,-311.947
 L 22.3116,-311.994 L 22.6884,-311.994 L 23.0621,-311.947 L 23.427,-311.853 L 23.7773,-311.714 L 24.1075,-311.533
 L 24.4123,-311.312 L 24.6869,-311.054 L 24.927,-310.763 L 25.1289,-310.445 L 25.2893,-310.104 L 25.4057,-309.746
 L 25.4763,-309.376 L 25.5,-309 L 25.4763,-308.624 L 25.4057,-308.254 L 25.2893,-307.896 L 25.1289,-307.555
 L 24.927,-307.237 L 24.6869,-306.946 L 24.4123,-306.688 L 24.1075,-306.467 L 23.7773,-306.286 L 23.427,-306.147
 L 23.0621,-306.053 L 22.6884,-306.006 z
M -22.6884,-306.006 L -23.0621,-306.053 L -23.427,-306.147 L -23.7773,-306.286 L -24.1075,-306.467 L -24.4123,-306.688
 L -24.6869,-306.946 L -24.927,-307.237 L -25.1289,-307.555 L -25.2893,-307.896 L -25.4057,-308.254 L -25.4763,-308.624
 L -25.5,-309 L -25.4763,-309.376 L -25.4057,-309.746 L -25.2893,-310.104 L -25.1289,-310.445 L -24.927,-310.763
 L -24.6869,-311.054 L -24.4123,-311.312 L -24.1075,-311.533 L -23.7773,-311.714 L -23.427,-311.853 L -23.0621,-311.947
 L -22.6884,-311.994 L -22.3116,-311.994 L -21.9379,-311.947 L -21.5729,-311.853 L -21.2227,-311.714 L -20.8925,-311.533
 L -20.5877,-311.312 L -20.3131,-311.054 L -20.0729,-310.763 L -19.8711,-310.445 L -19.7107,-310.104 L -19.5942,-309.746
 L -19.5237,-309.376 L -19.5,-309 L -19.5237,-308.624 L -19.5942,-308.254 L -19.7107,-307.896 L -19.8711,-307.555
 L -20.0729,-307.237 L -20.3131,-306.946 L -20.5877,-306.688 L -20.8925,-306.467 L -21.2227,-306.286 L -21.5729,-306.147
 L -21.9379,-306.053 L -22.3116,-306.006 z
M -37.6884,-306.006 L -38.0621,-306.053 L -38.427,-306.147 L -38.7773,-306.286 L -39.1075,-306.467 L -39.4123,-306.688
 L -39.6869,-306.946 L -39.927,-307.237 L -40.1289,-307.555 L -40.2893,-307.896 L -40.4057,-308.254 L -40.4763,-308.624
 L -40.5,-309 L -40.4763,-309.376 L -40.4057,-309.746 L -40.2893,-310.104 L -40.1289,-310.445 L -39.927,-310.763
 L -39.6869,-311.054 L -39.4123,-311.312 L -39.1075,-311.533 L -38.7773,-311.714 L -38.427,-311.853 L -38.0621,-311.947
 L -37.6884,-311.994 L -37.3116,-311.994 L -36.9379,-311.947 L -36.5729,-311.853 L -36.2227,-311.714 L -35.8925,-311.533
 L -35.5877,-311.312 L -35.3131,-311.054 L -35.0729,-310.763 L -34.8711,-310.445 L -34.7107,-310.104 L -34.5942,-309.746
 L -34.5237,-309.376 L -34.5,-309 L -34.5237,-308.624 L -34.5942,-308.254 L -34.7107,-307.896 L -34.8711,-307.555
 L -35.0729,-307.237 L -35.3131,-306.946 L -35.5877,-306.688 L -35.8925,-306.467 L -36.2227,-306.286 L -36.5729,-306.147
 L -36.9379,-306.053 L -37.3116,-306.006 z
M -7.68837,-306.006 L -8.06213,-306.053 L -8.42705,-306.147 L -8.77733,-306.286 L -9.10747,-306.467 L -9.41226,-306.688
 L -9.6869,-306.946 L -9.92705,-307.237 L -10.1289,-307.555 L -10.2893,-307.896 L -10.4057,-308.254 L -10.4763,-308.624
 L -10.5,-309 L -10.4763,-309.376 L -10.4057,-309.746 L -10.2893,-310.104 L -10.1289,-310.445 L -9.92705,-310.763
 L -9.6869,-311.054 L -9.41226,-311.312 L -9.10747,-311.533 L -8.77733,-311.714 L -8.42705,-311.853 L -8.06213,-311.947
 L -7.68837,-311.994 L -7.31161,-311.994 L -6.93785,-311.947 L -6.57294,-311.853 L -6.22266,-311.714 L -5.89252,-311.533
 L -5.58772,-311.312 L -5.31308,-311.054 L -5.07294,-310.763 L -4.87108,-310.445 L -4.71066,-310.104 L -4.59424,-309.746
 L -4.52365,-309.376 L -4.5,-309 L -4.52365,-308.624 L -4.59424,-308.254 L -4.71066,-307.896 L -4.87108,-307.555
 L -5.07294,-307.237 L -5.31308,-306.946 L -5.58772,-306.688 L -5.89252,-306.467 L -6.22266,-306.286 L -6.57294,-306.147
 L -6.93785,-306.053 L -7.31161,-306.006 z
M 7.31161,-306.006 L 6.93785,-306.053 L 6.57294,-306.147 L 6.22266,-306.286 L 5.89252,-306.467 L 5.58772,-306.688
 L 5.31308,-306.946 L 5.07294,-307.237 L 4.87108,-307.555 L 4.71066,-307.896 L 4.59424,-308.254 L 4.52365,-308.624
 L 4.5,-309 L 4.52365,-309.376 L 4.59424,-309.746 L 4.71066,-310.104 L 4.87108,-310.445 L 5.07294,-310.763
 L 5.31308,-311.054 L 5.58772,-311.312 L 5.89252,-311.533 L 6.22266,-311.714 L 6.57294,-311.853 L 6.93785,-311.947
 L 7.31161,-311.994 L 7.68837,-311.994 L 8.06213,-311.947 L 8.42705,-311.853 L 8.77733,-311.714 L 9.10747,-311.533
 L 9.41226,-311.312 L 9.6869,-311.054 L 9.92705,-310.763 L 10.1289,-310.445 L 10.2893,-310.104 L 10.4057,-309.746
 L 10.4763,-309.376 L 10.5,-309 L 10.4763,-308.624 L 10.4057,-308.254 L 10.2893,-307.896 L 10.1289,-307.555
 L 9.92705,-307.237 L 9.6869,-306.946 L 9.41226,-306.688 L 9.10747,-306.467 L 8.77733,-306.286 L 8.42705,-306.147
 L 8.06213,-306.053 L 7.68837,-306.006 z
M 40.4369,-248.089 L 41.0451,-248.245 L 41.6289,-248.476 L 42.1791,-248.778 L 42.6871,-249.147 L 43.1448,-249.577
 L 43.5451,-250.061 L 43.8815,-250.591 L 44.1489,-251.159 L 44.3429,-251.757 L 44.4606,-252.373 L 44.5,-253
 L 44.5,-287 L 44.4606,-287.627 L 44.3429,-288.243 L 44.1489,-288.841 L 43.8815,-289.409 L 43.5451,-289.939
 L 43.1448,-290.423 L 42.6871,-290.853 L 42.1791,-291.222 L 41.6289,-291.524 L 41.0451,-291.755 L 40.4369,-291.911
 L 39.8139,-291.99 L -39.8139,-291.99 L -40.4369,-291.911 L -41.0451,-291.755 L -41.6289,-291.524 L -42.1791,-291.222
 L -42.6871,-290.853 L -43.1448,-290.423 L -43.5451,-289.939 L -43.8815,-289.409 L -44.1489,-288.841 L -44.3429,-288.243
 L -44.4606,-287.627 L -44.5,-287 L -44.5,-253 L -44.4606,-252.373 L -44.3429,-251.757 L -44.1489,-251.159
 L -43.8815,-250.591 L -43.5451,-250.061 L -43.1448,-249.577 L -42.6871,-249.147 L -42.1791,-248.778 L -41.6289,-248.476
 L -41.0451,-248.245 L -40.4369,-248.089 L -39.8139,-248.01 L 39.8139,-248.01 z
M -22.6884,-282.006 L -23.0621,-282.053 L -23.427,-282.147 L -23.7773,-282.286 L -24.1075,-282.467 L -24.4123,-282.688
 L -24.6869,-282.946 L -24.927,-283.237 L -25.1289,-283.555 L -25.2893,-283.896 L -25.4057,-284.254 L -25.4763,-284.624
 L -25.5,-285 L -25.4763,-285.376 L -25.4057,-285.746 L -25.2893,-286.104 L -25.1289,-286.445 L -24.927,-286.763
 L -24.6869,-287.054 L -24.4123,-287.312 L -24.1075,-287.533 L -23.7773,-287.714 L -23.427,-287.853 L -23.0621,-287.947
 L -22.6884,-287.994 L -22.3116,-287.994 L -21.9379,-287.947 L -21.5729,-287.853 L -21.2227,-287.714 L -20.8925,-287.533
 L -20.5877,-287.312 L -20.3131,-287.054 L -20.0729,-286.763 L -19.8711,-286.445 L -19.7107,-286.104 L -19.5942,-285.746
 L -19.5237,-285.376 L -19.5,-285 L -19.5237,-284.624 L -19.5942,-284.254 L -19.7107,-283.896 L -19.8711,-283.555
 L -20.0729,-283.237 L -20.3131,-282.946 L -20.5877,-282.688 L -20.8925,-282.467 L -21.2227,-282.286 L -21.5729,-282.147
 L -21.9379,-282.053 L -22.3116,-282.006 z
M -37.6884,-282.006 L -38.0621,-282.053 L -38.427,-282.147 L -38.7773,-282.286 L -39.1075,-282.467 L -39.4123,-282.688
 L -39.6869,-282.946 L -39.927,-283.237 L -40.1289,-283.555 L -40.2893,-283.896 L -40.4057,-284.254 L -40.4763,-284.624
 L -40.5,-285 L -40.4763,-285.376 L -40.4057,-285.746 L -40.2893,-286.104 L -40.1289,-286.445 L -39.927,-286.763
 L -39.6869,-287.054 L -39.4123,-287.312 L -39.1075,-287.533 L -38.7773,-287.714 L -38.427,-287.853 L -38.0621,-287.947
 L -37.6884,-287.994 L -37.3116,-287.994 L -36.9379,-287.947 L -36.5729,-287.853 L -36.2227,-287.714 L -35.8925,-287.533
 L -35.5877,-287.312 L -35.3131,-287.054 L -35.0729,-286.763 L -34.8711,-286.445 L -34.7107,-286.104 L -34.5942,-285.746
 L -34.5237,-285.376 L -34.5,-285 L -34.5237,-284.624 L -34.5942,-284.254 L -34.7107,-283.896 L -34.8711,-283.555
 L -35.0729,-283.237 L -35.3131,-282.946 L -35.5877,-282.688 L -35.8925,-282.467 L -36.2227,-282.286 L -36.5729,-282.147
 L -36.9379,-282.053 L -37.3116,-282.006 z
M -7.68837,-282.006 L -8.06213,-282.053 L -8.42705,-282.147 L -8.77733,-282.286 L -9.10747,-282.467 L -9.41226,-282.688
 L -9.6869,-282.946 L -9.92705,-283.237 L -10.1289,-283.555 L -10.2893,-283.896 L -10.4057,-284.254 L -10.4763,-284.624
 L -10.5,-285 L -10.4763,-285.376 L -10.4057,-285.746 L -10.2893,-286.104 L -10.1289,-286.445 L -9.92705,-286.763
 L -9.6869,-287.054 L -9.41226,-287.312 L -9.10747,-287.533 L -8.77733,-287.714 L -8.42705,-287.853 L -8.06213,-287.947
 L -7.68837,-287.994 L -7.31161,-287.994 L -6.93785,-287.947 L -6.57294,-287.853 L -6.22266,-287.714 L -5.89252,-287.533
 L -5.58772,-287.312 L -5.31308,-287.054 L -5.07294,-286.763 L -4.87108,-286.445 L -4.71066,-286.104 L -4.59424,-285.746
 L -4.52365,-285.376 L -4.5,-285 L -4.52365,-284.624 L -4.59424,-284.254 L -4.71066,-283.896 L -4.87108,-283.555
 L -5.07294,-283.237 L -5.31308,-282.946 L -5.58772,-282.688 L -5.89252,-282.467 L -6.22266,-282.286 L -6.57294,-282.147
 L -6.93785,-282.053 L -7.31161,-282.006 z
M 37.3116,-282.006 L 36.9379,-282.053 L 36.5729,-282.147 L 36.2227,-282.286 L 35.8925,-282.467 L 35.5877,-282.688
 L 35.3131,-282.946 L 35.0729,-283.237 L 34.8711,-283.555 L 34.7107,-283.896 L 34.5942,-284.254 L 34.5237,-284.624
 L 34.5,-285 L 34.5237,-285.376 L 34.5942,-285.746 L 34.7107,-286.104 L 34.8711,-286.445 L 35.0729,-286.763
 L 35.3131,-287.054 L 35.5877,-287.312 L 35.8925,-287.533 L 36.2227,-287.714 L 36.5729,-287.853 L 36.9379,-287.947
 L 37.3116,-287.994 L 37.6884,-287.994 L 38.0621,-287.947 L 38.427,-287.853 L 38.7773,-287.714 L 39.1075,-287.533
 L 39.4123,-287.312 L 39.6869,-287.054 L 39.927,-286.763 L 40.1289,-286.445 L 40.2893,-286.104 L 40.4057,-285.746
 L 40.4763,-285.376 L 40.5,-285 L 40.4763,-284.624 L 40.4057,-284.254 L 40.2893,-283.896 L 40.1289,-283.555
 L 39.927,-283.237 L 39.6869,-282.946 L 39.4123,-282.688 L 39.1075,-282.467 L 38.7773,-282.286 L 38.427,-282.147
 L 38.0621,-282.053 L 37.6884,-282.006 z
M 7.31161,-282.006 L 6.93785,-282.053 L 6.57294,-282.147 L 6.22266,-282.286 L 5.89252,-282.467 L 5.58772,-282.688
 L 5.31308,-282.946 L 5.07294,-283.237 L 4.87108,-283.555 L 4.71066,-283.896 L 4.59424,-284.254 L 4.52365,-284.624
 L 4.5,-285 L 4.52365,-285.376 L 4.59424,-285.746 L 4.71066,-286.104 L 4.87108,-286.445 L 5.07294,-286.763
 L 5.31308,-287.054 L 5.58772,-287.312 L 5.89252,-287.533 L 6.22266,-287.714 L 6.57294,-287.853 L 6.93785,-287.947
 L 7.31161,-287.994 L 7.68837,-287.994 L 8.06213,-287.947 L 8.42705,-287.853 L 8.77733,-287.714 L 9.10747,-287.533
 L 9.41226,-287.312 L 9.6869,-287.054 L 9.92705,-286.763 L 10.1289,-286.445 L 10.2893,-286.104 L 10.4057,-285.746
 L 10.4763,-285.376 L 10.5,-285 L 10.4763,-284.624 L 10.4057,-284.254 L 10.2893,-283.896 L 10.1289,-283.555
 L 9.92705,-283.237 L 9.6869,-282.946 L 9.41226,-282.688 L 9.10747,-282.467 L 8.77733,-282.286 L 8.42705,-282.147
 L 8.06213,-282.053 L 7.68837,-282.006 z
M 22.3116,-282.006 L 21.9379,-282.053 L 21.5729,-282.147 L 21.2227,-282.286 L 20.8925,-282.467 L 20.5877,-282.688
 L 20.3131,-282.946 L 20.0729,-283.237 L 19.8711,-283.555 L 19.7107,-283.896 L 19.5942,-284.254 L 19.5237,-284.624
 L 19.5,-285 L 19.5237,-285.376 L 19.5942,-285.746 L 19.7107,-286.104 L 19.8711,-286.445 L 20.0729,-286.763
 L 20.3131,-287.054 L 20.5877,-287.312 L 20.8925,-287.533 L 21.2227,-287.714 L 21.5729,-287.853 L 21.9379,-287.947
 L 22.3116,-287.994 L 22.6884,-287.994 L 23.0621,-287.947 L 23.427,-287.853 L 23.7773,-287.714 L 24.1075,-287.533
 L 24.4123,-287.312 L 24.6869,-287.054 L 24.927,-286.763 L 25.1289,-286.445 L 25.2893,-286.104 L 25.4057,-285.746
 L 25.4763,-285.376 L 25.5,-285 L 25.4763,-284.624 L 25.4057,-284.254 L 25.2893,-283.896 L 25.1289,-283.555
 L 24.927,-283.237 L 24.6869,-282.946 L 24.4123,-282.688 L 24.1075,-282.467 L 23.7773,-282.286 L 23.427,-282.147
 L 23.0621,-282.053 L 22.6884,-282.006 z
M 7.31161,-267.006 L 6.93785,-267.053 L 6.57294,-267.147 L 6.22266,-267.286 L 5.89252,-267.467 L 5.58772,-267.688
 L 5.31308,-267.946 L 5.07294,-268.237 L 4.87108,-268.555 L 4.71066,-268.896 L 4.59424,-269.254 L 4.52365,-269.624
 L 4.5,-270 L 4.52365,-270.376 L 4.59424,-270.746 L 4.71066,-271.104 L 4.87108,-271.445 L 5.07294,-271.763
 L 5.31308,-272.054 L 5.58772,-272.312 L 5.89252,-272.533 L 6.22266,-272.714 L 6.57294,-272.853 L 6.93785,-272.947
 L 7.31161,-272.994 L 7.68837,-272.994 L 8.06213,-272.947 L 8.42705,-272.853 L 8.77733,-272.714 L 9.10747,-272.533
 L 9.41226,-272.312 L 9.6869,-272.054 L 9.92705,-271.763 L 10.1289,-271.445 L 10.2893,-271.104 L 10.4057,-270.746
 L 10.4763,-270.376 L 10.5,-270 L 10.4763,-269.624 L 10.4057,-269.254 L 10.2893,-268.896 L 10.1289,-268.555
 L 9.92705,-268.237 L 9.6869,-267.946 L 9.41226,-267.688 L 9.10747,-267.467 L 8.77733,-267.286 L 8.42705,-267.147
 L 8.06213,-267.053 L 7.68837,-267.006 z
M 22.3116,-267.006 L 21.9379,-267.053 L 21.5729,-267.147 L 21.2227,-267.286 L 20.8925,-267.467 L 20.5877,-267.688
 L 20.3131,-267.946 L 20.0729,-268.237 L 19.8711,-268.555 L 19.7107,-268.896 L 19.5942,-269.254 L 19.5237,-269.624
 L 19.5,-270 L 19.5237,-270.376 L 19.5942,-270.746 L 19.7107,-271.104 L 19.8711,-271.445 L 20.0729,-271.763
 L 20.3131,-272.054 L 20.5877,-272.312 L 20.8925,-272.533 L 21.2227,-272.714 L 21.5729,-272.853 L 21.9379,-272.947
 L 22.3116,-272.994 L 22.6884,-272.994 L 23.0621,-272.947 L 23.427,-272.853 L 23.7773,-272.714 L 24.1075,-272.533
 L 24.4123,-272.312 L 24.6869,-272.054 L 24.927,-271.763 L 25.1289,-271.445 L 25.2893,-271.104 L 25.4057,-270.746
 L 25.4763,-270.376 L 25.5,-270 L 25.4763,-269.624 L 25.4057,-269.254 L 25.2893,-268.896 L 25.1289,-268.555
 L 24.927,-268.237 L 24.6869,-267.946 L 24.4123,-267.688 L 24.1075,-267.467 L 23.7773,-267.286 L 23.427,-267.147
 L 23.0621,-267.053 L 22.6884,-267.006 z
M -22.6884,-267.006 L -23.0621,-267.053 L -23.427,-267.147 L -23.7773,-267.286 L -24.1075,-267.467 L -24.4123,-267.688
 L -24.6869,-267.946 L -24.927,-268.237 L -25.1289,-268.555 L -25.2893,-268.896 L -25.4057,-269.254 L -25.4763,-269.624
 L -25.5,-270 L -25.4763,-270.376 L -25.4057,-270.746 L -25.2893,-271.104 L -25.1289,-271.445 L -24.927,-271.763
 L -24.6869,-272.054 L -24.4123,-272.312 L -24.1075,-272.533 L -23.7773,-272.714 L -23.427,-272.853 L -23.0621,-272.947
 L -22.6884,-272.994 L -22.3116,-272.994 L -21.9379,-272.947 L -21.5729,-272.853 L -21.2227,-272.714 L -20.8925,-272.533
 L -20.5877,-272.312 L -20.3131,-272.054 L -20.0729,-271.763 L -19.8711,-271.445 L -19.7107,-271.104 L -19.5942,-270.746
 L -19.5237,-270.376 L -19.5,-270 L -19.5237,-269.624 L -19.5942,-269.254 L -19.7107,-268.896 L -19.8711,-268.555
 L -20.0729,-268.237 L -20.3131,-267.946 L -20.5877,-267.688 L -20.8925,-267.467 L -21.2227,-267.286 L -21.5729,-267.147
 L -21.9379,-267.053 L -22.3116,-267.006 z
M 37.3116,-267.006 L 36.9379,-267.053 L 36.5729,-267.147 L 36.2227,-267.286 L 35.8925,-267.467 L 35.5877,-267.688
 L 35.3131,-267.946 L 35.0729,-268.237 L 34.8711,-268.555 L 34.7107,-268.896 L 34.5942,-269.254 L 34.5237,-269.624
 L 34.5,-270 L 34.5237,-270.376 L 34.5942,-270.746 L 34.7107,-271.104 L 34.8711,-271.445 L 35.0729,-271.763
 L 35.3131,-272.054 L 35.5877,-272.312 L 35.8925,-272.533 L 36.2227,-272.714 L 36.5729,-272.853 L 36.9379,-272.947
 L 37.3116,-272.994 L 37.6884,-272.994 L 38.0621,-272.947 L 38.427,-272.853 L 38.7773,-272.714 L 39.1075,-272.533
 L 39.4123,-272.312 L 39.6869,-272.054 L 39.927,-271.763 L 40.1289,-271.445 L 40.2893,-271.104 L 40.4057,-270.746
 L 40.4763,-270.376 L 40.5,-270 L 40.4763,-269.624 L 40.4057,-269.254 L 40.2893,-268.896 L 40.1289,-268.555
 L 39.927,-268.237 L 39.6869,-267.946 L 39.4123,-267.688 L 39.1075,-267.467 L 38.7773,-267.286 L 38.427,-267.147
 L 38.0621,-267.053 L 37.6884,-267.006 z
M -37.6884,-267.006 L -38.0621,-267.053 L -38.427,-267.147 L -38.7773,-267.286 L -39.1075,-267.467 L -39.4123,-267.688
 L -39.6869,-267.946 L -39.927,-268.237 L -40.1289,-268.555 L -40.2893,-268.896 L -40.4057,-269.254 L -40.4763,-269.624
 L -40.5,-270 L -40.4763,-270.376 L -40.4057,-270.746 L -40.2893,-271.104 L -40.1289,-271.445 L -39.927,-271.763
 L -39.6869,-272.054 L -39.4123,-272.312 L -39.1075,-272.533 L -38.7773,-272.714 L -38.427,-272.853 L -38.0621,-272.947
 L -37.6884,-272.994 L -37.3116,-272.994 L -36.9379,-272.947 L -36.5729,-272.853 L -36.2227,-272.714 L -35.8925,-272.533
 L -35.5877,-272.312 L -35.3131,-272.054 L -35.0729,-271.763 L -34.8711,-271.445 L -34.7107,-271.104 L -34.5942,-270.746
 L -34.5237,-270.376 L -34.5,-270 L -34.5237,-269.624 L -34.5942,-269.254 L -34.7107,-268.896 L -34.8711,-268.555
 L -35.0729,-268.237 L -35.3131,-267.946 L -35.5877,-267.688 L -35.8925,-267.467 L -36.2227,-267.286 L -36.5729,-267.147
 L -36.9379,-267.053 L -37.3116,-267.006 z
M -7.68837,-267.006 L -8.06213,-267.053 L -8.42705,-267.147 L -8.77733,-267.286 L -9.10747,-267.467 L -9.41226,-267.688
 L -9.6869,-267.946 L -9.92705,-268.237 L -10.1289,-268.555 L -10.2893,-268.896 L -10.4057,-269.254 L -10.4763,-269.624
 L -10.5,-270 L -10.4763,-270.376 L -10.4057,-270.746 L -10.2893,-271.104 L -10.1289,-271.445 L -9.92705,-271.763
 L -9.6869,-272.054 L -9.41226,-272.312 L -9.10747,-272.533 L -8.77733,-272.714 L -8.42705,-272.853 L -8.06213,-272.947
 L -7.68837,-272.994 L -7.31161,-272.994 L -6.93785,-272.947 L -6.57294,-272.853 L -6.22266,-272.714 L -5.89252,-272.533
 L -5.58772,-272.312 L -5.31308,-272.054 L -5.07294,-271.763 L -4.87108,-271.445 L -4.71066,-271.104 L -4.59424,-270.746
 L -4.52365,-270.376 L -4.5,-270 L -4.52365,-269.624 L -4.59424,-269.254 L -4.71066,-268.896 L -4.87108,-268.555
 L -5.07294,-268.237 L -5.31308,-267.946 L -5.58772,-267.688 L -5.89252,-267.467 L -6.22266,-267.286 L -6.57294,-267.147
 L -6.93785,-267.053 L -7.31161,-267.006 z
M 37.3116,-252.006 L 36.9379,-252.053 L 36.5729,-252.147 L 36.2227,-252.286 L 35.8925,-252.467 L 35.5877,-252.688
 L 35.3131,-252.946 L 35.0729,-253.237 L 34.8711,-253.555 L 34.7107,-253.896 L 34.5942,-254.254 L 34.5237,-254.624
 L 34.5,-255 L 34.5237,-255.376 L 34.5942,-255.746 L 34.7107,-256.104 L 34.8711,-256.445 L 35.0729,-256.763
 L 35.3131,-257.054 L 35.5877,-257.312 L 35.8925,-257.533 L 36.2227,-257.714 L 36.5729,-257.853 L 36.9379,-257.947
 L 37.3116,-257.994 L 37.6884,-257.994 L 38.0621,-257.947 L 38.427,-257.853 L 38.7773,-257.714 L 39.1075,-257.533
 L 39.4123,-257.312 L 39.6869,-257.054 L 39.927,-256.763 L 40.1289,-256.445 L 40.2893,-256.104 L 40.4057,-255.746
 L 40.4763,-255.376 L 40.5,-255 L 40.4763,-254.624 L 40.4057,-254.254 L 40.2893,-253.896 L 40.1289,-253.555
 L 39.927,-253.237 L 39.6869,-252.946 L 39.4123,-252.688 L 39.1075,-252.467 L 38.7773,-252.286 L 38.427,-252.147
 L 38.0621,-252.053 L 37.6884,-252.006 z
M 22.3116,-252.006 L 21.9379,-252.053 L 21.5729,-252.147 L 21.2227,-252.286 L 20.8925,-252.467 L 20.5877,-252.688
 L 20.3131,-252.946 L 20.0729,-253.237 L 19.8711,-253.555 L 19.7107,-253.896 L 19.5942,-254.254 L 19.5237,-254.624
 L 19.5,-255 L 19.5237,-255.376 L 19.5942,-255.746 L 19.7107,-256.104 L 19.8711,-256.445 L 20.0729,-256.763
 L 20.3131,-257.054 L 20.5877,-257.312 L 20.8925,-257.533 L 21.2227,-257.714 L 21.5729,-257.853 L 21.9379,-257.947
 L 22.3116,-257.994 L 22.6884,-257.994 L 23.0621,-257.947 L 23.427,-257.853 L 23.7773,-257.714 L 24.1075,-257.533
 L 24.4123,-257.312 L 24.6869,-257.054 L 24.927,-256.763 L 25.1289,-256.445 L 25.2893,-256.104 L 25.4057,-255.746
 L 25.4763,-255.376 L 25.5,-255 L 25.4763,-254.624 L 25.4057,-254.254 L 25.2893,-253.896 L 25.1289,-253.555
 L 24.927,-253.237 L 24.6869,-252.946 L 24.4123,-252.688 L 24.1075,-252.467 L 23.7773,-252.286 L 23.427,-252.147
 L 23.0621,-252.053 L 22.6884,-252.006 z
M -22.6884,-252.006 L -23.0621,-252.053 L -23.427,-252.147 L -23.7773,-252.286 L -24.1075,-252.467 L -24.4123,-252.688
 L -24.6869,-252.946 L -24.927,-253.237 L -25.1289,-253.555 L -25.2893,-253.896 L -25.4057,-254.254 L -25.4763,-254.624
 L -25.5,-255 L -25.4763,-255.376 L -25.4057,-255.746 L -25.2893,-256.104 L -25.1289,-256.445 L -24.927,-256.763
 L -24.6869,-257.054 L -24.4123,-257.312 L -24.1075,-257.533 L -23.7773,-257.714 L -23.427,-257.853 L -23.0621,-257.947
 L -22.6884,-257.994 L -22.3116,-257.994 L -21.9379,-257.947 L -21.5729,-257.853 L -21.2227,-257.714 L -20.8925,-257.533
 L -20.5877,-257.312 L -20.3131,-257.054 L -20.0729,-256.763 L -19.8711,-256.445 L -19.7107,-256.104 L -19.5942,-255.746
 L -19.5237,-255.376 L -19.5,-255 L -19.5237,-254.624 L -19.5942,-254.254 L -19.7107,-253.896 L -19.8711,-253.555
 L -20.0729,-253.237 L -20.3131,-252.946 L -20.5877,-252.688 L -20.8925,-252.467 L -21.2227,-252.286 L -21.5729,-252.147
 L -21.9379,-252.053 L -22.3116,-252.006 z
M -37.6884,-252.006 L -38.0621,-252.053 L -38.427,-252.147 L -38.7773,-252.286 L -39.1075,-252.467 L -39.4123,-252.688
 L -39.6869,-252.946 L -39.927,-253.237 L -40.1289,-253.555 L -40.2893,-253.896 L -40.4057,-254.254 L -40.4763,-254.624
 L -40.5,-255 L -40.4763,-255.376 L -40.4057,-255.746 L -40.2893,-256.104 L -40.1289,-256.445 L -39.927,-256.763
 L -39.6869,-257.054 L -39.4123,-257.312 L -39.1075,-257.533 L -38.7773,-257.714 L -38.427,-257.853 L -38.0621,-257.947
 L -37.6884,-257.994 L -37.3116,-257.994 L -36.9379,-257.947 L -36.5729,-257.853 L -36.2227,-257.714 L -35.8925,-257.533
 L -35.5877,-257.312 L -35.3131,-257.054 L -35.0729,-256.763 L -34.8711,-256.445 L -34.7107,-256.104 L -34.5942,-255.746
 L -34.5237,-255.376 L -34.5,-255 L -34.5237,-254.624 L -34.5942,-254.254 L -34.7107,-253.896 L -34.8711,-253.555
 L -35.0729,-253.237 L -35.3131,-252.946 L -35.5877,-252.688 L -35.8925,-252.467 L -36.2227,-252.286 L -36.5729,-252.147
 L -36.9379,-252.053 L -37.3116,-252.006 z
M -7.68837,-252.006 L -8.06213,-252.053 L -8.42705,-252.147 L -8.77733,-252.286 L -9.10747,-252.467 L -9.41226,-252.688
 L -9.6869,-252.946 L -9.92705,-253.237 L -10.1289,-253.555 L -10.2893,-253.896 L -10.4057,-254.254 L -10.4763,-254.624
 L -10.5,-255 L -10.4763,-255.376 L -10.4057,-255.746 L -10.2893,-256.104 L -10.1289,-256.445 L -9.92705,-256.763
 L -9.6869,-257.054 L -9.41226,-257.312 L -9.10747,-257.533 L -8.77733,-257.714 L -8.42705,-257.853 L -8.06213,-257.947
 L -7.68837,-257.994 L -7.31161,-257.994 L -6.93785,-257.947 L -6.57294,-257.853 L -6.22266,-257.714 L -5.89252,-257.533
 L -5.58772,-257.312 L -5.31308,-257.054 L -5.07294,-256.763 L -4.87108,-256.445 L -4.71066,-256.104 L -4.59424,-255.746
 L -4.52365,-255.376 L -4.5,-255 L -4.52365,-254.624 L -4.59424,-254.254 L -4.71066,-253.896 L -4.87108,-253.555
 L -5.07294,-253.237 L -5.31308,-252.946 L -5.58772,-252.688 L -5.89252,-252.467 L -6.22266,-252.286 L -6.57294,-252.147
 L -6.93785,-252.053 L -7.31161,-252.006 z
M 7.31161,-252.006 L 6.93785,-252.053 L 6.57294,-252.147 L 6.22266,-252.286 L 5.89252,-252.467 L 5.58772,-252.688
 L 5.31308,-252.946 L 5.07294,-253.237 L 4.87108,-253.555 L 4.71066,-253.896 L 4.59424,-254.254 L 4.52365,-254.624
 L 4.5,-255 L 4.52365,-255.376 L 4.59424,-255.746 L 4.71066,-256.104 L 4.87108,-256.445 L 5.07294,-256.763
 L 5.31308,-257.054 L 5.58772,-257.312 L 5.89252,-257.533 L 6.22266,-257.714 L 6.57294,-257.853 L 6.93785,-257.947
 L 7.31161,-257.994 L 7.68837,-257.994 L 8.06213,-257.947 L 8.42705,-257.853 L 8.77733,-257.714 L 9.10747,-257.533
 L 9.41226,-257.312 L 9.6869,-257.054 L 9.92705,-256.763 L 10.1289,-256.445 L 10.2893,-256.104 L 10.4057,-255.746
 L 10.4763,-255.376 L 10.5,-255 L 10.4763,-254.624 L 10.4057,-254.254 L 10.2893,-253.896 L 10.1289,-253.555
 L 9.92705,-253.237 L 9.6869,-252.946 L 9.41226,-252.688 L 9.10747,-252.467 L 8.77733,-252.286 L 8.42705,-252.147
 L 8.06213,-252.053 L 7.68837,-252.006 z
M 40.4369,-194.089 L 41.0451,-194.245 L 41.6289,-194.476 L 42.1791,-194.778 L 42.6871,-195.147 L 43.1448,-195.577
 L 43.5451,-196.061 L 43.8815,-196.591 L 44.1489,-197.159 L 44.3429,-197.757 L 44.4606,-198.373 L 44.5,-199
 L 44.5,-233 L 44.4606,-233.627 L 44.3429,-234.243 L 44.1489,-234.841 L 43.8815,-235.409 L 43.5451,-235.939
 L 43.1448,-236.423 L 42.6871,-236.853 L 42.1791,-237.222 L 41.6289,-237.524 L 41.0451,-237.755 L 40.4369,-237.911
 L 39.8139,-237.99 L -39.8139,-237.99 L -40.4369,-237.911 L -41.0451,-237.755 L -41.6289,-237.524 L -42.1791,-237.222
 L -42.6871,-236.853 L -43.1448,-236.423 L -43.5451,-235.939 L -43.8815,-235.409 L -44.1489,-234.841 L -44.3429,-234.243
 L -44.4606,-233.627 L -44.5,-233 L -44.5,-199 L -44.4606,-198.373 L -44.3429,-197.757 L -44.1489,-197.159
 L -43.8815,-196.591 L -43.5451,-196.061 L -43.1448,-195.577 L -42.6871,-195.147 L -42.1791,-194.778 L -41.6289,-194.476
 L -41.0451,-194.245 L -40.4369,-194.089 L -39.8139,-194.01 L 39.8139,-194.01 z
M -37.6884,-228.006 L -38.0621,-228.053 L -38.427,-228.147 L -38.7773,-228.286 L -39.1075,-228.467 L -39.4123,-228.688
 L -39.6869,-228.946 L -39.927,-229.237 L -40.1289,-229.555 L -40.2893,-229.896 L -40.4057,-230.254 L -40.4763,-230.624
 L -40.5,-231 L -40.4763,-231.376 L -40.4057,-231.746 L -40.2893,-232.104 L -40.1289,-232.445 L -39.927,-232.763
 L -39.6869,-233.054 L -39.4123,-233.312 L -39.1075,-233.533 L -38.7773,-233.714 L -38.427,-233.853 L -38.0621,-233.947
 L -37.6884,-233.994 L -37.3116,-233.994 L -36.9379,-233.947 L -36.5729,-233.853 L -36.2227,-233.714 L -35.8925,-233.533
 L -35.5877,-233.312 L -35.3131,-233.054 L -35.0729,-232.763 L -34.8711,-232.445 L -34.7107,-232.104 L -34.5942,-231.746
 L -34.5237,-231.376 L -34.5,-231 L -34.5237,-230.624 L -34.5942,-230.254 L -34.7107,-229.896 L -34.8711,-229.555
 L -35.0729,-229.237 L -35.3131,-228.946 L -35.5877,-228.688 L -35.8925,-228.467 L -36.2227,-228.286 L -36.5729,-228.147
 L -36.9379,-228.053 L -37.3116,-228.006 z
M -22.6884,-228.006 L -23.0621,-228.053 L -23.427,-228.147 L -23.7773,-228.286 L -24.1075,-228.467 L -24.4123,-228.688
 L -24.6869,-228.946 L -24.927,-229.237 L -25.1289,-229.555 L -25.2893,-229.896 L -25.4057,-230.254 L -25.4763,-230.624
 L -25.5,-231 L -25.4763,-231.376 L -25.4057,-231.746 L -25.2893,-232.104 L -25.1289,-232.445 L -24.927,-232.763
 L -24.6869,-233.054 L -24.4123,-233.312 L -24.1075,-233.533 L -23.7773,-233.714 L -23.427,-233.853 L -23.0621,-233.947
 L -22.6884,-233.994 L -22.3116,-233.994 L -21.9379,-233.947 L -21.5729,-233.853 L -21.2227,-233.714 L -20.8925,-233.533
 L -20.5877,-233.312 L -20.3131,-233.054 L -20.0729,-232.763 L -19.8711,-232.445 L -19.7107,-232.104 L -19.5942,-231.746
 L -19.5237,-231.376 L -19.5,-231 L -19.5237,-230.624 L -19.5942,-230.254 L -19.7107,-229.896 L -19.8711,-229.555
 L -20.0729,-229.237 L -20.3131,-228.946 L -20.5877,-228.688 L -20.8925,-228.467 L -21.2227,-228.286 L -21.5729,-228.147
 L -21.9379,-228.053 L -22.3116,-228.006 z
M -7.68837,-228.006 L -8.06213,-228.053 L -8.42705,-228.147 L -8.77733,-228.286 L -9.10747,-228.467 L -9.41226,-228.688
 L -9.6869,-228.946 L -9.92705,-229.237 L -10.1289,-229.555 L -10.2893,-229.896 L -10.4057,-230.254 L -10.4763,-230.624
 L -10.5,-231 L -10.4763,-231.376 L -10.4057,-231.746 L -10.2893,-232.104 L -10.1289,-232.445 L -9.92705,-232.763
 L -9.6869,-233.054 L -9.41226,-233.312 L -9.10747,-233.533 L -8.77733,-233.714 L -8.42705,-233.853 L -8.06213,-233.947
 L -7.68837,-233.994 L -7.31161,-233.994 L -6.93785,-233.947 L -6.57294,-233.853 L -6.22266,-233.714 L -5.89252,-233.533
 L -5.58772,-233.312 L -5.31308,-233.054 L -5.07294,-232.763 L -4.87108,-232.445 L -4.71066,-232.104 L -4.59424,-231.746
 L -4.52365,-231.376 L -4.5,-231 L -4.52365,-230.624 L -4.59424,-230.254 L -4.71066,-229.896 L -4.87108,-229.555
 L -5.07294,-229.237 L -5.31308,-228.946 L -5.58772,-228.688 L -5.89252,-228.467 L -6.22266,-228.286 L -6.57294,-228.147
 L -6.93785,-228.053 L -7.31161,-228.006 z
M 37.3116,-228.006 L 36.9379,-228.053 L 36.5729,-228.147 L 36.2227,-228.286 L 35.8925,-228.467 L 35.5877,-228.688
 L 35.3131,-228.946 L 35.0729,-229.237 L 34.8711,-229.555 L 34.7107,-229.896 L 34.5942,-230.254 L 34.5237,-230.624
 L 34.5,-231 L 34.5237,-231.376 L 34.5942,-231.746 L 34.7107,-232.104 L 34.8711,-232.445 L 35.0729,-232.763
 L 35.3131,-233.054 L 35.5877,-233.312 L 35.8925,-233.533 L 36.2227,-233.714 L 36.5729,-233.853 L 36.9379,-233.947
 L 37.3116,-233.994 L 37.6884,-233.994 L 38.0621,-233.947 L 38.427,-233.853 L 38.7773,-233.714 L 39.1075,-233.533
 L 39.4123,-233.312 L 39.6869,-233.054 L 39.927,-232.763 L 40.1289,-232.445 L 40.2893,-232.104 L 40.4057,-231.746
 L 40.4763,-231.376 L 40.5,-231 L 40.4763,-230.624 L 40.4057,-230.254 L 40.2893,-229.896 L 40.1289,-229.555
 L 39.927,-229.237 L 39.6869,-228.946 L 39.4123,-228.688 L 39.1075,-228.467 L 38.7773,-228.286 L 38.427,-228.147
 L 38.0621,-228.053 L 37.6884,-228.006 z
M 7.31161,-228.006 L 6.93785,-228.053 L 6.57294,-228.147 L 6.22266,-228.286 L 5.89252,-228.467 L 5.58772,-228.688
 L 5.31308,-228.946 L 5.07294,-229.237 L 4.87108,-229.555 L 4.71066,-229.896 L 4.59424,-230.254 L 4.52365,-230.624
 L 4.5,-231 L 4.52365,-231.376 L 4.59424,-231.746 L 4.71066,-232.104 L 4.87108,-232.445 L 5.07294,-232.763
 L 5.31308,-233.054 L 5.58772,-233.312 L 5.89252,-233.533 L 6.22266,-233.714 L 6.57294,-233.853 L 6.93785,-233.947
 L 7.31161,-233.994 L 7.68837,-233.994 L 8.06213,-233.947 L 8.42705,-233.853 L 8.77733,-233.714 L 9.10747,-233.533
 L 9.41226,-233.312 L 9.6869,-233.054 L 9.92705,-232.763 L 10.1289,-232.445 L 10.2893,-232.104 L 10.4057,-231.746
 L 10.4763,-231.376 L 10.5,-231 L 10.4763,-230.624 L 10.4057,-230.254 L 10.2893,-229.896 L 10.1289,-229.555
 L 9.92705,-229.237 L 9.6869,-228.946 L 9.41226,-228.688 L 9.10747,-228.467 L 8.77733,-228.286 L 8.42705,-228.147
 L 8.06213,-228.053 L 7.68837,-228.006 z
M 22.3116,-228.006 L 21.9379,-228.053 L 21.5729,-228.147 L 21.2227,-228.286 L 20.8925,-228.467 L 20.5877,-228.688
 L 20.3131,-228.946 L 20.0729,-229.237 L 19.8711,-229.555 L 19.7107,-229.896 L 19.5942,-230.254 L 19.5237,-230.624
 L 19.5,-231 L 19.5237,-231.376 L 19.5942,-231.746 L 19.7107,-232.104 L 19.8711,-232.445 L 20.0729,-232.763
 L 20.3131,-233.054 L 20.5877,-233.312 L 20.8925,-233.533 L 21.2227,-233.714 L 21.5729,-233.853 L 21.9379,-233.947
 L 22.3116,-233.994 L 22.6884,-233.994 L 23.0621,-233.947 L 23.427,-233.853 L 23.7773,-233.714 L 24.1075,-233.533
 L 24.4123,-233.312 L 24.6869,-233.054 L 24.927,-232.763 L 25.1289,-232.445 L 25.2893,-232.104 L 25.4057,-231.746
 L 25.4763,-231.376 L 25.5,-231 L 25.4763,-230.624 L 25.4057,-230.254 L 25.2893,-229.896 L 25.1289,-229.555
 L 24.927,-229.237 L 24.6869,-228.946 L 24.4123,-228.688 L 24.1075,-228.467 L 23.7773,-228.286 L 23.427,-228.147
 L 23.0621,-228.053 L 22.6884,-228.006 z
M 22.3116,-213.006 L 21.9379,-213.053 L 21.5729,-213.147 L 21.2227,-213.286 L 20.8925,-213.467 L 20.5877,-213.688
 L 20.3131,-213.946 L 20.0729,-214.237 L 19.8711,-214.555 L 19.7107,-214.896 L 19.5942,-215.254 L 19.5237,-215.624
 L 19.5,-216 L 19.5237,-216.376 L 19.5942,-216.746 L 19.7107,-217.104 L 19.8711,-217.445 L 20.0729,-217.763
 L 20.3131,-218.054 L 20.5877,-218.312 L 20.8925,-218.533 L 21.2227,-218.714 L 21.5729,-218.853 L 21.9379,-218.947
 L 22.3116,-218.994 L 22.6884,-218.994 L 23.0621,-218.947 L 23.427,-218.853 L 23.7773,-218.714 L 24.1075,-218.533
 L 24.4123,-218.312 L 24.6869,-218.054 L 24.927,-217.763 L 25.1289,-217.445 L 25.2893,-217.104 L 25.4057,-216.746
 L 25.4763,-216.376 L 25.5,-216 L 25.4763,-215.624 L 25.4057,-215.254 L 25.2893,-214.896 L 25.1289,-214.555
 L 24.927,-214.237 L 24.6869,-213.946 L 24.4123,-213.688 L 24.1075,-213.467 L 23.7773,-213.286 L 23.427,-213.147
 L 23.0621,-213.053 L 22.6884,-213.006 z
M -7.68837,-213.006 L -8.06213,-213.053 L -8.42705,-213.147 L -8.77733,-213.286 L -9.10747,-213.467 L -9.41226,-213.688
 L -9.6869,-213.946 L -9.92705,-214.237 L -10.1289,-214.555 L -10.2893,-214.896 L -10.4057,-215.254 L -10.4763,-215.624
 L -10.5,-216 L -10.4763,-216.376 L -10.4057,-216.746 L -10.2893,-217.104 L -10.1289,-217.445 L -9.92705,-217.763
 L -9.6869,-218.054 L -9.41226,-218.312 L -9.10747,-218.533 L -8.77733,-218.714 L -8.42705,-218.853 L -8.06213,-218.947
 L -7.68837,-218.994 L -7.31161,-218.994 L -6.93785,-218.947 L -6.57294,-218.853 L -6.22266,-218.714 L -5.89252,-218.533
 L -5.58772,-218.312 L -5.31308,-218.054 L -5.07294,-217.763 L -4.87108,-217.445 L -4.71066,-217.104 L -4.59424,-216.746
 L -4.52365,-216.376 L -4.5,-216 L -4.52365,-215.624 L -4.59424,-215.254 L -4.71066,-214.896 L -4.87108,-214.555
 L -5.07294,-214.237 L -5.31308,-213.946 L -5.58772,-213.688 L -5.89252,-213.467 L -6.22266,-213.286 L -6.57294,-213.147
 L -6.93785,-213.053 L -7.31161,-213.006 z
M -37.6884,-213.006 L -38.0621,-213.053 L -38.427,-213.147 L -38.7773,-213.286 L -39.1075,-213.467 L -39.4123,-213.688
 L -39.6869,-213.946 L -39.927,-214.237 L -40.1289,-214.555 L -40.2893,-214.896 L -40.4057,-215.254 L -40.4763,-215.624
 L -40.5,-216 L -40.4763,-216.376 L -40.4057,-216.746 L -40.2893,-217.104 L -40.1289,-217.445 L -39.927,-217.763
 L -39.6869,-218.054 L -39.4123,-218.312 L -39.1075,-218.533 L -38.7773,-218.714 L -38.427,-218.853 L -38.0621,-218.947
 L -37.6884,-218.994 L -37.3116,-218.994 L -36.9379,-218.947 L -36.5729,-218.853 L -36.2227,-218.714 L -35.8925,-218.533
 L -35.5877,-218.312 L -35.3131,-218.054 L -35.0729,-217.763 L -34.8711,-217.445 L -34.7107,-217.104 L -34.5942,-216.746
 L -34.5237,-216.376 L -34.5,-216 L -34.5237,-215.624 L -34.5942,-215.254 L -34.7107,-214.896 L -34.8711,-214.555
 L -35.0729,-214.237 L -35.3131,-213.946 L -35.5877,-213.688 L -35.8925,-213.467 L -36.2227,-213.286 L -36.5729,-213.147
 L -36.9379,-213.053 L -37.3116,-213.006 z
M 7.31161,-213.006 L 6.93785,-213.053 L 6.57294,-213.147 L 6.22266,-213.286 L 5.89252,-213.467 L 5.58772,-213.688
 L 5.31308,-213.946 L 5.07294,-214.237 L 4.87108,-214.555 L 4.71066,-214.896 L 4.59424,-215.254 L 4.52365,-215.624
 L 4.5,-216 L 4.52365,-216.376 L 4.59424,-216.746 L 4.71066,-217.104 L 4.87108,-217.445 L 5.07294,-217.763
 L 5.31308,-218.054 L 5.58772,-218.312 L 5.89252,-218.533 L 6.22266,-218.714 L 6.57294,-218.853 L 6.93785,-218.947
 L 7.31161,-218.994 L 7.68837,-218.994 L 8.06213,-218.947 L 8.42705,-218.853 L 8.77733,-218.714 L 9.10747,-218.533
 L 9.41226,-218.312 L 9.6869,-218.054 L 9.92705,-217.763 L 10.1289,-217.445 L 10.2893,-217.104 L 10.4057,-216.746
 L 10.4763,-216.376 L 10.5,-216 L 10.4763,-215.624 L 10.4057,-215.254 L 10.2893,-214.896 L 10.1289,-214.555
 L 9.92705,-214.237 L 9.6869,-213.946 L 9.41226,-213.688 L 9.10747,-213.467 L 8.77733,-213.286 L 8.42705,-213.147
 L 8.06213,-213.053 L 7.68837,-213.006 z
M 37.3116,-213.006 L 36.9379,-213.053 L 36.5729,-213.147 L 36.2227,-213.286 L 35.8925,-213.467 L 35.5877,-213.688
 L 35.3131,-213.946 L 35.0729,-214.237 L 34.8711,-214.555 L 34.7107,-214.896 L 34.5942,-215.254 L 34.5237,-215.624
 L 34.5,-216 L 34.5237,-216.376 L 34.5942,-216.746 L 34.7107,-217.104 L 34.8711,-217.445 L 35.0729,-217.763
 L 35.3131,-218.054 L 35.5877,-218.312 L 35.8925,-218.533 L 36.2227,-218.714 L 36.5729,-218.853 L 36.9379,-218.947
 L 37.3116,-218.994 L 37.6884,-218.994 L 38.0621,-218.947 L 38.427,-218.853 L 38.7773,-218.714 L 39.1075,-218.533
 L 39.4123,-218.312 L 39.6869,-218.054 L 39.927,-217.763 L 40.1289,-217.445 L 40.2893,-217.104 L 40.4057,-216.746
 L 40.4763,-216.376 L 40.5,-216 L 40.4763,-215.624 L 40.4057,-215.254 L 40.2893,-214.896 L 40.1289,-214.555
 L 39.927,-214.237 L 39.6869,-213.946 L 39.4123,-213.688 L 39.1075,-213.467 L 38.7773,-213.286 L 38.427,-213.147
 L 38.0621,-213.053 L 37.6884,-213.006 z
M -22.6884,-213.006 L -23.0621,-213.053 L -23.427,-213.147 L -23.7773,-213.286 L -24.1075,-213.467 L -24.4123,-213.688
 L -24.6869,-213.946 L -24.927,-214.237 L -25.1289,-214.555 L -25.2893,-214.896 L -25.4057,-215.254 L -25.4763,-215.624
 L -25.5,-216 L -25.4763,-216.376 L -25.4057,-216.746 L -25.2893,-217.104 L -25.1289,-217.445 L -24.927,-217.763
 L -24.6869,-218.054 L -24.4123,-218.312 L -24.1075,-218.533 L -23.7773,-218.714 L -23.427,-218.853 L -23.0621,-218.947
 L -22.6884,-218.994 L -22.3116,-218.994 L -21.9379,-218.947 L -21.5729,-218.853 L -21.2227,-218.714 L -20.8925,-218.533
 L -20.5877,-218.312 L -20.3131,-218.054 L -20.0729,-217.763 L -19.8711,-217.445 L -19.7107,-217.104 L -19.5942,-216.746
 L -19.5237,-216.376 L -19.5,-216 L -19.5237,-215.624 L -19.5942,-215.254 L -19.7107,-214.896 L -19.8711,-214.555
 L -20.0729,-214.237 L -20.3131,-213.946 L -20.5877,-213.688 L -20.8925,-213.467 L -21.2227,-213.286 L -21.5729,-213.147
 L -21.9379,-213.053 L -22.3116,-213.006 z
M 7.31161,-198.006 L 6.93785,-198.053 L 6.57294,-198.147 L 6.22266,-198.286 L 5.89252,-198.467 L 5.58772,-198.688
 L 5.31308,-198.946 L 5.07294,-199.237 L 4.87108,-199.555 L 4.71066,-199.896 L 4.59424,-200.254 L 4.52365,-200.624
 L 4.5,-201 L 4.52365,-201.376 L 4.59424,-201.746 L 4.71066,-202.104 L 4.87108,-202.445 L 5.07294,-202.763
 L 5.31308,-203.054 L 5.58772,-203.312 L 5.89252,-203.533 L 6.22266,-203.714 L 6.57294,-203.853 L 6.93785,-203.947
 L 7.31161,-203.994 L 7.68837,-203.994 L 8.06213,-203.947 L 8.42705,-203.853 L 8.77733,-203.714 L 9.10747,-203.533
 L 9.41226,-203.312 L 9.6869,-203.054 L 9.92705,-202.763 L 10.1289,-202.445 L 10.2893,-202.104 L 10.4057,-201.746
 L 10.4763,-201.376 L 10.5,-201 L 10.4763,-200.624 L 10.4057,-200.254 L 10.2893,-199.896 L 10.1289,-199.555
 L 9.92705,-199.237 L 9.6869,-198.946 L 9.41226,-198.688 L 9.10747,-198.467 L 8.77733,-198.286 L 8.42705,-198.147
 L 8.06213,-198.053 L 7.68837,-198.006 z
M 37.3116,-198.006 L 36.9379,-198.053 L 36.5729,-198.147 L 36.2227,-198.286 L 35.8925,-198.467 L 35.5877,-198.688
 L 35.3131,-198.946 L 35.0729,-199.237 L 34.8711,-199.555 L 34.7107,-199.896 L 34.5942,-200.254 L 34.5237,-200.624
 L 34.5,-201 L 34.5237,-201.376 L 34.5942,-201.746 L 34.7107,-202.104 L 34.8711,-202.445 L 35.0729,-202.763
 L 35.3131,-203.054 L 35.5877,-203.312 L 35.8925,-203.533 L 36.2227,-203.714 L 36.5729,-203.853 L 36.9379,-203.947
 L 37.3116,-203.994 L 37.6884,-203.994 L 38.0621,-203.947 L 38.427,-203.853 L 38.7773,-203.714 L 39.1075,-203.533
 L 39.4123,-203.312 L 39.6869,-203.054 L 39.927,-202.763 L 40.1289,-202.445 L 40.2893,-202.104 L 40.4057,-201.746
 L 40.4763,-201.376 L 40.5,-201 L 40.4763,-200.624 L 40.4057,-200.254 L 40.2893,-199.896 L 40.1289,-199.555
 L 39.927,-199.237 L 39.6869,-198.946 L 39.4123,-198.688 L 39.1075,-198.467 L 38.7773,-198.286 L 38.427,-198.147
 L 38.0621,-198.053 L 37.6884,-198.006 z
M 22.3116,-198.006 L 21.9379,-198.053 L 21.5729,-198.147 L 21.2227,-198.286 L 20.8925,-198.467 L 20.5877,-198.688
 L 20.3131,-198.946 L 20.0729,-199.237 L 19.8711,-199.555 L 19.7107,-199.896 L 19.5942,-200.254 L 19.5237,-200.624
 L 19.5,-201 L 19.5237,-201.376 L 19.5942,-201.746 L 19.7107,-202.104 L 19.8711,-202.445 L 20.0729,-202.763
 L 20.3131,-203.054 L 20.5877,-203.312 L 20.8925,-203.533 L 21.2227,-203.714 L 21.5729,-203.853 L 21.9379,-203.947
 L 22.3116,-203.994 L 22.6884,-203.994 L 23.0621,-203.947 L 23.427,-203.853 L 23.7773,-203.714 L 24.1075,-203.533
 L 24.4123,-203.312 L 24.6869,-203.054 L 24.927,-202.763 L 25.1289,-202.445 L 25.2893,-202.104 L 25.4057,-201.746
 L 25.4763,-201.376 L 25.5,-201 L 25.4763,-200.624 L 25.4057,-200.254 L 25.2893,-199.896 L 25.1289,-199.555
 L 24.927,-199.237 L 24.6869,-198.946 L 24.4123,-198.688 L 24.1075,-198.467 L 23.7773,-198.286 L 23.427,-198.147
 L 23.0621,-198.053 L 22.6884,-198.006 z
M -22.6884,-198.006 L -23.0621,-198.053 L -23.427,-198.147 L -23.7773,-198.286 L -24.1075,-198.467 L -24.4123,-198.688
 L -24.6869,-198.946 L -24.927,-199.237 L -25.1289,-199.555 L -25.2893,-199.896 L -25.4057,-200.254 L -25.4763,-200.624
 L -25.5,-201 L -25.4763,-201.376 L -25.4057,-201.746 L -25.2893,-202.104 L -25.1289,-202.445 L -24.927,-202.763
 L -24.6869,-203.054 L -24.4123,-203.312 L -24.1075,-203.533 L -23.7773,-203.714 L -23.427,-203.853 L -23.0621,-203.947
 L -22.6884,-203.994 L -22.3116,-203.994 L -21.9379,-203.947 L -21.5729,-203.853 L -21.2227,-203.714 L -20.8925,-203.533
 L -20.5877,-203.312 L -20.3131,-203.054 L -20.0729,-202.763 L -19.8711,-202.445 L -19.7107,-202.104 L -19.5942,-201.746
 L -19.5237,-201.376 L -19.5,-201 L -19.5237,-200.624 L -19.5942,-200.254 L -19.7107,-199.896 L -19.8711,-199.555
 L -20.0729,-199.237 L -20.3131,-198.946 L -20.5877,-198.688 L -20.8925,-198.467 L -21.2227,-198.286 L -21.5729,-198.147
 L -21.9379,-198.053 L -22.3116,-198.006 z
M -37.6884,-198.006 L -38.0621,-198.053 L -38.427,-198.147 L -38.7773,-198.286 L -39.1075,-198.467 L -39.4123,-198.688
 L -39.6869,-198.946 L -39.927,-199.237 L -40.1289,-199.555 L -40.2893,-199.896 L -40.4057,-200.254 L -40.4763,-200.624
 L -40.5,-201 L -40.4763,-201.376 L -40.4057,-201.746 L -40.2893,-202.104 L -40.1289,-202.445 L -39.927,-202.763
 L -39.6869,-203.054 L -39.4123,-203.312 L -39.1075,-203.533 L -38.7773,-203.714 L -38.427,-203.853 L -38.0621,-203.947
 L -37.6884,-203.994 L -37.3116,-203.994 L -36.9379,-203.947 L -36.5729,-203.853 L -36.2227,-203.714 L -35.8925,-203.533
 L -35.5877,-203.312 L -35.3131,-203.054 L -35.0729,-202.763 L -34.8711,-202.445 L -34.7107,-202.104 L -34.5942,-201.746
 L -34.5237,-201.376 L -34.5,-201 L -34.5237,-200.624 L -34.5942,-200.254 L -34.7107,-199.896 L -34.8711,-199.555
 L -35.0729,-199.237 L -35.3131,-198.946 L -35.5877,-198.688 L -35.8925,-198.467 L -36.2227,-198.286 L -36.5729,-198.147
 L -36.9379,-198.053 L -37.3116,-198.006 z
M -7.68837,-198.006 L -8.06213,-198.053 L -8.42705,-198.147 L -8.77733,-198.286 L -9.10747,-198.467 L -9.41226,-198.688
 L -9.6869,-198.946 L -9.92705,-199.237 L -10.1289,-199.555 L -10.2893,-199.896 L -10.4057,-200.254 L -10.4763,-200.624
 L -10.5,-201 L -10.4763,-201.376 L -10.4057,-201.746 L -10.2893,-202.104 L -10.1289,-202.445 L -9.92705,-202.763
 L -9.6869,-203.054 L -9.41226,-203.312 L -9.10747,-203.533 L -8.77733,-203.714 L -8.42705,-203.853 L -8.06213,-203.947
 L -7.68837,-203.994 L -7.31161,-203.994 L -6.93785,-203.947 L -6.57294,-203.853 L -6.22266,-203.714 L -5.89252,-203.533
 L -5.58772,-203.312 L -5.31308,-203.054 L -5.07294,-202.763 L -4.87108,-202.445 L -4.71066,-202.104 L -4.59424,-201.746
 L -4.52365,-201.376 L -4.5,-201 L -4.52365,-200.624 L -4.59424,-200.254 L -4.71066,-199.896 L -4.87108,-199.555
 L -5.07294,-199.237 L -5.31308,-198.946 L -5.58772,-198.688 L -5.89252,-198.467 L -6.22266,-198.286 L -6.57294,-198.147
 L -6.93785,-198.053 L -7.31161,-198.006 z
M 40.4369,-140.089 L 41.0451,-140.245 L 41.6289,-140.476 L 42.1791,-140.778 L 42.6871,-141.147 L 43.1448,-141.577
 L 43.5451,-142.061 L 43.8815,-142.591 L 44.1489,-143.159 L 44.3429,-143.757 L 44.4606,-144.373 L 44.5,-145
 L 44.5,-179 L 44.4606,-179.627 L 44.3429,-180.243 L 44.1489,-180.841 L 43.8815,-181.409 L 43.5451,-181.939
 L 43.1448,-182.423 L 42.6871,-182.853 L 42.1791,-183.222 L 41.6289,-183.524 L 41.0451,-183.755 L 40.4369,-183.911
 L 39.8139,-183.99 L -39.8139,-183.99 L -40.4369,-183.911 L -41.0451,-183.755 L -41.6289,-183.524 L -42.1791,-183.222
 L -42.6871,-182.853 L -43.1448,-182.423 L -43.5451,-181.939 L -43.8815,-181.409 L -44.1489,-180.841 L -44.3429,-180.243
 L -44.4606,-179.627 L -44.5,-179 L -44.5,-145 L -44.4606,-144.373 L -44.3429,-143.757 L -44.1489,-143.159
 L -43.8815,-142.591 L -43.5451,-142.061 L -43.1448,-141.577 L -42.6871,-141.147 L -42.1791,-140.778 L -41.6289,-140.476
 L -41.0451,-140.245 L -40.4369,-140.089 L -39.8139,-140.01 L 39.8139,-140.01 z
M 22.3116,-174.006 L 21.9379,-174.053 L 21.5729,-174.147 L 21.2227,-174.286 L 20.8925,-174.467 L 20.5877,-174.688
 L 20.3131,-174.946 L 20.0729,-175.237 L 19.8711,-175.555 L 19.7107,-175.896 L 19.5942,-176.254 L 19.5237,-176.624
 L 19.5,-177 L 19.5237,-177.376 L 19.5942,-177.746 L 19.7107,-178.104 L 19.8711,-178.445 L 20.0729,-178.763
 L 20.3131,-179.054 L 20.5877,-179.312 L 20.8925,-179.533 L 21.2227,-179.714 L 21.5729,-179.853 L 21.9379,-179.947
 L 22.3116,-179.994 L 22.6884,-179.994 L 23.0621,-179.947 L 23.427,-179.853 L 23.7773,-179.714 L 24.1075,-179.533
 L 24.4123,-179.312 L 24.6869,-179.054 L 24.927,-178.763 L 25.1289,-178.445 L 25.2893,-178.104 L 25.4057,-177.746
 L 25.4763,-177.376 L 25.5,-177 L 25.4763,-176.624 L 25.4057,-176.254 L 25.2893,-175.896 L 25.1289,-175.555
 L 24.927,-175.237 L 24.6869,-174.946 L 24.4123,-174.688 L 24.1075,-174.467 L 23.7773,-174.286 L 23.427,-174.147
 L 23.0621,-174.053 L 22.6884,-174.006 z
M -22.6884,-174.006 L -23.0621,-174.053 L -23.427,-174.147 L -23.7773,-174.286 L -24.1075,-174.467 L -24.4123,-174.688
 L -24.6869,-174.946 L -24.927,-175.237 L -25.1289,-175.555 L -25.2893,-175.896 L -25.4057,-176.254 L -25.4763,-176.624
 L -25.5,-177 L -25.4763,-177.376 L -25.4057,-177.746 L -25.2893,-178.104 L -25.1289,-178.445 L -24.927,-178.763
 L -24.6869,-179.054 L -24.4123,-179.312 L -24.1075,-179.533 L -23.7773,-179.714 L -23.427,-179.853 L -23.0621,-179.947
 L -22.6884,-179.994 L -22.3116,-179.994 L -21.9379,-179.947 L -21.5729,-179.853 L -21.2227,-179.714 L -20.8925,-179.533
 L -20.5877,-179.312 L -20.3131,-179.054 L -20.0729,-178.763 L -19.8711,-178.445 L -19.7107,-178.104 L -19.5942,-177.746
 L -19.5237,-177.376 L -19.5,-177 L -19.5237,-176.624 L -19.5942,-176.254 L -19.7107,-175.896 L -19.8711,-175.555
 L -20.0729,-175.237 L -20.3131,-174.946 L -20.5877,-174.688 L -20.8925,-174.467 L -21.2227,-174.286 L -21.5729,-174.147
 L -21.9379,-174.053 L -22.3116,-174.006 z
M -7.68837,-174.006 L -8.06213,-174.053 L -8.42705,-174.147 L -8.77733,-174.286 L -9.10747,-174.467 L -9.41226,-174.688
 L -9.6869,-174.946 L -9.92705,-175.237 L -10.1289,-175.555 L -10.2893,-175.896 L -10.4057,-176.254 L -10.4763,-176.624
 L -10.5,-177 L -10.4763,-177.376 L -10.4057,-177.746 L -10.2893,-178.104 L -10.1289,-178.445 L -9.92705,-178.763
 L -9.6869,-179.054 L -9.41226,-179.312 L -9.10747,-179.533 L -8.77733,-179.714 L -8.42705,-179.853 L -8.06213,-179.947
 L -7.68837,-179.994 L -7.31161,-179.994 L -6.93785,-179.947 L -6.57294,-179.853 L -6.22266,-179.714 L -5.89252,-179.533
 L -5.58772,-179.312 L -5.31308,-179.054 L -5.07294,-178.763 L -4.87108,-178.445 L -4.71066,-178.104 L -4.59424,-177.746
 L -4.52365,-177.376 L -4.5,-177 L -4.52365,-176.624 L -4.59424,-176.254 L -4.71066,-175.896 L -4.87108,-175.555
 L -5.07294,-175.237 L -5.31308,-174.946 L -5.58772,-174.688 L -5.89252,-174.467 L -6.22266,-174.286 L -6.57294,-174.147
 L -6.93785,-174.053 L -7.31161,-174.006 z
M -37.6884,-174.006 L -38.0621,-174.053 L -38.427,-174.147 L -38.7773,-174.286 L -39.1075,-174.467 L -39.4123,-174.688
 L -39.6869,-174.946 L -39.927,-175.237 L -40.1289,-175.555 L -40.2893,-175.896 L -40.4057,-176.254 L -40.4763,-176.624
 L -40.5,-177 L -40.4763,-177.376 L -40.4057,-177.746 L -40.2893,-178.104 L -40.1289,-178.445 L -39.927,-178.763
 L -39.6869,-179.054 L -39.4123,-179.312 L -39.1075,-179.533 L -38.7773,-179.714 L -38.427,-179.853 L -38.0621,-179.947
 L -37.6884,-179.994 L -37.3116,-179.994 L -36.9379,-179.947 L -36.5729,-179.853 L -36.2227,-179.714 L -35.8925,-179.533
 L -35.5877,-179.312 L -35.3131,-179.054 L -35.0729,-178.763 L -34.8711,-178.445 L -34.7107,-178.104 L -34.5942,-177.746
 L -34.5237,-177.376 L -34.5,-177 L -34.5237,-176.624 L -34.5942,-176.254 L -34.7107,-175.896 L -34.8711,-175.555
 L -35.0729,-175.237 L -35.3131,-174.946 L -35.5877,-174.688 L -35.8925,-174.467 L -36.2227,-174.286 L -36.5729,-174.147
 L -36.9379,-174.053 L -37.3116,-174.006 z
M 7.31161,-174.006 L 6.93785,-174.053 L 6.57294,-174.147 L 6.22266,-174.286 L 5.89252,-174.467 L 5.58772,-174.688
 L 5.31308,-174.946 L 5.07294,-175.237 L 4.87108,-175.555 L 4.71066,-175.896 L 4.59424,-176.254 L 4.52365,-176.624
 L 4.5,-177 L 4.52365,-177.376 L 4.59424,-177.746 L 4.71066,-178.104 L 4.87108,-178.445 L 5.07294,-178.763
 L 5.31308,-179.054 L 5.58772,-179.312 L 5.89252,-179.533 L 6.22266,-179.714 L 6.57294,-179.853 L 6.93785,-179.947
 L 7.31161,-179.994 L 7.68837,-179.994 L 8.06213,-179.947 L 8.42705,-179.853 L 8.77733,-179.714 L 9.10747,-179.533
 L 9.41226,-179.312 L 9.6869,-179.054 L 9.92705,-178.763 L 10.1289,-178.445 L 10.2893,-178.104 L 10.4057,-177.746
 L 10.4763,-177.376 L 10.5,-177 L 10.4763,-176.624 L 10.4057,-176.254 L 10.2893,-175.896 L 10.1289,-175.555
 L 9.92705,-175.237 L 9.6869,-174.946 L 9.41226,-174.688 L 9.10747,-174.467 L 8.77733,-174.286 L 8.42705,-174.147
 L 8.06213,-174.053 L 7.68837,-174.006 z
M 37.3116,-174.006 L 36.9379,-174.053 L 36.5729,-174.147 L 36.2227,-174.286 L 35.8925,-174.467 L 35.5877,-174.688
 L 35.3131,-174.946 L 35.0729,-175.237 L 34.8711,-175.555 L 34.7107,-175.896 L 34.5942,-176.254 L 34.5237,-176.624
 L 34.5,-177 L 34.5237,-177.376 L 34.5942,-177.746 L 34.7107,-178.104 L 34.8711,-178.445 L 35.0729,-178.763
 L 35.3131,-179.054 L 35.5877,-179.312 L 35.8925,-179.533 L 36.2227,-179.714 L 36.5729,-179.853 L 36.9379,-179.947
 L 37.3116,-179.994 L 37.6884,-179.994 L 38.0621,-179.947 L 38.427,-179.853 L 38.7773,-179.714 L 39.1075,-179.533
 L 39.4123,-179.312 L 39.6869,-179.054 L 39.927,-178.763 L 40.1289,-178.445 L 40.2893,-178.104 L 40.4057,-177.746
 L 40.4763,-177.376 L 40.5,-177 L 40.4763,-176.624 L 40.4057,-176.254 L 40.2893,-175.896 L 40.1289,-175.555
 L 39.927,-175.237 L 39.6869,-174.946 L 39.4123,-174.688 L 39.1075,-174.467 L 38.7773,-174.286 L 38.427,-174.147
 L 38.0621,-174.053 L 37.6884,-174.006 z
M 37.3116,-159.006 L 36.9379,-159.053 L 36.5729,-159.147 L 36.2227,-159.286 L 35.8925,-159.467 L 35.5877,-159.688
 L 35.3131,-159.946 L 35.0729,-160.237 L 34.8711,-160.555 L 34.7107,-160.896 L 34.5942,-161.254 L 34.5237,-161.624
 L 34.5,-162 L 34.5237,-162.376 L 34.5942,-162.746 L 34.7107,-163.104 L 34.8711,-163.445 L 35.0729,-163.763
 L 35.3131,-164.054 L 35.5877,-164.312 L 35.8925,-164.533 L 36.2227,-164.714 L 36.5729,-164.853 L 36.9379,-164.947
 L 37.3116,-164.994 L 37.6884,-164.994 L 38.0621,-164.947 L 38.427,-164.853 L 38.7773,-164.714 L 39.1075,-164.533
 L 39.4123,-164.312 L 39.6869,-164.054 L 39.927,-163.763 L 40.1289,-163.445 L 40.2893,-163.104 L 40.4057,-162.746
 L 40.4763,-162.376 L 40.5,-162 L 40.4763,-161.624 L 40.4057,-161.254 L 40.2893,-160.896 L 40.1289,-160.555
 L 39.927,-160.237 L 39.6869,-159.946 L 39.4123,-159.688 L 39.1075,-159.467 L 38.7773,-159.286 L 38.427,-159.147
 L 38.0621,-159.053 L 37.6884,-159.006 z
M -37.6884,-159.006 L -38.0621,-159.053 L -38.427,-159.147 L -38.7773,-159.286 L -39.1075,-159.467 L -39.4123,-159.688
 L -39.6869,-159.946 L -39.927,-160.237 L -40.1289,-160.555 L -40.2893,-160.896 L -40.4057,-161.254 L -40.4763,-161.624
 L -40.5,-162 L -40.4763,-162.376 L -40.4057,-162.746 L -40.2893,-163.104 L -40.1289,-163.445 L -39.927,-163.763
 L -39.6869,-164.054 L -39.4123,-164.312 L -39.1075,-164.533 L -38.7773,-164.714 L -38.427,-164.853 L -38.0621,-164.947
 L -37.6884,-164.994 L -37.3116,-164.994 L -36.9379,-164.947 L -36.5729,-164.853 L -36.2227,-164.714 L -35.8925,-164.533
 L -35.5877,-164.312 L -35.3131,-164.054 L -35.0729,-163.763 L -34.8711,-163.445 L -34.7107,-163.104 L -34.5942,-162.746
 L -34.5237,-162.376 L -34.5,-162 L -34.5237,-161.624 L -34.5942,-161.254 L -34.7107,-160.896 L -34.8711,-160.555
 L -35.0729,-160.237 L -35.3131,-159.946 L -35.5877,-159.688 L -35.8925,-159.467 L -36.2227,-159.286 L -36.5729,-159.147
 L -36.9379,-159.053 L -37.3116,-159.006 z
M -7.68837,-159.006 L -8.06213,-159.053 L -8.42705,-159.147 L -8.77733,-159.286 L -9.10747,-159.467 L -9.41226,-159.688
 L -9.6869,-159.946 L -9.92705,-160.237 L -10.1289,-160.555 L -10.2893,-160.896 L -10.4057,-161.254 L -10.4763,-161.624
 L -10.5,-162 L -10.4763,-162.376 L -10.4057,-162.746 L -10.2893,-163.104 L -10.1289,-163.445 L -9.92705,-163.763
 L -9.6869,-164.054 L -9.41226,-164.312 L -9.10747,-164.533 L -8.77733,-164.714 L -8.42705,-164.853 L -8.06213,-164.947
 L -7.68837,-164.994 L -7.31161,-164.994 L -6.93785,-164.947 L -6.57294,-164.853 L -6.22266,-164.714 L -5.89252,-164.533
 L -5.58772,-164.312 L -5.31308,-164.054 L -5.07294,-163.763 L -4.87108,-163.445 L -4.71066,-163.104 L -4.59424,-162.746
 L -4.52365,-162.376 L -4.5,-162 L -4.52365,-161.624 L -4.59424,-161.254 L -4.71066,-160.896 L -4.87108,-160.555
 L -5.07294,-160.237 L -5.31308,-159.946 L -5.58772,-159.688 L -5.89252,-159.467 L -6.22266,-159.286 L -6.57294,-159.147
 L -6.93785,-159.053 L -7.31161,-159.006 z
M -22.6884,-159.006 L -23.0621,-159.053 L -23.427,-159.147 L -23.7773,-159.286 L -24.1075,-159.467 L -24.4123,-159.688
 L -24.6869,-159.946 L -24.927,-160.237 L -25.1289,-160.555 L -25.2893,-160.896 L -25.4057,-161.254 L -25.4763,-161.624
 L -25.5,-162 L -25.4763,-162.376 L -25.4057,-162.746 L -25.2893,-163.104 L -25.1289,-163.445 L -24.927,-163.763
 L -24.6869,-164.054 L -24.4123,-164.312 L -24.1075,-164.533 L -23.7773,-164.714 L -23.427,-164.853 L -23.0621,-164.947
 L -22.6884,-164.994 L -22.3116,-164.994 L -21.9379,-164.947 L -21.5729,-164.853 L -21.2227,-164.714 L -20.8925,-164.533
 L -20.5877,-164.312 L -20.3131,-164.054 L -20.0729,-163.763 L -19.8711,-163.445 L -19.7107,-163.104 L -19.5942,-162.746
 L -19.5237,-162.376 L -19.5,-162 L -19.5237,-161.624 L -19.5942,-161.254 L -19.7107,-160.896 L -19.8711,-160.555
 L -20.0729,-160.237 L -20.3131,-159.946 L -20.5877,-159.688 L -20.8925,-159.467 L -21.2227,-159.286 L -21.5729,-159.147
 L -21.9379,-159.053 L -22.3116,-159.006 z
M 22.3116,-159.006 L 21.9379,-159.053 L 21.5729,-159.147 L 21.2227,-159.286 L 20.8925,-159.467 L 20.5877,-159.688
 L 20.3131,-159.946 L 20.0729,-160.237 L 19.8711,-160.555 L 19.7107,-160.896 L 19.5942,-161.254 L 19.5237,-161.624
 L 19.5,-162 L 19.5237,-162.376 L 19.5942,-162.746 L 19.7107,-163.104 L 19.8711,-163.445 L 20.0729,-163.763
 L 20.3131,-164.054 L 20.5877,-164.312 L 20.8925,-164.533 L 21.2227,-164.714 L 21.5729,-164.853 L 21.9379,-164.947
 L 22.3116,-164.994 L 22.6884,-164.994 L 23.0621,-164.947 L 23.427,-164.853 L 23.7773,-164.714 L 24.1075,-164.533
 L 24.4123,-164.312 L 24.6869,-164.054 L 24.927,-163.763 L 25.1289,-163.445 L 25.2893,-163.104 L 25.4057,-162.746
 L 25.4763,-162.376 L 25.5,-162 L 25.4763,-161.624 L 25.4057,-161.254 L 25.2893,-160.896 L 25.1289,-160.555
 L 24.927,-160.237 L 24.6869,-159.946 L 24.4123,-159.688 L 24.1075,-159.467 L 23.7773,-159.286 L 23.427,-159.147
 L 23.0621,-159.053 L 22.6884,-159.006 z
M 7.31161,-159.006 L 6.93785,-159.053 L 6.57294,-159.147 L 6.22266,-159.286 L 5.89252,-159.467 L 5.58772,-159.688
 L 5.31308,-159.946 L 5.07294,-160.237 L 4.87108,-160.555 L 4.71066,-160.896 L 4.59424,-161.254 L 4.52365,-161.624
 L 4.5,-162 L 4.52365,-162.376 L 4.59424,-162.746 L 4.71066,-163.104 L 4.87108,-163.445 L 5.07294,-163.763
 L 5.31308,-164.054 L 5.58772,-164.312 L 5.89252,-164.533 L 6.22266,-164.714 L 6.57294,-164.853 L 6.93785,-164.947
 L 7.31161,-164.994 L 7.68837,-164.994 L 8.06213,-164.947 L 8.42705,-164.853 L 8.77733,-164.714 L 9.10747,-164.533
 L 9.41226,-164.312 L 9.6869,-164.054 L 9.92705,-163.763 L 10.1289,-163.445 L 10.2893,-163.104 L 10.4057,-162.746
 L 10.4763,-162.376 L 10.5,-162 L 10.4763,-161.624 L 10.4057,-161.254 L 10.2893,-160.896 L 10.1289,-160.555
 L 9.92705,-160.237 L 9.6869,-159.946 L 9.41226,-159.688 L 9.10747,-159.467 L 8.77733,-159.286 L 8.42705,-159.147
 L 8.06213,-159.053 L 7.68837,-159.006 z
M 22.3116,-144.006 L 21.9379,-144.053 L 21.5729,-144.147 L 21.2227,-144.286 L 20.8925,-144.467 L 20.5877,-144.688
 L 20.3131,-144.946 L 20.0729,-145.237 L 19.8711,-145.555 L 19.7107,-145.896 L 19.5942,-146.254 L 19.5237,-146.624
 L 19.5,-147 L 19.5237,-147.376 L 19.5942,-147.746 L 19.7107,-148.104 L 19.8711,-148.445 L 20.0729,-148.763
 L 20.3131,-149.054 L 20.5877,-149.312 L 20.8925,-149.533 L 21.2227,-149.714 L 21.5729,-149.853 L 21.9379,-149.947
 L 22.3116,-149.994 L 22.6884,-149.994 L 23.0621,-149.947 L 23.427,-149.853 L 23.7773,-149.714 L 24.1075,-149.533
 L 24.4123,-149.312 L 24.6869,-149.054 L 24.927,-148.763 L 25.1289,-148.445 L 25.2893,-148.104 L 25.4057,-147.746
 L 25.4763,-147.376 L 25.5,-147 L 25.4763,-146.624 L 25.4057,-146.254 L 25.2893,-145.896 L 25.1289,-145.555
 L 24.927,-145.237 L 24.6869,-144.946 L 24.4123,-144.688 L 24.1075,-144.467 L 23.7773,-144.286 L 23.427,-144.147
 L 23.0621,-144.053 L 22.6884,-144.006 z
M 37.3116,-144.006 L 36.9379,-144.053 L 36.5729,-144.147 L 36.2227,-144.286 L 35.8925,-144.467 L 35.5877,-144.688
 L 35.3131,-144.946 L 35.0729,-145.237 L 34.8711,-145.555 L 34.7107,-145.896 L 34.5942,-146.254 L 34.5237,-146.624
 L 34.5,-147 L 34.5237,-147.376 L 34.5942,-147.746 L 34.7107,-148.104 L 34.8711,-148.445 L 35.0729,-148.763
 L 35.3131,-149.054 L 35.5877,-149.312 L 35.8925,-149.533 L 36.2227,-149.714 L 36.5729,-149.853 L 36.9379,-149.947
 L 37.3116,-149.994 L 37.6884,-149.994 L 38.0621,-149.947 L 38.427,-149.853 L 38.7773,-149.714 L 39.1075,-149.533
 L 39.4123,-149.312 L 39.6869,-149.054 L 39.927,-148.763 L 40.1289,-148.445 L 40.2893,-148.104 L 40.4057,-147.746
 L 40.4763,-147.376 L 40.5,-147 L 40.4763,-146.624 L 40.4057,-146.254 L 40.2893,-145.896 L 40.1289,-145.555
 L 39.927,-145.237 L 39.6869,-144.946 L 39.4123,-144.688 L 39.1075,-144.467 L 38.7773,-144.286 L 38.427,-144.147
 L 38.0621,-144.053 L 37.6884,-144.006 z
M -22.6884,-144.006 L -23.0621,-144.053 L -23.427,-144.147 L -23.7773,-144.286 L -24.1075,-144.467 L -24.4123,-144.688
 L -24.6869,-144.946 L -24.927,-145.237 L -25.1289,-145.555 L -25.2893,-145.896 L -25.4057,-146.254 L -25.4763,-146.624
 L -25.5,-147 L -25.4763,-147.376 L -25.4057,-147.746 L -25.2893,-148.104 L -25.1289,-148.445 L -24.927,-148.763
 L -24.6869,-149.054 L -24.4123,-149.312 L -24.1075,-149.533 L -23.7773,-149.714 L -23.427,-149.853 L -23.0621,-149.947
 L -22.6884,-149.994 L -22.3116,-149.994 L -21.9379,-149.947 L -21.5729,-149.853 L -21.2227,-149.714 L -20.8925,-149.533
 L -20.5877,-149.312 L -20.3131,-149.054 L -20.0729,-148.763 L -19.8711,-148.445 L -19.7107,-148.104 L -19.5942,-147.746
 L -19.5237,-147.376 L -19.5,-147 L -19.5237,-146.624 L -19.5942,-146.254 L -19.7107,-145.896 L -19.8711,-145.555
 L -20.0729,-145.237 L -20.3131,-144.946 L -20.5877,-144.688 L -20.8925,-144.467 L -21.2227,-144.286 L -21.5729,-144.147
 L -21.9379,-144.053 L -22.3116,-144.006 z
M -37.6884,-144.006 L -38.0621,-144.053 L -38.427,-144.147 L -38.7773,-144.286 L -39.1075,-144.467 L -39.4123,-144.688
 L -39.6869,-144.946 L -39.927,-145.237 L -40.1289,-145.555 L -40.2893,-145.896 L -40.4057,-146.254 L -40.4763,-146.624
 L -40.5,-147 L -40.4763,-147.376 L -40.4057,-147.746 L -40.2893,-148.104 L -40.1289,-148.445 L -39.927,-148.763
 L -39.6869,-149.054 L -39.4123,-149.312 L -39.1075,-149.533 L -38.7773,-149.714 L -38.427,-149.853 L -38.0621,-149.947
 L -37.6884,-149.994 L -37.3116,-149.994 L -36.9379,-149.947 L -36.5729,-149.853 L -36.2227,-149.714 L -35.8925,-149.533
 L -35.5877,-149.312 L -35.3131,-149.054 L -35.0729,-148.763 L -34.8711,-148.445 L -34.7107,-148.104 L -34.5942,-147.746
 L -34.5237,-147.376 L -34.5,-147 L -34.5237,-146.624 L -34.5942,-146.254 L -34.7107,-145.896 L -34.8711,-145.555
 L -35.0729,-145.237 L -35.3131,-144.946 L -35.5877,-144.688 L -35.8925,-144.467 L -36.2227,-144.286 L -36.5729,-144.147
 L -36.9379,-144.053 L -37.3116,-144.006 z
M -7.68837,-144.006 L -8.06213,-144.053 L -8.42705,-144.147 L -8.77733,-144.286 L -9.10747,-144.467 L -9.41226,-144.688
 L -9.6869,-144.946 L -9.92705,-145.237 L -10.1289,-145.555 L -10.2893,-145.896 L -10.4057,-146.254 L -10.4763,-146.624
 L -10.5,-147 L -10.4763,-147.376 L -10.4057,-147.746 L -10.2893,-148.104 L -10.1289,-148.445 L -9.92705,-148.763
 L -9.6869,-149.054 L -9.41226,-149.312 L -9.10747,-149.533 L -8.77733,-149.714 L -8.42705,-149.853 L -8.06213,-149.947
 L -7.68837,-149.994 L -7.31161,-149.994 L -6.93785,-149.947 L -6.57294,-149.853 L -6.22266,-149.714 L -5.89252,-149.533
 L -5.58772,-149.312 L -5.31308,-149.054 L -5.07294,-148.763 L -4.87108,-148.445 L -4.71066,-148.104 L -4.59424,-147.746
 L -4.52365,-147.376 L -4.5,-147 L -4.52365,-146.624 L -4.59424,-146.254 L -4.71066,-145.896 L -4.87108,-145.555
 L -5.07294,-145.237 L -5.31308,-144.946 L -5.58772,-144.688 L -5.89252,-144.467 L -6.22266,-144.286 L -6.57294,-144.147
 L -6.93785,-144.053 L -7.31161,-144.006 z
M 7.31161,-144.006 L 6.93785,-144.053 L 6.57294,-144.147 L 6.22266,-144.286 L 5.89252,-144.467 L 5.58772,-144.688
 L 5.31308,-144.946 L 5.07294,-145.237 L 4.87108,-145.555 L 4.71066,-145.896 L 4.59424,-146.254 L 4.52365,-146.624
 L 4.5,-147 L 4.52365,-147.376 L 4.59424,-147.746 L 4.71066,-148.104 L 4.87108,-148.445 L 5.07294,-148.763
 L 5.31308,-149.054 L 5.58772,-149.312 L 5.89252,-149.533 L 6.22266,-149.714 L 6.57294,-149.853 L 6.93785,-149.947
 L 7.31161,-149.994 L 7.68837,-149.994 L 8.06213,-149.947 L 8.42705,-149.853 L 8.77733,-149.714 L 9.10747,-149.533
 L 9.41226,-149.312 L 9.6869,-149.054 L 9.92705,-148.763 L 10.1289,-148.445 L 10.2893,-148.104 L 10.4057,-147.746
 L 10.4763,-147.376 L 10.5,-147 L 10.4763,-146.624 L 10.4057,-146.254 L 10.2893,-145.896 L 10.1289,-145.555
 L 9.92705,-145.237 L 9.6869,-144.946 L 9.41226,-144.688 L 9.10747,-144.467 L 8.77733,-144.286 L 8.42705,-144.147
 L 8.06213,-144.053 L 7.68837,-144.006 z
" stroke="black" fill="lightgray" stroke-width="0.5"/>
</svg>
