  0
SECTION
  2
BLOCKS
  0
ENDSEC
  0
SECTION
  2
ENTITIES
  0
LINE
  8
0
 10
70.4369
 20
17.0886
 11
71.0451
 21
17.2447
  0
LINE
  8
0
 10
71.0451
 20
17.2447
 11
71.6289
 21
17.4759
  0
LINE
  8
0
 10
71.6289
 20
17.4759
 11
72.1791
 21
17.7784
  0
LINE
  8
0
 10
72.1791
 20
17.7784
 11
72.6871
 21
18.1474
  0
LINE
  8
0
 10
72.6871
 20
18.1474
 11
73.1448
 21
18.5773
  0
LINE
  8
0
 10
73.1448
 20
18.5773
 11
73.5451
 21
19.0611
  0
LINE
  8
0
 10
73.5451
 20
19.0611
 11
73.8815
 21
19.5912
  0
LINE
  8
0
 10
73.8815
 20
19.5912
 11
74.1489
 21
20.1594
  0
LINE
  8
0
 10
74.1489
 20
20.1594
 11
74.3429
 21
20.7566
  0
LINE
  8
0
 10
74.3429
 20
20.7566
 11
74.4606
 21
21.3733
  0
LINE
  8
0
 10
74.4606
 20
21.3733
 11
74.5
 21
22
  0
LINE
  8
0
 10
74.5
 20
22
 11
74.5
 21
26
  0
LINE
  8
0
 10
74.5
 20
26
 11
74.4606
 21
26.6267
  0
LINE
  8
0
 10
74.4606
 20
26.6267
 11
74.3429
 21
27.2434
  0
LINE
  8
0
 10
74.3429
 20
27.2434
 11
74.1489
 21
27.8406
  0
LINE
  8
0
 10
74.1489
 20
27.8406
 11
73.8815
 21
28.4088
  0
LINE
  8
0
 10
73.8815
 20
28.4088
 11
73.5451
 21
28.9389
  0
LINE
  8
0
 10
73.5451
 20
28.9389
 11
73.1448
 21
29.4227
  0
LINE
  8
0
 10
73.1448
 20
29.4227
 11
72.6871
 21
29.8526
  0
LINE
  8
0
 10
72.6871
 20
29.8526
 11
72.1791
 21
30.2216
  0
LINE
  8
0
 10
72.1791
 20
30.2216
 11
71.6289
 21
30.5241
  0
LINE
  8
0
 10
71.6289
 20
30.5241
 11
71.0451
 21
30.7553
  0
LINE
  8
0
 10
71.0451
 20
30.7553
 11
70.4369
 21
30.9114
  0
LINE
  8
0
 10
70.4369
 20
30.9114
 11
69.8139
 21
30.9901
  0
LINE
  8
0
 10
69.8139
 20
30.9901
 11
-69.8139
 21
30.9901
  0
LINE
  8
0
 10
-69.8139
 20
30.9901
 11
-70.4369
 21
30.9114
  0
LINE
  8
0
 10
-70.4369
 20
30.9114
 11
-71.0451
 21
30.7553
  0
LINE
  8
0
 10
-71.0451
 20
30.7553
 11
-71.6289
 21
30.5241
  0
LINE
  8
0
 10
-71.6289
 20
30.5241
 11
-72.1791
 21
30.2216
  0
LINE
  8
0
 10
-72.1791
 20
30.2216
 11
-72.6871
 21
29.8526
  0
LINE
  8
0
 10
-72.6871
 20
29.8526
 11
-73.1448
 21
29.4227
  0
LINE
  8
0
 10
-73.1448
 20
29.4227
 11
-73.5451
 21
28.9389
  0
LINE
  8
0
 10
-73.5451
 20
28.9389
 11
-73.8815
 21
28.4088
  0
LINE
  8
0
 10
-73.8815
 20
28.4088
 11
-74.1489
 21
27.8406
  0
LINE
  8
0
 10
-74.1489
 20
27.8406
 11
-74.3429
 21
27.2434
  0
LINE
  8
0
 10
-74.3429
 20
27.2434
 11
-74.4606
 21
26.6267
  0
LINE
  8
0
 10
-74.4606
 20
26.6267
 11
-74.5
 21
26
  0
LINE
  8
0
 10
-74.5
 20
26
 11
-74.5
 21
22
  0
LINE
  8
0
 10
-74.5
 20
22
 11
-74.4606
 21
21.3733
  0
LINE
  8
0
 10
-74.4606
 20
21.3733
 11
-74.3429
 21
20.7566
  0
LINE
  8
0
 10
-74.3429
 20
20.7566
 11
-74.1489
 21
20.1594
  0
LINE
  8
0
 10
-74.1489
 20
20.1594
 11
-73.8815
 21
19.5912
  0
LINE
  8
0
 10
-73.8815
 20
19.5912
 11
-73.5451
 21
19.0611
  0
LINE
  8
0
 10
-73.5451
 20
19.0611
 11
-73.1448
 21
18.5773
  0
LINE
  8
0
 10
-73.1448
 20
18.5773
 11
-72.6871
 21
18.1474
  0
LINE
  8
0
 10
-72.6871
 20
18.1474
 11
-72.1791
 21
17.7784
  0
LINE
  8
0
 10
-72.1791
 20
17.7784
 11
-71.6289
 21
17.4759
  0
LINE
  8
0
 10
-71.6289
 20
17.4759
 11
-71.0451
 21
17.2447
  0
LINE
  8
0
 10
-71.0451
 20
17.2447
 11
-70.4369
 21
17.0886
  0
LINE
  8
0
 10
-70.4369
 20
17.0886
 11
-69.8139
 21
17.0099
  0
LINE
  8
0
 10
-69.8139
 20
17.0099
 11
69.8139
 21
17.0099
  0
LINE
  8
0
 10
69.8139
 20
17.0099
 11
70.4369
 21
17.0886
  0
LINE
  8
0
 10
52.3116
 20
21.0059
 11
51.9379
 21
21.0531
  0
LINE
  8
0
 10
51.9379
 20
21.0531
 11
51.5729
 21
21.1468
  0
LINE
  8
0
 10
51.5729
 20
21.1468
 11
51.2227
 21
21.2855
  0
LINE
  8
0
 10
51.2227
 20
21.2855
 11
50.8925
 21
21.467
  0
LINE
  8
0
 10
50.8925
 20
21.467
 11
50.5877
 21
21.6885
  0
LINE
  8
0
 10
50.5877
 20
21.6885
 11
50.3131
 21
21.9464
  0
LINE
  8
0
 10
50.3131
 20
21.9464
 11
50.0729
 21
22.2366
  0
LINE
  8
0
 10
50.0729
 20
22.2366
 11
49.8711
 21
22.5547
  0
LINE
  8
0
 10
49.8711
 20
22.5547
 11
49.7107
 21
22.8956
  0
LINE
  8
0
 10
49.7107
 20
22.8956
 11
49.5942
 21
23.2539
  0
LINE
  8
0
 10
49.5942
 20
23.2539
 11
49.5237
 21
23.624
  0
LINE
  8
0
 10
49.5237
 20
23.624
 11
49.5
 21
24
  0
LINE
  8
0
 10
49.5
 20
24
 11
49.5237
 21
24.376
  0
LINE
  8
0
 10
49.5237
 20
24.376
 11
49.5942
 21
24.7461
  0
LINE
  8
0
 10
49.5942
 20
24.7461
 11
49.7107
 21
25.1044
  0
LINE
  8
0
 10
49.7107
 20
25.1044
 11
49.8711
 21
25.4453
  0
LINE
  8
0
 10
49.8711
 20
25.4453
 11
50.0729
 21
25.7634
  0
LINE
  8
0
 10
50.0729
 20
25.7634
 11
50.3131
 21
26.0536
  0
LINE
  8
0
 10
50.3131
 20
26.0536
 11
50.5877
 21
26.3115
  0
LINE
  8
0
 10
50.5877
 20
26.3115
 11
50.8925
 21
26.533
  0
LINE
  8
0
 10
50.8925
 20
26.533
 11
51.2227
 21
26.7145
  0
LINE
  8
0
 10
51.2227
 20
26.7145
 11
51.5729
 21
26.8532
  0
LINE
  8
0
 10
51.5729
 20
26.8532
 11
51.9379
 21
26.9469
  0
LINE
  8
0
 10
51.9379
 20
26.9469
 11
52.3116
 21
26.9941
  0
LINE
  8
0
 10
52.3116
 20
26.9941
 11
52.6884
 21
26.9941
  0
LINE
  8
0
 10
52.6884
 20
26.9941
 11
53.0621
 21
26.9469
  0
LINE
  8
0
 10
53.0621
 20
26.9469
 11
53.427
 21
26.8532
  0
LINE
  8
0
 10
53.427
 20
26.8532
 11
53.7773
 21
26.7145
  0
LINE
  8
0
 10
53.7773
 20
26.7145
 11
54.1075
 21
26.533
  0
LINE
  8
0
 10
54.1075
 20
26.533
 11
54.4123
 21
26.3115
  0
LINE
  8
0
 10
54.4123
 20
26.3115
 11
54.6869
 21
26.0536
  0
LINE
  8
0
 10
54.6869
 20
26.0536
 11
54.927
 21
25.7634
  0
LINE
  8
0
 10
54.927
 20
25.7634
 11
55.1289
 21
25.4453
  0
LINE
  8
0
 10
55.1289
 20
25.4453
 11
55.2893
 21
25.1044
  0
LINE
  8
0
 10
55.2893
 20
25.1044
 11
55.4057
 21
24.7461
  0
LINE
  8
0
 10
55.4057
 20
24.7461
 11
55.4763
 21
24.376
  0
LINE
  8
0
 10
55.4763
 20
24.376
 11
55.5
 21
24
  0
LINE
  8
0
 10
55.5
 20
24
 11
55.4763
 21
23.624
  0
LINE
  8
0
 10
55.4763
 20
23.624
 11
55.4057
 21
23.2539
  0
LINE
  8
0
 10
55.4057
 20
23.2539
 11
55.2893
 21
22.8956
  0
LINE
  8
0
 10
55.2893
 20
22.8956
 11
55.1289
 21
22.5547
  0
LINE
  8
0
 10
55.1289
 20
22.5547
 11
54.927
 21
22.2366
  0
LINE
  8
0
 10
54.927
 20
22.2366
 11
54.6869
 21
21.9464
  0
LINE
  8
0
 10
54.6869
 20
21.9464
 11
54.4123
 21
21.6885
  0
LINE
  8
0
 10
54.4123
 20
21.6885
 11
54.1075
 21
21.467
  0
LINE
  8
0
 10
54.1075
 20
21.467
 11
53.7773
 21
21.2855
  0
LINE
  8
0
 10
53.7773
 20
21.2855
 11
53.427
 21
21.1468
  0
LINE
  8
0
 10
53.427
 20
21.1468
 11
53.0621
 21
21.0531
  0
LINE
  8
0
 10
53.0621
 20
21.0531
 11
52.6884
 21
21.0059
  0
LINE
  8
0
 10
52.6884
 20
21.0059
 11
52.3116
 21
21.0059
  0
LINE
  8
0
 10
67.3116
 20
21.0059
 11
66.9379
 21
21.0531
  0
LINE
  8
0
 10
66.9379
 20
21.0531
 11
66.573
 21
21.1468
  0
LINE
  8
0
 10
66.573
 20
21.1468
 11
66.2227
 21
21.2855
  0
LINE
  8
0
 10
66.2227
 20
21.2855
 11
65.8925
 21
21.467
  0
LINE
  8
0
 10
65.8925
 20
21.467
 11
65.5877
 21
21.6885
  0
LINE
  8
0
 10
65.5877
 20
21.6885
 11
65.3131
 21
21.9464
  0
LINE
  8
0
 10
65.3131
 20
21.9464
 11
65.073
 21
22.2366
  0
LINE
  8
0
 10
65.073
 20
22.2366
 11
64.8711
 21
22.5547
  0
LINE
  8
0
 10
64.8711
 20
22.5547
 11
64.7107
 21
22.8956
  0
LINE
  8
0
 10
64.7107
 20
22.8956
 11
64.5943
 21
23.2539
  0
LINE
  8
0
 10
64.5943
 20
23.2539
 11
64.5237
 21
23.624
  0
LINE
  8
0
 10
64.5237
 20
23.624
 11
64.5
 21
24
  0
LINE
  8
0
 10
64.5
 20
24
 11
64.5237
 21
24.376
  0
LINE
  8
0
 10
64.5237
 20
24.376
 11
64.5943
 21
24.7461
  0
LINE
  8
0
 10
64.5943
 20
24.7461
 11
64.7107
 21
25.1044
  0
LINE
  8
0
 10
64.7107
 20
25.1044
 11
64.8711
 21
25.4453
  0
LINE
  8
0
 10
64.8711
 20
25.4453
 11
65.073
 21
25.7634
  0
LINE
  8
0
 10
65.073
 20
25.7634
 11
65.3131
 21
26.0536
  0
LINE
  8
0
 10
65.3131
 20
26.0536
 11
65.5877
 21
26.3115
  0
LINE
  8
0
 10
65.5877
 20
26.3115
 11
65.8925
 21
26.533
  0
LINE
  8
0
 10
65.8925
 20
26.533
 11
66.2227
 21
26.7145
  0
LINE
  8
0
 10
66.2227
 20
26.7145
 11
66.573
 21
26.8532
  0
LINE
  8
0
 10
66.573
 20
26.8532
 11
66.9379
 21
26.9469
  0
LINE
  8
0
 10
66.9379
 20
26.9469
 11
67.3116
 21
26.9941
  0
LINE
  8
0
 10
67.3116
 20
26.9941
 11
67.6884
 21
26.9941
  0
LINE
  8
0
 10
67.6884
 20
26.9941
 11
68.0621
 21
26.9469
  0
LINE
  8
0
 10
68.0621
 20
26.9469
 11
68.427
 21
26.8532
  0
LINE
  8
0
 10
68.427
 20
26.8532
 11
68.7773
 21
26.7145
  0
LINE
  8
0
 10
68.7773
 20
26.7145
 11
69.1075
 21
26.533
  0
LINE
  8
0
 10
69.1075
 20
26.533
 11
69.4123
 21
26.3115
  0
LINE
  8
0
 10
69.4123
 20
26.3115
 11
69.6869
 21
26.0536
  0
LINE
  8
0
 10
69.6869
 20
26.0536
 11
69.927
 21
25.7634
  0
LINE
  8
0
 10
69.927
 20
25.7634
 11
70.1289
 21
25.4453
  0
LINE
  8
0
 10
70.1289
 20
25.4453
 11
70.2893
 21
25.1044
  0
LINE
  8
0
 10
70.2893
 20
25.1044
 11
70.4057
 21
24.7461
  0
LINE
  8
0
 10
70.4057
 20
24.7461
 11
70.4763
 21
24.376
  0
LINE
  8
0
 10
70.4763
 20
24.376
 11
70.5
 21
24
  0
LINE
  8
0
 10
70.5
 20
24
 11
70.4763
 21
23.624
  0
LINE
  8
0
 10
70.4763
 20
23.624
 11
70.4057
 21
23.2539
  0
LINE
  8
0
 10
70.4057
 20
23.2539
 11
70.2893
 21
22.8956
  0
LINE
  8
0
 10
70.2893
 20
22.8956
 11
70.1289
 21
22.5547
  0
LINE
  8
0
 10
70.1289
 20
22.5547
 11
69.927
 21
22.2366
  0
LINE
  8
0
 10
69.927
 20
22.2366
 11
69.6869
 21
21.9464
  0
LINE
  8
0
 10
69.6869
 20
21.9464
 11
69.4123
 21
21.6885
  0
LINE
  8
0
 10
69.4123
 20
21.6885
 11
69.1075
 21
21.467
  0
LINE
  8
0
 10
69.1075
 20
21.467
 11
68.7773
 21
21.2855
  0
LINE
  8
0
 10
68.7773
 20
21.2855
 11
68.427
 21
21.1468
  0
LINE
  8
0
 10
68.427
 20
21.1468
 11
68.0621
 21
21.0531
  0
LINE
  8
0
 10
68.0621
 20
21.0531
 11
67.6884
 21
21.0059
  0
LINE
  8
0
 10
67.6884
 20
21.0059
 11
67.3116
 21
21.0059
  0
LINE
  8
0
 10
-37.6884
 20
21.0059
 11
-38.0621
 21
21.0531
  0
LINE
  8
0
 10
-38.0621
 20
21.0531
 11
-38.427
 21
21.1468
  0
LINE
  8
0
 10
-38.427
 20
21.1468
 11
-38.7773
 21
21.2855
  0
LINE
  8
0
 10
-38.7773
 20
21.2855
 11
-39.1075
 21
21.467
  0
LINE
  8
0
 10
-39.1075
 20
21.467
 11
-39.4123
 21
21.6885
  0
LINE
  8
0
 10
-39.4123
 20
21.6885
 11
-39.6869
 21
21.9464
  0
LINE
  8
0
 10
-39.6869
 20
21.9464
 11
-39.927
 21
22.2366
  0
LINE
  8
0
 10
-39.927
 20
22.2366
 11
-40.1289
 21
22.5547
  0
LINE
  8
0
 10
-40.1289
 20
22.5547
 11
-40.2893
 21
22.8956
  0
LINE
  8
0
 10
-40.2893
 20
22.8956
 11
-40.4057
 21
23.2539
  0
LINE
  8
0
 10
-40.4057
 20
23.2539
 11
-40.4763
 21
23.624
  0
LINE
  8
0
 10
-40.4763
 20
23.624
 11
-40.5
 21
24
  0
LINE
  8
0
 10
-40.5
 20
24
 11
-40.4763
 21
24.376
  0
LINE
  8
0
 10
-40.4763
 20
24.376
 11
-40.4057
 21
24.7461
  0
LINE
  8
0
 10
-40.4057
 20
24.7461
 11
-40.2893
 21
25.1044
  0
LINE
  8
0
 10
-40.2893
 20
25.1044
 11
-40.1289
 21
25.4453
  0
LINE
  8
0
 10
-40.1289
 20
25.4453
 11
-39.927
 21
25.7634
  0
LINE
  8
0
 10
-39.927
 20
25.7634
 11
-39.6869
 21
26.0536
  0
LINE
  8
0
 10
-39.6869
 20
26.0536
 11
-39.4123
 21
26.3115
  0
LINE
  8
0
 10
-39.4123
 20
26.3115
 11
-39.1075
 21
26.533
  0
LINE
  8
0
 10
-39.1075
 20
26.533
 11
-38.7773
 21
26.7145
  0
LINE
  8
0
 10
-38.7773
 20
26.7145
 11
-38.427
 21
26.8532
  0
LINE
  8
0
 10
-38.427
 20
26.8532
 11
-38.0621
 21
26.9469
  0
LINE
  8
0
 10
-38.0621
 20
26.9469
 11
-37.6884
 21
26.9941
  0
LINE
  8
0
 10
-37.6884
 20
26.9941
 11
-37.3116
 21
26.9941
  0
LINE
  8
0
 10
-37.3116
 20
26.9941
 11
-36.9379
 21
26.9469
  0
LINE
  8
0
 10
-36.9379
 20
26.9469
 11
-36.5729
 21
26.8532
  0
LINE
  8
0
 10
-36.5729
 20
26.8532
 11
-36.2227
 21
26.7145
  0
LINE
  8
0
 10
-36.2227
 20
26.7145
 11
-35.8925
 21
26.533
  0
LINE
  8
0
 10
-35.8925
 20
26.533
 11
-35.5877
 21
26.3115
  0
LINE
  8
0
 10
-35.5877
 20
26.3115
 11
-35.3131
 21
26.0536
  0
LINE
  8
0
 10
-35.3131
 20
26.0536
 11
-35.0729
 21
25.7634
  0
LINE
  8
0
 10
-35.0729
 20
25.7634
 11
-34.8711
 21
25.4453
  0
LINE
  8
0
 10
-34.8711
 20
25.4453
 11
-34.7107
 21
25.1044
  0
LINE
  8
0
 10
-34.7107
 20
25.1044
 11
-34.5942
 21
24.7461
  0
LINE
  8
0
 10
-34.5942
 20
24.7461
 11
-34.5237
 21
24.376
  0
LINE
  8
0
 10
-34.5237
 20
24.376
 11
-34.5
 21
24
  0
LINE
  8
0
 10
-34.5
 20
24
 11
-34.5237
 21
23.624
  0
LINE
  8
0
 10
-34.5237
 20
23.624
 11
-34.5942
 21
23.2539
  0
LINE
  8
0
 10
-34.5942
 20
23.2539
 11
-34.7107
 21
22.8956
  0
LINE
  8
0
 10
-34.7107
 20
22.8956
 11
-34.8711
 21
22.5547
  0
LINE
  8
0
 10
-34.8711
 20
22.5547
 11
-35.0729
 21
22.2366
  0
LINE
  8
0
 10
-35.0729
 20
22.2366
 11
-35.3131
 21
21.9464
  0
LINE
  8
0
 10
-35.3131
 20
21.9464
 11
-35.5877
 21
21.6885
  0
LINE
  8
0
 10
-35.5877
 20
21.6885
 11
-35.8925
 21
21.467
  0
LINE
  8
0
 10
-35.8925
 20
21.467
 11
-36.2227
 21
21.2855
  0
LINE
  8
0
 10
-36.2227
 20
21.2855
 11
-36.5729
 21
21.1468
  0
LINE
  8
0
 10
-36.5729
 20
21.1468
 11
-36.9379
 21
21.0531
  0
LINE
  8
0
 10
-36.9379
 20
21.0531
 11
-37.3116
 21
21.0059
  0
LINE
  8
0
 10
-37.3116
 20
21.0059
 11
-37.6884
 21
21.0059
  0
LINE
  8
0
 10
7.31161
 20
21.0059
 11
6.93785
 21
21.0531
  0
LINE
  8
0
 10
6.93785
 20
21.0531
 11
6.57294
 21
21.1468
  0
LINE
  8
0
 10
6.57294
 20
21.1468
 11
6.22266
 21
21.2855
  0
LINE
  8
0
 10
6.22266
 20
21.2855
 11
5.89252
 21
21.467
  0
LINE
  8
0
 10
5.89252
 20
21.467
 11
5.58772
 21
21.6885
  0
LINE
  8
0
 10
5.58772
 20
21.6885
 11
5.31308
 21
21.9464
  0
LINE
  8
0
 10
5.31308
 20
21.9464
 11
5.07294
 21
22.2366
  0
LINE
  8
0
 10
5.07294
 20
22.2366
 11
4.87108
 21
22.5547
  0
LINE
  8
0
 10
4.87108
 20
22.5547
 11
4.71066
 21
22.8956
  0
LINE
  8
0
 10
4.71066
 20
22.8956
 11
4.59424
 21
23.2539
  0
LINE
  8
0
 10
4.59424
 20
23.2539
 11
4.52365
 21
23.624
  0
LINE
  8
0
 10
4.52365
 20
23.624
 11
4.5
 21
24
  0
LINE
  8
0
 10
4.5
 20
24
 11
4.52365
 21
24.376
  0
LINE
  8
0
 10
4.52365
 20
24.376
 11
4.59424
 21
24.7461
  0
LINE
  8
0
 10
4.59424
 20
24.7461
 11
4.71066
 21
25.1044
  0
LINE
  8
0
 10
4.71066
 20
25.1044
 11
4.87108
 21
25.4453
  0
LINE
  8
0
 10
4.87108
 20
25.4453
 11
5.07294
 21
25.7634
  0
LINE
  8
0
 10
5.07294
 20
25.7634
 11
5.31308
 21
26.0536
  0
LINE
  8
0
 10
5.31308
 20
26.0536
 11
5.58772
 21
26.3115
  0
LINE
  8
0
 10
5.58772
 20
26.3115
 11
5.89252
 21
26.533
  0
LINE
  8
0
 10
5.89252
 20
26.533
 11
6.22266
 21
26.7145
  0
LINE
  8
0
 10
6.22266
 20
26.7145
 11
6.57294
 21
26.8532
  0
LINE
  8
0
 10
6.57294
 20
26.8532
 11
6.93785
 21
26.9469
  0
LINE
  8
0
 10
6.93785
 20
26.9469
 11
7.31161
 21
26.9941
  0
LINE
  8
0
 10
7.31161
 20
26.9941
 11
7.68837
 21
26.9941
  0
LINE
  8
0
 10
7.68837
 20
26.9941
 11
8.06213
 21
26.9469
  0
LINE
  8
0
 10
8.06213
 20
26.9469
 11
8.42705
 21
26.8532
  0
LINE
  8
0
 10
8.42705
 20
26.8532
 11
8.77733
 21
26.7145
  0
LINE
  8
0
 10
8.77733
 20
26.7145
 11
9.10747
 21
26.533
  0
LINE
  8
0
 10
9.10747
 20
26.533
 11
9.41226
 21
26.3115
  0
LINE
  8
0
 10
9.41226
 20
26.3115
 11
9.6869
 21
26.0536
  0
LINE
  8
0
 10
9.6869
 20
26.0536
 11
9.92705
 21
25.7634
  0
LINE
  8
0
 10
9.92705
 20
25.7634
 11
10.1289
 21
25.4453
  0
LINE
  8
0
 10
10.1289
 20
25.4453
 11
10.2893
 21
25.1044
  0
LINE
  8
0
 10
10.2893
 20
25.1044
 11
10.4057
 21
24.7461
  0
LINE
  8
0
 10
10.4057
 20
24.7461
 11
10.4763
 21
24.376
  0
LINE
  8
0
 10
10.4763
 20
24.376
 11
10.5
 21
24
  0
LINE
  8
0
 10
10.5
 20
24
 11
10.4763
 21
23.624
  0
LINE
  8
0
 10
10.4763
 20
23.624
 11
10.4057
 21
23.2539
  0
LINE
  8
0
 10
10.4057
 20
23.2539
 11
10.2893
 21
22.8956
  0
LINE
  8
0
 10
10.2893
 20
22.8956
 11
10.1289
 21
22.5547
  0
LINE
  8
0
 10
10.1289
 20
22.5547
 11
9.92705
 21
22.2366
  0
LINE
  8
0
 10
9.92705
 20
22.2366
 11
9.6869
 21
21.9464
  0
LINE
  8
0
 10
9.6869
 20
21.9464
 11
9.41226
 21
21.6885
  0
LINE
  8
0
 10
9.41226
 20
21.6885
 11
9.10747
 21
21.467
  0
LINE
  8
0
 10
9.10747
 20
21.467
 11
8.77733
 21
21.2855
  0
LINE
  8
0
 10
8.77733
 20
21.2855
 11
8.42705
 21
21.1468
  0
LINE
  8
0
 10
8.42705
 20
21.1468
 11
8.06213
 21
21.0531
  0
LINE
  8
0
 10
8.06213
 20
21.0531
 11
7.68837
 21
21.0059
  0
LINE
  8
0
 10
7.68837
 20
21.0059
 11
7.31161
 21
21.0059
  0
LINE
  8
0
 10
-22.6884
 20
21.0059
 11
-23.0621
 21
21.0531
  0
LINE
  8
0
 10
-23.0621
 20
21.0531
 11
-23.427
 21
21.1468
  0
LINE
  8
0
 10
-23.427
 20
21.1468
 11
-23.7773
 21
21.2855
  0
LINE
  8
0
 10
-23.7773
 20
21.2855
 11
-24.1075
 21
21.467
  0
LINE
  8
0
 10
-24.1075
 20
21.467
 11
-24.4123
 21
21.6885
  0
LINE
  8
0
 10
-24.4123
 20
21.6885
 11
-24.6869
 21
21.9464
  0
LINE
  8
0
 10
-24.6869
 20
21.9464
 11
-24.927
 21
22.2366
  0
LINE
  8
0
 10
-24.927
 20
22.2366
 11
-25.1289
 21
22.5547
  0
LINE
  8
0
 10
-25.1289
 20
22.5547
 11
-25.2893
 21
22.8956
  0
LINE
  8
0
 10
-25.2893
 20
22.8956
 11
-25.4057
 21
23.2539
  0
LINE
  8
0
 10
-25.4057
 20
23.2539
 11
-25.4763
 21
23.624
  0
LINE
  8
0
 10
-25.4763
 20
23.624
 11
-25.5
 21
24
  0
LINE
  8
0
 10
-25.5
 20
24
 11
-25.4763
 21
24.376
  0
LINE
  8
0
 10
-25.4763
 20
24.376
 11
-25.4057
 21
24.7461
  0
LINE
  8
0
 10
-25.4057
 20
24.7461
 11
-25.2893
 21
25.1044
  0
LINE
  8
0
 10
-25.2893
 20
25.1044
 11
-25.1289
 21
25.4453
  0
LINE
  8
0
 10
-25.1289
 20
25.4453
 11
-24.927
 21
25.7634
  0
LINE
  8
0
 10
-24.927
 20
25.7634
 11
-24.6869
 21
26.0536
  0
LINE
  8
0
 10
-24.6869
 20
26.0536
 11
-24.4123
 21
26.3115
  0
LINE
  8
0
 10
-24.4123
 20
26.3115
 11
-24.1075
 21
26.533
  0
LINE
  8
0
 10
-24.1075
 20
26.533
 11
-23.7773
 21
26.7145
  0
LINE
  8
0
 10
-23.7773
 20
26.7145
 11
-23.427
 21
26.8532
  0
LINE
  8
0
 10
-23.427
 20
26.8532
 11
-23.0621
 21
26.9469
  0
LINE
  8
0
 10
-23.0621
 20
26.9469
 11
-22.6884
 21
26.9941
  0
LINE
  8
0
 10
-22.6884
 20
26.9941
 11
-22.3116
 21
26.9941
  0
LINE
  8
0
 10
-22.3116
 20
26.9941
 11
-21.9379
 21
26.9469
  0
LINE
  8
0
 10
-21.9379
 20
26.9469
 11
-21.5729
 21
26.8532
  0
LINE
  8
0
 10
-21.5729
 20
26.8532
 11
-21.2227
 21
26.7145
  0
LINE
  8
0
 10
-21.2227
 20
26.7145
 11
-20.8925
 21
26.533
  0
LINE
  8
0
 10
-20.8925
 20
26.533
 11
-20.5877
 21
26.3115
  0
LINE
  8
0
 10
-20.5877
 20
26.3115
 11
-20.3131
 21
26.0536
  0
LINE
  8
0
 10
-20.3131
 20
26.0536
 11
-20.0729
 21
25.7634
  0
LINE
  8
0
 10
-20.0729
 20
25.7634
 11
-19.8711
 21
25.4453
  0
LINE
  8
0
 10
-19.8711
 20
25.4453
 11
-19.7107
 21
25.1044
  0
LINE
  8
0
 10
-19.7107
 20
25.1044
 11
-19.5942
 21
24.7461
  0
LINE
  8
0
 10
-19.5942
 20
24.7461
 11
-19.5237
 21
24.376
  0
LINE
  8
0
 10
-19.5237
 20
24.376
 11
-19.5
 21
24
  0
LINE
  8
0
 10
-19.5
 20
24
 11
-19.5237
 21
23.624
  0
LINE
  8
0
 10
-19.5237
 20
23.624
 11
-19.5942
 21
23.2539
  0
LINE
  8
0
 10
-19.5942
 20
23.2539
 11
-19.7107
 21
22.8956
  0
LINE
  8
0
 10
-19.7107
 20
22.8956
 11
-19.8711
 21
22.5547
  0
LINE
  8
0
 10
-19.8711
 20
22.5547
 11
-20.0729
 21
22.2366
  0
LINE
  8
0
 10
-20.0729
 20
22.2366
 11
-20.3131
 21
21.9464
  0
LINE
  8
0
 10
-20.3131
 20
21.9464
 11
-20.5877
 21
21.6885
  0
LINE
  8
0
 10
-20.5877
 20
21.6885
 11
-20.8925
 21
21.467
  0
LINE
  8
0
 10
-20.8925
 20
21.467
 11
-21.2227
 21
21.2855
  0
LINE
  8
0
 10
-21.2227
 20
21.2855
 11
-21.5729
 21
21.1468
  0
LINE
  8
0
 10
-21.5729
 20
21.1468
 11
-21.9379
 21
21.0531
  0
LINE
  8
0
 10
-21.9379
 20
21.0531
 11
-22.3116
 21
21.0059
  0
LINE
  8
0
 10
-22.3116
 20
21.0059
 11
-22.6884
 21
21.0059
  0
LINE
  8
0
 10
-52.6884
 20
21.0059
 11
-53.0621
 21
21.0531
  0
LINE
  8
0
 10
-53.0621
 20
21.0531
 11
-53.427
 21
21.1468
  0
LINE
  8
0
 10
-53.427
 20
21.1468
 11
-53.7773
 21
21.2855
  0
LINE
  8
0
 10
-53.7773
 20
21.2855
 11
-54.1075
 21
21.467
  0
LINE
  8
0
 10
-54.1075
 20
21.467
 11
-54.4123
 21
21.6885
  0
LINE
  8
0
 10
-54.4123
 20
21.6885
 11
-54.6869
 21
21.9464
  0
LINE
  8
0
 10
-54.6869
 20
21.9464
 11
-54.927
 21
22.2366
  0
LINE
  8
0
 10
-54.927
 20
22.2366
 11
-55.1289
 21
22.5547
  0
LINE
  8
0
 10
-55.1289
 20
22.5547
 11
-55.2893
 21
22.8956
  0
LINE
  8
0
 10
-55.2893
 20
22.8956
 11
-55.4057
 21
23.2539
  0
LINE
  8
0
 10
-55.4057
 20
23.2539
 11
-55.4763
 21
23.624
  0
LINE
  8
0
 10
-55.4763
 20
23.624
 11
-55.5
 21
24
  0
LINE
  8
0
 10
-55.5
 20
24
 11
-55.4763
 21
24.376
  0
LINE
  8
0
 10
-55.4763
 20
24.376
 11
-55.4057
 21
24.7461
  0
LINE
  8
0
 10
-55.4057
 20
24.7461
 11
-55.2893
 21
25.1044
  0
LINE
  8
0
 10
-55.2893
 20
25.1044
 11
-55.1289
 21
25.4453
  0
LINE
  8
0
 10
-55.1289
 20
25.4453
 11
-54.927
 21
25.7634
  0
LINE
  8
0
 10
-54.927
 20
25.7634
 11
-54.6869
 21
26.0536
  0
LINE
  8
0
 10
-54.6869
 20
26.0536
 11
-54.4123
 21
26.3115
  0
LINE
  8
0
 10
-54.4123
 20
26.3115
 11
-54.1075
 21
26.533
  0
LINE
  8
0
 10
-54.1075
 20
26.533
 11
-53.7773
 21
26.7145
  0
LINE
  8
0
 10
-53.7773
 20
26.7145
 11
-53.427
 21
26.8532
  0
LINE
  8
0
 10
-53.427
 20
26.8532
 11
-53.0621
 21
26.9469
  0
LINE
  8
0
 10
-53.0621
 20
26.9469
 11
-52.6884
 21
26.9941
  0
LINE
  8
0
 10
-52.6884
 20
26.9941
 11
-52.3116
 21
26.9941
  0
LINE
  8
0
 10
-52.3116
 20
26.9941
 11
-51.9379
 21
26.9469
  0
LINE
  8
0
 10
-51.9379
 20
26.9469
 11
-51.5729
 21
26.8532
  0
LINE
  8
0
 10
-51.5729
 20
26.8532
 11
-51.2227
 21
26.7145
  0
LINE
  8
0
 10
-51.2227
 20
26.7145
 11
-50.8925
 21
26.533
  0
LINE
  8
0
 10
-50.8925
 20
26.533
 11
-50.5877
 21
26.3115
  0
LINE
  8
0
 10
-50.5877
 20
26.3115
 11
-50.3131
 21
26.0536
  0
LINE
  8
0
 10
-50.3131
 20
26.0536
 11
-50.0729
 21
25.7634
  0
LINE
  8
0
 10
-50.0729
 20
25.7634
 11
-49.8711
 21
25.4453
  0
LINE
  8
0
 10
-49.8711
 20
25.4453
 11
-49.7107
 21
25.1044
  0
LINE
  8
0
 10
-49.7107
 20
25.1044
 11
-49.5942
 21
24.7461
  0
LINE
  8
0
 10
-49.5942
 20
24.7461
 11
-49.5237
 21
24.376
  0
LINE
  8
0
 10
-49.5237
 20
24.376
 11
-49.5
 21
24
  0
LINE
  8
0
 10
-49.5
 20
24
 11
-49.5237
 21
23.624
  0
LINE
  8
0
 10
-49.5237
 20
23.624
 11
-49.5942
 21
23.2539
  0
LINE
  8
0
 10
-49.5942
 20
23.2539
 11
-49.7107
 21
22.8956
  0
LINE
  8
0
 10
-49.7107
 20
22.8956
 11
-49.8711
 21
22.5547
  0
LINE
  8
0
 10
-49.8711
 20
22.5547
 11
-50.0729
 21
22.2366
  0
LINE
  8
0
 10
-50.0729
 20
22.2366
 11
-50.3131
 21
21.9464
  0
LINE
  8
0
 10
-50.3131
 20
21.9464
 11
-50.5877
 21
21.6885
  0
LINE
  8
0
 10
-50.5877
 20
21.6885
 11
-50.8925
 21
21.467
  0
LINE
  8
0
 10
-50.8925
 20
21.467
 11
-51.2227
 21
21.2855
  0
LINE
  8
0
 10
-51.2227
 20
21.2855
 11
-51.5729
 21
21.1468
  0
LINE
  8
0
 10
-51.5729
 20
21.1468
 11
-51.9379
 21
21.0531
  0
LINE
  8
0
 10
-51.9379
 20
21.0531
 11
-52.3116
 21
21.0059
  0
LINE
  8
0
 10
-52.3116
 20
21.0059
 11
-52.6884
 21
21.0059
  0
LINE
  8
0
 10
-67.6884
 20
21.0059
 11
-68.0621
 21
21.0531
  0
LINE
  8
0
 10
-68.0621
 20
21.0531
 11
-68.427
 21
21.1468
  0
LINE
  8
0
 10
-68.427
 20
21.1468
 11
-68.7773
 21
21.2855
  0
LINE
  8
0
 10
-68.7773
 20
21.2855
 11
-69.1075
 21
21.467
  0
LINE
  8
0
 10
-69.1075
 20
21.467
 11
-69.4123
 21
21.6885
  0
LINE
  8
0
 10
-69.4123
 20
21.6885
 11
-69.6869
 21
21.9464
  0
LINE
  8
0
 10
-69.6869
 20
21.9464
 11
-69.927
 21
22.2366
  0
LINE
  8
0
 10
-69.927
 20
22.2366
 11
-70.1289
 21
22.5547
  0
LINE
  8
0
 10
-70.1289
 20
22.5547
 11
-70.2893
 21
22.8956
  0
LINE
  8
0
 10
-70.2893
 20
22.8956
 11
-70.4057
 21
23.2539
  0
LINE
  8
0
 10
-70.4057
 20
23.2539
 11
-70.4763
 21
23.624
  0
LINE
  8
0
 10
-70.4763
 20
23.624
 11
-70.5
 21
24
  0
LINE
  8
0
 10
-70.5
 20
24
 11
-70.4763
 21
24.376
  0
LINE
  8
0
 10
-70.4763
 20
24.376
 11
-70.4057
 21
24.7461
  0
LINE
  8
0
 10
-70.4057
 20
24.7461
 11
-70.2893
 21
25.1044
  0
LINE
  8
0
 10
-70.2893
 20
25.1044
 11
-70.1289
 21
25.4453
  0
LINE
  8
0
 10
-70.1289
 20
25.4453
 11
-69.927
 21
25.7634
  0
LINE
  8
0
 10
-69.927
 20
25.7634
 11
-69.6869
 21
26.0536
  0
LINE
  8
0
 10
-69.6869
 20
26.0536
 11
-69.4123
 21
26.3115
  0
LINE
  8
0
 10
-69.4123
 20
26.3115
 11
-69.1075
 21
26.533
  0
LINE
  8
0
 10
-69.1075
 20
26.533
 11
-68.7773
 21
26.7145
  0
LINE
  8
0
 10
-68.7773
 20
26.7145
 11
-68.427
 21
26.8532
  0
LINE
  8
0
 10
-68.427
 20
26.8532
 11
-68.0621
 21
26.9469
  0
LINE
  8
0
 10
-68.0621
 20
26.9469
 11
-67.6884
 21
26.9941
  0
LINE
  8
0
 10
-67.6884
 20
26.9941
 11
-67.3116
 21
26.9941
  0
LINE
  8
0
 10
-67.3116
 20
26.9941
 11
-66.9379
 21
26.9469
  0
LINE
  8
0
 10
-66.9379
 20
26.9469
 11
-66.573
 21
26.8532
  0
LINE
  8
0
 10
-66.573
 20
26.8532
 11
-66.2227
 21
26.7145
  0
LINE
  8
0
 10
-66.2227
 20
26.7145
 11
-65.8925
 21
26.533
  0
LINE
  8
0
 10
-65.8925
 20
26.533
 11
-65.5877
 21
26.3115
  0
LINE
  8
0
 10
-65.5877
 20
26.3115
 11
-65.3131
 21
26.0536
  0
LINE
  8
0
 10
-65.3131
 20
26.0536
 11
-65.073
 21
25.7634
  0
LINE
  8
0
 10
-65.073
 20
25.7634
 11
-64.8711
 21
25.4453
  0
LINE
  8
0
 10
-64.8711
 20
25.4453
 11
-64.7107
 21
25.1044
  0
LINE
  8
0
 10
-64.7107
 20
25.1044
 11
-64.5943
 21
24.7461
  0
LINE
  8
0
 10
-64.5943
 20
24.7461
 11
-64.5237
 21
24.376
  0
LINE
  8
0
 10
-64.5237
 20
24.376
 11
-64.5
 21
24
  0
LINE
  8
0
 10
-64.5
 20
24
 11
-64.5237
 21
23.624
  0
LINE
  8
0
 10
-64.5237
 20
23.624
 11
-64.5943
 21
23.2539
  0
LINE
  8
0
 10
-64.5943
 20
23.2539
 11
-64.7107
 21
22.8956
  0
LINE
  8
0
 10
-64.7107
 20
22.8956
 11
-64.8711
 21
22.5547
  0
LINE
  8
0
 10
-64.8711
 20
22.5547
 11
-65.073
 21
22.2366
  0
LINE
  8
0
 10
-65.073
 20
22.2366
 11
-65.3131
 21
21.9464
  0
LINE
  8
0
 10
-65.3131
 20
21.9464
 11
-65.5877
 21
21.6885
  0
LINE
  8
0
 10
-65.5877
 20
21.6885
 11
-65.8925
 21
21.467
  0
LINE
  8
0
 10
-65.8925
 20
21.467
 11
-66.2227
 21
21.2855
  0
LINE
  8
0
 10
-66.2227
 20
21.2855
 11
-66.573
 21
21.1468
  0
LINE
  8
0
 10
-66.573
 20
21.1468
 11
-66.9379
 21
21.0531
  0
LINE
  8
0
 10
-66.9379
 20
21.0531
 11
-67.3116
 21
21.0059
  0
LINE
  8
0
 10
-67.3116
 20
21.0059
 11
-67.6884
 21
21.0059
  0
LINE
  8
0
 10
37.3116
 20
21.0059
 11
36.9379
 21
21.0531
  0
LINE
  8
0
 10
36.9379
 20
21.0531
 11
36.5729
 21
21.1468
  0
LINE
  8
0
 10
36.5729
 20
21.1468
 11
36.2227
 21
21.2855
  0
LINE
  8
0
 10
36.2227
 20
21.2855
 11
35.8925
 21
21.467
  0
LINE
  8
0
 10
35.8925
 20
21.467
 11
35.5877
 21
21.6885
  0
LINE
  8
0
 10
35.5877
 20
21.6885
 11
35.3131
 21
21.9464
  0
LINE
  8
0
 10
35.3131
 20
21.9464
 11
35.0729
 21
22.2366
  0
LINE
  8
0
 10
35.0729
 20
22.2366
 11
34.8711
 21
22.5547
  0
LINE
  8
0
 10
34.8711
 20
22.5547
 11
34.7107
 21
22.8956
  0
LINE
  8
0
 10
34.7107
 20
22.8956
 11
34.5942
 21
23.2539
  0
LINE
  8
0
 10
34.5942
 20
23.2539
 11
34.5237
 21
23.624
  0
LINE
  8
0
 10
34.5237
 20
23.624
 11
34.5
 21
24
  0
LINE
  8
0
 10
34.5
 20
24
 11
34.5237
 21
24.376
  0
LINE
  8
0
 10
34.5237
 20
24.376
 11
34.5942
 21
24.7461
  0
LINE
  8
0
 10
34.5942
 20
24.7461
 11
34.7107
 21
25.1044
  0
LINE
  8
0
 10
34.7107
 20
25.1044
 11
34.8711
 21
25.4453
  0
LINE
  8
0
 10
34.8711
 20
25.4453
 11
35.0729
 21
25.7634
  0
LINE
  8
0
 10
35.0729
 20
25.7634
 11
35.3131
 21
26.0536
  0
LINE
  8
0
 10
35.3131
 20
26.0536
 11
35.5877
 21
26.3115
  0
LINE
  8
0
 10
35.5877
 20
26.3115
 11
35.8925
 21
26.533
  0
LINE
  8
0
 10
35.8925
 20
26.533
 11
36.2227
 21
26.7145
  0
LINE
  8
0
 10
36.2227
 20
26.7145
 11
36.5729
 21
26.8532
  0
LINE
  8
0
 10
36.5729
 20
26.8532
 11
36.9379
 21
26.9469
  0
LINE
  8
0
 10
36.9379
 20
26.9469
 11
37.3116
 21
26.9941
  0
LINE
  8
0
 10
37.3116
 20
26.9941
 11
37.6884
 21
26.9941
  0
LINE
  8
0
 10
37.6884
 20
26.9941
 11
38.0621
 21
26.9469
  0
LINE
  8
0
 10
38.0621
 20
26.9469
 11
38.427
 21
26.8532
  0
LINE
  8
0
 10
38.427
 20
26.8532
 11
38.7773
 21
26.7145
  0
LINE
  8
0
 10
38.7773
 20
26.7145
 11
39.1075
 21
26.533
  0
LINE
  8
0
 10
39.1075
 20
26.533
 11
39.4123
 21
26.3115
  0
LINE
  8
0
 10
39.4123
 20
26.3115
 11
39.6869
 21
26.0536
  0
LINE
  8
0
 10
39.6869
 20
26.0536
 11
39.927
 21
25.7634
  0
LINE
  8
0
 10
39.927
 20
25.7634
 11
40.1289
 21
25.4453
  0
LINE
  8
0
 10
40.1289
 20
25.4453
 11
40.2893
 21
25.1044
  0
LINE
  8
0
 10
40.2893
 20
25.1044
 11
40.4057
 21
24.7461
  0
LINE
  8
0
 10
40.4057
 20
24.7461
 11
40.4763
 21
24.376
  0
LINE
  8
0
 10
40.4763
 20
24.376
 11
40.5
 21
24
  0
LINE
  8
0
 10
40.5
 20
24
 11
40.4763
 21
23.624
  0
LINE
  8
0
 10
40.4763
 20
23.624
 11
40.4057
 21
23.2539
  0
LINE
  8
0
 10
40.4057
 20
23.2539
 11
40.2893
 21
22.8956
  0
LINE
  8
0
 10
40.2893
 20
22.8956
 11
40.1289
 21
22.5547
  0
LINE
  8
0
 10
40.1289
 20
22.5547
 11
39.927
 21
22.2366
  0
LINE
  8
0
 10
39.927
 20
22.2366
 11
39.6869
 21
21.9464
  0
LINE
  8
0
 10
39.6869
 20
21.9464
 11
39.4123
 21
21.6885
  0
LINE
  8
0
 10
39.4123
 20
21.6885
 11
39.1075
 21
21.467
  0
LINE
  8
0
 10
39.1075
 20
21.467
 11
38.7773
 21
21.2855
  0
LINE
  8
0
 10
38.7773
 20
21.2855
 11
38.427
 21
21.1468
  0
LINE
  8
0
 10
38.427
 20
21.1468
 11
38.0621
 21
21.0531
  0
LINE
  8
0
 10
38.0621
 20
21.0531
 11
37.6884
 21
21.0059
  0
LINE
  8
0
 10
37.6884
 20
21.0059
 11
37.3116
 21
21.0059
  0
LINE
  8
0
 10
22.3116
 20
21.0059
 11
21.9379
 21
21.0531
  0
LINE
  8
0
 10
21.9379
 20
21.0531
 11
21.5729
 21
21.1468
  0
LINE
  8
0
 10
21.5729
 20
21.1468
 11
21.2227
 21
21.2855
  0
LINE
  8
0
 10
21.2227
 20
21.2855
 11
20.8925
 21
21.467
  0
LINE
  8
0
 10
20.8925
 20
21.467
 11
20.5877
 21
21.6885
  0
LINE
  8
0
 10
20.5877
 20
21.6885
 11
20.3131
 21
21.9464
  0
LINE
  8
0
 10
20.3131
 20
21.9464
 11
20.0729
 21
22.2366
  0
LINE
  8
0
 10
20.0729
 20
22.2366
 11
19.8711
 21
22.5547
  0
LINE
  8
0
 10
19.8711
 20
22.5547
 11
19.7107
 21
22.8956
  0
LINE
  8
0
 10
19.7107
 20
22.8956
 11
19.5942
 21
23.2539
  0
LINE
  8
0
 10
19.5942
 20
23.2539
 11
19.5237
 21
23.624
  0
LINE
  8
0
 10
19.5237
 20
23.624
 11
19.5
 21
24
  0
LINE
  8
0
 10
19.5
 20
24
 11
19.5237
 21
24.376
  0
LINE
  8
0
 10
19.5237
 20
24.376
 11
19.5942
 21
24.7461
  0
LINE
  8
0
 10
19.5942
 20
24.7461
 11
19.7107
 21
25.1044
  0
LINE
  8
0
 10
19.7107
 20
25.1044
 11
19.8711
 21
25.4453
  0
LINE
  8
0
 10
19.8711
 20
25.4453
 11
20.0729
 21
25.7634
  0
LINE
  8
0
 10
20.0729
 20
25.7634
 11
20.3131
 21
26.0536
  0
LINE
  8
0
 10
20.3131
 20
26.0536
 11
20.5877
 21
26.3115
  0
LINE
  8
0
 10
20.5877
 20
26.3115
 11
20.8925
 21
26.533
  0
LINE
  8
0
 10
20.8925
 20
26.533
 11
21.2227
 21
26.7145
  0
LINE
  8
0
 10
21.2227
 20
26.7145
 11
21.5729
 21
26.8532
  0
LINE
  8
0
 10
21.5729
 20
26.8532
 11
21.9379
 21
26.9469
  0
LINE
  8
0
 10
21.9379
 20
26.9469
 11
22.3116
 21
26.9941
  0
LINE
  8
0
 10
22.3116
 20
26.9941
 11
22.6884
 21
26.9941
  0
LINE
  8
0
 10
22.6884
 20
26.9941
 11
23.0621
 21
26.9469
  0
LINE
  8
0
 10
23.0621
 20
26.9469
 11
23.427
 21
26.8532
  0
LINE
  8
0
 10
23.427
 20
26.8532
 11
23.7773
 21
26.7145
  0
LINE
  8
0
 10
23.7773
 20
26.7145
 11
24.1075
 21
26.533
  0
LINE
  8
0
 10
24.1075
 20
26.533
 11
24.4123
 21
26.3115
  0
LINE
  8
0
 10
24.4123
 20
26.3115
 11
24.6869
 21
26.0536
  0
LINE
  8
0
 10
24.6869
 20
26.0536
 11
24.927
 21
25.7634
  0
LINE
  8
0
 10
24.927
 20
25.7634
 11
25.1289
 21
25.4453
  0
LINE
  8
0
 10
25.1289
 20
25.4453
 11
25.2893
 21
25.1044
  0
LINE
  8
0
 10
25.2893
 20
25.1044
 11
25.4057
 21
24.7461
  0
LINE
  8
0
 10
25.4057
 20
24.7461
 11
25.4763
 21
24.376
  0
LINE
  8
0
 10
25.4763
 20
24.376
 11
25.5
 21
24
  0
LINE
  8
0
 10
25.5
 20
24
 11
25.4763
 21
23.624
  0
LINE
  8
0
 10
25.4763
 20
23.624
 11
25.4057
 21
23.2539
  0
LINE
  8
0
 10
25.4057
 20
23.2539
 11
25.2893
 21
22.8956
  0
LINE
  8
0
 10
25.2893
 20
22.8956
 11
25.1289
 21
22.5547
  0
LINE
  8
0
 10
25.1289
 20
22.5547
 11
24.927
 21
22.2366
  0
LINE
  8
0
 10
24.927
 20
22.2366
 11
24.6869
 21
21.9464
  0
LINE
  8
0
 10
24.6869
 20
21.9464
 11
24.4123
 21
21.6885
  0
LINE
  8
0
 10
24.4123
 20
21.6885
 11
24.1075
 21
21.467
  0
LINE
  8
0
 10
24.1075
 20
21.467
 11
23.7773
 21
21.2855
  0
LINE
  8
0
 10
23.7773
 20
21.2855
 11
23.427
 21
21.1468
  0
LINE
  8
0
 10
23.427
 20
21.1468
 11
23.0621
 21
21.0531
  0
LINE
  8
0
 10
23.0621
 20
21.0531
 11
22.6884
 21
21.0059
  0
LINE
  8
0
 10
22.6884
 20
21.0059
 11
22.3116
 21
21.0059
  0
LINE
  8
0
 10
-7.68837
 20
21.0059
 11
-8.06213
 21
21.0531
  0
LINE
  8
0
 10
-8.06213
 20
21.0531
 11
-8.42705
 21
21.1468
  0
LINE
  8
0
 10
-8.42705
 20
21.1468
 11
-8.77733
 21
21.2855
  0
LINE
  8
0
 10
-8.77733
 20
21.2855
 11
-9.10747
 21
21.467
  0
LINE
  8
0
 10
-9.10747
 20
21.467
 11
-9.41226
 21
21.6885
  0
LINE
  8
0
 10
-9.41226
 20
21.6885
 11
-9.6869
 21
21.9464
  0
LINE
  8
0
 10
-9.6869
 20
21.9464
 11
-9.92705
 21
22.2366
  0
LINE
  8
0
 10
-9.92705
 20
22.2366
 11
-10.1289
 21
22.5547
  0
LINE
  8
0
 10
-10.1289
 20
22.5547
 11
-10.2893
 21
22.8956
  0
LINE
  8
0
 10
-10.2893
 20
22.8956
 11
-10.4057
 21
23.2539
  0
LINE
  8
0
 10
-10.4057
 20
23.2539
 11
-10.4763
 21
23.624
  0
LINE
  8
0
 10
-10.4763
 20
23.624
 11
-10.5
 21
24
  0
LINE
  8
0
 10
-10.5
 20
24
 11
-10.4763
 21
24.376
  0
LINE
  8
0
 10
-10.4763
 20
24.376
 11
-10.4057
 21
24.7461
  0
LINE
  8
0
 10
-10.4057
 20
24.7461
 11
-10.2893
 21
25.1044
  0
LINE
  8
0
 10
-10.2893
 20
25.1044
 11
-10.1289
 21
25.4453
  0
LINE
  8
0
 10
-10.1289
 20
25.4453
 11
-9.92705
 21
25.7634
  0
LINE
  8
0
 10
-9.92705
 20
25.7634
 11
-9.6869
 21
26.0536
  0
LINE
  8
0
 10
-9.6869
 20
26.0536
 11
-9.41226
 21
26.3115
  0
LINE
  8
0
 10
-9.41226
 20
26.3115
 11
-9.10747
 21
26.533
  0
LINE
  8
0
 10
-9.10747
 20
26.533
 11
-8.77733
 21
26.7145
  0
LINE
  8
0
 10
-8.77733
 20
26.7145
 11
-8.42705
 21
26.8532
  0
LINE
  8
0
 10
-8.42705
 20
26.8532
 11
-8.06213
 21
26.9469
  0
LINE
  8
0
 10
-8.06213
 20
26.9469
 11
-7.68837
 21
26.9941
  0
LINE
  8
0
 10
-7.68837
 20
26.9941
 11
-7.31161
 21
26.9941
  0
LINE
  8
0
 10
-7.31161
 20
26.9941
 11
-6.93785
 21
26.9469
  0
LINE
  8
0
 10
-6.93785
 20
26.9469
 11
-6.57294
 21
26.8532
  0
LINE
  8
0
 10
-6.57294
 20
26.8532
 11
-6.22266
 21
26.7145
  0
LINE
  8
0
 10
-6.22266
 20
26.7145
 11
-5.89252
 21
26.533
  0
LINE
  8
0
 10
-5.89252
 20
26.533
 11
-5.58772
 21
26.3115
  0
LINE
  8
0
 10
-5.58772
 20
26.3115
 11
-5.31308
 21
26.0536
  0
LINE
  8
0
 10
-5.31308
 20
26.0536
 11
-5.07294
 21
25.7634
  0
LINE
  8
0
 10
-5.07294
 20
25.7634
 11
-4.87108
 21
25.4453
  0
LINE
  8
0
 10
-4.87108
 20
25.4453
 11
-4.71066
 21
25.1044
  0
LINE
  8
0
 10
-4.71066
 20
25.1044
 11
-4.59424
 21
24.7461
  0
LINE
  8
0
 10
-4.59424
 20
24.7461
 11
-4.52365
 21
24.376
  0
LINE
  8
0
 10
-4.52365
 20
24.376
 11
-4.5
 21
24
  0
LINE
  8
0
 10
-4.5
 20
24
 11
-4.52365
 21
23.624
  0
LINE
  8
0
 10
-4.52365
 20
23.624
 11
-4.59424
 21
23.2539
  0
LINE
  8
0
 10
-4.59424
 20
23.2539
 11
-4.71066
 21
22.8956
  0
LINE
  8
0
 10
-4.71066
 20
22.8956
 11
-4.87108
 21
22.5547
  0
LINE
  8
0
 10
-4.87108
 20
22.5547
 11
-5.07294
 21
22.2366
  0
LINE
  8
0
 10
-5.07294
 20
22.2366
 11
-5.31308
 21
21.9464
  0
LINE
  8
0
 10
-5.31308
 20
21.9464
 11
-5.58772
 21
21.6885
  0
LINE
  8
0
 10
-5.58772
 20
21.6885
 11
-5.89252
 21
21.467
  0
LINE
  8
0
 10
-5.89252
 20
21.467
 11
-6.22266
 21
21.2855
  0
LINE
  8
0
 10
-6.22266
 20
21.2855
 11
-6.57294
 21
21.1468
  0
LINE
  8
0
 10
-6.57294
 20
21.1468
 11
-6.93785
 21
21.0531
  0
LINE
  8
0
 10
-6.93785
 20
21.0531
 11
-7.31161
 21
21.0059
  0
LINE
  8
0
 10
-7.31161
 20
21.0059
 11
-7.68837
 21
21.0059
  0
ENDSEC
  0
SECTION
  2
OBJECTS
  0
DICTIONARY
  0
ENDSEC
  0
EOF
