  0
SECTION
  2
BLOCKS
  0
ENDSEC
  0
SECTION
  2
ENTITIES
  0
LINE
  8
0
 10
92.9369
 20
-96.9114
 11
93.5451
 21
-96.7553
  0
LINE
  8
0
 10
93.5451
 20
-96.7553
 11
94.1289
 21
-96.5241
  0
LINE
  8
0
 10
94.1289
 20
-96.5241
 11
94.6791
 21
-96.2216
  0
LINE
  8
0
 10
94.6791
 20
-96.2216
 11
95.1871
 21
-95.8526
  0
LINE
  8
0
 10
95.1871
 20
-95.8526
 11
95.6448
 21
-95.4227
  0
LINE
  8
0
 10
95.6448
 20
-95.4227
 11
96.0451
 21
-94.9389
  0
LINE
  8
0
 10
96.0451
 20
-94.9389
 11
96.3815
 21
-94.4088
  0
LINE
  8
0
 10
96.3815
 20
-94.4088
 11
96.6489
 21
-93.8406
  0
LINE
  8
0
 10
96.6489
 20
-93.8406
 11
96.8429
 21
-93.2434
  0
LINE
  8
0
 10
96.8429
 20
-93.2434
 11
96.9606
 21
-92.6267
  0
LINE
  8
0
 10
96.9606
 20
-92.6267
 11
97
 21
-92
  0
LINE
  8
0
 10
97
 20
-92
 11
97
 21
92
  0
LINE
  8
0
 10
97
 20
92
 11
96.9606
 21
92.6267
  0
LINE
  8
0
 10
96.9606
 20
92.6267
 11
96.8429
 21
93.2434
  0
LINE
  8
0
 10
96.8429
 20
93.2434
 11
96.6489
 21
93.8406
  0
LINE
  8
0
 10
96.6489
 20
93.8406
 11
96.3815
 21
94.4088
  0
LINE
  8
0
 10
96.3815
 20
94.4088
 11
96.0451
 21
94.9389
  0
LINE
  8
0
 10
96.0451
 20
94.9389
 11
95.6448
 21
95.4227
  0
LINE
  8
0
 10
95.6448
 20
95.4227
 11
95.1871
 21
95.8526
  0
LINE
  8
0
 10
95.1871
 20
95.8526
 11
94.6791
 21
96.2216
  0
LINE
  8
0
 10
94.6791
 20
96.2216
 11
94.1289
 21
96.5241
  0
LINE
  8
0
 10
94.1289
 20
96.5241
 11
93.5451
 21
96.7553
  0
LINE
  8
0
 10
93.5451
 20
96.7553
 11
92.9369
 21
96.9114
  0
LINE
  8
0
 10
92.9369
 20
96.9114
 11
92.3139
 21
96.9901
  0
LINE
  8
0
 10
92.3139
 20
96.9901
 11
-92.3139
 21
96.9901
  0
LINE
  8
0
 10
-92.3139
 20
96.9901
 11
-92.9369
 21
96.9114
  0
LINE
  8
0
 10
-92.9369
 20
96.9114
 11
-93.5451
 21
96.7553
  0
LINE
  8
0
 10
-93.5451
 20
96.7553
 11
-94.1289
 21
96.5241
  0
LINE
  8
0
 10
-94.1289
 20
96.5241
 11
-94.6791
 21
96.2216
  0
LINE
  8
0
 10
-94.6791
 20
96.2216
 11
-95.1871
 21
95.8526
  0
LINE
  8
0
 10
-95.1871
 20
95.8526
 11
-95.6448
 21
95.4227
  0
LINE
  8
0
 10
-95.6448
 20
95.4227
 11
-96.0451
 21
94.9389
  0
LINE
  8
0
 10
-96.0451
 20
94.9389
 11
-96.3815
 21
94.4088
  0
LINE
  8
0
 10
-96.3815
 20
94.4088
 11
-96.6489
 21
93.8406
  0
LINE
  8
0
 10
-96.6489
 20
93.8406
 11
-96.8429
 21
93.2434
  0
LINE
  8
0
 10
-96.8429
 20
93.2434
 11
-96.9606
 21
92.6267
  0
LINE
  8
0
 10
-96.9606
 20
92.6267
 11
-97
 21
92
  0
LINE
  8
0
 10
-97
 20
92
 11
-97
 21
-92
  0
LINE
  8
0
 10
-97
 20
-92
 11
-96.9606
 21
-92.6267
  0
LINE
  8
0
 10
-96.9606
 20
-92.6267
 11
-96.8429
 21
-93.2434
  0
LINE
  8
0
 10
-96.8429
 20
-93.2434
 11
-96.6489
 21
-93.8406
  0
LINE
  8
0
 10
-96.6489
 20
-93.8406
 11
-96.3815
 21
-94.4088
  0
LINE
  8
0
 10
-96.3815
 20
-94.4088
 11
-96.0451
 21
-94.9389
  0
LINE
  8
0
 10
-96.0451
 20
-94.9389
 11
-95.6448
 21
-95.4227
  0
LINE
  8
0
 10
-95.6448
 20
-95.4227
 11
-95.1871
 21
-95.8526
  0
LINE
  8
0
 10
-95.1871
 20
-95.8526
 11
-94.6791
 21
-96.2216
  0
LINE
  8
0
 10
-94.6791
 20
-96.2216
 11
-94.1289
 21
-96.5241
  0
LINE
  8
0
 10
-94.1289
 20
-96.5241
 11
-93.5451
 21
-96.7553
  0
LINE
  8
0
 10
-93.5451
 20
-96.7553
 11
-92.9369
 21
-96.9114
  0
LINE
  8
0
 10
-92.9369
 20
-96.9114
 11
-92.3139
 21
-96.9901
  0
LINE
  8
0
 10
-92.3139
 20
-96.9901
 11
92.3139
 21
-96.9901
  0
LINE
  8
0
 10
92.3139
 20
-96.9901
 11
92.9369
 21
-96.9114
  0
LINE
  8
0
 10
-90.1884
 20
87.0059
 11
-90.5621
 21
87.0531
  0
LINE
  8
0
 10
-90.5621
 20
87.0531
 11
-90.927
 21
87.1468
  0
LINE
  8
0
 10
-90.927
 20
87.1468
 11
-91.2773
 21
87.2855
  0
LINE
  8
0
 10
-91.2773
 20
87.2855
 11
-91.6075
 21
87.467
  0
LINE
  8
0
 10
-91.6075
 20
87.467
 11
-91.9123
 21
87.6885
  0
LINE
  8
0
 10
-91.9123
 20
87.6885
 11
-92.1869
 21
87.9464
  0
LINE
  8
0
 10
-92.1869
 20
87.9464
 11
-92.427
 21
88.2366
  0
LINE
  8
0
 10
-92.427
 20
88.2366
 11
-92.6289
 21
88.5547
  0
LINE
  8
0
 10
-92.6289
 20
88.5547
 11
-92.7893
 21
88.8956
  0
LINE
  8
0
 10
-92.7893
 20
88.8956
 11
-92.9057
 21
89.2539
  0
LINE
  8
0
 10
-92.9057
 20
89.2539
 11
-92.9763
 21
89.624
  0
LINE
  8
0
 10
-92.9763
 20
89.624
 11
-93
 21
90
  0
LINE
  8
0
 10
-93
 20
90
 11
-92.9763
 21
90.376
  0
LINE
  8
0
 10
-92.9763
 20
90.376
 11
-92.9057
 21
90.7461
  0
LINE
  8
0
 10
-92.9057
 20
90.7461
 11
-92.7893
 21
91.1044
  0
LINE
  8
0
 10
-92.7893
 20
91.1044
 11
-92.6289
 21
91.4453
  0
LINE
  8
0
 10
-92.6289
 20
91.4453
 11
-92.427
 21
91.7634
  0
LINE
  8
0
 10
-92.427
 20
91.7634
 11
-92.1869
 21
92.0536
  0
LINE
  8
0
 10
-92.1869
 20
92.0536
 11
-91.9123
 21
92.3115
  0
LINE
  8
0
 10
-91.9123
 20
92.3115
 11
-91.6075
 21
92.533
  0
LINE
  8
0
 10
-91.6075
 20
92.533
 11
-91.2773
 21
92.7145
  0
LINE
  8
0
 10
-91.2773
 20
92.7145
 11
-90.927
 21
92.8532
  0
LINE
  8
0
 10
-90.927
 20
92.8532
 11
-90.5621
 21
92.9469
  0
LINE
  8
0
 10
-90.5621
 20
92.9469
 11
-90.1884
 21
92.9941
  0
LINE
  8
0
 10
-90.1884
 20
92.9941
 11
-89.8116
 21
92.9941
  0
LINE
  8
0
 10
-89.8116
 20
92.9941
 11
-89.4379
 21
92.9469
  0
LINE
  8
0
 10
-89.4379
 20
92.9469
 11
-89.073
 21
92.8532
  0
LINE
  8
0
 10
-89.073
 20
92.8532
 11
-88.7227
 21
92.7145
  0
LINE
  8
0
 10
-88.7227
 20
92.7145
 11
-88.3925
 21
92.533
  0
LINE
  8
0
 10
-88.3925
 20
92.533
 11
-88.0877
 21
92.3115
  0
LINE
  8
0
 10
-88.0877
 20
92.3115
 11
-87.8131
 21
92.0536
  0
LINE
  8
0
 10
-87.8131
 20
92.0536
 11
-87.573
 21
91.7634
  0
LINE
  8
0
 10
-87.573
 20
91.7634
 11
-87.3711
 21
91.4453
  0
LINE
  8
0
 10
-87.3711
 20
91.4453
 11
-87.2107
 21
91.1044
  0
LINE
  8
0
 10
-87.2107
 20
91.1044
 11
-87.0943
 21
90.7461
  0
LINE
  8
0
 10
-87.0943
 20
90.7461
 11
-87.0237
 21
90.376
  0
LINE
  8
0
 10
-87.0237
 20
90.376
 11
-87
 21
90
  0
LINE
  8
0
 10
-87
 20
90
 11
-87.0237
 21
89.624
  0
LINE
  8
0
 10
-87.0237
 20
89.624
 11
-87.0943
 21
89.2539
  0
LINE
  8
0
 10
-87.0943
 20
89.2539
 11
-87.2107
 21
88.8956
  0
LINE
  8
0
 10
-87.2107
 20
88.8956
 11
-87.3711
 21
88.5547
  0
LINE
  8
0
 10
-87.3711
 20
88.5547
 11
-87.573
 21
88.2366
  0
LINE
  8
0
 10
-87.573
 20
88.2366
 11
-87.8131
 21
87.9464
  0
LINE
  8
0
 10
-87.8131
 20
87.9464
 11
-88.0877
 21
87.6885
  0
LINE
  8
0
 10
-88.0877
 20
87.6885
 11
-88.3925
 21
87.467
  0
LINE
  8
0
 10
-88.3925
 20
87.467
 11
-88.7227
 21
87.2855
  0
LINE
  8
0
 10
-88.7227
 20
87.2855
 11
-89.073
 21
87.1468
  0
LINE
  8
0
 10
-89.073
 20
87.1468
 11
-89.4379
 21
87.0531
  0
LINE
  8
0
 10
-89.4379
 20
87.0531
 11
-89.8116
 21
87.0059
  0
LINE
  8
0
 10
-89.8116
 20
87.0059
 11
-90.1884
 21
87.0059
  0
LINE
  8
0
 10
-90.0942
 20
81.003
 11
-90.2811
 21
81.0266
  0
LINE
  8
0
 10
-90.2811
 20
81.0266
 11
-90.4635
 21
81.0734
  0
LINE
  8
0
 10
-90.4635
 20
81.0734
 11
-90.6387
 21
81.1428
  0
LINE
  8
0
 10
-90.6387
 20
81.1428
 11
-90.8037
 21
81.2335
  0
LINE
  8
0
 10
-90.8037
 20
81.2335
 11
-90.9561
 21
81.3442
  0
LINE
  8
0
 10
-90.9561
 20
81.3442
 11
-91.0934
 21
81.4732
  0
LINE
  8
0
 10
-91.0934
 20
81.4732
 11
-91.2135
 21
81.6183
  0
LINE
  8
0
 10
-91.2135
 20
81.6183
 11
-91.3145
 21
81.7774
  0
LINE
  8
0
 10
-91.3145
 20
81.7774
 11
-91.3947
 21
81.9478
  0
LINE
  8
0
 10
-91.3947
 20
81.9478
 11
-91.4529
 21
82.127
  0
LINE
  8
0
 10
-91.4529
 20
82.127
 11
-91.4882
 21
82.312
  0
LINE
  8
0
 10
-91.4882
 20
82.312
 11
-91.5
 21
82.5
  0
LINE
  8
0
 10
-91.5
 20
82.5
 11
-91.4882
 21
82.688
  0
LINE
  8
0
 10
-91.4882
 20
82.688
 11
-91.4529
 21
82.873
  0
LINE
  8
0
 10
-91.4529
 20
82.873
 11
-91.3947
 21
83.0522
  0
LINE
  8
0
 10
-91.3947
 20
83.0522
 11
-91.3145
 21
83.2226
  0
LINE
  8
0
 10
-91.3145
 20
83.2226
 11
-91.2135
 21
83.3817
  0
LINE
  8
0
 10
-91.2135
 20
83.3817
 11
-91.0934
 21
83.5268
  0
LINE
  8
0
 10
-91.0934
 20
83.5268
 11
-90.9561
 21
83.6558
  0
LINE
  8
0
 10
-90.9561
 20
83.6558
 11
-90.8037
 21
83.7665
  0
LINE
  8
0
 10
-90.8037
 20
83.7665
 11
-90.6387
 21
83.8572
  0
LINE
  8
0
 10
-90.6387
 20
83.8572
 11
-90.4635
 21
83.9266
  0
LINE
  8
0
 10
-90.4635
 20
83.9266
 11
-90.2811
 21
83.9734
  0
LINE
  8
0
 10
-90.2811
 20
83.9734
 11
-90.0942
 21
83.997
  0
LINE
  8
0
 10
-90.0942
 20
83.997
 11
-89.9058
 21
83.997
  0
LINE
  8
0
 10
-89.9058
 20
83.997
 11
-89.7189
 21
83.9734
  0
LINE
  8
0
 10
-89.7189
 20
83.9734
 11
-89.5365
 21
83.9266
  0
LINE
  8
0
 10
-89.5365
 20
83.9266
 11
-89.3613
 21
83.8572
  0
LINE
  8
0
 10
-89.3613
 20
83.8572
 11
-89.1963
 21
83.7665
  0
LINE
  8
0
 10
-89.1963
 20
83.7665
 11
-89.0439
 21
83.6558
  0
LINE
  8
0
 10
-89.0439
 20
83.6558
 11
-88.9065
 21
83.5268
  0
LINE
  8
0
 10
-88.9065
 20
83.5268
 11
-88.7865
 21
83.3817
  0
LINE
  8
0
 10
-88.7865
 20
83.3817
 11
-88.6855
 21
83.2226
  0
LINE
  8
0
 10
-88.6855
 20
83.2226
 11
-88.6053
 21
83.0522
  0
LINE
  8
0
 10
-88.6053
 20
83.0522
 11
-88.5471
 21
82.873
  0
LINE
  8
0
 10
-88.5471
 20
82.873
 11
-88.5118
 21
82.688
  0
LINE
  8
0
 10
-88.5118
 20
82.688
 11
-88.5
 21
82.5
  0
LINE
  8
0
 10
-88.5
 20
82.5
 11
-88.5118
 21
82.312
  0
LINE
  8
0
 10
-88.5118
 20
82.312
 11
-88.5471
 21
82.127
  0
LINE
  8
0
 10
-88.5471
 20
82.127
 11
-88.6053
 21
81.9478
  0
LINE
  8
0
 10
-88.6053
 20
81.9478
 11
-88.6855
 21
81.7774
  0
LINE
  8
0
 10
-88.6855
 20
81.7774
 11
-88.7865
 21
81.6183
  0
LINE
  8
0
 10
-88.7865
 20
81.6183
 11
-88.9065
 21
81.4732
  0
LINE
  8
0
 10
-88.9065
 20
81.4732
 11
-89.0439
 21
81.3442
  0
LINE
  8
0
 10
-89.0439
 20
81.3442
 11
-89.1963
 21
81.2335
  0
LINE
  8
0
 10
-89.1963
 20
81.2335
 11
-89.3613
 21
81.1428
  0
LINE
  8
0
 10
-89.3613
 20
81.1428
 11
-89.5365
 21
81.0734
  0
LINE
  8
0
 10
-89.5365
 20
81.0734
 11
-89.7189
 21
81.0266
  0
LINE
  8
0
 10
-89.7189
 20
81.0266
 11
-89.9058
 21
81.003
  0
LINE
  8
0
 10
-89.9058
 20
81.003
 11
-90.0942
 21
81.003
  0
LINE
  8
0
 10
-90.1884
 20
72.0059
 11
-90.5621
 21
72.0531
  0
LINE
  8
0
 10
-90.5621
 20
72.0531
 11
-90.927
 21
72.1468
  0
LINE
  8
0
 10
-90.927
 20
72.1468
 11
-91.2773
 21
72.2855
  0
LINE
  8
0
 10
-91.2773
 20
72.2855
 11
-91.6075
 21
72.467
  0
LINE
  8
0
 10
-91.6075
 20
72.467
 11
-91.9123
 21
72.6885
  0
LINE
  8
0
 10
-91.9123
 20
72.6885
 11
-92.1869
 21
72.9464
  0
LINE
  8
0
 10
-92.1869
 20
72.9464
 11
-92.427
 21
73.2366
  0
LINE
  8
0
 10
-92.427
 20
73.2366
 11
-92.6289
 21
73.5547
  0
LINE
  8
0
 10
-92.6289
 20
73.5547
 11
-92.7893
 21
73.8956
  0
LINE
  8
0
 10
-92.7893
 20
73.8956
 11
-92.9057
 21
74.2539
  0
LINE
  8
0
 10
-92.9057
 20
74.2539
 11
-92.9763
 21
74.624
  0
LINE
  8
0
 10
-92.9763
 20
74.624
 11
-93
 21
75
  0
LINE
  8
0
 10
-93
 20
75
 11
-92.9763
 21
75.376
  0
LINE
  8
0
 10
-92.9763
 20
75.376
 11
-92.9057
 21
75.7461
  0
LINE
  8
0
 10
-92.9057
 20
75.7461
 11
-92.7893
 21
76.1044
  0
LINE
  8
0
 10
-92.7893
 20
76.1044
 11
-92.6289
 21
76.4453
  0
LINE
  8
0
 10
-92.6289
 20
76.4453
 11
-92.427
 21
76.7634
  0
LINE
  8
0
 10
-92.427
 20
76.7634
 11
-92.1869
 21
77.0536
  0
LINE
  8
0
 10
-92.1869
 20
77.0536
 11
-91.9123
 21
77.3115
  0
LINE
  8
0
 10
-91.9123
 20
77.3115
 11
-91.6075
 21
77.533
  0
LINE
  8
0
 10
-91.6075
 20
77.533
 11
-91.2773
 21
77.7145
  0
LINE
  8
0
 10
-91.2773
 20
77.7145
 11
-90.927
 21
77.8532
  0
LINE
  8
0
 10
-90.927
 20
77.8532
 11
-90.5621
 21
77.9469
  0
LINE
  8
0
 10
-90.5621
 20
77.9469
 11
-90.1884
 21
77.9941
  0
LINE
  8
0
 10
-90.1884
 20
77.9941
 11
-89.8116
 21
77.9941
  0
LINE
  8
0
 10
-89.8116
 20
77.9941
 11
-89.4379
 21
77.9469
  0
LINE
  8
0
 10
-89.4379
 20
77.9469
 11
-89.073
 21
77.8532
  0
LINE
  8
0
 10
-89.073
 20
77.8532
 11
-88.7227
 21
77.7145
  0
LINE
  8
0
 10
-88.7227
 20
77.7145
 11
-88.3925
 21
77.533
  0
LINE
  8
0
 10
-88.3925
 20
77.533
 11
-88.0877
 21
77.3115
  0
LINE
  8
0
 10
-88.0877
 20
77.3115
 11
-87.8131
 21
77.0536
  0
LINE
  8
0
 10
-87.8131
 20
77.0536
 11
-87.573
 21
76.7634
  0
LINE
  8
0
 10
-87.573
 20
76.7634
 11
-87.3711
 21
76.4453
  0
LINE
  8
0
 10
-87.3711
 20
76.4453
 11
-87.2107
 21
76.1044
  0
LINE
  8
0
 10
-87.2107
 20
76.1044
 11
-87.0943
 21
75.7461
  0
LINE
  8
0
 10
-87.0943
 20
75.7461
 11
-87.0237
 21
75.376
  0
LINE
  8
0
 10
-87.0237
 20
75.376
 11
-87
 21
75
  0
LINE
  8
0
 10
-87
 20
75
 11
-87.0237
 21
74.624
  0
LINE
  8
0
 10
-87.0237
 20
74.624
 11
-87.0943
 21
74.2539
  0
LINE
  8
0
 10
-87.0943
 20
74.2539
 11
-87.2107
 21
73.8956
  0
LINE
  8
0
 10
-87.2107
 20
73.8956
 11
-87.3711
 21
73.5547
  0
LINE
  8
0
 10
-87.3711
 20
73.5547
 11
-87.573
 21
73.2366
  0
LINE
  8
0
 10
-87.573
 20
73.2366
 11
-87.8131
 21
72.9464
  0
LINE
  8
0
 10
-87.8131
 20
72.9464
 11
-88.0877
 21
72.6885
  0
LINE
  8
0
 10
-88.0877
 20
72.6885
 11
-88.3925
 21
72.467
  0
LINE
  8
0
 10
-88.3925
 20
72.467
 11
-88.7227
 21
72.2855
  0
LINE
  8
0
 10
-88.7227
 20
72.2855
 11
-89.073
 21
72.1468
  0
LINE
  8
0
 10
-89.073
 20
72.1468
 11
-89.4379
 21
72.0531
  0
LINE
  8
0
 10
-89.4379
 20
72.0531
 11
-89.8116
 21
72.0059
  0
LINE
  8
0
 10
-89.8116
 20
72.0059
 11
-90.1884
 21
72.0059
  0
LINE
  8
0
 10
-90.0942
 20
66.003
 11
-90.2811
 21
66.0266
  0
LINE
  8
0
 10
-90.2811
 20
66.0266
 11
-90.4635
 21
66.0734
  0
LINE
  8
0
 10
-90.4635
 20
66.0734
 11
-90.6387
 21
66.1428
  0
LINE
  8
0
 10
-90.6387
 20
66.1428
 11
-90.8037
 21
66.2335
  0
LINE
  8
0
 10
-90.8037
 20
66.2335
 11
-90.9561
 21
66.3442
  0
LINE
  8
0
 10
-90.9561
 20
66.3442
 11
-91.0934
 21
66.4732
  0
LINE
  8
0
 10
-91.0934
 20
66.4732
 11
-91.2135
 21
66.6183
  0
LINE
  8
0
 10
-91.2135
 20
66.6183
 11
-91.3145
 21
66.7774
  0
LINE
  8
0
 10
-91.3145
 20
66.7774
 11
-91.3947
 21
66.9478
  0
LINE
  8
0
 10
-91.3947
 20
66.9478
 11
-91.4529
 21
67.127
  0
LINE
  8
0
 10
-91.4529
 20
67.127
 11
-91.4882
 21
67.312
  0
LINE
  8
0
 10
-91.4882
 20
67.312
 11
-91.5
 21
67.5
  0
LINE
  8
0
 10
-91.5
 20
67.5
 11
-91.4882
 21
67.688
  0
LINE
  8
0
 10
-91.4882
 20
67.688
 11
-91.4529
 21
67.873
  0
LINE
  8
0
 10
-91.4529
 20
67.873
 11
-91.3947
 21
68.0522
  0
LINE
  8
0
 10
-91.3947
 20
68.0522
 11
-91.3145
 21
68.2226
  0
LINE
  8
0
 10
-91.3145
 20
68.2226
 11
-91.2135
 21
68.3817
  0
LINE
  8
0
 10
-91.2135
 20
68.3817
 11
-91.0934
 21
68.5268
  0
LINE
  8
0
 10
-91.0934
 20
68.5268
 11
-90.9561
 21
68.6558
  0
LINE
  8
0
 10
-90.9561
 20
68.6558
 11
-90.8037
 21
68.7665
  0
LINE
  8
0
 10
-90.8037
 20
68.7665
 11
-90.6387
 21
68.8572
  0
LINE
  8
0
 10
-90.6387
 20
68.8572
 11
-90.4635
 21
68.9266
  0
LINE
  8
0
 10
-90.4635
 20
68.9266
 11
-90.2811
 21
68.9734
  0
LINE
  8
0
 10
-90.2811
 20
68.9734
 11
-90.0942
 21
68.997
  0
LINE
  8
0
 10
-90.0942
 20
68.997
 11
-89.9058
 21
68.997
  0
LINE
  8
0
 10
-89.9058
 20
68.997
 11
-89.7189
 21
68.9734
  0
LINE
  8
0
 10
-89.7189
 20
68.9734
 11
-89.5365
 21
68.9266
  0
LINE
  8
0
 10
-89.5365
 20
68.9266
 11
-89.3613
 21
68.8572
  0
LINE
  8
0
 10
-89.3613
 20
68.8572
 11
-89.1963
 21
68.7665
  0
LINE
  8
0
 10
-89.1963
 20
68.7665
 11
-89.0439
 21
68.6558
  0
LINE
  8
0
 10
-89.0439
 20
68.6558
 11
-88.9065
 21
68.5268
  0
LINE
  8
0
 10
-88.9065
 20
68.5268
 11
-88.7865
 21
68.3817
  0
LINE
  8
0
 10
-88.7865
 20
68.3817
 11
-88.6855
 21
68.2226
  0
LINE
  8
0
 10
-88.6855
 20
68.2226
 11
-88.6053
 21
68.0522
  0
LINE
  8
0
 10
-88.6053
 20
68.0522
 11
-88.5471
 21
67.873
  0
LINE
  8
0
 10
-88.5471
 20
67.873
 11
-88.5118
 21
67.688
  0
LINE
  8
0
 10
-88.5118
 20
67.688
 11
-88.5
 21
67.5
  0
LINE
  8
0
 10
-88.5
 20
67.5
 11
-88.5118
 21
67.312
  0
LINE
  8
0
 10
-88.5118
 20
67.312
 11
-88.5471
 21
67.127
  0
LINE
  8
0
 10
-88.5471
 20
67.127
 11
-88.6053
 21
66.9478
  0
LINE
  8
0
 10
-88.6053
 20
66.9478
 11
-88.6855
 21
66.7774
  0
LINE
  8
0
 10
-88.6855
 20
66.7774
 11
-88.7865
 21
66.6183
  0
LINE
  8
0
 10
-88.7865
 20
66.6183
 11
-88.9065
 21
66.4732
  0
LINE
  8
0
 10
-88.9065
 20
66.4732
 11
-89.0439
 21
66.3442
  0
LINE
  8
0
 10
-89.0439
 20
66.3442
 11
-89.1963
 21
66.2335
  0
LINE
  8
0
 10
-89.1963
 20
66.2335
 11
-89.3613
 21
66.1428
  0
LINE
  8
0
 10
-89.3613
 20
66.1428
 11
-89.5365
 21
66.0734
  0
LINE
  8
0
 10
-89.5365
 20
66.0734
 11
-89.7189
 21
66.0266
  0
LINE
  8
0
 10
-89.7189
 20
66.0266
 11
-89.9058
 21
66.003
  0
LINE
  8
0
 10
-89.9058
 20
66.003
 11
-90.0942
 21
66.003
  0
LINE
  8
0
 10
-90.1884
 20
57.0059
 11
-90.5621
 21
57.0531
  0
LINE
  8
0
 10
-90.5621
 20
57.0531
 11
-90.927
 21
57.1468
  0
LINE
  8
0
 10
-90.927
 20
57.1468
 11
-91.2773
 21
57.2855
  0
LINE
  8
0
 10
-91.2773
 20
57.2855
 11
-91.6075
 21
57.467
  0
LINE
  8
0
 10
-91.6075
 20
57.467
 11
-91.9123
 21
57.6885
  0
LINE
  8
0
 10
-91.9123
 20
57.6885
 11
-92.1869
 21
57.9464
  0
LINE
  8
0
 10
-92.1869
 20
57.9464
 11
-92.427
 21
58.2366
  0
LINE
  8
0
 10
-92.427
 20
58.2366
 11
-92.6289
 21
58.5547
  0
LINE
  8
0
 10
-92.6289
 20
58.5547
 11
-92.7893
 21
58.8956
  0
LINE
  8
0
 10
-92.7893
 20
58.8956
 11
-92.9057
 21
59.2539
  0
LINE
  8
0
 10
-92.9057
 20
59.2539
 11
-92.9763
 21
59.624
  0
LINE
  8
0
 10
-92.9763
 20
59.624
 11
-93
 21
60
  0
LINE
  8
0
 10
-93
 20
60
 11
-92.9763
 21
60.376
  0
LINE
  8
0
 10
-92.9763
 20
60.376
 11
-92.9057
 21
60.7461
  0
LINE
  8
0
 10
-92.9057
 20
60.7461
 11
-92.7893
 21
61.1044
  0
LINE
  8
0
 10
-92.7893
 20
61.1044
 11
-92.6289
 21
61.4453
  0
LINE
  8
0
 10
-92.6289
 20
61.4453
 11
-92.427
 21
61.7634
  0
LINE
  8
0
 10
-92.427
 20
61.7634
 11
-92.1869
 21
62.0536
  0
LINE
  8
0
 10
-92.1869
 20
62.0536
 11
-91.9123
 21
62.3115
  0
LINE
  8
0
 10
-91.9123
 20
62.3115
 11
-91.6075
 21
62.533
  0
LINE
  8
0
 10
-91.6075
 20
62.533
 11
-91.2773
 21
62.7145
  0
LINE
  8
0
 10
-91.2773
 20
62.7145
 11
-90.927
 21
62.8532
  0
LINE
  8
0
 10
-90.927
 20
62.8532
 11
-90.5621
 21
62.9469
  0
LINE
  8
0
 10
-90.5621
 20
62.9469
 11
-90.1884
 21
62.9941
  0
LINE
  8
0
 10
-90.1884
 20
62.9941
 11
-89.8116
 21
62.9941
  0
LINE
  8
0
 10
-89.8116
 20
62.9941
 11
-89.4379
 21
62.9469
  0
LINE
  8
0
 10
-89.4379
 20
62.9469
 11
-89.073
 21
62.8532
  0
LINE
  8
0
 10
-89.073
 20
62.8532
 11
-88.7227
 21
62.7145
  0
LINE
  8
0
 10
-88.7227
 20
62.7145
 11
-88.3925
 21
62.533
  0
LINE
  8
0
 10
-88.3925
 20
62.533
 11
-88.0877
 21
62.3115
  0
LINE
  8
0
 10
-88.0877
 20
62.3115
 11
-87.8131
 21
62.0536
  0
LINE
  8
0
 10
-87.8131
 20
62.0536
 11
-87.573
 21
61.7634
  0
LINE
  8
0
 10
-87.573
 20
61.7634
 11
-87.3711
 21
61.4453
  0
LINE
  8
0
 10
-87.3711
 20
61.4453
 11
-87.2107
 21
61.1044
  0
LINE
  8
0
 10
-87.2107
 20
61.1044
 11
-87.0943
 21
60.7461
  0
LINE
  8
0
 10
-87.0943
 20
60.7461
 11
-87.0237
 21
60.376
  0
LINE
  8
0
 10
-87.0237
 20
60.376
 11
-87
 21
60
  0
LINE
  8
0
 10
-87
 20
60
 11
-87.0237
 21
59.624
  0
LINE
  8
0
 10
-87.0237
 20
59.624
 11
-87.0943
 21
59.2539
  0
LINE
  8
0
 10
-87.0943
 20
59.2539
 11
-87.2107
 21
58.8956
  0
LINE
  8
0
 10
-87.2107
 20
58.8956
 11
-87.3711
 21
58.5547
  0
LINE
  8
0
 10
-87.3711
 20
58.5547
 11
-87.573
 21
58.2366
  0
LINE
  8
0
 10
-87.573
 20
58.2366
 11
-87.8131
 21
57.9464
  0
LINE
  8
0
 10
-87.8131
 20
57.9464
 11
-88.0877
 21
57.6885
  0
LINE
  8
0
 10
-88.0877
 20
57.6885
 11
-88.3925
 21
57.467
  0
LINE
  8
0
 10
-88.3925
 20
57.467
 11
-88.7227
 21
57.2855
  0
LINE
  8
0
 10
-88.7227
 20
57.2855
 11
-89.073
 21
57.1468
  0
LINE
  8
0
 10
-89.073
 20
57.1468
 11
-89.4379
 21
57.0531
  0
LINE
  8
0
 10
-89.4379
 20
57.0531
 11
-89.8116
 21
57.0059
  0
LINE
  8
0
 10
-89.8116
 20
57.0059
 11
-90.1884
 21
57.0059
  0
LINE
  8
0
 10
-90.0942
 20
51.003
 11
-90.2811
 21
51.0266
  0
LINE
  8
0
 10
-90.2811
 20
51.0266
 11
-90.4635
 21
51.0734
  0
LINE
  8
0
 10
-90.4635
 20
51.0734
 11
-90.6387
 21
51.1428
  0
LINE
  8
0
 10
-90.6387
 20
51.1428
 11
-90.8037
 21
51.2335
  0
LINE
  8
0
 10
-90.8037
 20
51.2335
 11
-90.9561
 21
51.3442
  0
LINE
  8
0
 10
-90.9561
 20
51.3442
 11
-91.0934
 21
51.4732
  0
LINE
  8
0
 10
-91.0934
 20
51.4732
 11
-91.2135
 21
51.6183
  0
LINE
  8
0
 10
-91.2135
 20
51.6183
 11
-91.3145
 21
51.7774
  0
LINE
  8
0
 10
-91.3145
 20
51.7774
 11
-91.3947
 21
51.9478
  0
LINE
  8
0
 10
-91.3947
 20
51.9478
 11
-91.4529
 21
52.127
  0
LINE
  8
0
 10
-91.4529
 20
52.127
 11
-91.4882
 21
52.312
  0
LINE
  8
0
 10
-91.4882
 20
52.312
 11
-91.5
 21
52.5
  0
LINE
  8
0
 10
-91.5
 20
52.5
 11
-91.4882
 21
52.688
  0
LINE
  8
0
 10
-91.4882
 20
52.688
 11
-91.4529
 21
52.873
  0
LINE
  8
0
 10
-91.4529
 20
52.873
 11
-91.3947
 21
53.0522
  0
LINE
  8
0
 10
-91.3947
 20
53.0522
 11
-91.3145
 21
53.2226
  0
LINE
  8
0
 10
-91.3145
 20
53.2226
 11
-91.2135
 21
53.3817
  0
LINE
  8
0
 10
-91.2135
 20
53.3817
 11
-91.0934
 21
53.5268
  0
LINE
  8
0
 10
-91.0934
 20
53.5268
 11
-90.9561
 21
53.6558
  0
LINE
  8
0
 10
-90.9561
 20
53.6558
 11
-90.8037
 21
53.7665
  0
LINE
  8
0
 10
-90.8037
 20
53.7665
 11
-90.6387
 21
53.8572
  0
LINE
  8
0
 10
-90.6387
 20
53.8572
 11
-90.4635
 21
53.9266
  0
LINE
  8
0
 10
-90.4635
 20
53.9266
 11
-90.2811
 21
53.9734
  0
LINE
  8
0
 10
-90.2811
 20
53.9734
 11
-90.0942
 21
53.997
  0
LINE
  8
0
 10
-90.0942
 20
53.997
 11
-89.9058
 21
53.997
  0
LINE
  8
0
 10
-89.9058
 20
53.997
 11
-89.7189
 21
53.9734
  0
LINE
  8
0
 10
-89.7189
 20
53.9734
 11
-89.5365
 21
53.9266
  0
LINE
  8
0
 10
-89.5365
 20
53.9266
 11
-89.3613
 21
53.8572
  0
LINE
  8
0
 10
-89.3613
 20
53.8572
 11
-89.1963
 21
53.7665
  0
LINE
  8
0
 10
-89.1963
 20
53.7665
 11
-89.0439
 21
53.6558
  0
LINE
  8
0
 10
-89.0439
 20
53.6558
 11
-88.9065
 21
53.5268
  0
LINE
  8
0
 10
-88.9065
 20
53.5268
 11
-88.7865
 21
53.3817
  0
LINE
  8
0
 10
-88.7865
 20
53.3817
 11
-88.6855
 21
53.2226
  0
LINE
  8
0
 10
-88.6855
 20
53.2226
 11
-88.6053
 21
53.0522
  0
LINE
  8
0
 10
-88.6053
 20
53.0522
 11
-88.5471
 21
52.873
  0
LINE
  8
0
 10
-88.5471
 20
52.873
 11
-88.5118
 21
52.688
  0
LINE
  8
0
 10
-88.5118
 20
52.688
 11
-88.5
 21
52.5
  0
LINE
  8
0
 10
-88.5
 20
52.5
 11
-88.5118
 21
52.312
  0
LINE
  8
0
 10
-88.5118
 20
52.312
 11
-88.5471
 21
52.127
  0
LINE
  8
0
 10
-88.5471
 20
52.127
 11
-88.6053
 21
51.9478
  0
LINE
  8
0
 10
-88.6053
 20
51.9478
 11
-88.6855
 21
51.7774
  0
LINE
  8
0
 10
-88.6855
 20
51.7774
 11
-88.7865
 21
51.6183
  0
LINE
  8
0
 10
-88.7865
 20
51.6183
 11
-88.9065
 21
51.4732
  0
LINE
  8
0
 10
-88.9065
 20
51.4732
 11
-89.0439
 21
51.3442
  0
LINE
  8
0
 10
-89.0439
 20
51.3442
 11
-89.1963
 21
51.2335
  0
LINE
  8
0
 10
-89.1963
 20
51.2335
 11
-89.3613
 21
51.1428
  0
LINE
  8
0
 10
-89.3613
 20
51.1428
 11
-89.5365
 21
51.0734
  0
LINE
  8
0
 10
-89.5365
 20
51.0734
 11
-89.7189
 21
51.0266
  0
LINE
  8
0
 10
-89.7189
 20
51.0266
 11
-89.9058
 21
51.003
  0
LINE
  8
0
 10
-89.9058
 20
51.003
 11
-90.0942
 21
51.003
  0
LINE
  8
0
 10
-90.1884
 20
42.0059
 11
-90.5621
 21
42.0531
  0
LINE
  8
0
 10
-90.5621
 20
42.0531
 11
-90.927
 21
42.1468
  0
LINE
  8
0
 10
-90.927
 20
42.1468
 11
-91.2773
 21
42.2855
  0
LINE
  8
0
 10
-91.2773
 20
42.2855
 11
-91.6075
 21
42.467
  0
LINE
  8
0
 10
-91.6075
 20
42.467
 11
-91.9123
 21
42.6885
  0
LINE
  8
0
 10
-91.9123
 20
42.6885
 11
-92.1869
 21
42.9464
  0
LINE
  8
0
 10
-92.1869
 20
42.9464
 11
-92.427
 21
43.2366
  0
LINE
  8
0
 10
-92.427
 20
43.2366
 11
-92.6289
 21
43.5547
  0
LINE
  8
0
 10
-92.6289
 20
43.5547
 11
-92.7893
 21
43.8956
  0
LINE
  8
0
 10
-92.7893
 20
43.8956
 11
-92.9057
 21
44.2539
  0
LINE
  8
0
 10
-92.9057
 20
44.2539
 11
-92.9763
 21
44.624
  0
LINE
  8
0
 10
-92.9763
 20
44.624
 11
-93
 21
45
  0
LINE
  8
0
 10
-93
 20
45
 11
-92.9763
 21
45.376
  0
LINE
  8
0
 10
-92.9763
 20
45.376
 11
-92.9057
 21
45.7461
  0
LINE
  8
0
 10
-92.9057
 20
45.7461
 11
-92.7893
 21
46.1044
  0
LINE
  8
0
 10
-92.7893
 20
46.1044
 11
-92.6289
 21
46.4453
  0
LINE
  8
0
 10
-92.6289
 20
46.4453
 11
-92.427
 21
46.7634
  0
LINE
  8
0
 10
-92.427
 20
46.7634
 11
-92.1869
 21
47.0536
  0
LINE
  8
0
 10
-92.1869
 20
47.0536
 11
-91.9123
 21
47.3115
  0
LINE
  8
0
 10
-91.9123
 20
47.3115
 11
-91.6075
 21
47.533
  0
LINE
  8
0
 10
-91.6075
 20
47.533
 11
-91.2773
 21
47.7145
  0
LINE
  8
0
 10
-91.2773
 20
47.7145
 11
-90.927
 21
47.8532
  0
LINE
  8
0
 10
-90.927
 20
47.8532
 11
-90.5621
 21
47.9469
  0
LINE
  8
0
 10
-90.5621
 20
47.9469
 11
-90.1884
 21
47.9941
  0
LINE
  8
0
 10
-90.1884
 20
47.9941
 11
-89.8116
 21
47.9941
  0
LINE
  8
0
 10
-89.8116
 20
47.9941
 11
-89.4379
 21
47.9469
  0
LINE
  8
0
 10
-89.4379
 20
47.9469
 11
-89.073
 21
47.8532
  0
LINE
  8
0
 10
-89.073
 20
47.8532
 11
-88.7227
 21
47.7145
  0
LINE
  8
0
 10
-88.7227
 20
47.7145
 11
-88.3925
 21
47.533
  0
LINE
  8
0
 10
-88.3925
 20
47.533
 11
-88.0877
 21
47.3115
  0
LINE
  8
0
 10
-88.0877
 20
47.3115
 11
-87.8131
 21
47.0536
  0
LINE
  8
0
 10
-87.8131
 20
47.0536
 11
-87.573
 21
46.7634
  0
LINE
  8
0
 10
-87.573
 20
46.7634
 11
-87.3711
 21
46.4453
  0
LINE
  8
0
 10
-87.3711
 20
46.4453
 11
-87.2107
 21
46.1044
  0
LINE
  8
0
 10
-87.2107
 20
46.1044
 11
-87.0943
 21
45.7461
  0
LINE
  8
0
 10
-87.0943
 20
45.7461
 11
-87.0237
 21
45.376
  0
LINE
  8
0
 10
-87.0237
 20
45.376
 11
-87
 21
45
  0
LINE
  8
0
 10
-87
 20
45
 11
-87.0237
 21
44.624
  0
LINE
  8
0
 10
-87.0237
 20
44.624
 11
-87.0943
 21
44.2539
  0
LINE
  8
0
 10
-87.0943
 20
44.2539
 11
-87.2107
 21
43.8956
  0
LINE
  8
0
 10
-87.2107
 20
43.8956
 11
-87.3711
 21
43.5547
  0
LINE
  8
0
 10
-87.3711
 20
43.5547
 11
-87.573
 21
43.2366
  0
LINE
  8
0
 10
-87.573
 20
43.2366
 11
-87.8131
 21
42.9464
  0
LINE
  8
0
 10
-87.8131
 20
42.9464
 11
-88.0877
 21
42.6885
  0
LINE
  8
0
 10
-88.0877
 20
42.6885
 11
-88.3925
 21
42.467
  0
LINE
  8
0
 10
-88.3925
 20
42.467
 11
-88.7227
 21
42.2855
  0
LINE
  8
0
 10
-88.7227
 20
42.2855
 11
-89.073
 21
42.1468
  0
LINE
  8
0
 10
-89.073
 20
42.1468
 11
-89.4379
 21
42.0531
  0
LINE
  8
0
 10
-89.4379
 20
42.0531
 11
-89.8116
 21
42.0059
  0
LINE
  8
0
 10
-89.8116
 20
42.0059
 11
-90.1884
 21
42.0059
  0
LINE
  8
0
 10
-90.0942
 20
36.003
 11
-90.2811
 21
36.0266
  0
LINE
  8
0
 10
-90.2811
 20
36.0266
 11
-90.4635
 21
36.0734
  0
LINE
  8
0
 10
-90.4635
 20
36.0734
 11
-90.6387
 21
36.1428
  0
LINE
  8
0
 10
-90.6387
 20
36.1428
 11
-90.8037
 21
36.2335
  0
LINE
  8
0
 10
-90.8037
 20
36.2335
 11
-90.9561
 21
36.3442
  0
LINE
  8
0
 10
-90.9561
 20
36.3442
 11
-91.0934
 21
36.4732
  0
LINE
  8
0
 10
-91.0934
 20
36.4732
 11
-91.2135
 21
36.6183
  0
LINE
  8
0
 10
-91.2135
 20
36.6183
 11
-91.3145
 21
36.7774
  0
LINE
  8
0
 10
-91.3145
 20
36.7774
 11
-91.3947
 21
36.9478
  0
LINE
  8
0
 10
-91.3947
 20
36.9478
 11
-91.4529
 21
37.127
  0
LINE
  8
0
 10
-91.4529
 20
37.127
 11
-91.4882
 21
37.312
  0
LINE
  8
0
 10
-91.4882
 20
37.312
 11
-91.5
 21
37.5
  0
LINE
  8
0
 10
-91.5
 20
37.5
 11
-91.4882
 21
37.688
  0
LINE
  8
0
 10
-91.4882
 20
37.688
 11
-91.4529
 21
37.873
  0
LINE
  8
0
 10
-91.4529
 20
37.873
 11
-91.3947
 21
38.0522
  0
LINE
  8
0
 10
-91.3947
 20
38.0522
 11
-91.3145
 21
38.2226
  0
LINE
  8
0
 10
-91.3145
 20
38.2226
 11
-91.2135
 21
38.3817
  0
LINE
  8
0
 10
-91.2135
 20
38.3817
 11
-91.0934
 21
38.5268
  0
LINE
  8
0
 10
-91.0934
 20
38.5268
 11
-90.9561
 21
38.6558
  0
LINE
  8
0
 10
-90.9561
 20
38.6558
 11
-90.8037
 21
38.7665
  0
LINE
  8
0
 10
-90.8037
 20
38.7665
 11
-90.6387
 21
38.8572
  0
LINE
  8
0
 10
-90.6387
 20
38.8572
 11
-90.4635
 21
38.9266
  0
LINE
  8
0
 10
-90.4635
 20
38.9266
 11
-90.2811
 21
38.9734
  0
LINE
  8
0
 10
-90.2811
 20
38.9734
 11
-90.0942
 21
38.997
  0
LINE
  8
0
 10
-90.0942
 20
38.997
 11
-89.9058
 21
38.997
  0
LINE
  8
0
 10
-89.9058
 20
38.997
 11
-89.7189
 21
38.9734
  0
LINE
  8
0
 10
-89.7189
 20
38.9734
 11
-89.5365
 21
38.9266
  0
LINE
  8
0
 10
-89.5365
 20
38.9266
 11
-89.3613
 21
38.8572
  0
LINE
  8
0
 10
-89.3613
 20
38.8572
 11
-89.1963
 21
38.7665
  0
LINE
  8
0
 10
-89.1963
 20
38.7665
 11
-89.0439
 21
38.6558
  0
LINE
  8
0
 10
-89.0439
 20
38.6558
 11
-88.9065
 21
38.5268
  0
LINE
  8
0
 10
-88.9065
 20
38.5268
 11
-88.7865
 21
38.3817
  0
LINE
  8
0
 10
-88.7865
 20
38.3817
 11
-88.6855
 21
38.2226
  0
LINE
  8
0
 10
-88.6855
 20
38.2226
 11
-88.6053
 21
38.0522
  0
LINE
  8
0
 10
-88.6053
 20
38.0522
 11
-88.5471
 21
37.873
  0
LINE
  8
0
 10
-88.5471
 20
37.873
 11
-88.5118
 21
37.688
  0
LINE
  8
0
 10
-88.5118
 20
37.688
 11
-88.5
 21
37.5
  0
LINE
  8
0
 10
-88.5
 20
37.5
 11
-88.5118
 21
37.312
  0
LINE
  8
0
 10
-88.5118
 20
37.312
 11
-88.5471
 21
37.127
  0
LINE
  8
0
 10
-88.5471
 20
37.127
 11
-88.6053
 21
36.9478
  0
LINE
  8
0
 10
-88.6053
 20
36.9478
 11
-88.6855
 21
36.7774
  0
LINE
  8
0
 10
-88.6855
 20
36.7774
 11
-88.7865
 21
36.6183
  0
LINE
  8
0
 10
-88.7865
 20
36.6183
 11
-88.9065
 21
36.4732
  0
LINE
  8
0
 10
-88.9065
 20
36.4732
 11
-89.0439
 21
36.3442
  0
LINE
  8
0
 10
-89.0439
 20
36.3442
 11
-89.1963
 21
36.2335
  0
LINE
  8
0
 10
-89.1963
 20
36.2335
 11
-89.3613
 21
36.1428
  0
LINE
  8
0
 10
-89.3613
 20
36.1428
 11
-89.5365
 21
36.0734
  0
LINE
  8
0
 10
-89.5365
 20
36.0734
 11
-89.7189
 21
36.0266
  0
LINE
  8
0
 10
-89.7189
 20
36.0266
 11
-89.9058
 21
36.003
  0
LINE
  8
0
 10
-89.9058
 20
36.003
 11
-90.0942
 21
36.003
  0
LINE
  8
0
 10
-90.1884
 20
27.0059
 11
-90.5621
 21
27.0531
  0
LINE
  8
0
 10
-90.5621
 20
27.0531
 11
-90.927
 21
27.1468
  0
LINE
  8
0
 10
-90.927
 20
27.1468
 11
-91.2773
 21
27.2855
  0
LINE
  8
0
 10
-91.2773
 20
27.2855
 11
-91.6075
 21
27.467
  0
LINE
  8
0
 10
-91.6075
 20
27.467
 11
-91.9123
 21
27.6884
  0
LINE
  8
0
 10
-91.9123
 20
27.6884
 11
-92.1869
 21
27.9464
  0
LINE
  8
0
 10
-92.1869
 20
27.9464
 11
-92.427
 21
28.2366
  0
LINE
  8
0
 10
-92.427
 20
28.2366
 11
-92.6289
 21
28.5547
  0
LINE
  8
0
 10
-92.6289
 20
28.5547
 11
-92.7893
 21
28.8956
  0
LINE
  8
0
 10
-92.7893
 20
28.8956
 11
-92.9057
 21
29.2539
  0
LINE
  8
0
 10
-92.9057
 20
29.2539
 11
-92.9763
 21
29.624
  0
LINE
  8
0
 10
-92.9763
 20
29.624
 11
-93
 21
30
  0
LINE
  8
0
 10
-93
 20
30
 11
-92.9763
 21
30.376
  0
LINE
  8
0
 10
-92.9763
 20
30.376
 11
-92.9057
 21
30.7461
  0
LINE
  8
0
 10
-92.9057
 20
30.7461
 11
-92.7893
 21
31.1044
  0
LINE
  8
0
 10
-92.7893
 20
31.1044
 11
-92.6289
 21
31.4453
  0
LINE
  8
0
 10
-92.6289
 20
31.4453
 11
-92.427
 21
31.7634
  0
LINE
  8
0
 10
-92.427
 20
31.7634
 11
-92.1869
 21
32.0536
  0
LINE
  8
0
 10
-92.1869
 20
32.0536
 11
-91.9123
 21
32.3115
  0
LINE
  8
0
 10
-91.9123
 20
32.3115
 11
-91.6075
 21
32.533
  0
LINE
  8
0
 10
-91.6075
 20
32.533
 11
-91.2773
 21
32.7145
  0
LINE
  8
0
 10
-91.2773
 20
32.7145
 11
-90.927
 21
32.8532
  0
LINE
  8
0
 10
-90.927
 20
32.8532
 11
-90.5621
 21
32.9469
  0
LINE
  8
0
 10
-90.5621
 20
32.9469
 11
-90.1884
 21
32.9941
  0
LINE
  8
0
 10
-90.1884
 20
32.9941
 11
-89.8116
 21
32.9941
  0
LINE
  8
0
 10
-89.8116
 20
32.9941
 11
-89.4379
 21
32.9469
  0
LINE
  8
0
 10
-89.4379
 20
32.9469
 11
-89.073
 21
32.8532
  0
LINE
  8
0
 10
-89.073
 20
32.8532
 11
-88.7227
 21
32.7145
  0
LINE
  8
0
 10
-88.7227
 20
32.7145
 11
-88.3925
 21
32.533
  0
LINE
  8
0
 10
-88.3925
 20
32.533
 11
-88.0877
 21
32.3115
  0
LINE
  8
0
 10
-88.0877
 20
32.3115
 11
-87.8131
 21
32.0536
  0
LINE
  8
0
 10
-87.8131
 20
32.0536
 11
-87.573
 21
31.7634
  0
LINE
  8
0
 10
-87.573
 20
31.7634
 11
-87.3711
 21
31.4453
  0
LINE
  8
0
 10
-87.3711
 20
31.4453
 11
-87.2107
 21
31.1044
  0
LINE
  8
0
 10
-87.2107
 20
31.1044
 11
-87.0943
 21
30.7461
  0
LINE
  8
0
 10
-87.0943
 20
30.7461
 11
-87.0237
 21
30.376
  0
LINE
  8
0
 10
-87.0237
 20
30.376
 11
-87
 21
30
  0
LINE
  8
0
 10
-87
 20
30
 11
-87.0237
 21
29.624
  0
LINE
  8
0
 10
-87.0237
 20
29.624
 11
-87.0943
 21
29.2539
  0
LINE
  8
0
 10
-87.0943
 20
29.2539
 11
-87.2107
 21
28.8956
  0
LINE
  8
0
 10
-87.2107
 20
28.8956
 11
-87.3711
 21
28.5547
  0
LINE
  8
0
 10
-87.3711
 20
28.5547
 11
-87.573
 21
28.2366
  0
LINE
  8
0
 10
-87.573
 20
28.2366
 11
-87.8131
 21
27.9464
  0
LINE
  8
0
 10
-87.8131
 20
27.9464
 11
-88.0877
 21
27.6884
  0
LINE
  8
0
 10
-88.0877
 20
27.6884
 11
-88.3925
 21
27.467
  0
LINE
  8
0
 10
-88.3925
 20
27.467
 11
-88.7227
 21
27.2855
  0
LINE
  8
0
 10
-88.7227
 20
27.2855
 11
-89.073
 21
27.1468
  0
LINE
  8
0
 10
-89.073
 20
27.1468
 11
-89.4379
 21
27.0531
  0
LINE
  8
0
 10
-89.4379
 20
27.0531
 11
-89.8116
 21
27.0059
  0
LINE
  8
0
 10
-89.8116
 20
27.0059
 11
-90.1884
 21
27.0059
  0
LINE
  8
0
 10
-90.0942
 20
21.003
 11
-90.2811
 21
21.0266
  0
LINE
  8
0
 10
-90.2811
 20
21.0266
 11
-90.4635
 21
21.0734
  0
LINE
  8
0
 10
-90.4635
 20
21.0734
 11
-90.6387
 21
21.1427
  0
LINE
  8
0
 10
-90.6387
 20
21.1427
 11
-90.8037
 21
21.2335
  0
LINE
  8
0
 10
-90.8037
 20
21.2335
 11
-90.9561
 21
21.3442
  0
LINE
  8
0
 10
-90.9561
 20
21.3442
 11
-91.0934
 21
21.4732
  0
LINE
  8
0
 10
-91.0934
 20
21.4732
 11
-91.2135
 21
21.6183
  0
LINE
  8
0
 10
-91.2135
 20
21.6183
 11
-91.3145
 21
21.7774
  0
LINE
  8
0
 10
-91.3145
 20
21.7774
 11
-91.3947
 21
21.9478
  0
LINE
  8
0
 10
-91.3947
 20
21.9478
 11
-91.4529
 21
22.127
  0
LINE
  8
0
 10
-91.4529
 20
22.127
 11
-91.4882
 21
22.312
  0
LINE
  8
0
 10
-91.4882
 20
22.312
 11
-91.5
 21
22.5
  0
LINE
  8
0
 10
-91.5
 20
22.5
 11
-91.4882
 21
22.688
  0
LINE
  8
0
 10
-91.4882
 20
22.688
 11
-91.4529
 21
22.873
  0
LINE
  8
0
 10
-91.4529
 20
22.873
 11
-91.3947
 21
23.0522
  0
LINE
  8
0
 10
-91.3947
 20
23.0522
 11
-91.3145
 21
23.2226
  0
LINE
  8
0
 10
-91.3145
 20
23.2226
 11
-91.2135
 21
23.3817
  0
LINE
  8
0
 10
-91.2135
 20
23.3817
 11
-91.0934
 21
23.5268
  0
LINE
  8
0
 10
-91.0934
 20
23.5268
 11
-90.9561
 21
23.6558
  0
LINE
  8
0
 10
-90.9561
 20
23.6558
 11
-90.8037
 21
23.7665
  0
LINE
  8
0
 10
-90.8037
 20
23.7665
 11
-90.6387
 21
23.8572
  0
LINE
  8
0
 10
-90.6387
 20
23.8572
 11
-90.4635
 21
23.9266
  0
LINE
  8
0
 10
-90.4635
 20
23.9266
 11
-90.2811
 21
23.9734
  0
LINE
  8
0
 10
-90.2811
 20
23.9734
 11
-90.0942
 21
23.997
  0
LINE
  8
0
 10
-90.0942
 20
23.997
 11
-89.9058
 21
23.997
  0
LINE
  8
0
 10
-89.9058
 20
23.997
 11
-89.7189
 21
23.9734
  0
LINE
  8
0
 10
-89.7189
 20
23.9734
 11
-89.5365
 21
23.9266
  0
LINE
  8
0
 10
-89.5365
 20
23.9266
 11
-89.3613
 21
23.8572
  0
LINE
  8
0
 10
-89.3613
 20
23.8572
 11
-89.1963
 21
23.7665
  0
LINE
  8
0
 10
-89.1963
 20
23.7665
 11
-89.0439
 21
23.6558
  0
LINE
  8
0
 10
-89.0439
 20
23.6558
 11
-88.9065
 21
23.5268
  0
LINE
  8
0
 10
-88.9065
 20
23.5268
 11
-88.7865
 21
23.3817
  0
LINE
  8
0
 10
-88.7865
 20
23.3817
 11
-88.6855
 21
23.2226
  0
LINE
  8
0
 10
-88.6855
 20
23.2226
 11
-88.6053
 21
23.0522
  0
LINE
  8
0
 10
-88.6053
 20
23.0522
 11
-88.5471
 21
22.873
  0
LINE
  8
0
 10
-88.5471
 20
22.873
 11
-88.5118
 21
22.688
  0
LINE
  8
0
 10
-88.5118
 20
22.688
 11
-88.5
 21
22.5
  0
LINE
  8
0
 10
-88.5
 20
22.5
 11
-88.5118
 21
22.312
  0
LINE
  8
0
 10
-88.5118
 20
22.312
 11
-88.5471
 21
22.127
  0
LINE
  8
0
 10
-88.5471
 20
22.127
 11
-88.6053
 21
21.9478
  0
LINE
  8
0
 10
-88.6053
 20
21.9478
 11
-88.6855
 21
21.7774
  0
LINE
  8
0
 10
-88.6855
 20
21.7774
 11
-88.7865
 21
21.6183
  0
LINE
  8
0
 10
-88.7865
 20
21.6183
 11
-88.9065
 21
21.4732
  0
LINE
  8
0
 10
-88.9065
 20
21.4732
 11
-89.0439
 21
21.3442
  0
LINE
  8
0
 10
-89.0439
 20
21.3442
 11
-89.1963
 21
21.2335
  0
LINE
  8
0
 10
-89.1963
 20
21.2335
 11
-89.3613
 21
21.1427
  0
LINE
  8
0
 10
-89.3613
 20
21.1427
 11
-89.5365
 21
21.0734
  0
LINE
  8
0
 10
-89.5365
 20
21.0734
 11
-89.7189
 21
21.0266
  0
LINE
  8
0
 10
-89.7189
 20
21.0266
 11
-89.9058
 21
21.003
  0
LINE
  8
0
 10
-89.9058
 20
21.003
 11
-90.0942
 21
21.003
  0
LINE
  8
0
 10
-90.1884
 20
12.0059
 11
-90.5621
 21
12.0531
  0
LINE
  8
0
 10
-90.5621
 20
12.0531
 11
-90.927
 21
12.1468
  0
LINE
  8
0
 10
-90.927
 20
12.1468
 11
-91.2773
 21
12.2855
  0
LINE
  8
0
 10
-91.2773
 20
12.2855
 11
-91.6075
 21
12.467
  0
LINE
  8
0
 10
-91.6075
 20
12.467
 11
-91.9123
 21
12.6884
  0
LINE
  8
0
 10
-91.9123
 20
12.6884
 11
-92.1869
 21
12.9464
  0
LINE
  8
0
 10
-92.1869
 20
12.9464
 11
-92.427
 21
13.2366
  0
LINE
  8
0
 10
-92.427
 20
13.2366
 11
-92.6289
 21
13.5547
  0
LINE
  8
0
 10
-92.6289
 20
13.5547
 11
-92.7893
 21
13.8956
  0
LINE
  8
0
 10
-92.7893
 20
13.8956
 11
-92.9057
 21
14.2539
  0
LINE
  8
0
 10
-92.9057
 20
14.2539
 11
-92.9763
 21
14.624
  0
LINE
  8
0
 10
-92.9763
 20
14.624
 11
-93
 21
15
  0
LINE
  8
0
 10
-93
 20
15
 11
-92.9763
 21
15.376
  0
LINE
  8
0
 10
-92.9763
 20
15.376
 11
-92.9057
 21
15.7461
  0
LINE
  8
0
 10
-92.9057
 20
15.7461
 11
-92.7893
 21
16.1044
  0
LINE
  8
0
 10
-92.7893
 20
16.1044
 11
-92.6289
 21
16.4453
  0
LINE
  8
0
 10
-92.6289
 20
16.4453
 11
-92.427
 21
16.7634
  0
LINE
  8
0
 10
-92.427
 20
16.7634
 11
-92.1869
 21
17.0536
  0
LINE
  8
0
 10
-92.1869
 20
17.0536
 11
-91.9123
 21
17.3115
  0
LINE
  8
0
 10
-91.9123
 20
17.3115
 11
-91.6075
 21
17.533
  0
LINE
  8
0
 10
-91.6075
 20
17.533
 11
-91.2773
 21
17.7145
  0
LINE
  8
0
 10
-91.2773
 20
17.7145
 11
-90.927
 21
17.8532
  0
LINE
  8
0
 10
-90.927
 20
17.8532
 11
-90.5621
 21
17.9469
  0
LINE
  8
0
 10
-90.5621
 20
17.9469
 11
-90.1884
 21
17.9941
  0
LINE
  8
0
 10
-90.1884
 20
17.9941
 11
-89.8116
 21
17.9941
  0
LINE
  8
0
 10
-89.8116
 20
17.9941
 11
-89.4379
 21
17.9469
  0
LINE
  8
0
 10
-89.4379
 20
17.9469
 11
-89.073
 21
17.8532
  0
LINE
  8
0
 10
-89.073
 20
17.8532
 11
-88.7227
 21
17.7145
  0
LINE
  8
0
 10
-88.7227
 20
17.7145
 11
-88.3925
 21
17.533
  0
LINE
  8
0
 10
-88.3925
 20
17.533
 11
-88.0877
 21
17.3115
  0
LINE
  8
0
 10
-88.0877
 20
17.3115
 11
-87.8131
 21
17.0536
  0
LINE
  8
0
 10
-87.8131
 20
17.0536
 11
-87.573
 21
16.7634
  0
LINE
  8
0
 10
-87.573
 20
16.7634
 11
-87.3711
 21
16.4453
  0
LINE
  8
0
 10
-87.3711
 20
16.4453
 11
-87.2107
 21
16.1044
  0
LINE
  8
0
 10
-87.2107
 20
16.1044
 11
-87.0943
 21
15.7461
  0
LINE
  8
0
 10
-87.0943
 20
15.7461
 11
-87.0237
 21
15.376
  0
LINE
  8
0
 10
-87.0237
 20
15.376
 11
-87
 21
15
  0
LINE
  8
0
 10
-87
 20
15
 11
-87.0237
 21
14.624
  0
LINE
  8
0
 10
-87.0237
 20
14.624
 11
-87.0943
 21
14.2539
  0
LINE
  8
0
 10
-87.0943
 20
14.2539
 11
-87.2107
 21
13.8956
  0
LINE
  8
0
 10
-87.2107
 20
13.8956
 11
-87.3711
 21
13.5547
  0
LINE
  8
0
 10
-87.3711
 20
13.5547
 11
-87.573
 21
13.2366
  0
LINE
  8
0
 10
-87.573
 20
13.2366
 11
-87.8131
 21
12.9464
  0
LINE
  8
0
 10
-87.8131
 20
12.9464
 11
-88.0877
 21
12.6884
  0
LINE
  8
0
 10
-88.0877
 20
12.6884
 11
-88.3925
 21
12.467
  0
LINE
  8
0
 10
-88.3925
 20
12.467
 11
-88.7227
 21
12.2855
  0
LINE
  8
0
 10
-88.7227
 20
12.2855
 11
-89.073
 21
12.1468
  0
LINE
  8
0
 10
-89.073
 20
12.1468
 11
-89.4379
 21
12.0531
  0
LINE
  8
0
 10
-89.4379
 20
12.0531
 11
-89.8116
 21
12.0059
  0
LINE
  8
0
 10
-89.8116
 20
12.0059
 11
-90.1884
 21
12.0059
  0
LINE
  8
0
 10
-90.0942
 20
6.00294
 11
-90.2811
 21
6.02657
  0
LINE
  8
0
 10
-90.2811
 20
6.02657
 11
-90.4635
 21
6.07341
  0
LINE
  8
0
 10
-90.4635
 20
6.07341
 11
-90.6387
 21
6.14275
  0
LINE
  8
0
 10
-90.6387
 20
6.14275
 11
-90.8037
 21
6.23351
  0
LINE
  8
0
 10
-90.8037
 20
6.23351
 11
-90.9561
 21
6.34422
  0
LINE
  8
0
 10
-90.9561
 20
6.34422
 11
-91.0934
 21
6.47318
  0
LINE
  8
0
 10
-91.0934
 20
6.47318
 11
-91.2135
 21
6.61832
  0
LINE
  8
0
 10
-91.2135
 20
6.61832
 11
-91.3145
 21
6.77736
  0
LINE
  8
0
 10
-91.3145
 20
6.77736
 11
-91.3947
 21
6.9478
  0
LINE
  8
0
 10
-91.3947
 20
6.9478
 11
-91.4529
 21
7.12695
  0
LINE
  8
0
 10
-91.4529
 20
7.12695
 11
-91.4882
 21
7.312
  0
LINE
  8
0
 10
-91.4882
 20
7.312
 11
-91.5
 21
7.5
  0
LINE
  8
0
 10
-91.5
 20
7.5
 11
-91.4882
 21
7.68799
  0
LINE
  8
0
 10
-91.4882
 20
7.68799
 11
-91.4529
 21
7.87303
  0
LINE
  8
0
 10
-91.4529
 20
7.87303
 11
-91.3947
 21
8.05219
  0
LINE
  8
0
 10
-91.3947
 20
8.05219
 11
-91.3145
 21
8.22263
  0
LINE
  8
0
 10
-91.3145
 20
8.22263
 11
-91.2135
 21
8.38167
  0
LINE
  8
0
 10
-91.2135
 20
8.38167
 11
-91.0934
 21
8.52681
  0
LINE
  8
0
 10
-91.0934
 20
8.52681
 11
-90.9561
 21
8.65576
  0
LINE
  8
0
 10
-90.9561
 20
8.65576
 11
-90.8037
 21
8.76648
  0
LINE
  8
0
 10
-90.8037
 20
8.76648
 11
-90.6387
 21
8.85724
  0
LINE
  8
0
 10
-90.6387
 20
8.85724
 11
-90.4635
 21
8.92657
  0
LINE
  8
0
 10
-90.4635
 20
8.92657
 11
-90.2811
 21
8.97342
  0
LINE
  8
0
 10
-90.2811
 20
8.97342
 11
-90.0942
 21
8.99704
  0
LINE
  8
0
 10
-90.0942
 20
8.99704
 11
-89.9058
 21
8.99704
  0
LINE
  8
0
 10
-89.9058
 20
8.99704
 11
-89.7189
 21
8.97342
  0
LINE
  8
0
 10
-89.7189
 20
8.97342
 11
-89.5365
 21
8.92657
  0
LINE
  8
0
 10
-89.5365
 20
8.92657
 11
-89.3613
 21
8.85724
  0
LINE
  8
0
 10
-89.3613
 20
8.85724
 11
-89.1963
 21
8.76648
  0
LINE
  8
0
 10
-89.1963
 20
8.76648
 11
-89.0439
 21
8.65576
  0
LINE
  8
0
 10
-89.0439
 20
8.65576
 11
-88.9065
 21
8.52681
  0
LINE
  8
0
 10
-88.9065
 20
8.52681
 11
-88.7865
 21
8.38167
  0
LINE
  8
0
 10
-88.7865
 20
8.38167
 11
-88.6855
 21
8.22263
  0
LINE
  8
0
 10
-88.6855
 20
8.22263
 11
-88.6053
 21
8.05219
  0
LINE
  8
0
 10
-88.6053
 20
8.05219
 11
-88.5471
 21
7.87303
  0
LINE
  8
0
 10
-88.5471
 20
7.87303
 11
-88.5118
 21
7.68799
  0
LINE
  8
0
 10
-88.5118
 20
7.68799
 11
-88.5
 21
7.5
  0
LINE
  8
0
 10
-88.5
 20
7.5
 11
-88.5118
 21
7.312
  0
LINE
  8
0
 10
-88.5118
 20
7.312
 11
-88.5471
 21
7.12695
  0
LINE
  8
0
 10
-88.5471
 20
7.12695
 11
-88.6053
 21
6.9478
  0
LINE
  8
0
 10
-88.6053
 20
6.9478
 11
-88.6855
 21
6.77736
  0
LINE
  8
0
 10
-88.6855
 20
6.77736
 11
-88.7865
 21
6.61832
  0
LINE
  8
0
 10
-88.7865
 20
6.61832
 11
-88.9065
 21
6.47318
  0
LINE
  8
0
 10
-88.9065
 20
6.47318
 11
-89.0439
 21
6.34422
  0
LINE
  8
0
 10
-89.0439
 20
6.34422
 11
-89.1963
 21
6.23351
  0
LINE
  8
0
 10
-89.1963
 20
6.23351
 11
-89.3613
 21
6.14275
  0
LINE
  8
0
 10
-89.3613
 20
6.14275
 11
-89.5365
 21
6.07341
  0
LINE
  8
0
 10
-89.5365
 20
6.07341
 11
-89.7189
 21
6.02657
  0
LINE
  8
0
 10
-89.7189
 20
6.02657
 11
-89.9058
 21
6.00294
  0
LINE
  8
0
 10
-89.9058
 20
6.00294
 11
-90.0942
 21
6.00294
  0
LINE
  8
0
 10
-90.1884
 20
-2.99408
 11
-90.5621
 21
-2.94685
  0
LINE
  8
0
 10
-90.5621
 20
-2.94685
 11
-90.927
 21
-2.85316
  0
LINE
  8
0
 10
-90.927
 20
-2.85316
 11
-91.2773
 21
-2.71448
  0
LINE
  8
0
 10
-91.2773
 20
-2.71448
 11
-91.6075
 21
-2.53297
  0
LINE
  8
0
 10
-91.6075
 20
-2.53297
 11
-91.9123
 21
-2.31154
  0
LINE
  8
0
 10
-91.9123
 20
-2.31154
 11
-92.1869
 21
-2.05363
  0
LINE
  8
0
 10
-92.1869
 20
-2.05363
 11
-92.427
 21
-1.76335
  0
LINE
  8
0
 10
-92.427
 20
-1.76335
 11
-92.6289
 21
-1.44525
  0
LINE
  8
0
 10
-92.6289
 20
-1.44525
 11
-92.7893
 21
-1.10437
  0
LINE
  8
0
 10
-92.7893
 20
-1.10437
 11
-92.9057
 21
-0.746063
  0
LINE
  8
0
 10
-92.9057
 20
-0.746063
 11
-92.9763
 21
-0.375992
  0
LINE
  8
0
 10
-92.9763
 20
-0.375992
 11
-93
 21
0
  0
LINE
  8
0
 10
-93
 20
0
 11
-92.9763
 21
0.375992
  0
LINE
  8
0
 10
-92.9763
 20
0.375992
 11
-92.9057
 21
0.746063
  0
LINE
  8
0
 10
-92.9057
 20
0.746063
 11
-92.7893
 21
1.10437
  0
LINE
  8
0
 10
-92.7893
 20
1.10437
 11
-92.6289
 21
1.44525
  0
LINE
  8
0
 10
-92.6289
 20
1.44525
 11
-92.427
 21
1.76335
  0
LINE
  8
0
 10
-92.427
 20
1.76335
 11
-92.1869
 21
2.05363
  0
LINE
  8
0
 10
-92.1869
 20
2.05363
 11
-91.9123
 21
2.31154
  0
LINE
  8
0
 10
-91.9123
 20
2.31154
 11
-91.6075
 21
2.53297
  0
LINE
  8
0
 10
-91.6075
 20
2.53297
 11
-91.2773
 21
2.71448
  0
LINE
  8
0
 10
-91.2773
 20
2.71448
 11
-90.927
 21
2.85316
  0
LINE
  8
0
 10
-90.927
 20
2.85316
 11
-90.5621
 21
2.94685
  0
LINE
  8
0
 10
-90.5621
 20
2.94685
 11
-90.1884
 21
2.99408
  0
LINE
  8
0
 10
-90.1884
 20
2.99408
 11
-89.8116
 21
2.99408
  0
LINE
  8
0
 10
-89.8116
 20
2.99408
 11
-89.4379
 21
2.94685
  0
LINE
  8
0
 10
-89.4379
 20
2.94685
 11
-89.073
 21
2.85316
  0
LINE
  8
0
 10
-89.073
 20
2.85316
 11
-88.7227
 21
2.71448
  0
LINE
  8
0
 10
-88.7227
 20
2.71448
 11
-88.3925
 21
2.53297
  0
LINE
  8
0
 10
-88.3925
 20
2.53297
 11
-88.0877
 21
2.31154
  0
LINE
  8
0
 10
-88.0877
 20
2.31154
 11
-87.8131
 21
2.05363
  0
LINE
  8
0
 10
-87.8131
 20
2.05363
 11
-87.573
 21
1.76335
  0
LINE
  8
0
 10
-87.573
 20
1.76335
 11
-87.3711
 21
1.44525
  0
LINE
  8
0
 10
-87.3711
 20
1.44525
 11
-87.2107
 21
1.10437
  0
LINE
  8
0
 10
-87.2107
 20
1.10437
 11
-87.0943
 21
0.746063
  0
LINE
  8
0
 10
-87.0943
 20
0.746063
 11
-87.0237
 21
0.375992
  0
LINE
  8
0
 10
-87.0237
 20
0.375992
 11
-87
 21
0
  0
LINE
  8
0
 10
-87
 20
0
 11
-87.0237
 21
-0.375992
  0
LINE
  8
0
 10
-87.0237
 20
-0.375992
 11
-87.0943
 21
-0.746063
  0
LINE
  8
0
 10
-87.0943
 20
-0.746063
 11
-87.2107
 21
-1.10437
  0
LINE
  8
0
 10
-87.2107
 20
-1.10437
 11
-87.3711
 21
-1.44525
  0
LINE
  8
0
 10
-87.3711
 20
-1.44525
 11
-87.573
 21
-1.76335
  0
LINE
  8
0
 10
-87.573
 20
-1.76335
 11
-87.8131
 21
-2.05363
  0
LINE
  8
0
 10
-87.8131
 20
-2.05363
 11
-88.0877
 21
-2.31154
  0
LINE
  8
0
 10
-88.0877
 20
-2.31154
 11
-88.3925
 21
-2.53297
  0
LINE
  8
0
 10
-88.3925
 20
-2.53297
 11
-88.7227
 21
-2.71448
  0
LINE
  8
0
 10
-88.7227
 20
-2.71448
 11
-89.073
 21
-2.85316
  0
LINE
  8
0
 10
-89.073
 20
-2.85316
 11
-89.4379
 21
-2.94685
  0
LINE
  8
0
 10
-89.4379
 20
-2.94685
 11
-89.8116
 21
-2.99408
  0
LINE
  8
0
 10
-89.8116
 20
-2.99408
 11
-90.1884
 21
-2.99408
  0
LINE
  8
0
 10
-90.0942
 20
-8.99704
 11
-90.2811
 21
-8.97342
  0
LINE
  8
0
 10
-90.2811
 20
-8.97342
 11
-90.4635
 21
-8.92657
  0
LINE
  8
0
 10
-90.4635
 20
-8.92657
 11
-90.6387
 21
-8.85724
  0
LINE
  8
0
 10
-90.6387
 20
-8.85724
 11
-90.8037
 21
-8.76648
  0
LINE
  8
0
 10
-90.8037
 20
-8.76648
 11
-90.9561
 21
-8.65576
  0
LINE
  8
0
 10
-90.9561
 20
-8.65576
 11
-91.0934
 21
-8.52681
  0
LINE
  8
0
 10
-91.0934
 20
-8.52681
 11
-91.2135
 21
-8.38167
  0
LINE
  8
0
 10
-91.2135
 20
-8.38167
 11
-91.3145
 21
-8.22263
  0
LINE
  8
0
 10
-91.3145
 20
-8.22263
 11
-91.3947
 21
-8.05219
  0
LINE
  8
0
 10
-91.3947
 20
-8.05219
 11
-91.4529
 21
-7.87303
  0
LINE
  8
0
 10
-91.4529
 20
-7.87303
 11
-91.4882
 21
-7.68799
  0
LINE
  8
0
 10
-91.4882
 20
-7.68799
 11
-91.5
 21
-7.5
  0
LINE
  8
0
 10
-91.5
 20
-7.5
 11
-91.4882
 21
-7.312
  0
LINE
  8
0
 10
-91.4882
 20
-7.312
 11
-91.4529
 21
-7.12695
  0
LINE
  8
0
 10
-91.4529
 20
-7.12695
 11
-91.3947
 21
-6.9478
  0
LINE
  8
0
 10
-91.3947
 20
-6.9478
 11
-91.3145
 21
-6.77736
  0
LINE
  8
0
 10
-91.3145
 20
-6.77736
 11
-91.2135
 21
-6.61832
  0
LINE
  8
0
 10
-91.2135
 20
-6.61832
 11
-91.0934
 21
-6.47318
  0
LINE
  8
0
 10
-91.0934
 20
-6.47318
 11
-90.9561
 21
-6.34422
  0
LINE
  8
0
 10
-90.9561
 20
-6.34422
 11
-90.8037
 21
-6.23351
  0
LINE
  8
0
 10
-90.8037
 20
-6.23351
 11
-90.6387
 21
-6.14275
  0
LINE
  8
0
 10
-90.6387
 20
-6.14275
 11
-90.4635
 21
-6.07341
  0
LINE
  8
0
 10
-90.4635
 20
-6.07341
 11
-90.2811
 21
-6.02657
  0
LINE
  8
0
 10
-90.2811
 20
-6.02657
 11
-90.0942
 21
-6.00294
  0
LINE
  8
0
 10
-90.0942
 20
-6.00294
 11
-89.9058
 21
-6.00294
  0
LINE
  8
0
 10
-89.9058
 20
-6.00294
 11
-89.7189
 21
-6.02657
  0
LINE
  8
0
 10
-89.7189
 20
-6.02657
 11
-89.5365
 21
-6.07341
  0
LINE
  8
0
 10
-89.5365
 20
-6.07341
 11
-89.3613
 21
-6.14275
  0
LINE
  8
0
 10
-89.3613
 20
-6.14275
 11
-89.1963
 21
-6.23351
  0
LINE
  8
0
 10
-89.1963
 20
-6.23351
 11
-89.0439
 21
-6.34422
  0
LINE
  8
0
 10
-89.0439
 20
-6.34422
 11
-88.9065
 21
-6.47318
  0
LINE
  8
0
 10
-88.9065
 20
-6.47318
 11
-88.7865
 21
-6.61832
  0
LINE
  8
0
 10
-88.7865
 20
-6.61832
 11
-88.6855
 21
-6.77736
  0
LINE
  8
0
 10
-88.6855
 20
-6.77736
 11
-88.6053
 21
-6.9478
  0
LINE
  8
0
 10
-88.6053
 20
-6.9478
 11
-88.5471
 21
-7.12695
  0
LINE
  8
0
 10
-88.5471
 20
-7.12695
 11
-88.5118
 21
-7.312
  0
LINE
  8
0
 10
-88.5118
 20
-7.312
 11
-88.5
 21
-7.5
  0
LINE
  8
0
 10
-88.5
 20
-7.5
 11
-88.5118
 21
-7.68799
  0
LINE
  8
0
 10
-88.5118
 20
-7.68799
 11
-88.5471
 21
-7.87303
  0
LINE
  8
0
 10
-88.5471
 20
-7.87303
 11
-88.6053
 21
-8.05219
  0
LINE
  8
0
 10
-88.6053
 20
-8.05219
 11
-88.6855
 21
-8.22263
  0
LINE
  8
0
 10
-88.6855
 20
-8.22263
 11
-88.7865
 21
-8.38167
  0
LINE
  8
0
 10
-88.7865
 20
-8.38167
 11
-88.9065
 21
-8.52681
  0
LINE
  8
0
 10
-88.9065
 20
-8.52681
 11
-89.0439
 21
-8.65576
  0
LINE
  8
0
 10
-89.0439
 20
-8.65576
 11
-89.1963
 21
-8.76648
  0
LINE
  8
0
 10
-89.1963
 20
-8.76648
 11
-89.3613
 21
-8.85724
  0
LINE
  8
0
 10
-89.3613
 20
-8.85724
 11
-89.5365
 21
-8.92657
  0
LINE
  8
0
 10
-89.5365
 20
-8.92657
 11
-89.7189
 21
-8.97342
  0
LINE
  8
0
 10
-89.7189
 20
-8.97342
 11
-89.9058
 21
-8.99704
  0
LINE
  8
0
 10
-89.9058
 20
-8.99704
 11
-90.0942
 21
-8.99704
  0
LINE
  8
0
 10
-90.1884
 20
-17.9941
 11
-90.5621
 21
-17.9469
  0
LINE
  8
0
 10
-90.5621
 20
-17.9469
 11
-90.927
 21
-17.8532
  0
LINE
  8
0
 10
-90.927
 20
-17.8532
 11
-91.2773
 21
-17.7145
  0
LINE
  8
0
 10
-91.2773
 20
-17.7145
 11
-91.6075
 21
-17.533
  0
LINE
  8
0
 10
-91.6075
 20
-17.533
 11
-91.9123
 21
-17.3115
  0
LINE
  8
0
 10
-91.9123
 20
-17.3115
 11
-92.1869
 21
-17.0536
  0
LINE
  8
0
 10
-92.1869
 20
-17.0536
 11
-92.427
 21
-16.7634
  0
LINE
  8
0
 10
-92.427
 20
-16.7634
 11
-92.6289
 21
-16.4453
  0
LINE
  8
0
 10
-92.6289
 20
-16.4453
 11
-92.7893
 21
-16.1044
  0
LINE
  8
0
 10
-92.7893
 20
-16.1044
 11
-92.9057
 21
-15.7461
  0
LINE
  8
0
 10
-92.9057
 20
-15.7461
 11
-92.9763
 21
-15.376
  0
LINE
  8
0
 10
-92.9763
 20
-15.376
 11
-93
 21
-15
  0
LINE
  8
0
 10
-93
 20
-15
 11
-92.9763
 21
-14.624
  0
LINE
  8
0
 10
-92.9763
 20
-14.624
 11
-92.9057
 21
-14.2539
  0
LINE
  8
0
 10
-92.9057
 20
-14.2539
 11
-92.7893
 21
-13.8956
  0
LINE
  8
0
 10
-92.7893
 20
-13.8956
 11
-92.6289
 21
-13.5547
  0
LINE
  8
0
 10
-92.6289
 20
-13.5547
 11
-92.427
 21
-13.2366
  0
LINE
  8
0
 10
-92.427
 20
-13.2366
 11
-92.1869
 21
-12.9464
  0
LINE
  8
0
 10
-92.1869
 20
-12.9464
 11
-91.9123
 21
-12.6884
  0
LINE
  8
0
 10
-91.9123
 20
-12.6884
 11
-91.6075
 21
-12.467
  0
LINE
  8
0
 10
-91.6075
 20
-12.467
 11
-91.2773
 21
-12.2855
  0
LINE
  8
0
 10
-91.2773
 20
-12.2855
 11
-90.927
 21
-12.1468
  0
LINE
  8
0
 10
-90.927
 20
-12.1468
 11
-90.5621
 21
-12.0531
  0
LINE
  8
0
 10
-90.5621
 20
-12.0531
 11
-90.1884
 21
-12.0059
  0
LINE
  8
0
 10
-90.1884
 20
-12.0059
 11
-89.8116
 21
-12.0059
  0
LINE
  8
0
 10
-89.8116
 20
-12.0059
 11
-89.4379
 21
-12.0531
  0
LINE
  8
0
 10
-89.4379
 20
-12.0531
 11
-89.073
 21
-12.1468
  0
LINE
  8
0
 10
-89.073
 20
-12.1468
 11
-88.7227
 21
-12.2855
  0
LINE
  8
0
 10
-88.7227
 20
-12.2855
 11
-88.3925
 21
-12.467
  0
LINE
  8
0
 10
-88.3925
 20
-12.467
 11
-88.0877
 21
-12.6884
  0
LINE
  8
0
 10
-88.0877
 20
-12.6884
 11
-87.8131
 21
-12.9464
  0
LINE
  8
0
 10
-87.8131
 20
-12.9464
 11
-87.573
 21
-13.2366
  0
LINE
  8
0
 10
-87.573
 20
-13.2366
 11
-87.3711
 21
-13.5547
  0
LINE
  8
0
 10
-87.3711
 20
-13.5547
 11
-87.2107
 21
-13.8956
  0
LINE
  8
0
 10
-87.2107
 20
-13.8956
 11
-87.0943
 21
-14.2539
  0
LINE
  8
0
 10
-87.0943
 20
-14.2539
 11
-87.0237
 21
-14.624
  0
LINE
  8
0
 10
-87.0237
 20
-14.624
 11
-87
 21
-15
  0
LINE
  8
0
 10
-87
 20
-15
 11
-87.0237
 21
-15.376
  0
LINE
  8
0
 10
-87.0237
 20
-15.376
 11
-87.0943
 21
-15.7461
  0
LINE
  8
0
 10
-87.0943
 20
-15.7461
 11
-87.2107
 21
-16.1044
  0
LINE
  8
0
 10
-87.2107
 20
-16.1044
 11
-87.3711
 21
-16.4453
  0
LINE
  8
0
 10
-87.3711
 20
-16.4453
 11
-87.573
 21
-16.7634
  0
LINE
  8
0
 10
-87.573
 20
-16.7634
 11
-87.8131
 21
-17.0536
  0
LINE
  8
0
 10
-87.8131
 20
-17.0536
 11
-88.0877
 21
-17.3115
  0
LINE
  8
0
 10
-88.0877
 20
-17.3115
 11
-88.3925
 21
-17.533
  0
LINE
  8
0
 10
-88.3925
 20
-17.533
 11
-88.7227
 21
-17.7145
  0
LINE
  8
0
 10
-88.7227
 20
-17.7145
 11
-89.073
 21
-17.8532
  0
LINE
  8
0
 10
-89.073
 20
-17.8532
 11
-89.4379
 21
-17.9469
  0
LINE
  8
0
 10
-89.4379
 20
-17.9469
 11
-89.8116
 21
-17.9941
  0
LINE
  8
0
 10
-89.8116
 20
-17.9941
 11
-90.1884
 21
-17.9941
  0
LINE
  8
0
 10
-90.0942
 20
-23.997
 11
-90.2811
 21
-23.9734
  0
LINE
  8
0
 10
-90.2811
 20
-23.9734
 11
-90.4635
 21
-23.9266
  0
LINE
  8
0
 10
-90.4635
 20
-23.9266
 11
-90.6387
 21
-23.8572
  0
LINE
  8
0
 10
-90.6387
 20
-23.8572
 11
-90.8037
 21
-23.7665
  0
LINE
  8
0
 10
-90.8037
 20
-23.7665
 11
-90.9561
 21
-23.6558
  0
LINE
  8
0
 10
-90.9561
 20
-23.6558
 11
-91.0934
 21
-23.5268
  0
LINE
  8
0
 10
-91.0934
 20
-23.5268
 11
-91.2135
 21
-23.3817
  0
LINE
  8
0
 10
-91.2135
 20
-23.3817
 11
-91.3145
 21
-23.2226
  0
LINE
  8
0
 10
-91.3145
 20
-23.2226
 11
-91.3947
 21
-23.0522
  0
LINE
  8
0
 10
-91.3947
 20
-23.0522
 11
-91.4529
 21
-22.873
  0
LINE
  8
0
 10
-91.4529
 20
-22.873
 11
-91.4882
 21
-22.688
  0
LINE
  8
0
 10
-91.4882
 20
-22.688
 11
-91.5
 21
-22.5
  0
LINE
  8
0
 10
-91.5
 20
-22.5
 11
-91.4882
 21
-22.312
  0
LINE
  8
0
 10
-91.4882
 20
-22.312
 11
-91.4529
 21
-22.127
  0
LINE
  8
0
 10
-91.4529
 20
-22.127
 11
-91.3947
 21
-21.9478
  0
LINE
  8
0
 10
-91.3947
 20
-21.9478
 11
-91.3145
 21
-21.7774
  0
LINE
  8
0
 10
-91.3145
 20
-21.7774
 11
-91.2135
 21
-21.6183
  0
LINE
  8
0
 10
-91.2135
 20
-21.6183
 11
-91.0934
 21
-21.4732
  0
LINE
  8
0
 10
-91.0934
 20
-21.4732
 11
-90.9561
 21
-21.3442
  0
LINE
  8
0
 10
-90.9561
 20
-21.3442
 11
-90.8037
 21
-21.2335
  0
LINE
  8
0
 10
-90.8037
 20
-21.2335
 11
-90.6387
 21
-21.1427
  0
LINE
  8
0
 10
-90.6387
 20
-21.1427
 11
-90.4635
 21
-21.0734
  0
LINE
  8
0
 10
-90.4635
 20
-21.0734
 11
-90.2811
 21
-21.0266
  0
LINE
  8
0
 10
-90.2811
 20
-21.0266
 11
-90.0942
 21
-21.003
  0
LINE
  8
0
 10
-90.0942
 20
-21.003
 11
-89.9058
 21
-21.003
  0
LINE
  8
0
 10
-89.9058
 20
-21.003
 11
-89.7189
 21
-21.0266
  0
LINE
  8
0
 10
-89.7189
 20
-21.0266
 11
-89.5365
 21
-21.0734
  0
LINE
  8
0
 10
-89.5365
 20
-21.0734
 11
-89.3613
 21
-21.1427
  0
LINE
  8
0
 10
-89.3613
 20
-21.1427
 11
-89.1963
 21
-21.2335
  0
LINE
  8
0
 10
-89.1963
 20
-21.2335
 11
-89.0439
 21
-21.3442
  0
LINE
  8
0
 10
-89.0439
 20
-21.3442
 11
-88.9065
 21
-21.4732
  0
LINE
  8
0
 10
-88.9065
 20
-21.4732
 11
-88.7865
 21
-21.6183
  0
LINE
  8
0
 10
-88.7865
 20
-21.6183
 11
-88.6855
 21
-21.7774
  0
LINE
  8
0
 10
-88.6855
 20
-21.7774
 11
-88.6053
 21
-21.9478
  0
LINE
  8
0
 10
-88.6053
 20
-21.9478
 11
-88.5471
 21
-22.127
  0
LINE
  8
0
 10
-88.5471
 20
-22.127
 11
-88.5118
 21
-22.312
  0
LINE
  8
0
 10
-88.5118
 20
-22.312
 11
-88.5
 21
-22.5
  0
LINE
  8
0
 10
-88.5
 20
-22.5
 11
-88.5118
 21
-22.688
  0
LINE
  8
0
 10
-88.5118
 20
-22.688
 11
-88.5471
 21
-22.873
  0
LINE
  8
0
 10
-88.5471
 20
-22.873
 11
-88.6053
 21
-23.0522
  0
LINE
  8
0
 10
-88.6053
 20
-23.0522
 11
-88.6855
 21
-23.2226
  0
LINE
  8
0
 10
-88.6855
 20
-23.2226
 11
-88.7865
 21
-23.3817
  0
LINE
  8
0
 10
-88.7865
 20
-23.3817
 11
-88.9065
 21
-23.5268
  0
LINE
  8
0
 10
-88.9065
 20
-23.5268
 11
-89.0439
 21
-23.6558
  0
LINE
  8
0
 10
-89.0439
 20
-23.6558
 11
-89.1963
 21
-23.7665
  0
LINE
  8
0
 10
-89.1963
 20
-23.7665
 11
-89.3613
 21
-23.8572
  0
LINE
  8
0
 10
-89.3613
 20
-23.8572
 11
-89.5365
 21
-23.9266
  0
LINE
  8
0
 10
-89.5365
 20
-23.9266
 11
-89.7189
 21
-23.9734
  0
LINE
  8
0
 10
-89.7189
 20
-23.9734
 11
-89.9058
 21
-23.997
  0
LINE
  8
0
 10
-89.9058
 20
-23.997
 11
-90.0942
 21
-23.997
  0
LINE
  8
0
 10
-90.1884
 20
-32.9941
 11
-90.5621
 21
-32.9469
  0
LINE
  8
0
 10
-90.5621
 20
-32.9469
 11
-90.927
 21
-32.8532
  0
LINE
  8
0
 10
-90.927
 20
-32.8532
 11
-91.2773
 21
-32.7145
  0
LINE
  8
0
 10
-91.2773
 20
-32.7145
 11
-91.6075
 21
-32.533
  0
LINE
  8
0
 10
-91.6075
 20
-32.533
 11
-91.9123
 21
-32.3115
  0
LINE
  8
0
 10
-91.9123
 20
-32.3115
 11
-92.1869
 21
-32.0536
  0
LINE
  8
0
 10
-92.1869
 20
-32.0536
 11
-92.427
 21
-31.7634
  0
LINE
  8
0
 10
-92.427
 20
-31.7634
 11
-92.6289
 21
-31.4453
  0
LINE
  8
0
 10
-92.6289
 20
-31.4453
 11
-92.7893
 21
-31.1044
  0
LINE
  8
0
 10
-92.7893
 20
-31.1044
 11
-92.9057
 21
-30.7461
  0
LINE
  8
0
 10
-92.9057
 20
-30.7461
 11
-92.9763
 21
-30.376
  0
LINE
  8
0
 10
-92.9763
 20
-30.376
 11
-93
 21
-30
  0
LINE
  8
0
 10
-93
 20
-30
 11
-92.9763
 21
-29.624
  0
LINE
  8
0
 10
-92.9763
 20
-29.624
 11
-92.9057
 21
-29.2539
  0
LINE
  8
0
 10
-92.9057
 20
-29.2539
 11
-92.7893
 21
-28.8956
  0
LINE
  8
0
 10
-92.7893
 20
-28.8956
 11
-92.6289
 21
-28.5547
  0
LINE
  8
0
 10
-92.6289
 20
-28.5547
 11
-92.427
 21
-28.2366
  0
LINE
  8
0
 10
-92.427
 20
-28.2366
 11
-92.1869
 21
-27.9464
  0
LINE
  8
0
 10
-92.1869
 20
-27.9464
 11
-91.9123
 21
-27.6884
  0
LINE
  8
0
 10
-91.9123
 20
-27.6884
 11
-91.6075
 21
-27.467
  0
LINE
  8
0
 10
-91.6075
 20
-27.467
 11
-91.2773
 21
-27.2855
  0
LINE
  8
0
 10
-91.2773
 20
-27.2855
 11
-90.927
 21
-27.1468
  0
LINE
  8
0
 10
-90.927
 20
-27.1468
 11
-90.5621
 21
-27.0531
  0
LINE
  8
0
 10
-90.5621
 20
-27.0531
 11
-90.1884
 21
-27.0059
  0
LINE
  8
0
 10
-90.1884
 20
-27.0059
 11
-89.8116
 21
-27.0059
  0
LINE
  8
0
 10
-89.8116
 20
-27.0059
 11
-89.4379
 21
-27.0531
  0
LINE
  8
0
 10
-89.4379
 20
-27.0531
 11
-89.073
 21
-27.1468
  0
LINE
  8
0
 10
-89.073
 20
-27.1468
 11
-88.7227
 21
-27.2855
  0
LINE
  8
0
 10
-88.7227
 20
-27.2855
 11
-88.3925
 21
-27.467
  0
LINE
  8
0
 10
-88.3925
 20
-27.467
 11
-88.0877
 21
-27.6884
  0
LINE
  8
0
 10
-88.0877
 20
-27.6884
 11
-87.8131
 21
-27.9464
  0
LINE
  8
0
 10
-87.8131
 20
-27.9464
 11
-87.573
 21
-28.2366
  0
LINE
  8
0
 10
-87.573
 20
-28.2366
 11
-87.3711
 21
-28.5547
  0
LINE
  8
0
 10
-87.3711
 20
-28.5547
 11
-87.2107
 21
-28.8956
  0
LINE
  8
0
 10
-87.2107
 20
-28.8956
 11
-87.0943
 21
-29.2539
  0
LINE
  8
0
 10
-87.0943
 20
-29.2539
 11
-87.0237
 21
-29.624
  0
LINE
  8
0
 10
-87.0237
 20
-29.624
 11
-87
 21
-30
  0
LINE
  8
0
 10
-87
 20
-30
 11
-87.0237
 21
-30.376
  0
LINE
  8
0
 10
-87.0237
 20
-30.376
 11
-87.0943
 21
-30.7461
  0
LINE
  8
0
 10
-87.0943
 20
-30.7461
 11
-87.2107
 21
-31.1044
  0
LINE
  8
0
 10
-87.2107
 20
-31.1044
 11
-87.3711
 21
-31.4453
  0
LINE
  8
0
 10
-87.3711
 20
-31.4453
 11
-87.573
 21
-31.7634
  0
LINE
  8
0
 10
-87.573
 20
-31.7634
 11
-87.8131
 21
-32.0536
  0
LINE
  8
0
 10
-87.8131
 20
-32.0536
 11
-88.0877
 21
-32.3115
  0
LINE
  8
0
 10
-88.0877
 20
-32.3115
 11
-88.3925
 21
-32.533
  0
LINE
  8
0
 10
-88.3925
 20
-32.533
 11
-88.7227
 21
-32.7145
  0
LINE
  8
0
 10
-88.7227
 20
-32.7145
 11
-89.073
 21
-32.8532
  0
LINE
  8
0
 10
-89.073
 20
-32.8532
 11
-89.4379
 21
-32.9469
  0
LINE
  8
0
 10
-89.4379
 20
-32.9469
 11
-89.8116
 21
-32.9941
  0
LINE
  8
0
 10
-89.8116
 20
-32.9941
 11
-90.1884
 21
-32.9941
  0
LINE
  8
0
 10
-90.0942
 20
-38.997
 11
-90.2811
 21
-38.9734
  0
LINE
  8
0
 10
-90.2811
 20
-38.9734
 11
-90.4635
 21
-38.9266
  0
LINE
  8
0
 10
-90.4635
 20
-38.9266
 11
-90.6387
 21
-38.8572
  0
LINE
  8
0
 10
-90.6387
 20
-38.8572
 11
-90.8037
 21
-38.7665
  0
LINE
  8
0
 10
-90.8037
 20
-38.7665
 11
-90.9561
 21
-38.6558
  0
LINE
  8
0
 10
-90.9561
 20
-38.6558
 11
-91.0934
 21
-38.5268
  0
LINE
  8
0
 10
-91.0934
 20
-38.5268
 11
-91.2135
 21
-38.3817
  0
LINE
  8
0
 10
-91.2135
 20
-38.3817
 11
-91.3145
 21
-38.2226
  0
LINE
  8
0
 10
-91.3145
 20
-38.2226
 11
-91.3947
 21
-38.0522
  0
LINE
  8
0
 10
-91.3947
 20
-38.0522
 11
-91.4529
 21
-37.873
  0
LINE
  8
0
 10
-91.4529
 20
-37.873
 11
-91.4882
 21
-37.688
  0
LINE
  8
0
 10
-91.4882
 20
-37.688
 11
-91.5
 21
-37.5
  0
LINE
  8
0
 10
-91.5
 20
-37.5
 11
-91.4882
 21
-37.312
  0
LINE
  8
0
 10
-91.4882
 20
-37.312
 11
-91.4529
 21
-37.127
  0
LINE
  8
0
 10
-91.4529
 20
-37.127
 11
-91.3947
 21
-36.9478
  0
LINE
  8
0
 10
-91.3947
 20
-36.9478
 11
-91.3145
 21
-36.7774
  0
LINE
  8
0
 10
-91.3145
 20
-36.7774
 11
-91.2135
 21
-36.6183
  0
LINE
  8
0
 10
-91.2135
 20
-36.6183
 11
-91.0934
 21
-36.4732
  0
LINE
  8
0
 10
-91.0934
 20
-36.4732
 11
-90.9561
 21
-36.3442
  0
LINE
  8
0
 10
-90.9561
 20
-36.3442
 11
-90.8037
 21
-36.2335
  0
LINE
  8
0
 10
-90.8037
 20
-36.2335
 11
-90.6387
 21
-36.1428
  0
LINE
  8
0
 10
-90.6387
 20
-36.1428
 11
-90.4635
 21
-36.0734
  0
LINE
  8
0
 10
-90.4635
 20
-36.0734
 11
-90.2811
 21
-36.0266
  0
LINE
  8
0
 10
-90.2811
 20
-36.0266
 11
-90.0942
 21
-36.003
  0
LINE
  8
0
 10
-90.0942
 20
-36.003
 11
-89.9058
 21
-36.003
  0
LINE
  8
0
 10
-89.9058
 20
-36.003
 11
-89.7189
 21
-36.0266
  0
LINE
  8
0
 10
-89.7189
 20
-36.0266
 11
-89.5365
 21
-36.0734
  0
LINE
  8
0
 10
-89.5365
 20
-36.0734
 11
-89.3613
 21
-36.1428
  0
LINE
  8
0
 10
-89.3613
 20
-36.1428
 11
-89.1963
 21
-36.2335
  0
LINE
  8
0
 10
-89.1963
 20
-36.2335
 11
-89.0439
 21
-36.3442
  0
LINE
  8
0
 10
-89.0439
 20
-36.3442
 11
-88.9065
 21
-36.4732
  0
LINE
  8
0
 10
-88.9065
 20
-36.4732
 11
-88.7865
 21
-36.6183
  0
LINE
  8
0
 10
-88.7865
 20
-36.6183
 11
-88.6855
 21
-36.7774
  0
LINE
  8
0
 10
-88.6855
 20
-36.7774
 11
-88.6053
 21
-36.9478
  0
LINE
  8
0
 10
-88.6053
 20
-36.9478
 11
-88.5471
 21
-37.127
  0
LINE
  8
0
 10
-88.5471
 20
-37.127
 11
-88.5118
 21
-37.312
  0
LINE
  8
0
 10
-88.5118
 20
-37.312
 11
-88.5
 21
-37.5
  0
LINE
  8
0
 10
-88.5
 20
-37.5
 11
-88.5118
 21
-37.688
  0
LINE
  8
0
 10
-88.5118
 20
-37.688
 11
-88.5471
 21
-37.873
  0
LINE
  8
0
 10
-88.5471
 20
-37.873
 11
-88.6053
 21
-38.0522
  0
LINE
  8
0
 10
-88.6053
 20
-38.0522
 11
-88.6855
 21
-38.2226
  0
LINE
  8
0
 10
-88.6855
 20
-38.2226
 11
-88.7865
 21
-38.3817
  0
LINE
  8
0
 10
-88.7865
 20
-38.3817
 11
-88.9065
 21
-38.5268
  0
LINE
  8
0
 10
-88.9065
 20
-38.5268
 11
-89.0439
 21
-38.6558
  0
LINE
  8
0
 10
-89.0439
 20
-38.6558
 11
-89.1963
 21
-38.7665
  0
LINE
  8
0
 10
-89.1963
 20
-38.7665
 11
-89.3613
 21
-38.8572
  0
LINE
  8
0
 10
-89.3613
 20
-38.8572
 11
-89.5365
 21
-38.9266
  0
LINE
  8
0
 10
-89.5365
 20
-38.9266
 11
-89.7189
 21
-38.9734
  0
LINE
  8
0
 10
-89.7189
 20
-38.9734
 11
-89.9058
 21
-38.997
  0
LINE
  8
0
 10
-89.9058
 20
-38.997
 11
-90.0942
 21
-38.997
  0
LINE
  8
0
 10
-90.1884
 20
-47.9941
 11
-90.5621
 21
-47.9469
  0
LINE
  8
0
 10
-90.5621
 20
-47.9469
 11
-90.927
 21
-47.8532
  0
LINE
  8
0
 10
-90.927
 20
-47.8532
 11
-91.2773
 21
-47.7145
  0
LINE
  8
0
 10
-91.2773
 20
-47.7145
 11
-91.6075
 21
-47.533
  0
LINE
  8
0
 10
-91.6075
 20
-47.533
 11
-91.9123
 21
-47.3115
  0
LINE
  8
0
 10
-91.9123
 20
-47.3115
 11
-92.1869
 21
-47.0536
  0
LINE
  8
0
 10
-92.1869
 20
-47.0536
 11
-92.427
 21
-46.7634
  0
LINE
  8
0
 10
-92.427
 20
-46.7634
 11
-92.6289
 21
-46.4453
  0
LINE
  8
0
 10
-92.6289
 20
-46.4453
 11
-92.7893
 21
-46.1044
  0
LINE
  8
0
 10
-92.7893
 20
-46.1044
 11
-92.9057
 21
-45.7461
  0
LINE
  8
0
 10
-92.9057
 20
-45.7461
 11
-92.9763
 21
-45.376
  0
LINE
  8
0
 10
-92.9763
 20
-45.376
 11
-93
 21
-45
  0
LINE
  8
0
 10
-93
 20
-45
 11
-92.9763
 21
-44.624
  0
LINE
  8
0
 10
-92.9763
 20
-44.624
 11
-92.9057
 21
-44.2539
  0
LINE
  8
0
 10
-92.9057
 20
-44.2539
 11
-92.7893
 21
-43.8956
  0
LINE
  8
0
 10
-92.7893
 20
-43.8956
 11
-92.6289
 21
-43.5547
  0
LINE
  8
0
 10
-92.6289
 20
-43.5547
 11
-92.427
 21
-43.2366
  0
LINE
  8
0
 10
-92.427
 20
-43.2366
 11
-92.1869
 21
-42.9464
  0
LINE
  8
0
 10
-92.1869
 20
-42.9464
 11
-91.9123
 21
-42.6885
  0
LINE
  8
0
 10
-91.9123
 20
-42.6885
 11
-91.6075
 21
-42.467
  0
LINE
  8
0
 10
-91.6075
 20
-42.467
 11
-91.2773
 21
-42.2855
  0
LINE
  8
0
 10
-91.2773
 20
-42.2855
 11
-90.927
 21
-42.1468
  0
LINE
  8
0
 10
-90.927
 20
-42.1468
 11
-90.5621
 21
-42.0531
  0
LINE
  8
0
 10
-90.5621
 20
-42.0531
 11
-90.1884
 21
-42.0059
  0
LINE
  8
0
 10
-90.1884
 20
-42.0059
 11
-89.8116
 21
-42.0059
  0
LINE
  8
0
 10
-89.8116
 20
-42.0059
 11
-89.4379
 21
-42.0531
  0
LINE
  8
0
 10
-89.4379
 20
-42.0531
 11
-89.073
 21
-42.1468
  0
LINE
  8
0
 10
-89.073
 20
-42.1468
 11
-88.7227
 21
-42.2855
  0
LINE
  8
0
 10
-88.7227
 20
-42.2855
 11
-88.3925
 21
-42.467
  0
LINE
  8
0
 10
-88.3925
 20
-42.467
 11
-88.0877
 21
-42.6885
  0
LINE
  8
0
 10
-88.0877
 20
-42.6885
 11
-87.8131
 21
-42.9464
  0
LINE
  8
0
 10
-87.8131
 20
-42.9464
 11
-87.573
 21
-43.2366
  0
LINE
  8
0
 10
-87.573
 20
-43.2366
 11
-87.3711
 21
-43.5547
  0
LINE
  8
0
 10
-87.3711
 20
-43.5547
 11
-87.2107
 21
-43.8956
  0
LINE
  8
0
 10
-87.2107
 20
-43.8956
 11
-87.0943
 21
-44.2539
  0
LINE
  8
0
 10
-87.0943
 20
-44.2539
 11
-87.0237
 21
-44.624
  0
LINE
  8
0
 10
-87.0237
 20
-44.624
 11
-87
 21
-45
  0
LINE
  8
0
 10
-87
 20
-45
 11
-87.0237
 21
-45.376
  0
LINE
  8
0
 10
-87.0237
 20
-45.376
 11
-87.0943
 21
-45.7461
  0
LINE
  8
0
 10
-87.0943
 20
-45.7461
 11
-87.2107
 21
-46.1044
  0
LINE
  8
0
 10
-87.2107
 20
-46.1044
 11
-87.3711
 21
-46.4453
  0
LINE
  8
0
 10
-87.3711
 20
-46.4453
 11
-87.573
 21
-46.7634
  0
LINE
  8
0
 10
-87.573
 20
-46.7634
 11
-87.8131
 21
-47.0536
  0
LINE
  8
0
 10
-87.8131
 20
-47.0536
 11
-88.0877
 21
-47.3115
  0
LINE
  8
0
 10
-88.0877
 20
-47.3115
 11
-88.3925
 21
-47.533
  0
LINE
  8
0
 10
-88.3925
 20
-47.533
 11
-88.7227
 21
-47.7145
  0
LINE
  8
0
 10
-88.7227
 20
-47.7145
 11
-89.073
 21
-47.8532
  0
LINE
  8
0
 10
-89.073
 20
-47.8532
 11
-89.4379
 21
-47.9469
  0
LINE
  8
0
 10
-89.4379
 20
-47.9469
 11
-89.8116
 21
-47.9941
  0
LINE
  8
0
 10
-89.8116
 20
-47.9941
 11
-90.1884
 21
-47.9941
  0
LINE
  8
0
 10
-90.0942
 20
-53.997
 11
-90.2811
 21
-53.9734
  0
LINE
  8
0
 10
-90.2811
 20
-53.9734
 11
-90.4635
 21
-53.9266
  0
LINE
  8
0
 10
-90.4635
 20
-53.9266
 11
-90.6387
 21
-53.8572
  0
LINE
  8
0
 10
-90.6387
 20
-53.8572
 11
-90.8037
 21
-53.7665
  0
LINE
  8
0
 10
-90.8037
 20
-53.7665
 11
-90.9561
 21
-53.6558
  0
LINE
  8
0
 10
-90.9561
 20
-53.6558
 11
-91.0934
 21
-53.5268
  0
LINE
  8
0
 10
-91.0934
 20
-53.5268
 11
-91.2135
 21
-53.3817
  0
LINE
  8
0
 10
-91.2135
 20
-53.3817
 11
-91.3145
 21
-53.2226
  0
LINE
  8
0
 10
-91.3145
 20
-53.2226
 11
-91.3947
 21
-53.0522
  0
LINE
  8
0
 10
-91.3947
 20
-53.0522
 11
-91.4529
 21
-52.873
  0
LINE
  8
0
 10
-91.4529
 20
-52.873
 11
-91.4882
 21
-52.688
  0
LINE
  8
0
 10
-91.4882
 20
-52.688
 11
-91.5
 21
-52.5
  0
LINE
  8
0
 10
-91.5
 20
-52.5
 11
-91.4882
 21
-52.312
  0
LINE
  8
0
 10
-91.4882
 20
-52.312
 11
-91.4529
 21
-52.127
  0
LINE
  8
0
 10
-91.4529
 20
-52.127
 11
-91.3947
 21
-51.9478
  0
LINE
  8
0
 10
-91.3947
 20
-51.9478
 11
-91.3145
 21
-51.7774
  0
LINE
  8
0
 10
-91.3145
 20
-51.7774
 11
-91.2135
 21
-51.6183
  0
LINE
  8
0
 10
-91.2135
 20
-51.6183
 11
-91.0934
 21
-51.4732
  0
LINE
  8
0
 10
-91.0934
 20
-51.4732
 11
-90.9561
 21
-51.3442
  0
LINE
  8
0
 10
-90.9561
 20
-51.3442
 11
-90.8037
 21
-51.2335
  0
LINE
  8
0
 10
-90.8037
 20
-51.2335
 11
-90.6387
 21
-51.1428
  0
LINE
  8
0
 10
-90.6387
 20
-51.1428
 11
-90.4635
 21
-51.0734
  0
LINE
  8
0
 10
-90.4635
 20
-51.0734
 11
-90.2811
 21
-51.0266
  0
LINE
  8
0
 10
-90.2811
 20
-51.0266
 11
-90.0942
 21
-51.003
  0
LINE
  8
0
 10
-90.0942
 20
-51.003
 11
-89.9058
 21
-51.003
  0
LINE
  8
0
 10
-89.9058
 20
-51.003
 11
-89.7189
 21
-51.0266
  0
LINE
  8
0
 10
-89.7189
 20
-51.0266
 11
-89.5365
 21
-51.0734
  0
LINE
  8
0
 10
-89.5365
 20
-51.0734
 11
-89.3613
 21
-51.1428
  0
LINE
  8
0
 10
-89.3613
 20
-51.1428
 11
-89.1963
 21
-51.2335
  0
LINE
  8
0
 10
-89.1963
 20
-51.2335
 11
-89.0439
 21
-51.3442
  0
LINE
  8
0
 10
-89.0439
 20
-51.3442
 11
-88.9065
 21
-51.4732
  0
LINE
  8
0
 10
-88.9065
 20
-51.4732
 11
-88.7865
 21
-51.6183
  0
LINE
  8
0
 10
-88.7865
 20
-51.6183
 11
-88.6855
 21
-51.7774
  0
LINE
  8
0
 10
-88.6855
 20
-51.7774
 11
-88.6053
 21
-51.9478
  0
LINE
  8
0
 10
-88.6053
 20
-51.9478
 11
-88.5471
 21
-52.127
  0
LINE
  8
0
 10
-88.5471
 20
-52.127
 11
-88.5118
 21
-52.312
  0
LINE
  8
0
 10
-88.5118
 20
-52.312
 11
-88.5
 21
-52.5
  0
LINE
  8
0
 10
-88.5
 20
-52.5
 11
-88.5118
 21
-52.688
  0
LINE
  8
0
 10
-88.5118
 20
-52.688
 11
-88.5471
 21
-52.873
  0
LINE
  8
0
 10
-88.5471
 20
-52.873
 11
-88.6053
 21
-53.0522
  0
LINE
  8
0
 10
-88.6053
 20
-53.0522
 11
-88.6855
 21
-53.2226
  0
LINE
  8
0
 10
-88.6855
 20
-53.2226
 11
-88.7865
 21
-53.3817
  0
LINE
  8
0
 10
-88.7865
 20
-53.3817
 11
-88.9065
 21
-53.5268
  0
LINE
  8
0
 10
-88.9065
 20
-53.5268
 11
-89.0439
 21
-53.6558
  0
LINE
  8
0
 10
-89.0439
 20
-53.6558
 11
-89.1963
 21
-53.7665
  0
LINE
  8
0
 10
-89.1963
 20
-53.7665
 11
-89.3613
 21
-53.8572
  0
LINE
  8
0
 10
-89.3613
 20
-53.8572
 11
-89.5365
 21
-53.9266
  0
LINE
  8
0
 10
-89.5365
 20
-53.9266
 11
-89.7189
 21
-53.9734
  0
LINE
  8
0
 10
-89.7189
 20
-53.9734
 11
-89.9058
 21
-53.997
  0
LINE
  8
0
 10
-89.9058
 20
-53.997
 11
-90.0942
 21
-53.997
  0
LINE
  8
0
 10
-90.1884
 20
-62.9941
 11
-90.5621
 21
-62.9469
  0
LINE
  8
0
 10
-90.5621
 20
-62.9469
 11
-90.927
 21
-62.8532
  0
LINE
  8
0
 10
-90.927
 20
-62.8532
 11
-91.2773
 21
-62.7145
  0
LINE
  8
0
 10
-91.2773
 20
-62.7145
 11
-91.6075
 21
-62.533
  0
LINE
  8
0
 10
-91.6075
 20
-62.533
 11
-91.9123
 21
-62.3115
  0
LINE
  8
0
 10
-91.9123
 20
-62.3115
 11
-92.1869
 21
-62.0536
  0
LINE
  8
0
 10
-92.1869
 20
-62.0536
 11
-92.427
 21
-61.7634
  0
LINE
  8
0
 10
-92.427
 20
-61.7634
 11
-92.6289
 21
-61.4453
  0
LINE
  8
0
 10
-92.6289
 20
-61.4453
 11
-92.7893
 21
-61.1044
  0
LINE
  8
0
 10
-92.7893
 20
-61.1044
 11
-92.9057
 21
-60.7461
  0
LINE
  8
0
 10
-92.9057
 20
-60.7461
 11
-92.9763
 21
-60.376
  0
LINE
  8
0
 10
-92.9763
 20
-60.376
 11
-93
 21
-60
  0
LINE
  8
0
 10
-93
 20
-60
 11
-92.9763
 21
-59.624
  0
LINE
  8
0
 10
-92.9763
 20
-59.624
 11
-92.9057
 21
-59.2539
  0
LINE
  8
0
 10
-92.9057
 20
-59.2539
 11
-92.7893
 21
-58.8956
  0
LINE
  8
0
 10
-92.7893
 20
-58.8956
 11
-92.6289
 21
-58.5547
  0
LINE
  8
0
 10
-92.6289
 20
-58.5547
 11
-92.427
 21
-58.2366
  0
LINE
  8
0
 10
-92.427
 20
-58.2366
 11
-92.1869
 21
-57.9464
  0
LINE
  8
0
 10
-92.1869
 20
-57.9464
 11
-91.9123
 21
-57.6885
  0
LINE
  8
0
 10
-91.9123
 20
-57.6885
 11
-91.6075
 21
-57.467
  0
LINE
  8
0
 10
-91.6075
 20
-57.467
 11
-91.2773
 21
-57.2855
  0
LINE
  8
0
 10
-91.2773
 20
-57.2855
 11
-90.927
 21
-57.1468
  0
LINE
  8
0
 10
-90.927
 20
-57.1468
 11
-90.5621
 21
-57.0531
  0
LINE
  8
0
 10
-90.5621
 20
-57.0531
 11
-90.1884
 21
-57.0059
  0
LINE
  8
0
 10
-90.1884
 20
-57.0059
 11
-89.8116
 21
-57.0059
  0
LINE
  8
0
 10
-89.8116
 20
-57.0059
 11
-89.4379
 21
-57.0531
  0
LINE
  8
0
 10
-89.4379
 20
-57.0531
 11
-89.073
 21
-57.1468
  0
LINE
  8
0
 10
-89.073
 20
-57.1468
 11
-88.7227
 21
-57.2855
  0
LINE
  8
0
 10
-88.7227
 20
-57.2855
 11
-88.3925
 21
-57.467
  0
LINE
  8
0
 10
-88.3925
 20
-57.467
 11
-88.0877
 21
-57.6885
  0
LINE
  8
0
 10
-88.0877
 20
-57.6885
 11
-87.8131
 21
-57.9464
  0
LINE
  8
0
 10
-87.8131
 20
-57.9464
 11
-87.573
 21
-58.2366
  0
LINE
  8
0
 10
-87.573
 20
-58.2366
 11
-87.3711
 21
-58.5547
  0
LINE
  8
0
 10
-87.3711
 20
-58.5547
 11
-87.2107
 21
-58.8956
  0
LINE
  8
0
 10
-87.2107
 20
-58.8956
 11
-87.0943
 21
-59.2539
  0
LINE
  8
0
 10
-87.0943
 20
-59.2539
 11
-87.0237
 21
-59.624
  0
LINE
  8
0
 10
-87.0237
 20
-59.624
 11
-87
 21
-60
  0
LINE
  8
0
 10
-87
 20
-60
 11
-87.0237
 21
-60.376
  0
LINE
  8
0
 10
-87.0237
 20
-60.376
 11
-87.0943
 21
-60.7461
  0
LINE
  8
0
 10
-87.0943
 20
-60.7461
 11
-87.2107
 21
-61.1044
  0
LINE
  8
0
 10
-87.2107
 20
-61.1044
 11
-87.3711
 21
-61.4453
  0
LINE
  8
0
 10
-87.3711
 20
-61.4453
 11
-87.573
 21
-61.7634
  0
LINE
  8
0
 10
-87.573
 20
-61.7634
 11
-87.8131
 21
-62.0536
  0
LINE
  8
0
 10
-87.8131
 20
-62.0536
 11
-88.0877
 21
-62.3115
  0
LINE
  8
0
 10
-88.0877
 20
-62.3115
 11
-88.3925
 21
-62.533
  0
LINE
  8
0
 10
-88.3925
 20
-62.533
 11
-88.7227
 21
-62.7145
  0
LINE
  8
0
 10
-88.7227
 20
-62.7145
 11
-89.073
 21
-62.8532
  0
LINE
  8
0
 10
-89.073
 20
-62.8532
 11
-89.4379
 21
-62.9469
  0
LINE
  8
0
 10
-89.4379
 20
-62.9469
 11
-89.8116
 21
-62.9941
  0
LINE
  8
0
 10
-89.8116
 20
-62.9941
 11
-90.1884
 21
-62.9941
  0
LINE
  8
0
 10
-90.0942
 20
-68.997
 11
-90.2811
 21
-68.9734
  0
LINE
  8
0
 10
-90.2811
 20
-68.9734
 11
-90.4635
 21
-68.9266
  0
LINE
  8
0
 10
-90.4635
 20
-68.9266
 11
-90.6387
 21
-68.8572
  0
LINE
  8
0
 10
-90.6387
 20
-68.8572
 11
-90.8037
 21
-68.7665
  0
LINE
  8
0
 10
-90.8037
 20
-68.7665
 11
-90.9561
 21
-68.6558
  0
LINE
  8
0
 10
-90.9561
 20
-68.6558
 11
-91.0934
 21
-68.5268
  0
LINE
  8
0
 10
-91.0934
 20
-68.5268
 11
-91.2135
 21
-68.3817
  0
LINE
  8
0
 10
-91.2135
 20
-68.3817
 11
-91.3145
 21
-68.2226
  0
LINE
  8
0
 10
-91.3145
 20
-68.2226
 11
-91.3947
 21
-68.0522
  0
LINE
  8
0
 10
-91.3947
 20
-68.0522
 11
-91.4529
 21
-67.873
  0
LINE
  8
0
 10
-91.4529
 20
-67.873
 11
-91.4882
 21
-67.688
  0
LINE
  8
0
 10
-91.4882
 20
-67.688
 11
-91.5
 21
-67.5
  0
LINE
  8
0
 10
-91.5
 20
-67.5
 11
-91.4882
 21
-67.312
  0
LINE
  8
0
 10
-91.4882
 20
-67.312
 11
-91.4529
 21
-67.127
  0
LINE
  8
0
 10
-91.4529
 20
-67.127
 11
-91.3947
 21
-66.9478
  0
LINE
  8
0
 10
-91.3947
 20
-66.9478
 11
-91.3145
 21
-66.7774
  0
LINE
  8
0
 10
-91.3145
 20
-66.7774
 11
-91.2135
 21
-66.6183
  0
LINE
  8
0
 10
-91.2135
 20
-66.6183
 11
-91.0934
 21
-66.4732
  0
LINE
  8
0
 10
-91.0934
 20
-66.4732
 11
-90.9561
 21
-66.3442
  0
LINE
  8
0
 10
-90.9561
 20
-66.3442
 11
-90.8037
 21
-66.2335
  0
LINE
  8
0
 10
-90.8037
 20
-66.2335
 11
-90.6387
 21
-66.1428
  0
LINE
  8
0
 10
-90.6387
 20
-66.1428
 11
-90.4635
 21
-66.0734
  0
LINE
  8
0
 10
-90.4635
 20
-66.0734
 11
-90.2811
 21
-66.0266
  0
LINE
  8
0
 10
-90.2811
 20
-66.0266
 11
-90.0942
 21
-66.003
  0
LINE
  8
0
 10
-90.0942
 20
-66.003
 11
-89.9058
 21
-66.003
  0
LINE
  8
0
 10
-89.9058
 20
-66.003
 11
-89.7189
 21
-66.0266
  0
LINE
  8
0
 10
-89.7189
 20
-66.0266
 11
-89.5365
 21
-66.0734
  0
LINE
  8
0
 10
-89.5365
 20
-66.0734
 11
-89.3613
 21
-66.1428
  0
LINE
  8
0
 10
-89.3613
 20
-66.1428
 11
-89.1963
 21
-66.2335
  0
LINE
  8
0
 10
-89.1963
 20
-66.2335
 11
-89.0439
 21
-66.3442
  0
LINE
  8
0
 10
-89.0439
 20
-66.3442
 11
-88.9065
 21
-66.4732
  0
LINE
  8
0
 10
-88.9065
 20
-66.4732
 11
-88.7865
 21
-66.6183
  0
LINE
  8
0
 10
-88.7865
 20
-66.6183
 11
-88.6855
 21
-66.7774
  0
LINE
  8
0
 10
-88.6855
 20
-66.7774
 11
-88.6053
 21
-66.9478
  0
LINE
  8
0
 10
-88.6053
 20
-66.9478
 11
-88.5471
 21
-67.127
  0
LINE
  8
0
 10
-88.5471
 20
-67.127
 11
-88.5118
 21
-67.312
  0
LINE
  8
0
 10
-88.5118
 20
-67.312
 11
-88.5
 21
-67.5
  0
LINE
  8
0
 10
-88.5
 20
-67.5
 11
-88.5118
 21
-67.688
  0
LINE
  8
0
 10
-88.5118
 20
-67.688
 11
-88.5471
 21
-67.873
  0
LINE
  8
0
 10
-88.5471
 20
-67.873
 11
-88.6053
 21
-68.0522
  0
LINE
  8
0
 10
-88.6053
 20
-68.0522
 11
-88.6855
 21
-68.2226
  0
LINE
  8
0
 10
-88.6855
 20
-68.2226
 11
-88.7865
 21
-68.3817
  0
LINE
  8
0
 10
-88.7865
 20
-68.3817
 11
-88.9065
 21
-68.5268
  0
LINE
  8
0
 10
-88.9065
 20
-68.5268
 11
-89.0439
 21
-68.6558
  0
LINE
  8
0
 10
-89.0439
 20
-68.6558
 11
-89.1963
 21
-68.7665
  0
LINE
  8
0
 10
-89.1963
 20
-68.7665
 11
-89.3613
 21
-68.8572
  0
LINE
  8
0
 10
-89.3613
 20
-68.8572
 11
-89.5365
 21
-68.9266
  0
LINE
  8
0
 10
-89.5365
 20
-68.9266
 11
-89.7189
 21
-68.9734
  0
LINE
  8
0
 10
-89.7189
 20
-68.9734
 11
-89.9058
 21
-68.997
  0
LINE
  8
0
 10
-89.9058
 20
-68.997
 11
-90.0942
 21
-68.997
  0
LINE
  8
0
 10
-90.1884
 20
-77.9941
 11
-90.5621
 21
-77.9469
  0
LINE
  8
0
 10
-90.5621
 20
-77.9469
 11
-90.927
 21
-77.8532
  0
LINE
  8
0
 10
-90.927
 20
-77.8532
 11
-91.2773
 21
-77.7145
  0
LINE
  8
0
 10
-91.2773
 20
-77.7145
 11
-91.6075
 21
-77.533
  0
LINE
  8
0
 10
-91.6075
 20
-77.533
 11
-91.9123
 21
-77.3115
  0
LINE
  8
0
 10
-91.9123
 20
-77.3115
 11
-92.1869
 21
-77.0536
  0
LINE
  8
0
 10
-92.1869
 20
-77.0536
 11
-92.427
 21
-76.7634
  0
LINE
  8
0
 10
-92.427
 20
-76.7634
 11
-92.6289
 21
-76.4453
  0
LINE
  8
0
 10
-92.6289
 20
-76.4453
 11
-92.7893
 21
-76.1044
  0
LINE
  8
0
 10
-92.7893
 20
-76.1044
 11
-92.9057
 21
-75.7461
  0
LINE
  8
0
 10
-92.9057
 20
-75.7461
 11
-92.9763
 21
-75.376
  0
LINE
  8
0
 10
-92.9763
 20
-75.376
 11
-93
 21
-75
  0
LINE
  8
0
 10
-93
 20
-75
 11
-92.9763
 21
-74.624
  0
LINE
  8
0
 10
-92.9763
 20
-74.624
 11
-92.9057
 21
-74.2539
  0
LINE
  8
0
 10
-92.9057
 20
-74.2539
 11
-92.7893
 21
-73.8956
  0
LINE
  8
0
 10
-92.7893
 20
-73.8956
 11
-92.6289
 21
-73.5547
  0
LINE
  8
0
 10
-92.6289
 20
-73.5547
 11
-92.427
 21
-73.2366
  0
LINE
  8
0
 10
-92.427
 20
-73.2366
 11
-92.1869
 21
-72.9464
  0
LINE
  8
0
 10
-92.1869
 20
-72.9464
 11
-91.9123
 21
-72.6885
  0
LINE
  8
0
 10
-91.9123
 20
-72.6885
 11
-91.6075
 21
-72.467
  0
LINE
  8
0
 10
-91.6075
 20
-72.467
 11
-91.2773
 21
-72.2855
  0
LINE
  8
0
 10
-91.2773
 20
-72.2855
 11
-90.927
 21
-72.1468
  0
LINE
  8
0
 10
-90.927
 20
-72.1468
 11
-90.5621
 21
-72.0531
  0
LINE
  8
0
 10
-90.5621
 20
-72.0531
 11
-90.1884
 21
-72.0059
  0
LINE
  8
0
 10
-90.1884
 20
-72.0059
 11
-89.8116
 21
-72.0059
  0
LINE
  8
0
 10
-89.8116
 20
-72.0059
 11
-89.4379
 21
-72.0531
  0
LINE
  8
0
 10
-89.4379
 20
-72.0531
 11
-89.073
 21
-72.1468
  0
LINE
  8
0
 10
-89.073
 20
-72.1468
 11
-88.7227
 21
-72.2855
  0
LINE
  8
0
 10
-88.7227
 20
-72.2855
 11
-88.3925
 21
-72.467
  0
LINE
  8
0
 10
-88.3925
 20
-72.467
 11
-88.0877
 21
-72.6885
  0
LINE
  8
0
 10
-88.0877
 20
-72.6885
 11
-87.8131
 21
-72.9464
  0
LINE
  8
0
 10
-87.8131
 20
-72.9464
 11
-87.573
 21
-73.2366
  0
LINE
  8
0
 10
-87.573
 20
-73.2366
 11
-87.3711
 21
-73.5547
  0
LINE
  8
0
 10
-87.3711
 20
-73.5547
 11
-87.2107
 21
-73.8956
  0
LINE
  8
0
 10
-87.2107
 20
-73.8956
 11
-87.0943
 21
-74.2539
  0
LINE
  8
0
 10
-87.0943
 20
-74.2539
 11
-87.0237
 21
-74.624
  0
LINE
  8
0
 10
-87.0237
 20
-74.624
 11
-87
 21
-75
  0
LINE
  8
0
 10
-87
 20
-75
 11
-87.0237
 21
-75.376
  0
LINE
  8
0
 10
-87.0237
 20
-75.376
 11
-87.0943
 21
-75.7461
  0
LINE
  8
0
 10
-87.0943
 20
-75.7461
 11
-87.2107
 21
-76.1044
  0
LINE
  8
0
 10
-87.2107
 20
-76.1044
 11
-87.3711
 21
-76.4453
  0
LINE
  8
0
 10
-87.3711
 20
-76.4453
 11
-87.573
 21
-76.7634
  0
LINE
  8
0
 10
-87.573
 20
-76.7634
 11
-87.8131
 21
-77.0536
  0
LINE
  8
0
 10
-87.8131
 20
-77.0536
 11
-88.0877
 21
-77.3115
  0
LINE
  8
0
 10
-88.0877
 20
-77.3115
 11
-88.3925
 21
-77.533
  0
LINE
  8
0
 10
-88.3925
 20
-77.533
 11
-88.7227
 21
-77.7145
  0
LINE
  8
0
 10
-88.7227
 20
-77.7145
 11
-89.073
 21
-77.8532
  0
LINE
  8
0
 10
-89.073
 20
-77.8532
 11
-89.4379
 21
-77.9469
  0
LINE
  8
0
 10
-89.4379
 20
-77.9469
 11
-89.8116
 21
-77.9941
  0
LINE
  8
0
 10
-89.8116
 20
-77.9941
 11
-90.1884
 21
-77.9941
  0
LINE
  8
0
 10
-90.0942
 20
-83.997
 11
-90.2811
 21
-83.9734
  0
LINE
  8
0
 10
-90.2811
 20
-83.9734
 11
-90.4635
 21
-83.9266
  0
LINE
  8
0
 10
-90.4635
 20
-83.9266
 11
-90.6387
 21
-83.8572
  0
LINE
  8
0
 10
-90.6387
 20
-83.8572
 11
-90.8037
 21
-83.7665
  0
LINE
  8
0
 10
-90.8037
 20
-83.7665
 11
-90.9561
 21
-83.6558
  0
LINE
  8
0
 10
-90.9561
 20
-83.6558
 11
-91.0934
 21
-83.5268
  0
LINE
  8
0
 10
-91.0934
 20
-83.5268
 11
-91.2135
 21
-83.3817
  0
LINE
  8
0
 10
-91.2135
 20
-83.3817
 11
-91.3145
 21
-83.2226
  0
LINE
  8
0
 10
-91.3145
 20
-83.2226
 11
-91.3947
 21
-83.0522
  0
LINE
  8
0
 10
-91.3947
 20
-83.0522
 11
-91.4529
 21
-82.873
  0
LINE
  8
0
 10
-91.4529
 20
-82.873
 11
-91.4882
 21
-82.688
  0
LINE
  8
0
 10
-91.4882
 20
-82.688
 11
-91.5
 21
-82.5
  0
LINE
  8
0
 10
-91.5
 20
-82.5
 11
-91.4882
 21
-82.312
  0
LINE
  8
0
 10
-91.4882
 20
-82.312
 11
-91.4529
 21
-82.127
  0
LINE
  8
0
 10
-91.4529
 20
-82.127
 11
-91.3947
 21
-81.9478
  0
LINE
  8
0
 10
-91.3947
 20
-81.9478
 11
-91.3145
 21
-81.7774
  0
LINE
  8
0
 10
-91.3145
 20
-81.7774
 11
-91.2135
 21
-81.6183
  0
LINE
  8
0
 10
-91.2135
 20
-81.6183
 11
-91.0934
 21
-81.4732
  0
LINE
  8
0
 10
-91.0934
 20
-81.4732
 11
-90.9561
 21
-81.3442
  0
LINE
  8
0
 10
-90.9561
 20
-81.3442
 11
-90.8037
 21
-81.2335
  0
LINE
  8
0
 10
-90.8037
 20
-81.2335
 11
-90.6387
 21
-81.1428
  0
LINE
  8
0
 10
-90.6387
 20
-81.1428
 11
-90.4635
 21
-81.0734
  0
LINE
  8
0
 10
-90.4635
 20
-81.0734
 11
-90.2811
 21
-81.0266
  0
LINE
  8
0
 10
-90.2811
 20
-81.0266
 11
-90.0942
 21
-81.003
  0
LINE
  8
0
 10
-90.0942
 20
-81.003
 11
-89.9058
 21
-81.003
  0
LINE
  8
0
 10
-89.9058
 20
-81.003
 11
-89.7189
 21
-81.0266
  0
LINE
  8
0
 10
-89.7189
 20
-81.0266
 11
-89.5365
 21
-81.0734
  0
LINE
  8
0
 10
-89.5365
 20
-81.0734
 11
-89.3613
 21
-81.1428
  0
LINE
  8
0
 10
-89.3613
 20
-81.1428
 11
-89.1963
 21
-81.2335
  0
LINE
  8
0
 10
-89.1963
 20
-81.2335
 11
-89.0439
 21
-81.3442
  0
LINE
  8
0
 10
-89.0439
 20
-81.3442
 11
-88.9065
 21
-81.4732
  0
LINE
  8
0
 10
-88.9065
 20
-81.4732
 11
-88.7865
 21
-81.6183
  0
LINE
  8
0
 10
-88.7865
 20
-81.6183
 11
-88.6855
 21
-81.7774
  0
LINE
  8
0
 10
-88.6855
 20
-81.7774
 11
-88.6053
 21
-81.9478
  0
LINE
  8
0
 10
-88.6053
 20
-81.9478
 11
-88.5471
 21
-82.127
  0
LINE
  8
0
 10
-88.5471
 20
-82.127
 11
-88.5118
 21
-82.312
  0
LINE
  8
0
 10
-88.5118
 20
-82.312
 11
-88.5
 21
-82.5
  0
LINE
  8
0
 10
-88.5
 20
-82.5
 11
-88.5118
 21
-82.688
  0
LINE
  8
0
 10
-88.5118
 20
-82.688
 11
-88.5471
 21
-82.873
  0
LINE
  8
0
 10
-88.5471
 20
-82.873
 11
-88.6053
 21
-83.0522
  0
LINE
  8
0
 10
-88.6053
 20
-83.0522
 11
-88.6855
 21
-83.2226
  0
LINE
  8
0
 10
-88.6855
 20
-83.2226
 11
-88.7865
 21
-83.3817
  0
LINE
  8
0
 10
-88.7865
 20
-83.3817
 11
-88.9065
 21
-83.5268
  0
LINE
  8
0
 10
-88.9065
 20
-83.5268
 11
-89.0439
 21
-83.6558
  0
LINE
  8
0
 10
-89.0439
 20
-83.6558
 11
-89.1963
 21
-83.7665
  0
LINE
  8
0
 10
-89.1963
 20
-83.7665
 11
-89.3613
 21
-83.8572
  0
LINE
  8
0
 10
-89.3613
 20
-83.8572
 11
-89.5365
 21
-83.9266
  0
LINE
  8
0
 10
-89.5365
 20
-83.9266
 11
-89.7189
 21
-83.9734
  0
LINE
  8
0
 10
-89.7189
 20
-83.9734
 11
-89.9058
 21
-83.997
  0
LINE
  8
0
 10
-89.9058
 20
-83.997
 11
-90.0942
 21
-83.997
  0
LINE
  8
0
 10
-90.1884
 20
-92.9941
 11
-90.5621
 21
-92.9469
  0
LINE
  8
0
 10
-90.5621
 20
-92.9469
 11
-90.927
 21
-92.8532
  0
LINE
  8
0
 10
-90.927
 20
-92.8532
 11
-91.2773
 21
-92.7145
  0
LINE
  8
0
 10
-91.2773
 20
-92.7145
 11
-91.6075
 21
-92.533
  0
LINE
  8
0
 10
-91.6075
 20
-92.533
 11
-91.9123
 21
-92.3115
  0
LINE
  8
0
 10
-91.9123
 20
-92.3115
 11
-92.1869
 21
-92.0536
  0
LINE
  8
0
 10
-92.1869
 20
-92.0536
 11
-92.427
 21
-91.7634
  0
LINE
  8
0
 10
-92.427
 20
-91.7634
 11
-92.6289
 21
-91.4453
  0
LINE
  8
0
 10
-92.6289
 20
-91.4453
 11
-92.7893
 21
-91.1044
  0
LINE
  8
0
 10
-92.7893
 20
-91.1044
 11
-92.9057
 21
-90.7461
  0
LINE
  8
0
 10
-92.9057
 20
-90.7461
 11
-92.9763
 21
-90.376
  0
LINE
  8
0
 10
-92.9763
 20
-90.376
 11
-93
 21
-90
  0
LINE
  8
0
 10
-93
 20
-90
 11
-92.9763
 21
-89.624
  0
LINE
  8
0
 10
-92.9763
 20
-89.624
 11
-92.9057
 21
-89.2539
  0
LINE
  8
0
 10
-92.9057
 20
-89.2539
 11
-92.7893
 21
-88.8956
  0
LINE
  8
0
 10
-92.7893
 20
-88.8956
 11
-92.6289
 21
-88.5547
  0
LINE
  8
0
 10
-92.6289
 20
-88.5547
 11
-92.427
 21
-88.2366
  0
LINE
  8
0
 10
-92.427
 20
-88.2366
 11
-92.1869
 21
-87.9464
  0
LINE
  8
0
 10
-92.1869
 20
-87.9464
 11
-91.9123
 21
-87.6885
  0
LINE
  8
0
 10
-91.9123
 20
-87.6885
 11
-91.6075
 21
-87.467
  0
LINE
  8
0
 10
-91.6075
 20
-87.467
 11
-91.2773
 21
-87.2855
  0
LINE
  8
0
 10
-91.2773
 20
-87.2855
 11
-90.927
 21
-87.1468
  0
LINE
  8
0
 10
-90.927
 20
-87.1468
 11
-90.5621
 21
-87.0531
  0
LINE
  8
0
 10
-90.5621
 20
-87.0531
 11
-90.1884
 21
-87.0059
  0
LINE
  8
0
 10
-90.1884
 20
-87.0059
 11
-89.8116
 21
-87.0059
  0
LINE
  8
0
 10
-89.8116
 20
-87.0059
 11
-89.4379
 21
-87.0531
  0
LINE
  8
0
 10
-89.4379
 20
-87.0531
 11
-89.073
 21
-87.1468
  0
LINE
  8
0
 10
-89.073
 20
-87.1468
 11
-88.7227
 21
-87.2855
  0
LINE
  8
0
 10
-88.7227
 20
-87.2855
 11
-88.3925
 21
-87.467
  0
LINE
  8
0
 10
-88.3925
 20
-87.467
 11
-88.0877
 21
-87.6885
  0
LINE
  8
0
 10
-88.0877
 20
-87.6885
 11
-87.8131
 21
-87.9464
  0
LINE
  8
0
 10
-87.8131
 20
-87.9464
 11
-87.573
 21
-88.2366
  0
LINE
  8
0
 10
-87.573
 20
-88.2366
 11
-87.3711
 21
-88.5547
  0
LINE
  8
0
 10
-87.3711
 20
-88.5547
 11
-87.2107
 21
-88.8956
  0
LINE
  8
0
 10
-87.2107
 20
-88.8956
 11
-87.0943
 21
-89.2539
  0
LINE
  8
0
 10
-87.0943
 20
-89.2539
 11
-87.0237
 21
-89.624
  0
LINE
  8
0
 10
-87.0237
 20
-89.624
 11
-87
 21
-90
  0
LINE
  8
0
 10
-87
 20
-90
 11
-87.0237
 21
-90.376
  0
LINE
  8
0
 10
-87.0237
 20
-90.376
 11
-87.0943
 21
-90.7461
  0
LINE
  8
0
 10
-87.0943
 20
-90.7461
 11
-87.2107
 21
-91.1044
  0
LINE
  8
0
 10
-87.2107
 20
-91.1044
 11
-87.3711
 21
-91.4453
  0
LINE
  8
0
 10
-87.3711
 20
-91.4453
 11
-87.573
 21
-91.7634
  0
LINE
  8
0
 10
-87.573
 20
-91.7634
 11
-87.8131
 21
-92.0536
  0
LINE
  8
0
 10
-87.8131
 20
-92.0536
 11
-88.0877
 21
-92.3115
  0
LINE
  8
0
 10
-88.0877
 20
-92.3115
 11
-88.3925
 21
-92.533
  0
LINE
  8
0
 10
-88.3925
 20
-92.533
 11
-88.7227
 21
-92.7145
  0
LINE
  8
0
 10
-88.7227
 20
-92.7145
 11
-89.073
 21
-92.8532
  0
LINE
  8
0
 10
-89.073
 20
-92.8532
 11
-89.4379
 21
-92.9469
  0
LINE
  8
0
 10
-89.4379
 20
-92.9469
 11
-89.8116
 21
-92.9941
  0
LINE
  8
0
 10
-89.8116
 20
-92.9941
 11
-90.1884
 21
-92.9941
  0
ENDSEC
  0
SECTION
  2
OBJECTS
  0
DICTIONARY
  0
ENDSEC
  0
EOF
