  0
SECTION
  2
BLOCKS
  0
ENDSEC
  0
SECTION
  2
ENTITIES
  0
LINE
  8
0
 10
92.9369
 20
-21.9114
 11
93.5451
 21
-21.7553
  0
LINE
  8
0
 10
93.5451
 20
-21.7553
 11
94.1289
 21
-21.5241
  0
LINE
  8
0
 10
94.1289
 20
-21.5241
 11
94.6791
 21
-21.2216
  0
LINE
  8
0
 10
94.6791
 20
-21.2216
 11
95.1871
 21
-20.8526
  0
LINE
  8
0
 10
95.1871
 20
-20.8526
 11
95.6448
 21
-20.4227
  0
LINE
  8
0
 10
95.6448
 20
-20.4227
 11
96.0451
 21
-19.9389
  0
LINE
  8
0
 10
96.0451
 20
-19.9389
 11
96.3815
 21
-19.4088
  0
LINE
  8
0
 10
96.3815
 20
-19.4088
 11
96.6489
 21
-18.8406
  0
LINE
  8
0
 10
96.6489
 20
-18.8406
 11
96.8429
 21
-18.2434
  0
LINE
  8
0
 10
96.8429
 20
-18.2434
 11
96.9606
 21
-17.6267
  0
LINE
  8
0
 10
96.9606
 20
-17.6267
 11
97
 21
-17
  0
LINE
  8
0
 10
97
 20
-17
 11
97
 21
17
  0
LINE
  8
0
 10
97
 20
17
 11
96.9606
 21
17.6267
  0
LINE
  8
0
 10
96.9606
 20
17.6267
 11
96.8429
 21
18.2434
  0
LINE
  8
0
 10
96.8429
 20
18.2434
 11
96.6489
 21
18.8406
  0
LINE
  8
0
 10
96.6489
 20
18.8406
 11
96.3815
 21
19.4088
  0
LINE
  8
0
 10
96.3815
 20
19.4088
 11
96.0451
 21
19.9389
  0
LINE
  8
0
 10
96.0451
 20
19.9389
 11
95.6448
 21
20.4227
  0
LINE
  8
0
 10
95.6448
 20
20.4227
 11
95.1871
 21
20.8526
  0
LINE
  8
0
 10
95.1871
 20
20.8526
 11
94.6791
 21
21.2216
  0
LINE
  8
0
 10
94.6791
 20
21.2216
 11
94.1289
 21
21.5241
  0
LINE
  8
0
 10
94.1289
 20
21.5241
 11
93.5451
 21
21.7553
  0
LINE
  8
0
 10
93.5451
 20
21.7553
 11
92.9369
 21
21.9114
  0
LINE
  8
0
 10
92.9369
 20
21.9114
 11
92.3139
 21
21.9901
  0
LINE
  8
0
 10
92.3139
 20
21.9901
 11
-92.3139
 21
21.9901
  0
LINE
  8
0
 10
-92.3139
 20
21.9901
 11
-92.9369
 21
21.9114
  0
LINE
  8
0
 10
-92.9369
 20
21.9114
 11
-93.5451
 21
21.7553
  0
LINE
  8
0
 10
-93.5451
 20
21.7553
 11
-94.1289
 21
21.5241
  0
LINE
  8
0
 10
-94.1289
 20
21.5241
 11
-94.6791
 21
21.2216
  0
LINE
  8
0
 10
-94.6791
 20
21.2216
 11
-95.1871
 21
20.8526
  0
LINE
  8
0
 10
-95.1871
 20
20.8526
 11
-95.6448
 21
20.4227
  0
LINE
  8
0
 10
-95.6448
 20
20.4227
 11
-96.0451
 21
19.9389
  0
LINE
  8
0
 10
-96.0451
 20
19.9389
 11
-96.3815
 21
19.4088
  0
LINE
  8
0
 10
-96.3815
 20
19.4088
 11
-96.6489
 21
18.8406
  0
LINE
  8
0
 10
-96.6489
 20
18.8406
 11
-96.8429
 21
18.2434
  0
LINE
  8
0
 10
-96.8429
 20
18.2434
 11
-96.9606
 21
17.6267
  0
LINE
  8
0
 10
-96.9606
 20
17.6267
 11
-97
 21
17
  0
LINE
  8
0
 10
-97
 20
17
 11
-97
 21
-17
  0
LINE
  8
0
 10
-97
 20
-17
 11
-96.9606
 21
-17.6267
  0
LINE
  8
0
 10
-96.9606
 20
-17.6267
 11
-96.8429
 21
-18.2434
  0
LINE
  8
0
 10
-96.8429
 20
-18.2434
 11
-96.6489
 21
-18.8406
  0
LINE
  8
0
 10
-96.6489
 20
-18.8406
 11
-96.3815
 21
-19.4088
  0
LINE
  8
0
 10
-96.3815
 20
-19.4088
 11
-96.0451
 21
-19.9389
  0
LINE
  8
0
 10
-96.0451
 20
-19.9389
 11
-95.6448
 21
-20.4227
  0
LINE
  8
0
 10
-95.6448
 20
-20.4227
 11
-95.1871
 21
-20.8526
  0
LINE
  8
0
 10
-95.1871
 20
-20.8526
 11
-94.6791
 21
-21.2216
  0
LINE
  8
0
 10
-94.6791
 20
-21.2216
 11
-94.1289
 21
-21.5241
  0
LINE
  8
0
 10
-94.1289
 20
-21.5241
 11
-93.5451
 21
-21.7553
  0
LINE
  8
0
 10
-93.5451
 20
-21.7553
 11
-92.9369
 21
-21.9114
  0
LINE
  8
0
 10
-92.9369
 20
-21.9114
 11
-92.3139
 21
-21.9901
  0
LINE
  8
0
 10
-92.3139
 20
-21.9901
 11
92.3139
 21
-21.9901
  0
LINE
  8
0
 10
92.3139
 20
-21.9901
 11
92.9369
 21
-21.9114
  0
LINE
  8
0
 10
87.0237
 20
15.376
 11
87.0943
 21
15.7461
  0
LINE
  8
0
 10
87.0943
 20
15.7461
 11
87.2107
 21
16.1044
  0
LINE
  8
0
 10
87.2107
 20
16.1044
 11
87.3711
 21
16.4453
  0
LINE
  8
0
 10
87.3711
 20
16.4453
 11
87.573
 21
16.7634
  0
LINE
  8
0
 10
87.573
 20
16.7634
 11
87.8131
 21
17.0536
  0
LINE
  8
0
 10
87.8131
 20
17.0536
 11
88.0877
 21
17.3115
  0
LINE
  8
0
 10
88.0877
 20
17.3115
 11
88.3925
 21
17.533
  0
LINE
  8
0
 10
88.3925
 20
17.533
 11
88.7227
 21
17.7145
  0
LINE
  8
0
 10
88.7227
 20
17.7145
 11
89.073
 21
17.8532
  0
LINE
  8
0
 10
89.073
 20
17.8532
 11
89.4379
 21
17.9469
  0
LINE
  8
0
 10
89.4379
 20
17.9469
 11
89.8116
 21
17.9941
  0
LINE
  8
0
 10
89.8116
 20
17.9941
 11
90.1884
 21
17.9941
  0
LINE
  8
0
 10
90.1884
 20
17.9941
 11
90.5621
 21
17.9469
  0
LINE
  8
0
 10
90.5621
 20
17.9469
 11
90.927
 21
17.8532
  0
LINE
  8
0
 10
90.927
 20
17.8532
 11
91.2773
 21
17.7145
  0
LINE
  8
0
 10
91.2773
 20
17.7145
 11
91.6075
 21
17.533
  0
LINE
  8
0
 10
91.6075
 20
17.533
 11
91.9123
 21
17.3115
  0
LINE
  8
0
 10
91.9123
 20
17.3115
 11
92.1869
 21
17.0536
  0
LINE
  8
0
 10
92.1869
 20
17.0536
 11
92.427
 21
16.7634
  0
LINE
  8
0
 10
92.427
 20
16.7634
 11
92.6289
 21
16.4453
  0
LINE
  8
0
 10
92.6289
 20
16.4453
 11
92.7893
 21
16.1044
  0
LINE
  8
0
 10
92.7893
 20
16.1044
 11
92.9057
 21
15.7461
  0
LINE
  8
0
 10
92.9057
 20
15.7461
 11
92.9763
 21
15.376
  0
LINE
  8
0
 10
92.9763
 20
15.376
 11
93
 21
15
  0
LINE
  8
0
 10
93
 20
15
 11
92.9763
 21
14.624
  0
LINE
  8
0
 10
92.9763
 20
14.624
 11
92.9057
 21
14.2539
  0
LINE
  8
0
 10
92.9057
 20
14.2539
 11
92.7893
 21
13.8956
  0
LINE
  8
0
 10
92.7893
 20
13.8956
 11
92.6289
 21
13.5547
  0
LINE
  8
0
 10
92.6289
 20
13.5547
 11
92.427
 21
13.2366
  0
LINE
  8
0
 10
92.427
 20
13.2366
 11
92.1869
 21
12.9464
  0
LINE
  8
0
 10
92.1869
 20
12.9464
 11
91.9123
 21
12.6884
  0
LINE
  8
0
 10
91.9123
 20
12.6884
 11
91.6075
 21
12.467
  0
LINE
  8
0
 10
91.6075
 20
12.467
 11
91.2773
 21
12.2855
  0
LINE
  8
0
 10
91.2773
 20
12.2855
 11
90.927
 21
12.1468
  0
LINE
  8
0
 10
90.927
 20
12.1468
 11
90.5621
 21
12.0531
  0
LINE
  8
0
 10
90.5621
 20
12.0531
 11
90.1884
 21
12.0059
  0
LINE
  8
0
 10
90.1884
 20
12.0059
 11
89.8116
 21
12.0059
  0
LINE
  8
0
 10
89.8116
 20
12.0059
 11
89.4379
 21
12.0531
  0
LINE
  8
0
 10
89.4379
 20
12.0531
 11
89.073
 21
12.1468
  0
LINE
  8
0
 10
89.073
 20
12.1468
 11
88.7227
 21
12.2855
  0
LINE
  8
0
 10
88.7227
 20
12.2855
 11
88.3925
 21
12.467
  0
LINE
  8
0
 10
88.3925
 20
12.467
 11
88.0877
 21
12.6884
  0
LINE
  8
0
 10
88.0877
 20
12.6884
 11
87.8131
 21
12.9464
  0
LINE
  8
0
 10
87.8131
 20
12.9464
 11
87.573
 21
13.2366
  0
LINE
  8
0
 10
87.573
 20
13.2366
 11
87.3711
 21
13.5547
  0
LINE
  8
0
 10
87.3711
 20
13.5547
 11
87.2107
 21
13.8956
  0
LINE
  8
0
 10
87.2107
 20
13.8956
 11
87.0943
 21
14.2539
  0
LINE
  8
0
 10
87.0943
 20
14.2539
 11
87.0237
 21
14.624
  0
LINE
  8
0
 10
87.0237
 20
14.624
 11
87
 21
15
  0
LINE
  8
0
 10
87
 20
15
 11
87.0237
 21
15.376
  0
LINE
  8
0
 10
-90.1884
 20
-17.9941
 11
-90.5621
 21
-17.9469
  0
LINE
  8
0
 10
-90.5621
 20
-17.9469
 11
-90.927
 21
-17.8532
  0
LINE
  8
0
 10
-90.927
 20
-17.8532
 11
-91.2773
 21
-17.7145
  0
LINE
  8
0
 10
-91.2773
 20
-17.7145
 11
-91.6075
 21
-17.533
  0
LINE
  8
0
 10
-91.6075
 20
-17.533
 11
-91.9123
 21
-17.3115
  0
LINE
  8
0
 10
-91.9123
 20
-17.3115
 11
-92.1869
 21
-17.0536
  0
LINE
  8
0
 10
-92.1869
 20
-17.0536
 11
-92.427
 21
-16.7634
  0
LINE
  8
0
 10
-92.427
 20
-16.7634
 11
-92.6289
 21
-16.4453
  0
LINE
  8
0
 10
-92.6289
 20
-16.4453
 11
-92.7893
 21
-16.1044
  0
LINE
  8
0
 10
-92.7893
 20
-16.1044
 11
-92.9057
 21
-15.7461
  0
LINE
  8
0
 10
-92.9057
 20
-15.7461
 11
-92.9763
 21
-15.376
  0
LINE
  8
0
 10
-92.9763
 20
-15.376
 11
-93
 21
-15
  0
LINE
  8
0
 10
-93
 20
-15
 11
-92.9763
 21
-14.624
  0
LINE
  8
0
 10
-92.9763
 20
-14.624
 11
-92.9057
 21
-14.2539
  0
LINE
  8
0
 10
-92.9057
 20
-14.2539
 11
-92.7893
 21
-13.8956
  0
LINE
  8
0
 10
-92.7893
 20
-13.8956
 11
-92.6289
 21
-13.5547
  0
LINE
  8
0
 10
-92.6289
 20
-13.5547
 11
-92.427
 21
-13.2366
  0
LINE
  8
0
 10
-92.427
 20
-13.2366
 11
-92.1869
 21
-12.9464
  0
LINE
  8
0
 10
-92.1869
 20
-12.9464
 11
-91.9123
 21
-12.6884
  0
LINE
  8
0
 10
-91.9123
 20
-12.6884
 11
-91.6075
 21
-12.467
  0
LINE
  8
0
 10
-91.6075
 20
-12.467
 11
-91.2773
 21
-12.2855
  0
LINE
  8
0
 10
-91.2773
 20
-12.2855
 11
-90.927
 21
-12.1468
  0
LINE
  8
0
 10
-90.927
 20
-12.1468
 11
-90.5621
 21
-12.0531
  0
LINE
  8
0
 10
-90.5621
 20
-12.0531
 11
-90.1884
 21
-12.0059
  0
LINE
  8
0
 10
-90.1884
 20
-12.0059
 11
-89.8116
 21
-12.0059
  0
LINE
  8
0
 10
-89.8116
 20
-12.0059
 11
-89.4379
 21
-12.0531
  0
LINE
  8
0
 10
-89.4379
 20
-12.0531
 11
-89.073
 21
-12.1468
  0
LINE
  8
0
 10
-89.073
 20
-12.1468
 11
-88.7227
 21
-12.2855
  0
LINE
  8
0
 10
-88.7227
 20
-12.2855
 11
-88.3925
 21
-12.467
  0
LINE
  8
0
 10
-88.3925
 20
-12.467
 11
-88.0877
 21
-12.6884
  0
LINE
  8
0
 10
-88.0877
 20
-12.6884
 11
-87.8131
 21
-12.9464
  0
LINE
  8
0
 10
-87.8131
 20
-12.9464
 11
-87.573
 21
-13.2366
  0
LINE
  8
0
 10
-87.573
 20
-13.2366
 11
-87.3711
 21
-13.5547
  0
LINE
  8
0
 10
-87.3711
 20
-13.5547
 11
-87.2107
 21
-13.8956
  0
LINE
  8
0
 10
-87.2107
 20
-13.8956
 11
-87.0943
 21
-14.2539
  0
LINE
  8
0
 10
-87.0943
 20
-14.2539
 11
-87.0237
 21
-14.624
  0
LINE
  8
0
 10
-87.0237
 20
-14.624
 11
-87
 21
-15
  0
LINE
  8
0
 10
-87
 20
-15
 11
-87.0237
 21
-15.376
  0
LINE
  8
0
 10
-87.0237
 20
-15.376
 11
-87.0943
 21
-15.7461
  0
LINE
  8
0
 10
-87.0943
 20
-15.7461
 11
-87.2107
 21
-16.1044
  0
LINE
  8
0
 10
-87.2107
 20
-16.1044
 11
-87.3711
 21
-16.4453
  0
LINE
  8
0
 10
-87.3711
 20
-16.4453
 11
-87.573
 21
-16.7634
  0
LINE
  8
0
 10
-87.573
 20
-16.7634
 11
-87.8131
 21
-17.0536
  0
LINE
  8
0
 10
-87.8131
 20
-17.0536
 11
-88.0877
 21
-17.3115
  0
LINE
  8
0
 10
-88.0877
 20
-17.3115
 11
-88.3925
 21
-17.533
  0
LINE
  8
0
 10
-88.3925
 20
-17.533
 11
-88.7227
 21
-17.7145
  0
LINE
  8
0
 10
-88.7227
 20
-17.7145
 11
-89.073
 21
-17.8532
  0
LINE
  8
0
 10
-89.073
 20
-17.8532
 11
-89.4379
 21
-17.9469
  0
LINE
  8
0
 10
-89.4379
 20
-17.9469
 11
-89.8116
 21
-17.9941
  0
LINE
  8
0
 10
-89.8116
 20
-17.9941
 11
-90.1884
 21
-17.9941
  0
LINE
  8
0
 10
89.8116
 20
-17.9941
 11
89.4379
 21
-17.9469
  0
LINE
  8
0
 10
89.4379
 20
-17.9469
 11
89.073
 21
-17.8532
  0
LINE
  8
0
 10
89.073
 20
-17.8532
 11
88.7227
 21
-17.7145
  0
LINE
  8
0
 10
88.7227
 20
-17.7145
 11
88.3925
 21
-17.533
  0
LINE
  8
0
 10
88.3925
 20
-17.533
 11
88.0877
 21
-17.3115
  0
LINE
  8
0
 10
88.0877
 20
-17.3115
 11
87.8131
 21
-17.0536
  0
LINE
  8
0
 10
87.8131
 20
-17.0536
 11
87.573
 21
-16.7634
  0
LINE
  8
0
 10
87.573
 20
-16.7634
 11
87.3711
 21
-16.4453
  0
LINE
  8
0
 10
87.3711
 20
-16.4453
 11
87.2107
 21
-16.1044
  0
LINE
  8
0
 10
87.2107
 20
-16.1044
 11
87.0943
 21
-15.7461
  0
LINE
  8
0
 10
87.0943
 20
-15.7461
 11
87.0237
 21
-15.376
  0
LINE
  8
0
 10
87.0237
 20
-15.376
 11
87
 21
-15
  0
LINE
  8
0
 10
87
 20
-15
 11
87.0237
 21
-14.624
  0
LINE
  8
0
 10
87.0237
 20
-14.624
 11
87.0943
 21
-14.2539
  0
LINE
  8
0
 10
87.0943
 20
-14.2539
 11
87.2107
 21
-13.8956
  0
LINE
  8
0
 10
87.2107
 20
-13.8956
 11
87.3711
 21
-13.5547
  0
LINE
  8
0
 10
87.3711
 20
-13.5547
 11
87.573
 21
-13.2366
  0
LINE
  8
0
 10
87.573
 20
-13.2366
 11
87.8131
 21
-12.9464
  0
LINE
  8
0
 10
87.8131
 20
-12.9464
 11
88.0877
 21
-12.6884
  0
LINE
  8
0
 10
88.0877
 20
-12.6884
 11
88.3925
 21
-12.467
  0
LINE
  8
0
 10
88.3925
 20
-12.467
 11
88.7227
 21
-12.2855
  0
LINE
  8
0
 10
88.7227
 20
-12.2855
 11
89.073
 21
-12.1468
  0
LINE
  8
0
 10
89.073
 20
-12.1468
 11
89.4379
 21
-12.0531
  0
LINE
  8
0
 10
89.4379
 20
-12.0531
 11
89.8116
 21
-12.0059
  0
LINE
  8
0
 10
89.8116
 20
-12.0059
 11
90.1884
 21
-12.0059
  0
LINE
  8
0
 10
90.1884
 20
-12.0059
 11
90.5621
 21
-12.0531
  0
LINE
  8
0
 10
90.5621
 20
-12.0531
 11
90.927
 21
-12.1468
  0
LINE
  8
0
 10
90.927
 20
-12.1468
 11
91.2773
 21
-12.2855
  0
LINE
  8
0
 10
91.2773
 20
-12.2855
 11
91.6075
 21
-12.467
  0
LINE
  8
0
 10
91.6075
 20
-12.467
 11
91.9123
 21
-12.6884
  0
LINE
  8
0
 10
91.9123
 20
-12.6884
 11
92.1869
 21
-12.9464
  0
LINE
  8
0
 10
92.1869
 20
-12.9464
 11
92.427
 21
-13.2366
  0
LINE
  8
0
 10
92.427
 20
-13.2366
 11
92.6289
 21
-13.5547
  0
LINE
  8
0
 10
92.6289
 20
-13.5547
 11
92.7893
 21
-13.8956
  0
LINE
  8
0
 10
92.7893
 20
-13.8956
 11
92.9057
 21
-14.2539
  0
LINE
  8
0
 10
92.9057
 20
-14.2539
 11
92.9763
 21
-14.624
  0
LINE
  8
0
 10
92.9763
 20
-14.624
 11
93
 21
-15
  0
LINE
  8
0
 10
93
 20
-15
 11
92.9763
 21
-15.376
  0
LINE
  8
0
 10
92.9763
 20
-15.376
 11
92.9057
 21
-15.7461
  0
LINE
  8
0
 10
92.9057
 20
-15.7461
 11
92.7893
 21
-16.1044
  0
LINE
  8
0
 10
92.7893
 20
-16.1044
 11
92.6289
 21
-16.4453
  0
LINE
  8
0
 10
92.6289
 20
-16.4453
 11
92.427
 21
-16.7634
  0
LINE
  8
0
 10
92.427
 20
-16.7634
 11
92.1869
 21
-17.0536
  0
LINE
  8
0
 10
92.1869
 20
-17.0536
 11
91.9123
 21
-17.3115
  0
LINE
  8
0
 10
91.9123
 20
-17.3115
 11
91.6075
 21
-17.533
  0
LINE
  8
0
 10
91.6075
 20
-17.533
 11
91.2773
 21
-17.7145
  0
LINE
  8
0
 10
91.2773
 20
-17.7145
 11
90.927
 21
-17.8532
  0
LINE
  8
0
 10
90.927
 20
-17.8532
 11
90.5621
 21
-17.9469
  0
LINE
  8
0
 10
90.5621
 20
-17.9469
 11
90.1884
 21
-17.9941
  0
LINE
  8
0
 10
90.1884
 20
-17.9941
 11
89.8116
 21
-17.9941
  0
LINE
  8
0
 10
-87.2107
 20
13.8956
 11
-87.3711
 21
13.5547
  0
LINE
  8
0
 10
-87.3711
 20
13.5547
 11
-87.573
 21
13.2366
  0
LINE
  8
0
 10
-87.573
 20
13.2366
 11
-87.8131
 21
12.9464
  0
LINE
  8
0
 10
-87.8131
 20
12.9464
 11
-88.0877
 21
12.6884
  0
LINE
  8
0
 10
-88.0877
 20
12.6884
 11
-88.3925
 21
12.467
  0
LINE
  8
0
 10
-88.3925
 20
12.467
 11
-88.7227
 21
12.2855
  0
LINE
  8
0
 10
-88.7227
 20
12.2855
 11
-89.073
 21
12.1468
  0
LINE
  8
0
 10
-89.073
 20
12.1468
 11
-89.4379
 21
12.0531
  0
LINE
  8
0
 10
-89.4379
 20
12.0531
 11
-89.8116
 21
12.0059
  0
LINE
  8
0
 10
-89.8116
 20
12.0059
 11
-90.1884
 21
12.0059
  0
LINE
  8
0
 10
-90.1884
 20
12.0059
 11
-90.5621
 21
12.0531
  0
LINE
  8
0
 10
-90.5621
 20
12.0531
 11
-90.927
 21
12.1468
  0
LINE
  8
0
 10
-90.927
 20
12.1468
 11
-91.2773
 21
12.2855
  0
LINE
  8
0
 10
-91.2773
 20
12.2855
 11
-91.6075
 21
12.467
  0
LINE
  8
0
 10
-91.6075
 20
12.467
 11
-91.9123
 21
12.6884
  0
LINE
  8
0
 10
-91.9123
 20
12.6884
 11
-92.1869
 21
12.9464
  0
LINE
  8
0
 10
-92.1869
 20
12.9464
 11
-92.427
 21
13.2366
  0
LINE
  8
0
 10
-92.427
 20
13.2366
 11
-92.6289
 21
13.5547
  0
LINE
  8
0
 10
-92.6289
 20
13.5547
 11
-92.7893
 21
13.8956
  0
LINE
  8
0
 10
-92.7893
 20
13.8956
 11
-92.9057
 21
14.2539
  0
LINE
  8
0
 10
-92.9057
 20
14.2539
 11
-92.9763
 21
14.624
  0
LINE
  8
0
 10
-92.9763
 20
14.624
 11
-93
 21
15
  0
LINE
  8
0
 10
-93
 20
15
 11
-92.9763
 21
15.376
  0
LINE
  8
0
 10
-92.9763
 20
15.376
 11
-92.9057
 21
15.7461
  0
LINE
  8
0
 10
-92.9057
 20
15.7461
 11
-92.7893
 21
16.1044
  0
LINE
  8
0
 10
-92.7893
 20
16.1044
 11
-92.6289
 21
16.4453
  0
LINE
  8
0
 10
-92.6289
 20
16.4453
 11
-92.427
 21
16.7634
  0
LINE
  8
0
 10
-92.427
 20
16.7634
 11
-92.1869
 21
17.0536
  0
LINE
  8
0
 10
-92.1869
 20
17.0536
 11
-91.9123
 21
17.3115
  0
LINE
  8
0
 10
-91.9123
 20
17.3115
 11
-91.6075
 21
17.533
  0
LINE
  8
0
 10
-91.6075
 20
17.533
 11
-91.2773
 21
17.7145
  0
LINE
  8
0
 10
-91.2773
 20
17.7145
 11
-90.927
 21
17.8532
  0
LINE
  8
0
 10
-90.927
 20
17.8532
 11
-90.5621
 21
17.9469
  0
LINE
  8
0
 10
-90.5621
 20
17.9469
 11
-90.1884
 21
17.9941
  0
LINE
  8
0
 10
-90.1884
 20
17.9941
 11
-89.8116
 21
17.9941
  0
LINE
  8
0
 10
-89.8116
 20
17.9941
 11
-89.4379
 21
17.9469
  0
LINE
  8
0
 10
-89.4379
 20
17.9469
 11
-89.073
 21
17.8532
  0
LINE
  8
0
 10
-89.073
 20
17.8532
 11
-88.7227
 21
17.7145
  0
LINE
  8
0
 10
-88.7227
 20
17.7145
 11
-88.3925
 21
17.533
  0
LINE
  8
0
 10
-88.3925
 20
17.533
 11
-88.0877
 21
17.3115
  0
LINE
  8
0
 10
-88.0877
 20
17.3115
 11
-87.8131
 21
17.0536
  0
LINE
  8
0
 10
-87.8131
 20
17.0536
 11
-87.573
 21
16.7634
  0
LINE
  8
0
 10
-87.573
 20
16.7634
 11
-87.3711
 21
16.4453
  0
LINE
  8
0
 10
-87.3711
 20
16.4453
 11
-87.2107
 21
16.1044
  0
LINE
  8
0
 10
-87.2107
 20
16.1044
 11
-87.0943
 21
15.7461
  0
LINE
  8
0
 10
-87.0943
 20
15.7461
 11
-87.0237
 21
15.376
  0
LINE
  8
0
 10
-87.0237
 20
15.376
 11
-87
 21
15
  0
LINE
  8
0
 10
-87
 20
15
 11
-87.0237
 21
14.624
  0
LINE
  8
0
 10
-87.0237
 20
14.624
 11
-87.0943
 21
14.2539
  0
LINE
  8
0
 10
-87.0943
 20
14.2539
 11
-87.2107
 21
13.8956
  0
ENDSEC
  0
SECTION
  2
OBJECTS
  0
DICTIONARY
  0
ENDSEC
  0
EOF
