  0
SECTION
  2
BLOCKS
  0
ENDSEC
  0
SECTION
  2
ENTITIES
  0
LINE
  8
0
 10
47.9369
 20
-44.4114
 11
48.5451
 21
-44.2553
  0
LINE
  8
0
 10
48.5451
 20
-44.2553
 11
49.1289
 21
-44.0241
  0
LINE
  8
0
 10
49.1289
 20
-44.0241
 11
49.6791
 21
-43.7216
  0
LINE
  8
0
 10
49.6791
 20
-43.7216
 11
50.1871
 21
-43.3526
  0
LINE
  8
0
 10
50.1871
 20
-43.3526
 11
50.6448
 21
-42.9227
  0
LINE
  8
0
 10
50.6448
 20
-42.9227
 11
51.0451
 21
-42.4389
  0
LINE
  8
0
 10
51.0451
 20
-42.4389
 11
51.3815
 21
-41.9088
  0
LINE
  8
0
 10
51.3815
 20
-41.9088
 11
51.6489
 21
-41.3406
  0
LINE
  8
0
 10
51.6489
 20
-41.3406
 11
51.8429
 21
-40.7434
  0
LINE
  8
0
 10
51.8429
 20
-40.7434
 11
51.9606
 21
-40.1267
  0
LINE
  8
0
 10
51.9606
 20
-40.1267
 11
52
 21
-39.5
  0
LINE
  8
0
 10
52
 20
-39.5
 11
52
 21
39.5
  0
LINE
  8
0
 10
52
 20
39.5
 11
51.9606
 21
40.1267
  0
LINE
  8
0
 10
51.9606
 20
40.1267
 11
51.8429
 21
40.7434
  0
LINE
  8
0
 10
51.8429
 20
40.7434
 11
51.6489
 21
41.3406
  0
LINE
  8
0
 10
51.6489
 20
41.3406
 11
51.3815
 21
41.9088
  0
LINE
  8
0
 10
51.3815
 20
41.9088
 11
51.0451
 21
42.4389
  0
LINE
  8
0
 10
51.0451
 20
42.4389
 11
50.6448
 21
42.9227
  0
LINE
  8
0
 10
50.6448
 20
42.9227
 11
50.1871
 21
43.3526
  0
LINE
  8
0
 10
50.1871
 20
43.3526
 11
49.6791
 21
43.7216
  0
LINE
  8
0
 10
49.6791
 20
43.7216
 11
49.1289
 21
44.0241
  0
LINE
  8
0
 10
49.1289
 20
44.0241
 11
48.5451
 21
44.2553
  0
LINE
  8
0
 10
48.5451
 20
44.2553
 11
47.9369
 21
44.4114
  0
LINE
  8
0
 10
47.9369
 20
44.4114
 11
47.3139
 21
44.4901
  0
LINE
  8
0
 10
47.3139
 20
44.4901
 11
-47.3139
 21
44.4901
  0
LINE
  8
0
 10
-47.3139
 20
44.4901
 11
-47.9369
 21
44.4114
  0
LINE
  8
0
 10
-47.9369
 20
44.4114
 11
-48.5451
 21
44.2553
  0
LINE
  8
0
 10
-48.5451
 20
44.2553
 11
-49.1289
 21
44.0241
  0
LINE
  8
0
 10
-49.1289
 20
44.0241
 11
-49.6791
 21
43.7216
  0
LINE
  8
0
 10
-49.6791
 20
43.7216
 11
-50.1871
 21
43.3526
  0
LINE
  8
0
 10
-50.1871
 20
43.3526
 11
-50.6448
 21
42.9227
  0
LINE
  8
0
 10
-50.6448
 20
42.9227
 11
-51.0451
 21
42.4389
  0
LINE
  8
0
 10
-51.0451
 20
42.4389
 11
-51.3815
 21
41.9088
  0
LINE
  8
0
 10
-51.3815
 20
41.9088
 11
-51.6489
 21
41.3406
  0
LINE
  8
0
 10
-51.6489
 20
41.3406
 11
-51.8429
 21
40.7434
  0
LINE
  8
0
 10
-51.8429
 20
40.7434
 11
-51.9606
 21
40.1267
  0
LINE
  8
0
 10
-51.9606
 20
40.1267
 11
-52
 21
39.5
  0
LINE
  8
0
 10
-52
 20
39.5
 11
-52
 21
-39.5
  0
LINE
  8
0
 10
-52
 20
-39.5
 11
-51.9606
 21
-40.1267
  0
LINE
  8
0
 10
-51.9606
 20
-40.1267
 11
-51.8429
 21
-40.7434
  0
LINE
  8
0
 10
-51.8429
 20
-40.7434
 11
-51.6489
 21
-41.3406
  0
LINE
  8
0
 10
-51.6489
 20
-41.3406
 11
-51.3815
 21
-41.9088
  0
LINE
  8
0
 10
-51.3815
 20
-41.9088
 11
-51.0451
 21
-42.4389
  0
LINE
  8
0
 10
-51.0451
 20
-42.4389
 11
-50.6448
 21
-42.9227
  0
LINE
  8
0
 10
-50.6448
 20
-42.9227
 11
-50.1871
 21
-43.3526
  0
LINE
  8
0
 10
-50.1871
 20
-43.3526
 11
-49.6791
 21
-43.7216
  0
LINE
  8
0
 10
-49.6791
 20
-43.7216
 11
-49.1289
 21
-44.0241
  0
LINE
  8
0
 10
-49.1289
 20
-44.0241
 11
-48.5451
 21
-44.2553
  0
LINE
  8
0
 10
-48.5451
 20
-44.2553
 11
-47.9369
 21
-44.4114
  0
LINE
  8
0
 10
-47.9369
 20
-44.4114
 11
-47.3139
 21
-44.4901
  0
LINE
  8
0
 10
-47.3139
 20
-44.4901
 11
47.3139
 21
-44.4901
  0
LINE
  8
0
 10
47.3139
 20
-44.4901
 11
47.9369
 21
-44.4114
  0
LINE
  8
0
 10
-17.6289
 20
36.0547
 11
-17.7893
 21
36.3956
  0
LINE
  8
0
 10
-17.7893
 20
36.3956
 11
-17.9057
 21
36.7539
  0
LINE
  8
0
 10
-17.9057
 20
36.7539
 11
-17.9763
 21
37.124
  0
LINE
  8
0
 10
-17.9763
 20
37.124
 11
-18
 21
37.5
  0
LINE
  8
0
 10
-18
 20
37.5
 11
-17.9763
 21
37.876
  0
LINE
  8
0
 10
-17.9763
 20
37.876
 11
-17.9057
 21
38.2461
  0
LINE
  8
0
 10
-17.9057
 20
38.2461
 11
-17.7893
 21
38.6044
  0
LINE
  8
0
 10
-17.7893
 20
38.6044
 11
-17.6289
 21
38.9453
  0
LINE
  8
0
 10
-17.6289
 20
38.9453
 11
-17.427
 21
39.2634
  0
LINE
  8
0
 10
-17.427
 20
39.2634
 11
-17.1869
 21
39.5536
  0
LINE
  8
0
 10
-17.1869
 20
39.5536
 11
-16.9123
 21
39.8115
  0
LINE
  8
0
 10
-16.9123
 20
39.8115
 11
-16.6075
 21
40.033
  0
LINE
  8
0
 10
-16.6075
 20
40.033
 11
-16.2773
 21
40.2145
  0
LINE
  8
0
 10
-16.2773
 20
40.2145
 11
-15.927
 21
40.3532
  0
LINE
  8
0
 10
-15.927
 20
40.3532
 11
-15.5621
 21
40.4469
  0
LINE
  8
0
 10
-15.5621
 20
40.4469
 11
-15.1884
 21
40.4941
  0
LINE
  8
0
 10
-15.1884
 20
40.4941
 11
-14.8116
 21
40.4941
  0
LINE
  8
0
 10
-14.8116
 20
40.4941
 11
-14.4379
 21
40.4469
  0
LINE
  8
0
 10
-14.4379
 20
40.4469
 11
-14.0729
 21
40.3532
  0
LINE
  8
0
 10
-14.0729
 20
40.3532
 11
-13.7227
 21
40.2145
  0
LINE
  8
0
 10
-13.7227
 20
40.2145
 11
-13.3925
 21
40.033
  0
LINE
  8
0
 10
-13.3925
 20
40.033
 11
-13.0877
 21
39.8115
  0
LINE
  8
0
 10
-13.0877
 20
39.8115
 11
-12.8131
 21
39.5536
  0
LINE
  8
0
 10
-12.8131
 20
39.5536
 11
-12.5729
 21
39.2634
  0
LINE
  8
0
 10
-12.5729
 20
39.2634
 11
-12.3711
 21
38.9453
  0
LINE
  8
0
 10
-12.3711
 20
38.9453
 11
-12.2107
 21
38.6044
  0
LINE
  8
0
 10
-12.2107
 20
38.6044
 11
-12.0942
 21
38.2461
  0
LINE
  8
0
 10
-12.0942
 20
38.2461
 11
-12.0237
 21
37.876
  0
LINE
  8
0
 10
-12.0237
 20
37.876
 11
-12
 21
37.5
  0
LINE
  8
0
 10
-12
 20
37.5
 11
-12.0237
 21
37.124
  0
LINE
  8
0
 10
-12.0237
 20
37.124
 11
-12.0942
 21
36.7539
  0
LINE
  8
0
 10
-12.0942
 20
36.7539
 11
-12.2107
 21
36.3956
  0
LINE
  8
0
 10
-12.2107
 20
36.3956
 11
-12.3711
 21
36.0547
  0
LINE
  8
0
 10
-12.3711
 20
36.0547
 11
-12.5729
 21
35.7366
  0
LINE
  8
0
 10
-12.5729
 20
35.7366
 11
-12.8131
 21
35.4464
  0
LINE
  8
0
 10
-12.8131
 20
35.4464
 11
-13.0877
 21
35.1885
  0
LINE
  8
0
 10
-13.0877
 20
35.1885
 11
-13.3925
 21
34.967
  0
LINE
  8
0
 10
-13.3925
 20
34.967
 11
-13.7227
 21
34.7855
  0
LINE
  8
0
 10
-13.7227
 20
34.7855
 11
-14.0729
 21
34.6468
  0
LINE
  8
0
 10
-14.0729
 20
34.6468
 11
-14.4379
 21
34.5531
  0
LINE
  8
0
 10
-14.4379
 20
34.5531
 11
-14.8116
 21
34.5059
  0
LINE
  8
0
 10
-14.8116
 20
34.5059
 11
-15.1884
 21
34.5059
  0
LINE
  8
0
 10
-15.1884
 20
34.5059
 11
-15.5621
 21
34.5531
  0
LINE
  8
0
 10
-15.5621
 20
34.5531
 11
-15.927
 21
34.6468
  0
LINE
  8
0
 10
-15.927
 20
34.6468
 11
-16.2773
 21
34.7855
  0
LINE
  8
0
 10
-16.2773
 20
34.7855
 11
-16.6075
 21
34.967
  0
LINE
  8
0
 10
-16.6075
 20
34.967
 11
-16.9123
 21
35.1885
  0
LINE
  8
0
 10
-16.9123
 20
35.1885
 11
-17.1869
 21
35.4464
  0
LINE
  8
0
 10
-17.1869
 20
35.4464
 11
-17.427
 21
35.7366
  0
LINE
  8
0
 10
-17.427
 20
35.7366
 11
-17.6289
 21
36.0547
  0
LINE
  8
0
 10
44.8116
 20
34.5059
 11
44.4379
 21
34.5531
  0
LINE
  8
0
 10
44.4379
 20
34.5531
 11
44.0729
 21
34.6468
  0
LINE
  8
0
 10
44.0729
 20
34.6468
 11
43.7227
 21
34.7855
  0
LINE
  8
0
 10
43.7227
 20
34.7855
 11
43.3925
 21
34.967
  0
LINE
  8
0
 10
43.3925
 20
34.967
 11
43.0877
 21
35.1885
  0
LINE
  8
0
 10
43.0877
 20
35.1885
 11
42.8131
 21
35.4464
  0
LINE
  8
0
 10
42.8131
 20
35.4464
 11
42.5729
 21
35.7366
  0
LINE
  8
0
 10
42.5729
 20
35.7366
 11
42.3711
 21
36.0547
  0
LINE
  8
0
 10
42.3711
 20
36.0547
 11
42.2107
 21
36.3956
  0
LINE
  8
0
 10
42.2107
 20
36.3956
 11
42.0942
 21
36.7539
  0
LINE
  8
0
 10
42.0942
 20
36.7539
 11
42.0237
 21
37.124
  0
LINE
  8
0
 10
42.0237
 20
37.124
 11
42
 21
37.5
  0
LINE
  8
0
 10
42
 20
37.5
 11
42.0237
 21
37.876
  0
LINE
  8
0
 10
42.0237
 20
37.876
 11
42.0942
 21
38.2461
  0
LINE
  8
0
 10
42.0942
 20
38.2461
 11
42.2107
 21
38.6044
  0
LINE
  8
0
 10
42.2107
 20
38.6044
 11
42.3711
 21
38.9453
  0
LINE
  8
0
 10
42.3711
 20
38.9453
 11
42.5729
 21
39.2634
  0
LINE
  8
0
 10
42.5729
 20
39.2634
 11
42.8131
 21
39.5536
  0
LINE
  8
0
 10
42.8131
 20
39.5536
 11
43.0877
 21
39.8115
  0
LINE
  8
0
 10
43.0877
 20
39.8115
 11
43.3925
 21
40.033
  0
LINE
  8
0
 10
43.3925
 20
40.033
 11
43.7227
 21
40.2145
  0
LINE
  8
0
 10
43.7227
 20
40.2145
 11
44.0729
 21
40.3532
  0
LINE
  8
0
 10
44.0729
 20
40.3532
 11
44.4379
 21
40.4469
  0
LINE
  8
0
 10
44.4379
 20
40.4469
 11
44.8116
 21
40.4941
  0
LINE
  8
0
 10
44.8116
 20
40.4941
 11
45.1884
 21
40.4941
  0
LINE
  8
0
 10
45.1884
 20
40.4941
 11
45.5621
 21
40.4469
  0
LINE
  8
0
 10
45.5621
 20
40.4469
 11
45.927
 21
40.3532
  0
LINE
  8
0
 10
45.927
 20
40.3532
 11
46.2773
 21
40.2145
  0
LINE
  8
0
 10
46.2773
 20
40.2145
 11
46.6075
 21
40.033
  0
LINE
  8
0
 10
46.6075
 20
40.033
 11
46.9123
 21
39.8115
  0
LINE
  8
0
 10
46.9123
 20
39.8115
 11
47.1869
 21
39.5536
  0
LINE
  8
0
 10
47.1869
 20
39.5536
 11
47.427
 21
39.2634
  0
LINE
  8
0
 10
47.427
 20
39.2634
 11
47.6289
 21
38.9453
  0
LINE
  8
0
 10
47.6289
 20
38.9453
 11
47.7893
 21
38.6044
  0
LINE
  8
0
 10
47.7893
 20
38.6044
 11
47.9057
 21
38.2461
  0
LINE
  8
0
 10
47.9057
 20
38.2461
 11
47.9763
 21
37.876
  0
LINE
  8
0
 10
47.9763
 20
37.876
 11
48
 21
37.5
  0
LINE
  8
0
 10
48
 20
37.5
 11
47.9763
 21
37.124
  0
LINE
  8
0
 10
47.9763
 20
37.124
 11
47.9057
 21
36.7539
  0
LINE
  8
0
 10
47.9057
 20
36.7539
 11
47.7893
 21
36.3956
  0
LINE
  8
0
 10
47.7893
 20
36.3956
 11
47.6289
 21
36.0547
  0
LINE
  8
0
 10
47.6289
 20
36.0547
 11
47.427
 21
35.7366
  0
LINE
  8
0
 10
47.427
 20
35.7366
 11
47.1869
 21
35.4464
  0
LINE
  8
0
 10
47.1869
 20
35.4464
 11
46.9123
 21
35.1885
  0
LINE
  8
0
 10
46.9123
 20
35.1885
 11
46.6075
 21
34.967
  0
LINE
  8
0
 10
46.6075
 20
34.967
 11
46.2773
 21
34.7855
  0
LINE
  8
0
 10
46.2773
 20
34.7855
 11
45.927
 21
34.6468
  0
LINE
  8
0
 10
45.927
 20
34.6468
 11
45.5621
 21
34.5531
  0
LINE
  8
0
 10
45.5621
 20
34.5531
 11
45.1884
 21
34.5059
  0
LINE
  8
0
 10
45.1884
 20
34.5059
 11
44.8116
 21
34.5059
  0
LINE
  8
0
 10
14.8116
 20
34.5059
 11
14.4379
 21
34.5531
  0
LINE
  8
0
 10
14.4379
 20
34.5531
 11
14.0729
 21
34.6468
  0
LINE
  8
0
 10
14.0729
 20
34.6468
 11
13.7227
 21
34.7855
  0
LINE
  8
0
 10
13.7227
 20
34.7855
 11
13.3925
 21
34.967
  0
LINE
  8
0
 10
13.3925
 20
34.967
 11
13.0877
 21
35.1885
  0
LINE
  8
0
 10
13.0877
 20
35.1885
 11
12.8131
 21
35.4464
  0
LINE
  8
0
 10
12.8131
 20
35.4464
 11
12.5729
 21
35.7366
  0
LINE
  8
0
 10
12.5729
 20
35.7366
 11
12.3711
 21
36.0547
  0
LINE
  8
0
 10
12.3711
 20
36.0547
 11
12.2107
 21
36.3956
  0
LINE
  8
0
 10
12.2107
 20
36.3956
 11
12.0942
 21
36.7539
  0
LINE
  8
0
 10
12.0942
 20
36.7539
 11
12.0237
 21
37.124
  0
LINE
  8
0
 10
12.0237
 20
37.124
 11
12
 21
37.5
  0
LINE
  8
0
 10
12
 20
37.5
 11
12.0237
 21
37.876
  0
LINE
  8
0
 10
12.0237
 20
37.876
 11
12.0942
 21
38.2461
  0
LINE
  8
0
 10
12.0942
 20
38.2461
 11
12.2107
 21
38.6044
  0
LINE
  8
0
 10
12.2107
 20
38.6044
 11
12.3711
 21
38.9453
  0
LINE
  8
0
 10
12.3711
 20
38.9453
 11
12.5729
 21
39.2634
  0
LINE
  8
0
 10
12.5729
 20
39.2634
 11
12.8131
 21
39.5536
  0
LINE
  8
0
 10
12.8131
 20
39.5536
 11
13.0877
 21
39.8115
  0
LINE
  8
0
 10
13.0877
 20
39.8115
 11
13.3925
 21
40.033
  0
LINE
  8
0
 10
13.3925
 20
40.033
 11
13.7227
 21
40.2145
  0
LINE
  8
0
 10
13.7227
 20
40.2145
 11
14.0729
 21
40.3532
  0
LINE
  8
0
 10
14.0729
 20
40.3532
 11
14.4379
 21
40.4469
  0
LINE
  8
0
 10
14.4379
 20
40.4469
 11
14.8116
 21
40.4941
  0
LINE
  8
0
 10
14.8116
 20
40.4941
 11
15.1884
 21
40.4941
  0
LINE
  8
0
 10
15.1884
 20
40.4941
 11
15.5621
 21
40.4469
  0
LINE
  8
0
 10
15.5621
 20
40.4469
 11
15.927
 21
40.3532
  0
LINE
  8
0
 10
15.927
 20
40.3532
 11
16.2773
 21
40.2145
  0
LINE
  8
0
 10
16.2773
 20
40.2145
 11
16.6075
 21
40.033
  0
LINE
  8
0
 10
16.6075
 20
40.033
 11
16.9123
 21
39.8115
  0
LINE
  8
0
 10
16.9123
 20
39.8115
 11
17.1869
 21
39.5536
  0
LINE
  8
0
 10
17.1869
 20
39.5536
 11
17.427
 21
39.2634
  0
LINE
  8
0
 10
17.427
 20
39.2634
 11
17.6289
 21
38.9453
  0
LINE
  8
0
 10
17.6289
 20
38.9453
 11
17.7893
 21
38.6044
  0
LINE
  8
0
 10
17.7893
 20
38.6044
 11
17.9057
 21
38.2461
  0
LINE
  8
0
 10
17.9057
 20
38.2461
 11
17.9763
 21
37.876
  0
LINE
  8
0
 10
17.9763
 20
37.876
 11
18
 21
37.5
  0
LINE
  8
0
 10
18
 20
37.5
 11
17.9763
 21
37.124
  0
LINE
  8
0
 10
17.9763
 20
37.124
 11
17.9057
 21
36.7539
  0
LINE
  8
0
 10
17.9057
 20
36.7539
 11
17.7893
 21
36.3956
  0
LINE
  8
0
 10
17.7893
 20
36.3956
 11
17.6289
 21
36.0547
  0
LINE
  8
0
 10
17.6289
 20
36.0547
 11
17.427
 21
35.7366
  0
LINE
  8
0
 10
17.427
 20
35.7366
 11
17.1869
 21
35.4464
  0
LINE
  8
0
 10
17.1869
 20
35.4464
 11
16.9123
 21
35.1885
  0
LINE
  8
0
 10
16.9123
 20
35.1885
 11
16.6075
 21
34.967
  0
LINE
  8
0
 10
16.6075
 20
34.967
 11
16.2773
 21
34.7855
  0
LINE
  8
0
 10
16.2773
 20
34.7855
 11
15.927
 21
34.6468
  0
LINE
  8
0
 10
15.927
 20
34.6468
 11
15.5621
 21
34.5531
  0
LINE
  8
0
 10
15.5621
 20
34.5531
 11
15.1884
 21
34.5059
  0
LINE
  8
0
 10
15.1884
 20
34.5059
 11
14.8116
 21
34.5059
  0
LINE
  8
0
 10
-0.18837
 20
34.5059
 11
-0.562134
 21
34.5531
  0
LINE
  8
0
 10
-0.562134
 20
34.5531
 11
-0.927048
 21
34.6468
  0
LINE
  8
0
 10
-0.927048
 20
34.6468
 11
-1.27733
 21
34.7855
  0
LINE
  8
0
 10
-1.27733
 20
34.7855
 11
-1.60747
 21
34.967
  0
LINE
  8
0
 10
-1.60747
 20
34.967
 11
-1.91226
 21
35.1885
  0
LINE
  8
0
 10
-1.91226
 20
35.1885
 11
-2.1869
 21
35.4464
  0
LINE
  8
0
 10
-2.1869
 20
35.4464
 11
-2.42705
 21
35.7366
  0
LINE
  8
0
 10
-2.42705
 20
35.7366
 11
-2.62891
 21
36.0547
  0
LINE
  8
0
 10
-2.62891
 20
36.0547
 11
-2.78932
 21
36.3956
  0
LINE
  8
0
 10
-2.78932
 20
36.3956
 11
-2.90575
 21
36.7539
  0
LINE
  8
0
 10
-2.90575
 20
36.7539
 11
-2.97633
 21
37.124
  0
LINE
  8
0
 10
-2.97633
 20
37.124
 11
-3
 21
37.5
  0
LINE
  8
0
 10
-3
 20
37.5
 11
-2.97633
 21
37.876
  0
LINE
  8
0
 10
-2.97633
 20
37.876
 11
-2.90575
 21
38.2461
  0
LINE
  8
0
 10
-2.90575
 20
38.2461
 11
-2.78932
 21
38.6044
  0
LINE
  8
0
 10
-2.78932
 20
38.6044
 11
-2.62891
 21
38.9453
  0
LINE
  8
0
 10
-2.62891
 20
38.9453
 11
-2.42705
 21
39.2634
  0
LINE
  8
0
 10
-2.42705
 20
39.2634
 11
-2.1869
 21
39.5536
  0
LINE
  8
0
 10
-2.1869
 20
39.5536
 11
-1.91226
 21
39.8115
  0
LINE
  8
0
 10
-1.91226
 20
39.8115
 11
-1.60747
 21
40.033
  0
LINE
  8
0
 10
-1.60747
 20
40.033
 11
-1.27733
 21
40.2145
  0
LINE
  8
0
 10
-1.27733
 20
40.2145
 11
-0.927048
 21
40.3532
  0
LINE
  8
0
 10
-0.927048
 20
40.3532
 11
-0.562134
 21
40.4469
  0
LINE
  8
0
 10
-0.562134
 20
40.4469
 11
-0.18837
 21
40.4941
  0
LINE
  8
0
 10
-0.18837
 20
40.4941
 11
0.18837
 21
40.4941
  0
LINE
  8
0
 10
0.18837
 20
40.4941
 11
0.562134
 21
40.4469
  0
LINE
  8
0
 10
0.562134
 20
40.4469
 11
0.927048
 21
40.3532
  0
LINE
  8
0
 10
0.927048
 20
40.3532
 11
1.27733
 21
40.2145
  0
LINE
  8
0
 10
1.27733
 20
40.2145
 11
1.60747
 21
40.033
  0
LINE
  8
0
 10
1.60747
 20
40.033
 11
1.91226
 21
39.8115
  0
LINE
  8
0
 10
1.91226
 20
39.8115
 11
2.1869
 21
39.5536
  0
LINE
  8
0
 10
2.1869
 20
39.5536
 11
2.42705
 21
39.2634
  0
LINE
  8
0
 10
2.42705
 20
39.2634
 11
2.62891
 21
38.9453
  0
LINE
  8
0
 10
2.62891
 20
38.9453
 11
2.78932
 21
38.6044
  0
LINE
  8
0
 10
2.78932
 20
38.6044
 11
2.90575
 21
38.2461
  0
LINE
  8
0
 10
2.90575
 20
38.2461
 11
2.97633
 21
37.876
  0
LINE
  8
0
 10
2.97633
 20
37.876
 11
3
 21
37.5
  0
LINE
  8
0
 10
3
 20
37.5
 11
2.97633
 21
37.124
  0
LINE
  8
0
 10
2.97633
 20
37.124
 11
2.90575
 21
36.7539
  0
LINE
  8
0
 10
2.90575
 20
36.7539
 11
2.78932
 21
36.3956
  0
LINE
  8
0
 10
2.78932
 20
36.3956
 11
2.62891
 21
36.0547
  0
LINE
  8
0
 10
2.62891
 20
36.0547
 11
2.42705
 21
35.7366
  0
LINE
  8
0
 10
2.42705
 20
35.7366
 11
2.1869
 21
35.4464
  0
LINE
  8
0
 10
2.1869
 20
35.4464
 11
1.91226
 21
35.1885
  0
LINE
  8
0
 10
1.91226
 20
35.1885
 11
1.60747
 21
34.967
  0
LINE
  8
0
 10
1.60747
 20
34.967
 11
1.27733
 21
34.7855
  0
LINE
  8
0
 10
1.27733
 20
34.7855
 11
0.927048
 21
34.6468
  0
LINE
  8
0
 10
0.927048
 20
34.6468
 11
0.562134
 21
34.5531
  0
LINE
  8
0
 10
0.562134
 20
34.5531
 11
0.18837
 21
34.5059
  0
LINE
  8
0
 10
0.18837
 20
34.5059
 11
-0.18837
 21
34.5059
  0
LINE
  8
0
 10
29.8116
 20
34.5059
 11
29.4379
 21
34.5531
  0
LINE
  8
0
 10
29.4379
 20
34.5531
 11
29.0729
 21
34.6468
  0
LINE
  8
0
 10
29.0729
 20
34.6468
 11
28.7227
 21
34.7855
  0
LINE
  8
0
 10
28.7227
 20
34.7855
 11
28.3925
 21
34.967
  0
LINE
  8
0
 10
28.3925
 20
34.967
 11
28.0877
 21
35.1885
  0
LINE
  8
0
 10
28.0877
 20
35.1885
 11
27.8131
 21
35.4464
  0
LINE
  8
0
 10
27.8131
 20
35.4464
 11
27.5729
 21
35.7366
  0
LINE
  8
0
 10
27.5729
 20
35.7366
 11
27.3711
 21
36.0547
  0
LINE
  8
0
 10
27.3711
 20
36.0547
 11
27.2107
 21
36.3956
  0
LINE
  8
0
 10
27.2107
 20
36.3956
 11
27.0942
 21
36.7539
  0
LINE
  8
0
 10
27.0942
 20
36.7539
 11
27.0237
 21
37.124
  0
LINE
  8
0
 10
27.0237
 20
37.124
 11
27
 21
37.5
  0
LINE
  8
0
 10
27
 20
37.5
 11
27.0237
 21
37.876
  0
LINE
  8
0
 10
27.0237
 20
37.876
 11
27.0942
 21
38.2461
  0
LINE
  8
0
 10
27.0942
 20
38.2461
 11
27.2107
 21
38.6044
  0
LINE
  8
0
 10
27.2107
 20
38.6044
 11
27.3711
 21
38.9453
  0
LINE
  8
0
 10
27.3711
 20
38.9453
 11
27.5729
 21
39.2634
  0
LINE
  8
0
 10
27.5729
 20
39.2634
 11
27.8131
 21
39.5536
  0
LINE
  8
0
 10
27.8131
 20
39.5536
 11
28.0877
 21
39.8115
  0
LINE
  8
0
 10
28.0877
 20
39.8115
 11
28.3925
 21
40.033
  0
LINE
  8
0
 10
28.3925
 20
40.033
 11
28.7227
 21
40.2145
  0
LINE
  8
0
 10
28.7227
 20
40.2145
 11
29.0729
 21
40.3532
  0
LINE
  8
0
 10
29.0729
 20
40.3532
 11
29.4379
 21
40.4469
  0
LINE
  8
0
 10
29.4379
 20
40.4469
 11
29.8116
 21
40.4941
  0
LINE
  8
0
 10
29.8116
 20
40.4941
 11
30.1884
 21
40.4941
  0
LINE
  8
0
 10
30.1884
 20
40.4941
 11
30.5621
 21
40.4469
  0
LINE
  8
0
 10
30.5621
 20
40.4469
 11
30.927
 21
40.3532
  0
LINE
  8
0
 10
30.927
 20
40.3532
 11
31.2773
 21
40.2145
  0
LINE
  8
0
 10
31.2773
 20
40.2145
 11
31.6075
 21
40.033
  0
LINE
  8
0
 10
31.6075
 20
40.033
 11
31.9123
 21
39.8115
  0
LINE
  8
0
 10
31.9123
 20
39.8115
 11
32.1869
 21
39.5536
  0
LINE
  8
0
 10
32.1869
 20
39.5536
 11
32.427
 21
39.2634
  0
LINE
  8
0
 10
32.427
 20
39.2634
 11
32.6289
 21
38.9453
  0
LINE
  8
0
 10
32.6289
 20
38.9453
 11
32.7893
 21
38.6044
  0
LINE
  8
0
 10
32.7893
 20
38.6044
 11
32.9057
 21
38.2461
  0
LINE
  8
0
 10
32.9057
 20
38.2461
 11
32.9763
 21
37.876
  0
LINE
  8
0
 10
32.9763
 20
37.876
 11
33
 21
37.5
  0
LINE
  8
0
 10
33
 20
37.5
 11
32.9763
 21
37.124
  0
LINE
  8
0
 10
32.9763
 20
37.124
 11
32.9057
 21
36.7539
  0
LINE
  8
0
 10
32.9057
 20
36.7539
 11
32.7893
 21
36.3956
  0
LINE
  8
0
 10
32.7893
 20
36.3956
 11
32.6289
 21
36.0547
  0
LINE
  8
0
 10
32.6289
 20
36.0547
 11
32.427
 21
35.7366
  0
LINE
  8
0
 10
32.427
 20
35.7366
 11
32.1869
 21
35.4464
  0
LINE
  8
0
 10
32.1869
 20
35.4464
 11
31.9123
 21
35.1885
  0
LINE
  8
0
 10
31.9123
 20
35.1885
 11
31.6075
 21
34.967
  0
LINE
  8
0
 10
31.6075
 20
34.967
 11
31.2773
 21
34.7855
  0
LINE
  8
0
 10
31.2773
 20
34.7855
 11
30.927
 21
34.6468
  0
LINE
  8
0
 10
30.927
 20
34.6468
 11
30.5621
 21
34.5531
  0
LINE
  8
0
 10
30.5621
 20
34.5531
 11
30.1884
 21
34.5059
  0
LINE
  8
0
 10
30.1884
 20
34.5059
 11
29.8116
 21
34.5059
  0
LINE
  8
0
 10
-45.1884
 20
34.5059
 11
-45.5621
 21
34.5531
  0
LINE
  8
0
 10
-45.5621
 20
34.5531
 11
-45.927
 21
34.6468
  0
LINE
  8
0
 10
-45.927
 20
34.6468
 11
-46.2773
 21
34.7855
  0
LINE
  8
0
 10
-46.2773
 20
34.7855
 11
-46.6075
 21
34.967
  0
LINE
  8
0
 10
-46.6075
 20
34.967
 11
-46.9123
 21
35.1885
  0
LINE
  8
0
 10
-46.9123
 20
35.1885
 11
-47.1869
 21
35.4464
  0
LINE
  8
0
 10
-47.1869
 20
35.4464
 11
-47.427
 21
35.7366
  0
LINE
  8
0
 10
-47.427
 20
35.7366
 11
-47.6289
 21
36.0547
  0
LINE
  8
0
 10
-47.6289
 20
36.0547
 11
-47.7893
 21
36.3956
  0
LINE
  8
0
 10
-47.7893
 20
36.3956
 11
-47.9057
 21
36.7539
  0
LINE
  8
0
 10
-47.9057
 20
36.7539
 11
-47.9763
 21
37.124
  0
LINE
  8
0
 10
-47.9763
 20
37.124
 11
-48
 21
37.5
  0
LINE
  8
0
 10
-48
 20
37.5
 11
-47.9763
 21
37.876
  0
LINE
  8
0
 10
-47.9763
 20
37.876
 11
-47.9057
 21
38.2461
  0
LINE
  8
0
 10
-47.9057
 20
38.2461
 11
-47.7893
 21
38.6044
  0
LINE
  8
0
 10
-47.7893
 20
38.6044
 11
-47.6289
 21
38.9453
  0
LINE
  8
0
 10
-47.6289
 20
38.9453
 11
-47.427
 21
39.2634
  0
LINE
  8
0
 10
-47.427
 20
39.2634
 11
-47.1869
 21
39.5536
  0
LINE
  8
0
 10
-47.1869
 20
39.5536
 11
-46.9123
 21
39.8115
  0
LINE
  8
0
 10
-46.9123
 20
39.8115
 11
-46.6075
 21
40.033
  0
LINE
  8
0
 10
-46.6075
 20
40.033
 11
-46.2773
 21
40.2145
  0
LINE
  8
0
 10
-46.2773
 20
40.2145
 11
-45.927
 21
40.3532
  0
LINE
  8
0
 10
-45.927
 20
40.3532
 11
-45.5621
 21
40.4469
  0
LINE
  8
0
 10
-45.5621
 20
40.4469
 11
-45.1884
 21
40.4941
  0
LINE
  8
0
 10
-45.1884
 20
40.4941
 11
-44.8116
 21
40.4941
  0
LINE
  8
0
 10
-44.8116
 20
40.4941
 11
-44.4379
 21
40.4469
  0
LINE
  8
0
 10
-44.4379
 20
40.4469
 11
-44.0729
 21
40.3532
  0
LINE
  8
0
 10
-44.0729
 20
40.3532
 11
-43.7227
 21
40.2145
  0
LINE
  8
0
 10
-43.7227
 20
40.2145
 11
-43.3925
 21
40.033
  0
LINE
  8
0
 10
-43.3925
 20
40.033
 11
-43.0877
 21
39.8115
  0
LINE
  8
0
 10
-43.0877
 20
39.8115
 11
-42.8131
 21
39.5536
  0
LINE
  8
0
 10
-42.8131
 20
39.5536
 11
-42.5729
 21
39.2634
  0
LINE
  8
0
 10
-42.5729
 20
39.2634
 11
-42.3711
 21
38.9453
  0
LINE
  8
0
 10
-42.3711
 20
38.9453
 11
-42.2107
 21
38.6044
  0
LINE
  8
0
 10
-42.2107
 20
38.6044
 11
-42.0942
 21
38.2461
  0
LINE
  8
0
 10
-42.0942
 20
38.2461
 11
-42.0237
 21
37.876
  0
LINE
  8
0
 10
-42.0237
 20
37.876
 11
-42
 21
37.5
  0
LINE
  8
0
 10
-42
 20
37.5
 11
-42.0237
 21
37.124
  0
LINE
  8
0
 10
-42.0237
 20
37.124
 11
-42.0942
 21
36.7539
  0
LINE
  8
0
 10
-42.0942
 20
36.7539
 11
-42.2107
 21
36.3956
  0
LINE
  8
0
 10
-42.2107
 20
36.3956
 11
-42.3711
 21
36.0547
  0
LINE
  8
0
 10
-42.3711
 20
36.0547
 11
-42.5729
 21
35.7366
  0
LINE
  8
0
 10
-42.5729
 20
35.7366
 11
-42.8131
 21
35.4464
  0
LINE
  8
0
 10
-42.8131
 20
35.4464
 11
-43.0877
 21
35.1885
  0
LINE
  8
0
 10
-43.0877
 20
35.1885
 11
-43.3925
 21
34.967
  0
LINE
  8
0
 10
-43.3925
 20
34.967
 11
-43.7227
 21
34.7855
  0
LINE
  8
0
 10
-43.7227
 20
34.7855
 11
-44.0729
 21
34.6468
  0
LINE
  8
0
 10
-44.0729
 20
34.6468
 11
-44.4379
 21
34.5531
  0
LINE
  8
0
 10
-44.4379
 20
34.5531
 11
-44.8116
 21
34.5059
  0
LINE
  8
0
 10
-44.8116
 20
34.5059
 11
-45.1884
 21
34.5059
  0
LINE
  8
0
 10
14.8116
 20
19.5059
 11
14.4379
 21
19.5531
  0
LINE
  8
0
 10
14.4379
 20
19.5531
 11
14.0729
 21
19.6468
  0
LINE
  8
0
 10
14.0729
 20
19.6468
 11
13.7227
 21
19.7855
  0
LINE
  8
0
 10
13.7227
 20
19.7855
 11
13.3925
 21
19.967
  0
LINE
  8
0
 10
13.3925
 20
19.967
 11
13.0877
 21
20.1884
  0
LINE
  8
0
 10
13.0877
 20
20.1884
 11
12.8131
 21
20.4464
  0
LINE
  8
0
 10
12.8131
 20
20.4464
 11
12.5729
 21
20.7366
  0
LINE
  8
0
 10
12.5729
 20
20.7366
 11
12.3711
 21
21.0547
  0
LINE
  8
0
 10
12.3711
 20
21.0547
 11
12.2107
 21
21.3956
  0
LINE
  8
0
 10
12.2107
 20
21.3956
 11
12.0942
 21
21.7539
  0
LINE
  8
0
 10
12.0942
 20
21.7539
 11
12.0237
 21
22.124
  0
LINE
  8
0
 10
12.0237
 20
22.124
 11
12
 21
22.5
  0
LINE
  8
0
 10
12
 20
22.5
 11
12.0237
 21
22.876
  0
LINE
  8
0
 10
12.0237
 20
22.876
 11
12.0942
 21
23.2461
  0
LINE
  8
0
 10
12.0942
 20
23.2461
 11
12.2107
 21
23.6044
  0
LINE
  8
0
 10
12.2107
 20
23.6044
 11
12.3711
 21
23.9453
  0
LINE
  8
0
 10
12.3711
 20
23.9453
 11
12.5729
 21
24.2634
  0
LINE
  8
0
 10
12.5729
 20
24.2634
 11
12.8131
 21
24.5536
  0
LINE
  8
0
 10
12.8131
 20
24.5536
 11
13.0877
 21
24.8115
  0
LINE
  8
0
 10
13.0877
 20
24.8115
 11
13.3925
 21
25.033
  0
LINE
  8
0
 10
13.3925
 20
25.033
 11
13.7227
 21
25.2145
  0
LINE
  8
0
 10
13.7227
 20
25.2145
 11
14.0729
 21
25.3532
  0
LINE
  8
0
 10
14.0729
 20
25.3532
 11
14.4379
 21
25.4469
  0
LINE
  8
0
 10
14.4379
 20
25.4469
 11
14.8116
 21
25.4941
  0
LINE
  8
0
 10
14.8116
 20
25.4941
 11
15.1884
 21
25.4941
  0
LINE
  8
0
 10
15.1884
 20
25.4941
 11
15.5621
 21
25.4469
  0
LINE
  8
0
 10
15.5621
 20
25.4469
 11
15.927
 21
25.3532
  0
LINE
  8
0
 10
15.927
 20
25.3532
 11
16.2773
 21
25.2145
  0
LINE
  8
0
 10
16.2773
 20
25.2145
 11
16.6075
 21
25.033
  0
LINE
  8
0
 10
16.6075
 20
25.033
 11
16.9123
 21
24.8115
  0
LINE
  8
0
 10
16.9123
 20
24.8115
 11
17.1869
 21
24.5536
  0
LINE
  8
0
 10
17.1869
 20
24.5536
 11
17.427
 21
24.2634
  0
LINE
  8
0
 10
17.427
 20
24.2634
 11
17.6289
 21
23.9453
  0
LINE
  8
0
 10
17.6289
 20
23.9453
 11
17.7893
 21
23.6044
  0
LINE
  8
0
 10
17.7893
 20
23.6044
 11
17.9057
 21
23.2461
  0
LINE
  8
0
 10
17.9057
 20
23.2461
 11
17.9763
 21
22.876
  0
LINE
  8
0
 10
17.9763
 20
22.876
 11
18
 21
22.5
  0
LINE
  8
0
 10
18
 20
22.5
 11
17.9763
 21
22.124
  0
LINE
  8
0
 10
17.9763
 20
22.124
 11
17.9057
 21
21.7539
  0
LINE
  8
0
 10
17.9057
 20
21.7539
 11
17.7893
 21
21.3956
  0
LINE
  8
0
 10
17.7893
 20
21.3956
 11
17.6289
 21
21.0547
  0
LINE
  8
0
 10
17.6289
 20
21.0547
 11
17.427
 21
20.7366
  0
LINE
  8
0
 10
17.427
 20
20.7366
 11
17.1869
 21
20.4464
  0
LINE
  8
0
 10
17.1869
 20
20.4464
 11
16.9123
 21
20.1884
  0
LINE
  8
0
 10
16.9123
 20
20.1884
 11
16.6075
 21
19.967
  0
LINE
  8
0
 10
16.6075
 20
19.967
 11
16.2773
 21
19.7855
  0
LINE
  8
0
 10
16.2773
 20
19.7855
 11
15.927
 21
19.6468
  0
LINE
  8
0
 10
15.927
 20
19.6468
 11
15.5621
 21
19.5531
  0
LINE
  8
0
 10
15.5621
 20
19.5531
 11
15.1884
 21
19.5059
  0
LINE
  8
0
 10
15.1884
 20
19.5059
 11
14.8116
 21
19.5059
  0
LINE
  8
0
 10
-45.1884
 20
19.5059
 11
-45.5621
 21
19.5531
  0
LINE
  8
0
 10
-45.5621
 20
19.5531
 11
-45.927
 21
19.6468
  0
LINE
  8
0
 10
-45.927
 20
19.6468
 11
-46.2773
 21
19.7855
  0
LINE
  8
0
 10
-46.2773
 20
19.7855
 11
-46.6075
 21
19.967
  0
LINE
  8
0
 10
-46.6075
 20
19.967
 11
-46.9123
 21
20.1884
  0
LINE
  8
0
 10
-46.9123
 20
20.1884
 11
-47.1869
 21
20.4464
  0
LINE
  8
0
 10
-47.1869
 20
20.4464
 11
-47.427
 21
20.7366
  0
LINE
  8
0
 10
-47.427
 20
20.7366
 11
-47.6289
 21
21.0547
  0
LINE
  8
0
 10
-47.6289
 20
21.0547
 11
-47.7893
 21
21.3956
  0
LINE
  8
0
 10
-47.7893
 20
21.3956
 11
-47.9057
 21
21.7539
  0
LINE
  8
0
 10
-47.9057
 20
21.7539
 11
-47.9763
 21
22.124
  0
LINE
  8
0
 10
-47.9763
 20
22.124
 11
-48
 21
22.5
  0
LINE
  8
0
 10
-48
 20
22.5
 11
-47.9763
 21
22.876
  0
LINE
  8
0
 10
-47.9763
 20
22.876
 11
-47.9057
 21
23.2461
  0
LINE
  8
0
 10
-47.9057
 20
23.2461
 11
-47.7893
 21
23.6044
  0
LINE
  8
0
 10
-47.7893
 20
23.6044
 11
-47.6289
 21
23.9453
  0
LINE
  8
0
 10
-47.6289
 20
23.9453
 11
-47.427
 21
24.2634
  0
LINE
  8
0
 10
-47.427
 20
24.2634
 11
-47.1869
 21
24.5536
  0
LINE
  8
0
 10
-47.1869
 20
24.5536
 11
-46.9123
 21
24.8115
  0
LINE
  8
0
 10
-46.9123
 20
24.8115
 11
-46.6075
 21
25.033
  0
LINE
  8
0
 10
-46.6075
 20
25.033
 11
-46.2773
 21
25.2145
  0
LINE
  8
0
 10
-46.2773
 20
25.2145
 11
-45.927
 21
25.3532
  0
LINE
  8
0
 10
-45.927
 20
25.3532
 11
-45.5621
 21
25.4469
  0
LINE
  8
0
 10
-45.5621
 20
25.4469
 11
-45.1884
 21
25.4941
  0
LINE
  8
0
 10
-45.1884
 20
25.4941
 11
-44.8116
 21
25.4941
  0
LINE
  8
0
 10
-44.8116
 20
25.4941
 11
-44.4379
 21
25.4469
  0
LINE
  8
0
 10
-44.4379
 20
25.4469
 11
-44.0729
 21
25.3532
  0
LINE
  8
0
 10
-44.0729
 20
25.3532
 11
-43.7227
 21
25.2145
  0
LINE
  8
0
 10
-43.7227
 20
25.2145
 11
-43.3925
 21
25.033
  0
LINE
  8
0
 10
-43.3925
 20
25.033
 11
-43.0877
 21
24.8115
  0
LINE
  8
0
 10
-43.0877
 20
24.8115
 11
-42.8131
 21
24.5536
  0
LINE
  8
0
 10
-42.8131
 20
24.5536
 11
-42.5729
 21
24.2634
  0
LINE
  8
0
 10
-42.5729
 20
24.2634
 11
-42.3711
 21
23.9453
  0
LINE
  8
0
 10
-42.3711
 20
23.9453
 11
-42.2107
 21
23.6044
  0
LINE
  8
0
 10
-42.2107
 20
23.6044
 11
-42.0942
 21
23.2461
  0
LINE
  8
0
 10
-42.0942
 20
23.2461
 11
-42.0237
 21
22.876
  0
LINE
  8
0
 10
-42.0237
 20
22.876
 11
-42
 21
22.5
  0
LINE
  8
0
 10
-42
 20
22.5
 11
-42.0237
 21
22.124
  0
LINE
  8
0
 10
-42.0237
 20
22.124
 11
-42.0942
 21
21.7539
  0
LINE
  8
0
 10
-42.0942
 20
21.7539
 11
-42.2107
 21
21.3956
  0
LINE
  8
0
 10
-42.2107
 20
21.3956
 11
-42.3711
 21
21.0547
  0
LINE
  8
0
 10
-42.3711
 20
21.0547
 11
-42.5729
 21
20.7366
  0
LINE
  8
0
 10
-42.5729
 20
20.7366
 11
-42.8131
 21
20.4464
  0
LINE
  8
0
 10
-42.8131
 20
20.4464
 11
-43.0877
 21
20.1884
  0
LINE
  8
0
 10
-43.0877
 20
20.1884
 11
-43.3925
 21
19.967
  0
LINE
  8
0
 10
-43.3925
 20
19.967
 11
-43.7227
 21
19.7855
  0
LINE
  8
0
 10
-43.7227
 20
19.7855
 11
-44.0729
 21
19.6468
  0
LINE
  8
0
 10
-44.0729
 20
19.6468
 11
-44.4379
 21
19.5531
  0
LINE
  8
0
 10
-44.4379
 20
19.5531
 11
-44.8116
 21
19.5059
  0
LINE
  8
0
 10
-44.8116
 20
19.5059
 11
-45.1884
 21
19.5059
  0
LINE
  8
0
 10
29.8116
 20
19.5059
 11
29.4379
 21
19.5531
  0
LINE
  8
0
 10
29.4379
 20
19.5531
 11
29.0729
 21
19.6468
  0
LINE
  8
0
 10
29.0729
 20
19.6468
 11
28.7227
 21
19.7855
  0
LINE
  8
0
 10
28.7227
 20
19.7855
 11
28.3925
 21
19.967
  0
LINE
  8
0
 10
28.3925
 20
19.967
 11
28.0877
 21
20.1884
  0
LINE
  8
0
 10
28.0877
 20
20.1884
 11
27.8131
 21
20.4464
  0
LINE
  8
0
 10
27.8131
 20
20.4464
 11
27.5729
 21
20.7366
  0
LINE
  8
0
 10
27.5729
 20
20.7366
 11
27.3711
 21
21.0547
  0
LINE
  8
0
 10
27.3711
 20
21.0547
 11
27.2107
 21
21.3956
  0
LINE
  8
0
 10
27.2107
 20
21.3956
 11
27.0942
 21
21.7539
  0
LINE
  8
0
 10
27.0942
 20
21.7539
 11
27.0237
 21
22.124
  0
LINE
  8
0
 10
27.0237
 20
22.124
 11
27
 21
22.5
  0
LINE
  8
0
 10
27
 20
22.5
 11
27.0237
 21
22.876
  0
LINE
  8
0
 10
27.0237
 20
22.876
 11
27.0942
 21
23.2461
  0
LINE
  8
0
 10
27.0942
 20
23.2461
 11
27.2107
 21
23.6044
  0
LINE
  8
0
 10
27.2107
 20
23.6044
 11
27.3711
 21
23.9453
  0
LINE
  8
0
 10
27.3711
 20
23.9453
 11
27.5729
 21
24.2634
  0
LINE
  8
0
 10
27.5729
 20
24.2634
 11
27.8131
 21
24.5536
  0
LINE
  8
0
 10
27.8131
 20
24.5536
 11
28.0877
 21
24.8115
  0
LINE
  8
0
 10
28.0877
 20
24.8115
 11
28.3925
 21
25.033
  0
LINE
  8
0
 10
28.3925
 20
25.033
 11
28.7227
 21
25.2145
  0
LINE
  8
0
 10
28.7227
 20
25.2145
 11
29.0729
 21
25.3532
  0
LINE
  8
0
 10
29.0729
 20
25.3532
 11
29.4379
 21
25.4469
  0
LINE
  8
0
 10
29.4379
 20
25.4469
 11
29.8116
 21
25.4941
  0
LINE
  8
0
 10
29.8116
 20
25.4941
 11
30.1884
 21
25.4941
  0
LINE
  8
0
 10
30.1884
 20
25.4941
 11
30.5621
 21
25.4469
  0
LINE
  8
0
 10
30.5621
 20
25.4469
 11
30.927
 21
25.3532
  0
LINE
  8
0
 10
30.927
 20
25.3532
 11
31.2773
 21
25.2145
  0
LINE
  8
0
 10
31.2773
 20
25.2145
 11
31.6075
 21
25.033
  0
LINE
  8
0
 10
31.6075
 20
25.033
 11
31.9123
 21
24.8115
  0
LINE
  8
0
 10
31.9123
 20
24.8115
 11
32.1869
 21
24.5536
  0
LINE
  8
0
 10
32.1869
 20
24.5536
 11
32.427
 21
24.2634
  0
LINE
  8
0
 10
32.427
 20
24.2634
 11
32.6289
 21
23.9453
  0
LINE
  8
0
 10
32.6289
 20
23.9453
 11
32.7893
 21
23.6044
  0
LINE
  8
0
 10
32.7893
 20
23.6044
 11
32.9057
 21
23.2461
  0
LINE
  8
0
 10
32.9057
 20
23.2461
 11
32.9763
 21
22.876
  0
LINE
  8
0
 10
32.9763
 20
22.876
 11
33
 21
22.5
  0
LINE
  8
0
 10
33
 20
22.5
 11
32.9763
 21
22.124
  0
LINE
  8
0
 10
32.9763
 20
22.124
 11
32.9057
 21
21.7539
  0
LINE
  8
0
 10
32.9057
 20
21.7539
 11
32.7893
 21
21.3956
  0
LINE
  8
0
 10
32.7893
 20
21.3956
 11
32.6289
 21
21.0547
  0
LINE
  8
0
 10
32.6289
 20
21.0547
 11
32.427
 21
20.7366
  0
LINE
  8
0
 10
32.427
 20
20.7366
 11
32.1869
 21
20.4464
  0
LINE
  8
0
 10
32.1869
 20
20.4464
 11
31.9123
 21
20.1884
  0
LINE
  8
0
 10
31.9123
 20
20.1884
 11
31.6075
 21
19.967
  0
LINE
  8
0
 10
31.6075
 20
19.967
 11
31.2773
 21
19.7855
  0
LINE
  8
0
 10
31.2773
 20
19.7855
 11
30.927
 21
19.6468
  0
LINE
  8
0
 10
30.927
 20
19.6468
 11
30.5621
 21
19.5531
  0
LINE
  8
0
 10
30.5621
 20
19.5531
 11
30.1884
 21
19.5059
  0
LINE
  8
0
 10
30.1884
 20
19.5059
 11
29.8116
 21
19.5059
  0
LINE
  8
0
 10
-0.18837
 20
19.5059
 11
-0.562134
 21
19.5531
  0
LINE
  8
0
 10
-0.562134
 20
19.5531
 11
-0.927048
 21
19.6468
  0
LINE
  8
0
 10
-0.927048
 20
19.6468
 11
-1.27733
 21
19.7855
  0
LINE
  8
0
 10
-1.27733
 20
19.7855
 11
-1.60747
 21
19.967
  0
LINE
  8
0
 10
-1.60747
 20
19.967
 11
-1.91226
 21
20.1884
  0
LINE
  8
0
 10
-1.91226
 20
20.1884
 11
-2.1869
 21
20.4464
  0
LINE
  8
0
 10
-2.1869
 20
20.4464
 11
-2.42705
 21
20.7366
  0
LINE
  8
0
 10
-2.42705
 20
20.7366
 11
-2.62891
 21
21.0547
  0
LINE
  8
0
 10
-2.62891
 20
21.0547
 11
-2.78932
 21
21.3956
  0
LINE
  8
0
 10
-2.78932
 20
21.3956
 11
-2.90575
 21
21.7539
  0
LINE
  8
0
 10
-2.90575
 20
21.7539
 11
-2.97633
 21
22.124
  0
LINE
  8
0
 10
-2.97633
 20
22.124
 11
-3
 21
22.5
  0
LINE
  8
0
 10
-3
 20
22.5
 11
-2.97633
 21
22.876
  0
LINE
  8
0
 10
-2.97633
 20
22.876
 11
-2.90575
 21
23.2461
  0
LINE
  8
0
 10
-2.90575
 20
23.2461
 11
-2.78932
 21
23.6044
  0
LINE
  8
0
 10
-2.78932
 20
23.6044
 11
-2.62891
 21
23.9453
  0
LINE
  8
0
 10
-2.62891
 20
23.9453
 11
-2.42705
 21
24.2634
  0
LINE
  8
0
 10
-2.42705
 20
24.2634
 11
-2.1869
 21
24.5536
  0
LINE
  8
0
 10
-2.1869
 20
24.5536
 11
-1.91226
 21
24.8115
  0
LINE
  8
0
 10
-1.91226
 20
24.8115
 11
-1.60747
 21
25.033
  0
LINE
  8
0
 10
-1.60747
 20
25.033
 11
-1.27733
 21
25.2145
  0
LINE
  8
0
 10
-1.27733
 20
25.2145
 11
-0.927048
 21
25.3532
  0
LINE
  8
0
 10
-0.927048
 20
25.3532
 11
-0.562134
 21
25.4469
  0
LINE
  8
0
 10
-0.562134
 20
25.4469
 11
-0.18837
 21
25.4941
  0
LINE
  8
0
 10
-0.18837
 20
25.4941
 11
0.18837
 21
25.4941
  0
LINE
  8
0
 10
0.18837
 20
25.4941
 11
0.562134
 21
25.4469
  0
LINE
  8
0
 10
0.562134
 20
25.4469
 11
0.927048
 21
25.3532
  0
LINE
  8
0
 10
0.927048
 20
25.3532
 11
1.27733
 21
25.2145
  0
LINE
  8
0
 10
1.27733
 20
25.2145
 11
1.60747
 21
25.033
  0
LINE
  8
0
 10
1.60747
 20
25.033
 11
1.91226
 21
24.8115
  0
LINE
  8
0
 10
1.91226
 20
24.8115
 11
2.1869
 21
24.5536
  0
LINE
  8
0
 10
2.1869
 20
24.5536
 11
2.42705
 21
24.2634
  0
LINE
  8
0
 10
2.42705
 20
24.2634
 11
2.62891
 21
23.9453
  0
LINE
  8
0
 10
2.62891
 20
23.9453
 11
2.78932
 21
23.6044
  0
LINE
  8
0
 10
2.78932
 20
23.6044
 11
2.90575
 21
23.2461
  0
LINE
  8
0
 10
2.90575
 20
23.2461
 11
2.97633
 21
22.876
  0
LINE
  8
0
 10
2.97633
 20
22.876
 11
3
 21
22.5
  0
LINE
  8
0
 10
3
 20
22.5
 11
2.97633
 21
22.124
  0
LINE
  8
0
 10
2.97633
 20
22.124
 11
2.90575
 21
21.7539
  0
LINE
  8
0
 10
2.90575
 20
21.7539
 11
2.78932
 21
21.3956
  0
LINE
  8
0
 10
2.78932
 20
21.3956
 11
2.62891
 21
21.0547
  0
LINE
  8
0
 10
2.62891
 20
21.0547
 11
2.42705
 21
20.7366
  0
LINE
  8
0
 10
2.42705
 20
20.7366
 11
2.1869
 21
20.4464
  0
LINE
  8
0
 10
2.1869
 20
20.4464
 11
1.91226
 21
20.1884
  0
LINE
  8
0
 10
1.91226
 20
20.1884
 11
1.60747
 21
19.967
  0
LINE
  8
0
 10
1.60747
 20
19.967
 11
1.27733
 21
19.7855
  0
LINE
  8
0
 10
1.27733
 20
19.7855
 11
0.927048
 21
19.6468
  0
LINE
  8
0
 10
0.927048
 20
19.6468
 11
0.562134
 21
19.5531
  0
LINE
  8
0
 10
0.562134
 20
19.5531
 11
0.18837
 21
19.5059
  0
LINE
  8
0
 10
0.18837
 20
19.5059
 11
-0.18837
 21
19.5059
  0
LINE
  8
0
 10
-15.1884
 20
19.5059
 11
-15.5621
 21
19.5531
  0
LINE
  8
0
 10
-15.5621
 20
19.5531
 11
-15.927
 21
19.6468
  0
LINE
  8
0
 10
-15.927
 20
19.6468
 11
-16.2773
 21
19.7855
  0
LINE
  8
0
 10
-16.2773
 20
19.7855
 11
-16.6075
 21
19.967
  0
LINE
  8
0
 10
-16.6075
 20
19.967
 11
-16.9123
 21
20.1884
  0
LINE
  8
0
 10
-16.9123
 20
20.1884
 11
-17.1869
 21
20.4464
  0
LINE
  8
0
 10
-17.1869
 20
20.4464
 11
-17.427
 21
20.7366
  0
LINE
  8
0
 10
-17.427
 20
20.7366
 11
-17.6289
 21
21.0547
  0
LINE
  8
0
 10
-17.6289
 20
21.0547
 11
-17.7893
 21
21.3956
  0
LINE
  8
0
 10
-17.7893
 20
21.3956
 11
-17.9057
 21
21.7539
  0
LINE
  8
0
 10
-17.9057
 20
21.7539
 11
-17.9763
 21
22.124
  0
LINE
  8
0
 10
-17.9763
 20
22.124
 11
-18
 21
22.5
  0
LINE
  8
0
 10
-18
 20
22.5
 11
-17.9763
 21
22.876
  0
LINE
  8
0
 10
-17.9763
 20
22.876
 11
-17.9057
 21
23.2461
  0
LINE
  8
0
 10
-17.9057
 20
23.2461
 11
-17.7893
 21
23.6044
  0
LINE
  8
0
 10
-17.7893
 20
23.6044
 11
-17.6289
 21
23.9453
  0
LINE
  8
0
 10
-17.6289
 20
23.9453
 11
-17.427
 21
24.2634
  0
LINE
  8
0
 10
-17.427
 20
24.2634
 11
-17.1869
 21
24.5536
  0
LINE
  8
0
 10
-17.1869
 20
24.5536
 11
-16.9123
 21
24.8115
  0
LINE
  8
0
 10
-16.9123
 20
24.8115
 11
-16.6075
 21
25.033
  0
LINE
  8
0
 10
-16.6075
 20
25.033
 11
-16.2773
 21
25.2145
  0
LINE
  8
0
 10
-16.2773
 20
25.2145
 11
-15.927
 21
25.3532
  0
LINE
  8
0
 10
-15.927
 20
25.3532
 11
-15.5621
 21
25.4469
  0
LINE
  8
0
 10
-15.5621
 20
25.4469
 11
-15.1884
 21
25.4941
  0
LINE
  8
0
 10
-15.1884
 20
25.4941
 11
-14.8116
 21
25.4941
  0
LINE
  8
0
 10
-14.8116
 20
25.4941
 11
-14.4379
 21
25.4469
  0
LINE
  8
0
 10
-14.4379
 20
25.4469
 11
-14.0729
 21
25.3532
  0
LINE
  8
0
 10
-14.0729
 20
25.3532
 11
-13.7227
 21
25.2145
  0
LINE
  8
0
 10
-13.7227
 20
25.2145
 11
-13.3925
 21
25.033
  0
LINE
  8
0
 10
-13.3925
 20
25.033
 11
-13.0877
 21
24.8115
  0
LINE
  8
0
 10
-13.0877
 20
24.8115
 11
-12.8131
 21
24.5536
  0
LINE
  8
0
 10
-12.8131
 20
24.5536
 11
-12.5729
 21
24.2634
  0
LINE
  8
0
 10
-12.5729
 20
24.2634
 11
-12.3711
 21
23.9453
  0
LINE
  8
0
 10
-12.3711
 20
23.9453
 11
-12.2107
 21
23.6044
  0
LINE
  8
0
 10
-12.2107
 20
23.6044
 11
-12.0942
 21
23.2461
  0
LINE
  8
0
 10
-12.0942
 20
23.2461
 11
-12.0237
 21
22.876
  0
LINE
  8
0
 10
-12.0237
 20
22.876
 11
-12
 21
22.5
  0
LINE
  8
0
 10
-12
 20
22.5
 11
-12.0237
 21
22.124
  0
LINE
  8
0
 10
-12.0237
 20
22.124
 11
-12.0942
 21
21.7539
  0
LINE
  8
0
 10
-12.0942
 20
21.7539
 11
-12.2107
 21
21.3956
  0
LINE
  8
0
 10
-12.2107
 20
21.3956
 11
-12.3711
 21
21.0547
  0
LINE
  8
0
 10
-12.3711
 20
21.0547
 11
-12.5729
 21
20.7366
  0
LINE
  8
0
 10
-12.5729
 20
20.7366
 11
-12.8131
 21
20.4464
  0
LINE
  8
0
 10
-12.8131
 20
20.4464
 11
-13.0877
 21
20.1884
  0
LINE
  8
0
 10
-13.0877
 20
20.1884
 11
-13.3925
 21
19.967
  0
LINE
  8
0
 10
-13.3925
 20
19.967
 11
-13.7227
 21
19.7855
  0
LINE
  8
0
 10
-13.7227
 20
19.7855
 11
-14.0729
 21
19.6468
  0
LINE
  8
0
 10
-14.0729
 20
19.6468
 11
-14.4379
 21
19.5531
  0
LINE
  8
0
 10
-14.4379
 20
19.5531
 11
-14.8116
 21
19.5059
  0
LINE
  8
0
 10
-14.8116
 20
19.5059
 11
-15.1884
 21
19.5059
  0
LINE
  8
0
 10
-30.1884
 20
19.5059
 11
-30.5621
 21
19.5531
  0
LINE
  8
0
 10
-30.5621
 20
19.5531
 11
-30.927
 21
19.6468
  0
LINE
  8
0
 10
-30.927
 20
19.6468
 11
-31.2773
 21
19.7855
  0
LINE
  8
0
 10
-31.2773
 20
19.7855
 11
-31.6075
 21
19.967
  0
LINE
  8
0
 10
-31.6075
 20
19.967
 11
-31.9123
 21
20.1884
  0
LINE
  8
0
 10
-31.9123
 20
20.1884
 11
-32.1869
 21
20.4464
  0
LINE
  8
0
 10
-32.1869
 20
20.4464
 11
-32.427
 21
20.7366
  0
LINE
  8
0
 10
-32.427
 20
20.7366
 11
-32.6289
 21
21.0547
  0
LINE
  8
0
 10
-32.6289
 20
21.0547
 11
-32.7893
 21
21.3956
  0
LINE
  8
0
 10
-32.7893
 20
21.3956
 11
-32.9057
 21
21.7539
  0
LINE
  8
0
 10
-32.9057
 20
21.7539
 11
-32.9763
 21
22.124
  0
LINE
  8
0
 10
-32.9763
 20
22.124
 11
-33
 21
22.5
  0
LINE
  8
0
 10
-33
 20
22.5
 11
-32.9763
 21
22.876
  0
LINE
  8
0
 10
-32.9763
 20
22.876
 11
-32.9057
 21
23.2461
  0
LINE
  8
0
 10
-32.9057
 20
23.2461
 11
-32.7893
 21
23.6044
  0
LINE
  8
0
 10
-32.7893
 20
23.6044
 11
-32.6289
 21
23.9453
  0
LINE
  8
0
 10
-32.6289
 20
23.9453
 11
-32.427
 21
24.2634
  0
LINE
  8
0
 10
-32.427
 20
24.2634
 11
-32.1869
 21
24.5536
  0
LINE
  8
0
 10
-32.1869
 20
24.5536
 11
-31.9123
 21
24.8115
  0
LINE
  8
0
 10
-31.9123
 20
24.8115
 11
-31.6075
 21
25.033
  0
LINE
  8
0
 10
-31.6075
 20
25.033
 11
-31.2773
 21
25.2145
  0
LINE
  8
0
 10
-31.2773
 20
25.2145
 11
-30.927
 21
25.3532
  0
LINE
  8
0
 10
-30.927
 20
25.3532
 11
-30.5621
 21
25.4469
  0
LINE
  8
0
 10
-30.5621
 20
25.4469
 11
-30.1884
 21
25.4941
  0
LINE
  8
0
 10
-30.1884
 20
25.4941
 11
-29.8116
 21
25.4941
  0
LINE
  8
0
 10
-29.8116
 20
25.4941
 11
-29.4379
 21
25.4469
  0
LINE
  8
0
 10
-29.4379
 20
25.4469
 11
-29.0729
 21
25.3532
  0
LINE
  8
0
 10
-29.0729
 20
25.3532
 11
-28.7227
 21
25.2145
  0
LINE
  8
0
 10
-28.7227
 20
25.2145
 11
-28.3925
 21
25.033
  0
LINE
  8
0
 10
-28.3925
 20
25.033
 11
-28.0877
 21
24.8115
  0
LINE
  8
0
 10
-28.0877
 20
24.8115
 11
-27.8131
 21
24.5536
  0
LINE
  8
0
 10
-27.8131
 20
24.5536
 11
-27.5729
 21
24.2634
  0
LINE
  8
0
 10
-27.5729
 20
24.2634
 11
-27.3711
 21
23.9453
  0
LINE
  8
0
 10
-27.3711
 20
23.9453
 11
-27.2107
 21
23.6044
  0
LINE
  8
0
 10
-27.2107
 20
23.6044
 11
-27.0942
 21
23.2461
  0
LINE
  8
0
 10
-27.0942
 20
23.2461
 11
-27.0237
 21
22.876
  0
LINE
  8
0
 10
-27.0237
 20
22.876
 11
-27
 21
22.5
  0
LINE
  8
0
 10
-27
 20
22.5
 11
-27.0237
 21
22.124
  0
LINE
  8
0
 10
-27.0237
 20
22.124
 11
-27.0942
 21
21.7539
  0
LINE
  8
0
 10
-27.0942
 20
21.7539
 11
-27.2107
 21
21.3956
  0
LINE
  8
0
 10
-27.2107
 20
21.3956
 11
-27.3711
 21
21.0547
  0
LINE
  8
0
 10
-27.3711
 20
21.0547
 11
-27.5729
 21
20.7366
  0
LINE
  8
0
 10
-27.5729
 20
20.7366
 11
-27.8131
 21
20.4464
  0
LINE
  8
0
 10
-27.8131
 20
20.4464
 11
-28.0877
 21
20.1884
  0
LINE
  8
0
 10
-28.0877
 20
20.1884
 11
-28.3925
 21
19.967
  0
LINE
  8
0
 10
-28.3925
 20
19.967
 11
-28.7227
 21
19.7855
  0
LINE
  8
0
 10
-28.7227
 20
19.7855
 11
-29.0729
 21
19.6468
  0
LINE
  8
0
 10
-29.0729
 20
19.6468
 11
-29.4379
 21
19.5531
  0
LINE
  8
0
 10
-29.4379
 20
19.5531
 11
-29.8116
 21
19.5059
  0
LINE
  8
0
 10
-29.8116
 20
19.5059
 11
-30.1884
 21
19.5059
  0
LINE
  8
0
 10
44.8116
 20
19.5059
 11
44.4379
 21
19.5531
  0
LINE
  8
0
 10
44.4379
 20
19.5531
 11
44.0729
 21
19.6468
  0
LINE
  8
0
 10
44.0729
 20
19.6468
 11
43.7227
 21
19.7855
  0
LINE
  8
0
 10
43.7227
 20
19.7855
 11
43.3925
 21
19.967
  0
LINE
  8
0
 10
43.3925
 20
19.967
 11
43.0877
 21
20.1884
  0
LINE
  8
0
 10
43.0877
 20
20.1884
 11
42.8131
 21
20.4464
  0
LINE
  8
0
 10
42.8131
 20
20.4464
 11
42.5729
 21
20.7366
  0
LINE
  8
0
 10
42.5729
 20
20.7366
 11
42.3711
 21
21.0547
  0
LINE
  8
0
 10
42.3711
 20
21.0547
 11
42.2107
 21
21.3956
  0
LINE
  8
0
 10
42.2107
 20
21.3956
 11
42.0942
 21
21.7539
  0
LINE
  8
0
 10
42.0942
 20
21.7539
 11
42.0237
 21
22.124
  0
LINE
  8
0
 10
42.0237
 20
22.124
 11
42
 21
22.5
  0
LINE
  8
0
 10
42
 20
22.5
 11
42.0237
 21
22.876
  0
LINE
  8
0
 10
42.0237
 20
22.876
 11
42.0942
 21
23.2461
  0
LINE
  8
0
 10
42.0942
 20
23.2461
 11
42.2107
 21
23.6044
  0
LINE
  8
0
 10
42.2107
 20
23.6044
 11
42.3711
 21
23.9453
  0
LINE
  8
0
 10
42.3711
 20
23.9453
 11
42.5729
 21
24.2634
  0
LINE
  8
0
 10
42.5729
 20
24.2634
 11
42.8131
 21
24.5536
  0
LINE
  8
0
 10
42.8131
 20
24.5536
 11
43.0877
 21
24.8115
  0
LINE
  8
0
 10
43.0877
 20
24.8115
 11
43.3925
 21
25.033
  0
LINE
  8
0
 10
43.3925
 20
25.033
 11
43.7227
 21
25.2145
  0
LINE
  8
0
 10
43.7227
 20
25.2145
 11
44.0729
 21
25.3532
  0
LINE
  8
0
 10
44.0729
 20
25.3532
 11
44.4379
 21
25.4469
  0
LINE
  8
0
 10
44.4379
 20
25.4469
 11
44.8116
 21
25.4941
  0
LINE
  8
0
 10
44.8116
 20
25.4941
 11
45.1884
 21
25.4941
  0
LINE
  8
0
 10
45.1884
 20
25.4941
 11
45.5621
 21
25.4469
  0
LINE
  8
0
 10
45.5621
 20
25.4469
 11
45.927
 21
25.3532
  0
LINE
  8
0
 10
45.927
 20
25.3532
 11
46.2773
 21
25.2145
  0
LINE
  8
0
 10
46.2773
 20
25.2145
 11
46.6075
 21
25.033
  0
LINE
  8
0
 10
46.6075
 20
25.033
 11
46.9123
 21
24.8115
  0
LINE
  8
0
 10
46.9123
 20
24.8115
 11
47.1869
 21
24.5536
  0
LINE
  8
0
 10
47.1869
 20
24.5536
 11
47.427
 21
24.2634
  0
LINE
  8
0
 10
47.427
 20
24.2634
 11
47.6289
 21
23.9453
  0
LINE
  8
0
 10
47.6289
 20
23.9453
 11
47.7893
 21
23.6044
  0
LINE
  8
0
 10
47.7893
 20
23.6044
 11
47.9057
 21
23.2461
  0
LINE
  8
0
 10
47.9057
 20
23.2461
 11
47.9763
 21
22.876
  0
LINE
  8
0
 10
47.9763
 20
22.876
 11
48
 21
22.5
  0
LINE
  8
0
 10
48
 20
22.5
 11
47.9763
 21
22.124
  0
LINE
  8
0
 10
47.9763
 20
22.124
 11
47.9057
 21
21.7539
  0
LINE
  8
0
 10
47.9057
 20
21.7539
 11
47.7893
 21
21.3956
  0
LINE
  8
0
 10
47.7893
 20
21.3956
 11
47.6289
 21
21.0547
  0
LINE
  8
0
 10
47.6289
 20
21.0547
 11
47.427
 21
20.7366
  0
LINE
  8
0
 10
47.427
 20
20.7366
 11
47.1869
 21
20.4464
  0
LINE
  8
0
 10
47.1869
 20
20.4464
 11
46.9123
 21
20.1884
  0
LINE
  8
0
 10
46.9123
 20
20.1884
 11
46.6075
 21
19.967
  0
LINE
  8
0
 10
46.6075
 20
19.967
 11
46.2773
 21
19.7855
  0
LINE
  8
0
 10
46.2773
 20
19.7855
 11
45.927
 21
19.6468
  0
LINE
  8
0
 10
45.927
 20
19.6468
 11
45.5621
 21
19.5531
  0
LINE
  8
0
 10
45.5621
 20
19.5531
 11
45.1884
 21
19.5059
  0
LINE
  8
0
 10
45.1884
 20
19.5059
 11
44.8116
 21
19.5059
  0
LINE
  8
0
 10
-0.18837
 20
4.50591
 11
-0.562134
 21
4.55313
  0
LINE
  8
0
 10
-0.562134
 20
4.55313
 11
-0.927048
 21
4.64682
  0
LINE
  8
0
 10
-0.927048
 20
4.64682
 11
-1.27733
 21
4.78551
  0
LINE
  8
0
 10
-1.27733
 20
4.78551
 11
-1.60747
 21
4.96701
  0
LINE
  8
0
 10
-1.60747
 20
4.96701
 11
-1.91226
 21
5.18845
  0
LINE
  8
0
 10
-1.91226
 20
5.18845
 11
-2.1869
 21
5.44635
  0
LINE
  8
0
 10
-2.1869
 20
5.44635
 11
-2.42705
 21
5.73663
  0
LINE
  8
0
 10
-2.42705
 20
5.73663
 11
-2.62891
 21
6.05473
  0
LINE
  8
0
 10
-2.62891
 20
6.05473
 11
-2.78932
 21
6.39561
  0
LINE
  8
0
 10
-2.78932
 20
6.39561
 11
-2.90575
 21
6.75392
  0
LINE
  8
0
 10
-2.90575
 20
6.75392
 11
-2.97633
 21
7.12399
  0
LINE
  8
0
 10
-2.97633
 20
7.12399
 11
-3
 21
7.5
  0
LINE
  8
0
 10
-3
 20
7.5
 11
-2.97633
 21
7.87599
  0
LINE
  8
0
 10
-2.97633
 20
7.87599
 11
-2.90575
 21
8.24606
  0
LINE
  8
0
 10
-2.90575
 20
8.24606
 11
-2.78932
 21
8.60437
  0
LINE
  8
0
 10
-2.78932
 20
8.60437
 11
-2.62891
 21
8.94525
  0
LINE
  8
0
 10
-2.62891
 20
8.94525
 11
-2.42705
 21
9.26335
  0
LINE
  8
0
 10
-2.42705
 20
9.26335
 11
-2.1869
 21
9.55363
  0
LINE
  8
0
 10
-2.1869
 20
9.55363
 11
-1.91226
 21
9.81154
  0
LINE
  8
0
 10
-1.91226
 20
9.81154
 11
-1.60747
 21
10.033
  0
LINE
  8
0
 10
-1.60747
 20
10.033
 11
-1.27733
 21
10.2145
  0
LINE
  8
0
 10
-1.27733
 20
10.2145
 11
-0.927048
 21
10.3532
  0
LINE
  8
0
 10
-0.927048
 20
10.3532
 11
-0.562134
 21
10.4469
  0
LINE
  8
0
 10
-0.562134
 20
10.4469
 11
-0.18837
 21
10.4941
  0
LINE
  8
0
 10
-0.18837
 20
10.4941
 11
0.18837
 21
10.4941
  0
LINE
  8
0
 10
0.18837
 20
10.4941
 11
0.562134
 21
10.4469
  0
LINE
  8
0
 10
0.562134
 20
10.4469
 11
0.927048
 21
10.3532
  0
LINE
  8
0
 10
0.927048
 20
10.3532
 11
1.27733
 21
10.2145
  0
LINE
  8
0
 10
1.27733
 20
10.2145
 11
1.60747
 21
10.033
  0
LINE
  8
0
 10
1.60747
 20
10.033
 11
1.91226
 21
9.81154
  0
LINE
  8
0
 10
1.91226
 20
9.81154
 11
2.1869
 21
9.55363
  0
LINE
  8
0
 10
2.1869
 20
9.55363
 11
2.42705
 21
9.26335
  0
LINE
  8
0
 10
2.42705
 20
9.26335
 11
2.62891
 21
8.94525
  0
LINE
  8
0
 10
2.62891
 20
8.94525
 11
2.78932
 21
8.60437
  0
LINE
  8
0
 10
2.78932
 20
8.60437
 11
2.90575
 21
8.24606
  0
LINE
  8
0
 10
2.90575
 20
8.24606
 11
2.97633
 21
7.87599
  0
LINE
  8
0
 10
2.97633
 20
7.87599
 11
3
 21
7.5
  0
LINE
  8
0
 10
3
 20
7.5
 11
2.97633
 21
7.12399
  0
LINE
  8
0
 10
2.97633
 20
7.12399
 11
2.90575
 21
6.75392
  0
LINE
  8
0
 10
2.90575
 20
6.75392
 11
2.78932
 21
6.39561
  0
LINE
  8
0
 10
2.78932
 20
6.39561
 11
2.62891
 21
6.05473
  0
LINE
  8
0
 10
2.62891
 20
6.05473
 11
2.42705
 21
5.73663
  0
LINE
  8
0
 10
2.42705
 20
5.73663
 11
2.1869
 21
5.44635
  0
LINE
  8
0
 10
2.1869
 20
5.44635
 11
1.91226
 21
5.18845
  0
LINE
  8
0
 10
1.91226
 20
5.18845
 11
1.60747
 21
4.96701
  0
LINE
  8
0
 10
1.60747
 20
4.96701
 11
1.27733
 21
4.78551
  0
LINE
  8
0
 10
1.27733
 20
4.78551
 11
0.927048
 21
4.64682
  0
LINE
  8
0
 10
0.927048
 20
4.64682
 11
0.562134
 21
4.55313
  0
LINE
  8
0
 10
0.562134
 20
4.55313
 11
0.18837
 21
4.50591
  0
LINE
  8
0
 10
0.18837
 20
4.50591
 11
-0.18837
 21
4.50591
  0
LINE
  8
0
 10
14.8116
 20
4.50591
 11
14.4379
 21
4.55313
  0
LINE
  8
0
 10
14.4379
 20
4.55313
 11
14.0729
 21
4.64682
  0
LINE
  8
0
 10
14.0729
 20
4.64682
 11
13.7227
 21
4.78551
  0
LINE
  8
0
 10
13.7227
 20
4.78551
 11
13.3925
 21
4.96701
  0
LINE
  8
0
 10
13.3925
 20
4.96701
 11
13.0877
 21
5.18845
  0
LINE
  8
0
 10
13.0877
 20
5.18845
 11
12.8131
 21
5.44635
  0
LINE
  8
0
 10
12.8131
 20
5.44635
 11
12.5729
 21
5.73663
  0
LINE
  8
0
 10
12.5729
 20
5.73663
 11
12.3711
 21
6.05473
  0
LINE
  8
0
 10
12.3711
 20
6.05473
 11
12.2107
 21
6.39561
  0
LINE
  8
0
 10
12.2107
 20
6.39561
 11
12.0942
 21
6.75392
  0
LINE
  8
0
 10
12.0942
 20
6.75392
 11
12.0237
 21
7.12399
  0
LINE
  8
0
 10
12.0237
 20
7.12399
 11
12
 21
7.5
  0
LINE
  8
0
 10
12
 20
7.5
 11
12.0237
 21
7.87599
  0
LINE
  8
0
 10
12.0237
 20
7.87599
 11
12.0942
 21
8.24606
  0
LINE
  8
0
 10
12.0942
 20
8.24606
 11
12.2107
 21
8.60437
  0
LINE
  8
0
 10
12.2107
 20
8.60437
 11
12.3711
 21
8.94525
  0
LINE
  8
0
 10
12.3711
 20
8.94525
 11
12.5729
 21
9.26335
  0
LINE
  8
0
 10
12.5729
 20
9.26335
 11
12.8131
 21
9.55363
  0
LINE
  8
0
 10
12.8131
 20
9.55363
 11
13.0877
 21
9.81154
  0
LINE
  8
0
 10
13.0877
 20
9.81154
 11
13.3925
 21
10.033
  0
LINE
  8
0
 10
13.3925
 20
10.033
 11
13.7227
 21
10.2145
  0
LINE
  8
0
 10
13.7227
 20
10.2145
 11
14.0729
 21
10.3532
  0
LINE
  8
0
 10
14.0729
 20
10.3532
 11
14.4379
 21
10.4469
  0
LINE
  8
0
 10
14.4379
 20
10.4469
 11
14.8116
 21
10.4941
  0
LINE
  8
0
 10
14.8116
 20
10.4941
 11
15.1884
 21
10.4941
  0
LINE
  8
0
 10
15.1884
 20
10.4941
 11
15.5621
 21
10.4469
  0
LINE
  8
0
 10
15.5621
 20
10.4469
 11
15.927
 21
10.3532
  0
LINE
  8
0
 10
15.927
 20
10.3532
 11
16.2773
 21
10.2145
  0
LINE
  8
0
 10
16.2773
 20
10.2145
 11
16.6075
 21
10.033
  0
LINE
  8
0
 10
16.6075
 20
10.033
 11
16.9123
 21
9.81154
  0
LINE
  8
0
 10
16.9123
 20
9.81154
 11
17.1869
 21
9.55363
  0
LINE
  8
0
 10
17.1869
 20
9.55363
 11
17.427
 21
9.26335
  0
LINE
  8
0
 10
17.427
 20
9.26335
 11
17.6289
 21
8.94525
  0
LINE
  8
0
 10
17.6289
 20
8.94525
 11
17.7893
 21
8.60437
  0
LINE
  8
0
 10
17.7893
 20
8.60437
 11
17.9057
 21
8.24606
  0
LINE
  8
0
 10
17.9057
 20
8.24606
 11
17.9763
 21
7.87599
  0
LINE
  8
0
 10
17.9763
 20
7.87599
 11
18
 21
7.5
  0
LINE
  8
0
 10
18
 20
7.5
 11
17.9763
 21
7.12399
  0
LINE
  8
0
 10
17.9763
 20
7.12399
 11
17.9057
 21
6.75392
  0
LINE
  8
0
 10
17.9057
 20
6.75392
 11
17.7893
 21
6.39561
  0
LINE
  8
0
 10
17.7893
 20
6.39561
 11
17.6289
 21
6.05473
  0
LINE
  8
0
 10
17.6289
 20
6.05473
 11
17.427
 21
5.73663
  0
LINE
  8
0
 10
17.427
 20
5.73663
 11
17.1869
 21
5.44635
  0
LINE
  8
0
 10
17.1869
 20
5.44635
 11
16.9123
 21
5.18845
  0
LINE
  8
0
 10
16.9123
 20
5.18845
 11
16.6075
 21
4.96701
  0
LINE
  8
0
 10
16.6075
 20
4.96701
 11
16.2773
 21
4.78551
  0
LINE
  8
0
 10
16.2773
 20
4.78551
 11
15.927
 21
4.64682
  0
LINE
  8
0
 10
15.927
 20
4.64682
 11
15.5621
 21
4.55313
  0
LINE
  8
0
 10
15.5621
 20
4.55313
 11
15.1884
 21
4.50591
  0
LINE
  8
0
 10
15.1884
 20
4.50591
 11
14.8116
 21
4.50591
  0
LINE
  8
0
 10
44.8116
 20
4.50591
 11
44.4379
 21
4.55313
  0
LINE
  8
0
 10
44.4379
 20
4.55313
 11
44.0729
 21
4.64682
  0
LINE
  8
0
 10
44.0729
 20
4.64682
 11
43.7227
 21
4.78551
  0
LINE
  8
0
 10
43.7227
 20
4.78551
 11
43.3925
 21
4.96701
  0
LINE
  8
0
 10
43.3925
 20
4.96701
 11
43.0877
 21
5.18845
  0
LINE
  8
0
 10
43.0877
 20
5.18845
 11
42.8131
 21
5.44635
  0
LINE
  8
0
 10
42.8131
 20
5.44635
 11
42.5729
 21
5.73663
  0
LINE
  8
0
 10
42.5729
 20
5.73663
 11
42.3711
 21
6.05473
  0
LINE
  8
0
 10
42.3711
 20
6.05473
 11
42.2107
 21
6.39561
  0
LINE
  8
0
 10
42.2107
 20
6.39561
 11
42.0942
 21
6.75392
  0
LINE
  8
0
 10
42.0942
 20
6.75392
 11
42.0237
 21
7.12399
  0
LINE
  8
0
 10
42.0237
 20
7.12399
 11
42
 21
7.5
  0
LINE
  8
0
 10
42
 20
7.5
 11
42.0237
 21
7.87599
  0
LINE
  8
0
 10
42.0237
 20
7.87599
 11
42.0942
 21
8.24606
  0
LINE
  8
0
 10
42.0942
 20
8.24606
 11
42.2107
 21
8.60437
  0
LINE
  8
0
 10
42.2107
 20
8.60437
 11
42.3711
 21
8.94525
  0
LINE
  8
0
 10
42.3711
 20
8.94525
 11
42.5729
 21
9.26335
  0
LINE
  8
0
 10
42.5729
 20
9.26335
 11
42.8131
 21
9.55363
  0
LINE
  8
0
 10
42.8131
 20
9.55363
 11
43.0877
 21
9.81154
  0
LINE
  8
0
 10
43.0877
 20
9.81154
 11
43.3925
 21
10.033
  0
LINE
  8
0
 10
43.3925
 20
10.033
 11
43.7227
 21
10.2145
  0
LINE
  8
0
 10
43.7227
 20
10.2145
 11
44.0729
 21
10.3532
  0
LINE
  8
0
 10
44.0729
 20
10.3532
 11
44.4379
 21
10.4469
  0
LINE
  8
0
 10
44.4379
 20
10.4469
 11
44.8116
 21
10.4941
  0
LINE
  8
0
 10
44.8116
 20
10.4941
 11
45.1884
 21
10.4941
  0
LINE
  8
0
 10
45.1884
 20
10.4941
 11
45.5621
 21
10.4469
  0
LINE
  8
0
 10
45.5621
 20
10.4469
 11
45.927
 21
10.3532
  0
LINE
  8
0
 10
45.927
 20
10.3532
 11
46.2773
 21
10.2145
  0
LINE
  8
0
 10
46.2773
 20
10.2145
 11
46.6075
 21
10.033
  0
LINE
  8
0
 10
46.6075
 20
10.033
 11
46.9123
 21
9.81154
  0
LINE
  8
0
 10
46.9123
 20
9.81154
 11
47.1869
 21
9.55363
  0
LINE
  8
0
 10
47.1869
 20
9.55363
 11
47.427
 21
9.26335
  0
LINE
  8
0
 10
47.427
 20
9.26335
 11
47.6289
 21
8.94525
  0
LINE
  8
0
 10
47.6289
 20
8.94525
 11
47.7893
 21
8.60437
  0
LINE
  8
0
 10
47.7893
 20
8.60437
 11
47.9057
 21
8.24606
  0
LINE
  8
0
 10
47.9057
 20
8.24606
 11
47.9763
 21
7.87599
  0
LINE
  8
0
 10
47.9763
 20
7.87599
 11
48
 21
7.5
  0
LINE
  8
0
 10
48
 20
7.5
 11
47.9763
 21
7.12399
  0
LINE
  8
0
 10
47.9763
 20
7.12399
 11
47.9057
 21
6.75392
  0
LINE
  8
0
 10
47.9057
 20
6.75392
 11
47.7893
 21
6.39561
  0
LINE
  8
0
 10
47.7893
 20
6.39561
 11
47.6289
 21
6.05473
  0
LINE
  8
0
 10
47.6289
 20
6.05473
 11
47.427
 21
5.73663
  0
LINE
  8
0
 10
47.427
 20
5.73663
 11
47.1869
 21
5.44635
  0
LINE
  8
0
 10
47.1869
 20
5.44635
 11
46.9123
 21
5.18845
  0
LINE
  8
0
 10
46.9123
 20
5.18845
 11
46.6075
 21
4.96701
  0
LINE
  8
0
 10
46.6075
 20
4.96701
 11
46.2773
 21
4.78551
  0
LINE
  8
0
 10
46.2773
 20
4.78551
 11
45.927
 21
4.64682
  0
LINE
  8
0
 10
45.927
 20
4.64682
 11
45.5621
 21
4.55313
  0
LINE
  8
0
 10
45.5621
 20
4.55313
 11
45.1884
 21
4.50591
  0
LINE
  8
0
 10
45.1884
 20
4.50591
 11
44.8116
 21
4.50591
  0
LINE
  8
0
 10
-15.1884
 20
4.50591
 11
-15.5621
 21
4.55313
  0
LINE
  8
0
 10
-15.5621
 20
4.55313
 11
-15.927
 21
4.64682
  0
LINE
  8
0
 10
-15.927
 20
4.64682
 11
-16.2773
 21
4.78551
  0
LINE
  8
0
 10
-16.2773
 20
4.78551
 11
-16.6075
 21
4.96701
  0
LINE
  8
0
 10
-16.6075
 20
4.96701
 11
-16.9123
 21
5.18845
  0
LINE
  8
0
 10
-16.9123
 20
5.18845
 11
-17.1869
 21
5.44635
  0
LINE
  8
0
 10
-17.1869
 20
5.44635
 11
-17.427
 21
5.73663
  0
LINE
  8
0
 10
-17.427
 20
5.73663
 11
-17.6289
 21
6.05473
  0
LINE
  8
0
 10
-17.6289
 20
6.05473
 11
-17.7893
 21
6.39561
  0
LINE
  8
0
 10
-17.7893
 20
6.39561
 11
-17.9057
 21
6.75392
  0
LINE
  8
0
 10
-17.9057
 20
6.75392
 11
-17.9763
 21
7.12399
  0
LINE
  8
0
 10
-17.9763
 20
7.12399
 11
-18
 21
7.5
  0
LINE
  8
0
 10
-18
 20
7.5
 11
-17.9763
 21
7.87599
  0
LINE
  8
0
 10
-17.9763
 20
7.87599
 11
-17.9057
 21
8.24606
  0
LINE
  8
0
 10
-17.9057
 20
8.24606
 11
-17.7893
 21
8.60437
  0
LINE
  8
0
 10
-17.7893
 20
8.60437
 11
-17.6289
 21
8.94525
  0
LINE
  8
0
 10
-17.6289
 20
8.94525
 11
-17.427
 21
9.26335
  0
LINE
  8
0
 10
-17.427
 20
9.26335
 11
-17.1869
 21
9.55363
  0
LINE
  8
0
 10
-17.1869
 20
9.55363
 11
-16.9123
 21
9.81154
  0
LINE
  8
0
 10
-16.9123
 20
9.81154
 11
-16.6075
 21
10.033
  0
LINE
  8
0
 10
-16.6075
 20
10.033
 11
-16.2773
 21
10.2145
  0
LINE
  8
0
 10
-16.2773
 20
10.2145
 11
-15.927
 21
10.3532
  0
LINE
  8
0
 10
-15.927
 20
10.3532
 11
-15.5621
 21
10.4469
  0
LINE
  8
0
 10
-15.5621
 20
10.4469
 11
-15.1884
 21
10.4941
  0
LINE
  8
0
 10
-15.1884
 20
10.4941
 11
-14.8116
 21
10.4941
  0
LINE
  8
0
 10
-14.8116
 20
10.4941
 11
-14.4379
 21
10.4469
  0
LINE
  8
0
 10
-14.4379
 20
10.4469
 11
-14.0729
 21
10.3532
  0
LINE
  8
0
 10
-14.0729
 20
10.3532
 11
-13.7227
 21
10.2145
  0
LINE
  8
0
 10
-13.7227
 20
10.2145
 11
-13.3925
 21
10.033
  0
LINE
  8
0
 10
-13.3925
 20
10.033
 11
-13.0877
 21
9.81154
  0
LINE
  8
0
 10
-13.0877
 20
9.81154
 11
-12.8131
 21
9.55363
  0
LINE
  8
0
 10
-12.8131
 20
9.55363
 11
-12.5729
 21
9.26335
  0
LINE
  8
0
 10
-12.5729
 20
9.26335
 11
-12.3711
 21
8.94525
  0
LINE
  8
0
 10
-12.3711
 20
8.94525
 11
-12.2107
 21
8.60437
  0
LINE
  8
0
 10
-12.2107
 20
8.60437
 11
-12.0942
 21
8.24606
  0
LINE
  8
0
 10
-12.0942
 20
8.24606
 11
-12.0237
 21
7.87599
  0
LINE
  8
0
 10
-12.0237
 20
7.87599
 11
-12
 21
7.5
  0
LINE
  8
0
 10
-12
 20
7.5
 11
-12.0237
 21
7.12399
  0
LINE
  8
0
 10
-12.0237
 20
7.12399
 11
-12.0942
 21
6.75392
  0
LINE
  8
0
 10
-12.0942
 20
6.75392
 11
-12.2107
 21
6.39561
  0
LINE
  8
0
 10
-12.2107
 20
6.39561
 11
-12.3711
 21
6.05473
  0
LINE
  8
0
 10
-12.3711
 20
6.05473
 11
-12.5729
 21
5.73663
  0
LINE
  8
0
 10
-12.5729
 20
5.73663
 11
-12.8131
 21
5.44635
  0
LINE
  8
0
 10
-12.8131
 20
5.44635
 11
-13.0877
 21
5.18845
  0
LINE
  8
0
 10
-13.0877
 20
5.18845
 11
-13.3925
 21
4.96701
  0
LINE
  8
0
 10
-13.3925
 20
4.96701
 11
-13.7227
 21
4.78551
  0
LINE
  8
0
 10
-13.7227
 20
4.78551
 11
-14.0729
 21
4.64682
  0
LINE
  8
0
 10
-14.0729
 20
4.64682
 11
-14.4379
 21
4.55313
  0
LINE
  8
0
 10
-14.4379
 20
4.55313
 11
-14.8116
 21
4.50591
  0
LINE
  8
0
 10
-14.8116
 20
4.50591
 11
-15.1884
 21
4.50591
  0
LINE
  8
0
 10
-30.1884
 20
4.50591
 11
-30.5621
 21
4.55313
  0
LINE
  8
0
 10
-30.5621
 20
4.55313
 11
-30.927
 21
4.64682
  0
LINE
  8
0
 10
-30.927
 20
4.64682
 11
-31.2773
 21
4.78551
  0
LINE
  8
0
 10
-31.2773
 20
4.78551
 11
-31.6075
 21
4.96701
  0
LINE
  8
0
 10
-31.6075
 20
4.96701
 11
-31.9123
 21
5.18845
  0
LINE
  8
0
 10
-31.9123
 20
5.18845
 11
-32.1869
 21
5.44635
  0
LINE
  8
0
 10
-32.1869
 20
5.44635
 11
-32.427
 21
5.73663
  0
LINE
  8
0
 10
-32.427
 20
5.73663
 11
-32.6289
 21
6.05473
  0
LINE
  8
0
 10
-32.6289
 20
6.05473
 11
-32.7893
 21
6.39561
  0
LINE
  8
0
 10
-32.7893
 20
6.39561
 11
-32.9057
 21
6.75392
  0
LINE
  8
0
 10
-32.9057
 20
6.75392
 11
-32.9763
 21
7.12399
  0
LINE
  8
0
 10
-32.9763
 20
7.12399
 11
-33
 21
7.5
  0
LINE
  8
0
 10
-33
 20
7.5
 11
-32.9763
 21
7.87599
  0
LINE
  8
0
 10
-32.9763
 20
7.87599
 11
-32.9057
 21
8.24606
  0
LINE
  8
0
 10
-32.9057
 20
8.24606
 11
-32.7893
 21
8.60437
  0
LINE
  8
0
 10
-32.7893
 20
8.60437
 11
-32.6289
 21
8.94525
  0
LINE
  8
0
 10
-32.6289
 20
8.94525
 11
-32.427
 21
9.26335
  0
LINE
  8
0
 10
-32.427
 20
9.26335
 11
-32.1869
 21
9.55363
  0
LINE
  8
0
 10
-32.1869
 20
9.55363
 11
-31.9123
 21
9.81154
  0
LINE
  8
0
 10
-31.9123
 20
9.81154
 11
-31.6075
 21
10.033
  0
LINE
  8
0
 10
-31.6075
 20
10.033
 11
-31.2773
 21
10.2145
  0
LINE
  8
0
 10
-31.2773
 20
10.2145
 11
-30.927
 21
10.3532
  0
LINE
  8
0
 10
-30.927
 20
10.3532
 11
-30.5621
 21
10.4469
  0
LINE
  8
0
 10
-30.5621
 20
10.4469
 11
-30.1884
 21
10.4941
  0
LINE
  8
0
 10
-30.1884
 20
10.4941
 11
-29.8116
 21
10.4941
  0
LINE
  8
0
 10
-29.8116
 20
10.4941
 11
-29.4379
 21
10.4469
  0
LINE
  8
0
 10
-29.4379
 20
10.4469
 11
-29.0729
 21
10.3532
  0
LINE
  8
0
 10
-29.0729
 20
10.3532
 11
-28.7227
 21
10.2145
  0
LINE
  8
0
 10
-28.7227
 20
10.2145
 11
-28.3925
 21
10.033
  0
LINE
  8
0
 10
-28.3925
 20
10.033
 11
-28.0877
 21
9.81154
  0
LINE
  8
0
 10
-28.0877
 20
9.81154
 11
-27.8131
 21
9.55363
  0
LINE
  8
0
 10
-27.8131
 20
9.55363
 11
-27.5729
 21
9.26335
  0
LINE
  8
0
 10
-27.5729
 20
9.26335
 11
-27.3711
 21
8.94525
  0
LINE
  8
0
 10
-27.3711
 20
8.94525
 11
-27.2107
 21
8.60437
  0
LINE
  8
0
 10
-27.2107
 20
8.60437
 11
-27.0942
 21
8.24606
  0
LINE
  8
0
 10
-27.0942
 20
8.24606
 11
-27.0237
 21
7.87599
  0
LINE
  8
0
 10
-27.0237
 20
7.87599
 11
-27
 21
7.5
  0
LINE
  8
0
 10
-27
 20
7.5
 11
-27.0237
 21
7.12399
  0
LINE
  8
0
 10
-27.0237
 20
7.12399
 11
-27.0942
 21
6.75392
  0
LINE
  8
0
 10
-27.0942
 20
6.75392
 11
-27.2107
 21
6.39561
  0
LINE
  8
0
 10
-27.2107
 20
6.39561
 11
-27.3711
 21
6.05473
  0
LINE
  8
0
 10
-27.3711
 20
6.05473
 11
-27.5729
 21
5.73663
  0
LINE
  8
0
 10
-27.5729
 20
5.73663
 11
-27.8131
 21
5.44635
  0
LINE
  8
0
 10
-27.8131
 20
5.44635
 11
-28.0877
 21
5.18845
  0
LINE
  8
0
 10
-28.0877
 20
5.18845
 11
-28.3925
 21
4.96701
  0
LINE
  8
0
 10
-28.3925
 20
4.96701
 11
-28.7227
 21
4.78551
  0
LINE
  8
0
 10
-28.7227
 20
4.78551
 11
-29.0729
 21
4.64682
  0
LINE
  8
0
 10
-29.0729
 20
4.64682
 11
-29.4379
 21
4.55313
  0
LINE
  8
0
 10
-29.4379
 20
4.55313
 11
-29.8116
 21
4.50591
  0
LINE
  8
0
 10
-29.8116
 20
4.50591
 11
-30.1884
 21
4.50591
  0
LINE
  8
0
 10
29.8116
 20
4.50591
 11
29.4379
 21
4.55313
  0
LINE
  8
0
 10
29.4379
 20
4.55313
 11
29.0729
 21
4.64682
  0
LINE
  8
0
 10
29.0729
 20
4.64682
 11
28.7227
 21
4.78551
  0
LINE
  8
0
 10
28.7227
 20
4.78551
 11
28.3925
 21
4.96701
  0
LINE
  8
0
 10
28.3925
 20
4.96701
 11
28.0877
 21
5.18845
  0
LINE
  8
0
 10
28.0877
 20
5.18845
 11
27.8131
 21
5.44635
  0
LINE
  8
0
 10
27.8131
 20
5.44635
 11
27.5729
 21
5.73663
  0
LINE
  8
0
 10
27.5729
 20
5.73663
 11
27.3711
 21
6.05473
  0
LINE
  8
0
 10
27.3711
 20
6.05473
 11
27.2107
 21
6.39561
  0
LINE
  8
0
 10
27.2107
 20
6.39561
 11
27.0942
 21
6.75392
  0
LINE
  8
0
 10
27.0942
 20
6.75392
 11
27.0237
 21
7.12399
  0
LINE
  8
0
 10
27.0237
 20
7.12399
 11
27
 21
7.5
  0
LINE
  8
0
 10
27
 20
7.5
 11
27.0237
 21
7.87599
  0
LINE
  8
0
 10
27.0237
 20
7.87599
 11
27.0942
 21
8.24606
  0
LINE
  8
0
 10
27.0942
 20
8.24606
 11
27.2107
 21
8.60437
  0
LINE
  8
0
 10
27.2107
 20
8.60437
 11
27.3711
 21
8.94525
  0
LINE
  8
0
 10
27.3711
 20
8.94525
 11
27.5729
 21
9.26335
  0
LINE
  8
0
 10
27.5729
 20
9.26335
 11
27.8131
 21
9.55363
  0
LINE
  8
0
 10
27.8131
 20
9.55363
 11
28.0877
 21
9.81154
  0
LINE
  8
0
 10
28.0877
 20
9.81154
 11
28.3925
 21
10.033
  0
LINE
  8
0
 10
28.3925
 20
10.033
 11
28.7227
 21
10.2145
  0
LINE
  8
0
 10
28.7227
 20
10.2145
 11
29.0729
 21
10.3532
  0
LINE
  8
0
 10
29.0729
 20
10.3532
 11
29.4379
 21
10.4469
  0
LINE
  8
0
 10
29.4379
 20
10.4469
 11
29.8116
 21
10.4941
  0
LINE
  8
0
 10
29.8116
 20
10.4941
 11
30.1884
 21
10.4941
  0
LINE
  8
0
 10
30.1884
 20
10.4941
 11
30.5621
 21
10.4469
  0
LINE
  8
0
 10
30.5621
 20
10.4469
 11
30.927
 21
10.3532
  0
LINE
  8
0
 10
30.927
 20
10.3532
 11
31.2773
 21
10.2145
  0
LINE
  8
0
 10
31.2773
 20
10.2145
 11
31.6075
 21
10.033
  0
LINE
  8
0
 10
31.6075
 20
10.033
 11
31.9123
 21
9.81154
  0
LINE
  8
0
 10
31.9123
 20
9.81154
 11
32.1869
 21
9.55363
  0
LINE
  8
0
 10
32.1869
 20
9.55363
 11
32.427
 21
9.26335
  0
LINE
  8
0
 10
32.427
 20
9.26335
 11
32.6289
 21
8.94525
  0
LINE
  8
0
 10
32.6289
 20
8.94525
 11
32.7893
 21
8.60437
  0
LINE
  8
0
 10
32.7893
 20
8.60437
 11
32.9057
 21
8.24606
  0
LINE
  8
0
 10
32.9057
 20
8.24606
 11
32.9763
 21
7.87599
  0
LINE
  8
0
 10
32.9763
 20
7.87599
 11
33
 21
7.5
  0
LINE
  8
0
 10
33
 20
7.5
 11
32.9763
 21
7.12399
  0
LINE
  8
0
 10
32.9763
 20
7.12399
 11
32.9057
 21
6.75392
  0
LINE
  8
0
 10
32.9057
 20
6.75392
 11
32.7893
 21
6.39561
  0
LINE
  8
0
 10
32.7893
 20
6.39561
 11
32.6289
 21
6.05473
  0
LINE
  8
0
 10
32.6289
 20
6.05473
 11
32.427
 21
5.73663
  0
LINE
  8
0
 10
32.427
 20
5.73663
 11
32.1869
 21
5.44635
  0
LINE
  8
0
 10
32.1869
 20
5.44635
 11
31.9123
 21
5.18845
  0
LINE
  8
0
 10
31.9123
 20
5.18845
 11
31.6075
 21
4.96701
  0
LINE
  8
0
 10
31.6075
 20
4.96701
 11
31.2773
 21
4.78551
  0
LINE
  8
0
 10
31.2773
 20
4.78551
 11
30.927
 21
4.64682
  0
LINE
  8
0
 10
30.927
 20
4.64682
 11
30.5621
 21
4.55313
  0
LINE
  8
0
 10
30.5621
 20
4.55313
 11
30.1884
 21
4.50591
  0
LINE
  8
0
 10
30.1884
 20
4.50591
 11
29.8116
 21
4.50591
  0
LINE
  8
0
 10
-45.1884
 20
4.50591
 11
-45.5621
 21
4.55313
  0
LINE
  8
0
 10
-45.5621
 20
4.55313
 11
-45.927
 21
4.64682
  0
LINE
  8
0
 10
-45.927
 20
4.64682
 11
-46.2773
 21
4.78551
  0
LINE
  8
0
 10
-46.2773
 20
4.78551
 11
-46.6075
 21
4.96701
  0
LINE
  8
0
 10
-46.6075
 20
4.96701
 11
-46.9123
 21
5.18845
  0
LINE
  8
0
 10
-46.9123
 20
5.18845
 11
-47.1869
 21
5.44635
  0
LINE
  8
0
 10
-47.1869
 20
5.44635
 11
-47.427
 21
5.73663
  0
LINE
  8
0
 10
-47.427
 20
5.73663
 11
-47.6289
 21
6.05473
  0
LINE
  8
0
 10
-47.6289
 20
6.05473
 11
-47.7893
 21
6.39561
  0
LINE
  8
0
 10
-47.7893
 20
6.39561
 11
-47.9057
 21
6.75392
  0
LINE
  8
0
 10
-47.9057
 20
6.75392
 11
-47.9763
 21
7.12399
  0
LINE
  8
0
 10
-47.9763
 20
7.12399
 11
-48
 21
7.5
  0
LINE
  8
0
 10
-48
 20
7.5
 11
-47.9763
 21
7.87599
  0
LINE
  8
0
 10
-47.9763
 20
7.87599
 11
-47.9057
 21
8.24606
  0
LINE
  8
0
 10
-47.9057
 20
8.24606
 11
-47.7893
 21
8.60437
  0
LINE
  8
0
 10
-47.7893
 20
8.60437
 11
-47.6289
 21
8.94525
  0
LINE
  8
0
 10
-47.6289
 20
8.94525
 11
-47.427
 21
9.26335
  0
LINE
  8
0
 10
-47.427
 20
9.26335
 11
-47.1869
 21
9.55363
  0
LINE
  8
0
 10
-47.1869
 20
9.55363
 11
-46.9123
 21
9.81154
  0
LINE
  8
0
 10
-46.9123
 20
9.81154
 11
-46.6075
 21
10.033
  0
LINE
  8
0
 10
-46.6075
 20
10.033
 11
-46.2773
 21
10.2145
  0
LINE
  8
0
 10
-46.2773
 20
10.2145
 11
-45.927
 21
10.3532
  0
LINE
  8
0
 10
-45.927
 20
10.3532
 11
-45.5621
 21
10.4469
  0
LINE
  8
0
 10
-45.5621
 20
10.4469
 11
-45.1884
 21
10.4941
  0
LINE
  8
0
 10
-45.1884
 20
10.4941
 11
-44.8116
 21
10.4941
  0
LINE
  8
0
 10
-44.8116
 20
10.4941
 11
-44.4379
 21
10.4469
  0
LINE
  8
0
 10
-44.4379
 20
10.4469
 11
-44.0729
 21
10.3532
  0
LINE
  8
0
 10
-44.0729
 20
10.3532
 11
-43.7227
 21
10.2145
  0
LINE
  8
0
 10
-43.7227
 20
10.2145
 11
-43.3925
 21
10.033
  0
LINE
  8
0
 10
-43.3925
 20
10.033
 11
-43.0877
 21
9.81154
  0
LINE
  8
0
 10
-43.0877
 20
9.81154
 11
-42.8131
 21
9.55363
  0
LINE
  8
0
 10
-42.8131
 20
9.55363
 11
-42.5729
 21
9.26335
  0
LINE
  8
0
 10
-42.5729
 20
9.26335
 11
-42.3711
 21
8.94525
  0
LINE
  8
0
 10
-42.3711
 20
8.94525
 11
-42.2107
 21
8.60437
  0
LINE
  8
0
 10
-42.2107
 20
8.60437
 11
-42.0942
 21
8.24606
  0
LINE
  8
0
 10
-42.0942
 20
8.24606
 11
-42.0237
 21
7.87599
  0
LINE
  8
0
 10
-42.0237
 20
7.87599
 11
-42
 21
7.5
  0
LINE
  8
0
 10
-42
 20
7.5
 11
-42.0237
 21
7.12399
  0
LINE
  8
0
 10
-42.0237
 20
7.12399
 11
-42.0942
 21
6.75392
  0
LINE
  8
0
 10
-42.0942
 20
6.75392
 11
-42.2107
 21
6.39561
  0
LINE
  8
0
 10
-42.2107
 20
6.39561
 11
-42.3711
 21
6.05473
  0
LINE
  8
0
 10
-42.3711
 20
6.05473
 11
-42.5729
 21
5.73663
  0
LINE
  8
0
 10
-42.5729
 20
5.73663
 11
-42.8131
 21
5.44635
  0
LINE
  8
0
 10
-42.8131
 20
5.44635
 11
-43.0877
 21
5.18845
  0
LINE
  8
0
 10
-43.0877
 20
5.18845
 11
-43.3925
 21
4.96701
  0
LINE
  8
0
 10
-43.3925
 20
4.96701
 11
-43.7227
 21
4.78551
  0
LINE
  8
0
 10
-43.7227
 20
4.78551
 11
-44.0729
 21
4.64682
  0
LINE
  8
0
 10
-44.0729
 20
4.64682
 11
-44.4379
 21
4.55313
  0
LINE
  8
0
 10
-44.4379
 20
4.55313
 11
-44.8116
 21
4.50591
  0
LINE
  8
0
 10
-44.8116
 20
4.50591
 11
-45.1884
 21
4.50591
  0
LINE
  8
0
 10
-15.1884
 20
-10.4941
 11
-15.5621
 21
-10.4469
  0
LINE
  8
0
 10
-15.5621
 20
-10.4469
 11
-15.927
 21
-10.3532
  0
LINE
  8
0
 10
-15.927
 20
-10.3532
 11
-16.2773
 21
-10.2145
  0
LINE
  8
0
 10
-16.2773
 20
-10.2145
 11
-16.6075
 21
-10.033
  0
LINE
  8
0
 10
-16.6075
 20
-10.033
 11
-16.9123
 21
-9.81154
  0
LINE
  8
0
 10
-16.9123
 20
-9.81154
 11
-17.1869
 21
-9.55363
  0
LINE
  8
0
 10
-17.1869
 20
-9.55363
 11
-17.427
 21
-9.26335
  0
LINE
  8
0
 10
-17.427
 20
-9.26335
 11
-17.6289
 21
-8.94525
  0
LINE
  8
0
 10
-17.6289
 20
-8.94525
 11
-17.7893
 21
-8.60437
  0
LINE
  8
0
 10
-17.7893
 20
-8.60437
 11
-17.9057
 21
-8.24606
  0
LINE
  8
0
 10
-17.9057
 20
-8.24606
 11
-17.9763
 21
-7.87599
  0
LINE
  8
0
 10
-17.9763
 20
-7.87599
 11
-18
 21
-7.5
  0
LINE
  8
0
 10
-18
 20
-7.5
 11
-17.9763
 21
-7.12399
  0
LINE
  8
0
 10
-17.9763
 20
-7.12399
 11
-17.9057
 21
-6.75392
  0
LINE
  8
0
 10
-17.9057
 20
-6.75392
 11
-17.7893
 21
-6.39561
  0
LINE
  8
0
 10
-17.7893
 20
-6.39561
 11
-17.6289
 21
-6.05473
  0
LINE
  8
0
 10
-17.6289
 20
-6.05473
 11
-17.427
 21
-5.73663
  0
LINE
  8
0
 10
-17.427
 20
-5.73663
 11
-17.1869
 21
-5.44635
  0
LINE
  8
0
 10
-17.1869
 20
-5.44635
 11
-16.9123
 21
-5.18845
  0
LINE
  8
0
 10
-16.9123
 20
-5.18845
 11
-16.6075
 21
-4.96701
  0
LINE
  8
0
 10
-16.6075
 20
-4.96701
 11
-16.2773
 21
-4.78551
  0
LINE
  8
0
 10
-16.2773
 20
-4.78551
 11
-15.927
 21
-4.64682
  0
LINE
  8
0
 10
-15.927
 20
-4.64682
 11
-15.5621
 21
-4.55313
  0
LINE
  8
0
 10
-15.5621
 20
-4.55313
 11
-15.1884
 21
-4.50591
  0
LINE
  8
0
 10
-15.1884
 20
-4.50591
 11
-14.8116
 21
-4.50591
  0
LINE
  8
0
 10
-14.8116
 20
-4.50591
 11
-14.4379
 21
-4.55313
  0
LINE
  8
0
 10
-14.4379
 20
-4.55313
 11
-14.0729
 21
-4.64682
  0
LINE
  8
0
 10
-14.0729
 20
-4.64682
 11
-13.7227
 21
-4.78551
  0
LINE
  8
0
 10
-13.7227
 20
-4.78551
 11
-13.3925
 21
-4.96701
  0
LINE
  8
0
 10
-13.3925
 20
-4.96701
 11
-13.0877
 21
-5.18845
  0
LINE
  8
0
 10
-13.0877
 20
-5.18845
 11
-12.8131
 21
-5.44635
  0
LINE
  8
0
 10
-12.8131
 20
-5.44635
 11
-12.5729
 21
-5.73663
  0
LINE
  8
0
 10
-12.5729
 20
-5.73663
 11
-12.3711
 21
-6.05473
  0
LINE
  8
0
 10
-12.3711
 20
-6.05473
 11
-12.2107
 21
-6.39561
  0
LINE
  8
0
 10
-12.2107
 20
-6.39561
 11
-12.0942
 21
-6.75392
  0
LINE
  8
0
 10
-12.0942
 20
-6.75392
 11
-12.0237
 21
-7.12399
  0
LINE
  8
0
 10
-12.0237
 20
-7.12399
 11
-12
 21
-7.5
  0
LINE
  8
0
 10
-12
 20
-7.5
 11
-12.0237
 21
-7.87599
  0
LINE
  8
0
 10
-12.0237
 20
-7.87599
 11
-12.0942
 21
-8.24606
  0
LINE
  8
0
 10
-12.0942
 20
-8.24606
 11
-12.2107
 21
-8.60437
  0
LINE
  8
0
 10
-12.2107
 20
-8.60437
 11
-12.3711
 21
-8.94525
  0
LINE
  8
0
 10
-12.3711
 20
-8.94525
 11
-12.5729
 21
-9.26335
  0
LINE
  8
0
 10
-12.5729
 20
-9.26335
 11
-12.8131
 21
-9.55363
  0
LINE
  8
0
 10
-12.8131
 20
-9.55363
 11
-13.0877
 21
-9.81154
  0
LINE
  8
0
 10
-13.0877
 20
-9.81154
 11
-13.3925
 21
-10.033
  0
LINE
  8
0
 10
-13.3925
 20
-10.033
 11
-13.7227
 21
-10.2145
  0
LINE
  8
0
 10
-13.7227
 20
-10.2145
 11
-14.0729
 21
-10.3532
  0
LINE
  8
0
 10
-14.0729
 20
-10.3532
 11
-14.4379
 21
-10.4469
  0
LINE
  8
0
 10
-14.4379
 20
-10.4469
 11
-14.8116
 21
-10.4941
  0
LINE
  8
0
 10
-14.8116
 20
-10.4941
 11
-15.1884
 21
-10.4941
  0
LINE
  8
0
 10
-30.1884
 20
-10.4941
 11
-30.5621
 21
-10.4469
  0
LINE
  8
0
 10
-30.5621
 20
-10.4469
 11
-30.927
 21
-10.3532
  0
LINE
  8
0
 10
-30.927
 20
-10.3532
 11
-31.2773
 21
-10.2145
  0
LINE
  8
0
 10
-31.2773
 20
-10.2145
 11
-31.6075
 21
-10.033
  0
LINE
  8
0
 10
-31.6075
 20
-10.033
 11
-31.9123
 21
-9.81154
  0
LINE
  8
0
 10
-31.9123
 20
-9.81154
 11
-32.1869
 21
-9.55363
  0
LINE
  8
0
 10
-32.1869
 20
-9.55363
 11
-32.427
 21
-9.26335
  0
LINE
  8
0
 10
-32.427
 20
-9.26335
 11
-32.6289
 21
-8.94525
  0
LINE
  8
0
 10
-32.6289
 20
-8.94525
 11
-32.7893
 21
-8.60437
  0
LINE
  8
0
 10
-32.7893
 20
-8.60437
 11
-32.9057
 21
-8.24606
  0
LINE
  8
0
 10
-32.9057
 20
-8.24606
 11
-32.9763
 21
-7.87599
  0
LINE
  8
0
 10
-32.9763
 20
-7.87599
 11
-33
 21
-7.5
  0
LINE
  8
0
 10
-33
 20
-7.5
 11
-32.9763
 21
-7.12399
  0
LINE
  8
0
 10
-32.9763
 20
-7.12399
 11
-32.9057
 21
-6.75392
  0
LINE
  8
0
 10
-32.9057
 20
-6.75392
 11
-32.7893
 21
-6.39561
  0
LINE
  8
0
 10
-32.7893
 20
-6.39561
 11
-32.6289
 21
-6.05473
  0
LINE
  8
0
 10
-32.6289
 20
-6.05473
 11
-32.427
 21
-5.73663
  0
LINE
  8
0
 10
-32.427
 20
-5.73663
 11
-32.1869
 21
-5.44635
  0
LINE
  8
0
 10
-32.1869
 20
-5.44635
 11
-31.9123
 21
-5.18845
  0
LINE
  8
0
 10
-31.9123
 20
-5.18845
 11
-31.6075
 21
-4.96701
  0
LINE
  8
0
 10
-31.6075
 20
-4.96701
 11
-31.2773
 21
-4.78551
  0
LINE
  8
0
 10
-31.2773
 20
-4.78551
 11
-30.927
 21
-4.64682
  0
LINE
  8
0
 10
-30.927
 20
-4.64682
 11
-30.5621
 21
-4.55313
  0
LINE
  8
0
 10
-30.5621
 20
-4.55313
 11
-30.1884
 21
-4.50591
  0
LINE
  8
0
 10
-30.1884
 20
-4.50591
 11
-29.8116
 21
-4.50591
  0
LINE
  8
0
 10
-29.8116
 20
-4.50591
 11
-29.4379
 21
-4.55313
  0
LINE
  8
0
 10
-29.4379
 20
-4.55313
 11
-29.0729
 21
-4.64682
  0
LINE
  8
0
 10
-29.0729
 20
-4.64682
 11
-28.7227
 21
-4.78551
  0
LINE
  8
0
 10
-28.7227
 20
-4.78551
 11
-28.3925
 21
-4.96701
  0
LINE
  8
0
 10
-28.3925
 20
-4.96701
 11
-28.0877
 21
-5.18845
  0
LINE
  8
0
 10
-28.0877
 20
-5.18845
 11
-27.8131
 21
-5.44635
  0
LINE
  8
0
 10
-27.8131
 20
-5.44635
 11
-27.5729
 21
-5.73663
  0
LINE
  8
0
 10
-27.5729
 20
-5.73663
 11
-27.3711
 21
-6.05473
  0
LINE
  8
0
 10
-27.3711
 20
-6.05473
 11
-27.2107
 21
-6.39561
  0
LINE
  8
0
 10
-27.2107
 20
-6.39561
 11
-27.0942
 21
-6.75392
  0
LINE
  8
0
 10
-27.0942
 20
-6.75392
 11
-27.0237
 21
-7.12399
  0
LINE
  8
0
 10
-27.0237
 20
-7.12399
 11
-27
 21
-7.5
  0
LINE
  8
0
 10
-27
 20
-7.5
 11
-27.0237
 21
-7.87599
  0
LINE
  8
0
 10
-27.0237
 20
-7.87599
 11
-27.0942
 21
-8.24606
  0
LINE
  8
0
 10
-27.0942
 20
-8.24606
 11
-27.2107
 21
-8.60437
  0
LINE
  8
0
 10
-27.2107
 20
-8.60437
 11
-27.3711
 21
-8.94525
  0
LINE
  8
0
 10
-27.3711
 20
-8.94525
 11
-27.5729
 21
-9.26335
  0
LINE
  8
0
 10
-27.5729
 20
-9.26335
 11
-27.8131
 21
-9.55363
  0
LINE
  8
0
 10
-27.8131
 20
-9.55363
 11
-28.0877
 21
-9.81154
  0
LINE
  8
0
 10
-28.0877
 20
-9.81154
 11
-28.3925
 21
-10.033
  0
LINE
  8
0
 10
-28.3925
 20
-10.033
 11
-28.7227
 21
-10.2145
  0
LINE
  8
0
 10
-28.7227
 20
-10.2145
 11
-29.0729
 21
-10.3532
  0
LINE
  8
0
 10
-29.0729
 20
-10.3532
 11
-29.4379
 21
-10.4469
  0
LINE
  8
0
 10
-29.4379
 20
-10.4469
 11
-29.8116
 21
-10.4941
  0
LINE
  8
0
 10
-29.8116
 20
-10.4941
 11
-30.1884
 21
-10.4941
  0
LINE
  8
0
 10
-0.18837
 20
-10.4941
 11
-0.562134
 21
-10.4469
  0
LINE
  8
0
 10
-0.562134
 20
-10.4469
 11
-0.927048
 21
-10.3532
  0
LINE
  8
0
 10
-0.927048
 20
-10.3532
 11
-1.27733
 21
-10.2145
  0
LINE
  8
0
 10
-1.27733
 20
-10.2145
 11
-1.60747
 21
-10.033
  0
LINE
  8
0
 10
-1.60747
 20
-10.033
 11
-1.91226
 21
-9.81154
  0
LINE
  8
0
 10
-1.91226
 20
-9.81154
 11
-2.1869
 21
-9.55363
  0
LINE
  8
0
 10
-2.1869
 20
-9.55363
 11
-2.42705
 21
-9.26335
  0
LINE
  8
0
 10
-2.42705
 20
-9.26335
 11
-2.62891
 21
-8.94525
  0
LINE
  8
0
 10
-2.62891
 20
-8.94525
 11
-2.78932
 21
-8.60437
  0
LINE
  8
0
 10
-2.78932
 20
-8.60437
 11
-2.90575
 21
-8.24606
  0
LINE
  8
0
 10
-2.90575
 20
-8.24606
 11
-2.97633
 21
-7.87599
  0
LINE
  8
0
 10
-2.97633
 20
-7.87599
 11
-3
 21
-7.5
  0
LINE
  8
0
 10
-3
 20
-7.5
 11
-2.97633
 21
-7.12399
  0
LINE
  8
0
 10
-2.97633
 20
-7.12399
 11
-2.90575
 21
-6.75392
  0
LINE
  8
0
 10
-2.90575
 20
-6.75392
 11
-2.78932
 21
-6.39561
  0
LINE
  8
0
 10
-2.78932
 20
-6.39561
 11
-2.62891
 21
-6.05473
  0
LINE
  8
0
 10
-2.62891
 20
-6.05473
 11
-2.42705
 21
-5.73663
  0
LINE
  8
0
 10
-2.42705
 20
-5.73663
 11
-2.1869
 21
-5.44635
  0
LINE
  8
0
 10
-2.1869
 20
-5.44635
 11
-1.91226
 21
-5.18845
  0
LINE
  8
0
 10
-1.91226
 20
-5.18845
 11
-1.60747
 21
-4.96701
  0
LINE
  8
0
 10
-1.60747
 20
-4.96701
 11
-1.27733
 21
-4.78551
  0
LINE
  8
0
 10
-1.27733
 20
-4.78551
 11
-0.927048
 21
-4.64682
  0
LINE
  8
0
 10
-0.927048
 20
-4.64682
 11
-0.562134
 21
-4.55313
  0
LINE
  8
0
 10
-0.562134
 20
-4.55313
 11
-0.18837
 21
-4.50591
  0
LINE
  8
0
 10
-0.18837
 20
-4.50591
 11
0.18837
 21
-4.50591
  0
LINE
  8
0
 10
0.18837
 20
-4.50591
 11
0.562134
 21
-4.55313
  0
LINE
  8
0
 10
0.562134
 20
-4.55313
 11
0.927048
 21
-4.64682
  0
LINE
  8
0
 10
0.927048
 20
-4.64682
 11
1.27733
 21
-4.78551
  0
LINE
  8
0
 10
1.27733
 20
-4.78551
 11
1.60747
 21
-4.96701
  0
LINE
  8
0
 10
1.60747
 20
-4.96701
 11
1.91226
 21
-5.18845
  0
LINE
  8
0
 10
1.91226
 20
-5.18845
 11
2.1869
 21
-5.44635
  0
LINE
  8
0
 10
2.1869
 20
-5.44635
 11
2.42705
 21
-5.73663
  0
LINE
  8
0
 10
2.42705
 20
-5.73663
 11
2.62891
 21
-6.05473
  0
LINE
  8
0
 10
2.62891
 20
-6.05473
 11
2.78932
 21
-6.39561
  0
LINE
  8
0
 10
2.78932
 20
-6.39561
 11
2.90575
 21
-6.75392
  0
LINE
  8
0
 10
2.90575
 20
-6.75392
 11
2.97633
 21
-7.12399
  0
LINE
  8
0
 10
2.97633
 20
-7.12399
 11
3
 21
-7.5
  0
LINE
  8
0
 10
3
 20
-7.5
 11
2.97633
 21
-7.87599
  0
LINE
  8
0
 10
2.97633
 20
-7.87599
 11
2.90575
 21
-8.24606
  0
LINE
  8
0
 10
2.90575
 20
-8.24606
 11
2.78932
 21
-8.60437
  0
LINE
  8
0
 10
2.78932
 20
-8.60437
 11
2.62891
 21
-8.94525
  0
LINE
  8
0
 10
2.62891
 20
-8.94525
 11
2.42705
 21
-9.26335
  0
LINE
  8
0
 10
2.42705
 20
-9.26335
 11
2.1869
 21
-9.55363
  0
LINE
  8
0
 10
2.1869
 20
-9.55363
 11
1.91226
 21
-9.81154
  0
LINE
  8
0
 10
1.91226
 20
-9.81154
 11
1.60747
 21
-10.033
  0
LINE
  8
0
 10
1.60747
 20
-10.033
 11
1.27733
 21
-10.2145
  0
LINE
  8
0
 10
1.27733
 20
-10.2145
 11
0.927048
 21
-10.3532
  0
LINE
  8
0
 10
0.927048
 20
-10.3532
 11
0.562134
 21
-10.4469
  0
LINE
  8
0
 10
0.562134
 20
-10.4469
 11
0.18837
 21
-10.4941
  0
LINE
  8
0
 10
0.18837
 20
-10.4941
 11
-0.18837
 21
-10.4941
  0
LINE
  8
0
 10
44.8116
 20
-10.4941
 11
44.4379
 21
-10.4469
  0
LINE
  8
0
 10
44.4379
 20
-10.4469
 11
44.0729
 21
-10.3532
  0
LINE
  8
0
 10
44.0729
 20
-10.3532
 11
43.7227
 21
-10.2145
  0
LINE
  8
0
 10
43.7227
 20
-10.2145
 11
43.3925
 21
-10.033
  0
LINE
  8
0
 10
43.3925
 20
-10.033
 11
43.0877
 21
-9.81154
  0
LINE
  8
0
 10
43.0877
 20
-9.81154
 11
42.8131
 21
-9.55363
  0
LINE
  8
0
 10
42.8131
 20
-9.55363
 11
42.5729
 21
-9.26335
  0
LINE
  8
0
 10
42.5729
 20
-9.26335
 11
42.3711
 21
-8.94525
  0
LINE
  8
0
 10
42.3711
 20
-8.94525
 11
42.2107
 21
-8.60437
  0
LINE
  8
0
 10
42.2107
 20
-8.60437
 11
42.0942
 21
-8.24606
  0
LINE
  8
0
 10
42.0942
 20
-8.24606
 11
42.0237
 21
-7.87599
  0
LINE
  8
0
 10
42.0237
 20
-7.87599
 11
42
 21
-7.5
  0
LINE
  8
0
 10
42
 20
-7.5
 11
42.0237
 21
-7.12399
  0
LINE
  8
0
 10
42.0237
 20
-7.12399
 11
42.0942
 21
-6.75392
  0
LINE
  8
0
 10
42.0942
 20
-6.75392
 11
42.2107
 21
-6.39561
  0
LINE
  8
0
 10
42.2107
 20
-6.39561
 11
42.3711
 21
-6.05473
  0
LINE
  8
0
 10
42.3711
 20
-6.05473
 11
42.5729
 21
-5.73663
  0
LINE
  8
0
 10
42.5729
 20
-5.73663
 11
42.8131
 21
-5.44635
  0
LINE
  8
0
 10
42.8131
 20
-5.44635
 11
43.0877
 21
-5.18845
  0
LINE
  8
0
 10
43.0877
 20
-5.18845
 11
43.3925
 21
-4.96701
  0
LINE
  8
0
 10
43.3925
 20
-4.96701
 11
43.7227
 21
-4.78551
  0
LINE
  8
0
 10
43.7227
 20
-4.78551
 11
44.0729
 21
-4.64682
  0
LINE
  8
0
 10
44.0729
 20
-4.64682
 11
44.4379
 21
-4.55313
  0
LINE
  8
0
 10
44.4379
 20
-4.55313
 11
44.8116
 21
-4.50591
  0
LINE
  8
0
 10
44.8116
 20
-4.50591
 11
45.1884
 21
-4.50591
  0
LINE
  8
0
 10
45.1884
 20
-4.50591
 11
45.5621
 21
-4.55313
  0
LINE
  8
0
 10
45.5621
 20
-4.55313
 11
45.927
 21
-4.64682
  0
LINE
  8
0
 10
45.927
 20
-4.64682
 11
46.2773
 21
-4.78551
  0
LINE
  8
0
 10
46.2773
 20
-4.78551
 11
46.6075
 21
-4.96701
  0
LINE
  8
0
 10
46.6075
 20
-4.96701
 11
46.9123
 21
-5.18845
  0
LINE
  8
0
 10
46.9123
 20
-5.18845
 11
47.1869
 21
-5.44635
  0
LINE
  8
0
 10
47.1869
 20
-5.44635
 11
47.427
 21
-5.73663
  0
LINE
  8
0
 10
47.427
 20
-5.73663
 11
47.6289
 21
-6.05473
  0
LINE
  8
0
 10
47.6289
 20
-6.05473
 11
47.7893
 21
-6.39561
  0
LINE
  8
0
 10
47.7893
 20
-6.39561
 11
47.9057
 21
-6.75392
  0
LINE
  8
0
 10
47.9057
 20
-6.75392
 11
47.9763
 21
-7.12399
  0
LINE
  8
0
 10
47.9763
 20
-7.12399
 11
48
 21
-7.5
  0
LINE
  8
0
 10
48
 20
-7.5
 11
47.9763
 21
-7.87599
  0
LINE
  8
0
 10
47.9763
 20
-7.87599
 11
47.9057
 21
-8.24606
  0
LINE
  8
0
 10
47.9057
 20
-8.24606
 11
47.7893
 21
-8.60437
  0
LINE
  8
0
 10
47.7893
 20
-8.60437
 11
47.6289
 21
-8.94525
  0
LINE
  8
0
 10
47.6289
 20
-8.94525
 11
47.427
 21
-9.26335
  0
LINE
  8
0
 10
47.427
 20
-9.26335
 11
47.1869
 21
-9.55363
  0
LINE
  8
0
 10
47.1869
 20
-9.55363
 11
46.9123
 21
-9.81154
  0
LINE
  8
0
 10
46.9123
 20
-9.81154
 11
46.6075
 21
-10.033
  0
LINE
  8
0
 10
46.6075
 20
-10.033
 11
46.2773
 21
-10.2145
  0
LINE
  8
0
 10
46.2773
 20
-10.2145
 11
45.927
 21
-10.3532
  0
LINE
  8
0
 10
45.927
 20
-10.3532
 11
45.5621
 21
-10.4469
  0
LINE
  8
0
 10
45.5621
 20
-10.4469
 11
45.1884
 21
-10.4941
  0
LINE
  8
0
 10
45.1884
 20
-10.4941
 11
44.8116
 21
-10.4941
  0
LINE
  8
0
 10
-45.1884
 20
-10.4941
 11
-45.5621
 21
-10.4469
  0
LINE
  8
0
 10
-45.5621
 20
-10.4469
 11
-45.927
 21
-10.3532
  0
LINE
  8
0
 10
-45.927
 20
-10.3532
 11
-46.2773
 21
-10.2145
  0
LINE
  8
0
 10
-46.2773
 20
-10.2145
 11
-46.6075
 21
-10.033
  0
LINE
  8
0
 10
-46.6075
 20
-10.033
 11
-46.9123
 21
-9.81154
  0
LINE
  8
0
 10
-46.9123
 20
-9.81154
 11
-47.1869
 21
-9.55363
  0
LINE
  8
0
 10
-47.1869
 20
-9.55363
 11
-47.427
 21
-9.26335
  0
LINE
  8
0
 10
-47.427
 20
-9.26335
 11
-47.6289
 21
-8.94525
  0
LINE
  8
0
 10
-47.6289
 20
-8.94525
 11
-47.7893
 21
-8.60437
  0
LINE
  8
0
 10
-47.7893
 20
-8.60437
 11
-47.9057
 21
-8.24606
  0
LINE
  8
0
 10
-47.9057
 20
-8.24606
 11
-47.9763
 21
-7.87599
  0
LINE
  8
0
 10
-47.9763
 20
-7.87599
 11
-48
 21
-7.5
  0
LINE
  8
0
 10
-48
 20
-7.5
 11
-47.9763
 21
-7.12399
  0
LINE
  8
0
 10
-47.9763
 20
-7.12399
 11
-47.9057
 21
-6.75392
  0
LINE
  8
0
 10
-47.9057
 20
-6.75392
 11
-47.7893
 21
-6.39561
  0
LINE
  8
0
 10
-47.7893
 20
-6.39561
 11
-47.6289
 21
-6.05473
  0
LINE
  8
0
 10
-47.6289
 20
-6.05473
 11
-47.427
 21
-5.73663
  0
LINE
  8
0
 10
-47.427
 20
-5.73663
 11
-47.1869
 21
-5.44635
  0
LINE
  8
0
 10
-47.1869
 20
-5.44635
 11
-46.9123
 21
-5.18845
  0
LINE
  8
0
 10
-46.9123
 20
-5.18845
 11
-46.6075
 21
-4.96701
  0
LINE
  8
0
 10
-46.6075
 20
-4.96701
 11
-46.2773
 21
-4.78551
  0
LINE
  8
0
 10
-46.2773
 20
-4.78551
 11
-45.927
 21
-4.64682
  0
LINE
  8
0
 10
-45.927
 20
-4.64682
 11
-45.5621
 21
-4.55313
  0
LINE
  8
0
 10
-45.5621
 20
-4.55313
 11
-45.1884
 21
-4.50591
  0
LINE
  8
0
 10
-45.1884
 20
-4.50591
 11
-44.8116
 21
-4.50591
  0
LINE
  8
0
 10
-44.8116
 20
-4.50591
 11
-44.4379
 21
-4.55313
  0
LINE
  8
0
 10
-44.4379
 20
-4.55313
 11
-44.0729
 21
-4.64682
  0
LINE
  8
0
 10
-44.0729
 20
-4.64682
 11
-43.7227
 21
-4.78551
  0
LINE
  8
0
 10
-43.7227
 20
-4.78551
 11
-43.3925
 21
-4.96701
  0
LINE
  8
0
 10
-43.3925
 20
-4.96701
 11
-43.0877
 21
-5.18845
  0
LINE
  8
0
 10
-43.0877
 20
-5.18845
 11
-42.8131
 21
-5.44635
  0
LINE
  8
0
 10
-42.8131
 20
-5.44635
 11
-42.5729
 21
-5.73663
  0
LINE
  8
0
 10
-42.5729
 20
-5.73663
 11
-42.3711
 21
-6.05473
  0
LINE
  8
0
 10
-42.3711
 20
-6.05473
 11
-42.2107
 21
-6.39561
  0
LINE
  8
0
 10
-42.2107
 20
-6.39561
 11
-42.0942
 21
-6.75392
  0
LINE
  8
0
 10
-42.0942
 20
-6.75392
 11
-42.0237
 21
-7.12399
  0
LINE
  8
0
 10
-42.0237
 20
-7.12399
 11
-42
 21
-7.5
  0
LINE
  8
0
 10
-42
 20
-7.5
 11
-42.0237
 21
-7.87599
  0
LINE
  8
0
 10
-42.0237
 20
-7.87599
 11
-42.0942
 21
-8.24606
  0
LINE
  8
0
 10
-42.0942
 20
-8.24606
 11
-42.2107
 21
-8.60437
  0
LINE
  8
0
 10
-42.2107
 20
-8.60437
 11
-42.3711
 21
-8.94525
  0
LINE
  8
0
 10
-42.3711
 20
-8.94525
 11
-42.5729
 21
-9.26335
  0
LINE
  8
0
 10
-42.5729
 20
-9.26335
 11
-42.8131
 21
-9.55363
  0
LINE
  8
0
 10
-42.8131
 20
-9.55363
 11
-43.0877
 21
-9.81154
  0
LINE
  8
0
 10
-43.0877
 20
-9.81154
 11
-43.3925
 21
-10.033
  0
LINE
  8
0
 10
-43.3925
 20
-10.033
 11
-43.7227
 21
-10.2145
  0
LINE
  8
0
 10
-43.7227
 20
-10.2145
 11
-44.0729
 21
-10.3532
  0
LINE
  8
0
 10
-44.0729
 20
-10.3532
 11
-44.4379
 21
-10.4469
  0
LINE
  8
0
 10
-44.4379
 20
-10.4469
 11
-44.8116
 21
-10.4941
  0
LINE
  8
0
 10
-44.8116
 20
-10.4941
 11
-45.1884
 21
-10.4941
  0
LINE
  8
0
 10
29.8116
 20
-10.4941
 11
29.4379
 21
-10.4469
  0
LINE
  8
0
 10
29.4379
 20
-10.4469
 11
29.0729
 21
-10.3532
  0
LINE
  8
0
 10
29.0729
 20
-10.3532
 11
28.7227
 21
-10.2145
  0
LINE
  8
0
 10
28.7227
 20
-10.2145
 11
28.3925
 21
-10.033
  0
LINE
  8
0
 10
28.3925
 20
-10.033
 11
28.0877
 21
-9.81154
  0
LINE
  8
0
 10
28.0877
 20
-9.81154
 11
27.8131
 21
-9.55363
  0
LINE
  8
0
 10
27.8131
 20
-9.55363
 11
27.5729
 21
-9.26335
  0
LINE
  8
0
 10
27.5729
 20
-9.26335
 11
27.3711
 21
-8.94525
  0
LINE
  8
0
 10
27.3711
 20
-8.94525
 11
27.2107
 21
-8.60437
  0
LINE
  8
0
 10
27.2107
 20
-8.60437
 11
27.0942
 21
-8.24606
  0
LINE
  8
0
 10
27.0942
 20
-8.24606
 11
27.0237
 21
-7.87599
  0
LINE
  8
0
 10
27.0237
 20
-7.87599
 11
27
 21
-7.5
  0
LINE
  8
0
 10
27
 20
-7.5
 11
27.0237
 21
-7.12399
  0
LINE
  8
0
 10
27.0237
 20
-7.12399
 11
27.0942
 21
-6.75392
  0
LINE
  8
0
 10
27.0942
 20
-6.75392
 11
27.2107
 21
-6.39561
  0
LINE
  8
0
 10
27.2107
 20
-6.39561
 11
27.3711
 21
-6.05473
  0
LINE
  8
0
 10
27.3711
 20
-6.05473
 11
27.5729
 21
-5.73663
  0
LINE
  8
0
 10
27.5729
 20
-5.73663
 11
27.8131
 21
-5.44635
  0
LINE
  8
0
 10
27.8131
 20
-5.44635
 11
28.0877
 21
-5.18845
  0
LINE
  8
0
 10
28.0877
 20
-5.18845
 11
28.3925
 21
-4.96701
  0
LINE
  8
0
 10
28.3925
 20
-4.96701
 11
28.7227
 21
-4.78551
  0
LINE
  8
0
 10
28.7227
 20
-4.78551
 11
29.0729
 21
-4.64682
  0
LINE
  8
0
 10
29.0729
 20
-4.64682
 11
29.4379
 21
-4.55313
  0
LINE
  8
0
 10
29.4379
 20
-4.55313
 11
29.8116
 21
-4.50591
  0
LINE
  8
0
 10
29.8116
 20
-4.50591
 11
30.1884
 21
-4.50591
  0
LINE
  8
0
 10
30.1884
 20
-4.50591
 11
30.5621
 21
-4.55313
  0
LINE
  8
0
 10
30.5621
 20
-4.55313
 11
30.927
 21
-4.64682
  0
LINE
  8
0
 10
30.927
 20
-4.64682
 11
31.2773
 21
-4.78551
  0
LINE
  8
0
 10
31.2773
 20
-4.78551
 11
31.6075
 21
-4.96701
  0
LINE
  8
0
 10
31.6075
 20
-4.96701
 11
31.9123
 21
-5.18845
  0
LINE
  8
0
 10
31.9123
 20
-5.18845
 11
32.1869
 21
-5.44635
  0
LINE
  8
0
 10
32.1869
 20
-5.44635
 11
32.427
 21
-5.73663
  0
LINE
  8
0
 10
32.427
 20
-5.73663
 11
32.6289
 21
-6.05473
  0
LINE
  8
0
 10
32.6289
 20
-6.05473
 11
32.7893
 21
-6.39561
  0
LINE
  8
0
 10
32.7893
 20
-6.39561
 11
32.9057
 21
-6.75392
  0
LINE
  8
0
 10
32.9057
 20
-6.75392
 11
32.9763
 21
-7.12399
  0
LINE
  8
0
 10
32.9763
 20
-7.12399
 11
33
 21
-7.5
  0
LINE
  8
0
 10
33
 20
-7.5
 11
32.9763
 21
-7.87599
  0
LINE
  8
0
 10
32.9763
 20
-7.87599
 11
32.9057
 21
-8.24606
  0
LINE
  8
0
 10
32.9057
 20
-8.24606
 11
32.7893
 21
-8.60437
  0
LINE
  8
0
 10
32.7893
 20
-8.60437
 11
32.6289
 21
-8.94525
  0
LINE
  8
0
 10
32.6289
 20
-8.94525
 11
32.427
 21
-9.26335
  0
LINE
  8
0
 10
32.427
 20
-9.26335
 11
32.1869
 21
-9.55363
  0
LINE
  8
0
 10
32.1869
 20
-9.55363
 11
31.9123
 21
-9.81154
  0
LINE
  8
0
 10
31.9123
 20
-9.81154
 11
31.6075
 21
-10.033
  0
LINE
  8
0
 10
31.6075
 20
-10.033
 11
31.2773
 21
-10.2145
  0
LINE
  8
0
 10
31.2773
 20
-10.2145
 11
30.927
 21
-10.3532
  0
LINE
  8
0
 10
30.927
 20
-10.3532
 11
30.5621
 21
-10.4469
  0
LINE
  8
0
 10
30.5621
 20
-10.4469
 11
30.1884
 21
-10.4941
  0
LINE
  8
0
 10
30.1884
 20
-10.4941
 11
29.8116
 21
-10.4941
  0
LINE
  8
0
 10
14.8116
 20
-10.4941
 11
14.4379
 21
-10.4469
  0
LINE
  8
0
 10
14.4379
 20
-10.4469
 11
14.0729
 21
-10.3532
  0
LINE
  8
0
 10
14.0729
 20
-10.3532
 11
13.7227
 21
-10.2145
  0
LINE
  8
0
 10
13.7227
 20
-10.2145
 11
13.3925
 21
-10.033
  0
LINE
  8
0
 10
13.3925
 20
-10.033
 11
13.0877
 21
-9.81154
  0
LINE
  8
0
 10
13.0877
 20
-9.81154
 11
12.8131
 21
-9.55363
  0
LINE
  8
0
 10
12.8131
 20
-9.55363
 11
12.5729
 21
-9.26335
  0
LINE
  8
0
 10
12.5729
 20
-9.26335
 11
12.3711
 21
-8.94525
  0
LINE
  8
0
 10
12.3711
 20
-8.94525
 11
12.2107
 21
-8.60437
  0
LINE
  8
0
 10
12.2107
 20
-8.60437
 11
12.0942
 21
-8.24606
  0
LINE
  8
0
 10
12.0942
 20
-8.24606
 11
12.0237
 21
-7.87599
  0
LINE
  8
0
 10
12.0237
 20
-7.87599
 11
12
 21
-7.5
  0
LINE
  8
0
 10
12
 20
-7.5
 11
12.0237
 21
-7.12399
  0
LINE
  8
0
 10
12.0237
 20
-7.12399
 11
12.0942
 21
-6.75392
  0
LINE
  8
0
 10
12.0942
 20
-6.75392
 11
12.2107
 21
-6.39561
  0
LINE
  8
0
 10
12.2107
 20
-6.39561
 11
12.3711
 21
-6.05473
  0
LINE
  8
0
 10
12.3711
 20
-6.05473
 11
12.5729
 21
-5.73663
  0
LINE
  8
0
 10
12.5729
 20
-5.73663
 11
12.8131
 21
-5.44635
  0
LINE
  8
0
 10
12.8131
 20
-5.44635
 11
13.0877
 21
-5.18845
  0
LINE
  8
0
 10
13.0877
 20
-5.18845
 11
13.3925
 21
-4.96701
  0
LINE
  8
0
 10
13.3925
 20
-4.96701
 11
13.7227
 21
-4.78551
  0
LINE
  8
0
 10
13.7227
 20
-4.78551
 11
14.0729
 21
-4.64682
  0
LINE
  8
0
 10
14.0729
 20
-4.64682
 11
14.4379
 21
-4.55313
  0
LINE
  8
0
 10
14.4379
 20
-4.55313
 11
14.8116
 21
-4.50591
  0
LINE
  8
0
 10
14.8116
 20
-4.50591
 11
15.1884
 21
-4.50591
  0
LINE
  8
0
 10
15.1884
 20
-4.50591
 11
15.5621
 21
-4.55313
  0
LINE
  8
0
 10
15.5621
 20
-4.55313
 11
15.927
 21
-4.64682
  0
LINE
  8
0
 10
15.927
 20
-4.64682
 11
16.2773
 21
-4.78551
  0
LINE
  8
0
 10
16.2773
 20
-4.78551
 11
16.6075
 21
-4.96701
  0
LINE
  8
0
 10
16.6075
 20
-4.96701
 11
16.9123
 21
-5.18845
  0
LINE
  8
0
 10
16.9123
 20
-5.18845
 11
17.1869
 21
-5.44635
  0
LINE
  8
0
 10
17.1869
 20
-5.44635
 11
17.427
 21
-5.73663
  0
LINE
  8
0
 10
17.427
 20
-5.73663
 11
17.6289
 21
-6.05473
  0
LINE
  8
0
 10
17.6289
 20
-6.05473
 11
17.7893
 21
-6.39561
  0
LINE
  8
0
 10
17.7893
 20
-6.39561
 11
17.9057
 21
-6.75392
  0
LINE
  8
0
 10
17.9057
 20
-6.75392
 11
17.9763
 21
-7.12399
  0
LINE
  8
0
 10
17.9763
 20
-7.12399
 11
18
 21
-7.5
  0
LINE
  8
0
 10
18
 20
-7.5
 11
17.9763
 21
-7.87599
  0
LINE
  8
0
 10
17.9763
 20
-7.87599
 11
17.9057
 21
-8.24606
  0
LINE
  8
0
 10
17.9057
 20
-8.24606
 11
17.7893
 21
-8.60437
  0
LINE
  8
0
 10
17.7893
 20
-8.60437
 11
17.6289
 21
-8.94525
  0
LINE
  8
0
 10
17.6289
 20
-8.94525
 11
17.427
 21
-9.26335
  0
LINE
  8
0
 10
17.427
 20
-9.26335
 11
17.1869
 21
-9.55363
  0
LINE
  8
0
 10
17.1869
 20
-9.55363
 11
16.9123
 21
-9.81154
  0
LINE
  8
0
 10
16.9123
 20
-9.81154
 11
16.6075
 21
-10.033
  0
LINE
  8
0
 10
16.6075
 20
-10.033
 11
16.2773
 21
-10.2145
  0
LINE
  8
0
 10
16.2773
 20
-10.2145
 11
15.927
 21
-10.3532
  0
LINE
  8
0
 10
15.927
 20
-10.3532
 11
15.5621
 21
-10.4469
  0
LINE
  8
0
 10
15.5621
 20
-10.4469
 11
15.1884
 21
-10.4941
  0
LINE
  8
0
 10
15.1884
 20
-10.4941
 11
14.8116
 21
-10.4941
  0
LINE
  8
0
 10
-30.1884
 20
-25.4941
 11
-30.5621
 21
-25.4469
  0
LINE
  8
0
 10
-30.5621
 20
-25.4469
 11
-30.927
 21
-25.3532
  0
LINE
  8
0
 10
-30.927
 20
-25.3532
 11
-31.2773
 21
-25.2145
  0
LINE
  8
0
 10
-31.2773
 20
-25.2145
 11
-31.6075
 21
-25.033
  0
LINE
  8
0
 10
-31.6075
 20
-25.033
 11
-31.9123
 21
-24.8115
  0
LINE
  8
0
 10
-31.9123
 20
-24.8115
 11
-32.1869
 21
-24.5536
  0
LINE
  8
0
 10
-32.1869
 20
-24.5536
 11
-32.427
 21
-24.2634
  0
LINE
  8
0
 10
-32.427
 20
-24.2634
 11
-32.6289
 21
-23.9453
  0
LINE
  8
0
 10
-32.6289
 20
-23.9453
 11
-32.7893
 21
-23.6044
  0
LINE
  8
0
 10
-32.7893
 20
-23.6044
 11
-32.9057
 21
-23.2461
  0
LINE
  8
0
 10
-32.9057
 20
-23.2461
 11
-32.9763
 21
-22.876
  0
LINE
  8
0
 10
-32.9763
 20
-22.876
 11
-33
 21
-22.5
  0
LINE
  8
0
 10
-33
 20
-22.5
 11
-32.9763
 21
-22.124
  0
LINE
  8
0
 10
-32.9763
 20
-22.124
 11
-32.9057
 21
-21.7539
  0
LINE
  8
0
 10
-32.9057
 20
-21.7539
 11
-32.7893
 21
-21.3956
  0
LINE
  8
0
 10
-32.7893
 20
-21.3956
 11
-32.6289
 21
-21.0547
  0
LINE
  8
0
 10
-32.6289
 20
-21.0547
 11
-32.427
 21
-20.7366
  0
LINE
  8
0
 10
-32.427
 20
-20.7366
 11
-32.1869
 21
-20.4464
  0
LINE
  8
0
 10
-32.1869
 20
-20.4464
 11
-31.9123
 21
-20.1884
  0
LINE
  8
0
 10
-31.9123
 20
-20.1884
 11
-31.6075
 21
-19.967
  0
LINE
  8
0
 10
-31.6075
 20
-19.967
 11
-31.2773
 21
-19.7855
  0
LINE
  8
0
 10
-31.2773
 20
-19.7855
 11
-30.927
 21
-19.6468
  0
LINE
  8
0
 10
-30.927
 20
-19.6468
 11
-30.5621
 21
-19.5531
  0
LINE
  8
0
 10
-30.5621
 20
-19.5531
 11
-30.1884
 21
-19.5059
  0
LINE
  8
0
 10
-30.1884
 20
-19.5059
 11
-29.8116
 21
-19.5059
  0
LINE
  8
0
 10
-29.8116
 20
-19.5059
 11
-29.4379
 21
-19.5531
  0
LINE
  8
0
 10
-29.4379
 20
-19.5531
 11
-29.0729
 21
-19.6468
  0
LINE
  8
0
 10
-29.0729
 20
-19.6468
 11
-28.7227
 21
-19.7855
  0
LINE
  8
0
 10
-28.7227
 20
-19.7855
 11
-28.3925
 21
-19.967
  0
LINE
  8
0
 10
-28.3925
 20
-19.967
 11
-28.0877
 21
-20.1884
  0
LINE
  8
0
 10
-28.0877
 20
-20.1884
 11
-27.8131
 21
-20.4464
  0
LINE
  8
0
 10
-27.8131
 20
-20.4464
 11
-27.5729
 21
-20.7366
  0
LINE
  8
0
 10
-27.5729
 20
-20.7366
 11
-27.3711
 21
-21.0547
  0
LINE
  8
0
 10
-27.3711
 20
-21.0547
 11
-27.2107
 21
-21.3956
  0
LINE
  8
0
 10
-27.2107
 20
-21.3956
 11
-27.0942
 21
-21.7539
  0
LINE
  8
0
 10
-27.0942
 20
-21.7539
 11
-27.0237
 21
-22.124
  0
LINE
  8
0
 10
-27.0237
 20
-22.124
 11
-27
 21
-22.5
  0
LINE
  8
0
 10
-27
 20
-22.5
 11
-27.0237
 21
-22.876
  0
LINE
  8
0
 10
-27.0237
 20
-22.876
 11
-27.0942
 21
-23.2461
  0
LINE
  8
0
 10
-27.0942
 20
-23.2461
 11
-27.2107
 21
-23.6044
  0
LINE
  8
0
 10
-27.2107
 20
-23.6044
 11
-27.3711
 21
-23.9453
  0
LINE
  8
0
 10
-27.3711
 20
-23.9453
 11
-27.5729
 21
-24.2634
  0
LINE
  8
0
 10
-27.5729
 20
-24.2634
 11
-27.8131
 21
-24.5536
  0
LINE
  8
0
 10
-27.8131
 20
-24.5536
 11
-28.0877
 21
-24.8115
  0
LINE
  8
0
 10
-28.0877
 20
-24.8115
 11
-28.3925
 21
-25.033
  0
LINE
  8
0
 10
-28.3925
 20
-25.033
 11
-28.7227
 21
-25.2145
  0
LINE
  8
0
 10
-28.7227
 20
-25.2145
 11
-29.0729
 21
-25.3532
  0
LINE
  8
0
 10
-29.0729
 20
-25.3532
 11
-29.4379
 21
-25.4469
  0
LINE
  8
0
 10
-29.4379
 20
-25.4469
 11
-29.8116
 21
-25.4941
  0
LINE
  8
0
 10
-29.8116
 20
-25.4941
 11
-30.1884
 21
-25.4941
  0
LINE
  8
0
 10
-0.18837
 20
-25.4941
 11
-0.562134
 21
-25.4469
  0
LINE
  8
0
 10
-0.562134
 20
-25.4469
 11
-0.927048
 21
-25.3532
  0
LINE
  8
0
 10
-0.927048
 20
-25.3532
 11
-1.27733
 21
-25.2145
  0
LINE
  8
0
 10
-1.27733
 20
-25.2145
 11
-1.60747
 21
-25.033
  0
LINE
  8
0
 10
-1.60747
 20
-25.033
 11
-1.91226
 21
-24.8115
  0
LINE
  8
0
 10
-1.91226
 20
-24.8115
 11
-2.1869
 21
-24.5536
  0
LINE
  8
0
 10
-2.1869
 20
-24.5536
 11
-2.42705
 21
-24.2634
  0
LINE
  8
0
 10
-2.42705
 20
-24.2634
 11
-2.62891
 21
-23.9453
  0
LINE
  8
0
 10
-2.62891
 20
-23.9453
 11
-2.78932
 21
-23.6044
  0
LINE
  8
0
 10
-2.78932
 20
-23.6044
 11
-2.90575
 21
-23.2461
  0
LINE
  8
0
 10
-2.90575
 20
-23.2461
 11
-2.97633
 21
-22.876
  0
LINE
  8
0
 10
-2.97633
 20
-22.876
 11
-3
 21
-22.5
  0
LINE
  8
0
 10
-3
 20
-22.5
 11
-2.97633
 21
-22.124
  0
LINE
  8
0
 10
-2.97633
 20
-22.124
 11
-2.90575
 21
-21.7539
  0
LINE
  8
0
 10
-2.90575
 20
-21.7539
 11
-2.78932
 21
-21.3956
  0
LINE
  8
0
 10
-2.78932
 20
-21.3956
 11
-2.62891
 21
-21.0547
  0
LINE
  8
0
 10
-2.62891
 20
-21.0547
 11
-2.42705
 21
-20.7366
  0
LINE
  8
0
 10
-2.42705
 20
-20.7366
 11
-2.1869
 21
-20.4464
  0
LINE
  8
0
 10
-2.1869
 20
-20.4464
 11
-1.91226
 21
-20.1884
  0
LINE
  8
0
 10
-1.91226
 20
-20.1884
 11
-1.60747
 21
-19.967
  0
LINE
  8
0
 10
-1.60747
 20
-19.967
 11
-1.27733
 21
-19.7855
  0
LINE
  8
0
 10
-1.27733
 20
-19.7855
 11
-0.927048
 21
-19.6468
  0
LINE
  8
0
 10
-0.927048
 20
-19.6468
 11
-0.562134
 21
-19.5531
  0
LINE
  8
0
 10
-0.562134
 20
-19.5531
 11
-0.18837
 21
-19.5059
  0
LINE
  8
0
 10
-0.18837
 20
-19.5059
 11
0.18837
 21
-19.5059
  0
LINE
  8
0
 10
0.18837
 20
-19.5059
 11
0.562134
 21
-19.5531
  0
LINE
  8
0
 10
0.562134
 20
-19.5531
 11
0.927048
 21
-19.6468
  0
LINE
  8
0
 10
0.927048
 20
-19.6468
 11
1.27733
 21
-19.7855
  0
LINE
  8
0
 10
1.27733
 20
-19.7855
 11
1.60747
 21
-19.967
  0
LINE
  8
0
 10
1.60747
 20
-19.967
 11
1.91226
 21
-20.1884
  0
LINE
  8
0
 10
1.91226
 20
-20.1884
 11
2.1869
 21
-20.4464
  0
LINE
  8
0
 10
2.1869
 20
-20.4464
 11
2.42705
 21
-20.7366
  0
LINE
  8
0
 10
2.42705
 20
-20.7366
 11
2.62891
 21
-21.0547
  0
LINE
  8
0
 10
2.62891
 20
-21.0547
 11
2.78932
 21
-21.3956
  0
LINE
  8
0
 10
2.78932
 20
-21.3956
 11
2.90575
 21
-21.7539
  0
LINE
  8
0
 10
2.90575
 20
-21.7539
 11
2.97633
 21
-22.124
  0
LINE
  8
0
 10
2.97633
 20
-22.124
 11
3
 21
-22.5
  0
LINE
  8
0
 10
3
 20
-22.5
 11
2.97633
 21
-22.876
  0
LINE
  8
0
 10
2.97633
 20
-22.876
 11
2.90575
 21
-23.2461
  0
LINE
  8
0
 10
2.90575
 20
-23.2461
 11
2.78932
 21
-23.6044
  0
LINE
  8
0
 10
2.78932
 20
-23.6044
 11
2.62891
 21
-23.9453
  0
LINE
  8
0
 10
2.62891
 20
-23.9453
 11
2.42705
 21
-24.2634
  0
LINE
  8
0
 10
2.42705
 20
-24.2634
 11
2.1869
 21
-24.5536
  0
LINE
  8
0
 10
2.1869
 20
-24.5536
 11
1.91226
 21
-24.8115
  0
LINE
  8
0
 10
1.91226
 20
-24.8115
 11
1.60747
 21
-25.033
  0
LINE
  8
0
 10
1.60747
 20
-25.033
 11
1.27733
 21
-25.2145
  0
LINE
  8
0
 10
1.27733
 20
-25.2145
 11
0.927048
 21
-25.3532
  0
LINE
  8
0
 10
0.927048
 20
-25.3532
 11
0.562134
 21
-25.4469
  0
LINE
  8
0
 10
0.562134
 20
-25.4469
 11
0.18837
 21
-25.4941
  0
LINE
  8
0
 10
0.18837
 20
-25.4941
 11
-0.18837
 21
-25.4941
  0
LINE
  8
0
 10
44.8116
 20
-25.4941
 11
44.4379
 21
-25.4469
  0
LINE
  8
0
 10
44.4379
 20
-25.4469
 11
44.0729
 21
-25.3532
  0
LINE
  8
0
 10
44.0729
 20
-25.3532
 11
43.7227
 21
-25.2145
  0
LINE
  8
0
 10
43.7227
 20
-25.2145
 11
43.3925
 21
-25.033
  0
LINE
  8
0
 10
43.3925
 20
-25.033
 11
43.0877
 21
-24.8115
  0
LINE
  8
0
 10
43.0877
 20
-24.8115
 11
42.8131
 21
-24.5536
  0
LINE
  8
0
 10
42.8131
 20
-24.5536
 11
42.5729
 21
-24.2634
  0
LINE
  8
0
 10
42.5729
 20
-24.2634
 11
42.3711
 21
-23.9453
  0
LINE
  8
0
 10
42.3711
 20
-23.9453
 11
42.2107
 21
-23.6044
  0
LINE
  8
0
 10
42.2107
 20
-23.6044
 11
42.0942
 21
-23.2461
  0
LINE
  8
0
 10
42.0942
 20
-23.2461
 11
42.0237
 21
-22.876
  0
LINE
  8
0
 10
42.0237
 20
-22.876
 11
42
 21
-22.5
  0
LINE
  8
0
 10
42
 20
-22.5
 11
42.0237
 21
-22.124
  0
LINE
  8
0
 10
42.0237
 20
-22.124
 11
42.0942
 21
-21.7539
  0
LINE
  8
0
 10
42.0942
 20
-21.7539
 11
42.2107
 21
-21.3956
  0
LINE
  8
0
 10
42.2107
 20
-21.3956
 11
42.3711
 21
-21.0547
  0
LINE
  8
0
 10
42.3711
 20
-21.0547
 11
42.5729
 21
-20.7366
  0
LINE
  8
0
 10
42.5729
 20
-20.7366
 11
42.8131
 21
-20.4464
  0
LINE
  8
0
 10
42.8131
 20
-20.4464
 11
43.0877
 21
-20.1884
  0
LINE
  8
0
 10
43.0877
 20
-20.1884
 11
43.3925
 21
-19.967
  0
LINE
  8
0
 10
43.3925
 20
-19.967
 11
43.7227
 21
-19.7855
  0
LINE
  8
0
 10
43.7227
 20
-19.7855
 11
44.0729
 21
-19.6468
  0
LINE
  8
0
 10
44.0729
 20
-19.6468
 11
44.4379
 21
-19.5531
  0
LINE
  8
0
 10
44.4379
 20
-19.5531
 11
44.8116
 21
-19.5059
  0
LINE
  8
0
 10
44.8116
 20
-19.5059
 11
45.1884
 21
-19.5059
  0
LINE
  8
0
 10
45.1884
 20
-19.5059
 11
45.5621
 21
-19.5531
  0
LINE
  8
0
 10
45.5621
 20
-19.5531
 11
45.927
 21
-19.6468
  0
LINE
  8
0
 10
45.927
 20
-19.6468
 11
46.2773
 21
-19.7855
  0
LINE
  8
0
 10
46.2773
 20
-19.7855
 11
46.6075
 21
-19.967
  0
LINE
  8
0
 10
46.6075
 20
-19.967
 11
46.9123
 21
-20.1884
  0
LINE
  8
0
 10
46.9123
 20
-20.1884
 11
47.1869
 21
-20.4464
  0
LINE
  8
0
 10
47.1869
 20
-20.4464
 11
47.427
 21
-20.7366
  0
LINE
  8
0
 10
47.427
 20
-20.7366
 11
47.6289
 21
-21.0547
  0
LINE
  8
0
 10
47.6289
 20
-21.0547
 11
47.7893
 21
-21.3956
  0
LINE
  8
0
 10
47.7893
 20
-21.3956
 11
47.9057
 21
-21.7539
  0
LINE
  8
0
 10
47.9057
 20
-21.7539
 11
47.9763
 21
-22.124
  0
LINE
  8
0
 10
47.9763
 20
-22.124
 11
48
 21
-22.5
  0
LINE
  8
0
 10
48
 20
-22.5
 11
47.9763
 21
-22.876
  0
LINE
  8
0
 10
47.9763
 20
-22.876
 11
47.9057
 21
-23.2461
  0
LINE
  8
0
 10
47.9057
 20
-23.2461
 11
47.7893
 21
-23.6044
  0
LINE
  8
0
 10
47.7893
 20
-23.6044
 11
47.6289
 21
-23.9453
  0
LINE
  8
0
 10
47.6289
 20
-23.9453
 11
47.427
 21
-24.2634
  0
LINE
  8
0
 10
47.427
 20
-24.2634
 11
47.1869
 21
-24.5536
  0
LINE
  8
0
 10
47.1869
 20
-24.5536
 11
46.9123
 21
-24.8115
  0
LINE
  8
0
 10
46.9123
 20
-24.8115
 11
46.6075
 21
-25.033
  0
LINE
  8
0
 10
46.6075
 20
-25.033
 11
46.2773
 21
-25.2145
  0
LINE
  8
0
 10
46.2773
 20
-25.2145
 11
45.927
 21
-25.3532
  0
LINE
  8
0
 10
45.927
 20
-25.3532
 11
45.5621
 21
-25.4469
  0
LINE
  8
0
 10
45.5621
 20
-25.4469
 11
45.1884
 21
-25.4941
  0
LINE
  8
0
 10
45.1884
 20
-25.4941
 11
44.8116
 21
-25.4941
  0
LINE
  8
0
 10
-15.1884
 20
-25.4941
 11
-15.5621
 21
-25.4469
  0
LINE
  8
0
 10
-15.5621
 20
-25.4469
 11
-15.927
 21
-25.3532
  0
LINE
  8
0
 10
-15.927
 20
-25.3532
 11
-16.2773
 21
-25.2145
  0
LINE
  8
0
 10
-16.2773
 20
-25.2145
 11
-16.6075
 21
-25.033
  0
LINE
  8
0
 10
-16.6075
 20
-25.033
 11
-16.9123
 21
-24.8115
  0
LINE
  8
0
 10
-16.9123
 20
-24.8115
 11
-17.1869
 21
-24.5536
  0
LINE
  8
0
 10
-17.1869
 20
-24.5536
 11
-17.427
 21
-24.2634
  0
LINE
  8
0
 10
-17.427
 20
-24.2634
 11
-17.6289
 21
-23.9453
  0
LINE
  8
0
 10
-17.6289
 20
-23.9453
 11
-17.7893
 21
-23.6044
  0
LINE
  8
0
 10
-17.7893
 20
-23.6044
 11
-17.9057
 21
-23.2461
  0
LINE
  8
0
 10
-17.9057
 20
-23.2461
 11
-17.9763
 21
-22.876
  0
LINE
  8
0
 10
-17.9763
 20
-22.876
 11
-18
 21
-22.5
  0
LINE
  8
0
 10
-18
 20
-22.5
 11
-17.9763
 21
-22.124
  0
LINE
  8
0
 10
-17.9763
 20
-22.124
 11
-17.9057
 21
-21.7539
  0
LINE
  8
0
 10
-17.9057
 20
-21.7539
 11
-17.7893
 21
-21.3956
  0
LINE
  8
0
 10
-17.7893
 20
-21.3956
 11
-17.6289
 21
-21.0547
  0
LINE
  8
0
 10
-17.6289
 20
-21.0547
 11
-17.427
 21
-20.7366
  0
LINE
  8
0
 10
-17.427
 20
-20.7366
 11
-17.1869
 21
-20.4464
  0
LINE
  8
0
 10
-17.1869
 20
-20.4464
 11
-16.9123
 21
-20.1884
  0
LINE
  8
0
 10
-16.9123
 20
-20.1884
 11
-16.6075
 21
-19.967
  0
LINE
  8
0
 10
-16.6075
 20
-19.967
 11
-16.2773
 21
-19.7855
  0
LINE
  8
0
 10
-16.2773
 20
-19.7855
 11
-15.927
 21
-19.6468
  0
LINE
  8
0
 10
-15.927
 20
-19.6468
 11
-15.5621
 21
-19.5531
  0
LINE
  8
0
 10
-15.5621
 20
-19.5531
 11
-15.1884
 21
-19.5059
  0
LINE
  8
0
 10
-15.1884
 20
-19.5059
 11
-14.8116
 21
-19.5059
  0
LINE
  8
0
 10
-14.8116
 20
-19.5059
 11
-14.4379
 21
-19.5531
  0
LINE
  8
0
 10
-14.4379
 20
-19.5531
 11
-14.0729
 21
-19.6468
  0
LINE
  8
0
 10
-14.0729
 20
-19.6468
 11
-13.7227
 21
-19.7855
  0
LINE
  8
0
 10
-13.7227
 20
-19.7855
 11
-13.3925
 21
-19.967
  0
LINE
  8
0
 10
-13.3925
 20
-19.967
 11
-13.0877
 21
-20.1884
  0
LINE
  8
0
 10
-13.0877
 20
-20.1884
 11
-12.8131
 21
-20.4464
  0
LINE
  8
0
 10
-12.8131
 20
-20.4464
 11
-12.5729
 21
-20.7366
  0
LINE
  8
0
 10
-12.5729
 20
-20.7366
 11
-12.3711
 21
-21.0547
  0
LINE
  8
0
 10
-12.3711
 20
-21.0547
 11
-12.2107
 21
-21.3956
  0
LINE
  8
0
 10
-12.2107
 20
-21.3956
 11
-12.0942
 21
-21.7539
  0
LINE
  8
0
 10
-12.0942
 20
-21.7539
 11
-12.0237
 21
-22.124
  0
LINE
  8
0
 10
-12.0237
 20
-22.124
 11
-12
 21
-22.5
  0
LINE
  8
0
 10
-12
 20
-22.5
 11
-12.0237
 21
-22.876
  0
LINE
  8
0
 10
-12.0237
 20
-22.876
 11
-12.0942
 21
-23.2461
  0
LINE
  8
0
 10
-12.0942
 20
-23.2461
 11
-12.2107
 21
-23.6044
  0
LINE
  8
0
 10
-12.2107
 20
-23.6044
 11
-12.3711
 21
-23.9453
  0
LINE
  8
0
 10
-12.3711
 20
-23.9453
 11
-12.5729
 21
-24.2634
  0
LINE
  8
0
 10
-12.5729
 20
-24.2634
 11
-12.8131
 21
-24.5536
  0
LINE
  8
0
 10
-12.8131
 20
-24.5536
 11
-13.0877
 21
-24.8115
  0
LINE
  8
0
 10
-13.0877
 20
-24.8115
 11
-13.3925
 21
-25.033
  0
LINE
  8
0
 10
-13.3925
 20
-25.033
 11
-13.7227
 21
-25.2145
  0
LINE
  8
0
 10
-13.7227
 20
-25.2145
 11
-14.0729
 21
-25.3532
  0
LINE
  8
0
 10
-14.0729
 20
-25.3532
 11
-14.4379
 21
-25.4469
  0
LINE
  8
0
 10
-14.4379
 20
-25.4469
 11
-14.8116
 21
-25.4941
  0
LINE
  8
0
 10
-14.8116
 20
-25.4941
 11
-15.1884
 21
-25.4941
  0
LINE
  8
0
 10
14.8116
 20
-25.4941
 11
14.4379
 21
-25.4469
  0
LINE
  8
0
 10
14.4379
 20
-25.4469
 11
14.0729
 21
-25.3532
  0
LINE
  8
0
 10
14.0729
 20
-25.3532
 11
13.7227
 21
-25.2145
  0
LINE
  8
0
 10
13.7227
 20
-25.2145
 11
13.3925
 21
-25.033
  0
LINE
  8
0
 10
13.3925
 20
-25.033
 11
13.0877
 21
-24.8115
  0
LINE
  8
0
 10
13.0877
 20
-24.8115
 11
12.8131
 21
-24.5536
  0
LINE
  8
0
 10
12.8131
 20
-24.5536
 11
12.5729
 21
-24.2634
  0
LINE
  8
0
 10
12.5729
 20
-24.2634
 11
12.3711
 21
-23.9453
  0
LINE
  8
0
 10
12.3711
 20
-23.9453
 11
12.2107
 21
-23.6044
  0
LINE
  8
0
 10
12.2107
 20
-23.6044
 11
12.0942
 21
-23.2461
  0
LINE
  8
0
 10
12.0942
 20
-23.2461
 11
12.0237
 21
-22.876
  0
LINE
  8
0
 10
12.0237
 20
-22.876
 11
12
 21
-22.5
  0
LINE
  8
0
 10
12
 20
-22.5
 11
12.0237
 21
-22.124
  0
LINE
  8
0
 10
12.0237
 20
-22.124
 11
12.0942
 21
-21.7539
  0
LINE
  8
0
 10
12.0942
 20
-21.7539
 11
12.2107
 21
-21.3956
  0
LINE
  8
0
 10
12.2107
 20
-21.3956
 11
12.3711
 21
-21.0547
  0
LINE
  8
0
 10
12.3711
 20
-21.0547
 11
12.5729
 21
-20.7366
  0
LINE
  8
0
 10
12.5729
 20
-20.7366
 11
12.8131
 21
-20.4464
  0
LINE
  8
0
 10
12.8131
 20
-20.4464
 11
13.0877
 21
-20.1884
  0
LINE
  8
0
 10
13.0877
 20
-20.1884
 11
13.3925
 21
-19.967
  0
LINE
  8
0
 10
13.3925
 20
-19.967
 11
13.7227
 21
-19.7855
  0
LINE
  8
0
 10
13.7227
 20
-19.7855
 11
14.0729
 21
-19.6468
  0
LINE
  8
0
 10
14.0729
 20
-19.6468
 11
14.4379
 21
-19.5531
  0
LINE
  8
0
 10
14.4379
 20
-19.5531
 11
14.8116
 21
-19.5059
  0
LINE
  8
0
 10
14.8116
 20
-19.5059
 11
15.1884
 21
-19.5059
  0
LINE
  8
0
 10
15.1884
 20
-19.5059
 11
15.5621
 21
-19.5531
  0
LINE
  8
0
 10
15.5621
 20
-19.5531
 11
15.927
 21
-19.6468
  0
LINE
  8
0
 10
15.927
 20
-19.6468
 11
16.2773
 21
-19.7855
  0
LINE
  8
0
 10
16.2773
 20
-19.7855
 11
16.6075
 21
-19.967
  0
LINE
  8
0
 10
16.6075
 20
-19.967
 11
16.9123
 21
-20.1884
  0
LINE
  8
0
 10
16.9123
 20
-20.1884
 11
17.1869
 21
-20.4464
  0
LINE
  8
0
 10
17.1869
 20
-20.4464
 11
17.427
 21
-20.7366
  0
LINE
  8
0
 10
17.427
 20
-20.7366
 11
17.6289
 21
-21.0547
  0
LINE
  8
0
 10
17.6289
 20
-21.0547
 11
17.7893
 21
-21.3956
  0
LINE
  8
0
 10
17.7893
 20
-21.3956
 11
17.9057
 21
-21.7539
  0
LINE
  8
0
 10
17.9057
 20
-21.7539
 11
17.9763
 21
-22.124
  0
LINE
  8
0
 10
17.9763
 20
-22.124
 11
18
 21
-22.5
  0
LINE
  8
0
 10
18
 20
-22.5
 11
17.9763
 21
-22.876
  0
LINE
  8
0
 10
17.9763
 20
-22.876
 11
17.9057
 21
-23.2461
  0
LINE
  8
0
 10
17.9057
 20
-23.2461
 11
17.7893
 21
-23.6044
  0
LINE
  8
0
 10
17.7893
 20
-23.6044
 11
17.6289
 21
-23.9453
  0
LINE
  8
0
 10
17.6289
 20
-23.9453
 11
17.427
 21
-24.2634
  0
LINE
  8
0
 10
17.427
 20
-24.2634
 11
17.1869
 21
-24.5536
  0
LINE
  8
0
 10
17.1869
 20
-24.5536
 11
16.9123
 21
-24.8115
  0
LINE
  8
0
 10
16.9123
 20
-24.8115
 11
16.6075
 21
-25.033
  0
LINE
  8
0
 10
16.6075
 20
-25.033
 11
16.2773
 21
-25.2145
  0
LINE
  8
0
 10
16.2773
 20
-25.2145
 11
15.927
 21
-25.3532
  0
LINE
  8
0
 10
15.927
 20
-25.3532
 11
15.5621
 21
-25.4469
  0
LINE
  8
0
 10
15.5621
 20
-25.4469
 11
15.1884
 21
-25.4941
  0
LINE
  8
0
 10
15.1884
 20
-25.4941
 11
14.8116
 21
-25.4941
  0
LINE
  8
0
 10
-45.1884
 20
-25.4941
 11
-45.5621
 21
-25.4469
  0
LINE
  8
0
 10
-45.5621
 20
-25.4469
 11
-45.927
 21
-25.3532
  0
LINE
  8
0
 10
-45.927
 20
-25.3532
 11
-46.2773
 21
-25.2145
  0
LINE
  8
0
 10
-46.2773
 20
-25.2145
 11
-46.6075
 21
-25.033
  0
LINE
  8
0
 10
-46.6075
 20
-25.033
 11
-46.9123
 21
-24.8115
  0
LINE
  8
0
 10
-46.9123
 20
-24.8115
 11
-47.1869
 21
-24.5536
  0
LINE
  8
0
 10
-47.1869
 20
-24.5536
 11
-47.427
 21
-24.2634
  0
LINE
  8
0
 10
-47.427
 20
-24.2634
 11
-47.6289
 21
-23.9453
  0
LINE
  8
0
 10
-47.6289
 20
-23.9453
 11
-47.7893
 21
-23.6044
  0
LINE
  8
0
 10
-47.7893
 20
-23.6044
 11
-47.9057
 21
-23.2461
  0
LINE
  8
0
 10
-47.9057
 20
-23.2461
 11
-47.9763
 21
-22.876
  0
LINE
  8
0
 10
-47.9763
 20
-22.876
 11
-48
 21
-22.5
  0
LINE
  8
0
 10
-48
 20
-22.5
 11
-47.9763
 21
-22.124
  0
LINE
  8
0
 10
-47.9763
 20
-22.124
 11
-47.9057
 21
-21.7539
  0
LINE
  8
0
 10
-47.9057
 20
-21.7539
 11
-47.7893
 21
-21.3956
  0
LINE
  8
0
 10
-47.7893
 20
-21.3956
 11
-47.6289
 21
-21.0547
  0
LINE
  8
0
 10
-47.6289
 20
-21.0547
 11
-47.427
 21
-20.7366
  0
LINE
  8
0
 10
-47.427
 20
-20.7366
 11
-47.1869
 21
-20.4464
  0
LINE
  8
0
 10
-47.1869
 20
-20.4464
 11
-46.9123
 21
-20.1884
  0
LINE
  8
0
 10
-46.9123
 20
-20.1884
 11
-46.6075
 21
-19.967
  0
LINE
  8
0
 10
-46.6075
 20
-19.967
 11
-46.2773
 21
-19.7855
  0
LINE
  8
0
 10
-46.2773
 20
-19.7855
 11
-45.927
 21
-19.6468
  0
LINE
  8
0
 10
-45.927
 20
-19.6468
 11
-45.5621
 21
-19.5531
  0
LINE
  8
0
 10
-45.5621
 20
-19.5531
 11
-45.1884
 21
-19.5059
  0
LINE
  8
0
 10
-45.1884
 20
-19.5059
 11
-44.8116
 21
-19.5059
  0
LINE
  8
0
 10
-44.8116
 20
-19.5059
 11
-44.4379
 21
-19.5531
  0
LINE
  8
0
 10
-44.4379
 20
-19.5531
 11
-44.0729
 21
-19.6468
  0
LINE
  8
0
 10
-44.0729
 20
-19.6468
 11
-43.7227
 21
-19.7855
  0
LINE
  8
0
 10
-43.7227
 20
-19.7855
 11
-43.3925
 21
-19.967
  0
LINE
  8
0
 10
-43.3925
 20
-19.967
 11
-43.0877
 21
-20.1884
  0
LINE
  8
0
 10
-43.0877
 20
-20.1884
 11
-42.8131
 21
-20.4464
  0
LINE
  8
0
 10
-42.8131
 20
-20.4464
 11
-42.5729
 21
-20.7366
  0
LINE
  8
0
 10
-42.5729
 20
-20.7366
 11
-42.3711
 21
-21.0547
  0
LINE
  8
0
 10
-42.3711
 20
-21.0547
 11
-42.2107
 21
-21.3956
  0
LINE
  8
0
 10
-42.2107
 20
-21.3956
 11
-42.0942
 21
-21.7539
  0
LINE
  8
0
 10
-42.0942
 20
-21.7539
 11
-42.0237
 21
-22.124
  0
LINE
  8
0
 10
-42.0237
 20
-22.124
 11
-42
 21
-22.5
  0
LINE
  8
0
 10
-42
 20
-22.5
 11
-42.0237
 21
-22.876
  0
LINE
  8
0
 10
-42.0237
 20
-22.876
 11
-42.0942
 21
-23.2461
  0
LINE
  8
0
 10
-42.0942
 20
-23.2461
 11
-42.2107
 21
-23.6044
  0
LINE
  8
0
 10
-42.2107
 20
-23.6044
 11
-42.3711
 21
-23.9453
  0
LINE
  8
0
 10
-42.3711
 20
-23.9453
 11
-42.5729
 21
-24.2634
  0
LINE
  8
0
 10
-42.5729
 20
-24.2634
 11
-42.8131
 21
-24.5536
  0
LINE
  8
0
 10
-42.8131
 20
-24.5536
 11
-43.0877
 21
-24.8115
  0
LINE
  8
0
 10
-43.0877
 20
-24.8115
 11
-43.3925
 21
-25.033
  0
LINE
  8
0
 10
-43.3925
 20
-25.033
 11
-43.7227
 21
-25.2145
  0
LINE
  8
0
 10
-43.7227
 20
-25.2145
 11
-44.0729
 21
-25.3532
  0
LINE
  8
0
 10
-44.0729
 20
-25.3532
 11
-44.4379
 21
-25.4469
  0
LINE
  8
0
 10
-44.4379
 20
-25.4469
 11
-44.8116
 21
-25.4941
  0
LINE
  8
0
 10
-44.8116
 20
-25.4941
 11
-45.1884
 21
-25.4941
  0
LINE
  8
0
 10
29.8116
 20
-25.4941
 11
29.4379
 21
-25.4469
  0
LINE
  8
0
 10
29.4379
 20
-25.4469
 11
29.0729
 21
-25.3532
  0
LINE
  8
0
 10
29.0729
 20
-25.3532
 11
28.7227
 21
-25.2145
  0
LINE
  8
0
 10
28.7227
 20
-25.2145
 11
28.3925
 21
-25.033
  0
LINE
  8
0
 10
28.3925
 20
-25.033
 11
28.0877
 21
-24.8115
  0
LINE
  8
0
 10
28.0877
 20
-24.8115
 11
27.8131
 21
-24.5536
  0
LINE
  8
0
 10
27.8131
 20
-24.5536
 11
27.5729
 21
-24.2634
  0
LINE
  8
0
 10
27.5729
 20
-24.2634
 11
27.3711
 21
-23.9453
  0
LINE
  8
0
 10
27.3711
 20
-23.9453
 11
27.2107
 21
-23.6044
  0
LINE
  8
0
 10
27.2107
 20
-23.6044
 11
27.0942
 21
-23.2461
  0
LINE
  8
0
 10
27.0942
 20
-23.2461
 11
27.0237
 21
-22.876
  0
LINE
  8
0
 10
27.0237
 20
-22.876
 11
27
 21
-22.5
  0
LINE
  8
0
 10
27
 20
-22.5
 11
27.0237
 21
-22.124
  0
LINE
  8
0
 10
27.0237
 20
-22.124
 11
27.0942
 21
-21.7539
  0
LINE
  8
0
 10
27.0942
 20
-21.7539
 11
27.2107
 21
-21.3956
  0
LINE
  8
0
 10
27.2107
 20
-21.3956
 11
27.3711
 21
-21.0547
  0
LINE
  8
0
 10
27.3711
 20
-21.0547
 11
27.5729
 21
-20.7366
  0
LINE
  8
0
 10
27.5729
 20
-20.7366
 11
27.8131
 21
-20.4464
  0
LINE
  8
0
 10
27.8131
 20
-20.4464
 11
28.0877
 21
-20.1884
  0
LINE
  8
0
 10
28.0877
 20
-20.1884
 11
28.3925
 21
-19.967
  0
LINE
  8
0
 10
28.3925
 20
-19.967
 11
28.7227
 21
-19.7855
  0
LINE
  8
0
 10
28.7227
 20
-19.7855
 11
29.0729
 21
-19.6468
  0
LINE
  8
0
 10
29.0729
 20
-19.6468
 11
29.4379
 21
-19.5531
  0
LINE
  8
0
 10
29.4379
 20
-19.5531
 11
29.8116
 21
-19.5059
  0
LINE
  8
0
 10
29.8116
 20
-19.5059
 11
30.1884
 21
-19.5059
  0
LINE
  8
0
 10
30.1884
 20
-19.5059
 11
30.5621
 21
-19.5531
  0
LINE
  8
0
 10
30.5621
 20
-19.5531
 11
30.927
 21
-19.6468
  0
LINE
  8
0
 10
30.927
 20
-19.6468
 11
31.2773
 21
-19.7855
  0
LINE
  8
0
 10
31.2773
 20
-19.7855
 11
31.6075
 21
-19.967
  0
LINE
  8
0
 10
31.6075
 20
-19.967
 11
31.9123
 21
-20.1884
  0
LINE
  8
0
 10
31.9123
 20
-20.1884
 11
32.1869
 21
-20.4464
  0
LINE
  8
0
 10
32.1869
 20
-20.4464
 11
32.427
 21
-20.7366
  0
LINE
  8
0
 10
32.427
 20
-20.7366
 11
32.6289
 21
-21.0547
  0
LINE
  8
0
 10
32.6289
 20
-21.0547
 11
32.7893
 21
-21.3956
  0
LINE
  8
0
 10
32.7893
 20
-21.3956
 11
32.9057
 21
-21.7539
  0
LINE
  8
0
 10
32.9057
 20
-21.7539
 11
32.9763
 21
-22.124
  0
LINE
  8
0
 10
32.9763
 20
-22.124
 11
33
 21
-22.5
  0
LINE
  8
0
 10
33
 20
-22.5
 11
32.9763
 21
-22.876
  0
LINE
  8
0
 10
32.9763
 20
-22.876
 11
32.9057
 21
-23.2461
  0
LINE
  8
0
 10
32.9057
 20
-23.2461
 11
32.7893
 21
-23.6044
  0
LINE
  8
0
 10
32.7893
 20
-23.6044
 11
32.6289
 21
-23.9453
  0
LINE
  8
0
 10
32.6289
 20
-23.9453
 11
32.427
 21
-24.2634
  0
LINE
  8
0
 10
32.427
 20
-24.2634
 11
32.1869
 21
-24.5536
  0
LINE
  8
0
 10
32.1869
 20
-24.5536
 11
31.9123
 21
-24.8115
  0
LINE
  8
0
 10
31.9123
 20
-24.8115
 11
31.6075
 21
-25.033
  0
LINE
  8
0
 10
31.6075
 20
-25.033
 11
31.2773
 21
-25.2145
  0
LINE
  8
0
 10
31.2773
 20
-25.2145
 11
30.927
 21
-25.3532
  0
LINE
  8
0
 10
30.927
 20
-25.3532
 11
30.5621
 21
-25.4469
  0
LINE
  8
0
 10
30.5621
 20
-25.4469
 11
30.1884
 21
-25.4941
  0
LINE
  8
0
 10
30.1884
 20
-25.4941
 11
29.8116
 21
-25.4941
  0
LINE
  8
0
 10
-0.18837
 20
-40.4941
 11
-0.562134
 21
-40.4469
  0
LINE
  8
0
 10
-0.562134
 20
-40.4469
 11
-0.927048
 21
-40.3532
  0
LINE
  8
0
 10
-0.927048
 20
-40.3532
 11
-1.27733
 21
-40.2145
  0
LINE
  8
0
 10
-1.27733
 20
-40.2145
 11
-1.60747
 21
-40.033
  0
LINE
  8
0
 10
-1.60747
 20
-40.033
 11
-1.91226
 21
-39.8115
  0
LINE
  8
0
 10
-1.91226
 20
-39.8115
 11
-2.1869
 21
-39.5536
  0
LINE
  8
0
 10
-2.1869
 20
-39.5536
 11
-2.42705
 21
-39.2634
  0
LINE
  8
0
 10
-2.42705
 20
-39.2634
 11
-2.62891
 21
-38.9453
  0
LINE
  8
0
 10
-2.62891
 20
-38.9453
 11
-2.78932
 21
-38.6044
  0
LINE
  8
0
 10
-2.78932
 20
-38.6044
 11
-2.90575
 21
-38.2461
  0
LINE
  8
0
 10
-2.90575
 20
-38.2461
 11
-2.97633
 21
-37.876
  0
LINE
  8
0
 10
-2.97633
 20
-37.876
 11
-3
 21
-37.5
  0
LINE
  8
0
 10
-3
 20
-37.5
 11
-2.97633
 21
-37.124
  0
LINE
  8
0
 10
-2.97633
 20
-37.124
 11
-2.90575
 21
-36.7539
  0
LINE
  8
0
 10
-2.90575
 20
-36.7539
 11
-2.78932
 21
-36.3956
  0
LINE
  8
0
 10
-2.78932
 20
-36.3956
 11
-2.62891
 21
-36.0547
  0
LINE
  8
0
 10
-2.62891
 20
-36.0547
 11
-2.42705
 21
-35.7366
  0
LINE
  8
0
 10
-2.42705
 20
-35.7366
 11
-2.1869
 21
-35.4464
  0
LINE
  8
0
 10
-2.1869
 20
-35.4464
 11
-1.91226
 21
-35.1885
  0
LINE
  8
0
 10
-1.91226
 20
-35.1885
 11
-1.60747
 21
-34.967
  0
LINE
  8
0
 10
-1.60747
 20
-34.967
 11
-1.27733
 21
-34.7855
  0
LINE
  8
0
 10
-1.27733
 20
-34.7855
 11
-0.927048
 21
-34.6468
  0
LINE
  8
0
 10
-0.927048
 20
-34.6468
 11
-0.562134
 21
-34.5531
  0
LINE
  8
0
 10
-0.562134
 20
-34.5531
 11
-0.18837
 21
-34.5059
  0
LINE
  8
0
 10
-0.18837
 20
-34.5059
 11
0.18837
 21
-34.5059
  0
LINE
  8
0
 10
0.18837
 20
-34.5059
 11
0.562134
 21
-34.5531
  0
LINE
  8
0
 10
0.562134
 20
-34.5531
 11
0.927048
 21
-34.6468
  0
LINE
  8
0
 10
0.927048
 20
-34.6468
 11
1.27733
 21
-34.7855
  0
LINE
  8
0
 10
1.27733
 20
-34.7855
 11
1.60747
 21
-34.967
  0
LINE
  8
0
 10
1.60747
 20
-34.967
 11
1.91226
 21
-35.1885
  0
LINE
  8
0
 10
1.91226
 20
-35.1885
 11
2.1869
 21
-35.4464
  0
LINE
  8
0
 10
2.1869
 20
-35.4464
 11
2.42705
 21
-35.7366
  0
LINE
  8
0
 10
2.42705
 20
-35.7366
 11
2.62891
 21
-36.0547
  0
LINE
  8
0
 10
2.62891
 20
-36.0547
 11
2.78932
 21
-36.3956
  0
LINE
  8
0
 10
2.78932
 20
-36.3956
 11
2.90575
 21
-36.7539
  0
LINE
  8
0
 10
2.90575
 20
-36.7539
 11
2.97633
 21
-37.124
  0
LINE
  8
0
 10
2.97633
 20
-37.124
 11
3
 21
-37.5
  0
LINE
  8
0
 10
3
 20
-37.5
 11
2.97633
 21
-37.876
  0
LINE
  8
0
 10
2.97633
 20
-37.876
 11
2.90575
 21
-38.2461
  0
LINE
  8
0
 10
2.90575
 20
-38.2461
 11
2.78932
 21
-38.6044
  0
LINE
  8
0
 10
2.78932
 20
-38.6044
 11
2.62891
 21
-38.9453
  0
LINE
  8
0
 10
2.62891
 20
-38.9453
 11
2.42705
 21
-39.2634
  0
LINE
  8
0
 10
2.42705
 20
-39.2634
 11
2.1869
 21
-39.5536
  0
LINE
  8
0
 10
2.1869
 20
-39.5536
 11
1.91226
 21
-39.8115
  0
LINE
  8
0
 10
1.91226
 20
-39.8115
 11
1.60747
 21
-40.033
  0
LINE
  8
0
 10
1.60747
 20
-40.033
 11
1.27733
 21
-40.2145
  0
LINE
  8
0
 10
1.27733
 20
-40.2145
 11
0.927048
 21
-40.3532
  0
LINE
  8
0
 10
0.927048
 20
-40.3532
 11
0.562134
 21
-40.4469
  0
LINE
  8
0
 10
0.562134
 20
-40.4469
 11
0.18837
 21
-40.4941
  0
LINE
  8
0
 10
0.18837
 20
-40.4941
 11
-0.18837
 21
-40.4941
  0
LINE
  8
0
 10
-15.1884
 20
-40.4941
 11
-15.5621
 21
-40.4469
  0
LINE
  8
0
 10
-15.5621
 20
-40.4469
 11
-15.927
 21
-40.3532
  0
LINE
  8
0
 10
-15.927
 20
-40.3532
 11
-16.2773
 21
-40.2145
  0
LINE
  8
0
 10
-16.2773
 20
-40.2145
 11
-16.6075
 21
-40.033
  0
LINE
  8
0
 10
-16.6075
 20
-40.033
 11
-16.9123
 21
-39.8115
  0
LINE
  8
0
 10
-16.9123
 20
-39.8115
 11
-17.1869
 21
-39.5536
  0
LINE
  8
0
 10
-17.1869
 20
-39.5536
 11
-17.427
 21
-39.2634
  0
LINE
  8
0
 10
-17.427
 20
-39.2634
 11
-17.6289
 21
-38.9453
  0
LINE
  8
0
 10
-17.6289
 20
-38.9453
 11
-17.7893
 21
-38.6044
  0
LINE
  8
0
 10
-17.7893
 20
-38.6044
 11
-17.9057
 21
-38.2461
  0
LINE
  8
0
 10
-17.9057
 20
-38.2461
 11
-17.9763
 21
-37.876
  0
LINE
  8
0
 10
-17.9763
 20
-37.876
 11
-18
 21
-37.5
  0
LINE
  8
0
 10
-18
 20
-37.5
 11
-17.9763
 21
-37.124
  0
LINE
  8
0
 10
-17.9763
 20
-37.124
 11
-17.9057
 21
-36.7539
  0
LINE
  8
0
 10
-17.9057
 20
-36.7539
 11
-17.7893
 21
-36.3956
  0
LINE
  8
0
 10
-17.7893
 20
-36.3956
 11
-17.6289
 21
-36.0547
  0
LINE
  8
0
 10
-17.6289
 20
-36.0547
 11
-17.427
 21
-35.7366
  0
LINE
  8
0
 10
-17.427
 20
-35.7366
 11
-17.1869
 21
-35.4464
  0
LINE
  8
0
 10
-17.1869
 20
-35.4464
 11
-16.9123
 21
-35.1885
  0
LINE
  8
0
 10
-16.9123
 20
-35.1885
 11
-16.6075
 21
-34.967
  0
LINE
  8
0
 10
-16.6075
 20
-34.967
 11
-16.2773
 21
-34.7855
  0
LINE
  8
0
 10
-16.2773
 20
-34.7855
 11
-15.927
 21
-34.6468
  0
LINE
  8
0
 10
-15.927
 20
-34.6468
 11
-15.5621
 21
-34.5531
  0
LINE
  8
0
 10
-15.5621
 20
-34.5531
 11
-15.1884
 21
-34.5059
  0
LINE
  8
0
 10
-15.1884
 20
-34.5059
 11
-14.8116
 21
-34.5059
  0
LINE
  8
0
 10
-14.8116
 20
-34.5059
 11
-14.4379
 21
-34.5531
  0
LINE
  8
0
 10
-14.4379
 20
-34.5531
 11
-14.0729
 21
-34.6468
  0
LINE
  8
0
 10
-14.0729
 20
-34.6468
 11
-13.7227
 21
-34.7855
  0
LINE
  8
0
 10
-13.7227
 20
-34.7855
 11
-13.3925
 21
-34.967
  0
LINE
  8
0
 10
-13.3925
 20
-34.967
 11
-13.0877
 21
-35.1885
  0
LINE
  8
0
 10
-13.0877
 20
-35.1885
 11
-12.8131
 21
-35.4464
  0
LINE
  8
0
 10
-12.8131
 20
-35.4464
 11
-12.5729
 21
-35.7366
  0
LINE
  8
0
 10
-12.5729
 20
-35.7366
 11
-12.3711
 21
-36.0547
  0
LINE
  8
0
 10
-12.3711
 20
-36.0547
 11
-12.2107
 21
-36.3956
  0
LINE
  8
0
 10
-12.2107
 20
-36.3956
 11
-12.0942
 21
-36.7539
  0
LINE
  8
0
 10
-12.0942
 20
-36.7539
 11
-12.0237
 21
-37.124
  0
LINE
  8
0
 10
-12.0237
 20
-37.124
 11
-12
 21
-37.5
  0
LINE
  8
0
 10
-12
 20
-37.5
 11
-12.0237
 21
-37.876
  0
LINE
  8
0
 10
-12.0237
 20
-37.876
 11
-12.0942
 21
-38.2461
  0
LINE
  8
0
 10
-12.0942
 20
-38.2461
 11
-12.2107
 21
-38.6044
  0
LINE
  8
0
 10
-12.2107
 20
-38.6044
 11
-12.3711
 21
-38.9453
  0
LINE
  8
0
 10
-12.3711
 20
-38.9453
 11
-12.5729
 21
-39.2634
  0
LINE
  8
0
 10
-12.5729
 20
-39.2634
 11
-12.8131
 21
-39.5536
  0
LINE
  8
0
 10
-12.8131
 20
-39.5536
 11
-13.0877
 21
-39.8115
  0
LINE
  8
0
 10
-13.0877
 20
-39.8115
 11
-13.3925
 21
-40.033
  0
LINE
  8
0
 10
-13.3925
 20
-40.033
 11
-13.7227
 21
-40.2145
  0
LINE
  8
0
 10
-13.7227
 20
-40.2145
 11
-14.0729
 21
-40.3532
  0
LINE
  8
0
 10
-14.0729
 20
-40.3532
 11
-14.4379
 21
-40.4469
  0
LINE
  8
0
 10
-14.4379
 20
-40.4469
 11
-14.8116
 21
-40.4941
  0
LINE
  8
0
 10
-14.8116
 20
-40.4941
 11
-15.1884
 21
-40.4941
  0
LINE
  8
0
 10
14.8116
 20
-40.4941
 11
14.4379
 21
-40.4469
  0
LINE
  8
0
 10
14.4379
 20
-40.4469
 11
14.0729
 21
-40.3532
  0
LINE
  8
0
 10
14.0729
 20
-40.3532
 11
13.7227
 21
-40.2145
  0
LINE
  8
0
 10
13.7227
 20
-40.2145
 11
13.3925
 21
-40.033
  0
LINE
  8
0
 10
13.3925
 20
-40.033
 11
13.0877
 21
-39.8115
  0
LINE
  8
0
 10
13.0877
 20
-39.8115
 11
12.8131
 21
-39.5536
  0
LINE
  8
0
 10
12.8131
 20
-39.5536
 11
12.5729
 21
-39.2634
  0
LINE
  8
0
 10
12.5729
 20
-39.2634
 11
12.3711
 21
-38.9453
  0
LINE
  8
0
 10
12.3711
 20
-38.9453
 11
12.2107
 21
-38.6044
  0
LINE
  8
0
 10
12.2107
 20
-38.6044
 11
12.0942
 21
-38.2461
  0
LINE
  8
0
 10
12.0942
 20
-38.2461
 11
12.0237
 21
-37.876
  0
LINE
  8
0
 10
12.0237
 20
-37.876
 11
12
 21
-37.5
  0
LINE
  8
0
 10
12
 20
-37.5
 11
12.0237
 21
-37.124
  0
LINE
  8
0
 10
12.0237
 20
-37.124
 11
12.0942
 21
-36.7539
  0
LINE
  8
0
 10
12.0942
 20
-36.7539
 11
12.2107
 21
-36.3956
  0
LINE
  8
0
 10
12.2107
 20
-36.3956
 11
12.3711
 21
-36.0547
  0
LINE
  8
0
 10
12.3711
 20
-36.0547
 11
12.5729
 21
-35.7366
  0
LINE
  8
0
 10
12.5729
 20
-35.7366
 11
12.8131
 21
-35.4464
  0
LINE
  8
0
 10
12.8131
 20
-35.4464
 11
13.0877
 21
-35.1885
  0
LINE
  8
0
 10
13.0877
 20
-35.1885
 11
13.3925
 21
-34.967
  0
LINE
  8
0
 10
13.3925
 20
-34.967
 11
13.7227
 21
-34.7855
  0
LINE
  8
0
 10
13.7227
 20
-34.7855
 11
14.0729
 21
-34.6468
  0
LINE
  8
0
 10
14.0729
 20
-34.6468
 11
14.4379
 21
-34.5531
  0
LINE
  8
0
 10
14.4379
 20
-34.5531
 11
14.8116
 21
-34.5059
  0
LINE
  8
0
 10
14.8116
 20
-34.5059
 11
15.1884
 21
-34.5059
  0
LINE
  8
0
 10
15.1884
 20
-34.5059
 11
15.5621
 21
-34.5531
  0
LINE
  8
0
 10
15.5621
 20
-34.5531
 11
15.927
 21
-34.6468
  0
LINE
  8
0
 10
15.927
 20
-34.6468
 11
16.2773
 21
-34.7855
  0
LINE
  8
0
 10
16.2773
 20
-34.7855
 11
16.6075
 21
-34.967
  0
LINE
  8
0
 10
16.6075
 20
-34.967
 11
16.9123
 21
-35.1885
  0
LINE
  8
0
 10
16.9123
 20
-35.1885
 11
17.1869
 21
-35.4464
  0
LINE
  8
0
 10
17.1869
 20
-35.4464
 11
17.427
 21
-35.7366
  0
LINE
  8
0
 10
17.427
 20
-35.7366
 11
17.6289
 21
-36.0547
  0
LINE
  8
0
 10
17.6289
 20
-36.0547
 11
17.7893
 21
-36.3956
  0
LINE
  8
0
 10
17.7893
 20
-36.3956
 11
17.9057
 21
-36.7539
  0
LINE
  8
0
 10
17.9057
 20
-36.7539
 11
17.9763
 21
-37.124
  0
LINE
  8
0
 10
17.9763
 20
-37.124
 11
18
 21
-37.5
  0
LINE
  8
0
 10
18
 20
-37.5
 11
17.9763
 21
-37.876
  0
LINE
  8
0
 10
17.9763
 20
-37.876
 11
17.9057
 21
-38.2461
  0
LINE
  8
0
 10
17.9057
 20
-38.2461
 11
17.7893
 21
-38.6044
  0
LINE
  8
0
 10
17.7893
 20
-38.6044
 11
17.6289
 21
-38.9453
  0
LINE
  8
0
 10
17.6289
 20
-38.9453
 11
17.427
 21
-39.2634
  0
LINE
  8
0
 10
17.427
 20
-39.2634
 11
17.1869
 21
-39.5536
  0
LINE
  8
0
 10
17.1869
 20
-39.5536
 11
16.9123
 21
-39.8115
  0
LINE
  8
0
 10
16.9123
 20
-39.8115
 11
16.6075
 21
-40.033
  0
LINE
  8
0
 10
16.6075
 20
-40.033
 11
16.2773
 21
-40.2145
  0
LINE
  8
0
 10
16.2773
 20
-40.2145
 11
15.927
 21
-40.3532
  0
LINE
  8
0
 10
15.927
 20
-40.3532
 11
15.5621
 21
-40.4469
  0
LINE
  8
0
 10
15.5621
 20
-40.4469
 11
15.1884
 21
-40.4941
  0
LINE
  8
0
 10
15.1884
 20
-40.4941
 11
14.8116
 21
-40.4941
  0
LINE
  8
0
 10
-45.1884
 20
-40.4941
 11
-45.5621
 21
-40.4469
  0
LINE
  8
0
 10
-45.5621
 20
-40.4469
 11
-45.927
 21
-40.3532
  0
LINE
  8
0
 10
-45.927
 20
-40.3532
 11
-46.2773
 21
-40.2145
  0
LINE
  8
0
 10
-46.2773
 20
-40.2145
 11
-46.6075
 21
-40.033
  0
LINE
  8
0
 10
-46.6075
 20
-40.033
 11
-46.9123
 21
-39.8115
  0
LINE
  8
0
 10
-46.9123
 20
-39.8115
 11
-47.1869
 21
-39.5536
  0
LINE
  8
0
 10
-47.1869
 20
-39.5536
 11
-47.427
 21
-39.2634
  0
LINE
  8
0
 10
-47.427
 20
-39.2634
 11
-47.6289
 21
-38.9453
  0
LINE
  8
0
 10
-47.6289
 20
-38.9453
 11
-47.7893
 21
-38.6044
  0
LINE
  8
0
 10
-47.7893
 20
-38.6044
 11
-47.9057
 21
-38.2461
  0
LINE
  8
0
 10
-47.9057
 20
-38.2461
 11
-47.9763
 21
-37.876
  0
LINE
  8
0
 10
-47.9763
 20
-37.876
 11
-48
 21
-37.5
  0
LINE
  8
0
 10
-48
 20
-37.5
 11
-47.9763
 21
-37.124
  0
LINE
  8
0
 10
-47.9763
 20
-37.124
 11
-47.9057
 21
-36.7539
  0
LINE
  8
0
 10
-47.9057
 20
-36.7539
 11
-47.7893
 21
-36.3956
  0
LINE
  8
0
 10
-47.7893
 20
-36.3956
 11
-47.6289
 21
-36.0547
  0
LINE
  8
0
 10
-47.6289
 20
-36.0547
 11
-47.427
 21
-35.7366
  0
LINE
  8
0
 10
-47.427
 20
-35.7366
 11
-47.1869
 21
-35.4464
  0
LINE
  8
0
 10
-47.1869
 20
-35.4464
 11
-46.9123
 21
-35.1885
  0
LINE
  8
0
 10
-46.9123
 20
-35.1885
 11
-46.6075
 21
-34.967
  0
LINE
  8
0
 10
-46.6075
 20
-34.967
 11
-46.2773
 21
-34.7855
  0
LINE
  8
0
 10
-46.2773
 20
-34.7855
 11
-45.927
 21
-34.6468
  0
LINE
  8
0
 10
-45.927
 20
-34.6468
 11
-45.5621
 21
-34.5531
  0
LINE
  8
0
 10
-45.5621
 20
-34.5531
 11
-45.1884
 21
-34.5059
  0
LINE
  8
0
 10
-45.1884
 20
-34.5059
 11
-44.8116
 21
-34.5059
  0
LINE
  8
0
 10
-44.8116
 20
-34.5059
 11
-44.4379
 21
-34.5531
  0
LINE
  8
0
 10
-44.4379
 20
-34.5531
 11
-44.0729
 21
-34.6468
  0
LINE
  8
0
 10
-44.0729
 20
-34.6468
 11
-43.7227
 21
-34.7855
  0
LINE
  8
0
 10
-43.7227
 20
-34.7855
 11
-43.3925
 21
-34.967
  0
LINE
  8
0
 10
-43.3925
 20
-34.967
 11
-43.0877
 21
-35.1885
  0
LINE
  8
0
 10
-43.0877
 20
-35.1885
 11
-42.8131
 21
-35.4464
  0
LINE
  8
0
 10
-42.8131
 20
-35.4464
 11
-42.5729
 21
-35.7366
  0
LINE
  8
0
 10
-42.5729
 20
-35.7366
 11
-42.3711
 21
-36.0547
  0
LINE
  8
0
 10
-42.3711
 20
-36.0547
 11
-42.2107
 21
-36.3956
  0
LINE
  8
0
 10
-42.2107
 20
-36.3956
 11
-42.0942
 21
-36.7539
  0
LINE
  8
0
 10
-42.0942
 20
-36.7539
 11
-42.0237
 21
-37.124
  0
LINE
  8
0
 10
-42.0237
 20
-37.124
 11
-42
 21
-37.5
  0
LINE
  8
0
 10
-42
 20
-37.5
 11
-42.0237
 21
-37.876
  0
LINE
  8
0
 10
-42.0237
 20
-37.876
 11
-42.0942
 21
-38.2461
  0
LINE
  8
0
 10
-42.0942
 20
-38.2461
 11
-42.2107
 21
-38.6044
  0
LINE
  8
0
 10
-42.2107
 20
-38.6044
 11
-42.3711
 21
-38.9453
  0
LINE
  8
0
 10
-42.3711
 20
-38.9453
 11
-42.5729
 21
-39.2634
  0
LINE
  8
0
 10
-42.5729
 20
-39.2634
 11
-42.8131
 21
-39.5536
  0
LINE
  8
0
 10
-42.8131
 20
-39.5536
 11
-43.0877
 21
-39.8115
  0
LINE
  8
0
 10
-43.0877
 20
-39.8115
 11
-43.3925
 21
-40.033
  0
LINE
  8
0
 10
-43.3925
 20
-40.033
 11
-43.7227
 21
-40.2145
  0
LINE
  8
0
 10
-43.7227
 20
-40.2145
 11
-44.0729
 21
-40.3532
  0
LINE
  8
0
 10
-44.0729
 20
-40.3532
 11
-44.4379
 21
-40.4469
  0
LINE
  8
0
 10
-44.4379
 20
-40.4469
 11
-44.8116
 21
-40.4941
  0
LINE
  8
0
 10
-44.8116
 20
-40.4941
 11
-45.1884
 21
-40.4941
  0
LINE
  8
0
 10
44.8116
 20
-40.4941
 11
44.4379
 21
-40.4469
  0
LINE
  8
0
 10
44.4379
 20
-40.4469
 11
44.0729
 21
-40.3532
  0
LINE
  8
0
 10
44.0729
 20
-40.3532
 11
43.7227
 21
-40.2145
  0
LINE
  8
0
 10
43.7227
 20
-40.2145
 11
43.3925
 21
-40.033
  0
LINE
  8
0
 10
43.3925
 20
-40.033
 11
43.0877
 21
-39.8115
  0
LINE
  8
0
 10
43.0877
 20
-39.8115
 11
42.8131
 21
-39.5536
  0
LINE
  8
0
 10
42.8131
 20
-39.5536
 11
42.5729
 21
-39.2634
  0
LINE
  8
0
 10
42.5729
 20
-39.2634
 11
42.3711
 21
-38.9453
  0
LINE
  8
0
 10
42.3711
 20
-38.9453
 11
42.2107
 21
-38.6044
  0
LINE
  8
0
 10
42.2107
 20
-38.6044
 11
42.0942
 21
-38.2461
  0
LINE
  8
0
 10
42.0942
 20
-38.2461
 11
42.0237
 21
-37.876
  0
LINE
  8
0
 10
42.0237
 20
-37.876
 11
42
 21
-37.5
  0
LINE
  8
0
 10
42
 20
-37.5
 11
42.0237
 21
-37.124
  0
LINE
  8
0
 10
42.0237
 20
-37.124
 11
42.0942
 21
-36.7539
  0
LINE
  8
0
 10
42.0942
 20
-36.7539
 11
42.2107
 21
-36.3956
  0
LINE
  8
0
 10
42.2107
 20
-36.3956
 11
42.3711
 21
-36.0547
  0
LINE
  8
0
 10
42.3711
 20
-36.0547
 11
42.5729
 21
-35.7366
  0
LINE
  8
0
 10
42.5729
 20
-35.7366
 11
42.8131
 21
-35.4464
  0
LINE
  8
0
 10
42.8131
 20
-35.4464
 11
43.0877
 21
-35.1885
  0
LINE
  8
0
 10
43.0877
 20
-35.1885
 11
43.3925
 21
-34.967
  0
LINE
  8
0
 10
43.3925
 20
-34.967
 11
43.7227
 21
-34.7855
  0
LINE
  8
0
 10
43.7227
 20
-34.7855
 11
44.0729
 21
-34.6468
  0
LINE
  8
0
 10
44.0729
 20
-34.6468
 11
44.4379
 21
-34.5531
  0
LINE
  8
0
 10
44.4379
 20
-34.5531
 11
44.8116
 21
-34.5059
  0
LINE
  8
0
 10
44.8116
 20
-34.5059
 11
45.1884
 21
-34.5059
  0
LINE
  8
0
 10
45.1884
 20
-34.5059
 11
45.5621
 21
-34.5531
  0
LINE
  8
0
 10
45.5621
 20
-34.5531
 11
45.927
 21
-34.6468
  0
LINE
  8
0
 10
45.927
 20
-34.6468
 11
46.2773
 21
-34.7855
  0
LINE
  8
0
 10
46.2773
 20
-34.7855
 11
46.6075
 21
-34.967
  0
LINE
  8
0
 10
46.6075
 20
-34.967
 11
46.9123
 21
-35.1885
  0
LINE
  8
0
 10
46.9123
 20
-35.1885
 11
47.1869
 21
-35.4464
  0
LINE
  8
0
 10
47.1869
 20
-35.4464
 11
47.427
 21
-35.7366
  0
LINE
  8
0
 10
47.427
 20
-35.7366
 11
47.6289
 21
-36.0547
  0
LINE
  8
0
 10
47.6289
 20
-36.0547
 11
47.7893
 21
-36.3956
  0
LINE
  8
0
 10
47.7893
 20
-36.3956
 11
47.9057
 21
-36.7539
  0
LINE
  8
0
 10
47.9057
 20
-36.7539
 11
47.9763
 21
-37.124
  0
LINE
  8
0
 10
47.9763
 20
-37.124
 11
48
 21
-37.5
  0
LINE
  8
0
 10
48
 20
-37.5
 11
47.9763
 21
-37.876
  0
LINE
  8
0
 10
47.9763
 20
-37.876
 11
47.9057
 21
-38.2461
  0
LINE
  8
0
 10
47.9057
 20
-38.2461
 11
47.7893
 21
-38.6044
  0
LINE
  8
0
 10
47.7893
 20
-38.6044
 11
47.6289
 21
-38.9453
  0
LINE
  8
0
 10
47.6289
 20
-38.9453
 11
47.427
 21
-39.2634
  0
LINE
  8
0
 10
47.427
 20
-39.2634
 11
47.1869
 21
-39.5536
  0
LINE
  8
0
 10
47.1869
 20
-39.5536
 11
46.9123
 21
-39.8115
  0
LINE
  8
0
 10
46.9123
 20
-39.8115
 11
46.6075
 21
-40.033
  0
LINE
  8
0
 10
46.6075
 20
-40.033
 11
46.2773
 21
-40.2145
  0
LINE
  8
0
 10
46.2773
 20
-40.2145
 11
45.927
 21
-40.3532
  0
LINE
  8
0
 10
45.927
 20
-40.3532
 11
45.5621
 21
-40.4469
  0
LINE
  8
0
 10
45.5621
 20
-40.4469
 11
45.1884
 21
-40.4941
  0
LINE
  8
0
 10
45.1884
 20
-40.4941
 11
44.8116
 21
-40.4941
  0
LINE
  8
0
 10
-30.1884
 20
-40.4941
 11
-30.5621
 21
-40.4469
  0
LINE
  8
0
 10
-30.5621
 20
-40.4469
 11
-30.927
 21
-40.3532
  0
LINE
  8
0
 10
-30.927
 20
-40.3532
 11
-31.2773
 21
-40.2145
  0
LINE
  8
0
 10
-31.2773
 20
-40.2145
 11
-31.6075
 21
-40.033
  0
LINE
  8
0
 10
-31.6075
 20
-40.033
 11
-31.9123
 21
-39.8115
  0
LINE
  8
0
 10
-31.9123
 20
-39.8115
 11
-32.1869
 21
-39.5536
  0
LINE
  8
0
 10
-32.1869
 20
-39.5536
 11
-32.427
 21
-39.2634
  0
LINE
  8
0
 10
-32.427
 20
-39.2634
 11
-32.6289
 21
-38.9453
  0
LINE
  8
0
 10
-32.6289
 20
-38.9453
 11
-32.7893
 21
-38.6044
  0
LINE
  8
0
 10
-32.7893
 20
-38.6044
 11
-32.9057
 21
-38.2461
  0
LINE
  8
0
 10
-32.9057
 20
-38.2461
 11
-32.9763
 21
-37.876
  0
LINE
  8
0
 10
-32.9763
 20
-37.876
 11
-33
 21
-37.5
  0
LINE
  8
0
 10
-33
 20
-37.5
 11
-32.9763
 21
-37.124
  0
LINE
  8
0
 10
-32.9763
 20
-37.124
 11
-32.9057
 21
-36.7539
  0
LINE
  8
0
 10
-32.9057
 20
-36.7539
 11
-32.7893
 21
-36.3956
  0
LINE
  8
0
 10
-32.7893
 20
-36.3956
 11
-32.6289
 21
-36.0547
  0
LINE
  8
0
 10
-32.6289
 20
-36.0547
 11
-32.427
 21
-35.7366
  0
LINE
  8
0
 10
-32.427
 20
-35.7366
 11
-32.1869
 21
-35.4464
  0
LINE
  8
0
 10
-32.1869
 20
-35.4464
 11
-31.9123
 21
-35.1885
  0
LINE
  8
0
 10
-31.9123
 20
-35.1885
 11
-31.6075
 21
-34.967
  0
LINE
  8
0
 10
-31.6075
 20
-34.967
 11
-31.2773
 21
-34.7855
  0
LINE
  8
0
 10
-31.2773
 20
-34.7855
 11
-30.927
 21
-34.6468
  0
LINE
  8
0
 10
-30.927
 20
-34.6468
 11
-30.5621
 21
-34.5531
  0
LINE
  8
0
 10
-30.5621
 20
-34.5531
 11
-30.1884
 21
-34.5059
  0
LINE
  8
0
 10
-30.1884
 20
-34.5059
 11
-29.8116
 21
-34.5059
  0
LINE
  8
0
 10
-29.8116
 20
-34.5059
 11
-29.4379
 21
-34.5531
  0
LINE
  8
0
 10
-29.4379
 20
-34.5531
 11
-29.0729
 21
-34.6468
  0
LINE
  8
0
 10
-29.0729
 20
-34.6468
 11
-28.7227
 21
-34.7855
  0
LINE
  8
0
 10
-28.7227
 20
-34.7855
 11
-28.3925
 21
-34.967
  0
LINE
  8
0
 10
-28.3925
 20
-34.967
 11
-28.0877
 21
-35.1885
  0
LINE
  8
0
 10
-28.0877
 20
-35.1885
 11
-27.8131
 21
-35.4464
  0
LINE
  8
0
 10
-27.8131
 20
-35.4464
 11
-27.5729
 21
-35.7366
  0
LINE
  8
0
 10
-27.5729
 20
-35.7366
 11
-27.3711
 21
-36.0547
  0
LINE
  8
0
 10
-27.3711
 20
-36.0547
 11
-27.2107
 21
-36.3956
  0
LINE
  8
0
 10
-27.2107
 20
-36.3956
 11
-27.0942
 21
-36.7539
  0
LINE
  8
0
 10
-27.0942
 20
-36.7539
 11
-27.0237
 21
-37.124
  0
LINE
  8
0
 10
-27.0237
 20
-37.124
 11
-27
 21
-37.5
  0
LINE
  8
0
 10
-27
 20
-37.5
 11
-27.0237
 21
-37.876
  0
LINE
  8
0
 10
-27.0237
 20
-37.876
 11
-27.0942
 21
-38.2461
  0
LINE
  8
0
 10
-27.0942
 20
-38.2461
 11
-27.2107
 21
-38.6044
  0
LINE
  8
0
 10
-27.2107
 20
-38.6044
 11
-27.3711
 21
-38.9453
  0
LINE
  8
0
 10
-27.3711
 20
-38.9453
 11
-27.5729
 21
-39.2634
  0
LINE
  8
0
 10
-27.5729
 20
-39.2634
 11
-27.8131
 21
-39.5536
  0
LINE
  8
0
 10
-27.8131
 20
-39.5536
 11
-28.0877
 21
-39.8115
  0
LINE
  8
0
 10
-28.0877
 20
-39.8115
 11
-28.3925
 21
-40.033
  0
LINE
  8
0
 10
-28.3925
 20
-40.033
 11
-28.7227
 21
-40.2145
  0
LINE
  8
0
 10
-28.7227
 20
-40.2145
 11
-29.0729
 21
-40.3532
  0
LINE
  8
0
 10
-29.0729
 20
-40.3532
 11
-29.4379
 21
-40.4469
  0
LINE
  8
0
 10
-29.4379
 20
-40.4469
 11
-29.8116
 21
-40.4941
  0
LINE
  8
0
 10
-29.8116
 20
-40.4941
 11
-30.1884
 21
-40.4941
  0
LINE
  8
0
 10
29.8116
 20
-40.4941
 11
29.4379
 21
-40.4469
  0
LINE
  8
0
 10
29.4379
 20
-40.4469
 11
29.0729
 21
-40.3532
  0
LINE
  8
0
 10
29.0729
 20
-40.3532
 11
28.7227
 21
-40.2145
  0
LINE
  8
0
 10
28.7227
 20
-40.2145
 11
28.3925
 21
-40.033
  0
LINE
  8
0
 10
28.3925
 20
-40.033
 11
28.0877
 21
-39.8115
  0
LINE
  8
0
 10
28.0877
 20
-39.8115
 11
27.8131
 21
-39.5536
  0
LINE
  8
0
 10
27.8131
 20
-39.5536
 11
27.5729
 21
-39.2634
  0
LINE
  8
0
 10
27.5729
 20
-39.2634
 11
27.3711
 21
-38.9453
  0
LINE
  8
0
 10
27.3711
 20
-38.9453
 11
27.2107
 21
-38.6044
  0
LINE
  8
0
 10
27.2107
 20
-38.6044
 11
27.0942
 21
-38.2461
  0
LINE
  8
0
 10
27.0942
 20
-38.2461
 11
27.0237
 21
-37.876
  0
LINE
  8
0
 10
27.0237
 20
-37.876
 11
27
 21
-37.5
  0
LINE
  8
0
 10
27
 20
-37.5
 11
27.0237
 21
-37.124
  0
LINE
  8
0
 10
27.0237
 20
-37.124
 11
27.0942
 21
-36.7539
  0
LINE
  8
0
 10
27.0942
 20
-36.7539
 11
27.2107
 21
-36.3956
  0
LINE
  8
0
 10
27.2107
 20
-36.3956
 11
27.3711
 21
-36.0547
  0
LINE
  8
0
 10
27.3711
 20
-36.0547
 11
27.5729
 21
-35.7366
  0
LINE
  8
0
 10
27.5729
 20
-35.7366
 11
27.8131
 21
-35.4464
  0
LINE
  8
0
 10
27.8131
 20
-35.4464
 11
28.0877
 21
-35.1885
  0
LINE
  8
0
 10
28.0877
 20
-35.1885
 11
28.3925
 21
-34.967
  0
LINE
  8
0
 10
28.3925
 20
-34.967
 11
28.7227
 21
-34.7855
  0
LINE
  8
0
 10
28.7227
 20
-34.7855
 11
29.0729
 21
-34.6468
  0
LINE
  8
0
 10
29.0729
 20
-34.6468
 11
29.4379
 21
-34.5531
  0
LINE
  8
0
 10
29.4379
 20
-34.5531
 11
29.8116
 21
-34.5059
  0
LINE
  8
0
 10
29.8116
 20
-34.5059
 11
30.1884
 21
-34.5059
  0
LINE
  8
0
 10
30.1884
 20
-34.5059
 11
30.5621
 21
-34.5531
  0
LINE
  8
0
 10
30.5621
 20
-34.5531
 11
30.927
 21
-34.6468
  0
LINE
  8
0
 10
30.927
 20
-34.6468
 11
31.2773
 21
-34.7855
  0
LINE
  8
0
 10
31.2773
 20
-34.7855
 11
31.6075
 21
-34.967
  0
LINE
  8
0
 10
31.6075
 20
-34.967
 11
31.9123
 21
-35.1885
  0
LINE
  8
0
 10
31.9123
 20
-35.1885
 11
32.1869
 21
-35.4464
  0
LINE
  8
0
 10
32.1869
 20
-35.4464
 11
32.427
 21
-35.7366
  0
LINE
  8
0
 10
32.427
 20
-35.7366
 11
32.6289
 21
-36.0547
  0
LINE
  8
0
 10
32.6289
 20
-36.0547
 11
32.7893
 21
-36.3956
  0
LINE
  8
0
 10
32.7893
 20
-36.3956
 11
32.9057
 21
-36.7539
  0
LINE
  8
0
 10
32.9057
 20
-36.7539
 11
32.9763
 21
-37.124
  0
LINE
  8
0
 10
32.9763
 20
-37.124
 11
33
 21
-37.5
  0
LINE
  8
0
 10
33
 20
-37.5
 11
32.9763
 21
-37.876
  0
LINE
  8
0
 10
32.9763
 20
-37.876
 11
32.9057
 21
-38.2461
  0
LINE
  8
0
 10
32.9057
 20
-38.2461
 11
32.7893
 21
-38.6044
  0
LINE
  8
0
 10
32.7893
 20
-38.6044
 11
32.6289
 21
-38.9453
  0
LINE
  8
0
 10
32.6289
 20
-38.9453
 11
32.427
 21
-39.2634
  0
LINE
  8
0
 10
32.427
 20
-39.2634
 11
32.1869
 21
-39.5536
  0
LINE
  8
0
 10
32.1869
 20
-39.5536
 11
31.9123
 21
-39.8115
  0
LINE
  8
0
 10
31.9123
 20
-39.8115
 11
31.6075
 21
-40.033
  0
LINE
  8
0
 10
31.6075
 20
-40.033
 11
31.2773
 21
-40.2145
  0
LINE
  8
0
 10
31.2773
 20
-40.2145
 11
30.927
 21
-40.3532
  0
LINE
  8
0
 10
30.927
 20
-40.3532
 11
30.5621
 21
-40.4469
  0
LINE
  8
0
 10
30.5621
 20
-40.4469
 11
30.1884
 21
-40.4941
  0
LINE
  8
0
 10
30.1884
 20
-40.4941
 11
29.8116
 21
-40.4941
  0
LINE
  8
0
 10
-28.3925
 20
34.967
 11
-28.7227
 21
34.7855
  0
LINE
  8
0
 10
-28.7227
 20
34.7855
 11
-29.0729
 21
34.6468
  0
LINE
  8
0
 10
-29.0729
 20
34.6468
 11
-29.4379
 21
34.5531
  0
LINE
  8
0
 10
-29.4379
 20
34.5531
 11
-29.8116
 21
34.5059
  0
LINE
  8
0
 10
-29.8116
 20
34.5059
 11
-30.1884
 21
34.5059
  0
LINE
  8
0
 10
-30.1884
 20
34.5059
 11
-30.5621
 21
34.5531
  0
LINE
  8
0
 10
-30.5621
 20
34.5531
 11
-30.927
 21
34.6468
  0
LINE
  8
0
 10
-30.927
 20
34.6468
 11
-31.2773
 21
34.7855
  0
LINE
  8
0
 10
-31.2773
 20
34.7855
 11
-31.6075
 21
34.967
  0
LINE
  8
0
 10
-31.6075
 20
34.967
 11
-31.9123
 21
35.1885
  0
LINE
  8
0
 10
-31.9123
 20
35.1885
 11
-32.1869
 21
35.4464
  0
LINE
  8
0
 10
-32.1869
 20
35.4464
 11
-32.427
 21
35.7366
  0
LINE
  8
0
 10
-32.427
 20
35.7366
 11
-32.6289
 21
36.0547
  0
LINE
  8
0
 10
-32.6289
 20
36.0547
 11
-32.7893
 21
36.3956
  0
LINE
  8
0
 10
-32.7893
 20
36.3956
 11
-32.9057
 21
36.7539
  0
LINE
  8
0
 10
-32.9057
 20
36.7539
 11
-32.9763
 21
37.124
  0
LINE
  8
0
 10
-32.9763
 20
37.124
 11
-33
 21
37.5
  0
LINE
  8
0
 10
-33
 20
37.5
 11
-32.9763
 21
37.876
  0
LINE
  8
0
 10
-32.9763
 20
37.876
 11
-32.9057
 21
38.2461
  0
LINE
  8
0
 10
-32.9057
 20
38.2461
 11
-32.7893
 21
38.6044
  0
LINE
  8
0
 10
-32.7893
 20
38.6044
 11
-32.6289
 21
38.9453
  0
LINE
  8
0
 10
-32.6289
 20
38.9453
 11
-32.427
 21
39.2634
  0
LINE
  8
0
 10
-32.427
 20
39.2634
 11
-32.1869
 21
39.5536
  0
LINE
  8
0
 10
-32.1869
 20
39.5536
 11
-31.9123
 21
39.8115
  0
LINE
  8
0
 10
-31.9123
 20
39.8115
 11
-31.6075
 21
40.033
  0
LINE
  8
0
 10
-31.6075
 20
40.033
 11
-31.2773
 21
40.2145
  0
LINE
  8
0
 10
-31.2773
 20
40.2145
 11
-30.927
 21
40.3532
  0
LINE
  8
0
 10
-30.927
 20
40.3532
 11
-30.5621
 21
40.4469
  0
LINE
  8
0
 10
-30.5621
 20
40.4469
 11
-30.1884
 21
40.4941
  0
LINE
  8
0
 10
-30.1884
 20
40.4941
 11
-29.8116
 21
40.4941
  0
LINE
  8
0
 10
-29.8116
 20
40.4941
 11
-29.4379
 21
40.4469
  0
LINE
  8
0
 10
-29.4379
 20
40.4469
 11
-29.0729
 21
40.3532
  0
LINE
  8
0
 10
-29.0729
 20
40.3532
 11
-28.7227
 21
40.2145
  0
LINE
  8
0
 10
-28.7227
 20
40.2145
 11
-28.3925
 21
40.033
  0
LINE
  8
0
 10
-28.3925
 20
40.033
 11
-28.0877
 21
39.8115
  0
LINE
  8
0
 10
-28.0877
 20
39.8115
 11
-27.8131
 21
39.5536
  0
LINE
  8
0
 10
-27.8131
 20
39.5536
 11
-27.5729
 21
39.2634
  0
LINE
  8
0
 10
-27.5729
 20
39.2634
 11
-27.3711
 21
38.9453
  0
LINE
  8
0
 10
-27.3711
 20
38.9453
 11
-27.2107
 21
38.6044
  0
LINE
  8
0
 10
-27.2107
 20
38.6044
 11
-27.0942
 21
38.2461
  0
LINE
  8
0
 10
-27.0942
 20
38.2461
 11
-27.0237
 21
37.876
  0
LINE
  8
0
 10
-27.0237
 20
37.876
 11
-27
 21
37.5
  0
LINE
  8
0
 10
-27
 20
37.5
 11
-27.0237
 21
37.124
  0
LINE
  8
0
 10
-27.0237
 20
37.124
 11
-27.0942
 21
36.7539
  0
LINE
  8
0
 10
-27.0942
 20
36.7539
 11
-27.2107
 21
36.3956
  0
LINE
  8
0
 10
-27.2107
 20
36.3956
 11
-27.3711
 21
36.0547
  0
LINE
  8
0
 10
-27.3711
 20
36.0547
 11
-27.5729
 21
35.7366
  0
LINE
  8
0
 10
-27.5729
 20
35.7366
 11
-27.8131
 21
35.4464
  0
LINE
  8
0
 10
-27.8131
 20
35.4464
 11
-28.0877
 21
35.1885
  0
LINE
  8
0
 10
-28.0877
 20
35.1885
 11
-28.3925
 21
34.967
  0
ENDSEC
  0
SECTION
  2
OBJECTS
  0
DICTIONARY
  0
ENDSEC
  0
EOF
