  0
SECTION
  2
BLOCKS
  0
ENDSEC
  0
SECTION
  2
ENTITIES
  0
LINE
  8
0
 10
167.937
 20
-6.91142
 11
168.545
 21
-6.75528
  0
LINE
  8
0
 10
168.545
 20
-6.75528
 11
169.129
 21
-6.52412
  0
LINE
  8
0
 10
169.129
 20
-6.52412
 11
169.679
 21
-6.22163
  0
LINE
  8
0
 10
169.679
 20
-6.22163
 11
170.187
 21
-5.85255
  0
LINE
  8
0
 10
170.187
 20
-5.85255
 11
170.645
 21
-5.42273
  0
LINE
  8
0
 10
170.645
 20
-5.42273
 11
171.045
 21
-4.93892
  0
LINE
  8
0
 10
171.045
 20
-4.93892
 11
171.382
 21
-4.40877
  0
LINE
  8
0
 10
171.382
 20
-4.40877
 11
171.649
 21
-3.84062
  0
LINE
  8
0
 10
171.649
 20
-3.84062
 11
171.843
 21
-3.24344
  0
LINE
  8
0
 10
171.843
 20
-3.24344
 11
171.961
 21
-2.62666
  0
LINE
  8
0
 10
171.961
 20
-2.62666
 11
172
 21
-2
  0
LINE
  8
0
 10
172
 20
-2
 11
172
 21
2
  0
LINE
  8
0
 10
172
 20
2
 11
171.961
 21
2.62666
  0
LINE
  8
0
 10
171.961
 20
2.62666
 11
171.843
 21
3.24344
  0
LINE
  8
0
 10
171.843
 20
3.24344
 11
171.649
 21
3.84062
  0
LINE
  8
0
 10
171.649
 20
3.84062
 11
171.382
 21
4.40877
  0
LINE
  8
0
 10
171.382
 20
4.40877
 11
171.045
 21
4.93892
  0
LINE
  8
0
 10
171.045
 20
4.93892
 11
170.645
 21
5.42273
  0
LINE
  8
0
 10
170.645
 20
5.42273
 11
170.187
 21
5.85255
  0
LINE
  8
0
 10
170.187
 20
5.85255
 11
169.679
 21
6.22163
  0
LINE
  8
0
 10
169.679
 20
6.22163
 11
169.129
 21
6.52412
  0
LINE
  8
0
 10
169.129
 20
6.52412
 11
168.545
 21
6.75528
  0
LINE
  8
0
 10
168.545
 20
6.75528
 11
167.937
 21
6.91142
  0
LINE
  8
0
 10
167.937
 20
6.91142
 11
167.314
 21
6.99013
  0
LINE
  8
0
 10
167.314
 20
6.99013
 11
-167.314
 21
6.99013
  0
LINE
  8
0
 10
-167.314
 20
6.99013
 11
-167.937
 21
6.91142
  0
LINE
  8
0
 10
-167.937
 20
6.91142
 11
-168.545
 21
6.75528
  0
LINE
  8
0
 10
-168.545
 20
6.75528
 11
-169.129
 21
6.52412
  0
LINE
  8
0
 10
-169.129
 20
6.52412
 11
-169.679
 21
6.22163
  0
LINE
  8
0
 10
-169.679
 20
6.22163
 11
-170.187
 21
5.85255
  0
LINE
  8
0
 10
-170.187
 20
5.85255
 11
-170.645
 21
5.42273
  0
LINE
  8
0
 10
-170.645
 20
5.42273
 11
-171.045
 21
4.93892
  0
LINE
  8
0
 10
-171.045
 20
4.93892
 11
-171.382
 21
4.40877
  0
LINE
  8
0
 10
-171.382
 20
4.40877
 11
-171.649
 21
3.84062
  0
LINE
  8
0
 10
-171.649
 20
3.84062
 11
-171.843
 21
3.24344
  0
LINE
  8
0
 10
-171.843
 20
3.24344
 11
-171.961
 21
2.62666
  0
LINE
  8
0
 10
-171.961
 20
2.62666
 11
-172
 21
2
  0
LINE
  8
0
 10
-172
 20
2
 11
-172
 21
-2
  0
LINE
  8
0
 10
-172
 20
-2
 11
-171.961
 21
-2.62666
  0
LINE
  8
0
 10
-171.961
 20
-2.62666
 11
-171.843
 21
-3.24344
  0
LINE
  8
0
 10
-171.843
 20
-3.24344
 11
-171.649
 21
-3.84062
  0
LINE
  8
0
 10
-171.649
 20
-3.84062
 11
-171.382
 21
-4.40877
  0
LINE
  8
0
 10
-171.382
 20
-4.40877
 11
-171.045
 21
-4.93892
  0
LINE
  8
0
 10
-171.045
 20
-4.93892
 11
-170.645
 21
-5.42273
  0
LINE
  8
0
 10
-170.645
 20
-5.42273
 11
-170.187
 21
-5.85255
  0
LINE
  8
0
 10
-170.187
 20
-5.85255
 11
-169.679
 21
-6.22163
  0
LINE
  8
0
 10
-169.679
 20
-6.22163
 11
-169.129
 21
-6.52412
  0
LINE
  8
0
 10
-169.129
 20
-6.52412
 11
-168.545
 21
-6.75528
  0
LINE
  8
0
 10
-168.545
 20
-6.75528
 11
-167.937
 21
-6.91142
  0
LINE
  8
0
 10
-167.937
 20
-6.91142
 11
-167.314
 21
-6.99013
  0
LINE
  8
0
 10
-167.314
 20
-6.99013
 11
167.314
 21
-6.99013
  0
LINE
  8
0
 10
167.314
 20
-6.99013
 11
167.937
 21
-6.91142
  0
LINE
  8
0
 10
-165.188
 20
-2.99408
 11
-165.562
 21
-2.94685
  0
LINE
  8
0
 10
-165.562
 20
-2.94685
 11
-165.927
 21
-2.85316
  0
LINE
  8
0
 10
-165.927
 20
-2.85316
 11
-166.277
 21
-2.71448
  0
LINE
  8
0
 10
-166.277
 20
-2.71448
 11
-166.607
 21
-2.53297
  0
LINE
  8
0
 10
-166.607
 20
-2.53297
 11
-166.912
 21
-2.31154
  0
LINE
  8
0
 10
-166.912
 20
-2.31154
 11
-167.187
 21
-2.05363
  0
LINE
  8
0
 10
-167.187
 20
-2.05363
 11
-167.427
 21
-1.76335
  0
LINE
  8
0
 10
-167.427
 20
-1.76335
 11
-167.629
 21
-1.44525
  0
LINE
  8
0
 10
-167.629
 20
-1.44525
 11
-167.789
 21
-1.10437
  0
LINE
  8
0
 10
-167.789
 20
-1.10437
 11
-167.906
 21
-0.746063
  0
LINE
  8
0
 10
-167.906
 20
-0.746063
 11
-167.976
 21
-0.375992
  0
LINE
  8
0
 10
-167.976
 20
-0.375992
 11
-168
 21
0
  0
LINE
  8
0
 10
-168
 20
0
 11
-167.976
 21
0.375992
  0
LINE
  8
0
 10
-167.976
 20
0.375992
 11
-167.906
 21
0.746063
  0
LINE
  8
0
 10
-167.906
 20
0.746063
 11
-167.789
 21
1.10437
  0
LINE
  8
0
 10
-167.789
 20
1.10437
 11
-167.629
 21
1.44525
  0
LINE
  8
0
 10
-167.629
 20
1.44525
 11
-167.427
 21
1.76335
  0
LINE
  8
0
 10
-167.427
 20
1.76335
 11
-167.187
 21
2.05363
  0
LINE
  8
0
 10
-167.187
 20
2.05363
 11
-166.912
 21
2.31154
  0
LINE
  8
0
 10
-166.912
 20
2.31154
 11
-166.607
 21
2.53297
  0
LINE
  8
0
 10
-166.607
 20
2.53297
 11
-166.277
 21
2.71448
  0
LINE
  8
0
 10
-166.277
 20
2.71448
 11
-165.927
 21
2.85316
  0
LINE
  8
0
 10
-165.927
 20
2.85316
 11
-165.562
 21
2.94685
  0
LINE
  8
0
 10
-165.562
 20
2.94685
 11
-165.188
 21
2.99408
  0
LINE
  8
0
 10
-165.188
 20
2.99408
 11
-164.812
 21
2.99408
  0
LINE
  8
0
 10
-164.812
 20
2.99408
 11
-164.438
 21
2.94685
  0
LINE
  8
0
 10
-164.438
 20
2.94685
 11
-164.073
 21
2.85316
  0
LINE
  8
0
 10
-164.073
 20
2.85316
 11
-163.723
 21
2.71448
  0
LINE
  8
0
 10
-163.723
 20
2.71448
 11
-163.393
 21
2.53297
  0
LINE
  8
0
 10
-163.393
 20
2.53297
 11
-163.088
 21
2.31154
  0
LINE
  8
0
 10
-163.088
 20
2.31154
 11
-162.813
 21
2.05363
  0
LINE
  8
0
 10
-162.813
 20
2.05363
 11
-162.573
 21
1.76335
  0
LINE
  8
0
 10
-162.573
 20
1.76335
 11
-162.371
 21
1.44525
  0
LINE
  8
0
 10
-162.371
 20
1.44525
 11
-162.211
 21
1.10437
  0
LINE
  8
0
 10
-162.211
 20
1.10437
 11
-162.094
 21
0.746063
  0
LINE
  8
0
 10
-162.094
 20
0.746063
 11
-162.024
 21
0.375992
  0
LINE
  8
0
 10
-162.024
 20
0.375992
 11
-162
 21
0
  0
LINE
  8
0
 10
-162
 20
0
 11
-162.024
 21
-0.375992
  0
LINE
  8
0
 10
-162.024
 20
-0.375992
 11
-162.094
 21
-0.746063
  0
LINE
  8
0
 10
-162.094
 20
-0.746063
 11
-162.211
 21
-1.10437
  0
LINE
  8
0
 10
-162.211
 20
-1.10437
 11
-162.371
 21
-1.44525
  0
LINE
  8
0
 10
-162.371
 20
-1.44525
 11
-162.573
 21
-1.76335
  0
LINE
  8
0
 10
-162.573
 20
-1.76335
 11
-162.813
 21
-2.05363
  0
LINE
  8
0
 10
-162.813
 20
-2.05363
 11
-163.088
 21
-2.31154
  0
LINE
  8
0
 10
-163.088
 20
-2.31154
 11
-163.393
 21
-2.53297
  0
LINE
  8
0
 10
-163.393
 20
-2.53297
 11
-163.723
 21
-2.71448
  0
LINE
  8
0
 10
-163.723
 20
-2.71448
 11
-164.073
 21
-2.85316
  0
LINE
  8
0
 10
-164.073
 20
-2.85316
 11
-164.438
 21
-2.94685
  0
LINE
  8
0
 10
-164.438
 20
-2.94685
 11
-164.812
 21
-2.99408
  0
LINE
  8
0
 10
-164.812
 20
-2.99408
 11
-165.188
 21
-2.99408
  0
ENDSEC
  0
SECTION
  2
OBJECTS
  0
DICTIONARY
  0
ENDSEC
  0
EOF
