  0
SECTION
  2
BLOCKS
  0
ENDSEC
  0
SECTION
  2
ENTITIES
  0
LINE
  8
0
 10
1.31166
 20
233.124
 11
2.16312
 21
233.343
  0
LINE
  8
0
 10
2.16312
 20
233.343
 11
2.98045
 21
233.666
  0
LINE
  8
0
 10
2.98045
 20
233.666
 11
3.75078
 21
234.09
  0
LINE
  8
0
 10
3.75078
 20
234.09
 11
4.46196
 21
234.606
  0
LINE
  8
0
 10
4.46196
 20
234.606
 11
5.10277
 21
235.208
  0
LINE
  8
0
 10
5.10277
 20
235.208
 11
5.66312
 21
235.886
  0
LINE
  8
0
 10
5.66312
 20
235.886
 11
6.13414
 21
236.628
  0
LINE
  8
0
 10
6.13414
 20
236.628
 11
6.50842
 21
237.423
  0
LINE
  8
0
 10
6.50842
 20
237.423
 11
6.78008
 21
238.259
  0
LINE
  8
0
 10
6.78008
 20
238.259
 11
6.94479
 21
239.123
  0
LINE
  8
0
 10
6.94479
 20
239.123
 11
7
 21
240
  0
LINE
  8
0
 10
7
 20
240
 11
6.94479
 21
240.877
  0
LINE
  8
0
 10
6.94479
 20
240.877
 11
6.78008
 21
241.741
  0
LINE
  8
0
 10
6.78008
 20
241.741
 11
6.50842
 21
242.577
  0
LINE
  8
0
 10
6.50842
 20
242.577
 11
6.13414
 21
243.372
  0
LINE
  8
0
 10
6.13414
 20
243.372
 11
5.66312
 21
244.114
  0
LINE
  8
0
 10
5.66312
 20
244.114
 11
5.10277
 21
244.792
  0
LINE
  8
0
 10
5.10277
 20
244.792
 11
4.46196
 21
245.394
  0
LINE
  8
0
 10
4.46196
 20
245.394
 11
3.75078
 21
245.91
  0
LINE
  8
0
 10
3.75078
 20
245.91
 11
2.98045
 21
246.334
  0
LINE
  8
0
 10
2.98045
 20
246.334
 11
2.16312
 21
246.657
  0
LINE
  8
0
 10
2.16312
 20
246.657
 11
1.31166
 21
246.876
  0
LINE
  8
0
 10
1.31166
 20
246.876
 11
0.439529
 21
246.986
  0
LINE
  8
0
 10
0.439529
 20
246.986
 11
-0.439529
 21
246.986
  0
LINE
  8
0
 10
-0.439529
 20
246.986
 11
-1.31166
 21
246.876
  0
LINE
  8
0
 10
-1.31166
 20
246.876
 11
-2.16312
 21
246.657
  0
LINE
  8
0
 10
-2.16312
 20
246.657
 11
-2.98045
 21
246.334
  0
LINE
  8
0
 10
-2.98045
 20
246.334
 11
-3.75078
 21
245.91
  0
LINE
  8
0
 10
-3.75078
 20
245.91
 11
-4.46196
 21
245.394
  0
LINE
  8
0
 10
-4.46196
 20
245.394
 11
-5.10277
 21
244.792
  0
LINE
  8
0
 10
-5.10277
 20
244.792
 11
-5.66312
 21
244.114
  0
LINE
  8
0
 10
-5.66312
 20
244.114
 11
-6.13414
 21
243.372
  0
LINE
  8
0
 10
-6.13414
 20
243.372
 11
-6.50842
 21
242.577
  0
LINE
  8
0
 10
-6.50842
 20
242.577
 11
-6.78008
 21
241.741
  0
LINE
  8
0
 10
-6.78008
 20
241.741
 11
-6.94479
 21
240.877
  0
LINE
  8
0
 10
-6.94479
 20
240.877
 11
-7
 21
240
  0
LINE
  8
0
 10
-7
 20
240
 11
-6.94479
 21
239.123
  0
LINE
  8
0
 10
-6.94479
 20
239.123
 11
-6.78008
 21
238.259
  0
LINE
  8
0
 10
-6.78008
 20
238.259
 11
-6.50842
 21
237.423
  0
LINE
  8
0
 10
-6.50842
 20
237.423
 11
-6.13414
 21
236.628
  0
LINE
  8
0
 10
-6.13414
 20
236.628
 11
-5.66312
 21
235.886
  0
LINE
  8
0
 10
-5.66312
 20
235.886
 11
-5.10277
 21
235.208
  0
LINE
  8
0
 10
-5.10277
 20
235.208
 11
-4.46196
 21
234.606
  0
LINE
  8
0
 10
-4.46196
 20
234.606
 11
-3.75078
 21
234.09
  0
LINE
  8
0
 10
-3.75078
 20
234.09
 11
-2.98045
 21
233.666
  0
LINE
  8
0
 10
-2.98045
 20
233.666
 11
-2.16312
 21
233.343
  0
LINE
  8
0
 10
-2.16312
 20
233.343
 11
-1.31166
 21
233.124
  0
LINE
  8
0
 10
-1.31166
 20
233.124
 11
-0.439529
 21
233.014
  0
LINE
  8
0
 10
-0.439529
 20
233.014
 11
0.439529
 21
233.014
  0
LINE
  8
0
 10
0.439529
 20
233.014
 11
1.31166
 21
233.124
  0
LINE
  8
0
 10
-0.0941772
 20
238.503
 11
-0.281067
 21
238.527
  0
LINE
  8
0
 10
-0.281067
 20
238.527
 11
-0.463516
 21
238.573
  0
LINE
  8
0
 10
-0.463516
 20
238.573
 11
-0.638657
 21
238.643
  0
LINE
  8
0
 10
-0.638657
 20
238.643
 11
-0.803726
 21
238.734
  0
LINE
  8
0
 10
-0.803726
 20
238.734
 11
-0.956131
 21
238.844
  0
LINE
  8
0
 10
-0.956131
 20
238.844
 11
-1.09344
 21
238.973
  0
LINE
  8
0
 10
-1.09344
 20
238.973
 11
-1.21352
 21
239.118
  0
LINE
  8
0
 10
-1.21352
 20
239.118
 11
-1.31445
 21
239.277
  0
LINE
  8
0
 10
-1.31445
 20
239.277
 11
-1.39465
 21
239.448
  0
LINE
  8
0
 10
-1.39465
 20
239.448
 11
-1.45287
 21
239.627
  0
LINE
  8
0
 10
-1.45287
 20
239.627
 11
-1.48816
 21
239.812
  0
LINE
  8
0
 10
-1.48816
 20
239.812
 11
-1.5
 21
240
  0
LINE
  8
0
 10
-1.5
 20
240
 11
-1.48816
 21
240.188
  0
LINE
  8
0
 10
-1.48816
 20
240.188
 11
-1.45287
 21
240.373
  0
LINE
  8
0
 10
-1.45287
 20
240.373
 11
-1.39465
 21
240.552
  0
LINE
  8
0
 10
-1.39465
 20
240.552
 11
-1.31445
 21
240.723
  0
LINE
  8
0
 10
-1.31445
 20
240.723
 11
-1.21352
 21
240.882
  0
LINE
  8
0
 10
-1.21352
 20
240.882
 11
-1.09344
 21
241.027
  0
LINE
  8
0
 10
-1.09344
 20
241.027
 11
-0.956131
 21
241.156
  0
LINE
  8
0
 10
-0.956131
 20
241.156
 11
-0.803726
 21
241.266
  0
LINE
  8
0
 10
-0.803726
 20
241.266
 11
-0.638657
 21
241.357
  0
LINE
  8
0
 10
-0.638657
 20
241.357
 11
-0.463516
 21
241.427
  0
LINE
  8
0
 10
-0.463516
 20
241.427
 11
-0.281067
 21
241.473
  0
LINE
  8
0
 10
-0.281067
 20
241.473
 11
-0.0941772
 21
241.497
  0
LINE
  8
0
 10
-0.0941772
 20
241.497
 11
0.0941772
 21
241.497
  0
LINE
  8
0
 10
0.0941772
 20
241.497
 11
0.281067
 21
241.473
  0
LINE
  8
0
 10
0.281067
 20
241.473
 11
0.463516
 21
241.427
  0
LINE
  8
0
 10
0.463516
 20
241.427
 11
0.638657
 21
241.357
  0
LINE
  8
0
 10
0.638657
 20
241.357
 11
0.803726
 21
241.266
  0
LINE
  8
0
 10
0.803726
 20
241.266
 11
0.956131
 21
241.156
  0
LINE
  8
0
 10
0.956131
 20
241.156
 11
1.09344
 21
241.027
  0
LINE
  8
0
 10
1.09344
 20
241.027
 11
1.21352
 21
240.882
  0
LINE
  8
0
 10
1.21352
 20
240.882
 11
1.31445
 21
240.723
  0
LINE
  8
0
 10
1.31445
 20
240.723
 11
1.39465
 21
240.552
  0
LINE
  8
0
 10
1.39465
 20
240.552
 11
1.45287
 21
240.373
  0
LINE
  8
0
 10
1.45287
 20
240.373
 11
1.48816
 21
240.188
  0
LINE
  8
0
 10
1.48816
 20
240.188
 11
1.5
 21
240
  0
LINE
  8
0
 10
1.5
 20
240
 11
1.48816
 21
239.812
  0
LINE
  8
0
 10
1.48816
 20
239.812
 11
1.45287
 21
239.627
  0
LINE
  8
0
 10
1.45287
 20
239.627
 11
1.39465
 21
239.448
  0
LINE
  8
0
 10
1.39465
 20
239.448
 11
1.31445
 21
239.277
  0
LINE
  8
0
 10
1.31445
 20
239.277
 11
1.21352
 21
239.118
  0
LINE
  8
0
 10
1.21352
 20
239.118
 11
1.09344
 21
238.973
  0
LINE
  8
0
 10
1.09344
 20
238.973
 11
0.956131
 21
238.844
  0
LINE
  8
0
 10
0.956131
 20
238.844
 11
0.803726
 21
238.734
  0
LINE
  8
0
 10
0.803726
 20
238.734
 11
0.638657
 21
238.643
  0
LINE
  8
0
 10
0.638657
 20
238.643
 11
0.463516
 21
238.573
  0
LINE
  8
0
 10
0.463516
 20
238.573
 11
0.281067
 21
238.527
  0
LINE
  8
0
 10
0.281067
 20
238.527
 11
0.0941772
 21
238.503
  0
LINE
  8
0
 10
0.0941772
 20
238.503
 11
-0.0941772
 21
238.503
  0
LINE
  8
0
 10
1.31166
 20
209.124
 11
2.16312
 21
209.343
  0
LINE
  8
0
 10
2.16312
 20
209.343
 11
2.98045
 21
209.666
  0
LINE
  8
0
 10
2.98045
 20
209.666
 11
3.75078
 21
210.09
  0
LINE
  8
0
 10
3.75078
 20
210.09
 11
4.46196
 21
210.606
  0
LINE
  8
0
 10
4.46196
 20
210.606
 11
5.10277
 21
211.208
  0
LINE
  8
0
 10
5.10277
 20
211.208
 11
5.66312
 21
211.886
  0
LINE
  8
0
 10
5.66312
 20
211.886
 11
6.13414
 21
212.628
  0
LINE
  8
0
 10
6.13414
 20
212.628
 11
6.50842
 21
213.423
  0
LINE
  8
0
 10
6.50842
 20
213.423
 11
6.78008
 21
214.259
  0
LINE
  8
0
 10
6.78008
 20
214.259
 11
6.94479
 21
215.123
  0
LINE
  8
0
 10
6.94479
 20
215.123
 11
7
 21
216
  0
LINE
  8
0
 10
7
 20
216
 11
6.94479
 21
216.877
  0
LINE
  8
0
 10
6.94479
 20
216.877
 11
6.78008
 21
217.741
  0
LINE
  8
0
 10
6.78008
 20
217.741
 11
6.50842
 21
218.577
  0
LINE
  8
0
 10
6.50842
 20
218.577
 11
6.13414
 21
219.372
  0
LINE
  8
0
 10
6.13414
 20
219.372
 11
5.66312
 21
220.114
  0
LINE
  8
0
 10
5.66312
 20
220.114
 11
5.10277
 21
220.792
  0
LINE
  8
0
 10
5.10277
 20
220.792
 11
4.46196
 21
221.394
  0
LINE
  8
0
 10
4.46196
 20
221.394
 11
3.75078
 21
221.91
  0
LINE
  8
0
 10
3.75078
 20
221.91
 11
2.98045
 21
222.334
  0
LINE
  8
0
 10
2.98045
 20
222.334
 11
2.16312
 21
222.657
  0
LINE
  8
0
 10
2.16312
 20
222.657
 11
1.31166
 21
222.876
  0
LINE
  8
0
 10
1.31166
 20
222.876
 11
0.439529
 21
222.986
  0
LINE
  8
0
 10
0.439529
 20
222.986
 11
-0.439529
 21
222.986
  0
LINE
  8
0
 10
-0.439529
 20
222.986
 11
-1.31166
 21
222.876
  0
LINE
  8
0
 10
-1.31166
 20
222.876
 11
-2.16312
 21
222.657
  0
LINE
  8
0
 10
-2.16312
 20
222.657
 11
-2.98045
 21
222.334
  0
LINE
  8
0
 10
-2.98045
 20
222.334
 11
-3.75078
 21
221.91
  0
LINE
  8
0
 10
-3.75078
 20
221.91
 11
-4.46196
 21
221.394
  0
LINE
  8
0
 10
-4.46196
 20
221.394
 11
-5.10277
 21
220.792
  0
LINE
  8
0
 10
-5.10277
 20
220.792
 11
-5.66312
 21
220.114
  0
LINE
  8
0
 10
-5.66312
 20
220.114
 11
-6.13414
 21
219.372
  0
LINE
  8
0
 10
-6.13414
 20
219.372
 11
-6.50842
 21
218.577
  0
LINE
  8
0
 10
-6.50842
 20
218.577
 11
-6.78008
 21
217.741
  0
LINE
  8
0
 10
-6.78008
 20
217.741
 11
-6.94479
 21
216.877
  0
LINE
  8
0
 10
-6.94479
 20
216.877
 11
-7
 21
216
  0
LINE
  8
0
 10
-7
 20
216
 11
-6.94479
 21
215.123
  0
LINE
  8
0
 10
-6.94479
 20
215.123
 11
-6.78008
 21
214.259
  0
LINE
  8
0
 10
-6.78008
 20
214.259
 11
-6.50842
 21
213.423
  0
LINE
  8
0
 10
-6.50842
 20
213.423
 11
-6.13414
 21
212.628
  0
LINE
  8
0
 10
-6.13414
 20
212.628
 11
-5.66312
 21
211.886
  0
LINE
  8
0
 10
-5.66312
 20
211.886
 11
-5.10277
 21
211.208
  0
LINE
  8
0
 10
-5.10277
 20
211.208
 11
-4.46196
 21
210.606
  0
LINE
  8
0
 10
-4.46196
 20
210.606
 11
-3.75078
 21
210.09
  0
LINE
  8
0
 10
-3.75078
 20
210.09
 11
-2.98045
 21
209.666
  0
LINE
  8
0
 10
-2.98045
 20
209.666
 11
-2.16312
 21
209.343
  0
LINE
  8
0
 10
-2.16312
 20
209.343
 11
-1.31166
 21
209.124
  0
LINE
  8
0
 10
-1.31166
 20
209.124
 11
-0.439529
 21
209.014
  0
LINE
  8
0
 10
-0.439529
 20
209.014
 11
0.439529
 21
209.014
  0
LINE
  8
0
 10
0.439529
 20
209.014
 11
1.31166
 21
209.124
  0
LINE
  8
0
 10
-0.0941772
 20
214.503
 11
-0.281067
 21
214.527
  0
LINE
  8
0
 10
-0.281067
 20
214.527
 11
-0.463516
 21
214.573
  0
LINE
  8
0
 10
-0.463516
 20
214.573
 11
-0.638657
 21
214.643
  0
LINE
  8
0
 10
-0.638657
 20
214.643
 11
-0.803726
 21
214.734
  0
LINE
  8
0
 10
-0.803726
 20
214.734
 11
-0.956131
 21
214.844
  0
LINE
  8
0
 10
-0.956131
 20
214.844
 11
-1.09344
 21
214.973
  0
LINE
  8
0
 10
-1.09344
 20
214.973
 11
-1.21352
 21
215.118
  0
LINE
  8
0
 10
-1.21352
 20
215.118
 11
-1.31445
 21
215.277
  0
LINE
  8
0
 10
-1.31445
 20
215.277
 11
-1.39465
 21
215.448
  0
LINE
  8
0
 10
-1.39465
 20
215.448
 11
-1.45287
 21
215.627
  0
LINE
  8
0
 10
-1.45287
 20
215.627
 11
-1.48816
 21
215.812
  0
LINE
  8
0
 10
-1.48816
 20
215.812
 11
-1.5
 21
216
  0
LINE
  8
0
 10
-1.5
 20
216
 11
-1.48816
 21
216.188
  0
LINE
  8
0
 10
-1.48816
 20
216.188
 11
-1.45287
 21
216.373
  0
LINE
  8
0
 10
-1.45287
 20
216.373
 11
-1.39465
 21
216.552
  0
LINE
  8
0
 10
-1.39465
 20
216.552
 11
-1.31445
 21
216.723
  0
LINE
  8
0
 10
-1.31445
 20
216.723
 11
-1.21352
 21
216.882
  0
LINE
  8
0
 10
-1.21352
 20
216.882
 11
-1.09344
 21
217.027
  0
LINE
  8
0
 10
-1.09344
 20
217.027
 11
-0.956131
 21
217.156
  0
LINE
  8
0
 10
-0.956131
 20
217.156
 11
-0.803726
 21
217.266
  0
LINE
  8
0
 10
-0.803726
 20
217.266
 11
-0.638657
 21
217.357
  0
LINE
  8
0
 10
-0.638657
 20
217.357
 11
-0.463516
 21
217.427
  0
LINE
  8
0
 10
-0.463516
 20
217.427
 11
-0.281067
 21
217.473
  0
LINE
  8
0
 10
-0.281067
 20
217.473
 11
-0.0941772
 21
217.497
  0
LINE
  8
0
 10
-0.0941772
 20
217.497
 11
0.0941772
 21
217.497
  0
LINE
  8
0
 10
0.0941772
 20
217.497
 11
0.281067
 21
217.473
  0
LINE
  8
0
 10
0.281067
 20
217.473
 11
0.463516
 21
217.427
  0
LINE
  8
0
 10
0.463516
 20
217.427
 11
0.638657
 21
217.357
  0
LINE
  8
0
 10
0.638657
 20
217.357
 11
0.803726
 21
217.266
  0
LINE
  8
0
 10
0.803726
 20
217.266
 11
0.956131
 21
217.156
  0
LINE
  8
0
 10
0.956131
 20
217.156
 11
1.09344
 21
217.027
  0
LINE
  8
0
 10
1.09344
 20
217.027
 11
1.21352
 21
216.882
  0
LINE
  8
0
 10
1.21352
 20
216.882
 11
1.31445
 21
216.723
  0
LINE
  8
0
 10
1.31445
 20
216.723
 11
1.39465
 21
216.552
  0
LINE
  8
0
 10
1.39465
 20
216.552
 11
1.45287
 21
216.373
  0
LINE
  8
0
 10
1.45287
 20
216.373
 11
1.48816
 21
216.188
  0
LINE
  8
0
 10
1.48816
 20
216.188
 11
1.5
 21
216
  0
LINE
  8
0
 10
1.5
 20
216
 11
1.48816
 21
215.812
  0
LINE
  8
0
 10
1.48816
 20
215.812
 11
1.45287
 21
215.627
  0
LINE
  8
0
 10
1.45287
 20
215.627
 11
1.39465
 21
215.448
  0
LINE
  8
0
 10
1.39465
 20
215.448
 11
1.31445
 21
215.277
  0
LINE
  8
0
 10
1.31445
 20
215.277
 11
1.21352
 21
215.118
  0
LINE
  8
0
 10
1.21352
 20
215.118
 11
1.09344
 21
214.973
  0
LINE
  8
0
 10
1.09344
 20
214.973
 11
0.956131
 21
214.844
  0
LINE
  8
0
 10
0.956131
 20
214.844
 11
0.803726
 21
214.734
  0
LINE
  8
0
 10
0.803726
 20
214.734
 11
0.638657
 21
214.643
  0
LINE
  8
0
 10
0.638657
 20
214.643
 11
0.463516
 21
214.573
  0
LINE
  8
0
 10
0.463516
 20
214.573
 11
0.281067
 21
214.527
  0
LINE
  8
0
 10
0.281067
 20
214.527
 11
0.0941772
 21
214.503
  0
LINE
  8
0
 10
0.0941772
 20
214.503
 11
-0.0941772
 21
214.503
  0
LINE
  8
0
 10
1.31166
 20
185.124
 11
2.16312
 21
185.343
  0
LINE
  8
0
 10
2.16312
 20
185.343
 11
2.98045
 21
185.666
  0
LINE
  8
0
 10
2.98045
 20
185.666
 11
3.75078
 21
186.09
  0
LINE
  8
0
 10
3.75078
 20
186.09
 11
4.46196
 21
186.606
  0
LINE
  8
0
 10
4.46196
 20
186.606
 11
5.10277
 21
187.208
  0
LINE
  8
0
 10
5.10277
 20
187.208
 11
5.66312
 21
187.886
  0
LINE
  8
0
 10
5.66312
 20
187.886
 11
6.13414
 21
188.628
  0
LINE
  8
0
 10
6.13414
 20
188.628
 11
6.50842
 21
189.423
  0
LINE
  8
0
 10
6.50842
 20
189.423
 11
6.78008
 21
190.259
  0
LINE
  8
0
 10
6.78008
 20
190.259
 11
6.94479
 21
191.123
  0
LINE
  8
0
 10
6.94479
 20
191.123
 11
7
 21
192
  0
LINE
  8
0
 10
7
 20
192
 11
6.94479
 21
192.877
  0
LINE
  8
0
 10
6.94479
 20
192.877
 11
6.78008
 21
193.741
  0
LINE
  8
0
 10
6.78008
 20
193.741
 11
6.50842
 21
194.577
  0
LINE
  8
0
 10
6.50842
 20
194.577
 11
6.13414
 21
195.372
  0
LINE
  8
0
 10
6.13414
 20
195.372
 11
5.66312
 21
196.114
  0
LINE
  8
0
 10
5.66312
 20
196.114
 11
5.10277
 21
196.792
  0
LINE
  8
0
 10
5.10277
 20
196.792
 11
4.46196
 21
197.394
  0
LINE
  8
0
 10
4.46196
 20
197.394
 11
3.75078
 21
197.91
  0
LINE
  8
0
 10
3.75078
 20
197.91
 11
2.98045
 21
198.334
  0
LINE
  8
0
 10
2.98045
 20
198.334
 11
2.16312
 21
198.657
  0
LINE
  8
0
 10
2.16312
 20
198.657
 11
1.31166
 21
198.876
  0
LINE
  8
0
 10
1.31166
 20
198.876
 11
0.439529
 21
198.986
  0
LINE
  8
0
 10
0.439529
 20
198.986
 11
-0.439529
 21
198.986
  0
LINE
  8
0
 10
-0.439529
 20
198.986
 11
-1.31166
 21
198.876
  0
LINE
  8
0
 10
-1.31166
 20
198.876
 11
-2.16312
 21
198.657
  0
LINE
  8
0
 10
-2.16312
 20
198.657
 11
-2.98045
 21
198.334
  0
LINE
  8
0
 10
-2.98045
 20
198.334
 11
-3.75078
 21
197.91
  0
LINE
  8
0
 10
-3.75078
 20
197.91
 11
-4.46196
 21
197.394
  0
LINE
  8
0
 10
-4.46196
 20
197.394
 11
-5.10277
 21
196.792
  0
LINE
  8
0
 10
-5.10277
 20
196.792
 11
-5.66312
 21
196.114
  0
LINE
  8
0
 10
-5.66312
 20
196.114
 11
-6.13414
 21
195.372
  0
LINE
  8
0
 10
-6.13414
 20
195.372
 11
-6.50842
 21
194.577
  0
LINE
  8
0
 10
-6.50842
 20
194.577
 11
-6.78008
 21
193.741
  0
LINE
  8
0
 10
-6.78008
 20
193.741
 11
-6.94479
 21
192.877
  0
LINE
  8
0
 10
-6.94479
 20
192.877
 11
-7
 21
192
  0
LINE
  8
0
 10
-7
 20
192
 11
-6.94479
 21
191.123
  0
LINE
  8
0
 10
-6.94479
 20
191.123
 11
-6.78008
 21
190.259
  0
LINE
  8
0
 10
-6.78008
 20
190.259
 11
-6.50842
 21
189.423
  0
LINE
  8
0
 10
-6.50842
 20
189.423
 11
-6.13414
 21
188.628
  0
LINE
  8
0
 10
-6.13414
 20
188.628
 11
-5.66312
 21
187.886
  0
LINE
  8
0
 10
-5.66312
 20
187.886
 11
-5.10277
 21
187.208
  0
LINE
  8
0
 10
-5.10277
 20
187.208
 11
-4.46196
 21
186.606
  0
LINE
  8
0
 10
-4.46196
 20
186.606
 11
-3.75078
 21
186.09
  0
LINE
  8
0
 10
-3.75078
 20
186.09
 11
-2.98045
 21
185.666
  0
LINE
  8
0
 10
-2.98045
 20
185.666
 11
-2.16312
 21
185.343
  0
LINE
  8
0
 10
-2.16312
 20
185.343
 11
-1.31166
 21
185.124
  0
LINE
  8
0
 10
-1.31166
 20
185.124
 11
-0.439529
 21
185.014
  0
LINE
  8
0
 10
-0.439529
 20
185.014
 11
0.439529
 21
185.014
  0
LINE
  8
0
 10
0.439529
 20
185.014
 11
1.31166
 21
185.124
  0
LINE
  8
0
 10
-0.0941772
 20
190.503
 11
-0.281067
 21
190.527
  0
LINE
  8
0
 10
-0.281067
 20
190.527
 11
-0.463516
 21
190.573
  0
LINE
  8
0
 10
-0.463516
 20
190.573
 11
-0.638657
 21
190.643
  0
LINE
  8
0
 10
-0.638657
 20
190.643
 11
-0.803726
 21
190.734
  0
LINE
  8
0
 10
-0.803726
 20
190.734
 11
-0.956131
 21
190.844
  0
LINE
  8
0
 10
-0.956131
 20
190.844
 11
-1.09344
 21
190.973
  0
LINE
  8
0
 10
-1.09344
 20
190.973
 11
-1.21352
 21
191.118
  0
LINE
  8
0
 10
-1.21352
 20
191.118
 11
-1.31445
 21
191.277
  0
LINE
  8
0
 10
-1.31445
 20
191.277
 11
-1.39465
 21
191.448
  0
LINE
  8
0
 10
-1.39465
 20
191.448
 11
-1.45287
 21
191.627
  0
LINE
  8
0
 10
-1.45287
 20
191.627
 11
-1.48816
 21
191.812
  0
LINE
  8
0
 10
-1.48816
 20
191.812
 11
-1.5
 21
192
  0
LINE
  8
0
 10
-1.5
 20
192
 11
-1.48816
 21
192.188
  0
LINE
  8
0
 10
-1.48816
 20
192.188
 11
-1.45287
 21
192.373
  0
LINE
  8
0
 10
-1.45287
 20
192.373
 11
-1.39465
 21
192.552
  0
LINE
  8
0
 10
-1.39465
 20
192.552
 11
-1.31445
 21
192.723
  0
LINE
  8
0
 10
-1.31445
 20
192.723
 11
-1.21352
 21
192.882
  0
LINE
  8
0
 10
-1.21352
 20
192.882
 11
-1.09344
 21
193.027
  0
LINE
  8
0
 10
-1.09344
 20
193.027
 11
-0.956131
 21
193.156
  0
LINE
  8
0
 10
-0.956131
 20
193.156
 11
-0.803726
 21
193.266
  0
LINE
  8
0
 10
-0.803726
 20
193.266
 11
-0.638657
 21
193.357
  0
LINE
  8
0
 10
-0.638657
 20
193.357
 11
-0.463516
 21
193.427
  0
LINE
  8
0
 10
-0.463516
 20
193.427
 11
-0.281067
 21
193.473
  0
LINE
  8
0
 10
-0.281067
 20
193.473
 11
-0.0941772
 21
193.497
  0
LINE
  8
0
 10
-0.0941772
 20
193.497
 11
0.0941772
 21
193.497
  0
LINE
  8
0
 10
0.0941772
 20
193.497
 11
0.281067
 21
193.473
  0
LINE
  8
0
 10
0.281067
 20
193.473
 11
0.463516
 21
193.427
  0
LINE
  8
0
 10
0.463516
 20
193.427
 11
0.638657
 21
193.357
  0
LINE
  8
0
 10
0.638657
 20
193.357
 11
0.803726
 21
193.266
  0
LINE
  8
0
 10
0.803726
 20
193.266
 11
0.956131
 21
193.156
  0
LINE
  8
0
 10
0.956131
 20
193.156
 11
1.09344
 21
193.027
  0
LINE
  8
0
 10
1.09344
 20
193.027
 11
1.21352
 21
192.882
  0
LINE
  8
0
 10
1.21352
 20
192.882
 11
1.31445
 21
192.723
  0
LINE
  8
0
 10
1.31445
 20
192.723
 11
1.39465
 21
192.552
  0
LINE
  8
0
 10
1.39465
 20
192.552
 11
1.45287
 21
192.373
  0
LINE
  8
0
 10
1.45287
 20
192.373
 11
1.48816
 21
192.188
  0
LINE
  8
0
 10
1.48816
 20
192.188
 11
1.5
 21
192
  0
LINE
  8
0
 10
1.5
 20
192
 11
1.48816
 21
191.812
  0
LINE
  8
0
 10
1.48816
 20
191.812
 11
1.45287
 21
191.627
  0
LINE
  8
0
 10
1.45287
 20
191.627
 11
1.39465
 21
191.448
  0
LINE
  8
0
 10
1.39465
 20
191.448
 11
1.31445
 21
191.277
  0
LINE
  8
0
 10
1.31445
 20
191.277
 11
1.21352
 21
191.118
  0
LINE
  8
0
 10
1.21352
 20
191.118
 11
1.09344
 21
190.973
  0
LINE
  8
0
 10
1.09344
 20
190.973
 11
0.956131
 21
190.844
  0
LINE
  8
0
 10
0.956131
 20
190.844
 11
0.803726
 21
190.734
  0
LINE
  8
0
 10
0.803726
 20
190.734
 11
0.638657
 21
190.643
  0
LINE
  8
0
 10
0.638657
 20
190.643
 11
0.463516
 21
190.573
  0
LINE
  8
0
 10
0.463516
 20
190.573
 11
0.281067
 21
190.527
  0
LINE
  8
0
 10
0.281067
 20
190.527
 11
0.0941772
 21
190.503
  0
LINE
  8
0
 10
0.0941772
 20
190.503
 11
-0.0941772
 21
190.503
  0
LINE
  8
0
 10
1.31166
 20
161.124
 11
2.16312
 21
161.343
  0
LINE
  8
0
 10
2.16312
 20
161.343
 11
2.98045
 21
161.666
  0
LINE
  8
0
 10
2.98045
 20
161.666
 11
3.75078
 21
162.09
  0
LINE
  8
0
 10
3.75078
 20
162.09
 11
4.46196
 21
162.606
  0
LINE
  8
0
 10
4.46196
 20
162.606
 11
5.10277
 21
163.208
  0
LINE
  8
0
 10
5.10277
 20
163.208
 11
5.66312
 21
163.886
  0
LINE
  8
0
 10
5.66312
 20
163.886
 11
6.13414
 21
164.628
  0
LINE
  8
0
 10
6.13414
 20
164.628
 11
6.50842
 21
165.423
  0
LINE
  8
0
 10
6.50842
 20
165.423
 11
6.78008
 21
166.259
  0
LINE
  8
0
 10
6.78008
 20
166.259
 11
6.94479
 21
167.123
  0
LINE
  8
0
 10
6.94479
 20
167.123
 11
7
 21
168
  0
LINE
  8
0
 10
7
 20
168
 11
6.94479
 21
168.877
  0
LINE
  8
0
 10
6.94479
 20
168.877
 11
6.78008
 21
169.741
  0
LINE
  8
0
 10
6.78008
 20
169.741
 11
6.50842
 21
170.577
  0
LINE
  8
0
 10
6.50842
 20
170.577
 11
6.13414
 21
171.372
  0
LINE
  8
0
 10
6.13414
 20
171.372
 11
5.66312
 21
172.114
  0
LINE
  8
0
 10
5.66312
 20
172.114
 11
5.10277
 21
172.792
  0
LINE
  8
0
 10
5.10277
 20
172.792
 11
4.46196
 21
173.394
  0
LINE
  8
0
 10
4.46196
 20
173.394
 11
3.75078
 21
173.91
  0
LINE
  8
0
 10
3.75078
 20
173.91
 11
2.98045
 21
174.334
  0
LINE
  8
0
 10
2.98045
 20
174.334
 11
2.16312
 21
174.657
  0
LINE
  8
0
 10
2.16312
 20
174.657
 11
1.31166
 21
174.876
  0
LINE
  8
0
 10
1.31166
 20
174.876
 11
0.439529
 21
174.986
  0
LINE
  8
0
 10
0.439529
 20
174.986
 11
-0.439529
 21
174.986
  0
LINE
  8
0
 10
-0.439529
 20
174.986
 11
-1.31166
 21
174.876
  0
LINE
  8
0
 10
-1.31166
 20
174.876
 11
-2.16312
 21
174.657
  0
LINE
  8
0
 10
-2.16312
 20
174.657
 11
-2.98045
 21
174.334
  0
LINE
  8
0
 10
-2.98045
 20
174.334
 11
-3.75078
 21
173.91
  0
LINE
  8
0
 10
-3.75078
 20
173.91
 11
-4.46196
 21
173.394
  0
LINE
  8
0
 10
-4.46196
 20
173.394
 11
-5.10277
 21
172.792
  0
LINE
  8
0
 10
-5.10277
 20
172.792
 11
-5.66312
 21
172.114
  0
LINE
  8
0
 10
-5.66312
 20
172.114
 11
-6.13414
 21
171.372
  0
LINE
  8
0
 10
-6.13414
 20
171.372
 11
-6.50842
 21
170.577
  0
LINE
  8
0
 10
-6.50842
 20
170.577
 11
-6.78008
 21
169.741
  0
LINE
  8
0
 10
-6.78008
 20
169.741
 11
-6.94479
 21
168.877
  0
LINE
  8
0
 10
-6.94479
 20
168.877
 11
-7
 21
168
  0
LINE
  8
0
 10
-7
 20
168
 11
-6.94479
 21
167.123
  0
LINE
  8
0
 10
-6.94479
 20
167.123
 11
-6.78008
 21
166.259
  0
LINE
  8
0
 10
-6.78008
 20
166.259
 11
-6.50842
 21
165.423
  0
LINE
  8
0
 10
-6.50842
 20
165.423
 11
-6.13414
 21
164.628
  0
LINE
  8
0
 10
-6.13414
 20
164.628
 11
-5.66312
 21
163.886
  0
LINE
  8
0
 10
-5.66312
 20
163.886
 11
-5.10277
 21
163.208
  0
LINE
  8
0
 10
-5.10277
 20
163.208
 11
-4.46196
 21
162.606
  0
LINE
  8
0
 10
-4.46196
 20
162.606
 11
-3.75078
 21
162.09
  0
LINE
  8
0
 10
-3.75078
 20
162.09
 11
-2.98045
 21
161.666
  0
LINE
  8
0
 10
-2.98045
 20
161.666
 11
-2.16312
 21
161.343
  0
LINE
  8
0
 10
-2.16312
 20
161.343
 11
-1.31166
 21
161.124
  0
LINE
  8
0
 10
-1.31166
 20
161.124
 11
-0.439529
 21
161.014
  0
LINE
  8
0
 10
-0.439529
 20
161.014
 11
0.439529
 21
161.014
  0
LINE
  8
0
 10
0.439529
 20
161.014
 11
1.31166
 21
161.124
  0
LINE
  8
0
 10
-0.0941772
 20
166.503
 11
-0.281067
 21
166.527
  0
LINE
  8
0
 10
-0.281067
 20
166.527
 11
-0.463516
 21
166.573
  0
LINE
  8
0
 10
-0.463516
 20
166.573
 11
-0.638657
 21
166.643
  0
LINE
  8
0
 10
-0.638657
 20
166.643
 11
-0.803726
 21
166.734
  0
LINE
  8
0
 10
-0.803726
 20
166.734
 11
-0.956131
 21
166.844
  0
LINE
  8
0
 10
-0.956131
 20
166.844
 11
-1.09344
 21
166.973
  0
LINE
  8
0
 10
-1.09344
 20
166.973
 11
-1.21352
 21
167.118
  0
LINE
  8
0
 10
-1.21352
 20
167.118
 11
-1.31445
 21
167.277
  0
LINE
  8
0
 10
-1.31445
 20
167.277
 11
-1.39465
 21
167.448
  0
LINE
  8
0
 10
-1.39465
 20
167.448
 11
-1.45287
 21
167.627
  0
LINE
  8
0
 10
-1.45287
 20
167.627
 11
-1.48816
 21
167.812
  0
LINE
  8
0
 10
-1.48816
 20
167.812
 11
-1.5
 21
168
  0
LINE
  8
0
 10
-1.5
 20
168
 11
-1.48816
 21
168.188
  0
LINE
  8
0
 10
-1.48816
 20
168.188
 11
-1.45287
 21
168.373
  0
LINE
  8
0
 10
-1.45287
 20
168.373
 11
-1.39465
 21
168.552
  0
LINE
  8
0
 10
-1.39465
 20
168.552
 11
-1.31445
 21
168.723
  0
LINE
  8
0
 10
-1.31445
 20
168.723
 11
-1.21352
 21
168.882
  0
LINE
  8
0
 10
-1.21352
 20
168.882
 11
-1.09344
 21
169.027
  0
LINE
  8
0
 10
-1.09344
 20
169.027
 11
-0.956131
 21
169.156
  0
LINE
  8
0
 10
-0.956131
 20
169.156
 11
-0.803726
 21
169.266
  0
LINE
  8
0
 10
-0.803726
 20
169.266
 11
-0.638657
 21
169.357
  0
LINE
  8
0
 10
-0.638657
 20
169.357
 11
-0.463516
 21
169.427
  0
LINE
  8
0
 10
-0.463516
 20
169.427
 11
-0.281067
 21
169.473
  0
LINE
  8
0
 10
-0.281067
 20
169.473
 11
-0.0941772
 21
169.497
  0
LINE
  8
0
 10
-0.0941772
 20
169.497
 11
0.0941772
 21
169.497
  0
LINE
  8
0
 10
0.0941772
 20
169.497
 11
0.281067
 21
169.473
  0
LINE
  8
0
 10
0.281067
 20
169.473
 11
0.463516
 21
169.427
  0
LINE
  8
0
 10
0.463516
 20
169.427
 11
0.638657
 21
169.357
  0
LINE
  8
0
 10
0.638657
 20
169.357
 11
0.803726
 21
169.266
  0
LINE
  8
0
 10
0.803726
 20
169.266
 11
0.956131
 21
169.156
  0
LINE
  8
0
 10
0.956131
 20
169.156
 11
1.09344
 21
169.027
  0
LINE
  8
0
 10
1.09344
 20
169.027
 11
1.21352
 21
168.882
  0
LINE
  8
0
 10
1.21352
 20
168.882
 11
1.31445
 21
168.723
  0
LINE
  8
0
 10
1.31445
 20
168.723
 11
1.39465
 21
168.552
  0
LINE
  8
0
 10
1.39465
 20
168.552
 11
1.45287
 21
168.373
  0
LINE
  8
0
 10
1.45287
 20
168.373
 11
1.48816
 21
168.188
  0
LINE
  8
0
 10
1.48816
 20
168.188
 11
1.5
 21
168
  0
LINE
  8
0
 10
1.5
 20
168
 11
1.48816
 21
167.812
  0
LINE
  8
0
 10
1.48816
 20
167.812
 11
1.45287
 21
167.627
  0
LINE
  8
0
 10
1.45287
 20
167.627
 11
1.39465
 21
167.448
  0
LINE
  8
0
 10
1.39465
 20
167.448
 11
1.31445
 21
167.277
  0
LINE
  8
0
 10
1.31445
 20
167.277
 11
1.21352
 21
167.118
  0
LINE
  8
0
 10
1.21352
 20
167.118
 11
1.09344
 21
166.973
  0
LINE
  8
0
 10
1.09344
 20
166.973
 11
0.956131
 21
166.844
  0
LINE
  8
0
 10
0.956131
 20
166.844
 11
0.803726
 21
166.734
  0
LINE
  8
0
 10
0.803726
 20
166.734
 11
0.638657
 21
166.643
  0
LINE
  8
0
 10
0.638657
 20
166.643
 11
0.463516
 21
166.573
  0
LINE
  8
0
 10
0.463516
 20
166.573
 11
0.281067
 21
166.527
  0
LINE
  8
0
 10
0.281067
 20
166.527
 11
0.0941772
 21
166.503
  0
LINE
  8
0
 10
0.0941772
 20
166.503
 11
-0.0941772
 21
166.503
  0
LINE
  8
0
 10
1.31166
 20
137.124
 11
2.16312
 21
137.343
  0
LINE
  8
0
 10
2.16312
 20
137.343
 11
2.98045
 21
137.666
  0
LINE
  8
0
 10
2.98045
 20
137.666
 11
3.75078
 21
138.09
  0
LINE
  8
0
 10
3.75078
 20
138.09
 11
4.46196
 21
138.606
  0
LINE
  8
0
 10
4.46196
 20
138.606
 11
5.10277
 21
139.208
  0
LINE
  8
0
 10
5.10277
 20
139.208
 11
5.66312
 21
139.886
  0
LINE
  8
0
 10
5.66312
 20
139.886
 11
6.13414
 21
140.628
  0
LINE
  8
0
 10
6.13414
 20
140.628
 11
6.50842
 21
141.423
  0
LINE
  8
0
 10
6.50842
 20
141.423
 11
6.78008
 21
142.259
  0
LINE
  8
0
 10
6.78008
 20
142.259
 11
6.94479
 21
143.123
  0
LINE
  8
0
 10
6.94479
 20
143.123
 11
7
 21
144
  0
LINE
  8
0
 10
7
 20
144
 11
6.94479
 21
144.877
  0
LINE
  8
0
 10
6.94479
 20
144.877
 11
6.78008
 21
145.741
  0
LINE
  8
0
 10
6.78008
 20
145.741
 11
6.50842
 21
146.577
  0
LINE
  8
0
 10
6.50842
 20
146.577
 11
6.13414
 21
147.372
  0
LINE
  8
0
 10
6.13414
 20
147.372
 11
5.66312
 21
148.114
  0
LINE
  8
0
 10
5.66312
 20
148.114
 11
5.10277
 21
148.792
  0
LINE
  8
0
 10
5.10277
 20
148.792
 11
4.46196
 21
149.394
  0
LINE
  8
0
 10
4.46196
 20
149.394
 11
3.75078
 21
149.91
  0
LINE
  8
0
 10
3.75078
 20
149.91
 11
2.98045
 21
150.334
  0
LINE
  8
0
 10
2.98045
 20
150.334
 11
2.16312
 21
150.657
  0
LINE
  8
0
 10
2.16312
 20
150.657
 11
1.31166
 21
150.876
  0
LINE
  8
0
 10
1.31166
 20
150.876
 11
0.439529
 21
150.986
  0
LINE
  8
0
 10
0.439529
 20
150.986
 11
-0.439529
 21
150.986
  0
LINE
  8
0
 10
-0.439529
 20
150.986
 11
-1.31166
 21
150.876
  0
LINE
  8
0
 10
-1.31166
 20
150.876
 11
-2.16312
 21
150.657
  0
LINE
  8
0
 10
-2.16312
 20
150.657
 11
-2.98045
 21
150.334
  0
LINE
  8
0
 10
-2.98045
 20
150.334
 11
-3.75078
 21
149.91
  0
LINE
  8
0
 10
-3.75078
 20
149.91
 11
-4.46196
 21
149.394
  0
LINE
  8
0
 10
-4.46196
 20
149.394
 11
-5.10277
 21
148.792
  0
LINE
  8
0
 10
-5.10277
 20
148.792
 11
-5.66312
 21
148.114
  0
LINE
  8
0
 10
-5.66312
 20
148.114
 11
-6.13414
 21
147.372
  0
LINE
  8
0
 10
-6.13414
 20
147.372
 11
-6.50842
 21
146.577
  0
LINE
  8
0
 10
-6.50842
 20
146.577
 11
-6.78008
 21
145.741
  0
LINE
  8
0
 10
-6.78008
 20
145.741
 11
-6.94479
 21
144.877
  0
LINE
  8
0
 10
-6.94479
 20
144.877
 11
-7
 21
144
  0
LINE
  8
0
 10
-7
 20
144
 11
-6.94479
 21
143.123
  0
LINE
  8
0
 10
-6.94479
 20
143.123
 11
-6.78008
 21
142.259
  0
LINE
  8
0
 10
-6.78008
 20
142.259
 11
-6.50842
 21
141.423
  0
LINE
  8
0
 10
-6.50842
 20
141.423
 11
-6.13414
 21
140.628
  0
LINE
  8
0
 10
-6.13414
 20
140.628
 11
-5.66312
 21
139.886
  0
LINE
  8
0
 10
-5.66312
 20
139.886
 11
-5.10277
 21
139.208
  0
LINE
  8
0
 10
-5.10277
 20
139.208
 11
-4.46196
 21
138.606
  0
LINE
  8
0
 10
-4.46196
 20
138.606
 11
-3.75078
 21
138.09
  0
LINE
  8
0
 10
-3.75078
 20
138.09
 11
-2.98045
 21
137.666
  0
LINE
  8
0
 10
-2.98045
 20
137.666
 11
-2.16312
 21
137.343
  0
LINE
  8
0
 10
-2.16312
 20
137.343
 11
-1.31166
 21
137.124
  0
LINE
  8
0
 10
-1.31166
 20
137.124
 11
-0.439529
 21
137.014
  0
LINE
  8
0
 10
-0.439529
 20
137.014
 11
0.439529
 21
137.014
  0
LINE
  8
0
 10
0.439529
 20
137.014
 11
1.31166
 21
137.124
  0
LINE
  8
0
 10
-0.0941772
 20
142.503
 11
-0.281067
 21
142.527
  0
LINE
  8
0
 10
-0.281067
 20
142.527
 11
-0.463516
 21
142.573
  0
LINE
  8
0
 10
-0.463516
 20
142.573
 11
-0.638657
 21
142.643
  0
LINE
  8
0
 10
-0.638657
 20
142.643
 11
-0.803726
 21
142.734
  0
LINE
  8
0
 10
-0.803726
 20
142.734
 11
-0.956131
 21
142.844
  0
LINE
  8
0
 10
-0.956131
 20
142.844
 11
-1.09344
 21
142.973
  0
LINE
  8
0
 10
-1.09344
 20
142.973
 11
-1.21352
 21
143.118
  0
LINE
  8
0
 10
-1.21352
 20
143.118
 11
-1.31445
 21
143.277
  0
LINE
  8
0
 10
-1.31445
 20
143.277
 11
-1.39465
 21
143.448
  0
LINE
  8
0
 10
-1.39465
 20
143.448
 11
-1.45287
 21
143.627
  0
LINE
  8
0
 10
-1.45287
 20
143.627
 11
-1.48816
 21
143.812
  0
LINE
  8
0
 10
-1.48816
 20
143.812
 11
-1.5
 21
144
  0
LINE
  8
0
 10
-1.5
 20
144
 11
-1.48816
 21
144.188
  0
LINE
  8
0
 10
-1.48816
 20
144.188
 11
-1.45287
 21
144.373
  0
LINE
  8
0
 10
-1.45287
 20
144.373
 11
-1.39465
 21
144.552
  0
LINE
  8
0
 10
-1.39465
 20
144.552
 11
-1.31445
 21
144.723
  0
LINE
  8
0
 10
-1.31445
 20
144.723
 11
-1.21352
 21
144.882
  0
LINE
  8
0
 10
-1.21352
 20
144.882
 11
-1.09344
 21
145.027
  0
LINE
  8
0
 10
-1.09344
 20
145.027
 11
-0.956131
 21
145.156
  0
LINE
  8
0
 10
-0.956131
 20
145.156
 11
-0.803726
 21
145.266
  0
LINE
  8
0
 10
-0.803726
 20
145.266
 11
-0.638657
 21
145.357
  0
LINE
  8
0
 10
-0.638657
 20
145.357
 11
-0.463516
 21
145.427
  0
LINE
  8
0
 10
-0.463516
 20
145.427
 11
-0.281067
 21
145.473
  0
LINE
  8
0
 10
-0.281067
 20
145.473
 11
-0.0941772
 21
145.497
  0
LINE
  8
0
 10
-0.0941772
 20
145.497
 11
0.0941772
 21
145.497
  0
LINE
  8
0
 10
0.0941772
 20
145.497
 11
0.281067
 21
145.473
  0
LINE
  8
0
 10
0.281067
 20
145.473
 11
0.463516
 21
145.427
  0
LINE
  8
0
 10
0.463516
 20
145.427
 11
0.638657
 21
145.357
  0
LINE
  8
0
 10
0.638657
 20
145.357
 11
0.803726
 21
145.266
  0
LINE
  8
0
 10
0.803726
 20
145.266
 11
0.956131
 21
145.156
  0
LINE
  8
0
 10
0.956131
 20
145.156
 11
1.09344
 21
145.027
  0
LINE
  8
0
 10
1.09344
 20
145.027
 11
1.21352
 21
144.882
  0
LINE
  8
0
 10
1.21352
 20
144.882
 11
1.31445
 21
144.723
  0
LINE
  8
0
 10
1.31445
 20
144.723
 11
1.39465
 21
144.552
  0
LINE
  8
0
 10
1.39465
 20
144.552
 11
1.45287
 21
144.373
  0
LINE
  8
0
 10
1.45287
 20
144.373
 11
1.48816
 21
144.188
  0
LINE
  8
0
 10
1.48816
 20
144.188
 11
1.5
 21
144
  0
LINE
  8
0
 10
1.5
 20
144
 11
1.48816
 21
143.812
  0
LINE
  8
0
 10
1.48816
 20
143.812
 11
1.45287
 21
143.627
  0
LINE
  8
0
 10
1.45287
 20
143.627
 11
1.39465
 21
143.448
  0
LINE
  8
0
 10
1.39465
 20
143.448
 11
1.31445
 21
143.277
  0
LINE
  8
0
 10
1.31445
 20
143.277
 11
1.21352
 21
143.118
  0
LINE
  8
0
 10
1.21352
 20
143.118
 11
1.09344
 21
142.973
  0
LINE
  8
0
 10
1.09344
 20
142.973
 11
0.956131
 21
142.844
  0
LINE
  8
0
 10
0.956131
 20
142.844
 11
0.803726
 21
142.734
  0
LINE
  8
0
 10
0.803726
 20
142.734
 11
0.638657
 21
142.643
  0
LINE
  8
0
 10
0.638657
 20
142.643
 11
0.463516
 21
142.573
  0
LINE
  8
0
 10
0.463516
 20
142.573
 11
0.281067
 21
142.527
  0
LINE
  8
0
 10
0.281067
 20
142.527
 11
0.0941772
 21
142.503
  0
LINE
  8
0
 10
0.0941772
 20
142.503
 11
-0.0941772
 21
142.503
  0
LINE
  8
0
 10
1.31166
 20
113.124
 11
2.16312
 21
113.343
  0
LINE
  8
0
 10
2.16312
 20
113.343
 11
2.98045
 21
113.666
  0
LINE
  8
0
 10
2.98045
 20
113.666
 11
3.75078
 21
114.09
  0
LINE
  8
0
 10
3.75078
 20
114.09
 11
4.46196
 21
114.606
  0
LINE
  8
0
 10
4.46196
 20
114.606
 11
5.10277
 21
115.208
  0
LINE
  8
0
 10
5.10277
 20
115.208
 11
5.66312
 21
115.886
  0
LINE
  8
0
 10
5.66312
 20
115.886
 11
6.13414
 21
116.628
  0
LINE
  8
0
 10
6.13414
 20
116.628
 11
6.50842
 21
117.423
  0
LINE
  8
0
 10
6.50842
 20
117.423
 11
6.78008
 21
118.259
  0
LINE
  8
0
 10
6.78008
 20
118.259
 11
6.94479
 21
119.123
  0
LINE
  8
0
 10
6.94479
 20
119.123
 11
7
 21
120
  0
LINE
  8
0
 10
7
 20
120
 11
6.94479
 21
120.877
  0
LINE
  8
0
 10
6.94479
 20
120.877
 11
6.78008
 21
121.741
  0
LINE
  8
0
 10
6.78008
 20
121.741
 11
6.50842
 21
122.577
  0
LINE
  8
0
 10
6.50842
 20
122.577
 11
6.13414
 21
123.372
  0
LINE
  8
0
 10
6.13414
 20
123.372
 11
5.66312
 21
124.114
  0
LINE
  8
0
 10
5.66312
 20
124.114
 11
5.10277
 21
124.792
  0
LINE
  8
0
 10
5.10277
 20
124.792
 11
4.46196
 21
125.394
  0
LINE
  8
0
 10
4.46196
 20
125.394
 11
3.75078
 21
125.91
  0
LINE
  8
0
 10
3.75078
 20
125.91
 11
2.98045
 21
126.334
  0
LINE
  8
0
 10
2.98045
 20
126.334
 11
2.16312
 21
126.657
  0
LINE
  8
0
 10
2.16312
 20
126.657
 11
1.31166
 21
126.876
  0
LINE
  8
0
 10
1.31166
 20
126.876
 11
0.439529
 21
126.986
  0
LINE
  8
0
 10
0.439529
 20
126.986
 11
-0.439529
 21
126.986
  0
LINE
  8
0
 10
-0.439529
 20
126.986
 11
-1.31166
 21
126.876
  0
LINE
  8
0
 10
-1.31166
 20
126.876
 11
-2.16312
 21
126.657
  0
LINE
  8
0
 10
-2.16312
 20
126.657
 11
-2.98045
 21
126.334
  0
LINE
  8
0
 10
-2.98045
 20
126.334
 11
-3.75078
 21
125.91
  0
LINE
  8
0
 10
-3.75078
 20
125.91
 11
-4.46196
 21
125.394
  0
LINE
  8
0
 10
-4.46196
 20
125.394
 11
-5.10277
 21
124.792
  0
LINE
  8
0
 10
-5.10277
 20
124.792
 11
-5.66312
 21
124.114
  0
LINE
  8
0
 10
-5.66312
 20
124.114
 11
-6.13414
 21
123.372
  0
LINE
  8
0
 10
-6.13414
 20
123.372
 11
-6.50842
 21
122.577
  0
LINE
  8
0
 10
-6.50842
 20
122.577
 11
-6.78008
 21
121.741
  0
LINE
  8
0
 10
-6.78008
 20
121.741
 11
-6.94479
 21
120.877
  0
LINE
  8
0
 10
-6.94479
 20
120.877
 11
-7
 21
120
  0
LINE
  8
0
 10
-7
 20
120
 11
-6.94479
 21
119.123
  0
LINE
  8
0
 10
-6.94479
 20
119.123
 11
-6.78008
 21
118.259
  0
LINE
  8
0
 10
-6.78008
 20
118.259
 11
-6.50842
 21
117.423
  0
LINE
  8
0
 10
-6.50842
 20
117.423
 11
-6.13414
 21
116.628
  0
LINE
  8
0
 10
-6.13414
 20
116.628
 11
-5.66312
 21
115.886
  0
LINE
  8
0
 10
-5.66312
 20
115.886
 11
-5.10277
 21
115.208
  0
LINE
  8
0
 10
-5.10277
 20
115.208
 11
-4.46196
 21
114.606
  0
LINE
  8
0
 10
-4.46196
 20
114.606
 11
-3.75078
 21
114.09
  0
LINE
  8
0
 10
-3.75078
 20
114.09
 11
-2.98045
 21
113.666
  0
LINE
  8
0
 10
-2.98045
 20
113.666
 11
-2.16312
 21
113.343
  0
LINE
  8
0
 10
-2.16312
 20
113.343
 11
-1.31166
 21
113.124
  0
LINE
  8
0
 10
-1.31166
 20
113.124
 11
-0.439529
 21
113.014
  0
LINE
  8
0
 10
-0.439529
 20
113.014
 11
0.439529
 21
113.014
  0
LINE
  8
0
 10
0.439529
 20
113.014
 11
1.31166
 21
113.124
  0
LINE
  8
0
 10
-0.0941772
 20
118.503
 11
-0.281067
 21
118.527
  0
LINE
  8
0
 10
-0.281067
 20
118.527
 11
-0.463516
 21
118.573
  0
LINE
  8
0
 10
-0.463516
 20
118.573
 11
-0.638657
 21
118.643
  0
LINE
  8
0
 10
-0.638657
 20
118.643
 11
-0.803726
 21
118.734
  0
LINE
  8
0
 10
-0.803726
 20
118.734
 11
-0.956131
 21
118.844
  0
LINE
  8
0
 10
-0.956131
 20
118.844
 11
-1.09344
 21
118.973
  0
LINE
  8
0
 10
-1.09344
 20
118.973
 11
-1.21352
 21
119.118
  0
LINE
  8
0
 10
-1.21352
 20
119.118
 11
-1.31445
 21
119.277
  0
LINE
  8
0
 10
-1.31445
 20
119.277
 11
-1.39465
 21
119.448
  0
LINE
  8
0
 10
-1.39465
 20
119.448
 11
-1.45287
 21
119.627
  0
LINE
  8
0
 10
-1.45287
 20
119.627
 11
-1.48816
 21
119.812
  0
LINE
  8
0
 10
-1.48816
 20
119.812
 11
-1.5
 21
120
  0
LINE
  8
0
 10
-1.5
 20
120
 11
-1.48816
 21
120.188
  0
LINE
  8
0
 10
-1.48816
 20
120.188
 11
-1.45287
 21
120.373
  0
LINE
  8
0
 10
-1.45287
 20
120.373
 11
-1.39465
 21
120.552
  0
LINE
  8
0
 10
-1.39465
 20
120.552
 11
-1.31445
 21
120.723
  0
LINE
  8
0
 10
-1.31445
 20
120.723
 11
-1.21352
 21
120.882
  0
LINE
  8
0
 10
-1.21352
 20
120.882
 11
-1.09344
 21
121.027
  0
LINE
  8
0
 10
-1.09344
 20
121.027
 11
-0.956131
 21
121.156
  0
LINE
  8
0
 10
-0.956131
 20
121.156
 11
-0.803726
 21
121.266
  0
LINE
  8
0
 10
-0.803726
 20
121.266
 11
-0.638657
 21
121.357
  0
LINE
  8
0
 10
-0.638657
 20
121.357
 11
-0.463516
 21
121.427
  0
LINE
  8
0
 10
-0.463516
 20
121.427
 11
-0.281067
 21
121.473
  0
LINE
  8
0
 10
-0.281067
 20
121.473
 11
-0.0941772
 21
121.497
  0
LINE
  8
0
 10
-0.0941772
 20
121.497
 11
0.0941772
 21
121.497
  0
LINE
  8
0
 10
0.0941772
 20
121.497
 11
0.281067
 21
121.473
  0
LINE
  8
0
 10
0.281067
 20
121.473
 11
0.463516
 21
121.427
  0
LINE
  8
0
 10
0.463516
 20
121.427
 11
0.638657
 21
121.357
  0
LINE
  8
0
 10
0.638657
 20
121.357
 11
0.803726
 21
121.266
  0
LINE
  8
0
 10
0.803726
 20
121.266
 11
0.956131
 21
121.156
  0
LINE
  8
0
 10
0.956131
 20
121.156
 11
1.09344
 21
121.027
  0
LINE
  8
0
 10
1.09344
 20
121.027
 11
1.21352
 21
120.882
  0
LINE
  8
0
 10
1.21352
 20
120.882
 11
1.31445
 21
120.723
  0
LINE
  8
0
 10
1.31445
 20
120.723
 11
1.39465
 21
120.552
  0
LINE
  8
0
 10
1.39465
 20
120.552
 11
1.45287
 21
120.373
  0
LINE
  8
0
 10
1.45287
 20
120.373
 11
1.48816
 21
120.188
  0
LINE
  8
0
 10
1.48816
 20
120.188
 11
1.5
 21
120
  0
LINE
  8
0
 10
1.5
 20
120
 11
1.48816
 21
119.812
  0
LINE
  8
0
 10
1.48816
 20
119.812
 11
1.45287
 21
119.627
  0
LINE
  8
0
 10
1.45287
 20
119.627
 11
1.39465
 21
119.448
  0
LINE
  8
0
 10
1.39465
 20
119.448
 11
1.31445
 21
119.277
  0
LINE
  8
0
 10
1.31445
 20
119.277
 11
1.21352
 21
119.118
  0
LINE
  8
0
 10
1.21352
 20
119.118
 11
1.09344
 21
118.973
  0
LINE
  8
0
 10
1.09344
 20
118.973
 11
0.956131
 21
118.844
  0
LINE
  8
0
 10
0.956131
 20
118.844
 11
0.803726
 21
118.734
  0
LINE
  8
0
 10
0.803726
 20
118.734
 11
0.638657
 21
118.643
  0
LINE
  8
0
 10
0.638657
 20
118.643
 11
0.463516
 21
118.573
  0
LINE
  8
0
 10
0.463516
 20
118.573
 11
0.281067
 21
118.527
  0
LINE
  8
0
 10
0.281067
 20
118.527
 11
0.0941772
 21
118.503
  0
LINE
  8
0
 10
0.0941772
 20
118.503
 11
-0.0941772
 21
118.503
  0
ENDSEC
  0
SECTION
  2
OBJECTS
  0
DICTIONARY
  0
ENDSEC
  0
EOF
