  0
SECTION
  2
BLOCKS
  0
ENDSEC
  0
SECTION
  2
ENTITIES
  0
LINE
  8
0
 10
235.437
 20
41.0886
 11
236.045
 21
41.2447
  0
LINE
  8
0
 10
236.045
 20
41.2447
 11
236.629
 21
41.4759
  0
LINE
  8
0
 10
236.629
 20
41.4759
 11
237.179
 21
41.7784
  0
LINE
  8
0
 10
237.179
 20
41.7784
 11
237.687
 21
42.1474
  0
LINE
  8
0
 10
237.687
 20
42.1474
 11
238.145
 21
42.5773
  0
LINE
  8
0
 10
238.145
 20
42.5773
 11
238.545
 21
43.0611
  0
LINE
  8
0
 10
238.545
 20
43.0611
 11
238.882
 21
43.5912
  0
LINE
  8
0
 10
238.882
 20
43.5912
 11
239.149
 21
44.1594
  0
LINE
  8
0
 10
239.149
 20
44.1594
 11
239.343
 21
44.7566
  0
LINE
  8
0
 10
239.343
 20
44.7566
 11
239.461
 21
45.3733
  0
LINE
  8
0
 10
239.461
 20
45.3733
 11
239.5
 21
46
  0
LINE
  8
0
 10
239.5
 20
46
 11
239.5
 21
50
  0
LINE
  8
0
 10
239.5
 20
50
 11
239.461
 21
50.6267
  0
LINE
  8
0
 10
239.461
 20
50.6267
 11
239.343
 21
51.2434
  0
LINE
  8
0
 10
239.343
 20
51.2434
 11
239.149
 21
51.8406
  0
LINE
  8
0
 10
239.149
 20
51.8406
 11
238.882
 21
52.4088
  0
LINE
  8
0
 10
238.882
 20
52.4088
 11
238.545
 21
52.9389
  0
LINE
  8
0
 10
238.545
 20
52.9389
 11
238.145
 21
53.4227
  0
LINE
  8
0
 10
238.145
 20
53.4227
 11
237.687
 21
53.8526
  0
LINE
  8
0
 10
237.687
 20
53.8526
 11
237.179
 21
54.2216
  0
LINE
  8
0
 10
237.179
 20
54.2216
 11
236.629
 21
54.5241
  0
LINE
  8
0
 10
236.629
 20
54.5241
 11
236.045
 21
54.7553
  0
LINE
  8
0
 10
236.045
 20
54.7553
 11
235.437
 21
54.9114
  0
LINE
  8
0
 10
235.437
 20
54.9114
 11
234.814
 21
54.9901
  0
LINE
  8
0
 10
234.814
 20
54.9901
 11
-234.814
 21
54.9901
  0
LINE
  8
0
 10
-234.814
 20
54.9901
 11
-235.437
 21
54.9114
  0
LINE
  8
0
 10
-235.437
 20
54.9114
 11
-236.045
 21
54.7553
  0
LINE
  8
0
 10
-236.045
 20
54.7553
 11
-236.629
 21
54.5241
  0
LINE
  8
0
 10
-236.629
 20
54.5241
 11
-237.179
 21
54.2216
  0
LINE
  8
0
 10
-237.179
 20
54.2216
 11
-237.687
 21
53.8526
  0
LINE
  8
0
 10
-237.687
 20
53.8526
 11
-238.145
 21
53.4227
  0
LINE
  8
0
 10
-238.145
 20
53.4227
 11
-238.545
 21
52.9389
  0
LINE
  8
0
 10
-238.545
 20
52.9389
 11
-238.882
 21
52.4088
  0
LINE
  8
0
 10
-238.882
 20
52.4088
 11
-239.149
 21
51.8406
  0
LINE
  8
0
 10
-239.149
 20
51.8406
 11
-239.343
 21
51.2434
  0
LINE
  8
0
 10
-239.343
 20
51.2434
 11
-239.461
 21
50.6267
  0
LINE
  8
0
 10
-239.461
 20
50.6267
 11
-239.5
 21
50
  0
LINE
  8
0
 10
-239.5
 20
50
 11
-239.5
 21
46
  0
LINE
  8
0
 10
-239.5
 20
46
 11
-239.461
 21
45.3733
  0
LINE
  8
0
 10
-239.461
 20
45.3733
 11
-239.343
 21
44.7566
  0
LINE
  8
0
 10
-239.343
 20
44.7566
 11
-239.149
 21
44.1594
  0
LINE
  8
0
 10
-239.149
 20
44.1594
 11
-238.882
 21
43.5912
  0
LINE
  8
0
 10
-238.882
 20
43.5912
 11
-238.545
 21
43.0611
  0
LINE
  8
0
 10
-238.545
 20
43.0611
 11
-238.145
 21
42.5773
  0
LINE
  8
0
 10
-238.145
 20
42.5773
 11
-237.687
 21
42.1474
  0
LINE
  8
0
 10
-237.687
 20
42.1474
 11
-237.179
 21
41.7784
  0
LINE
  8
0
 10
-237.179
 20
41.7784
 11
-236.629
 21
41.4759
  0
LINE
  8
0
 10
-236.629
 20
41.4759
 11
-236.045
 21
41.2447
  0
LINE
  8
0
 10
-236.045
 20
41.2447
 11
-235.437
 21
41.0886
  0
LINE
  8
0
 10
-235.437
 20
41.0886
 11
-234.814
 21
41.0099
  0
LINE
  8
0
 10
-234.814
 20
41.0099
 11
234.814
 21
41.0099
  0
LINE
  8
0
 10
234.814
 20
41.0099
 11
235.437
 21
41.0886
  0
LINE
  8
0
 10
-232.688
 20
45.0059
 11
-233.062
 21
45.0531
  0
LINE
  8
0
 10
-233.062
 20
45.0531
 11
-233.427
 21
45.1468
  0
LINE
  8
0
 10
-233.427
 20
45.1468
 11
-233.777
 21
45.2855
  0
LINE
  8
0
 10
-233.777
 20
45.2855
 11
-234.107
 21
45.467
  0
LINE
  8
0
 10
-234.107
 20
45.467
 11
-234.412
 21
45.6885
  0
LINE
  8
0
 10
-234.412
 20
45.6885
 11
-234.687
 21
45.9464
  0
LINE
  8
0
 10
-234.687
 20
45.9464
 11
-234.927
 21
46.2366
  0
LINE
  8
0
 10
-234.927
 20
46.2366
 11
-235.129
 21
46.5547
  0
LINE
  8
0
 10
-235.129
 20
46.5547
 11
-235.289
 21
46.8956
  0
LINE
  8
0
 10
-235.289
 20
46.8956
 11
-235.406
 21
47.2539
  0
LINE
  8
0
 10
-235.406
 20
47.2539
 11
-235.476
 21
47.624
  0
LINE
  8
0
 10
-235.476
 20
47.624
 11
-235.5
 21
48
  0
LINE
  8
0
 10
-235.5
 20
48
 11
-235.476
 21
48.376
  0
LINE
  8
0
 10
-235.476
 20
48.376
 11
-235.406
 21
48.7461
  0
LINE
  8
0
 10
-235.406
 20
48.7461
 11
-235.289
 21
49.1044
  0
LINE
  8
0
 10
-235.289
 20
49.1044
 11
-235.129
 21
49.4453
  0
LINE
  8
0
 10
-235.129
 20
49.4453
 11
-234.927
 21
49.7634
  0
LINE
  8
0
 10
-234.927
 20
49.7634
 11
-234.687
 21
50.0536
  0
LINE
  8
0
 10
-234.687
 20
50.0536
 11
-234.412
 21
50.3115
  0
LINE
  8
0
 10
-234.412
 20
50.3115
 11
-234.107
 21
50.533
  0
LINE
  8
0
 10
-234.107
 20
50.533
 11
-233.777
 21
50.7145
  0
LINE
  8
0
 10
-233.777
 20
50.7145
 11
-233.427
 21
50.8532
  0
LINE
  8
0
 10
-233.427
 20
50.8532
 11
-233.062
 21
50.9469
  0
LINE
  8
0
 10
-233.062
 20
50.9469
 11
-232.688
 21
50.9941
  0
LINE
  8
0
 10
-232.688
 20
50.9941
 11
-232.312
 21
50.9941
  0
LINE
  8
0
 10
-232.312
 20
50.9941
 11
-231.938
 21
50.9469
  0
LINE
  8
0
 10
-231.938
 20
50.9469
 11
-231.573
 21
50.8532
  0
LINE
  8
0
 10
-231.573
 20
50.8532
 11
-231.223
 21
50.7145
  0
LINE
  8
0
 10
-231.223
 20
50.7145
 11
-230.893
 21
50.533
  0
LINE
  8
0
 10
-230.893
 20
50.533
 11
-230.588
 21
50.3115
  0
LINE
  8
0
 10
-230.588
 20
50.3115
 11
-230.313
 21
50.0536
  0
LINE
  8
0
 10
-230.313
 20
50.0536
 11
-230.073
 21
49.7634
  0
LINE
  8
0
 10
-230.073
 20
49.7634
 11
-229.871
 21
49.4453
  0
LINE
  8
0
 10
-229.871
 20
49.4453
 11
-229.711
 21
49.1044
  0
LINE
  8
0
 10
-229.711
 20
49.1044
 11
-229.594
 21
48.7461
  0
LINE
  8
0
 10
-229.594
 20
48.7461
 11
-229.524
 21
48.376
  0
LINE
  8
0
 10
-229.524
 20
48.376
 11
-229.5
 21
48
  0
LINE
  8
0
 10
-229.5
 20
48
 11
-229.524
 21
47.624
  0
LINE
  8
0
 10
-229.524
 20
47.624
 11
-229.594
 21
47.2539
  0
LINE
  8
0
 10
-229.594
 20
47.2539
 11
-229.711
 21
46.8956
  0
LINE
  8
0
 10
-229.711
 20
46.8956
 11
-229.871
 21
46.5547
  0
LINE
  8
0
 10
-229.871
 20
46.5547
 11
-230.073
 21
46.2366
  0
LINE
  8
0
 10
-230.073
 20
46.2366
 11
-230.313
 21
45.9464
  0
LINE
  8
0
 10
-230.313
 20
45.9464
 11
-230.588
 21
45.6885
  0
LINE
  8
0
 10
-230.588
 20
45.6885
 11
-230.893
 21
45.467
  0
LINE
  8
0
 10
-230.893
 20
45.467
 11
-231.223
 21
45.2855
  0
LINE
  8
0
 10
-231.223
 20
45.2855
 11
-231.573
 21
45.1468
  0
LINE
  8
0
 10
-231.573
 20
45.1468
 11
-231.938
 21
45.0531
  0
LINE
  8
0
 10
-231.938
 20
45.0531
 11
-232.312
 21
45.0059
  0
LINE
  8
0
 10
-232.312
 20
45.0059
 11
-232.688
 21
45.0059
  0
LINE
  8
0
 10
235.437
 20
17.0886
 11
236.045
 21
17.2447
  0
LINE
  8
0
 10
236.045
 20
17.2447
 11
236.629
 21
17.4759
  0
LINE
  8
0
 10
236.629
 20
17.4759
 11
237.179
 21
17.7784
  0
LINE
  8
0
 10
237.179
 20
17.7784
 11
237.687
 21
18.1474
  0
LINE
  8
0
 10
237.687
 20
18.1474
 11
238.145
 21
18.5773
  0
LINE
  8
0
 10
238.145
 20
18.5773
 11
238.545
 21
19.0611
  0
LINE
  8
0
 10
238.545
 20
19.0611
 11
238.882
 21
19.5912
  0
LINE
  8
0
 10
238.882
 20
19.5912
 11
239.149
 21
20.1594
  0
LINE
  8
0
 10
239.149
 20
20.1594
 11
239.343
 21
20.7566
  0
LINE
  8
0
 10
239.343
 20
20.7566
 11
239.461
 21
21.3733
  0
LINE
  8
0
 10
239.461
 20
21.3733
 11
239.5
 21
22
  0
LINE
  8
0
 10
239.5
 20
22
 11
239.5
 21
26
  0
LINE
  8
0
 10
239.5
 20
26
 11
239.461
 21
26.6267
  0
LINE
  8
0
 10
239.461
 20
26.6267
 11
239.343
 21
27.2434
  0
LINE
  8
0
 10
239.343
 20
27.2434
 11
239.149
 21
27.8406
  0
LINE
  8
0
 10
239.149
 20
27.8406
 11
238.882
 21
28.4088
  0
LINE
  8
0
 10
238.882
 20
28.4088
 11
238.545
 21
28.9389
  0
LINE
  8
0
 10
238.545
 20
28.9389
 11
238.145
 21
29.4227
  0
LINE
  8
0
 10
238.145
 20
29.4227
 11
237.687
 21
29.8526
  0
LINE
  8
0
 10
237.687
 20
29.8526
 11
237.179
 21
30.2216
  0
LINE
  8
0
 10
237.179
 20
30.2216
 11
236.629
 21
30.5241
  0
LINE
  8
0
 10
236.629
 20
30.5241
 11
236.045
 21
30.7553
  0
LINE
  8
0
 10
236.045
 20
30.7553
 11
235.437
 21
30.9114
  0
LINE
  8
0
 10
235.437
 20
30.9114
 11
234.814
 21
30.9901
  0
LINE
  8
0
 10
234.814
 20
30.9901
 11
-234.814
 21
30.9901
  0
LINE
  8
0
 10
-234.814
 20
30.9901
 11
-235.437
 21
30.9114
  0
LINE
  8
0
 10
-235.437
 20
30.9114
 11
-236.045
 21
30.7553
  0
LINE
  8
0
 10
-236.045
 20
30.7553
 11
-236.629
 21
30.5241
  0
LINE
  8
0
 10
-236.629
 20
30.5241
 11
-237.179
 21
30.2216
  0
LINE
  8
0
 10
-237.179
 20
30.2216
 11
-237.687
 21
29.8526
  0
LINE
  8
0
 10
-237.687
 20
29.8526
 11
-238.145
 21
29.4227
  0
LINE
  8
0
 10
-238.145
 20
29.4227
 11
-238.545
 21
28.9389
  0
LINE
  8
0
 10
-238.545
 20
28.9389
 11
-238.882
 21
28.4088
  0
LINE
  8
0
 10
-238.882
 20
28.4088
 11
-239.149
 21
27.8406
  0
LINE
  8
0
 10
-239.149
 20
27.8406
 11
-239.343
 21
27.2434
  0
LINE
  8
0
 10
-239.343
 20
27.2434
 11
-239.461
 21
26.6267
  0
LINE
  8
0
 10
-239.461
 20
26.6267
 11
-239.5
 21
26
  0
LINE
  8
0
 10
-239.5
 20
26
 11
-239.5
 21
22
  0
LINE
  8
0
 10
-239.5
 20
22
 11
-239.461
 21
21.3733
  0
LINE
  8
0
 10
-239.461
 20
21.3733
 11
-239.343
 21
20.7566
  0
LINE
  8
0
 10
-239.343
 20
20.7566
 11
-239.149
 21
20.1594
  0
LINE
  8
0
 10
-239.149
 20
20.1594
 11
-238.882
 21
19.5912
  0
LINE
  8
0
 10
-238.882
 20
19.5912
 11
-238.545
 21
19.0611
  0
LINE
  8
0
 10
-238.545
 20
19.0611
 11
-238.145
 21
18.5773
  0
LINE
  8
0
 10
-238.145
 20
18.5773
 11
-237.687
 21
18.1474
  0
LINE
  8
0
 10
-237.687
 20
18.1474
 11
-237.179
 21
17.7784
  0
LINE
  8
0
 10
-237.179
 20
17.7784
 11
-236.629
 21
17.4759
  0
LINE
  8
0
 10
-236.629
 20
17.4759
 11
-236.045
 21
17.2447
  0
LINE
  8
0
 10
-236.045
 20
17.2447
 11
-235.437
 21
17.0886
  0
LINE
  8
0
 10
-235.437
 20
17.0886
 11
-234.814
 21
17.0099
  0
LINE
  8
0
 10
-234.814
 20
17.0099
 11
234.814
 21
17.0099
  0
LINE
  8
0
 10
234.814
 20
17.0099
 11
235.437
 21
17.0886
  0
LINE
  8
0
 10
-232.688
 20
21.0059
 11
-233.062
 21
21.0531
  0
LINE
  8
0
 10
-233.062
 20
21.0531
 11
-233.427
 21
21.1468
  0
LINE
  8
0
 10
-233.427
 20
21.1468
 11
-233.777
 21
21.2855
  0
LINE
  8
0
 10
-233.777
 20
21.2855
 11
-234.107
 21
21.467
  0
LINE
  8
0
 10
-234.107
 20
21.467
 11
-234.412
 21
21.6885
  0
LINE
  8
0
 10
-234.412
 20
21.6885
 11
-234.687
 21
21.9464
  0
LINE
  8
0
 10
-234.687
 20
21.9464
 11
-234.927
 21
22.2366
  0
LINE
  8
0
 10
-234.927
 20
22.2366
 11
-235.129
 21
22.5547
  0
LINE
  8
0
 10
-235.129
 20
22.5547
 11
-235.289
 21
22.8956
  0
LINE
  8
0
 10
-235.289
 20
22.8956
 11
-235.406
 21
23.2539
  0
LINE
  8
0
 10
-235.406
 20
23.2539
 11
-235.476
 21
23.624
  0
LINE
  8
0
 10
-235.476
 20
23.624
 11
-235.5
 21
24
  0
LINE
  8
0
 10
-235.5
 20
24
 11
-235.476
 21
24.376
  0
LINE
  8
0
 10
-235.476
 20
24.376
 11
-235.406
 21
24.7461
  0
LINE
  8
0
 10
-235.406
 20
24.7461
 11
-235.289
 21
25.1044
  0
LINE
  8
0
 10
-235.289
 20
25.1044
 11
-235.129
 21
25.4453
  0
LINE
  8
0
 10
-235.129
 20
25.4453
 11
-234.927
 21
25.7634
  0
LINE
  8
0
 10
-234.927
 20
25.7634
 11
-234.687
 21
26.0536
  0
LINE
  8
0
 10
-234.687
 20
26.0536
 11
-234.412
 21
26.3115
  0
LINE
  8
0
 10
-234.412
 20
26.3115
 11
-234.107
 21
26.533
  0
LINE
  8
0
 10
-234.107
 20
26.533
 11
-233.777
 21
26.7145
  0
LINE
  8
0
 10
-233.777
 20
26.7145
 11
-233.427
 21
26.8532
  0
LINE
  8
0
 10
-233.427
 20
26.8532
 11
-233.062
 21
26.9469
  0
LINE
  8
0
 10
-233.062
 20
26.9469
 11
-232.688
 21
26.9941
  0
LINE
  8
0
 10
-232.688
 20
26.9941
 11
-232.312
 21
26.9941
  0
LINE
  8
0
 10
-232.312
 20
26.9941
 11
-231.938
 21
26.9469
  0
LINE
  8
0
 10
-231.938
 20
26.9469
 11
-231.573
 21
26.8532
  0
LINE
  8
0
 10
-231.573
 20
26.8532
 11
-231.223
 21
26.7145
  0
LINE
  8
0
 10
-231.223
 20
26.7145
 11
-230.893
 21
26.533
  0
LINE
  8
0
 10
-230.893
 20
26.533
 11
-230.588
 21
26.3115
  0
LINE
  8
0
 10
-230.588
 20
26.3115
 11
-230.313
 21
26.0536
  0
LINE
  8
0
 10
-230.313
 20
26.0536
 11
-230.073
 21
25.7634
  0
LINE
  8
0
 10
-230.073
 20
25.7634
 11
-229.871
 21
25.4453
  0
LINE
  8
0
 10
-229.871
 20
25.4453
 11
-229.711
 21
25.1044
  0
LINE
  8
0
 10
-229.711
 20
25.1044
 11
-229.594
 21
24.7461
  0
LINE
  8
0
 10
-229.594
 20
24.7461
 11
-229.524
 21
24.376
  0
LINE
  8
0
 10
-229.524
 20
24.376
 11
-229.5
 21
24
  0
LINE
  8
0
 10
-229.5
 20
24
 11
-229.524
 21
23.624
  0
LINE
  8
0
 10
-229.524
 20
23.624
 11
-229.594
 21
23.2539
  0
LINE
  8
0
 10
-229.594
 20
23.2539
 11
-229.711
 21
22.8956
  0
LINE
  8
0
 10
-229.711
 20
22.8956
 11
-229.871
 21
22.5547
  0
LINE
  8
0
 10
-229.871
 20
22.5547
 11
-230.073
 21
22.2366
  0
LINE
  8
0
 10
-230.073
 20
22.2366
 11
-230.313
 21
21.9464
  0
LINE
  8
0
 10
-230.313
 20
21.9464
 11
-230.588
 21
21.6885
  0
LINE
  8
0
 10
-230.588
 20
21.6885
 11
-230.893
 21
21.467
  0
LINE
  8
0
 10
-230.893
 20
21.467
 11
-231.223
 21
21.2855
  0
LINE
  8
0
 10
-231.223
 20
21.2855
 11
-231.573
 21
21.1468
  0
LINE
  8
0
 10
-231.573
 20
21.1468
 11
-231.938
 21
21.0531
  0
LINE
  8
0
 10
-231.938
 20
21.0531
 11
-232.312
 21
21.0059
  0
LINE
  8
0
 10
-232.312
 20
21.0059
 11
-232.688
 21
21.0059
  0
ENDSEC
  0
SECTION
  2
OBJECTS
  0
DICTIONARY
  0
ENDSEC
  0
EOF
