  0
SECTION
  2
BLOCKS
  0
ENDSEC
  0
SECTION
  2
ENTITIES
  0
LINE
  8
0
 10
175.437
 20
-6.91142
 11
176.045
 21
-6.75528
  0
LINE
  8
0
 10
176.045
 20
-6.75528
 11
176.629
 21
-6.52412
  0
LINE
  8
0
 10
176.629
 20
-6.52412
 11
177.179
 21
-6.22163
  0
LINE
  8
0
 10
177.179
 20
-6.22163
 11
177.687
 21
-5.85255
  0
LINE
  8
0
 10
177.687
 20
-5.85255
 11
178.145
 21
-5.42273
  0
LINE
  8
0
 10
178.145
 20
-5.42273
 11
178.545
 21
-4.93892
  0
LINE
  8
0
 10
178.545
 20
-4.93892
 11
178.882
 21
-4.40877
  0
LINE
  8
0
 10
178.882
 20
-4.40877
 11
179.149
 21
-3.84062
  0
LINE
  8
0
 10
179.149
 20
-3.84062
 11
179.343
 21
-3.24344
  0
LINE
  8
0
 10
179.343
 20
-3.24344
 11
179.461
 21
-2.62666
  0
LINE
  8
0
 10
179.461
 20
-2.62666
 11
179.5
 21
-2
  0
LINE
  8
0
 10
179.5
 20
-2
 11
179.5
 21
2
  0
LINE
  8
0
 10
179.5
 20
2
 11
179.461
 21
2.62666
  0
LINE
  8
0
 10
179.461
 20
2.62666
 11
179.343
 21
3.24344
  0
LINE
  8
0
 10
179.343
 20
3.24344
 11
179.149
 21
3.84062
  0
LINE
  8
0
 10
179.149
 20
3.84062
 11
178.882
 21
4.40877
  0
LINE
  8
0
 10
178.882
 20
4.40877
 11
178.545
 21
4.93892
  0
LINE
  8
0
 10
178.545
 20
4.93892
 11
178.145
 21
5.42273
  0
LINE
  8
0
 10
178.145
 20
5.42273
 11
177.687
 21
5.85255
  0
LINE
  8
0
 10
177.687
 20
5.85255
 11
177.179
 21
6.22163
  0
LINE
  8
0
 10
177.179
 20
6.22163
 11
176.629
 21
6.52412
  0
LINE
  8
0
 10
176.629
 20
6.52412
 11
176.045
 21
6.75528
  0
LINE
  8
0
 10
176.045
 20
6.75528
 11
175.437
 21
6.91142
  0
LINE
  8
0
 10
175.437
 20
6.91142
 11
174.814
 21
6.99013
  0
LINE
  8
0
 10
174.814
 20
6.99013
 11
-174.814
 21
6.99013
  0
LINE
  8
0
 10
-174.814
 20
6.99013
 11
-175.437
 21
6.91142
  0
LINE
  8
0
 10
-175.437
 20
6.91142
 11
-176.045
 21
6.75528
  0
LINE
  8
0
 10
-176.045
 20
6.75528
 11
-176.629
 21
6.52412
  0
LINE
  8
0
 10
-176.629
 20
6.52412
 11
-177.179
 21
6.22163
  0
LINE
  8
0
 10
-177.179
 20
6.22163
 11
-177.687
 21
5.85255
  0
LINE
  8
0
 10
-177.687
 20
5.85255
 11
-178.145
 21
5.42273
  0
LINE
  8
0
 10
-178.145
 20
5.42273
 11
-178.545
 21
4.93892
  0
LINE
  8
0
 10
-178.545
 20
4.93892
 11
-178.882
 21
4.40877
  0
LINE
  8
0
 10
-178.882
 20
4.40877
 11
-179.149
 21
3.84062
  0
LINE
  8
0
 10
-179.149
 20
3.84062
 11
-179.343
 21
3.24344
  0
LINE
  8
0
 10
-179.343
 20
3.24344
 11
-179.461
 21
2.62666
  0
LINE
  8
0
 10
-179.461
 20
2.62666
 11
-179.5
 21
2
  0
LINE
  8
0
 10
-179.5
 20
2
 11
-179.5
 21
-2
  0
LINE
  8
0
 10
-179.5
 20
-2
 11
-179.461
 21
-2.62666
  0
LINE
  8
0
 10
-179.461
 20
-2.62666
 11
-179.343
 21
-3.24344
  0
LINE
  8
0
 10
-179.343
 20
-3.24344
 11
-179.149
 21
-3.84062
  0
LINE
  8
0
 10
-179.149
 20
-3.84062
 11
-178.882
 21
-4.40877
  0
LINE
  8
0
 10
-178.882
 20
-4.40877
 11
-178.545
 21
-4.93892
  0
LINE
  8
0
 10
-178.545
 20
-4.93892
 11
-178.145
 21
-5.42273
  0
LINE
  8
0
 10
-178.145
 20
-5.42273
 11
-177.687
 21
-5.85255
  0
LINE
  8
0
 10
-177.687
 20
-5.85255
 11
-177.179
 21
-6.22163
  0
LINE
  8
0
 10
-177.179
 20
-6.22163
 11
-176.629
 21
-6.52412
  0
LINE
  8
0
 10
-176.629
 20
-6.52412
 11
-176.045
 21
-6.75528
  0
LINE
  8
0
 10
-176.045
 20
-6.75528
 11
-175.437
 21
-6.91142
  0
LINE
  8
0
 10
-175.437
 20
-6.91142
 11
-174.814
 21
-6.99013
  0
LINE
  8
0
 10
-174.814
 20
-6.99013
 11
174.814
 21
-6.99013
  0
LINE
  8
0
 10
174.814
 20
-6.99013
 11
175.437
 21
-6.91142
  0
LINE
  8
0
 10
172.312
 20
-2.99408
 11
171.938
 21
-2.94685
  0
LINE
  8
0
 10
171.938
 20
-2.94685
 11
171.573
 21
-2.85316
  0
LINE
  8
0
 10
171.573
 20
-2.85316
 11
171.223
 21
-2.71448
  0
LINE
  8
0
 10
171.223
 20
-2.71448
 11
170.893
 21
-2.53297
  0
LINE
  8
0
 10
170.893
 20
-2.53297
 11
170.588
 21
-2.31154
  0
LINE
  8
0
 10
170.588
 20
-2.31154
 11
170.313
 21
-2.05363
  0
LINE
  8
0
 10
170.313
 20
-2.05363
 11
170.073
 21
-1.76335
  0
LINE
  8
0
 10
170.073
 20
-1.76335
 11
169.871
 21
-1.44525
  0
LINE
  8
0
 10
169.871
 20
-1.44525
 11
169.711
 21
-1.10437
  0
LINE
  8
0
 10
169.711
 20
-1.10437
 11
169.594
 21
-0.746063
  0
LINE
  8
0
 10
169.594
 20
-0.746063
 11
169.524
 21
-0.375992
  0
LINE
  8
0
 10
169.524
 20
-0.375992
 11
169.5
 21
0
  0
LINE
  8
0
 10
169.5
 20
0
 11
169.524
 21
0.375992
  0
LINE
  8
0
 10
169.524
 20
0.375992
 11
169.594
 21
0.746063
  0
LINE
  8
0
 10
169.594
 20
0.746063
 11
169.711
 21
1.10437
  0
LINE
  8
0
 10
169.711
 20
1.10437
 11
169.871
 21
1.44525
  0
LINE
  8
0
 10
169.871
 20
1.44525
 11
170.073
 21
1.76335
  0
LINE
  8
0
 10
170.073
 20
1.76335
 11
170.313
 21
2.05363
  0
LINE
  8
0
 10
170.313
 20
2.05363
 11
170.588
 21
2.31154
  0
LINE
  8
0
 10
170.588
 20
2.31154
 11
170.893
 21
2.53297
  0
LINE
  8
0
 10
170.893
 20
2.53297
 11
171.223
 21
2.71448
  0
LINE
  8
0
 10
171.223
 20
2.71448
 11
171.573
 21
2.85316
  0
LINE
  8
0
 10
171.573
 20
2.85316
 11
171.938
 21
2.94685
  0
LINE
  8
0
 10
171.938
 20
2.94685
 11
172.312
 21
2.99408
  0
LINE
  8
0
 10
172.312
 20
2.99408
 11
172.688
 21
2.99408
  0
LINE
  8
0
 10
172.688
 20
2.99408
 11
173.062
 21
2.94685
  0
LINE
  8
0
 10
173.062
 20
2.94685
 11
173.427
 21
2.85316
  0
LINE
  8
0
 10
173.427
 20
2.85316
 11
173.777
 21
2.71448
  0
LINE
  8
0
 10
173.777
 20
2.71448
 11
174.107
 21
2.53297
  0
LINE
  8
0
 10
174.107
 20
2.53297
 11
174.412
 21
2.31154
  0
LINE
  8
0
 10
174.412
 20
2.31154
 11
174.687
 21
2.05363
  0
LINE
  8
0
 10
174.687
 20
2.05363
 11
174.927
 21
1.76335
  0
LINE
  8
0
 10
174.927
 20
1.76335
 11
175.129
 21
1.44525
  0
LINE
  8
0
 10
175.129
 20
1.44525
 11
175.289
 21
1.10437
  0
LINE
  8
0
 10
175.289
 20
1.10437
 11
175.406
 21
0.746063
  0
LINE
  8
0
 10
175.406
 20
0.746063
 11
175.476
 21
0.375992
  0
LINE
  8
0
 10
175.476
 20
0.375992
 11
175.5
 21
0
  0
LINE
  8
0
 10
175.5
 20
0
 11
175.476
 21
-0.375992
  0
LINE
  8
0
 10
175.476
 20
-0.375992
 11
175.406
 21
-0.746063
  0
LINE
  8
0
 10
175.406
 20
-0.746063
 11
175.289
 21
-1.10437
  0
LINE
  8
0
 10
175.289
 20
-1.10437
 11
175.129
 21
-1.44525
  0
LINE
  8
0
 10
175.129
 20
-1.44525
 11
174.927
 21
-1.76335
  0
LINE
  8
0
 10
174.927
 20
-1.76335
 11
174.687
 21
-2.05363
  0
LINE
  8
0
 10
174.687
 20
-2.05363
 11
174.412
 21
-2.31154
  0
LINE
  8
0
 10
174.412
 20
-2.31154
 11
174.107
 21
-2.53297
  0
LINE
  8
0
 10
174.107
 20
-2.53297
 11
173.777
 21
-2.71448
  0
LINE
  8
0
 10
173.777
 20
-2.71448
 11
173.427
 21
-2.85316
  0
LINE
  8
0
 10
173.427
 20
-2.85316
 11
173.062
 21
-2.94685
  0
LINE
  8
0
 10
173.062
 20
-2.94685
 11
172.688
 21
-2.99408
  0
LINE
  8
0
 10
172.688
 20
-2.99408
 11
172.312
 21
-2.99408
  0
LINE
  8
0
 10
-172.688
 20
-2.99408
 11
-173.062
 21
-2.94685
  0
LINE
  8
0
 10
-173.062
 20
-2.94685
 11
-173.427
 21
-2.85316
  0
LINE
  8
0
 10
-173.427
 20
-2.85316
 11
-173.777
 21
-2.71448
  0
LINE
  8
0
 10
-173.777
 20
-2.71448
 11
-174.107
 21
-2.53297
  0
LINE
  8
0
 10
-174.107
 20
-2.53297
 11
-174.412
 21
-2.31154
  0
LINE
  8
0
 10
-174.412
 20
-2.31154
 11
-174.687
 21
-2.05363
  0
LINE
  8
0
 10
-174.687
 20
-2.05363
 11
-174.927
 21
-1.76335
  0
LINE
  8
0
 10
-174.927
 20
-1.76335
 11
-175.129
 21
-1.44525
  0
LINE
  8
0
 10
-175.129
 20
-1.44525
 11
-175.289
 21
-1.10437
  0
LINE
  8
0
 10
-175.289
 20
-1.10437
 11
-175.406
 21
-0.746063
  0
LINE
  8
0
 10
-175.406
 20
-0.746063
 11
-175.476
 21
-0.375992
  0
LINE
  8
0
 10
-175.476
 20
-0.375992
 11
-175.5
 21
0
  0
LINE
  8
0
 10
-175.5
 20
0
 11
-175.476
 21
0.375992
  0
LINE
  8
0
 10
-175.476
 20
0.375992
 11
-175.406
 21
0.746063
  0
LINE
  8
0
 10
-175.406
 20
0.746063
 11
-175.289
 21
1.10437
  0
LINE
  8
0
 10
-175.289
 20
1.10437
 11
-175.129
 21
1.44525
  0
LINE
  8
0
 10
-175.129
 20
1.44525
 11
-174.927
 21
1.76335
  0
LINE
  8
0
 10
-174.927
 20
1.76335
 11
-174.687
 21
2.05363
  0
LINE
  8
0
 10
-174.687
 20
2.05363
 11
-174.412
 21
2.31154
  0
LINE
  8
0
 10
-174.412
 20
2.31154
 11
-174.107
 21
2.53297
  0
LINE
  8
0
 10
-174.107
 20
2.53297
 11
-173.777
 21
2.71448
  0
LINE
  8
0
 10
-173.777
 20
2.71448
 11
-173.427
 21
2.85316
  0
LINE
  8
0
 10
-173.427
 20
2.85316
 11
-173.062
 21
2.94685
  0
LINE
  8
0
 10
-173.062
 20
2.94685
 11
-172.688
 21
2.99408
  0
LINE
  8
0
 10
-172.688
 20
2.99408
 11
-172.312
 21
2.99408
  0
LINE
  8
0
 10
-172.312
 20
2.99408
 11
-171.938
 21
2.94685
  0
LINE
  8
0
 10
-171.938
 20
2.94685
 11
-171.573
 21
2.85316
  0
LINE
  8
0
 10
-171.573
 20
2.85316
 11
-171.223
 21
2.71448
  0
LINE
  8
0
 10
-171.223
 20
2.71448
 11
-170.893
 21
2.53297
  0
LINE
  8
0
 10
-170.893
 20
2.53297
 11
-170.588
 21
2.31154
  0
LINE
  8
0
 10
-170.588
 20
2.31154
 11
-170.313
 21
2.05363
  0
LINE
  8
0
 10
-170.313
 20
2.05363
 11
-170.073
 21
1.76335
  0
LINE
  8
0
 10
-170.073
 20
1.76335
 11
-169.871
 21
1.44525
  0
LINE
  8
0
 10
-169.871
 20
1.44525
 11
-169.711
 21
1.10437
  0
LINE
  8
0
 10
-169.711
 20
1.10437
 11
-169.594
 21
0.746063
  0
LINE
  8
0
 10
-169.594
 20
0.746063
 11
-169.524
 21
0.375992
  0
LINE
  8
0
 10
-169.524
 20
0.375992
 11
-169.5
 21
0
  0
LINE
  8
0
 10
-169.5
 20
0
 11
-169.524
 21
-0.375992
  0
LINE
  8
0
 10
-169.524
 20
-0.375992
 11
-169.594
 21
-0.746063
  0
LINE
  8
0
 10
-169.594
 20
-0.746063
 11
-169.711
 21
-1.10437
  0
LINE
  8
0
 10
-169.711
 20
-1.10437
 11
-169.871
 21
-1.44525
  0
LINE
  8
0
 10
-169.871
 20
-1.44525
 11
-170.073
 21
-1.76335
  0
LINE
  8
0
 10
-170.073
 20
-1.76335
 11
-170.313
 21
-2.05363
  0
LINE
  8
0
 10
-170.313
 20
-2.05363
 11
-170.588
 21
-2.31154
  0
LINE
  8
0
 10
-170.588
 20
-2.31154
 11
-170.893
 21
-2.53297
  0
LINE
  8
0
 10
-170.893
 20
-2.53297
 11
-171.223
 21
-2.71448
  0
LINE
  8
0
 10
-171.223
 20
-2.71448
 11
-171.573
 21
-2.85316
  0
LINE
  8
0
 10
-171.573
 20
-2.85316
 11
-171.938
 21
-2.94685
  0
LINE
  8
0
 10
-171.938
 20
-2.94685
 11
-172.312
 21
-2.99408
  0
LINE
  8
0
 10
-172.312
 20
-2.99408
 11
-172.688
 21
-2.99408
  0
ENDSEC
  0
SECTION
  2
OBJECTS
  0
DICTIONARY
  0
ENDSEC
  0
EOF
