  0
SECTION
  2
BLOCKS
  0
ENDSEC
  0
SECTION
  2
ENTITIES
  0
LINE
  8
0
 10
10.4369
 20
137.089
 11
11.0451
 21
137.245
  0
LINE
  8
0
 10
11.0451
 20
137.245
 11
11.6289
 21
137.476
  0
LINE
  8
0
 10
11.6289
 20
137.476
 11
12.1791
 21
137.778
  0
LINE
  8
0
 10
12.1791
 20
137.778
 11
12.6871
 21
138.147
  0
LINE
  8
0
 10
12.6871
 20
138.147
 11
13.1448
 21
138.577
  0
LINE
  8
0
 10
13.1448
 20
138.577
 11
13.5451
 21
139.061
  0
LINE
  8
0
 10
13.5451
 20
139.061
 11
13.8815
 21
139.591
  0
LINE
  8
0
 10
13.8815
 20
139.591
 11
14.1489
 21
140.159
  0
LINE
  8
0
 10
14.1489
 20
140.159
 11
14.3429
 21
140.757
  0
LINE
  8
0
 10
14.3429
 20
140.757
 11
14.4606
 21
141.373
  0
LINE
  8
0
 10
14.4606
 20
141.373
 11
14.5
 21
142
  0
LINE
  8
0
 10
14.5
 20
142
 11
14.5
 21
146
  0
LINE
  8
0
 10
14.5
 20
146
 11
14.4606
 21
146.627
  0
LINE
  8
0
 10
14.4606
 20
146.627
 11
14.3429
 21
147.243
  0
LINE
  8
0
 10
14.3429
 20
147.243
 11
14.1489
 21
147.841
  0
LINE
  8
0
 10
14.1489
 20
147.841
 11
13.8815
 21
148.409
  0
LINE
  8
0
 10
13.8815
 20
148.409
 11
13.5451
 21
148.939
  0
LINE
  8
0
 10
13.5451
 20
148.939
 11
13.1448
 21
149.423
  0
LINE
  8
0
 10
13.1448
 20
149.423
 11
12.6871
 21
149.853
  0
LINE
  8
0
 10
12.6871
 20
149.853
 11
12.1791
 21
150.222
  0
LINE
  8
0
 10
12.1791
 20
150.222
 11
11.6289
 21
150.524
  0
LINE
  8
0
 10
11.6289
 20
150.524
 11
11.0451
 21
150.755
  0
LINE
  8
0
 10
11.0451
 20
150.755
 11
10.4369
 21
150.911
  0
LINE
  8
0
 10
10.4369
 20
150.911
 11
9.81395
 21
150.99
  0
LINE
  8
0
 10
9.81395
 20
150.99
 11
-9.81395
 21
150.99
  0
LINE
  8
0
 10
-9.81395
 20
150.99
 11
-10.4369
 21
150.911
  0
LINE
  8
0
 10
-10.4369
 20
150.911
 11
-11.0451
 21
150.755
  0
LINE
  8
0
 10
-11.0451
 20
150.755
 11
-11.6289
 21
150.524
  0
LINE
  8
0
 10
-11.6289
 20
150.524
 11
-12.1791
 21
150.222
  0
LINE
  8
0
 10
-12.1791
 20
150.222
 11
-12.6871
 21
149.853
  0
LINE
  8
0
 10
-12.6871
 20
149.853
 11
-13.1448
 21
149.423
  0
LINE
  8
0
 10
-13.1448
 20
149.423
 11
-13.5451
 21
148.939
  0
LINE
  8
0
 10
-13.5451
 20
148.939
 11
-13.8815
 21
148.409
  0
LINE
  8
0
 10
-13.8815
 20
148.409
 11
-14.1489
 21
147.841
  0
LINE
  8
0
 10
-14.1489
 20
147.841
 11
-14.3429
 21
147.243
  0
LINE
  8
0
 10
-14.3429
 20
147.243
 11
-14.4606
 21
146.627
  0
LINE
  8
0
 10
-14.4606
 20
146.627
 11
-14.5
 21
146
  0
LINE
  8
0
 10
-14.5
 20
146
 11
-14.5
 21
142
  0
LINE
  8
0
 10
-14.5
 20
142
 11
-14.4606
 21
141.373
  0
LINE
  8
0
 10
-14.4606
 20
141.373
 11
-14.3429
 21
140.757
  0
LINE
  8
0
 10
-14.3429
 20
140.757
 11
-14.1489
 21
140.159
  0
LINE
  8
0
 10
-14.1489
 20
140.159
 11
-13.8815
 21
139.591
  0
LINE
  8
0
 10
-13.8815
 20
139.591
 11
-13.5451
 21
139.061
  0
LINE
  8
0
 10
-13.5451
 20
139.061
 11
-13.1448
 21
138.577
  0
LINE
  8
0
 10
-13.1448
 20
138.577
 11
-12.6871
 21
138.147
  0
LINE
  8
0
 10
-12.6871
 20
138.147
 11
-12.1791
 21
137.778
  0
LINE
  8
0
 10
-12.1791
 20
137.778
 11
-11.6289
 21
137.476
  0
LINE
  8
0
 10
-11.6289
 20
137.476
 11
-11.0451
 21
137.245
  0
LINE
  8
0
 10
-11.0451
 20
137.245
 11
-10.4369
 21
137.089
  0
LINE
  8
0
 10
-10.4369
 20
137.089
 11
-9.81395
 21
137.01
  0
LINE
  8
0
 10
-9.81395
 20
137.01
 11
9.81395
 21
137.01
  0
LINE
  8
0
 10
9.81395
 20
137.01
 11
10.4369
 21
137.089
  0
LINE
  8
0
 10
7.31161
 20
141.006
 11
6.93785
 21
141.053
  0
LINE
  8
0
 10
6.93785
 20
141.053
 11
6.57294
 21
141.147
  0
LINE
  8
0
 10
6.57294
 20
141.147
 11
6.22266
 21
141.286
  0
LINE
  8
0
 10
6.22266
 20
141.286
 11
5.89252
 21
141.467
  0
LINE
  8
0
 10
5.89252
 20
141.467
 11
5.58772
 21
141.688
  0
LINE
  8
0
 10
5.58772
 20
141.688
 11
5.31308
 21
141.946
  0
LINE
  8
0
 10
5.31308
 20
141.946
 11
5.07294
 21
142.237
  0
LINE
  8
0
 10
5.07294
 20
142.237
 11
4.87108
 21
142.555
  0
LINE
  8
0
 10
4.87108
 20
142.555
 11
4.71066
 21
142.896
  0
LINE
  8
0
 10
4.71066
 20
142.896
 11
4.59424
 21
143.254
  0
LINE
  8
0
 10
4.59424
 20
143.254
 11
4.52365
 21
143.624
  0
LINE
  8
0
 10
4.52365
 20
143.624
 11
4.5
 21
144
  0
LINE
  8
0
 10
4.5
 20
144
 11
4.52365
 21
144.376
  0
LINE
  8
0
 10
4.52365
 20
144.376
 11
4.59424
 21
144.746
  0
LINE
  8
0
 10
4.59424
 20
144.746
 11
4.71066
 21
145.104
  0
LINE
  8
0
 10
4.71066
 20
145.104
 11
4.87108
 21
145.445
  0
LINE
  8
0
 10
4.87108
 20
145.445
 11
5.07294
 21
145.763
  0
LINE
  8
0
 10
5.07294
 20
145.763
 11
5.31308
 21
146.054
  0
LINE
  8
0
 10
5.31308
 20
146.054
 11
5.58772
 21
146.312
  0
LINE
  8
0
 10
5.58772
 20
146.312
 11
5.89252
 21
146.533
  0
LINE
  8
0
 10
5.89252
 20
146.533
 11
6.22266
 21
146.714
  0
LINE
  8
0
 10
6.22266
 20
146.714
 11
6.57294
 21
146.853
  0
LINE
  8
0
 10
6.57294
 20
146.853
 11
6.93785
 21
146.947
  0
LINE
  8
0
 10
6.93785
 20
146.947
 11
7.31161
 21
146.994
  0
LINE
  8
0
 10
7.31161
 20
146.994
 11
7.68837
 21
146.994
  0
LINE
  8
0
 10
7.68837
 20
146.994
 11
8.06213
 21
146.947
  0
LINE
  8
0
 10
8.06213
 20
146.947
 11
8.42705
 21
146.853
  0
LINE
  8
0
 10
8.42705
 20
146.853
 11
8.77733
 21
146.714
  0
LINE
  8
0
 10
8.77733
 20
146.714
 11
9.10747
 21
146.533
  0
LINE
  8
0
 10
9.10747
 20
146.533
 11
9.41226
 21
146.312
  0
LINE
  8
0
 10
9.41226
 20
146.312
 11
9.6869
 21
146.054
  0
LINE
  8
0
 10
9.6869
 20
146.054
 11
9.92705
 21
145.763
  0
LINE
  8
0
 10
9.92705
 20
145.763
 11
10.1289
 21
145.445
  0
LINE
  8
0
 10
10.1289
 20
145.445
 11
10.2893
 21
145.104
  0
LINE
  8
0
 10
10.2893
 20
145.104
 11
10.4057
 21
144.746
  0
LINE
  8
0
 10
10.4057
 20
144.746
 11
10.4763
 21
144.376
  0
LINE
  8
0
 10
10.4763
 20
144.376
 11
10.5
 21
144
  0
LINE
  8
0
 10
10.5
 20
144
 11
10.4763
 21
143.624
  0
LINE
  8
0
 10
10.4763
 20
143.624
 11
10.4057
 21
143.254
  0
LINE
  8
0
 10
10.4057
 20
143.254
 11
10.2893
 21
142.896
  0
LINE
  8
0
 10
10.2893
 20
142.896
 11
10.1289
 21
142.555
  0
LINE
  8
0
 10
10.1289
 20
142.555
 11
9.92705
 21
142.237
  0
LINE
  8
0
 10
9.92705
 20
142.237
 11
9.6869
 21
141.946
  0
LINE
  8
0
 10
9.6869
 20
141.946
 11
9.41226
 21
141.688
  0
LINE
  8
0
 10
9.41226
 20
141.688
 11
9.10747
 21
141.467
  0
LINE
  8
0
 10
9.10747
 20
141.467
 11
8.77733
 21
141.286
  0
LINE
  8
0
 10
8.77733
 20
141.286
 11
8.42705
 21
141.147
  0
LINE
  8
0
 10
8.42705
 20
141.147
 11
8.06213
 21
141.053
  0
LINE
  8
0
 10
8.06213
 20
141.053
 11
7.68837
 21
141.006
  0
LINE
  8
0
 10
7.68837
 20
141.006
 11
7.31161
 21
141.006
  0
LINE
  8
0
 10
-7.68837
 20
141.006
 11
-8.06213
 21
141.053
  0
LINE
  8
0
 10
-8.06213
 20
141.053
 11
-8.42705
 21
141.147
  0
LINE
  8
0
 10
-8.42705
 20
141.147
 11
-8.77733
 21
141.286
  0
LINE
  8
0
 10
-8.77733
 20
141.286
 11
-9.10747
 21
141.467
  0
LINE
  8
0
 10
-9.10747
 20
141.467
 11
-9.41226
 21
141.688
  0
LINE
  8
0
 10
-9.41226
 20
141.688
 11
-9.6869
 21
141.946
  0
LINE
  8
0
 10
-9.6869
 20
141.946
 11
-9.92705
 21
142.237
  0
LINE
  8
0
 10
-9.92705
 20
142.237
 11
-10.1289
 21
142.555
  0
LINE
  8
0
 10
-10.1289
 20
142.555
 11
-10.2893
 21
142.896
  0
LINE
  8
0
 10
-10.2893
 20
142.896
 11
-10.4057
 21
143.254
  0
LINE
  8
0
 10
-10.4057
 20
143.254
 11
-10.4763
 21
143.624
  0
LINE
  8
0
 10
-10.4763
 20
143.624
 11
-10.5
 21
144
  0
LINE
  8
0
 10
-10.5
 20
144
 11
-10.4763
 21
144.376
  0
LINE
  8
0
 10
-10.4763
 20
144.376
 11
-10.4057
 21
144.746
  0
LINE
  8
0
 10
-10.4057
 20
144.746
 11
-10.2893
 21
145.104
  0
LINE
  8
0
 10
-10.2893
 20
145.104
 11
-10.1289
 21
145.445
  0
LINE
  8
0
 10
-10.1289
 20
145.445
 11
-9.92705
 21
145.763
  0
LINE
  8
0
 10
-9.92705
 20
145.763
 11
-9.6869
 21
146.054
  0
LINE
  8
0
 10
-9.6869
 20
146.054
 11
-9.41226
 21
146.312
  0
LINE
  8
0
 10
-9.41226
 20
146.312
 11
-9.10747
 21
146.533
  0
LINE
  8
0
 10
-9.10747
 20
146.533
 11
-8.77733
 21
146.714
  0
LINE
  8
0
 10
-8.77733
 20
146.714
 11
-8.42705
 21
146.853
  0
LINE
  8
0
 10
-8.42705
 20
146.853
 11
-8.06213
 21
146.947
  0
LINE
  8
0
 10
-8.06213
 20
146.947
 11
-7.68837
 21
146.994
  0
LINE
  8
0
 10
-7.68837
 20
146.994
 11
-7.31161
 21
146.994
  0
LINE
  8
0
 10
-7.31161
 20
146.994
 11
-6.93785
 21
146.947
  0
LINE
  8
0
 10
-6.93785
 20
146.947
 11
-6.57294
 21
146.853
  0
LINE
  8
0
 10
-6.57294
 20
146.853
 11
-6.22266
 21
146.714
  0
LINE
  8
0
 10
-6.22266
 20
146.714
 11
-5.89252
 21
146.533
  0
LINE
  8
0
 10
-5.89252
 20
146.533
 11
-5.58772
 21
146.312
  0
LINE
  8
0
 10
-5.58772
 20
146.312
 11
-5.31308
 21
146.054
  0
LINE
  8
0
 10
-5.31308
 20
146.054
 11
-5.07294
 21
145.763
  0
LINE
  8
0
 10
-5.07294
 20
145.763
 11
-4.87108
 21
145.445
  0
LINE
  8
0
 10
-4.87108
 20
145.445
 11
-4.71066
 21
145.104
  0
LINE
  8
0
 10
-4.71066
 20
145.104
 11
-4.59424
 21
144.746
  0
LINE
  8
0
 10
-4.59424
 20
144.746
 11
-4.52365
 21
144.376
  0
LINE
  8
0
 10
-4.52365
 20
144.376
 11
-4.5
 21
144
  0
LINE
  8
0
 10
-4.5
 20
144
 11
-4.52365
 21
143.624
  0
LINE
  8
0
 10
-4.52365
 20
143.624
 11
-4.59424
 21
143.254
  0
LINE
  8
0
 10
-4.59424
 20
143.254
 11
-4.71066
 21
142.896
  0
LINE
  8
0
 10
-4.71066
 20
142.896
 11
-4.87108
 21
142.555
  0
LINE
  8
0
 10
-4.87108
 20
142.555
 11
-5.07294
 21
142.237
  0
LINE
  8
0
 10
-5.07294
 20
142.237
 11
-5.31308
 21
141.946
  0
LINE
  8
0
 10
-5.31308
 20
141.946
 11
-5.58772
 21
141.688
  0
LINE
  8
0
 10
-5.58772
 20
141.688
 11
-5.89252
 21
141.467
  0
LINE
  8
0
 10
-5.89252
 20
141.467
 11
-6.22266
 21
141.286
  0
LINE
  8
0
 10
-6.22266
 20
141.286
 11
-6.57294
 21
141.147
  0
LINE
  8
0
 10
-6.57294
 20
141.147
 11
-6.93785
 21
141.053
  0
LINE
  8
0
 10
-6.93785
 20
141.053
 11
-7.31161
 21
141.006
  0
LINE
  8
0
 10
-7.31161
 20
141.006
 11
-7.68837
 21
141.006
  0
LINE
  8
0
 10
10.4369
 20
113.089
 11
11.0451
 21
113.245
  0
LINE
  8
0
 10
11.0451
 20
113.245
 11
11.6289
 21
113.476
  0
LINE
  8
0
 10
11.6289
 20
113.476
 11
12.1791
 21
113.778
  0
LINE
  8
0
 10
12.1791
 20
113.778
 11
12.6871
 21
114.147
  0
LINE
  8
0
 10
12.6871
 20
114.147
 11
13.1448
 21
114.577
  0
LINE
  8
0
 10
13.1448
 20
114.577
 11
13.5451
 21
115.061
  0
LINE
  8
0
 10
13.5451
 20
115.061
 11
13.8815
 21
115.591
  0
LINE
  8
0
 10
13.8815
 20
115.591
 11
14.1489
 21
116.159
  0
LINE
  8
0
 10
14.1489
 20
116.159
 11
14.3429
 21
116.757
  0
LINE
  8
0
 10
14.3429
 20
116.757
 11
14.4606
 21
117.373
  0
LINE
  8
0
 10
14.4606
 20
117.373
 11
14.5
 21
118
  0
LINE
  8
0
 10
14.5
 20
118
 11
14.5
 21
122
  0
LINE
  8
0
 10
14.5
 20
122
 11
14.4606
 21
122.627
  0
LINE
  8
0
 10
14.4606
 20
122.627
 11
14.3429
 21
123.243
  0
LINE
  8
0
 10
14.3429
 20
123.243
 11
14.1489
 21
123.841
  0
LINE
  8
0
 10
14.1489
 20
123.841
 11
13.8815
 21
124.409
  0
LINE
  8
0
 10
13.8815
 20
124.409
 11
13.5451
 21
124.939
  0
LINE
  8
0
 10
13.5451
 20
124.939
 11
13.1448
 21
125.423
  0
LINE
  8
0
 10
13.1448
 20
125.423
 11
12.6871
 21
125.853
  0
LINE
  8
0
 10
12.6871
 20
125.853
 11
12.1791
 21
126.222
  0
LINE
  8
0
 10
12.1791
 20
126.222
 11
11.6289
 21
126.524
  0
LINE
  8
0
 10
11.6289
 20
126.524
 11
11.0451
 21
126.755
  0
LINE
  8
0
 10
11.0451
 20
126.755
 11
10.4369
 21
126.911
  0
LINE
  8
0
 10
10.4369
 20
126.911
 11
9.81395
 21
126.99
  0
LINE
  8
0
 10
9.81395
 20
126.99
 11
-9.81395
 21
126.99
  0
LINE
  8
0
 10
-9.81395
 20
126.99
 11
-10.4369
 21
126.911
  0
LINE
  8
0
 10
-10.4369
 20
126.911
 11
-11.0451
 21
126.755
  0
LINE
  8
0
 10
-11.0451
 20
126.755
 11
-11.6289
 21
126.524
  0
LINE
  8
0
 10
-11.6289
 20
126.524
 11
-12.1791
 21
126.222
  0
LINE
  8
0
 10
-12.1791
 20
126.222
 11
-12.6871
 21
125.853
  0
LINE
  8
0
 10
-12.6871
 20
125.853
 11
-13.1448
 21
125.423
  0
LINE
  8
0
 10
-13.1448
 20
125.423
 11
-13.5451
 21
124.939
  0
LINE
  8
0
 10
-13.5451
 20
124.939
 11
-13.8815
 21
124.409
  0
LINE
  8
0
 10
-13.8815
 20
124.409
 11
-14.1489
 21
123.841
  0
LINE
  8
0
 10
-14.1489
 20
123.841
 11
-14.3429
 21
123.243
  0
LINE
  8
0
 10
-14.3429
 20
123.243
 11
-14.4606
 21
122.627
  0
LINE
  8
0
 10
-14.4606
 20
122.627
 11
-14.5
 21
122
  0
LINE
  8
0
 10
-14.5
 20
122
 11
-14.5
 21
118
  0
LINE
  8
0
 10
-14.5
 20
118
 11
-14.4606
 21
117.373
  0
LINE
  8
0
 10
-14.4606
 20
117.373
 11
-14.3429
 21
116.757
  0
LINE
  8
0
 10
-14.3429
 20
116.757
 11
-14.1489
 21
116.159
  0
LINE
  8
0
 10
-14.1489
 20
116.159
 11
-13.8815
 21
115.591
  0
LINE
  8
0
 10
-13.8815
 20
115.591
 11
-13.5451
 21
115.061
  0
LINE
  8
0
 10
-13.5451
 20
115.061
 11
-13.1448
 21
114.577
  0
LINE
  8
0
 10
-13.1448
 20
114.577
 11
-12.6871
 21
114.147
  0
LINE
  8
0
 10
-12.6871
 20
114.147
 11
-12.1791
 21
113.778
  0
LINE
  8
0
 10
-12.1791
 20
113.778
 11
-11.6289
 21
113.476
  0
LINE
  8
0
 10
-11.6289
 20
113.476
 11
-11.0451
 21
113.245
  0
LINE
  8
0
 10
-11.0451
 20
113.245
 11
-10.4369
 21
113.089
  0
LINE
  8
0
 10
-10.4369
 20
113.089
 11
-9.81395
 21
113.01
  0
LINE
  8
0
 10
-9.81395
 20
113.01
 11
9.81395
 21
113.01
  0
LINE
  8
0
 10
9.81395
 20
113.01
 11
10.4369
 21
113.089
  0
LINE
  8
0
 10
7.31161
 20
117.006
 11
6.93785
 21
117.053
  0
LINE
  8
0
 10
6.93785
 20
117.053
 11
6.57294
 21
117.147
  0
LINE
  8
0
 10
6.57294
 20
117.147
 11
6.22266
 21
117.286
  0
LINE
  8
0
 10
6.22266
 20
117.286
 11
5.89252
 21
117.467
  0
LINE
  8
0
 10
5.89252
 20
117.467
 11
5.58772
 21
117.688
  0
LINE
  8
0
 10
5.58772
 20
117.688
 11
5.31308
 21
117.946
  0
LINE
  8
0
 10
5.31308
 20
117.946
 11
5.07294
 21
118.237
  0
LINE
  8
0
 10
5.07294
 20
118.237
 11
4.87108
 21
118.555
  0
LINE
  8
0
 10
4.87108
 20
118.555
 11
4.71066
 21
118.896
  0
LINE
  8
0
 10
4.71066
 20
118.896
 11
4.59424
 21
119.254
  0
LINE
  8
0
 10
4.59424
 20
119.254
 11
4.52365
 21
119.624
  0
LINE
  8
0
 10
4.52365
 20
119.624
 11
4.5
 21
120
  0
LINE
  8
0
 10
4.5
 20
120
 11
4.52365
 21
120.376
  0
LINE
  8
0
 10
4.52365
 20
120.376
 11
4.59424
 21
120.746
  0
LINE
  8
0
 10
4.59424
 20
120.746
 11
4.71066
 21
121.104
  0
LINE
  8
0
 10
4.71066
 20
121.104
 11
4.87108
 21
121.445
  0
LINE
  8
0
 10
4.87108
 20
121.445
 11
5.07294
 21
121.763
  0
LINE
  8
0
 10
5.07294
 20
121.763
 11
5.31308
 21
122.054
  0
LINE
  8
0
 10
5.31308
 20
122.054
 11
5.58772
 21
122.312
  0
LINE
  8
0
 10
5.58772
 20
122.312
 11
5.89252
 21
122.533
  0
LINE
  8
0
 10
5.89252
 20
122.533
 11
6.22266
 21
122.714
  0
LINE
  8
0
 10
6.22266
 20
122.714
 11
6.57294
 21
122.853
  0
LINE
  8
0
 10
6.57294
 20
122.853
 11
6.93785
 21
122.947
  0
LINE
  8
0
 10
6.93785
 20
122.947
 11
7.31161
 21
122.994
  0
LINE
  8
0
 10
7.31161
 20
122.994
 11
7.68837
 21
122.994
  0
LINE
  8
0
 10
7.68837
 20
122.994
 11
8.06213
 21
122.947
  0
LINE
  8
0
 10
8.06213
 20
122.947
 11
8.42705
 21
122.853
  0
LINE
  8
0
 10
8.42705
 20
122.853
 11
8.77733
 21
122.714
  0
LINE
  8
0
 10
8.77733
 20
122.714
 11
9.10747
 21
122.533
  0
LINE
  8
0
 10
9.10747
 20
122.533
 11
9.41226
 21
122.312
  0
LINE
  8
0
 10
9.41226
 20
122.312
 11
9.6869
 21
122.054
  0
LINE
  8
0
 10
9.6869
 20
122.054
 11
9.92705
 21
121.763
  0
LINE
  8
0
 10
9.92705
 20
121.763
 11
10.1289
 21
121.445
  0
LINE
  8
0
 10
10.1289
 20
121.445
 11
10.2893
 21
121.104
  0
LINE
  8
0
 10
10.2893
 20
121.104
 11
10.4057
 21
120.746
  0
LINE
  8
0
 10
10.4057
 20
120.746
 11
10.4763
 21
120.376
  0
LINE
  8
0
 10
10.4763
 20
120.376
 11
10.5
 21
120
  0
LINE
  8
0
 10
10.5
 20
120
 11
10.4763
 21
119.624
  0
LINE
  8
0
 10
10.4763
 20
119.624
 11
10.4057
 21
119.254
  0
LINE
  8
0
 10
10.4057
 20
119.254
 11
10.2893
 21
118.896
  0
LINE
  8
0
 10
10.2893
 20
118.896
 11
10.1289
 21
118.555
  0
LINE
  8
0
 10
10.1289
 20
118.555
 11
9.92705
 21
118.237
  0
LINE
  8
0
 10
9.92705
 20
118.237
 11
9.6869
 21
117.946
  0
LINE
  8
0
 10
9.6869
 20
117.946
 11
9.41226
 21
117.688
  0
LINE
  8
0
 10
9.41226
 20
117.688
 11
9.10747
 21
117.467
  0
LINE
  8
0
 10
9.10747
 20
117.467
 11
8.77733
 21
117.286
  0
LINE
  8
0
 10
8.77733
 20
117.286
 11
8.42705
 21
117.147
  0
LINE
  8
0
 10
8.42705
 20
117.147
 11
8.06213
 21
117.053
  0
LINE
  8
0
 10
8.06213
 20
117.053
 11
7.68837
 21
117.006
  0
LINE
  8
0
 10
7.68837
 20
117.006
 11
7.31161
 21
117.006
  0
LINE
  8
0
 10
-7.68837
 20
117.006
 11
-8.06213
 21
117.053
  0
LINE
  8
0
 10
-8.06213
 20
117.053
 11
-8.42705
 21
117.147
  0
LINE
  8
0
 10
-8.42705
 20
117.147
 11
-8.77733
 21
117.286
  0
LINE
  8
0
 10
-8.77733
 20
117.286
 11
-9.10747
 21
117.467
  0
LINE
  8
0
 10
-9.10747
 20
117.467
 11
-9.41226
 21
117.688
  0
LINE
  8
0
 10
-9.41226
 20
117.688
 11
-9.6869
 21
117.946
  0
LINE
  8
0
 10
-9.6869
 20
117.946
 11
-9.92705
 21
118.237
  0
LINE
  8
0
 10
-9.92705
 20
118.237
 11
-10.1289
 21
118.555
  0
LINE
  8
0
 10
-10.1289
 20
118.555
 11
-10.2893
 21
118.896
  0
LINE
  8
0
 10
-10.2893
 20
118.896
 11
-10.4057
 21
119.254
  0
LINE
  8
0
 10
-10.4057
 20
119.254
 11
-10.4763
 21
119.624
  0
LINE
  8
0
 10
-10.4763
 20
119.624
 11
-10.5
 21
120
  0
LINE
  8
0
 10
-10.5
 20
120
 11
-10.4763
 21
120.376
  0
LINE
  8
0
 10
-10.4763
 20
120.376
 11
-10.4057
 21
120.746
  0
LINE
  8
0
 10
-10.4057
 20
120.746
 11
-10.2893
 21
121.104
  0
LINE
  8
0
 10
-10.2893
 20
121.104
 11
-10.1289
 21
121.445
  0
LINE
  8
0
 10
-10.1289
 20
121.445
 11
-9.92705
 21
121.763
  0
LINE
  8
0
 10
-9.92705
 20
121.763
 11
-9.6869
 21
122.054
  0
LINE
  8
0
 10
-9.6869
 20
122.054
 11
-9.41226
 21
122.312
  0
LINE
  8
0
 10
-9.41226
 20
122.312
 11
-9.10747
 21
122.533
  0
LINE
  8
0
 10
-9.10747
 20
122.533
 11
-8.77733
 21
122.714
  0
LINE
  8
0
 10
-8.77733
 20
122.714
 11
-8.42705
 21
122.853
  0
LINE
  8
0
 10
-8.42705
 20
122.853
 11
-8.06213
 21
122.947
  0
LINE
  8
0
 10
-8.06213
 20
122.947
 11
-7.68837
 21
122.994
  0
LINE
  8
0
 10
-7.68837
 20
122.994
 11
-7.31161
 21
122.994
  0
LINE
  8
0
 10
-7.31161
 20
122.994
 11
-6.93785
 21
122.947
  0
LINE
  8
0
 10
-6.93785
 20
122.947
 11
-6.57294
 21
122.853
  0
LINE
  8
0
 10
-6.57294
 20
122.853
 11
-6.22266
 21
122.714
  0
LINE
  8
0
 10
-6.22266
 20
122.714
 11
-5.89252
 21
122.533
  0
LINE
  8
0
 10
-5.89252
 20
122.533
 11
-5.58772
 21
122.312
  0
LINE
  8
0
 10
-5.58772
 20
122.312
 11
-5.31308
 21
122.054
  0
LINE
  8
0
 10
-5.31308
 20
122.054
 11
-5.07294
 21
121.763
  0
LINE
  8
0
 10
-5.07294
 20
121.763
 11
-4.87108
 21
121.445
  0
LINE
  8
0
 10
-4.87108
 20
121.445
 11
-4.71066
 21
121.104
  0
LINE
  8
0
 10
-4.71066
 20
121.104
 11
-4.59424
 21
120.746
  0
LINE
  8
0
 10
-4.59424
 20
120.746
 11
-4.52365
 21
120.376
  0
LINE
  8
0
 10
-4.52365
 20
120.376
 11
-4.5
 21
120
  0
LINE
  8
0
 10
-4.5
 20
120
 11
-4.52365
 21
119.624
  0
LINE
  8
0
 10
-4.52365
 20
119.624
 11
-4.59424
 21
119.254
  0
LINE
  8
0
 10
-4.59424
 20
119.254
 11
-4.71066
 21
118.896
  0
LINE
  8
0
 10
-4.71066
 20
118.896
 11
-4.87108
 21
118.555
  0
LINE
  8
0
 10
-4.87108
 20
118.555
 11
-5.07294
 21
118.237
  0
LINE
  8
0
 10
-5.07294
 20
118.237
 11
-5.31308
 21
117.946
  0
LINE
  8
0
 10
-5.31308
 20
117.946
 11
-5.58772
 21
117.688
  0
LINE
  8
0
 10
-5.58772
 20
117.688
 11
-5.89252
 21
117.467
  0
LINE
  8
0
 10
-5.89252
 20
117.467
 11
-6.22266
 21
117.286
  0
LINE
  8
0
 10
-6.22266
 20
117.286
 11
-6.57294
 21
117.147
  0
LINE
  8
0
 10
-6.57294
 20
117.147
 11
-6.93785
 21
117.053
  0
LINE
  8
0
 10
-6.93785
 20
117.053
 11
-7.31161
 21
117.006
  0
LINE
  8
0
 10
-7.31161
 20
117.006
 11
-7.68837
 21
117.006
  0
LINE
  8
0
 10
10.4369
 20
89.0886
 11
11.0451
 21
89.2447
  0
LINE
  8
0
 10
11.0451
 20
89.2447
 11
11.6289
 21
89.4759
  0
LINE
  8
0
 10
11.6289
 20
89.4759
 11
12.1791
 21
89.7784
  0
LINE
  8
0
 10
12.1791
 20
89.7784
 11
12.6871
 21
90.1474
  0
LINE
  8
0
 10
12.6871
 20
90.1474
 11
13.1448
 21
90.5773
  0
LINE
  8
0
 10
13.1448
 20
90.5773
 11
13.5451
 21
91.0611
  0
LINE
  8
0
 10
13.5451
 20
91.0611
 11
13.8815
 21
91.5912
  0
LINE
  8
0
 10
13.8815
 20
91.5912
 11
14.1489
 21
92.1594
  0
LINE
  8
0
 10
14.1489
 20
92.1594
 11
14.3429
 21
92.7566
  0
LINE
  8
0
 10
14.3429
 20
92.7566
 11
14.4606
 21
93.3733
  0
LINE
  8
0
 10
14.4606
 20
93.3733
 11
14.5
 21
94
  0
LINE
  8
0
 10
14.5
 20
94
 11
14.5
 21
98
  0
LINE
  8
0
 10
14.5
 20
98
 11
14.4606
 21
98.6267
  0
LINE
  8
0
 10
14.4606
 20
98.6267
 11
14.3429
 21
99.2434
  0
LINE
  8
0
 10
14.3429
 20
99.2434
 11
14.1489
 21
99.8406
  0
LINE
  8
0
 10
14.1489
 20
99.8406
 11
13.8815
 21
100.409
  0
LINE
  8
0
 10
13.8815
 20
100.409
 11
13.5451
 21
100.939
  0
LINE
  8
0
 10
13.5451
 20
100.939
 11
13.1448
 21
101.423
  0
LINE
  8
0
 10
13.1448
 20
101.423
 11
12.6871
 21
101.853
  0
LINE
  8
0
 10
12.6871
 20
101.853
 11
12.1791
 21
102.222
  0
LINE
  8
0
 10
12.1791
 20
102.222
 11
11.6289
 21
102.524
  0
LINE
  8
0
 10
11.6289
 20
102.524
 11
11.0451
 21
102.755
  0
LINE
  8
0
 10
11.0451
 20
102.755
 11
10.4369
 21
102.911
  0
LINE
  8
0
 10
10.4369
 20
102.911
 11
9.81395
 21
102.99
  0
LINE
  8
0
 10
9.81395
 20
102.99
 11
-9.81395
 21
102.99
  0
LINE
  8
0
 10
-9.81395
 20
102.99
 11
-10.4369
 21
102.911
  0
LINE
  8
0
 10
-10.4369
 20
102.911
 11
-11.0451
 21
102.755
  0
LINE
  8
0
 10
-11.0451
 20
102.755
 11
-11.6289
 21
102.524
  0
LINE
  8
0
 10
-11.6289
 20
102.524
 11
-12.1791
 21
102.222
  0
LINE
  8
0
 10
-12.1791
 20
102.222
 11
-12.6871
 21
101.853
  0
LINE
  8
0
 10
-12.6871
 20
101.853
 11
-13.1448
 21
101.423
  0
LINE
  8
0
 10
-13.1448
 20
101.423
 11
-13.5451
 21
100.939
  0
LINE
  8
0
 10
-13.5451
 20
100.939
 11
-13.8815
 21
100.409
  0
LINE
  8
0
 10
-13.8815
 20
100.409
 11
-14.1489
 21
99.8406
  0
LINE
  8
0
 10
-14.1489
 20
99.8406
 11
-14.3429
 21
99.2434
  0
LINE
  8
0
 10
-14.3429
 20
99.2434
 11
-14.4606
 21
98.6267
  0
LINE
  8
0
 10
-14.4606
 20
98.6267
 11
-14.5
 21
98
  0
LINE
  8
0
 10
-14.5
 20
98
 11
-14.5
 21
94
  0
LINE
  8
0
 10
-14.5
 20
94
 11
-14.4606
 21
93.3733
  0
LINE
  8
0
 10
-14.4606
 20
93.3733
 11
-14.3429
 21
92.7566
  0
LINE
  8
0
 10
-14.3429
 20
92.7566
 11
-14.1489
 21
92.1594
  0
LINE
  8
0
 10
-14.1489
 20
92.1594
 11
-13.8815
 21
91.5912
  0
LINE
  8
0
 10
-13.8815
 20
91.5912
 11
-13.5451
 21
91.0611
  0
LINE
  8
0
 10
-13.5451
 20
91.0611
 11
-13.1448
 21
90.5773
  0
LINE
  8
0
 10
-13.1448
 20
90.5773
 11
-12.6871
 21
90.1474
  0
LINE
  8
0
 10
-12.6871
 20
90.1474
 11
-12.1791
 21
89.7784
  0
LINE
  8
0
 10
-12.1791
 20
89.7784
 11
-11.6289
 21
89.4759
  0
LINE
  8
0
 10
-11.6289
 20
89.4759
 11
-11.0451
 21
89.2447
  0
LINE
  8
0
 10
-11.0451
 20
89.2447
 11
-10.4369
 21
89.0886
  0
LINE
  8
0
 10
-10.4369
 20
89.0886
 11
-9.81395
 21
89.0099
  0
LINE
  8
0
 10
-9.81395
 20
89.0099
 11
9.81395
 21
89.0099
  0
LINE
  8
0
 10
9.81395
 20
89.0099
 11
10.4369
 21
89.0886
  0
LINE
  8
0
 10
7.31161
 20
93.0059
 11
6.93785
 21
93.0531
  0
LINE
  8
0
 10
6.93785
 20
93.0531
 11
6.57294
 21
93.1468
  0
LINE
  8
0
 10
6.57294
 20
93.1468
 11
6.22266
 21
93.2855
  0
LINE
  8
0
 10
6.22266
 20
93.2855
 11
5.89252
 21
93.467
  0
LINE
  8
0
 10
5.89252
 20
93.467
 11
5.58772
 21
93.6885
  0
LINE
  8
0
 10
5.58772
 20
93.6885
 11
5.31308
 21
93.9464
  0
LINE
  8
0
 10
5.31308
 20
93.9464
 11
5.07294
 21
94.2366
  0
LINE
  8
0
 10
5.07294
 20
94.2366
 11
4.87108
 21
94.5547
  0
LINE
  8
0
 10
4.87108
 20
94.5547
 11
4.71066
 21
94.8956
  0
LINE
  8
0
 10
4.71066
 20
94.8956
 11
4.59424
 21
95.2539
  0
LINE
  8
0
 10
4.59424
 20
95.2539
 11
4.52365
 21
95.624
  0
LINE
  8
0
 10
4.52365
 20
95.624
 11
4.5
 21
96
  0
LINE
  8
0
 10
4.5
 20
96
 11
4.52365
 21
96.376
  0
LINE
  8
0
 10
4.52365
 20
96.376
 11
4.59424
 21
96.7461
  0
LINE
  8
0
 10
4.59424
 20
96.7461
 11
4.71066
 21
97.1044
  0
LINE
  8
0
 10
4.71066
 20
97.1044
 11
4.87108
 21
97.4453
  0
LINE
  8
0
 10
4.87108
 20
97.4453
 11
5.07294
 21
97.7634
  0
LINE
  8
0
 10
5.07294
 20
97.7634
 11
5.31308
 21
98.0536
  0
LINE
  8
0
 10
5.31308
 20
98.0536
 11
5.58772
 21
98.3115
  0
LINE
  8
0
 10
5.58772
 20
98.3115
 11
5.89252
 21
98.533
  0
LINE
  8
0
 10
5.89252
 20
98.533
 11
6.22266
 21
98.7145
  0
LINE
  8
0
 10
6.22266
 20
98.7145
 11
6.57294
 21
98.8532
  0
LINE
  8
0
 10
6.57294
 20
98.8532
 11
6.93785
 21
98.9469
  0
LINE
  8
0
 10
6.93785
 20
98.9469
 11
7.31161
 21
98.9941
  0
LINE
  8
0
 10
7.31161
 20
98.9941
 11
7.68837
 21
98.9941
  0
LINE
  8
0
 10
7.68837
 20
98.9941
 11
8.06213
 21
98.9469
  0
LINE
  8
0
 10
8.06213
 20
98.9469
 11
8.42705
 21
98.8532
  0
LINE
  8
0
 10
8.42705
 20
98.8532
 11
8.77733
 21
98.7145
  0
LINE
  8
0
 10
8.77733
 20
98.7145
 11
9.10747
 21
98.533
  0
LINE
  8
0
 10
9.10747
 20
98.533
 11
9.41226
 21
98.3115
  0
LINE
  8
0
 10
9.41226
 20
98.3115
 11
9.6869
 21
98.0536
  0
LINE
  8
0
 10
9.6869
 20
98.0536
 11
9.92705
 21
97.7634
  0
LINE
  8
0
 10
9.92705
 20
97.7634
 11
10.1289
 21
97.4453
  0
LINE
  8
0
 10
10.1289
 20
97.4453
 11
10.2893
 21
97.1044
  0
LINE
  8
0
 10
10.2893
 20
97.1044
 11
10.4057
 21
96.7461
  0
LINE
  8
0
 10
10.4057
 20
96.7461
 11
10.4763
 21
96.376
  0
LINE
  8
0
 10
10.4763
 20
96.376
 11
10.5
 21
96
  0
LINE
  8
0
 10
10.5
 20
96
 11
10.4763
 21
95.624
  0
LINE
  8
0
 10
10.4763
 20
95.624
 11
10.4057
 21
95.2539
  0
LINE
  8
0
 10
10.4057
 20
95.2539
 11
10.2893
 21
94.8956
  0
LINE
  8
0
 10
10.2893
 20
94.8956
 11
10.1289
 21
94.5547
  0
LINE
  8
0
 10
10.1289
 20
94.5547
 11
9.92705
 21
94.2366
  0
LINE
  8
0
 10
9.92705
 20
94.2366
 11
9.6869
 21
93.9464
  0
LINE
  8
0
 10
9.6869
 20
93.9464
 11
9.41226
 21
93.6885
  0
LINE
  8
0
 10
9.41226
 20
93.6885
 11
9.10747
 21
93.467
  0
LINE
  8
0
 10
9.10747
 20
93.467
 11
8.77733
 21
93.2855
  0
LINE
  8
0
 10
8.77733
 20
93.2855
 11
8.42705
 21
93.1468
  0
LINE
  8
0
 10
8.42705
 20
93.1468
 11
8.06213
 21
93.0531
  0
LINE
  8
0
 10
8.06213
 20
93.0531
 11
7.68837
 21
93.0059
  0
LINE
  8
0
 10
7.68837
 20
93.0059
 11
7.31161
 21
93.0059
  0
LINE
  8
0
 10
-7.68837
 20
93.0059
 11
-8.06213
 21
93.0531
  0
LINE
  8
0
 10
-8.06213
 20
93.0531
 11
-8.42705
 21
93.1468
  0
LINE
  8
0
 10
-8.42705
 20
93.1468
 11
-8.77733
 21
93.2855
  0
LINE
  8
0
 10
-8.77733
 20
93.2855
 11
-9.10747
 21
93.467
  0
LINE
  8
0
 10
-9.10747
 20
93.467
 11
-9.41226
 21
93.6885
  0
LINE
  8
0
 10
-9.41226
 20
93.6885
 11
-9.6869
 21
93.9464
  0
LINE
  8
0
 10
-9.6869
 20
93.9464
 11
-9.92705
 21
94.2366
  0
LINE
  8
0
 10
-9.92705
 20
94.2366
 11
-10.1289
 21
94.5547
  0
LINE
  8
0
 10
-10.1289
 20
94.5547
 11
-10.2893
 21
94.8956
  0
LINE
  8
0
 10
-10.2893
 20
94.8956
 11
-10.4057
 21
95.2539
  0
LINE
  8
0
 10
-10.4057
 20
95.2539
 11
-10.4763
 21
95.624
  0
LINE
  8
0
 10
-10.4763
 20
95.624
 11
-10.5
 21
96
  0
LINE
  8
0
 10
-10.5
 20
96
 11
-10.4763
 21
96.376
  0
LINE
  8
0
 10
-10.4763
 20
96.376
 11
-10.4057
 21
96.7461
  0
LINE
  8
0
 10
-10.4057
 20
96.7461
 11
-10.2893
 21
97.1044
  0
LINE
  8
0
 10
-10.2893
 20
97.1044
 11
-10.1289
 21
97.4453
  0
LINE
  8
0
 10
-10.1289
 20
97.4453
 11
-9.92705
 21
97.7634
  0
LINE
  8
0
 10
-9.92705
 20
97.7634
 11
-9.6869
 21
98.0536
  0
LINE
  8
0
 10
-9.6869
 20
98.0536
 11
-9.41226
 21
98.3115
  0
LINE
  8
0
 10
-9.41226
 20
98.3115
 11
-9.10747
 21
98.533
  0
LINE
  8
0
 10
-9.10747
 20
98.533
 11
-8.77733
 21
98.7145
  0
LINE
  8
0
 10
-8.77733
 20
98.7145
 11
-8.42705
 21
98.8532
  0
LINE
  8
0
 10
-8.42705
 20
98.8532
 11
-8.06213
 21
98.9469
  0
LINE
  8
0
 10
-8.06213
 20
98.9469
 11
-7.68837
 21
98.9941
  0
LINE
  8
0
 10
-7.68837
 20
98.9941
 11
-7.31161
 21
98.9941
  0
LINE
  8
0
 10
-7.31161
 20
98.9941
 11
-6.93785
 21
98.9469
  0
LINE
  8
0
 10
-6.93785
 20
98.9469
 11
-6.57294
 21
98.8532
  0
LINE
  8
0
 10
-6.57294
 20
98.8532
 11
-6.22266
 21
98.7145
  0
LINE
  8
0
 10
-6.22266
 20
98.7145
 11
-5.89252
 21
98.533
  0
LINE
  8
0
 10
-5.89252
 20
98.533
 11
-5.58772
 21
98.3115
  0
LINE
  8
0
 10
-5.58772
 20
98.3115
 11
-5.31308
 21
98.0536
  0
LINE
  8
0
 10
-5.31308
 20
98.0536
 11
-5.07294
 21
97.7634
  0
LINE
  8
0
 10
-5.07294
 20
97.7634
 11
-4.87108
 21
97.4453
  0
LINE
  8
0
 10
-4.87108
 20
97.4453
 11
-4.71066
 21
97.1044
  0
LINE
  8
0
 10
-4.71066
 20
97.1044
 11
-4.59424
 21
96.7461
  0
LINE
  8
0
 10
-4.59424
 20
96.7461
 11
-4.52365
 21
96.376
  0
LINE
  8
0
 10
-4.52365
 20
96.376
 11
-4.5
 21
96
  0
LINE
  8
0
 10
-4.5
 20
96
 11
-4.52365
 21
95.624
  0
LINE
  8
0
 10
-4.52365
 20
95.624
 11
-4.59424
 21
95.2539
  0
LINE
  8
0
 10
-4.59424
 20
95.2539
 11
-4.71066
 21
94.8956
  0
LINE
  8
0
 10
-4.71066
 20
94.8956
 11
-4.87108
 21
94.5547
  0
LINE
  8
0
 10
-4.87108
 20
94.5547
 11
-5.07294
 21
94.2366
  0
LINE
  8
0
 10
-5.07294
 20
94.2366
 11
-5.31308
 21
93.9464
  0
LINE
  8
0
 10
-5.31308
 20
93.9464
 11
-5.58772
 21
93.6885
  0
LINE
  8
0
 10
-5.58772
 20
93.6885
 11
-5.89252
 21
93.467
  0
LINE
  8
0
 10
-5.89252
 20
93.467
 11
-6.22266
 21
93.2855
  0
LINE
  8
0
 10
-6.22266
 20
93.2855
 11
-6.57294
 21
93.1468
  0
LINE
  8
0
 10
-6.57294
 20
93.1468
 11
-6.93785
 21
93.0531
  0
LINE
  8
0
 10
-6.93785
 20
93.0531
 11
-7.31161
 21
93.0059
  0
LINE
  8
0
 10
-7.31161
 20
93.0059
 11
-7.68837
 21
93.0059
  0
LINE
  8
0
 10
10.4369
 20
65.0886
 11
11.0451
 21
65.2447
  0
LINE
  8
0
 10
11.0451
 20
65.2447
 11
11.6289
 21
65.4759
  0
LINE
  8
0
 10
11.6289
 20
65.4759
 11
12.1791
 21
65.7784
  0
LINE
  8
0
 10
12.1791
 20
65.7784
 11
12.6871
 21
66.1474
  0
LINE
  8
0
 10
12.6871
 20
66.1474
 11
13.1448
 21
66.5773
  0
LINE
  8
0
 10
13.1448
 20
66.5773
 11
13.5451
 21
67.0611
  0
LINE
  8
0
 10
13.5451
 20
67.0611
 11
13.8815
 21
67.5912
  0
LINE
  8
0
 10
13.8815
 20
67.5912
 11
14.1489
 21
68.1594
  0
LINE
  8
0
 10
14.1489
 20
68.1594
 11
14.3429
 21
68.7566
  0
LINE
  8
0
 10
14.3429
 20
68.7566
 11
14.4606
 21
69.3733
  0
LINE
  8
0
 10
14.4606
 20
69.3733
 11
14.5
 21
70
  0
LINE
  8
0
 10
14.5
 20
70
 11
14.5
 21
74
  0
LINE
  8
0
 10
14.5
 20
74
 11
14.4606
 21
74.6267
  0
LINE
  8
0
 10
14.4606
 20
74.6267
 11
14.3429
 21
75.2434
  0
LINE
  8
0
 10
14.3429
 20
75.2434
 11
14.1489
 21
75.8406
  0
LINE
  8
0
 10
14.1489
 20
75.8406
 11
13.8815
 21
76.4088
  0
LINE
  8
0
 10
13.8815
 20
76.4088
 11
13.5451
 21
76.9389
  0
LINE
  8
0
 10
13.5451
 20
76.9389
 11
13.1448
 21
77.4227
  0
LINE
  8
0
 10
13.1448
 20
77.4227
 11
12.6871
 21
77.8526
  0
LINE
  8
0
 10
12.6871
 20
77.8526
 11
12.1791
 21
78.2216
  0
LINE
  8
0
 10
12.1791
 20
78.2216
 11
11.6289
 21
78.5241
  0
LINE
  8
0
 10
11.6289
 20
78.5241
 11
11.0451
 21
78.7553
  0
LINE
  8
0
 10
11.0451
 20
78.7553
 11
10.4369
 21
78.9114
  0
LINE
  8
0
 10
10.4369
 20
78.9114
 11
9.81395
 21
78.9901
  0
LINE
  8
0
 10
9.81395
 20
78.9901
 11
-9.81395
 21
78.9901
  0
LINE
  8
0
 10
-9.81395
 20
78.9901
 11
-10.4369
 21
78.9114
  0
LINE
  8
0
 10
-10.4369
 20
78.9114
 11
-11.0451
 21
78.7553
  0
LINE
  8
0
 10
-11.0451
 20
78.7553
 11
-11.6289
 21
78.5241
  0
LINE
  8
0
 10
-11.6289
 20
78.5241
 11
-12.1791
 21
78.2216
  0
LINE
  8
0
 10
-12.1791
 20
78.2216
 11
-12.6871
 21
77.8526
  0
LINE
  8
0
 10
-12.6871
 20
77.8526
 11
-13.1448
 21
77.4227
  0
LINE
  8
0
 10
-13.1448
 20
77.4227
 11
-13.5451
 21
76.9389
  0
LINE
  8
0
 10
-13.5451
 20
76.9389
 11
-13.8815
 21
76.4088
  0
LINE
  8
0
 10
-13.8815
 20
76.4088
 11
-14.1489
 21
75.8406
  0
LINE
  8
0
 10
-14.1489
 20
75.8406
 11
-14.3429
 21
75.2434
  0
LINE
  8
0
 10
-14.3429
 20
75.2434
 11
-14.4606
 21
74.6267
  0
LINE
  8
0
 10
-14.4606
 20
74.6267
 11
-14.5
 21
74
  0
LINE
  8
0
 10
-14.5
 20
74
 11
-14.5
 21
70
  0
LINE
  8
0
 10
-14.5
 20
70
 11
-14.4606
 21
69.3733
  0
LINE
  8
0
 10
-14.4606
 20
69.3733
 11
-14.3429
 21
68.7566
  0
LINE
  8
0
 10
-14.3429
 20
68.7566
 11
-14.1489
 21
68.1594
  0
LINE
  8
0
 10
-14.1489
 20
68.1594
 11
-13.8815
 21
67.5912
  0
LINE
  8
0
 10
-13.8815
 20
67.5912
 11
-13.5451
 21
67.0611
  0
LINE
  8
0
 10
-13.5451
 20
67.0611
 11
-13.1448
 21
66.5773
  0
LINE
  8
0
 10
-13.1448
 20
66.5773
 11
-12.6871
 21
66.1474
  0
LINE
  8
0
 10
-12.6871
 20
66.1474
 11
-12.1791
 21
65.7784
  0
LINE
  8
0
 10
-12.1791
 20
65.7784
 11
-11.6289
 21
65.4759
  0
LINE
  8
0
 10
-11.6289
 20
65.4759
 11
-11.0451
 21
65.2447
  0
LINE
  8
0
 10
-11.0451
 20
65.2447
 11
-10.4369
 21
65.0886
  0
LINE
  8
0
 10
-10.4369
 20
65.0886
 11
-9.81395
 21
65.0099
  0
LINE
  8
0
 10
-9.81395
 20
65.0099
 11
9.81395
 21
65.0099
  0
LINE
  8
0
 10
9.81395
 20
65.0099
 11
10.4369
 21
65.0886
  0
LINE
  8
0
 10
7.31161
 20
69.0059
 11
6.93785
 21
69.0531
  0
LINE
  8
0
 10
6.93785
 20
69.0531
 11
6.57294
 21
69.1468
  0
LINE
  8
0
 10
6.57294
 20
69.1468
 11
6.22266
 21
69.2855
  0
LINE
  8
0
 10
6.22266
 20
69.2855
 11
5.89252
 21
69.467
  0
LINE
  8
0
 10
5.89252
 20
69.467
 11
5.58772
 21
69.6885
  0
LINE
  8
0
 10
5.58772
 20
69.6885
 11
5.31308
 21
69.9464
  0
LINE
  8
0
 10
5.31308
 20
69.9464
 11
5.07294
 21
70.2366
  0
LINE
  8
0
 10
5.07294
 20
70.2366
 11
4.87108
 21
70.5547
  0
LINE
  8
0
 10
4.87108
 20
70.5547
 11
4.71066
 21
70.8956
  0
LINE
  8
0
 10
4.71066
 20
70.8956
 11
4.59424
 21
71.2539
  0
LINE
  8
0
 10
4.59424
 20
71.2539
 11
4.52365
 21
71.624
  0
LINE
  8
0
 10
4.52365
 20
71.624
 11
4.5
 21
72
  0
LINE
  8
0
 10
4.5
 20
72
 11
4.52365
 21
72.376
  0
LINE
  8
0
 10
4.52365
 20
72.376
 11
4.59424
 21
72.7461
  0
LINE
  8
0
 10
4.59424
 20
72.7461
 11
4.71066
 21
73.1044
  0
LINE
  8
0
 10
4.71066
 20
73.1044
 11
4.87108
 21
73.4453
  0
LINE
  8
0
 10
4.87108
 20
73.4453
 11
5.07294
 21
73.7634
  0
LINE
  8
0
 10
5.07294
 20
73.7634
 11
5.31308
 21
74.0536
  0
LINE
  8
0
 10
5.31308
 20
74.0536
 11
5.58772
 21
74.3115
  0
LINE
  8
0
 10
5.58772
 20
74.3115
 11
5.89252
 21
74.533
  0
LINE
  8
0
 10
5.89252
 20
74.533
 11
6.22266
 21
74.7145
  0
LINE
  8
0
 10
6.22266
 20
74.7145
 11
6.57294
 21
74.8532
  0
LINE
  8
0
 10
6.57294
 20
74.8532
 11
6.93785
 21
74.9469
  0
LINE
  8
0
 10
6.93785
 20
74.9469
 11
7.31161
 21
74.9941
  0
LINE
  8
0
 10
7.31161
 20
74.9941
 11
7.68837
 21
74.9941
  0
LINE
  8
0
 10
7.68837
 20
74.9941
 11
8.06213
 21
74.9469
  0
LINE
  8
0
 10
8.06213
 20
74.9469
 11
8.42705
 21
74.8532
  0
LINE
  8
0
 10
8.42705
 20
74.8532
 11
8.77733
 21
74.7145
  0
LINE
  8
0
 10
8.77733
 20
74.7145
 11
9.10747
 21
74.533
  0
LINE
  8
0
 10
9.10747
 20
74.533
 11
9.41226
 21
74.3115
  0
LINE
  8
0
 10
9.41226
 20
74.3115
 11
9.6869
 21
74.0536
  0
LINE
  8
0
 10
9.6869
 20
74.0536
 11
9.92705
 21
73.7634
  0
LINE
  8
0
 10
9.92705
 20
73.7634
 11
10.1289
 21
73.4453
  0
LINE
  8
0
 10
10.1289
 20
73.4453
 11
10.2893
 21
73.1044
  0
LINE
  8
0
 10
10.2893
 20
73.1044
 11
10.4057
 21
72.7461
  0
LINE
  8
0
 10
10.4057
 20
72.7461
 11
10.4763
 21
72.376
  0
LINE
  8
0
 10
10.4763
 20
72.376
 11
10.5
 21
72
  0
LINE
  8
0
 10
10.5
 20
72
 11
10.4763
 21
71.624
  0
LINE
  8
0
 10
10.4763
 20
71.624
 11
10.4057
 21
71.2539
  0
LINE
  8
0
 10
10.4057
 20
71.2539
 11
10.2893
 21
70.8956
  0
LINE
  8
0
 10
10.2893
 20
70.8956
 11
10.1289
 21
70.5547
  0
LINE
  8
0
 10
10.1289
 20
70.5547
 11
9.92705
 21
70.2366
  0
LINE
  8
0
 10
9.92705
 20
70.2366
 11
9.6869
 21
69.9464
  0
LINE
  8
0
 10
9.6869
 20
69.9464
 11
9.41226
 21
69.6885
  0
LINE
  8
0
 10
9.41226
 20
69.6885
 11
9.10747
 21
69.467
  0
LINE
  8
0
 10
9.10747
 20
69.467
 11
8.77733
 21
69.2855
  0
LINE
  8
0
 10
8.77733
 20
69.2855
 11
8.42705
 21
69.1468
  0
LINE
  8
0
 10
8.42705
 20
69.1468
 11
8.06213
 21
69.0531
  0
LINE
  8
0
 10
8.06213
 20
69.0531
 11
7.68837
 21
69.0059
  0
LINE
  8
0
 10
7.68837
 20
69.0059
 11
7.31161
 21
69.0059
  0
LINE
  8
0
 10
-7.68837
 20
69.0059
 11
-8.06213
 21
69.0531
  0
LINE
  8
0
 10
-8.06213
 20
69.0531
 11
-8.42705
 21
69.1468
  0
LINE
  8
0
 10
-8.42705
 20
69.1468
 11
-8.77733
 21
69.2855
  0
LINE
  8
0
 10
-8.77733
 20
69.2855
 11
-9.10747
 21
69.467
  0
LINE
  8
0
 10
-9.10747
 20
69.467
 11
-9.41226
 21
69.6885
  0
LINE
  8
0
 10
-9.41226
 20
69.6885
 11
-9.6869
 21
69.9464
  0
LINE
  8
0
 10
-9.6869
 20
69.9464
 11
-9.92705
 21
70.2366
  0
LINE
  8
0
 10
-9.92705
 20
70.2366
 11
-10.1289
 21
70.5547
  0
LINE
  8
0
 10
-10.1289
 20
70.5547
 11
-10.2893
 21
70.8956
  0
LINE
  8
0
 10
-10.2893
 20
70.8956
 11
-10.4057
 21
71.2539
  0
LINE
  8
0
 10
-10.4057
 20
71.2539
 11
-10.4763
 21
71.624
  0
LINE
  8
0
 10
-10.4763
 20
71.624
 11
-10.5
 21
72
  0
LINE
  8
0
 10
-10.5
 20
72
 11
-10.4763
 21
72.376
  0
LINE
  8
0
 10
-10.4763
 20
72.376
 11
-10.4057
 21
72.7461
  0
LINE
  8
0
 10
-10.4057
 20
72.7461
 11
-10.2893
 21
73.1044
  0
LINE
  8
0
 10
-10.2893
 20
73.1044
 11
-10.1289
 21
73.4453
  0
LINE
  8
0
 10
-10.1289
 20
73.4453
 11
-9.92705
 21
73.7634
  0
LINE
  8
0
 10
-9.92705
 20
73.7634
 11
-9.6869
 21
74.0536
  0
LINE
  8
0
 10
-9.6869
 20
74.0536
 11
-9.41226
 21
74.3115
  0
LINE
  8
0
 10
-9.41226
 20
74.3115
 11
-9.10747
 21
74.533
  0
LINE
  8
0
 10
-9.10747
 20
74.533
 11
-8.77733
 21
74.7145
  0
LINE
  8
0
 10
-8.77733
 20
74.7145
 11
-8.42705
 21
74.8532
  0
LINE
  8
0
 10
-8.42705
 20
74.8532
 11
-8.06213
 21
74.9469
  0
LINE
  8
0
 10
-8.06213
 20
74.9469
 11
-7.68837
 21
74.9941
  0
LINE
  8
0
 10
-7.68837
 20
74.9941
 11
-7.31161
 21
74.9941
  0
LINE
  8
0
 10
-7.31161
 20
74.9941
 11
-6.93785
 21
74.9469
  0
LINE
  8
0
 10
-6.93785
 20
74.9469
 11
-6.57294
 21
74.8532
  0
LINE
  8
0
 10
-6.57294
 20
74.8532
 11
-6.22266
 21
74.7145
  0
LINE
  8
0
 10
-6.22266
 20
74.7145
 11
-5.89252
 21
74.533
  0
LINE
  8
0
 10
-5.89252
 20
74.533
 11
-5.58772
 21
74.3115
  0
LINE
  8
0
 10
-5.58772
 20
74.3115
 11
-5.31308
 21
74.0536
  0
LINE
  8
0
 10
-5.31308
 20
74.0536
 11
-5.07294
 21
73.7634
  0
LINE
  8
0
 10
-5.07294
 20
73.7634
 11
-4.87108
 21
73.4453
  0
LINE
  8
0
 10
-4.87108
 20
73.4453
 11
-4.71066
 21
73.1044
  0
LINE
  8
0
 10
-4.71066
 20
73.1044
 11
-4.59424
 21
72.7461
  0
LINE
  8
0
 10
-4.59424
 20
72.7461
 11
-4.52365
 21
72.376
  0
LINE
  8
0
 10
-4.52365
 20
72.376
 11
-4.5
 21
72
  0
LINE
  8
0
 10
-4.5
 20
72
 11
-4.52365
 21
71.624
  0
LINE
  8
0
 10
-4.52365
 20
71.624
 11
-4.59424
 21
71.2539
  0
LINE
  8
0
 10
-4.59424
 20
71.2539
 11
-4.71066
 21
70.8956
  0
LINE
  8
0
 10
-4.71066
 20
70.8956
 11
-4.87108
 21
70.5547
  0
LINE
  8
0
 10
-4.87108
 20
70.5547
 11
-5.07294
 21
70.2366
  0
LINE
  8
0
 10
-5.07294
 20
70.2366
 11
-5.31308
 21
69.9464
  0
LINE
  8
0
 10
-5.31308
 20
69.9464
 11
-5.58772
 21
69.6885
  0
LINE
  8
0
 10
-5.58772
 20
69.6885
 11
-5.89252
 21
69.467
  0
LINE
  8
0
 10
-5.89252
 20
69.467
 11
-6.22266
 21
69.2855
  0
LINE
  8
0
 10
-6.22266
 20
69.2855
 11
-6.57294
 21
69.1468
  0
LINE
  8
0
 10
-6.57294
 20
69.1468
 11
-6.93785
 21
69.0531
  0
LINE
  8
0
 10
-6.93785
 20
69.0531
 11
-7.31161
 21
69.0059
  0
LINE
  8
0
 10
-7.31161
 20
69.0059
 11
-7.68837
 21
69.0059
  0
ENDSEC
  0
SECTION
  2
OBJECTS
  0
DICTIONARY
  0
ENDSEC
  0
EOF
