  0
SECTION
  2
BLOCKS
  0
ENDSEC
  0
SECTION
  2
ENTITIES
  0
LINE
  8
0
 10
137.937
 20
-141.911
 11
138.545
 21
-141.755
  0
LINE
  8
0
 10
138.545
 20
-141.755
 11
139.129
 21
-141.524
  0
LINE
  8
0
 10
139.129
 20
-141.524
 11
139.679
 21
-141.222
  0
LINE
  8
0
 10
139.679
 20
-141.222
 11
140.187
 21
-140.853
  0
LINE
  8
0
 10
140.187
 20
-140.853
 11
140.645
 21
-140.423
  0
LINE
  8
0
 10
140.645
 20
-140.423
 11
141.045
 21
-139.939
  0
LINE
  8
0
 10
141.045
 20
-139.939
 11
141.382
 21
-139.409
  0
LINE
  8
0
 10
141.382
 20
-139.409
 11
141.649
 21
-138.841
  0
LINE
  8
0
 10
141.649
 20
-138.841
 11
141.843
 21
-138.243
  0
LINE
  8
0
 10
141.843
 20
-138.243
 11
141.961
 21
-137.627
  0
LINE
  8
0
 10
141.961
 20
-137.627
 11
142
 21
-137
  0
LINE
  8
0
 10
142
 20
-137
 11
142
 21
137
  0
LINE
  8
0
 10
142
 20
137
 11
141.961
 21
137.627
  0
LINE
  8
0
 10
141.961
 20
137.627
 11
141.843
 21
138.243
  0
LINE
  8
0
 10
141.843
 20
138.243
 11
141.649
 21
138.841
  0
LINE
  8
0
 10
141.649
 20
138.841
 11
141.382
 21
139.409
  0
LINE
  8
0
 10
141.382
 20
139.409
 11
141.045
 21
139.939
  0
LINE
  8
0
 10
141.045
 20
139.939
 11
140.645
 21
140.423
  0
LINE
  8
0
 10
140.645
 20
140.423
 11
140.187
 21
140.853
  0
LINE
  8
0
 10
140.187
 20
140.853
 11
139.679
 21
141.222
  0
LINE
  8
0
 10
139.679
 20
141.222
 11
139.129
 21
141.524
  0
LINE
  8
0
 10
139.129
 20
141.524
 11
138.545
 21
141.755
  0
LINE
  8
0
 10
138.545
 20
141.755
 11
137.937
 21
141.911
  0
LINE
  8
0
 10
137.937
 20
141.911
 11
137.314
 21
141.99
  0
LINE
  8
0
 10
137.314
 20
141.99
 11
-137.314
 21
141.99
  0
LINE
  8
0
 10
-137.314
 20
141.99
 11
-137.937
 21
141.911
  0
LINE
  8
0
 10
-137.937
 20
141.911
 11
-138.545
 21
141.755
  0
LINE
  8
0
 10
-138.545
 20
141.755
 11
-139.129
 21
141.524
  0
LINE
  8
0
 10
-139.129
 20
141.524
 11
-139.679
 21
141.222
  0
LINE
  8
0
 10
-139.679
 20
141.222
 11
-140.187
 21
140.853
  0
LINE
  8
0
 10
-140.187
 20
140.853
 11
-140.645
 21
140.423
  0
LINE
  8
0
 10
-140.645
 20
140.423
 11
-141.045
 21
139.939
  0
LINE
  8
0
 10
-141.045
 20
139.939
 11
-141.382
 21
139.409
  0
LINE
  8
0
 10
-141.382
 20
139.409
 11
-141.649
 21
138.841
  0
LINE
  8
0
 10
-141.649
 20
138.841
 11
-141.843
 21
138.243
  0
LINE
  8
0
 10
-141.843
 20
138.243
 11
-141.961
 21
137.627
  0
LINE
  8
0
 10
-141.961
 20
137.627
 11
-142
 21
137
  0
LINE
  8
0
 10
-142
 20
137
 11
-142
 21
-137
  0
LINE
  8
0
 10
-142
 20
-137
 11
-141.961
 21
-137.627
  0
LINE
  8
0
 10
-141.961
 20
-137.627
 11
-141.843
 21
-138.243
  0
LINE
  8
0
 10
-141.843
 20
-138.243
 11
-141.649
 21
-138.841
  0
LINE
  8
0
 10
-141.649
 20
-138.841
 11
-141.382
 21
-139.409
  0
LINE
  8
0
 10
-141.382
 20
-139.409
 11
-141.045
 21
-139.939
  0
LINE
  8
0
 10
-141.045
 20
-139.939
 11
-140.645
 21
-140.423
  0
LINE
  8
0
 10
-140.645
 20
-140.423
 11
-140.187
 21
-140.853
  0
LINE
  8
0
 10
-140.187
 20
-140.853
 11
-139.679
 21
-141.222
  0
LINE
  8
0
 10
-139.679
 20
-141.222
 11
-139.129
 21
-141.524
  0
LINE
  8
0
 10
-139.129
 20
-141.524
 11
-138.545
 21
-141.755
  0
LINE
  8
0
 10
-138.545
 20
-141.755
 11
-137.937
 21
-141.911
  0
LINE
  8
0
 10
-137.937
 20
-141.911
 11
-137.314
 21
-141.99
  0
LINE
  8
0
 10
-137.314
 20
-141.99
 11
137.314
 21
-141.99
  0
LINE
  8
0
 10
137.314
 20
-141.99
 11
137.937
 21
-141.911
  0
LINE
  8
0
 10
134.812
 20
132.006
 11
134.438
 21
132.053
  0
LINE
  8
0
 10
134.438
 20
132.053
 11
134.073
 21
132.147
  0
LINE
  8
0
 10
134.073
 20
132.147
 11
133.723
 21
132.286
  0
LINE
  8
0
 10
133.723
 20
132.286
 11
133.393
 21
132.467
  0
LINE
  8
0
 10
133.393
 20
132.467
 11
133.088
 21
132.688
  0
LINE
  8
0
 10
133.088
 20
132.688
 11
132.813
 21
132.946
  0
LINE
  8
0
 10
132.813
 20
132.946
 11
132.573
 21
133.237
  0
LINE
  8
0
 10
132.573
 20
133.237
 11
132.371
 21
133.555
  0
LINE
  8
0
 10
132.371
 20
133.555
 11
132.211
 21
133.896
  0
LINE
  8
0
 10
132.211
 20
133.896
 11
132.094
 21
134.254
  0
LINE
  8
0
 10
132.094
 20
134.254
 11
132.024
 21
134.624
  0
LINE
  8
0
 10
132.024
 20
134.624
 11
132
 21
135
  0
LINE
  8
0
 10
132
 20
135
 11
132.024
 21
135.376
  0
LINE
  8
0
 10
132.024
 20
135.376
 11
132.094
 21
135.746
  0
LINE
  8
0
 10
132.094
 20
135.746
 11
132.211
 21
136.104
  0
LINE
  8
0
 10
132.211
 20
136.104
 11
132.371
 21
136.445
  0
LINE
  8
0
 10
132.371
 20
136.445
 11
132.573
 21
136.763
  0
LINE
  8
0
 10
132.573
 20
136.763
 11
132.813
 21
137.054
  0
LINE
  8
0
 10
132.813
 20
137.054
 11
133.088
 21
137.312
  0
LINE
  8
0
 10
133.088
 20
137.312
 11
133.393
 21
137.533
  0
LINE
  8
0
 10
133.393
 20
137.533
 11
133.723
 21
137.714
  0
LINE
  8
0
 10
133.723
 20
137.714
 11
134.073
 21
137.853
  0
LINE
  8
0
 10
134.073
 20
137.853
 11
134.438
 21
137.947
  0
LINE
  8
0
 10
134.438
 20
137.947
 11
134.812
 21
137.994
  0
LINE
  8
0
 10
134.812
 20
137.994
 11
135.188
 21
137.994
  0
LINE
  8
0
 10
135.188
 20
137.994
 11
135.562
 21
137.947
  0
LINE
  8
0
 10
135.562
 20
137.947
 11
135.927
 21
137.853
  0
LINE
  8
0
 10
135.927
 20
137.853
 11
136.277
 21
137.714
  0
LINE
  8
0
 10
136.277
 20
137.714
 11
136.607
 21
137.533
  0
LINE
  8
0
 10
136.607
 20
137.533
 11
136.912
 21
137.312
  0
LINE
  8
0
 10
136.912
 20
137.312
 11
137.187
 21
137.054
  0
LINE
  8
0
 10
137.187
 20
137.054
 11
137.427
 21
136.763
  0
LINE
  8
0
 10
137.427
 20
136.763
 11
137.629
 21
136.445
  0
LINE
  8
0
 10
137.629
 20
136.445
 11
137.789
 21
136.104
  0
LINE
  8
0
 10
137.789
 20
136.104
 11
137.906
 21
135.746
  0
LINE
  8
0
 10
137.906
 20
135.746
 11
137.976
 21
135.376
  0
LINE
  8
0
 10
137.976
 20
135.376
 11
138
 21
135
  0
LINE
  8
0
 10
138
 20
135
 11
137.976
 21
134.624
  0
LINE
  8
0
 10
137.976
 20
134.624
 11
137.906
 21
134.254
  0
LINE
  8
0
 10
137.906
 20
134.254
 11
137.789
 21
133.896
  0
LINE
  8
0
 10
137.789
 20
133.896
 11
137.629
 21
133.555
  0
LINE
  8
0
 10
137.629
 20
133.555
 11
137.427
 21
133.237
  0
LINE
  8
0
 10
137.427
 20
133.237
 11
137.187
 21
132.946
  0
LINE
  8
0
 10
137.187
 20
132.946
 11
136.912
 21
132.688
  0
LINE
  8
0
 10
136.912
 20
132.688
 11
136.607
 21
132.467
  0
LINE
  8
0
 10
136.607
 20
132.467
 11
136.277
 21
132.286
  0
LINE
  8
0
 10
136.277
 20
132.286
 11
135.927
 21
132.147
  0
LINE
  8
0
 10
135.927
 20
132.147
 11
135.562
 21
132.053
  0
LINE
  8
0
 10
135.562
 20
132.053
 11
135.188
 21
132.006
  0
LINE
  8
0
 10
135.188
 20
132.006
 11
134.812
 21
132.006
  0
LINE
  8
0
 10
-135.188
 20
132.006
 11
-135.562
 21
132.053
  0
LINE
  8
0
 10
-135.562
 20
132.053
 11
-135.927
 21
132.147
  0
LINE
  8
0
 10
-135.927
 20
132.147
 11
-136.277
 21
132.286
  0
LINE
  8
0
 10
-136.277
 20
132.286
 11
-136.607
 21
132.467
  0
LINE
  8
0
 10
-136.607
 20
132.467
 11
-136.912
 21
132.688
  0
LINE
  8
0
 10
-136.912
 20
132.688
 11
-137.187
 21
132.946
  0
LINE
  8
0
 10
-137.187
 20
132.946
 11
-137.427
 21
133.237
  0
LINE
  8
0
 10
-137.427
 20
133.237
 11
-137.629
 21
133.555
  0
LINE
  8
0
 10
-137.629
 20
133.555
 11
-137.789
 21
133.896
  0
LINE
  8
0
 10
-137.789
 20
133.896
 11
-137.906
 21
134.254
  0
LINE
  8
0
 10
-137.906
 20
134.254
 11
-137.976
 21
134.624
  0
LINE
  8
0
 10
-137.976
 20
134.624
 11
-138
 21
135
  0
LINE
  8
0
 10
-138
 20
135
 11
-137.976
 21
135.376
  0
LINE
  8
0
 10
-137.976
 20
135.376
 11
-137.906
 21
135.746
  0
LINE
  8
0
 10
-137.906
 20
135.746
 11
-137.789
 21
136.104
  0
LINE
  8
0
 10
-137.789
 20
136.104
 11
-137.629
 21
136.445
  0
LINE
  8
0
 10
-137.629
 20
136.445
 11
-137.427
 21
136.763
  0
LINE
  8
0
 10
-137.427
 20
136.763
 11
-137.187
 21
137.054
  0
LINE
  8
0
 10
-137.187
 20
137.054
 11
-136.912
 21
137.312
  0
LINE
  8
0
 10
-136.912
 20
137.312
 11
-136.607
 21
137.533
  0
LINE
  8
0
 10
-136.607
 20
137.533
 11
-136.277
 21
137.714
  0
LINE
  8
0
 10
-136.277
 20
137.714
 11
-135.927
 21
137.853
  0
LINE
  8
0
 10
-135.927
 20
137.853
 11
-135.562
 21
137.947
  0
LINE
  8
0
 10
-135.562
 20
137.947
 11
-135.188
 21
137.994
  0
LINE
  8
0
 10
-135.188
 20
137.994
 11
-134.812
 21
137.994
  0
LINE
  8
0
 10
-134.812
 20
137.994
 11
-134.438
 21
137.947
  0
LINE
  8
0
 10
-134.438
 20
137.947
 11
-134.073
 21
137.853
  0
LINE
  8
0
 10
-134.073
 20
137.853
 11
-133.723
 21
137.714
  0
LINE
  8
0
 10
-133.723
 20
137.714
 11
-133.393
 21
137.533
  0
LINE
  8
0
 10
-133.393
 20
137.533
 11
-133.088
 21
137.312
  0
LINE
  8
0
 10
-133.088
 20
137.312
 11
-132.813
 21
137.054
  0
LINE
  8
0
 10
-132.813
 20
137.054
 11
-132.573
 21
136.763
  0
LINE
  8
0
 10
-132.573
 20
136.763
 11
-132.371
 21
136.445
  0
LINE
  8
0
 10
-132.371
 20
136.445
 11
-132.211
 21
136.104
  0
LINE
  8
0
 10
-132.211
 20
136.104
 11
-132.094
 21
135.746
  0
LINE
  8
0
 10
-132.094
 20
135.746
 11
-132.024
 21
135.376
  0
LINE
  8
0
 10
-132.024
 20
135.376
 11
-132
 21
135
  0
LINE
  8
0
 10
-132
 20
135
 11
-132.024
 21
134.624
  0
LINE
  8
0
 10
-132.024
 20
134.624
 11
-132.094
 21
134.254
  0
LINE
  8
0
 10
-132.094
 20
134.254
 11
-132.211
 21
133.896
  0
LINE
  8
0
 10
-132.211
 20
133.896
 11
-132.371
 21
133.555
  0
LINE
  8
0
 10
-132.371
 20
133.555
 11
-132.573
 21
133.237
  0
LINE
  8
0
 10
-132.573
 20
133.237
 11
-132.813
 21
132.946
  0
LINE
  8
0
 10
-132.813
 20
132.946
 11
-133.088
 21
132.688
  0
LINE
  8
0
 10
-133.088
 20
132.688
 11
-133.393
 21
132.467
  0
LINE
  8
0
 10
-133.393
 20
132.467
 11
-133.723
 21
132.286
  0
LINE
  8
0
 10
-133.723
 20
132.286
 11
-134.073
 21
132.147
  0
LINE
  8
0
 10
-134.073
 20
132.147
 11
-134.438
 21
132.053
  0
LINE
  8
0
 10
-134.438
 20
132.053
 11
-134.812
 21
132.006
  0
LINE
  8
0
 10
-134.812
 20
132.006
 11
-135.188
 21
132.006
  0
LINE
  8
0
 10
134.812
 20
-137.994
 11
134.438
 21
-137.947
  0
LINE
  8
0
 10
134.438
 20
-137.947
 11
134.073
 21
-137.853
  0
LINE
  8
0
 10
134.073
 20
-137.853
 11
133.723
 21
-137.714
  0
LINE
  8
0
 10
133.723
 20
-137.714
 11
133.393
 21
-137.533
  0
LINE
  8
0
 10
133.393
 20
-137.533
 11
133.088
 21
-137.312
  0
LINE
  8
0
 10
133.088
 20
-137.312
 11
132.813
 21
-137.054
  0
LINE
  8
0
 10
132.813
 20
-137.054
 11
132.573
 21
-136.763
  0
LINE
  8
0
 10
132.573
 20
-136.763
 11
132.371
 21
-136.445
  0
LINE
  8
0
 10
132.371
 20
-136.445
 11
132.211
 21
-136.104
  0
LINE
  8
0
 10
132.211
 20
-136.104
 11
132.094
 21
-135.746
  0
LINE
  8
0
 10
132.094
 20
-135.746
 11
132.024
 21
-135.376
  0
LINE
  8
0
 10
132.024
 20
-135.376
 11
132
 21
-135
  0
LINE
  8
0
 10
132
 20
-135
 11
132.024
 21
-134.624
  0
LINE
  8
0
 10
132.024
 20
-134.624
 11
132.094
 21
-134.254
  0
LINE
  8
0
 10
132.094
 20
-134.254
 11
132.211
 21
-133.896
  0
LINE
  8
0
 10
132.211
 20
-133.896
 11
132.371
 21
-133.555
  0
LINE
  8
0
 10
132.371
 20
-133.555
 11
132.573
 21
-133.237
  0
LINE
  8
0
 10
132.573
 20
-133.237
 11
132.813
 21
-132.946
  0
LINE
  8
0
 10
132.813
 20
-132.946
 11
133.088
 21
-132.688
  0
LINE
  8
0
 10
133.088
 20
-132.688
 11
133.393
 21
-132.467
  0
LINE
  8
0
 10
133.393
 20
-132.467
 11
133.723
 21
-132.286
  0
LINE
  8
0
 10
133.723
 20
-132.286
 11
134.073
 21
-132.147
  0
LINE
  8
0
 10
134.073
 20
-132.147
 11
134.438
 21
-132.053
  0
LINE
  8
0
 10
134.438
 20
-132.053
 11
134.812
 21
-132.006
  0
LINE
  8
0
 10
134.812
 20
-132.006
 11
135.188
 21
-132.006
  0
LINE
  8
0
 10
135.188
 20
-132.006
 11
135.562
 21
-132.053
  0
LINE
  8
0
 10
135.562
 20
-132.053
 11
135.927
 21
-132.147
  0
LINE
  8
0
 10
135.927
 20
-132.147
 11
136.277
 21
-132.286
  0
LINE
  8
0
 10
136.277
 20
-132.286
 11
136.607
 21
-132.467
  0
LINE
  8
0
 10
136.607
 20
-132.467
 11
136.912
 21
-132.688
  0
LINE
  8
0
 10
136.912
 20
-132.688
 11
137.187
 21
-132.946
  0
LINE
  8
0
 10
137.187
 20
-132.946
 11
137.427
 21
-133.237
  0
LINE
  8
0
 10
137.427
 20
-133.237
 11
137.629
 21
-133.555
  0
LINE
  8
0
 10
137.629
 20
-133.555
 11
137.789
 21
-133.896
  0
LINE
  8
0
 10
137.789
 20
-133.896
 11
137.906
 21
-134.254
  0
LINE
  8
0
 10
137.906
 20
-134.254
 11
137.976
 21
-134.624
  0
LINE
  8
0
 10
137.976
 20
-134.624
 11
138
 21
-135
  0
LINE
  8
0
 10
138
 20
-135
 11
137.976
 21
-135.376
  0
LINE
  8
0
 10
137.976
 20
-135.376
 11
137.906
 21
-135.746
  0
LINE
  8
0
 10
137.906
 20
-135.746
 11
137.789
 21
-136.104
  0
LINE
  8
0
 10
137.789
 20
-136.104
 11
137.629
 21
-136.445
  0
LINE
  8
0
 10
137.629
 20
-136.445
 11
137.427
 21
-136.763
  0
LINE
  8
0
 10
137.427
 20
-136.763
 11
137.187
 21
-137.054
  0
LINE
  8
0
 10
137.187
 20
-137.054
 11
136.912
 21
-137.312
  0
LINE
  8
0
 10
136.912
 20
-137.312
 11
136.607
 21
-137.533
  0
LINE
  8
0
 10
136.607
 20
-137.533
 11
136.277
 21
-137.714
  0
LINE
  8
0
 10
136.277
 20
-137.714
 11
135.927
 21
-137.853
  0
LINE
  8
0
 10
135.927
 20
-137.853
 11
135.562
 21
-137.947
  0
LINE
  8
0
 10
135.562
 20
-137.947
 11
135.188
 21
-137.994
  0
LINE
  8
0
 10
135.188
 20
-137.994
 11
134.812
 21
-137.994
  0
LINE
  8
0
 10
-135.188
 20
-137.994
 11
-135.562
 21
-137.947
  0
LINE
  8
0
 10
-135.562
 20
-137.947
 11
-135.927
 21
-137.853
  0
LINE
  8
0
 10
-135.927
 20
-137.853
 11
-136.277
 21
-137.714
  0
LINE
  8
0
 10
-136.277
 20
-137.714
 11
-136.607
 21
-137.533
  0
LINE
  8
0
 10
-136.607
 20
-137.533
 11
-136.912
 21
-137.312
  0
LINE
  8
0
 10
-136.912
 20
-137.312
 11
-137.187
 21
-137.054
  0
LINE
  8
0
 10
-137.187
 20
-137.054
 11
-137.427
 21
-136.763
  0
LINE
  8
0
 10
-137.427
 20
-136.763
 11
-137.629
 21
-136.445
  0
LINE
  8
0
 10
-137.629
 20
-136.445
 11
-137.789
 21
-136.104
  0
LINE
  8
0
 10
-137.789
 20
-136.104
 11
-137.906
 21
-135.746
  0
LINE
  8
0
 10
-137.906
 20
-135.746
 11
-137.976
 21
-135.376
  0
LINE
  8
0
 10
-137.976
 20
-135.376
 11
-138
 21
-135
  0
LINE
  8
0
 10
-138
 20
-135
 11
-137.976
 21
-134.624
  0
LINE
  8
0
 10
-137.976
 20
-134.624
 11
-137.906
 21
-134.254
  0
LINE
  8
0
 10
-137.906
 20
-134.254
 11
-137.789
 21
-133.896
  0
LINE
  8
0
 10
-137.789
 20
-133.896
 11
-137.629
 21
-133.555
  0
LINE
  8
0
 10
-137.629
 20
-133.555
 11
-137.427
 21
-133.237
  0
LINE
  8
0
 10
-137.427
 20
-133.237
 11
-137.187
 21
-132.946
  0
LINE
  8
0
 10
-137.187
 20
-132.946
 11
-136.912
 21
-132.688
  0
LINE
  8
0
 10
-136.912
 20
-132.688
 11
-136.607
 21
-132.467
  0
LINE
  8
0
 10
-136.607
 20
-132.467
 11
-136.277
 21
-132.286
  0
LINE
  8
0
 10
-136.277
 20
-132.286
 11
-135.927
 21
-132.147
  0
LINE
  8
0
 10
-135.927
 20
-132.147
 11
-135.562
 21
-132.053
  0
LINE
  8
0
 10
-135.562
 20
-132.053
 11
-135.188
 21
-132.006
  0
LINE
  8
0
 10
-135.188
 20
-132.006
 11
-134.812
 21
-132.006
  0
LINE
  8
0
 10
-134.812
 20
-132.006
 11
-134.438
 21
-132.053
  0
LINE
  8
0
 10
-134.438
 20
-132.053
 11
-134.073
 21
-132.147
  0
LINE
  8
0
 10
-134.073
 20
-132.147
 11
-133.723
 21
-132.286
  0
LINE
  8
0
 10
-133.723
 20
-132.286
 11
-133.393
 21
-132.467
  0
LINE
  8
0
 10
-133.393
 20
-132.467
 11
-133.088
 21
-132.688
  0
LINE
  8
0
 10
-133.088
 20
-132.688
 11
-132.813
 21
-132.946
  0
LINE
  8
0
 10
-132.813
 20
-132.946
 11
-132.573
 21
-133.237
  0
LINE
  8
0
 10
-132.573
 20
-133.237
 11
-132.371
 21
-133.555
  0
LINE
  8
0
 10
-132.371
 20
-133.555
 11
-132.211
 21
-133.896
  0
LINE
  8
0
 10
-132.211
 20
-133.896
 11
-132.094
 21
-134.254
  0
LINE
  8
0
 10
-132.094
 20
-134.254
 11
-132.024
 21
-134.624
  0
LINE
  8
0
 10
-132.024
 20
-134.624
 11
-132
 21
-135
  0
LINE
  8
0
 10
-132
 20
-135
 11
-132.024
 21
-135.376
  0
LINE
  8
0
 10
-132.024
 20
-135.376
 11
-132.094
 21
-135.746
  0
LINE
  8
0
 10
-132.094
 20
-135.746
 11
-132.211
 21
-136.104
  0
LINE
  8
0
 10
-132.211
 20
-136.104
 11
-132.371
 21
-136.445
  0
LINE
  8
0
 10
-132.371
 20
-136.445
 11
-132.573
 21
-136.763
  0
LINE
  8
0
 10
-132.573
 20
-136.763
 11
-132.813
 21
-137.054
  0
LINE
  8
0
 10
-132.813
 20
-137.054
 11
-133.088
 21
-137.312
  0
LINE
  8
0
 10
-133.088
 20
-137.312
 11
-133.393
 21
-137.533
  0
LINE
  8
0
 10
-133.393
 20
-137.533
 11
-133.723
 21
-137.714
  0
LINE
  8
0
 10
-133.723
 20
-137.714
 11
-134.073
 21
-137.853
  0
LINE
  8
0
 10
-134.073
 20
-137.853
 11
-134.438
 21
-137.947
  0
LINE
  8
0
 10
-134.438
 20
-137.947
 11
-134.812
 21
-137.994
  0
LINE
  8
0
 10
-134.812
 20
-137.994
 11
-135.188
 21
-137.994
  0
ENDSEC
  0
SECTION
  2
OBJECTS
  0
DICTIONARY
  0
ENDSEC
  0
EOF
