  0
SECTION
  2
BLOCKS
  0
ENDSEC
  0
SECTION
  2
ENTITIES
  0
LINE
  8
0
 10
40.4369
 20
194.089
 11
41.0451
 21
194.245
  0
LINE
  8
0
 10
41.0451
 20
194.245
 11
41.6289
 21
194.476
  0
LINE
  8
0
 10
41.6289
 20
194.476
 11
42.1791
 21
194.778
  0
LINE
  8
0
 10
42.1791
 20
194.778
 11
42.6871
 21
195.147
  0
LINE
  8
0
 10
42.6871
 20
195.147
 11
43.1448
 21
195.577
  0
LINE
  8
0
 10
43.1448
 20
195.577
 11
43.5451
 21
196.061
  0
LINE
  8
0
 10
43.5451
 20
196.061
 11
43.8815
 21
196.591
  0
LINE
  8
0
 10
43.8815
 20
196.591
 11
44.1489
 21
197.159
  0
LINE
  8
0
 10
44.1489
 20
197.159
 11
44.3429
 21
197.757
  0
LINE
  8
0
 10
44.3429
 20
197.757
 11
44.4606
 21
198.373
  0
LINE
  8
0
 10
44.4606
 20
198.373
 11
44.5
 21
199
  0
LINE
  8
0
 10
44.5
 20
199
 11
44.5
 21
233
  0
LINE
  8
0
 10
44.5
 20
233
 11
44.4606
 21
233.627
  0
LINE
  8
0
 10
44.4606
 20
233.627
 11
44.3429
 21
234.243
  0
LINE
  8
0
 10
44.3429
 20
234.243
 11
44.1489
 21
234.841
  0
LINE
  8
0
 10
44.1489
 20
234.841
 11
43.8815
 21
235.409
  0
LINE
  8
0
 10
43.8815
 20
235.409
 11
43.5451
 21
235.939
  0
LINE
  8
0
 10
43.5451
 20
235.939
 11
43.1448
 21
236.423
  0
LINE
  8
0
 10
43.1448
 20
236.423
 11
42.6871
 21
236.853
  0
LINE
  8
0
 10
42.6871
 20
236.853
 11
42.1791
 21
237.222
  0
LINE
  8
0
 10
42.1791
 20
237.222
 11
41.6289
 21
237.524
  0
LINE
  8
0
 10
41.6289
 20
237.524
 11
41.0451
 21
237.755
  0
LINE
  8
0
 10
41.0451
 20
237.755
 11
40.4369
 21
237.911
  0
LINE
  8
0
 10
40.4369
 20
237.911
 11
39.8139
 21
237.99
  0
LINE
  8
0
 10
39.8139
 20
237.99
 11
-39.8139
 21
237.99
  0
LINE
  8
0
 10
-39.8139
 20
237.99
 11
-40.4369
 21
237.911
  0
LINE
  8
0
 10
-40.4369
 20
237.911
 11
-41.0451
 21
237.755
  0
LINE
  8
0
 10
-41.0451
 20
237.755
 11
-41.6289
 21
237.524
  0
LINE
  8
0
 10
-41.6289
 20
237.524
 11
-42.1791
 21
237.222
  0
LINE
  8
0
 10
-42.1791
 20
237.222
 11
-42.6871
 21
236.853
  0
LINE
  8
0
 10
-42.6871
 20
236.853
 11
-43.1448
 21
236.423
  0
LINE
  8
0
 10
-43.1448
 20
236.423
 11
-43.5451
 21
235.939
  0
LINE
  8
0
 10
-43.5451
 20
235.939
 11
-43.8815
 21
235.409
  0
LINE
  8
0
 10
-43.8815
 20
235.409
 11
-44.1489
 21
234.841
  0
LINE
  8
0
 10
-44.1489
 20
234.841
 11
-44.3429
 21
234.243
  0
LINE
  8
0
 10
-44.3429
 20
234.243
 11
-44.4606
 21
233.627
  0
LINE
  8
0
 10
-44.4606
 20
233.627
 11
-44.5
 21
233
  0
LINE
  8
0
 10
-44.5
 20
233
 11
-44.5
 21
199
  0
LINE
  8
0
 10
-44.5
 20
199
 11
-44.4606
 21
198.373
  0
LINE
  8
0
 10
-44.4606
 20
198.373
 11
-44.3429
 21
197.757
  0
LINE
  8
0
 10
-44.3429
 20
197.757
 11
-44.1489
 21
197.159
  0
LINE
  8
0
 10
-44.1489
 20
197.159
 11
-43.8815
 21
196.591
  0
LINE
  8
0
 10
-43.8815
 20
196.591
 11
-43.5451
 21
196.061
  0
LINE
  8
0
 10
-43.5451
 20
196.061
 11
-43.1448
 21
195.577
  0
LINE
  8
0
 10
-43.1448
 20
195.577
 11
-42.6871
 21
195.147
  0
LINE
  8
0
 10
-42.6871
 20
195.147
 11
-42.1791
 21
194.778
  0
LINE
  8
0
 10
-42.1791
 20
194.778
 11
-41.6289
 21
194.476
  0
LINE
  8
0
 10
-41.6289
 20
194.476
 11
-41.0451
 21
194.245
  0
LINE
  8
0
 10
-41.0451
 20
194.245
 11
-40.4369
 21
194.089
  0
LINE
  8
0
 10
-40.4369
 20
194.089
 11
-39.8139
 21
194.01
  0
LINE
  8
0
 10
-39.8139
 20
194.01
 11
39.8139
 21
194.01
  0
LINE
  8
0
 10
39.8139
 20
194.01
 11
40.4369
 21
194.089
  0
LINE
  8
0
 10
-22.6884
 20
228.006
 11
-23.0621
 21
228.053
  0
LINE
  8
0
 10
-23.0621
 20
228.053
 11
-23.427
 21
228.147
  0
LINE
  8
0
 10
-23.427
 20
228.147
 11
-23.7773
 21
228.286
  0
LINE
  8
0
 10
-23.7773
 20
228.286
 11
-24.1075
 21
228.467
  0
LINE
  8
0
 10
-24.1075
 20
228.467
 11
-24.4123
 21
228.688
  0
LINE
  8
0
 10
-24.4123
 20
228.688
 11
-24.6869
 21
228.946
  0
LINE
  8
0
 10
-24.6869
 20
228.946
 11
-24.927
 21
229.237
  0
LINE
  8
0
 10
-24.927
 20
229.237
 11
-25.1289
 21
229.555
  0
LINE
  8
0
 10
-25.1289
 20
229.555
 11
-25.2893
 21
229.896
  0
LINE
  8
0
 10
-25.2893
 20
229.896
 11
-25.4057
 21
230.254
  0
LINE
  8
0
 10
-25.4057
 20
230.254
 11
-25.4763
 21
230.624
  0
LINE
  8
0
 10
-25.4763
 20
230.624
 11
-25.5
 21
231
  0
LINE
  8
0
 10
-25.5
 20
231
 11
-25.4763
 21
231.376
  0
LINE
  8
0
 10
-25.4763
 20
231.376
 11
-25.4057
 21
231.746
  0
LINE
  8
0
 10
-25.4057
 20
231.746
 11
-25.2893
 21
232.104
  0
LINE
  8
0
 10
-25.2893
 20
232.104
 11
-25.1289
 21
232.445
  0
LINE
  8
0
 10
-25.1289
 20
232.445
 11
-24.927
 21
232.763
  0
LINE
  8
0
 10
-24.927
 20
232.763
 11
-24.6869
 21
233.054
  0
LINE
  8
0
 10
-24.6869
 20
233.054
 11
-24.4123
 21
233.312
  0
LINE
  8
0
 10
-24.4123
 20
233.312
 11
-24.1075
 21
233.533
  0
LINE
  8
0
 10
-24.1075
 20
233.533
 11
-23.7773
 21
233.714
  0
LINE
  8
0
 10
-23.7773
 20
233.714
 11
-23.427
 21
233.853
  0
LINE
  8
0
 10
-23.427
 20
233.853
 11
-23.0621
 21
233.947
  0
LINE
  8
0
 10
-23.0621
 20
233.947
 11
-22.6884
 21
233.994
  0
LINE
  8
0
 10
-22.6884
 20
233.994
 11
-22.3116
 21
233.994
  0
LINE
  8
0
 10
-22.3116
 20
233.994
 11
-21.9379
 21
233.947
  0
LINE
  8
0
 10
-21.9379
 20
233.947
 11
-21.5729
 21
233.853
  0
LINE
  8
0
 10
-21.5729
 20
233.853
 11
-21.2227
 21
233.714
  0
LINE
  8
0
 10
-21.2227
 20
233.714
 11
-20.8925
 21
233.533
  0
LINE
  8
0
 10
-20.8925
 20
233.533
 11
-20.5877
 21
233.312
  0
LINE
  8
0
 10
-20.5877
 20
233.312
 11
-20.3131
 21
233.054
  0
LINE
  8
0
 10
-20.3131
 20
233.054
 11
-20.0729
 21
232.763
  0
LINE
  8
0
 10
-20.0729
 20
232.763
 11
-19.8711
 21
232.445
  0
LINE
  8
0
 10
-19.8711
 20
232.445
 11
-19.7107
 21
232.104
  0
LINE
  8
0
 10
-19.7107
 20
232.104
 11
-19.5942
 21
231.746
  0
LINE
  8
0
 10
-19.5942
 20
231.746
 11
-19.5237
 21
231.376
  0
LINE
  8
0
 10
-19.5237
 20
231.376
 11
-19.5
 21
231
  0
LINE
  8
0
 10
-19.5
 20
231
 11
-19.5237
 21
230.624
  0
LINE
  8
0
 10
-19.5237
 20
230.624
 11
-19.5942
 21
230.254
  0
LINE
  8
0
 10
-19.5942
 20
230.254
 11
-19.7107
 21
229.896
  0
LINE
  8
0
 10
-19.7107
 20
229.896
 11
-19.8711
 21
229.555
  0
LINE
  8
0
 10
-19.8711
 20
229.555
 11
-20.0729
 21
229.237
  0
LINE
  8
0
 10
-20.0729
 20
229.237
 11
-20.3131
 21
228.946
  0
LINE
  8
0
 10
-20.3131
 20
228.946
 11
-20.5877
 21
228.688
  0
LINE
  8
0
 10
-20.5877
 20
228.688
 11
-20.8925
 21
228.467
  0
LINE
  8
0
 10
-20.8925
 20
228.467
 11
-21.2227
 21
228.286
  0
LINE
  8
0
 10
-21.2227
 20
228.286
 11
-21.5729
 21
228.147
  0
LINE
  8
0
 10
-21.5729
 20
228.147
 11
-21.9379
 21
228.053
  0
LINE
  8
0
 10
-21.9379
 20
228.053
 11
-22.3116
 21
228.006
  0
LINE
  8
0
 10
-22.3116
 20
228.006
 11
-22.6884
 21
228.006
  0
LINE
  8
0
 10
-37.6884
 20
228.006
 11
-38.0621
 21
228.053
  0
LINE
  8
0
 10
-38.0621
 20
228.053
 11
-38.427
 21
228.147
  0
LINE
  8
0
 10
-38.427
 20
228.147
 11
-38.7773
 21
228.286
  0
LINE
  8
0
 10
-38.7773
 20
228.286
 11
-39.1075
 21
228.467
  0
LINE
  8
0
 10
-39.1075
 20
228.467
 11
-39.4123
 21
228.688
  0
LINE
  8
0
 10
-39.4123
 20
228.688
 11
-39.6869
 21
228.946
  0
LINE
  8
0
 10
-39.6869
 20
228.946
 11
-39.927
 21
229.237
  0
LINE
  8
0
 10
-39.927
 20
229.237
 11
-40.1289
 21
229.555
  0
LINE
  8
0
 10
-40.1289
 20
229.555
 11
-40.2893
 21
229.896
  0
LINE
  8
0
 10
-40.2893
 20
229.896
 11
-40.4057
 21
230.254
  0
LINE
  8
0
 10
-40.4057
 20
230.254
 11
-40.4763
 21
230.624
  0
LINE
  8
0
 10
-40.4763
 20
230.624
 11
-40.5
 21
231
  0
LINE
  8
0
 10
-40.5
 20
231
 11
-40.4763
 21
231.376
  0
LINE
  8
0
 10
-40.4763
 20
231.376
 11
-40.4057
 21
231.746
  0
LINE
  8
0
 10
-40.4057
 20
231.746
 11
-40.2893
 21
232.104
  0
LINE
  8
0
 10
-40.2893
 20
232.104
 11
-40.1289
 21
232.445
  0
LINE
  8
0
 10
-40.1289
 20
232.445
 11
-39.927
 21
232.763
  0
LINE
  8
0
 10
-39.927
 20
232.763
 11
-39.6869
 21
233.054
  0
LINE
  8
0
 10
-39.6869
 20
233.054
 11
-39.4123
 21
233.312
  0
LINE
  8
0
 10
-39.4123
 20
233.312
 11
-39.1075
 21
233.533
  0
LINE
  8
0
 10
-39.1075
 20
233.533
 11
-38.7773
 21
233.714
  0
LINE
  8
0
 10
-38.7773
 20
233.714
 11
-38.427
 21
233.853
  0
LINE
  8
0
 10
-38.427
 20
233.853
 11
-38.0621
 21
233.947
  0
LINE
  8
0
 10
-38.0621
 20
233.947
 11
-37.6884
 21
233.994
  0
LINE
  8
0
 10
-37.6884
 20
233.994
 11
-37.3116
 21
233.994
  0
LINE
  8
0
 10
-37.3116
 20
233.994
 11
-36.9379
 21
233.947
  0
LINE
  8
0
 10
-36.9379
 20
233.947
 11
-36.5729
 21
233.853
  0
LINE
  8
0
 10
-36.5729
 20
233.853
 11
-36.2227
 21
233.714
  0
LINE
  8
0
 10
-36.2227
 20
233.714
 11
-35.8925
 21
233.533
  0
LINE
  8
0
 10
-35.8925
 20
233.533
 11
-35.5877
 21
233.312
  0
LINE
  8
0
 10
-35.5877
 20
233.312
 11
-35.3131
 21
233.054
  0
LINE
  8
0
 10
-35.3131
 20
233.054
 11
-35.0729
 21
232.763
  0
LINE
  8
0
 10
-35.0729
 20
232.763
 11
-34.8711
 21
232.445
  0
LINE
  8
0
 10
-34.8711
 20
232.445
 11
-34.7107
 21
232.104
  0
LINE
  8
0
 10
-34.7107
 20
232.104
 11
-34.5942
 21
231.746
  0
LINE
  8
0
 10
-34.5942
 20
231.746
 11
-34.5237
 21
231.376
  0
LINE
  8
0
 10
-34.5237
 20
231.376
 11
-34.5
 21
231
  0
LINE
  8
0
 10
-34.5
 20
231
 11
-34.5237
 21
230.624
  0
LINE
  8
0
 10
-34.5237
 20
230.624
 11
-34.5942
 21
230.254
  0
LINE
  8
0
 10
-34.5942
 20
230.254
 11
-34.7107
 21
229.896
  0
LINE
  8
0
 10
-34.7107
 20
229.896
 11
-34.8711
 21
229.555
  0
LINE
  8
0
 10
-34.8711
 20
229.555
 11
-35.0729
 21
229.237
  0
LINE
  8
0
 10
-35.0729
 20
229.237
 11
-35.3131
 21
228.946
  0
LINE
  8
0
 10
-35.3131
 20
228.946
 11
-35.5877
 21
228.688
  0
LINE
  8
0
 10
-35.5877
 20
228.688
 11
-35.8925
 21
228.467
  0
LINE
  8
0
 10
-35.8925
 20
228.467
 11
-36.2227
 21
228.286
  0
LINE
  8
0
 10
-36.2227
 20
228.286
 11
-36.5729
 21
228.147
  0
LINE
  8
0
 10
-36.5729
 20
228.147
 11
-36.9379
 21
228.053
  0
LINE
  8
0
 10
-36.9379
 20
228.053
 11
-37.3116
 21
228.006
  0
LINE
  8
0
 10
-37.3116
 20
228.006
 11
-37.6884
 21
228.006
  0
LINE
  8
0
 10
-7.68837
 20
228.006
 11
-8.06213
 21
228.053
  0
LINE
  8
0
 10
-8.06213
 20
228.053
 11
-8.42705
 21
228.147
  0
LINE
  8
0
 10
-8.42705
 20
228.147
 11
-8.77733
 21
228.286
  0
LINE
  8
0
 10
-8.77733
 20
228.286
 11
-9.10747
 21
228.467
  0
LINE
  8
0
 10
-9.10747
 20
228.467
 11
-9.41226
 21
228.688
  0
LINE
  8
0
 10
-9.41226
 20
228.688
 11
-9.6869
 21
228.946
  0
LINE
  8
0
 10
-9.6869
 20
228.946
 11
-9.92705
 21
229.237
  0
LINE
  8
0
 10
-9.92705
 20
229.237
 11
-10.1289
 21
229.555
  0
LINE
  8
0
 10
-10.1289
 20
229.555
 11
-10.2893
 21
229.896
  0
LINE
  8
0
 10
-10.2893
 20
229.896
 11
-10.4057
 21
230.254
  0
LINE
  8
0
 10
-10.4057
 20
230.254
 11
-10.4763
 21
230.624
  0
LINE
  8
0
 10
-10.4763
 20
230.624
 11
-10.5
 21
231
  0
LINE
  8
0
 10
-10.5
 20
231
 11
-10.4763
 21
231.376
  0
LINE
  8
0
 10
-10.4763
 20
231.376
 11
-10.4057
 21
231.746
  0
LINE
  8
0
 10
-10.4057
 20
231.746
 11
-10.2893
 21
232.104
  0
LINE
  8
0
 10
-10.2893
 20
232.104
 11
-10.1289
 21
232.445
  0
LINE
  8
0
 10
-10.1289
 20
232.445
 11
-9.92705
 21
232.763
  0
LINE
  8
0
 10
-9.92705
 20
232.763
 11
-9.6869
 21
233.054
  0
LINE
  8
0
 10
-9.6869
 20
233.054
 11
-9.41226
 21
233.312
  0
LINE
  8
0
 10
-9.41226
 20
233.312
 11
-9.10747
 21
233.533
  0
LINE
  8
0
 10
-9.10747
 20
233.533
 11
-8.77733
 21
233.714
  0
LINE
  8
0
 10
-8.77733
 20
233.714
 11
-8.42705
 21
233.853
  0
LINE
  8
0
 10
-8.42705
 20
233.853
 11
-8.06213
 21
233.947
  0
LINE
  8
0
 10
-8.06213
 20
233.947
 11
-7.68837
 21
233.994
  0
LINE
  8
0
 10
-7.68837
 20
233.994
 11
-7.31161
 21
233.994
  0
LINE
  8
0
 10
-7.31161
 20
233.994
 11
-6.93785
 21
233.947
  0
LINE
  8
0
 10
-6.93785
 20
233.947
 11
-6.57294
 21
233.853
  0
LINE
  8
0
 10
-6.57294
 20
233.853
 11
-6.22266
 21
233.714
  0
LINE
  8
0
 10
-6.22266
 20
233.714
 11
-5.89252
 21
233.533
  0
LINE
  8
0
 10
-5.89252
 20
233.533
 11
-5.58772
 21
233.312
  0
LINE
  8
0
 10
-5.58772
 20
233.312
 11
-5.31308
 21
233.054
  0
LINE
  8
0
 10
-5.31308
 20
233.054
 11
-5.07294
 21
232.763
  0
LINE
  8
0
 10
-5.07294
 20
232.763
 11
-4.87108
 21
232.445
  0
LINE
  8
0
 10
-4.87108
 20
232.445
 11
-4.71066
 21
232.104
  0
LINE
  8
0
 10
-4.71066
 20
232.104
 11
-4.59424
 21
231.746
  0
LINE
  8
0
 10
-4.59424
 20
231.746
 11
-4.52365
 21
231.376
  0
LINE
  8
0
 10
-4.52365
 20
231.376
 11
-4.5
 21
231
  0
LINE
  8
0
 10
-4.5
 20
231
 11
-4.52365
 21
230.624
  0
LINE
  8
0
 10
-4.52365
 20
230.624
 11
-4.59424
 21
230.254
  0
LINE
  8
0
 10
-4.59424
 20
230.254
 11
-4.71066
 21
229.896
  0
LINE
  8
0
 10
-4.71066
 20
229.896
 11
-4.87108
 21
229.555
  0
LINE
  8
0
 10
-4.87108
 20
229.555
 11
-5.07294
 21
229.237
  0
LINE
  8
0
 10
-5.07294
 20
229.237
 11
-5.31308
 21
228.946
  0
LINE
  8
0
 10
-5.31308
 20
228.946
 11
-5.58772
 21
228.688
  0
LINE
  8
0
 10
-5.58772
 20
228.688
 11
-5.89252
 21
228.467
  0
LINE
  8
0
 10
-5.89252
 20
228.467
 11
-6.22266
 21
228.286
  0
LINE
  8
0
 10
-6.22266
 20
228.286
 11
-6.57294
 21
228.147
  0
LINE
  8
0
 10
-6.57294
 20
228.147
 11
-6.93785
 21
228.053
  0
LINE
  8
0
 10
-6.93785
 20
228.053
 11
-7.31161
 21
228.006
  0
LINE
  8
0
 10
-7.31161
 20
228.006
 11
-7.68837
 21
228.006
  0
LINE
  8
0
 10
37.3116
 20
228.006
 11
36.9379
 21
228.053
  0
LINE
  8
0
 10
36.9379
 20
228.053
 11
36.5729
 21
228.147
  0
LINE
  8
0
 10
36.5729
 20
228.147
 11
36.2227
 21
228.286
  0
LINE
  8
0
 10
36.2227
 20
228.286
 11
35.8925
 21
228.467
  0
LINE
  8
0
 10
35.8925
 20
228.467
 11
35.5877
 21
228.688
  0
LINE
  8
0
 10
35.5877
 20
228.688
 11
35.3131
 21
228.946
  0
LINE
  8
0
 10
35.3131
 20
228.946
 11
35.0729
 21
229.237
  0
LINE
  8
0
 10
35.0729
 20
229.237
 11
34.8711
 21
229.555
  0
LINE
  8
0
 10
34.8711
 20
229.555
 11
34.7107
 21
229.896
  0
LINE
  8
0
 10
34.7107
 20
229.896
 11
34.5942
 21
230.254
  0
LINE
  8
0
 10
34.5942
 20
230.254
 11
34.5237
 21
230.624
  0
LINE
  8
0
 10
34.5237
 20
230.624
 11
34.5
 21
231
  0
LINE
  8
0
 10
34.5
 20
231
 11
34.5237
 21
231.376
  0
LINE
  8
0
 10
34.5237
 20
231.376
 11
34.5942
 21
231.746
  0
LINE
  8
0
 10
34.5942
 20
231.746
 11
34.7107
 21
232.104
  0
LINE
  8
0
 10
34.7107
 20
232.104
 11
34.8711
 21
232.445
  0
LINE
  8
0
 10
34.8711
 20
232.445
 11
35.0729
 21
232.763
  0
LINE
  8
0
 10
35.0729
 20
232.763
 11
35.3131
 21
233.054
  0
LINE
  8
0
 10
35.3131
 20
233.054
 11
35.5877
 21
233.312
  0
LINE
  8
0
 10
35.5877
 20
233.312
 11
35.8925
 21
233.533
  0
LINE
  8
0
 10
35.8925
 20
233.533
 11
36.2227
 21
233.714
  0
LINE
  8
0
 10
36.2227
 20
233.714
 11
36.5729
 21
233.853
  0
LINE
  8
0
 10
36.5729
 20
233.853
 11
36.9379
 21
233.947
  0
LINE
  8
0
 10
36.9379
 20
233.947
 11
37.3116
 21
233.994
  0
LINE
  8
0
 10
37.3116
 20
233.994
 11
37.6884
 21
233.994
  0
LINE
  8
0
 10
37.6884
 20
233.994
 11
38.0621
 21
233.947
  0
LINE
  8
0
 10
38.0621
 20
233.947
 11
38.427
 21
233.853
  0
LINE
  8
0
 10
38.427
 20
233.853
 11
38.7773
 21
233.714
  0
LINE
  8
0
 10
38.7773
 20
233.714
 11
39.1075
 21
233.533
  0
LINE
  8
0
 10
39.1075
 20
233.533
 11
39.4123
 21
233.312
  0
LINE
  8
0
 10
39.4123
 20
233.312
 11
39.6869
 21
233.054
  0
LINE
  8
0
 10
39.6869
 20
233.054
 11
39.927
 21
232.763
  0
LINE
  8
0
 10
39.927
 20
232.763
 11
40.1289
 21
232.445
  0
LINE
  8
0
 10
40.1289
 20
232.445
 11
40.2893
 21
232.104
  0
LINE
  8
0
 10
40.2893
 20
232.104
 11
40.4057
 21
231.746
  0
LINE
  8
0
 10
40.4057
 20
231.746
 11
40.4763
 21
231.376
  0
LINE
  8
0
 10
40.4763
 20
231.376
 11
40.5
 21
231
  0
LINE
  8
0
 10
40.5
 20
231
 11
40.4763
 21
230.624
  0
LINE
  8
0
 10
40.4763
 20
230.624
 11
40.4057
 21
230.254
  0
LINE
  8
0
 10
40.4057
 20
230.254
 11
40.2893
 21
229.896
  0
LINE
  8
0
 10
40.2893
 20
229.896
 11
40.1289
 21
229.555
  0
LINE
  8
0
 10
40.1289
 20
229.555
 11
39.927
 21
229.237
  0
LINE
  8
0
 10
39.927
 20
229.237
 11
39.6869
 21
228.946
  0
LINE
  8
0
 10
39.6869
 20
228.946
 11
39.4123
 21
228.688
  0
LINE
  8
0
 10
39.4123
 20
228.688
 11
39.1075
 21
228.467
  0
LINE
  8
0
 10
39.1075
 20
228.467
 11
38.7773
 21
228.286
  0
LINE
  8
0
 10
38.7773
 20
228.286
 11
38.427
 21
228.147
  0
LINE
  8
0
 10
38.427
 20
228.147
 11
38.0621
 21
228.053
  0
LINE
  8
0
 10
38.0621
 20
228.053
 11
37.6884
 21
228.006
  0
LINE
  8
0
 10
37.6884
 20
228.006
 11
37.3116
 21
228.006
  0
LINE
  8
0
 10
7.31161
 20
228.006
 11
6.93785
 21
228.053
  0
LINE
  8
0
 10
6.93785
 20
228.053
 11
6.57294
 21
228.147
  0
LINE
  8
0
 10
6.57294
 20
228.147
 11
6.22266
 21
228.286
  0
LINE
  8
0
 10
6.22266
 20
228.286
 11
5.89252
 21
228.467
  0
LINE
  8
0
 10
5.89252
 20
228.467
 11
5.58772
 21
228.688
  0
LINE
  8
0
 10
5.58772
 20
228.688
 11
5.31308
 21
228.946
  0
LINE
  8
0
 10
5.31308
 20
228.946
 11
5.07294
 21
229.237
  0
LINE
  8
0
 10
5.07294
 20
229.237
 11
4.87108
 21
229.555
  0
LINE
  8
0
 10
4.87108
 20
229.555
 11
4.71066
 21
229.896
  0
LINE
  8
0
 10
4.71066
 20
229.896
 11
4.59424
 21
230.254
  0
LINE
  8
0
 10
4.59424
 20
230.254
 11
4.52365
 21
230.624
  0
LINE
  8
0
 10
4.52365
 20
230.624
 11
4.5
 21
231
  0
LINE
  8
0
 10
4.5
 20
231
 11
4.52365
 21
231.376
  0
LINE
  8
0
 10
4.52365
 20
231.376
 11
4.59424
 21
231.746
  0
LINE
  8
0
 10
4.59424
 20
231.746
 11
4.71066
 21
232.104
  0
LINE
  8
0
 10
4.71066
 20
232.104
 11
4.87108
 21
232.445
  0
LINE
  8
0
 10
4.87108
 20
232.445
 11
5.07294
 21
232.763
  0
LINE
  8
0
 10
5.07294
 20
232.763
 11
5.31308
 21
233.054
  0
LINE
  8
0
 10
5.31308
 20
233.054
 11
5.58772
 21
233.312
  0
LINE
  8
0
 10
5.58772
 20
233.312
 11
5.89252
 21
233.533
  0
LINE
  8
0
 10
5.89252
 20
233.533
 11
6.22266
 21
233.714
  0
LINE
  8
0
 10
6.22266
 20
233.714
 11
6.57294
 21
233.853
  0
LINE
  8
0
 10
6.57294
 20
233.853
 11
6.93785
 21
233.947
  0
LINE
  8
0
 10
6.93785
 20
233.947
 11
7.31161
 21
233.994
  0
LINE
  8
0
 10
7.31161
 20
233.994
 11
7.68837
 21
233.994
  0
LINE
  8
0
 10
7.68837
 20
233.994
 11
8.06213
 21
233.947
  0
LINE
  8
0
 10
8.06213
 20
233.947
 11
8.42705
 21
233.853
  0
LINE
  8
0
 10
8.42705
 20
233.853
 11
8.77733
 21
233.714
  0
LINE
  8
0
 10
8.77733
 20
233.714
 11
9.10747
 21
233.533
  0
LINE
  8
0
 10
9.10747
 20
233.533
 11
9.41226
 21
233.312
  0
LINE
  8
0
 10
9.41226
 20
233.312
 11
9.6869
 21
233.054
  0
LINE
  8
0
 10
9.6869
 20
233.054
 11
9.92705
 21
232.763
  0
LINE
  8
0
 10
9.92705
 20
232.763
 11
10.1289
 21
232.445
  0
LINE
  8
0
 10
10.1289
 20
232.445
 11
10.2893
 21
232.104
  0
LINE
  8
0
 10
10.2893
 20
232.104
 11
10.4057
 21
231.746
  0
LINE
  8
0
 10
10.4057
 20
231.746
 11
10.4763
 21
231.376
  0
LINE
  8
0
 10
10.4763
 20
231.376
 11
10.5
 21
231
  0
LINE
  8
0
 10
10.5
 20
231
 11
10.4763
 21
230.624
  0
LINE
  8
0
 10
10.4763
 20
230.624
 11
10.4057
 21
230.254
  0
LINE
  8
0
 10
10.4057
 20
230.254
 11
10.2893
 21
229.896
  0
LINE
  8
0
 10
10.2893
 20
229.896
 11
10.1289
 21
229.555
  0
LINE
  8
0
 10
10.1289
 20
229.555
 11
9.92705
 21
229.237
  0
LINE
  8
0
 10
9.92705
 20
229.237
 11
9.6869
 21
228.946
  0
LINE
  8
0
 10
9.6869
 20
228.946
 11
9.41226
 21
228.688
  0
LINE
  8
0
 10
9.41226
 20
228.688
 11
9.10747
 21
228.467
  0
LINE
  8
0
 10
9.10747
 20
228.467
 11
8.77733
 21
228.286
  0
LINE
  8
0
 10
8.77733
 20
228.286
 11
8.42705
 21
228.147
  0
LINE
  8
0
 10
8.42705
 20
228.147
 11
8.06213
 21
228.053
  0
LINE
  8
0
 10
8.06213
 20
228.053
 11
7.68837
 21
228.006
  0
LINE
  8
0
 10
7.68837
 20
228.006
 11
7.31161
 21
228.006
  0
LINE
  8
0
 10
22.3116
 20
228.006
 11
21.9379
 21
228.053
  0
LINE
  8
0
 10
21.9379
 20
228.053
 11
21.5729
 21
228.147
  0
LINE
  8
0
 10
21.5729
 20
228.147
 11
21.2227
 21
228.286
  0
LINE
  8
0
 10
21.2227
 20
228.286
 11
20.8925
 21
228.467
  0
LINE
  8
0
 10
20.8925
 20
228.467
 11
20.5877
 21
228.688
  0
LINE
  8
0
 10
20.5877
 20
228.688
 11
20.3131
 21
228.946
  0
LINE
  8
0
 10
20.3131
 20
228.946
 11
20.0729
 21
229.237
  0
LINE
  8
0
 10
20.0729
 20
229.237
 11
19.8711
 21
229.555
  0
LINE
  8
0
 10
19.8711
 20
229.555
 11
19.7107
 21
229.896
  0
LINE
  8
0
 10
19.7107
 20
229.896
 11
19.5942
 21
230.254
  0
LINE
  8
0
 10
19.5942
 20
230.254
 11
19.5237
 21
230.624
  0
LINE
  8
0
 10
19.5237
 20
230.624
 11
19.5
 21
231
  0
LINE
  8
0
 10
19.5
 20
231
 11
19.5237
 21
231.376
  0
LINE
  8
0
 10
19.5237
 20
231.376
 11
19.5942
 21
231.746
  0
LINE
  8
0
 10
19.5942
 20
231.746
 11
19.7107
 21
232.104
  0
LINE
  8
0
 10
19.7107
 20
232.104
 11
19.8711
 21
232.445
  0
LINE
  8
0
 10
19.8711
 20
232.445
 11
20.0729
 21
232.763
  0
LINE
  8
0
 10
20.0729
 20
232.763
 11
20.3131
 21
233.054
  0
LINE
  8
0
 10
20.3131
 20
233.054
 11
20.5877
 21
233.312
  0
LINE
  8
0
 10
20.5877
 20
233.312
 11
20.8925
 21
233.533
  0
LINE
  8
0
 10
20.8925
 20
233.533
 11
21.2227
 21
233.714
  0
LINE
  8
0
 10
21.2227
 20
233.714
 11
21.5729
 21
233.853
  0
LINE
  8
0
 10
21.5729
 20
233.853
 11
21.9379
 21
233.947
  0
LINE
  8
0
 10
21.9379
 20
233.947
 11
22.3116
 21
233.994
  0
LINE
  8
0
 10
22.3116
 20
233.994
 11
22.6884
 21
233.994
  0
LINE
  8
0
 10
22.6884
 20
233.994
 11
23.0621
 21
233.947
  0
LINE
  8
0
 10
23.0621
 20
233.947
 11
23.427
 21
233.853
  0
LINE
  8
0
 10
23.427
 20
233.853
 11
23.7773
 21
233.714
  0
LINE
  8
0
 10
23.7773
 20
233.714
 11
24.1075
 21
233.533
  0
LINE
  8
0
 10
24.1075
 20
233.533
 11
24.4123
 21
233.312
  0
LINE
  8
0
 10
24.4123
 20
233.312
 11
24.6869
 21
233.054
  0
LINE
  8
0
 10
24.6869
 20
233.054
 11
24.927
 21
232.763
  0
LINE
  8
0
 10
24.927
 20
232.763
 11
25.1289
 21
232.445
  0
LINE
  8
0
 10
25.1289
 20
232.445
 11
25.2893
 21
232.104
  0
LINE
  8
0
 10
25.2893
 20
232.104
 11
25.4057
 21
231.746
  0
LINE
  8
0
 10
25.4057
 20
231.746
 11
25.4763
 21
231.376
  0
LINE
  8
0
 10
25.4763
 20
231.376
 11
25.5
 21
231
  0
LINE
  8
0
 10
25.5
 20
231
 11
25.4763
 21
230.624
  0
LINE
  8
0
 10
25.4763
 20
230.624
 11
25.4057
 21
230.254
  0
LINE
  8
0
 10
25.4057
 20
230.254
 11
25.2893
 21
229.896
  0
LINE
  8
0
 10
25.2893
 20
229.896
 11
25.1289
 21
229.555
  0
LINE
  8
0
 10
25.1289
 20
229.555
 11
24.927
 21
229.237
  0
LINE
  8
0
 10
24.927
 20
229.237
 11
24.6869
 21
228.946
  0
LINE
  8
0
 10
24.6869
 20
228.946
 11
24.4123
 21
228.688
  0
LINE
  8
0
 10
24.4123
 20
228.688
 11
24.1075
 21
228.467
  0
LINE
  8
0
 10
24.1075
 20
228.467
 11
23.7773
 21
228.286
  0
LINE
  8
0
 10
23.7773
 20
228.286
 11
23.427
 21
228.147
  0
LINE
  8
0
 10
23.427
 20
228.147
 11
23.0621
 21
228.053
  0
LINE
  8
0
 10
23.0621
 20
228.053
 11
22.6884
 21
228.006
  0
LINE
  8
0
 10
22.6884
 20
228.006
 11
22.3116
 21
228.006
  0
LINE
  8
0
 10
-7.68837
 20
213.006
 11
-8.06213
 21
213.053
  0
LINE
  8
0
 10
-8.06213
 20
213.053
 11
-8.42705
 21
213.147
  0
LINE
  8
0
 10
-8.42705
 20
213.147
 11
-8.77733
 21
213.286
  0
LINE
  8
0
 10
-8.77733
 20
213.286
 11
-9.10747
 21
213.467
  0
LINE
  8
0
 10
-9.10747
 20
213.467
 11
-9.41226
 21
213.688
  0
LINE
  8
0
 10
-9.41226
 20
213.688
 11
-9.6869
 21
213.946
  0
LINE
  8
0
 10
-9.6869
 20
213.946
 11
-9.92705
 21
214.237
  0
LINE
  8
0
 10
-9.92705
 20
214.237
 11
-10.1289
 21
214.555
  0
LINE
  8
0
 10
-10.1289
 20
214.555
 11
-10.2893
 21
214.896
  0
LINE
  8
0
 10
-10.2893
 20
214.896
 11
-10.4057
 21
215.254
  0
LINE
  8
0
 10
-10.4057
 20
215.254
 11
-10.4763
 21
215.624
  0
LINE
  8
0
 10
-10.4763
 20
215.624
 11
-10.5
 21
216
  0
LINE
  8
0
 10
-10.5
 20
216
 11
-10.4763
 21
216.376
  0
LINE
  8
0
 10
-10.4763
 20
216.376
 11
-10.4057
 21
216.746
  0
LINE
  8
0
 10
-10.4057
 20
216.746
 11
-10.2893
 21
217.104
  0
LINE
  8
0
 10
-10.2893
 20
217.104
 11
-10.1289
 21
217.445
  0
LINE
  8
0
 10
-10.1289
 20
217.445
 11
-9.92705
 21
217.763
  0
LINE
  8
0
 10
-9.92705
 20
217.763
 11
-9.6869
 21
218.054
  0
LINE
  8
0
 10
-9.6869
 20
218.054
 11
-9.41226
 21
218.312
  0
LINE
  8
0
 10
-9.41226
 20
218.312
 11
-9.10747
 21
218.533
  0
LINE
  8
0
 10
-9.10747
 20
218.533
 11
-8.77733
 21
218.714
  0
LINE
  8
0
 10
-8.77733
 20
218.714
 11
-8.42705
 21
218.853
  0
LINE
  8
0
 10
-8.42705
 20
218.853
 11
-8.06213
 21
218.947
  0
LINE
  8
0
 10
-8.06213
 20
218.947
 11
-7.68837
 21
218.994
  0
LINE
  8
0
 10
-7.68837
 20
218.994
 11
-7.31161
 21
218.994
  0
LINE
  8
0
 10
-7.31161
 20
218.994
 11
-6.93785
 21
218.947
  0
LINE
  8
0
 10
-6.93785
 20
218.947
 11
-6.57294
 21
218.853
  0
LINE
  8
0
 10
-6.57294
 20
218.853
 11
-6.22266
 21
218.714
  0
LINE
  8
0
 10
-6.22266
 20
218.714
 11
-5.89252
 21
218.533
  0
LINE
  8
0
 10
-5.89252
 20
218.533
 11
-5.58772
 21
218.312
  0
LINE
  8
0
 10
-5.58772
 20
218.312
 11
-5.31308
 21
218.054
  0
LINE
  8
0
 10
-5.31308
 20
218.054
 11
-5.07294
 21
217.763
  0
LINE
  8
0
 10
-5.07294
 20
217.763
 11
-4.87108
 21
217.445
  0
LINE
  8
0
 10
-4.87108
 20
217.445
 11
-4.71066
 21
217.104
  0
LINE
  8
0
 10
-4.71066
 20
217.104
 11
-4.59424
 21
216.746
  0
LINE
  8
0
 10
-4.59424
 20
216.746
 11
-4.52365
 21
216.376
  0
LINE
  8
0
 10
-4.52365
 20
216.376
 11
-4.5
 21
216
  0
LINE
  8
0
 10
-4.5
 20
216
 11
-4.52365
 21
215.624
  0
LINE
  8
0
 10
-4.52365
 20
215.624
 11
-4.59424
 21
215.254
  0
LINE
  8
0
 10
-4.59424
 20
215.254
 11
-4.71066
 21
214.896
  0
LINE
  8
0
 10
-4.71066
 20
214.896
 11
-4.87108
 21
214.555
  0
LINE
  8
0
 10
-4.87108
 20
214.555
 11
-5.07294
 21
214.237
  0
LINE
  8
0
 10
-5.07294
 20
214.237
 11
-5.31308
 21
213.946
  0
LINE
  8
0
 10
-5.31308
 20
213.946
 11
-5.58772
 21
213.688
  0
LINE
  8
0
 10
-5.58772
 20
213.688
 11
-5.89252
 21
213.467
  0
LINE
  8
0
 10
-5.89252
 20
213.467
 11
-6.22266
 21
213.286
  0
LINE
  8
0
 10
-6.22266
 20
213.286
 11
-6.57294
 21
213.147
  0
LINE
  8
0
 10
-6.57294
 20
213.147
 11
-6.93785
 21
213.053
  0
LINE
  8
0
 10
-6.93785
 20
213.053
 11
-7.31161
 21
213.006
  0
LINE
  8
0
 10
-7.31161
 20
213.006
 11
-7.68837
 21
213.006
  0
LINE
  8
0
 10
-37.6884
 20
213.006
 11
-38.0621
 21
213.053
  0
LINE
  8
0
 10
-38.0621
 20
213.053
 11
-38.427
 21
213.147
  0
LINE
  8
0
 10
-38.427
 20
213.147
 11
-38.7773
 21
213.286
  0
LINE
  8
0
 10
-38.7773
 20
213.286
 11
-39.1075
 21
213.467
  0
LINE
  8
0
 10
-39.1075
 20
213.467
 11
-39.4123
 21
213.688
  0
LINE
  8
0
 10
-39.4123
 20
213.688
 11
-39.6869
 21
213.946
  0
LINE
  8
0
 10
-39.6869
 20
213.946
 11
-39.927
 21
214.237
  0
LINE
  8
0
 10
-39.927
 20
214.237
 11
-40.1289
 21
214.555
  0
LINE
  8
0
 10
-40.1289
 20
214.555
 11
-40.2893
 21
214.896
  0
LINE
  8
0
 10
-40.2893
 20
214.896
 11
-40.4057
 21
215.254
  0
LINE
  8
0
 10
-40.4057
 20
215.254
 11
-40.4763
 21
215.624
  0
LINE
  8
0
 10
-40.4763
 20
215.624
 11
-40.5
 21
216
  0
LINE
  8
0
 10
-40.5
 20
216
 11
-40.4763
 21
216.376
  0
LINE
  8
0
 10
-40.4763
 20
216.376
 11
-40.4057
 21
216.746
  0
LINE
  8
0
 10
-40.4057
 20
216.746
 11
-40.2893
 21
217.104
  0
LINE
  8
0
 10
-40.2893
 20
217.104
 11
-40.1289
 21
217.445
  0
LINE
  8
0
 10
-40.1289
 20
217.445
 11
-39.927
 21
217.763
  0
LINE
  8
0
 10
-39.927
 20
217.763
 11
-39.6869
 21
218.054
  0
LINE
  8
0
 10
-39.6869
 20
218.054
 11
-39.4123
 21
218.312
  0
LINE
  8
0
 10
-39.4123
 20
218.312
 11
-39.1075
 21
218.533
  0
LINE
  8
0
 10
-39.1075
 20
218.533
 11
-38.7773
 21
218.714
  0
LINE
  8
0
 10
-38.7773
 20
218.714
 11
-38.427
 21
218.853
  0
LINE
  8
0
 10
-38.427
 20
218.853
 11
-38.0621
 21
218.947
  0
LINE
  8
0
 10
-38.0621
 20
218.947
 11
-37.6884
 21
218.994
  0
LINE
  8
0
 10
-37.6884
 20
218.994
 11
-37.3116
 21
218.994
  0
LINE
  8
0
 10
-37.3116
 20
218.994
 11
-36.9379
 21
218.947
  0
LINE
  8
0
 10
-36.9379
 20
218.947
 11
-36.5729
 21
218.853
  0
LINE
  8
0
 10
-36.5729
 20
218.853
 11
-36.2227
 21
218.714
  0
LINE
  8
0
 10
-36.2227
 20
218.714
 11
-35.8925
 21
218.533
  0
LINE
  8
0
 10
-35.8925
 20
218.533
 11
-35.5877
 21
218.312
  0
LINE
  8
0
 10
-35.5877
 20
218.312
 11
-35.3131
 21
218.054
  0
LINE
  8
0
 10
-35.3131
 20
218.054
 11
-35.0729
 21
217.763
  0
LINE
  8
0
 10
-35.0729
 20
217.763
 11
-34.8711
 21
217.445
  0
LINE
  8
0
 10
-34.8711
 20
217.445
 11
-34.7107
 21
217.104
  0
LINE
  8
0
 10
-34.7107
 20
217.104
 11
-34.5942
 21
216.746
  0
LINE
  8
0
 10
-34.5942
 20
216.746
 11
-34.5237
 21
216.376
  0
LINE
  8
0
 10
-34.5237
 20
216.376
 11
-34.5
 21
216
  0
LINE
  8
0
 10
-34.5
 20
216
 11
-34.5237
 21
215.624
  0
LINE
  8
0
 10
-34.5237
 20
215.624
 11
-34.5942
 21
215.254
  0
LINE
  8
0
 10
-34.5942
 20
215.254
 11
-34.7107
 21
214.896
  0
LINE
  8
0
 10
-34.7107
 20
214.896
 11
-34.8711
 21
214.555
  0
LINE
  8
0
 10
-34.8711
 20
214.555
 11
-35.0729
 21
214.237
  0
LINE
  8
0
 10
-35.0729
 20
214.237
 11
-35.3131
 21
213.946
  0
LINE
  8
0
 10
-35.3131
 20
213.946
 11
-35.5877
 21
213.688
  0
LINE
  8
0
 10
-35.5877
 20
213.688
 11
-35.8925
 21
213.467
  0
LINE
  8
0
 10
-35.8925
 20
213.467
 11
-36.2227
 21
213.286
  0
LINE
  8
0
 10
-36.2227
 20
213.286
 11
-36.5729
 21
213.147
  0
LINE
  8
0
 10
-36.5729
 20
213.147
 11
-36.9379
 21
213.053
  0
LINE
  8
0
 10
-36.9379
 20
213.053
 11
-37.3116
 21
213.006
  0
LINE
  8
0
 10
-37.3116
 20
213.006
 11
-37.6884
 21
213.006
  0
LINE
  8
0
 10
7.31161
 20
213.006
 11
6.93785
 21
213.053
  0
LINE
  8
0
 10
6.93785
 20
213.053
 11
6.57294
 21
213.147
  0
LINE
  8
0
 10
6.57294
 20
213.147
 11
6.22266
 21
213.286
  0
LINE
  8
0
 10
6.22266
 20
213.286
 11
5.89252
 21
213.467
  0
LINE
  8
0
 10
5.89252
 20
213.467
 11
5.58772
 21
213.688
  0
LINE
  8
0
 10
5.58772
 20
213.688
 11
5.31308
 21
213.946
  0
LINE
  8
0
 10
5.31308
 20
213.946
 11
5.07294
 21
214.237
  0
LINE
  8
0
 10
5.07294
 20
214.237
 11
4.87108
 21
214.555
  0
LINE
  8
0
 10
4.87108
 20
214.555
 11
4.71066
 21
214.896
  0
LINE
  8
0
 10
4.71066
 20
214.896
 11
4.59424
 21
215.254
  0
LINE
  8
0
 10
4.59424
 20
215.254
 11
4.52365
 21
215.624
  0
LINE
  8
0
 10
4.52365
 20
215.624
 11
4.5
 21
216
  0
LINE
  8
0
 10
4.5
 20
216
 11
4.52365
 21
216.376
  0
LINE
  8
0
 10
4.52365
 20
216.376
 11
4.59424
 21
216.746
  0
LINE
  8
0
 10
4.59424
 20
216.746
 11
4.71066
 21
217.104
  0
LINE
  8
0
 10
4.71066
 20
217.104
 11
4.87108
 21
217.445
  0
LINE
  8
0
 10
4.87108
 20
217.445
 11
5.07294
 21
217.763
  0
LINE
  8
0
 10
5.07294
 20
217.763
 11
5.31308
 21
218.054
  0
LINE
  8
0
 10
5.31308
 20
218.054
 11
5.58772
 21
218.312
  0
LINE
  8
0
 10
5.58772
 20
218.312
 11
5.89252
 21
218.533
  0
LINE
  8
0
 10
5.89252
 20
218.533
 11
6.22266
 21
218.714
  0
LINE
  8
0
 10
6.22266
 20
218.714
 11
6.57294
 21
218.853
  0
LINE
  8
0
 10
6.57294
 20
218.853
 11
6.93785
 21
218.947
  0
LINE
  8
0
 10
6.93785
 20
218.947
 11
7.31161
 21
218.994
  0
LINE
  8
0
 10
7.31161
 20
218.994
 11
7.68837
 21
218.994
  0
LINE
  8
0
 10
7.68837
 20
218.994
 11
8.06213
 21
218.947
  0
LINE
  8
0
 10
8.06213
 20
218.947
 11
8.42705
 21
218.853
  0
LINE
  8
0
 10
8.42705
 20
218.853
 11
8.77733
 21
218.714
  0
LINE
  8
0
 10
8.77733
 20
218.714
 11
9.10747
 21
218.533
  0
LINE
  8
0
 10
9.10747
 20
218.533
 11
9.41226
 21
218.312
  0
LINE
  8
0
 10
9.41226
 20
218.312
 11
9.6869
 21
218.054
  0
LINE
  8
0
 10
9.6869
 20
218.054
 11
9.92705
 21
217.763
  0
LINE
  8
0
 10
9.92705
 20
217.763
 11
10.1289
 21
217.445
  0
LINE
  8
0
 10
10.1289
 20
217.445
 11
10.2893
 21
217.104
  0
LINE
  8
0
 10
10.2893
 20
217.104
 11
10.4057
 21
216.746
  0
LINE
  8
0
 10
10.4057
 20
216.746
 11
10.4763
 21
216.376
  0
LINE
  8
0
 10
10.4763
 20
216.376
 11
10.5
 21
216
  0
LINE
  8
0
 10
10.5
 20
216
 11
10.4763
 21
215.624
  0
LINE
  8
0
 10
10.4763
 20
215.624
 11
10.4057
 21
215.254
  0
LINE
  8
0
 10
10.4057
 20
215.254
 11
10.2893
 21
214.896
  0
LINE
  8
0
 10
10.2893
 20
214.896
 11
10.1289
 21
214.555
  0
LINE
  8
0
 10
10.1289
 20
214.555
 11
9.92705
 21
214.237
  0
LINE
  8
0
 10
9.92705
 20
214.237
 11
9.6869
 21
213.946
  0
LINE
  8
0
 10
9.6869
 20
213.946
 11
9.41226
 21
213.688
  0
LINE
  8
0
 10
9.41226
 20
213.688
 11
9.10747
 21
213.467
  0
LINE
  8
0
 10
9.10747
 20
213.467
 11
8.77733
 21
213.286
  0
LINE
  8
0
 10
8.77733
 20
213.286
 11
8.42705
 21
213.147
  0
LINE
  8
0
 10
8.42705
 20
213.147
 11
8.06213
 21
213.053
  0
LINE
  8
0
 10
8.06213
 20
213.053
 11
7.68837
 21
213.006
  0
LINE
  8
0
 10
7.68837
 20
213.006
 11
7.31161
 21
213.006
  0
LINE
  8
0
 10
37.3116
 20
213.006
 11
36.9379
 21
213.053
  0
LINE
  8
0
 10
36.9379
 20
213.053
 11
36.5729
 21
213.147
  0
LINE
  8
0
 10
36.5729
 20
213.147
 11
36.2227
 21
213.286
  0
LINE
  8
0
 10
36.2227
 20
213.286
 11
35.8925
 21
213.467
  0
LINE
  8
0
 10
35.8925
 20
213.467
 11
35.5877
 21
213.688
  0
LINE
  8
0
 10
35.5877
 20
213.688
 11
35.3131
 21
213.946
  0
LINE
  8
0
 10
35.3131
 20
213.946
 11
35.0729
 21
214.237
  0
LINE
  8
0
 10
35.0729
 20
214.237
 11
34.8711
 21
214.555
  0
LINE
  8
0
 10
34.8711
 20
214.555
 11
34.7107
 21
214.896
  0
LINE
  8
0
 10
34.7107
 20
214.896
 11
34.5942
 21
215.254
  0
LINE
  8
0
 10
34.5942
 20
215.254
 11
34.5237
 21
215.624
  0
LINE
  8
0
 10
34.5237
 20
215.624
 11
34.5
 21
216
  0
LINE
  8
0
 10
34.5
 20
216
 11
34.5237
 21
216.376
  0
LINE
  8
0
 10
34.5237
 20
216.376
 11
34.5942
 21
216.746
  0
LINE
  8
0
 10
34.5942
 20
216.746
 11
34.7107
 21
217.104
  0
LINE
  8
0
 10
34.7107
 20
217.104
 11
34.8711
 21
217.445
  0
LINE
  8
0
 10
34.8711
 20
217.445
 11
35.0729
 21
217.763
  0
LINE
  8
0
 10
35.0729
 20
217.763
 11
35.3131
 21
218.054
  0
LINE
  8
0
 10
35.3131
 20
218.054
 11
35.5877
 21
218.312
  0
LINE
  8
0
 10
35.5877
 20
218.312
 11
35.8925
 21
218.533
  0
LINE
  8
0
 10
35.8925
 20
218.533
 11
36.2227
 21
218.714
  0
LINE
  8
0
 10
36.2227
 20
218.714
 11
36.5729
 21
218.853
  0
LINE
  8
0
 10
36.5729
 20
218.853
 11
36.9379
 21
218.947
  0
LINE
  8
0
 10
36.9379
 20
218.947
 11
37.3116
 21
218.994
  0
LINE
  8
0
 10
37.3116
 20
218.994
 11
37.6884
 21
218.994
  0
LINE
  8
0
 10
37.6884
 20
218.994
 11
38.0621
 21
218.947
  0
LINE
  8
0
 10
38.0621
 20
218.947
 11
38.427
 21
218.853
  0
LINE
  8
0
 10
38.427
 20
218.853
 11
38.7773
 21
218.714
  0
LINE
  8
0
 10
38.7773
 20
218.714
 11
39.1075
 21
218.533
  0
LINE
  8
0
 10
39.1075
 20
218.533
 11
39.4123
 21
218.312
  0
LINE
  8
0
 10
39.4123
 20
218.312
 11
39.6869
 21
218.054
  0
LINE
  8
0
 10
39.6869
 20
218.054
 11
39.927
 21
217.763
  0
LINE
  8
0
 10
39.927
 20
217.763
 11
40.1289
 21
217.445
  0
LINE
  8
0
 10
40.1289
 20
217.445
 11
40.2893
 21
217.104
  0
LINE
  8
0
 10
40.2893
 20
217.104
 11
40.4057
 21
216.746
  0
LINE
  8
0
 10
40.4057
 20
216.746
 11
40.4763
 21
216.376
  0
LINE
  8
0
 10
40.4763
 20
216.376
 11
40.5
 21
216
  0
LINE
  8
0
 10
40.5
 20
216
 11
40.4763
 21
215.624
  0
LINE
  8
0
 10
40.4763
 20
215.624
 11
40.4057
 21
215.254
  0
LINE
  8
0
 10
40.4057
 20
215.254
 11
40.2893
 21
214.896
  0
LINE
  8
0
 10
40.2893
 20
214.896
 11
40.1289
 21
214.555
  0
LINE
  8
0
 10
40.1289
 20
214.555
 11
39.927
 21
214.237
  0
LINE
  8
0
 10
39.927
 20
214.237
 11
39.6869
 21
213.946
  0
LINE
  8
0
 10
39.6869
 20
213.946
 11
39.4123
 21
213.688
  0
LINE
  8
0
 10
39.4123
 20
213.688
 11
39.1075
 21
213.467
  0
LINE
  8
0
 10
39.1075
 20
213.467
 11
38.7773
 21
213.286
  0
LINE
  8
0
 10
38.7773
 20
213.286
 11
38.427
 21
213.147
  0
LINE
  8
0
 10
38.427
 20
213.147
 11
38.0621
 21
213.053
  0
LINE
  8
0
 10
38.0621
 20
213.053
 11
37.6884
 21
213.006
  0
LINE
  8
0
 10
37.6884
 20
213.006
 11
37.3116
 21
213.006
  0
LINE
  8
0
 10
-22.6884
 20
213.006
 11
-23.0621
 21
213.053
  0
LINE
  8
0
 10
-23.0621
 20
213.053
 11
-23.427
 21
213.147
  0
LINE
  8
0
 10
-23.427
 20
213.147
 11
-23.7773
 21
213.286
  0
LINE
  8
0
 10
-23.7773
 20
213.286
 11
-24.1075
 21
213.467
  0
LINE
  8
0
 10
-24.1075
 20
213.467
 11
-24.4123
 21
213.688
  0
LINE
  8
0
 10
-24.4123
 20
213.688
 11
-24.6869
 21
213.946
  0
LINE
  8
0
 10
-24.6869
 20
213.946
 11
-24.927
 21
214.237
  0
LINE
  8
0
 10
-24.927
 20
214.237
 11
-25.1289
 21
214.555
  0
LINE
  8
0
 10
-25.1289
 20
214.555
 11
-25.2893
 21
214.896
  0
LINE
  8
0
 10
-25.2893
 20
214.896
 11
-25.4057
 21
215.254
  0
LINE
  8
0
 10
-25.4057
 20
215.254
 11
-25.4763
 21
215.624
  0
LINE
  8
0
 10
-25.4763
 20
215.624
 11
-25.5
 21
216
  0
LINE
  8
0
 10
-25.5
 20
216
 11
-25.4763
 21
216.376
  0
LINE
  8
0
 10
-25.4763
 20
216.376
 11
-25.4057
 21
216.746
  0
LINE
  8
0
 10
-25.4057
 20
216.746
 11
-25.2893
 21
217.104
  0
LINE
  8
0
 10
-25.2893
 20
217.104
 11
-25.1289
 21
217.445
  0
LINE
  8
0
 10
-25.1289
 20
217.445
 11
-24.927
 21
217.763
  0
LINE
  8
0
 10
-24.927
 20
217.763
 11
-24.6869
 21
218.054
  0
LINE
  8
0
 10
-24.6869
 20
218.054
 11
-24.4123
 21
218.312
  0
LINE
  8
0
 10
-24.4123
 20
218.312
 11
-24.1075
 21
218.533
  0
LINE
  8
0
 10
-24.1075
 20
218.533
 11
-23.7773
 21
218.714
  0
LINE
  8
0
 10
-23.7773
 20
218.714
 11
-23.427
 21
218.853
  0
LINE
  8
0
 10
-23.427
 20
218.853
 11
-23.0621
 21
218.947
  0
LINE
  8
0
 10
-23.0621
 20
218.947
 11
-22.6884
 21
218.994
  0
LINE
  8
0
 10
-22.6884
 20
218.994
 11
-22.3116
 21
218.994
  0
LINE
  8
0
 10
-22.3116
 20
218.994
 11
-21.9379
 21
218.947
  0
LINE
  8
0
 10
-21.9379
 20
218.947
 11
-21.5729
 21
218.853
  0
LINE
  8
0
 10
-21.5729
 20
218.853
 11
-21.2227
 21
218.714
  0
LINE
  8
0
 10
-21.2227
 20
218.714
 11
-20.8925
 21
218.533
  0
LINE
  8
0
 10
-20.8925
 20
218.533
 11
-20.5877
 21
218.312
  0
LINE
  8
0
 10
-20.5877
 20
218.312
 11
-20.3131
 21
218.054
  0
LINE
  8
0
 10
-20.3131
 20
218.054
 11
-20.0729
 21
217.763
  0
LINE
  8
0
 10
-20.0729
 20
217.763
 11
-19.8711
 21
217.445
  0
LINE
  8
0
 10
-19.8711
 20
217.445
 11
-19.7107
 21
217.104
  0
LINE
  8
0
 10
-19.7107
 20
217.104
 11
-19.5942
 21
216.746
  0
LINE
  8
0
 10
-19.5942
 20
216.746
 11
-19.5237
 21
216.376
  0
LINE
  8
0
 10
-19.5237
 20
216.376
 11
-19.5
 21
216
  0
LINE
  8
0
 10
-19.5
 20
216
 11
-19.5237
 21
215.624
  0
LINE
  8
0
 10
-19.5237
 20
215.624
 11
-19.5942
 21
215.254
  0
LINE
  8
0
 10
-19.5942
 20
215.254
 11
-19.7107
 21
214.896
  0
LINE
  8
0
 10
-19.7107
 20
214.896
 11
-19.8711
 21
214.555
  0
LINE
  8
0
 10
-19.8711
 20
214.555
 11
-20.0729
 21
214.237
  0
LINE
  8
0
 10
-20.0729
 20
214.237
 11
-20.3131
 21
213.946
  0
LINE
  8
0
 10
-20.3131
 20
213.946
 11
-20.5877
 21
213.688
  0
LINE
  8
0
 10
-20.5877
 20
213.688
 11
-20.8925
 21
213.467
  0
LINE
  8
0
 10
-20.8925
 20
213.467
 11
-21.2227
 21
213.286
  0
LINE
  8
0
 10
-21.2227
 20
213.286
 11
-21.5729
 21
213.147
  0
LINE
  8
0
 10
-21.5729
 20
213.147
 11
-21.9379
 21
213.053
  0
LINE
  8
0
 10
-21.9379
 20
213.053
 11
-22.3116
 21
213.006
  0
LINE
  8
0
 10
-22.3116
 20
213.006
 11
-22.6884
 21
213.006
  0
LINE
  8
0
 10
22.3116
 20
213.006
 11
21.9379
 21
213.053
  0
LINE
  8
0
 10
21.9379
 20
213.053
 11
21.5729
 21
213.147
  0
LINE
  8
0
 10
21.5729
 20
213.147
 11
21.2227
 21
213.286
  0
LINE
  8
0
 10
21.2227
 20
213.286
 11
20.8925
 21
213.467
  0
LINE
  8
0
 10
20.8925
 20
213.467
 11
20.5877
 21
213.688
  0
LINE
  8
0
 10
20.5877
 20
213.688
 11
20.3131
 21
213.946
  0
LINE
  8
0
 10
20.3131
 20
213.946
 11
20.0729
 21
214.237
  0
LINE
  8
0
 10
20.0729
 20
214.237
 11
19.8711
 21
214.555
  0
LINE
  8
0
 10
19.8711
 20
214.555
 11
19.7107
 21
214.896
  0
LINE
  8
0
 10
19.7107
 20
214.896
 11
19.5942
 21
215.254
  0
LINE
  8
0
 10
19.5942
 20
215.254
 11
19.5237
 21
215.624
  0
LINE
  8
0
 10
19.5237
 20
215.624
 11
19.5
 21
216
  0
LINE
  8
0
 10
19.5
 20
216
 11
19.5237
 21
216.376
  0
LINE
  8
0
 10
19.5237
 20
216.376
 11
19.5942
 21
216.746
  0
LINE
  8
0
 10
19.5942
 20
216.746
 11
19.7107
 21
217.104
  0
LINE
  8
0
 10
19.7107
 20
217.104
 11
19.8711
 21
217.445
  0
LINE
  8
0
 10
19.8711
 20
217.445
 11
20.0729
 21
217.763
  0
LINE
  8
0
 10
20.0729
 20
217.763
 11
20.3131
 21
218.054
  0
LINE
  8
0
 10
20.3131
 20
218.054
 11
20.5877
 21
218.312
  0
LINE
  8
0
 10
20.5877
 20
218.312
 11
20.8925
 21
218.533
  0
LINE
  8
0
 10
20.8925
 20
218.533
 11
21.2227
 21
218.714
  0
LINE
  8
0
 10
21.2227
 20
218.714
 11
21.5729
 21
218.853
  0
LINE
  8
0
 10
21.5729
 20
218.853
 11
21.9379
 21
218.947
  0
LINE
  8
0
 10
21.9379
 20
218.947
 11
22.3116
 21
218.994
  0
LINE
  8
0
 10
22.3116
 20
218.994
 11
22.6884
 21
218.994
  0
LINE
  8
0
 10
22.6884
 20
218.994
 11
23.0621
 21
218.947
  0
LINE
  8
0
 10
23.0621
 20
218.947
 11
23.427
 21
218.853
  0
LINE
  8
0
 10
23.427
 20
218.853
 11
23.7773
 21
218.714
  0
LINE
  8
0
 10
23.7773
 20
218.714
 11
24.1075
 21
218.533
  0
LINE
  8
0
 10
24.1075
 20
218.533
 11
24.4123
 21
218.312
  0
LINE
  8
0
 10
24.4123
 20
218.312
 11
24.6869
 21
218.054
  0
LINE
  8
0
 10
24.6869
 20
218.054
 11
24.927
 21
217.763
  0
LINE
  8
0
 10
24.927
 20
217.763
 11
25.1289
 21
217.445
  0
LINE
  8
0
 10
25.1289
 20
217.445
 11
25.2893
 21
217.104
  0
LINE
  8
0
 10
25.2893
 20
217.104
 11
25.4057
 21
216.746
  0
LINE
  8
0
 10
25.4057
 20
216.746
 11
25.4763
 21
216.376
  0
LINE
  8
0
 10
25.4763
 20
216.376
 11
25.5
 21
216
  0
LINE
  8
0
 10
25.5
 20
216
 11
25.4763
 21
215.624
  0
LINE
  8
0
 10
25.4763
 20
215.624
 11
25.4057
 21
215.254
  0
LINE
  8
0
 10
25.4057
 20
215.254
 11
25.2893
 21
214.896
  0
LINE
  8
0
 10
25.2893
 20
214.896
 11
25.1289
 21
214.555
  0
LINE
  8
0
 10
25.1289
 20
214.555
 11
24.927
 21
214.237
  0
LINE
  8
0
 10
24.927
 20
214.237
 11
24.6869
 21
213.946
  0
LINE
  8
0
 10
24.6869
 20
213.946
 11
24.4123
 21
213.688
  0
LINE
  8
0
 10
24.4123
 20
213.688
 11
24.1075
 21
213.467
  0
LINE
  8
0
 10
24.1075
 20
213.467
 11
23.7773
 21
213.286
  0
LINE
  8
0
 10
23.7773
 20
213.286
 11
23.427
 21
213.147
  0
LINE
  8
0
 10
23.427
 20
213.147
 11
23.0621
 21
213.053
  0
LINE
  8
0
 10
23.0621
 20
213.053
 11
22.6884
 21
213.006
  0
LINE
  8
0
 10
22.6884
 20
213.006
 11
22.3116
 21
213.006
  0
LINE
  8
0
 10
7.31161
 20
198.006
 11
6.93785
 21
198.053
  0
LINE
  8
0
 10
6.93785
 20
198.053
 11
6.57294
 21
198.147
  0
LINE
  8
0
 10
6.57294
 20
198.147
 11
6.22266
 21
198.286
  0
LINE
  8
0
 10
6.22266
 20
198.286
 11
5.89252
 21
198.467
  0
LINE
  8
0
 10
5.89252
 20
198.467
 11
5.58772
 21
198.688
  0
LINE
  8
0
 10
5.58772
 20
198.688
 11
5.31308
 21
198.946
  0
LINE
  8
0
 10
5.31308
 20
198.946
 11
5.07294
 21
199.237
  0
LINE
  8
0
 10
5.07294
 20
199.237
 11
4.87108
 21
199.555
  0
LINE
  8
0
 10
4.87108
 20
199.555
 11
4.71066
 21
199.896
  0
LINE
  8
0
 10
4.71066
 20
199.896
 11
4.59424
 21
200.254
  0
LINE
  8
0
 10
4.59424
 20
200.254
 11
4.52365
 21
200.624
  0
LINE
  8
0
 10
4.52365
 20
200.624
 11
4.5
 21
201
  0
LINE
  8
0
 10
4.5
 20
201
 11
4.52365
 21
201.376
  0
LINE
  8
0
 10
4.52365
 20
201.376
 11
4.59424
 21
201.746
  0
LINE
  8
0
 10
4.59424
 20
201.746
 11
4.71066
 21
202.104
  0
LINE
  8
0
 10
4.71066
 20
202.104
 11
4.87108
 21
202.445
  0
LINE
  8
0
 10
4.87108
 20
202.445
 11
5.07294
 21
202.763
  0
LINE
  8
0
 10
5.07294
 20
202.763
 11
5.31308
 21
203.054
  0
LINE
  8
0
 10
5.31308
 20
203.054
 11
5.58772
 21
203.312
  0
LINE
  8
0
 10
5.58772
 20
203.312
 11
5.89252
 21
203.533
  0
LINE
  8
0
 10
5.89252
 20
203.533
 11
6.22266
 21
203.714
  0
LINE
  8
0
 10
6.22266
 20
203.714
 11
6.57294
 21
203.853
  0
LINE
  8
0
 10
6.57294
 20
203.853
 11
6.93785
 21
203.947
  0
LINE
  8
0
 10
6.93785
 20
203.947
 11
7.31161
 21
203.994
  0
LINE
  8
0
 10
7.31161
 20
203.994
 11
7.68837
 21
203.994
  0
LINE
  8
0
 10
7.68837
 20
203.994
 11
8.06213
 21
203.947
  0
LINE
  8
0
 10
8.06213
 20
203.947
 11
8.42705
 21
203.853
  0
LINE
  8
0
 10
8.42705
 20
203.853
 11
8.77733
 21
203.714
  0
LINE
  8
0
 10
8.77733
 20
203.714
 11
9.10747
 21
203.533
  0
LINE
  8
0
 10
9.10747
 20
203.533
 11
9.41226
 21
203.312
  0
LINE
  8
0
 10
9.41226
 20
203.312
 11
9.6869
 21
203.054
  0
LINE
  8
0
 10
9.6869
 20
203.054
 11
9.92705
 21
202.763
  0
LINE
  8
0
 10
9.92705
 20
202.763
 11
10.1289
 21
202.445
  0
LINE
  8
0
 10
10.1289
 20
202.445
 11
10.2893
 21
202.104
  0
LINE
  8
0
 10
10.2893
 20
202.104
 11
10.4057
 21
201.746
  0
LINE
  8
0
 10
10.4057
 20
201.746
 11
10.4763
 21
201.376
  0
LINE
  8
0
 10
10.4763
 20
201.376
 11
10.5
 21
201
  0
LINE
  8
0
 10
10.5
 20
201
 11
10.4763
 21
200.624
  0
LINE
  8
0
 10
10.4763
 20
200.624
 11
10.4057
 21
200.254
  0
LINE
  8
0
 10
10.4057
 20
200.254
 11
10.2893
 21
199.896
  0
LINE
  8
0
 10
10.2893
 20
199.896
 11
10.1289
 21
199.555
  0
LINE
  8
0
 10
10.1289
 20
199.555
 11
9.92705
 21
199.237
  0
LINE
  8
0
 10
9.92705
 20
199.237
 11
9.6869
 21
198.946
  0
LINE
  8
0
 10
9.6869
 20
198.946
 11
9.41226
 21
198.688
  0
LINE
  8
0
 10
9.41226
 20
198.688
 11
9.10747
 21
198.467
  0
LINE
  8
0
 10
9.10747
 20
198.467
 11
8.77733
 21
198.286
  0
LINE
  8
0
 10
8.77733
 20
198.286
 11
8.42705
 21
198.147
  0
LINE
  8
0
 10
8.42705
 20
198.147
 11
8.06213
 21
198.053
  0
LINE
  8
0
 10
8.06213
 20
198.053
 11
7.68837
 21
198.006
  0
LINE
  8
0
 10
7.68837
 20
198.006
 11
7.31161
 21
198.006
  0
LINE
  8
0
 10
37.3116
 20
198.006
 11
36.9379
 21
198.053
  0
LINE
  8
0
 10
36.9379
 20
198.053
 11
36.5729
 21
198.147
  0
LINE
  8
0
 10
36.5729
 20
198.147
 11
36.2227
 21
198.286
  0
LINE
  8
0
 10
36.2227
 20
198.286
 11
35.8925
 21
198.467
  0
LINE
  8
0
 10
35.8925
 20
198.467
 11
35.5877
 21
198.688
  0
LINE
  8
0
 10
35.5877
 20
198.688
 11
35.3131
 21
198.946
  0
LINE
  8
0
 10
35.3131
 20
198.946
 11
35.0729
 21
199.237
  0
LINE
  8
0
 10
35.0729
 20
199.237
 11
34.8711
 21
199.555
  0
LINE
  8
0
 10
34.8711
 20
199.555
 11
34.7107
 21
199.896
  0
LINE
  8
0
 10
34.7107
 20
199.896
 11
34.5942
 21
200.254
  0
LINE
  8
0
 10
34.5942
 20
200.254
 11
34.5237
 21
200.624
  0
LINE
  8
0
 10
34.5237
 20
200.624
 11
34.5
 21
201
  0
LINE
  8
0
 10
34.5
 20
201
 11
34.5237
 21
201.376
  0
LINE
  8
0
 10
34.5237
 20
201.376
 11
34.5942
 21
201.746
  0
LINE
  8
0
 10
34.5942
 20
201.746
 11
34.7107
 21
202.104
  0
LINE
  8
0
 10
34.7107
 20
202.104
 11
34.8711
 21
202.445
  0
LINE
  8
0
 10
34.8711
 20
202.445
 11
35.0729
 21
202.763
  0
LINE
  8
0
 10
35.0729
 20
202.763
 11
35.3131
 21
203.054
  0
LINE
  8
0
 10
35.3131
 20
203.054
 11
35.5877
 21
203.312
  0
LINE
  8
0
 10
35.5877
 20
203.312
 11
35.8925
 21
203.533
  0
LINE
  8
0
 10
35.8925
 20
203.533
 11
36.2227
 21
203.714
  0
LINE
  8
0
 10
36.2227
 20
203.714
 11
36.5729
 21
203.853
  0
LINE
  8
0
 10
36.5729
 20
203.853
 11
36.9379
 21
203.947
  0
LINE
  8
0
 10
36.9379
 20
203.947
 11
37.3116
 21
203.994
  0
LINE
  8
0
 10
37.3116
 20
203.994
 11
37.6884
 21
203.994
  0
LINE
  8
0
 10
37.6884
 20
203.994
 11
38.0621
 21
203.947
  0
LINE
  8
0
 10
38.0621
 20
203.947
 11
38.427
 21
203.853
  0
LINE
  8
0
 10
38.427
 20
203.853
 11
38.7773
 21
203.714
  0
LINE
  8
0
 10
38.7773
 20
203.714
 11
39.1075
 21
203.533
  0
LINE
  8
0
 10
39.1075
 20
203.533
 11
39.4123
 21
203.312
  0
LINE
  8
0
 10
39.4123
 20
203.312
 11
39.6869
 21
203.054
  0
LINE
  8
0
 10
39.6869
 20
203.054
 11
39.927
 21
202.763
  0
LINE
  8
0
 10
39.927
 20
202.763
 11
40.1289
 21
202.445
  0
LINE
  8
0
 10
40.1289
 20
202.445
 11
40.2893
 21
202.104
  0
LINE
  8
0
 10
40.2893
 20
202.104
 11
40.4057
 21
201.746
  0
LINE
  8
0
 10
40.4057
 20
201.746
 11
40.4763
 21
201.376
  0
LINE
  8
0
 10
40.4763
 20
201.376
 11
40.5
 21
201
  0
LINE
  8
0
 10
40.5
 20
201
 11
40.4763
 21
200.624
  0
LINE
  8
0
 10
40.4763
 20
200.624
 11
40.4057
 21
200.254
  0
LINE
  8
0
 10
40.4057
 20
200.254
 11
40.2893
 21
199.896
  0
LINE
  8
0
 10
40.2893
 20
199.896
 11
40.1289
 21
199.555
  0
LINE
  8
0
 10
40.1289
 20
199.555
 11
39.927
 21
199.237
  0
LINE
  8
0
 10
39.927
 20
199.237
 11
39.6869
 21
198.946
  0
LINE
  8
0
 10
39.6869
 20
198.946
 11
39.4123
 21
198.688
  0
LINE
  8
0
 10
39.4123
 20
198.688
 11
39.1075
 21
198.467
  0
LINE
  8
0
 10
39.1075
 20
198.467
 11
38.7773
 21
198.286
  0
LINE
  8
0
 10
38.7773
 20
198.286
 11
38.427
 21
198.147
  0
LINE
  8
0
 10
38.427
 20
198.147
 11
38.0621
 21
198.053
  0
LINE
  8
0
 10
38.0621
 20
198.053
 11
37.6884
 21
198.006
  0
LINE
  8
0
 10
37.6884
 20
198.006
 11
37.3116
 21
198.006
  0
LINE
  8
0
 10
22.3116
 20
198.006
 11
21.9379
 21
198.053
  0
LINE
  8
0
 10
21.9379
 20
198.053
 11
21.5729
 21
198.147
  0
LINE
  8
0
 10
21.5729
 20
198.147
 11
21.2227
 21
198.286
  0
LINE
  8
0
 10
21.2227
 20
198.286
 11
20.8925
 21
198.467
  0
LINE
  8
0
 10
20.8925
 20
198.467
 11
20.5877
 21
198.688
  0
LINE
  8
0
 10
20.5877
 20
198.688
 11
20.3131
 21
198.946
  0
LINE
  8
0
 10
20.3131
 20
198.946
 11
20.0729
 21
199.237
  0
LINE
  8
0
 10
20.0729
 20
199.237
 11
19.8711
 21
199.555
  0
LINE
  8
0
 10
19.8711
 20
199.555
 11
19.7107
 21
199.896
  0
LINE
  8
0
 10
19.7107
 20
199.896
 11
19.5942
 21
200.254
  0
LINE
  8
0
 10
19.5942
 20
200.254
 11
19.5237
 21
200.624
  0
LINE
  8
0
 10
19.5237
 20
200.624
 11
19.5
 21
201
  0
LINE
  8
0
 10
19.5
 20
201
 11
19.5237
 21
201.376
  0
LINE
  8
0
 10
19.5237
 20
201.376
 11
19.5942
 21
201.746
  0
LINE
  8
0
 10
19.5942
 20
201.746
 11
19.7107
 21
202.104
  0
LINE
  8
0
 10
19.7107
 20
202.104
 11
19.8711
 21
202.445
  0
LINE
  8
0
 10
19.8711
 20
202.445
 11
20.0729
 21
202.763
  0
LINE
  8
0
 10
20.0729
 20
202.763
 11
20.3131
 21
203.054
  0
LINE
  8
0
 10
20.3131
 20
203.054
 11
20.5877
 21
203.312
  0
LINE
  8
0
 10
20.5877
 20
203.312
 11
20.8925
 21
203.533
  0
LINE
  8
0
 10
20.8925
 20
203.533
 11
21.2227
 21
203.714
  0
LINE
  8
0
 10
21.2227
 20
203.714
 11
21.5729
 21
203.853
  0
LINE
  8
0
 10
21.5729
 20
203.853
 11
21.9379
 21
203.947
  0
LINE
  8
0
 10
21.9379
 20
203.947
 11
22.3116
 21
203.994
  0
LINE
  8
0
 10
22.3116
 20
203.994
 11
22.6884
 21
203.994
  0
LINE
  8
0
 10
22.6884
 20
203.994
 11
23.0621
 21
203.947
  0
LINE
  8
0
 10
23.0621
 20
203.947
 11
23.427
 21
203.853
  0
LINE
  8
0
 10
23.427
 20
203.853
 11
23.7773
 21
203.714
  0
LINE
  8
0
 10
23.7773
 20
203.714
 11
24.1075
 21
203.533
  0
LINE
  8
0
 10
24.1075
 20
203.533
 11
24.4123
 21
203.312
  0
LINE
  8
0
 10
24.4123
 20
203.312
 11
24.6869
 21
203.054
  0
LINE
  8
0
 10
24.6869
 20
203.054
 11
24.927
 21
202.763
  0
LINE
  8
0
 10
24.927
 20
202.763
 11
25.1289
 21
202.445
  0
LINE
  8
0
 10
25.1289
 20
202.445
 11
25.2893
 21
202.104
  0
LINE
  8
0
 10
25.2893
 20
202.104
 11
25.4057
 21
201.746
  0
LINE
  8
0
 10
25.4057
 20
201.746
 11
25.4763
 21
201.376
  0
LINE
  8
0
 10
25.4763
 20
201.376
 11
25.5
 21
201
  0
LINE
  8
0
 10
25.5
 20
201
 11
25.4763
 21
200.624
  0
LINE
  8
0
 10
25.4763
 20
200.624
 11
25.4057
 21
200.254
  0
LINE
  8
0
 10
25.4057
 20
200.254
 11
25.2893
 21
199.896
  0
LINE
  8
0
 10
25.2893
 20
199.896
 11
25.1289
 21
199.555
  0
LINE
  8
0
 10
25.1289
 20
199.555
 11
24.927
 21
199.237
  0
LINE
  8
0
 10
24.927
 20
199.237
 11
24.6869
 21
198.946
  0
LINE
  8
0
 10
24.6869
 20
198.946
 11
24.4123
 21
198.688
  0
LINE
  8
0
 10
24.4123
 20
198.688
 11
24.1075
 21
198.467
  0
LINE
  8
0
 10
24.1075
 20
198.467
 11
23.7773
 21
198.286
  0
LINE
  8
0
 10
23.7773
 20
198.286
 11
23.427
 21
198.147
  0
LINE
  8
0
 10
23.427
 20
198.147
 11
23.0621
 21
198.053
  0
LINE
  8
0
 10
23.0621
 20
198.053
 11
22.6884
 21
198.006
  0
LINE
  8
0
 10
22.6884
 20
198.006
 11
22.3116
 21
198.006
  0
LINE
  8
0
 10
-22.6884
 20
198.006
 11
-23.0621
 21
198.053
  0
LINE
  8
0
 10
-23.0621
 20
198.053
 11
-23.427
 21
198.147
  0
LINE
  8
0
 10
-23.427
 20
198.147
 11
-23.7773
 21
198.286
  0
LINE
  8
0
 10
-23.7773
 20
198.286
 11
-24.1075
 21
198.467
  0
LINE
  8
0
 10
-24.1075
 20
198.467
 11
-24.4123
 21
198.688
  0
LINE
  8
0
 10
-24.4123
 20
198.688
 11
-24.6869
 21
198.946
  0
LINE
  8
0
 10
-24.6869
 20
198.946
 11
-24.927
 21
199.237
  0
LINE
  8
0
 10
-24.927
 20
199.237
 11
-25.1289
 21
199.555
  0
LINE
  8
0
 10
-25.1289
 20
199.555
 11
-25.2893
 21
199.896
  0
LINE
  8
0
 10
-25.2893
 20
199.896
 11
-25.4057
 21
200.254
  0
LINE
  8
0
 10
-25.4057
 20
200.254
 11
-25.4763
 21
200.624
  0
LINE
  8
0
 10
-25.4763
 20
200.624
 11
-25.5
 21
201
  0
LINE
  8
0
 10
-25.5
 20
201
 11
-25.4763
 21
201.376
  0
LINE
  8
0
 10
-25.4763
 20
201.376
 11
-25.4057
 21
201.746
  0
LINE
  8
0
 10
-25.4057
 20
201.746
 11
-25.2893
 21
202.104
  0
LINE
  8
0
 10
-25.2893
 20
202.104
 11
-25.1289
 21
202.445
  0
LINE
  8
0
 10
-25.1289
 20
202.445
 11
-24.927
 21
202.763
  0
LINE
  8
0
 10
-24.927
 20
202.763
 11
-24.6869
 21
203.054
  0
LINE
  8
0
 10
-24.6869
 20
203.054
 11
-24.4123
 21
203.312
  0
LINE
  8
0
 10
-24.4123
 20
203.312
 11
-24.1075
 21
203.533
  0
LINE
  8
0
 10
-24.1075
 20
203.533
 11
-23.7773
 21
203.714
  0
LINE
  8
0
 10
-23.7773
 20
203.714
 11
-23.427
 21
203.853
  0
LINE
  8
0
 10
-23.427
 20
203.853
 11
-23.0621
 21
203.947
  0
LINE
  8
0
 10
-23.0621
 20
203.947
 11
-22.6884
 21
203.994
  0
LINE
  8
0
 10
-22.6884
 20
203.994
 11
-22.3116
 21
203.994
  0
LINE
  8
0
 10
-22.3116
 20
203.994
 11
-21.9379
 21
203.947
  0
LINE
  8
0
 10
-21.9379
 20
203.947
 11
-21.5729
 21
203.853
  0
LINE
  8
0
 10
-21.5729
 20
203.853
 11
-21.2227
 21
203.714
  0
LINE
  8
0
 10
-21.2227
 20
203.714
 11
-20.8925
 21
203.533
  0
LINE
  8
0
 10
-20.8925
 20
203.533
 11
-20.5877
 21
203.312
  0
LINE
  8
0
 10
-20.5877
 20
203.312
 11
-20.3131
 21
203.054
  0
LINE
  8
0
 10
-20.3131
 20
203.054
 11
-20.0729
 21
202.763
  0
LINE
  8
0
 10
-20.0729
 20
202.763
 11
-19.8711
 21
202.445
  0
LINE
  8
0
 10
-19.8711
 20
202.445
 11
-19.7107
 21
202.104
  0
LINE
  8
0
 10
-19.7107
 20
202.104
 11
-19.5942
 21
201.746
  0
LINE
  8
0
 10
-19.5942
 20
201.746
 11
-19.5237
 21
201.376
  0
LINE
  8
0
 10
-19.5237
 20
201.376
 11
-19.5
 21
201
  0
LINE
  8
0
 10
-19.5
 20
201
 11
-19.5237
 21
200.624
  0
LINE
  8
0
 10
-19.5237
 20
200.624
 11
-19.5942
 21
200.254
  0
LINE
  8
0
 10
-19.5942
 20
200.254
 11
-19.7107
 21
199.896
  0
LINE
  8
0
 10
-19.7107
 20
199.896
 11
-19.8711
 21
199.555
  0
LINE
  8
0
 10
-19.8711
 20
199.555
 11
-20.0729
 21
199.237
  0
LINE
  8
0
 10
-20.0729
 20
199.237
 11
-20.3131
 21
198.946
  0
LINE
  8
0
 10
-20.3131
 20
198.946
 11
-20.5877
 21
198.688
  0
LINE
  8
0
 10
-20.5877
 20
198.688
 11
-20.8925
 21
198.467
  0
LINE
  8
0
 10
-20.8925
 20
198.467
 11
-21.2227
 21
198.286
  0
LINE
  8
0
 10
-21.2227
 20
198.286
 11
-21.5729
 21
198.147
  0
LINE
  8
0
 10
-21.5729
 20
198.147
 11
-21.9379
 21
198.053
  0
LINE
  8
0
 10
-21.9379
 20
198.053
 11
-22.3116
 21
198.006
  0
LINE
  8
0
 10
-22.3116
 20
198.006
 11
-22.6884
 21
198.006
  0
LINE
  8
0
 10
-37.6884
 20
198.006
 11
-38.0621
 21
198.053
  0
LINE
  8
0
 10
-38.0621
 20
198.053
 11
-38.427
 21
198.147
  0
LINE
  8
0
 10
-38.427
 20
198.147
 11
-38.7773
 21
198.286
  0
LINE
  8
0
 10
-38.7773
 20
198.286
 11
-39.1075
 21
198.467
  0
LINE
  8
0
 10
-39.1075
 20
198.467
 11
-39.4123
 21
198.688
  0
LINE
  8
0
 10
-39.4123
 20
198.688
 11
-39.6869
 21
198.946
  0
LINE
  8
0
 10
-39.6869
 20
198.946
 11
-39.927
 21
199.237
  0
LINE
  8
0
 10
-39.927
 20
199.237
 11
-40.1289
 21
199.555
  0
LINE
  8
0
 10
-40.1289
 20
199.555
 11
-40.2893
 21
199.896
  0
LINE
  8
0
 10
-40.2893
 20
199.896
 11
-40.4057
 21
200.254
  0
LINE
  8
0
 10
-40.4057
 20
200.254
 11
-40.4763
 21
200.624
  0
LINE
  8
0
 10
-40.4763
 20
200.624
 11
-40.5
 21
201
  0
LINE
  8
0
 10
-40.5
 20
201
 11
-40.4763
 21
201.376
  0
LINE
  8
0
 10
-40.4763
 20
201.376
 11
-40.4057
 21
201.746
  0
LINE
  8
0
 10
-40.4057
 20
201.746
 11
-40.2893
 21
202.104
  0
LINE
  8
0
 10
-40.2893
 20
202.104
 11
-40.1289
 21
202.445
  0
LINE
  8
0
 10
-40.1289
 20
202.445
 11
-39.927
 21
202.763
  0
LINE
  8
0
 10
-39.927
 20
202.763
 11
-39.6869
 21
203.054
  0
LINE
  8
0
 10
-39.6869
 20
203.054
 11
-39.4123
 21
203.312
  0
LINE
  8
0
 10
-39.4123
 20
203.312
 11
-39.1075
 21
203.533
  0
LINE
  8
0
 10
-39.1075
 20
203.533
 11
-38.7773
 21
203.714
  0
LINE
  8
0
 10
-38.7773
 20
203.714
 11
-38.427
 21
203.853
  0
LINE
  8
0
 10
-38.427
 20
203.853
 11
-38.0621
 21
203.947
  0
LINE
  8
0
 10
-38.0621
 20
203.947
 11
-37.6884
 21
203.994
  0
LINE
  8
0
 10
-37.6884
 20
203.994
 11
-37.3116
 21
203.994
  0
LINE
  8
0
 10
-37.3116
 20
203.994
 11
-36.9379
 21
203.947
  0
LINE
  8
0
 10
-36.9379
 20
203.947
 11
-36.5729
 21
203.853
  0
LINE
  8
0
 10
-36.5729
 20
203.853
 11
-36.2227
 21
203.714
  0
LINE
  8
0
 10
-36.2227
 20
203.714
 11
-35.8925
 21
203.533
  0
LINE
  8
0
 10
-35.8925
 20
203.533
 11
-35.5877
 21
203.312
  0
LINE
  8
0
 10
-35.5877
 20
203.312
 11
-35.3131
 21
203.054
  0
LINE
  8
0
 10
-35.3131
 20
203.054
 11
-35.0729
 21
202.763
  0
LINE
  8
0
 10
-35.0729
 20
202.763
 11
-34.8711
 21
202.445
  0
LINE
  8
0
 10
-34.8711
 20
202.445
 11
-34.7107
 21
202.104
  0
LINE
  8
0
 10
-34.7107
 20
202.104
 11
-34.5942
 21
201.746
  0
LINE
  8
0
 10
-34.5942
 20
201.746
 11
-34.5237
 21
201.376
  0
LINE
  8
0
 10
-34.5237
 20
201.376
 11
-34.5
 21
201
  0
LINE
  8
0
 10
-34.5
 20
201
 11
-34.5237
 21
200.624
  0
LINE
  8
0
 10
-34.5237
 20
200.624
 11
-34.5942
 21
200.254
  0
LINE
  8
0
 10
-34.5942
 20
200.254
 11
-34.7107
 21
199.896
  0
LINE
  8
0
 10
-34.7107
 20
199.896
 11
-34.8711
 21
199.555
  0
LINE
  8
0
 10
-34.8711
 20
199.555
 11
-35.0729
 21
199.237
  0
LINE
  8
0
 10
-35.0729
 20
199.237
 11
-35.3131
 21
198.946
  0
LINE
  8
0
 10
-35.3131
 20
198.946
 11
-35.5877
 21
198.688
  0
LINE
  8
0
 10
-35.5877
 20
198.688
 11
-35.8925
 21
198.467
  0
LINE
  8
0
 10
-35.8925
 20
198.467
 11
-36.2227
 21
198.286
  0
LINE
  8
0
 10
-36.2227
 20
198.286
 11
-36.5729
 21
198.147
  0
LINE
  8
0
 10
-36.5729
 20
198.147
 11
-36.9379
 21
198.053
  0
LINE
  8
0
 10
-36.9379
 20
198.053
 11
-37.3116
 21
198.006
  0
LINE
  8
0
 10
-37.3116
 20
198.006
 11
-37.6884
 21
198.006
  0
LINE
  8
0
 10
-7.68837
 20
198.006
 11
-8.06213
 21
198.053
  0
LINE
  8
0
 10
-8.06213
 20
198.053
 11
-8.42705
 21
198.147
  0
LINE
  8
0
 10
-8.42705
 20
198.147
 11
-8.77733
 21
198.286
  0
LINE
  8
0
 10
-8.77733
 20
198.286
 11
-9.10747
 21
198.467
  0
LINE
  8
0
 10
-9.10747
 20
198.467
 11
-9.41226
 21
198.688
  0
LINE
  8
0
 10
-9.41226
 20
198.688
 11
-9.6869
 21
198.946
  0
LINE
  8
0
 10
-9.6869
 20
198.946
 11
-9.92705
 21
199.237
  0
LINE
  8
0
 10
-9.92705
 20
199.237
 11
-10.1289
 21
199.555
  0
LINE
  8
0
 10
-10.1289
 20
199.555
 11
-10.2893
 21
199.896
  0
LINE
  8
0
 10
-10.2893
 20
199.896
 11
-10.4057
 21
200.254
  0
LINE
  8
0
 10
-10.4057
 20
200.254
 11
-10.4763
 21
200.624
  0
LINE
  8
0
 10
-10.4763
 20
200.624
 11
-10.5
 21
201
  0
LINE
  8
0
 10
-10.5
 20
201
 11
-10.4763
 21
201.376
  0
LINE
  8
0
 10
-10.4763
 20
201.376
 11
-10.4057
 21
201.746
  0
LINE
  8
0
 10
-10.4057
 20
201.746
 11
-10.2893
 21
202.104
  0
LINE
  8
0
 10
-10.2893
 20
202.104
 11
-10.1289
 21
202.445
  0
LINE
  8
0
 10
-10.1289
 20
202.445
 11
-9.92705
 21
202.763
  0
LINE
  8
0
 10
-9.92705
 20
202.763
 11
-9.6869
 21
203.054
  0
LINE
  8
0
 10
-9.6869
 20
203.054
 11
-9.41226
 21
203.312
  0
LINE
  8
0
 10
-9.41226
 20
203.312
 11
-9.10747
 21
203.533
  0
LINE
  8
0
 10
-9.10747
 20
203.533
 11
-8.77733
 21
203.714
  0
LINE
  8
0
 10
-8.77733
 20
203.714
 11
-8.42705
 21
203.853
  0
LINE
  8
0
 10
-8.42705
 20
203.853
 11
-8.06213
 21
203.947
  0
LINE
  8
0
 10
-8.06213
 20
203.947
 11
-7.68837
 21
203.994
  0
LINE
  8
0
 10
-7.68837
 20
203.994
 11
-7.31161
 21
203.994
  0
LINE
  8
0
 10
-7.31161
 20
203.994
 11
-6.93785
 21
203.947
  0
LINE
  8
0
 10
-6.93785
 20
203.947
 11
-6.57294
 21
203.853
  0
LINE
  8
0
 10
-6.57294
 20
203.853
 11
-6.22266
 21
203.714
  0
LINE
  8
0
 10
-6.22266
 20
203.714
 11
-5.89252
 21
203.533
  0
LINE
  8
0
 10
-5.89252
 20
203.533
 11
-5.58772
 21
203.312
  0
LINE
  8
0
 10
-5.58772
 20
203.312
 11
-5.31308
 21
203.054
  0
LINE
  8
0
 10
-5.31308
 20
203.054
 11
-5.07294
 21
202.763
  0
LINE
  8
0
 10
-5.07294
 20
202.763
 11
-4.87108
 21
202.445
  0
LINE
  8
0
 10
-4.87108
 20
202.445
 11
-4.71066
 21
202.104
  0
LINE
  8
0
 10
-4.71066
 20
202.104
 11
-4.59424
 21
201.746
  0
LINE
  8
0
 10
-4.59424
 20
201.746
 11
-4.52365
 21
201.376
  0
LINE
  8
0
 10
-4.52365
 20
201.376
 11
-4.5
 21
201
  0
LINE
  8
0
 10
-4.5
 20
201
 11
-4.52365
 21
200.624
  0
LINE
  8
0
 10
-4.52365
 20
200.624
 11
-4.59424
 21
200.254
  0
LINE
  8
0
 10
-4.59424
 20
200.254
 11
-4.71066
 21
199.896
  0
LINE
  8
0
 10
-4.71066
 20
199.896
 11
-4.87108
 21
199.555
  0
LINE
  8
0
 10
-4.87108
 20
199.555
 11
-5.07294
 21
199.237
  0
LINE
  8
0
 10
-5.07294
 20
199.237
 11
-5.31308
 21
198.946
  0
LINE
  8
0
 10
-5.31308
 20
198.946
 11
-5.58772
 21
198.688
  0
LINE
  8
0
 10
-5.58772
 20
198.688
 11
-5.89252
 21
198.467
  0
LINE
  8
0
 10
-5.89252
 20
198.467
 11
-6.22266
 21
198.286
  0
LINE
  8
0
 10
-6.22266
 20
198.286
 11
-6.57294
 21
198.147
  0
LINE
  8
0
 10
-6.57294
 20
198.147
 11
-6.93785
 21
198.053
  0
LINE
  8
0
 10
-6.93785
 20
198.053
 11
-7.31161
 21
198.006
  0
LINE
  8
0
 10
-7.31161
 20
198.006
 11
-7.68837
 21
198.006
  0
LINE
  8
0
 10
40.4369
 20
140.089
 11
41.0451
 21
140.245
  0
LINE
  8
0
 10
41.0451
 20
140.245
 11
41.6289
 21
140.476
  0
LINE
  8
0
 10
41.6289
 20
140.476
 11
42.1791
 21
140.778
  0
LINE
  8
0
 10
42.1791
 20
140.778
 11
42.6871
 21
141.147
  0
LINE
  8
0
 10
42.6871
 20
141.147
 11
43.1448
 21
141.577
  0
LINE
  8
0
 10
43.1448
 20
141.577
 11
43.5451
 21
142.061
  0
LINE
  8
0
 10
43.5451
 20
142.061
 11
43.8815
 21
142.591
  0
LINE
  8
0
 10
43.8815
 20
142.591
 11
44.1489
 21
143.159
  0
LINE
  8
0
 10
44.1489
 20
143.159
 11
44.3429
 21
143.757
  0
LINE
  8
0
 10
44.3429
 20
143.757
 11
44.4606
 21
144.373
  0
LINE
  8
0
 10
44.4606
 20
144.373
 11
44.5
 21
145
  0
LINE
  8
0
 10
44.5
 20
145
 11
44.5
 21
179
  0
LINE
  8
0
 10
44.5
 20
179
 11
44.4606
 21
179.627
  0
LINE
  8
0
 10
44.4606
 20
179.627
 11
44.3429
 21
180.243
  0
LINE
  8
0
 10
44.3429
 20
180.243
 11
44.1489
 21
180.841
  0
LINE
  8
0
 10
44.1489
 20
180.841
 11
43.8815
 21
181.409
  0
LINE
  8
0
 10
43.8815
 20
181.409
 11
43.5451
 21
181.939
  0
LINE
  8
0
 10
43.5451
 20
181.939
 11
43.1448
 21
182.423
  0
LINE
  8
0
 10
43.1448
 20
182.423
 11
42.6871
 21
182.853
  0
LINE
  8
0
 10
42.6871
 20
182.853
 11
42.1791
 21
183.222
  0
LINE
  8
0
 10
42.1791
 20
183.222
 11
41.6289
 21
183.524
  0
LINE
  8
0
 10
41.6289
 20
183.524
 11
41.0451
 21
183.755
  0
LINE
  8
0
 10
41.0451
 20
183.755
 11
40.4369
 21
183.911
  0
LINE
  8
0
 10
40.4369
 20
183.911
 11
39.8139
 21
183.99
  0
LINE
  8
0
 10
39.8139
 20
183.99
 11
-39.8139
 21
183.99
  0
LINE
  8
0
 10
-39.8139
 20
183.99
 11
-40.4369
 21
183.911
  0
LINE
  8
0
 10
-40.4369
 20
183.911
 11
-41.0451
 21
183.755
  0
LINE
  8
0
 10
-41.0451
 20
183.755
 11
-41.6289
 21
183.524
  0
LINE
  8
0
 10
-41.6289
 20
183.524
 11
-42.1791
 21
183.222
  0
LINE
  8
0
 10
-42.1791
 20
183.222
 11
-42.6871
 21
182.853
  0
LINE
  8
0
 10
-42.6871
 20
182.853
 11
-43.1448
 21
182.423
  0
LINE
  8
0
 10
-43.1448
 20
182.423
 11
-43.5451
 21
181.939
  0
LINE
  8
0
 10
-43.5451
 20
181.939
 11
-43.8815
 21
181.409
  0
LINE
  8
0
 10
-43.8815
 20
181.409
 11
-44.1489
 21
180.841
  0
LINE
  8
0
 10
-44.1489
 20
180.841
 11
-44.3429
 21
180.243
  0
LINE
  8
0
 10
-44.3429
 20
180.243
 11
-44.4606
 21
179.627
  0
LINE
  8
0
 10
-44.4606
 20
179.627
 11
-44.5
 21
179
  0
LINE
  8
0
 10
-44.5
 20
179
 11
-44.5
 21
145
  0
LINE
  8
0
 10
-44.5
 20
145
 11
-44.4606
 21
144.373
  0
LINE
  8
0
 10
-44.4606
 20
144.373
 11
-44.3429
 21
143.757
  0
LINE
  8
0
 10
-44.3429
 20
143.757
 11
-44.1489
 21
143.159
  0
LINE
  8
0
 10
-44.1489
 20
143.159
 11
-43.8815
 21
142.591
  0
LINE
  8
0
 10
-43.8815
 20
142.591
 11
-43.5451
 21
142.061
  0
LINE
  8
0
 10
-43.5451
 20
142.061
 11
-43.1448
 21
141.577
  0
LINE
  8
0
 10
-43.1448
 20
141.577
 11
-42.6871
 21
141.147
  0
LINE
  8
0
 10
-42.6871
 20
141.147
 11
-42.1791
 21
140.778
  0
LINE
  8
0
 10
-42.1791
 20
140.778
 11
-41.6289
 21
140.476
  0
LINE
  8
0
 10
-41.6289
 20
140.476
 11
-41.0451
 21
140.245
  0
LINE
  8
0
 10
-41.0451
 20
140.245
 11
-40.4369
 21
140.089
  0
LINE
  8
0
 10
-40.4369
 20
140.089
 11
-39.8139
 21
140.01
  0
LINE
  8
0
 10
-39.8139
 20
140.01
 11
39.8139
 21
140.01
  0
LINE
  8
0
 10
39.8139
 20
140.01
 11
40.4369
 21
140.089
  0
LINE
  8
0
 10
-22.6884
 20
174.006
 11
-23.0621
 21
174.053
  0
LINE
  8
0
 10
-23.0621
 20
174.053
 11
-23.427
 21
174.147
  0
LINE
  8
0
 10
-23.427
 20
174.147
 11
-23.7773
 21
174.286
  0
LINE
  8
0
 10
-23.7773
 20
174.286
 11
-24.1075
 21
174.467
  0
LINE
  8
0
 10
-24.1075
 20
174.467
 11
-24.4123
 21
174.688
  0
LINE
  8
0
 10
-24.4123
 20
174.688
 11
-24.6869
 21
174.946
  0
LINE
  8
0
 10
-24.6869
 20
174.946
 11
-24.927
 21
175.237
  0
LINE
  8
0
 10
-24.927
 20
175.237
 11
-25.1289
 21
175.555
  0
LINE
  8
0
 10
-25.1289
 20
175.555
 11
-25.2893
 21
175.896
  0
LINE
  8
0
 10
-25.2893
 20
175.896
 11
-25.4057
 21
176.254
  0
LINE
  8
0
 10
-25.4057
 20
176.254
 11
-25.4763
 21
176.624
  0
LINE
  8
0
 10
-25.4763
 20
176.624
 11
-25.5
 21
177
  0
LINE
  8
0
 10
-25.5
 20
177
 11
-25.4763
 21
177.376
  0
LINE
  8
0
 10
-25.4763
 20
177.376
 11
-25.4057
 21
177.746
  0
LINE
  8
0
 10
-25.4057
 20
177.746
 11
-25.2893
 21
178.104
  0
LINE
  8
0
 10
-25.2893
 20
178.104
 11
-25.1289
 21
178.445
  0
LINE
  8
0
 10
-25.1289
 20
178.445
 11
-24.927
 21
178.763
  0
LINE
  8
0
 10
-24.927
 20
178.763
 11
-24.6869
 21
179.054
  0
LINE
  8
0
 10
-24.6869
 20
179.054
 11
-24.4123
 21
179.312
  0
LINE
  8
0
 10
-24.4123
 20
179.312
 11
-24.1075
 21
179.533
  0
LINE
  8
0
 10
-24.1075
 20
179.533
 11
-23.7773
 21
179.714
  0
LINE
  8
0
 10
-23.7773
 20
179.714
 11
-23.427
 21
179.853
  0
LINE
  8
0
 10
-23.427
 20
179.853
 11
-23.0621
 21
179.947
  0
LINE
  8
0
 10
-23.0621
 20
179.947
 11
-22.6884
 21
179.994
  0
LINE
  8
0
 10
-22.6884
 20
179.994
 11
-22.3116
 21
179.994
  0
LINE
  8
0
 10
-22.3116
 20
179.994
 11
-21.9379
 21
179.947
  0
LINE
  8
0
 10
-21.9379
 20
179.947
 11
-21.5729
 21
179.853
  0
LINE
  8
0
 10
-21.5729
 20
179.853
 11
-21.2227
 21
179.714
  0
LINE
  8
0
 10
-21.2227
 20
179.714
 11
-20.8925
 21
179.533
  0
LINE
  8
0
 10
-20.8925
 20
179.533
 11
-20.5877
 21
179.312
  0
LINE
  8
0
 10
-20.5877
 20
179.312
 11
-20.3131
 21
179.054
  0
LINE
  8
0
 10
-20.3131
 20
179.054
 11
-20.0729
 21
178.763
  0
LINE
  8
0
 10
-20.0729
 20
178.763
 11
-19.8711
 21
178.445
  0
LINE
  8
0
 10
-19.8711
 20
178.445
 11
-19.7107
 21
178.104
  0
LINE
  8
0
 10
-19.7107
 20
178.104
 11
-19.5942
 21
177.746
  0
LINE
  8
0
 10
-19.5942
 20
177.746
 11
-19.5237
 21
177.376
  0
LINE
  8
0
 10
-19.5237
 20
177.376
 11
-19.5
 21
177
  0
LINE
  8
0
 10
-19.5
 20
177
 11
-19.5237
 21
176.624
  0
LINE
  8
0
 10
-19.5237
 20
176.624
 11
-19.5942
 21
176.254
  0
LINE
  8
0
 10
-19.5942
 20
176.254
 11
-19.7107
 21
175.896
  0
LINE
  8
0
 10
-19.7107
 20
175.896
 11
-19.8711
 21
175.555
  0
LINE
  8
0
 10
-19.8711
 20
175.555
 11
-20.0729
 21
175.237
  0
LINE
  8
0
 10
-20.0729
 20
175.237
 11
-20.3131
 21
174.946
  0
LINE
  8
0
 10
-20.3131
 20
174.946
 11
-20.5877
 21
174.688
  0
LINE
  8
0
 10
-20.5877
 20
174.688
 11
-20.8925
 21
174.467
  0
LINE
  8
0
 10
-20.8925
 20
174.467
 11
-21.2227
 21
174.286
  0
LINE
  8
0
 10
-21.2227
 20
174.286
 11
-21.5729
 21
174.147
  0
LINE
  8
0
 10
-21.5729
 20
174.147
 11
-21.9379
 21
174.053
  0
LINE
  8
0
 10
-21.9379
 20
174.053
 11
-22.3116
 21
174.006
  0
LINE
  8
0
 10
-22.3116
 20
174.006
 11
-22.6884
 21
174.006
  0
LINE
  8
0
 10
-37.6884
 20
174.006
 11
-38.0621
 21
174.053
  0
LINE
  8
0
 10
-38.0621
 20
174.053
 11
-38.427
 21
174.147
  0
LINE
  8
0
 10
-38.427
 20
174.147
 11
-38.7773
 21
174.286
  0
LINE
  8
0
 10
-38.7773
 20
174.286
 11
-39.1075
 21
174.467
  0
LINE
  8
0
 10
-39.1075
 20
174.467
 11
-39.4123
 21
174.688
  0
LINE
  8
0
 10
-39.4123
 20
174.688
 11
-39.6869
 21
174.946
  0
LINE
  8
0
 10
-39.6869
 20
174.946
 11
-39.927
 21
175.237
  0
LINE
  8
0
 10
-39.927
 20
175.237
 11
-40.1289
 21
175.555
  0
LINE
  8
0
 10
-40.1289
 20
175.555
 11
-40.2893
 21
175.896
  0
LINE
  8
0
 10
-40.2893
 20
175.896
 11
-40.4057
 21
176.254
  0
LINE
  8
0
 10
-40.4057
 20
176.254
 11
-40.4763
 21
176.624
  0
LINE
  8
0
 10
-40.4763
 20
176.624
 11
-40.5
 21
177
  0
LINE
  8
0
 10
-40.5
 20
177
 11
-40.4763
 21
177.376
  0
LINE
  8
0
 10
-40.4763
 20
177.376
 11
-40.4057
 21
177.746
  0
LINE
  8
0
 10
-40.4057
 20
177.746
 11
-40.2893
 21
178.104
  0
LINE
  8
0
 10
-40.2893
 20
178.104
 11
-40.1289
 21
178.445
  0
LINE
  8
0
 10
-40.1289
 20
178.445
 11
-39.927
 21
178.763
  0
LINE
  8
0
 10
-39.927
 20
178.763
 11
-39.6869
 21
179.054
  0
LINE
  8
0
 10
-39.6869
 20
179.054
 11
-39.4123
 21
179.312
  0
LINE
  8
0
 10
-39.4123
 20
179.312
 11
-39.1075
 21
179.533
  0
LINE
  8
0
 10
-39.1075
 20
179.533
 11
-38.7773
 21
179.714
  0
LINE
  8
0
 10
-38.7773
 20
179.714
 11
-38.427
 21
179.853
  0
LINE
  8
0
 10
-38.427
 20
179.853
 11
-38.0621
 21
179.947
  0
LINE
  8
0
 10
-38.0621
 20
179.947
 11
-37.6884
 21
179.994
  0
LINE
  8
0
 10
-37.6884
 20
179.994
 11
-37.3116
 21
179.994
  0
LINE
  8
0
 10
-37.3116
 20
179.994
 11
-36.9379
 21
179.947
  0
LINE
  8
0
 10
-36.9379
 20
179.947
 11
-36.5729
 21
179.853
  0
LINE
  8
0
 10
-36.5729
 20
179.853
 11
-36.2227
 21
179.714
  0
LINE
  8
0
 10
-36.2227
 20
179.714
 11
-35.8925
 21
179.533
  0
LINE
  8
0
 10
-35.8925
 20
179.533
 11
-35.5877
 21
179.312
  0
LINE
  8
0
 10
-35.5877
 20
179.312
 11
-35.3131
 21
179.054
  0
LINE
  8
0
 10
-35.3131
 20
179.054
 11
-35.0729
 21
178.763
  0
LINE
  8
0
 10
-35.0729
 20
178.763
 11
-34.8711
 21
178.445
  0
LINE
  8
0
 10
-34.8711
 20
178.445
 11
-34.7107
 21
178.104
  0
LINE
  8
0
 10
-34.7107
 20
178.104
 11
-34.5942
 21
177.746
  0
LINE
  8
0
 10
-34.5942
 20
177.746
 11
-34.5237
 21
177.376
  0
LINE
  8
0
 10
-34.5237
 20
177.376
 11
-34.5
 21
177
  0
LINE
  8
0
 10
-34.5
 20
177
 11
-34.5237
 21
176.624
  0
LINE
  8
0
 10
-34.5237
 20
176.624
 11
-34.5942
 21
176.254
  0
LINE
  8
0
 10
-34.5942
 20
176.254
 11
-34.7107
 21
175.896
  0
LINE
  8
0
 10
-34.7107
 20
175.896
 11
-34.8711
 21
175.555
  0
LINE
  8
0
 10
-34.8711
 20
175.555
 11
-35.0729
 21
175.237
  0
LINE
  8
0
 10
-35.0729
 20
175.237
 11
-35.3131
 21
174.946
  0
LINE
  8
0
 10
-35.3131
 20
174.946
 11
-35.5877
 21
174.688
  0
LINE
  8
0
 10
-35.5877
 20
174.688
 11
-35.8925
 21
174.467
  0
LINE
  8
0
 10
-35.8925
 20
174.467
 11
-36.2227
 21
174.286
  0
LINE
  8
0
 10
-36.2227
 20
174.286
 11
-36.5729
 21
174.147
  0
LINE
  8
0
 10
-36.5729
 20
174.147
 11
-36.9379
 21
174.053
  0
LINE
  8
0
 10
-36.9379
 20
174.053
 11
-37.3116
 21
174.006
  0
LINE
  8
0
 10
-37.3116
 20
174.006
 11
-37.6884
 21
174.006
  0
LINE
  8
0
 10
-7.68837
 20
174.006
 11
-8.06213
 21
174.053
  0
LINE
  8
0
 10
-8.06213
 20
174.053
 11
-8.42705
 21
174.147
  0
LINE
  8
0
 10
-8.42705
 20
174.147
 11
-8.77733
 21
174.286
  0
LINE
  8
0
 10
-8.77733
 20
174.286
 11
-9.10747
 21
174.467
  0
LINE
  8
0
 10
-9.10747
 20
174.467
 11
-9.41226
 21
174.688
  0
LINE
  8
0
 10
-9.41226
 20
174.688
 11
-9.6869
 21
174.946
  0
LINE
  8
0
 10
-9.6869
 20
174.946
 11
-9.92705
 21
175.237
  0
LINE
  8
0
 10
-9.92705
 20
175.237
 11
-10.1289
 21
175.555
  0
LINE
  8
0
 10
-10.1289
 20
175.555
 11
-10.2893
 21
175.896
  0
LINE
  8
0
 10
-10.2893
 20
175.896
 11
-10.4057
 21
176.254
  0
LINE
  8
0
 10
-10.4057
 20
176.254
 11
-10.4763
 21
176.624
  0
LINE
  8
0
 10
-10.4763
 20
176.624
 11
-10.5
 21
177
  0
LINE
  8
0
 10
-10.5
 20
177
 11
-10.4763
 21
177.376
  0
LINE
  8
0
 10
-10.4763
 20
177.376
 11
-10.4057
 21
177.746
  0
LINE
  8
0
 10
-10.4057
 20
177.746
 11
-10.2893
 21
178.104
  0
LINE
  8
0
 10
-10.2893
 20
178.104
 11
-10.1289
 21
178.445
  0
LINE
  8
0
 10
-10.1289
 20
178.445
 11
-9.92705
 21
178.763
  0
LINE
  8
0
 10
-9.92705
 20
178.763
 11
-9.6869
 21
179.054
  0
LINE
  8
0
 10
-9.6869
 20
179.054
 11
-9.41226
 21
179.312
  0
LINE
  8
0
 10
-9.41226
 20
179.312
 11
-9.10747
 21
179.533
  0
LINE
  8
0
 10
-9.10747
 20
179.533
 11
-8.77733
 21
179.714
  0
LINE
  8
0
 10
-8.77733
 20
179.714
 11
-8.42705
 21
179.853
  0
LINE
  8
0
 10
-8.42705
 20
179.853
 11
-8.06213
 21
179.947
  0
LINE
  8
0
 10
-8.06213
 20
179.947
 11
-7.68837
 21
179.994
  0
LINE
  8
0
 10
-7.68837
 20
179.994
 11
-7.31161
 21
179.994
  0
LINE
  8
0
 10
-7.31161
 20
179.994
 11
-6.93785
 21
179.947
  0
LINE
  8
0
 10
-6.93785
 20
179.947
 11
-6.57294
 21
179.853
  0
LINE
  8
0
 10
-6.57294
 20
179.853
 11
-6.22266
 21
179.714
  0
LINE
  8
0
 10
-6.22266
 20
179.714
 11
-5.89252
 21
179.533
  0
LINE
  8
0
 10
-5.89252
 20
179.533
 11
-5.58772
 21
179.312
  0
LINE
  8
0
 10
-5.58772
 20
179.312
 11
-5.31308
 21
179.054
  0
LINE
  8
0
 10
-5.31308
 20
179.054
 11
-5.07294
 21
178.763
  0
LINE
  8
0
 10
-5.07294
 20
178.763
 11
-4.87108
 21
178.445
  0
LINE
  8
0
 10
-4.87108
 20
178.445
 11
-4.71066
 21
178.104
  0
LINE
  8
0
 10
-4.71066
 20
178.104
 11
-4.59424
 21
177.746
  0
LINE
  8
0
 10
-4.59424
 20
177.746
 11
-4.52365
 21
177.376
  0
LINE
  8
0
 10
-4.52365
 20
177.376
 11
-4.5
 21
177
  0
LINE
  8
0
 10
-4.5
 20
177
 11
-4.52365
 21
176.624
  0
LINE
  8
0
 10
-4.52365
 20
176.624
 11
-4.59424
 21
176.254
  0
LINE
  8
0
 10
-4.59424
 20
176.254
 11
-4.71066
 21
175.896
  0
LINE
  8
0
 10
-4.71066
 20
175.896
 11
-4.87108
 21
175.555
  0
LINE
  8
0
 10
-4.87108
 20
175.555
 11
-5.07294
 21
175.237
  0
LINE
  8
0
 10
-5.07294
 20
175.237
 11
-5.31308
 21
174.946
  0
LINE
  8
0
 10
-5.31308
 20
174.946
 11
-5.58772
 21
174.688
  0
LINE
  8
0
 10
-5.58772
 20
174.688
 11
-5.89252
 21
174.467
  0
LINE
  8
0
 10
-5.89252
 20
174.467
 11
-6.22266
 21
174.286
  0
LINE
  8
0
 10
-6.22266
 20
174.286
 11
-6.57294
 21
174.147
  0
LINE
  8
0
 10
-6.57294
 20
174.147
 11
-6.93785
 21
174.053
  0
LINE
  8
0
 10
-6.93785
 20
174.053
 11
-7.31161
 21
174.006
  0
LINE
  8
0
 10
-7.31161
 20
174.006
 11
-7.68837
 21
174.006
  0
LINE
  8
0
 10
37.3116
 20
174.006
 11
36.9379
 21
174.053
  0
LINE
  8
0
 10
36.9379
 20
174.053
 11
36.5729
 21
174.147
  0
LINE
  8
0
 10
36.5729
 20
174.147
 11
36.2227
 21
174.286
  0
LINE
  8
0
 10
36.2227
 20
174.286
 11
35.8925
 21
174.467
  0
LINE
  8
0
 10
35.8925
 20
174.467
 11
35.5877
 21
174.688
  0
LINE
  8
0
 10
35.5877
 20
174.688
 11
35.3131
 21
174.946
  0
LINE
  8
0
 10
35.3131
 20
174.946
 11
35.0729
 21
175.237
  0
LINE
  8
0
 10
35.0729
 20
175.237
 11
34.8711
 21
175.555
  0
LINE
  8
0
 10
34.8711
 20
175.555
 11
34.7107
 21
175.896
  0
LINE
  8
0
 10
34.7107
 20
175.896
 11
34.5942
 21
176.254
  0
LINE
  8
0
 10
34.5942
 20
176.254
 11
34.5237
 21
176.624
  0
LINE
  8
0
 10
34.5237
 20
176.624
 11
34.5
 21
177
  0
LINE
  8
0
 10
34.5
 20
177
 11
34.5237
 21
177.376
  0
LINE
  8
0
 10
34.5237
 20
177.376
 11
34.5942
 21
177.746
  0
LINE
  8
0
 10
34.5942
 20
177.746
 11
34.7107
 21
178.104
  0
LINE
  8
0
 10
34.7107
 20
178.104
 11
34.8711
 21
178.445
  0
LINE
  8
0
 10
34.8711
 20
178.445
 11
35.0729
 21
178.763
  0
LINE
  8
0
 10
35.0729
 20
178.763
 11
35.3131
 21
179.054
  0
LINE
  8
0
 10
35.3131
 20
179.054
 11
35.5877
 21
179.312
  0
LINE
  8
0
 10
35.5877
 20
179.312
 11
35.8925
 21
179.533
  0
LINE
  8
0
 10
35.8925
 20
179.533
 11
36.2227
 21
179.714
  0
LINE
  8
0
 10
36.2227
 20
179.714
 11
36.5729
 21
179.853
  0
LINE
  8
0
 10
36.5729
 20
179.853
 11
36.9379
 21
179.947
  0
LINE
  8
0
 10
36.9379
 20
179.947
 11
37.3116
 21
179.994
  0
LINE
  8
0
 10
37.3116
 20
179.994
 11
37.6884
 21
179.994
  0
LINE
  8
0
 10
37.6884
 20
179.994
 11
38.0621
 21
179.947
  0
LINE
  8
0
 10
38.0621
 20
179.947
 11
38.427
 21
179.853
  0
LINE
  8
0
 10
38.427
 20
179.853
 11
38.7773
 21
179.714
  0
LINE
  8
0
 10
38.7773
 20
179.714
 11
39.1075
 21
179.533
  0
LINE
  8
0
 10
39.1075
 20
179.533
 11
39.4123
 21
179.312
  0
LINE
  8
0
 10
39.4123
 20
179.312
 11
39.6869
 21
179.054
  0
LINE
  8
0
 10
39.6869
 20
179.054
 11
39.927
 21
178.763
  0
LINE
  8
0
 10
39.927
 20
178.763
 11
40.1289
 21
178.445
  0
LINE
  8
0
 10
40.1289
 20
178.445
 11
40.2893
 21
178.104
  0
LINE
  8
0
 10
40.2893
 20
178.104
 11
40.4057
 21
177.746
  0
LINE
  8
0
 10
40.4057
 20
177.746
 11
40.4763
 21
177.376
  0
LINE
  8
0
 10
40.4763
 20
177.376
 11
40.5
 21
177
  0
LINE
  8
0
 10
40.5
 20
177
 11
40.4763
 21
176.624
  0
LINE
  8
0
 10
40.4763
 20
176.624
 11
40.4057
 21
176.254
  0
LINE
  8
0
 10
40.4057
 20
176.254
 11
40.2893
 21
175.896
  0
LINE
  8
0
 10
40.2893
 20
175.896
 11
40.1289
 21
175.555
  0
LINE
  8
0
 10
40.1289
 20
175.555
 11
39.927
 21
175.237
  0
LINE
  8
0
 10
39.927
 20
175.237
 11
39.6869
 21
174.946
  0
LINE
  8
0
 10
39.6869
 20
174.946
 11
39.4123
 21
174.688
  0
LINE
  8
0
 10
39.4123
 20
174.688
 11
39.1075
 21
174.467
  0
LINE
  8
0
 10
39.1075
 20
174.467
 11
38.7773
 21
174.286
  0
LINE
  8
0
 10
38.7773
 20
174.286
 11
38.427
 21
174.147
  0
LINE
  8
0
 10
38.427
 20
174.147
 11
38.0621
 21
174.053
  0
LINE
  8
0
 10
38.0621
 20
174.053
 11
37.6884
 21
174.006
  0
LINE
  8
0
 10
37.6884
 20
174.006
 11
37.3116
 21
174.006
  0
LINE
  8
0
 10
7.31161
 20
174.006
 11
6.93785
 21
174.053
  0
LINE
  8
0
 10
6.93785
 20
174.053
 11
6.57294
 21
174.147
  0
LINE
  8
0
 10
6.57294
 20
174.147
 11
6.22266
 21
174.286
  0
LINE
  8
0
 10
6.22266
 20
174.286
 11
5.89252
 21
174.467
  0
LINE
  8
0
 10
5.89252
 20
174.467
 11
5.58772
 21
174.688
  0
LINE
  8
0
 10
5.58772
 20
174.688
 11
5.31308
 21
174.946
  0
LINE
  8
0
 10
5.31308
 20
174.946
 11
5.07294
 21
175.237
  0
LINE
  8
0
 10
5.07294
 20
175.237
 11
4.87108
 21
175.555
  0
LINE
  8
0
 10
4.87108
 20
175.555
 11
4.71066
 21
175.896
  0
LINE
  8
0
 10
4.71066
 20
175.896
 11
4.59424
 21
176.254
  0
LINE
  8
0
 10
4.59424
 20
176.254
 11
4.52365
 21
176.624
  0
LINE
  8
0
 10
4.52365
 20
176.624
 11
4.5
 21
177
  0
LINE
  8
0
 10
4.5
 20
177
 11
4.52365
 21
177.376
  0
LINE
  8
0
 10
4.52365
 20
177.376
 11
4.59424
 21
177.746
  0
LINE
  8
0
 10
4.59424
 20
177.746
 11
4.71066
 21
178.104
  0
LINE
  8
0
 10
4.71066
 20
178.104
 11
4.87108
 21
178.445
  0
LINE
  8
0
 10
4.87108
 20
178.445
 11
5.07294
 21
178.763
  0
LINE
  8
0
 10
5.07294
 20
178.763
 11
5.31308
 21
179.054
  0
LINE
  8
0
 10
5.31308
 20
179.054
 11
5.58772
 21
179.312
  0
LINE
  8
0
 10
5.58772
 20
179.312
 11
5.89252
 21
179.533
  0
LINE
  8
0
 10
5.89252
 20
179.533
 11
6.22266
 21
179.714
  0
LINE
  8
0
 10
6.22266
 20
179.714
 11
6.57294
 21
179.853
  0
LINE
  8
0
 10
6.57294
 20
179.853
 11
6.93785
 21
179.947
  0
LINE
  8
0
 10
6.93785
 20
179.947
 11
7.31161
 21
179.994
  0
LINE
  8
0
 10
7.31161
 20
179.994
 11
7.68837
 21
179.994
  0
LINE
  8
0
 10
7.68837
 20
179.994
 11
8.06213
 21
179.947
  0
LINE
  8
0
 10
8.06213
 20
179.947
 11
8.42705
 21
179.853
  0
LINE
  8
0
 10
8.42705
 20
179.853
 11
8.77733
 21
179.714
  0
LINE
  8
0
 10
8.77733
 20
179.714
 11
9.10747
 21
179.533
  0
LINE
  8
0
 10
9.10747
 20
179.533
 11
9.41226
 21
179.312
  0
LINE
  8
0
 10
9.41226
 20
179.312
 11
9.6869
 21
179.054
  0
LINE
  8
0
 10
9.6869
 20
179.054
 11
9.92705
 21
178.763
  0
LINE
  8
0
 10
9.92705
 20
178.763
 11
10.1289
 21
178.445
  0
LINE
  8
0
 10
10.1289
 20
178.445
 11
10.2893
 21
178.104
  0
LINE
  8
0
 10
10.2893
 20
178.104
 11
10.4057
 21
177.746
  0
LINE
  8
0
 10
10.4057
 20
177.746
 11
10.4763
 21
177.376
  0
LINE
  8
0
 10
10.4763
 20
177.376
 11
10.5
 21
177
  0
LINE
  8
0
 10
10.5
 20
177
 11
10.4763
 21
176.624
  0
LINE
  8
0
 10
10.4763
 20
176.624
 11
10.4057
 21
176.254
  0
LINE
  8
0
 10
10.4057
 20
176.254
 11
10.2893
 21
175.896
  0
LINE
  8
0
 10
10.2893
 20
175.896
 11
10.1289
 21
175.555
  0
LINE
  8
0
 10
10.1289
 20
175.555
 11
9.92705
 21
175.237
  0
LINE
  8
0
 10
9.92705
 20
175.237
 11
9.6869
 21
174.946
  0
LINE
  8
0
 10
9.6869
 20
174.946
 11
9.41226
 21
174.688
  0
LINE
  8
0
 10
9.41226
 20
174.688
 11
9.10747
 21
174.467
  0
LINE
  8
0
 10
9.10747
 20
174.467
 11
8.77733
 21
174.286
  0
LINE
  8
0
 10
8.77733
 20
174.286
 11
8.42705
 21
174.147
  0
LINE
  8
0
 10
8.42705
 20
174.147
 11
8.06213
 21
174.053
  0
LINE
  8
0
 10
8.06213
 20
174.053
 11
7.68837
 21
174.006
  0
LINE
  8
0
 10
7.68837
 20
174.006
 11
7.31161
 21
174.006
  0
LINE
  8
0
 10
22.3116
 20
174.006
 11
21.9379
 21
174.053
  0
LINE
  8
0
 10
21.9379
 20
174.053
 11
21.5729
 21
174.147
  0
LINE
  8
0
 10
21.5729
 20
174.147
 11
21.2227
 21
174.286
  0
LINE
  8
0
 10
21.2227
 20
174.286
 11
20.8925
 21
174.467
  0
LINE
  8
0
 10
20.8925
 20
174.467
 11
20.5877
 21
174.688
  0
LINE
  8
0
 10
20.5877
 20
174.688
 11
20.3131
 21
174.946
  0
LINE
  8
0
 10
20.3131
 20
174.946
 11
20.0729
 21
175.237
  0
LINE
  8
0
 10
20.0729
 20
175.237
 11
19.8711
 21
175.555
  0
LINE
  8
0
 10
19.8711
 20
175.555
 11
19.7107
 21
175.896
  0
LINE
  8
0
 10
19.7107
 20
175.896
 11
19.5942
 21
176.254
  0
LINE
  8
0
 10
19.5942
 20
176.254
 11
19.5237
 21
176.624
  0
LINE
  8
0
 10
19.5237
 20
176.624
 11
19.5
 21
177
  0
LINE
  8
0
 10
19.5
 20
177
 11
19.5237
 21
177.376
  0
LINE
  8
0
 10
19.5237
 20
177.376
 11
19.5942
 21
177.746
  0
LINE
  8
0
 10
19.5942
 20
177.746
 11
19.7107
 21
178.104
  0
LINE
  8
0
 10
19.7107
 20
178.104
 11
19.8711
 21
178.445
  0
LINE
  8
0
 10
19.8711
 20
178.445
 11
20.0729
 21
178.763
  0
LINE
  8
0
 10
20.0729
 20
178.763
 11
20.3131
 21
179.054
  0
LINE
  8
0
 10
20.3131
 20
179.054
 11
20.5877
 21
179.312
  0
LINE
  8
0
 10
20.5877
 20
179.312
 11
20.8925
 21
179.533
  0
LINE
  8
0
 10
20.8925
 20
179.533
 11
21.2227
 21
179.714
  0
LINE
  8
0
 10
21.2227
 20
179.714
 11
21.5729
 21
179.853
  0
LINE
  8
0
 10
21.5729
 20
179.853
 11
21.9379
 21
179.947
  0
LINE
  8
0
 10
21.9379
 20
179.947
 11
22.3116
 21
179.994
  0
LINE
  8
0
 10
22.3116
 20
179.994
 11
22.6884
 21
179.994
  0
LINE
  8
0
 10
22.6884
 20
179.994
 11
23.0621
 21
179.947
  0
LINE
  8
0
 10
23.0621
 20
179.947
 11
23.427
 21
179.853
  0
LINE
  8
0
 10
23.427
 20
179.853
 11
23.7773
 21
179.714
  0
LINE
  8
0
 10
23.7773
 20
179.714
 11
24.1075
 21
179.533
  0
LINE
  8
0
 10
24.1075
 20
179.533
 11
24.4123
 21
179.312
  0
LINE
  8
0
 10
24.4123
 20
179.312
 11
24.6869
 21
179.054
  0
LINE
  8
0
 10
24.6869
 20
179.054
 11
24.927
 21
178.763
  0
LINE
  8
0
 10
24.927
 20
178.763
 11
25.1289
 21
178.445
  0
LINE
  8
0
 10
25.1289
 20
178.445
 11
25.2893
 21
178.104
  0
LINE
  8
0
 10
25.2893
 20
178.104
 11
25.4057
 21
177.746
  0
LINE
  8
0
 10
25.4057
 20
177.746
 11
25.4763
 21
177.376
  0
LINE
  8
0
 10
25.4763
 20
177.376
 11
25.5
 21
177
  0
LINE
  8
0
 10
25.5
 20
177
 11
25.4763
 21
176.624
  0
LINE
  8
0
 10
25.4763
 20
176.624
 11
25.4057
 21
176.254
  0
LINE
  8
0
 10
25.4057
 20
176.254
 11
25.2893
 21
175.896
  0
LINE
  8
0
 10
25.2893
 20
175.896
 11
25.1289
 21
175.555
  0
LINE
  8
0
 10
25.1289
 20
175.555
 11
24.927
 21
175.237
  0
LINE
  8
0
 10
24.927
 20
175.237
 11
24.6869
 21
174.946
  0
LINE
  8
0
 10
24.6869
 20
174.946
 11
24.4123
 21
174.688
  0
LINE
  8
0
 10
24.4123
 20
174.688
 11
24.1075
 21
174.467
  0
LINE
  8
0
 10
24.1075
 20
174.467
 11
23.7773
 21
174.286
  0
LINE
  8
0
 10
23.7773
 20
174.286
 11
23.427
 21
174.147
  0
LINE
  8
0
 10
23.427
 20
174.147
 11
23.0621
 21
174.053
  0
LINE
  8
0
 10
23.0621
 20
174.053
 11
22.6884
 21
174.006
  0
LINE
  8
0
 10
22.6884
 20
174.006
 11
22.3116
 21
174.006
  0
LINE
  8
0
 10
37.3116
 20
159.006
 11
36.9379
 21
159.053
  0
LINE
  8
0
 10
36.9379
 20
159.053
 11
36.5729
 21
159.147
  0
LINE
  8
0
 10
36.5729
 20
159.147
 11
36.2227
 21
159.286
  0
LINE
  8
0
 10
36.2227
 20
159.286
 11
35.8925
 21
159.467
  0
LINE
  8
0
 10
35.8925
 20
159.467
 11
35.5877
 21
159.688
  0
LINE
  8
0
 10
35.5877
 20
159.688
 11
35.3131
 21
159.946
  0
LINE
  8
0
 10
35.3131
 20
159.946
 11
35.0729
 21
160.237
  0
LINE
  8
0
 10
35.0729
 20
160.237
 11
34.8711
 21
160.555
  0
LINE
  8
0
 10
34.8711
 20
160.555
 11
34.7107
 21
160.896
  0
LINE
  8
0
 10
34.7107
 20
160.896
 11
34.5942
 21
161.254
  0
LINE
  8
0
 10
34.5942
 20
161.254
 11
34.5237
 21
161.624
  0
LINE
  8
0
 10
34.5237
 20
161.624
 11
34.5
 21
162
  0
LINE
  8
0
 10
34.5
 20
162
 11
34.5237
 21
162.376
  0
LINE
  8
0
 10
34.5237
 20
162.376
 11
34.5942
 21
162.746
  0
LINE
  8
0
 10
34.5942
 20
162.746
 11
34.7107
 21
163.104
  0
LINE
  8
0
 10
34.7107
 20
163.104
 11
34.8711
 21
163.445
  0
LINE
  8
0
 10
34.8711
 20
163.445
 11
35.0729
 21
163.763
  0
LINE
  8
0
 10
35.0729
 20
163.763
 11
35.3131
 21
164.054
  0
LINE
  8
0
 10
35.3131
 20
164.054
 11
35.5877
 21
164.312
  0
LINE
  8
0
 10
35.5877
 20
164.312
 11
35.8925
 21
164.533
  0
LINE
  8
0
 10
35.8925
 20
164.533
 11
36.2227
 21
164.714
  0
LINE
  8
0
 10
36.2227
 20
164.714
 11
36.5729
 21
164.853
  0
LINE
  8
0
 10
36.5729
 20
164.853
 11
36.9379
 21
164.947
  0
LINE
  8
0
 10
36.9379
 20
164.947
 11
37.3116
 21
164.994
  0
LINE
  8
0
 10
37.3116
 20
164.994
 11
37.6884
 21
164.994
  0
LINE
  8
0
 10
37.6884
 20
164.994
 11
38.0621
 21
164.947
  0
LINE
  8
0
 10
38.0621
 20
164.947
 11
38.427
 21
164.853
  0
LINE
  8
0
 10
38.427
 20
164.853
 11
38.7773
 21
164.714
  0
LINE
  8
0
 10
38.7773
 20
164.714
 11
39.1075
 21
164.533
  0
LINE
  8
0
 10
39.1075
 20
164.533
 11
39.4123
 21
164.312
  0
LINE
  8
0
 10
39.4123
 20
164.312
 11
39.6869
 21
164.054
  0
LINE
  8
0
 10
39.6869
 20
164.054
 11
39.927
 21
163.763
  0
LINE
  8
0
 10
39.927
 20
163.763
 11
40.1289
 21
163.445
  0
LINE
  8
0
 10
40.1289
 20
163.445
 11
40.2893
 21
163.104
  0
LINE
  8
0
 10
40.2893
 20
163.104
 11
40.4057
 21
162.746
  0
LINE
  8
0
 10
40.4057
 20
162.746
 11
40.4763
 21
162.376
  0
LINE
  8
0
 10
40.4763
 20
162.376
 11
40.5
 21
162
  0
LINE
  8
0
 10
40.5
 20
162
 11
40.4763
 21
161.624
  0
LINE
  8
0
 10
40.4763
 20
161.624
 11
40.4057
 21
161.254
  0
LINE
  8
0
 10
40.4057
 20
161.254
 11
40.2893
 21
160.896
  0
LINE
  8
0
 10
40.2893
 20
160.896
 11
40.1289
 21
160.555
  0
LINE
  8
0
 10
40.1289
 20
160.555
 11
39.927
 21
160.237
  0
LINE
  8
0
 10
39.927
 20
160.237
 11
39.6869
 21
159.946
  0
LINE
  8
0
 10
39.6869
 20
159.946
 11
39.4123
 21
159.688
  0
LINE
  8
0
 10
39.4123
 20
159.688
 11
39.1075
 21
159.467
  0
LINE
  8
0
 10
39.1075
 20
159.467
 11
38.7773
 21
159.286
  0
LINE
  8
0
 10
38.7773
 20
159.286
 11
38.427
 21
159.147
  0
LINE
  8
0
 10
38.427
 20
159.147
 11
38.0621
 21
159.053
  0
LINE
  8
0
 10
38.0621
 20
159.053
 11
37.6884
 21
159.006
  0
LINE
  8
0
 10
37.6884
 20
159.006
 11
37.3116
 21
159.006
  0
LINE
  8
0
 10
-7.68837
 20
159.006
 11
-8.06213
 21
159.053
  0
LINE
  8
0
 10
-8.06213
 20
159.053
 11
-8.42705
 21
159.147
  0
LINE
  8
0
 10
-8.42705
 20
159.147
 11
-8.77733
 21
159.286
  0
LINE
  8
0
 10
-8.77733
 20
159.286
 11
-9.10747
 21
159.467
  0
LINE
  8
0
 10
-9.10747
 20
159.467
 11
-9.41226
 21
159.688
  0
LINE
  8
0
 10
-9.41226
 20
159.688
 11
-9.6869
 21
159.946
  0
LINE
  8
0
 10
-9.6869
 20
159.946
 11
-9.92705
 21
160.237
  0
LINE
  8
0
 10
-9.92705
 20
160.237
 11
-10.1289
 21
160.555
  0
LINE
  8
0
 10
-10.1289
 20
160.555
 11
-10.2893
 21
160.896
  0
LINE
  8
0
 10
-10.2893
 20
160.896
 11
-10.4057
 21
161.254
  0
LINE
  8
0
 10
-10.4057
 20
161.254
 11
-10.4763
 21
161.624
  0
LINE
  8
0
 10
-10.4763
 20
161.624
 11
-10.5
 21
162
  0
LINE
  8
0
 10
-10.5
 20
162
 11
-10.4763
 21
162.376
  0
LINE
  8
0
 10
-10.4763
 20
162.376
 11
-10.4057
 21
162.746
  0
LINE
  8
0
 10
-10.4057
 20
162.746
 11
-10.2893
 21
163.104
  0
LINE
  8
0
 10
-10.2893
 20
163.104
 11
-10.1289
 21
163.445
  0
LINE
  8
0
 10
-10.1289
 20
163.445
 11
-9.92705
 21
163.763
  0
LINE
  8
0
 10
-9.92705
 20
163.763
 11
-9.6869
 21
164.054
  0
LINE
  8
0
 10
-9.6869
 20
164.054
 11
-9.41226
 21
164.312
  0
LINE
  8
0
 10
-9.41226
 20
164.312
 11
-9.10747
 21
164.533
  0
LINE
  8
0
 10
-9.10747
 20
164.533
 11
-8.77733
 21
164.714
  0
LINE
  8
0
 10
-8.77733
 20
164.714
 11
-8.42705
 21
164.853
  0
LINE
  8
0
 10
-8.42705
 20
164.853
 11
-8.06213
 21
164.947
  0
LINE
  8
0
 10
-8.06213
 20
164.947
 11
-7.68837
 21
164.994
  0
LINE
  8
0
 10
-7.68837
 20
164.994
 11
-7.31161
 21
164.994
  0
LINE
  8
0
 10
-7.31161
 20
164.994
 11
-6.93785
 21
164.947
  0
LINE
  8
0
 10
-6.93785
 20
164.947
 11
-6.57294
 21
164.853
  0
LINE
  8
0
 10
-6.57294
 20
164.853
 11
-6.22266
 21
164.714
  0
LINE
  8
0
 10
-6.22266
 20
164.714
 11
-5.89252
 21
164.533
  0
LINE
  8
0
 10
-5.89252
 20
164.533
 11
-5.58772
 21
164.312
  0
LINE
  8
0
 10
-5.58772
 20
164.312
 11
-5.31308
 21
164.054
  0
LINE
  8
0
 10
-5.31308
 20
164.054
 11
-5.07294
 21
163.763
  0
LINE
  8
0
 10
-5.07294
 20
163.763
 11
-4.87108
 21
163.445
  0
LINE
  8
0
 10
-4.87108
 20
163.445
 11
-4.71066
 21
163.104
  0
LINE
  8
0
 10
-4.71066
 20
163.104
 11
-4.59424
 21
162.746
  0
LINE
  8
0
 10
-4.59424
 20
162.746
 11
-4.52365
 21
162.376
  0
LINE
  8
0
 10
-4.52365
 20
162.376
 11
-4.5
 21
162
  0
LINE
  8
0
 10
-4.5
 20
162
 11
-4.52365
 21
161.624
  0
LINE
  8
0
 10
-4.52365
 20
161.624
 11
-4.59424
 21
161.254
  0
LINE
  8
0
 10
-4.59424
 20
161.254
 11
-4.71066
 21
160.896
  0
LINE
  8
0
 10
-4.71066
 20
160.896
 11
-4.87108
 21
160.555
  0
LINE
  8
0
 10
-4.87108
 20
160.555
 11
-5.07294
 21
160.237
  0
LINE
  8
0
 10
-5.07294
 20
160.237
 11
-5.31308
 21
159.946
  0
LINE
  8
0
 10
-5.31308
 20
159.946
 11
-5.58772
 21
159.688
  0
LINE
  8
0
 10
-5.58772
 20
159.688
 11
-5.89252
 21
159.467
  0
LINE
  8
0
 10
-5.89252
 20
159.467
 11
-6.22266
 21
159.286
  0
LINE
  8
0
 10
-6.22266
 20
159.286
 11
-6.57294
 21
159.147
  0
LINE
  8
0
 10
-6.57294
 20
159.147
 11
-6.93785
 21
159.053
  0
LINE
  8
0
 10
-6.93785
 20
159.053
 11
-7.31161
 21
159.006
  0
LINE
  8
0
 10
-7.31161
 20
159.006
 11
-7.68837
 21
159.006
  0
LINE
  8
0
 10
-37.6884
 20
159.006
 11
-38.0621
 21
159.053
  0
LINE
  8
0
 10
-38.0621
 20
159.053
 11
-38.427
 21
159.147
  0
LINE
  8
0
 10
-38.427
 20
159.147
 11
-38.7773
 21
159.286
  0
LINE
  8
0
 10
-38.7773
 20
159.286
 11
-39.1075
 21
159.467
  0
LINE
  8
0
 10
-39.1075
 20
159.467
 11
-39.4123
 21
159.688
  0
LINE
  8
0
 10
-39.4123
 20
159.688
 11
-39.6869
 21
159.946
  0
LINE
  8
0
 10
-39.6869
 20
159.946
 11
-39.927
 21
160.237
  0
LINE
  8
0
 10
-39.927
 20
160.237
 11
-40.1289
 21
160.555
  0
LINE
  8
0
 10
-40.1289
 20
160.555
 11
-40.2893
 21
160.896
  0
LINE
  8
0
 10
-40.2893
 20
160.896
 11
-40.4057
 21
161.254
  0
LINE
  8
0
 10
-40.4057
 20
161.254
 11
-40.4763
 21
161.624
  0
LINE
  8
0
 10
-40.4763
 20
161.624
 11
-40.5
 21
162
  0
LINE
  8
0
 10
-40.5
 20
162
 11
-40.4763
 21
162.376
  0
LINE
  8
0
 10
-40.4763
 20
162.376
 11
-40.4057
 21
162.746
  0
LINE
  8
0
 10
-40.4057
 20
162.746
 11
-40.2893
 21
163.104
  0
LINE
  8
0
 10
-40.2893
 20
163.104
 11
-40.1289
 21
163.445
  0
LINE
  8
0
 10
-40.1289
 20
163.445
 11
-39.927
 21
163.763
  0
LINE
  8
0
 10
-39.927
 20
163.763
 11
-39.6869
 21
164.054
  0
LINE
  8
0
 10
-39.6869
 20
164.054
 11
-39.4123
 21
164.312
  0
LINE
  8
0
 10
-39.4123
 20
164.312
 11
-39.1075
 21
164.533
  0
LINE
  8
0
 10
-39.1075
 20
164.533
 11
-38.7773
 21
164.714
  0
LINE
  8
0
 10
-38.7773
 20
164.714
 11
-38.427
 21
164.853
  0
LINE
  8
0
 10
-38.427
 20
164.853
 11
-38.0621
 21
164.947
  0
LINE
  8
0
 10
-38.0621
 20
164.947
 11
-37.6884
 21
164.994
  0
LINE
  8
0
 10
-37.6884
 20
164.994
 11
-37.3116
 21
164.994
  0
LINE
  8
0
 10
-37.3116
 20
164.994
 11
-36.9379
 21
164.947
  0
LINE
  8
0
 10
-36.9379
 20
164.947
 11
-36.5729
 21
164.853
  0
LINE
  8
0
 10
-36.5729
 20
164.853
 11
-36.2227
 21
164.714
  0
LINE
  8
0
 10
-36.2227
 20
164.714
 11
-35.8925
 21
164.533
  0
LINE
  8
0
 10
-35.8925
 20
164.533
 11
-35.5877
 21
164.312
  0
LINE
  8
0
 10
-35.5877
 20
164.312
 11
-35.3131
 21
164.054
  0
LINE
  8
0
 10
-35.3131
 20
164.054
 11
-35.0729
 21
163.763
  0
LINE
  8
0
 10
-35.0729
 20
163.763
 11
-34.8711
 21
163.445
  0
LINE
  8
0
 10
-34.8711
 20
163.445
 11
-34.7107
 21
163.104
  0
LINE
  8
0
 10
-34.7107
 20
163.104
 11
-34.5942
 21
162.746
  0
LINE
  8
0
 10
-34.5942
 20
162.746
 11
-34.5237
 21
162.376
  0
LINE
  8
0
 10
-34.5237
 20
162.376
 11
-34.5
 21
162
  0
LINE
  8
0
 10
-34.5
 20
162
 11
-34.5237
 21
161.624
  0
LINE
  8
0
 10
-34.5237
 20
161.624
 11
-34.5942
 21
161.254
  0
LINE
  8
0
 10
-34.5942
 20
161.254
 11
-34.7107
 21
160.896
  0
LINE
  8
0
 10
-34.7107
 20
160.896
 11
-34.8711
 21
160.555
  0
LINE
  8
0
 10
-34.8711
 20
160.555
 11
-35.0729
 21
160.237
  0
LINE
  8
0
 10
-35.0729
 20
160.237
 11
-35.3131
 21
159.946
  0
LINE
  8
0
 10
-35.3131
 20
159.946
 11
-35.5877
 21
159.688
  0
LINE
  8
0
 10
-35.5877
 20
159.688
 11
-35.8925
 21
159.467
  0
LINE
  8
0
 10
-35.8925
 20
159.467
 11
-36.2227
 21
159.286
  0
LINE
  8
0
 10
-36.2227
 20
159.286
 11
-36.5729
 21
159.147
  0
LINE
  8
0
 10
-36.5729
 20
159.147
 11
-36.9379
 21
159.053
  0
LINE
  8
0
 10
-36.9379
 20
159.053
 11
-37.3116
 21
159.006
  0
LINE
  8
0
 10
-37.3116
 20
159.006
 11
-37.6884
 21
159.006
  0
LINE
  8
0
 10
-22.6884
 20
159.006
 11
-23.0621
 21
159.053
  0
LINE
  8
0
 10
-23.0621
 20
159.053
 11
-23.427
 21
159.147
  0
LINE
  8
0
 10
-23.427
 20
159.147
 11
-23.7773
 21
159.286
  0
LINE
  8
0
 10
-23.7773
 20
159.286
 11
-24.1075
 21
159.467
  0
LINE
  8
0
 10
-24.1075
 20
159.467
 11
-24.4123
 21
159.688
  0
LINE
  8
0
 10
-24.4123
 20
159.688
 11
-24.6869
 21
159.946
  0
LINE
  8
0
 10
-24.6869
 20
159.946
 11
-24.927
 21
160.237
  0
LINE
  8
0
 10
-24.927
 20
160.237
 11
-25.1289
 21
160.555
  0
LINE
  8
0
 10
-25.1289
 20
160.555
 11
-25.2893
 21
160.896
  0
LINE
  8
0
 10
-25.2893
 20
160.896
 11
-25.4057
 21
161.254
  0
LINE
  8
0
 10
-25.4057
 20
161.254
 11
-25.4763
 21
161.624
  0
LINE
  8
0
 10
-25.4763
 20
161.624
 11
-25.5
 21
162
  0
LINE
  8
0
 10
-25.5
 20
162
 11
-25.4763
 21
162.376
  0
LINE
  8
0
 10
-25.4763
 20
162.376
 11
-25.4057
 21
162.746
  0
LINE
  8
0
 10
-25.4057
 20
162.746
 11
-25.2893
 21
163.104
  0
LINE
  8
0
 10
-25.2893
 20
163.104
 11
-25.1289
 21
163.445
  0
LINE
  8
0
 10
-25.1289
 20
163.445
 11
-24.927
 21
163.763
  0
LINE
  8
0
 10
-24.927
 20
163.763
 11
-24.6869
 21
164.054
  0
LINE
  8
0
 10
-24.6869
 20
164.054
 11
-24.4123
 21
164.312
  0
LINE
  8
0
 10
-24.4123
 20
164.312
 11
-24.1075
 21
164.533
  0
LINE
  8
0
 10
-24.1075
 20
164.533
 11
-23.7773
 21
164.714
  0
LINE
  8
0
 10
-23.7773
 20
164.714
 11
-23.427
 21
164.853
  0
LINE
  8
0
 10
-23.427
 20
164.853
 11
-23.0621
 21
164.947
  0
LINE
  8
0
 10
-23.0621
 20
164.947
 11
-22.6884
 21
164.994
  0
LINE
  8
0
 10
-22.6884
 20
164.994
 11
-22.3116
 21
164.994
  0
LINE
  8
0
 10
-22.3116
 20
164.994
 11
-21.9379
 21
164.947
  0
LINE
  8
0
 10
-21.9379
 20
164.947
 11
-21.5729
 21
164.853
  0
LINE
  8
0
 10
-21.5729
 20
164.853
 11
-21.2227
 21
164.714
  0
LINE
  8
0
 10
-21.2227
 20
164.714
 11
-20.8925
 21
164.533
  0
LINE
  8
0
 10
-20.8925
 20
164.533
 11
-20.5877
 21
164.312
  0
LINE
  8
0
 10
-20.5877
 20
164.312
 11
-20.3131
 21
164.054
  0
LINE
  8
0
 10
-20.3131
 20
164.054
 11
-20.0729
 21
163.763
  0
LINE
  8
0
 10
-20.0729
 20
163.763
 11
-19.8711
 21
163.445
  0
LINE
  8
0
 10
-19.8711
 20
163.445
 11
-19.7107
 21
163.104
  0
LINE
  8
0
 10
-19.7107
 20
163.104
 11
-19.5942
 21
162.746
  0
LINE
  8
0
 10
-19.5942
 20
162.746
 11
-19.5237
 21
162.376
  0
LINE
  8
0
 10
-19.5237
 20
162.376
 11
-19.5
 21
162
  0
LINE
  8
0
 10
-19.5
 20
162
 11
-19.5237
 21
161.624
  0
LINE
  8
0
 10
-19.5237
 20
161.624
 11
-19.5942
 21
161.254
  0
LINE
  8
0
 10
-19.5942
 20
161.254
 11
-19.7107
 21
160.896
  0
LINE
  8
0
 10
-19.7107
 20
160.896
 11
-19.8711
 21
160.555
  0
LINE
  8
0
 10
-19.8711
 20
160.555
 11
-20.0729
 21
160.237
  0
LINE
  8
0
 10
-20.0729
 20
160.237
 11
-20.3131
 21
159.946
  0
LINE
  8
0
 10
-20.3131
 20
159.946
 11
-20.5877
 21
159.688
  0
LINE
  8
0
 10
-20.5877
 20
159.688
 11
-20.8925
 21
159.467
  0
LINE
  8
0
 10
-20.8925
 20
159.467
 11
-21.2227
 21
159.286
  0
LINE
  8
0
 10
-21.2227
 20
159.286
 11
-21.5729
 21
159.147
  0
LINE
  8
0
 10
-21.5729
 20
159.147
 11
-21.9379
 21
159.053
  0
LINE
  8
0
 10
-21.9379
 20
159.053
 11
-22.3116
 21
159.006
  0
LINE
  8
0
 10
-22.3116
 20
159.006
 11
-22.6884
 21
159.006
  0
LINE
  8
0
 10
22.3116
 20
159.006
 11
21.9379
 21
159.053
  0
LINE
  8
0
 10
21.9379
 20
159.053
 11
21.5729
 21
159.147
  0
LINE
  8
0
 10
21.5729
 20
159.147
 11
21.2227
 21
159.286
  0
LINE
  8
0
 10
21.2227
 20
159.286
 11
20.8925
 21
159.467
  0
LINE
  8
0
 10
20.8925
 20
159.467
 11
20.5877
 21
159.688
  0
LINE
  8
0
 10
20.5877
 20
159.688
 11
20.3131
 21
159.946
  0
LINE
  8
0
 10
20.3131
 20
159.946
 11
20.0729
 21
160.237
  0
LINE
  8
0
 10
20.0729
 20
160.237
 11
19.8711
 21
160.555
  0
LINE
  8
0
 10
19.8711
 20
160.555
 11
19.7107
 21
160.896
  0
LINE
  8
0
 10
19.7107
 20
160.896
 11
19.5942
 21
161.254
  0
LINE
  8
0
 10
19.5942
 20
161.254
 11
19.5237
 21
161.624
  0
LINE
  8
0
 10
19.5237
 20
161.624
 11
19.5
 21
162
  0
LINE
  8
0
 10
19.5
 20
162
 11
19.5237
 21
162.376
  0
LINE
  8
0
 10
19.5237
 20
162.376
 11
19.5942
 21
162.746
  0
LINE
  8
0
 10
19.5942
 20
162.746
 11
19.7107
 21
163.104
  0
LINE
  8
0
 10
19.7107
 20
163.104
 11
19.8711
 21
163.445
  0
LINE
  8
0
 10
19.8711
 20
163.445
 11
20.0729
 21
163.763
  0
LINE
  8
0
 10
20.0729
 20
163.763
 11
20.3131
 21
164.054
  0
LINE
  8
0
 10
20.3131
 20
164.054
 11
20.5877
 21
164.312
  0
LINE
  8
0
 10
20.5877
 20
164.312
 11
20.8925
 21
164.533
  0
LINE
  8
0
 10
20.8925
 20
164.533
 11
21.2227
 21
164.714
  0
LINE
  8
0
 10
21.2227
 20
164.714
 11
21.5729
 21
164.853
  0
LINE
  8
0
 10
21.5729
 20
164.853
 11
21.9379
 21
164.947
  0
LINE
  8
0
 10
21.9379
 20
164.947
 11
22.3116
 21
164.994
  0
LINE
  8
0
 10
22.3116
 20
164.994
 11
22.6884
 21
164.994
  0
LINE
  8
0
 10
22.6884
 20
164.994
 11
23.0621
 21
164.947
  0
LINE
  8
0
 10
23.0621
 20
164.947
 11
23.427
 21
164.853
  0
LINE
  8
0
 10
23.427
 20
164.853
 11
23.7773
 21
164.714
  0
LINE
  8
0
 10
23.7773
 20
164.714
 11
24.1075
 21
164.533
  0
LINE
  8
0
 10
24.1075
 20
164.533
 11
24.4123
 21
164.312
  0
LINE
  8
0
 10
24.4123
 20
164.312
 11
24.6869
 21
164.054
  0
LINE
  8
0
 10
24.6869
 20
164.054
 11
24.927
 21
163.763
  0
LINE
  8
0
 10
24.927
 20
163.763
 11
25.1289
 21
163.445
  0
LINE
  8
0
 10
25.1289
 20
163.445
 11
25.2893
 21
163.104
  0
LINE
  8
0
 10
25.2893
 20
163.104
 11
25.4057
 21
162.746
  0
LINE
  8
0
 10
25.4057
 20
162.746
 11
25.4763
 21
162.376
  0
LINE
  8
0
 10
25.4763
 20
162.376
 11
25.5
 21
162
  0
LINE
  8
0
 10
25.5
 20
162
 11
25.4763
 21
161.624
  0
LINE
  8
0
 10
25.4763
 20
161.624
 11
25.4057
 21
161.254
  0
LINE
  8
0
 10
25.4057
 20
161.254
 11
25.2893
 21
160.896
  0
LINE
  8
0
 10
25.2893
 20
160.896
 11
25.1289
 21
160.555
  0
LINE
  8
0
 10
25.1289
 20
160.555
 11
24.927
 21
160.237
  0
LINE
  8
0
 10
24.927
 20
160.237
 11
24.6869
 21
159.946
  0
LINE
  8
0
 10
24.6869
 20
159.946
 11
24.4123
 21
159.688
  0
LINE
  8
0
 10
24.4123
 20
159.688
 11
24.1075
 21
159.467
  0
LINE
  8
0
 10
24.1075
 20
159.467
 11
23.7773
 21
159.286
  0
LINE
  8
0
 10
23.7773
 20
159.286
 11
23.427
 21
159.147
  0
LINE
  8
0
 10
23.427
 20
159.147
 11
23.0621
 21
159.053
  0
LINE
  8
0
 10
23.0621
 20
159.053
 11
22.6884
 21
159.006
  0
LINE
  8
0
 10
22.6884
 20
159.006
 11
22.3116
 21
159.006
  0
LINE
  8
0
 10
7.31161
 20
159.006
 11
6.93785
 21
159.053
  0
LINE
  8
0
 10
6.93785
 20
159.053
 11
6.57294
 21
159.147
  0
LINE
  8
0
 10
6.57294
 20
159.147
 11
6.22266
 21
159.286
  0
LINE
  8
0
 10
6.22266
 20
159.286
 11
5.89252
 21
159.467
  0
LINE
  8
0
 10
5.89252
 20
159.467
 11
5.58772
 21
159.688
  0
LINE
  8
0
 10
5.58772
 20
159.688
 11
5.31308
 21
159.946
  0
LINE
  8
0
 10
5.31308
 20
159.946
 11
5.07294
 21
160.237
  0
LINE
  8
0
 10
5.07294
 20
160.237
 11
4.87108
 21
160.555
  0
LINE
  8
0
 10
4.87108
 20
160.555
 11
4.71066
 21
160.896
  0
LINE
  8
0
 10
4.71066
 20
160.896
 11
4.59424
 21
161.254
  0
LINE
  8
0
 10
4.59424
 20
161.254
 11
4.52365
 21
161.624
  0
LINE
  8
0
 10
4.52365
 20
161.624
 11
4.5
 21
162
  0
LINE
  8
0
 10
4.5
 20
162
 11
4.52365
 21
162.376
  0
LINE
  8
0
 10
4.52365
 20
162.376
 11
4.59424
 21
162.746
  0
LINE
  8
0
 10
4.59424
 20
162.746
 11
4.71066
 21
163.104
  0
LINE
  8
0
 10
4.71066
 20
163.104
 11
4.87108
 21
163.445
  0
LINE
  8
0
 10
4.87108
 20
163.445
 11
5.07294
 21
163.763
  0
LINE
  8
0
 10
5.07294
 20
163.763
 11
5.31308
 21
164.054
  0
LINE
  8
0
 10
5.31308
 20
164.054
 11
5.58772
 21
164.312
  0
LINE
  8
0
 10
5.58772
 20
164.312
 11
5.89252
 21
164.533
  0
LINE
  8
0
 10
5.89252
 20
164.533
 11
6.22266
 21
164.714
  0
LINE
  8
0
 10
6.22266
 20
164.714
 11
6.57294
 21
164.853
  0
LINE
  8
0
 10
6.57294
 20
164.853
 11
6.93785
 21
164.947
  0
LINE
  8
0
 10
6.93785
 20
164.947
 11
7.31161
 21
164.994
  0
LINE
  8
0
 10
7.31161
 20
164.994
 11
7.68837
 21
164.994
  0
LINE
  8
0
 10
7.68837
 20
164.994
 11
8.06213
 21
164.947
  0
LINE
  8
0
 10
8.06213
 20
164.947
 11
8.42705
 21
164.853
  0
LINE
  8
0
 10
8.42705
 20
164.853
 11
8.77733
 21
164.714
  0
LINE
  8
0
 10
8.77733
 20
164.714
 11
9.10747
 21
164.533
  0
LINE
  8
0
 10
9.10747
 20
164.533
 11
9.41226
 21
164.312
  0
LINE
  8
0
 10
9.41226
 20
164.312
 11
9.6869
 21
164.054
  0
LINE
  8
0
 10
9.6869
 20
164.054
 11
9.92705
 21
163.763
  0
LINE
  8
0
 10
9.92705
 20
163.763
 11
10.1289
 21
163.445
  0
LINE
  8
0
 10
10.1289
 20
163.445
 11
10.2893
 21
163.104
  0
LINE
  8
0
 10
10.2893
 20
163.104
 11
10.4057
 21
162.746
  0
LINE
  8
0
 10
10.4057
 20
162.746
 11
10.4763
 21
162.376
  0
LINE
  8
0
 10
10.4763
 20
162.376
 11
10.5
 21
162
  0
LINE
  8
0
 10
10.5
 20
162
 11
10.4763
 21
161.624
  0
LINE
  8
0
 10
10.4763
 20
161.624
 11
10.4057
 21
161.254
  0
LINE
  8
0
 10
10.4057
 20
161.254
 11
10.2893
 21
160.896
  0
LINE
  8
0
 10
10.2893
 20
160.896
 11
10.1289
 21
160.555
  0
LINE
  8
0
 10
10.1289
 20
160.555
 11
9.92705
 21
160.237
  0
LINE
  8
0
 10
9.92705
 20
160.237
 11
9.6869
 21
159.946
  0
LINE
  8
0
 10
9.6869
 20
159.946
 11
9.41226
 21
159.688
  0
LINE
  8
0
 10
9.41226
 20
159.688
 11
9.10747
 21
159.467
  0
LINE
  8
0
 10
9.10747
 20
159.467
 11
8.77733
 21
159.286
  0
LINE
  8
0
 10
8.77733
 20
159.286
 11
8.42705
 21
159.147
  0
LINE
  8
0
 10
8.42705
 20
159.147
 11
8.06213
 21
159.053
  0
LINE
  8
0
 10
8.06213
 20
159.053
 11
7.68837
 21
159.006
  0
LINE
  8
0
 10
7.68837
 20
159.006
 11
7.31161
 21
159.006
  0
LINE
  8
0
 10
37.3116
 20
144.006
 11
36.9379
 21
144.053
  0
LINE
  8
0
 10
36.9379
 20
144.053
 11
36.5729
 21
144.147
  0
LINE
  8
0
 10
36.5729
 20
144.147
 11
36.2227
 21
144.286
  0
LINE
  8
0
 10
36.2227
 20
144.286
 11
35.8925
 21
144.467
  0
LINE
  8
0
 10
35.8925
 20
144.467
 11
35.5877
 21
144.688
  0
LINE
  8
0
 10
35.5877
 20
144.688
 11
35.3131
 21
144.946
  0
LINE
  8
0
 10
35.3131
 20
144.946
 11
35.0729
 21
145.237
  0
LINE
  8
0
 10
35.0729
 20
145.237
 11
34.8711
 21
145.555
  0
LINE
  8
0
 10
34.8711
 20
145.555
 11
34.7107
 21
145.896
  0
LINE
  8
0
 10
34.7107
 20
145.896
 11
34.5942
 21
146.254
  0
LINE
  8
0
 10
34.5942
 20
146.254
 11
34.5237
 21
146.624
  0
LINE
  8
0
 10
34.5237
 20
146.624
 11
34.5
 21
147
  0
LINE
  8
0
 10
34.5
 20
147
 11
34.5237
 21
147.376
  0
LINE
  8
0
 10
34.5237
 20
147.376
 11
34.5942
 21
147.746
  0
LINE
  8
0
 10
34.5942
 20
147.746
 11
34.7107
 21
148.104
  0
LINE
  8
0
 10
34.7107
 20
148.104
 11
34.8711
 21
148.445
  0
LINE
  8
0
 10
34.8711
 20
148.445
 11
35.0729
 21
148.763
  0
LINE
  8
0
 10
35.0729
 20
148.763
 11
35.3131
 21
149.054
  0
LINE
  8
0
 10
35.3131
 20
149.054
 11
35.5877
 21
149.312
  0
LINE
  8
0
 10
35.5877
 20
149.312
 11
35.8925
 21
149.533
  0
LINE
  8
0
 10
35.8925
 20
149.533
 11
36.2227
 21
149.714
  0
LINE
  8
0
 10
36.2227
 20
149.714
 11
36.5729
 21
149.853
  0
LINE
  8
0
 10
36.5729
 20
149.853
 11
36.9379
 21
149.947
  0
LINE
  8
0
 10
36.9379
 20
149.947
 11
37.3116
 21
149.994
  0
LINE
  8
0
 10
37.3116
 20
149.994
 11
37.6884
 21
149.994
  0
LINE
  8
0
 10
37.6884
 20
149.994
 11
38.0621
 21
149.947
  0
LINE
  8
0
 10
38.0621
 20
149.947
 11
38.427
 21
149.853
  0
LINE
  8
0
 10
38.427
 20
149.853
 11
38.7773
 21
149.714
  0
LINE
  8
0
 10
38.7773
 20
149.714
 11
39.1075
 21
149.533
  0
LINE
  8
0
 10
39.1075
 20
149.533
 11
39.4123
 21
149.312
  0
LINE
  8
0
 10
39.4123
 20
149.312
 11
39.6869
 21
149.054
  0
LINE
  8
0
 10
39.6869
 20
149.054
 11
39.927
 21
148.763
  0
LINE
  8
0
 10
39.927
 20
148.763
 11
40.1289
 21
148.445
  0
LINE
  8
0
 10
40.1289
 20
148.445
 11
40.2893
 21
148.104
  0
LINE
  8
0
 10
40.2893
 20
148.104
 11
40.4057
 21
147.746
  0
LINE
  8
0
 10
40.4057
 20
147.746
 11
40.4763
 21
147.376
  0
LINE
  8
0
 10
40.4763
 20
147.376
 11
40.5
 21
147
  0
LINE
  8
0
 10
40.5
 20
147
 11
40.4763
 21
146.624
  0
LINE
  8
0
 10
40.4763
 20
146.624
 11
40.4057
 21
146.254
  0
LINE
  8
0
 10
40.4057
 20
146.254
 11
40.2893
 21
145.896
  0
LINE
  8
0
 10
40.2893
 20
145.896
 11
40.1289
 21
145.555
  0
LINE
  8
0
 10
40.1289
 20
145.555
 11
39.927
 21
145.237
  0
LINE
  8
0
 10
39.927
 20
145.237
 11
39.6869
 21
144.946
  0
LINE
  8
0
 10
39.6869
 20
144.946
 11
39.4123
 21
144.688
  0
LINE
  8
0
 10
39.4123
 20
144.688
 11
39.1075
 21
144.467
  0
LINE
  8
0
 10
39.1075
 20
144.467
 11
38.7773
 21
144.286
  0
LINE
  8
0
 10
38.7773
 20
144.286
 11
38.427
 21
144.147
  0
LINE
  8
0
 10
38.427
 20
144.147
 11
38.0621
 21
144.053
  0
LINE
  8
0
 10
38.0621
 20
144.053
 11
37.6884
 21
144.006
  0
LINE
  8
0
 10
37.6884
 20
144.006
 11
37.3116
 21
144.006
  0
LINE
  8
0
 10
22.3116
 20
144.006
 11
21.9379
 21
144.053
  0
LINE
  8
0
 10
21.9379
 20
144.053
 11
21.5729
 21
144.147
  0
LINE
  8
0
 10
21.5729
 20
144.147
 11
21.2227
 21
144.286
  0
LINE
  8
0
 10
21.2227
 20
144.286
 11
20.8925
 21
144.467
  0
LINE
  8
0
 10
20.8925
 20
144.467
 11
20.5877
 21
144.688
  0
LINE
  8
0
 10
20.5877
 20
144.688
 11
20.3131
 21
144.946
  0
LINE
  8
0
 10
20.3131
 20
144.946
 11
20.0729
 21
145.237
  0
LINE
  8
0
 10
20.0729
 20
145.237
 11
19.8711
 21
145.555
  0
LINE
  8
0
 10
19.8711
 20
145.555
 11
19.7107
 21
145.896
  0
LINE
  8
0
 10
19.7107
 20
145.896
 11
19.5942
 21
146.254
  0
LINE
  8
0
 10
19.5942
 20
146.254
 11
19.5237
 21
146.624
  0
LINE
  8
0
 10
19.5237
 20
146.624
 11
19.5
 21
147
  0
LINE
  8
0
 10
19.5
 20
147
 11
19.5237
 21
147.376
  0
LINE
  8
0
 10
19.5237
 20
147.376
 11
19.5942
 21
147.746
  0
LINE
  8
0
 10
19.5942
 20
147.746
 11
19.7107
 21
148.104
  0
LINE
  8
0
 10
19.7107
 20
148.104
 11
19.8711
 21
148.445
  0
LINE
  8
0
 10
19.8711
 20
148.445
 11
20.0729
 21
148.763
  0
LINE
  8
0
 10
20.0729
 20
148.763
 11
20.3131
 21
149.054
  0
LINE
  8
0
 10
20.3131
 20
149.054
 11
20.5877
 21
149.312
  0
LINE
  8
0
 10
20.5877
 20
149.312
 11
20.8925
 21
149.533
  0
LINE
  8
0
 10
20.8925
 20
149.533
 11
21.2227
 21
149.714
  0
LINE
  8
0
 10
21.2227
 20
149.714
 11
21.5729
 21
149.853
  0
LINE
  8
0
 10
21.5729
 20
149.853
 11
21.9379
 21
149.947
  0
LINE
  8
0
 10
21.9379
 20
149.947
 11
22.3116
 21
149.994
  0
LINE
  8
0
 10
22.3116
 20
149.994
 11
22.6884
 21
149.994
  0
LINE
  8
0
 10
22.6884
 20
149.994
 11
23.0621
 21
149.947
  0
LINE
  8
0
 10
23.0621
 20
149.947
 11
23.427
 21
149.853
  0
LINE
  8
0
 10
23.427
 20
149.853
 11
23.7773
 21
149.714
  0
LINE
  8
0
 10
23.7773
 20
149.714
 11
24.1075
 21
149.533
  0
LINE
  8
0
 10
24.1075
 20
149.533
 11
24.4123
 21
149.312
  0
LINE
  8
0
 10
24.4123
 20
149.312
 11
24.6869
 21
149.054
  0
LINE
  8
0
 10
24.6869
 20
149.054
 11
24.927
 21
148.763
  0
LINE
  8
0
 10
24.927
 20
148.763
 11
25.1289
 21
148.445
  0
LINE
  8
0
 10
25.1289
 20
148.445
 11
25.2893
 21
148.104
  0
LINE
  8
0
 10
25.2893
 20
148.104
 11
25.4057
 21
147.746
  0
LINE
  8
0
 10
25.4057
 20
147.746
 11
25.4763
 21
147.376
  0
LINE
  8
0
 10
25.4763
 20
147.376
 11
25.5
 21
147
  0
LINE
  8
0
 10
25.5
 20
147
 11
25.4763
 21
146.624
  0
LINE
  8
0
 10
25.4763
 20
146.624
 11
25.4057
 21
146.254
  0
LINE
  8
0
 10
25.4057
 20
146.254
 11
25.2893
 21
145.896
  0
LINE
  8
0
 10
25.2893
 20
145.896
 11
25.1289
 21
145.555
  0
LINE
  8
0
 10
25.1289
 20
145.555
 11
24.927
 21
145.237
  0
LINE
  8
0
 10
24.927
 20
145.237
 11
24.6869
 21
144.946
  0
LINE
  8
0
 10
24.6869
 20
144.946
 11
24.4123
 21
144.688
  0
LINE
  8
0
 10
24.4123
 20
144.688
 11
24.1075
 21
144.467
  0
LINE
  8
0
 10
24.1075
 20
144.467
 11
23.7773
 21
144.286
  0
LINE
  8
0
 10
23.7773
 20
144.286
 11
23.427
 21
144.147
  0
LINE
  8
0
 10
23.427
 20
144.147
 11
23.0621
 21
144.053
  0
LINE
  8
0
 10
23.0621
 20
144.053
 11
22.6884
 21
144.006
  0
LINE
  8
0
 10
22.6884
 20
144.006
 11
22.3116
 21
144.006
  0
LINE
  8
0
 10
-22.6884
 20
144.006
 11
-23.0621
 21
144.053
  0
LINE
  8
0
 10
-23.0621
 20
144.053
 11
-23.427
 21
144.147
  0
LINE
  8
0
 10
-23.427
 20
144.147
 11
-23.7773
 21
144.286
  0
LINE
  8
0
 10
-23.7773
 20
144.286
 11
-24.1075
 21
144.467
  0
LINE
  8
0
 10
-24.1075
 20
144.467
 11
-24.4123
 21
144.688
  0
LINE
  8
0
 10
-24.4123
 20
144.688
 11
-24.6869
 21
144.946
  0
LINE
  8
0
 10
-24.6869
 20
144.946
 11
-24.927
 21
145.237
  0
LINE
  8
0
 10
-24.927
 20
145.237
 11
-25.1289
 21
145.555
  0
LINE
  8
0
 10
-25.1289
 20
145.555
 11
-25.2893
 21
145.896
  0
LINE
  8
0
 10
-25.2893
 20
145.896
 11
-25.4057
 21
146.254
  0
LINE
  8
0
 10
-25.4057
 20
146.254
 11
-25.4763
 21
146.624
  0
LINE
  8
0
 10
-25.4763
 20
146.624
 11
-25.5
 21
147
  0
LINE
  8
0
 10
-25.5
 20
147
 11
-25.4763
 21
147.376
  0
LINE
  8
0
 10
-25.4763
 20
147.376
 11
-25.4057
 21
147.746
  0
LINE
  8
0
 10
-25.4057
 20
147.746
 11
-25.2893
 21
148.104
  0
LINE
  8
0
 10
-25.2893
 20
148.104
 11
-25.1289
 21
148.445
  0
LINE
  8
0
 10
-25.1289
 20
148.445
 11
-24.927
 21
148.763
  0
LINE
  8
0
 10
-24.927
 20
148.763
 11
-24.6869
 21
149.054
  0
LINE
  8
0
 10
-24.6869
 20
149.054
 11
-24.4123
 21
149.312
  0
LINE
  8
0
 10
-24.4123
 20
149.312
 11
-24.1075
 21
149.533
  0
LINE
  8
0
 10
-24.1075
 20
149.533
 11
-23.7773
 21
149.714
  0
LINE
  8
0
 10
-23.7773
 20
149.714
 11
-23.427
 21
149.853
  0
LINE
  8
0
 10
-23.427
 20
149.853
 11
-23.0621
 21
149.947
  0
LINE
  8
0
 10
-23.0621
 20
149.947
 11
-22.6884
 21
149.994
  0
LINE
  8
0
 10
-22.6884
 20
149.994
 11
-22.3116
 21
149.994
  0
LINE
  8
0
 10
-22.3116
 20
149.994
 11
-21.9379
 21
149.947
  0
LINE
  8
0
 10
-21.9379
 20
149.947
 11
-21.5729
 21
149.853
  0
LINE
  8
0
 10
-21.5729
 20
149.853
 11
-21.2227
 21
149.714
  0
LINE
  8
0
 10
-21.2227
 20
149.714
 11
-20.8925
 21
149.533
  0
LINE
  8
0
 10
-20.8925
 20
149.533
 11
-20.5877
 21
149.312
  0
LINE
  8
0
 10
-20.5877
 20
149.312
 11
-20.3131
 21
149.054
  0
LINE
  8
0
 10
-20.3131
 20
149.054
 11
-20.0729
 21
148.763
  0
LINE
  8
0
 10
-20.0729
 20
148.763
 11
-19.8711
 21
148.445
  0
LINE
  8
0
 10
-19.8711
 20
148.445
 11
-19.7107
 21
148.104
  0
LINE
  8
0
 10
-19.7107
 20
148.104
 11
-19.5942
 21
147.746
  0
LINE
  8
0
 10
-19.5942
 20
147.746
 11
-19.5237
 21
147.376
  0
LINE
  8
0
 10
-19.5237
 20
147.376
 11
-19.5
 21
147
  0
LINE
  8
0
 10
-19.5
 20
147
 11
-19.5237
 21
146.624
  0
LINE
  8
0
 10
-19.5237
 20
146.624
 11
-19.5942
 21
146.254
  0
LINE
  8
0
 10
-19.5942
 20
146.254
 11
-19.7107
 21
145.896
  0
LINE
  8
0
 10
-19.7107
 20
145.896
 11
-19.8711
 21
145.555
  0
LINE
  8
0
 10
-19.8711
 20
145.555
 11
-20.0729
 21
145.237
  0
LINE
  8
0
 10
-20.0729
 20
145.237
 11
-20.3131
 21
144.946
  0
LINE
  8
0
 10
-20.3131
 20
144.946
 11
-20.5877
 21
144.688
  0
LINE
  8
0
 10
-20.5877
 20
144.688
 11
-20.8925
 21
144.467
  0
LINE
  8
0
 10
-20.8925
 20
144.467
 11
-21.2227
 21
144.286
  0
LINE
  8
0
 10
-21.2227
 20
144.286
 11
-21.5729
 21
144.147
  0
LINE
  8
0
 10
-21.5729
 20
144.147
 11
-21.9379
 21
144.053
  0
LINE
  8
0
 10
-21.9379
 20
144.053
 11
-22.3116
 21
144.006
  0
LINE
  8
0
 10
-22.3116
 20
144.006
 11
-22.6884
 21
144.006
  0
LINE
  8
0
 10
-37.6884
 20
144.006
 11
-38.0621
 21
144.053
  0
LINE
  8
0
 10
-38.0621
 20
144.053
 11
-38.427
 21
144.147
  0
LINE
  8
0
 10
-38.427
 20
144.147
 11
-38.7773
 21
144.286
  0
LINE
  8
0
 10
-38.7773
 20
144.286
 11
-39.1075
 21
144.467
  0
LINE
  8
0
 10
-39.1075
 20
144.467
 11
-39.4123
 21
144.688
  0
LINE
  8
0
 10
-39.4123
 20
144.688
 11
-39.6869
 21
144.946
  0
LINE
  8
0
 10
-39.6869
 20
144.946
 11
-39.927
 21
145.237
  0
LINE
  8
0
 10
-39.927
 20
145.237
 11
-40.1289
 21
145.555
  0
LINE
  8
0
 10
-40.1289
 20
145.555
 11
-40.2893
 21
145.896
  0
LINE
  8
0
 10
-40.2893
 20
145.896
 11
-40.4057
 21
146.254
  0
LINE
  8
0
 10
-40.4057
 20
146.254
 11
-40.4763
 21
146.624
  0
LINE
  8
0
 10
-40.4763
 20
146.624
 11
-40.5
 21
147
  0
LINE
  8
0
 10
-40.5
 20
147
 11
-40.4763
 21
147.376
  0
LINE
  8
0
 10
-40.4763
 20
147.376
 11
-40.4057
 21
147.746
  0
LINE
  8
0
 10
-40.4057
 20
147.746
 11
-40.2893
 21
148.104
  0
LINE
  8
0
 10
-40.2893
 20
148.104
 11
-40.1289
 21
148.445
  0
LINE
  8
0
 10
-40.1289
 20
148.445
 11
-39.927
 21
148.763
  0
LINE
  8
0
 10
-39.927
 20
148.763
 11
-39.6869
 21
149.054
  0
LINE
  8
0
 10
-39.6869
 20
149.054
 11
-39.4123
 21
149.312
  0
LINE
  8
0
 10
-39.4123
 20
149.312
 11
-39.1075
 21
149.533
  0
LINE
  8
0
 10
-39.1075
 20
149.533
 11
-38.7773
 21
149.714
  0
LINE
  8
0
 10
-38.7773
 20
149.714
 11
-38.427
 21
149.853
  0
LINE
  8
0
 10
-38.427
 20
149.853
 11
-38.0621
 21
149.947
  0
LINE
  8
0
 10
-38.0621
 20
149.947
 11
-37.6884
 21
149.994
  0
LINE
  8
0
 10
-37.6884
 20
149.994
 11
-37.3116
 21
149.994
  0
LINE
  8
0
 10
-37.3116
 20
149.994
 11
-36.9379
 21
149.947
  0
LINE
  8
0
 10
-36.9379
 20
149.947
 11
-36.5729
 21
149.853
  0
LINE
  8
0
 10
-36.5729
 20
149.853
 11
-36.2227
 21
149.714
  0
LINE
  8
0
 10
-36.2227
 20
149.714
 11
-35.8925
 21
149.533
  0
LINE
  8
0
 10
-35.8925
 20
149.533
 11
-35.5877
 21
149.312
  0
LINE
  8
0
 10
-35.5877
 20
149.312
 11
-35.3131
 21
149.054
  0
LINE
  8
0
 10
-35.3131
 20
149.054
 11
-35.0729
 21
148.763
  0
LINE
  8
0
 10
-35.0729
 20
148.763
 11
-34.8711
 21
148.445
  0
LINE
  8
0
 10
-34.8711
 20
148.445
 11
-34.7107
 21
148.104
  0
LINE
  8
0
 10
-34.7107
 20
148.104
 11
-34.5942
 21
147.746
  0
LINE
  8
0
 10
-34.5942
 20
147.746
 11
-34.5237
 21
147.376
  0
LINE
  8
0
 10
-34.5237
 20
147.376
 11
-34.5
 21
147
  0
LINE
  8
0
 10
-34.5
 20
147
 11
-34.5237
 21
146.624
  0
LINE
  8
0
 10
-34.5237
 20
146.624
 11
-34.5942
 21
146.254
  0
LINE
  8
0
 10
-34.5942
 20
146.254
 11
-34.7107
 21
145.896
  0
LINE
  8
0
 10
-34.7107
 20
145.896
 11
-34.8711
 21
145.555
  0
LINE
  8
0
 10
-34.8711
 20
145.555
 11
-35.0729
 21
145.237
  0
LINE
  8
0
 10
-35.0729
 20
145.237
 11
-35.3131
 21
144.946
  0
LINE
  8
0
 10
-35.3131
 20
144.946
 11
-35.5877
 21
144.688
  0
LINE
  8
0
 10
-35.5877
 20
144.688
 11
-35.8925
 21
144.467
  0
LINE
  8
0
 10
-35.8925
 20
144.467
 11
-36.2227
 21
144.286
  0
LINE
  8
0
 10
-36.2227
 20
144.286
 11
-36.5729
 21
144.147
  0
LINE
  8
0
 10
-36.5729
 20
144.147
 11
-36.9379
 21
144.053
  0
LINE
  8
0
 10
-36.9379
 20
144.053
 11
-37.3116
 21
144.006
  0
LINE
  8
0
 10
-37.3116
 20
144.006
 11
-37.6884
 21
144.006
  0
LINE
  8
0
 10
-7.68837
 20
144.006
 11
-8.06213
 21
144.053
  0
LINE
  8
0
 10
-8.06213
 20
144.053
 11
-8.42705
 21
144.147
  0
LINE
  8
0
 10
-8.42705
 20
144.147
 11
-8.77733
 21
144.286
  0
LINE
  8
0
 10
-8.77733
 20
144.286
 11
-9.10747
 21
144.467
  0
LINE
  8
0
 10
-9.10747
 20
144.467
 11
-9.41226
 21
144.688
  0
LINE
  8
0
 10
-9.41226
 20
144.688
 11
-9.6869
 21
144.946
  0
LINE
  8
0
 10
-9.6869
 20
144.946
 11
-9.92705
 21
145.237
  0
LINE
  8
0
 10
-9.92705
 20
145.237
 11
-10.1289
 21
145.555
  0
LINE
  8
0
 10
-10.1289
 20
145.555
 11
-10.2893
 21
145.896
  0
LINE
  8
0
 10
-10.2893
 20
145.896
 11
-10.4057
 21
146.254
  0
LINE
  8
0
 10
-10.4057
 20
146.254
 11
-10.4763
 21
146.624
  0
LINE
  8
0
 10
-10.4763
 20
146.624
 11
-10.5
 21
147
  0
LINE
  8
0
 10
-10.5
 20
147
 11
-10.4763
 21
147.376
  0
LINE
  8
0
 10
-10.4763
 20
147.376
 11
-10.4057
 21
147.746
  0
LINE
  8
0
 10
-10.4057
 20
147.746
 11
-10.2893
 21
148.104
  0
LINE
  8
0
 10
-10.2893
 20
148.104
 11
-10.1289
 21
148.445
  0
LINE
  8
0
 10
-10.1289
 20
148.445
 11
-9.92705
 21
148.763
  0
LINE
  8
0
 10
-9.92705
 20
148.763
 11
-9.6869
 21
149.054
  0
LINE
  8
0
 10
-9.6869
 20
149.054
 11
-9.41226
 21
149.312
  0
LINE
  8
0
 10
-9.41226
 20
149.312
 11
-9.10747
 21
149.533
  0
LINE
  8
0
 10
-9.10747
 20
149.533
 11
-8.77733
 21
149.714
  0
LINE
  8
0
 10
-8.77733
 20
149.714
 11
-8.42705
 21
149.853
  0
LINE
  8
0
 10
-8.42705
 20
149.853
 11
-8.06213
 21
149.947
  0
LINE
  8
0
 10
-8.06213
 20
149.947
 11
-7.68837
 21
149.994
  0
LINE
  8
0
 10
-7.68837
 20
149.994
 11
-7.31161
 21
149.994
  0
LINE
  8
0
 10
-7.31161
 20
149.994
 11
-6.93785
 21
149.947
  0
LINE
  8
0
 10
-6.93785
 20
149.947
 11
-6.57294
 21
149.853
  0
LINE
  8
0
 10
-6.57294
 20
149.853
 11
-6.22266
 21
149.714
  0
LINE
  8
0
 10
-6.22266
 20
149.714
 11
-5.89252
 21
149.533
  0
LINE
  8
0
 10
-5.89252
 20
149.533
 11
-5.58772
 21
149.312
  0
LINE
  8
0
 10
-5.58772
 20
149.312
 11
-5.31308
 21
149.054
  0
LINE
  8
0
 10
-5.31308
 20
149.054
 11
-5.07294
 21
148.763
  0
LINE
  8
0
 10
-5.07294
 20
148.763
 11
-4.87108
 21
148.445
  0
LINE
  8
0
 10
-4.87108
 20
148.445
 11
-4.71066
 21
148.104
  0
LINE
  8
0
 10
-4.71066
 20
148.104
 11
-4.59424
 21
147.746
  0
LINE
  8
0
 10
-4.59424
 20
147.746
 11
-4.52365
 21
147.376
  0
LINE
  8
0
 10
-4.52365
 20
147.376
 11
-4.5
 21
147
  0
LINE
  8
0
 10
-4.5
 20
147
 11
-4.52365
 21
146.624
  0
LINE
  8
0
 10
-4.52365
 20
146.624
 11
-4.59424
 21
146.254
  0
LINE
  8
0
 10
-4.59424
 20
146.254
 11
-4.71066
 21
145.896
  0
LINE
  8
0
 10
-4.71066
 20
145.896
 11
-4.87108
 21
145.555
  0
LINE
  8
0
 10
-4.87108
 20
145.555
 11
-5.07294
 21
145.237
  0
LINE
  8
0
 10
-5.07294
 20
145.237
 11
-5.31308
 21
144.946
  0
LINE
  8
0
 10
-5.31308
 20
144.946
 11
-5.58772
 21
144.688
  0
LINE
  8
0
 10
-5.58772
 20
144.688
 11
-5.89252
 21
144.467
  0
LINE
  8
0
 10
-5.89252
 20
144.467
 11
-6.22266
 21
144.286
  0
LINE
  8
0
 10
-6.22266
 20
144.286
 11
-6.57294
 21
144.147
  0
LINE
  8
0
 10
-6.57294
 20
144.147
 11
-6.93785
 21
144.053
  0
LINE
  8
0
 10
-6.93785
 20
144.053
 11
-7.31161
 21
144.006
  0
LINE
  8
0
 10
-7.31161
 20
144.006
 11
-7.68837
 21
144.006
  0
LINE
  8
0
 10
7.31161
 20
144.006
 11
6.93785
 21
144.053
  0
LINE
  8
0
 10
6.93785
 20
144.053
 11
6.57294
 21
144.147
  0
LINE
  8
0
 10
6.57294
 20
144.147
 11
6.22266
 21
144.286
  0
LINE
  8
0
 10
6.22266
 20
144.286
 11
5.89252
 21
144.467
  0
LINE
  8
0
 10
5.89252
 20
144.467
 11
5.58772
 21
144.688
  0
LINE
  8
0
 10
5.58772
 20
144.688
 11
5.31308
 21
144.946
  0
LINE
  8
0
 10
5.31308
 20
144.946
 11
5.07294
 21
145.237
  0
LINE
  8
0
 10
5.07294
 20
145.237
 11
4.87108
 21
145.555
  0
LINE
  8
0
 10
4.87108
 20
145.555
 11
4.71066
 21
145.896
  0
LINE
  8
0
 10
4.71066
 20
145.896
 11
4.59424
 21
146.254
  0
LINE
  8
0
 10
4.59424
 20
146.254
 11
4.52365
 21
146.624
  0
LINE
  8
0
 10
4.52365
 20
146.624
 11
4.5
 21
147
  0
LINE
  8
0
 10
4.5
 20
147
 11
4.52365
 21
147.376
  0
LINE
  8
0
 10
4.52365
 20
147.376
 11
4.59424
 21
147.746
  0
LINE
  8
0
 10
4.59424
 20
147.746
 11
4.71066
 21
148.104
  0
LINE
  8
0
 10
4.71066
 20
148.104
 11
4.87108
 21
148.445
  0
LINE
  8
0
 10
4.87108
 20
148.445
 11
5.07294
 21
148.763
  0
LINE
  8
0
 10
5.07294
 20
148.763
 11
5.31308
 21
149.054
  0
LINE
  8
0
 10
5.31308
 20
149.054
 11
5.58772
 21
149.312
  0
LINE
  8
0
 10
5.58772
 20
149.312
 11
5.89252
 21
149.533
  0
LINE
  8
0
 10
5.89252
 20
149.533
 11
6.22266
 21
149.714
  0
LINE
  8
0
 10
6.22266
 20
149.714
 11
6.57294
 21
149.853
  0
LINE
  8
0
 10
6.57294
 20
149.853
 11
6.93785
 21
149.947
  0
LINE
  8
0
 10
6.93785
 20
149.947
 11
7.31161
 21
149.994
  0
LINE
  8
0
 10
7.31161
 20
149.994
 11
7.68837
 21
149.994
  0
LINE
  8
0
 10
7.68837
 20
149.994
 11
8.06213
 21
149.947
  0
LINE
  8
0
 10
8.06213
 20
149.947
 11
8.42705
 21
149.853
  0
LINE
  8
0
 10
8.42705
 20
149.853
 11
8.77733
 21
149.714
  0
LINE
  8
0
 10
8.77733
 20
149.714
 11
9.10747
 21
149.533
  0
LINE
  8
0
 10
9.10747
 20
149.533
 11
9.41226
 21
149.312
  0
LINE
  8
0
 10
9.41226
 20
149.312
 11
9.6869
 21
149.054
  0
LINE
  8
0
 10
9.6869
 20
149.054
 11
9.92705
 21
148.763
  0
LINE
  8
0
 10
9.92705
 20
148.763
 11
10.1289
 21
148.445
  0
LINE
  8
0
 10
10.1289
 20
148.445
 11
10.2893
 21
148.104
  0
LINE
  8
0
 10
10.2893
 20
148.104
 11
10.4057
 21
147.746
  0
LINE
  8
0
 10
10.4057
 20
147.746
 11
10.4763
 21
147.376
  0
LINE
  8
0
 10
10.4763
 20
147.376
 11
10.5
 21
147
  0
LINE
  8
0
 10
10.5
 20
147
 11
10.4763
 21
146.624
  0
LINE
  8
0
 10
10.4763
 20
146.624
 11
10.4057
 21
146.254
  0
LINE
  8
0
 10
10.4057
 20
146.254
 11
10.2893
 21
145.896
  0
LINE
  8
0
 10
10.2893
 20
145.896
 11
10.1289
 21
145.555
  0
LINE
  8
0
 10
10.1289
 20
145.555
 11
9.92705
 21
145.237
  0
LINE
  8
0
 10
9.92705
 20
145.237
 11
9.6869
 21
144.946
  0
LINE
  8
0
 10
9.6869
 20
144.946
 11
9.41226
 21
144.688
  0
LINE
  8
0
 10
9.41226
 20
144.688
 11
9.10747
 21
144.467
  0
LINE
  8
0
 10
9.10747
 20
144.467
 11
8.77733
 21
144.286
  0
LINE
  8
0
 10
8.77733
 20
144.286
 11
8.42705
 21
144.147
  0
LINE
  8
0
 10
8.42705
 20
144.147
 11
8.06213
 21
144.053
  0
LINE
  8
0
 10
8.06213
 20
144.053
 11
7.68837
 21
144.006
  0
LINE
  8
0
 10
7.68837
 20
144.006
 11
7.31161
 21
144.006
  0
LINE
  8
0
 10
40.4369
 20
86.0886
 11
41.0451
 21
86.2447
  0
LINE
  8
0
 10
41.0451
 20
86.2447
 11
41.6289
 21
86.4759
  0
LINE
  8
0
 10
41.6289
 20
86.4759
 11
42.1791
 21
86.7784
  0
LINE
  8
0
 10
42.1791
 20
86.7784
 11
42.6871
 21
87.1474
  0
LINE
  8
0
 10
42.6871
 20
87.1474
 11
43.1448
 21
87.5773
  0
LINE
  8
0
 10
43.1448
 20
87.5773
 11
43.5451
 21
88.0611
  0
LINE
  8
0
 10
43.5451
 20
88.0611
 11
43.8815
 21
88.5912
  0
LINE
  8
0
 10
43.8815
 20
88.5912
 11
44.1489
 21
89.1594
  0
LINE
  8
0
 10
44.1489
 20
89.1594
 11
44.3429
 21
89.7566
  0
LINE
  8
0
 10
44.3429
 20
89.7566
 11
44.4606
 21
90.3733
  0
LINE
  8
0
 10
44.4606
 20
90.3733
 11
44.5
 21
91
  0
LINE
  8
0
 10
44.5
 20
91
 11
44.5
 21
125
  0
LINE
  8
0
 10
44.5
 20
125
 11
44.4606
 21
125.627
  0
LINE
  8
0
 10
44.4606
 20
125.627
 11
44.3429
 21
126.243
  0
LINE
  8
0
 10
44.3429
 20
126.243
 11
44.1489
 21
126.841
  0
LINE
  8
0
 10
44.1489
 20
126.841
 11
43.8815
 21
127.409
  0
LINE
  8
0
 10
43.8815
 20
127.409
 11
43.5451
 21
127.939
  0
LINE
  8
0
 10
43.5451
 20
127.939
 11
43.1448
 21
128.423
  0
LINE
  8
0
 10
43.1448
 20
128.423
 11
42.6871
 21
128.853
  0
LINE
  8
0
 10
42.6871
 20
128.853
 11
42.1791
 21
129.222
  0
LINE
  8
0
 10
42.1791
 20
129.222
 11
41.6289
 21
129.524
  0
LINE
  8
0
 10
41.6289
 20
129.524
 11
41.0451
 21
129.755
  0
LINE
  8
0
 10
41.0451
 20
129.755
 11
40.4369
 21
129.911
  0
LINE
  8
0
 10
40.4369
 20
129.911
 11
39.8139
 21
129.99
  0
LINE
  8
0
 10
39.8139
 20
129.99
 11
-39.8139
 21
129.99
  0
LINE
  8
0
 10
-39.8139
 20
129.99
 11
-40.4369
 21
129.911
  0
LINE
  8
0
 10
-40.4369
 20
129.911
 11
-41.0451
 21
129.755
  0
LINE
  8
0
 10
-41.0451
 20
129.755
 11
-41.6289
 21
129.524
  0
LINE
  8
0
 10
-41.6289
 20
129.524
 11
-42.1791
 21
129.222
  0
LINE
  8
0
 10
-42.1791
 20
129.222
 11
-42.6871
 21
128.853
  0
LINE
  8
0
 10
-42.6871
 20
128.853
 11
-43.1448
 21
128.423
  0
LINE
  8
0
 10
-43.1448
 20
128.423
 11
-43.5451
 21
127.939
  0
LINE
  8
0
 10
-43.5451
 20
127.939
 11
-43.8815
 21
127.409
  0
LINE
  8
0
 10
-43.8815
 20
127.409
 11
-44.1489
 21
126.841
  0
LINE
  8
0
 10
-44.1489
 20
126.841
 11
-44.3429
 21
126.243
  0
LINE
  8
0
 10
-44.3429
 20
126.243
 11
-44.4606
 21
125.627
  0
LINE
  8
0
 10
-44.4606
 20
125.627
 11
-44.5
 21
125
  0
LINE
  8
0
 10
-44.5
 20
125
 11
-44.5
 21
91
  0
LINE
  8
0
 10
-44.5
 20
91
 11
-44.4606
 21
90.3733
  0
LINE
  8
0
 10
-44.4606
 20
90.3733
 11
-44.3429
 21
89.7566
  0
LINE
  8
0
 10
-44.3429
 20
89.7566
 11
-44.1489
 21
89.1594
  0
LINE
  8
0
 10
-44.1489
 20
89.1594
 11
-43.8815
 21
88.5912
  0
LINE
  8
0
 10
-43.8815
 20
88.5912
 11
-43.5451
 21
88.0611
  0
LINE
  8
0
 10
-43.5451
 20
88.0611
 11
-43.1448
 21
87.5773
  0
LINE
  8
0
 10
-43.1448
 20
87.5773
 11
-42.6871
 21
87.1474
  0
LINE
  8
0
 10
-42.6871
 20
87.1474
 11
-42.1791
 21
86.7784
  0
LINE
  8
0
 10
-42.1791
 20
86.7784
 11
-41.6289
 21
86.4759
  0
LINE
  8
0
 10
-41.6289
 20
86.4759
 11
-41.0451
 21
86.2447
  0
LINE
  8
0
 10
-41.0451
 20
86.2447
 11
-40.4369
 21
86.0886
  0
LINE
  8
0
 10
-40.4369
 20
86.0886
 11
-39.8139
 21
86.0099
  0
LINE
  8
0
 10
-39.8139
 20
86.0099
 11
39.8139
 21
86.0099
  0
LINE
  8
0
 10
39.8139
 20
86.0099
 11
40.4369
 21
86.0886
  0
LINE
  8
0
 10
22.3116
 20
120.006
 11
21.9379
 21
120.053
  0
LINE
  8
0
 10
21.9379
 20
120.053
 11
21.5729
 21
120.147
  0
LINE
  8
0
 10
21.5729
 20
120.147
 11
21.2227
 21
120.286
  0
LINE
  8
0
 10
21.2227
 20
120.286
 11
20.8925
 21
120.467
  0
LINE
  8
0
 10
20.8925
 20
120.467
 11
20.5877
 21
120.688
  0
LINE
  8
0
 10
20.5877
 20
120.688
 11
20.3131
 21
120.946
  0
LINE
  8
0
 10
20.3131
 20
120.946
 11
20.0729
 21
121.237
  0
LINE
  8
0
 10
20.0729
 20
121.237
 11
19.8711
 21
121.555
  0
LINE
  8
0
 10
19.8711
 20
121.555
 11
19.7107
 21
121.896
  0
LINE
  8
0
 10
19.7107
 20
121.896
 11
19.5942
 21
122.254
  0
LINE
  8
0
 10
19.5942
 20
122.254
 11
19.5237
 21
122.624
  0
LINE
  8
0
 10
19.5237
 20
122.624
 11
19.5
 21
123
  0
LINE
  8
0
 10
19.5
 20
123
 11
19.5237
 21
123.376
  0
LINE
  8
0
 10
19.5237
 20
123.376
 11
19.5942
 21
123.746
  0
LINE
  8
0
 10
19.5942
 20
123.746
 11
19.7107
 21
124.104
  0
LINE
  8
0
 10
19.7107
 20
124.104
 11
19.8711
 21
124.445
  0
LINE
  8
0
 10
19.8711
 20
124.445
 11
20.0729
 21
124.763
  0
LINE
  8
0
 10
20.0729
 20
124.763
 11
20.3131
 21
125.054
  0
LINE
  8
0
 10
20.3131
 20
125.054
 11
20.5877
 21
125.312
  0
LINE
  8
0
 10
20.5877
 20
125.312
 11
20.8925
 21
125.533
  0
LINE
  8
0
 10
20.8925
 20
125.533
 11
21.2227
 21
125.714
  0
LINE
  8
0
 10
21.2227
 20
125.714
 11
21.5729
 21
125.853
  0
LINE
  8
0
 10
21.5729
 20
125.853
 11
21.9379
 21
125.947
  0
LINE
  8
0
 10
21.9379
 20
125.947
 11
22.3116
 21
125.994
  0
LINE
  8
0
 10
22.3116
 20
125.994
 11
22.6884
 21
125.994
  0
LINE
  8
0
 10
22.6884
 20
125.994
 11
23.0621
 21
125.947
  0
LINE
  8
0
 10
23.0621
 20
125.947
 11
23.427
 21
125.853
  0
LINE
  8
0
 10
23.427
 20
125.853
 11
23.7773
 21
125.714
  0
LINE
  8
0
 10
23.7773
 20
125.714
 11
24.1075
 21
125.533
  0
LINE
  8
0
 10
24.1075
 20
125.533
 11
24.4123
 21
125.312
  0
LINE
  8
0
 10
24.4123
 20
125.312
 11
24.6869
 21
125.054
  0
LINE
  8
0
 10
24.6869
 20
125.054
 11
24.927
 21
124.763
  0
LINE
  8
0
 10
24.927
 20
124.763
 11
25.1289
 21
124.445
  0
LINE
  8
0
 10
25.1289
 20
124.445
 11
25.2893
 21
124.104
  0
LINE
  8
0
 10
25.2893
 20
124.104
 11
25.4057
 21
123.746
  0
LINE
  8
0
 10
25.4057
 20
123.746
 11
25.4763
 21
123.376
  0
LINE
  8
0
 10
25.4763
 20
123.376
 11
25.5
 21
123
  0
LINE
  8
0
 10
25.5
 20
123
 11
25.4763
 21
122.624
  0
LINE
  8
0
 10
25.4763
 20
122.624
 11
25.4057
 21
122.254
  0
LINE
  8
0
 10
25.4057
 20
122.254
 11
25.2893
 21
121.896
  0
LINE
  8
0
 10
25.2893
 20
121.896
 11
25.1289
 21
121.555
  0
LINE
  8
0
 10
25.1289
 20
121.555
 11
24.927
 21
121.237
  0
LINE
  8
0
 10
24.927
 20
121.237
 11
24.6869
 21
120.946
  0
LINE
  8
0
 10
24.6869
 20
120.946
 11
24.4123
 21
120.688
  0
LINE
  8
0
 10
24.4123
 20
120.688
 11
24.1075
 21
120.467
  0
LINE
  8
0
 10
24.1075
 20
120.467
 11
23.7773
 21
120.286
  0
LINE
  8
0
 10
23.7773
 20
120.286
 11
23.427
 21
120.147
  0
LINE
  8
0
 10
23.427
 20
120.147
 11
23.0621
 21
120.053
  0
LINE
  8
0
 10
23.0621
 20
120.053
 11
22.6884
 21
120.006
  0
LINE
  8
0
 10
22.6884
 20
120.006
 11
22.3116
 21
120.006
  0
LINE
  8
0
 10
-22.6884
 20
120.006
 11
-23.0621
 21
120.053
  0
LINE
  8
0
 10
-23.0621
 20
120.053
 11
-23.427
 21
120.147
  0
LINE
  8
0
 10
-23.427
 20
120.147
 11
-23.7773
 21
120.286
  0
LINE
  8
0
 10
-23.7773
 20
120.286
 11
-24.1075
 21
120.467
  0
LINE
  8
0
 10
-24.1075
 20
120.467
 11
-24.4123
 21
120.688
  0
LINE
  8
0
 10
-24.4123
 20
120.688
 11
-24.6869
 21
120.946
  0
LINE
  8
0
 10
-24.6869
 20
120.946
 11
-24.927
 21
121.237
  0
LINE
  8
0
 10
-24.927
 20
121.237
 11
-25.1289
 21
121.555
  0
LINE
  8
0
 10
-25.1289
 20
121.555
 11
-25.2893
 21
121.896
  0
LINE
  8
0
 10
-25.2893
 20
121.896
 11
-25.4057
 21
122.254
  0
LINE
  8
0
 10
-25.4057
 20
122.254
 11
-25.4763
 21
122.624
  0
LINE
  8
0
 10
-25.4763
 20
122.624
 11
-25.5
 21
123
  0
LINE
  8
0
 10
-25.5
 20
123
 11
-25.4763
 21
123.376
  0
LINE
  8
0
 10
-25.4763
 20
123.376
 11
-25.4057
 21
123.746
  0
LINE
  8
0
 10
-25.4057
 20
123.746
 11
-25.2893
 21
124.104
  0
LINE
  8
0
 10
-25.2893
 20
124.104
 11
-25.1289
 21
124.445
  0
LINE
  8
0
 10
-25.1289
 20
124.445
 11
-24.927
 21
124.763
  0
LINE
  8
0
 10
-24.927
 20
124.763
 11
-24.6869
 21
125.054
  0
LINE
  8
0
 10
-24.6869
 20
125.054
 11
-24.4123
 21
125.312
  0
LINE
  8
0
 10
-24.4123
 20
125.312
 11
-24.1075
 21
125.533
  0
LINE
  8
0
 10
-24.1075
 20
125.533
 11
-23.7773
 21
125.714
  0
LINE
  8
0
 10
-23.7773
 20
125.714
 11
-23.427
 21
125.853
  0
LINE
  8
0
 10
-23.427
 20
125.853
 11
-23.0621
 21
125.947
  0
LINE
  8
0
 10
-23.0621
 20
125.947
 11
-22.6884
 21
125.994
  0
LINE
  8
0
 10
-22.6884
 20
125.994
 11
-22.3116
 21
125.994
  0
LINE
  8
0
 10
-22.3116
 20
125.994
 11
-21.9379
 21
125.947
  0
LINE
  8
0
 10
-21.9379
 20
125.947
 11
-21.5729
 21
125.853
  0
LINE
  8
0
 10
-21.5729
 20
125.853
 11
-21.2227
 21
125.714
  0
LINE
  8
0
 10
-21.2227
 20
125.714
 11
-20.8925
 21
125.533
  0
LINE
  8
0
 10
-20.8925
 20
125.533
 11
-20.5877
 21
125.312
  0
LINE
  8
0
 10
-20.5877
 20
125.312
 11
-20.3131
 21
125.054
  0
LINE
  8
0
 10
-20.3131
 20
125.054
 11
-20.0729
 21
124.763
  0
LINE
  8
0
 10
-20.0729
 20
124.763
 11
-19.8711
 21
124.445
  0
LINE
  8
0
 10
-19.8711
 20
124.445
 11
-19.7107
 21
124.104
  0
LINE
  8
0
 10
-19.7107
 20
124.104
 11
-19.5942
 21
123.746
  0
LINE
  8
0
 10
-19.5942
 20
123.746
 11
-19.5237
 21
123.376
  0
LINE
  8
0
 10
-19.5237
 20
123.376
 11
-19.5
 21
123
  0
LINE
  8
0
 10
-19.5
 20
123
 11
-19.5237
 21
122.624
  0
LINE
  8
0
 10
-19.5237
 20
122.624
 11
-19.5942
 21
122.254
  0
LINE
  8
0
 10
-19.5942
 20
122.254
 11
-19.7107
 21
121.896
  0
LINE
  8
0
 10
-19.7107
 20
121.896
 11
-19.8711
 21
121.555
  0
LINE
  8
0
 10
-19.8711
 20
121.555
 11
-20.0729
 21
121.237
  0
LINE
  8
0
 10
-20.0729
 20
121.237
 11
-20.3131
 21
120.946
  0
LINE
  8
0
 10
-20.3131
 20
120.946
 11
-20.5877
 21
120.688
  0
LINE
  8
0
 10
-20.5877
 20
120.688
 11
-20.8925
 21
120.467
  0
LINE
  8
0
 10
-20.8925
 20
120.467
 11
-21.2227
 21
120.286
  0
LINE
  8
0
 10
-21.2227
 20
120.286
 11
-21.5729
 21
120.147
  0
LINE
  8
0
 10
-21.5729
 20
120.147
 11
-21.9379
 21
120.053
  0
LINE
  8
0
 10
-21.9379
 20
120.053
 11
-22.3116
 21
120.006
  0
LINE
  8
0
 10
-22.3116
 20
120.006
 11
-22.6884
 21
120.006
  0
LINE
  8
0
 10
-7.68837
 20
120.006
 11
-8.06213
 21
120.053
  0
LINE
  8
0
 10
-8.06213
 20
120.053
 11
-8.42705
 21
120.147
  0
LINE
  8
0
 10
-8.42705
 20
120.147
 11
-8.77733
 21
120.286
  0
LINE
  8
0
 10
-8.77733
 20
120.286
 11
-9.10747
 21
120.467
  0
LINE
  8
0
 10
-9.10747
 20
120.467
 11
-9.41226
 21
120.688
  0
LINE
  8
0
 10
-9.41226
 20
120.688
 11
-9.6869
 21
120.946
  0
LINE
  8
0
 10
-9.6869
 20
120.946
 11
-9.92705
 21
121.237
  0
LINE
  8
0
 10
-9.92705
 20
121.237
 11
-10.1289
 21
121.555
  0
LINE
  8
0
 10
-10.1289
 20
121.555
 11
-10.2893
 21
121.896
  0
LINE
  8
0
 10
-10.2893
 20
121.896
 11
-10.4057
 21
122.254
  0
LINE
  8
0
 10
-10.4057
 20
122.254
 11
-10.4763
 21
122.624
  0
LINE
  8
0
 10
-10.4763
 20
122.624
 11
-10.5
 21
123
  0
LINE
  8
0
 10
-10.5
 20
123
 11
-10.4763
 21
123.376
  0
LINE
  8
0
 10
-10.4763
 20
123.376
 11
-10.4057
 21
123.746
  0
LINE
  8
0
 10
-10.4057
 20
123.746
 11
-10.2893
 21
124.104
  0
LINE
  8
0
 10
-10.2893
 20
124.104
 11
-10.1289
 21
124.445
  0
LINE
  8
0
 10
-10.1289
 20
124.445
 11
-9.92705
 21
124.763
  0
LINE
  8
0
 10
-9.92705
 20
124.763
 11
-9.6869
 21
125.054
  0
LINE
  8
0
 10
-9.6869
 20
125.054
 11
-9.41226
 21
125.312
  0
LINE
  8
0
 10
-9.41226
 20
125.312
 11
-9.10747
 21
125.533
  0
LINE
  8
0
 10
-9.10747
 20
125.533
 11
-8.77733
 21
125.714
  0
LINE
  8
0
 10
-8.77733
 20
125.714
 11
-8.42705
 21
125.853
  0
LINE
  8
0
 10
-8.42705
 20
125.853
 11
-8.06213
 21
125.947
  0
LINE
  8
0
 10
-8.06213
 20
125.947
 11
-7.68837
 21
125.994
  0
LINE
  8
0
 10
-7.68837
 20
125.994
 11
-7.31161
 21
125.994
  0
LINE
  8
0
 10
-7.31161
 20
125.994
 11
-6.93785
 21
125.947
  0
LINE
  8
0
 10
-6.93785
 20
125.947
 11
-6.57294
 21
125.853
  0
LINE
  8
0
 10
-6.57294
 20
125.853
 11
-6.22266
 21
125.714
  0
LINE
  8
0
 10
-6.22266
 20
125.714
 11
-5.89252
 21
125.533
  0
LINE
  8
0
 10
-5.89252
 20
125.533
 11
-5.58772
 21
125.312
  0
LINE
  8
0
 10
-5.58772
 20
125.312
 11
-5.31308
 21
125.054
  0
LINE
  8
0
 10
-5.31308
 20
125.054
 11
-5.07294
 21
124.763
  0
LINE
  8
0
 10
-5.07294
 20
124.763
 11
-4.87108
 21
124.445
  0
LINE
  8
0
 10
-4.87108
 20
124.445
 11
-4.71066
 21
124.104
  0
LINE
  8
0
 10
-4.71066
 20
124.104
 11
-4.59424
 21
123.746
  0
LINE
  8
0
 10
-4.59424
 20
123.746
 11
-4.52365
 21
123.376
  0
LINE
  8
0
 10
-4.52365
 20
123.376
 11
-4.5
 21
123
  0
LINE
  8
0
 10
-4.5
 20
123
 11
-4.52365
 21
122.624
  0
LINE
  8
0
 10
-4.52365
 20
122.624
 11
-4.59424
 21
122.254
  0
LINE
  8
0
 10
-4.59424
 20
122.254
 11
-4.71066
 21
121.896
  0
LINE
  8
0
 10
-4.71066
 20
121.896
 11
-4.87108
 21
121.555
  0
LINE
  8
0
 10
-4.87108
 20
121.555
 11
-5.07294
 21
121.237
  0
LINE
  8
0
 10
-5.07294
 20
121.237
 11
-5.31308
 21
120.946
  0
LINE
  8
0
 10
-5.31308
 20
120.946
 11
-5.58772
 21
120.688
  0
LINE
  8
0
 10
-5.58772
 20
120.688
 11
-5.89252
 21
120.467
  0
LINE
  8
0
 10
-5.89252
 20
120.467
 11
-6.22266
 21
120.286
  0
LINE
  8
0
 10
-6.22266
 20
120.286
 11
-6.57294
 21
120.147
  0
LINE
  8
0
 10
-6.57294
 20
120.147
 11
-6.93785
 21
120.053
  0
LINE
  8
0
 10
-6.93785
 20
120.053
 11
-7.31161
 21
120.006
  0
LINE
  8
0
 10
-7.31161
 20
120.006
 11
-7.68837
 21
120.006
  0
LINE
  8
0
 10
-37.6884
 20
120.006
 11
-38.0621
 21
120.053
  0
LINE
  8
0
 10
-38.0621
 20
120.053
 11
-38.427
 21
120.147
  0
LINE
  8
0
 10
-38.427
 20
120.147
 11
-38.7773
 21
120.286
  0
LINE
  8
0
 10
-38.7773
 20
120.286
 11
-39.1075
 21
120.467
  0
LINE
  8
0
 10
-39.1075
 20
120.467
 11
-39.4123
 21
120.688
  0
LINE
  8
0
 10
-39.4123
 20
120.688
 11
-39.6869
 21
120.946
  0
LINE
  8
0
 10
-39.6869
 20
120.946
 11
-39.927
 21
121.237
  0
LINE
  8
0
 10
-39.927
 20
121.237
 11
-40.1289
 21
121.555
  0
LINE
  8
0
 10
-40.1289
 20
121.555
 11
-40.2893
 21
121.896
  0
LINE
  8
0
 10
-40.2893
 20
121.896
 11
-40.4057
 21
122.254
  0
LINE
  8
0
 10
-40.4057
 20
122.254
 11
-40.4763
 21
122.624
  0
LINE
  8
0
 10
-40.4763
 20
122.624
 11
-40.5
 21
123
  0
LINE
  8
0
 10
-40.5
 20
123
 11
-40.4763
 21
123.376
  0
LINE
  8
0
 10
-40.4763
 20
123.376
 11
-40.4057
 21
123.746
  0
LINE
  8
0
 10
-40.4057
 20
123.746
 11
-40.2893
 21
124.104
  0
LINE
  8
0
 10
-40.2893
 20
124.104
 11
-40.1289
 21
124.445
  0
LINE
  8
0
 10
-40.1289
 20
124.445
 11
-39.927
 21
124.763
  0
LINE
  8
0
 10
-39.927
 20
124.763
 11
-39.6869
 21
125.054
  0
LINE
  8
0
 10
-39.6869
 20
125.054
 11
-39.4123
 21
125.312
  0
LINE
  8
0
 10
-39.4123
 20
125.312
 11
-39.1075
 21
125.533
  0
LINE
  8
0
 10
-39.1075
 20
125.533
 11
-38.7773
 21
125.714
  0
LINE
  8
0
 10
-38.7773
 20
125.714
 11
-38.427
 21
125.853
  0
LINE
  8
0
 10
-38.427
 20
125.853
 11
-38.0621
 21
125.947
  0
LINE
  8
0
 10
-38.0621
 20
125.947
 11
-37.6884
 21
125.994
  0
LINE
  8
0
 10
-37.6884
 20
125.994
 11
-37.3116
 21
125.994
  0
LINE
  8
0
 10
-37.3116
 20
125.994
 11
-36.9379
 21
125.947
  0
LINE
  8
0
 10
-36.9379
 20
125.947
 11
-36.5729
 21
125.853
  0
LINE
  8
0
 10
-36.5729
 20
125.853
 11
-36.2227
 21
125.714
  0
LINE
  8
0
 10
-36.2227
 20
125.714
 11
-35.8925
 21
125.533
  0
LINE
  8
0
 10
-35.8925
 20
125.533
 11
-35.5877
 21
125.312
  0
LINE
  8
0
 10
-35.5877
 20
125.312
 11
-35.3131
 21
125.054
  0
LINE
  8
0
 10
-35.3131
 20
125.054
 11
-35.0729
 21
124.763
  0
LINE
  8
0
 10
-35.0729
 20
124.763
 11
-34.8711
 21
124.445
  0
LINE
  8
0
 10
-34.8711
 20
124.445
 11
-34.7107
 21
124.104
  0
LINE
  8
0
 10
-34.7107
 20
124.104
 11
-34.5942
 21
123.746
  0
LINE
  8
0
 10
-34.5942
 20
123.746
 11
-34.5237
 21
123.376
  0
LINE
  8
0
 10
-34.5237
 20
123.376
 11
-34.5
 21
123
  0
LINE
  8
0
 10
-34.5
 20
123
 11
-34.5237
 21
122.624
  0
LINE
  8
0
 10
-34.5237
 20
122.624
 11
-34.5942
 21
122.254
  0
LINE
  8
0
 10
-34.5942
 20
122.254
 11
-34.7107
 21
121.896
  0
LINE
  8
0
 10
-34.7107
 20
121.896
 11
-34.8711
 21
121.555
  0
LINE
  8
0
 10
-34.8711
 20
121.555
 11
-35.0729
 21
121.237
  0
LINE
  8
0
 10
-35.0729
 20
121.237
 11
-35.3131
 21
120.946
  0
LINE
  8
0
 10
-35.3131
 20
120.946
 11
-35.5877
 21
120.688
  0
LINE
  8
0
 10
-35.5877
 20
120.688
 11
-35.8925
 21
120.467
  0
LINE
  8
0
 10
-35.8925
 20
120.467
 11
-36.2227
 21
120.286
  0
LINE
  8
0
 10
-36.2227
 20
120.286
 11
-36.5729
 21
120.147
  0
LINE
  8
0
 10
-36.5729
 20
120.147
 11
-36.9379
 21
120.053
  0
LINE
  8
0
 10
-36.9379
 20
120.053
 11
-37.3116
 21
120.006
  0
LINE
  8
0
 10
-37.3116
 20
120.006
 11
-37.6884
 21
120.006
  0
LINE
  8
0
 10
7.31161
 20
120.006
 11
6.93785
 21
120.053
  0
LINE
  8
0
 10
6.93785
 20
120.053
 11
6.57294
 21
120.147
  0
LINE
  8
0
 10
6.57294
 20
120.147
 11
6.22266
 21
120.286
  0
LINE
  8
0
 10
6.22266
 20
120.286
 11
5.89252
 21
120.467
  0
LINE
  8
0
 10
5.89252
 20
120.467
 11
5.58772
 21
120.688
  0
LINE
  8
0
 10
5.58772
 20
120.688
 11
5.31308
 21
120.946
  0
LINE
  8
0
 10
5.31308
 20
120.946
 11
5.07294
 21
121.237
  0
LINE
  8
0
 10
5.07294
 20
121.237
 11
4.87108
 21
121.555
  0
LINE
  8
0
 10
4.87108
 20
121.555
 11
4.71066
 21
121.896
  0
LINE
  8
0
 10
4.71066
 20
121.896
 11
4.59424
 21
122.254
  0
LINE
  8
0
 10
4.59424
 20
122.254
 11
4.52365
 21
122.624
  0
LINE
  8
0
 10
4.52365
 20
122.624
 11
4.5
 21
123
  0
LINE
  8
0
 10
4.5
 20
123
 11
4.52365
 21
123.376
  0
LINE
  8
0
 10
4.52365
 20
123.376
 11
4.59424
 21
123.746
  0
LINE
  8
0
 10
4.59424
 20
123.746
 11
4.71066
 21
124.104
  0
LINE
  8
0
 10
4.71066
 20
124.104
 11
4.87108
 21
124.445
  0
LINE
  8
0
 10
4.87108
 20
124.445
 11
5.07294
 21
124.763
  0
LINE
  8
0
 10
5.07294
 20
124.763
 11
5.31308
 21
125.054
  0
LINE
  8
0
 10
5.31308
 20
125.054
 11
5.58772
 21
125.312
  0
LINE
  8
0
 10
5.58772
 20
125.312
 11
5.89252
 21
125.533
  0
LINE
  8
0
 10
5.89252
 20
125.533
 11
6.22266
 21
125.714
  0
LINE
  8
0
 10
6.22266
 20
125.714
 11
6.57294
 21
125.853
  0
LINE
  8
0
 10
6.57294
 20
125.853
 11
6.93785
 21
125.947
  0
LINE
  8
0
 10
6.93785
 20
125.947
 11
7.31161
 21
125.994
  0
LINE
  8
0
 10
7.31161
 20
125.994
 11
7.68837
 21
125.994
  0
LINE
  8
0
 10
7.68837
 20
125.994
 11
8.06213
 21
125.947
  0
LINE
  8
0
 10
8.06213
 20
125.947
 11
8.42705
 21
125.853
  0
LINE
  8
0
 10
8.42705
 20
125.853
 11
8.77733
 21
125.714
  0
LINE
  8
0
 10
8.77733
 20
125.714
 11
9.10747
 21
125.533
  0
LINE
  8
0
 10
9.10747
 20
125.533
 11
9.41226
 21
125.312
  0
LINE
  8
0
 10
9.41226
 20
125.312
 11
9.6869
 21
125.054
  0
LINE
  8
0
 10
9.6869
 20
125.054
 11
9.92705
 21
124.763
  0
LINE
  8
0
 10
9.92705
 20
124.763
 11
10.1289
 21
124.445
  0
LINE
  8
0
 10
10.1289
 20
124.445
 11
10.2893
 21
124.104
  0
LINE
  8
0
 10
10.2893
 20
124.104
 11
10.4057
 21
123.746
  0
LINE
  8
0
 10
10.4057
 20
123.746
 11
10.4763
 21
123.376
  0
LINE
  8
0
 10
10.4763
 20
123.376
 11
10.5
 21
123
  0
LINE
  8
0
 10
10.5
 20
123
 11
10.4763
 21
122.624
  0
LINE
  8
0
 10
10.4763
 20
122.624
 11
10.4057
 21
122.254
  0
LINE
  8
0
 10
10.4057
 20
122.254
 11
10.2893
 21
121.896
  0
LINE
  8
0
 10
10.2893
 20
121.896
 11
10.1289
 21
121.555
  0
LINE
  8
0
 10
10.1289
 20
121.555
 11
9.92705
 21
121.237
  0
LINE
  8
0
 10
9.92705
 20
121.237
 11
9.6869
 21
120.946
  0
LINE
  8
0
 10
9.6869
 20
120.946
 11
9.41226
 21
120.688
  0
LINE
  8
0
 10
9.41226
 20
120.688
 11
9.10747
 21
120.467
  0
LINE
  8
0
 10
9.10747
 20
120.467
 11
8.77733
 21
120.286
  0
LINE
  8
0
 10
8.77733
 20
120.286
 11
8.42705
 21
120.147
  0
LINE
  8
0
 10
8.42705
 20
120.147
 11
8.06213
 21
120.053
  0
LINE
  8
0
 10
8.06213
 20
120.053
 11
7.68837
 21
120.006
  0
LINE
  8
0
 10
7.68837
 20
120.006
 11
7.31161
 21
120.006
  0
LINE
  8
0
 10
37.3116
 20
120.006
 11
36.9379
 21
120.053
  0
LINE
  8
0
 10
36.9379
 20
120.053
 11
36.5729
 21
120.147
  0
LINE
  8
0
 10
36.5729
 20
120.147
 11
36.2227
 21
120.286
  0
LINE
  8
0
 10
36.2227
 20
120.286
 11
35.8925
 21
120.467
  0
LINE
  8
0
 10
35.8925
 20
120.467
 11
35.5877
 21
120.688
  0
LINE
  8
0
 10
35.5877
 20
120.688
 11
35.3131
 21
120.946
  0
LINE
  8
0
 10
35.3131
 20
120.946
 11
35.0729
 21
121.237
  0
LINE
  8
0
 10
35.0729
 20
121.237
 11
34.8711
 21
121.555
  0
LINE
  8
0
 10
34.8711
 20
121.555
 11
34.7107
 21
121.896
  0
LINE
  8
0
 10
34.7107
 20
121.896
 11
34.5942
 21
122.254
  0
LINE
  8
0
 10
34.5942
 20
122.254
 11
34.5237
 21
122.624
  0
LINE
  8
0
 10
34.5237
 20
122.624
 11
34.5
 21
123
  0
LINE
  8
0
 10
34.5
 20
123
 11
34.5237
 21
123.376
  0
LINE
  8
0
 10
34.5237
 20
123.376
 11
34.5942
 21
123.746
  0
LINE
  8
0
 10
34.5942
 20
123.746
 11
34.7107
 21
124.104
  0
LINE
  8
0
 10
34.7107
 20
124.104
 11
34.8711
 21
124.445
  0
LINE
  8
0
 10
34.8711
 20
124.445
 11
35.0729
 21
124.763
  0
LINE
  8
0
 10
35.0729
 20
124.763
 11
35.3131
 21
125.054
  0
LINE
  8
0
 10
35.3131
 20
125.054
 11
35.5877
 21
125.312
  0
LINE
  8
0
 10
35.5877
 20
125.312
 11
35.8925
 21
125.533
  0
LINE
  8
0
 10
35.8925
 20
125.533
 11
36.2227
 21
125.714
  0
LINE
  8
0
 10
36.2227
 20
125.714
 11
36.5729
 21
125.853
  0
LINE
  8
0
 10
36.5729
 20
125.853
 11
36.9379
 21
125.947
  0
LINE
  8
0
 10
36.9379
 20
125.947
 11
37.3116
 21
125.994
  0
LINE
  8
0
 10
37.3116
 20
125.994
 11
37.6884
 21
125.994
  0
LINE
  8
0
 10
37.6884
 20
125.994
 11
38.0621
 21
125.947
  0
LINE
  8
0
 10
38.0621
 20
125.947
 11
38.427
 21
125.853
  0
LINE
  8
0
 10
38.427
 20
125.853
 11
38.7773
 21
125.714
  0
LINE
  8
0
 10
38.7773
 20
125.714
 11
39.1075
 21
125.533
  0
LINE
  8
0
 10
39.1075
 20
125.533
 11
39.4123
 21
125.312
  0
LINE
  8
0
 10
39.4123
 20
125.312
 11
39.6869
 21
125.054
  0
LINE
  8
0
 10
39.6869
 20
125.054
 11
39.927
 21
124.763
  0
LINE
  8
0
 10
39.927
 20
124.763
 11
40.1289
 21
124.445
  0
LINE
  8
0
 10
40.1289
 20
124.445
 11
40.2893
 21
124.104
  0
LINE
  8
0
 10
40.2893
 20
124.104
 11
40.4057
 21
123.746
  0
LINE
  8
0
 10
40.4057
 20
123.746
 11
40.4763
 21
123.376
  0
LINE
  8
0
 10
40.4763
 20
123.376
 11
40.5
 21
123
  0
LINE
  8
0
 10
40.5
 20
123
 11
40.4763
 21
122.624
  0
LINE
  8
0
 10
40.4763
 20
122.624
 11
40.4057
 21
122.254
  0
LINE
  8
0
 10
40.4057
 20
122.254
 11
40.2893
 21
121.896
  0
LINE
  8
0
 10
40.2893
 20
121.896
 11
40.1289
 21
121.555
  0
LINE
  8
0
 10
40.1289
 20
121.555
 11
39.927
 21
121.237
  0
LINE
  8
0
 10
39.927
 20
121.237
 11
39.6869
 21
120.946
  0
LINE
  8
0
 10
39.6869
 20
120.946
 11
39.4123
 21
120.688
  0
LINE
  8
0
 10
39.4123
 20
120.688
 11
39.1075
 21
120.467
  0
LINE
  8
0
 10
39.1075
 20
120.467
 11
38.7773
 21
120.286
  0
LINE
  8
0
 10
38.7773
 20
120.286
 11
38.427
 21
120.147
  0
LINE
  8
0
 10
38.427
 20
120.147
 11
38.0621
 21
120.053
  0
LINE
  8
0
 10
38.0621
 20
120.053
 11
37.6884
 21
120.006
  0
LINE
  8
0
 10
37.6884
 20
120.006
 11
37.3116
 21
120.006
  0
LINE
  8
0
 10
37.3116
 20
105.006
 11
36.9379
 21
105.053
  0
LINE
  8
0
 10
36.9379
 20
105.053
 11
36.5729
 21
105.147
  0
LINE
  8
0
 10
36.5729
 20
105.147
 11
36.2227
 21
105.286
  0
LINE
  8
0
 10
36.2227
 20
105.286
 11
35.8925
 21
105.467
  0
LINE
  8
0
 10
35.8925
 20
105.467
 11
35.5877
 21
105.688
  0
LINE
  8
0
 10
35.5877
 20
105.688
 11
35.3131
 21
105.946
  0
LINE
  8
0
 10
35.3131
 20
105.946
 11
35.0729
 21
106.237
  0
LINE
  8
0
 10
35.0729
 20
106.237
 11
34.8711
 21
106.555
  0
LINE
  8
0
 10
34.8711
 20
106.555
 11
34.7107
 21
106.896
  0
LINE
  8
0
 10
34.7107
 20
106.896
 11
34.5942
 21
107.254
  0
LINE
  8
0
 10
34.5942
 20
107.254
 11
34.5237
 21
107.624
  0
LINE
  8
0
 10
34.5237
 20
107.624
 11
34.5
 21
108
  0
LINE
  8
0
 10
34.5
 20
108
 11
34.5237
 21
108.376
  0
LINE
  8
0
 10
34.5237
 20
108.376
 11
34.5942
 21
108.746
  0
LINE
  8
0
 10
34.5942
 20
108.746
 11
34.7107
 21
109.104
  0
LINE
  8
0
 10
34.7107
 20
109.104
 11
34.8711
 21
109.445
  0
LINE
  8
0
 10
34.8711
 20
109.445
 11
35.0729
 21
109.763
  0
LINE
  8
0
 10
35.0729
 20
109.763
 11
35.3131
 21
110.054
  0
LINE
  8
0
 10
35.3131
 20
110.054
 11
35.5877
 21
110.312
  0
LINE
  8
0
 10
35.5877
 20
110.312
 11
35.8925
 21
110.533
  0
LINE
  8
0
 10
35.8925
 20
110.533
 11
36.2227
 21
110.714
  0
LINE
  8
0
 10
36.2227
 20
110.714
 11
36.5729
 21
110.853
  0
LINE
  8
0
 10
36.5729
 20
110.853
 11
36.9379
 21
110.947
  0
LINE
  8
0
 10
36.9379
 20
110.947
 11
37.3116
 21
110.994
  0
LINE
  8
0
 10
37.3116
 20
110.994
 11
37.6884
 21
110.994
  0
LINE
  8
0
 10
37.6884
 20
110.994
 11
38.0621
 21
110.947
  0
LINE
  8
0
 10
38.0621
 20
110.947
 11
38.427
 21
110.853
  0
LINE
  8
0
 10
38.427
 20
110.853
 11
38.7773
 21
110.714
  0
LINE
  8
0
 10
38.7773
 20
110.714
 11
39.1075
 21
110.533
  0
LINE
  8
0
 10
39.1075
 20
110.533
 11
39.4123
 21
110.312
  0
LINE
  8
0
 10
39.4123
 20
110.312
 11
39.6869
 21
110.054
  0
LINE
  8
0
 10
39.6869
 20
110.054
 11
39.927
 21
109.763
  0
LINE
  8
0
 10
39.927
 20
109.763
 11
40.1289
 21
109.445
  0
LINE
  8
0
 10
40.1289
 20
109.445
 11
40.2893
 21
109.104
  0
LINE
  8
0
 10
40.2893
 20
109.104
 11
40.4057
 21
108.746
  0
LINE
  8
0
 10
40.4057
 20
108.746
 11
40.4763
 21
108.376
  0
LINE
  8
0
 10
40.4763
 20
108.376
 11
40.5
 21
108
  0
LINE
  8
0
 10
40.5
 20
108
 11
40.4763
 21
107.624
  0
LINE
  8
0
 10
40.4763
 20
107.624
 11
40.4057
 21
107.254
  0
LINE
  8
0
 10
40.4057
 20
107.254
 11
40.2893
 21
106.896
  0
LINE
  8
0
 10
40.2893
 20
106.896
 11
40.1289
 21
106.555
  0
LINE
  8
0
 10
40.1289
 20
106.555
 11
39.927
 21
106.237
  0
LINE
  8
0
 10
39.927
 20
106.237
 11
39.6869
 21
105.946
  0
LINE
  8
0
 10
39.6869
 20
105.946
 11
39.4123
 21
105.688
  0
LINE
  8
0
 10
39.4123
 20
105.688
 11
39.1075
 21
105.467
  0
LINE
  8
0
 10
39.1075
 20
105.467
 11
38.7773
 21
105.286
  0
LINE
  8
0
 10
38.7773
 20
105.286
 11
38.427
 21
105.147
  0
LINE
  8
0
 10
38.427
 20
105.147
 11
38.0621
 21
105.053
  0
LINE
  8
0
 10
38.0621
 20
105.053
 11
37.6884
 21
105.006
  0
LINE
  8
0
 10
37.6884
 20
105.006
 11
37.3116
 21
105.006
  0
LINE
  8
0
 10
-37.6884
 20
105.006
 11
-38.0621
 21
105.053
  0
LINE
  8
0
 10
-38.0621
 20
105.053
 11
-38.427
 21
105.147
  0
LINE
  8
0
 10
-38.427
 20
105.147
 11
-38.7773
 21
105.286
  0
LINE
  8
0
 10
-38.7773
 20
105.286
 11
-39.1075
 21
105.467
  0
LINE
  8
0
 10
-39.1075
 20
105.467
 11
-39.4123
 21
105.688
  0
LINE
  8
0
 10
-39.4123
 20
105.688
 11
-39.6869
 21
105.946
  0
LINE
  8
0
 10
-39.6869
 20
105.946
 11
-39.927
 21
106.237
  0
LINE
  8
0
 10
-39.927
 20
106.237
 11
-40.1289
 21
106.555
  0
LINE
  8
0
 10
-40.1289
 20
106.555
 11
-40.2893
 21
106.896
  0
LINE
  8
0
 10
-40.2893
 20
106.896
 11
-40.4057
 21
107.254
  0
LINE
  8
0
 10
-40.4057
 20
107.254
 11
-40.4763
 21
107.624
  0
LINE
  8
0
 10
-40.4763
 20
107.624
 11
-40.5
 21
108
  0
LINE
  8
0
 10
-40.5
 20
108
 11
-40.4763
 21
108.376
  0
LINE
  8
0
 10
-40.4763
 20
108.376
 11
-40.4057
 21
108.746
  0
LINE
  8
0
 10
-40.4057
 20
108.746
 11
-40.2893
 21
109.104
  0
LINE
  8
0
 10
-40.2893
 20
109.104
 11
-40.1289
 21
109.445
  0
LINE
  8
0
 10
-40.1289
 20
109.445
 11
-39.927
 21
109.763
  0
LINE
  8
0
 10
-39.927
 20
109.763
 11
-39.6869
 21
110.054
  0
LINE
  8
0
 10
-39.6869
 20
110.054
 11
-39.4123
 21
110.312
  0
LINE
  8
0
 10
-39.4123
 20
110.312
 11
-39.1075
 21
110.533
  0
LINE
  8
0
 10
-39.1075
 20
110.533
 11
-38.7773
 21
110.714
  0
LINE
  8
0
 10
-38.7773
 20
110.714
 11
-38.427
 21
110.853
  0
LINE
  8
0
 10
-38.427
 20
110.853
 11
-38.0621
 21
110.947
  0
LINE
  8
0
 10
-38.0621
 20
110.947
 11
-37.6884
 21
110.994
  0
LINE
  8
0
 10
-37.6884
 20
110.994
 11
-37.3116
 21
110.994
  0
LINE
  8
0
 10
-37.3116
 20
110.994
 11
-36.9379
 21
110.947
  0
LINE
  8
0
 10
-36.9379
 20
110.947
 11
-36.5729
 21
110.853
  0
LINE
  8
0
 10
-36.5729
 20
110.853
 11
-36.2227
 21
110.714
  0
LINE
  8
0
 10
-36.2227
 20
110.714
 11
-35.8925
 21
110.533
  0
LINE
  8
0
 10
-35.8925
 20
110.533
 11
-35.5877
 21
110.312
  0
LINE
  8
0
 10
-35.5877
 20
110.312
 11
-35.3131
 21
110.054
  0
LINE
  8
0
 10
-35.3131
 20
110.054
 11
-35.0729
 21
109.763
  0
LINE
  8
0
 10
-35.0729
 20
109.763
 11
-34.8711
 21
109.445
  0
LINE
  8
0
 10
-34.8711
 20
109.445
 11
-34.7107
 21
109.104
  0
LINE
  8
0
 10
-34.7107
 20
109.104
 11
-34.5942
 21
108.746
  0
LINE
  8
0
 10
-34.5942
 20
108.746
 11
-34.5237
 21
108.376
  0
LINE
  8
0
 10
-34.5237
 20
108.376
 11
-34.5
 21
108
  0
LINE
  8
0
 10
-34.5
 20
108
 11
-34.5237
 21
107.624
  0
LINE
  8
0
 10
-34.5237
 20
107.624
 11
-34.5942
 21
107.254
  0
LINE
  8
0
 10
-34.5942
 20
107.254
 11
-34.7107
 21
106.896
  0
LINE
  8
0
 10
-34.7107
 20
106.896
 11
-34.8711
 21
106.555
  0
LINE
  8
0
 10
-34.8711
 20
106.555
 11
-35.0729
 21
106.237
  0
LINE
  8
0
 10
-35.0729
 20
106.237
 11
-35.3131
 21
105.946
  0
LINE
  8
0
 10
-35.3131
 20
105.946
 11
-35.5877
 21
105.688
  0
LINE
  8
0
 10
-35.5877
 20
105.688
 11
-35.8925
 21
105.467
  0
LINE
  8
0
 10
-35.8925
 20
105.467
 11
-36.2227
 21
105.286
  0
LINE
  8
0
 10
-36.2227
 20
105.286
 11
-36.5729
 21
105.147
  0
LINE
  8
0
 10
-36.5729
 20
105.147
 11
-36.9379
 21
105.053
  0
LINE
  8
0
 10
-36.9379
 20
105.053
 11
-37.3116
 21
105.006
  0
LINE
  8
0
 10
-37.3116
 20
105.006
 11
-37.6884
 21
105.006
  0
LINE
  8
0
 10
-7.68837
 20
105.006
 11
-8.06213
 21
105.053
  0
LINE
  8
0
 10
-8.06213
 20
105.053
 11
-8.42705
 21
105.147
  0
LINE
  8
0
 10
-8.42705
 20
105.147
 11
-8.77733
 21
105.286
  0
LINE
  8
0
 10
-8.77733
 20
105.286
 11
-9.10747
 21
105.467
  0
LINE
  8
0
 10
-9.10747
 20
105.467
 11
-9.41226
 21
105.688
  0
LINE
  8
0
 10
-9.41226
 20
105.688
 11
-9.6869
 21
105.946
  0
LINE
  8
0
 10
-9.6869
 20
105.946
 11
-9.92705
 21
106.237
  0
LINE
  8
0
 10
-9.92705
 20
106.237
 11
-10.1289
 21
106.555
  0
LINE
  8
0
 10
-10.1289
 20
106.555
 11
-10.2893
 21
106.896
  0
LINE
  8
0
 10
-10.2893
 20
106.896
 11
-10.4057
 21
107.254
  0
LINE
  8
0
 10
-10.4057
 20
107.254
 11
-10.4763
 21
107.624
  0
LINE
  8
0
 10
-10.4763
 20
107.624
 11
-10.5
 21
108
  0
LINE
  8
0
 10
-10.5
 20
108
 11
-10.4763
 21
108.376
  0
LINE
  8
0
 10
-10.4763
 20
108.376
 11
-10.4057
 21
108.746
  0
LINE
  8
0
 10
-10.4057
 20
108.746
 11
-10.2893
 21
109.104
  0
LINE
  8
0
 10
-10.2893
 20
109.104
 11
-10.1289
 21
109.445
  0
LINE
  8
0
 10
-10.1289
 20
109.445
 11
-9.92705
 21
109.763
  0
LINE
  8
0
 10
-9.92705
 20
109.763
 11
-9.6869
 21
110.054
  0
LINE
  8
0
 10
-9.6869
 20
110.054
 11
-9.41226
 21
110.312
  0
LINE
  8
0
 10
-9.41226
 20
110.312
 11
-9.10747
 21
110.533
  0
LINE
  8
0
 10
-9.10747
 20
110.533
 11
-8.77733
 21
110.714
  0
LINE
  8
0
 10
-8.77733
 20
110.714
 11
-8.42705
 21
110.853
  0
LINE
  8
0
 10
-8.42705
 20
110.853
 11
-8.06213
 21
110.947
  0
LINE
  8
0
 10
-8.06213
 20
110.947
 11
-7.68837
 21
110.994
  0
LINE
  8
0
 10
-7.68837
 20
110.994
 11
-7.31161
 21
110.994
  0
LINE
  8
0
 10
-7.31161
 20
110.994
 11
-6.93785
 21
110.947
  0
LINE
  8
0
 10
-6.93785
 20
110.947
 11
-6.57294
 21
110.853
  0
LINE
  8
0
 10
-6.57294
 20
110.853
 11
-6.22266
 21
110.714
  0
LINE
  8
0
 10
-6.22266
 20
110.714
 11
-5.89252
 21
110.533
  0
LINE
  8
0
 10
-5.89252
 20
110.533
 11
-5.58772
 21
110.312
  0
LINE
  8
0
 10
-5.58772
 20
110.312
 11
-5.31308
 21
110.054
  0
LINE
  8
0
 10
-5.31308
 20
110.054
 11
-5.07294
 21
109.763
  0
LINE
  8
0
 10
-5.07294
 20
109.763
 11
-4.87108
 21
109.445
  0
LINE
  8
0
 10
-4.87108
 20
109.445
 11
-4.71066
 21
109.104
  0
LINE
  8
0
 10
-4.71066
 20
109.104
 11
-4.59424
 21
108.746
  0
LINE
  8
0
 10
-4.59424
 20
108.746
 11
-4.52365
 21
108.376
  0
LINE
  8
0
 10
-4.52365
 20
108.376
 11
-4.5
 21
108
  0
LINE
  8
0
 10
-4.5
 20
108
 11
-4.52365
 21
107.624
  0
LINE
  8
0
 10
-4.52365
 20
107.624
 11
-4.59424
 21
107.254
  0
LINE
  8
0
 10
-4.59424
 20
107.254
 11
-4.71066
 21
106.896
  0
LINE
  8
0
 10
-4.71066
 20
106.896
 11
-4.87108
 21
106.555
  0
LINE
  8
0
 10
-4.87108
 20
106.555
 11
-5.07294
 21
106.237
  0
LINE
  8
0
 10
-5.07294
 20
106.237
 11
-5.31308
 21
105.946
  0
LINE
  8
0
 10
-5.31308
 20
105.946
 11
-5.58772
 21
105.688
  0
LINE
  8
0
 10
-5.58772
 20
105.688
 11
-5.89252
 21
105.467
  0
LINE
  8
0
 10
-5.89252
 20
105.467
 11
-6.22266
 21
105.286
  0
LINE
  8
0
 10
-6.22266
 20
105.286
 11
-6.57294
 21
105.147
  0
LINE
  8
0
 10
-6.57294
 20
105.147
 11
-6.93785
 21
105.053
  0
LINE
  8
0
 10
-6.93785
 20
105.053
 11
-7.31161
 21
105.006
  0
LINE
  8
0
 10
-7.31161
 20
105.006
 11
-7.68837
 21
105.006
  0
LINE
  8
0
 10
-22.6884
 20
105.006
 11
-23.0621
 21
105.053
  0
LINE
  8
0
 10
-23.0621
 20
105.053
 11
-23.427
 21
105.147
  0
LINE
  8
0
 10
-23.427
 20
105.147
 11
-23.7773
 21
105.286
  0
LINE
  8
0
 10
-23.7773
 20
105.286
 11
-24.1075
 21
105.467
  0
LINE
  8
0
 10
-24.1075
 20
105.467
 11
-24.4123
 21
105.688
  0
LINE
  8
0
 10
-24.4123
 20
105.688
 11
-24.6869
 21
105.946
  0
LINE
  8
0
 10
-24.6869
 20
105.946
 11
-24.927
 21
106.237
  0
LINE
  8
0
 10
-24.927
 20
106.237
 11
-25.1289
 21
106.555
  0
LINE
  8
0
 10
-25.1289
 20
106.555
 11
-25.2893
 21
106.896
  0
LINE
  8
0
 10
-25.2893
 20
106.896
 11
-25.4057
 21
107.254
  0
LINE
  8
0
 10
-25.4057
 20
107.254
 11
-25.4763
 21
107.624
  0
LINE
  8
0
 10
-25.4763
 20
107.624
 11
-25.5
 21
108
  0
LINE
  8
0
 10
-25.5
 20
108
 11
-25.4763
 21
108.376
  0
LINE
  8
0
 10
-25.4763
 20
108.376
 11
-25.4057
 21
108.746
  0
LINE
  8
0
 10
-25.4057
 20
108.746
 11
-25.2893
 21
109.104
  0
LINE
  8
0
 10
-25.2893
 20
109.104
 11
-25.1289
 21
109.445
  0
LINE
  8
0
 10
-25.1289
 20
109.445
 11
-24.927
 21
109.763
  0
LINE
  8
0
 10
-24.927
 20
109.763
 11
-24.6869
 21
110.054
  0
LINE
  8
0
 10
-24.6869
 20
110.054
 11
-24.4123
 21
110.312
  0
LINE
  8
0
 10
-24.4123
 20
110.312
 11
-24.1075
 21
110.533
  0
LINE
  8
0
 10
-24.1075
 20
110.533
 11
-23.7773
 21
110.714
  0
LINE
  8
0
 10
-23.7773
 20
110.714
 11
-23.427
 21
110.853
  0
LINE
  8
0
 10
-23.427
 20
110.853
 11
-23.0621
 21
110.947
  0
LINE
  8
0
 10
-23.0621
 20
110.947
 11
-22.6884
 21
110.994
  0
LINE
  8
0
 10
-22.6884
 20
110.994
 11
-22.3116
 21
110.994
  0
LINE
  8
0
 10
-22.3116
 20
110.994
 11
-21.9379
 21
110.947
  0
LINE
  8
0
 10
-21.9379
 20
110.947
 11
-21.5729
 21
110.853
  0
LINE
  8
0
 10
-21.5729
 20
110.853
 11
-21.2227
 21
110.714
  0
LINE
  8
0
 10
-21.2227
 20
110.714
 11
-20.8925
 21
110.533
  0
LINE
  8
0
 10
-20.8925
 20
110.533
 11
-20.5877
 21
110.312
  0
LINE
  8
0
 10
-20.5877
 20
110.312
 11
-20.3131
 21
110.054
  0
LINE
  8
0
 10
-20.3131
 20
110.054
 11
-20.0729
 21
109.763
  0
LINE
  8
0
 10
-20.0729
 20
109.763
 11
-19.8711
 21
109.445
  0
LINE
  8
0
 10
-19.8711
 20
109.445
 11
-19.7107
 21
109.104
  0
LINE
  8
0
 10
-19.7107
 20
109.104
 11
-19.5942
 21
108.746
  0
LINE
  8
0
 10
-19.5942
 20
108.746
 11
-19.5237
 21
108.376
  0
LINE
  8
0
 10
-19.5237
 20
108.376
 11
-19.5
 21
108
  0
LINE
  8
0
 10
-19.5
 20
108
 11
-19.5237
 21
107.624
  0
LINE
  8
0
 10
-19.5237
 20
107.624
 11
-19.5942
 21
107.254
  0
LINE
  8
0
 10
-19.5942
 20
107.254
 11
-19.7107
 21
106.896
  0
LINE
  8
0
 10
-19.7107
 20
106.896
 11
-19.8711
 21
106.555
  0
LINE
  8
0
 10
-19.8711
 20
106.555
 11
-20.0729
 21
106.237
  0
LINE
  8
0
 10
-20.0729
 20
106.237
 11
-20.3131
 21
105.946
  0
LINE
  8
0
 10
-20.3131
 20
105.946
 11
-20.5877
 21
105.688
  0
LINE
  8
0
 10
-20.5877
 20
105.688
 11
-20.8925
 21
105.467
  0
LINE
  8
0
 10
-20.8925
 20
105.467
 11
-21.2227
 21
105.286
  0
LINE
  8
0
 10
-21.2227
 20
105.286
 11
-21.5729
 21
105.147
  0
LINE
  8
0
 10
-21.5729
 20
105.147
 11
-21.9379
 21
105.053
  0
LINE
  8
0
 10
-21.9379
 20
105.053
 11
-22.3116
 21
105.006
  0
LINE
  8
0
 10
-22.3116
 20
105.006
 11
-22.6884
 21
105.006
  0
LINE
  8
0
 10
22.3116
 20
105.006
 11
21.9379
 21
105.053
  0
LINE
  8
0
 10
21.9379
 20
105.053
 11
21.5729
 21
105.147
  0
LINE
  8
0
 10
21.5729
 20
105.147
 11
21.2227
 21
105.286
  0
LINE
  8
0
 10
21.2227
 20
105.286
 11
20.8925
 21
105.467
  0
LINE
  8
0
 10
20.8925
 20
105.467
 11
20.5877
 21
105.688
  0
LINE
  8
0
 10
20.5877
 20
105.688
 11
20.3131
 21
105.946
  0
LINE
  8
0
 10
20.3131
 20
105.946
 11
20.0729
 21
106.237
  0
LINE
  8
0
 10
20.0729
 20
106.237
 11
19.8711
 21
106.555
  0
LINE
  8
0
 10
19.8711
 20
106.555
 11
19.7107
 21
106.896
  0
LINE
  8
0
 10
19.7107
 20
106.896
 11
19.5942
 21
107.254
  0
LINE
  8
0
 10
19.5942
 20
107.254
 11
19.5237
 21
107.624
  0
LINE
  8
0
 10
19.5237
 20
107.624
 11
19.5
 21
108
  0
LINE
  8
0
 10
19.5
 20
108
 11
19.5237
 21
108.376
  0
LINE
  8
0
 10
19.5237
 20
108.376
 11
19.5942
 21
108.746
  0
LINE
  8
0
 10
19.5942
 20
108.746
 11
19.7107
 21
109.104
  0
LINE
  8
0
 10
19.7107
 20
109.104
 11
19.8711
 21
109.445
  0
LINE
  8
0
 10
19.8711
 20
109.445
 11
20.0729
 21
109.763
  0
LINE
  8
0
 10
20.0729
 20
109.763
 11
20.3131
 21
110.054
  0
LINE
  8
0
 10
20.3131
 20
110.054
 11
20.5877
 21
110.312
  0
LINE
  8
0
 10
20.5877
 20
110.312
 11
20.8925
 21
110.533
  0
LINE
  8
0
 10
20.8925
 20
110.533
 11
21.2227
 21
110.714
  0
LINE
  8
0
 10
21.2227
 20
110.714
 11
21.5729
 21
110.853
  0
LINE
  8
0
 10
21.5729
 20
110.853
 11
21.9379
 21
110.947
  0
LINE
  8
0
 10
21.9379
 20
110.947
 11
22.3116
 21
110.994
  0
LINE
  8
0
 10
22.3116
 20
110.994
 11
22.6884
 21
110.994
  0
LINE
  8
0
 10
22.6884
 20
110.994
 11
23.0621
 21
110.947
  0
LINE
  8
0
 10
23.0621
 20
110.947
 11
23.427
 21
110.853
  0
LINE
  8
0
 10
23.427
 20
110.853
 11
23.7773
 21
110.714
  0
LINE
  8
0
 10
23.7773
 20
110.714
 11
24.1075
 21
110.533
  0
LINE
  8
0
 10
24.1075
 20
110.533
 11
24.4123
 21
110.312
  0
LINE
  8
0
 10
24.4123
 20
110.312
 11
24.6869
 21
110.054
  0
LINE
  8
0
 10
24.6869
 20
110.054
 11
24.927
 21
109.763
  0
LINE
  8
0
 10
24.927
 20
109.763
 11
25.1289
 21
109.445
  0
LINE
  8
0
 10
25.1289
 20
109.445
 11
25.2893
 21
109.104
  0
LINE
  8
0
 10
25.2893
 20
109.104
 11
25.4057
 21
108.746
  0
LINE
  8
0
 10
25.4057
 20
108.746
 11
25.4763
 21
108.376
  0
LINE
  8
0
 10
25.4763
 20
108.376
 11
25.5
 21
108
  0
LINE
  8
0
 10
25.5
 20
108
 11
25.4763
 21
107.624
  0
LINE
  8
0
 10
25.4763
 20
107.624
 11
25.4057
 21
107.254
  0
LINE
  8
0
 10
25.4057
 20
107.254
 11
25.2893
 21
106.896
  0
LINE
  8
0
 10
25.2893
 20
106.896
 11
25.1289
 21
106.555
  0
LINE
  8
0
 10
25.1289
 20
106.555
 11
24.927
 21
106.237
  0
LINE
  8
0
 10
24.927
 20
106.237
 11
24.6869
 21
105.946
  0
LINE
  8
0
 10
24.6869
 20
105.946
 11
24.4123
 21
105.688
  0
LINE
  8
0
 10
24.4123
 20
105.688
 11
24.1075
 21
105.467
  0
LINE
  8
0
 10
24.1075
 20
105.467
 11
23.7773
 21
105.286
  0
LINE
  8
0
 10
23.7773
 20
105.286
 11
23.427
 21
105.147
  0
LINE
  8
0
 10
23.427
 20
105.147
 11
23.0621
 21
105.053
  0
LINE
  8
0
 10
23.0621
 20
105.053
 11
22.6884
 21
105.006
  0
LINE
  8
0
 10
22.6884
 20
105.006
 11
22.3116
 21
105.006
  0
LINE
  8
0
 10
7.31161
 20
105.006
 11
6.93785
 21
105.053
  0
LINE
  8
0
 10
6.93785
 20
105.053
 11
6.57294
 21
105.147
  0
LINE
  8
0
 10
6.57294
 20
105.147
 11
6.22266
 21
105.286
  0
LINE
  8
0
 10
6.22266
 20
105.286
 11
5.89252
 21
105.467
  0
LINE
  8
0
 10
5.89252
 20
105.467
 11
5.58772
 21
105.688
  0
LINE
  8
0
 10
5.58772
 20
105.688
 11
5.31308
 21
105.946
  0
LINE
  8
0
 10
5.31308
 20
105.946
 11
5.07294
 21
106.237
  0
LINE
  8
0
 10
5.07294
 20
106.237
 11
4.87108
 21
106.555
  0
LINE
  8
0
 10
4.87108
 20
106.555
 11
4.71066
 21
106.896
  0
LINE
  8
0
 10
4.71066
 20
106.896
 11
4.59424
 21
107.254
  0
LINE
  8
0
 10
4.59424
 20
107.254
 11
4.52365
 21
107.624
  0
LINE
  8
0
 10
4.52365
 20
107.624
 11
4.5
 21
108
  0
LINE
  8
0
 10
4.5
 20
108
 11
4.52365
 21
108.376
  0
LINE
  8
0
 10
4.52365
 20
108.376
 11
4.59424
 21
108.746
  0
LINE
  8
0
 10
4.59424
 20
108.746
 11
4.71066
 21
109.104
  0
LINE
  8
0
 10
4.71066
 20
109.104
 11
4.87108
 21
109.445
  0
LINE
  8
0
 10
4.87108
 20
109.445
 11
5.07294
 21
109.763
  0
LINE
  8
0
 10
5.07294
 20
109.763
 11
5.31308
 21
110.054
  0
LINE
  8
0
 10
5.31308
 20
110.054
 11
5.58772
 21
110.312
  0
LINE
  8
0
 10
5.58772
 20
110.312
 11
5.89252
 21
110.533
  0
LINE
  8
0
 10
5.89252
 20
110.533
 11
6.22266
 21
110.714
  0
LINE
  8
0
 10
6.22266
 20
110.714
 11
6.57294
 21
110.853
  0
LINE
  8
0
 10
6.57294
 20
110.853
 11
6.93785
 21
110.947
  0
LINE
  8
0
 10
6.93785
 20
110.947
 11
7.31161
 21
110.994
  0
LINE
  8
0
 10
7.31161
 20
110.994
 11
7.68837
 21
110.994
  0
LINE
  8
0
 10
7.68837
 20
110.994
 11
8.06213
 21
110.947
  0
LINE
  8
0
 10
8.06213
 20
110.947
 11
8.42705
 21
110.853
  0
LINE
  8
0
 10
8.42705
 20
110.853
 11
8.77733
 21
110.714
  0
LINE
  8
0
 10
8.77733
 20
110.714
 11
9.10747
 21
110.533
  0
LINE
  8
0
 10
9.10747
 20
110.533
 11
9.41226
 21
110.312
  0
LINE
  8
0
 10
9.41226
 20
110.312
 11
9.6869
 21
110.054
  0
LINE
  8
0
 10
9.6869
 20
110.054
 11
9.92705
 21
109.763
  0
LINE
  8
0
 10
9.92705
 20
109.763
 11
10.1289
 21
109.445
  0
LINE
  8
0
 10
10.1289
 20
109.445
 11
10.2893
 21
109.104
  0
LINE
  8
0
 10
10.2893
 20
109.104
 11
10.4057
 21
108.746
  0
LINE
  8
0
 10
10.4057
 20
108.746
 11
10.4763
 21
108.376
  0
LINE
  8
0
 10
10.4763
 20
108.376
 11
10.5
 21
108
  0
LINE
  8
0
 10
10.5
 20
108
 11
10.4763
 21
107.624
  0
LINE
  8
0
 10
10.4763
 20
107.624
 11
10.4057
 21
107.254
  0
LINE
  8
0
 10
10.4057
 20
107.254
 11
10.2893
 21
106.896
  0
LINE
  8
0
 10
10.2893
 20
106.896
 11
10.1289
 21
106.555
  0
LINE
  8
0
 10
10.1289
 20
106.555
 11
9.92705
 21
106.237
  0
LINE
  8
0
 10
9.92705
 20
106.237
 11
9.6869
 21
105.946
  0
LINE
  8
0
 10
9.6869
 20
105.946
 11
9.41226
 21
105.688
  0
LINE
  8
0
 10
9.41226
 20
105.688
 11
9.10747
 21
105.467
  0
LINE
  8
0
 10
9.10747
 20
105.467
 11
8.77733
 21
105.286
  0
LINE
  8
0
 10
8.77733
 20
105.286
 11
8.42705
 21
105.147
  0
LINE
  8
0
 10
8.42705
 20
105.147
 11
8.06213
 21
105.053
  0
LINE
  8
0
 10
8.06213
 20
105.053
 11
7.68837
 21
105.006
  0
LINE
  8
0
 10
7.68837
 20
105.006
 11
7.31161
 21
105.006
  0
LINE
  8
0
 10
22.3116
 20
90.0059
 11
21.9379
 21
90.0531
  0
LINE
  8
0
 10
21.9379
 20
90.0531
 11
21.5729
 21
90.1468
  0
LINE
  8
0
 10
21.5729
 20
90.1468
 11
21.2227
 21
90.2855
  0
LINE
  8
0
 10
21.2227
 20
90.2855
 11
20.8925
 21
90.467
  0
LINE
  8
0
 10
20.8925
 20
90.467
 11
20.5877
 21
90.6885
  0
LINE
  8
0
 10
20.5877
 20
90.6885
 11
20.3131
 21
90.9464
  0
LINE
  8
0
 10
20.3131
 20
90.9464
 11
20.0729
 21
91.2366
  0
LINE
  8
0
 10
20.0729
 20
91.2366
 11
19.8711
 21
91.5547
  0
LINE
  8
0
 10
19.8711
 20
91.5547
 11
19.7107
 21
91.8956
  0
LINE
  8
0
 10
19.7107
 20
91.8956
 11
19.5942
 21
92.2539
  0
LINE
  8
0
 10
19.5942
 20
92.2539
 11
19.5237
 21
92.624
  0
LINE
  8
0
 10
19.5237
 20
92.624
 11
19.5
 21
93
  0
LINE
  8
0
 10
19.5
 20
93
 11
19.5237
 21
93.376
  0
LINE
  8
0
 10
19.5237
 20
93.376
 11
19.5942
 21
93.7461
  0
LINE
  8
0
 10
19.5942
 20
93.7461
 11
19.7107
 21
94.1044
  0
LINE
  8
0
 10
19.7107
 20
94.1044
 11
19.8711
 21
94.4453
  0
LINE
  8
0
 10
19.8711
 20
94.4453
 11
20.0729
 21
94.7634
  0
LINE
  8
0
 10
20.0729
 20
94.7634
 11
20.3131
 21
95.0536
  0
LINE
  8
0
 10
20.3131
 20
95.0536
 11
20.5877
 21
95.3116
  0
LINE
  8
0
 10
20.5877
 20
95.3116
 11
20.8925
 21
95.533
  0
LINE
  8
0
 10
20.8925
 20
95.533
 11
21.2227
 21
95.7145
  0
LINE
  8
0
 10
21.2227
 20
95.7145
 11
21.5729
 21
95.8532
  0
LINE
  8
0
 10
21.5729
 20
95.8532
 11
21.9379
 21
95.9469
  0
LINE
  8
0
 10
21.9379
 20
95.9469
 11
22.3116
 21
95.9941
  0
LINE
  8
0
 10
22.3116
 20
95.9941
 11
22.6884
 21
95.9941
  0
LINE
  8
0
 10
22.6884
 20
95.9941
 11
23.0621
 21
95.9469
  0
LINE
  8
0
 10
23.0621
 20
95.9469
 11
23.427
 21
95.8532
  0
LINE
  8
0
 10
23.427
 20
95.8532
 11
23.7773
 21
95.7145
  0
LINE
  8
0
 10
23.7773
 20
95.7145
 11
24.1075
 21
95.533
  0
LINE
  8
0
 10
24.1075
 20
95.533
 11
24.4123
 21
95.3116
  0
LINE
  8
0
 10
24.4123
 20
95.3116
 11
24.6869
 21
95.0536
  0
LINE
  8
0
 10
24.6869
 20
95.0536
 11
24.927
 21
94.7634
  0
LINE
  8
0
 10
24.927
 20
94.7634
 11
25.1289
 21
94.4453
  0
LINE
  8
0
 10
25.1289
 20
94.4453
 11
25.2893
 21
94.1044
  0
LINE
  8
0
 10
25.2893
 20
94.1044
 11
25.4057
 21
93.7461
  0
LINE
  8
0
 10
25.4057
 20
93.7461
 11
25.4763
 21
93.376
  0
LINE
  8
0
 10
25.4763
 20
93.376
 11
25.5
 21
93
  0
LINE
  8
0
 10
25.5
 20
93
 11
25.4763
 21
92.624
  0
LINE
  8
0
 10
25.4763
 20
92.624
 11
25.4057
 21
92.2539
  0
LINE
  8
0
 10
25.4057
 20
92.2539
 11
25.2893
 21
91.8956
  0
LINE
  8
0
 10
25.2893
 20
91.8956
 11
25.1289
 21
91.5547
  0
LINE
  8
0
 10
25.1289
 20
91.5547
 11
24.927
 21
91.2366
  0
LINE
  8
0
 10
24.927
 20
91.2366
 11
24.6869
 21
90.9464
  0
LINE
  8
0
 10
24.6869
 20
90.9464
 11
24.4123
 21
90.6885
  0
LINE
  8
0
 10
24.4123
 20
90.6885
 11
24.1075
 21
90.467
  0
LINE
  8
0
 10
24.1075
 20
90.467
 11
23.7773
 21
90.2855
  0
LINE
  8
0
 10
23.7773
 20
90.2855
 11
23.427
 21
90.1468
  0
LINE
  8
0
 10
23.427
 20
90.1468
 11
23.0621
 21
90.0531
  0
LINE
  8
0
 10
23.0621
 20
90.0531
 11
22.6884
 21
90.0059
  0
LINE
  8
0
 10
22.6884
 20
90.0059
 11
22.3116
 21
90.0059
  0
LINE
  8
0
 10
37.3116
 20
90.0059
 11
36.9379
 21
90.0531
  0
LINE
  8
0
 10
36.9379
 20
90.0531
 11
36.5729
 21
90.1468
  0
LINE
  8
0
 10
36.5729
 20
90.1468
 11
36.2227
 21
90.2855
  0
LINE
  8
0
 10
36.2227
 20
90.2855
 11
35.8925
 21
90.467
  0
LINE
  8
0
 10
35.8925
 20
90.467
 11
35.5877
 21
90.6885
  0
LINE
  8
0
 10
35.5877
 20
90.6885
 11
35.3131
 21
90.9464
  0
LINE
  8
0
 10
35.3131
 20
90.9464
 11
35.0729
 21
91.2366
  0
LINE
  8
0
 10
35.0729
 20
91.2366
 11
34.8711
 21
91.5547
  0
LINE
  8
0
 10
34.8711
 20
91.5547
 11
34.7107
 21
91.8956
  0
LINE
  8
0
 10
34.7107
 20
91.8956
 11
34.5942
 21
92.2539
  0
LINE
  8
0
 10
34.5942
 20
92.2539
 11
34.5237
 21
92.624
  0
LINE
  8
0
 10
34.5237
 20
92.624
 11
34.5
 21
93
  0
LINE
  8
0
 10
34.5
 20
93
 11
34.5237
 21
93.376
  0
LINE
  8
0
 10
34.5237
 20
93.376
 11
34.5942
 21
93.7461
  0
LINE
  8
0
 10
34.5942
 20
93.7461
 11
34.7107
 21
94.1044
  0
LINE
  8
0
 10
34.7107
 20
94.1044
 11
34.8711
 21
94.4453
  0
LINE
  8
0
 10
34.8711
 20
94.4453
 11
35.0729
 21
94.7634
  0
LINE
  8
0
 10
35.0729
 20
94.7634
 11
35.3131
 21
95.0536
  0
LINE
  8
0
 10
35.3131
 20
95.0536
 11
35.5877
 21
95.3116
  0
LINE
  8
0
 10
35.5877
 20
95.3116
 11
35.8925
 21
95.533
  0
LINE
  8
0
 10
35.8925
 20
95.533
 11
36.2227
 21
95.7145
  0
LINE
  8
0
 10
36.2227
 20
95.7145
 11
36.5729
 21
95.8532
  0
LINE
  8
0
 10
36.5729
 20
95.8532
 11
36.9379
 21
95.9469
  0
LINE
  8
0
 10
36.9379
 20
95.9469
 11
37.3116
 21
95.9941
  0
LINE
  8
0
 10
37.3116
 20
95.9941
 11
37.6884
 21
95.9941
  0
LINE
  8
0
 10
37.6884
 20
95.9941
 11
38.0621
 21
95.9469
  0
LINE
  8
0
 10
38.0621
 20
95.9469
 11
38.427
 21
95.8532
  0
LINE
  8
0
 10
38.427
 20
95.8532
 11
38.7773
 21
95.7145
  0
LINE
  8
0
 10
38.7773
 20
95.7145
 11
39.1075
 21
95.533
  0
LINE
  8
0
 10
39.1075
 20
95.533
 11
39.4123
 21
95.3116
  0
LINE
  8
0
 10
39.4123
 20
95.3116
 11
39.6869
 21
95.0536
  0
LINE
  8
0
 10
39.6869
 20
95.0536
 11
39.927
 21
94.7634
  0
LINE
  8
0
 10
39.927
 20
94.7634
 11
40.1289
 21
94.4453
  0
LINE
  8
0
 10
40.1289
 20
94.4453
 11
40.2893
 21
94.1044
  0
LINE
  8
0
 10
40.2893
 20
94.1044
 11
40.4057
 21
93.7461
  0
LINE
  8
0
 10
40.4057
 20
93.7461
 11
40.4763
 21
93.376
  0
LINE
  8
0
 10
40.4763
 20
93.376
 11
40.5
 21
93
  0
LINE
  8
0
 10
40.5
 20
93
 11
40.4763
 21
92.624
  0
LINE
  8
0
 10
40.4763
 20
92.624
 11
40.4057
 21
92.2539
  0
LINE
  8
0
 10
40.4057
 20
92.2539
 11
40.2893
 21
91.8956
  0
LINE
  8
0
 10
40.2893
 20
91.8956
 11
40.1289
 21
91.5547
  0
LINE
  8
0
 10
40.1289
 20
91.5547
 11
39.927
 21
91.2366
  0
LINE
  8
0
 10
39.927
 20
91.2366
 11
39.6869
 21
90.9464
  0
LINE
  8
0
 10
39.6869
 20
90.9464
 11
39.4123
 21
90.6885
  0
LINE
  8
0
 10
39.4123
 20
90.6885
 11
39.1075
 21
90.467
  0
LINE
  8
0
 10
39.1075
 20
90.467
 11
38.7773
 21
90.2855
  0
LINE
  8
0
 10
38.7773
 20
90.2855
 11
38.427
 21
90.1468
  0
LINE
  8
0
 10
38.427
 20
90.1468
 11
38.0621
 21
90.0531
  0
LINE
  8
0
 10
38.0621
 20
90.0531
 11
37.6884
 21
90.0059
  0
LINE
  8
0
 10
37.6884
 20
90.0059
 11
37.3116
 21
90.0059
  0
LINE
  8
0
 10
-22.6884
 20
90.0059
 11
-23.0621
 21
90.0531
  0
LINE
  8
0
 10
-23.0621
 20
90.0531
 11
-23.427
 21
90.1468
  0
LINE
  8
0
 10
-23.427
 20
90.1468
 11
-23.7773
 21
90.2855
  0
LINE
  8
0
 10
-23.7773
 20
90.2855
 11
-24.1075
 21
90.467
  0
LINE
  8
0
 10
-24.1075
 20
90.467
 11
-24.4123
 21
90.6885
  0
LINE
  8
0
 10
-24.4123
 20
90.6885
 11
-24.6869
 21
90.9464
  0
LINE
  8
0
 10
-24.6869
 20
90.9464
 11
-24.927
 21
91.2366
  0
LINE
  8
0
 10
-24.927
 20
91.2366
 11
-25.1289
 21
91.5547
  0
LINE
  8
0
 10
-25.1289
 20
91.5547
 11
-25.2893
 21
91.8956
  0
LINE
  8
0
 10
-25.2893
 20
91.8956
 11
-25.4057
 21
92.2539
  0
LINE
  8
0
 10
-25.4057
 20
92.2539
 11
-25.4763
 21
92.624
  0
LINE
  8
0
 10
-25.4763
 20
92.624
 11
-25.5
 21
93
  0
LINE
  8
0
 10
-25.5
 20
93
 11
-25.4763
 21
93.376
  0
LINE
  8
0
 10
-25.4763
 20
93.376
 11
-25.4057
 21
93.7461
  0
LINE
  8
0
 10
-25.4057
 20
93.7461
 11
-25.2893
 21
94.1044
  0
LINE
  8
0
 10
-25.2893
 20
94.1044
 11
-25.1289
 21
94.4453
  0
LINE
  8
0
 10
-25.1289
 20
94.4453
 11
-24.927
 21
94.7634
  0
LINE
  8
0
 10
-24.927
 20
94.7634
 11
-24.6869
 21
95.0536
  0
LINE
  8
0
 10
-24.6869
 20
95.0536
 11
-24.4123
 21
95.3116
  0
LINE
  8
0
 10
-24.4123
 20
95.3116
 11
-24.1075
 21
95.533
  0
LINE
  8
0
 10
-24.1075
 20
95.533
 11
-23.7773
 21
95.7145
  0
LINE
  8
0
 10
-23.7773
 20
95.7145
 11
-23.427
 21
95.8532
  0
LINE
  8
0
 10
-23.427
 20
95.8532
 11
-23.0621
 21
95.9469
  0
LINE
  8
0
 10
-23.0621
 20
95.9469
 11
-22.6884
 21
95.9941
  0
LINE
  8
0
 10
-22.6884
 20
95.9941
 11
-22.3116
 21
95.9941
  0
LINE
  8
0
 10
-22.3116
 20
95.9941
 11
-21.9379
 21
95.9469
  0
LINE
  8
0
 10
-21.9379
 20
95.9469
 11
-21.5729
 21
95.8532
  0
LINE
  8
0
 10
-21.5729
 20
95.8532
 11
-21.2227
 21
95.7145
  0
LINE
  8
0
 10
-21.2227
 20
95.7145
 11
-20.8925
 21
95.533
  0
LINE
  8
0
 10
-20.8925
 20
95.533
 11
-20.5877
 21
95.3116
  0
LINE
  8
0
 10
-20.5877
 20
95.3116
 11
-20.3131
 21
95.0536
  0
LINE
  8
0
 10
-20.3131
 20
95.0536
 11
-20.0729
 21
94.7634
  0
LINE
  8
0
 10
-20.0729
 20
94.7634
 11
-19.8711
 21
94.4453
  0
LINE
  8
0
 10
-19.8711
 20
94.4453
 11
-19.7107
 21
94.1044
  0
LINE
  8
0
 10
-19.7107
 20
94.1044
 11
-19.5942
 21
93.7461
  0
LINE
  8
0
 10
-19.5942
 20
93.7461
 11
-19.5237
 21
93.376
  0
LINE
  8
0
 10
-19.5237
 20
93.376
 11
-19.5
 21
93
  0
LINE
  8
0
 10
-19.5
 20
93
 11
-19.5237
 21
92.624
  0
LINE
  8
0
 10
-19.5237
 20
92.624
 11
-19.5942
 21
92.2539
  0
LINE
  8
0
 10
-19.5942
 20
92.2539
 11
-19.7107
 21
91.8956
  0
LINE
  8
0
 10
-19.7107
 20
91.8956
 11
-19.8711
 21
91.5547
  0
LINE
  8
0
 10
-19.8711
 20
91.5547
 11
-20.0729
 21
91.2366
  0
LINE
  8
0
 10
-20.0729
 20
91.2366
 11
-20.3131
 21
90.9464
  0
LINE
  8
0
 10
-20.3131
 20
90.9464
 11
-20.5877
 21
90.6885
  0
LINE
  8
0
 10
-20.5877
 20
90.6885
 11
-20.8925
 21
90.467
  0
LINE
  8
0
 10
-20.8925
 20
90.467
 11
-21.2227
 21
90.2855
  0
LINE
  8
0
 10
-21.2227
 20
90.2855
 11
-21.5729
 21
90.1468
  0
LINE
  8
0
 10
-21.5729
 20
90.1468
 11
-21.9379
 21
90.0531
  0
LINE
  8
0
 10
-21.9379
 20
90.0531
 11
-22.3116
 21
90.0059
  0
LINE
  8
0
 10
-22.3116
 20
90.0059
 11
-22.6884
 21
90.0059
  0
LINE
  8
0
 10
-37.6884
 20
90.0059
 11
-38.0621
 21
90.0531
  0
LINE
  8
0
 10
-38.0621
 20
90.0531
 11
-38.427
 21
90.1468
  0
LINE
  8
0
 10
-38.427
 20
90.1468
 11
-38.7773
 21
90.2855
  0
LINE
  8
0
 10
-38.7773
 20
90.2855
 11
-39.1075
 21
90.467
  0
LINE
  8
0
 10
-39.1075
 20
90.467
 11
-39.4123
 21
90.6885
  0
LINE
  8
0
 10
-39.4123
 20
90.6885
 11
-39.6869
 21
90.9464
  0
LINE
  8
0
 10
-39.6869
 20
90.9464
 11
-39.927
 21
91.2366
  0
LINE
  8
0
 10
-39.927
 20
91.2366
 11
-40.1289
 21
91.5547
  0
LINE
  8
0
 10
-40.1289
 20
91.5547
 11
-40.2893
 21
91.8956
  0
LINE
  8
0
 10
-40.2893
 20
91.8956
 11
-40.4057
 21
92.2539
  0
LINE
  8
0
 10
-40.4057
 20
92.2539
 11
-40.4763
 21
92.624
  0
LINE
  8
0
 10
-40.4763
 20
92.624
 11
-40.5
 21
93
  0
LINE
  8
0
 10
-40.5
 20
93
 11
-40.4763
 21
93.376
  0
LINE
  8
0
 10
-40.4763
 20
93.376
 11
-40.4057
 21
93.7461
  0
LINE
  8
0
 10
-40.4057
 20
93.7461
 11
-40.2893
 21
94.1044
  0
LINE
  8
0
 10
-40.2893
 20
94.1044
 11
-40.1289
 21
94.4453
  0
LINE
  8
0
 10
-40.1289
 20
94.4453
 11
-39.927
 21
94.7634
  0
LINE
  8
0
 10
-39.927
 20
94.7634
 11
-39.6869
 21
95.0536
  0
LINE
  8
0
 10
-39.6869
 20
95.0536
 11
-39.4123
 21
95.3116
  0
LINE
  8
0
 10
-39.4123
 20
95.3116
 11
-39.1075
 21
95.533
  0
LINE
  8
0
 10
-39.1075
 20
95.533
 11
-38.7773
 21
95.7145
  0
LINE
  8
0
 10
-38.7773
 20
95.7145
 11
-38.427
 21
95.8532
  0
LINE
  8
0
 10
-38.427
 20
95.8532
 11
-38.0621
 21
95.9469
  0
LINE
  8
0
 10
-38.0621
 20
95.9469
 11
-37.6884
 21
95.9941
  0
LINE
  8
0
 10
-37.6884
 20
95.9941
 11
-37.3116
 21
95.9941
  0
LINE
  8
0
 10
-37.3116
 20
95.9941
 11
-36.9379
 21
95.9469
  0
LINE
  8
0
 10
-36.9379
 20
95.9469
 11
-36.5729
 21
95.8532
  0
LINE
  8
0
 10
-36.5729
 20
95.8532
 11
-36.2227
 21
95.7145
  0
LINE
  8
0
 10
-36.2227
 20
95.7145
 11
-35.8925
 21
95.533
  0
LINE
  8
0
 10
-35.8925
 20
95.533
 11
-35.5877
 21
95.3116
  0
LINE
  8
0
 10
-35.5877
 20
95.3116
 11
-35.3131
 21
95.0536
  0
LINE
  8
0
 10
-35.3131
 20
95.0536
 11
-35.0729
 21
94.7634
  0
LINE
  8
0
 10
-35.0729
 20
94.7634
 11
-34.8711
 21
94.4453
  0
LINE
  8
0
 10
-34.8711
 20
94.4453
 11
-34.7107
 21
94.1044
  0
LINE
  8
0
 10
-34.7107
 20
94.1044
 11
-34.5942
 21
93.7461
  0
LINE
  8
0
 10
-34.5942
 20
93.7461
 11
-34.5237
 21
93.376
  0
LINE
  8
0
 10
-34.5237
 20
93.376
 11
-34.5
 21
93
  0
LINE
  8
0
 10
-34.5
 20
93
 11
-34.5237
 21
92.624
  0
LINE
  8
0
 10
-34.5237
 20
92.624
 11
-34.5942
 21
92.2539
  0
LINE
  8
0
 10
-34.5942
 20
92.2539
 11
-34.7107
 21
91.8956
  0
LINE
  8
0
 10
-34.7107
 20
91.8956
 11
-34.8711
 21
91.5547
  0
LINE
  8
0
 10
-34.8711
 20
91.5547
 11
-35.0729
 21
91.2366
  0
LINE
  8
0
 10
-35.0729
 20
91.2366
 11
-35.3131
 21
90.9464
  0
LINE
  8
0
 10
-35.3131
 20
90.9464
 11
-35.5877
 21
90.6885
  0
LINE
  8
0
 10
-35.5877
 20
90.6885
 11
-35.8925
 21
90.467
  0
LINE
  8
0
 10
-35.8925
 20
90.467
 11
-36.2227
 21
90.2855
  0
LINE
  8
0
 10
-36.2227
 20
90.2855
 11
-36.5729
 21
90.1468
  0
LINE
  8
0
 10
-36.5729
 20
90.1468
 11
-36.9379
 21
90.0531
  0
LINE
  8
0
 10
-36.9379
 20
90.0531
 11
-37.3116
 21
90.0059
  0
LINE
  8
0
 10
-37.3116
 20
90.0059
 11
-37.6884
 21
90.0059
  0
LINE
  8
0
 10
-7.68837
 20
90.0059
 11
-8.06213
 21
90.0531
  0
LINE
  8
0
 10
-8.06213
 20
90.0531
 11
-8.42705
 21
90.1468
  0
LINE
  8
0
 10
-8.42705
 20
90.1468
 11
-8.77733
 21
90.2855
  0
LINE
  8
0
 10
-8.77733
 20
90.2855
 11
-9.10747
 21
90.467
  0
LINE
  8
0
 10
-9.10747
 20
90.467
 11
-9.41226
 21
90.6885
  0
LINE
  8
0
 10
-9.41226
 20
90.6885
 11
-9.6869
 21
90.9464
  0
LINE
  8
0
 10
-9.6869
 20
90.9464
 11
-9.92705
 21
91.2366
  0
LINE
  8
0
 10
-9.92705
 20
91.2366
 11
-10.1289
 21
91.5547
  0
LINE
  8
0
 10
-10.1289
 20
91.5547
 11
-10.2893
 21
91.8956
  0
LINE
  8
0
 10
-10.2893
 20
91.8956
 11
-10.4057
 21
92.2539
  0
LINE
  8
0
 10
-10.4057
 20
92.2539
 11
-10.4763
 21
92.624
  0
LINE
  8
0
 10
-10.4763
 20
92.624
 11
-10.5
 21
93
  0
LINE
  8
0
 10
-10.5
 20
93
 11
-10.4763
 21
93.376
  0
LINE
  8
0
 10
-10.4763
 20
93.376
 11
-10.4057
 21
93.7461
  0
LINE
  8
0
 10
-10.4057
 20
93.7461
 11
-10.2893
 21
94.1044
  0
LINE
  8
0
 10
-10.2893
 20
94.1044
 11
-10.1289
 21
94.4453
  0
LINE
  8
0
 10
-10.1289
 20
94.4453
 11
-9.92705
 21
94.7634
  0
LINE
  8
0
 10
-9.92705
 20
94.7634
 11
-9.6869
 21
95.0536
  0
LINE
  8
0
 10
-9.6869
 20
95.0536
 11
-9.41226
 21
95.3116
  0
LINE
  8
0
 10
-9.41226
 20
95.3116
 11
-9.10747
 21
95.533
  0
LINE
  8
0
 10
-9.10747
 20
95.533
 11
-8.77733
 21
95.7145
  0
LINE
  8
0
 10
-8.77733
 20
95.7145
 11
-8.42705
 21
95.8532
  0
LINE
  8
0
 10
-8.42705
 20
95.8532
 11
-8.06213
 21
95.9469
  0
LINE
  8
0
 10
-8.06213
 20
95.9469
 11
-7.68837
 21
95.9941
  0
LINE
  8
0
 10
-7.68837
 20
95.9941
 11
-7.31161
 21
95.9941
  0
LINE
  8
0
 10
-7.31161
 20
95.9941
 11
-6.93785
 21
95.9469
  0
LINE
  8
0
 10
-6.93785
 20
95.9469
 11
-6.57294
 21
95.8532
  0
LINE
  8
0
 10
-6.57294
 20
95.8532
 11
-6.22266
 21
95.7145
  0
LINE
  8
0
 10
-6.22266
 20
95.7145
 11
-5.89252
 21
95.533
  0
LINE
  8
0
 10
-5.89252
 20
95.533
 11
-5.58772
 21
95.3116
  0
LINE
  8
0
 10
-5.58772
 20
95.3116
 11
-5.31308
 21
95.0536
  0
LINE
  8
0
 10
-5.31308
 20
95.0536
 11
-5.07294
 21
94.7634
  0
LINE
  8
0
 10
-5.07294
 20
94.7634
 11
-4.87108
 21
94.4453
  0
LINE
  8
0
 10
-4.87108
 20
94.4453
 11
-4.71066
 21
94.1044
  0
LINE
  8
0
 10
-4.71066
 20
94.1044
 11
-4.59424
 21
93.7461
  0
LINE
  8
0
 10
-4.59424
 20
93.7461
 11
-4.52365
 21
93.376
  0
LINE
  8
0
 10
-4.52365
 20
93.376
 11
-4.5
 21
93
  0
LINE
  8
0
 10
-4.5
 20
93
 11
-4.52365
 21
92.624
  0
LINE
  8
0
 10
-4.52365
 20
92.624
 11
-4.59424
 21
92.2539
  0
LINE
  8
0
 10
-4.59424
 20
92.2539
 11
-4.71066
 21
91.8956
  0
LINE
  8
0
 10
-4.71066
 20
91.8956
 11
-4.87108
 21
91.5547
  0
LINE
  8
0
 10
-4.87108
 20
91.5547
 11
-5.07294
 21
91.2366
  0
LINE
  8
0
 10
-5.07294
 20
91.2366
 11
-5.31308
 21
90.9464
  0
LINE
  8
0
 10
-5.31308
 20
90.9464
 11
-5.58772
 21
90.6885
  0
LINE
  8
0
 10
-5.58772
 20
90.6885
 11
-5.89252
 21
90.467
  0
LINE
  8
0
 10
-5.89252
 20
90.467
 11
-6.22266
 21
90.2855
  0
LINE
  8
0
 10
-6.22266
 20
90.2855
 11
-6.57294
 21
90.1468
  0
LINE
  8
0
 10
-6.57294
 20
90.1468
 11
-6.93785
 21
90.0531
  0
LINE
  8
0
 10
-6.93785
 20
90.0531
 11
-7.31161
 21
90.0059
  0
LINE
  8
0
 10
-7.31161
 20
90.0059
 11
-7.68837
 21
90.0059
  0
LINE
  8
0
 10
7.31161
 20
90.0059
 11
6.93785
 21
90.0531
  0
LINE
  8
0
 10
6.93785
 20
90.0531
 11
6.57294
 21
90.1468
  0
LINE
  8
0
 10
6.57294
 20
90.1468
 11
6.22266
 21
90.2855
  0
LINE
  8
0
 10
6.22266
 20
90.2855
 11
5.89252
 21
90.467
  0
LINE
  8
0
 10
5.89252
 20
90.467
 11
5.58772
 21
90.6885
  0
LINE
  8
0
 10
5.58772
 20
90.6885
 11
5.31308
 21
90.9464
  0
LINE
  8
0
 10
5.31308
 20
90.9464
 11
5.07294
 21
91.2366
  0
LINE
  8
0
 10
5.07294
 20
91.2366
 11
4.87108
 21
91.5547
  0
LINE
  8
0
 10
4.87108
 20
91.5547
 11
4.71066
 21
91.8956
  0
LINE
  8
0
 10
4.71066
 20
91.8956
 11
4.59424
 21
92.2539
  0
LINE
  8
0
 10
4.59424
 20
92.2539
 11
4.52365
 21
92.624
  0
LINE
  8
0
 10
4.52365
 20
92.624
 11
4.5
 21
93
  0
LINE
  8
0
 10
4.5
 20
93
 11
4.52365
 21
93.376
  0
LINE
  8
0
 10
4.52365
 20
93.376
 11
4.59424
 21
93.7461
  0
LINE
  8
0
 10
4.59424
 20
93.7461
 11
4.71066
 21
94.1044
  0
LINE
  8
0
 10
4.71066
 20
94.1044
 11
4.87108
 21
94.4453
  0
LINE
  8
0
 10
4.87108
 20
94.4453
 11
5.07294
 21
94.7634
  0
LINE
  8
0
 10
5.07294
 20
94.7634
 11
5.31308
 21
95.0536
  0
LINE
  8
0
 10
5.31308
 20
95.0536
 11
5.58772
 21
95.3116
  0
LINE
  8
0
 10
5.58772
 20
95.3116
 11
5.89252
 21
95.533
  0
LINE
  8
0
 10
5.89252
 20
95.533
 11
6.22266
 21
95.7145
  0
LINE
  8
0
 10
6.22266
 20
95.7145
 11
6.57294
 21
95.8532
  0
LINE
  8
0
 10
6.57294
 20
95.8532
 11
6.93785
 21
95.9469
  0
LINE
  8
0
 10
6.93785
 20
95.9469
 11
7.31161
 21
95.9941
  0
LINE
  8
0
 10
7.31161
 20
95.9941
 11
7.68837
 21
95.9941
  0
LINE
  8
0
 10
7.68837
 20
95.9941
 11
8.06213
 21
95.9469
  0
LINE
  8
0
 10
8.06213
 20
95.9469
 11
8.42705
 21
95.8532
  0
LINE
  8
0
 10
8.42705
 20
95.8532
 11
8.77733
 21
95.7145
  0
LINE
  8
0
 10
8.77733
 20
95.7145
 11
9.10747
 21
95.533
  0
LINE
  8
0
 10
9.10747
 20
95.533
 11
9.41226
 21
95.3116
  0
LINE
  8
0
 10
9.41226
 20
95.3116
 11
9.6869
 21
95.0536
  0
LINE
  8
0
 10
9.6869
 20
95.0536
 11
9.92705
 21
94.7634
  0
LINE
  8
0
 10
9.92705
 20
94.7634
 11
10.1289
 21
94.4453
  0
LINE
  8
0
 10
10.1289
 20
94.4453
 11
10.2893
 21
94.1044
  0
LINE
  8
0
 10
10.2893
 20
94.1044
 11
10.4057
 21
93.7461
  0
LINE
  8
0
 10
10.4057
 20
93.7461
 11
10.4763
 21
93.376
  0
LINE
  8
0
 10
10.4763
 20
93.376
 11
10.5
 21
93
  0
LINE
  8
0
 10
10.5
 20
93
 11
10.4763
 21
92.624
  0
LINE
  8
0
 10
10.4763
 20
92.624
 11
10.4057
 21
92.2539
  0
LINE
  8
0
 10
10.4057
 20
92.2539
 11
10.2893
 21
91.8956
  0
LINE
  8
0
 10
10.2893
 20
91.8956
 11
10.1289
 21
91.5547
  0
LINE
  8
0
 10
10.1289
 20
91.5547
 11
9.92705
 21
91.2366
  0
LINE
  8
0
 10
9.92705
 20
91.2366
 11
9.6869
 21
90.9464
  0
LINE
  8
0
 10
9.6869
 20
90.9464
 11
9.41226
 21
90.6885
  0
LINE
  8
0
 10
9.41226
 20
90.6885
 11
9.10747
 21
90.467
  0
LINE
  8
0
 10
9.10747
 20
90.467
 11
8.77733
 21
90.2855
  0
LINE
  8
0
 10
8.77733
 20
90.2855
 11
8.42705
 21
90.1468
  0
LINE
  8
0
 10
8.42705
 20
90.1468
 11
8.06213
 21
90.0531
  0
LINE
  8
0
 10
8.06213
 20
90.0531
 11
7.68837
 21
90.0059
  0
LINE
  8
0
 10
7.68837
 20
90.0059
 11
7.31161
 21
90.0059
  0
ENDSEC
  0
SECTION
  2
OBJECTS
  0
DICTIONARY
  0
ENDSEC
  0
EOF
