  0
SECTION
  2
BLOCKS
  0
ENDSEC
  0
SECTION
  2
ENTITIES
  0
LINE
  8
0
 10
122.937
 20
-126.911
 11
123.545
 21
-126.755
  0
LINE
  8
0
 10
123.545
 20
-126.755
 11
124.129
 21
-126.524
  0
LINE
  8
0
 10
124.129
 20
-126.524
 11
124.679
 21
-126.222
  0
LINE
  8
0
 10
124.679
 20
-126.222
 11
125.187
 21
-125.853
  0
LINE
  8
0
 10
125.187
 20
-125.853
 11
125.645
 21
-125.423
  0
LINE
  8
0
 10
125.645
 20
-125.423
 11
126.045
 21
-124.939
  0
LINE
  8
0
 10
126.045
 20
-124.939
 11
126.382
 21
-124.409
  0
LINE
  8
0
 10
126.382
 20
-124.409
 11
126.649
 21
-123.841
  0
LINE
  8
0
 10
126.649
 20
-123.841
 11
126.843
 21
-123.243
  0
LINE
  8
0
 10
126.843
 20
-123.243
 11
126.961
 21
-122.627
  0
LINE
  8
0
 10
126.961
 20
-122.627
 11
127
 21
-122
  0
LINE
  8
0
 10
127
 20
-122
 11
127
 21
122
  0
LINE
  8
0
 10
127
 20
122
 11
126.961
 21
122.627
  0
LINE
  8
0
 10
126.961
 20
122.627
 11
126.843
 21
123.243
  0
LINE
  8
0
 10
126.843
 20
123.243
 11
126.649
 21
123.841
  0
LINE
  8
0
 10
126.649
 20
123.841
 11
126.382
 21
124.409
  0
LINE
  8
0
 10
126.382
 20
124.409
 11
126.045
 21
124.939
  0
LINE
  8
0
 10
126.045
 20
124.939
 11
125.645
 21
125.423
  0
LINE
  8
0
 10
125.645
 20
125.423
 11
125.187
 21
125.853
  0
LINE
  8
0
 10
125.187
 20
125.853
 11
124.679
 21
126.222
  0
LINE
  8
0
 10
124.679
 20
126.222
 11
124.129
 21
126.524
  0
LINE
  8
0
 10
124.129
 20
126.524
 11
123.545
 21
126.755
  0
LINE
  8
0
 10
123.545
 20
126.755
 11
122.937
 21
126.911
  0
LINE
  8
0
 10
122.937
 20
126.911
 11
122.314
 21
126.99
  0
LINE
  8
0
 10
122.314
 20
126.99
 11
-122.314
 21
126.99
  0
LINE
  8
0
 10
-122.314
 20
126.99
 11
-122.937
 21
126.911
  0
LINE
  8
0
 10
-122.937
 20
126.911
 11
-123.545
 21
126.755
  0
LINE
  8
0
 10
-123.545
 20
126.755
 11
-124.129
 21
126.524
  0
LINE
  8
0
 10
-124.129
 20
126.524
 11
-124.679
 21
126.222
  0
LINE
  8
0
 10
-124.679
 20
126.222
 11
-125.187
 21
125.853
  0
LINE
  8
0
 10
-125.187
 20
125.853
 11
-125.645
 21
125.423
  0
LINE
  8
0
 10
-125.645
 20
125.423
 11
-126.045
 21
124.939
  0
LINE
  8
0
 10
-126.045
 20
124.939
 11
-126.382
 21
124.409
  0
LINE
  8
0
 10
-126.382
 20
124.409
 11
-126.649
 21
123.841
  0
LINE
  8
0
 10
-126.649
 20
123.841
 11
-126.843
 21
123.243
  0
LINE
  8
0
 10
-126.843
 20
123.243
 11
-126.961
 21
122.627
  0
LINE
  8
0
 10
-126.961
 20
122.627
 11
-127
 21
122
  0
LINE
  8
0
 10
-127
 20
122
 11
-127
 21
-122
  0
LINE
  8
0
 10
-127
 20
-122
 11
-126.961
 21
-122.627
  0
LINE
  8
0
 10
-126.961
 20
-122.627
 11
-126.843
 21
-123.243
  0
LINE
  8
0
 10
-126.843
 20
-123.243
 11
-126.649
 21
-123.841
  0
LINE
  8
0
 10
-126.649
 20
-123.841
 11
-126.382
 21
-124.409
  0
LINE
  8
0
 10
-126.382
 20
-124.409
 11
-126.045
 21
-124.939
  0
LINE
  8
0
 10
-126.045
 20
-124.939
 11
-125.645
 21
-125.423
  0
LINE
  8
0
 10
-125.645
 20
-125.423
 11
-125.187
 21
-125.853
  0
LINE
  8
0
 10
-125.187
 20
-125.853
 11
-124.679
 21
-126.222
  0
LINE
  8
0
 10
-124.679
 20
-126.222
 11
-124.129
 21
-126.524
  0
LINE
  8
0
 10
-124.129
 20
-126.524
 11
-123.545
 21
-126.755
  0
LINE
  8
0
 10
-123.545
 20
-126.755
 11
-122.937
 21
-126.911
  0
LINE
  8
0
 10
-122.937
 20
-126.911
 11
-122.314
 21
-126.99
  0
LINE
  8
0
 10
-122.314
 20
-126.99
 11
122.314
 21
-126.99
  0
LINE
  8
0
 10
122.314
 20
-126.99
 11
122.937
 21
-126.911
  0
LINE
  8
0
 10
119.812
 20
117.006
 11
119.438
 21
117.053
  0
LINE
  8
0
 10
119.438
 20
117.053
 11
119.073
 21
117.147
  0
LINE
  8
0
 10
119.073
 20
117.147
 11
118.723
 21
117.286
  0
LINE
  8
0
 10
118.723
 20
117.286
 11
118.393
 21
117.467
  0
LINE
  8
0
 10
118.393
 20
117.467
 11
118.088
 21
117.688
  0
LINE
  8
0
 10
118.088
 20
117.688
 11
117.813
 21
117.946
  0
LINE
  8
0
 10
117.813
 20
117.946
 11
117.573
 21
118.237
  0
LINE
  8
0
 10
117.573
 20
118.237
 11
117.371
 21
118.555
  0
LINE
  8
0
 10
117.371
 20
118.555
 11
117.211
 21
118.896
  0
LINE
  8
0
 10
117.211
 20
118.896
 11
117.094
 21
119.254
  0
LINE
  8
0
 10
117.094
 20
119.254
 11
117.024
 21
119.624
  0
LINE
  8
0
 10
117.024
 20
119.624
 11
117
 21
120
  0
LINE
  8
0
 10
117
 20
120
 11
117.024
 21
120.376
  0
LINE
  8
0
 10
117.024
 20
120.376
 11
117.094
 21
120.746
  0
LINE
  8
0
 10
117.094
 20
120.746
 11
117.211
 21
121.104
  0
LINE
  8
0
 10
117.211
 20
121.104
 11
117.371
 21
121.445
  0
LINE
  8
0
 10
117.371
 20
121.445
 11
117.573
 21
121.763
  0
LINE
  8
0
 10
117.573
 20
121.763
 11
117.813
 21
122.054
  0
LINE
  8
0
 10
117.813
 20
122.054
 11
118.088
 21
122.312
  0
LINE
  8
0
 10
118.088
 20
122.312
 11
118.393
 21
122.533
  0
LINE
  8
0
 10
118.393
 20
122.533
 11
118.723
 21
122.714
  0
LINE
  8
0
 10
118.723
 20
122.714
 11
119.073
 21
122.853
  0
LINE
  8
0
 10
119.073
 20
122.853
 11
119.438
 21
122.947
  0
LINE
  8
0
 10
119.438
 20
122.947
 11
119.812
 21
122.994
  0
LINE
  8
0
 10
119.812
 20
122.994
 11
120.188
 21
122.994
  0
LINE
  8
0
 10
120.188
 20
122.994
 11
120.562
 21
122.947
  0
LINE
  8
0
 10
120.562
 20
122.947
 11
120.927
 21
122.853
  0
LINE
  8
0
 10
120.927
 20
122.853
 11
121.277
 21
122.714
  0
LINE
  8
0
 10
121.277
 20
122.714
 11
121.607
 21
122.533
  0
LINE
  8
0
 10
121.607
 20
122.533
 11
121.912
 21
122.312
  0
LINE
  8
0
 10
121.912
 20
122.312
 11
122.187
 21
122.054
  0
LINE
  8
0
 10
122.187
 20
122.054
 11
122.427
 21
121.763
  0
LINE
  8
0
 10
122.427
 20
121.763
 11
122.629
 21
121.445
  0
LINE
  8
0
 10
122.629
 20
121.445
 11
122.789
 21
121.104
  0
LINE
  8
0
 10
122.789
 20
121.104
 11
122.906
 21
120.746
  0
LINE
  8
0
 10
122.906
 20
120.746
 11
122.976
 21
120.376
  0
LINE
  8
0
 10
122.976
 20
120.376
 11
123
 21
120
  0
LINE
  8
0
 10
123
 20
120
 11
122.976
 21
119.624
  0
LINE
  8
0
 10
122.976
 20
119.624
 11
122.906
 21
119.254
  0
LINE
  8
0
 10
122.906
 20
119.254
 11
122.789
 21
118.896
  0
LINE
  8
0
 10
122.789
 20
118.896
 11
122.629
 21
118.555
  0
LINE
  8
0
 10
122.629
 20
118.555
 11
122.427
 21
118.237
  0
LINE
  8
0
 10
122.427
 20
118.237
 11
122.187
 21
117.946
  0
LINE
  8
0
 10
122.187
 20
117.946
 11
121.912
 21
117.688
  0
LINE
  8
0
 10
121.912
 20
117.688
 11
121.607
 21
117.467
  0
LINE
  8
0
 10
121.607
 20
117.467
 11
121.277
 21
117.286
  0
LINE
  8
0
 10
121.277
 20
117.286
 11
120.927
 21
117.147
  0
LINE
  8
0
 10
120.927
 20
117.147
 11
120.562
 21
117.053
  0
LINE
  8
0
 10
120.562
 20
117.053
 11
120.188
 21
117.006
  0
LINE
  8
0
 10
120.188
 20
117.006
 11
119.812
 21
117.006
  0
LINE
  8
0
 10
-120.188
 20
117.006
 11
-120.562
 21
117.053
  0
LINE
  8
0
 10
-120.562
 20
117.053
 11
-120.927
 21
117.147
  0
LINE
  8
0
 10
-120.927
 20
117.147
 11
-121.277
 21
117.286
  0
LINE
  8
0
 10
-121.277
 20
117.286
 11
-121.607
 21
117.467
  0
LINE
  8
0
 10
-121.607
 20
117.467
 11
-121.912
 21
117.688
  0
LINE
  8
0
 10
-121.912
 20
117.688
 11
-122.187
 21
117.946
  0
LINE
  8
0
 10
-122.187
 20
117.946
 11
-122.427
 21
118.237
  0
LINE
  8
0
 10
-122.427
 20
118.237
 11
-122.629
 21
118.555
  0
LINE
  8
0
 10
-122.629
 20
118.555
 11
-122.789
 21
118.896
  0
LINE
  8
0
 10
-122.789
 20
118.896
 11
-122.906
 21
119.254
  0
LINE
  8
0
 10
-122.906
 20
119.254
 11
-122.976
 21
119.624
  0
LINE
  8
0
 10
-122.976
 20
119.624
 11
-123
 21
120
  0
LINE
  8
0
 10
-123
 20
120
 11
-122.976
 21
120.376
  0
LINE
  8
0
 10
-122.976
 20
120.376
 11
-122.906
 21
120.746
  0
LINE
  8
0
 10
-122.906
 20
120.746
 11
-122.789
 21
121.104
  0
LINE
  8
0
 10
-122.789
 20
121.104
 11
-122.629
 21
121.445
  0
LINE
  8
0
 10
-122.629
 20
121.445
 11
-122.427
 21
121.763
  0
LINE
  8
0
 10
-122.427
 20
121.763
 11
-122.187
 21
122.054
  0
LINE
  8
0
 10
-122.187
 20
122.054
 11
-121.912
 21
122.312
  0
LINE
  8
0
 10
-121.912
 20
122.312
 11
-121.607
 21
122.533
  0
LINE
  8
0
 10
-121.607
 20
122.533
 11
-121.277
 21
122.714
  0
LINE
  8
0
 10
-121.277
 20
122.714
 11
-120.927
 21
122.853
  0
LINE
  8
0
 10
-120.927
 20
122.853
 11
-120.562
 21
122.947
  0
LINE
  8
0
 10
-120.562
 20
122.947
 11
-120.188
 21
122.994
  0
LINE
  8
0
 10
-120.188
 20
122.994
 11
-119.812
 21
122.994
  0
LINE
  8
0
 10
-119.812
 20
122.994
 11
-119.438
 21
122.947
  0
LINE
  8
0
 10
-119.438
 20
122.947
 11
-119.073
 21
122.853
  0
LINE
  8
0
 10
-119.073
 20
122.853
 11
-118.723
 21
122.714
  0
LINE
  8
0
 10
-118.723
 20
122.714
 11
-118.393
 21
122.533
  0
LINE
  8
0
 10
-118.393
 20
122.533
 11
-118.088
 21
122.312
  0
LINE
  8
0
 10
-118.088
 20
122.312
 11
-117.813
 21
122.054
  0
LINE
  8
0
 10
-117.813
 20
122.054
 11
-117.573
 21
121.763
  0
LINE
  8
0
 10
-117.573
 20
121.763
 11
-117.371
 21
121.445
  0
LINE
  8
0
 10
-117.371
 20
121.445
 11
-117.211
 21
121.104
  0
LINE
  8
0
 10
-117.211
 20
121.104
 11
-117.094
 21
120.746
  0
LINE
  8
0
 10
-117.094
 20
120.746
 11
-117.024
 21
120.376
  0
LINE
  8
0
 10
-117.024
 20
120.376
 11
-117
 21
120
  0
LINE
  8
0
 10
-117
 20
120
 11
-117.024
 21
119.624
  0
LINE
  8
0
 10
-117.024
 20
119.624
 11
-117.094
 21
119.254
  0
LINE
  8
0
 10
-117.094
 20
119.254
 11
-117.211
 21
118.896
  0
LINE
  8
0
 10
-117.211
 20
118.896
 11
-117.371
 21
118.555
  0
LINE
  8
0
 10
-117.371
 20
118.555
 11
-117.573
 21
118.237
  0
LINE
  8
0
 10
-117.573
 20
118.237
 11
-117.813
 21
117.946
  0
LINE
  8
0
 10
-117.813
 20
117.946
 11
-118.088
 21
117.688
  0
LINE
  8
0
 10
-118.088
 20
117.688
 11
-118.393
 21
117.467
  0
LINE
  8
0
 10
-118.393
 20
117.467
 11
-118.723
 21
117.286
  0
LINE
  8
0
 10
-118.723
 20
117.286
 11
-119.073
 21
117.147
  0
LINE
  8
0
 10
-119.073
 20
117.147
 11
-119.438
 21
117.053
  0
LINE
  8
0
 10
-119.438
 20
117.053
 11
-119.812
 21
117.006
  0
LINE
  8
0
 10
-119.812
 20
117.006
 11
-120.188
 21
117.006
  0
LINE
  8
0
 10
119.812
 20
-122.994
 11
119.438
 21
-122.947
  0
LINE
  8
0
 10
119.438
 20
-122.947
 11
119.073
 21
-122.853
  0
LINE
  8
0
 10
119.073
 20
-122.853
 11
118.723
 21
-122.714
  0
LINE
  8
0
 10
118.723
 20
-122.714
 11
118.393
 21
-122.533
  0
LINE
  8
0
 10
118.393
 20
-122.533
 11
118.088
 21
-122.312
  0
LINE
  8
0
 10
118.088
 20
-122.312
 11
117.813
 21
-122.054
  0
LINE
  8
0
 10
117.813
 20
-122.054
 11
117.573
 21
-121.763
  0
LINE
  8
0
 10
117.573
 20
-121.763
 11
117.371
 21
-121.445
  0
LINE
  8
0
 10
117.371
 20
-121.445
 11
117.211
 21
-121.104
  0
LINE
  8
0
 10
117.211
 20
-121.104
 11
117.094
 21
-120.746
  0
LINE
  8
0
 10
117.094
 20
-120.746
 11
117.024
 21
-120.376
  0
LINE
  8
0
 10
117.024
 20
-120.376
 11
117
 21
-120
  0
LINE
  8
0
 10
117
 20
-120
 11
117.024
 21
-119.624
  0
LINE
  8
0
 10
117.024
 20
-119.624
 11
117.094
 21
-119.254
  0
LINE
  8
0
 10
117.094
 20
-119.254
 11
117.211
 21
-118.896
  0
LINE
  8
0
 10
117.211
 20
-118.896
 11
117.371
 21
-118.555
  0
LINE
  8
0
 10
117.371
 20
-118.555
 11
117.573
 21
-118.237
  0
LINE
  8
0
 10
117.573
 20
-118.237
 11
117.813
 21
-117.946
  0
LINE
  8
0
 10
117.813
 20
-117.946
 11
118.088
 21
-117.688
  0
LINE
  8
0
 10
118.088
 20
-117.688
 11
118.393
 21
-117.467
  0
LINE
  8
0
 10
118.393
 20
-117.467
 11
118.723
 21
-117.286
  0
LINE
  8
0
 10
118.723
 20
-117.286
 11
119.073
 21
-117.147
  0
LINE
  8
0
 10
119.073
 20
-117.147
 11
119.438
 21
-117.053
  0
LINE
  8
0
 10
119.438
 20
-117.053
 11
119.812
 21
-117.006
  0
LINE
  8
0
 10
119.812
 20
-117.006
 11
120.188
 21
-117.006
  0
LINE
  8
0
 10
120.188
 20
-117.006
 11
120.562
 21
-117.053
  0
LINE
  8
0
 10
120.562
 20
-117.053
 11
120.927
 21
-117.147
  0
LINE
  8
0
 10
120.927
 20
-117.147
 11
121.277
 21
-117.286
  0
LINE
  8
0
 10
121.277
 20
-117.286
 11
121.607
 21
-117.467
  0
LINE
  8
0
 10
121.607
 20
-117.467
 11
121.912
 21
-117.688
  0
LINE
  8
0
 10
121.912
 20
-117.688
 11
122.187
 21
-117.946
  0
LINE
  8
0
 10
122.187
 20
-117.946
 11
122.427
 21
-118.237
  0
LINE
  8
0
 10
122.427
 20
-118.237
 11
122.629
 21
-118.555
  0
LINE
  8
0
 10
122.629
 20
-118.555
 11
122.789
 21
-118.896
  0
LINE
  8
0
 10
122.789
 20
-118.896
 11
122.906
 21
-119.254
  0
LINE
  8
0
 10
122.906
 20
-119.254
 11
122.976
 21
-119.624
  0
LINE
  8
0
 10
122.976
 20
-119.624
 11
123
 21
-120
  0
LINE
  8
0
 10
123
 20
-120
 11
122.976
 21
-120.376
  0
LINE
  8
0
 10
122.976
 20
-120.376
 11
122.906
 21
-120.746
  0
LINE
  8
0
 10
122.906
 20
-120.746
 11
122.789
 21
-121.104
  0
LINE
  8
0
 10
122.789
 20
-121.104
 11
122.629
 21
-121.445
  0
LINE
  8
0
 10
122.629
 20
-121.445
 11
122.427
 21
-121.763
  0
LINE
  8
0
 10
122.427
 20
-121.763
 11
122.187
 21
-122.054
  0
LINE
  8
0
 10
122.187
 20
-122.054
 11
121.912
 21
-122.312
  0
LINE
  8
0
 10
121.912
 20
-122.312
 11
121.607
 21
-122.533
  0
LINE
  8
0
 10
121.607
 20
-122.533
 11
121.277
 21
-122.714
  0
LINE
  8
0
 10
121.277
 20
-122.714
 11
120.927
 21
-122.853
  0
LINE
  8
0
 10
120.927
 20
-122.853
 11
120.562
 21
-122.947
  0
LINE
  8
0
 10
120.562
 20
-122.947
 11
120.188
 21
-122.994
  0
LINE
  8
0
 10
120.188
 20
-122.994
 11
119.812
 21
-122.994
  0
LINE
  8
0
 10
-120.188
 20
-122.994
 11
-120.562
 21
-122.947
  0
LINE
  8
0
 10
-120.562
 20
-122.947
 11
-120.927
 21
-122.853
  0
LINE
  8
0
 10
-120.927
 20
-122.853
 11
-121.277
 21
-122.714
  0
LINE
  8
0
 10
-121.277
 20
-122.714
 11
-121.607
 21
-122.533
  0
LINE
  8
0
 10
-121.607
 20
-122.533
 11
-121.912
 21
-122.312
  0
LINE
  8
0
 10
-121.912
 20
-122.312
 11
-122.187
 21
-122.054
  0
LINE
  8
0
 10
-122.187
 20
-122.054
 11
-122.427
 21
-121.763
  0
LINE
  8
0
 10
-122.427
 20
-121.763
 11
-122.629
 21
-121.445
  0
LINE
  8
0
 10
-122.629
 20
-121.445
 11
-122.789
 21
-121.104
  0
LINE
  8
0
 10
-122.789
 20
-121.104
 11
-122.906
 21
-120.746
  0
LINE
  8
0
 10
-122.906
 20
-120.746
 11
-122.976
 21
-120.376
  0
LINE
  8
0
 10
-122.976
 20
-120.376
 11
-123
 21
-120
  0
LINE
  8
0
 10
-123
 20
-120
 11
-122.976
 21
-119.624
  0
LINE
  8
0
 10
-122.976
 20
-119.624
 11
-122.906
 21
-119.254
  0
LINE
  8
0
 10
-122.906
 20
-119.254
 11
-122.789
 21
-118.896
  0
LINE
  8
0
 10
-122.789
 20
-118.896
 11
-122.629
 21
-118.555
  0
LINE
  8
0
 10
-122.629
 20
-118.555
 11
-122.427
 21
-118.237
  0
LINE
  8
0
 10
-122.427
 20
-118.237
 11
-122.187
 21
-117.946
  0
LINE
  8
0
 10
-122.187
 20
-117.946
 11
-121.912
 21
-117.688
  0
LINE
  8
0
 10
-121.912
 20
-117.688
 11
-121.607
 21
-117.467
  0
LINE
  8
0
 10
-121.607
 20
-117.467
 11
-121.277
 21
-117.286
  0
LINE
  8
0
 10
-121.277
 20
-117.286
 11
-120.927
 21
-117.147
  0
LINE
  8
0
 10
-120.927
 20
-117.147
 11
-120.562
 21
-117.053
  0
LINE
  8
0
 10
-120.562
 20
-117.053
 11
-120.188
 21
-117.006
  0
LINE
  8
0
 10
-120.188
 20
-117.006
 11
-119.812
 21
-117.006
  0
LINE
  8
0
 10
-119.812
 20
-117.006
 11
-119.438
 21
-117.053
  0
LINE
  8
0
 10
-119.438
 20
-117.053
 11
-119.073
 21
-117.147
  0
LINE
  8
0
 10
-119.073
 20
-117.147
 11
-118.723
 21
-117.286
  0
LINE
  8
0
 10
-118.723
 20
-117.286
 11
-118.393
 21
-117.467
  0
LINE
  8
0
 10
-118.393
 20
-117.467
 11
-118.088
 21
-117.688
  0
LINE
  8
0
 10
-118.088
 20
-117.688
 11
-117.813
 21
-117.946
  0
LINE
  8
0
 10
-117.813
 20
-117.946
 11
-117.573
 21
-118.237
  0
LINE
  8
0
 10
-117.573
 20
-118.237
 11
-117.371
 21
-118.555
  0
LINE
  8
0
 10
-117.371
 20
-118.555
 11
-117.211
 21
-118.896
  0
LINE
  8
0
 10
-117.211
 20
-118.896
 11
-117.094
 21
-119.254
  0
LINE
  8
0
 10
-117.094
 20
-119.254
 11
-117.024
 21
-119.624
  0
LINE
  8
0
 10
-117.024
 20
-119.624
 11
-117
 21
-120
  0
LINE
  8
0
 10
-117
 20
-120
 11
-117.024
 21
-120.376
  0
LINE
  8
0
 10
-117.024
 20
-120.376
 11
-117.094
 21
-120.746
  0
LINE
  8
0
 10
-117.094
 20
-120.746
 11
-117.211
 21
-121.104
  0
LINE
  8
0
 10
-117.211
 20
-121.104
 11
-117.371
 21
-121.445
  0
LINE
  8
0
 10
-117.371
 20
-121.445
 11
-117.573
 21
-121.763
  0
LINE
  8
0
 10
-117.573
 20
-121.763
 11
-117.813
 21
-122.054
  0
LINE
  8
0
 10
-117.813
 20
-122.054
 11
-118.088
 21
-122.312
  0
LINE
  8
0
 10
-118.088
 20
-122.312
 11
-118.393
 21
-122.533
  0
LINE
  8
0
 10
-118.393
 20
-122.533
 11
-118.723
 21
-122.714
  0
LINE
  8
0
 10
-118.723
 20
-122.714
 11
-119.073
 21
-122.853
  0
LINE
  8
0
 10
-119.073
 20
-122.853
 11
-119.438
 21
-122.947
  0
LINE
  8
0
 10
-119.438
 20
-122.947
 11
-119.812
 21
-122.994
  0
LINE
  8
0
 10
-119.812
 20
-122.994
 11
-120.188
 21
-122.994
  0
ENDSEC
  0
SECTION
  2
OBJECTS
  0
DICTIONARY
  0
ENDSEC
  0
EOF
