  0
SECTION
  2
BLOCKS
  0
ENDSEC
  0
SECTION
  2
ENTITIES
  0
LINE
  8
0
 10
205.437
 20
17.0886
 11
206.045
 21
17.2447
  0
LINE
  8
0
 10
206.045
 20
17.2447
 11
206.629
 21
17.4759
  0
LINE
  8
0
 10
206.629
 20
17.4759
 11
207.179
 21
17.7784
  0
LINE
  8
0
 10
207.179
 20
17.7784
 11
207.687
 21
18.1474
  0
LINE
  8
0
 10
207.687
 20
18.1474
 11
208.145
 21
18.5773
  0
LINE
  8
0
 10
208.145
 20
18.5773
 11
208.545
 21
19.0611
  0
LINE
  8
0
 10
208.545
 20
19.0611
 11
208.882
 21
19.5912
  0
LINE
  8
0
 10
208.882
 20
19.5912
 11
209.149
 21
20.1594
  0
LINE
  8
0
 10
209.149
 20
20.1594
 11
209.343
 21
20.7566
  0
LINE
  8
0
 10
209.343
 20
20.7566
 11
209.461
 21
21.3733
  0
LINE
  8
0
 10
209.461
 20
21.3733
 11
209.5
 21
22
  0
LINE
  8
0
 10
209.5
 20
22
 11
209.5
 21
26
  0
LINE
  8
0
 10
209.5
 20
26
 11
209.461
 21
26.6267
  0
LINE
  8
0
 10
209.461
 20
26.6267
 11
209.343
 21
27.2434
  0
LINE
  8
0
 10
209.343
 20
27.2434
 11
209.149
 21
27.8406
  0
LINE
  8
0
 10
209.149
 20
27.8406
 11
208.882
 21
28.4088
  0
LINE
  8
0
 10
208.882
 20
28.4088
 11
208.545
 21
28.9389
  0
LINE
  8
0
 10
208.545
 20
28.9389
 11
208.145
 21
29.4227
  0
LINE
  8
0
 10
208.145
 20
29.4227
 11
207.687
 21
29.8526
  0
LINE
  8
0
 10
207.687
 20
29.8526
 11
207.179
 21
30.2216
  0
LINE
  8
0
 10
207.179
 20
30.2216
 11
206.629
 21
30.5241
  0
LINE
  8
0
 10
206.629
 20
30.5241
 11
206.045
 21
30.7553
  0
LINE
  8
0
 10
206.045
 20
30.7553
 11
205.437
 21
30.9114
  0
LINE
  8
0
 10
205.437
 20
30.9114
 11
204.814
 21
30.9901
  0
LINE
  8
0
 10
204.814
 20
30.9901
 11
-204.814
 21
30.9901
  0
LINE
  8
0
 10
-204.814
 20
30.9901
 11
-205.437
 21
30.9114
  0
LINE
  8
0
 10
-205.437
 20
30.9114
 11
-206.045
 21
30.7553
  0
LINE
  8
0
 10
-206.045
 20
30.7553
 11
-206.629
 21
30.5241
  0
LINE
  8
0
 10
-206.629
 20
30.5241
 11
-207.179
 21
30.2216
  0
LINE
  8
0
 10
-207.179
 20
30.2216
 11
-207.687
 21
29.8526
  0
LINE
  8
0
 10
-207.687
 20
29.8526
 11
-208.145
 21
29.4227
  0
LINE
  8
0
 10
-208.145
 20
29.4227
 11
-208.545
 21
28.9389
  0
LINE
  8
0
 10
-208.545
 20
28.9389
 11
-208.882
 21
28.4088
  0
LINE
  8
0
 10
-208.882
 20
28.4088
 11
-209.149
 21
27.8406
  0
LINE
  8
0
 10
-209.149
 20
27.8406
 11
-209.343
 21
27.2434
  0
LINE
  8
0
 10
-209.343
 20
27.2434
 11
-209.461
 21
26.6267
  0
LINE
  8
0
 10
-209.461
 20
26.6267
 11
-209.5
 21
26
  0
LINE
  8
0
 10
-209.5
 20
26
 11
-209.5
 21
22
  0
LINE
  8
0
 10
-209.5
 20
22
 11
-209.461
 21
21.3733
  0
LINE
  8
0
 10
-209.461
 20
21.3733
 11
-209.343
 21
20.7566
  0
LINE
  8
0
 10
-209.343
 20
20.7566
 11
-209.149
 21
20.1594
  0
LINE
  8
0
 10
-209.149
 20
20.1594
 11
-208.882
 21
19.5912
  0
LINE
  8
0
 10
-208.882
 20
19.5912
 11
-208.545
 21
19.0611
  0
LINE
  8
0
 10
-208.545
 20
19.0611
 11
-208.145
 21
18.5773
  0
LINE
  8
0
 10
-208.145
 20
18.5773
 11
-207.687
 21
18.1474
  0
LINE
  8
0
 10
-207.687
 20
18.1474
 11
-207.179
 21
17.7784
  0
LINE
  8
0
 10
-207.179
 20
17.7784
 11
-206.629
 21
17.4759
  0
LINE
  8
0
 10
-206.629
 20
17.4759
 11
-206.045
 21
17.2447
  0
LINE
  8
0
 10
-206.045
 20
17.2447
 11
-205.437
 21
17.0886
  0
LINE
  8
0
 10
-205.437
 20
17.0886
 11
-204.814
 21
17.0099
  0
LINE
  8
0
 10
-204.814
 20
17.0099
 11
204.814
 21
17.0099
  0
LINE
  8
0
 10
204.814
 20
17.0099
 11
205.437
 21
17.0886
  0
LINE
  8
0
 10
-202.688
 20
21.0059
 11
-203.062
 21
21.0531
  0
LINE
  8
0
 10
-203.062
 20
21.0531
 11
-203.427
 21
21.1468
  0
LINE
  8
0
 10
-203.427
 20
21.1468
 11
-203.777
 21
21.2855
  0
LINE
  8
0
 10
-203.777
 20
21.2855
 11
-204.107
 21
21.467
  0
LINE
  8
0
 10
-204.107
 20
21.467
 11
-204.412
 21
21.6885
  0
LINE
  8
0
 10
-204.412
 20
21.6885
 11
-204.687
 21
21.9464
  0
LINE
  8
0
 10
-204.687
 20
21.9464
 11
-204.927
 21
22.2366
  0
LINE
  8
0
 10
-204.927
 20
22.2366
 11
-205.129
 21
22.5547
  0
LINE
  8
0
 10
-205.129
 20
22.5547
 11
-205.289
 21
22.8956
  0
LINE
  8
0
 10
-205.289
 20
22.8956
 11
-205.406
 21
23.2539
  0
LINE
  8
0
 10
-205.406
 20
23.2539
 11
-205.476
 21
23.624
  0
LINE
  8
0
 10
-205.476
 20
23.624
 11
-205.5
 21
24
  0
LINE
  8
0
 10
-205.5
 20
24
 11
-205.476
 21
24.376
  0
LINE
  8
0
 10
-205.476
 20
24.376
 11
-205.406
 21
24.7461
  0
LINE
  8
0
 10
-205.406
 20
24.7461
 11
-205.289
 21
25.1044
  0
LINE
  8
0
 10
-205.289
 20
25.1044
 11
-205.129
 21
25.4453
  0
LINE
  8
0
 10
-205.129
 20
25.4453
 11
-204.927
 21
25.7634
  0
LINE
  8
0
 10
-204.927
 20
25.7634
 11
-204.687
 21
26.0536
  0
LINE
  8
0
 10
-204.687
 20
26.0536
 11
-204.412
 21
26.3115
  0
LINE
  8
0
 10
-204.412
 20
26.3115
 11
-204.107
 21
26.533
  0
LINE
  8
0
 10
-204.107
 20
26.533
 11
-203.777
 21
26.7145
  0
LINE
  8
0
 10
-203.777
 20
26.7145
 11
-203.427
 21
26.8532
  0
LINE
  8
0
 10
-203.427
 20
26.8532
 11
-203.062
 21
26.9469
  0
LINE
  8
0
 10
-203.062
 20
26.9469
 11
-202.688
 21
26.9941
  0
LINE
  8
0
 10
-202.688
 20
26.9941
 11
-202.312
 21
26.9941
  0
LINE
  8
0
 10
-202.312
 20
26.9941
 11
-201.938
 21
26.9469
  0
LINE
  8
0
 10
-201.938
 20
26.9469
 11
-201.573
 21
26.8532
  0
LINE
  8
0
 10
-201.573
 20
26.8532
 11
-201.223
 21
26.7145
  0
LINE
  8
0
 10
-201.223
 20
26.7145
 11
-200.893
 21
26.533
  0
LINE
  8
0
 10
-200.893
 20
26.533
 11
-200.588
 21
26.3115
  0
LINE
  8
0
 10
-200.588
 20
26.3115
 11
-200.313
 21
26.0536
  0
LINE
  8
0
 10
-200.313
 20
26.0536
 11
-200.073
 21
25.7634
  0
LINE
  8
0
 10
-200.073
 20
25.7634
 11
-199.871
 21
25.4453
  0
LINE
  8
0
 10
-199.871
 20
25.4453
 11
-199.711
 21
25.1044
  0
LINE
  8
0
 10
-199.711
 20
25.1044
 11
-199.594
 21
24.7461
  0
LINE
  8
0
 10
-199.594
 20
24.7461
 11
-199.524
 21
24.376
  0
LINE
  8
0
 10
-199.524
 20
24.376
 11
-199.5
 21
24
  0
LINE
  8
0
 10
-199.5
 20
24
 11
-199.524
 21
23.624
  0
LINE
  8
0
 10
-199.524
 20
23.624
 11
-199.594
 21
23.2539
  0
LINE
  8
0
 10
-199.594
 20
23.2539
 11
-199.711
 21
22.8956
  0
LINE
  8
0
 10
-199.711
 20
22.8956
 11
-199.871
 21
22.5547
  0
LINE
  8
0
 10
-199.871
 20
22.5547
 11
-200.073
 21
22.2366
  0
LINE
  8
0
 10
-200.073
 20
22.2366
 11
-200.313
 21
21.9464
  0
LINE
  8
0
 10
-200.313
 20
21.9464
 11
-200.588
 21
21.6885
  0
LINE
  8
0
 10
-200.588
 20
21.6885
 11
-200.893
 21
21.467
  0
LINE
  8
0
 10
-200.893
 20
21.467
 11
-201.223
 21
21.2855
  0
LINE
  8
0
 10
-201.223
 20
21.2855
 11
-201.573
 21
21.1468
  0
LINE
  8
0
 10
-201.573
 20
21.1468
 11
-201.938
 21
21.0531
  0
LINE
  8
0
 10
-201.938
 20
21.0531
 11
-202.312
 21
21.0059
  0
LINE
  8
0
 10
-202.312
 20
21.0059
 11
-202.688
 21
21.0059
  0
ENDSEC
  0
SECTION
  2
OBJECTS
  0
DICTIONARY
  0
ENDSEC
  0
EOF
