  0
SECTION
  2
BLOCKS
  0
ENDSEC
  0
SECTION
  2
ENTITIES
  0
LINE
  8
0
 10
10.4369
 20
137.089
 11
11.0451
 21
137.245
  0
LINE
  8
0
 10
11.0451
 20
137.245
 11
11.6289
 21
137.476
  0
LINE
  8
0
 10
11.6289
 20
137.476
 11
12.1791
 21
137.778
  0
LINE
  8
0
 10
12.1791
 20
137.778
 11
12.6871
 21
138.147
  0
LINE
  8
0
 10
12.6871
 20
138.147
 11
13.1448
 21
138.577
  0
LINE
  8
0
 10
13.1448
 20
138.577
 11
13.5451
 21
139.061
  0
LINE
  8
0
 10
13.5451
 20
139.061
 11
13.8815
 21
139.591
  0
LINE
  8
0
 10
13.8815
 20
139.591
 11
14.1489
 21
140.159
  0
LINE
  8
0
 10
14.1489
 20
140.159
 11
14.3429
 21
140.757
  0
LINE
  8
0
 10
14.3429
 20
140.757
 11
14.4606
 21
141.373
  0
LINE
  8
0
 10
14.4606
 20
141.373
 11
14.5
 21
142
  0
LINE
  8
0
 10
14.5
 20
142
 11
14.5
 21
146
  0
LINE
  8
0
 10
14.5
 20
146
 11
14.4606
 21
146.627
  0
LINE
  8
0
 10
14.4606
 20
146.627
 11
14.3429
 21
147.243
  0
LINE
  8
0
 10
14.3429
 20
147.243
 11
14.1489
 21
147.841
  0
LINE
  8
0
 10
14.1489
 20
147.841
 11
13.8815
 21
148.409
  0
LINE
  8
0
 10
13.8815
 20
148.409
 11
13.5451
 21
148.939
  0
LINE
  8
0
 10
13.5451
 20
148.939
 11
13.1448
 21
149.423
  0
LINE
  8
0
 10
13.1448
 20
149.423
 11
12.6871
 21
149.853
  0
LINE
  8
0
 10
12.6871
 20
149.853
 11
12.1791
 21
150.222
  0
LINE
  8
0
 10
12.1791
 20
150.222
 11
11.6289
 21
150.524
  0
LINE
  8
0
 10
11.6289
 20
150.524
 11
11.0451
 21
150.755
  0
LINE
  8
0
 10
11.0451
 20
150.755
 11
10.4369
 21
150.911
  0
LINE
  8
0
 10
10.4369
 20
150.911
 11
9.81395
 21
150.99
  0
LINE
  8
0
 10
9.81395
 20
150.99
 11
-9.81395
 21
150.99
  0
LINE
  8
0
 10
-9.81395
 20
150.99
 11
-10.4369
 21
150.911
  0
LINE
  8
0
 10
-10.4369
 20
150.911
 11
-11.0451
 21
150.755
  0
LINE
  8
0
 10
-11.0451
 20
150.755
 11
-11.6289
 21
150.524
  0
LINE
  8
0
 10
-11.6289
 20
150.524
 11
-12.1791
 21
150.222
  0
LINE
  8
0
 10
-12.1791
 20
150.222
 11
-12.6871
 21
149.853
  0
LINE
  8
0
 10
-12.6871
 20
149.853
 11
-13.1448
 21
149.423
  0
LINE
  8
0
 10
-13.1448
 20
149.423
 11
-13.5451
 21
148.939
  0
LINE
  8
0
 10
-13.5451
 20
148.939
 11
-13.8815
 21
148.409
  0
LINE
  8
0
 10
-13.8815
 20
148.409
 11
-14.1489
 21
147.841
  0
LINE
  8
0
 10
-14.1489
 20
147.841
 11
-14.3429
 21
147.243
  0
LINE
  8
0
 10
-14.3429
 20
147.243
 11
-14.4606
 21
146.627
  0
LINE
  8
0
 10
-14.4606
 20
146.627
 11
-14.5
 21
146
  0
LINE
  8
0
 10
-14.5
 20
146
 11
-14.5
 21
142
  0
LINE
  8
0
 10
-14.5
 20
142
 11
-14.4606
 21
141.373
  0
LINE
  8
0
 10
-14.4606
 20
141.373
 11
-14.3429
 21
140.757
  0
LINE
  8
0
 10
-14.3429
 20
140.757
 11
-14.1489
 21
140.159
  0
LINE
  8
0
 10
-14.1489
 20
140.159
 11
-13.8815
 21
139.591
  0
LINE
  8
0
 10
-13.8815
 20
139.591
 11
-13.5451
 21
139.061
  0
LINE
  8
0
 10
-13.5451
 20
139.061
 11
-13.1448
 21
138.577
  0
LINE
  8
0
 10
-13.1448
 20
138.577
 11
-12.6871
 21
138.147
  0
LINE
  8
0
 10
-12.6871
 20
138.147
 11
-12.1791
 21
137.778
  0
LINE
  8
0
 10
-12.1791
 20
137.778
 11
-11.6289
 21
137.476
  0
LINE
  8
0
 10
-11.6289
 20
137.476
 11
-11.0451
 21
137.245
  0
LINE
  8
0
 10
-11.0451
 20
137.245
 11
-10.4369
 21
137.089
  0
LINE
  8
0
 10
-10.4369
 20
137.089
 11
-9.81395
 21
137.01
  0
LINE
  8
0
 10
-9.81395
 20
137.01
 11
9.81395
 21
137.01
  0
LINE
  8
0
 10
9.81395
 20
137.01
 11
10.4369
 21
137.089
  0
LINE
  8
0
 10
7.40581
 20
142.503
 11
7.21892
 21
142.527
  0
LINE
  8
0
 10
7.21892
 20
142.527
 11
7.03647
 21
142.573
  0
LINE
  8
0
 10
7.03647
 20
142.573
 11
6.86133
 21
142.643
  0
LINE
  8
0
 10
6.86133
 20
142.643
 11
6.69626
 21
142.734
  0
LINE
  8
0
 10
6.69626
 20
142.734
 11
6.54385
 21
142.844
  0
LINE
  8
0
 10
6.54385
 20
142.844
 11
6.40654
 21
142.973
  0
LINE
  8
0
 10
6.40654
 20
142.973
 11
6.28647
 21
143.118
  0
LINE
  8
0
 10
6.28647
 20
143.118
 11
6.18553
 21
143.277
  0
LINE
  8
0
 10
6.18553
 20
143.277
 11
6.10533
 21
143.448
  0
LINE
  8
0
 10
6.10533
 20
143.448
 11
6.04712
 21
143.627
  0
LINE
  8
0
 10
6.04712
 20
143.627
 11
6.01183
 21
143.812
  0
LINE
  8
0
 10
6.01183
 20
143.812
 11
6
 21
144
  0
LINE
  8
0
 10
6
 20
144
 11
6.01183
 21
144.188
  0
LINE
  8
0
 10
6.01183
 20
144.188
 11
6.04712
 21
144.373
  0
LINE
  8
0
 10
6.04712
 20
144.373
 11
6.10533
 21
144.552
  0
LINE
  8
0
 10
6.10533
 20
144.552
 11
6.18553
 21
144.723
  0
LINE
  8
0
 10
6.18553
 20
144.723
 11
6.28647
 21
144.882
  0
LINE
  8
0
 10
6.28647
 20
144.882
 11
6.40654
 21
145.027
  0
LINE
  8
0
 10
6.40654
 20
145.027
 11
6.54385
 21
145.156
  0
LINE
  8
0
 10
6.54385
 20
145.156
 11
6.69626
 21
145.266
  0
LINE
  8
0
 10
6.69626
 20
145.266
 11
6.86133
 21
145.357
  0
LINE
  8
0
 10
6.86133
 20
145.357
 11
7.03647
 21
145.427
  0
LINE
  8
0
 10
7.03647
 20
145.427
 11
7.21892
 21
145.473
  0
LINE
  8
0
 10
7.21892
 20
145.473
 11
7.40581
 21
145.497
  0
LINE
  8
0
 10
7.40581
 20
145.497
 11
7.59418
 21
145.497
  0
LINE
  8
0
 10
7.59418
 20
145.497
 11
7.78107
 21
145.473
  0
LINE
  8
0
 10
7.78107
 20
145.473
 11
7.96352
 21
145.427
  0
LINE
  8
0
 10
7.96352
 20
145.427
 11
8.13866
 21
145.357
  0
LINE
  8
0
 10
8.13866
 20
145.357
 11
8.30373
 21
145.266
  0
LINE
  8
0
 10
8.30373
 20
145.266
 11
8.45613
 21
145.156
  0
LINE
  8
0
 10
8.45613
 20
145.156
 11
8.59344
 21
145.027
  0
LINE
  8
0
 10
8.59344
 20
145.027
 11
8.71352
 21
144.882
  0
LINE
  8
0
 10
8.71352
 20
144.882
 11
8.81445
 21
144.723
  0
LINE
  8
0
 10
8.81445
 20
144.723
 11
8.89465
 21
144.552
  0
LINE
  8
0
 10
8.89465
 20
144.552
 11
8.95287
 21
144.373
  0
LINE
  8
0
 10
8.95287
 20
144.373
 11
8.98816
 21
144.188
  0
LINE
  8
0
 10
8.98816
 20
144.188
 11
9
 21
144
  0
LINE
  8
0
 10
9
 20
144
 11
8.98816
 21
143.812
  0
LINE
  8
0
 10
8.98816
 20
143.812
 11
8.95287
 21
143.627
  0
LINE
  8
0
 10
8.95287
 20
143.627
 11
8.89465
 21
143.448
  0
LINE
  8
0
 10
8.89465
 20
143.448
 11
8.81445
 21
143.277
  0
LINE
  8
0
 10
8.81445
 20
143.277
 11
8.71352
 21
143.118
  0
LINE
  8
0
 10
8.71352
 20
143.118
 11
8.59344
 21
142.973
  0
LINE
  8
0
 10
8.59344
 20
142.973
 11
8.45613
 21
142.844
  0
LINE
  8
0
 10
8.45613
 20
142.844
 11
8.30373
 21
142.734
  0
LINE
  8
0
 10
8.30373
 20
142.734
 11
8.13866
 21
142.643
  0
LINE
  8
0
 10
8.13866
 20
142.643
 11
7.96352
 21
142.573
  0
LINE
  8
0
 10
7.96352
 20
142.573
 11
7.78107
 21
142.527
  0
LINE
  8
0
 10
7.78107
 20
142.527
 11
7.59418
 21
142.503
  0
LINE
  8
0
 10
7.59418
 20
142.503
 11
7.40581
 21
142.503
  0
LINE
  8
0
 10
-0.0941772
 20
142.503
 11
-0.281067
 21
142.527
  0
LINE
  8
0
 10
-0.281067
 20
142.527
 11
-0.463516
 21
142.573
  0
LINE
  8
0
 10
-0.463516
 20
142.573
 11
-0.638657
 21
142.643
  0
LINE
  8
0
 10
-0.638657
 20
142.643
 11
-0.803726
 21
142.734
  0
LINE
  8
0
 10
-0.803726
 20
142.734
 11
-0.956131
 21
142.844
  0
LINE
  8
0
 10
-0.956131
 20
142.844
 11
-1.09344
 21
142.973
  0
LINE
  8
0
 10
-1.09344
 20
142.973
 11
-1.21352
 21
143.118
  0
LINE
  8
0
 10
-1.21352
 20
143.118
 11
-1.31445
 21
143.277
  0
LINE
  8
0
 10
-1.31445
 20
143.277
 11
-1.39465
 21
143.448
  0
LINE
  8
0
 10
-1.39465
 20
143.448
 11
-1.45287
 21
143.627
  0
LINE
  8
0
 10
-1.45287
 20
143.627
 11
-1.48816
 21
143.812
  0
LINE
  8
0
 10
-1.48816
 20
143.812
 11
-1.5
 21
144
  0
LINE
  8
0
 10
-1.5
 20
144
 11
-1.48816
 21
144.188
  0
LINE
  8
0
 10
-1.48816
 20
144.188
 11
-1.45287
 21
144.373
  0
LINE
  8
0
 10
-1.45287
 20
144.373
 11
-1.39465
 21
144.552
  0
LINE
  8
0
 10
-1.39465
 20
144.552
 11
-1.31445
 21
144.723
  0
LINE
  8
0
 10
-1.31445
 20
144.723
 11
-1.21352
 21
144.882
  0
LINE
  8
0
 10
-1.21352
 20
144.882
 11
-1.09344
 21
145.027
  0
LINE
  8
0
 10
-1.09344
 20
145.027
 11
-0.956131
 21
145.156
  0
LINE
  8
0
 10
-0.956131
 20
145.156
 11
-0.803726
 21
145.266
  0
LINE
  8
0
 10
-0.803726
 20
145.266
 11
-0.638657
 21
145.357
  0
LINE
  8
0
 10
-0.638657
 20
145.357
 11
-0.463516
 21
145.427
  0
LINE
  8
0
 10
-0.463516
 20
145.427
 11
-0.281067
 21
145.473
  0
LINE
  8
0
 10
-0.281067
 20
145.473
 11
-0.0941772
 21
145.497
  0
LINE
  8
0
 10
-0.0941772
 20
145.497
 11
0.0941772
 21
145.497
  0
LINE
  8
0
 10
0.0941772
 20
145.497
 11
0.281067
 21
145.473
  0
LINE
  8
0
 10
0.281067
 20
145.473
 11
0.463516
 21
145.427
  0
LINE
  8
0
 10
0.463516
 20
145.427
 11
0.638657
 21
145.357
  0
LINE
  8
0
 10
0.638657
 20
145.357
 11
0.803726
 21
145.266
  0
LINE
  8
0
 10
0.803726
 20
145.266
 11
0.956131
 21
145.156
  0
LINE
  8
0
 10
0.956131
 20
145.156
 11
1.09344
 21
145.027
  0
LINE
  8
0
 10
1.09344
 20
145.027
 11
1.21352
 21
144.882
  0
LINE
  8
0
 10
1.21352
 20
144.882
 11
1.31445
 21
144.723
  0
LINE
  8
0
 10
1.31445
 20
144.723
 11
1.39465
 21
144.552
  0
LINE
  8
0
 10
1.39465
 20
144.552
 11
1.45287
 21
144.373
  0
LINE
  8
0
 10
1.45287
 20
144.373
 11
1.48816
 21
144.188
  0
LINE
  8
0
 10
1.48816
 20
144.188
 11
1.5
 21
144
  0
LINE
  8
0
 10
1.5
 20
144
 11
1.48816
 21
143.812
  0
LINE
  8
0
 10
1.48816
 20
143.812
 11
1.45287
 21
143.627
  0
LINE
  8
0
 10
1.45287
 20
143.627
 11
1.39465
 21
143.448
  0
LINE
  8
0
 10
1.39465
 20
143.448
 11
1.31445
 21
143.277
  0
LINE
  8
0
 10
1.31445
 20
143.277
 11
1.21352
 21
143.118
  0
LINE
  8
0
 10
1.21352
 20
143.118
 11
1.09344
 21
142.973
  0
LINE
  8
0
 10
1.09344
 20
142.973
 11
0.956131
 21
142.844
  0
LINE
  8
0
 10
0.956131
 20
142.844
 11
0.803726
 21
142.734
  0
LINE
  8
0
 10
0.803726
 20
142.734
 11
0.638657
 21
142.643
  0
LINE
  8
0
 10
0.638657
 20
142.643
 11
0.463516
 21
142.573
  0
LINE
  8
0
 10
0.463516
 20
142.573
 11
0.281067
 21
142.527
  0
LINE
  8
0
 10
0.281067
 20
142.527
 11
0.0941772
 21
142.503
  0
LINE
  8
0
 10
0.0941772
 20
142.503
 11
-0.0941772
 21
142.503
  0
LINE
  8
0
 10
-7.59418
 20
142.503
 11
-7.78107
 21
142.527
  0
LINE
  8
0
 10
-7.78107
 20
142.527
 11
-7.96352
 21
142.573
  0
LINE
  8
0
 10
-7.96352
 20
142.573
 11
-8.13866
 21
142.643
  0
LINE
  8
0
 10
-8.13866
 20
142.643
 11
-8.30373
 21
142.734
  0
LINE
  8
0
 10
-8.30373
 20
142.734
 11
-8.45613
 21
142.844
  0
LINE
  8
0
 10
-8.45613
 20
142.844
 11
-8.59344
 21
142.973
  0
LINE
  8
0
 10
-8.59344
 20
142.973
 11
-8.71352
 21
143.118
  0
LINE
  8
0
 10
-8.71352
 20
143.118
 11
-8.81445
 21
143.277
  0
LINE
  8
0
 10
-8.81445
 20
143.277
 11
-8.89465
 21
143.448
  0
LINE
  8
0
 10
-8.89465
 20
143.448
 11
-8.95287
 21
143.627
  0
LINE
  8
0
 10
-8.95287
 20
143.627
 11
-8.98816
 21
143.812
  0
LINE
  8
0
 10
-8.98816
 20
143.812
 11
-9
 21
144
  0
LINE
  8
0
 10
-9
 20
144
 11
-8.98816
 21
144.188
  0
LINE
  8
0
 10
-8.98816
 20
144.188
 11
-8.95287
 21
144.373
  0
LINE
  8
0
 10
-8.95287
 20
144.373
 11
-8.89465
 21
144.552
  0
LINE
  8
0
 10
-8.89465
 20
144.552
 11
-8.81445
 21
144.723
  0
LINE
  8
0
 10
-8.81445
 20
144.723
 11
-8.71352
 21
144.882
  0
LINE
  8
0
 10
-8.71352
 20
144.882
 11
-8.59344
 21
145.027
  0
LINE
  8
0
 10
-8.59344
 20
145.027
 11
-8.45613
 21
145.156
  0
LINE
  8
0
 10
-8.45613
 20
145.156
 11
-8.30373
 21
145.266
  0
LINE
  8
0
 10
-8.30373
 20
145.266
 11
-8.13866
 21
145.357
  0
LINE
  8
0
 10
-8.13866
 20
145.357
 11
-7.96352
 21
145.427
  0
LINE
  8
0
 10
-7.96352
 20
145.427
 11
-7.78107
 21
145.473
  0
LINE
  8
0
 10
-7.78107
 20
145.473
 11
-7.59418
 21
145.497
  0
LINE
  8
0
 10
-7.59418
 20
145.497
 11
-7.40581
 21
145.497
  0
LINE
  8
0
 10
-7.40581
 20
145.497
 11
-7.21892
 21
145.473
  0
LINE
  8
0
 10
-7.21892
 20
145.473
 11
-7.03647
 21
145.427
  0
LINE
  8
0
 10
-7.03647
 20
145.427
 11
-6.86133
 21
145.357
  0
LINE
  8
0
 10
-6.86133
 20
145.357
 11
-6.69626
 21
145.266
  0
LINE
  8
0
 10
-6.69626
 20
145.266
 11
-6.54385
 21
145.156
  0
LINE
  8
0
 10
-6.54385
 20
145.156
 11
-6.40654
 21
145.027
  0
LINE
  8
0
 10
-6.40654
 20
145.027
 11
-6.28647
 21
144.882
  0
LINE
  8
0
 10
-6.28647
 20
144.882
 11
-6.18553
 21
144.723
  0
LINE
  8
0
 10
-6.18553
 20
144.723
 11
-6.10533
 21
144.552
  0
LINE
  8
0
 10
-6.10533
 20
144.552
 11
-6.04712
 21
144.373
  0
LINE
  8
0
 10
-6.04712
 20
144.373
 11
-6.01183
 21
144.188
  0
LINE
  8
0
 10
-6.01183
 20
144.188
 11
-6
 21
144
  0
LINE
  8
0
 10
-6
 20
144
 11
-6.01183
 21
143.812
  0
LINE
  8
0
 10
-6.01183
 20
143.812
 11
-6.04712
 21
143.627
  0
LINE
  8
0
 10
-6.04712
 20
143.627
 11
-6.10533
 21
143.448
  0
LINE
  8
0
 10
-6.10533
 20
143.448
 11
-6.18553
 21
143.277
  0
LINE
  8
0
 10
-6.18553
 20
143.277
 11
-6.28647
 21
143.118
  0
LINE
  8
0
 10
-6.28647
 20
143.118
 11
-6.40654
 21
142.973
  0
LINE
  8
0
 10
-6.40654
 20
142.973
 11
-6.54385
 21
142.844
  0
LINE
  8
0
 10
-6.54385
 20
142.844
 11
-6.69626
 21
142.734
  0
LINE
  8
0
 10
-6.69626
 20
142.734
 11
-6.86133
 21
142.643
  0
LINE
  8
0
 10
-6.86133
 20
142.643
 11
-7.03647
 21
142.573
  0
LINE
  8
0
 10
-7.03647
 20
142.573
 11
-7.21892
 21
142.527
  0
LINE
  8
0
 10
-7.21892
 20
142.527
 11
-7.40581
 21
142.503
  0
LINE
  8
0
 10
-7.40581
 20
142.503
 11
-7.59418
 21
142.503
  0
LINE
  8
0
 10
10.4369
 20
113.089
 11
11.0451
 21
113.245
  0
LINE
  8
0
 10
11.0451
 20
113.245
 11
11.6289
 21
113.476
  0
LINE
  8
0
 10
11.6289
 20
113.476
 11
12.1791
 21
113.778
  0
LINE
  8
0
 10
12.1791
 20
113.778
 11
12.6871
 21
114.147
  0
LINE
  8
0
 10
12.6871
 20
114.147
 11
13.1448
 21
114.577
  0
LINE
  8
0
 10
13.1448
 20
114.577
 11
13.5451
 21
115.061
  0
LINE
  8
0
 10
13.5451
 20
115.061
 11
13.8815
 21
115.591
  0
LINE
  8
0
 10
13.8815
 20
115.591
 11
14.1489
 21
116.159
  0
LINE
  8
0
 10
14.1489
 20
116.159
 11
14.3429
 21
116.757
  0
LINE
  8
0
 10
14.3429
 20
116.757
 11
14.4606
 21
117.373
  0
LINE
  8
0
 10
14.4606
 20
117.373
 11
14.5
 21
118
  0
LINE
  8
0
 10
14.5
 20
118
 11
14.5
 21
122
  0
LINE
  8
0
 10
14.5
 20
122
 11
14.4606
 21
122.627
  0
LINE
  8
0
 10
14.4606
 20
122.627
 11
14.3429
 21
123.243
  0
LINE
  8
0
 10
14.3429
 20
123.243
 11
14.1489
 21
123.841
  0
LINE
  8
0
 10
14.1489
 20
123.841
 11
13.8815
 21
124.409
  0
LINE
  8
0
 10
13.8815
 20
124.409
 11
13.5451
 21
124.939
  0
LINE
  8
0
 10
13.5451
 20
124.939
 11
13.1448
 21
125.423
  0
LINE
  8
0
 10
13.1448
 20
125.423
 11
12.6871
 21
125.853
  0
LINE
  8
0
 10
12.6871
 20
125.853
 11
12.1791
 21
126.222
  0
LINE
  8
0
 10
12.1791
 20
126.222
 11
11.6289
 21
126.524
  0
LINE
  8
0
 10
11.6289
 20
126.524
 11
11.0451
 21
126.755
  0
LINE
  8
0
 10
11.0451
 20
126.755
 11
10.4369
 21
126.911
  0
LINE
  8
0
 10
10.4369
 20
126.911
 11
9.81395
 21
126.99
  0
LINE
  8
0
 10
9.81395
 20
126.99
 11
-9.81395
 21
126.99
  0
LINE
  8
0
 10
-9.81395
 20
126.99
 11
-10.4369
 21
126.911
  0
LINE
  8
0
 10
-10.4369
 20
126.911
 11
-11.0451
 21
126.755
  0
LINE
  8
0
 10
-11.0451
 20
126.755
 11
-11.6289
 21
126.524
  0
LINE
  8
0
 10
-11.6289
 20
126.524
 11
-12.1791
 21
126.222
  0
LINE
  8
0
 10
-12.1791
 20
126.222
 11
-12.6871
 21
125.853
  0
LINE
  8
0
 10
-12.6871
 20
125.853
 11
-13.1448
 21
125.423
  0
LINE
  8
0
 10
-13.1448
 20
125.423
 11
-13.5451
 21
124.939
  0
LINE
  8
0
 10
-13.5451
 20
124.939
 11
-13.8815
 21
124.409
  0
LINE
  8
0
 10
-13.8815
 20
124.409
 11
-14.1489
 21
123.841
  0
LINE
  8
0
 10
-14.1489
 20
123.841
 11
-14.3429
 21
123.243
  0
LINE
  8
0
 10
-14.3429
 20
123.243
 11
-14.4606
 21
122.627
  0
LINE
  8
0
 10
-14.4606
 20
122.627
 11
-14.5
 21
122
  0
LINE
  8
0
 10
-14.5
 20
122
 11
-14.5
 21
118
  0
LINE
  8
0
 10
-14.5
 20
118
 11
-14.4606
 21
117.373
  0
LINE
  8
0
 10
-14.4606
 20
117.373
 11
-14.3429
 21
116.757
  0
LINE
  8
0
 10
-14.3429
 20
116.757
 11
-14.1489
 21
116.159
  0
LINE
  8
0
 10
-14.1489
 20
116.159
 11
-13.8815
 21
115.591
  0
LINE
  8
0
 10
-13.8815
 20
115.591
 11
-13.5451
 21
115.061
  0
LINE
  8
0
 10
-13.5451
 20
115.061
 11
-13.1448
 21
114.577
  0
LINE
  8
0
 10
-13.1448
 20
114.577
 11
-12.6871
 21
114.147
  0
LINE
  8
0
 10
-12.6871
 20
114.147
 11
-12.1791
 21
113.778
  0
LINE
  8
0
 10
-12.1791
 20
113.778
 11
-11.6289
 21
113.476
  0
LINE
  8
0
 10
-11.6289
 20
113.476
 11
-11.0451
 21
113.245
  0
LINE
  8
0
 10
-11.0451
 20
113.245
 11
-10.4369
 21
113.089
  0
LINE
  8
0
 10
-10.4369
 20
113.089
 11
-9.81395
 21
113.01
  0
LINE
  8
0
 10
-9.81395
 20
113.01
 11
9.81395
 21
113.01
  0
LINE
  8
0
 10
9.81395
 20
113.01
 11
10.4369
 21
113.089
  0
LINE
  8
0
 10
7.40581
 20
118.503
 11
7.21892
 21
118.527
  0
LINE
  8
0
 10
7.21892
 20
118.527
 11
7.03647
 21
118.573
  0
LINE
  8
0
 10
7.03647
 20
118.573
 11
6.86133
 21
118.643
  0
LINE
  8
0
 10
6.86133
 20
118.643
 11
6.69626
 21
118.734
  0
LINE
  8
0
 10
6.69626
 20
118.734
 11
6.54385
 21
118.844
  0
LINE
  8
0
 10
6.54385
 20
118.844
 11
6.40654
 21
118.973
  0
LINE
  8
0
 10
6.40654
 20
118.973
 11
6.28647
 21
119.118
  0
LINE
  8
0
 10
6.28647
 20
119.118
 11
6.18553
 21
119.277
  0
LINE
  8
0
 10
6.18553
 20
119.277
 11
6.10533
 21
119.448
  0
LINE
  8
0
 10
6.10533
 20
119.448
 11
6.04712
 21
119.627
  0
LINE
  8
0
 10
6.04712
 20
119.627
 11
6.01183
 21
119.812
  0
LINE
  8
0
 10
6.01183
 20
119.812
 11
6
 21
120
  0
LINE
  8
0
 10
6
 20
120
 11
6.01183
 21
120.188
  0
LINE
  8
0
 10
6.01183
 20
120.188
 11
6.04712
 21
120.373
  0
LINE
  8
0
 10
6.04712
 20
120.373
 11
6.10533
 21
120.552
  0
LINE
  8
0
 10
6.10533
 20
120.552
 11
6.18553
 21
120.723
  0
LINE
  8
0
 10
6.18553
 20
120.723
 11
6.28647
 21
120.882
  0
LINE
  8
0
 10
6.28647
 20
120.882
 11
6.40654
 21
121.027
  0
LINE
  8
0
 10
6.40654
 20
121.027
 11
6.54385
 21
121.156
  0
LINE
  8
0
 10
6.54385
 20
121.156
 11
6.69626
 21
121.266
  0
LINE
  8
0
 10
6.69626
 20
121.266
 11
6.86133
 21
121.357
  0
LINE
  8
0
 10
6.86133
 20
121.357
 11
7.03647
 21
121.427
  0
LINE
  8
0
 10
7.03647
 20
121.427
 11
7.21892
 21
121.473
  0
LINE
  8
0
 10
7.21892
 20
121.473
 11
7.40581
 21
121.497
  0
LINE
  8
0
 10
7.40581
 20
121.497
 11
7.59418
 21
121.497
  0
LINE
  8
0
 10
7.59418
 20
121.497
 11
7.78107
 21
121.473
  0
LINE
  8
0
 10
7.78107
 20
121.473
 11
7.96352
 21
121.427
  0
LINE
  8
0
 10
7.96352
 20
121.427
 11
8.13866
 21
121.357
  0
LINE
  8
0
 10
8.13866
 20
121.357
 11
8.30373
 21
121.266
  0
LINE
  8
0
 10
8.30373
 20
121.266
 11
8.45613
 21
121.156
  0
LINE
  8
0
 10
8.45613
 20
121.156
 11
8.59344
 21
121.027
  0
LINE
  8
0
 10
8.59344
 20
121.027
 11
8.71352
 21
120.882
  0
LINE
  8
0
 10
8.71352
 20
120.882
 11
8.81445
 21
120.723
  0
LINE
  8
0
 10
8.81445
 20
120.723
 11
8.89465
 21
120.552
  0
LINE
  8
0
 10
8.89465
 20
120.552
 11
8.95287
 21
120.373
  0
LINE
  8
0
 10
8.95287
 20
120.373
 11
8.98816
 21
120.188
  0
LINE
  8
0
 10
8.98816
 20
120.188
 11
9
 21
120
  0
LINE
  8
0
 10
9
 20
120
 11
8.98816
 21
119.812
  0
LINE
  8
0
 10
8.98816
 20
119.812
 11
8.95287
 21
119.627
  0
LINE
  8
0
 10
8.95287
 20
119.627
 11
8.89465
 21
119.448
  0
LINE
  8
0
 10
8.89465
 20
119.448
 11
8.81445
 21
119.277
  0
LINE
  8
0
 10
8.81445
 20
119.277
 11
8.71352
 21
119.118
  0
LINE
  8
0
 10
8.71352
 20
119.118
 11
8.59344
 21
118.973
  0
LINE
  8
0
 10
8.59344
 20
118.973
 11
8.45613
 21
118.844
  0
LINE
  8
0
 10
8.45613
 20
118.844
 11
8.30373
 21
118.734
  0
LINE
  8
0
 10
8.30373
 20
118.734
 11
8.13866
 21
118.643
  0
LINE
  8
0
 10
8.13866
 20
118.643
 11
7.96352
 21
118.573
  0
LINE
  8
0
 10
7.96352
 20
118.573
 11
7.78107
 21
118.527
  0
LINE
  8
0
 10
7.78107
 20
118.527
 11
7.59418
 21
118.503
  0
LINE
  8
0
 10
7.59418
 20
118.503
 11
7.40581
 21
118.503
  0
LINE
  8
0
 10
-0.0941772
 20
118.503
 11
-0.281067
 21
118.527
  0
LINE
  8
0
 10
-0.281067
 20
118.527
 11
-0.463516
 21
118.573
  0
LINE
  8
0
 10
-0.463516
 20
118.573
 11
-0.638657
 21
118.643
  0
LINE
  8
0
 10
-0.638657
 20
118.643
 11
-0.803726
 21
118.734
  0
LINE
  8
0
 10
-0.803726
 20
118.734
 11
-0.956131
 21
118.844
  0
LINE
  8
0
 10
-0.956131
 20
118.844
 11
-1.09344
 21
118.973
  0
LINE
  8
0
 10
-1.09344
 20
118.973
 11
-1.21352
 21
119.118
  0
LINE
  8
0
 10
-1.21352
 20
119.118
 11
-1.31445
 21
119.277
  0
LINE
  8
0
 10
-1.31445
 20
119.277
 11
-1.39465
 21
119.448
  0
LINE
  8
0
 10
-1.39465
 20
119.448
 11
-1.45287
 21
119.627
  0
LINE
  8
0
 10
-1.45287
 20
119.627
 11
-1.48816
 21
119.812
  0
LINE
  8
0
 10
-1.48816
 20
119.812
 11
-1.5
 21
120
  0
LINE
  8
0
 10
-1.5
 20
120
 11
-1.48816
 21
120.188
  0
LINE
  8
0
 10
-1.48816
 20
120.188
 11
-1.45287
 21
120.373
  0
LINE
  8
0
 10
-1.45287
 20
120.373
 11
-1.39465
 21
120.552
  0
LINE
  8
0
 10
-1.39465
 20
120.552
 11
-1.31445
 21
120.723
  0
LINE
  8
0
 10
-1.31445
 20
120.723
 11
-1.21352
 21
120.882
  0
LINE
  8
0
 10
-1.21352
 20
120.882
 11
-1.09344
 21
121.027
  0
LINE
  8
0
 10
-1.09344
 20
121.027
 11
-0.956131
 21
121.156
  0
LINE
  8
0
 10
-0.956131
 20
121.156
 11
-0.803726
 21
121.266
  0
LINE
  8
0
 10
-0.803726
 20
121.266
 11
-0.638657
 21
121.357
  0
LINE
  8
0
 10
-0.638657
 20
121.357
 11
-0.463516
 21
121.427
  0
LINE
  8
0
 10
-0.463516
 20
121.427
 11
-0.281067
 21
121.473
  0
LINE
  8
0
 10
-0.281067
 20
121.473
 11
-0.0941772
 21
121.497
  0
LINE
  8
0
 10
-0.0941772
 20
121.497
 11
0.0941772
 21
121.497
  0
LINE
  8
0
 10
0.0941772
 20
121.497
 11
0.281067
 21
121.473
  0
LINE
  8
0
 10
0.281067
 20
121.473
 11
0.463516
 21
121.427
  0
LINE
  8
0
 10
0.463516
 20
121.427
 11
0.638657
 21
121.357
  0
LINE
  8
0
 10
0.638657
 20
121.357
 11
0.803726
 21
121.266
  0
LINE
  8
0
 10
0.803726
 20
121.266
 11
0.956131
 21
121.156
  0
LINE
  8
0
 10
0.956131
 20
121.156
 11
1.09344
 21
121.027
  0
LINE
  8
0
 10
1.09344
 20
121.027
 11
1.21352
 21
120.882
  0
LINE
  8
0
 10
1.21352
 20
120.882
 11
1.31445
 21
120.723
  0
LINE
  8
0
 10
1.31445
 20
120.723
 11
1.39465
 21
120.552
  0
LINE
  8
0
 10
1.39465
 20
120.552
 11
1.45287
 21
120.373
  0
LINE
  8
0
 10
1.45287
 20
120.373
 11
1.48816
 21
120.188
  0
LINE
  8
0
 10
1.48816
 20
120.188
 11
1.5
 21
120
  0
LINE
  8
0
 10
1.5
 20
120
 11
1.48816
 21
119.812
  0
LINE
  8
0
 10
1.48816
 20
119.812
 11
1.45287
 21
119.627
  0
LINE
  8
0
 10
1.45287
 20
119.627
 11
1.39465
 21
119.448
  0
LINE
  8
0
 10
1.39465
 20
119.448
 11
1.31445
 21
119.277
  0
LINE
  8
0
 10
1.31445
 20
119.277
 11
1.21352
 21
119.118
  0
LINE
  8
0
 10
1.21352
 20
119.118
 11
1.09344
 21
118.973
  0
LINE
  8
0
 10
1.09344
 20
118.973
 11
0.956131
 21
118.844
  0
LINE
  8
0
 10
0.956131
 20
118.844
 11
0.803726
 21
118.734
  0
LINE
  8
0
 10
0.803726
 20
118.734
 11
0.638657
 21
118.643
  0
LINE
  8
0
 10
0.638657
 20
118.643
 11
0.463516
 21
118.573
  0
LINE
  8
0
 10
0.463516
 20
118.573
 11
0.281067
 21
118.527
  0
LINE
  8
0
 10
0.281067
 20
118.527
 11
0.0941772
 21
118.503
  0
LINE
  8
0
 10
0.0941772
 20
118.503
 11
-0.0941772
 21
118.503
  0
LINE
  8
0
 10
-7.59418
 20
118.503
 11
-7.78107
 21
118.527
  0
LINE
  8
0
 10
-7.78107
 20
118.527
 11
-7.96352
 21
118.573
  0
LINE
  8
0
 10
-7.96352
 20
118.573
 11
-8.13866
 21
118.643
  0
LINE
  8
0
 10
-8.13866
 20
118.643
 11
-8.30373
 21
118.734
  0
LINE
  8
0
 10
-8.30373
 20
118.734
 11
-8.45613
 21
118.844
  0
LINE
  8
0
 10
-8.45613
 20
118.844
 11
-8.59344
 21
118.973
  0
LINE
  8
0
 10
-8.59344
 20
118.973
 11
-8.71352
 21
119.118
  0
LINE
  8
0
 10
-8.71352
 20
119.118
 11
-8.81445
 21
119.277
  0
LINE
  8
0
 10
-8.81445
 20
119.277
 11
-8.89465
 21
119.448
  0
LINE
  8
0
 10
-8.89465
 20
119.448
 11
-8.95287
 21
119.627
  0
LINE
  8
0
 10
-8.95287
 20
119.627
 11
-8.98816
 21
119.812
  0
LINE
  8
0
 10
-8.98816
 20
119.812
 11
-9
 21
120
  0
LINE
  8
0
 10
-9
 20
120
 11
-8.98816
 21
120.188
  0
LINE
  8
0
 10
-8.98816
 20
120.188
 11
-8.95287
 21
120.373
  0
LINE
  8
0
 10
-8.95287
 20
120.373
 11
-8.89465
 21
120.552
  0
LINE
  8
0
 10
-8.89465
 20
120.552
 11
-8.81445
 21
120.723
  0
LINE
  8
0
 10
-8.81445
 20
120.723
 11
-8.71352
 21
120.882
  0
LINE
  8
0
 10
-8.71352
 20
120.882
 11
-8.59344
 21
121.027
  0
LINE
  8
0
 10
-8.59344
 20
121.027
 11
-8.45613
 21
121.156
  0
LINE
  8
0
 10
-8.45613
 20
121.156
 11
-8.30373
 21
121.266
  0
LINE
  8
0
 10
-8.30373
 20
121.266
 11
-8.13866
 21
121.357
  0
LINE
  8
0
 10
-8.13866
 20
121.357
 11
-7.96352
 21
121.427
  0
LINE
  8
0
 10
-7.96352
 20
121.427
 11
-7.78107
 21
121.473
  0
LINE
  8
0
 10
-7.78107
 20
121.473
 11
-7.59418
 21
121.497
  0
LINE
  8
0
 10
-7.59418
 20
121.497
 11
-7.40581
 21
121.497
  0
LINE
  8
0
 10
-7.40581
 20
121.497
 11
-7.21892
 21
121.473
  0
LINE
  8
0
 10
-7.21892
 20
121.473
 11
-7.03647
 21
121.427
  0
LINE
  8
0
 10
-7.03647
 20
121.427
 11
-6.86133
 21
121.357
  0
LINE
  8
0
 10
-6.86133
 20
121.357
 11
-6.69626
 21
121.266
  0
LINE
  8
0
 10
-6.69626
 20
121.266
 11
-6.54385
 21
121.156
  0
LINE
  8
0
 10
-6.54385
 20
121.156
 11
-6.40654
 21
121.027
  0
LINE
  8
0
 10
-6.40654
 20
121.027
 11
-6.28647
 21
120.882
  0
LINE
  8
0
 10
-6.28647
 20
120.882
 11
-6.18553
 21
120.723
  0
LINE
  8
0
 10
-6.18553
 20
120.723
 11
-6.10533
 21
120.552
  0
LINE
  8
0
 10
-6.10533
 20
120.552
 11
-6.04712
 21
120.373
  0
LINE
  8
0
 10
-6.04712
 20
120.373
 11
-6.01183
 21
120.188
  0
LINE
  8
0
 10
-6.01183
 20
120.188
 11
-6
 21
120
  0
LINE
  8
0
 10
-6
 20
120
 11
-6.01183
 21
119.812
  0
LINE
  8
0
 10
-6.01183
 20
119.812
 11
-6.04712
 21
119.627
  0
LINE
  8
0
 10
-6.04712
 20
119.627
 11
-6.10533
 21
119.448
  0
LINE
  8
0
 10
-6.10533
 20
119.448
 11
-6.18553
 21
119.277
  0
LINE
  8
0
 10
-6.18553
 20
119.277
 11
-6.28647
 21
119.118
  0
LINE
  8
0
 10
-6.28647
 20
119.118
 11
-6.40654
 21
118.973
  0
LINE
  8
0
 10
-6.40654
 20
118.973
 11
-6.54385
 21
118.844
  0
LINE
  8
0
 10
-6.54385
 20
118.844
 11
-6.69626
 21
118.734
  0
LINE
  8
0
 10
-6.69626
 20
118.734
 11
-6.86133
 21
118.643
  0
LINE
  8
0
 10
-6.86133
 20
118.643
 11
-7.03647
 21
118.573
  0
LINE
  8
0
 10
-7.03647
 20
118.573
 11
-7.21892
 21
118.527
  0
LINE
  8
0
 10
-7.21892
 20
118.527
 11
-7.40581
 21
118.503
  0
LINE
  8
0
 10
-7.40581
 20
118.503
 11
-7.59418
 21
118.503
  0
LINE
  8
0
 10
10.4369
 20
89.0886
 11
11.0451
 21
89.2447
  0
LINE
  8
0
 10
11.0451
 20
89.2447
 11
11.6289
 21
89.4759
  0
LINE
  8
0
 10
11.6289
 20
89.4759
 11
12.1791
 21
89.7784
  0
LINE
  8
0
 10
12.1791
 20
89.7784
 11
12.6871
 21
90.1474
  0
LINE
  8
0
 10
12.6871
 20
90.1474
 11
13.1448
 21
90.5773
  0
LINE
  8
0
 10
13.1448
 20
90.5773
 11
13.5451
 21
91.0611
  0
LINE
  8
0
 10
13.5451
 20
91.0611
 11
13.8815
 21
91.5912
  0
LINE
  8
0
 10
13.8815
 20
91.5912
 11
14.1489
 21
92.1594
  0
LINE
  8
0
 10
14.1489
 20
92.1594
 11
14.3429
 21
92.7566
  0
LINE
  8
0
 10
14.3429
 20
92.7566
 11
14.4606
 21
93.3733
  0
LINE
  8
0
 10
14.4606
 20
93.3733
 11
14.5
 21
94
  0
LINE
  8
0
 10
14.5
 20
94
 11
14.5
 21
98
  0
LINE
  8
0
 10
14.5
 20
98
 11
14.4606
 21
98.6267
  0
LINE
  8
0
 10
14.4606
 20
98.6267
 11
14.3429
 21
99.2434
  0
LINE
  8
0
 10
14.3429
 20
99.2434
 11
14.1489
 21
99.8406
  0
LINE
  8
0
 10
14.1489
 20
99.8406
 11
13.8815
 21
100.409
  0
LINE
  8
0
 10
13.8815
 20
100.409
 11
13.5451
 21
100.939
  0
LINE
  8
0
 10
13.5451
 20
100.939
 11
13.1448
 21
101.423
  0
LINE
  8
0
 10
13.1448
 20
101.423
 11
12.6871
 21
101.853
  0
LINE
  8
0
 10
12.6871
 20
101.853
 11
12.1791
 21
102.222
  0
LINE
  8
0
 10
12.1791
 20
102.222
 11
11.6289
 21
102.524
  0
LINE
  8
0
 10
11.6289
 20
102.524
 11
11.0451
 21
102.755
  0
LINE
  8
0
 10
11.0451
 20
102.755
 11
10.4369
 21
102.911
  0
LINE
  8
0
 10
10.4369
 20
102.911
 11
9.81395
 21
102.99
  0
LINE
  8
0
 10
9.81395
 20
102.99
 11
-9.81395
 21
102.99
  0
LINE
  8
0
 10
-9.81395
 20
102.99
 11
-10.4369
 21
102.911
  0
LINE
  8
0
 10
-10.4369
 20
102.911
 11
-11.0451
 21
102.755
  0
LINE
  8
0
 10
-11.0451
 20
102.755
 11
-11.6289
 21
102.524
  0
LINE
  8
0
 10
-11.6289
 20
102.524
 11
-12.1791
 21
102.222
  0
LINE
  8
0
 10
-12.1791
 20
102.222
 11
-12.6871
 21
101.853
  0
LINE
  8
0
 10
-12.6871
 20
101.853
 11
-13.1448
 21
101.423
  0
LINE
  8
0
 10
-13.1448
 20
101.423
 11
-13.5451
 21
100.939
  0
LINE
  8
0
 10
-13.5451
 20
100.939
 11
-13.8815
 21
100.409
  0
LINE
  8
0
 10
-13.8815
 20
100.409
 11
-14.1489
 21
99.8406
  0
LINE
  8
0
 10
-14.1489
 20
99.8406
 11
-14.3429
 21
99.2434
  0
LINE
  8
0
 10
-14.3429
 20
99.2434
 11
-14.4606
 21
98.6267
  0
LINE
  8
0
 10
-14.4606
 20
98.6267
 11
-14.5
 21
98
  0
LINE
  8
0
 10
-14.5
 20
98
 11
-14.5
 21
94
  0
LINE
  8
0
 10
-14.5
 20
94
 11
-14.4606
 21
93.3733
  0
LINE
  8
0
 10
-14.4606
 20
93.3733
 11
-14.3429
 21
92.7566
  0
LINE
  8
0
 10
-14.3429
 20
92.7566
 11
-14.1489
 21
92.1594
  0
LINE
  8
0
 10
-14.1489
 20
92.1594
 11
-13.8815
 21
91.5912
  0
LINE
  8
0
 10
-13.8815
 20
91.5912
 11
-13.5451
 21
91.0611
  0
LINE
  8
0
 10
-13.5451
 20
91.0611
 11
-13.1448
 21
90.5773
  0
LINE
  8
0
 10
-13.1448
 20
90.5773
 11
-12.6871
 21
90.1474
  0
LINE
  8
0
 10
-12.6871
 20
90.1474
 11
-12.1791
 21
89.7784
  0
LINE
  8
0
 10
-12.1791
 20
89.7784
 11
-11.6289
 21
89.4759
  0
LINE
  8
0
 10
-11.6289
 20
89.4759
 11
-11.0451
 21
89.2447
  0
LINE
  8
0
 10
-11.0451
 20
89.2447
 11
-10.4369
 21
89.0886
  0
LINE
  8
0
 10
-10.4369
 20
89.0886
 11
-9.81395
 21
89.0099
  0
LINE
  8
0
 10
-9.81395
 20
89.0099
 11
9.81395
 21
89.0099
  0
LINE
  8
0
 10
9.81395
 20
89.0099
 11
10.4369
 21
89.0886
  0
LINE
  8
0
 10
7.40581
 20
94.503
 11
7.21892
 21
94.5266
  0
LINE
  8
0
 10
7.21892
 20
94.5266
 11
7.03647
 21
94.5734
  0
LINE
  8
0
 10
7.03647
 20
94.5734
 11
6.86133
 21
94.6428
  0
LINE
  8
0
 10
6.86133
 20
94.6428
 11
6.69626
 21
94.7335
  0
LINE
  8
0
 10
6.69626
 20
94.7335
 11
6.54385
 21
94.8442
  0
LINE
  8
0
 10
6.54385
 20
94.8442
 11
6.40654
 21
94.9732
  0
LINE
  8
0
 10
6.40654
 20
94.9732
 11
6.28647
 21
95.1183
  0
LINE
  8
0
 10
6.28647
 20
95.1183
 11
6.18553
 21
95.2774
  0
LINE
  8
0
 10
6.18553
 20
95.2774
 11
6.10533
 21
95.4478
  0
LINE
  8
0
 10
6.10533
 20
95.4478
 11
6.04712
 21
95.627
  0
LINE
  8
0
 10
6.04712
 20
95.627
 11
6.01183
 21
95.812
  0
LINE
  8
0
 10
6.01183
 20
95.812
 11
6
 21
96
  0
LINE
  8
0
 10
6
 20
96
 11
6.01183
 21
96.188
  0
LINE
  8
0
 10
6.01183
 20
96.188
 11
6.04712
 21
96.373
  0
LINE
  8
0
 10
6.04712
 20
96.373
 11
6.10533
 21
96.5522
  0
LINE
  8
0
 10
6.10533
 20
96.5522
 11
6.18553
 21
96.7226
  0
LINE
  8
0
 10
6.18553
 20
96.7226
 11
6.28647
 21
96.8817
  0
LINE
  8
0
 10
6.28647
 20
96.8817
 11
6.40654
 21
97.0268
  0
LINE
  8
0
 10
6.40654
 20
97.0268
 11
6.54385
 21
97.1558
  0
LINE
  8
0
 10
6.54385
 20
97.1558
 11
6.69626
 21
97.2665
  0
LINE
  8
0
 10
6.69626
 20
97.2665
 11
6.86133
 21
97.3572
  0
LINE
  8
0
 10
6.86133
 20
97.3572
 11
7.03647
 21
97.4266
  0
LINE
  8
0
 10
7.03647
 20
97.4266
 11
7.21892
 21
97.4734
  0
LINE
  8
0
 10
7.21892
 20
97.4734
 11
7.40581
 21
97.497
  0
LINE
  8
0
 10
7.40581
 20
97.497
 11
7.59418
 21
97.497
  0
LINE
  8
0
 10
7.59418
 20
97.497
 11
7.78107
 21
97.4734
  0
LINE
  8
0
 10
7.78107
 20
97.4734
 11
7.96352
 21
97.4266
  0
LINE
  8
0
 10
7.96352
 20
97.4266
 11
8.13866
 21
97.3572
  0
LINE
  8
0
 10
8.13866
 20
97.3572
 11
8.30373
 21
97.2665
  0
LINE
  8
0
 10
8.30373
 20
97.2665
 11
8.45613
 21
97.1558
  0
LINE
  8
0
 10
8.45613
 20
97.1558
 11
8.59344
 21
97.0268
  0
LINE
  8
0
 10
8.59344
 20
97.0268
 11
8.71352
 21
96.8817
  0
LINE
  8
0
 10
8.71352
 20
96.8817
 11
8.81445
 21
96.7226
  0
LINE
  8
0
 10
8.81445
 20
96.7226
 11
8.89465
 21
96.5522
  0
LINE
  8
0
 10
8.89465
 20
96.5522
 11
8.95287
 21
96.373
  0
LINE
  8
0
 10
8.95287
 20
96.373
 11
8.98816
 21
96.188
  0
LINE
  8
0
 10
8.98816
 20
96.188
 11
9
 21
96
  0
LINE
  8
0
 10
9
 20
96
 11
8.98816
 21
95.812
  0
LINE
  8
0
 10
8.98816
 20
95.812
 11
8.95287
 21
95.627
  0
LINE
  8
0
 10
8.95287
 20
95.627
 11
8.89465
 21
95.4478
  0
LINE
  8
0
 10
8.89465
 20
95.4478
 11
8.81445
 21
95.2774
  0
LINE
  8
0
 10
8.81445
 20
95.2774
 11
8.71352
 21
95.1183
  0
LINE
  8
0
 10
8.71352
 20
95.1183
 11
8.59344
 21
94.9732
  0
LINE
  8
0
 10
8.59344
 20
94.9732
 11
8.45613
 21
94.8442
  0
LINE
  8
0
 10
8.45613
 20
94.8442
 11
8.30373
 21
94.7335
  0
LINE
  8
0
 10
8.30373
 20
94.7335
 11
8.13866
 21
94.6428
  0
LINE
  8
0
 10
8.13866
 20
94.6428
 11
7.96352
 21
94.5734
  0
LINE
  8
0
 10
7.96352
 20
94.5734
 11
7.78107
 21
94.5266
  0
LINE
  8
0
 10
7.78107
 20
94.5266
 11
7.59418
 21
94.503
  0
LINE
  8
0
 10
7.59418
 20
94.503
 11
7.40581
 21
94.503
  0
LINE
  8
0
 10
-0.0941772
 20
94.503
 11
-0.281067
 21
94.5266
  0
LINE
  8
0
 10
-0.281067
 20
94.5266
 11
-0.463516
 21
94.5734
  0
LINE
  8
0
 10
-0.463516
 20
94.5734
 11
-0.638657
 21
94.6428
  0
LINE
  8
0
 10
-0.638657
 20
94.6428
 11
-0.803726
 21
94.7335
  0
LINE
  8
0
 10
-0.803726
 20
94.7335
 11
-0.956131
 21
94.8442
  0
LINE
  8
0
 10
-0.956131
 20
94.8442
 11
-1.09344
 21
94.9732
  0
LINE
  8
0
 10
-1.09344
 20
94.9732
 11
-1.21352
 21
95.1183
  0
LINE
  8
0
 10
-1.21352
 20
95.1183
 11
-1.31445
 21
95.2774
  0
LINE
  8
0
 10
-1.31445
 20
95.2774
 11
-1.39465
 21
95.4478
  0
LINE
  8
0
 10
-1.39465
 20
95.4478
 11
-1.45287
 21
95.627
  0
LINE
  8
0
 10
-1.45287
 20
95.627
 11
-1.48816
 21
95.812
  0
LINE
  8
0
 10
-1.48816
 20
95.812
 11
-1.5
 21
96
  0
LINE
  8
0
 10
-1.5
 20
96
 11
-1.48816
 21
96.188
  0
LINE
  8
0
 10
-1.48816
 20
96.188
 11
-1.45287
 21
96.373
  0
LINE
  8
0
 10
-1.45287
 20
96.373
 11
-1.39465
 21
96.5522
  0
LINE
  8
0
 10
-1.39465
 20
96.5522
 11
-1.31445
 21
96.7226
  0
LINE
  8
0
 10
-1.31445
 20
96.7226
 11
-1.21352
 21
96.8817
  0
LINE
  8
0
 10
-1.21352
 20
96.8817
 11
-1.09344
 21
97.0268
  0
LINE
  8
0
 10
-1.09344
 20
97.0268
 11
-0.956131
 21
97.1558
  0
LINE
  8
0
 10
-0.956131
 20
97.1558
 11
-0.803726
 21
97.2665
  0
LINE
  8
0
 10
-0.803726
 20
97.2665
 11
-0.638657
 21
97.3572
  0
LINE
  8
0
 10
-0.638657
 20
97.3572
 11
-0.463516
 21
97.4266
  0
LINE
  8
0
 10
-0.463516
 20
97.4266
 11
-0.281067
 21
97.4734
  0
LINE
  8
0
 10
-0.281067
 20
97.4734
 11
-0.0941772
 21
97.497
  0
LINE
  8
0
 10
-0.0941772
 20
97.497
 11
0.0941772
 21
97.497
  0
LINE
  8
0
 10
0.0941772
 20
97.497
 11
0.281067
 21
97.4734
  0
LINE
  8
0
 10
0.281067
 20
97.4734
 11
0.463516
 21
97.4266
  0
LINE
  8
0
 10
0.463516
 20
97.4266
 11
0.638657
 21
97.3572
  0
LINE
  8
0
 10
0.638657
 20
97.3572
 11
0.803726
 21
97.2665
  0
LINE
  8
0
 10
0.803726
 20
97.2665
 11
0.956131
 21
97.1558
  0
LINE
  8
0
 10
0.956131
 20
97.1558
 11
1.09344
 21
97.0268
  0
LINE
  8
0
 10
1.09344
 20
97.0268
 11
1.21352
 21
96.8817
  0
LINE
  8
0
 10
1.21352
 20
96.8817
 11
1.31445
 21
96.7226
  0
LINE
  8
0
 10
1.31445
 20
96.7226
 11
1.39465
 21
96.5522
  0
LINE
  8
0
 10
1.39465
 20
96.5522
 11
1.45287
 21
96.373
  0
LINE
  8
0
 10
1.45287
 20
96.373
 11
1.48816
 21
96.188
  0
LINE
  8
0
 10
1.48816
 20
96.188
 11
1.5
 21
96
  0
LINE
  8
0
 10
1.5
 20
96
 11
1.48816
 21
95.812
  0
LINE
  8
0
 10
1.48816
 20
95.812
 11
1.45287
 21
95.627
  0
LINE
  8
0
 10
1.45287
 20
95.627
 11
1.39465
 21
95.4478
  0
LINE
  8
0
 10
1.39465
 20
95.4478
 11
1.31445
 21
95.2774
  0
LINE
  8
0
 10
1.31445
 20
95.2774
 11
1.21352
 21
95.1183
  0
LINE
  8
0
 10
1.21352
 20
95.1183
 11
1.09344
 21
94.9732
  0
LINE
  8
0
 10
1.09344
 20
94.9732
 11
0.956131
 21
94.8442
  0
LINE
  8
0
 10
0.956131
 20
94.8442
 11
0.803726
 21
94.7335
  0
LINE
  8
0
 10
0.803726
 20
94.7335
 11
0.638657
 21
94.6428
  0
LINE
  8
0
 10
0.638657
 20
94.6428
 11
0.463516
 21
94.5734
  0
LINE
  8
0
 10
0.463516
 20
94.5734
 11
0.281067
 21
94.5266
  0
LINE
  8
0
 10
0.281067
 20
94.5266
 11
0.0941772
 21
94.503
  0
LINE
  8
0
 10
0.0941772
 20
94.503
 11
-0.0941772
 21
94.503
  0
LINE
  8
0
 10
-7.59418
 20
94.503
 11
-7.78107
 21
94.5266
  0
LINE
  8
0
 10
-7.78107
 20
94.5266
 11
-7.96352
 21
94.5734
  0
LINE
  8
0
 10
-7.96352
 20
94.5734
 11
-8.13866
 21
94.6428
  0
LINE
  8
0
 10
-8.13866
 20
94.6428
 11
-8.30373
 21
94.7335
  0
LINE
  8
0
 10
-8.30373
 20
94.7335
 11
-8.45613
 21
94.8442
  0
LINE
  8
0
 10
-8.45613
 20
94.8442
 11
-8.59344
 21
94.9732
  0
LINE
  8
0
 10
-8.59344
 20
94.9732
 11
-8.71352
 21
95.1183
  0
LINE
  8
0
 10
-8.71352
 20
95.1183
 11
-8.81445
 21
95.2774
  0
LINE
  8
0
 10
-8.81445
 20
95.2774
 11
-8.89465
 21
95.4478
  0
LINE
  8
0
 10
-8.89465
 20
95.4478
 11
-8.95287
 21
95.627
  0
LINE
  8
0
 10
-8.95287
 20
95.627
 11
-8.98816
 21
95.812
  0
LINE
  8
0
 10
-8.98816
 20
95.812
 11
-9
 21
96
  0
LINE
  8
0
 10
-9
 20
96
 11
-8.98816
 21
96.188
  0
LINE
  8
0
 10
-8.98816
 20
96.188
 11
-8.95287
 21
96.373
  0
LINE
  8
0
 10
-8.95287
 20
96.373
 11
-8.89465
 21
96.5522
  0
LINE
  8
0
 10
-8.89465
 20
96.5522
 11
-8.81445
 21
96.7226
  0
LINE
  8
0
 10
-8.81445
 20
96.7226
 11
-8.71352
 21
96.8817
  0
LINE
  8
0
 10
-8.71352
 20
96.8817
 11
-8.59344
 21
97.0268
  0
LINE
  8
0
 10
-8.59344
 20
97.0268
 11
-8.45613
 21
97.1558
  0
LINE
  8
0
 10
-8.45613
 20
97.1558
 11
-8.30373
 21
97.2665
  0
LINE
  8
0
 10
-8.30373
 20
97.2665
 11
-8.13866
 21
97.3572
  0
LINE
  8
0
 10
-8.13866
 20
97.3572
 11
-7.96352
 21
97.4266
  0
LINE
  8
0
 10
-7.96352
 20
97.4266
 11
-7.78107
 21
97.4734
  0
LINE
  8
0
 10
-7.78107
 20
97.4734
 11
-7.59418
 21
97.497
  0
LINE
  8
0
 10
-7.59418
 20
97.497
 11
-7.40581
 21
97.497
  0
LINE
  8
0
 10
-7.40581
 20
97.497
 11
-7.21892
 21
97.4734
  0
LINE
  8
0
 10
-7.21892
 20
97.4734
 11
-7.03647
 21
97.4266
  0
LINE
  8
0
 10
-7.03647
 20
97.4266
 11
-6.86133
 21
97.3572
  0
LINE
  8
0
 10
-6.86133
 20
97.3572
 11
-6.69626
 21
97.2665
  0
LINE
  8
0
 10
-6.69626
 20
97.2665
 11
-6.54385
 21
97.1558
  0
LINE
  8
0
 10
-6.54385
 20
97.1558
 11
-6.40654
 21
97.0268
  0
LINE
  8
0
 10
-6.40654
 20
97.0268
 11
-6.28647
 21
96.8817
  0
LINE
  8
0
 10
-6.28647
 20
96.8817
 11
-6.18553
 21
96.7226
  0
LINE
  8
0
 10
-6.18553
 20
96.7226
 11
-6.10533
 21
96.5522
  0
LINE
  8
0
 10
-6.10533
 20
96.5522
 11
-6.04712
 21
96.373
  0
LINE
  8
0
 10
-6.04712
 20
96.373
 11
-6.01183
 21
96.188
  0
LINE
  8
0
 10
-6.01183
 20
96.188
 11
-6
 21
96
  0
LINE
  8
0
 10
-6
 20
96
 11
-6.01183
 21
95.812
  0
LINE
  8
0
 10
-6.01183
 20
95.812
 11
-6.04712
 21
95.627
  0
LINE
  8
0
 10
-6.04712
 20
95.627
 11
-6.10533
 21
95.4478
  0
LINE
  8
0
 10
-6.10533
 20
95.4478
 11
-6.18553
 21
95.2774
  0
LINE
  8
0
 10
-6.18553
 20
95.2774
 11
-6.28647
 21
95.1183
  0
LINE
  8
0
 10
-6.28647
 20
95.1183
 11
-6.40654
 21
94.9732
  0
LINE
  8
0
 10
-6.40654
 20
94.9732
 11
-6.54385
 21
94.8442
  0
LINE
  8
0
 10
-6.54385
 20
94.8442
 11
-6.69626
 21
94.7335
  0
LINE
  8
0
 10
-6.69626
 20
94.7335
 11
-6.86133
 21
94.6428
  0
LINE
  8
0
 10
-6.86133
 20
94.6428
 11
-7.03647
 21
94.5734
  0
LINE
  8
0
 10
-7.03647
 20
94.5734
 11
-7.21892
 21
94.5266
  0
LINE
  8
0
 10
-7.21892
 20
94.5266
 11
-7.40581
 21
94.503
  0
LINE
  8
0
 10
-7.40581
 20
94.503
 11
-7.59418
 21
94.503
  0
LINE
  8
0
 10
10.4369
 20
65.0886
 11
11.0451
 21
65.2447
  0
LINE
  8
0
 10
11.0451
 20
65.2447
 11
11.6289
 21
65.4759
  0
LINE
  8
0
 10
11.6289
 20
65.4759
 11
12.1791
 21
65.7784
  0
LINE
  8
0
 10
12.1791
 20
65.7784
 11
12.6871
 21
66.1474
  0
LINE
  8
0
 10
12.6871
 20
66.1474
 11
13.1448
 21
66.5773
  0
LINE
  8
0
 10
13.1448
 20
66.5773
 11
13.5451
 21
67.0611
  0
LINE
  8
0
 10
13.5451
 20
67.0611
 11
13.8815
 21
67.5912
  0
LINE
  8
0
 10
13.8815
 20
67.5912
 11
14.1489
 21
68.1594
  0
LINE
  8
0
 10
14.1489
 20
68.1594
 11
14.3429
 21
68.7566
  0
LINE
  8
0
 10
14.3429
 20
68.7566
 11
14.4606
 21
69.3733
  0
LINE
  8
0
 10
14.4606
 20
69.3733
 11
14.5
 21
70
  0
LINE
  8
0
 10
14.5
 20
70
 11
14.5
 21
74
  0
LINE
  8
0
 10
14.5
 20
74
 11
14.4606
 21
74.6267
  0
LINE
  8
0
 10
14.4606
 20
74.6267
 11
14.3429
 21
75.2434
  0
LINE
  8
0
 10
14.3429
 20
75.2434
 11
14.1489
 21
75.8406
  0
LINE
  8
0
 10
14.1489
 20
75.8406
 11
13.8815
 21
76.4088
  0
LINE
  8
0
 10
13.8815
 20
76.4088
 11
13.5451
 21
76.9389
  0
LINE
  8
0
 10
13.5451
 20
76.9389
 11
13.1448
 21
77.4227
  0
LINE
  8
0
 10
13.1448
 20
77.4227
 11
12.6871
 21
77.8526
  0
LINE
  8
0
 10
12.6871
 20
77.8526
 11
12.1791
 21
78.2216
  0
LINE
  8
0
 10
12.1791
 20
78.2216
 11
11.6289
 21
78.5241
  0
LINE
  8
0
 10
11.6289
 20
78.5241
 11
11.0451
 21
78.7553
  0
LINE
  8
0
 10
11.0451
 20
78.7553
 11
10.4369
 21
78.9114
  0
LINE
  8
0
 10
10.4369
 20
78.9114
 11
9.81395
 21
78.9901
  0
LINE
  8
0
 10
9.81395
 20
78.9901
 11
-9.81395
 21
78.9901
  0
LINE
  8
0
 10
-9.81395
 20
78.9901
 11
-10.4369
 21
78.9114
  0
LINE
  8
0
 10
-10.4369
 20
78.9114
 11
-11.0451
 21
78.7553
  0
LINE
  8
0
 10
-11.0451
 20
78.7553
 11
-11.6289
 21
78.5241
  0
LINE
  8
0
 10
-11.6289
 20
78.5241
 11
-12.1791
 21
78.2216
  0
LINE
  8
0
 10
-12.1791
 20
78.2216
 11
-12.6871
 21
77.8526
  0
LINE
  8
0
 10
-12.6871
 20
77.8526
 11
-13.1448
 21
77.4227
  0
LINE
  8
0
 10
-13.1448
 20
77.4227
 11
-13.5451
 21
76.9389
  0
LINE
  8
0
 10
-13.5451
 20
76.9389
 11
-13.8815
 21
76.4088
  0
LINE
  8
0
 10
-13.8815
 20
76.4088
 11
-14.1489
 21
75.8406
  0
LINE
  8
0
 10
-14.1489
 20
75.8406
 11
-14.3429
 21
75.2434
  0
LINE
  8
0
 10
-14.3429
 20
75.2434
 11
-14.4606
 21
74.6267
  0
LINE
  8
0
 10
-14.4606
 20
74.6267
 11
-14.5
 21
74
  0
LINE
  8
0
 10
-14.5
 20
74
 11
-14.5
 21
70
  0
LINE
  8
0
 10
-14.5
 20
70
 11
-14.4606
 21
69.3733
  0
LINE
  8
0
 10
-14.4606
 20
69.3733
 11
-14.3429
 21
68.7566
  0
LINE
  8
0
 10
-14.3429
 20
68.7566
 11
-14.1489
 21
68.1594
  0
LINE
  8
0
 10
-14.1489
 20
68.1594
 11
-13.8815
 21
67.5912
  0
LINE
  8
0
 10
-13.8815
 20
67.5912
 11
-13.5451
 21
67.0611
  0
LINE
  8
0
 10
-13.5451
 20
67.0611
 11
-13.1448
 21
66.5773
  0
LINE
  8
0
 10
-13.1448
 20
66.5773
 11
-12.6871
 21
66.1474
  0
LINE
  8
0
 10
-12.6871
 20
66.1474
 11
-12.1791
 21
65.7784
  0
LINE
  8
0
 10
-12.1791
 20
65.7784
 11
-11.6289
 21
65.4759
  0
LINE
  8
0
 10
-11.6289
 20
65.4759
 11
-11.0451
 21
65.2447
  0
LINE
  8
0
 10
-11.0451
 20
65.2447
 11
-10.4369
 21
65.0886
  0
LINE
  8
0
 10
-10.4369
 20
65.0886
 11
-9.81395
 21
65.0099
  0
LINE
  8
0
 10
-9.81395
 20
65.0099
 11
9.81395
 21
65.0099
  0
LINE
  8
0
 10
9.81395
 20
65.0099
 11
10.4369
 21
65.0886
  0
LINE
  8
0
 10
7.40581
 20
70.503
 11
7.21892
 21
70.5266
  0
LINE
  8
0
 10
7.21892
 20
70.5266
 11
7.03647
 21
70.5734
  0
LINE
  8
0
 10
7.03647
 20
70.5734
 11
6.86133
 21
70.6428
  0
LINE
  8
0
 10
6.86133
 20
70.6428
 11
6.69626
 21
70.7335
  0
LINE
  8
0
 10
6.69626
 20
70.7335
 11
6.54385
 21
70.8442
  0
LINE
  8
0
 10
6.54385
 20
70.8442
 11
6.40654
 21
70.9732
  0
LINE
  8
0
 10
6.40654
 20
70.9732
 11
6.28647
 21
71.1183
  0
LINE
  8
0
 10
6.28647
 20
71.1183
 11
6.18553
 21
71.2774
  0
LINE
  8
0
 10
6.18553
 20
71.2774
 11
6.10533
 21
71.4478
  0
LINE
  8
0
 10
6.10533
 20
71.4478
 11
6.04712
 21
71.627
  0
LINE
  8
0
 10
6.04712
 20
71.627
 11
6.01183
 21
71.812
  0
LINE
  8
0
 10
6.01183
 20
71.812
 11
6
 21
72
  0
LINE
  8
0
 10
6
 20
72
 11
6.01183
 21
72.188
  0
LINE
  8
0
 10
6.01183
 20
72.188
 11
6.04712
 21
72.373
  0
LINE
  8
0
 10
6.04712
 20
72.373
 11
6.10533
 21
72.5522
  0
LINE
  8
0
 10
6.10533
 20
72.5522
 11
6.18553
 21
72.7226
  0
LINE
  8
0
 10
6.18553
 20
72.7226
 11
6.28647
 21
72.8817
  0
LINE
  8
0
 10
6.28647
 20
72.8817
 11
6.40654
 21
73.0268
  0
LINE
  8
0
 10
6.40654
 20
73.0268
 11
6.54385
 21
73.1558
  0
LINE
  8
0
 10
6.54385
 20
73.1558
 11
6.69626
 21
73.2665
  0
LINE
  8
0
 10
6.69626
 20
73.2665
 11
6.86133
 21
73.3572
  0
LINE
  8
0
 10
6.86133
 20
73.3572
 11
7.03647
 21
73.4266
  0
LINE
  8
0
 10
7.03647
 20
73.4266
 11
7.21892
 21
73.4734
  0
LINE
  8
0
 10
7.21892
 20
73.4734
 11
7.40581
 21
73.497
  0
LINE
  8
0
 10
7.40581
 20
73.497
 11
7.59418
 21
73.497
  0
LINE
  8
0
 10
7.59418
 20
73.497
 11
7.78107
 21
73.4734
  0
LINE
  8
0
 10
7.78107
 20
73.4734
 11
7.96352
 21
73.4266
  0
LINE
  8
0
 10
7.96352
 20
73.4266
 11
8.13866
 21
73.3572
  0
LINE
  8
0
 10
8.13866
 20
73.3572
 11
8.30373
 21
73.2665
  0
LINE
  8
0
 10
8.30373
 20
73.2665
 11
8.45613
 21
73.1558
  0
LINE
  8
0
 10
8.45613
 20
73.1558
 11
8.59344
 21
73.0268
  0
LINE
  8
0
 10
8.59344
 20
73.0268
 11
8.71352
 21
72.8817
  0
LINE
  8
0
 10
8.71352
 20
72.8817
 11
8.81445
 21
72.7226
  0
LINE
  8
0
 10
8.81445
 20
72.7226
 11
8.89465
 21
72.5522
  0
LINE
  8
0
 10
8.89465
 20
72.5522
 11
8.95287
 21
72.373
  0
LINE
  8
0
 10
8.95287
 20
72.373
 11
8.98816
 21
72.188
  0
LINE
  8
0
 10
8.98816
 20
72.188
 11
9
 21
72
  0
LINE
  8
0
 10
9
 20
72
 11
8.98816
 21
71.812
  0
LINE
  8
0
 10
8.98816
 20
71.812
 11
8.95287
 21
71.627
  0
LINE
  8
0
 10
8.95287
 20
71.627
 11
8.89465
 21
71.4478
  0
LINE
  8
0
 10
8.89465
 20
71.4478
 11
8.81445
 21
71.2774
  0
LINE
  8
0
 10
8.81445
 20
71.2774
 11
8.71352
 21
71.1183
  0
LINE
  8
0
 10
8.71352
 20
71.1183
 11
8.59344
 21
70.9732
  0
LINE
  8
0
 10
8.59344
 20
70.9732
 11
8.45613
 21
70.8442
  0
LINE
  8
0
 10
8.45613
 20
70.8442
 11
8.30373
 21
70.7335
  0
LINE
  8
0
 10
8.30373
 20
70.7335
 11
8.13866
 21
70.6428
  0
LINE
  8
0
 10
8.13866
 20
70.6428
 11
7.96352
 21
70.5734
  0
LINE
  8
0
 10
7.96352
 20
70.5734
 11
7.78107
 21
70.5266
  0
LINE
  8
0
 10
7.78107
 20
70.5266
 11
7.59418
 21
70.503
  0
LINE
  8
0
 10
7.59418
 20
70.503
 11
7.40581
 21
70.503
  0
LINE
  8
0
 10
-0.0941772
 20
70.503
 11
-0.281067
 21
70.5266
  0
LINE
  8
0
 10
-0.281067
 20
70.5266
 11
-0.463516
 21
70.5734
  0
LINE
  8
0
 10
-0.463516
 20
70.5734
 11
-0.638657
 21
70.6428
  0
LINE
  8
0
 10
-0.638657
 20
70.6428
 11
-0.803726
 21
70.7335
  0
LINE
  8
0
 10
-0.803726
 20
70.7335
 11
-0.956131
 21
70.8442
  0
LINE
  8
0
 10
-0.956131
 20
70.8442
 11
-1.09344
 21
70.9732
  0
LINE
  8
0
 10
-1.09344
 20
70.9732
 11
-1.21352
 21
71.1183
  0
LINE
  8
0
 10
-1.21352
 20
71.1183
 11
-1.31445
 21
71.2774
  0
LINE
  8
0
 10
-1.31445
 20
71.2774
 11
-1.39465
 21
71.4478
  0
LINE
  8
0
 10
-1.39465
 20
71.4478
 11
-1.45287
 21
71.627
  0
LINE
  8
0
 10
-1.45287
 20
71.627
 11
-1.48816
 21
71.812
  0
LINE
  8
0
 10
-1.48816
 20
71.812
 11
-1.5
 21
72
  0
LINE
  8
0
 10
-1.5
 20
72
 11
-1.48816
 21
72.188
  0
LINE
  8
0
 10
-1.48816
 20
72.188
 11
-1.45287
 21
72.373
  0
LINE
  8
0
 10
-1.45287
 20
72.373
 11
-1.39465
 21
72.5522
  0
LINE
  8
0
 10
-1.39465
 20
72.5522
 11
-1.31445
 21
72.7226
  0
LINE
  8
0
 10
-1.31445
 20
72.7226
 11
-1.21352
 21
72.8817
  0
LINE
  8
0
 10
-1.21352
 20
72.8817
 11
-1.09344
 21
73.0268
  0
LINE
  8
0
 10
-1.09344
 20
73.0268
 11
-0.956131
 21
73.1558
  0
LINE
  8
0
 10
-0.956131
 20
73.1558
 11
-0.803726
 21
73.2665
  0
LINE
  8
0
 10
-0.803726
 20
73.2665
 11
-0.638657
 21
73.3572
  0
LINE
  8
0
 10
-0.638657
 20
73.3572
 11
-0.463516
 21
73.4266
  0
LINE
  8
0
 10
-0.463516
 20
73.4266
 11
-0.281067
 21
73.4734
  0
LINE
  8
0
 10
-0.281067
 20
73.4734
 11
-0.0941772
 21
73.497
  0
LINE
  8
0
 10
-0.0941772
 20
73.497
 11
0.0941772
 21
73.497
  0
LINE
  8
0
 10
0.0941772
 20
73.497
 11
0.281067
 21
73.4734
  0
LINE
  8
0
 10
0.281067
 20
73.4734
 11
0.463516
 21
73.4266
  0
LINE
  8
0
 10
0.463516
 20
73.4266
 11
0.638657
 21
73.3572
  0
LINE
  8
0
 10
0.638657
 20
73.3572
 11
0.803726
 21
73.2665
  0
LINE
  8
0
 10
0.803726
 20
73.2665
 11
0.956131
 21
73.1558
  0
LINE
  8
0
 10
0.956131
 20
73.1558
 11
1.09344
 21
73.0268
  0
LINE
  8
0
 10
1.09344
 20
73.0268
 11
1.21352
 21
72.8817
  0
LINE
  8
0
 10
1.21352
 20
72.8817
 11
1.31445
 21
72.7226
  0
LINE
  8
0
 10
1.31445
 20
72.7226
 11
1.39465
 21
72.5522
  0
LINE
  8
0
 10
1.39465
 20
72.5522
 11
1.45287
 21
72.373
  0
LINE
  8
0
 10
1.45287
 20
72.373
 11
1.48816
 21
72.188
  0
LINE
  8
0
 10
1.48816
 20
72.188
 11
1.5
 21
72
  0
LINE
  8
0
 10
1.5
 20
72
 11
1.48816
 21
71.812
  0
LINE
  8
0
 10
1.48816
 20
71.812
 11
1.45287
 21
71.627
  0
LINE
  8
0
 10
1.45287
 20
71.627
 11
1.39465
 21
71.4478
  0
LINE
  8
0
 10
1.39465
 20
71.4478
 11
1.31445
 21
71.2774
  0
LINE
  8
0
 10
1.31445
 20
71.2774
 11
1.21352
 21
71.1183
  0
LINE
  8
0
 10
1.21352
 20
71.1183
 11
1.09344
 21
70.9732
  0
LINE
  8
0
 10
1.09344
 20
70.9732
 11
0.956131
 21
70.8442
  0
LINE
  8
0
 10
0.956131
 20
70.8442
 11
0.803726
 21
70.7335
  0
LINE
  8
0
 10
0.803726
 20
70.7335
 11
0.638657
 21
70.6428
  0
LINE
  8
0
 10
0.638657
 20
70.6428
 11
0.463516
 21
70.5734
  0
LINE
  8
0
 10
0.463516
 20
70.5734
 11
0.281067
 21
70.5266
  0
LINE
  8
0
 10
0.281067
 20
70.5266
 11
0.0941772
 21
70.503
  0
LINE
  8
0
 10
0.0941772
 20
70.503
 11
-0.0941772
 21
70.503
  0
LINE
  8
0
 10
-7.59418
 20
70.503
 11
-7.78107
 21
70.5266
  0
LINE
  8
0
 10
-7.78107
 20
70.5266
 11
-7.96352
 21
70.5734
  0
LINE
  8
0
 10
-7.96352
 20
70.5734
 11
-8.13866
 21
70.6428
  0
LINE
  8
0
 10
-8.13866
 20
70.6428
 11
-8.30373
 21
70.7335
  0
LINE
  8
0
 10
-8.30373
 20
70.7335
 11
-8.45613
 21
70.8442
  0
LINE
  8
0
 10
-8.45613
 20
70.8442
 11
-8.59344
 21
70.9732
  0
LINE
  8
0
 10
-8.59344
 20
70.9732
 11
-8.71352
 21
71.1183
  0
LINE
  8
0
 10
-8.71352
 20
71.1183
 11
-8.81445
 21
71.2774
  0
LINE
  8
0
 10
-8.81445
 20
71.2774
 11
-8.89465
 21
71.4478
  0
LINE
  8
0
 10
-8.89465
 20
71.4478
 11
-8.95287
 21
71.627
  0
LINE
  8
0
 10
-8.95287
 20
71.627
 11
-8.98816
 21
71.812
  0
LINE
  8
0
 10
-8.98816
 20
71.812
 11
-9
 21
72
  0
LINE
  8
0
 10
-9
 20
72
 11
-8.98816
 21
72.188
  0
LINE
  8
0
 10
-8.98816
 20
72.188
 11
-8.95287
 21
72.373
  0
LINE
  8
0
 10
-8.95287
 20
72.373
 11
-8.89465
 21
72.5522
  0
LINE
  8
0
 10
-8.89465
 20
72.5522
 11
-8.81445
 21
72.7226
  0
LINE
  8
0
 10
-8.81445
 20
72.7226
 11
-8.71352
 21
72.8817
  0
LINE
  8
0
 10
-8.71352
 20
72.8817
 11
-8.59344
 21
73.0268
  0
LINE
  8
0
 10
-8.59344
 20
73.0268
 11
-8.45613
 21
73.1558
  0
LINE
  8
0
 10
-8.45613
 20
73.1558
 11
-8.30373
 21
73.2665
  0
LINE
  8
0
 10
-8.30373
 20
73.2665
 11
-8.13866
 21
73.3572
  0
LINE
  8
0
 10
-8.13866
 20
73.3572
 11
-7.96352
 21
73.4266
  0
LINE
  8
0
 10
-7.96352
 20
73.4266
 11
-7.78107
 21
73.4734
  0
LINE
  8
0
 10
-7.78107
 20
73.4734
 11
-7.59418
 21
73.497
  0
LINE
  8
0
 10
-7.59418
 20
73.497
 11
-7.40581
 21
73.497
  0
LINE
  8
0
 10
-7.40581
 20
73.497
 11
-7.21892
 21
73.4734
  0
LINE
  8
0
 10
-7.21892
 20
73.4734
 11
-7.03647
 21
73.4266
  0
LINE
  8
0
 10
-7.03647
 20
73.4266
 11
-6.86133
 21
73.3572
  0
LINE
  8
0
 10
-6.86133
 20
73.3572
 11
-6.69626
 21
73.2665
  0
LINE
  8
0
 10
-6.69626
 20
73.2665
 11
-6.54385
 21
73.1558
  0
LINE
  8
0
 10
-6.54385
 20
73.1558
 11
-6.40654
 21
73.0268
  0
LINE
  8
0
 10
-6.40654
 20
73.0268
 11
-6.28647
 21
72.8817
  0
LINE
  8
0
 10
-6.28647
 20
72.8817
 11
-6.18553
 21
72.7226
  0
LINE
  8
0
 10
-6.18553
 20
72.7226
 11
-6.10533
 21
72.5522
  0
LINE
  8
0
 10
-6.10533
 20
72.5522
 11
-6.04712
 21
72.373
  0
LINE
  8
0
 10
-6.04712
 20
72.373
 11
-6.01183
 21
72.188
  0
LINE
  8
0
 10
-6.01183
 20
72.188
 11
-6
 21
72
  0
LINE
  8
0
 10
-6
 20
72
 11
-6.01183
 21
71.812
  0
LINE
  8
0
 10
-6.01183
 20
71.812
 11
-6.04712
 21
71.627
  0
LINE
  8
0
 10
-6.04712
 20
71.627
 11
-6.10533
 21
71.4478
  0
LINE
  8
0
 10
-6.10533
 20
71.4478
 11
-6.18553
 21
71.2774
  0
LINE
  8
0
 10
-6.18553
 20
71.2774
 11
-6.28647
 21
71.1183
  0
LINE
  8
0
 10
-6.28647
 20
71.1183
 11
-6.40654
 21
70.9732
  0
LINE
  8
0
 10
-6.40654
 20
70.9732
 11
-6.54385
 21
70.8442
  0
LINE
  8
0
 10
-6.54385
 20
70.8442
 11
-6.69626
 21
70.7335
  0
LINE
  8
0
 10
-6.69626
 20
70.7335
 11
-6.86133
 21
70.6428
  0
LINE
  8
0
 10
-6.86133
 20
70.6428
 11
-7.03647
 21
70.5734
  0
LINE
  8
0
 10
-7.03647
 20
70.5734
 11
-7.21892
 21
70.5266
  0
LINE
  8
0
 10
-7.21892
 20
70.5266
 11
-7.40581
 21
70.503
  0
LINE
  8
0
 10
-7.40581
 20
70.503
 11
-7.59418
 21
70.503
  0
ENDSEC
  0
SECTION
  2
OBJECTS
  0
DICTIONARY
  0
ENDSEC
  0
EOF
