  0
SECTION
  2
BLOCKS
  0
ENDSEC
  0
SECTION
  2
ENTITIES
  0
LINE
  8
0
 10
55.4369
 20
-36.9114
 11
56.0451
 21
-36.7553
  0
LINE
  8
0
 10
56.0451
 20
-36.7553
 11
56.6289
 21
-36.5241
  0
LINE
  8
0
 10
56.6289
 20
-36.5241
 11
57.1791
 21
-36.2216
  0
LINE
  8
0
 10
57.1791
 20
-36.2216
 11
57.6871
 21
-35.8526
  0
LINE
  8
0
 10
57.6871
 20
-35.8526
 11
58.1448
 21
-35.4227
  0
LINE
  8
0
 10
58.1448
 20
-35.4227
 11
58.5451
 21
-34.9389
  0
LINE
  8
0
 10
58.5451
 20
-34.9389
 11
58.8815
 21
-34.4088
  0
LINE
  8
0
 10
58.8815
 20
-34.4088
 11
59.1489
 21
-33.8406
  0
LINE
  8
0
 10
59.1489
 20
-33.8406
 11
59.3429
 21
-33.2434
  0
LINE
  8
0
 10
59.3429
 20
-33.2434
 11
59.4606
 21
-32.6267
  0
LINE
  8
0
 10
59.4606
 20
-32.6267
 11
59.5
 21
-32
  0
LINE
  8
0
 10
59.5
 20
-32
 11
59.5
 21
32
  0
LINE
  8
0
 10
59.5
 20
32
 11
59.4606
 21
32.6267
  0
LINE
  8
0
 10
59.4606
 20
32.6267
 11
59.3429
 21
33.2434
  0
LINE
  8
0
 10
59.3429
 20
33.2434
 11
59.1489
 21
33.8406
  0
LINE
  8
0
 10
59.1489
 20
33.8406
 11
58.8815
 21
34.4088
  0
LINE
  8
0
 10
58.8815
 20
34.4088
 11
58.5451
 21
34.9389
  0
LINE
  8
0
 10
58.5451
 20
34.9389
 11
58.1448
 21
35.4227
  0
LINE
  8
0
 10
58.1448
 20
35.4227
 11
57.6871
 21
35.8526
  0
LINE
  8
0
 10
57.6871
 20
35.8526
 11
57.1791
 21
36.2216
  0
LINE
  8
0
 10
57.1791
 20
36.2216
 11
56.6289
 21
36.5241
  0
LINE
  8
0
 10
56.6289
 20
36.5241
 11
56.0451
 21
36.7553
  0
LINE
  8
0
 10
56.0451
 20
36.7553
 11
55.4369
 21
36.9114
  0
LINE
  8
0
 10
55.4369
 20
36.9114
 11
54.8139
 21
36.9901
  0
LINE
  8
0
 10
54.8139
 20
36.9901
 11
-54.8139
 21
36.9901
  0
LINE
  8
0
 10
-54.8139
 20
36.9901
 11
-55.4369
 21
36.9114
  0
LINE
  8
0
 10
-55.4369
 20
36.9114
 11
-56.0451
 21
36.7553
  0
LINE
  8
0
 10
-56.0451
 20
36.7553
 11
-56.6289
 21
36.5241
  0
LINE
  8
0
 10
-56.6289
 20
36.5241
 11
-57.1791
 21
36.2216
  0
LINE
  8
0
 10
-57.1791
 20
36.2216
 11
-57.6871
 21
35.8526
  0
LINE
  8
0
 10
-57.6871
 20
35.8526
 11
-58.1448
 21
35.4227
  0
LINE
  8
0
 10
-58.1448
 20
35.4227
 11
-58.5451
 21
34.9389
  0
LINE
  8
0
 10
-58.5451
 20
34.9389
 11
-58.8815
 21
34.4088
  0
LINE
  8
0
 10
-58.8815
 20
34.4088
 11
-59.1489
 21
33.8406
  0
LINE
  8
0
 10
-59.1489
 20
33.8406
 11
-59.3429
 21
33.2434
  0
LINE
  8
0
 10
-59.3429
 20
33.2434
 11
-59.4606
 21
32.6267
  0
LINE
  8
0
 10
-59.4606
 20
32.6267
 11
-59.5
 21
32
  0
LINE
  8
0
 10
-59.5
 20
32
 11
-59.5
 21
-32
  0
LINE
  8
0
 10
-59.5
 20
-32
 11
-59.4606
 21
-32.6267
  0
LINE
  8
0
 10
-59.4606
 20
-32.6267
 11
-59.3429
 21
-33.2434
  0
LINE
  8
0
 10
-59.3429
 20
-33.2434
 11
-59.1489
 21
-33.8406
  0
LINE
  8
0
 10
-59.1489
 20
-33.8406
 11
-58.8815
 21
-34.4088
  0
LINE
  8
0
 10
-58.8815
 20
-34.4088
 11
-58.5451
 21
-34.9389
  0
LINE
  8
0
 10
-58.5451
 20
-34.9389
 11
-58.1448
 21
-35.4227
  0
LINE
  8
0
 10
-58.1448
 20
-35.4227
 11
-57.6871
 21
-35.8526
  0
LINE
  8
0
 10
-57.6871
 20
-35.8526
 11
-57.1791
 21
-36.2216
  0
LINE
  8
0
 10
-57.1791
 20
-36.2216
 11
-56.6289
 21
-36.5241
  0
LINE
  8
0
 10
-56.6289
 20
-36.5241
 11
-56.0451
 21
-36.7553
  0
LINE
  8
0
 10
-56.0451
 20
-36.7553
 11
-55.4369
 21
-36.9114
  0
LINE
  8
0
 10
-55.4369
 20
-36.9114
 11
-54.8139
 21
-36.9901
  0
LINE
  8
0
 10
-54.8139
 20
-36.9901
 11
54.8139
 21
-36.9901
  0
LINE
  8
0
 10
54.8139
 20
-36.9901
 11
55.4369
 21
-36.9114
  0
LINE
  8
0
 10
-52.6884
 20
27.0059
 11
-53.0621
 21
27.0531
  0
LINE
  8
0
 10
-53.0621
 20
27.0531
 11
-53.427
 21
27.1468
  0
LINE
  8
0
 10
-53.427
 20
27.1468
 11
-53.7773
 21
27.2855
  0
LINE
  8
0
 10
-53.7773
 20
27.2855
 11
-54.1075
 21
27.467
  0
LINE
  8
0
 10
-54.1075
 20
27.467
 11
-54.4123
 21
27.6884
  0
LINE
  8
0
 10
-54.4123
 20
27.6884
 11
-54.6869
 21
27.9464
  0
LINE
  8
0
 10
-54.6869
 20
27.9464
 11
-54.927
 21
28.2366
  0
LINE
  8
0
 10
-54.927
 20
28.2366
 11
-55.1289
 21
28.5547
  0
LINE
  8
0
 10
-55.1289
 20
28.5547
 11
-55.2893
 21
28.8956
  0
LINE
  8
0
 10
-55.2893
 20
28.8956
 11
-55.4057
 21
29.2539
  0
LINE
  8
0
 10
-55.4057
 20
29.2539
 11
-55.4763
 21
29.624
  0
LINE
  8
0
 10
-55.4763
 20
29.624
 11
-55.5
 21
30
  0
LINE
  8
0
 10
-55.5
 20
30
 11
-55.4763
 21
30.376
  0
LINE
  8
0
 10
-55.4763
 20
30.376
 11
-55.4057
 21
30.7461
  0
LINE
  8
0
 10
-55.4057
 20
30.7461
 11
-55.2893
 21
31.1044
  0
LINE
  8
0
 10
-55.2893
 20
31.1044
 11
-55.1289
 21
31.4453
  0
LINE
  8
0
 10
-55.1289
 20
31.4453
 11
-54.927
 21
31.7634
  0
LINE
  8
0
 10
-54.927
 20
31.7634
 11
-54.6869
 21
32.0536
  0
LINE
  8
0
 10
-54.6869
 20
32.0536
 11
-54.4123
 21
32.3115
  0
LINE
  8
0
 10
-54.4123
 20
32.3115
 11
-54.1075
 21
32.533
  0
LINE
  8
0
 10
-54.1075
 20
32.533
 11
-53.7773
 21
32.7145
  0
LINE
  8
0
 10
-53.7773
 20
32.7145
 11
-53.427
 21
32.8532
  0
LINE
  8
0
 10
-53.427
 20
32.8532
 11
-53.0621
 21
32.9469
  0
LINE
  8
0
 10
-53.0621
 20
32.9469
 11
-52.6884
 21
32.9941
  0
LINE
  8
0
 10
-52.6884
 20
32.9941
 11
-52.3116
 21
32.9941
  0
LINE
  8
0
 10
-52.3116
 20
32.9941
 11
-51.9379
 21
32.9469
  0
LINE
  8
0
 10
-51.9379
 20
32.9469
 11
-51.5729
 21
32.8532
  0
LINE
  8
0
 10
-51.5729
 20
32.8532
 11
-51.2227
 21
32.7145
  0
LINE
  8
0
 10
-51.2227
 20
32.7145
 11
-50.8925
 21
32.533
  0
LINE
  8
0
 10
-50.8925
 20
32.533
 11
-50.5877
 21
32.3115
  0
LINE
  8
0
 10
-50.5877
 20
32.3115
 11
-50.3131
 21
32.0536
  0
LINE
  8
0
 10
-50.3131
 20
32.0536
 11
-50.0729
 21
31.7634
  0
LINE
  8
0
 10
-50.0729
 20
31.7634
 11
-49.8711
 21
31.4453
  0
LINE
  8
0
 10
-49.8711
 20
31.4453
 11
-49.7107
 21
31.1044
  0
LINE
  8
0
 10
-49.7107
 20
31.1044
 11
-49.5942
 21
30.7461
  0
LINE
  8
0
 10
-49.5942
 20
30.7461
 11
-49.5237
 21
30.376
  0
LINE
  8
0
 10
-49.5237
 20
30.376
 11
-49.5
 21
30
  0
LINE
  8
0
 10
-49.5
 20
30
 11
-49.5237
 21
29.624
  0
LINE
  8
0
 10
-49.5237
 20
29.624
 11
-49.5942
 21
29.2539
  0
LINE
  8
0
 10
-49.5942
 20
29.2539
 11
-49.7107
 21
28.8956
  0
LINE
  8
0
 10
-49.7107
 20
28.8956
 11
-49.8711
 21
28.5547
  0
LINE
  8
0
 10
-49.8711
 20
28.5547
 11
-50.0729
 21
28.2366
  0
LINE
  8
0
 10
-50.0729
 20
28.2366
 11
-50.3131
 21
27.9464
  0
LINE
  8
0
 10
-50.3131
 20
27.9464
 11
-50.5877
 21
27.6884
  0
LINE
  8
0
 10
-50.5877
 20
27.6884
 11
-50.8925
 21
27.467
  0
LINE
  8
0
 10
-50.8925
 20
27.467
 11
-51.2227
 21
27.2855
  0
LINE
  8
0
 10
-51.2227
 20
27.2855
 11
-51.5729
 21
27.1468
  0
LINE
  8
0
 10
-51.5729
 20
27.1468
 11
-51.9379
 21
27.0531
  0
LINE
  8
0
 10
-51.9379
 20
27.0531
 11
-52.3116
 21
27.0059
  0
LINE
  8
0
 10
-52.3116
 20
27.0059
 11
-52.6884
 21
27.0059
  0
LINE
  8
0
 10
52.3116
 20
27.0059
 11
51.9379
 21
27.0531
  0
LINE
  8
0
 10
51.9379
 20
27.0531
 11
51.5729
 21
27.1468
  0
LINE
  8
0
 10
51.5729
 20
27.1468
 11
51.2227
 21
27.2855
  0
LINE
  8
0
 10
51.2227
 20
27.2855
 11
50.8925
 21
27.467
  0
LINE
  8
0
 10
50.8925
 20
27.467
 11
50.5877
 21
27.6884
  0
LINE
  8
0
 10
50.5877
 20
27.6884
 11
50.3131
 21
27.9464
  0
LINE
  8
0
 10
50.3131
 20
27.9464
 11
50.0729
 21
28.2366
  0
LINE
  8
0
 10
50.0729
 20
28.2366
 11
49.8711
 21
28.5547
  0
LINE
  8
0
 10
49.8711
 20
28.5547
 11
49.7107
 21
28.8956
  0
LINE
  8
0
 10
49.7107
 20
28.8956
 11
49.5942
 21
29.2539
  0
LINE
  8
0
 10
49.5942
 20
29.2539
 11
49.5237
 21
29.624
  0
LINE
  8
0
 10
49.5237
 20
29.624
 11
49.5
 21
30
  0
LINE
  8
0
 10
49.5
 20
30
 11
49.5237
 21
30.376
  0
LINE
  8
0
 10
49.5237
 20
30.376
 11
49.5942
 21
30.7461
  0
LINE
  8
0
 10
49.5942
 20
30.7461
 11
49.7107
 21
31.1044
  0
LINE
  8
0
 10
49.7107
 20
31.1044
 11
49.8711
 21
31.4453
  0
LINE
  8
0
 10
49.8711
 20
31.4453
 11
50.0729
 21
31.7634
  0
LINE
  8
0
 10
50.0729
 20
31.7634
 11
50.3131
 21
32.0536
  0
LINE
  8
0
 10
50.3131
 20
32.0536
 11
50.5877
 21
32.3115
  0
LINE
  8
0
 10
50.5877
 20
32.3115
 11
50.8925
 21
32.533
  0
LINE
  8
0
 10
50.8925
 20
32.533
 11
51.2227
 21
32.7145
  0
LINE
  8
0
 10
51.2227
 20
32.7145
 11
51.5729
 21
32.8532
  0
LINE
  8
0
 10
51.5729
 20
32.8532
 11
51.9379
 21
32.9469
  0
LINE
  8
0
 10
51.9379
 20
32.9469
 11
52.3116
 21
32.9941
  0
LINE
  8
0
 10
52.3116
 20
32.9941
 11
52.6884
 21
32.9941
  0
LINE
  8
0
 10
52.6884
 20
32.9941
 11
53.0621
 21
32.9469
  0
LINE
  8
0
 10
53.0621
 20
32.9469
 11
53.427
 21
32.8532
  0
LINE
  8
0
 10
53.427
 20
32.8532
 11
53.7773
 21
32.7145
  0
LINE
  8
0
 10
53.7773
 20
32.7145
 11
54.1075
 21
32.533
  0
LINE
  8
0
 10
54.1075
 20
32.533
 11
54.4123
 21
32.3115
  0
LINE
  8
0
 10
54.4123
 20
32.3115
 11
54.6869
 21
32.0536
  0
LINE
  8
0
 10
54.6869
 20
32.0536
 11
54.927
 21
31.7634
  0
LINE
  8
0
 10
54.927
 20
31.7634
 11
55.1289
 21
31.4453
  0
LINE
  8
0
 10
55.1289
 20
31.4453
 11
55.2893
 21
31.1044
  0
LINE
  8
0
 10
55.2893
 20
31.1044
 11
55.4057
 21
30.7461
  0
LINE
  8
0
 10
55.4057
 20
30.7461
 11
55.4763
 21
30.376
  0
LINE
  8
0
 10
55.4763
 20
30.376
 11
55.5
 21
30
  0
LINE
  8
0
 10
55.5
 20
30
 11
55.4763
 21
29.624
  0
LINE
  8
0
 10
55.4763
 20
29.624
 11
55.4057
 21
29.2539
  0
LINE
  8
0
 10
55.4057
 20
29.2539
 11
55.2893
 21
28.8956
  0
LINE
  8
0
 10
55.2893
 20
28.8956
 11
55.1289
 21
28.5547
  0
LINE
  8
0
 10
55.1289
 20
28.5547
 11
54.927
 21
28.2366
  0
LINE
  8
0
 10
54.927
 20
28.2366
 11
54.6869
 21
27.9464
  0
LINE
  8
0
 10
54.6869
 20
27.9464
 11
54.4123
 21
27.6884
  0
LINE
  8
0
 10
54.4123
 20
27.6884
 11
54.1075
 21
27.467
  0
LINE
  8
0
 10
54.1075
 20
27.467
 11
53.7773
 21
27.2855
  0
LINE
  8
0
 10
53.7773
 20
27.2855
 11
53.427
 21
27.1468
  0
LINE
  8
0
 10
53.427
 20
27.1468
 11
53.0621
 21
27.0531
  0
LINE
  8
0
 10
53.0621
 20
27.0531
 11
52.6884
 21
27.0059
  0
LINE
  8
0
 10
52.6884
 20
27.0059
 11
52.3116
 21
27.0059
  0
LINE
  8
0
 10
52.3116
 20
-32.9941
 11
51.9379
 21
-32.9469
  0
LINE
  8
0
 10
51.9379
 20
-32.9469
 11
51.5729
 21
-32.8532
  0
LINE
  8
0
 10
51.5729
 20
-32.8532
 11
51.2227
 21
-32.7145
  0
LINE
  8
0
 10
51.2227
 20
-32.7145
 11
50.8925
 21
-32.533
  0
LINE
  8
0
 10
50.8925
 20
-32.533
 11
50.5877
 21
-32.3115
  0
LINE
  8
0
 10
50.5877
 20
-32.3115
 11
50.3131
 21
-32.0536
  0
LINE
  8
0
 10
50.3131
 20
-32.0536
 11
50.0729
 21
-31.7634
  0
LINE
  8
0
 10
50.0729
 20
-31.7634
 11
49.8711
 21
-31.4453
  0
LINE
  8
0
 10
49.8711
 20
-31.4453
 11
49.7107
 21
-31.1044
  0
LINE
  8
0
 10
49.7107
 20
-31.1044
 11
49.5942
 21
-30.7461
  0
LINE
  8
0
 10
49.5942
 20
-30.7461
 11
49.5237
 21
-30.376
  0
LINE
  8
0
 10
49.5237
 20
-30.376
 11
49.5
 21
-30
  0
LINE
  8
0
 10
49.5
 20
-30
 11
49.5237
 21
-29.624
  0
LINE
  8
0
 10
49.5237
 20
-29.624
 11
49.5942
 21
-29.2539
  0
LINE
  8
0
 10
49.5942
 20
-29.2539
 11
49.7107
 21
-28.8956
  0
LINE
  8
0
 10
49.7107
 20
-28.8956
 11
49.8711
 21
-28.5547
  0
LINE
  8
0
 10
49.8711
 20
-28.5547
 11
50.0729
 21
-28.2366
  0
LINE
  8
0
 10
50.0729
 20
-28.2366
 11
50.3131
 21
-27.9464
  0
LINE
  8
0
 10
50.3131
 20
-27.9464
 11
50.5877
 21
-27.6884
  0
LINE
  8
0
 10
50.5877
 20
-27.6884
 11
50.8925
 21
-27.467
  0
LINE
  8
0
 10
50.8925
 20
-27.467
 11
51.2227
 21
-27.2855
  0
LINE
  8
0
 10
51.2227
 20
-27.2855
 11
51.5729
 21
-27.1468
  0
LINE
  8
0
 10
51.5729
 20
-27.1468
 11
51.9379
 21
-27.0531
  0
LINE
  8
0
 10
51.9379
 20
-27.0531
 11
52.3116
 21
-27.0059
  0
LINE
  8
0
 10
52.3116
 20
-27.0059
 11
52.6884
 21
-27.0059
  0
LINE
  8
0
 10
52.6884
 20
-27.0059
 11
53.0621
 21
-27.0531
  0
LINE
  8
0
 10
53.0621
 20
-27.0531
 11
53.427
 21
-27.1468
  0
LINE
  8
0
 10
53.427
 20
-27.1468
 11
53.7773
 21
-27.2855
  0
LINE
  8
0
 10
53.7773
 20
-27.2855
 11
54.1075
 21
-27.467
  0
LINE
  8
0
 10
54.1075
 20
-27.467
 11
54.4123
 21
-27.6884
  0
LINE
  8
0
 10
54.4123
 20
-27.6884
 11
54.6869
 21
-27.9464
  0
LINE
  8
0
 10
54.6869
 20
-27.9464
 11
54.927
 21
-28.2366
  0
LINE
  8
0
 10
54.927
 20
-28.2366
 11
55.1289
 21
-28.5547
  0
LINE
  8
0
 10
55.1289
 20
-28.5547
 11
55.2893
 21
-28.8956
  0
LINE
  8
0
 10
55.2893
 20
-28.8956
 11
55.4057
 21
-29.2539
  0
LINE
  8
0
 10
55.4057
 20
-29.2539
 11
55.4763
 21
-29.624
  0
LINE
  8
0
 10
55.4763
 20
-29.624
 11
55.5
 21
-30
  0
LINE
  8
0
 10
55.5
 20
-30
 11
55.4763
 21
-30.376
  0
LINE
  8
0
 10
55.4763
 20
-30.376
 11
55.4057
 21
-30.7461
  0
LINE
  8
0
 10
55.4057
 20
-30.7461
 11
55.2893
 21
-31.1044
  0
LINE
  8
0
 10
55.2893
 20
-31.1044
 11
55.1289
 21
-31.4453
  0
LINE
  8
0
 10
55.1289
 20
-31.4453
 11
54.927
 21
-31.7634
  0
LINE
  8
0
 10
54.927
 20
-31.7634
 11
54.6869
 21
-32.0536
  0
LINE
  8
0
 10
54.6869
 20
-32.0536
 11
54.4123
 21
-32.3115
  0
LINE
  8
0
 10
54.4123
 20
-32.3115
 11
54.1075
 21
-32.533
  0
LINE
  8
0
 10
54.1075
 20
-32.533
 11
53.7773
 21
-32.7145
  0
LINE
  8
0
 10
53.7773
 20
-32.7145
 11
53.427
 21
-32.8532
  0
LINE
  8
0
 10
53.427
 20
-32.8532
 11
53.0621
 21
-32.9469
  0
LINE
  8
0
 10
53.0621
 20
-32.9469
 11
52.6884
 21
-32.9941
  0
LINE
  8
0
 10
52.6884
 20
-32.9941
 11
52.3116
 21
-32.9941
  0
LINE
  8
0
 10
-52.6884
 20
-32.9941
 11
-53.0621
 21
-32.9469
  0
LINE
  8
0
 10
-53.0621
 20
-32.9469
 11
-53.427
 21
-32.8532
  0
LINE
  8
0
 10
-53.427
 20
-32.8532
 11
-53.7773
 21
-32.7145
  0
LINE
  8
0
 10
-53.7773
 20
-32.7145
 11
-54.1075
 21
-32.533
  0
LINE
  8
0
 10
-54.1075
 20
-32.533
 11
-54.4123
 21
-32.3115
  0
LINE
  8
0
 10
-54.4123
 20
-32.3115
 11
-54.6869
 21
-32.0536
  0
LINE
  8
0
 10
-54.6869
 20
-32.0536
 11
-54.927
 21
-31.7634
  0
LINE
  8
0
 10
-54.927
 20
-31.7634
 11
-55.1289
 21
-31.4453
  0
LINE
  8
0
 10
-55.1289
 20
-31.4453
 11
-55.2893
 21
-31.1044
  0
LINE
  8
0
 10
-55.2893
 20
-31.1044
 11
-55.4057
 21
-30.7461
  0
LINE
  8
0
 10
-55.4057
 20
-30.7461
 11
-55.4763
 21
-30.376
  0
LINE
  8
0
 10
-55.4763
 20
-30.376
 11
-55.5
 21
-30
  0
LINE
  8
0
 10
-55.5
 20
-30
 11
-55.4763
 21
-29.624
  0
LINE
  8
0
 10
-55.4763
 20
-29.624
 11
-55.4057
 21
-29.2539
  0
LINE
  8
0
 10
-55.4057
 20
-29.2539
 11
-55.2893
 21
-28.8956
  0
LINE
  8
0
 10
-55.2893
 20
-28.8956
 11
-55.1289
 21
-28.5547
  0
LINE
  8
0
 10
-55.1289
 20
-28.5547
 11
-54.927
 21
-28.2366
  0
LINE
  8
0
 10
-54.927
 20
-28.2366
 11
-54.6869
 21
-27.9464
  0
LINE
  8
0
 10
-54.6869
 20
-27.9464
 11
-54.4123
 21
-27.6884
  0
LINE
  8
0
 10
-54.4123
 20
-27.6884
 11
-54.1075
 21
-27.467
  0
LINE
  8
0
 10
-54.1075
 20
-27.467
 11
-53.7773
 21
-27.2855
  0
LINE
  8
0
 10
-53.7773
 20
-27.2855
 11
-53.427
 21
-27.1468
  0
LINE
  8
0
 10
-53.427
 20
-27.1468
 11
-53.0621
 21
-27.0531
  0
LINE
  8
0
 10
-53.0621
 20
-27.0531
 11
-52.6884
 21
-27.0059
  0
LINE
  8
0
 10
-52.6884
 20
-27.0059
 11
-52.3116
 21
-27.0059
  0
LINE
  8
0
 10
-52.3116
 20
-27.0059
 11
-51.9379
 21
-27.0531
  0
LINE
  8
0
 10
-51.9379
 20
-27.0531
 11
-51.5729
 21
-27.1468
  0
LINE
  8
0
 10
-51.5729
 20
-27.1468
 11
-51.2227
 21
-27.2855
  0
LINE
  8
0
 10
-51.2227
 20
-27.2855
 11
-50.8925
 21
-27.467
  0
LINE
  8
0
 10
-50.8925
 20
-27.467
 11
-50.5877
 21
-27.6884
  0
LINE
  8
0
 10
-50.5877
 20
-27.6884
 11
-50.3131
 21
-27.9464
  0
LINE
  8
0
 10
-50.3131
 20
-27.9464
 11
-50.0729
 21
-28.2366
  0
LINE
  8
0
 10
-50.0729
 20
-28.2366
 11
-49.8711
 21
-28.5547
  0
LINE
  8
0
 10
-49.8711
 20
-28.5547
 11
-49.7107
 21
-28.8956
  0
LINE
  8
0
 10
-49.7107
 20
-28.8956
 11
-49.5942
 21
-29.2539
  0
LINE
  8
0
 10
-49.5942
 20
-29.2539
 11
-49.5237
 21
-29.624
  0
LINE
  8
0
 10
-49.5237
 20
-29.624
 11
-49.5
 21
-30
  0
LINE
  8
0
 10
-49.5
 20
-30
 11
-49.5237
 21
-30.376
  0
LINE
  8
0
 10
-49.5237
 20
-30.376
 11
-49.5942
 21
-30.7461
  0
LINE
  8
0
 10
-49.5942
 20
-30.7461
 11
-49.7107
 21
-31.1044
  0
LINE
  8
0
 10
-49.7107
 20
-31.1044
 11
-49.8711
 21
-31.4453
  0
LINE
  8
0
 10
-49.8711
 20
-31.4453
 11
-50.0729
 21
-31.7634
  0
LINE
  8
0
 10
-50.0729
 20
-31.7634
 11
-50.3131
 21
-32.0536
  0
LINE
  8
0
 10
-50.3131
 20
-32.0536
 11
-50.5877
 21
-32.3115
  0
LINE
  8
0
 10
-50.5877
 20
-32.3115
 11
-50.8925
 21
-32.533
  0
LINE
  8
0
 10
-50.8925
 20
-32.533
 11
-51.2227
 21
-32.7145
  0
LINE
  8
0
 10
-51.2227
 20
-32.7145
 11
-51.5729
 21
-32.8532
  0
LINE
  8
0
 10
-51.5729
 20
-32.8532
 11
-51.9379
 21
-32.9469
  0
LINE
  8
0
 10
-51.9379
 20
-32.9469
 11
-52.3116
 21
-32.9941
  0
LINE
  8
0
 10
-52.3116
 20
-32.9941
 11
-52.6884
 21
-32.9941
  0
ENDSEC
  0
SECTION
  2
OBJECTS
  0
DICTIONARY
  0
ENDSEC
  0
EOF
