<?xml version="1.0" standalone="no"?>
<!DOCTYPE svg PUBLIC "-//W3C//DTD SVG 1.1//EN" "http://www.w3.org/Graphics/SVG/1.1/DTD/svg11.dtd">
<svg width="90mm" height="152mm" viewBox="-45 -238 90 152" xmlns="http://www.w3.org/2000/svg" version="1.1">
<title>OpenSCAD Model</title>
<path d="
M 40.4369,-194.089 L 41.0451,-194.245 L 41.6289,-194.476 L 42.1791,-194.778 L 42.6871,-195.147 L 43.1448,-195.577
 L 43.5451,-196.061 L 43.8815,-196.591 L 44.1489,-197.159 L 44.3429,-197.757 L 44.4606,-198.373 L 44.5,-199
 L 44.5,-233 L 44.4606,-233.627 L 44.3429,-234.243 L 44.1489,-234.841 L 43.8815,-235.409 L 43.5451,-235.939
 L 43.1448,-236.423 L 42.6871,-236.853 L 42.1791,-237.222 L 41.6289,-237.524 L 41.0451,-237.755 L 40.4369,-237.911
 L 39.8139,-237.99 L -39.8139,-237.99 L -40.4369,-237.911 L -41.0451,-237.755 L -41.6289,-237.524 L -42.1791,-237.222
 L -42.6871,-236.853 L -43.1448,-236.423 L -43.5451,-235.939 L -43.8815,-235.409 L -44.1489,-234.841 L -44.3429,-234.243
 L -44.4606,-233.627 L -44.5,-233 L -44.5,-199 L -44.4606,-198.373 L -44.3429,-197.757 L -44.1489,-197.159
 L -43.8815,-196.591 L -43.5451,-196.061 L -43.1448,-195.577 L -42.6871,-195.147 L -42.1791,-194.778 L -41.6289,-194.476
 L -41.0451,-194.245 L -40.4369,-194.089 L -39.8139,-194.01 L 39.8139,-194.01 z
M -37.6884,-228.006 L -38.0621,-228.053 L -38.427,-228.147 L -38.7773,-228.286 L -39.1075,-228.467 L -39.4123,-228.688
 L -39.6869,-228.946 L -39.927,-229.237 L -40.1289,-229.555 L -40.2893,-229.896 L -40.4057,-230.254 L -40.4763,-230.624
 L -40.5,-231 L -40.4763,-231.376 L -40.4057,-231.746 L -40.2893,-232.104 L -40.1289,-232.445 L -39.927,-232.763
 L -39.6869,-233.054 L -39.4123,-233.312 L -39.1075,-233.533 L -38.7773,-233.714 L -38.427,-233.853 L -38.0621,-233.947
 L -37.6884,-233.994 L -37.3116,-233.994 L -36.9379,-233.947 L -36.5729,-233.853 L -36.2227,-233.714 L -35.8925,-233.533
 L -35.5877,-233.312 L -35.3131,-233.054 L -35.0729,-232.763 L -34.8711,-232.445 L -34.7107,-232.104 L -34.5942,-231.746
 L -34.5237,-231.376 L -34.5,-231 L -34.5237,-230.624 L -34.5942,-230.254 L -34.7107,-229.896 L -34.8711,-229.555
 L -35.0729,-229.237 L -35.3131,-228.946 L -35.5877,-228.688 L -35.8925,-228.467 L -36.2227,-228.286 L -36.5729,-228.147
 L -36.9379,-228.053 L -37.3116,-228.006 z
M 37.3116,-228.006 L 36.9379,-228.053 L 36.5729,-228.147 L 36.2227,-228.286 L 35.8925,-228.467 L 35.5877,-228.688
 L 35.3131,-228.946 L 35.0729,-229.237 L 34.8711,-229.555 L 34.7107,-229.896 L 34.5942,-230.254 L 34.5237,-230.624
 L 34.5,-231 L 34.5237,-231.376 L 34.5942,-231.746 L 34.7107,-232.104 L 34.8711,-232.445 L 35.0729,-232.763
 L 35.3131,-233.054 L 35.5877,-233.312 L 35.8925,-233.533 L 36.2227,-233.714 L 36.5729,-233.853 L 36.9379,-233.947
 L 37.3116,-233.994 L 37.6884,-233.994 L 38.0621,-233.947 L 38.427,-233.853 L 38.7773,-233.714 L 39.1075,-233.533
 L 39.4123,-233.312 L 39.6869,-233.054 L 39.927,-232.763 L 40.1289,-232.445 L 40.2893,-232.104 L 40.4057,-231.746
 L 40.4763,-231.376 L 40.5,-231 L 40.4763,-230.624 L 40.4057,-230.254 L 40.2893,-229.896 L 40.1289,-229.555
 L 39.927,-229.237 L 39.6869,-228.946 L 39.4123,-228.688 L 39.1075,-228.467 L 38.7773,-228.286 L 38.427,-228.147
 L 38.0621,-228.053 L 37.6884,-228.006 z
M -37.6884,-198.006 L -38.0621,-198.053 L -38.427,-198.147 L -38.7773,-198.286 L -39.1075,-198.467 L -39.4123,-198.688
 L -39.6869,-198.946 L -39.927,-199.237 L -40.1289,-199.555 L -40.2893,-199.896 L -40.4057,-200.254 L -40.4763,-200.624
 L -40.5,-201 L -40.4763,-201.376 L -40.4057,-201.746 L -40.2893,-202.104 L -40.1289,-202.445 L -39.927,-202.763
 L -39.6869,-203.054 L -39.4123,-203.312 L -39.1075,-203.533 L -38.7773,-203.714 L -38.427,-203.853 L -38.0621,-203.947
 L -37.6884,-203.994 L -37.3116,-203.994 L -36.9379,-203.947 L -36.5729,-203.853 L -36.2227,-203.714 L -35.8925,-203.533
 L -35.5877,-203.312 L -35.3131,-203.054 L -35.0729,-202.763 L -34.8711,-202.445 L -34.7107,-202.104 L -34.5942,-201.746
 L -34.5237,-201.376 L -34.5,-201 L -34.5237,-200.624 L -34.5942,-200.254 L -34.7107,-199.896 L -34.8711,-199.555
 L -35.0729,-199.237 L -35.3131,-198.946 L -35.5877,-198.688 L -35.8925,-198.467 L -36.2227,-198.286 L -36.5729,-198.147
 L -36.9379,-198.053 L -37.3116,-198.006 z
M 37.3116,-198.006 L 36.9379,-198.053 L 36.5729,-198.147 L 36.2227,-198.286 L 35.8925,-198.467 L 35.5877,-198.688
 L 35.3131,-198.946 L 35.0729,-199.237 L 34.8711,-199.555 L 34.7107,-199.896 L 34.5942,-200.254 L 34.5237,-200.624
 L 34.5,-201 L 34.5237,-201.376 L 34.5942,-201.746 L 34.7107,-202.104 L 34.8711,-202.445 L 35.0729,-202.763
 L 35.3131,-203.054 L 35.5877,-203.312 L 35.8925,-203.533 L 36.2227,-203.714 L 36.5729,-203.853 L 36.9379,-203.947
 L 37.3116,-203.994 L 37.6884,-203.994 L 38.0621,-203.947 L 38.427,-203.853 L 38.7773,-203.714 L 39.1075,-203.533
 L 39.4123,-203.312 L 39.6869,-203.054 L 39.927,-202.763 L 40.1289,-202.445 L 40.2893,-202.104 L 40.4057,-201.746
 L 40.4763,-201.376 L 40.5,-201 L 40.4763,-200.624 L 40.4057,-200.254 L 40.2893,-199.896 L 40.1289,-199.555
 L 39.927,-199.237 L 39.6869,-198.946 L 39.4123,-198.688 L 39.1075,-198.467 L 38.7773,-198.286 L 38.427,-198.147
 L 38.0621,-198.053 L 37.6884,-198.006 z
M 40.4369,-140.089 L 41.0451,-140.245 L 41.6289,-140.476 L 42.1791,-140.778 L 42.6871,-141.147 L 43.1448,-141.577
 L 43.5451,-142.061 L 43.8815,-142.591 L 44.1489,-143.159 L 44.3429,-143.757 L 44.4606,-144.373 L 44.5,-145
 L 44.5,-179 L 44.4606,-179.627 L 44.3429,-180.243 L 44.1489,-180.841 L 43.8815,-181.409 L 43.5451,-181.939
 L 43.1448,-182.423 L 42.6871,-182.853 L 42.1791,-183.222 L 41.6289,-183.524 L 41.0451,-183.755 L 40.4369,-183.911
 L 39.8139,-183.99 L -39.8139,-183.99 L -40.4369,-183.911 L -41.0451,-183.755 L -41.6289,-183.524 L -42.1791,-183.222
 L -42.6871,-182.853 L -43.1448,-182.423 L -43.5451,-181.939 L -43.8815,-181.409 L -44.1489,-180.841 L -44.3429,-180.243
 L -44.4606,-179.627 L -44.5,-179 L -44.5,-145 L -44.4606,-144.373 L -44.3429,-143.757 L -44.1489,-143.159
 L -43.8815,-142.591 L -43.5451,-142.061 L -43.1448,-141.577 L -42.6871,-141.147 L -42.1791,-140.778 L -41.6289,-140.476
 L -41.0451,-140.245 L -40.4369,-140.089 L -39.8139,-140.01 L 39.8139,-140.01 z
M -37.6884,-174.006 L -38.0621,-174.053 L -38.427,-174.147 L -38.7773,-174.286 L -39.1075,-174.467 L -39.4123,-174.688
 L -39.6869,-174.946 L -39.927,-175.237 L -40.1289,-175.555 L -40.2893,-175.896 L -40.4057,-176.254 L -40.4763,-176.624
 L -40.5,-177 L -40.4763,-177.376 L -40.4057,-177.746 L -40.2893,-178.104 L -40.1289,-178.445 L -39.927,-178.763
 L -39.6869,-179.054 L -39.4123,-179.312 L -39.1075,-179.533 L -38.7773,-179.714 L -38.427,-179.853 L -38.0621,-179.947
 L -37.6884,-179.994 L -37.3116,-179.994 L -36.9379,-179.947 L -36.5729,-179.853 L -36.2227,-179.714 L -35.8925,-179.533
 L -35.5877,-179.312 L -35.3131,-179.054 L -35.0729,-178.763 L -34.8711,-178.445 L -34.7107,-178.104 L -34.5942,-177.746
 L -34.5237,-177.376 L -34.5,-177 L -34.5237,-176.624 L -34.5942,-176.254 L -34.7107,-175.896 L -34.8711,-175.555
 L -35.0729,-175.237 L -35.3131,-174.946 L -35.5877,-174.688 L -35.8925,-174.467 L -36.2227,-174.286 L -36.5729,-174.147
 L -36.9379,-174.053 L -37.3116,-174.006 z
M 37.3116,-174.006 L 36.9379,-174.053 L 36.5729,-174.147 L 36.2227,-174.286 L 35.8925,-174.467 L 35.5877,-174.688
 L 35.3131,-174.946 L 35.0729,-175.237 L 34.8711,-175.555 L 34.7107,-175.896 L 34.5942,-176.254 L 34.5237,-176.624
 L 34.5,-177 L 34.5237,-177.376 L 34.5942,-177.746 L 34.7107,-178.104 L 34.8711,-178.445 L 35.0729,-178.763
 L 35.3131,-179.054 L 35.5877,-179.312 L 35.8925,-179.533 L 36.2227,-179.714 L 36.5729,-179.853 L 36.9379,-179.947
 L 37.3116,-179.994 L 37.6884,-179.994 L 38.0621,-179.947 L 38.427,-179.853 L 38.7773,-179.714 L 39.1075,-179.533
 L 39.4123,-179.312 L 39.6869,-179.054 L 39.927,-178.763 L 40.1289,-178.445 L 40.2893,-178.104 L 40.4057,-177.746
 L 40.4763,-177.376 L 40.5,-177 L 40.4763,-176.624 L 40.4057,-176.254 L 40.2893,-175.896 L 40.1289,-175.555
 L 39.927,-175.237 L 39.6869,-174.946 L 39.4123,-174.688 L 39.1075,-174.467 L 38.7773,-174.286 L 38.427,-174.147
 L 38.0621,-174.053 L 37.6884,-174.006 z
M -37.6884,-144.006 L -38.0621,-144.053 L -38.427,-144.147 L -38.7773,-144.286 L -39.1075,-144.467 L -39.4123,-144.688
 L -39.6869,-144.946 L -39.927,-145.237 L -40.1289,-145.555 L -40.2893,-145.896 L -40.4057,-146.254 L -40.4763,-146.624
 L -40.5,-147 L -40.4763,-147.376 L -40.4057,-147.746 L -40.2893,-148.104 L -40.1289,-148.445 L -39.927,-148.763
 L -39.6869,-149.054 L -39.4123,-149.312 L -39.1075,-149.533 L -38.7773,-149.714 L -38.427,-149.853 L -38.0621,-149.947
 L -37.6884,-149.994 L -37.3116,-149.994 L -36.9379,-149.947 L -36.5729,-149.853 L -36.2227,-149.714 L -35.8925,-149.533
 L -35.5877,-149.312 L -35.3131,-149.054 L -35.0729,-148.763 L -34.8711,-148.445 L -34.7107,-148.104 L -34.5942,-147.746
 L -34.5237,-147.376 L -34.5,-147 L -34.5237,-146.624 L -34.5942,-146.254 L -34.7107,-145.896 L -34.8711,-145.555
 L -35.0729,-145.237 L -35.3131,-144.946 L -35.5877,-144.688 L -35.8925,-144.467 L -36.2227,-144.286 L -36.5729,-144.147
 L -36.9379,-144.053 L -37.3116,-144.006 z
M 37.3116,-144.006 L 36.9379,-144.053 L 36.5729,-144.147 L 36.2227,-144.286 L 35.8925,-144.467 L 35.5877,-144.688
 L 35.3131,-144.946 L 35.0729,-145.237 L 34.8711,-145.555 L 34.7107,-145.896 L 34.5942,-146.254 L 34.5237,-146.624
 L 34.5,-147 L 34.5237,-147.376 L 34.5942,-147.746 L 34.7107,-148.104 L 34.8711,-148.445 L 35.0729,-148.763
 L 35.3131,-149.054 L 35.5877,-149.312 L 35.8925,-149.533 L 36.2227,-149.714 L 36.5729,-149.853 L 36.9379,-149.947
 L 37.3116,-149.994 L 37.6884,-149.994 L 38.0621,-149.947 L 38.427,-149.853 L 38.7773,-149.714 L 39.1075,-149.533
 L 39.4123,-149.312 L 39.6869,-149.054 L 39.927,-148.763 L 40.1289,-148.445 L 40.2893,-148.104 L 40.4057,-147.746
 L 40.4763,-147.376 L 40.5,-147 L 40.4763,-146.624 L 40.4057,-146.254 L 40.2893,-145.896 L 40.1289,-145.555
 L 39.927,-145.237 L 39.6869,-144.946 L 39.4123,-144.688 L 39.1075,-144.467 L 38.7773,-144.286 L 38.427,-144.147
 L 38.0621,-144.053 L 37.6884,-144.006 z
M 40.4369,-86.0886 L 41.0451,-86.2447 L 41.6289,-86.4759 L 42.1791,-86.7784 L 42.6871,-87.1474 L 43.1448,-87.5773
 L 43.5451,-88.0611 L 43.8815,-88.5912 L 44.1489,-89.1594 L 44.3429,-89.7566 L 44.4606,-90.3733 L 44.5,-91
 L 44.5,-125 L 44.4606,-125.627 L 44.3429,-126.243 L 44.1489,-126.841 L 43.8815,-127.409 L 43.5451,-127.939
 L 43.1448,-128.423 L 42.6871,-128.853 L 42.1791,-129.222 L 41.6289,-129.524 L 41.0451,-129.755 L 40.4369,-129.911
 L 39.8139,-129.99 L -39.8139,-129.99 L -40.4369,-129.911 L -41.0451,-129.755 L -41.6289,-129.524 L -42.1791,-129.222
 L -42.6871,-128.853 L -43.1448,-128.423 L -43.5451,-127.939 L -43.8815,-127.409 L -44.1489,-126.841 L -44.3429,-126.243
 L -44.4606,-125.627 L -44.5,-125 L -44.5,-91 L -44.4606,-90.3733 L -44.3429,-89.7566 L -44.1489,-89.1594
 L -43.8815,-88.5912 L -43.5451,-88.0611 L -43.1448,-87.5773 L -42.6871,-87.1474 L -42.1791,-86.7784 L -41.6289,-86.4759
 L -41.0451,-86.2447 L -40.4369,-86.0886 L -39.8139,-86.0099 L 39.8139,-86.0099 z
M 37.3116,-120.006 L 36.9379,-120.053 L 36.5729,-120.147 L 36.2227,-120.286 L 35.8925,-120.467 L 35.5877,-120.688
 L 35.3131,-120.946 L 35.0729,-121.237 L 34.8711,-121.555 L 34.7107,-121.896 L 34.5942,-122.254 L 34.5237,-122.624
 L 34.5,-123 L 34.5237,-123.376 L 34.5942,-123.746 L 34.7107,-124.104 L 34.8711,-124.445 L 35.0729,-124.763
 L 35.3131,-125.054 L 35.5877,-125.312 L 35.8925,-125.533 L 36.2227,-125.714 L 36.5729,-125.853 L 36.9379,-125.947
 L 37.3116,-125.994 L 37.6884,-125.994 L 38.0621,-125.947 L 38.427,-125.853 L 38.7773,-125.714 L 39.1075,-125.533
 L 39.4123,-125.312 L 39.6869,-125.054 L 39.927,-124.763 L 40.1289,-124.445 L 40.2893,-124.104 L 40.4057,-123.746
 L 40.4763,-123.376 L 40.5,-123 L 40.4763,-122.624 L 40.4057,-122.254 L 40.2893,-121.896 L 40.1289,-121.555
 L 39.927,-121.237 L 39.6869,-120.946 L 39.4123,-120.688 L 39.1075,-120.467 L 38.7773,-120.286 L 38.427,-120.147
 L 38.0621,-120.053 L 37.6884,-120.006 z
M -37.6884,-120.006 L -38.0621,-120.053 L -38.427,-120.147 L -38.7773,-120.286 L -39.1075,-120.467 L -39.4123,-120.688
 L -39.6869,-120.946 L -39.927,-121.237 L -40.1289,-121.555 L -40.2893,-121.896 L -40.4057,-122.254 L -40.4763,-122.624
 L -40.5,-123 L -40.4763,-123.376 L -40.4057,-123.746 L -40.2893,-124.104 L -40.1289,-124.445 L -39.927,-124.763
 L -39.6869,-125.054 L -39.4123,-125.312 L -39.1075,-125.533 L -38.7773,-125.714 L -38.427,-125.853 L -38.0621,-125.947
 L -37.6884,-125.994 L -37.3116,-125.994 L -36.9379,-125.947 L -36.5729,-125.853 L -36.2227,-125.714 L -35.8925,-125.533
 L -35.5877,-125.312 L -35.3131,-125.054 L -35.0729,-124.763 L -34.8711,-124.445 L -34.7107,-124.104 L -34.5942,-123.746
 L -34.5237,-123.376 L -34.5,-123 L -34.5237,-122.624 L -34.5942,-122.254 L -34.7107,-121.896 L -34.8711,-121.555
 L -35.0729,-121.237 L -35.3131,-120.946 L -35.5877,-120.688 L -35.8925,-120.467 L -36.2227,-120.286 L -36.5729,-120.147
 L -36.9379,-120.053 L -37.3116,-120.006 z
M -37.6884,-90.0059 L -38.0621,-90.0531 L -38.427,-90.1468 L -38.7773,-90.2855 L -39.1075,-90.467 L -39.4123,-90.6885
 L -39.6869,-90.9464 L -39.927,-91.2366 L -40.1289,-91.5547 L -40.2893,-91.8956 L -40.4057,-92.2539 L -40.4763,-92.624
 L -40.5,-93 L -40.4763,-93.376 L -40.4057,-93.7461 L -40.2893,-94.1044 L -40.1289,-94.4453 L -39.927,-94.7634
 L -39.6869,-95.0536 L -39.4123,-95.3116 L -39.1075,-95.533 L -38.7773,-95.7145 L -38.427,-95.8532 L -38.0621,-95.9469
 L -37.6884,-95.9941 L -37.3116,-95.9941 L -36.9379,-95.9469 L -36.5729,-95.8532 L -36.2227,-95.7145 L -35.8925,-95.533
 L -35.5877,-95.3116 L -35.3131,-95.0536 L -35.0729,-94.7634 L -34.8711,-94.4453 L -34.7107,-94.1044 L -34.5942,-93.7461
 L -34.5237,-93.376 L -34.5,-93 L -34.5237,-92.624 L -34.5942,-92.2539 L -34.7107,-91.8956 L -34.8711,-91.5547
 L -35.0729,-91.2366 L -35.3131,-90.9464 L -35.5877,-90.6885 L -35.8925,-90.467 L -36.2227,-90.2855 L -36.5729,-90.1468
 L -36.9379,-90.0531 L -37.3116,-90.0059 z
M 37.3116,-90.0059 L 36.9379,-90.0531 L 36.5729,-90.1468 L 36.2227,-90.2855 L 35.8925,-90.467 L 35.5877,-90.6885
 L 35.3131,-90.9464 L 35.0729,-91.2366 L 34.8711,-91.5547 L 34.7107,-91.8956 L 34.5942,-92.2539 L 34.5237,-92.624
 L 34.5,-93 L 34.5237,-93.376 L 34.5942,-93.7461 L 34.7107,-94.1044 L 34.8711,-94.4453 L 35.0729,-94.7634
 L 35.3131,-95.0536 L 35.5877,-95.3116 L 35.8925,-95.533 L 36.2227,-95.7145 L 36.5729,-95.8532 L 36.9379,-95.9469
 L 37.3116,-95.9941 L 37.6884,-95.9941 L 38.0621,-95.9469 L 38.427,-95.8532 L 38.7773,-95.7145 L 39.1075,-95.533
 L 39.4123,-95.3116 L 39.6869,-95.0536 L 39.927,-94.7634 L 40.1289,-94.4453 L 40.2893,-94.1044 L 40.4057,-93.7461
 L 40.4763,-93.376 L 40.5,-93 L 40.4763,-92.624 L 40.4057,-92.2539 L 40.2893,-91.8956 L 40.1289,-91.5547
 L 39.927,-91.2366 L 39.6869,-90.9464 L 39.4123,-90.6885 L 39.1075,-90.467 L 38.7773,-90.2855 L 38.427,-90.1468
 L 38.0621,-90.0531 L 37.6884,-90.0059 z
" stroke="black" fill="lightgray" stroke-width="0.5"/>
</svg>
