  0
SECTION
  2
BLOCKS
  0
ENDSEC
  0
SECTION
  2
ENTITIES
  0
LINE
  8
0
 10
115.437
 20
-21.9114
 11
116.045
 21
-21.7553
  0
LINE
  8
0
 10
116.045
 20
-21.7553
 11
116.629
 21
-21.5241
  0
LINE
  8
0
 10
116.629
 20
-21.5241
 11
117.179
 21
-21.2216
  0
LINE
  8
0
 10
117.179
 20
-21.2216
 11
117.687
 21
-20.8526
  0
LINE
  8
0
 10
117.687
 20
-20.8526
 11
118.145
 21
-20.4227
  0
LINE
  8
0
 10
118.145
 20
-20.4227
 11
118.545
 21
-19.9389
  0
LINE
  8
0
 10
118.545
 20
-19.9389
 11
118.882
 21
-19.4088
  0
LINE
  8
0
 10
118.882
 20
-19.4088
 11
119.149
 21
-18.8406
  0
LINE
  8
0
 10
119.149
 20
-18.8406
 11
119.343
 21
-18.2434
  0
LINE
  8
0
 10
119.343
 20
-18.2434
 11
119.461
 21
-17.6267
  0
LINE
  8
0
 10
119.461
 20
-17.6267
 11
119.5
 21
-17
  0
LINE
  8
0
 10
119.5
 20
-17
 11
119.5
 21
17
  0
LINE
  8
0
 10
119.5
 20
17
 11
119.461
 21
17.6267
  0
LINE
  8
0
 10
119.461
 20
17.6267
 11
119.343
 21
18.2434
  0
LINE
  8
0
 10
119.343
 20
18.2434
 11
119.149
 21
18.8406
  0
LINE
  8
0
 10
119.149
 20
18.8406
 11
118.882
 21
19.4088
  0
LINE
  8
0
 10
118.882
 20
19.4088
 11
118.545
 21
19.9389
  0
LINE
  8
0
 10
118.545
 20
19.9389
 11
118.145
 21
20.4227
  0
LINE
  8
0
 10
118.145
 20
20.4227
 11
117.687
 21
20.8526
  0
LINE
  8
0
 10
117.687
 20
20.8526
 11
117.179
 21
21.2216
  0
LINE
  8
0
 10
117.179
 20
21.2216
 11
116.629
 21
21.5241
  0
LINE
  8
0
 10
116.629
 20
21.5241
 11
116.045
 21
21.7553
  0
LINE
  8
0
 10
116.045
 20
21.7553
 11
115.437
 21
21.9114
  0
LINE
  8
0
 10
115.437
 20
21.9114
 11
114.814
 21
21.9901
  0
LINE
  8
0
 10
114.814
 20
21.9901
 11
-114.814
 21
21.9901
  0
LINE
  8
0
 10
-114.814
 20
21.9901
 11
-115.437
 21
21.9114
  0
LINE
  8
0
 10
-115.437
 20
21.9114
 11
-116.045
 21
21.7553
  0
LINE
  8
0
 10
-116.045
 20
21.7553
 11
-116.629
 21
21.5241
  0
LINE
  8
0
 10
-116.629
 20
21.5241
 11
-117.179
 21
21.2216
  0
LINE
  8
0
 10
-117.179
 20
21.2216
 11
-117.687
 21
20.8526
  0
LINE
  8
0
 10
-117.687
 20
20.8526
 11
-118.145
 21
20.4227
  0
LINE
  8
0
 10
-118.145
 20
20.4227
 11
-118.545
 21
19.9389
  0
LINE
  8
0
 10
-118.545
 20
19.9389
 11
-118.882
 21
19.4088
  0
LINE
  8
0
 10
-118.882
 20
19.4088
 11
-119.149
 21
18.8406
  0
LINE
  8
0
 10
-119.149
 20
18.8406
 11
-119.343
 21
18.2434
  0
LINE
  8
0
 10
-119.343
 20
18.2434
 11
-119.461
 21
17.6267
  0
LINE
  8
0
 10
-119.461
 20
17.6267
 11
-119.5
 21
17
  0
LINE
  8
0
 10
-119.5
 20
17
 11
-119.5
 21
-17
  0
LINE
  8
0
 10
-119.5
 20
-17
 11
-119.461
 21
-17.6267
  0
LINE
  8
0
 10
-119.461
 20
-17.6267
 11
-119.343
 21
-18.2434
  0
LINE
  8
0
 10
-119.343
 20
-18.2434
 11
-119.149
 21
-18.8406
  0
LINE
  8
0
 10
-119.149
 20
-18.8406
 11
-118.882
 21
-19.4088
  0
LINE
  8
0
 10
-118.882
 20
-19.4088
 11
-118.545
 21
-19.9389
  0
LINE
  8
0
 10
-118.545
 20
-19.9389
 11
-118.145
 21
-20.4227
  0
LINE
  8
0
 10
-118.145
 20
-20.4227
 11
-117.687
 21
-20.8526
  0
LINE
  8
0
 10
-117.687
 20
-20.8526
 11
-117.179
 21
-21.2216
  0
LINE
  8
0
 10
-117.179
 20
-21.2216
 11
-116.629
 21
-21.5241
  0
LINE
  8
0
 10
-116.629
 20
-21.5241
 11
-116.045
 21
-21.7553
  0
LINE
  8
0
 10
-116.045
 20
-21.7553
 11
-115.437
 21
-21.9114
  0
LINE
  8
0
 10
-115.437
 20
-21.9114
 11
-114.814
 21
-21.9901
  0
LINE
  8
0
 10
-114.814
 20
-21.9901
 11
114.814
 21
-21.9901
  0
LINE
  8
0
 10
114.814
 20
-21.9901
 11
115.437
 21
-21.9114
  0
LINE
  8
0
 10
109.524
 20
15.376
 11
109.594
 21
15.7461
  0
LINE
  8
0
 10
109.594
 20
15.7461
 11
109.711
 21
16.1044
  0
LINE
  8
0
 10
109.711
 20
16.1044
 11
109.871
 21
16.4453
  0
LINE
  8
0
 10
109.871
 20
16.4453
 11
110.073
 21
16.7634
  0
LINE
  8
0
 10
110.073
 20
16.7634
 11
110.313
 21
17.0536
  0
LINE
  8
0
 10
110.313
 20
17.0536
 11
110.588
 21
17.3115
  0
LINE
  8
0
 10
110.588
 20
17.3115
 11
110.893
 21
17.533
  0
LINE
  8
0
 10
110.893
 20
17.533
 11
111.223
 21
17.7145
  0
LINE
  8
0
 10
111.223
 20
17.7145
 11
111.573
 21
17.8532
  0
LINE
  8
0
 10
111.573
 20
17.8532
 11
111.938
 21
17.9469
  0
LINE
  8
0
 10
111.938
 20
17.9469
 11
112.312
 21
17.9941
  0
LINE
  8
0
 10
112.312
 20
17.9941
 11
112.688
 21
17.9941
  0
LINE
  8
0
 10
112.688
 20
17.9941
 11
113.062
 21
17.9469
  0
LINE
  8
0
 10
113.062
 20
17.9469
 11
113.427
 21
17.8532
  0
LINE
  8
0
 10
113.427
 20
17.8532
 11
113.777
 21
17.7145
  0
LINE
  8
0
 10
113.777
 20
17.7145
 11
114.107
 21
17.533
  0
LINE
  8
0
 10
114.107
 20
17.533
 11
114.412
 21
17.3115
  0
LINE
  8
0
 10
114.412
 20
17.3115
 11
114.687
 21
17.0536
  0
LINE
  8
0
 10
114.687
 20
17.0536
 11
114.927
 21
16.7634
  0
LINE
  8
0
 10
114.927
 20
16.7634
 11
115.129
 21
16.4453
  0
LINE
  8
0
 10
115.129
 20
16.4453
 11
115.289
 21
16.1044
  0
LINE
  8
0
 10
115.289
 20
16.1044
 11
115.406
 21
15.7461
  0
LINE
  8
0
 10
115.406
 20
15.7461
 11
115.476
 21
15.376
  0
LINE
  8
0
 10
115.476
 20
15.376
 11
115.5
 21
15
  0
LINE
  8
0
 10
115.5
 20
15
 11
115.476
 21
14.624
  0
LINE
  8
0
 10
115.476
 20
14.624
 11
115.406
 21
14.2539
  0
LINE
  8
0
 10
115.406
 20
14.2539
 11
115.289
 21
13.8956
  0
LINE
  8
0
 10
115.289
 20
13.8956
 11
115.129
 21
13.5547
  0
LINE
  8
0
 10
115.129
 20
13.5547
 11
114.927
 21
13.2366
  0
LINE
  8
0
 10
114.927
 20
13.2366
 11
114.687
 21
12.9464
  0
LINE
  8
0
 10
114.687
 20
12.9464
 11
114.412
 21
12.6884
  0
LINE
  8
0
 10
114.412
 20
12.6884
 11
114.107
 21
12.467
  0
LINE
  8
0
 10
114.107
 20
12.467
 11
113.777
 21
12.2855
  0
LINE
  8
0
 10
113.777
 20
12.2855
 11
113.427
 21
12.1468
  0
LINE
  8
0
 10
113.427
 20
12.1468
 11
113.062
 21
12.0531
  0
LINE
  8
0
 10
113.062
 20
12.0531
 11
112.688
 21
12.0059
  0
LINE
  8
0
 10
112.688
 20
12.0059
 11
112.312
 21
12.0059
  0
LINE
  8
0
 10
112.312
 20
12.0059
 11
111.938
 21
12.0531
  0
LINE
  8
0
 10
111.938
 20
12.0531
 11
111.573
 21
12.1468
  0
LINE
  8
0
 10
111.573
 20
12.1468
 11
111.223
 21
12.2855
  0
LINE
  8
0
 10
111.223
 20
12.2855
 11
110.893
 21
12.467
  0
LINE
  8
0
 10
110.893
 20
12.467
 11
110.588
 21
12.6884
  0
LINE
  8
0
 10
110.588
 20
12.6884
 11
110.313
 21
12.9464
  0
LINE
  8
0
 10
110.313
 20
12.9464
 11
110.073
 21
13.2366
  0
LINE
  8
0
 10
110.073
 20
13.2366
 11
109.871
 21
13.5547
  0
LINE
  8
0
 10
109.871
 20
13.5547
 11
109.711
 21
13.8956
  0
LINE
  8
0
 10
109.711
 20
13.8956
 11
109.594
 21
14.2539
  0
LINE
  8
0
 10
109.594
 20
14.2539
 11
109.524
 21
14.624
  0
LINE
  8
0
 10
109.524
 20
14.624
 11
109.5
 21
15
  0
LINE
  8
0
 10
109.5
 20
15
 11
109.524
 21
15.376
  0
LINE
  8
0
 10
-112.688
 20
-17.9941
 11
-113.062
 21
-17.9469
  0
LINE
  8
0
 10
-113.062
 20
-17.9469
 11
-113.427
 21
-17.8532
  0
LINE
  8
0
 10
-113.427
 20
-17.8532
 11
-113.777
 21
-17.7145
  0
LINE
  8
0
 10
-113.777
 20
-17.7145
 11
-114.107
 21
-17.533
  0
LINE
  8
0
 10
-114.107
 20
-17.533
 11
-114.412
 21
-17.3115
  0
LINE
  8
0
 10
-114.412
 20
-17.3115
 11
-114.687
 21
-17.0536
  0
LINE
  8
0
 10
-114.687
 20
-17.0536
 11
-114.927
 21
-16.7634
  0
LINE
  8
0
 10
-114.927
 20
-16.7634
 11
-115.129
 21
-16.4453
  0
LINE
  8
0
 10
-115.129
 20
-16.4453
 11
-115.289
 21
-16.1044
  0
LINE
  8
0
 10
-115.289
 20
-16.1044
 11
-115.406
 21
-15.7461
  0
LINE
  8
0
 10
-115.406
 20
-15.7461
 11
-115.476
 21
-15.376
  0
LINE
  8
0
 10
-115.476
 20
-15.376
 11
-115.5
 21
-15
  0
LINE
  8
0
 10
-115.5
 20
-15
 11
-115.476
 21
-14.624
  0
LINE
  8
0
 10
-115.476
 20
-14.624
 11
-115.406
 21
-14.2539
  0
LINE
  8
0
 10
-115.406
 20
-14.2539
 11
-115.289
 21
-13.8956
  0
LINE
  8
0
 10
-115.289
 20
-13.8956
 11
-115.129
 21
-13.5547
  0
LINE
  8
0
 10
-115.129
 20
-13.5547
 11
-114.927
 21
-13.2366
  0
LINE
  8
0
 10
-114.927
 20
-13.2366
 11
-114.687
 21
-12.9464
  0
LINE
  8
0
 10
-114.687
 20
-12.9464
 11
-114.412
 21
-12.6884
  0
LINE
  8
0
 10
-114.412
 20
-12.6884
 11
-114.107
 21
-12.467
  0
LINE
  8
0
 10
-114.107
 20
-12.467
 11
-113.777
 21
-12.2855
  0
LINE
  8
0
 10
-113.777
 20
-12.2855
 11
-113.427
 21
-12.1468
  0
LINE
  8
0
 10
-113.427
 20
-12.1468
 11
-113.062
 21
-12.0531
  0
LINE
  8
0
 10
-113.062
 20
-12.0531
 11
-112.688
 21
-12.0059
  0
LINE
  8
0
 10
-112.688
 20
-12.0059
 11
-112.312
 21
-12.0059
  0
LINE
  8
0
 10
-112.312
 20
-12.0059
 11
-111.938
 21
-12.0531
  0
LINE
  8
0
 10
-111.938
 20
-12.0531
 11
-111.573
 21
-12.1468
  0
LINE
  8
0
 10
-111.573
 20
-12.1468
 11
-111.223
 21
-12.2855
  0
LINE
  8
0
 10
-111.223
 20
-12.2855
 11
-110.893
 21
-12.467
  0
LINE
  8
0
 10
-110.893
 20
-12.467
 11
-110.588
 21
-12.6884
  0
LINE
  8
0
 10
-110.588
 20
-12.6884
 11
-110.313
 21
-12.9464
  0
LINE
  8
0
 10
-110.313
 20
-12.9464
 11
-110.073
 21
-13.2366
  0
LINE
  8
0
 10
-110.073
 20
-13.2366
 11
-109.871
 21
-13.5547
  0
LINE
  8
0
 10
-109.871
 20
-13.5547
 11
-109.711
 21
-13.8956
  0
LINE
  8
0
 10
-109.711
 20
-13.8956
 11
-109.594
 21
-14.2539
  0
LINE
  8
0
 10
-109.594
 20
-14.2539
 11
-109.524
 21
-14.624
  0
LINE
  8
0
 10
-109.524
 20
-14.624
 11
-109.5
 21
-15
  0
LINE
  8
0
 10
-109.5
 20
-15
 11
-109.524
 21
-15.376
  0
LINE
  8
0
 10
-109.524
 20
-15.376
 11
-109.594
 21
-15.7461
  0
LINE
  8
0
 10
-109.594
 20
-15.7461
 11
-109.711
 21
-16.1044
  0
LINE
  8
0
 10
-109.711
 20
-16.1044
 11
-109.871
 21
-16.4453
  0
LINE
  8
0
 10
-109.871
 20
-16.4453
 11
-110.073
 21
-16.7634
  0
LINE
  8
0
 10
-110.073
 20
-16.7634
 11
-110.313
 21
-17.0536
  0
LINE
  8
0
 10
-110.313
 20
-17.0536
 11
-110.588
 21
-17.3115
  0
LINE
  8
0
 10
-110.588
 20
-17.3115
 11
-110.893
 21
-17.533
  0
LINE
  8
0
 10
-110.893
 20
-17.533
 11
-111.223
 21
-17.7145
  0
LINE
  8
0
 10
-111.223
 20
-17.7145
 11
-111.573
 21
-17.8532
  0
LINE
  8
0
 10
-111.573
 20
-17.8532
 11
-111.938
 21
-17.9469
  0
LINE
  8
0
 10
-111.938
 20
-17.9469
 11
-112.312
 21
-17.9941
  0
LINE
  8
0
 10
-112.312
 20
-17.9941
 11
-112.688
 21
-17.9941
  0
LINE
  8
0
 10
112.312
 20
-17.9941
 11
111.938
 21
-17.9469
  0
LINE
  8
0
 10
111.938
 20
-17.9469
 11
111.573
 21
-17.8532
  0
LINE
  8
0
 10
111.573
 20
-17.8532
 11
111.223
 21
-17.7145
  0
LINE
  8
0
 10
111.223
 20
-17.7145
 11
110.893
 21
-17.533
  0
LINE
  8
0
 10
110.893
 20
-17.533
 11
110.588
 21
-17.3115
  0
LINE
  8
0
 10
110.588
 20
-17.3115
 11
110.313
 21
-17.0536
  0
LINE
  8
0
 10
110.313
 20
-17.0536
 11
110.073
 21
-16.7634
  0
LINE
  8
0
 10
110.073
 20
-16.7634
 11
109.871
 21
-16.4453
  0
LINE
  8
0
 10
109.871
 20
-16.4453
 11
109.711
 21
-16.1044
  0
LINE
  8
0
 10
109.711
 20
-16.1044
 11
109.594
 21
-15.7461
  0
LINE
  8
0
 10
109.594
 20
-15.7461
 11
109.524
 21
-15.376
  0
LINE
  8
0
 10
109.524
 20
-15.376
 11
109.5
 21
-15
  0
LINE
  8
0
 10
109.5
 20
-15
 11
109.524
 21
-14.624
  0
LINE
  8
0
 10
109.524
 20
-14.624
 11
109.594
 21
-14.2539
  0
LINE
  8
0
 10
109.594
 20
-14.2539
 11
109.711
 21
-13.8956
  0
LINE
  8
0
 10
109.711
 20
-13.8956
 11
109.871
 21
-13.5547
  0
LINE
  8
0
 10
109.871
 20
-13.5547
 11
110.073
 21
-13.2366
  0
LINE
  8
0
 10
110.073
 20
-13.2366
 11
110.313
 21
-12.9464
  0
LINE
  8
0
 10
110.313
 20
-12.9464
 11
110.588
 21
-12.6884
  0
LINE
  8
0
 10
110.588
 20
-12.6884
 11
110.893
 21
-12.467
  0
LINE
  8
0
 10
110.893
 20
-12.467
 11
111.223
 21
-12.2855
  0
LINE
  8
0
 10
111.223
 20
-12.2855
 11
111.573
 21
-12.1468
  0
LINE
  8
0
 10
111.573
 20
-12.1468
 11
111.938
 21
-12.0531
  0
LINE
  8
0
 10
111.938
 20
-12.0531
 11
112.312
 21
-12.0059
  0
LINE
  8
0
 10
112.312
 20
-12.0059
 11
112.688
 21
-12.0059
  0
LINE
  8
0
 10
112.688
 20
-12.0059
 11
113.062
 21
-12.0531
  0
LINE
  8
0
 10
113.062
 20
-12.0531
 11
113.427
 21
-12.1468
  0
LINE
  8
0
 10
113.427
 20
-12.1468
 11
113.777
 21
-12.2855
  0
LINE
  8
0
 10
113.777
 20
-12.2855
 11
114.107
 21
-12.467
  0
LINE
  8
0
 10
114.107
 20
-12.467
 11
114.412
 21
-12.6884
  0
LINE
  8
0
 10
114.412
 20
-12.6884
 11
114.687
 21
-12.9464
  0
LINE
  8
0
 10
114.687
 20
-12.9464
 11
114.927
 21
-13.2366
  0
LINE
  8
0
 10
114.927
 20
-13.2366
 11
115.129
 21
-13.5547
  0
LINE
  8
0
 10
115.129
 20
-13.5547
 11
115.289
 21
-13.8956
  0
LINE
  8
0
 10
115.289
 20
-13.8956
 11
115.406
 21
-14.2539
  0
LINE
  8
0
 10
115.406
 20
-14.2539
 11
115.476
 21
-14.624
  0
LINE
  8
0
 10
115.476
 20
-14.624
 11
115.5
 21
-15
  0
LINE
  8
0
 10
115.5
 20
-15
 11
115.476
 21
-15.376
  0
LINE
  8
0
 10
115.476
 20
-15.376
 11
115.406
 21
-15.7461
  0
LINE
  8
0
 10
115.406
 20
-15.7461
 11
115.289
 21
-16.1044
  0
LINE
  8
0
 10
115.289
 20
-16.1044
 11
115.129
 21
-16.4453
  0
LINE
  8
0
 10
115.129
 20
-16.4453
 11
114.927
 21
-16.7634
  0
LINE
  8
0
 10
114.927
 20
-16.7634
 11
114.687
 21
-17.0536
  0
LINE
  8
0
 10
114.687
 20
-17.0536
 11
114.412
 21
-17.3115
  0
LINE
  8
0
 10
114.412
 20
-17.3115
 11
114.107
 21
-17.533
  0
LINE
  8
0
 10
114.107
 20
-17.533
 11
113.777
 21
-17.7145
  0
LINE
  8
0
 10
113.777
 20
-17.7145
 11
113.427
 21
-17.8532
  0
LINE
  8
0
 10
113.427
 20
-17.8532
 11
113.062
 21
-17.9469
  0
LINE
  8
0
 10
113.062
 20
-17.9469
 11
112.688
 21
-17.9941
  0
LINE
  8
0
 10
112.688
 20
-17.9941
 11
112.312
 21
-17.9941
  0
LINE
  8
0
 10
-109.711
 20
13.8956
 11
-109.871
 21
13.5547
  0
LINE
  8
0
 10
-109.871
 20
13.5547
 11
-110.073
 21
13.2366
  0
LINE
  8
0
 10
-110.073
 20
13.2366
 11
-110.313
 21
12.9464
  0
LINE
  8
0
 10
-110.313
 20
12.9464
 11
-110.588
 21
12.6884
  0
LINE
  8
0
 10
-110.588
 20
12.6884
 11
-110.893
 21
12.467
  0
LINE
  8
0
 10
-110.893
 20
12.467
 11
-111.223
 21
12.2855
  0
LINE
  8
0
 10
-111.223
 20
12.2855
 11
-111.573
 21
12.1468
  0
LINE
  8
0
 10
-111.573
 20
12.1468
 11
-111.938
 21
12.0531
  0
LINE
  8
0
 10
-111.938
 20
12.0531
 11
-112.312
 21
12.0059
  0
LINE
  8
0
 10
-112.312
 20
12.0059
 11
-112.688
 21
12.0059
  0
LINE
  8
0
 10
-112.688
 20
12.0059
 11
-113.062
 21
12.0531
  0
LINE
  8
0
 10
-113.062
 20
12.0531
 11
-113.427
 21
12.1468
  0
LINE
  8
0
 10
-113.427
 20
12.1468
 11
-113.777
 21
12.2855
  0
LINE
  8
0
 10
-113.777
 20
12.2855
 11
-114.107
 21
12.467
  0
LINE
  8
0
 10
-114.107
 20
12.467
 11
-114.412
 21
12.6884
  0
LINE
  8
0
 10
-114.412
 20
12.6884
 11
-114.687
 21
12.9464
  0
LINE
  8
0
 10
-114.687
 20
12.9464
 11
-114.927
 21
13.2366
  0
LINE
  8
0
 10
-114.927
 20
13.2366
 11
-115.129
 21
13.5547
  0
LINE
  8
0
 10
-115.129
 20
13.5547
 11
-115.289
 21
13.8956
  0
LINE
  8
0
 10
-115.289
 20
13.8956
 11
-115.406
 21
14.2539
  0
LINE
  8
0
 10
-115.406
 20
14.2539
 11
-115.476
 21
14.624
  0
LINE
  8
0
 10
-115.476
 20
14.624
 11
-115.5
 21
15
  0
LINE
  8
0
 10
-115.5
 20
15
 11
-115.476
 21
15.376
  0
LINE
  8
0
 10
-115.476
 20
15.376
 11
-115.406
 21
15.7461
  0
LINE
  8
0
 10
-115.406
 20
15.7461
 11
-115.289
 21
16.1044
  0
LINE
  8
0
 10
-115.289
 20
16.1044
 11
-115.129
 21
16.4453
  0
LINE
  8
0
 10
-115.129
 20
16.4453
 11
-114.927
 21
16.7634
  0
LINE
  8
0
 10
-114.927
 20
16.7634
 11
-114.687
 21
17.0536
  0
LINE
  8
0
 10
-114.687
 20
17.0536
 11
-114.412
 21
17.3115
  0
LINE
  8
0
 10
-114.412
 20
17.3115
 11
-114.107
 21
17.533
  0
LINE
  8
0
 10
-114.107
 20
17.533
 11
-113.777
 21
17.7145
  0
LINE
  8
0
 10
-113.777
 20
17.7145
 11
-113.427
 21
17.8532
  0
LINE
  8
0
 10
-113.427
 20
17.8532
 11
-113.062
 21
17.9469
  0
LINE
  8
0
 10
-113.062
 20
17.9469
 11
-112.688
 21
17.9941
  0
LINE
  8
0
 10
-112.688
 20
17.9941
 11
-112.312
 21
17.9941
  0
LINE
  8
0
 10
-112.312
 20
17.9941
 11
-111.938
 21
17.9469
  0
LINE
  8
0
 10
-111.938
 20
17.9469
 11
-111.573
 21
17.8532
  0
LINE
  8
0
 10
-111.573
 20
17.8532
 11
-111.223
 21
17.7145
  0
LINE
  8
0
 10
-111.223
 20
17.7145
 11
-110.893
 21
17.533
  0
LINE
  8
0
 10
-110.893
 20
17.533
 11
-110.588
 21
17.3115
  0
LINE
  8
0
 10
-110.588
 20
17.3115
 11
-110.313
 21
17.0536
  0
LINE
  8
0
 10
-110.313
 20
17.0536
 11
-110.073
 21
16.7634
  0
LINE
  8
0
 10
-110.073
 20
16.7634
 11
-109.871
 21
16.4453
  0
LINE
  8
0
 10
-109.871
 20
16.4453
 11
-109.711
 21
16.1044
  0
LINE
  8
0
 10
-109.711
 20
16.1044
 11
-109.594
 21
15.7461
  0
LINE
  8
0
 10
-109.594
 20
15.7461
 11
-109.524
 21
15.376
  0
LINE
  8
0
 10
-109.524
 20
15.376
 11
-109.5
 21
15
  0
LINE
  8
0
 10
-109.5
 20
15
 11
-109.524
 21
14.624
  0
LINE
  8
0
 10
-109.524
 20
14.624
 11
-109.594
 21
14.2539
  0
LINE
  8
0
 10
-109.594
 20
14.2539
 11
-109.711
 21
13.8956
  0
ENDSEC
  0
SECTION
  2
OBJECTS
  0
DICTIONARY
  0
ENDSEC
  0
EOF
