<?xml version="1.0" standalone="no"?>
<!DOCTYPE svg PUBLIC "-//W3C//DTD SVG 1.1//EN" "http://www.w3.org/Graphics/SVG/1.1/DTD/svg11.dtd">
<svg width="284mm" height="110mm" viewBox="-142 -223 284 110" xmlns="http://www.w3.org/2000/svg" version="1.1">
<title>OpenSCAD Model</title>
<path d="
M 137.937,-209.089 L 138.545,-209.245 L 139.129,-209.476 L 139.679,-209.778 L 140.187,-210.147 L 140.645,-210.577
 L 141.045,-211.061 L 141.382,-211.591 L 141.649,-212.159 L 141.843,-212.757 L 141.961,-213.373 L 142,-214
 L 142,-218 L 141.961,-218.627 L 141.843,-219.243 L 141.649,-219.841 L 141.382,-220.409 L 141.045,-220.939
 L 140.645,-221.423 L 140.187,-221.853 L 139.679,-222.222 L 139.129,-222.524 L 138.545,-222.755 L 137.937,-222.911
 L 137.314,-222.99 L -137.314,-222.99 L -137.937,-222.911 L -138.545,-222.755 L -139.129,-222.524 L -139.679,-222.222
 L -140.187,-221.853 L -140.645,-221.423 L -141.045,-220.939 L -141.382,-220.409 L -141.649,-219.841 L -141.843,-219.243
 L -141.961,-218.627 L -142,-218 L -142,-214 L -141.961,-213.373 L -141.843,-212.757 L -141.649,-212.159
 L -141.382,-211.591 L -141.045,-211.061 L -140.645,-210.577 L -140.187,-210.147 L -139.679,-209.778 L -139.129,-209.476
 L -138.545,-209.245 L -137.937,-209.089 L -137.314,-209.01 L 137.314,-209.01 z
M 74.8116,-213.006 L 74.4379,-213.053 L 74.073,-213.147 L 73.7227,-213.286 L 73.3925,-213.467 L 73.0877,-213.688
 L 72.8131,-213.946 L 72.573,-214.237 L 72.3711,-214.555 L 72.2107,-214.896 L 72.0943,-215.254 L 72.0237,-215.624
 L 72,-216 L 72.0237,-216.376 L 72.0943,-216.746 L 72.2107,-217.104 L 72.3711,-217.445 L 72.573,-217.763
 L 72.8131,-218.054 L 73.0877,-218.312 L 73.3925,-218.533 L 73.7227,-218.714 L 74.073,-218.853 L 74.4379,-218.947
 L 74.8116,-218.994 L 75.1884,-218.994 L 75.5621,-218.947 L 75.927,-218.853 L 76.2773,-218.714 L 76.6075,-218.533
 L 76.9123,-218.312 L 77.1869,-218.054 L 77.427,-217.763 L 77.6289,-217.445 L 77.7893,-217.104 L 77.9057,-216.746
 L 77.9763,-216.376 L 78,-216 L 77.9763,-215.624 L 77.9057,-215.254 L 77.7893,-214.896 L 77.6289,-214.555
 L 77.427,-214.237 L 77.1869,-213.946 L 76.9123,-213.688 L 76.6075,-213.467 L 76.2773,-213.286 L 75.927,-213.147
 L 75.5621,-213.053 L 75.1884,-213.006 z
M 44.8116,-213.006 L 44.4379,-213.053 L 44.0729,-213.147 L 43.7227,-213.286 L 43.3925,-213.467 L 43.0877,-213.688
 L 42.8131,-213.946 L 42.5729,-214.237 L 42.3711,-214.555 L 42.2107,-214.896 L 42.0942,-215.254 L 42.0237,-215.624
 L 42,-216 L 42.0237,-216.376 L 42.0942,-216.746 L 42.2107,-217.104 L 42.3711,-217.445 L 42.5729,-217.763
 L 42.8131,-218.054 L 43.0877,-218.312 L 43.3925,-218.533 L 43.7227,-218.714 L 44.0729,-218.853 L 44.4379,-218.947
 L 44.8116,-218.994 L 45.1884,-218.994 L 45.5621,-218.947 L 45.927,-218.853 L 46.2773,-218.714 L 46.6075,-218.533
 L 46.9123,-218.312 L 47.1869,-218.054 L 47.427,-217.763 L 47.6289,-217.445 L 47.7893,-217.104 L 47.9057,-216.746
 L 47.9763,-216.376 L 48,-216 L 47.9763,-215.624 L 47.9057,-215.254 L 47.7893,-214.896 L 47.6289,-214.555
 L 47.427,-214.237 L 47.1869,-213.946 L 46.9123,-213.688 L 46.6075,-213.467 L 46.2773,-213.286 L 45.927,-213.147
 L 45.5621,-213.053 L 45.1884,-213.006 z
M -15.1884,-213.006 L -15.5621,-213.053 L -15.927,-213.147 L -16.2773,-213.286 L -16.6075,-213.467 L -16.9123,-213.688
 L -17.1869,-213.946 L -17.427,-214.237 L -17.6289,-214.555 L -17.7893,-214.896 L -17.9057,-215.254 L -17.9763,-215.624
 L -18,-216 L -17.9763,-216.376 L -17.9057,-216.746 L -17.7893,-217.104 L -17.6289,-217.445 L -17.427,-217.763
 L -17.1869,-218.054 L -16.9123,-218.312 L -16.6075,-218.533 L -16.2773,-218.714 L -15.927,-218.853 L -15.5621,-218.947
 L -15.1884,-218.994 L -14.8116,-218.994 L -14.4379,-218.947 L -14.0729,-218.853 L -13.7227,-218.714 L -13.3925,-218.533
 L -13.0877,-218.312 L -12.8131,-218.054 L -12.5729,-217.763 L -12.3711,-217.445 L -12.2107,-217.104 L -12.0942,-216.746
 L -12.0237,-216.376 L -12,-216 L -12.0237,-215.624 L -12.0942,-215.254 L -12.2107,-214.896 L -12.3711,-214.555
 L -12.5729,-214.237 L -12.8131,-213.946 L -13.0877,-213.688 L -13.3925,-213.467 L -13.7227,-213.286 L -14.0729,-213.147
 L -14.4379,-213.053 L -14.8116,-213.006 z
M -90.1884,-213.006 L -90.5621,-213.053 L -90.927,-213.147 L -91.2773,-213.286 L -91.6075,-213.467 L -91.9123,-213.688
 L -92.1869,-213.946 L -92.427,-214.237 L -92.6289,-214.555 L -92.7893,-214.896 L -92.9057,-215.254 L -92.9763,-215.624
 L -93,-216 L -92.9763,-216.376 L -92.9057,-216.746 L -92.7893,-217.104 L -92.6289,-217.445 L -92.427,-217.763
 L -92.1869,-218.054 L -91.9123,-218.312 L -91.6075,-218.533 L -91.2773,-218.714 L -90.927,-218.853 L -90.5621,-218.947
 L -90.1884,-218.994 L -89.8116,-218.994 L -89.4379,-218.947 L -89.073,-218.853 L -88.7227,-218.714 L -88.3925,-218.533
 L -88.0877,-218.312 L -87.8131,-218.054 L -87.573,-217.763 L -87.3711,-217.445 L -87.2107,-217.104 L -87.0943,-216.746
 L -87.0237,-216.376 L -87,-216 L -87.0237,-215.624 L -87.0943,-215.254 L -87.2107,-214.896 L -87.3711,-214.555
 L -87.573,-214.237 L -87.8131,-213.946 L -88.0877,-213.688 L -88.3925,-213.467 L -88.7227,-213.286 L -89.073,-213.147
 L -89.4379,-213.053 L -89.8116,-213.006 z
M -75.1884,-213.006 L -75.5621,-213.053 L -75.927,-213.147 L -76.2773,-213.286 L -76.6075,-213.467 L -76.9123,-213.688
 L -77.1869,-213.946 L -77.427,-214.237 L -77.6289,-214.555 L -77.7893,-214.896 L -77.9057,-215.254 L -77.9763,-215.624
 L -78,-216 L -77.9763,-216.376 L -77.9057,-216.746 L -77.7893,-217.104 L -77.6289,-217.445 L -77.427,-217.763
 L -77.1869,-218.054 L -76.9123,-218.312 L -76.6075,-218.533 L -76.2773,-218.714 L -75.927,-218.853 L -75.5621,-218.947
 L -75.1884,-218.994 L -74.8116,-218.994 L -74.4379,-218.947 L -74.073,-218.853 L -73.7227,-218.714 L -73.3925,-218.533
 L -73.0877,-218.312 L -72.8131,-218.054 L -72.573,-217.763 L -72.3711,-217.445 L -72.2107,-217.104 L -72.0943,-216.746
 L -72.0237,-216.376 L -72,-216 L -72.0237,-215.624 L -72.0943,-215.254 L -72.2107,-214.896 L -72.3711,-214.555
 L -72.573,-214.237 L -72.8131,-213.946 L -73.0877,-213.688 L -73.3925,-213.467 L -73.7227,-213.286 L -74.073,-213.147
 L -74.4379,-213.053 L -74.8116,-213.006 z
M -0.18837,-213.006 L -0.562134,-213.053 L -0.927048,-213.147 L -1.27733,-213.286 L -1.60747,-213.467 L -1.91226,-213.688
 L -2.1869,-213.946 L -2.42705,-214.237 L -2.62891,-214.555 L -2.78932,-214.896 L -2.90575,-215.254 L -2.97633,-215.624
 L -3,-216 L -2.97633,-216.376 L -2.90575,-216.746 L -2.78932,-217.104 L -2.62891,-217.445 L -2.42705,-217.763
 L -2.1869,-218.054 L -1.91226,-218.312 L -1.60747,-218.533 L -1.27733,-218.714 L -0.927048,-218.853 L -0.562134,-218.947
 L -0.18837,-218.994 L 0.18837,-218.994 L 0.562134,-218.947 L 0.927048,-218.853 L 1.27733,-218.714 L 1.60747,-218.533
 L 1.91226,-218.312 L 2.1869,-218.054 L 2.42705,-217.763 L 2.62891,-217.445 L 2.78932,-217.104 L 2.90575,-216.746
 L 2.97633,-216.376 L 3,-216 L 2.97633,-215.624 L 2.90575,-215.254 L 2.78932,-214.896 L 2.62891,-214.555
 L 2.42705,-214.237 L 2.1869,-213.946 L 1.91226,-213.688 L 1.60747,-213.467 L 1.27733,-213.286 L 0.927048,-213.147
 L 0.562134,-213.053 L 0.18837,-213.006 z
M -60.1884,-213.006 L -60.5621,-213.053 L -60.927,-213.147 L -61.2773,-213.286 L -61.6075,-213.467 L -61.9123,-213.688
 L -62.1869,-213.946 L -62.427,-214.237 L -62.6289,-214.555 L -62.7893,-214.896 L -62.9057,-215.254 L -62.9763,-215.624
 L -63,-216 L -62.9763,-216.376 L -62.9057,-216.746 L -62.7893,-217.104 L -62.6289,-217.445 L -62.427,-217.763
 L -62.1869,-218.054 L -61.9123,-218.312 L -61.6075,-218.533 L -61.2773,-218.714 L -60.927,-218.853 L -60.5621,-218.947
 L -60.1884,-218.994 L -59.8116,-218.994 L -59.4379,-218.947 L -59.0729,-218.853 L -58.7227,-218.714 L -58.3925,-218.533
 L -58.0877,-218.312 L -57.8131,-218.054 L -57.5729,-217.763 L -57.3711,-217.445 L -57.2107,-217.104 L -57.0942,-216.746
 L -57.0237,-216.376 L -57,-216 L -57.0237,-215.624 L -57.0942,-215.254 L -57.2107,-214.896 L -57.3711,-214.555
 L -57.5729,-214.237 L -57.8131,-213.946 L -58.0877,-213.688 L -58.3925,-213.467 L -58.7227,-213.286 L -59.0729,-213.147
 L -59.4379,-213.053 L -59.8116,-213.006 z
M -120.188,-213.006 L -120.562,-213.053 L -120.927,-213.147 L -121.277,-213.286 L -121.607,-213.467 L -121.912,-213.688
 L -122.187,-213.946 L -122.427,-214.237 L -122.629,-214.555 L -122.789,-214.896 L -122.906,-215.254 L -122.976,-215.624
 L -123,-216 L -122.976,-216.376 L -122.906,-216.746 L -122.789,-217.104 L -122.629,-217.445 L -122.427,-217.763
 L -122.187,-218.054 L -121.912,-218.312 L -121.607,-218.533 L -121.277,-218.714 L -120.927,-218.853 L -120.562,-218.947
 L -120.188,-218.994 L -119.812,-218.994 L -119.438,-218.947 L -119.073,-218.853 L -118.723,-218.714 L -118.393,-218.533
 L -118.088,-218.312 L -117.813,-218.054 L -117.573,-217.763 L -117.371,-217.445 L -117.211,-217.104 L -117.094,-216.746
 L -117.024,-216.376 L -117,-216 L -117.024,-215.624 L -117.094,-215.254 L -117.211,-214.896 L -117.371,-214.555
 L -117.573,-214.237 L -117.813,-213.946 L -118.088,-213.688 L -118.393,-213.467 L -118.723,-213.286 L -119.073,-213.147
 L -119.438,-213.053 L -119.812,-213.006 z
M 134.812,-213.006 L 134.438,-213.053 L 134.073,-213.147 L 133.723,-213.286 L 133.393,-213.467 L 133.088,-213.688
 L 132.813,-213.946 L 132.573,-214.237 L 132.371,-214.555 L 132.211,-214.896 L 132.094,-215.254 L 132.024,-215.624
 L 132,-216 L 132.024,-216.376 L 132.094,-216.746 L 132.211,-217.104 L 132.371,-217.445 L 132.573,-217.763
 L 132.813,-218.054 L 133.088,-218.312 L 133.393,-218.533 L 133.723,-218.714 L 134.073,-218.853 L 134.438,-218.947
 L 134.812,-218.994 L 135.188,-218.994 L 135.562,-218.947 L 135.927,-218.853 L 136.277,-218.714 L 136.607,-218.533
 L 136.912,-218.312 L 137.187,-218.054 L 137.427,-217.763 L 137.629,-217.445 L 137.789,-217.104 L 137.906,-216.746
 L 137.976,-216.376 L 138,-216 L 137.976,-215.624 L 137.906,-215.254 L 137.789,-214.896 L 137.629,-214.555
 L 137.427,-214.237 L 137.187,-213.946 L 136.912,-213.688 L 136.607,-213.467 L 136.277,-213.286 L 135.927,-213.147
 L 135.562,-213.053 L 135.188,-213.006 z
M -105.188,-213.006 L -105.562,-213.053 L -105.927,-213.147 L -106.277,-213.286 L -106.607,-213.467 L -106.912,-213.688
 L -107.187,-213.946 L -107.427,-214.237 L -107.629,-214.555 L -107.789,-214.896 L -107.906,-215.254 L -107.976,-215.624
 L -108,-216 L -107.976,-216.376 L -107.906,-216.746 L -107.789,-217.104 L -107.629,-217.445 L -107.427,-217.763
 L -107.187,-218.054 L -106.912,-218.312 L -106.607,-218.533 L -106.277,-218.714 L -105.927,-218.853 L -105.562,-218.947
 L -105.188,-218.994 L -104.812,-218.994 L -104.438,-218.947 L -104.073,-218.853 L -103.723,-218.714 L -103.393,-218.533
 L -103.088,-218.312 L -102.813,-218.054 L -102.573,-217.763 L -102.371,-217.445 L -102.211,-217.104 L -102.094,-216.746
 L -102.024,-216.376 L -102,-216 L -102.024,-215.624 L -102.094,-215.254 L -102.211,-214.896 L -102.371,-214.555
 L -102.573,-214.237 L -102.813,-213.946 L -103.088,-213.688 L -103.393,-213.467 L -103.723,-213.286 L -104.073,-213.147
 L -104.438,-213.053 L -104.812,-213.006 z
M -45.1884,-213.006 L -45.5621,-213.053 L -45.927,-213.147 L -46.2773,-213.286 L -46.6075,-213.467 L -46.9123,-213.688
 L -47.1869,-213.946 L -47.427,-214.237 L -47.6289,-214.555 L -47.7893,-214.896 L -47.9057,-215.254 L -47.9763,-215.624
 L -48,-216 L -47.9763,-216.376 L -47.9057,-216.746 L -47.7893,-217.104 L -47.6289,-217.445 L -47.427,-217.763
 L -47.1869,-218.054 L -46.9123,-218.312 L -46.6075,-218.533 L -46.2773,-218.714 L -45.927,-218.853 L -45.5621,-218.947
 L -45.1884,-218.994 L -44.8116,-218.994 L -44.4379,-218.947 L -44.0729,-218.853 L -43.7227,-218.714 L -43.3925,-218.533
 L -43.0877,-218.312 L -42.8131,-218.054 L -42.5729,-217.763 L -42.3711,-217.445 L -42.2107,-217.104 L -42.0942,-216.746
 L -42.0237,-216.376 L -42,-216 L -42.0237,-215.624 L -42.0942,-215.254 L -42.2107,-214.896 L -42.3711,-214.555
 L -42.5729,-214.237 L -42.8131,-213.946 L -43.0877,-213.688 L -43.3925,-213.467 L -43.7227,-213.286 L -44.0729,-213.147
 L -44.4379,-213.053 L -44.8116,-213.006 z
M 14.8116,-213.006 L 14.4379,-213.053 L 14.0729,-213.147 L 13.7227,-213.286 L 13.3925,-213.467 L 13.0877,-213.688
 L 12.8131,-213.946 L 12.5729,-214.237 L 12.3711,-214.555 L 12.2107,-214.896 L 12.0942,-215.254 L 12.0237,-215.624
 L 12,-216 L 12.0237,-216.376 L 12.0942,-216.746 L 12.2107,-217.104 L 12.3711,-217.445 L 12.5729,-217.763
 L 12.8131,-218.054 L 13.0877,-218.312 L 13.3925,-218.533 L 13.7227,-218.714 L 14.0729,-218.853 L 14.4379,-218.947
 L 14.8116,-218.994 L 15.1884,-218.994 L 15.5621,-218.947 L 15.927,-218.853 L 16.2773,-218.714 L 16.6075,-218.533
 L 16.9123,-218.312 L 17.1869,-218.054 L 17.427,-217.763 L 17.6289,-217.445 L 17.7893,-217.104 L 17.9057,-216.746
 L 17.9763,-216.376 L 18,-216 L 17.9763,-215.624 L 17.9057,-215.254 L 17.7893,-214.896 L 17.6289,-214.555
 L 17.427,-214.237 L 17.1869,-213.946 L 16.9123,-213.688 L 16.6075,-213.467 L 16.2773,-213.286 L 15.927,-213.147
 L 15.5621,-213.053 L 15.1884,-213.006 z
M 89.8116,-213.006 L 89.4379,-213.053 L 89.073,-213.147 L 88.7227,-213.286 L 88.3925,-213.467 L 88.0877,-213.688
 L 87.8131,-213.946 L 87.573,-214.237 L 87.3711,-214.555 L 87.2107,-214.896 L 87.0943,-215.254 L 87.0237,-215.624
 L 87,-216 L 87.0237,-216.376 L 87.0943,-216.746 L 87.2107,-217.104 L 87.3711,-217.445 L 87.573,-217.763
 L 87.8131,-218.054 L 88.0877,-218.312 L 88.3925,-218.533 L 88.7227,-218.714 L 89.073,-218.853 L 89.4379,-218.947
 L 89.8116,-218.994 L 90.1884,-218.994 L 90.5621,-218.947 L 90.927,-218.853 L 91.2773,-218.714 L 91.6075,-218.533
 L 91.9123,-218.312 L 92.1869,-218.054 L 92.427,-217.763 L 92.6289,-217.445 L 92.7893,-217.104 L 92.9057,-216.746
 L 92.9763,-216.376 L 93,-216 L 92.9763,-215.624 L 92.9057,-215.254 L 92.7893,-214.896 L 92.6289,-214.555
 L 92.427,-214.237 L 92.1869,-213.946 L 91.9123,-213.688 L 91.6075,-213.467 L 91.2773,-213.286 L 90.927,-213.147
 L 90.5621,-213.053 L 90.1884,-213.006 z
M -30.1884,-213.006 L -30.5621,-213.053 L -30.927,-213.147 L -31.2773,-213.286 L -31.6075,-213.467 L -31.9123,-213.688
 L -32.1869,-213.946 L -32.427,-214.237 L -32.6289,-214.555 L -32.7893,-214.896 L -32.9057,-215.254 L -32.9763,-215.624
 L -33,-216 L -32.9763,-216.376 L -32.9057,-216.746 L -32.7893,-217.104 L -32.6289,-217.445 L -32.427,-217.763
 L -32.1869,-218.054 L -31.9123,-218.312 L -31.6075,-218.533 L -31.2773,-218.714 L -30.927,-218.853 L -30.5621,-218.947
 L -30.1884,-218.994 L -29.8116,-218.994 L -29.4379,-218.947 L -29.0729,-218.853 L -28.7227,-218.714 L -28.3925,-218.533
 L -28.0877,-218.312 L -27.8131,-218.054 L -27.5729,-217.763 L -27.3711,-217.445 L -27.2107,-217.104 L -27.0942,-216.746
 L -27.0237,-216.376 L -27,-216 L -27.0237,-215.624 L -27.0942,-215.254 L -27.2107,-214.896 L -27.3711,-214.555
 L -27.5729,-214.237 L -27.8131,-213.946 L -28.0877,-213.688 L -28.3925,-213.467 L -28.7227,-213.286 L -29.0729,-213.147
 L -29.4379,-213.053 L -29.8116,-213.006 z
M 104.812,-213.006 L 104.438,-213.053 L 104.073,-213.147 L 103.723,-213.286 L 103.393,-213.467 L 103.088,-213.688
 L 102.813,-213.946 L 102.573,-214.237 L 102.371,-214.555 L 102.211,-214.896 L 102.094,-215.254 L 102.024,-215.624
 L 102,-216 L 102.024,-216.376 L 102.094,-216.746 L 102.211,-217.104 L 102.371,-217.445 L 102.573,-217.763
 L 102.813,-218.054 L 103.088,-218.312 L 103.393,-218.533 L 103.723,-218.714 L 104.073,-218.853 L 104.438,-218.947
 L 104.812,-218.994 L 105.188,-218.994 L 105.562,-218.947 L 105.927,-218.853 L 106.277,-218.714 L 106.607,-218.533
 L 106.912,-218.312 L 107.187,-218.054 L 107.427,-217.763 L 107.629,-217.445 L 107.789,-217.104 L 107.906,-216.746
 L 107.976,-216.376 L 108,-216 L 107.976,-215.624 L 107.906,-215.254 L 107.789,-214.896 L 107.629,-214.555
 L 107.427,-214.237 L 107.187,-213.946 L 106.912,-213.688 L 106.607,-213.467 L 106.277,-213.286 L 105.927,-213.147
 L 105.562,-213.053 L 105.188,-213.006 z
M 29.8116,-213.006 L 29.4379,-213.053 L 29.0729,-213.147 L 28.7227,-213.286 L 28.3925,-213.467 L 28.0877,-213.688
 L 27.8131,-213.946 L 27.5729,-214.237 L 27.3711,-214.555 L 27.2107,-214.896 L 27.0942,-215.254 L 27.0237,-215.624
 L 27,-216 L 27.0237,-216.376 L 27.0942,-216.746 L 27.2107,-217.104 L 27.3711,-217.445 L 27.5729,-217.763
 L 27.8131,-218.054 L 28.0877,-218.312 L 28.3925,-218.533 L 28.7227,-218.714 L 29.0729,-218.853 L 29.4379,-218.947
 L 29.8116,-218.994 L 30.1884,-218.994 L 30.5621,-218.947 L 30.927,-218.853 L 31.2773,-218.714 L 31.6075,-218.533
 L 31.9123,-218.312 L 32.1869,-218.054 L 32.427,-217.763 L 32.6289,-217.445 L 32.7893,-217.104 L 32.9057,-216.746
 L 32.9763,-216.376 L 33,-216 L 32.9763,-215.624 L 32.9057,-215.254 L 32.7893,-214.896 L 32.6289,-214.555
 L 32.427,-214.237 L 32.1869,-213.946 L 31.9123,-213.688 L 31.6075,-213.467 L 31.2773,-213.286 L 30.927,-213.147
 L 30.5621,-213.053 L 30.1884,-213.006 z
M 59.8116,-213.006 L 59.4379,-213.053 L 59.0729,-213.147 L 58.7227,-213.286 L 58.3925,-213.467 L 58.0877,-213.688
 L 57.8131,-213.946 L 57.5729,-214.237 L 57.3711,-214.555 L 57.2107,-214.896 L 57.0942,-215.254 L 57.0237,-215.624
 L 57,-216 L 57.0237,-216.376 L 57.0942,-216.746 L 57.2107,-217.104 L 57.3711,-217.445 L 57.5729,-217.763
 L 57.8131,-218.054 L 58.0877,-218.312 L 58.3925,-218.533 L 58.7227,-218.714 L 59.0729,-218.853 L 59.4379,-218.947
 L 59.8116,-218.994 L 60.1884,-218.994 L 60.5621,-218.947 L 60.927,-218.853 L 61.2773,-218.714 L 61.6075,-218.533
 L 61.9123,-218.312 L 62.1869,-218.054 L 62.427,-217.763 L 62.6289,-217.445 L 62.7893,-217.104 L 62.9057,-216.746
 L 62.9763,-216.376 L 63,-216 L 62.9763,-215.624 L 62.9057,-215.254 L 62.7893,-214.896 L 62.6289,-214.555
 L 62.427,-214.237 L 62.1869,-213.946 L 61.9123,-213.688 L 61.6075,-213.467 L 61.2773,-213.286 L 60.927,-213.147
 L 60.5621,-213.053 L 60.1884,-213.006 z
M -135.188,-213.006 L -135.562,-213.053 L -135.927,-213.147 L -136.277,-213.286 L -136.607,-213.467 L -136.912,-213.688
 L -137.187,-213.946 L -137.427,-214.237 L -137.629,-214.555 L -137.789,-214.896 L -137.906,-215.254 L -137.976,-215.624
 L -138,-216 L -137.976,-216.376 L -137.906,-216.746 L -137.789,-217.104 L -137.629,-217.445 L -137.427,-217.763
 L -137.187,-218.054 L -136.912,-218.312 L -136.607,-218.533 L -136.277,-218.714 L -135.927,-218.853 L -135.562,-218.947
 L -135.188,-218.994 L -134.812,-218.994 L -134.438,-218.947 L -134.073,-218.853 L -133.723,-218.714 L -133.393,-218.533
 L -133.088,-218.312 L -132.813,-218.054 L -132.573,-217.763 L -132.371,-217.445 L -132.211,-217.104 L -132.094,-216.746
 L -132.024,-216.376 L -132,-216 L -132.024,-215.624 L -132.094,-215.254 L -132.211,-214.896 L -132.371,-214.555
 L -132.573,-214.237 L -132.813,-213.946 L -133.088,-213.688 L -133.393,-213.467 L -133.723,-213.286 L -134.073,-213.147
 L -134.438,-213.053 L -134.812,-213.006 z
M 119.812,-213.006 L 119.438,-213.053 L 119.073,-213.147 L 118.723,-213.286 L 118.393,-213.467 L 118.088,-213.688
 L 117.813,-213.946 L 117.573,-214.237 L 117.371,-214.555 L 117.211,-214.896 L 117.094,-215.254 L 117.024,-215.624
 L 117,-216 L 117.024,-216.376 L 117.094,-216.746 L 117.211,-217.104 L 117.371,-217.445 L 117.573,-217.763
 L 117.813,-218.054 L 118.088,-218.312 L 118.393,-218.533 L 118.723,-218.714 L 119.073,-218.853 L 119.438,-218.947
 L 119.812,-218.994 L 120.188,-218.994 L 120.562,-218.947 L 120.927,-218.853 L 121.277,-218.714 L 121.607,-218.533
 L 121.912,-218.312 L 122.187,-218.054 L 122.427,-217.763 L 122.629,-217.445 L 122.789,-217.104 L 122.906,-216.746
 L 122.976,-216.376 L 123,-216 L 122.976,-215.624 L 122.906,-215.254 L 122.789,-214.896 L 122.629,-214.555
 L 122.427,-214.237 L 122.187,-213.946 L 121.912,-213.688 L 121.607,-213.467 L 121.277,-213.286 L 120.927,-213.147
 L 120.562,-213.053 L 120.188,-213.006 z
M 137.937,-185.089 L 138.545,-185.245 L 139.129,-185.476 L 139.679,-185.778 L 140.187,-186.147 L 140.645,-186.577
 L 141.045,-187.061 L 141.382,-187.591 L 141.649,-188.159 L 141.843,-188.757 L 141.961,-189.373 L 142,-190
 L 142,-194 L 141.961,-194.627 L 141.843,-195.243 L 141.649,-195.841 L 141.382,-196.409 L 141.045,-196.939
 L 140.645,-197.423 L 140.187,-197.853 L 139.679,-198.222 L 139.129,-198.524 L 138.545,-198.755 L 137.937,-198.911
 L 137.314,-198.99 L -137.314,-198.99 L -137.937,-198.911 L -138.545,-198.755 L -139.129,-198.524 L -139.679,-198.222
 L -140.187,-197.853 L -140.645,-197.423 L -141.045,-196.939 L -141.382,-196.409 L -141.649,-195.841 L -141.843,-195.243
 L -141.961,-194.627 L -142,-194 L -142,-190 L -141.961,-189.373 L -141.843,-188.757 L -141.649,-188.159
 L -141.382,-187.591 L -141.045,-187.061 L -140.645,-186.577 L -140.187,-186.147 L -139.679,-185.778 L -139.129,-185.476
 L -138.545,-185.245 L -137.937,-185.089 L -137.314,-185.01 L 137.314,-185.01 z
M 104.812,-189.006 L 104.438,-189.053 L 104.073,-189.147 L 103.723,-189.286 L 103.393,-189.467 L 103.088,-189.688
 L 102.813,-189.946 L 102.573,-190.237 L 102.371,-190.555 L 102.211,-190.896 L 102.094,-191.254 L 102.024,-191.624
 L 102,-192 L 102.024,-192.376 L 102.094,-192.746 L 102.211,-193.104 L 102.371,-193.445 L 102.573,-193.763
 L 102.813,-194.054 L 103.088,-194.312 L 103.393,-194.533 L 103.723,-194.714 L 104.073,-194.853 L 104.438,-194.947
 L 104.812,-194.994 L 105.188,-194.994 L 105.562,-194.947 L 105.927,-194.853 L 106.277,-194.714 L 106.607,-194.533
 L 106.912,-194.312 L 107.187,-194.054 L 107.427,-193.763 L 107.629,-193.445 L 107.789,-193.104 L 107.906,-192.746
 L 107.976,-192.376 L 108,-192 L 107.976,-191.624 L 107.906,-191.254 L 107.789,-190.896 L 107.629,-190.555
 L 107.427,-190.237 L 107.187,-189.946 L 106.912,-189.688 L 106.607,-189.467 L 106.277,-189.286 L 105.927,-189.147
 L 105.562,-189.053 L 105.188,-189.006 z
M 44.8116,-189.006 L 44.4379,-189.053 L 44.0729,-189.147 L 43.7227,-189.286 L 43.3925,-189.467 L 43.0877,-189.688
 L 42.8131,-189.946 L 42.5729,-190.237 L 42.3711,-190.555 L 42.2107,-190.896 L 42.0942,-191.254 L 42.0237,-191.624
 L 42,-192 L 42.0237,-192.376 L 42.0942,-192.746 L 42.2107,-193.104 L 42.3711,-193.445 L 42.5729,-193.763
 L 42.8131,-194.054 L 43.0877,-194.312 L 43.3925,-194.533 L 43.7227,-194.714 L 44.0729,-194.853 L 44.4379,-194.947
 L 44.8116,-194.994 L 45.1884,-194.994 L 45.5621,-194.947 L 45.927,-194.853 L 46.2773,-194.714 L 46.6075,-194.533
 L 46.9123,-194.312 L 47.1869,-194.054 L 47.427,-193.763 L 47.6289,-193.445 L 47.7893,-193.104 L 47.9057,-192.746
 L 47.9763,-192.376 L 48,-192 L 47.9763,-191.624 L 47.9057,-191.254 L 47.7893,-190.896 L 47.6289,-190.555
 L 47.427,-190.237 L 47.1869,-189.946 L 46.9123,-189.688 L 46.6075,-189.467 L 46.2773,-189.286 L 45.927,-189.147
 L 45.5621,-189.053 L 45.1884,-189.006 z
M -15.1884,-189.006 L -15.5621,-189.053 L -15.927,-189.147 L -16.2773,-189.286 L -16.6075,-189.467 L -16.9123,-189.688
 L -17.1869,-189.946 L -17.427,-190.237 L -17.6289,-190.555 L -17.7893,-190.896 L -17.9057,-191.254 L -17.9763,-191.624
 L -18,-192 L -17.9763,-192.376 L -17.9057,-192.746 L -17.7893,-193.104 L -17.6289,-193.445 L -17.427,-193.763
 L -17.1869,-194.054 L -16.9123,-194.312 L -16.6075,-194.533 L -16.2773,-194.714 L -15.927,-194.853 L -15.5621,-194.947
 L -15.1884,-194.994 L -14.8116,-194.994 L -14.4379,-194.947 L -14.0729,-194.853 L -13.7227,-194.714 L -13.3925,-194.533
 L -13.0877,-194.312 L -12.8131,-194.054 L -12.5729,-193.763 L -12.3711,-193.445 L -12.2107,-193.104 L -12.0942,-192.746
 L -12.0237,-192.376 L -12,-192 L -12.0237,-191.624 L -12.0942,-191.254 L -12.2107,-190.896 L -12.3711,-190.555
 L -12.5729,-190.237 L -12.8131,-189.946 L -13.0877,-189.688 L -13.3925,-189.467 L -13.7227,-189.286 L -14.0729,-189.147
 L -14.4379,-189.053 L -14.8116,-189.006 z
M -90.1884,-189.006 L -90.5621,-189.053 L -90.927,-189.147 L -91.2773,-189.286 L -91.6075,-189.467 L -91.9123,-189.688
 L -92.1869,-189.946 L -92.427,-190.237 L -92.6289,-190.555 L -92.7893,-190.896 L -92.9057,-191.254 L -92.9763,-191.624
 L -93,-192 L -92.9763,-192.376 L -92.9057,-192.746 L -92.7893,-193.104 L -92.6289,-193.445 L -92.427,-193.763
 L -92.1869,-194.054 L -91.9123,-194.312 L -91.6075,-194.533 L -91.2773,-194.714 L -90.927,-194.853 L -90.5621,-194.947
 L -90.1884,-194.994 L -89.8116,-194.994 L -89.4379,-194.947 L -89.073,-194.853 L -88.7227,-194.714 L -88.3925,-194.533
 L -88.0877,-194.312 L -87.8131,-194.054 L -87.573,-193.763 L -87.3711,-193.445 L -87.2107,-193.104 L -87.0943,-192.746
 L -87.0237,-192.376 L -87,-192 L -87.0237,-191.624 L -87.0943,-191.254 L -87.2107,-190.896 L -87.3711,-190.555
 L -87.573,-190.237 L -87.8131,-189.946 L -88.0877,-189.688 L -88.3925,-189.467 L -88.7227,-189.286 L -89.073,-189.147
 L -89.4379,-189.053 L -89.8116,-189.006 z
M -75.1884,-189.006 L -75.5621,-189.053 L -75.927,-189.147 L -76.2773,-189.286 L -76.6075,-189.467 L -76.9123,-189.688
 L -77.1869,-189.946 L -77.427,-190.237 L -77.6289,-190.555 L -77.7893,-190.896 L -77.9057,-191.254 L -77.9763,-191.624
 L -78,-192 L -77.9763,-192.376 L -77.9057,-192.746 L -77.7893,-193.104 L -77.6289,-193.445 L -77.427,-193.763
 L -77.1869,-194.054 L -76.9123,-194.312 L -76.6075,-194.533 L -76.2773,-194.714 L -75.927,-194.853 L -75.5621,-194.947
 L -75.1884,-194.994 L -74.8116,-194.994 L -74.4379,-194.947 L -74.073,-194.853 L -73.7227,-194.714 L -73.3925,-194.533
 L -73.0877,-194.312 L -72.8131,-194.054 L -72.573,-193.763 L -72.3711,-193.445 L -72.2107,-193.104 L -72.0943,-192.746
 L -72.0237,-192.376 L -72,-192 L -72.0237,-191.624 L -72.0943,-191.254 L -72.2107,-190.896 L -72.3711,-190.555
 L -72.573,-190.237 L -72.8131,-189.946 L -73.0877,-189.688 L -73.3925,-189.467 L -73.7227,-189.286 L -74.073,-189.147
 L -74.4379,-189.053 L -74.8116,-189.006 z
M -0.18837,-189.006 L -0.562134,-189.053 L -0.927048,-189.147 L -1.27733,-189.286 L -1.60747,-189.467 L -1.91226,-189.688
 L -2.1869,-189.946 L -2.42705,-190.237 L -2.62891,-190.555 L -2.78932,-190.896 L -2.90575,-191.254 L -2.97633,-191.624
 L -3,-192 L -2.97633,-192.376 L -2.90575,-192.746 L -2.78932,-193.104 L -2.62891,-193.445 L -2.42705,-193.763
 L -2.1869,-194.054 L -1.91226,-194.312 L -1.60747,-194.533 L -1.27733,-194.714 L -0.927048,-194.853 L -0.562134,-194.947
 L -0.18837,-194.994 L 0.18837,-194.994 L 0.562134,-194.947 L 0.927048,-194.853 L 1.27733,-194.714 L 1.60747,-194.533
 L 1.91226,-194.312 L 2.1869,-194.054 L 2.42705,-193.763 L 2.62891,-193.445 L 2.78932,-193.104 L 2.90575,-192.746
 L 2.97633,-192.376 L 3,-192 L 2.97633,-191.624 L 2.90575,-191.254 L 2.78932,-190.896 L 2.62891,-190.555
 L 2.42705,-190.237 L 2.1869,-189.946 L 1.91226,-189.688 L 1.60747,-189.467 L 1.27733,-189.286 L 0.927048,-189.147
 L 0.562134,-189.053 L 0.18837,-189.006 z
M -60.1884,-189.006 L -60.5621,-189.053 L -60.927,-189.147 L -61.2773,-189.286 L -61.6075,-189.467 L -61.9123,-189.688
 L -62.1869,-189.946 L -62.427,-190.237 L -62.6289,-190.555 L -62.7893,-190.896 L -62.9057,-191.254 L -62.9763,-191.624
 L -63,-192 L -62.9763,-192.376 L -62.9057,-192.746 L -62.7893,-193.104 L -62.6289,-193.445 L -62.427,-193.763
 L -62.1869,-194.054 L -61.9123,-194.312 L -61.6075,-194.533 L -61.2773,-194.714 L -60.927,-194.853 L -60.5621,-194.947
 L -60.1884,-194.994 L -59.8116,-194.994 L -59.4379,-194.947 L -59.0729,-194.853 L -58.7227,-194.714 L -58.3925,-194.533
 L -58.0877,-194.312 L -57.8131,-194.054 L -57.5729,-193.763 L -57.3711,-193.445 L -57.2107,-193.104 L -57.0942,-192.746
 L -57.0237,-192.376 L -57,-192 L -57.0237,-191.624 L -57.0942,-191.254 L -57.2107,-190.896 L -57.3711,-190.555
 L -57.5729,-190.237 L -57.8131,-189.946 L -58.0877,-189.688 L -58.3925,-189.467 L -58.7227,-189.286 L -59.0729,-189.147
 L -59.4379,-189.053 L -59.8116,-189.006 z
M -120.188,-189.006 L -120.562,-189.053 L -120.927,-189.147 L -121.277,-189.286 L -121.607,-189.467 L -121.912,-189.688
 L -122.187,-189.946 L -122.427,-190.237 L -122.629,-190.555 L -122.789,-190.896 L -122.906,-191.254 L -122.976,-191.624
 L -123,-192 L -122.976,-192.376 L -122.906,-192.746 L -122.789,-193.104 L -122.629,-193.445 L -122.427,-193.763
 L -122.187,-194.054 L -121.912,-194.312 L -121.607,-194.533 L -121.277,-194.714 L -120.927,-194.853 L -120.562,-194.947
 L -120.188,-194.994 L -119.812,-194.994 L -119.438,-194.947 L -119.073,-194.853 L -118.723,-194.714 L -118.393,-194.533
 L -118.088,-194.312 L -117.813,-194.054 L -117.573,-193.763 L -117.371,-193.445 L -117.211,-193.104 L -117.094,-192.746
 L -117.024,-192.376 L -117,-192 L -117.024,-191.624 L -117.094,-191.254 L -117.211,-190.896 L -117.371,-190.555
 L -117.573,-190.237 L -117.813,-189.946 L -118.088,-189.688 L -118.393,-189.467 L -118.723,-189.286 L -119.073,-189.147
 L -119.438,-189.053 L -119.812,-189.006 z
M 134.812,-189.006 L 134.438,-189.053 L 134.073,-189.147 L 133.723,-189.286 L 133.393,-189.467 L 133.088,-189.688
 L 132.813,-189.946 L 132.573,-190.237 L 132.371,-190.555 L 132.211,-190.896 L 132.094,-191.254 L 132.024,-191.624
 L 132,-192 L 132.024,-192.376 L 132.094,-192.746 L 132.211,-193.104 L 132.371,-193.445 L 132.573,-193.763
 L 132.813,-194.054 L 133.088,-194.312 L 133.393,-194.533 L 133.723,-194.714 L 134.073,-194.853 L 134.438,-194.947
 L 134.812,-194.994 L 135.188,-194.994 L 135.562,-194.947 L 135.927,-194.853 L 136.277,-194.714 L 136.607,-194.533
 L 136.912,-194.312 L 137.187,-194.054 L 137.427,-193.763 L 137.629,-193.445 L 137.789,-193.104 L 137.906,-192.746
 L 137.976,-192.376 L 138,-192 L 137.976,-191.624 L 137.906,-191.254 L 137.789,-190.896 L 137.629,-190.555
 L 137.427,-190.237 L 137.187,-189.946 L 136.912,-189.688 L 136.607,-189.467 L 136.277,-189.286 L 135.927,-189.147
 L 135.562,-189.053 L 135.188,-189.006 z
M -105.188,-189.006 L -105.562,-189.053 L -105.927,-189.147 L -106.277,-189.286 L -106.607,-189.467 L -106.912,-189.688
 L -107.187,-189.946 L -107.427,-190.237 L -107.629,-190.555 L -107.789,-190.896 L -107.906,-191.254 L -107.976,-191.624
 L -108,-192 L -107.976,-192.376 L -107.906,-192.746 L -107.789,-193.104 L -107.629,-193.445 L -107.427,-193.763
 L -107.187,-194.054 L -106.912,-194.312 L -106.607,-194.533 L -106.277,-194.714 L -105.927,-194.853 L -105.562,-194.947
 L -105.188,-194.994 L -104.812,-194.994 L -104.438,-194.947 L -104.073,-194.853 L -103.723,-194.714 L -103.393,-194.533
 L -103.088,-194.312 L -102.813,-194.054 L -102.573,-193.763 L -102.371,-193.445 L -102.211,-193.104 L -102.094,-192.746
 L -102.024,-192.376 L -102,-192 L -102.024,-191.624 L -102.094,-191.254 L -102.211,-190.896 L -102.371,-190.555
 L -102.573,-190.237 L -102.813,-189.946 L -103.088,-189.688 L -103.393,-189.467 L -103.723,-189.286 L -104.073,-189.147
 L -104.438,-189.053 L -104.812,-189.006 z
M -45.1884,-189.006 L -45.5621,-189.053 L -45.927,-189.147 L -46.2773,-189.286 L -46.6075,-189.467 L -46.9123,-189.688
 L -47.1869,-189.946 L -47.427,-190.237 L -47.6289,-190.555 L -47.7893,-190.896 L -47.9057,-191.254 L -47.9763,-191.624
 L -48,-192 L -47.9763,-192.376 L -47.9057,-192.746 L -47.7893,-193.104 L -47.6289,-193.445 L -47.427,-193.763
 L -47.1869,-194.054 L -46.9123,-194.312 L -46.6075,-194.533 L -46.2773,-194.714 L -45.927,-194.853 L -45.5621,-194.947
 L -45.1884,-194.994 L -44.8116,-194.994 L -44.4379,-194.947 L -44.0729,-194.853 L -43.7227,-194.714 L -43.3925,-194.533
 L -43.0877,-194.312 L -42.8131,-194.054 L -42.5729,-193.763 L -42.3711,-193.445 L -42.2107,-193.104 L -42.0942,-192.746
 L -42.0237,-192.376 L -42,-192 L -42.0237,-191.624 L -42.0942,-191.254 L -42.2107,-190.896 L -42.3711,-190.555
 L -42.5729,-190.237 L -42.8131,-189.946 L -43.0877,-189.688 L -43.3925,-189.467 L -43.7227,-189.286 L -44.0729,-189.147
 L -44.4379,-189.053 L -44.8116,-189.006 z
M 74.8116,-189.006 L 74.4379,-189.053 L 74.073,-189.147 L 73.7227,-189.286 L 73.3925,-189.467 L 73.0877,-189.688
 L 72.8131,-189.946 L 72.573,-190.237 L 72.3711,-190.555 L 72.2107,-190.896 L 72.0943,-191.254 L 72.0237,-191.624
 L 72,-192 L 72.0237,-192.376 L 72.0943,-192.746 L 72.2107,-193.104 L 72.3711,-193.445 L 72.573,-193.763
 L 72.8131,-194.054 L 73.0877,-194.312 L 73.3925,-194.533 L 73.7227,-194.714 L 74.073,-194.853 L 74.4379,-194.947
 L 74.8116,-194.994 L 75.1884,-194.994 L 75.5621,-194.947 L 75.927,-194.853 L 76.2773,-194.714 L 76.6075,-194.533
 L 76.9123,-194.312 L 77.1869,-194.054 L 77.427,-193.763 L 77.6289,-193.445 L 77.7893,-193.104 L 77.9057,-192.746
 L 77.9763,-192.376 L 78,-192 L 77.9763,-191.624 L 77.9057,-191.254 L 77.7893,-190.896 L 77.6289,-190.555
 L 77.427,-190.237 L 77.1869,-189.946 L 76.9123,-189.688 L 76.6075,-189.467 L 76.2773,-189.286 L 75.927,-189.147
 L 75.5621,-189.053 L 75.1884,-189.006 z
M -135.188,-189.006 L -135.562,-189.053 L -135.927,-189.147 L -136.277,-189.286 L -136.607,-189.467 L -136.912,-189.688
 L -137.187,-189.946 L -137.427,-190.237 L -137.629,-190.555 L -137.789,-190.896 L -137.906,-191.254 L -137.976,-191.624
 L -138,-192 L -137.976,-192.376 L -137.906,-192.746 L -137.789,-193.104 L -137.629,-193.445 L -137.427,-193.763
 L -137.187,-194.054 L -136.912,-194.312 L -136.607,-194.533 L -136.277,-194.714 L -135.927,-194.853 L -135.562,-194.947
 L -135.188,-194.994 L -134.812,-194.994 L -134.438,-194.947 L -134.073,-194.853 L -133.723,-194.714 L -133.393,-194.533
 L -133.088,-194.312 L -132.813,-194.054 L -132.573,-193.763 L -132.371,-193.445 L -132.211,-193.104 L -132.094,-192.746
 L -132.024,-192.376 L -132,-192 L -132.024,-191.624 L -132.094,-191.254 L -132.211,-190.896 L -132.371,-190.555
 L -132.573,-190.237 L -132.813,-189.946 L -133.088,-189.688 L -133.393,-189.467 L -133.723,-189.286 L -134.073,-189.147
 L -134.438,-189.053 L -134.812,-189.006 z
M 59.8116,-189.006 L 59.4379,-189.053 L 59.0729,-189.147 L 58.7227,-189.286 L 58.3925,-189.467 L 58.0877,-189.688
 L 57.8131,-189.946 L 57.5729,-190.237 L 57.3711,-190.555 L 57.2107,-190.896 L 57.0942,-191.254 L 57.0237,-191.624
 L 57,-192 L 57.0237,-192.376 L 57.0942,-192.746 L 57.2107,-193.104 L 57.3711,-193.445 L 57.5729,-193.763
 L 57.8131,-194.054 L 58.0877,-194.312 L 58.3925,-194.533 L 58.7227,-194.714 L 59.0729,-194.853 L 59.4379,-194.947
 L 59.8116,-194.994 L 60.1884,-194.994 L 60.5621,-194.947 L 60.927,-194.853 L 61.2773,-194.714 L 61.6075,-194.533
 L 61.9123,-194.312 L 62.1869,-194.054 L 62.427,-193.763 L 62.6289,-193.445 L 62.7893,-193.104 L 62.9057,-192.746
 L 62.9763,-192.376 L 63,-192 L 62.9763,-191.624 L 62.9057,-191.254 L 62.7893,-190.896 L 62.6289,-190.555
 L 62.427,-190.237 L 62.1869,-189.946 L 61.9123,-189.688 L 61.6075,-189.467 L 61.2773,-189.286 L 60.927,-189.147
 L 60.5621,-189.053 L 60.1884,-189.006 z
M 29.8116,-189.006 L 29.4379,-189.053 L 29.0729,-189.147 L 28.7227,-189.286 L 28.3925,-189.467 L 28.0877,-189.688
 L 27.8131,-189.946 L 27.5729,-190.237 L 27.3711,-190.555 L 27.2107,-190.896 L 27.0942,-191.254 L 27.0237,-191.624
 L 27,-192 L 27.0237,-192.376 L 27.0942,-192.746 L 27.2107,-193.104 L 27.3711,-193.445 L 27.5729,-193.763
 L 27.8131,-194.054 L 28.0877,-194.312 L 28.3925,-194.533 L 28.7227,-194.714 L 29.0729,-194.853 L 29.4379,-194.947
 L 29.8116,-194.994 L 30.1884,-194.994 L 30.5621,-194.947 L 30.927,-194.853 L 31.2773,-194.714 L 31.6075,-194.533
 L 31.9123,-194.312 L 32.1869,-194.054 L 32.427,-193.763 L 32.6289,-193.445 L 32.7893,-193.104 L 32.9057,-192.746
 L 32.9763,-192.376 L 33,-192 L 32.9763,-191.624 L 32.9057,-191.254 L 32.7893,-190.896 L 32.6289,-190.555
 L 32.427,-190.237 L 32.1869,-189.946 L 31.9123,-189.688 L 31.6075,-189.467 L 31.2773,-189.286 L 30.927,-189.147
 L 30.5621,-189.053 L 30.1884,-189.006 z
M -30.1884,-189.006 L -30.5621,-189.053 L -30.927,-189.147 L -31.2773,-189.286 L -31.6075,-189.467 L -31.9123,-189.688
 L -32.1869,-189.946 L -32.427,-190.237 L -32.6289,-190.555 L -32.7893,-190.896 L -32.9057,-191.254 L -32.9763,-191.624
 L -33,-192 L -32.9763,-192.376 L -32.9057,-192.746 L -32.7893,-193.104 L -32.6289,-193.445 L -32.427,-193.763
 L -32.1869,-194.054 L -31.9123,-194.312 L -31.6075,-194.533 L -31.2773,-194.714 L -30.927,-194.853 L -30.5621,-194.947
 L -30.1884,-194.994 L -29.8116,-194.994 L -29.4379,-194.947 L -29.0729,-194.853 L -28.7227,-194.714 L -28.3925,-194.533
 L -28.0877,-194.312 L -27.8131,-194.054 L -27.5729,-193.763 L -27.3711,-193.445 L -27.2107,-193.104 L -27.0942,-192.746
 L -27.0237,-192.376 L -27,-192 L -27.0237,-191.624 L -27.0942,-191.254 L -27.2107,-190.896 L -27.3711,-190.555
 L -27.5729,-190.237 L -27.8131,-189.946 L -28.0877,-189.688 L -28.3925,-189.467 L -28.7227,-189.286 L -29.0729,-189.147
 L -29.4379,-189.053 L -29.8116,-189.006 z
M 89.8116,-189.006 L 89.4379,-189.053 L 89.073,-189.147 L 88.7227,-189.286 L 88.3925,-189.467 L 88.0877,-189.688
 L 87.8131,-189.946 L 87.573,-190.237 L 87.3711,-190.555 L 87.2107,-190.896 L 87.0943,-191.254 L 87.0237,-191.624
 L 87,-192 L 87.0237,-192.376 L 87.0943,-192.746 L 87.2107,-193.104 L 87.3711,-193.445 L 87.573,-193.763
 L 87.8131,-194.054 L 88.0877,-194.312 L 88.3925,-194.533 L 88.7227,-194.714 L 89.073,-194.853 L 89.4379,-194.947
 L 89.8116,-194.994 L 90.1884,-194.994 L 90.5621,-194.947 L 90.927,-194.853 L 91.2773,-194.714 L 91.6075,-194.533
 L 91.9123,-194.312 L 92.1869,-194.054 L 92.427,-193.763 L 92.6289,-193.445 L 92.7893,-193.104 L 92.9057,-192.746
 L 92.9763,-192.376 L 93,-192 L 92.9763,-191.624 L 92.9057,-191.254 L 92.7893,-190.896 L 92.6289,-190.555
 L 92.427,-190.237 L 92.1869,-189.946 L 91.9123,-189.688 L 91.6075,-189.467 L 91.2773,-189.286 L 90.927,-189.147
 L 90.5621,-189.053 L 90.1884,-189.006 z
M 14.8116,-189.006 L 14.4379,-189.053 L 14.0729,-189.147 L 13.7227,-189.286 L 13.3925,-189.467 L 13.0877,-189.688
 L 12.8131,-189.946 L 12.5729,-190.237 L 12.3711,-190.555 L 12.2107,-190.896 L 12.0942,-191.254 L 12.0237,-191.624
 L 12,-192 L 12.0237,-192.376 L 12.0942,-192.746 L 12.2107,-193.104 L 12.3711,-193.445 L 12.5729,-193.763
 L 12.8131,-194.054 L 13.0877,-194.312 L 13.3925,-194.533 L 13.7227,-194.714 L 14.0729,-194.853 L 14.4379,-194.947
 L 14.8116,-194.994 L 15.1884,-194.994 L 15.5621,-194.947 L 15.927,-194.853 L 16.2773,-194.714 L 16.6075,-194.533
 L 16.9123,-194.312 L 17.1869,-194.054 L 17.427,-193.763 L 17.6289,-193.445 L 17.7893,-193.104 L 17.9057,-192.746
 L 17.9763,-192.376 L 18,-192 L 17.9763,-191.624 L 17.9057,-191.254 L 17.7893,-190.896 L 17.6289,-190.555
 L 17.427,-190.237 L 17.1869,-189.946 L 16.9123,-189.688 L 16.6075,-189.467 L 16.2773,-189.286 L 15.927,-189.147
 L 15.5621,-189.053 L 15.1884,-189.006 z
M 119.812,-189.006 L 119.438,-189.053 L 119.073,-189.147 L 118.723,-189.286 L 118.393,-189.467 L 118.088,-189.688
 L 117.813,-189.946 L 117.573,-190.237 L 117.371,-190.555 L 117.211,-190.896 L 117.094,-191.254 L 117.024,-191.624
 L 117,-192 L 117.024,-192.376 L 117.094,-192.746 L 117.211,-193.104 L 117.371,-193.445 L 117.573,-193.763
 L 117.813,-194.054 L 118.088,-194.312 L 118.393,-194.533 L 118.723,-194.714 L 119.073,-194.853 L 119.438,-194.947
 L 119.812,-194.994 L 120.188,-194.994 L 120.562,-194.947 L 120.927,-194.853 L 121.277,-194.714 L 121.607,-194.533
 L 121.912,-194.312 L 122.187,-194.054 L 122.427,-193.763 L 122.629,-193.445 L 122.789,-193.104 L 122.906,-192.746
 L 122.976,-192.376 L 123,-192 L 122.976,-191.624 L 122.906,-191.254 L 122.789,-190.896 L 122.629,-190.555
 L 122.427,-190.237 L 122.187,-189.946 L 121.912,-189.688 L 121.607,-189.467 L 121.277,-189.286 L 120.927,-189.147
 L 120.562,-189.053 L 120.188,-189.006 z
M 137.937,-161.089 L 138.545,-161.245 L 139.129,-161.476 L 139.679,-161.778 L 140.187,-162.147 L 140.645,-162.577
 L 141.045,-163.061 L 141.382,-163.591 L 141.649,-164.159 L 141.843,-164.757 L 141.961,-165.373 L 142,-166
 L 142,-170 L 141.961,-170.627 L 141.843,-171.243 L 141.649,-171.841 L 141.382,-172.409 L 141.045,-172.939
 L 140.645,-173.423 L 140.187,-173.853 L 139.679,-174.222 L 139.129,-174.524 L 138.545,-174.755 L 137.937,-174.911
 L 137.314,-174.99 L -137.314,-174.99 L -137.937,-174.911 L -138.545,-174.755 L -139.129,-174.524 L -139.679,-174.222
 L -140.187,-173.853 L -140.645,-173.423 L -141.045,-172.939 L -141.382,-172.409 L -141.649,-171.841 L -141.843,-171.243
 L -141.961,-170.627 L -142,-170 L -142,-166 L -141.961,-165.373 L -141.843,-164.757 L -141.649,-164.159
 L -141.382,-163.591 L -141.045,-163.061 L -140.645,-162.577 L -140.187,-162.147 L -139.679,-161.778 L -139.129,-161.476
 L -138.545,-161.245 L -137.937,-161.089 L -137.314,-161.01 L 137.314,-161.01 z
M 119.812,-165.006 L 119.438,-165.053 L 119.073,-165.147 L 118.723,-165.286 L 118.393,-165.467 L 118.088,-165.688
 L 117.813,-165.946 L 117.573,-166.237 L 117.371,-166.555 L 117.211,-166.896 L 117.094,-167.254 L 117.024,-167.624
 L 117,-168 L 117.024,-168.376 L 117.094,-168.746 L 117.211,-169.104 L 117.371,-169.445 L 117.573,-169.763
 L 117.813,-170.054 L 118.088,-170.312 L 118.393,-170.533 L 118.723,-170.714 L 119.073,-170.853 L 119.438,-170.947
 L 119.812,-170.994 L 120.188,-170.994 L 120.562,-170.947 L 120.927,-170.853 L 121.277,-170.714 L 121.607,-170.533
 L 121.912,-170.312 L 122.187,-170.054 L 122.427,-169.763 L 122.629,-169.445 L 122.789,-169.104 L 122.906,-168.746
 L 122.976,-168.376 L 123,-168 L 122.976,-167.624 L 122.906,-167.254 L 122.789,-166.896 L 122.629,-166.555
 L 122.427,-166.237 L 122.187,-165.946 L 121.912,-165.688 L 121.607,-165.467 L 121.277,-165.286 L 120.927,-165.147
 L 120.562,-165.053 L 120.188,-165.006 z
M 74.8116,-165.006 L 74.4379,-165.053 L 74.073,-165.147 L 73.7227,-165.286 L 73.3925,-165.467 L 73.0877,-165.688
 L 72.8131,-165.946 L 72.573,-166.237 L 72.3711,-166.555 L 72.2107,-166.896 L 72.0943,-167.254 L 72.0237,-167.624
 L 72,-168 L 72.0237,-168.376 L 72.0943,-168.746 L 72.2107,-169.104 L 72.3711,-169.445 L 72.573,-169.763
 L 72.8131,-170.054 L 73.0877,-170.312 L 73.3925,-170.533 L 73.7227,-170.714 L 74.073,-170.853 L 74.4379,-170.947
 L 74.8116,-170.994 L 75.1884,-170.994 L 75.5621,-170.947 L 75.927,-170.853 L 76.2773,-170.714 L 76.6075,-170.533
 L 76.9123,-170.312 L 77.1869,-170.054 L 77.427,-169.763 L 77.6289,-169.445 L 77.7893,-169.104 L 77.9057,-168.746
 L 77.9763,-168.376 L 78,-168 L 77.9763,-167.624 L 77.9057,-167.254 L 77.7893,-166.896 L 77.6289,-166.555
 L 77.427,-166.237 L 77.1869,-165.946 L 76.9123,-165.688 L 76.6075,-165.467 L 76.2773,-165.286 L 75.927,-165.147
 L 75.5621,-165.053 L 75.1884,-165.006 z
M -135.188,-165.006 L -135.562,-165.053 L -135.927,-165.147 L -136.277,-165.286 L -136.607,-165.467 L -136.912,-165.688
 L -137.187,-165.946 L -137.427,-166.237 L -137.629,-166.555 L -137.789,-166.896 L -137.906,-167.254 L -137.976,-167.624
 L -138,-168 L -137.976,-168.376 L -137.906,-168.746 L -137.789,-169.104 L -137.629,-169.445 L -137.427,-169.763
 L -137.187,-170.054 L -136.912,-170.312 L -136.607,-170.533 L -136.277,-170.714 L -135.927,-170.853 L -135.562,-170.947
 L -135.188,-170.994 L -134.812,-170.994 L -134.438,-170.947 L -134.073,-170.853 L -133.723,-170.714 L -133.393,-170.533
 L -133.088,-170.312 L -132.813,-170.054 L -132.573,-169.763 L -132.371,-169.445 L -132.211,-169.104 L -132.094,-168.746
 L -132.024,-168.376 L -132,-168 L -132.024,-167.624 L -132.094,-167.254 L -132.211,-166.896 L -132.371,-166.555
 L -132.573,-166.237 L -132.813,-165.946 L -133.088,-165.688 L -133.393,-165.467 L -133.723,-165.286 L -134.073,-165.147
 L -134.438,-165.053 L -134.812,-165.006 z
M 59.8116,-165.006 L 59.4379,-165.053 L 59.0729,-165.147 L 58.7227,-165.286 L 58.3925,-165.467 L 58.0877,-165.688
 L 57.8131,-165.946 L 57.5729,-166.237 L 57.3711,-166.555 L 57.2107,-166.896 L 57.0942,-167.254 L 57.0237,-167.624
 L 57,-168 L 57.0237,-168.376 L 57.0942,-168.746 L 57.2107,-169.104 L 57.3711,-169.445 L 57.5729,-169.763
 L 57.8131,-170.054 L 58.0877,-170.312 L 58.3925,-170.533 L 58.7227,-170.714 L 59.0729,-170.853 L 59.4379,-170.947
 L 59.8116,-170.994 L 60.1884,-170.994 L 60.5621,-170.947 L 60.927,-170.853 L 61.2773,-170.714 L 61.6075,-170.533
 L 61.9123,-170.312 L 62.1869,-170.054 L 62.427,-169.763 L 62.6289,-169.445 L 62.7893,-169.104 L 62.9057,-168.746
 L 62.9763,-168.376 L 63,-168 L 62.9763,-167.624 L 62.9057,-167.254 L 62.7893,-166.896 L 62.6289,-166.555
 L 62.427,-166.237 L 62.1869,-165.946 L 61.9123,-165.688 L 61.6075,-165.467 L 61.2773,-165.286 L 60.927,-165.147
 L 60.5621,-165.053 L 60.1884,-165.006 z
M 29.8116,-165.006 L 29.4379,-165.053 L 29.0729,-165.147 L 28.7227,-165.286 L 28.3925,-165.467 L 28.0877,-165.688
 L 27.8131,-165.946 L 27.5729,-166.237 L 27.3711,-166.555 L 27.2107,-166.896 L 27.0942,-167.254 L 27.0237,-167.624
 L 27,-168 L 27.0237,-168.376 L 27.0942,-168.746 L 27.2107,-169.104 L 27.3711,-169.445 L 27.5729,-169.763
 L 27.8131,-170.054 L 28.0877,-170.312 L 28.3925,-170.533 L 28.7227,-170.714 L 29.0729,-170.853 L 29.4379,-170.947
 L 29.8116,-170.994 L 30.1884,-170.994 L 30.5621,-170.947 L 30.927,-170.853 L 31.2773,-170.714 L 31.6075,-170.533
 L 31.9123,-170.312 L 32.1869,-170.054 L 32.427,-169.763 L 32.6289,-169.445 L 32.7893,-169.104 L 32.9057,-168.746
 L 32.9763,-168.376 L 33,-168 L 32.9763,-167.624 L 32.9057,-167.254 L 32.7893,-166.896 L 32.6289,-166.555
 L 32.427,-166.237 L 32.1869,-165.946 L 31.9123,-165.688 L 31.6075,-165.467 L 31.2773,-165.286 L 30.927,-165.147
 L 30.5621,-165.053 L 30.1884,-165.006 z
M 104.812,-165.006 L 104.438,-165.053 L 104.073,-165.147 L 103.723,-165.286 L 103.393,-165.467 L 103.088,-165.688
 L 102.813,-165.946 L 102.573,-166.237 L 102.371,-166.555 L 102.211,-166.896 L 102.094,-167.254 L 102.024,-167.624
 L 102,-168 L 102.024,-168.376 L 102.094,-168.746 L 102.211,-169.104 L 102.371,-169.445 L 102.573,-169.763
 L 102.813,-170.054 L 103.088,-170.312 L 103.393,-170.533 L 103.723,-170.714 L 104.073,-170.853 L 104.438,-170.947
 L 104.812,-170.994 L 105.188,-170.994 L 105.562,-170.947 L 105.927,-170.853 L 106.277,-170.714 L 106.607,-170.533
 L 106.912,-170.312 L 107.187,-170.054 L 107.427,-169.763 L 107.629,-169.445 L 107.789,-169.104 L 107.906,-168.746
 L 107.976,-168.376 L 108,-168 L 107.976,-167.624 L 107.906,-167.254 L 107.789,-166.896 L 107.629,-166.555
 L 107.427,-166.237 L 107.187,-165.946 L 106.912,-165.688 L 106.607,-165.467 L 106.277,-165.286 L 105.927,-165.147
 L 105.562,-165.053 L 105.188,-165.006 z
M -30.1884,-165.006 L -30.5621,-165.053 L -30.927,-165.147 L -31.2773,-165.286 L -31.6075,-165.467 L -31.9123,-165.688
 L -32.1869,-165.946 L -32.427,-166.237 L -32.6289,-166.555 L -32.7893,-166.896 L -32.9057,-167.254 L -32.9763,-167.624
 L -33,-168 L -32.9763,-168.376 L -32.9057,-168.746 L -32.7893,-169.104 L -32.6289,-169.445 L -32.427,-169.763
 L -32.1869,-170.054 L -31.9123,-170.312 L -31.6075,-170.533 L -31.2773,-170.714 L -30.927,-170.853 L -30.5621,-170.947
 L -30.1884,-170.994 L -29.8116,-170.994 L -29.4379,-170.947 L -29.0729,-170.853 L -28.7227,-170.714 L -28.3925,-170.533
 L -28.0877,-170.312 L -27.8131,-170.054 L -27.5729,-169.763 L -27.3711,-169.445 L -27.2107,-169.104 L -27.0942,-168.746
 L -27.0237,-168.376 L -27,-168 L -27.0237,-167.624 L -27.0942,-167.254 L -27.2107,-166.896 L -27.3711,-166.555
 L -27.5729,-166.237 L -27.8131,-165.946 L -28.0877,-165.688 L -28.3925,-165.467 L -28.7227,-165.286 L -29.0729,-165.147
 L -29.4379,-165.053 L -29.8116,-165.006 z
M 89.8116,-165.006 L 89.4379,-165.053 L 89.073,-165.147 L 88.7227,-165.286 L 88.3925,-165.467 L 88.0877,-165.688
 L 87.8131,-165.946 L 87.573,-166.237 L 87.3711,-166.555 L 87.2107,-166.896 L 87.0943,-167.254 L 87.0237,-167.624
 L 87,-168 L 87.0237,-168.376 L 87.0943,-168.746 L 87.2107,-169.104 L 87.3711,-169.445 L 87.573,-169.763
 L 87.8131,-170.054 L 88.0877,-170.312 L 88.3925,-170.533 L 88.7227,-170.714 L 89.073,-170.853 L 89.4379,-170.947
 L 89.8116,-170.994 L 90.1884,-170.994 L 90.5621,-170.947 L 90.927,-170.853 L 91.2773,-170.714 L 91.6075,-170.533
 L 91.9123,-170.312 L 92.1869,-170.054 L 92.427,-169.763 L 92.6289,-169.445 L 92.7893,-169.104 L 92.9057,-168.746
 L 92.9763,-168.376 L 93,-168 L 92.9763,-167.624 L 92.9057,-167.254 L 92.7893,-166.896 L 92.6289,-166.555
 L 92.427,-166.237 L 92.1869,-165.946 L 91.9123,-165.688 L 91.6075,-165.467 L 91.2773,-165.286 L 90.927,-165.147
 L 90.5621,-165.053 L 90.1884,-165.006 z
M 14.8116,-165.006 L 14.4379,-165.053 L 14.0729,-165.147 L 13.7227,-165.286 L 13.3925,-165.467 L 13.0877,-165.688
 L 12.8131,-165.946 L 12.5729,-166.237 L 12.3711,-166.555 L 12.2107,-166.896 L 12.0942,-167.254 L 12.0237,-167.624
 L 12,-168 L 12.0237,-168.376 L 12.0942,-168.746 L 12.2107,-169.104 L 12.3711,-169.445 L 12.5729,-169.763
 L 12.8131,-170.054 L 13.0877,-170.312 L 13.3925,-170.533 L 13.7227,-170.714 L 14.0729,-170.853 L 14.4379,-170.947
 L 14.8116,-170.994 L 15.1884,-170.994 L 15.5621,-170.947 L 15.927,-170.853 L 16.2773,-170.714 L 16.6075,-170.533
 L 16.9123,-170.312 L 17.1869,-170.054 L 17.427,-169.763 L 17.6289,-169.445 L 17.7893,-169.104 L 17.9057,-168.746
 L 17.9763,-168.376 L 18,-168 L 17.9763,-167.624 L 17.9057,-167.254 L 17.7893,-166.896 L 17.6289,-166.555
 L 17.427,-166.237 L 17.1869,-165.946 L 16.9123,-165.688 L 16.6075,-165.467 L 16.2773,-165.286 L 15.927,-165.147
 L 15.5621,-165.053 L 15.1884,-165.006 z
M -45.1884,-165.006 L -45.5621,-165.053 L -45.927,-165.147 L -46.2773,-165.286 L -46.6075,-165.467 L -46.9123,-165.688
 L -47.1869,-165.946 L -47.427,-166.237 L -47.6289,-166.555 L -47.7893,-166.896 L -47.9057,-167.254 L -47.9763,-167.624
 L -48,-168 L -47.9763,-168.376 L -47.9057,-168.746 L -47.7893,-169.104 L -47.6289,-169.445 L -47.427,-169.763
 L -47.1869,-170.054 L -46.9123,-170.312 L -46.6075,-170.533 L -46.2773,-170.714 L -45.927,-170.853 L -45.5621,-170.947
 L -45.1884,-170.994 L -44.8116,-170.994 L -44.4379,-170.947 L -44.0729,-170.853 L -43.7227,-170.714 L -43.3925,-170.533
 L -43.0877,-170.312 L -42.8131,-170.054 L -42.5729,-169.763 L -42.3711,-169.445 L -42.2107,-169.104 L -42.0942,-168.746
 L -42.0237,-168.376 L -42,-168 L -42.0237,-167.624 L -42.0942,-167.254 L -42.2107,-166.896 L -42.3711,-166.555
 L -42.5729,-166.237 L -42.8131,-165.946 L -43.0877,-165.688 L -43.3925,-165.467 L -43.7227,-165.286 L -44.0729,-165.147
 L -44.4379,-165.053 L -44.8116,-165.006 z
M -105.188,-165.006 L -105.562,-165.053 L -105.927,-165.147 L -106.277,-165.286 L -106.607,-165.467 L -106.912,-165.688
 L -107.187,-165.946 L -107.427,-166.237 L -107.629,-166.555 L -107.789,-166.896 L -107.906,-167.254 L -107.976,-167.624
 L -108,-168 L -107.976,-168.376 L -107.906,-168.746 L -107.789,-169.104 L -107.629,-169.445 L -107.427,-169.763
 L -107.187,-170.054 L -106.912,-170.312 L -106.607,-170.533 L -106.277,-170.714 L -105.927,-170.853 L -105.562,-170.947
 L -105.188,-170.994 L -104.812,-170.994 L -104.438,-170.947 L -104.073,-170.853 L -103.723,-170.714 L -103.393,-170.533
 L -103.088,-170.312 L -102.813,-170.054 L -102.573,-169.763 L -102.371,-169.445 L -102.211,-169.104 L -102.094,-168.746
 L -102.024,-168.376 L -102,-168 L -102.024,-167.624 L -102.094,-167.254 L -102.211,-166.896 L -102.371,-166.555
 L -102.573,-166.237 L -102.813,-165.946 L -103.088,-165.688 L -103.393,-165.467 L -103.723,-165.286 L -104.073,-165.147
 L -104.438,-165.053 L -104.812,-165.006 z
M 44.8116,-165.006 L 44.4379,-165.053 L 44.0729,-165.147 L 43.7227,-165.286 L 43.3925,-165.467 L 43.0877,-165.688
 L 42.8131,-165.946 L 42.5729,-166.237 L 42.3711,-166.555 L 42.2107,-166.896 L 42.0942,-167.254 L 42.0237,-167.624
 L 42,-168 L 42.0237,-168.376 L 42.0942,-168.746 L 42.2107,-169.104 L 42.3711,-169.445 L 42.5729,-169.763
 L 42.8131,-170.054 L 43.0877,-170.312 L 43.3925,-170.533 L 43.7227,-170.714 L 44.0729,-170.853 L 44.4379,-170.947
 L 44.8116,-170.994 L 45.1884,-170.994 L 45.5621,-170.947 L 45.927,-170.853 L 46.2773,-170.714 L 46.6075,-170.533
 L 46.9123,-170.312 L 47.1869,-170.054 L 47.427,-169.763 L 47.6289,-169.445 L 47.7893,-169.104 L 47.9057,-168.746
 L 47.9763,-168.376 L 48,-168 L 47.9763,-167.624 L 47.9057,-167.254 L 47.7893,-166.896 L 47.6289,-166.555
 L 47.427,-166.237 L 47.1869,-165.946 L 46.9123,-165.688 L 46.6075,-165.467 L 46.2773,-165.286 L 45.927,-165.147
 L 45.5621,-165.053 L 45.1884,-165.006 z
M -15.1884,-165.006 L -15.5621,-165.053 L -15.927,-165.147 L -16.2773,-165.286 L -16.6075,-165.467 L -16.9123,-165.688
 L -17.1869,-165.946 L -17.427,-166.237 L -17.6289,-166.555 L -17.7893,-166.896 L -17.9057,-167.254 L -17.9763,-167.624
 L -18,-168 L -17.9763,-168.376 L -17.9057,-168.746 L -17.7893,-169.104 L -17.6289,-169.445 L -17.427,-169.763
 L -17.1869,-170.054 L -16.9123,-170.312 L -16.6075,-170.533 L -16.2773,-170.714 L -15.927,-170.853 L -15.5621,-170.947
 L -15.1884,-170.994 L -14.8116,-170.994 L -14.4379,-170.947 L -14.0729,-170.853 L -13.7227,-170.714 L -13.3925,-170.533
 L -13.0877,-170.312 L -12.8131,-170.054 L -12.5729,-169.763 L -12.3711,-169.445 L -12.2107,-169.104 L -12.0942,-168.746
 L -12.0237,-168.376 L -12,-168 L -12.0237,-167.624 L -12.0942,-167.254 L -12.2107,-166.896 L -12.3711,-166.555
 L -12.5729,-166.237 L -12.8131,-165.946 L -13.0877,-165.688 L -13.3925,-165.467 L -13.7227,-165.286 L -14.0729,-165.147
 L -14.4379,-165.053 L -14.8116,-165.006 z
M -90.1884,-165.006 L -90.5621,-165.053 L -90.927,-165.147 L -91.2773,-165.286 L -91.6075,-165.467 L -91.9123,-165.688
 L -92.1869,-165.946 L -92.427,-166.237 L -92.6289,-166.555 L -92.7893,-166.896 L -92.9057,-167.254 L -92.9763,-167.624
 L -93,-168 L -92.9763,-168.376 L -92.9057,-168.746 L -92.7893,-169.104 L -92.6289,-169.445 L -92.427,-169.763
 L -92.1869,-170.054 L -91.9123,-170.312 L -91.6075,-170.533 L -91.2773,-170.714 L -90.927,-170.853 L -90.5621,-170.947
 L -90.1884,-170.994 L -89.8116,-170.994 L -89.4379,-170.947 L -89.073,-170.853 L -88.7227,-170.714 L -88.3925,-170.533
 L -88.0877,-170.312 L -87.8131,-170.054 L -87.573,-169.763 L -87.3711,-169.445 L -87.2107,-169.104 L -87.0943,-168.746
 L -87.0237,-168.376 L -87,-168 L -87.0237,-167.624 L -87.0943,-167.254 L -87.2107,-166.896 L -87.3711,-166.555
 L -87.573,-166.237 L -87.8131,-165.946 L -88.0877,-165.688 L -88.3925,-165.467 L -88.7227,-165.286 L -89.073,-165.147
 L -89.4379,-165.053 L -89.8116,-165.006 z
M -75.1884,-165.006 L -75.5621,-165.053 L -75.927,-165.147 L -76.2773,-165.286 L -76.6075,-165.467 L -76.9123,-165.688
 L -77.1869,-165.946 L -77.427,-166.237 L -77.6289,-166.555 L -77.7893,-166.896 L -77.9057,-167.254 L -77.9763,-167.624
 L -78,-168 L -77.9763,-168.376 L -77.9057,-168.746 L -77.7893,-169.104 L -77.6289,-169.445 L -77.427,-169.763
 L -77.1869,-170.054 L -76.9123,-170.312 L -76.6075,-170.533 L -76.2773,-170.714 L -75.927,-170.853 L -75.5621,-170.947
 L -75.1884,-170.994 L -74.8116,-170.994 L -74.4379,-170.947 L -74.073,-170.853 L -73.7227,-170.714 L -73.3925,-170.533
 L -73.0877,-170.312 L -72.8131,-170.054 L -72.573,-169.763 L -72.3711,-169.445 L -72.2107,-169.104 L -72.0943,-168.746
 L -72.0237,-168.376 L -72,-168 L -72.0237,-167.624 L -72.0943,-167.254 L -72.2107,-166.896 L -72.3711,-166.555
 L -72.573,-166.237 L -72.8131,-165.946 L -73.0877,-165.688 L -73.3925,-165.467 L -73.7227,-165.286 L -74.073,-165.147
 L -74.4379,-165.053 L -74.8116,-165.006 z
M -0.18837,-165.006 L -0.562134,-165.053 L -0.927048,-165.147 L -1.27733,-165.286 L -1.60747,-165.467 L -1.91226,-165.688
 L -2.1869,-165.946 L -2.42705,-166.237 L -2.62891,-166.555 L -2.78932,-166.896 L -2.90575,-167.254 L -2.97633,-167.624
 L -3,-168 L -2.97633,-168.376 L -2.90575,-168.746 L -2.78932,-169.104 L -2.62891,-169.445 L -2.42705,-169.763
 L -2.1869,-170.054 L -1.91226,-170.312 L -1.60747,-170.533 L -1.27733,-170.714 L -0.927048,-170.853 L -0.562134,-170.947
 L -0.18837,-170.994 L 0.18837,-170.994 L 0.562134,-170.947 L 0.927048,-170.853 L 1.27733,-170.714 L 1.60747,-170.533
 L 1.91226,-170.312 L 2.1869,-170.054 L 2.42705,-169.763 L 2.62891,-169.445 L 2.78932,-169.104 L 2.90575,-168.746
 L 2.97633,-168.376 L 3,-168 L 2.97633,-167.624 L 2.90575,-167.254 L 2.78932,-166.896 L 2.62891,-166.555
 L 2.42705,-166.237 L 2.1869,-165.946 L 1.91226,-165.688 L 1.60747,-165.467 L 1.27733,-165.286 L 0.927048,-165.147
 L 0.562134,-165.053 L 0.18837,-165.006 z
M -60.1884,-165.006 L -60.5621,-165.053 L -60.927,-165.147 L -61.2773,-165.286 L -61.6075,-165.467 L -61.9123,-165.688
 L -62.1869,-165.946 L -62.427,-166.237 L -62.6289,-166.555 L -62.7893,-166.896 L -62.9057,-167.254 L -62.9763,-167.624
 L -63,-168 L -62.9763,-168.376 L -62.9057,-168.746 L -62.7893,-169.104 L -62.6289,-169.445 L -62.427,-169.763
 L -62.1869,-170.054 L -61.9123,-170.312 L -61.6075,-170.533 L -61.2773,-170.714 L -60.927,-170.853 L -60.5621,-170.947
 L -60.1884,-170.994 L -59.8116,-170.994 L -59.4379,-170.947 L -59.0729,-170.853 L -58.7227,-170.714 L -58.3925,-170.533
 L -58.0877,-170.312 L -57.8131,-170.054 L -57.5729,-169.763 L -57.3711,-169.445 L -57.2107,-169.104 L -57.0942,-168.746
 L -57.0237,-168.376 L -57,-168 L -57.0237,-167.624 L -57.0942,-167.254 L -57.2107,-166.896 L -57.3711,-166.555
 L -57.5729,-166.237 L -57.8131,-165.946 L -58.0877,-165.688 L -58.3925,-165.467 L -58.7227,-165.286 L -59.0729,-165.147
 L -59.4379,-165.053 L -59.8116,-165.006 z
M -120.188,-165.006 L -120.562,-165.053 L -120.927,-165.147 L -121.277,-165.286 L -121.607,-165.467 L -121.912,-165.688
 L -122.187,-165.946 L -122.427,-166.237 L -122.629,-166.555 L -122.789,-166.896 L -122.906,-167.254 L -122.976,-167.624
 L -123,-168 L -122.976,-168.376 L -122.906,-168.746 L -122.789,-169.104 L -122.629,-169.445 L -122.427,-169.763
 L -122.187,-170.054 L -121.912,-170.312 L -121.607,-170.533 L -121.277,-170.714 L -120.927,-170.853 L -120.562,-170.947
 L -120.188,-170.994 L -119.812,-170.994 L -119.438,-170.947 L -119.073,-170.853 L -118.723,-170.714 L -118.393,-170.533
 L -118.088,-170.312 L -117.813,-170.054 L -117.573,-169.763 L -117.371,-169.445 L -117.211,-169.104 L -117.094,-168.746
 L -117.024,-168.376 L -117,-168 L -117.024,-167.624 L -117.094,-167.254 L -117.211,-166.896 L -117.371,-166.555
 L -117.573,-166.237 L -117.813,-165.946 L -118.088,-165.688 L -118.393,-165.467 L -118.723,-165.286 L -119.073,-165.147
 L -119.438,-165.053 L -119.812,-165.006 z
M 134.812,-165.006 L 134.438,-165.053 L 134.073,-165.147 L 133.723,-165.286 L 133.393,-165.467 L 133.088,-165.688
 L 132.813,-165.946 L 132.573,-166.237 L 132.371,-166.555 L 132.211,-166.896 L 132.094,-167.254 L 132.024,-167.624
 L 132,-168 L 132.024,-168.376 L 132.094,-168.746 L 132.211,-169.104 L 132.371,-169.445 L 132.573,-169.763
 L 132.813,-170.054 L 133.088,-170.312 L 133.393,-170.533 L 133.723,-170.714 L 134.073,-170.853 L 134.438,-170.947
 L 134.812,-170.994 L 135.188,-170.994 L 135.562,-170.947 L 135.927,-170.853 L 136.277,-170.714 L 136.607,-170.533
 L 136.912,-170.312 L 137.187,-170.054 L 137.427,-169.763 L 137.629,-169.445 L 137.789,-169.104 L 137.906,-168.746
 L 137.976,-168.376 L 138,-168 L 137.976,-167.624 L 137.906,-167.254 L 137.789,-166.896 L 137.629,-166.555
 L 137.427,-166.237 L 137.187,-165.946 L 136.912,-165.688 L 136.607,-165.467 L 136.277,-165.286 L 135.927,-165.147
 L 135.562,-165.053 L 135.188,-165.006 z
M 137.937,-137.089 L 138.545,-137.245 L 139.129,-137.476 L 139.679,-137.778 L 140.187,-138.147 L 140.645,-138.577
 L 141.045,-139.061 L 141.382,-139.591 L 141.649,-140.159 L 141.843,-140.757 L 141.961,-141.373 L 142,-142
 L 142,-146 L 141.961,-146.627 L 141.843,-147.243 L 141.649,-147.841 L 141.382,-148.409 L 141.045,-148.939
 L 140.645,-149.423 L 140.187,-149.853 L 139.679,-150.222 L 139.129,-150.524 L 138.545,-150.755 L 137.937,-150.911
 L 137.314,-150.99 L -137.314,-150.99 L -137.937,-150.911 L -138.545,-150.755 L -139.129,-150.524 L -139.679,-150.222
 L -140.187,-149.853 L -140.645,-149.423 L -141.045,-148.939 L -141.382,-148.409 L -141.649,-147.841 L -141.843,-147.243
 L -141.961,-146.627 L -142,-146 L -142,-142 L -141.961,-141.373 L -141.843,-140.757 L -141.649,-140.159
 L -141.382,-139.591 L -141.045,-139.061 L -140.645,-138.577 L -140.187,-138.147 L -139.679,-137.778 L -139.129,-137.476
 L -138.545,-137.245 L -137.937,-137.089 L -137.314,-137.01 L 137.314,-137.01 z
M -0.18837,-141.006 L -0.562134,-141.053 L -0.927048,-141.147 L -1.27733,-141.286 L -1.60747,-141.467 L -1.91226,-141.688
 L -2.1869,-141.946 L -2.42705,-142.237 L -2.62891,-142.555 L -2.78932,-142.896 L -2.90575,-143.254 L -2.97633,-143.624
 L -3,-144 L -2.97633,-144.376 L -2.90575,-144.746 L -2.78932,-145.104 L -2.62891,-145.445 L -2.42705,-145.763
 L -2.1869,-146.054 L -1.91226,-146.312 L -1.60747,-146.533 L -1.27733,-146.714 L -0.927048,-146.853 L -0.562134,-146.947
 L -0.18837,-146.994 L 0.18837,-146.994 L 0.562134,-146.947 L 0.927048,-146.853 L 1.27733,-146.714 L 1.60747,-146.533
 L 1.91226,-146.312 L 2.1869,-146.054 L 2.42705,-145.763 L 2.62891,-145.445 L 2.78932,-145.104 L 2.90575,-144.746
 L 2.97633,-144.376 L 3,-144 L 2.97633,-143.624 L 2.90575,-143.254 L 2.78932,-142.896 L 2.62891,-142.555
 L 2.42705,-142.237 L 2.1869,-141.946 L 1.91226,-141.688 L 1.60747,-141.467 L 1.27733,-141.286 L 0.927048,-141.147
 L 0.562134,-141.053 L 0.18837,-141.006 z
M 44.8116,-141.006 L 44.4379,-141.053 L 44.0729,-141.147 L 43.7227,-141.286 L 43.3925,-141.467 L 43.0877,-141.688
 L 42.8131,-141.946 L 42.5729,-142.237 L 42.3711,-142.555 L 42.2107,-142.896 L 42.0942,-143.254 L 42.0237,-143.624
 L 42,-144 L 42.0237,-144.376 L 42.0942,-144.746 L 42.2107,-145.104 L 42.3711,-145.445 L 42.5729,-145.763
 L 42.8131,-146.054 L 43.0877,-146.312 L 43.3925,-146.533 L 43.7227,-146.714 L 44.0729,-146.853 L 44.4379,-146.947
 L 44.8116,-146.994 L 45.1884,-146.994 L 45.5621,-146.947 L 45.927,-146.853 L 46.2773,-146.714 L 46.6075,-146.533
 L 46.9123,-146.312 L 47.1869,-146.054 L 47.427,-145.763 L 47.6289,-145.445 L 47.7893,-145.104 L 47.9057,-144.746
 L 47.9763,-144.376 L 48,-144 L 47.9763,-143.624 L 47.9057,-143.254 L 47.7893,-142.896 L 47.6289,-142.555
 L 47.427,-142.237 L 47.1869,-141.946 L 46.9123,-141.688 L 46.6075,-141.467 L 46.2773,-141.286 L 45.927,-141.147
 L 45.5621,-141.053 L 45.1884,-141.006 z
M -15.1884,-141.006 L -15.5621,-141.053 L -15.927,-141.147 L -16.2773,-141.286 L -16.6075,-141.467 L -16.9123,-141.688
 L -17.1869,-141.946 L -17.427,-142.237 L -17.6289,-142.555 L -17.7893,-142.896 L -17.9057,-143.254 L -17.9763,-143.624
 L -18,-144 L -17.9763,-144.376 L -17.9057,-144.746 L -17.7893,-145.104 L -17.6289,-145.445 L -17.427,-145.763
 L -17.1869,-146.054 L -16.9123,-146.312 L -16.6075,-146.533 L -16.2773,-146.714 L -15.927,-146.853 L -15.5621,-146.947
 L -15.1884,-146.994 L -14.8116,-146.994 L -14.4379,-146.947 L -14.0729,-146.853 L -13.7227,-146.714 L -13.3925,-146.533
 L -13.0877,-146.312 L -12.8131,-146.054 L -12.5729,-145.763 L -12.3711,-145.445 L -12.2107,-145.104 L -12.0942,-144.746
 L -12.0237,-144.376 L -12,-144 L -12.0237,-143.624 L -12.0942,-143.254 L -12.2107,-142.896 L -12.3711,-142.555
 L -12.5729,-142.237 L -12.8131,-141.946 L -13.0877,-141.688 L -13.3925,-141.467 L -13.7227,-141.286 L -14.0729,-141.147
 L -14.4379,-141.053 L -14.8116,-141.006 z
M -90.1884,-141.006 L -90.5621,-141.053 L -90.927,-141.147 L -91.2773,-141.286 L -91.6075,-141.467 L -91.9123,-141.688
 L -92.1869,-141.946 L -92.427,-142.237 L -92.6289,-142.555 L -92.7893,-142.896 L -92.9057,-143.254 L -92.9763,-143.624
 L -93,-144 L -92.9763,-144.376 L -92.9057,-144.746 L -92.7893,-145.104 L -92.6289,-145.445 L -92.427,-145.763
 L -92.1869,-146.054 L -91.9123,-146.312 L -91.6075,-146.533 L -91.2773,-146.714 L -90.927,-146.853 L -90.5621,-146.947
 L -90.1884,-146.994 L -89.8116,-146.994 L -89.4379,-146.947 L -89.073,-146.853 L -88.7227,-146.714 L -88.3925,-146.533
 L -88.0877,-146.312 L -87.8131,-146.054 L -87.573,-145.763 L -87.3711,-145.445 L -87.2107,-145.104 L -87.0943,-144.746
 L -87.0237,-144.376 L -87,-144 L -87.0237,-143.624 L -87.0943,-143.254 L -87.2107,-142.896 L -87.3711,-142.555
 L -87.573,-142.237 L -87.8131,-141.946 L -88.0877,-141.688 L -88.3925,-141.467 L -88.7227,-141.286 L -89.073,-141.147
 L -89.4379,-141.053 L -89.8116,-141.006 z
M -75.1884,-141.006 L -75.5621,-141.053 L -75.927,-141.147 L -76.2773,-141.286 L -76.6075,-141.467 L -76.9123,-141.688
 L -77.1869,-141.946 L -77.427,-142.237 L -77.6289,-142.555 L -77.7893,-142.896 L -77.9057,-143.254 L -77.9763,-143.624
 L -78,-144 L -77.9763,-144.376 L -77.9057,-144.746 L -77.7893,-145.104 L -77.6289,-145.445 L -77.427,-145.763
 L -77.1869,-146.054 L -76.9123,-146.312 L -76.6075,-146.533 L -76.2773,-146.714 L -75.927,-146.853 L -75.5621,-146.947
 L -75.1884,-146.994 L -74.8116,-146.994 L -74.4379,-146.947 L -74.073,-146.853 L -73.7227,-146.714 L -73.3925,-146.533
 L -73.0877,-146.312 L -72.8131,-146.054 L -72.573,-145.763 L -72.3711,-145.445 L -72.2107,-145.104 L -72.0943,-144.746
 L -72.0237,-144.376 L -72,-144 L -72.0237,-143.624 L -72.0943,-143.254 L -72.2107,-142.896 L -72.3711,-142.555
 L -72.573,-142.237 L -72.8131,-141.946 L -73.0877,-141.688 L -73.3925,-141.467 L -73.7227,-141.286 L -74.073,-141.147
 L -74.4379,-141.053 L -74.8116,-141.006 z
M -60.1884,-141.006 L -60.5621,-141.053 L -60.927,-141.147 L -61.2773,-141.286 L -61.6075,-141.467 L -61.9123,-141.688
 L -62.1869,-141.946 L -62.427,-142.237 L -62.6289,-142.555 L -62.7893,-142.896 L -62.9057,-143.254 L -62.9763,-143.624
 L -63,-144 L -62.9763,-144.376 L -62.9057,-144.746 L -62.7893,-145.104 L -62.6289,-145.445 L -62.427,-145.763
 L -62.1869,-146.054 L -61.9123,-146.312 L -61.6075,-146.533 L -61.2773,-146.714 L -60.927,-146.853 L -60.5621,-146.947
 L -60.1884,-146.994 L -59.8116,-146.994 L -59.4379,-146.947 L -59.0729,-146.853 L -58.7227,-146.714 L -58.3925,-146.533
 L -58.0877,-146.312 L -57.8131,-146.054 L -57.5729,-145.763 L -57.3711,-145.445 L -57.2107,-145.104 L -57.0942,-144.746
 L -57.0237,-144.376 L -57,-144 L -57.0237,-143.624 L -57.0942,-143.254 L -57.2107,-142.896 L -57.3711,-142.555
 L -57.5729,-142.237 L -57.8131,-141.946 L -58.0877,-141.688 L -58.3925,-141.467 L -58.7227,-141.286 L -59.0729,-141.147
 L -59.4379,-141.053 L -59.8116,-141.006 z
M -120.188,-141.006 L -120.562,-141.053 L -120.927,-141.147 L -121.277,-141.286 L -121.607,-141.467 L -121.912,-141.688
 L -122.187,-141.946 L -122.427,-142.237 L -122.629,-142.555 L -122.789,-142.896 L -122.906,-143.254 L -122.976,-143.624
 L -123,-144 L -122.976,-144.376 L -122.906,-144.746 L -122.789,-145.104 L -122.629,-145.445 L -122.427,-145.763
 L -122.187,-146.054 L -121.912,-146.312 L -121.607,-146.533 L -121.277,-146.714 L -120.927,-146.853 L -120.562,-146.947
 L -120.188,-146.994 L -119.812,-146.994 L -119.438,-146.947 L -119.073,-146.853 L -118.723,-146.714 L -118.393,-146.533
 L -118.088,-146.312 L -117.813,-146.054 L -117.573,-145.763 L -117.371,-145.445 L -117.211,-145.104 L -117.094,-144.746
 L -117.024,-144.376 L -117,-144 L -117.024,-143.624 L -117.094,-143.254 L -117.211,-142.896 L -117.371,-142.555
 L -117.573,-142.237 L -117.813,-141.946 L -118.088,-141.688 L -118.393,-141.467 L -118.723,-141.286 L -119.073,-141.147
 L -119.438,-141.053 L -119.812,-141.006 z
M 134.812,-141.006 L 134.438,-141.053 L 134.073,-141.147 L 133.723,-141.286 L 133.393,-141.467 L 133.088,-141.688
 L 132.813,-141.946 L 132.573,-142.237 L 132.371,-142.555 L 132.211,-142.896 L 132.094,-143.254 L 132.024,-143.624
 L 132,-144 L 132.024,-144.376 L 132.094,-144.746 L 132.211,-145.104 L 132.371,-145.445 L 132.573,-145.763
 L 132.813,-146.054 L 133.088,-146.312 L 133.393,-146.533 L 133.723,-146.714 L 134.073,-146.853 L 134.438,-146.947
 L 134.812,-146.994 L 135.188,-146.994 L 135.562,-146.947 L 135.927,-146.853 L 136.277,-146.714 L 136.607,-146.533
 L 136.912,-146.312 L 137.187,-146.054 L 137.427,-145.763 L 137.629,-145.445 L 137.789,-145.104 L 137.906,-144.746
 L 137.976,-144.376 L 138,-144 L 137.976,-143.624 L 137.906,-143.254 L 137.789,-142.896 L 137.629,-142.555
 L 137.427,-142.237 L 137.187,-141.946 L 136.912,-141.688 L 136.607,-141.467 L 136.277,-141.286 L 135.927,-141.147
 L 135.562,-141.053 L 135.188,-141.006 z
M -105.188,-141.006 L -105.562,-141.053 L -105.927,-141.147 L -106.277,-141.286 L -106.607,-141.467 L -106.912,-141.688
 L -107.187,-141.946 L -107.427,-142.237 L -107.629,-142.555 L -107.789,-142.896 L -107.906,-143.254 L -107.976,-143.624
 L -108,-144 L -107.976,-144.376 L -107.906,-144.746 L -107.789,-145.104 L -107.629,-145.445 L -107.427,-145.763
 L -107.187,-146.054 L -106.912,-146.312 L -106.607,-146.533 L -106.277,-146.714 L -105.927,-146.853 L -105.562,-146.947
 L -105.188,-146.994 L -104.812,-146.994 L -104.438,-146.947 L -104.073,-146.853 L -103.723,-146.714 L -103.393,-146.533
 L -103.088,-146.312 L -102.813,-146.054 L -102.573,-145.763 L -102.371,-145.445 L -102.211,-145.104 L -102.094,-144.746
 L -102.024,-144.376 L -102,-144 L -102.024,-143.624 L -102.094,-143.254 L -102.211,-142.896 L -102.371,-142.555
 L -102.573,-142.237 L -102.813,-141.946 L -103.088,-141.688 L -103.393,-141.467 L -103.723,-141.286 L -104.073,-141.147
 L -104.438,-141.053 L -104.812,-141.006 z
M -45.1884,-141.006 L -45.5621,-141.053 L -45.927,-141.147 L -46.2773,-141.286 L -46.6075,-141.467 L -46.9123,-141.688
 L -47.1869,-141.946 L -47.427,-142.237 L -47.6289,-142.555 L -47.7893,-142.896 L -47.9057,-143.254 L -47.9763,-143.624
 L -48,-144 L -47.9763,-144.376 L -47.9057,-144.746 L -47.7893,-145.104 L -47.6289,-145.445 L -47.427,-145.763
 L -47.1869,-146.054 L -46.9123,-146.312 L -46.6075,-146.533 L -46.2773,-146.714 L -45.927,-146.853 L -45.5621,-146.947
 L -45.1884,-146.994 L -44.8116,-146.994 L -44.4379,-146.947 L -44.0729,-146.853 L -43.7227,-146.714 L -43.3925,-146.533
 L -43.0877,-146.312 L -42.8131,-146.054 L -42.5729,-145.763 L -42.3711,-145.445 L -42.2107,-145.104 L -42.0942,-144.746
 L -42.0237,-144.376 L -42,-144 L -42.0237,-143.624 L -42.0942,-143.254 L -42.2107,-142.896 L -42.3711,-142.555
 L -42.5729,-142.237 L -42.8131,-141.946 L -43.0877,-141.688 L -43.3925,-141.467 L -43.7227,-141.286 L -44.0729,-141.147
 L -44.4379,-141.053 L -44.8116,-141.006 z
M 119.812,-141.006 L 119.438,-141.053 L 119.073,-141.147 L 118.723,-141.286 L 118.393,-141.467 L 118.088,-141.688
 L 117.813,-141.946 L 117.573,-142.237 L 117.371,-142.555 L 117.211,-142.896 L 117.094,-143.254 L 117.024,-143.624
 L 117,-144 L 117.024,-144.376 L 117.094,-144.746 L 117.211,-145.104 L 117.371,-145.445 L 117.573,-145.763
 L 117.813,-146.054 L 118.088,-146.312 L 118.393,-146.533 L 118.723,-146.714 L 119.073,-146.853 L 119.438,-146.947
 L 119.812,-146.994 L 120.188,-146.994 L 120.562,-146.947 L 120.927,-146.853 L 121.277,-146.714 L 121.607,-146.533
 L 121.912,-146.312 L 122.187,-146.054 L 122.427,-145.763 L 122.629,-145.445 L 122.789,-145.104 L 122.906,-144.746
 L 122.976,-144.376 L 123,-144 L 122.976,-143.624 L 122.906,-143.254 L 122.789,-142.896 L 122.629,-142.555
 L 122.427,-142.237 L 122.187,-141.946 L 121.912,-141.688 L 121.607,-141.467 L 121.277,-141.286 L 120.927,-141.147
 L 120.562,-141.053 L 120.188,-141.006 z
M 74.8116,-141.006 L 74.4379,-141.053 L 74.073,-141.147 L 73.7227,-141.286 L 73.3925,-141.467 L 73.0877,-141.688
 L 72.8131,-141.946 L 72.573,-142.237 L 72.3711,-142.555 L 72.2107,-142.896 L 72.0943,-143.254 L 72.0237,-143.624
 L 72,-144 L 72.0237,-144.376 L 72.0943,-144.746 L 72.2107,-145.104 L 72.3711,-145.445 L 72.573,-145.763
 L 72.8131,-146.054 L 73.0877,-146.312 L 73.3925,-146.533 L 73.7227,-146.714 L 74.073,-146.853 L 74.4379,-146.947
 L 74.8116,-146.994 L 75.1884,-146.994 L 75.5621,-146.947 L 75.927,-146.853 L 76.2773,-146.714 L 76.6075,-146.533
 L 76.9123,-146.312 L 77.1869,-146.054 L 77.427,-145.763 L 77.6289,-145.445 L 77.7893,-145.104 L 77.9057,-144.746
 L 77.9763,-144.376 L 78,-144 L 77.9763,-143.624 L 77.9057,-143.254 L 77.7893,-142.896 L 77.6289,-142.555
 L 77.427,-142.237 L 77.1869,-141.946 L 76.9123,-141.688 L 76.6075,-141.467 L 76.2773,-141.286 L 75.927,-141.147
 L 75.5621,-141.053 L 75.1884,-141.006 z
M -135.188,-141.006 L -135.562,-141.053 L -135.927,-141.147 L -136.277,-141.286 L -136.607,-141.467 L -136.912,-141.688
 L -137.187,-141.946 L -137.427,-142.237 L -137.629,-142.555 L -137.789,-142.896 L -137.906,-143.254 L -137.976,-143.624
 L -138,-144 L -137.976,-144.376 L -137.906,-144.746 L -137.789,-145.104 L -137.629,-145.445 L -137.427,-145.763
 L -137.187,-146.054 L -136.912,-146.312 L -136.607,-146.533 L -136.277,-146.714 L -135.927,-146.853 L -135.562,-146.947
 L -135.188,-146.994 L -134.812,-146.994 L -134.438,-146.947 L -134.073,-146.853 L -133.723,-146.714 L -133.393,-146.533
 L -133.088,-146.312 L -132.813,-146.054 L -132.573,-145.763 L -132.371,-145.445 L -132.211,-145.104 L -132.094,-144.746
 L -132.024,-144.376 L -132,-144 L -132.024,-143.624 L -132.094,-143.254 L -132.211,-142.896 L -132.371,-142.555
 L -132.573,-142.237 L -132.813,-141.946 L -133.088,-141.688 L -133.393,-141.467 L -133.723,-141.286 L -134.073,-141.147
 L -134.438,-141.053 L -134.812,-141.006 z
M 59.8116,-141.006 L 59.4379,-141.053 L 59.0729,-141.147 L 58.7227,-141.286 L 58.3925,-141.467 L 58.0877,-141.688
 L 57.8131,-141.946 L 57.5729,-142.237 L 57.3711,-142.555 L 57.2107,-142.896 L 57.0942,-143.254 L 57.0237,-143.624
 L 57,-144 L 57.0237,-144.376 L 57.0942,-144.746 L 57.2107,-145.104 L 57.3711,-145.445 L 57.5729,-145.763
 L 57.8131,-146.054 L 58.0877,-146.312 L 58.3925,-146.533 L 58.7227,-146.714 L 59.0729,-146.853 L 59.4379,-146.947
 L 59.8116,-146.994 L 60.1884,-146.994 L 60.5621,-146.947 L 60.927,-146.853 L 61.2773,-146.714 L 61.6075,-146.533
 L 61.9123,-146.312 L 62.1869,-146.054 L 62.427,-145.763 L 62.6289,-145.445 L 62.7893,-145.104 L 62.9057,-144.746
 L 62.9763,-144.376 L 63,-144 L 62.9763,-143.624 L 62.9057,-143.254 L 62.7893,-142.896 L 62.6289,-142.555
 L 62.427,-142.237 L 62.1869,-141.946 L 61.9123,-141.688 L 61.6075,-141.467 L 61.2773,-141.286 L 60.927,-141.147
 L 60.5621,-141.053 L 60.1884,-141.006 z
M 29.8116,-141.006 L 29.4379,-141.053 L 29.0729,-141.147 L 28.7227,-141.286 L 28.3925,-141.467 L 28.0877,-141.688
 L 27.8131,-141.946 L 27.5729,-142.237 L 27.3711,-142.555 L 27.2107,-142.896 L 27.0942,-143.254 L 27.0237,-143.624
 L 27,-144 L 27.0237,-144.376 L 27.0942,-144.746 L 27.2107,-145.104 L 27.3711,-145.445 L 27.5729,-145.763
 L 27.8131,-146.054 L 28.0877,-146.312 L 28.3925,-146.533 L 28.7227,-146.714 L 29.0729,-146.853 L 29.4379,-146.947
 L 29.8116,-146.994 L 30.1884,-146.994 L 30.5621,-146.947 L 30.927,-146.853 L 31.2773,-146.714 L 31.6075,-146.533
 L 31.9123,-146.312 L 32.1869,-146.054 L 32.427,-145.763 L 32.6289,-145.445 L 32.7893,-145.104 L 32.9057,-144.746
 L 32.9763,-144.376 L 33,-144 L 32.9763,-143.624 L 32.9057,-143.254 L 32.7893,-142.896 L 32.6289,-142.555
 L 32.427,-142.237 L 32.1869,-141.946 L 31.9123,-141.688 L 31.6075,-141.467 L 31.2773,-141.286 L 30.927,-141.147
 L 30.5621,-141.053 L 30.1884,-141.006 z
M 104.812,-141.006 L 104.438,-141.053 L 104.073,-141.147 L 103.723,-141.286 L 103.393,-141.467 L 103.088,-141.688
 L 102.813,-141.946 L 102.573,-142.237 L 102.371,-142.555 L 102.211,-142.896 L 102.094,-143.254 L 102.024,-143.624
 L 102,-144 L 102.024,-144.376 L 102.094,-144.746 L 102.211,-145.104 L 102.371,-145.445 L 102.573,-145.763
 L 102.813,-146.054 L 103.088,-146.312 L 103.393,-146.533 L 103.723,-146.714 L 104.073,-146.853 L 104.438,-146.947
 L 104.812,-146.994 L 105.188,-146.994 L 105.562,-146.947 L 105.927,-146.853 L 106.277,-146.714 L 106.607,-146.533
 L 106.912,-146.312 L 107.187,-146.054 L 107.427,-145.763 L 107.629,-145.445 L 107.789,-145.104 L 107.906,-144.746
 L 107.976,-144.376 L 108,-144 L 107.976,-143.624 L 107.906,-143.254 L 107.789,-142.896 L 107.629,-142.555
 L 107.427,-142.237 L 107.187,-141.946 L 106.912,-141.688 L 106.607,-141.467 L 106.277,-141.286 L 105.927,-141.147
 L 105.562,-141.053 L 105.188,-141.006 z
M -30.1884,-141.006 L -30.5621,-141.053 L -30.927,-141.147 L -31.2773,-141.286 L -31.6075,-141.467 L -31.9123,-141.688
 L -32.1869,-141.946 L -32.427,-142.237 L -32.6289,-142.555 L -32.7893,-142.896 L -32.9057,-143.254 L -32.9763,-143.624
 L -33,-144 L -32.9763,-144.376 L -32.9057,-144.746 L -32.7893,-145.104 L -32.6289,-145.445 L -32.427,-145.763
 L -32.1869,-146.054 L -31.9123,-146.312 L -31.6075,-146.533 L -31.2773,-146.714 L -30.927,-146.853 L -30.5621,-146.947
 L -30.1884,-146.994 L -29.8116,-146.994 L -29.4379,-146.947 L -29.0729,-146.853 L -28.7227,-146.714 L -28.3925,-146.533
 L -28.0877,-146.312 L -27.8131,-146.054 L -27.5729,-145.763 L -27.3711,-145.445 L -27.2107,-145.104 L -27.0942,-144.746
 L -27.0237,-144.376 L -27,-144 L -27.0237,-143.624 L -27.0942,-143.254 L -27.2107,-142.896 L -27.3711,-142.555
 L -27.5729,-142.237 L -27.8131,-141.946 L -28.0877,-141.688 L -28.3925,-141.467 L -28.7227,-141.286 L -29.0729,-141.147
 L -29.4379,-141.053 L -29.8116,-141.006 z
M 89.8116,-141.006 L 89.4379,-141.053 L 89.073,-141.147 L 88.7227,-141.286 L 88.3925,-141.467 L 88.0877,-141.688
 L 87.8131,-141.946 L 87.573,-142.237 L 87.3711,-142.555 L 87.2107,-142.896 L 87.0943,-143.254 L 87.0237,-143.624
 L 87,-144 L 87.0237,-144.376 L 87.0943,-144.746 L 87.2107,-145.104 L 87.3711,-145.445 L 87.573,-145.763
 L 87.8131,-146.054 L 88.0877,-146.312 L 88.3925,-146.533 L 88.7227,-146.714 L 89.073,-146.853 L 89.4379,-146.947
 L 89.8116,-146.994 L 90.1884,-146.994 L 90.5621,-146.947 L 90.927,-146.853 L 91.2773,-146.714 L 91.6075,-146.533
 L 91.9123,-146.312 L 92.1869,-146.054 L 92.427,-145.763 L 92.6289,-145.445 L 92.7893,-145.104 L 92.9057,-144.746
 L 92.9763,-144.376 L 93,-144 L 92.9763,-143.624 L 92.9057,-143.254 L 92.7893,-142.896 L 92.6289,-142.555
 L 92.427,-142.237 L 92.1869,-141.946 L 91.9123,-141.688 L 91.6075,-141.467 L 91.2773,-141.286 L 90.927,-141.147
 L 90.5621,-141.053 L 90.1884,-141.006 z
M 14.8116,-141.006 L 14.4379,-141.053 L 14.0729,-141.147 L 13.7227,-141.286 L 13.3925,-141.467 L 13.0877,-141.688
 L 12.8131,-141.946 L 12.5729,-142.237 L 12.3711,-142.555 L 12.2107,-142.896 L 12.0942,-143.254 L 12.0237,-143.624
 L 12,-144 L 12.0237,-144.376 L 12.0942,-144.746 L 12.2107,-145.104 L 12.3711,-145.445 L 12.5729,-145.763
 L 12.8131,-146.054 L 13.0877,-146.312 L 13.3925,-146.533 L 13.7227,-146.714 L 14.0729,-146.853 L 14.4379,-146.947
 L 14.8116,-146.994 L 15.1884,-146.994 L 15.5621,-146.947 L 15.927,-146.853 L 16.2773,-146.714 L 16.6075,-146.533
 L 16.9123,-146.312 L 17.1869,-146.054 L 17.427,-145.763 L 17.6289,-145.445 L 17.7893,-145.104 L 17.9057,-144.746
 L 17.9763,-144.376 L 18,-144 L 17.9763,-143.624 L 17.9057,-143.254 L 17.7893,-142.896 L 17.6289,-142.555
 L 17.427,-142.237 L 17.1869,-141.946 L 16.9123,-141.688 L 16.6075,-141.467 L 16.2773,-141.286 L 15.927,-141.147
 L 15.5621,-141.053 L 15.1884,-141.006 z
M 137.937,-113.089 L 138.545,-113.245 L 139.129,-113.476 L 139.679,-113.778 L 140.187,-114.147 L 140.645,-114.577
 L 141.045,-115.061 L 141.382,-115.591 L 141.649,-116.159 L 141.843,-116.757 L 141.961,-117.373 L 142,-118
 L 142,-122 L 141.961,-122.627 L 141.843,-123.243 L 141.649,-123.841 L 141.382,-124.409 L 141.045,-124.939
 L 140.645,-125.423 L 140.187,-125.853 L 139.679,-126.222 L 139.129,-126.524 L 138.545,-126.755 L 137.937,-126.911
 L 137.314,-126.99 L -137.314,-126.99 L -137.937,-126.911 L -138.545,-126.755 L -139.129,-126.524 L -139.679,-126.222
 L -140.187,-125.853 L -140.645,-125.423 L -141.045,-124.939 L -141.382,-124.409 L -141.649,-123.841 L -141.843,-123.243
 L -141.961,-122.627 L -142,-122 L -142,-118 L -141.961,-117.373 L -141.843,-116.757 L -141.649,-116.159
 L -141.382,-115.591 L -141.045,-115.061 L -140.645,-114.577 L -140.187,-114.147 L -139.679,-113.778 L -139.129,-113.476
 L -138.545,-113.245 L -137.937,-113.089 L -137.314,-113.01 L 137.314,-113.01 z
M 44.8116,-117.006 L 44.4379,-117.053 L 44.0729,-117.147 L 43.7227,-117.286 L 43.3925,-117.467 L 43.0877,-117.688
 L 42.8131,-117.946 L 42.5729,-118.237 L 42.3711,-118.555 L 42.2107,-118.896 L 42.0942,-119.254 L 42.0237,-119.624
 L 42,-120 L 42.0237,-120.376 L 42.0942,-120.746 L 42.2107,-121.104 L 42.3711,-121.445 L 42.5729,-121.763
 L 42.8131,-122.054 L 43.0877,-122.312 L 43.3925,-122.533 L 43.7227,-122.714 L 44.0729,-122.853 L 44.4379,-122.947
 L 44.8116,-122.994 L 45.1884,-122.994 L 45.5621,-122.947 L 45.927,-122.853 L 46.2773,-122.714 L 46.6075,-122.533
 L 46.9123,-122.312 L 47.1869,-122.054 L 47.427,-121.763 L 47.6289,-121.445 L 47.7893,-121.104 L 47.9057,-120.746
 L 47.9763,-120.376 L 48,-120 L 47.9763,-119.624 L 47.9057,-119.254 L 47.7893,-118.896 L 47.6289,-118.555
 L 47.427,-118.237 L 47.1869,-117.946 L 46.9123,-117.688 L 46.6075,-117.467 L 46.2773,-117.286 L 45.927,-117.147
 L 45.5621,-117.053 L 45.1884,-117.006 z
M -15.1884,-117.006 L -15.5621,-117.053 L -15.927,-117.147 L -16.2773,-117.286 L -16.6075,-117.467 L -16.9123,-117.688
 L -17.1869,-117.946 L -17.427,-118.237 L -17.6289,-118.555 L -17.7893,-118.896 L -17.9057,-119.254 L -17.9763,-119.624
 L -18,-120 L -17.9763,-120.376 L -17.9057,-120.746 L -17.7893,-121.104 L -17.6289,-121.445 L -17.427,-121.763
 L -17.1869,-122.054 L -16.9123,-122.312 L -16.6075,-122.533 L -16.2773,-122.714 L -15.927,-122.853 L -15.5621,-122.947
 L -15.1884,-122.994 L -14.8116,-122.994 L -14.4379,-122.947 L -14.0729,-122.853 L -13.7227,-122.714 L -13.3925,-122.533
 L -13.0877,-122.312 L -12.8131,-122.054 L -12.5729,-121.763 L -12.3711,-121.445 L -12.2107,-121.104 L -12.0942,-120.746
 L -12.0237,-120.376 L -12,-120 L -12.0237,-119.624 L -12.0942,-119.254 L -12.2107,-118.896 L -12.3711,-118.555
 L -12.5729,-118.237 L -12.8131,-117.946 L -13.0877,-117.688 L -13.3925,-117.467 L -13.7227,-117.286 L -14.0729,-117.147
 L -14.4379,-117.053 L -14.8116,-117.006 z
M -90.1884,-117.006 L -90.5621,-117.053 L -90.927,-117.147 L -91.2773,-117.286 L -91.6075,-117.467 L -91.9123,-117.688
 L -92.1869,-117.946 L -92.427,-118.237 L -92.6289,-118.555 L -92.7893,-118.896 L -92.9057,-119.254 L -92.9763,-119.624
 L -93,-120 L -92.9763,-120.376 L -92.9057,-120.746 L -92.7893,-121.104 L -92.6289,-121.445 L -92.427,-121.763
 L -92.1869,-122.054 L -91.9123,-122.312 L -91.6075,-122.533 L -91.2773,-122.714 L -90.927,-122.853 L -90.5621,-122.947
 L -90.1884,-122.994 L -89.8116,-122.994 L -89.4379,-122.947 L -89.073,-122.853 L -88.7227,-122.714 L -88.3925,-122.533
 L -88.0877,-122.312 L -87.8131,-122.054 L -87.573,-121.763 L -87.3711,-121.445 L -87.2107,-121.104 L -87.0943,-120.746
 L -87.0237,-120.376 L -87,-120 L -87.0237,-119.624 L -87.0943,-119.254 L -87.2107,-118.896 L -87.3711,-118.555
 L -87.573,-118.237 L -87.8131,-117.946 L -88.0877,-117.688 L -88.3925,-117.467 L -88.7227,-117.286 L -89.073,-117.147
 L -89.4379,-117.053 L -89.8116,-117.006 z
M -75.1884,-117.006 L -75.5621,-117.053 L -75.927,-117.147 L -76.2773,-117.286 L -76.6075,-117.467 L -76.9123,-117.688
 L -77.1869,-117.946 L -77.427,-118.237 L -77.6289,-118.555 L -77.7893,-118.896 L -77.9057,-119.254 L -77.9763,-119.624
 L -78,-120 L -77.9763,-120.376 L -77.9057,-120.746 L -77.7893,-121.104 L -77.6289,-121.445 L -77.427,-121.763
 L -77.1869,-122.054 L -76.9123,-122.312 L -76.6075,-122.533 L -76.2773,-122.714 L -75.927,-122.853 L -75.5621,-122.947
 L -75.1884,-122.994 L -74.8116,-122.994 L -74.4379,-122.947 L -74.073,-122.853 L -73.7227,-122.714 L -73.3925,-122.533
 L -73.0877,-122.312 L -72.8131,-122.054 L -72.573,-121.763 L -72.3711,-121.445 L -72.2107,-121.104 L -72.0943,-120.746
 L -72.0237,-120.376 L -72,-120 L -72.0237,-119.624 L -72.0943,-119.254 L -72.2107,-118.896 L -72.3711,-118.555
 L -72.573,-118.237 L -72.8131,-117.946 L -73.0877,-117.688 L -73.3925,-117.467 L -73.7227,-117.286 L -74.073,-117.147
 L -74.4379,-117.053 L -74.8116,-117.006 z
M -0.18837,-117.006 L -0.562134,-117.053 L -0.927048,-117.147 L -1.27733,-117.286 L -1.60747,-117.467 L -1.91226,-117.688
 L -2.1869,-117.946 L -2.42705,-118.237 L -2.62891,-118.555 L -2.78932,-118.896 L -2.90575,-119.254 L -2.97633,-119.624
 L -3,-120 L -2.97633,-120.376 L -2.90575,-120.746 L -2.78932,-121.104 L -2.62891,-121.445 L -2.42705,-121.763
 L -2.1869,-122.054 L -1.91226,-122.312 L -1.60747,-122.533 L -1.27733,-122.714 L -0.927048,-122.853 L -0.562134,-122.947
 L -0.18837,-122.994 L 0.18837,-122.994 L 0.562134,-122.947 L 0.927048,-122.853 L 1.27733,-122.714 L 1.60747,-122.533
 L 1.91226,-122.312 L 2.1869,-122.054 L 2.42705,-121.763 L 2.62891,-121.445 L 2.78932,-121.104 L 2.90575,-120.746
 L 2.97633,-120.376 L 3,-120 L 2.97633,-119.624 L 2.90575,-119.254 L 2.78932,-118.896 L 2.62891,-118.555
 L 2.42705,-118.237 L 2.1869,-117.946 L 1.91226,-117.688 L 1.60747,-117.467 L 1.27733,-117.286 L 0.927048,-117.147
 L 0.562134,-117.053 L 0.18837,-117.006 z
M -60.1884,-117.006 L -60.5621,-117.053 L -60.927,-117.147 L -61.2773,-117.286 L -61.6075,-117.467 L -61.9123,-117.688
 L -62.1869,-117.946 L -62.427,-118.237 L -62.6289,-118.555 L -62.7893,-118.896 L -62.9057,-119.254 L -62.9763,-119.624
 L -63,-120 L -62.9763,-120.376 L -62.9057,-120.746 L -62.7893,-121.104 L -62.6289,-121.445 L -62.427,-121.763
 L -62.1869,-122.054 L -61.9123,-122.312 L -61.6075,-122.533 L -61.2773,-122.714 L -60.927,-122.853 L -60.5621,-122.947
 L -60.1884,-122.994 L -59.8116,-122.994 L -59.4379,-122.947 L -59.0729,-122.853 L -58.7227,-122.714 L -58.3925,-122.533
 L -58.0877,-122.312 L -57.8131,-122.054 L -57.5729,-121.763 L -57.3711,-121.445 L -57.2107,-121.104 L -57.0942,-120.746
 L -57.0237,-120.376 L -57,-120 L -57.0237,-119.624 L -57.0942,-119.254 L -57.2107,-118.896 L -57.3711,-118.555
 L -57.5729,-118.237 L -57.8131,-117.946 L -58.0877,-117.688 L -58.3925,-117.467 L -58.7227,-117.286 L -59.0729,-117.147
 L -59.4379,-117.053 L -59.8116,-117.006 z
M -120.188,-117.006 L -120.562,-117.053 L -120.927,-117.147 L -121.277,-117.286 L -121.607,-117.467 L -121.912,-117.688
 L -122.187,-117.946 L -122.427,-118.237 L -122.629,-118.555 L -122.789,-118.896 L -122.906,-119.254 L -122.976,-119.624
 L -123,-120 L -122.976,-120.376 L -122.906,-120.746 L -122.789,-121.104 L -122.629,-121.445 L -122.427,-121.763
 L -122.187,-122.054 L -121.912,-122.312 L -121.607,-122.533 L -121.277,-122.714 L -120.927,-122.853 L -120.562,-122.947
 L -120.188,-122.994 L -119.812,-122.994 L -119.438,-122.947 L -119.073,-122.853 L -118.723,-122.714 L -118.393,-122.533
 L -118.088,-122.312 L -117.813,-122.054 L -117.573,-121.763 L -117.371,-121.445 L -117.211,-121.104 L -117.094,-120.746
 L -117.024,-120.376 L -117,-120 L -117.024,-119.624 L -117.094,-119.254 L -117.211,-118.896 L -117.371,-118.555
 L -117.573,-118.237 L -117.813,-117.946 L -118.088,-117.688 L -118.393,-117.467 L -118.723,-117.286 L -119.073,-117.147
 L -119.438,-117.053 L -119.812,-117.006 z
M 134.812,-117.006 L 134.438,-117.053 L 134.073,-117.147 L 133.723,-117.286 L 133.393,-117.467 L 133.088,-117.688
 L 132.813,-117.946 L 132.573,-118.237 L 132.371,-118.555 L 132.211,-118.896 L 132.094,-119.254 L 132.024,-119.624
 L 132,-120 L 132.024,-120.376 L 132.094,-120.746 L 132.211,-121.104 L 132.371,-121.445 L 132.573,-121.763
 L 132.813,-122.054 L 133.088,-122.312 L 133.393,-122.533 L 133.723,-122.714 L 134.073,-122.853 L 134.438,-122.947
 L 134.812,-122.994 L 135.188,-122.994 L 135.562,-122.947 L 135.927,-122.853 L 136.277,-122.714 L 136.607,-122.533
 L 136.912,-122.312 L 137.187,-122.054 L 137.427,-121.763 L 137.629,-121.445 L 137.789,-121.104 L 137.906,-120.746
 L 137.976,-120.376 L 138,-120 L 137.976,-119.624 L 137.906,-119.254 L 137.789,-118.896 L 137.629,-118.555
 L 137.427,-118.237 L 137.187,-117.946 L 136.912,-117.688 L 136.607,-117.467 L 136.277,-117.286 L 135.927,-117.147
 L 135.562,-117.053 L 135.188,-117.006 z
M -105.188,-117.006 L -105.562,-117.053 L -105.927,-117.147 L -106.277,-117.286 L -106.607,-117.467 L -106.912,-117.688
 L -107.187,-117.946 L -107.427,-118.237 L -107.629,-118.555 L -107.789,-118.896 L -107.906,-119.254 L -107.976,-119.624
 L -108,-120 L -107.976,-120.376 L -107.906,-120.746 L -107.789,-121.104 L -107.629,-121.445 L -107.427,-121.763
 L -107.187,-122.054 L -106.912,-122.312 L -106.607,-122.533 L -106.277,-122.714 L -105.927,-122.853 L -105.562,-122.947
 L -105.188,-122.994 L -104.812,-122.994 L -104.438,-122.947 L -104.073,-122.853 L -103.723,-122.714 L -103.393,-122.533
 L -103.088,-122.312 L -102.813,-122.054 L -102.573,-121.763 L -102.371,-121.445 L -102.211,-121.104 L -102.094,-120.746
 L -102.024,-120.376 L -102,-120 L -102.024,-119.624 L -102.094,-119.254 L -102.211,-118.896 L -102.371,-118.555
 L -102.573,-118.237 L -102.813,-117.946 L -103.088,-117.688 L -103.393,-117.467 L -103.723,-117.286 L -104.073,-117.147
 L -104.438,-117.053 L -104.812,-117.006 z
M 119.812,-117.006 L 119.438,-117.053 L 119.073,-117.147 L 118.723,-117.286 L 118.393,-117.467 L 118.088,-117.688
 L 117.813,-117.946 L 117.573,-118.237 L 117.371,-118.555 L 117.211,-118.896 L 117.094,-119.254 L 117.024,-119.624
 L 117,-120 L 117.024,-120.376 L 117.094,-120.746 L 117.211,-121.104 L 117.371,-121.445 L 117.573,-121.763
 L 117.813,-122.054 L 118.088,-122.312 L 118.393,-122.533 L 118.723,-122.714 L 119.073,-122.853 L 119.438,-122.947
 L 119.812,-122.994 L 120.188,-122.994 L 120.562,-122.947 L 120.927,-122.853 L 121.277,-122.714 L 121.607,-122.533
 L 121.912,-122.312 L 122.187,-122.054 L 122.427,-121.763 L 122.629,-121.445 L 122.789,-121.104 L 122.906,-120.746
 L 122.976,-120.376 L 123,-120 L 122.976,-119.624 L 122.906,-119.254 L 122.789,-118.896 L 122.629,-118.555
 L 122.427,-118.237 L 122.187,-117.946 L 121.912,-117.688 L 121.607,-117.467 L 121.277,-117.286 L 120.927,-117.147
 L 120.562,-117.053 L 120.188,-117.006 z
M -45.1884,-117.006 L -45.5621,-117.053 L -45.927,-117.147 L -46.2773,-117.286 L -46.6075,-117.467 L -46.9123,-117.688
 L -47.1869,-117.946 L -47.427,-118.237 L -47.6289,-118.555 L -47.7893,-118.896 L -47.9057,-119.254 L -47.9763,-119.624
 L -48,-120 L -47.9763,-120.376 L -47.9057,-120.746 L -47.7893,-121.104 L -47.6289,-121.445 L -47.427,-121.763
 L -47.1869,-122.054 L -46.9123,-122.312 L -46.6075,-122.533 L -46.2773,-122.714 L -45.927,-122.853 L -45.5621,-122.947
 L -45.1884,-122.994 L -44.8116,-122.994 L -44.4379,-122.947 L -44.0729,-122.853 L -43.7227,-122.714 L -43.3925,-122.533
 L -43.0877,-122.312 L -42.8131,-122.054 L -42.5729,-121.763 L -42.3711,-121.445 L -42.2107,-121.104 L -42.0942,-120.746
 L -42.0237,-120.376 L -42,-120 L -42.0237,-119.624 L -42.0942,-119.254 L -42.2107,-118.896 L -42.3711,-118.555
 L -42.5729,-118.237 L -42.8131,-117.946 L -43.0877,-117.688 L -43.3925,-117.467 L -43.7227,-117.286 L -44.0729,-117.147
 L -44.4379,-117.053 L -44.8116,-117.006 z
M 14.8116,-117.006 L 14.4379,-117.053 L 14.0729,-117.147 L 13.7227,-117.286 L 13.3925,-117.467 L 13.0877,-117.688
 L 12.8131,-117.946 L 12.5729,-118.237 L 12.3711,-118.555 L 12.2107,-118.896 L 12.0942,-119.254 L 12.0237,-119.624
 L 12,-120 L 12.0237,-120.376 L 12.0942,-120.746 L 12.2107,-121.104 L 12.3711,-121.445 L 12.5729,-121.763
 L 12.8131,-122.054 L 13.0877,-122.312 L 13.3925,-122.533 L 13.7227,-122.714 L 14.0729,-122.853 L 14.4379,-122.947
 L 14.8116,-122.994 L 15.1884,-122.994 L 15.5621,-122.947 L 15.927,-122.853 L 16.2773,-122.714 L 16.6075,-122.533
 L 16.9123,-122.312 L 17.1869,-122.054 L 17.427,-121.763 L 17.6289,-121.445 L 17.7893,-121.104 L 17.9057,-120.746
 L 17.9763,-120.376 L 18,-120 L 17.9763,-119.624 L 17.9057,-119.254 L 17.7893,-118.896 L 17.6289,-118.555
 L 17.427,-118.237 L 17.1869,-117.946 L 16.9123,-117.688 L 16.6075,-117.467 L 16.2773,-117.286 L 15.927,-117.147
 L 15.5621,-117.053 L 15.1884,-117.006 z
M 89.8116,-117.006 L 89.4379,-117.053 L 89.073,-117.147 L 88.7227,-117.286 L 88.3925,-117.467 L 88.0877,-117.688
 L 87.8131,-117.946 L 87.573,-118.237 L 87.3711,-118.555 L 87.2107,-118.896 L 87.0943,-119.254 L 87.0237,-119.624
 L 87,-120 L 87.0237,-120.376 L 87.0943,-120.746 L 87.2107,-121.104 L 87.3711,-121.445 L 87.573,-121.763
 L 87.8131,-122.054 L 88.0877,-122.312 L 88.3925,-122.533 L 88.7227,-122.714 L 89.073,-122.853 L 89.4379,-122.947
 L 89.8116,-122.994 L 90.1884,-122.994 L 90.5621,-122.947 L 90.927,-122.853 L 91.2773,-122.714 L 91.6075,-122.533
 L 91.9123,-122.312 L 92.1869,-122.054 L 92.427,-121.763 L 92.6289,-121.445 L 92.7893,-121.104 L 92.9057,-120.746
 L 92.9763,-120.376 L 93,-120 L 92.9763,-119.624 L 92.9057,-119.254 L 92.7893,-118.896 L 92.6289,-118.555
 L 92.427,-118.237 L 92.1869,-117.946 L 91.9123,-117.688 L 91.6075,-117.467 L 91.2773,-117.286 L 90.927,-117.147
 L 90.5621,-117.053 L 90.1884,-117.006 z
M -30.1884,-117.006 L -30.5621,-117.053 L -30.927,-117.147 L -31.2773,-117.286 L -31.6075,-117.467 L -31.9123,-117.688
 L -32.1869,-117.946 L -32.427,-118.237 L -32.6289,-118.555 L -32.7893,-118.896 L -32.9057,-119.254 L -32.9763,-119.624
 L -33,-120 L -32.9763,-120.376 L -32.9057,-120.746 L -32.7893,-121.104 L -32.6289,-121.445 L -32.427,-121.763
 L -32.1869,-122.054 L -31.9123,-122.312 L -31.6075,-122.533 L -31.2773,-122.714 L -30.927,-122.853 L -30.5621,-122.947
 L -30.1884,-122.994 L -29.8116,-122.994 L -29.4379,-122.947 L -29.0729,-122.853 L -28.7227,-122.714 L -28.3925,-122.533
 L -28.0877,-122.312 L -27.8131,-122.054 L -27.5729,-121.763 L -27.3711,-121.445 L -27.2107,-121.104 L -27.0942,-120.746
 L -27.0237,-120.376 L -27,-120 L -27.0237,-119.624 L -27.0942,-119.254 L -27.2107,-118.896 L -27.3711,-118.555
 L -27.5729,-118.237 L -27.8131,-117.946 L -28.0877,-117.688 L -28.3925,-117.467 L -28.7227,-117.286 L -29.0729,-117.147
 L -29.4379,-117.053 L -29.8116,-117.006 z
M 104.812,-117.006 L 104.438,-117.053 L 104.073,-117.147 L 103.723,-117.286 L 103.393,-117.467 L 103.088,-117.688
 L 102.813,-117.946 L 102.573,-118.237 L 102.371,-118.555 L 102.211,-118.896 L 102.094,-119.254 L 102.024,-119.624
 L 102,-120 L 102.024,-120.376 L 102.094,-120.746 L 102.211,-121.104 L 102.371,-121.445 L 102.573,-121.763
 L 102.813,-122.054 L 103.088,-122.312 L 103.393,-122.533 L 103.723,-122.714 L 104.073,-122.853 L 104.438,-122.947
 L 104.812,-122.994 L 105.188,-122.994 L 105.562,-122.947 L 105.927,-122.853 L 106.277,-122.714 L 106.607,-122.533
 L 106.912,-122.312 L 107.187,-122.054 L 107.427,-121.763 L 107.629,-121.445 L 107.789,-121.104 L 107.906,-120.746
 L 107.976,-120.376 L 108,-120 L 107.976,-119.624 L 107.906,-119.254 L 107.789,-118.896 L 107.629,-118.555
 L 107.427,-118.237 L 107.187,-117.946 L 106.912,-117.688 L 106.607,-117.467 L 106.277,-117.286 L 105.927,-117.147
 L 105.562,-117.053 L 105.188,-117.006 z
M 29.8116,-117.006 L 29.4379,-117.053 L 29.0729,-117.147 L 28.7227,-117.286 L 28.3925,-117.467 L 28.0877,-117.688
 L 27.8131,-117.946 L 27.5729,-118.237 L 27.3711,-118.555 L 27.2107,-118.896 L 27.0942,-119.254 L 27.0237,-119.624
 L 27,-120 L 27.0237,-120.376 L 27.0942,-120.746 L 27.2107,-121.104 L 27.3711,-121.445 L 27.5729,-121.763
 L 27.8131,-122.054 L 28.0877,-122.312 L 28.3925,-122.533 L 28.7227,-122.714 L 29.0729,-122.853 L 29.4379,-122.947
 L 29.8116,-122.994 L 30.1884,-122.994 L 30.5621,-122.947 L 30.927,-122.853 L 31.2773,-122.714 L 31.6075,-122.533
 L 31.9123,-122.312 L 32.1869,-122.054 L 32.427,-121.763 L 32.6289,-121.445 L 32.7893,-121.104 L 32.9057,-120.746
 L 32.9763,-120.376 L 33,-120 L 32.9763,-119.624 L 32.9057,-119.254 L 32.7893,-118.896 L 32.6289,-118.555
 L 32.427,-118.237 L 32.1869,-117.946 L 31.9123,-117.688 L 31.6075,-117.467 L 31.2773,-117.286 L 30.927,-117.147
 L 30.5621,-117.053 L 30.1884,-117.006 z
M 59.8116,-117.006 L 59.4379,-117.053 L 59.0729,-117.147 L 58.7227,-117.286 L 58.3925,-117.467 L 58.0877,-117.688
 L 57.8131,-117.946 L 57.5729,-118.237 L 57.3711,-118.555 L 57.2107,-118.896 L 57.0942,-119.254 L 57.0237,-119.624
 L 57,-120 L 57.0237,-120.376 L 57.0942,-120.746 L 57.2107,-121.104 L 57.3711,-121.445 L 57.5729,-121.763
 L 57.8131,-122.054 L 58.0877,-122.312 L 58.3925,-122.533 L 58.7227,-122.714 L 59.0729,-122.853 L 59.4379,-122.947
 L 59.8116,-122.994 L 60.1884,-122.994 L 60.5621,-122.947 L 60.927,-122.853 L 61.2773,-122.714 L 61.6075,-122.533
 L 61.9123,-122.312 L 62.1869,-122.054 L 62.427,-121.763 L 62.6289,-121.445 L 62.7893,-121.104 L 62.9057,-120.746
 L 62.9763,-120.376 L 63,-120 L 62.9763,-119.624 L 62.9057,-119.254 L 62.7893,-118.896 L 62.6289,-118.555
 L 62.427,-118.237 L 62.1869,-117.946 L 61.9123,-117.688 L 61.6075,-117.467 L 61.2773,-117.286 L 60.927,-117.147
 L 60.5621,-117.053 L 60.1884,-117.006 z
M -135.188,-117.006 L -135.562,-117.053 L -135.927,-117.147 L -136.277,-117.286 L -136.607,-117.467 L -136.912,-117.688
 L -137.187,-117.946 L -137.427,-118.237 L -137.629,-118.555 L -137.789,-118.896 L -137.906,-119.254 L -137.976,-119.624
 L -138,-120 L -137.976,-120.376 L -137.906,-120.746 L -137.789,-121.104 L -137.629,-121.445 L -137.427,-121.763
 L -137.187,-122.054 L -136.912,-122.312 L -136.607,-122.533 L -136.277,-122.714 L -135.927,-122.853 L -135.562,-122.947
 L -135.188,-122.994 L -134.812,-122.994 L -134.438,-122.947 L -134.073,-122.853 L -133.723,-122.714 L -133.393,-122.533
 L -133.088,-122.312 L -132.813,-122.054 L -132.573,-121.763 L -132.371,-121.445 L -132.211,-121.104 L -132.094,-120.746
 L -132.024,-120.376 L -132,-120 L -132.024,-119.624 L -132.094,-119.254 L -132.211,-118.896 L -132.371,-118.555
 L -132.573,-118.237 L -132.813,-117.946 L -133.088,-117.688 L -133.393,-117.467 L -133.723,-117.286 L -134.073,-117.147
 L -134.438,-117.053 L -134.812,-117.006 z
M 74.8116,-117.006 L 74.4379,-117.053 L 74.073,-117.147 L 73.7227,-117.286 L 73.3925,-117.467 L 73.0877,-117.688
 L 72.8131,-117.946 L 72.573,-118.237 L 72.3711,-118.555 L 72.2107,-118.896 L 72.0943,-119.254 L 72.0237,-119.624
 L 72,-120 L 72.0237,-120.376 L 72.0943,-120.746 L 72.2107,-121.104 L 72.3711,-121.445 L 72.573,-121.763
 L 72.8131,-122.054 L 73.0877,-122.312 L 73.3925,-122.533 L 73.7227,-122.714 L 74.073,-122.853 L 74.4379,-122.947
 L 74.8116,-122.994 L 75.1884,-122.994 L 75.5621,-122.947 L 75.927,-122.853 L 76.2773,-122.714 L 76.6075,-122.533
 L 76.9123,-122.312 L 77.1869,-122.054 L 77.427,-121.763 L 77.6289,-121.445 L 77.7893,-121.104 L 77.9057,-120.746
 L 77.9763,-120.376 L 78,-120 L 77.9763,-119.624 L 77.9057,-119.254 L 77.7893,-118.896 L 77.6289,-118.555
 L 77.427,-118.237 L 77.1869,-117.946 L 76.9123,-117.688 L 76.6075,-117.467 L 76.2773,-117.286 L 75.927,-117.147
 L 75.5621,-117.053 L 75.1884,-117.006 z
" stroke="black" fill="lightgray" stroke-width="0.5"/>
</svg>
