solid OpenSCAD_Model
  facet normal -0.844175 -0.536068 0
    outer loop
      vertex -192.371 1.44526 0
      vertex -192.573 1.76336 12
      vertex -192.573 1.76336 0
    endloop
  endfacet
  facet normal -0.844175 -0.536068 0
    outer loop
      vertex -192.573 1.76336 12
      vertex -192.371 1.44526 0
      vertex -192.371 1.44526 12
    endloop
  endfacet
  facet normal -0.368389 -0.929672 0
    outer loop
      vertex -194.073 2.85317 0
      vertex -193.723 2.71448 12
      vertex -194.073 2.85317 12
    endloop
  endfacet
  facet normal -0.368389 -0.929672 -0
    outer loop
      vertex -193.723 2.71448 12
      vertex -194.073 2.85317 0
      vertex -193.723 2.71448 0
    endloop
  endfacet
  facet normal 0.368389 -0.929672 0
    outer loop
      vertex -196.277 2.71448 0
      vertex -195.927 2.85317 12
      vertex -196.277 2.71448 12
    endloop
  endfacet
  facet normal 0.368389 -0.929672 0
    outer loop
      vertex -195.927 2.85317 12
      vertex -196.277 2.71448 0
      vertex -195.927 2.85317 0
    endloop
  endfacet
  facet normal 0.905247 -0.424886 0
    outer loop
      vertex -197.789 1.10437 12
      vertex -197.629 1.44526 0
      vertex -197.629 1.44526 12
    endloop
  endfacet
  facet normal 0.905247 -0.424886 0
    outer loop
      vertex -197.629 1.44526 0
      vertex -197.789 1.10437 12
      vertex -197.789 1.10437 0
    endloop
  endfacet
  facet normal -0.982577 0.185858 0
    outer loop
      vertex -192.094 -0.746069 0
      vertex -192.024 -0.375999 12
      vertex -192.024 -0.375999 0
    endloop
  endfacet
  facet normal -0.982577 0.185858 0
    outer loop
      vertex -192.024 -0.375999 12
      vertex -192.094 -0.746069 0
      vertex -192.094 -0.746069 12
    endloop
  endfacet
  facet normal -0.982577 -0.185858 0
    outer loop
      vertex -192.024 0.375999 0
      vertex -192.094 0.746069 12
      vertex -192.094 0.746069 0
    endloop
  endfacet
  facet normal -0.982577 -0.185858 0
    outer loop
      vertex -192.094 0.746069 12
      vertex -192.024 0.375999 0
      vertex -192.024 0.375999 12
    endloop
  endfacet
  facet normal -0.684065 -0.729421 0
    outer loop
      vertex -193.088 2.31154 0
      vertex -192.813 2.05364 12
      vertex -193.088 2.31154 12
    endloop
  endfacet
  facet normal -0.684065 -0.729421 -0
    outer loop
      vertex -192.813 2.05364 12
      vertex -193.088 2.31154 0
      vertex -192.813 2.05364 0
    endloop
  endfacet
  facet normal 0 -1 0
    outer loop
      vertex -195.188 2.99408 0
      vertex -194.812 2.99408 12
      vertex -195.188 2.99408 12
    endloop
  endfacet
  facet normal 0 -1 -0
    outer loop
      vertex -194.812 2.99408 12
      vertex -195.188 2.99408 0
      vertex -194.812 2.99408 0
    endloop
  endfacet
  facet normal -0.587515 -0.809213 0
    outer loop
      vertex -193.393 2.53298 0
      vertex -193.088 2.31154 12
      vertex -193.393 2.53298 12
    endloop
  endfacet
  facet normal -0.587515 -0.809213 -0
    outer loop
      vertex -193.088 2.31154 12
      vertex -193.393 2.53298 0
      vertex -193.088 2.31154 0
    endloop
  endfacet
  facet normal 0.982577 -0.185858 0
    outer loop
      vertex -197.976 0.375999 12
      vertex -197.906 0.746069 0
      vertex -197.906 0.746069 12
    endloop
  endfacet
  facet normal 0.982577 -0.185858 0
    outer loop
      vertex -197.906 0.746069 0
      vertex -197.976 0.375999 12
      vertex -197.976 0.375999 0
    endloop
  endfacet
  facet normal 0.770696 -0.637202 0
    outer loop
      vertex -197.427 1.76336 12
      vertex -197.187 2.05364 0
      vertex -197.187 2.05364 12
    endloop
  endfacet
  facet normal 0.770696 -0.637202 0
    outer loop
      vertex -197.187 2.05364 0
      vertex -197.427 1.76336 12
      vertex -197.427 1.76336 0
    endloop
  endfacet
  facet normal 0.248625 -0.9686 0
    outer loop
      vertex -195.927 2.85317 0
      vertex -195.562 2.94686 12
      vertex -195.927 2.85317 12
    endloop
  endfacet
  facet normal 0.248625 -0.9686 0
    outer loop
      vertex -195.562 2.94686 12
      vertex -195.927 2.85317 0
      vertex -195.562 2.94686 0
    endloop
  endfacet
  facet normal 0.684065 -0.729421 0
    outer loop
      vertex -197.187 2.05364 0
      vertex -196.912 2.31154 12
      vertex -197.187 2.05364 12
    endloop
  endfacet
  facet normal 0.684065 -0.729421 0
    outer loop
      vertex -196.912 2.31154 12
      vertex -197.187 2.05364 0
      vertex -196.912 2.31154 0
    endloop
  endfacet
  facet normal -0.997969 -0.0637003 0
    outer loop
      vertex -192 0 0
      vertex -192.024 0.375999 12
      vertex -192.024 0.375999 0
    endloop
  endfacet
  facet normal -0.997969 -0.0637003 0
    outer loop
      vertex -192.024 0.375999 12
      vertex -192 0 0
      vertex -192 0 12
    endloop
  endfacet
  facet normal -0.770696 -0.637202 0
    outer loop
      vertex -192.573 1.76336 0
      vertex -192.813 2.05364 12
      vertex -192.813 2.05364 0
    endloop
  endfacet
  facet normal -0.770696 -0.637202 0
    outer loop
      vertex -192.813 2.05364 12
      vertex -192.573 1.76336 0
      vertex -192.573 1.76336 12
    endloop
  endfacet
  facet normal -0.248625 -0.9686 0
    outer loop
      vertex -194.438 2.94686 0
      vertex -194.073 2.85317 12
      vertex -194.438 2.94686 12
    endloop
  endfacet
  facet normal -0.248625 -0.9686 -0
    outer loop
      vertex -194.073 2.85317 12
      vertex -194.438 2.94686 0
      vertex -194.073 2.85317 0
    endloop
  endfacet
  facet normal -0.125262 -0.992124 0
    outer loop
      vertex -194.812 2.99408 0
      vertex -194.438 2.94686 12
      vertex -194.812 2.99408 12
    endloop
  endfacet
  facet normal -0.125262 -0.992124 -0
    outer loop
      vertex -194.438 2.94686 12
      vertex -194.812 2.99408 0
      vertex -194.438 2.94686 0
    endloop
  endfacet
  facet normal -0.481919 -0.876216 0
    outer loop
      vertex -193.723 2.71448 0
      vertex -193.393 2.53298 12
      vertex -193.723 2.71448 12
    endloop
  endfacet
  facet normal -0.481919 -0.876216 -0
    outer loop
      vertex -193.393 2.53298 12
      vertex -193.723 2.71448 0
      vertex -193.393 2.53298 0
    endloop
  endfacet
  facet normal 0.997969 -0.0637003 0
    outer loop
      vertex -198 0 12
      vertex -197.976 0.375999 0
      vertex -197.976 0.375999 12
    endloop
  endfacet
  facet normal 0.997969 -0.0637003 0
    outer loop
      vertex -197.976 0.375999 0
      vertex -198 0 12
      vertex -198 0 0
    endloop
  endfacet
  facet normal 0 0 1
    outer loop
      vertex 197.314 6.99013 12
      vertex 202 2 12
      vertex 201.961 2.62667 12
    endloop
  endfacet
  facet normal 0 0 1
    outer loop
      vertex 202 2 12
      vertex 197.314 6.99013 12
      vertex 202 -2 12
    endloop
  endfacet
  facet normal 0 0 1
    outer loop
      vertex 197.314 6.99013 12
      vertex 201.961 2.62667 12
      vertex 201.843 3.24345 12
    endloop
  endfacet
  facet normal 0 0 1
    outer loop
      vertex 197.314 -6.99013 12
      vertex 202 -2 12
      vertex 197.314 6.99013 12
    endloop
  endfacet
  facet normal 0 0 1
    outer loop
      vertex 197.314 6.99013 12
      vertex 201.843 3.24345 12
      vertex 201.649 3.84062 12
    endloop
  endfacet
  facet normal 0 0 1
    outer loop
      vertex 202 -2 12
      vertex 197.314 -6.99013 12
      vertex 201.961 -2.62667 12
    endloop
  endfacet
  facet normal 0 0 1
    outer loop
      vertex 197.314 6.99013 12
      vertex 201.649 3.84062 12
      vertex 201.382 4.40877 12
    endloop
  endfacet
  facet normal 0 0 1
    outer loop
      vertex 201.961 -2.62667 12
      vertex 197.314 -6.99013 12
      vertex 201.843 -3.24345 12
    endloop
  endfacet
  facet normal 0 0 1
    outer loop
      vertex 197.314 6.99013 12
      vertex 201.382 4.40877 12
      vertex 201.045 4.93893 12
    endloop
  endfacet
  facet normal 0 0 1
    outer loop
      vertex 201.843 -3.24345 12
      vertex 197.314 -6.99013 12
      vertex 201.649 -3.84062 12
    endloop
  endfacet
  facet normal 0 0 1
    outer loop
      vertex 197.314 6.99013 12
      vertex 201.045 4.93893 12
      vertex 200.645 5.42274 12
    endloop
  endfacet
  facet normal 0 0 1
    outer loop
      vertex 201.649 -3.84062 12
      vertex 197.314 -6.99013 12
      vertex 201.382 -4.40877 12
    endloop
  endfacet
  facet normal 0 0 1
    outer loop
      vertex 197.314 6.99013 12
      vertex 200.645 5.42274 12
      vertex 200.187 5.85257 12
    endloop
  endfacet
  facet normal 0 0 1
    outer loop
      vertex 201.382 -4.40877 12
      vertex 197.314 -6.99013 12
      vertex 201.045 -4.93893 12
    endloop
  endfacet
  facet normal 0 0 1
    outer loop
      vertex 197.314 6.99013 12
      vertex 200.187 5.85257 12
      vertex 199.679 6.22164 12
    endloop
  endfacet
  facet normal 0 0 1
    outer loop
      vertex 201.045 -4.93893 12
      vertex 197.314 -6.99013 12
      vertex 200.645 -5.42274 12
    endloop
  endfacet
  facet normal 0 0 1
    outer loop
      vertex 197.314 6.99013 12
      vertex 199.679 6.22164 12
      vertex 199.129 6.52413 12
    endloop
  endfacet
  facet normal 0 0 1
    outer loop
      vertex 200.645 -5.42274 12
      vertex 197.314 -6.99013 12
      vertex 200.187 -5.85257 12
    endloop
  endfacet
  facet normal 0 0 1
    outer loop
      vertex 197.314 6.99013 12
      vertex 199.129 6.52413 12
      vertex 198.545 6.75528 12
    endloop
  endfacet
  facet normal 0 0 1
    outer loop
      vertex 200.187 -5.85257 12
      vertex 197.314 -6.99013 12
      vertex 199.679 -6.22164 12
    endloop
  endfacet
  facet normal 0 0 1
    outer loop
      vertex 197.314 6.99013 12
      vertex 198.545 6.75528 12
      vertex 197.937 6.91144 12
    endloop
  endfacet
  facet normal 0 0 1
    outer loop
      vertex 199.679 -6.22164 12
      vertex 197.314 -6.99013 12
      vertex 199.129 -6.52413 12
    endloop
  endfacet
  facet normal 0 0 1
    outer loop
      vertex 199.129 -6.52413 12
      vertex 197.314 -6.99013 12
      vertex 198.545 -6.75528 12
    endloop
  endfacet
  facet normal 0 0 1
    outer loop
      vertex 198.545 -6.75528 12
      vertex 197.314 -6.99013 12
      vertex 197.937 -6.91144 12
    endloop
  endfacet
  facet normal 0 0 1
    outer loop
      vertex 197.314 6.99013 12
      vertex -192 0 12
      vertex 197.314 -6.99013 12
    endloop
  endfacet
  facet normal 0 0 1
    outer loop
      vertex 197.314 6.99013 12
      vertex -192.024 0.375999 12
      vertex -192 0 12
    endloop
  endfacet
  facet normal 0 0 1
    outer loop
      vertex 197.314 6.99013 12
      vertex -192.094 0.746069 12
      vertex -192.024 0.375999 12
    endloop
  endfacet
  facet normal 0 0 1
    outer loop
      vertex 197.314 6.99013 12
      vertex -192.211 1.10437 12
      vertex -192.094 0.746069 12
    endloop
  endfacet
  facet normal 0 0 1
    outer loop
      vertex 197.314 6.99013 12
      vertex -192.371 1.44526 12
      vertex -192.211 1.10437 12
    endloop
  endfacet
  facet normal 0 0 1
    outer loop
      vertex 197.314 6.99013 12
      vertex -192.573 1.76336 12
      vertex -192.371 1.44526 12
    endloop
  endfacet
  facet normal 0 0 1
    outer loop
      vertex 197.314 6.99013 12
      vertex -192.813 2.05364 12
      vertex -192.573 1.76336 12
    endloop
  endfacet
  facet normal -0 0 1
    outer loop
      vertex -197.314 6.99013 12
      vertex -192.813 2.05364 12
      vertex 197.314 6.99013 12
    endloop
  endfacet
  facet normal 0 0 1
    outer loop
      vertex -192.813 2.05364 12
      vertex -197.314 6.99013 12
      vertex -193.088 2.31154 12
    endloop
  endfacet
  facet normal 0 0 1
    outer loop
      vertex -193.088 2.31154 12
      vertex -197.314 6.99013 12
      vertex -193.393 2.53298 12
    endloop
  endfacet
  facet normal 0 0 1
    outer loop
      vertex -193.393 2.53298 12
      vertex -197.314 6.99013 12
      vertex -193.723 2.71448 12
    endloop
  endfacet
  facet normal 0 0 1
    outer loop
      vertex -193.723 2.71448 12
      vertex -197.314 6.99013 12
      vertex -194.073 2.85317 12
    endloop
  endfacet
  facet normal 0 0 1
    outer loop
      vertex -194.073 2.85317 12
      vertex -197.314 6.99013 12
      vertex -194.438 2.94686 12
    endloop
  endfacet
  facet normal 0 0 1
    outer loop
      vertex -194.438 2.94686 12
      vertex -197.314 6.99013 12
      vertex -194.812 2.99408 12
    endloop
  endfacet
  facet normal 0 0 1
    outer loop
      vertex -194.812 2.99408 12
      vertex -197.314 6.99013 12
      vertex -195.188 2.99408 12
    endloop
  endfacet
  facet normal 0 0 1
    outer loop
      vertex -197.314 6.99013 12
      vertex -195.562 2.94686 12
      vertex -195.188 2.99408 12
    endloop
  endfacet
  facet normal 0 0 1
    outer loop
      vertex -197.314 6.99013 12
      vertex -195.927 2.85317 12
      vertex -195.562 2.94686 12
    endloop
  endfacet
  facet normal 0 0 1
    outer loop
      vertex -197.314 6.99013 12
      vertex -196.277 2.71448 12
      vertex -195.927 2.85317 12
    endloop
  endfacet
  facet normal -0 0 1
    outer loop
      vertex -197.937 6.91144 12
      vertex -196.277 2.71448 12
      vertex -197.314 6.99013 12
    endloop
  endfacet
  facet normal 0 0 1
    outer loop
      vertex -196.277 2.71448 12
      vertex -197.937 6.91144 12
      vertex -196.607 2.53298 12
    endloop
  endfacet
  facet normal -0 0 1
    outer loop
      vertex -198.545 6.75528 12
      vertex -196.607 2.53298 12
      vertex -197.937 6.91144 12
    endloop
  endfacet
  facet normal -0 0 1
    outer loop
      vertex -199.129 6.52413 12
      vertex -196.607 2.53298 12
      vertex -198.545 6.75528 12
    endloop
  endfacet
  facet normal 0 0 1
    outer loop
      vertex -196.607 2.53298 12
      vertex -199.129 6.52413 12
      vertex -196.912 2.31154 12
    endloop
  endfacet
  facet normal -0 0 1
    outer loop
      vertex -199.679 6.22164 12
      vertex -196.912 2.31154 12
      vertex -199.129 6.52413 12
    endloop
  endfacet
  facet normal -0 0 1
    outer loop
      vertex -200.187 5.85257 12
      vertex -196.912 2.31154 12
      vertex -199.679 6.22164 12
    endloop
  endfacet
  facet normal 0 0 1
    outer loop
      vertex -196.912 2.31154 12
      vertex -200.187 5.85257 12
      vertex -197.187 2.05364 12
    endloop
  endfacet
  facet normal -0 0 1
    outer loop
      vertex -200.645 5.42274 12
      vertex -197.187 2.05364 12
      vertex -200.187 5.85257 12
    endloop
  endfacet
  facet normal -0 0 1
    outer loop
      vertex -201.045 4.93893 12
      vertex -197.187 2.05364 12
      vertex -200.645 5.42274 12
    endloop
  endfacet
  facet normal 0 0 1
    outer loop
      vertex -197.187 2.05364 12
      vertex -201.045 4.93893 12
      vertex -197.427 1.76336 12
    endloop
  endfacet
  facet normal -0 0 1
    outer loop
      vertex -192.024 -0.375999 12
      vertex 197.314 -6.99013 12
      vertex -192 0 12
    endloop
  endfacet
  facet normal -0 0 1
    outer loop
      vertex -192.094 -0.746069 12
      vertex 197.314 -6.99013 12
      vertex -192.024 -0.375999 12
    endloop
  endfacet
  facet normal -0 0 1
    outer loop
      vertex -192.211 -1.10437 12
      vertex 197.314 -6.99013 12
      vertex -192.094 -0.746069 12
    endloop
  endfacet
  facet normal -0 0 1
    outer loop
      vertex -192.371 -1.44526 12
      vertex 197.314 -6.99013 12
      vertex -192.211 -1.10437 12
    endloop
  endfacet
  facet normal -0 0 1
    outer loop
      vertex -192.573 -1.76336 12
      vertex 197.314 -6.99013 12
      vertex -192.371 -1.44526 12
    endloop
  endfacet
  facet normal -0 0 1
    outer loop
      vertex -192.813 -2.05364 12
      vertex 197.314 -6.99013 12
      vertex -192.573 -1.76336 12
    endloop
  endfacet
  facet normal 0 0 1
    outer loop
      vertex -197.314 -6.99013 12
      vertex -192.813 -2.05364 12
      vertex -193.088 -2.31154 12
    endloop
  endfacet
  facet normal 0 0 1
    outer loop
      vertex -197.314 -6.99013 12
      vertex -193.088 -2.31154 12
      vertex -193.393 -2.53298 12
    endloop
  endfacet
  facet normal 0 0 1
    outer loop
      vertex -197.314 -6.99013 12
      vertex -193.393 -2.53298 12
      vertex -193.723 -2.71448 12
    endloop
  endfacet
  facet normal 0 0 1
    outer loop
      vertex -197.314 -6.99013 12
      vertex -193.723 -2.71448 12
      vertex -194.073 -2.85317 12
    endloop
  endfacet
  facet normal 0 0 1
    outer loop
      vertex -197.314 -6.99013 12
      vertex -194.073 -2.85317 12
      vertex -194.438 -2.94686 12
    endloop
  endfacet
  facet normal 0 0 1
    outer loop
      vertex -197.314 -6.99013 12
      vertex -194.438 -2.94686 12
      vertex -194.812 -2.99408 12
    endloop
  endfacet
  facet normal 0 0 1
    outer loop
      vertex -197.314 -6.99013 12
      vertex -194.812 -2.99408 12
      vertex -195.188 -2.99408 12
    endloop
  endfacet
  facet normal 0 0 1
    outer loop
      vertex -192.813 -2.05364 12
      vertex -197.314 -6.99013 12
      vertex 197.314 -6.99013 12
    endloop
  endfacet
  facet normal 0 0 1
    outer loop
      vertex -195.562 -2.94686 12
      vertex -197.314 -6.99013 12
      vertex -195.188 -2.99408 12
    endloop
  endfacet
  facet normal 0 0 1
    outer loop
      vertex -195.927 -2.85317 12
      vertex -197.314 -6.99013 12
      vertex -195.562 -2.94686 12
    endloop
  endfacet
  facet normal 0 0 1
    outer loop
      vertex -196.277 -2.71448 12
      vertex -197.314 -6.99013 12
      vertex -195.927 -2.85317 12
    endloop
  endfacet
  facet normal 0 0 1
    outer loop
      vertex -197.937 -6.91144 12
      vertex -196.277 -2.71448 12
      vertex -196.607 -2.53298 12
    endloop
  endfacet
  facet normal 0 0 1
    outer loop
      vertex -199.129 -6.52413 12
      vertex -196.607 -2.53298 12
      vertex -196.912 -2.31154 12
    endloop
  endfacet
  facet normal 0 0 1
    outer loop
      vertex -200.187 -5.85257 12
      vertex -196.912 -2.31154 12
      vertex -197.187 -2.05364 12
    endloop
  endfacet
  facet normal 0 0 1
    outer loop
      vertex -201.045 -4.93893 12
      vertex -197.187 -2.05364 12
      vertex -197.427 -1.76336 12
    endloop
  endfacet
  facet normal 0 0 1
    outer loop
      vertex -201.649 -3.84062 12
      vertex -197.427 -1.76336 12
      vertex -197.629 -1.44526 12
    endloop
  endfacet
  facet normal 0 0 1
    outer loop
      vertex -201.961 -2.62667 12
      vertex -197.629 -1.44526 12
      vertex -197.789 -1.10437 12
    endloop
  endfacet
  facet normal 0 0 1
    outer loop
      vertex -202 -2 12
      vertex -197.789 -1.10437 12
      vertex -197.906 -0.746069 12
    endloop
  endfacet
  facet normal 0 0 1
    outer loop
      vertex -196.277 -2.71448 12
      vertex -197.937 -6.91144 12
      vertex -197.314 -6.99013 12
    endloop
  endfacet
  facet normal 0 0 1
    outer loop
      vertex -202 -2 12
      vertex -197.906 -0.746069 12
      vertex -197.976 -0.375999 12
    endloop
  endfacet
  facet normal 0 0 1
    outer loop
      vertex -202 -2 12
      vertex -197.976 -0.375999 12
      vertex -198 0 12
    endloop
  endfacet
  facet normal -0 0 1
    outer loop
      vertex -201.382 4.40877 12
      vertex -197.427 1.76336 12
      vertex -201.045 4.93893 12
    endloop
  endfacet
  facet normal 0 0 1
    outer loop
      vertex -202 -2 12
      vertex -198 0 12
      vertex -202 2 12
    endloop
  endfacet
  facet normal -0 0 1
    outer loop
      vertex -201.649 3.84062 12
      vertex -197.427 1.76336 12
      vertex -201.382 4.40877 12
    endloop
  endfacet
  facet normal 0 0 1
    outer loop
      vertex -197.789 -1.10437 12
      vertex -202 -2 12
      vertex -201.961 -2.62667 12
    endloop
  endfacet
  facet normal 0 0 1
    outer loop
      vertex -197.427 1.76336 12
      vertex -201.649 3.84062 12
      vertex -197.629 1.44526 12
    endloop
  endfacet
  facet normal 0 0 1
    outer loop
      vertex -196.607 -2.53298 12
      vertex -198.545 -6.75528 12
      vertex -197.937 -6.91144 12
    endloop
  endfacet
  facet normal -0 0 1
    outer loop
      vertex -201.843 3.24345 12
      vertex -197.629 1.44526 12
      vertex -201.649 3.84062 12
    endloop
  endfacet
  facet normal 0 0 1
    outer loop
      vertex -196.607 -2.53298 12
      vertex -199.129 -6.52413 12
      vertex -198.545 -6.75528 12
    endloop
  endfacet
  facet normal -0 0 1
    outer loop
      vertex -201.961 2.62667 12
      vertex -197.629 1.44526 12
      vertex -201.843 3.24345 12
    endloop
  endfacet
  facet normal 0 0 1
    outer loop
      vertex -196.912 -2.31154 12
      vertex -199.679 -6.22164 12
      vertex -199.129 -6.52413 12
    endloop
  endfacet
  facet normal 0 0 1
    outer loop
      vertex -197.629 1.44526 12
      vertex -201.961 2.62667 12
      vertex -197.789 1.10437 12
    endloop
  endfacet
  facet normal 0 0 1
    outer loop
      vertex -196.912 -2.31154 12
      vertex -200.187 -5.85257 12
      vertex -199.679 -6.22164 12
    endloop
  endfacet
  facet normal -0 0 1
    outer loop
      vertex -202 2 12
      vertex -197.789 1.10437 12
      vertex -201.961 2.62667 12
    endloop
  endfacet
  facet normal 0 0 1
    outer loop
      vertex -197.187 -2.05364 12
      vertex -200.645 -5.42274 12
      vertex -200.187 -5.85257 12
    endloop
  endfacet
  facet normal 0 0 1
    outer loop
      vertex -197.789 1.10437 12
      vertex -202 2 12
      vertex -197.906 0.746069 12
    endloop
  endfacet
  facet normal 0 0 1
    outer loop
      vertex -197.187 -2.05364 12
      vertex -201.045 -4.93893 12
      vertex -200.645 -5.42274 12
    endloop
  endfacet
  facet normal 0 0 1
    outer loop
      vertex -197.906 0.746069 12
      vertex -202 2 12
      vertex -197.976 0.375999 12
    endloop
  endfacet
  facet normal 0 0 1
    outer loop
      vertex -197.427 -1.76336 12
      vertex -201.382 -4.40877 12
      vertex -201.045 -4.93893 12
    endloop
  endfacet
  facet normal 0 0 1
    outer loop
      vertex -197.976 0.375999 12
      vertex -202 2 12
      vertex -198 0 12
    endloop
  endfacet
  facet normal 0 0 1
    outer loop
      vertex -197.427 -1.76336 12
      vertex -201.649 -3.84062 12
      vertex -201.382 -4.40877 12
    endloop
  endfacet
  facet normal 0 0 1
    outer loop
      vertex -197.629 -1.44526 12
      vertex -201.843 -3.24345 12
      vertex -201.649 -3.84062 12
    endloop
  endfacet
  facet normal 0 0 1
    outer loop
      vertex -197.629 -1.44526 12
      vertex -201.961 -2.62667 12
      vertex -201.843 -3.24345 12
    endloop
  endfacet
  facet normal 0.950603 -0.310411 0
    outer loop
      vertex -197.906 0.746069 12
      vertex -197.789 1.10437 0
      vertex -197.789 1.10437 12
    endloop
  endfacet
  facet normal 0.950603 -0.310411 0
    outer loop
      vertex -197.789 1.10437 0
      vertex -197.906 0.746069 12
      vertex -197.906 0.746069 0
    endloop
  endfacet
  facet normal 0.844175 -0.536068 0
    outer loop
      vertex -197.629 1.44526 12
      vertex -197.427 1.76336 0
      vertex -197.427 1.76336 12
    endloop
  endfacet
  facet normal 0.844175 -0.536068 0
    outer loop
      vertex -197.427 1.76336 0
      vertex -197.629 1.44526 12
      vertex -197.629 1.44526 0
    endloop
  endfacet
  facet normal 0.125262 -0.992124 0
    outer loop
      vertex -195.562 2.94686 0
      vertex -195.188 2.99408 12
      vertex -195.562 2.94686 12
    endloop
  endfacet
  facet normal 0.125262 -0.992124 0
    outer loop
      vertex -195.188 2.99408 12
      vertex -195.562 2.94686 0
      vertex -195.188 2.99408 0
    endloop
  endfacet
  facet normal 0.587515 -0.809213 0
    outer loop
      vertex -196.912 2.31154 0
      vertex -196.607 2.53298 12
      vertex -196.912 2.31154 12
    endloop
  endfacet
  facet normal 0.587515 -0.809213 0
    outer loop
      vertex -196.607 2.53298 12
      vertex -196.912 2.31154 0
      vertex -196.607 2.53298 0
    endloop
  endfacet
  facet normal 0.481919 -0.876216 0
    outer loop
      vertex -196.607 2.53298 0
      vertex -196.277 2.71448 12
      vertex -196.607 2.53298 12
    endloop
  endfacet
  facet normal 0.481919 -0.876216 0
    outer loop
      vertex -196.277 2.71448 12
      vertex -196.607 2.53298 0
      vertex -196.277 2.71448 0
    endloop
  endfacet
  facet normal 0 1 -0
    outer loop
      vertex -194.812 -2.99408 0
      vertex -195.188 -2.99408 12
      vertex -194.812 -2.99408 12
    endloop
  endfacet
  facet normal 0 1 0
    outer loop
      vertex -195.188 -2.99408 12
      vertex -194.812 -2.99408 0
      vertex -195.188 -2.99408 0
    endloop
  endfacet
  facet normal 0 0 -1
    outer loop
      vertex 197.314 -6.99013 0
      vertex 202 -2 0
      vertex 201.961 -2.62667 0
    endloop
  endfacet
  facet normal -0 0 -1
    outer loop
      vertex 202 -2 0
      vertex 197.314 -6.99013 0
      vertex 202 2 0
    endloop
  endfacet
  facet normal 0 0 -1
    outer loop
      vertex 197.314 -6.99013 0
      vertex 201.961 -2.62667 0
      vertex 201.843 -3.24345 0
    endloop
  endfacet
  facet normal 0 0 -1
    outer loop
      vertex 197.314 6.99013 0
      vertex 202 2 0
      vertex 197.314 -6.99013 0
    endloop
  endfacet
  facet normal 0 0 -1
    outer loop
      vertex 197.314 -6.99013 0
      vertex 201.843 -3.24345 0
      vertex 201.649 -3.84062 0
    endloop
  endfacet
  facet normal 0 0 -1
    outer loop
      vertex 202 2 0
      vertex 197.314 6.99013 0
      vertex 201.961 2.62667 0
    endloop
  endfacet
  facet normal 0 0 -1
    outer loop
      vertex 197.314 -6.99013 0
      vertex 201.649 -3.84062 0
      vertex 201.382 -4.40877 0
    endloop
  endfacet
  facet normal 0 0 -1
    outer loop
      vertex 201.961 2.62667 0
      vertex 197.314 6.99013 0
      vertex 201.843 3.24345 0
    endloop
  endfacet
  facet normal 0 0 -1
    outer loop
      vertex 197.314 -6.99013 0
      vertex 201.382 -4.40877 0
      vertex 201.045 -4.93893 0
    endloop
  endfacet
  facet normal 0 0 -1
    outer loop
      vertex 201.843 3.24345 0
      vertex 197.314 6.99013 0
      vertex 201.649 3.84062 0
    endloop
  endfacet
  facet normal 0 0 -1
    outer loop
      vertex 197.314 -6.99013 0
      vertex 201.045 -4.93893 0
      vertex 200.645 -5.42274 0
    endloop
  endfacet
  facet normal 0 0 -1
    outer loop
      vertex 201.649 3.84062 0
      vertex 197.314 6.99013 0
      vertex 201.382 4.40877 0
    endloop
  endfacet
  facet normal 0 0 -1
    outer loop
      vertex 197.314 -6.99013 0
      vertex 200.645 -5.42274 0
      vertex 200.187 -5.85257 0
    endloop
  endfacet
  facet normal 0 0 -1
    outer loop
      vertex 201.382 4.40877 0
      vertex 197.314 6.99013 0
      vertex 201.045 4.93893 0
    endloop
  endfacet
  facet normal 0 0 -1
    outer loop
      vertex 197.314 -6.99013 0
      vertex 200.187 -5.85257 0
      vertex 199.679 -6.22164 0
    endloop
  endfacet
  facet normal 0 0 -1
    outer loop
      vertex 201.045 4.93893 0
      vertex 197.314 6.99013 0
      vertex 200.645 5.42274 0
    endloop
  endfacet
  facet normal 0 0 -1
    outer loop
      vertex 197.314 -6.99013 0
      vertex 199.679 -6.22164 0
      vertex 199.129 -6.52413 0
    endloop
  endfacet
  facet normal 0 0 -1
    outer loop
      vertex 200.645 5.42274 0
      vertex 197.314 6.99013 0
      vertex 200.187 5.85257 0
    endloop
  endfacet
  facet normal 0 0 -1
    outer loop
      vertex 197.314 -6.99013 0
      vertex 199.129 -6.52413 0
      vertex 198.545 -6.75528 0
    endloop
  endfacet
  facet normal 0 0 -1
    outer loop
      vertex 200.187 5.85257 0
      vertex 197.314 6.99013 0
      vertex 199.679 6.22164 0
    endloop
  endfacet
  facet normal 0 0 -1
    outer loop
      vertex 197.314 -6.99013 0
      vertex 198.545 -6.75528 0
      vertex 197.937 -6.91144 0
    endloop
  endfacet
  facet normal 0 0 -1
    outer loop
      vertex 199.679 6.22164 0
      vertex 197.314 6.99013 0
      vertex 199.129 6.52413 0
    endloop
  endfacet
  facet normal 0 0 -1
    outer loop
      vertex 199.129 6.52413 0
      vertex 197.314 6.99013 0
      vertex 198.545 6.75528 0
    endloop
  endfacet
  facet normal 0 0 -1
    outer loop
      vertex 198.545 6.75528 0
      vertex 197.314 6.99013 0
      vertex 197.937 6.91144 0
    endloop
  endfacet
  facet normal 0 0 -1
    outer loop
      vertex 197.314 -6.99013 0
      vertex -192 0 0
      vertex 197.314 6.99013 0
    endloop
  endfacet
  facet normal 0 0 -1
    outer loop
      vertex 197.314 -6.99013 0
      vertex -192.024 -0.375999 0
      vertex -192 0 0
    endloop
  endfacet
  facet normal 0 0 -1
    outer loop
      vertex 197.314 -6.99013 0
      vertex -192.094 -0.746069 0
      vertex -192.024 -0.375999 0
    endloop
  endfacet
  facet normal 0 0 -1
    outer loop
      vertex 197.314 -6.99013 0
      vertex -192.211 -1.10437 0
      vertex -192.094 -0.746069 0
    endloop
  endfacet
  facet normal 0 0 -1
    outer loop
      vertex 197.314 -6.99013 0
      vertex -192.371 -1.44526 0
      vertex -192.211 -1.10437 0
    endloop
  endfacet
  facet normal 0 0 -1
    outer loop
      vertex 197.314 -6.99013 0
      vertex -192.573 -1.76336 0
      vertex -192.371 -1.44526 0
    endloop
  endfacet
  facet normal 0 0 -1
    outer loop
      vertex 197.314 -6.99013 0
      vertex -192.813 -2.05364 0
      vertex -192.573 -1.76336 0
    endloop
  endfacet
  facet normal 0 0 -1
    outer loop
      vertex -197.314 -6.99013 0
      vertex -192.813 -2.05364 0
      vertex 197.314 -6.99013 0
    endloop
  endfacet
  facet normal 0 0 -1
    outer loop
      vertex -192.813 -2.05364 0
      vertex -197.314 -6.99013 0
      vertex -193.088 -2.31154 0
    endloop
  endfacet
  facet normal 0 0 -1
    outer loop
      vertex -193.088 -2.31154 0
      vertex -197.314 -6.99013 0
      vertex -193.393 -2.53298 0
    endloop
  endfacet
  facet normal 0 0 -1
    outer loop
      vertex -193.393 -2.53298 0
      vertex -197.314 -6.99013 0
      vertex -193.723 -2.71448 0
    endloop
  endfacet
  facet normal 0 0 -1
    outer loop
      vertex -193.723 -2.71448 0
      vertex -197.314 -6.99013 0
      vertex -194.073 -2.85317 0
    endloop
  endfacet
  facet normal 0 0 -1
    outer loop
      vertex -194.073 -2.85317 0
      vertex -197.314 -6.99013 0
      vertex -194.438 -2.94686 0
    endloop
  endfacet
  facet normal 0 0 -1
    outer loop
      vertex -194.438 -2.94686 0
      vertex -197.314 -6.99013 0
      vertex -194.812 -2.99408 0
    endloop
  endfacet
  facet normal -0 0 -1
    outer loop
      vertex -194.812 -2.99408 0
      vertex -197.314 -6.99013 0
      vertex -195.188 -2.99408 0
    endloop
  endfacet
  facet normal 0 0 -1
    outer loop
      vertex -197.314 -6.99013 0
      vertex -195.562 -2.94686 0
      vertex -195.188 -2.99408 0
    endloop
  endfacet
  facet normal 0 0 -1
    outer loop
      vertex -197.314 -6.99013 0
      vertex -195.927 -2.85317 0
      vertex -195.562 -2.94686 0
    endloop
  endfacet
  facet normal 0 0 -1
    outer loop
      vertex -197.314 -6.99013 0
      vertex -196.277 -2.71448 0
      vertex -195.927 -2.85317 0
    endloop
  endfacet
  facet normal 0 0 -1
    outer loop
      vertex -197.937 -6.91144 0
      vertex -196.277 -2.71448 0
      vertex -197.314 -6.99013 0
    endloop
  endfacet
  facet normal -0 0 -1
    outer loop
      vertex -196.277 -2.71448 0
      vertex -197.937 -6.91144 0
      vertex -196.607 -2.53298 0
    endloop
  endfacet
  facet normal 0 0 -1
    outer loop
      vertex -198.545 -6.75528 0
      vertex -196.607 -2.53298 0
      vertex -197.937 -6.91144 0
    endloop
  endfacet
  facet normal 0 0 -1
    outer loop
      vertex -199.129 -6.52413 0
      vertex -196.607 -2.53298 0
      vertex -198.545 -6.75528 0
    endloop
  endfacet
  facet normal -0 0 -1
    outer loop
      vertex -196.607 -2.53298 0
      vertex -199.129 -6.52413 0
      vertex -196.912 -2.31154 0
    endloop
  endfacet
  facet normal 0 0 -1
    outer loop
      vertex -199.679 -6.22164 0
      vertex -196.912 -2.31154 0
      vertex -199.129 -6.52413 0
    endloop
  endfacet
  facet normal 0 0 -1
    outer loop
      vertex -200.187 -5.85257 0
      vertex -196.912 -2.31154 0
      vertex -199.679 -6.22164 0
    endloop
  endfacet
  facet normal -0 0 -1
    outer loop
      vertex -196.912 -2.31154 0
      vertex -200.187 -5.85257 0
      vertex -197.187 -2.05364 0
    endloop
  endfacet
  facet normal 0 0 -1
    outer loop
      vertex -200.645 -5.42274 0
      vertex -197.187 -2.05364 0
      vertex -200.187 -5.85257 0
    endloop
  endfacet
  facet normal 0 0 -1
    outer loop
      vertex -201.045 -4.93893 0
      vertex -197.187 -2.05364 0
      vertex -200.645 -5.42274 0
    endloop
  endfacet
  facet normal -0 0 -1
    outer loop
      vertex -197.187 -2.05364 0
      vertex -201.045 -4.93893 0
      vertex -197.427 -1.76336 0
    endloop
  endfacet
  facet normal 0 0 -1
    outer loop
      vertex -192.024 0.375999 0
      vertex 197.314 6.99013 0
      vertex -192 0 0
    endloop
  endfacet
  facet normal 0 0 -1
    outer loop
      vertex -192.094 0.746069 0
      vertex 197.314 6.99013 0
      vertex -192.024 0.375999 0
    endloop
  endfacet
  facet normal 0 0 -1
    outer loop
      vertex -192.211 1.10437 0
      vertex 197.314 6.99013 0
      vertex -192.094 0.746069 0
    endloop
  endfacet
  facet normal 0 0 -1
    outer loop
      vertex -192.371 1.44526 0
      vertex 197.314 6.99013 0
      vertex -192.211 1.10437 0
    endloop
  endfacet
  facet normal 0 0 -1
    outer loop
      vertex -192.573 1.76336 0
      vertex 197.314 6.99013 0
      vertex -192.371 1.44526 0
    endloop
  endfacet
  facet normal 0 0 -1
    outer loop
      vertex -192.813 2.05364 0
      vertex 197.314 6.99013 0
      vertex -192.573 1.76336 0
    endloop
  endfacet
  facet normal 0 0 -1
    outer loop
      vertex -197.314 6.99013 0
      vertex -192.813 2.05364 0
      vertex -193.088 2.31154 0
    endloop
  endfacet
  facet normal 0 0 -1
    outer loop
      vertex -197.314 6.99013 0
      vertex -193.088 2.31154 0
      vertex -193.393 2.53298 0
    endloop
  endfacet
  facet normal 0 0 -1
    outer loop
      vertex -197.314 6.99013 0
      vertex -193.393 2.53298 0
      vertex -193.723 2.71448 0
    endloop
  endfacet
  facet normal 0 0 -1
    outer loop
      vertex -197.314 6.99013 0
      vertex -193.723 2.71448 0
      vertex -194.073 2.85317 0
    endloop
  endfacet
  facet normal 0 0 -1
    outer loop
      vertex -197.314 6.99013 0
      vertex -194.073 2.85317 0
      vertex -194.438 2.94686 0
    endloop
  endfacet
  facet normal 0 0 -1
    outer loop
      vertex -197.314 6.99013 0
      vertex -194.438 2.94686 0
      vertex -194.812 2.99408 0
    endloop
  endfacet
  facet normal 0 0 -1
    outer loop
      vertex -197.314 6.99013 0
      vertex -194.812 2.99408 0
      vertex -195.188 2.99408 0
    endloop
  endfacet
  facet normal 0 0 -1
    outer loop
      vertex -192.813 2.05364 0
      vertex -197.314 6.99013 0
      vertex 197.314 6.99013 0
    endloop
  endfacet
  facet normal 0 0 -1
    outer loop
      vertex -195.562 2.94686 0
      vertex -197.314 6.99013 0
      vertex -195.188 2.99408 0
    endloop
  endfacet
  facet normal 0 0 -1
    outer loop
      vertex -195.927 2.85317 0
      vertex -197.314 6.99013 0
      vertex -195.562 2.94686 0
    endloop
  endfacet
  facet normal 0 0 -1
    outer loop
      vertex -196.277 2.71448 0
      vertex -197.314 6.99013 0
      vertex -195.927 2.85317 0
    endloop
  endfacet
  facet normal 0 0 -1
    outer loop
      vertex -197.937 6.91144 0
      vertex -196.277 2.71448 0
      vertex -196.607 2.53298 0
    endloop
  endfacet
  facet normal 0 0 -1
    outer loop
      vertex -199.129 6.52413 0
      vertex -196.607 2.53298 0
      vertex -196.912 2.31154 0
    endloop
  endfacet
  facet normal 0 0 -1
    outer loop
      vertex -200.187 5.85257 0
      vertex -196.912 2.31154 0
      vertex -197.187 2.05364 0
    endloop
  endfacet
  facet normal 0 0 -1
    outer loop
      vertex -201.045 4.93893 0
      vertex -197.187 2.05364 0
      vertex -197.427 1.76336 0
    endloop
  endfacet
  facet normal 0 0 -1
    outer loop
      vertex -201.649 3.84062 0
      vertex -197.427 1.76336 0
      vertex -197.629 1.44526 0
    endloop
  endfacet
  facet normal 0 0 -1
    outer loop
      vertex -201.961 2.62667 0
      vertex -197.629 1.44526 0
      vertex -197.789 1.10437 0
    endloop
  endfacet
  facet normal 0 0 -1
    outer loop
      vertex -202 2 0
      vertex -197.789 1.10437 0
      vertex -197.906 0.746069 0
    endloop
  endfacet
  facet normal 0 0 -1
    outer loop
      vertex -196.277 2.71448 0
      vertex -197.937 6.91144 0
      vertex -197.314 6.99013 0
    endloop
  endfacet
  facet normal 0 0 -1
    outer loop
      vertex -202 2 0
      vertex -197.906 0.746069 0
      vertex -197.976 0.375999 0
    endloop
  endfacet
  facet normal 0 0 -1
    outer loop
      vertex -202 2 0
      vertex -197.976 0.375999 0
      vertex -198 0 0
    endloop
  endfacet
  facet normal 0 0 -1
    outer loop
      vertex -201.382 -4.40877 0
      vertex -197.427 -1.76336 0
      vertex -201.045 -4.93893 0
    endloop
  endfacet
  facet normal 0 0 -1
    outer loop
      vertex -202 2 0
      vertex -198 0 0
      vertex -202 -2 0
    endloop
  endfacet
  facet normal 0 0 -1
    outer loop
      vertex -201.649 -3.84062 0
      vertex -197.427 -1.76336 0
      vertex -201.382 -4.40877 0
    endloop
  endfacet
  facet normal 0 0 -1
    outer loop
      vertex -197.789 1.10437 0
      vertex -202 2 0
      vertex -201.961 2.62667 0
    endloop
  endfacet
  facet normal -0 0 -1
    outer loop
      vertex -197.427 -1.76336 0
      vertex -201.649 -3.84062 0
      vertex -197.629 -1.44526 0
    endloop
  endfacet
  facet normal 0 0 -1
    outer loop
      vertex -196.607 2.53298 0
      vertex -198.545 6.75528 0
      vertex -197.937 6.91144 0
    endloop
  endfacet
  facet normal 0 0 -1
    outer loop
      vertex -201.843 -3.24345 0
      vertex -197.629 -1.44526 0
      vertex -201.649 -3.84062 0
    endloop
  endfacet
  facet normal 0 0 -1
    outer loop
      vertex -196.607 2.53298 0
      vertex -199.129 6.52413 0
      vertex -198.545 6.75528 0
    endloop
  endfacet
  facet normal 0 0 -1
    outer loop
      vertex -201.961 -2.62667 0
      vertex -197.629 -1.44526 0
      vertex -201.843 -3.24345 0
    endloop
  endfacet
  facet normal 0 0 -1
    outer loop
      vertex -196.912 2.31154 0
      vertex -199.679 6.22164 0
      vertex -199.129 6.52413 0
    endloop
  endfacet
  facet normal -0 0 -1
    outer loop
      vertex -197.629 -1.44526 0
      vertex -201.961 -2.62667 0
      vertex -197.789 -1.10437 0
    endloop
  endfacet
  facet normal 0 0 -1
    outer loop
      vertex -196.912 2.31154 0
      vertex -200.187 5.85257 0
      vertex -199.679 6.22164 0
    endloop
  endfacet
  facet normal 0 0 -1
    outer loop
      vertex -202 -2 0
      vertex -197.789 -1.10437 0
      vertex -201.961 -2.62667 0
    endloop
  endfacet
  facet normal 0 0 -1
    outer loop
      vertex -197.187 2.05364 0
      vertex -200.645 5.42274 0
      vertex -200.187 5.85257 0
    endloop
  endfacet
  facet normal -0 0 -1
    outer loop
      vertex -197.789 -1.10437 0
      vertex -202 -2 0
      vertex -197.906 -0.746069 0
    endloop
  endfacet
  facet normal 0 0 -1
    outer loop
      vertex -197.187 2.05364 0
      vertex -201.045 4.93893 0
      vertex -200.645 5.42274 0
    endloop
  endfacet
  facet normal -0 0 -1
    outer loop
      vertex -197.906 -0.746069 0
      vertex -202 -2 0
      vertex -197.976 -0.375999 0
    endloop
  endfacet
  facet normal 0 0 -1
    outer loop
      vertex -197.427 1.76336 0
      vertex -201.382 4.40877 0
      vertex -201.045 4.93893 0
    endloop
  endfacet
  facet normal -0 0 -1
    outer loop
      vertex -197.976 -0.375999 0
      vertex -202 -2 0
      vertex -198 0 0
    endloop
  endfacet
  facet normal 0 0 -1
    outer loop
      vertex -197.427 1.76336 0
      vertex -201.649 3.84062 0
      vertex -201.382 4.40877 0
    endloop
  endfacet
  facet normal 0 0 -1
    outer loop
      vertex -197.629 1.44526 0
      vertex -201.843 3.24345 0
      vertex -201.649 3.84062 0
    endloop
  endfacet
  facet normal 0 0 -1
    outer loop
      vertex -197.629 1.44526 0
      vertex -201.961 2.62667 0
      vertex -201.843 3.24345 0
    endloop
  endfacet
  facet normal 0.844175 0.536068 0
    outer loop
      vertex -197.427 -1.76336 12
      vertex -197.629 -1.44526 0
      vertex -197.629 -1.44526 12
    endloop
  endfacet
  facet normal 0.844175 0.536068 0
    outer loop
      vertex -197.629 -1.44526 0
      vertex -197.427 -1.76336 12
      vertex -197.427 -1.76336 0
    endloop
  endfacet
  facet normal -0.125262 0.992124 0
    outer loop
      vertex -194.438 -2.94686 0
      vertex -194.812 -2.99408 12
      vertex -194.438 -2.94686 12
    endloop
  endfacet
  facet normal -0.125262 0.992124 0
    outer loop
      vertex -194.812 -2.99408 12
      vertex -194.438 -2.94686 0
      vertex -194.812 -2.99408 0
    endloop
  endfacet
  facet normal -0.368389 0.929672 0
    outer loop
      vertex -193.723 -2.71448 0
      vertex -194.073 -2.85317 12
      vertex -193.723 -2.71448 12
    endloop
  endfacet
  facet normal -0.368389 0.929672 0
    outer loop
      vertex -194.073 -2.85317 12
      vertex -193.723 -2.71448 0
      vertex -194.073 -2.85317 0
    endloop
  endfacet
  facet normal -0.905247 -0.424886 0
    outer loop
      vertex -192.211 1.10437 0
      vertex -192.371 1.44526 12
      vertex -192.371 1.44526 0
    endloop
  endfacet
  facet normal -0.905247 -0.424886 0
    outer loop
      vertex -192.371 1.44526 12
      vertex -192.211 1.10437 0
      vertex -192.211 1.10437 12
    endloop
  endfacet
  facet normal -0.950603 -0.310411 0
    outer loop
      vertex -192.094 0.746069 0
      vertex -192.211 1.10437 12
      vertex -192.211 1.10437 0
    endloop
  endfacet
  facet normal -0.950603 -0.310411 0
    outer loop
      vertex -192.211 1.10437 12
      vertex -192.094 0.746069 0
      vertex -192.094 0.746069 12
    endloop
  endfacet
  facet normal -0.997969 0.0637003 0
    outer loop
      vertex -192.024 -0.375999 0
      vertex -192 0 12
      vertex -192 0 0
    endloop
  endfacet
  facet normal -0.997969 0.0637003 0
    outer loop
      vertex -192 0 12
      vertex -192.024 -0.375999 0
      vertex -192.024 -0.375999 12
    endloop
  endfacet
  facet normal -0.905247 0.424886 0
    outer loop
      vertex -192.371 -1.44526 0
      vertex -192.211 -1.10437 12
      vertex -192.211 -1.10437 0
    endloop
  endfacet
  facet normal -0.905247 0.424886 0
    outer loop
      vertex -192.211 -1.10437 12
      vertex -192.371 -1.44526 0
      vertex -192.371 -1.44526 12
    endloop
  endfacet
  facet normal -0.950603 0.310411 0
    outer loop
      vertex -192.211 -1.10437 0
      vertex -192.094 -0.746069 12
      vertex -192.094 -0.746069 0
    endloop
  endfacet
  facet normal -0.950603 0.310411 0
    outer loop
      vertex -192.094 -0.746069 12
      vertex -192.211 -1.10437 0
      vertex -192.211 -1.10437 12
    endloop
  endfacet
  facet normal -0.684065 0.729421 0
    outer loop
      vertex -192.813 -2.05364 0
      vertex -193.088 -2.31154 12
      vertex -192.813 -2.05364 12
    endloop
  endfacet
  facet normal -0.684065 0.729421 0
    outer loop
      vertex -193.088 -2.31154 12
      vertex -192.813 -2.05364 0
      vertex -193.088 -2.31154 0
    endloop
  endfacet
  facet normal -0.770696 0.637202 0
    outer loop
      vertex -192.813 -2.05364 0
      vertex -192.573 -1.76336 12
      vertex -192.573 -1.76336 0
    endloop
  endfacet
  facet normal -0.770696 0.637202 0
    outer loop
      vertex -192.573 -1.76336 12
      vertex -192.813 -2.05364 0
      vertex -192.813 -2.05364 12
    endloop
  endfacet
  facet normal -0.844175 0.536068 0
    outer loop
      vertex -192.573 -1.76336 0
      vertex -192.371 -1.44526 12
      vertex -192.371 -1.44526 0
    endloop
  endfacet
  facet normal -0.844175 0.536068 0
    outer loop
      vertex -192.371 -1.44526 12
      vertex -192.573 -1.76336 0
      vertex -192.573 -1.76336 12
    endloop
  endfacet
  facet normal 0.905247 0.424886 0
    outer loop
      vertex -197.629 -1.44526 12
      vertex -197.789 -1.10437 0
      vertex -197.789 -1.10437 12
    endloop
  endfacet
  facet normal 0.905247 0.424886 0
    outer loop
      vertex -197.789 -1.10437 0
      vertex -197.629 -1.44526 12
      vertex -197.629 -1.44526 0
    endloop
  endfacet
  facet normal 0.684065 0.729421 -0
    outer loop
      vertex -196.912 -2.31154 0
      vertex -197.187 -2.05364 12
      vertex -196.912 -2.31154 12
    endloop
  endfacet
  facet normal 0.684065 0.729421 0
    outer loop
      vertex -197.187 -2.05364 12
      vertex -196.912 -2.31154 0
      vertex -197.187 -2.05364 0
    endloop
  endfacet
  facet normal -0.248625 0.9686 0
    outer loop
      vertex -194.073 -2.85317 0
      vertex -194.438 -2.94686 12
      vertex -194.073 -2.85317 12
    endloop
  endfacet
  facet normal -0.248625 0.9686 0
    outer loop
      vertex -194.438 -2.94686 12
      vertex -194.073 -2.85317 0
      vertex -194.438 -2.94686 0
    endloop
  endfacet
  facet normal -0.587515 0.809213 0
    outer loop
      vertex -193.088 -2.31154 0
      vertex -193.393 -2.53298 12
      vertex -193.088 -2.31154 12
    endloop
  endfacet
  facet normal -0.587515 0.809213 0
    outer loop
      vertex -193.393 -2.53298 12
      vertex -193.088 -2.31154 0
      vertex -193.393 -2.53298 0
    endloop
  endfacet
  facet normal -0.481919 0.876216 0
    outer loop
      vertex -193.393 -2.53298 0
      vertex -193.723 -2.71448 12
      vertex -193.393 -2.53298 12
    endloop
  endfacet
  facet normal -0.481919 0.876216 0
    outer loop
      vertex -193.723 -2.71448 12
      vertex -193.393 -2.53298 0
      vertex -193.723 -2.71448 0
    endloop
  endfacet
  facet normal 0.587515 0.809213 -0
    outer loop
      vertex -196.607 -2.53298 0
      vertex -196.912 -2.31154 12
      vertex -196.607 -2.53298 12
    endloop
  endfacet
  facet normal 0.587515 0.809213 0
    outer loop
      vertex -196.912 -2.31154 12
      vertex -196.607 -2.53298 0
      vertex -196.912 -2.31154 0
    endloop
  endfacet
  facet normal 0.368389 0.929672 -0
    outer loop
      vertex -195.927 -2.85317 0
      vertex -196.277 -2.71448 12
      vertex -195.927 -2.85317 12
    endloop
  endfacet
  facet normal 0.368389 0.929672 0
    outer loop
      vertex -196.277 -2.71448 12
      vertex -195.927 -2.85317 0
      vertex -196.277 -2.71448 0
    endloop
  endfacet
  facet normal 0.248625 0.9686 -0
    outer loop
      vertex -195.562 -2.94686 0
      vertex -195.927 -2.85317 12
      vertex -195.562 -2.94686 12
    endloop
  endfacet
  facet normal 0.248625 0.9686 0
    outer loop
      vertex -195.927 -2.85317 12
      vertex -195.562 -2.94686 0
      vertex -195.927 -2.85317 0
    endloop
  endfacet
  facet normal 0.125262 0.992124 -0
    outer loop
      vertex -195.188 -2.99408 0
      vertex -195.562 -2.94686 12
      vertex -195.188 -2.99408 12
    endloop
  endfacet
  facet normal 0.125262 0.992124 0
    outer loop
      vertex -195.562 -2.94686 12
      vertex -195.188 -2.99408 0
      vertex -195.562 -2.94686 0
    endloop
  endfacet
  facet normal 0.997969 0.0637003 0
    outer loop
      vertex -197.976 -0.375999 12
      vertex -198 0 0
      vertex -198 0 12
    endloop
  endfacet
  facet normal 0.997969 0.0637003 0
    outer loop
      vertex -198 0 0
      vertex -197.976 -0.375999 12
      vertex -197.976 -0.375999 0
    endloop
  endfacet
  facet normal 0.481919 0.876216 -0
    outer loop
      vertex -196.277 -2.71448 0
      vertex -196.607 -2.53298 12
      vertex -196.277 -2.71448 12
    endloop
  endfacet
  facet normal 0.481919 0.876216 0
    outer loop
      vertex -196.607 -2.53298 12
      vertex -196.277 -2.71448 0
      vertex -196.607 -2.53298 0
    endloop
  endfacet
  facet normal 0.950603 0.310411 0
    outer loop
      vertex -197.789 -1.10437 12
      vertex -197.906 -0.746069 0
      vertex -197.906 -0.746069 12
    endloop
  endfacet
  facet normal 0.950603 0.310411 0
    outer loop
      vertex -197.906 -0.746069 0
      vertex -197.789 -1.10437 12
      vertex -197.789 -1.10437 0
    endloop
  endfacet
  facet normal 0.982577 0.185858 0
    outer loop
      vertex -197.906 -0.746069 12
      vertex -197.976 -0.375999 0
      vertex -197.976 -0.375999 12
    endloop
  endfacet
  facet normal 0.982577 0.185858 0
    outer loop
      vertex -197.976 -0.375999 0
      vertex -197.906 -0.746069 12
      vertex -197.906 -0.746069 0
    endloop
  endfacet
  facet normal 0.770696 0.637202 0
    outer loop
      vertex -197.187 -2.05364 12
      vertex -197.427 -1.76336 0
      vertex -197.427 -1.76336 12
    endloop
  endfacet
  facet normal 0.770696 0.637202 0
    outer loop
      vertex -197.427 -1.76336 0
      vertex -197.187 -2.05364 12
      vertex -197.187 -2.05364 0
    endloop
  endfacet
  facet normal -1 0 0
    outer loop
      vertex -202 -2 0
      vertex -202 2 12
      vertex -202 2 0
    endloop
  endfacet
  facet normal -1 -0 0
    outer loop
      vertex -202 2 12
      vertex -202 -2 0
      vertex -202 -2 12
    endloop
  endfacet
  facet normal -0.998069 -0.0621135 0
    outer loop
      vertex -201.961 -2.62667 0
      vertex -202 -2 12
      vertex -202 -2 0
    endloop
  endfacet
  facet normal -0.998069 -0.0621135 0
    outer loop
      vertex -202 -2 12
      vertex -201.961 -2.62667 0
      vertex -201.961 -2.62667 12
    endloop
  endfacet
  facet normal 0 1 -0
    outer loop
      vertex 197.314 6.99013 0
      vertex -197.314 6.99013 12
      vertex 197.314 6.99013 12
    endloop
  endfacet
  facet normal 0 1 0
    outer loop
      vertex -197.314 6.99013 12
      vertex 197.314 6.99013 0
      vertex -197.314 6.99013 0
    endloop
  endfacet
  facet normal 0 -1 0
    outer loop
      vertex -197.314 -6.99013 0
      vertex 197.314 -6.99013 12
      vertex -197.314 -6.99013 12
    endloop
  endfacet
  facet normal 0 -1 -0
    outer loop
      vertex 197.314 -6.99013 12
      vertex -197.314 -6.99013 0
      vertex 197.314 -6.99013 0
    endloop
  endfacet
  facet normal -0.998069 0.0621135 0
    outer loop
      vertex -202 2 0
      vertex -201.961 2.62667 12
      vertex -201.961 2.62667 0
    endloop
  endfacet
  facet normal -0.998069 0.0621135 0
    outer loop
      vertex -201.961 2.62667 12
      vertex -202 2 0
      vertex -202 2 12
    endloop
  endfacet
  facet normal 0.905042 -0.425321 0
    outer loop
      vertex 201.382 -4.40877 12
      vertex 201.649 -3.84062 0
      vertex 201.649 -3.84062 12
    endloop
  endfacet
  facet normal 0.905042 -0.425321 0
    outer loop
      vertex 201.649 -3.84062 0
      vertex 201.382 -4.40877 12
      vertex 201.382 -4.40877 0
    endloop
  endfacet
  facet normal -0.368026 -0.929816 0
    outer loop
      vertex -199.129 -6.52413 0
      vertex -198.545 -6.75528 12
      vertex -199.129 -6.52413 12
    endloop
  endfacet
  facet normal -0.368026 -0.929816 -0
    outer loop
      vertex -198.545 -6.75528 12
      vertex -199.129 -6.52413 0
      vertex -198.545 -6.75528 0
    endloop
  endfacet
  facet normal -0.125313 -0.992117 0
    outer loop
      vertex -197.937 -6.91144 0
      vertex -197.314 -6.99013 12
      vertex -197.937 -6.91144 12
    endloop
  endfacet
  facet normal -0.125313 -0.992117 -0
    outer loop
      vertex -197.314 -6.99013 12
      vertex -197.937 -6.91144 0
      vertex -197.314 -6.99013 0
    endloop
  endfacet
  facet normal -0.481907 -0.876223 0
    outer loop
      vertex -199.679 -6.22164 0
      vertex -199.129 -6.52413 12
      vertex -199.679 -6.22164 12
    endloop
  endfacet
  facet normal -0.481907 -0.876223 -0
    outer loop
      vertex -199.129 -6.52413 12
      vertex -199.679 -6.22164 0
      vertex -199.129 -6.52413 0
    endloop
  endfacet
  facet normal -0.684327 -0.729176 0
    outer loop
      vertex -200.645 -5.42274 0
      vertex -200.187 -5.85257 12
      vertex -200.645 -5.42274 12
    endloop
  endfacet
  facet normal -0.684327 -0.729176 -0
    outer loop
      vertex -200.187 -5.85257 12
      vertex -200.645 -5.42274 0
      vertex -200.187 -5.85257 0
    endloop
  endfacet
  facet normal 1 -0 0
    outer loop
      vertex 202 -2 12
      vertex 202 2 0
      vertex 202 2 12
    endloop
  endfacet
  facet normal 1 0 0
    outer loop
      vertex 202 2 0
      vertex 202 -2 12
      vertex 202 -2 0
    endloop
  endfacet
  facet normal 0.951072 -0.30897 0
    outer loop
      vertex 201.649 -3.84062 12
      vertex 201.843 -3.24345 0
      vertex 201.843 -3.24345 12
    endloop
  endfacet
  facet normal 0.951072 -0.30897 0
    outer loop
      vertex 201.843 -3.24345 0
      vertex 201.649 -3.84062 12
      vertex 201.649 -3.84062 0
    endloop
  endfacet
  facet normal 0.982187 -0.187908 0
    outer loop
      vertex 201.843 -3.24345 12
      vertex 201.961 -2.62667 0
      vertex 201.961 -2.62667 12
    endloop
  endfacet
  facet normal 0.982187 -0.187908 0
    outer loop
      vertex 201.961 -2.62667 0
      vertex 201.843 -3.24345 12
      vertex 201.843 -3.24345 0
    endloop
  endfacet
  facet normal 0.481907 -0.876223 0
    outer loop
      vertex 199.129 -6.52413 0
      vertex 199.679 -6.22164 12
      vertex 199.129 -6.52413 12
    endloop
  endfacet
  facet normal 0.481907 -0.876223 0
    outer loop
      vertex 199.679 -6.22164 12
      vertex 199.129 -6.52413 0
      vertex 199.679 -6.22164 0
    endloop
  endfacet
  facet normal 0.843931 0.536451 0
    outer loop
      vertex 201.382 4.40877 12
      vertex 201.045 4.93893 0
      vertex 201.045 4.93893 12
    endloop
  endfacet
  facet normal 0.843931 0.536451 0
    outer loop
      vertex 201.045 4.93893 0
      vertex 201.382 4.40877 12
      vertex 201.382 4.40877 0
    endloop
  endfacet
  facet normal 0.951072 0.30897 0
    outer loop
      vertex 201.843 3.24345 12
      vertex 201.649 3.84062 0
      vertex 201.649 3.84062 12
    endloop
  endfacet
  facet normal 0.951072 0.30897 0
    outer loop
      vertex 201.649 3.84062 0
      vertex 201.843 3.24345 12
      vertex 201.843 3.24345 0
    endloop
  endfacet
  facet normal 0.684327 0.729176 -0
    outer loop
      vertex 200.645 5.42274 0
      vertex 200.187 5.85257 12
      vertex 200.645 5.42274 12
    endloop
  endfacet
  facet normal 0.684327 0.729176 0
    outer loop
      vertex 200.187 5.85257 12
      vertex 200.645 5.42274 0
      vertex 200.187 5.85257 0
    endloop
  endfacet
  facet normal 0.368026 0.929816 -0
    outer loop
      vertex 199.129 6.52413 0
      vertex 198.545 6.75528 12
      vertex 199.129 6.52413 12
    endloop
  endfacet
  facet normal 0.368026 0.929816 0
    outer loop
      vertex 198.545 6.75528 12
      vertex 199.129 6.52413 0
      vertex 198.545 6.75528 0
    endloop
  endfacet
  facet normal 0.248768 0.968563 -0
    outer loop
      vertex 198.545 6.75528 0
      vertex 197.937 6.91144 12
      vertex 198.545 6.75528 12
    endloop
  endfacet
  facet normal 0.248768 0.968563 0
    outer loop
      vertex 197.937 6.91144 12
      vertex 198.545 6.75528 0
      vertex 197.937 6.91144 0
    endloop
  endfacet
  facet normal 0.125313 0.992117 -0
    outer loop
      vertex 197.937 6.91144 0
      vertex 197.314 6.99013 12
      vertex 197.937 6.91144 12
    endloop
  endfacet
  facet normal 0.125313 0.992117 0
    outer loop
      vertex 197.314 6.99013 12
      vertex 197.937 6.91144 0
      vertex 197.314 6.99013 0
    endloop
  endfacet
  facet normal -0.368026 0.929816 0
    outer loop
      vertex -198.545 6.75528 0
      vertex -199.129 6.52413 12
      vertex -198.545 6.75528 12
    endloop
  endfacet
  facet normal -0.368026 0.929816 0
    outer loop
      vertex -199.129 6.52413 12
      vertex -198.545 6.75528 0
      vertex -199.129 6.52413 0
    endloop
  endfacet
  facet normal -0.770703 0.637195 0
    outer loop
      vertex -201.045 4.93893 0
      vertex -200.645 5.42274 12
      vertex -200.645 5.42274 0
    endloop
  endfacet
  facet normal -0.770703 0.637195 0
    outer loop
      vertex -200.645 5.42274 12
      vertex -201.045 4.93893 0
      vertex -201.045 4.93893 12
    endloop
  endfacet
  facet normal -0.951072 -0.30897 0
    outer loop
      vertex -201.649 -3.84062 0
      vertex -201.843 -3.24345 12
      vertex -201.843 -3.24345 0
    endloop
  endfacet
  facet normal -0.951072 -0.30897 0
    outer loop
      vertex -201.843 -3.24345 12
      vertex -201.649 -3.84062 0
      vertex -201.649 -3.84062 12
    endloop
  endfacet
  facet normal -0.905042 -0.425321 0
    outer loop
      vertex -201.382 -4.40877 0
      vertex -201.649 -3.84062 12
      vertex -201.649 -3.84062 0
    endloop
  endfacet
  facet normal -0.905042 -0.425321 0
    outer loop
      vertex -201.649 -3.84062 12
      vertex -201.382 -4.40877 0
      vertex -201.382 -4.40877 12
    endloop
  endfacet
  facet normal -0.770703 -0.637195 0
    outer loop
      vertex -200.645 -5.42274 0
      vertex -201.045 -4.93893 12
      vertex -201.045 -4.93893 0
    endloop
  endfacet
  facet normal -0.770703 -0.637195 0
    outer loop
      vertex -201.045 -4.93893 12
      vertex -200.645 -5.42274 0
      vertex -200.645 -5.42274 12
    endloop
  endfacet
  facet normal -0.248768 -0.968563 0
    outer loop
      vertex -198.545 -6.75528 0
      vertex -197.937 -6.91144 12
      vertex -198.545 -6.75528 12
    endloop
  endfacet
  facet normal -0.248768 -0.968563 -0
    outer loop
      vertex -197.937 -6.91144 12
      vertex -198.545 -6.75528 0
      vertex -197.937 -6.91144 0
    endloop
  endfacet
  facet normal -0.587771 -0.809027 0
    outer loop
      vertex -200.187 -5.85257 0
      vertex -199.679 -6.22164 12
      vertex -200.187 -5.85257 12
    endloop
  endfacet
  facet normal -0.587771 -0.809027 -0
    outer loop
      vertex -199.679 -6.22164 12
      vertex -200.187 -5.85257 0
      vertex -199.679 -6.22164 0
    endloop
  endfacet
  facet normal 0.998069 -0.0621135 0
    outer loop
      vertex 201.961 -2.62667 12
      vertex 202 -2 0
      vertex 202 -2 12
    endloop
  endfacet
  facet normal 0.998069 -0.0621135 0
    outer loop
      vertex 202 -2 0
      vertex 201.961 -2.62667 12
      vertex 201.961 -2.62667 0
    endloop
  endfacet
  facet normal 0.684327 -0.729176 0
    outer loop
      vertex 200.187 -5.85257 0
      vertex 200.645 -5.42274 12
      vertex 200.187 -5.85257 12
    endloop
  endfacet
  facet normal 0.684327 -0.729176 0
    outer loop
      vertex 200.645 -5.42274 12
      vertex 200.187 -5.85257 0
      vertex 200.645 -5.42274 0
    endloop
  endfacet
  facet normal 0.587771 -0.809027 0
    outer loop
      vertex 199.679 -6.22164 0
      vertex 200.187 -5.85257 12
      vertex 199.679 -6.22164 12
    endloop
  endfacet
  facet normal 0.587771 -0.809027 0
    outer loop
      vertex 200.187 -5.85257 12
      vertex 199.679 -6.22164 0
      vertex 200.187 -5.85257 0
    endloop
  endfacet
  facet normal 0.770703 -0.637195 0
    outer loop
      vertex 200.645 -5.42274 12
      vertex 201.045 -4.93893 0
      vertex 201.045 -4.93893 12
    endloop
  endfacet
  facet normal 0.770703 -0.637195 0
    outer loop
      vertex 201.045 -4.93893 0
      vertex 200.645 -5.42274 12
      vertex 200.645 -5.42274 0
    endloop
  endfacet
  facet normal 0.368026 -0.929816 0
    outer loop
      vertex 198.545 -6.75528 0
      vertex 199.129 -6.52413 12
      vertex 198.545 -6.75528 12
    endloop
  endfacet
  facet normal 0.368026 -0.929816 0
    outer loop
      vertex 199.129 -6.52413 12
      vertex 198.545 -6.75528 0
      vertex 199.129 -6.52413 0
    endloop
  endfacet
  facet normal 0.125313 -0.992117 0
    outer loop
      vertex 197.314 -6.99013 0
      vertex 197.937 -6.91144 12
      vertex 197.314 -6.99013 12
    endloop
  endfacet
  facet normal 0.125313 -0.992117 0
    outer loop
      vertex 197.937 -6.91144 12
      vertex 197.314 -6.99013 0
      vertex 197.937 -6.91144 0
    endloop
  endfacet
  facet normal 0.905042 0.425321 0
    outer loop
      vertex 201.649 3.84062 12
      vertex 201.382 4.40877 0
      vertex 201.382 4.40877 12
    endloop
  endfacet
  facet normal 0.905042 0.425321 0
    outer loop
      vertex 201.382 4.40877 0
      vertex 201.649 3.84062 12
      vertex 201.649 3.84062 0
    endloop
  endfacet
  facet normal 0.587771 0.809027 -0
    outer loop
      vertex 200.187 5.85257 0
      vertex 199.679 6.22164 12
      vertex 200.187 5.85257 12
    endloop
  endfacet
  facet normal 0.587771 0.809027 0
    outer loop
      vertex 199.679 6.22164 12
      vertex 200.187 5.85257 0
      vertex 199.679 6.22164 0
    endloop
  endfacet
  facet normal 0.481907 0.876223 -0
    outer loop
      vertex 199.679 6.22164 0
      vertex 199.129 6.52413 12
      vertex 199.679 6.22164 12
    endloop
  endfacet
  facet normal 0.481907 0.876223 0
    outer loop
      vertex 199.129 6.52413 12
      vertex 199.679 6.22164 0
      vertex 199.129 6.52413 0
    endloop
  endfacet
  facet normal -0.684327 0.729176 0
    outer loop
      vertex -200.187 5.85257 0
      vertex -200.645 5.42274 12
      vertex -200.187 5.85257 12
    endloop
  endfacet
  facet normal -0.684327 0.729176 0
    outer loop
      vertex -200.645 5.42274 12
      vertex -200.187 5.85257 0
      vertex -200.645 5.42274 0
    endloop
  endfacet
  facet normal -0.125313 0.992117 0
    outer loop
      vertex -197.314 6.99013 0
      vertex -197.937 6.91144 12
      vertex -197.314 6.99013 12
    endloop
  endfacet
  facet normal -0.125313 0.992117 0
    outer loop
      vertex -197.937 6.91144 12
      vertex -197.314 6.99013 0
      vertex -197.937 6.91144 0
    endloop
  endfacet
  facet normal -0.982187 0.187908 0
    outer loop
      vertex -201.961 2.62667 0
      vertex -201.843 3.24345 12
      vertex -201.843 3.24345 0
    endloop
  endfacet
  facet normal -0.982187 0.187908 0
    outer loop
      vertex -201.843 3.24345 12
      vertex -201.961 2.62667 0
      vertex -201.961 2.62667 12
    endloop
  endfacet
  facet normal -0.905042 0.425321 0
    outer loop
      vertex -201.649 3.84062 0
      vertex -201.382 4.40877 12
      vertex -201.382 4.40877 0
    endloop
  endfacet
  facet normal -0.905042 0.425321 0
    outer loop
      vertex -201.382 4.40877 12
      vertex -201.649 3.84062 0
      vertex -201.649 3.84062 12
    endloop
  endfacet
  facet normal -0.982187 -0.187908 0
    outer loop
      vertex -201.843 -3.24345 0
      vertex -201.961 -2.62667 12
      vertex -201.961 -2.62667 0
    endloop
  endfacet
  facet normal -0.982187 -0.187908 0
    outer loop
      vertex -201.961 -2.62667 12
      vertex -201.843 -3.24345 0
      vertex -201.843 -3.24345 12
    endloop
  endfacet
  facet normal -0.843931 -0.536451 0
    outer loop
      vertex -201.045 -4.93893 0
      vertex -201.382 -4.40877 12
      vertex -201.382 -4.40877 0
    endloop
  endfacet
  facet normal -0.843931 -0.536451 0
    outer loop
      vertex -201.382 -4.40877 12
      vertex -201.045 -4.93893 0
      vertex -201.045 -4.93893 12
    endloop
  endfacet
  facet normal 0.843931 -0.536451 0
    outer loop
      vertex 201.045 -4.93893 12
      vertex 201.382 -4.40877 0
      vertex 201.382 -4.40877 12
    endloop
  endfacet
  facet normal 0.843931 -0.536451 0
    outer loop
      vertex 201.382 -4.40877 0
      vertex 201.045 -4.93893 12
      vertex 201.045 -4.93893 0
    endloop
  endfacet
  facet normal 0.248768 -0.968563 0
    outer loop
      vertex 197.937 -6.91144 0
      vertex 198.545 -6.75528 12
      vertex 197.937 -6.91144 12
    endloop
  endfacet
  facet normal 0.248768 -0.968563 0
    outer loop
      vertex 198.545 -6.75528 12
      vertex 197.937 -6.91144 0
      vertex 198.545 -6.75528 0
    endloop
  endfacet
  facet normal 0.770703 0.637195 0
    outer loop
      vertex 201.045 4.93893 12
      vertex 200.645 5.42274 0
      vertex 200.645 5.42274 12
    endloop
  endfacet
  facet normal 0.770703 0.637195 0
    outer loop
      vertex 200.645 5.42274 0
      vertex 201.045 4.93893 12
      vertex 201.045 4.93893 0
    endloop
  endfacet
  facet normal -0.248768 0.968563 0
    outer loop
      vertex -197.937 6.91144 0
      vertex -198.545 6.75528 12
      vertex -197.937 6.91144 12
    endloop
  endfacet
  facet normal -0.248768 0.968563 0
    outer loop
      vertex -198.545 6.75528 12
      vertex -197.937 6.91144 0
      vertex -198.545 6.75528 0
    endloop
  endfacet
  facet normal -0.843931 0.536451 0
    outer loop
      vertex -201.382 4.40877 0
      vertex -201.045 4.93893 12
      vertex -201.045 4.93893 0
    endloop
  endfacet
  facet normal -0.843931 0.536451 0
    outer loop
      vertex -201.045 4.93893 12
      vertex -201.382 4.40877 0
      vertex -201.382 4.40877 12
    endloop
  endfacet
  facet normal -0.951072 0.30897 0
    outer loop
      vertex -201.843 3.24345 0
      vertex -201.649 3.84062 12
      vertex -201.649 3.84062 0
    endloop
  endfacet
  facet normal -0.951072 0.30897 0
    outer loop
      vertex -201.649 3.84062 12
      vertex -201.843 3.24345 0
      vertex -201.843 3.24345 12
    endloop
  endfacet
  facet normal 0.982187 0.187908 0
    outer loop
      vertex 201.961 2.62667 12
      vertex 201.843 3.24345 0
      vertex 201.843 3.24345 12
    endloop
  endfacet
  facet normal 0.982187 0.187908 0
    outer loop
      vertex 201.843 3.24345 0
      vertex 201.961 2.62667 12
      vertex 201.961 2.62667 0
    endloop
  endfacet
  facet normal 0.998069 0.0621135 0
    outer loop
      vertex 202 2 12
      vertex 201.961 2.62667 0
      vertex 201.961 2.62667 12
    endloop
  endfacet
  facet normal 0.998069 0.0621135 0
    outer loop
      vertex 201.961 2.62667 0
      vertex 202 2 12
      vertex 202 2 0
    endloop
  endfacet
  facet normal -0.587771 0.809027 0
    outer loop
      vertex -199.679 6.22164 0
      vertex -200.187 5.85257 12
      vertex -199.679 6.22164 12
    endloop
  endfacet
  facet normal -0.587771 0.809027 0
    outer loop
      vertex -200.187 5.85257 12
      vertex -199.679 6.22164 0
      vertex -200.187 5.85257 0
    endloop
  endfacet
  facet normal -0.481907 0.876223 0
    outer loop
      vertex -199.129 6.52413 0
      vertex -199.679 6.22164 12
      vertex -199.129 6.52413 12
    endloop
  endfacet
  facet normal -0.481907 0.876223 0
    outer loop
      vertex -199.679 6.22164 12
      vertex -199.129 6.52413 0
      vertex -199.679 6.22164 0
    endloop
  endfacet
endsolid OpenSCAD_Model
