  0
SECTION
  2
BLOCKS
  0
ENDSEC
  0
SECTION
  2
ENTITIES
  0
LINE
  8
0
 10
17.9369
 20
464.089
 11
18.5451
 21
464.245
  0
LINE
  8
0
 10
18.5451
 20
464.245
 11
19.1289
 21
464.476
  0
LINE
  8
0
 10
19.1289
 20
464.476
 11
19.6791
 21
464.778
  0
LINE
  8
0
 10
19.6791
 20
464.778
 11
20.1871
 21
465.147
  0
LINE
  8
0
 10
20.1871
 20
465.147
 11
20.6448
 21
465.577
  0
LINE
  8
0
 10
20.6448
 20
465.577
 11
21.0451
 21
466.061
  0
LINE
  8
0
 10
21.0451
 20
466.061
 11
21.3815
 21
466.591
  0
LINE
  8
0
 10
21.3815
 20
466.591
 11
21.6489
 21
467.159
  0
LINE
  8
0
 10
21.6489
 20
467.159
 11
21.8429
 21
467.757
  0
LINE
  8
0
 10
21.8429
 20
467.757
 11
21.9606
 21
468.373
  0
LINE
  8
0
 10
21.9606
 20
468.373
 11
22
 21
469
  0
LINE
  8
0
 10
22
 20
469
 11
22
 21
503
  0
LINE
  8
0
 10
22
 20
503
 11
21.9606
 21
503.627
  0
LINE
  8
0
 10
21.9606
 20
503.627
 11
21.8429
 21
504.243
  0
LINE
  8
0
 10
21.8429
 20
504.243
 11
21.6489
 21
504.841
  0
LINE
  8
0
 10
21.6489
 20
504.841
 11
21.3815
 21
505.409
  0
LINE
  8
0
 10
21.3815
 20
505.409
 11
21.0451
 21
505.939
  0
LINE
  8
0
 10
21.0451
 20
505.939
 11
20.6448
 21
506.423
  0
LINE
  8
0
 10
20.6448
 20
506.423
 11
20.1871
 21
506.853
  0
LINE
  8
0
 10
20.1871
 20
506.853
 11
19.6791
 21
507.222
  0
LINE
  8
0
 10
19.6791
 20
507.222
 11
19.1289
 21
507.524
  0
LINE
  8
0
 10
19.1289
 20
507.524
 11
18.5451
 21
507.755
  0
LINE
  8
0
 10
18.5451
 20
507.755
 11
17.9369
 21
507.911
  0
LINE
  8
0
 10
17.9369
 20
507.911
 11
17.3139
 21
507.99
  0
LINE
  8
0
 10
17.3139
 20
507.99
 11
-17.3139
 21
507.99
  0
LINE
  8
0
 10
-17.3139
 20
507.99
 11
-17.9369
 21
507.911
  0
LINE
  8
0
 10
-17.9369
 20
507.911
 11
-18.5451
 21
507.755
  0
LINE
  8
0
 10
-18.5451
 20
507.755
 11
-19.1289
 21
507.524
  0
LINE
  8
0
 10
-19.1289
 20
507.524
 11
-19.6791
 21
507.222
  0
LINE
  8
0
 10
-19.6791
 20
507.222
 11
-20.1871
 21
506.853
  0
LINE
  8
0
 10
-20.1871
 20
506.853
 11
-20.6448
 21
506.423
  0
LINE
  8
0
 10
-20.6448
 20
506.423
 11
-21.0451
 21
505.939
  0
LINE
  8
0
 10
-21.0451
 20
505.939
 11
-21.3815
 21
505.409
  0
LINE
  8
0
 10
-21.3815
 20
505.409
 11
-21.6489
 21
504.841
  0
LINE
  8
0
 10
-21.6489
 20
504.841
 11
-21.8429
 21
504.243
  0
LINE
  8
0
 10
-21.8429
 20
504.243
 11
-21.9606
 21
503.627
  0
LINE
  8
0
 10
-21.9606
 20
503.627
 11
-22
 21
503
  0
LINE
  8
0
 10
-22
 20
503
 11
-22
 21
469
  0
LINE
  8
0
 10
-22
 20
469
 11
-21.9606
 21
468.373
  0
LINE
  8
0
 10
-21.9606
 20
468.373
 11
-21.8429
 21
467.757
  0
LINE
  8
0
 10
-21.8429
 20
467.757
 11
-21.6489
 21
467.159
  0
LINE
  8
0
 10
-21.6489
 20
467.159
 11
-21.3815
 21
466.591
  0
LINE
  8
0
 10
-21.3815
 20
466.591
 11
-21.0451
 21
466.061
  0
LINE
  8
0
 10
-21.0451
 20
466.061
 11
-20.6448
 21
465.577
  0
LINE
  8
0
 10
-20.6448
 20
465.577
 11
-20.1871
 21
465.147
  0
LINE
  8
0
 10
-20.1871
 20
465.147
 11
-19.6791
 21
464.778
  0
LINE
  8
0
 10
-19.6791
 20
464.778
 11
-19.1289
 21
464.476
  0
LINE
  8
0
 10
-19.1289
 20
464.476
 11
-18.5451
 21
464.245
  0
LINE
  8
0
 10
-18.5451
 20
464.245
 11
-17.9369
 21
464.089
  0
LINE
  8
0
 10
-17.9369
 20
464.089
 11
-17.3139
 21
464.01
  0
LINE
  8
0
 10
-17.3139
 20
464.01
 11
17.3139
 21
464.01
  0
LINE
  8
0
 10
17.3139
 20
464.01
 11
17.9369
 21
464.089
  0
LINE
  8
0
 10
-15.1884
 20
498.006
 11
-15.5621
 21
498.053
  0
LINE
  8
0
 10
-15.5621
 20
498.053
 11
-15.927
 21
498.147
  0
LINE
  8
0
 10
-15.927
 20
498.147
 11
-16.2773
 21
498.286
  0
LINE
  8
0
 10
-16.2773
 20
498.286
 11
-16.6075
 21
498.467
  0
LINE
  8
0
 10
-16.6075
 20
498.467
 11
-16.9123
 21
498.688
  0
LINE
  8
0
 10
-16.9123
 20
498.688
 11
-17.1869
 21
498.946
  0
LINE
  8
0
 10
-17.1869
 20
498.946
 11
-17.427
 21
499.237
  0
LINE
  8
0
 10
-17.427
 20
499.237
 11
-17.6289
 21
499.555
  0
LINE
  8
0
 10
-17.6289
 20
499.555
 11
-17.7893
 21
499.896
  0
LINE
  8
0
 10
-17.7893
 20
499.896
 11
-17.9057
 21
500.254
  0
LINE
  8
0
 10
-17.9057
 20
500.254
 11
-17.9763
 21
500.624
  0
LINE
  8
0
 10
-17.9763
 20
500.624
 11
-18
 21
501
  0
LINE
  8
0
 10
-18
 20
501
 11
-17.9763
 21
501.376
  0
LINE
  8
0
 10
-17.9763
 20
501.376
 11
-17.9057
 21
501.746
  0
LINE
  8
0
 10
-17.9057
 20
501.746
 11
-17.7893
 21
502.104
  0
LINE
  8
0
 10
-17.7893
 20
502.104
 11
-17.6289
 21
502.445
  0
LINE
  8
0
 10
-17.6289
 20
502.445
 11
-17.427
 21
502.763
  0
LINE
  8
0
 10
-17.427
 20
502.763
 11
-17.1869
 21
503.054
  0
LINE
  8
0
 10
-17.1869
 20
503.054
 11
-16.9123
 21
503.312
  0
LINE
  8
0
 10
-16.9123
 20
503.312
 11
-16.6075
 21
503.533
  0
LINE
  8
0
 10
-16.6075
 20
503.533
 11
-16.2773
 21
503.714
  0
LINE
  8
0
 10
-16.2773
 20
503.714
 11
-15.927
 21
503.853
  0
LINE
  8
0
 10
-15.927
 20
503.853
 11
-15.5621
 21
503.947
  0
LINE
  8
0
 10
-15.5621
 20
503.947
 11
-15.1884
 21
503.994
  0
LINE
  8
0
 10
-15.1884
 20
503.994
 11
-14.8116
 21
503.994
  0
LINE
  8
0
 10
-14.8116
 20
503.994
 11
-14.4379
 21
503.947
  0
LINE
  8
0
 10
-14.4379
 20
503.947
 11
-14.0729
 21
503.853
  0
LINE
  8
0
 10
-14.0729
 20
503.853
 11
-13.7227
 21
503.714
  0
LINE
  8
0
 10
-13.7227
 20
503.714
 11
-13.3925
 21
503.533
  0
LINE
  8
0
 10
-13.3925
 20
503.533
 11
-13.0877
 21
503.312
  0
LINE
  8
0
 10
-13.0877
 20
503.312
 11
-12.8131
 21
503.054
  0
LINE
  8
0
 10
-12.8131
 20
503.054
 11
-12.5729
 21
502.763
  0
LINE
  8
0
 10
-12.5729
 20
502.763
 11
-12.3711
 21
502.445
  0
LINE
  8
0
 10
-12.3711
 20
502.445
 11
-12.2107
 21
502.104
  0
LINE
  8
0
 10
-12.2107
 20
502.104
 11
-12.0942
 21
501.746
  0
LINE
  8
0
 10
-12.0942
 20
501.746
 11
-12.0237
 21
501.376
  0
LINE
  8
0
 10
-12.0237
 20
501.376
 11
-12
 21
501
  0
LINE
  8
0
 10
-12
 20
501
 11
-12.0237
 21
500.624
  0
LINE
  8
0
 10
-12.0237
 20
500.624
 11
-12.0942
 21
500.254
  0
LINE
  8
0
 10
-12.0942
 20
500.254
 11
-12.2107
 21
499.896
  0
LINE
  8
0
 10
-12.2107
 20
499.896
 11
-12.3711
 21
499.555
  0
LINE
  8
0
 10
-12.3711
 20
499.555
 11
-12.5729
 21
499.237
  0
LINE
  8
0
 10
-12.5729
 20
499.237
 11
-12.8131
 21
498.946
  0
LINE
  8
0
 10
-12.8131
 20
498.946
 11
-13.0877
 21
498.688
  0
LINE
  8
0
 10
-13.0877
 20
498.688
 11
-13.3925
 21
498.467
  0
LINE
  8
0
 10
-13.3925
 20
498.467
 11
-13.7227
 21
498.286
  0
LINE
  8
0
 10
-13.7227
 20
498.286
 11
-14.0729
 21
498.147
  0
LINE
  8
0
 10
-14.0729
 20
498.147
 11
-14.4379
 21
498.053
  0
LINE
  8
0
 10
-14.4379
 20
498.053
 11
-14.8116
 21
498.006
  0
LINE
  8
0
 10
-14.8116
 20
498.006
 11
-15.1884
 21
498.006
  0
LINE
  8
0
 10
-15.0942
 20
492.003
 11
-15.2811
 21
492.027
  0
LINE
  8
0
 10
-15.2811
 20
492.027
 11
-15.4635
 21
492.073
  0
LINE
  8
0
 10
-15.4635
 20
492.073
 11
-15.6387
 21
492.143
  0
LINE
  8
0
 10
-15.6387
 20
492.143
 11
-15.8037
 21
492.234
  0
LINE
  8
0
 10
-15.8037
 20
492.234
 11
-15.9561
 21
492.344
  0
LINE
  8
0
 10
-15.9561
 20
492.344
 11
-16.0934
 21
492.473
  0
LINE
  8
0
 10
-16.0934
 20
492.473
 11
-16.2135
 21
492.618
  0
LINE
  8
0
 10
-16.2135
 20
492.618
 11
-16.3145
 21
492.777
  0
LINE
  8
0
 10
-16.3145
 20
492.777
 11
-16.3947
 21
492.948
  0
LINE
  8
0
 10
-16.3947
 20
492.948
 11
-16.4529
 21
493.127
  0
LINE
  8
0
 10
-16.4529
 20
493.127
 11
-16.4882
 21
493.312
  0
LINE
  8
0
 10
-16.4882
 20
493.312
 11
-16.5
 21
493.5
  0
LINE
  8
0
 10
-16.5
 20
493.5
 11
-16.4882
 21
493.688
  0
LINE
  8
0
 10
-16.4882
 20
493.688
 11
-16.4529
 21
493.873
  0
LINE
  8
0
 10
-16.4529
 20
493.873
 11
-16.3947
 21
494.052
  0
LINE
  8
0
 10
-16.3947
 20
494.052
 11
-16.3145
 21
494.223
  0
LINE
  8
0
 10
-16.3145
 20
494.223
 11
-16.2135
 21
494.382
  0
LINE
  8
0
 10
-16.2135
 20
494.382
 11
-16.0934
 21
494.527
  0
LINE
  8
0
 10
-16.0934
 20
494.527
 11
-15.9561
 21
494.656
  0
LINE
  8
0
 10
-15.9561
 20
494.656
 11
-15.8037
 21
494.766
  0
LINE
  8
0
 10
-15.8037
 20
494.766
 11
-15.6387
 21
494.857
  0
LINE
  8
0
 10
-15.6387
 20
494.857
 11
-15.4635
 21
494.927
  0
LINE
  8
0
 10
-15.4635
 20
494.927
 11
-15.2811
 21
494.973
  0
LINE
  8
0
 10
-15.2811
 20
494.973
 11
-15.0942
 21
494.997
  0
LINE
  8
0
 10
-15.0942
 20
494.997
 11
-14.9058
 21
494.997
  0
LINE
  8
0
 10
-14.9058
 20
494.997
 11
-14.7189
 21
494.973
  0
LINE
  8
0
 10
-14.7189
 20
494.973
 11
-14.5365
 21
494.927
  0
LINE
  8
0
 10
-14.5365
 20
494.927
 11
-14.3613
 21
494.857
  0
LINE
  8
0
 10
-14.3613
 20
494.857
 11
-14.1963
 21
494.766
  0
LINE
  8
0
 10
-14.1963
 20
494.766
 11
-14.0439
 21
494.656
  0
LINE
  8
0
 10
-14.0439
 20
494.656
 11
-13.9065
 21
494.527
  0
LINE
  8
0
 10
-13.9065
 20
494.527
 11
-13.7865
 21
494.382
  0
LINE
  8
0
 10
-13.7865
 20
494.382
 11
-13.6855
 21
494.223
  0
LINE
  8
0
 10
-13.6855
 20
494.223
 11
-13.6053
 21
494.052
  0
LINE
  8
0
 10
-13.6053
 20
494.052
 11
-13.5471
 21
493.873
  0
LINE
  8
0
 10
-13.5471
 20
493.873
 11
-13.5118
 21
493.688
  0
LINE
  8
0
 10
-13.5118
 20
493.688
 11
-13.5
 21
493.5
  0
LINE
  8
0
 10
-13.5
 20
493.5
 11
-13.5118
 21
493.312
  0
LINE
  8
0
 10
-13.5118
 20
493.312
 11
-13.5471
 21
493.127
  0
LINE
  8
0
 10
-13.5471
 20
493.127
 11
-13.6053
 21
492.948
  0
LINE
  8
0
 10
-13.6053
 20
492.948
 11
-13.6855
 21
492.777
  0
LINE
  8
0
 10
-13.6855
 20
492.777
 11
-13.7865
 21
492.618
  0
LINE
  8
0
 10
-13.7865
 20
492.618
 11
-13.9065
 21
492.473
  0
LINE
  8
0
 10
-13.9065
 20
492.473
 11
-14.0439
 21
492.344
  0
LINE
  8
0
 10
-14.0439
 20
492.344
 11
-14.1963
 21
492.234
  0
LINE
  8
0
 10
-14.1963
 20
492.234
 11
-14.3613
 21
492.143
  0
LINE
  8
0
 10
-14.3613
 20
492.143
 11
-14.5365
 21
492.073
  0
LINE
  8
0
 10
-14.5365
 20
492.073
 11
-14.7189
 21
492.027
  0
LINE
  8
0
 10
-14.7189
 20
492.027
 11
-14.9058
 21
492.003
  0
LINE
  8
0
 10
-14.9058
 20
492.003
 11
-15.0942
 21
492.003
  0
LINE
  8
0
 10
-15.1884
 20
483.006
 11
-15.5621
 21
483.053
  0
LINE
  8
0
 10
-15.5621
 20
483.053
 11
-15.927
 21
483.147
  0
LINE
  8
0
 10
-15.927
 20
483.147
 11
-16.2773
 21
483.286
  0
LINE
  8
0
 10
-16.2773
 20
483.286
 11
-16.6075
 21
483.467
  0
LINE
  8
0
 10
-16.6075
 20
483.467
 11
-16.9123
 21
483.688
  0
LINE
  8
0
 10
-16.9123
 20
483.688
 11
-17.1869
 21
483.946
  0
LINE
  8
0
 10
-17.1869
 20
483.946
 11
-17.427
 21
484.237
  0
LINE
  8
0
 10
-17.427
 20
484.237
 11
-17.6289
 21
484.555
  0
LINE
  8
0
 10
-17.6289
 20
484.555
 11
-17.7893
 21
484.896
  0
LINE
  8
0
 10
-17.7893
 20
484.896
 11
-17.9057
 21
485.254
  0
LINE
  8
0
 10
-17.9057
 20
485.254
 11
-17.9763
 21
485.624
  0
LINE
  8
0
 10
-17.9763
 20
485.624
 11
-18
 21
486
  0
LINE
  8
0
 10
-18
 20
486
 11
-17.9763
 21
486.376
  0
LINE
  8
0
 10
-17.9763
 20
486.376
 11
-17.9057
 21
486.746
  0
LINE
  8
0
 10
-17.9057
 20
486.746
 11
-17.7893
 21
487.104
  0
LINE
  8
0
 10
-17.7893
 20
487.104
 11
-17.6289
 21
487.445
  0
LINE
  8
0
 10
-17.6289
 20
487.445
 11
-17.427
 21
487.763
  0
LINE
  8
0
 10
-17.427
 20
487.763
 11
-17.1869
 21
488.054
  0
LINE
  8
0
 10
-17.1869
 20
488.054
 11
-16.9123
 21
488.312
  0
LINE
  8
0
 10
-16.9123
 20
488.312
 11
-16.6075
 21
488.533
  0
LINE
  8
0
 10
-16.6075
 20
488.533
 11
-16.2773
 21
488.714
  0
LINE
  8
0
 10
-16.2773
 20
488.714
 11
-15.927
 21
488.853
  0
LINE
  8
0
 10
-15.927
 20
488.853
 11
-15.5621
 21
488.947
  0
LINE
  8
0
 10
-15.5621
 20
488.947
 11
-15.1884
 21
488.994
  0
LINE
  8
0
 10
-15.1884
 20
488.994
 11
-14.8116
 21
488.994
  0
LINE
  8
0
 10
-14.8116
 20
488.994
 11
-14.4379
 21
488.947
  0
LINE
  8
0
 10
-14.4379
 20
488.947
 11
-14.0729
 21
488.853
  0
LINE
  8
0
 10
-14.0729
 20
488.853
 11
-13.7227
 21
488.714
  0
LINE
  8
0
 10
-13.7227
 20
488.714
 11
-13.3925
 21
488.533
  0
LINE
  8
0
 10
-13.3925
 20
488.533
 11
-13.0877
 21
488.312
  0
LINE
  8
0
 10
-13.0877
 20
488.312
 11
-12.8131
 21
488.054
  0
LINE
  8
0
 10
-12.8131
 20
488.054
 11
-12.5729
 21
487.763
  0
LINE
  8
0
 10
-12.5729
 20
487.763
 11
-12.3711
 21
487.445
  0
LINE
  8
0
 10
-12.3711
 20
487.445
 11
-12.2107
 21
487.104
  0
LINE
  8
0
 10
-12.2107
 20
487.104
 11
-12.0942
 21
486.746
  0
LINE
  8
0
 10
-12.0942
 20
486.746
 11
-12.0237
 21
486.376
  0
LINE
  8
0
 10
-12.0237
 20
486.376
 11
-12
 21
486
  0
LINE
  8
0
 10
-12
 20
486
 11
-12.0237
 21
485.624
  0
LINE
  8
0
 10
-12.0237
 20
485.624
 11
-12.0942
 21
485.254
  0
LINE
  8
0
 10
-12.0942
 20
485.254
 11
-12.2107
 21
484.896
  0
LINE
  8
0
 10
-12.2107
 20
484.896
 11
-12.3711
 21
484.555
  0
LINE
  8
0
 10
-12.3711
 20
484.555
 11
-12.5729
 21
484.237
  0
LINE
  8
0
 10
-12.5729
 20
484.237
 11
-12.8131
 21
483.946
  0
LINE
  8
0
 10
-12.8131
 20
483.946
 11
-13.0877
 21
483.688
  0
LINE
  8
0
 10
-13.0877
 20
483.688
 11
-13.3925
 21
483.467
  0
LINE
  8
0
 10
-13.3925
 20
483.467
 11
-13.7227
 21
483.286
  0
LINE
  8
0
 10
-13.7227
 20
483.286
 11
-14.0729
 21
483.147
  0
LINE
  8
0
 10
-14.0729
 20
483.147
 11
-14.4379
 21
483.053
  0
LINE
  8
0
 10
-14.4379
 20
483.053
 11
-14.8116
 21
483.006
  0
LINE
  8
0
 10
-14.8116
 20
483.006
 11
-15.1884
 21
483.006
  0
LINE
  8
0
 10
-15.0942
 20
477.003
 11
-15.2811
 21
477.027
  0
LINE
  8
0
 10
-15.2811
 20
477.027
 11
-15.4635
 21
477.073
  0
LINE
  8
0
 10
-15.4635
 20
477.073
 11
-15.6387
 21
477.143
  0
LINE
  8
0
 10
-15.6387
 20
477.143
 11
-15.8037
 21
477.234
  0
LINE
  8
0
 10
-15.8037
 20
477.234
 11
-15.9561
 21
477.344
  0
LINE
  8
0
 10
-15.9561
 20
477.344
 11
-16.0934
 21
477.473
  0
LINE
  8
0
 10
-16.0934
 20
477.473
 11
-16.2135
 21
477.618
  0
LINE
  8
0
 10
-16.2135
 20
477.618
 11
-16.3145
 21
477.777
  0
LINE
  8
0
 10
-16.3145
 20
477.777
 11
-16.3947
 21
477.948
  0
LINE
  8
0
 10
-16.3947
 20
477.948
 11
-16.4529
 21
478.127
  0
LINE
  8
0
 10
-16.4529
 20
478.127
 11
-16.4882
 21
478.312
  0
LINE
  8
0
 10
-16.4882
 20
478.312
 11
-16.5
 21
478.5
  0
LINE
  8
0
 10
-16.5
 20
478.5
 11
-16.4882
 21
478.688
  0
LINE
  8
0
 10
-16.4882
 20
478.688
 11
-16.4529
 21
478.873
  0
LINE
  8
0
 10
-16.4529
 20
478.873
 11
-16.3947
 21
479.052
  0
LINE
  8
0
 10
-16.3947
 20
479.052
 11
-16.3145
 21
479.223
  0
LINE
  8
0
 10
-16.3145
 20
479.223
 11
-16.2135
 21
479.382
  0
LINE
  8
0
 10
-16.2135
 20
479.382
 11
-16.0934
 21
479.527
  0
LINE
  8
0
 10
-16.0934
 20
479.527
 11
-15.9561
 21
479.656
  0
LINE
  8
0
 10
-15.9561
 20
479.656
 11
-15.8037
 21
479.766
  0
LINE
  8
0
 10
-15.8037
 20
479.766
 11
-15.6387
 21
479.857
  0
LINE
  8
0
 10
-15.6387
 20
479.857
 11
-15.4635
 21
479.927
  0
LINE
  8
0
 10
-15.4635
 20
479.927
 11
-15.2811
 21
479.973
  0
LINE
  8
0
 10
-15.2811
 20
479.973
 11
-15.0942
 21
479.997
  0
LINE
  8
0
 10
-15.0942
 20
479.997
 11
-14.9058
 21
479.997
  0
LINE
  8
0
 10
-14.9058
 20
479.997
 11
-14.7189
 21
479.973
  0
LINE
  8
0
 10
-14.7189
 20
479.973
 11
-14.5365
 21
479.927
  0
LINE
  8
0
 10
-14.5365
 20
479.927
 11
-14.3613
 21
479.857
  0
LINE
  8
0
 10
-14.3613
 20
479.857
 11
-14.1963
 21
479.766
  0
LINE
  8
0
 10
-14.1963
 20
479.766
 11
-14.0439
 21
479.656
  0
LINE
  8
0
 10
-14.0439
 20
479.656
 11
-13.9065
 21
479.527
  0
LINE
  8
0
 10
-13.9065
 20
479.527
 11
-13.7865
 21
479.382
  0
LINE
  8
0
 10
-13.7865
 20
479.382
 11
-13.6855
 21
479.223
  0
LINE
  8
0
 10
-13.6855
 20
479.223
 11
-13.6053
 21
479.052
  0
LINE
  8
0
 10
-13.6053
 20
479.052
 11
-13.5471
 21
478.873
  0
LINE
  8
0
 10
-13.5471
 20
478.873
 11
-13.5118
 21
478.688
  0
LINE
  8
0
 10
-13.5118
 20
478.688
 11
-13.5
 21
478.5
  0
LINE
  8
0
 10
-13.5
 20
478.5
 11
-13.5118
 21
478.312
  0
LINE
  8
0
 10
-13.5118
 20
478.312
 11
-13.5471
 21
478.127
  0
LINE
  8
0
 10
-13.5471
 20
478.127
 11
-13.6053
 21
477.948
  0
LINE
  8
0
 10
-13.6053
 20
477.948
 11
-13.6855
 21
477.777
  0
LINE
  8
0
 10
-13.6855
 20
477.777
 11
-13.7865
 21
477.618
  0
LINE
  8
0
 10
-13.7865
 20
477.618
 11
-13.9065
 21
477.473
  0
LINE
  8
0
 10
-13.9065
 20
477.473
 11
-14.0439
 21
477.344
  0
LINE
  8
0
 10
-14.0439
 20
477.344
 11
-14.1963
 21
477.234
  0
LINE
  8
0
 10
-14.1963
 20
477.234
 11
-14.3613
 21
477.143
  0
LINE
  8
0
 10
-14.3613
 20
477.143
 11
-14.5365
 21
477.073
  0
LINE
  8
0
 10
-14.5365
 20
477.073
 11
-14.7189
 21
477.027
  0
LINE
  8
0
 10
-14.7189
 20
477.027
 11
-14.9058
 21
477.003
  0
LINE
  8
0
 10
-14.9058
 20
477.003
 11
-15.0942
 21
477.003
  0
LINE
  8
0
 10
-15.1884
 20
468.006
 11
-15.5621
 21
468.053
  0
LINE
  8
0
 10
-15.5621
 20
468.053
 11
-15.927
 21
468.147
  0
LINE
  8
0
 10
-15.927
 20
468.147
 11
-16.2773
 21
468.286
  0
LINE
  8
0
 10
-16.2773
 20
468.286
 11
-16.6075
 21
468.467
  0
LINE
  8
0
 10
-16.6075
 20
468.467
 11
-16.9123
 21
468.688
  0
LINE
  8
0
 10
-16.9123
 20
468.688
 11
-17.1869
 21
468.946
  0
LINE
  8
0
 10
-17.1869
 20
468.946
 11
-17.427
 21
469.237
  0
LINE
  8
0
 10
-17.427
 20
469.237
 11
-17.6289
 21
469.555
  0
LINE
  8
0
 10
-17.6289
 20
469.555
 11
-17.7893
 21
469.896
  0
LINE
  8
0
 10
-17.7893
 20
469.896
 11
-17.9057
 21
470.254
  0
LINE
  8
0
 10
-17.9057
 20
470.254
 11
-17.9763
 21
470.624
  0
LINE
  8
0
 10
-17.9763
 20
470.624
 11
-18
 21
471
  0
LINE
  8
0
 10
-18
 20
471
 11
-17.9763
 21
471.376
  0
LINE
  8
0
 10
-17.9763
 20
471.376
 11
-17.9057
 21
471.746
  0
LINE
  8
0
 10
-17.9057
 20
471.746
 11
-17.7893
 21
472.104
  0
LINE
  8
0
 10
-17.7893
 20
472.104
 11
-17.6289
 21
472.445
  0
LINE
  8
0
 10
-17.6289
 20
472.445
 11
-17.427
 21
472.763
  0
LINE
  8
0
 10
-17.427
 20
472.763
 11
-17.1869
 21
473.054
  0
LINE
  8
0
 10
-17.1869
 20
473.054
 11
-16.9123
 21
473.312
  0
LINE
  8
0
 10
-16.9123
 20
473.312
 11
-16.6075
 21
473.533
  0
LINE
  8
0
 10
-16.6075
 20
473.533
 11
-16.2773
 21
473.714
  0
LINE
  8
0
 10
-16.2773
 20
473.714
 11
-15.927
 21
473.853
  0
LINE
  8
0
 10
-15.927
 20
473.853
 11
-15.5621
 21
473.947
  0
LINE
  8
0
 10
-15.5621
 20
473.947
 11
-15.1884
 21
473.994
  0
LINE
  8
0
 10
-15.1884
 20
473.994
 11
-14.8116
 21
473.994
  0
LINE
  8
0
 10
-14.8116
 20
473.994
 11
-14.4379
 21
473.947
  0
LINE
  8
0
 10
-14.4379
 20
473.947
 11
-14.0729
 21
473.853
  0
LINE
  8
0
 10
-14.0729
 20
473.853
 11
-13.7227
 21
473.714
  0
LINE
  8
0
 10
-13.7227
 20
473.714
 11
-13.3925
 21
473.533
  0
LINE
  8
0
 10
-13.3925
 20
473.533
 11
-13.0877
 21
473.312
  0
LINE
  8
0
 10
-13.0877
 20
473.312
 11
-12.8131
 21
473.054
  0
LINE
  8
0
 10
-12.8131
 20
473.054
 11
-12.5729
 21
472.763
  0
LINE
  8
0
 10
-12.5729
 20
472.763
 11
-12.3711
 21
472.445
  0
LINE
  8
0
 10
-12.3711
 20
472.445
 11
-12.2107
 21
472.104
  0
LINE
  8
0
 10
-12.2107
 20
472.104
 11
-12.0942
 21
471.746
  0
LINE
  8
0
 10
-12.0942
 20
471.746
 11
-12.0237
 21
471.376
  0
LINE
  8
0
 10
-12.0237
 20
471.376
 11
-12
 21
471
  0
LINE
  8
0
 10
-12
 20
471
 11
-12.0237
 21
470.624
  0
LINE
  8
0
 10
-12.0237
 20
470.624
 11
-12.0942
 21
470.254
  0
LINE
  8
0
 10
-12.0942
 20
470.254
 11
-12.2107
 21
469.896
  0
LINE
  8
0
 10
-12.2107
 20
469.896
 11
-12.3711
 21
469.555
  0
LINE
  8
0
 10
-12.3711
 20
469.555
 11
-12.5729
 21
469.237
  0
LINE
  8
0
 10
-12.5729
 20
469.237
 11
-12.8131
 21
468.946
  0
LINE
  8
0
 10
-12.8131
 20
468.946
 11
-13.0877
 21
468.688
  0
LINE
  8
0
 10
-13.0877
 20
468.688
 11
-13.3925
 21
468.467
  0
LINE
  8
0
 10
-13.3925
 20
468.467
 11
-13.7227
 21
468.286
  0
LINE
  8
0
 10
-13.7227
 20
468.286
 11
-14.0729
 21
468.147
  0
LINE
  8
0
 10
-14.0729
 20
468.147
 11
-14.4379
 21
468.053
  0
LINE
  8
0
 10
-14.4379
 20
468.053
 11
-14.8116
 21
468.006
  0
LINE
  8
0
 10
-14.8116
 20
468.006
 11
-15.1884
 21
468.006
  0
LINE
  8
0
 10
17.9369
 20
410.089
 11
18.5451
 21
410.245
  0
LINE
  8
0
 10
18.5451
 20
410.245
 11
19.1289
 21
410.476
  0
LINE
  8
0
 10
19.1289
 20
410.476
 11
19.6791
 21
410.778
  0
LINE
  8
0
 10
19.6791
 20
410.778
 11
20.1871
 21
411.147
  0
LINE
  8
0
 10
20.1871
 20
411.147
 11
20.6448
 21
411.577
  0
LINE
  8
0
 10
20.6448
 20
411.577
 11
21.0451
 21
412.061
  0
LINE
  8
0
 10
21.0451
 20
412.061
 11
21.3815
 21
412.591
  0
LINE
  8
0
 10
21.3815
 20
412.591
 11
21.6489
 21
413.159
  0
LINE
  8
0
 10
21.6489
 20
413.159
 11
21.8429
 21
413.757
  0
LINE
  8
0
 10
21.8429
 20
413.757
 11
21.9606
 21
414.373
  0
LINE
  8
0
 10
21.9606
 20
414.373
 11
22
 21
415
  0
LINE
  8
0
 10
22
 20
415
 11
22
 21
449
  0
LINE
  8
0
 10
22
 20
449
 11
21.9606
 21
449.627
  0
LINE
  8
0
 10
21.9606
 20
449.627
 11
21.8429
 21
450.243
  0
LINE
  8
0
 10
21.8429
 20
450.243
 11
21.6489
 21
450.841
  0
LINE
  8
0
 10
21.6489
 20
450.841
 11
21.3815
 21
451.409
  0
LINE
  8
0
 10
21.3815
 20
451.409
 11
21.0451
 21
451.939
  0
LINE
  8
0
 10
21.0451
 20
451.939
 11
20.6448
 21
452.423
  0
LINE
  8
0
 10
20.6448
 20
452.423
 11
20.1871
 21
452.853
  0
LINE
  8
0
 10
20.1871
 20
452.853
 11
19.6791
 21
453.222
  0
LINE
  8
0
 10
19.6791
 20
453.222
 11
19.1289
 21
453.524
  0
LINE
  8
0
 10
19.1289
 20
453.524
 11
18.5451
 21
453.755
  0
LINE
  8
0
 10
18.5451
 20
453.755
 11
17.9369
 21
453.911
  0
LINE
  8
0
 10
17.9369
 20
453.911
 11
17.3139
 21
453.99
  0
LINE
  8
0
 10
17.3139
 20
453.99
 11
-17.3139
 21
453.99
  0
LINE
  8
0
 10
-17.3139
 20
453.99
 11
-17.9369
 21
453.911
  0
LINE
  8
0
 10
-17.9369
 20
453.911
 11
-18.5451
 21
453.755
  0
LINE
  8
0
 10
-18.5451
 20
453.755
 11
-19.1289
 21
453.524
  0
LINE
  8
0
 10
-19.1289
 20
453.524
 11
-19.6791
 21
453.222
  0
LINE
  8
0
 10
-19.6791
 20
453.222
 11
-20.1871
 21
452.853
  0
LINE
  8
0
 10
-20.1871
 20
452.853
 11
-20.6448
 21
452.423
  0
LINE
  8
0
 10
-20.6448
 20
452.423
 11
-21.0451
 21
451.939
  0
LINE
  8
0
 10
-21.0451
 20
451.939
 11
-21.3815
 21
451.409
  0
LINE
  8
0
 10
-21.3815
 20
451.409
 11
-21.6489
 21
450.841
  0
LINE
  8
0
 10
-21.6489
 20
450.841
 11
-21.8429
 21
450.243
  0
LINE
  8
0
 10
-21.8429
 20
450.243
 11
-21.9606
 21
449.627
  0
LINE
  8
0
 10
-21.9606
 20
449.627
 11
-22
 21
449
  0
LINE
  8
0
 10
-22
 20
449
 11
-22
 21
415
  0
LINE
  8
0
 10
-22
 20
415
 11
-21.9606
 21
414.373
  0
LINE
  8
0
 10
-21.9606
 20
414.373
 11
-21.8429
 21
413.757
  0
LINE
  8
0
 10
-21.8429
 20
413.757
 11
-21.6489
 21
413.159
  0
LINE
  8
0
 10
-21.6489
 20
413.159
 11
-21.3815
 21
412.591
  0
LINE
  8
0
 10
-21.3815
 20
412.591
 11
-21.0451
 21
412.061
  0
LINE
  8
0
 10
-21.0451
 20
412.061
 11
-20.6448
 21
411.577
  0
LINE
  8
0
 10
-20.6448
 20
411.577
 11
-20.1871
 21
411.147
  0
LINE
  8
0
 10
-20.1871
 20
411.147
 11
-19.6791
 21
410.778
  0
LINE
  8
0
 10
-19.6791
 20
410.778
 11
-19.1289
 21
410.476
  0
LINE
  8
0
 10
-19.1289
 20
410.476
 11
-18.5451
 21
410.245
  0
LINE
  8
0
 10
-18.5451
 20
410.245
 11
-17.9369
 21
410.089
  0
LINE
  8
0
 10
-17.9369
 20
410.089
 11
-17.3139
 21
410.01
  0
LINE
  8
0
 10
-17.3139
 20
410.01
 11
17.3139
 21
410.01
  0
LINE
  8
0
 10
17.3139
 20
410.01
 11
17.9369
 21
410.089
  0
LINE
  8
0
 10
-15.1884
 20
444.006
 11
-15.5621
 21
444.053
  0
LINE
  8
0
 10
-15.5621
 20
444.053
 11
-15.927
 21
444.147
  0
LINE
  8
0
 10
-15.927
 20
444.147
 11
-16.2773
 21
444.286
  0
LINE
  8
0
 10
-16.2773
 20
444.286
 11
-16.6075
 21
444.467
  0
LINE
  8
0
 10
-16.6075
 20
444.467
 11
-16.9123
 21
444.688
  0
LINE
  8
0
 10
-16.9123
 20
444.688
 11
-17.1869
 21
444.946
  0
LINE
  8
0
 10
-17.1869
 20
444.946
 11
-17.427
 21
445.237
  0
LINE
  8
0
 10
-17.427
 20
445.237
 11
-17.6289
 21
445.555
  0
LINE
  8
0
 10
-17.6289
 20
445.555
 11
-17.7893
 21
445.896
  0
LINE
  8
0
 10
-17.7893
 20
445.896
 11
-17.9057
 21
446.254
  0
LINE
  8
0
 10
-17.9057
 20
446.254
 11
-17.9763
 21
446.624
  0
LINE
  8
0
 10
-17.9763
 20
446.624
 11
-18
 21
447
  0
LINE
  8
0
 10
-18
 20
447
 11
-17.9763
 21
447.376
  0
LINE
  8
0
 10
-17.9763
 20
447.376
 11
-17.9057
 21
447.746
  0
LINE
  8
0
 10
-17.9057
 20
447.746
 11
-17.7893
 21
448.104
  0
LINE
  8
0
 10
-17.7893
 20
448.104
 11
-17.6289
 21
448.445
  0
LINE
  8
0
 10
-17.6289
 20
448.445
 11
-17.427
 21
448.763
  0
LINE
  8
0
 10
-17.427
 20
448.763
 11
-17.1869
 21
449.054
  0
LINE
  8
0
 10
-17.1869
 20
449.054
 11
-16.9123
 21
449.312
  0
LINE
  8
0
 10
-16.9123
 20
449.312
 11
-16.6075
 21
449.533
  0
LINE
  8
0
 10
-16.6075
 20
449.533
 11
-16.2773
 21
449.714
  0
LINE
  8
0
 10
-16.2773
 20
449.714
 11
-15.927
 21
449.853
  0
LINE
  8
0
 10
-15.927
 20
449.853
 11
-15.5621
 21
449.947
  0
LINE
  8
0
 10
-15.5621
 20
449.947
 11
-15.1884
 21
449.994
  0
LINE
  8
0
 10
-15.1884
 20
449.994
 11
-14.8116
 21
449.994
  0
LINE
  8
0
 10
-14.8116
 20
449.994
 11
-14.4379
 21
449.947
  0
LINE
  8
0
 10
-14.4379
 20
449.947
 11
-14.0729
 21
449.853
  0
LINE
  8
0
 10
-14.0729
 20
449.853
 11
-13.7227
 21
449.714
  0
LINE
  8
0
 10
-13.7227
 20
449.714
 11
-13.3925
 21
449.533
  0
LINE
  8
0
 10
-13.3925
 20
449.533
 11
-13.0877
 21
449.312
  0
LINE
  8
0
 10
-13.0877
 20
449.312
 11
-12.8131
 21
449.054
  0
LINE
  8
0
 10
-12.8131
 20
449.054
 11
-12.5729
 21
448.763
  0
LINE
  8
0
 10
-12.5729
 20
448.763
 11
-12.3711
 21
448.445
  0
LINE
  8
0
 10
-12.3711
 20
448.445
 11
-12.2107
 21
448.104
  0
LINE
  8
0
 10
-12.2107
 20
448.104
 11
-12.0942
 21
447.746
  0
LINE
  8
0
 10
-12.0942
 20
447.746
 11
-12.0237
 21
447.376
  0
LINE
  8
0
 10
-12.0237
 20
447.376
 11
-12
 21
447
  0
LINE
  8
0
 10
-12
 20
447
 11
-12.0237
 21
446.624
  0
LINE
  8
0
 10
-12.0237
 20
446.624
 11
-12.0942
 21
446.254
  0
LINE
  8
0
 10
-12.0942
 20
446.254
 11
-12.2107
 21
445.896
  0
LINE
  8
0
 10
-12.2107
 20
445.896
 11
-12.3711
 21
445.555
  0
LINE
  8
0
 10
-12.3711
 20
445.555
 11
-12.5729
 21
445.237
  0
LINE
  8
0
 10
-12.5729
 20
445.237
 11
-12.8131
 21
444.946
  0
LINE
  8
0
 10
-12.8131
 20
444.946
 11
-13.0877
 21
444.688
  0
LINE
  8
0
 10
-13.0877
 20
444.688
 11
-13.3925
 21
444.467
  0
LINE
  8
0
 10
-13.3925
 20
444.467
 11
-13.7227
 21
444.286
  0
LINE
  8
0
 10
-13.7227
 20
444.286
 11
-14.0729
 21
444.147
  0
LINE
  8
0
 10
-14.0729
 20
444.147
 11
-14.4379
 21
444.053
  0
LINE
  8
0
 10
-14.4379
 20
444.053
 11
-14.8116
 21
444.006
  0
LINE
  8
0
 10
-14.8116
 20
444.006
 11
-15.1884
 21
444.006
  0
LINE
  8
0
 10
-15.0942
 20
438.003
 11
-15.2811
 21
438.027
  0
LINE
  8
0
 10
-15.2811
 20
438.027
 11
-15.4635
 21
438.073
  0
LINE
  8
0
 10
-15.4635
 20
438.073
 11
-15.6387
 21
438.143
  0
LINE
  8
0
 10
-15.6387
 20
438.143
 11
-15.8037
 21
438.234
  0
LINE
  8
0
 10
-15.8037
 20
438.234
 11
-15.9561
 21
438.344
  0
LINE
  8
0
 10
-15.9561
 20
438.344
 11
-16.0934
 21
438.473
  0
LINE
  8
0
 10
-16.0934
 20
438.473
 11
-16.2135
 21
438.618
  0
LINE
  8
0
 10
-16.2135
 20
438.618
 11
-16.3145
 21
438.777
  0
LINE
  8
0
 10
-16.3145
 20
438.777
 11
-16.3947
 21
438.948
  0
LINE
  8
0
 10
-16.3947
 20
438.948
 11
-16.4529
 21
439.127
  0
LINE
  8
0
 10
-16.4529
 20
439.127
 11
-16.4882
 21
439.312
  0
LINE
  8
0
 10
-16.4882
 20
439.312
 11
-16.5
 21
439.5
  0
LINE
  8
0
 10
-16.5
 20
439.5
 11
-16.4882
 21
439.688
  0
LINE
  8
0
 10
-16.4882
 20
439.688
 11
-16.4529
 21
439.873
  0
LINE
  8
0
 10
-16.4529
 20
439.873
 11
-16.3947
 21
440.052
  0
LINE
  8
0
 10
-16.3947
 20
440.052
 11
-16.3145
 21
440.223
  0
LINE
  8
0
 10
-16.3145
 20
440.223
 11
-16.2135
 21
440.382
  0
LINE
  8
0
 10
-16.2135
 20
440.382
 11
-16.0934
 21
440.527
  0
LINE
  8
0
 10
-16.0934
 20
440.527
 11
-15.9561
 21
440.656
  0
LINE
  8
0
 10
-15.9561
 20
440.656
 11
-15.8037
 21
440.766
  0
LINE
  8
0
 10
-15.8037
 20
440.766
 11
-15.6387
 21
440.857
  0
LINE
  8
0
 10
-15.6387
 20
440.857
 11
-15.4635
 21
440.927
  0
LINE
  8
0
 10
-15.4635
 20
440.927
 11
-15.2811
 21
440.973
  0
LINE
  8
0
 10
-15.2811
 20
440.973
 11
-15.0942
 21
440.997
  0
LINE
  8
0
 10
-15.0942
 20
440.997
 11
-14.9058
 21
440.997
  0
LINE
  8
0
 10
-14.9058
 20
440.997
 11
-14.7189
 21
440.973
  0
LINE
  8
0
 10
-14.7189
 20
440.973
 11
-14.5365
 21
440.927
  0
LINE
  8
0
 10
-14.5365
 20
440.927
 11
-14.3613
 21
440.857
  0
LINE
  8
0
 10
-14.3613
 20
440.857
 11
-14.1963
 21
440.766
  0
LINE
  8
0
 10
-14.1963
 20
440.766
 11
-14.0439
 21
440.656
  0
LINE
  8
0
 10
-14.0439
 20
440.656
 11
-13.9065
 21
440.527
  0
LINE
  8
0
 10
-13.9065
 20
440.527
 11
-13.7865
 21
440.382
  0
LINE
  8
0
 10
-13.7865
 20
440.382
 11
-13.6855
 21
440.223
  0
LINE
  8
0
 10
-13.6855
 20
440.223
 11
-13.6053
 21
440.052
  0
LINE
  8
0
 10
-13.6053
 20
440.052
 11
-13.5471
 21
439.873
  0
LINE
  8
0
 10
-13.5471
 20
439.873
 11
-13.5118
 21
439.688
  0
LINE
  8
0
 10
-13.5118
 20
439.688
 11
-13.5
 21
439.5
  0
LINE
  8
0
 10
-13.5
 20
439.5
 11
-13.5118
 21
439.312
  0
LINE
  8
0
 10
-13.5118
 20
439.312
 11
-13.5471
 21
439.127
  0
LINE
  8
0
 10
-13.5471
 20
439.127
 11
-13.6053
 21
438.948
  0
LINE
  8
0
 10
-13.6053
 20
438.948
 11
-13.6855
 21
438.777
  0
LINE
  8
0
 10
-13.6855
 20
438.777
 11
-13.7865
 21
438.618
  0
LINE
  8
0
 10
-13.7865
 20
438.618
 11
-13.9065
 21
438.473
  0
LINE
  8
0
 10
-13.9065
 20
438.473
 11
-14.0439
 21
438.344
  0
LINE
  8
0
 10
-14.0439
 20
438.344
 11
-14.1963
 21
438.234
  0
LINE
  8
0
 10
-14.1963
 20
438.234
 11
-14.3613
 21
438.143
  0
LINE
  8
0
 10
-14.3613
 20
438.143
 11
-14.5365
 21
438.073
  0
LINE
  8
0
 10
-14.5365
 20
438.073
 11
-14.7189
 21
438.027
  0
LINE
  8
0
 10
-14.7189
 20
438.027
 11
-14.9058
 21
438.003
  0
LINE
  8
0
 10
-14.9058
 20
438.003
 11
-15.0942
 21
438.003
  0
LINE
  8
0
 10
-15.1884
 20
429.006
 11
-15.5621
 21
429.053
  0
LINE
  8
0
 10
-15.5621
 20
429.053
 11
-15.927
 21
429.147
  0
LINE
  8
0
 10
-15.927
 20
429.147
 11
-16.2773
 21
429.286
  0
LINE
  8
0
 10
-16.2773
 20
429.286
 11
-16.6075
 21
429.467
  0
LINE
  8
0
 10
-16.6075
 20
429.467
 11
-16.9123
 21
429.688
  0
LINE
  8
0
 10
-16.9123
 20
429.688
 11
-17.1869
 21
429.946
  0
LINE
  8
0
 10
-17.1869
 20
429.946
 11
-17.427
 21
430.237
  0
LINE
  8
0
 10
-17.427
 20
430.237
 11
-17.6289
 21
430.555
  0
LINE
  8
0
 10
-17.6289
 20
430.555
 11
-17.7893
 21
430.896
  0
LINE
  8
0
 10
-17.7893
 20
430.896
 11
-17.9057
 21
431.254
  0
LINE
  8
0
 10
-17.9057
 20
431.254
 11
-17.9763
 21
431.624
  0
LINE
  8
0
 10
-17.9763
 20
431.624
 11
-18
 21
432
  0
LINE
  8
0
 10
-18
 20
432
 11
-17.9763
 21
432.376
  0
LINE
  8
0
 10
-17.9763
 20
432.376
 11
-17.9057
 21
432.746
  0
LINE
  8
0
 10
-17.9057
 20
432.746
 11
-17.7893
 21
433.104
  0
LINE
  8
0
 10
-17.7893
 20
433.104
 11
-17.6289
 21
433.445
  0
LINE
  8
0
 10
-17.6289
 20
433.445
 11
-17.427
 21
433.763
  0
LINE
  8
0
 10
-17.427
 20
433.763
 11
-17.1869
 21
434.054
  0
LINE
  8
0
 10
-17.1869
 20
434.054
 11
-16.9123
 21
434.312
  0
LINE
  8
0
 10
-16.9123
 20
434.312
 11
-16.6075
 21
434.533
  0
LINE
  8
0
 10
-16.6075
 20
434.533
 11
-16.2773
 21
434.714
  0
LINE
  8
0
 10
-16.2773
 20
434.714
 11
-15.927
 21
434.853
  0
LINE
  8
0
 10
-15.927
 20
434.853
 11
-15.5621
 21
434.947
  0
LINE
  8
0
 10
-15.5621
 20
434.947
 11
-15.1884
 21
434.994
  0
LINE
  8
0
 10
-15.1884
 20
434.994
 11
-14.8116
 21
434.994
  0
LINE
  8
0
 10
-14.8116
 20
434.994
 11
-14.4379
 21
434.947
  0
LINE
  8
0
 10
-14.4379
 20
434.947
 11
-14.0729
 21
434.853
  0
LINE
  8
0
 10
-14.0729
 20
434.853
 11
-13.7227
 21
434.714
  0
LINE
  8
0
 10
-13.7227
 20
434.714
 11
-13.3925
 21
434.533
  0
LINE
  8
0
 10
-13.3925
 20
434.533
 11
-13.0877
 21
434.312
  0
LINE
  8
0
 10
-13.0877
 20
434.312
 11
-12.8131
 21
434.054
  0
LINE
  8
0
 10
-12.8131
 20
434.054
 11
-12.5729
 21
433.763
  0
LINE
  8
0
 10
-12.5729
 20
433.763
 11
-12.3711
 21
433.445
  0
LINE
  8
0
 10
-12.3711
 20
433.445
 11
-12.2107
 21
433.104
  0
LINE
  8
0
 10
-12.2107
 20
433.104
 11
-12.0942
 21
432.746
  0
LINE
  8
0
 10
-12.0942
 20
432.746
 11
-12.0237
 21
432.376
  0
LINE
  8
0
 10
-12.0237
 20
432.376
 11
-12
 21
432
  0
LINE
  8
0
 10
-12
 20
432
 11
-12.0237
 21
431.624
  0
LINE
  8
0
 10
-12.0237
 20
431.624
 11
-12.0942
 21
431.254
  0
LINE
  8
0
 10
-12.0942
 20
431.254
 11
-12.2107
 21
430.896
  0
LINE
  8
0
 10
-12.2107
 20
430.896
 11
-12.3711
 21
430.555
  0
LINE
  8
0
 10
-12.3711
 20
430.555
 11
-12.5729
 21
430.237
  0
LINE
  8
0
 10
-12.5729
 20
430.237
 11
-12.8131
 21
429.946
  0
LINE
  8
0
 10
-12.8131
 20
429.946
 11
-13.0877
 21
429.688
  0
LINE
  8
0
 10
-13.0877
 20
429.688
 11
-13.3925
 21
429.467
  0
LINE
  8
0
 10
-13.3925
 20
429.467
 11
-13.7227
 21
429.286
  0
LINE
  8
0
 10
-13.7227
 20
429.286
 11
-14.0729
 21
429.147
  0
LINE
  8
0
 10
-14.0729
 20
429.147
 11
-14.4379
 21
429.053
  0
LINE
  8
0
 10
-14.4379
 20
429.053
 11
-14.8116
 21
429.006
  0
LINE
  8
0
 10
-14.8116
 20
429.006
 11
-15.1884
 21
429.006
  0
LINE
  8
0
 10
-15.0942
 20
423.003
 11
-15.2811
 21
423.027
  0
LINE
  8
0
 10
-15.2811
 20
423.027
 11
-15.4635
 21
423.073
  0
LINE
  8
0
 10
-15.4635
 20
423.073
 11
-15.6387
 21
423.143
  0
LINE
  8
0
 10
-15.6387
 20
423.143
 11
-15.8037
 21
423.234
  0
LINE
  8
0
 10
-15.8037
 20
423.234
 11
-15.9561
 21
423.344
  0
LINE
  8
0
 10
-15.9561
 20
423.344
 11
-16.0934
 21
423.473
  0
LINE
  8
0
 10
-16.0934
 20
423.473
 11
-16.2135
 21
423.618
  0
LINE
  8
0
 10
-16.2135
 20
423.618
 11
-16.3145
 21
423.777
  0
LINE
  8
0
 10
-16.3145
 20
423.777
 11
-16.3947
 21
423.948
  0
LINE
  8
0
 10
-16.3947
 20
423.948
 11
-16.4529
 21
424.127
  0
LINE
  8
0
 10
-16.4529
 20
424.127
 11
-16.4882
 21
424.312
  0
LINE
  8
0
 10
-16.4882
 20
424.312
 11
-16.5
 21
424.5
  0
LINE
  8
0
 10
-16.5
 20
424.5
 11
-16.4882
 21
424.688
  0
LINE
  8
0
 10
-16.4882
 20
424.688
 11
-16.4529
 21
424.873
  0
LINE
  8
0
 10
-16.4529
 20
424.873
 11
-16.3947
 21
425.052
  0
LINE
  8
0
 10
-16.3947
 20
425.052
 11
-16.3145
 21
425.223
  0
LINE
  8
0
 10
-16.3145
 20
425.223
 11
-16.2135
 21
425.382
  0
LINE
  8
0
 10
-16.2135
 20
425.382
 11
-16.0934
 21
425.527
  0
LINE
  8
0
 10
-16.0934
 20
425.527
 11
-15.9561
 21
425.656
  0
LINE
  8
0
 10
-15.9561
 20
425.656
 11
-15.8037
 21
425.766
  0
LINE
  8
0
 10
-15.8037
 20
425.766
 11
-15.6387
 21
425.857
  0
LINE
  8
0
 10
-15.6387
 20
425.857
 11
-15.4635
 21
425.927
  0
LINE
  8
0
 10
-15.4635
 20
425.927
 11
-15.2811
 21
425.973
  0
LINE
  8
0
 10
-15.2811
 20
425.973
 11
-15.0942
 21
425.997
  0
LINE
  8
0
 10
-15.0942
 20
425.997
 11
-14.9058
 21
425.997
  0
LINE
  8
0
 10
-14.9058
 20
425.997
 11
-14.7189
 21
425.973
  0
LINE
  8
0
 10
-14.7189
 20
425.973
 11
-14.5365
 21
425.927
  0
LINE
  8
0
 10
-14.5365
 20
425.927
 11
-14.3613
 21
425.857
  0
LINE
  8
0
 10
-14.3613
 20
425.857
 11
-14.1963
 21
425.766
  0
LINE
  8
0
 10
-14.1963
 20
425.766
 11
-14.0439
 21
425.656
  0
LINE
  8
0
 10
-14.0439
 20
425.656
 11
-13.9065
 21
425.527
  0
LINE
  8
0
 10
-13.9065
 20
425.527
 11
-13.7865
 21
425.382
  0
LINE
  8
0
 10
-13.7865
 20
425.382
 11
-13.6855
 21
425.223
  0
LINE
  8
0
 10
-13.6855
 20
425.223
 11
-13.6053
 21
425.052
  0
LINE
  8
0
 10
-13.6053
 20
425.052
 11
-13.5471
 21
424.873
  0
LINE
  8
0
 10
-13.5471
 20
424.873
 11
-13.5118
 21
424.688
  0
LINE
  8
0
 10
-13.5118
 20
424.688
 11
-13.5
 21
424.5
  0
LINE
  8
0
 10
-13.5
 20
424.5
 11
-13.5118
 21
424.312
  0
LINE
  8
0
 10
-13.5118
 20
424.312
 11
-13.5471
 21
424.127
  0
LINE
  8
0
 10
-13.5471
 20
424.127
 11
-13.6053
 21
423.948
  0
LINE
  8
0
 10
-13.6053
 20
423.948
 11
-13.6855
 21
423.777
  0
LINE
  8
0
 10
-13.6855
 20
423.777
 11
-13.7865
 21
423.618
  0
LINE
  8
0
 10
-13.7865
 20
423.618
 11
-13.9065
 21
423.473
  0
LINE
  8
0
 10
-13.9065
 20
423.473
 11
-14.0439
 21
423.344
  0
LINE
  8
0
 10
-14.0439
 20
423.344
 11
-14.1963
 21
423.234
  0
LINE
  8
0
 10
-14.1963
 20
423.234
 11
-14.3613
 21
423.143
  0
LINE
  8
0
 10
-14.3613
 20
423.143
 11
-14.5365
 21
423.073
  0
LINE
  8
0
 10
-14.5365
 20
423.073
 11
-14.7189
 21
423.027
  0
LINE
  8
0
 10
-14.7189
 20
423.027
 11
-14.9058
 21
423.003
  0
LINE
  8
0
 10
-14.9058
 20
423.003
 11
-15.0942
 21
423.003
  0
LINE
  8
0
 10
-15.1884
 20
414.006
 11
-15.5621
 21
414.053
  0
LINE
  8
0
 10
-15.5621
 20
414.053
 11
-15.927
 21
414.147
  0
LINE
  8
0
 10
-15.927
 20
414.147
 11
-16.2773
 21
414.286
  0
LINE
  8
0
 10
-16.2773
 20
414.286
 11
-16.6075
 21
414.467
  0
LINE
  8
0
 10
-16.6075
 20
414.467
 11
-16.9123
 21
414.688
  0
LINE
  8
0
 10
-16.9123
 20
414.688
 11
-17.1869
 21
414.946
  0
LINE
  8
0
 10
-17.1869
 20
414.946
 11
-17.427
 21
415.237
  0
LINE
  8
0
 10
-17.427
 20
415.237
 11
-17.6289
 21
415.555
  0
LINE
  8
0
 10
-17.6289
 20
415.555
 11
-17.7893
 21
415.896
  0
LINE
  8
0
 10
-17.7893
 20
415.896
 11
-17.9057
 21
416.254
  0
LINE
  8
0
 10
-17.9057
 20
416.254
 11
-17.9763
 21
416.624
  0
LINE
  8
0
 10
-17.9763
 20
416.624
 11
-18
 21
417
  0
LINE
  8
0
 10
-18
 20
417
 11
-17.9763
 21
417.376
  0
LINE
  8
0
 10
-17.9763
 20
417.376
 11
-17.9057
 21
417.746
  0
LINE
  8
0
 10
-17.9057
 20
417.746
 11
-17.7893
 21
418.104
  0
LINE
  8
0
 10
-17.7893
 20
418.104
 11
-17.6289
 21
418.445
  0
LINE
  8
0
 10
-17.6289
 20
418.445
 11
-17.427
 21
418.763
  0
LINE
  8
0
 10
-17.427
 20
418.763
 11
-17.1869
 21
419.054
  0
LINE
  8
0
 10
-17.1869
 20
419.054
 11
-16.9123
 21
419.312
  0
LINE
  8
0
 10
-16.9123
 20
419.312
 11
-16.6075
 21
419.533
  0
LINE
  8
0
 10
-16.6075
 20
419.533
 11
-16.2773
 21
419.714
  0
LINE
  8
0
 10
-16.2773
 20
419.714
 11
-15.927
 21
419.853
  0
LINE
  8
0
 10
-15.927
 20
419.853
 11
-15.5621
 21
419.947
  0
LINE
  8
0
 10
-15.5621
 20
419.947
 11
-15.1884
 21
419.994
  0
LINE
  8
0
 10
-15.1884
 20
419.994
 11
-14.8116
 21
419.994
  0
LINE
  8
0
 10
-14.8116
 20
419.994
 11
-14.4379
 21
419.947
  0
LINE
  8
0
 10
-14.4379
 20
419.947
 11
-14.0729
 21
419.853
  0
LINE
  8
0
 10
-14.0729
 20
419.853
 11
-13.7227
 21
419.714
  0
LINE
  8
0
 10
-13.7227
 20
419.714
 11
-13.3925
 21
419.533
  0
LINE
  8
0
 10
-13.3925
 20
419.533
 11
-13.0877
 21
419.312
  0
LINE
  8
0
 10
-13.0877
 20
419.312
 11
-12.8131
 21
419.054
  0
LINE
  8
0
 10
-12.8131
 20
419.054
 11
-12.5729
 21
418.763
  0
LINE
  8
0
 10
-12.5729
 20
418.763
 11
-12.3711
 21
418.445
  0
LINE
  8
0
 10
-12.3711
 20
418.445
 11
-12.2107
 21
418.104
  0
LINE
  8
0
 10
-12.2107
 20
418.104
 11
-12.0942
 21
417.746
  0
LINE
  8
0
 10
-12.0942
 20
417.746
 11
-12.0237
 21
417.376
  0
LINE
  8
0
 10
-12.0237
 20
417.376
 11
-12
 21
417
  0
LINE
  8
0
 10
-12
 20
417
 11
-12.0237
 21
416.624
  0
LINE
  8
0
 10
-12.0237
 20
416.624
 11
-12.0942
 21
416.254
  0
LINE
  8
0
 10
-12.0942
 20
416.254
 11
-12.2107
 21
415.896
  0
LINE
  8
0
 10
-12.2107
 20
415.896
 11
-12.3711
 21
415.555
  0
LINE
  8
0
 10
-12.3711
 20
415.555
 11
-12.5729
 21
415.237
  0
LINE
  8
0
 10
-12.5729
 20
415.237
 11
-12.8131
 21
414.946
  0
LINE
  8
0
 10
-12.8131
 20
414.946
 11
-13.0877
 21
414.688
  0
LINE
  8
0
 10
-13.0877
 20
414.688
 11
-13.3925
 21
414.467
  0
LINE
  8
0
 10
-13.3925
 20
414.467
 11
-13.7227
 21
414.286
  0
LINE
  8
0
 10
-13.7227
 20
414.286
 11
-14.0729
 21
414.147
  0
LINE
  8
0
 10
-14.0729
 20
414.147
 11
-14.4379
 21
414.053
  0
LINE
  8
0
 10
-14.4379
 20
414.053
 11
-14.8116
 21
414.006
  0
LINE
  8
0
 10
-14.8116
 20
414.006
 11
-15.1884
 21
414.006
  0
LINE
  8
0
 10
17.9369
 20
356.089
 11
18.5451
 21
356.245
  0
LINE
  8
0
 10
18.5451
 20
356.245
 11
19.1289
 21
356.476
  0
LINE
  8
0
 10
19.1289
 20
356.476
 11
19.6791
 21
356.778
  0
LINE
  8
0
 10
19.6791
 20
356.778
 11
20.1871
 21
357.147
  0
LINE
  8
0
 10
20.1871
 20
357.147
 11
20.6448
 21
357.577
  0
LINE
  8
0
 10
20.6448
 20
357.577
 11
21.0451
 21
358.061
  0
LINE
  8
0
 10
21.0451
 20
358.061
 11
21.3815
 21
358.591
  0
LINE
  8
0
 10
21.3815
 20
358.591
 11
21.6489
 21
359.159
  0
LINE
  8
0
 10
21.6489
 20
359.159
 11
21.8429
 21
359.757
  0
LINE
  8
0
 10
21.8429
 20
359.757
 11
21.9606
 21
360.373
  0
LINE
  8
0
 10
21.9606
 20
360.373
 11
22
 21
361
  0
LINE
  8
0
 10
22
 20
361
 11
22
 21
395
  0
LINE
  8
0
 10
22
 20
395
 11
21.9606
 21
395.627
  0
LINE
  8
0
 10
21.9606
 20
395.627
 11
21.8429
 21
396.243
  0
LINE
  8
0
 10
21.8429
 20
396.243
 11
21.6489
 21
396.841
  0
LINE
  8
0
 10
21.6489
 20
396.841
 11
21.3815
 21
397.409
  0
LINE
  8
0
 10
21.3815
 20
397.409
 11
21.0451
 21
397.939
  0
LINE
  8
0
 10
21.0451
 20
397.939
 11
20.6448
 21
398.423
  0
LINE
  8
0
 10
20.6448
 20
398.423
 11
20.1871
 21
398.853
  0
LINE
  8
0
 10
20.1871
 20
398.853
 11
19.6791
 21
399.222
  0
LINE
  8
0
 10
19.6791
 20
399.222
 11
19.1289
 21
399.524
  0
LINE
  8
0
 10
19.1289
 20
399.524
 11
18.5451
 21
399.755
  0
LINE
  8
0
 10
18.5451
 20
399.755
 11
17.9369
 21
399.911
  0
LINE
  8
0
 10
17.9369
 20
399.911
 11
17.3139
 21
399.99
  0
LINE
  8
0
 10
17.3139
 20
399.99
 11
-17.3139
 21
399.99
  0
LINE
  8
0
 10
-17.3139
 20
399.99
 11
-17.9369
 21
399.911
  0
LINE
  8
0
 10
-17.9369
 20
399.911
 11
-18.5451
 21
399.755
  0
LINE
  8
0
 10
-18.5451
 20
399.755
 11
-19.1289
 21
399.524
  0
LINE
  8
0
 10
-19.1289
 20
399.524
 11
-19.6791
 21
399.222
  0
LINE
  8
0
 10
-19.6791
 20
399.222
 11
-20.1871
 21
398.853
  0
LINE
  8
0
 10
-20.1871
 20
398.853
 11
-20.6448
 21
398.423
  0
LINE
  8
0
 10
-20.6448
 20
398.423
 11
-21.0451
 21
397.939
  0
LINE
  8
0
 10
-21.0451
 20
397.939
 11
-21.3815
 21
397.409
  0
LINE
  8
0
 10
-21.3815
 20
397.409
 11
-21.6489
 21
396.841
  0
LINE
  8
0
 10
-21.6489
 20
396.841
 11
-21.8429
 21
396.243
  0
LINE
  8
0
 10
-21.8429
 20
396.243
 11
-21.9606
 21
395.627
  0
LINE
  8
0
 10
-21.9606
 20
395.627
 11
-22
 21
395
  0
LINE
  8
0
 10
-22
 20
395
 11
-22
 21
361
  0
LINE
  8
0
 10
-22
 20
361
 11
-21.9606
 21
360.373
  0
LINE
  8
0
 10
-21.9606
 20
360.373
 11
-21.8429
 21
359.757
  0
LINE
  8
0
 10
-21.8429
 20
359.757
 11
-21.6489
 21
359.159
  0
LINE
  8
0
 10
-21.6489
 20
359.159
 11
-21.3815
 21
358.591
  0
LINE
  8
0
 10
-21.3815
 20
358.591
 11
-21.0451
 21
358.061
  0
LINE
  8
0
 10
-21.0451
 20
358.061
 11
-20.6448
 21
357.577
  0
LINE
  8
0
 10
-20.6448
 20
357.577
 11
-20.1871
 21
357.147
  0
LINE
  8
0
 10
-20.1871
 20
357.147
 11
-19.6791
 21
356.778
  0
LINE
  8
0
 10
-19.6791
 20
356.778
 11
-19.1289
 21
356.476
  0
LINE
  8
0
 10
-19.1289
 20
356.476
 11
-18.5451
 21
356.245
  0
LINE
  8
0
 10
-18.5451
 20
356.245
 11
-17.9369
 21
356.089
  0
LINE
  8
0
 10
-17.9369
 20
356.089
 11
-17.3139
 21
356.01
  0
LINE
  8
0
 10
-17.3139
 20
356.01
 11
17.3139
 21
356.01
  0
LINE
  8
0
 10
17.3139
 20
356.01
 11
17.9369
 21
356.089
  0
LINE
  8
0
 10
-15.1884
 20
390.006
 11
-15.5621
 21
390.053
  0
LINE
  8
0
 10
-15.5621
 20
390.053
 11
-15.927
 21
390.147
  0
LINE
  8
0
 10
-15.927
 20
390.147
 11
-16.2773
 21
390.286
  0
LINE
  8
0
 10
-16.2773
 20
390.286
 11
-16.6075
 21
390.467
  0
LINE
  8
0
 10
-16.6075
 20
390.467
 11
-16.9123
 21
390.688
  0
LINE
  8
0
 10
-16.9123
 20
390.688
 11
-17.1869
 21
390.946
  0
LINE
  8
0
 10
-17.1869
 20
390.946
 11
-17.427
 21
391.237
  0
LINE
  8
0
 10
-17.427
 20
391.237
 11
-17.6289
 21
391.555
  0
LINE
  8
0
 10
-17.6289
 20
391.555
 11
-17.7893
 21
391.896
  0
LINE
  8
0
 10
-17.7893
 20
391.896
 11
-17.9057
 21
392.254
  0
LINE
  8
0
 10
-17.9057
 20
392.254
 11
-17.9763
 21
392.624
  0
LINE
  8
0
 10
-17.9763
 20
392.624
 11
-18
 21
393
  0
LINE
  8
0
 10
-18
 20
393
 11
-17.9763
 21
393.376
  0
LINE
  8
0
 10
-17.9763
 20
393.376
 11
-17.9057
 21
393.746
  0
LINE
  8
0
 10
-17.9057
 20
393.746
 11
-17.7893
 21
394.104
  0
LINE
  8
0
 10
-17.7893
 20
394.104
 11
-17.6289
 21
394.445
  0
LINE
  8
0
 10
-17.6289
 20
394.445
 11
-17.427
 21
394.763
  0
LINE
  8
0
 10
-17.427
 20
394.763
 11
-17.1869
 21
395.054
  0
LINE
  8
0
 10
-17.1869
 20
395.054
 11
-16.9123
 21
395.312
  0
LINE
  8
0
 10
-16.9123
 20
395.312
 11
-16.6075
 21
395.533
  0
LINE
  8
0
 10
-16.6075
 20
395.533
 11
-16.2773
 21
395.714
  0
LINE
  8
0
 10
-16.2773
 20
395.714
 11
-15.927
 21
395.853
  0
LINE
  8
0
 10
-15.927
 20
395.853
 11
-15.5621
 21
395.947
  0
LINE
  8
0
 10
-15.5621
 20
395.947
 11
-15.1884
 21
395.994
  0
LINE
  8
0
 10
-15.1884
 20
395.994
 11
-14.8116
 21
395.994
  0
LINE
  8
0
 10
-14.8116
 20
395.994
 11
-14.4379
 21
395.947
  0
LINE
  8
0
 10
-14.4379
 20
395.947
 11
-14.0729
 21
395.853
  0
LINE
  8
0
 10
-14.0729
 20
395.853
 11
-13.7227
 21
395.714
  0
LINE
  8
0
 10
-13.7227
 20
395.714
 11
-13.3925
 21
395.533
  0
LINE
  8
0
 10
-13.3925
 20
395.533
 11
-13.0877
 21
395.312
  0
LINE
  8
0
 10
-13.0877
 20
395.312
 11
-12.8131
 21
395.054
  0
LINE
  8
0
 10
-12.8131
 20
395.054
 11
-12.5729
 21
394.763
  0
LINE
  8
0
 10
-12.5729
 20
394.763
 11
-12.3711
 21
394.445
  0
LINE
  8
0
 10
-12.3711
 20
394.445
 11
-12.2107
 21
394.104
  0
LINE
  8
0
 10
-12.2107
 20
394.104
 11
-12.0942
 21
393.746
  0
LINE
  8
0
 10
-12.0942
 20
393.746
 11
-12.0237
 21
393.376
  0
LINE
  8
0
 10
-12.0237
 20
393.376
 11
-12
 21
393
  0
LINE
  8
0
 10
-12
 20
393
 11
-12.0237
 21
392.624
  0
LINE
  8
0
 10
-12.0237
 20
392.624
 11
-12.0942
 21
392.254
  0
LINE
  8
0
 10
-12.0942
 20
392.254
 11
-12.2107
 21
391.896
  0
LINE
  8
0
 10
-12.2107
 20
391.896
 11
-12.3711
 21
391.555
  0
LINE
  8
0
 10
-12.3711
 20
391.555
 11
-12.5729
 21
391.237
  0
LINE
  8
0
 10
-12.5729
 20
391.237
 11
-12.8131
 21
390.946
  0
LINE
  8
0
 10
-12.8131
 20
390.946
 11
-13.0877
 21
390.688
  0
LINE
  8
0
 10
-13.0877
 20
390.688
 11
-13.3925
 21
390.467
  0
LINE
  8
0
 10
-13.3925
 20
390.467
 11
-13.7227
 21
390.286
  0
LINE
  8
0
 10
-13.7227
 20
390.286
 11
-14.0729
 21
390.147
  0
LINE
  8
0
 10
-14.0729
 20
390.147
 11
-14.4379
 21
390.053
  0
LINE
  8
0
 10
-14.4379
 20
390.053
 11
-14.8116
 21
390.006
  0
LINE
  8
0
 10
-14.8116
 20
390.006
 11
-15.1884
 21
390.006
  0
LINE
  8
0
 10
-15.0942
 20
384.003
 11
-15.2811
 21
384.027
  0
LINE
  8
0
 10
-15.2811
 20
384.027
 11
-15.4635
 21
384.073
  0
LINE
  8
0
 10
-15.4635
 20
384.073
 11
-15.6387
 21
384.143
  0
LINE
  8
0
 10
-15.6387
 20
384.143
 11
-15.8037
 21
384.234
  0
LINE
  8
0
 10
-15.8037
 20
384.234
 11
-15.9561
 21
384.344
  0
LINE
  8
0
 10
-15.9561
 20
384.344
 11
-16.0934
 21
384.473
  0
LINE
  8
0
 10
-16.0934
 20
384.473
 11
-16.2135
 21
384.618
  0
LINE
  8
0
 10
-16.2135
 20
384.618
 11
-16.3145
 21
384.777
  0
LINE
  8
0
 10
-16.3145
 20
384.777
 11
-16.3947
 21
384.948
  0
LINE
  8
0
 10
-16.3947
 20
384.948
 11
-16.4529
 21
385.127
  0
LINE
  8
0
 10
-16.4529
 20
385.127
 11
-16.4882
 21
385.312
  0
LINE
  8
0
 10
-16.4882
 20
385.312
 11
-16.5
 21
385.5
  0
LINE
  8
0
 10
-16.5
 20
385.5
 11
-16.4882
 21
385.688
  0
LINE
  8
0
 10
-16.4882
 20
385.688
 11
-16.4529
 21
385.873
  0
LINE
  8
0
 10
-16.4529
 20
385.873
 11
-16.3947
 21
386.052
  0
LINE
  8
0
 10
-16.3947
 20
386.052
 11
-16.3145
 21
386.223
  0
LINE
  8
0
 10
-16.3145
 20
386.223
 11
-16.2135
 21
386.382
  0
LINE
  8
0
 10
-16.2135
 20
386.382
 11
-16.0934
 21
386.527
  0
LINE
  8
0
 10
-16.0934
 20
386.527
 11
-15.9561
 21
386.656
  0
LINE
  8
0
 10
-15.9561
 20
386.656
 11
-15.8037
 21
386.766
  0
LINE
  8
0
 10
-15.8037
 20
386.766
 11
-15.6387
 21
386.857
  0
LINE
  8
0
 10
-15.6387
 20
386.857
 11
-15.4635
 21
386.927
  0
LINE
  8
0
 10
-15.4635
 20
386.927
 11
-15.2811
 21
386.973
  0
LINE
  8
0
 10
-15.2811
 20
386.973
 11
-15.0942
 21
386.997
  0
LINE
  8
0
 10
-15.0942
 20
386.997
 11
-14.9058
 21
386.997
  0
LINE
  8
0
 10
-14.9058
 20
386.997
 11
-14.7189
 21
386.973
  0
LINE
  8
0
 10
-14.7189
 20
386.973
 11
-14.5365
 21
386.927
  0
LINE
  8
0
 10
-14.5365
 20
386.927
 11
-14.3613
 21
386.857
  0
LINE
  8
0
 10
-14.3613
 20
386.857
 11
-14.1963
 21
386.766
  0
LINE
  8
0
 10
-14.1963
 20
386.766
 11
-14.0439
 21
386.656
  0
LINE
  8
0
 10
-14.0439
 20
386.656
 11
-13.9065
 21
386.527
  0
LINE
  8
0
 10
-13.9065
 20
386.527
 11
-13.7865
 21
386.382
  0
LINE
  8
0
 10
-13.7865
 20
386.382
 11
-13.6855
 21
386.223
  0
LINE
  8
0
 10
-13.6855
 20
386.223
 11
-13.6053
 21
386.052
  0
LINE
  8
0
 10
-13.6053
 20
386.052
 11
-13.5471
 21
385.873
  0
LINE
  8
0
 10
-13.5471
 20
385.873
 11
-13.5118
 21
385.688
  0
LINE
  8
0
 10
-13.5118
 20
385.688
 11
-13.5
 21
385.5
  0
LINE
  8
0
 10
-13.5
 20
385.5
 11
-13.5118
 21
385.312
  0
LINE
  8
0
 10
-13.5118
 20
385.312
 11
-13.5471
 21
385.127
  0
LINE
  8
0
 10
-13.5471
 20
385.127
 11
-13.6053
 21
384.948
  0
LINE
  8
0
 10
-13.6053
 20
384.948
 11
-13.6855
 21
384.777
  0
LINE
  8
0
 10
-13.6855
 20
384.777
 11
-13.7865
 21
384.618
  0
LINE
  8
0
 10
-13.7865
 20
384.618
 11
-13.9065
 21
384.473
  0
LINE
  8
0
 10
-13.9065
 20
384.473
 11
-14.0439
 21
384.344
  0
LINE
  8
0
 10
-14.0439
 20
384.344
 11
-14.1963
 21
384.234
  0
LINE
  8
0
 10
-14.1963
 20
384.234
 11
-14.3613
 21
384.143
  0
LINE
  8
0
 10
-14.3613
 20
384.143
 11
-14.5365
 21
384.073
  0
LINE
  8
0
 10
-14.5365
 20
384.073
 11
-14.7189
 21
384.027
  0
LINE
  8
0
 10
-14.7189
 20
384.027
 11
-14.9058
 21
384.003
  0
LINE
  8
0
 10
-14.9058
 20
384.003
 11
-15.0942
 21
384.003
  0
LINE
  8
0
 10
-15.1884
 20
375.006
 11
-15.5621
 21
375.053
  0
LINE
  8
0
 10
-15.5621
 20
375.053
 11
-15.927
 21
375.147
  0
LINE
  8
0
 10
-15.927
 20
375.147
 11
-16.2773
 21
375.286
  0
LINE
  8
0
 10
-16.2773
 20
375.286
 11
-16.6075
 21
375.467
  0
LINE
  8
0
 10
-16.6075
 20
375.467
 11
-16.9123
 21
375.688
  0
LINE
  8
0
 10
-16.9123
 20
375.688
 11
-17.1869
 21
375.946
  0
LINE
  8
0
 10
-17.1869
 20
375.946
 11
-17.427
 21
376.237
  0
LINE
  8
0
 10
-17.427
 20
376.237
 11
-17.6289
 21
376.555
  0
LINE
  8
0
 10
-17.6289
 20
376.555
 11
-17.7893
 21
376.896
  0
LINE
  8
0
 10
-17.7893
 20
376.896
 11
-17.9057
 21
377.254
  0
LINE
  8
0
 10
-17.9057
 20
377.254
 11
-17.9763
 21
377.624
  0
LINE
  8
0
 10
-17.9763
 20
377.624
 11
-18
 21
378
  0
LINE
  8
0
 10
-18
 20
378
 11
-17.9763
 21
378.376
  0
LINE
  8
0
 10
-17.9763
 20
378.376
 11
-17.9057
 21
378.746
  0
LINE
  8
0
 10
-17.9057
 20
378.746
 11
-17.7893
 21
379.104
  0
LINE
  8
0
 10
-17.7893
 20
379.104
 11
-17.6289
 21
379.445
  0
LINE
  8
0
 10
-17.6289
 20
379.445
 11
-17.427
 21
379.763
  0
LINE
  8
0
 10
-17.427
 20
379.763
 11
-17.1869
 21
380.054
  0
LINE
  8
0
 10
-17.1869
 20
380.054
 11
-16.9123
 21
380.312
  0
LINE
  8
0
 10
-16.9123
 20
380.312
 11
-16.6075
 21
380.533
  0
LINE
  8
0
 10
-16.6075
 20
380.533
 11
-16.2773
 21
380.714
  0
LINE
  8
0
 10
-16.2773
 20
380.714
 11
-15.927
 21
380.853
  0
LINE
  8
0
 10
-15.927
 20
380.853
 11
-15.5621
 21
380.947
  0
LINE
  8
0
 10
-15.5621
 20
380.947
 11
-15.1884
 21
380.994
  0
LINE
  8
0
 10
-15.1884
 20
380.994
 11
-14.8116
 21
380.994
  0
LINE
  8
0
 10
-14.8116
 20
380.994
 11
-14.4379
 21
380.947
  0
LINE
  8
0
 10
-14.4379
 20
380.947
 11
-14.0729
 21
380.853
  0
LINE
  8
0
 10
-14.0729
 20
380.853
 11
-13.7227
 21
380.714
  0
LINE
  8
0
 10
-13.7227
 20
380.714
 11
-13.3925
 21
380.533
  0
LINE
  8
0
 10
-13.3925
 20
380.533
 11
-13.0877
 21
380.312
  0
LINE
  8
0
 10
-13.0877
 20
380.312
 11
-12.8131
 21
380.054
  0
LINE
  8
0
 10
-12.8131
 20
380.054
 11
-12.5729
 21
379.763
  0
LINE
  8
0
 10
-12.5729
 20
379.763
 11
-12.3711
 21
379.445
  0
LINE
  8
0
 10
-12.3711
 20
379.445
 11
-12.2107
 21
379.104
  0
LINE
  8
0
 10
-12.2107
 20
379.104
 11
-12.0942
 21
378.746
  0
LINE
  8
0
 10
-12.0942
 20
378.746
 11
-12.0237
 21
378.376
  0
LINE
  8
0
 10
-12.0237
 20
378.376
 11
-12
 21
378
  0
LINE
  8
0
 10
-12
 20
378
 11
-12.0237
 21
377.624
  0
LINE
  8
0
 10
-12.0237
 20
377.624
 11
-12.0942
 21
377.254
  0
LINE
  8
0
 10
-12.0942
 20
377.254
 11
-12.2107
 21
376.896
  0
LINE
  8
0
 10
-12.2107
 20
376.896
 11
-12.3711
 21
376.555
  0
LINE
  8
0
 10
-12.3711
 20
376.555
 11
-12.5729
 21
376.237
  0
LINE
  8
0
 10
-12.5729
 20
376.237
 11
-12.8131
 21
375.946
  0
LINE
  8
0
 10
-12.8131
 20
375.946
 11
-13.0877
 21
375.688
  0
LINE
  8
0
 10
-13.0877
 20
375.688
 11
-13.3925
 21
375.467
  0
LINE
  8
0
 10
-13.3925
 20
375.467
 11
-13.7227
 21
375.286
  0
LINE
  8
0
 10
-13.7227
 20
375.286
 11
-14.0729
 21
375.147
  0
LINE
  8
0
 10
-14.0729
 20
375.147
 11
-14.4379
 21
375.053
  0
LINE
  8
0
 10
-14.4379
 20
375.053
 11
-14.8116
 21
375.006
  0
LINE
  8
0
 10
-14.8116
 20
375.006
 11
-15.1884
 21
375.006
  0
LINE
  8
0
 10
-15.0942
 20
369.003
 11
-15.2811
 21
369.027
  0
LINE
  8
0
 10
-15.2811
 20
369.027
 11
-15.4635
 21
369.073
  0
LINE
  8
0
 10
-15.4635
 20
369.073
 11
-15.6387
 21
369.143
  0
LINE
  8
0
 10
-15.6387
 20
369.143
 11
-15.8037
 21
369.234
  0
LINE
  8
0
 10
-15.8037
 20
369.234
 11
-15.9561
 21
369.344
  0
LINE
  8
0
 10
-15.9561
 20
369.344
 11
-16.0934
 21
369.473
  0
LINE
  8
0
 10
-16.0934
 20
369.473
 11
-16.2135
 21
369.618
  0
LINE
  8
0
 10
-16.2135
 20
369.618
 11
-16.3145
 21
369.777
  0
LINE
  8
0
 10
-16.3145
 20
369.777
 11
-16.3947
 21
369.948
  0
LINE
  8
0
 10
-16.3947
 20
369.948
 11
-16.4529
 21
370.127
  0
LINE
  8
0
 10
-16.4529
 20
370.127
 11
-16.4882
 21
370.312
  0
LINE
  8
0
 10
-16.4882
 20
370.312
 11
-16.5
 21
370.5
  0
LINE
  8
0
 10
-16.5
 20
370.5
 11
-16.4882
 21
370.688
  0
LINE
  8
0
 10
-16.4882
 20
370.688
 11
-16.4529
 21
370.873
  0
LINE
  8
0
 10
-16.4529
 20
370.873
 11
-16.3947
 21
371.052
  0
LINE
  8
0
 10
-16.3947
 20
371.052
 11
-16.3145
 21
371.223
  0
LINE
  8
0
 10
-16.3145
 20
371.223
 11
-16.2135
 21
371.382
  0
LINE
  8
0
 10
-16.2135
 20
371.382
 11
-16.0934
 21
371.527
  0
LINE
  8
0
 10
-16.0934
 20
371.527
 11
-15.9561
 21
371.656
  0
LINE
  8
0
 10
-15.9561
 20
371.656
 11
-15.8037
 21
371.766
  0
LINE
  8
0
 10
-15.8037
 20
371.766
 11
-15.6387
 21
371.857
  0
LINE
  8
0
 10
-15.6387
 20
371.857
 11
-15.4635
 21
371.927
  0
LINE
  8
0
 10
-15.4635
 20
371.927
 11
-15.2811
 21
371.973
  0
LINE
  8
0
 10
-15.2811
 20
371.973
 11
-15.0942
 21
371.997
  0
LINE
  8
0
 10
-15.0942
 20
371.997
 11
-14.9058
 21
371.997
  0
LINE
  8
0
 10
-14.9058
 20
371.997
 11
-14.7189
 21
371.973
  0
LINE
  8
0
 10
-14.7189
 20
371.973
 11
-14.5365
 21
371.927
  0
LINE
  8
0
 10
-14.5365
 20
371.927
 11
-14.3613
 21
371.857
  0
LINE
  8
0
 10
-14.3613
 20
371.857
 11
-14.1963
 21
371.766
  0
LINE
  8
0
 10
-14.1963
 20
371.766
 11
-14.0439
 21
371.656
  0
LINE
  8
0
 10
-14.0439
 20
371.656
 11
-13.9065
 21
371.527
  0
LINE
  8
0
 10
-13.9065
 20
371.527
 11
-13.7865
 21
371.382
  0
LINE
  8
0
 10
-13.7865
 20
371.382
 11
-13.6855
 21
371.223
  0
LINE
  8
0
 10
-13.6855
 20
371.223
 11
-13.6053
 21
371.052
  0
LINE
  8
0
 10
-13.6053
 20
371.052
 11
-13.5471
 21
370.873
  0
LINE
  8
0
 10
-13.5471
 20
370.873
 11
-13.5118
 21
370.688
  0
LINE
  8
0
 10
-13.5118
 20
370.688
 11
-13.5
 21
370.5
  0
LINE
  8
0
 10
-13.5
 20
370.5
 11
-13.5118
 21
370.312
  0
LINE
  8
0
 10
-13.5118
 20
370.312
 11
-13.5471
 21
370.127
  0
LINE
  8
0
 10
-13.5471
 20
370.127
 11
-13.6053
 21
369.948
  0
LINE
  8
0
 10
-13.6053
 20
369.948
 11
-13.6855
 21
369.777
  0
LINE
  8
0
 10
-13.6855
 20
369.777
 11
-13.7865
 21
369.618
  0
LINE
  8
0
 10
-13.7865
 20
369.618
 11
-13.9065
 21
369.473
  0
LINE
  8
0
 10
-13.9065
 20
369.473
 11
-14.0439
 21
369.344
  0
LINE
  8
0
 10
-14.0439
 20
369.344
 11
-14.1963
 21
369.234
  0
LINE
  8
0
 10
-14.1963
 20
369.234
 11
-14.3613
 21
369.143
  0
LINE
  8
0
 10
-14.3613
 20
369.143
 11
-14.5365
 21
369.073
  0
LINE
  8
0
 10
-14.5365
 20
369.073
 11
-14.7189
 21
369.027
  0
LINE
  8
0
 10
-14.7189
 20
369.027
 11
-14.9058
 21
369.003
  0
LINE
  8
0
 10
-14.9058
 20
369.003
 11
-15.0942
 21
369.003
  0
LINE
  8
0
 10
-15.1884
 20
360.006
 11
-15.5621
 21
360.053
  0
LINE
  8
0
 10
-15.5621
 20
360.053
 11
-15.927
 21
360.147
  0
LINE
  8
0
 10
-15.927
 20
360.147
 11
-16.2773
 21
360.286
  0
LINE
  8
0
 10
-16.2773
 20
360.286
 11
-16.6075
 21
360.467
  0
LINE
  8
0
 10
-16.6075
 20
360.467
 11
-16.9123
 21
360.688
  0
LINE
  8
0
 10
-16.9123
 20
360.688
 11
-17.1869
 21
360.946
  0
LINE
  8
0
 10
-17.1869
 20
360.946
 11
-17.427
 21
361.237
  0
LINE
  8
0
 10
-17.427
 20
361.237
 11
-17.6289
 21
361.555
  0
LINE
  8
0
 10
-17.6289
 20
361.555
 11
-17.7893
 21
361.896
  0
LINE
  8
0
 10
-17.7893
 20
361.896
 11
-17.9057
 21
362.254
  0
LINE
  8
0
 10
-17.9057
 20
362.254
 11
-17.9763
 21
362.624
  0
LINE
  8
0
 10
-17.9763
 20
362.624
 11
-18
 21
363
  0
LINE
  8
0
 10
-18
 20
363
 11
-17.9763
 21
363.376
  0
LINE
  8
0
 10
-17.9763
 20
363.376
 11
-17.9057
 21
363.746
  0
LINE
  8
0
 10
-17.9057
 20
363.746
 11
-17.7893
 21
364.104
  0
LINE
  8
0
 10
-17.7893
 20
364.104
 11
-17.6289
 21
364.445
  0
LINE
  8
0
 10
-17.6289
 20
364.445
 11
-17.427
 21
364.763
  0
LINE
  8
0
 10
-17.427
 20
364.763
 11
-17.1869
 21
365.054
  0
LINE
  8
0
 10
-17.1869
 20
365.054
 11
-16.9123
 21
365.312
  0
LINE
  8
0
 10
-16.9123
 20
365.312
 11
-16.6075
 21
365.533
  0
LINE
  8
0
 10
-16.6075
 20
365.533
 11
-16.2773
 21
365.714
  0
LINE
  8
0
 10
-16.2773
 20
365.714
 11
-15.927
 21
365.853
  0
LINE
  8
0
 10
-15.927
 20
365.853
 11
-15.5621
 21
365.947
  0
LINE
  8
0
 10
-15.5621
 20
365.947
 11
-15.1884
 21
365.994
  0
LINE
  8
0
 10
-15.1884
 20
365.994
 11
-14.8116
 21
365.994
  0
LINE
  8
0
 10
-14.8116
 20
365.994
 11
-14.4379
 21
365.947
  0
LINE
  8
0
 10
-14.4379
 20
365.947
 11
-14.0729
 21
365.853
  0
LINE
  8
0
 10
-14.0729
 20
365.853
 11
-13.7227
 21
365.714
  0
LINE
  8
0
 10
-13.7227
 20
365.714
 11
-13.3925
 21
365.533
  0
LINE
  8
0
 10
-13.3925
 20
365.533
 11
-13.0877
 21
365.312
  0
LINE
  8
0
 10
-13.0877
 20
365.312
 11
-12.8131
 21
365.054
  0
LINE
  8
0
 10
-12.8131
 20
365.054
 11
-12.5729
 21
364.763
  0
LINE
  8
0
 10
-12.5729
 20
364.763
 11
-12.3711
 21
364.445
  0
LINE
  8
0
 10
-12.3711
 20
364.445
 11
-12.2107
 21
364.104
  0
LINE
  8
0
 10
-12.2107
 20
364.104
 11
-12.0942
 21
363.746
  0
LINE
  8
0
 10
-12.0942
 20
363.746
 11
-12.0237
 21
363.376
  0
LINE
  8
0
 10
-12.0237
 20
363.376
 11
-12
 21
363
  0
LINE
  8
0
 10
-12
 20
363
 11
-12.0237
 21
362.624
  0
LINE
  8
0
 10
-12.0237
 20
362.624
 11
-12.0942
 21
362.254
  0
LINE
  8
0
 10
-12.0942
 20
362.254
 11
-12.2107
 21
361.896
  0
LINE
  8
0
 10
-12.2107
 20
361.896
 11
-12.3711
 21
361.555
  0
LINE
  8
0
 10
-12.3711
 20
361.555
 11
-12.5729
 21
361.237
  0
LINE
  8
0
 10
-12.5729
 20
361.237
 11
-12.8131
 21
360.946
  0
LINE
  8
0
 10
-12.8131
 20
360.946
 11
-13.0877
 21
360.688
  0
LINE
  8
0
 10
-13.0877
 20
360.688
 11
-13.3925
 21
360.467
  0
LINE
  8
0
 10
-13.3925
 20
360.467
 11
-13.7227
 21
360.286
  0
LINE
  8
0
 10
-13.7227
 20
360.286
 11
-14.0729
 21
360.147
  0
LINE
  8
0
 10
-14.0729
 20
360.147
 11
-14.4379
 21
360.053
  0
LINE
  8
0
 10
-14.4379
 20
360.053
 11
-14.8116
 21
360.006
  0
LINE
  8
0
 10
-14.8116
 20
360.006
 11
-15.1884
 21
360.006
  0
LINE
  8
0
 10
17.9369
 20
302.089
 11
18.5451
 21
302.245
  0
LINE
  8
0
 10
18.5451
 20
302.245
 11
19.1289
 21
302.476
  0
LINE
  8
0
 10
19.1289
 20
302.476
 11
19.6791
 21
302.778
  0
LINE
  8
0
 10
19.6791
 20
302.778
 11
20.1871
 21
303.147
  0
LINE
  8
0
 10
20.1871
 20
303.147
 11
20.6448
 21
303.577
  0
LINE
  8
0
 10
20.6448
 20
303.577
 11
21.0451
 21
304.061
  0
LINE
  8
0
 10
21.0451
 20
304.061
 11
21.3815
 21
304.591
  0
LINE
  8
0
 10
21.3815
 20
304.591
 11
21.6489
 21
305.159
  0
LINE
  8
0
 10
21.6489
 20
305.159
 11
21.8429
 21
305.757
  0
LINE
  8
0
 10
21.8429
 20
305.757
 11
21.9606
 21
306.373
  0
LINE
  8
0
 10
21.9606
 20
306.373
 11
22
 21
307
  0
LINE
  8
0
 10
22
 20
307
 11
22
 21
341
  0
LINE
  8
0
 10
22
 20
341
 11
21.9606
 21
341.627
  0
LINE
  8
0
 10
21.9606
 20
341.627
 11
21.8429
 21
342.243
  0
LINE
  8
0
 10
21.8429
 20
342.243
 11
21.6489
 21
342.841
  0
LINE
  8
0
 10
21.6489
 20
342.841
 11
21.3815
 21
343.409
  0
LINE
  8
0
 10
21.3815
 20
343.409
 11
21.0451
 21
343.939
  0
LINE
  8
0
 10
21.0451
 20
343.939
 11
20.6448
 21
344.423
  0
LINE
  8
0
 10
20.6448
 20
344.423
 11
20.1871
 21
344.853
  0
LINE
  8
0
 10
20.1871
 20
344.853
 11
19.6791
 21
345.222
  0
LINE
  8
0
 10
19.6791
 20
345.222
 11
19.1289
 21
345.524
  0
LINE
  8
0
 10
19.1289
 20
345.524
 11
18.5451
 21
345.755
  0
LINE
  8
0
 10
18.5451
 20
345.755
 11
17.9369
 21
345.911
  0
LINE
  8
0
 10
17.9369
 20
345.911
 11
17.3139
 21
345.99
  0
LINE
  8
0
 10
17.3139
 20
345.99
 11
-17.3139
 21
345.99
  0
LINE
  8
0
 10
-17.3139
 20
345.99
 11
-17.9369
 21
345.911
  0
LINE
  8
0
 10
-17.9369
 20
345.911
 11
-18.5451
 21
345.755
  0
LINE
  8
0
 10
-18.5451
 20
345.755
 11
-19.1289
 21
345.524
  0
LINE
  8
0
 10
-19.1289
 20
345.524
 11
-19.6791
 21
345.222
  0
LINE
  8
0
 10
-19.6791
 20
345.222
 11
-20.1871
 21
344.853
  0
LINE
  8
0
 10
-20.1871
 20
344.853
 11
-20.6448
 21
344.423
  0
LINE
  8
0
 10
-20.6448
 20
344.423
 11
-21.0451
 21
343.939
  0
LINE
  8
0
 10
-21.0451
 20
343.939
 11
-21.3815
 21
343.409
  0
LINE
  8
0
 10
-21.3815
 20
343.409
 11
-21.6489
 21
342.841
  0
LINE
  8
0
 10
-21.6489
 20
342.841
 11
-21.8429
 21
342.243
  0
LINE
  8
0
 10
-21.8429
 20
342.243
 11
-21.9606
 21
341.627
  0
LINE
  8
0
 10
-21.9606
 20
341.627
 11
-22
 21
341
  0
LINE
  8
0
 10
-22
 20
341
 11
-22
 21
307
  0
LINE
  8
0
 10
-22
 20
307
 11
-21.9606
 21
306.373
  0
LINE
  8
0
 10
-21.9606
 20
306.373
 11
-21.8429
 21
305.757
  0
LINE
  8
0
 10
-21.8429
 20
305.757
 11
-21.6489
 21
305.159
  0
LINE
  8
0
 10
-21.6489
 20
305.159
 11
-21.3815
 21
304.591
  0
LINE
  8
0
 10
-21.3815
 20
304.591
 11
-21.0451
 21
304.061
  0
LINE
  8
0
 10
-21.0451
 20
304.061
 11
-20.6448
 21
303.577
  0
LINE
  8
0
 10
-20.6448
 20
303.577
 11
-20.1871
 21
303.147
  0
LINE
  8
0
 10
-20.1871
 20
303.147
 11
-19.6791
 21
302.778
  0
LINE
  8
0
 10
-19.6791
 20
302.778
 11
-19.1289
 21
302.476
  0
LINE
  8
0
 10
-19.1289
 20
302.476
 11
-18.5451
 21
302.245
  0
LINE
  8
0
 10
-18.5451
 20
302.245
 11
-17.9369
 21
302.089
  0
LINE
  8
0
 10
-17.9369
 20
302.089
 11
-17.3139
 21
302.01
  0
LINE
  8
0
 10
-17.3139
 20
302.01
 11
17.3139
 21
302.01
  0
LINE
  8
0
 10
17.3139
 20
302.01
 11
17.9369
 21
302.089
  0
LINE
  8
0
 10
-15.1884
 20
336.006
 11
-15.5621
 21
336.053
  0
LINE
  8
0
 10
-15.5621
 20
336.053
 11
-15.927
 21
336.147
  0
LINE
  8
0
 10
-15.927
 20
336.147
 11
-16.2773
 21
336.286
  0
LINE
  8
0
 10
-16.2773
 20
336.286
 11
-16.6075
 21
336.467
  0
LINE
  8
0
 10
-16.6075
 20
336.467
 11
-16.9123
 21
336.688
  0
LINE
  8
0
 10
-16.9123
 20
336.688
 11
-17.1869
 21
336.946
  0
LINE
  8
0
 10
-17.1869
 20
336.946
 11
-17.427
 21
337.237
  0
LINE
  8
0
 10
-17.427
 20
337.237
 11
-17.6289
 21
337.555
  0
LINE
  8
0
 10
-17.6289
 20
337.555
 11
-17.7893
 21
337.896
  0
LINE
  8
0
 10
-17.7893
 20
337.896
 11
-17.9057
 21
338.254
  0
LINE
  8
0
 10
-17.9057
 20
338.254
 11
-17.9763
 21
338.624
  0
LINE
  8
0
 10
-17.9763
 20
338.624
 11
-18
 21
339
  0
LINE
  8
0
 10
-18
 20
339
 11
-17.9763
 21
339.376
  0
LINE
  8
0
 10
-17.9763
 20
339.376
 11
-17.9057
 21
339.746
  0
LINE
  8
0
 10
-17.9057
 20
339.746
 11
-17.7893
 21
340.104
  0
LINE
  8
0
 10
-17.7893
 20
340.104
 11
-17.6289
 21
340.445
  0
LINE
  8
0
 10
-17.6289
 20
340.445
 11
-17.427
 21
340.763
  0
LINE
  8
0
 10
-17.427
 20
340.763
 11
-17.1869
 21
341.054
  0
LINE
  8
0
 10
-17.1869
 20
341.054
 11
-16.9123
 21
341.312
  0
LINE
  8
0
 10
-16.9123
 20
341.312
 11
-16.6075
 21
341.533
  0
LINE
  8
0
 10
-16.6075
 20
341.533
 11
-16.2773
 21
341.714
  0
LINE
  8
0
 10
-16.2773
 20
341.714
 11
-15.927
 21
341.853
  0
LINE
  8
0
 10
-15.927
 20
341.853
 11
-15.5621
 21
341.947
  0
LINE
  8
0
 10
-15.5621
 20
341.947
 11
-15.1884
 21
341.994
  0
LINE
  8
0
 10
-15.1884
 20
341.994
 11
-14.8116
 21
341.994
  0
LINE
  8
0
 10
-14.8116
 20
341.994
 11
-14.4379
 21
341.947
  0
LINE
  8
0
 10
-14.4379
 20
341.947
 11
-14.0729
 21
341.853
  0
LINE
  8
0
 10
-14.0729
 20
341.853
 11
-13.7227
 21
341.714
  0
LINE
  8
0
 10
-13.7227
 20
341.714
 11
-13.3925
 21
341.533
  0
LINE
  8
0
 10
-13.3925
 20
341.533
 11
-13.0877
 21
341.312
  0
LINE
  8
0
 10
-13.0877
 20
341.312
 11
-12.8131
 21
341.054
  0
LINE
  8
0
 10
-12.8131
 20
341.054
 11
-12.5729
 21
340.763
  0
LINE
  8
0
 10
-12.5729
 20
340.763
 11
-12.3711
 21
340.445
  0
LINE
  8
0
 10
-12.3711
 20
340.445
 11
-12.2107
 21
340.104
  0
LINE
  8
0
 10
-12.2107
 20
340.104
 11
-12.0942
 21
339.746
  0
LINE
  8
0
 10
-12.0942
 20
339.746
 11
-12.0237
 21
339.376
  0
LINE
  8
0
 10
-12.0237
 20
339.376
 11
-12
 21
339
  0
LINE
  8
0
 10
-12
 20
339
 11
-12.0237
 21
338.624
  0
LINE
  8
0
 10
-12.0237
 20
338.624
 11
-12.0942
 21
338.254
  0
LINE
  8
0
 10
-12.0942
 20
338.254
 11
-12.2107
 21
337.896
  0
LINE
  8
0
 10
-12.2107
 20
337.896
 11
-12.3711
 21
337.555
  0
LINE
  8
0
 10
-12.3711
 20
337.555
 11
-12.5729
 21
337.237
  0
LINE
  8
0
 10
-12.5729
 20
337.237
 11
-12.8131
 21
336.946
  0
LINE
  8
0
 10
-12.8131
 20
336.946
 11
-13.0877
 21
336.688
  0
LINE
  8
0
 10
-13.0877
 20
336.688
 11
-13.3925
 21
336.467
  0
LINE
  8
0
 10
-13.3925
 20
336.467
 11
-13.7227
 21
336.286
  0
LINE
  8
0
 10
-13.7227
 20
336.286
 11
-14.0729
 21
336.147
  0
LINE
  8
0
 10
-14.0729
 20
336.147
 11
-14.4379
 21
336.053
  0
LINE
  8
0
 10
-14.4379
 20
336.053
 11
-14.8116
 21
336.006
  0
LINE
  8
0
 10
-14.8116
 20
336.006
 11
-15.1884
 21
336.006
  0
LINE
  8
0
 10
-15.0942
 20
330.003
 11
-15.2811
 21
330.027
  0
LINE
  8
0
 10
-15.2811
 20
330.027
 11
-15.4635
 21
330.073
  0
LINE
  8
0
 10
-15.4635
 20
330.073
 11
-15.6387
 21
330.143
  0
LINE
  8
0
 10
-15.6387
 20
330.143
 11
-15.8037
 21
330.234
  0
LINE
  8
0
 10
-15.8037
 20
330.234
 11
-15.9561
 21
330.344
  0
LINE
  8
0
 10
-15.9561
 20
330.344
 11
-16.0934
 21
330.473
  0
LINE
  8
0
 10
-16.0934
 20
330.473
 11
-16.2135
 21
330.618
  0
LINE
  8
0
 10
-16.2135
 20
330.618
 11
-16.3145
 21
330.777
  0
LINE
  8
0
 10
-16.3145
 20
330.777
 11
-16.3947
 21
330.948
  0
LINE
  8
0
 10
-16.3947
 20
330.948
 11
-16.4529
 21
331.127
  0
LINE
  8
0
 10
-16.4529
 20
331.127
 11
-16.4882
 21
331.312
  0
LINE
  8
0
 10
-16.4882
 20
331.312
 11
-16.5
 21
331.5
  0
LINE
  8
0
 10
-16.5
 20
331.5
 11
-16.4882
 21
331.688
  0
LINE
  8
0
 10
-16.4882
 20
331.688
 11
-16.4529
 21
331.873
  0
LINE
  8
0
 10
-16.4529
 20
331.873
 11
-16.3947
 21
332.052
  0
LINE
  8
0
 10
-16.3947
 20
332.052
 11
-16.3145
 21
332.223
  0
LINE
  8
0
 10
-16.3145
 20
332.223
 11
-16.2135
 21
332.382
  0
LINE
  8
0
 10
-16.2135
 20
332.382
 11
-16.0934
 21
332.527
  0
LINE
  8
0
 10
-16.0934
 20
332.527
 11
-15.9561
 21
332.656
  0
LINE
  8
0
 10
-15.9561
 20
332.656
 11
-15.8037
 21
332.766
  0
LINE
  8
0
 10
-15.8037
 20
332.766
 11
-15.6387
 21
332.857
  0
LINE
  8
0
 10
-15.6387
 20
332.857
 11
-15.4635
 21
332.927
  0
LINE
  8
0
 10
-15.4635
 20
332.927
 11
-15.2811
 21
332.973
  0
LINE
  8
0
 10
-15.2811
 20
332.973
 11
-15.0942
 21
332.997
  0
LINE
  8
0
 10
-15.0942
 20
332.997
 11
-14.9058
 21
332.997
  0
LINE
  8
0
 10
-14.9058
 20
332.997
 11
-14.7189
 21
332.973
  0
LINE
  8
0
 10
-14.7189
 20
332.973
 11
-14.5365
 21
332.927
  0
LINE
  8
0
 10
-14.5365
 20
332.927
 11
-14.3613
 21
332.857
  0
LINE
  8
0
 10
-14.3613
 20
332.857
 11
-14.1963
 21
332.766
  0
LINE
  8
0
 10
-14.1963
 20
332.766
 11
-14.0439
 21
332.656
  0
LINE
  8
0
 10
-14.0439
 20
332.656
 11
-13.9065
 21
332.527
  0
LINE
  8
0
 10
-13.9065
 20
332.527
 11
-13.7865
 21
332.382
  0
LINE
  8
0
 10
-13.7865
 20
332.382
 11
-13.6855
 21
332.223
  0
LINE
  8
0
 10
-13.6855
 20
332.223
 11
-13.6053
 21
332.052
  0
LINE
  8
0
 10
-13.6053
 20
332.052
 11
-13.5471
 21
331.873
  0
LINE
  8
0
 10
-13.5471
 20
331.873
 11
-13.5118
 21
331.688
  0
LINE
  8
0
 10
-13.5118
 20
331.688
 11
-13.5
 21
331.5
  0
LINE
  8
0
 10
-13.5
 20
331.5
 11
-13.5118
 21
331.312
  0
LINE
  8
0
 10
-13.5118
 20
331.312
 11
-13.5471
 21
331.127
  0
LINE
  8
0
 10
-13.5471
 20
331.127
 11
-13.6053
 21
330.948
  0
LINE
  8
0
 10
-13.6053
 20
330.948
 11
-13.6855
 21
330.777
  0
LINE
  8
0
 10
-13.6855
 20
330.777
 11
-13.7865
 21
330.618
  0
LINE
  8
0
 10
-13.7865
 20
330.618
 11
-13.9065
 21
330.473
  0
LINE
  8
0
 10
-13.9065
 20
330.473
 11
-14.0439
 21
330.344
  0
LINE
  8
0
 10
-14.0439
 20
330.344
 11
-14.1963
 21
330.234
  0
LINE
  8
0
 10
-14.1963
 20
330.234
 11
-14.3613
 21
330.143
  0
LINE
  8
0
 10
-14.3613
 20
330.143
 11
-14.5365
 21
330.073
  0
LINE
  8
0
 10
-14.5365
 20
330.073
 11
-14.7189
 21
330.027
  0
LINE
  8
0
 10
-14.7189
 20
330.027
 11
-14.9058
 21
330.003
  0
LINE
  8
0
 10
-14.9058
 20
330.003
 11
-15.0942
 21
330.003
  0
LINE
  8
0
 10
-15.1884
 20
321.006
 11
-15.5621
 21
321.053
  0
LINE
  8
0
 10
-15.5621
 20
321.053
 11
-15.927
 21
321.147
  0
LINE
  8
0
 10
-15.927
 20
321.147
 11
-16.2773
 21
321.286
  0
LINE
  8
0
 10
-16.2773
 20
321.286
 11
-16.6075
 21
321.467
  0
LINE
  8
0
 10
-16.6075
 20
321.467
 11
-16.9123
 21
321.688
  0
LINE
  8
0
 10
-16.9123
 20
321.688
 11
-17.1869
 21
321.946
  0
LINE
  8
0
 10
-17.1869
 20
321.946
 11
-17.427
 21
322.237
  0
LINE
  8
0
 10
-17.427
 20
322.237
 11
-17.6289
 21
322.555
  0
LINE
  8
0
 10
-17.6289
 20
322.555
 11
-17.7893
 21
322.896
  0
LINE
  8
0
 10
-17.7893
 20
322.896
 11
-17.9057
 21
323.254
  0
LINE
  8
0
 10
-17.9057
 20
323.254
 11
-17.9763
 21
323.624
  0
LINE
  8
0
 10
-17.9763
 20
323.624
 11
-18
 21
324
  0
LINE
  8
0
 10
-18
 20
324
 11
-17.9763
 21
324.376
  0
LINE
  8
0
 10
-17.9763
 20
324.376
 11
-17.9057
 21
324.746
  0
LINE
  8
0
 10
-17.9057
 20
324.746
 11
-17.7893
 21
325.104
  0
LINE
  8
0
 10
-17.7893
 20
325.104
 11
-17.6289
 21
325.445
  0
LINE
  8
0
 10
-17.6289
 20
325.445
 11
-17.427
 21
325.763
  0
LINE
  8
0
 10
-17.427
 20
325.763
 11
-17.1869
 21
326.054
  0
LINE
  8
0
 10
-17.1869
 20
326.054
 11
-16.9123
 21
326.312
  0
LINE
  8
0
 10
-16.9123
 20
326.312
 11
-16.6075
 21
326.533
  0
LINE
  8
0
 10
-16.6075
 20
326.533
 11
-16.2773
 21
326.714
  0
LINE
  8
0
 10
-16.2773
 20
326.714
 11
-15.927
 21
326.853
  0
LINE
  8
0
 10
-15.927
 20
326.853
 11
-15.5621
 21
326.947
  0
LINE
  8
0
 10
-15.5621
 20
326.947
 11
-15.1884
 21
326.994
  0
LINE
  8
0
 10
-15.1884
 20
326.994
 11
-14.8116
 21
326.994
  0
LINE
  8
0
 10
-14.8116
 20
326.994
 11
-14.4379
 21
326.947
  0
LINE
  8
0
 10
-14.4379
 20
326.947
 11
-14.0729
 21
326.853
  0
LINE
  8
0
 10
-14.0729
 20
326.853
 11
-13.7227
 21
326.714
  0
LINE
  8
0
 10
-13.7227
 20
326.714
 11
-13.3925
 21
326.533
  0
LINE
  8
0
 10
-13.3925
 20
326.533
 11
-13.0877
 21
326.312
  0
LINE
  8
0
 10
-13.0877
 20
326.312
 11
-12.8131
 21
326.054
  0
LINE
  8
0
 10
-12.8131
 20
326.054
 11
-12.5729
 21
325.763
  0
LINE
  8
0
 10
-12.5729
 20
325.763
 11
-12.3711
 21
325.445
  0
LINE
  8
0
 10
-12.3711
 20
325.445
 11
-12.2107
 21
325.104
  0
LINE
  8
0
 10
-12.2107
 20
325.104
 11
-12.0942
 21
324.746
  0
LINE
  8
0
 10
-12.0942
 20
324.746
 11
-12.0237
 21
324.376
  0
LINE
  8
0
 10
-12.0237
 20
324.376
 11
-12
 21
324
  0
LINE
  8
0
 10
-12
 20
324
 11
-12.0237
 21
323.624
  0
LINE
  8
0
 10
-12.0237
 20
323.624
 11
-12.0942
 21
323.254
  0
LINE
  8
0
 10
-12.0942
 20
323.254
 11
-12.2107
 21
322.896
  0
LINE
  8
0
 10
-12.2107
 20
322.896
 11
-12.3711
 21
322.555
  0
LINE
  8
0
 10
-12.3711
 20
322.555
 11
-12.5729
 21
322.237
  0
LINE
  8
0
 10
-12.5729
 20
322.237
 11
-12.8131
 21
321.946
  0
LINE
  8
0
 10
-12.8131
 20
321.946
 11
-13.0877
 21
321.688
  0
LINE
  8
0
 10
-13.0877
 20
321.688
 11
-13.3925
 21
321.467
  0
LINE
  8
0
 10
-13.3925
 20
321.467
 11
-13.7227
 21
321.286
  0
LINE
  8
0
 10
-13.7227
 20
321.286
 11
-14.0729
 21
321.147
  0
LINE
  8
0
 10
-14.0729
 20
321.147
 11
-14.4379
 21
321.053
  0
LINE
  8
0
 10
-14.4379
 20
321.053
 11
-14.8116
 21
321.006
  0
LINE
  8
0
 10
-14.8116
 20
321.006
 11
-15.1884
 21
321.006
  0
LINE
  8
0
 10
-15.0942
 20
315.003
 11
-15.2811
 21
315.027
  0
LINE
  8
0
 10
-15.2811
 20
315.027
 11
-15.4635
 21
315.073
  0
LINE
  8
0
 10
-15.4635
 20
315.073
 11
-15.6387
 21
315.143
  0
LINE
  8
0
 10
-15.6387
 20
315.143
 11
-15.8037
 21
315.234
  0
LINE
  8
0
 10
-15.8037
 20
315.234
 11
-15.9561
 21
315.344
  0
LINE
  8
0
 10
-15.9561
 20
315.344
 11
-16.0934
 21
315.473
  0
LINE
  8
0
 10
-16.0934
 20
315.473
 11
-16.2135
 21
315.618
  0
LINE
  8
0
 10
-16.2135
 20
315.618
 11
-16.3145
 21
315.777
  0
LINE
  8
0
 10
-16.3145
 20
315.777
 11
-16.3947
 21
315.948
  0
LINE
  8
0
 10
-16.3947
 20
315.948
 11
-16.4529
 21
316.127
  0
LINE
  8
0
 10
-16.4529
 20
316.127
 11
-16.4882
 21
316.312
  0
LINE
  8
0
 10
-16.4882
 20
316.312
 11
-16.5
 21
316.5
  0
LINE
  8
0
 10
-16.5
 20
316.5
 11
-16.4882
 21
316.688
  0
LINE
  8
0
 10
-16.4882
 20
316.688
 11
-16.4529
 21
316.873
  0
LINE
  8
0
 10
-16.4529
 20
316.873
 11
-16.3947
 21
317.052
  0
LINE
  8
0
 10
-16.3947
 20
317.052
 11
-16.3145
 21
317.223
  0
LINE
  8
0
 10
-16.3145
 20
317.223
 11
-16.2135
 21
317.382
  0
LINE
  8
0
 10
-16.2135
 20
317.382
 11
-16.0934
 21
317.527
  0
LINE
  8
0
 10
-16.0934
 20
317.527
 11
-15.9561
 21
317.656
  0
LINE
  8
0
 10
-15.9561
 20
317.656
 11
-15.8037
 21
317.766
  0
LINE
  8
0
 10
-15.8037
 20
317.766
 11
-15.6387
 21
317.857
  0
LINE
  8
0
 10
-15.6387
 20
317.857
 11
-15.4635
 21
317.927
  0
LINE
  8
0
 10
-15.4635
 20
317.927
 11
-15.2811
 21
317.973
  0
LINE
  8
0
 10
-15.2811
 20
317.973
 11
-15.0942
 21
317.997
  0
LINE
  8
0
 10
-15.0942
 20
317.997
 11
-14.9058
 21
317.997
  0
LINE
  8
0
 10
-14.9058
 20
317.997
 11
-14.7189
 21
317.973
  0
LINE
  8
0
 10
-14.7189
 20
317.973
 11
-14.5365
 21
317.927
  0
LINE
  8
0
 10
-14.5365
 20
317.927
 11
-14.3613
 21
317.857
  0
LINE
  8
0
 10
-14.3613
 20
317.857
 11
-14.1963
 21
317.766
  0
LINE
  8
0
 10
-14.1963
 20
317.766
 11
-14.0439
 21
317.656
  0
LINE
  8
0
 10
-14.0439
 20
317.656
 11
-13.9065
 21
317.527
  0
LINE
  8
0
 10
-13.9065
 20
317.527
 11
-13.7865
 21
317.382
  0
LINE
  8
0
 10
-13.7865
 20
317.382
 11
-13.6855
 21
317.223
  0
LINE
  8
0
 10
-13.6855
 20
317.223
 11
-13.6053
 21
317.052
  0
LINE
  8
0
 10
-13.6053
 20
317.052
 11
-13.5471
 21
316.873
  0
LINE
  8
0
 10
-13.5471
 20
316.873
 11
-13.5118
 21
316.688
  0
LINE
  8
0
 10
-13.5118
 20
316.688
 11
-13.5
 21
316.5
  0
LINE
  8
0
 10
-13.5
 20
316.5
 11
-13.5118
 21
316.312
  0
LINE
  8
0
 10
-13.5118
 20
316.312
 11
-13.5471
 21
316.127
  0
LINE
  8
0
 10
-13.5471
 20
316.127
 11
-13.6053
 21
315.948
  0
LINE
  8
0
 10
-13.6053
 20
315.948
 11
-13.6855
 21
315.777
  0
LINE
  8
0
 10
-13.6855
 20
315.777
 11
-13.7865
 21
315.618
  0
LINE
  8
0
 10
-13.7865
 20
315.618
 11
-13.9065
 21
315.473
  0
LINE
  8
0
 10
-13.9065
 20
315.473
 11
-14.0439
 21
315.344
  0
LINE
  8
0
 10
-14.0439
 20
315.344
 11
-14.1963
 21
315.234
  0
LINE
  8
0
 10
-14.1963
 20
315.234
 11
-14.3613
 21
315.143
  0
LINE
  8
0
 10
-14.3613
 20
315.143
 11
-14.5365
 21
315.073
  0
LINE
  8
0
 10
-14.5365
 20
315.073
 11
-14.7189
 21
315.027
  0
LINE
  8
0
 10
-14.7189
 20
315.027
 11
-14.9058
 21
315.003
  0
LINE
  8
0
 10
-14.9058
 20
315.003
 11
-15.0942
 21
315.003
  0
LINE
  8
0
 10
-15.1884
 20
306.006
 11
-15.5621
 21
306.053
  0
LINE
  8
0
 10
-15.5621
 20
306.053
 11
-15.927
 21
306.147
  0
LINE
  8
0
 10
-15.927
 20
306.147
 11
-16.2773
 21
306.286
  0
LINE
  8
0
 10
-16.2773
 20
306.286
 11
-16.6075
 21
306.467
  0
LINE
  8
0
 10
-16.6075
 20
306.467
 11
-16.9123
 21
306.688
  0
LINE
  8
0
 10
-16.9123
 20
306.688
 11
-17.1869
 21
306.946
  0
LINE
  8
0
 10
-17.1869
 20
306.946
 11
-17.427
 21
307.237
  0
LINE
  8
0
 10
-17.427
 20
307.237
 11
-17.6289
 21
307.555
  0
LINE
  8
0
 10
-17.6289
 20
307.555
 11
-17.7893
 21
307.896
  0
LINE
  8
0
 10
-17.7893
 20
307.896
 11
-17.9057
 21
308.254
  0
LINE
  8
0
 10
-17.9057
 20
308.254
 11
-17.9763
 21
308.624
  0
LINE
  8
0
 10
-17.9763
 20
308.624
 11
-18
 21
309
  0
LINE
  8
0
 10
-18
 20
309
 11
-17.9763
 21
309.376
  0
LINE
  8
0
 10
-17.9763
 20
309.376
 11
-17.9057
 21
309.746
  0
LINE
  8
0
 10
-17.9057
 20
309.746
 11
-17.7893
 21
310.104
  0
LINE
  8
0
 10
-17.7893
 20
310.104
 11
-17.6289
 21
310.445
  0
LINE
  8
0
 10
-17.6289
 20
310.445
 11
-17.427
 21
310.763
  0
LINE
  8
0
 10
-17.427
 20
310.763
 11
-17.1869
 21
311.054
  0
LINE
  8
0
 10
-17.1869
 20
311.054
 11
-16.9123
 21
311.312
  0
LINE
  8
0
 10
-16.9123
 20
311.312
 11
-16.6075
 21
311.533
  0
LINE
  8
0
 10
-16.6075
 20
311.533
 11
-16.2773
 21
311.714
  0
LINE
  8
0
 10
-16.2773
 20
311.714
 11
-15.927
 21
311.853
  0
LINE
  8
0
 10
-15.927
 20
311.853
 11
-15.5621
 21
311.947
  0
LINE
  8
0
 10
-15.5621
 20
311.947
 11
-15.1884
 21
311.994
  0
LINE
  8
0
 10
-15.1884
 20
311.994
 11
-14.8116
 21
311.994
  0
LINE
  8
0
 10
-14.8116
 20
311.994
 11
-14.4379
 21
311.947
  0
LINE
  8
0
 10
-14.4379
 20
311.947
 11
-14.0729
 21
311.853
  0
LINE
  8
0
 10
-14.0729
 20
311.853
 11
-13.7227
 21
311.714
  0
LINE
  8
0
 10
-13.7227
 20
311.714
 11
-13.3925
 21
311.533
  0
LINE
  8
0
 10
-13.3925
 20
311.533
 11
-13.0877
 21
311.312
  0
LINE
  8
0
 10
-13.0877
 20
311.312
 11
-12.8131
 21
311.054
  0
LINE
  8
0
 10
-12.8131
 20
311.054
 11
-12.5729
 21
310.763
  0
LINE
  8
0
 10
-12.5729
 20
310.763
 11
-12.3711
 21
310.445
  0
LINE
  8
0
 10
-12.3711
 20
310.445
 11
-12.2107
 21
310.104
  0
LINE
  8
0
 10
-12.2107
 20
310.104
 11
-12.0942
 21
309.746
  0
LINE
  8
0
 10
-12.0942
 20
309.746
 11
-12.0237
 21
309.376
  0
LINE
  8
0
 10
-12.0237
 20
309.376
 11
-12
 21
309
  0
LINE
  8
0
 10
-12
 20
309
 11
-12.0237
 21
308.624
  0
LINE
  8
0
 10
-12.0237
 20
308.624
 11
-12.0942
 21
308.254
  0
LINE
  8
0
 10
-12.0942
 20
308.254
 11
-12.2107
 21
307.896
  0
LINE
  8
0
 10
-12.2107
 20
307.896
 11
-12.3711
 21
307.555
  0
LINE
  8
0
 10
-12.3711
 20
307.555
 11
-12.5729
 21
307.237
  0
LINE
  8
0
 10
-12.5729
 20
307.237
 11
-12.8131
 21
306.946
  0
LINE
  8
0
 10
-12.8131
 20
306.946
 11
-13.0877
 21
306.688
  0
LINE
  8
0
 10
-13.0877
 20
306.688
 11
-13.3925
 21
306.467
  0
LINE
  8
0
 10
-13.3925
 20
306.467
 11
-13.7227
 21
306.286
  0
LINE
  8
0
 10
-13.7227
 20
306.286
 11
-14.0729
 21
306.147
  0
LINE
  8
0
 10
-14.0729
 20
306.147
 11
-14.4379
 21
306.053
  0
LINE
  8
0
 10
-14.4379
 20
306.053
 11
-14.8116
 21
306.006
  0
LINE
  8
0
 10
-14.8116
 20
306.006
 11
-15.1884
 21
306.006
  0
LINE
  8
0
 10
17.9369
 20
248.089
 11
18.5451
 21
248.245
  0
LINE
  8
0
 10
18.5451
 20
248.245
 11
19.1289
 21
248.476
  0
LINE
  8
0
 10
19.1289
 20
248.476
 11
19.6791
 21
248.778
  0
LINE
  8
0
 10
19.6791
 20
248.778
 11
20.1871
 21
249.147
  0
LINE
  8
0
 10
20.1871
 20
249.147
 11
20.6448
 21
249.577
  0
LINE
  8
0
 10
20.6448
 20
249.577
 11
21.0451
 21
250.061
  0
LINE
  8
0
 10
21.0451
 20
250.061
 11
21.3815
 21
250.591
  0
LINE
  8
0
 10
21.3815
 20
250.591
 11
21.6489
 21
251.159
  0
LINE
  8
0
 10
21.6489
 20
251.159
 11
21.8429
 21
251.757
  0
LINE
  8
0
 10
21.8429
 20
251.757
 11
21.9606
 21
252.373
  0
LINE
  8
0
 10
21.9606
 20
252.373
 11
22
 21
253
  0
LINE
  8
0
 10
22
 20
253
 11
22
 21
287
  0
LINE
  8
0
 10
22
 20
287
 11
21.9606
 21
287.627
  0
LINE
  8
0
 10
21.9606
 20
287.627
 11
21.8429
 21
288.243
  0
LINE
  8
0
 10
21.8429
 20
288.243
 11
21.6489
 21
288.841
  0
LINE
  8
0
 10
21.6489
 20
288.841
 11
21.3815
 21
289.409
  0
LINE
  8
0
 10
21.3815
 20
289.409
 11
21.0451
 21
289.939
  0
LINE
  8
0
 10
21.0451
 20
289.939
 11
20.6448
 21
290.423
  0
LINE
  8
0
 10
20.6448
 20
290.423
 11
20.1871
 21
290.853
  0
LINE
  8
0
 10
20.1871
 20
290.853
 11
19.6791
 21
291.222
  0
LINE
  8
0
 10
19.6791
 20
291.222
 11
19.1289
 21
291.524
  0
LINE
  8
0
 10
19.1289
 20
291.524
 11
18.5451
 21
291.755
  0
LINE
  8
0
 10
18.5451
 20
291.755
 11
17.9369
 21
291.911
  0
LINE
  8
0
 10
17.9369
 20
291.911
 11
17.3139
 21
291.99
  0
LINE
  8
0
 10
17.3139
 20
291.99
 11
-17.3139
 21
291.99
  0
LINE
  8
0
 10
-17.3139
 20
291.99
 11
-17.9369
 21
291.911
  0
LINE
  8
0
 10
-17.9369
 20
291.911
 11
-18.5451
 21
291.755
  0
LINE
  8
0
 10
-18.5451
 20
291.755
 11
-19.1289
 21
291.524
  0
LINE
  8
0
 10
-19.1289
 20
291.524
 11
-19.6791
 21
291.222
  0
LINE
  8
0
 10
-19.6791
 20
291.222
 11
-20.1871
 21
290.853
  0
LINE
  8
0
 10
-20.1871
 20
290.853
 11
-20.6448
 21
290.423
  0
LINE
  8
0
 10
-20.6448
 20
290.423
 11
-21.0451
 21
289.939
  0
LINE
  8
0
 10
-21.0451
 20
289.939
 11
-21.3815
 21
289.409
  0
LINE
  8
0
 10
-21.3815
 20
289.409
 11
-21.6489
 21
288.841
  0
LINE
  8
0
 10
-21.6489
 20
288.841
 11
-21.8429
 21
288.243
  0
LINE
  8
0
 10
-21.8429
 20
288.243
 11
-21.9606
 21
287.627
  0
LINE
  8
0
 10
-21.9606
 20
287.627
 11
-22
 21
287
  0
LINE
  8
0
 10
-22
 20
287
 11
-22
 21
253
  0
LINE
  8
0
 10
-22
 20
253
 11
-21.9606
 21
252.373
  0
LINE
  8
0
 10
-21.9606
 20
252.373
 11
-21.8429
 21
251.757
  0
LINE
  8
0
 10
-21.8429
 20
251.757
 11
-21.6489
 21
251.159
  0
LINE
  8
0
 10
-21.6489
 20
251.159
 11
-21.3815
 21
250.591
  0
LINE
  8
0
 10
-21.3815
 20
250.591
 11
-21.0451
 21
250.061
  0
LINE
  8
0
 10
-21.0451
 20
250.061
 11
-20.6448
 21
249.577
  0
LINE
  8
0
 10
-20.6448
 20
249.577
 11
-20.1871
 21
249.147
  0
LINE
  8
0
 10
-20.1871
 20
249.147
 11
-19.6791
 21
248.778
  0
LINE
  8
0
 10
-19.6791
 20
248.778
 11
-19.1289
 21
248.476
  0
LINE
  8
0
 10
-19.1289
 20
248.476
 11
-18.5451
 21
248.245
  0
LINE
  8
0
 10
-18.5451
 20
248.245
 11
-17.9369
 21
248.089
  0
LINE
  8
0
 10
-17.9369
 20
248.089
 11
-17.3139
 21
248.01
  0
LINE
  8
0
 10
-17.3139
 20
248.01
 11
17.3139
 21
248.01
  0
LINE
  8
0
 10
17.3139
 20
248.01
 11
17.9369
 21
248.089
  0
LINE
  8
0
 10
-15.1884
 20
282.006
 11
-15.5621
 21
282.053
  0
LINE
  8
0
 10
-15.5621
 20
282.053
 11
-15.927
 21
282.147
  0
LINE
  8
0
 10
-15.927
 20
282.147
 11
-16.2773
 21
282.286
  0
LINE
  8
0
 10
-16.2773
 20
282.286
 11
-16.6075
 21
282.467
  0
LINE
  8
0
 10
-16.6075
 20
282.467
 11
-16.9123
 21
282.688
  0
LINE
  8
0
 10
-16.9123
 20
282.688
 11
-17.1869
 21
282.946
  0
LINE
  8
0
 10
-17.1869
 20
282.946
 11
-17.427
 21
283.237
  0
LINE
  8
0
 10
-17.427
 20
283.237
 11
-17.6289
 21
283.555
  0
LINE
  8
0
 10
-17.6289
 20
283.555
 11
-17.7893
 21
283.896
  0
LINE
  8
0
 10
-17.7893
 20
283.896
 11
-17.9057
 21
284.254
  0
LINE
  8
0
 10
-17.9057
 20
284.254
 11
-17.9763
 21
284.624
  0
LINE
  8
0
 10
-17.9763
 20
284.624
 11
-18
 21
285
  0
LINE
  8
0
 10
-18
 20
285
 11
-17.9763
 21
285.376
  0
LINE
  8
0
 10
-17.9763
 20
285.376
 11
-17.9057
 21
285.746
  0
LINE
  8
0
 10
-17.9057
 20
285.746
 11
-17.7893
 21
286.104
  0
LINE
  8
0
 10
-17.7893
 20
286.104
 11
-17.6289
 21
286.445
  0
LINE
  8
0
 10
-17.6289
 20
286.445
 11
-17.427
 21
286.763
  0
LINE
  8
0
 10
-17.427
 20
286.763
 11
-17.1869
 21
287.054
  0
LINE
  8
0
 10
-17.1869
 20
287.054
 11
-16.9123
 21
287.312
  0
LINE
  8
0
 10
-16.9123
 20
287.312
 11
-16.6075
 21
287.533
  0
LINE
  8
0
 10
-16.6075
 20
287.533
 11
-16.2773
 21
287.714
  0
LINE
  8
0
 10
-16.2773
 20
287.714
 11
-15.927
 21
287.853
  0
LINE
  8
0
 10
-15.927
 20
287.853
 11
-15.5621
 21
287.947
  0
LINE
  8
0
 10
-15.5621
 20
287.947
 11
-15.1884
 21
287.994
  0
LINE
  8
0
 10
-15.1884
 20
287.994
 11
-14.8116
 21
287.994
  0
LINE
  8
0
 10
-14.8116
 20
287.994
 11
-14.4379
 21
287.947
  0
LINE
  8
0
 10
-14.4379
 20
287.947
 11
-14.0729
 21
287.853
  0
LINE
  8
0
 10
-14.0729
 20
287.853
 11
-13.7227
 21
287.714
  0
LINE
  8
0
 10
-13.7227
 20
287.714
 11
-13.3925
 21
287.533
  0
LINE
  8
0
 10
-13.3925
 20
287.533
 11
-13.0877
 21
287.312
  0
LINE
  8
0
 10
-13.0877
 20
287.312
 11
-12.8131
 21
287.054
  0
LINE
  8
0
 10
-12.8131
 20
287.054
 11
-12.5729
 21
286.763
  0
LINE
  8
0
 10
-12.5729
 20
286.763
 11
-12.3711
 21
286.445
  0
LINE
  8
0
 10
-12.3711
 20
286.445
 11
-12.2107
 21
286.104
  0
LINE
  8
0
 10
-12.2107
 20
286.104
 11
-12.0942
 21
285.746
  0
LINE
  8
0
 10
-12.0942
 20
285.746
 11
-12.0237
 21
285.376
  0
LINE
  8
0
 10
-12.0237
 20
285.376
 11
-12
 21
285
  0
LINE
  8
0
 10
-12
 20
285
 11
-12.0237
 21
284.624
  0
LINE
  8
0
 10
-12.0237
 20
284.624
 11
-12.0942
 21
284.254
  0
LINE
  8
0
 10
-12.0942
 20
284.254
 11
-12.2107
 21
283.896
  0
LINE
  8
0
 10
-12.2107
 20
283.896
 11
-12.3711
 21
283.555
  0
LINE
  8
0
 10
-12.3711
 20
283.555
 11
-12.5729
 21
283.237
  0
LINE
  8
0
 10
-12.5729
 20
283.237
 11
-12.8131
 21
282.946
  0
LINE
  8
0
 10
-12.8131
 20
282.946
 11
-13.0877
 21
282.688
  0
LINE
  8
0
 10
-13.0877
 20
282.688
 11
-13.3925
 21
282.467
  0
LINE
  8
0
 10
-13.3925
 20
282.467
 11
-13.7227
 21
282.286
  0
LINE
  8
0
 10
-13.7227
 20
282.286
 11
-14.0729
 21
282.147
  0
LINE
  8
0
 10
-14.0729
 20
282.147
 11
-14.4379
 21
282.053
  0
LINE
  8
0
 10
-14.4379
 20
282.053
 11
-14.8116
 21
282.006
  0
LINE
  8
0
 10
-14.8116
 20
282.006
 11
-15.1884
 21
282.006
  0
LINE
  8
0
 10
-15.0942
 20
276.003
 11
-15.2811
 21
276.027
  0
LINE
  8
0
 10
-15.2811
 20
276.027
 11
-15.4635
 21
276.073
  0
LINE
  8
0
 10
-15.4635
 20
276.073
 11
-15.6387
 21
276.143
  0
LINE
  8
0
 10
-15.6387
 20
276.143
 11
-15.8037
 21
276.234
  0
LINE
  8
0
 10
-15.8037
 20
276.234
 11
-15.9561
 21
276.344
  0
LINE
  8
0
 10
-15.9561
 20
276.344
 11
-16.0934
 21
276.473
  0
LINE
  8
0
 10
-16.0934
 20
276.473
 11
-16.2135
 21
276.618
  0
LINE
  8
0
 10
-16.2135
 20
276.618
 11
-16.3145
 21
276.777
  0
LINE
  8
0
 10
-16.3145
 20
276.777
 11
-16.3947
 21
276.948
  0
LINE
  8
0
 10
-16.3947
 20
276.948
 11
-16.4529
 21
277.127
  0
LINE
  8
0
 10
-16.4529
 20
277.127
 11
-16.4882
 21
277.312
  0
LINE
  8
0
 10
-16.4882
 20
277.312
 11
-16.5
 21
277.5
  0
LINE
  8
0
 10
-16.5
 20
277.5
 11
-16.4882
 21
277.688
  0
LINE
  8
0
 10
-16.4882
 20
277.688
 11
-16.4529
 21
277.873
  0
LINE
  8
0
 10
-16.4529
 20
277.873
 11
-16.3947
 21
278.052
  0
LINE
  8
0
 10
-16.3947
 20
278.052
 11
-16.3145
 21
278.223
  0
LINE
  8
0
 10
-16.3145
 20
278.223
 11
-16.2135
 21
278.382
  0
LINE
  8
0
 10
-16.2135
 20
278.382
 11
-16.0934
 21
278.527
  0
LINE
  8
0
 10
-16.0934
 20
278.527
 11
-15.9561
 21
278.656
  0
LINE
  8
0
 10
-15.9561
 20
278.656
 11
-15.8037
 21
278.766
  0
LINE
  8
0
 10
-15.8037
 20
278.766
 11
-15.6387
 21
278.857
  0
LINE
  8
0
 10
-15.6387
 20
278.857
 11
-15.4635
 21
278.927
  0
LINE
  8
0
 10
-15.4635
 20
278.927
 11
-15.2811
 21
278.973
  0
LINE
  8
0
 10
-15.2811
 20
278.973
 11
-15.0942
 21
278.997
  0
LINE
  8
0
 10
-15.0942
 20
278.997
 11
-14.9058
 21
278.997
  0
LINE
  8
0
 10
-14.9058
 20
278.997
 11
-14.7189
 21
278.973
  0
LINE
  8
0
 10
-14.7189
 20
278.973
 11
-14.5365
 21
278.927
  0
LINE
  8
0
 10
-14.5365
 20
278.927
 11
-14.3613
 21
278.857
  0
LINE
  8
0
 10
-14.3613
 20
278.857
 11
-14.1963
 21
278.766
  0
LINE
  8
0
 10
-14.1963
 20
278.766
 11
-14.0439
 21
278.656
  0
LINE
  8
0
 10
-14.0439
 20
278.656
 11
-13.9065
 21
278.527
  0
LINE
  8
0
 10
-13.9065
 20
278.527
 11
-13.7865
 21
278.382
  0
LINE
  8
0
 10
-13.7865
 20
278.382
 11
-13.6855
 21
278.223
  0
LINE
  8
0
 10
-13.6855
 20
278.223
 11
-13.6053
 21
278.052
  0
LINE
  8
0
 10
-13.6053
 20
278.052
 11
-13.5471
 21
277.873
  0
LINE
  8
0
 10
-13.5471
 20
277.873
 11
-13.5118
 21
277.688
  0
LINE
  8
0
 10
-13.5118
 20
277.688
 11
-13.5
 21
277.5
  0
LINE
  8
0
 10
-13.5
 20
277.5
 11
-13.5118
 21
277.312
  0
LINE
  8
0
 10
-13.5118
 20
277.312
 11
-13.5471
 21
277.127
  0
LINE
  8
0
 10
-13.5471
 20
277.127
 11
-13.6053
 21
276.948
  0
LINE
  8
0
 10
-13.6053
 20
276.948
 11
-13.6855
 21
276.777
  0
LINE
  8
0
 10
-13.6855
 20
276.777
 11
-13.7865
 21
276.618
  0
LINE
  8
0
 10
-13.7865
 20
276.618
 11
-13.9065
 21
276.473
  0
LINE
  8
0
 10
-13.9065
 20
276.473
 11
-14.0439
 21
276.344
  0
LINE
  8
0
 10
-14.0439
 20
276.344
 11
-14.1963
 21
276.234
  0
LINE
  8
0
 10
-14.1963
 20
276.234
 11
-14.3613
 21
276.143
  0
LINE
  8
0
 10
-14.3613
 20
276.143
 11
-14.5365
 21
276.073
  0
LINE
  8
0
 10
-14.5365
 20
276.073
 11
-14.7189
 21
276.027
  0
LINE
  8
0
 10
-14.7189
 20
276.027
 11
-14.9058
 21
276.003
  0
LINE
  8
0
 10
-14.9058
 20
276.003
 11
-15.0942
 21
276.003
  0
LINE
  8
0
 10
-15.1884
 20
267.006
 11
-15.5621
 21
267.053
  0
LINE
  8
0
 10
-15.5621
 20
267.053
 11
-15.927
 21
267.147
  0
LINE
  8
0
 10
-15.927
 20
267.147
 11
-16.2773
 21
267.286
  0
LINE
  8
0
 10
-16.2773
 20
267.286
 11
-16.6075
 21
267.467
  0
LINE
  8
0
 10
-16.6075
 20
267.467
 11
-16.9123
 21
267.688
  0
LINE
  8
0
 10
-16.9123
 20
267.688
 11
-17.1869
 21
267.946
  0
LINE
  8
0
 10
-17.1869
 20
267.946
 11
-17.427
 21
268.237
  0
LINE
  8
0
 10
-17.427
 20
268.237
 11
-17.6289
 21
268.555
  0
LINE
  8
0
 10
-17.6289
 20
268.555
 11
-17.7893
 21
268.896
  0
LINE
  8
0
 10
-17.7893
 20
268.896
 11
-17.9057
 21
269.254
  0
LINE
  8
0
 10
-17.9057
 20
269.254
 11
-17.9763
 21
269.624
  0
LINE
  8
0
 10
-17.9763
 20
269.624
 11
-18
 21
270
  0
LINE
  8
0
 10
-18
 20
270
 11
-17.9763
 21
270.376
  0
LINE
  8
0
 10
-17.9763
 20
270.376
 11
-17.9057
 21
270.746
  0
LINE
  8
0
 10
-17.9057
 20
270.746
 11
-17.7893
 21
271.104
  0
LINE
  8
0
 10
-17.7893
 20
271.104
 11
-17.6289
 21
271.445
  0
LINE
  8
0
 10
-17.6289
 20
271.445
 11
-17.427
 21
271.763
  0
LINE
  8
0
 10
-17.427
 20
271.763
 11
-17.1869
 21
272.054
  0
LINE
  8
0
 10
-17.1869
 20
272.054
 11
-16.9123
 21
272.312
  0
LINE
  8
0
 10
-16.9123
 20
272.312
 11
-16.6075
 21
272.533
  0
LINE
  8
0
 10
-16.6075
 20
272.533
 11
-16.2773
 21
272.714
  0
LINE
  8
0
 10
-16.2773
 20
272.714
 11
-15.927
 21
272.853
  0
LINE
  8
0
 10
-15.927
 20
272.853
 11
-15.5621
 21
272.947
  0
LINE
  8
0
 10
-15.5621
 20
272.947
 11
-15.1884
 21
272.994
  0
LINE
  8
0
 10
-15.1884
 20
272.994
 11
-14.8116
 21
272.994
  0
LINE
  8
0
 10
-14.8116
 20
272.994
 11
-14.4379
 21
272.947
  0
LINE
  8
0
 10
-14.4379
 20
272.947
 11
-14.0729
 21
272.853
  0
LINE
  8
0
 10
-14.0729
 20
272.853
 11
-13.7227
 21
272.714
  0
LINE
  8
0
 10
-13.7227
 20
272.714
 11
-13.3925
 21
272.533
  0
LINE
  8
0
 10
-13.3925
 20
272.533
 11
-13.0877
 21
272.312
  0
LINE
  8
0
 10
-13.0877
 20
272.312
 11
-12.8131
 21
272.054
  0
LINE
  8
0
 10
-12.8131
 20
272.054
 11
-12.5729
 21
271.763
  0
LINE
  8
0
 10
-12.5729
 20
271.763
 11
-12.3711
 21
271.445
  0
LINE
  8
0
 10
-12.3711
 20
271.445
 11
-12.2107
 21
271.104
  0
LINE
  8
0
 10
-12.2107
 20
271.104
 11
-12.0942
 21
270.746
  0
LINE
  8
0
 10
-12.0942
 20
270.746
 11
-12.0237
 21
270.376
  0
LINE
  8
0
 10
-12.0237
 20
270.376
 11
-12
 21
270
  0
LINE
  8
0
 10
-12
 20
270
 11
-12.0237
 21
269.624
  0
LINE
  8
0
 10
-12.0237
 20
269.624
 11
-12.0942
 21
269.254
  0
LINE
  8
0
 10
-12.0942
 20
269.254
 11
-12.2107
 21
268.896
  0
LINE
  8
0
 10
-12.2107
 20
268.896
 11
-12.3711
 21
268.555
  0
LINE
  8
0
 10
-12.3711
 20
268.555
 11
-12.5729
 21
268.237
  0
LINE
  8
0
 10
-12.5729
 20
268.237
 11
-12.8131
 21
267.946
  0
LINE
  8
0
 10
-12.8131
 20
267.946
 11
-13.0877
 21
267.688
  0
LINE
  8
0
 10
-13.0877
 20
267.688
 11
-13.3925
 21
267.467
  0
LINE
  8
0
 10
-13.3925
 20
267.467
 11
-13.7227
 21
267.286
  0
LINE
  8
0
 10
-13.7227
 20
267.286
 11
-14.0729
 21
267.147
  0
LINE
  8
0
 10
-14.0729
 20
267.147
 11
-14.4379
 21
267.053
  0
LINE
  8
0
 10
-14.4379
 20
267.053
 11
-14.8116
 21
267.006
  0
LINE
  8
0
 10
-14.8116
 20
267.006
 11
-15.1884
 21
267.006
  0
LINE
  8
0
 10
-15.0942
 20
261.003
 11
-15.2811
 21
261.027
  0
LINE
  8
0
 10
-15.2811
 20
261.027
 11
-15.4635
 21
261.073
  0
LINE
  8
0
 10
-15.4635
 20
261.073
 11
-15.6387
 21
261.143
  0
LINE
  8
0
 10
-15.6387
 20
261.143
 11
-15.8037
 21
261.234
  0
LINE
  8
0
 10
-15.8037
 20
261.234
 11
-15.9561
 21
261.344
  0
LINE
  8
0
 10
-15.9561
 20
261.344
 11
-16.0934
 21
261.473
  0
LINE
  8
0
 10
-16.0934
 20
261.473
 11
-16.2135
 21
261.618
  0
LINE
  8
0
 10
-16.2135
 20
261.618
 11
-16.3145
 21
261.777
  0
LINE
  8
0
 10
-16.3145
 20
261.777
 11
-16.3947
 21
261.948
  0
LINE
  8
0
 10
-16.3947
 20
261.948
 11
-16.4529
 21
262.127
  0
LINE
  8
0
 10
-16.4529
 20
262.127
 11
-16.4882
 21
262.312
  0
LINE
  8
0
 10
-16.4882
 20
262.312
 11
-16.5
 21
262.5
  0
LINE
  8
0
 10
-16.5
 20
262.5
 11
-16.4882
 21
262.688
  0
LINE
  8
0
 10
-16.4882
 20
262.688
 11
-16.4529
 21
262.873
  0
LINE
  8
0
 10
-16.4529
 20
262.873
 11
-16.3947
 21
263.052
  0
LINE
  8
0
 10
-16.3947
 20
263.052
 11
-16.3145
 21
263.223
  0
LINE
  8
0
 10
-16.3145
 20
263.223
 11
-16.2135
 21
263.382
  0
LINE
  8
0
 10
-16.2135
 20
263.382
 11
-16.0934
 21
263.527
  0
LINE
  8
0
 10
-16.0934
 20
263.527
 11
-15.9561
 21
263.656
  0
LINE
  8
0
 10
-15.9561
 20
263.656
 11
-15.8037
 21
263.766
  0
LINE
  8
0
 10
-15.8037
 20
263.766
 11
-15.6387
 21
263.857
  0
LINE
  8
0
 10
-15.6387
 20
263.857
 11
-15.4635
 21
263.927
  0
LINE
  8
0
 10
-15.4635
 20
263.927
 11
-15.2811
 21
263.973
  0
LINE
  8
0
 10
-15.2811
 20
263.973
 11
-15.0942
 21
263.997
  0
LINE
  8
0
 10
-15.0942
 20
263.997
 11
-14.9058
 21
263.997
  0
LINE
  8
0
 10
-14.9058
 20
263.997
 11
-14.7189
 21
263.973
  0
LINE
  8
0
 10
-14.7189
 20
263.973
 11
-14.5365
 21
263.927
  0
LINE
  8
0
 10
-14.5365
 20
263.927
 11
-14.3613
 21
263.857
  0
LINE
  8
0
 10
-14.3613
 20
263.857
 11
-14.1963
 21
263.766
  0
LINE
  8
0
 10
-14.1963
 20
263.766
 11
-14.0439
 21
263.656
  0
LINE
  8
0
 10
-14.0439
 20
263.656
 11
-13.9065
 21
263.527
  0
LINE
  8
0
 10
-13.9065
 20
263.527
 11
-13.7865
 21
263.382
  0
LINE
  8
0
 10
-13.7865
 20
263.382
 11
-13.6855
 21
263.223
  0
LINE
  8
0
 10
-13.6855
 20
263.223
 11
-13.6053
 21
263.052
  0
LINE
  8
0
 10
-13.6053
 20
263.052
 11
-13.5471
 21
262.873
  0
LINE
  8
0
 10
-13.5471
 20
262.873
 11
-13.5118
 21
262.688
  0
LINE
  8
0
 10
-13.5118
 20
262.688
 11
-13.5
 21
262.5
  0
LINE
  8
0
 10
-13.5
 20
262.5
 11
-13.5118
 21
262.312
  0
LINE
  8
0
 10
-13.5118
 20
262.312
 11
-13.5471
 21
262.127
  0
LINE
  8
0
 10
-13.5471
 20
262.127
 11
-13.6053
 21
261.948
  0
LINE
  8
0
 10
-13.6053
 20
261.948
 11
-13.6855
 21
261.777
  0
LINE
  8
0
 10
-13.6855
 20
261.777
 11
-13.7865
 21
261.618
  0
LINE
  8
0
 10
-13.7865
 20
261.618
 11
-13.9065
 21
261.473
  0
LINE
  8
0
 10
-13.9065
 20
261.473
 11
-14.0439
 21
261.344
  0
LINE
  8
0
 10
-14.0439
 20
261.344
 11
-14.1963
 21
261.234
  0
LINE
  8
0
 10
-14.1963
 20
261.234
 11
-14.3613
 21
261.143
  0
LINE
  8
0
 10
-14.3613
 20
261.143
 11
-14.5365
 21
261.073
  0
LINE
  8
0
 10
-14.5365
 20
261.073
 11
-14.7189
 21
261.027
  0
LINE
  8
0
 10
-14.7189
 20
261.027
 11
-14.9058
 21
261.003
  0
LINE
  8
0
 10
-14.9058
 20
261.003
 11
-15.0942
 21
261.003
  0
LINE
  8
0
 10
-15.1884
 20
252.006
 11
-15.5621
 21
252.053
  0
LINE
  8
0
 10
-15.5621
 20
252.053
 11
-15.927
 21
252.147
  0
LINE
  8
0
 10
-15.927
 20
252.147
 11
-16.2773
 21
252.286
  0
LINE
  8
0
 10
-16.2773
 20
252.286
 11
-16.6075
 21
252.467
  0
LINE
  8
0
 10
-16.6075
 20
252.467
 11
-16.9123
 21
252.688
  0
LINE
  8
0
 10
-16.9123
 20
252.688
 11
-17.1869
 21
252.946
  0
LINE
  8
0
 10
-17.1869
 20
252.946
 11
-17.427
 21
253.237
  0
LINE
  8
0
 10
-17.427
 20
253.237
 11
-17.6289
 21
253.555
  0
LINE
  8
0
 10
-17.6289
 20
253.555
 11
-17.7893
 21
253.896
  0
LINE
  8
0
 10
-17.7893
 20
253.896
 11
-17.9057
 21
254.254
  0
LINE
  8
0
 10
-17.9057
 20
254.254
 11
-17.9763
 21
254.624
  0
LINE
  8
0
 10
-17.9763
 20
254.624
 11
-18
 21
255
  0
LINE
  8
0
 10
-18
 20
255
 11
-17.9763
 21
255.376
  0
LINE
  8
0
 10
-17.9763
 20
255.376
 11
-17.9057
 21
255.746
  0
LINE
  8
0
 10
-17.9057
 20
255.746
 11
-17.7893
 21
256.104
  0
LINE
  8
0
 10
-17.7893
 20
256.104
 11
-17.6289
 21
256.445
  0
LINE
  8
0
 10
-17.6289
 20
256.445
 11
-17.427
 21
256.763
  0
LINE
  8
0
 10
-17.427
 20
256.763
 11
-17.1869
 21
257.054
  0
LINE
  8
0
 10
-17.1869
 20
257.054
 11
-16.9123
 21
257.312
  0
LINE
  8
0
 10
-16.9123
 20
257.312
 11
-16.6075
 21
257.533
  0
LINE
  8
0
 10
-16.6075
 20
257.533
 11
-16.2773
 21
257.714
  0
LINE
  8
0
 10
-16.2773
 20
257.714
 11
-15.927
 21
257.853
  0
LINE
  8
0
 10
-15.927
 20
257.853
 11
-15.5621
 21
257.947
  0
LINE
  8
0
 10
-15.5621
 20
257.947
 11
-15.1884
 21
257.994
  0
LINE
  8
0
 10
-15.1884
 20
257.994
 11
-14.8116
 21
257.994
  0
LINE
  8
0
 10
-14.8116
 20
257.994
 11
-14.4379
 21
257.947
  0
LINE
  8
0
 10
-14.4379
 20
257.947
 11
-14.0729
 21
257.853
  0
LINE
  8
0
 10
-14.0729
 20
257.853
 11
-13.7227
 21
257.714
  0
LINE
  8
0
 10
-13.7227
 20
257.714
 11
-13.3925
 21
257.533
  0
LINE
  8
0
 10
-13.3925
 20
257.533
 11
-13.0877
 21
257.312
  0
LINE
  8
0
 10
-13.0877
 20
257.312
 11
-12.8131
 21
257.054
  0
LINE
  8
0
 10
-12.8131
 20
257.054
 11
-12.5729
 21
256.763
  0
LINE
  8
0
 10
-12.5729
 20
256.763
 11
-12.3711
 21
256.445
  0
LINE
  8
0
 10
-12.3711
 20
256.445
 11
-12.2107
 21
256.104
  0
LINE
  8
0
 10
-12.2107
 20
256.104
 11
-12.0942
 21
255.746
  0
LINE
  8
0
 10
-12.0942
 20
255.746
 11
-12.0237
 21
255.376
  0
LINE
  8
0
 10
-12.0237
 20
255.376
 11
-12
 21
255
  0
LINE
  8
0
 10
-12
 20
255
 11
-12.0237
 21
254.624
  0
LINE
  8
0
 10
-12.0237
 20
254.624
 11
-12.0942
 21
254.254
  0
LINE
  8
0
 10
-12.0942
 20
254.254
 11
-12.2107
 21
253.896
  0
LINE
  8
0
 10
-12.2107
 20
253.896
 11
-12.3711
 21
253.555
  0
LINE
  8
0
 10
-12.3711
 20
253.555
 11
-12.5729
 21
253.237
  0
LINE
  8
0
 10
-12.5729
 20
253.237
 11
-12.8131
 21
252.946
  0
LINE
  8
0
 10
-12.8131
 20
252.946
 11
-13.0877
 21
252.688
  0
LINE
  8
0
 10
-13.0877
 20
252.688
 11
-13.3925
 21
252.467
  0
LINE
  8
0
 10
-13.3925
 20
252.467
 11
-13.7227
 21
252.286
  0
LINE
  8
0
 10
-13.7227
 20
252.286
 11
-14.0729
 21
252.147
  0
LINE
  8
0
 10
-14.0729
 20
252.147
 11
-14.4379
 21
252.053
  0
LINE
  8
0
 10
-14.4379
 20
252.053
 11
-14.8116
 21
252.006
  0
LINE
  8
0
 10
-14.8116
 20
252.006
 11
-15.1884
 21
252.006
  0
ENDSEC
  0
SECTION
  2
OBJECTS
  0
DICTIONARY
  0
ENDSEC
  0
EOF
