  0
SECTION
  2
BLOCKS
  0
ENDSEC
  0
SECTION
  2
ENTITIES
  0
LINE
  8
0
 10
242.937
 20
65.0886
 11
243.545
 21
65.2447
  0
LINE
  8
0
 10
243.545
 20
65.2447
 11
244.129
 21
65.4759
  0
LINE
  8
0
 10
244.129
 20
65.4759
 11
244.679
 21
65.7784
  0
LINE
  8
0
 10
244.679
 20
65.7784
 11
245.187
 21
66.1474
  0
LINE
  8
0
 10
245.187
 20
66.1474
 11
245.645
 21
66.5773
  0
LINE
  8
0
 10
245.645
 20
66.5773
 11
246.045
 21
67.0611
  0
LINE
  8
0
 10
246.045
 20
67.0611
 11
246.382
 21
67.5912
  0
LINE
  8
0
 10
246.382
 20
67.5912
 11
246.649
 21
68.1594
  0
LINE
  8
0
 10
246.649
 20
68.1594
 11
246.843
 21
68.7566
  0
LINE
  8
0
 10
246.843
 20
68.7566
 11
246.961
 21
69.3733
  0
LINE
  8
0
 10
246.961
 20
69.3733
 11
247
 21
70
  0
LINE
  8
0
 10
247
 20
70
 11
247
 21
74
  0
LINE
  8
0
 10
247
 20
74
 11
246.961
 21
74.6267
  0
LINE
  8
0
 10
246.961
 20
74.6267
 11
246.843
 21
75.2434
  0
LINE
  8
0
 10
246.843
 20
75.2434
 11
246.649
 21
75.8406
  0
LINE
  8
0
 10
246.649
 20
75.8406
 11
246.382
 21
76.4088
  0
LINE
  8
0
 10
246.382
 20
76.4088
 11
246.045
 21
76.9389
  0
LINE
  8
0
 10
246.045
 20
76.9389
 11
245.645
 21
77.4227
  0
LINE
  8
0
 10
245.645
 20
77.4227
 11
245.187
 21
77.8526
  0
LINE
  8
0
 10
245.187
 20
77.8526
 11
244.679
 21
78.2216
  0
LINE
  8
0
 10
244.679
 20
78.2216
 11
244.129
 21
78.5241
  0
LINE
  8
0
 10
244.129
 20
78.5241
 11
243.545
 21
78.7553
  0
LINE
  8
0
 10
243.545
 20
78.7553
 11
242.937
 21
78.9114
  0
LINE
  8
0
 10
242.937
 20
78.9114
 11
242.314
 21
78.9901
  0
LINE
  8
0
 10
242.314
 20
78.9901
 11
-242.314
 21
78.9901
  0
LINE
  8
0
 10
-242.314
 20
78.9901
 11
-242.937
 21
78.9114
  0
LINE
  8
0
 10
-242.937
 20
78.9114
 11
-243.545
 21
78.7553
  0
LINE
  8
0
 10
-243.545
 20
78.7553
 11
-244.129
 21
78.5241
  0
LINE
  8
0
 10
-244.129
 20
78.5241
 11
-244.679
 21
78.2216
  0
LINE
  8
0
 10
-244.679
 20
78.2216
 11
-245.187
 21
77.8526
  0
LINE
  8
0
 10
-245.187
 20
77.8526
 11
-245.645
 21
77.4227
  0
LINE
  8
0
 10
-245.645
 20
77.4227
 11
-246.045
 21
76.9389
  0
LINE
  8
0
 10
-246.045
 20
76.9389
 11
-246.382
 21
76.4088
  0
LINE
  8
0
 10
-246.382
 20
76.4088
 11
-246.649
 21
75.8406
  0
LINE
  8
0
 10
-246.649
 20
75.8406
 11
-246.843
 21
75.2434
  0
LINE
  8
0
 10
-246.843
 20
75.2434
 11
-246.961
 21
74.6267
  0
LINE
  8
0
 10
-246.961
 20
74.6267
 11
-247
 21
74
  0
LINE
  8
0
 10
-247
 20
74
 11
-247
 21
70
  0
LINE
  8
0
 10
-247
 20
70
 11
-246.961
 21
69.3733
  0
LINE
  8
0
 10
-246.961
 20
69.3733
 11
-246.843
 21
68.7566
  0
LINE
  8
0
 10
-246.843
 20
68.7566
 11
-246.649
 21
68.1594
  0
LINE
  8
0
 10
-246.649
 20
68.1594
 11
-246.382
 21
67.5912
  0
LINE
  8
0
 10
-246.382
 20
67.5912
 11
-246.045
 21
67.0611
  0
LINE
  8
0
 10
-246.045
 20
67.0611
 11
-245.645
 21
66.5773
  0
LINE
  8
0
 10
-245.645
 20
66.5773
 11
-245.187
 21
66.1474
  0
LINE
  8
0
 10
-245.187
 20
66.1474
 11
-244.679
 21
65.7784
  0
LINE
  8
0
 10
-244.679
 20
65.7784
 11
-244.129
 21
65.4759
  0
LINE
  8
0
 10
-244.129
 20
65.4759
 11
-243.545
 21
65.2447
  0
LINE
  8
0
 10
-243.545
 20
65.2447
 11
-242.937
 21
65.0886
  0
LINE
  8
0
 10
-242.937
 20
65.0886
 11
-242.314
 21
65.0099
  0
LINE
  8
0
 10
-242.314
 20
65.0099
 11
242.314
 21
65.0099
  0
LINE
  8
0
 10
242.314
 20
65.0099
 11
242.937
 21
65.0886
  0
LINE
  8
0
 10
239.812
 20
69.0059
 11
239.438
 21
69.0531
  0
LINE
  8
0
 10
239.438
 20
69.0531
 11
239.073
 21
69.1468
  0
LINE
  8
0
 10
239.073
 20
69.1468
 11
238.723
 21
69.2855
  0
LINE
  8
0
 10
238.723
 20
69.2855
 11
238.393
 21
69.467
  0
LINE
  8
0
 10
238.393
 20
69.467
 11
238.088
 21
69.6885
  0
LINE
  8
0
 10
238.088
 20
69.6885
 11
237.813
 21
69.9464
  0
LINE
  8
0
 10
237.813
 20
69.9464
 11
237.573
 21
70.2366
  0
LINE
  8
0
 10
237.573
 20
70.2366
 11
237.371
 21
70.5547
  0
LINE
  8
0
 10
237.371
 20
70.5547
 11
237.211
 21
70.8956
  0
LINE
  8
0
 10
237.211
 20
70.8956
 11
237.094
 21
71.2539
  0
LINE
  8
0
 10
237.094
 20
71.2539
 11
237.024
 21
71.624
  0
LINE
  8
0
 10
237.024
 20
71.624
 11
237
 21
72
  0
LINE
  8
0
 10
237
 20
72
 11
237.024
 21
72.376
  0
LINE
  8
0
 10
237.024
 20
72.376
 11
237.094
 21
72.7461
  0
LINE
  8
0
 10
237.094
 20
72.7461
 11
237.211
 21
73.1044
  0
LINE
  8
0
 10
237.211
 20
73.1044
 11
237.371
 21
73.4453
  0
LINE
  8
0
 10
237.371
 20
73.4453
 11
237.573
 21
73.7634
  0
LINE
  8
0
 10
237.573
 20
73.7634
 11
237.813
 21
74.0536
  0
LINE
  8
0
 10
237.813
 20
74.0536
 11
238.088
 21
74.3115
  0
LINE
  8
0
 10
238.088
 20
74.3115
 11
238.393
 21
74.533
  0
LINE
  8
0
 10
238.393
 20
74.533
 11
238.723
 21
74.7145
  0
LINE
  8
0
 10
238.723
 20
74.7145
 11
239.073
 21
74.8532
  0
LINE
  8
0
 10
239.073
 20
74.8532
 11
239.438
 21
74.9469
  0
LINE
  8
0
 10
239.438
 20
74.9469
 11
239.812
 21
74.9941
  0
LINE
  8
0
 10
239.812
 20
74.9941
 11
240.188
 21
74.9941
  0
LINE
  8
0
 10
240.188
 20
74.9941
 11
240.562
 21
74.9469
  0
LINE
  8
0
 10
240.562
 20
74.9469
 11
240.927
 21
74.8532
  0
LINE
  8
0
 10
240.927
 20
74.8532
 11
241.277
 21
74.7145
  0
LINE
  8
0
 10
241.277
 20
74.7145
 11
241.607
 21
74.533
  0
LINE
  8
0
 10
241.607
 20
74.533
 11
241.912
 21
74.3115
  0
LINE
  8
0
 10
241.912
 20
74.3115
 11
242.187
 21
74.0536
  0
LINE
  8
0
 10
242.187
 20
74.0536
 11
242.427
 21
73.7634
  0
LINE
  8
0
 10
242.427
 20
73.7634
 11
242.629
 21
73.4453
  0
LINE
  8
0
 10
242.629
 20
73.4453
 11
242.789
 21
73.1044
  0
LINE
  8
0
 10
242.789
 20
73.1044
 11
242.906
 21
72.7461
  0
LINE
  8
0
 10
242.906
 20
72.7461
 11
242.976
 21
72.376
  0
LINE
  8
0
 10
242.976
 20
72.376
 11
243
 21
72
  0
LINE
  8
0
 10
243
 20
72
 11
242.976
 21
71.624
  0
LINE
  8
0
 10
242.976
 20
71.624
 11
242.906
 21
71.2539
  0
LINE
  8
0
 10
242.906
 20
71.2539
 11
242.789
 21
70.8956
  0
LINE
  8
0
 10
242.789
 20
70.8956
 11
242.629
 21
70.5547
  0
LINE
  8
0
 10
242.629
 20
70.5547
 11
242.427
 21
70.2366
  0
LINE
  8
0
 10
242.427
 20
70.2366
 11
242.187
 21
69.9464
  0
LINE
  8
0
 10
242.187
 20
69.9464
 11
241.912
 21
69.6885
  0
LINE
  8
0
 10
241.912
 20
69.6885
 11
241.607
 21
69.467
  0
LINE
  8
0
 10
241.607
 20
69.467
 11
241.277
 21
69.2855
  0
LINE
  8
0
 10
241.277
 20
69.2855
 11
240.927
 21
69.1468
  0
LINE
  8
0
 10
240.927
 20
69.1468
 11
240.562
 21
69.0531
  0
LINE
  8
0
 10
240.562
 20
69.0531
 11
240.188
 21
69.0059
  0
LINE
  8
0
 10
240.188
 20
69.0059
 11
239.812
 21
69.0059
  0
LINE
  8
0
 10
-240.188
 20
69.0059
 11
-240.562
 21
69.0531
  0
LINE
  8
0
 10
-240.562
 20
69.0531
 11
-240.927
 21
69.1468
  0
LINE
  8
0
 10
-240.927
 20
69.1468
 11
-241.277
 21
69.2855
  0
LINE
  8
0
 10
-241.277
 20
69.2855
 11
-241.607
 21
69.467
  0
LINE
  8
0
 10
-241.607
 20
69.467
 11
-241.912
 21
69.6885
  0
LINE
  8
0
 10
-241.912
 20
69.6885
 11
-242.187
 21
69.9464
  0
LINE
  8
0
 10
-242.187
 20
69.9464
 11
-242.427
 21
70.2366
  0
LINE
  8
0
 10
-242.427
 20
70.2366
 11
-242.629
 21
70.5547
  0
LINE
  8
0
 10
-242.629
 20
70.5547
 11
-242.789
 21
70.8956
  0
LINE
  8
0
 10
-242.789
 20
70.8956
 11
-242.906
 21
71.2539
  0
LINE
  8
0
 10
-242.906
 20
71.2539
 11
-242.976
 21
71.624
  0
LINE
  8
0
 10
-242.976
 20
71.624
 11
-243
 21
72
  0
LINE
  8
0
 10
-243
 20
72
 11
-242.976
 21
72.376
  0
LINE
  8
0
 10
-242.976
 20
72.376
 11
-242.906
 21
72.7461
  0
LINE
  8
0
 10
-242.906
 20
72.7461
 11
-242.789
 21
73.1044
  0
LINE
  8
0
 10
-242.789
 20
73.1044
 11
-242.629
 21
73.4453
  0
LINE
  8
0
 10
-242.629
 20
73.4453
 11
-242.427
 21
73.7634
  0
LINE
  8
0
 10
-242.427
 20
73.7634
 11
-242.187
 21
74.0536
  0
LINE
  8
0
 10
-242.187
 20
74.0536
 11
-241.912
 21
74.3115
  0
LINE
  8
0
 10
-241.912
 20
74.3115
 11
-241.607
 21
74.533
  0
LINE
  8
0
 10
-241.607
 20
74.533
 11
-241.277
 21
74.7145
  0
LINE
  8
0
 10
-241.277
 20
74.7145
 11
-240.927
 21
74.8532
  0
LINE
  8
0
 10
-240.927
 20
74.8532
 11
-240.562
 21
74.9469
  0
LINE
  8
0
 10
-240.562
 20
74.9469
 11
-240.188
 21
74.9941
  0
LINE
  8
0
 10
-240.188
 20
74.9941
 11
-239.812
 21
74.9941
  0
LINE
  8
0
 10
-239.812
 20
74.9941
 11
-239.438
 21
74.9469
  0
LINE
  8
0
 10
-239.438
 20
74.9469
 11
-239.073
 21
74.8532
  0
LINE
  8
0
 10
-239.073
 20
74.8532
 11
-238.723
 21
74.7145
  0
LINE
  8
0
 10
-238.723
 20
74.7145
 11
-238.393
 21
74.533
  0
LINE
  8
0
 10
-238.393
 20
74.533
 11
-238.088
 21
74.3115
  0
LINE
  8
0
 10
-238.088
 20
74.3115
 11
-237.813
 21
74.0536
  0
LINE
  8
0
 10
-237.813
 20
74.0536
 11
-237.573
 21
73.7634
  0
LINE
  8
0
 10
-237.573
 20
73.7634
 11
-237.371
 21
73.4453
  0
LINE
  8
0
 10
-237.371
 20
73.4453
 11
-237.211
 21
73.1044
  0
LINE
  8
0
 10
-237.211
 20
73.1044
 11
-237.094
 21
72.7461
  0
LINE
  8
0
 10
-237.094
 20
72.7461
 11
-237.024
 21
72.376
  0
LINE
  8
0
 10
-237.024
 20
72.376
 11
-237
 21
72
  0
LINE
  8
0
 10
-237
 20
72
 11
-237.024
 21
71.624
  0
LINE
  8
0
 10
-237.024
 20
71.624
 11
-237.094
 21
71.2539
  0
LINE
  8
0
 10
-237.094
 20
71.2539
 11
-237.211
 21
70.8956
  0
LINE
  8
0
 10
-237.211
 20
70.8956
 11
-237.371
 21
70.5547
  0
LINE
  8
0
 10
-237.371
 20
70.5547
 11
-237.573
 21
70.2366
  0
LINE
  8
0
 10
-237.573
 20
70.2366
 11
-237.813
 21
69.9464
  0
LINE
  8
0
 10
-237.813
 20
69.9464
 11
-238.088
 21
69.6885
  0
LINE
  8
0
 10
-238.088
 20
69.6885
 11
-238.393
 21
69.467
  0
LINE
  8
0
 10
-238.393
 20
69.467
 11
-238.723
 21
69.2855
  0
LINE
  8
0
 10
-238.723
 20
69.2855
 11
-239.073
 21
69.1468
  0
LINE
  8
0
 10
-239.073
 20
69.1468
 11
-239.438
 21
69.0531
  0
LINE
  8
0
 10
-239.438
 20
69.0531
 11
-239.812
 21
69.0059
  0
LINE
  8
0
 10
-239.812
 20
69.0059
 11
-240.188
 21
69.0059
  0
LINE
  8
0
 10
242.937
 20
41.0886
 11
243.545
 21
41.2447
  0
LINE
  8
0
 10
243.545
 20
41.2447
 11
244.129
 21
41.4759
  0
LINE
  8
0
 10
244.129
 20
41.4759
 11
244.679
 21
41.7784
  0
LINE
  8
0
 10
244.679
 20
41.7784
 11
245.187
 21
42.1474
  0
LINE
  8
0
 10
245.187
 20
42.1474
 11
245.645
 21
42.5773
  0
LINE
  8
0
 10
245.645
 20
42.5773
 11
246.045
 21
43.0611
  0
LINE
  8
0
 10
246.045
 20
43.0611
 11
246.382
 21
43.5912
  0
LINE
  8
0
 10
246.382
 20
43.5912
 11
246.649
 21
44.1594
  0
LINE
  8
0
 10
246.649
 20
44.1594
 11
246.843
 21
44.7566
  0
LINE
  8
0
 10
246.843
 20
44.7566
 11
246.961
 21
45.3733
  0
LINE
  8
0
 10
246.961
 20
45.3733
 11
247
 21
46
  0
LINE
  8
0
 10
247
 20
46
 11
247
 21
50
  0
LINE
  8
0
 10
247
 20
50
 11
246.961
 21
50.6267
  0
LINE
  8
0
 10
246.961
 20
50.6267
 11
246.843
 21
51.2434
  0
LINE
  8
0
 10
246.843
 20
51.2434
 11
246.649
 21
51.8406
  0
LINE
  8
0
 10
246.649
 20
51.8406
 11
246.382
 21
52.4088
  0
LINE
  8
0
 10
246.382
 20
52.4088
 11
246.045
 21
52.9389
  0
LINE
  8
0
 10
246.045
 20
52.9389
 11
245.645
 21
53.4227
  0
LINE
  8
0
 10
245.645
 20
53.4227
 11
245.187
 21
53.8526
  0
LINE
  8
0
 10
245.187
 20
53.8526
 11
244.679
 21
54.2216
  0
LINE
  8
0
 10
244.679
 20
54.2216
 11
244.129
 21
54.5241
  0
LINE
  8
0
 10
244.129
 20
54.5241
 11
243.545
 21
54.7553
  0
LINE
  8
0
 10
243.545
 20
54.7553
 11
242.937
 21
54.9114
  0
LINE
  8
0
 10
242.937
 20
54.9114
 11
242.314
 21
54.9901
  0
LINE
  8
0
 10
242.314
 20
54.9901
 11
-242.314
 21
54.9901
  0
LINE
  8
0
 10
-242.314
 20
54.9901
 11
-242.937
 21
54.9114
  0
LINE
  8
0
 10
-242.937
 20
54.9114
 11
-243.545
 21
54.7553
  0
LINE
  8
0
 10
-243.545
 20
54.7553
 11
-244.129
 21
54.5241
  0
LINE
  8
0
 10
-244.129
 20
54.5241
 11
-244.679
 21
54.2216
  0
LINE
  8
0
 10
-244.679
 20
54.2216
 11
-245.187
 21
53.8526
  0
LINE
  8
0
 10
-245.187
 20
53.8526
 11
-245.645
 21
53.4227
  0
LINE
  8
0
 10
-245.645
 20
53.4227
 11
-246.045
 21
52.9389
  0
LINE
  8
0
 10
-246.045
 20
52.9389
 11
-246.382
 21
52.4088
  0
LINE
  8
0
 10
-246.382
 20
52.4088
 11
-246.649
 21
51.8406
  0
LINE
  8
0
 10
-246.649
 20
51.8406
 11
-246.843
 21
51.2434
  0
LINE
  8
0
 10
-246.843
 20
51.2434
 11
-246.961
 21
50.6267
  0
LINE
  8
0
 10
-246.961
 20
50.6267
 11
-247
 21
50
  0
LINE
  8
0
 10
-247
 20
50
 11
-247
 21
46
  0
LINE
  8
0
 10
-247
 20
46
 11
-246.961
 21
45.3733
  0
LINE
  8
0
 10
-246.961
 20
45.3733
 11
-246.843
 21
44.7566
  0
LINE
  8
0
 10
-246.843
 20
44.7566
 11
-246.649
 21
44.1594
  0
LINE
  8
0
 10
-246.649
 20
44.1594
 11
-246.382
 21
43.5912
  0
LINE
  8
0
 10
-246.382
 20
43.5912
 11
-246.045
 21
43.0611
  0
LINE
  8
0
 10
-246.045
 20
43.0611
 11
-245.645
 21
42.5773
  0
LINE
  8
0
 10
-245.645
 20
42.5773
 11
-245.187
 21
42.1474
  0
LINE
  8
0
 10
-245.187
 20
42.1474
 11
-244.679
 21
41.7784
  0
LINE
  8
0
 10
-244.679
 20
41.7784
 11
-244.129
 21
41.4759
  0
LINE
  8
0
 10
-244.129
 20
41.4759
 11
-243.545
 21
41.2447
  0
LINE
  8
0
 10
-243.545
 20
41.2447
 11
-242.937
 21
41.0886
  0
LINE
  8
0
 10
-242.937
 20
41.0886
 11
-242.314
 21
41.0099
  0
LINE
  8
0
 10
-242.314
 20
41.0099
 11
242.314
 21
41.0099
  0
LINE
  8
0
 10
242.314
 20
41.0099
 11
242.937
 21
41.0886
  0
LINE
  8
0
 10
239.812
 20
45.0059
 11
239.438
 21
45.0531
  0
LINE
  8
0
 10
239.438
 20
45.0531
 11
239.073
 21
45.1468
  0
LINE
  8
0
 10
239.073
 20
45.1468
 11
238.723
 21
45.2855
  0
LINE
  8
0
 10
238.723
 20
45.2855
 11
238.393
 21
45.467
  0
LINE
  8
0
 10
238.393
 20
45.467
 11
238.088
 21
45.6885
  0
LINE
  8
0
 10
238.088
 20
45.6885
 11
237.813
 21
45.9464
  0
LINE
  8
0
 10
237.813
 20
45.9464
 11
237.573
 21
46.2366
  0
LINE
  8
0
 10
237.573
 20
46.2366
 11
237.371
 21
46.5547
  0
LINE
  8
0
 10
237.371
 20
46.5547
 11
237.211
 21
46.8956
  0
LINE
  8
0
 10
237.211
 20
46.8956
 11
237.094
 21
47.2539
  0
LINE
  8
0
 10
237.094
 20
47.2539
 11
237.024
 21
47.624
  0
LINE
  8
0
 10
237.024
 20
47.624
 11
237
 21
48
  0
LINE
  8
0
 10
237
 20
48
 11
237.024
 21
48.376
  0
LINE
  8
0
 10
237.024
 20
48.376
 11
237.094
 21
48.7461
  0
LINE
  8
0
 10
237.094
 20
48.7461
 11
237.211
 21
49.1044
  0
LINE
  8
0
 10
237.211
 20
49.1044
 11
237.371
 21
49.4453
  0
LINE
  8
0
 10
237.371
 20
49.4453
 11
237.573
 21
49.7634
  0
LINE
  8
0
 10
237.573
 20
49.7634
 11
237.813
 21
50.0536
  0
LINE
  8
0
 10
237.813
 20
50.0536
 11
238.088
 21
50.3115
  0
LINE
  8
0
 10
238.088
 20
50.3115
 11
238.393
 21
50.533
  0
LINE
  8
0
 10
238.393
 20
50.533
 11
238.723
 21
50.7145
  0
LINE
  8
0
 10
238.723
 20
50.7145
 11
239.073
 21
50.8532
  0
LINE
  8
0
 10
239.073
 20
50.8532
 11
239.438
 21
50.9469
  0
LINE
  8
0
 10
239.438
 20
50.9469
 11
239.812
 21
50.9941
  0
LINE
  8
0
 10
239.812
 20
50.9941
 11
240.188
 21
50.9941
  0
LINE
  8
0
 10
240.188
 20
50.9941
 11
240.562
 21
50.9469
  0
LINE
  8
0
 10
240.562
 20
50.9469
 11
240.927
 21
50.8532
  0
LINE
  8
0
 10
240.927
 20
50.8532
 11
241.277
 21
50.7145
  0
LINE
  8
0
 10
241.277
 20
50.7145
 11
241.607
 21
50.533
  0
LINE
  8
0
 10
241.607
 20
50.533
 11
241.912
 21
50.3115
  0
LINE
  8
0
 10
241.912
 20
50.3115
 11
242.187
 21
50.0536
  0
LINE
  8
0
 10
242.187
 20
50.0536
 11
242.427
 21
49.7634
  0
LINE
  8
0
 10
242.427
 20
49.7634
 11
242.629
 21
49.4453
  0
LINE
  8
0
 10
242.629
 20
49.4453
 11
242.789
 21
49.1044
  0
LINE
  8
0
 10
242.789
 20
49.1044
 11
242.906
 21
48.7461
  0
LINE
  8
0
 10
242.906
 20
48.7461
 11
242.976
 21
48.376
  0
LINE
  8
0
 10
242.976
 20
48.376
 11
243
 21
48
  0
LINE
  8
0
 10
243
 20
48
 11
242.976
 21
47.624
  0
LINE
  8
0
 10
242.976
 20
47.624
 11
242.906
 21
47.2539
  0
LINE
  8
0
 10
242.906
 20
47.2539
 11
242.789
 21
46.8956
  0
LINE
  8
0
 10
242.789
 20
46.8956
 11
242.629
 21
46.5547
  0
LINE
  8
0
 10
242.629
 20
46.5547
 11
242.427
 21
46.2366
  0
LINE
  8
0
 10
242.427
 20
46.2366
 11
242.187
 21
45.9464
  0
LINE
  8
0
 10
242.187
 20
45.9464
 11
241.912
 21
45.6885
  0
LINE
  8
0
 10
241.912
 20
45.6885
 11
241.607
 21
45.467
  0
LINE
  8
0
 10
241.607
 20
45.467
 11
241.277
 21
45.2855
  0
LINE
  8
0
 10
241.277
 20
45.2855
 11
240.927
 21
45.1468
  0
LINE
  8
0
 10
240.927
 20
45.1468
 11
240.562
 21
45.0531
  0
LINE
  8
0
 10
240.562
 20
45.0531
 11
240.188
 21
45.0059
  0
LINE
  8
0
 10
240.188
 20
45.0059
 11
239.812
 21
45.0059
  0
LINE
  8
0
 10
-240.188
 20
45.0059
 11
-240.562
 21
45.0531
  0
LINE
  8
0
 10
-240.562
 20
45.0531
 11
-240.927
 21
45.1468
  0
LINE
  8
0
 10
-240.927
 20
45.1468
 11
-241.277
 21
45.2855
  0
LINE
  8
0
 10
-241.277
 20
45.2855
 11
-241.607
 21
45.467
  0
LINE
  8
0
 10
-241.607
 20
45.467
 11
-241.912
 21
45.6885
  0
LINE
  8
0
 10
-241.912
 20
45.6885
 11
-242.187
 21
45.9464
  0
LINE
  8
0
 10
-242.187
 20
45.9464
 11
-242.427
 21
46.2366
  0
LINE
  8
0
 10
-242.427
 20
46.2366
 11
-242.629
 21
46.5547
  0
LINE
  8
0
 10
-242.629
 20
46.5547
 11
-242.789
 21
46.8956
  0
LINE
  8
0
 10
-242.789
 20
46.8956
 11
-242.906
 21
47.2539
  0
LINE
  8
0
 10
-242.906
 20
47.2539
 11
-242.976
 21
47.624
  0
LINE
  8
0
 10
-242.976
 20
47.624
 11
-243
 21
48
  0
LINE
  8
0
 10
-243
 20
48
 11
-242.976
 21
48.376
  0
LINE
  8
0
 10
-242.976
 20
48.376
 11
-242.906
 21
48.7461
  0
LINE
  8
0
 10
-242.906
 20
48.7461
 11
-242.789
 21
49.1044
  0
LINE
  8
0
 10
-242.789
 20
49.1044
 11
-242.629
 21
49.4453
  0
LINE
  8
0
 10
-242.629
 20
49.4453
 11
-242.427
 21
49.7634
  0
LINE
  8
0
 10
-242.427
 20
49.7634
 11
-242.187
 21
50.0536
  0
LINE
  8
0
 10
-242.187
 20
50.0536
 11
-241.912
 21
50.3115
  0
LINE
  8
0
 10
-241.912
 20
50.3115
 11
-241.607
 21
50.533
  0
LINE
  8
0
 10
-241.607
 20
50.533
 11
-241.277
 21
50.7145
  0
LINE
  8
0
 10
-241.277
 20
50.7145
 11
-240.927
 21
50.8532
  0
LINE
  8
0
 10
-240.927
 20
50.8532
 11
-240.562
 21
50.9469
  0
LINE
  8
0
 10
-240.562
 20
50.9469
 11
-240.188
 21
50.9941
  0
LINE
  8
0
 10
-240.188
 20
50.9941
 11
-239.812
 21
50.9941
  0
LINE
  8
0
 10
-239.812
 20
50.9941
 11
-239.438
 21
50.9469
  0
LINE
  8
0
 10
-239.438
 20
50.9469
 11
-239.073
 21
50.8532
  0
LINE
  8
0
 10
-239.073
 20
50.8532
 11
-238.723
 21
50.7145
  0
LINE
  8
0
 10
-238.723
 20
50.7145
 11
-238.393
 21
50.533
  0
LINE
  8
0
 10
-238.393
 20
50.533
 11
-238.088
 21
50.3115
  0
LINE
  8
0
 10
-238.088
 20
50.3115
 11
-237.813
 21
50.0536
  0
LINE
  8
0
 10
-237.813
 20
50.0536
 11
-237.573
 21
49.7634
  0
LINE
  8
0
 10
-237.573
 20
49.7634
 11
-237.371
 21
49.4453
  0
LINE
  8
0
 10
-237.371
 20
49.4453
 11
-237.211
 21
49.1044
  0
LINE
  8
0
 10
-237.211
 20
49.1044
 11
-237.094
 21
48.7461
  0
LINE
  8
0
 10
-237.094
 20
48.7461
 11
-237.024
 21
48.376
  0
LINE
  8
0
 10
-237.024
 20
48.376
 11
-237
 21
48
  0
LINE
  8
0
 10
-237
 20
48
 11
-237.024
 21
47.624
  0
LINE
  8
0
 10
-237.024
 20
47.624
 11
-237.094
 21
47.2539
  0
LINE
  8
0
 10
-237.094
 20
47.2539
 11
-237.211
 21
46.8956
  0
LINE
  8
0
 10
-237.211
 20
46.8956
 11
-237.371
 21
46.5547
  0
LINE
  8
0
 10
-237.371
 20
46.5547
 11
-237.573
 21
46.2366
  0
LINE
  8
0
 10
-237.573
 20
46.2366
 11
-237.813
 21
45.9464
  0
LINE
  8
0
 10
-237.813
 20
45.9464
 11
-238.088
 21
45.6885
  0
LINE
  8
0
 10
-238.088
 20
45.6885
 11
-238.393
 21
45.467
  0
LINE
  8
0
 10
-238.393
 20
45.467
 11
-238.723
 21
45.2855
  0
LINE
  8
0
 10
-238.723
 20
45.2855
 11
-239.073
 21
45.1468
  0
LINE
  8
0
 10
-239.073
 20
45.1468
 11
-239.438
 21
45.0531
  0
LINE
  8
0
 10
-239.438
 20
45.0531
 11
-239.812
 21
45.0059
  0
LINE
  8
0
 10
-239.812
 20
45.0059
 11
-240.188
 21
45.0059
  0
ENDSEC
  0
SECTION
  2
OBJECTS
  0
DICTIONARY
  0
ENDSEC
  0
EOF
