  0
SECTION
  2
BLOCKS
  0
ENDSEC
  0
SECTION
  2
ENTITIES
  0
LINE
  8
0
 10
62.9369
 20
-51.9114
 11
63.5451
 21
-51.7553
  0
LINE
  8
0
 10
63.5451
 20
-51.7553
 11
64.1289
 21
-51.5241
  0
LINE
  8
0
 10
64.1289
 20
-51.5241
 11
64.6791
 21
-51.2216
  0
LINE
  8
0
 10
64.6791
 20
-51.2216
 11
65.1871
 21
-50.8526
  0
LINE
  8
0
 10
65.1871
 20
-50.8526
 11
65.6448
 21
-50.4227
  0
LINE
  8
0
 10
65.6448
 20
-50.4227
 11
66.0451
 21
-49.9389
  0
LINE
  8
0
 10
66.0451
 20
-49.9389
 11
66.3815
 21
-49.4088
  0
LINE
  8
0
 10
66.3815
 20
-49.4088
 11
66.6489
 21
-48.8406
  0
LINE
  8
0
 10
66.6489
 20
-48.8406
 11
66.8429
 21
-48.2434
  0
LINE
  8
0
 10
66.8429
 20
-48.2434
 11
66.9606
 21
-47.6267
  0
LINE
  8
0
 10
66.9606
 20
-47.6267
 11
67
 21
-47
  0
LINE
  8
0
 10
67
 20
-47
 11
67
 21
47
  0
LINE
  8
0
 10
67
 20
47
 11
66.9606
 21
47.6267
  0
LINE
  8
0
 10
66.9606
 20
47.6267
 11
66.8429
 21
48.2434
  0
LINE
  8
0
 10
66.8429
 20
48.2434
 11
66.6489
 21
48.8406
  0
LINE
  8
0
 10
66.6489
 20
48.8406
 11
66.3815
 21
49.4088
  0
LINE
  8
0
 10
66.3815
 20
49.4088
 11
66.0451
 21
49.9389
  0
LINE
  8
0
 10
66.0451
 20
49.9389
 11
65.6448
 21
50.4227
  0
LINE
  8
0
 10
65.6448
 20
50.4227
 11
65.1871
 21
50.8526
  0
LINE
  8
0
 10
65.1871
 20
50.8526
 11
64.6791
 21
51.2216
  0
LINE
  8
0
 10
64.6791
 20
51.2216
 11
64.1289
 21
51.5241
  0
LINE
  8
0
 10
64.1289
 20
51.5241
 11
63.5451
 21
51.7553
  0
LINE
  8
0
 10
63.5451
 20
51.7553
 11
62.9369
 21
51.9114
  0
LINE
  8
0
 10
62.9369
 20
51.9114
 11
62.3139
 21
51.9901
  0
LINE
  8
0
 10
62.3139
 20
51.9901
 11
-62.3139
 21
51.9901
  0
LINE
  8
0
 10
-62.3139
 20
51.9901
 11
-62.9369
 21
51.9114
  0
LINE
  8
0
 10
-62.9369
 20
51.9114
 11
-63.5451
 21
51.7553
  0
LINE
  8
0
 10
-63.5451
 20
51.7553
 11
-64.1289
 21
51.5241
  0
LINE
  8
0
 10
-64.1289
 20
51.5241
 11
-64.6791
 21
51.2216
  0
LINE
  8
0
 10
-64.6791
 20
51.2216
 11
-65.1871
 21
50.8526
  0
LINE
  8
0
 10
-65.1871
 20
50.8526
 11
-65.6448
 21
50.4227
  0
LINE
  8
0
 10
-65.6448
 20
50.4227
 11
-66.0451
 21
49.9389
  0
LINE
  8
0
 10
-66.0451
 20
49.9389
 11
-66.3815
 21
49.4088
  0
LINE
  8
0
 10
-66.3815
 20
49.4088
 11
-66.6489
 21
48.8406
  0
LINE
  8
0
 10
-66.6489
 20
48.8406
 11
-66.8429
 21
48.2434
  0
LINE
  8
0
 10
-66.8429
 20
48.2434
 11
-66.9606
 21
47.6267
  0
LINE
  8
0
 10
-66.9606
 20
47.6267
 11
-67
 21
47
  0
LINE
  8
0
 10
-67
 20
47
 11
-67
 21
-47
  0
LINE
  8
0
 10
-67
 20
-47
 11
-66.9606
 21
-47.6267
  0
LINE
  8
0
 10
-66.9606
 20
-47.6267
 11
-66.8429
 21
-48.2434
  0
LINE
  8
0
 10
-66.8429
 20
-48.2434
 11
-66.6489
 21
-48.8406
  0
LINE
  8
0
 10
-66.6489
 20
-48.8406
 11
-66.3815
 21
-49.4088
  0
LINE
  8
0
 10
-66.3815
 20
-49.4088
 11
-66.0451
 21
-49.9389
  0
LINE
  8
0
 10
-66.0451
 20
-49.9389
 11
-65.6448
 21
-50.4227
  0
LINE
  8
0
 10
-65.6448
 20
-50.4227
 11
-65.1871
 21
-50.8526
  0
LINE
  8
0
 10
-65.1871
 20
-50.8526
 11
-64.6791
 21
-51.2216
  0
LINE
  8
0
 10
-64.6791
 20
-51.2216
 11
-64.1289
 21
-51.5241
  0
LINE
  8
0
 10
-64.1289
 20
-51.5241
 11
-63.5451
 21
-51.7553
  0
LINE
  8
0
 10
-63.5451
 20
-51.7553
 11
-62.9369
 21
-51.9114
  0
LINE
  8
0
 10
-62.9369
 20
-51.9114
 11
-62.3139
 21
-51.9901
  0
LINE
  8
0
 10
-62.3139
 20
-51.9901
 11
62.3139
 21
-51.9901
  0
LINE
  8
0
 10
62.3139
 20
-51.9901
 11
62.9369
 21
-51.9114
  0
LINE
  8
0
 10
-60.1884
 20
42.0059
 11
-60.5621
 21
42.0531
  0
LINE
  8
0
 10
-60.5621
 20
42.0531
 11
-60.927
 21
42.1468
  0
LINE
  8
0
 10
-60.927
 20
42.1468
 11
-61.2773
 21
42.2855
  0
LINE
  8
0
 10
-61.2773
 20
42.2855
 11
-61.6075
 21
42.467
  0
LINE
  8
0
 10
-61.6075
 20
42.467
 11
-61.9123
 21
42.6885
  0
LINE
  8
0
 10
-61.9123
 20
42.6885
 11
-62.1869
 21
42.9464
  0
LINE
  8
0
 10
-62.1869
 20
42.9464
 11
-62.427
 21
43.2366
  0
LINE
  8
0
 10
-62.427
 20
43.2366
 11
-62.6289
 21
43.5547
  0
LINE
  8
0
 10
-62.6289
 20
43.5547
 11
-62.7893
 21
43.8956
  0
LINE
  8
0
 10
-62.7893
 20
43.8956
 11
-62.9057
 21
44.2539
  0
LINE
  8
0
 10
-62.9057
 20
44.2539
 11
-62.9763
 21
44.624
  0
LINE
  8
0
 10
-62.9763
 20
44.624
 11
-63
 21
45
  0
LINE
  8
0
 10
-63
 20
45
 11
-62.9763
 21
45.376
  0
LINE
  8
0
 10
-62.9763
 20
45.376
 11
-62.9057
 21
45.7461
  0
LINE
  8
0
 10
-62.9057
 20
45.7461
 11
-62.7893
 21
46.1044
  0
LINE
  8
0
 10
-62.7893
 20
46.1044
 11
-62.6289
 21
46.4453
  0
LINE
  8
0
 10
-62.6289
 20
46.4453
 11
-62.427
 21
46.7634
  0
LINE
  8
0
 10
-62.427
 20
46.7634
 11
-62.1869
 21
47.0536
  0
LINE
  8
0
 10
-62.1869
 20
47.0536
 11
-61.9123
 21
47.3115
  0
LINE
  8
0
 10
-61.9123
 20
47.3115
 11
-61.6075
 21
47.533
  0
LINE
  8
0
 10
-61.6075
 20
47.533
 11
-61.2773
 21
47.7145
  0
LINE
  8
0
 10
-61.2773
 20
47.7145
 11
-60.927
 21
47.8532
  0
LINE
  8
0
 10
-60.927
 20
47.8532
 11
-60.5621
 21
47.9469
  0
LINE
  8
0
 10
-60.5621
 20
47.9469
 11
-60.1884
 21
47.9941
  0
LINE
  8
0
 10
-60.1884
 20
47.9941
 11
-59.8116
 21
47.9941
  0
LINE
  8
0
 10
-59.8116
 20
47.9941
 11
-59.4379
 21
47.9469
  0
LINE
  8
0
 10
-59.4379
 20
47.9469
 11
-59.0729
 21
47.8532
  0
LINE
  8
0
 10
-59.0729
 20
47.8532
 11
-58.7227
 21
47.7145
  0
LINE
  8
0
 10
-58.7227
 20
47.7145
 11
-58.3925
 21
47.533
  0
LINE
  8
0
 10
-58.3925
 20
47.533
 11
-58.0877
 21
47.3115
  0
LINE
  8
0
 10
-58.0877
 20
47.3115
 11
-57.8131
 21
47.0536
  0
LINE
  8
0
 10
-57.8131
 20
47.0536
 11
-57.5729
 21
46.7634
  0
LINE
  8
0
 10
-57.5729
 20
46.7634
 11
-57.3711
 21
46.4453
  0
LINE
  8
0
 10
-57.3711
 20
46.4453
 11
-57.2107
 21
46.1044
  0
LINE
  8
0
 10
-57.2107
 20
46.1044
 11
-57.0942
 21
45.7461
  0
LINE
  8
0
 10
-57.0942
 20
45.7461
 11
-57.0237
 21
45.376
  0
LINE
  8
0
 10
-57.0237
 20
45.376
 11
-57
 21
45
  0
LINE
  8
0
 10
-57
 20
45
 11
-57.0237
 21
44.624
  0
LINE
  8
0
 10
-57.0237
 20
44.624
 11
-57.0942
 21
44.2539
  0
LINE
  8
0
 10
-57.0942
 20
44.2539
 11
-57.2107
 21
43.8956
  0
LINE
  8
0
 10
-57.2107
 20
43.8956
 11
-57.3711
 21
43.5547
  0
LINE
  8
0
 10
-57.3711
 20
43.5547
 11
-57.5729
 21
43.2366
  0
LINE
  8
0
 10
-57.5729
 20
43.2366
 11
-57.8131
 21
42.9464
  0
LINE
  8
0
 10
-57.8131
 20
42.9464
 11
-58.0877
 21
42.6885
  0
LINE
  8
0
 10
-58.0877
 20
42.6885
 11
-58.3925
 21
42.467
  0
LINE
  8
0
 10
-58.3925
 20
42.467
 11
-58.7227
 21
42.2855
  0
LINE
  8
0
 10
-58.7227
 20
42.2855
 11
-59.0729
 21
42.1468
  0
LINE
  8
0
 10
-59.0729
 20
42.1468
 11
-59.4379
 21
42.0531
  0
LINE
  8
0
 10
-59.4379
 20
42.0531
 11
-59.8116
 21
42.0059
  0
LINE
  8
0
 10
-59.8116
 20
42.0059
 11
-60.1884
 21
42.0059
  0
LINE
  8
0
 10
-60.0942
 20
36.003
 11
-60.2811
 21
36.0266
  0
LINE
  8
0
 10
-60.2811
 20
36.0266
 11
-60.4635
 21
36.0734
  0
LINE
  8
0
 10
-60.4635
 20
36.0734
 11
-60.6387
 21
36.1428
  0
LINE
  8
0
 10
-60.6387
 20
36.1428
 11
-60.8037
 21
36.2335
  0
LINE
  8
0
 10
-60.8037
 20
36.2335
 11
-60.9561
 21
36.3442
  0
LINE
  8
0
 10
-60.9561
 20
36.3442
 11
-61.0934
 21
36.4732
  0
LINE
  8
0
 10
-61.0934
 20
36.4732
 11
-61.2135
 21
36.6183
  0
LINE
  8
0
 10
-61.2135
 20
36.6183
 11
-61.3145
 21
36.7774
  0
LINE
  8
0
 10
-61.3145
 20
36.7774
 11
-61.3947
 21
36.9478
  0
LINE
  8
0
 10
-61.3947
 20
36.9478
 11
-61.4529
 21
37.127
  0
LINE
  8
0
 10
-61.4529
 20
37.127
 11
-61.4882
 21
37.312
  0
LINE
  8
0
 10
-61.4882
 20
37.312
 11
-61.5
 21
37.5
  0
LINE
  8
0
 10
-61.5
 20
37.5
 11
-61.4882
 21
37.688
  0
LINE
  8
0
 10
-61.4882
 20
37.688
 11
-61.4529
 21
37.873
  0
LINE
  8
0
 10
-61.4529
 20
37.873
 11
-61.3947
 21
38.0522
  0
LINE
  8
0
 10
-61.3947
 20
38.0522
 11
-61.3145
 21
38.2226
  0
LINE
  8
0
 10
-61.3145
 20
38.2226
 11
-61.2135
 21
38.3817
  0
LINE
  8
0
 10
-61.2135
 20
38.3817
 11
-61.0934
 21
38.5268
  0
LINE
  8
0
 10
-61.0934
 20
38.5268
 11
-60.9561
 21
38.6558
  0
LINE
  8
0
 10
-60.9561
 20
38.6558
 11
-60.8037
 21
38.7665
  0
LINE
  8
0
 10
-60.8037
 20
38.7665
 11
-60.6387
 21
38.8572
  0
LINE
  8
0
 10
-60.6387
 20
38.8572
 11
-60.4635
 21
38.9266
  0
LINE
  8
0
 10
-60.4635
 20
38.9266
 11
-60.2811
 21
38.9734
  0
LINE
  8
0
 10
-60.2811
 20
38.9734
 11
-60.0942
 21
38.997
  0
LINE
  8
0
 10
-60.0942
 20
38.997
 11
-59.9058
 21
38.997
  0
LINE
  8
0
 10
-59.9058
 20
38.997
 11
-59.7189
 21
38.9734
  0
LINE
  8
0
 10
-59.7189
 20
38.9734
 11
-59.5365
 21
38.9266
  0
LINE
  8
0
 10
-59.5365
 20
38.9266
 11
-59.3613
 21
38.8572
  0
LINE
  8
0
 10
-59.3613
 20
38.8572
 11
-59.1963
 21
38.7665
  0
LINE
  8
0
 10
-59.1963
 20
38.7665
 11
-59.0439
 21
38.6558
  0
LINE
  8
0
 10
-59.0439
 20
38.6558
 11
-58.9065
 21
38.5268
  0
LINE
  8
0
 10
-58.9065
 20
38.5268
 11
-58.7865
 21
38.3817
  0
LINE
  8
0
 10
-58.7865
 20
38.3817
 11
-58.6855
 21
38.2226
  0
LINE
  8
0
 10
-58.6855
 20
38.2226
 11
-58.6053
 21
38.0522
  0
LINE
  8
0
 10
-58.6053
 20
38.0522
 11
-58.5471
 21
37.873
  0
LINE
  8
0
 10
-58.5471
 20
37.873
 11
-58.5118
 21
37.688
  0
LINE
  8
0
 10
-58.5118
 20
37.688
 11
-58.5
 21
37.5
  0
LINE
  8
0
 10
-58.5
 20
37.5
 11
-58.5118
 21
37.312
  0
LINE
  8
0
 10
-58.5118
 20
37.312
 11
-58.5471
 21
37.127
  0
LINE
  8
0
 10
-58.5471
 20
37.127
 11
-58.6053
 21
36.9478
  0
LINE
  8
0
 10
-58.6053
 20
36.9478
 11
-58.6855
 21
36.7774
  0
LINE
  8
0
 10
-58.6855
 20
36.7774
 11
-58.7865
 21
36.6183
  0
LINE
  8
0
 10
-58.7865
 20
36.6183
 11
-58.9065
 21
36.4732
  0
LINE
  8
0
 10
-58.9065
 20
36.4732
 11
-59.0439
 21
36.3442
  0
LINE
  8
0
 10
-59.0439
 20
36.3442
 11
-59.1963
 21
36.2335
  0
LINE
  8
0
 10
-59.1963
 20
36.2335
 11
-59.3613
 21
36.1428
  0
LINE
  8
0
 10
-59.3613
 20
36.1428
 11
-59.5365
 21
36.0734
  0
LINE
  8
0
 10
-59.5365
 20
36.0734
 11
-59.7189
 21
36.0266
  0
LINE
  8
0
 10
-59.7189
 20
36.0266
 11
-59.9058
 21
36.003
  0
LINE
  8
0
 10
-59.9058
 20
36.003
 11
-60.0942
 21
36.003
  0
LINE
  8
0
 10
-60.1884
 20
27.0059
 11
-60.5621
 21
27.0531
  0
LINE
  8
0
 10
-60.5621
 20
27.0531
 11
-60.927
 21
27.1468
  0
LINE
  8
0
 10
-60.927
 20
27.1468
 11
-61.2773
 21
27.2855
  0
LINE
  8
0
 10
-61.2773
 20
27.2855
 11
-61.6075
 21
27.467
  0
LINE
  8
0
 10
-61.6075
 20
27.467
 11
-61.9123
 21
27.6884
  0
LINE
  8
0
 10
-61.9123
 20
27.6884
 11
-62.1869
 21
27.9464
  0
LINE
  8
0
 10
-62.1869
 20
27.9464
 11
-62.427
 21
28.2366
  0
LINE
  8
0
 10
-62.427
 20
28.2366
 11
-62.6289
 21
28.5547
  0
LINE
  8
0
 10
-62.6289
 20
28.5547
 11
-62.7893
 21
28.8956
  0
LINE
  8
0
 10
-62.7893
 20
28.8956
 11
-62.9057
 21
29.2539
  0
LINE
  8
0
 10
-62.9057
 20
29.2539
 11
-62.9763
 21
29.624
  0
LINE
  8
0
 10
-62.9763
 20
29.624
 11
-63
 21
30
  0
LINE
  8
0
 10
-63
 20
30
 11
-62.9763
 21
30.376
  0
LINE
  8
0
 10
-62.9763
 20
30.376
 11
-62.9057
 21
30.7461
  0
LINE
  8
0
 10
-62.9057
 20
30.7461
 11
-62.7893
 21
31.1044
  0
LINE
  8
0
 10
-62.7893
 20
31.1044
 11
-62.6289
 21
31.4453
  0
LINE
  8
0
 10
-62.6289
 20
31.4453
 11
-62.427
 21
31.7634
  0
LINE
  8
0
 10
-62.427
 20
31.7634
 11
-62.1869
 21
32.0536
  0
LINE
  8
0
 10
-62.1869
 20
32.0536
 11
-61.9123
 21
32.3115
  0
LINE
  8
0
 10
-61.9123
 20
32.3115
 11
-61.6075
 21
32.533
  0
LINE
  8
0
 10
-61.6075
 20
32.533
 11
-61.2773
 21
32.7145
  0
LINE
  8
0
 10
-61.2773
 20
32.7145
 11
-60.927
 21
32.8532
  0
LINE
  8
0
 10
-60.927
 20
32.8532
 11
-60.5621
 21
32.9469
  0
LINE
  8
0
 10
-60.5621
 20
32.9469
 11
-60.1884
 21
32.9941
  0
LINE
  8
0
 10
-60.1884
 20
32.9941
 11
-59.8116
 21
32.9941
  0
LINE
  8
0
 10
-59.8116
 20
32.9941
 11
-59.4379
 21
32.9469
  0
LINE
  8
0
 10
-59.4379
 20
32.9469
 11
-59.0729
 21
32.8532
  0
LINE
  8
0
 10
-59.0729
 20
32.8532
 11
-58.7227
 21
32.7145
  0
LINE
  8
0
 10
-58.7227
 20
32.7145
 11
-58.3925
 21
32.533
  0
LINE
  8
0
 10
-58.3925
 20
32.533
 11
-58.0877
 21
32.3115
  0
LINE
  8
0
 10
-58.0877
 20
32.3115
 11
-57.8131
 21
32.0536
  0
LINE
  8
0
 10
-57.8131
 20
32.0536
 11
-57.5729
 21
31.7634
  0
LINE
  8
0
 10
-57.5729
 20
31.7634
 11
-57.3711
 21
31.4453
  0
LINE
  8
0
 10
-57.3711
 20
31.4453
 11
-57.2107
 21
31.1044
  0
LINE
  8
0
 10
-57.2107
 20
31.1044
 11
-57.0942
 21
30.7461
  0
LINE
  8
0
 10
-57.0942
 20
30.7461
 11
-57.0237
 21
30.376
  0
LINE
  8
0
 10
-57.0237
 20
30.376
 11
-57
 21
30
  0
LINE
  8
0
 10
-57
 20
30
 11
-57.0237
 21
29.624
  0
LINE
  8
0
 10
-57.0237
 20
29.624
 11
-57.0942
 21
29.2539
  0
LINE
  8
0
 10
-57.0942
 20
29.2539
 11
-57.2107
 21
28.8956
  0
LINE
  8
0
 10
-57.2107
 20
28.8956
 11
-57.3711
 21
28.5547
  0
LINE
  8
0
 10
-57.3711
 20
28.5547
 11
-57.5729
 21
28.2366
  0
LINE
  8
0
 10
-57.5729
 20
28.2366
 11
-57.8131
 21
27.9464
  0
LINE
  8
0
 10
-57.8131
 20
27.9464
 11
-58.0877
 21
27.6884
  0
LINE
  8
0
 10
-58.0877
 20
27.6884
 11
-58.3925
 21
27.467
  0
LINE
  8
0
 10
-58.3925
 20
27.467
 11
-58.7227
 21
27.2855
  0
LINE
  8
0
 10
-58.7227
 20
27.2855
 11
-59.0729
 21
27.1468
  0
LINE
  8
0
 10
-59.0729
 20
27.1468
 11
-59.4379
 21
27.0531
  0
LINE
  8
0
 10
-59.4379
 20
27.0531
 11
-59.8116
 21
27.0059
  0
LINE
  8
0
 10
-59.8116
 20
27.0059
 11
-60.1884
 21
27.0059
  0
LINE
  8
0
 10
-60.0942
 20
21.003
 11
-60.2811
 21
21.0266
  0
LINE
  8
0
 10
-60.2811
 20
21.0266
 11
-60.4635
 21
21.0734
  0
LINE
  8
0
 10
-60.4635
 20
21.0734
 11
-60.6387
 21
21.1427
  0
LINE
  8
0
 10
-60.6387
 20
21.1427
 11
-60.8037
 21
21.2335
  0
LINE
  8
0
 10
-60.8037
 20
21.2335
 11
-60.9561
 21
21.3442
  0
LINE
  8
0
 10
-60.9561
 20
21.3442
 11
-61.0934
 21
21.4732
  0
LINE
  8
0
 10
-61.0934
 20
21.4732
 11
-61.2135
 21
21.6183
  0
LINE
  8
0
 10
-61.2135
 20
21.6183
 11
-61.3145
 21
21.7774
  0
LINE
  8
0
 10
-61.3145
 20
21.7774
 11
-61.3947
 21
21.9478
  0
LINE
  8
0
 10
-61.3947
 20
21.9478
 11
-61.4529
 21
22.127
  0
LINE
  8
0
 10
-61.4529
 20
22.127
 11
-61.4882
 21
22.312
  0
LINE
  8
0
 10
-61.4882
 20
22.312
 11
-61.5
 21
22.5
  0
LINE
  8
0
 10
-61.5
 20
22.5
 11
-61.4882
 21
22.688
  0
LINE
  8
0
 10
-61.4882
 20
22.688
 11
-61.4529
 21
22.873
  0
LINE
  8
0
 10
-61.4529
 20
22.873
 11
-61.3947
 21
23.0522
  0
LINE
  8
0
 10
-61.3947
 20
23.0522
 11
-61.3145
 21
23.2226
  0
LINE
  8
0
 10
-61.3145
 20
23.2226
 11
-61.2135
 21
23.3817
  0
LINE
  8
0
 10
-61.2135
 20
23.3817
 11
-61.0934
 21
23.5268
  0
LINE
  8
0
 10
-61.0934
 20
23.5268
 11
-60.9561
 21
23.6558
  0
LINE
  8
0
 10
-60.9561
 20
23.6558
 11
-60.8037
 21
23.7665
  0
LINE
  8
0
 10
-60.8037
 20
23.7665
 11
-60.6387
 21
23.8572
  0
LINE
  8
0
 10
-60.6387
 20
23.8572
 11
-60.4635
 21
23.9266
  0
LINE
  8
0
 10
-60.4635
 20
23.9266
 11
-60.2811
 21
23.9734
  0
LINE
  8
0
 10
-60.2811
 20
23.9734
 11
-60.0942
 21
23.997
  0
LINE
  8
0
 10
-60.0942
 20
23.997
 11
-59.9058
 21
23.997
  0
LINE
  8
0
 10
-59.9058
 20
23.997
 11
-59.7189
 21
23.9734
  0
LINE
  8
0
 10
-59.7189
 20
23.9734
 11
-59.5365
 21
23.9266
  0
LINE
  8
0
 10
-59.5365
 20
23.9266
 11
-59.3613
 21
23.8572
  0
LINE
  8
0
 10
-59.3613
 20
23.8572
 11
-59.1963
 21
23.7665
  0
LINE
  8
0
 10
-59.1963
 20
23.7665
 11
-59.0439
 21
23.6558
  0
LINE
  8
0
 10
-59.0439
 20
23.6558
 11
-58.9065
 21
23.5268
  0
LINE
  8
0
 10
-58.9065
 20
23.5268
 11
-58.7865
 21
23.3817
  0
LINE
  8
0
 10
-58.7865
 20
23.3817
 11
-58.6855
 21
23.2226
  0
LINE
  8
0
 10
-58.6855
 20
23.2226
 11
-58.6053
 21
23.0522
  0
LINE
  8
0
 10
-58.6053
 20
23.0522
 11
-58.5471
 21
22.873
  0
LINE
  8
0
 10
-58.5471
 20
22.873
 11
-58.5118
 21
22.688
  0
LINE
  8
0
 10
-58.5118
 20
22.688
 11
-58.5
 21
22.5
  0
LINE
  8
0
 10
-58.5
 20
22.5
 11
-58.5118
 21
22.312
  0
LINE
  8
0
 10
-58.5118
 20
22.312
 11
-58.5471
 21
22.127
  0
LINE
  8
0
 10
-58.5471
 20
22.127
 11
-58.6053
 21
21.9478
  0
LINE
  8
0
 10
-58.6053
 20
21.9478
 11
-58.6855
 21
21.7774
  0
LINE
  8
0
 10
-58.6855
 20
21.7774
 11
-58.7865
 21
21.6183
  0
LINE
  8
0
 10
-58.7865
 20
21.6183
 11
-58.9065
 21
21.4732
  0
LINE
  8
0
 10
-58.9065
 20
21.4732
 11
-59.0439
 21
21.3442
  0
LINE
  8
0
 10
-59.0439
 20
21.3442
 11
-59.1963
 21
21.2335
  0
LINE
  8
0
 10
-59.1963
 20
21.2335
 11
-59.3613
 21
21.1427
  0
LINE
  8
0
 10
-59.3613
 20
21.1427
 11
-59.5365
 21
21.0734
  0
LINE
  8
0
 10
-59.5365
 20
21.0734
 11
-59.7189
 21
21.0266
  0
LINE
  8
0
 10
-59.7189
 20
21.0266
 11
-59.9058
 21
21.003
  0
LINE
  8
0
 10
-59.9058
 20
21.003
 11
-60.0942
 21
21.003
  0
LINE
  8
0
 10
-60.1884
 20
12.0059
 11
-60.5621
 21
12.0531
  0
LINE
  8
0
 10
-60.5621
 20
12.0531
 11
-60.927
 21
12.1468
  0
LINE
  8
0
 10
-60.927
 20
12.1468
 11
-61.2773
 21
12.2855
  0
LINE
  8
0
 10
-61.2773
 20
12.2855
 11
-61.6075
 21
12.467
  0
LINE
  8
0
 10
-61.6075
 20
12.467
 11
-61.9123
 21
12.6884
  0
LINE
  8
0
 10
-61.9123
 20
12.6884
 11
-62.1869
 21
12.9464
  0
LINE
  8
0
 10
-62.1869
 20
12.9464
 11
-62.427
 21
13.2366
  0
LINE
  8
0
 10
-62.427
 20
13.2366
 11
-62.6289
 21
13.5547
  0
LINE
  8
0
 10
-62.6289
 20
13.5547
 11
-62.7893
 21
13.8956
  0
LINE
  8
0
 10
-62.7893
 20
13.8956
 11
-62.9057
 21
14.2539
  0
LINE
  8
0
 10
-62.9057
 20
14.2539
 11
-62.9763
 21
14.624
  0
LINE
  8
0
 10
-62.9763
 20
14.624
 11
-63
 21
15
  0
LINE
  8
0
 10
-63
 20
15
 11
-62.9763
 21
15.376
  0
LINE
  8
0
 10
-62.9763
 20
15.376
 11
-62.9057
 21
15.7461
  0
LINE
  8
0
 10
-62.9057
 20
15.7461
 11
-62.7893
 21
16.1044
  0
LINE
  8
0
 10
-62.7893
 20
16.1044
 11
-62.6289
 21
16.4453
  0
LINE
  8
0
 10
-62.6289
 20
16.4453
 11
-62.427
 21
16.7634
  0
LINE
  8
0
 10
-62.427
 20
16.7634
 11
-62.1869
 21
17.0536
  0
LINE
  8
0
 10
-62.1869
 20
17.0536
 11
-61.9123
 21
17.3115
  0
LINE
  8
0
 10
-61.9123
 20
17.3115
 11
-61.6075
 21
17.533
  0
LINE
  8
0
 10
-61.6075
 20
17.533
 11
-61.2773
 21
17.7145
  0
LINE
  8
0
 10
-61.2773
 20
17.7145
 11
-60.927
 21
17.8532
  0
LINE
  8
0
 10
-60.927
 20
17.8532
 11
-60.5621
 21
17.9469
  0
LINE
  8
0
 10
-60.5621
 20
17.9469
 11
-60.1884
 21
17.9941
  0
LINE
  8
0
 10
-60.1884
 20
17.9941
 11
-59.8116
 21
17.9941
  0
LINE
  8
0
 10
-59.8116
 20
17.9941
 11
-59.4379
 21
17.9469
  0
LINE
  8
0
 10
-59.4379
 20
17.9469
 11
-59.0729
 21
17.8532
  0
LINE
  8
0
 10
-59.0729
 20
17.8532
 11
-58.7227
 21
17.7145
  0
LINE
  8
0
 10
-58.7227
 20
17.7145
 11
-58.3925
 21
17.533
  0
LINE
  8
0
 10
-58.3925
 20
17.533
 11
-58.0877
 21
17.3115
  0
LINE
  8
0
 10
-58.0877
 20
17.3115
 11
-57.8131
 21
17.0536
  0
LINE
  8
0
 10
-57.8131
 20
17.0536
 11
-57.5729
 21
16.7634
  0
LINE
  8
0
 10
-57.5729
 20
16.7634
 11
-57.3711
 21
16.4453
  0
LINE
  8
0
 10
-57.3711
 20
16.4453
 11
-57.2107
 21
16.1044
  0
LINE
  8
0
 10
-57.2107
 20
16.1044
 11
-57.0942
 21
15.7461
  0
LINE
  8
0
 10
-57.0942
 20
15.7461
 11
-57.0237
 21
15.376
  0
LINE
  8
0
 10
-57.0237
 20
15.376
 11
-57
 21
15
  0
LINE
  8
0
 10
-57
 20
15
 11
-57.0237
 21
14.624
  0
LINE
  8
0
 10
-57.0237
 20
14.624
 11
-57.0942
 21
14.2539
  0
LINE
  8
0
 10
-57.0942
 20
14.2539
 11
-57.2107
 21
13.8956
  0
LINE
  8
0
 10
-57.2107
 20
13.8956
 11
-57.3711
 21
13.5547
  0
LINE
  8
0
 10
-57.3711
 20
13.5547
 11
-57.5729
 21
13.2366
  0
LINE
  8
0
 10
-57.5729
 20
13.2366
 11
-57.8131
 21
12.9464
  0
LINE
  8
0
 10
-57.8131
 20
12.9464
 11
-58.0877
 21
12.6884
  0
LINE
  8
0
 10
-58.0877
 20
12.6884
 11
-58.3925
 21
12.467
  0
LINE
  8
0
 10
-58.3925
 20
12.467
 11
-58.7227
 21
12.2855
  0
LINE
  8
0
 10
-58.7227
 20
12.2855
 11
-59.0729
 21
12.1468
  0
LINE
  8
0
 10
-59.0729
 20
12.1468
 11
-59.4379
 21
12.0531
  0
LINE
  8
0
 10
-59.4379
 20
12.0531
 11
-59.8116
 21
12.0059
  0
LINE
  8
0
 10
-59.8116
 20
12.0059
 11
-60.1884
 21
12.0059
  0
LINE
  8
0
 10
-60.0942
 20
6.00294
 11
-60.2811
 21
6.02657
  0
LINE
  8
0
 10
-60.2811
 20
6.02657
 11
-60.4635
 21
6.07341
  0
LINE
  8
0
 10
-60.4635
 20
6.07341
 11
-60.6387
 21
6.14275
  0
LINE
  8
0
 10
-60.6387
 20
6.14275
 11
-60.8037
 21
6.23351
  0
LINE
  8
0
 10
-60.8037
 20
6.23351
 11
-60.9561
 21
6.34422
  0
LINE
  8
0
 10
-60.9561
 20
6.34422
 11
-61.0934
 21
6.47318
  0
LINE
  8
0
 10
-61.0934
 20
6.47318
 11
-61.2135
 21
6.61832
  0
LINE
  8
0
 10
-61.2135
 20
6.61832
 11
-61.3145
 21
6.77736
  0
LINE
  8
0
 10
-61.3145
 20
6.77736
 11
-61.3947
 21
6.9478
  0
LINE
  8
0
 10
-61.3947
 20
6.9478
 11
-61.4529
 21
7.12695
  0
LINE
  8
0
 10
-61.4529
 20
7.12695
 11
-61.4882
 21
7.312
  0
LINE
  8
0
 10
-61.4882
 20
7.312
 11
-61.5
 21
7.5
  0
LINE
  8
0
 10
-61.5
 20
7.5
 11
-61.4882
 21
7.68799
  0
LINE
  8
0
 10
-61.4882
 20
7.68799
 11
-61.4529
 21
7.87303
  0
LINE
  8
0
 10
-61.4529
 20
7.87303
 11
-61.3947
 21
8.05219
  0
LINE
  8
0
 10
-61.3947
 20
8.05219
 11
-61.3145
 21
8.22263
  0
LINE
  8
0
 10
-61.3145
 20
8.22263
 11
-61.2135
 21
8.38167
  0
LINE
  8
0
 10
-61.2135
 20
8.38167
 11
-61.0934
 21
8.52681
  0
LINE
  8
0
 10
-61.0934
 20
8.52681
 11
-60.9561
 21
8.65576
  0
LINE
  8
0
 10
-60.9561
 20
8.65576
 11
-60.8037
 21
8.76648
  0
LINE
  8
0
 10
-60.8037
 20
8.76648
 11
-60.6387
 21
8.85724
  0
LINE
  8
0
 10
-60.6387
 20
8.85724
 11
-60.4635
 21
8.92657
  0
LINE
  8
0
 10
-60.4635
 20
8.92657
 11
-60.2811
 21
8.97342
  0
LINE
  8
0
 10
-60.2811
 20
8.97342
 11
-60.0942
 21
8.99704
  0
LINE
  8
0
 10
-60.0942
 20
8.99704
 11
-59.9058
 21
8.99704
  0
LINE
  8
0
 10
-59.9058
 20
8.99704
 11
-59.7189
 21
8.97342
  0
LINE
  8
0
 10
-59.7189
 20
8.97342
 11
-59.5365
 21
8.92657
  0
LINE
  8
0
 10
-59.5365
 20
8.92657
 11
-59.3613
 21
8.85724
  0
LINE
  8
0
 10
-59.3613
 20
8.85724
 11
-59.1963
 21
8.76648
  0
LINE
  8
0
 10
-59.1963
 20
8.76648
 11
-59.0439
 21
8.65576
  0
LINE
  8
0
 10
-59.0439
 20
8.65576
 11
-58.9065
 21
8.52681
  0
LINE
  8
0
 10
-58.9065
 20
8.52681
 11
-58.7865
 21
8.38167
  0
LINE
  8
0
 10
-58.7865
 20
8.38167
 11
-58.6855
 21
8.22263
  0
LINE
  8
0
 10
-58.6855
 20
8.22263
 11
-58.6053
 21
8.05219
  0
LINE
  8
0
 10
-58.6053
 20
8.05219
 11
-58.5471
 21
7.87303
  0
LINE
  8
0
 10
-58.5471
 20
7.87303
 11
-58.5118
 21
7.68799
  0
LINE
  8
0
 10
-58.5118
 20
7.68799
 11
-58.5
 21
7.5
  0
LINE
  8
0
 10
-58.5
 20
7.5
 11
-58.5118
 21
7.312
  0
LINE
  8
0
 10
-58.5118
 20
7.312
 11
-58.5471
 21
7.12695
  0
LINE
  8
0
 10
-58.5471
 20
7.12695
 11
-58.6053
 21
6.9478
  0
LINE
  8
0
 10
-58.6053
 20
6.9478
 11
-58.6855
 21
6.77736
  0
LINE
  8
0
 10
-58.6855
 20
6.77736
 11
-58.7865
 21
6.61832
  0
LINE
  8
0
 10
-58.7865
 20
6.61832
 11
-58.9065
 21
6.47318
  0
LINE
  8
0
 10
-58.9065
 20
6.47318
 11
-59.0439
 21
6.34422
  0
LINE
  8
0
 10
-59.0439
 20
6.34422
 11
-59.1963
 21
6.23351
  0
LINE
  8
0
 10
-59.1963
 20
6.23351
 11
-59.3613
 21
6.14275
  0
LINE
  8
0
 10
-59.3613
 20
6.14275
 11
-59.5365
 21
6.07341
  0
LINE
  8
0
 10
-59.5365
 20
6.07341
 11
-59.7189
 21
6.02657
  0
LINE
  8
0
 10
-59.7189
 20
6.02657
 11
-59.9058
 21
6.00294
  0
LINE
  8
0
 10
-59.9058
 20
6.00294
 11
-60.0942
 21
6.00294
  0
LINE
  8
0
 10
-60.1884
 20
-2.99408
 11
-60.5621
 21
-2.94685
  0
LINE
  8
0
 10
-60.5621
 20
-2.94685
 11
-60.927
 21
-2.85316
  0
LINE
  8
0
 10
-60.927
 20
-2.85316
 11
-61.2773
 21
-2.71448
  0
LINE
  8
0
 10
-61.2773
 20
-2.71448
 11
-61.6075
 21
-2.53297
  0
LINE
  8
0
 10
-61.6075
 20
-2.53297
 11
-61.9123
 21
-2.31154
  0
LINE
  8
0
 10
-61.9123
 20
-2.31154
 11
-62.1869
 21
-2.05363
  0
LINE
  8
0
 10
-62.1869
 20
-2.05363
 11
-62.427
 21
-1.76335
  0
LINE
  8
0
 10
-62.427
 20
-1.76335
 11
-62.6289
 21
-1.44525
  0
LINE
  8
0
 10
-62.6289
 20
-1.44525
 11
-62.7893
 21
-1.10437
  0
LINE
  8
0
 10
-62.7893
 20
-1.10437
 11
-62.9057
 21
-0.746063
  0
LINE
  8
0
 10
-62.9057
 20
-0.746063
 11
-62.9763
 21
-0.375992
  0
LINE
  8
0
 10
-62.9763
 20
-0.375992
 11
-63
 21
0
  0
LINE
  8
0
 10
-63
 20
0
 11
-62.9763
 21
0.375992
  0
LINE
  8
0
 10
-62.9763
 20
0.375992
 11
-62.9057
 21
0.746063
  0
LINE
  8
0
 10
-62.9057
 20
0.746063
 11
-62.7893
 21
1.10437
  0
LINE
  8
0
 10
-62.7893
 20
1.10437
 11
-62.6289
 21
1.44525
  0
LINE
  8
0
 10
-62.6289
 20
1.44525
 11
-62.427
 21
1.76335
  0
LINE
  8
0
 10
-62.427
 20
1.76335
 11
-62.1869
 21
2.05363
  0
LINE
  8
0
 10
-62.1869
 20
2.05363
 11
-61.9123
 21
2.31154
  0
LINE
  8
0
 10
-61.9123
 20
2.31154
 11
-61.6075
 21
2.53297
  0
LINE
  8
0
 10
-61.6075
 20
2.53297
 11
-61.2773
 21
2.71448
  0
LINE
  8
0
 10
-61.2773
 20
2.71448
 11
-60.927
 21
2.85316
  0
LINE
  8
0
 10
-60.927
 20
2.85316
 11
-60.5621
 21
2.94685
  0
LINE
  8
0
 10
-60.5621
 20
2.94685
 11
-60.1884
 21
2.99408
  0
LINE
  8
0
 10
-60.1884
 20
2.99408
 11
-59.8116
 21
2.99408
  0
LINE
  8
0
 10
-59.8116
 20
2.99408
 11
-59.4379
 21
2.94685
  0
LINE
  8
0
 10
-59.4379
 20
2.94685
 11
-59.0729
 21
2.85316
  0
LINE
  8
0
 10
-59.0729
 20
2.85316
 11
-58.7227
 21
2.71448
  0
LINE
  8
0
 10
-58.7227
 20
2.71448
 11
-58.3925
 21
2.53297
  0
LINE
  8
0
 10
-58.3925
 20
2.53297
 11
-58.0877
 21
2.31154
  0
LINE
  8
0
 10
-58.0877
 20
2.31154
 11
-57.8131
 21
2.05363
  0
LINE
  8
0
 10
-57.8131
 20
2.05363
 11
-57.5729
 21
1.76335
  0
LINE
  8
0
 10
-57.5729
 20
1.76335
 11
-57.3711
 21
1.44525
  0
LINE
  8
0
 10
-57.3711
 20
1.44525
 11
-57.2107
 21
1.10437
  0
LINE
  8
0
 10
-57.2107
 20
1.10437
 11
-57.0942
 21
0.746063
  0
LINE
  8
0
 10
-57.0942
 20
0.746063
 11
-57.0237
 21
0.375992
  0
LINE
  8
0
 10
-57.0237
 20
0.375992
 11
-57
 21
0
  0
LINE
  8
0
 10
-57
 20
0
 11
-57.0237
 21
-0.375992
  0
LINE
  8
0
 10
-57.0237
 20
-0.375992
 11
-57.0942
 21
-0.746063
  0
LINE
  8
0
 10
-57.0942
 20
-0.746063
 11
-57.2107
 21
-1.10437
  0
LINE
  8
0
 10
-57.2107
 20
-1.10437
 11
-57.3711
 21
-1.44525
  0
LINE
  8
0
 10
-57.3711
 20
-1.44525
 11
-57.5729
 21
-1.76335
  0
LINE
  8
0
 10
-57.5729
 20
-1.76335
 11
-57.8131
 21
-2.05363
  0
LINE
  8
0
 10
-57.8131
 20
-2.05363
 11
-58.0877
 21
-2.31154
  0
LINE
  8
0
 10
-58.0877
 20
-2.31154
 11
-58.3925
 21
-2.53297
  0
LINE
  8
0
 10
-58.3925
 20
-2.53297
 11
-58.7227
 21
-2.71448
  0
LINE
  8
0
 10
-58.7227
 20
-2.71448
 11
-59.0729
 21
-2.85316
  0
LINE
  8
0
 10
-59.0729
 20
-2.85316
 11
-59.4379
 21
-2.94685
  0
LINE
  8
0
 10
-59.4379
 20
-2.94685
 11
-59.8116
 21
-2.99408
  0
LINE
  8
0
 10
-59.8116
 20
-2.99408
 11
-60.1884
 21
-2.99408
  0
LINE
  8
0
 10
-60.0942
 20
-8.99704
 11
-60.2811
 21
-8.97342
  0
LINE
  8
0
 10
-60.2811
 20
-8.97342
 11
-60.4635
 21
-8.92657
  0
LINE
  8
0
 10
-60.4635
 20
-8.92657
 11
-60.6387
 21
-8.85724
  0
LINE
  8
0
 10
-60.6387
 20
-8.85724
 11
-60.8037
 21
-8.76648
  0
LINE
  8
0
 10
-60.8037
 20
-8.76648
 11
-60.9561
 21
-8.65576
  0
LINE
  8
0
 10
-60.9561
 20
-8.65576
 11
-61.0934
 21
-8.52681
  0
LINE
  8
0
 10
-61.0934
 20
-8.52681
 11
-61.2135
 21
-8.38167
  0
LINE
  8
0
 10
-61.2135
 20
-8.38167
 11
-61.3145
 21
-8.22263
  0
LINE
  8
0
 10
-61.3145
 20
-8.22263
 11
-61.3947
 21
-8.05219
  0
LINE
  8
0
 10
-61.3947
 20
-8.05219
 11
-61.4529
 21
-7.87303
  0
LINE
  8
0
 10
-61.4529
 20
-7.87303
 11
-61.4882
 21
-7.68799
  0
LINE
  8
0
 10
-61.4882
 20
-7.68799
 11
-61.5
 21
-7.5
  0
LINE
  8
0
 10
-61.5
 20
-7.5
 11
-61.4882
 21
-7.312
  0
LINE
  8
0
 10
-61.4882
 20
-7.312
 11
-61.4529
 21
-7.12695
  0
LINE
  8
0
 10
-61.4529
 20
-7.12695
 11
-61.3947
 21
-6.9478
  0
LINE
  8
0
 10
-61.3947
 20
-6.9478
 11
-61.3145
 21
-6.77736
  0
LINE
  8
0
 10
-61.3145
 20
-6.77736
 11
-61.2135
 21
-6.61832
  0
LINE
  8
0
 10
-61.2135
 20
-6.61832
 11
-61.0934
 21
-6.47318
  0
LINE
  8
0
 10
-61.0934
 20
-6.47318
 11
-60.9561
 21
-6.34422
  0
LINE
  8
0
 10
-60.9561
 20
-6.34422
 11
-60.8037
 21
-6.23351
  0
LINE
  8
0
 10
-60.8037
 20
-6.23351
 11
-60.6387
 21
-6.14275
  0
LINE
  8
0
 10
-60.6387
 20
-6.14275
 11
-60.4635
 21
-6.07341
  0
LINE
  8
0
 10
-60.4635
 20
-6.07341
 11
-60.2811
 21
-6.02657
  0
LINE
  8
0
 10
-60.2811
 20
-6.02657
 11
-60.0942
 21
-6.00294
  0
LINE
  8
0
 10
-60.0942
 20
-6.00294
 11
-59.9058
 21
-6.00294
  0
LINE
  8
0
 10
-59.9058
 20
-6.00294
 11
-59.7189
 21
-6.02657
  0
LINE
  8
0
 10
-59.7189
 20
-6.02657
 11
-59.5365
 21
-6.07341
  0
LINE
  8
0
 10
-59.5365
 20
-6.07341
 11
-59.3613
 21
-6.14275
  0
LINE
  8
0
 10
-59.3613
 20
-6.14275
 11
-59.1963
 21
-6.23351
  0
LINE
  8
0
 10
-59.1963
 20
-6.23351
 11
-59.0439
 21
-6.34422
  0
LINE
  8
0
 10
-59.0439
 20
-6.34422
 11
-58.9065
 21
-6.47318
  0
LINE
  8
0
 10
-58.9065
 20
-6.47318
 11
-58.7865
 21
-6.61832
  0
LINE
  8
0
 10
-58.7865
 20
-6.61832
 11
-58.6855
 21
-6.77736
  0
LINE
  8
0
 10
-58.6855
 20
-6.77736
 11
-58.6053
 21
-6.9478
  0
LINE
  8
0
 10
-58.6053
 20
-6.9478
 11
-58.5471
 21
-7.12695
  0
LINE
  8
0
 10
-58.5471
 20
-7.12695
 11
-58.5118
 21
-7.312
  0
LINE
  8
0
 10
-58.5118
 20
-7.312
 11
-58.5
 21
-7.5
  0
LINE
  8
0
 10
-58.5
 20
-7.5
 11
-58.5118
 21
-7.68799
  0
LINE
  8
0
 10
-58.5118
 20
-7.68799
 11
-58.5471
 21
-7.87303
  0
LINE
  8
0
 10
-58.5471
 20
-7.87303
 11
-58.6053
 21
-8.05219
  0
LINE
  8
0
 10
-58.6053
 20
-8.05219
 11
-58.6855
 21
-8.22263
  0
LINE
  8
0
 10
-58.6855
 20
-8.22263
 11
-58.7865
 21
-8.38167
  0
LINE
  8
0
 10
-58.7865
 20
-8.38167
 11
-58.9065
 21
-8.52681
  0
LINE
  8
0
 10
-58.9065
 20
-8.52681
 11
-59.0439
 21
-8.65576
  0
LINE
  8
0
 10
-59.0439
 20
-8.65576
 11
-59.1963
 21
-8.76648
  0
LINE
  8
0
 10
-59.1963
 20
-8.76648
 11
-59.3613
 21
-8.85724
  0
LINE
  8
0
 10
-59.3613
 20
-8.85724
 11
-59.5365
 21
-8.92657
  0
LINE
  8
0
 10
-59.5365
 20
-8.92657
 11
-59.7189
 21
-8.97342
  0
LINE
  8
0
 10
-59.7189
 20
-8.97342
 11
-59.9058
 21
-8.99704
  0
LINE
  8
0
 10
-59.9058
 20
-8.99704
 11
-60.0942
 21
-8.99704
  0
LINE
  8
0
 10
-60.1884
 20
-17.9941
 11
-60.5621
 21
-17.9469
  0
LINE
  8
0
 10
-60.5621
 20
-17.9469
 11
-60.927
 21
-17.8532
  0
LINE
  8
0
 10
-60.927
 20
-17.8532
 11
-61.2773
 21
-17.7145
  0
LINE
  8
0
 10
-61.2773
 20
-17.7145
 11
-61.6075
 21
-17.533
  0
LINE
  8
0
 10
-61.6075
 20
-17.533
 11
-61.9123
 21
-17.3115
  0
LINE
  8
0
 10
-61.9123
 20
-17.3115
 11
-62.1869
 21
-17.0536
  0
LINE
  8
0
 10
-62.1869
 20
-17.0536
 11
-62.427
 21
-16.7634
  0
LINE
  8
0
 10
-62.427
 20
-16.7634
 11
-62.6289
 21
-16.4453
  0
LINE
  8
0
 10
-62.6289
 20
-16.4453
 11
-62.7893
 21
-16.1044
  0
LINE
  8
0
 10
-62.7893
 20
-16.1044
 11
-62.9057
 21
-15.7461
  0
LINE
  8
0
 10
-62.9057
 20
-15.7461
 11
-62.9763
 21
-15.376
  0
LINE
  8
0
 10
-62.9763
 20
-15.376
 11
-63
 21
-15
  0
LINE
  8
0
 10
-63
 20
-15
 11
-62.9763
 21
-14.624
  0
LINE
  8
0
 10
-62.9763
 20
-14.624
 11
-62.9057
 21
-14.2539
  0
LINE
  8
0
 10
-62.9057
 20
-14.2539
 11
-62.7893
 21
-13.8956
  0
LINE
  8
0
 10
-62.7893
 20
-13.8956
 11
-62.6289
 21
-13.5547
  0
LINE
  8
0
 10
-62.6289
 20
-13.5547
 11
-62.427
 21
-13.2366
  0
LINE
  8
0
 10
-62.427
 20
-13.2366
 11
-62.1869
 21
-12.9464
  0
LINE
  8
0
 10
-62.1869
 20
-12.9464
 11
-61.9123
 21
-12.6884
  0
LINE
  8
0
 10
-61.9123
 20
-12.6884
 11
-61.6075
 21
-12.467
  0
LINE
  8
0
 10
-61.6075
 20
-12.467
 11
-61.2773
 21
-12.2855
  0
LINE
  8
0
 10
-61.2773
 20
-12.2855
 11
-60.927
 21
-12.1468
  0
LINE
  8
0
 10
-60.927
 20
-12.1468
 11
-60.5621
 21
-12.0531
  0
LINE
  8
0
 10
-60.5621
 20
-12.0531
 11
-60.1884
 21
-12.0059
  0
LINE
  8
0
 10
-60.1884
 20
-12.0059
 11
-59.8116
 21
-12.0059
  0
LINE
  8
0
 10
-59.8116
 20
-12.0059
 11
-59.4379
 21
-12.0531
  0
LINE
  8
0
 10
-59.4379
 20
-12.0531
 11
-59.0729
 21
-12.1468
  0
LINE
  8
0
 10
-59.0729
 20
-12.1468
 11
-58.7227
 21
-12.2855
  0
LINE
  8
0
 10
-58.7227
 20
-12.2855
 11
-58.3925
 21
-12.467
  0
LINE
  8
0
 10
-58.3925
 20
-12.467
 11
-58.0877
 21
-12.6884
  0
LINE
  8
0
 10
-58.0877
 20
-12.6884
 11
-57.8131
 21
-12.9464
  0
LINE
  8
0
 10
-57.8131
 20
-12.9464
 11
-57.5729
 21
-13.2366
  0
LINE
  8
0
 10
-57.5729
 20
-13.2366
 11
-57.3711
 21
-13.5547
  0
LINE
  8
0
 10
-57.3711
 20
-13.5547
 11
-57.2107
 21
-13.8956
  0
LINE
  8
0
 10
-57.2107
 20
-13.8956
 11
-57.0942
 21
-14.2539
  0
LINE
  8
0
 10
-57.0942
 20
-14.2539
 11
-57.0237
 21
-14.624
  0
LINE
  8
0
 10
-57.0237
 20
-14.624
 11
-57
 21
-15
  0
LINE
  8
0
 10
-57
 20
-15
 11
-57.0237
 21
-15.376
  0
LINE
  8
0
 10
-57.0237
 20
-15.376
 11
-57.0942
 21
-15.7461
  0
LINE
  8
0
 10
-57.0942
 20
-15.7461
 11
-57.2107
 21
-16.1044
  0
LINE
  8
0
 10
-57.2107
 20
-16.1044
 11
-57.3711
 21
-16.4453
  0
LINE
  8
0
 10
-57.3711
 20
-16.4453
 11
-57.5729
 21
-16.7634
  0
LINE
  8
0
 10
-57.5729
 20
-16.7634
 11
-57.8131
 21
-17.0536
  0
LINE
  8
0
 10
-57.8131
 20
-17.0536
 11
-58.0877
 21
-17.3115
  0
LINE
  8
0
 10
-58.0877
 20
-17.3115
 11
-58.3925
 21
-17.533
  0
LINE
  8
0
 10
-58.3925
 20
-17.533
 11
-58.7227
 21
-17.7145
  0
LINE
  8
0
 10
-58.7227
 20
-17.7145
 11
-59.0729
 21
-17.8532
  0
LINE
  8
0
 10
-59.0729
 20
-17.8532
 11
-59.4379
 21
-17.9469
  0
LINE
  8
0
 10
-59.4379
 20
-17.9469
 11
-59.8116
 21
-17.9941
  0
LINE
  8
0
 10
-59.8116
 20
-17.9941
 11
-60.1884
 21
-17.9941
  0
LINE
  8
0
 10
-60.0942
 20
-23.997
 11
-60.2811
 21
-23.9734
  0
LINE
  8
0
 10
-60.2811
 20
-23.9734
 11
-60.4635
 21
-23.9266
  0
LINE
  8
0
 10
-60.4635
 20
-23.9266
 11
-60.6387
 21
-23.8572
  0
LINE
  8
0
 10
-60.6387
 20
-23.8572
 11
-60.8037
 21
-23.7665
  0
LINE
  8
0
 10
-60.8037
 20
-23.7665
 11
-60.9561
 21
-23.6558
  0
LINE
  8
0
 10
-60.9561
 20
-23.6558
 11
-61.0934
 21
-23.5268
  0
LINE
  8
0
 10
-61.0934
 20
-23.5268
 11
-61.2135
 21
-23.3817
  0
LINE
  8
0
 10
-61.2135
 20
-23.3817
 11
-61.3145
 21
-23.2226
  0
LINE
  8
0
 10
-61.3145
 20
-23.2226
 11
-61.3947
 21
-23.0522
  0
LINE
  8
0
 10
-61.3947
 20
-23.0522
 11
-61.4529
 21
-22.873
  0
LINE
  8
0
 10
-61.4529
 20
-22.873
 11
-61.4882
 21
-22.688
  0
LINE
  8
0
 10
-61.4882
 20
-22.688
 11
-61.5
 21
-22.5
  0
LINE
  8
0
 10
-61.5
 20
-22.5
 11
-61.4882
 21
-22.312
  0
LINE
  8
0
 10
-61.4882
 20
-22.312
 11
-61.4529
 21
-22.127
  0
LINE
  8
0
 10
-61.4529
 20
-22.127
 11
-61.3947
 21
-21.9478
  0
LINE
  8
0
 10
-61.3947
 20
-21.9478
 11
-61.3145
 21
-21.7774
  0
LINE
  8
0
 10
-61.3145
 20
-21.7774
 11
-61.2135
 21
-21.6183
  0
LINE
  8
0
 10
-61.2135
 20
-21.6183
 11
-61.0934
 21
-21.4732
  0
LINE
  8
0
 10
-61.0934
 20
-21.4732
 11
-60.9561
 21
-21.3442
  0
LINE
  8
0
 10
-60.9561
 20
-21.3442
 11
-60.8037
 21
-21.2335
  0
LINE
  8
0
 10
-60.8037
 20
-21.2335
 11
-60.6387
 21
-21.1427
  0
LINE
  8
0
 10
-60.6387
 20
-21.1427
 11
-60.4635
 21
-21.0734
  0
LINE
  8
0
 10
-60.4635
 20
-21.0734
 11
-60.2811
 21
-21.0266
  0
LINE
  8
0
 10
-60.2811
 20
-21.0266
 11
-60.0942
 21
-21.003
  0
LINE
  8
0
 10
-60.0942
 20
-21.003
 11
-59.9058
 21
-21.003
  0
LINE
  8
0
 10
-59.9058
 20
-21.003
 11
-59.7189
 21
-21.0266
  0
LINE
  8
0
 10
-59.7189
 20
-21.0266
 11
-59.5365
 21
-21.0734
  0
LINE
  8
0
 10
-59.5365
 20
-21.0734
 11
-59.3613
 21
-21.1427
  0
LINE
  8
0
 10
-59.3613
 20
-21.1427
 11
-59.1963
 21
-21.2335
  0
LINE
  8
0
 10
-59.1963
 20
-21.2335
 11
-59.0439
 21
-21.3442
  0
LINE
  8
0
 10
-59.0439
 20
-21.3442
 11
-58.9065
 21
-21.4732
  0
LINE
  8
0
 10
-58.9065
 20
-21.4732
 11
-58.7865
 21
-21.6183
  0
LINE
  8
0
 10
-58.7865
 20
-21.6183
 11
-58.6855
 21
-21.7774
  0
LINE
  8
0
 10
-58.6855
 20
-21.7774
 11
-58.6053
 21
-21.9478
  0
LINE
  8
0
 10
-58.6053
 20
-21.9478
 11
-58.5471
 21
-22.127
  0
LINE
  8
0
 10
-58.5471
 20
-22.127
 11
-58.5118
 21
-22.312
  0
LINE
  8
0
 10
-58.5118
 20
-22.312
 11
-58.5
 21
-22.5
  0
LINE
  8
0
 10
-58.5
 20
-22.5
 11
-58.5118
 21
-22.688
  0
LINE
  8
0
 10
-58.5118
 20
-22.688
 11
-58.5471
 21
-22.873
  0
LINE
  8
0
 10
-58.5471
 20
-22.873
 11
-58.6053
 21
-23.0522
  0
LINE
  8
0
 10
-58.6053
 20
-23.0522
 11
-58.6855
 21
-23.2226
  0
LINE
  8
0
 10
-58.6855
 20
-23.2226
 11
-58.7865
 21
-23.3817
  0
LINE
  8
0
 10
-58.7865
 20
-23.3817
 11
-58.9065
 21
-23.5268
  0
LINE
  8
0
 10
-58.9065
 20
-23.5268
 11
-59.0439
 21
-23.6558
  0
LINE
  8
0
 10
-59.0439
 20
-23.6558
 11
-59.1963
 21
-23.7665
  0
LINE
  8
0
 10
-59.1963
 20
-23.7665
 11
-59.3613
 21
-23.8572
  0
LINE
  8
0
 10
-59.3613
 20
-23.8572
 11
-59.5365
 21
-23.9266
  0
LINE
  8
0
 10
-59.5365
 20
-23.9266
 11
-59.7189
 21
-23.9734
  0
LINE
  8
0
 10
-59.7189
 20
-23.9734
 11
-59.9058
 21
-23.997
  0
LINE
  8
0
 10
-59.9058
 20
-23.997
 11
-60.0942
 21
-23.997
  0
LINE
  8
0
 10
-60.1884
 20
-32.9941
 11
-60.5621
 21
-32.9469
  0
LINE
  8
0
 10
-60.5621
 20
-32.9469
 11
-60.927
 21
-32.8532
  0
LINE
  8
0
 10
-60.927
 20
-32.8532
 11
-61.2773
 21
-32.7145
  0
LINE
  8
0
 10
-61.2773
 20
-32.7145
 11
-61.6075
 21
-32.533
  0
LINE
  8
0
 10
-61.6075
 20
-32.533
 11
-61.9123
 21
-32.3115
  0
LINE
  8
0
 10
-61.9123
 20
-32.3115
 11
-62.1869
 21
-32.0536
  0
LINE
  8
0
 10
-62.1869
 20
-32.0536
 11
-62.427
 21
-31.7634
  0
LINE
  8
0
 10
-62.427
 20
-31.7634
 11
-62.6289
 21
-31.4453
  0
LINE
  8
0
 10
-62.6289
 20
-31.4453
 11
-62.7893
 21
-31.1044
  0
LINE
  8
0
 10
-62.7893
 20
-31.1044
 11
-62.9057
 21
-30.7461
  0
LINE
  8
0
 10
-62.9057
 20
-30.7461
 11
-62.9763
 21
-30.376
  0
LINE
  8
0
 10
-62.9763
 20
-30.376
 11
-63
 21
-30
  0
LINE
  8
0
 10
-63
 20
-30
 11
-62.9763
 21
-29.624
  0
LINE
  8
0
 10
-62.9763
 20
-29.624
 11
-62.9057
 21
-29.2539
  0
LINE
  8
0
 10
-62.9057
 20
-29.2539
 11
-62.7893
 21
-28.8956
  0
LINE
  8
0
 10
-62.7893
 20
-28.8956
 11
-62.6289
 21
-28.5547
  0
LINE
  8
0
 10
-62.6289
 20
-28.5547
 11
-62.427
 21
-28.2366
  0
LINE
  8
0
 10
-62.427
 20
-28.2366
 11
-62.1869
 21
-27.9464
  0
LINE
  8
0
 10
-62.1869
 20
-27.9464
 11
-61.9123
 21
-27.6884
  0
LINE
  8
0
 10
-61.9123
 20
-27.6884
 11
-61.6075
 21
-27.467
  0
LINE
  8
0
 10
-61.6075
 20
-27.467
 11
-61.2773
 21
-27.2855
  0
LINE
  8
0
 10
-61.2773
 20
-27.2855
 11
-60.927
 21
-27.1468
  0
LINE
  8
0
 10
-60.927
 20
-27.1468
 11
-60.5621
 21
-27.0531
  0
LINE
  8
0
 10
-60.5621
 20
-27.0531
 11
-60.1884
 21
-27.0059
  0
LINE
  8
0
 10
-60.1884
 20
-27.0059
 11
-59.8116
 21
-27.0059
  0
LINE
  8
0
 10
-59.8116
 20
-27.0059
 11
-59.4379
 21
-27.0531
  0
LINE
  8
0
 10
-59.4379
 20
-27.0531
 11
-59.0729
 21
-27.1468
  0
LINE
  8
0
 10
-59.0729
 20
-27.1468
 11
-58.7227
 21
-27.2855
  0
LINE
  8
0
 10
-58.7227
 20
-27.2855
 11
-58.3925
 21
-27.467
  0
LINE
  8
0
 10
-58.3925
 20
-27.467
 11
-58.0877
 21
-27.6884
  0
LINE
  8
0
 10
-58.0877
 20
-27.6884
 11
-57.8131
 21
-27.9464
  0
LINE
  8
0
 10
-57.8131
 20
-27.9464
 11
-57.5729
 21
-28.2366
  0
LINE
  8
0
 10
-57.5729
 20
-28.2366
 11
-57.3711
 21
-28.5547
  0
LINE
  8
0
 10
-57.3711
 20
-28.5547
 11
-57.2107
 21
-28.8956
  0
LINE
  8
0
 10
-57.2107
 20
-28.8956
 11
-57.0942
 21
-29.2539
  0
LINE
  8
0
 10
-57.0942
 20
-29.2539
 11
-57.0237
 21
-29.624
  0
LINE
  8
0
 10
-57.0237
 20
-29.624
 11
-57
 21
-30
  0
LINE
  8
0
 10
-57
 20
-30
 11
-57.0237
 21
-30.376
  0
LINE
  8
0
 10
-57.0237
 20
-30.376
 11
-57.0942
 21
-30.7461
  0
LINE
  8
0
 10
-57.0942
 20
-30.7461
 11
-57.2107
 21
-31.1044
  0
LINE
  8
0
 10
-57.2107
 20
-31.1044
 11
-57.3711
 21
-31.4453
  0
LINE
  8
0
 10
-57.3711
 20
-31.4453
 11
-57.5729
 21
-31.7634
  0
LINE
  8
0
 10
-57.5729
 20
-31.7634
 11
-57.8131
 21
-32.0536
  0
LINE
  8
0
 10
-57.8131
 20
-32.0536
 11
-58.0877
 21
-32.3115
  0
LINE
  8
0
 10
-58.0877
 20
-32.3115
 11
-58.3925
 21
-32.533
  0
LINE
  8
0
 10
-58.3925
 20
-32.533
 11
-58.7227
 21
-32.7145
  0
LINE
  8
0
 10
-58.7227
 20
-32.7145
 11
-59.0729
 21
-32.8532
  0
LINE
  8
0
 10
-59.0729
 20
-32.8532
 11
-59.4379
 21
-32.9469
  0
LINE
  8
0
 10
-59.4379
 20
-32.9469
 11
-59.8116
 21
-32.9941
  0
LINE
  8
0
 10
-59.8116
 20
-32.9941
 11
-60.1884
 21
-32.9941
  0
LINE
  8
0
 10
-60.0942
 20
-38.997
 11
-60.2811
 21
-38.9734
  0
LINE
  8
0
 10
-60.2811
 20
-38.9734
 11
-60.4635
 21
-38.9266
  0
LINE
  8
0
 10
-60.4635
 20
-38.9266
 11
-60.6387
 21
-38.8572
  0
LINE
  8
0
 10
-60.6387
 20
-38.8572
 11
-60.8037
 21
-38.7665
  0
LINE
  8
0
 10
-60.8037
 20
-38.7665
 11
-60.9561
 21
-38.6558
  0
LINE
  8
0
 10
-60.9561
 20
-38.6558
 11
-61.0934
 21
-38.5268
  0
LINE
  8
0
 10
-61.0934
 20
-38.5268
 11
-61.2135
 21
-38.3817
  0
LINE
  8
0
 10
-61.2135
 20
-38.3817
 11
-61.3145
 21
-38.2226
  0
LINE
  8
0
 10
-61.3145
 20
-38.2226
 11
-61.3947
 21
-38.0522
  0
LINE
  8
0
 10
-61.3947
 20
-38.0522
 11
-61.4529
 21
-37.873
  0
LINE
  8
0
 10
-61.4529
 20
-37.873
 11
-61.4882
 21
-37.688
  0
LINE
  8
0
 10
-61.4882
 20
-37.688
 11
-61.5
 21
-37.5
  0
LINE
  8
0
 10
-61.5
 20
-37.5
 11
-61.4882
 21
-37.312
  0
LINE
  8
0
 10
-61.4882
 20
-37.312
 11
-61.4529
 21
-37.127
  0
LINE
  8
0
 10
-61.4529
 20
-37.127
 11
-61.3947
 21
-36.9478
  0
LINE
  8
0
 10
-61.3947
 20
-36.9478
 11
-61.3145
 21
-36.7774
  0
LINE
  8
0
 10
-61.3145
 20
-36.7774
 11
-61.2135
 21
-36.6183
  0
LINE
  8
0
 10
-61.2135
 20
-36.6183
 11
-61.0934
 21
-36.4732
  0
LINE
  8
0
 10
-61.0934
 20
-36.4732
 11
-60.9561
 21
-36.3442
  0
LINE
  8
0
 10
-60.9561
 20
-36.3442
 11
-60.8037
 21
-36.2335
  0
LINE
  8
0
 10
-60.8037
 20
-36.2335
 11
-60.6387
 21
-36.1428
  0
LINE
  8
0
 10
-60.6387
 20
-36.1428
 11
-60.4635
 21
-36.0734
  0
LINE
  8
0
 10
-60.4635
 20
-36.0734
 11
-60.2811
 21
-36.0266
  0
LINE
  8
0
 10
-60.2811
 20
-36.0266
 11
-60.0942
 21
-36.003
  0
LINE
  8
0
 10
-60.0942
 20
-36.003
 11
-59.9058
 21
-36.003
  0
LINE
  8
0
 10
-59.9058
 20
-36.003
 11
-59.7189
 21
-36.0266
  0
LINE
  8
0
 10
-59.7189
 20
-36.0266
 11
-59.5365
 21
-36.0734
  0
LINE
  8
0
 10
-59.5365
 20
-36.0734
 11
-59.3613
 21
-36.1428
  0
LINE
  8
0
 10
-59.3613
 20
-36.1428
 11
-59.1963
 21
-36.2335
  0
LINE
  8
0
 10
-59.1963
 20
-36.2335
 11
-59.0439
 21
-36.3442
  0
LINE
  8
0
 10
-59.0439
 20
-36.3442
 11
-58.9065
 21
-36.4732
  0
LINE
  8
0
 10
-58.9065
 20
-36.4732
 11
-58.7865
 21
-36.6183
  0
LINE
  8
0
 10
-58.7865
 20
-36.6183
 11
-58.6855
 21
-36.7774
  0
LINE
  8
0
 10
-58.6855
 20
-36.7774
 11
-58.6053
 21
-36.9478
  0
LINE
  8
0
 10
-58.6053
 20
-36.9478
 11
-58.5471
 21
-37.127
  0
LINE
  8
0
 10
-58.5471
 20
-37.127
 11
-58.5118
 21
-37.312
  0
LINE
  8
0
 10
-58.5118
 20
-37.312
 11
-58.5
 21
-37.5
  0
LINE
  8
0
 10
-58.5
 20
-37.5
 11
-58.5118
 21
-37.688
  0
LINE
  8
0
 10
-58.5118
 20
-37.688
 11
-58.5471
 21
-37.873
  0
LINE
  8
0
 10
-58.5471
 20
-37.873
 11
-58.6053
 21
-38.0522
  0
LINE
  8
0
 10
-58.6053
 20
-38.0522
 11
-58.6855
 21
-38.2226
  0
LINE
  8
0
 10
-58.6855
 20
-38.2226
 11
-58.7865
 21
-38.3817
  0
LINE
  8
0
 10
-58.7865
 20
-38.3817
 11
-58.9065
 21
-38.5268
  0
LINE
  8
0
 10
-58.9065
 20
-38.5268
 11
-59.0439
 21
-38.6558
  0
LINE
  8
0
 10
-59.0439
 20
-38.6558
 11
-59.1963
 21
-38.7665
  0
LINE
  8
0
 10
-59.1963
 20
-38.7665
 11
-59.3613
 21
-38.8572
  0
LINE
  8
0
 10
-59.3613
 20
-38.8572
 11
-59.5365
 21
-38.9266
  0
LINE
  8
0
 10
-59.5365
 20
-38.9266
 11
-59.7189
 21
-38.9734
  0
LINE
  8
0
 10
-59.7189
 20
-38.9734
 11
-59.9058
 21
-38.997
  0
LINE
  8
0
 10
-59.9058
 20
-38.997
 11
-60.0942
 21
-38.997
  0
LINE
  8
0
 10
-60.1884
 20
-47.9941
 11
-60.5621
 21
-47.9469
  0
LINE
  8
0
 10
-60.5621
 20
-47.9469
 11
-60.927
 21
-47.8532
  0
LINE
  8
0
 10
-60.927
 20
-47.8532
 11
-61.2773
 21
-47.7145
  0
LINE
  8
0
 10
-61.2773
 20
-47.7145
 11
-61.6075
 21
-47.533
  0
LINE
  8
0
 10
-61.6075
 20
-47.533
 11
-61.9123
 21
-47.3115
  0
LINE
  8
0
 10
-61.9123
 20
-47.3115
 11
-62.1869
 21
-47.0536
  0
LINE
  8
0
 10
-62.1869
 20
-47.0536
 11
-62.427
 21
-46.7634
  0
LINE
  8
0
 10
-62.427
 20
-46.7634
 11
-62.6289
 21
-46.4453
  0
LINE
  8
0
 10
-62.6289
 20
-46.4453
 11
-62.7893
 21
-46.1044
  0
LINE
  8
0
 10
-62.7893
 20
-46.1044
 11
-62.9057
 21
-45.7461
  0
LINE
  8
0
 10
-62.9057
 20
-45.7461
 11
-62.9763
 21
-45.376
  0
LINE
  8
0
 10
-62.9763
 20
-45.376
 11
-63
 21
-45
  0
LINE
  8
0
 10
-63
 20
-45
 11
-62.9763
 21
-44.624
  0
LINE
  8
0
 10
-62.9763
 20
-44.624
 11
-62.9057
 21
-44.2539
  0
LINE
  8
0
 10
-62.9057
 20
-44.2539
 11
-62.7893
 21
-43.8956
  0
LINE
  8
0
 10
-62.7893
 20
-43.8956
 11
-62.6289
 21
-43.5547
  0
LINE
  8
0
 10
-62.6289
 20
-43.5547
 11
-62.427
 21
-43.2366
  0
LINE
  8
0
 10
-62.427
 20
-43.2366
 11
-62.1869
 21
-42.9464
  0
LINE
  8
0
 10
-62.1869
 20
-42.9464
 11
-61.9123
 21
-42.6885
  0
LINE
  8
0
 10
-61.9123
 20
-42.6885
 11
-61.6075
 21
-42.467
  0
LINE
  8
0
 10
-61.6075
 20
-42.467
 11
-61.2773
 21
-42.2855
  0
LINE
  8
0
 10
-61.2773
 20
-42.2855
 11
-60.927
 21
-42.1468
  0
LINE
  8
0
 10
-60.927
 20
-42.1468
 11
-60.5621
 21
-42.0531
  0
LINE
  8
0
 10
-60.5621
 20
-42.0531
 11
-60.1884
 21
-42.0059
  0
LINE
  8
0
 10
-60.1884
 20
-42.0059
 11
-59.8116
 21
-42.0059
  0
LINE
  8
0
 10
-59.8116
 20
-42.0059
 11
-59.4379
 21
-42.0531
  0
LINE
  8
0
 10
-59.4379
 20
-42.0531
 11
-59.0729
 21
-42.1468
  0
LINE
  8
0
 10
-59.0729
 20
-42.1468
 11
-58.7227
 21
-42.2855
  0
LINE
  8
0
 10
-58.7227
 20
-42.2855
 11
-58.3925
 21
-42.467
  0
LINE
  8
0
 10
-58.3925
 20
-42.467
 11
-58.0877
 21
-42.6885
  0
LINE
  8
0
 10
-58.0877
 20
-42.6885
 11
-57.8131
 21
-42.9464
  0
LINE
  8
0
 10
-57.8131
 20
-42.9464
 11
-57.5729
 21
-43.2366
  0
LINE
  8
0
 10
-57.5729
 20
-43.2366
 11
-57.3711
 21
-43.5547
  0
LINE
  8
0
 10
-57.3711
 20
-43.5547
 11
-57.2107
 21
-43.8956
  0
LINE
  8
0
 10
-57.2107
 20
-43.8956
 11
-57.0942
 21
-44.2539
  0
LINE
  8
0
 10
-57.0942
 20
-44.2539
 11
-57.0237
 21
-44.624
  0
LINE
  8
0
 10
-57.0237
 20
-44.624
 11
-57
 21
-45
  0
LINE
  8
0
 10
-57
 20
-45
 11
-57.0237
 21
-45.376
  0
LINE
  8
0
 10
-57.0237
 20
-45.376
 11
-57.0942
 21
-45.7461
  0
LINE
  8
0
 10
-57.0942
 20
-45.7461
 11
-57.2107
 21
-46.1044
  0
LINE
  8
0
 10
-57.2107
 20
-46.1044
 11
-57.3711
 21
-46.4453
  0
LINE
  8
0
 10
-57.3711
 20
-46.4453
 11
-57.5729
 21
-46.7634
  0
LINE
  8
0
 10
-57.5729
 20
-46.7634
 11
-57.8131
 21
-47.0536
  0
LINE
  8
0
 10
-57.8131
 20
-47.0536
 11
-58.0877
 21
-47.3115
  0
LINE
  8
0
 10
-58.0877
 20
-47.3115
 11
-58.3925
 21
-47.533
  0
LINE
  8
0
 10
-58.3925
 20
-47.533
 11
-58.7227
 21
-47.7145
  0
LINE
  8
0
 10
-58.7227
 20
-47.7145
 11
-59.0729
 21
-47.8532
  0
LINE
  8
0
 10
-59.0729
 20
-47.8532
 11
-59.4379
 21
-47.9469
  0
LINE
  8
0
 10
-59.4379
 20
-47.9469
 11
-59.8116
 21
-47.9941
  0
LINE
  8
0
 10
-59.8116
 20
-47.9941
 11
-60.1884
 21
-47.9941
  0
ENDSEC
  0
SECTION
  2
OBJECTS
  0
DICTIONARY
  0
ENDSEC
  0
EOF
