  0
SECTION
  2
BLOCKS
  0
ENDSEC
  0
SECTION
  2
ENTITIES
  0
LINE
  8
0
 10
40.4369
 20
32.0886
 11
41.0451
 21
32.2447
  0
LINE
  8
0
 10
41.0451
 20
32.2447
 11
41.6289
 21
32.4759
  0
LINE
  8
0
 10
41.6289
 20
32.4759
 11
42.1791
 21
32.7784
  0
LINE
  8
0
 10
42.1791
 20
32.7784
 11
42.6871
 21
33.1474
  0
LINE
  8
0
 10
42.6871
 20
33.1474
 11
43.1448
 21
33.5773
  0
LINE
  8
0
 10
43.1448
 20
33.5773
 11
43.5451
 21
34.0611
  0
LINE
  8
0
 10
43.5451
 20
34.0611
 11
43.8815
 21
34.5912
  0
LINE
  8
0
 10
43.8815
 20
34.5912
 11
44.1489
 21
35.1594
  0
LINE
  8
0
 10
44.1489
 20
35.1594
 11
44.3429
 21
35.7566
  0
LINE
  8
0
 10
44.3429
 20
35.7566
 11
44.4606
 21
36.3733
  0
LINE
  8
0
 10
44.4606
 20
36.3733
 11
44.5
 21
37
  0
LINE
  8
0
 10
44.5
 20
37
 11
44.5
 21
71
  0
LINE
  8
0
 10
44.5
 20
71
 11
44.4606
 21
71.6267
  0
LINE
  8
0
 10
44.4606
 20
71.6267
 11
44.3429
 21
72.2434
  0
LINE
  8
0
 10
44.3429
 20
72.2434
 11
44.1489
 21
72.8406
  0
LINE
  8
0
 10
44.1489
 20
72.8406
 11
43.8815
 21
73.4088
  0
LINE
  8
0
 10
43.8815
 20
73.4088
 11
43.5451
 21
73.9389
  0
LINE
  8
0
 10
43.5451
 20
73.9389
 11
43.1448
 21
74.4227
  0
LINE
  8
0
 10
43.1448
 20
74.4227
 11
42.6871
 21
74.8526
  0
LINE
  8
0
 10
42.6871
 20
74.8526
 11
42.1791
 21
75.2216
  0
LINE
  8
0
 10
42.1791
 20
75.2216
 11
41.6289
 21
75.5241
  0
LINE
  8
0
 10
41.6289
 20
75.5241
 11
41.0451
 21
75.7553
  0
LINE
  8
0
 10
41.0451
 20
75.7553
 11
40.4369
 21
75.9114
  0
LINE
  8
0
 10
40.4369
 20
75.9114
 11
39.8139
 21
75.9901
  0
LINE
  8
0
 10
39.8139
 20
75.9901
 11
-39.8139
 21
75.9901
  0
LINE
  8
0
 10
-39.8139
 20
75.9901
 11
-40.4369
 21
75.9114
  0
LINE
  8
0
 10
-40.4369
 20
75.9114
 11
-41.0451
 21
75.7553
  0
LINE
  8
0
 10
-41.0451
 20
75.7553
 11
-41.6289
 21
75.5241
  0
LINE
  8
0
 10
-41.6289
 20
75.5241
 11
-42.1791
 21
75.2216
  0
LINE
  8
0
 10
-42.1791
 20
75.2216
 11
-42.6871
 21
74.8526
  0
LINE
  8
0
 10
-42.6871
 20
74.8526
 11
-43.1448
 21
74.4227
  0
LINE
  8
0
 10
-43.1448
 20
74.4227
 11
-43.5451
 21
73.9389
  0
LINE
  8
0
 10
-43.5451
 20
73.9389
 11
-43.8815
 21
73.4088
  0
LINE
  8
0
 10
-43.8815
 20
73.4088
 11
-44.1489
 21
72.8406
  0
LINE
  8
0
 10
-44.1489
 20
72.8406
 11
-44.3429
 21
72.2434
  0
LINE
  8
0
 10
-44.3429
 20
72.2434
 11
-44.4606
 21
71.6267
  0
LINE
  8
0
 10
-44.4606
 20
71.6267
 11
-44.5
 21
71
  0
LINE
  8
0
 10
-44.5
 20
71
 11
-44.5
 21
37
  0
LINE
  8
0
 10
-44.5
 20
37
 11
-44.4606
 21
36.3733
  0
LINE
  8
0
 10
-44.4606
 20
36.3733
 11
-44.3429
 21
35.7566
  0
LINE
  8
0
 10
-44.3429
 20
35.7566
 11
-44.1489
 21
35.1594
  0
LINE
  8
0
 10
-44.1489
 20
35.1594
 11
-43.8815
 21
34.5912
  0
LINE
  8
0
 10
-43.8815
 20
34.5912
 11
-43.5451
 21
34.0611
  0
LINE
  8
0
 10
-43.5451
 20
34.0611
 11
-43.1448
 21
33.5773
  0
LINE
  8
0
 10
-43.1448
 20
33.5773
 11
-42.6871
 21
33.1474
  0
LINE
  8
0
 10
-42.6871
 20
33.1474
 11
-42.1791
 21
32.7784
  0
LINE
  8
0
 10
-42.1791
 20
32.7784
 11
-41.6289
 21
32.4759
  0
LINE
  8
0
 10
-41.6289
 20
32.4759
 11
-41.0451
 21
32.2447
  0
LINE
  8
0
 10
-41.0451
 20
32.2447
 11
-40.4369
 21
32.0886
  0
LINE
  8
0
 10
-40.4369
 20
32.0886
 11
-39.8139
 21
32.0099
  0
LINE
  8
0
 10
-39.8139
 20
32.0099
 11
39.8139
 21
32.0099
  0
LINE
  8
0
 10
39.8139
 20
32.0099
 11
40.4369
 21
32.0886
  0
LINE
  8
0
 10
-22.6884
 20
66.0059
 11
-23.0621
 21
66.0531
  0
LINE
  8
0
 10
-23.0621
 20
66.0531
 11
-23.427
 21
66.1468
  0
LINE
  8
0
 10
-23.427
 20
66.1468
 11
-23.7773
 21
66.2855
  0
LINE
  8
0
 10
-23.7773
 20
66.2855
 11
-24.1075
 21
66.467
  0
LINE
  8
0
 10
-24.1075
 20
66.467
 11
-24.4123
 21
66.6884
  0
LINE
  8
0
 10
-24.4123
 20
66.6884
 11
-24.6869
 21
66.9464
  0
LINE
  8
0
 10
-24.6869
 20
66.9464
 11
-24.927
 21
67.2366
  0
LINE
  8
0
 10
-24.927
 20
67.2366
 11
-25.1289
 21
67.5547
  0
LINE
  8
0
 10
-25.1289
 20
67.5547
 11
-25.2893
 21
67.8956
  0
LINE
  8
0
 10
-25.2893
 20
67.8956
 11
-25.4057
 21
68.2539
  0
LINE
  8
0
 10
-25.4057
 20
68.2539
 11
-25.4763
 21
68.624
  0
LINE
  8
0
 10
-25.4763
 20
68.624
 11
-25.5
 21
69
  0
LINE
  8
0
 10
-25.5
 20
69
 11
-25.4763
 21
69.376
  0
LINE
  8
0
 10
-25.4763
 20
69.376
 11
-25.4057
 21
69.7461
  0
LINE
  8
0
 10
-25.4057
 20
69.7461
 11
-25.2893
 21
70.1044
  0
LINE
  8
0
 10
-25.2893
 20
70.1044
 11
-25.1289
 21
70.4453
  0
LINE
  8
0
 10
-25.1289
 20
70.4453
 11
-24.927
 21
70.7634
  0
LINE
  8
0
 10
-24.927
 20
70.7634
 11
-24.6869
 21
71.0536
  0
LINE
  8
0
 10
-24.6869
 20
71.0536
 11
-24.4123
 21
71.3115
  0
LINE
  8
0
 10
-24.4123
 20
71.3115
 11
-24.1075
 21
71.533
  0
LINE
  8
0
 10
-24.1075
 20
71.533
 11
-23.7773
 21
71.7145
  0
LINE
  8
0
 10
-23.7773
 20
71.7145
 11
-23.427
 21
71.8532
  0
LINE
  8
0
 10
-23.427
 20
71.8532
 11
-23.0621
 21
71.9469
  0
LINE
  8
0
 10
-23.0621
 20
71.9469
 11
-22.6884
 21
71.9941
  0
LINE
  8
0
 10
-22.6884
 20
71.9941
 11
-22.3116
 21
71.9941
  0
LINE
  8
0
 10
-22.3116
 20
71.9941
 11
-21.9379
 21
71.9469
  0
LINE
  8
0
 10
-21.9379
 20
71.9469
 11
-21.5729
 21
71.8532
  0
LINE
  8
0
 10
-21.5729
 20
71.8532
 11
-21.2227
 21
71.7145
  0
LINE
  8
0
 10
-21.2227
 20
71.7145
 11
-20.8925
 21
71.533
  0
LINE
  8
0
 10
-20.8925
 20
71.533
 11
-20.5877
 21
71.3115
  0
LINE
  8
0
 10
-20.5877
 20
71.3115
 11
-20.3131
 21
71.0536
  0
LINE
  8
0
 10
-20.3131
 20
71.0536
 11
-20.0729
 21
70.7634
  0
LINE
  8
0
 10
-20.0729
 20
70.7634
 11
-19.8711
 21
70.4453
  0
LINE
  8
0
 10
-19.8711
 20
70.4453
 11
-19.7107
 21
70.1044
  0
LINE
  8
0
 10
-19.7107
 20
70.1044
 11
-19.5942
 21
69.7461
  0
LINE
  8
0
 10
-19.5942
 20
69.7461
 11
-19.5237
 21
69.376
  0
LINE
  8
0
 10
-19.5237
 20
69.376
 11
-19.5
 21
69
  0
LINE
  8
0
 10
-19.5
 20
69
 11
-19.5237
 21
68.624
  0
LINE
  8
0
 10
-19.5237
 20
68.624
 11
-19.5942
 21
68.2539
  0
LINE
  8
0
 10
-19.5942
 20
68.2539
 11
-19.7107
 21
67.8956
  0
LINE
  8
0
 10
-19.7107
 20
67.8956
 11
-19.8711
 21
67.5547
  0
LINE
  8
0
 10
-19.8711
 20
67.5547
 11
-20.0729
 21
67.2366
  0
LINE
  8
0
 10
-20.0729
 20
67.2366
 11
-20.3131
 21
66.9464
  0
LINE
  8
0
 10
-20.3131
 20
66.9464
 11
-20.5877
 21
66.6884
  0
LINE
  8
0
 10
-20.5877
 20
66.6884
 11
-20.8925
 21
66.467
  0
LINE
  8
0
 10
-20.8925
 20
66.467
 11
-21.2227
 21
66.2855
  0
LINE
  8
0
 10
-21.2227
 20
66.2855
 11
-21.5729
 21
66.1468
  0
LINE
  8
0
 10
-21.5729
 20
66.1468
 11
-21.9379
 21
66.0531
  0
LINE
  8
0
 10
-21.9379
 20
66.0531
 11
-22.3116
 21
66.0059
  0
LINE
  8
0
 10
-22.3116
 20
66.0059
 11
-22.6884
 21
66.0059
  0
LINE
  8
0
 10
-37.6884
 20
66.0059
 11
-38.0621
 21
66.0531
  0
LINE
  8
0
 10
-38.0621
 20
66.0531
 11
-38.427
 21
66.1468
  0
LINE
  8
0
 10
-38.427
 20
66.1468
 11
-38.7773
 21
66.2855
  0
LINE
  8
0
 10
-38.7773
 20
66.2855
 11
-39.1075
 21
66.467
  0
LINE
  8
0
 10
-39.1075
 20
66.467
 11
-39.4123
 21
66.6884
  0
LINE
  8
0
 10
-39.4123
 20
66.6884
 11
-39.6869
 21
66.9464
  0
LINE
  8
0
 10
-39.6869
 20
66.9464
 11
-39.927
 21
67.2366
  0
LINE
  8
0
 10
-39.927
 20
67.2366
 11
-40.1289
 21
67.5547
  0
LINE
  8
0
 10
-40.1289
 20
67.5547
 11
-40.2893
 21
67.8956
  0
LINE
  8
0
 10
-40.2893
 20
67.8956
 11
-40.4057
 21
68.2539
  0
LINE
  8
0
 10
-40.4057
 20
68.2539
 11
-40.4763
 21
68.624
  0
LINE
  8
0
 10
-40.4763
 20
68.624
 11
-40.5
 21
69
  0
LINE
  8
0
 10
-40.5
 20
69
 11
-40.4763
 21
69.376
  0
LINE
  8
0
 10
-40.4763
 20
69.376
 11
-40.4057
 21
69.7461
  0
LINE
  8
0
 10
-40.4057
 20
69.7461
 11
-40.2893
 21
70.1044
  0
LINE
  8
0
 10
-40.2893
 20
70.1044
 11
-40.1289
 21
70.4453
  0
LINE
  8
0
 10
-40.1289
 20
70.4453
 11
-39.927
 21
70.7634
  0
LINE
  8
0
 10
-39.927
 20
70.7634
 11
-39.6869
 21
71.0536
  0
LINE
  8
0
 10
-39.6869
 20
71.0536
 11
-39.4123
 21
71.3115
  0
LINE
  8
0
 10
-39.4123
 20
71.3115
 11
-39.1075
 21
71.533
  0
LINE
  8
0
 10
-39.1075
 20
71.533
 11
-38.7773
 21
71.7145
  0
LINE
  8
0
 10
-38.7773
 20
71.7145
 11
-38.427
 21
71.8532
  0
LINE
  8
0
 10
-38.427
 20
71.8532
 11
-38.0621
 21
71.9469
  0
LINE
  8
0
 10
-38.0621
 20
71.9469
 11
-37.6884
 21
71.9941
  0
LINE
  8
0
 10
-37.6884
 20
71.9941
 11
-37.3116
 21
71.9941
  0
LINE
  8
0
 10
-37.3116
 20
71.9941
 11
-36.9379
 21
71.9469
  0
LINE
  8
0
 10
-36.9379
 20
71.9469
 11
-36.5729
 21
71.8532
  0
LINE
  8
0
 10
-36.5729
 20
71.8532
 11
-36.2227
 21
71.7145
  0
LINE
  8
0
 10
-36.2227
 20
71.7145
 11
-35.8925
 21
71.533
  0
LINE
  8
0
 10
-35.8925
 20
71.533
 11
-35.5877
 21
71.3115
  0
LINE
  8
0
 10
-35.5877
 20
71.3115
 11
-35.3131
 21
71.0536
  0
LINE
  8
0
 10
-35.3131
 20
71.0536
 11
-35.0729
 21
70.7634
  0
LINE
  8
0
 10
-35.0729
 20
70.7634
 11
-34.8711
 21
70.4453
  0
LINE
  8
0
 10
-34.8711
 20
70.4453
 11
-34.7107
 21
70.1044
  0
LINE
  8
0
 10
-34.7107
 20
70.1044
 11
-34.5942
 21
69.7461
  0
LINE
  8
0
 10
-34.5942
 20
69.7461
 11
-34.5237
 21
69.376
  0
LINE
  8
0
 10
-34.5237
 20
69.376
 11
-34.5
 21
69
  0
LINE
  8
0
 10
-34.5
 20
69
 11
-34.5237
 21
68.624
  0
LINE
  8
0
 10
-34.5237
 20
68.624
 11
-34.5942
 21
68.2539
  0
LINE
  8
0
 10
-34.5942
 20
68.2539
 11
-34.7107
 21
67.8956
  0
LINE
  8
0
 10
-34.7107
 20
67.8956
 11
-34.8711
 21
67.5547
  0
LINE
  8
0
 10
-34.8711
 20
67.5547
 11
-35.0729
 21
67.2366
  0
LINE
  8
0
 10
-35.0729
 20
67.2366
 11
-35.3131
 21
66.9464
  0
LINE
  8
0
 10
-35.3131
 20
66.9464
 11
-35.5877
 21
66.6884
  0
LINE
  8
0
 10
-35.5877
 20
66.6884
 11
-35.8925
 21
66.467
  0
LINE
  8
0
 10
-35.8925
 20
66.467
 11
-36.2227
 21
66.2855
  0
LINE
  8
0
 10
-36.2227
 20
66.2855
 11
-36.5729
 21
66.1468
  0
LINE
  8
0
 10
-36.5729
 20
66.1468
 11
-36.9379
 21
66.0531
  0
LINE
  8
0
 10
-36.9379
 20
66.0531
 11
-37.3116
 21
66.0059
  0
LINE
  8
0
 10
-37.3116
 20
66.0059
 11
-37.6884
 21
66.0059
  0
LINE
  8
0
 10
-7.68837
 20
66.0059
 11
-8.06213
 21
66.0531
  0
LINE
  8
0
 10
-8.06213
 20
66.0531
 11
-8.42705
 21
66.1468
  0
LINE
  8
0
 10
-8.42705
 20
66.1468
 11
-8.77733
 21
66.2855
  0
LINE
  8
0
 10
-8.77733
 20
66.2855
 11
-9.10747
 21
66.467
  0
LINE
  8
0
 10
-9.10747
 20
66.467
 11
-9.41226
 21
66.6884
  0
LINE
  8
0
 10
-9.41226
 20
66.6884
 11
-9.6869
 21
66.9464
  0
LINE
  8
0
 10
-9.6869
 20
66.9464
 11
-9.92705
 21
67.2366
  0
LINE
  8
0
 10
-9.92705
 20
67.2366
 11
-10.1289
 21
67.5547
  0
LINE
  8
0
 10
-10.1289
 20
67.5547
 11
-10.2893
 21
67.8956
  0
LINE
  8
0
 10
-10.2893
 20
67.8956
 11
-10.4057
 21
68.2539
  0
LINE
  8
0
 10
-10.4057
 20
68.2539
 11
-10.4763
 21
68.624
  0
LINE
  8
0
 10
-10.4763
 20
68.624
 11
-10.5
 21
69
  0
LINE
  8
0
 10
-10.5
 20
69
 11
-10.4763
 21
69.376
  0
LINE
  8
0
 10
-10.4763
 20
69.376
 11
-10.4057
 21
69.7461
  0
LINE
  8
0
 10
-10.4057
 20
69.7461
 11
-10.2893
 21
70.1044
  0
LINE
  8
0
 10
-10.2893
 20
70.1044
 11
-10.1289
 21
70.4453
  0
LINE
  8
0
 10
-10.1289
 20
70.4453
 11
-9.92705
 21
70.7634
  0
LINE
  8
0
 10
-9.92705
 20
70.7634
 11
-9.6869
 21
71.0536
  0
LINE
  8
0
 10
-9.6869
 20
71.0536
 11
-9.41226
 21
71.3115
  0
LINE
  8
0
 10
-9.41226
 20
71.3115
 11
-9.10747
 21
71.533
  0
LINE
  8
0
 10
-9.10747
 20
71.533
 11
-8.77733
 21
71.7145
  0
LINE
  8
0
 10
-8.77733
 20
71.7145
 11
-8.42705
 21
71.8532
  0
LINE
  8
0
 10
-8.42705
 20
71.8532
 11
-8.06213
 21
71.9469
  0
LINE
  8
0
 10
-8.06213
 20
71.9469
 11
-7.68837
 21
71.9941
  0
LINE
  8
0
 10
-7.68837
 20
71.9941
 11
-7.31161
 21
71.9941
  0
LINE
  8
0
 10
-7.31161
 20
71.9941
 11
-6.93785
 21
71.9469
  0
LINE
  8
0
 10
-6.93785
 20
71.9469
 11
-6.57294
 21
71.8532
  0
LINE
  8
0
 10
-6.57294
 20
71.8532
 11
-6.22266
 21
71.7145
  0
LINE
  8
0
 10
-6.22266
 20
71.7145
 11
-5.89252
 21
71.533
  0
LINE
  8
0
 10
-5.89252
 20
71.533
 11
-5.58772
 21
71.3115
  0
LINE
  8
0
 10
-5.58772
 20
71.3115
 11
-5.31308
 21
71.0536
  0
LINE
  8
0
 10
-5.31308
 20
71.0536
 11
-5.07294
 21
70.7634
  0
LINE
  8
0
 10
-5.07294
 20
70.7634
 11
-4.87108
 21
70.4453
  0
LINE
  8
0
 10
-4.87108
 20
70.4453
 11
-4.71066
 21
70.1044
  0
LINE
  8
0
 10
-4.71066
 20
70.1044
 11
-4.59424
 21
69.7461
  0
LINE
  8
0
 10
-4.59424
 20
69.7461
 11
-4.52365
 21
69.376
  0
LINE
  8
0
 10
-4.52365
 20
69.376
 11
-4.5
 21
69
  0
LINE
  8
0
 10
-4.5
 20
69
 11
-4.52365
 21
68.624
  0
LINE
  8
0
 10
-4.52365
 20
68.624
 11
-4.59424
 21
68.2539
  0
LINE
  8
0
 10
-4.59424
 20
68.2539
 11
-4.71066
 21
67.8956
  0
LINE
  8
0
 10
-4.71066
 20
67.8956
 11
-4.87108
 21
67.5547
  0
LINE
  8
0
 10
-4.87108
 20
67.5547
 11
-5.07294
 21
67.2366
  0
LINE
  8
0
 10
-5.07294
 20
67.2366
 11
-5.31308
 21
66.9464
  0
LINE
  8
0
 10
-5.31308
 20
66.9464
 11
-5.58772
 21
66.6884
  0
LINE
  8
0
 10
-5.58772
 20
66.6884
 11
-5.89252
 21
66.467
  0
LINE
  8
0
 10
-5.89252
 20
66.467
 11
-6.22266
 21
66.2855
  0
LINE
  8
0
 10
-6.22266
 20
66.2855
 11
-6.57294
 21
66.1468
  0
LINE
  8
0
 10
-6.57294
 20
66.1468
 11
-6.93785
 21
66.0531
  0
LINE
  8
0
 10
-6.93785
 20
66.0531
 11
-7.31161
 21
66.0059
  0
LINE
  8
0
 10
-7.31161
 20
66.0059
 11
-7.68837
 21
66.0059
  0
LINE
  8
0
 10
37.3116
 20
66.0059
 11
36.9379
 21
66.0531
  0
LINE
  8
0
 10
36.9379
 20
66.0531
 11
36.5729
 21
66.1468
  0
LINE
  8
0
 10
36.5729
 20
66.1468
 11
36.2227
 21
66.2855
  0
LINE
  8
0
 10
36.2227
 20
66.2855
 11
35.8925
 21
66.467
  0
LINE
  8
0
 10
35.8925
 20
66.467
 11
35.5877
 21
66.6884
  0
LINE
  8
0
 10
35.5877
 20
66.6884
 11
35.3131
 21
66.9464
  0
LINE
  8
0
 10
35.3131
 20
66.9464
 11
35.0729
 21
67.2366
  0
LINE
  8
0
 10
35.0729
 20
67.2366
 11
34.8711
 21
67.5547
  0
LINE
  8
0
 10
34.8711
 20
67.5547
 11
34.7107
 21
67.8956
  0
LINE
  8
0
 10
34.7107
 20
67.8956
 11
34.5942
 21
68.2539
  0
LINE
  8
0
 10
34.5942
 20
68.2539
 11
34.5237
 21
68.624
  0
LINE
  8
0
 10
34.5237
 20
68.624
 11
34.5
 21
69
  0
LINE
  8
0
 10
34.5
 20
69
 11
34.5237
 21
69.376
  0
LINE
  8
0
 10
34.5237
 20
69.376
 11
34.5942
 21
69.7461
  0
LINE
  8
0
 10
34.5942
 20
69.7461
 11
34.7107
 21
70.1044
  0
LINE
  8
0
 10
34.7107
 20
70.1044
 11
34.8711
 21
70.4453
  0
LINE
  8
0
 10
34.8711
 20
70.4453
 11
35.0729
 21
70.7634
  0
LINE
  8
0
 10
35.0729
 20
70.7634
 11
35.3131
 21
71.0536
  0
LINE
  8
0
 10
35.3131
 20
71.0536
 11
35.5877
 21
71.3115
  0
LINE
  8
0
 10
35.5877
 20
71.3115
 11
35.8925
 21
71.533
  0
LINE
  8
0
 10
35.8925
 20
71.533
 11
36.2227
 21
71.7145
  0
LINE
  8
0
 10
36.2227
 20
71.7145
 11
36.5729
 21
71.8532
  0
LINE
  8
0
 10
36.5729
 20
71.8532
 11
36.9379
 21
71.9469
  0
LINE
  8
0
 10
36.9379
 20
71.9469
 11
37.3116
 21
71.9941
  0
LINE
  8
0
 10
37.3116
 20
71.9941
 11
37.6884
 21
71.9941
  0
LINE
  8
0
 10
37.6884
 20
71.9941
 11
38.0621
 21
71.9469
  0
LINE
  8
0
 10
38.0621
 20
71.9469
 11
38.427
 21
71.8532
  0
LINE
  8
0
 10
38.427
 20
71.8532
 11
38.7773
 21
71.7145
  0
LINE
  8
0
 10
38.7773
 20
71.7145
 11
39.1075
 21
71.533
  0
LINE
  8
0
 10
39.1075
 20
71.533
 11
39.4123
 21
71.3115
  0
LINE
  8
0
 10
39.4123
 20
71.3115
 11
39.6869
 21
71.0536
  0
LINE
  8
0
 10
39.6869
 20
71.0536
 11
39.927
 21
70.7634
  0
LINE
  8
0
 10
39.927
 20
70.7634
 11
40.1289
 21
70.4453
  0
LINE
  8
0
 10
40.1289
 20
70.4453
 11
40.2893
 21
70.1044
  0
LINE
  8
0
 10
40.2893
 20
70.1044
 11
40.4057
 21
69.7461
  0
LINE
  8
0
 10
40.4057
 20
69.7461
 11
40.4763
 21
69.376
  0
LINE
  8
0
 10
40.4763
 20
69.376
 11
40.5
 21
69
  0
LINE
  8
0
 10
40.5
 20
69
 11
40.4763
 21
68.624
  0
LINE
  8
0
 10
40.4763
 20
68.624
 11
40.4057
 21
68.2539
  0
LINE
  8
0
 10
40.4057
 20
68.2539
 11
40.2893
 21
67.8956
  0
LINE
  8
0
 10
40.2893
 20
67.8956
 11
40.1289
 21
67.5547
  0
LINE
  8
0
 10
40.1289
 20
67.5547
 11
39.927
 21
67.2366
  0
LINE
  8
0
 10
39.927
 20
67.2366
 11
39.6869
 21
66.9464
  0
LINE
  8
0
 10
39.6869
 20
66.9464
 11
39.4123
 21
66.6884
  0
LINE
  8
0
 10
39.4123
 20
66.6884
 11
39.1075
 21
66.467
  0
LINE
  8
0
 10
39.1075
 20
66.467
 11
38.7773
 21
66.2855
  0
LINE
  8
0
 10
38.7773
 20
66.2855
 11
38.427
 21
66.1468
  0
LINE
  8
0
 10
38.427
 20
66.1468
 11
38.0621
 21
66.0531
  0
LINE
  8
0
 10
38.0621
 20
66.0531
 11
37.6884
 21
66.0059
  0
LINE
  8
0
 10
37.6884
 20
66.0059
 11
37.3116
 21
66.0059
  0
LINE
  8
0
 10
7.31161
 20
66.0059
 11
6.93785
 21
66.0531
  0
LINE
  8
0
 10
6.93785
 20
66.0531
 11
6.57294
 21
66.1468
  0
LINE
  8
0
 10
6.57294
 20
66.1468
 11
6.22266
 21
66.2855
  0
LINE
  8
0
 10
6.22266
 20
66.2855
 11
5.89252
 21
66.467
  0
LINE
  8
0
 10
5.89252
 20
66.467
 11
5.58772
 21
66.6884
  0
LINE
  8
0
 10
5.58772
 20
66.6884
 11
5.31308
 21
66.9464
  0
LINE
  8
0
 10
5.31308
 20
66.9464
 11
5.07294
 21
67.2366
  0
LINE
  8
0
 10
5.07294
 20
67.2366
 11
4.87108
 21
67.5547
  0
LINE
  8
0
 10
4.87108
 20
67.5547
 11
4.71066
 21
67.8956
  0
LINE
  8
0
 10
4.71066
 20
67.8956
 11
4.59424
 21
68.2539
  0
LINE
  8
0
 10
4.59424
 20
68.2539
 11
4.52365
 21
68.624
  0
LINE
  8
0
 10
4.52365
 20
68.624
 11
4.5
 21
69
  0
LINE
  8
0
 10
4.5
 20
69
 11
4.52365
 21
69.376
  0
LINE
  8
0
 10
4.52365
 20
69.376
 11
4.59424
 21
69.7461
  0
LINE
  8
0
 10
4.59424
 20
69.7461
 11
4.71066
 21
70.1044
  0
LINE
  8
0
 10
4.71066
 20
70.1044
 11
4.87108
 21
70.4453
  0
LINE
  8
0
 10
4.87108
 20
70.4453
 11
5.07294
 21
70.7634
  0
LINE
  8
0
 10
5.07294
 20
70.7634
 11
5.31308
 21
71.0536
  0
LINE
  8
0
 10
5.31308
 20
71.0536
 11
5.58772
 21
71.3115
  0
LINE
  8
0
 10
5.58772
 20
71.3115
 11
5.89252
 21
71.533
  0
LINE
  8
0
 10
5.89252
 20
71.533
 11
6.22266
 21
71.7145
  0
LINE
  8
0
 10
6.22266
 20
71.7145
 11
6.57294
 21
71.8532
  0
LINE
  8
0
 10
6.57294
 20
71.8532
 11
6.93785
 21
71.9469
  0
LINE
  8
0
 10
6.93785
 20
71.9469
 11
7.31161
 21
71.9941
  0
LINE
  8
0
 10
7.31161
 20
71.9941
 11
7.68837
 21
71.9941
  0
LINE
  8
0
 10
7.68837
 20
71.9941
 11
8.06213
 21
71.9469
  0
LINE
  8
0
 10
8.06213
 20
71.9469
 11
8.42705
 21
71.8532
  0
LINE
  8
0
 10
8.42705
 20
71.8532
 11
8.77733
 21
71.7145
  0
LINE
  8
0
 10
8.77733
 20
71.7145
 11
9.10747
 21
71.533
  0
LINE
  8
0
 10
9.10747
 20
71.533
 11
9.41226
 21
71.3115
  0
LINE
  8
0
 10
9.41226
 20
71.3115
 11
9.6869
 21
71.0536
  0
LINE
  8
0
 10
9.6869
 20
71.0536
 11
9.92705
 21
70.7634
  0
LINE
  8
0
 10
9.92705
 20
70.7634
 11
10.1289
 21
70.4453
  0
LINE
  8
0
 10
10.1289
 20
70.4453
 11
10.2893
 21
70.1044
  0
LINE
  8
0
 10
10.2893
 20
70.1044
 11
10.4057
 21
69.7461
  0
LINE
  8
0
 10
10.4057
 20
69.7461
 11
10.4763
 21
69.376
  0
LINE
  8
0
 10
10.4763
 20
69.376
 11
10.5
 21
69
  0
LINE
  8
0
 10
10.5
 20
69
 11
10.4763
 21
68.624
  0
LINE
  8
0
 10
10.4763
 20
68.624
 11
10.4057
 21
68.2539
  0
LINE
  8
0
 10
10.4057
 20
68.2539
 11
10.2893
 21
67.8956
  0
LINE
  8
0
 10
10.2893
 20
67.8956
 11
10.1289
 21
67.5547
  0
LINE
  8
0
 10
10.1289
 20
67.5547
 11
9.92705
 21
67.2366
  0
LINE
  8
0
 10
9.92705
 20
67.2366
 11
9.6869
 21
66.9464
  0
LINE
  8
0
 10
9.6869
 20
66.9464
 11
9.41226
 21
66.6884
  0
LINE
  8
0
 10
9.41226
 20
66.6884
 11
9.10747
 21
66.467
  0
LINE
  8
0
 10
9.10747
 20
66.467
 11
8.77733
 21
66.2855
  0
LINE
  8
0
 10
8.77733
 20
66.2855
 11
8.42705
 21
66.1468
  0
LINE
  8
0
 10
8.42705
 20
66.1468
 11
8.06213
 21
66.0531
  0
LINE
  8
0
 10
8.06213
 20
66.0531
 11
7.68837
 21
66.0059
  0
LINE
  8
0
 10
7.68837
 20
66.0059
 11
7.31161
 21
66.0059
  0
LINE
  8
0
 10
22.3116
 20
66.0059
 11
21.9379
 21
66.0531
  0
LINE
  8
0
 10
21.9379
 20
66.0531
 11
21.5729
 21
66.1468
  0
LINE
  8
0
 10
21.5729
 20
66.1468
 11
21.2227
 21
66.2855
  0
LINE
  8
0
 10
21.2227
 20
66.2855
 11
20.8925
 21
66.467
  0
LINE
  8
0
 10
20.8925
 20
66.467
 11
20.5877
 21
66.6884
  0
LINE
  8
0
 10
20.5877
 20
66.6884
 11
20.3131
 21
66.9464
  0
LINE
  8
0
 10
20.3131
 20
66.9464
 11
20.0729
 21
67.2366
  0
LINE
  8
0
 10
20.0729
 20
67.2366
 11
19.8711
 21
67.5547
  0
LINE
  8
0
 10
19.8711
 20
67.5547
 11
19.7107
 21
67.8956
  0
LINE
  8
0
 10
19.7107
 20
67.8956
 11
19.5942
 21
68.2539
  0
LINE
  8
0
 10
19.5942
 20
68.2539
 11
19.5237
 21
68.624
  0
LINE
  8
0
 10
19.5237
 20
68.624
 11
19.5
 21
69
  0
LINE
  8
0
 10
19.5
 20
69
 11
19.5237
 21
69.376
  0
LINE
  8
0
 10
19.5237
 20
69.376
 11
19.5942
 21
69.7461
  0
LINE
  8
0
 10
19.5942
 20
69.7461
 11
19.7107
 21
70.1044
  0
LINE
  8
0
 10
19.7107
 20
70.1044
 11
19.8711
 21
70.4453
  0
LINE
  8
0
 10
19.8711
 20
70.4453
 11
20.0729
 21
70.7634
  0
LINE
  8
0
 10
20.0729
 20
70.7634
 11
20.3131
 21
71.0536
  0
LINE
  8
0
 10
20.3131
 20
71.0536
 11
20.5877
 21
71.3115
  0
LINE
  8
0
 10
20.5877
 20
71.3115
 11
20.8925
 21
71.533
  0
LINE
  8
0
 10
20.8925
 20
71.533
 11
21.2227
 21
71.7145
  0
LINE
  8
0
 10
21.2227
 20
71.7145
 11
21.5729
 21
71.8532
  0
LINE
  8
0
 10
21.5729
 20
71.8532
 11
21.9379
 21
71.9469
  0
LINE
  8
0
 10
21.9379
 20
71.9469
 11
22.3116
 21
71.9941
  0
LINE
  8
0
 10
22.3116
 20
71.9941
 11
22.6884
 21
71.9941
  0
LINE
  8
0
 10
22.6884
 20
71.9941
 11
23.0621
 21
71.9469
  0
LINE
  8
0
 10
23.0621
 20
71.9469
 11
23.427
 21
71.8532
  0
LINE
  8
0
 10
23.427
 20
71.8532
 11
23.7773
 21
71.7145
  0
LINE
  8
0
 10
23.7773
 20
71.7145
 11
24.1075
 21
71.533
  0
LINE
  8
0
 10
24.1075
 20
71.533
 11
24.4123
 21
71.3115
  0
LINE
  8
0
 10
24.4123
 20
71.3115
 11
24.6869
 21
71.0536
  0
LINE
  8
0
 10
24.6869
 20
71.0536
 11
24.927
 21
70.7634
  0
LINE
  8
0
 10
24.927
 20
70.7634
 11
25.1289
 21
70.4453
  0
LINE
  8
0
 10
25.1289
 20
70.4453
 11
25.2893
 21
70.1044
  0
LINE
  8
0
 10
25.2893
 20
70.1044
 11
25.4057
 21
69.7461
  0
LINE
  8
0
 10
25.4057
 20
69.7461
 11
25.4763
 21
69.376
  0
LINE
  8
0
 10
25.4763
 20
69.376
 11
25.5
 21
69
  0
LINE
  8
0
 10
25.5
 20
69
 11
25.4763
 21
68.624
  0
LINE
  8
0
 10
25.4763
 20
68.624
 11
25.4057
 21
68.2539
  0
LINE
  8
0
 10
25.4057
 20
68.2539
 11
25.2893
 21
67.8956
  0
LINE
  8
0
 10
25.2893
 20
67.8956
 11
25.1289
 21
67.5547
  0
LINE
  8
0
 10
25.1289
 20
67.5547
 11
24.927
 21
67.2366
  0
LINE
  8
0
 10
24.927
 20
67.2366
 11
24.6869
 21
66.9464
  0
LINE
  8
0
 10
24.6869
 20
66.9464
 11
24.4123
 21
66.6884
  0
LINE
  8
0
 10
24.4123
 20
66.6884
 11
24.1075
 21
66.467
  0
LINE
  8
0
 10
24.1075
 20
66.467
 11
23.7773
 21
66.2855
  0
LINE
  8
0
 10
23.7773
 20
66.2855
 11
23.427
 21
66.1468
  0
LINE
  8
0
 10
23.427
 20
66.1468
 11
23.0621
 21
66.0531
  0
LINE
  8
0
 10
23.0621
 20
66.0531
 11
22.6884
 21
66.0059
  0
LINE
  8
0
 10
22.6884
 20
66.0059
 11
22.3116
 21
66.0059
  0
LINE
  8
0
 10
37.3116
 20
51.0059
 11
36.9379
 21
51.0531
  0
LINE
  8
0
 10
36.9379
 20
51.0531
 11
36.5729
 21
51.1468
  0
LINE
  8
0
 10
36.5729
 20
51.1468
 11
36.2227
 21
51.2855
  0
LINE
  8
0
 10
36.2227
 20
51.2855
 11
35.8925
 21
51.467
  0
LINE
  8
0
 10
35.8925
 20
51.467
 11
35.5877
 21
51.6885
  0
LINE
  8
0
 10
35.5877
 20
51.6885
 11
35.3131
 21
51.9464
  0
LINE
  8
0
 10
35.3131
 20
51.9464
 11
35.0729
 21
52.2366
  0
LINE
  8
0
 10
35.0729
 20
52.2366
 11
34.8711
 21
52.5547
  0
LINE
  8
0
 10
34.8711
 20
52.5547
 11
34.7107
 21
52.8956
  0
LINE
  8
0
 10
34.7107
 20
52.8956
 11
34.5942
 21
53.2539
  0
LINE
  8
0
 10
34.5942
 20
53.2539
 11
34.5237
 21
53.624
  0
LINE
  8
0
 10
34.5237
 20
53.624
 11
34.5
 21
54
  0
LINE
  8
0
 10
34.5
 20
54
 11
34.5237
 21
54.376
  0
LINE
  8
0
 10
34.5237
 20
54.376
 11
34.5942
 21
54.7461
  0
LINE
  8
0
 10
34.5942
 20
54.7461
 11
34.7107
 21
55.1044
  0
LINE
  8
0
 10
34.7107
 20
55.1044
 11
34.8711
 21
55.4453
  0
LINE
  8
0
 10
34.8711
 20
55.4453
 11
35.0729
 21
55.7634
  0
LINE
  8
0
 10
35.0729
 20
55.7634
 11
35.3131
 21
56.0536
  0
LINE
  8
0
 10
35.3131
 20
56.0536
 11
35.5877
 21
56.3115
  0
LINE
  8
0
 10
35.5877
 20
56.3115
 11
35.8925
 21
56.533
  0
LINE
  8
0
 10
35.8925
 20
56.533
 11
36.2227
 21
56.7145
  0
LINE
  8
0
 10
36.2227
 20
56.7145
 11
36.5729
 21
56.8532
  0
LINE
  8
0
 10
36.5729
 20
56.8532
 11
36.9379
 21
56.9469
  0
LINE
  8
0
 10
36.9379
 20
56.9469
 11
37.3116
 21
56.9941
  0
LINE
  8
0
 10
37.3116
 20
56.9941
 11
37.6884
 21
56.9941
  0
LINE
  8
0
 10
37.6884
 20
56.9941
 11
38.0621
 21
56.9469
  0
LINE
  8
0
 10
38.0621
 20
56.9469
 11
38.427
 21
56.8532
  0
LINE
  8
0
 10
38.427
 20
56.8532
 11
38.7773
 21
56.7145
  0
LINE
  8
0
 10
38.7773
 20
56.7145
 11
39.1075
 21
56.533
  0
LINE
  8
0
 10
39.1075
 20
56.533
 11
39.4123
 21
56.3115
  0
LINE
  8
0
 10
39.4123
 20
56.3115
 11
39.6869
 21
56.0536
  0
LINE
  8
0
 10
39.6869
 20
56.0536
 11
39.927
 21
55.7634
  0
LINE
  8
0
 10
39.927
 20
55.7634
 11
40.1289
 21
55.4453
  0
LINE
  8
0
 10
40.1289
 20
55.4453
 11
40.2893
 21
55.1044
  0
LINE
  8
0
 10
40.2893
 20
55.1044
 11
40.4057
 21
54.7461
  0
LINE
  8
0
 10
40.4057
 20
54.7461
 11
40.4763
 21
54.376
  0
LINE
  8
0
 10
40.4763
 20
54.376
 11
40.5
 21
54
  0
LINE
  8
0
 10
40.5
 20
54
 11
40.4763
 21
53.624
  0
LINE
  8
0
 10
40.4763
 20
53.624
 11
40.4057
 21
53.2539
  0
LINE
  8
0
 10
40.4057
 20
53.2539
 11
40.2893
 21
52.8956
  0
LINE
  8
0
 10
40.2893
 20
52.8956
 11
40.1289
 21
52.5547
  0
LINE
  8
0
 10
40.1289
 20
52.5547
 11
39.927
 21
52.2366
  0
LINE
  8
0
 10
39.927
 20
52.2366
 11
39.6869
 21
51.9464
  0
LINE
  8
0
 10
39.6869
 20
51.9464
 11
39.4123
 21
51.6885
  0
LINE
  8
0
 10
39.4123
 20
51.6885
 11
39.1075
 21
51.467
  0
LINE
  8
0
 10
39.1075
 20
51.467
 11
38.7773
 21
51.2855
  0
LINE
  8
0
 10
38.7773
 20
51.2855
 11
38.427
 21
51.1468
  0
LINE
  8
0
 10
38.427
 20
51.1468
 11
38.0621
 21
51.0531
  0
LINE
  8
0
 10
38.0621
 20
51.0531
 11
37.6884
 21
51.0059
  0
LINE
  8
0
 10
37.6884
 20
51.0059
 11
37.3116
 21
51.0059
  0
LINE
  8
0
 10
-7.68837
 20
51.0059
 11
-8.06213
 21
51.0531
  0
LINE
  8
0
 10
-8.06213
 20
51.0531
 11
-8.42705
 21
51.1468
  0
LINE
  8
0
 10
-8.42705
 20
51.1468
 11
-8.77733
 21
51.2855
  0
LINE
  8
0
 10
-8.77733
 20
51.2855
 11
-9.10747
 21
51.467
  0
LINE
  8
0
 10
-9.10747
 20
51.467
 11
-9.41226
 21
51.6885
  0
LINE
  8
0
 10
-9.41226
 20
51.6885
 11
-9.6869
 21
51.9464
  0
LINE
  8
0
 10
-9.6869
 20
51.9464
 11
-9.92705
 21
52.2366
  0
LINE
  8
0
 10
-9.92705
 20
52.2366
 11
-10.1289
 21
52.5547
  0
LINE
  8
0
 10
-10.1289
 20
52.5547
 11
-10.2893
 21
52.8956
  0
LINE
  8
0
 10
-10.2893
 20
52.8956
 11
-10.4057
 21
53.2539
  0
LINE
  8
0
 10
-10.4057
 20
53.2539
 11
-10.4763
 21
53.624
  0
LINE
  8
0
 10
-10.4763
 20
53.624
 11
-10.5
 21
54
  0
LINE
  8
0
 10
-10.5
 20
54
 11
-10.4763
 21
54.376
  0
LINE
  8
0
 10
-10.4763
 20
54.376
 11
-10.4057
 21
54.7461
  0
LINE
  8
0
 10
-10.4057
 20
54.7461
 11
-10.2893
 21
55.1044
  0
LINE
  8
0
 10
-10.2893
 20
55.1044
 11
-10.1289
 21
55.4453
  0
LINE
  8
0
 10
-10.1289
 20
55.4453
 11
-9.92705
 21
55.7634
  0
LINE
  8
0
 10
-9.92705
 20
55.7634
 11
-9.6869
 21
56.0536
  0
LINE
  8
0
 10
-9.6869
 20
56.0536
 11
-9.41226
 21
56.3115
  0
LINE
  8
0
 10
-9.41226
 20
56.3115
 11
-9.10747
 21
56.533
  0
LINE
  8
0
 10
-9.10747
 20
56.533
 11
-8.77733
 21
56.7145
  0
LINE
  8
0
 10
-8.77733
 20
56.7145
 11
-8.42705
 21
56.8532
  0
LINE
  8
0
 10
-8.42705
 20
56.8532
 11
-8.06213
 21
56.9469
  0
LINE
  8
0
 10
-8.06213
 20
56.9469
 11
-7.68837
 21
56.9941
  0
LINE
  8
0
 10
-7.68837
 20
56.9941
 11
-7.31161
 21
56.9941
  0
LINE
  8
0
 10
-7.31161
 20
56.9941
 11
-6.93785
 21
56.9469
  0
LINE
  8
0
 10
-6.93785
 20
56.9469
 11
-6.57294
 21
56.8532
  0
LINE
  8
0
 10
-6.57294
 20
56.8532
 11
-6.22266
 21
56.7145
  0
LINE
  8
0
 10
-6.22266
 20
56.7145
 11
-5.89252
 21
56.533
  0
LINE
  8
0
 10
-5.89252
 20
56.533
 11
-5.58772
 21
56.3115
  0
LINE
  8
0
 10
-5.58772
 20
56.3115
 11
-5.31308
 21
56.0536
  0
LINE
  8
0
 10
-5.31308
 20
56.0536
 11
-5.07294
 21
55.7634
  0
LINE
  8
0
 10
-5.07294
 20
55.7634
 11
-4.87108
 21
55.4453
  0
LINE
  8
0
 10
-4.87108
 20
55.4453
 11
-4.71066
 21
55.1044
  0
LINE
  8
0
 10
-4.71066
 20
55.1044
 11
-4.59424
 21
54.7461
  0
LINE
  8
0
 10
-4.59424
 20
54.7461
 11
-4.52365
 21
54.376
  0
LINE
  8
0
 10
-4.52365
 20
54.376
 11
-4.5
 21
54
  0
LINE
  8
0
 10
-4.5
 20
54
 11
-4.52365
 21
53.624
  0
LINE
  8
0
 10
-4.52365
 20
53.624
 11
-4.59424
 21
53.2539
  0
LINE
  8
0
 10
-4.59424
 20
53.2539
 11
-4.71066
 21
52.8956
  0
LINE
  8
0
 10
-4.71066
 20
52.8956
 11
-4.87108
 21
52.5547
  0
LINE
  8
0
 10
-4.87108
 20
52.5547
 11
-5.07294
 21
52.2366
  0
LINE
  8
0
 10
-5.07294
 20
52.2366
 11
-5.31308
 21
51.9464
  0
LINE
  8
0
 10
-5.31308
 20
51.9464
 11
-5.58772
 21
51.6885
  0
LINE
  8
0
 10
-5.58772
 20
51.6885
 11
-5.89252
 21
51.467
  0
LINE
  8
0
 10
-5.89252
 20
51.467
 11
-6.22266
 21
51.2855
  0
LINE
  8
0
 10
-6.22266
 20
51.2855
 11
-6.57294
 21
51.1468
  0
LINE
  8
0
 10
-6.57294
 20
51.1468
 11
-6.93785
 21
51.0531
  0
LINE
  8
0
 10
-6.93785
 20
51.0531
 11
-7.31161
 21
51.0059
  0
LINE
  8
0
 10
-7.31161
 20
51.0059
 11
-7.68837
 21
51.0059
  0
LINE
  8
0
 10
-37.6884
 20
51.0059
 11
-38.0621
 21
51.0531
  0
LINE
  8
0
 10
-38.0621
 20
51.0531
 11
-38.427
 21
51.1468
  0
LINE
  8
0
 10
-38.427
 20
51.1468
 11
-38.7773
 21
51.2855
  0
LINE
  8
0
 10
-38.7773
 20
51.2855
 11
-39.1075
 21
51.467
  0
LINE
  8
0
 10
-39.1075
 20
51.467
 11
-39.4123
 21
51.6885
  0
LINE
  8
0
 10
-39.4123
 20
51.6885
 11
-39.6869
 21
51.9464
  0
LINE
  8
0
 10
-39.6869
 20
51.9464
 11
-39.927
 21
52.2366
  0
LINE
  8
0
 10
-39.927
 20
52.2366
 11
-40.1289
 21
52.5547
  0
LINE
  8
0
 10
-40.1289
 20
52.5547
 11
-40.2893
 21
52.8956
  0
LINE
  8
0
 10
-40.2893
 20
52.8956
 11
-40.4057
 21
53.2539
  0
LINE
  8
0
 10
-40.4057
 20
53.2539
 11
-40.4763
 21
53.624
  0
LINE
  8
0
 10
-40.4763
 20
53.624
 11
-40.5
 21
54
  0
LINE
  8
0
 10
-40.5
 20
54
 11
-40.4763
 21
54.376
  0
LINE
  8
0
 10
-40.4763
 20
54.376
 11
-40.4057
 21
54.7461
  0
LINE
  8
0
 10
-40.4057
 20
54.7461
 11
-40.2893
 21
55.1044
  0
LINE
  8
0
 10
-40.2893
 20
55.1044
 11
-40.1289
 21
55.4453
  0
LINE
  8
0
 10
-40.1289
 20
55.4453
 11
-39.927
 21
55.7634
  0
LINE
  8
0
 10
-39.927
 20
55.7634
 11
-39.6869
 21
56.0536
  0
LINE
  8
0
 10
-39.6869
 20
56.0536
 11
-39.4123
 21
56.3115
  0
LINE
  8
0
 10
-39.4123
 20
56.3115
 11
-39.1075
 21
56.533
  0
LINE
  8
0
 10
-39.1075
 20
56.533
 11
-38.7773
 21
56.7145
  0
LINE
  8
0
 10
-38.7773
 20
56.7145
 11
-38.427
 21
56.8532
  0
LINE
  8
0
 10
-38.427
 20
56.8532
 11
-38.0621
 21
56.9469
  0
LINE
  8
0
 10
-38.0621
 20
56.9469
 11
-37.6884
 21
56.9941
  0
LINE
  8
0
 10
-37.6884
 20
56.9941
 11
-37.3116
 21
56.9941
  0
LINE
  8
0
 10
-37.3116
 20
56.9941
 11
-36.9379
 21
56.9469
  0
LINE
  8
0
 10
-36.9379
 20
56.9469
 11
-36.5729
 21
56.8532
  0
LINE
  8
0
 10
-36.5729
 20
56.8532
 11
-36.2227
 21
56.7145
  0
LINE
  8
0
 10
-36.2227
 20
56.7145
 11
-35.8925
 21
56.533
  0
LINE
  8
0
 10
-35.8925
 20
56.533
 11
-35.5877
 21
56.3115
  0
LINE
  8
0
 10
-35.5877
 20
56.3115
 11
-35.3131
 21
56.0536
  0
LINE
  8
0
 10
-35.3131
 20
56.0536
 11
-35.0729
 21
55.7634
  0
LINE
  8
0
 10
-35.0729
 20
55.7634
 11
-34.8711
 21
55.4453
  0
LINE
  8
0
 10
-34.8711
 20
55.4453
 11
-34.7107
 21
55.1044
  0
LINE
  8
0
 10
-34.7107
 20
55.1044
 11
-34.5942
 21
54.7461
  0
LINE
  8
0
 10
-34.5942
 20
54.7461
 11
-34.5237
 21
54.376
  0
LINE
  8
0
 10
-34.5237
 20
54.376
 11
-34.5
 21
54
  0
LINE
  8
0
 10
-34.5
 20
54
 11
-34.5237
 21
53.624
  0
LINE
  8
0
 10
-34.5237
 20
53.624
 11
-34.5942
 21
53.2539
  0
LINE
  8
0
 10
-34.5942
 20
53.2539
 11
-34.7107
 21
52.8956
  0
LINE
  8
0
 10
-34.7107
 20
52.8956
 11
-34.8711
 21
52.5547
  0
LINE
  8
0
 10
-34.8711
 20
52.5547
 11
-35.0729
 21
52.2366
  0
LINE
  8
0
 10
-35.0729
 20
52.2366
 11
-35.3131
 21
51.9464
  0
LINE
  8
0
 10
-35.3131
 20
51.9464
 11
-35.5877
 21
51.6885
  0
LINE
  8
0
 10
-35.5877
 20
51.6885
 11
-35.8925
 21
51.467
  0
LINE
  8
0
 10
-35.8925
 20
51.467
 11
-36.2227
 21
51.2855
  0
LINE
  8
0
 10
-36.2227
 20
51.2855
 11
-36.5729
 21
51.1468
  0
LINE
  8
0
 10
-36.5729
 20
51.1468
 11
-36.9379
 21
51.0531
  0
LINE
  8
0
 10
-36.9379
 20
51.0531
 11
-37.3116
 21
51.0059
  0
LINE
  8
0
 10
-37.3116
 20
51.0059
 11
-37.6884
 21
51.0059
  0
LINE
  8
0
 10
7.31161
 20
51.0059
 11
6.93785
 21
51.0531
  0
LINE
  8
0
 10
6.93785
 20
51.0531
 11
6.57294
 21
51.1468
  0
LINE
  8
0
 10
6.57294
 20
51.1468
 11
6.22266
 21
51.2855
  0
LINE
  8
0
 10
6.22266
 20
51.2855
 11
5.89252
 21
51.467
  0
LINE
  8
0
 10
5.89252
 20
51.467
 11
5.58772
 21
51.6885
  0
LINE
  8
0
 10
5.58772
 20
51.6885
 11
5.31308
 21
51.9464
  0
LINE
  8
0
 10
5.31308
 20
51.9464
 11
5.07294
 21
52.2366
  0
LINE
  8
0
 10
5.07294
 20
52.2366
 11
4.87108
 21
52.5547
  0
LINE
  8
0
 10
4.87108
 20
52.5547
 11
4.71066
 21
52.8956
  0
LINE
  8
0
 10
4.71066
 20
52.8956
 11
4.59424
 21
53.2539
  0
LINE
  8
0
 10
4.59424
 20
53.2539
 11
4.52365
 21
53.624
  0
LINE
  8
0
 10
4.52365
 20
53.624
 11
4.5
 21
54
  0
LINE
  8
0
 10
4.5
 20
54
 11
4.52365
 21
54.376
  0
LINE
  8
0
 10
4.52365
 20
54.376
 11
4.59424
 21
54.7461
  0
LINE
  8
0
 10
4.59424
 20
54.7461
 11
4.71066
 21
55.1044
  0
LINE
  8
0
 10
4.71066
 20
55.1044
 11
4.87108
 21
55.4453
  0
LINE
  8
0
 10
4.87108
 20
55.4453
 11
5.07294
 21
55.7634
  0
LINE
  8
0
 10
5.07294
 20
55.7634
 11
5.31308
 21
56.0536
  0
LINE
  8
0
 10
5.31308
 20
56.0536
 11
5.58772
 21
56.3115
  0
LINE
  8
0
 10
5.58772
 20
56.3115
 11
5.89252
 21
56.533
  0
LINE
  8
0
 10
5.89252
 20
56.533
 11
6.22266
 21
56.7145
  0
LINE
  8
0
 10
6.22266
 20
56.7145
 11
6.57294
 21
56.8532
  0
LINE
  8
0
 10
6.57294
 20
56.8532
 11
6.93785
 21
56.9469
  0
LINE
  8
0
 10
6.93785
 20
56.9469
 11
7.31161
 21
56.9941
  0
LINE
  8
0
 10
7.31161
 20
56.9941
 11
7.68837
 21
56.9941
  0
LINE
  8
0
 10
7.68837
 20
56.9941
 11
8.06213
 21
56.9469
  0
LINE
  8
0
 10
8.06213
 20
56.9469
 11
8.42705
 21
56.8532
  0
LINE
  8
0
 10
8.42705
 20
56.8532
 11
8.77733
 21
56.7145
  0
LINE
  8
0
 10
8.77733
 20
56.7145
 11
9.10747
 21
56.533
  0
LINE
  8
0
 10
9.10747
 20
56.533
 11
9.41226
 21
56.3115
  0
LINE
  8
0
 10
9.41226
 20
56.3115
 11
9.6869
 21
56.0536
  0
LINE
  8
0
 10
9.6869
 20
56.0536
 11
9.92705
 21
55.7634
  0
LINE
  8
0
 10
9.92705
 20
55.7634
 11
10.1289
 21
55.4453
  0
LINE
  8
0
 10
10.1289
 20
55.4453
 11
10.2893
 21
55.1044
  0
LINE
  8
0
 10
10.2893
 20
55.1044
 11
10.4057
 21
54.7461
  0
LINE
  8
0
 10
10.4057
 20
54.7461
 11
10.4763
 21
54.376
  0
LINE
  8
0
 10
10.4763
 20
54.376
 11
10.5
 21
54
  0
LINE
  8
0
 10
10.5
 20
54
 11
10.4763
 21
53.624
  0
LINE
  8
0
 10
10.4763
 20
53.624
 11
10.4057
 21
53.2539
  0
LINE
  8
0
 10
10.4057
 20
53.2539
 11
10.2893
 21
52.8956
  0
LINE
  8
0
 10
10.2893
 20
52.8956
 11
10.1289
 21
52.5547
  0
LINE
  8
0
 10
10.1289
 20
52.5547
 11
9.92705
 21
52.2366
  0
LINE
  8
0
 10
9.92705
 20
52.2366
 11
9.6869
 21
51.9464
  0
LINE
  8
0
 10
9.6869
 20
51.9464
 11
9.41226
 21
51.6885
  0
LINE
  8
0
 10
9.41226
 20
51.6885
 11
9.10747
 21
51.467
  0
LINE
  8
0
 10
9.10747
 20
51.467
 11
8.77733
 21
51.2855
  0
LINE
  8
0
 10
8.77733
 20
51.2855
 11
8.42705
 21
51.1468
  0
LINE
  8
0
 10
8.42705
 20
51.1468
 11
8.06213
 21
51.0531
  0
LINE
  8
0
 10
8.06213
 20
51.0531
 11
7.68837
 21
51.0059
  0
LINE
  8
0
 10
7.68837
 20
51.0059
 11
7.31161
 21
51.0059
  0
LINE
  8
0
 10
-22.6884
 20
51.0059
 11
-23.0621
 21
51.0531
  0
LINE
  8
0
 10
-23.0621
 20
51.0531
 11
-23.427
 21
51.1468
  0
LINE
  8
0
 10
-23.427
 20
51.1468
 11
-23.7773
 21
51.2855
  0
LINE
  8
0
 10
-23.7773
 20
51.2855
 11
-24.1075
 21
51.467
  0
LINE
  8
0
 10
-24.1075
 20
51.467
 11
-24.4123
 21
51.6885
  0
LINE
  8
0
 10
-24.4123
 20
51.6885
 11
-24.6869
 21
51.9464
  0
LINE
  8
0
 10
-24.6869
 20
51.9464
 11
-24.927
 21
52.2366
  0
LINE
  8
0
 10
-24.927
 20
52.2366
 11
-25.1289
 21
52.5547
  0
LINE
  8
0
 10
-25.1289
 20
52.5547
 11
-25.2893
 21
52.8956
  0
LINE
  8
0
 10
-25.2893
 20
52.8956
 11
-25.4057
 21
53.2539
  0
LINE
  8
0
 10
-25.4057
 20
53.2539
 11
-25.4763
 21
53.624
  0
LINE
  8
0
 10
-25.4763
 20
53.624
 11
-25.5
 21
54
  0
LINE
  8
0
 10
-25.5
 20
54
 11
-25.4763
 21
54.376
  0
LINE
  8
0
 10
-25.4763
 20
54.376
 11
-25.4057
 21
54.7461
  0
LINE
  8
0
 10
-25.4057
 20
54.7461
 11
-25.2893
 21
55.1044
  0
LINE
  8
0
 10
-25.2893
 20
55.1044
 11
-25.1289
 21
55.4453
  0
LINE
  8
0
 10
-25.1289
 20
55.4453
 11
-24.927
 21
55.7634
  0
LINE
  8
0
 10
-24.927
 20
55.7634
 11
-24.6869
 21
56.0536
  0
LINE
  8
0
 10
-24.6869
 20
56.0536
 11
-24.4123
 21
56.3115
  0
LINE
  8
0
 10
-24.4123
 20
56.3115
 11
-24.1075
 21
56.533
  0
LINE
  8
0
 10
-24.1075
 20
56.533
 11
-23.7773
 21
56.7145
  0
LINE
  8
0
 10
-23.7773
 20
56.7145
 11
-23.427
 21
56.8532
  0
LINE
  8
0
 10
-23.427
 20
56.8532
 11
-23.0621
 21
56.9469
  0
LINE
  8
0
 10
-23.0621
 20
56.9469
 11
-22.6884
 21
56.9941
  0
LINE
  8
0
 10
-22.6884
 20
56.9941
 11
-22.3116
 21
56.9941
  0
LINE
  8
0
 10
-22.3116
 20
56.9941
 11
-21.9379
 21
56.9469
  0
LINE
  8
0
 10
-21.9379
 20
56.9469
 11
-21.5729
 21
56.8532
  0
LINE
  8
0
 10
-21.5729
 20
56.8532
 11
-21.2227
 21
56.7145
  0
LINE
  8
0
 10
-21.2227
 20
56.7145
 11
-20.8925
 21
56.533
  0
LINE
  8
0
 10
-20.8925
 20
56.533
 11
-20.5877
 21
56.3115
  0
LINE
  8
0
 10
-20.5877
 20
56.3115
 11
-20.3131
 21
56.0536
  0
LINE
  8
0
 10
-20.3131
 20
56.0536
 11
-20.0729
 21
55.7634
  0
LINE
  8
0
 10
-20.0729
 20
55.7634
 11
-19.8711
 21
55.4453
  0
LINE
  8
0
 10
-19.8711
 20
55.4453
 11
-19.7107
 21
55.1044
  0
LINE
  8
0
 10
-19.7107
 20
55.1044
 11
-19.5942
 21
54.7461
  0
LINE
  8
0
 10
-19.5942
 20
54.7461
 11
-19.5237
 21
54.376
  0
LINE
  8
0
 10
-19.5237
 20
54.376
 11
-19.5
 21
54
  0
LINE
  8
0
 10
-19.5
 20
54
 11
-19.5237
 21
53.624
  0
LINE
  8
0
 10
-19.5237
 20
53.624
 11
-19.5942
 21
53.2539
  0
LINE
  8
0
 10
-19.5942
 20
53.2539
 11
-19.7107
 21
52.8956
  0
LINE
  8
0
 10
-19.7107
 20
52.8956
 11
-19.8711
 21
52.5547
  0
LINE
  8
0
 10
-19.8711
 20
52.5547
 11
-20.0729
 21
52.2366
  0
LINE
  8
0
 10
-20.0729
 20
52.2366
 11
-20.3131
 21
51.9464
  0
LINE
  8
0
 10
-20.3131
 20
51.9464
 11
-20.5877
 21
51.6885
  0
LINE
  8
0
 10
-20.5877
 20
51.6885
 11
-20.8925
 21
51.467
  0
LINE
  8
0
 10
-20.8925
 20
51.467
 11
-21.2227
 21
51.2855
  0
LINE
  8
0
 10
-21.2227
 20
51.2855
 11
-21.5729
 21
51.1468
  0
LINE
  8
0
 10
-21.5729
 20
51.1468
 11
-21.9379
 21
51.0531
  0
LINE
  8
0
 10
-21.9379
 20
51.0531
 11
-22.3116
 21
51.0059
  0
LINE
  8
0
 10
-22.3116
 20
51.0059
 11
-22.6884
 21
51.0059
  0
LINE
  8
0
 10
22.3116
 20
51.0059
 11
21.9379
 21
51.0531
  0
LINE
  8
0
 10
21.9379
 20
51.0531
 11
21.5729
 21
51.1468
  0
LINE
  8
0
 10
21.5729
 20
51.1468
 11
21.2227
 21
51.2855
  0
LINE
  8
0
 10
21.2227
 20
51.2855
 11
20.8925
 21
51.467
  0
LINE
  8
0
 10
20.8925
 20
51.467
 11
20.5877
 21
51.6885
  0
LINE
  8
0
 10
20.5877
 20
51.6885
 11
20.3131
 21
51.9464
  0
LINE
  8
0
 10
20.3131
 20
51.9464
 11
20.0729
 21
52.2366
  0
LINE
  8
0
 10
20.0729
 20
52.2366
 11
19.8711
 21
52.5547
  0
LINE
  8
0
 10
19.8711
 20
52.5547
 11
19.7107
 21
52.8956
  0
LINE
  8
0
 10
19.7107
 20
52.8956
 11
19.5942
 21
53.2539
  0
LINE
  8
0
 10
19.5942
 20
53.2539
 11
19.5237
 21
53.624
  0
LINE
  8
0
 10
19.5237
 20
53.624
 11
19.5
 21
54
  0
LINE
  8
0
 10
19.5
 20
54
 11
19.5237
 21
54.376
  0
LINE
  8
0
 10
19.5237
 20
54.376
 11
19.5942
 21
54.7461
  0
LINE
  8
0
 10
19.5942
 20
54.7461
 11
19.7107
 21
55.1044
  0
LINE
  8
0
 10
19.7107
 20
55.1044
 11
19.8711
 21
55.4453
  0
LINE
  8
0
 10
19.8711
 20
55.4453
 11
20.0729
 21
55.7634
  0
LINE
  8
0
 10
20.0729
 20
55.7634
 11
20.3131
 21
56.0536
  0
LINE
  8
0
 10
20.3131
 20
56.0536
 11
20.5877
 21
56.3115
  0
LINE
  8
0
 10
20.5877
 20
56.3115
 11
20.8925
 21
56.533
  0
LINE
  8
0
 10
20.8925
 20
56.533
 11
21.2227
 21
56.7145
  0
LINE
  8
0
 10
21.2227
 20
56.7145
 11
21.5729
 21
56.8532
  0
LINE
  8
0
 10
21.5729
 20
56.8532
 11
21.9379
 21
56.9469
  0
LINE
  8
0
 10
21.9379
 20
56.9469
 11
22.3116
 21
56.9941
  0
LINE
  8
0
 10
22.3116
 20
56.9941
 11
22.6884
 21
56.9941
  0
LINE
  8
0
 10
22.6884
 20
56.9941
 11
23.0621
 21
56.9469
  0
LINE
  8
0
 10
23.0621
 20
56.9469
 11
23.427
 21
56.8532
  0
LINE
  8
0
 10
23.427
 20
56.8532
 11
23.7773
 21
56.7145
  0
LINE
  8
0
 10
23.7773
 20
56.7145
 11
24.1075
 21
56.533
  0
LINE
  8
0
 10
24.1075
 20
56.533
 11
24.4123
 21
56.3115
  0
LINE
  8
0
 10
24.4123
 20
56.3115
 11
24.6869
 21
56.0536
  0
LINE
  8
0
 10
24.6869
 20
56.0536
 11
24.927
 21
55.7634
  0
LINE
  8
0
 10
24.927
 20
55.7634
 11
25.1289
 21
55.4453
  0
LINE
  8
0
 10
25.1289
 20
55.4453
 11
25.2893
 21
55.1044
  0
LINE
  8
0
 10
25.2893
 20
55.1044
 11
25.4057
 21
54.7461
  0
LINE
  8
0
 10
25.4057
 20
54.7461
 11
25.4763
 21
54.376
  0
LINE
  8
0
 10
25.4763
 20
54.376
 11
25.5
 21
54
  0
LINE
  8
0
 10
25.5
 20
54
 11
25.4763
 21
53.624
  0
LINE
  8
0
 10
25.4763
 20
53.624
 11
25.4057
 21
53.2539
  0
LINE
  8
0
 10
25.4057
 20
53.2539
 11
25.2893
 21
52.8956
  0
LINE
  8
0
 10
25.2893
 20
52.8956
 11
25.1289
 21
52.5547
  0
LINE
  8
0
 10
25.1289
 20
52.5547
 11
24.927
 21
52.2366
  0
LINE
  8
0
 10
24.927
 20
52.2366
 11
24.6869
 21
51.9464
  0
LINE
  8
0
 10
24.6869
 20
51.9464
 11
24.4123
 21
51.6885
  0
LINE
  8
0
 10
24.4123
 20
51.6885
 11
24.1075
 21
51.467
  0
LINE
  8
0
 10
24.1075
 20
51.467
 11
23.7773
 21
51.2855
  0
LINE
  8
0
 10
23.7773
 20
51.2855
 11
23.427
 21
51.1468
  0
LINE
  8
0
 10
23.427
 20
51.1468
 11
23.0621
 21
51.0531
  0
LINE
  8
0
 10
23.0621
 20
51.0531
 11
22.6884
 21
51.0059
  0
LINE
  8
0
 10
22.6884
 20
51.0059
 11
22.3116
 21
51.0059
  0
LINE
  8
0
 10
37.3116
 20
36.0059
 11
36.9379
 21
36.0531
  0
LINE
  8
0
 10
36.9379
 20
36.0531
 11
36.5729
 21
36.1468
  0
LINE
  8
0
 10
36.5729
 20
36.1468
 11
36.2227
 21
36.2855
  0
LINE
  8
0
 10
36.2227
 20
36.2855
 11
35.8925
 21
36.467
  0
LINE
  8
0
 10
35.8925
 20
36.467
 11
35.5877
 21
36.6885
  0
LINE
  8
0
 10
35.5877
 20
36.6885
 11
35.3131
 21
36.9464
  0
LINE
  8
0
 10
35.3131
 20
36.9464
 11
35.0729
 21
37.2366
  0
LINE
  8
0
 10
35.0729
 20
37.2366
 11
34.8711
 21
37.5547
  0
LINE
  8
0
 10
34.8711
 20
37.5547
 11
34.7107
 21
37.8956
  0
LINE
  8
0
 10
34.7107
 20
37.8956
 11
34.5942
 21
38.2539
  0
LINE
  8
0
 10
34.5942
 20
38.2539
 11
34.5237
 21
38.624
  0
LINE
  8
0
 10
34.5237
 20
38.624
 11
34.5
 21
39
  0
LINE
  8
0
 10
34.5
 20
39
 11
34.5237
 21
39.376
  0
LINE
  8
0
 10
34.5237
 20
39.376
 11
34.5942
 21
39.7461
  0
LINE
  8
0
 10
34.5942
 20
39.7461
 11
34.7107
 21
40.1044
  0
LINE
  8
0
 10
34.7107
 20
40.1044
 11
34.8711
 21
40.4453
  0
LINE
  8
0
 10
34.8711
 20
40.4453
 11
35.0729
 21
40.7634
  0
LINE
  8
0
 10
35.0729
 20
40.7634
 11
35.3131
 21
41.0536
  0
LINE
  8
0
 10
35.3131
 20
41.0536
 11
35.5877
 21
41.3116
  0
LINE
  8
0
 10
35.5877
 20
41.3116
 11
35.8925
 21
41.533
  0
LINE
  8
0
 10
35.8925
 20
41.533
 11
36.2227
 21
41.7145
  0
LINE
  8
0
 10
36.2227
 20
41.7145
 11
36.5729
 21
41.8532
  0
LINE
  8
0
 10
36.5729
 20
41.8532
 11
36.9379
 21
41.9469
  0
LINE
  8
0
 10
36.9379
 20
41.9469
 11
37.3116
 21
41.9941
  0
LINE
  8
0
 10
37.3116
 20
41.9941
 11
37.6884
 21
41.9941
  0
LINE
  8
0
 10
37.6884
 20
41.9941
 11
38.0621
 21
41.9469
  0
LINE
  8
0
 10
38.0621
 20
41.9469
 11
38.427
 21
41.8532
  0
LINE
  8
0
 10
38.427
 20
41.8532
 11
38.7773
 21
41.7145
  0
LINE
  8
0
 10
38.7773
 20
41.7145
 11
39.1075
 21
41.533
  0
LINE
  8
0
 10
39.1075
 20
41.533
 11
39.4123
 21
41.3116
  0
LINE
  8
0
 10
39.4123
 20
41.3116
 11
39.6869
 21
41.0536
  0
LINE
  8
0
 10
39.6869
 20
41.0536
 11
39.927
 21
40.7634
  0
LINE
  8
0
 10
39.927
 20
40.7634
 11
40.1289
 21
40.4453
  0
LINE
  8
0
 10
40.1289
 20
40.4453
 11
40.2893
 21
40.1044
  0
LINE
  8
0
 10
40.2893
 20
40.1044
 11
40.4057
 21
39.7461
  0
LINE
  8
0
 10
40.4057
 20
39.7461
 11
40.4763
 21
39.376
  0
LINE
  8
0
 10
40.4763
 20
39.376
 11
40.5
 21
39
  0
LINE
  8
0
 10
40.5
 20
39
 11
40.4763
 21
38.624
  0
LINE
  8
0
 10
40.4763
 20
38.624
 11
40.4057
 21
38.2539
  0
LINE
  8
0
 10
40.4057
 20
38.2539
 11
40.2893
 21
37.8956
  0
LINE
  8
0
 10
40.2893
 20
37.8956
 11
40.1289
 21
37.5547
  0
LINE
  8
0
 10
40.1289
 20
37.5547
 11
39.927
 21
37.2366
  0
LINE
  8
0
 10
39.927
 20
37.2366
 11
39.6869
 21
36.9464
  0
LINE
  8
0
 10
39.6869
 20
36.9464
 11
39.4123
 21
36.6885
  0
LINE
  8
0
 10
39.4123
 20
36.6885
 11
39.1075
 21
36.467
  0
LINE
  8
0
 10
39.1075
 20
36.467
 11
38.7773
 21
36.2855
  0
LINE
  8
0
 10
38.7773
 20
36.2855
 11
38.427
 21
36.1468
  0
LINE
  8
0
 10
38.427
 20
36.1468
 11
38.0621
 21
36.0531
  0
LINE
  8
0
 10
38.0621
 20
36.0531
 11
37.6884
 21
36.0059
  0
LINE
  8
0
 10
37.6884
 20
36.0059
 11
37.3116
 21
36.0059
  0
LINE
  8
0
 10
22.3116
 20
36.0059
 11
21.9379
 21
36.0531
  0
LINE
  8
0
 10
21.9379
 20
36.0531
 11
21.5729
 21
36.1468
  0
LINE
  8
0
 10
21.5729
 20
36.1468
 11
21.2227
 21
36.2855
  0
LINE
  8
0
 10
21.2227
 20
36.2855
 11
20.8925
 21
36.467
  0
LINE
  8
0
 10
20.8925
 20
36.467
 11
20.5877
 21
36.6885
  0
LINE
  8
0
 10
20.5877
 20
36.6885
 11
20.3131
 21
36.9464
  0
LINE
  8
0
 10
20.3131
 20
36.9464
 11
20.0729
 21
37.2366
  0
LINE
  8
0
 10
20.0729
 20
37.2366
 11
19.8711
 21
37.5547
  0
LINE
  8
0
 10
19.8711
 20
37.5547
 11
19.7107
 21
37.8956
  0
LINE
  8
0
 10
19.7107
 20
37.8956
 11
19.5942
 21
38.2539
  0
LINE
  8
0
 10
19.5942
 20
38.2539
 11
19.5237
 21
38.624
  0
LINE
  8
0
 10
19.5237
 20
38.624
 11
19.5
 21
39
  0
LINE
  8
0
 10
19.5
 20
39
 11
19.5237
 21
39.376
  0
LINE
  8
0
 10
19.5237
 20
39.376
 11
19.5942
 21
39.7461
  0
LINE
  8
0
 10
19.5942
 20
39.7461
 11
19.7107
 21
40.1044
  0
LINE
  8
0
 10
19.7107
 20
40.1044
 11
19.8711
 21
40.4453
  0
LINE
  8
0
 10
19.8711
 20
40.4453
 11
20.0729
 21
40.7634
  0
LINE
  8
0
 10
20.0729
 20
40.7634
 11
20.3131
 21
41.0536
  0
LINE
  8
0
 10
20.3131
 20
41.0536
 11
20.5877
 21
41.3116
  0
LINE
  8
0
 10
20.5877
 20
41.3116
 11
20.8925
 21
41.533
  0
LINE
  8
0
 10
20.8925
 20
41.533
 11
21.2227
 21
41.7145
  0
LINE
  8
0
 10
21.2227
 20
41.7145
 11
21.5729
 21
41.8532
  0
LINE
  8
0
 10
21.5729
 20
41.8532
 11
21.9379
 21
41.9469
  0
LINE
  8
0
 10
21.9379
 20
41.9469
 11
22.3116
 21
41.9941
  0
LINE
  8
0
 10
22.3116
 20
41.9941
 11
22.6884
 21
41.9941
  0
LINE
  8
0
 10
22.6884
 20
41.9941
 11
23.0621
 21
41.9469
  0
LINE
  8
0
 10
23.0621
 20
41.9469
 11
23.427
 21
41.8532
  0
LINE
  8
0
 10
23.427
 20
41.8532
 11
23.7773
 21
41.7145
  0
LINE
  8
0
 10
23.7773
 20
41.7145
 11
24.1075
 21
41.533
  0
LINE
  8
0
 10
24.1075
 20
41.533
 11
24.4123
 21
41.3116
  0
LINE
  8
0
 10
24.4123
 20
41.3116
 11
24.6869
 21
41.0536
  0
LINE
  8
0
 10
24.6869
 20
41.0536
 11
24.927
 21
40.7634
  0
LINE
  8
0
 10
24.927
 20
40.7634
 11
25.1289
 21
40.4453
  0
LINE
  8
0
 10
25.1289
 20
40.4453
 11
25.2893
 21
40.1044
  0
LINE
  8
0
 10
25.2893
 20
40.1044
 11
25.4057
 21
39.7461
  0
LINE
  8
0
 10
25.4057
 20
39.7461
 11
25.4763
 21
39.376
  0
LINE
  8
0
 10
25.4763
 20
39.376
 11
25.5
 21
39
  0
LINE
  8
0
 10
25.5
 20
39
 11
25.4763
 21
38.624
  0
LINE
  8
0
 10
25.4763
 20
38.624
 11
25.4057
 21
38.2539
  0
LINE
  8
0
 10
25.4057
 20
38.2539
 11
25.2893
 21
37.8956
  0
LINE
  8
0
 10
25.2893
 20
37.8956
 11
25.1289
 21
37.5547
  0
LINE
  8
0
 10
25.1289
 20
37.5547
 11
24.927
 21
37.2366
  0
LINE
  8
0
 10
24.927
 20
37.2366
 11
24.6869
 21
36.9464
  0
LINE
  8
0
 10
24.6869
 20
36.9464
 11
24.4123
 21
36.6885
  0
LINE
  8
0
 10
24.4123
 20
36.6885
 11
24.1075
 21
36.467
  0
LINE
  8
0
 10
24.1075
 20
36.467
 11
23.7773
 21
36.2855
  0
LINE
  8
0
 10
23.7773
 20
36.2855
 11
23.427
 21
36.1468
  0
LINE
  8
0
 10
23.427
 20
36.1468
 11
23.0621
 21
36.0531
  0
LINE
  8
0
 10
23.0621
 20
36.0531
 11
22.6884
 21
36.0059
  0
LINE
  8
0
 10
22.6884
 20
36.0059
 11
22.3116
 21
36.0059
  0
LINE
  8
0
 10
-22.6884
 20
36.0059
 11
-23.0621
 21
36.0531
  0
LINE
  8
0
 10
-23.0621
 20
36.0531
 11
-23.427
 21
36.1468
  0
LINE
  8
0
 10
-23.427
 20
36.1468
 11
-23.7773
 21
36.2855
  0
LINE
  8
0
 10
-23.7773
 20
36.2855
 11
-24.1075
 21
36.467
  0
LINE
  8
0
 10
-24.1075
 20
36.467
 11
-24.4123
 21
36.6885
  0
LINE
  8
0
 10
-24.4123
 20
36.6885
 11
-24.6869
 21
36.9464
  0
LINE
  8
0
 10
-24.6869
 20
36.9464
 11
-24.927
 21
37.2366
  0
LINE
  8
0
 10
-24.927
 20
37.2366
 11
-25.1289
 21
37.5547
  0
LINE
  8
0
 10
-25.1289
 20
37.5547
 11
-25.2893
 21
37.8956
  0
LINE
  8
0
 10
-25.2893
 20
37.8956
 11
-25.4057
 21
38.2539
  0
LINE
  8
0
 10
-25.4057
 20
38.2539
 11
-25.4763
 21
38.624
  0
LINE
  8
0
 10
-25.4763
 20
38.624
 11
-25.5
 21
39
  0
LINE
  8
0
 10
-25.5
 20
39
 11
-25.4763
 21
39.376
  0
LINE
  8
0
 10
-25.4763
 20
39.376
 11
-25.4057
 21
39.7461
  0
LINE
  8
0
 10
-25.4057
 20
39.7461
 11
-25.2893
 21
40.1044
  0
LINE
  8
0
 10
-25.2893
 20
40.1044
 11
-25.1289
 21
40.4453
  0
LINE
  8
0
 10
-25.1289
 20
40.4453
 11
-24.927
 21
40.7634
  0
LINE
  8
0
 10
-24.927
 20
40.7634
 11
-24.6869
 21
41.0536
  0
LINE
  8
0
 10
-24.6869
 20
41.0536
 11
-24.4123
 21
41.3116
  0
LINE
  8
0
 10
-24.4123
 20
41.3116
 11
-24.1075
 21
41.533
  0
LINE
  8
0
 10
-24.1075
 20
41.533
 11
-23.7773
 21
41.7145
  0
LINE
  8
0
 10
-23.7773
 20
41.7145
 11
-23.427
 21
41.8532
  0
LINE
  8
0
 10
-23.427
 20
41.8532
 11
-23.0621
 21
41.9469
  0
LINE
  8
0
 10
-23.0621
 20
41.9469
 11
-22.6884
 21
41.9941
  0
LINE
  8
0
 10
-22.6884
 20
41.9941
 11
-22.3116
 21
41.9941
  0
LINE
  8
0
 10
-22.3116
 20
41.9941
 11
-21.9379
 21
41.9469
  0
LINE
  8
0
 10
-21.9379
 20
41.9469
 11
-21.5729
 21
41.8532
  0
LINE
  8
0
 10
-21.5729
 20
41.8532
 11
-21.2227
 21
41.7145
  0
LINE
  8
0
 10
-21.2227
 20
41.7145
 11
-20.8925
 21
41.533
  0
LINE
  8
0
 10
-20.8925
 20
41.533
 11
-20.5877
 21
41.3116
  0
LINE
  8
0
 10
-20.5877
 20
41.3116
 11
-20.3131
 21
41.0536
  0
LINE
  8
0
 10
-20.3131
 20
41.0536
 11
-20.0729
 21
40.7634
  0
LINE
  8
0
 10
-20.0729
 20
40.7634
 11
-19.8711
 21
40.4453
  0
LINE
  8
0
 10
-19.8711
 20
40.4453
 11
-19.7107
 21
40.1044
  0
LINE
  8
0
 10
-19.7107
 20
40.1044
 11
-19.5942
 21
39.7461
  0
LINE
  8
0
 10
-19.5942
 20
39.7461
 11
-19.5237
 21
39.376
  0
LINE
  8
0
 10
-19.5237
 20
39.376
 11
-19.5
 21
39
  0
LINE
  8
0
 10
-19.5
 20
39
 11
-19.5237
 21
38.624
  0
LINE
  8
0
 10
-19.5237
 20
38.624
 11
-19.5942
 21
38.2539
  0
LINE
  8
0
 10
-19.5942
 20
38.2539
 11
-19.7107
 21
37.8956
  0
LINE
  8
0
 10
-19.7107
 20
37.8956
 11
-19.8711
 21
37.5547
  0
LINE
  8
0
 10
-19.8711
 20
37.5547
 11
-20.0729
 21
37.2366
  0
LINE
  8
0
 10
-20.0729
 20
37.2366
 11
-20.3131
 21
36.9464
  0
LINE
  8
0
 10
-20.3131
 20
36.9464
 11
-20.5877
 21
36.6885
  0
LINE
  8
0
 10
-20.5877
 20
36.6885
 11
-20.8925
 21
36.467
  0
LINE
  8
0
 10
-20.8925
 20
36.467
 11
-21.2227
 21
36.2855
  0
LINE
  8
0
 10
-21.2227
 20
36.2855
 11
-21.5729
 21
36.1468
  0
LINE
  8
0
 10
-21.5729
 20
36.1468
 11
-21.9379
 21
36.0531
  0
LINE
  8
0
 10
-21.9379
 20
36.0531
 11
-22.3116
 21
36.0059
  0
LINE
  8
0
 10
-22.3116
 20
36.0059
 11
-22.6884
 21
36.0059
  0
LINE
  8
0
 10
-37.6884
 20
36.0059
 11
-38.0621
 21
36.0531
  0
LINE
  8
0
 10
-38.0621
 20
36.0531
 11
-38.427
 21
36.1468
  0
LINE
  8
0
 10
-38.427
 20
36.1468
 11
-38.7773
 21
36.2855
  0
LINE
  8
0
 10
-38.7773
 20
36.2855
 11
-39.1075
 21
36.467
  0
LINE
  8
0
 10
-39.1075
 20
36.467
 11
-39.4123
 21
36.6885
  0
LINE
  8
0
 10
-39.4123
 20
36.6885
 11
-39.6869
 21
36.9464
  0
LINE
  8
0
 10
-39.6869
 20
36.9464
 11
-39.927
 21
37.2366
  0
LINE
  8
0
 10
-39.927
 20
37.2366
 11
-40.1289
 21
37.5547
  0
LINE
  8
0
 10
-40.1289
 20
37.5547
 11
-40.2893
 21
37.8956
  0
LINE
  8
0
 10
-40.2893
 20
37.8956
 11
-40.4057
 21
38.2539
  0
LINE
  8
0
 10
-40.4057
 20
38.2539
 11
-40.4763
 21
38.624
  0
LINE
  8
0
 10
-40.4763
 20
38.624
 11
-40.5
 21
39
  0
LINE
  8
0
 10
-40.5
 20
39
 11
-40.4763
 21
39.376
  0
LINE
  8
0
 10
-40.4763
 20
39.376
 11
-40.4057
 21
39.7461
  0
LINE
  8
0
 10
-40.4057
 20
39.7461
 11
-40.2893
 21
40.1044
  0
LINE
  8
0
 10
-40.2893
 20
40.1044
 11
-40.1289
 21
40.4453
  0
LINE
  8
0
 10
-40.1289
 20
40.4453
 11
-39.927
 21
40.7634
  0
LINE
  8
0
 10
-39.927
 20
40.7634
 11
-39.6869
 21
41.0536
  0
LINE
  8
0
 10
-39.6869
 20
41.0536
 11
-39.4123
 21
41.3116
  0
LINE
  8
0
 10
-39.4123
 20
41.3116
 11
-39.1075
 21
41.533
  0
LINE
  8
0
 10
-39.1075
 20
41.533
 11
-38.7773
 21
41.7145
  0
LINE
  8
0
 10
-38.7773
 20
41.7145
 11
-38.427
 21
41.8532
  0
LINE
  8
0
 10
-38.427
 20
41.8532
 11
-38.0621
 21
41.9469
  0
LINE
  8
0
 10
-38.0621
 20
41.9469
 11
-37.6884
 21
41.9941
  0
LINE
  8
0
 10
-37.6884
 20
41.9941
 11
-37.3116
 21
41.9941
  0
LINE
  8
0
 10
-37.3116
 20
41.9941
 11
-36.9379
 21
41.9469
  0
LINE
  8
0
 10
-36.9379
 20
41.9469
 11
-36.5729
 21
41.8532
  0
LINE
  8
0
 10
-36.5729
 20
41.8532
 11
-36.2227
 21
41.7145
  0
LINE
  8
0
 10
-36.2227
 20
41.7145
 11
-35.8925
 21
41.533
  0
LINE
  8
0
 10
-35.8925
 20
41.533
 11
-35.5877
 21
41.3116
  0
LINE
  8
0
 10
-35.5877
 20
41.3116
 11
-35.3131
 21
41.0536
  0
LINE
  8
0
 10
-35.3131
 20
41.0536
 11
-35.0729
 21
40.7634
  0
LINE
  8
0
 10
-35.0729
 20
40.7634
 11
-34.8711
 21
40.4453
  0
LINE
  8
0
 10
-34.8711
 20
40.4453
 11
-34.7107
 21
40.1044
  0
LINE
  8
0
 10
-34.7107
 20
40.1044
 11
-34.5942
 21
39.7461
  0
LINE
  8
0
 10
-34.5942
 20
39.7461
 11
-34.5237
 21
39.376
  0
LINE
  8
0
 10
-34.5237
 20
39.376
 11
-34.5
 21
39
  0
LINE
  8
0
 10
-34.5
 20
39
 11
-34.5237
 21
38.624
  0
LINE
  8
0
 10
-34.5237
 20
38.624
 11
-34.5942
 21
38.2539
  0
LINE
  8
0
 10
-34.5942
 20
38.2539
 11
-34.7107
 21
37.8956
  0
LINE
  8
0
 10
-34.7107
 20
37.8956
 11
-34.8711
 21
37.5547
  0
LINE
  8
0
 10
-34.8711
 20
37.5547
 11
-35.0729
 21
37.2366
  0
LINE
  8
0
 10
-35.0729
 20
37.2366
 11
-35.3131
 21
36.9464
  0
LINE
  8
0
 10
-35.3131
 20
36.9464
 11
-35.5877
 21
36.6885
  0
LINE
  8
0
 10
-35.5877
 20
36.6885
 11
-35.8925
 21
36.467
  0
LINE
  8
0
 10
-35.8925
 20
36.467
 11
-36.2227
 21
36.2855
  0
LINE
  8
0
 10
-36.2227
 20
36.2855
 11
-36.5729
 21
36.1468
  0
LINE
  8
0
 10
-36.5729
 20
36.1468
 11
-36.9379
 21
36.0531
  0
LINE
  8
0
 10
-36.9379
 20
36.0531
 11
-37.3116
 21
36.0059
  0
LINE
  8
0
 10
-37.3116
 20
36.0059
 11
-37.6884
 21
36.0059
  0
LINE
  8
0
 10
-7.68837
 20
36.0059
 11
-8.06213
 21
36.0531
  0
LINE
  8
0
 10
-8.06213
 20
36.0531
 11
-8.42705
 21
36.1468
  0
LINE
  8
0
 10
-8.42705
 20
36.1468
 11
-8.77733
 21
36.2855
  0
LINE
  8
0
 10
-8.77733
 20
36.2855
 11
-9.10747
 21
36.467
  0
LINE
  8
0
 10
-9.10747
 20
36.467
 11
-9.41226
 21
36.6885
  0
LINE
  8
0
 10
-9.41226
 20
36.6885
 11
-9.6869
 21
36.9464
  0
LINE
  8
0
 10
-9.6869
 20
36.9464
 11
-9.92705
 21
37.2366
  0
LINE
  8
0
 10
-9.92705
 20
37.2366
 11
-10.1289
 21
37.5547
  0
LINE
  8
0
 10
-10.1289
 20
37.5547
 11
-10.2893
 21
37.8956
  0
LINE
  8
0
 10
-10.2893
 20
37.8956
 11
-10.4057
 21
38.2539
  0
LINE
  8
0
 10
-10.4057
 20
38.2539
 11
-10.4763
 21
38.624
  0
LINE
  8
0
 10
-10.4763
 20
38.624
 11
-10.5
 21
39
  0
LINE
  8
0
 10
-10.5
 20
39
 11
-10.4763
 21
39.376
  0
LINE
  8
0
 10
-10.4763
 20
39.376
 11
-10.4057
 21
39.7461
  0
LINE
  8
0
 10
-10.4057
 20
39.7461
 11
-10.2893
 21
40.1044
  0
LINE
  8
0
 10
-10.2893
 20
40.1044
 11
-10.1289
 21
40.4453
  0
LINE
  8
0
 10
-10.1289
 20
40.4453
 11
-9.92705
 21
40.7634
  0
LINE
  8
0
 10
-9.92705
 20
40.7634
 11
-9.6869
 21
41.0536
  0
LINE
  8
0
 10
-9.6869
 20
41.0536
 11
-9.41226
 21
41.3116
  0
LINE
  8
0
 10
-9.41226
 20
41.3116
 11
-9.10747
 21
41.533
  0
LINE
  8
0
 10
-9.10747
 20
41.533
 11
-8.77733
 21
41.7145
  0
LINE
  8
0
 10
-8.77733
 20
41.7145
 11
-8.42705
 21
41.8532
  0
LINE
  8
0
 10
-8.42705
 20
41.8532
 11
-8.06213
 21
41.9469
  0
LINE
  8
0
 10
-8.06213
 20
41.9469
 11
-7.68837
 21
41.9941
  0
LINE
  8
0
 10
-7.68837
 20
41.9941
 11
-7.31161
 21
41.9941
  0
LINE
  8
0
 10
-7.31161
 20
41.9941
 11
-6.93785
 21
41.9469
  0
LINE
  8
0
 10
-6.93785
 20
41.9469
 11
-6.57294
 21
41.8532
  0
LINE
  8
0
 10
-6.57294
 20
41.8532
 11
-6.22266
 21
41.7145
  0
LINE
  8
0
 10
-6.22266
 20
41.7145
 11
-5.89252
 21
41.533
  0
LINE
  8
0
 10
-5.89252
 20
41.533
 11
-5.58772
 21
41.3116
  0
LINE
  8
0
 10
-5.58772
 20
41.3116
 11
-5.31308
 21
41.0536
  0
LINE
  8
0
 10
-5.31308
 20
41.0536
 11
-5.07294
 21
40.7634
  0
LINE
  8
0
 10
-5.07294
 20
40.7634
 11
-4.87108
 21
40.4453
  0
LINE
  8
0
 10
-4.87108
 20
40.4453
 11
-4.71066
 21
40.1044
  0
LINE
  8
0
 10
-4.71066
 20
40.1044
 11
-4.59424
 21
39.7461
  0
LINE
  8
0
 10
-4.59424
 20
39.7461
 11
-4.52365
 21
39.376
  0
LINE
  8
0
 10
-4.52365
 20
39.376
 11
-4.5
 21
39
  0
LINE
  8
0
 10
-4.5
 20
39
 11
-4.52365
 21
38.624
  0
LINE
  8
0
 10
-4.52365
 20
38.624
 11
-4.59424
 21
38.2539
  0
LINE
  8
0
 10
-4.59424
 20
38.2539
 11
-4.71066
 21
37.8956
  0
LINE
  8
0
 10
-4.71066
 20
37.8956
 11
-4.87108
 21
37.5547
  0
LINE
  8
0
 10
-4.87108
 20
37.5547
 11
-5.07294
 21
37.2366
  0
LINE
  8
0
 10
-5.07294
 20
37.2366
 11
-5.31308
 21
36.9464
  0
LINE
  8
0
 10
-5.31308
 20
36.9464
 11
-5.58772
 21
36.6885
  0
LINE
  8
0
 10
-5.58772
 20
36.6885
 11
-5.89252
 21
36.467
  0
LINE
  8
0
 10
-5.89252
 20
36.467
 11
-6.22266
 21
36.2855
  0
LINE
  8
0
 10
-6.22266
 20
36.2855
 11
-6.57294
 21
36.1468
  0
LINE
  8
0
 10
-6.57294
 20
36.1468
 11
-6.93785
 21
36.0531
  0
LINE
  8
0
 10
-6.93785
 20
36.0531
 11
-7.31161
 21
36.0059
  0
LINE
  8
0
 10
-7.31161
 20
36.0059
 11
-7.68837
 21
36.0059
  0
LINE
  8
0
 10
7.31161
 20
36.0059
 11
6.93785
 21
36.0531
  0
LINE
  8
0
 10
6.93785
 20
36.0531
 11
6.57294
 21
36.1468
  0
LINE
  8
0
 10
6.57294
 20
36.1468
 11
6.22266
 21
36.2855
  0
LINE
  8
0
 10
6.22266
 20
36.2855
 11
5.89252
 21
36.467
  0
LINE
  8
0
 10
5.89252
 20
36.467
 11
5.58772
 21
36.6885
  0
LINE
  8
0
 10
5.58772
 20
36.6885
 11
5.31308
 21
36.9464
  0
LINE
  8
0
 10
5.31308
 20
36.9464
 11
5.07294
 21
37.2366
  0
LINE
  8
0
 10
5.07294
 20
37.2366
 11
4.87108
 21
37.5547
  0
LINE
  8
0
 10
4.87108
 20
37.5547
 11
4.71066
 21
37.8956
  0
LINE
  8
0
 10
4.71066
 20
37.8956
 11
4.59424
 21
38.2539
  0
LINE
  8
0
 10
4.59424
 20
38.2539
 11
4.52365
 21
38.624
  0
LINE
  8
0
 10
4.52365
 20
38.624
 11
4.5
 21
39
  0
LINE
  8
0
 10
4.5
 20
39
 11
4.52365
 21
39.376
  0
LINE
  8
0
 10
4.52365
 20
39.376
 11
4.59424
 21
39.7461
  0
LINE
  8
0
 10
4.59424
 20
39.7461
 11
4.71066
 21
40.1044
  0
LINE
  8
0
 10
4.71066
 20
40.1044
 11
4.87108
 21
40.4453
  0
LINE
  8
0
 10
4.87108
 20
40.4453
 11
5.07294
 21
40.7634
  0
LINE
  8
0
 10
5.07294
 20
40.7634
 11
5.31308
 21
41.0536
  0
LINE
  8
0
 10
5.31308
 20
41.0536
 11
5.58772
 21
41.3116
  0
LINE
  8
0
 10
5.58772
 20
41.3116
 11
5.89252
 21
41.533
  0
LINE
  8
0
 10
5.89252
 20
41.533
 11
6.22266
 21
41.7145
  0
LINE
  8
0
 10
6.22266
 20
41.7145
 11
6.57294
 21
41.8532
  0
LINE
  8
0
 10
6.57294
 20
41.8532
 11
6.93785
 21
41.9469
  0
LINE
  8
0
 10
6.93785
 20
41.9469
 11
7.31161
 21
41.9941
  0
LINE
  8
0
 10
7.31161
 20
41.9941
 11
7.68837
 21
41.9941
  0
LINE
  8
0
 10
7.68837
 20
41.9941
 11
8.06213
 21
41.9469
  0
LINE
  8
0
 10
8.06213
 20
41.9469
 11
8.42705
 21
41.8532
  0
LINE
  8
0
 10
8.42705
 20
41.8532
 11
8.77733
 21
41.7145
  0
LINE
  8
0
 10
8.77733
 20
41.7145
 11
9.10747
 21
41.533
  0
LINE
  8
0
 10
9.10747
 20
41.533
 11
9.41226
 21
41.3116
  0
LINE
  8
0
 10
9.41226
 20
41.3116
 11
9.6869
 21
41.0536
  0
LINE
  8
0
 10
9.6869
 20
41.0536
 11
9.92705
 21
40.7634
  0
LINE
  8
0
 10
9.92705
 20
40.7634
 11
10.1289
 21
40.4453
  0
LINE
  8
0
 10
10.1289
 20
40.4453
 11
10.2893
 21
40.1044
  0
LINE
  8
0
 10
10.2893
 20
40.1044
 11
10.4057
 21
39.7461
  0
LINE
  8
0
 10
10.4057
 20
39.7461
 11
10.4763
 21
39.376
  0
LINE
  8
0
 10
10.4763
 20
39.376
 11
10.5
 21
39
  0
LINE
  8
0
 10
10.5
 20
39
 11
10.4763
 21
38.624
  0
LINE
  8
0
 10
10.4763
 20
38.624
 11
10.4057
 21
38.2539
  0
LINE
  8
0
 10
10.4057
 20
38.2539
 11
10.2893
 21
37.8956
  0
LINE
  8
0
 10
10.2893
 20
37.8956
 11
10.1289
 21
37.5547
  0
LINE
  8
0
 10
10.1289
 20
37.5547
 11
9.92705
 21
37.2366
  0
LINE
  8
0
 10
9.92705
 20
37.2366
 11
9.6869
 21
36.9464
  0
LINE
  8
0
 10
9.6869
 20
36.9464
 11
9.41226
 21
36.6885
  0
LINE
  8
0
 10
9.41226
 20
36.6885
 11
9.10747
 21
36.467
  0
LINE
  8
0
 10
9.10747
 20
36.467
 11
8.77733
 21
36.2855
  0
LINE
  8
0
 10
8.77733
 20
36.2855
 11
8.42705
 21
36.1468
  0
LINE
  8
0
 10
8.42705
 20
36.1468
 11
8.06213
 21
36.0531
  0
LINE
  8
0
 10
8.06213
 20
36.0531
 11
7.68837
 21
36.0059
  0
LINE
  8
0
 10
7.68837
 20
36.0059
 11
7.31161
 21
36.0059
  0
ENDSEC
  0
SECTION
  2
OBJECTS
  0
DICTIONARY
  0
ENDSEC
  0
EOF
