<?xml version="1.0" standalone="no"?>
<!DOCTYPE svg PUBLIC "-//W3C//DTD SVG 1.1//EN" "http://www.w3.org/Graphics/SVG/1.1/DTD/svg11.dtd">
<svg width="90mm" height="44mm" viewBox="-45 -76 90 44" xmlns="http://www.w3.org/2000/svg" version="1.1">
<title>OpenSCAD Model</title>
<path d="
M 40.4369,-32.0886 L 41.0451,-32.2447 L 41.6289,-32.4759 L 42.1791,-32.7784 L 42.6871,-33.1474 L 43.1448,-33.5773
 L 43.5451,-34.0611 L 43.8815,-34.5912 L 44.1489,-35.1594 L 44.3429,-35.7566 L 44.4606,-36.3733 L 44.5,-37
 L 44.5,-71 L 44.4606,-71.6267 L 44.3429,-72.2434 L 44.1489,-72.8406 L 43.8815,-73.4088 L 43.5451,-73.9389
 L 43.1448,-74.4227 L 42.6871,-74.8526 L 42.1791,-75.2216 L 41.6289,-75.5241 L 41.0451,-75.7553 L 40.4369,-75.9114
 L 39.8139,-75.9901 L -39.8139,-75.9901 L -40.4369,-75.9114 L -41.0451,-75.7553 L -41.6289,-75.5241 L -42.1791,-75.2216
 L -42.6871,-74.8526 L -43.1448,-74.4227 L -43.5451,-73.9389 L -43.8815,-73.4088 L -44.1489,-72.8406 L -44.3429,-72.2434
 L -44.4606,-71.6267 L -44.5,-71 L -44.5,-37 L -44.4606,-36.3733 L -44.3429,-35.7566 L -44.1489,-35.1594
 L -43.8815,-34.5912 L -43.5451,-34.0611 L -43.1448,-33.5773 L -42.6871,-33.1474 L -42.1791,-32.7784 L -41.6289,-32.4759
 L -41.0451,-32.2447 L -40.4369,-32.0886 L -39.8139,-32.0099 L 39.8139,-32.0099 z
M -22.6884,-66.0059 L -23.0621,-66.0531 L -23.427,-66.1468 L -23.7773,-66.2855 L -24.1075,-66.467 L -24.4123,-66.6884
 L -24.6869,-66.9464 L -24.927,-67.2366 L -25.1289,-67.5547 L -25.2893,-67.8956 L -25.4057,-68.2539 L -25.4763,-68.624
 L -25.5,-69 L -25.4763,-69.376 L -25.4057,-69.7461 L -25.2893,-70.1044 L -25.1289,-70.4453 L -24.927,-70.7634
 L -24.6869,-71.0536 L -24.4123,-71.3115 L -24.1075,-71.533 L -23.7773,-71.7145 L -23.427,-71.8532 L -23.0621,-71.9469
 L -22.6884,-71.9941 L -22.3116,-71.9941 L -21.9379,-71.9469 L -21.5729,-71.8532 L -21.2227,-71.7145 L -20.8925,-71.533
 L -20.5877,-71.3115 L -20.3131,-71.0536 L -20.0729,-70.7634 L -19.8711,-70.4453 L -19.7107,-70.1044 L -19.5942,-69.7461
 L -19.5237,-69.376 L -19.5,-69 L -19.5237,-68.624 L -19.5942,-68.2539 L -19.7107,-67.8956 L -19.8711,-67.5547
 L -20.0729,-67.2366 L -20.3131,-66.9464 L -20.5877,-66.6884 L -20.8925,-66.467 L -21.2227,-66.2855 L -21.5729,-66.1468
 L -21.9379,-66.0531 L -22.3116,-66.0059 z
M -37.6884,-66.0059 L -38.0621,-66.0531 L -38.427,-66.1468 L -38.7773,-66.2855 L -39.1075,-66.467 L -39.4123,-66.6884
 L -39.6869,-66.9464 L -39.927,-67.2366 L -40.1289,-67.5547 L -40.2893,-67.8956 L -40.4057,-68.2539 L -40.4763,-68.624
 L -40.5,-69 L -40.4763,-69.376 L -40.4057,-69.7461 L -40.2893,-70.1044 L -40.1289,-70.4453 L -39.927,-70.7634
 L -39.6869,-71.0536 L -39.4123,-71.3115 L -39.1075,-71.533 L -38.7773,-71.7145 L -38.427,-71.8532 L -38.0621,-71.9469
 L -37.6884,-71.9941 L -37.3116,-71.9941 L -36.9379,-71.9469 L -36.5729,-71.8532 L -36.2227,-71.7145 L -35.8925,-71.533
 L -35.5877,-71.3115 L -35.3131,-71.0536 L -35.0729,-70.7634 L -34.8711,-70.4453 L -34.7107,-70.1044 L -34.5942,-69.7461
 L -34.5237,-69.376 L -34.5,-69 L -34.5237,-68.624 L -34.5942,-68.2539 L -34.7107,-67.8956 L -34.8711,-67.5547
 L -35.0729,-67.2366 L -35.3131,-66.9464 L -35.5877,-66.6884 L -35.8925,-66.467 L -36.2227,-66.2855 L -36.5729,-66.1468
 L -36.9379,-66.0531 L -37.3116,-66.0059 z
M -7.68837,-66.0059 L -8.06213,-66.0531 L -8.42705,-66.1468 L -8.77733,-66.2855 L -9.10747,-66.467 L -9.41226,-66.6884
 L -9.6869,-66.9464 L -9.92705,-67.2366 L -10.1289,-67.5547 L -10.2893,-67.8956 L -10.4057,-68.2539 L -10.4763,-68.624
 L -10.5,-69 L -10.4763,-69.376 L -10.4057,-69.7461 L -10.2893,-70.1044 L -10.1289,-70.4453 L -9.92705,-70.7634
 L -9.6869,-71.0536 L -9.41226,-71.3115 L -9.10747,-71.533 L -8.77733,-71.7145 L -8.42705,-71.8532 L -8.06213,-71.9469
 L -7.68837,-71.9941 L -7.31161,-71.9941 L -6.93785,-71.9469 L -6.57294,-71.8532 L -6.22266,-71.7145 L -5.89252,-71.533
 L -5.58772,-71.3115 L -5.31308,-71.0536 L -5.07294,-70.7634 L -4.87108,-70.4453 L -4.71066,-70.1044 L -4.59424,-69.7461
 L -4.52365,-69.376 L -4.5,-69 L -4.52365,-68.624 L -4.59424,-68.2539 L -4.71066,-67.8956 L -4.87108,-67.5547
 L -5.07294,-67.2366 L -5.31308,-66.9464 L -5.58772,-66.6884 L -5.89252,-66.467 L -6.22266,-66.2855 L -6.57294,-66.1468
 L -6.93785,-66.0531 L -7.31161,-66.0059 z
M 37.3116,-66.0059 L 36.9379,-66.0531 L 36.5729,-66.1468 L 36.2227,-66.2855 L 35.8925,-66.467 L 35.5877,-66.6884
 L 35.3131,-66.9464 L 35.0729,-67.2366 L 34.8711,-67.5547 L 34.7107,-67.8956 L 34.5942,-68.2539 L 34.5237,-68.624
 L 34.5,-69 L 34.5237,-69.376 L 34.5942,-69.7461 L 34.7107,-70.1044 L 34.8711,-70.4453 L 35.0729,-70.7634
 L 35.3131,-71.0536 L 35.5877,-71.3115 L 35.8925,-71.533 L 36.2227,-71.7145 L 36.5729,-71.8532 L 36.9379,-71.9469
 L 37.3116,-71.9941 L 37.6884,-71.9941 L 38.0621,-71.9469 L 38.427,-71.8532 L 38.7773,-71.7145 L 39.1075,-71.533
 L 39.4123,-71.3115 L 39.6869,-71.0536 L 39.927,-70.7634 L 40.1289,-70.4453 L 40.2893,-70.1044 L 40.4057,-69.7461
 L 40.4763,-69.376 L 40.5,-69 L 40.4763,-68.624 L 40.4057,-68.2539 L 40.2893,-67.8956 L 40.1289,-67.5547
 L 39.927,-67.2366 L 39.6869,-66.9464 L 39.4123,-66.6884 L 39.1075,-66.467 L 38.7773,-66.2855 L 38.427,-66.1468
 L 38.0621,-66.0531 L 37.6884,-66.0059 z
M 7.31161,-66.0059 L 6.93785,-66.0531 L 6.57294,-66.1468 L 6.22266,-66.2855 L 5.89252,-66.467 L 5.58772,-66.6884
 L 5.31308,-66.9464 L 5.07294,-67.2366 L 4.87108,-67.5547 L 4.71066,-67.8956 L 4.59424,-68.2539 L 4.52365,-68.624
 L 4.5,-69 L 4.52365,-69.376 L 4.59424,-69.7461 L 4.71066,-70.1044 L 4.87108,-70.4453 L 5.07294,-70.7634
 L 5.31308,-71.0536 L 5.58772,-71.3115 L 5.89252,-71.533 L 6.22266,-71.7145 L 6.57294,-71.8532 L 6.93785,-71.9469
 L 7.31161,-71.9941 L 7.68837,-71.9941 L 8.06213,-71.9469 L 8.42705,-71.8532 L 8.77733,-71.7145 L 9.10747,-71.533
 L 9.41226,-71.3115 L 9.6869,-71.0536 L 9.92705,-70.7634 L 10.1289,-70.4453 L 10.2893,-70.1044 L 10.4057,-69.7461
 L 10.4763,-69.376 L 10.5,-69 L 10.4763,-68.624 L 10.4057,-68.2539 L 10.2893,-67.8956 L 10.1289,-67.5547
 L 9.92705,-67.2366 L 9.6869,-66.9464 L 9.41226,-66.6884 L 9.10747,-66.467 L 8.77733,-66.2855 L 8.42705,-66.1468
 L 8.06213,-66.0531 L 7.68837,-66.0059 z
M 22.3116,-66.0059 L 21.9379,-66.0531 L 21.5729,-66.1468 L 21.2227,-66.2855 L 20.8925,-66.467 L 20.5877,-66.6884
 L 20.3131,-66.9464 L 20.0729,-67.2366 L 19.8711,-67.5547 L 19.7107,-67.8956 L 19.5942,-68.2539 L 19.5237,-68.624
 L 19.5,-69 L 19.5237,-69.376 L 19.5942,-69.7461 L 19.7107,-70.1044 L 19.8711,-70.4453 L 20.0729,-70.7634
 L 20.3131,-71.0536 L 20.5877,-71.3115 L 20.8925,-71.533 L 21.2227,-71.7145 L 21.5729,-71.8532 L 21.9379,-71.9469
 L 22.3116,-71.9941 L 22.6884,-71.9941 L 23.0621,-71.9469 L 23.427,-71.8532 L 23.7773,-71.7145 L 24.1075,-71.533
 L 24.4123,-71.3115 L 24.6869,-71.0536 L 24.927,-70.7634 L 25.1289,-70.4453 L 25.2893,-70.1044 L 25.4057,-69.7461
 L 25.4763,-69.376 L 25.5,-69 L 25.4763,-68.624 L 25.4057,-68.2539 L 25.2893,-67.8956 L 25.1289,-67.5547
 L 24.927,-67.2366 L 24.6869,-66.9464 L 24.4123,-66.6884 L 24.1075,-66.467 L 23.7773,-66.2855 L 23.427,-66.1468
 L 23.0621,-66.0531 L 22.6884,-66.0059 z
M 37.3116,-51.0059 L 36.9379,-51.0531 L 36.5729,-51.1468 L 36.2227,-51.2855 L 35.8925,-51.467 L 35.5877,-51.6885
 L 35.3131,-51.9464 L 35.0729,-52.2366 L 34.8711,-52.5547 L 34.7107,-52.8956 L 34.5942,-53.2539 L 34.5237,-53.624
 L 34.5,-54 L 34.5237,-54.376 L 34.5942,-54.7461 L 34.7107,-55.1044 L 34.8711,-55.4453 L 35.0729,-55.7634
 L 35.3131,-56.0536 L 35.5877,-56.3115 L 35.8925,-56.533 L 36.2227,-56.7145 L 36.5729,-56.8532 L 36.9379,-56.9469
 L 37.3116,-56.9941 L 37.6884,-56.9941 L 38.0621,-56.9469 L 38.427,-56.8532 L 38.7773,-56.7145 L 39.1075,-56.533
 L 39.4123,-56.3115 L 39.6869,-56.0536 L 39.927,-55.7634 L 40.1289,-55.4453 L 40.2893,-55.1044 L 40.4057,-54.7461
 L 40.4763,-54.376 L 40.5,-54 L 40.4763,-53.624 L 40.4057,-53.2539 L 40.2893,-52.8956 L 40.1289,-52.5547
 L 39.927,-52.2366 L 39.6869,-51.9464 L 39.4123,-51.6885 L 39.1075,-51.467 L 38.7773,-51.2855 L 38.427,-51.1468
 L 38.0621,-51.0531 L 37.6884,-51.0059 z
M -7.68837,-51.0059 L -8.06213,-51.0531 L -8.42705,-51.1468 L -8.77733,-51.2855 L -9.10747,-51.467 L -9.41226,-51.6885
 L -9.6869,-51.9464 L -9.92705,-52.2366 L -10.1289,-52.5547 L -10.2893,-52.8956 L -10.4057,-53.2539 L -10.4763,-53.624
 L -10.5,-54 L -10.4763,-54.376 L -10.4057,-54.7461 L -10.2893,-55.1044 L -10.1289,-55.4453 L -9.92705,-55.7634
 L -9.6869,-56.0536 L -9.41226,-56.3115 L -9.10747,-56.533 L -8.77733,-56.7145 L -8.42705,-56.8532 L -8.06213,-56.9469
 L -7.68837,-56.9941 L -7.31161,-56.9941 L -6.93785,-56.9469 L -6.57294,-56.8532 L -6.22266,-56.7145 L -5.89252,-56.533
 L -5.58772,-56.3115 L -5.31308,-56.0536 L -5.07294,-55.7634 L -4.87108,-55.4453 L -4.71066,-55.1044 L -4.59424,-54.7461
 L -4.52365,-54.376 L -4.5,-54 L -4.52365,-53.624 L -4.59424,-53.2539 L -4.71066,-52.8956 L -4.87108,-52.5547
 L -5.07294,-52.2366 L -5.31308,-51.9464 L -5.58772,-51.6885 L -5.89252,-51.467 L -6.22266,-51.2855 L -6.57294,-51.1468
 L -6.93785,-51.0531 L -7.31161,-51.0059 z
M -37.6884,-51.0059 L -38.0621,-51.0531 L -38.427,-51.1468 L -38.7773,-51.2855 L -39.1075,-51.467 L -39.4123,-51.6885
 L -39.6869,-51.9464 L -39.927,-52.2366 L -40.1289,-52.5547 L -40.2893,-52.8956 L -40.4057,-53.2539 L -40.4763,-53.624
 L -40.5,-54 L -40.4763,-54.376 L -40.4057,-54.7461 L -40.2893,-55.1044 L -40.1289,-55.4453 L -39.927,-55.7634
 L -39.6869,-56.0536 L -39.4123,-56.3115 L -39.1075,-56.533 L -38.7773,-56.7145 L -38.427,-56.8532 L -38.0621,-56.9469
 L -37.6884,-56.9941 L -37.3116,-56.9941 L -36.9379,-56.9469 L -36.5729,-56.8532 L -36.2227,-56.7145 L -35.8925,-56.533
 L -35.5877,-56.3115 L -35.3131,-56.0536 L -35.0729,-55.7634 L -34.8711,-55.4453 L -34.7107,-55.1044 L -34.5942,-54.7461
 L -34.5237,-54.376 L -34.5,-54 L -34.5237,-53.624 L -34.5942,-53.2539 L -34.7107,-52.8956 L -34.8711,-52.5547
 L -35.0729,-52.2366 L -35.3131,-51.9464 L -35.5877,-51.6885 L -35.8925,-51.467 L -36.2227,-51.2855 L -36.5729,-51.1468
 L -36.9379,-51.0531 L -37.3116,-51.0059 z
M 7.31161,-51.0059 L 6.93785,-51.0531 L 6.57294,-51.1468 L 6.22266,-51.2855 L 5.89252,-51.467 L 5.58772,-51.6885
 L 5.31308,-51.9464 L 5.07294,-52.2366 L 4.87108,-52.5547 L 4.71066,-52.8956 L 4.59424,-53.2539 L 4.52365,-53.624
 L 4.5,-54 L 4.52365,-54.376 L 4.59424,-54.7461 L 4.71066,-55.1044 L 4.87108,-55.4453 L 5.07294,-55.7634
 L 5.31308,-56.0536 L 5.58772,-56.3115 L 5.89252,-56.533 L 6.22266,-56.7145 L 6.57294,-56.8532 L 6.93785,-56.9469
 L 7.31161,-56.9941 L 7.68837,-56.9941 L 8.06213,-56.9469 L 8.42705,-56.8532 L 8.77733,-56.7145 L 9.10747,-56.533
 L 9.41226,-56.3115 L 9.6869,-56.0536 L 9.92705,-55.7634 L 10.1289,-55.4453 L 10.2893,-55.1044 L 10.4057,-54.7461
 L 10.4763,-54.376 L 10.5,-54 L 10.4763,-53.624 L 10.4057,-53.2539 L 10.2893,-52.8956 L 10.1289,-52.5547
 L 9.92705,-52.2366 L 9.6869,-51.9464 L 9.41226,-51.6885 L 9.10747,-51.467 L 8.77733,-51.2855 L 8.42705,-51.1468
 L 8.06213,-51.0531 L 7.68837,-51.0059 z
M -22.6884,-51.0059 L -23.0621,-51.0531 L -23.427,-51.1468 L -23.7773,-51.2855 L -24.1075,-51.467 L -24.4123,-51.6885
 L -24.6869,-51.9464 L -24.927,-52.2366 L -25.1289,-52.5547 L -25.2893,-52.8956 L -25.4057,-53.2539 L -25.4763,-53.624
 L -25.5,-54 L -25.4763,-54.376 L -25.4057,-54.7461 L -25.2893,-55.1044 L -25.1289,-55.4453 L -24.927,-55.7634
 L -24.6869,-56.0536 L -24.4123,-56.3115 L -24.1075,-56.533 L -23.7773,-56.7145 L -23.427,-56.8532 L -23.0621,-56.9469
 L -22.6884,-56.9941 L -22.3116,-56.9941 L -21.9379,-56.9469 L -21.5729,-56.8532 L -21.2227,-56.7145 L -20.8925,-56.533
 L -20.5877,-56.3115 L -20.3131,-56.0536 L -20.0729,-55.7634 L -19.8711,-55.4453 L -19.7107,-55.1044 L -19.5942,-54.7461
 L -19.5237,-54.376 L -19.5,-54 L -19.5237,-53.624 L -19.5942,-53.2539 L -19.7107,-52.8956 L -19.8711,-52.5547
 L -20.0729,-52.2366 L -20.3131,-51.9464 L -20.5877,-51.6885 L -20.8925,-51.467 L -21.2227,-51.2855 L -21.5729,-51.1468
 L -21.9379,-51.0531 L -22.3116,-51.0059 z
M 22.3116,-51.0059 L 21.9379,-51.0531 L 21.5729,-51.1468 L 21.2227,-51.2855 L 20.8925,-51.467 L 20.5877,-51.6885
 L 20.3131,-51.9464 L 20.0729,-52.2366 L 19.8711,-52.5547 L 19.7107,-52.8956 L 19.5942,-53.2539 L 19.5237,-53.624
 L 19.5,-54 L 19.5237,-54.376 L 19.5942,-54.7461 L 19.7107,-55.1044 L 19.8711,-55.4453 L 20.0729,-55.7634
 L 20.3131,-56.0536 L 20.5877,-56.3115 L 20.8925,-56.533 L 21.2227,-56.7145 L 21.5729,-56.8532 L 21.9379,-56.9469
 L 22.3116,-56.9941 L 22.6884,-56.9941 L 23.0621,-56.9469 L 23.427,-56.8532 L 23.7773,-56.7145 L 24.1075,-56.533
 L 24.4123,-56.3115 L 24.6869,-56.0536 L 24.927,-55.7634 L 25.1289,-55.4453 L 25.2893,-55.1044 L 25.4057,-54.7461
 L 25.4763,-54.376 L 25.5,-54 L 25.4763,-53.624 L 25.4057,-53.2539 L 25.2893,-52.8956 L 25.1289,-52.5547
 L 24.927,-52.2366 L 24.6869,-51.9464 L 24.4123,-51.6885 L 24.1075,-51.467 L 23.7773,-51.2855 L 23.427,-51.1468
 L 23.0621,-51.0531 L 22.6884,-51.0059 z
M 37.3116,-36.0059 L 36.9379,-36.0531 L 36.5729,-36.1468 L 36.2227,-36.2855 L 35.8925,-36.467 L 35.5877,-36.6885
 L 35.3131,-36.9464 L 35.0729,-37.2366 L 34.8711,-37.5547 L 34.7107,-37.8956 L 34.5942,-38.2539 L 34.5237,-38.624
 L 34.5,-39 L 34.5237,-39.376 L 34.5942,-39.7461 L 34.7107,-40.1044 L 34.8711,-40.4453 L 35.0729,-40.7634
 L 35.3131,-41.0536 L 35.5877,-41.3116 L 35.8925,-41.533 L 36.2227,-41.7145 L 36.5729,-41.8532 L 36.9379,-41.9469
 L 37.3116,-41.9941 L 37.6884,-41.9941 L 38.0621,-41.9469 L 38.427,-41.8532 L 38.7773,-41.7145 L 39.1075,-41.533
 L 39.4123,-41.3116 L 39.6869,-41.0536 L 39.927,-40.7634 L 40.1289,-40.4453 L 40.2893,-40.1044 L 40.4057,-39.7461
 L 40.4763,-39.376 L 40.5,-39 L 40.4763,-38.624 L 40.4057,-38.2539 L 40.2893,-37.8956 L 40.1289,-37.5547
 L 39.927,-37.2366 L 39.6869,-36.9464 L 39.4123,-36.6885 L 39.1075,-36.467 L 38.7773,-36.2855 L 38.427,-36.1468
 L 38.0621,-36.0531 L 37.6884,-36.0059 z
M 22.3116,-36.0059 L 21.9379,-36.0531 L 21.5729,-36.1468 L 21.2227,-36.2855 L 20.8925,-36.467 L 20.5877,-36.6885
 L 20.3131,-36.9464 L 20.0729,-37.2366 L 19.8711,-37.5547 L 19.7107,-37.8956 L 19.5942,-38.2539 L 19.5237,-38.624
 L 19.5,-39 L 19.5237,-39.376 L 19.5942,-39.7461 L 19.7107,-40.1044 L 19.8711,-40.4453 L 20.0729,-40.7634
 L 20.3131,-41.0536 L 20.5877,-41.3116 L 20.8925,-41.533 L 21.2227,-41.7145 L 21.5729,-41.8532 L 21.9379,-41.9469
 L 22.3116,-41.9941 L 22.6884,-41.9941 L 23.0621,-41.9469 L 23.427,-41.8532 L 23.7773,-41.7145 L 24.1075,-41.533
 L 24.4123,-41.3116 L 24.6869,-41.0536 L 24.927,-40.7634 L 25.1289,-40.4453 L 25.2893,-40.1044 L 25.4057,-39.7461
 L 25.4763,-39.376 L 25.5,-39 L 25.4763,-38.624 L 25.4057,-38.2539 L 25.2893,-37.8956 L 25.1289,-37.5547
 L 24.927,-37.2366 L 24.6869,-36.9464 L 24.4123,-36.6885 L 24.1075,-36.467 L 23.7773,-36.2855 L 23.427,-36.1468
 L 23.0621,-36.0531 L 22.6884,-36.0059 z
M -22.6884,-36.0059 L -23.0621,-36.0531 L -23.427,-36.1468 L -23.7773,-36.2855 L -24.1075,-36.467 L -24.4123,-36.6885
 L -24.6869,-36.9464 L -24.927,-37.2366 L -25.1289,-37.5547 L -25.2893,-37.8956 L -25.4057,-38.2539 L -25.4763,-38.624
 L -25.5,-39 L -25.4763,-39.376 L -25.4057,-39.7461 L -25.2893,-40.1044 L -25.1289,-40.4453 L -24.927,-40.7634
 L -24.6869,-41.0536 L -24.4123,-41.3116 L -24.1075,-41.533 L -23.7773,-41.7145 L -23.427,-41.8532 L -23.0621,-41.9469
 L -22.6884,-41.9941 L -22.3116,-41.9941 L -21.9379,-41.9469 L -21.5729,-41.8532 L -21.2227,-41.7145 L -20.8925,-41.533
 L -20.5877,-41.3116 L -20.3131,-41.0536 L -20.0729,-40.7634 L -19.8711,-40.4453 L -19.7107,-40.1044 L -19.5942,-39.7461
 L -19.5237,-39.376 L -19.5,-39 L -19.5237,-38.624 L -19.5942,-38.2539 L -19.7107,-37.8956 L -19.8711,-37.5547
 L -20.0729,-37.2366 L -20.3131,-36.9464 L -20.5877,-36.6885 L -20.8925,-36.467 L -21.2227,-36.2855 L -21.5729,-36.1468
 L -21.9379,-36.0531 L -22.3116,-36.0059 z
M -37.6884,-36.0059 L -38.0621,-36.0531 L -38.427,-36.1468 L -38.7773,-36.2855 L -39.1075,-36.467 L -39.4123,-36.6885
 L -39.6869,-36.9464 L -39.927,-37.2366 L -40.1289,-37.5547 L -40.2893,-37.8956 L -40.4057,-38.2539 L -40.4763,-38.624
 L -40.5,-39 L -40.4763,-39.376 L -40.4057,-39.7461 L -40.2893,-40.1044 L -40.1289,-40.4453 L -39.927,-40.7634
 L -39.6869,-41.0536 L -39.4123,-41.3116 L -39.1075,-41.533 L -38.7773,-41.7145 L -38.427,-41.8532 L -38.0621,-41.9469
 L -37.6884,-41.9941 L -37.3116,-41.9941 L -36.9379,-41.9469 L -36.5729,-41.8532 L -36.2227,-41.7145 L -35.8925,-41.533
 L -35.5877,-41.3116 L -35.3131,-41.0536 L -35.0729,-40.7634 L -34.8711,-40.4453 L -34.7107,-40.1044 L -34.5942,-39.7461
 L -34.5237,-39.376 L -34.5,-39 L -34.5237,-38.624 L -34.5942,-38.2539 L -34.7107,-37.8956 L -34.8711,-37.5547
 L -35.0729,-37.2366 L -35.3131,-36.9464 L -35.5877,-36.6885 L -35.8925,-36.467 L -36.2227,-36.2855 L -36.5729,-36.1468
 L -36.9379,-36.0531 L -37.3116,-36.0059 z
M -7.68837,-36.0059 L -8.06213,-36.0531 L -8.42705,-36.1468 L -8.77733,-36.2855 L -9.10747,-36.467 L -9.41226,-36.6885
 L -9.6869,-36.9464 L -9.92705,-37.2366 L -10.1289,-37.5547 L -10.2893,-37.8956 L -10.4057,-38.2539 L -10.4763,-38.624
 L -10.5,-39 L -10.4763,-39.376 L -10.4057,-39.7461 L -10.2893,-40.1044 L -10.1289,-40.4453 L -9.92705,-40.7634
 L -9.6869,-41.0536 L -9.41226,-41.3116 L -9.10747,-41.533 L -8.77733,-41.7145 L -8.42705,-41.8532 L -8.06213,-41.9469
 L -7.68837,-41.9941 L -7.31161,-41.9941 L -6.93785,-41.9469 L -6.57294,-41.8532 L -6.22266,-41.7145 L -5.89252,-41.533
 L -5.58772,-41.3116 L -5.31308,-41.0536 L -5.07294,-40.7634 L -4.87108,-40.4453 L -4.71066,-40.1044 L -4.59424,-39.7461
 L -4.52365,-39.376 L -4.5,-39 L -4.52365,-38.624 L -4.59424,-38.2539 L -4.71066,-37.8956 L -4.87108,-37.5547
 L -5.07294,-37.2366 L -5.31308,-36.9464 L -5.58772,-36.6885 L -5.89252,-36.467 L -6.22266,-36.2855 L -6.57294,-36.1468
 L -6.93785,-36.0531 L -7.31161,-36.0059 z
M 7.31161,-36.0059 L 6.93785,-36.0531 L 6.57294,-36.1468 L 6.22266,-36.2855 L 5.89252,-36.467 L 5.58772,-36.6885
 L 5.31308,-36.9464 L 5.07294,-37.2366 L 4.87108,-37.5547 L 4.71066,-37.8956 L 4.59424,-38.2539 L 4.52365,-38.624
 L 4.5,-39 L 4.52365,-39.376 L 4.59424,-39.7461 L 4.71066,-40.1044 L 4.87108,-40.4453 L 5.07294,-40.7634
 L 5.31308,-41.0536 L 5.58772,-41.3116 L 5.89252,-41.533 L 6.22266,-41.7145 L 6.57294,-41.8532 L 6.93785,-41.9469
 L 7.31161,-41.9941 L 7.68837,-41.9941 L 8.06213,-41.9469 L 8.42705,-41.8532 L 8.77733,-41.7145 L 9.10747,-41.533
 L 9.41226,-41.3116 L 9.6869,-41.0536 L 9.92705,-40.7634 L 10.1289,-40.4453 L 10.2893,-40.1044 L 10.4057,-39.7461
 L 10.4763,-39.376 L 10.5,-39 L 10.4763,-38.624 L 10.4057,-38.2539 L 10.2893,-37.8956 L 10.1289,-37.5547
 L 9.92705,-37.2366 L 9.6869,-36.9464 L 9.41226,-36.6885 L 9.10747,-36.467 L 8.77733,-36.2855 L 8.42705,-36.1468
 L 8.06213,-36.0531 L 7.68837,-36.0059 z
" stroke="black" fill="lightgray" stroke-width="0.5"/>
</svg>
