  0
SECTION
  2
BLOCKS
  0
ENDSEC
  0
SECTION
  2
ENTITIES
  0
LINE
  8
0
 10
205.437
 20
65.0886
 11
206.045
 21
65.2447
  0
LINE
  8
0
 10
206.045
 20
65.2447
 11
206.629
 21
65.4759
  0
LINE
  8
0
 10
206.629
 20
65.4759
 11
207.179
 21
65.7784
  0
LINE
  8
0
 10
207.179
 20
65.7784
 11
207.687
 21
66.1474
  0
LINE
  8
0
 10
207.687
 20
66.1474
 11
208.145
 21
66.5773
  0
LINE
  8
0
 10
208.145
 20
66.5773
 11
208.545
 21
67.0611
  0
LINE
  8
0
 10
208.545
 20
67.0611
 11
208.882
 21
67.5912
  0
LINE
  8
0
 10
208.882
 20
67.5912
 11
209.149
 21
68.1594
  0
LINE
  8
0
 10
209.149
 20
68.1594
 11
209.343
 21
68.7566
  0
LINE
  8
0
 10
209.343
 20
68.7566
 11
209.461
 21
69.3733
  0
LINE
  8
0
 10
209.461
 20
69.3733
 11
209.5
 21
70
  0
LINE
  8
0
 10
209.5
 20
70
 11
209.5
 21
74
  0
LINE
  8
0
 10
209.5
 20
74
 11
209.461
 21
74.6267
  0
LINE
  8
0
 10
209.461
 20
74.6267
 11
209.343
 21
75.2434
  0
LINE
  8
0
 10
209.343
 20
75.2434
 11
209.149
 21
75.8406
  0
LINE
  8
0
 10
209.149
 20
75.8406
 11
208.882
 21
76.4088
  0
LINE
  8
0
 10
208.882
 20
76.4088
 11
208.545
 21
76.9389
  0
LINE
  8
0
 10
208.545
 20
76.9389
 11
208.145
 21
77.4227
  0
LINE
  8
0
 10
208.145
 20
77.4227
 11
207.687
 21
77.8526
  0
LINE
  8
0
 10
207.687
 20
77.8526
 11
207.179
 21
78.2216
  0
LINE
  8
0
 10
207.179
 20
78.2216
 11
206.629
 21
78.5241
  0
LINE
  8
0
 10
206.629
 20
78.5241
 11
206.045
 21
78.7553
  0
LINE
  8
0
 10
206.045
 20
78.7553
 11
205.437
 21
78.9114
  0
LINE
  8
0
 10
205.437
 20
78.9114
 11
204.814
 21
78.9901
  0
LINE
  8
0
 10
204.814
 20
78.9901
 11
-204.814
 21
78.9901
  0
LINE
  8
0
 10
-204.814
 20
78.9901
 11
-205.437
 21
78.9114
  0
LINE
  8
0
 10
-205.437
 20
78.9114
 11
-206.045
 21
78.7553
  0
LINE
  8
0
 10
-206.045
 20
78.7553
 11
-206.629
 21
78.5241
  0
LINE
  8
0
 10
-206.629
 20
78.5241
 11
-207.179
 21
78.2216
  0
LINE
  8
0
 10
-207.179
 20
78.2216
 11
-207.687
 21
77.8526
  0
LINE
  8
0
 10
-207.687
 20
77.8526
 11
-208.145
 21
77.4227
  0
LINE
  8
0
 10
-208.145
 20
77.4227
 11
-208.545
 21
76.9389
  0
LINE
  8
0
 10
-208.545
 20
76.9389
 11
-208.882
 21
76.4088
  0
LINE
  8
0
 10
-208.882
 20
76.4088
 11
-209.149
 21
75.8406
  0
LINE
  8
0
 10
-209.149
 20
75.8406
 11
-209.343
 21
75.2434
  0
LINE
  8
0
 10
-209.343
 20
75.2434
 11
-209.461
 21
74.6267
  0
LINE
  8
0
 10
-209.461
 20
74.6267
 11
-209.5
 21
74
  0
LINE
  8
0
 10
-209.5
 20
74
 11
-209.5
 21
70
  0
LINE
  8
0
 10
-209.5
 20
70
 11
-209.461
 21
69.3733
  0
LINE
  8
0
 10
-209.461
 20
69.3733
 11
-209.343
 21
68.7566
  0
LINE
  8
0
 10
-209.343
 20
68.7566
 11
-209.149
 21
68.1594
  0
LINE
  8
0
 10
-209.149
 20
68.1594
 11
-208.882
 21
67.5912
  0
LINE
  8
0
 10
-208.882
 20
67.5912
 11
-208.545
 21
67.0611
  0
LINE
  8
0
 10
-208.545
 20
67.0611
 11
-208.145
 21
66.5773
  0
LINE
  8
0
 10
-208.145
 20
66.5773
 11
-207.687
 21
66.1474
  0
LINE
  8
0
 10
-207.687
 20
66.1474
 11
-207.179
 21
65.7784
  0
LINE
  8
0
 10
-207.179
 20
65.7784
 11
-206.629
 21
65.4759
  0
LINE
  8
0
 10
-206.629
 20
65.4759
 11
-206.045
 21
65.2447
  0
LINE
  8
0
 10
-206.045
 20
65.2447
 11
-205.437
 21
65.0886
  0
LINE
  8
0
 10
-205.437
 20
65.0886
 11
-204.814
 21
65.0099
  0
LINE
  8
0
 10
-204.814
 20
65.0099
 11
204.814
 21
65.0099
  0
LINE
  8
0
 10
204.814
 20
65.0099
 11
205.437
 21
65.0886
  0
LINE
  8
0
 10
202.312
 20
69.0059
 11
201.938
 21
69.0531
  0
LINE
  8
0
 10
201.938
 20
69.0531
 11
201.573
 21
69.1468
  0
LINE
  8
0
 10
201.573
 20
69.1468
 11
201.223
 21
69.2855
  0
LINE
  8
0
 10
201.223
 20
69.2855
 11
200.893
 21
69.467
  0
LINE
  8
0
 10
200.893
 20
69.467
 11
200.588
 21
69.6885
  0
LINE
  8
0
 10
200.588
 20
69.6885
 11
200.313
 21
69.9464
  0
LINE
  8
0
 10
200.313
 20
69.9464
 11
200.073
 21
70.2366
  0
LINE
  8
0
 10
200.073
 20
70.2366
 11
199.871
 21
70.5547
  0
LINE
  8
0
 10
199.871
 20
70.5547
 11
199.711
 21
70.8956
  0
LINE
  8
0
 10
199.711
 20
70.8956
 11
199.594
 21
71.2539
  0
LINE
  8
0
 10
199.594
 20
71.2539
 11
199.524
 21
71.624
  0
LINE
  8
0
 10
199.524
 20
71.624
 11
199.5
 21
72
  0
LINE
  8
0
 10
199.5
 20
72
 11
199.524
 21
72.376
  0
LINE
  8
0
 10
199.524
 20
72.376
 11
199.594
 21
72.7461
  0
LINE
  8
0
 10
199.594
 20
72.7461
 11
199.711
 21
73.1044
  0
LINE
  8
0
 10
199.711
 20
73.1044
 11
199.871
 21
73.4453
  0
LINE
  8
0
 10
199.871
 20
73.4453
 11
200.073
 21
73.7634
  0
LINE
  8
0
 10
200.073
 20
73.7634
 11
200.313
 21
74.0536
  0
LINE
  8
0
 10
200.313
 20
74.0536
 11
200.588
 21
74.3115
  0
LINE
  8
0
 10
200.588
 20
74.3115
 11
200.893
 21
74.533
  0
LINE
  8
0
 10
200.893
 20
74.533
 11
201.223
 21
74.7145
  0
LINE
  8
0
 10
201.223
 20
74.7145
 11
201.573
 21
74.8532
  0
LINE
  8
0
 10
201.573
 20
74.8532
 11
201.938
 21
74.9469
  0
LINE
  8
0
 10
201.938
 20
74.9469
 11
202.312
 21
74.9941
  0
LINE
  8
0
 10
202.312
 20
74.9941
 11
202.688
 21
74.9941
  0
LINE
  8
0
 10
202.688
 20
74.9941
 11
203.062
 21
74.9469
  0
LINE
  8
0
 10
203.062
 20
74.9469
 11
203.427
 21
74.8532
  0
LINE
  8
0
 10
203.427
 20
74.8532
 11
203.777
 21
74.7145
  0
LINE
  8
0
 10
203.777
 20
74.7145
 11
204.107
 21
74.533
  0
LINE
  8
0
 10
204.107
 20
74.533
 11
204.412
 21
74.3115
  0
LINE
  8
0
 10
204.412
 20
74.3115
 11
204.687
 21
74.0536
  0
LINE
  8
0
 10
204.687
 20
74.0536
 11
204.927
 21
73.7634
  0
LINE
  8
0
 10
204.927
 20
73.7634
 11
205.129
 21
73.4453
  0
LINE
  8
0
 10
205.129
 20
73.4453
 11
205.289
 21
73.1044
  0
LINE
  8
0
 10
205.289
 20
73.1044
 11
205.406
 21
72.7461
  0
LINE
  8
0
 10
205.406
 20
72.7461
 11
205.476
 21
72.376
  0
LINE
  8
0
 10
205.476
 20
72.376
 11
205.5
 21
72
  0
LINE
  8
0
 10
205.5
 20
72
 11
205.476
 21
71.624
  0
LINE
  8
0
 10
205.476
 20
71.624
 11
205.406
 21
71.2539
  0
LINE
  8
0
 10
205.406
 20
71.2539
 11
205.289
 21
70.8956
  0
LINE
  8
0
 10
205.289
 20
70.8956
 11
205.129
 21
70.5547
  0
LINE
  8
0
 10
205.129
 20
70.5547
 11
204.927
 21
70.2366
  0
LINE
  8
0
 10
204.927
 20
70.2366
 11
204.687
 21
69.9464
  0
LINE
  8
0
 10
204.687
 20
69.9464
 11
204.412
 21
69.6885
  0
LINE
  8
0
 10
204.412
 20
69.6885
 11
204.107
 21
69.467
  0
LINE
  8
0
 10
204.107
 20
69.467
 11
203.777
 21
69.2855
  0
LINE
  8
0
 10
203.777
 20
69.2855
 11
203.427
 21
69.1468
  0
LINE
  8
0
 10
203.427
 20
69.1468
 11
203.062
 21
69.0531
  0
LINE
  8
0
 10
203.062
 20
69.0531
 11
202.688
 21
69.0059
  0
LINE
  8
0
 10
202.688
 20
69.0059
 11
202.312
 21
69.0059
  0
LINE
  8
0
 10
-202.688
 20
69.0059
 11
-203.062
 21
69.0531
  0
LINE
  8
0
 10
-203.062
 20
69.0531
 11
-203.427
 21
69.1468
  0
LINE
  8
0
 10
-203.427
 20
69.1468
 11
-203.777
 21
69.2855
  0
LINE
  8
0
 10
-203.777
 20
69.2855
 11
-204.107
 21
69.467
  0
LINE
  8
0
 10
-204.107
 20
69.467
 11
-204.412
 21
69.6885
  0
LINE
  8
0
 10
-204.412
 20
69.6885
 11
-204.687
 21
69.9464
  0
LINE
  8
0
 10
-204.687
 20
69.9464
 11
-204.927
 21
70.2366
  0
LINE
  8
0
 10
-204.927
 20
70.2366
 11
-205.129
 21
70.5547
  0
LINE
  8
0
 10
-205.129
 20
70.5547
 11
-205.289
 21
70.8956
  0
LINE
  8
0
 10
-205.289
 20
70.8956
 11
-205.406
 21
71.2539
  0
LINE
  8
0
 10
-205.406
 20
71.2539
 11
-205.476
 21
71.624
  0
LINE
  8
0
 10
-205.476
 20
71.624
 11
-205.5
 21
72
  0
LINE
  8
0
 10
-205.5
 20
72
 11
-205.476
 21
72.376
  0
LINE
  8
0
 10
-205.476
 20
72.376
 11
-205.406
 21
72.7461
  0
LINE
  8
0
 10
-205.406
 20
72.7461
 11
-205.289
 21
73.1044
  0
LINE
  8
0
 10
-205.289
 20
73.1044
 11
-205.129
 21
73.4453
  0
LINE
  8
0
 10
-205.129
 20
73.4453
 11
-204.927
 21
73.7634
  0
LINE
  8
0
 10
-204.927
 20
73.7634
 11
-204.687
 21
74.0536
  0
LINE
  8
0
 10
-204.687
 20
74.0536
 11
-204.412
 21
74.3115
  0
LINE
  8
0
 10
-204.412
 20
74.3115
 11
-204.107
 21
74.533
  0
LINE
  8
0
 10
-204.107
 20
74.533
 11
-203.777
 21
74.7145
  0
LINE
  8
0
 10
-203.777
 20
74.7145
 11
-203.427
 21
74.8532
  0
LINE
  8
0
 10
-203.427
 20
74.8532
 11
-203.062
 21
74.9469
  0
LINE
  8
0
 10
-203.062
 20
74.9469
 11
-202.688
 21
74.9941
  0
LINE
  8
0
 10
-202.688
 20
74.9941
 11
-202.312
 21
74.9941
  0
LINE
  8
0
 10
-202.312
 20
74.9941
 11
-201.938
 21
74.9469
  0
LINE
  8
0
 10
-201.938
 20
74.9469
 11
-201.573
 21
74.8532
  0
LINE
  8
0
 10
-201.573
 20
74.8532
 11
-201.223
 21
74.7145
  0
LINE
  8
0
 10
-201.223
 20
74.7145
 11
-200.893
 21
74.533
  0
LINE
  8
0
 10
-200.893
 20
74.533
 11
-200.588
 21
74.3115
  0
LINE
  8
0
 10
-200.588
 20
74.3115
 11
-200.313
 21
74.0536
  0
LINE
  8
0
 10
-200.313
 20
74.0536
 11
-200.073
 21
73.7634
  0
LINE
  8
0
 10
-200.073
 20
73.7634
 11
-199.871
 21
73.4453
  0
LINE
  8
0
 10
-199.871
 20
73.4453
 11
-199.711
 21
73.1044
  0
LINE
  8
0
 10
-199.711
 20
73.1044
 11
-199.594
 21
72.7461
  0
LINE
  8
0
 10
-199.594
 20
72.7461
 11
-199.524
 21
72.376
  0
LINE
  8
0
 10
-199.524
 20
72.376
 11
-199.5
 21
72
  0
LINE
  8
0
 10
-199.5
 20
72
 11
-199.524
 21
71.624
  0
LINE
  8
0
 10
-199.524
 20
71.624
 11
-199.594
 21
71.2539
  0
LINE
  8
0
 10
-199.594
 20
71.2539
 11
-199.711
 21
70.8956
  0
LINE
  8
0
 10
-199.711
 20
70.8956
 11
-199.871
 21
70.5547
  0
LINE
  8
0
 10
-199.871
 20
70.5547
 11
-200.073
 21
70.2366
  0
LINE
  8
0
 10
-200.073
 20
70.2366
 11
-200.313
 21
69.9464
  0
LINE
  8
0
 10
-200.313
 20
69.9464
 11
-200.588
 21
69.6885
  0
LINE
  8
0
 10
-200.588
 20
69.6885
 11
-200.893
 21
69.467
  0
LINE
  8
0
 10
-200.893
 20
69.467
 11
-201.223
 21
69.2855
  0
LINE
  8
0
 10
-201.223
 20
69.2855
 11
-201.573
 21
69.1468
  0
LINE
  8
0
 10
-201.573
 20
69.1468
 11
-201.938
 21
69.0531
  0
LINE
  8
0
 10
-201.938
 20
69.0531
 11
-202.312
 21
69.0059
  0
LINE
  8
0
 10
-202.312
 20
69.0059
 11
-202.688
 21
69.0059
  0
LINE
  8
0
 10
205.437
 20
41.0886
 11
206.045
 21
41.2447
  0
LINE
  8
0
 10
206.045
 20
41.2447
 11
206.629
 21
41.4759
  0
LINE
  8
0
 10
206.629
 20
41.4759
 11
207.179
 21
41.7784
  0
LINE
  8
0
 10
207.179
 20
41.7784
 11
207.687
 21
42.1474
  0
LINE
  8
0
 10
207.687
 20
42.1474
 11
208.145
 21
42.5773
  0
LINE
  8
0
 10
208.145
 20
42.5773
 11
208.545
 21
43.0611
  0
LINE
  8
0
 10
208.545
 20
43.0611
 11
208.882
 21
43.5912
  0
LINE
  8
0
 10
208.882
 20
43.5912
 11
209.149
 21
44.1594
  0
LINE
  8
0
 10
209.149
 20
44.1594
 11
209.343
 21
44.7566
  0
LINE
  8
0
 10
209.343
 20
44.7566
 11
209.461
 21
45.3733
  0
LINE
  8
0
 10
209.461
 20
45.3733
 11
209.5
 21
46
  0
LINE
  8
0
 10
209.5
 20
46
 11
209.5
 21
50
  0
LINE
  8
0
 10
209.5
 20
50
 11
209.461
 21
50.6267
  0
LINE
  8
0
 10
209.461
 20
50.6267
 11
209.343
 21
51.2434
  0
LINE
  8
0
 10
209.343
 20
51.2434
 11
209.149
 21
51.8406
  0
LINE
  8
0
 10
209.149
 20
51.8406
 11
208.882
 21
52.4088
  0
LINE
  8
0
 10
208.882
 20
52.4088
 11
208.545
 21
52.9389
  0
LINE
  8
0
 10
208.545
 20
52.9389
 11
208.145
 21
53.4227
  0
LINE
  8
0
 10
208.145
 20
53.4227
 11
207.687
 21
53.8526
  0
LINE
  8
0
 10
207.687
 20
53.8526
 11
207.179
 21
54.2216
  0
LINE
  8
0
 10
207.179
 20
54.2216
 11
206.629
 21
54.5241
  0
LINE
  8
0
 10
206.629
 20
54.5241
 11
206.045
 21
54.7553
  0
LINE
  8
0
 10
206.045
 20
54.7553
 11
205.437
 21
54.9114
  0
LINE
  8
0
 10
205.437
 20
54.9114
 11
204.814
 21
54.9901
  0
LINE
  8
0
 10
204.814
 20
54.9901
 11
-204.814
 21
54.9901
  0
LINE
  8
0
 10
-204.814
 20
54.9901
 11
-205.437
 21
54.9114
  0
LINE
  8
0
 10
-205.437
 20
54.9114
 11
-206.045
 21
54.7553
  0
LINE
  8
0
 10
-206.045
 20
54.7553
 11
-206.629
 21
54.5241
  0
LINE
  8
0
 10
-206.629
 20
54.5241
 11
-207.179
 21
54.2216
  0
LINE
  8
0
 10
-207.179
 20
54.2216
 11
-207.687
 21
53.8526
  0
LINE
  8
0
 10
-207.687
 20
53.8526
 11
-208.145
 21
53.4227
  0
LINE
  8
0
 10
-208.145
 20
53.4227
 11
-208.545
 21
52.9389
  0
LINE
  8
0
 10
-208.545
 20
52.9389
 11
-208.882
 21
52.4088
  0
LINE
  8
0
 10
-208.882
 20
52.4088
 11
-209.149
 21
51.8406
  0
LINE
  8
0
 10
-209.149
 20
51.8406
 11
-209.343
 21
51.2434
  0
LINE
  8
0
 10
-209.343
 20
51.2434
 11
-209.461
 21
50.6267
  0
LINE
  8
0
 10
-209.461
 20
50.6267
 11
-209.5
 21
50
  0
LINE
  8
0
 10
-209.5
 20
50
 11
-209.5
 21
46
  0
LINE
  8
0
 10
-209.5
 20
46
 11
-209.461
 21
45.3733
  0
LINE
  8
0
 10
-209.461
 20
45.3733
 11
-209.343
 21
44.7566
  0
LINE
  8
0
 10
-209.343
 20
44.7566
 11
-209.149
 21
44.1594
  0
LINE
  8
0
 10
-209.149
 20
44.1594
 11
-208.882
 21
43.5912
  0
LINE
  8
0
 10
-208.882
 20
43.5912
 11
-208.545
 21
43.0611
  0
LINE
  8
0
 10
-208.545
 20
43.0611
 11
-208.145
 21
42.5773
  0
LINE
  8
0
 10
-208.145
 20
42.5773
 11
-207.687
 21
42.1474
  0
LINE
  8
0
 10
-207.687
 20
42.1474
 11
-207.179
 21
41.7784
  0
LINE
  8
0
 10
-207.179
 20
41.7784
 11
-206.629
 21
41.4759
  0
LINE
  8
0
 10
-206.629
 20
41.4759
 11
-206.045
 21
41.2447
  0
LINE
  8
0
 10
-206.045
 20
41.2447
 11
-205.437
 21
41.0886
  0
LINE
  8
0
 10
-205.437
 20
41.0886
 11
-204.814
 21
41.0099
  0
LINE
  8
0
 10
-204.814
 20
41.0099
 11
204.814
 21
41.0099
  0
LINE
  8
0
 10
204.814
 20
41.0099
 11
205.437
 21
41.0886
  0
LINE
  8
0
 10
202.312
 20
45.0059
 11
201.938
 21
45.0531
  0
LINE
  8
0
 10
201.938
 20
45.0531
 11
201.573
 21
45.1468
  0
LINE
  8
0
 10
201.573
 20
45.1468
 11
201.223
 21
45.2855
  0
LINE
  8
0
 10
201.223
 20
45.2855
 11
200.893
 21
45.467
  0
LINE
  8
0
 10
200.893
 20
45.467
 11
200.588
 21
45.6885
  0
LINE
  8
0
 10
200.588
 20
45.6885
 11
200.313
 21
45.9464
  0
LINE
  8
0
 10
200.313
 20
45.9464
 11
200.073
 21
46.2366
  0
LINE
  8
0
 10
200.073
 20
46.2366
 11
199.871
 21
46.5547
  0
LINE
  8
0
 10
199.871
 20
46.5547
 11
199.711
 21
46.8956
  0
LINE
  8
0
 10
199.711
 20
46.8956
 11
199.594
 21
47.2539
  0
LINE
  8
0
 10
199.594
 20
47.2539
 11
199.524
 21
47.624
  0
LINE
  8
0
 10
199.524
 20
47.624
 11
199.5
 21
48
  0
LINE
  8
0
 10
199.5
 20
48
 11
199.524
 21
48.376
  0
LINE
  8
0
 10
199.524
 20
48.376
 11
199.594
 21
48.7461
  0
LINE
  8
0
 10
199.594
 20
48.7461
 11
199.711
 21
49.1044
  0
LINE
  8
0
 10
199.711
 20
49.1044
 11
199.871
 21
49.4453
  0
LINE
  8
0
 10
199.871
 20
49.4453
 11
200.073
 21
49.7634
  0
LINE
  8
0
 10
200.073
 20
49.7634
 11
200.313
 21
50.0536
  0
LINE
  8
0
 10
200.313
 20
50.0536
 11
200.588
 21
50.3115
  0
LINE
  8
0
 10
200.588
 20
50.3115
 11
200.893
 21
50.533
  0
LINE
  8
0
 10
200.893
 20
50.533
 11
201.223
 21
50.7145
  0
LINE
  8
0
 10
201.223
 20
50.7145
 11
201.573
 21
50.8532
  0
LINE
  8
0
 10
201.573
 20
50.8532
 11
201.938
 21
50.9469
  0
LINE
  8
0
 10
201.938
 20
50.9469
 11
202.312
 21
50.9941
  0
LINE
  8
0
 10
202.312
 20
50.9941
 11
202.688
 21
50.9941
  0
LINE
  8
0
 10
202.688
 20
50.9941
 11
203.062
 21
50.9469
  0
LINE
  8
0
 10
203.062
 20
50.9469
 11
203.427
 21
50.8532
  0
LINE
  8
0
 10
203.427
 20
50.8532
 11
203.777
 21
50.7145
  0
LINE
  8
0
 10
203.777
 20
50.7145
 11
204.107
 21
50.533
  0
LINE
  8
0
 10
204.107
 20
50.533
 11
204.412
 21
50.3115
  0
LINE
  8
0
 10
204.412
 20
50.3115
 11
204.687
 21
50.0536
  0
LINE
  8
0
 10
204.687
 20
50.0536
 11
204.927
 21
49.7634
  0
LINE
  8
0
 10
204.927
 20
49.7634
 11
205.129
 21
49.4453
  0
LINE
  8
0
 10
205.129
 20
49.4453
 11
205.289
 21
49.1044
  0
LINE
  8
0
 10
205.289
 20
49.1044
 11
205.406
 21
48.7461
  0
LINE
  8
0
 10
205.406
 20
48.7461
 11
205.476
 21
48.376
  0
LINE
  8
0
 10
205.476
 20
48.376
 11
205.5
 21
48
  0
LINE
  8
0
 10
205.5
 20
48
 11
205.476
 21
47.624
  0
LINE
  8
0
 10
205.476
 20
47.624
 11
205.406
 21
47.2539
  0
LINE
  8
0
 10
205.406
 20
47.2539
 11
205.289
 21
46.8956
  0
LINE
  8
0
 10
205.289
 20
46.8956
 11
205.129
 21
46.5547
  0
LINE
  8
0
 10
205.129
 20
46.5547
 11
204.927
 21
46.2366
  0
LINE
  8
0
 10
204.927
 20
46.2366
 11
204.687
 21
45.9464
  0
LINE
  8
0
 10
204.687
 20
45.9464
 11
204.412
 21
45.6885
  0
LINE
  8
0
 10
204.412
 20
45.6885
 11
204.107
 21
45.467
  0
LINE
  8
0
 10
204.107
 20
45.467
 11
203.777
 21
45.2855
  0
LINE
  8
0
 10
203.777
 20
45.2855
 11
203.427
 21
45.1468
  0
LINE
  8
0
 10
203.427
 20
45.1468
 11
203.062
 21
45.0531
  0
LINE
  8
0
 10
203.062
 20
45.0531
 11
202.688
 21
45.0059
  0
LINE
  8
0
 10
202.688
 20
45.0059
 11
202.312
 21
45.0059
  0
LINE
  8
0
 10
-202.688
 20
45.0059
 11
-203.062
 21
45.0531
  0
LINE
  8
0
 10
-203.062
 20
45.0531
 11
-203.427
 21
45.1468
  0
LINE
  8
0
 10
-203.427
 20
45.1468
 11
-203.777
 21
45.2855
  0
LINE
  8
0
 10
-203.777
 20
45.2855
 11
-204.107
 21
45.467
  0
LINE
  8
0
 10
-204.107
 20
45.467
 11
-204.412
 21
45.6885
  0
LINE
  8
0
 10
-204.412
 20
45.6885
 11
-204.687
 21
45.9464
  0
LINE
  8
0
 10
-204.687
 20
45.9464
 11
-204.927
 21
46.2366
  0
LINE
  8
0
 10
-204.927
 20
46.2366
 11
-205.129
 21
46.5547
  0
LINE
  8
0
 10
-205.129
 20
46.5547
 11
-205.289
 21
46.8956
  0
LINE
  8
0
 10
-205.289
 20
46.8956
 11
-205.406
 21
47.2539
  0
LINE
  8
0
 10
-205.406
 20
47.2539
 11
-205.476
 21
47.624
  0
LINE
  8
0
 10
-205.476
 20
47.624
 11
-205.5
 21
48
  0
LINE
  8
0
 10
-205.5
 20
48
 11
-205.476
 21
48.376
  0
LINE
  8
0
 10
-205.476
 20
48.376
 11
-205.406
 21
48.7461
  0
LINE
  8
0
 10
-205.406
 20
48.7461
 11
-205.289
 21
49.1044
  0
LINE
  8
0
 10
-205.289
 20
49.1044
 11
-205.129
 21
49.4453
  0
LINE
  8
0
 10
-205.129
 20
49.4453
 11
-204.927
 21
49.7634
  0
LINE
  8
0
 10
-204.927
 20
49.7634
 11
-204.687
 21
50.0536
  0
LINE
  8
0
 10
-204.687
 20
50.0536
 11
-204.412
 21
50.3115
  0
LINE
  8
0
 10
-204.412
 20
50.3115
 11
-204.107
 21
50.533
  0
LINE
  8
0
 10
-204.107
 20
50.533
 11
-203.777
 21
50.7145
  0
LINE
  8
0
 10
-203.777
 20
50.7145
 11
-203.427
 21
50.8532
  0
LINE
  8
0
 10
-203.427
 20
50.8532
 11
-203.062
 21
50.9469
  0
LINE
  8
0
 10
-203.062
 20
50.9469
 11
-202.688
 21
50.9941
  0
LINE
  8
0
 10
-202.688
 20
50.9941
 11
-202.312
 21
50.9941
  0
LINE
  8
0
 10
-202.312
 20
50.9941
 11
-201.938
 21
50.9469
  0
LINE
  8
0
 10
-201.938
 20
50.9469
 11
-201.573
 21
50.8532
  0
LINE
  8
0
 10
-201.573
 20
50.8532
 11
-201.223
 21
50.7145
  0
LINE
  8
0
 10
-201.223
 20
50.7145
 11
-200.893
 21
50.533
  0
LINE
  8
0
 10
-200.893
 20
50.533
 11
-200.588
 21
50.3115
  0
LINE
  8
0
 10
-200.588
 20
50.3115
 11
-200.313
 21
50.0536
  0
LINE
  8
0
 10
-200.313
 20
50.0536
 11
-200.073
 21
49.7634
  0
LINE
  8
0
 10
-200.073
 20
49.7634
 11
-199.871
 21
49.4453
  0
LINE
  8
0
 10
-199.871
 20
49.4453
 11
-199.711
 21
49.1044
  0
LINE
  8
0
 10
-199.711
 20
49.1044
 11
-199.594
 21
48.7461
  0
LINE
  8
0
 10
-199.594
 20
48.7461
 11
-199.524
 21
48.376
  0
LINE
  8
0
 10
-199.524
 20
48.376
 11
-199.5
 21
48
  0
LINE
  8
0
 10
-199.5
 20
48
 11
-199.524
 21
47.624
  0
LINE
  8
0
 10
-199.524
 20
47.624
 11
-199.594
 21
47.2539
  0
LINE
  8
0
 10
-199.594
 20
47.2539
 11
-199.711
 21
46.8956
  0
LINE
  8
0
 10
-199.711
 20
46.8956
 11
-199.871
 21
46.5547
  0
LINE
  8
0
 10
-199.871
 20
46.5547
 11
-200.073
 21
46.2366
  0
LINE
  8
0
 10
-200.073
 20
46.2366
 11
-200.313
 21
45.9464
  0
LINE
  8
0
 10
-200.313
 20
45.9464
 11
-200.588
 21
45.6885
  0
LINE
  8
0
 10
-200.588
 20
45.6885
 11
-200.893
 21
45.467
  0
LINE
  8
0
 10
-200.893
 20
45.467
 11
-201.223
 21
45.2855
  0
LINE
  8
0
 10
-201.223
 20
45.2855
 11
-201.573
 21
45.1468
  0
LINE
  8
0
 10
-201.573
 20
45.1468
 11
-201.938
 21
45.0531
  0
LINE
  8
0
 10
-201.938
 20
45.0531
 11
-202.312
 21
45.0059
  0
LINE
  8
0
 10
-202.312
 20
45.0059
 11
-202.688
 21
45.0059
  0
ENDSEC
  0
SECTION
  2
OBJECTS
  0
DICTIONARY
  0
ENDSEC
  0
EOF
