<?xml version="1.0" standalone="no"?>
<!DOCTYPE svg PUBLIC "-//W3C//DTD SVG 1.1//EN" "http://www.w3.org/Graphics/SVG/1.1/DTD/svg11.dtd">
<svg width="74mm" height="98mm" viewBox="-37 -184 74 98" xmlns="http://www.w3.org/2000/svg" version="1.1">
<title>OpenSCAD Model</title>
<path d="
M 32.9369,-140.089 L 33.5451,-140.245 L 34.1289,-140.476 L 34.6791,-140.778 L 35.1871,-141.147 L 35.6448,-141.577
 L 36.0451,-142.061 L 36.3815,-142.591 L 36.6489,-143.159 L 36.8429,-143.757 L 36.9606,-144.373 L 37,-145
 L 37,-179 L 36.9606,-179.627 L 36.8429,-180.243 L 36.6489,-180.841 L 36.3815,-181.409 L 36.0451,-181.939
 L 35.6448,-182.423 L 35.1871,-182.853 L 34.6791,-183.222 L 34.1289,-183.524 L 33.5451,-183.755 L 32.9369,-183.911
 L 32.3139,-183.99 L -32.3139,-183.99 L -32.9369,-183.911 L -33.5451,-183.755 L -34.1289,-183.524 L -34.6791,-183.222
 L -35.1871,-182.853 L -35.6448,-182.423 L -36.0451,-181.939 L -36.3815,-181.409 L -36.6489,-180.841 L -36.8429,-180.243
 L -36.9606,-179.627 L -37,-179 L -37,-145 L -36.9606,-144.373 L -36.8429,-143.757 L -36.6489,-143.159
 L -36.3815,-142.591 L -36.0451,-142.061 L -35.6448,-141.577 L -35.1871,-141.147 L -34.6791,-140.778 L -34.1289,-140.476
 L -33.5451,-140.245 L -32.9369,-140.089 L -32.3139,-140.01 L 32.3139,-140.01 z
M -30.1884,-174.006 L -30.5621,-174.053 L -30.927,-174.147 L -31.2773,-174.286 L -31.6075,-174.467 L -31.9123,-174.688
 L -32.1869,-174.946 L -32.427,-175.237 L -32.6289,-175.555 L -32.7893,-175.896 L -32.9057,-176.254 L -32.9763,-176.624
 L -33,-177 L -32.9763,-177.376 L -32.9057,-177.746 L -32.7893,-178.104 L -32.6289,-178.445 L -32.427,-178.763
 L -32.1869,-179.054 L -31.9123,-179.312 L -31.6075,-179.533 L -31.2773,-179.714 L -30.927,-179.853 L -30.5621,-179.947
 L -30.1884,-179.994 L -29.8116,-179.994 L -29.4379,-179.947 L -29.0729,-179.853 L -28.7227,-179.714 L -28.3925,-179.533
 L -28.0877,-179.312 L -27.8131,-179.054 L -27.5729,-178.763 L -27.3711,-178.445 L -27.2107,-178.104 L -27.0942,-177.746
 L -27.0237,-177.376 L -27,-177 L -27.0237,-176.624 L -27.0942,-176.254 L -27.2107,-175.896 L -27.3711,-175.555
 L -27.5729,-175.237 L -27.8131,-174.946 L -28.0877,-174.688 L -28.3925,-174.467 L -28.7227,-174.286 L -29.0729,-174.147
 L -29.4379,-174.053 L -29.8116,-174.006 z
M 14.8116,-174.006 L 14.4379,-174.053 L 14.0729,-174.147 L 13.7227,-174.286 L 13.3925,-174.467 L 13.0877,-174.688
 L 12.8131,-174.946 L 12.5729,-175.237 L 12.3711,-175.555 L 12.2107,-175.896 L 12.0942,-176.254 L 12.0237,-176.624
 L 12,-177 L 12.0237,-177.376 L 12.0942,-177.746 L 12.2107,-178.104 L 12.3711,-178.445 L 12.5729,-178.763
 L 12.8131,-179.054 L 13.0877,-179.312 L 13.3925,-179.533 L 13.7227,-179.714 L 14.0729,-179.853 L 14.4379,-179.947
 L 14.8116,-179.994 L 15.1884,-179.994 L 15.5621,-179.947 L 15.927,-179.853 L 16.2773,-179.714 L 16.6075,-179.533
 L 16.9123,-179.312 L 17.1869,-179.054 L 17.427,-178.763 L 17.6289,-178.445 L 17.7893,-178.104 L 17.9057,-177.746
 L 17.9763,-177.376 L 18,-177 L 17.9763,-176.624 L 17.9057,-176.254 L 17.7893,-175.896 L 17.6289,-175.555
 L 17.427,-175.237 L 17.1869,-174.946 L 16.9123,-174.688 L 16.6075,-174.467 L 16.2773,-174.286 L 15.927,-174.147
 L 15.5621,-174.053 L 15.1884,-174.006 z
M -15.1884,-174.006 L -15.5621,-174.053 L -15.927,-174.147 L -16.2773,-174.286 L -16.6075,-174.467 L -16.9123,-174.688
 L -17.1869,-174.946 L -17.427,-175.237 L -17.6289,-175.555 L -17.7893,-175.896 L -17.9057,-176.254 L -17.9763,-176.624
 L -18,-177 L -17.9763,-177.376 L -17.9057,-177.746 L -17.7893,-178.104 L -17.6289,-178.445 L -17.427,-178.763
 L -17.1869,-179.054 L -16.9123,-179.312 L -16.6075,-179.533 L -16.2773,-179.714 L -15.927,-179.853 L -15.5621,-179.947
 L -15.1884,-179.994 L -14.8116,-179.994 L -14.4379,-179.947 L -14.0729,-179.853 L -13.7227,-179.714 L -13.3925,-179.533
 L -13.0877,-179.312 L -12.8131,-179.054 L -12.5729,-178.763 L -12.3711,-178.445 L -12.2107,-178.104 L -12.0942,-177.746
 L -12.0237,-177.376 L -12,-177 L -12.0237,-176.624 L -12.0942,-176.254 L -12.2107,-175.896 L -12.3711,-175.555
 L -12.5729,-175.237 L -12.8131,-174.946 L -13.0877,-174.688 L -13.3925,-174.467 L -13.7227,-174.286 L -14.0729,-174.147
 L -14.4379,-174.053 L -14.8116,-174.006 z
M 29.8116,-174.006 L 29.4379,-174.053 L 29.0729,-174.147 L 28.7227,-174.286 L 28.3925,-174.467 L 28.0877,-174.688
 L 27.8131,-174.946 L 27.5729,-175.237 L 27.3711,-175.555 L 27.2107,-175.896 L 27.0942,-176.254 L 27.0237,-176.624
 L 27,-177 L 27.0237,-177.376 L 27.0942,-177.746 L 27.2107,-178.104 L 27.3711,-178.445 L 27.5729,-178.763
 L 27.8131,-179.054 L 28.0877,-179.312 L 28.3925,-179.533 L 28.7227,-179.714 L 29.0729,-179.853 L 29.4379,-179.947
 L 29.8116,-179.994 L 30.1884,-179.994 L 30.5621,-179.947 L 30.927,-179.853 L 31.2773,-179.714 L 31.6075,-179.533
 L 31.9123,-179.312 L 32.1869,-179.054 L 32.427,-178.763 L 32.6289,-178.445 L 32.7893,-178.104 L 32.9057,-177.746
 L 32.9763,-177.376 L 33,-177 L 32.9763,-176.624 L 32.9057,-176.254 L 32.7893,-175.896 L 32.6289,-175.555
 L 32.427,-175.237 L 32.1869,-174.946 L 31.9123,-174.688 L 31.6075,-174.467 L 31.2773,-174.286 L 30.927,-174.147
 L 30.5621,-174.053 L 30.1884,-174.006 z
M -0.18837,-174.006 L -0.562134,-174.053 L -0.927048,-174.147 L -1.27733,-174.286 L -1.60747,-174.467 L -1.91226,-174.688
 L -2.1869,-174.946 L -2.42705,-175.237 L -2.62891,-175.555 L -2.78932,-175.896 L -2.90575,-176.254 L -2.97633,-176.624
 L -3,-177 L -2.97633,-177.376 L -2.90575,-177.746 L -2.78932,-178.104 L -2.62891,-178.445 L -2.42705,-178.763
 L -2.1869,-179.054 L -1.91226,-179.312 L -1.60747,-179.533 L -1.27733,-179.714 L -0.927048,-179.853 L -0.562134,-179.947
 L -0.18837,-179.994 L 0.18837,-179.994 L 0.562134,-179.947 L 0.927048,-179.853 L 1.27733,-179.714 L 1.60747,-179.533
 L 1.91226,-179.312 L 2.1869,-179.054 L 2.42705,-178.763 L 2.62891,-178.445 L 2.78932,-178.104 L 2.90575,-177.746
 L 2.97633,-177.376 L 3,-177 L 2.97633,-176.624 L 2.90575,-176.254 L 2.78932,-175.896 L 2.62891,-175.555
 L 2.42705,-175.237 L 2.1869,-174.946 L 1.91226,-174.688 L 1.60747,-174.467 L 1.27733,-174.286 L 0.927048,-174.147
 L 0.562134,-174.053 L 0.18837,-174.006 z
M -30.1884,-159.006 L -30.5621,-159.053 L -30.927,-159.147 L -31.2773,-159.286 L -31.6075,-159.467 L -31.9123,-159.688
 L -32.1869,-159.946 L -32.427,-160.237 L -32.6289,-160.555 L -32.7893,-160.896 L -32.9057,-161.254 L -32.9763,-161.624
 L -33,-162 L -32.9763,-162.376 L -32.9057,-162.746 L -32.7893,-163.104 L -32.6289,-163.445 L -32.427,-163.763
 L -32.1869,-164.054 L -31.9123,-164.312 L -31.6075,-164.533 L -31.2773,-164.714 L -30.927,-164.853 L -30.5621,-164.947
 L -30.1884,-164.994 L -29.8116,-164.994 L -29.4379,-164.947 L -29.0729,-164.853 L -28.7227,-164.714 L -28.3925,-164.533
 L -28.0877,-164.312 L -27.8131,-164.054 L -27.5729,-163.763 L -27.3711,-163.445 L -27.2107,-163.104 L -27.0942,-162.746
 L -27.0237,-162.376 L -27,-162 L -27.0237,-161.624 L -27.0942,-161.254 L -27.2107,-160.896 L -27.3711,-160.555
 L -27.5729,-160.237 L -27.8131,-159.946 L -28.0877,-159.688 L -28.3925,-159.467 L -28.7227,-159.286 L -29.0729,-159.147
 L -29.4379,-159.053 L -29.8116,-159.006 z
M 29.8116,-159.006 L 29.4379,-159.053 L 29.0729,-159.147 L 28.7227,-159.286 L 28.3925,-159.467 L 28.0877,-159.688
 L 27.8131,-159.946 L 27.5729,-160.237 L 27.3711,-160.555 L 27.2107,-160.896 L 27.0942,-161.254 L 27.0237,-161.624
 L 27,-162 L 27.0237,-162.376 L 27.0942,-162.746 L 27.2107,-163.104 L 27.3711,-163.445 L 27.5729,-163.763
 L 27.8131,-164.054 L 28.0877,-164.312 L 28.3925,-164.533 L 28.7227,-164.714 L 29.0729,-164.853 L 29.4379,-164.947
 L 29.8116,-164.994 L 30.1884,-164.994 L 30.5621,-164.947 L 30.927,-164.853 L 31.2773,-164.714 L 31.6075,-164.533
 L 31.9123,-164.312 L 32.1869,-164.054 L 32.427,-163.763 L 32.6289,-163.445 L 32.7893,-163.104 L 32.9057,-162.746
 L 32.9763,-162.376 L 33,-162 L 32.9763,-161.624 L 32.9057,-161.254 L 32.7893,-160.896 L 32.6289,-160.555
 L 32.427,-160.237 L 32.1869,-159.946 L 31.9123,-159.688 L 31.6075,-159.467 L 31.2773,-159.286 L 30.927,-159.147
 L 30.5621,-159.053 L 30.1884,-159.006 z
M -0.18837,-159.006 L -0.562134,-159.053 L -0.927048,-159.147 L -1.27733,-159.286 L -1.60747,-159.467 L -1.91226,-159.688
 L -2.1869,-159.946 L -2.42705,-160.237 L -2.62891,-160.555 L -2.78932,-160.896 L -2.90575,-161.254 L -2.97633,-161.624
 L -3,-162 L -2.97633,-162.376 L -2.90575,-162.746 L -2.78932,-163.104 L -2.62891,-163.445 L -2.42705,-163.763
 L -2.1869,-164.054 L -1.91226,-164.312 L -1.60747,-164.533 L -1.27733,-164.714 L -0.927048,-164.853 L -0.562134,-164.947
 L -0.18837,-164.994 L 0.18837,-164.994 L 0.562134,-164.947 L 0.927048,-164.853 L 1.27733,-164.714 L 1.60747,-164.533
 L 1.91226,-164.312 L 2.1869,-164.054 L 2.42705,-163.763 L 2.62891,-163.445 L 2.78932,-163.104 L 2.90575,-162.746
 L 2.97633,-162.376 L 3,-162 L 2.97633,-161.624 L 2.90575,-161.254 L 2.78932,-160.896 L 2.62891,-160.555
 L 2.42705,-160.237 L 2.1869,-159.946 L 1.91226,-159.688 L 1.60747,-159.467 L 1.27733,-159.286 L 0.927048,-159.147
 L 0.562134,-159.053 L 0.18837,-159.006 z
M 14.8116,-159.006 L 14.4379,-159.053 L 14.0729,-159.147 L 13.7227,-159.286 L 13.3925,-159.467 L 13.0877,-159.688
 L 12.8131,-159.946 L 12.5729,-160.237 L 12.3711,-160.555 L 12.2107,-160.896 L 12.0942,-161.254 L 12.0237,-161.624
 L 12,-162 L 12.0237,-162.376 L 12.0942,-162.746 L 12.2107,-163.104 L 12.3711,-163.445 L 12.5729,-163.763
 L 12.8131,-164.054 L 13.0877,-164.312 L 13.3925,-164.533 L 13.7227,-164.714 L 14.0729,-164.853 L 14.4379,-164.947
 L 14.8116,-164.994 L 15.1884,-164.994 L 15.5621,-164.947 L 15.927,-164.853 L 16.2773,-164.714 L 16.6075,-164.533
 L 16.9123,-164.312 L 17.1869,-164.054 L 17.427,-163.763 L 17.6289,-163.445 L 17.7893,-163.104 L 17.9057,-162.746
 L 17.9763,-162.376 L 18,-162 L 17.9763,-161.624 L 17.9057,-161.254 L 17.7893,-160.896 L 17.6289,-160.555
 L 17.427,-160.237 L 17.1869,-159.946 L 16.9123,-159.688 L 16.6075,-159.467 L 16.2773,-159.286 L 15.927,-159.147
 L 15.5621,-159.053 L 15.1884,-159.006 z
M -15.1884,-159.006 L -15.5621,-159.053 L -15.927,-159.147 L -16.2773,-159.286 L -16.6075,-159.467 L -16.9123,-159.688
 L -17.1869,-159.946 L -17.427,-160.237 L -17.6289,-160.555 L -17.7893,-160.896 L -17.9057,-161.254 L -17.9763,-161.624
 L -18,-162 L -17.9763,-162.376 L -17.9057,-162.746 L -17.7893,-163.104 L -17.6289,-163.445 L -17.427,-163.763
 L -17.1869,-164.054 L -16.9123,-164.312 L -16.6075,-164.533 L -16.2773,-164.714 L -15.927,-164.853 L -15.5621,-164.947
 L -15.1884,-164.994 L -14.8116,-164.994 L -14.4379,-164.947 L -14.0729,-164.853 L -13.7227,-164.714 L -13.3925,-164.533
 L -13.0877,-164.312 L -12.8131,-164.054 L -12.5729,-163.763 L -12.3711,-163.445 L -12.2107,-163.104 L -12.0942,-162.746
 L -12.0237,-162.376 L -12,-162 L -12.0237,-161.624 L -12.0942,-161.254 L -12.2107,-160.896 L -12.3711,-160.555
 L -12.5729,-160.237 L -12.8131,-159.946 L -13.0877,-159.688 L -13.3925,-159.467 L -13.7227,-159.286 L -14.0729,-159.147
 L -14.4379,-159.053 L -14.8116,-159.006 z
M -0.18837,-144.006 L -0.562134,-144.053 L -0.927048,-144.147 L -1.27733,-144.286 L -1.60747,-144.467 L -1.91226,-144.688
 L -2.1869,-144.946 L -2.42705,-145.237 L -2.62891,-145.555 L -2.78932,-145.896 L -2.90575,-146.254 L -2.97633,-146.624
 L -3,-147 L -2.97633,-147.376 L -2.90575,-147.746 L -2.78932,-148.104 L -2.62891,-148.445 L -2.42705,-148.763
 L -2.1869,-149.054 L -1.91226,-149.312 L -1.60747,-149.533 L -1.27733,-149.714 L -0.927048,-149.853 L -0.562134,-149.947
 L -0.18837,-149.994 L 0.18837,-149.994 L 0.562134,-149.947 L 0.927048,-149.853 L 1.27733,-149.714 L 1.60747,-149.533
 L 1.91226,-149.312 L 2.1869,-149.054 L 2.42705,-148.763 L 2.62891,-148.445 L 2.78932,-148.104 L 2.90575,-147.746
 L 2.97633,-147.376 L 3,-147 L 2.97633,-146.624 L 2.90575,-146.254 L 2.78932,-145.896 L 2.62891,-145.555
 L 2.42705,-145.237 L 2.1869,-144.946 L 1.91226,-144.688 L 1.60747,-144.467 L 1.27733,-144.286 L 0.927048,-144.147
 L 0.562134,-144.053 L 0.18837,-144.006 z
M 29.8116,-144.006 L 29.4379,-144.053 L 29.0729,-144.147 L 28.7227,-144.286 L 28.3925,-144.467 L 28.0877,-144.688
 L 27.8131,-144.946 L 27.5729,-145.237 L 27.3711,-145.555 L 27.2107,-145.896 L 27.0942,-146.254 L 27.0237,-146.624
 L 27,-147 L 27.0237,-147.376 L 27.0942,-147.746 L 27.2107,-148.104 L 27.3711,-148.445 L 27.5729,-148.763
 L 27.8131,-149.054 L 28.0877,-149.312 L 28.3925,-149.533 L 28.7227,-149.714 L 29.0729,-149.853 L 29.4379,-149.947
 L 29.8116,-149.994 L 30.1884,-149.994 L 30.5621,-149.947 L 30.927,-149.853 L 31.2773,-149.714 L 31.6075,-149.533
 L 31.9123,-149.312 L 32.1869,-149.054 L 32.427,-148.763 L 32.6289,-148.445 L 32.7893,-148.104 L 32.9057,-147.746
 L 32.9763,-147.376 L 33,-147 L 32.9763,-146.624 L 32.9057,-146.254 L 32.7893,-145.896 L 32.6289,-145.555
 L 32.427,-145.237 L 32.1869,-144.946 L 31.9123,-144.688 L 31.6075,-144.467 L 31.2773,-144.286 L 30.927,-144.147
 L 30.5621,-144.053 L 30.1884,-144.006 z
M -15.1884,-144.006 L -15.5621,-144.053 L -15.927,-144.147 L -16.2773,-144.286 L -16.6075,-144.467 L -16.9123,-144.688
 L -17.1869,-144.946 L -17.427,-145.237 L -17.6289,-145.555 L -17.7893,-145.896 L -17.9057,-146.254 L -17.9763,-146.624
 L -18,-147 L -17.9763,-147.376 L -17.9057,-147.746 L -17.7893,-148.104 L -17.6289,-148.445 L -17.427,-148.763
 L -17.1869,-149.054 L -16.9123,-149.312 L -16.6075,-149.533 L -16.2773,-149.714 L -15.927,-149.853 L -15.5621,-149.947
 L -15.1884,-149.994 L -14.8116,-149.994 L -14.4379,-149.947 L -14.0729,-149.853 L -13.7227,-149.714 L -13.3925,-149.533
 L -13.0877,-149.312 L -12.8131,-149.054 L -12.5729,-148.763 L -12.3711,-148.445 L -12.2107,-148.104 L -12.0942,-147.746
 L -12.0237,-147.376 L -12,-147 L -12.0237,-146.624 L -12.0942,-146.254 L -12.2107,-145.896 L -12.3711,-145.555
 L -12.5729,-145.237 L -12.8131,-144.946 L -13.0877,-144.688 L -13.3925,-144.467 L -13.7227,-144.286 L -14.0729,-144.147
 L -14.4379,-144.053 L -14.8116,-144.006 z
M -30.1884,-144.006 L -30.5621,-144.053 L -30.927,-144.147 L -31.2773,-144.286 L -31.6075,-144.467 L -31.9123,-144.688
 L -32.1869,-144.946 L -32.427,-145.237 L -32.6289,-145.555 L -32.7893,-145.896 L -32.9057,-146.254 L -32.9763,-146.624
 L -33,-147 L -32.9763,-147.376 L -32.9057,-147.746 L -32.7893,-148.104 L -32.6289,-148.445 L -32.427,-148.763
 L -32.1869,-149.054 L -31.9123,-149.312 L -31.6075,-149.533 L -31.2773,-149.714 L -30.927,-149.853 L -30.5621,-149.947
 L -30.1884,-149.994 L -29.8116,-149.994 L -29.4379,-149.947 L -29.0729,-149.853 L -28.7227,-149.714 L -28.3925,-149.533
 L -28.0877,-149.312 L -27.8131,-149.054 L -27.5729,-148.763 L -27.3711,-148.445 L -27.2107,-148.104 L -27.0942,-147.746
 L -27.0237,-147.376 L -27,-147 L -27.0237,-146.624 L -27.0942,-146.254 L -27.2107,-145.896 L -27.3711,-145.555
 L -27.5729,-145.237 L -27.8131,-144.946 L -28.0877,-144.688 L -28.3925,-144.467 L -28.7227,-144.286 L -29.0729,-144.147
 L -29.4379,-144.053 L -29.8116,-144.006 z
M 14.8116,-144.006 L 14.4379,-144.053 L 14.0729,-144.147 L 13.7227,-144.286 L 13.3925,-144.467 L 13.0877,-144.688
 L 12.8131,-144.946 L 12.5729,-145.237 L 12.3711,-145.555 L 12.2107,-145.896 L 12.0942,-146.254 L 12.0237,-146.624
 L 12,-147 L 12.0237,-147.376 L 12.0942,-147.746 L 12.2107,-148.104 L 12.3711,-148.445 L 12.5729,-148.763
 L 12.8131,-149.054 L 13.0877,-149.312 L 13.3925,-149.533 L 13.7227,-149.714 L 14.0729,-149.853 L 14.4379,-149.947
 L 14.8116,-149.994 L 15.1884,-149.994 L 15.5621,-149.947 L 15.927,-149.853 L 16.2773,-149.714 L 16.6075,-149.533
 L 16.9123,-149.312 L 17.1869,-149.054 L 17.427,-148.763 L 17.6289,-148.445 L 17.7893,-148.104 L 17.9057,-147.746
 L 17.9763,-147.376 L 18,-147 L 17.9763,-146.624 L 17.9057,-146.254 L 17.7893,-145.896 L 17.6289,-145.555
 L 17.427,-145.237 L 17.1869,-144.946 L 16.9123,-144.688 L 16.6075,-144.467 L 16.2773,-144.286 L 15.927,-144.147
 L 15.5621,-144.053 L 15.1884,-144.006 z
M 32.9369,-86.0886 L 33.5451,-86.2447 L 34.1289,-86.4759 L 34.6791,-86.7784 L 35.1871,-87.1474 L 35.6448,-87.5773
 L 36.0451,-88.0611 L 36.3815,-88.5912 L 36.6489,-89.1594 L 36.8429,-89.7566 L 36.9606,-90.3733 L 37,-91
 L 37,-125 L 36.9606,-125.627 L 36.8429,-126.243 L 36.6489,-126.841 L 36.3815,-127.409 L 36.0451,-127.939
 L 35.6448,-128.423 L 35.1871,-128.853 L 34.6791,-129.222 L 34.1289,-129.524 L 33.5451,-129.755 L 32.9369,-129.911
 L 32.3139,-129.99 L -32.3139,-129.99 L -32.9369,-129.911 L -33.5451,-129.755 L -34.1289,-129.524 L -34.6791,-129.222
 L -35.1871,-128.853 L -35.6448,-128.423 L -36.0451,-127.939 L -36.3815,-127.409 L -36.6489,-126.841 L -36.8429,-126.243
 L -36.9606,-125.627 L -37,-125 L -37,-91 L -36.9606,-90.3733 L -36.8429,-89.7566 L -36.6489,-89.1594
 L -36.3815,-88.5912 L -36.0451,-88.0611 L -35.6448,-87.5773 L -35.1871,-87.1474 L -34.6791,-86.7784 L -34.1289,-86.4759
 L -33.5451,-86.2447 L -32.9369,-86.0886 L -32.3139,-86.0099 L 32.3139,-86.0099 z
M -30.1884,-120.006 L -30.5621,-120.053 L -30.927,-120.147 L -31.2773,-120.286 L -31.6075,-120.467 L -31.9123,-120.688
 L -32.1869,-120.946 L -32.427,-121.237 L -32.6289,-121.555 L -32.7893,-121.896 L -32.9057,-122.254 L -32.9763,-122.624
 L -33,-123 L -32.9763,-123.376 L -32.9057,-123.746 L -32.7893,-124.104 L -32.6289,-124.445 L -32.427,-124.763
 L -32.1869,-125.054 L -31.9123,-125.312 L -31.6075,-125.533 L -31.2773,-125.714 L -30.927,-125.853 L -30.5621,-125.947
 L -30.1884,-125.994 L -29.8116,-125.994 L -29.4379,-125.947 L -29.0729,-125.853 L -28.7227,-125.714 L -28.3925,-125.533
 L -28.0877,-125.312 L -27.8131,-125.054 L -27.5729,-124.763 L -27.3711,-124.445 L -27.2107,-124.104 L -27.0942,-123.746
 L -27.0237,-123.376 L -27,-123 L -27.0237,-122.624 L -27.0942,-122.254 L -27.2107,-121.896 L -27.3711,-121.555
 L -27.5729,-121.237 L -27.8131,-120.946 L -28.0877,-120.688 L -28.3925,-120.467 L -28.7227,-120.286 L -29.0729,-120.147
 L -29.4379,-120.053 L -29.8116,-120.006 z
M 14.8116,-120.006 L 14.4379,-120.053 L 14.0729,-120.147 L 13.7227,-120.286 L 13.3925,-120.467 L 13.0877,-120.688
 L 12.8131,-120.946 L 12.5729,-121.237 L 12.3711,-121.555 L 12.2107,-121.896 L 12.0942,-122.254 L 12.0237,-122.624
 L 12,-123 L 12.0237,-123.376 L 12.0942,-123.746 L 12.2107,-124.104 L 12.3711,-124.445 L 12.5729,-124.763
 L 12.8131,-125.054 L 13.0877,-125.312 L 13.3925,-125.533 L 13.7227,-125.714 L 14.0729,-125.853 L 14.4379,-125.947
 L 14.8116,-125.994 L 15.1884,-125.994 L 15.5621,-125.947 L 15.927,-125.853 L 16.2773,-125.714 L 16.6075,-125.533
 L 16.9123,-125.312 L 17.1869,-125.054 L 17.427,-124.763 L 17.6289,-124.445 L 17.7893,-124.104 L 17.9057,-123.746
 L 17.9763,-123.376 L 18,-123 L 17.9763,-122.624 L 17.9057,-122.254 L 17.7893,-121.896 L 17.6289,-121.555
 L 17.427,-121.237 L 17.1869,-120.946 L 16.9123,-120.688 L 16.6075,-120.467 L 16.2773,-120.286 L 15.927,-120.147
 L 15.5621,-120.053 L 15.1884,-120.006 z
M -15.1884,-120.006 L -15.5621,-120.053 L -15.927,-120.147 L -16.2773,-120.286 L -16.6075,-120.467 L -16.9123,-120.688
 L -17.1869,-120.946 L -17.427,-121.237 L -17.6289,-121.555 L -17.7893,-121.896 L -17.9057,-122.254 L -17.9763,-122.624
 L -18,-123 L -17.9763,-123.376 L -17.9057,-123.746 L -17.7893,-124.104 L -17.6289,-124.445 L -17.427,-124.763
 L -17.1869,-125.054 L -16.9123,-125.312 L -16.6075,-125.533 L -16.2773,-125.714 L -15.927,-125.853 L -15.5621,-125.947
 L -15.1884,-125.994 L -14.8116,-125.994 L -14.4379,-125.947 L -14.0729,-125.853 L -13.7227,-125.714 L -13.3925,-125.533
 L -13.0877,-125.312 L -12.8131,-125.054 L -12.5729,-124.763 L -12.3711,-124.445 L -12.2107,-124.104 L -12.0942,-123.746
 L -12.0237,-123.376 L -12,-123 L -12.0237,-122.624 L -12.0942,-122.254 L -12.2107,-121.896 L -12.3711,-121.555
 L -12.5729,-121.237 L -12.8131,-120.946 L -13.0877,-120.688 L -13.3925,-120.467 L -13.7227,-120.286 L -14.0729,-120.147
 L -14.4379,-120.053 L -14.8116,-120.006 z
M 29.8116,-120.006 L 29.4379,-120.053 L 29.0729,-120.147 L 28.7227,-120.286 L 28.3925,-120.467 L 28.0877,-120.688
 L 27.8131,-120.946 L 27.5729,-121.237 L 27.3711,-121.555 L 27.2107,-121.896 L 27.0942,-122.254 L 27.0237,-122.624
 L 27,-123 L 27.0237,-123.376 L 27.0942,-123.746 L 27.2107,-124.104 L 27.3711,-124.445 L 27.5729,-124.763
 L 27.8131,-125.054 L 28.0877,-125.312 L 28.3925,-125.533 L 28.7227,-125.714 L 29.0729,-125.853 L 29.4379,-125.947
 L 29.8116,-125.994 L 30.1884,-125.994 L 30.5621,-125.947 L 30.927,-125.853 L 31.2773,-125.714 L 31.6075,-125.533
 L 31.9123,-125.312 L 32.1869,-125.054 L 32.427,-124.763 L 32.6289,-124.445 L 32.7893,-124.104 L 32.9057,-123.746
 L 32.9763,-123.376 L 33,-123 L 32.9763,-122.624 L 32.9057,-122.254 L 32.7893,-121.896 L 32.6289,-121.555
 L 32.427,-121.237 L 32.1869,-120.946 L 31.9123,-120.688 L 31.6075,-120.467 L 31.2773,-120.286 L 30.927,-120.147
 L 30.5621,-120.053 L 30.1884,-120.006 z
M -0.18837,-120.006 L -0.562134,-120.053 L -0.927048,-120.147 L -1.27733,-120.286 L -1.60747,-120.467 L -1.91226,-120.688
 L -2.1869,-120.946 L -2.42705,-121.237 L -2.62891,-121.555 L -2.78932,-121.896 L -2.90575,-122.254 L -2.97633,-122.624
 L -3,-123 L -2.97633,-123.376 L -2.90575,-123.746 L -2.78932,-124.104 L -2.62891,-124.445 L -2.42705,-124.763
 L -2.1869,-125.054 L -1.91226,-125.312 L -1.60747,-125.533 L -1.27733,-125.714 L -0.927048,-125.853 L -0.562134,-125.947
 L -0.18837,-125.994 L 0.18837,-125.994 L 0.562134,-125.947 L 0.927048,-125.853 L 1.27733,-125.714 L 1.60747,-125.533
 L 1.91226,-125.312 L 2.1869,-125.054 L 2.42705,-124.763 L 2.62891,-124.445 L 2.78932,-124.104 L 2.90575,-123.746
 L 2.97633,-123.376 L 3,-123 L 2.97633,-122.624 L 2.90575,-122.254 L 2.78932,-121.896 L 2.62891,-121.555
 L 2.42705,-121.237 L 2.1869,-120.946 L 1.91226,-120.688 L 1.60747,-120.467 L 1.27733,-120.286 L 0.927048,-120.147
 L 0.562134,-120.053 L 0.18837,-120.006 z
M -30.1884,-105.006 L -30.5621,-105.053 L -30.927,-105.147 L -31.2773,-105.286 L -31.6075,-105.467 L -31.9123,-105.688
 L -32.1869,-105.946 L -32.427,-106.237 L -32.6289,-106.555 L -32.7893,-106.896 L -32.9057,-107.254 L -32.9763,-107.624
 L -33,-108 L -32.9763,-108.376 L -32.9057,-108.746 L -32.7893,-109.104 L -32.6289,-109.445 L -32.427,-109.763
 L -32.1869,-110.054 L -31.9123,-110.312 L -31.6075,-110.533 L -31.2773,-110.714 L -30.927,-110.853 L -30.5621,-110.947
 L -30.1884,-110.994 L -29.8116,-110.994 L -29.4379,-110.947 L -29.0729,-110.853 L -28.7227,-110.714 L -28.3925,-110.533
 L -28.0877,-110.312 L -27.8131,-110.054 L -27.5729,-109.763 L -27.3711,-109.445 L -27.2107,-109.104 L -27.0942,-108.746
 L -27.0237,-108.376 L -27,-108 L -27.0237,-107.624 L -27.0942,-107.254 L -27.2107,-106.896 L -27.3711,-106.555
 L -27.5729,-106.237 L -27.8131,-105.946 L -28.0877,-105.688 L -28.3925,-105.467 L -28.7227,-105.286 L -29.0729,-105.147
 L -29.4379,-105.053 L -29.8116,-105.006 z
M 29.8116,-105.006 L 29.4379,-105.053 L 29.0729,-105.147 L 28.7227,-105.286 L 28.3925,-105.467 L 28.0877,-105.688
 L 27.8131,-105.946 L 27.5729,-106.237 L 27.3711,-106.555 L 27.2107,-106.896 L 27.0942,-107.254 L 27.0237,-107.624
 L 27,-108 L 27.0237,-108.376 L 27.0942,-108.746 L 27.2107,-109.104 L 27.3711,-109.445 L 27.5729,-109.763
 L 27.8131,-110.054 L 28.0877,-110.312 L 28.3925,-110.533 L 28.7227,-110.714 L 29.0729,-110.853 L 29.4379,-110.947
 L 29.8116,-110.994 L 30.1884,-110.994 L 30.5621,-110.947 L 30.927,-110.853 L 31.2773,-110.714 L 31.6075,-110.533
 L 31.9123,-110.312 L 32.1869,-110.054 L 32.427,-109.763 L 32.6289,-109.445 L 32.7893,-109.104 L 32.9057,-108.746
 L 32.9763,-108.376 L 33,-108 L 32.9763,-107.624 L 32.9057,-107.254 L 32.7893,-106.896 L 32.6289,-106.555
 L 32.427,-106.237 L 32.1869,-105.946 L 31.9123,-105.688 L 31.6075,-105.467 L 31.2773,-105.286 L 30.927,-105.147
 L 30.5621,-105.053 L 30.1884,-105.006 z
M -0.18837,-105.006 L -0.562134,-105.053 L -0.927048,-105.147 L -1.27733,-105.286 L -1.60747,-105.467 L -1.91226,-105.688
 L -2.1869,-105.946 L -2.42705,-106.237 L -2.62891,-106.555 L -2.78932,-106.896 L -2.90575,-107.254 L -2.97633,-107.624
 L -3,-108 L -2.97633,-108.376 L -2.90575,-108.746 L -2.78932,-109.104 L -2.62891,-109.445 L -2.42705,-109.763
 L -2.1869,-110.054 L -1.91226,-110.312 L -1.60747,-110.533 L -1.27733,-110.714 L -0.927048,-110.853 L -0.562134,-110.947
 L -0.18837,-110.994 L 0.18837,-110.994 L 0.562134,-110.947 L 0.927048,-110.853 L 1.27733,-110.714 L 1.60747,-110.533
 L 1.91226,-110.312 L 2.1869,-110.054 L 2.42705,-109.763 L 2.62891,-109.445 L 2.78932,-109.104 L 2.90575,-108.746
 L 2.97633,-108.376 L 3,-108 L 2.97633,-107.624 L 2.90575,-107.254 L 2.78932,-106.896 L 2.62891,-106.555
 L 2.42705,-106.237 L 2.1869,-105.946 L 1.91226,-105.688 L 1.60747,-105.467 L 1.27733,-105.286 L 0.927048,-105.147
 L 0.562134,-105.053 L 0.18837,-105.006 z
M 14.8116,-105.006 L 14.4379,-105.053 L 14.0729,-105.147 L 13.7227,-105.286 L 13.3925,-105.467 L 13.0877,-105.688
 L 12.8131,-105.946 L 12.5729,-106.237 L 12.3711,-106.555 L 12.2107,-106.896 L 12.0942,-107.254 L 12.0237,-107.624
 L 12,-108 L 12.0237,-108.376 L 12.0942,-108.746 L 12.2107,-109.104 L 12.3711,-109.445 L 12.5729,-109.763
 L 12.8131,-110.054 L 13.0877,-110.312 L 13.3925,-110.533 L 13.7227,-110.714 L 14.0729,-110.853 L 14.4379,-110.947
 L 14.8116,-110.994 L 15.1884,-110.994 L 15.5621,-110.947 L 15.927,-110.853 L 16.2773,-110.714 L 16.6075,-110.533
 L 16.9123,-110.312 L 17.1869,-110.054 L 17.427,-109.763 L 17.6289,-109.445 L 17.7893,-109.104 L 17.9057,-108.746
 L 17.9763,-108.376 L 18,-108 L 17.9763,-107.624 L 17.9057,-107.254 L 17.7893,-106.896 L 17.6289,-106.555
 L 17.427,-106.237 L 17.1869,-105.946 L 16.9123,-105.688 L 16.6075,-105.467 L 16.2773,-105.286 L 15.927,-105.147
 L 15.5621,-105.053 L 15.1884,-105.006 z
M -15.1884,-105.006 L -15.5621,-105.053 L -15.927,-105.147 L -16.2773,-105.286 L -16.6075,-105.467 L -16.9123,-105.688
 L -17.1869,-105.946 L -17.427,-106.237 L -17.6289,-106.555 L -17.7893,-106.896 L -17.9057,-107.254 L -17.9763,-107.624
 L -18,-108 L -17.9763,-108.376 L -17.9057,-108.746 L -17.7893,-109.104 L -17.6289,-109.445 L -17.427,-109.763
 L -17.1869,-110.054 L -16.9123,-110.312 L -16.6075,-110.533 L -16.2773,-110.714 L -15.927,-110.853 L -15.5621,-110.947
 L -15.1884,-110.994 L -14.8116,-110.994 L -14.4379,-110.947 L -14.0729,-110.853 L -13.7227,-110.714 L -13.3925,-110.533
 L -13.0877,-110.312 L -12.8131,-110.054 L -12.5729,-109.763 L -12.3711,-109.445 L -12.2107,-109.104 L -12.0942,-108.746
 L -12.0237,-108.376 L -12,-108 L -12.0237,-107.624 L -12.0942,-107.254 L -12.2107,-106.896 L -12.3711,-106.555
 L -12.5729,-106.237 L -12.8131,-105.946 L -13.0877,-105.688 L -13.3925,-105.467 L -13.7227,-105.286 L -14.0729,-105.147
 L -14.4379,-105.053 L -14.8116,-105.006 z
M -0.18837,-90.0059 L -0.562134,-90.0531 L -0.927048,-90.1468 L -1.27733,-90.2855 L -1.60747,-90.467 L -1.91226,-90.6885
 L -2.1869,-90.9464 L -2.42705,-91.2366 L -2.62891,-91.5547 L -2.78932,-91.8956 L -2.90575,-92.2539 L -2.97633,-92.624
 L -3,-93 L -2.97633,-93.376 L -2.90575,-93.7461 L -2.78932,-94.1044 L -2.62891,-94.4453 L -2.42705,-94.7634
 L -2.1869,-95.0536 L -1.91226,-95.3116 L -1.60747,-95.533 L -1.27733,-95.7145 L -0.927048,-95.8532 L -0.562134,-95.9469
 L -0.18837,-95.9941 L 0.18837,-95.9941 L 0.562134,-95.9469 L 0.927048,-95.8532 L 1.27733,-95.7145 L 1.60747,-95.533
 L 1.91226,-95.3116 L 2.1869,-95.0536 L 2.42705,-94.7634 L 2.62891,-94.4453 L 2.78932,-94.1044 L 2.90575,-93.7461
 L 2.97633,-93.376 L 3,-93 L 2.97633,-92.624 L 2.90575,-92.2539 L 2.78932,-91.8956 L 2.62891,-91.5547
 L 2.42705,-91.2366 L 2.1869,-90.9464 L 1.91226,-90.6885 L 1.60747,-90.467 L 1.27733,-90.2855 L 0.927048,-90.1468
 L 0.562134,-90.0531 L 0.18837,-90.0059 z
M 29.8116,-90.0059 L 29.4379,-90.0531 L 29.0729,-90.1468 L 28.7227,-90.2855 L 28.3925,-90.467 L 28.0877,-90.6885
 L 27.8131,-90.9464 L 27.5729,-91.2366 L 27.3711,-91.5547 L 27.2107,-91.8956 L 27.0942,-92.2539 L 27.0237,-92.624
 L 27,-93 L 27.0237,-93.376 L 27.0942,-93.7461 L 27.2107,-94.1044 L 27.3711,-94.4453 L 27.5729,-94.7634
 L 27.8131,-95.0536 L 28.0877,-95.3116 L 28.3925,-95.533 L 28.7227,-95.7145 L 29.0729,-95.8532 L 29.4379,-95.9469
 L 29.8116,-95.9941 L 30.1884,-95.9941 L 30.5621,-95.9469 L 30.927,-95.8532 L 31.2773,-95.7145 L 31.6075,-95.533
 L 31.9123,-95.3116 L 32.1869,-95.0536 L 32.427,-94.7634 L 32.6289,-94.4453 L 32.7893,-94.1044 L 32.9057,-93.7461
 L 32.9763,-93.376 L 33,-93 L 32.9763,-92.624 L 32.9057,-92.2539 L 32.7893,-91.8956 L 32.6289,-91.5547
 L 32.427,-91.2366 L 32.1869,-90.9464 L 31.9123,-90.6885 L 31.6075,-90.467 L 31.2773,-90.2855 L 30.927,-90.1468
 L 30.5621,-90.0531 L 30.1884,-90.0059 z
M -15.1884,-90.0059 L -15.5621,-90.0531 L -15.927,-90.1468 L -16.2773,-90.2855 L -16.6075,-90.467 L -16.9123,-90.6885
 L -17.1869,-90.9464 L -17.427,-91.2366 L -17.6289,-91.5547 L -17.7893,-91.8956 L -17.9057,-92.2539 L -17.9763,-92.624
 L -18,-93 L -17.9763,-93.376 L -17.9057,-93.7461 L -17.7893,-94.1044 L -17.6289,-94.4453 L -17.427,-94.7634
 L -17.1869,-95.0536 L -16.9123,-95.3116 L -16.6075,-95.533 L -16.2773,-95.7145 L -15.927,-95.8532 L -15.5621,-95.9469
 L -15.1884,-95.9941 L -14.8116,-95.9941 L -14.4379,-95.9469 L -14.0729,-95.8532 L -13.7227,-95.7145 L -13.3925,-95.533
 L -13.0877,-95.3116 L -12.8131,-95.0536 L -12.5729,-94.7634 L -12.3711,-94.4453 L -12.2107,-94.1044 L -12.0942,-93.7461
 L -12.0237,-93.376 L -12,-93 L -12.0237,-92.624 L -12.0942,-92.2539 L -12.2107,-91.8956 L -12.3711,-91.5547
 L -12.5729,-91.2366 L -12.8131,-90.9464 L -13.0877,-90.6885 L -13.3925,-90.467 L -13.7227,-90.2855 L -14.0729,-90.1468
 L -14.4379,-90.0531 L -14.8116,-90.0059 z
M -30.1884,-90.0059 L -30.5621,-90.0531 L -30.927,-90.1468 L -31.2773,-90.2855 L -31.6075,-90.467 L -31.9123,-90.6885
 L -32.1869,-90.9464 L -32.427,-91.2366 L -32.6289,-91.5547 L -32.7893,-91.8956 L -32.9057,-92.2539 L -32.9763,-92.624
 L -33,-93 L -32.9763,-93.376 L -32.9057,-93.7461 L -32.7893,-94.1044 L -32.6289,-94.4453 L -32.427,-94.7634
 L -32.1869,-95.0536 L -31.9123,-95.3116 L -31.6075,-95.533 L -31.2773,-95.7145 L -30.927,-95.8532 L -30.5621,-95.9469
 L -30.1884,-95.9941 L -29.8116,-95.9941 L -29.4379,-95.9469 L -29.0729,-95.8532 L -28.7227,-95.7145 L -28.3925,-95.533
 L -28.0877,-95.3116 L -27.8131,-95.0536 L -27.5729,-94.7634 L -27.3711,-94.4453 L -27.2107,-94.1044 L -27.0942,-93.7461
 L -27.0237,-93.376 L -27,-93 L -27.0237,-92.624 L -27.0942,-92.2539 L -27.2107,-91.8956 L -27.3711,-91.5547
 L -27.5729,-91.2366 L -27.8131,-90.9464 L -28.0877,-90.6885 L -28.3925,-90.467 L -28.7227,-90.2855 L -29.0729,-90.1468
 L -29.4379,-90.0531 L -29.8116,-90.0059 z
M 14.8116,-90.0059 L 14.4379,-90.0531 L 14.0729,-90.1468 L 13.7227,-90.2855 L 13.3925,-90.467 L 13.0877,-90.6885
 L 12.8131,-90.9464 L 12.5729,-91.2366 L 12.3711,-91.5547 L 12.2107,-91.8956 L 12.0942,-92.2539 L 12.0237,-92.624
 L 12,-93 L 12.0237,-93.376 L 12.0942,-93.7461 L 12.2107,-94.1044 L 12.3711,-94.4453 L 12.5729,-94.7634
 L 12.8131,-95.0536 L 13.0877,-95.3116 L 13.3925,-95.533 L 13.7227,-95.7145 L 14.0729,-95.8532 L 14.4379,-95.9469
 L 14.8116,-95.9941 L 15.1884,-95.9941 L 15.5621,-95.9469 L 15.927,-95.8532 L 16.2773,-95.7145 L 16.6075,-95.533
 L 16.9123,-95.3116 L 17.1869,-95.0536 L 17.427,-94.7634 L 17.6289,-94.4453 L 17.7893,-94.1044 L 17.9057,-93.7461
 L 17.9763,-93.376 L 18,-93 L 17.9763,-92.624 L 17.9057,-92.2539 L 17.7893,-91.8956 L 17.6289,-91.5547
 L 17.427,-91.2366 L 17.1869,-90.9464 L 16.9123,-90.6885 L 16.6075,-90.467 L 16.2773,-90.2855 L 15.927,-90.1468
 L 15.5621,-90.0531 L 15.1884,-90.0059 z
" stroke="black" fill="lightgray" stroke-width="0.5"/>
</svg>
