solid OpenSCAD_Model
  facet normal -0.997969 -0.0637003 0
    outer loop
      vertex -132 0 0
      vertex -132.024 0.375999 3
      vertex -132.024 0.375999 0
    endloop
  endfacet
  facet normal -0.997969 -0.0637003 0
    outer loop
      vertex -132.024 0.375999 3
      vertex -132 0 0
      vertex -132 0 3
    endloop
  endfacet
  facet normal 0.997969 -0.0637003 0
    outer loop
      vertex -138 0 3
      vertex -137.976 0.375999 0
      vertex -137.976 0.375999 3
    endloop
  endfacet
  facet normal 0.997969 -0.0637003 0
    outer loop
      vertex -137.976 0.375999 0
      vertex -138 0 3
      vertex -138 0 0
    endloop
  endfacet
  facet normal 0 -1 0
    outer loop
      vertex -135.188 2.99408 0
      vertex -134.812 2.99408 3
      vertex -135.188 2.99408 3
    endloop
  endfacet
  facet normal 0 -1 -0
    outer loop
      vertex -134.812 2.99408 3
      vertex -135.188 2.99408 0
      vertex -134.812 2.99408 0
    endloop
  endfacet
  facet normal 0 1 -0
    outer loop
      vertex -134.812 -2.99408 0
      vertex -135.188 -2.99408 3
      vertex -134.812 -2.99408 3
    endloop
  endfacet
  facet normal 0 1 0
    outer loop
      vertex -135.188 -2.99408 3
      vertex -134.812 -2.99408 0
      vertex -135.188 -2.99408 0
    endloop
  endfacet
  facet normal -0.684065 -0.729421 0
    outer loop
      vertex -133.088 2.31154 0
      vertex -132.813 2.05364 3
      vertex -133.088 2.31154 3
    endloop
  endfacet
  facet normal -0.684065 -0.729421 -0
    outer loop
      vertex -132.813 2.05364 3
      vertex -133.088 2.31154 0
      vertex -132.813 2.05364 0
    endloop
  endfacet
  facet normal 0.684065 -0.729421 0
    outer loop
      vertex -137.187 2.05364 0
      vertex -136.912 2.31154 3
      vertex -137.187 2.05364 3
    endloop
  endfacet
  facet normal 0.684065 -0.729421 0
    outer loop
      vertex -136.912 2.31154 3
      vertex -137.187 2.05364 0
      vertex -136.912 2.31154 0
    endloop
  endfacet
  facet normal 0.368389 -0.929672 0
    outer loop
      vertex -136.277 2.71448 0
      vertex -135.927 2.85317 3
      vertex -136.277 2.71448 3
    endloop
  endfacet
  facet normal 0.368389 -0.929672 0
    outer loop
      vertex -135.927 2.85317 3
      vertex -136.277 2.71448 0
      vertex -135.927 2.85317 0
    endloop
  endfacet
  facet normal -0.905247 -0.424886 0
    outer loop
      vertex -132.211 1.10437 0
      vertex -132.371 1.44526 3
      vertex -132.371 1.44526 0
    endloop
  endfacet
  facet normal -0.905247 -0.424886 0
    outer loop
      vertex -132.371 1.44526 3
      vertex -132.211 1.10437 0
      vertex -132.211 1.10437 3
    endloop
  endfacet
  facet normal -0.982577 -0.185858 0
    outer loop
      vertex -132.024 0.375999 0
      vertex -132.094 0.746069 3
      vertex -132.094 0.746069 0
    endloop
  endfacet
  facet normal -0.982577 -0.185858 0
    outer loop
      vertex -132.094 0.746069 3
      vertex -132.024 0.375999 0
      vertex -132.024 0.375999 3
    endloop
  endfacet
  facet normal -0.368389 -0.929672 0
    outer loop
      vertex -134.073 2.85317 0
      vertex -133.723 2.71448 3
      vertex -134.073 2.85317 3
    endloop
  endfacet
  facet normal -0.368389 -0.929672 -0
    outer loop
      vertex -133.723 2.71448 3
      vertex -134.073 2.85317 0
      vertex -133.723 2.71448 0
    endloop
  endfacet
  facet normal -0.587515 -0.809213 0
    outer loop
      vertex -133.393 2.53298 0
      vertex -133.088 2.31154 3
      vertex -133.393 2.53298 3
    endloop
  endfacet
  facet normal -0.587515 -0.809213 -0
    outer loop
      vertex -133.088 2.31154 3
      vertex -133.393 2.53298 0
      vertex -133.088 2.31154 0
    endloop
  endfacet
  facet normal 0.905247 -0.424886 0
    outer loop
      vertex -137.789 1.10437 3
      vertex -137.629 1.44526 0
      vertex -137.629 1.44526 3
    endloop
  endfacet
  facet normal 0.905247 -0.424886 0
    outer loop
      vertex -137.629 1.44526 0
      vertex -137.789 1.10437 3
      vertex -137.789 1.10437 0
    endloop
  endfacet
  facet normal 0.950603 -0.310411 0
    outer loop
      vertex -137.906 0.746069 3
      vertex -137.789 1.10437 0
      vertex -137.789 1.10437 3
    endloop
  endfacet
  facet normal 0.950603 -0.310411 0
    outer loop
      vertex -137.789 1.10437 0
      vertex -137.906 0.746069 3
      vertex -137.906 0.746069 0
    endloop
  endfacet
  facet normal 0.248625 -0.9686 0
    outer loop
      vertex -135.927 2.85317 0
      vertex -135.562 2.94686 3
      vertex -135.927 2.85317 3
    endloop
  endfacet
  facet normal 0.248625 -0.9686 0
    outer loop
      vertex -135.562 2.94686 3
      vertex -135.927 2.85317 0
      vertex -135.562 2.94686 0
    endloop
  endfacet
  facet normal -0.368389 0.929672 0
    outer loop
      vertex -133.723 -2.71448 0
      vertex -134.073 -2.85317 3
      vertex -133.723 -2.71448 3
    endloop
  endfacet
  facet normal -0.368389 0.929672 0
    outer loop
      vertex -134.073 -2.85317 3
      vertex -133.723 -2.71448 0
      vertex -134.073 -2.85317 0
    endloop
  endfacet
  facet normal -0.950603 -0.310411 0
    outer loop
      vertex -132.094 0.746069 0
      vertex -132.211 1.10437 3
      vertex -132.211 1.10437 0
    endloop
  endfacet
  facet normal -0.950603 -0.310411 0
    outer loop
      vertex -132.211 1.10437 3
      vertex -132.094 0.746069 0
      vertex -132.094 0.746069 3
    endloop
  endfacet
  facet normal -0.770696 -0.637202 0
    outer loop
      vertex -132.573 1.76336 0
      vertex -132.813 2.05364 3
      vertex -132.813 2.05364 0
    endloop
  endfacet
  facet normal -0.770696 -0.637202 0
    outer loop
      vertex -132.813 2.05364 3
      vertex -132.573 1.76336 0
      vertex -132.573 1.76336 3
    endloop
  endfacet
  facet normal -0.844175 -0.536068 0
    outer loop
      vertex -132.371 1.44526 0
      vertex -132.573 1.76336 3
      vertex -132.573 1.76336 0
    endloop
  endfacet
  facet normal -0.844175 -0.536068 0
    outer loop
      vertex -132.573 1.76336 3
      vertex -132.371 1.44526 0
      vertex -132.371 1.44526 3
    endloop
  endfacet
  facet normal -0.248625 -0.9686 0
    outer loop
      vertex -134.438 2.94686 0
      vertex -134.073 2.85317 3
      vertex -134.438 2.94686 3
    endloop
  endfacet
  facet normal -0.248625 -0.9686 -0
    outer loop
      vertex -134.073 2.85317 3
      vertex -134.438 2.94686 0
      vertex -134.073 2.85317 0
    endloop
  endfacet
  facet normal -0.125262 -0.992124 0
    outer loop
      vertex -134.812 2.99408 0
      vertex -134.438 2.94686 3
      vertex -134.812 2.99408 3
    endloop
  endfacet
  facet normal -0.125262 -0.992124 -0
    outer loop
      vertex -134.438 2.94686 3
      vertex -134.812 2.99408 0
      vertex -134.438 2.94686 0
    endloop
  endfacet
  facet normal -0.481919 -0.876216 0
    outer loop
      vertex -133.723 2.71448 0
      vertex -133.393 2.53298 3
      vertex -133.723 2.71448 3
    endloop
  endfacet
  facet normal -0.481919 -0.876216 -0
    outer loop
      vertex -133.393 2.53298 3
      vertex -133.723 2.71448 0
      vertex -133.393 2.53298 0
    endloop
  endfacet
  facet normal 0.844175 -0.536068 0
    outer loop
      vertex -137.629 1.44526 3
      vertex -137.427 1.76336 0
      vertex -137.427 1.76336 3
    endloop
  endfacet
  facet normal 0.844175 -0.536068 0
    outer loop
      vertex -137.427 1.76336 0
      vertex -137.629 1.44526 3
      vertex -137.629 1.44526 0
    endloop
  endfacet
  facet normal 0.770696 -0.637202 0
    outer loop
      vertex -137.427 1.76336 3
      vertex -137.187 2.05364 0
      vertex -137.187 2.05364 3
    endloop
  endfacet
  facet normal 0.770696 -0.637202 0
    outer loop
      vertex -137.187 2.05364 0
      vertex -137.427 1.76336 3
      vertex -137.427 1.76336 0
    endloop
  endfacet
  facet normal 0.982577 -0.185858 0
    outer loop
      vertex -137.976 0.375999 3
      vertex -137.906 0.746069 0
      vertex -137.906 0.746069 3
    endloop
  endfacet
  facet normal 0.982577 -0.185858 0
    outer loop
      vertex -137.906 0.746069 0
      vertex -137.976 0.375999 3
      vertex -137.976 0.375999 0
    endloop
  endfacet
  facet normal 0 0 1
    outer loop
      vertex 137.789 1.10437 3
      vertex 142 2 3
      vertex 141.961 2.62667 3
    endloop
  endfacet
  facet normal 0 0 1
    outer loop
      vertex 142 2 3
      vertex 138 0 3
      vertex 142 -2 3
    endloop
  endfacet
  facet normal 0 0 1
    outer loop
      vertex 137.629 1.44526 3
      vertex 141.961 2.62667 3
      vertex 141.843 3.24345 3
    endloop
  endfacet
  facet normal -0 0 1
    outer loop
      vertex 137.976 -0.375999 3
      vertex 142 -2 3
      vertex 138 0 3
    endloop
  endfacet
  facet normal 0 0 1
    outer loop
      vertex 137.629 1.44526 3
      vertex 141.843 3.24345 3
      vertex 141.649 3.84062 3
    endloop
  endfacet
  facet normal -0 0 1
    outer loop
      vertex 137.906 -0.746069 3
      vertex 142 -2 3
      vertex 137.976 -0.375999 3
    endloop
  endfacet
  facet normal 0 0 1
    outer loop
      vertex 137.427 1.76336 3
      vertex 141.649 3.84062 3
      vertex 141.382 4.40877 3
    endloop
  endfacet
  facet normal -0 0 1
    outer loop
      vertex 137.789 -1.10437 3
      vertex 142 -2 3
      vertex 137.906 -0.746069 3
    endloop
  endfacet
  facet normal 0 0 1
    outer loop
      vertex 137.427 1.76336 3
      vertex 141.382 4.40877 3
      vertex 141.045 4.93893 3
    endloop
  endfacet
  facet normal 0 0 1
    outer loop
      vertex 142 -2 3
      vertex 137.789 -1.10437 3
      vertex 141.961 -2.62667 3
    endloop
  endfacet
  facet normal 0 0 1
    outer loop
      vertex 137.187 2.05364 3
      vertex 141.045 4.93893 3
      vertex 140.645 5.42274 3
    endloop
  endfacet
  facet normal -0 0 1
    outer loop
      vertex 137.629 -1.44526 3
      vertex 141.961 -2.62667 3
      vertex 137.789 -1.10437 3
    endloop
  endfacet
  facet normal 0 0 1
    outer loop
      vertex 137.187 2.05364 3
      vertex 140.645 5.42274 3
      vertex 140.187 5.85257 3
    endloop
  endfacet
  facet normal 0 0 1
    outer loop
      vertex 141.961 -2.62667 3
      vertex 137.629 -1.44526 3
      vertex 141.843 -3.24345 3
    endloop
  endfacet
  facet normal 0 0 1
    outer loop
      vertex 136.912 2.31154 3
      vertex 140.187 5.85257 3
      vertex 139.679 6.22164 3
    endloop
  endfacet
  facet normal 0 0 1
    outer loop
      vertex 141.843 -3.24345 3
      vertex 137.629 -1.44526 3
      vertex 141.649 -3.84062 3
    endloop
  endfacet
  facet normal 0 0 1
    outer loop
      vertex 136.912 2.31154 3
      vertex 139.679 6.22164 3
      vertex 139.129 6.52413 3
    endloop
  endfacet
  facet normal -0 0 1
    outer loop
      vertex 137.427 -1.76336 3
      vertex 141.649 -3.84062 3
      vertex 137.629 -1.44526 3
    endloop
  endfacet
  facet normal 0 0 1
    outer loop
      vertex 136.607 2.53298 3
      vertex 139.129 6.52413 3
      vertex 138.545 6.75528 3
    endloop
  endfacet
  facet normal 0 0 1
    outer loop
      vertex 141.649 -3.84062 3
      vertex 137.427 -1.76336 3
      vertex 141.382 -4.40877 3
    endloop
  endfacet
  facet normal 0 0 1
    outer loop
      vertex 141.382 -4.40877 3
      vertex 137.427 -1.76336 3
      vertex 141.045 -4.93893 3
    endloop
  endfacet
  facet normal 0 0 1
    outer loop
      vertex 142 2 3
      vertex 137.976 0.375999 3
      vertex 138 0 3
    endloop
  endfacet
  facet normal 0 0 1
    outer loop
      vertex 136.607 2.53298 3
      vertex 138.545 6.75528 3
      vertex 137.937 6.91144 3
    endloop
  endfacet
  facet normal 0 0 1
    outer loop
      vertex 142 2 3
      vertex 137.906 0.746069 3
      vertex 137.976 0.375999 3
    endloop
  endfacet
  facet normal 0 0 1
    outer loop
      vertex 142 2 3
      vertex 137.789 1.10437 3
      vertex 137.906 0.746069 3
    endloop
  endfacet
  facet normal 0 0 1
    outer loop
      vertex 141.961 2.62667 3
      vertex 137.629 1.44526 3
      vertex 137.789 1.10437 3
    endloop
  endfacet
  facet normal 0 0 1
    outer loop
      vertex 141.649 3.84062 3
      vertex 137.427 1.76336 3
      vertex 137.629 1.44526 3
    endloop
  endfacet
  facet normal 0 0 1
    outer loop
      vertex 136.277 2.71448 3
      vertex 137.937 6.91144 3
      vertex 137.314 6.99013 3
    endloop
  endfacet
  facet normal 0 0 1
    outer loop
      vertex 141.045 4.93893 3
      vertex 137.187 2.05364 3
      vertex 137.427 1.76336 3
    endloop
  endfacet
  facet normal 0 0 1
    outer loop
      vertex 140.187 5.85257 3
      vertex 136.912 2.31154 3
      vertex 137.187 2.05364 3
    endloop
  endfacet
  facet normal 0 0 1
    outer loop
      vertex 139.129 6.52413 3
      vertex 136.607 2.53298 3
      vertex 136.912 2.31154 3
    endloop
  endfacet
  facet normal 0 0 1
    outer loop
      vertex 137.937 6.91144 3
      vertex 136.277 2.71448 3
      vertex 136.607 2.53298 3
    endloop
  endfacet
  facet normal 0 0 1
    outer loop
      vertex 137.314 6.99013 3
      vertex 135.927 2.85317 3
      vertex 136.277 2.71448 3
    endloop
  endfacet
  facet normal 0 0 1
    outer loop
      vertex 137.314 6.99013 3
      vertex 135.562 2.94686 3
      vertex 135.927 2.85317 3
    endloop
  endfacet
  facet normal 0 0 1
    outer loop
      vertex 137.314 6.99013 3
      vertex 135.188 2.99408 3
      vertex 135.562 2.94686 3
    endloop
  endfacet
  facet normal 0 0 1
    outer loop
      vertex 137.314 6.99013 3
      vertex 134.812 2.99408 3
      vertex 135.188 2.99408 3
    endloop
  endfacet
  facet normal 0 0 1
    outer loop
      vertex 137.314 6.99013 3
      vertex 134.438 2.94686 3
      vertex 134.812 2.99408 3
    endloop
  endfacet
  facet normal 0 0 1
    outer loop
      vertex 137.314 6.99013 3
      vertex 134.073 2.85317 3
      vertex 134.438 2.94686 3
    endloop
  endfacet
  facet normal 0 0 1
    outer loop
      vertex 137.314 6.99013 3
      vertex 133.723 2.71448 3
      vertex 134.073 2.85317 3
    endloop
  endfacet
  facet normal 0 0 1
    outer loop
      vertex 137.314 6.99013 3
      vertex 133.393 2.53298 3
      vertex 133.723 2.71448 3
    endloop
  endfacet
  facet normal 0 0 1
    outer loop
      vertex 137.314 6.99013 3
      vertex 133.088 2.31154 3
      vertex 133.393 2.53298 3
    endloop
  endfacet
  facet normal 0 0 1
    outer loop
      vertex 137.314 6.99013 3
      vertex 132.813 2.05364 3
      vertex 133.088 2.31154 3
    endloop
  endfacet
  facet normal 0 0 1
    outer loop
      vertex 132.024 0.375999 3
      vertex -132 0 3
      vertex 132 0 3
    endloop
  endfacet
  facet normal 0 0 1
    outer loop
      vertex -132.024 0.375999 3
      vertex 132.024 0.375999 3
      vertex 132.094 0.746069 3
    endloop
  endfacet
  facet normal 0 0 1
    outer loop
      vertex -132.094 0.746069 3
      vertex 132.094 0.746069 3
      vertex 132.211 1.10437 3
    endloop
  endfacet
  facet normal 0 0 1
    outer loop
      vertex -132.211 1.10437 3
      vertex 132.211 1.10437 3
      vertex 132.371 1.44526 3
    endloop
  endfacet
  facet normal 0 0 1
    outer loop
      vertex -132.371 1.44526 3
      vertex 132.371 1.44526 3
      vertex 132.573 1.76336 3
    endloop
  endfacet
  facet normal 0 0 1
    outer loop
      vertex -132.573 1.76336 3
      vertex 132.573 1.76336 3
      vertex 132.813 2.05364 3
    endloop
  endfacet
  facet normal 0 0 1
    outer loop
      vertex -132.813 2.05364 3
      vertex 132.813 2.05364 3
      vertex 137.314 6.99013 3
    endloop
  endfacet
  facet normal 0 0 1
    outer loop
      vertex 132.024 0.375999 3
      vertex -132.024 0.375999 3
      vertex -132 0 3
    endloop
  endfacet
  facet normal 0 0 1
    outer loop
      vertex 132.094 0.746069 3
      vertex -132.094 0.746069 3
      vertex -132.024 0.375999 3
    endloop
  endfacet
  facet normal 0 0 1
    outer loop
      vertex 132.211 1.10437 3
      vertex -132.211 1.10437 3
      vertex -132.094 0.746069 3
    endloop
  endfacet
  facet normal 0 0 1
    outer loop
      vertex 132.371 1.44526 3
      vertex -132.371 1.44526 3
      vertex -132.211 1.10437 3
    endloop
  endfacet
  facet normal 0 0 1
    outer loop
      vertex 132.573 1.76336 3
      vertex -132.573 1.76336 3
      vertex -132.371 1.44526 3
    endloop
  endfacet
  facet normal 0 0 1
    outer loop
      vertex 132.813 2.05364 3
      vertex -132.813 2.05364 3
      vertex -132.573 1.76336 3
    endloop
  endfacet
  facet normal -0 0 1
    outer loop
      vertex -137.314 6.99013 3
      vertex -132.813 2.05364 3
      vertex 137.314 6.99013 3
    endloop
  endfacet
  facet normal 0 0 1
    outer loop
      vertex -132.813 2.05364 3
      vertex -137.314 6.99013 3
      vertex -133.088 2.31154 3
    endloop
  endfacet
  facet normal 0 0 1
    outer loop
      vertex -133.088 2.31154 3
      vertex -137.314 6.99013 3
      vertex -133.393 2.53298 3
    endloop
  endfacet
  facet normal 0 0 1
    outer loop
      vertex -133.393 2.53298 3
      vertex -137.314 6.99013 3
      vertex -133.723 2.71448 3
    endloop
  endfacet
  facet normal 0 0 1
    outer loop
      vertex -133.723 2.71448 3
      vertex -137.314 6.99013 3
      vertex -134.073 2.85317 3
    endloop
  endfacet
  facet normal 0 0 1
    outer loop
      vertex -134.073 2.85317 3
      vertex -137.314 6.99013 3
      vertex -134.438 2.94686 3
    endloop
  endfacet
  facet normal 0 0 1
    outer loop
      vertex -134.438 2.94686 3
      vertex -137.314 6.99013 3
      vertex -134.812 2.99408 3
    endloop
  endfacet
  facet normal 0 0 1
    outer loop
      vertex -134.812 2.99408 3
      vertex -137.314 6.99013 3
      vertex -135.188 2.99408 3
    endloop
  endfacet
  facet normal 0 0 1
    outer loop
      vertex -137.314 6.99013 3
      vertex -135.562 2.94686 3
      vertex -135.188 2.99408 3
    endloop
  endfacet
  facet normal 0 0 1
    outer loop
      vertex -137.314 6.99013 3
      vertex -135.927 2.85317 3
      vertex -135.562 2.94686 3
    endloop
  endfacet
  facet normal 0 0 1
    outer loop
      vertex -137.314 6.99013 3
      vertex -136.277 2.71448 3
      vertex -135.927 2.85317 3
    endloop
  endfacet
  facet normal -0 0 1
    outer loop
      vertex -137.937 6.91144 3
      vertex -136.277 2.71448 3
      vertex -137.314 6.99013 3
    endloop
  endfacet
  facet normal 0 0 1
    outer loop
      vertex -136.277 2.71448 3
      vertex -137.937 6.91144 3
      vertex -136.607 2.53298 3
    endloop
  endfacet
  facet normal -0 0 1
    outer loop
      vertex -138.545 6.75528 3
      vertex -136.607 2.53298 3
      vertex -137.937 6.91144 3
    endloop
  endfacet
  facet normal -0 0 1
    outer loop
      vertex -139.129 6.52413 3
      vertex -136.607 2.53298 3
      vertex -138.545 6.75528 3
    endloop
  endfacet
  facet normal 0 0 1
    outer loop
      vertex -136.607 2.53298 3
      vertex -139.129 6.52413 3
      vertex -136.912 2.31154 3
    endloop
  endfacet
  facet normal -0 0 1
    outer loop
      vertex -139.679 6.22164 3
      vertex -136.912 2.31154 3
      vertex -139.129 6.52413 3
    endloop
  endfacet
  facet normal -0 0 1
    outer loop
      vertex -140.187 5.85257 3
      vertex -136.912 2.31154 3
      vertex -139.679 6.22164 3
    endloop
  endfacet
  facet normal 0 0 1
    outer loop
      vertex -136.912 2.31154 3
      vertex -140.187 5.85257 3
      vertex -137.187 2.05364 3
    endloop
  endfacet
  facet normal -0 0 1
    outer loop
      vertex -140.645 5.42274 3
      vertex -137.187 2.05364 3
      vertex -140.187 5.85257 3
    endloop
  endfacet
  facet normal -0 0 1
    outer loop
      vertex -141.045 4.93893 3
      vertex -137.187 2.05364 3
      vertex -140.645 5.42274 3
    endloop
  endfacet
  facet normal 0 0 1
    outer loop
      vertex -137.187 2.05364 3
      vertex -141.045 4.93893 3
      vertex -137.427 1.76336 3
    endloop
  endfacet
  facet normal -0 0 1
    outer loop
      vertex 137.187 -2.05364 3
      vertex 141.045 -4.93893 3
      vertex 137.427 -1.76336 3
    endloop
  endfacet
  facet normal 0 0 1
    outer loop
      vertex 141.045 -4.93893 3
      vertex 137.187 -2.05364 3
      vertex 140.645 -5.42274 3
    endloop
  endfacet
  facet normal 0 0 1
    outer loop
      vertex 140.645 -5.42274 3
      vertex 137.187 -2.05364 3
      vertex 140.187 -5.85257 3
    endloop
  endfacet
  facet normal -0 0 1
    outer loop
      vertex 136.912 -2.31154 3
      vertex 140.187 -5.85257 3
      vertex 137.187 -2.05364 3
    endloop
  endfacet
  facet normal 0 0 1
    outer loop
      vertex 140.187 -5.85257 3
      vertex 136.912 -2.31154 3
      vertex 139.679 -6.22164 3
    endloop
  endfacet
  facet normal 0 0 1
    outer loop
      vertex 139.679 -6.22164 3
      vertex 136.912 -2.31154 3
      vertex 139.129 -6.52413 3
    endloop
  endfacet
  facet normal -0 0 1
    outer loop
      vertex 136.607 -2.53298 3
      vertex 139.129 -6.52413 3
      vertex 136.912 -2.31154 3
    endloop
  endfacet
  facet normal 0 0 1
    outer loop
      vertex 139.129 -6.52413 3
      vertex 136.607 -2.53298 3
      vertex 138.545 -6.75528 3
    endloop
  endfacet
  facet normal 0 0 1
    outer loop
      vertex 138.545 -6.75528 3
      vertex 136.607 -2.53298 3
      vertex 137.937 -6.91144 3
    endloop
  endfacet
  facet normal -0 0 1
    outer loop
      vertex 136.277 -2.71448 3
      vertex 137.937 -6.91144 3
      vertex 136.607 -2.53298 3
    endloop
  endfacet
  facet normal 0 0 1
    outer loop
      vertex 137.937 -6.91144 3
      vertex 136.277 -2.71448 3
      vertex 137.314 -6.99013 3
    endloop
  endfacet
  facet normal -0 0 1
    outer loop
      vertex 135.927 -2.85317 3
      vertex 137.314 -6.99013 3
      vertex 136.277 -2.71448 3
    endloop
  endfacet
  facet normal -0 0 1
    outer loop
      vertex 135.562 -2.94686 3
      vertex 137.314 -6.99013 3
      vertex 135.927 -2.85317 3
    endloop
  endfacet
  facet normal -0 0 1
    outer loop
      vertex 135.188 -2.99408 3
      vertex 137.314 -6.99013 3
      vertex 135.562 -2.94686 3
    endloop
  endfacet
  facet normal -0 0 1
    outer loop
      vertex 134.812 -2.99408 3
      vertex 137.314 -6.99013 3
      vertex 135.188 -2.99408 3
    endloop
  endfacet
  facet normal 0 0 1
    outer loop
      vertex 134.438 -2.94686 3
      vertex 137.314 -6.99013 3
      vertex 134.812 -2.99408 3
    endloop
  endfacet
  facet normal 0 0 1
    outer loop
      vertex 134.073 -2.85317 3
      vertex 137.314 -6.99013 3
      vertex 134.438 -2.94686 3
    endloop
  endfacet
  facet normal 0 0 1
    outer loop
      vertex 133.723 -2.71448 3
      vertex 137.314 -6.99013 3
      vertex 134.073 -2.85317 3
    endloop
  endfacet
  facet normal 0 0 1
    outer loop
      vertex 133.393 -2.53298 3
      vertex 137.314 -6.99013 3
      vertex 133.723 -2.71448 3
    endloop
  endfacet
  facet normal 0 0 1
    outer loop
      vertex 133.088 -2.31154 3
      vertex 137.314 -6.99013 3
      vertex 133.393 -2.53298 3
    endloop
  endfacet
  facet normal 0 0 1
    outer loop
      vertex 132.813 -2.05364 3
      vertex 137.314 -6.99013 3
      vertex 133.088 -2.31154 3
    endloop
  endfacet
  facet normal -0 0 1
    outer loop
      vertex -132 0 3
      vertex 132.024 -0.375999 3
      vertex 132 0 3
    endloop
  endfacet
  facet normal 0 0 1
    outer loop
      vertex -132.024 -0.375999 3
      vertex 132.024 -0.375999 3
      vertex -132 0 3
    endloop
  endfacet
  facet normal 0 0 1
    outer loop
      vertex 132.024 -0.375999 3
      vertex -132.024 -0.375999 3
      vertex 132.094 -0.746069 3
    endloop
  endfacet
  facet normal 0 0 1
    outer loop
      vertex -132.094 -0.746069 3
      vertex 132.094 -0.746069 3
      vertex -132.024 -0.375999 3
    endloop
  endfacet
  facet normal 0 0 1
    outer loop
      vertex 132.094 -0.746069 3
      vertex -132.094 -0.746069 3
      vertex 132.211 -1.10437 3
    endloop
  endfacet
  facet normal 0 0 1
    outer loop
      vertex -132.211 -1.10437 3
      vertex 132.211 -1.10437 3
      vertex -132.094 -0.746069 3
    endloop
  endfacet
  facet normal 0 0 1
    outer loop
      vertex 132.211 -1.10437 3
      vertex -132.211 -1.10437 3
      vertex 132.371 -1.44526 3
    endloop
  endfacet
  facet normal 0 0 1
    outer loop
      vertex -132.371 -1.44526 3
      vertex 132.371 -1.44526 3
      vertex -132.211 -1.10437 3
    endloop
  endfacet
  facet normal 0 0 1
    outer loop
      vertex 132.371 -1.44526 3
      vertex -132.371 -1.44526 3
      vertex 132.573 -1.76336 3
    endloop
  endfacet
  facet normal 0 0 1
    outer loop
      vertex -132.573 -1.76336 3
      vertex 132.573 -1.76336 3
      vertex -132.371 -1.44526 3
    endloop
  endfacet
  facet normal 0 0 1
    outer loop
      vertex 132.573 -1.76336 3
      vertex -132.573 -1.76336 3
      vertex 132.813 -2.05364 3
    endloop
  endfacet
  facet normal 0 0 1
    outer loop
      vertex -132.813 -2.05364 3
      vertex 132.813 -2.05364 3
      vertex -132.573 -1.76336 3
    endloop
  endfacet
  facet normal 0 0 1
    outer loop
      vertex 132.813 -2.05364 3
      vertex -132.813 -2.05364 3
      vertex 137.314 -6.99013 3
    endloop
  endfacet
  facet normal 0 0 1
    outer loop
      vertex -137.314 -6.99013 3
      vertex -132.813 -2.05364 3
      vertex -133.088 -2.31154 3
    endloop
  endfacet
  facet normal 0 0 1
    outer loop
      vertex -137.314 -6.99013 3
      vertex -133.088 -2.31154 3
      vertex -133.393 -2.53298 3
    endloop
  endfacet
  facet normal 0 0 1
    outer loop
      vertex -137.314 -6.99013 3
      vertex -133.393 -2.53298 3
      vertex -133.723 -2.71448 3
    endloop
  endfacet
  facet normal 0 0 1
    outer loop
      vertex -137.314 -6.99013 3
      vertex -133.723 -2.71448 3
      vertex -134.073 -2.85317 3
    endloop
  endfacet
  facet normal 0 0 1
    outer loop
      vertex -137.314 -6.99013 3
      vertex -134.073 -2.85317 3
      vertex -134.438 -2.94686 3
    endloop
  endfacet
  facet normal 0 0 1
    outer loop
      vertex -137.314 -6.99013 3
      vertex -134.438 -2.94686 3
      vertex -134.812 -2.99408 3
    endloop
  endfacet
  facet normal 0 0 1
    outer loop
      vertex -137.314 -6.99013 3
      vertex -134.812 -2.99408 3
      vertex -135.188 -2.99408 3
    endloop
  endfacet
  facet normal 0 0 1
    outer loop
      vertex -132.813 -2.05364 3
      vertex -137.314 -6.99013 3
      vertex 137.314 -6.99013 3
    endloop
  endfacet
  facet normal 0 0 1
    outer loop
      vertex -135.562 -2.94686 3
      vertex -137.314 -6.99013 3
      vertex -135.188 -2.99408 3
    endloop
  endfacet
  facet normal 0 0 1
    outer loop
      vertex -135.927 -2.85317 3
      vertex -137.314 -6.99013 3
      vertex -135.562 -2.94686 3
    endloop
  endfacet
  facet normal 0 0 1
    outer loop
      vertex -136.277 -2.71448 3
      vertex -137.314 -6.99013 3
      vertex -135.927 -2.85317 3
    endloop
  endfacet
  facet normal 0 0 1
    outer loop
      vertex -137.937 -6.91144 3
      vertex -136.277 -2.71448 3
      vertex -136.607 -2.53298 3
    endloop
  endfacet
  facet normal 0 0 1
    outer loop
      vertex -139.129 -6.52413 3
      vertex -136.607 -2.53298 3
      vertex -136.912 -2.31154 3
    endloop
  endfacet
  facet normal 0 0 1
    outer loop
      vertex -140.187 -5.85257 3
      vertex -136.912 -2.31154 3
      vertex -137.187 -2.05364 3
    endloop
  endfacet
  facet normal 0 0 1
    outer loop
      vertex -141.045 -4.93893 3
      vertex -137.187 -2.05364 3
      vertex -137.427 -1.76336 3
    endloop
  endfacet
  facet normal 0 0 1
    outer loop
      vertex -141.649 -3.84062 3
      vertex -137.427 -1.76336 3
      vertex -137.629 -1.44526 3
    endloop
  endfacet
  facet normal 0 0 1
    outer loop
      vertex -141.961 -2.62667 3
      vertex -137.629 -1.44526 3
      vertex -137.789 -1.10437 3
    endloop
  endfacet
  facet normal 0 0 1
    outer loop
      vertex -142 -2 3
      vertex -137.789 -1.10437 3
      vertex -137.906 -0.746069 3
    endloop
  endfacet
  facet normal 0 0 1
    outer loop
      vertex -136.277 -2.71448 3
      vertex -137.937 -6.91144 3
      vertex -137.314 -6.99013 3
    endloop
  endfacet
  facet normal 0 0 1
    outer loop
      vertex -142 -2 3
      vertex -137.906 -0.746069 3
      vertex -137.976 -0.375999 3
    endloop
  endfacet
  facet normal 0 0 1
    outer loop
      vertex -142 -2 3
      vertex -137.976 -0.375999 3
      vertex -138 0 3
    endloop
  endfacet
  facet normal -0 0 1
    outer loop
      vertex -141.382 4.40877 3
      vertex -137.427 1.76336 3
      vertex -141.045 4.93893 3
    endloop
  endfacet
  facet normal 0 0 1
    outer loop
      vertex -142 -2 3
      vertex -138 0 3
      vertex -142 2 3
    endloop
  endfacet
  facet normal -0 0 1
    outer loop
      vertex -141.649 3.84062 3
      vertex -137.427 1.76336 3
      vertex -141.382 4.40877 3
    endloop
  endfacet
  facet normal 0 0 1
    outer loop
      vertex -137.789 -1.10437 3
      vertex -142 -2 3
      vertex -141.961 -2.62667 3
    endloop
  endfacet
  facet normal 0 0 1
    outer loop
      vertex -137.427 1.76336 3
      vertex -141.649 3.84062 3
      vertex -137.629 1.44526 3
    endloop
  endfacet
  facet normal 0 0 1
    outer loop
      vertex -136.607 -2.53298 3
      vertex -138.545 -6.75528 3
      vertex -137.937 -6.91144 3
    endloop
  endfacet
  facet normal -0 0 1
    outer loop
      vertex -141.843 3.24345 3
      vertex -137.629 1.44526 3
      vertex -141.649 3.84062 3
    endloop
  endfacet
  facet normal 0 0 1
    outer loop
      vertex -136.607 -2.53298 3
      vertex -139.129 -6.52413 3
      vertex -138.545 -6.75528 3
    endloop
  endfacet
  facet normal -0 0 1
    outer loop
      vertex -141.961 2.62667 3
      vertex -137.629 1.44526 3
      vertex -141.843 3.24345 3
    endloop
  endfacet
  facet normal 0 0 1
    outer loop
      vertex -136.912 -2.31154 3
      vertex -139.679 -6.22164 3
      vertex -139.129 -6.52413 3
    endloop
  endfacet
  facet normal 0 0 1
    outer loop
      vertex -137.629 1.44526 3
      vertex -141.961 2.62667 3
      vertex -137.789 1.10437 3
    endloop
  endfacet
  facet normal 0 0 1
    outer loop
      vertex -136.912 -2.31154 3
      vertex -140.187 -5.85257 3
      vertex -139.679 -6.22164 3
    endloop
  endfacet
  facet normal -0 0 1
    outer loop
      vertex -142 2 3
      vertex -137.789 1.10437 3
      vertex -141.961 2.62667 3
    endloop
  endfacet
  facet normal 0 0 1
    outer loop
      vertex -137.187 -2.05364 3
      vertex -140.645 -5.42274 3
      vertex -140.187 -5.85257 3
    endloop
  endfacet
  facet normal 0 0 1
    outer loop
      vertex -137.789 1.10437 3
      vertex -142 2 3
      vertex -137.906 0.746069 3
    endloop
  endfacet
  facet normal 0 0 1
    outer loop
      vertex -137.187 -2.05364 3
      vertex -141.045 -4.93893 3
      vertex -140.645 -5.42274 3
    endloop
  endfacet
  facet normal 0 0 1
    outer loop
      vertex -137.906 0.746069 3
      vertex -142 2 3
      vertex -137.976 0.375999 3
    endloop
  endfacet
  facet normal 0 0 1
    outer loop
      vertex -137.427 -1.76336 3
      vertex -141.382 -4.40877 3
      vertex -141.045 -4.93893 3
    endloop
  endfacet
  facet normal 0 0 1
    outer loop
      vertex -137.976 0.375999 3
      vertex -142 2 3
      vertex -138 0 3
    endloop
  endfacet
  facet normal 0 0 1
    outer loop
      vertex -137.427 -1.76336 3
      vertex -141.649 -3.84062 3
      vertex -141.382 -4.40877 3
    endloop
  endfacet
  facet normal 0 0 1
    outer loop
      vertex -137.629 -1.44526 3
      vertex -141.843 -3.24345 3
      vertex -141.649 -3.84062 3
    endloop
  endfacet
  facet normal 0 0 1
    outer loop
      vertex -137.629 -1.44526 3
      vertex -141.961 -2.62667 3
      vertex -141.843 -3.24345 3
    endloop
  endfacet
  facet normal 0.481919 -0.876216 0
    outer loop
      vertex -136.607 2.53298 0
      vertex -136.277 2.71448 3
      vertex -136.607 2.53298 3
    endloop
  endfacet
  facet normal 0.481919 -0.876216 0
    outer loop
      vertex -136.277 2.71448 3
      vertex -136.607 2.53298 0
      vertex -136.277 2.71448 0
    endloop
  endfacet
  facet normal 0.587515 -0.809213 0
    outer loop
      vertex -136.912 2.31154 0
      vertex -136.607 2.53298 3
      vertex -136.912 2.31154 3
    endloop
  endfacet
  facet normal 0.587515 -0.809213 0
    outer loop
      vertex -136.607 2.53298 3
      vertex -136.912 2.31154 0
      vertex -136.607 2.53298 0
    endloop
  endfacet
  facet normal 0.125262 -0.992124 0
    outer loop
      vertex -135.562 2.94686 0
      vertex -135.188 2.99408 3
      vertex -135.562 2.94686 3
    endloop
  endfacet
  facet normal 0.125262 -0.992124 0
    outer loop
      vertex -135.188 2.99408 3
      vertex -135.562 2.94686 0
      vertex -135.188 2.99408 0
    endloop
  endfacet
  facet normal -0.997969 0.0637003 0
    outer loop
      vertex -132.024 -0.375999 0
      vertex -132 0 3
      vertex -132 0 0
    endloop
  endfacet
  facet normal -0.997969 0.0637003 0
    outer loop
      vertex -132 0 3
      vertex -132.024 -0.375999 0
      vertex -132.024 -0.375999 3
    endloop
  endfacet
  facet normal -0.481919 0.876216 0
    outer loop
      vertex -133.393 -2.53298 0
      vertex -133.723 -2.71448 3
      vertex -133.393 -2.53298 3
    endloop
  endfacet
  facet normal -0.481919 0.876216 0
    outer loop
      vertex -133.723 -2.71448 3
      vertex -133.393 -2.53298 0
      vertex -133.723 -2.71448 0
    endloop
  endfacet
  facet normal -0.684065 0.729421 0
    outer loop
      vertex -132.813 -2.05364 0
      vertex -133.088 -2.31154 3
      vertex -132.813 -2.05364 3
    endloop
  endfacet
  facet normal -0.684065 0.729421 0
    outer loop
      vertex -133.088 -2.31154 3
      vertex -132.813 -2.05364 0
      vertex -133.088 -2.31154 0
    endloop
  endfacet
  facet normal -0.982577 0.185858 0
    outer loop
      vertex -132.094 -0.746069 0
      vertex -132.024 -0.375999 3
      vertex -132.024 -0.375999 0
    endloop
  endfacet
  facet normal -0.982577 0.185858 0
    outer loop
      vertex -132.024 -0.375999 3
      vertex -132.094 -0.746069 0
      vertex -132.094 -0.746069 3
    endloop
  endfacet
  facet normal 0 0 -1
    outer loop
      vertex 137.789 -1.10437 0
      vertex 142 -2 0
      vertex 141.961 -2.62667 0
    endloop
  endfacet
  facet normal 0 0 -1
    outer loop
      vertex 142 -2 0
      vertex 138 0 0
      vertex 142 2 0
    endloop
  endfacet
  facet normal 0 0 -1
    outer loop
      vertex 137.629 -1.44526 0
      vertex 141.961 -2.62667 0
      vertex 141.843 -3.24345 0
    endloop
  endfacet
  facet normal 0 0 -1
    outer loop
      vertex 137.976 0.375999 0
      vertex 142 2 0
      vertex 138 0 0
    endloop
  endfacet
  facet normal 0 0 -1
    outer loop
      vertex 137.629 -1.44526 0
      vertex 141.843 -3.24345 0
      vertex 141.649 -3.84062 0
    endloop
  endfacet
  facet normal 0 0 -1
    outer loop
      vertex 137.906 0.746069 0
      vertex 142 2 0
      vertex 137.976 0.375999 0
    endloop
  endfacet
  facet normal 0 0 -1
    outer loop
      vertex 137.427 -1.76336 0
      vertex 141.649 -3.84062 0
      vertex 141.382 -4.40877 0
    endloop
  endfacet
  facet normal 0 0 -1
    outer loop
      vertex 137.789 1.10437 0
      vertex 142 2 0
      vertex 137.906 0.746069 0
    endloop
  endfacet
  facet normal 0 0 -1
    outer loop
      vertex 137.427 -1.76336 0
      vertex 141.382 -4.40877 0
      vertex 141.045 -4.93893 0
    endloop
  endfacet
  facet normal -0 0 -1
    outer loop
      vertex 142 2 0
      vertex 137.789 1.10437 0
      vertex 141.961 2.62667 0
    endloop
  endfacet
  facet normal 0 0 -1
    outer loop
      vertex 137.187 -2.05364 0
      vertex 141.045 -4.93893 0
      vertex 140.645 -5.42274 0
    endloop
  endfacet
  facet normal 0 0 -1
    outer loop
      vertex 137.629 1.44526 0
      vertex 141.961 2.62667 0
      vertex 137.789 1.10437 0
    endloop
  endfacet
  facet normal 0 0 -1
    outer loop
      vertex 137.187 -2.05364 0
      vertex 140.645 -5.42274 0
      vertex 140.187 -5.85257 0
    endloop
  endfacet
  facet normal -0 0 -1
    outer loop
      vertex 141.961 2.62667 0
      vertex 137.629 1.44526 0
      vertex 141.843 3.24345 0
    endloop
  endfacet
  facet normal 0 0 -1
    outer loop
      vertex 136.912 -2.31154 0
      vertex 140.187 -5.85257 0
      vertex 139.679 -6.22164 0
    endloop
  endfacet
  facet normal -0 0 -1
    outer loop
      vertex 141.843 3.24345 0
      vertex 137.629 1.44526 0
      vertex 141.649 3.84062 0
    endloop
  endfacet
  facet normal 0 0 -1
    outer loop
      vertex 136.912 -2.31154 0
      vertex 139.679 -6.22164 0
      vertex 139.129 -6.52413 0
    endloop
  endfacet
  facet normal 0 0 -1
    outer loop
      vertex 137.427 1.76336 0
      vertex 141.649 3.84062 0
      vertex 137.629 1.44526 0
    endloop
  endfacet
  facet normal 0 0 -1
    outer loop
      vertex 136.607 -2.53298 0
      vertex 139.129 -6.52413 0
      vertex 138.545 -6.75528 0
    endloop
  endfacet
  facet normal -0 0 -1
    outer loop
      vertex 141.649 3.84062 0
      vertex 137.427 1.76336 0
      vertex 141.382 4.40877 0
    endloop
  endfacet
  facet normal -0 0 -1
    outer loop
      vertex 141.382 4.40877 0
      vertex 137.427 1.76336 0
      vertex 141.045 4.93893 0
    endloop
  endfacet
  facet normal 0 0 -1
    outer loop
      vertex 142 -2 0
      vertex 137.976 -0.375999 0
      vertex 138 0 0
    endloop
  endfacet
  facet normal 0 0 -1
    outer loop
      vertex 136.607 -2.53298 0
      vertex 138.545 -6.75528 0
      vertex 137.937 -6.91144 0
    endloop
  endfacet
  facet normal 0 0 -1
    outer loop
      vertex 142 -2 0
      vertex 137.906 -0.746069 0
      vertex 137.976 -0.375999 0
    endloop
  endfacet
  facet normal 0 0 -1
    outer loop
      vertex 142 -2 0
      vertex 137.789 -1.10437 0
      vertex 137.906 -0.746069 0
    endloop
  endfacet
  facet normal 0 0 -1
    outer loop
      vertex 141.961 -2.62667 0
      vertex 137.629 -1.44526 0
      vertex 137.789 -1.10437 0
    endloop
  endfacet
  facet normal 0 0 -1
    outer loop
      vertex 141.649 -3.84062 0
      vertex 137.427 -1.76336 0
      vertex 137.629 -1.44526 0
    endloop
  endfacet
  facet normal 0 0 -1
    outer loop
      vertex 136.277 -2.71448 0
      vertex 137.937 -6.91144 0
      vertex 137.314 -6.99013 0
    endloop
  endfacet
  facet normal 0 0 -1
    outer loop
      vertex 141.045 -4.93893 0
      vertex 137.187 -2.05364 0
      vertex 137.427 -1.76336 0
    endloop
  endfacet
  facet normal 0 0 -1
    outer loop
      vertex 140.187 -5.85257 0
      vertex 136.912 -2.31154 0
      vertex 137.187 -2.05364 0
    endloop
  endfacet
  facet normal 0 0 -1
    outer loop
      vertex 139.129 -6.52413 0
      vertex 136.607 -2.53298 0
      vertex 136.912 -2.31154 0
    endloop
  endfacet
  facet normal 0 0 -1
    outer loop
      vertex 137.937 -6.91144 0
      vertex 136.277 -2.71448 0
      vertex 136.607 -2.53298 0
    endloop
  endfacet
  facet normal 0 0 -1
    outer loop
      vertex 137.314 -6.99013 0
      vertex 135.927 -2.85317 0
      vertex 136.277 -2.71448 0
    endloop
  endfacet
  facet normal 0 0 -1
    outer loop
      vertex 137.314 -6.99013 0
      vertex 135.562 -2.94686 0
      vertex 135.927 -2.85317 0
    endloop
  endfacet
  facet normal 0 0 -1
    outer loop
      vertex 137.314 -6.99013 0
      vertex 135.188 -2.99408 0
      vertex 135.562 -2.94686 0
    endloop
  endfacet
  facet normal 0 0 -1
    outer loop
      vertex 137.314 -6.99013 0
      vertex 134.812 -2.99408 0
      vertex 135.188 -2.99408 0
    endloop
  endfacet
  facet normal 0 0 -1
    outer loop
      vertex 137.314 -6.99013 0
      vertex 134.438 -2.94686 0
      vertex 134.812 -2.99408 0
    endloop
  endfacet
  facet normal 0 0 -1
    outer loop
      vertex 137.314 -6.99013 0
      vertex 134.073 -2.85317 0
      vertex 134.438 -2.94686 0
    endloop
  endfacet
  facet normal 0 0 -1
    outer loop
      vertex 137.314 -6.99013 0
      vertex 133.723 -2.71448 0
      vertex 134.073 -2.85317 0
    endloop
  endfacet
  facet normal 0 0 -1
    outer loop
      vertex 137.314 -6.99013 0
      vertex 133.393 -2.53298 0
      vertex 133.723 -2.71448 0
    endloop
  endfacet
  facet normal 0 0 -1
    outer loop
      vertex 137.314 -6.99013 0
      vertex 133.088 -2.31154 0
      vertex 133.393 -2.53298 0
    endloop
  endfacet
  facet normal 0 0 -1
    outer loop
      vertex 137.314 -6.99013 0
      vertex 132.813 -2.05364 0
      vertex 133.088 -2.31154 0
    endloop
  endfacet
  facet normal 0 0 -1
    outer loop
      vertex 132.024 -0.375999 0
      vertex -132 0 0
      vertex 132 0 0
    endloop
  endfacet
  facet normal 0 0 -1
    outer loop
      vertex -132.024 -0.375999 0
      vertex 132.024 -0.375999 0
      vertex 132.094 -0.746069 0
    endloop
  endfacet
  facet normal 0 0 -1
    outer loop
      vertex -132.094 -0.746069 0
      vertex 132.094 -0.746069 0
      vertex 132.211 -1.10437 0
    endloop
  endfacet
  facet normal 0 0 -1
    outer loop
      vertex -132.211 -1.10437 0
      vertex 132.211 -1.10437 0
      vertex 132.371 -1.44526 0
    endloop
  endfacet
  facet normal 0 0 -1
    outer loop
      vertex -132.371 -1.44526 0
      vertex 132.371 -1.44526 0
      vertex 132.573 -1.76336 0
    endloop
  endfacet
  facet normal 0 0 -1
    outer loop
      vertex -132.573 -1.76336 0
      vertex 132.573 -1.76336 0
      vertex 132.813 -2.05364 0
    endloop
  endfacet
  facet normal 0 0 -1
    outer loop
      vertex -132.813 -2.05364 0
      vertex 132.813 -2.05364 0
      vertex 137.314 -6.99013 0
    endloop
  endfacet
  facet normal 0 0 -1
    outer loop
      vertex 132.024 -0.375999 0
      vertex -132.024 -0.375999 0
      vertex -132 0 0
    endloop
  endfacet
  facet normal 0 0 -1
    outer loop
      vertex 132.094 -0.746069 0
      vertex -132.094 -0.746069 0
      vertex -132.024 -0.375999 0
    endloop
  endfacet
  facet normal 0 0 -1
    outer loop
      vertex 132.211 -1.10437 0
      vertex -132.211 -1.10437 0
      vertex -132.094 -0.746069 0
    endloop
  endfacet
  facet normal 0 0 -1
    outer loop
      vertex 132.371 -1.44526 0
      vertex -132.371 -1.44526 0
      vertex -132.211 -1.10437 0
    endloop
  endfacet
  facet normal 0 0 -1
    outer loop
      vertex 132.573 -1.76336 0
      vertex -132.573 -1.76336 0
      vertex -132.371 -1.44526 0
    endloop
  endfacet
  facet normal 0 0 -1
    outer loop
      vertex 132.813 -2.05364 0
      vertex -132.813 -2.05364 0
      vertex -132.573 -1.76336 0
    endloop
  endfacet
  facet normal 0 0 -1
    outer loop
      vertex -137.314 -6.99013 0
      vertex -132.813 -2.05364 0
      vertex 137.314 -6.99013 0
    endloop
  endfacet
  facet normal 0 0 -1
    outer loop
      vertex -132.813 -2.05364 0
      vertex -137.314 -6.99013 0
      vertex -133.088 -2.31154 0
    endloop
  endfacet
  facet normal 0 0 -1
    outer loop
      vertex -133.088 -2.31154 0
      vertex -137.314 -6.99013 0
      vertex -133.393 -2.53298 0
    endloop
  endfacet
  facet normal 0 0 -1
    outer loop
      vertex -133.393 -2.53298 0
      vertex -137.314 -6.99013 0
      vertex -133.723 -2.71448 0
    endloop
  endfacet
  facet normal 0 0 -1
    outer loop
      vertex -133.723 -2.71448 0
      vertex -137.314 -6.99013 0
      vertex -134.073 -2.85317 0
    endloop
  endfacet
  facet normal 0 0 -1
    outer loop
      vertex -134.073 -2.85317 0
      vertex -137.314 -6.99013 0
      vertex -134.438 -2.94686 0
    endloop
  endfacet
  facet normal 0 0 -1
    outer loop
      vertex -134.438 -2.94686 0
      vertex -137.314 -6.99013 0
      vertex -134.812 -2.99408 0
    endloop
  endfacet
  facet normal -0 0 -1
    outer loop
      vertex -134.812 -2.99408 0
      vertex -137.314 -6.99013 0
      vertex -135.188 -2.99408 0
    endloop
  endfacet
  facet normal 0 0 -1
    outer loop
      vertex -137.314 -6.99013 0
      vertex -135.562 -2.94686 0
      vertex -135.188 -2.99408 0
    endloop
  endfacet
  facet normal 0 0 -1
    outer loop
      vertex -137.314 -6.99013 0
      vertex -135.927 -2.85317 0
      vertex -135.562 -2.94686 0
    endloop
  endfacet
  facet normal 0 0 -1
    outer loop
      vertex -137.314 -6.99013 0
      vertex -136.277 -2.71448 0
      vertex -135.927 -2.85317 0
    endloop
  endfacet
  facet normal 0 0 -1
    outer loop
      vertex -137.937 -6.91144 0
      vertex -136.277 -2.71448 0
      vertex -137.314 -6.99013 0
    endloop
  endfacet
  facet normal -0 0 -1
    outer loop
      vertex -136.277 -2.71448 0
      vertex -137.937 -6.91144 0
      vertex -136.607 -2.53298 0
    endloop
  endfacet
  facet normal 0 0 -1
    outer loop
      vertex -138.545 -6.75528 0
      vertex -136.607 -2.53298 0
      vertex -137.937 -6.91144 0
    endloop
  endfacet
  facet normal 0 0 -1
    outer loop
      vertex -139.129 -6.52413 0
      vertex -136.607 -2.53298 0
      vertex -138.545 -6.75528 0
    endloop
  endfacet
  facet normal -0 0 -1
    outer loop
      vertex -136.607 -2.53298 0
      vertex -139.129 -6.52413 0
      vertex -136.912 -2.31154 0
    endloop
  endfacet
  facet normal 0 0 -1
    outer loop
      vertex -139.679 -6.22164 0
      vertex -136.912 -2.31154 0
      vertex -139.129 -6.52413 0
    endloop
  endfacet
  facet normal 0 0 -1
    outer loop
      vertex -140.187 -5.85257 0
      vertex -136.912 -2.31154 0
      vertex -139.679 -6.22164 0
    endloop
  endfacet
  facet normal -0 0 -1
    outer loop
      vertex -136.912 -2.31154 0
      vertex -140.187 -5.85257 0
      vertex -137.187 -2.05364 0
    endloop
  endfacet
  facet normal 0 0 -1
    outer loop
      vertex -140.645 -5.42274 0
      vertex -137.187 -2.05364 0
      vertex -140.187 -5.85257 0
    endloop
  endfacet
  facet normal 0 0 -1
    outer loop
      vertex -141.045 -4.93893 0
      vertex -137.187 -2.05364 0
      vertex -140.645 -5.42274 0
    endloop
  endfacet
  facet normal -0 0 -1
    outer loop
      vertex -137.187 -2.05364 0
      vertex -141.045 -4.93893 0
      vertex -137.427 -1.76336 0
    endloop
  endfacet
  facet normal 0 0 -1
    outer loop
      vertex 137.187 2.05364 0
      vertex 141.045 4.93893 0
      vertex 137.427 1.76336 0
    endloop
  endfacet
  facet normal -0 0 -1
    outer loop
      vertex 141.045 4.93893 0
      vertex 137.187 2.05364 0
      vertex 140.645 5.42274 0
    endloop
  endfacet
  facet normal -0 0 -1
    outer loop
      vertex 140.645 5.42274 0
      vertex 137.187 2.05364 0
      vertex 140.187 5.85257 0
    endloop
  endfacet
  facet normal 0 0 -1
    outer loop
      vertex 136.912 2.31154 0
      vertex 140.187 5.85257 0
      vertex 137.187 2.05364 0
    endloop
  endfacet
  facet normal -0 0 -1
    outer loop
      vertex 140.187 5.85257 0
      vertex 136.912 2.31154 0
      vertex 139.679 6.22164 0
    endloop
  endfacet
  facet normal -0 0 -1
    outer loop
      vertex 139.679 6.22164 0
      vertex 136.912 2.31154 0
      vertex 139.129 6.52413 0
    endloop
  endfacet
  facet normal 0 0 -1
    outer loop
      vertex 136.607 2.53298 0
      vertex 139.129 6.52413 0
      vertex 136.912 2.31154 0
    endloop
  endfacet
  facet normal -0 0 -1
    outer loop
      vertex 139.129 6.52413 0
      vertex 136.607 2.53298 0
      vertex 138.545 6.75528 0
    endloop
  endfacet
  facet normal -0 0 -1
    outer loop
      vertex 138.545 6.75528 0
      vertex 136.607 2.53298 0
      vertex 137.937 6.91144 0
    endloop
  endfacet
  facet normal 0 0 -1
    outer loop
      vertex 136.277 2.71448 0
      vertex 137.937 6.91144 0
      vertex 136.607 2.53298 0
    endloop
  endfacet
  facet normal -0 0 -1
    outer loop
      vertex 137.937 6.91144 0
      vertex 136.277 2.71448 0
      vertex 137.314 6.99013 0
    endloop
  endfacet
  facet normal 0 0 -1
    outer loop
      vertex 135.927 2.85317 0
      vertex 137.314 6.99013 0
      vertex 136.277 2.71448 0
    endloop
  endfacet
  facet normal 0 0 -1
    outer loop
      vertex 135.562 2.94686 0
      vertex 137.314 6.99013 0
      vertex 135.927 2.85317 0
    endloop
  endfacet
  facet normal 0 0 -1
    outer loop
      vertex 135.188 2.99408 0
      vertex 137.314 6.99013 0
      vertex 135.562 2.94686 0
    endloop
  endfacet
  facet normal 0 0 -1
    outer loop
      vertex 134.812 2.99408 0
      vertex 137.314 6.99013 0
      vertex 135.188 2.99408 0
    endloop
  endfacet
  facet normal 0 0 -1
    outer loop
      vertex 134.438 2.94686 0
      vertex 137.314 6.99013 0
      vertex 134.812 2.99408 0
    endloop
  endfacet
  facet normal 0 0 -1
    outer loop
      vertex 134.073 2.85317 0
      vertex 137.314 6.99013 0
      vertex 134.438 2.94686 0
    endloop
  endfacet
  facet normal 0 0 -1
    outer loop
      vertex 133.723 2.71448 0
      vertex 137.314 6.99013 0
      vertex 134.073 2.85317 0
    endloop
  endfacet
  facet normal 0 0 -1
    outer loop
      vertex 133.393 2.53298 0
      vertex 137.314 6.99013 0
      vertex 133.723 2.71448 0
    endloop
  endfacet
  facet normal 0 0 -1
    outer loop
      vertex 133.088 2.31154 0
      vertex 137.314 6.99013 0
      vertex 133.393 2.53298 0
    endloop
  endfacet
  facet normal 0 0 -1
    outer loop
      vertex 132.813 2.05364 0
      vertex 137.314 6.99013 0
      vertex 133.088 2.31154 0
    endloop
  endfacet
  facet normal 0 0 -1
    outer loop
      vertex -132 0 0
      vertex 132.024 0.375999 0
      vertex 132 0 0
    endloop
  endfacet
  facet normal 0 0 -1
    outer loop
      vertex -132.024 0.375999 0
      vertex 132.024 0.375999 0
      vertex -132 0 0
    endloop
  endfacet
  facet normal 0 0 -1
    outer loop
      vertex 132.024 0.375999 0
      vertex -132.024 0.375999 0
      vertex 132.094 0.746069 0
    endloop
  endfacet
  facet normal 0 0 -1
    outer loop
      vertex -132.094 0.746069 0
      vertex 132.094 0.746069 0
      vertex -132.024 0.375999 0
    endloop
  endfacet
  facet normal 0 0 -1
    outer loop
      vertex 132.094 0.746069 0
      vertex -132.094 0.746069 0
      vertex 132.211 1.10437 0
    endloop
  endfacet
  facet normal 0 0 -1
    outer loop
      vertex -132.211 1.10437 0
      vertex 132.211 1.10437 0
      vertex -132.094 0.746069 0
    endloop
  endfacet
  facet normal 0 0 -1
    outer loop
      vertex 132.211 1.10437 0
      vertex -132.211 1.10437 0
      vertex 132.371 1.44526 0
    endloop
  endfacet
  facet normal 0 0 -1
    outer loop
      vertex -132.371 1.44526 0
      vertex 132.371 1.44526 0
      vertex -132.211 1.10437 0
    endloop
  endfacet
  facet normal 0 0 -1
    outer loop
      vertex 132.371 1.44526 0
      vertex -132.371 1.44526 0
      vertex 132.573 1.76336 0
    endloop
  endfacet
  facet normal 0 0 -1
    outer loop
      vertex -132.573 1.76336 0
      vertex 132.573 1.76336 0
      vertex -132.371 1.44526 0
    endloop
  endfacet
  facet normal 0 0 -1
    outer loop
      vertex 132.573 1.76336 0
      vertex -132.573 1.76336 0
      vertex 132.813 2.05364 0
    endloop
  endfacet
  facet normal 0 0 -1
    outer loop
      vertex -132.813 2.05364 0
      vertex 132.813 2.05364 0
      vertex -132.573 1.76336 0
    endloop
  endfacet
  facet normal 0 0 -1
    outer loop
      vertex 132.813 2.05364 0
      vertex -132.813 2.05364 0
      vertex 137.314 6.99013 0
    endloop
  endfacet
  facet normal 0 0 -1
    outer loop
      vertex -137.314 6.99013 0
      vertex -132.813 2.05364 0
      vertex -133.088 2.31154 0
    endloop
  endfacet
  facet normal 0 0 -1
    outer loop
      vertex -137.314 6.99013 0
      vertex -133.088 2.31154 0
      vertex -133.393 2.53298 0
    endloop
  endfacet
  facet normal 0 0 -1
    outer loop
      vertex -137.314 6.99013 0
      vertex -133.393 2.53298 0
      vertex -133.723 2.71448 0
    endloop
  endfacet
  facet normal 0 0 -1
    outer loop
      vertex -137.314 6.99013 0
      vertex -133.723 2.71448 0
      vertex -134.073 2.85317 0
    endloop
  endfacet
  facet normal 0 0 -1
    outer loop
      vertex -137.314 6.99013 0
      vertex -134.073 2.85317 0
      vertex -134.438 2.94686 0
    endloop
  endfacet
  facet normal 0 0 -1
    outer loop
      vertex -137.314 6.99013 0
      vertex -134.438 2.94686 0
      vertex -134.812 2.99408 0
    endloop
  endfacet
  facet normal 0 0 -1
    outer loop
      vertex -137.314 6.99013 0
      vertex -134.812 2.99408 0
      vertex -135.188 2.99408 0
    endloop
  endfacet
  facet normal 0 0 -1
    outer loop
      vertex -132.813 2.05364 0
      vertex -137.314 6.99013 0
      vertex 137.314 6.99013 0
    endloop
  endfacet
  facet normal 0 0 -1
    outer loop
      vertex -135.562 2.94686 0
      vertex -137.314 6.99013 0
      vertex -135.188 2.99408 0
    endloop
  endfacet
  facet normal 0 0 -1
    outer loop
      vertex -135.927 2.85317 0
      vertex -137.314 6.99013 0
      vertex -135.562 2.94686 0
    endloop
  endfacet
  facet normal 0 0 -1
    outer loop
      vertex -136.277 2.71448 0
      vertex -137.314 6.99013 0
      vertex -135.927 2.85317 0
    endloop
  endfacet
  facet normal 0 0 -1
    outer loop
      vertex -137.937 6.91144 0
      vertex -136.277 2.71448 0
      vertex -136.607 2.53298 0
    endloop
  endfacet
  facet normal 0 0 -1
    outer loop
      vertex -139.129 6.52413 0
      vertex -136.607 2.53298 0
      vertex -136.912 2.31154 0
    endloop
  endfacet
  facet normal 0 0 -1
    outer loop
      vertex -140.187 5.85257 0
      vertex -136.912 2.31154 0
      vertex -137.187 2.05364 0
    endloop
  endfacet
  facet normal 0 0 -1
    outer loop
      vertex -141.045 4.93893 0
      vertex -137.187 2.05364 0
      vertex -137.427 1.76336 0
    endloop
  endfacet
  facet normal 0 0 -1
    outer loop
      vertex -141.649 3.84062 0
      vertex -137.427 1.76336 0
      vertex -137.629 1.44526 0
    endloop
  endfacet
  facet normal 0 0 -1
    outer loop
      vertex -141.961 2.62667 0
      vertex -137.629 1.44526 0
      vertex -137.789 1.10437 0
    endloop
  endfacet
  facet normal 0 0 -1
    outer loop
      vertex -142 2 0
      vertex -137.789 1.10437 0
      vertex -137.906 0.746069 0
    endloop
  endfacet
  facet normal 0 0 -1
    outer loop
      vertex -136.277 2.71448 0
      vertex -137.937 6.91144 0
      vertex -137.314 6.99013 0
    endloop
  endfacet
  facet normal 0 0 -1
    outer loop
      vertex -142 2 0
      vertex -137.906 0.746069 0
      vertex -137.976 0.375999 0
    endloop
  endfacet
  facet normal 0 0 -1
    outer loop
      vertex -142 2 0
      vertex -137.976 0.375999 0
      vertex -138 0 0
    endloop
  endfacet
  facet normal 0 0 -1
    outer loop
      vertex -141.382 -4.40877 0
      vertex -137.427 -1.76336 0
      vertex -141.045 -4.93893 0
    endloop
  endfacet
  facet normal 0 0 -1
    outer loop
      vertex -142 2 0
      vertex -138 0 0
      vertex -142 -2 0
    endloop
  endfacet
  facet normal 0 0 -1
    outer loop
      vertex -141.649 -3.84062 0
      vertex -137.427 -1.76336 0
      vertex -141.382 -4.40877 0
    endloop
  endfacet
  facet normal 0 0 -1
    outer loop
      vertex -137.789 1.10437 0
      vertex -142 2 0
      vertex -141.961 2.62667 0
    endloop
  endfacet
  facet normal -0 0 -1
    outer loop
      vertex -137.427 -1.76336 0
      vertex -141.649 -3.84062 0
      vertex -137.629 -1.44526 0
    endloop
  endfacet
  facet normal 0 0 -1
    outer loop
      vertex -136.607 2.53298 0
      vertex -138.545 6.75528 0
      vertex -137.937 6.91144 0
    endloop
  endfacet
  facet normal 0 0 -1
    outer loop
      vertex -141.843 -3.24345 0
      vertex -137.629 -1.44526 0
      vertex -141.649 -3.84062 0
    endloop
  endfacet
  facet normal 0 0 -1
    outer loop
      vertex -136.607 2.53298 0
      vertex -139.129 6.52413 0
      vertex -138.545 6.75528 0
    endloop
  endfacet
  facet normal 0 0 -1
    outer loop
      vertex -141.961 -2.62667 0
      vertex -137.629 -1.44526 0
      vertex -141.843 -3.24345 0
    endloop
  endfacet
  facet normal 0 0 -1
    outer loop
      vertex -136.912 2.31154 0
      vertex -139.679 6.22164 0
      vertex -139.129 6.52413 0
    endloop
  endfacet
  facet normal -0 0 -1
    outer loop
      vertex -137.629 -1.44526 0
      vertex -141.961 -2.62667 0
      vertex -137.789 -1.10437 0
    endloop
  endfacet
  facet normal 0 0 -1
    outer loop
      vertex -136.912 2.31154 0
      vertex -140.187 5.85257 0
      vertex -139.679 6.22164 0
    endloop
  endfacet
  facet normal 0 0 -1
    outer loop
      vertex -142 -2 0
      vertex -137.789 -1.10437 0
      vertex -141.961 -2.62667 0
    endloop
  endfacet
  facet normal 0 0 -1
    outer loop
      vertex -137.187 2.05364 0
      vertex -140.645 5.42274 0
      vertex -140.187 5.85257 0
    endloop
  endfacet
  facet normal -0 0 -1
    outer loop
      vertex -137.789 -1.10437 0
      vertex -142 -2 0
      vertex -137.906 -0.746069 0
    endloop
  endfacet
  facet normal 0 0 -1
    outer loop
      vertex -137.187 2.05364 0
      vertex -141.045 4.93893 0
      vertex -140.645 5.42274 0
    endloop
  endfacet
  facet normal -0 0 -1
    outer loop
      vertex -137.906 -0.746069 0
      vertex -142 -2 0
      vertex -137.976 -0.375999 0
    endloop
  endfacet
  facet normal 0 0 -1
    outer loop
      vertex -137.427 1.76336 0
      vertex -141.382 4.40877 0
      vertex -141.045 4.93893 0
    endloop
  endfacet
  facet normal -0 0 -1
    outer loop
      vertex -137.976 -0.375999 0
      vertex -142 -2 0
      vertex -138 0 0
    endloop
  endfacet
  facet normal 0 0 -1
    outer loop
      vertex -137.427 1.76336 0
      vertex -141.649 3.84062 0
      vertex -141.382 4.40877 0
    endloop
  endfacet
  facet normal 0 0 -1
    outer loop
      vertex -137.629 1.44526 0
      vertex -141.843 3.24345 0
      vertex -141.649 3.84062 0
    endloop
  endfacet
  facet normal 0 0 -1
    outer loop
      vertex -137.629 1.44526 0
      vertex -141.961 2.62667 0
      vertex -141.843 3.24345 0
    endloop
  endfacet
  facet normal -0.905247 0.424886 0
    outer loop
      vertex -132.371 -1.44526 0
      vertex -132.211 -1.10437 3
      vertex -132.211 -1.10437 0
    endloop
  endfacet
  facet normal -0.905247 0.424886 0
    outer loop
      vertex -132.211 -1.10437 3
      vertex -132.371 -1.44526 0
      vertex -132.371 -1.44526 3
    endloop
  endfacet
  facet normal -0.770696 0.637202 0
    outer loop
      vertex -132.813 -2.05364 0
      vertex -132.573 -1.76336 3
      vertex -132.573 -1.76336 0
    endloop
  endfacet
  facet normal -0.770696 0.637202 0
    outer loop
      vertex -132.573 -1.76336 3
      vertex -132.813 -2.05364 0
      vertex -132.813 -2.05364 3
    endloop
  endfacet
  facet normal 0.684065 0.729421 -0
    outer loop
      vertex -136.912 -2.31154 0
      vertex -137.187 -2.05364 3
      vertex -136.912 -2.31154 3
    endloop
  endfacet
  facet normal 0.684065 0.729421 0
    outer loop
      vertex -137.187 -2.05364 3
      vertex -136.912 -2.31154 0
      vertex -137.187 -2.05364 0
    endloop
  endfacet
  facet normal 0.844175 0.536068 0
    outer loop
      vertex -137.427 -1.76336 3
      vertex -137.629 -1.44526 0
      vertex -137.629 -1.44526 3
    endloop
  endfacet
  facet normal 0.844175 0.536068 0
    outer loop
      vertex -137.629 -1.44526 0
      vertex -137.427 -1.76336 3
      vertex -137.427 -1.76336 0
    endloop
  endfacet
  facet normal 0.950603 0.310411 0
    outer loop
      vertex -137.789 -1.10437 3
      vertex -137.906 -0.746069 0
      vertex -137.906 -0.746069 3
    endloop
  endfacet
  facet normal 0.950603 0.310411 0
    outer loop
      vertex -137.906 -0.746069 0
      vertex -137.789 -1.10437 3
      vertex -137.789 -1.10437 0
    endloop
  endfacet
  facet normal -0.248625 0.9686 0
    outer loop
      vertex -134.073 -2.85317 0
      vertex -134.438 -2.94686 3
      vertex -134.073 -2.85317 3
    endloop
  endfacet
  facet normal -0.248625 0.9686 0
    outer loop
      vertex -134.438 -2.94686 3
      vertex -134.073 -2.85317 0
      vertex -134.438 -2.94686 0
    endloop
  endfacet
  facet normal -0.125262 0.992124 0
    outer loop
      vertex -134.438 -2.94686 0
      vertex -134.812 -2.99408 3
      vertex -134.438 -2.94686 3
    endloop
  endfacet
  facet normal -0.125262 0.992124 0
    outer loop
      vertex -134.812 -2.99408 3
      vertex -134.438 -2.94686 0
      vertex -134.812 -2.99408 0
    endloop
  endfacet
  facet normal -0.587515 0.809213 0
    outer loop
      vertex -133.088 -2.31154 0
      vertex -133.393 -2.53298 3
      vertex -133.088 -2.31154 3
    endloop
  endfacet
  facet normal -0.587515 0.809213 0
    outer loop
      vertex -133.393 -2.53298 3
      vertex -133.088 -2.31154 0
      vertex -133.393 -2.53298 0
    endloop
  endfacet
  facet normal -0.950603 0.310411 0
    outer loop
      vertex -132.211 -1.10437 0
      vertex -132.094 -0.746069 3
      vertex -132.094 -0.746069 0
    endloop
  endfacet
  facet normal -0.950603 0.310411 0
    outer loop
      vertex -132.094 -0.746069 3
      vertex -132.211 -1.10437 0
      vertex -132.211 -1.10437 3
    endloop
  endfacet
  facet normal -0.844175 0.536068 0
    outer loop
      vertex -132.573 -1.76336 0
      vertex -132.371 -1.44526 3
      vertex -132.371 -1.44526 0
    endloop
  endfacet
  facet normal -0.844175 0.536068 0
    outer loop
      vertex -132.371 -1.44526 3
      vertex -132.573 -1.76336 0
      vertex -132.573 -1.76336 3
    endloop
  endfacet
  facet normal 0.125262 0.992124 -0
    outer loop
      vertex -135.188 -2.99408 0
      vertex -135.562 -2.94686 3
      vertex -135.188 -2.99408 3
    endloop
  endfacet
  facet normal 0.125262 0.992124 0
    outer loop
      vertex -135.562 -2.94686 3
      vertex -135.188 -2.99408 0
      vertex -135.562 -2.94686 0
    endloop
  endfacet
  facet normal 0.587515 0.809213 -0
    outer loop
      vertex -136.607 -2.53298 0
      vertex -136.912 -2.31154 3
      vertex -136.607 -2.53298 3
    endloop
  endfacet
  facet normal 0.587515 0.809213 0
    outer loop
      vertex -136.912 -2.31154 3
      vertex -136.607 -2.53298 0
      vertex -136.912 -2.31154 0
    endloop
  endfacet
  facet normal 0.248625 0.9686 -0
    outer loop
      vertex -135.562 -2.94686 0
      vertex -135.927 -2.85317 3
      vertex -135.562 -2.94686 3
    endloop
  endfacet
  facet normal 0.248625 0.9686 0
    outer loop
      vertex -135.927 -2.85317 3
      vertex -135.562 -2.94686 0
      vertex -135.927 -2.85317 0
    endloop
  endfacet
  facet normal 0.770696 0.637202 0
    outer loop
      vertex -137.187 -2.05364 3
      vertex -137.427 -1.76336 0
      vertex -137.427 -1.76336 3
    endloop
  endfacet
  facet normal 0.770696 0.637202 0
    outer loop
      vertex -137.427 -1.76336 0
      vertex -137.187 -2.05364 3
      vertex -137.187 -2.05364 0
    endloop
  endfacet
  facet normal 0.905247 0.424886 0
    outer loop
      vertex -137.629 -1.44526 3
      vertex -137.789 -1.10437 0
      vertex -137.789 -1.10437 3
    endloop
  endfacet
  facet normal 0.905247 0.424886 0
    outer loop
      vertex -137.789 -1.10437 0
      vertex -137.629 -1.44526 3
      vertex -137.629 -1.44526 0
    endloop
  endfacet
  facet normal 0.982577 0.185858 0
    outer loop
      vertex -137.906 -0.746069 3
      vertex -137.976 -0.375999 0
      vertex -137.976 -0.375999 3
    endloop
  endfacet
  facet normal 0.982577 0.185858 0
    outer loop
      vertex -137.976 -0.375999 0
      vertex -137.906 -0.746069 3
      vertex -137.906 -0.746069 0
    endloop
  endfacet
  facet normal 0.997969 0.0637003 0
    outer loop
      vertex -137.976 -0.375999 3
      vertex -138 0 0
      vertex -138 0 3
    endloop
  endfacet
  facet normal 0.997969 0.0637003 0
    outer loop
      vertex -138 0 0
      vertex -137.976 -0.375999 3
      vertex -137.976 -0.375999 0
    endloop
  endfacet
  facet normal 0.368389 0.929672 -0
    outer loop
      vertex -135.927 -2.85317 0
      vertex -136.277 -2.71448 3
      vertex -135.927 -2.85317 3
    endloop
  endfacet
  facet normal 0.368389 0.929672 0
    outer loop
      vertex -136.277 -2.71448 3
      vertex -135.927 -2.85317 0
      vertex -136.277 -2.71448 0
    endloop
  endfacet
  facet normal 0.481919 0.876216 -0
    outer loop
      vertex -136.277 -2.71448 0
      vertex -136.607 -2.53298 3
      vertex -136.277 -2.71448 3
    endloop
  endfacet
  facet normal 0.481919 0.876216 0
    outer loop
      vertex -136.607 -2.53298 3
      vertex -136.277 -2.71448 0
      vertex -136.607 -2.53298 0
    endloop
  endfacet
  facet normal -0.997969 -0.0637003 0
    outer loop
      vertex 138 0 0
      vertex 137.976 0.375999 3
      vertex 137.976 0.375999 0
    endloop
  endfacet
  facet normal -0.997969 -0.0637003 0
    outer loop
      vertex 137.976 0.375999 3
      vertex 138 0 0
      vertex 138 0 3
    endloop
  endfacet
  facet normal 0.125262 -0.992124 0
    outer loop
      vertex 134.438 2.94686 0
      vertex 134.812 2.99408 3
      vertex 134.438 2.94686 3
    endloop
  endfacet
  facet normal 0.125262 -0.992124 0
    outer loop
      vertex 134.812 2.99408 3
      vertex 134.438 2.94686 0
      vertex 134.812 2.99408 0
    endloop
  endfacet
  facet normal -0.125262 0.992124 0
    outer loop
      vertex 135.562 -2.94686 0
      vertex 135.188 -2.99408 3
      vertex 135.562 -2.94686 3
    endloop
  endfacet
  facet normal -0.125262 0.992124 0
    outer loop
      vertex 135.188 -2.99408 3
      vertex 135.562 -2.94686 0
      vertex 135.188 -2.99408 0
    endloop
  endfacet
  facet normal -0.770696 0.637202 0
    outer loop
      vertex 137.187 -2.05364 0
      vertex 137.427 -1.76336 3
      vertex 137.427 -1.76336 0
    endloop
  endfacet
  facet normal -0.770696 0.637202 0
    outer loop
      vertex 137.427 -1.76336 3
      vertex 137.187 -2.05364 0
      vertex 137.187 -2.05364 3
    endloop
  endfacet
  facet normal -0.684065 -0.729421 0
    outer loop
      vertex 136.912 2.31154 0
      vertex 137.187 2.05364 3
      vertex 136.912 2.31154 3
    endloop
  endfacet
  facet normal -0.684065 -0.729421 -0
    outer loop
      vertex 137.187 2.05364 3
      vertex 136.912 2.31154 0
      vertex 137.187 2.05364 0
    endloop
  endfacet
  facet normal 0.770696 -0.637202 0
    outer loop
      vertex 132.573 1.76336 3
      vertex 132.813 2.05364 0
      vertex 132.813 2.05364 3
    endloop
  endfacet
  facet normal 0.770696 -0.637202 0
    outer loop
      vertex 132.813 2.05364 0
      vertex 132.573 1.76336 3
      vertex 132.573 1.76336 0
    endloop
  endfacet
  facet normal 0.481919 -0.876216 0
    outer loop
      vertex 133.393 2.53298 0
      vertex 133.723 2.71448 3
      vertex 133.393 2.53298 3
    endloop
  endfacet
  facet normal 0.481919 -0.876216 0
    outer loop
      vertex 133.723 2.71448 3
      vertex 133.393 2.53298 0
      vertex 133.723 2.71448 0
    endloop
  endfacet
  facet normal -0.905247 -0.424886 0
    outer loop
      vertex 137.789 1.10437 0
      vertex 137.629 1.44526 3
      vertex 137.629 1.44526 0
    endloop
  endfacet
  facet normal -0.905247 -0.424886 0
    outer loop
      vertex 137.629 1.44526 3
      vertex 137.789 1.10437 0
      vertex 137.789 1.10437 3
    endloop
  endfacet
  facet normal -0.982577 -0.185858 0
    outer loop
      vertex 137.976 0.375999 0
      vertex 137.906 0.746069 3
      vertex 137.906 0.746069 0
    endloop
  endfacet
  facet normal -0.982577 -0.185858 0
    outer loop
      vertex 137.906 0.746069 3
      vertex 137.976 0.375999 0
      vertex 137.976 0.375999 3
    endloop
  endfacet
  facet normal -0.368389 -0.929672 0
    outer loop
      vertex 135.927 2.85317 0
      vertex 136.277 2.71448 3
      vertex 135.927 2.85317 3
    endloop
  endfacet
  facet normal -0.368389 -0.929672 -0
    outer loop
      vertex 136.277 2.71448 3
      vertex 135.927 2.85317 0
      vertex 136.277 2.71448 0
    endloop
  endfacet
  facet normal -0.587515 -0.809213 0
    outer loop
      vertex 136.607 2.53298 0
      vertex 136.912 2.31154 3
      vertex 136.607 2.53298 3
    endloop
  endfacet
  facet normal -0.587515 -0.809213 -0
    outer loop
      vertex 136.912 2.31154 3
      vertex 136.607 2.53298 0
      vertex 136.912 2.31154 0
    endloop
  endfacet
  facet normal 0.905247 -0.424886 0
    outer loop
      vertex 132.211 1.10437 3
      vertex 132.371 1.44526 0
      vertex 132.371 1.44526 3
    endloop
  endfacet
  facet normal 0.905247 -0.424886 0
    outer loop
      vertex 132.371 1.44526 0
      vertex 132.211 1.10437 3
      vertex 132.211 1.10437 0
    endloop
  endfacet
  facet normal 0.844175 -0.536068 0
    outer loop
      vertex 132.371 1.44526 3
      vertex 132.573 1.76336 0
      vertex 132.573 1.76336 3
    endloop
  endfacet
  facet normal 0.844175 -0.536068 0
    outer loop
      vertex 132.573 1.76336 0
      vertex 132.371 1.44526 3
      vertex 132.371 1.44526 0
    endloop
  endfacet
  facet normal 0.587515 -0.809213 0
    outer loop
      vertex 133.088 2.31154 0
      vertex 133.393 2.53298 3
      vertex 133.088 2.31154 3
    endloop
  endfacet
  facet normal 0.587515 -0.809213 0
    outer loop
      vertex 133.393 2.53298 3
      vertex 133.088 2.31154 0
      vertex 133.393 2.53298 0
    endloop
  endfacet
  facet normal 0.248625 -0.9686 0
    outer loop
      vertex 134.073 2.85317 0
      vertex 134.438 2.94686 3
      vertex 134.073 2.85317 3
    endloop
  endfacet
  facet normal 0.248625 -0.9686 0
    outer loop
      vertex 134.438 2.94686 3
      vertex 134.073 2.85317 0
      vertex 134.438 2.94686 0
    endloop
  endfacet
  facet normal -0.248625 0.9686 0
    outer loop
      vertex 135.927 -2.85317 0
      vertex 135.562 -2.94686 3
      vertex 135.927 -2.85317 3
    endloop
  endfacet
  facet normal -0.248625 0.9686 0
    outer loop
      vertex 135.562 -2.94686 3
      vertex 135.927 -2.85317 0
      vertex 135.562 -2.94686 0
    endloop
  endfacet
  facet normal -0.950603 -0.310411 0
    outer loop
      vertex 137.906 0.746069 0
      vertex 137.789 1.10437 3
      vertex 137.789 1.10437 0
    endloop
  endfacet
  facet normal -0.950603 -0.310411 0
    outer loop
      vertex 137.789 1.10437 3
      vertex 137.906 0.746069 0
      vertex 137.906 0.746069 3
    endloop
  endfacet
  facet normal -0.770696 -0.637202 0
    outer loop
      vertex 137.427 1.76336 0
      vertex 137.187 2.05364 3
      vertex 137.187 2.05364 0
    endloop
  endfacet
  facet normal -0.770696 -0.637202 0
    outer loop
      vertex 137.187 2.05364 3
      vertex 137.427 1.76336 0
      vertex 137.427 1.76336 3
    endloop
  endfacet
  facet normal -0.844175 -0.536068 0
    outer loop
      vertex 137.629 1.44526 0
      vertex 137.427 1.76336 3
      vertex 137.427 1.76336 0
    endloop
  endfacet
  facet normal -0.844175 -0.536068 0
    outer loop
      vertex 137.427 1.76336 3
      vertex 137.629 1.44526 0
      vertex 137.629 1.44526 3
    endloop
  endfacet
  facet normal -0.125262 -0.992124 0
    outer loop
      vertex 135.188 2.99408 0
      vertex 135.562 2.94686 3
      vertex 135.188 2.99408 3
    endloop
  endfacet
  facet normal -0.125262 -0.992124 -0
    outer loop
      vertex 135.562 2.94686 3
      vertex 135.188 2.99408 0
      vertex 135.562 2.94686 0
    endloop
  endfacet
  facet normal 0 -1 0
    outer loop
      vertex 134.812 2.99408 0
      vertex 135.188 2.99408 3
      vertex 134.812 2.99408 3
    endloop
  endfacet
  facet normal 0 -1 -0
    outer loop
      vertex 135.188 2.99408 3
      vertex 134.812 2.99408 0
      vertex 135.188 2.99408 0
    endloop
  endfacet
  facet normal -0.481919 -0.876216 0
    outer loop
      vertex 136.277 2.71448 0
      vertex 136.607 2.53298 3
      vertex 136.277 2.71448 3
    endloop
  endfacet
  facet normal -0.481919 -0.876216 -0
    outer loop
      vertex 136.607 2.53298 3
      vertex 136.277 2.71448 0
      vertex 136.607 2.53298 0
    endloop
  endfacet
  facet normal 0.950603 -0.310411 0
    outer loop
      vertex 132.094 0.746069 3
      vertex 132.211 1.10437 0
      vertex 132.211 1.10437 3
    endloop
  endfacet
  facet normal 0.950603 -0.310411 0
    outer loop
      vertex 132.211 1.10437 0
      vertex 132.094 0.746069 3
      vertex 132.094 0.746069 0
    endloop
  endfacet
  facet normal 0.997969 -0.0637003 0
    outer loop
      vertex 132 0 3
      vertex 132.024 0.375999 0
      vertex 132.024 0.375999 3
    endloop
  endfacet
  facet normal 0.997969 -0.0637003 0
    outer loop
      vertex 132.024 0.375999 0
      vertex 132 0 3
      vertex 132 0 0
    endloop
  endfacet
  facet normal 0.997969 0.0637003 0
    outer loop
      vertex 132.024 -0.375999 3
      vertex 132 0 0
      vertex 132 0 3
    endloop
  endfacet
  facet normal 0.997969 0.0637003 0
    outer loop
      vertex 132 0 0
      vertex 132.024 -0.375999 3
      vertex 132.024 -0.375999 0
    endloop
  endfacet
  facet normal 0.684065 -0.729421 0
    outer loop
      vertex 132.813 2.05364 0
      vertex 133.088 2.31154 3
      vertex 132.813 2.05364 3
    endloop
  endfacet
  facet normal 0.684065 -0.729421 0
    outer loop
      vertex 133.088 2.31154 3
      vertex 132.813 2.05364 0
      vertex 133.088 2.31154 0
    endloop
  endfacet
  facet normal 0.368389 -0.929672 0
    outer loop
      vertex 133.723 2.71448 0
      vertex 134.073 2.85317 3
      vertex 133.723 2.71448 3
    endloop
  endfacet
  facet normal 0.368389 -0.929672 0
    outer loop
      vertex 134.073 2.85317 3
      vertex 133.723 2.71448 0
      vertex 134.073 2.85317 0
    endloop
  endfacet
  facet normal -0.844175 0.536068 0
    outer loop
      vertex 137.427 -1.76336 0
      vertex 137.629 -1.44526 3
      vertex 137.629 -1.44526 0
    endloop
  endfacet
  facet normal -0.844175 0.536068 0
    outer loop
      vertex 137.629 -1.44526 3
      vertex 137.427 -1.76336 0
      vertex 137.427 -1.76336 3
    endloop
  endfacet
  facet normal -0.982577 0.185858 0
    outer loop
      vertex 137.906 -0.746069 0
      vertex 137.976 -0.375999 3
      vertex 137.976 -0.375999 0
    endloop
  endfacet
  facet normal -0.982577 0.185858 0
    outer loop
      vertex 137.976 -0.375999 3
      vertex 137.906 -0.746069 0
      vertex 137.906 -0.746069 3
    endloop
  endfacet
  facet normal 0.368389 0.929672 -0
    outer loop
      vertex 134.073 -2.85317 0
      vertex 133.723 -2.71448 3
      vertex 134.073 -2.85317 3
    endloop
  endfacet
  facet normal 0.368389 0.929672 0
    outer loop
      vertex 133.723 -2.71448 3
      vertex 134.073 -2.85317 0
      vertex 133.723 -2.71448 0
    endloop
  endfacet
  facet normal 0.982577 0.185858 0
    outer loop
      vertex 132.094 -0.746069 3
      vertex 132.024 -0.375999 0
      vertex 132.024 -0.375999 3
    endloop
  endfacet
  facet normal 0.982577 0.185858 0
    outer loop
      vertex 132.024 -0.375999 0
      vertex 132.094 -0.746069 3
      vertex 132.094 -0.746069 0
    endloop
  endfacet
  facet normal -0.587515 0.809213 0
    outer loop
      vertex 136.912 -2.31154 0
      vertex 136.607 -2.53298 3
      vertex 136.912 -2.31154 3
    endloop
  endfacet
  facet normal -0.587515 0.809213 0
    outer loop
      vertex 136.607 -2.53298 3
      vertex 136.912 -2.31154 0
      vertex 136.607 -2.53298 0
    endloop
  endfacet
  facet normal -0.481919 0.876216 0
    outer loop
      vertex 136.607 -2.53298 0
      vertex 136.277 -2.71448 3
      vertex 136.607 -2.53298 3
    endloop
  endfacet
  facet normal -0.481919 0.876216 0
    outer loop
      vertex 136.277 -2.71448 3
      vertex 136.607 -2.53298 0
      vertex 136.277 -2.71448 0
    endloop
  endfacet
  facet normal -0.248625 -0.9686 0
    outer loop
      vertex 135.562 2.94686 0
      vertex 135.927 2.85317 3
      vertex 135.562 2.94686 3
    endloop
  endfacet
  facet normal -0.248625 -0.9686 -0
    outer loop
      vertex 135.927 2.85317 3
      vertex 135.562 2.94686 0
      vertex 135.927 2.85317 0
    endloop
  endfacet
  facet normal 0.982577 -0.185858 0
    outer loop
      vertex 132.024 0.375999 3
      vertex 132.094 0.746069 0
      vertex 132.094 0.746069 3
    endloop
  endfacet
  facet normal 0.982577 -0.185858 0
    outer loop
      vertex 132.094 0.746069 0
      vertex 132.024 0.375999 3
      vertex 132.024 0.375999 0
    endloop
  endfacet
  facet normal -0.950603 0.310411 0
    outer loop
      vertex 137.789 -1.10437 0
      vertex 137.906 -0.746069 3
      vertex 137.906 -0.746069 0
    endloop
  endfacet
  facet normal -0.950603 0.310411 0
    outer loop
      vertex 137.906 -0.746069 3
      vertex 137.789 -1.10437 0
      vertex 137.789 -1.10437 3
    endloop
  endfacet
  facet normal -0.905247 0.424886 0
    outer loop
      vertex 137.629 -1.44526 0
      vertex 137.789 -1.10437 3
      vertex 137.789 -1.10437 0
    endloop
  endfacet
  facet normal -0.905247 0.424886 0
    outer loop
      vertex 137.789 -1.10437 3
      vertex 137.629 -1.44526 0
      vertex 137.629 -1.44526 3
    endloop
  endfacet
  facet normal -0.997969 0.0637003 0
    outer loop
      vertex 137.976 -0.375999 0
      vertex 138 0 3
      vertex 138 0 0
    endloop
  endfacet
  facet normal -0.997969 0.0637003 0
    outer loop
      vertex 138 0 3
      vertex 137.976 -0.375999 0
      vertex 137.976 -0.375999 3
    endloop
  endfacet
  facet normal 0.587515 0.809213 -0
    outer loop
      vertex 133.393 -2.53298 0
      vertex 133.088 -2.31154 3
      vertex 133.393 -2.53298 3
    endloop
  endfacet
  facet normal 0.587515 0.809213 0
    outer loop
      vertex 133.088 -2.31154 3
      vertex 133.393 -2.53298 0
      vertex 133.088 -2.31154 0
    endloop
  endfacet
  facet normal 0.684065 0.729421 -0
    outer loop
      vertex 133.088 -2.31154 0
      vertex 132.813 -2.05364 3
      vertex 133.088 -2.31154 3
    endloop
  endfacet
  facet normal 0.684065 0.729421 0
    outer loop
      vertex 132.813 -2.05364 3
      vertex 133.088 -2.31154 0
      vertex 132.813 -2.05364 0
    endloop
  endfacet
  facet normal 0.844175 0.536068 0
    outer loop
      vertex 132.573 -1.76336 3
      vertex 132.371 -1.44526 0
      vertex 132.371 -1.44526 3
    endloop
  endfacet
  facet normal 0.844175 0.536068 0
    outer loop
      vertex 132.371 -1.44526 0
      vertex 132.573 -1.76336 3
      vertex 132.573 -1.76336 0
    endloop
  endfacet
  facet normal 0.950603 0.310411 0
    outer loop
      vertex 132.211 -1.10437 3
      vertex 132.094 -0.746069 0
      vertex 132.094 -0.746069 3
    endloop
  endfacet
  facet normal 0.950603 0.310411 0
    outer loop
      vertex 132.094 -0.746069 0
      vertex 132.211 -1.10437 3
      vertex 132.211 -1.10437 0
    endloop
  endfacet
  facet normal 0.905247 0.424886 0
    outer loop
      vertex 132.371 -1.44526 3
      vertex 132.211 -1.10437 0
      vertex 132.211 -1.10437 3
    endloop
  endfacet
  facet normal 0.905247 0.424886 0
    outer loop
      vertex 132.211 -1.10437 0
      vertex 132.371 -1.44526 3
      vertex 132.371 -1.44526 0
    endloop
  endfacet
  facet normal -0.684065 0.729421 0
    outer loop
      vertex 137.187 -2.05364 0
      vertex 136.912 -2.31154 3
      vertex 137.187 -2.05364 3
    endloop
  endfacet
  facet normal -0.684065 0.729421 0
    outer loop
      vertex 136.912 -2.31154 3
      vertex 137.187 -2.05364 0
      vertex 136.912 -2.31154 0
    endloop
  endfacet
  facet normal -0.368389 0.929672 0
    outer loop
      vertex 136.277 -2.71448 0
      vertex 135.927 -2.85317 3
      vertex 136.277 -2.71448 3
    endloop
  endfacet
  facet normal -0.368389 0.929672 0
    outer loop
      vertex 135.927 -2.85317 3
      vertex 136.277 -2.71448 0
      vertex 135.927 -2.85317 0
    endloop
  endfacet
  facet normal 0 1 -0
    outer loop
      vertex 135.188 -2.99408 0
      vertex 134.812 -2.99408 3
      vertex 135.188 -2.99408 3
    endloop
  endfacet
  facet normal 0 1 0
    outer loop
      vertex 134.812 -2.99408 3
      vertex 135.188 -2.99408 0
      vertex 134.812 -2.99408 0
    endloop
  endfacet
  facet normal 0.481919 0.876216 -0
    outer loop
      vertex 133.723 -2.71448 0
      vertex 133.393 -2.53298 3
      vertex 133.723 -2.71448 3
    endloop
  endfacet
  facet normal 0.481919 0.876216 0
    outer loop
      vertex 133.393 -2.53298 3
      vertex 133.723 -2.71448 0
      vertex 133.393 -2.53298 0
    endloop
  endfacet
  facet normal 0.770696 0.637202 0
    outer loop
      vertex 132.813 -2.05364 3
      vertex 132.573 -1.76336 0
      vertex 132.573 -1.76336 3
    endloop
  endfacet
  facet normal 0.770696 0.637202 0
    outer loop
      vertex 132.573 -1.76336 0
      vertex 132.813 -2.05364 3
      vertex 132.813 -2.05364 0
    endloop
  endfacet
  facet normal 0.125262 0.992124 -0
    outer loop
      vertex 134.812 -2.99408 0
      vertex 134.438 -2.94686 3
      vertex 134.812 -2.99408 3
    endloop
  endfacet
  facet normal 0.125262 0.992124 0
    outer loop
      vertex 134.438 -2.94686 3
      vertex 134.812 -2.99408 0
      vertex 134.438 -2.94686 0
    endloop
  endfacet
  facet normal 0.248625 0.9686 -0
    outer loop
      vertex 134.438 -2.94686 0
      vertex 134.073 -2.85317 3
      vertex 134.438 -2.94686 3
    endloop
  endfacet
  facet normal 0.248625 0.9686 0
    outer loop
      vertex 134.073 -2.85317 3
      vertex 134.438 -2.94686 0
      vertex 134.073 -2.85317 0
    endloop
  endfacet
  facet normal -1 0 0
    outer loop
      vertex -142 -2 0
      vertex -142 2 3
      vertex -142 2 0
    endloop
  endfacet
  facet normal -1 -0 0
    outer loop
      vertex -142 2 3
      vertex -142 -2 0
      vertex -142 -2 3
    endloop
  endfacet
  facet normal -0.998069 -0.0621135 0
    outer loop
      vertex -141.961 -2.62667 0
      vertex -142 -2 3
      vertex -142 -2 0
    endloop
  endfacet
  facet normal -0.998069 -0.0621135 0
    outer loop
      vertex -142 -2 3
      vertex -141.961 -2.62667 0
      vertex -141.961 -2.62667 3
    endloop
  endfacet
  facet normal 0 1 -0
    outer loop
      vertex 137.314 6.99013 0
      vertex -137.314 6.99013 3
      vertex 137.314 6.99013 3
    endloop
  endfacet
  facet normal 0 1 0
    outer loop
      vertex -137.314 6.99013 3
      vertex 137.314 6.99013 0
      vertex -137.314 6.99013 0
    endloop
  endfacet
  facet normal 0 -1 0
    outer loop
      vertex -137.314 -6.99013 0
      vertex 137.314 -6.99013 3
      vertex -137.314 -6.99013 3
    endloop
  endfacet
  facet normal 0 -1 -0
    outer loop
      vertex 137.314 -6.99013 3
      vertex -137.314 -6.99013 0
      vertex 137.314 -6.99013 0
    endloop
  endfacet
  facet normal -0.998069 0.0621135 0
    outer loop
      vertex -142 2 0
      vertex -141.961 2.62667 3
      vertex -141.961 2.62667 0
    endloop
  endfacet
  facet normal -0.998069 0.0621135 0
    outer loop
      vertex -141.961 2.62667 3
      vertex -142 2 0
      vertex -142 2 3
    endloop
  endfacet
  facet normal 0.905042 -0.425321 0
    outer loop
      vertex 141.382 -4.40877 3
      vertex 141.649 -3.84062 0
      vertex 141.649 -3.84062 3
    endloop
  endfacet
  facet normal 0.905042 -0.425321 0
    outer loop
      vertex 141.649 -3.84062 0
      vertex 141.382 -4.40877 3
      vertex 141.382 -4.40877 0
    endloop
  endfacet
  facet normal 0.770703 0.637195 0
    outer loop
      vertex 141.045 4.93893 3
      vertex 140.645 5.42274 0
      vertex 140.645 5.42274 3
    endloop
  endfacet
  facet normal 0.770703 0.637195 0
    outer loop
      vertex 140.645 5.42274 0
      vertex 141.045 4.93893 3
      vertex 141.045 4.93893 0
    endloop
  endfacet
  facet normal 0.248768 0.968563 -0
    outer loop
      vertex 138.545 6.75528 0
      vertex 137.937 6.91144 3
      vertex 138.545 6.75528 3
    endloop
  endfacet
  facet normal 0.248768 0.968563 0
    outer loop
      vertex 137.937 6.91144 3
      vertex 138.545 6.75528 0
      vertex 137.937 6.91144 0
    endloop
  endfacet
  facet normal -0.982187 0.187908 0
    outer loop
      vertex -141.961 2.62667 0
      vertex -141.843 3.24345 3
      vertex -141.843 3.24345 0
    endloop
  endfacet
  facet normal -0.982187 0.187908 0
    outer loop
      vertex -141.843 3.24345 3
      vertex -141.961 2.62667 0
      vertex -141.961 2.62667 3
    endloop
  endfacet
  facet normal -0.368026 -0.929816 0
    outer loop
      vertex -139.129 -6.52413 0
      vertex -138.545 -6.75528 3
      vertex -139.129 -6.52413 3
    endloop
  endfacet
  facet normal -0.368026 -0.929816 -0
    outer loop
      vertex -138.545 -6.75528 3
      vertex -139.129 -6.52413 0
      vertex -138.545 -6.75528 0
    endloop
  endfacet
  facet normal -0.125313 -0.992117 0
    outer loop
      vertex -137.937 -6.91144 0
      vertex -137.314 -6.99013 3
      vertex -137.937 -6.91144 3
    endloop
  endfacet
  facet normal -0.125313 -0.992117 -0
    outer loop
      vertex -137.314 -6.99013 3
      vertex -137.937 -6.91144 0
      vertex -137.314 -6.99013 0
    endloop
  endfacet
  facet normal -0.481907 -0.876223 0
    outer loop
      vertex -139.679 -6.22164 0
      vertex -139.129 -6.52413 3
      vertex -139.679 -6.22164 3
    endloop
  endfacet
  facet normal -0.481907 -0.876223 -0
    outer loop
      vertex -139.129 -6.52413 3
      vertex -139.679 -6.22164 0
      vertex -139.129 -6.52413 0
    endloop
  endfacet
  facet normal -0.684327 -0.729176 0
    outer loop
      vertex -140.645 -5.42274 0
      vertex -140.187 -5.85257 3
      vertex -140.645 -5.42274 3
    endloop
  endfacet
  facet normal -0.684327 -0.729176 -0
    outer loop
      vertex -140.187 -5.85257 3
      vertex -140.645 -5.42274 0
      vertex -140.187 -5.85257 0
    endloop
  endfacet
  facet normal 1 -0 0
    outer loop
      vertex 142 -2 3
      vertex 142 2 0
      vertex 142 2 3
    endloop
  endfacet
  facet normal 1 0 0
    outer loop
      vertex 142 2 0
      vertex 142 -2 3
      vertex 142 -2 0
    endloop
  endfacet
  facet normal 0.684327 -0.729176 0
    outer loop
      vertex 140.187 -5.85257 0
      vertex 140.645 -5.42274 3
      vertex 140.187 -5.85257 3
    endloop
  endfacet
  facet normal 0.684327 -0.729176 0
    outer loop
      vertex 140.645 -5.42274 3
      vertex 140.187 -5.85257 0
      vertex 140.645 -5.42274 0
    endloop
  endfacet
  facet normal 0.843931 -0.536451 0
    outer loop
      vertex 141.045 -4.93893 3
      vertex 141.382 -4.40877 0
      vertex 141.382 -4.40877 3
    endloop
  endfacet
  facet normal 0.843931 -0.536451 0
    outer loop
      vertex 141.382 -4.40877 0
      vertex 141.045 -4.93893 3
      vertex 141.045 -4.93893 0
    endloop
  endfacet
  facet normal 0.481907 -0.876223 0
    outer loop
      vertex 139.129 -6.52413 0
      vertex 139.679 -6.22164 3
      vertex 139.129 -6.52413 3
    endloop
  endfacet
  facet normal 0.481907 -0.876223 0
    outer loop
      vertex 139.679 -6.22164 3
      vertex 139.129 -6.52413 0
      vertex 139.679 -6.22164 0
    endloop
  endfacet
  facet normal 0.843931 0.536451 0
    outer loop
      vertex 141.382 4.40877 3
      vertex 141.045 4.93893 0
      vertex 141.045 4.93893 3
    endloop
  endfacet
  facet normal 0.843931 0.536451 0
    outer loop
      vertex 141.045 4.93893 0
      vertex 141.382 4.40877 3
      vertex 141.382 4.40877 0
    endloop
  endfacet
  facet normal 0.951072 0.30897 0
    outer loop
      vertex 141.843 3.24345 3
      vertex 141.649 3.84062 0
      vertex 141.649 3.84062 3
    endloop
  endfacet
  facet normal 0.951072 0.30897 0
    outer loop
      vertex 141.649 3.84062 0
      vertex 141.843 3.24345 3
      vertex 141.843 3.24345 0
    endloop
  endfacet
  facet normal 0.684327 0.729176 -0
    outer loop
      vertex 140.645 5.42274 0
      vertex 140.187 5.85257 3
      vertex 140.645 5.42274 3
    endloop
  endfacet
  facet normal 0.684327 0.729176 0
    outer loop
      vertex 140.187 5.85257 3
      vertex 140.645 5.42274 0
      vertex 140.187 5.85257 0
    endloop
  endfacet
  facet normal 0.368026 0.929816 -0
    outer loop
      vertex 139.129 6.52413 0
      vertex 138.545 6.75528 3
      vertex 139.129 6.52413 3
    endloop
  endfacet
  facet normal 0.368026 0.929816 0
    outer loop
      vertex 138.545 6.75528 3
      vertex 139.129 6.52413 0
      vertex 138.545 6.75528 0
    endloop
  endfacet
  facet normal 0.125313 0.992117 -0
    outer loop
      vertex 137.937 6.91144 0
      vertex 137.314 6.99013 3
      vertex 137.937 6.91144 3
    endloop
  endfacet
  facet normal 0.125313 0.992117 0
    outer loop
      vertex 137.314 6.99013 3
      vertex 137.937 6.91144 0
      vertex 137.314 6.99013 0
    endloop
  endfacet
  facet normal -0.125313 0.992117 0
    outer loop
      vertex -137.314 6.99013 0
      vertex -137.937 6.91144 3
      vertex -137.314 6.99013 3
    endloop
  endfacet
  facet normal -0.125313 0.992117 0
    outer loop
      vertex -137.937 6.91144 3
      vertex -137.314 6.99013 0
      vertex -137.937 6.91144 0
    endloop
  endfacet
  facet normal -0.951072 -0.30897 0
    outer loop
      vertex -141.649 -3.84062 0
      vertex -141.843 -3.24345 3
      vertex -141.843 -3.24345 0
    endloop
  endfacet
  facet normal -0.951072 -0.30897 0
    outer loop
      vertex -141.843 -3.24345 3
      vertex -141.649 -3.84062 0
      vertex -141.649 -3.84062 3
    endloop
  endfacet
  facet normal -0.982187 -0.187908 0
    outer loop
      vertex -141.843 -3.24345 0
      vertex -141.961 -2.62667 3
      vertex -141.961 -2.62667 0
    endloop
  endfacet
  facet normal -0.982187 -0.187908 0
    outer loop
      vertex -141.961 -2.62667 3
      vertex -141.843 -3.24345 0
      vertex -141.843 -3.24345 3
    endloop
  endfacet
  facet normal -0.905042 -0.425321 0
    outer loop
      vertex -141.382 -4.40877 0
      vertex -141.649 -3.84062 3
      vertex -141.649 -3.84062 0
    endloop
  endfacet
  facet normal -0.905042 -0.425321 0
    outer loop
      vertex -141.649 -3.84062 3
      vertex -141.382 -4.40877 0
      vertex -141.382 -4.40877 3
    endloop
  endfacet
  facet normal -0.770703 -0.637195 0
    outer loop
      vertex -140.645 -5.42274 0
      vertex -141.045 -4.93893 3
      vertex -141.045 -4.93893 0
    endloop
  endfacet
  facet normal -0.770703 -0.637195 0
    outer loop
      vertex -141.045 -4.93893 3
      vertex -140.645 -5.42274 0
      vertex -140.645 -5.42274 3
    endloop
  endfacet
  facet normal -0.248768 -0.968563 0
    outer loop
      vertex -138.545 -6.75528 0
      vertex -137.937 -6.91144 3
      vertex -138.545 -6.75528 3
    endloop
  endfacet
  facet normal -0.248768 -0.968563 -0
    outer loop
      vertex -137.937 -6.91144 3
      vertex -138.545 -6.75528 0
      vertex -137.937 -6.91144 0
    endloop
  endfacet
  facet normal -0.587771 -0.809027 0
    outer loop
      vertex -140.187 -5.85257 0
      vertex -139.679 -6.22164 3
      vertex -140.187 -5.85257 3
    endloop
  endfacet
  facet normal -0.587771 -0.809027 -0
    outer loop
      vertex -139.679 -6.22164 3
      vertex -140.187 -5.85257 0
      vertex -139.679 -6.22164 0
    endloop
  endfacet
  facet normal 0.982187 0.187908 0
    outer loop
      vertex 141.961 2.62667 3
      vertex 141.843 3.24345 0
      vertex 141.843 3.24345 3
    endloop
  endfacet
  facet normal 0.982187 0.187908 0
    outer loop
      vertex 141.843 3.24345 0
      vertex 141.961 2.62667 3
      vertex 141.961 2.62667 0
    endloop
  endfacet
  facet normal 0.951072 -0.30897 0
    outer loop
      vertex 141.649 -3.84062 3
      vertex 141.843 -3.24345 0
      vertex 141.843 -3.24345 3
    endloop
  endfacet
  facet normal 0.951072 -0.30897 0
    outer loop
      vertex 141.843 -3.24345 0
      vertex 141.649 -3.84062 3
      vertex 141.649 -3.84062 0
    endloop
  endfacet
  facet normal 0.998069 -0.0621135 0
    outer loop
      vertex 141.961 -2.62667 3
      vertex 142 -2 0
      vertex 142 -2 3
    endloop
  endfacet
  facet normal 0.998069 -0.0621135 0
    outer loop
      vertex 142 -2 0
      vertex 141.961 -2.62667 3
      vertex 141.961 -2.62667 0
    endloop
  endfacet
  facet normal 0.587771 -0.809027 0
    outer loop
      vertex 139.679 -6.22164 0
      vertex 140.187 -5.85257 3
      vertex 139.679 -6.22164 3
    endloop
  endfacet
  facet normal 0.587771 -0.809027 0
    outer loop
      vertex 140.187 -5.85257 3
      vertex 139.679 -6.22164 0
      vertex 140.187 -5.85257 0
    endloop
  endfacet
  facet normal 0.770703 -0.637195 0
    outer loop
      vertex 140.645 -5.42274 3
      vertex 141.045 -4.93893 0
      vertex 141.045 -4.93893 3
    endloop
  endfacet
  facet normal 0.770703 -0.637195 0
    outer loop
      vertex 141.045 -4.93893 0
      vertex 140.645 -5.42274 3
      vertex 140.645 -5.42274 0
    endloop
  endfacet
  facet normal 0.125313 -0.992117 0
    outer loop
      vertex 137.314 -6.99013 0
      vertex 137.937 -6.91144 3
      vertex 137.314 -6.99013 3
    endloop
  endfacet
  facet normal 0.125313 -0.992117 0
    outer loop
      vertex 137.937 -6.91144 3
      vertex 137.314 -6.99013 0
      vertex 137.937 -6.91144 0
    endloop
  endfacet
  facet normal 0.368026 -0.929816 0
    outer loop
      vertex 138.545 -6.75528 0
      vertex 139.129 -6.52413 3
      vertex 138.545 -6.75528 3
    endloop
  endfacet
  facet normal 0.368026 -0.929816 0
    outer loop
      vertex 139.129 -6.52413 3
      vertex 138.545 -6.75528 0
      vertex 139.129 -6.52413 0
    endloop
  endfacet
  facet normal 0.905042 0.425321 0
    outer loop
      vertex 141.649 3.84062 3
      vertex 141.382 4.40877 0
      vertex 141.382 4.40877 3
    endloop
  endfacet
  facet normal 0.905042 0.425321 0
    outer loop
      vertex 141.382 4.40877 0
      vertex 141.649 3.84062 3
      vertex 141.649 3.84062 0
    endloop
  endfacet
  facet normal 0.587771 0.809027 -0
    outer loop
      vertex 140.187 5.85257 0
      vertex 139.679 6.22164 3
      vertex 140.187 5.85257 3
    endloop
  endfacet
  facet normal 0.587771 0.809027 0
    outer loop
      vertex 139.679 6.22164 3
      vertex 140.187 5.85257 0
      vertex 139.679 6.22164 0
    endloop
  endfacet
  facet normal 0.481907 0.876223 -0
    outer loop
      vertex 139.679 6.22164 0
      vertex 139.129 6.52413 3
      vertex 139.679 6.22164 3
    endloop
  endfacet
  facet normal 0.481907 0.876223 0
    outer loop
      vertex 139.129 6.52413 3
      vertex 139.679 6.22164 0
      vertex 139.129 6.52413 0
    endloop
  endfacet
  facet normal -0.684327 0.729176 0
    outer loop
      vertex -140.187 5.85257 0
      vertex -140.645 5.42274 3
      vertex -140.187 5.85257 3
    endloop
  endfacet
  facet normal -0.684327 0.729176 0
    outer loop
      vertex -140.645 5.42274 3
      vertex -140.187 5.85257 0
      vertex -140.645 5.42274 0
    endloop
  endfacet
  facet normal -0.770703 0.637195 0
    outer loop
      vertex -141.045 4.93893 0
      vertex -140.645 5.42274 3
      vertex -140.645 5.42274 0
    endloop
  endfacet
  facet normal -0.770703 0.637195 0
    outer loop
      vertex -140.645 5.42274 3
      vertex -141.045 4.93893 0
      vertex -141.045 4.93893 3
    endloop
  endfacet
  facet normal -0.368026 0.929816 0
    outer loop
      vertex -138.545 6.75528 0
      vertex -139.129 6.52413 3
      vertex -138.545 6.75528 3
    endloop
  endfacet
  facet normal -0.368026 0.929816 0
    outer loop
      vertex -139.129 6.52413 3
      vertex -138.545 6.75528 0
      vertex -139.129 6.52413 0
    endloop
  endfacet
  facet normal -0.843931 -0.536451 0
    outer loop
      vertex -141.045 -4.93893 0
      vertex -141.382 -4.40877 3
      vertex -141.382 -4.40877 0
    endloop
  endfacet
  facet normal -0.843931 -0.536451 0
    outer loop
      vertex -141.382 -4.40877 3
      vertex -141.045 -4.93893 0
      vertex -141.045 -4.93893 3
    endloop
  endfacet
  facet normal 0.998069 0.0621135 0
    outer loop
      vertex 142 2 3
      vertex 141.961 2.62667 0
      vertex 141.961 2.62667 3
    endloop
  endfacet
  facet normal 0.998069 0.0621135 0
    outer loop
      vertex 141.961 2.62667 0
      vertex 142 2 3
      vertex 142 2 0
    endloop
  endfacet
  facet normal 0.248768 -0.968563 0
    outer loop
      vertex 137.937 -6.91144 0
      vertex 138.545 -6.75528 3
      vertex 137.937 -6.91144 3
    endloop
  endfacet
  facet normal 0.248768 -0.968563 0
    outer loop
      vertex 138.545 -6.75528 3
      vertex 137.937 -6.91144 0
      vertex 138.545 -6.75528 0
    endloop
  endfacet
  facet normal -0.248768 0.968563 0
    outer loop
      vertex -137.937 6.91144 0
      vertex -138.545 6.75528 3
      vertex -137.937 6.91144 3
    endloop
  endfacet
  facet normal -0.248768 0.968563 0
    outer loop
      vertex -138.545 6.75528 3
      vertex -137.937 6.91144 0
      vertex -138.545 6.75528 0
    endloop
  endfacet
  facet normal -0.951072 0.30897 0
    outer loop
      vertex -141.843 3.24345 0
      vertex -141.649 3.84062 3
      vertex -141.649 3.84062 0
    endloop
  endfacet
  facet normal -0.951072 0.30897 0
    outer loop
      vertex -141.649 3.84062 3
      vertex -141.843 3.24345 0
      vertex -141.843 3.24345 3
    endloop
  endfacet
  facet normal -0.905042 0.425321 0
    outer loop
      vertex -141.649 3.84062 0
      vertex -141.382 4.40877 3
      vertex -141.382 4.40877 0
    endloop
  endfacet
  facet normal -0.905042 0.425321 0
    outer loop
      vertex -141.382 4.40877 3
      vertex -141.649 3.84062 0
      vertex -141.649 3.84062 3
    endloop
  endfacet
  facet normal 0.982187 -0.187908 0
    outer loop
      vertex 141.843 -3.24345 3
      vertex 141.961 -2.62667 0
      vertex 141.961 -2.62667 3
    endloop
  endfacet
  facet normal 0.982187 -0.187908 0
    outer loop
      vertex 141.961 -2.62667 0
      vertex 141.843 -3.24345 3
      vertex 141.843 -3.24345 0
    endloop
  endfacet
  facet normal -0.587771 0.809027 0
    outer loop
      vertex -139.679 6.22164 0
      vertex -140.187 5.85257 3
      vertex -139.679 6.22164 3
    endloop
  endfacet
  facet normal -0.587771 0.809027 0
    outer loop
      vertex -140.187 5.85257 3
      vertex -139.679 6.22164 0
      vertex -140.187 5.85257 0
    endloop
  endfacet
  facet normal -0.481907 0.876223 0
    outer loop
      vertex -139.129 6.52413 0
      vertex -139.679 6.22164 3
      vertex -139.129 6.52413 3
    endloop
  endfacet
  facet normal -0.481907 0.876223 0
    outer loop
      vertex -139.679 6.22164 3
      vertex -139.129 6.52413 0
      vertex -139.679 6.22164 0
    endloop
  endfacet
  facet normal -0.843931 0.536451 0
    outer loop
      vertex -141.382 4.40877 0
      vertex -141.045 4.93893 3
      vertex -141.045 4.93893 0
    endloop
  endfacet
  facet normal -0.843931 0.536451 0
    outer loop
      vertex -141.045 4.93893 3
      vertex -141.382 4.40877 0
      vertex -141.382 4.40877 3
    endloop
  endfacet
endsolid OpenSCAD_Model
