  0
SECTION
  2
BLOCKS
  0
ENDSEC
  0
SECTION
  2
ENTITIES
  0
LINE
  8
0
 10
130.437
 20
632.089
 11
131.045
 21
632.245
  0
LINE
  8
0
 10
131.045
 20
632.245
 11
131.629
 21
632.476
  0
LINE
  8
0
 10
131.629
 20
632.476
 11
132.179
 21
632.778
  0
LINE
  8
0
 10
132.179
 20
632.778
 11
132.687
 21
633.147
  0
LINE
  8
0
 10
132.687
 20
633.147
 11
133.145
 21
633.577
  0
LINE
  8
0
 10
133.145
 20
633.577
 11
133.545
 21
634.061
  0
LINE
  8
0
 10
133.545
 20
634.061
 11
133.882
 21
634.591
  0
LINE
  8
0
 10
133.882
 20
634.591
 11
134.149
 21
635.159
  0
LINE
  8
0
 10
134.149
 20
635.159
 11
134.343
 21
635.757
  0
LINE
  8
0
 10
134.343
 20
635.757
 11
134.461
 21
636.373
  0
LINE
  8
0
 10
134.461
 20
636.373
 11
134.5
 21
637
  0
LINE
  8
0
 10
134.5
 20
637
 11
134.5
 21
731
  0
LINE
  8
0
 10
134.5
 20
731
 11
134.461
 21
731.627
  0
LINE
  8
0
 10
134.461
 20
731.627
 11
134.343
 21
732.243
  0
LINE
  8
0
 10
134.343
 20
732.243
 11
134.149
 21
732.841
  0
LINE
  8
0
 10
134.149
 20
732.841
 11
133.882
 21
733.409
  0
LINE
  8
0
 10
133.882
 20
733.409
 11
133.545
 21
733.939
  0
LINE
  8
0
 10
133.545
 20
733.939
 11
133.145
 21
734.423
  0
LINE
  8
0
 10
133.145
 20
734.423
 11
132.687
 21
734.853
  0
LINE
  8
0
 10
132.687
 20
734.853
 11
132.179
 21
735.222
  0
LINE
  8
0
 10
132.179
 20
735.222
 11
131.629
 21
735.524
  0
LINE
  8
0
 10
131.629
 20
735.524
 11
131.045
 21
735.755
  0
LINE
  8
0
 10
131.045
 20
735.755
 11
130.437
 21
735.911
  0
LINE
  8
0
 10
130.437
 20
735.911
 11
129.814
 21
735.99
  0
LINE
  8
0
 10
129.814
 20
735.99
 11
-129.814
 21
735.99
  0
LINE
  8
0
 10
-129.814
 20
735.99
 11
-130.437
 21
735.911
  0
LINE
  8
0
 10
-130.437
 20
735.911
 11
-131.045
 21
735.755
  0
LINE
  8
0
 10
-131.045
 20
735.755
 11
-131.629
 21
735.524
  0
LINE
  8
0
 10
-131.629
 20
735.524
 11
-132.179
 21
735.222
  0
LINE
  8
0
 10
-132.179
 20
735.222
 11
-132.687
 21
734.853
  0
LINE
  8
0
 10
-132.687
 20
734.853
 11
-133.145
 21
734.423
  0
LINE
  8
0
 10
-133.145
 20
734.423
 11
-133.545
 21
733.939
  0
LINE
  8
0
 10
-133.545
 20
733.939
 11
-133.882
 21
733.409
  0
LINE
  8
0
 10
-133.882
 20
733.409
 11
-134.149
 21
732.841
  0
LINE
  8
0
 10
-134.149
 20
732.841
 11
-134.343
 21
732.243
  0
LINE
  8
0
 10
-134.343
 20
732.243
 11
-134.461
 21
731.627
  0
LINE
  8
0
 10
-134.461
 20
731.627
 11
-134.5
 21
731
  0
LINE
  8
0
 10
-134.5
 20
731
 11
-134.5
 21
637
  0
LINE
  8
0
 10
-134.5
 20
637
 11
-134.461
 21
636.373
  0
LINE
  8
0
 10
-134.461
 20
636.373
 11
-134.343
 21
635.757
  0
LINE
  8
0
 10
-134.343
 20
635.757
 11
-134.149
 21
635.159
  0
LINE
  8
0
 10
-134.149
 20
635.159
 11
-133.882
 21
634.591
  0
LINE
  8
0
 10
-133.882
 20
634.591
 11
-133.545
 21
634.061
  0
LINE
  8
0
 10
-133.545
 20
634.061
 11
-133.145
 21
633.577
  0
LINE
  8
0
 10
-133.145
 20
633.577
 11
-132.687
 21
633.147
  0
LINE
  8
0
 10
-132.687
 20
633.147
 11
-132.179
 21
632.778
  0
LINE
  8
0
 10
-132.179
 20
632.778
 11
-131.629
 21
632.476
  0
LINE
  8
0
 10
-131.629
 20
632.476
 11
-131.045
 21
632.245
  0
LINE
  8
0
 10
-131.045
 20
632.245
 11
-130.437
 21
632.089
  0
LINE
  8
0
 10
-130.437
 20
632.089
 11
-129.814
 21
632.01
  0
LINE
  8
0
 10
-129.814
 20
632.01
 11
129.814
 21
632.01
  0
LINE
  8
0
 10
129.814
 20
632.01
 11
130.437
 21
632.089
  0
LINE
  8
0
 10
127.312
 20
726.006
 11
126.938
 21
726.053
  0
LINE
  8
0
 10
126.938
 20
726.053
 11
126.573
 21
726.147
  0
LINE
  8
0
 10
126.573
 20
726.147
 11
126.223
 21
726.286
  0
LINE
  8
0
 10
126.223
 20
726.286
 11
125.893
 21
726.467
  0
LINE
  8
0
 10
125.893
 20
726.467
 11
125.588
 21
726.688
  0
LINE
  8
0
 10
125.588
 20
726.688
 11
125.313
 21
726.946
  0
LINE
  8
0
 10
125.313
 20
726.946
 11
125.073
 21
727.237
  0
LINE
  8
0
 10
125.073
 20
727.237
 11
124.871
 21
727.555
  0
LINE
  8
0
 10
124.871
 20
727.555
 11
124.711
 21
727.896
  0
LINE
  8
0
 10
124.711
 20
727.896
 11
124.594
 21
728.254
  0
LINE
  8
0
 10
124.594
 20
728.254
 11
124.524
 21
728.624
  0
LINE
  8
0
 10
124.524
 20
728.624
 11
124.5
 21
729
  0
LINE
  8
0
 10
124.5
 20
729
 11
124.524
 21
729.376
  0
LINE
  8
0
 10
124.524
 20
729.376
 11
124.594
 21
729.746
  0
LINE
  8
0
 10
124.594
 20
729.746
 11
124.711
 21
730.104
  0
LINE
  8
0
 10
124.711
 20
730.104
 11
124.871
 21
730.445
  0
LINE
  8
0
 10
124.871
 20
730.445
 11
125.073
 21
730.763
  0
LINE
  8
0
 10
125.073
 20
730.763
 11
125.313
 21
731.054
  0
LINE
  8
0
 10
125.313
 20
731.054
 11
125.588
 21
731.312
  0
LINE
  8
0
 10
125.588
 20
731.312
 11
125.893
 21
731.533
  0
LINE
  8
0
 10
125.893
 20
731.533
 11
126.223
 21
731.714
  0
LINE
  8
0
 10
126.223
 20
731.714
 11
126.573
 21
731.853
  0
LINE
  8
0
 10
126.573
 20
731.853
 11
126.938
 21
731.947
  0
LINE
  8
0
 10
126.938
 20
731.947
 11
127.312
 21
731.994
  0
LINE
  8
0
 10
127.312
 20
731.994
 11
127.688
 21
731.994
  0
LINE
  8
0
 10
127.688
 20
731.994
 11
128.062
 21
731.947
  0
LINE
  8
0
 10
128.062
 20
731.947
 11
128.427
 21
731.853
  0
LINE
  8
0
 10
128.427
 20
731.853
 11
128.777
 21
731.714
  0
LINE
  8
0
 10
128.777
 20
731.714
 11
129.107
 21
731.533
  0
LINE
  8
0
 10
129.107
 20
731.533
 11
129.412
 21
731.312
  0
LINE
  8
0
 10
129.412
 20
731.312
 11
129.687
 21
731.054
  0
LINE
  8
0
 10
129.687
 20
731.054
 11
129.927
 21
730.763
  0
LINE
  8
0
 10
129.927
 20
730.763
 11
130.129
 21
730.445
  0
LINE
  8
0
 10
130.129
 20
730.445
 11
130.289
 21
730.104
  0
LINE
  8
0
 10
130.289
 20
730.104
 11
130.406
 21
729.746
  0
LINE
  8
0
 10
130.406
 20
729.746
 11
130.476
 21
729.376
  0
LINE
  8
0
 10
130.476
 20
729.376
 11
130.5
 21
729
  0
LINE
  8
0
 10
130.5
 20
729
 11
130.476
 21
728.624
  0
LINE
  8
0
 10
130.476
 20
728.624
 11
130.406
 21
728.254
  0
LINE
  8
0
 10
130.406
 20
728.254
 11
130.289
 21
727.896
  0
LINE
  8
0
 10
130.289
 20
727.896
 11
130.129
 21
727.555
  0
LINE
  8
0
 10
130.129
 20
727.555
 11
129.927
 21
727.237
  0
LINE
  8
0
 10
129.927
 20
727.237
 11
129.687
 21
726.946
  0
LINE
  8
0
 10
129.687
 20
726.946
 11
129.412
 21
726.688
  0
LINE
  8
0
 10
129.412
 20
726.688
 11
129.107
 21
726.467
  0
LINE
  8
0
 10
129.107
 20
726.467
 11
128.777
 21
726.286
  0
LINE
  8
0
 10
128.777
 20
726.286
 11
128.427
 21
726.147
  0
LINE
  8
0
 10
128.427
 20
726.147
 11
128.062
 21
726.053
  0
LINE
  8
0
 10
128.062
 20
726.053
 11
127.688
 21
726.006
  0
LINE
  8
0
 10
127.688
 20
726.006
 11
127.312
 21
726.006
  0
LINE
  8
0
 10
-127.688
 20
726.006
 11
-128.062
 21
726.053
  0
LINE
  8
0
 10
-128.062
 20
726.053
 11
-128.427
 21
726.147
  0
LINE
  8
0
 10
-128.427
 20
726.147
 11
-128.777
 21
726.286
  0
LINE
  8
0
 10
-128.777
 20
726.286
 11
-129.107
 21
726.467
  0
LINE
  8
0
 10
-129.107
 20
726.467
 11
-129.412
 21
726.688
  0
LINE
  8
0
 10
-129.412
 20
726.688
 11
-129.687
 21
726.946
  0
LINE
  8
0
 10
-129.687
 20
726.946
 11
-129.927
 21
727.237
  0
LINE
  8
0
 10
-129.927
 20
727.237
 11
-130.129
 21
727.555
  0
LINE
  8
0
 10
-130.129
 20
727.555
 11
-130.289
 21
727.896
  0
LINE
  8
0
 10
-130.289
 20
727.896
 11
-130.406
 21
728.254
  0
LINE
  8
0
 10
-130.406
 20
728.254
 11
-130.476
 21
728.624
  0
LINE
  8
0
 10
-130.476
 20
728.624
 11
-130.5
 21
729
  0
LINE
  8
0
 10
-130.5
 20
729
 11
-130.476
 21
729.376
  0
LINE
  8
0
 10
-130.476
 20
729.376
 11
-130.406
 21
729.746
  0
LINE
  8
0
 10
-130.406
 20
729.746
 11
-130.289
 21
730.104
  0
LINE
  8
0
 10
-130.289
 20
730.104
 11
-130.129
 21
730.445
  0
LINE
  8
0
 10
-130.129
 20
730.445
 11
-129.927
 21
730.763
  0
LINE
  8
0
 10
-129.927
 20
730.763
 11
-129.687
 21
731.054
  0
LINE
  8
0
 10
-129.687
 20
731.054
 11
-129.412
 21
731.312
  0
LINE
  8
0
 10
-129.412
 20
731.312
 11
-129.107
 21
731.533
  0
LINE
  8
0
 10
-129.107
 20
731.533
 11
-128.777
 21
731.714
  0
LINE
  8
0
 10
-128.777
 20
731.714
 11
-128.427
 21
731.853
  0
LINE
  8
0
 10
-128.427
 20
731.853
 11
-128.062
 21
731.947
  0
LINE
  8
0
 10
-128.062
 20
731.947
 11
-127.688
 21
731.994
  0
LINE
  8
0
 10
-127.688
 20
731.994
 11
-127.312
 21
731.994
  0
LINE
  8
0
 10
-127.312
 20
731.994
 11
-126.938
 21
731.947
  0
LINE
  8
0
 10
-126.938
 20
731.947
 11
-126.573
 21
731.853
  0
LINE
  8
0
 10
-126.573
 20
731.853
 11
-126.223
 21
731.714
  0
LINE
  8
0
 10
-126.223
 20
731.714
 11
-125.893
 21
731.533
  0
LINE
  8
0
 10
-125.893
 20
731.533
 11
-125.588
 21
731.312
  0
LINE
  8
0
 10
-125.588
 20
731.312
 11
-125.313
 21
731.054
  0
LINE
  8
0
 10
-125.313
 20
731.054
 11
-125.073
 21
730.763
  0
LINE
  8
0
 10
-125.073
 20
730.763
 11
-124.871
 21
730.445
  0
LINE
  8
0
 10
-124.871
 20
730.445
 11
-124.711
 21
730.104
  0
LINE
  8
0
 10
-124.711
 20
730.104
 11
-124.594
 21
729.746
  0
LINE
  8
0
 10
-124.594
 20
729.746
 11
-124.524
 21
729.376
  0
LINE
  8
0
 10
-124.524
 20
729.376
 11
-124.5
 21
729
  0
LINE
  8
0
 10
-124.5
 20
729
 11
-124.524
 21
728.624
  0
LINE
  8
0
 10
-124.524
 20
728.624
 11
-124.594
 21
728.254
  0
LINE
  8
0
 10
-124.594
 20
728.254
 11
-124.711
 21
727.896
  0
LINE
  8
0
 10
-124.711
 20
727.896
 11
-124.871
 21
727.555
  0
LINE
  8
0
 10
-124.871
 20
727.555
 11
-125.073
 21
727.237
  0
LINE
  8
0
 10
-125.073
 20
727.237
 11
-125.313
 21
726.946
  0
LINE
  8
0
 10
-125.313
 20
726.946
 11
-125.588
 21
726.688
  0
LINE
  8
0
 10
-125.588
 20
726.688
 11
-125.893
 21
726.467
  0
LINE
  8
0
 10
-125.893
 20
726.467
 11
-126.223
 21
726.286
  0
LINE
  8
0
 10
-126.223
 20
726.286
 11
-126.573
 21
726.147
  0
LINE
  8
0
 10
-126.573
 20
726.147
 11
-126.938
 21
726.053
  0
LINE
  8
0
 10
-126.938
 20
726.053
 11
-127.312
 21
726.006
  0
LINE
  8
0
 10
-127.312
 20
726.006
 11
-127.688
 21
726.006
  0
LINE
  8
0
 10
127.312
 20
636.006
 11
126.938
 21
636.053
  0
LINE
  8
0
 10
126.938
 20
636.053
 11
126.573
 21
636.147
  0
LINE
  8
0
 10
126.573
 20
636.147
 11
126.223
 21
636.286
  0
LINE
  8
0
 10
126.223
 20
636.286
 11
125.893
 21
636.467
  0
LINE
  8
0
 10
125.893
 20
636.467
 11
125.588
 21
636.688
  0
LINE
  8
0
 10
125.588
 20
636.688
 11
125.313
 21
636.946
  0
LINE
  8
0
 10
125.313
 20
636.946
 11
125.073
 21
637.237
  0
LINE
  8
0
 10
125.073
 20
637.237
 11
124.871
 21
637.555
  0
LINE
  8
0
 10
124.871
 20
637.555
 11
124.711
 21
637.896
  0
LINE
  8
0
 10
124.711
 20
637.896
 11
124.594
 21
638.254
  0
LINE
  8
0
 10
124.594
 20
638.254
 11
124.524
 21
638.624
  0
LINE
  8
0
 10
124.524
 20
638.624
 11
124.5
 21
639
  0
LINE
  8
0
 10
124.5
 20
639
 11
124.524
 21
639.376
  0
LINE
  8
0
 10
124.524
 20
639.376
 11
124.594
 21
639.746
  0
LINE
  8
0
 10
124.594
 20
639.746
 11
124.711
 21
640.104
  0
LINE
  8
0
 10
124.711
 20
640.104
 11
124.871
 21
640.445
  0
LINE
  8
0
 10
124.871
 20
640.445
 11
125.073
 21
640.763
  0
LINE
  8
0
 10
125.073
 20
640.763
 11
125.313
 21
641.054
  0
LINE
  8
0
 10
125.313
 20
641.054
 11
125.588
 21
641.312
  0
LINE
  8
0
 10
125.588
 20
641.312
 11
125.893
 21
641.533
  0
LINE
  8
0
 10
125.893
 20
641.533
 11
126.223
 21
641.714
  0
LINE
  8
0
 10
126.223
 20
641.714
 11
126.573
 21
641.853
  0
LINE
  8
0
 10
126.573
 20
641.853
 11
126.938
 21
641.947
  0
LINE
  8
0
 10
126.938
 20
641.947
 11
127.312
 21
641.994
  0
LINE
  8
0
 10
127.312
 20
641.994
 11
127.688
 21
641.994
  0
LINE
  8
0
 10
127.688
 20
641.994
 11
128.062
 21
641.947
  0
LINE
  8
0
 10
128.062
 20
641.947
 11
128.427
 21
641.853
  0
LINE
  8
0
 10
128.427
 20
641.853
 11
128.777
 21
641.714
  0
LINE
  8
0
 10
128.777
 20
641.714
 11
129.107
 21
641.533
  0
LINE
  8
0
 10
129.107
 20
641.533
 11
129.412
 21
641.312
  0
LINE
  8
0
 10
129.412
 20
641.312
 11
129.687
 21
641.054
  0
LINE
  8
0
 10
129.687
 20
641.054
 11
129.927
 21
640.763
  0
LINE
  8
0
 10
129.927
 20
640.763
 11
130.129
 21
640.445
  0
LINE
  8
0
 10
130.129
 20
640.445
 11
130.289
 21
640.104
  0
LINE
  8
0
 10
130.289
 20
640.104
 11
130.406
 21
639.746
  0
LINE
  8
0
 10
130.406
 20
639.746
 11
130.476
 21
639.376
  0
LINE
  8
0
 10
130.476
 20
639.376
 11
130.5
 21
639
  0
LINE
  8
0
 10
130.5
 20
639
 11
130.476
 21
638.624
  0
LINE
  8
0
 10
130.476
 20
638.624
 11
130.406
 21
638.254
  0
LINE
  8
0
 10
130.406
 20
638.254
 11
130.289
 21
637.896
  0
LINE
  8
0
 10
130.289
 20
637.896
 11
130.129
 21
637.555
  0
LINE
  8
0
 10
130.129
 20
637.555
 11
129.927
 21
637.237
  0
LINE
  8
0
 10
129.927
 20
637.237
 11
129.687
 21
636.946
  0
LINE
  8
0
 10
129.687
 20
636.946
 11
129.412
 21
636.688
  0
LINE
  8
0
 10
129.412
 20
636.688
 11
129.107
 21
636.467
  0
LINE
  8
0
 10
129.107
 20
636.467
 11
128.777
 21
636.286
  0
LINE
  8
0
 10
128.777
 20
636.286
 11
128.427
 21
636.147
  0
LINE
  8
0
 10
128.427
 20
636.147
 11
128.062
 21
636.053
  0
LINE
  8
0
 10
128.062
 20
636.053
 11
127.688
 21
636.006
  0
LINE
  8
0
 10
127.688
 20
636.006
 11
127.312
 21
636.006
  0
LINE
  8
0
 10
-127.688
 20
636.006
 11
-128.062
 21
636.053
  0
LINE
  8
0
 10
-128.062
 20
636.053
 11
-128.427
 21
636.147
  0
LINE
  8
0
 10
-128.427
 20
636.147
 11
-128.777
 21
636.286
  0
LINE
  8
0
 10
-128.777
 20
636.286
 11
-129.107
 21
636.467
  0
LINE
  8
0
 10
-129.107
 20
636.467
 11
-129.412
 21
636.688
  0
LINE
  8
0
 10
-129.412
 20
636.688
 11
-129.687
 21
636.946
  0
LINE
  8
0
 10
-129.687
 20
636.946
 11
-129.927
 21
637.237
  0
LINE
  8
0
 10
-129.927
 20
637.237
 11
-130.129
 21
637.555
  0
LINE
  8
0
 10
-130.129
 20
637.555
 11
-130.289
 21
637.896
  0
LINE
  8
0
 10
-130.289
 20
637.896
 11
-130.406
 21
638.254
  0
LINE
  8
0
 10
-130.406
 20
638.254
 11
-130.476
 21
638.624
  0
LINE
  8
0
 10
-130.476
 20
638.624
 11
-130.5
 21
639
  0
LINE
  8
0
 10
-130.5
 20
639
 11
-130.476
 21
639.376
  0
LINE
  8
0
 10
-130.476
 20
639.376
 11
-130.406
 21
639.746
  0
LINE
  8
0
 10
-130.406
 20
639.746
 11
-130.289
 21
640.104
  0
LINE
  8
0
 10
-130.289
 20
640.104
 11
-130.129
 21
640.445
  0
LINE
  8
0
 10
-130.129
 20
640.445
 11
-129.927
 21
640.763
  0
LINE
  8
0
 10
-129.927
 20
640.763
 11
-129.687
 21
641.054
  0
LINE
  8
0
 10
-129.687
 20
641.054
 11
-129.412
 21
641.312
  0
LINE
  8
0
 10
-129.412
 20
641.312
 11
-129.107
 21
641.533
  0
LINE
  8
0
 10
-129.107
 20
641.533
 11
-128.777
 21
641.714
  0
LINE
  8
0
 10
-128.777
 20
641.714
 11
-128.427
 21
641.853
  0
LINE
  8
0
 10
-128.427
 20
641.853
 11
-128.062
 21
641.947
  0
LINE
  8
0
 10
-128.062
 20
641.947
 11
-127.688
 21
641.994
  0
LINE
  8
0
 10
-127.688
 20
641.994
 11
-127.312
 21
641.994
  0
LINE
  8
0
 10
-127.312
 20
641.994
 11
-126.938
 21
641.947
  0
LINE
  8
0
 10
-126.938
 20
641.947
 11
-126.573
 21
641.853
  0
LINE
  8
0
 10
-126.573
 20
641.853
 11
-126.223
 21
641.714
  0
LINE
  8
0
 10
-126.223
 20
641.714
 11
-125.893
 21
641.533
  0
LINE
  8
0
 10
-125.893
 20
641.533
 11
-125.588
 21
641.312
  0
LINE
  8
0
 10
-125.588
 20
641.312
 11
-125.313
 21
641.054
  0
LINE
  8
0
 10
-125.313
 20
641.054
 11
-125.073
 21
640.763
  0
LINE
  8
0
 10
-125.073
 20
640.763
 11
-124.871
 21
640.445
  0
LINE
  8
0
 10
-124.871
 20
640.445
 11
-124.711
 21
640.104
  0
LINE
  8
0
 10
-124.711
 20
640.104
 11
-124.594
 21
639.746
  0
LINE
  8
0
 10
-124.594
 20
639.746
 11
-124.524
 21
639.376
  0
LINE
  8
0
 10
-124.524
 20
639.376
 11
-124.5
 21
639
  0
LINE
  8
0
 10
-124.5
 20
639
 11
-124.524
 21
638.624
  0
LINE
  8
0
 10
-124.524
 20
638.624
 11
-124.594
 21
638.254
  0
LINE
  8
0
 10
-124.594
 20
638.254
 11
-124.711
 21
637.896
  0
LINE
  8
0
 10
-124.711
 20
637.896
 11
-124.871
 21
637.555
  0
LINE
  8
0
 10
-124.871
 20
637.555
 11
-125.073
 21
637.237
  0
LINE
  8
0
 10
-125.073
 20
637.237
 11
-125.313
 21
636.946
  0
LINE
  8
0
 10
-125.313
 20
636.946
 11
-125.588
 21
636.688
  0
LINE
  8
0
 10
-125.588
 20
636.688
 11
-125.893
 21
636.467
  0
LINE
  8
0
 10
-125.893
 20
636.467
 11
-126.223
 21
636.286
  0
LINE
  8
0
 10
-126.223
 20
636.286
 11
-126.573
 21
636.147
  0
LINE
  8
0
 10
-126.573
 20
636.147
 11
-126.938
 21
636.053
  0
LINE
  8
0
 10
-126.938
 20
636.053
 11
-127.312
 21
636.006
  0
LINE
  8
0
 10
-127.312
 20
636.006
 11
-127.688
 21
636.006
  0
LINE
  8
0
 10
130.437
 20
518.089
 11
131.045
 21
518.245
  0
LINE
  8
0
 10
131.045
 20
518.245
 11
131.629
 21
518.476
  0
LINE
  8
0
 10
131.629
 20
518.476
 11
132.179
 21
518.778
  0
LINE
  8
0
 10
132.179
 20
518.778
 11
132.687
 21
519.147
  0
LINE
  8
0
 10
132.687
 20
519.147
 11
133.145
 21
519.577
  0
LINE
  8
0
 10
133.145
 20
519.577
 11
133.545
 21
520.061
  0
LINE
  8
0
 10
133.545
 20
520.061
 11
133.882
 21
520.591
  0
LINE
  8
0
 10
133.882
 20
520.591
 11
134.149
 21
521.159
  0
LINE
  8
0
 10
134.149
 20
521.159
 11
134.343
 21
521.757
  0
LINE
  8
0
 10
134.343
 20
521.757
 11
134.461
 21
522.373
  0
LINE
  8
0
 10
134.461
 20
522.373
 11
134.5
 21
523
  0
LINE
  8
0
 10
134.5
 20
523
 11
134.5
 21
617
  0
LINE
  8
0
 10
134.5
 20
617
 11
134.461
 21
617.627
  0
LINE
  8
0
 10
134.461
 20
617.627
 11
134.343
 21
618.243
  0
LINE
  8
0
 10
134.343
 20
618.243
 11
134.149
 21
618.841
  0
LINE
  8
0
 10
134.149
 20
618.841
 11
133.882
 21
619.409
  0
LINE
  8
0
 10
133.882
 20
619.409
 11
133.545
 21
619.939
  0
LINE
  8
0
 10
133.545
 20
619.939
 11
133.145
 21
620.423
  0
LINE
  8
0
 10
133.145
 20
620.423
 11
132.687
 21
620.853
  0
LINE
  8
0
 10
132.687
 20
620.853
 11
132.179
 21
621.222
  0
LINE
  8
0
 10
132.179
 20
621.222
 11
131.629
 21
621.524
  0
LINE
  8
0
 10
131.629
 20
621.524
 11
131.045
 21
621.755
  0
LINE
  8
0
 10
131.045
 20
621.755
 11
130.437
 21
621.911
  0
LINE
  8
0
 10
130.437
 20
621.911
 11
129.814
 21
621.99
  0
LINE
  8
0
 10
129.814
 20
621.99
 11
-129.814
 21
621.99
  0
LINE
  8
0
 10
-129.814
 20
621.99
 11
-130.437
 21
621.911
  0
LINE
  8
0
 10
-130.437
 20
621.911
 11
-131.045
 21
621.755
  0
LINE
  8
0
 10
-131.045
 20
621.755
 11
-131.629
 21
621.524
  0
LINE
  8
0
 10
-131.629
 20
621.524
 11
-132.179
 21
621.222
  0
LINE
  8
0
 10
-132.179
 20
621.222
 11
-132.687
 21
620.853
  0
LINE
  8
0
 10
-132.687
 20
620.853
 11
-133.145
 21
620.423
  0
LINE
  8
0
 10
-133.145
 20
620.423
 11
-133.545
 21
619.939
  0
LINE
  8
0
 10
-133.545
 20
619.939
 11
-133.882
 21
619.409
  0
LINE
  8
0
 10
-133.882
 20
619.409
 11
-134.149
 21
618.841
  0
LINE
  8
0
 10
-134.149
 20
618.841
 11
-134.343
 21
618.243
  0
LINE
  8
0
 10
-134.343
 20
618.243
 11
-134.461
 21
617.627
  0
LINE
  8
0
 10
-134.461
 20
617.627
 11
-134.5
 21
617
  0
LINE
  8
0
 10
-134.5
 20
617
 11
-134.5
 21
523
  0
LINE
  8
0
 10
-134.5
 20
523
 11
-134.461
 21
522.373
  0
LINE
  8
0
 10
-134.461
 20
522.373
 11
-134.343
 21
521.757
  0
LINE
  8
0
 10
-134.343
 20
521.757
 11
-134.149
 21
521.159
  0
LINE
  8
0
 10
-134.149
 20
521.159
 11
-133.882
 21
520.591
  0
LINE
  8
0
 10
-133.882
 20
520.591
 11
-133.545
 21
520.061
  0
LINE
  8
0
 10
-133.545
 20
520.061
 11
-133.145
 21
519.577
  0
LINE
  8
0
 10
-133.145
 20
519.577
 11
-132.687
 21
519.147
  0
LINE
  8
0
 10
-132.687
 20
519.147
 11
-132.179
 21
518.778
  0
LINE
  8
0
 10
-132.179
 20
518.778
 11
-131.629
 21
518.476
  0
LINE
  8
0
 10
-131.629
 20
518.476
 11
-131.045
 21
518.245
  0
LINE
  8
0
 10
-131.045
 20
518.245
 11
-130.437
 21
518.089
  0
LINE
  8
0
 10
-130.437
 20
518.089
 11
-129.814
 21
518.01
  0
LINE
  8
0
 10
-129.814
 20
518.01
 11
129.814
 21
518.01
  0
LINE
  8
0
 10
129.814
 20
518.01
 11
130.437
 21
518.089
  0
LINE
  8
0
 10
-127.688
 20
612.006
 11
-128.062
 21
612.053
  0
LINE
  8
0
 10
-128.062
 20
612.053
 11
-128.427
 21
612.147
  0
LINE
  8
0
 10
-128.427
 20
612.147
 11
-128.777
 21
612.286
  0
LINE
  8
0
 10
-128.777
 20
612.286
 11
-129.107
 21
612.467
  0
LINE
  8
0
 10
-129.107
 20
612.467
 11
-129.412
 21
612.688
  0
LINE
  8
0
 10
-129.412
 20
612.688
 11
-129.687
 21
612.946
  0
LINE
  8
0
 10
-129.687
 20
612.946
 11
-129.927
 21
613.237
  0
LINE
  8
0
 10
-129.927
 20
613.237
 11
-130.129
 21
613.555
  0
LINE
  8
0
 10
-130.129
 20
613.555
 11
-130.289
 21
613.896
  0
LINE
  8
0
 10
-130.289
 20
613.896
 11
-130.406
 21
614.254
  0
LINE
  8
0
 10
-130.406
 20
614.254
 11
-130.476
 21
614.624
  0
LINE
  8
0
 10
-130.476
 20
614.624
 11
-130.5
 21
615
  0
LINE
  8
0
 10
-130.5
 20
615
 11
-130.476
 21
615.376
  0
LINE
  8
0
 10
-130.476
 20
615.376
 11
-130.406
 21
615.746
  0
LINE
  8
0
 10
-130.406
 20
615.746
 11
-130.289
 21
616.104
  0
LINE
  8
0
 10
-130.289
 20
616.104
 11
-130.129
 21
616.445
  0
LINE
  8
0
 10
-130.129
 20
616.445
 11
-129.927
 21
616.763
  0
LINE
  8
0
 10
-129.927
 20
616.763
 11
-129.687
 21
617.054
  0
LINE
  8
0
 10
-129.687
 20
617.054
 11
-129.412
 21
617.312
  0
LINE
  8
0
 10
-129.412
 20
617.312
 11
-129.107
 21
617.533
  0
LINE
  8
0
 10
-129.107
 20
617.533
 11
-128.777
 21
617.714
  0
LINE
  8
0
 10
-128.777
 20
617.714
 11
-128.427
 21
617.853
  0
LINE
  8
0
 10
-128.427
 20
617.853
 11
-128.062
 21
617.947
  0
LINE
  8
0
 10
-128.062
 20
617.947
 11
-127.688
 21
617.994
  0
LINE
  8
0
 10
-127.688
 20
617.994
 11
-127.312
 21
617.994
  0
LINE
  8
0
 10
-127.312
 20
617.994
 11
-126.938
 21
617.947
  0
LINE
  8
0
 10
-126.938
 20
617.947
 11
-126.573
 21
617.853
  0
LINE
  8
0
 10
-126.573
 20
617.853
 11
-126.223
 21
617.714
  0
LINE
  8
0
 10
-126.223
 20
617.714
 11
-125.893
 21
617.533
  0
LINE
  8
0
 10
-125.893
 20
617.533
 11
-125.588
 21
617.312
  0
LINE
  8
0
 10
-125.588
 20
617.312
 11
-125.313
 21
617.054
  0
LINE
  8
0
 10
-125.313
 20
617.054
 11
-125.073
 21
616.763
  0
LINE
  8
0
 10
-125.073
 20
616.763
 11
-124.871
 21
616.445
  0
LINE
  8
0
 10
-124.871
 20
616.445
 11
-124.711
 21
616.104
  0
LINE
  8
0
 10
-124.711
 20
616.104
 11
-124.594
 21
615.746
  0
LINE
  8
0
 10
-124.594
 20
615.746
 11
-124.524
 21
615.376
  0
LINE
  8
0
 10
-124.524
 20
615.376
 11
-124.5
 21
615
  0
LINE
  8
0
 10
-124.5
 20
615
 11
-124.524
 21
614.624
  0
LINE
  8
0
 10
-124.524
 20
614.624
 11
-124.594
 21
614.254
  0
LINE
  8
0
 10
-124.594
 20
614.254
 11
-124.711
 21
613.896
  0
LINE
  8
0
 10
-124.711
 20
613.896
 11
-124.871
 21
613.555
  0
LINE
  8
0
 10
-124.871
 20
613.555
 11
-125.073
 21
613.237
  0
LINE
  8
0
 10
-125.073
 20
613.237
 11
-125.313
 21
612.946
  0
LINE
  8
0
 10
-125.313
 20
612.946
 11
-125.588
 21
612.688
  0
LINE
  8
0
 10
-125.588
 20
612.688
 11
-125.893
 21
612.467
  0
LINE
  8
0
 10
-125.893
 20
612.467
 11
-126.223
 21
612.286
  0
LINE
  8
0
 10
-126.223
 20
612.286
 11
-126.573
 21
612.147
  0
LINE
  8
0
 10
-126.573
 20
612.147
 11
-126.938
 21
612.053
  0
LINE
  8
0
 10
-126.938
 20
612.053
 11
-127.312
 21
612.006
  0
LINE
  8
0
 10
-127.312
 20
612.006
 11
-127.688
 21
612.006
  0
LINE
  8
0
 10
127.312
 20
612.006
 11
126.938
 21
612.053
  0
LINE
  8
0
 10
126.938
 20
612.053
 11
126.573
 21
612.147
  0
LINE
  8
0
 10
126.573
 20
612.147
 11
126.223
 21
612.286
  0
LINE
  8
0
 10
126.223
 20
612.286
 11
125.893
 21
612.467
  0
LINE
  8
0
 10
125.893
 20
612.467
 11
125.588
 21
612.688
  0
LINE
  8
0
 10
125.588
 20
612.688
 11
125.313
 21
612.946
  0
LINE
  8
0
 10
125.313
 20
612.946
 11
125.073
 21
613.237
  0
LINE
  8
0
 10
125.073
 20
613.237
 11
124.871
 21
613.555
  0
LINE
  8
0
 10
124.871
 20
613.555
 11
124.711
 21
613.896
  0
LINE
  8
0
 10
124.711
 20
613.896
 11
124.594
 21
614.254
  0
LINE
  8
0
 10
124.594
 20
614.254
 11
124.524
 21
614.624
  0
LINE
  8
0
 10
124.524
 20
614.624
 11
124.5
 21
615
  0
LINE
  8
0
 10
124.5
 20
615
 11
124.524
 21
615.376
  0
LINE
  8
0
 10
124.524
 20
615.376
 11
124.594
 21
615.746
  0
LINE
  8
0
 10
124.594
 20
615.746
 11
124.711
 21
616.104
  0
LINE
  8
0
 10
124.711
 20
616.104
 11
124.871
 21
616.445
  0
LINE
  8
0
 10
124.871
 20
616.445
 11
125.073
 21
616.763
  0
LINE
  8
0
 10
125.073
 20
616.763
 11
125.313
 21
617.054
  0
LINE
  8
0
 10
125.313
 20
617.054
 11
125.588
 21
617.312
  0
LINE
  8
0
 10
125.588
 20
617.312
 11
125.893
 21
617.533
  0
LINE
  8
0
 10
125.893
 20
617.533
 11
126.223
 21
617.714
  0
LINE
  8
0
 10
126.223
 20
617.714
 11
126.573
 21
617.853
  0
LINE
  8
0
 10
126.573
 20
617.853
 11
126.938
 21
617.947
  0
LINE
  8
0
 10
126.938
 20
617.947
 11
127.312
 21
617.994
  0
LINE
  8
0
 10
127.312
 20
617.994
 11
127.688
 21
617.994
  0
LINE
  8
0
 10
127.688
 20
617.994
 11
128.062
 21
617.947
  0
LINE
  8
0
 10
128.062
 20
617.947
 11
128.427
 21
617.853
  0
LINE
  8
0
 10
128.427
 20
617.853
 11
128.777
 21
617.714
  0
LINE
  8
0
 10
128.777
 20
617.714
 11
129.107
 21
617.533
  0
LINE
  8
0
 10
129.107
 20
617.533
 11
129.412
 21
617.312
  0
LINE
  8
0
 10
129.412
 20
617.312
 11
129.687
 21
617.054
  0
LINE
  8
0
 10
129.687
 20
617.054
 11
129.927
 21
616.763
  0
LINE
  8
0
 10
129.927
 20
616.763
 11
130.129
 21
616.445
  0
LINE
  8
0
 10
130.129
 20
616.445
 11
130.289
 21
616.104
  0
LINE
  8
0
 10
130.289
 20
616.104
 11
130.406
 21
615.746
  0
LINE
  8
0
 10
130.406
 20
615.746
 11
130.476
 21
615.376
  0
LINE
  8
0
 10
130.476
 20
615.376
 11
130.5
 21
615
  0
LINE
  8
0
 10
130.5
 20
615
 11
130.476
 21
614.624
  0
LINE
  8
0
 10
130.476
 20
614.624
 11
130.406
 21
614.254
  0
LINE
  8
0
 10
130.406
 20
614.254
 11
130.289
 21
613.896
  0
LINE
  8
0
 10
130.289
 20
613.896
 11
130.129
 21
613.555
  0
LINE
  8
0
 10
130.129
 20
613.555
 11
129.927
 21
613.237
  0
LINE
  8
0
 10
129.927
 20
613.237
 11
129.687
 21
612.946
  0
LINE
  8
0
 10
129.687
 20
612.946
 11
129.412
 21
612.688
  0
LINE
  8
0
 10
129.412
 20
612.688
 11
129.107
 21
612.467
  0
LINE
  8
0
 10
129.107
 20
612.467
 11
128.777
 21
612.286
  0
LINE
  8
0
 10
128.777
 20
612.286
 11
128.427
 21
612.147
  0
LINE
  8
0
 10
128.427
 20
612.147
 11
128.062
 21
612.053
  0
LINE
  8
0
 10
128.062
 20
612.053
 11
127.688
 21
612.006
  0
LINE
  8
0
 10
127.688
 20
612.006
 11
127.312
 21
612.006
  0
LINE
  8
0
 10
-127.688
 20
522.006
 11
-128.062
 21
522.053
  0
LINE
  8
0
 10
-128.062
 20
522.053
 11
-128.427
 21
522.147
  0
LINE
  8
0
 10
-128.427
 20
522.147
 11
-128.777
 21
522.286
  0
LINE
  8
0
 10
-128.777
 20
522.286
 11
-129.107
 21
522.467
  0
LINE
  8
0
 10
-129.107
 20
522.467
 11
-129.412
 21
522.688
  0
LINE
  8
0
 10
-129.412
 20
522.688
 11
-129.687
 21
522.946
  0
LINE
  8
0
 10
-129.687
 20
522.946
 11
-129.927
 21
523.237
  0
LINE
  8
0
 10
-129.927
 20
523.237
 11
-130.129
 21
523.555
  0
LINE
  8
0
 10
-130.129
 20
523.555
 11
-130.289
 21
523.896
  0
LINE
  8
0
 10
-130.289
 20
523.896
 11
-130.406
 21
524.254
  0
LINE
  8
0
 10
-130.406
 20
524.254
 11
-130.476
 21
524.624
  0
LINE
  8
0
 10
-130.476
 20
524.624
 11
-130.5
 21
525
  0
LINE
  8
0
 10
-130.5
 20
525
 11
-130.476
 21
525.376
  0
LINE
  8
0
 10
-130.476
 20
525.376
 11
-130.406
 21
525.746
  0
LINE
  8
0
 10
-130.406
 20
525.746
 11
-130.289
 21
526.104
  0
LINE
  8
0
 10
-130.289
 20
526.104
 11
-130.129
 21
526.445
  0
LINE
  8
0
 10
-130.129
 20
526.445
 11
-129.927
 21
526.763
  0
LINE
  8
0
 10
-129.927
 20
526.763
 11
-129.687
 21
527.054
  0
LINE
  8
0
 10
-129.687
 20
527.054
 11
-129.412
 21
527.312
  0
LINE
  8
0
 10
-129.412
 20
527.312
 11
-129.107
 21
527.533
  0
LINE
  8
0
 10
-129.107
 20
527.533
 11
-128.777
 21
527.714
  0
LINE
  8
0
 10
-128.777
 20
527.714
 11
-128.427
 21
527.853
  0
LINE
  8
0
 10
-128.427
 20
527.853
 11
-128.062
 21
527.947
  0
LINE
  8
0
 10
-128.062
 20
527.947
 11
-127.688
 21
527.994
  0
LINE
  8
0
 10
-127.688
 20
527.994
 11
-127.312
 21
527.994
  0
LINE
  8
0
 10
-127.312
 20
527.994
 11
-126.938
 21
527.947
  0
LINE
  8
0
 10
-126.938
 20
527.947
 11
-126.573
 21
527.853
  0
LINE
  8
0
 10
-126.573
 20
527.853
 11
-126.223
 21
527.714
  0
LINE
  8
0
 10
-126.223
 20
527.714
 11
-125.893
 21
527.533
  0
LINE
  8
0
 10
-125.893
 20
527.533
 11
-125.588
 21
527.312
  0
LINE
  8
0
 10
-125.588
 20
527.312
 11
-125.313
 21
527.054
  0
LINE
  8
0
 10
-125.313
 20
527.054
 11
-125.073
 21
526.763
  0
LINE
  8
0
 10
-125.073
 20
526.763
 11
-124.871
 21
526.445
  0
LINE
  8
0
 10
-124.871
 20
526.445
 11
-124.711
 21
526.104
  0
LINE
  8
0
 10
-124.711
 20
526.104
 11
-124.594
 21
525.746
  0
LINE
  8
0
 10
-124.594
 20
525.746
 11
-124.524
 21
525.376
  0
LINE
  8
0
 10
-124.524
 20
525.376
 11
-124.5
 21
525
  0
LINE
  8
0
 10
-124.5
 20
525
 11
-124.524
 21
524.624
  0
LINE
  8
0
 10
-124.524
 20
524.624
 11
-124.594
 21
524.254
  0
LINE
  8
0
 10
-124.594
 20
524.254
 11
-124.711
 21
523.896
  0
LINE
  8
0
 10
-124.711
 20
523.896
 11
-124.871
 21
523.555
  0
LINE
  8
0
 10
-124.871
 20
523.555
 11
-125.073
 21
523.237
  0
LINE
  8
0
 10
-125.073
 20
523.237
 11
-125.313
 21
522.946
  0
LINE
  8
0
 10
-125.313
 20
522.946
 11
-125.588
 21
522.688
  0
LINE
  8
0
 10
-125.588
 20
522.688
 11
-125.893
 21
522.467
  0
LINE
  8
0
 10
-125.893
 20
522.467
 11
-126.223
 21
522.286
  0
LINE
  8
0
 10
-126.223
 20
522.286
 11
-126.573
 21
522.147
  0
LINE
  8
0
 10
-126.573
 20
522.147
 11
-126.938
 21
522.053
  0
LINE
  8
0
 10
-126.938
 20
522.053
 11
-127.312
 21
522.006
  0
LINE
  8
0
 10
-127.312
 20
522.006
 11
-127.688
 21
522.006
  0
LINE
  8
0
 10
127.312
 20
522.006
 11
126.938
 21
522.053
  0
LINE
  8
0
 10
126.938
 20
522.053
 11
126.573
 21
522.147
  0
LINE
  8
0
 10
126.573
 20
522.147
 11
126.223
 21
522.286
  0
LINE
  8
0
 10
126.223
 20
522.286
 11
125.893
 21
522.467
  0
LINE
  8
0
 10
125.893
 20
522.467
 11
125.588
 21
522.688
  0
LINE
  8
0
 10
125.588
 20
522.688
 11
125.313
 21
522.946
  0
LINE
  8
0
 10
125.313
 20
522.946
 11
125.073
 21
523.237
  0
LINE
  8
0
 10
125.073
 20
523.237
 11
124.871
 21
523.555
  0
LINE
  8
0
 10
124.871
 20
523.555
 11
124.711
 21
523.896
  0
LINE
  8
0
 10
124.711
 20
523.896
 11
124.594
 21
524.254
  0
LINE
  8
0
 10
124.594
 20
524.254
 11
124.524
 21
524.624
  0
LINE
  8
0
 10
124.524
 20
524.624
 11
124.5
 21
525
  0
LINE
  8
0
 10
124.5
 20
525
 11
124.524
 21
525.376
  0
LINE
  8
0
 10
124.524
 20
525.376
 11
124.594
 21
525.746
  0
LINE
  8
0
 10
124.594
 20
525.746
 11
124.711
 21
526.104
  0
LINE
  8
0
 10
124.711
 20
526.104
 11
124.871
 21
526.445
  0
LINE
  8
0
 10
124.871
 20
526.445
 11
125.073
 21
526.763
  0
LINE
  8
0
 10
125.073
 20
526.763
 11
125.313
 21
527.054
  0
LINE
  8
0
 10
125.313
 20
527.054
 11
125.588
 21
527.312
  0
LINE
  8
0
 10
125.588
 20
527.312
 11
125.893
 21
527.533
  0
LINE
  8
0
 10
125.893
 20
527.533
 11
126.223
 21
527.714
  0
LINE
  8
0
 10
126.223
 20
527.714
 11
126.573
 21
527.853
  0
LINE
  8
0
 10
126.573
 20
527.853
 11
126.938
 21
527.947
  0
LINE
  8
0
 10
126.938
 20
527.947
 11
127.312
 21
527.994
  0
LINE
  8
0
 10
127.312
 20
527.994
 11
127.688
 21
527.994
  0
LINE
  8
0
 10
127.688
 20
527.994
 11
128.062
 21
527.947
  0
LINE
  8
0
 10
128.062
 20
527.947
 11
128.427
 21
527.853
  0
LINE
  8
0
 10
128.427
 20
527.853
 11
128.777
 21
527.714
  0
LINE
  8
0
 10
128.777
 20
527.714
 11
129.107
 21
527.533
  0
LINE
  8
0
 10
129.107
 20
527.533
 11
129.412
 21
527.312
  0
LINE
  8
0
 10
129.412
 20
527.312
 11
129.687
 21
527.054
  0
LINE
  8
0
 10
129.687
 20
527.054
 11
129.927
 21
526.763
  0
LINE
  8
0
 10
129.927
 20
526.763
 11
130.129
 21
526.445
  0
LINE
  8
0
 10
130.129
 20
526.445
 11
130.289
 21
526.104
  0
LINE
  8
0
 10
130.289
 20
526.104
 11
130.406
 21
525.746
  0
LINE
  8
0
 10
130.406
 20
525.746
 11
130.476
 21
525.376
  0
LINE
  8
0
 10
130.476
 20
525.376
 11
130.5
 21
525
  0
LINE
  8
0
 10
130.5
 20
525
 11
130.476
 21
524.624
  0
LINE
  8
0
 10
130.476
 20
524.624
 11
130.406
 21
524.254
  0
LINE
  8
0
 10
130.406
 20
524.254
 11
130.289
 21
523.896
  0
LINE
  8
0
 10
130.289
 20
523.896
 11
130.129
 21
523.555
  0
LINE
  8
0
 10
130.129
 20
523.555
 11
129.927
 21
523.237
  0
LINE
  8
0
 10
129.927
 20
523.237
 11
129.687
 21
522.946
  0
LINE
  8
0
 10
129.687
 20
522.946
 11
129.412
 21
522.688
  0
LINE
  8
0
 10
129.412
 20
522.688
 11
129.107
 21
522.467
  0
LINE
  8
0
 10
129.107
 20
522.467
 11
128.777
 21
522.286
  0
LINE
  8
0
 10
128.777
 20
522.286
 11
128.427
 21
522.147
  0
LINE
  8
0
 10
128.427
 20
522.147
 11
128.062
 21
522.053
  0
LINE
  8
0
 10
128.062
 20
522.053
 11
127.688
 21
522.006
  0
LINE
  8
0
 10
127.688
 20
522.006
 11
127.312
 21
522.006
  0
LINE
  8
0
 10
130.437
 20
404.089
 11
131.045
 21
404.245
  0
LINE
  8
0
 10
131.045
 20
404.245
 11
131.629
 21
404.476
  0
LINE
  8
0
 10
131.629
 20
404.476
 11
132.179
 21
404.778
  0
LINE
  8
0
 10
132.179
 20
404.778
 11
132.687
 21
405.147
  0
LINE
  8
0
 10
132.687
 20
405.147
 11
133.145
 21
405.577
  0
LINE
  8
0
 10
133.145
 20
405.577
 11
133.545
 21
406.061
  0
LINE
  8
0
 10
133.545
 20
406.061
 11
133.882
 21
406.591
  0
LINE
  8
0
 10
133.882
 20
406.591
 11
134.149
 21
407.159
  0
LINE
  8
0
 10
134.149
 20
407.159
 11
134.343
 21
407.757
  0
LINE
  8
0
 10
134.343
 20
407.757
 11
134.461
 21
408.373
  0
LINE
  8
0
 10
134.461
 20
408.373
 11
134.5
 21
409
  0
LINE
  8
0
 10
134.5
 20
409
 11
134.5
 21
503
  0
LINE
  8
0
 10
134.5
 20
503
 11
134.461
 21
503.627
  0
LINE
  8
0
 10
134.461
 20
503.627
 11
134.343
 21
504.243
  0
LINE
  8
0
 10
134.343
 20
504.243
 11
134.149
 21
504.841
  0
LINE
  8
0
 10
134.149
 20
504.841
 11
133.882
 21
505.409
  0
LINE
  8
0
 10
133.882
 20
505.409
 11
133.545
 21
505.939
  0
LINE
  8
0
 10
133.545
 20
505.939
 11
133.145
 21
506.423
  0
LINE
  8
0
 10
133.145
 20
506.423
 11
132.687
 21
506.853
  0
LINE
  8
0
 10
132.687
 20
506.853
 11
132.179
 21
507.222
  0
LINE
  8
0
 10
132.179
 20
507.222
 11
131.629
 21
507.524
  0
LINE
  8
0
 10
131.629
 20
507.524
 11
131.045
 21
507.755
  0
LINE
  8
0
 10
131.045
 20
507.755
 11
130.437
 21
507.911
  0
LINE
  8
0
 10
130.437
 20
507.911
 11
129.814
 21
507.99
  0
LINE
  8
0
 10
129.814
 20
507.99
 11
-129.814
 21
507.99
  0
LINE
  8
0
 10
-129.814
 20
507.99
 11
-130.437
 21
507.911
  0
LINE
  8
0
 10
-130.437
 20
507.911
 11
-131.045
 21
507.755
  0
LINE
  8
0
 10
-131.045
 20
507.755
 11
-131.629
 21
507.524
  0
LINE
  8
0
 10
-131.629
 20
507.524
 11
-132.179
 21
507.222
  0
LINE
  8
0
 10
-132.179
 20
507.222
 11
-132.687
 21
506.853
  0
LINE
  8
0
 10
-132.687
 20
506.853
 11
-133.145
 21
506.423
  0
LINE
  8
0
 10
-133.145
 20
506.423
 11
-133.545
 21
505.939
  0
LINE
  8
0
 10
-133.545
 20
505.939
 11
-133.882
 21
505.409
  0
LINE
  8
0
 10
-133.882
 20
505.409
 11
-134.149
 21
504.841
  0
LINE
  8
0
 10
-134.149
 20
504.841
 11
-134.343
 21
504.243
  0
LINE
  8
0
 10
-134.343
 20
504.243
 11
-134.461
 21
503.627
  0
LINE
  8
0
 10
-134.461
 20
503.627
 11
-134.5
 21
503
  0
LINE
  8
0
 10
-134.5
 20
503
 11
-134.5
 21
409
  0
LINE
  8
0
 10
-134.5
 20
409
 11
-134.461
 21
408.373
  0
LINE
  8
0
 10
-134.461
 20
408.373
 11
-134.343
 21
407.757
  0
LINE
  8
0
 10
-134.343
 20
407.757
 11
-134.149
 21
407.159
  0
LINE
  8
0
 10
-134.149
 20
407.159
 11
-133.882
 21
406.591
  0
LINE
  8
0
 10
-133.882
 20
406.591
 11
-133.545
 21
406.061
  0
LINE
  8
0
 10
-133.545
 20
406.061
 11
-133.145
 21
405.577
  0
LINE
  8
0
 10
-133.145
 20
405.577
 11
-132.687
 21
405.147
  0
LINE
  8
0
 10
-132.687
 20
405.147
 11
-132.179
 21
404.778
  0
LINE
  8
0
 10
-132.179
 20
404.778
 11
-131.629
 21
404.476
  0
LINE
  8
0
 10
-131.629
 20
404.476
 11
-131.045
 21
404.245
  0
LINE
  8
0
 10
-131.045
 20
404.245
 11
-130.437
 21
404.089
  0
LINE
  8
0
 10
-130.437
 20
404.089
 11
-129.814
 21
404.01
  0
LINE
  8
0
 10
-129.814
 20
404.01
 11
129.814
 21
404.01
  0
LINE
  8
0
 10
129.814
 20
404.01
 11
130.437
 21
404.089
  0
LINE
  8
0
 10
-127.688
 20
498.006
 11
-128.062
 21
498.053
  0
LINE
  8
0
 10
-128.062
 20
498.053
 11
-128.427
 21
498.147
  0
LINE
  8
0
 10
-128.427
 20
498.147
 11
-128.777
 21
498.286
  0
LINE
  8
0
 10
-128.777
 20
498.286
 11
-129.107
 21
498.467
  0
LINE
  8
0
 10
-129.107
 20
498.467
 11
-129.412
 21
498.688
  0
LINE
  8
0
 10
-129.412
 20
498.688
 11
-129.687
 21
498.946
  0
LINE
  8
0
 10
-129.687
 20
498.946
 11
-129.927
 21
499.237
  0
LINE
  8
0
 10
-129.927
 20
499.237
 11
-130.129
 21
499.555
  0
LINE
  8
0
 10
-130.129
 20
499.555
 11
-130.289
 21
499.896
  0
LINE
  8
0
 10
-130.289
 20
499.896
 11
-130.406
 21
500.254
  0
LINE
  8
0
 10
-130.406
 20
500.254
 11
-130.476
 21
500.624
  0
LINE
  8
0
 10
-130.476
 20
500.624
 11
-130.5
 21
501
  0
LINE
  8
0
 10
-130.5
 20
501
 11
-130.476
 21
501.376
  0
LINE
  8
0
 10
-130.476
 20
501.376
 11
-130.406
 21
501.746
  0
LINE
  8
0
 10
-130.406
 20
501.746
 11
-130.289
 21
502.104
  0
LINE
  8
0
 10
-130.289
 20
502.104
 11
-130.129
 21
502.445
  0
LINE
  8
0
 10
-130.129
 20
502.445
 11
-129.927
 21
502.763
  0
LINE
  8
0
 10
-129.927
 20
502.763
 11
-129.687
 21
503.054
  0
LINE
  8
0
 10
-129.687
 20
503.054
 11
-129.412
 21
503.312
  0
LINE
  8
0
 10
-129.412
 20
503.312
 11
-129.107
 21
503.533
  0
LINE
  8
0
 10
-129.107
 20
503.533
 11
-128.777
 21
503.714
  0
LINE
  8
0
 10
-128.777
 20
503.714
 11
-128.427
 21
503.853
  0
LINE
  8
0
 10
-128.427
 20
503.853
 11
-128.062
 21
503.947
  0
LINE
  8
0
 10
-128.062
 20
503.947
 11
-127.688
 21
503.994
  0
LINE
  8
0
 10
-127.688
 20
503.994
 11
-127.312
 21
503.994
  0
LINE
  8
0
 10
-127.312
 20
503.994
 11
-126.938
 21
503.947
  0
LINE
  8
0
 10
-126.938
 20
503.947
 11
-126.573
 21
503.853
  0
LINE
  8
0
 10
-126.573
 20
503.853
 11
-126.223
 21
503.714
  0
LINE
  8
0
 10
-126.223
 20
503.714
 11
-125.893
 21
503.533
  0
LINE
  8
0
 10
-125.893
 20
503.533
 11
-125.588
 21
503.312
  0
LINE
  8
0
 10
-125.588
 20
503.312
 11
-125.313
 21
503.054
  0
LINE
  8
0
 10
-125.313
 20
503.054
 11
-125.073
 21
502.763
  0
LINE
  8
0
 10
-125.073
 20
502.763
 11
-124.871
 21
502.445
  0
LINE
  8
0
 10
-124.871
 20
502.445
 11
-124.711
 21
502.104
  0
LINE
  8
0
 10
-124.711
 20
502.104
 11
-124.594
 21
501.746
  0
LINE
  8
0
 10
-124.594
 20
501.746
 11
-124.524
 21
501.376
  0
LINE
  8
0
 10
-124.524
 20
501.376
 11
-124.5
 21
501
  0
LINE
  8
0
 10
-124.5
 20
501
 11
-124.524
 21
500.624
  0
LINE
  8
0
 10
-124.524
 20
500.624
 11
-124.594
 21
500.254
  0
LINE
  8
0
 10
-124.594
 20
500.254
 11
-124.711
 21
499.896
  0
LINE
  8
0
 10
-124.711
 20
499.896
 11
-124.871
 21
499.555
  0
LINE
  8
0
 10
-124.871
 20
499.555
 11
-125.073
 21
499.237
  0
LINE
  8
0
 10
-125.073
 20
499.237
 11
-125.313
 21
498.946
  0
LINE
  8
0
 10
-125.313
 20
498.946
 11
-125.588
 21
498.688
  0
LINE
  8
0
 10
-125.588
 20
498.688
 11
-125.893
 21
498.467
  0
LINE
  8
0
 10
-125.893
 20
498.467
 11
-126.223
 21
498.286
  0
LINE
  8
0
 10
-126.223
 20
498.286
 11
-126.573
 21
498.147
  0
LINE
  8
0
 10
-126.573
 20
498.147
 11
-126.938
 21
498.053
  0
LINE
  8
0
 10
-126.938
 20
498.053
 11
-127.312
 21
498.006
  0
LINE
  8
0
 10
-127.312
 20
498.006
 11
-127.688
 21
498.006
  0
LINE
  8
0
 10
127.312
 20
498.006
 11
126.938
 21
498.053
  0
LINE
  8
0
 10
126.938
 20
498.053
 11
126.573
 21
498.147
  0
LINE
  8
0
 10
126.573
 20
498.147
 11
126.223
 21
498.286
  0
LINE
  8
0
 10
126.223
 20
498.286
 11
125.893
 21
498.467
  0
LINE
  8
0
 10
125.893
 20
498.467
 11
125.588
 21
498.688
  0
LINE
  8
0
 10
125.588
 20
498.688
 11
125.313
 21
498.946
  0
LINE
  8
0
 10
125.313
 20
498.946
 11
125.073
 21
499.237
  0
LINE
  8
0
 10
125.073
 20
499.237
 11
124.871
 21
499.555
  0
LINE
  8
0
 10
124.871
 20
499.555
 11
124.711
 21
499.896
  0
LINE
  8
0
 10
124.711
 20
499.896
 11
124.594
 21
500.254
  0
LINE
  8
0
 10
124.594
 20
500.254
 11
124.524
 21
500.624
  0
LINE
  8
0
 10
124.524
 20
500.624
 11
124.5
 21
501
  0
LINE
  8
0
 10
124.5
 20
501
 11
124.524
 21
501.376
  0
LINE
  8
0
 10
124.524
 20
501.376
 11
124.594
 21
501.746
  0
LINE
  8
0
 10
124.594
 20
501.746
 11
124.711
 21
502.104
  0
LINE
  8
0
 10
124.711
 20
502.104
 11
124.871
 21
502.445
  0
LINE
  8
0
 10
124.871
 20
502.445
 11
125.073
 21
502.763
  0
LINE
  8
0
 10
125.073
 20
502.763
 11
125.313
 21
503.054
  0
LINE
  8
0
 10
125.313
 20
503.054
 11
125.588
 21
503.312
  0
LINE
  8
0
 10
125.588
 20
503.312
 11
125.893
 21
503.533
  0
LINE
  8
0
 10
125.893
 20
503.533
 11
126.223
 21
503.714
  0
LINE
  8
0
 10
126.223
 20
503.714
 11
126.573
 21
503.853
  0
LINE
  8
0
 10
126.573
 20
503.853
 11
126.938
 21
503.947
  0
LINE
  8
0
 10
126.938
 20
503.947
 11
127.312
 21
503.994
  0
LINE
  8
0
 10
127.312
 20
503.994
 11
127.688
 21
503.994
  0
LINE
  8
0
 10
127.688
 20
503.994
 11
128.062
 21
503.947
  0
LINE
  8
0
 10
128.062
 20
503.947
 11
128.427
 21
503.853
  0
LINE
  8
0
 10
128.427
 20
503.853
 11
128.777
 21
503.714
  0
LINE
  8
0
 10
128.777
 20
503.714
 11
129.107
 21
503.533
  0
LINE
  8
0
 10
129.107
 20
503.533
 11
129.412
 21
503.312
  0
LINE
  8
0
 10
129.412
 20
503.312
 11
129.687
 21
503.054
  0
LINE
  8
0
 10
129.687
 20
503.054
 11
129.927
 21
502.763
  0
LINE
  8
0
 10
129.927
 20
502.763
 11
130.129
 21
502.445
  0
LINE
  8
0
 10
130.129
 20
502.445
 11
130.289
 21
502.104
  0
LINE
  8
0
 10
130.289
 20
502.104
 11
130.406
 21
501.746
  0
LINE
  8
0
 10
130.406
 20
501.746
 11
130.476
 21
501.376
  0
LINE
  8
0
 10
130.476
 20
501.376
 11
130.5
 21
501
  0
LINE
  8
0
 10
130.5
 20
501
 11
130.476
 21
500.624
  0
LINE
  8
0
 10
130.476
 20
500.624
 11
130.406
 21
500.254
  0
LINE
  8
0
 10
130.406
 20
500.254
 11
130.289
 21
499.896
  0
LINE
  8
0
 10
130.289
 20
499.896
 11
130.129
 21
499.555
  0
LINE
  8
0
 10
130.129
 20
499.555
 11
129.927
 21
499.237
  0
LINE
  8
0
 10
129.927
 20
499.237
 11
129.687
 21
498.946
  0
LINE
  8
0
 10
129.687
 20
498.946
 11
129.412
 21
498.688
  0
LINE
  8
0
 10
129.412
 20
498.688
 11
129.107
 21
498.467
  0
LINE
  8
0
 10
129.107
 20
498.467
 11
128.777
 21
498.286
  0
LINE
  8
0
 10
128.777
 20
498.286
 11
128.427
 21
498.147
  0
LINE
  8
0
 10
128.427
 20
498.147
 11
128.062
 21
498.053
  0
LINE
  8
0
 10
128.062
 20
498.053
 11
127.688
 21
498.006
  0
LINE
  8
0
 10
127.688
 20
498.006
 11
127.312
 21
498.006
  0
LINE
  8
0
 10
-127.688
 20
408.006
 11
-128.062
 21
408.053
  0
LINE
  8
0
 10
-128.062
 20
408.053
 11
-128.427
 21
408.147
  0
LINE
  8
0
 10
-128.427
 20
408.147
 11
-128.777
 21
408.286
  0
LINE
  8
0
 10
-128.777
 20
408.286
 11
-129.107
 21
408.467
  0
LINE
  8
0
 10
-129.107
 20
408.467
 11
-129.412
 21
408.688
  0
LINE
  8
0
 10
-129.412
 20
408.688
 11
-129.687
 21
408.946
  0
LINE
  8
0
 10
-129.687
 20
408.946
 11
-129.927
 21
409.237
  0
LINE
  8
0
 10
-129.927
 20
409.237
 11
-130.129
 21
409.555
  0
LINE
  8
0
 10
-130.129
 20
409.555
 11
-130.289
 21
409.896
  0
LINE
  8
0
 10
-130.289
 20
409.896
 11
-130.406
 21
410.254
  0
LINE
  8
0
 10
-130.406
 20
410.254
 11
-130.476
 21
410.624
  0
LINE
  8
0
 10
-130.476
 20
410.624
 11
-130.5
 21
411
  0
LINE
  8
0
 10
-130.5
 20
411
 11
-130.476
 21
411.376
  0
LINE
  8
0
 10
-130.476
 20
411.376
 11
-130.406
 21
411.746
  0
LINE
  8
0
 10
-130.406
 20
411.746
 11
-130.289
 21
412.104
  0
LINE
  8
0
 10
-130.289
 20
412.104
 11
-130.129
 21
412.445
  0
LINE
  8
0
 10
-130.129
 20
412.445
 11
-129.927
 21
412.763
  0
LINE
  8
0
 10
-129.927
 20
412.763
 11
-129.687
 21
413.054
  0
LINE
  8
0
 10
-129.687
 20
413.054
 11
-129.412
 21
413.312
  0
LINE
  8
0
 10
-129.412
 20
413.312
 11
-129.107
 21
413.533
  0
LINE
  8
0
 10
-129.107
 20
413.533
 11
-128.777
 21
413.714
  0
LINE
  8
0
 10
-128.777
 20
413.714
 11
-128.427
 21
413.853
  0
LINE
  8
0
 10
-128.427
 20
413.853
 11
-128.062
 21
413.947
  0
LINE
  8
0
 10
-128.062
 20
413.947
 11
-127.688
 21
413.994
  0
LINE
  8
0
 10
-127.688
 20
413.994
 11
-127.312
 21
413.994
  0
LINE
  8
0
 10
-127.312
 20
413.994
 11
-126.938
 21
413.947
  0
LINE
  8
0
 10
-126.938
 20
413.947
 11
-126.573
 21
413.853
  0
LINE
  8
0
 10
-126.573
 20
413.853
 11
-126.223
 21
413.714
  0
LINE
  8
0
 10
-126.223
 20
413.714
 11
-125.893
 21
413.533
  0
LINE
  8
0
 10
-125.893
 20
413.533
 11
-125.588
 21
413.312
  0
LINE
  8
0
 10
-125.588
 20
413.312
 11
-125.313
 21
413.054
  0
LINE
  8
0
 10
-125.313
 20
413.054
 11
-125.073
 21
412.763
  0
LINE
  8
0
 10
-125.073
 20
412.763
 11
-124.871
 21
412.445
  0
LINE
  8
0
 10
-124.871
 20
412.445
 11
-124.711
 21
412.104
  0
LINE
  8
0
 10
-124.711
 20
412.104
 11
-124.594
 21
411.746
  0
LINE
  8
0
 10
-124.594
 20
411.746
 11
-124.524
 21
411.376
  0
LINE
  8
0
 10
-124.524
 20
411.376
 11
-124.5
 21
411
  0
LINE
  8
0
 10
-124.5
 20
411
 11
-124.524
 21
410.624
  0
LINE
  8
0
 10
-124.524
 20
410.624
 11
-124.594
 21
410.254
  0
LINE
  8
0
 10
-124.594
 20
410.254
 11
-124.711
 21
409.896
  0
LINE
  8
0
 10
-124.711
 20
409.896
 11
-124.871
 21
409.555
  0
LINE
  8
0
 10
-124.871
 20
409.555
 11
-125.073
 21
409.237
  0
LINE
  8
0
 10
-125.073
 20
409.237
 11
-125.313
 21
408.946
  0
LINE
  8
0
 10
-125.313
 20
408.946
 11
-125.588
 21
408.688
  0
LINE
  8
0
 10
-125.588
 20
408.688
 11
-125.893
 21
408.467
  0
LINE
  8
0
 10
-125.893
 20
408.467
 11
-126.223
 21
408.286
  0
LINE
  8
0
 10
-126.223
 20
408.286
 11
-126.573
 21
408.147
  0
LINE
  8
0
 10
-126.573
 20
408.147
 11
-126.938
 21
408.053
  0
LINE
  8
0
 10
-126.938
 20
408.053
 11
-127.312
 21
408.006
  0
LINE
  8
0
 10
-127.312
 20
408.006
 11
-127.688
 21
408.006
  0
LINE
  8
0
 10
127.312
 20
408.006
 11
126.938
 21
408.053
  0
LINE
  8
0
 10
126.938
 20
408.053
 11
126.573
 21
408.147
  0
LINE
  8
0
 10
126.573
 20
408.147
 11
126.223
 21
408.286
  0
LINE
  8
0
 10
126.223
 20
408.286
 11
125.893
 21
408.467
  0
LINE
  8
0
 10
125.893
 20
408.467
 11
125.588
 21
408.688
  0
LINE
  8
0
 10
125.588
 20
408.688
 11
125.313
 21
408.946
  0
LINE
  8
0
 10
125.313
 20
408.946
 11
125.073
 21
409.237
  0
LINE
  8
0
 10
125.073
 20
409.237
 11
124.871
 21
409.555
  0
LINE
  8
0
 10
124.871
 20
409.555
 11
124.711
 21
409.896
  0
LINE
  8
0
 10
124.711
 20
409.896
 11
124.594
 21
410.254
  0
LINE
  8
0
 10
124.594
 20
410.254
 11
124.524
 21
410.624
  0
LINE
  8
0
 10
124.524
 20
410.624
 11
124.5
 21
411
  0
LINE
  8
0
 10
124.5
 20
411
 11
124.524
 21
411.376
  0
LINE
  8
0
 10
124.524
 20
411.376
 11
124.594
 21
411.746
  0
LINE
  8
0
 10
124.594
 20
411.746
 11
124.711
 21
412.104
  0
LINE
  8
0
 10
124.711
 20
412.104
 11
124.871
 21
412.445
  0
LINE
  8
0
 10
124.871
 20
412.445
 11
125.073
 21
412.763
  0
LINE
  8
0
 10
125.073
 20
412.763
 11
125.313
 21
413.054
  0
LINE
  8
0
 10
125.313
 20
413.054
 11
125.588
 21
413.312
  0
LINE
  8
0
 10
125.588
 20
413.312
 11
125.893
 21
413.533
  0
LINE
  8
0
 10
125.893
 20
413.533
 11
126.223
 21
413.714
  0
LINE
  8
0
 10
126.223
 20
413.714
 11
126.573
 21
413.853
  0
LINE
  8
0
 10
126.573
 20
413.853
 11
126.938
 21
413.947
  0
LINE
  8
0
 10
126.938
 20
413.947
 11
127.312
 21
413.994
  0
LINE
  8
0
 10
127.312
 20
413.994
 11
127.688
 21
413.994
  0
LINE
  8
0
 10
127.688
 20
413.994
 11
128.062
 21
413.947
  0
LINE
  8
0
 10
128.062
 20
413.947
 11
128.427
 21
413.853
  0
LINE
  8
0
 10
128.427
 20
413.853
 11
128.777
 21
413.714
  0
LINE
  8
0
 10
128.777
 20
413.714
 11
129.107
 21
413.533
  0
LINE
  8
0
 10
129.107
 20
413.533
 11
129.412
 21
413.312
  0
LINE
  8
0
 10
129.412
 20
413.312
 11
129.687
 21
413.054
  0
LINE
  8
0
 10
129.687
 20
413.054
 11
129.927
 21
412.763
  0
LINE
  8
0
 10
129.927
 20
412.763
 11
130.129
 21
412.445
  0
LINE
  8
0
 10
130.129
 20
412.445
 11
130.289
 21
412.104
  0
LINE
  8
0
 10
130.289
 20
412.104
 11
130.406
 21
411.746
  0
LINE
  8
0
 10
130.406
 20
411.746
 11
130.476
 21
411.376
  0
LINE
  8
0
 10
130.476
 20
411.376
 11
130.5
 21
411
  0
LINE
  8
0
 10
130.5
 20
411
 11
130.476
 21
410.624
  0
LINE
  8
0
 10
130.476
 20
410.624
 11
130.406
 21
410.254
  0
LINE
  8
0
 10
130.406
 20
410.254
 11
130.289
 21
409.896
  0
LINE
  8
0
 10
130.289
 20
409.896
 11
130.129
 21
409.555
  0
LINE
  8
0
 10
130.129
 20
409.555
 11
129.927
 21
409.237
  0
LINE
  8
0
 10
129.927
 20
409.237
 11
129.687
 21
408.946
  0
LINE
  8
0
 10
129.687
 20
408.946
 11
129.412
 21
408.688
  0
LINE
  8
0
 10
129.412
 20
408.688
 11
129.107
 21
408.467
  0
LINE
  8
0
 10
129.107
 20
408.467
 11
128.777
 21
408.286
  0
LINE
  8
0
 10
128.777
 20
408.286
 11
128.427
 21
408.147
  0
LINE
  8
0
 10
128.427
 20
408.147
 11
128.062
 21
408.053
  0
LINE
  8
0
 10
128.062
 20
408.053
 11
127.688
 21
408.006
  0
LINE
  8
0
 10
127.688
 20
408.006
 11
127.312
 21
408.006
  0
LINE
  8
0
 10
130.437
 20
290.089
 11
131.045
 21
290.245
  0
LINE
  8
0
 10
131.045
 20
290.245
 11
131.629
 21
290.476
  0
LINE
  8
0
 10
131.629
 20
290.476
 11
132.179
 21
290.778
  0
LINE
  8
0
 10
132.179
 20
290.778
 11
132.687
 21
291.147
  0
LINE
  8
0
 10
132.687
 20
291.147
 11
133.145
 21
291.577
  0
LINE
  8
0
 10
133.145
 20
291.577
 11
133.545
 21
292.061
  0
LINE
  8
0
 10
133.545
 20
292.061
 11
133.882
 21
292.591
  0
LINE
  8
0
 10
133.882
 20
292.591
 11
134.149
 21
293.159
  0
LINE
  8
0
 10
134.149
 20
293.159
 11
134.343
 21
293.757
  0
LINE
  8
0
 10
134.343
 20
293.757
 11
134.461
 21
294.373
  0
LINE
  8
0
 10
134.461
 20
294.373
 11
134.5
 21
295
  0
LINE
  8
0
 10
134.5
 20
295
 11
134.5
 21
389
  0
LINE
  8
0
 10
134.5
 20
389
 11
134.461
 21
389.627
  0
LINE
  8
0
 10
134.461
 20
389.627
 11
134.343
 21
390.243
  0
LINE
  8
0
 10
134.343
 20
390.243
 11
134.149
 21
390.841
  0
LINE
  8
0
 10
134.149
 20
390.841
 11
133.882
 21
391.409
  0
LINE
  8
0
 10
133.882
 20
391.409
 11
133.545
 21
391.939
  0
LINE
  8
0
 10
133.545
 20
391.939
 11
133.145
 21
392.423
  0
LINE
  8
0
 10
133.145
 20
392.423
 11
132.687
 21
392.853
  0
LINE
  8
0
 10
132.687
 20
392.853
 11
132.179
 21
393.222
  0
LINE
  8
0
 10
132.179
 20
393.222
 11
131.629
 21
393.524
  0
LINE
  8
0
 10
131.629
 20
393.524
 11
131.045
 21
393.755
  0
LINE
  8
0
 10
131.045
 20
393.755
 11
130.437
 21
393.911
  0
LINE
  8
0
 10
130.437
 20
393.911
 11
129.814
 21
393.99
  0
LINE
  8
0
 10
129.814
 20
393.99
 11
-129.814
 21
393.99
  0
LINE
  8
0
 10
-129.814
 20
393.99
 11
-130.437
 21
393.911
  0
LINE
  8
0
 10
-130.437
 20
393.911
 11
-131.045
 21
393.755
  0
LINE
  8
0
 10
-131.045
 20
393.755
 11
-131.629
 21
393.524
  0
LINE
  8
0
 10
-131.629
 20
393.524
 11
-132.179
 21
393.222
  0
LINE
  8
0
 10
-132.179
 20
393.222
 11
-132.687
 21
392.853
  0
LINE
  8
0
 10
-132.687
 20
392.853
 11
-133.145
 21
392.423
  0
LINE
  8
0
 10
-133.145
 20
392.423
 11
-133.545
 21
391.939
  0
LINE
  8
0
 10
-133.545
 20
391.939
 11
-133.882
 21
391.409
  0
LINE
  8
0
 10
-133.882
 20
391.409
 11
-134.149
 21
390.841
  0
LINE
  8
0
 10
-134.149
 20
390.841
 11
-134.343
 21
390.243
  0
LINE
  8
0
 10
-134.343
 20
390.243
 11
-134.461
 21
389.627
  0
LINE
  8
0
 10
-134.461
 20
389.627
 11
-134.5
 21
389
  0
LINE
  8
0
 10
-134.5
 20
389
 11
-134.5
 21
295
  0
LINE
  8
0
 10
-134.5
 20
295
 11
-134.461
 21
294.373
  0
LINE
  8
0
 10
-134.461
 20
294.373
 11
-134.343
 21
293.757
  0
LINE
  8
0
 10
-134.343
 20
293.757
 11
-134.149
 21
293.159
  0
LINE
  8
0
 10
-134.149
 20
293.159
 11
-133.882
 21
292.591
  0
LINE
  8
0
 10
-133.882
 20
292.591
 11
-133.545
 21
292.061
  0
LINE
  8
0
 10
-133.545
 20
292.061
 11
-133.145
 21
291.577
  0
LINE
  8
0
 10
-133.145
 20
291.577
 11
-132.687
 21
291.147
  0
LINE
  8
0
 10
-132.687
 20
291.147
 11
-132.179
 21
290.778
  0
LINE
  8
0
 10
-132.179
 20
290.778
 11
-131.629
 21
290.476
  0
LINE
  8
0
 10
-131.629
 20
290.476
 11
-131.045
 21
290.245
  0
LINE
  8
0
 10
-131.045
 20
290.245
 11
-130.437
 21
290.089
  0
LINE
  8
0
 10
-130.437
 20
290.089
 11
-129.814
 21
290.01
  0
LINE
  8
0
 10
-129.814
 20
290.01
 11
129.814
 21
290.01
  0
LINE
  8
0
 10
129.814
 20
290.01
 11
130.437
 21
290.089
  0
LINE
  8
0
 10
-127.688
 20
384.006
 11
-128.062
 21
384.053
  0
LINE
  8
0
 10
-128.062
 20
384.053
 11
-128.427
 21
384.147
  0
LINE
  8
0
 10
-128.427
 20
384.147
 11
-128.777
 21
384.286
  0
LINE
  8
0
 10
-128.777
 20
384.286
 11
-129.107
 21
384.467
  0
LINE
  8
0
 10
-129.107
 20
384.467
 11
-129.412
 21
384.688
  0
LINE
  8
0
 10
-129.412
 20
384.688
 11
-129.687
 21
384.946
  0
LINE
  8
0
 10
-129.687
 20
384.946
 11
-129.927
 21
385.237
  0
LINE
  8
0
 10
-129.927
 20
385.237
 11
-130.129
 21
385.555
  0
LINE
  8
0
 10
-130.129
 20
385.555
 11
-130.289
 21
385.896
  0
LINE
  8
0
 10
-130.289
 20
385.896
 11
-130.406
 21
386.254
  0
LINE
  8
0
 10
-130.406
 20
386.254
 11
-130.476
 21
386.624
  0
LINE
  8
0
 10
-130.476
 20
386.624
 11
-130.5
 21
387
  0
LINE
  8
0
 10
-130.5
 20
387
 11
-130.476
 21
387.376
  0
LINE
  8
0
 10
-130.476
 20
387.376
 11
-130.406
 21
387.746
  0
LINE
  8
0
 10
-130.406
 20
387.746
 11
-130.289
 21
388.104
  0
LINE
  8
0
 10
-130.289
 20
388.104
 11
-130.129
 21
388.445
  0
LINE
  8
0
 10
-130.129
 20
388.445
 11
-129.927
 21
388.763
  0
LINE
  8
0
 10
-129.927
 20
388.763
 11
-129.687
 21
389.054
  0
LINE
  8
0
 10
-129.687
 20
389.054
 11
-129.412
 21
389.312
  0
LINE
  8
0
 10
-129.412
 20
389.312
 11
-129.107
 21
389.533
  0
LINE
  8
0
 10
-129.107
 20
389.533
 11
-128.777
 21
389.714
  0
LINE
  8
0
 10
-128.777
 20
389.714
 11
-128.427
 21
389.853
  0
LINE
  8
0
 10
-128.427
 20
389.853
 11
-128.062
 21
389.947
  0
LINE
  8
0
 10
-128.062
 20
389.947
 11
-127.688
 21
389.994
  0
LINE
  8
0
 10
-127.688
 20
389.994
 11
-127.312
 21
389.994
  0
LINE
  8
0
 10
-127.312
 20
389.994
 11
-126.938
 21
389.947
  0
LINE
  8
0
 10
-126.938
 20
389.947
 11
-126.573
 21
389.853
  0
LINE
  8
0
 10
-126.573
 20
389.853
 11
-126.223
 21
389.714
  0
LINE
  8
0
 10
-126.223
 20
389.714
 11
-125.893
 21
389.533
  0
LINE
  8
0
 10
-125.893
 20
389.533
 11
-125.588
 21
389.312
  0
LINE
  8
0
 10
-125.588
 20
389.312
 11
-125.313
 21
389.054
  0
LINE
  8
0
 10
-125.313
 20
389.054
 11
-125.073
 21
388.763
  0
LINE
  8
0
 10
-125.073
 20
388.763
 11
-124.871
 21
388.445
  0
LINE
  8
0
 10
-124.871
 20
388.445
 11
-124.711
 21
388.104
  0
LINE
  8
0
 10
-124.711
 20
388.104
 11
-124.594
 21
387.746
  0
LINE
  8
0
 10
-124.594
 20
387.746
 11
-124.524
 21
387.376
  0
LINE
  8
0
 10
-124.524
 20
387.376
 11
-124.5
 21
387
  0
LINE
  8
0
 10
-124.5
 20
387
 11
-124.524
 21
386.624
  0
LINE
  8
0
 10
-124.524
 20
386.624
 11
-124.594
 21
386.254
  0
LINE
  8
0
 10
-124.594
 20
386.254
 11
-124.711
 21
385.896
  0
LINE
  8
0
 10
-124.711
 20
385.896
 11
-124.871
 21
385.555
  0
LINE
  8
0
 10
-124.871
 20
385.555
 11
-125.073
 21
385.237
  0
LINE
  8
0
 10
-125.073
 20
385.237
 11
-125.313
 21
384.946
  0
LINE
  8
0
 10
-125.313
 20
384.946
 11
-125.588
 21
384.688
  0
LINE
  8
0
 10
-125.588
 20
384.688
 11
-125.893
 21
384.467
  0
LINE
  8
0
 10
-125.893
 20
384.467
 11
-126.223
 21
384.286
  0
LINE
  8
0
 10
-126.223
 20
384.286
 11
-126.573
 21
384.147
  0
LINE
  8
0
 10
-126.573
 20
384.147
 11
-126.938
 21
384.053
  0
LINE
  8
0
 10
-126.938
 20
384.053
 11
-127.312
 21
384.006
  0
LINE
  8
0
 10
-127.312
 20
384.006
 11
-127.688
 21
384.006
  0
LINE
  8
0
 10
127.312
 20
384.006
 11
126.938
 21
384.053
  0
LINE
  8
0
 10
126.938
 20
384.053
 11
126.573
 21
384.147
  0
LINE
  8
0
 10
126.573
 20
384.147
 11
126.223
 21
384.286
  0
LINE
  8
0
 10
126.223
 20
384.286
 11
125.893
 21
384.467
  0
LINE
  8
0
 10
125.893
 20
384.467
 11
125.588
 21
384.688
  0
LINE
  8
0
 10
125.588
 20
384.688
 11
125.313
 21
384.946
  0
LINE
  8
0
 10
125.313
 20
384.946
 11
125.073
 21
385.237
  0
LINE
  8
0
 10
125.073
 20
385.237
 11
124.871
 21
385.555
  0
LINE
  8
0
 10
124.871
 20
385.555
 11
124.711
 21
385.896
  0
LINE
  8
0
 10
124.711
 20
385.896
 11
124.594
 21
386.254
  0
LINE
  8
0
 10
124.594
 20
386.254
 11
124.524
 21
386.624
  0
LINE
  8
0
 10
124.524
 20
386.624
 11
124.5
 21
387
  0
LINE
  8
0
 10
124.5
 20
387
 11
124.524
 21
387.376
  0
LINE
  8
0
 10
124.524
 20
387.376
 11
124.594
 21
387.746
  0
LINE
  8
0
 10
124.594
 20
387.746
 11
124.711
 21
388.104
  0
LINE
  8
0
 10
124.711
 20
388.104
 11
124.871
 21
388.445
  0
LINE
  8
0
 10
124.871
 20
388.445
 11
125.073
 21
388.763
  0
LINE
  8
0
 10
125.073
 20
388.763
 11
125.313
 21
389.054
  0
LINE
  8
0
 10
125.313
 20
389.054
 11
125.588
 21
389.312
  0
LINE
  8
0
 10
125.588
 20
389.312
 11
125.893
 21
389.533
  0
LINE
  8
0
 10
125.893
 20
389.533
 11
126.223
 21
389.714
  0
LINE
  8
0
 10
126.223
 20
389.714
 11
126.573
 21
389.853
  0
LINE
  8
0
 10
126.573
 20
389.853
 11
126.938
 21
389.947
  0
LINE
  8
0
 10
126.938
 20
389.947
 11
127.312
 21
389.994
  0
LINE
  8
0
 10
127.312
 20
389.994
 11
127.688
 21
389.994
  0
LINE
  8
0
 10
127.688
 20
389.994
 11
128.062
 21
389.947
  0
LINE
  8
0
 10
128.062
 20
389.947
 11
128.427
 21
389.853
  0
LINE
  8
0
 10
128.427
 20
389.853
 11
128.777
 21
389.714
  0
LINE
  8
0
 10
128.777
 20
389.714
 11
129.107
 21
389.533
  0
LINE
  8
0
 10
129.107
 20
389.533
 11
129.412
 21
389.312
  0
LINE
  8
0
 10
129.412
 20
389.312
 11
129.687
 21
389.054
  0
LINE
  8
0
 10
129.687
 20
389.054
 11
129.927
 21
388.763
  0
LINE
  8
0
 10
129.927
 20
388.763
 11
130.129
 21
388.445
  0
LINE
  8
0
 10
130.129
 20
388.445
 11
130.289
 21
388.104
  0
LINE
  8
0
 10
130.289
 20
388.104
 11
130.406
 21
387.746
  0
LINE
  8
0
 10
130.406
 20
387.746
 11
130.476
 21
387.376
  0
LINE
  8
0
 10
130.476
 20
387.376
 11
130.5
 21
387
  0
LINE
  8
0
 10
130.5
 20
387
 11
130.476
 21
386.624
  0
LINE
  8
0
 10
130.476
 20
386.624
 11
130.406
 21
386.254
  0
LINE
  8
0
 10
130.406
 20
386.254
 11
130.289
 21
385.896
  0
LINE
  8
0
 10
130.289
 20
385.896
 11
130.129
 21
385.555
  0
LINE
  8
0
 10
130.129
 20
385.555
 11
129.927
 21
385.237
  0
LINE
  8
0
 10
129.927
 20
385.237
 11
129.687
 21
384.946
  0
LINE
  8
0
 10
129.687
 20
384.946
 11
129.412
 21
384.688
  0
LINE
  8
0
 10
129.412
 20
384.688
 11
129.107
 21
384.467
  0
LINE
  8
0
 10
129.107
 20
384.467
 11
128.777
 21
384.286
  0
LINE
  8
0
 10
128.777
 20
384.286
 11
128.427
 21
384.147
  0
LINE
  8
0
 10
128.427
 20
384.147
 11
128.062
 21
384.053
  0
LINE
  8
0
 10
128.062
 20
384.053
 11
127.688
 21
384.006
  0
LINE
  8
0
 10
127.688
 20
384.006
 11
127.312
 21
384.006
  0
LINE
  8
0
 10
127.312
 20
294.006
 11
126.938
 21
294.053
  0
LINE
  8
0
 10
126.938
 20
294.053
 11
126.573
 21
294.147
  0
LINE
  8
0
 10
126.573
 20
294.147
 11
126.223
 21
294.286
  0
LINE
  8
0
 10
126.223
 20
294.286
 11
125.893
 21
294.467
  0
LINE
  8
0
 10
125.893
 20
294.467
 11
125.588
 21
294.688
  0
LINE
  8
0
 10
125.588
 20
294.688
 11
125.313
 21
294.946
  0
LINE
  8
0
 10
125.313
 20
294.946
 11
125.073
 21
295.237
  0
LINE
  8
0
 10
125.073
 20
295.237
 11
124.871
 21
295.555
  0
LINE
  8
0
 10
124.871
 20
295.555
 11
124.711
 21
295.896
  0
LINE
  8
0
 10
124.711
 20
295.896
 11
124.594
 21
296.254
  0
LINE
  8
0
 10
124.594
 20
296.254
 11
124.524
 21
296.624
  0
LINE
  8
0
 10
124.524
 20
296.624
 11
124.5
 21
297
  0
LINE
  8
0
 10
124.5
 20
297
 11
124.524
 21
297.376
  0
LINE
  8
0
 10
124.524
 20
297.376
 11
124.594
 21
297.746
  0
LINE
  8
0
 10
124.594
 20
297.746
 11
124.711
 21
298.104
  0
LINE
  8
0
 10
124.711
 20
298.104
 11
124.871
 21
298.445
  0
LINE
  8
0
 10
124.871
 20
298.445
 11
125.073
 21
298.763
  0
LINE
  8
0
 10
125.073
 20
298.763
 11
125.313
 21
299.054
  0
LINE
  8
0
 10
125.313
 20
299.054
 11
125.588
 21
299.312
  0
LINE
  8
0
 10
125.588
 20
299.312
 11
125.893
 21
299.533
  0
LINE
  8
0
 10
125.893
 20
299.533
 11
126.223
 21
299.714
  0
LINE
  8
0
 10
126.223
 20
299.714
 11
126.573
 21
299.853
  0
LINE
  8
0
 10
126.573
 20
299.853
 11
126.938
 21
299.947
  0
LINE
  8
0
 10
126.938
 20
299.947
 11
127.312
 21
299.994
  0
LINE
  8
0
 10
127.312
 20
299.994
 11
127.688
 21
299.994
  0
LINE
  8
0
 10
127.688
 20
299.994
 11
128.062
 21
299.947
  0
LINE
  8
0
 10
128.062
 20
299.947
 11
128.427
 21
299.853
  0
LINE
  8
0
 10
128.427
 20
299.853
 11
128.777
 21
299.714
  0
LINE
  8
0
 10
128.777
 20
299.714
 11
129.107
 21
299.533
  0
LINE
  8
0
 10
129.107
 20
299.533
 11
129.412
 21
299.312
  0
LINE
  8
0
 10
129.412
 20
299.312
 11
129.687
 21
299.054
  0
LINE
  8
0
 10
129.687
 20
299.054
 11
129.927
 21
298.763
  0
LINE
  8
0
 10
129.927
 20
298.763
 11
130.129
 21
298.445
  0
LINE
  8
0
 10
130.129
 20
298.445
 11
130.289
 21
298.104
  0
LINE
  8
0
 10
130.289
 20
298.104
 11
130.406
 21
297.746
  0
LINE
  8
0
 10
130.406
 20
297.746
 11
130.476
 21
297.376
  0
LINE
  8
0
 10
130.476
 20
297.376
 11
130.5
 21
297
  0
LINE
  8
0
 10
130.5
 20
297
 11
130.476
 21
296.624
  0
LINE
  8
0
 10
130.476
 20
296.624
 11
130.406
 21
296.254
  0
LINE
  8
0
 10
130.406
 20
296.254
 11
130.289
 21
295.896
  0
LINE
  8
0
 10
130.289
 20
295.896
 11
130.129
 21
295.555
  0
LINE
  8
0
 10
130.129
 20
295.555
 11
129.927
 21
295.237
  0
LINE
  8
0
 10
129.927
 20
295.237
 11
129.687
 21
294.946
  0
LINE
  8
0
 10
129.687
 20
294.946
 11
129.412
 21
294.688
  0
LINE
  8
0
 10
129.412
 20
294.688
 11
129.107
 21
294.467
  0
LINE
  8
0
 10
129.107
 20
294.467
 11
128.777
 21
294.286
  0
LINE
  8
0
 10
128.777
 20
294.286
 11
128.427
 21
294.147
  0
LINE
  8
0
 10
128.427
 20
294.147
 11
128.062
 21
294.053
  0
LINE
  8
0
 10
128.062
 20
294.053
 11
127.688
 21
294.006
  0
LINE
  8
0
 10
127.688
 20
294.006
 11
127.312
 21
294.006
  0
LINE
  8
0
 10
-127.688
 20
294.006
 11
-128.062
 21
294.053
  0
LINE
  8
0
 10
-128.062
 20
294.053
 11
-128.427
 21
294.147
  0
LINE
  8
0
 10
-128.427
 20
294.147
 11
-128.777
 21
294.286
  0
LINE
  8
0
 10
-128.777
 20
294.286
 11
-129.107
 21
294.467
  0
LINE
  8
0
 10
-129.107
 20
294.467
 11
-129.412
 21
294.688
  0
LINE
  8
0
 10
-129.412
 20
294.688
 11
-129.687
 21
294.946
  0
LINE
  8
0
 10
-129.687
 20
294.946
 11
-129.927
 21
295.237
  0
LINE
  8
0
 10
-129.927
 20
295.237
 11
-130.129
 21
295.555
  0
LINE
  8
0
 10
-130.129
 20
295.555
 11
-130.289
 21
295.896
  0
LINE
  8
0
 10
-130.289
 20
295.896
 11
-130.406
 21
296.254
  0
LINE
  8
0
 10
-130.406
 20
296.254
 11
-130.476
 21
296.624
  0
LINE
  8
0
 10
-130.476
 20
296.624
 11
-130.5
 21
297
  0
LINE
  8
0
 10
-130.5
 20
297
 11
-130.476
 21
297.376
  0
LINE
  8
0
 10
-130.476
 20
297.376
 11
-130.406
 21
297.746
  0
LINE
  8
0
 10
-130.406
 20
297.746
 11
-130.289
 21
298.104
  0
LINE
  8
0
 10
-130.289
 20
298.104
 11
-130.129
 21
298.445
  0
LINE
  8
0
 10
-130.129
 20
298.445
 11
-129.927
 21
298.763
  0
LINE
  8
0
 10
-129.927
 20
298.763
 11
-129.687
 21
299.054
  0
LINE
  8
0
 10
-129.687
 20
299.054
 11
-129.412
 21
299.312
  0
LINE
  8
0
 10
-129.412
 20
299.312
 11
-129.107
 21
299.533
  0
LINE
  8
0
 10
-129.107
 20
299.533
 11
-128.777
 21
299.714
  0
LINE
  8
0
 10
-128.777
 20
299.714
 11
-128.427
 21
299.853
  0
LINE
  8
0
 10
-128.427
 20
299.853
 11
-128.062
 21
299.947
  0
LINE
  8
0
 10
-128.062
 20
299.947
 11
-127.688
 21
299.994
  0
LINE
  8
0
 10
-127.688
 20
299.994
 11
-127.312
 21
299.994
  0
LINE
  8
0
 10
-127.312
 20
299.994
 11
-126.938
 21
299.947
  0
LINE
  8
0
 10
-126.938
 20
299.947
 11
-126.573
 21
299.853
  0
LINE
  8
0
 10
-126.573
 20
299.853
 11
-126.223
 21
299.714
  0
LINE
  8
0
 10
-126.223
 20
299.714
 11
-125.893
 21
299.533
  0
LINE
  8
0
 10
-125.893
 20
299.533
 11
-125.588
 21
299.312
  0
LINE
  8
0
 10
-125.588
 20
299.312
 11
-125.313
 21
299.054
  0
LINE
  8
0
 10
-125.313
 20
299.054
 11
-125.073
 21
298.763
  0
LINE
  8
0
 10
-125.073
 20
298.763
 11
-124.871
 21
298.445
  0
LINE
  8
0
 10
-124.871
 20
298.445
 11
-124.711
 21
298.104
  0
LINE
  8
0
 10
-124.711
 20
298.104
 11
-124.594
 21
297.746
  0
LINE
  8
0
 10
-124.594
 20
297.746
 11
-124.524
 21
297.376
  0
LINE
  8
0
 10
-124.524
 20
297.376
 11
-124.5
 21
297
  0
LINE
  8
0
 10
-124.5
 20
297
 11
-124.524
 21
296.624
  0
LINE
  8
0
 10
-124.524
 20
296.624
 11
-124.594
 21
296.254
  0
LINE
  8
0
 10
-124.594
 20
296.254
 11
-124.711
 21
295.896
  0
LINE
  8
0
 10
-124.711
 20
295.896
 11
-124.871
 21
295.555
  0
LINE
  8
0
 10
-124.871
 20
295.555
 11
-125.073
 21
295.237
  0
LINE
  8
0
 10
-125.073
 20
295.237
 11
-125.313
 21
294.946
  0
LINE
  8
0
 10
-125.313
 20
294.946
 11
-125.588
 21
294.688
  0
LINE
  8
0
 10
-125.588
 20
294.688
 11
-125.893
 21
294.467
  0
LINE
  8
0
 10
-125.893
 20
294.467
 11
-126.223
 21
294.286
  0
LINE
  8
0
 10
-126.223
 20
294.286
 11
-126.573
 21
294.147
  0
LINE
  8
0
 10
-126.573
 20
294.147
 11
-126.938
 21
294.053
  0
LINE
  8
0
 10
-126.938
 20
294.053
 11
-127.312
 21
294.006
  0
LINE
  8
0
 10
-127.312
 20
294.006
 11
-127.688
 21
294.006
  0
ENDSEC
  0
SECTION
  2
OBJECTS
  0
DICTIONARY
  0
ENDSEC
  0
EOF
