  0
SECTION
  2
BLOCKS
  0
ENDSEC
  0
SECTION
  2
ENTITIES
  0
LINE
  8
0
 10
250.437
 20
-6.91142
 11
251.045
 21
-6.75528
  0
LINE
  8
0
 10
251.045
 20
-6.75528
 11
251.629
 21
-6.52412
  0
LINE
  8
0
 10
251.629
 20
-6.52412
 11
252.179
 21
-6.22163
  0
LINE
  8
0
 10
252.179
 20
-6.22163
 11
252.687
 21
-5.85255
  0
LINE
  8
0
 10
252.687
 20
-5.85255
 11
253.145
 21
-5.42273
  0
LINE
  8
0
 10
253.145
 20
-5.42273
 11
253.545
 21
-4.93892
  0
LINE
  8
0
 10
253.545
 20
-4.93892
 11
253.882
 21
-4.40877
  0
LINE
  8
0
 10
253.882
 20
-4.40877
 11
254.149
 21
-3.84062
  0
LINE
  8
0
 10
254.149
 20
-3.84062
 11
254.343
 21
-3.24344
  0
LINE
  8
0
 10
254.343
 20
-3.24344
 11
254.461
 21
-2.62666
  0
LINE
  8
0
 10
254.461
 20
-2.62666
 11
254.5
 21
-2
  0
LINE
  8
0
 10
254.5
 20
-2
 11
254.5
 21
2
  0
LINE
  8
0
 10
254.5
 20
2
 11
254.461
 21
2.62666
  0
LINE
  8
0
 10
254.461
 20
2.62666
 11
254.343
 21
3.24344
  0
LINE
  8
0
 10
254.343
 20
3.24344
 11
254.149
 21
3.84062
  0
LINE
  8
0
 10
254.149
 20
3.84062
 11
253.882
 21
4.40877
  0
LINE
  8
0
 10
253.882
 20
4.40877
 11
253.545
 21
4.93892
  0
LINE
  8
0
 10
253.545
 20
4.93892
 11
253.145
 21
5.42273
  0
LINE
  8
0
 10
253.145
 20
5.42273
 11
252.687
 21
5.85255
  0
LINE
  8
0
 10
252.687
 20
5.85255
 11
252.179
 21
6.22163
  0
LINE
  8
0
 10
252.179
 20
6.22163
 11
251.629
 21
6.52412
  0
LINE
  8
0
 10
251.629
 20
6.52412
 11
251.045
 21
6.75528
  0
LINE
  8
0
 10
251.045
 20
6.75528
 11
250.437
 21
6.91142
  0
LINE
  8
0
 10
250.437
 20
6.91142
 11
249.814
 21
6.99013
  0
LINE
  8
0
 10
249.814
 20
6.99013
 11
-249.814
 21
6.99013
  0
LINE
  8
0
 10
-249.814
 20
6.99013
 11
-250.437
 21
6.91142
  0
LINE
  8
0
 10
-250.437
 20
6.91142
 11
-251.045
 21
6.75528
  0
LINE
  8
0
 10
-251.045
 20
6.75528
 11
-251.629
 21
6.52412
  0
LINE
  8
0
 10
-251.629
 20
6.52412
 11
-252.179
 21
6.22163
  0
LINE
  8
0
 10
-252.179
 20
6.22163
 11
-252.687
 21
5.85255
  0
LINE
  8
0
 10
-252.687
 20
5.85255
 11
-253.145
 21
5.42273
  0
LINE
  8
0
 10
-253.145
 20
5.42273
 11
-253.545
 21
4.93892
  0
LINE
  8
0
 10
-253.545
 20
4.93892
 11
-253.882
 21
4.40877
  0
LINE
  8
0
 10
-253.882
 20
4.40877
 11
-254.149
 21
3.84062
  0
LINE
  8
0
 10
-254.149
 20
3.84062
 11
-254.343
 21
3.24344
  0
LINE
  8
0
 10
-254.343
 20
3.24344
 11
-254.461
 21
2.62666
  0
LINE
  8
0
 10
-254.461
 20
2.62666
 11
-254.5
 21
2
  0
LINE
  8
0
 10
-254.5
 20
2
 11
-254.5
 21
-2
  0
LINE
  8
0
 10
-254.5
 20
-2
 11
-254.461
 21
-2.62666
  0
LINE
  8
0
 10
-254.461
 20
-2.62666
 11
-254.343
 21
-3.24344
  0
LINE
  8
0
 10
-254.343
 20
-3.24344
 11
-254.149
 21
-3.84062
  0
LINE
  8
0
 10
-254.149
 20
-3.84062
 11
-253.882
 21
-4.40877
  0
LINE
  8
0
 10
-253.882
 20
-4.40877
 11
-253.545
 21
-4.93892
  0
LINE
  8
0
 10
-253.545
 20
-4.93892
 11
-253.145
 21
-5.42273
  0
LINE
  8
0
 10
-253.145
 20
-5.42273
 11
-252.687
 21
-5.85255
  0
LINE
  8
0
 10
-252.687
 20
-5.85255
 11
-252.179
 21
-6.22163
  0
LINE
  8
0
 10
-252.179
 20
-6.22163
 11
-251.629
 21
-6.52412
  0
LINE
  8
0
 10
-251.629
 20
-6.52412
 11
-251.045
 21
-6.75528
  0
LINE
  8
0
 10
-251.045
 20
-6.75528
 11
-250.437
 21
-6.91142
  0
LINE
  8
0
 10
-250.437
 20
-6.91142
 11
-249.814
 21
-6.99013
  0
LINE
  8
0
 10
-249.814
 20
-6.99013
 11
249.814
 21
-6.99013
  0
LINE
  8
0
 10
249.814
 20
-6.99013
 11
250.437
 21
-6.91142
  0
LINE
  8
0
 10
247.312
 20
-2.99408
 11
246.938
 21
-2.94685
  0
LINE
  8
0
 10
246.938
 20
-2.94685
 11
246.573
 21
-2.85316
  0
LINE
  8
0
 10
246.573
 20
-2.85316
 11
246.223
 21
-2.71448
  0
LINE
  8
0
 10
246.223
 20
-2.71448
 11
245.893
 21
-2.53297
  0
LINE
  8
0
 10
245.893
 20
-2.53297
 11
245.588
 21
-2.31154
  0
LINE
  8
0
 10
245.588
 20
-2.31154
 11
245.313
 21
-2.05363
  0
LINE
  8
0
 10
245.313
 20
-2.05363
 11
245.073
 21
-1.76335
  0
LINE
  8
0
 10
245.073
 20
-1.76335
 11
244.871
 21
-1.44525
  0
LINE
  8
0
 10
244.871
 20
-1.44525
 11
244.711
 21
-1.10437
  0
LINE
  8
0
 10
244.711
 20
-1.10437
 11
244.594
 21
-0.746063
  0
LINE
  8
0
 10
244.594
 20
-0.746063
 11
244.524
 21
-0.375992
  0
LINE
  8
0
 10
244.524
 20
-0.375992
 11
244.5
 21
0
  0
LINE
  8
0
 10
244.5
 20
0
 11
244.524
 21
0.375992
  0
LINE
  8
0
 10
244.524
 20
0.375992
 11
244.594
 21
0.746063
  0
LINE
  8
0
 10
244.594
 20
0.746063
 11
244.711
 21
1.10437
  0
LINE
  8
0
 10
244.711
 20
1.10437
 11
244.871
 21
1.44525
  0
LINE
  8
0
 10
244.871
 20
1.44525
 11
245.073
 21
1.76335
  0
LINE
  8
0
 10
245.073
 20
1.76335
 11
245.313
 21
2.05363
  0
LINE
  8
0
 10
245.313
 20
2.05363
 11
245.588
 21
2.31154
  0
LINE
  8
0
 10
245.588
 20
2.31154
 11
245.893
 21
2.53297
  0
LINE
  8
0
 10
245.893
 20
2.53297
 11
246.223
 21
2.71448
  0
LINE
  8
0
 10
246.223
 20
2.71448
 11
246.573
 21
2.85316
  0
LINE
  8
0
 10
246.573
 20
2.85316
 11
246.938
 21
2.94685
  0
LINE
  8
0
 10
246.938
 20
2.94685
 11
247.312
 21
2.99408
  0
LINE
  8
0
 10
247.312
 20
2.99408
 11
247.688
 21
2.99408
  0
LINE
  8
0
 10
247.688
 20
2.99408
 11
248.062
 21
2.94685
  0
LINE
  8
0
 10
248.062
 20
2.94685
 11
248.427
 21
2.85316
  0
LINE
  8
0
 10
248.427
 20
2.85316
 11
248.777
 21
2.71448
  0
LINE
  8
0
 10
248.777
 20
2.71448
 11
249.107
 21
2.53297
  0
LINE
  8
0
 10
249.107
 20
2.53297
 11
249.412
 21
2.31154
  0
LINE
  8
0
 10
249.412
 20
2.31154
 11
249.687
 21
2.05363
  0
LINE
  8
0
 10
249.687
 20
2.05363
 11
249.927
 21
1.76335
  0
LINE
  8
0
 10
249.927
 20
1.76335
 11
250.129
 21
1.44525
  0
LINE
  8
0
 10
250.129
 20
1.44525
 11
250.289
 21
1.10437
  0
LINE
  8
0
 10
250.289
 20
1.10437
 11
250.406
 21
0.746063
  0
LINE
  8
0
 10
250.406
 20
0.746063
 11
250.476
 21
0.375992
  0
LINE
  8
0
 10
250.476
 20
0.375992
 11
250.5
 21
0
  0
LINE
  8
0
 10
250.5
 20
0
 11
250.476
 21
-0.375992
  0
LINE
  8
0
 10
250.476
 20
-0.375992
 11
250.406
 21
-0.746063
  0
LINE
  8
0
 10
250.406
 20
-0.746063
 11
250.289
 21
-1.10437
  0
LINE
  8
0
 10
250.289
 20
-1.10437
 11
250.129
 21
-1.44525
  0
LINE
  8
0
 10
250.129
 20
-1.44525
 11
249.927
 21
-1.76335
  0
LINE
  8
0
 10
249.927
 20
-1.76335
 11
249.687
 21
-2.05363
  0
LINE
  8
0
 10
249.687
 20
-2.05363
 11
249.412
 21
-2.31154
  0
LINE
  8
0
 10
249.412
 20
-2.31154
 11
249.107
 21
-2.53297
  0
LINE
  8
0
 10
249.107
 20
-2.53297
 11
248.777
 21
-2.71448
  0
LINE
  8
0
 10
248.777
 20
-2.71448
 11
248.427
 21
-2.85316
  0
LINE
  8
0
 10
248.427
 20
-2.85316
 11
248.062
 21
-2.94685
  0
LINE
  8
0
 10
248.062
 20
-2.94685
 11
247.688
 21
-2.99408
  0
LINE
  8
0
 10
247.688
 20
-2.99408
 11
247.312
 21
-2.99408
  0
LINE
  8
0
 10
-247.688
 20
-2.99408
 11
-248.062
 21
-2.94685
  0
LINE
  8
0
 10
-248.062
 20
-2.94685
 11
-248.427
 21
-2.85316
  0
LINE
  8
0
 10
-248.427
 20
-2.85316
 11
-248.777
 21
-2.71448
  0
LINE
  8
0
 10
-248.777
 20
-2.71448
 11
-249.107
 21
-2.53297
  0
LINE
  8
0
 10
-249.107
 20
-2.53297
 11
-249.412
 21
-2.31154
  0
LINE
  8
0
 10
-249.412
 20
-2.31154
 11
-249.687
 21
-2.05363
  0
LINE
  8
0
 10
-249.687
 20
-2.05363
 11
-249.927
 21
-1.76335
  0
LINE
  8
0
 10
-249.927
 20
-1.76335
 11
-250.129
 21
-1.44525
  0
LINE
  8
0
 10
-250.129
 20
-1.44525
 11
-250.289
 21
-1.10437
  0
LINE
  8
0
 10
-250.289
 20
-1.10437
 11
-250.406
 21
-0.746063
  0
LINE
  8
0
 10
-250.406
 20
-0.746063
 11
-250.476
 21
-0.375992
  0
LINE
  8
0
 10
-250.476
 20
-0.375992
 11
-250.5
 21
0
  0
LINE
  8
0
 10
-250.5
 20
0
 11
-250.476
 21
0.375992
  0
LINE
  8
0
 10
-250.476
 20
0.375992
 11
-250.406
 21
0.746063
  0
LINE
  8
0
 10
-250.406
 20
0.746063
 11
-250.289
 21
1.10437
  0
LINE
  8
0
 10
-250.289
 20
1.10437
 11
-250.129
 21
1.44525
  0
LINE
  8
0
 10
-250.129
 20
1.44525
 11
-249.927
 21
1.76335
  0
LINE
  8
0
 10
-249.927
 20
1.76335
 11
-249.687
 21
2.05363
  0
LINE
  8
0
 10
-249.687
 20
2.05363
 11
-249.412
 21
2.31154
  0
LINE
  8
0
 10
-249.412
 20
2.31154
 11
-249.107
 21
2.53297
  0
LINE
  8
0
 10
-249.107
 20
2.53297
 11
-248.777
 21
2.71448
  0
LINE
  8
0
 10
-248.777
 20
2.71448
 11
-248.427
 21
2.85316
  0
LINE
  8
0
 10
-248.427
 20
2.85316
 11
-248.062
 21
2.94685
  0
LINE
  8
0
 10
-248.062
 20
2.94685
 11
-247.688
 21
2.99408
  0
LINE
  8
0
 10
-247.688
 20
2.99408
 11
-247.312
 21
2.99408
  0
LINE
  8
0
 10
-247.312
 20
2.99408
 11
-246.938
 21
2.94685
  0
LINE
  8
0
 10
-246.938
 20
2.94685
 11
-246.573
 21
2.85316
  0
LINE
  8
0
 10
-246.573
 20
2.85316
 11
-246.223
 21
2.71448
  0
LINE
  8
0
 10
-246.223
 20
2.71448
 11
-245.893
 21
2.53297
  0
LINE
  8
0
 10
-245.893
 20
2.53297
 11
-245.588
 21
2.31154
  0
LINE
  8
0
 10
-245.588
 20
2.31154
 11
-245.313
 21
2.05363
  0
LINE
  8
0
 10
-245.313
 20
2.05363
 11
-245.073
 21
1.76335
  0
LINE
  8
0
 10
-245.073
 20
1.76335
 11
-244.871
 21
1.44525
  0
LINE
  8
0
 10
-244.871
 20
1.44525
 11
-244.711
 21
1.10437
  0
LINE
  8
0
 10
-244.711
 20
1.10437
 11
-244.594
 21
0.746063
  0
LINE
  8
0
 10
-244.594
 20
0.746063
 11
-244.524
 21
0.375992
  0
LINE
  8
0
 10
-244.524
 20
0.375992
 11
-244.5
 21
0
  0
LINE
  8
0
 10
-244.5
 20
0
 11
-244.524
 21
-0.375992
  0
LINE
  8
0
 10
-244.524
 20
-0.375992
 11
-244.594
 21
-0.746063
  0
LINE
  8
0
 10
-244.594
 20
-0.746063
 11
-244.711
 21
-1.10437
  0
LINE
  8
0
 10
-244.711
 20
-1.10437
 11
-244.871
 21
-1.44525
  0
LINE
  8
0
 10
-244.871
 20
-1.44525
 11
-245.073
 21
-1.76335
  0
LINE
  8
0
 10
-245.073
 20
-1.76335
 11
-245.313
 21
-2.05363
  0
LINE
  8
0
 10
-245.313
 20
-2.05363
 11
-245.588
 21
-2.31154
  0
LINE
  8
0
 10
-245.588
 20
-2.31154
 11
-245.893
 21
-2.53297
  0
LINE
  8
0
 10
-245.893
 20
-2.53297
 11
-246.223
 21
-2.71448
  0
LINE
  8
0
 10
-246.223
 20
-2.71448
 11
-246.573
 21
-2.85316
  0
LINE
  8
0
 10
-246.573
 20
-2.85316
 11
-246.938
 21
-2.94685
  0
LINE
  8
0
 10
-246.938
 20
-2.94685
 11
-247.312
 21
-2.99408
  0
LINE
  8
0
 10
-247.312
 20
-2.99408
 11
-247.688
 21
-2.99408
  0
ENDSEC
  0
SECTION
  2
OBJECTS
  0
DICTIONARY
  0
ENDSEC
  0
EOF
