  0
SECTION
  2
BLOCKS
  0
ENDSEC
  0
SECTION
  2
ENTITIES
  0
LINE
  8
0
 10
107.937
 20
-29.4114
 11
108.545
 21
-29.2553
  0
LINE
  8
0
 10
108.545
 20
-29.2553
 11
109.129
 21
-29.0241
  0
LINE
  8
0
 10
109.129
 20
-29.0241
 11
109.679
 21
-28.7216
  0
LINE
  8
0
 10
109.679
 20
-28.7216
 11
110.187
 21
-28.3526
  0
LINE
  8
0
 10
110.187
 20
-28.3526
 11
110.645
 21
-27.9227
  0
LINE
  8
0
 10
110.645
 20
-27.9227
 11
111.045
 21
-27.4389
  0
LINE
  8
0
 10
111.045
 20
-27.4389
 11
111.382
 21
-26.9088
  0
LINE
  8
0
 10
111.382
 20
-26.9088
 11
111.649
 21
-26.3406
  0
LINE
  8
0
 10
111.649
 20
-26.3406
 11
111.843
 21
-25.7434
  0
LINE
  8
0
 10
111.843
 20
-25.7434
 11
111.961
 21
-25.1267
  0
LINE
  8
0
 10
111.961
 20
-25.1267
 11
112
 21
-24.5
  0
LINE
  8
0
 10
112
 20
-24.5
 11
112
 21
24.5
  0
LINE
  8
0
 10
112
 20
24.5
 11
111.961
 21
25.1267
  0
LINE
  8
0
 10
111.961
 20
25.1267
 11
111.843
 21
25.7434
  0
LINE
  8
0
 10
111.843
 20
25.7434
 11
111.649
 21
26.3406
  0
LINE
  8
0
 10
111.649
 20
26.3406
 11
111.382
 21
26.9088
  0
LINE
  8
0
 10
111.382
 20
26.9088
 11
111.045
 21
27.4389
  0
LINE
  8
0
 10
111.045
 20
27.4389
 11
110.645
 21
27.9227
  0
LINE
  8
0
 10
110.645
 20
27.9227
 11
110.187
 21
28.3526
  0
LINE
  8
0
 10
110.187
 20
28.3526
 11
109.679
 21
28.7216
  0
LINE
  8
0
 10
109.679
 20
28.7216
 11
109.129
 21
29.0241
  0
LINE
  8
0
 10
109.129
 20
29.0241
 11
108.545
 21
29.2553
  0
LINE
  8
0
 10
108.545
 20
29.2553
 11
107.937
 21
29.4114
  0
LINE
  8
0
 10
107.937
 20
29.4114
 11
107.314
 21
29.4901
  0
LINE
  8
0
 10
107.314
 20
29.4901
 11
-107.314
 21
29.4901
  0
LINE
  8
0
 10
-107.314
 20
29.4901
 11
-107.937
 21
29.4114
  0
LINE
  8
0
 10
-107.937
 20
29.4114
 11
-108.545
 21
29.2553
  0
LINE
  8
0
 10
-108.545
 20
29.2553
 11
-109.129
 21
29.0241
  0
LINE
  8
0
 10
-109.129
 20
29.0241
 11
-109.679
 21
28.7216
  0
LINE
  8
0
 10
-109.679
 20
28.7216
 11
-110.187
 21
28.3526
  0
LINE
  8
0
 10
-110.187
 20
28.3526
 11
-110.645
 21
27.9227
  0
LINE
  8
0
 10
-110.645
 20
27.9227
 11
-111.045
 21
27.4389
  0
LINE
  8
0
 10
-111.045
 20
27.4389
 11
-111.382
 21
26.9088
  0
LINE
  8
0
 10
-111.382
 20
26.9088
 11
-111.649
 21
26.3406
  0
LINE
  8
0
 10
-111.649
 20
26.3406
 11
-111.843
 21
25.7434
  0
LINE
  8
0
 10
-111.843
 20
25.7434
 11
-111.961
 21
25.1267
  0
LINE
  8
0
 10
-111.961
 20
25.1267
 11
-112
 21
24.5
  0
LINE
  8
0
 10
-112
 20
24.5
 11
-112
 21
-24.5
  0
LINE
  8
0
 10
-112
 20
-24.5
 11
-111.961
 21
-25.1267
  0
LINE
  8
0
 10
-111.961
 20
-25.1267
 11
-111.843
 21
-25.7434
  0
LINE
  8
0
 10
-111.843
 20
-25.7434
 11
-111.649
 21
-26.3406
  0
LINE
  8
0
 10
-111.649
 20
-26.3406
 11
-111.382
 21
-26.9088
  0
LINE
  8
0
 10
-111.382
 20
-26.9088
 11
-111.045
 21
-27.4389
  0
LINE
  8
0
 10
-111.045
 20
-27.4389
 11
-110.645
 21
-27.9227
  0
LINE
  8
0
 10
-110.645
 20
-27.9227
 11
-110.187
 21
-28.3526
  0
LINE
  8
0
 10
-110.187
 20
-28.3526
 11
-109.679
 21
-28.7216
  0
LINE
  8
0
 10
-109.679
 20
-28.7216
 11
-109.129
 21
-29.0241
  0
LINE
  8
0
 10
-109.129
 20
-29.0241
 11
-108.545
 21
-29.2553
  0
LINE
  8
0
 10
-108.545
 20
-29.2553
 11
-107.937
 21
-29.4114
  0
LINE
  8
0
 10
-107.937
 20
-29.4114
 11
-107.314
 21
-29.4901
  0
LINE
  8
0
 10
-107.314
 20
-29.4901
 11
107.314
 21
-29.4901
  0
LINE
  8
0
 10
107.314
 20
-29.4901
 11
107.937
 21
-29.4114
  0
LINE
  8
0
 10
-105.188
 20
19.5059
 11
-105.562
 21
19.5531
  0
LINE
  8
0
 10
-105.562
 20
19.5531
 11
-105.927
 21
19.6468
  0
LINE
  8
0
 10
-105.927
 20
19.6468
 11
-106.277
 21
19.7855
  0
LINE
  8
0
 10
-106.277
 20
19.7855
 11
-106.607
 21
19.967
  0
LINE
  8
0
 10
-106.607
 20
19.967
 11
-106.912
 21
20.1884
  0
LINE
  8
0
 10
-106.912
 20
20.1884
 11
-107.187
 21
20.4464
  0
LINE
  8
0
 10
-107.187
 20
20.4464
 11
-107.427
 21
20.7366
  0
LINE
  8
0
 10
-107.427
 20
20.7366
 11
-107.629
 21
21.0547
  0
LINE
  8
0
 10
-107.629
 20
21.0547
 11
-107.789
 21
21.3956
  0
LINE
  8
0
 10
-107.789
 20
21.3956
 11
-107.906
 21
21.7539
  0
LINE
  8
0
 10
-107.906
 20
21.7539
 11
-107.976
 21
22.124
  0
LINE
  8
0
 10
-107.976
 20
22.124
 11
-108
 21
22.5
  0
LINE
  8
0
 10
-108
 20
22.5
 11
-107.976
 21
22.876
  0
LINE
  8
0
 10
-107.976
 20
22.876
 11
-107.906
 21
23.2461
  0
LINE
  8
0
 10
-107.906
 20
23.2461
 11
-107.789
 21
23.6044
  0
LINE
  8
0
 10
-107.789
 20
23.6044
 11
-107.629
 21
23.9453
  0
LINE
  8
0
 10
-107.629
 20
23.9453
 11
-107.427
 21
24.2634
  0
LINE
  8
0
 10
-107.427
 20
24.2634
 11
-107.187
 21
24.5536
  0
LINE
  8
0
 10
-107.187
 20
24.5536
 11
-106.912
 21
24.8115
  0
LINE
  8
0
 10
-106.912
 20
24.8115
 11
-106.607
 21
25.033
  0
LINE
  8
0
 10
-106.607
 20
25.033
 11
-106.277
 21
25.2145
  0
LINE
  8
0
 10
-106.277
 20
25.2145
 11
-105.927
 21
25.3532
  0
LINE
  8
0
 10
-105.927
 20
25.3532
 11
-105.562
 21
25.4469
  0
LINE
  8
0
 10
-105.562
 20
25.4469
 11
-105.188
 21
25.4941
  0
LINE
  8
0
 10
-105.188
 20
25.4941
 11
-104.812
 21
25.4941
  0
LINE
  8
0
 10
-104.812
 20
25.4941
 11
-104.438
 21
25.4469
  0
LINE
  8
0
 10
-104.438
 20
25.4469
 11
-104.073
 21
25.3532
  0
LINE
  8
0
 10
-104.073
 20
25.3532
 11
-103.723
 21
25.2145
  0
LINE
  8
0
 10
-103.723
 20
25.2145
 11
-103.393
 21
25.033
  0
LINE
  8
0
 10
-103.393
 20
25.033
 11
-103.088
 21
24.8115
  0
LINE
  8
0
 10
-103.088
 20
24.8115
 11
-102.813
 21
24.5536
  0
LINE
  8
0
 10
-102.813
 20
24.5536
 11
-102.573
 21
24.2634
  0
LINE
  8
0
 10
-102.573
 20
24.2634
 11
-102.371
 21
23.9453
  0
LINE
  8
0
 10
-102.371
 20
23.9453
 11
-102.211
 21
23.6044
  0
LINE
  8
0
 10
-102.211
 20
23.6044
 11
-102.094
 21
23.2461
  0
LINE
  8
0
 10
-102.094
 20
23.2461
 11
-102.024
 21
22.876
  0
LINE
  8
0
 10
-102.024
 20
22.876
 11
-102
 21
22.5
  0
LINE
  8
0
 10
-102
 20
22.5
 11
-102.024
 21
22.124
  0
LINE
  8
0
 10
-102.024
 20
22.124
 11
-102.094
 21
21.7539
  0
LINE
  8
0
 10
-102.094
 20
21.7539
 11
-102.211
 21
21.3956
  0
LINE
  8
0
 10
-102.211
 20
21.3956
 11
-102.371
 21
21.0547
  0
LINE
  8
0
 10
-102.371
 20
21.0547
 11
-102.573
 21
20.7366
  0
LINE
  8
0
 10
-102.573
 20
20.7366
 11
-102.813
 21
20.4464
  0
LINE
  8
0
 10
-102.813
 20
20.4464
 11
-103.088
 21
20.1884
  0
LINE
  8
0
 10
-103.088
 20
20.1884
 11
-103.393
 21
19.967
  0
LINE
  8
0
 10
-103.393
 20
19.967
 11
-103.723
 21
19.7855
  0
LINE
  8
0
 10
-103.723
 20
19.7855
 11
-104.073
 21
19.6468
  0
LINE
  8
0
 10
-104.073
 20
19.6468
 11
-104.438
 21
19.5531
  0
LINE
  8
0
 10
-104.438
 20
19.5531
 11
-104.812
 21
19.5059
  0
LINE
  8
0
 10
-104.812
 20
19.5059
 11
-105.188
 21
19.5059
  0
LINE
  8
0
 10
-105.094
 20
13.5029
 11
-105.281
 21
13.5266
  0
LINE
  8
0
 10
-105.281
 20
13.5266
 11
-105.464
 21
13.5734
  0
LINE
  8
0
 10
-105.464
 20
13.5734
 11
-105.639
 21
13.6427
  0
LINE
  8
0
 10
-105.639
 20
13.6427
 11
-105.804
 21
13.7335
  0
LINE
  8
0
 10
-105.804
 20
13.7335
 11
-105.956
 21
13.8442
  0
LINE
  8
0
 10
-105.956
 20
13.8442
 11
-106.093
 21
13.9732
  0
LINE
  8
0
 10
-106.093
 20
13.9732
 11
-106.214
 21
14.1183
  0
LINE
  8
0
 10
-106.214
 20
14.1183
 11
-106.314
 21
14.2774
  0
LINE
  8
0
 10
-106.314
 20
14.2774
 11
-106.395
 21
14.4478
  0
LINE
  8
0
 10
-106.395
 20
14.4478
 11
-106.453
 21
14.627
  0
LINE
  8
0
 10
-106.453
 20
14.627
 11
-106.488
 21
14.812
  0
LINE
  8
0
 10
-106.488
 20
14.812
 11
-106.5
 21
15
  0
LINE
  8
0
 10
-106.5
 20
15
 11
-106.488
 21
15.188
  0
LINE
  8
0
 10
-106.488
 20
15.188
 11
-106.453
 21
15.373
  0
LINE
  8
0
 10
-106.453
 20
15.373
 11
-106.395
 21
15.5522
  0
LINE
  8
0
 10
-106.395
 20
15.5522
 11
-106.314
 21
15.7226
  0
LINE
  8
0
 10
-106.314
 20
15.7226
 11
-106.214
 21
15.8817
  0
LINE
  8
0
 10
-106.214
 20
15.8817
 11
-106.093
 21
16.0268
  0
LINE
  8
0
 10
-106.093
 20
16.0268
 11
-105.956
 21
16.1558
  0
LINE
  8
0
 10
-105.956
 20
16.1558
 11
-105.804
 21
16.2665
  0
LINE
  8
0
 10
-105.804
 20
16.2665
 11
-105.639
 21
16.3572
  0
LINE
  8
0
 10
-105.639
 20
16.3572
 11
-105.464
 21
16.4266
  0
LINE
  8
0
 10
-105.464
 20
16.4266
 11
-105.281
 21
16.4734
  0
LINE
  8
0
 10
-105.281
 20
16.4734
 11
-105.094
 21
16.497
  0
LINE
  8
0
 10
-105.094
 20
16.497
 11
-104.906
 21
16.497
  0
LINE
  8
0
 10
-104.906
 20
16.497
 11
-104.719
 21
16.4734
  0
LINE
  8
0
 10
-104.719
 20
16.4734
 11
-104.536
 21
16.4266
  0
LINE
  8
0
 10
-104.536
 20
16.4266
 11
-104.361
 21
16.3572
  0
LINE
  8
0
 10
-104.361
 20
16.3572
 11
-104.196
 21
16.2665
  0
LINE
  8
0
 10
-104.196
 20
16.2665
 11
-104.044
 21
16.1558
  0
LINE
  8
0
 10
-104.044
 20
16.1558
 11
-103.907
 21
16.0268
  0
LINE
  8
0
 10
-103.907
 20
16.0268
 11
-103.786
 21
15.8817
  0
LINE
  8
0
 10
-103.786
 20
15.8817
 11
-103.686
 21
15.7226
  0
LINE
  8
0
 10
-103.686
 20
15.7226
 11
-103.605
 21
15.5522
  0
LINE
  8
0
 10
-103.605
 20
15.5522
 11
-103.547
 21
15.373
  0
LINE
  8
0
 10
-103.547
 20
15.373
 11
-103.512
 21
15.188
  0
LINE
  8
0
 10
-103.512
 20
15.188
 11
-103.5
 21
15
  0
LINE
  8
0
 10
-103.5
 20
15
 11
-103.512
 21
14.812
  0
LINE
  8
0
 10
-103.512
 20
14.812
 11
-103.547
 21
14.627
  0
LINE
  8
0
 10
-103.547
 20
14.627
 11
-103.605
 21
14.4478
  0
LINE
  8
0
 10
-103.605
 20
14.4478
 11
-103.686
 21
14.2774
  0
LINE
  8
0
 10
-103.686
 20
14.2774
 11
-103.786
 21
14.1183
  0
LINE
  8
0
 10
-103.786
 20
14.1183
 11
-103.907
 21
13.9732
  0
LINE
  8
0
 10
-103.907
 20
13.9732
 11
-104.044
 21
13.8442
  0
LINE
  8
0
 10
-104.044
 20
13.8442
 11
-104.196
 21
13.7335
  0
LINE
  8
0
 10
-104.196
 20
13.7335
 11
-104.361
 21
13.6427
  0
LINE
  8
0
 10
-104.361
 20
13.6427
 11
-104.536
 21
13.5734
  0
LINE
  8
0
 10
-104.536
 20
13.5734
 11
-104.719
 21
13.5266
  0
LINE
  8
0
 10
-104.719
 20
13.5266
 11
-104.906
 21
13.5029
  0
LINE
  8
0
 10
-104.906
 20
13.5029
 11
-105.094
 21
13.5029
  0
LINE
  8
0
 10
-105.188
 20
4.50591
 11
-105.562
 21
4.55313
  0
LINE
  8
0
 10
-105.562
 20
4.55313
 11
-105.927
 21
4.64682
  0
LINE
  8
0
 10
-105.927
 20
4.64682
 11
-106.277
 21
4.78551
  0
LINE
  8
0
 10
-106.277
 20
4.78551
 11
-106.607
 21
4.96701
  0
LINE
  8
0
 10
-106.607
 20
4.96701
 11
-106.912
 21
5.18845
  0
LINE
  8
0
 10
-106.912
 20
5.18845
 11
-107.187
 21
5.44635
  0
LINE
  8
0
 10
-107.187
 20
5.44635
 11
-107.427
 21
5.73663
  0
LINE
  8
0
 10
-107.427
 20
5.73663
 11
-107.629
 21
6.05473
  0
LINE
  8
0
 10
-107.629
 20
6.05473
 11
-107.789
 21
6.39561
  0
LINE
  8
0
 10
-107.789
 20
6.39561
 11
-107.906
 21
6.75392
  0
LINE
  8
0
 10
-107.906
 20
6.75392
 11
-107.976
 21
7.12399
  0
LINE
  8
0
 10
-107.976
 20
7.12399
 11
-108
 21
7.5
  0
LINE
  8
0
 10
-108
 20
7.5
 11
-107.976
 21
7.87599
  0
LINE
  8
0
 10
-107.976
 20
7.87599
 11
-107.906
 21
8.24606
  0
LINE
  8
0
 10
-107.906
 20
8.24606
 11
-107.789
 21
8.60437
  0
LINE
  8
0
 10
-107.789
 20
8.60437
 11
-107.629
 21
8.94525
  0
LINE
  8
0
 10
-107.629
 20
8.94525
 11
-107.427
 21
9.26335
  0
LINE
  8
0
 10
-107.427
 20
9.26335
 11
-107.187
 21
9.55363
  0
LINE
  8
0
 10
-107.187
 20
9.55363
 11
-106.912
 21
9.81154
  0
LINE
  8
0
 10
-106.912
 20
9.81154
 11
-106.607
 21
10.033
  0
LINE
  8
0
 10
-106.607
 20
10.033
 11
-106.277
 21
10.2145
  0
LINE
  8
0
 10
-106.277
 20
10.2145
 11
-105.927
 21
10.3532
  0
LINE
  8
0
 10
-105.927
 20
10.3532
 11
-105.562
 21
10.4469
  0
LINE
  8
0
 10
-105.562
 20
10.4469
 11
-105.188
 21
10.4941
  0
LINE
  8
0
 10
-105.188
 20
10.4941
 11
-104.812
 21
10.4941
  0
LINE
  8
0
 10
-104.812
 20
10.4941
 11
-104.438
 21
10.4469
  0
LINE
  8
0
 10
-104.438
 20
10.4469
 11
-104.073
 21
10.3532
  0
LINE
  8
0
 10
-104.073
 20
10.3532
 11
-103.723
 21
10.2145
  0
LINE
  8
0
 10
-103.723
 20
10.2145
 11
-103.393
 21
10.033
  0
LINE
  8
0
 10
-103.393
 20
10.033
 11
-103.088
 21
9.81154
  0
LINE
  8
0
 10
-103.088
 20
9.81154
 11
-102.813
 21
9.55363
  0
LINE
  8
0
 10
-102.813
 20
9.55363
 11
-102.573
 21
9.26335
  0
LINE
  8
0
 10
-102.573
 20
9.26335
 11
-102.371
 21
8.94525
  0
LINE
  8
0
 10
-102.371
 20
8.94525
 11
-102.211
 21
8.60437
  0
LINE
  8
0
 10
-102.211
 20
8.60437
 11
-102.094
 21
8.24606
  0
LINE
  8
0
 10
-102.094
 20
8.24606
 11
-102.024
 21
7.87599
  0
LINE
  8
0
 10
-102.024
 20
7.87599
 11
-102
 21
7.5
  0
LINE
  8
0
 10
-102
 20
7.5
 11
-102.024
 21
7.12399
  0
LINE
  8
0
 10
-102.024
 20
7.12399
 11
-102.094
 21
6.75392
  0
LINE
  8
0
 10
-102.094
 20
6.75392
 11
-102.211
 21
6.39561
  0
LINE
  8
0
 10
-102.211
 20
6.39561
 11
-102.371
 21
6.05473
  0
LINE
  8
0
 10
-102.371
 20
6.05473
 11
-102.573
 21
5.73663
  0
LINE
  8
0
 10
-102.573
 20
5.73663
 11
-102.813
 21
5.44635
  0
LINE
  8
0
 10
-102.813
 20
5.44635
 11
-103.088
 21
5.18845
  0
LINE
  8
0
 10
-103.088
 20
5.18845
 11
-103.393
 21
4.96701
  0
LINE
  8
0
 10
-103.393
 20
4.96701
 11
-103.723
 21
4.78551
  0
LINE
  8
0
 10
-103.723
 20
4.78551
 11
-104.073
 21
4.64682
  0
LINE
  8
0
 10
-104.073
 20
4.64682
 11
-104.438
 21
4.55313
  0
LINE
  8
0
 10
-104.438
 20
4.55313
 11
-104.812
 21
4.50591
  0
LINE
  8
0
 10
-104.812
 20
4.50591
 11
-105.188
 21
4.50591
  0
LINE
  8
0
 10
-105.094
 20
-1.49704
 11
-105.281
 21
-1.47342
  0
LINE
  8
0
 10
-105.281
 20
-1.47342
 11
-105.464
 21
-1.42657
  0
LINE
  8
0
 10
-105.464
 20
-1.42657
 11
-105.639
 21
-1.35724
  0
LINE
  8
0
 10
-105.639
 20
-1.35724
 11
-105.804
 21
-1.26648
  0
LINE
  8
0
 10
-105.804
 20
-1.26648
 11
-105.956
 21
-1.15576
  0
LINE
  8
0
 10
-105.956
 20
-1.15576
 11
-106.093
 21
-1.02681
  0
LINE
  8
0
 10
-106.093
 20
-1.02681
 11
-106.214
 21
-0.881668
  0
LINE
  8
0
 10
-106.214
 20
-0.881668
 11
-106.314
 21
-0.722626
  0
LINE
  8
0
 10
-106.314
 20
-0.722626
 11
-106.395
 21
-0.552185
  0
LINE
  8
0
 10
-106.395
 20
-0.552185
 11
-106.453
 21
-0.373032
  0
LINE
  8
0
 10
-106.453
 20
-0.373032
 11
-106.488
 21
-0.187988
  0
LINE
  8
0
 10
-106.488
 20
-0.187988
 11
-106.5
 21
0
  0
LINE
  8
0
 10
-106.5
 20
0
 11
-106.488
 21
0.187988
  0
LINE
  8
0
 10
-106.488
 20
0.187988
 11
-106.453
 21
0.373032
  0
LINE
  8
0
 10
-106.453
 20
0.373032
 11
-106.395
 21
0.552185
  0
LINE
  8
0
 10
-106.395
 20
0.552185
 11
-106.314
 21
0.722626
  0
LINE
  8
0
 10
-106.314
 20
0.722626
 11
-106.214
 21
0.881668
  0
LINE
  8
0
 10
-106.214
 20
0.881668
 11
-106.093
 21
1.02681
  0
LINE
  8
0
 10
-106.093
 20
1.02681
 11
-105.956
 21
1.15576
  0
LINE
  8
0
 10
-105.956
 20
1.15576
 11
-105.804
 21
1.26648
  0
LINE
  8
0
 10
-105.804
 20
1.26648
 11
-105.639
 21
1.35724
  0
LINE
  8
0
 10
-105.639
 20
1.35724
 11
-105.464
 21
1.42657
  0
LINE
  8
0
 10
-105.464
 20
1.42657
 11
-105.281
 21
1.47342
  0
LINE
  8
0
 10
-105.281
 20
1.47342
 11
-105.094
 21
1.49704
  0
LINE
  8
0
 10
-105.094
 20
1.49704
 11
-104.906
 21
1.49704
  0
LINE
  8
0
 10
-104.906
 20
1.49704
 11
-104.719
 21
1.47342
  0
LINE
  8
0
 10
-104.719
 20
1.47342
 11
-104.536
 21
1.42657
  0
LINE
  8
0
 10
-104.536
 20
1.42657
 11
-104.361
 21
1.35724
  0
LINE
  8
0
 10
-104.361
 20
1.35724
 11
-104.196
 21
1.26648
  0
LINE
  8
0
 10
-104.196
 20
1.26648
 11
-104.044
 21
1.15576
  0
LINE
  8
0
 10
-104.044
 20
1.15576
 11
-103.907
 21
1.02681
  0
LINE
  8
0
 10
-103.907
 20
1.02681
 11
-103.786
 21
0.881668
  0
LINE
  8
0
 10
-103.786
 20
0.881668
 11
-103.686
 21
0.722626
  0
LINE
  8
0
 10
-103.686
 20
0.722626
 11
-103.605
 21
0.552185
  0
LINE
  8
0
 10
-103.605
 20
0.552185
 11
-103.547
 21
0.373032
  0
LINE
  8
0
 10
-103.547
 20
0.373032
 11
-103.512
 21
0.187988
  0
LINE
  8
0
 10
-103.512
 20
0.187988
 11
-103.5
 21
0
  0
LINE
  8
0
 10
-103.5
 20
0
 11
-103.512
 21
-0.187988
  0
LINE
  8
0
 10
-103.512
 20
-0.187988
 11
-103.547
 21
-0.373032
  0
LINE
  8
0
 10
-103.547
 20
-0.373032
 11
-103.605
 21
-0.552185
  0
LINE
  8
0
 10
-103.605
 20
-0.552185
 11
-103.686
 21
-0.722626
  0
LINE
  8
0
 10
-103.686
 20
-0.722626
 11
-103.786
 21
-0.881668
  0
LINE
  8
0
 10
-103.786
 20
-0.881668
 11
-103.907
 21
-1.02681
  0
LINE
  8
0
 10
-103.907
 20
-1.02681
 11
-104.044
 21
-1.15576
  0
LINE
  8
0
 10
-104.044
 20
-1.15576
 11
-104.196
 21
-1.26648
  0
LINE
  8
0
 10
-104.196
 20
-1.26648
 11
-104.361
 21
-1.35724
  0
LINE
  8
0
 10
-104.361
 20
-1.35724
 11
-104.536
 21
-1.42657
  0
LINE
  8
0
 10
-104.536
 20
-1.42657
 11
-104.719
 21
-1.47342
  0
LINE
  8
0
 10
-104.719
 20
-1.47342
 11
-104.906
 21
-1.49704
  0
LINE
  8
0
 10
-104.906
 20
-1.49704
 11
-105.094
 21
-1.49704
  0
LINE
  8
0
 10
-105.188
 20
-10.4941
 11
-105.562
 21
-10.4469
  0
LINE
  8
0
 10
-105.562
 20
-10.4469
 11
-105.927
 21
-10.3532
  0
LINE
  8
0
 10
-105.927
 20
-10.3532
 11
-106.277
 21
-10.2145
  0
LINE
  8
0
 10
-106.277
 20
-10.2145
 11
-106.607
 21
-10.033
  0
LINE
  8
0
 10
-106.607
 20
-10.033
 11
-106.912
 21
-9.81154
  0
LINE
  8
0
 10
-106.912
 20
-9.81154
 11
-107.187
 21
-9.55363
  0
LINE
  8
0
 10
-107.187
 20
-9.55363
 11
-107.427
 21
-9.26335
  0
LINE
  8
0
 10
-107.427
 20
-9.26335
 11
-107.629
 21
-8.94525
  0
LINE
  8
0
 10
-107.629
 20
-8.94525
 11
-107.789
 21
-8.60437
  0
LINE
  8
0
 10
-107.789
 20
-8.60437
 11
-107.906
 21
-8.24606
  0
LINE
  8
0
 10
-107.906
 20
-8.24606
 11
-107.976
 21
-7.87599
  0
LINE
  8
0
 10
-107.976
 20
-7.87599
 11
-108
 21
-7.5
  0
LINE
  8
0
 10
-108
 20
-7.5
 11
-107.976
 21
-7.12399
  0
LINE
  8
0
 10
-107.976
 20
-7.12399
 11
-107.906
 21
-6.75392
  0
LINE
  8
0
 10
-107.906
 20
-6.75392
 11
-107.789
 21
-6.39561
  0
LINE
  8
0
 10
-107.789
 20
-6.39561
 11
-107.629
 21
-6.05473
  0
LINE
  8
0
 10
-107.629
 20
-6.05473
 11
-107.427
 21
-5.73663
  0
LINE
  8
0
 10
-107.427
 20
-5.73663
 11
-107.187
 21
-5.44635
  0
LINE
  8
0
 10
-107.187
 20
-5.44635
 11
-106.912
 21
-5.18845
  0
LINE
  8
0
 10
-106.912
 20
-5.18845
 11
-106.607
 21
-4.96701
  0
LINE
  8
0
 10
-106.607
 20
-4.96701
 11
-106.277
 21
-4.78551
  0
LINE
  8
0
 10
-106.277
 20
-4.78551
 11
-105.927
 21
-4.64682
  0
LINE
  8
0
 10
-105.927
 20
-4.64682
 11
-105.562
 21
-4.55313
  0
LINE
  8
0
 10
-105.562
 20
-4.55313
 11
-105.188
 21
-4.50591
  0
LINE
  8
0
 10
-105.188
 20
-4.50591
 11
-104.812
 21
-4.50591
  0
LINE
  8
0
 10
-104.812
 20
-4.50591
 11
-104.438
 21
-4.55313
  0
LINE
  8
0
 10
-104.438
 20
-4.55313
 11
-104.073
 21
-4.64682
  0
LINE
  8
0
 10
-104.073
 20
-4.64682
 11
-103.723
 21
-4.78551
  0
LINE
  8
0
 10
-103.723
 20
-4.78551
 11
-103.393
 21
-4.96701
  0
LINE
  8
0
 10
-103.393
 20
-4.96701
 11
-103.088
 21
-5.18845
  0
LINE
  8
0
 10
-103.088
 20
-5.18845
 11
-102.813
 21
-5.44635
  0
LINE
  8
0
 10
-102.813
 20
-5.44635
 11
-102.573
 21
-5.73663
  0
LINE
  8
0
 10
-102.573
 20
-5.73663
 11
-102.371
 21
-6.05473
  0
LINE
  8
0
 10
-102.371
 20
-6.05473
 11
-102.211
 21
-6.39561
  0
LINE
  8
0
 10
-102.211
 20
-6.39561
 11
-102.094
 21
-6.75392
  0
LINE
  8
0
 10
-102.094
 20
-6.75392
 11
-102.024
 21
-7.12399
  0
LINE
  8
0
 10
-102.024
 20
-7.12399
 11
-102
 21
-7.5
  0
LINE
  8
0
 10
-102
 20
-7.5
 11
-102.024
 21
-7.87599
  0
LINE
  8
0
 10
-102.024
 20
-7.87599
 11
-102.094
 21
-8.24606
  0
LINE
  8
0
 10
-102.094
 20
-8.24606
 11
-102.211
 21
-8.60437
  0
LINE
  8
0
 10
-102.211
 20
-8.60437
 11
-102.371
 21
-8.94525
  0
LINE
  8
0
 10
-102.371
 20
-8.94525
 11
-102.573
 21
-9.26335
  0
LINE
  8
0
 10
-102.573
 20
-9.26335
 11
-102.813
 21
-9.55363
  0
LINE
  8
0
 10
-102.813
 20
-9.55363
 11
-103.088
 21
-9.81154
  0
LINE
  8
0
 10
-103.088
 20
-9.81154
 11
-103.393
 21
-10.033
  0
LINE
  8
0
 10
-103.393
 20
-10.033
 11
-103.723
 21
-10.2145
  0
LINE
  8
0
 10
-103.723
 20
-10.2145
 11
-104.073
 21
-10.3532
  0
LINE
  8
0
 10
-104.073
 20
-10.3532
 11
-104.438
 21
-10.4469
  0
LINE
  8
0
 10
-104.438
 20
-10.4469
 11
-104.812
 21
-10.4941
  0
LINE
  8
0
 10
-104.812
 20
-10.4941
 11
-105.188
 21
-10.4941
  0
LINE
  8
0
 10
-105.094
 20
-16.497
 11
-105.281
 21
-16.4734
  0
LINE
  8
0
 10
-105.281
 20
-16.4734
 11
-105.464
 21
-16.4266
  0
LINE
  8
0
 10
-105.464
 20
-16.4266
 11
-105.639
 21
-16.3572
  0
LINE
  8
0
 10
-105.639
 20
-16.3572
 11
-105.804
 21
-16.2665
  0
LINE
  8
0
 10
-105.804
 20
-16.2665
 11
-105.956
 21
-16.1558
  0
LINE
  8
0
 10
-105.956
 20
-16.1558
 11
-106.093
 21
-16.0268
  0
LINE
  8
0
 10
-106.093
 20
-16.0268
 11
-106.214
 21
-15.8817
  0
LINE
  8
0
 10
-106.214
 20
-15.8817
 11
-106.314
 21
-15.7226
  0
LINE
  8
0
 10
-106.314
 20
-15.7226
 11
-106.395
 21
-15.5522
  0
LINE
  8
0
 10
-106.395
 20
-15.5522
 11
-106.453
 21
-15.373
  0
LINE
  8
0
 10
-106.453
 20
-15.373
 11
-106.488
 21
-15.188
  0
LINE
  8
0
 10
-106.488
 20
-15.188
 11
-106.5
 21
-15
  0
LINE
  8
0
 10
-106.5
 20
-15
 11
-106.488
 21
-14.812
  0
LINE
  8
0
 10
-106.488
 20
-14.812
 11
-106.453
 21
-14.627
  0
LINE
  8
0
 10
-106.453
 20
-14.627
 11
-106.395
 21
-14.4478
  0
LINE
  8
0
 10
-106.395
 20
-14.4478
 11
-106.314
 21
-14.2774
  0
LINE
  8
0
 10
-106.314
 20
-14.2774
 11
-106.214
 21
-14.1183
  0
LINE
  8
0
 10
-106.214
 20
-14.1183
 11
-106.093
 21
-13.9732
  0
LINE
  8
0
 10
-106.093
 20
-13.9732
 11
-105.956
 21
-13.8442
  0
LINE
  8
0
 10
-105.956
 20
-13.8442
 11
-105.804
 21
-13.7335
  0
LINE
  8
0
 10
-105.804
 20
-13.7335
 11
-105.639
 21
-13.6427
  0
LINE
  8
0
 10
-105.639
 20
-13.6427
 11
-105.464
 21
-13.5734
  0
LINE
  8
0
 10
-105.464
 20
-13.5734
 11
-105.281
 21
-13.5266
  0
LINE
  8
0
 10
-105.281
 20
-13.5266
 11
-105.094
 21
-13.5029
  0
LINE
  8
0
 10
-105.094
 20
-13.5029
 11
-104.906
 21
-13.5029
  0
LINE
  8
0
 10
-104.906
 20
-13.5029
 11
-104.719
 21
-13.5266
  0
LINE
  8
0
 10
-104.719
 20
-13.5266
 11
-104.536
 21
-13.5734
  0
LINE
  8
0
 10
-104.536
 20
-13.5734
 11
-104.361
 21
-13.6427
  0
LINE
  8
0
 10
-104.361
 20
-13.6427
 11
-104.196
 21
-13.7335
  0
LINE
  8
0
 10
-104.196
 20
-13.7335
 11
-104.044
 21
-13.8442
  0
LINE
  8
0
 10
-104.044
 20
-13.8442
 11
-103.907
 21
-13.9732
  0
LINE
  8
0
 10
-103.907
 20
-13.9732
 11
-103.786
 21
-14.1183
  0
LINE
  8
0
 10
-103.786
 20
-14.1183
 11
-103.686
 21
-14.2774
  0
LINE
  8
0
 10
-103.686
 20
-14.2774
 11
-103.605
 21
-14.4478
  0
LINE
  8
0
 10
-103.605
 20
-14.4478
 11
-103.547
 21
-14.627
  0
LINE
  8
0
 10
-103.547
 20
-14.627
 11
-103.512
 21
-14.812
  0
LINE
  8
0
 10
-103.512
 20
-14.812
 11
-103.5
 21
-15
  0
LINE
  8
0
 10
-103.5
 20
-15
 11
-103.512
 21
-15.188
  0
LINE
  8
0
 10
-103.512
 20
-15.188
 11
-103.547
 21
-15.373
  0
LINE
  8
0
 10
-103.547
 20
-15.373
 11
-103.605
 21
-15.5522
  0
LINE
  8
0
 10
-103.605
 20
-15.5522
 11
-103.686
 21
-15.7226
  0
LINE
  8
0
 10
-103.686
 20
-15.7226
 11
-103.786
 21
-15.8817
  0
LINE
  8
0
 10
-103.786
 20
-15.8817
 11
-103.907
 21
-16.0268
  0
LINE
  8
0
 10
-103.907
 20
-16.0268
 11
-104.044
 21
-16.1558
  0
LINE
  8
0
 10
-104.044
 20
-16.1558
 11
-104.196
 21
-16.2665
  0
LINE
  8
0
 10
-104.196
 20
-16.2665
 11
-104.361
 21
-16.3572
  0
LINE
  8
0
 10
-104.361
 20
-16.3572
 11
-104.536
 21
-16.4266
  0
LINE
  8
0
 10
-104.536
 20
-16.4266
 11
-104.719
 21
-16.4734
  0
LINE
  8
0
 10
-104.719
 20
-16.4734
 11
-104.906
 21
-16.497
  0
LINE
  8
0
 10
-104.906
 20
-16.497
 11
-105.094
 21
-16.497
  0
LINE
  8
0
 10
-105.188
 20
-25.4941
 11
-105.562
 21
-25.4469
  0
LINE
  8
0
 10
-105.562
 20
-25.4469
 11
-105.927
 21
-25.3532
  0
LINE
  8
0
 10
-105.927
 20
-25.3532
 11
-106.277
 21
-25.2145
  0
LINE
  8
0
 10
-106.277
 20
-25.2145
 11
-106.607
 21
-25.033
  0
LINE
  8
0
 10
-106.607
 20
-25.033
 11
-106.912
 21
-24.8115
  0
LINE
  8
0
 10
-106.912
 20
-24.8115
 11
-107.187
 21
-24.5536
  0
LINE
  8
0
 10
-107.187
 20
-24.5536
 11
-107.427
 21
-24.2634
  0
LINE
  8
0
 10
-107.427
 20
-24.2634
 11
-107.629
 21
-23.9453
  0
LINE
  8
0
 10
-107.629
 20
-23.9453
 11
-107.789
 21
-23.6044
  0
LINE
  8
0
 10
-107.789
 20
-23.6044
 11
-107.906
 21
-23.2461
  0
LINE
  8
0
 10
-107.906
 20
-23.2461
 11
-107.976
 21
-22.876
  0
LINE
  8
0
 10
-107.976
 20
-22.876
 11
-108
 21
-22.5
  0
LINE
  8
0
 10
-108
 20
-22.5
 11
-107.976
 21
-22.124
  0
LINE
  8
0
 10
-107.976
 20
-22.124
 11
-107.906
 21
-21.7539
  0
LINE
  8
0
 10
-107.906
 20
-21.7539
 11
-107.789
 21
-21.3956
  0
LINE
  8
0
 10
-107.789
 20
-21.3956
 11
-107.629
 21
-21.0547
  0
LINE
  8
0
 10
-107.629
 20
-21.0547
 11
-107.427
 21
-20.7366
  0
LINE
  8
0
 10
-107.427
 20
-20.7366
 11
-107.187
 21
-20.4464
  0
LINE
  8
0
 10
-107.187
 20
-20.4464
 11
-106.912
 21
-20.1884
  0
LINE
  8
0
 10
-106.912
 20
-20.1884
 11
-106.607
 21
-19.967
  0
LINE
  8
0
 10
-106.607
 20
-19.967
 11
-106.277
 21
-19.7855
  0
LINE
  8
0
 10
-106.277
 20
-19.7855
 11
-105.927
 21
-19.6468
  0
LINE
  8
0
 10
-105.927
 20
-19.6468
 11
-105.562
 21
-19.5531
  0
LINE
  8
0
 10
-105.562
 20
-19.5531
 11
-105.188
 21
-19.5059
  0
LINE
  8
0
 10
-105.188
 20
-19.5059
 11
-104.812
 21
-19.5059
  0
LINE
  8
0
 10
-104.812
 20
-19.5059
 11
-104.438
 21
-19.5531
  0
LINE
  8
0
 10
-104.438
 20
-19.5531
 11
-104.073
 21
-19.6468
  0
LINE
  8
0
 10
-104.073
 20
-19.6468
 11
-103.723
 21
-19.7855
  0
LINE
  8
0
 10
-103.723
 20
-19.7855
 11
-103.393
 21
-19.967
  0
LINE
  8
0
 10
-103.393
 20
-19.967
 11
-103.088
 21
-20.1884
  0
LINE
  8
0
 10
-103.088
 20
-20.1884
 11
-102.813
 21
-20.4464
  0
LINE
  8
0
 10
-102.813
 20
-20.4464
 11
-102.573
 21
-20.7366
  0
LINE
  8
0
 10
-102.573
 20
-20.7366
 11
-102.371
 21
-21.0547
  0
LINE
  8
0
 10
-102.371
 20
-21.0547
 11
-102.211
 21
-21.3956
  0
LINE
  8
0
 10
-102.211
 20
-21.3956
 11
-102.094
 21
-21.7539
  0
LINE
  8
0
 10
-102.094
 20
-21.7539
 11
-102.024
 21
-22.124
  0
LINE
  8
0
 10
-102.024
 20
-22.124
 11
-102
 21
-22.5
  0
LINE
  8
0
 10
-102
 20
-22.5
 11
-102.024
 21
-22.876
  0
LINE
  8
0
 10
-102.024
 20
-22.876
 11
-102.094
 21
-23.2461
  0
LINE
  8
0
 10
-102.094
 20
-23.2461
 11
-102.211
 21
-23.6044
  0
LINE
  8
0
 10
-102.211
 20
-23.6044
 11
-102.371
 21
-23.9453
  0
LINE
  8
0
 10
-102.371
 20
-23.9453
 11
-102.573
 21
-24.2634
  0
LINE
  8
0
 10
-102.573
 20
-24.2634
 11
-102.813
 21
-24.5536
  0
LINE
  8
0
 10
-102.813
 20
-24.5536
 11
-103.088
 21
-24.8115
  0
LINE
  8
0
 10
-103.088
 20
-24.8115
 11
-103.393
 21
-25.033
  0
LINE
  8
0
 10
-103.393
 20
-25.033
 11
-103.723
 21
-25.2145
  0
LINE
  8
0
 10
-103.723
 20
-25.2145
 11
-104.073
 21
-25.3532
  0
LINE
  8
0
 10
-104.073
 20
-25.3532
 11
-104.438
 21
-25.4469
  0
LINE
  8
0
 10
-104.438
 20
-25.4469
 11
-104.812
 21
-25.4941
  0
LINE
  8
0
 10
-104.812
 20
-25.4941
 11
-105.188
 21
-25.4941
  0
ENDSEC
  0
SECTION
  2
OBJECTS
  0
DICTIONARY
  0
ENDSEC
  0
EOF
