solid OpenSCAD_Model
  facet normal -0.844295 -0.535879 0
    outer loop
      vertex -79.8711 1.44526 0
      vertex -80.073 1.76336 21
      vertex -80.073 1.76336 0
    endloop
  endfacet
  facet normal -0.844295 -0.535879 0
    outer loop
      vertex -80.073 1.76336 21
      vertex -79.8711 1.44526 0
      vertex -79.8711 1.44526 21
    endloop
  endfacet
  facet normal -0.368116 -0.92978 0
    outer loop
      vertex -81.573 2.85317 0
      vertex -81.2227 2.71448 21
      vertex -81.573 2.85317 21
    endloop
  endfacet
  facet normal -0.368116 -0.92978 -0
    outer loop
      vertex -81.2227 2.71448 21
      vertex -81.573 2.85317 0
      vertex -81.2227 2.71448 0
    endloop
  endfacet
  facet normal 0.368116 -0.92978 0
    outer loop
      vertex -83.7773 2.71448 0
      vertex -83.427 2.85317 21
      vertex -83.7773 2.71448 21
    endloop
  endfacet
  facet normal 0.368116 -0.92978 0
    outer loop
      vertex -83.427 2.85317 21
      vertex -83.7773 2.71448 0
      vertex -83.427 2.85317 0
    endloop
  endfacet
  facet normal 0.904838 -0.425756 0
    outer loop
      vertex -85.2893 1.10437 21
      vertex -85.1289 1.44526 0
      vertex -85.1289 1.44526 21
    endloop
  endfacet
  facet normal 0.904838 -0.425756 0
    outer loop
      vertex -85.1289 1.44526 0
      vertex -85.2893 1.10437 21
      vertex -85.2893 1.10437 0
    endloop
  endfacet
  facet normal -0.982285 0.187395 0
    outer loop
      vertex -79.5943 -0.746069 0
      vertex -79.5237 -0.375999 21
      vertex -79.5237 -0.375999 0
    endloop
  endfacet
  facet normal -0.982285 0.187395 0
    outer loop
      vertex -79.5237 -0.375999 21
      vertex -79.5943 -0.746069 0
      vertex -79.5943 -0.746069 21
    endloop
  endfacet
  facet normal -0.684594 -0.728924 0
    outer loop
      vertex -80.5877 2.31154 0
      vertex -80.3131 2.05364 21
      vertex -80.5877 2.31154 21
    endloop
  endfacet
  facet normal -0.684594 -0.728924 -0
    outer loop
      vertex -80.3131 2.05364 21
      vertex -80.5877 2.31154 0
      vertex -80.3131 2.05364 0
    endloop
  endfacet
  facet normal 0 -1 0
    outer loop
      vertex -82.6884 2.99408 0
      vertex -82.3116 2.99408 21
      vertex -82.6884 2.99408 21
    endloop
  endfacet
  facet normal 0 -1 -0
    outer loop
      vertex -82.3116 2.99408 21
      vertex -82.6884 2.99408 0
      vertex -82.3116 2.99408 0
    endloop
  endfacet
  facet normal -0.587768 -0.80903 0
    outer loop
      vertex -80.8925 2.53298 0
      vertex -80.5877 2.31154 21
      vertex -80.8925 2.53298 21
    endloop
  endfacet
  facet normal -0.587768 -0.80903 -0
    outer loop
      vertex -80.5877 2.31154 21
      vertex -80.8925 2.53298 0
      vertex -80.5877 2.31154 0
    endloop
  endfacet
  facet normal 0.982285 -0.187395 0
    outer loop
      vertex -85.4763 0.375999 21
      vertex -85.4057 0.746069 0
      vertex -85.4057 0.746069 21
    endloop
  endfacet
  facet normal 0.982285 -0.187395 0
    outer loop
      vertex -85.4057 0.746069 0
      vertex -85.4763 0.375999 21
      vertex -85.4763 0.375999 0
    endloop
  endfacet
  facet normal 0.770566 -0.63736 0
    outer loop
      vertex -84.927 1.76336 21
      vertex -84.6869 2.05364 0
      vertex -84.6869 2.05364 21
    endloop
  endfacet
  facet normal 0.770566 -0.63736 0
    outer loop
      vertex -84.6869 2.05364 0
      vertex -84.927 1.76336 21
      vertex -84.927 1.76336 0
    endloop
  endfacet
  facet normal 0.248689 -0.968583 0
    outer loop
      vertex -83.427 2.85317 0
      vertex -83.0621 2.94686 21
      vertex -83.427 2.85317 21
    endloop
  endfacet
  facet normal 0.248689 -0.968583 0
    outer loop
      vertex -83.0621 2.94686 21
      vertex -83.427 2.85317 0
      vertex -83.0621 2.94686 0
    endloop
  endfacet
  facet normal 0.684594 -0.728924 0
    outer loop
      vertex -84.6869 2.05364 0
      vertex -84.4123 2.31154 21
      vertex -84.6869 2.05364 21
    endloop
  endfacet
  facet normal 0.684594 -0.728924 0
    outer loop
      vertex -84.4123 2.31154 21
      vertex -84.6869 2.05364 0
      vertex -84.4123 2.31154 0
    endloop
  endfacet
  facet normal -0.998019 -0.0629072 0
    outer loop
      vertex -79.5 0 0
      vertex -79.5237 0.375999 21
      vertex -79.5237 0.375999 0
    endloop
  endfacet
  facet normal -0.998019 -0.0629072 0
    outer loop
      vertex -79.5237 0.375999 21
      vertex -79.5 0 0
      vertex -79.5 0 21
    endloop
  endfacet
  facet normal -0.481695 0.876339 0
    outer loop
      vertex -80.8925 -2.53298 0
      vertex -81.2227 -2.71448 21
      vertex -80.8925 -2.53298 21
    endloop
  endfacet
  facet normal -0.481695 0.876339 0
    outer loop
      vertex -81.2227 -2.71448 21
      vertex -80.8925 -2.53298 0
      vertex -81.2227 -2.71448 0
    endloop
  endfacet
  facet normal -0.770566 -0.63736 0
    outer loop
      vertex -80.073 1.76336 0
      vertex -80.3131 2.05364 21
      vertex -80.3131 2.05364 0
    endloop
  endfacet
  facet normal -0.770566 -0.63736 0
    outer loop
      vertex -80.3131 2.05364 21
      vertex -80.073 1.76336 0
      vertex -80.073 1.76336 21
    endloop
  endfacet
  facet normal -0.248689 -0.968583 0
    outer loop
      vertex -81.9379 2.94686 0
      vertex -81.573 2.85317 21
      vertex -81.9379 2.94686 21
    endloop
  endfacet
  facet normal -0.248689 -0.968583 -0
    outer loop
      vertex -81.573 2.85317 21
      vertex -81.9379 2.94686 0
      vertex -81.573 2.85317 0
    endloop
  endfacet
  facet normal -0.125361 -0.992111 0
    outer loop
      vertex -82.3116 2.99408 0
      vertex -81.9379 2.94686 21
      vertex -82.3116 2.99408 21
    endloop
  endfacet
  facet normal -0.125361 -0.992111 -0
    outer loop
      vertex -81.9379 2.94686 21
      vertex -82.3116 2.99408 0
      vertex -81.9379 2.94686 0
    endloop
  endfacet
  facet normal -0.481695 -0.876339 0
    outer loop
      vertex -81.2227 2.71448 0
      vertex -80.8925 2.53298 21
      vertex -81.2227 2.71448 21
    endloop
  endfacet
  facet normal -0.481695 -0.876339 -0
    outer loop
      vertex -80.8925 2.53298 21
      vertex -81.2227 2.71448 0
      vertex -80.8925 2.53298 0
    endloop
  endfacet
  facet normal 0.998019 -0.0629072 0
    outer loop
      vertex -85.5 0 21
      vertex -85.4763 0.375999 0
      vertex -85.4763 0.375999 21
    endloop
  endfacet
  facet normal 0.998019 -0.0629072 0
    outer loop
      vertex -85.4763 0.375999 0
      vertex -85.5 0 21
      vertex -85.5 0 0
    endloop
  endfacet
  facet normal 0 0 1
    outer loop
      vertex 84.8139 6.99013 21
      vertex 89.5 2 21
      vertex 89.4606 2.62667 21
    endloop
  endfacet
  facet normal 0 0 1
    outer loop
      vertex 89.5 2 21
      vertex 84.8139 6.99013 21
      vertex 89.5 -2 21
    endloop
  endfacet
  facet normal 0 0 1
    outer loop
      vertex 84.8139 6.99013 21
      vertex 89.4606 2.62667 21
      vertex 89.3429 3.24345 21
    endloop
  endfacet
  facet normal 0 0 1
    outer loop
      vertex 84.8139 -6.99013 21
      vertex 89.5 -2 21
      vertex 84.8139 6.99013 21
    endloop
  endfacet
  facet normal 0 0 1
    outer loop
      vertex 84.8139 6.99013 21
      vertex 89.3429 3.24345 21
      vertex 89.1489 3.84062 21
    endloop
  endfacet
  facet normal 0 0 1
    outer loop
      vertex 89.5 -2 21
      vertex 84.8139 -6.99013 21
      vertex 89.4606 -2.62667 21
    endloop
  endfacet
  facet normal 0 0 1
    outer loop
      vertex 84.8139 6.99013 21
      vertex 89.1489 3.84062 21
      vertex 88.8815 4.40877 21
    endloop
  endfacet
  facet normal 0 0 1
    outer loop
      vertex 89.4606 -2.62667 21
      vertex 84.8139 -6.99013 21
      vertex 89.3429 -3.24345 21
    endloop
  endfacet
  facet normal 0 0 1
    outer loop
      vertex 84.8139 6.99013 21
      vertex 88.8815 4.40877 21
      vertex 88.5451 4.93893 21
    endloop
  endfacet
  facet normal 0 0 1
    outer loop
      vertex 89.3429 -3.24345 21
      vertex 84.8139 -6.99013 21
      vertex 89.1489 -3.84062 21
    endloop
  endfacet
  facet normal 0 0 1
    outer loop
      vertex 84.8139 6.99013 21
      vertex 88.5451 4.93893 21
      vertex 88.1448 5.42274 21
    endloop
  endfacet
  facet normal 0 0 1
    outer loop
      vertex 89.1489 -3.84062 21
      vertex 84.8139 -6.99013 21
      vertex 88.8815 -4.40877 21
    endloop
  endfacet
  facet normal 0 0 1
    outer loop
      vertex 84.8139 6.99013 21
      vertex 88.1448 5.42274 21
      vertex 87.6871 5.85257 21
    endloop
  endfacet
  facet normal 0 0 1
    outer loop
      vertex 88.8815 -4.40877 21
      vertex 84.8139 -6.99013 21
      vertex 88.5451 -4.93893 21
    endloop
  endfacet
  facet normal 0 0 1
    outer loop
      vertex 84.8139 6.99013 21
      vertex 87.6871 5.85257 21
      vertex 87.1791 6.22164 21
    endloop
  endfacet
  facet normal 0 0 1
    outer loop
      vertex 88.5451 -4.93893 21
      vertex 84.8139 -6.99013 21
      vertex 88.1448 -5.42274 21
    endloop
  endfacet
  facet normal 0 0 1
    outer loop
      vertex 84.8139 6.99013 21
      vertex 87.1791 6.22164 21
      vertex 86.6289 6.52413 21
    endloop
  endfacet
  facet normal 0 0 1
    outer loop
      vertex 88.1448 -5.42274 21
      vertex 84.8139 -6.99013 21
      vertex 87.6871 -5.85257 21
    endloop
  endfacet
  facet normal 0 0 1
    outer loop
      vertex 84.8139 6.99013 21
      vertex 86.6289 6.52413 21
      vertex 86.0451 6.75528 21
    endloop
  endfacet
  facet normal 0 0 1
    outer loop
      vertex 87.6871 -5.85257 21
      vertex 84.8139 -6.99013 21
      vertex 87.1791 -6.22164 21
    endloop
  endfacet
  facet normal 0 0 1
    outer loop
      vertex 84.8139 6.99013 21
      vertex 86.0451 6.75528 21
      vertex 85.4369 6.91144 21
    endloop
  endfacet
  facet normal 0 0 1
    outer loop
      vertex 87.1791 -6.22164 21
      vertex 84.8139 -6.99013 21
      vertex 86.6289 -6.52413 21
    endloop
  endfacet
  facet normal 0 0 1
    outer loop
      vertex 86.6289 -6.52413 21
      vertex 84.8139 -6.99013 21
      vertex 86.0451 -6.75528 21
    endloop
  endfacet
  facet normal 0 0 1
    outer loop
      vertex 86.0451 -6.75528 21
      vertex 84.8139 -6.99013 21
      vertex 85.4369 -6.91144 21
    endloop
  endfacet
  facet normal 0 0 1
    outer loop
      vertex 84.8139 6.99013 21
      vertex -79.5 0 21
      vertex 84.8139 -6.99013 21
    endloop
  endfacet
  facet normal 0 0 1
    outer loop
      vertex 84.8139 6.99013 21
      vertex -79.5237 0.375999 21
      vertex -79.5 0 21
    endloop
  endfacet
  facet normal 0 0 1
    outer loop
      vertex 84.8139 6.99013 21
      vertex -79.5943 0.746069 21
      vertex -79.5237 0.375999 21
    endloop
  endfacet
  facet normal 0 0 1
    outer loop
      vertex 84.8139 6.99013 21
      vertex -79.7107 1.10437 21
      vertex -79.5943 0.746069 21
    endloop
  endfacet
  facet normal 0 0 1
    outer loop
      vertex 84.8139 6.99013 21
      vertex -79.8711 1.44526 21
      vertex -79.7107 1.10437 21
    endloop
  endfacet
  facet normal 0 0 1
    outer loop
      vertex 84.8139 6.99013 21
      vertex -80.073 1.76336 21
      vertex -79.8711 1.44526 21
    endloop
  endfacet
  facet normal 0 0 1
    outer loop
      vertex 84.8139 6.99013 21
      vertex -80.3131 2.05364 21
      vertex -80.073 1.76336 21
    endloop
  endfacet
  facet normal -0 0 1
    outer loop
      vertex -84.8139 6.99013 21
      vertex -80.3131 2.05364 21
      vertex 84.8139 6.99013 21
    endloop
  endfacet
  facet normal 0 0 1
    outer loop
      vertex -80.3131 2.05364 21
      vertex -84.8139 6.99013 21
      vertex -80.5877 2.31154 21
    endloop
  endfacet
  facet normal 0 0 1
    outer loop
      vertex -80.5877 2.31154 21
      vertex -84.8139 6.99013 21
      vertex -80.8925 2.53298 21
    endloop
  endfacet
  facet normal 0 0 1
    outer loop
      vertex -80.8925 2.53298 21
      vertex -84.8139 6.99013 21
      vertex -81.2227 2.71448 21
    endloop
  endfacet
  facet normal 0 0 1
    outer loop
      vertex -81.2227 2.71448 21
      vertex -84.8139 6.99013 21
      vertex -81.573 2.85317 21
    endloop
  endfacet
  facet normal 0 0 1
    outer loop
      vertex -81.573 2.85317 21
      vertex -84.8139 6.99013 21
      vertex -81.9379 2.94686 21
    endloop
  endfacet
  facet normal 0 0 1
    outer loop
      vertex -81.9379 2.94686 21
      vertex -84.8139 6.99013 21
      vertex -82.3116 2.99408 21
    endloop
  endfacet
  facet normal 0 0 1
    outer loop
      vertex -82.3116 2.99408 21
      vertex -84.8139 6.99013 21
      vertex -82.6884 2.99408 21
    endloop
  endfacet
  facet normal 0 0 1
    outer loop
      vertex -84.8139 6.99013 21
      vertex -83.0621 2.94686 21
      vertex -82.6884 2.99408 21
    endloop
  endfacet
  facet normal 0 0 1
    outer loop
      vertex -84.8139 6.99013 21
      vertex -83.427 2.85317 21
      vertex -83.0621 2.94686 21
    endloop
  endfacet
  facet normal 0 0 1
    outer loop
      vertex -84.8139 6.99013 21
      vertex -83.7773 2.71448 21
      vertex -83.427 2.85317 21
    endloop
  endfacet
  facet normal -0 0 1
    outer loop
      vertex -85.4369 6.91144 21
      vertex -83.7773 2.71448 21
      vertex -84.8139 6.99013 21
    endloop
  endfacet
  facet normal 0 0 1
    outer loop
      vertex -83.7773 2.71448 21
      vertex -85.4369 6.91144 21
      vertex -84.1075 2.53298 21
    endloop
  endfacet
  facet normal -0 0 1
    outer loop
      vertex -86.0451 6.75528 21
      vertex -84.1075 2.53298 21
      vertex -85.4369 6.91144 21
    endloop
  endfacet
  facet normal -0 0 1
    outer loop
      vertex -86.6289 6.52413 21
      vertex -84.1075 2.53298 21
      vertex -86.0451 6.75528 21
    endloop
  endfacet
  facet normal 0 0 1
    outer loop
      vertex -84.1075 2.53298 21
      vertex -86.6289 6.52413 21
      vertex -84.4123 2.31154 21
    endloop
  endfacet
  facet normal -0 0 1
    outer loop
      vertex -87.1791 6.22164 21
      vertex -84.4123 2.31154 21
      vertex -86.6289 6.52413 21
    endloop
  endfacet
  facet normal -0 0 1
    outer loop
      vertex -87.6871 5.85257 21
      vertex -84.4123 2.31154 21
      vertex -87.1791 6.22164 21
    endloop
  endfacet
  facet normal 0 0 1
    outer loop
      vertex -84.4123 2.31154 21
      vertex -87.6871 5.85257 21
      vertex -84.6869 2.05364 21
    endloop
  endfacet
  facet normal -0 0 1
    outer loop
      vertex -88.1448 5.42274 21
      vertex -84.6869 2.05364 21
      vertex -87.6871 5.85257 21
    endloop
  endfacet
  facet normal -0 0 1
    outer loop
      vertex -88.5451 4.93893 21
      vertex -84.6869 2.05364 21
      vertex -88.1448 5.42274 21
    endloop
  endfacet
  facet normal 0 0 1
    outer loop
      vertex -84.6869 2.05364 21
      vertex -88.5451 4.93893 21
      vertex -84.927 1.76336 21
    endloop
  endfacet
  facet normal -0 0 1
    outer loop
      vertex -79.5237 -0.375999 21
      vertex 84.8139 -6.99013 21
      vertex -79.5 0 21
    endloop
  endfacet
  facet normal -0 0 1
    outer loop
      vertex -79.5943 -0.746069 21
      vertex 84.8139 -6.99013 21
      vertex -79.5237 -0.375999 21
    endloop
  endfacet
  facet normal -0 0 1
    outer loop
      vertex -79.7107 -1.10437 21
      vertex 84.8139 -6.99013 21
      vertex -79.5943 -0.746069 21
    endloop
  endfacet
  facet normal -0 0 1
    outer loop
      vertex -79.8711 -1.44526 21
      vertex 84.8139 -6.99013 21
      vertex -79.7107 -1.10437 21
    endloop
  endfacet
  facet normal -0 0 1
    outer loop
      vertex -80.073 -1.76336 21
      vertex 84.8139 -6.99013 21
      vertex -79.8711 -1.44526 21
    endloop
  endfacet
  facet normal -0 0 1
    outer loop
      vertex -80.3131 -2.05364 21
      vertex 84.8139 -6.99013 21
      vertex -80.073 -1.76336 21
    endloop
  endfacet
  facet normal 0 0 1
    outer loop
      vertex -84.8139 -6.99013 21
      vertex -80.3131 -2.05364 21
      vertex -80.5877 -2.31154 21
    endloop
  endfacet
  facet normal 0 0 1
    outer loop
      vertex -84.8139 -6.99013 21
      vertex -80.5877 -2.31154 21
      vertex -80.8925 -2.53298 21
    endloop
  endfacet
  facet normal 0 0 1
    outer loop
      vertex -84.8139 -6.99013 21
      vertex -80.8925 -2.53298 21
      vertex -81.2227 -2.71448 21
    endloop
  endfacet
  facet normal 0 0 1
    outer loop
      vertex -84.8139 -6.99013 21
      vertex -81.2227 -2.71448 21
      vertex -81.573 -2.85317 21
    endloop
  endfacet
  facet normal 0 0 1
    outer loop
      vertex -84.8139 -6.99013 21
      vertex -81.573 -2.85317 21
      vertex -81.9379 -2.94686 21
    endloop
  endfacet
  facet normal 0 0 1
    outer loop
      vertex -84.8139 -6.99013 21
      vertex -81.9379 -2.94686 21
      vertex -82.3116 -2.99408 21
    endloop
  endfacet
  facet normal 0 0 1
    outer loop
      vertex -84.8139 -6.99013 21
      vertex -82.3116 -2.99408 21
      vertex -82.6884 -2.99408 21
    endloop
  endfacet
  facet normal 0 0 1
    outer loop
      vertex -80.3131 -2.05364 21
      vertex -84.8139 -6.99013 21
      vertex 84.8139 -6.99013 21
    endloop
  endfacet
  facet normal 0 0 1
    outer loop
      vertex -83.0621 -2.94686 21
      vertex -84.8139 -6.99013 21
      vertex -82.6884 -2.99408 21
    endloop
  endfacet
  facet normal 0 0 1
    outer loop
      vertex -83.427 -2.85317 21
      vertex -84.8139 -6.99013 21
      vertex -83.0621 -2.94686 21
    endloop
  endfacet
  facet normal 0 0 1
    outer loop
      vertex -83.7773 -2.71448 21
      vertex -84.8139 -6.99013 21
      vertex -83.427 -2.85317 21
    endloop
  endfacet
  facet normal 0 0 1
    outer loop
      vertex -85.4369 -6.91144 21
      vertex -83.7773 -2.71448 21
      vertex -84.1075 -2.53298 21
    endloop
  endfacet
  facet normal 0 0 1
    outer loop
      vertex -86.6289 -6.52413 21
      vertex -84.1075 -2.53298 21
      vertex -84.4123 -2.31154 21
    endloop
  endfacet
  facet normal 0 0 1
    outer loop
      vertex -87.6871 -5.85257 21
      vertex -84.4123 -2.31154 21
      vertex -84.6869 -2.05364 21
    endloop
  endfacet
  facet normal 0 0 1
    outer loop
      vertex -88.5451 -4.93893 21
      vertex -84.6869 -2.05364 21
      vertex -84.927 -1.76336 21
    endloop
  endfacet
  facet normal 0 0 1
    outer loop
      vertex -89.1489 -3.84062 21
      vertex -84.927 -1.76336 21
      vertex -85.1289 -1.44526 21
    endloop
  endfacet
  facet normal 0 0 1
    outer loop
      vertex -89.4606 -2.62667 21
      vertex -85.1289 -1.44526 21
      vertex -85.2893 -1.10437 21
    endloop
  endfacet
  facet normal 0 0 1
    outer loop
      vertex -89.5 -2 21
      vertex -85.2893 -1.10437 21
      vertex -85.4057 -0.746069 21
    endloop
  endfacet
  facet normal 0 0 1
    outer loop
      vertex -83.7773 -2.71448 21
      vertex -85.4369 -6.91144 21
      vertex -84.8139 -6.99013 21
    endloop
  endfacet
  facet normal 0 0 1
    outer loop
      vertex -89.5 -2 21
      vertex -85.4057 -0.746069 21
      vertex -85.4763 -0.375999 21
    endloop
  endfacet
  facet normal 0 0 1
    outer loop
      vertex -89.5 -2 21
      vertex -85.4763 -0.375999 21
      vertex -85.5 0 21
    endloop
  endfacet
  facet normal -0 0 1
    outer loop
      vertex -88.8815 4.40877 21
      vertex -84.927 1.76336 21
      vertex -88.5451 4.93893 21
    endloop
  endfacet
  facet normal 0 0 1
    outer loop
      vertex -89.5 -2 21
      vertex -85.5 0 21
      vertex -89.5 2 21
    endloop
  endfacet
  facet normal -0 0 1
    outer loop
      vertex -89.1489 3.84062 21
      vertex -84.927 1.76336 21
      vertex -88.8815 4.40877 21
    endloop
  endfacet
  facet normal 0 0 1
    outer loop
      vertex -85.2893 -1.10437 21
      vertex -89.5 -2 21
      vertex -89.4606 -2.62667 21
    endloop
  endfacet
  facet normal 0 0 1
    outer loop
      vertex -84.927 1.76336 21
      vertex -89.1489 3.84062 21
      vertex -85.1289 1.44526 21
    endloop
  endfacet
  facet normal 0 0 1
    outer loop
      vertex -84.1075 -2.53298 21
      vertex -86.0451 -6.75528 21
      vertex -85.4369 -6.91144 21
    endloop
  endfacet
  facet normal -0 0 1
    outer loop
      vertex -89.3429 3.24345 21
      vertex -85.1289 1.44526 21
      vertex -89.1489 3.84062 21
    endloop
  endfacet
  facet normal 0 0 1
    outer loop
      vertex -84.1075 -2.53298 21
      vertex -86.6289 -6.52413 21
      vertex -86.0451 -6.75528 21
    endloop
  endfacet
  facet normal -0 0 1
    outer loop
      vertex -89.4606 2.62667 21
      vertex -85.1289 1.44526 21
      vertex -89.3429 3.24345 21
    endloop
  endfacet
  facet normal 0 0 1
    outer loop
      vertex -84.4123 -2.31154 21
      vertex -87.1791 -6.22164 21
      vertex -86.6289 -6.52413 21
    endloop
  endfacet
  facet normal 0 0 1
    outer loop
      vertex -85.1289 1.44526 21
      vertex -89.4606 2.62667 21
      vertex -85.2893 1.10437 21
    endloop
  endfacet
  facet normal 0 0 1
    outer loop
      vertex -84.4123 -2.31154 21
      vertex -87.6871 -5.85257 21
      vertex -87.1791 -6.22164 21
    endloop
  endfacet
  facet normal -0 0 1
    outer loop
      vertex -89.5 2 21
      vertex -85.2893 1.10437 21
      vertex -89.4606 2.62667 21
    endloop
  endfacet
  facet normal 0 0 1
    outer loop
      vertex -84.6869 -2.05364 21
      vertex -88.1448 -5.42274 21
      vertex -87.6871 -5.85257 21
    endloop
  endfacet
  facet normal 0 0 1
    outer loop
      vertex -85.2893 1.10437 21
      vertex -89.5 2 21
      vertex -85.4057 0.746069 21
    endloop
  endfacet
  facet normal 0 0 1
    outer loop
      vertex -84.6869 -2.05364 21
      vertex -88.5451 -4.93893 21
      vertex -88.1448 -5.42274 21
    endloop
  endfacet
  facet normal 0 0 1
    outer loop
      vertex -85.4057 0.746069 21
      vertex -89.5 2 21
      vertex -85.4763 0.375999 21
    endloop
  endfacet
  facet normal 0 0 1
    outer loop
      vertex -84.927 -1.76336 21
      vertex -88.8815 -4.40877 21
      vertex -88.5451 -4.93893 21
    endloop
  endfacet
  facet normal 0 0 1
    outer loop
      vertex -85.4763 0.375999 21
      vertex -89.5 2 21
      vertex -85.5 0 21
    endloop
  endfacet
  facet normal 0 0 1
    outer loop
      vertex -84.927 -1.76336 21
      vertex -89.1489 -3.84062 21
      vertex -88.8815 -4.40877 21
    endloop
  endfacet
  facet normal 0 0 1
    outer loop
      vertex -85.1289 -1.44526 21
      vertex -89.3429 -3.24345 21
      vertex -89.1489 -3.84062 21
    endloop
  endfacet
  facet normal 0 0 1
    outer loop
      vertex -85.1289 -1.44526 21
      vertex -89.4606 -2.62667 21
      vertex -89.3429 -3.24345 21
    endloop
  endfacet
  facet normal 0.951071 -0.308971 0
    outer loop
      vertex -85.4057 0.746069 21
      vertex -85.2893 1.10437 0
      vertex -85.2893 1.10437 21
    endloop
  endfacet
  facet normal 0.951071 -0.308971 0
    outer loop
      vertex -85.2893 1.10437 0
      vertex -85.4057 0.746069 21
      vertex -85.4057 0.746069 0
    endloop
  endfacet
  facet normal 0.844295 -0.535879 0
    outer loop
      vertex -85.1289 1.44526 21
      vertex -84.927 1.76336 0
      vertex -84.927 1.76336 21
    endloop
  endfacet
  facet normal 0.844295 -0.535879 0
    outer loop
      vertex -84.927 1.76336 0
      vertex -85.1289 1.44526 21
      vertex -85.1289 1.44526 0
    endloop
  endfacet
  facet normal 0.125361 -0.992111 0
    outer loop
      vertex -83.0621 2.94686 0
      vertex -82.6884 2.99408 21
      vertex -83.0621 2.94686 21
    endloop
  endfacet
  facet normal 0.125361 -0.992111 0
    outer loop
      vertex -82.6884 2.99408 21
      vertex -83.0621 2.94686 0
      vertex -82.6884 2.99408 0
    endloop
  endfacet
  facet normal 0.587768 -0.80903 0
    outer loop
      vertex -84.4123 2.31154 0
      vertex -84.1075 2.53298 21
      vertex -84.4123 2.31154 21
    endloop
  endfacet
  facet normal 0.587768 -0.80903 0
    outer loop
      vertex -84.1075 2.53298 21
      vertex -84.4123 2.31154 0
      vertex -84.1075 2.53298 0
    endloop
  endfacet
  facet normal 0.481695 -0.876339 0
    outer loop
      vertex -84.1075 2.53298 0
      vertex -83.7773 2.71448 21
      vertex -84.1075 2.53298 21
    endloop
  endfacet
  facet normal 0.481695 -0.876339 0
    outer loop
      vertex -83.7773 2.71448 21
      vertex -84.1075 2.53298 0
      vertex -83.7773 2.71448 0
    endloop
  endfacet
  facet normal -0.998019 0.0629072 0
    outer loop
      vertex -79.5237 -0.375999 0
      vertex -79.5 0 21
      vertex -79.5 0 0
    endloop
  endfacet
  facet normal -0.998019 0.0629072 0
    outer loop
      vertex -79.5 0 21
      vertex -79.5237 -0.375999 0
      vertex -79.5237 -0.375999 21
    endloop
  endfacet
  facet normal 0 1 -0
    outer loop
      vertex -82.3116 -2.99408 0
      vertex -82.6884 -2.99408 21
      vertex -82.3116 -2.99408 21
    endloop
  endfacet
  facet normal 0 1 0
    outer loop
      vertex -82.6884 -2.99408 21
      vertex -82.3116 -2.99408 0
      vertex -82.6884 -2.99408 0
    endloop
  endfacet
  facet normal 0 0 -1
    outer loop
      vertex 84.8139 -6.99013 0
      vertex 89.5 -2 0
      vertex 89.4606 -2.62667 0
    endloop
  endfacet
  facet normal -0 0 -1
    outer loop
      vertex 89.5 -2 0
      vertex 84.8139 -6.99013 0
      vertex 89.5 2 0
    endloop
  endfacet
  facet normal 0 0 -1
    outer loop
      vertex 84.8139 -6.99013 0
      vertex 89.4606 -2.62667 0
      vertex 89.3429 -3.24345 0
    endloop
  endfacet
  facet normal 0 0 -1
    outer loop
      vertex 84.8139 6.99013 0
      vertex 89.5 2 0
      vertex 84.8139 -6.99013 0
    endloop
  endfacet
  facet normal 0 0 -1
    outer loop
      vertex 84.8139 -6.99013 0
      vertex 89.3429 -3.24345 0
      vertex 89.1489 -3.84062 0
    endloop
  endfacet
  facet normal 0 0 -1
    outer loop
      vertex 89.5 2 0
      vertex 84.8139 6.99013 0
      vertex 89.4606 2.62667 0
    endloop
  endfacet
  facet normal 0 0 -1
    outer loop
      vertex 84.8139 -6.99013 0
      vertex 89.1489 -3.84062 0
      vertex 88.8815 -4.40877 0
    endloop
  endfacet
  facet normal 0 0 -1
    outer loop
      vertex 89.4606 2.62667 0
      vertex 84.8139 6.99013 0
      vertex 89.3429 3.24345 0
    endloop
  endfacet
  facet normal 0 0 -1
    outer loop
      vertex 84.8139 -6.99013 0
      vertex 88.8815 -4.40877 0
      vertex 88.5451 -4.93893 0
    endloop
  endfacet
  facet normal 0 0 -1
    outer loop
      vertex 89.3429 3.24345 0
      vertex 84.8139 6.99013 0
      vertex 89.1489 3.84062 0
    endloop
  endfacet
  facet normal 0 0 -1
    outer loop
      vertex 84.8139 -6.99013 0
      vertex 88.5451 -4.93893 0
      vertex 88.1448 -5.42274 0
    endloop
  endfacet
  facet normal 0 0 -1
    outer loop
      vertex 89.1489 3.84062 0
      vertex 84.8139 6.99013 0
      vertex 88.8815 4.40877 0
    endloop
  endfacet
  facet normal 0 0 -1
    outer loop
      vertex 84.8139 -6.99013 0
      vertex 88.1448 -5.42274 0
      vertex 87.6871 -5.85257 0
    endloop
  endfacet
  facet normal 0 0 -1
    outer loop
      vertex 88.8815 4.40877 0
      vertex 84.8139 6.99013 0
      vertex 88.5451 4.93893 0
    endloop
  endfacet
  facet normal 0 0 -1
    outer loop
      vertex 84.8139 -6.99013 0
      vertex 87.6871 -5.85257 0
      vertex 87.1791 -6.22164 0
    endloop
  endfacet
  facet normal 0 0 -1
    outer loop
      vertex 88.5451 4.93893 0
      vertex 84.8139 6.99013 0
      vertex 88.1448 5.42274 0
    endloop
  endfacet
  facet normal 0 0 -1
    outer loop
      vertex 84.8139 -6.99013 0
      vertex 87.1791 -6.22164 0
      vertex 86.6289 -6.52413 0
    endloop
  endfacet
  facet normal 0 0 -1
    outer loop
      vertex 88.1448 5.42274 0
      vertex 84.8139 6.99013 0
      vertex 87.6871 5.85257 0
    endloop
  endfacet
  facet normal 0 0 -1
    outer loop
      vertex 84.8139 -6.99013 0
      vertex 86.6289 -6.52413 0
      vertex 86.0451 -6.75528 0
    endloop
  endfacet
  facet normal 0 0 -1
    outer loop
      vertex 87.6871 5.85257 0
      vertex 84.8139 6.99013 0
      vertex 87.1791 6.22164 0
    endloop
  endfacet
  facet normal 0 0 -1
    outer loop
      vertex 84.8139 -6.99013 0
      vertex 86.0451 -6.75528 0
      vertex 85.4369 -6.91144 0
    endloop
  endfacet
  facet normal 0 0 -1
    outer loop
      vertex 87.1791 6.22164 0
      vertex 84.8139 6.99013 0
      vertex 86.6289 6.52413 0
    endloop
  endfacet
  facet normal 0 0 -1
    outer loop
      vertex 86.6289 6.52413 0
      vertex 84.8139 6.99013 0
      vertex 86.0451 6.75528 0
    endloop
  endfacet
  facet normal 0 0 -1
    outer loop
      vertex 86.0451 6.75528 0
      vertex 84.8139 6.99013 0
      vertex 85.4369 6.91144 0
    endloop
  endfacet
  facet normal 0 0 -1
    outer loop
      vertex 84.8139 -6.99013 0
      vertex -79.5 0 0
      vertex 84.8139 6.99013 0
    endloop
  endfacet
  facet normal 0 0 -1
    outer loop
      vertex 84.8139 -6.99013 0
      vertex -79.5237 -0.375999 0
      vertex -79.5 0 0
    endloop
  endfacet
  facet normal 0 0 -1
    outer loop
      vertex 84.8139 -6.99013 0
      vertex -79.5943 -0.746069 0
      vertex -79.5237 -0.375999 0
    endloop
  endfacet
  facet normal 0 0 -1
    outer loop
      vertex 84.8139 -6.99013 0
      vertex -79.7107 -1.10437 0
      vertex -79.5943 -0.746069 0
    endloop
  endfacet
  facet normal 0 0 -1
    outer loop
      vertex 84.8139 -6.99013 0
      vertex -79.8711 -1.44526 0
      vertex -79.7107 -1.10437 0
    endloop
  endfacet
  facet normal 0 0 -1
    outer loop
      vertex 84.8139 -6.99013 0
      vertex -80.073 -1.76336 0
      vertex -79.8711 -1.44526 0
    endloop
  endfacet
  facet normal 0 0 -1
    outer loop
      vertex 84.8139 -6.99013 0
      vertex -80.3131 -2.05364 0
      vertex -80.073 -1.76336 0
    endloop
  endfacet
  facet normal 0 0 -1
    outer loop
      vertex -84.8139 -6.99013 0
      vertex -80.3131 -2.05364 0
      vertex 84.8139 -6.99013 0
    endloop
  endfacet
  facet normal 0 0 -1
    outer loop
      vertex -80.3131 -2.05364 0
      vertex -84.8139 -6.99013 0
      vertex -80.5877 -2.31154 0
    endloop
  endfacet
  facet normal 0 0 -1
    outer loop
      vertex -80.5877 -2.31154 0
      vertex -84.8139 -6.99013 0
      vertex -80.8925 -2.53298 0
    endloop
  endfacet
  facet normal 0 0 -1
    outer loop
      vertex -80.8925 -2.53298 0
      vertex -84.8139 -6.99013 0
      vertex -81.2227 -2.71448 0
    endloop
  endfacet
  facet normal 0 0 -1
    outer loop
      vertex -81.2227 -2.71448 0
      vertex -84.8139 -6.99013 0
      vertex -81.573 -2.85317 0
    endloop
  endfacet
  facet normal 0 0 -1
    outer loop
      vertex -81.573 -2.85317 0
      vertex -84.8139 -6.99013 0
      vertex -81.9379 -2.94686 0
    endloop
  endfacet
  facet normal 0 0 -1
    outer loop
      vertex -81.9379 -2.94686 0
      vertex -84.8139 -6.99013 0
      vertex -82.3116 -2.99408 0
    endloop
  endfacet
  facet normal -0 0 -1
    outer loop
      vertex -82.3116 -2.99408 0
      vertex -84.8139 -6.99013 0
      vertex -82.6884 -2.99408 0
    endloop
  endfacet
  facet normal 0 0 -1
    outer loop
      vertex -84.8139 -6.99013 0
      vertex -83.0621 -2.94686 0
      vertex -82.6884 -2.99408 0
    endloop
  endfacet
  facet normal 0 0 -1
    outer loop
      vertex -84.8139 -6.99013 0
      vertex -83.427 -2.85317 0
      vertex -83.0621 -2.94686 0
    endloop
  endfacet
  facet normal 0 0 -1
    outer loop
      vertex -84.8139 -6.99013 0
      vertex -83.7773 -2.71448 0
      vertex -83.427 -2.85317 0
    endloop
  endfacet
  facet normal 0 0 -1
    outer loop
      vertex -85.4369 -6.91144 0
      vertex -83.7773 -2.71448 0
      vertex -84.8139 -6.99013 0
    endloop
  endfacet
  facet normal -0 0 -1
    outer loop
      vertex -83.7773 -2.71448 0
      vertex -85.4369 -6.91144 0
      vertex -84.1075 -2.53298 0
    endloop
  endfacet
  facet normal 0 0 -1
    outer loop
      vertex -86.0451 -6.75528 0
      vertex -84.1075 -2.53298 0
      vertex -85.4369 -6.91144 0
    endloop
  endfacet
  facet normal 0 0 -1
    outer loop
      vertex -86.6289 -6.52413 0
      vertex -84.1075 -2.53298 0
      vertex -86.0451 -6.75528 0
    endloop
  endfacet
  facet normal -0 0 -1
    outer loop
      vertex -84.1075 -2.53298 0
      vertex -86.6289 -6.52413 0
      vertex -84.4123 -2.31154 0
    endloop
  endfacet
  facet normal 0 0 -1
    outer loop
      vertex -87.1791 -6.22164 0
      vertex -84.4123 -2.31154 0
      vertex -86.6289 -6.52413 0
    endloop
  endfacet
  facet normal 0 0 -1
    outer loop
      vertex -87.6871 -5.85257 0
      vertex -84.4123 -2.31154 0
      vertex -87.1791 -6.22164 0
    endloop
  endfacet
  facet normal -0 0 -1
    outer loop
      vertex -84.4123 -2.31154 0
      vertex -87.6871 -5.85257 0
      vertex -84.6869 -2.05364 0
    endloop
  endfacet
  facet normal 0 0 -1
    outer loop
      vertex -88.1448 -5.42274 0
      vertex -84.6869 -2.05364 0
      vertex -87.6871 -5.85257 0
    endloop
  endfacet
  facet normal 0 0 -1
    outer loop
      vertex -88.5451 -4.93893 0
      vertex -84.6869 -2.05364 0
      vertex -88.1448 -5.42274 0
    endloop
  endfacet
  facet normal -0 0 -1
    outer loop
      vertex -84.6869 -2.05364 0
      vertex -88.5451 -4.93893 0
      vertex -84.927 -1.76336 0
    endloop
  endfacet
  facet normal 0 0 -1
    outer loop
      vertex -79.5237 0.375999 0
      vertex 84.8139 6.99013 0
      vertex -79.5 0 0
    endloop
  endfacet
  facet normal 0 0 -1
    outer loop
      vertex -79.5943 0.746069 0
      vertex 84.8139 6.99013 0
      vertex -79.5237 0.375999 0
    endloop
  endfacet
  facet normal 0 0 -1
    outer loop
      vertex -79.7107 1.10437 0
      vertex 84.8139 6.99013 0
      vertex -79.5943 0.746069 0
    endloop
  endfacet
  facet normal 0 0 -1
    outer loop
      vertex -79.8711 1.44526 0
      vertex 84.8139 6.99013 0
      vertex -79.7107 1.10437 0
    endloop
  endfacet
  facet normal 0 0 -1
    outer loop
      vertex -80.073 1.76336 0
      vertex 84.8139 6.99013 0
      vertex -79.8711 1.44526 0
    endloop
  endfacet
  facet normal 0 0 -1
    outer loop
      vertex -80.3131 2.05364 0
      vertex 84.8139 6.99013 0
      vertex -80.073 1.76336 0
    endloop
  endfacet
  facet normal 0 0 -1
    outer loop
      vertex -84.8139 6.99013 0
      vertex -80.3131 2.05364 0
      vertex -80.5877 2.31154 0
    endloop
  endfacet
  facet normal 0 0 -1
    outer loop
      vertex -84.8139 6.99013 0
      vertex -80.5877 2.31154 0
      vertex -80.8925 2.53298 0
    endloop
  endfacet
  facet normal 0 0 -1
    outer loop
      vertex -84.8139 6.99013 0
      vertex -80.8925 2.53298 0
      vertex -81.2227 2.71448 0
    endloop
  endfacet
  facet normal 0 0 -1
    outer loop
      vertex -84.8139 6.99013 0
      vertex -81.2227 2.71448 0
      vertex -81.573 2.85317 0
    endloop
  endfacet
  facet normal 0 0 -1
    outer loop
      vertex -84.8139 6.99013 0
      vertex -81.573 2.85317 0
      vertex -81.9379 2.94686 0
    endloop
  endfacet
  facet normal 0 0 -1
    outer loop
      vertex -84.8139 6.99013 0
      vertex -81.9379 2.94686 0
      vertex -82.3116 2.99408 0
    endloop
  endfacet
  facet normal 0 0 -1
    outer loop
      vertex -84.8139 6.99013 0
      vertex -82.3116 2.99408 0
      vertex -82.6884 2.99408 0
    endloop
  endfacet
  facet normal 0 0 -1
    outer loop
      vertex -80.3131 2.05364 0
      vertex -84.8139 6.99013 0
      vertex 84.8139 6.99013 0
    endloop
  endfacet
  facet normal 0 0 -1
    outer loop
      vertex -83.0621 2.94686 0
      vertex -84.8139 6.99013 0
      vertex -82.6884 2.99408 0
    endloop
  endfacet
  facet normal 0 0 -1
    outer loop
      vertex -83.427 2.85317 0
      vertex -84.8139 6.99013 0
      vertex -83.0621 2.94686 0
    endloop
  endfacet
  facet normal 0 0 -1
    outer loop
      vertex -83.7773 2.71448 0
      vertex -84.8139 6.99013 0
      vertex -83.427 2.85317 0
    endloop
  endfacet
  facet normal 0 0 -1
    outer loop
      vertex -85.4369 6.91144 0
      vertex -83.7773 2.71448 0
      vertex -84.1075 2.53298 0
    endloop
  endfacet
  facet normal 0 0 -1
    outer loop
      vertex -86.6289 6.52413 0
      vertex -84.1075 2.53298 0
      vertex -84.4123 2.31154 0
    endloop
  endfacet
  facet normal 0 0 -1
    outer loop
      vertex -87.6871 5.85257 0
      vertex -84.4123 2.31154 0
      vertex -84.6869 2.05364 0
    endloop
  endfacet
  facet normal 0 0 -1
    outer loop
      vertex -88.5451 4.93893 0
      vertex -84.6869 2.05364 0
      vertex -84.927 1.76336 0
    endloop
  endfacet
  facet normal 0 0 -1
    outer loop
      vertex -89.1489 3.84062 0
      vertex -84.927 1.76336 0
      vertex -85.1289 1.44526 0
    endloop
  endfacet
  facet normal 0 0 -1
    outer loop
      vertex -89.4606 2.62667 0
      vertex -85.1289 1.44526 0
      vertex -85.2893 1.10437 0
    endloop
  endfacet
  facet normal 0 0 -1
    outer loop
      vertex -89.5 2 0
      vertex -85.2893 1.10437 0
      vertex -85.4057 0.746069 0
    endloop
  endfacet
  facet normal 0 0 -1
    outer loop
      vertex -83.7773 2.71448 0
      vertex -85.4369 6.91144 0
      vertex -84.8139 6.99013 0
    endloop
  endfacet
  facet normal 0 0 -1
    outer loop
      vertex -89.5 2 0
      vertex -85.4057 0.746069 0
      vertex -85.4763 0.375999 0
    endloop
  endfacet
  facet normal 0 0 -1
    outer loop
      vertex -89.5 2 0
      vertex -85.4763 0.375999 0
      vertex -85.5 0 0
    endloop
  endfacet
  facet normal 0 0 -1
    outer loop
      vertex -88.8815 -4.40877 0
      vertex -84.927 -1.76336 0
      vertex -88.5451 -4.93893 0
    endloop
  endfacet
  facet normal 0 0 -1
    outer loop
      vertex -89.5 2 0
      vertex -85.5 0 0
      vertex -89.5 -2 0
    endloop
  endfacet
  facet normal 0 0 -1
    outer loop
      vertex -89.1489 -3.84062 0
      vertex -84.927 -1.76336 0
      vertex -88.8815 -4.40877 0
    endloop
  endfacet
  facet normal 0 0 -1
    outer loop
      vertex -85.2893 1.10437 0
      vertex -89.5 2 0
      vertex -89.4606 2.62667 0
    endloop
  endfacet
  facet normal -0 0 -1
    outer loop
      vertex -84.927 -1.76336 0
      vertex -89.1489 -3.84062 0
      vertex -85.1289 -1.44526 0
    endloop
  endfacet
  facet normal 0 0 -1
    outer loop
      vertex -84.1075 2.53298 0
      vertex -86.0451 6.75528 0
      vertex -85.4369 6.91144 0
    endloop
  endfacet
  facet normal 0 0 -1
    outer loop
      vertex -89.3429 -3.24345 0
      vertex -85.1289 -1.44526 0
      vertex -89.1489 -3.84062 0
    endloop
  endfacet
  facet normal 0 0 -1
    outer loop
      vertex -84.1075 2.53298 0
      vertex -86.6289 6.52413 0
      vertex -86.0451 6.75528 0
    endloop
  endfacet
  facet normal 0 0 -1
    outer loop
      vertex -89.4606 -2.62667 0
      vertex -85.1289 -1.44526 0
      vertex -89.3429 -3.24345 0
    endloop
  endfacet
  facet normal 0 0 -1
    outer loop
      vertex -84.4123 2.31154 0
      vertex -87.1791 6.22164 0
      vertex -86.6289 6.52413 0
    endloop
  endfacet
  facet normal -0 0 -1
    outer loop
      vertex -85.1289 -1.44526 0
      vertex -89.4606 -2.62667 0
      vertex -85.2893 -1.10437 0
    endloop
  endfacet
  facet normal 0 0 -1
    outer loop
      vertex -84.4123 2.31154 0
      vertex -87.6871 5.85257 0
      vertex -87.1791 6.22164 0
    endloop
  endfacet
  facet normal 0 0 -1
    outer loop
      vertex -89.5 -2 0
      vertex -85.2893 -1.10437 0
      vertex -89.4606 -2.62667 0
    endloop
  endfacet
  facet normal 0 0 -1
    outer loop
      vertex -84.6869 2.05364 0
      vertex -88.1448 5.42274 0
      vertex -87.6871 5.85257 0
    endloop
  endfacet
  facet normal -0 0 -1
    outer loop
      vertex -85.2893 -1.10437 0
      vertex -89.5 -2 0
      vertex -85.4057 -0.746069 0
    endloop
  endfacet
  facet normal 0 0 -1
    outer loop
      vertex -84.6869 2.05364 0
      vertex -88.5451 4.93893 0
      vertex -88.1448 5.42274 0
    endloop
  endfacet
  facet normal -0 0 -1
    outer loop
      vertex -85.4057 -0.746069 0
      vertex -89.5 -2 0
      vertex -85.4763 -0.375999 0
    endloop
  endfacet
  facet normal 0 0 -1
    outer loop
      vertex -84.927 1.76336 0
      vertex -88.8815 4.40877 0
      vertex -88.5451 4.93893 0
    endloop
  endfacet
  facet normal -0 0 -1
    outer loop
      vertex -85.4763 -0.375999 0
      vertex -89.5 -2 0
      vertex -85.5 0 0
    endloop
  endfacet
  facet normal 0 0 -1
    outer loop
      vertex -84.927 1.76336 0
      vertex -89.1489 3.84062 0
      vertex -88.8815 4.40877 0
    endloop
  endfacet
  facet normal 0 0 -1
    outer loop
      vertex -85.1289 1.44526 0
      vertex -89.3429 3.24345 0
      vertex -89.1489 3.84062 0
    endloop
  endfacet
  facet normal 0 0 -1
    outer loop
      vertex -85.1289 1.44526 0
      vertex -89.4606 2.62667 0
      vertex -89.3429 3.24345 0
    endloop
  endfacet
  facet normal 0.844295 0.535879 0
    outer loop
      vertex -84.927 -1.76336 21
      vertex -85.1289 -1.44526 0
      vertex -85.1289 -1.44526 21
    endloop
  endfacet
  facet normal 0.844295 0.535879 0
    outer loop
      vertex -85.1289 -1.44526 0
      vertex -84.927 -1.76336 21
      vertex -84.927 -1.76336 0
    endloop
  endfacet
  facet normal -0.125361 0.992111 0
    outer loop
      vertex -81.9379 -2.94686 0
      vertex -82.3116 -2.99408 21
      vertex -81.9379 -2.94686 21
    endloop
  endfacet
  facet normal -0.125361 0.992111 0
    outer loop
      vertex -82.3116 -2.99408 21
      vertex -81.9379 -2.94686 0
      vertex -82.3116 -2.99408 0
    endloop
  endfacet
  facet normal -0.368116 0.92978 0
    outer loop
      vertex -81.2227 -2.71448 0
      vertex -81.573 -2.85317 21
      vertex -81.2227 -2.71448 21
    endloop
  endfacet
  facet normal -0.368116 0.92978 0
    outer loop
      vertex -81.573 -2.85317 21
      vertex -81.2227 -2.71448 0
      vertex -81.573 -2.85317 0
    endloop
  endfacet
  facet normal -0.904838 -0.425756 0
    outer loop
      vertex -79.7107 1.10437 0
      vertex -79.8711 1.44526 21
      vertex -79.8711 1.44526 0
    endloop
  endfacet
  facet normal -0.904838 -0.425756 0
    outer loop
      vertex -79.8711 1.44526 21
      vertex -79.7107 1.10437 0
      vertex -79.7107 1.10437 21
    endloop
  endfacet
  facet normal -0.951071 -0.308971 0
    outer loop
      vertex -79.5943 0.746069 0
      vertex -79.7107 1.10437 21
      vertex -79.7107 1.10437 0
    endloop
  endfacet
  facet normal -0.951071 -0.308971 0
    outer loop
      vertex -79.7107 1.10437 21
      vertex -79.5943 0.746069 0
      vertex -79.5943 0.746069 21
    endloop
  endfacet
  facet normal -0.982285 -0.187395 0
    outer loop
      vertex -79.5237 0.375999 0
      vertex -79.5943 0.746069 21
      vertex -79.5943 0.746069 0
    endloop
  endfacet
  facet normal -0.982285 -0.187395 0
    outer loop
      vertex -79.5943 0.746069 21
      vertex -79.5237 0.375999 0
      vertex -79.5237 0.375999 21
    endloop
  endfacet
  facet normal -0.904838 0.425756 0
    outer loop
      vertex -79.8711 -1.44526 0
      vertex -79.7107 -1.10437 21
      vertex -79.7107 -1.10437 0
    endloop
  endfacet
  facet normal -0.904838 0.425756 0
    outer loop
      vertex -79.7107 -1.10437 21
      vertex -79.8711 -1.44526 0
      vertex -79.8711 -1.44526 21
    endloop
  endfacet
  facet normal -0.951071 0.308971 0
    outer loop
      vertex -79.7107 -1.10437 0
      vertex -79.5943 -0.746069 21
      vertex -79.5943 -0.746069 0
    endloop
  endfacet
  facet normal -0.951071 0.308971 0
    outer loop
      vertex -79.5943 -0.746069 21
      vertex -79.7107 -1.10437 0
      vertex -79.7107 -1.10437 21
    endloop
  endfacet
  facet normal -0.684594 0.728924 0
    outer loop
      vertex -80.3131 -2.05364 0
      vertex -80.5877 -2.31154 21
      vertex -80.3131 -2.05364 21
    endloop
  endfacet
  facet normal -0.684594 0.728924 0
    outer loop
      vertex -80.5877 -2.31154 21
      vertex -80.3131 -2.05364 0
      vertex -80.5877 -2.31154 0
    endloop
  endfacet
  facet normal -0.770566 0.63736 0
    outer loop
      vertex -80.3131 -2.05364 0
      vertex -80.073 -1.76336 21
      vertex -80.073 -1.76336 0
    endloop
  endfacet
  facet normal -0.770566 0.63736 0
    outer loop
      vertex -80.073 -1.76336 21
      vertex -80.3131 -2.05364 0
      vertex -80.3131 -2.05364 21
    endloop
  endfacet
  facet normal -0.844295 0.535879 0
    outer loop
      vertex -80.073 -1.76336 0
      vertex -79.8711 -1.44526 21
      vertex -79.8711 -1.44526 0
    endloop
  endfacet
  facet normal -0.844295 0.535879 0
    outer loop
      vertex -79.8711 -1.44526 21
      vertex -80.073 -1.76336 0
      vertex -80.073 -1.76336 21
    endloop
  endfacet
  facet normal 0.904838 0.425756 0
    outer loop
      vertex -85.1289 -1.44526 21
      vertex -85.2893 -1.10437 0
      vertex -85.2893 -1.10437 21
    endloop
  endfacet
  facet normal 0.904838 0.425756 0
    outer loop
      vertex -85.2893 -1.10437 0
      vertex -85.1289 -1.44526 21
      vertex -85.1289 -1.44526 0
    endloop
  endfacet
  facet normal 0.684594 0.728924 -0
    outer loop
      vertex -84.4123 -2.31154 0
      vertex -84.6869 -2.05364 21
      vertex -84.4123 -2.31154 21
    endloop
  endfacet
  facet normal 0.684594 0.728924 0
    outer loop
      vertex -84.6869 -2.05364 21
      vertex -84.4123 -2.31154 0
      vertex -84.6869 -2.05364 0
    endloop
  endfacet
  facet normal -0.248689 0.968583 0
    outer loop
      vertex -81.573 -2.85317 0
      vertex -81.9379 -2.94686 21
      vertex -81.573 -2.85317 21
    endloop
  endfacet
  facet normal -0.248689 0.968583 0
    outer loop
      vertex -81.9379 -2.94686 21
      vertex -81.573 -2.85317 0
      vertex -81.9379 -2.94686 0
    endloop
  endfacet
  facet normal -0.587768 0.80903 0
    outer loop
      vertex -80.5877 -2.31154 0
      vertex -80.8925 -2.53298 21
      vertex -80.5877 -2.31154 21
    endloop
  endfacet
  facet normal -0.587768 0.80903 0
    outer loop
      vertex -80.8925 -2.53298 21
      vertex -80.5877 -2.31154 0
      vertex -80.8925 -2.53298 0
    endloop
  endfacet
  facet normal 0.587768 0.80903 -0
    outer loop
      vertex -84.1075 -2.53298 0
      vertex -84.4123 -2.31154 21
      vertex -84.1075 -2.53298 21
    endloop
  endfacet
  facet normal 0.587768 0.80903 0
    outer loop
      vertex -84.4123 -2.31154 21
      vertex -84.1075 -2.53298 0
      vertex -84.4123 -2.31154 0
    endloop
  endfacet
  facet normal 0.248689 0.968583 -0
    outer loop
      vertex -83.0621 -2.94686 0
      vertex -83.427 -2.85317 21
      vertex -83.0621 -2.94686 21
    endloop
  endfacet
  facet normal 0.248689 0.968583 0
    outer loop
      vertex -83.427 -2.85317 21
      vertex -83.0621 -2.94686 0
      vertex -83.427 -2.85317 0
    endloop
  endfacet
  facet normal 0.125361 0.992111 -0
    outer loop
      vertex -82.6884 -2.99408 0
      vertex -83.0621 -2.94686 21
      vertex -82.6884 -2.99408 21
    endloop
  endfacet
  facet normal 0.125361 0.992111 0
    outer loop
      vertex -83.0621 -2.94686 21
      vertex -82.6884 -2.99408 0
      vertex -83.0621 -2.94686 0
    endloop
  endfacet
  facet normal 0.998019 0.0629072 0
    outer loop
      vertex -85.4763 -0.375999 21
      vertex -85.5 0 0
      vertex -85.5 0 21
    endloop
  endfacet
  facet normal 0.998019 0.0629072 0
    outer loop
      vertex -85.5 0 0
      vertex -85.4763 -0.375999 21
      vertex -85.4763 -0.375999 0
    endloop
  endfacet
  facet normal 0.481695 0.876339 -0
    outer loop
      vertex -83.7773 -2.71448 0
      vertex -84.1075 -2.53298 21
      vertex -83.7773 -2.71448 21
    endloop
  endfacet
  facet normal 0.481695 0.876339 0
    outer loop
      vertex -84.1075 -2.53298 21
      vertex -83.7773 -2.71448 0
      vertex -84.1075 -2.53298 0
    endloop
  endfacet
  facet normal 0.951071 0.308971 0
    outer loop
      vertex -85.2893 -1.10437 21
      vertex -85.4057 -0.746069 0
      vertex -85.4057 -0.746069 21
    endloop
  endfacet
  facet normal 0.951071 0.308971 0
    outer loop
      vertex -85.4057 -0.746069 0
      vertex -85.2893 -1.10437 21
      vertex -85.2893 -1.10437 0
    endloop
  endfacet
  facet normal 0.982285 0.187395 0
    outer loop
      vertex -85.4057 -0.746069 21
      vertex -85.4763 -0.375999 0
      vertex -85.4763 -0.375999 21
    endloop
  endfacet
  facet normal 0.982285 0.187395 0
    outer loop
      vertex -85.4763 -0.375999 0
      vertex -85.4057 -0.746069 21
      vertex -85.4057 -0.746069 0
    endloop
  endfacet
  facet normal 0.770566 0.63736 0
    outer loop
      vertex -84.6869 -2.05364 21
      vertex -84.927 -1.76336 0
      vertex -84.927 -1.76336 21
    endloop
  endfacet
  facet normal 0.770566 0.63736 0
    outer loop
      vertex -84.927 -1.76336 0
      vertex -84.6869 -2.05364 21
      vertex -84.6869 -2.05364 0
    endloop
  endfacet
  facet normal 0.368116 0.92978 -0
    outer loop
      vertex -83.427 -2.85317 0
      vertex -83.7773 -2.71448 21
      vertex -83.427 -2.85317 21
    endloop
  endfacet
  facet normal 0.368116 0.92978 0
    outer loop
      vertex -83.7773 -2.71448 21
      vertex -83.427 -2.85317 0
      vertex -83.7773 -2.71448 0
    endloop
  endfacet
  facet normal -1 0 0
    outer loop
      vertex -89.5 -2 0
      vertex -89.5 2 21
      vertex -89.5 2 0
    endloop
  endfacet
  facet normal -1 -0 0
    outer loop
      vertex -89.5 2 21
      vertex -89.5 -2 0
      vertex -89.5 -2 21
    endloop
  endfacet
  facet normal -0.998029 -0.0627481 0
    outer loop
      vertex -89.4606 -2.62667 0
      vertex -89.5 -2 21
      vertex -89.5 -2 0
    endloop
  endfacet
  facet normal -0.998029 -0.0627481 0
    outer loop
      vertex -89.5 -2 21
      vertex -89.4606 -2.62667 0
      vertex -89.4606 -2.62667 21
    endloop
  endfacet
  facet normal 0 1 -0
    outer loop
      vertex 84.8139 6.99013 0
      vertex -84.8139 6.99013 21
      vertex 84.8139 6.99013 21
    endloop
  endfacet
  facet normal 0 1 0
    outer loop
      vertex -84.8139 6.99013 21
      vertex 84.8139 6.99013 0
      vertex -84.8139 6.99013 0
    endloop
  endfacet
  facet normal 0 -1 0
    outer loop
      vertex -84.8139 -6.99013 0
      vertex 84.8139 -6.99013 21
      vertex -84.8139 -6.99013 21
    endloop
  endfacet
  facet normal 0 -1 -0
    outer loop
      vertex 84.8139 -6.99013 21
      vertex -84.8139 -6.99013 0
      vertex 84.8139 -6.99013 0
    endloop
  endfacet
  facet normal -0.998029 0.0627481 0
    outer loop
      vertex -89.5 2 0
      vertex -89.4606 2.62667 21
      vertex -89.4606 2.62667 0
    endloop
  endfacet
  facet normal -0.998029 0.0627481 0
    outer loop
      vertex -89.4606 2.62667 21
      vertex -89.5 2 0
      vertex -89.5 2 21
    endloop
  endfacet
  facet normal 0.904797 -0.425843 0
    outer loop
      vertex 88.8815 -4.40877 21
      vertex 89.1489 -3.84062 0
      vertex 89.1489 -3.84062 21
    endloop
  endfacet
  facet normal 0.904797 -0.425843 0
    outer loop
      vertex 89.1489 -3.84062 0
      vertex 88.8815 -4.40877 21
      vertex 88.8815 -4.40877 0
    endloop
  endfacet
  facet normal -0.770468 0.637478 0
    outer loop
      vertex -88.5451 4.93893 0
      vertex -88.1448 5.42274 21
      vertex -88.1448 5.42274 0
    endloop
  endfacet
  facet normal -0.770468 0.637478 0
    outer loop
      vertex -88.1448 5.42274 21
      vertex -88.5451 4.93893 0
      vertex -88.5451 4.93893 21
    endloop
  endfacet
  facet normal -0.368135 -0.929773 0
    outer loop
      vertex -86.6289 -6.52413 0
      vertex -86.0451 -6.75528 21
      vertex -86.6289 -6.52413 21
    endloop
  endfacet
  facet normal -0.368135 -0.929773 -0
    outer loop
      vertex -86.0451 -6.75528 21
      vertex -86.6289 -6.52413 0
      vertex -86.0451 -6.75528 0
    endloop
  endfacet
  facet normal -0.125313 -0.992117 0
    outer loop
      vertex -85.4369 -6.91144 0
      vertex -84.8139 -6.99013 21
      vertex -85.4369 -6.91144 21
    endloop
  endfacet
  facet normal -0.125313 -0.992117 -0
    outer loop
      vertex -84.8139 -6.99013 21
      vertex -85.4369 -6.91144 0
      vertex -84.8139 -6.99013 0
    endloop
  endfacet
  facet normal -0.481772 -0.876297 0
    outer loop
      vertex -87.1791 -6.22164 0
      vertex -86.6289 -6.52413 21
      vertex -87.1791 -6.22164 21
    endloop
  endfacet
  facet normal -0.481772 -0.876297 -0
    outer loop
      vertex -86.6289 -6.52413 21
      vertex -87.1791 -6.22164 0
      vertex -86.6289 -6.52413 0
    endloop
  endfacet
  facet normal -0.684565 -0.728952 0
    outer loop
      vertex -88.1448 -5.42274 0
      vertex -87.6871 -5.85257 21
      vertex -88.1448 -5.42274 21
    endloop
  endfacet
  facet normal -0.684565 -0.728952 -0
    outer loop
      vertex -87.6871 -5.85257 21
      vertex -88.1448 -5.42274 0
      vertex -87.6871 -5.85257 0
    endloop
  endfacet
  facet normal 1 -0 0
    outer loop
      vertex 89.5 -2 21
      vertex 89.5 2 0
      vertex 89.5 2 21
    endloop
  endfacet
  facet normal 1 0 0
    outer loop
      vertex 89.5 2 0
      vertex 89.5 -2 21
      vertex 89.5 -2 0
    endloop
  endfacet
  facet normal 0.951072 -0.30897 0
    outer loop
      vertex 89.1489 -3.84062 21
      vertex 89.3429 -3.24345 0
      vertex 89.3429 -3.24345 21
    endloop
  endfacet
  facet normal 0.951072 -0.30897 0
    outer loop
      vertex 89.3429 -3.24345 0
      vertex 89.1489 -3.84062 21
      vertex 89.1489 -3.84062 0
    endloop
  endfacet
  facet normal 0.481772 -0.876297 0
    outer loop
      vertex 86.6289 -6.52413 0
      vertex 87.1791 -6.22164 21
      vertex 86.6289 -6.52413 21
    endloop
  endfacet
  facet normal 0.481772 -0.876297 0
    outer loop
      vertex 87.1791 -6.22164 21
      vertex 86.6289 -6.52413 0
      vertex 87.1791 -6.22164 0
    endloop
  endfacet
  facet normal 0.951072 0.30897 0
    outer loop
      vertex 89.3429 3.24345 21
      vertex 89.1489 3.84062 0
      vertex 89.1489 3.84062 21
    endloop
  endfacet
  facet normal 0.951072 0.30897 0
    outer loop
      vertex 89.1489 3.84062 0
      vertex 89.3429 3.24345 21
      vertex 89.3429 3.24345 0
    endloop
  endfacet
  facet normal 0.684565 0.728952 -0
    outer loop
      vertex 88.1448 5.42274 0
      vertex 87.6871 5.85257 21
      vertex 88.1448 5.42274 21
    endloop
  endfacet
  facet normal 0.684565 0.728952 0
    outer loop
      vertex 87.6871 5.85257 21
      vertex 88.1448 5.42274 0
      vertex 87.6871 5.85257 0
    endloop
  endfacet
  facet normal 0.368135 0.929773 -0
    outer loop
      vertex 86.6289 6.52413 0
      vertex 86.0451 6.75528 21
      vertex 86.6289 6.52413 21
    endloop
  endfacet
  facet normal 0.368135 0.929773 0
    outer loop
      vertex 86.0451 6.75528 21
      vertex 86.6289 6.52413 0
      vertex 86.0451 6.75528 0
    endloop
  endfacet
  facet normal 0.248691 0.968583 -0
    outer loop
      vertex 86.0451 6.75528 0
      vertex 85.4369 6.91144 21
      vertex 86.0451 6.75528 21
    endloop
  endfacet
  facet normal 0.248691 0.968583 0
    outer loop
      vertex 85.4369 6.91144 21
      vertex 86.0451 6.75528 0
      vertex 85.4369 6.91144 0
    endloop
  endfacet
  facet normal 0.125313 0.992117 -0
    outer loop
      vertex 85.4369 6.91144 0
      vertex 84.8139 6.99013 21
      vertex 85.4369 6.91144 21
    endloop
  endfacet
  facet normal 0.125313 0.992117 0
    outer loop
      vertex 84.8139 6.99013 21
      vertex 85.4369 6.91144 0
      vertex 84.8139 6.99013 0
    endloop
  endfacet
  facet normal -0.368135 0.929773 0
    outer loop
      vertex -86.0451 6.75528 0
      vertex -86.6289 6.52413 21
      vertex -86.0451 6.75528 21
    endloop
  endfacet
  facet normal -0.368135 0.929773 0
    outer loop
      vertex -86.6289 6.52413 21
      vertex -86.0451 6.75528 0
      vertex -86.6289 6.52413 0
    endloop
  endfacet
  facet normal -0.951072 -0.30897 0
    outer loop
      vertex -89.1489 -3.84062 0
      vertex -89.3429 -3.24345 21
      vertex -89.3429 -3.24345 0
    endloop
  endfacet
  facet normal -0.951072 -0.30897 0
    outer loop
      vertex -89.3429 -3.24345 21
      vertex -89.1489 -3.84062 0
      vertex -89.1489 -3.84062 21
    endloop
  endfacet
  facet normal -0.904797 -0.425843 0
    outer loop
      vertex -88.8815 -4.40877 0
      vertex -89.1489 -3.84062 21
      vertex -89.1489 -3.84062 0
    endloop
  endfacet
  facet normal -0.904797 -0.425843 0
    outer loop
      vertex -89.1489 -3.84062 21
      vertex -88.8815 -4.40877 0
      vertex -88.8815 -4.40877 21
    endloop
  endfacet
  facet normal -0.770468 -0.637478 0
    outer loop
      vertex -88.1448 -5.42274 0
      vertex -88.5451 -4.93893 21
      vertex -88.5451 -4.93893 0
    endloop
  endfacet
  facet normal -0.770468 -0.637478 0
    outer loop
      vertex -88.5451 -4.93893 21
      vertex -88.1448 -5.42274 0
      vertex -88.1448 -5.42274 21
    endloop
  endfacet
  facet normal -0.248691 -0.968583 0
    outer loop
      vertex -86.0451 -6.75528 0
      vertex -85.4369 -6.91144 21
      vertex -86.0451 -6.75528 21
    endloop
  endfacet
  facet normal -0.248691 -0.968583 -0
    outer loop
      vertex -85.4369 -6.91144 21
      vertex -86.0451 -6.75528 0
      vertex -85.4369 -6.91144 0
    endloop
  endfacet
  facet normal -0.587771 -0.809027 0
    outer loop
      vertex -87.6871 -5.85257 0
      vertex -87.1791 -6.22164 21
      vertex -87.6871 -5.85257 21
    endloop
  endfacet
  facet normal -0.587771 -0.809027 -0
    outer loop
      vertex -87.1791 -6.22164 21
      vertex -87.6871 -5.85257 0
      vertex -87.1791 -6.22164 0
    endloop
  endfacet
  facet normal 0.998029 -0.0627481 0
    outer loop
      vertex 89.4606 -2.62667 21
      vertex 89.5 -2 0
      vertex 89.5 -2 21
    endloop
  endfacet
  facet normal 0.998029 -0.0627481 0
    outer loop
      vertex 89.5 -2 0
      vertex 89.4606 -2.62667 21
      vertex 89.4606 -2.62667 0
    endloop
  endfacet
  facet normal 0.684565 -0.728952 0
    outer loop
      vertex 87.6871 -5.85257 0
      vertex 88.1448 -5.42274 21
      vertex 87.6871 -5.85257 21
    endloop
  endfacet
  facet normal 0.684565 -0.728952 0
    outer loop
      vertex 88.1448 -5.42274 21
      vertex 87.6871 -5.85257 0
      vertex 88.1448 -5.42274 0
    endloop
  endfacet
  facet normal 0.587771 -0.809027 0
    outer loop
      vertex 87.1791 -6.22164 0
      vertex 87.6871 -5.85257 21
      vertex 87.1791 -6.22164 21
    endloop
  endfacet
  facet normal 0.587771 -0.809027 0
    outer loop
      vertex 87.6871 -5.85257 21
      vertex 87.1791 -6.22164 0
      vertex 87.6871 -5.85257 0
    endloop
  endfacet
  facet normal 0.770468 -0.637478 0
    outer loop
      vertex 88.1448 -5.42274 21
      vertex 88.5451 -4.93893 0
      vertex 88.5451 -4.93893 21
    endloop
  endfacet
  facet normal 0.770468 -0.637478 0
    outer loop
      vertex 88.5451 -4.93893 0
      vertex 88.1448 -5.42274 21
      vertex 88.1448 -5.42274 0
    endloop
  endfacet
  facet normal 0.368135 -0.929773 0
    outer loop
      vertex 86.0451 -6.75528 0
      vertex 86.6289 -6.52413 21
      vertex 86.0451 -6.75528 21
    endloop
  endfacet
  facet normal 0.368135 -0.929773 0
    outer loop
      vertex 86.6289 -6.52413 21
      vertex 86.0451 -6.75528 0
      vertex 86.6289 -6.52413 0
    endloop
  endfacet
  facet normal 0.125313 -0.992117 0
    outer loop
      vertex 84.8139 -6.99013 0
      vertex 85.4369 -6.91144 21
      vertex 84.8139 -6.99013 21
    endloop
  endfacet
  facet normal 0.125313 -0.992117 0
    outer loop
      vertex 85.4369 -6.91144 21
      vertex 84.8139 -6.99013 0
      vertex 85.4369 -6.91144 0
    endloop
  endfacet
  facet normal 0.770468 0.637478 0
    outer loop
      vertex 88.5451 4.93893 21
      vertex 88.1448 5.42274 0
      vertex 88.1448 5.42274 21
    endloop
  endfacet
  facet normal 0.770468 0.637478 0
    outer loop
      vertex 88.1448 5.42274 0
      vertex 88.5451 4.93893 21
      vertex 88.5451 4.93893 0
    endloop
  endfacet
  facet normal 0.904797 0.425843 0
    outer loop
      vertex 89.1489 3.84062 21
      vertex 88.8815 4.40877 0
      vertex 88.8815 4.40877 21
    endloop
  endfacet
  facet normal 0.904797 0.425843 0
    outer loop
      vertex 88.8815 4.40877 0
      vertex 89.1489 3.84062 21
      vertex 89.1489 3.84062 0
    endloop
  endfacet
  facet normal 0.587771 0.809027 -0
    outer loop
      vertex 87.6871 5.85257 0
      vertex 87.1791 6.22164 21
      vertex 87.6871 5.85257 21
    endloop
  endfacet
  facet normal 0.587771 0.809027 0
    outer loop
      vertex 87.1791 6.22164 21
      vertex 87.6871 5.85257 0
      vertex 87.1791 6.22164 0
    endloop
  endfacet
  facet normal 0.481772 0.876297 -0
    outer loop
      vertex 87.1791 6.22164 0
      vertex 86.6289 6.52413 21
      vertex 87.1791 6.22164 21
    endloop
  endfacet
  facet normal 0.481772 0.876297 0
    outer loop
      vertex 86.6289 6.52413 21
      vertex 87.1791 6.22164 0
      vertex 86.6289 6.52413 0
    endloop
  endfacet
  facet normal -0.684565 0.728952 0
    outer loop
      vertex -87.6871 5.85257 0
      vertex -88.1448 5.42274 21
      vertex -87.6871 5.85257 21
    endloop
  endfacet
  facet normal -0.684565 0.728952 0
    outer loop
      vertex -88.1448 5.42274 21
      vertex -87.6871 5.85257 0
      vertex -88.1448 5.42274 0
    endloop
  endfacet
  facet normal -0.125313 0.992117 0
    outer loop
      vertex -84.8139 6.99013 0
      vertex -85.4369 6.91144 21
      vertex -84.8139 6.99013 21
    endloop
  endfacet
  facet normal -0.125313 0.992117 0
    outer loop
      vertex -85.4369 6.91144 21
      vertex -84.8139 6.99013 0
      vertex -85.4369 6.91144 0
    endloop
  endfacet
  facet normal -0.982275 0.187447 0
    outer loop
      vertex -89.4606 2.62667 0
      vertex -89.3429 3.24345 21
      vertex -89.3429 3.24345 0
    endloop
  endfacet
  facet normal -0.982275 0.187447 0
    outer loop
      vertex -89.3429 3.24345 21
      vertex -89.4606 2.62667 0
      vertex -89.4606 2.62667 21
    endloop
  endfacet
  facet normal -0.951072 0.30897 0
    outer loop
      vertex -89.3429 3.24345 0
      vertex -89.1489 3.84062 21
      vertex -89.1489 3.84062 0
    endloop
  endfacet
  facet normal -0.951072 0.30897 0
    outer loop
      vertex -89.1489 3.84062 21
      vertex -89.3429 3.24345 0
      vertex -89.3429 3.24345 21
    endloop
  endfacet
  facet normal -0.982275 -0.187447 0
    outer loop
      vertex -89.3429 -3.24345 0
      vertex -89.4606 -2.62667 21
      vertex -89.4606 -2.62667 0
    endloop
  endfacet
  facet normal -0.982275 -0.187447 0
    outer loop
      vertex -89.4606 -2.62667 21
      vertex -89.3429 -3.24345 0
      vertex -89.3429 -3.24345 21
    endloop
  endfacet
  facet normal -0.844364 -0.53577 0
    outer loop
      vertex -88.5451 -4.93893 0
      vertex -88.8815 -4.40877 21
      vertex -88.8815 -4.40877 0
    endloop
  endfacet
  facet normal -0.844364 -0.53577 0
    outer loop
      vertex -88.8815 -4.40877 21
      vertex -88.5451 -4.93893 0
      vertex -88.5451 -4.93893 21
    endloop
  endfacet
  facet normal 0.844364 -0.53577 0
    outer loop
      vertex 88.5451 -4.93893 21
      vertex 88.8815 -4.40877 0
      vertex 88.8815 -4.40877 21
    endloop
  endfacet
  facet normal 0.844364 -0.53577 0
    outer loop
      vertex 88.8815 -4.40877 0
      vertex 88.5451 -4.93893 21
      vertex 88.5451 -4.93893 0
    endloop
  endfacet
  facet normal 0.248691 -0.968583 0
    outer loop
      vertex 85.4369 -6.91144 0
      vertex 86.0451 -6.75528 21
      vertex 85.4369 -6.91144 21
    endloop
  endfacet
  facet normal 0.248691 -0.968583 0
    outer loop
      vertex 86.0451 -6.75528 21
      vertex 85.4369 -6.91144 0
      vertex 86.0451 -6.75528 0
    endloop
  endfacet
  facet normal 0.844364 0.53577 0
    outer loop
      vertex 88.8815 4.40877 21
      vertex 88.5451 4.93893 0
      vertex 88.5451 4.93893 21
    endloop
  endfacet
  facet normal 0.844364 0.53577 0
    outer loop
      vertex 88.5451 4.93893 0
      vertex 88.8815 4.40877 21
      vertex 88.8815 4.40877 0
    endloop
  endfacet
  facet normal -0.248691 0.968583 0
    outer loop
      vertex -85.4369 6.91144 0
      vertex -86.0451 6.75528 21
      vertex -85.4369 6.91144 21
    endloop
  endfacet
  facet normal -0.248691 0.968583 0
    outer loop
      vertex -86.0451 6.75528 21
      vertex -85.4369 6.91144 0
      vertex -86.0451 6.75528 0
    endloop
  endfacet
  facet normal -0.844364 0.53577 0
    outer loop
      vertex -88.8815 4.40877 0
      vertex -88.5451 4.93893 21
      vertex -88.5451 4.93893 0
    endloop
  endfacet
  facet normal -0.844364 0.53577 0
    outer loop
      vertex -88.5451 4.93893 21
      vertex -88.8815 4.40877 0
      vertex -88.8815 4.40877 21
    endloop
  endfacet
  facet normal -0.904797 0.425843 0
    outer loop
      vertex -89.1489 3.84062 0
      vertex -88.8815 4.40877 21
      vertex -88.8815 4.40877 0
    endloop
  endfacet
  facet normal -0.904797 0.425843 0
    outer loop
      vertex -88.8815 4.40877 21
      vertex -89.1489 3.84062 0
      vertex -89.1489 3.84062 21
    endloop
  endfacet
  facet normal 0.982275 0.187447 0
    outer loop
      vertex 89.4606 2.62667 21
      vertex 89.3429 3.24345 0
      vertex 89.3429 3.24345 21
    endloop
  endfacet
  facet normal 0.982275 0.187447 0
    outer loop
      vertex 89.3429 3.24345 0
      vertex 89.4606 2.62667 21
      vertex 89.4606 2.62667 0
    endloop
  endfacet
  facet normal 0.998029 0.0627481 0
    outer loop
      vertex 89.5 2 21
      vertex 89.4606 2.62667 0
      vertex 89.4606 2.62667 21
    endloop
  endfacet
  facet normal 0.998029 0.0627481 0
    outer loop
      vertex 89.4606 2.62667 0
      vertex 89.5 2 21
      vertex 89.5 2 0
    endloop
  endfacet
  facet normal 0.982275 -0.187447 0
    outer loop
      vertex 89.3429 -3.24345 21
      vertex 89.4606 -2.62667 0
      vertex 89.4606 -2.62667 21
    endloop
  endfacet
  facet normal 0.982275 -0.187447 0
    outer loop
      vertex 89.4606 -2.62667 0
      vertex 89.3429 -3.24345 21
      vertex 89.3429 -3.24345 0
    endloop
  endfacet
  facet normal -0.587771 0.809027 0
    outer loop
      vertex -87.1791 6.22164 0
      vertex -87.6871 5.85257 21
      vertex -87.1791 6.22164 21
    endloop
  endfacet
  facet normal -0.587771 0.809027 0
    outer loop
      vertex -87.6871 5.85257 21
      vertex -87.1791 6.22164 0
      vertex -87.6871 5.85257 0
    endloop
  endfacet
  facet normal -0.481772 0.876297 0
    outer loop
      vertex -86.6289 6.52413 0
      vertex -87.1791 6.22164 21
      vertex -86.6289 6.52413 21
    endloop
  endfacet
  facet normal -0.481772 0.876297 0
    outer loop
      vertex -87.1791 6.22164 21
      vertex -86.6289 6.52413 0
      vertex -87.1791 6.22164 0
    endloop
  endfacet
endsolid OpenSCAD_Model
