  0
SECTION
  2
BLOCKS
  0
ENDSEC
  0
SECTION
  2
ENTITIES
  0
LINE
  8
0
 10
220.437
 20
-6.91142
 11
221.045
 21
-6.75528
  0
LINE
  8
0
 10
221.045
 20
-6.75528
 11
221.629
 21
-6.52412
  0
LINE
  8
0
 10
221.629
 20
-6.52412
 11
222.179
 21
-6.22163
  0
LINE
  8
0
 10
222.179
 20
-6.22163
 11
222.687
 21
-5.85255
  0
LINE
  8
0
 10
222.687
 20
-5.85255
 11
223.145
 21
-5.42273
  0
LINE
  8
0
 10
223.145
 20
-5.42273
 11
223.545
 21
-4.93892
  0
LINE
  8
0
 10
223.545
 20
-4.93892
 11
223.882
 21
-4.40877
  0
LINE
  8
0
 10
223.882
 20
-4.40877
 11
224.149
 21
-3.84062
  0
LINE
  8
0
 10
224.149
 20
-3.84062
 11
224.343
 21
-3.24344
  0
LINE
  8
0
 10
224.343
 20
-3.24344
 11
224.461
 21
-2.62666
  0
LINE
  8
0
 10
224.461
 20
-2.62666
 11
224.5
 21
-2
  0
LINE
  8
0
 10
224.5
 20
-2
 11
224.5
 21
2
  0
LINE
  8
0
 10
224.5
 20
2
 11
224.461
 21
2.62666
  0
LINE
  8
0
 10
224.461
 20
2.62666
 11
224.343
 21
3.24344
  0
LINE
  8
0
 10
224.343
 20
3.24344
 11
224.149
 21
3.84062
  0
LINE
  8
0
 10
224.149
 20
3.84062
 11
223.882
 21
4.40877
  0
LINE
  8
0
 10
223.882
 20
4.40877
 11
223.545
 21
4.93892
  0
LINE
  8
0
 10
223.545
 20
4.93892
 11
223.145
 21
5.42273
  0
LINE
  8
0
 10
223.145
 20
5.42273
 11
222.687
 21
5.85255
  0
LINE
  8
0
 10
222.687
 20
5.85255
 11
222.179
 21
6.22163
  0
LINE
  8
0
 10
222.179
 20
6.22163
 11
221.629
 21
6.52412
  0
LINE
  8
0
 10
221.629
 20
6.52412
 11
221.045
 21
6.75528
  0
LINE
  8
0
 10
221.045
 20
6.75528
 11
220.437
 21
6.91142
  0
LINE
  8
0
 10
220.437
 20
6.91142
 11
219.814
 21
6.99013
  0
LINE
  8
0
 10
219.814
 20
6.99013
 11
-219.814
 21
6.99013
  0
LINE
  8
0
 10
-219.814
 20
6.99013
 11
-220.437
 21
6.91142
  0
LINE
  8
0
 10
-220.437
 20
6.91142
 11
-221.045
 21
6.75528
  0
LINE
  8
0
 10
-221.045
 20
6.75528
 11
-221.629
 21
6.52412
  0
LINE
  8
0
 10
-221.629
 20
6.52412
 11
-222.179
 21
6.22163
  0
LINE
  8
0
 10
-222.179
 20
6.22163
 11
-222.687
 21
5.85255
  0
LINE
  8
0
 10
-222.687
 20
5.85255
 11
-223.145
 21
5.42273
  0
LINE
  8
0
 10
-223.145
 20
5.42273
 11
-223.545
 21
4.93892
  0
LINE
  8
0
 10
-223.545
 20
4.93892
 11
-223.882
 21
4.40877
  0
LINE
  8
0
 10
-223.882
 20
4.40877
 11
-224.149
 21
3.84062
  0
LINE
  8
0
 10
-224.149
 20
3.84062
 11
-224.343
 21
3.24344
  0
LINE
  8
0
 10
-224.343
 20
3.24344
 11
-224.461
 21
2.62666
  0
LINE
  8
0
 10
-224.461
 20
2.62666
 11
-224.5
 21
2
  0
LINE
  8
0
 10
-224.5
 20
2
 11
-224.5
 21
-2
  0
LINE
  8
0
 10
-224.5
 20
-2
 11
-224.461
 21
-2.62666
  0
LINE
  8
0
 10
-224.461
 20
-2.62666
 11
-224.343
 21
-3.24344
  0
LINE
  8
0
 10
-224.343
 20
-3.24344
 11
-224.149
 21
-3.84062
  0
LINE
  8
0
 10
-224.149
 20
-3.84062
 11
-223.882
 21
-4.40877
  0
LINE
  8
0
 10
-223.882
 20
-4.40877
 11
-223.545
 21
-4.93892
  0
LINE
  8
0
 10
-223.545
 20
-4.93892
 11
-223.145
 21
-5.42273
  0
LINE
  8
0
 10
-223.145
 20
-5.42273
 11
-222.687
 21
-5.85255
  0
LINE
  8
0
 10
-222.687
 20
-5.85255
 11
-222.179
 21
-6.22163
  0
LINE
  8
0
 10
-222.179
 20
-6.22163
 11
-221.629
 21
-6.52412
  0
LINE
  8
0
 10
-221.629
 20
-6.52412
 11
-221.045
 21
-6.75528
  0
LINE
  8
0
 10
-221.045
 20
-6.75528
 11
-220.437
 21
-6.91142
  0
LINE
  8
0
 10
-220.437
 20
-6.91142
 11
-219.814
 21
-6.99013
  0
LINE
  8
0
 10
-219.814
 20
-6.99013
 11
219.814
 21
-6.99013
  0
LINE
  8
0
 10
219.814
 20
-6.99013
 11
220.437
 21
-6.91142
  0
LINE
  8
0
 10
217.312
 20
-2.99408
 11
216.938
 21
-2.94685
  0
LINE
  8
0
 10
216.938
 20
-2.94685
 11
216.573
 21
-2.85316
  0
LINE
  8
0
 10
216.573
 20
-2.85316
 11
216.223
 21
-2.71448
  0
LINE
  8
0
 10
216.223
 20
-2.71448
 11
215.893
 21
-2.53297
  0
LINE
  8
0
 10
215.893
 20
-2.53297
 11
215.588
 21
-2.31154
  0
LINE
  8
0
 10
215.588
 20
-2.31154
 11
215.313
 21
-2.05363
  0
LINE
  8
0
 10
215.313
 20
-2.05363
 11
215.073
 21
-1.76335
  0
LINE
  8
0
 10
215.073
 20
-1.76335
 11
214.871
 21
-1.44525
  0
LINE
  8
0
 10
214.871
 20
-1.44525
 11
214.711
 21
-1.10437
  0
LINE
  8
0
 10
214.711
 20
-1.10437
 11
214.594
 21
-0.746063
  0
LINE
  8
0
 10
214.594
 20
-0.746063
 11
214.524
 21
-0.375992
  0
LINE
  8
0
 10
214.524
 20
-0.375992
 11
214.5
 21
0
  0
LINE
  8
0
 10
214.5
 20
0
 11
214.524
 21
0.375992
  0
LINE
  8
0
 10
214.524
 20
0.375992
 11
214.594
 21
0.746063
  0
LINE
  8
0
 10
214.594
 20
0.746063
 11
214.711
 21
1.10437
  0
LINE
  8
0
 10
214.711
 20
1.10437
 11
214.871
 21
1.44525
  0
LINE
  8
0
 10
214.871
 20
1.44525
 11
215.073
 21
1.76335
  0
LINE
  8
0
 10
215.073
 20
1.76335
 11
215.313
 21
2.05363
  0
LINE
  8
0
 10
215.313
 20
2.05363
 11
215.588
 21
2.31154
  0
LINE
  8
0
 10
215.588
 20
2.31154
 11
215.893
 21
2.53297
  0
LINE
  8
0
 10
215.893
 20
2.53297
 11
216.223
 21
2.71448
  0
LINE
  8
0
 10
216.223
 20
2.71448
 11
216.573
 21
2.85316
  0
LINE
  8
0
 10
216.573
 20
2.85316
 11
216.938
 21
2.94685
  0
LINE
  8
0
 10
216.938
 20
2.94685
 11
217.312
 21
2.99408
  0
LINE
  8
0
 10
217.312
 20
2.99408
 11
217.688
 21
2.99408
  0
LINE
  8
0
 10
217.688
 20
2.99408
 11
218.062
 21
2.94685
  0
LINE
  8
0
 10
218.062
 20
2.94685
 11
218.427
 21
2.85316
  0
LINE
  8
0
 10
218.427
 20
2.85316
 11
218.777
 21
2.71448
  0
LINE
  8
0
 10
218.777
 20
2.71448
 11
219.107
 21
2.53297
  0
LINE
  8
0
 10
219.107
 20
2.53297
 11
219.412
 21
2.31154
  0
LINE
  8
0
 10
219.412
 20
2.31154
 11
219.687
 21
2.05363
  0
LINE
  8
0
 10
219.687
 20
2.05363
 11
219.927
 21
1.76335
  0
LINE
  8
0
 10
219.927
 20
1.76335
 11
220.129
 21
1.44525
  0
LINE
  8
0
 10
220.129
 20
1.44525
 11
220.289
 21
1.10437
  0
LINE
  8
0
 10
220.289
 20
1.10437
 11
220.406
 21
0.746063
  0
LINE
  8
0
 10
220.406
 20
0.746063
 11
220.476
 21
0.375992
  0
LINE
  8
0
 10
220.476
 20
0.375992
 11
220.5
 21
0
  0
LINE
  8
0
 10
220.5
 20
0
 11
220.476
 21
-0.375992
  0
LINE
  8
0
 10
220.476
 20
-0.375992
 11
220.406
 21
-0.746063
  0
LINE
  8
0
 10
220.406
 20
-0.746063
 11
220.289
 21
-1.10437
  0
LINE
  8
0
 10
220.289
 20
-1.10437
 11
220.129
 21
-1.44525
  0
LINE
  8
0
 10
220.129
 20
-1.44525
 11
219.927
 21
-1.76335
  0
LINE
  8
0
 10
219.927
 20
-1.76335
 11
219.687
 21
-2.05363
  0
LINE
  8
0
 10
219.687
 20
-2.05363
 11
219.412
 21
-2.31154
  0
LINE
  8
0
 10
219.412
 20
-2.31154
 11
219.107
 21
-2.53297
  0
LINE
  8
0
 10
219.107
 20
-2.53297
 11
218.777
 21
-2.71448
  0
LINE
  8
0
 10
218.777
 20
-2.71448
 11
218.427
 21
-2.85316
  0
LINE
  8
0
 10
218.427
 20
-2.85316
 11
218.062
 21
-2.94685
  0
LINE
  8
0
 10
218.062
 20
-2.94685
 11
217.688
 21
-2.99408
  0
LINE
  8
0
 10
217.688
 20
-2.99408
 11
217.312
 21
-2.99408
  0
LINE
  8
0
 10
-217.688
 20
-2.99408
 11
-218.062
 21
-2.94685
  0
LINE
  8
0
 10
-218.062
 20
-2.94685
 11
-218.427
 21
-2.85316
  0
LINE
  8
0
 10
-218.427
 20
-2.85316
 11
-218.777
 21
-2.71448
  0
LINE
  8
0
 10
-218.777
 20
-2.71448
 11
-219.107
 21
-2.53297
  0
LINE
  8
0
 10
-219.107
 20
-2.53297
 11
-219.412
 21
-2.31154
  0
LINE
  8
0
 10
-219.412
 20
-2.31154
 11
-219.687
 21
-2.05363
  0
LINE
  8
0
 10
-219.687
 20
-2.05363
 11
-219.927
 21
-1.76335
  0
LINE
  8
0
 10
-219.927
 20
-1.76335
 11
-220.129
 21
-1.44525
  0
LINE
  8
0
 10
-220.129
 20
-1.44525
 11
-220.289
 21
-1.10437
  0
LINE
  8
0
 10
-220.289
 20
-1.10437
 11
-220.406
 21
-0.746063
  0
LINE
  8
0
 10
-220.406
 20
-0.746063
 11
-220.476
 21
-0.375992
  0
LINE
  8
0
 10
-220.476
 20
-0.375992
 11
-220.5
 21
0
  0
LINE
  8
0
 10
-220.5
 20
0
 11
-220.476
 21
0.375992
  0
LINE
  8
0
 10
-220.476
 20
0.375992
 11
-220.406
 21
0.746063
  0
LINE
  8
0
 10
-220.406
 20
0.746063
 11
-220.289
 21
1.10437
  0
LINE
  8
0
 10
-220.289
 20
1.10437
 11
-220.129
 21
1.44525
  0
LINE
  8
0
 10
-220.129
 20
1.44525
 11
-219.927
 21
1.76335
  0
LINE
  8
0
 10
-219.927
 20
1.76335
 11
-219.687
 21
2.05363
  0
LINE
  8
0
 10
-219.687
 20
2.05363
 11
-219.412
 21
2.31154
  0
LINE
  8
0
 10
-219.412
 20
2.31154
 11
-219.107
 21
2.53297
  0
LINE
  8
0
 10
-219.107
 20
2.53297
 11
-218.777
 21
2.71448
  0
LINE
  8
0
 10
-218.777
 20
2.71448
 11
-218.427
 21
2.85316
  0
LINE
  8
0
 10
-218.427
 20
2.85316
 11
-218.062
 21
2.94685
  0
LINE
  8
0
 10
-218.062
 20
2.94685
 11
-217.688
 21
2.99408
  0
LINE
  8
0
 10
-217.688
 20
2.99408
 11
-217.312
 21
2.99408
  0
LINE
  8
0
 10
-217.312
 20
2.99408
 11
-216.938
 21
2.94685
  0
LINE
  8
0
 10
-216.938
 20
2.94685
 11
-216.573
 21
2.85316
  0
LINE
  8
0
 10
-216.573
 20
2.85316
 11
-216.223
 21
2.71448
  0
LINE
  8
0
 10
-216.223
 20
2.71448
 11
-215.893
 21
2.53297
  0
LINE
  8
0
 10
-215.893
 20
2.53297
 11
-215.588
 21
2.31154
  0
LINE
  8
0
 10
-215.588
 20
2.31154
 11
-215.313
 21
2.05363
  0
LINE
  8
0
 10
-215.313
 20
2.05363
 11
-215.073
 21
1.76335
  0
LINE
  8
0
 10
-215.073
 20
1.76335
 11
-214.871
 21
1.44525
  0
LINE
  8
0
 10
-214.871
 20
1.44525
 11
-214.711
 21
1.10437
  0
LINE
  8
0
 10
-214.711
 20
1.10437
 11
-214.594
 21
0.746063
  0
LINE
  8
0
 10
-214.594
 20
0.746063
 11
-214.524
 21
0.375992
  0
LINE
  8
0
 10
-214.524
 20
0.375992
 11
-214.5
 21
0
  0
LINE
  8
0
 10
-214.5
 20
0
 11
-214.524
 21
-0.375992
  0
LINE
  8
0
 10
-214.524
 20
-0.375992
 11
-214.594
 21
-0.746063
  0
LINE
  8
0
 10
-214.594
 20
-0.746063
 11
-214.711
 21
-1.10437
  0
LINE
  8
0
 10
-214.711
 20
-1.10437
 11
-214.871
 21
-1.44525
  0
LINE
  8
0
 10
-214.871
 20
-1.44525
 11
-215.073
 21
-1.76335
  0
LINE
  8
0
 10
-215.073
 20
-1.76335
 11
-215.313
 21
-2.05363
  0
LINE
  8
0
 10
-215.313
 20
-2.05363
 11
-215.588
 21
-2.31154
  0
LINE
  8
0
 10
-215.588
 20
-2.31154
 11
-215.893
 21
-2.53297
  0
LINE
  8
0
 10
-215.893
 20
-2.53297
 11
-216.223
 21
-2.71448
  0
LINE
  8
0
 10
-216.223
 20
-2.71448
 11
-216.573
 21
-2.85316
  0
LINE
  8
0
 10
-216.573
 20
-2.85316
 11
-216.938
 21
-2.94685
  0
LINE
  8
0
 10
-216.938
 20
-2.94685
 11
-217.312
 21
-2.99408
  0
LINE
  8
0
 10
-217.312
 20
-2.99408
 11
-217.688
 21
-2.99408
  0
ENDSEC
  0
SECTION
  2
OBJECTS
  0
DICTIONARY
  0
ENDSEC
  0
EOF
