<?xml version="1.0" standalone="no"?>
<!DOCTYPE svg PUBLIC "-//W3C//DTD SVG 1.1//EN" "http://www.w3.org/Graphics/SVG/1.1/DTD/svg11.dtd">
<svg width="74mm" height="242mm" viewBox="-37 -373 74 242" xmlns="http://www.w3.org/2000/svg" version="1.1">
<title>OpenSCAD Model</title>
<path d="
M 32.9369,-299.089 L 33.5451,-299.245 L 34.1289,-299.476 L 34.6791,-299.778 L 35.1871,-300.147 L 35.6448,-300.577
 L 36.0451,-301.061 L 36.3815,-301.591 L 36.6489,-302.159 L 36.8429,-302.757 L 36.9606,-303.373 L 37,-304
 L 37,-368 L 36.9606,-368.627 L 36.8429,-369.243 L 36.6489,-369.841 L 36.3815,-370.409 L 36.0451,-370.939
 L 35.6448,-371.423 L 35.1871,-371.853 L 34.6791,-372.222 L 34.1289,-372.524 L 33.5451,-372.755 L 32.9369,-372.911
 L 32.3139,-372.99 L -32.3139,-372.99 L -32.9369,-372.911 L -33.5451,-372.755 L -34.1289,-372.524 L -34.6791,-372.222
 L -35.1871,-371.853 L -35.6448,-371.423 L -36.0451,-370.939 L -36.3815,-370.409 L -36.6489,-369.841 L -36.8429,-369.243
 L -36.9606,-368.627 L -37,-368 L -37,-304 L -36.9606,-303.373 L -36.8429,-302.757 L -36.6489,-302.159
 L -36.3815,-301.591 L -36.0451,-301.061 L -35.6448,-300.577 L -35.1871,-300.147 L -34.6791,-299.778 L -34.1289,-299.476
 L -33.5451,-299.245 L -32.9369,-299.089 L -32.3139,-299.01 L 32.3139,-299.01 z
M -15.1884,-363.006 L -15.5621,-363.053 L -15.927,-363.147 L -16.2773,-363.286 L -16.6075,-363.467 L -16.9123,-363.688
 L -17.1869,-363.946 L -17.427,-364.237 L -17.6289,-364.555 L -17.7893,-364.896 L -17.9057,-365.254 L -17.9763,-365.624
 L -18,-366 L -17.9763,-366.376 L -17.9057,-366.746 L -17.7893,-367.104 L -17.6289,-367.445 L -17.427,-367.763
 L -17.1869,-368.054 L -16.9123,-368.312 L -16.6075,-368.533 L -16.2773,-368.714 L -15.927,-368.853 L -15.5621,-368.947
 L -15.1884,-368.994 L -14.8116,-368.994 L -14.4379,-368.947 L -14.0729,-368.853 L -13.7227,-368.714 L -13.3925,-368.533
 L -13.0877,-368.312 L -12.8131,-368.054 L -12.5729,-367.763 L -12.3711,-367.445 L -12.2107,-367.104 L -12.0942,-366.746
 L -12.0237,-366.376 L -12,-366 L -12.0237,-365.624 L -12.0942,-365.254 L -12.2107,-364.896 L -12.3711,-364.555
 L -12.5729,-364.237 L -12.8131,-363.946 L -13.0877,-363.688 L -13.3925,-363.467 L -13.7227,-363.286 L -14.0729,-363.147
 L -14.4379,-363.053 L -14.8116,-363.006 z
M -0.18837,-363.006 L -0.562134,-363.053 L -0.927048,-363.147 L -1.27733,-363.286 L -1.60747,-363.467 L -1.91226,-363.688
 L -2.1869,-363.946 L -2.42705,-364.237 L -2.62891,-364.555 L -2.78932,-364.896 L -2.90575,-365.254 L -2.97633,-365.624
 L -3,-366 L -2.97633,-366.376 L -2.90575,-366.746 L -2.78932,-367.104 L -2.62891,-367.445 L -2.42705,-367.763
 L -2.1869,-368.054 L -1.91226,-368.312 L -1.60747,-368.533 L -1.27733,-368.714 L -0.927048,-368.853 L -0.562134,-368.947
 L -0.18837,-368.994 L 0.18837,-368.994 L 0.562134,-368.947 L 0.927048,-368.853 L 1.27733,-368.714 L 1.60747,-368.533
 L 1.91226,-368.312 L 2.1869,-368.054 L 2.42705,-367.763 L 2.62891,-367.445 L 2.78932,-367.104 L 2.90575,-366.746
 L 2.97633,-366.376 L 3,-366 L 2.97633,-365.624 L 2.90575,-365.254 L 2.78932,-364.896 L 2.62891,-364.555
 L 2.42705,-364.237 L 2.1869,-363.946 L 1.91226,-363.688 L 1.60747,-363.467 L 1.27733,-363.286 L 0.927048,-363.147
 L 0.562134,-363.053 L 0.18837,-363.006 z
M 29.8116,-363.006 L 29.4379,-363.053 L 29.0729,-363.147 L 28.7227,-363.286 L 28.3925,-363.467 L 28.0877,-363.688
 L 27.8131,-363.946 L 27.5729,-364.237 L 27.3711,-364.555 L 27.2107,-364.896 L 27.0942,-365.254 L 27.0237,-365.624
 L 27,-366 L 27.0237,-366.376 L 27.0942,-366.746 L 27.2107,-367.104 L 27.3711,-367.445 L 27.5729,-367.763
 L 27.8131,-368.054 L 28.0877,-368.312 L 28.3925,-368.533 L 28.7227,-368.714 L 29.0729,-368.853 L 29.4379,-368.947
 L 29.8116,-368.994 L 30.1884,-368.994 L 30.5621,-368.947 L 30.927,-368.853 L 31.2773,-368.714 L 31.6075,-368.533
 L 31.9123,-368.312 L 32.1869,-368.054 L 32.427,-367.763 L 32.6289,-367.445 L 32.7893,-367.104 L 32.9057,-366.746
 L 32.9763,-366.376 L 33,-366 L 32.9763,-365.624 L 32.9057,-365.254 L 32.7893,-364.896 L 32.6289,-364.555
 L 32.427,-364.237 L 32.1869,-363.946 L 31.9123,-363.688 L 31.6075,-363.467 L 31.2773,-363.286 L 30.927,-363.147
 L 30.5621,-363.053 L 30.1884,-363.006 z
M 14.8116,-363.006 L 14.4379,-363.053 L 14.0729,-363.147 L 13.7227,-363.286 L 13.3925,-363.467 L 13.0877,-363.688
 L 12.8131,-363.946 L 12.5729,-364.237 L 12.3711,-364.555 L 12.2107,-364.896 L 12.0942,-365.254 L 12.0237,-365.624
 L 12,-366 L 12.0237,-366.376 L 12.0942,-366.746 L 12.2107,-367.104 L 12.3711,-367.445 L 12.5729,-367.763
 L 12.8131,-368.054 L 13.0877,-368.312 L 13.3925,-368.533 L 13.7227,-368.714 L 14.0729,-368.853 L 14.4379,-368.947
 L 14.8116,-368.994 L 15.1884,-368.994 L 15.5621,-368.947 L 15.927,-368.853 L 16.2773,-368.714 L 16.6075,-368.533
 L 16.9123,-368.312 L 17.1869,-368.054 L 17.427,-367.763 L 17.6289,-367.445 L 17.7893,-367.104 L 17.9057,-366.746
 L 17.9763,-366.376 L 18,-366 L 17.9763,-365.624 L 17.9057,-365.254 L 17.7893,-364.896 L 17.6289,-364.555
 L 17.427,-364.237 L 17.1869,-363.946 L 16.9123,-363.688 L 16.6075,-363.467 L 16.2773,-363.286 L 15.927,-363.147
 L 15.5621,-363.053 L 15.1884,-363.006 z
M -30.1884,-363.006 L -30.5621,-363.053 L -30.927,-363.147 L -31.2773,-363.286 L -31.6075,-363.467 L -31.9123,-363.688
 L -32.1869,-363.946 L -32.427,-364.237 L -32.6289,-364.555 L -32.7893,-364.896 L -32.9057,-365.254 L -32.9763,-365.624
 L -33,-366 L -32.9763,-366.376 L -32.9057,-366.746 L -32.7893,-367.104 L -32.6289,-367.445 L -32.427,-367.763
 L -32.1869,-368.054 L -31.9123,-368.312 L -31.6075,-368.533 L -31.2773,-368.714 L -30.927,-368.853 L -30.5621,-368.947
 L -30.1884,-368.994 L -29.8116,-368.994 L -29.4379,-368.947 L -29.0729,-368.853 L -28.7227,-368.714 L -28.3925,-368.533
 L -28.0877,-368.312 L -27.8131,-368.054 L -27.5729,-367.763 L -27.3711,-367.445 L -27.2107,-367.104 L -27.0942,-366.746
 L -27.0237,-366.376 L -27,-366 L -27.0237,-365.624 L -27.0942,-365.254 L -27.2107,-364.896 L -27.3711,-364.555
 L -27.5729,-364.237 L -27.8131,-363.946 L -28.0877,-363.688 L -28.3925,-363.467 L -28.7227,-363.286 L -29.0729,-363.147
 L -29.4379,-363.053 L -29.8116,-363.006 z
M 14.8116,-348.006 L 14.4379,-348.053 L 14.0729,-348.147 L 13.7227,-348.286 L 13.3925,-348.467 L 13.0877,-348.688
 L 12.8131,-348.946 L 12.5729,-349.237 L 12.3711,-349.555 L 12.2107,-349.896 L 12.0942,-350.254 L 12.0237,-350.624
 L 12,-351 L 12.0237,-351.376 L 12.0942,-351.746 L 12.2107,-352.104 L 12.3711,-352.445 L 12.5729,-352.763
 L 12.8131,-353.054 L 13.0877,-353.312 L 13.3925,-353.533 L 13.7227,-353.714 L 14.0729,-353.853 L 14.4379,-353.947
 L 14.8116,-353.994 L 15.1884,-353.994 L 15.5621,-353.947 L 15.927,-353.853 L 16.2773,-353.714 L 16.6075,-353.533
 L 16.9123,-353.312 L 17.1869,-353.054 L 17.427,-352.763 L 17.6289,-352.445 L 17.7893,-352.104 L 17.9057,-351.746
 L 17.9763,-351.376 L 18,-351 L 17.9763,-350.624 L 17.9057,-350.254 L 17.7893,-349.896 L 17.6289,-349.555
 L 17.427,-349.237 L 17.1869,-348.946 L 16.9123,-348.688 L 16.6075,-348.467 L 16.2773,-348.286 L 15.927,-348.147
 L 15.5621,-348.053 L 15.1884,-348.006 z
M 29.8116,-348.006 L 29.4379,-348.053 L 29.0729,-348.147 L 28.7227,-348.286 L 28.3925,-348.467 L 28.0877,-348.688
 L 27.8131,-348.946 L 27.5729,-349.237 L 27.3711,-349.555 L 27.2107,-349.896 L 27.0942,-350.254 L 27.0237,-350.624
 L 27,-351 L 27.0237,-351.376 L 27.0942,-351.746 L 27.2107,-352.104 L 27.3711,-352.445 L 27.5729,-352.763
 L 27.8131,-353.054 L 28.0877,-353.312 L 28.3925,-353.533 L 28.7227,-353.714 L 29.0729,-353.853 L 29.4379,-353.947
 L 29.8116,-353.994 L 30.1884,-353.994 L 30.5621,-353.947 L 30.927,-353.853 L 31.2773,-353.714 L 31.6075,-353.533
 L 31.9123,-353.312 L 32.1869,-353.054 L 32.427,-352.763 L 32.6289,-352.445 L 32.7893,-352.104 L 32.9057,-351.746
 L 32.9763,-351.376 L 33,-351 L 32.9763,-350.624 L 32.9057,-350.254 L 32.7893,-349.896 L 32.6289,-349.555
 L 32.427,-349.237 L 32.1869,-348.946 L 31.9123,-348.688 L 31.6075,-348.467 L 31.2773,-348.286 L 30.927,-348.147
 L 30.5621,-348.053 L 30.1884,-348.006 z
M -15.1884,-348.006 L -15.5621,-348.053 L -15.927,-348.147 L -16.2773,-348.286 L -16.6075,-348.467 L -16.9123,-348.688
 L -17.1869,-348.946 L -17.427,-349.237 L -17.6289,-349.555 L -17.7893,-349.896 L -17.9057,-350.254 L -17.9763,-350.624
 L -18,-351 L -17.9763,-351.376 L -17.9057,-351.746 L -17.7893,-352.104 L -17.6289,-352.445 L -17.427,-352.763
 L -17.1869,-353.054 L -16.9123,-353.312 L -16.6075,-353.533 L -16.2773,-353.714 L -15.927,-353.853 L -15.5621,-353.947
 L -15.1884,-353.994 L -14.8116,-353.994 L -14.4379,-353.947 L -14.0729,-353.853 L -13.7227,-353.714 L -13.3925,-353.533
 L -13.0877,-353.312 L -12.8131,-353.054 L -12.5729,-352.763 L -12.3711,-352.445 L -12.2107,-352.104 L -12.0942,-351.746
 L -12.0237,-351.376 L -12,-351 L -12.0237,-350.624 L -12.0942,-350.254 L -12.2107,-349.896 L -12.3711,-349.555
 L -12.5729,-349.237 L -12.8131,-348.946 L -13.0877,-348.688 L -13.3925,-348.467 L -13.7227,-348.286 L -14.0729,-348.147
 L -14.4379,-348.053 L -14.8116,-348.006 z
M -30.1884,-348.006 L -30.5621,-348.053 L -30.927,-348.147 L -31.2773,-348.286 L -31.6075,-348.467 L -31.9123,-348.688
 L -32.1869,-348.946 L -32.427,-349.237 L -32.6289,-349.555 L -32.7893,-349.896 L -32.9057,-350.254 L -32.9763,-350.624
 L -33,-351 L -32.9763,-351.376 L -32.9057,-351.746 L -32.7893,-352.104 L -32.6289,-352.445 L -32.427,-352.763
 L -32.1869,-353.054 L -31.9123,-353.312 L -31.6075,-353.533 L -31.2773,-353.714 L -30.927,-353.853 L -30.5621,-353.947
 L -30.1884,-353.994 L -29.8116,-353.994 L -29.4379,-353.947 L -29.0729,-353.853 L -28.7227,-353.714 L -28.3925,-353.533
 L -28.0877,-353.312 L -27.8131,-353.054 L -27.5729,-352.763 L -27.3711,-352.445 L -27.2107,-352.104 L -27.0942,-351.746
 L -27.0237,-351.376 L -27,-351 L -27.0237,-350.624 L -27.0942,-350.254 L -27.2107,-349.896 L -27.3711,-349.555
 L -27.5729,-349.237 L -27.8131,-348.946 L -28.0877,-348.688 L -28.3925,-348.467 L -28.7227,-348.286 L -29.0729,-348.147
 L -29.4379,-348.053 L -29.8116,-348.006 z
M -0.18837,-348.006 L -0.562134,-348.053 L -0.927048,-348.147 L -1.27733,-348.286 L -1.60747,-348.467 L -1.91226,-348.688
 L -2.1869,-348.946 L -2.42705,-349.237 L -2.62891,-349.555 L -2.78932,-349.896 L -2.90575,-350.254 L -2.97633,-350.624
 L -3,-351 L -2.97633,-351.376 L -2.90575,-351.746 L -2.78932,-352.104 L -2.62891,-352.445 L -2.42705,-352.763
 L -2.1869,-353.054 L -1.91226,-353.312 L -1.60747,-353.533 L -1.27733,-353.714 L -0.927048,-353.853 L -0.562134,-353.947
 L -0.18837,-353.994 L 0.18837,-353.994 L 0.562134,-353.947 L 0.927048,-353.853 L 1.27733,-353.714 L 1.60747,-353.533
 L 1.91226,-353.312 L 2.1869,-353.054 L 2.42705,-352.763 L 2.62891,-352.445 L 2.78932,-352.104 L 2.90575,-351.746
 L 2.97633,-351.376 L 3,-351 L 2.97633,-350.624 L 2.90575,-350.254 L 2.78932,-349.896 L 2.62891,-349.555
 L 2.42705,-349.237 L 2.1869,-348.946 L 1.91226,-348.688 L 1.60747,-348.467 L 1.27733,-348.286 L 0.927048,-348.147
 L 0.562134,-348.053 L 0.18837,-348.006 z
M -0.18837,-333.006 L -0.562134,-333.053 L -0.927048,-333.147 L -1.27733,-333.286 L -1.60747,-333.467 L -1.91226,-333.688
 L -2.1869,-333.946 L -2.42705,-334.237 L -2.62891,-334.555 L -2.78932,-334.896 L -2.90575,-335.254 L -2.97633,-335.624
 L -3,-336 L -2.97633,-336.376 L -2.90575,-336.746 L -2.78932,-337.104 L -2.62891,-337.445 L -2.42705,-337.763
 L -2.1869,-338.054 L -1.91226,-338.312 L -1.60747,-338.533 L -1.27733,-338.714 L -0.927048,-338.853 L -0.562134,-338.947
 L -0.18837,-338.994 L 0.18837,-338.994 L 0.562134,-338.947 L 0.927048,-338.853 L 1.27733,-338.714 L 1.60747,-338.533
 L 1.91226,-338.312 L 2.1869,-338.054 L 2.42705,-337.763 L 2.62891,-337.445 L 2.78932,-337.104 L 2.90575,-336.746
 L 2.97633,-336.376 L 3,-336 L 2.97633,-335.624 L 2.90575,-335.254 L 2.78932,-334.896 L 2.62891,-334.555
 L 2.42705,-334.237 L 2.1869,-333.946 L 1.91226,-333.688 L 1.60747,-333.467 L 1.27733,-333.286 L 0.927048,-333.147
 L 0.562134,-333.053 L 0.18837,-333.006 z
M 14.8116,-333.006 L 14.4379,-333.053 L 14.0729,-333.147 L 13.7227,-333.286 L 13.3925,-333.467 L 13.0877,-333.688
 L 12.8131,-333.946 L 12.5729,-334.237 L 12.3711,-334.555 L 12.2107,-334.896 L 12.0942,-335.254 L 12.0237,-335.624
 L 12,-336 L 12.0237,-336.376 L 12.0942,-336.746 L 12.2107,-337.104 L 12.3711,-337.445 L 12.5729,-337.763
 L 12.8131,-338.054 L 13.0877,-338.312 L 13.3925,-338.533 L 13.7227,-338.714 L 14.0729,-338.853 L 14.4379,-338.947
 L 14.8116,-338.994 L 15.1884,-338.994 L 15.5621,-338.947 L 15.927,-338.853 L 16.2773,-338.714 L 16.6075,-338.533
 L 16.9123,-338.312 L 17.1869,-338.054 L 17.427,-337.763 L 17.6289,-337.445 L 17.7893,-337.104 L 17.9057,-336.746
 L 17.9763,-336.376 L 18,-336 L 17.9763,-335.624 L 17.9057,-335.254 L 17.7893,-334.896 L 17.6289,-334.555
 L 17.427,-334.237 L 17.1869,-333.946 L 16.9123,-333.688 L 16.6075,-333.467 L 16.2773,-333.286 L 15.927,-333.147
 L 15.5621,-333.053 L 15.1884,-333.006 z
M -15.1884,-333.006 L -15.5621,-333.053 L -15.927,-333.147 L -16.2773,-333.286 L -16.6075,-333.467 L -16.9123,-333.688
 L -17.1869,-333.946 L -17.427,-334.237 L -17.6289,-334.555 L -17.7893,-334.896 L -17.9057,-335.254 L -17.9763,-335.624
 L -18,-336 L -17.9763,-336.376 L -17.9057,-336.746 L -17.7893,-337.104 L -17.6289,-337.445 L -17.427,-337.763
 L -17.1869,-338.054 L -16.9123,-338.312 L -16.6075,-338.533 L -16.2773,-338.714 L -15.927,-338.853 L -15.5621,-338.947
 L -15.1884,-338.994 L -14.8116,-338.994 L -14.4379,-338.947 L -14.0729,-338.853 L -13.7227,-338.714 L -13.3925,-338.533
 L -13.0877,-338.312 L -12.8131,-338.054 L -12.5729,-337.763 L -12.3711,-337.445 L -12.2107,-337.104 L -12.0942,-336.746
 L -12.0237,-336.376 L -12,-336 L -12.0237,-335.624 L -12.0942,-335.254 L -12.2107,-334.896 L -12.3711,-334.555
 L -12.5729,-334.237 L -12.8131,-333.946 L -13.0877,-333.688 L -13.3925,-333.467 L -13.7227,-333.286 L -14.0729,-333.147
 L -14.4379,-333.053 L -14.8116,-333.006 z
M -30.1884,-333.006 L -30.5621,-333.053 L -30.927,-333.147 L -31.2773,-333.286 L -31.6075,-333.467 L -31.9123,-333.688
 L -32.1869,-333.946 L -32.427,-334.237 L -32.6289,-334.555 L -32.7893,-334.896 L -32.9057,-335.254 L -32.9763,-335.624
 L -33,-336 L -32.9763,-336.376 L -32.9057,-336.746 L -32.7893,-337.104 L -32.6289,-337.445 L -32.427,-337.763
 L -32.1869,-338.054 L -31.9123,-338.312 L -31.6075,-338.533 L -31.2773,-338.714 L -30.927,-338.853 L -30.5621,-338.947
 L -30.1884,-338.994 L -29.8116,-338.994 L -29.4379,-338.947 L -29.0729,-338.853 L -28.7227,-338.714 L -28.3925,-338.533
 L -28.0877,-338.312 L -27.8131,-338.054 L -27.5729,-337.763 L -27.3711,-337.445 L -27.2107,-337.104 L -27.0942,-336.746
 L -27.0237,-336.376 L -27,-336 L -27.0237,-335.624 L -27.0942,-335.254 L -27.2107,-334.896 L -27.3711,-334.555
 L -27.5729,-334.237 L -27.8131,-333.946 L -28.0877,-333.688 L -28.3925,-333.467 L -28.7227,-333.286 L -29.0729,-333.147
 L -29.4379,-333.053 L -29.8116,-333.006 z
M 29.8116,-333.006 L 29.4379,-333.053 L 29.0729,-333.147 L 28.7227,-333.286 L 28.3925,-333.467 L 28.0877,-333.688
 L 27.8131,-333.946 L 27.5729,-334.237 L 27.3711,-334.555 L 27.2107,-334.896 L 27.0942,-335.254 L 27.0237,-335.624
 L 27,-336 L 27.0237,-336.376 L 27.0942,-336.746 L 27.2107,-337.104 L 27.3711,-337.445 L 27.5729,-337.763
 L 27.8131,-338.054 L 28.0877,-338.312 L 28.3925,-338.533 L 28.7227,-338.714 L 29.0729,-338.853 L 29.4379,-338.947
 L 29.8116,-338.994 L 30.1884,-338.994 L 30.5621,-338.947 L 30.927,-338.853 L 31.2773,-338.714 L 31.6075,-338.533
 L 31.9123,-338.312 L 32.1869,-338.054 L 32.427,-337.763 L 32.6289,-337.445 L 32.7893,-337.104 L 32.9057,-336.746
 L 32.9763,-336.376 L 33,-336 L 32.9763,-335.624 L 32.9057,-335.254 L 32.7893,-334.896 L 32.6289,-334.555
 L 32.427,-334.237 L 32.1869,-333.946 L 31.9123,-333.688 L 31.6075,-333.467 L 31.2773,-333.286 L 30.927,-333.147
 L 30.5621,-333.053 L 30.1884,-333.006 z
M 14.8116,-318.006 L 14.4379,-318.053 L 14.0729,-318.147 L 13.7227,-318.286 L 13.3925,-318.467 L 13.0877,-318.688
 L 12.8131,-318.946 L 12.5729,-319.237 L 12.3711,-319.555 L 12.2107,-319.896 L 12.0942,-320.254 L 12.0237,-320.624
 L 12,-321 L 12.0237,-321.376 L 12.0942,-321.746 L 12.2107,-322.104 L 12.3711,-322.445 L 12.5729,-322.763
 L 12.8131,-323.054 L 13.0877,-323.312 L 13.3925,-323.533 L 13.7227,-323.714 L 14.0729,-323.853 L 14.4379,-323.947
 L 14.8116,-323.994 L 15.1884,-323.994 L 15.5621,-323.947 L 15.927,-323.853 L 16.2773,-323.714 L 16.6075,-323.533
 L 16.9123,-323.312 L 17.1869,-323.054 L 17.427,-322.763 L 17.6289,-322.445 L 17.7893,-322.104 L 17.9057,-321.746
 L 17.9763,-321.376 L 18,-321 L 17.9763,-320.624 L 17.9057,-320.254 L 17.7893,-319.896 L 17.6289,-319.555
 L 17.427,-319.237 L 17.1869,-318.946 L 16.9123,-318.688 L 16.6075,-318.467 L 16.2773,-318.286 L 15.927,-318.147
 L 15.5621,-318.053 L 15.1884,-318.006 z
M 29.8116,-318.006 L 29.4379,-318.053 L 29.0729,-318.147 L 28.7227,-318.286 L 28.3925,-318.467 L 28.0877,-318.688
 L 27.8131,-318.946 L 27.5729,-319.237 L 27.3711,-319.555 L 27.2107,-319.896 L 27.0942,-320.254 L 27.0237,-320.624
 L 27,-321 L 27.0237,-321.376 L 27.0942,-321.746 L 27.2107,-322.104 L 27.3711,-322.445 L 27.5729,-322.763
 L 27.8131,-323.054 L 28.0877,-323.312 L 28.3925,-323.533 L 28.7227,-323.714 L 29.0729,-323.853 L 29.4379,-323.947
 L 29.8116,-323.994 L 30.1884,-323.994 L 30.5621,-323.947 L 30.927,-323.853 L 31.2773,-323.714 L 31.6075,-323.533
 L 31.9123,-323.312 L 32.1869,-323.054 L 32.427,-322.763 L 32.6289,-322.445 L 32.7893,-322.104 L 32.9057,-321.746
 L 32.9763,-321.376 L 33,-321 L 32.9763,-320.624 L 32.9057,-320.254 L 32.7893,-319.896 L 32.6289,-319.555
 L 32.427,-319.237 L 32.1869,-318.946 L 31.9123,-318.688 L 31.6075,-318.467 L 31.2773,-318.286 L 30.927,-318.147
 L 30.5621,-318.053 L 30.1884,-318.006 z
M -15.1884,-318.006 L -15.5621,-318.053 L -15.927,-318.147 L -16.2773,-318.286 L -16.6075,-318.467 L -16.9123,-318.688
 L -17.1869,-318.946 L -17.427,-319.237 L -17.6289,-319.555 L -17.7893,-319.896 L -17.9057,-320.254 L -17.9763,-320.624
 L -18,-321 L -17.9763,-321.376 L -17.9057,-321.746 L -17.7893,-322.104 L -17.6289,-322.445 L -17.427,-322.763
 L -17.1869,-323.054 L -16.9123,-323.312 L -16.6075,-323.533 L -16.2773,-323.714 L -15.927,-323.853 L -15.5621,-323.947
 L -15.1884,-323.994 L -14.8116,-323.994 L -14.4379,-323.947 L -14.0729,-323.853 L -13.7227,-323.714 L -13.3925,-323.533
 L -13.0877,-323.312 L -12.8131,-323.054 L -12.5729,-322.763 L -12.3711,-322.445 L -12.2107,-322.104 L -12.0942,-321.746
 L -12.0237,-321.376 L -12,-321 L -12.0237,-320.624 L -12.0942,-320.254 L -12.2107,-319.896 L -12.3711,-319.555
 L -12.5729,-319.237 L -12.8131,-318.946 L -13.0877,-318.688 L -13.3925,-318.467 L -13.7227,-318.286 L -14.0729,-318.147
 L -14.4379,-318.053 L -14.8116,-318.006 z
M -30.1884,-318.006 L -30.5621,-318.053 L -30.927,-318.147 L -31.2773,-318.286 L -31.6075,-318.467 L -31.9123,-318.688
 L -32.1869,-318.946 L -32.427,-319.237 L -32.6289,-319.555 L -32.7893,-319.896 L -32.9057,-320.254 L -32.9763,-320.624
 L -33,-321 L -32.9763,-321.376 L -32.9057,-321.746 L -32.7893,-322.104 L -32.6289,-322.445 L -32.427,-322.763
 L -32.1869,-323.054 L -31.9123,-323.312 L -31.6075,-323.533 L -31.2773,-323.714 L -30.927,-323.853 L -30.5621,-323.947
 L -30.1884,-323.994 L -29.8116,-323.994 L -29.4379,-323.947 L -29.0729,-323.853 L -28.7227,-323.714 L -28.3925,-323.533
 L -28.0877,-323.312 L -27.8131,-323.054 L -27.5729,-322.763 L -27.3711,-322.445 L -27.2107,-322.104 L -27.0942,-321.746
 L -27.0237,-321.376 L -27,-321 L -27.0237,-320.624 L -27.0942,-320.254 L -27.2107,-319.896 L -27.3711,-319.555
 L -27.5729,-319.237 L -27.8131,-318.946 L -28.0877,-318.688 L -28.3925,-318.467 L -28.7227,-318.286 L -29.0729,-318.147
 L -29.4379,-318.053 L -29.8116,-318.006 z
M -0.18837,-318.006 L -0.562134,-318.053 L -0.927048,-318.147 L -1.27733,-318.286 L -1.60747,-318.467 L -1.91226,-318.688
 L -2.1869,-318.946 L -2.42705,-319.237 L -2.62891,-319.555 L -2.78932,-319.896 L -2.90575,-320.254 L -2.97633,-320.624
 L -3,-321 L -2.97633,-321.376 L -2.90575,-321.746 L -2.78932,-322.104 L -2.62891,-322.445 L -2.42705,-322.763
 L -2.1869,-323.054 L -1.91226,-323.312 L -1.60747,-323.533 L -1.27733,-323.714 L -0.927048,-323.853 L -0.562134,-323.947
 L -0.18837,-323.994 L 0.18837,-323.994 L 0.562134,-323.947 L 0.927048,-323.853 L 1.27733,-323.714 L 1.60747,-323.533
 L 1.91226,-323.312 L 2.1869,-323.054 L 2.42705,-322.763 L 2.62891,-322.445 L 2.78932,-322.104 L 2.90575,-321.746
 L 2.97633,-321.376 L 3,-321 L 2.97633,-320.624 L 2.90575,-320.254 L 2.78932,-319.896 L 2.62891,-319.555
 L 2.42705,-319.237 L 2.1869,-318.946 L 1.91226,-318.688 L 1.60747,-318.467 L 1.27733,-318.286 L 0.927048,-318.147
 L 0.562134,-318.053 L 0.18837,-318.006 z
M 29.8116,-303.006 L 29.4379,-303.053 L 29.0729,-303.147 L 28.7227,-303.286 L 28.3925,-303.467 L 28.0877,-303.688
 L 27.8131,-303.946 L 27.5729,-304.237 L 27.3711,-304.555 L 27.2107,-304.896 L 27.0942,-305.254 L 27.0237,-305.624
 L 27,-306 L 27.0237,-306.376 L 27.0942,-306.746 L 27.2107,-307.104 L 27.3711,-307.445 L 27.5729,-307.763
 L 27.8131,-308.054 L 28.0877,-308.312 L 28.3925,-308.533 L 28.7227,-308.714 L 29.0729,-308.853 L 29.4379,-308.947
 L 29.8116,-308.994 L 30.1884,-308.994 L 30.5621,-308.947 L 30.927,-308.853 L 31.2773,-308.714 L 31.6075,-308.533
 L 31.9123,-308.312 L 32.1869,-308.054 L 32.427,-307.763 L 32.6289,-307.445 L 32.7893,-307.104 L 32.9057,-306.746
 L 32.9763,-306.376 L 33,-306 L 32.9763,-305.624 L 32.9057,-305.254 L 32.7893,-304.896 L 32.6289,-304.555
 L 32.427,-304.237 L 32.1869,-303.946 L 31.9123,-303.688 L 31.6075,-303.467 L 31.2773,-303.286 L 30.927,-303.147
 L 30.5621,-303.053 L 30.1884,-303.006 z
M -0.18837,-303.006 L -0.562134,-303.053 L -0.927048,-303.147 L -1.27733,-303.286 L -1.60747,-303.467 L -1.91226,-303.688
 L -2.1869,-303.946 L -2.42705,-304.237 L -2.62891,-304.555 L -2.78932,-304.896 L -2.90575,-305.254 L -2.97633,-305.624
 L -3,-306 L -2.97633,-306.376 L -2.90575,-306.746 L -2.78932,-307.104 L -2.62891,-307.445 L -2.42705,-307.763
 L -2.1869,-308.054 L -1.91226,-308.312 L -1.60747,-308.533 L -1.27733,-308.714 L -0.927048,-308.853 L -0.562134,-308.947
 L -0.18837,-308.994 L 0.18837,-308.994 L 0.562134,-308.947 L 0.927048,-308.853 L 1.27733,-308.714 L 1.60747,-308.533
 L 1.91226,-308.312 L 2.1869,-308.054 L 2.42705,-307.763 L 2.62891,-307.445 L 2.78932,-307.104 L 2.90575,-306.746
 L 2.97633,-306.376 L 3,-306 L 2.97633,-305.624 L 2.90575,-305.254 L 2.78932,-304.896 L 2.62891,-304.555
 L 2.42705,-304.237 L 2.1869,-303.946 L 1.91226,-303.688 L 1.60747,-303.467 L 1.27733,-303.286 L 0.927048,-303.147
 L 0.562134,-303.053 L 0.18837,-303.006 z
M -30.1884,-303.006 L -30.5621,-303.053 L -30.927,-303.147 L -31.2773,-303.286 L -31.6075,-303.467 L -31.9123,-303.688
 L -32.1869,-303.946 L -32.427,-304.237 L -32.6289,-304.555 L -32.7893,-304.896 L -32.9057,-305.254 L -32.9763,-305.624
 L -33,-306 L -32.9763,-306.376 L -32.9057,-306.746 L -32.7893,-307.104 L -32.6289,-307.445 L -32.427,-307.763
 L -32.1869,-308.054 L -31.9123,-308.312 L -31.6075,-308.533 L -31.2773,-308.714 L -30.927,-308.853 L -30.5621,-308.947
 L -30.1884,-308.994 L -29.8116,-308.994 L -29.4379,-308.947 L -29.0729,-308.853 L -28.7227,-308.714 L -28.3925,-308.533
 L -28.0877,-308.312 L -27.8131,-308.054 L -27.5729,-307.763 L -27.3711,-307.445 L -27.2107,-307.104 L -27.0942,-306.746
 L -27.0237,-306.376 L -27,-306 L -27.0237,-305.624 L -27.0942,-305.254 L -27.2107,-304.896 L -27.3711,-304.555
 L -27.5729,-304.237 L -27.8131,-303.946 L -28.0877,-303.688 L -28.3925,-303.467 L -28.7227,-303.286 L -29.0729,-303.147
 L -29.4379,-303.053 L -29.8116,-303.006 z
M 14.8116,-303.006 L 14.4379,-303.053 L 14.0729,-303.147 L 13.7227,-303.286 L 13.3925,-303.467 L 13.0877,-303.688
 L 12.8131,-303.946 L 12.5729,-304.237 L 12.3711,-304.555 L 12.2107,-304.896 L 12.0942,-305.254 L 12.0237,-305.624
 L 12,-306 L 12.0237,-306.376 L 12.0942,-306.746 L 12.2107,-307.104 L 12.3711,-307.445 L 12.5729,-307.763
 L 12.8131,-308.054 L 13.0877,-308.312 L 13.3925,-308.533 L 13.7227,-308.714 L 14.0729,-308.853 L 14.4379,-308.947
 L 14.8116,-308.994 L 15.1884,-308.994 L 15.5621,-308.947 L 15.927,-308.853 L 16.2773,-308.714 L 16.6075,-308.533
 L 16.9123,-308.312 L 17.1869,-308.054 L 17.427,-307.763 L 17.6289,-307.445 L 17.7893,-307.104 L 17.9057,-306.746
 L 17.9763,-306.376 L 18,-306 L 17.9763,-305.624 L 17.9057,-305.254 L 17.7893,-304.896 L 17.6289,-304.555
 L 17.427,-304.237 L 17.1869,-303.946 L 16.9123,-303.688 L 16.6075,-303.467 L 16.2773,-303.286 L 15.927,-303.147
 L 15.5621,-303.053 L 15.1884,-303.006 z
M -15.1884,-303.006 L -15.5621,-303.053 L -15.927,-303.147 L -16.2773,-303.286 L -16.6075,-303.467 L -16.9123,-303.688
 L -17.1869,-303.946 L -17.427,-304.237 L -17.6289,-304.555 L -17.7893,-304.896 L -17.9057,-305.254 L -17.9763,-305.624
 L -18,-306 L -17.9763,-306.376 L -17.9057,-306.746 L -17.7893,-307.104 L -17.6289,-307.445 L -17.427,-307.763
 L -17.1869,-308.054 L -16.9123,-308.312 L -16.6075,-308.533 L -16.2773,-308.714 L -15.927,-308.853 L -15.5621,-308.947
 L -15.1884,-308.994 L -14.8116,-308.994 L -14.4379,-308.947 L -14.0729,-308.853 L -13.7227,-308.714 L -13.3925,-308.533
 L -13.0877,-308.312 L -12.8131,-308.054 L -12.5729,-307.763 L -12.3711,-307.445 L -12.2107,-307.104 L -12.0942,-306.746
 L -12.0237,-306.376 L -12,-306 L -12.0237,-305.624 L -12.0942,-305.254 L -12.2107,-304.896 L -12.3711,-304.555
 L -12.5729,-304.237 L -12.8131,-303.946 L -13.0877,-303.688 L -13.3925,-303.467 L -13.7227,-303.286 L -14.0729,-303.147
 L -14.4379,-303.053 L -14.8116,-303.006 z
M 32.9369,-215.089 L 33.5451,-215.245 L 34.1289,-215.476 L 34.6791,-215.778 L 35.1871,-216.147 L 35.6448,-216.577
 L 36.0451,-217.061 L 36.3815,-217.591 L 36.6489,-218.159 L 36.8429,-218.757 L 36.9606,-219.373 L 37,-220
 L 37,-284 L 36.9606,-284.627 L 36.8429,-285.243 L 36.6489,-285.841 L 36.3815,-286.409 L 36.0451,-286.939
 L 35.6448,-287.423 L 35.1871,-287.853 L 34.6791,-288.222 L 34.1289,-288.524 L 33.5451,-288.755 L 32.9369,-288.911
 L 32.3139,-288.99 L -32.3139,-288.99 L -32.9369,-288.911 L -33.5451,-288.755 L -34.1289,-288.524 L -34.6791,-288.222
 L -35.1871,-287.853 L -35.6448,-287.423 L -36.0451,-286.939 L -36.3815,-286.409 L -36.6489,-285.841 L -36.8429,-285.243
 L -36.9606,-284.627 L -37,-284 L -37,-220 L -36.9606,-219.373 L -36.8429,-218.757 L -36.6489,-218.159
 L -36.3815,-217.591 L -36.0451,-217.061 L -35.6448,-216.577 L -35.1871,-216.147 L -34.6791,-215.778 L -34.1289,-215.476
 L -33.5451,-215.245 L -32.9369,-215.089 L -32.3139,-215.01 L 32.3139,-215.01 z
M -0.18837,-279.006 L -0.562134,-279.053 L -0.927048,-279.147 L -1.27733,-279.286 L -1.60747,-279.467 L -1.91226,-279.688
 L -2.1869,-279.946 L -2.42705,-280.237 L -2.62891,-280.555 L -2.78932,-280.896 L -2.90575,-281.254 L -2.97633,-281.624
 L -3,-282 L -2.97633,-282.376 L -2.90575,-282.746 L -2.78932,-283.104 L -2.62891,-283.445 L -2.42705,-283.763
 L -2.1869,-284.054 L -1.91226,-284.312 L -1.60747,-284.533 L -1.27733,-284.714 L -0.927048,-284.853 L -0.562134,-284.947
 L -0.18837,-284.994 L 0.18837,-284.994 L 0.562134,-284.947 L 0.927048,-284.853 L 1.27733,-284.714 L 1.60747,-284.533
 L 1.91226,-284.312 L 2.1869,-284.054 L 2.42705,-283.763 L 2.62891,-283.445 L 2.78932,-283.104 L 2.90575,-282.746
 L 2.97633,-282.376 L 3,-282 L 2.97633,-281.624 L 2.90575,-281.254 L 2.78932,-280.896 L 2.62891,-280.555
 L 2.42705,-280.237 L 2.1869,-279.946 L 1.91226,-279.688 L 1.60747,-279.467 L 1.27733,-279.286 L 0.927048,-279.147
 L 0.562134,-279.053 L 0.18837,-279.006 z
M -30.1884,-279.006 L -30.5621,-279.053 L -30.927,-279.147 L -31.2773,-279.286 L -31.6075,-279.467 L -31.9123,-279.688
 L -32.1869,-279.946 L -32.427,-280.237 L -32.6289,-280.555 L -32.7893,-280.896 L -32.9057,-281.254 L -32.9763,-281.624
 L -33,-282 L -32.9763,-282.376 L -32.9057,-282.746 L -32.7893,-283.104 L -32.6289,-283.445 L -32.427,-283.763
 L -32.1869,-284.054 L -31.9123,-284.312 L -31.6075,-284.533 L -31.2773,-284.714 L -30.927,-284.853 L -30.5621,-284.947
 L -30.1884,-284.994 L -29.8116,-284.994 L -29.4379,-284.947 L -29.0729,-284.853 L -28.7227,-284.714 L -28.3925,-284.533
 L -28.0877,-284.312 L -27.8131,-284.054 L -27.5729,-283.763 L -27.3711,-283.445 L -27.2107,-283.104 L -27.0942,-282.746
 L -27.0237,-282.376 L -27,-282 L -27.0237,-281.624 L -27.0942,-281.254 L -27.2107,-280.896 L -27.3711,-280.555
 L -27.5729,-280.237 L -27.8131,-279.946 L -28.0877,-279.688 L -28.3925,-279.467 L -28.7227,-279.286 L -29.0729,-279.147
 L -29.4379,-279.053 L -29.8116,-279.006 z
M 14.8116,-279.006 L 14.4379,-279.053 L 14.0729,-279.147 L 13.7227,-279.286 L 13.3925,-279.467 L 13.0877,-279.688
 L 12.8131,-279.946 L 12.5729,-280.237 L 12.3711,-280.555 L 12.2107,-280.896 L 12.0942,-281.254 L 12.0237,-281.624
 L 12,-282 L 12.0237,-282.376 L 12.0942,-282.746 L 12.2107,-283.104 L 12.3711,-283.445 L 12.5729,-283.763
 L 12.8131,-284.054 L 13.0877,-284.312 L 13.3925,-284.533 L 13.7227,-284.714 L 14.0729,-284.853 L 14.4379,-284.947
 L 14.8116,-284.994 L 15.1884,-284.994 L 15.5621,-284.947 L 15.927,-284.853 L 16.2773,-284.714 L 16.6075,-284.533
 L 16.9123,-284.312 L 17.1869,-284.054 L 17.427,-283.763 L 17.6289,-283.445 L 17.7893,-283.104 L 17.9057,-282.746
 L 17.9763,-282.376 L 18,-282 L 17.9763,-281.624 L 17.9057,-281.254 L 17.7893,-280.896 L 17.6289,-280.555
 L 17.427,-280.237 L 17.1869,-279.946 L 16.9123,-279.688 L 16.6075,-279.467 L 16.2773,-279.286 L 15.927,-279.147
 L 15.5621,-279.053 L 15.1884,-279.006 z
M 29.8116,-279.006 L 29.4379,-279.053 L 29.0729,-279.147 L 28.7227,-279.286 L 28.3925,-279.467 L 28.0877,-279.688
 L 27.8131,-279.946 L 27.5729,-280.237 L 27.3711,-280.555 L 27.2107,-280.896 L 27.0942,-281.254 L 27.0237,-281.624
 L 27,-282 L 27.0237,-282.376 L 27.0942,-282.746 L 27.2107,-283.104 L 27.3711,-283.445 L 27.5729,-283.763
 L 27.8131,-284.054 L 28.0877,-284.312 L 28.3925,-284.533 L 28.7227,-284.714 L 29.0729,-284.853 L 29.4379,-284.947
 L 29.8116,-284.994 L 30.1884,-284.994 L 30.5621,-284.947 L 30.927,-284.853 L 31.2773,-284.714 L 31.6075,-284.533
 L 31.9123,-284.312 L 32.1869,-284.054 L 32.427,-283.763 L 32.6289,-283.445 L 32.7893,-283.104 L 32.9057,-282.746
 L 32.9763,-282.376 L 33,-282 L 32.9763,-281.624 L 32.9057,-281.254 L 32.7893,-280.896 L 32.6289,-280.555
 L 32.427,-280.237 L 32.1869,-279.946 L 31.9123,-279.688 L 31.6075,-279.467 L 31.2773,-279.286 L 30.927,-279.147
 L 30.5621,-279.053 L 30.1884,-279.006 z
M -15.1884,-279.006 L -15.5621,-279.053 L -15.927,-279.147 L -16.2773,-279.286 L -16.6075,-279.467 L -16.9123,-279.688
 L -17.1869,-279.946 L -17.427,-280.237 L -17.6289,-280.555 L -17.7893,-280.896 L -17.9057,-281.254 L -17.9763,-281.624
 L -18,-282 L -17.9763,-282.376 L -17.9057,-282.746 L -17.7893,-283.104 L -17.6289,-283.445 L -17.427,-283.763
 L -17.1869,-284.054 L -16.9123,-284.312 L -16.6075,-284.533 L -16.2773,-284.714 L -15.927,-284.853 L -15.5621,-284.947
 L -15.1884,-284.994 L -14.8116,-284.994 L -14.4379,-284.947 L -14.0729,-284.853 L -13.7227,-284.714 L -13.3925,-284.533
 L -13.0877,-284.312 L -12.8131,-284.054 L -12.5729,-283.763 L -12.3711,-283.445 L -12.2107,-283.104 L -12.0942,-282.746
 L -12.0237,-282.376 L -12,-282 L -12.0237,-281.624 L -12.0942,-281.254 L -12.2107,-280.896 L -12.3711,-280.555
 L -12.5729,-280.237 L -12.8131,-279.946 L -13.0877,-279.688 L -13.3925,-279.467 L -13.7227,-279.286 L -14.0729,-279.147
 L -14.4379,-279.053 L -14.8116,-279.006 z
M -0.18837,-264.006 L -0.562134,-264.053 L -0.927048,-264.147 L -1.27733,-264.286 L -1.60747,-264.467 L -1.91226,-264.688
 L -2.1869,-264.946 L -2.42705,-265.237 L -2.62891,-265.555 L -2.78932,-265.896 L -2.90575,-266.254 L -2.97633,-266.624
 L -3,-267 L -2.97633,-267.376 L -2.90575,-267.746 L -2.78932,-268.104 L -2.62891,-268.445 L -2.42705,-268.763
 L -2.1869,-269.054 L -1.91226,-269.312 L -1.60747,-269.533 L -1.27733,-269.714 L -0.927048,-269.853 L -0.562134,-269.947
 L -0.18837,-269.994 L 0.18837,-269.994 L 0.562134,-269.947 L 0.927048,-269.853 L 1.27733,-269.714 L 1.60747,-269.533
 L 1.91226,-269.312 L 2.1869,-269.054 L 2.42705,-268.763 L 2.62891,-268.445 L 2.78932,-268.104 L 2.90575,-267.746
 L 2.97633,-267.376 L 3,-267 L 2.97633,-266.624 L 2.90575,-266.254 L 2.78932,-265.896 L 2.62891,-265.555
 L 2.42705,-265.237 L 2.1869,-264.946 L 1.91226,-264.688 L 1.60747,-264.467 L 1.27733,-264.286 L 0.927048,-264.147
 L 0.562134,-264.053 L 0.18837,-264.006 z
M -30.1884,-264.006 L -30.5621,-264.053 L -30.927,-264.147 L -31.2773,-264.286 L -31.6075,-264.467 L -31.9123,-264.688
 L -32.1869,-264.946 L -32.427,-265.237 L -32.6289,-265.555 L -32.7893,-265.896 L -32.9057,-266.254 L -32.9763,-266.624
 L -33,-267 L -32.9763,-267.376 L -32.9057,-267.746 L -32.7893,-268.104 L -32.6289,-268.445 L -32.427,-268.763
 L -32.1869,-269.054 L -31.9123,-269.312 L -31.6075,-269.533 L -31.2773,-269.714 L -30.927,-269.853 L -30.5621,-269.947
 L -30.1884,-269.994 L -29.8116,-269.994 L -29.4379,-269.947 L -29.0729,-269.853 L -28.7227,-269.714 L -28.3925,-269.533
 L -28.0877,-269.312 L -27.8131,-269.054 L -27.5729,-268.763 L -27.3711,-268.445 L -27.2107,-268.104 L -27.0942,-267.746
 L -27.0237,-267.376 L -27,-267 L -27.0237,-266.624 L -27.0942,-266.254 L -27.2107,-265.896 L -27.3711,-265.555
 L -27.5729,-265.237 L -27.8131,-264.946 L -28.0877,-264.688 L -28.3925,-264.467 L -28.7227,-264.286 L -29.0729,-264.147
 L -29.4379,-264.053 L -29.8116,-264.006 z
M -15.1884,-264.006 L -15.5621,-264.053 L -15.927,-264.147 L -16.2773,-264.286 L -16.6075,-264.467 L -16.9123,-264.688
 L -17.1869,-264.946 L -17.427,-265.237 L -17.6289,-265.555 L -17.7893,-265.896 L -17.9057,-266.254 L -17.9763,-266.624
 L -18,-267 L -17.9763,-267.376 L -17.9057,-267.746 L -17.7893,-268.104 L -17.6289,-268.445 L -17.427,-268.763
 L -17.1869,-269.054 L -16.9123,-269.312 L -16.6075,-269.533 L -16.2773,-269.714 L -15.927,-269.853 L -15.5621,-269.947
 L -15.1884,-269.994 L -14.8116,-269.994 L -14.4379,-269.947 L -14.0729,-269.853 L -13.7227,-269.714 L -13.3925,-269.533
 L -13.0877,-269.312 L -12.8131,-269.054 L -12.5729,-268.763 L -12.3711,-268.445 L -12.2107,-268.104 L -12.0942,-267.746
 L -12.0237,-267.376 L -12,-267 L -12.0237,-266.624 L -12.0942,-266.254 L -12.2107,-265.896 L -12.3711,-265.555
 L -12.5729,-265.237 L -12.8131,-264.946 L -13.0877,-264.688 L -13.3925,-264.467 L -13.7227,-264.286 L -14.0729,-264.147
 L -14.4379,-264.053 L -14.8116,-264.006 z
M 29.8116,-264.006 L 29.4379,-264.053 L 29.0729,-264.147 L 28.7227,-264.286 L 28.3925,-264.467 L 28.0877,-264.688
 L 27.8131,-264.946 L 27.5729,-265.237 L 27.3711,-265.555 L 27.2107,-265.896 L 27.0942,-266.254 L 27.0237,-266.624
 L 27,-267 L 27.0237,-267.376 L 27.0942,-267.746 L 27.2107,-268.104 L 27.3711,-268.445 L 27.5729,-268.763
 L 27.8131,-269.054 L 28.0877,-269.312 L 28.3925,-269.533 L 28.7227,-269.714 L 29.0729,-269.853 L 29.4379,-269.947
 L 29.8116,-269.994 L 30.1884,-269.994 L 30.5621,-269.947 L 30.927,-269.853 L 31.2773,-269.714 L 31.6075,-269.533
 L 31.9123,-269.312 L 32.1869,-269.054 L 32.427,-268.763 L 32.6289,-268.445 L 32.7893,-268.104 L 32.9057,-267.746
 L 32.9763,-267.376 L 33,-267 L 32.9763,-266.624 L 32.9057,-266.254 L 32.7893,-265.896 L 32.6289,-265.555
 L 32.427,-265.237 L 32.1869,-264.946 L 31.9123,-264.688 L 31.6075,-264.467 L 31.2773,-264.286 L 30.927,-264.147
 L 30.5621,-264.053 L 30.1884,-264.006 z
M 14.8116,-264.006 L 14.4379,-264.053 L 14.0729,-264.147 L 13.7227,-264.286 L 13.3925,-264.467 L 13.0877,-264.688
 L 12.8131,-264.946 L 12.5729,-265.237 L 12.3711,-265.555 L 12.2107,-265.896 L 12.0942,-266.254 L 12.0237,-266.624
 L 12,-267 L 12.0237,-267.376 L 12.0942,-267.746 L 12.2107,-268.104 L 12.3711,-268.445 L 12.5729,-268.763
 L 12.8131,-269.054 L 13.0877,-269.312 L 13.3925,-269.533 L 13.7227,-269.714 L 14.0729,-269.853 L 14.4379,-269.947
 L 14.8116,-269.994 L 15.1884,-269.994 L 15.5621,-269.947 L 15.927,-269.853 L 16.2773,-269.714 L 16.6075,-269.533
 L 16.9123,-269.312 L 17.1869,-269.054 L 17.427,-268.763 L 17.6289,-268.445 L 17.7893,-268.104 L 17.9057,-267.746
 L 17.9763,-267.376 L 18,-267 L 17.9763,-266.624 L 17.9057,-266.254 L 17.7893,-265.896 L 17.6289,-265.555
 L 17.427,-265.237 L 17.1869,-264.946 L 16.9123,-264.688 L 16.6075,-264.467 L 16.2773,-264.286 L 15.927,-264.147
 L 15.5621,-264.053 L 15.1884,-264.006 z
M -15.1884,-249.006 L -15.5621,-249.053 L -15.927,-249.147 L -16.2773,-249.286 L -16.6075,-249.467 L -16.9123,-249.688
 L -17.1869,-249.946 L -17.427,-250.237 L -17.6289,-250.555 L -17.7893,-250.896 L -17.9057,-251.254 L -17.9763,-251.624
 L -18,-252 L -17.9763,-252.376 L -17.9057,-252.746 L -17.7893,-253.104 L -17.6289,-253.445 L -17.427,-253.763
 L -17.1869,-254.054 L -16.9123,-254.312 L -16.6075,-254.533 L -16.2773,-254.714 L -15.927,-254.853 L -15.5621,-254.947
 L -15.1884,-254.994 L -14.8116,-254.994 L -14.4379,-254.947 L -14.0729,-254.853 L -13.7227,-254.714 L -13.3925,-254.533
 L -13.0877,-254.312 L -12.8131,-254.054 L -12.5729,-253.763 L -12.3711,-253.445 L -12.2107,-253.104 L -12.0942,-252.746
 L -12.0237,-252.376 L -12,-252 L -12.0237,-251.624 L -12.0942,-251.254 L -12.2107,-250.896 L -12.3711,-250.555
 L -12.5729,-250.237 L -12.8131,-249.946 L -13.0877,-249.688 L -13.3925,-249.467 L -13.7227,-249.286 L -14.0729,-249.147
 L -14.4379,-249.053 L -14.8116,-249.006 z
M -0.18837,-249.006 L -0.562134,-249.053 L -0.927048,-249.147 L -1.27733,-249.286 L -1.60747,-249.467 L -1.91226,-249.688
 L -2.1869,-249.946 L -2.42705,-250.237 L -2.62891,-250.555 L -2.78932,-250.896 L -2.90575,-251.254 L -2.97633,-251.624
 L -3,-252 L -2.97633,-252.376 L -2.90575,-252.746 L -2.78932,-253.104 L -2.62891,-253.445 L -2.42705,-253.763
 L -2.1869,-254.054 L -1.91226,-254.312 L -1.60747,-254.533 L -1.27733,-254.714 L -0.927048,-254.853 L -0.562134,-254.947
 L -0.18837,-254.994 L 0.18837,-254.994 L 0.562134,-254.947 L 0.927048,-254.853 L 1.27733,-254.714 L 1.60747,-254.533
 L 1.91226,-254.312 L 2.1869,-254.054 L 2.42705,-253.763 L 2.62891,-253.445 L 2.78932,-253.104 L 2.90575,-252.746
 L 2.97633,-252.376 L 3,-252 L 2.97633,-251.624 L 2.90575,-251.254 L 2.78932,-250.896 L 2.62891,-250.555
 L 2.42705,-250.237 L 2.1869,-249.946 L 1.91226,-249.688 L 1.60747,-249.467 L 1.27733,-249.286 L 0.927048,-249.147
 L 0.562134,-249.053 L 0.18837,-249.006 z
M 14.8116,-249.006 L 14.4379,-249.053 L 14.0729,-249.147 L 13.7227,-249.286 L 13.3925,-249.467 L 13.0877,-249.688
 L 12.8131,-249.946 L 12.5729,-250.237 L 12.3711,-250.555 L 12.2107,-250.896 L 12.0942,-251.254 L 12.0237,-251.624
 L 12,-252 L 12.0237,-252.376 L 12.0942,-252.746 L 12.2107,-253.104 L 12.3711,-253.445 L 12.5729,-253.763
 L 12.8131,-254.054 L 13.0877,-254.312 L 13.3925,-254.533 L 13.7227,-254.714 L 14.0729,-254.853 L 14.4379,-254.947
 L 14.8116,-254.994 L 15.1884,-254.994 L 15.5621,-254.947 L 15.927,-254.853 L 16.2773,-254.714 L 16.6075,-254.533
 L 16.9123,-254.312 L 17.1869,-254.054 L 17.427,-253.763 L 17.6289,-253.445 L 17.7893,-253.104 L 17.9057,-252.746
 L 17.9763,-252.376 L 18,-252 L 17.9763,-251.624 L 17.9057,-251.254 L 17.7893,-250.896 L 17.6289,-250.555
 L 17.427,-250.237 L 17.1869,-249.946 L 16.9123,-249.688 L 16.6075,-249.467 L 16.2773,-249.286 L 15.927,-249.147
 L 15.5621,-249.053 L 15.1884,-249.006 z
M -30.1884,-249.006 L -30.5621,-249.053 L -30.927,-249.147 L -31.2773,-249.286 L -31.6075,-249.467 L -31.9123,-249.688
 L -32.1869,-249.946 L -32.427,-250.237 L -32.6289,-250.555 L -32.7893,-250.896 L -32.9057,-251.254 L -32.9763,-251.624
 L -33,-252 L -32.9763,-252.376 L -32.9057,-252.746 L -32.7893,-253.104 L -32.6289,-253.445 L -32.427,-253.763
 L -32.1869,-254.054 L -31.9123,-254.312 L -31.6075,-254.533 L -31.2773,-254.714 L -30.927,-254.853 L -30.5621,-254.947
 L -30.1884,-254.994 L -29.8116,-254.994 L -29.4379,-254.947 L -29.0729,-254.853 L -28.7227,-254.714 L -28.3925,-254.533
 L -28.0877,-254.312 L -27.8131,-254.054 L -27.5729,-253.763 L -27.3711,-253.445 L -27.2107,-253.104 L -27.0942,-252.746
 L -27.0237,-252.376 L -27,-252 L -27.0237,-251.624 L -27.0942,-251.254 L -27.2107,-250.896 L -27.3711,-250.555
 L -27.5729,-250.237 L -27.8131,-249.946 L -28.0877,-249.688 L -28.3925,-249.467 L -28.7227,-249.286 L -29.0729,-249.147
 L -29.4379,-249.053 L -29.8116,-249.006 z
M 29.8116,-249.006 L 29.4379,-249.053 L 29.0729,-249.147 L 28.7227,-249.286 L 28.3925,-249.467 L 28.0877,-249.688
 L 27.8131,-249.946 L 27.5729,-250.237 L 27.3711,-250.555 L 27.2107,-250.896 L 27.0942,-251.254 L 27.0237,-251.624
 L 27,-252 L 27.0237,-252.376 L 27.0942,-252.746 L 27.2107,-253.104 L 27.3711,-253.445 L 27.5729,-253.763
 L 27.8131,-254.054 L 28.0877,-254.312 L 28.3925,-254.533 L 28.7227,-254.714 L 29.0729,-254.853 L 29.4379,-254.947
 L 29.8116,-254.994 L 30.1884,-254.994 L 30.5621,-254.947 L 30.927,-254.853 L 31.2773,-254.714 L 31.6075,-254.533
 L 31.9123,-254.312 L 32.1869,-254.054 L 32.427,-253.763 L 32.6289,-253.445 L 32.7893,-253.104 L 32.9057,-252.746
 L 32.9763,-252.376 L 33,-252 L 32.9763,-251.624 L 32.9057,-251.254 L 32.7893,-250.896 L 32.6289,-250.555
 L 32.427,-250.237 L 32.1869,-249.946 L 31.9123,-249.688 L 31.6075,-249.467 L 31.2773,-249.286 L 30.927,-249.147
 L 30.5621,-249.053 L 30.1884,-249.006 z
M -0.18837,-234.006 L -0.562134,-234.053 L -0.927048,-234.147 L -1.27733,-234.286 L -1.60747,-234.467 L -1.91226,-234.688
 L -2.1869,-234.946 L -2.42705,-235.237 L -2.62891,-235.555 L -2.78932,-235.896 L -2.90575,-236.254 L -2.97633,-236.624
 L -3,-237 L -2.97633,-237.376 L -2.90575,-237.746 L -2.78932,-238.104 L -2.62891,-238.445 L -2.42705,-238.763
 L -2.1869,-239.054 L -1.91226,-239.312 L -1.60747,-239.533 L -1.27733,-239.714 L -0.927048,-239.853 L -0.562134,-239.947
 L -0.18837,-239.994 L 0.18837,-239.994 L 0.562134,-239.947 L 0.927048,-239.853 L 1.27733,-239.714 L 1.60747,-239.533
 L 1.91226,-239.312 L 2.1869,-239.054 L 2.42705,-238.763 L 2.62891,-238.445 L 2.78932,-238.104 L 2.90575,-237.746
 L 2.97633,-237.376 L 3,-237 L 2.97633,-236.624 L 2.90575,-236.254 L 2.78932,-235.896 L 2.62891,-235.555
 L 2.42705,-235.237 L 2.1869,-234.946 L 1.91226,-234.688 L 1.60747,-234.467 L 1.27733,-234.286 L 0.927048,-234.147
 L 0.562134,-234.053 L 0.18837,-234.006 z
M 29.8116,-234.006 L 29.4379,-234.053 L 29.0729,-234.147 L 28.7227,-234.286 L 28.3925,-234.467 L 28.0877,-234.688
 L 27.8131,-234.946 L 27.5729,-235.237 L 27.3711,-235.555 L 27.2107,-235.896 L 27.0942,-236.254 L 27.0237,-236.624
 L 27,-237 L 27.0237,-237.376 L 27.0942,-237.746 L 27.2107,-238.104 L 27.3711,-238.445 L 27.5729,-238.763
 L 27.8131,-239.054 L 28.0877,-239.312 L 28.3925,-239.533 L 28.7227,-239.714 L 29.0729,-239.853 L 29.4379,-239.947
 L 29.8116,-239.994 L 30.1884,-239.994 L 30.5621,-239.947 L 30.927,-239.853 L 31.2773,-239.714 L 31.6075,-239.533
 L 31.9123,-239.312 L 32.1869,-239.054 L 32.427,-238.763 L 32.6289,-238.445 L 32.7893,-238.104 L 32.9057,-237.746
 L 32.9763,-237.376 L 33,-237 L 32.9763,-236.624 L 32.9057,-236.254 L 32.7893,-235.896 L 32.6289,-235.555
 L 32.427,-235.237 L 32.1869,-234.946 L 31.9123,-234.688 L 31.6075,-234.467 L 31.2773,-234.286 L 30.927,-234.147
 L 30.5621,-234.053 L 30.1884,-234.006 z
M -15.1884,-234.006 L -15.5621,-234.053 L -15.927,-234.147 L -16.2773,-234.286 L -16.6075,-234.467 L -16.9123,-234.688
 L -17.1869,-234.946 L -17.427,-235.237 L -17.6289,-235.555 L -17.7893,-235.896 L -17.9057,-236.254 L -17.9763,-236.624
 L -18,-237 L -17.9763,-237.376 L -17.9057,-237.746 L -17.7893,-238.104 L -17.6289,-238.445 L -17.427,-238.763
 L -17.1869,-239.054 L -16.9123,-239.312 L -16.6075,-239.533 L -16.2773,-239.714 L -15.927,-239.853 L -15.5621,-239.947
 L -15.1884,-239.994 L -14.8116,-239.994 L -14.4379,-239.947 L -14.0729,-239.853 L -13.7227,-239.714 L -13.3925,-239.533
 L -13.0877,-239.312 L -12.8131,-239.054 L -12.5729,-238.763 L -12.3711,-238.445 L -12.2107,-238.104 L -12.0942,-237.746
 L -12.0237,-237.376 L -12,-237 L -12.0237,-236.624 L -12.0942,-236.254 L -12.2107,-235.896 L -12.3711,-235.555
 L -12.5729,-235.237 L -12.8131,-234.946 L -13.0877,-234.688 L -13.3925,-234.467 L -13.7227,-234.286 L -14.0729,-234.147
 L -14.4379,-234.053 L -14.8116,-234.006 z
M -30.1884,-234.006 L -30.5621,-234.053 L -30.927,-234.147 L -31.2773,-234.286 L -31.6075,-234.467 L -31.9123,-234.688
 L -32.1869,-234.946 L -32.427,-235.237 L -32.6289,-235.555 L -32.7893,-235.896 L -32.9057,-236.254 L -32.9763,-236.624
 L -33,-237 L -32.9763,-237.376 L -32.9057,-237.746 L -32.7893,-238.104 L -32.6289,-238.445 L -32.427,-238.763
 L -32.1869,-239.054 L -31.9123,-239.312 L -31.6075,-239.533 L -31.2773,-239.714 L -30.927,-239.853 L -30.5621,-239.947
 L -30.1884,-239.994 L -29.8116,-239.994 L -29.4379,-239.947 L -29.0729,-239.853 L -28.7227,-239.714 L -28.3925,-239.533
 L -28.0877,-239.312 L -27.8131,-239.054 L -27.5729,-238.763 L -27.3711,-238.445 L -27.2107,-238.104 L -27.0942,-237.746
 L -27.0237,-237.376 L -27,-237 L -27.0237,-236.624 L -27.0942,-236.254 L -27.2107,-235.896 L -27.3711,-235.555
 L -27.5729,-235.237 L -27.8131,-234.946 L -28.0877,-234.688 L -28.3925,-234.467 L -28.7227,-234.286 L -29.0729,-234.147
 L -29.4379,-234.053 L -29.8116,-234.006 z
M 14.8116,-234.006 L 14.4379,-234.053 L 14.0729,-234.147 L 13.7227,-234.286 L 13.3925,-234.467 L 13.0877,-234.688
 L 12.8131,-234.946 L 12.5729,-235.237 L 12.3711,-235.555 L 12.2107,-235.896 L 12.0942,-236.254 L 12.0237,-236.624
 L 12,-237 L 12.0237,-237.376 L 12.0942,-237.746 L 12.2107,-238.104 L 12.3711,-238.445 L 12.5729,-238.763
 L 12.8131,-239.054 L 13.0877,-239.312 L 13.3925,-239.533 L 13.7227,-239.714 L 14.0729,-239.853 L 14.4379,-239.947
 L 14.8116,-239.994 L 15.1884,-239.994 L 15.5621,-239.947 L 15.927,-239.853 L 16.2773,-239.714 L 16.6075,-239.533
 L 16.9123,-239.312 L 17.1869,-239.054 L 17.427,-238.763 L 17.6289,-238.445 L 17.7893,-238.104 L 17.9057,-237.746
 L 17.9763,-237.376 L 18,-237 L 17.9763,-236.624 L 17.9057,-236.254 L 17.7893,-235.896 L 17.6289,-235.555
 L 17.427,-235.237 L 17.1869,-234.946 L 16.9123,-234.688 L 16.6075,-234.467 L 16.2773,-234.286 L 15.927,-234.147
 L 15.5621,-234.053 L 15.1884,-234.006 z
M 14.8116,-219.006 L 14.4379,-219.053 L 14.0729,-219.147 L 13.7227,-219.286 L 13.3925,-219.467 L 13.0877,-219.688
 L 12.8131,-219.946 L 12.5729,-220.237 L 12.3711,-220.555 L 12.2107,-220.896 L 12.0942,-221.254 L 12.0237,-221.624
 L 12,-222 L 12.0237,-222.376 L 12.0942,-222.746 L 12.2107,-223.104 L 12.3711,-223.445 L 12.5729,-223.763
 L 12.8131,-224.054 L 13.0877,-224.312 L 13.3925,-224.533 L 13.7227,-224.714 L 14.0729,-224.853 L 14.4379,-224.947
 L 14.8116,-224.994 L 15.1884,-224.994 L 15.5621,-224.947 L 15.927,-224.853 L 16.2773,-224.714 L 16.6075,-224.533
 L 16.9123,-224.312 L 17.1869,-224.054 L 17.427,-223.763 L 17.6289,-223.445 L 17.7893,-223.104 L 17.9057,-222.746
 L 17.9763,-222.376 L 18,-222 L 17.9763,-221.624 L 17.9057,-221.254 L 17.7893,-220.896 L 17.6289,-220.555
 L 17.427,-220.237 L 17.1869,-219.946 L 16.9123,-219.688 L 16.6075,-219.467 L 16.2773,-219.286 L 15.927,-219.147
 L 15.5621,-219.053 L 15.1884,-219.006 z
M -15.1884,-219.006 L -15.5621,-219.053 L -15.927,-219.147 L -16.2773,-219.286 L -16.6075,-219.467 L -16.9123,-219.688
 L -17.1869,-219.946 L -17.427,-220.237 L -17.6289,-220.555 L -17.7893,-220.896 L -17.9057,-221.254 L -17.9763,-221.624
 L -18,-222 L -17.9763,-222.376 L -17.9057,-222.746 L -17.7893,-223.104 L -17.6289,-223.445 L -17.427,-223.763
 L -17.1869,-224.054 L -16.9123,-224.312 L -16.6075,-224.533 L -16.2773,-224.714 L -15.927,-224.853 L -15.5621,-224.947
 L -15.1884,-224.994 L -14.8116,-224.994 L -14.4379,-224.947 L -14.0729,-224.853 L -13.7227,-224.714 L -13.3925,-224.533
 L -13.0877,-224.312 L -12.8131,-224.054 L -12.5729,-223.763 L -12.3711,-223.445 L -12.2107,-223.104 L -12.0942,-222.746
 L -12.0237,-222.376 L -12,-222 L -12.0237,-221.624 L -12.0942,-221.254 L -12.2107,-220.896 L -12.3711,-220.555
 L -12.5729,-220.237 L -12.8131,-219.946 L -13.0877,-219.688 L -13.3925,-219.467 L -13.7227,-219.286 L -14.0729,-219.147
 L -14.4379,-219.053 L -14.8116,-219.006 z
M -30.1884,-219.006 L -30.5621,-219.053 L -30.927,-219.147 L -31.2773,-219.286 L -31.6075,-219.467 L -31.9123,-219.688
 L -32.1869,-219.946 L -32.427,-220.237 L -32.6289,-220.555 L -32.7893,-220.896 L -32.9057,-221.254 L -32.9763,-221.624
 L -33,-222 L -32.9763,-222.376 L -32.9057,-222.746 L -32.7893,-223.104 L -32.6289,-223.445 L -32.427,-223.763
 L -32.1869,-224.054 L -31.9123,-224.312 L -31.6075,-224.533 L -31.2773,-224.714 L -30.927,-224.853 L -30.5621,-224.947
 L -30.1884,-224.994 L -29.8116,-224.994 L -29.4379,-224.947 L -29.0729,-224.853 L -28.7227,-224.714 L -28.3925,-224.533
 L -28.0877,-224.312 L -27.8131,-224.054 L -27.5729,-223.763 L -27.3711,-223.445 L -27.2107,-223.104 L -27.0942,-222.746
 L -27.0237,-222.376 L -27,-222 L -27.0237,-221.624 L -27.0942,-221.254 L -27.2107,-220.896 L -27.3711,-220.555
 L -27.5729,-220.237 L -27.8131,-219.946 L -28.0877,-219.688 L -28.3925,-219.467 L -28.7227,-219.286 L -29.0729,-219.147
 L -29.4379,-219.053 L -29.8116,-219.006 z
M -0.18837,-219.006 L -0.562134,-219.053 L -0.927048,-219.147 L -1.27733,-219.286 L -1.60747,-219.467 L -1.91226,-219.688
 L -2.1869,-219.946 L -2.42705,-220.237 L -2.62891,-220.555 L -2.78932,-220.896 L -2.90575,-221.254 L -2.97633,-221.624
 L -3,-222 L -2.97633,-222.376 L -2.90575,-222.746 L -2.78932,-223.104 L -2.62891,-223.445 L -2.42705,-223.763
 L -2.1869,-224.054 L -1.91226,-224.312 L -1.60747,-224.533 L -1.27733,-224.714 L -0.927048,-224.853 L -0.562134,-224.947
 L -0.18837,-224.994 L 0.18837,-224.994 L 0.562134,-224.947 L 0.927048,-224.853 L 1.27733,-224.714 L 1.60747,-224.533
 L 1.91226,-224.312 L 2.1869,-224.054 L 2.42705,-223.763 L 2.62891,-223.445 L 2.78932,-223.104 L 2.90575,-222.746
 L 2.97633,-222.376 L 3,-222 L 2.97633,-221.624 L 2.90575,-221.254 L 2.78932,-220.896 L 2.62891,-220.555
 L 2.42705,-220.237 L 2.1869,-219.946 L 1.91226,-219.688 L 1.60747,-219.467 L 1.27733,-219.286 L 0.927048,-219.147
 L 0.562134,-219.053 L 0.18837,-219.006 z
M 29.8116,-219.006 L 29.4379,-219.053 L 29.0729,-219.147 L 28.7227,-219.286 L 28.3925,-219.467 L 28.0877,-219.688
 L 27.8131,-219.946 L 27.5729,-220.237 L 27.3711,-220.555 L 27.2107,-220.896 L 27.0942,-221.254 L 27.0237,-221.624
 L 27,-222 L 27.0237,-222.376 L 27.0942,-222.746 L 27.2107,-223.104 L 27.3711,-223.445 L 27.5729,-223.763
 L 27.8131,-224.054 L 28.0877,-224.312 L 28.3925,-224.533 L 28.7227,-224.714 L 29.0729,-224.853 L 29.4379,-224.947
 L 29.8116,-224.994 L 30.1884,-224.994 L 30.5621,-224.947 L 30.927,-224.853 L 31.2773,-224.714 L 31.6075,-224.533
 L 31.9123,-224.312 L 32.1869,-224.054 L 32.427,-223.763 L 32.6289,-223.445 L 32.7893,-223.104 L 32.9057,-222.746
 L 32.9763,-222.376 L 33,-222 L 32.9763,-221.624 L 32.9057,-221.254 L 32.7893,-220.896 L 32.6289,-220.555
 L 32.427,-220.237 L 32.1869,-219.946 L 31.9123,-219.688 L 31.6075,-219.467 L 31.2773,-219.286 L 30.927,-219.147
 L 30.5621,-219.053 L 30.1884,-219.006 z
M 32.9369,-131.089 L 33.5451,-131.245 L 34.1289,-131.476 L 34.6791,-131.778 L 35.1871,-132.147 L 35.6448,-132.577
 L 36.0451,-133.061 L 36.3815,-133.591 L 36.6489,-134.159 L 36.8429,-134.757 L 36.9606,-135.373 L 37,-136
 L 37,-200 L 36.9606,-200.627 L 36.8429,-201.243 L 36.6489,-201.841 L 36.3815,-202.409 L 36.0451,-202.939
 L 35.6448,-203.423 L 35.1871,-203.853 L 34.6791,-204.222 L 34.1289,-204.524 L 33.5451,-204.755 L 32.9369,-204.911
 L 32.3139,-204.99 L -32.3139,-204.99 L -32.9369,-204.911 L -33.5451,-204.755 L -34.1289,-204.524 L -34.6791,-204.222
 L -35.1871,-203.853 L -35.6448,-203.423 L -36.0451,-202.939 L -36.3815,-202.409 L -36.6489,-201.841 L -36.8429,-201.243
 L -36.9606,-200.627 L -37,-200 L -37,-136 L -36.9606,-135.373 L -36.8429,-134.757 L -36.6489,-134.159
 L -36.3815,-133.591 L -36.0451,-133.061 L -35.6448,-132.577 L -35.1871,-132.147 L -34.6791,-131.778 L -34.1289,-131.476
 L -33.5451,-131.245 L -32.9369,-131.089 L -32.3139,-131.01 L 32.3139,-131.01 z
M 29.8116,-195.006 L 29.4379,-195.053 L 29.0729,-195.147 L 28.7227,-195.286 L 28.3925,-195.467 L 28.0877,-195.688
 L 27.8131,-195.946 L 27.5729,-196.237 L 27.3711,-196.555 L 27.2107,-196.896 L 27.0942,-197.254 L 27.0237,-197.624
 L 27,-198 L 27.0237,-198.376 L 27.0942,-198.746 L 27.2107,-199.104 L 27.3711,-199.445 L 27.5729,-199.763
 L 27.8131,-200.054 L 28.0877,-200.312 L 28.3925,-200.533 L 28.7227,-200.714 L 29.0729,-200.853 L 29.4379,-200.947
 L 29.8116,-200.994 L 30.1884,-200.994 L 30.5621,-200.947 L 30.927,-200.853 L 31.2773,-200.714 L 31.6075,-200.533
 L 31.9123,-200.312 L 32.1869,-200.054 L 32.427,-199.763 L 32.6289,-199.445 L 32.7893,-199.104 L 32.9057,-198.746
 L 32.9763,-198.376 L 33,-198 L 32.9763,-197.624 L 32.9057,-197.254 L 32.7893,-196.896 L 32.6289,-196.555
 L 32.427,-196.237 L 32.1869,-195.946 L 31.9123,-195.688 L 31.6075,-195.467 L 31.2773,-195.286 L 30.927,-195.147
 L 30.5621,-195.053 L 30.1884,-195.006 z
M -0.18837,-195.006 L -0.562134,-195.053 L -0.927048,-195.147 L -1.27733,-195.286 L -1.60747,-195.467 L -1.91226,-195.688
 L -2.1869,-195.946 L -2.42705,-196.237 L -2.62891,-196.555 L -2.78932,-196.896 L -2.90575,-197.254 L -2.97633,-197.624
 L -3,-198 L -2.97633,-198.376 L -2.90575,-198.746 L -2.78932,-199.104 L -2.62891,-199.445 L -2.42705,-199.763
 L -2.1869,-200.054 L -1.91226,-200.312 L -1.60747,-200.533 L -1.27733,-200.714 L -0.927048,-200.853 L -0.562134,-200.947
 L -0.18837,-200.994 L 0.18837,-200.994 L 0.562134,-200.947 L 0.927048,-200.853 L 1.27733,-200.714 L 1.60747,-200.533
 L 1.91226,-200.312 L 2.1869,-200.054 L 2.42705,-199.763 L 2.62891,-199.445 L 2.78932,-199.104 L 2.90575,-198.746
 L 2.97633,-198.376 L 3,-198 L 2.97633,-197.624 L 2.90575,-197.254 L 2.78932,-196.896 L 2.62891,-196.555
 L 2.42705,-196.237 L 2.1869,-195.946 L 1.91226,-195.688 L 1.60747,-195.467 L 1.27733,-195.286 L 0.927048,-195.147
 L 0.562134,-195.053 L 0.18837,-195.006 z
M 14.8116,-195.006 L 14.4379,-195.053 L 14.0729,-195.147 L 13.7227,-195.286 L 13.3925,-195.467 L 13.0877,-195.688
 L 12.8131,-195.946 L 12.5729,-196.237 L 12.3711,-196.555 L 12.2107,-196.896 L 12.0942,-197.254 L 12.0237,-197.624
 L 12,-198 L 12.0237,-198.376 L 12.0942,-198.746 L 12.2107,-199.104 L 12.3711,-199.445 L 12.5729,-199.763
 L 12.8131,-200.054 L 13.0877,-200.312 L 13.3925,-200.533 L 13.7227,-200.714 L 14.0729,-200.853 L 14.4379,-200.947
 L 14.8116,-200.994 L 15.1884,-200.994 L 15.5621,-200.947 L 15.927,-200.853 L 16.2773,-200.714 L 16.6075,-200.533
 L 16.9123,-200.312 L 17.1869,-200.054 L 17.427,-199.763 L 17.6289,-199.445 L 17.7893,-199.104 L 17.9057,-198.746
 L 17.9763,-198.376 L 18,-198 L 17.9763,-197.624 L 17.9057,-197.254 L 17.7893,-196.896 L 17.6289,-196.555
 L 17.427,-196.237 L 17.1869,-195.946 L 16.9123,-195.688 L 16.6075,-195.467 L 16.2773,-195.286 L 15.927,-195.147
 L 15.5621,-195.053 L 15.1884,-195.006 z
M -15.1884,-195.006 L -15.5621,-195.053 L -15.927,-195.147 L -16.2773,-195.286 L -16.6075,-195.467 L -16.9123,-195.688
 L -17.1869,-195.946 L -17.427,-196.237 L -17.6289,-196.555 L -17.7893,-196.896 L -17.9057,-197.254 L -17.9763,-197.624
 L -18,-198 L -17.9763,-198.376 L -17.9057,-198.746 L -17.7893,-199.104 L -17.6289,-199.445 L -17.427,-199.763
 L -17.1869,-200.054 L -16.9123,-200.312 L -16.6075,-200.533 L -16.2773,-200.714 L -15.927,-200.853 L -15.5621,-200.947
 L -15.1884,-200.994 L -14.8116,-200.994 L -14.4379,-200.947 L -14.0729,-200.853 L -13.7227,-200.714 L -13.3925,-200.533
 L -13.0877,-200.312 L -12.8131,-200.054 L -12.5729,-199.763 L -12.3711,-199.445 L -12.2107,-199.104 L -12.0942,-198.746
 L -12.0237,-198.376 L -12,-198 L -12.0237,-197.624 L -12.0942,-197.254 L -12.2107,-196.896 L -12.3711,-196.555
 L -12.5729,-196.237 L -12.8131,-195.946 L -13.0877,-195.688 L -13.3925,-195.467 L -13.7227,-195.286 L -14.0729,-195.147
 L -14.4379,-195.053 L -14.8116,-195.006 z
M -30.1884,-195.006 L -30.5621,-195.053 L -30.927,-195.147 L -31.2773,-195.286 L -31.6075,-195.467 L -31.9123,-195.688
 L -32.1869,-195.946 L -32.427,-196.237 L -32.6289,-196.555 L -32.7893,-196.896 L -32.9057,-197.254 L -32.9763,-197.624
 L -33,-198 L -32.9763,-198.376 L -32.9057,-198.746 L -32.7893,-199.104 L -32.6289,-199.445 L -32.427,-199.763
 L -32.1869,-200.054 L -31.9123,-200.312 L -31.6075,-200.533 L -31.2773,-200.714 L -30.927,-200.853 L -30.5621,-200.947
 L -30.1884,-200.994 L -29.8116,-200.994 L -29.4379,-200.947 L -29.0729,-200.853 L -28.7227,-200.714 L -28.3925,-200.533
 L -28.0877,-200.312 L -27.8131,-200.054 L -27.5729,-199.763 L -27.3711,-199.445 L -27.2107,-199.104 L -27.0942,-198.746
 L -27.0237,-198.376 L -27,-198 L -27.0237,-197.624 L -27.0942,-197.254 L -27.2107,-196.896 L -27.3711,-196.555
 L -27.5729,-196.237 L -27.8131,-195.946 L -28.0877,-195.688 L -28.3925,-195.467 L -28.7227,-195.286 L -29.0729,-195.147
 L -29.4379,-195.053 L -29.8116,-195.006 z
M -15.1884,-180.006 L -15.5621,-180.053 L -15.927,-180.147 L -16.2773,-180.286 L -16.6075,-180.467 L -16.9123,-180.688
 L -17.1869,-180.946 L -17.427,-181.237 L -17.6289,-181.555 L -17.7893,-181.896 L -17.9057,-182.254 L -17.9763,-182.624
 L -18,-183 L -17.9763,-183.376 L -17.9057,-183.746 L -17.7893,-184.104 L -17.6289,-184.445 L -17.427,-184.763
 L -17.1869,-185.054 L -16.9123,-185.312 L -16.6075,-185.533 L -16.2773,-185.714 L -15.927,-185.853 L -15.5621,-185.947
 L -15.1884,-185.994 L -14.8116,-185.994 L -14.4379,-185.947 L -14.0729,-185.853 L -13.7227,-185.714 L -13.3925,-185.533
 L -13.0877,-185.312 L -12.8131,-185.054 L -12.5729,-184.763 L -12.3711,-184.445 L -12.2107,-184.104 L -12.0942,-183.746
 L -12.0237,-183.376 L -12,-183 L -12.0237,-182.624 L -12.0942,-182.254 L -12.2107,-181.896 L -12.3711,-181.555
 L -12.5729,-181.237 L -12.8131,-180.946 L -13.0877,-180.688 L -13.3925,-180.467 L -13.7227,-180.286 L -14.0729,-180.147
 L -14.4379,-180.053 L -14.8116,-180.006 z
M -0.18837,-180.006 L -0.562134,-180.053 L -0.927048,-180.147 L -1.27733,-180.286 L -1.60747,-180.467 L -1.91226,-180.688
 L -2.1869,-180.946 L -2.42705,-181.237 L -2.62891,-181.555 L -2.78932,-181.896 L -2.90575,-182.254 L -2.97633,-182.624
 L -3,-183 L -2.97633,-183.376 L -2.90575,-183.746 L -2.78932,-184.104 L -2.62891,-184.445 L -2.42705,-184.763
 L -2.1869,-185.054 L -1.91226,-185.312 L -1.60747,-185.533 L -1.27733,-185.714 L -0.927048,-185.853 L -0.562134,-185.947
 L -0.18837,-185.994 L 0.18837,-185.994 L 0.562134,-185.947 L 0.927048,-185.853 L 1.27733,-185.714 L 1.60747,-185.533
 L 1.91226,-185.312 L 2.1869,-185.054 L 2.42705,-184.763 L 2.62891,-184.445 L 2.78932,-184.104 L 2.90575,-183.746
 L 2.97633,-183.376 L 3,-183 L 2.97633,-182.624 L 2.90575,-182.254 L 2.78932,-181.896 L 2.62891,-181.555
 L 2.42705,-181.237 L 2.1869,-180.946 L 1.91226,-180.688 L 1.60747,-180.467 L 1.27733,-180.286 L 0.927048,-180.147
 L 0.562134,-180.053 L 0.18837,-180.006 z
M 14.8116,-180.006 L 14.4379,-180.053 L 14.0729,-180.147 L 13.7227,-180.286 L 13.3925,-180.467 L 13.0877,-180.688
 L 12.8131,-180.946 L 12.5729,-181.237 L 12.3711,-181.555 L 12.2107,-181.896 L 12.0942,-182.254 L 12.0237,-182.624
 L 12,-183 L 12.0237,-183.376 L 12.0942,-183.746 L 12.2107,-184.104 L 12.3711,-184.445 L 12.5729,-184.763
 L 12.8131,-185.054 L 13.0877,-185.312 L 13.3925,-185.533 L 13.7227,-185.714 L 14.0729,-185.853 L 14.4379,-185.947
 L 14.8116,-185.994 L 15.1884,-185.994 L 15.5621,-185.947 L 15.927,-185.853 L 16.2773,-185.714 L 16.6075,-185.533
 L 16.9123,-185.312 L 17.1869,-185.054 L 17.427,-184.763 L 17.6289,-184.445 L 17.7893,-184.104 L 17.9057,-183.746
 L 17.9763,-183.376 L 18,-183 L 17.9763,-182.624 L 17.9057,-182.254 L 17.7893,-181.896 L 17.6289,-181.555
 L 17.427,-181.237 L 17.1869,-180.946 L 16.9123,-180.688 L 16.6075,-180.467 L 16.2773,-180.286 L 15.927,-180.147
 L 15.5621,-180.053 L 15.1884,-180.006 z
M 29.8116,-180.006 L 29.4379,-180.053 L 29.0729,-180.147 L 28.7227,-180.286 L 28.3925,-180.467 L 28.0877,-180.688
 L 27.8131,-180.946 L 27.5729,-181.237 L 27.3711,-181.555 L 27.2107,-181.896 L 27.0942,-182.254 L 27.0237,-182.624
 L 27,-183 L 27.0237,-183.376 L 27.0942,-183.746 L 27.2107,-184.104 L 27.3711,-184.445 L 27.5729,-184.763
 L 27.8131,-185.054 L 28.0877,-185.312 L 28.3925,-185.533 L 28.7227,-185.714 L 29.0729,-185.853 L 29.4379,-185.947
 L 29.8116,-185.994 L 30.1884,-185.994 L 30.5621,-185.947 L 30.927,-185.853 L 31.2773,-185.714 L 31.6075,-185.533
 L 31.9123,-185.312 L 32.1869,-185.054 L 32.427,-184.763 L 32.6289,-184.445 L 32.7893,-184.104 L 32.9057,-183.746
 L 32.9763,-183.376 L 33,-183 L 32.9763,-182.624 L 32.9057,-182.254 L 32.7893,-181.896 L 32.6289,-181.555
 L 32.427,-181.237 L 32.1869,-180.946 L 31.9123,-180.688 L 31.6075,-180.467 L 31.2773,-180.286 L 30.927,-180.147
 L 30.5621,-180.053 L 30.1884,-180.006 z
M -30.1884,-180.006 L -30.5621,-180.053 L -30.927,-180.147 L -31.2773,-180.286 L -31.6075,-180.467 L -31.9123,-180.688
 L -32.1869,-180.946 L -32.427,-181.237 L -32.6289,-181.555 L -32.7893,-181.896 L -32.9057,-182.254 L -32.9763,-182.624
 L -33,-183 L -32.9763,-183.376 L -32.9057,-183.746 L -32.7893,-184.104 L -32.6289,-184.445 L -32.427,-184.763
 L -32.1869,-185.054 L -31.9123,-185.312 L -31.6075,-185.533 L -31.2773,-185.714 L -30.927,-185.853 L -30.5621,-185.947
 L -30.1884,-185.994 L -29.8116,-185.994 L -29.4379,-185.947 L -29.0729,-185.853 L -28.7227,-185.714 L -28.3925,-185.533
 L -28.0877,-185.312 L -27.8131,-185.054 L -27.5729,-184.763 L -27.3711,-184.445 L -27.2107,-184.104 L -27.0942,-183.746
 L -27.0237,-183.376 L -27,-183 L -27.0237,-182.624 L -27.0942,-182.254 L -27.2107,-181.896 L -27.3711,-181.555
 L -27.5729,-181.237 L -27.8131,-180.946 L -28.0877,-180.688 L -28.3925,-180.467 L -28.7227,-180.286 L -29.0729,-180.147
 L -29.4379,-180.053 L -29.8116,-180.006 z
M 14.8116,-165.006 L 14.4379,-165.053 L 14.0729,-165.147 L 13.7227,-165.286 L 13.3925,-165.467 L 13.0877,-165.688
 L 12.8131,-165.946 L 12.5729,-166.237 L 12.3711,-166.555 L 12.2107,-166.896 L 12.0942,-167.254 L 12.0237,-167.624
 L 12,-168 L 12.0237,-168.376 L 12.0942,-168.746 L 12.2107,-169.104 L 12.3711,-169.445 L 12.5729,-169.763
 L 12.8131,-170.054 L 13.0877,-170.312 L 13.3925,-170.533 L 13.7227,-170.714 L 14.0729,-170.853 L 14.4379,-170.947
 L 14.8116,-170.994 L 15.1884,-170.994 L 15.5621,-170.947 L 15.927,-170.853 L 16.2773,-170.714 L 16.6075,-170.533
 L 16.9123,-170.312 L 17.1869,-170.054 L 17.427,-169.763 L 17.6289,-169.445 L 17.7893,-169.104 L 17.9057,-168.746
 L 17.9763,-168.376 L 18,-168 L 17.9763,-167.624 L 17.9057,-167.254 L 17.7893,-166.896 L 17.6289,-166.555
 L 17.427,-166.237 L 17.1869,-165.946 L 16.9123,-165.688 L 16.6075,-165.467 L 16.2773,-165.286 L 15.927,-165.147
 L 15.5621,-165.053 L 15.1884,-165.006 z
M -30.1884,-165.006 L -30.5621,-165.053 L -30.927,-165.147 L -31.2773,-165.286 L -31.6075,-165.467 L -31.9123,-165.688
 L -32.1869,-165.946 L -32.427,-166.237 L -32.6289,-166.555 L -32.7893,-166.896 L -32.9057,-167.254 L -32.9763,-167.624
 L -33,-168 L -32.9763,-168.376 L -32.9057,-168.746 L -32.7893,-169.104 L -32.6289,-169.445 L -32.427,-169.763
 L -32.1869,-170.054 L -31.9123,-170.312 L -31.6075,-170.533 L -31.2773,-170.714 L -30.927,-170.853 L -30.5621,-170.947
 L -30.1884,-170.994 L -29.8116,-170.994 L -29.4379,-170.947 L -29.0729,-170.853 L -28.7227,-170.714 L -28.3925,-170.533
 L -28.0877,-170.312 L -27.8131,-170.054 L -27.5729,-169.763 L -27.3711,-169.445 L -27.2107,-169.104 L -27.0942,-168.746
 L -27.0237,-168.376 L -27,-168 L -27.0237,-167.624 L -27.0942,-167.254 L -27.2107,-166.896 L -27.3711,-166.555
 L -27.5729,-166.237 L -27.8131,-165.946 L -28.0877,-165.688 L -28.3925,-165.467 L -28.7227,-165.286 L -29.0729,-165.147
 L -29.4379,-165.053 L -29.8116,-165.006 z
M -15.1884,-165.006 L -15.5621,-165.053 L -15.927,-165.147 L -16.2773,-165.286 L -16.6075,-165.467 L -16.9123,-165.688
 L -17.1869,-165.946 L -17.427,-166.237 L -17.6289,-166.555 L -17.7893,-166.896 L -17.9057,-167.254 L -17.9763,-167.624
 L -18,-168 L -17.9763,-168.376 L -17.9057,-168.746 L -17.7893,-169.104 L -17.6289,-169.445 L -17.427,-169.763
 L -17.1869,-170.054 L -16.9123,-170.312 L -16.6075,-170.533 L -16.2773,-170.714 L -15.927,-170.853 L -15.5621,-170.947
 L -15.1884,-170.994 L -14.8116,-170.994 L -14.4379,-170.947 L -14.0729,-170.853 L -13.7227,-170.714 L -13.3925,-170.533
 L -13.0877,-170.312 L -12.8131,-170.054 L -12.5729,-169.763 L -12.3711,-169.445 L -12.2107,-169.104 L -12.0942,-168.746
 L -12.0237,-168.376 L -12,-168 L -12.0237,-167.624 L -12.0942,-167.254 L -12.2107,-166.896 L -12.3711,-166.555
 L -12.5729,-166.237 L -12.8131,-165.946 L -13.0877,-165.688 L -13.3925,-165.467 L -13.7227,-165.286 L -14.0729,-165.147
 L -14.4379,-165.053 L -14.8116,-165.006 z
M 29.8116,-165.006 L 29.4379,-165.053 L 29.0729,-165.147 L 28.7227,-165.286 L 28.3925,-165.467 L 28.0877,-165.688
 L 27.8131,-165.946 L 27.5729,-166.237 L 27.3711,-166.555 L 27.2107,-166.896 L 27.0942,-167.254 L 27.0237,-167.624
 L 27,-168 L 27.0237,-168.376 L 27.0942,-168.746 L 27.2107,-169.104 L 27.3711,-169.445 L 27.5729,-169.763
 L 27.8131,-170.054 L 28.0877,-170.312 L 28.3925,-170.533 L 28.7227,-170.714 L 29.0729,-170.853 L 29.4379,-170.947
 L 29.8116,-170.994 L 30.1884,-170.994 L 30.5621,-170.947 L 30.927,-170.853 L 31.2773,-170.714 L 31.6075,-170.533
 L 31.9123,-170.312 L 32.1869,-170.054 L 32.427,-169.763 L 32.6289,-169.445 L 32.7893,-169.104 L 32.9057,-168.746
 L 32.9763,-168.376 L 33,-168 L 32.9763,-167.624 L 32.9057,-167.254 L 32.7893,-166.896 L 32.6289,-166.555
 L 32.427,-166.237 L 32.1869,-165.946 L 31.9123,-165.688 L 31.6075,-165.467 L 31.2773,-165.286 L 30.927,-165.147
 L 30.5621,-165.053 L 30.1884,-165.006 z
M -0.18837,-165.006 L -0.562134,-165.053 L -0.927048,-165.147 L -1.27733,-165.286 L -1.60747,-165.467 L -1.91226,-165.688
 L -2.1869,-165.946 L -2.42705,-166.237 L -2.62891,-166.555 L -2.78932,-166.896 L -2.90575,-167.254 L -2.97633,-167.624
 L -3,-168 L -2.97633,-168.376 L -2.90575,-168.746 L -2.78932,-169.104 L -2.62891,-169.445 L -2.42705,-169.763
 L -2.1869,-170.054 L -1.91226,-170.312 L -1.60747,-170.533 L -1.27733,-170.714 L -0.927048,-170.853 L -0.562134,-170.947
 L -0.18837,-170.994 L 0.18837,-170.994 L 0.562134,-170.947 L 0.927048,-170.853 L 1.27733,-170.714 L 1.60747,-170.533
 L 1.91226,-170.312 L 2.1869,-170.054 L 2.42705,-169.763 L 2.62891,-169.445 L 2.78932,-169.104 L 2.90575,-168.746
 L 2.97633,-168.376 L 3,-168 L 2.97633,-167.624 L 2.90575,-167.254 L 2.78932,-166.896 L 2.62891,-166.555
 L 2.42705,-166.237 L 2.1869,-165.946 L 1.91226,-165.688 L 1.60747,-165.467 L 1.27733,-165.286 L 0.927048,-165.147
 L 0.562134,-165.053 L 0.18837,-165.006 z
M -30.1884,-150.006 L -30.5621,-150.053 L -30.927,-150.147 L -31.2773,-150.286 L -31.6075,-150.467 L -31.9123,-150.688
 L -32.1869,-150.946 L -32.427,-151.237 L -32.6289,-151.555 L -32.7893,-151.896 L -32.9057,-152.254 L -32.9763,-152.624
 L -33,-153 L -32.9763,-153.376 L -32.9057,-153.746 L -32.7893,-154.104 L -32.6289,-154.445 L -32.427,-154.763
 L -32.1869,-155.054 L -31.9123,-155.312 L -31.6075,-155.533 L -31.2773,-155.714 L -30.927,-155.853 L -30.5621,-155.947
 L -30.1884,-155.994 L -29.8116,-155.994 L -29.4379,-155.947 L -29.0729,-155.853 L -28.7227,-155.714 L -28.3925,-155.533
 L -28.0877,-155.312 L -27.8131,-155.054 L -27.5729,-154.763 L -27.3711,-154.445 L -27.2107,-154.104 L -27.0942,-153.746
 L -27.0237,-153.376 L -27,-153 L -27.0237,-152.624 L -27.0942,-152.254 L -27.2107,-151.896 L -27.3711,-151.555
 L -27.5729,-151.237 L -27.8131,-150.946 L -28.0877,-150.688 L -28.3925,-150.467 L -28.7227,-150.286 L -29.0729,-150.147
 L -29.4379,-150.053 L -29.8116,-150.006 z
M 29.8116,-150.006 L 29.4379,-150.053 L 29.0729,-150.147 L 28.7227,-150.286 L 28.3925,-150.467 L 28.0877,-150.688
 L 27.8131,-150.946 L 27.5729,-151.237 L 27.3711,-151.555 L 27.2107,-151.896 L 27.0942,-152.254 L 27.0237,-152.624
 L 27,-153 L 27.0237,-153.376 L 27.0942,-153.746 L 27.2107,-154.104 L 27.3711,-154.445 L 27.5729,-154.763
 L 27.8131,-155.054 L 28.0877,-155.312 L 28.3925,-155.533 L 28.7227,-155.714 L 29.0729,-155.853 L 29.4379,-155.947
 L 29.8116,-155.994 L 30.1884,-155.994 L 30.5621,-155.947 L 30.927,-155.853 L 31.2773,-155.714 L 31.6075,-155.533
 L 31.9123,-155.312 L 32.1869,-155.054 L 32.427,-154.763 L 32.6289,-154.445 L 32.7893,-154.104 L 32.9057,-153.746
 L 32.9763,-153.376 L 33,-153 L 32.9763,-152.624 L 32.9057,-152.254 L 32.7893,-151.896 L 32.6289,-151.555
 L 32.427,-151.237 L 32.1869,-150.946 L 31.9123,-150.688 L 31.6075,-150.467 L 31.2773,-150.286 L 30.927,-150.147
 L 30.5621,-150.053 L 30.1884,-150.006 z
M 14.8116,-150.006 L 14.4379,-150.053 L 14.0729,-150.147 L 13.7227,-150.286 L 13.3925,-150.467 L 13.0877,-150.688
 L 12.8131,-150.946 L 12.5729,-151.237 L 12.3711,-151.555 L 12.2107,-151.896 L 12.0942,-152.254 L 12.0237,-152.624
 L 12,-153 L 12.0237,-153.376 L 12.0942,-153.746 L 12.2107,-154.104 L 12.3711,-154.445 L 12.5729,-154.763
 L 12.8131,-155.054 L 13.0877,-155.312 L 13.3925,-155.533 L 13.7227,-155.714 L 14.0729,-155.853 L 14.4379,-155.947
 L 14.8116,-155.994 L 15.1884,-155.994 L 15.5621,-155.947 L 15.927,-155.853 L 16.2773,-155.714 L 16.6075,-155.533
 L 16.9123,-155.312 L 17.1869,-155.054 L 17.427,-154.763 L 17.6289,-154.445 L 17.7893,-154.104 L 17.9057,-153.746
 L 17.9763,-153.376 L 18,-153 L 17.9763,-152.624 L 17.9057,-152.254 L 17.7893,-151.896 L 17.6289,-151.555
 L 17.427,-151.237 L 17.1869,-150.946 L 16.9123,-150.688 L 16.6075,-150.467 L 16.2773,-150.286 L 15.927,-150.147
 L 15.5621,-150.053 L 15.1884,-150.006 z
M -0.18837,-150.006 L -0.562134,-150.053 L -0.927048,-150.147 L -1.27733,-150.286 L -1.60747,-150.467 L -1.91226,-150.688
 L -2.1869,-150.946 L -2.42705,-151.237 L -2.62891,-151.555 L -2.78932,-151.896 L -2.90575,-152.254 L -2.97633,-152.624
 L -3,-153 L -2.97633,-153.376 L -2.90575,-153.746 L -2.78932,-154.104 L -2.62891,-154.445 L -2.42705,-154.763
 L -2.1869,-155.054 L -1.91226,-155.312 L -1.60747,-155.533 L -1.27733,-155.714 L -0.927048,-155.853 L -0.562134,-155.947
 L -0.18837,-155.994 L 0.18837,-155.994 L 0.562134,-155.947 L 0.927048,-155.853 L 1.27733,-155.714 L 1.60747,-155.533
 L 1.91226,-155.312 L 2.1869,-155.054 L 2.42705,-154.763 L 2.62891,-154.445 L 2.78932,-154.104 L 2.90575,-153.746
 L 2.97633,-153.376 L 3,-153 L 2.97633,-152.624 L 2.90575,-152.254 L 2.78932,-151.896 L 2.62891,-151.555
 L 2.42705,-151.237 L 2.1869,-150.946 L 1.91226,-150.688 L 1.60747,-150.467 L 1.27733,-150.286 L 0.927048,-150.147
 L 0.562134,-150.053 L 0.18837,-150.006 z
M -15.1884,-150.006 L -15.5621,-150.053 L -15.927,-150.147 L -16.2773,-150.286 L -16.6075,-150.467 L -16.9123,-150.688
 L -17.1869,-150.946 L -17.427,-151.237 L -17.6289,-151.555 L -17.7893,-151.896 L -17.9057,-152.254 L -17.9763,-152.624
 L -18,-153 L -17.9763,-153.376 L -17.9057,-153.746 L -17.7893,-154.104 L -17.6289,-154.445 L -17.427,-154.763
 L -17.1869,-155.054 L -16.9123,-155.312 L -16.6075,-155.533 L -16.2773,-155.714 L -15.927,-155.853 L -15.5621,-155.947
 L -15.1884,-155.994 L -14.8116,-155.994 L -14.4379,-155.947 L -14.0729,-155.853 L -13.7227,-155.714 L -13.3925,-155.533
 L -13.0877,-155.312 L -12.8131,-155.054 L -12.5729,-154.763 L -12.3711,-154.445 L -12.2107,-154.104 L -12.0942,-153.746
 L -12.0237,-153.376 L -12,-153 L -12.0237,-152.624 L -12.0942,-152.254 L -12.2107,-151.896 L -12.3711,-151.555
 L -12.5729,-151.237 L -12.8131,-150.946 L -13.0877,-150.688 L -13.3925,-150.467 L -13.7227,-150.286 L -14.0729,-150.147
 L -14.4379,-150.053 L -14.8116,-150.006 z
M -15.1884,-135.006 L -15.5621,-135.053 L -15.927,-135.147 L -16.2773,-135.286 L -16.6075,-135.467 L -16.9123,-135.688
 L -17.1869,-135.946 L -17.427,-136.237 L -17.6289,-136.555 L -17.7893,-136.896 L -17.9057,-137.254 L -17.9763,-137.624
 L -18,-138 L -17.9763,-138.376 L -17.9057,-138.746 L -17.7893,-139.104 L -17.6289,-139.445 L -17.427,-139.763
 L -17.1869,-140.054 L -16.9123,-140.312 L -16.6075,-140.533 L -16.2773,-140.714 L -15.927,-140.853 L -15.5621,-140.947
 L -15.1884,-140.994 L -14.8116,-140.994 L -14.4379,-140.947 L -14.0729,-140.853 L -13.7227,-140.714 L -13.3925,-140.533
 L -13.0877,-140.312 L -12.8131,-140.054 L -12.5729,-139.763 L -12.3711,-139.445 L -12.2107,-139.104 L -12.0942,-138.746
 L -12.0237,-138.376 L -12,-138 L -12.0237,-137.624 L -12.0942,-137.254 L -12.2107,-136.896 L -12.3711,-136.555
 L -12.5729,-136.237 L -12.8131,-135.946 L -13.0877,-135.688 L -13.3925,-135.467 L -13.7227,-135.286 L -14.0729,-135.147
 L -14.4379,-135.053 L -14.8116,-135.006 z
M -0.18837,-135.006 L -0.562134,-135.053 L -0.927048,-135.147 L -1.27733,-135.286 L -1.60747,-135.467 L -1.91226,-135.688
 L -2.1869,-135.946 L -2.42705,-136.237 L -2.62891,-136.555 L -2.78932,-136.896 L -2.90575,-137.254 L -2.97633,-137.624
 L -3,-138 L -2.97633,-138.376 L -2.90575,-138.746 L -2.78932,-139.104 L -2.62891,-139.445 L -2.42705,-139.763
 L -2.1869,-140.054 L -1.91226,-140.312 L -1.60747,-140.533 L -1.27733,-140.714 L -0.927048,-140.853 L -0.562134,-140.947
 L -0.18837,-140.994 L 0.18837,-140.994 L 0.562134,-140.947 L 0.927048,-140.853 L 1.27733,-140.714 L 1.60747,-140.533
 L 1.91226,-140.312 L 2.1869,-140.054 L 2.42705,-139.763 L 2.62891,-139.445 L 2.78932,-139.104 L 2.90575,-138.746
 L 2.97633,-138.376 L 3,-138 L 2.97633,-137.624 L 2.90575,-137.254 L 2.78932,-136.896 L 2.62891,-136.555
 L 2.42705,-136.237 L 2.1869,-135.946 L 1.91226,-135.688 L 1.60747,-135.467 L 1.27733,-135.286 L 0.927048,-135.147
 L 0.562134,-135.053 L 0.18837,-135.006 z
M 29.8116,-135.006 L 29.4379,-135.053 L 29.0729,-135.147 L 28.7227,-135.286 L 28.3925,-135.467 L 28.0877,-135.688
 L 27.8131,-135.946 L 27.5729,-136.237 L 27.3711,-136.555 L 27.2107,-136.896 L 27.0942,-137.254 L 27.0237,-137.624
 L 27,-138 L 27.0237,-138.376 L 27.0942,-138.746 L 27.2107,-139.104 L 27.3711,-139.445 L 27.5729,-139.763
 L 27.8131,-140.054 L 28.0877,-140.312 L 28.3925,-140.533 L 28.7227,-140.714 L 29.0729,-140.853 L 29.4379,-140.947
 L 29.8116,-140.994 L 30.1884,-140.994 L 30.5621,-140.947 L 30.927,-140.853 L 31.2773,-140.714 L 31.6075,-140.533
 L 31.9123,-140.312 L 32.1869,-140.054 L 32.427,-139.763 L 32.6289,-139.445 L 32.7893,-139.104 L 32.9057,-138.746
 L 32.9763,-138.376 L 33,-138 L 32.9763,-137.624 L 32.9057,-137.254 L 32.7893,-136.896 L 32.6289,-136.555
 L 32.427,-136.237 L 32.1869,-135.946 L 31.9123,-135.688 L 31.6075,-135.467 L 31.2773,-135.286 L 30.927,-135.147
 L 30.5621,-135.053 L 30.1884,-135.006 z
M -30.1884,-135.006 L -30.5621,-135.053 L -30.927,-135.147 L -31.2773,-135.286 L -31.6075,-135.467 L -31.9123,-135.688
 L -32.1869,-135.946 L -32.427,-136.237 L -32.6289,-136.555 L -32.7893,-136.896 L -32.9057,-137.254 L -32.9763,-137.624
 L -33,-138 L -32.9763,-138.376 L -32.9057,-138.746 L -32.7893,-139.104 L -32.6289,-139.445 L -32.427,-139.763
 L -32.1869,-140.054 L -31.9123,-140.312 L -31.6075,-140.533 L -31.2773,-140.714 L -30.927,-140.853 L -30.5621,-140.947
 L -30.1884,-140.994 L -29.8116,-140.994 L -29.4379,-140.947 L -29.0729,-140.853 L -28.7227,-140.714 L -28.3925,-140.533
 L -28.0877,-140.312 L -27.8131,-140.054 L -27.5729,-139.763 L -27.3711,-139.445 L -27.2107,-139.104 L -27.0942,-138.746
 L -27.0237,-138.376 L -27,-138 L -27.0237,-137.624 L -27.0942,-137.254 L -27.2107,-136.896 L -27.3711,-136.555
 L -27.5729,-136.237 L -27.8131,-135.946 L -28.0877,-135.688 L -28.3925,-135.467 L -28.7227,-135.286 L -29.0729,-135.147
 L -29.4379,-135.053 L -29.8116,-135.006 z
M 14.8116,-135.006 L 14.4379,-135.053 L 14.0729,-135.147 L 13.7227,-135.286 L 13.3925,-135.467 L 13.0877,-135.688
 L 12.8131,-135.946 L 12.5729,-136.237 L 12.3711,-136.555 L 12.2107,-136.896 L 12.0942,-137.254 L 12.0237,-137.624
 L 12,-138 L 12.0237,-138.376 L 12.0942,-138.746 L 12.2107,-139.104 L 12.3711,-139.445 L 12.5729,-139.763
 L 12.8131,-140.054 L 13.0877,-140.312 L 13.3925,-140.533 L 13.7227,-140.714 L 14.0729,-140.853 L 14.4379,-140.947
 L 14.8116,-140.994 L 15.1884,-140.994 L 15.5621,-140.947 L 15.927,-140.853 L 16.2773,-140.714 L 16.6075,-140.533
 L 16.9123,-140.312 L 17.1869,-140.054 L 17.427,-139.763 L 17.6289,-139.445 L 17.7893,-139.104 L 17.9057,-138.746
 L 17.9763,-138.376 L 18,-138 L 17.9763,-137.624 L 17.9057,-137.254 L 17.7893,-136.896 L 17.6289,-136.555
 L 17.427,-136.237 L 17.1869,-135.946 L 16.9123,-135.688 L 16.6075,-135.467 L 16.2773,-135.286 L 15.927,-135.147
 L 15.5621,-135.053 L 15.1884,-135.006 z
" stroke="black" fill="lightgray" stroke-width="0.5"/>
</svg>
