  0
SECTION
  2
BLOCKS
  0
ENDSEC
  0
SECTION
  2
ENTITIES
  0
LINE
  8
0
 10
122.937
 20
89.0886
 11
123.545
 21
89.2447
  0
LINE
  8
0
 10
123.545
 20
89.2447
 11
124.129
 21
89.4759
  0
LINE
  8
0
 10
124.129
 20
89.4759
 11
124.679
 21
89.7784
  0
LINE
  8
0
 10
124.679
 20
89.7784
 11
125.187
 21
90.1474
  0
LINE
  8
0
 10
125.187
 20
90.1474
 11
125.645
 21
90.5773
  0
LINE
  8
0
 10
125.645
 20
90.5773
 11
126.045
 21
91.0611
  0
LINE
  8
0
 10
126.045
 20
91.0611
 11
126.382
 21
91.5912
  0
LINE
  8
0
 10
126.382
 20
91.5912
 11
126.649
 21
92.1594
  0
LINE
  8
0
 10
126.649
 20
92.1594
 11
126.843
 21
92.7566
  0
LINE
  8
0
 10
126.843
 20
92.7566
 11
126.961
 21
93.3733
  0
LINE
  8
0
 10
126.961
 20
93.3733
 11
127
 21
94
  0
LINE
  8
0
 10
127
 20
94
 11
127
 21
98
  0
LINE
  8
0
 10
127
 20
98
 11
126.961
 21
98.6267
  0
LINE
  8
0
 10
126.961
 20
98.6267
 11
126.843
 21
99.2434
  0
LINE
  8
0
 10
126.843
 20
99.2434
 11
126.649
 21
99.8406
  0
LINE
  8
0
 10
126.649
 20
99.8406
 11
126.382
 21
100.409
  0
LINE
  8
0
 10
126.382
 20
100.409
 11
126.045
 21
100.939
  0
LINE
  8
0
 10
126.045
 20
100.939
 11
125.645
 21
101.423
  0
LINE
  8
0
 10
125.645
 20
101.423
 11
125.187
 21
101.853
  0
LINE
  8
0
 10
125.187
 20
101.853
 11
124.679
 21
102.222
  0
LINE
  8
0
 10
124.679
 20
102.222
 11
124.129
 21
102.524
  0
LINE
  8
0
 10
124.129
 20
102.524
 11
123.545
 21
102.755
  0
LINE
  8
0
 10
123.545
 20
102.755
 11
122.937
 21
102.911
  0
LINE
  8
0
 10
122.937
 20
102.911
 11
122.314
 21
102.99
  0
LINE
  8
0
 10
122.314
 20
102.99
 11
-122.314
 21
102.99
  0
LINE
  8
0
 10
-122.314
 20
102.99
 11
-122.937
 21
102.911
  0
LINE
  8
0
 10
-122.937
 20
102.911
 11
-123.545
 21
102.755
  0
LINE
  8
0
 10
-123.545
 20
102.755
 11
-124.129
 21
102.524
  0
LINE
  8
0
 10
-124.129
 20
102.524
 11
-124.679
 21
102.222
  0
LINE
  8
0
 10
-124.679
 20
102.222
 11
-125.187
 21
101.853
  0
LINE
  8
0
 10
-125.187
 20
101.853
 11
-125.645
 21
101.423
  0
LINE
  8
0
 10
-125.645
 20
101.423
 11
-126.045
 21
100.939
  0
LINE
  8
0
 10
-126.045
 20
100.939
 11
-126.382
 21
100.409
  0
LINE
  8
0
 10
-126.382
 20
100.409
 11
-126.649
 21
99.8406
  0
LINE
  8
0
 10
-126.649
 20
99.8406
 11
-126.843
 21
99.2434
  0
LINE
  8
0
 10
-126.843
 20
99.2434
 11
-126.961
 21
98.6267
  0
LINE
  8
0
 10
-126.961
 20
98.6267
 11
-127
 21
98
  0
LINE
  8
0
 10
-127
 20
98
 11
-127
 21
94
  0
LINE
  8
0
 10
-127
 20
94
 11
-126.961
 21
93.3733
  0
LINE
  8
0
 10
-126.961
 20
93.3733
 11
-126.843
 21
92.7566
  0
LINE
  8
0
 10
-126.843
 20
92.7566
 11
-126.649
 21
92.1594
  0
LINE
  8
0
 10
-126.649
 20
92.1594
 11
-126.382
 21
91.5912
  0
LINE
  8
0
 10
-126.382
 20
91.5912
 11
-126.045
 21
91.0611
  0
LINE
  8
0
 10
-126.045
 20
91.0611
 11
-125.645
 21
90.5773
  0
LINE
  8
0
 10
-125.645
 20
90.5773
 11
-125.187
 21
90.1474
  0
LINE
  8
0
 10
-125.187
 20
90.1474
 11
-124.679
 21
89.7784
  0
LINE
  8
0
 10
-124.679
 20
89.7784
 11
-124.129
 21
89.4759
  0
LINE
  8
0
 10
-124.129
 20
89.4759
 11
-123.545
 21
89.2447
  0
LINE
  8
0
 10
-123.545
 20
89.2447
 11
-122.937
 21
89.0886
  0
LINE
  8
0
 10
-122.937
 20
89.0886
 11
-122.314
 21
89.0099
  0
LINE
  8
0
 10
-122.314
 20
89.0099
 11
122.314
 21
89.0099
  0
LINE
  8
0
 10
122.314
 20
89.0099
 11
122.937
 21
89.0886
  0
LINE
  8
0
 10
119.812
 20
93.0059
 11
119.438
 21
93.0531
  0
LINE
  8
0
 10
119.438
 20
93.0531
 11
119.073
 21
93.1468
  0
LINE
  8
0
 10
119.073
 20
93.1468
 11
118.723
 21
93.2855
  0
LINE
  8
0
 10
118.723
 20
93.2855
 11
118.393
 21
93.467
  0
LINE
  8
0
 10
118.393
 20
93.467
 11
118.088
 21
93.6885
  0
LINE
  8
0
 10
118.088
 20
93.6885
 11
117.813
 21
93.9464
  0
LINE
  8
0
 10
117.813
 20
93.9464
 11
117.573
 21
94.2366
  0
LINE
  8
0
 10
117.573
 20
94.2366
 11
117.371
 21
94.5547
  0
LINE
  8
0
 10
117.371
 20
94.5547
 11
117.211
 21
94.8956
  0
LINE
  8
0
 10
117.211
 20
94.8956
 11
117.094
 21
95.2539
  0
LINE
  8
0
 10
117.094
 20
95.2539
 11
117.024
 21
95.624
  0
LINE
  8
0
 10
117.024
 20
95.624
 11
117
 21
96
  0
LINE
  8
0
 10
117
 20
96
 11
117.024
 21
96.376
  0
LINE
  8
0
 10
117.024
 20
96.376
 11
117.094
 21
96.7461
  0
LINE
  8
0
 10
117.094
 20
96.7461
 11
117.211
 21
97.1044
  0
LINE
  8
0
 10
117.211
 20
97.1044
 11
117.371
 21
97.4453
  0
LINE
  8
0
 10
117.371
 20
97.4453
 11
117.573
 21
97.7634
  0
LINE
  8
0
 10
117.573
 20
97.7634
 11
117.813
 21
98.0536
  0
LINE
  8
0
 10
117.813
 20
98.0536
 11
118.088
 21
98.3115
  0
LINE
  8
0
 10
118.088
 20
98.3115
 11
118.393
 21
98.533
  0
LINE
  8
0
 10
118.393
 20
98.533
 11
118.723
 21
98.7145
  0
LINE
  8
0
 10
118.723
 20
98.7145
 11
119.073
 21
98.8532
  0
LINE
  8
0
 10
119.073
 20
98.8532
 11
119.438
 21
98.9469
  0
LINE
  8
0
 10
119.438
 20
98.9469
 11
119.812
 21
98.9941
  0
LINE
  8
0
 10
119.812
 20
98.9941
 11
120.188
 21
98.9941
  0
LINE
  8
0
 10
120.188
 20
98.9941
 11
120.562
 21
98.9469
  0
LINE
  8
0
 10
120.562
 20
98.9469
 11
120.927
 21
98.8532
  0
LINE
  8
0
 10
120.927
 20
98.8532
 11
121.277
 21
98.7145
  0
LINE
  8
0
 10
121.277
 20
98.7145
 11
121.607
 21
98.533
  0
LINE
  8
0
 10
121.607
 20
98.533
 11
121.912
 21
98.3115
  0
LINE
  8
0
 10
121.912
 20
98.3115
 11
122.187
 21
98.0536
  0
LINE
  8
0
 10
122.187
 20
98.0536
 11
122.427
 21
97.7634
  0
LINE
  8
0
 10
122.427
 20
97.7634
 11
122.629
 21
97.4453
  0
LINE
  8
0
 10
122.629
 20
97.4453
 11
122.789
 21
97.1044
  0
LINE
  8
0
 10
122.789
 20
97.1044
 11
122.906
 21
96.7461
  0
LINE
  8
0
 10
122.906
 20
96.7461
 11
122.976
 21
96.376
  0
LINE
  8
0
 10
122.976
 20
96.376
 11
123
 21
96
  0
LINE
  8
0
 10
123
 20
96
 11
122.976
 21
95.624
  0
LINE
  8
0
 10
122.976
 20
95.624
 11
122.906
 21
95.2539
  0
LINE
  8
0
 10
122.906
 20
95.2539
 11
122.789
 21
94.8956
  0
LINE
  8
0
 10
122.789
 20
94.8956
 11
122.629
 21
94.5547
  0
LINE
  8
0
 10
122.629
 20
94.5547
 11
122.427
 21
94.2366
  0
LINE
  8
0
 10
122.427
 20
94.2366
 11
122.187
 21
93.9464
  0
LINE
  8
0
 10
122.187
 20
93.9464
 11
121.912
 21
93.6885
  0
LINE
  8
0
 10
121.912
 20
93.6885
 11
121.607
 21
93.467
  0
LINE
  8
0
 10
121.607
 20
93.467
 11
121.277
 21
93.2855
  0
LINE
  8
0
 10
121.277
 20
93.2855
 11
120.927
 21
93.1468
  0
LINE
  8
0
 10
120.927
 20
93.1468
 11
120.562
 21
93.0531
  0
LINE
  8
0
 10
120.562
 20
93.0531
 11
120.188
 21
93.0059
  0
LINE
  8
0
 10
120.188
 20
93.0059
 11
119.812
 21
93.0059
  0
LINE
  8
0
 10
-120.188
 20
93.0059
 11
-120.562
 21
93.0531
  0
LINE
  8
0
 10
-120.562
 20
93.0531
 11
-120.927
 21
93.1468
  0
LINE
  8
0
 10
-120.927
 20
93.1468
 11
-121.277
 21
93.2855
  0
LINE
  8
0
 10
-121.277
 20
93.2855
 11
-121.607
 21
93.467
  0
LINE
  8
0
 10
-121.607
 20
93.467
 11
-121.912
 21
93.6885
  0
LINE
  8
0
 10
-121.912
 20
93.6885
 11
-122.187
 21
93.9464
  0
LINE
  8
0
 10
-122.187
 20
93.9464
 11
-122.427
 21
94.2366
  0
LINE
  8
0
 10
-122.427
 20
94.2366
 11
-122.629
 21
94.5547
  0
LINE
  8
0
 10
-122.629
 20
94.5547
 11
-122.789
 21
94.8956
  0
LINE
  8
0
 10
-122.789
 20
94.8956
 11
-122.906
 21
95.2539
  0
LINE
  8
0
 10
-122.906
 20
95.2539
 11
-122.976
 21
95.624
  0
LINE
  8
0
 10
-122.976
 20
95.624
 11
-123
 21
96
  0
LINE
  8
0
 10
-123
 20
96
 11
-122.976
 21
96.376
  0
LINE
  8
0
 10
-122.976
 20
96.376
 11
-122.906
 21
96.7461
  0
LINE
  8
0
 10
-122.906
 20
96.7461
 11
-122.789
 21
97.1044
  0
LINE
  8
0
 10
-122.789
 20
97.1044
 11
-122.629
 21
97.4453
  0
LINE
  8
0
 10
-122.629
 20
97.4453
 11
-122.427
 21
97.7634
  0
LINE
  8
0
 10
-122.427
 20
97.7634
 11
-122.187
 21
98.0536
  0
LINE
  8
0
 10
-122.187
 20
98.0536
 11
-121.912
 21
98.3115
  0
LINE
  8
0
 10
-121.912
 20
98.3115
 11
-121.607
 21
98.533
  0
LINE
  8
0
 10
-121.607
 20
98.533
 11
-121.277
 21
98.7145
  0
LINE
  8
0
 10
-121.277
 20
98.7145
 11
-120.927
 21
98.8532
  0
LINE
  8
0
 10
-120.927
 20
98.8532
 11
-120.562
 21
98.9469
  0
LINE
  8
0
 10
-120.562
 20
98.9469
 11
-120.188
 21
98.9941
  0
LINE
  8
0
 10
-120.188
 20
98.9941
 11
-119.812
 21
98.9941
  0
LINE
  8
0
 10
-119.812
 20
98.9941
 11
-119.438
 21
98.9469
  0
LINE
  8
0
 10
-119.438
 20
98.9469
 11
-119.073
 21
98.8532
  0
LINE
  8
0
 10
-119.073
 20
98.8532
 11
-118.723
 21
98.7145
  0
LINE
  8
0
 10
-118.723
 20
98.7145
 11
-118.393
 21
98.533
  0
LINE
  8
0
 10
-118.393
 20
98.533
 11
-118.088
 21
98.3115
  0
LINE
  8
0
 10
-118.088
 20
98.3115
 11
-117.813
 21
98.0536
  0
LINE
  8
0
 10
-117.813
 20
98.0536
 11
-117.573
 21
97.7634
  0
LINE
  8
0
 10
-117.573
 20
97.7634
 11
-117.371
 21
97.4453
  0
LINE
  8
0
 10
-117.371
 20
97.4453
 11
-117.211
 21
97.1044
  0
LINE
  8
0
 10
-117.211
 20
97.1044
 11
-117.094
 21
96.7461
  0
LINE
  8
0
 10
-117.094
 20
96.7461
 11
-117.024
 21
96.376
  0
LINE
  8
0
 10
-117.024
 20
96.376
 11
-117
 21
96
  0
LINE
  8
0
 10
-117
 20
96
 11
-117.024
 21
95.624
  0
LINE
  8
0
 10
-117.024
 20
95.624
 11
-117.094
 21
95.2539
  0
LINE
  8
0
 10
-117.094
 20
95.2539
 11
-117.211
 21
94.8956
  0
LINE
  8
0
 10
-117.211
 20
94.8956
 11
-117.371
 21
94.5547
  0
LINE
  8
0
 10
-117.371
 20
94.5547
 11
-117.573
 21
94.2366
  0
LINE
  8
0
 10
-117.573
 20
94.2366
 11
-117.813
 21
93.9464
  0
LINE
  8
0
 10
-117.813
 20
93.9464
 11
-118.088
 21
93.6885
  0
LINE
  8
0
 10
-118.088
 20
93.6885
 11
-118.393
 21
93.467
  0
LINE
  8
0
 10
-118.393
 20
93.467
 11
-118.723
 21
93.2855
  0
LINE
  8
0
 10
-118.723
 20
93.2855
 11
-119.073
 21
93.1468
  0
LINE
  8
0
 10
-119.073
 20
93.1468
 11
-119.438
 21
93.0531
  0
LINE
  8
0
 10
-119.438
 20
93.0531
 11
-119.812
 21
93.0059
  0
LINE
  8
0
 10
-119.812
 20
93.0059
 11
-120.188
 21
93.0059
  0
LINE
  8
0
 10
122.937
 20
65.0886
 11
123.545
 21
65.2447
  0
LINE
  8
0
 10
123.545
 20
65.2447
 11
124.129
 21
65.4759
  0
LINE
  8
0
 10
124.129
 20
65.4759
 11
124.679
 21
65.7784
  0
LINE
  8
0
 10
124.679
 20
65.7784
 11
125.187
 21
66.1474
  0
LINE
  8
0
 10
125.187
 20
66.1474
 11
125.645
 21
66.5773
  0
LINE
  8
0
 10
125.645
 20
66.5773
 11
126.045
 21
67.0611
  0
LINE
  8
0
 10
126.045
 20
67.0611
 11
126.382
 21
67.5912
  0
LINE
  8
0
 10
126.382
 20
67.5912
 11
126.649
 21
68.1594
  0
LINE
  8
0
 10
126.649
 20
68.1594
 11
126.843
 21
68.7566
  0
LINE
  8
0
 10
126.843
 20
68.7566
 11
126.961
 21
69.3733
  0
LINE
  8
0
 10
126.961
 20
69.3733
 11
127
 21
70
  0
LINE
  8
0
 10
127
 20
70
 11
127
 21
74
  0
LINE
  8
0
 10
127
 20
74
 11
126.961
 21
74.6267
  0
LINE
  8
0
 10
126.961
 20
74.6267
 11
126.843
 21
75.2434
  0
LINE
  8
0
 10
126.843
 20
75.2434
 11
126.649
 21
75.8406
  0
LINE
  8
0
 10
126.649
 20
75.8406
 11
126.382
 21
76.4088
  0
LINE
  8
0
 10
126.382
 20
76.4088
 11
126.045
 21
76.9389
  0
LINE
  8
0
 10
126.045
 20
76.9389
 11
125.645
 21
77.4227
  0
LINE
  8
0
 10
125.645
 20
77.4227
 11
125.187
 21
77.8526
  0
LINE
  8
0
 10
125.187
 20
77.8526
 11
124.679
 21
78.2216
  0
LINE
  8
0
 10
124.679
 20
78.2216
 11
124.129
 21
78.5241
  0
LINE
  8
0
 10
124.129
 20
78.5241
 11
123.545
 21
78.7553
  0
LINE
  8
0
 10
123.545
 20
78.7553
 11
122.937
 21
78.9114
  0
LINE
  8
0
 10
122.937
 20
78.9114
 11
122.314
 21
78.9901
  0
LINE
  8
0
 10
122.314
 20
78.9901
 11
-122.314
 21
78.9901
  0
LINE
  8
0
 10
-122.314
 20
78.9901
 11
-122.937
 21
78.9114
  0
LINE
  8
0
 10
-122.937
 20
78.9114
 11
-123.545
 21
78.7553
  0
LINE
  8
0
 10
-123.545
 20
78.7553
 11
-124.129
 21
78.5241
  0
LINE
  8
0
 10
-124.129
 20
78.5241
 11
-124.679
 21
78.2216
  0
LINE
  8
0
 10
-124.679
 20
78.2216
 11
-125.187
 21
77.8526
  0
LINE
  8
0
 10
-125.187
 20
77.8526
 11
-125.645
 21
77.4227
  0
LINE
  8
0
 10
-125.645
 20
77.4227
 11
-126.045
 21
76.9389
  0
LINE
  8
0
 10
-126.045
 20
76.9389
 11
-126.382
 21
76.4088
  0
LINE
  8
0
 10
-126.382
 20
76.4088
 11
-126.649
 21
75.8406
  0
LINE
  8
0
 10
-126.649
 20
75.8406
 11
-126.843
 21
75.2434
  0
LINE
  8
0
 10
-126.843
 20
75.2434
 11
-126.961
 21
74.6267
  0
LINE
  8
0
 10
-126.961
 20
74.6267
 11
-127
 21
74
  0
LINE
  8
0
 10
-127
 20
74
 11
-127
 21
70
  0
LINE
  8
0
 10
-127
 20
70
 11
-126.961
 21
69.3733
  0
LINE
  8
0
 10
-126.961
 20
69.3733
 11
-126.843
 21
68.7566
  0
LINE
  8
0
 10
-126.843
 20
68.7566
 11
-126.649
 21
68.1594
  0
LINE
  8
0
 10
-126.649
 20
68.1594
 11
-126.382
 21
67.5912
  0
LINE
  8
0
 10
-126.382
 20
67.5912
 11
-126.045
 21
67.0611
  0
LINE
  8
0
 10
-126.045
 20
67.0611
 11
-125.645
 21
66.5773
  0
LINE
  8
0
 10
-125.645
 20
66.5773
 11
-125.187
 21
66.1474
  0
LINE
  8
0
 10
-125.187
 20
66.1474
 11
-124.679
 21
65.7784
  0
LINE
  8
0
 10
-124.679
 20
65.7784
 11
-124.129
 21
65.4759
  0
LINE
  8
0
 10
-124.129
 20
65.4759
 11
-123.545
 21
65.2447
  0
LINE
  8
0
 10
-123.545
 20
65.2447
 11
-122.937
 21
65.0886
  0
LINE
  8
0
 10
-122.937
 20
65.0886
 11
-122.314
 21
65.0099
  0
LINE
  8
0
 10
-122.314
 20
65.0099
 11
122.314
 21
65.0099
  0
LINE
  8
0
 10
122.314
 20
65.0099
 11
122.937
 21
65.0886
  0
LINE
  8
0
 10
119.812
 20
69.0059
 11
119.438
 21
69.0531
  0
LINE
  8
0
 10
119.438
 20
69.0531
 11
119.073
 21
69.1468
  0
LINE
  8
0
 10
119.073
 20
69.1468
 11
118.723
 21
69.2855
  0
LINE
  8
0
 10
118.723
 20
69.2855
 11
118.393
 21
69.467
  0
LINE
  8
0
 10
118.393
 20
69.467
 11
118.088
 21
69.6885
  0
LINE
  8
0
 10
118.088
 20
69.6885
 11
117.813
 21
69.9464
  0
LINE
  8
0
 10
117.813
 20
69.9464
 11
117.573
 21
70.2366
  0
LINE
  8
0
 10
117.573
 20
70.2366
 11
117.371
 21
70.5547
  0
LINE
  8
0
 10
117.371
 20
70.5547
 11
117.211
 21
70.8956
  0
LINE
  8
0
 10
117.211
 20
70.8956
 11
117.094
 21
71.2539
  0
LINE
  8
0
 10
117.094
 20
71.2539
 11
117.024
 21
71.624
  0
LINE
  8
0
 10
117.024
 20
71.624
 11
117
 21
72
  0
LINE
  8
0
 10
117
 20
72
 11
117.024
 21
72.376
  0
LINE
  8
0
 10
117.024
 20
72.376
 11
117.094
 21
72.7461
  0
LINE
  8
0
 10
117.094
 20
72.7461
 11
117.211
 21
73.1044
  0
LINE
  8
0
 10
117.211
 20
73.1044
 11
117.371
 21
73.4453
  0
LINE
  8
0
 10
117.371
 20
73.4453
 11
117.573
 21
73.7634
  0
LINE
  8
0
 10
117.573
 20
73.7634
 11
117.813
 21
74.0536
  0
LINE
  8
0
 10
117.813
 20
74.0536
 11
118.088
 21
74.3115
  0
LINE
  8
0
 10
118.088
 20
74.3115
 11
118.393
 21
74.533
  0
LINE
  8
0
 10
118.393
 20
74.533
 11
118.723
 21
74.7145
  0
LINE
  8
0
 10
118.723
 20
74.7145
 11
119.073
 21
74.8532
  0
LINE
  8
0
 10
119.073
 20
74.8532
 11
119.438
 21
74.9469
  0
LINE
  8
0
 10
119.438
 20
74.9469
 11
119.812
 21
74.9941
  0
LINE
  8
0
 10
119.812
 20
74.9941
 11
120.188
 21
74.9941
  0
LINE
  8
0
 10
120.188
 20
74.9941
 11
120.562
 21
74.9469
  0
LINE
  8
0
 10
120.562
 20
74.9469
 11
120.927
 21
74.8532
  0
LINE
  8
0
 10
120.927
 20
74.8532
 11
121.277
 21
74.7145
  0
LINE
  8
0
 10
121.277
 20
74.7145
 11
121.607
 21
74.533
  0
LINE
  8
0
 10
121.607
 20
74.533
 11
121.912
 21
74.3115
  0
LINE
  8
0
 10
121.912
 20
74.3115
 11
122.187
 21
74.0536
  0
LINE
  8
0
 10
122.187
 20
74.0536
 11
122.427
 21
73.7634
  0
LINE
  8
0
 10
122.427
 20
73.7634
 11
122.629
 21
73.4453
  0
LINE
  8
0
 10
122.629
 20
73.4453
 11
122.789
 21
73.1044
  0
LINE
  8
0
 10
122.789
 20
73.1044
 11
122.906
 21
72.7461
  0
LINE
  8
0
 10
122.906
 20
72.7461
 11
122.976
 21
72.376
  0
LINE
  8
0
 10
122.976
 20
72.376
 11
123
 21
72
  0
LINE
  8
0
 10
123
 20
72
 11
122.976
 21
71.624
  0
LINE
  8
0
 10
122.976
 20
71.624
 11
122.906
 21
71.2539
  0
LINE
  8
0
 10
122.906
 20
71.2539
 11
122.789
 21
70.8956
  0
LINE
  8
0
 10
122.789
 20
70.8956
 11
122.629
 21
70.5547
  0
LINE
  8
0
 10
122.629
 20
70.5547
 11
122.427
 21
70.2366
  0
LINE
  8
0
 10
122.427
 20
70.2366
 11
122.187
 21
69.9464
  0
LINE
  8
0
 10
122.187
 20
69.9464
 11
121.912
 21
69.6885
  0
LINE
  8
0
 10
121.912
 20
69.6885
 11
121.607
 21
69.467
  0
LINE
  8
0
 10
121.607
 20
69.467
 11
121.277
 21
69.2855
  0
LINE
  8
0
 10
121.277
 20
69.2855
 11
120.927
 21
69.1468
  0
LINE
  8
0
 10
120.927
 20
69.1468
 11
120.562
 21
69.0531
  0
LINE
  8
0
 10
120.562
 20
69.0531
 11
120.188
 21
69.0059
  0
LINE
  8
0
 10
120.188
 20
69.0059
 11
119.812
 21
69.0059
  0
LINE
  8
0
 10
-120.188
 20
69.0059
 11
-120.562
 21
69.0531
  0
LINE
  8
0
 10
-120.562
 20
69.0531
 11
-120.927
 21
69.1468
  0
LINE
  8
0
 10
-120.927
 20
69.1468
 11
-121.277
 21
69.2855
  0
LINE
  8
0
 10
-121.277
 20
69.2855
 11
-121.607
 21
69.467
  0
LINE
  8
0
 10
-121.607
 20
69.467
 11
-121.912
 21
69.6885
  0
LINE
  8
0
 10
-121.912
 20
69.6885
 11
-122.187
 21
69.9464
  0
LINE
  8
0
 10
-122.187
 20
69.9464
 11
-122.427
 21
70.2366
  0
LINE
  8
0
 10
-122.427
 20
70.2366
 11
-122.629
 21
70.5547
  0
LINE
  8
0
 10
-122.629
 20
70.5547
 11
-122.789
 21
70.8956
  0
LINE
  8
0
 10
-122.789
 20
70.8956
 11
-122.906
 21
71.2539
  0
LINE
  8
0
 10
-122.906
 20
71.2539
 11
-122.976
 21
71.624
  0
LINE
  8
0
 10
-122.976
 20
71.624
 11
-123
 21
72
  0
LINE
  8
0
 10
-123
 20
72
 11
-122.976
 21
72.376
  0
LINE
  8
0
 10
-122.976
 20
72.376
 11
-122.906
 21
72.7461
  0
LINE
  8
0
 10
-122.906
 20
72.7461
 11
-122.789
 21
73.1044
  0
LINE
  8
0
 10
-122.789
 20
73.1044
 11
-122.629
 21
73.4453
  0
LINE
  8
0
 10
-122.629
 20
73.4453
 11
-122.427
 21
73.7634
  0
LINE
  8
0
 10
-122.427
 20
73.7634
 11
-122.187
 21
74.0536
  0
LINE
  8
0
 10
-122.187
 20
74.0536
 11
-121.912
 21
74.3115
  0
LINE
  8
0
 10
-121.912
 20
74.3115
 11
-121.607
 21
74.533
  0
LINE
  8
0
 10
-121.607
 20
74.533
 11
-121.277
 21
74.7145
  0
LINE
  8
0
 10
-121.277
 20
74.7145
 11
-120.927
 21
74.8532
  0
LINE
  8
0
 10
-120.927
 20
74.8532
 11
-120.562
 21
74.9469
  0
LINE
  8
0
 10
-120.562
 20
74.9469
 11
-120.188
 21
74.9941
  0
LINE
  8
0
 10
-120.188
 20
74.9941
 11
-119.812
 21
74.9941
  0
LINE
  8
0
 10
-119.812
 20
74.9941
 11
-119.438
 21
74.9469
  0
LINE
  8
0
 10
-119.438
 20
74.9469
 11
-119.073
 21
74.8532
  0
LINE
  8
0
 10
-119.073
 20
74.8532
 11
-118.723
 21
74.7145
  0
LINE
  8
0
 10
-118.723
 20
74.7145
 11
-118.393
 21
74.533
  0
LINE
  8
0
 10
-118.393
 20
74.533
 11
-118.088
 21
74.3115
  0
LINE
  8
0
 10
-118.088
 20
74.3115
 11
-117.813
 21
74.0536
  0
LINE
  8
0
 10
-117.813
 20
74.0536
 11
-117.573
 21
73.7634
  0
LINE
  8
0
 10
-117.573
 20
73.7634
 11
-117.371
 21
73.4453
  0
LINE
  8
0
 10
-117.371
 20
73.4453
 11
-117.211
 21
73.1044
  0
LINE
  8
0
 10
-117.211
 20
73.1044
 11
-117.094
 21
72.7461
  0
LINE
  8
0
 10
-117.094
 20
72.7461
 11
-117.024
 21
72.376
  0
LINE
  8
0
 10
-117.024
 20
72.376
 11
-117
 21
72
  0
LINE
  8
0
 10
-117
 20
72
 11
-117.024
 21
71.624
  0
LINE
  8
0
 10
-117.024
 20
71.624
 11
-117.094
 21
71.2539
  0
LINE
  8
0
 10
-117.094
 20
71.2539
 11
-117.211
 21
70.8956
  0
LINE
  8
0
 10
-117.211
 20
70.8956
 11
-117.371
 21
70.5547
  0
LINE
  8
0
 10
-117.371
 20
70.5547
 11
-117.573
 21
70.2366
  0
LINE
  8
0
 10
-117.573
 20
70.2366
 11
-117.813
 21
69.9464
  0
LINE
  8
0
 10
-117.813
 20
69.9464
 11
-118.088
 21
69.6885
  0
LINE
  8
0
 10
-118.088
 20
69.6885
 11
-118.393
 21
69.467
  0
LINE
  8
0
 10
-118.393
 20
69.467
 11
-118.723
 21
69.2855
  0
LINE
  8
0
 10
-118.723
 20
69.2855
 11
-119.073
 21
69.1468
  0
LINE
  8
0
 10
-119.073
 20
69.1468
 11
-119.438
 21
69.0531
  0
LINE
  8
0
 10
-119.438
 20
69.0531
 11
-119.812
 21
69.0059
  0
LINE
  8
0
 10
-119.812
 20
69.0059
 11
-120.188
 21
69.0059
  0
LINE
  8
0
 10
122.937
 20
41.0886
 11
123.545
 21
41.2447
  0
LINE
  8
0
 10
123.545
 20
41.2447
 11
124.129
 21
41.4759
  0
LINE
  8
0
 10
124.129
 20
41.4759
 11
124.679
 21
41.7784
  0
LINE
  8
0
 10
124.679
 20
41.7784
 11
125.187
 21
42.1474
  0
LINE
  8
0
 10
125.187
 20
42.1474
 11
125.645
 21
42.5773
  0
LINE
  8
0
 10
125.645
 20
42.5773
 11
126.045
 21
43.0611
  0
LINE
  8
0
 10
126.045
 20
43.0611
 11
126.382
 21
43.5912
  0
LINE
  8
0
 10
126.382
 20
43.5912
 11
126.649
 21
44.1594
  0
LINE
  8
0
 10
126.649
 20
44.1594
 11
126.843
 21
44.7566
  0
LINE
  8
0
 10
126.843
 20
44.7566
 11
126.961
 21
45.3733
  0
LINE
  8
0
 10
126.961
 20
45.3733
 11
127
 21
46
  0
LINE
  8
0
 10
127
 20
46
 11
127
 21
50
  0
LINE
  8
0
 10
127
 20
50
 11
126.961
 21
50.6267
  0
LINE
  8
0
 10
126.961
 20
50.6267
 11
126.843
 21
51.2434
  0
LINE
  8
0
 10
126.843
 20
51.2434
 11
126.649
 21
51.8406
  0
LINE
  8
0
 10
126.649
 20
51.8406
 11
126.382
 21
52.4088
  0
LINE
  8
0
 10
126.382
 20
52.4088
 11
126.045
 21
52.9389
  0
LINE
  8
0
 10
126.045
 20
52.9389
 11
125.645
 21
53.4227
  0
LINE
  8
0
 10
125.645
 20
53.4227
 11
125.187
 21
53.8526
  0
LINE
  8
0
 10
125.187
 20
53.8526
 11
124.679
 21
54.2216
  0
LINE
  8
0
 10
124.679
 20
54.2216
 11
124.129
 21
54.5241
  0
LINE
  8
0
 10
124.129
 20
54.5241
 11
123.545
 21
54.7553
  0
LINE
  8
0
 10
123.545
 20
54.7553
 11
122.937
 21
54.9114
  0
LINE
  8
0
 10
122.937
 20
54.9114
 11
122.314
 21
54.9901
  0
LINE
  8
0
 10
122.314
 20
54.9901
 11
-122.314
 21
54.9901
  0
LINE
  8
0
 10
-122.314
 20
54.9901
 11
-122.937
 21
54.9114
  0
LINE
  8
0
 10
-122.937
 20
54.9114
 11
-123.545
 21
54.7553
  0
LINE
  8
0
 10
-123.545
 20
54.7553
 11
-124.129
 21
54.5241
  0
LINE
  8
0
 10
-124.129
 20
54.5241
 11
-124.679
 21
54.2216
  0
LINE
  8
0
 10
-124.679
 20
54.2216
 11
-125.187
 21
53.8526
  0
LINE
  8
0
 10
-125.187
 20
53.8526
 11
-125.645
 21
53.4227
  0
LINE
  8
0
 10
-125.645
 20
53.4227
 11
-126.045
 21
52.9389
  0
LINE
  8
0
 10
-126.045
 20
52.9389
 11
-126.382
 21
52.4088
  0
LINE
  8
0
 10
-126.382
 20
52.4088
 11
-126.649
 21
51.8406
  0
LINE
  8
0
 10
-126.649
 20
51.8406
 11
-126.843
 21
51.2434
  0
LINE
  8
0
 10
-126.843
 20
51.2434
 11
-126.961
 21
50.6267
  0
LINE
  8
0
 10
-126.961
 20
50.6267
 11
-127
 21
50
  0
LINE
  8
0
 10
-127
 20
50
 11
-127
 21
46
  0
LINE
  8
0
 10
-127
 20
46
 11
-126.961
 21
45.3733
  0
LINE
  8
0
 10
-126.961
 20
45.3733
 11
-126.843
 21
44.7566
  0
LINE
  8
0
 10
-126.843
 20
44.7566
 11
-126.649
 21
44.1594
  0
LINE
  8
0
 10
-126.649
 20
44.1594
 11
-126.382
 21
43.5912
  0
LINE
  8
0
 10
-126.382
 20
43.5912
 11
-126.045
 21
43.0611
  0
LINE
  8
0
 10
-126.045
 20
43.0611
 11
-125.645
 21
42.5773
  0
LINE
  8
0
 10
-125.645
 20
42.5773
 11
-125.187
 21
42.1474
  0
LINE
  8
0
 10
-125.187
 20
42.1474
 11
-124.679
 21
41.7784
  0
LINE
  8
0
 10
-124.679
 20
41.7784
 11
-124.129
 21
41.4759
  0
LINE
  8
0
 10
-124.129
 20
41.4759
 11
-123.545
 21
41.2447
  0
LINE
  8
0
 10
-123.545
 20
41.2447
 11
-122.937
 21
41.0886
  0
LINE
  8
0
 10
-122.937
 20
41.0886
 11
-122.314
 21
41.0099
  0
LINE
  8
0
 10
-122.314
 20
41.0099
 11
122.314
 21
41.0099
  0
LINE
  8
0
 10
122.314
 20
41.0099
 11
122.937
 21
41.0886
  0
LINE
  8
0
 10
-120.188
 20
45.0059
 11
-120.562
 21
45.0531
  0
LINE
  8
0
 10
-120.562
 20
45.0531
 11
-120.927
 21
45.1468
  0
LINE
  8
0
 10
-120.927
 20
45.1468
 11
-121.277
 21
45.2855
  0
LINE
  8
0
 10
-121.277
 20
45.2855
 11
-121.607
 21
45.467
  0
LINE
  8
0
 10
-121.607
 20
45.467
 11
-121.912
 21
45.6885
  0
LINE
  8
0
 10
-121.912
 20
45.6885
 11
-122.187
 21
45.9464
  0
LINE
  8
0
 10
-122.187
 20
45.9464
 11
-122.427
 21
46.2366
  0
LINE
  8
0
 10
-122.427
 20
46.2366
 11
-122.629
 21
46.5547
  0
LINE
  8
0
 10
-122.629
 20
46.5547
 11
-122.789
 21
46.8956
  0
LINE
  8
0
 10
-122.789
 20
46.8956
 11
-122.906
 21
47.2539
  0
LINE
  8
0
 10
-122.906
 20
47.2539
 11
-122.976
 21
47.624
  0
LINE
  8
0
 10
-122.976
 20
47.624
 11
-123
 21
48
  0
LINE
  8
0
 10
-123
 20
48
 11
-122.976
 21
48.376
  0
LINE
  8
0
 10
-122.976
 20
48.376
 11
-122.906
 21
48.7461
  0
LINE
  8
0
 10
-122.906
 20
48.7461
 11
-122.789
 21
49.1044
  0
LINE
  8
0
 10
-122.789
 20
49.1044
 11
-122.629
 21
49.4453
  0
LINE
  8
0
 10
-122.629
 20
49.4453
 11
-122.427
 21
49.7634
  0
LINE
  8
0
 10
-122.427
 20
49.7634
 11
-122.187
 21
50.0536
  0
LINE
  8
0
 10
-122.187
 20
50.0536
 11
-121.912
 21
50.3115
  0
LINE
  8
0
 10
-121.912
 20
50.3115
 11
-121.607
 21
50.533
  0
LINE
  8
0
 10
-121.607
 20
50.533
 11
-121.277
 21
50.7145
  0
LINE
  8
0
 10
-121.277
 20
50.7145
 11
-120.927
 21
50.8532
  0
LINE
  8
0
 10
-120.927
 20
50.8532
 11
-120.562
 21
50.9469
  0
LINE
  8
0
 10
-120.562
 20
50.9469
 11
-120.188
 21
50.9941
  0
LINE
  8
0
 10
-120.188
 20
50.9941
 11
-119.812
 21
50.9941
  0
LINE
  8
0
 10
-119.812
 20
50.9941
 11
-119.438
 21
50.9469
  0
LINE
  8
0
 10
-119.438
 20
50.9469
 11
-119.073
 21
50.8532
  0
LINE
  8
0
 10
-119.073
 20
50.8532
 11
-118.723
 21
50.7145
  0
LINE
  8
0
 10
-118.723
 20
50.7145
 11
-118.393
 21
50.533
  0
LINE
  8
0
 10
-118.393
 20
50.533
 11
-118.088
 21
50.3115
  0
LINE
  8
0
 10
-118.088
 20
50.3115
 11
-117.813
 21
50.0536
  0
LINE
  8
0
 10
-117.813
 20
50.0536
 11
-117.573
 21
49.7634
  0
LINE
  8
0
 10
-117.573
 20
49.7634
 11
-117.371
 21
49.4453
  0
LINE
  8
0
 10
-117.371
 20
49.4453
 11
-117.211
 21
49.1044
  0
LINE
  8
0
 10
-117.211
 20
49.1044
 11
-117.094
 21
48.7461
  0
LINE
  8
0
 10
-117.094
 20
48.7461
 11
-117.024
 21
48.376
  0
LINE
  8
0
 10
-117.024
 20
48.376
 11
-117
 21
48
  0
LINE
  8
0
 10
-117
 20
48
 11
-117.024
 21
47.624
  0
LINE
  8
0
 10
-117.024
 20
47.624
 11
-117.094
 21
47.2539
  0
LINE
  8
0
 10
-117.094
 20
47.2539
 11
-117.211
 21
46.8956
  0
LINE
  8
0
 10
-117.211
 20
46.8956
 11
-117.371
 21
46.5547
  0
LINE
  8
0
 10
-117.371
 20
46.5547
 11
-117.573
 21
46.2366
  0
LINE
  8
0
 10
-117.573
 20
46.2366
 11
-117.813
 21
45.9464
  0
LINE
  8
0
 10
-117.813
 20
45.9464
 11
-118.088
 21
45.6885
  0
LINE
  8
0
 10
-118.088
 20
45.6885
 11
-118.393
 21
45.467
  0
LINE
  8
0
 10
-118.393
 20
45.467
 11
-118.723
 21
45.2855
  0
LINE
  8
0
 10
-118.723
 20
45.2855
 11
-119.073
 21
45.1468
  0
LINE
  8
0
 10
-119.073
 20
45.1468
 11
-119.438
 21
45.0531
  0
LINE
  8
0
 10
-119.438
 20
45.0531
 11
-119.812
 21
45.0059
  0
LINE
  8
0
 10
-119.812
 20
45.0059
 11
-120.188
 21
45.0059
  0
LINE
  8
0
 10
119.812
 20
45.0059
 11
119.438
 21
45.0531
  0
LINE
  8
0
 10
119.438
 20
45.0531
 11
119.073
 21
45.1468
  0
LINE
  8
0
 10
119.073
 20
45.1468
 11
118.723
 21
45.2855
  0
LINE
  8
0
 10
118.723
 20
45.2855
 11
118.393
 21
45.467
  0
LINE
  8
0
 10
118.393
 20
45.467
 11
118.088
 21
45.6885
  0
LINE
  8
0
 10
118.088
 20
45.6885
 11
117.813
 21
45.9464
  0
LINE
  8
0
 10
117.813
 20
45.9464
 11
117.573
 21
46.2366
  0
LINE
  8
0
 10
117.573
 20
46.2366
 11
117.371
 21
46.5547
  0
LINE
  8
0
 10
117.371
 20
46.5547
 11
117.211
 21
46.8956
  0
LINE
  8
0
 10
117.211
 20
46.8956
 11
117.094
 21
47.2539
  0
LINE
  8
0
 10
117.094
 20
47.2539
 11
117.024
 21
47.624
  0
LINE
  8
0
 10
117.024
 20
47.624
 11
117
 21
48
  0
LINE
  8
0
 10
117
 20
48
 11
117.024
 21
48.376
  0
LINE
  8
0
 10
117.024
 20
48.376
 11
117.094
 21
48.7461
  0
LINE
  8
0
 10
117.094
 20
48.7461
 11
117.211
 21
49.1044
  0
LINE
  8
0
 10
117.211
 20
49.1044
 11
117.371
 21
49.4453
  0
LINE
  8
0
 10
117.371
 20
49.4453
 11
117.573
 21
49.7634
  0
LINE
  8
0
 10
117.573
 20
49.7634
 11
117.813
 21
50.0536
  0
LINE
  8
0
 10
117.813
 20
50.0536
 11
118.088
 21
50.3115
  0
LINE
  8
0
 10
118.088
 20
50.3115
 11
118.393
 21
50.533
  0
LINE
  8
0
 10
118.393
 20
50.533
 11
118.723
 21
50.7145
  0
LINE
  8
0
 10
118.723
 20
50.7145
 11
119.073
 21
50.8532
  0
LINE
  8
0
 10
119.073
 20
50.8532
 11
119.438
 21
50.9469
  0
LINE
  8
0
 10
119.438
 20
50.9469
 11
119.812
 21
50.9941
  0
LINE
  8
0
 10
119.812
 20
50.9941
 11
120.188
 21
50.9941
  0
LINE
  8
0
 10
120.188
 20
50.9941
 11
120.562
 21
50.9469
  0
LINE
  8
0
 10
120.562
 20
50.9469
 11
120.927
 21
50.8532
  0
LINE
  8
0
 10
120.927
 20
50.8532
 11
121.277
 21
50.7145
  0
LINE
  8
0
 10
121.277
 20
50.7145
 11
121.607
 21
50.533
  0
LINE
  8
0
 10
121.607
 20
50.533
 11
121.912
 21
50.3115
  0
LINE
  8
0
 10
121.912
 20
50.3115
 11
122.187
 21
50.0536
  0
LINE
  8
0
 10
122.187
 20
50.0536
 11
122.427
 21
49.7634
  0
LINE
  8
0
 10
122.427
 20
49.7634
 11
122.629
 21
49.4453
  0
LINE
  8
0
 10
122.629
 20
49.4453
 11
122.789
 21
49.1044
  0
LINE
  8
0
 10
122.789
 20
49.1044
 11
122.906
 21
48.7461
  0
LINE
  8
0
 10
122.906
 20
48.7461
 11
122.976
 21
48.376
  0
LINE
  8
0
 10
122.976
 20
48.376
 11
123
 21
48
  0
LINE
  8
0
 10
123
 20
48
 11
122.976
 21
47.624
  0
LINE
  8
0
 10
122.976
 20
47.624
 11
122.906
 21
47.2539
  0
LINE
  8
0
 10
122.906
 20
47.2539
 11
122.789
 21
46.8956
  0
LINE
  8
0
 10
122.789
 20
46.8956
 11
122.629
 21
46.5547
  0
LINE
  8
0
 10
122.629
 20
46.5547
 11
122.427
 21
46.2366
  0
LINE
  8
0
 10
122.427
 20
46.2366
 11
122.187
 21
45.9464
  0
LINE
  8
0
 10
122.187
 20
45.9464
 11
121.912
 21
45.6885
  0
LINE
  8
0
 10
121.912
 20
45.6885
 11
121.607
 21
45.467
  0
LINE
  8
0
 10
121.607
 20
45.467
 11
121.277
 21
45.2855
  0
LINE
  8
0
 10
121.277
 20
45.2855
 11
120.927
 21
45.1468
  0
LINE
  8
0
 10
120.927
 20
45.1468
 11
120.562
 21
45.0531
  0
LINE
  8
0
 10
120.562
 20
45.0531
 11
120.188
 21
45.0059
  0
LINE
  8
0
 10
120.188
 20
45.0059
 11
119.812
 21
45.0059
  0
ENDSEC
  0
SECTION
  2
OBJECTS
  0
DICTIONARY
  0
ENDSEC
  0
EOF
