<?xml version="1.0" standalone="no"?>
<!DOCTYPE svg PUBLIC "-//W3C//DTD SVG 1.1//EN" "http://www.w3.org/Graphics/SVG/1.1/DTD/svg11.dtd">
<svg width="90mm" height="260mm" viewBox="-45 -508 90 260" xmlns="http://www.w3.org/2000/svg" version="1.1">
<title>OpenSCAD Model</title>
<path d="
M 40.4369,-464.089 L 41.0451,-464.245 L 41.6289,-464.476 L 42.1791,-464.778 L 42.6871,-465.147 L 43.1448,-465.577
 L 43.5451,-466.061 L 43.8815,-466.591 L 44.1489,-467.159 L 44.3429,-467.757 L 44.4606,-468.373 L 44.5,-469
 L 44.5,-503 L 44.4606,-503.627 L 44.3429,-504.243 L 44.1489,-504.841 L 43.8815,-505.409 L 43.5451,-505.939
 L 43.1448,-506.423 L 42.6871,-506.853 L 42.1791,-507.222 L 41.6289,-507.524 L 41.0451,-507.755 L 40.4369,-507.911
 L 39.8139,-507.99 L -39.8139,-507.99 L -40.4369,-507.911 L -41.0451,-507.755 L -41.6289,-507.524 L -42.1791,-507.222
 L -42.6871,-506.853 L -43.1448,-506.423 L -43.5451,-505.939 L -43.8815,-505.409 L -44.1489,-504.841 L -44.3429,-504.243
 L -44.4606,-503.627 L -44.5,-503 L -44.5,-469 L -44.4606,-468.373 L -44.3429,-467.757 L -44.1489,-467.159
 L -43.8815,-466.591 L -43.5451,-466.061 L -43.1448,-465.577 L -42.6871,-465.147 L -42.1791,-464.778 L -41.6289,-464.476
 L -41.0451,-464.245 L -40.4369,-464.089 L -39.8139,-464.01 L 39.8139,-464.01 z
M -22.6884,-498.006 L -23.0621,-498.053 L -23.427,-498.147 L -23.7773,-498.286 L -24.1075,-498.467 L -24.4123,-498.688
 L -24.6869,-498.946 L -24.927,-499.237 L -25.1289,-499.555 L -25.2893,-499.896 L -25.4057,-500.254 L -25.4763,-500.624
 L -25.5,-501 L -25.4763,-501.376 L -25.4057,-501.746 L -25.2893,-502.104 L -25.1289,-502.445 L -24.927,-502.763
 L -24.6869,-503.054 L -24.4123,-503.312 L -24.1075,-503.533 L -23.7773,-503.714 L -23.427,-503.853 L -23.0621,-503.947
 L -22.6884,-503.994 L -22.3116,-503.994 L -21.9379,-503.947 L -21.5729,-503.853 L -21.2227,-503.714 L -20.8925,-503.533
 L -20.5877,-503.312 L -20.3131,-503.054 L -20.0729,-502.763 L -19.8711,-502.445 L -19.7107,-502.104 L -19.5942,-501.746
 L -19.5237,-501.376 L -19.5,-501 L -19.5237,-500.624 L -19.5942,-500.254 L -19.7107,-499.896 L -19.8711,-499.555
 L -20.0729,-499.237 L -20.3131,-498.946 L -20.5877,-498.688 L -20.8925,-498.467 L -21.2227,-498.286 L -21.5729,-498.147
 L -21.9379,-498.053 L -22.3116,-498.006 z
M -37.6884,-498.006 L -38.0621,-498.053 L -38.427,-498.147 L -38.7773,-498.286 L -39.1075,-498.467 L -39.4123,-498.688
 L -39.6869,-498.946 L -39.927,-499.237 L -40.1289,-499.555 L -40.2893,-499.896 L -40.4057,-500.254 L -40.4763,-500.624
 L -40.5,-501 L -40.4763,-501.376 L -40.4057,-501.746 L -40.2893,-502.104 L -40.1289,-502.445 L -39.927,-502.763
 L -39.6869,-503.054 L -39.4123,-503.312 L -39.1075,-503.533 L -38.7773,-503.714 L -38.427,-503.853 L -38.0621,-503.947
 L -37.6884,-503.994 L -37.3116,-503.994 L -36.9379,-503.947 L -36.5729,-503.853 L -36.2227,-503.714 L -35.8925,-503.533
 L -35.5877,-503.312 L -35.3131,-503.054 L -35.0729,-502.763 L -34.8711,-502.445 L -34.7107,-502.104 L -34.5942,-501.746
 L -34.5237,-501.376 L -34.5,-501 L -34.5237,-500.624 L -34.5942,-500.254 L -34.7107,-499.896 L -34.8711,-499.555
 L -35.0729,-499.237 L -35.3131,-498.946 L -35.5877,-498.688 L -35.8925,-498.467 L -36.2227,-498.286 L -36.5729,-498.147
 L -36.9379,-498.053 L -37.3116,-498.006 z
M -7.68837,-498.006 L -8.06213,-498.053 L -8.42705,-498.147 L -8.77733,-498.286 L -9.10747,-498.467 L -9.41226,-498.688
 L -9.6869,-498.946 L -9.92705,-499.237 L -10.1289,-499.555 L -10.2893,-499.896 L -10.4057,-500.254 L -10.4763,-500.624
 L -10.5,-501 L -10.4763,-501.376 L -10.4057,-501.746 L -10.2893,-502.104 L -10.1289,-502.445 L -9.92705,-502.763
 L -9.6869,-503.054 L -9.41226,-503.312 L -9.10747,-503.533 L -8.77733,-503.714 L -8.42705,-503.853 L -8.06213,-503.947
 L -7.68837,-503.994 L -7.31161,-503.994 L -6.93785,-503.947 L -6.57294,-503.853 L -6.22266,-503.714 L -5.89252,-503.533
 L -5.58772,-503.312 L -5.31308,-503.054 L -5.07294,-502.763 L -4.87108,-502.445 L -4.71066,-502.104 L -4.59424,-501.746
 L -4.52365,-501.376 L -4.5,-501 L -4.52365,-500.624 L -4.59424,-500.254 L -4.71066,-499.896 L -4.87108,-499.555
 L -5.07294,-499.237 L -5.31308,-498.946 L -5.58772,-498.688 L -5.89252,-498.467 L -6.22266,-498.286 L -6.57294,-498.147
 L -6.93785,-498.053 L -7.31161,-498.006 z
M 37.3116,-498.006 L 36.9379,-498.053 L 36.5729,-498.147 L 36.2227,-498.286 L 35.8925,-498.467 L 35.5877,-498.688
 L 35.3131,-498.946 L 35.0729,-499.237 L 34.8711,-499.555 L 34.7107,-499.896 L 34.5942,-500.254 L 34.5237,-500.624
 L 34.5,-501 L 34.5237,-501.376 L 34.5942,-501.746 L 34.7107,-502.104 L 34.8711,-502.445 L 35.0729,-502.763
 L 35.3131,-503.054 L 35.5877,-503.312 L 35.8925,-503.533 L 36.2227,-503.714 L 36.5729,-503.853 L 36.9379,-503.947
 L 37.3116,-503.994 L 37.6884,-503.994 L 38.0621,-503.947 L 38.427,-503.853 L 38.7773,-503.714 L 39.1075,-503.533
 L 39.4123,-503.312 L 39.6869,-503.054 L 39.927,-502.763 L 40.1289,-502.445 L 40.2893,-502.104 L 40.4057,-501.746
 L 40.4763,-501.376 L 40.5,-501 L 40.4763,-500.624 L 40.4057,-500.254 L 40.2893,-499.896 L 40.1289,-499.555
 L 39.927,-499.237 L 39.6869,-498.946 L 39.4123,-498.688 L 39.1075,-498.467 L 38.7773,-498.286 L 38.427,-498.147
 L 38.0621,-498.053 L 37.6884,-498.006 z
M 7.31161,-498.006 L 6.93785,-498.053 L 6.57294,-498.147 L 6.22266,-498.286 L 5.89252,-498.467 L 5.58772,-498.688
 L 5.31308,-498.946 L 5.07294,-499.237 L 4.87108,-499.555 L 4.71066,-499.896 L 4.59424,-500.254 L 4.52365,-500.624
 L 4.5,-501 L 4.52365,-501.376 L 4.59424,-501.746 L 4.71066,-502.104 L 4.87108,-502.445 L 5.07294,-502.763
 L 5.31308,-503.054 L 5.58772,-503.312 L 5.89252,-503.533 L 6.22266,-503.714 L 6.57294,-503.853 L 6.93785,-503.947
 L 7.31161,-503.994 L 7.68837,-503.994 L 8.06213,-503.947 L 8.42705,-503.853 L 8.77733,-503.714 L 9.10747,-503.533
 L 9.41226,-503.312 L 9.6869,-503.054 L 9.92705,-502.763 L 10.1289,-502.445 L 10.2893,-502.104 L 10.4057,-501.746
 L 10.4763,-501.376 L 10.5,-501 L 10.4763,-500.624 L 10.4057,-500.254 L 10.2893,-499.896 L 10.1289,-499.555
 L 9.92705,-499.237 L 9.6869,-498.946 L 9.41226,-498.688 L 9.10747,-498.467 L 8.77733,-498.286 L 8.42705,-498.147
 L 8.06213,-498.053 L 7.68837,-498.006 z
M 22.3116,-498.006 L 21.9379,-498.053 L 21.5729,-498.147 L 21.2227,-498.286 L 20.8925,-498.467 L 20.5877,-498.688
 L 20.3131,-498.946 L 20.0729,-499.237 L 19.8711,-499.555 L 19.7107,-499.896 L 19.5942,-500.254 L 19.5237,-500.624
 L 19.5,-501 L 19.5237,-501.376 L 19.5942,-501.746 L 19.7107,-502.104 L 19.8711,-502.445 L 20.0729,-502.763
 L 20.3131,-503.054 L 20.5877,-503.312 L 20.8925,-503.533 L 21.2227,-503.714 L 21.5729,-503.853 L 21.9379,-503.947
 L 22.3116,-503.994 L 22.6884,-503.994 L 23.0621,-503.947 L 23.427,-503.853 L 23.7773,-503.714 L 24.1075,-503.533
 L 24.4123,-503.312 L 24.6869,-503.054 L 24.927,-502.763 L 25.1289,-502.445 L 25.2893,-502.104 L 25.4057,-501.746
 L 25.4763,-501.376 L 25.5,-501 L 25.4763,-500.624 L 25.4057,-500.254 L 25.2893,-499.896 L 25.1289,-499.555
 L 24.927,-499.237 L 24.6869,-498.946 L 24.4123,-498.688 L 24.1075,-498.467 L 23.7773,-498.286 L 23.427,-498.147
 L 23.0621,-498.053 L 22.6884,-498.006 z
M -7.68837,-483.006 L -8.06213,-483.053 L -8.42705,-483.147 L -8.77733,-483.286 L -9.10747,-483.467 L -9.41226,-483.688
 L -9.6869,-483.946 L -9.92705,-484.237 L -10.1289,-484.555 L -10.2893,-484.896 L -10.4057,-485.254 L -10.4763,-485.624
 L -10.5,-486 L -10.4763,-486.376 L -10.4057,-486.746 L -10.2893,-487.104 L -10.1289,-487.445 L -9.92705,-487.763
 L -9.6869,-488.054 L -9.41226,-488.312 L -9.10747,-488.533 L -8.77733,-488.714 L -8.42705,-488.853 L -8.06213,-488.947
 L -7.68837,-488.994 L -7.31161,-488.994 L -6.93785,-488.947 L -6.57294,-488.853 L -6.22266,-488.714 L -5.89252,-488.533
 L -5.58772,-488.312 L -5.31308,-488.054 L -5.07294,-487.763 L -4.87108,-487.445 L -4.71066,-487.104 L -4.59424,-486.746
 L -4.52365,-486.376 L -4.5,-486 L -4.52365,-485.624 L -4.59424,-485.254 L -4.71066,-484.896 L -4.87108,-484.555
 L -5.07294,-484.237 L -5.31308,-483.946 L -5.58772,-483.688 L -5.89252,-483.467 L -6.22266,-483.286 L -6.57294,-483.147
 L -6.93785,-483.053 L -7.31161,-483.006 z
M -37.6884,-483.006 L -38.0621,-483.053 L -38.427,-483.147 L -38.7773,-483.286 L -39.1075,-483.467 L -39.4123,-483.688
 L -39.6869,-483.946 L -39.927,-484.237 L -40.1289,-484.555 L -40.2893,-484.896 L -40.4057,-485.254 L -40.4763,-485.624
 L -40.5,-486 L -40.4763,-486.376 L -40.4057,-486.746 L -40.2893,-487.104 L -40.1289,-487.445 L -39.927,-487.763
 L -39.6869,-488.054 L -39.4123,-488.312 L -39.1075,-488.533 L -38.7773,-488.714 L -38.427,-488.853 L -38.0621,-488.947
 L -37.6884,-488.994 L -37.3116,-488.994 L -36.9379,-488.947 L -36.5729,-488.853 L -36.2227,-488.714 L -35.8925,-488.533
 L -35.5877,-488.312 L -35.3131,-488.054 L -35.0729,-487.763 L -34.8711,-487.445 L -34.7107,-487.104 L -34.5942,-486.746
 L -34.5237,-486.376 L -34.5,-486 L -34.5237,-485.624 L -34.5942,-485.254 L -34.7107,-484.896 L -34.8711,-484.555
 L -35.0729,-484.237 L -35.3131,-483.946 L -35.5877,-483.688 L -35.8925,-483.467 L -36.2227,-483.286 L -36.5729,-483.147
 L -36.9379,-483.053 L -37.3116,-483.006 z
M 7.31161,-483.006 L 6.93785,-483.053 L 6.57294,-483.147 L 6.22266,-483.286 L 5.89252,-483.467 L 5.58772,-483.688
 L 5.31308,-483.946 L 5.07294,-484.237 L 4.87108,-484.555 L 4.71066,-484.896 L 4.59424,-485.254 L 4.52365,-485.624
 L 4.5,-486 L 4.52365,-486.376 L 4.59424,-486.746 L 4.71066,-487.104 L 4.87108,-487.445 L 5.07294,-487.763
 L 5.31308,-488.054 L 5.58772,-488.312 L 5.89252,-488.533 L 6.22266,-488.714 L 6.57294,-488.853 L 6.93785,-488.947
 L 7.31161,-488.994 L 7.68837,-488.994 L 8.06213,-488.947 L 8.42705,-488.853 L 8.77733,-488.714 L 9.10747,-488.533
 L 9.41226,-488.312 L 9.6869,-488.054 L 9.92705,-487.763 L 10.1289,-487.445 L 10.2893,-487.104 L 10.4057,-486.746
 L 10.4763,-486.376 L 10.5,-486 L 10.4763,-485.624 L 10.4057,-485.254 L 10.2893,-484.896 L 10.1289,-484.555
 L 9.92705,-484.237 L 9.6869,-483.946 L 9.41226,-483.688 L 9.10747,-483.467 L 8.77733,-483.286 L 8.42705,-483.147
 L 8.06213,-483.053 L 7.68837,-483.006 z
M 37.3116,-483.006 L 36.9379,-483.053 L 36.5729,-483.147 L 36.2227,-483.286 L 35.8925,-483.467 L 35.5877,-483.688
 L 35.3131,-483.946 L 35.0729,-484.237 L 34.8711,-484.555 L 34.7107,-484.896 L 34.5942,-485.254 L 34.5237,-485.624
 L 34.5,-486 L 34.5237,-486.376 L 34.5942,-486.746 L 34.7107,-487.104 L 34.8711,-487.445 L 35.0729,-487.763
 L 35.3131,-488.054 L 35.5877,-488.312 L 35.8925,-488.533 L 36.2227,-488.714 L 36.5729,-488.853 L 36.9379,-488.947
 L 37.3116,-488.994 L 37.6884,-488.994 L 38.0621,-488.947 L 38.427,-488.853 L 38.7773,-488.714 L 39.1075,-488.533
 L 39.4123,-488.312 L 39.6869,-488.054 L 39.927,-487.763 L 40.1289,-487.445 L 40.2893,-487.104 L 40.4057,-486.746
 L 40.4763,-486.376 L 40.5,-486 L 40.4763,-485.624 L 40.4057,-485.254 L 40.2893,-484.896 L 40.1289,-484.555
 L 39.927,-484.237 L 39.6869,-483.946 L 39.4123,-483.688 L 39.1075,-483.467 L 38.7773,-483.286 L 38.427,-483.147
 L 38.0621,-483.053 L 37.6884,-483.006 z
M -22.6884,-483.006 L -23.0621,-483.053 L -23.427,-483.147 L -23.7773,-483.286 L -24.1075,-483.467 L -24.4123,-483.688
 L -24.6869,-483.946 L -24.927,-484.237 L -25.1289,-484.555 L -25.2893,-484.896 L -25.4057,-485.254 L -25.4763,-485.624
 L -25.5,-486 L -25.4763,-486.376 L -25.4057,-486.746 L -25.2893,-487.104 L -25.1289,-487.445 L -24.927,-487.763
 L -24.6869,-488.054 L -24.4123,-488.312 L -24.1075,-488.533 L -23.7773,-488.714 L -23.427,-488.853 L -23.0621,-488.947
 L -22.6884,-488.994 L -22.3116,-488.994 L -21.9379,-488.947 L -21.5729,-488.853 L -21.2227,-488.714 L -20.8925,-488.533
 L -20.5877,-488.312 L -20.3131,-488.054 L -20.0729,-487.763 L -19.8711,-487.445 L -19.7107,-487.104 L -19.5942,-486.746
 L -19.5237,-486.376 L -19.5,-486 L -19.5237,-485.624 L -19.5942,-485.254 L -19.7107,-484.896 L -19.8711,-484.555
 L -20.0729,-484.237 L -20.3131,-483.946 L -20.5877,-483.688 L -20.8925,-483.467 L -21.2227,-483.286 L -21.5729,-483.147
 L -21.9379,-483.053 L -22.3116,-483.006 z
M 22.3116,-483.006 L 21.9379,-483.053 L 21.5729,-483.147 L 21.2227,-483.286 L 20.8925,-483.467 L 20.5877,-483.688
 L 20.3131,-483.946 L 20.0729,-484.237 L 19.8711,-484.555 L 19.7107,-484.896 L 19.5942,-485.254 L 19.5237,-485.624
 L 19.5,-486 L 19.5237,-486.376 L 19.5942,-486.746 L 19.7107,-487.104 L 19.8711,-487.445 L 20.0729,-487.763
 L 20.3131,-488.054 L 20.5877,-488.312 L 20.8925,-488.533 L 21.2227,-488.714 L 21.5729,-488.853 L 21.9379,-488.947
 L 22.3116,-488.994 L 22.6884,-488.994 L 23.0621,-488.947 L 23.427,-488.853 L 23.7773,-488.714 L 24.1075,-488.533
 L 24.4123,-488.312 L 24.6869,-488.054 L 24.927,-487.763 L 25.1289,-487.445 L 25.2893,-487.104 L 25.4057,-486.746
 L 25.4763,-486.376 L 25.5,-486 L 25.4763,-485.624 L 25.4057,-485.254 L 25.2893,-484.896 L 25.1289,-484.555
 L 24.927,-484.237 L 24.6869,-483.946 L 24.4123,-483.688 L 24.1075,-483.467 L 23.7773,-483.286 L 23.427,-483.147
 L 23.0621,-483.053 L 22.6884,-483.006 z
M 7.31161,-468.006 L 6.93785,-468.053 L 6.57294,-468.147 L 6.22266,-468.286 L 5.89252,-468.467 L 5.58772,-468.688
 L 5.31308,-468.946 L 5.07294,-469.237 L 4.87108,-469.555 L 4.71066,-469.896 L 4.59424,-470.254 L 4.52365,-470.624
 L 4.5,-471 L 4.52365,-471.376 L 4.59424,-471.746 L 4.71066,-472.104 L 4.87108,-472.445 L 5.07294,-472.763
 L 5.31308,-473.054 L 5.58772,-473.312 L 5.89252,-473.533 L 6.22266,-473.714 L 6.57294,-473.853 L 6.93785,-473.947
 L 7.31161,-473.994 L 7.68837,-473.994 L 8.06213,-473.947 L 8.42705,-473.853 L 8.77733,-473.714 L 9.10747,-473.533
 L 9.41226,-473.312 L 9.6869,-473.054 L 9.92705,-472.763 L 10.1289,-472.445 L 10.2893,-472.104 L 10.4057,-471.746
 L 10.4763,-471.376 L 10.5,-471 L 10.4763,-470.624 L 10.4057,-470.254 L 10.2893,-469.896 L 10.1289,-469.555
 L 9.92705,-469.237 L 9.6869,-468.946 L 9.41226,-468.688 L 9.10747,-468.467 L 8.77733,-468.286 L 8.42705,-468.147
 L 8.06213,-468.053 L 7.68837,-468.006 z
M 22.3116,-468.006 L 21.9379,-468.053 L 21.5729,-468.147 L 21.2227,-468.286 L 20.8925,-468.467 L 20.5877,-468.688
 L 20.3131,-468.946 L 20.0729,-469.237 L 19.8711,-469.555 L 19.7107,-469.896 L 19.5942,-470.254 L 19.5237,-470.624
 L 19.5,-471 L 19.5237,-471.376 L 19.5942,-471.746 L 19.7107,-472.104 L 19.8711,-472.445 L 20.0729,-472.763
 L 20.3131,-473.054 L 20.5877,-473.312 L 20.8925,-473.533 L 21.2227,-473.714 L 21.5729,-473.853 L 21.9379,-473.947
 L 22.3116,-473.994 L 22.6884,-473.994 L 23.0621,-473.947 L 23.427,-473.853 L 23.7773,-473.714 L 24.1075,-473.533
 L 24.4123,-473.312 L 24.6869,-473.054 L 24.927,-472.763 L 25.1289,-472.445 L 25.2893,-472.104 L 25.4057,-471.746
 L 25.4763,-471.376 L 25.5,-471 L 25.4763,-470.624 L 25.4057,-470.254 L 25.2893,-469.896 L 25.1289,-469.555
 L 24.927,-469.237 L 24.6869,-468.946 L 24.4123,-468.688 L 24.1075,-468.467 L 23.7773,-468.286 L 23.427,-468.147
 L 23.0621,-468.053 L 22.6884,-468.006 z
M -22.6884,-468.006 L -23.0621,-468.053 L -23.427,-468.147 L -23.7773,-468.286 L -24.1075,-468.467 L -24.4123,-468.688
 L -24.6869,-468.946 L -24.927,-469.237 L -25.1289,-469.555 L -25.2893,-469.896 L -25.4057,-470.254 L -25.4763,-470.624
 L -25.5,-471 L -25.4763,-471.376 L -25.4057,-471.746 L -25.2893,-472.104 L -25.1289,-472.445 L -24.927,-472.763
 L -24.6869,-473.054 L -24.4123,-473.312 L -24.1075,-473.533 L -23.7773,-473.714 L -23.427,-473.853 L -23.0621,-473.947
 L -22.6884,-473.994 L -22.3116,-473.994 L -21.9379,-473.947 L -21.5729,-473.853 L -21.2227,-473.714 L -20.8925,-473.533
 L -20.5877,-473.312 L -20.3131,-473.054 L -20.0729,-472.763 L -19.8711,-472.445 L -19.7107,-472.104 L -19.5942,-471.746
 L -19.5237,-471.376 L -19.5,-471 L -19.5237,-470.624 L -19.5942,-470.254 L -19.7107,-469.896 L -19.8711,-469.555
 L -20.0729,-469.237 L -20.3131,-468.946 L -20.5877,-468.688 L -20.8925,-468.467 L -21.2227,-468.286 L -21.5729,-468.147
 L -21.9379,-468.053 L -22.3116,-468.006 z
M -37.6884,-468.006 L -38.0621,-468.053 L -38.427,-468.147 L -38.7773,-468.286 L -39.1075,-468.467 L -39.4123,-468.688
 L -39.6869,-468.946 L -39.927,-469.237 L -40.1289,-469.555 L -40.2893,-469.896 L -40.4057,-470.254 L -40.4763,-470.624
 L -40.5,-471 L -40.4763,-471.376 L -40.4057,-471.746 L -40.2893,-472.104 L -40.1289,-472.445 L -39.927,-472.763
 L -39.6869,-473.054 L -39.4123,-473.312 L -39.1075,-473.533 L -38.7773,-473.714 L -38.427,-473.853 L -38.0621,-473.947
 L -37.6884,-473.994 L -37.3116,-473.994 L -36.9379,-473.947 L -36.5729,-473.853 L -36.2227,-473.714 L -35.8925,-473.533
 L -35.5877,-473.312 L -35.3131,-473.054 L -35.0729,-472.763 L -34.8711,-472.445 L -34.7107,-472.104 L -34.5942,-471.746
 L -34.5237,-471.376 L -34.5,-471 L -34.5237,-470.624 L -34.5942,-470.254 L -34.7107,-469.896 L -34.8711,-469.555
 L -35.0729,-469.237 L -35.3131,-468.946 L -35.5877,-468.688 L -35.8925,-468.467 L -36.2227,-468.286 L -36.5729,-468.147
 L -36.9379,-468.053 L -37.3116,-468.006 z
M -7.68837,-468.006 L -8.06213,-468.053 L -8.42705,-468.147 L -8.77733,-468.286 L -9.10747,-468.467 L -9.41226,-468.688
 L -9.6869,-468.946 L -9.92705,-469.237 L -10.1289,-469.555 L -10.2893,-469.896 L -10.4057,-470.254 L -10.4763,-470.624
 L -10.5,-471 L -10.4763,-471.376 L -10.4057,-471.746 L -10.2893,-472.104 L -10.1289,-472.445 L -9.92705,-472.763
 L -9.6869,-473.054 L -9.41226,-473.312 L -9.10747,-473.533 L -8.77733,-473.714 L -8.42705,-473.853 L -8.06213,-473.947
 L -7.68837,-473.994 L -7.31161,-473.994 L -6.93785,-473.947 L -6.57294,-473.853 L -6.22266,-473.714 L -5.89252,-473.533
 L -5.58772,-473.312 L -5.31308,-473.054 L -5.07294,-472.763 L -4.87108,-472.445 L -4.71066,-472.104 L -4.59424,-471.746
 L -4.52365,-471.376 L -4.5,-471 L -4.52365,-470.624 L -4.59424,-470.254 L -4.71066,-469.896 L -4.87108,-469.555
 L -5.07294,-469.237 L -5.31308,-468.946 L -5.58772,-468.688 L -5.89252,-468.467 L -6.22266,-468.286 L -6.57294,-468.147
 L -6.93785,-468.053 L -7.31161,-468.006 z
M 37.3116,-468.006 L 36.9379,-468.053 L 36.5729,-468.147 L 36.2227,-468.286 L 35.8925,-468.467 L 35.5877,-468.688
 L 35.3131,-468.946 L 35.0729,-469.237 L 34.8711,-469.555 L 34.7107,-469.896 L 34.5942,-470.254 L 34.5237,-470.624
 L 34.5,-471 L 34.5237,-471.376 L 34.5942,-471.746 L 34.7107,-472.104 L 34.8711,-472.445 L 35.0729,-472.763
 L 35.3131,-473.054 L 35.5877,-473.312 L 35.8925,-473.533 L 36.2227,-473.714 L 36.5729,-473.853 L 36.9379,-473.947
 L 37.3116,-473.994 L 37.6884,-473.994 L 38.0621,-473.947 L 38.427,-473.853 L 38.7773,-473.714 L 39.1075,-473.533
 L 39.4123,-473.312 L 39.6869,-473.054 L 39.927,-472.763 L 40.1289,-472.445 L 40.2893,-472.104 L 40.4057,-471.746
 L 40.4763,-471.376 L 40.5,-471 L 40.4763,-470.624 L 40.4057,-470.254 L 40.2893,-469.896 L 40.1289,-469.555
 L 39.927,-469.237 L 39.6869,-468.946 L 39.4123,-468.688 L 39.1075,-468.467 L 38.7773,-468.286 L 38.427,-468.147
 L 38.0621,-468.053 L 37.6884,-468.006 z
M 40.4369,-410.089 L 41.0451,-410.245 L 41.6289,-410.476 L 42.1791,-410.778 L 42.6871,-411.147 L 43.1448,-411.577
 L 43.5451,-412.061 L 43.8815,-412.591 L 44.1489,-413.159 L 44.3429,-413.757 L 44.4606,-414.373 L 44.5,-415
 L 44.5,-449 L 44.4606,-449.627 L 44.3429,-450.243 L 44.1489,-450.841 L 43.8815,-451.409 L 43.5451,-451.939
 L 43.1448,-452.423 L 42.6871,-452.853 L 42.1791,-453.222 L 41.6289,-453.524 L 41.0451,-453.755 L 40.4369,-453.911
 L 39.8139,-453.99 L -39.8139,-453.99 L -40.4369,-453.911 L -41.0451,-453.755 L -41.6289,-453.524 L -42.1791,-453.222
 L -42.6871,-452.853 L -43.1448,-452.423 L -43.5451,-451.939 L -43.8815,-451.409 L -44.1489,-450.841 L -44.3429,-450.243
 L -44.4606,-449.627 L -44.5,-449 L -44.5,-415 L -44.4606,-414.373 L -44.3429,-413.757 L -44.1489,-413.159
 L -43.8815,-412.591 L -43.5451,-412.061 L -43.1448,-411.577 L -42.6871,-411.147 L -42.1791,-410.778 L -41.6289,-410.476
 L -41.0451,-410.245 L -40.4369,-410.089 L -39.8139,-410.01 L 39.8139,-410.01 z
M 22.3116,-444.006 L 21.9379,-444.053 L 21.5729,-444.147 L 21.2227,-444.286 L 20.8925,-444.467 L 20.5877,-444.688
 L 20.3131,-444.946 L 20.0729,-445.237 L 19.8711,-445.555 L 19.7107,-445.896 L 19.5942,-446.254 L 19.5237,-446.624
 L 19.5,-447 L 19.5237,-447.376 L 19.5942,-447.746 L 19.7107,-448.104 L 19.8711,-448.445 L 20.0729,-448.763
 L 20.3131,-449.054 L 20.5877,-449.312 L 20.8925,-449.533 L 21.2227,-449.714 L 21.5729,-449.853 L 21.9379,-449.947
 L 22.3116,-449.994 L 22.6884,-449.994 L 23.0621,-449.947 L 23.427,-449.853 L 23.7773,-449.714 L 24.1075,-449.533
 L 24.4123,-449.312 L 24.6869,-449.054 L 24.927,-448.763 L 25.1289,-448.445 L 25.2893,-448.104 L 25.4057,-447.746
 L 25.4763,-447.376 L 25.5,-447 L 25.4763,-446.624 L 25.4057,-446.254 L 25.2893,-445.896 L 25.1289,-445.555
 L 24.927,-445.237 L 24.6869,-444.946 L 24.4123,-444.688 L 24.1075,-444.467 L 23.7773,-444.286 L 23.427,-444.147
 L 23.0621,-444.053 L 22.6884,-444.006 z
M 7.31161,-444.006 L 6.93785,-444.053 L 6.57294,-444.147 L 6.22266,-444.286 L 5.89252,-444.467 L 5.58772,-444.688
 L 5.31308,-444.946 L 5.07294,-445.237 L 4.87108,-445.555 L 4.71066,-445.896 L 4.59424,-446.254 L 4.52365,-446.624
 L 4.5,-447 L 4.52365,-447.376 L 4.59424,-447.746 L 4.71066,-448.104 L 4.87108,-448.445 L 5.07294,-448.763
 L 5.31308,-449.054 L 5.58772,-449.312 L 5.89252,-449.533 L 6.22266,-449.714 L 6.57294,-449.853 L 6.93785,-449.947
 L 7.31161,-449.994 L 7.68837,-449.994 L 8.06213,-449.947 L 8.42705,-449.853 L 8.77733,-449.714 L 9.10747,-449.533
 L 9.41226,-449.312 L 9.6869,-449.054 L 9.92705,-448.763 L 10.1289,-448.445 L 10.2893,-448.104 L 10.4057,-447.746
 L 10.4763,-447.376 L 10.5,-447 L 10.4763,-446.624 L 10.4057,-446.254 L 10.2893,-445.896 L 10.1289,-445.555
 L 9.92705,-445.237 L 9.6869,-444.946 L 9.41226,-444.688 L 9.10747,-444.467 L 8.77733,-444.286 L 8.42705,-444.147
 L 8.06213,-444.053 L 7.68837,-444.006 z
M 37.3116,-444.006 L 36.9379,-444.053 L 36.5729,-444.147 L 36.2227,-444.286 L 35.8925,-444.467 L 35.5877,-444.688
 L 35.3131,-444.946 L 35.0729,-445.237 L 34.8711,-445.555 L 34.7107,-445.896 L 34.5942,-446.254 L 34.5237,-446.624
 L 34.5,-447 L 34.5237,-447.376 L 34.5942,-447.746 L 34.7107,-448.104 L 34.8711,-448.445 L 35.0729,-448.763
 L 35.3131,-449.054 L 35.5877,-449.312 L 35.8925,-449.533 L 36.2227,-449.714 L 36.5729,-449.853 L 36.9379,-449.947
 L 37.3116,-449.994 L 37.6884,-449.994 L 38.0621,-449.947 L 38.427,-449.853 L 38.7773,-449.714 L 39.1075,-449.533
 L 39.4123,-449.312 L 39.6869,-449.054 L 39.927,-448.763 L 40.1289,-448.445 L 40.2893,-448.104 L 40.4057,-447.746
 L 40.4763,-447.376 L 40.5,-447 L 40.4763,-446.624 L 40.4057,-446.254 L 40.2893,-445.896 L 40.1289,-445.555
 L 39.927,-445.237 L 39.6869,-444.946 L 39.4123,-444.688 L 39.1075,-444.467 L 38.7773,-444.286 L 38.427,-444.147
 L 38.0621,-444.053 L 37.6884,-444.006 z
M -7.68837,-444.006 L -8.06213,-444.053 L -8.42705,-444.147 L -8.77733,-444.286 L -9.10747,-444.467 L -9.41226,-444.688
 L -9.6869,-444.946 L -9.92705,-445.237 L -10.1289,-445.555 L -10.2893,-445.896 L -10.4057,-446.254 L -10.4763,-446.624
 L -10.5,-447 L -10.4763,-447.376 L -10.4057,-447.746 L -10.2893,-448.104 L -10.1289,-448.445 L -9.92705,-448.763
 L -9.6869,-449.054 L -9.41226,-449.312 L -9.10747,-449.533 L -8.77733,-449.714 L -8.42705,-449.853 L -8.06213,-449.947
 L -7.68837,-449.994 L -7.31161,-449.994 L -6.93785,-449.947 L -6.57294,-449.853 L -6.22266,-449.714 L -5.89252,-449.533
 L -5.58772,-449.312 L -5.31308,-449.054 L -5.07294,-448.763 L -4.87108,-448.445 L -4.71066,-448.104 L -4.59424,-447.746
 L -4.52365,-447.376 L -4.5,-447 L -4.52365,-446.624 L -4.59424,-446.254 L -4.71066,-445.896 L -4.87108,-445.555
 L -5.07294,-445.237 L -5.31308,-444.946 L -5.58772,-444.688 L -5.89252,-444.467 L -6.22266,-444.286 L -6.57294,-444.147
 L -6.93785,-444.053 L -7.31161,-444.006 z
M -37.6884,-444.006 L -38.0621,-444.053 L -38.427,-444.147 L -38.7773,-444.286 L -39.1075,-444.467 L -39.4123,-444.688
 L -39.6869,-444.946 L -39.927,-445.237 L -40.1289,-445.555 L -40.2893,-445.896 L -40.4057,-446.254 L -40.4763,-446.624
 L -40.5,-447 L -40.4763,-447.376 L -40.4057,-447.746 L -40.2893,-448.104 L -40.1289,-448.445 L -39.927,-448.763
 L -39.6869,-449.054 L -39.4123,-449.312 L -39.1075,-449.533 L -38.7773,-449.714 L -38.427,-449.853 L -38.0621,-449.947
 L -37.6884,-449.994 L -37.3116,-449.994 L -36.9379,-449.947 L -36.5729,-449.853 L -36.2227,-449.714 L -35.8925,-449.533
 L -35.5877,-449.312 L -35.3131,-449.054 L -35.0729,-448.763 L -34.8711,-448.445 L -34.7107,-448.104 L -34.5942,-447.746
 L -34.5237,-447.376 L -34.5,-447 L -34.5237,-446.624 L -34.5942,-446.254 L -34.7107,-445.896 L -34.8711,-445.555
 L -35.0729,-445.237 L -35.3131,-444.946 L -35.5877,-444.688 L -35.8925,-444.467 L -36.2227,-444.286 L -36.5729,-444.147
 L -36.9379,-444.053 L -37.3116,-444.006 z
M -22.6884,-444.006 L -23.0621,-444.053 L -23.427,-444.147 L -23.7773,-444.286 L -24.1075,-444.467 L -24.4123,-444.688
 L -24.6869,-444.946 L -24.927,-445.237 L -25.1289,-445.555 L -25.2893,-445.896 L -25.4057,-446.254 L -25.4763,-446.624
 L -25.5,-447 L -25.4763,-447.376 L -25.4057,-447.746 L -25.2893,-448.104 L -25.1289,-448.445 L -24.927,-448.763
 L -24.6869,-449.054 L -24.4123,-449.312 L -24.1075,-449.533 L -23.7773,-449.714 L -23.427,-449.853 L -23.0621,-449.947
 L -22.6884,-449.994 L -22.3116,-449.994 L -21.9379,-449.947 L -21.5729,-449.853 L -21.2227,-449.714 L -20.8925,-449.533
 L -20.5877,-449.312 L -20.3131,-449.054 L -20.0729,-448.763 L -19.8711,-448.445 L -19.7107,-448.104 L -19.5942,-447.746
 L -19.5237,-447.376 L -19.5,-447 L -19.5237,-446.624 L -19.5942,-446.254 L -19.7107,-445.896 L -19.8711,-445.555
 L -20.0729,-445.237 L -20.3131,-444.946 L -20.5877,-444.688 L -20.8925,-444.467 L -21.2227,-444.286 L -21.5729,-444.147
 L -21.9379,-444.053 L -22.3116,-444.006 z
M -7.68837,-429.006 L -8.06213,-429.053 L -8.42705,-429.147 L -8.77733,-429.286 L -9.10747,-429.467 L -9.41226,-429.688
 L -9.6869,-429.946 L -9.92705,-430.237 L -10.1289,-430.555 L -10.2893,-430.896 L -10.4057,-431.254 L -10.4763,-431.624
 L -10.5,-432 L -10.4763,-432.376 L -10.4057,-432.746 L -10.2893,-433.104 L -10.1289,-433.445 L -9.92705,-433.763
 L -9.6869,-434.054 L -9.41226,-434.312 L -9.10747,-434.533 L -8.77733,-434.714 L -8.42705,-434.853 L -8.06213,-434.947
 L -7.68837,-434.994 L -7.31161,-434.994 L -6.93785,-434.947 L -6.57294,-434.853 L -6.22266,-434.714 L -5.89252,-434.533
 L -5.58772,-434.312 L -5.31308,-434.054 L -5.07294,-433.763 L -4.87108,-433.445 L -4.71066,-433.104 L -4.59424,-432.746
 L -4.52365,-432.376 L -4.5,-432 L -4.52365,-431.624 L -4.59424,-431.254 L -4.71066,-430.896 L -4.87108,-430.555
 L -5.07294,-430.237 L -5.31308,-429.946 L -5.58772,-429.688 L -5.89252,-429.467 L -6.22266,-429.286 L -6.57294,-429.147
 L -6.93785,-429.053 L -7.31161,-429.006 z
M -37.6884,-429.006 L -38.0621,-429.053 L -38.427,-429.147 L -38.7773,-429.286 L -39.1075,-429.467 L -39.4123,-429.688
 L -39.6869,-429.946 L -39.927,-430.237 L -40.1289,-430.555 L -40.2893,-430.896 L -40.4057,-431.254 L -40.4763,-431.624
 L -40.5,-432 L -40.4763,-432.376 L -40.4057,-432.746 L -40.2893,-433.104 L -40.1289,-433.445 L -39.927,-433.763
 L -39.6869,-434.054 L -39.4123,-434.312 L -39.1075,-434.533 L -38.7773,-434.714 L -38.427,-434.853 L -38.0621,-434.947
 L -37.6884,-434.994 L -37.3116,-434.994 L -36.9379,-434.947 L -36.5729,-434.853 L -36.2227,-434.714 L -35.8925,-434.533
 L -35.5877,-434.312 L -35.3131,-434.054 L -35.0729,-433.763 L -34.8711,-433.445 L -34.7107,-433.104 L -34.5942,-432.746
 L -34.5237,-432.376 L -34.5,-432 L -34.5237,-431.624 L -34.5942,-431.254 L -34.7107,-430.896 L -34.8711,-430.555
 L -35.0729,-430.237 L -35.3131,-429.946 L -35.5877,-429.688 L -35.8925,-429.467 L -36.2227,-429.286 L -36.5729,-429.147
 L -36.9379,-429.053 L -37.3116,-429.006 z
M 7.31161,-429.006 L 6.93785,-429.053 L 6.57294,-429.147 L 6.22266,-429.286 L 5.89252,-429.467 L 5.58772,-429.688
 L 5.31308,-429.946 L 5.07294,-430.237 L 4.87108,-430.555 L 4.71066,-430.896 L 4.59424,-431.254 L 4.52365,-431.624
 L 4.5,-432 L 4.52365,-432.376 L 4.59424,-432.746 L 4.71066,-433.104 L 4.87108,-433.445 L 5.07294,-433.763
 L 5.31308,-434.054 L 5.58772,-434.312 L 5.89252,-434.533 L 6.22266,-434.714 L 6.57294,-434.853 L 6.93785,-434.947
 L 7.31161,-434.994 L 7.68837,-434.994 L 8.06213,-434.947 L 8.42705,-434.853 L 8.77733,-434.714 L 9.10747,-434.533
 L 9.41226,-434.312 L 9.6869,-434.054 L 9.92705,-433.763 L 10.1289,-433.445 L 10.2893,-433.104 L 10.4057,-432.746
 L 10.4763,-432.376 L 10.5,-432 L 10.4763,-431.624 L 10.4057,-431.254 L 10.2893,-430.896 L 10.1289,-430.555
 L 9.92705,-430.237 L 9.6869,-429.946 L 9.41226,-429.688 L 9.10747,-429.467 L 8.77733,-429.286 L 8.42705,-429.147
 L 8.06213,-429.053 L 7.68837,-429.006 z
M 37.3116,-429.006 L 36.9379,-429.053 L 36.5729,-429.147 L 36.2227,-429.286 L 35.8925,-429.467 L 35.5877,-429.688
 L 35.3131,-429.946 L 35.0729,-430.237 L 34.8711,-430.555 L 34.7107,-430.896 L 34.5942,-431.254 L 34.5237,-431.624
 L 34.5,-432 L 34.5237,-432.376 L 34.5942,-432.746 L 34.7107,-433.104 L 34.8711,-433.445 L 35.0729,-433.763
 L 35.3131,-434.054 L 35.5877,-434.312 L 35.8925,-434.533 L 36.2227,-434.714 L 36.5729,-434.853 L 36.9379,-434.947
 L 37.3116,-434.994 L 37.6884,-434.994 L 38.0621,-434.947 L 38.427,-434.853 L 38.7773,-434.714 L 39.1075,-434.533
 L 39.4123,-434.312 L 39.6869,-434.054 L 39.927,-433.763 L 40.1289,-433.445 L 40.2893,-433.104 L 40.4057,-432.746
 L 40.4763,-432.376 L 40.5,-432 L 40.4763,-431.624 L 40.4057,-431.254 L 40.2893,-430.896 L 40.1289,-430.555
 L 39.927,-430.237 L 39.6869,-429.946 L 39.4123,-429.688 L 39.1075,-429.467 L 38.7773,-429.286 L 38.427,-429.147
 L 38.0621,-429.053 L 37.6884,-429.006 z
M -22.6884,-429.006 L -23.0621,-429.053 L -23.427,-429.147 L -23.7773,-429.286 L -24.1075,-429.467 L -24.4123,-429.688
 L -24.6869,-429.946 L -24.927,-430.237 L -25.1289,-430.555 L -25.2893,-430.896 L -25.4057,-431.254 L -25.4763,-431.624
 L -25.5,-432 L -25.4763,-432.376 L -25.4057,-432.746 L -25.2893,-433.104 L -25.1289,-433.445 L -24.927,-433.763
 L -24.6869,-434.054 L -24.4123,-434.312 L -24.1075,-434.533 L -23.7773,-434.714 L -23.427,-434.853 L -23.0621,-434.947
 L -22.6884,-434.994 L -22.3116,-434.994 L -21.9379,-434.947 L -21.5729,-434.853 L -21.2227,-434.714 L -20.8925,-434.533
 L -20.5877,-434.312 L -20.3131,-434.054 L -20.0729,-433.763 L -19.8711,-433.445 L -19.7107,-433.104 L -19.5942,-432.746
 L -19.5237,-432.376 L -19.5,-432 L -19.5237,-431.624 L -19.5942,-431.254 L -19.7107,-430.896 L -19.8711,-430.555
 L -20.0729,-430.237 L -20.3131,-429.946 L -20.5877,-429.688 L -20.8925,-429.467 L -21.2227,-429.286 L -21.5729,-429.147
 L -21.9379,-429.053 L -22.3116,-429.006 z
M 22.3116,-429.006 L 21.9379,-429.053 L 21.5729,-429.147 L 21.2227,-429.286 L 20.8925,-429.467 L 20.5877,-429.688
 L 20.3131,-429.946 L 20.0729,-430.237 L 19.8711,-430.555 L 19.7107,-430.896 L 19.5942,-431.254 L 19.5237,-431.624
 L 19.5,-432 L 19.5237,-432.376 L 19.5942,-432.746 L 19.7107,-433.104 L 19.8711,-433.445 L 20.0729,-433.763
 L 20.3131,-434.054 L 20.5877,-434.312 L 20.8925,-434.533 L 21.2227,-434.714 L 21.5729,-434.853 L 21.9379,-434.947
 L 22.3116,-434.994 L 22.6884,-434.994 L 23.0621,-434.947 L 23.427,-434.853 L 23.7773,-434.714 L 24.1075,-434.533
 L 24.4123,-434.312 L 24.6869,-434.054 L 24.927,-433.763 L 25.1289,-433.445 L 25.2893,-433.104 L 25.4057,-432.746
 L 25.4763,-432.376 L 25.5,-432 L 25.4763,-431.624 L 25.4057,-431.254 L 25.2893,-430.896 L 25.1289,-430.555
 L 24.927,-430.237 L 24.6869,-429.946 L 24.4123,-429.688 L 24.1075,-429.467 L 23.7773,-429.286 L 23.427,-429.147
 L 23.0621,-429.053 L 22.6884,-429.006 z
M 22.3116,-414.006 L 21.9379,-414.053 L 21.5729,-414.147 L 21.2227,-414.286 L 20.8925,-414.467 L 20.5877,-414.688
 L 20.3131,-414.946 L 20.0729,-415.237 L 19.8711,-415.555 L 19.7107,-415.896 L 19.5942,-416.254 L 19.5237,-416.624
 L 19.5,-417 L 19.5237,-417.376 L 19.5942,-417.746 L 19.7107,-418.104 L 19.8711,-418.445 L 20.0729,-418.763
 L 20.3131,-419.054 L 20.5877,-419.312 L 20.8925,-419.533 L 21.2227,-419.714 L 21.5729,-419.853 L 21.9379,-419.947
 L 22.3116,-419.994 L 22.6884,-419.994 L 23.0621,-419.947 L 23.427,-419.853 L 23.7773,-419.714 L 24.1075,-419.533
 L 24.4123,-419.312 L 24.6869,-419.054 L 24.927,-418.763 L 25.1289,-418.445 L 25.2893,-418.104 L 25.4057,-417.746
 L 25.4763,-417.376 L 25.5,-417 L 25.4763,-416.624 L 25.4057,-416.254 L 25.2893,-415.896 L 25.1289,-415.555
 L 24.927,-415.237 L 24.6869,-414.946 L 24.4123,-414.688 L 24.1075,-414.467 L 23.7773,-414.286 L 23.427,-414.147
 L 23.0621,-414.053 L 22.6884,-414.006 z
M 37.3116,-414.006 L 36.9379,-414.053 L 36.5729,-414.147 L 36.2227,-414.286 L 35.8925,-414.467 L 35.5877,-414.688
 L 35.3131,-414.946 L 35.0729,-415.237 L 34.8711,-415.555 L 34.7107,-415.896 L 34.5942,-416.254 L 34.5237,-416.624
 L 34.5,-417 L 34.5237,-417.376 L 34.5942,-417.746 L 34.7107,-418.104 L 34.8711,-418.445 L 35.0729,-418.763
 L 35.3131,-419.054 L 35.5877,-419.312 L 35.8925,-419.533 L 36.2227,-419.714 L 36.5729,-419.853 L 36.9379,-419.947
 L 37.3116,-419.994 L 37.6884,-419.994 L 38.0621,-419.947 L 38.427,-419.853 L 38.7773,-419.714 L 39.1075,-419.533
 L 39.4123,-419.312 L 39.6869,-419.054 L 39.927,-418.763 L 40.1289,-418.445 L 40.2893,-418.104 L 40.4057,-417.746
 L 40.4763,-417.376 L 40.5,-417 L 40.4763,-416.624 L 40.4057,-416.254 L 40.2893,-415.896 L 40.1289,-415.555
 L 39.927,-415.237 L 39.6869,-414.946 L 39.4123,-414.688 L 39.1075,-414.467 L 38.7773,-414.286 L 38.427,-414.147
 L 38.0621,-414.053 L 37.6884,-414.006 z
M -22.6884,-414.006 L -23.0621,-414.053 L -23.427,-414.147 L -23.7773,-414.286 L -24.1075,-414.467 L -24.4123,-414.688
 L -24.6869,-414.946 L -24.927,-415.237 L -25.1289,-415.555 L -25.2893,-415.896 L -25.4057,-416.254 L -25.4763,-416.624
 L -25.5,-417 L -25.4763,-417.376 L -25.4057,-417.746 L -25.2893,-418.104 L -25.1289,-418.445 L -24.927,-418.763
 L -24.6869,-419.054 L -24.4123,-419.312 L -24.1075,-419.533 L -23.7773,-419.714 L -23.427,-419.853 L -23.0621,-419.947
 L -22.6884,-419.994 L -22.3116,-419.994 L -21.9379,-419.947 L -21.5729,-419.853 L -21.2227,-419.714 L -20.8925,-419.533
 L -20.5877,-419.312 L -20.3131,-419.054 L -20.0729,-418.763 L -19.8711,-418.445 L -19.7107,-418.104 L -19.5942,-417.746
 L -19.5237,-417.376 L -19.5,-417 L -19.5237,-416.624 L -19.5942,-416.254 L -19.7107,-415.896 L -19.8711,-415.555
 L -20.0729,-415.237 L -20.3131,-414.946 L -20.5877,-414.688 L -20.8925,-414.467 L -21.2227,-414.286 L -21.5729,-414.147
 L -21.9379,-414.053 L -22.3116,-414.006 z
M -37.6884,-414.006 L -38.0621,-414.053 L -38.427,-414.147 L -38.7773,-414.286 L -39.1075,-414.467 L -39.4123,-414.688
 L -39.6869,-414.946 L -39.927,-415.237 L -40.1289,-415.555 L -40.2893,-415.896 L -40.4057,-416.254 L -40.4763,-416.624
 L -40.5,-417 L -40.4763,-417.376 L -40.4057,-417.746 L -40.2893,-418.104 L -40.1289,-418.445 L -39.927,-418.763
 L -39.6869,-419.054 L -39.4123,-419.312 L -39.1075,-419.533 L -38.7773,-419.714 L -38.427,-419.853 L -38.0621,-419.947
 L -37.6884,-419.994 L -37.3116,-419.994 L -36.9379,-419.947 L -36.5729,-419.853 L -36.2227,-419.714 L -35.8925,-419.533
 L -35.5877,-419.312 L -35.3131,-419.054 L -35.0729,-418.763 L -34.8711,-418.445 L -34.7107,-418.104 L -34.5942,-417.746
 L -34.5237,-417.376 L -34.5,-417 L -34.5237,-416.624 L -34.5942,-416.254 L -34.7107,-415.896 L -34.8711,-415.555
 L -35.0729,-415.237 L -35.3131,-414.946 L -35.5877,-414.688 L -35.8925,-414.467 L -36.2227,-414.286 L -36.5729,-414.147
 L -36.9379,-414.053 L -37.3116,-414.006 z
M -7.68837,-414.006 L -8.06213,-414.053 L -8.42705,-414.147 L -8.77733,-414.286 L -9.10747,-414.467 L -9.41226,-414.688
 L -9.6869,-414.946 L -9.92705,-415.237 L -10.1289,-415.555 L -10.2893,-415.896 L -10.4057,-416.254 L -10.4763,-416.624
 L -10.5,-417 L -10.4763,-417.376 L -10.4057,-417.746 L -10.2893,-418.104 L -10.1289,-418.445 L -9.92705,-418.763
 L -9.6869,-419.054 L -9.41226,-419.312 L -9.10747,-419.533 L -8.77733,-419.714 L -8.42705,-419.853 L -8.06213,-419.947
 L -7.68837,-419.994 L -7.31161,-419.994 L -6.93785,-419.947 L -6.57294,-419.853 L -6.22266,-419.714 L -5.89252,-419.533
 L -5.58772,-419.312 L -5.31308,-419.054 L -5.07294,-418.763 L -4.87108,-418.445 L -4.71066,-418.104 L -4.59424,-417.746
 L -4.52365,-417.376 L -4.5,-417 L -4.52365,-416.624 L -4.59424,-416.254 L -4.71066,-415.896 L -4.87108,-415.555
 L -5.07294,-415.237 L -5.31308,-414.946 L -5.58772,-414.688 L -5.89252,-414.467 L -6.22266,-414.286 L -6.57294,-414.147
 L -6.93785,-414.053 L -7.31161,-414.006 z
M 7.31161,-414.006 L 6.93785,-414.053 L 6.57294,-414.147 L 6.22266,-414.286 L 5.89252,-414.467 L 5.58772,-414.688
 L 5.31308,-414.946 L 5.07294,-415.237 L 4.87108,-415.555 L 4.71066,-415.896 L 4.59424,-416.254 L 4.52365,-416.624
 L 4.5,-417 L 4.52365,-417.376 L 4.59424,-417.746 L 4.71066,-418.104 L 4.87108,-418.445 L 5.07294,-418.763
 L 5.31308,-419.054 L 5.58772,-419.312 L 5.89252,-419.533 L 6.22266,-419.714 L 6.57294,-419.853 L 6.93785,-419.947
 L 7.31161,-419.994 L 7.68837,-419.994 L 8.06213,-419.947 L 8.42705,-419.853 L 8.77733,-419.714 L 9.10747,-419.533
 L 9.41226,-419.312 L 9.6869,-419.054 L 9.92705,-418.763 L 10.1289,-418.445 L 10.2893,-418.104 L 10.4057,-417.746
 L 10.4763,-417.376 L 10.5,-417 L 10.4763,-416.624 L 10.4057,-416.254 L 10.2893,-415.896 L 10.1289,-415.555
 L 9.92705,-415.237 L 9.6869,-414.946 L 9.41226,-414.688 L 9.10747,-414.467 L 8.77733,-414.286 L 8.42705,-414.147
 L 8.06213,-414.053 L 7.68837,-414.006 z
M 40.4369,-356.089 L 41.0451,-356.245 L 41.6289,-356.476 L 42.1791,-356.778 L 42.6871,-357.147 L 43.1448,-357.577
 L 43.5451,-358.061 L 43.8815,-358.591 L 44.1489,-359.159 L 44.3429,-359.757 L 44.4606,-360.373 L 44.5,-361
 L 44.5,-395 L 44.4606,-395.627 L 44.3429,-396.243 L 44.1489,-396.841 L 43.8815,-397.409 L 43.5451,-397.939
 L 43.1448,-398.423 L 42.6871,-398.853 L 42.1791,-399.222 L 41.6289,-399.524 L 41.0451,-399.755 L 40.4369,-399.911
 L 39.8139,-399.99 L -39.8139,-399.99 L -40.4369,-399.911 L -41.0451,-399.755 L -41.6289,-399.524 L -42.1791,-399.222
 L -42.6871,-398.853 L -43.1448,-398.423 L -43.5451,-397.939 L -43.8815,-397.409 L -44.1489,-396.841 L -44.3429,-396.243
 L -44.4606,-395.627 L -44.5,-395 L -44.5,-361 L -44.4606,-360.373 L -44.3429,-359.757 L -44.1489,-359.159
 L -43.8815,-358.591 L -43.5451,-358.061 L -43.1448,-357.577 L -42.6871,-357.147 L -42.1791,-356.778 L -41.6289,-356.476
 L -41.0451,-356.245 L -40.4369,-356.089 L -39.8139,-356.01 L 39.8139,-356.01 z
M -22.6884,-390.006 L -23.0621,-390.053 L -23.427,-390.147 L -23.7773,-390.286 L -24.1075,-390.467 L -24.4123,-390.688
 L -24.6869,-390.946 L -24.927,-391.237 L -25.1289,-391.555 L -25.2893,-391.896 L -25.4057,-392.254 L -25.4763,-392.624
 L -25.5,-393 L -25.4763,-393.376 L -25.4057,-393.746 L -25.2893,-394.104 L -25.1289,-394.445 L -24.927,-394.763
 L -24.6869,-395.054 L -24.4123,-395.312 L -24.1075,-395.533 L -23.7773,-395.714 L -23.427,-395.853 L -23.0621,-395.947
 L -22.6884,-395.994 L -22.3116,-395.994 L -21.9379,-395.947 L -21.5729,-395.853 L -21.2227,-395.714 L -20.8925,-395.533
 L -20.5877,-395.312 L -20.3131,-395.054 L -20.0729,-394.763 L -19.8711,-394.445 L -19.7107,-394.104 L -19.5942,-393.746
 L -19.5237,-393.376 L -19.5,-393 L -19.5237,-392.624 L -19.5942,-392.254 L -19.7107,-391.896 L -19.8711,-391.555
 L -20.0729,-391.237 L -20.3131,-390.946 L -20.5877,-390.688 L -20.8925,-390.467 L -21.2227,-390.286 L -21.5729,-390.147
 L -21.9379,-390.053 L -22.3116,-390.006 z
M -37.6884,-390.006 L -38.0621,-390.053 L -38.427,-390.147 L -38.7773,-390.286 L -39.1075,-390.467 L -39.4123,-390.688
 L -39.6869,-390.946 L -39.927,-391.237 L -40.1289,-391.555 L -40.2893,-391.896 L -40.4057,-392.254 L -40.4763,-392.624
 L -40.5,-393 L -40.4763,-393.376 L -40.4057,-393.746 L -40.2893,-394.104 L -40.1289,-394.445 L -39.927,-394.763
 L -39.6869,-395.054 L -39.4123,-395.312 L -39.1075,-395.533 L -38.7773,-395.714 L -38.427,-395.853 L -38.0621,-395.947
 L -37.6884,-395.994 L -37.3116,-395.994 L -36.9379,-395.947 L -36.5729,-395.853 L -36.2227,-395.714 L -35.8925,-395.533
 L -35.5877,-395.312 L -35.3131,-395.054 L -35.0729,-394.763 L -34.8711,-394.445 L -34.7107,-394.104 L -34.5942,-393.746
 L -34.5237,-393.376 L -34.5,-393 L -34.5237,-392.624 L -34.5942,-392.254 L -34.7107,-391.896 L -34.8711,-391.555
 L -35.0729,-391.237 L -35.3131,-390.946 L -35.5877,-390.688 L -35.8925,-390.467 L -36.2227,-390.286 L -36.5729,-390.147
 L -36.9379,-390.053 L -37.3116,-390.006 z
M -7.68837,-390.006 L -8.06213,-390.053 L -8.42705,-390.147 L -8.77733,-390.286 L -9.10747,-390.467 L -9.41226,-390.688
 L -9.6869,-390.946 L -9.92705,-391.237 L -10.1289,-391.555 L -10.2893,-391.896 L -10.4057,-392.254 L -10.4763,-392.624
 L -10.5,-393 L -10.4763,-393.376 L -10.4057,-393.746 L -10.2893,-394.104 L -10.1289,-394.445 L -9.92705,-394.763
 L -9.6869,-395.054 L -9.41226,-395.312 L -9.10747,-395.533 L -8.77733,-395.714 L -8.42705,-395.853 L -8.06213,-395.947
 L -7.68837,-395.994 L -7.31161,-395.994 L -6.93785,-395.947 L -6.57294,-395.853 L -6.22266,-395.714 L -5.89252,-395.533
 L -5.58772,-395.312 L -5.31308,-395.054 L -5.07294,-394.763 L -4.87108,-394.445 L -4.71066,-394.104 L -4.59424,-393.746
 L -4.52365,-393.376 L -4.5,-393 L -4.52365,-392.624 L -4.59424,-392.254 L -4.71066,-391.896 L -4.87108,-391.555
 L -5.07294,-391.237 L -5.31308,-390.946 L -5.58772,-390.688 L -5.89252,-390.467 L -6.22266,-390.286 L -6.57294,-390.147
 L -6.93785,-390.053 L -7.31161,-390.006 z
M 37.3116,-390.006 L 36.9379,-390.053 L 36.5729,-390.147 L 36.2227,-390.286 L 35.8925,-390.467 L 35.5877,-390.688
 L 35.3131,-390.946 L 35.0729,-391.237 L 34.8711,-391.555 L 34.7107,-391.896 L 34.5942,-392.254 L 34.5237,-392.624
 L 34.5,-393 L 34.5237,-393.376 L 34.5942,-393.746 L 34.7107,-394.104 L 34.8711,-394.445 L 35.0729,-394.763
 L 35.3131,-395.054 L 35.5877,-395.312 L 35.8925,-395.533 L 36.2227,-395.714 L 36.5729,-395.853 L 36.9379,-395.947
 L 37.3116,-395.994 L 37.6884,-395.994 L 38.0621,-395.947 L 38.427,-395.853 L 38.7773,-395.714 L 39.1075,-395.533
 L 39.4123,-395.312 L 39.6869,-395.054 L 39.927,-394.763 L 40.1289,-394.445 L 40.2893,-394.104 L 40.4057,-393.746
 L 40.4763,-393.376 L 40.5,-393 L 40.4763,-392.624 L 40.4057,-392.254 L 40.2893,-391.896 L 40.1289,-391.555
 L 39.927,-391.237 L 39.6869,-390.946 L 39.4123,-390.688 L 39.1075,-390.467 L 38.7773,-390.286 L 38.427,-390.147
 L 38.0621,-390.053 L 37.6884,-390.006 z
M 7.31161,-390.006 L 6.93785,-390.053 L 6.57294,-390.147 L 6.22266,-390.286 L 5.89252,-390.467 L 5.58772,-390.688
 L 5.31308,-390.946 L 5.07294,-391.237 L 4.87108,-391.555 L 4.71066,-391.896 L 4.59424,-392.254 L 4.52365,-392.624
 L 4.5,-393 L 4.52365,-393.376 L 4.59424,-393.746 L 4.71066,-394.104 L 4.87108,-394.445 L 5.07294,-394.763
 L 5.31308,-395.054 L 5.58772,-395.312 L 5.89252,-395.533 L 6.22266,-395.714 L 6.57294,-395.853 L 6.93785,-395.947
 L 7.31161,-395.994 L 7.68837,-395.994 L 8.06213,-395.947 L 8.42705,-395.853 L 8.77733,-395.714 L 9.10747,-395.533
 L 9.41226,-395.312 L 9.6869,-395.054 L 9.92705,-394.763 L 10.1289,-394.445 L 10.2893,-394.104 L 10.4057,-393.746
 L 10.4763,-393.376 L 10.5,-393 L 10.4763,-392.624 L 10.4057,-392.254 L 10.2893,-391.896 L 10.1289,-391.555
 L 9.92705,-391.237 L 9.6869,-390.946 L 9.41226,-390.688 L 9.10747,-390.467 L 8.77733,-390.286 L 8.42705,-390.147
 L 8.06213,-390.053 L 7.68837,-390.006 z
M 22.3116,-390.006 L 21.9379,-390.053 L 21.5729,-390.147 L 21.2227,-390.286 L 20.8925,-390.467 L 20.5877,-390.688
 L 20.3131,-390.946 L 20.0729,-391.237 L 19.8711,-391.555 L 19.7107,-391.896 L 19.5942,-392.254 L 19.5237,-392.624
 L 19.5,-393 L 19.5237,-393.376 L 19.5942,-393.746 L 19.7107,-394.104 L 19.8711,-394.445 L 20.0729,-394.763
 L 20.3131,-395.054 L 20.5877,-395.312 L 20.8925,-395.533 L 21.2227,-395.714 L 21.5729,-395.853 L 21.9379,-395.947
 L 22.3116,-395.994 L 22.6884,-395.994 L 23.0621,-395.947 L 23.427,-395.853 L 23.7773,-395.714 L 24.1075,-395.533
 L 24.4123,-395.312 L 24.6869,-395.054 L 24.927,-394.763 L 25.1289,-394.445 L 25.2893,-394.104 L 25.4057,-393.746
 L 25.4763,-393.376 L 25.5,-393 L 25.4763,-392.624 L 25.4057,-392.254 L 25.2893,-391.896 L 25.1289,-391.555
 L 24.927,-391.237 L 24.6869,-390.946 L 24.4123,-390.688 L 24.1075,-390.467 L 23.7773,-390.286 L 23.427,-390.147
 L 23.0621,-390.053 L 22.6884,-390.006 z
M 37.3116,-375.006 L 36.9379,-375.053 L 36.5729,-375.147 L 36.2227,-375.286 L 35.8925,-375.467 L 35.5877,-375.688
 L 35.3131,-375.946 L 35.0729,-376.237 L 34.8711,-376.555 L 34.7107,-376.896 L 34.5942,-377.254 L 34.5237,-377.624
 L 34.5,-378 L 34.5237,-378.376 L 34.5942,-378.746 L 34.7107,-379.104 L 34.8711,-379.445 L 35.0729,-379.763
 L 35.3131,-380.054 L 35.5877,-380.312 L 35.8925,-380.533 L 36.2227,-380.714 L 36.5729,-380.853 L 36.9379,-380.947
 L 37.3116,-380.994 L 37.6884,-380.994 L 38.0621,-380.947 L 38.427,-380.853 L 38.7773,-380.714 L 39.1075,-380.533
 L 39.4123,-380.312 L 39.6869,-380.054 L 39.927,-379.763 L 40.1289,-379.445 L 40.2893,-379.104 L 40.4057,-378.746
 L 40.4763,-378.376 L 40.5,-378 L 40.4763,-377.624 L 40.4057,-377.254 L 40.2893,-376.896 L 40.1289,-376.555
 L 39.927,-376.237 L 39.6869,-375.946 L 39.4123,-375.688 L 39.1075,-375.467 L 38.7773,-375.286 L 38.427,-375.147
 L 38.0621,-375.053 L 37.6884,-375.006 z
M -7.68837,-375.006 L -8.06213,-375.053 L -8.42705,-375.147 L -8.77733,-375.286 L -9.10747,-375.467 L -9.41226,-375.688
 L -9.6869,-375.946 L -9.92705,-376.237 L -10.1289,-376.555 L -10.2893,-376.896 L -10.4057,-377.254 L -10.4763,-377.624
 L -10.5,-378 L -10.4763,-378.376 L -10.4057,-378.746 L -10.2893,-379.104 L -10.1289,-379.445 L -9.92705,-379.763
 L -9.6869,-380.054 L -9.41226,-380.312 L -9.10747,-380.533 L -8.77733,-380.714 L -8.42705,-380.853 L -8.06213,-380.947
 L -7.68837,-380.994 L -7.31161,-380.994 L -6.93785,-380.947 L -6.57294,-380.853 L -6.22266,-380.714 L -5.89252,-380.533
 L -5.58772,-380.312 L -5.31308,-380.054 L -5.07294,-379.763 L -4.87108,-379.445 L -4.71066,-379.104 L -4.59424,-378.746
 L -4.52365,-378.376 L -4.5,-378 L -4.52365,-377.624 L -4.59424,-377.254 L -4.71066,-376.896 L -4.87108,-376.555
 L -5.07294,-376.237 L -5.31308,-375.946 L -5.58772,-375.688 L -5.89252,-375.467 L -6.22266,-375.286 L -6.57294,-375.147
 L -6.93785,-375.053 L -7.31161,-375.006 z
M -37.6884,-375.006 L -38.0621,-375.053 L -38.427,-375.147 L -38.7773,-375.286 L -39.1075,-375.467 L -39.4123,-375.688
 L -39.6869,-375.946 L -39.927,-376.237 L -40.1289,-376.555 L -40.2893,-376.896 L -40.4057,-377.254 L -40.4763,-377.624
 L -40.5,-378 L -40.4763,-378.376 L -40.4057,-378.746 L -40.2893,-379.104 L -40.1289,-379.445 L -39.927,-379.763
 L -39.6869,-380.054 L -39.4123,-380.312 L -39.1075,-380.533 L -38.7773,-380.714 L -38.427,-380.853 L -38.0621,-380.947
 L -37.6884,-380.994 L -37.3116,-380.994 L -36.9379,-380.947 L -36.5729,-380.853 L -36.2227,-380.714 L -35.8925,-380.533
 L -35.5877,-380.312 L -35.3131,-380.054 L -35.0729,-379.763 L -34.8711,-379.445 L -34.7107,-379.104 L -34.5942,-378.746
 L -34.5237,-378.376 L -34.5,-378 L -34.5237,-377.624 L -34.5942,-377.254 L -34.7107,-376.896 L -34.8711,-376.555
 L -35.0729,-376.237 L -35.3131,-375.946 L -35.5877,-375.688 L -35.8925,-375.467 L -36.2227,-375.286 L -36.5729,-375.147
 L -36.9379,-375.053 L -37.3116,-375.006 z
M 7.31161,-375.006 L 6.93785,-375.053 L 6.57294,-375.147 L 6.22266,-375.286 L 5.89252,-375.467 L 5.58772,-375.688
 L 5.31308,-375.946 L 5.07294,-376.237 L 4.87108,-376.555 L 4.71066,-376.896 L 4.59424,-377.254 L 4.52365,-377.624
 L 4.5,-378 L 4.52365,-378.376 L 4.59424,-378.746 L 4.71066,-379.104 L 4.87108,-379.445 L 5.07294,-379.763
 L 5.31308,-380.054 L 5.58772,-380.312 L 5.89252,-380.533 L 6.22266,-380.714 L 6.57294,-380.853 L 6.93785,-380.947
 L 7.31161,-380.994 L 7.68837,-380.994 L 8.06213,-380.947 L 8.42705,-380.853 L 8.77733,-380.714 L 9.10747,-380.533
 L 9.41226,-380.312 L 9.6869,-380.054 L 9.92705,-379.763 L 10.1289,-379.445 L 10.2893,-379.104 L 10.4057,-378.746
 L 10.4763,-378.376 L 10.5,-378 L 10.4763,-377.624 L 10.4057,-377.254 L 10.2893,-376.896 L 10.1289,-376.555
 L 9.92705,-376.237 L 9.6869,-375.946 L 9.41226,-375.688 L 9.10747,-375.467 L 8.77733,-375.286 L 8.42705,-375.147
 L 8.06213,-375.053 L 7.68837,-375.006 z
M -22.6884,-375.006 L -23.0621,-375.053 L -23.427,-375.147 L -23.7773,-375.286 L -24.1075,-375.467 L -24.4123,-375.688
 L -24.6869,-375.946 L -24.927,-376.237 L -25.1289,-376.555 L -25.2893,-376.896 L -25.4057,-377.254 L -25.4763,-377.624
 L -25.5,-378 L -25.4763,-378.376 L -25.4057,-378.746 L -25.2893,-379.104 L -25.1289,-379.445 L -24.927,-379.763
 L -24.6869,-380.054 L -24.4123,-380.312 L -24.1075,-380.533 L -23.7773,-380.714 L -23.427,-380.853 L -23.0621,-380.947
 L -22.6884,-380.994 L -22.3116,-380.994 L -21.9379,-380.947 L -21.5729,-380.853 L -21.2227,-380.714 L -20.8925,-380.533
 L -20.5877,-380.312 L -20.3131,-380.054 L -20.0729,-379.763 L -19.8711,-379.445 L -19.7107,-379.104 L -19.5942,-378.746
 L -19.5237,-378.376 L -19.5,-378 L -19.5237,-377.624 L -19.5942,-377.254 L -19.7107,-376.896 L -19.8711,-376.555
 L -20.0729,-376.237 L -20.3131,-375.946 L -20.5877,-375.688 L -20.8925,-375.467 L -21.2227,-375.286 L -21.5729,-375.147
 L -21.9379,-375.053 L -22.3116,-375.006 z
M 22.3116,-375.006 L 21.9379,-375.053 L 21.5729,-375.147 L 21.2227,-375.286 L 20.8925,-375.467 L 20.5877,-375.688
 L 20.3131,-375.946 L 20.0729,-376.237 L 19.8711,-376.555 L 19.7107,-376.896 L 19.5942,-377.254 L 19.5237,-377.624
 L 19.5,-378 L 19.5237,-378.376 L 19.5942,-378.746 L 19.7107,-379.104 L 19.8711,-379.445 L 20.0729,-379.763
 L 20.3131,-380.054 L 20.5877,-380.312 L 20.8925,-380.533 L 21.2227,-380.714 L 21.5729,-380.853 L 21.9379,-380.947
 L 22.3116,-380.994 L 22.6884,-380.994 L 23.0621,-380.947 L 23.427,-380.853 L 23.7773,-380.714 L 24.1075,-380.533
 L 24.4123,-380.312 L 24.6869,-380.054 L 24.927,-379.763 L 25.1289,-379.445 L 25.2893,-379.104 L 25.4057,-378.746
 L 25.4763,-378.376 L 25.5,-378 L 25.4763,-377.624 L 25.4057,-377.254 L 25.2893,-376.896 L 25.1289,-376.555
 L 24.927,-376.237 L 24.6869,-375.946 L 24.4123,-375.688 L 24.1075,-375.467 L 23.7773,-375.286 L 23.427,-375.147
 L 23.0621,-375.053 L 22.6884,-375.006 z
M 37.3116,-360.006 L 36.9379,-360.053 L 36.5729,-360.147 L 36.2227,-360.286 L 35.8925,-360.467 L 35.5877,-360.688
 L 35.3131,-360.946 L 35.0729,-361.237 L 34.8711,-361.555 L 34.7107,-361.896 L 34.5942,-362.254 L 34.5237,-362.624
 L 34.5,-363 L 34.5237,-363.376 L 34.5942,-363.746 L 34.7107,-364.104 L 34.8711,-364.445 L 35.0729,-364.763
 L 35.3131,-365.054 L 35.5877,-365.312 L 35.8925,-365.533 L 36.2227,-365.714 L 36.5729,-365.853 L 36.9379,-365.947
 L 37.3116,-365.994 L 37.6884,-365.994 L 38.0621,-365.947 L 38.427,-365.853 L 38.7773,-365.714 L 39.1075,-365.533
 L 39.4123,-365.312 L 39.6869,-365.054 L 39.927,-364.763 L 40.1289,-364.445 L 40.2893,-364.104 L 40.4057,-363.746
 L 40.4763,-363.376 L 40.5,-363 L 40.4763,-362.624 L 40.4057,-362.254 L 40.2893,-361.896 L 40.1289,-361.555
 L 39.927,-361.237 L 39.6869,-360.946 L 39.4123,-360.688 L 39.1075,-360.467 L 38.7773,-360.286 L 38.427,-360.147
 L 38.0621,-360.053 L 37.6884,-360.006 z
M 22.3116,-360.006 L 21.9379,-360.053 L 21.5729,-360.147 L 21.2227,-360.286 L 20.8925,-360.467 L 20.5877,-360.688
 L 20.3131,-360.946 L 20.0729,-361.237 L 19.8711,-361.555 L 19.7107,-361.896 L 19.5942,-362.254 L 19.5237,-362.624
 L 19.5,-363 L 19.5237,-363.376 L 19.5942,-363.746 L 19.7107,-364.104 L 19.8711,-364.445 L 20.0729,-364.763
 L 20.3131,-365.054 L 20.5877,-365.312 L 20.8925,-365.533 L 21.2227,-365.714 L 21.5729,-365.853 L 21.9379,-365.947
 L 22.3116,-365.994 L 22.6884,-365.994 L 23.0621,-365.947 L 23.427,-365.853 L 23.7773,-365.714 L 24.1075,-365.533
 L 24.4123,-365.312 L 24.6869,-365.054 L 24.927,-364.763 L 25.1289,-364.445 L 25.2893,-364.104 L 25.4057,-363.746
 L 25.4763,-363.376 L 25.5,-363 L 25.4763,-362.624 L 25.4057,-362.254 L 25.2893,-361.896 L 25.1289,-361.555
 L 24.927,-361.237 L 24.6869,-360.946 L 24.4123,-360.688 L 24.1075,-360.467 L 23.7773,-360.286 L 23.427,-360.147
 L 23.0621,-360.053 L 22.6884,-360.006 z
M -22.6884,-360.006 L -23.0621,-360.053 L -23.427,-360.147 L -23.7773,-360.286 L -24.1075,-360.467 L -24.4123,-360.688
 L -24.6869,-360.946 L -24.927,-361.237 L -25.1289,-361.555 L -25.2893,-361.896 L -25.4057,-362.254 L -25.4763,-362.624
 L -25.5,-363 L -25.4763,-363.376 L -25.4057,-363.746 L -25.2893,-364.104 L -25.1289,-364.445 L -24.927,-364.763
 L -24.6869,-365.054 L -24.4123,-365.312 L -24.1075,-365.533 L -23.7773,-365.714 L -23.427,-365.853 L -23.0621,-365.947
 L -22.6884,-365.994 L -22.3116,-365.994 L -21.9379,-365.947 L -21.5729,-365.853 L -21.2227,-365.714 L -20.8925,-365.533
 L -20.5877,-365.312 L -20.3131,-365.054 L -20.0729,-364.763 L -19.8711,-364.445 L -19.7107,-364.104 L -19.5942,-363.746
 L -19.5237,-363.376 L -19.5,-363 L -19.5237,-362.624 L -19.5942,-362.254 L -19.7107,-361.896 L -19.8711,-361.555
 L -20.0729,-361.237 L -20.3131,-360.946 L -20.5877,-360.688 L -20.8925,-360.467 L -21.2227,-360.286 L -21.5729,-360.147
 L -21.9379,-360.053 L -22.3116,-360.006 z
M -37.6884,-360.006 L -38.0621,-360.053 L -38.427,-360.147 L -38.7773,-360.286 L -39.1075,-360.467 L -39.4123,-360.688
 L -39.6869,-360.946 L -39.927,-361.237 L -40.1289,-361.555 L -40.2893,-361.896 L -40.4057,-362.254 L -40.4763,-362.624
 L -40.5,-363 L -40.4763,-363.376 L -40.4057,-363.746 L -40.2893,-364.104 L -40.1289,-364.445 L -39.927,-364.763
 L -39.6869,-365.054 L -39.4123,-365.312 L -39.1075,-365.533 L -38.7773,-365.714 L -38.427,-365.853 L -38.0621,-365.947
 L -37.6884,-365.994 L -37.3116,-365.994 L -36.9379,-365.947 L -36.5729,-365.853 L -36.2227,-365.714 L -35.8925,-365.533
 L -35.5877,-365.312 L -35.3131,-365.054 L -35.0729,-364.763 L -34.8711,-364.445 L -34.7107,-364.104 L -34.5942,-363.746
 L -34.5237,-363.376 L -34.5,-363 L -34.5237,-362.624 L -34.5942,-362.254 L -34.7107,-361.896 L -34.8711,-361.555
 L -35.0729,-361.237 L -35.3131,-360.946 L -35.5877,-360.688 L -35.8925,-360.467 L -36.2227,-360.286 L -36.5729,-360.147
 L -36.9379,-360.053 L -37.3116,-360.006 z
M -7.68837,-360.006 L -8.06213,-360.053 L -8.42705,-360.147 L -8.77733,-360.286 L -9.10747,-360.467 L -9.41226,-360.688
 L -9.6869,-360.946 L -9.92705,-361.237 L -10.1289,-361.555 L -10.2893,-361.896 L -10.4057,-362.254 L -10.4763,-362.624
 L -10.5,-363 L -10.4763,-363.376 L -10.4057,-363.746 L -10.2893,-364.104 L -10.1289,-364.445 L -9.92705,-364.763
 L -9.6869,-365.054 L -9.41226,-365.312 L -9.10747,-365.533 L -8.77733,-365.714 L -8.42705,-365.853 L -8.06213,-365.947
 L -7.68837,-365.994 L -7.31161,-365.994 L -6.93785,-365.947 L -6.57294,-365.853 L -6.22266,-365.714 L -5.89252,-365.533
 L -5.58772,-365.312 L -5.31308,-365.054 L -5.07294,-364.763 L -4.87108,-364.445 L -4.71066,-364.104 L -4.59424,-363.746
 L -4.52365,-363.376 L -4.5,-363 L -4.52365,-362.624 L -4.59424,-362.254 L -4.71066,-361.896 L -4.87108,-361.555
 L -5.07294,-361.237 L -5.31308,-360.946 L -5.58772,-360.688 L -5.89252,-360.467 L -6.22266,-360.286 L -6.57294,-360.147
 L -6.93785,-360.053 L -7.31161,-360.006 z
M 7.31161,-360.006 L 6.93785,-360.053 L 6.57294,-360.147 L 6.22266,-360.286 L 5.89252,-360.467 L 5.58772,-360.688
 L 5.31308,-360.946 L 5.07294,-361.237 L 4.87108,-361.555 L 4.71066,-361.896 L 4.59424,-362.254 L 4.52365,-362.624
 L 4.5,-363 L 4.52365,-363.376 L 4.59424,-363.746 L 4.71066,-364.104 L 4.87108,-364.445 L 5.07294,-364.763
 L 5.31308,-365.054 L 5.58772,-365.312 L 5.89252,-365.533 L 6.22266,-365.714 L 6.57294,-365.853 L 6.93785,-365.947
 L 7.31161,-365.994 L 7.68837,-365.994 L 8.06213,-365.947 L 8.42705,-365.853 L 8.77733,-365.714 L 9.10747,-365.533
 L 9.41226,-365.312 L 9.6869,-365.054 L 9.92705,-364.763 L 10.1289,-364.445 L 10.2893,-364.104 L 10.4057,-363.746
 L 10.4763,-363.376 L 10.5,-363 L 10.4763,-362.624 L 10.4057,-362.254 L 10.2893,-361.896 L 10.1289,-361.555
 L 9.92705,-361.237 L 9.6869,-360.946 L 9.41226,-360.688 L 9.10747,-360.467 L 8.77733,-360.286 L 8.42705,-360.147
 L 8.06213,-360.053 L 7.68837,-360.006 z
M 40.4369,-302.089 L 41.0451,-302.245 L 41.6289,-302.476 L 42.1791,-302.778 L 42.6871,-303.147 L 43.1448,-303.577
 L 43.5451,-304.061 L 43.8815,-304.591 L 44.1489,-305.159 L 44.3429,-305.757 L 44.4606,-306.373 L 44.5,-307
 L 44.5,-341 L 44.4606,-341.627 L 44.3429,-342.243 L 44.1489,-342.841 L 43.8815,-343.409 L 43.5451,-343.939
 L 43.1448,-344.423 L 42.6871,-344.853 L 42.1791,-345.222 L 41.6289,-345.524 L 41.0451,-345.755 L 40.4369,-345.911
 L 39.8139,-345.99 L -39.8139,-345.99 L -40.4369,-345.911 L -41.0451,-345.755 L -41.6289,-345.524 L -42.1791,-345.222
 L -42.6871,-344.853 L -43.1448,-344.423 L -43.5451,-343.939 L -43.8815,-343.409 L -44.1489,-342.841 L -44.3429,-342.243
 L -44.4606,-341.627 L -44.5,-341 L -44.5,-307 L -44.4606,-306.373 L -44.3429,-305.757 L -44.1489,-305.159
 L -43.8815,-304.591 L -43.5451,-304.061 L -43.1448,-303.577 L -42.6871,-303.147 L -42.1791,-302.778 L -41.6289,-302.476
 L -41.0451,-302.245 L -40.4369,-302.089 L -39.8139,-302.01 L 39.8139,-302.01 z
M -22.6884,-336.006 L -23.0621,-336.053 L -23.427,-336.147 L -23.7773,-336.286 L -24.1075,-336.467 L -24.4123,-336.688
 L -24.6869,-336.946 L -24.927,-337.237 L -25.1289,-337.555 L -25.2893,-337.896 L -25.4057,-338.254 L -25.4763,-338.624
 L -25.5,-339 L -25.4763,-339.376 L -25.4057,-339.746 L -25.2893,-340.104 L -25.1289,-340.445 L -24.927,-340.763
 L -24.6869,-341.054 L -24.4123,-341.312 L -24.1075,-341.533 L -23.7773,-341.714 L -23.427,-341.853 L -23.0621,-341.947
 L -22.6884,-341.994 L -22.3116,-341.994 L -21.9379,-341.947 L -21.5729,-341.853 L -21.2227,-341.714 L -20.8925,-341.533
 L -20.5877,-341.312 L -20.3131,-341.054 L -20.0729,-340.763 L -19.8711,-340.445 L -19.7107,-340.104 L -19.5942,-339.746
 L -19.5237,-339.376 L -19.5,-339 L -19.5237,-338.624 L -19.5942,-338.254 L -19.7107,-337.896 L -19.8711,-337.555
 L -20.0729,-337.237 L -20.3131,-336.946 L -20.5877,-336.688 L -20.8925,-336.467 L -21.2227,-336.286 L -21.5729,-336.147
 L -21.9379,-336.053 L -22.3116,-336.006 z
M -37.6884,-336.006 L -38.0621,-336.053 L -38.427,-336.147 L -38.7773,-336.286 L -39.1075,-336.467 L -39.4123,-336.688
 L -39.6869,-336.946 L -39.927,-337.237 L -40.1289,-337.555 L -40.2893,-337.896 L -40.4057,-338.254 L -40.4763,-338.624
 L -40.5,-339 L -40.4763,-339.376 L -40.4057,-339.746 L -40.2893,-340.104 L -40.1289,-340.445 L -39.927,-340.763
 L -39.6869,-341.054 L -39.4123,-341.312 L -39.1075,-341.533 L -38.7773,-341.714 L -38.427,-341.853 L -38.0621,-341.947
 L -37.6884,-341.994 L -37.3116,-341.994 L -36.9379,-341.947 L -36.5729,-341.853 L -36.2227,-341.714 L -35.8925,-341.533
 L -35.5877,-341.312 L -35.3131,-341.054 L -35.0729,-340.763 L -34.8711,-340.445 L -34.7107,-340.104 L -34.5942,-339.746
 L -34.5237,-339.376 L -34.5,-339 L -34.5237,-338.624 L -34.5942,-338.254 L -34.7107,-337.896 L -34.8711,-337.555
 L -35.0729,-337.237 L -35.3131,-336.946 L -35.5877,-336.688 L -35.8925,-336.467 L -36.2227,-336.286 L -36.5729,-336.147
 L -36.9379,-336.053 L -37.3116,-336.006 z
M -7.68837,-336.006 L -8.06213,-336.053 L -8.42705,-336.147 L -8.77733,-336.286 L -9.10747,-336.467 L -9.41226,-336.688
 L -9.6869,-336.946 L -9.92705,-337.237 L -10.1289,-337.555 L -10.2893,-337.896 L -10.4057,-338.254 L -10.4763,-338.624
 L -10.5,-339 L -10.4763,-339.376 L -10.4057,-339.746 L -10.2893,-340.104 L -10.1289,-340.445 L -9.92705,-340.763
 L -9.6869,-341.054 L -9.41226,-341.312 L -9.10747,-341.533 L -8.77733,-341.714 L -8.42705,-341.853 L -8.06213,-341.947
 L -7.68837,-341.994 L -7.31161,-341.994 L -6.93785,-341.947 L -6.57294,-341.853 L -6.22266,-341.714 L -5.89252,-341.533
 L -5.58772,-341.312 L -5.31308,-341.054 L -5.07294,-340.763 L -4.87108,-340.445 L -4.71066,-340.104 L -4.59424,-339.746
 L -4.52365,-339.376 L -4.5,-339 L -4.52365,-338.624 L -4.59424,-338.254 L -4.71066,-337.896 L -4.87108,-337.555
 L -5.07294,-337.237 L -5.31308,-336.946 L -5.58772,-336.688 L -5.89252,-336.467 L -6.22266,-336.286 L -6.57294,-336.147
 L -6.93785,-336.053 L -7.31161,-336.006 z
M 37.3116,-336.006 L 36.9379,-336.053 L 36.5729,-336.147 L 36.2227,-336.286 L 35.8925,-336.467 L 35.5877,-336.688
 L 35.3131,-336.946 L 35.0729,-337.237 L 34.8711,-337.555 L 34.7107,-337.896 L 34.5942,-338.254 L 34.5237,-338.624
 L 34.5,-339 L 34.5237,-339.376 L 34.5942,-339.746 L 34.7107,-340.104 L 34.8711,-340.445 L 35.0729,-340.763
 L 35.3131,-341.054 L 35.5877,-341.312 L 35.8925,-341.533 L 36.2227,-341.714 L 36.5729,-341.853 L 36.9379,-341.947
 L 37.3116,-341.994 L 37.6884,-341.994 L 38.0621,-341.947 L 38.427,-341.853 L 38.7773,-341.714 L 39.1075,-341.533
 L 39.4123,-341.312 L 39.6869,-341.054 L 39.927,-340.763 L 40.1289,-340.445 L 40.2893,-340.104 L 40.4057,-339.746
 L 40.4763,-339.376 L 40.5,-339 L 40.4763,-338.624 L 40.4057,-338.254 L 40.2893,-337.896 L 40.1289,-337.555
 L 39.927,-337.237 L 39.6869,-336.946 L 39.4123,-336.688 L 39.1075,-336.467 L 38.7773,-336.286 L 38.427,-336.147
 L 38.0621,-336.053 L 37.6884,-336.006 z
M 7.31161,-336.006 L 6.93785,-336.053 L 6.57294,-336.147 L 6.22266,-336.286 L 5.89252,-336.467 L 5.58772,-336.688
 L 5.31308,-336.946 L 5.07294,-337.237 L 4.87108,-337.555 L 4.71066,-337.896 L 4.59424,-338.254 L 4.52365,-338.624
 L 4.5,-339 L 4.52365,-339.376 L 4.59424,-339.746 L 4.71066,-340.104 L 4.87108,-340.445 L 5.07294,-340.763
 L 5.31308,-341.054 L 5.58772,-341.312 L 5.89252,-341.533 L 6.22266,-341.714 L 6.57294,-341.853 L 6.93785,-341.947
 L 7.31161,-341.994 L 7.68837,-341.994 L 8.06213,-341.947 L 8.42705,-341.853 L 8.77733,-341.714 L 9.10747,-341.533
 L 9.41226,-341.312 L 9.6869,-341.054 L 9.92705,-340.763 L 10.1289,-340.445 L 10.2893,-340.104 L 10.4057,-339.746
 L 10.4763,-339.376 L 10.5,-339 L 10.4763,-338.624 L 10.4057,-338.254 L 10.2893,-337.896 L 10.1289,-337.555
 L 9.92705,-337.237 L 9.6869,-336.946 L 9.41226,-336.688 L 9.10747,-336.467 L 8.77733,-336.286 L 8.42705,-336.147
 L 8.06213,-336.053 L 7.68837,-336.006 z
M 22.3116,-336.006 L 21.9379,-336.053 L 21.5729,-336.147 L 21.2227,-336.286 L 20.8925,-336.467 L 20.5877,-336.688
 L 20.3131,-336.946 L 20.0729,-337.237 L 19.8711,-337.555 L 19.7107,-337.896 L 19.5942,-338.254 L 19.5237,-338.624
 L 19.5,-339 L 19.5237,-339.376 L 19.5942,-339.746 L 19.7107,-340.104 L 19.8711,-340.445 L 20.0729,-340.763
 L 20.3131,-341.054 L 20.5877,-341.312 L 20.8925,-341.533 L 21.2227,-341.714 L 21.5729,-341.853 L 21.9379,-341.947
 L 22.3116,-341.994 L 22.6884,-341.994 L 23.0621,-341.947 L 23.427,-341.853 L 23.7773,-341.714 L 24.1075,-341.533
 L 24.4123,-341.312 L 24.6869,-341.054 L 24.927,-340.763 L 25.1289,-340.445 L 25.2893,-340.104 L 25.4057,-339.746
 L 25.4763,-339.376 L 25.5,-339 L 25.4763,-338.624 L 25.4057,-338.254 L 25.2893,-337.896 L 25.1289,-337.555
 L 24.927,-337.237 L 24.6869,-336.946 L 24.4123,-336.688 L 24.1075,-336.467 L 23.7773,-336.286 L 23.427,-336.147
 L 23.0621,-336.053 L 22.6884,-336.006 z
M -7.68837,-321.006 L -8.06213,-321.053 L -8.42705,-321.147 L -8.77733,-321.286 L -9.10747,-321.467 L -9.41226,-321.688
 L -9.6869,-321.946 L -9.92705,-322.237 L -10.1289,-322.555 L -10.2893,-322.896 L -10.4057,-323.254 L -10.4763,-323.624
 L -10.5,-324 L -10.4763,-324.376 L -10.4057,-324.746 L -10.2893,-325.104 L -10.1289,-325.445 L -9.92705,-325.763
 L -9.6869,-326.054 L -9.41226,-326.312 L -9.10747,-326.533 L -8.77733,-326.714 L -8.42705,-326.853 L -8.06213,-326.947
 L -7.68837,-326.994 L -7.31161,-326.994 L -6.93785,-326.947 L -6.57294,-326.853 L -6.22266,-326.714 L -5.89252,-326.533
 L -5.58772,-326.312 L -5.31308,-326.054 L -5.07294,-325.763 L -4.87108,-325.445 L -4.71066,-325.104 L -4.59424,-324.746
 L -4.52365,-324.376 L -4.5,-324 L -4.52365,-323.624 L -4.59424,-323.254 L -4.71066,-322.896 L -4.87108,-322.555
 L -5.07294,-322.237 L -5.31308,-321.946 L -5.58772,-321.688 L -5.89252,-321.467 L -6.22266,-321.286 L -6.57294,-321.147
 L -6.93785,-321.053 L -7.31161,-321.006 z
M -37.6884,-321.006 L -38.0621,-321.053 L -38.427,-321.147 L -38.7773,-321.286 L -39.1075,-321.467 L -39.4123,-321.688
 L -39.6869,-321.946 L -39.927,-322.237 L -40.1289,-322.555 L -40.2893,-322.896 L -40.4057,-323.254 L -40.4763,-323.624
 L -40.5,-324 L -40.4763,-324.376 L -40.4057,-324.746 L -40.2893,-325.104 L -40.1289,-325.445 L -39.927,-325.763
 L -39.6869,-326.054 L -39.4123,-326.312 L -39.1075,-326.533 L -38.7773,-326.714 L -38.427,-326.853 L -38.0621,-326.947
 L -37.6884,-326.994 L -37.3116,-326.994 L -36.9379,-326.947 L -36.5729,-326.853 L -36.2227,-326.714 L -35.8925,-326.533
 L -35.5877,-326.312 L -35.3131,-326.054 L -35.0729,-325.763 L -34.8711,-325.445 L -34.7107,-325.104 L -34.5942,-324.746
 L -34.5237,-324.376 L -34.5,-324 L -34.5237,-323.624 L -34.5942,-323.254 L -34.7107,-322.896 L -34.8711,-322.555
 L -35.0729,-322.237 L -35.3131,-321.946 L -35.5877,-321.688 L -35.8925,-321.467 L -36.2227,-321.286 L -36.5729,-321.147
 L -36.9379,-321.053 L -37.3116,-321.006 z
M 7.31161,-321.006 L 6.93785,-321.053 L 6.57294,-321.147 L 6.22266,-321.286 L 5.89252,-321.467 L 5.58772,-321.688
 L 5.31308,-321.946 L 5.07294,-322.237 L 4.87108,-322.555 L 4.71066,-322.896 L 4.59424,-323.254 L 4.52365,-323.624
 L 4.5,-324 L 4.52365,-324.376 L 4.59424,-324.746 L 4.71066,-325.104 L 4.87108,-325.445 L 5.07294,-325.763
 L 5.31308,-326.054 L 5.58772,-326.312 L 5.89252,-326.533 L 6.22266,-326.714 L 6.57294,-326.853 L 6.93785,-326.947
 L 7.31161,-326.994 L 7.68837,-326.994 L 8.06213,-326.947 L 8.42705,-326.853 L 8.77733,-326.714 L 9.10747,-326.533
 L 9.41226,-326.312 L 9.6869,-326.054 L 9.92705,-325.763 L 10.1289,-325.445 L 10.2893,-325.104 L 10.4057,-324.746
 L 10.4763,-324.376 L 10.5,-324 L 10.4763,-323.624 L 10.4057,-323.254 L 10.2893,-322.896 L 10.1289,-322.555
 L 9.92705,-322.237 L 9.6869,-321.946 L 9.41226,-321.688 L 9.10747,-321.467 L 8.77733,-321.286 L 8.42705,-321.147
 L 8.06213,-321.053 L 7.68837,-321.006 z
M 37.3116,-321.006 L 36.9379,-321.053 L 36.5729,-321.147 L 36.2227,-321.286 L 35.8925,-321.467 L 35.5877,-321.688
 L 35.3131,-321.946 L 35.0729,-322.237 L 34.8711,-322.555 L 34.7107,-322.896 L 34.5942,-323.254 L 34.5237,-323.624
 L 34.5,-324 L 34.5237,-324.376 L 34.5942,-324.746 L 34.7107,-325.104 L 34.8711,-325.445 L 35.0729,-325.763
 L 35.3131,-326.054 L 35.5877,-326.312 L 35.8925,-326.533 L 36.2227,-326.714 L 36.5729,-326.853 L 36.9379,-326.947
 L 37.3116,-326.994 L 37.6884,-326.994 L 38.0621,-326.947 L 38.427,-326.853 L 38.7773,-326.714 L 39.1075,-326.533
 L 39.4123,-326.312 L 39.6869,-326.054 L 39.927,-325.763 L 40.1289,-325.445 L 40.2893,-325.104 L 40.4057,-324.746
 L 40.4763,-324.376 L 40.5,-324 L 40.4763,-323.624 L 40.4057,-323.254 L 40.2893,-322.896 L 40.1289,-322.555
 L 39.927,-322.237 L 39.6869,-321.946 L 39.4123,-321.688 L 39.1075,-321.467 L 38.7773,-321.286 L 38.427,-321.147
 L 38.0621,-321.053 L 37.6884,-321.006 z
M -22.6884,-321.006 L -23.0621,-321.053 L -23.427,-321.147 L -23.7773,-321.286 L -24.1075,-321.467 L -24.4123,-321.688
 L -24.6869,-321.946 L -24.927,-322.237 L -25.1289,-322.555 L -25.2893,-322.896 L -25.4057,-323.254 L -25.4763,-323.624
 L -25.5,-324 L -25.4763,-324.376 L -25.4057,-324.746 L -25.2893,-325.104 L -25.1289,-325.445 L -24.927,-325.763
 L -24.6869,-326.054 L -24.4123,-326.312 L -24.1075,-326.533 L -23.7773,-326.714 L -23.427,-326.853 L -23.0621,-326.947
 L -22.6884,-326.994 L -22.3116,-326.994 L -21.9379,-326.947 L -21.5729,-326.853 L -21.2227,-326.714 L -20.8925,-326.533
 L -20.5877,-326.312 L -20.3131,-326.054 L -20.0729,-325.763 L -19.8711,-325.445 L -19.7107,-325.104 L -19.5942,-324.746
 L -19.5237,-324.376 L -19.5,-324 L -19.5237,-323.624 L -19.5942,-323.254 L -19.7107,-322.896 L -19.8711,-322.555
 L -20.0729,-322.237 L -20.3131,-321.946 L -20.5877,-321.688 L -20.8925,-321.467 L -21.2227,-321.286 L -21.5729,-321.147
 L -21.9379,-321.053 L -22.3116,-321.006 z
M 22.3116,-321.006 L 21.9379,-321.053 L 21.5729,-321.147 L 21.2227,-321.286 L 20.8925,-321.467 L 20.5877,-321.688
 L 20.3131,-321.946 L 20.0729,-322.237 L 19.8711,-322.555 L 19.7107,-322.896 L 19.5942,-323.254 L 19.5237,-323.624
 L 19.5,-324 L 19.5237,-324.376 L 19.5942,-324.746 L 19.7107,-325.104 L 19.8711,-325.445 L 20.0729,-325.763
 L 20.3131,-326.054 L 20.5877,-326.312 L 20.8925,-326.533 L 21.2227,-326.714 L 21.5729,-326.853 L 21.9379,-326.947
 L 22.3116,-326.994 L 22.6884,-326.994 L 23.0621,-326.947 L 23.427,-326.853 L 23.7773,-326.714 L 24.1075,-326.533
 L 24.4123,-326.312 L 24.6869,-326.054 L 24.927,-325.763 L 25.1289,-325.445 L 25.2893,-325.104 L 25.4057,-324.746
 L 25.4763,-324.376 L 25.5,-324 L 25.4763,-323.624 L 25.4057,-323.254 L 25.2893,-322.896 L 25.1289,-322.555
 L 24.927,-322.237 L 24.6869,-321.946 L 24.4123,-321.688 L 24.1075,-321.467 L 23.7773,-321.286 L 23.427,-321.147
 L 23.0621,-321.053 L 22.6884,-321.006 z
M -7.68837,-306.006 L -8.06213,-306.053 L -8.42705,-306.147 L -8.77733,-306.286 L -9.10747,-306.467 L -9.41226,-306.688
 L -9.6869,-306.946 L -9.92705,-307.237 L -10.1289,-307.555 L -10.2893,-307.896 L -10.4057,-308.254 L -10.4763,-308.624
 L -10.5,-309 L -10.4763,-309.376 L -10.4057,-309.746 L -10.2893,-310.104 L -10.1289,-310.445 L -9.92705,-310.763
 L -9.6869,-311.054 L -9.41226,-311.312 L -9.10747,-311.533 L -8.77733,-311.714 L -8.42705,-311.853 L -8.06213,-311.947
 L -7.68837,-311.994 L -7.31161,-311.994 L -6.93785,-311.947 L -6.57294,-311.853 L -6.22266,-311.714 L -5.89252,-311.533
 L -5.58772,-311.312 L -5.31308,-311.054 L -5.07294,-310.763 L -4.87108,-310.445 L -4.71066,-310.104 L -4.59424,-309.746
 L -4.52365,-309.376 L -4.5,-309 L -4.52365,-308.624 L -4.59424,-308.254 L -4.71066,-307.896 L -4.87108,-307.555
 L -5.07294,-307.237 L -5.31308,-306.946 L -5.58772,-306.688 L -5.89252,-306.467 L -6.22266,-306.286 L -6.57294,-306.147
 L -6.93785,-306.053 L -7.31161,-306.006 z
M 37.3116,-306.006 L 36.9379,-306.053 L 36.5729,-306.147 L 36.2227,-306.286 L 35.8925,-306.467 L 35.5877,-306.688
 L 35.3131,-306.946 L 35.0729,-307.237 L 34.8711,-307.555 L 34.7107,-307.896 L 34.5942,-308.254 L 34.5237,-308.624
 L 34.5,-309 L 34.5237,-309.376 L 34.5942,-309.746 L 34.7107,-310.104 L 34.8711,-310.445 L 35.0729,-310.763
 L 35.3131,-311.054 L 35.5877,-311.312 L 35.8925,-311.533 L 36.2227,-311.714 L 36.5729,-311.853 L 36.9379,-311.947
 L 37.3116,-311.994 L 37.6884,-311.994 L 38.0621,-311.947 L 38.427,-311.853 L 38.7773,-311.714 L 39.1075,-311.533
 L 39.4123,-311.312 L 39.6869,-311.054 L 39.927,-310.763 L 40.1289,-310.445 L 40.2893,-310.104 L 40.4057,-309.746
 L 40.4763,-309.376 L 40.5,-309 L 40.4763,-308.624 L 40.4057,-308.254 L 40.2893,-307.896 L 40.1289,-307.555
 L 39.927,-307.237 L 39.6869,-306.946 L 39.4123,-306.688 L 39.1075,-306.467 L 38.7773,-306.286 L 38.427,-306.147
 L 38.0621,-306.053 L 37.6884,-306.006 z
M 22.3116,-306.006 L 21.9379,-306.053 L 21.5729,-306.147 L 21.2227,-306.286 L 20.8925,-306.467 L 20.5877,-306.688
 L 20.3131,-306.946 L 20.0729,-307.237 L 19.8711,-307.555 L 19.7107,-307.896 L 19.5942,-308.254 L 19.5237,-308.624
 L 19.5,-309 L 19.5237,-309.376 L 19.5942,-309.746 L 19.7107,-310.104 L 19.8711,-310.445 L 20.0729,-310.763
 L 20.3131,-311.054 L 20.5877,-311.312 L 20.8925,-311.533 L 21.2227,-311.714 L 21.5729,-311.853 L 21.9379,-311.947
 L 22.3116,-311.994 L 22.6884,-311.994 L 23.0621,-311.947 L 23.427,-311.853 L 23.7773,-311.714 L 24.1075,-311.533
 L 24.4123,-311.312 L 24.6869,-311.054 L 24.927,-310.763 L 25.1289,-310.445 L 25.2893,-310.104 L 25.4057,-309.746
 L 25.4763,-309.376 L 25.5,-309 L 25.4763,-308.624 L 25.4057,-308.254 L 25.2893,-307.896 L 25.1289,-307.555
 L 24.927,-307.237 L 24.6869,-306.946 L 24.4123,-306.688 L 24.1075,-306.467 L 23.7773,-306.286 L 23.427,-306.147
 L 23.0621,-306.053 L 22.6884,-306.006 z
M -22.6884,-306.006 L -23.0621,-306.053 L -23.427,-306.147 L -23.7773,-306.286 L -24.1075,-306.467 L -24.4123,-306.688
 L -24.6869,-306.946 L -24.927,-307.237 L -25.1289,-307.555 L -25.2893,-307.896 L -25.4057,-308.254 L -25.4763,-308.624
 L -25.5,-309 L -25.4763,-309.376 L -25.4057,-309.746 L -25.2893,-310.104 L -25.1289,-310.445 L -24.927,-310.763
 L -24.6869,-311.054 L -24.4123,-311.312 L -24.1075,-311.533 L -23.7773,-311.714 L -23.427,-311.853 L -23.0621,-311.947
 L -22.6884,-311.994 L -22.3116,-311.994 L -21.9379,-311.947 L -21.5729,-311.853 L -21.2227,-311.714 L -20.8925,-311.533
 L -20.5877,-311.312 L -20.3131,-311.054 L -20.0729,-310.763 L -19.8711,-310.445 L -19.7107,-310.104 L -19.5942,-309.746
 L -19.5237,-309.376 L -19.5,-309 L -19.5237,-308.624 L -19.5942,-308.254 L -19.7107,-307.896 L -19.8711,-307.555
 L -20.0729,-307.237 L -20.3131,-306.946 L -20.5877,-306.688 L -20.8925,-306.467 L -21.2227,-306.286 L -21.5729,-306.147
 L -21.9379,-306.053 L -22.3116,-306.006 z
M -37.6884,-306.006 L -38.0621,-306.053 L -38.427,-306.147 L -38.7773,-306.286 L -39.1075,-306.467 L -39.4123,-306.688
 L -39.6869,-306.946 L -39.927,-307.237 L -40.1289,-307.555 L -40.2893,-307.896 L -40.4057,-308.254 L -40.4763,-308.624
 L -40.5,-309 L -40.4763,-309.376 L -40.4057,-309.746 L -40.2893,-310.104 L -40.1289,-310.445 L -39.927,-310.763
 L -39.6869,-311.054 L -39.4123,-311.312 L -39.1075,-311.533 L -38.7773,-311.714 L -38.427,-311.853 L -38.0621,-311.947
 L -37.6884,-311.994 L -37.3116,-311.994 L -36.9379,-311.947 L -36.5729,-311.853 L -36.2227,-311.714 L -35.8925,-311.533
 L -35.5877,-311.312 L -35.3131,-311.054 L -35.0729,-310.763 L -34.8711,-310.445 L -34.7107,-310.104 L -34.5942,-309.746
 L -34.5237,-309.376 L -34.5,-309 L -34.5237,-308.624 L -34.5942,-308.254 L -34.7107,-307.896 L -34.8711,-307.555
 L -35.0729,-307.237 L -35.3131,-306.946 L -35.5877,-306.688 L -35.8925,-306.467 L -36.2227,-306.286 L -36.5729,-306.147
 L -36.9379,-306.053 L -37.3116,-306.006 z
M 7.31161,-306.006 L 6.93785,-306.053 L 6.57294,-306.147 L 6.22266,-306.286 L 5.89252,-306.467 L 5.58772,-306.688
 L 5.31308,-306.946 L 5.07294,-307.237 L 4.87108,-307.555 L 4.71066,-307.896 L 4.59424,-308.254 L 4.52365,-308.624
 L 4.5,-309 L 4.52365,-309.376 L 4.59424,-309.746 L 4.71066,-310.104 L 4.87108,-310.445 L 5.07294,-310.763
 L 5.31308,-311.054 L 5.58772,-311.312 L 5.89252,-311.533 L 6.22266,-311.714 L 6.57294,-311.853 L 6.93785,-311.947
 L 7.31161,-311.994 L 7.68837,-311.994 L 8.06213,-311.947 L 8.42705,-311.853 L 8.77733,-311.714 L 9.10747,-311.533
 L 9.41226,-311.312 L 9.6869,-311.054 L 9.92705,-310.763 L 10.1289,-310.445 L 10.2893,-310.104 L 10.4057,-309.746
 L 10.4763,-309.376 L 10.5,-309 L 10.4763,-308.624 L 10.4057,-308.254 L 10.2893,-307.896 L 10.1289,-307.555
 L 9.92705,-307.237 L 9.6869,-306.946 L 9.41226,-306.688 L 9.10747,-306.467 L 8.77733,-306.286 L 8.42705,-306.147
 L 8.06213,-306.053 L 7.68837,-306.006 z
M 40.4369,-248.089 L 41.0451,-248.245 L 41.6289,-248.476 L 42.1791,-248.778 L 42.6871,-249.147 L 43.1448,-249.577
 L 43.5451,-250.061 L 43.8815,-250.591 L 44.1489,-251.159 L 44.3429,-251.757 L 44.4606,-252.373 L 44.5,-253
 L 44.5,-287 L 44.4606,-287.627 L 44.3429,-288.243 L 44.1489,-288.841 L 43.8815,-289.409 L 43.5451,-289.939
 L 43.1448,-290.423 L 42.6871,-290.853 L 42.1791,-291.222 L 41.6289,-291.524 L 41.0451,-291.755 L 40.4369,-291.911
 L 39.8139,-291.99 L -39.8139,-291.99 L -40.4369,-291.911 L -41.0451,-291.755 L -41.6289,-291.524 L -42.1791,-291.222
 L -42.6871,-290.853 L -43.1448,-290.423 L -43.5451,-289.939 L -43.8815,-289.409 L -44.1489,-288.841 L -44.3429,-288.243
 L -44.4606,-287.627 L -44.5,-287 L -44.5,-253 L -44.4606,-252.373 L -44.3429,-251.757 L -44.1489,-251.159
 L -43.8815,-250.591 L -43.5451,-250.061 L -43.1448,-249.577 L -42.6871,-249.147 L -42.1791,-248.778 L -41.6289,-248.476
 L -41.0451,-248.245 L -40.4369,-248.089 L -39.8139,-248.01 L 39.8139,-248.01 z
M -22.6884,-282.006 L -23.0621,-282.053 L -23.427,-282.147 L -23.7773,-282.286 L -24.1075,-282.467 L -24.4123,-282.688
 L -24.6869,-282.946 L -24.927,-283.237 L -25.1289,-283.555 L -25.2893,-283.896 L -25.4057,-284.254 L -25.4763,-284.624
 L -25.5,-285 L -25.4763,-285.376 L -25.4057,-285.746 L -25.2893,-286.104 L -25.1289,-286.445 L -24.927,-286.763
 L -24.6869,-287.054 L -24.4123,-287.312 L -24.1075,-287.533 L -23.7773,-287.714 L -23.427,-287.853 L -23.0621,-287.947
 L -22.6884,-287.994 L -22.3116,-287.994 L -21.9379,-287.947 L -21.5729,-287.853 L -21.2227,-287.714 L -20.8925,-287.533
 L -20.5877,-287.312 L -20.3131,-287.054 L -20.0729,-286.763 L -19.8711,-286.445 L -19.7107,-286.104 L -19.5942,-285.746
 L -19.5237,-285.376 L -19.5,-285 L -19.5237,-284.624 L -19.5942,-284.254 L -19.7107,-283.896 L -19.8711,-283.555
 L -20.0729,-283.237 L -20.3131,-282.946 L -20.5877,-282.688 L -20.8925,-282.467 L -21.2227,-282.286 L -21.5729,-282.147
 L -21.9379,-282.053 L -22.3116,-282.006 z
M -37.6884,-282.006 L -38.0621,-282.053 L -38.427,-282.147 L -38.7773,-282.286 L -39.1075,-282.467 L -39.4123,-282.688
 L -39.6869,-282.946 L -39.927,-283.237 L -40.1289,-283.555 L -40.2893,-283.896 L -40.4057,-284.254 L -40.4763,-284.624
 L -40.5,-285 L -40.4763,-285.376 L -40.4057,-285.746 L -40.2893,-286.104 L -40.1289,-286.445 L -39.927,-286.763
 L -39.6869,-287.054 L -39.4123,-287.312 L -39.1075,-287.533 L -38.7773,-287.714 L -38.427,-287.853 L -38.0621,-287.947
 L -37.6884,-287.994 L -37.3116,-287.994 L -36.9379,-287.947 L -36.5729,-287.853 L -36.2227,-287.714 L -35.8925,-287.533
 L -35.5877,-287.312 L -35.3131,-287.054 L -35.0729,-286.763 L -34.8711,-286.445 L -34.7107,-286.104 L -34.5942,-285.746
 L -34.5237,-285.376 L -34.5,-285 L -34.5237,-284.624 L -34.5942,-284.254 L -34.7107,-283.896 L -34.8711,-283.555
 L -35.0729,-283.237 L -35.3131,-282.946 L -35.5877,-282.688 L -35.8925,-282.467 L -36.2227,-282.286 L -36.5729,-282.147
 L -36.9379,-282.053 L -37.3116,-282.006 z
M -7.68837,-282.006 L -8.06213,-282.053 L -8.42705,-282.147 L -8.77733,-282.286 L -9.10747,-282.467 L -9.41226,-282.688
 L -9.6869,-282.946 L -9.92705,-283.237 L -10.1289,-283.555 L -10.2893,-283.896 L -10.4057,-284.254 L -10.4763,-284.624
 L -10.5,-285 L -10.4763,-285.376 L -10.4057,-285.746 L -10.2893,-286.104 L -10.1289,-286.445 L -9.92705,-286.763
 L -9.6869,-287.054 L -9.41226,-287.312 L -9.10747,-287.533 L -8.77733,-287.714 L -8.42705,-287.853 L -8.06213,-287.947
 L -7.68837,-287.994 L -7.31161,-287.994 L -6.93785,-287.947 L -6.57294,-287.853 L -6.22266,-287.714 L -5.89252,-287.533
 L -5.58772,-287.312 L -5.31308,-287.054 L -5.07294,-286.763 L -4.87108,-286.445 L -4.71066,-286.104 L -4.59424,-285.746
 L -4.52365,-285.376 L -4.5,-285 L -4.52365,-284.624 L -4.59424,-284.254 L -4.71066,-283.896 L -4.87108,-283.555
 L -5.07294,-283.237 L -5.31308,-282.946 L -5.58772,-282.688 L -5.89252,-282.467 L -6.22266,-282.286 L -6.57294,-282.147
 L -6.93785,-282.053 L -7.31161,-282.006 z
M 37.3116,-282.006 L 36.9379,-282.053 L 36.5729,-282.147 L 36.2227,-282.286 L 35.8925,-282.467 L 35.5877,-282.688
 L 35.3131,-282.946 L 35.0729,-283.237 L 34.8711,-283.555 L 34.7107,-283.896 L 34.5942,-284.254 L 34.5237,-284.624
 L 34.5,-285 L 34.5237,-285.376 L 34.5942,-285.746 L 34.7107,-286.104 L 34.8711,-286.445 L 35.0729,-286.763
 L 35.3131,-287.054 L 35.5877,-287.312 L 35.8925,-287.533 L 36.2227,-287.714 L 36.5729,-287.853 L 36.9379,-287.947
 L 37.3116,-287.994 L 37.6884,-287.994 L 38.0621,-287.947 L 38.427,-287.853 L 38.7773,-287.714 L 39.1075,-287.533
 L 39.4123,-287.312 L 39.6869,-287.054 L 39.927,-286.763 L 40.1289,-286.445 L 40.2893,-286.104 L 40.4057,-285.746
 L 40.4763,-285.376 L 40.5,-285 L 40.4763,-284.624 L 40.4057,-284.254 L 40.2893,-283.896 L 40.1289,-283.555
 L 39.927,-283.237 L 39.6869,-282.946 L 39.4123,-282.688 L 39.1075,-282.467 L 38.7773,-282.286 L 38.427,-282.147
 L 38.0621,-282.053 L 37.6884,-282.006 z
M 7.31161,-282.006 L 6.93785,-282.053 L 6.57294,-282.147 L 6.22266,-282.286 L 5.89252,-282.467 L 5.58772,-282.688
 L 5.31308,-282.946 L 5.07294,-283.237 L 4.87108,-283.555 L 4.71066,-283.896 L 4.59424,-284.254 L 4.52365,-284.624
 L 4.5,-285 L 4.52365,-285.376 L 4.59424,-285.746 L 4.71066,-286.104 L 4.87108,-286.445 L 5.07294,-286.763
 L 5.31308,-287.054 L 5.58772,-287.312 L 5.89252,-287.533 L 6.22266,-287.714 L 6.57294,-287.853 L 6.93785,-287.947
 L 7.31161,-287.994 L 7.68837,-287.994 L 8.06213,-287.947 L 8.42705,-287.853 L 8.77733,-287.714 L 9.10747,-287.533
 L 9.41226,-287.312 L 9.6869,-287.054 L 9.92705,-286.763 L 10.1289,-286.445 L 10.2893,-286.104 L 10.4057,-285.746
 L 10.4763,-285.376 L 10.5,-285 L 10.4763,-284.624 L 10.4057,-284.254 L 10.2893,-283.896 L 10.1289,-283.555
 L 9.92705,-283.237 L 9.6869,-282.946 L 9.41226,-282.688 L 9.10747,-282.467 L 8.77733,-282.286 L 8.42705,-282.147
 L 8.06213,-282.053 L 7.68837,-282.006 z
M 22.3116,-282.006 L 21.9379,-282.053 L 21.5729,-282.147 L 21.2227,-282.286 L 20.8925,-282.467 L 20.5877,-282.688
 L 20.3131,-282.946 L 20.0729,-283.237 L 19.8711,-283.555 L 19.7107,-283.896 L 19.5942,-284.254 L 19.5237,-284.624
 L 19.5,-285 L 19.5237,-285.376 L 19.5942,-285.746 L 19.7107,-286.104 L 19.8711,-286.445 L 20.0729,-286.763
 L 20.3131,-287.054 L 20.5877,-287.312 L 20.8925,-287.533 L 21.2227,-287.714 L 21.5729,-287.853 L 21.9379,-287.947
 L 22.3116,-287.994 L 22.6884,-287.994 L 23.0621,-287.947 L 23.427,-287.853 L 23.7773,-287.714 L 24.1075,-287.533
 L 24.4123,-287.312 L 24.6869,-287.054 L 24.927,-286.763 L 25.1289,-286.445 L 25.2893,-286.104 L 25.4057,-285.746
 L 25.4763,-285.376 L 25.5,-285 L 25.4763,-284.624 L 25.4057,-284.254 L 25.2893,-283.896 L 25.1289,-283.555
 L 24.927,-283.237 L 24.6869,-282.946 L 24.4123,-282.688 L 24.1075,-282.467 L 23.7773,-282.286 L 23.427,-282.147
 L 23.0621,-282.053 L 22.6884,-282.006 z
M 37.3116,-267.006 L 36.9379,-267.053 L 36.5729,-267.147 L 36.2227,-267.286 L 35.8925,-267.467 L 35.5877,-267.688
 L 35.3131,-267.946 L 35.0729,-268.237 L 34.8711,-268.555 L 34.7107,-268.896 L 34.5942,-269.254 L 34.5237,-269.624
 L 34.5,-270 L 34.5237,-270.376 L 34.5942,-270.746 L 34.7107,-271.104 L 34.8711,-271.445 L 35.0729,-271.763
 L 35.3131,-272.054 L 35.5877,-272.312 L 35.8925,-272.533 L 36.2227,-272.714 L 36.5729,-272.853 L 36.9379,-272.947
 L 37.3116,-272.994 L 37.6884,-272.994 L 38.0621,-272.947 L 38.427,-272.853 L 38.7773,-272.714 L 39.1075,-272.533
 L 39.4123,-272.312 L 39.6869,-272.054 L 39.927,-271.763 L 40.1289,-271.445 L 40.2893,-271.104 L 40.4057,-270.746
 L 40.4763,-270.376 L 40.5,-270 L 40.4763,-269.624 L 40.4057,-269.254 L 40.2893,-268.896 L 40.1289,-268.555
 L 39.927,-268.237 L 39.6869,-267.946 L 39.4123,-267.688 L 39.1075,-267.467 L 38.7773,-267.286 L 38.427,-267.147
 L 38.0621,-267.053 L 37.6884,-267.006 z
M 22.3116,-267.006 L 21.9379,-267.053 L 21.5729,-267.147 L 21.2227,-267.286 L 20.8925,-267.467 L 20.5877,-267.688
 L 20.3131,-267.946 L 20.0729,-268.237 L 19.8711,-268.555 L 19.7107,-268.896 L 19.5942,-269.254 L 19.5237,-269.624
 L 19.5,-270 L 19.5237,-270.376 L 19.5942,-270.746 L 19.7107,-271.104 L 19.8711,-271.445 L 20.0729,-271.763
 L 20.3131,-272.054 L 20.5877,-272.312 L 20.8925,-272.533 L 21.2227,-272.714 L 21.5729,-272.853 L 21.9379,-272.947
 L 22.3116,-272.994 L 22.6884,-272.994 L 23.0621,-272.947 L 23.427,-272.853 L 23.7773,-272.714 L 24.1075,-272.533
 L 24.4123,-272.312 L 24.6869,-272.054 L 24.927,-271.763 L 25.1289,-271.445 L 25.2893,-271.104 L 25.4057,-270.746
 L 25.4763,-270.376 L 25.5,-270 L 25.4763,-269.624 L 25.4057,-269.254 L 25.2893,-268.896 L 25.1289,-268.555
 L 24.927,-268.237 L 24.6869,-267.946 L 24.4123,-267.688 L 24.1075,-267.467 L 23.7773,-267.286 L 23.427,-267.147
 L 23.0621,-267.053 L 22.6884,-267.006 z
M -22.6884,-267.006 L -23.0621,-267.053 L -23.427,-267.147 L -23.7773,-267.286 L -24.1075,-267.467 L -24.4123,-267.688
 L -24.6869,-267.946 L -24.927,-268.237 L -25.1289,-268.555 L -25.2893,-268.896 L -25.4057,-269.254 L -25.4763,-269.624
 L -25.5,-270 L -25.4763,-270.376 L -25.4057,-270.746 L -25.2893,-271.104 L -25.1289,-271.445 L -24.927,-271.763
 L -24.6869,-272.054 L -24.4123,-272.312 L -24.1075,-272.533 L -23.7773,-272.714 L -23.427,-272.853 L -23.0621,-272.947
 L -22.6884,-272.994 L -22.3116,-272.994 L -21.9379,-272.947 L -21.5729,-272.853 L -21.2227,-272.714 L -20.8925,-272.533
 L -20.5877,-272.312 L -20.3131,-272.054 L -20.0729,-271.763 L -19.8711,-271.445 L -19.7107,-271.104 L -19.5942,-270.746
 L -19.5237,-270.376 L -19.5,-270 L -19.5237,-269.624 L -19.5942,-269.254 L -19.7107,-268.896 L -19.8711,-268.555
 L -20.0729,-268.237 L -20.3131,-267.946 L -20.5877,-267.688 L -20.8925,-267.467 L -21.2227,-267.286 L -21.5729,-267.147
 L -21.9379,-267.053 L -22.3116,-267.006 z
M 7.31161,-267.006 L 6.93785,-267.053 L 6.57294,-267.147 L 6.22266,-267.286 L 5.89252,-267.467 L 5.58772,-267.688
 L 5.31308,-267.946 L 5.07294,-268.237 L 4.87108,-268.555 L 4.71066,-268.896 L 4.59424,-269.254 L 4.52365,-269.624
 L 4.5,-270 L 4.52365,-270.376 L 4.59424,-270.746 L 4.71066,-271.104 L 4.87108,-271.445 L 5.07294,-271.763
 L 5.31308,-272.054 L 5.58772,-272.312 L 5.89252,-272.533 L 6.22266,-272.714 L 6.57294,-272.853 L 6.93785,-272.947
 L 7.31161,-272.994 L 7.68837,-272.994 L 8.06213,-272.947 L 8.42705,-272.853 L 8.77733,-272.714 L 9.10747,-272.533
 L 9.41226,-272.312 L 9.6869,-272.054 L 9.92705,-271.763 L 10.1289,-271.445 L 10.2893,-271.104 L 10.4057,-270.746
 L 10.4763,-270.376 L 10.5,-270 L 10.4763,-269.624 L 10.4057,-269.254 L 10.2893,-268.896 L 10.1289,-268.555
 L 9.92705,-268.237 L 9.6869,-267.946 L 9.41226,-267.688 L 9.10747,-267.467 L 8.77733,-267.286 L 8.42705,-267.147
 L 8.06213,-267.053 L 7.68837,-267.006 z
M -37.6884,-267.006 L -38.0621,-267.053 L -38.427,-267.147 L -38.7773,-267.286 L -39.1075,-267.467 L -39.4123,-267.688
 L -39.6869,-267.946 L -39.927,-268.237 L -40.1289,-268.555 L -40.2893,-268.896 L -40.4057,-269.254 L -40.4763,-269.624
 L -40.5,-270 L -40.4763,-270.376 L -40.4057,-270.746 L -40.2893,-271.104 L -40.1289,-271.445 L -39.927,-271.763
 L -39.6869,-272.054 L -39.4123,-272.312 L -39.1075,-272.533 L -38.7773,-272.714 L -38.427,-272.853 L -38.0621,-272.947
 L -37.6884,-272.994 L -37.3116,-272.994 L -36.9379,-272.947 L -36.5729,-272.853 L -36.2227,-272.714 L -35.8925,-272.533
 L -35.5877,-272.312 L -35.3131,-272.054 L -35.0729,-271.763 L -34.8711,-271.445 L -34.7107,-271.104 L -34.5942,-270.746
 L -34.5237,-270.376 L -34.5,-270 L -34.5237,-269.624 L -34.5942,-269.254 L -34.7107,-268.896 L -34.8711,-268.555
 L -35.0729,-268.237 L -35.3131,-267.946 L -35.5877,-267.688 L -35.8925,-267.467 L -36.2227,-267.286 L -36.5729,-267.147
 L -36.9379,-267.053 L -37.3116,-267.006 z
M -7.68837,-267.006 L -8.06213,-267.053 L -8.42705,-267.147 L -8.77733,-267.286 L -9.10747,-267.467 L -9.41226,-267.688
 L -9.6869,-267.946 L -9.92705,-268.237 L -10.1289,-268.555 L -10.2893,-268.896 L -10.4057,-269.254 L -10.4763,-269.624
 L -10.5,-270 L -10.4763,-270.376 L -10.4057,-270.746 L -10.2893,-271.104 L -10.1289,-271.445 L -9.92705,-271.763
 L -9.6869,-272.054 L -9.41226,-272.312 L -9.10747,-272.533 L -8.77733,-272.714 L -8.42705,-272.853 L -8.06213,-272.947
 L -7.68837,-272.994 L -7.31161,-272.994 L -6.93785,-272.947 L -6.57294,-272.853 L -6.22266,-272.714 L -5.89252,-272.533
 L -5.58772,-272.312 L -5.31308,-272.054 L -5.07294,-271.763 L -4.87108,-271.445 L -4.71066,-271.104 L -4.59424,-270.746
 L -4.52365,-270.376 L -4.5,-270 L -4.52365,-269.624 L -4.59424,-269.254 L -4.71066,-268.896 L -4.87108,-268.555
 L -5.07294,-268.237 L -5.31308,-267.946 L -5.58772,-267.688 L -5.89252,-267.467 L -6.22266,-267.286 L -6.57294,-267.147
 L -6.93785,-267.053 L -7.31161,-267.006 z
M 7.31161,-252.006 L 6.93785,-252.053 L 6.57294,-252.147 L 6.22266,-252.286 L 5.89252,-252.467 L 5.58772,-252.688
 L 5.31308,-252.946 L 5.07294,-253.237 L 4.87108,-253.555 L 4.71066,-253.896 L 4.59424,-254.254 L 4.52365,-254.624
 L 4.5,-255 L 4.52365,-255.376 L 4.59424,-255.746 L 4.71066,-256.104 L 4.87108,-256.445 L 5.07294,-256.763
 L 5.31308,-257.054 L 5.58772,-257.312 L 5.89252,-257.533 L 6.22266,-257.714 L 6.57294,-257.853 L 6.93785,-257.947
 L 7.31161,-257.994 L 7.68837,-257.994 L 8.06213,-257.947 L 8.42705,-257.853 L 8.77733,-257.714 L 9.10747,-257.533
 L 9.41226,-257.312 L 9.6869,-257.054 L 9.92705,-256.763 L 10.1289,-256.445 L 10.2893,-256.104 L 10.4057,-255.746
 L 10.4763,-255.376 L 10.5,-255 L 10.4763,-254.624 L 10.4057,-254.254 L 10.2893,-253.896 L 10.1289,-253.555
 L 9.92705,-253.237 L 9.6869,-252.946 L 9.41226,-252.688 L 9.10747,-252.467 L 8.77733,-252.286 L 8.42705,-252.147
 L 8.06213,-252.053 L 7.68837,-252.006 z
M 37.3116,-252.006 L 36.9379,-252.053 L 36.5729,-252.147 L 36.2227,-252.286 L 35.8925,-252.467 L 35.5877,-252.688
 L 35.3131,-252.946 L 35.0729,-253.237 L 34.8711,-253.555 L 34.7107,-253.896 L 34.5942,-254.254 L 34.5237,-254.624
 L 34.5,-255 L 34.5237,-255.376 L 34.5942,-255.746 L 34.7107,-256.104 L 34.8711,-256.445 L 35.0729,-256.763
 L 35.3131,-257.054 L 35.5877,-257.312 L 35.8925,-257.533 L 36.2227,-257.714 L 36.5729,-257.853 L 36.9379,-257.947
 L 37.3116,-257.994 L 37.6884,-257.994 L 38.0621,-257.947 L 38.427,-257.853 L 38.7773,-257.714 L 39.1075,-257.533
 L 39.4123,-257.312 L 39.6869,-257.054 L 39.927,-256.763 L 40.1289,-256.445 L 40.2893,-256.104 L 40.4057,-255.746
 L 40.4763,-255.376 L 40.5,-255 L 40.4763,-254.624 L 40.4057,-254.254 L 40.2893,-253.896 L 40.1289,-253.555
 L 39.927,-253.237 L 39.6869,-252.946 L 39.4123,-252.688 L 39.1075,-252.467 L 38.7773,-252.286 L 38.427,-252.147
 L 38.0621,-252.053 L 37.6884,-252.006 z
M 22.3116,-252.006 L 21.9379,-252.053 L 21.5729,-252.147 L 21.2227,-252.286 L 20.8925,-252.467 L 20.5877,-252.688
 L 20.3131,-252.946 L 20.0729,-253.237 L 19.8711,-253.555 L 19.7107,-253.896 L 19.5942,-254.254 L 19.5237,-254.624
 L 19.5,-255 L 19.5237,-255.376 L 19.5942,-255.746 L 19.7107,-256.104 L 19.8711,-256.445 L 20.0729,-256.763
 L 20.3131,-257.054 L 20.5877,-257.312 L 20.8925,-257.533 L 21.2227,-257.714 L 21.5729,-257.853 L 21.9379,-257.947
 L 22.3116,-257.994 L 22.6884,-257.994 L 23.0621,-257.947 L 23.427,-257.853 L 23.7773,-257.714 L 24.1075,-257.533
 L 24.4123,-257.312 L 24.6869,-257.054 L 24.927,-256.763 L 25.1289,-256.445 L 25.2893,-256.104 L 25.4057,-255.746
 L 25.4763,-255.376 L 25.5,-255 L 25.4763,-254.624 L 25.4057,-254.254 L 25.2893,-253.896 L 25.1289,-253.555
 L 24.927,-253.237 L 24.6869,-252.946 L 24.4123,-252.688 L 24.1075,-252.467 L 23.7773,-252.286 L 23.427,-252.147
 L 23.0621,-252.053 L 22.6884,-252.006 z
M -22.6884,-252.006 L -23.0621,-252.053 L -23.427,-252.147 L -23.7773,-252.286 L -24.1075,-252.467 L -24.4123,-252.688
 L -24.6869,-252.946 L -24.927,-253.237 L -25.1289,-253.555 L -25.2893,-253.896 L -25.4057,-254.254 L -25.4763,-254.624
 L -25.5,-255 L -25.4763,-255.376 L -25.4057,-255.746 L -25.2893,-256.104 L -25.1289,-256.445 L -24.927,-256.763
 L -24.6869,-257.054 L -24.4123,-257.312 L -24.1075,-257.533 L -23.7773,-257.714 L -23.427,-257.853 L -23.0621,-257.947
 L -22.6884,-257.994 L -22.3116,-257.994 L -21.9379,-257.947 L -21.5729,-257.853 L -21.2227,-257.714 L -20.8925,-257.533
 L -20.5877,-257.312 L -20.3131,-257.054 L -20.0729,-256.763 L -19.8711,-256.445 L -19.7107,-256.104 L -19.5942,-255.746
 L -19.5237,-255.376 L -19.5,-255 L -19.5237,-254.624 L -19.5942,-254.254 L -19.7107,-253.896 L -19.8711,-253.555
 L -20.0729,-253.237 L -20.3131,-252.946 L -20.5877,-252.688 L -20.8925,-252.467 L -21.2227,-252.286 L -21.5729,-252.147
 L -21.9379,-252.053 L -22.3116,-252.006 z
M -37.6884,-252.006 L -38.0621,-252.053 L -38.427,-252.147 L -38.7773,-252.286 L -39.1075,-252.467 L -39.4123,-252.688
 L -39.6869,-252.946 L -39.927,-253.237 L -40.1289,-253.555 L -40.2893,-253.896 L -40.4057,-254.254 L -40.4763,-254.624
 L -40.5,-255 L -40.4763,-255.376 L -40.4057,-255.746 L -40.2893,-256.104 L -40.1289,-256.445 L -39.927,-256.763
 L -39.6869,-257.054 L -39.4123,-257.312 L -39.1075,-257.533 L -38.7773,-257.714 L -38.427,-257.853 L -38.0621,-257.947
 L -37.6884,-257.994 L -37.3116,-257.994 L -36.9379,-257.947 L -36.5729,-257.853 L -36.2227,-257.714 L -35.8925,-257.533
 L -35.5877,-257.312 L -35.3131,-257.054 L -35.0729,-256.763 L -34.8711,-256.445 L -34.7107,-256.104 L -34.5942,-255.746
 L -34.5237,-255.376 L -34.5,-255 L -34.5237,-254.624 L -34.5942,-254.254 L -34.7107,-253.896 L -34.8711,-253.555
 L -35.0729,-253.237 L -35.3131,-252.946 L -35.5877,-252.688 L -35.8925,-252.467 L -36.2227,-252.286 L -36.5729,-252.147
 L -36.9379,-252.053 L -37.3116,-252.006 z
M -7.68837,-252.006 L -8.06213,-252.053 L -8.42705,-252.147 L -8.77733,-252.286 L -9.10747,-252.467 L -9.41226,-252.688
 L -9.6869,-252.946 L -9.92705,-253.237 L -10.1289,-253.555 L -10.2893,-253.896 L -10.4057,-254.254 L -10.4763,-254.624
 L -10.5,-255 L -10.4763,-255.376 L -10.4057,-255.746 L -10.2893,-256.104 L -10.1289,-256.445 L -9.92705,-256.763
 L -9.6869,-257.054 L -9.41226,-257.312 L -9.10747,-257.533 L -8.77733,-257.714 L -8.42705,-257.853 L -8.06213,-257.947
 L -7.68837,-257.994 L -7.31161,-257.994 L -6.93785,-257.947 L -6.57294,-257.853 L -6.22266,-257.714 L -5.89252,-257.533
 L -5.58772,-257.312 L -5.31308,-257.054 L -5.07294,-256.763 L -4.87108,-256.445 L -4.71066,-256.104 L -4.59424,-255.746
 L -4.52365,-255.376 L -4.5,-255 L -4.52365,-254.624 L -4.59424,-254.254 L -4.71066,-253.896 L -4.87108,-253.555
 L -5.07294,-253.237 L -5.31308,-252.946 L -5.58772,-252.688 L -5.89252,-252.467 L -6.22266,-252.286 L -6.57294,-252.147
 L -6.93785,-252.053 L -7.31161,-252.006 z
" stroke="black" fill="lightgray" stroke-width="0.5"/>
</svg>
