<?xml version="1.0" standalone="no"?>
<!DOCTYPE svg PUBLIC "-//W3C//DTD SVG 1.1//EN" "http://www.w3.org/Graphics/SVG/1.1/DTD/svg11.dtd">
<svg width="164mm" height="62mm" viewBox="-82 -103 164 62" xmlns="http://www.w3.org/2000/svg" version="1.1">
<title>OpenSCAD Model</title>
<path d="
M 77.9369,-89.0886 L 78.5451,-89.2447 L 79.1289,-89.4759 L 79.6791,-89.7784 L 80.1871,-90.1474 L 80.6448,-90.5773
 L 81.0451,-91.0611 L 81.3815,-91.5912 L 81.6489,-92.1594 L 81.8429,-92.7566 L 81.9606,-93.3733 L 82,-94
 L 82,-98 L 81.9606,-98.6267 L 81.8429,-99.2434 L 81.6489,-99.8406 L 81.3815,-100.409 L 81.0451,-100.939
 L 80.6448,-101.423 L 80.1871,-101.853 L 79.6791,-102.222 L 79.1289,-102.524 L 78.5451,-102.755 L 77.9369,-102.911
 L 77.3139,-102.99 L -77.3139,-102.99 L -77.9369,-102.911 L -78.5451,-102.755 L -79.1289,-102.524 L -79.6791,-102.222
 L -80.1871,-101.853 L -80.6448,-101.423 L -81.0451,-100.939 L -81.3815,-100.409 L -81.6489,-99.8406 L -81.8429,-99.2434
 L -81.9606,-98.6267 L -82,-98 L -82,-94 L -81.9606,-93.3733 L -81.8429,-92.7566 L -81.6489,-92.1594
 L -81.3815,-91.5912 L -81.0451,-91.0611 L -80.6448,-90.5773 L -80.1871,-90.1474 L -79.6791,-89.7784 L -79.1289,-89.4759
 L -78.5451,-89.2447 L -77.9369,-89.0886 L -77.3139,-89.0099 L 77.3139,-89.0099 z
M -60.1884,-93.0059 L -60.5621,-93.0531 L -60.927,-93.1468 L -61.2773,-93.2855 L -61.6075,-93.467 L -61.9123,-93.6885
 L -62.1869,-93.9464 L -62.427,-94.2366 L -62.6289,-94.5547 L -62.7893,-94.8956 L -62.9057,-95.2539 L -62.9763,-95.624
 L -63,-96 L -62.9763,-96.376 L -62.9057,-96.7461 L -62.7893,-97.1044 L -62.6289,-97.4453 L -62.427,-97.7634
 L -62.1869,-98.0536 L -61.9123,-98.3115 L -61.6075,-98.533 L -61.2773,-98.7145 L -60.927,-98.8532 L -60.5621,-98.9469
 L -60.1884,-98.9941 L -59.8116,-98.9941 L -59.4379,-98.9469 L -59.0729,-98.8532 L -58.7227,-98.7145 L -58.3925,-98.533
 L -58.0877,-98.3115 L -57.8131,-98.0536 L -57.5729,-97.7634 L -57.3711,-97.4453 L -57.2107,-97.1044 L -57.0942,-96.7461
 L -57.0237,-96.376 L -57,-96 L -57.0237,-95.624 L -57.0942,-95.2539 L -57.2107,-94.8956 L -57.3711,-94.5547
 L -57.5729,-94.2366 L -57.8131,-93.9464 L -58.0877,-93.6885 L -58.3925,-93.467 L -58.7227,-93.2855 L -59.0729,-93.1468
 L -59.4379,-93.0531 L -59.8116,-93.0059 z
M 59.8116,-93.0059 L 59.4379,-93.0531 L 59.0729,-93.1468 L 58.7227,-93.2855 L 58.3925,-93.467 L 58.0877,-93.6885
 L 57.8131,-93.9464 L 57.5729,-94.2366 L 57.3711,-94.5547 L 57.2107,-94.8956 L 57.0942,-95.2539 L 57.0237,-95.624
 L 57,-96 L 57.0237,-96.376 L 57.0942,-96.7461 L 57.2107,-97.1044 L 57.3711,-97.4453 L 57.5729,-97.7634
 L 57.8131,-98.0536 L 58.0877,-98.3115 L 58.3925,-98.533 L 58.7227,-98.7145 L 59.0729,-98.8532 L 59.4379,-98.9469
 L 59.8116,-98.9941 L 60.1884,-98.9941 L 60.5621,-98.9469 L 60.927,-98.8532 L 61.2773,-98.7145 L 61.6075,-98.533
 L 61.9123,-98.3115 L 62.1869,-98.0536 L 62.427,-97.7634 L 62.6289,-97.4453 L 62.7893,-97.1044 L 62.9057,-96.7461
 L 62.9763,-96.376 L 63,-96 L 62.9763,-95.624 L 62.9057,-95.2539 L 62.7893,-94.8956 L 62.6289,-94.5547
 L 62.427,-94.2366 L 62.1869,-93.9464 L 61.9123,-93.6885 L 61.6075,-93.467 L 61.2773,-93.2855 L 60.927,-93.1468
 L 60.5621,-93.0531 L 60.1884,-93.0059 z
M -0.18837,-93.0059 L -0.562134,-93.0531 L -0.927048,-93.1468 L -1.27733,-93.2855 L -1.60747,-93.467 L -1.91226,-93.6885
 L -2.1869,-93.9464 L -2.42705,-94.2366 L -2.62891,-94.5547 L -2.78932,-94.8956 L -2.90575,-95.2539 L -2.97633,-95.624
 L -3,-96 L -2.97633,-96.376 L -2.90575,-96.7461 L -2.78932,-97.1044 L -2.62891,-97.4453 L -2.42705,-97.7634
 L -2.1869,-98.0536 L -1.91226,-98.3115 L -1.60747,-98.533 L -1.27733,-98.7145 L -0.927048,-98.8532 L -0.562134,-98.9469
 L -0.18837,-98.9941 L 0.18837,-98.9941 L 0.562134,-98.9469 L 0.927048,-98.8532 L 1.27733,-98.7145 L 1.60747,-98.533
 L 1.91226,-98.3115 L 2.1869,-98.0536 L 2.42705,-97.7634 L 2.62891,-97.4453 L 2.78932,-97.1044 L 2.90575,-96.7461
 L 2.97633,-96.376 L 3,-96 L 2.97633,-95.624 L 2.90575,-95.2539 L 2.78932,-94.8956 L 2.62891,-94.5547
 L 2.42705,-94.2366 L 2.1869,-93.9464 L 1.91226,-93.6885 L 1.60747,-93.467 L 1.27733,-93.2855 L 0.927048,-93.1468
 L 0.562134,-93.0531 L 0.18837,-93.0059 z
M -75.1884,-93.0059 L -75.5621,-93.0531 L -75.927,-93.1468 L -76.2773,-93.2855 L -76.6075,-93.467 L -76.9123,-93.6885
 L -77.1869,-93.9464 L -77.427,-94.2366 L -77.6289,-94.5547 L -77.7893,-94.8956 L -77.9057,-95.2539 L -77.9763,-95.624
 L -78,-96 L -77.9763,-96.376 L -77.9057,-96.7461 L -77.7893,-97.1044 L -77.6289,-97.4453 L -77.427,-97.7634
 L -77.1869,-98.0536 L -76.9123,-98.3115 L -76.6075,-98.533 L -76.2773,-98.7145 L -75.927,-98.8532 L -75.5621,-98.9469
 L -75.1884,-98.9941 L -74.8116,-98.9941 L -74.4379,-98.9469 L -74.073,-98.8532 L -73.7227,-98.7145 L -73.3925,-98.533
 L -73.0877,-98.3115 L -72.8131,-98.0536 L -72.573,-97.7634 L -72.3711,-97.4453 L -72.2107,-97.1044 L -72.0943,-96.7461
 L -72.0237,-96.376 L -72,-96 L -72.0237,-95.624 L -72.0943,-95.2539 L -72.2107,-94.8956 L -72.3711,-94.5547
 L -72.573,-94.2366 L -72.8131,-93.9464 L -73.0877,-93.6885 L -73.3925,-93.467 L -73.7227,-93.2855 L -74.073,-93.1468
 L -74.4379,-93.0531 L -74.8116,-93.0059 z
M 29.8116,-93.0059 L 29.4379,-93.0531 L 29.0729,-93.1468 L 28.7227,-93.2855 L 28.3925,-93.467 L 28.0877,-93.6885
 L 27.8131,-93.9464 L 27.5729,-94.2366 L 27.3711,-94.5547 L 27.2107,-94.8956 L 27.0942,-95.2539 L 27.0237,-95.624
 L 27,-96 L 27.0237,-96.376 L 27.0942,-96.7461 L 27.2107,-97.1044 L 27.3711,-97.4453 L 27.5729,-97.7634
 L 27.8131,-98.0536 L 28.0877,-98.3115 L 28.3925,-98.533 L 28.7227,-98.7145 L 29.0729,-98.8532 L 29.4379,-98.9469
 L 29.8116,-98.9941 L 30.1884,-98.9941 L 30.5621,-98.9469 L 30.927,-98.8532 L 31.2773,-98.7145 L 31.6075,-98.533
 L 31.9123,-98.3115 L 32.1869,-98.0536 L 32.427,-97.7634 L 32.6289,-97.4453 L 32.7893,-97.1044 L 32.9057,-96.7461
 L 32.9763,-96.376 L 33,-96 L 32.9763,-95.624 L 32.9057,-95.2539 L 32.7893,-94.8956 L 32.6289,-94.5547
 L 32.427,-94.2366 L 32.1869,-93.9464 L 31.9123,-93.6885 L 31.6075,-93.467 L 31.2773,-93.2855 L 30.927,-93.1468
 L 30.5621,-93.0531 L 30.1884,-93.0059 z
M 14.8116,-93.0059 L 14.4379,-93.0531 L 14.0729,-93.1468 L 13.7227,-93.2855 L 13.3925,-93.467 L 13.0877,-93.6885
 L 12.8131,-93.9464 L 12.5729,-94.2366 L 12.3711,-94.5547 L 12.2107,-94.8956 L 12.0942,-95.2539 L 12.0237,-95.624
 L 12,-96 L 12.0237,-96.376 L 12.0942,-96.7461 L 12.2107,-97.1044 L 12.3711,-97.4453 L 12.5729,-97.7634
 L 12.8131,-98.0536 L 13.0877,-98.3115 L 13.3925,-98.533 L 13.7227,-98.7145 L 14.0729,-98.8532 L 14.4379,-98.9469
 L 14.8116,-98.9941 L 15.1884,-98.9941 L 15.5621,-98.9469 L 15.927,-98.8532 L 16.2773,-98.7145 L 16.6075,-98.533
 L 16.9123,-98.3115 L 17.1869,-98.0536 L 17.427,-97.7634 L 17.6289,-97.4453 L 17.7893,-97.1044 L 17.9057,-96.7461
 L 17.9763,-96.376 L 18,-96 L 17.9763,-95.624 L 17.9057,-95.2539 L 17.7893,-94.8956 L 17.6289,-94.5547
 L 17.427,-94.2366 L 17.1869,-93.9464 L 16.9123,-93.6885 L 16.6075,-93.467 L 16.2773,-93.2855 L 15.927,-93.1468
 L 15.5621,-93.0531 L 15.1884,-93.0059 z
M 44.8116,-93.0059 L 44.4379,-93.0531 L 44.0729,-93.1468 L 43.7227,-93.2855 L 43.3925,-93.467 L 43.0877,-93.6885
 L 42.8131,-93.9464 L 42.5729,-94.2366 L 42.3711,-94.5547 L 42.2107,-94.8956 L 42.0942,-95.2539 L 42.0237,-95.624
 L 42,-96 L 42.0237,-96.376 L 42.0942,-96.7461 L 42.2107,-97.1044 L 42.3711,-97.4453 L 42.5729,-97.7634
 L 42.8131,-98.0536 L 43.0877,-98.3115 L 43.3925,-98.533 L 43.7227,-98.7145 L 44.0729,-98.8532 L 44.4379,-98.9469
 L 44.8116,-98.9941 L 45.1884,-98.9941 L 45.5621,-98.9469 L 45.927,-98.8532 L 46.2773,-98.7145 L 46.6075,-98.533
 L 46.9123,-98.3115 L 47.1869,-98.0536 L 47.427,-97.7634 L 47.6289,-97.4453 L 47.7893,-97.1044 L 47.9057,-96.7461
 L 47.9763,-96.376 L 48,-96 L 47.9763,-95.624 L 47.9057,-95.2539 L 47.7893,-94.8956 L 47.6289,-94.5547
 L 47.427,-94.2366 L 47.1869,-93.9464 L 46.9123,-93.6885 L 46.6075,-93.467 L 46.2773,-93.2855 L 45.927,-93.1468
 L 45.5621,-93.0531 L 45.1884,-93.0059 z
M 74.8116,-93.0059 L 74.4379,-93.0531 L 74.073,-93.1468 L 73.7227,-93.2855 L 73.3925,-93.467 L 73.0877,-93.6885
 L 72.8131,-93.9464 L 72.573,-94.2366 L 72.3711,-94.5547 L 72.2107,-94.8956 L 72.0943,-95.2539 L 72.0237,-95.624
 L 72,-96 L 72.0237,-96.376 L 72.0943,-96.7461 L 72.2107,-97.1044 L 72.3711,-97.4453 L 72.573,-97.7634
 L 72.8131,-98.0536 L 73.0877,-98.3115 L 73.3925,-98.533 L 73.7227,-98.7145 L 74.073,-98.8532 L 74.4379,-98.9469
 L 74.8116,-98.9941 L 75.1884,-98.9941 L 75.5621,-98.9469 L 75.927,-98.8532 L 76.2773,-98.7145 L 76.6075,-98.533
 L 76.9123,-98.3115 L 77.1869,-98.0536 L 77.427,-97.7634 L 77.6289,-97.4453 L 77.7893,-97.1044 L 77.9057,-96.7461
 L 77.9763,-96.376 L 78,-96 L 77.9763,-95.624 L 77.9057,-95.2539 L 77.7893,-94.8956 L 77.6289,-94.5547
 L 77.427,-94.2366 L 77.1869,-93.9464 L 76.9123,-93.6885 L 76.6075,-93.467 L 76.2773,-93.2855 L 75.927,-93.1468
 L 75.5621,-93.0531 L 75.1884,-93.0059 z
M -15.1884,-93.0059 L -15.5621,-93.0531 L -15.927,-93.1468 L -16.2773,-93.2855 L -16.6075,-93.467 L -16.9123,-93.6885
 L -17.1869,-93.9464 L -17.427,-94.2366 L -17.6289,-94.5547 L -17.7893,-94.8956 L -17.9057,-95.2539 L -17.9763,-95.624
 L -18,-96 L -17.9763,-96.376 L -17.9057,-96.7461 L -17.7893,-97.1044 L -17.6289,-97.4453 L -17.427,-97.7634
 L -17.1869,-98.0536 L -16.9123,-98.3115 L -16.6075,-98.533 L -16.2773,-98.7145 L -15.927,-98.8532 L -15.5621,-98.9469
 L -15.1884,-98.9941 L -14.8116,-98.9941 L -14.4379,-98.9469 L -14.0729,-98.8532 L -13.7227,-98.7145 L -13.3925,-98.533
 L -13.0877,-98.3115 L -12.8131,-98.0536 L -12.5729,-97.7634 L -12.3711,-97.4453 L -12.2107,-97.1044 L -12.0942,-96.7461
 L -12.0237,-96.376 L -12,-96 L -12.0237,-95.624 L -12.0942,-95.2539 L -12.2107,-94.8956 L -12.3711,-94.5547
 L -12.5729,-94.2366 L -12.8131,-93.9464 L -13.0877,-93.6885 L -13.3925,-93.467 L -13.7227,-93.2855 L -14.0729,-93.1468
 L -14.4379,-93.0531 L -14.8116,-93.0059 z
M -45.1884,-93.0059 L -45.5621,-93.0531 L -45.927,-93.1468 L -46.2773,-93.2855 L -46.6075,-93.467 L -46.9123,-93.6885
 L -47.1869,-93.9464 L -47.427,-94.2366 L -47.6289,-94.5547 L -47.7893,-94.8956 L -47.9057,-95.2539 L -47.9763,-95.624
 L -48,-96 L -47.9763,-96.376 L -47.9057,-96.7461 L -47.7893,-97.1044 L -47.6289,-97.4453 L -47.427,-97.7634
 L -47.1869,-98.0536 L -46.9123,-98.3115 L -46.6075,-98.533 L -46.2773,-98.7145 L -45.927,-98.8532 L -45.5621,-98.9469
 L -45.1884,-98.9941 L -44.8116,-98.9941 L -44.4379,-98.9469 L -44.0729,-98.8532 L -43.7227,-98.7145 L -43.3925,-98.533
 L -43.0877,-98.3115 L -42.8131,-98.0536 L -42.5729,-97.7634 L -42.3711,-97.4453 L -42.2107,-97.1044 L -42.0942,-96.7461
 L -42.0237,-96.376 L -42,-96 L -42.0237,-95.624 L -42.0942,-95.2539 L -42.2107,-94.8956 L -42.3711,-94.5547
 L -42.5729,-94.2366 L -42.8131,-93.9464 L -43.0877,-93.6885 L -43.3925,-93.467 L -43.7227,-93.2855 L -44.0729,-93.1468
 L -44.4379,-93.0531 L -44.8116,-93.0059 z
M -30.1884,-93.0059 L -30.5621,-93.0531 L -30.927,-93.1468 L -31.2773,-93.2855 L -31.6075,-93.467 L -31.9123,-93.6885
 L -32.1869,-93.9464 L -32.427,-94.2366 L -32.6289,-94.5547 L -32.7893,-94.8956 L -32.9057,-95.2539 L -32.9763,-95.624
 L -33,-96 L -32.9763,-96.376 L -32.9057,-96.7461 L -32.7893,-97.1044 L -32.6289,-97.4453 L -32.427,-97.7634
 L -32.1869,-98.0536 L -31.9123,-98.3115 L -31.6075,-98.533 L -31.2773,-98.7145 L -30.927,-98.8532 L -30.5621,-98.9469
 L -30.1884,-98.9941 L -29.8116,-98.9941 L -29.4379,-98.9469 L -29.0729,-98.8532 L -28.7227,-98.7145 L -28.3925,-98.533
 L -28.0877,-98.3115 L -27.8131,-98.0536 L -27.5729,-97.7634 L -27.3711,-97.4453 L -27.2107,-97.1044 L -27.0942,-96.7461
 L -27.0237,-96.376 L -27,-96 L -27.0237,-95.624 L -27.0942,-95.2539 L -27.2107,-94.8956 L -27.3711,-94.5547
 L -27.5729,-94.2366 L -27.8131,-93.9464 L -28.0877,-93.6885 L -28.3925,-93.467 L -28.7227,-93.2855 L -29.0729,-93.1468
 L -29.4379,-93.0531 L -29.8116,-93.0059 z
M 77.9369,-65.0886 L 78.5451,-65.2447 L 79.1289,-65.4759 L 79.6791,-65.7784 L 80.1871,-66.1474 L 80.6448,-66.5773
 L 81.0451,-67.0611 L 81.3815,-67.5912 L 81.6489,-68.1594 L 81.8429,-68.7566 L 81.9606,-69.3733 L 82,-70
 L 82,-74 L 81.9606,-74.6267 L 81.8429,-75.2434 L 81.6489,-75.8406 L 81.3815,-76.4088 L 81.0451,-76.9389
 L 80.6448,-77.4227 L 80.1871,-77.8526 L 79.6791,-78.2216 L 79.1289,-78.5241 L 78.5451,-78.7553 L 77.9369,-78.9114
 L 77.3139,-78.9901 L -77.3139,-78.9901 L -77.9369,-78.9114 L -78.5451,-78.7553 L -79.1289,-78.5241 L -79.6791,-78.2216
 L -80.1871,-77.8526 L -80.6448,-77.4227 L -81.0451,-76.9389 L -81.3815,-76.4088 L -81.6489,-75.8406 L -81.8429,-75.2434
 L -81.9606,-74.6267 L -82,-74 L -82,-70 L -81.9606,-69.3733 L -81.8429,-68.7566 L -81.6489,-68.1594
 L -81.3815,-67.5912 L -81.0451,-67.0611 L -80.6448,-66.5773 L -80.1871,-66.1474 L -79.6791,-65.7784 L -79.1289,-65.4759
 L -78.5451,-65.2447 L -77.9369,-65.0886 L -77.3139,-65.0099 L 77.3139,-65.0099 z
M 44.8116,-69.0059 L 44.4379,-69.0531 L 44.0729,-69.1468 L 43.7227,-69.2855 L 43.3925,-69.467 L 43.0877,-69.6885
 L 42.8131,-69.9464 L 42.5729,-70.2366 L 42.3711,-70.5547 L 42.2107,-70.8956 L 42.0942,-71.2539 L 42.0237,-71.624
 L 42,-72 L 42.0237,-72.376 L 42.0942,-72.7461 L 42.2107,-73.1044 L 42.3711,-73.4453 L 42.5729,-73.7634
 L 42.8131,-74.0536 L 43.0877,-74.3115 L 43.3925,-74.533 L 43.7227,-74.7145 L 44.0729,-74.8532 L 44.4379,-74.9469
 L 44.8116,-74.9941 L 45.1884,-74.9941 L 45.5621,-74.9469 L 45.927,-74.8532 L 46.2773,-74.7145 L 46.6075,-74.533
 L 46.9123,-74.3115 L 47.1869,-74.0536 L 47.427,-73.7634 L 47.6289,-73.4453 L 47.7893,-73.1044 L 47.9057,-72.7461
 L 47.9763,-72.376 L 48,-72 L 47.9763,-71.624 L 47.9057,-71.2539 L 47.7893,-70.8956 L 47.6289,-70.5547
 L 47.427,-70.2366 L 47.1869,-69.9464 L 46.9123,-69.6885 L 46.6075,-69.467 L 46.2773,-69.2855 L 45.927,-69.1468
 L 45.5621,-69.0531 L 45.1884,-69.0059 z
M -60.1884,-69.0059 L -60.5621,-69.0531 L -60.927,-69.1468 L -61.2773,-69.2855 L -61.6075,-69.467 L -61.9123,-69.6885
 L -62.1869,-69.9464 L -62.427,-70.2366 L -62.6289,-70.5547 L -62.7893,-70.8956 L -62.9057,-71.2539 L -62.9763,-71.624
 L -63,-72 L -62.9763,-72.376 L -62.9057,-72.7461 L -62.7893,-73.1044 L -62.6289,-73.4453 L -62.427,-73.7634
 L -62.1869,-74.0536 L -61.9123,-74.3115 L -61.6075,-74.533 L -61.2773,-74.7145 L -60.927,-74.8532 L -60.5621,-74.9469
 L -60.1884,-74.9941 L -59.8116,-74.9941 L -59.4379,-74.9469 L -59.0729,-74.8532 L -58.7227,-74.7145 L -58.3925,-74.533
 L -58.0877,-74.3115 L -57.8131,-74.0536 L -57.5729,-73.7634 L -57.3711,-73.4453 L -57.2107,-73.1044 L -57.0942,-72.7461
 L -57.0237,-72.376 L -57,-72 L -57.0237,-71.624 L -57.0942,-71.2539 L -57.2107,-70.8956 L -57.3711,-70.5547
 L -57.5729,-70.2366 L -57.8131,-69.9464 L -58.0877,-69.6885 L -58.3925,-69.467 L -58.7227,-69.2855 L -59.0729,-69.1468
 L -59.4379,-69.0531 L -59.8116,-69.0059 z
M -30.1884,-69.0059 L -30.5621,-69.0531 L -30.927,-69.1468 L -31.2773,-69.2855 L -31.6075,-69.467 L -31.9123,-69.6885
 L -32.1869,-69.9464 L -32.427,-70.2366 L -32.6289,-70.5547 L -32.7893,-70.8956 L -32.9057,-71.2539 L -32.9763,-71.624
 L -33,-72 L -32.9763,-72.376 L -32.9057,-72.7461 L -32.7893,-73.1044 L -32.6289,-73.4453 L -32.427,-73.7634
 L -32.1869,-74.0536 L -31.9123,-74.3115 L -31.6075,-74.533 L -31.2773,-74.7145 L -30.927,-74.8532 L -30.5621,-74.9469
 L -30.1884,-74.9941 L -29.8116,-74.9941 L -29.4379,-74.9469 L -29.0729,-74.8532 L -28.7227,-74.7145 L -28.3925,-74.533
 L -28.0877,-74.3115 L -27.8131,-74.0536 L -27.5729,-73.7634 L -27.3711,-73.4453 L -27.2107,-73.1044 L -27.0942,-72.7461
 L -27.0237,-72.376 L -27,-72 L -27.0237,-71.624 L -27.0942,-71.2539 L -27.2107,-70.8956 L -27.3711,-70.5547
 L -27.5729,-70.2366 L -27.8131,-69.9464 L -28.0877,-69.6885 L -28.3925,-69.467 L -28.7227,-69.2855 L -29.0729,-69.1468
 L -29.4379,-69.0531 L -29.8116,-69.0059 z
M -45.1884,-69.0059 L -45.5621,-69.0531 L -45.927,-69.1468 L -46.2773,-69.2855 L -46.6075,-69.467 L -46.9123,-69.6885
 L -47.1869,-69.9464 L -47.427,-70.2366 L -47.6289,-70.5547 L -47.7893,-70.8956 L -47.9057,-71.2539 L -47.9763,-71.624
 L -48,-72 L -47.9763,-72.376 L -47.9057,-72.7461 L -47.7893,-73.1044 L -47.6289,-73.4453 L -47.427,-73.7634
 L -47.1869,-74.0536 L -46.9123,-74.3115 L -46.6075,-74.533 L -46.2773,-74.7145 L -45.927,-74.8532 L -45.5621,-74.9469
 L -45.1884,-74.9941 L -44.8116,-74.9941 L -44.4379,-74.9469 L -44.0729,-74.8532 L -43.7227,-74.7145 L -43.3925,-74.533
 L -43.0877,-74.3115 L -42.8131,-74.0536 L -42.5729,-73.7634 L -42.3711,-73.4453 L -42.2107,-73.1044 L -42.0942,-72.7461
 L -42.0237,-72.376 L -42,-72 L -42.0237,-71.624 L -42.0942,-71.2539 L -42.2107,-70.8956 L -42.3711,-70.5547
 L -42.5729,-70.2366 L -42.8131,-69.9464 L -43.0877,-69.6885 L -43.3925,-69.467 L -43.7227,-69.2855 L -44.0729,-69.1468
 L -44.4379,-69.0531 L -44.8116,-69.0059 z
M -15.1884,-69.0059 L -15.5621,-69.0531 L -15.927,-69.1468 L -16.2773,-69.2855 L -16.6075,-69.467 L -16.9123,-69.6885
 L -17.1869,-69.9464 L -17.427,-70.2366 L -17.6289,-70.5547 L -17.7893,-70.8956 L -17.9057,-71.2539 L -17.9763,-71.624
 L -18,-72 L -17.9763,-72.376 L -17.9057,-72.7461 L -17.7893,-73.1044 L -17.6289,-73.4453 L -17.427,-73.7634
 L -17.1869,-74.0536 L -16.9123,-74.3115 L -16.6075,-74.533 L -16.2773,-74.7145 L -15.927,-74.8532 L -15.5621,-74.9469
 L -15.1884,-74.9941 L -14.8116,-74.9941 L -14.4379,-74.9469 L -14.0729,-74.8532 L -13.7227,-74.7145 L -13.3925,-74.533
 L -13.0877,-74.3115 L -12.8131,-74.0536 L -12.5729,-73.7634 L -12.3711,-73.4453 L -12.2107,-73.1044 L -12.0942,-72.7461
 L -12.0237,-72.376 L -12,-72 L -12.0237,-71.624 L -12.0942,-71.2539 L -12.2107,-70.8956 L -12.3711,-70.5547
 L -12.5729,-70.2366 L -12.8131,-69.9464 L -13.0877,-69.6885 L -13.3925,-69.467 L -13.7227,-69.2855 L -14.0729,-69.1468
 L -14.4379,-69.0531 L -14.8116,-69.0059 z
M 74.8116,-69.0059 L 74.4379,-69.0531 L 74.073,-69.1468 L 73.7227,-69.2855 L 73.3925,-69.467 L 73.0877,-69.6885
 L 72.8131,-69.9464 L 72.573,-70.2366 L 72.3711,-70.5547 L 72.2107,-70.8956 L 72.0943,-71.2539 L 72.0237,-71.624
 L 72,-72 L 72.0237,-72.376 L 72.0943,-72.7461 L 72.2107,-73.1044 L 72.3711,-73.4453 L 72.573,-73.7634
 L 72.8131,-74.0536 L 73.0877,-74.3115 L 73.3925,-74.533 L 73.7227,-74.7145 L 74.073,-74.8532 L 74.4379,-74.9469
 L 74.8116,-74.9941 L 75.1884,-74.9941 L 75.5621,-74.9469 L 75.927,-74.8532 L 76.2773,-74.7145 L 76.6075,-74.533
 L 76.9123,-74.3115 L 77.1869,-74.0536 L 77.427,-73.7634 L 77.6289,-73.4453 L 77.7893,-73.1044 L 77.9057,-72.7461
 L 77.9763,-72.376 L 78,-72 L 77.9763,-71.624 L 77.9057,-71.2539 L 77.7893,-70.8956 L 77.6289,-70.5547
 L 77.427,-70.2366 L 77.1869,-69.9464 L 76.9123,-69.6885 L 76.6075,-69.467 L 76.2773,-69.2855 L 75.927,-69.1468
 L 75.5621,-69.0531 L 75.1884,-69.0059 z
M 14.8116,-69.0059 L 14.4379,-69.0531 L 14.0729,-69.1468 L 13.7227,-69.2855 L 13.3925,-69.467 L 13.0877,-69.6885
 L 12.8131,-69.9464 L 12.5729,-70.2366 L 12.3711,-70.5547 L 12.2107,-70.8956 L 12.0942,-71.2539 L 12.0237,-71.624
 L 12,-72 L 12.0237,-72.376 L 12.0942,-72.7461 L 12.2107,-73.1044 L 12.3711,-73.4453 L 12.5729,-73.7634
 L 12.8131,-74.0536 L 13.0877,-74.3115 L 13.3925,-74.533 L 13.7227,-74.7145 L 14.0729,-74.8532 L 14.4379,-74.9469
 L 14.8116,-74.9941 L 15.1884,-74.9941 L 15.5621,-74.9469 L 15.927,-74.8532 L 16.2773,-74.7145 L 16.6075,-74.533
 L 16.9123,-74.3115 L 17.1869,-74.0536 L 17.427,-73.7634 L 17.6289,-73.4453 L 17.7893,-73.1044 L 17.9057,-72.7461
 L 17.9763,-72.376 L 18,-72 L 17.9763,-71.624 L 17.9057,-71.2539 L 17.7893,-70.8956 L 17.6289,-70.5547
 L 17.427,-70.2366 L 17.1869,-69.9464 L 16.9123,-69.6885 L 16.6075,-69.467 L 16.2773,-69.2855 L 15.927,-69.1468
 L 15.5621,-69.0531 L 15.1884,-69.0059 z
M 29.8116,-69.0059 L 29.4379,-69.0531 L 29.0729,-69.1468 L 28.7227,-69.2855 L 28.3925,-69.467 L 28.0877,-69.6885
 L 27.8131,-69.9464 L 27.5729,-70.2366 L 27.3711,-70.5547 L 27.2107,-70.8956 L 27.0942,-71.2539 L 27.0237,-71.624
 L 27,-72 L 27.0237,-72.376 L 27.0942,-72.7461 L 27.2107,-73.1044 L 27.3711,-73.4453 L 27.5729,-73.7634
 L 27.8131,-74.0536 L 28.0877,-74.3115 L 28.3925,-74.533 L 28.7227,-74.7145 L 29.0729,-74.8532 L 29.4379,-74.9469
 L 29.8116,-74.9941 L 30.1884,-74.9941 L 30.5621,-74.9469 L 30.927,-74.8532 L 31.2773,-74.7145 L 31.6075,-74.533
 L 31.9123,-74.3115 L 32.1869,-74.0536 L 32.427,-73.7634 L 32.6289,-73.4453 L 32.7893,-73.1044 L 32.9057,-72.7461
 L 32.9763,-72.376 L 33,-72 L 32.9763,-71.624 L 32.9057,-71.2539 L 32.7893,-70.8956 L 32.6289,-70.5547
 L 32.427,-70.2366 L 32.1869,-69.9464 L 31.9123,-69.6885 L 31.6075,-69.467 L 31.2773,-69.2855 L 30.927,-69.1468
 L 30.5621,-69.0531 L 30.1884,-69.0059 z
M -75.1884,-69.0059 L -75.5621,-69.0531 L -75.927,-69.1468 L -76.2773,-69.2855 L -76.6075,-69.467 L -76.9123,-69.6885
 L -77.1869,-69.9464 L -77.427,-70.2366 L -77.6289,-70.5547 L -77.7893,-70.8956 L -77.9057,-71.2539 L -77.9763,-71.624
 L -78,-72 L -77.9763,-72.376 L -77.9057,-72.7461 L -77.7893,-73.1044 L -77.6289,-73.4453 L -77.427,-73.7634
 L -77.1869,-74.0536 L -76.9123,-74.3115 L -76.6075,-74.533 L -76.2773,-74.7145 L -75.927,-74.8532 L -75.5621,-74.9469
 L -75.1884,-74.9941 L -74.8116,-74.9941 L -74.4379,-74.9469 L -74.073,-74.8532 L -73.7227,-74.7145 L -73.3925,-74.533
 L -73.0877,-74.3115 L -72.8131,-74.0536 L -72.573,-73.7634 L -72.3711,-73.4453 L -72.2107,-73.1044 L -72.0943,-72.7461
 L -72.0237,-72.376 L -72,-72 L -72.0237,-71.624 L -72.0943,-71.2539 L -72.2107,-70.8956 L -72.3711,-70.5547
 L -72.573,-70.2366 L -72.8131,-69.9464 L -73.0877,-69.6885 L -73.3925,-69.467 L -73.7227,-69.2855 L -74.073,-69.1468
 L -74.4379,-69.0531 L -74.8116,-69.0059 z
M -0.18837,-69.0059 L -0.562134,-69.0531 L -0.927048,-69.1468 L -1.27733,-69.2855 L -1.60747,-69.467 L -1.91226,-69.6885
 L -2.1869,-69.9464 L -2.42705,-70.2366 L -2.62891,-70.5547 L -2.78932,-70.8956 L -2.90575,-71.2539 L -2.97633,-71.624
 L -3,-72 L -2.97633,-72.376 L -2.90575,-72.7461 L -2.78932,-73.1044 L -2.62891,-73.4453 L -2.42705,-73.7634
 L -2.1869,-74.0536 L -1.91226,-74.3115 L -1.60747,-74.533 L -1.27733,-74.7145 L -0.927048,-74.8532 L -0.562134,-74.9469
 L -0.18837,-74.9941 L 0.18837,-74.9941 L 0.562134,-74.9469 L 0.927048,-74.8532 L 1.27733,-74.7145 L 1.60747,-74.533
 L 1.91226,-74.3115 L 2.1869,-74.0536 L 2.42705,-73.7634 L 2.62891,-73.4453 L 2.78932,-73.1044 L 2.90575,-72.7461
 L 2.97633,-72.376 L 3,-72 L 2.97633,-71.624 L 2.90575,-71.2539 L 2.78932,-70.8956 L 2.62891,-70.5547
 L 2.42705,-70.2366 L 2.1869,-69.9464 L 1.91226,-69.6885 L 1.60747,-69.467 L 1.27733,-69.2855 L 0.927048,-69.1468
 L 0.562134,-69.0531 L 0.18837,-69.0059 z
M 59.8116,-69.0059 L 59.4379,-69.0531 L 59.0729,-69.1468 L 58.7227,-69.2855 L 58.3925,-69.467 L 58.0877,-69.6885
 L 57.8131,-69.9464 L 57.5729,-70.2366 L 57.3711,-70.5547 L 57.2107,-70.8956 L 57.0942,-71.2539 L 57.0237,-71.624
 L 57,-72 L 57.0237,-72.376 L 57.0942,-72.7461 L 57.2107,-73.1044 L 57.3711,-73.4453 L 57.5729,-73.7634
 L 57.8131,-74.0536 L 58.0877,-74.3115 L 58.3925,-74.533 L 58.7227,-74.7145 L 59.0729,-74.8532 L 59.4379,-74.9469
 L 59.8116,-74.9941 L 60.1884,-74.9941 L 60.5621,-74.9469 L 60.927,-74.8532 L 61.2773,-74.7145 L 61.6075,-74.533
 L 61.9123,-74.3115 L 62.1869,-74.0536 L 62.427,-73.7634 L 62.6289,-73.4453 L 62.7893,-73.1044 L 62.9057,-72.7461
 L 62.9763,-72.376 L 63,-72 L 62.9763,-71.624 L 62.9057,-71.2539 L 62.7893,-70.8956 L 62.6289,-70.5547
 L 62.427,-70.2366 L 62.1869,-69.9464 L 61.9123,-69.6885 L 61.6075,-69.467 L 61.2773,-69.2855 L 60.927,-69.1468
 L 60.5621,-69.0531 L 60.1884,-69.0059 z
M 77.9369,-41.0886 L 78.5451,-41.2447 L 79.1289,-41.4759 L 79.6791,-41.7784 L 80.1871,-42.1474 L 80.6448,-42.5773
 L 81.0451,-43.0611 L 81.3815,-43.5912 L 81.6489,-44.1594 L 81.8429,-44.7566 L 81.9606,-45.3733 L 82,-46
 L 82,-50 L 81.9606,-50.6267 L 81.8429,-51.2434 L 81.6489,-51.8406 L 81.3815,-52.4088 L 81.0451,-52.9389
 L 80.6448,-53.4227 L 80.1871,-53.8526 L 79.6791,-54.2216 L 79.1289,-54.5241 L 78.5451,-54.7553 L 77.9369,-54.9114
 L 77.3139,-54.9901 L -77.3139,-54.9901 L -77.9369,-54.9114 L -78.5451,-54.7553 L -79.1289,-54.5241 L -79.6791,-54.2216
 L -80.1871,-53.8526 L -80.6448,-53.4227 L -81.0451,-52.9389 L -81.3815,-52.4088 L -81.6489,-51.8406 L -81.8429,-51.2434
 L -81.9606,-50.6267 L -82,-50 L -82,-46 L -81.9606,-45.3733 L -81.8429,-44.7566 L -81.6489,-44.1594
 L -81.3815,-43.5912 L -81.0451,-43.0611 L -80.6448,-42.5773 L -80.1871,-42.1474 L -79.6791,-41.7784 L -79.1289,-41.4759
 L -78.5451,-41.2447 L -77.9369,-41.0886 L -77.3139,-41.0099 L 77.3139,-41.0099 z
M 59.8116,-45.0059 L 59.4379,-45.0531 L 59.0729,-45.1468 L 58.7227,-45.2855 L 58.3925,-45.467 L 58.0877,-45.6885
 L 57.8131,-45.9464 L 57.5729,-46.2366 L 57.3711,-46.5547 L 57.2107,-46.8956 L 57.0942,-47.2539 L 57.0237,-47.624
 L 57,-48 L 57.0237,-48.376 L 57.0942,-48.7461 L 57.2107,-49.1044 L 57.3711,-49.4453 L 57.5729,-49.7634
 L 57.8131,-50.0536 L 58.0877,-50.3115 L 58.3925,-50.533 L 58.7227,-50.7145 L 59.0729,-50.8532 L 59.4379,-50.9469
 L 59.8116,-50.9941 L 60.1884,-50.9941 L 60.5621,-50.9469 L 60.927,-50.8532 L 61.2773,-50.7145 L 61.6075,-50.533
 L 61.9123,-50.3115 L 62.1869,-50.0536 L 62.427,-49.7634 L 62.6289,-49.4453 L 62.7893,-49.1044 L 62.9057,-48.7461
 L 62.9763,-48.376 L 63,-48 L 62.9763,-47.624 L 62.9057,-47.2539 L 62.7893,-46.8956 L 62.6289,-46.5547
 L 62.427,-46.2366 L 62.1869,-45.9464 L 61.9123,-45.6885 L 61.6075,-45.467 L 61.2773,-45.2855 L 60.927,-45.1468
 L 60.5621,-45.0531 L 60.1884,-45.0059 z
M 44.8116,-45.0059 L 44.4379,-45.0531 L 44.0729,-45.1468 L 43.7227,-45.2855 L 43.3925,-45.467 L 43.0877,-45.6885
 L 42.8131,-45.9464 L 42.5729,-46.2366 L 42.3711,-46.5547 L 42.2107,-46.8956 L 42.0942,-47.2539 L 42.0237,-47.624
 L 42,-48 L 42.0237,-48.376 L 42.0942,-48.7461 L 42.2107,-49.1044 L 42.3711,-49.4453 L 42.5729,-49.7634
 L 42.8131,-50.0536 L 43.0877,-50.3115 L 43.3925,-50.533 L 43.7227,-50.7145 L 44.0729,-50.8532 L 44.4379,-50.9469
 L 44.8116,-50.9941 L 45.1884,-50.9941 L 45.5621,-50.9469 L 45.927,-50.8532 L 46.2773,-50.7145 L 46.6075,-50.533
 L 46.9123,-50.3115 L 47.1869,-50.0536 L 47.427,-49.7634 L 47.6289,-49.4453 L 47.7893,-49.1044 L 47.9057,-48.7461
 L 47.9763,-48.376 L 48,-48 L 47.9763,-47.624 L 47.9057,-47.2539 L 47.7893,-46.8956 L 47.6289,-46.5547
 L 47.427,-46.2366 L 47.1869,-45.9464 L 46.9123,-45.6885 L 46.6075,-45.467 L 46.2773,-45.2855 L 45.927,-45.1468
 L 45.5621,-45.0531 L 45.1884,-45.0059 z
M 14.8116,-45.0059 L 14.4379,-45.0531 L 14.0729,-45.1468 L 13.7227,-45.2855 L 13.3925,-45.467 L 13.0877,-45.6885
 L 12.8131,-45.9464 L 12.5729,-46.2366 L 12.3711,-46.5547 L 12.2107,-46.8956 L 12.0942,-47.2539 L 12.0237,-47.624
 L 12,-48 L 12.0237,-48.376 L 12.0942,-48.7461 L 12.2107,-49.1044 L 12.3711,-49.4453 L 12.5729,-49.7634
 L 12.8131,-50.0536 L 13.0877,-50.3115 L 13.3925,-50.533 L 13.7227,-50.7145 L 14.0729,-50.8532 L 14.4379,-50.9469
 L 14.8116,-50.9941 L 15.1884,-50.9941 L 15.5621,-50.9469 L 15.927,-50.8532 L 16.2773,-50.7145 L 16.6075,-50.533
 L 16.9123,-50.3115 L 17.1869,-50.0536 L 17.427,-49.7634 L 17.6289,-49.4453 L 17.7893,-49.1044 L 17.9057,-48.7461
 L 17.9763,-48.376 L 18,-48 L 17.9763,-47.624 L 17.9057,-47.2539 L 17.7893,-46.8956 L 17.6289,-46.5547
 L 17.427,-46.2366 L 17.1869,-45.9464 L 16.9123,-45.6885 L 16.6075,-45.467 L 16.2773,-45.2855 L 15.927,-45.1468
 L 15.5621,-45.0531 L 15.1884,-45.0059 z
M -45.1884,-45.0059 L -45.5621,-45.0531 L -45.927,-45.1468 L -46.2773,-45.2855 L -46.6075,-45.467 L -46.9123,-45.6885
 L -47.1869,-45.9464 L -47.427,-46.2366 L -47.6289,-46.5547 L -47.7893,-46.8956 L -47.9057,-47.2539 L -47.9763,-47.624
 L -48,-48 L -47.9763,-48.376 L -47.9057,-48.7461 L -47.7893,-49.1044 L -47.6289,-49.4453 L -47.427,-49.7634
 L -47.1869,-50.0536 L -46.9123,-50.3115 L -46.6075,-50.533 L -46.2773,-50.7145 L -45.927,-50.8532 L -45.5621,-50.9469
 L -45.1884,-50.9941 L -44.8116,-50.9941 L -44.4379,-50.9469 L -44.0729,-50.8532 L -43.7227,-50.7145 L -43.3925,-50.533
 L -43.0877,-50.3115 L -42.8131,-50.0536 L -42.5729,-49.7634 L -42.3711,-49.4453 L -42.2107,-49.1044 L -42.0942,-48.7461
 L -42.0237,-48.376 L -42,-48 L -42.0237,-47.624 L -42.0942,-47.2539 L -42.2107,-46.8956 L -42.3711,-46.5547
 L -42.5729,-46.2366 L -42.8131,-45.9464 L -43.0877,-45.6885 L -43.3925,-45.467 L -43.7227,-45.2855 L -44.0729,-45.1468
 L -44.4379,-45.0531 L -44.8116,-45.0059 z
M 74.8116,-45.0059 L 74.4379,-45.0531 L 74.073,-45.1468 L 73.7227,-45.2855 L 73.3925,-45.467 L 73.0877,-45.6885
 L 72.8131,-45.9464 L 72.573,-46.2366 L 72.3711,-46.5547 L 72.2107,-46.8956 L 72.0943,-47.2539 L 72.0237,-47.624
 L 72,-48 L 72.0237,-48.376 L 72.0943,-48.7461 L 72.2107,-49.1044 L 72.3711,-49.4453 L 72.573,-49.7634
 L 72.8131,-50.0536 L 73.0877,-50.3115 L 73.3925,-50.533 L 73.7227,-50.7145 L 74.073,-50.8532 L 74.4379,-50.9469
 L 74.8116,-50.9941 L 75.1884,-50.9941 L 75.5621,-50.9469 L 75.927,-50.8532 L 76.2773,-50.7145 L 76.6075,-50.533
 L 76.9123,-50.3115 L 77.1869,-50.0536 L 77.427,-49.7634 L 77.6289,-49.4453 L 77.7893,-49.1044 L 77.9057,-48.7461
 L 77.9763,-48.376 L 78,-48 L 77.9763,-47.624 L 77.9057,-47.2539 L 77.7893,-46.8956 L 77.6289,-46.5547
 L 77.427,-46.2366 L 77.1869,-45.9464 L 76.9123,-45.6885 L 76.6075,-45.467 L 76.2773,-45.2855 L 75.927,-45.1468
 L 75.5621,-45.0531 L 75.1884,-45.0059 z
M -75.1884,-45.0059 L -75.5621,-45.0531 L -75.927,-45.1468 L -76.2773,-45.2855 L -76.6075,-45.467 L -76.9123,-45.6885
 L -77.1869,-45.9464 L -77.427,-46.2366 L -77.6289,-46.5547 L -77.7893,-46.8956 L -77.9057,-47.2539 L -77.9763,-47.624
 L -78,-48 L -77.9763,-48.376 L -77.9057,-48.7461 L -77.7893,-49.1044 L -77.6289,-49.4453 L -77.427,-49.7634
 L -77.1869,-50.0536 L -76.9123,-50.3115 L -76.6075,-50.533 L -76.2773,-50.7145 L -75.927,-50.8532 L -75.5621,-50.9469
 L -75.1884,-50.9941 L -74.8116,-50.9941 L -74.4379,-50.9469 L -74.073,-50.8532 L -73.7227,-50.7145 L -73.3925,-50.533
 L -73.0877,-50.3115 L -72.8131,-50.0536 L -72.573,-49.7634 L -72.3711,-49.4453 L -72.2107,-49.1044 L -72.0943,-48.7461
 L -72.0237,-48.376 L -72,-48 L -72.0237,-47.624 L -72.0943,-47.2539 L -72.2107,-46.8956 L -72.3711,-46.5547
 L -72.573,-46.2366 L -72.8131,-45.9464 L -73.0877,-45.6885 L -73.3925,-45.467 L -73.7227,-45.2855 L -74.073,-45.1468
 L -74.4379,-45.0531 L -74.8116,-45.0059 z
M -0.18837,-45.0059 L -0.562134,-45.0531 L -0.927048,-45.1468 L -1.27733,-45.2855 L -1.60747,-45.467 L -1.91226,-45.6885
 L -2.1869,-45.9464 L -2.42705,-46.2366 L -2.62891,-46.5547 L -2.78932,-46.8956 L -2.90575,-47.2539 L -2.97633,-47.624
 L -3,-48 L -2.97633,-48.376 L -2.90575,-48.7461 L -2.78932,-49.1044 L -2.62891,-49.4453 L -2.42705,-49.7634
 L -2.1869,-50.0536 L -1.91226,-50.3115 L -1.60747,-50.533 L -1.27733,-50.7145 L -0.927048,-50.8532 L -0.562134,-50.9469
 L -0.18837,-50.9941 L 0.18837,-50.9941 L 0.562134,-50.9469 L 0.927048,-50.8532 L 1.27733,-50.7145 L 1.60747,-50.533
 L 1.91226,-50.3115 L 2.1869,-50.0536 L 2.42705,-49.7634 L 2.62891,-49.4453 L 2.78932,-49.1044 L 2.90575,-48.7461
 L 2.97633,-48.376 L 3,-48 L 2.97633,-47.624 L 2.90575,-47.2539 L 2.78932,-46.8956 L 2.62891,-46.5547
 L 2.42705,-46.2366 L 2.1869,-45.9464 L 1.91226,-45.6885 L 1.60747,-45.467 L 1.27733,-45.2855 L 0.927048,-45.1468
 L 0.562134,-45.0531 L 0.18837,-45.0059 z
M -15.1884,-45.0059 L -15.5621,-45.0531 L -15.927,-45.1468 L -16.2773,-45.2855 L -16.6075,-45.467 L -16.9123,-45.6885
 L -17.1869,-45.9464 L -17.427,-46.2366 L -17.6289,-46.5547 L -17.7893,-46.8956 L -17.9057,-47.2539 L -17.9763,-47.624
 L -18,-48 L -17.9763,-48.376 L -17.9057,-48.7461 L -17.7893,-49.1044 L -17.6289,-49.4453 L -17.427,-49.7634
 L -17.1869,-50.0536 L -16.9123,-50.3115 L -16.6075,-50.533 L -16.2773,-50.7145 L -15.927,-50.8532 L -15.5621,-50.9469
 L -15.1884,-50.9941 L -14.8116,-50.9941 L -14.4379,-50.9469 L -14.0729,-50.8532 L -13.7227,-50.7145 L -13.3925,-50.533
 L -13.0877,-50.3115 L -12.8131,-50.0536 L -12.5729,-49.7634 L -12.3711,-49.4453 L -12.2107,-49.1044 L -12.0942,-48.7461
 L -12.0237,-48.376 L -12,-48 L -12.0237,-47.624 L -12.0942,-47.2539 L -12.2107,-46.8956 L -12.3711,-46.5547
 L -12.5729,-46.2366 L -12.8131,-45.9464 L -13.0877,-45.6885 L -13.3925,-45.467 L -13.7227,-45.2855 L -14.0729,-45.1468
 L -14.4379,-45.0531 L -14.8116,-45.0059 z
M -60.1884,-45.0059 L -60.5621,-45.0531 L -60.927,-45.1468 L -61.2773,-45.2855 L -61.6075,-45.467 L -61.9123,-45.6885
 L -62.1869,-45.9464 L -62.427,-46.2366 L -62.6289,-46.5547 L -62.7893,-46.8956 L -62.9057,-47.2539 L -62.9763,-47.624
 L -63,-48 L -62.9763,-48.376 L -62.9057,-48.7461 L -62.7893,-49.1044 L -62.6289,-49.4453 L -62.427,-49.7634
 L -62.1869,-50.0536 L -61.9123,-50.3115 L -61.6075,-50.533 L -61.2773,-50.7145 L -60.927,-50.8532 L -60.5621,-50.9469
 L -60.1884,-50.9941 L -59.8116,-50.9941 L -59.4379,-50.9469 L -59.0729,-50.8532 L -58.7227,-50.7145 L -58.3925,-50.533
 L -58.0877,-50.3115 L -57.8131,-50.0536 L -57.5729,-49.7634 L -57.3711,-49.4453 L -57.2107,-49.1044 L -57.0942,-48.7461
 L -57.0237,-48.376 L -57,-48 L -57.0237,-47.624 L -57.0942,-47.2539 L -57.2107,-46.8956 L -57.3711,-46.5547
 L -57.5729,-46.2366 L -57.8131,-45.9464 L -58.0877,-45.6885 L -58.3925,-45.467 L -58.7227,-45.2855 L -59.0729,-45.1468
 L -59.4379,-45.0531 L -59.8116,-45.0059 z
M -30.1884,-45.0059 L -30.5621,-45.0531 L -30.927,-45.1468 L -31.2773,-45.2855 L -31.6075,-45.467 L -31.9123,-45.6885
 L -32.1869,-45.9464 L -32.427,-46.2366 L -32.6289,-46.5547 L -32.7893,-46.8956 L -32.9057,-47.2539 L -32.9763,-47.624
 L -33,-48 L -32.9763,-48.376 L -32.9057,-48.7461 L -32.7893,-49.1044 L -32.6289,-49.4453 L -32.427,-49.7634
 L -32.1869,-50.0536 L -31.9123,-50.3115 L -31.6075,-50.533 L -31.2773,-50.7145 L -30.927,-50.8532 L -30.5621,-50.9469
 L -30.1884,-50.9941 L -29.8116,-50.9941 L -29.4379,-50.9469 L -29.0729,-50.8532 L -28.7227,-50.7145 L -28.3925,-50.533
 L -28.0877,-50.3115 L -27.8131,-50.0536 L -27.5729,-49.7634 L -27.3711,-49.4453 L -27.2107,-49.1044 L -27.0942,-48.7461
 L -27.0237,-48.376 L -27,-48 L -27.0237,-47.624 L -27.0942,-47.2539 L -27.2107,-46.8956 L -27.3711,-46.5547
 L -27.5729,-46.2366 L -27.8131,-45.9464 L -28.0877,-45.6885 L -28.3925,-45.467 L -28.7227,-45.2855 L -29.0729,-45.1468
 L -29.4379,-45.0531 L -29.8116,-45.0059 z
M 29.8116,-45.0059 L 29.4379,-45.0531 L 29.0729,-45.1468 L 28.7227,-45.2855 L 28.3925,-45.467 L 28.0877,-45.6885
 L 27.8131,-45.9464 L 27.5729,-46.2366 L 27.3711,-46.5547 L 27.2107,-46.8956 L 27.0942,-47.2539 L 27.0237,-47.624
 L 27,-48 L 27.0237,-48.376 L 27.0942,-48.7461 L 27.2107,-49.1044 L 27.3711,-49.4453 L 27.5729,-49.7634
 L 27.8131,-50.0536 L 28.0877,-50.3115 L 28.3925,-50.533 L 28.7227,-50.7145 L 29.0729,-50.8532 L 29.4379,-50.9469
 L 29.8116,-50.9941 L 30.1884,-50.9941 L 30.5621,-50.9469 L 30.927,-50.8532 L 31.2773,-50.7145 L 31.6075,-50.533
 L 31.9123,-50.3115 L 32.1869,-50.0536 L 32.427,-49.7634 L 32.6289,-49.4453 L 32.7893,-49.1044 L 32.9057,-48.7461
 L 32.9763,-48.376 L 33,-48 L 32.9763,-47.624 L 32.9057,-47.2539 L 32.7893,-46.8956 L 32.6289,-46.5547
 L 32.427,-46.2366 L 32.1869,-45.9464 L 31.9123,-45.6885 L 31.6075,-45.467 L 31.2773,-45.2855 L 30.927,-45.1468
 L 30.5621,-45.0531 L 30.1884,-45.0059 z
" stroke="black" fill="lightgray" stroke-width="0.5"/>
</svg>
