  0
SECTION
  2
BLOCKS
  0
ENDSEC
  0
SECTION
  2
ENTITIES
  0
LINE
  8
0
 10
62.9369
 20
17.0886
 11
63.5451
 21
17.2447
  0
LINE
  8
0
 10
63.5451
 20
17.2447
 11
64.1289
 21
17.4759
  0
LINE
  8
0
 10
64.1289
 20
17.4759
 11
64.6791
 21
17.7784
  0
LINE
  8
0
 10
64.6791
 20
17.7784
 11
65.1871
 21
18.1474
  0
LINE
  8
0
 10
65.1871
 20
18.1474
 11
65.6448
 21
18.5773
  0
LINE
  8
0
 10
65.6448
 20
18.5773
 11
66.0451
 21
19.0611
  0
LINE
  8
0
 10
66.0451
 20
19.0611
 11
66.3815
 21
19.5912
  0
LINE
  8
0
 10
66.3815
 20
19.5912
 11
66.6489
 21
20.1594
  0
LINE
  8
0
 10
66.6489
 20
20.1594
 11
66.8429
 21
20.7566
  0
LINE
  8
0
 10
66.8429
 20
20.7566
 11
66.9606
 21
21.3733
  0
LINE
  8
0
 10
66.9606
 20
21.3733
 11
67
 21
22
  0
LINE
  8
0
 10
67
 20
22
 11
67
 21
26
  0
LINE
  8
0
 10
67
 20
26
 11
66.9606
 21
26.6267
  0
LINE
  8
0
 10
66.9606
 20
26.6267
 11
66.8429
 21
27.2434
  0
LINE
  8
0
 10
66.8429
 20
27.2434
 11
66.6489
 21
27.8406
  0
LINE
  8
0
 10
66.6489
 20
27.8406
 11
66.3815
 21
28.4088
  0
LINE
  8
0
 10
66.3815
 20
28.4088
 11
66.0451
 21
28.9389
  0
LINE
  8
0
 10
66.0451
 20
28.9389
 11
65.6448
 21
29.4227
  0
LINE
  8
0
 10
65.6448
 20
29.4227
 11
65.1871
 21
29.8526
  0
LINE
  8
0
 10
65.1871
 20
29.8526
 11
64.6791
 21
30.2216
  0
LINE
  8
0
 10
64.6791
 20
30.2216
 11
64.1289
 21
30.5241
  0
LINE
  8
0
 10
64.1289
 20
30.5241
 11
63.5451
 21
30.7553
  0
LINE
  8
0
 10
63.5451
 20
30.7553
 11
62.9369
 21
30.9114
  0
LINE
  8
0
 10
62.9369
 20
30.9114
 11
62.3139
 21
30.9901
  0
LINE
  8
0
 10
62.3139
 20
30.9901
 11
-62.3139
 21
30.9901
  0
LINE
  8
0
 10
-62.3139
 20
30.9901
 11
-62.9369
 21
30.9114
  0
LINE
  8
0
 10
-62.9369
 20
30.9114
 11
-63.5451
 21
30.7553
  0
LINE
  8
0
 10
-63.5451
 20
30.7553
 11
-64.1289
 21
30.5241
  0
LINE
  8
0
 10
-64.1289
 20
30.5241
 11
-64.6791
 21
30.2216
  0
LINE
  8
0
 10
-64.6791
 20
30.2216
 11
-65.1871
 21
29.8526
  0
LINE
  8
0
 10
-65.1871
 20
29.8526
 11
-65.6448
 21
29.4227
  0
LINE
  8
0
 10
-65.6448
 20
29.4227
 11
-66.0451
 21
28.9389
  0
LINE
  8
0
 10
-66.0451
 20
28.9389
 11
-66.3815
 21
28.4088
  0
LINE
  8
0
 10
-66.3815
 20
28.4088
 11
-66.6489
 21
27.8406
  0
LINE
  8
0
 10
-66.6489
 20
27.8406
 11
-66.8429
 21
27.2434
  0
LINE
  8
0
 10
-66.8429
 20
27.2434
 11
-66.9606
 21
26.6267
  0
LINE
  8
0
 10
-66.9606
 20
26.6267
 11
-67
 21
26
  0
LINE
  8
0
 10
-67
 20
26
 11
-67
 21
22
  0
LINE
  8
0
 10
-67
 20
22
 11
-66.9606
 21
21.3733
  0
LINE
  8
0
 10
-66.9606
 20
21.3733
 11
-66.8429
 21
20.7566
  0
LINE
  8
0
 10
-66.8429
 20
20.7566
 11
-66.6489
 21
20.1594
  0
LINE
  8
0
 10
-66.6489
 20
20.1594
 11
-66.3815
 21
19.5912
  0
LINE
  8
0
 10
-66.3815
 20
19.5912
 11
-66.0451
 21
19.0611
  0
LINE
  8
0
 10
-66.0451
 20
19.0611
 11
-65.6448
 21
18.5773
  0
LINE
  8
0
 10
-65.6448
 20
18.5773
 11
-65.1871
 21
18.1474
  0
LINE
  8
0
 10
-65.1871
 20
18.1474
 11
-64.6791
 21
17.7784
  0
LINE
  8
0
 10
-64.6791
 20
17.7784
 11
-64.1289
 21
17.4759
  0
LINE
  8
0
 10
-64.1289
 20
17.4759
 11
-63.5451
 21
17.2447
  0
LINE
  8
0
 10
-63.5451
 20
17.2447
 11
-62.9369
 21
17.0886
  0
LINE
  8
0
 10
-62.9369
 20
17.0886
 11
-62.3139
 21
17.0099
  0
LINE
  8
0
 10
-62.3139
 20
17.0099
 11
62.3139
 21
17.0099
  0
LINE
  8
0
 10
62.3139
 20
17.0099
 11
62.9369
 21
17.0886
  0
LINE
  8
0
 10
44.9058
 20
22.503
 11
44.7189
 21
22.5266
  0
LINE
  8
0
 10
44.7189
 20
22.5266
 11
44.5365
 21
22.5734
  0
LINE
  8
0
 10
44.5365
 20
22.5734
 11
44.3613
 21
22.6428
  0
LINE
  8
0
 10
44.3613
 20
22.6428
 11
44.1963
 21
22.7335
  0
LINE
  8
0
 10
44.1963
 20
22.7335
 11
44.0439
 21
22.8442
  0
LINE
  8
0
 10
44.0439
 20
22.8442
 11
43.9065
 21
22.9732
  0
LINE
  8
0
 10
43.9065
 20
22.9732
 11
43.7865
 21
23.1183
  0
LINE
  8
0
 10
43.7865
 20
23.1183
 11
43.6855
 21
23.2774
  0
LINE
  8
0
 10
43.6855
 20
23.2774
 11
43.6053
 21
23.4478
  0
LINE
  8
0
 10
43.6053
 20
23.4478
 11
43.5471
 21
23.627
  0
LINE
  8
0
 10
43.5471
 20
23.627
 11
43.5118
 21
23.812
  0
LINE
  8
0
 10
43.5118
 20
23.812
 11
43.5
 21
24
  0
LINE
  8
0
 10
43.5
 20
24
 11
43.5118
 21
24.188
  0
LINE
  8
0
 10
43.5118
 20
24.188
 11
43.5471
 21
24.373
  0
LINE
  8
0
 10
43.5471
 20
24.373
 11
43.6053
 21
24.5522
  0
LINE
  8
0
 10
43.6053
 20
24.5522
 11
43.6855
 21
24.7226
  0
LINE
  8
0
 10
43.6855
 20
24.7226
 11
43.7865
 21
24.8817
  0
LINE
  8
0
 10
43.7865
 20
24.8817
 11
43.9065
 21
25.0268
  0
LINE
  8
0
 10
43.9065
 20
25.0268
 11
44.0439
 21
25.1558
  0
LINE
  8
0
 10
44.0439
 20
25.1558
 11
44.1963
 21
25.2665
  0
LINE
  8
0
 10
44.1963
 20
25.2665
 11
44.3613
 21
25.3572
  0
LINE
  8
0
 10
44.3613
 20
25.3572
 11
44.5365
 21
25.4266
  0
LINE
  8
0
 10
44.5365
 20
25.4266
 11
44.7189
 21
25.4734
  0
LINE
  8
0
 10
44.7189
 20
25.4734
 11
44.9058
 21
25.497
  0
LINE
  8
0
 10
44.9058
 20
25.497
 11
45.0942
 21
25.497
  0
LINE
  8
0
 10
45.0942
 20
25.497
 11
45.2811
 21
25.4734
  0
LINE
  8
0
 10
45.2811
 20
25.4734
 11
45.4635
 21
25.4266
  0
LINE
  8
0
 10
45.4635
 20
25.4266
 11
45.6387
 21
25.3572
  0
LINE
  8
0
 10
45.6387
 20
25.3572
 11
45.8037
 21
25.2665
  0
LINE
  8
0
 10
45.8037
 20
25.2665
 11
45.9561
 21
25.1558
  0
LINE
  8
0
 10
45.9561
 20
25.1558
 11
46.0934
 21
25.0268
  0
LINE
  8
0
 10
46.0934
 20
25.0268
 11
46.2135
 21
24.8817
  0
LINE
  8
0
 10
46.2135
 20
24.8817
 11
46.3145
 21
24.7226
  0
LINE
  8
0
 10
46.3145
 20
24.7226
 11
46.3947
 21
24.5522
  0
LINE
  8
0
 10
46.3947
 20
24.5522
 11
46.4529
 21
24.373
  0
LINE
  8
0
 10
46.4529
 20
24.373
 11
46.4882
 21
24.188
  0
LINE
  8
0
 10
46.4882
 20
24.188
 11
46.5
 21
24
  0
LINE
  8
0
 10
46.5
 20
24
 11
46.4882
 21
23.812
  0
LINE
  8
0
 10
46.4882
 20
23.812
 11
46.4529
 21
23.627
  0
LINE
  8
0
 10
46.4529
 20
23.627
 11
46.3947
 21
23.4478
  0
LINE
  8
0
 10
46.3947
 20
23.4478
 11
46.3145
 21
23.2774
  0
LINE
  8
0
 10
46.3145
 20
23.2774
 11
46.2135
 21
23.1183
  0
LINE
  8
0
 10
46.2135
 20
23.1183
 11
46.0934
 21
22.9732
  0
LINE
  8
0
 10
46.0934
 20
22.9732
 11
45.9561
 21
22.8442
  0
LINE
  8
0
 10
45.9561
 20
22.8442
 11
45.8037
 21
22.7335
  0
LINE
  8
0
 10
45.8037
 20
22.7335
 11
45.6387
 21
22.6428
  0
LINE
  8
0
 10
45.6387
 20
22.6428
 11
45.4635
 21
22.5734
  0
LINE
  8
0
 10
45.4635
 20
22.5734
 11
45.2811
 21
22.5266
  0
LINE
  8
0
 10
45.2811
 20
22.5266
 11
45.0942
 21
22.503
  0
LINE
  8
0
 10
45.0942
 20
22.503
 11
44.9058
 21
22.503
  0
LINE
  8
0
 10
29.9058
 20
22.503
 11
29.7189
 21
22.5266
  0
LINE
  8
0
 10
29.7189
 20
22.5266
 11
29.5365
 21
22.5734
  0
LINE
  8
0
 10
29.5365
 20
22.5734
 11
29.3613
 21
22.6428
  0
LINE
  8
0
 10
29.3613
 20
22.6428
 11
29.1963
 21
22.7335
  0
LINE
  8
0
 10
29.1963
 20
22.7335
 11
29.0439
 21
22.8442
  0
LINE
  8
0
 10
29.0439
 20
22.8442
 11
28.9065
 21
22.9732
  0
LINE
  8
0
 10
28.9065
 20
22.9732
 11
28.7865
 21
23.1183
  0
LINE
  8
0
 10
28.7865
 20
23.1183
 11
28.6855
 21
23.2774
  0
LINE
  8
0
 10
28.6855
 20
23.2774
 11
28.6053
 21
23.4478
  0
LINE
  8
0
 10
28.6053
 20
23.4478
 11
28.5471
 21
23.627
  0
LINE
  8
0
 10
28.5471
 20
23.627
 11
28.5118
 21
23.812
  0
LINE
  8
0
 10
28.5118
 20
23.812
 11
28.5
 21
24
  0
LINE
  8
0
 10
28.5
 20
24
 11
28.5118
 21
24.188
  0
LINE
  8
0
 10
28.5118
 20
24.188
 11
28.5471
 21
24.373
  0
LINE
  8
0
 10
28.5471
 20
24.373
 11
28.6053
 21
24.5522
  0
LINE
  8
0
 10
28.6053
 20
24.5522
 11
28.6855
 21
24.7226
  0
LINE
  8
0
 10
28.6855
 20
24.7226
 11
28.7865
 21
24.8817
  0
LINE
  8
0
 10
28.7865
 20
24.8817
 11
28.9065
 21
25.0268
  0
LINE
  8
0
 10
28.9065
 20
25.0268
 11
29.0439
 21
25.1558
  0
LINE
  8
0
 10
29.0439
 20
25.1558
 11
29.1963
 21
25.2665
  0
LINE
  8
0
 10
29.1963
 20
25.2665
 11
29.3613
 21
25.3572
  0
LINE
  8
0
 10
29.3613
 20
25.3572
 11
29.5365
 21
25.4266
  0
LINE
  8
0
 10
29.5365
 20
25.4266
 11
29.7189
 21
25.4734
  0
LINE
  8
0
 10
29.7189
 20
25.4734
 11
29.9058
 21
25.497
  0
LINE
  8
0
 10
29.9058
 20
25.497
 11
30.0942
 21
25.497
  0
LINE
  8
0
 10
30.0942
 20
25.497
 11
30.2811
 21
25.4734
  0
LINE
  8
0
 10
30.2811
 20
25.4734
 11
30.4635
 21
25.4266
  0
LINE
  8
0
 10
30.4635
 20
25.4266
 11
30.6387
 21
25.3572
  0
LINE
  8
0
 10
30.6387
 20
25.3572
 11
30.8037
 21
25.2665
  0
LINE
  8
0
 10
30.8037
 20
25.2665
 11
30.9561
 21
25.1558
  0
LINE
  8
0
 10
30.9561
 20
25.1558
 11
31.0934
 21
25.0268
  0
LINE
  8
0
 10
31.0934
 20
25.0268
 11
31.2135
 21
24.8817
  0
LINE
  8
0
 10
31.2135
 20
24.8817
 11
31.3145
 21
24.7226
  0
LINE
  8
0
 10
31.3145
 20
24.7226
 11
31.3947
 21
24.5522
  0
LINE
  8
0
 10
31.3947
 20
24.5522
 11
31.4529
 21
24.373
  0
LINE
  8
0
 10
31.4529
 20
24.373
 11
31.4882
 21
24.188
  0
LINE
  8
0
 10
31.4882
 20
24.188
 11
31.5
 21
24
  0
LINE
  8
0
 10
31.5
 20
24
 11
31.4882
 21
23.812
  0
LINE
  8
0
 10
31.4882
 20
23.812
 11
31.4529
 21
23.627
  0
LINE
  8
0
 10
31.4529
 20
23.627
 11
31.3947
 21
23.4478
  0
LINE
  8
0
 10
31.3947
 20
23.4478
 11
31.3145
 21
23.2774
  0
LINE
  8
0
 10
31.3145
 20
23.2774
 11
31.2135
 21
23.1183
  0
LINE
  8
0
 10
31.2135
 20
23.1183
 11
31.0934
 21
22.9732
  0
LINE
  8
0
 10
31.0934
 20
22.9732
 11
30.9561
 21
22.8442
  0
LINE
  8
0
 10
30.9561
 20
22.8442
 11
30.8037
 21
22.7335
  0
LINE
  8
0
 10
30.8037
 20
22.7335
 11
30.6387
 21
22.6428
  0
LINE
  8
0
 10
30.6387
 20
22.6428
 11
30.4635
 21
22.5734
  0
LINE
  8
0
 10
30.4635
 20
22.5734
 11
30.2811
 21
22.5266
  0
LINE
  8
0
 10
30.2811
 20
22.5266
 11
30.0942
 21
22.503
  0
LINE
  8
0
 10
30.0942
 20
22.503
 11
29.9058
 21
22.503
  0
LINE
  8
0
 10
52.4058
 20
22.503
 11
52.2189
 21
22.5266
  0
LINE
  8
0
 10
52.2189
 20
22.5266
 11
52.0365
 21
22.5734
  0
LINE
  8
0
 10
52.0365
 20
22.5734
 11
51.8613
 21
22.6428
  0
LINE
  8
0
 10
51.8613
 20
22.6428
 11
51.6963
 21
22.7335
  0
LINE
  8
0
 10
51.6963
 20
22.7335
 11
51.5439
 21
22.8442
  0
LINE
  8
0
 10
51.5439
 20
22.8442
 11
51.4065
 21
22.9732
  0
LINE
  8
0
 10
51.4065
 20
22.9732
 11
51.2865
 21
23.1183
  0
LINE
  8
0
 10
51.2865
 20
23.1183
 11
51.1855
 21
23.2774
  0
LINE
  8
0
 10
51.1855
 20
23.2774
 11
51.1053
 21
23.4478
  0
LINE
  8
0
 10
51.1053
 20
23.4478
 11
51.0471
 21
23.627
  0
LINE
  8
0
 10
51.0471
 20
23.627
 11
51.0118
 21
23.812
  0
LINE
  8
0
 10
51.0118
 20
23.812
 11
51
 21
24
  0
LINE
  8
0
 10
51
 20
24
 11
51.0118
 21
24.188
  0
LINE
  8
0
 10
51.0118
 20
24.188
 11
51.0471
 21
24.373
  0
LINE
  8
0
 10
51.0471
 20
24.373
 11
51.1053
 21
24.5522
  0
LINE
  8
0
 10
51.1053
 20
24.5522
 11
51.1855
 21
24.7226
  0
LINE
  8
0
 10
51.1855
 20
24.7226
 11
51.2865
 21
24.8817
  0
LINE
  8
0
 10
51.2865
 20
24.8817
 11
51.4065
 21
25.0268
  0
LINE
  8
0
 10
51.4065
 20
25.0268
 11
51.5439
 21
25.1558
  0
LINE
  8
0
 10
51.5439
 20
25.1558
 11
51.6963
 21
25.2665
  0
LINE
  8
0
 10
51.6963
 20
25.2665
 11
51.8613
 21
25.3572
  0
LINE
  8
0
 10
51.8613
 20
25.3572
 11
52.0365
 21
25.4266
  0
LINE
  8
0
 10
52.0365
 20
25.4266
 11
52.2189
 21
25.4734
  0
LINE
  8
0
 10
52.2189
 20
25.4734
 11
52.4058
 21
25.497
  0
LINE
  8
0
 10
52.4058
 20
25.497
 11
52.5942
 21
25.497
  0
LINE
  8
0
 10
52.5942
 20
25.497
 11
52.7811
 21
25.4734
  0
LINE
  8
0
 10
52.7811
 20
25.4734
 11
52.9635
 21
25.4266
  0
LINE
  8
0
 10
52.9635
 20
25.4266
 11
53.1387
 21
25.3572
  0
LINE
  8
0
 10
53.1387
 20
25.3572
 11
53.3037
 21
25.2665
  0
LINE
  8
0
 10
53.3037
 20
25.2665
 11
53.4561
 21
25.1558
  0
LINE
  8
0
 10
53.4561
 20
25.1558
 11
53.5934
 21
25.0268
  0
LINE
  8
0
 10
53.5934
 20
25.0268
 11
53.7135
 21
24.8817
  0
LINE
  8
0
 10
53.7135
 20
24.8817
 11
53.8145
 21
24.7226
  0
LINE
  8
0
 10
53.8145
 20
24.7226
 11
53.8947
 21
24.5522
  0
LINE
  8
0
 10
53.8947
 20
24.5522
 11
53.9529
 21
24.373
  0
LINE
  8
0
 10
53.9529
 20
24.373
 11
53.9882
 21
24.188
  0
LINE
  8
0
 10
53.9882
 20
24.188
 11
54
 21
24
  0
LINE
  8
0
 10
54
 20
24
 11
53.9882
 21
23.812
  0
LINE
  8
0
 10
53.9882
 20
23.812
 11
53.9529
 21
23.627
  0
LINE
  8
0
 10
53.9529
 20
23.627
 11
53.8947
 21
23.4478
  0
LINE
  8
0
 10
53.8947
 20
23.4478
 11
53.8145
 21
23.2774
  0
LINE
  8
0
 10
53.8145
 20
23.2774
 11
53.7135
 21
23.1183
  0
LINE
  8
0
 10
53.7135
 20
23.1183
 11
53.5934
 21
22.9732
  0
LINE
  8
0
 10
53.5934
 20
22.9732
 11
53.4561
 21
22.8442
  0
LINE
  8
0
 10
53.4561
 20
22.8442
 11
53.3037
 21
22.7335
  0
LINE
  8
0
 10
53.3037
 20
22.7335
 11
53.1387
 21
22.6428
  0
LINE
  8
0
 10
53.1387
 20
22.6428
 11
52.9635
 21
22.5734
  0
LINE
  8
0
 10
52.9635
 20
22.5734
 11
52.7811
 21
22.5266
  0
LINE
  8
0
 10
52.7811
 20
22.5266
 11
52.5942
 21
22.503
  0
LINE
  8
0
 10
52.5942
 20
22.503
 11
52.4058
 21
22.503
  0
LINE
  8
0
 10
22.4058
 20
22.503
 11
22.2189
 21
22.5266
  0
LINE
  8
0
 10
22.2189
 20
22.5266
 11
22.0365
 21
22.5734
  0
LINE
  8
0
 10
22.0365
 20
22.5734
 11
21.8613
 21
22.6428
  0
LINE
  8
0
 10
21.8613
 20
22.6428
 11
21.6963
 21
22.7335
  0
LINE
  8
0
 10
21.6963
 20
22.7335
 11
21.5439
 21
22.8442
  0
LINE
  8
0
 10
21.5439
 20
22.8442
 11
21.4065
 21
22.9732
  0
LINE
  8
0
 10
21.4065
 20
22.9732
 11
21.2865
 21
23.1183
  0
LINE
  8
0
 10
21.2865
 20
23.1183
 11
21.1855
 21
23.2774
  0
LINE
  8
0
 10
21.1855
 20
23.2774
 11
21.1053
 21
23.4478
  0
LINE
  8
0
 10
21.1053
 20
23.4478
 11
21.0471
 21
23.627
  0
LINE
  8
0
 10
21.0471
 20
23.627
 11
21.0118
 21
23.812
  0
LINE
  8
0
 10
21.0118
 20
23.812
 11
21
 21
24
  0
LINE
  8
0
 10
21
 20
24
 11
21.0118
 21
24.188
  0
LINE
  8
0
 10
21.0118
 20
24.188
 11
21.0471
 21
24.373
  0
LINE
  8
0
 10
21.0471
 20
24.373
 11
21.1053
 21
24.5522
  0
LINE
  8
0
 10
21.1053
 20
24.5522
 11
21.1855
 21
24.7226
  0
LINE
  8
0
 10
21.1855
 20
24.7226
 11
21.2865
 21
24.8817
  0
LINE
  8
0
 10
21.2865
 20
24.8817
 11
21.4065
 21
25.0268
  0
LINE
  8
0
 10
21.4065
 20
25.0268
 11
21.5439
 21
25.1558
  0
LINE
  8
0
 10
21.5439
 20
25.1558
 11
21.6963
 21
25.2665
  0
LINE
  8
0
 10
21.6963
 20
25.2665
 11
21.8613
 21
25.3572
  0
LINE
  8
0
 10
21.8613
 20
25.3572
 11
22.0365
 21
25.4266
  0
LINE
  8
0
 10
22.0365
 20
25.4266
 11
22.2189
 21
25.4734
  0
LINE
  8
0
 10
22.2189
 20
25.4734
 11
22.4058
 21
25.497
  0
LINE
  8
0
 10
22.4058
 20
25.497
 11
22.5942
 21
25.497
  0
LINE
  8
0
 10
22.5942
 20
25.497
 11
22.7811
 21
25.4734
  0
LINE
  8
0
 10
22.7811
 20
25.4734
 11
22.9635
 21
25.4266
  0
LINE
  8
0
 10
22.9635
 20
25.4266
 11
23.1387
 21
25.3572
  0
LINE
  8
0
 10
23.1387
 20
25.3572
 11
23.3037
 21
25.2665
  0
LINE
  8
0
 10
23.3037
 20
25.2665
 11
23.4561
 21
25.1558
  0
LINE
  8
0
 10
23.4561
 20
25.1558
 11
23.5934
 21
25.0268
  0
LINE
  8
0
 10
23.5934
 20
25.0268
 11
23.7135
 21
24.8817
  0
LINE
  8
0
 10
23.7135
 20
24.8817
 11
23.8145
 21
24.7226
  0
LINE
  8
0
 10
23.8145
 20
24.7226
 11
23.8947
 21
24.5522
  0
LINE
  8
0
 10
23.8947
 20
24.5522
 11
23.9529
 21
24.373
  0
LINE
  8
0
 10
23.9529
 20
24.373
 11
23.9882
 21
24.188
  0
LINE
  8
0
 10
23.9882
 20
24.188
 11
24
 21
24
  0
LINE
  8
0
 10
24
 20
24
 11
23.9882
 21
23.812
  0
LINE
  8
0
 10
23.9882
 20
23.812
 11
23.9529
 21
23.627
  0
LINE
  8
0
 10
23.9529
 20
23.627
 11
23.8947
 21
23.4478
  0
LINE
  8
0
 10
23.8947
 20
23.4478
 11
23.8145
 21
23.2774
  0
LINE
  8
0
 10
23.8145
 20
23.2774
 11
23.7135
 21
23.1183
  0
LINE
  8
0
 10
23.7135
 20
23.1183
 11
23.5934
 21
22.9732
  0
LINE
  8
0
 10
23.5934
 20
22.9732
 11
23.4561
 21
22.8442
  0
LINE
  8
0
 10
23.4561
 20
22.8442
 11
23.3037
 21
22.7335
  0
LINE
  8
0
 10
23.3037
 20
22.7335
 11
23.1387
 21
22.6428
  0
LINE
  8
0
 10
23.1387
 20
22.6428
 11
22.9635
 21
22.5734
  0
LINE
  8
0
 10
22.9635
 20
22.5734
 11
22.7811
 21
22.5266
  0
LINE
  8
0
 10
22.7811
 20
22.5266
 11
22.5942
 21
22.503
  0
LINE
  8
0
 10
22.5942
 20
22.503
 11
22.4058
 21
22.503
  0
LINE
  8
0
 10
59.9058
 20
22.503
 11
59.7189
 21
22.5266
  0
LINE
  8
0
 10
59.7189
 20
22.5266
 11
59.5365
 21
22.5734
  0
LINE
  8
0
 10
59.5365
 20
22.5734
 11
59.3613
 21
22.6428
  0
LINE
  8
0
 10
59.3613
 20
22.6428
 11
59.1963
 21
22.7335
  0
LINE
  8
0
 10
59.1963
 20
22.7335
 11
59.0439
 21
22.8442
  0
LINE
  8
0
 10
59.0439
 20
22.8442
 11
58.9065
 21
22.9732
  0
LINE
  8
0
 10
58.9065
 20
22.9732
 11
58.7865
 21
23.1183
  0
LINE
  8
0
 10
58.7865
 20
23.1183
 11
58.6855
 21
23.2774
  0
LINE
  8
0
 10
58.6855
 20
23.2774
 11
58.6053
 21
23.4478
  0
LINE
  8
0
 10
58.6053
 20
23.4478
 11
58.5471
 21
23.627
  0
LINE
  8
0
 10
58.5471
 20
23.627
 11
58.5118
 21
23.812
  0
LINE
  8
0
 10
58.5118
 20
23.812
 11
58.5
 21
24
  0
LINE
  8
0
 10
58.5
 20
24
 11
58.5118
 21
24.188
  0
LINE
  8
0
 10
58.5118
 20
24.188
 11
58.5471
 21
24.373
  0
LINE
  8
0
 10
58.5471
 20
24.373
 11
58.6053
 21
24.5522
  0
LINE
  8
0
 10
58.6053
 20
24.5522
 11
58.6855
 21
24.7226
  0
LINE
  8
0
 10
58.6855
 20
24.7226
 11
58.7865
 21
24.8817
  0
LINE
  8
0
 10
58.7865
 20
24.8817
 11
58.9065
 21
25.0268
  0
LINE
  8
0
 10
58.9065
 20
25.0268
 11
59.0439
 21
25.1558
  0
LINE
  8
0
 10
59.0439
 20
25.1558
 11
59.1963
 21
25.2665
  0
LINE
  8
0
 10
59.1963
 20
25.2665
 11
59.3613
 21
25.3572
  0
LINE
  8
0
 10
59.3613
 20
25.3572
 11
59.5365
 21
25.4266
  0
LINE
  8
0
 10
59.5365
 20
25.4266
 11
59.7189
 21
25.4734
  0
LINE
  8
0
 10
59.7189
 20
25.4734
 11
59.9058
 21
25.497
  0
LINE
  8
0
 10
59.9058
 20
25.497
 11
60.0942
 21
25.497
  0
LINE
  8
0
 10
60.0942
 20
25.497
 11
60.2811
 21
25.4734
  0
LINE
  8
0
 10
60.2811
 20
25.4734
 11
60.4635
 21
25.4266
  0
LINE
  8
0
 10
60.4635
 20
25.4266
 11
60.6387
 21
25.3572
  0
LINE
  8
0
 10
60.6387
 20
25.3572
 11
60.8037
 21
25.2665
  0
LINE
  8
0
 10
60.8037
 20
25.2665
 11
60.9561
 21
25.1558
  0
LINE
  8
0
 10
60.9561
 20
25.1558
 11
61.0934
 21
25.0268
  0
LINE
  8
0
 10
61.0934
 20
25.0268
 11
61.2135
 21
24.8817
  0
LINE
  8
0
 10
61.2135
 20
24.8817
 11
61.3145
 21
24.7226
  0
LINE
  8
0
 10
61.3145
 20
24.7226
 11
61.3947
 21
24.5522
  0
LINE
  8
0
 10
61.3947
 20
24.5522
 11
61.4529
 21
24.373
  0
LINE
  8
0
 10
61.4529
 20
24.373
 11
61.4882
 21
24.188
  0
LINE
  8
0
 10
61.4882
 20
24.188
 11
61.5
 21
24
  0
LINE
  8
0
 10
61.5
 20
24
 11
61.4882
 21
23.812
  0
LINE
  8
0
 10
61.4882
 20
23.812
 11
61.4529
 21
23.627
  0
LINE
  8
0
 10
61.4529
 20
23.627
 11
61.3947
 21
23.4478
  0
LINE
  8
0
 10
61.3947
 20
23.4478
 11
61.3145
 21
23.2774
  0
LINE
  8
0
 10
61.3145
 20
23.2774
 11
61.2135
 21
23.1183
  0
LINE
  8
0
 10
61.2135
 20
23.1183
 11
61.0934
 21
22.9732
  0
LINE
  8
0
 10
61.0934
 20
22.9732
 11
60.9561
 21
22.8442
  0
LINE
  8
0
 10
60.9561
 20
22.8442
 11
60.8037
 21
22.7335
  0
LINE
  8
0
 10
60.8037
 20
22.7335
 11
60.6387
 21
22.6428
  0
LINE
  8
0
 10
60.6387
 20
22.6428
 11
60.4635
 21
22.5734
  0
LINE
  8
0
 10
60.4635
 20
22.5734
 11
60.2811
 21
22.5266
  0
LINE
  8
0
 10
60.2811
 20
22.5266
 11
60.0942
 21
22.503
  0
LINE
  8
0
 10
60.0942
 20
22.503
 11
59.9058
 21
22.503
  0
LINE
  8
0
 10
14.9058
 20
22.503
 11
14.7189
 21
22.5266
  0
LINE
  8
0
 10
14.7189
 20
22.5266
 11
14.5365
 21
22.5734
  0
LINE
  8
0
 10
14.5365
 20
22.5734
 11
14.3613
 21
22.6428
  0
LINE
  8
0
 10
14.3613
 20
22.6428
 11
14.1963
 21
22.7335
  0
LINE
  8
0
 10
14.1963
 20
22.7335
 11
14.0439
 21
22.8442
  0
LINE
  8
0
 10
14.0439
 20
22.8442
 11
13.9065
 21
22.9732
  0
LINE
  8
0
 10
13.9065
 20
22.9732
 11
13.7865
 21
23.1183
  0
LINE
  8
0
 10
13.7865
 20
23.1183
 11
13.6855
 21
23.2774
  0
LINE
  8
0
 10
13.6855
 20
23.2774
 11
13.6053
 21
23.4478
  0
LINE
  8
0
 10
13.6053
 20
23.4478
 11
13.5471
 21
23.627
  0
LINE
  8
0
 10
13.5471
 20
23.627
 11
13.5118
 21
23.812
  0
LINE
  8
0
 10
13.5118
 20
23.812
 11
13.5
 21
24
  0
LINE
  8
0
 10
13.5
 20
24
 11
13.5118
 21
24.188
  0
LINE
  8
0
 10
13.5118
 20
24.188
 11
13.5471
 21
24.373
  0
LINE
  8
0
 10
13.5471
 20
24.373
 11
13.6053
 21
24.5522
  0
LINE
  8
0
 10
13.6053
 20
24.5522
 11
13.6855
 21
24.7226
  0
LINE
  8
0
 10
13.6855
 20
24.7226
 11
13.7865
 21
24.8817
  0
LINE
  8
0
 10
13.7865
 20
24.8817
 11
13.9065
 21
25.0268
  0
LINE
  8
0
 10
13.9065
 20
25.0268
 11
14.0439
 21
25.1558
  0
LINE
  8
0
 10
14.0439
 20
25.1558
 11
14.1963
 21
25.2665
  0
LINE
  8
0
 10
14.1963
 20
25.2665
 11
14.3613
 21
25.3572
  0
LINE
  8
0
 10
14.3613
 20
25.3572
 11
14.5365
 21
25.4266
  0
LINE
  8
0
 10
14.5365
 20
25.4266
 11
14.7189
 21
25.4734
  0
LINE
  8
0
 10
14.7189
 20
25.4734
 11
14.9058
 21
25.497
  0
LINE
  8
0
 10
14.9058
 20
25.497
 11
15.0942
 21
25.497
  0
LINE
  8
0
 10
15.0942
 20
25.497
 11
15.2811
 21
25.4734
  0
LINE
  8
0
 10
15.2811
 20
25.4734
 11
15.4635
 21
25.4266
  0
LINE
  8
0
 10
15.4635
 20
25.4266
 11
15.6387
 21
25.3572
  0
LINE
  8
0
 10
15.6387
 20
25.3572
 11
15.8037
 21
25.2665
  0
LINE
  8
0
 10
15.8037
 20
25.2665
 11
15.9561
 21
25.1558
  0
LINE
  8
0
 10
15.9561
 20
25.1558
 11
16.0934
 21
25.0268
  0
LINE
  8
0
 10
16.0934
 20
25.0268
 11
16.2135
 21
24.8817
  0
LINE
  8
0
 10
16.2135
 20
24.8817
 11
16.3145
 21
24.7226
  0
LINE
  8
0
 10
16.3145
 20
24.7226
 11
16.3947
 21
24.5522
  0
LINE
  8
0
 10
16.3947
 20
24.5522
 11
16.4529
 21
24.373
  0
LINE
  8
0
 10
16.4529
 20
24.373
 11
16.4882
 21
24.188
  0
LINE
  8
0
 10
16.4882
 20
24.188
 11
16.5
 21
24
  0
LINE
  8
0
 10
16.5
 20
24
 11
16.4882
 21
23.812
  0
LINE
  8
0
 10
16.4882
 20
23.812
 11
16.4529
 21
23.627
  0
LINE
  8
0
 10
16.4529
 20
23.627
 11
16.3947
 21
23.4478
  0
LINE
  8
0
 10
16.3947
 20
23.4478
 11
16.3145
 21
23.2774
  0
LINE
  8
0
 10
16.3145
 20
23.2774
 11
16.2135
 21
23.1183
  0
LINE
  8
0
 10
16.2135
 20
23.1183
 11
16.0934
 21
22.9732
  0
LINE
  8
0
 10
16.0934
 20
22.9732
 11
15.9561
 21
22.8442
  0
LINE
  8
0
 10
15.9561
 20
22.8442
 11
15.8037
 21
22.7335
  0
LINE
  8
0
 10
15.8037
 20
22.7335
 11
15.6387
 21
22.6428
  0
LINE
  8
0
 10
15.6387
 20
22.6428
 11
15.4635
 21
22.5734
  0
LINE
  8
0
 10
15.4635
 20
22.5734
 11
15.2811
 21
22.5266
  0
LINE
  8
0
 10
15.2811
 20
22.5266
 11
15.0942
 21
22.503
  0
LINE
  8
0
 10
15.0942
 20
22.503
 11
14.9058
 21
22.503
  0
LINE
  8
0
 10
7.40581
 20
22.503
 11
7.21892
 21
22.5266
  0
LINE
  8
0
 10
7.21892
 20
22.5266
 11
7.03647
 21
22.5734
  0
LINE
  8
0
 10
7.03647
 20
22.5734
 11
6.86133
 21
22.6428
  0
LINE
  8
0
 10
6.86133
 20
22.6428
 11
6.69626
 21
22.7335
  0
LINE
  8
0
 10
6.69626
 20
22.7335
 11
6.54385
 21
22.8442
  0
LINE
  8
0
 10
6.54385
 20
22.8442
 11
6.40654
 21
22.9732
  0
LINE
  8
0
 10
6.40654
 20
22.9732
 11
6.28647
 21
23.1183
  0
LINE
  8
0
 10
6.28647
 20
23.1183
 11
6.18553
 21
23.2774
  0
LINE
  8
0
 10
6.18553
 20
23.2774
 11
6.10533
 21
23.4478
  0
LINE
  8
0
 10
6.10533
 20
23.4478
 11
6.04712
 21
23.627
  0
LINE
  8
0
 10
6.04712
 20
23.627
 11
6.01183
 21
23.812
  0
LINE
  8
0
 10
6.01183
 20
23.812
 11
6
 21
24
  0
LINE
  8
0
 10
6
 20
24
 11
6.01183
 21
24.188
  0
LINE
  8
0
 10
6.01183
 20
24.188
 11
6.04712
 21
24.373
  0
LINE
  8
0
 10
6.04712
 20
24.373
 11
6.10533
 21
24.5522
  0
LINE
  8
0
 10
6.10533
 20
24.5522
 11
6.18553
 21
24.7226
  0
LINE
  8
0
 10
6.18553
 20
24.7226
 11
6.28647
 21
24.8817
  0
LINE
  8
0
 10
6.28647
 20
24.8817
 11
6.40654
 21
25.0268
  0
LINE
  8
0
 10
6.40654
 20
25.0268
 11
6.54385
 21
25.1558
  0
LINE
  8
0
 10
6.54385
 20
25.1558
 11
6.69626
 21
25.2665
  0
LINE
  8
0
 10
6.69626
 20
25.2665
 11
6.86133
 21
25.3572
  0
LINE
  8
0
 10
6.86133
 20
25.3572
 11
7.03647
 21
25.4266
  0
LINE
  8
0
 10
7.03647
 20
25.4266
 11
7.21892
 21
25.4734
  0
LINE
  8
0
 10
7.21892
 20
25.4734
 11
7.40581
 21
25.497
  0
LINE
  8
0
 10
7.40581
 20
25.497
 11
7.59418
 21
25.497
  0
LINE
  8
0
 10
7.59418
 20
25.497
 11
7.78107
 21
25.4734
  0
LINE
  8
0
 10
7.78107
 20
25.4734
 11
7.96352
 21
25.4266
  0
LINE
  8
0
 10
7.96352
 20
25.4266
 11
8.13866
 21
25.3572
  0
LINE
  8
0
 10
8.13866
 20
25.3572
 11
8.30373
 21
25.2665
  0
LINE
  8
0
 10
8.30373
 20
25.2665
 11
8.45613
 21
25.1558
  0
LINE
  8
0
 10
8.45613
 20
25.1558
 11
8.59344
 21
25.0268
  0
LINE
  8
0
 10
8.59344
 20
25.0268
 11
8.71352
 21
24.8817
  0
LINE
  8
0
 10
8.71352
 20
24.8817
 11
8.81445
 21
24.7226
  0
LINE
  8
0
 10
8.81445
 20
24.7226
 11
8.89465
 21
24.5522
  0
LINE
  8
0
 10
8.89465
 20
24.5522
 11
8.95287
 21
24.373
  0
LINE
  8
0
 10
8.95287
 20
24.373
 11
8.98816
 21
24.188
  0
LINE
  8
0
 10
8.98816
 20
24.188
 11
9
 21
24
  0
LINE
  8
0
 10
9
 20
24
 11
8.98816
 21
23.812
  0
LINE
  8
0
 10
8.98816
 20
23.812
 11
8.95287
 21
23.627
  0
LINE
  8
0
 10
8.95287
 20
23.627
 11
8.89465
 21
23.4478
  0
LINE
  8
0
 10
8.89465
 20
23.4478
 11
8.81445
 21
23.2774
  0
LINE
  8
0
 10
8.81445
 20
23.2774
 11
8.71352
 21
23.1183
  0
LINE
  8
0
 10
8.71352
 20
23.1183
 11
8.59344
 21
22.9732
  0
LINE
  8
0
 10
8.59344
 20
22.9732
 11
8.45613
 21
22.8442
  0
LINE
  8
0
 10
8.45613
 20
22.8442
 11
8.30373
 21
22.7335
  0
LINE
  8
0
 10
8.30373
 20
22.7335
 11
8.13866
 21
22.6428
  0
LINE
  8
0
 10
8.13866
 20
22.6428
 11
7.96352
 21
22.5734
  0
LINE
  8
0
 10
7.96352
 20
22.5734
 11
7.78107
 21
22.5266
  0
LINE
  8
0
 10
7.78107
 20
22.5266
 11
7.59418
 21
22.503
  0
LINE
  8
0
 10
7.59418
 20
22.503
 11
7.40581
 21
22.503
  0
LINE
  8
0
 10
37.4058
 20
22.503
 11
37.2189
 21
22.5266
  0
LINE
  8
0
 10
37.2189
 20
22.5266
 11
37.0365
 21
22.5734
  0
LINE
  8
0
 10
37.0365
 20
22.5734
 11
36.8613
 21
22.6428
  0
LINE
  8
0
 10
36.8613
 20
22.6428
 11
36.6963
 21
22.7335
  0
LINE
  8
0
 10
36.6963
 20
22.7335
 11
36.5439
 21
22.8442
  0
LINE
  8
0
 10
36.5439
 20
22.8442
 11
36.4065
 21
22.9732
  0
LINE
  8
0
 10
36.4065
 20
22.9732
 11
36.2865
 21
23.1183
  0
LINE
  8
0
 10
36.2865
 20
23.1183
 11
36.1855
 21
23.2774
  0
LINE
  8
0
 10
36.1855
 20
23.2774
 11
36.1053
 21
23.4478
  0
LINE
  8
0
 10
36.1053
 20
23.4478
 11
36.0471
 21
23.627
  0
LINE
  8
0
 10
36.0471
 20
23.627
 11
36.0118
 21
23.812
  0
LINE
  8
0
 10
36.0118
 20
23.812
 11
36
 21
24
  0
LINE
  8
0
 10
36
 20
24
 11
36.0118
 21
24.188
  0
LINE
  8
0
 10
36.0118
 20
24.188
 11
36.0471
 21
24.373
  0
LINE
  8
0
 10
36.0471
 20
24.373
 11
36.1053
 21
24.5522
  0
LINE
  8
0
 10
36.1053
 20
24.5522
 11
36.1855
 21
24.7226
  0
LINE
  8
0
 10
36.1855
 20
24.7226
 11
36.2865
 21
24.8817
  0
LINE
  8
0
 10
36.2865
 20
24.8817
 11
36.4065
 21
25.0268
  0
LINE
  8
0
 10
36.4065
 20
25.0268
 11
36.5439
 21
25.1558
  0
LINE
  8
0
 10
36.5439
 20
25.1558
 11
36.6963
 21
25.2665
  0
LINE
  8
0
 10
36.6963
 20
25.2665
 11
36.8613
 21
25.3572
  0
LINE
  8
0
 10
36.8613
 20
25.3572
 11
37.0365
 21
25.4266
  0
LINE
  8
0
 10
37.0365
 20
25.4266
 11
37.2189
 21
25.4734
  0
LINE
  8
0
 10
37.2189
 20
25.4734
 11
37.4058
 21
25.497
  0
LINE
  8
0
 10
37.4058
 20
25.497
 11
37.5942
 21
25.497
  0
LINE
  8
0
 10
37.5942
 20
25.497
 11
37.7811
 21
25.4734
  0
LINE
  8
0
 10
37.7811
 20
25.4734
 11
37.9635
 21
25.4266
  0
LINE
  8
0
 10
37.9635
 20
25.4266
 11
38.1387
 21
25.3572
  0
LINE
  8
0
 10
38.1387
 20
25.3572
 11
38.3037
 21
25.2665
  0
LINE
  8
0
 10
38.3037
 20
25.2665
 11
38.4561
 21
25.1558
  0
LINE
  8
0
 10
38.4561
 20
25.1558
 11
38.5934
 21
25.0268
  0
LINE
  8
0
 10
38.5934
 20
25.0268
 11
38.7135
 21
24.8817
  0
LINE
  8
0
 10
38.7135
 20
24.8817
 11
38.8145
 21
24.7226
  0
LINE
  8
0
 10
38.8145
 20
24.7226
 11
38.8947
 21
24.5522
  0
LINE
  8
0
 10
38.8947
 20
24.5522
 11
38.9529
 21
24.373
  0
LINE
  8
0
 10
38.9529
 20
24.373
 11
38.9882
 21
24.188
  0
LINE
  8
0
 10
38.9882
 20
24.188
 11
39
 21
24
  0
LINE
  8
0
 10
39
 20
24
 11
38.9882
 21
23.812
  0
LINE
  8
0
 10
38.9882
 20
23.812
 11
38.9529
 21
23.627
  0
LINE
  8
0
 10
38.9529
 20
23.627
 11
38.8947
 21
23.4478
  0
LINE
  8
0
 10
38.8947
 20
23.4478
 11
38.8145
 21
23.2774
  0
LINE
  8
0
 10
38.8145
 20
23.2774
 11
38.7135
 21
23.1183
  0
LINE
  8
0
 10
38.7135
 20
23.1183
 11
38.5934
 21
22.9732
  0
LINE
  8
0
 10
38.5934
 20
22.9732
 11
38.4561
 21
22.8442
  0
LINE
  8
0
 10
38.4561
 20
22.8442
 11
38.3037
 21
22.7335
  0
LINE
  8
0
 10
38.3037
 20
22.7335
 11
38.1387
 21
22.6428
  0
LINE
  8
0
 10
38.1387
 20
22.6428
 11
37.9635
 21
22.5734
  0
LINE
  8
0
 10
37.9635
 20
22.5734
 11
37.7811
 21
22.5266
  0
LINE
  8
0
 10
37.7811
 20
22.5266
 11
37.5942
 21
22.503
  0
LINE
  8
0
 10
37.5942
 20
22.503
 11
37.4058
 21
22.503
  0
LINE
  8
0
 10
-15.0942
 20
22.503
 11
-15.2811
 21
22.5266
  0
LINE
  8
0
 10
-15.2811
 20
22.5266
 11
-15.4635
 21
22.5734
  0
LINE
  8
0
 10
-15.4635
 20
22.5734
 11
-15.6387
 21
22.6428
  0
LINE
  8
0
 10
-15.6387
 20
22.6428
 11
-15.8037
 21
22.7335
  0
LINE
  8
0
 10
-15.8037
 20
22.7335
 11
-15.9561
 21
22.8442
  0
LINE
  8
0
 10
-15.9561
 20
22.8442
 11
-16.0934
 21
22.9732
  0
LINE
  8
0
 10
-16.0934
 20
22.9732
 11
-16.2135
 21
23.1183
  0
LINE
  8
0
 10
-16.2135
 20
23.1183
 11
-16.3145
 21
23.2774
  0
LINE
  8
0
 10
-16.3145
 20
23.2774
 11
-16.3947
 21
23.4478
  0
LINE
  8
0
 10
-16.3947
 20
23.4478
 11
-16.4529
 21
23.627
  0
LINE
  8
0
 10
-16.4529
 20
23.627
 11
-16.4882
 21
23.812
  0
LINE
  8
0
 10
-16.4882
 20
23.812
 11
-16.5
 21
24
  0
LINE
  8
0
 10
-16.5
 20
24
 11
-16.4882
 21
24.188
  0
LINE
  8
0
 10
-16.4882
 20
24.188
 11
-16.4529
 21
24.373
  0
LINE
  8
0
 10
-16.4529
 20
24.373
 11
-16.3947
 21
24.5522
  0
LINE
  8
0
 10
-16.3947
 20
24.5522
 11
-16.3145
 21
24.7226
  0
LINE
  8
0
 10
-16.3145
 20
24.7226
 11
-16.2135
 21
24.8817
  0
LINE
  8
0
 10
-16.2135
 20
24.8817
 11
-16.0934
 21
25.0268
  0
LINE
  8
0
 10
-16.0934
 20
25.0268
 11
-15.9561
 21
25.1558
  0
LINE
  8
0
 10
-15.9561
 20
25.1558
 11
-15.8037
 21
25.2665
  0
LINE
  8
0
 10
-15.8037
 20
25.2665
 11
-15.6387
 21
25.3572
  0
LINE
  8
0
 10
-15.6387
 20
25.3572
 11
-15.4635
 21
25.4266
  0
LINE
  8
0
 10
-15.4635
 20
25.4266
 11
-15.2811
 21
25.4734
  0
LINE
  8
0
 10
-15.2811
 20
25.4734
 11
-15.0942
 21
25.497
  0
LINE
  8
0
 10
-15.0942
 20
25.497
 11
-14.9058
 21
25.497
  0
LINE
  8
0
 10
-14.9058
 20
25.497
 11
-14.7189
 21
25.4734
  0
LINE
  8
0
 10
-14.7189
 20
25.4734
 11
-14.5365
 21
25.4266
  0
LINE
  8
0
 10
-14.5365
 20
25.4266
 11
-14.3613
 21
25.3572
  0
LINE
  8
0
 10
-14.3613
 20
25.3572
 11
-14.1963
 21
25.2665
  0
LINE
  8
0
 10
-14.1963
 20
25.2665
 11
-14.0439
 21
25.1558
  0
LINE
  8
0
 10
-14.0439
 20
25.1558
 11
-13.9065
 21
25.0268
  0
LINE
  8
0
 10
-13.9065
 20
25.0268
 11
-13.7865
 21
24.8817
  0
LINE
  8
0
 10
-13.7865
 20
24.8817
 11
-13.6855
 21
24.7226
  0
LINE
  8
0
 10
-13.6855
 20
24.7226
 11
-13.6053
 21
24.5522
  0
LINE
  8
0
 10
-13.6053
 20
24.5522
 11
-13.5471
 21
24.373
  0
LINE
  8
0
 10
-13.5471
 20
24.373
 11
-13.5118
 21
24.188
  0
LINE
  8
0
 10
-13.5118
 20
24.188
 11
-13.5
 21
24
  0
LINE
  8
0
 10
-13.5
 20
24
 11
-13.5118
 21
23.812
  0
LINE
  8
0
 10
-13.5118
 20
23.812
 11
-13.5471
 21
23.627
  0
LINE
  8
0
 10
-13.5471
 20
23.627
 11
-13.6053
 21
23.4478
  0
LINE
  8
0
 10
-13.6053
 20
23.4478
 11
-13.6855
 21
23.2774
  0
LINE
  8
0
 10
-13.6855
 20
23.2774
 11
-13.7865
 21
23.1183
  0
LINE
  8
0
 10
-13.7865
 20
23.1183
 11
-13.9065
 21
22.9732
  0
LINE
  8
0
 10
-13.9065
 20
22.9732
 11
-14.0439
 21
22.8442
  0
LINE
  8
0
 10
-14.0439
 20
22.8442
 11
-14.1963
 21
22.7335
  0
LINE
  8
0
 10
-14.1963
 20
22.7335
 11
-14.3613
 21
22.6428
  0
LINE
  8
0
 10
-14.3613
 20
22.6428
 11
-14.5365
 21
22.5734
  0
LINE
  8
0
 10
-14.5365
 20
22.5734
 11
-14.7189
 21
22.5266
  0
LINE
  8
0
 10
-14.7189
 20
22.5266
 11
-14.9058
 21
22.503
  0
LINE
  8
0
 10
-14.9058
 20
22.503
 11
-15.0942
 21
22.503
  0
LINE
  8
0
 10
-45.0942
 20
22.503
 11
-45.2811
 21
22.5266
  0
LINE
  8
0
 10
-45.2811
 20
22.5266
 11
-45.4635
 21
22.5734
  0
LINE
  8
0
 10
-45.4635
 20
22.5734
 11
-45.6387
 21
22.6428
  0
LINE
  8
0
 10
-45.6387
 20
22.6428
 11
-45.8037
 21
22.7335
  0
LINE
  8
0
 10
-45.8037
 20
22.7335
 11
-45.9561
 21
22.8442
  0
LINE
  8
0
 10
-45.9561
 20
22.8442
 11
-46.0934
 21
22.9732
  0
LINE
  8
0
 10
-46.0934
 20
22.9732
 11
-46.2135
 21
23.1183
  0
LINE
  8
0
 10
-46.2135
 20
23.1183
 11
-46.3145
 21
23.2774
  0
LINE
  8
0
 10
-46.3145
 20
23.2774
 11
-46.3947
 21
23.4478
  0
LINE
  8
0
 10
-46.3947
 20
23.4478
 11
-46.4529
 21
23.627
  0
LINE
  8
0
 10
-46.4529
 20
23.627
 11
-46.4882
 21
23.812
  0
LINE
  8
0
 10
-46.4882
 20
23.812
 11
-46.5
 21
24
  0
LINE
  8
0
 10
-46.5
 20
24
 11
-46.4882
 21
24.188
  0
LINE
  8
0
 10
-46.4882
 20
24.188
 11
-46.4529
 21
24.373
  0
LINE
  8
0
 10
-46.4529
 20
24.373
 11
-46.3947
 21
24.5522
  0
LINE
  8
0
 10
-46.3947
 20
24.5522
 11
-46.3145
 21
24.7226
  0
LINE
  8
0
 10
-46.3145
 20
24.7226
 11
-46.2135
 21
24.8817
  0
LINE
  8
0
 10
-46.2135
 20
24.8817
 11
-46.0934
 21
25.0268
  0
LINE
  8
0
 10
-46.0934
 20
25.0268
 11
-45.9561
 21
25.1558
  0
LINE
  8
0
 10
-45.9561
 20
25.1558
 11
-45.8037
 21
25.2665
  0
LINE
  8
0
 10
-45.8037
 20
25.2665
 11
-45.6387
 21
25.3572
  0
LINE
  8
0
 10
-45.6387
 20
25.3572
 11
-45.4635
 21
25.4266
  0
LINE
  8
0
 10
-45.4635
 20
25.4266
 11
-45.2811
 21
25.4734
  0
LINE
  8
0
 10
-45.2811
 20
25.4734
 11
-45.0942
 21
25.497
  0
LINE
  8
0
 10
-45.0942
 20
25.497
 11
-44.9058
 21
25.497
  0
LINE
  8
0
 10
-44.9058
 20
25.497
 11
-44.7189
 21
25.4734
  0
LINE
  8
0
 10
-44.7189
 20
25.4734
 11
-44.5365
 21
25.4266
  0
LINE
  8
0
 10
-44.5365
 20
25.4266
 11
-44.3613
 21
25.3572
  0
LINE
  8
0
 10
-44.3613
 20
25.3572
 11
-44.1963
 21
25.2665
  0
LINE
  8
0
 10
-44.1963
 20
25.2665
 11
-44.0439
 21
25.1558
  0
LINE
  8
0
 10
-44.0439
 20
25.1558
 11
-43.9065
 21
25.0268
  0
LINE
  8
0
 10
-43.9065
 20
25.0268
 11
-43.7865
 21
24.8817
  0
LINE
  8
0
 10
-43.7865
 20
24.8817
 11
-43.6855
 21
24.7226
  0
LINE
  8
0
 10
-43.6855
 20
24.7226
 11
-43.6053
 21
24.5522
  0
LINE
  8
0
 10
-43.6053
 20
24.5522
 11
-43.5471
 21
24.373
  0
LINE
  8
0
 10
-43.5471
 20
24.373
 11
-43.5118
 21
24.188
  0
LINE
  8
0
 10
-43.5118
 20
24.188
 11
-43.5
 21
24
  0
LINE
  8
0
 10
-43.5
 20
24
 11
-43.5118
 21
23.812
  0
LINE
  8
0
 10
-43.5118
 20
23.812
 11
-43.5471
 21
23.627
  0
LINE
  8
0
 10
-43.5471
 20
23.627
 11
-43.6053
 21
23.4478
  0
LINE
  8
0
 10
-43.6053
 20
23.4478
 11
-43.6855
 21
23.2774
  0
LINE
  8
0
 10
-43.6855
 20
23.2774
 11
-43.7865
 21
23.1183
  0
LINE
  8
0
 10
-43.7865
 20
23.1183
 11
-43.9065
 21
22.9732
  0
LINE
  8
0
 10
-43.9065
 20
22.9732
 11
-44.0439
 21
22.8442
  0
LINE
  8
0
 10
-44.0439
 20
22.8442
 11
-44.1963
 21
22.7335
  0
LINE
  8
0
 10
-44.1963
 20
22.7335
 11
-44.3613
 21
22.6428
  0
LINE
  8
0
 10
-44.3613
 20
22.6428
 11
-44.5365
 21
22.5734
  0
LINE
  8
0
 10
-44.5365
 20
22.5734
 11
-44.7189
 21
22.5266
  0
LINE
  8
0
 10
-44.7189
 20
22.5266
 11
-44.9058
 21
22.503
  0
LINE
  8
0
 10
-44.9058
 20
22.503
 11
-45.0942
 21
22.503
  0
LINE
  8
0
 10
-37.5942
 20
22.503
 11
-37.7811
 21
22.5266
  0
LINE
  8
0
 10
-37.7811
 20
22.5266
 11
-37.9635
 21
22.5734
  0
LINE
  8
0
 10
-37.9635
 20
22.5734
 11
-38.1387
 21
22.6428
  0
LINE
  8
0
 10
-38.1387
 20
22.6428
 11
-38.3037
 21
22.7335
  0
LINE
  8
0
 10
-38.3037
 20
22.7335
 11
-38.4561
 21
22.8442
  0
LINE
  8
0
 10
-38.4561
 20
22.8442
 11
-38.5934
 21
22.9732
  0
LINE
  8
0
 10
-38.5934
 20
22.9732
 11
-38.7135
 21
23.1183
  0
LINE
  8
0
 10
-38.7135
 20
23.1183
 11
-38.8145
 21
23.2774
  0
LINE
  8
0
 10
-38.8145
 20
23.2774
 11
-38.8947
 21
23.4478
  0
LINE
  8
0
 10
-38.8947
 20
23.4478
 11
-38.9529
 21
23.627
  0
LINE
  8
0
 10
-38.9529
 20
23.627
 11
-38.9882
 21
23.812
  0
LINE
  8
0
 10
-38.9882
 20
23.812
 11
-39
 21
24
  0
LINE
  8
0
 10
-39
 20
24
 11
-38.9882
 21
24.188
  0
LINE
  8
0
 10
-38.9882
 20
24.188
 11
-38.9529
 21
24.373
  0
LINE
  8
0
 10
-38.9529
 20
24.373
 11
-38.8947
 21
24.5522
  0
LINE
  8
0
 10
-38.8947
 20
24.5522
 11
-38.8145
 21
24.7226
  0
LINE
  8
0
 10
-38.8145
 20
24.7226
 11
-38.7135
 21
24.8817
  0
LINE
  8
0
 10
-38.7135
 20
24.8817
 11
-38.5934
 21
25.0268
  0
LINE
  8
0
 10
-38.5934
 20
25.0268
 11
-38.4561
 21
25.1558
  0
LINE
  8
0
 10
-38.4561
 20
25.1558
 11
-38.3037
 21
25.2665
  0
LINE
  8
0
 10
-38.3037
 20
25.2665
 11
-38.1387
 21
25.3572
  0
LINE
  8
0
 10
-38.1387
 20
25.3572
 11
-37.9635
 21
25.4266
  0
LINE
  8
0
 10
-37.9635
 20
25.4266
 11
-37.7811
 21
25.4734
  0
LINE
  8
0
 10
-37.7811
 20
25.4734
 11
-37.5942
 21
25.497
  0
LINE
  8
0
 10
-37.5942
 20
25.497
 11
-37.4058
 21
25.497
  0
LINE
  8
0
 10
-37.4058
 20
25.497
 11
-37.2189
 21
25.4734
  0
LINE
  8
0
 10
-37.2189
 20
25.4734
 11
-37.0365
 21
25.4266
  0
LINE
  8
0
 10
-37.0365
 20
25.4266
 11
-36.8613
 21
25.3572
  0
LINE
  8
0
 10
-36.8613
 20
25.3572
 11
-36.6963
 21
25.2665
  0
LINE
  8
0
 10
-36.6963
 20
25.2665
 11
-36.5439
 21
25.1558
  0
LINE
  8
0
 10
-36.5439
 20
25.1558
 11
-36.4065
 21
25.0268
  0
LINE
  8
0
 10
-36.4065
 20
25.0268
 11
-36.2865
 21
24.8817
  0
LINE
  8
0
 10
-36.2865
 20
24.8817
 11
-36.1855
 21
24.7226
  0
LINE
  8
0
 10
-36.1855
 20
24.7226
 11
-36.1053
 21
24.5522
  0
LINE
  8
0
 10
-36.1053
 20
24.5522
 11
-36.0471
 21
24.373
  0
LINE
  8
0
 10
-36.0471
 20
24.373
 11
-36.0118
 21
24.188
  0
LINE
  8
0
 10
-36.0118
 20
24.188
 11
-36
 21
24
  0
LINE
  8
0
 10
-36
 20
24
 11
-36.0118
 21
23.812
  0
LINE
  8
0
 10
-36.0118
 20
23.812
 11
-36.0471
 21
23.627
  0
LINE
  8
0
 10
-36.0471
 20
23.627
 11
-36.1053
 21
23.4478
  0
LINE
  8
0
 10
-36.1053
 20
23.4478
 11
-36.1855
 21
23.2774
  0
LINE
  8
0
 10
-36.1855
 20
23.2774
 11
-36.2865
 21
23.1183
  0
LINE
  8
0
 10
-36.2865
 20
23.1183
 11
-36.4065
 21
22.9732
  0
LINE
  8
0
 10
-36.4065
 20
22.9732
 11
-36.5439
 21
22.8442
  0
LINE
  8
0
 10
-36.5439
 20
22.8442
 11
-36.6963
 21
22.7335
  0
LINE
  8
0
 10
-36.6963
 20
22.7335
 11
-36.8613
 21
22.6428
  0
LINE
  8
0
 10
-36.8613
 20
22.6428
 11
-37.0365
 21
22.5734
  0
LINE
  8
0
 10
-37.0365
 20
22.5734
 11
-37.2189
 21
22.5266
  0
LINE
  8
0
 10
-37.2189
 20
22.5266
 11
-37.4058
 21
22.503
  0
LINE
  8
0
 10
-37.4058
 20
22.503
 11
-37.5942
 21
22.503
  0
LINE
  8
0
 10
-30.0942
 20
22.503
 11
-30.2811
 21
22.5266
  0
LINE
  8
0
 10
-30.2811
 20
22.5266
 11
-30.4635
 21
22.5734
  0
LINE
  8
0
 10
-30.4635
 20
22.5734
 11
-30.6387
 21
22.6428
  0
LINE
  8
0
 10
-30.6387
 20
22.6428
 11
-30.8037
 21
22.7335
  0
LINE
  8
0
 10
-30.8037
 20
22.7335
 11
-30.9561
 21
22.8442
  0
LINE
  8
0
 10
-30.9561
 20
22.8442
 11
-31.0934
 21
22.9732
  0
LINE
  8
0
 10
-31.0934
 20
22.9732
 11
-31.2135
 21
23.1183
  0
LINE
  8
0
 10
-31.2135
 20
23.1183
 11
-31.3145
 21
23.2774
  0
LINE
  8
0
 10
-31.3145
 20
23.2774
 11
-31.3947
 21
23.4478
  0
LINE
  8
0
 10
-31.3947
 20
23.4478
 11
-31.4529
 21
23.627
  0
LINE
  8
0
 10
-31.4529
 20
23.627
 11
-31.4882
 21
23.812
  0
LINE
  8
0
 10
-31.4882
 20
23.812
 11
-31.5
 21
24
  0
LINE
  8
0
 10
-31.5
 20
24
 11
-31.4882
 21
24.188
  0
LINE
  8
0
 10
-31.4882
 20
24.188
 11
-31.4529
 21
24.373
  0
LINE
  8
0
 10
-31.4529
 20
24.373
 11
-31.3947
 21
24.5522
  0
LINE
  8
0
 10
-31.3947
 20
24.5522
 11
-31.3145
 21
24.7226
  0
LINE
  8
0
 10
-31.3145
 20
24.7226
 11
-31.2135
 21
24.8817
  0
LINE
  8
0
 10
-31.2135
 20
24.8817
 11
-31.0934
 21
25.0268
  0
LINE
  8
0
 10
-31.0934
 20
25.0268
 11
-30.9561
 21
25.1558
  0
LINE
  8
0
 10
-30.9561
 20
25.1558
 11
-30.8037
 21
25.2665
  0
LINE
  8
0
 10
-30.8037
 20
25.2665
 11
-30.6387
 21
25.3572
  0
LINE
  8
0
 10
-30.6387
 20
25.3572
 11
-30.4635
 21
25.4266
  0
LINE
  8
0
 10
-30.4635
 20
25.4266
 11
-30.2811
 21
25.4734
  0
LINE
  8
0
 10
-30.2811
 20
25.4734
 11
-30.0942
 21
25.497
  0
LINE
  8
0
 10
-30.0942
 20
25.497
 11
-29.9058
 21
25.497
  0
LINE
  8
0
 10
-29.9058
 20
25.497
 11
-29.7189
 21
25.4734
  0
LINE
  8
0
 10
-29.7189
 20
25.4734
 11
-29.5365
 21
25.4266
  0
LINE
  8
0
 10
-29.5365
 20
25.4266
 11
-29.3613
 21
25.3572
  0
LINE
  8
0
 10
-29.3613
 20
25.3572
 11
-29.1963
 21
25.2665
  0
LINE
  8
0
 10
-29.1963
 20
25.2665
 11
-29.0439
 21
25.1558
  0
LINE
  8
0
 10
-29.0439
 20
25.1558
 11
-28.9065
 21
25.0268
  0
LINE
  8
0
 10
-28.9065
 20
25.0268
 11
-28.7865
 21
24.8817
  0
LINE
  8
0
 10
-28.7865
 20
24.8817
 11
-28.6855
 21
24.7226
  0
LINE
  8
0
 10
-28.6855
 20
24.7226
 11
-28.6053
 21
24.5522
  0
LINE
  8
0
 10
-28.6053
 20
24.5522
 11
-28.5471
 21
24.373
  0
LINE
  8
0
 10
-28.5471
 20
24.373
 11
-28.5118
 21
24.188
  0
LINE
  8
0
 10
-28.5118
 20
24.188
 11
-28.5
 21
24
  0
LINE
  8
0
 10
-28.5
 20
24
 11
-28.5118
 21
23.812
  0
LINE
  8
0
 10
-28.5118
 20
23.812
 11
-28.5471
 21
23.627
  0
LINE
  8
0
 10
-28.5471
 20
23.627
 11
-28.6053
 21
23.4478
  0
LINE
  8
0
 10
-28.6053
 20
23.4478
 11
-28.6855
 21
23.2774
  0
LINE
  8
0
 10
-28.6855
 20
23.2774
 11
-28.7865
 21
23.1183
  0
LINE
  8
0
 10
-28.7865
 20
23.1183
 11
-28.9065
 21
22.9732
  0
LINE
  8
0
 10
-28.9065
 20
22.9732
 11
-29.0439
 21
22.8442
  0
LINE
  8
0
 10
-29.0439
 20
22.8442
 11
-29.1963
 21
22.7335
  0
LINE
  8
0
 10
-29.1963
 20
22.7335
 11
-29.3613
 21
22.6428
  0
LINE
  8
0
 10
-29.3613
 20
22.6428
 11
-29.5365
 21
22.5734
  0
LINE
  8
0
 10
-29.5365
 20
22.5734
 11
-29.7189
 21
22.5266
  0
LINE
  8
0
 10
-29.7189
 20
22.5266
 11
-29.9058
 21
22.503
  0
LINE
  8
0
 10
-29.9058
 20
22.503
 11
-30.0942
 21
22.503
  0
LINE
  8
0
 10
-22.5942
 20
22.503
 11
-22.7811
 21
22.5266
  0
LINE
  8
0
 10
-22.7811
 20
22.5266
 11
-22.9635
 21
22.5734
  0
LINE
  8
0
 10
-22.9635
 20
22.5734
 11
-23.1387
 21
22.6428
  0
LINE
  8
0
 10
-23.1387
 20
22.6428
 11
-23.3037
 21
22.7335
  0
LINE
  8
0
 10
-23.3037
 20
22.7335
 11
-23.4561
 21
22.8442
  0
LINE
  8
0
 10
-23.4561
 20
22.8442
 11
-23.5934
 21
22.9732
  0
LINE
  8
0
 10
-23.5934
 20
22.9732
 11
-23.7135
 21
23.1183
  0
LINE
  8
0
 10
-23.7135
 20
23.1183
 11
-23.8145
 21
23.2774
  0
LINE
  8
0
 10
-23.8145
 20
23.2774
 11
-23.8947
 21
23.4478
  0
LINE
  8
0
 10
-23.8947
 20
23.4478
 11
-23.9529
 21
23.627
  0
LINE
  8
0
 10
-23.9529
 20
23.627
 11
-23.9882
 21
23.812
  0
LINE
  8
0
 10
-23.9882
 20
23.812
 11
-24
 21
24
  0
LINE
  8
0
 10
-24
 20
24
 11
-23.9882
 21
24.188
  0
LINE
  8
0
 10
-23.9882
 20
24.188
 11
-23.9529
 21
24.373
  0
LINE
  8
0
 10
-23.9529
 20
24.373
 11
-23.8947
 21
24.5522
  0
LINE
  8
0
 10
-23.8947
 20
24.5522
 11
-23.8145
 21
24.7226
  0
LINE
  8
0
 10
-23.8145
 20
24.7226
 11
-23.7135
 21
24.8817
  0
LINE
  8
0
 10
-23.7135
 20
24.8817
 11
-23.5934
 21
25.0268
  0
LINE
  8
0
 10
-23.5934
 20
25.0268
 11
-23.4561
 21
25.1558
  0
LINE
  8
0
 10
-23.4561
 20
25.1558
 11
-23.3037
 21
25.2665
  0
LINE
  8
0
 10
-23.3037
 20
25.2665
 11
-23.1387
 21
25.3572
  0
LINE
  8
0
 10
-23.1387
 20
25.3572
 11
-22.9635
 21
25.4266
  0
LINE
  8
0
 10
-22.9635
 20
25.4266
 11
-22.7811
 21
25.4734
  0
LINE
  8
0
 10
-22.7811
 20
25.4734
 11
-22.5942
 21
25.497
  0
LINE
  8
0
 10
-22.5942
 20
25.497
 11
-22.4058
 21
25.497
  0
LINE
  8
0
 10
-22.4058
 20
25.497
 11
-22.2189
 21
25.4734
  0
LINE
  8
0
 10
-22.2189
 20
25.4734
 11
-22.0365
 21
25.4266
  0
LINE
  8
0
 10
-22.0365
 20
25.4266
 11
-21.8613
 21
25.3572
  0
LINE
  8
0
 10
-21.8613
 20
25.3572
 11
-21.6963
 21
25.2665
  0
LINE
  8
0
 10
-21.6963
 20
25.2665
 11
-21.5439
 21
25.1558
  0
LINE
  8
0
 10
-21.5439
 20
25.1558
 11
-21.4065
 21
25.0268
  0
LINE
  8
0
 10
-21.4065
 20
25.0268
 11
-21.2865
 21
24.8817
  0
LINE
  8
0
 10
-21.2865
 20
24.8817
 11
-21.1855
 21
24.7226
  0
LINE
  8
0
 10
-21.1855
 20
24.7226
 11
-21.1053
 21
24.5522
  0
LINE
  8
0
 10
-21.1053
 20
24.5522
 11
-21.0471
 21
24.373
  0
LINE
  8
0
 10
-21.0471
 20
24.373
 11
-21.0118
 21
24.188
  0
LINE
  8
0
 10
-21.0118
 20
24.188
 11
-21
 21
24
  0
LINE
  8
0
 10
-21
 20
24
 11
-21.0118
 21
23.812
  0
LINE
  8
0
 10
-21.0118
 20
23.812
 11
-21.0471
 21
23.627
  0
LINE
  8
0
 10
-21.0471
 20
23.627
 11
-21.1053
 21
23.4478
  0
LINE
  8
0
 10
-21.1053
 20
23.4478
 11
-21.1855
 21
23.2774
  0
LINE
  8
0
 10
-21.1855
 20
23.2774
 11
-21.2865
 21
23.1183
  0
LINE
  8
0
 10
-21.2865
 20
23.1183
 11
-21.4065
 21
22.9732
  0
LINE
  8
0
 10
-21.4065
 20
22.9732
 11
-21.5439
 21
22.8442
  0
LINE
  8
0
 10
-21.5439
 20
22.8442
 11
-21.6963
 21
22.7335
  0
LINE
  8
0
 10
-21.6963
 20
22.7335
 11
-21.8613
 21
22.6428
  0
LINE
  8
0
 10
-21.8613
 20
22.6428
 11
-22.0365
 21
22.5734
  0
LINE
  8
0
 10
-22.0365
 20
22.5734
 11
-22.2189
 21
22.5266
  0
LINE
  8
0
 10
-22.2189
 20
22.5266
 11
-22.4058
 21
22.503
  0
LINE
  8
0
 10
-22.4058
 20
22.503
 11
-22.5942
 21
22.503
  0
LINE
  8
0
 10
-60.0942
 20
22.503
 11
-60.2811
 21
22.5266
  0
LINE
  8
0
 10
-60.2811
 20
22.5266
 11
-60.4635
 21
22.5734
  0
LINE
  8
0
 10
-60.4635
 20
22.5734
 11
-60.6387
 21
22.6428
  0
LINE
  8
0
 10
-60.6387
 20
22.6428
 11
-60.8037
 21
22.7335
  0
LINE
  8
0
 10
-60.8037
 20
22.7335
 11
-60.9561
 21
22.8442
  0
LINE
  8
0
 10
-60.9561
 20
22.8442
 11
-61.0934
 21
22.9732
  0
LINE
  8
0
 10
-61.0934
 20
22.9732
 11
-61.2135
 21
23.1183
  0
LINE
  8
0
 10
-61.2135
 20
23.1183
 11
-61.3145
 21
23.2774
  0
LINE
  8
0
 10
-61.3145
 20
23.2774
 11
-61.3947
 21
23.4478
  0
LINE
  8
0
 10
-61.3947
 20
23.4478
 11
-61.4529
 21
23.627
  0
LINE
  8
0
 10
-61.4529
 20
23.627
 11
-61.4882
 21
23.812
  0
LINE
  8
0
 10
-61.4882
 20
23.812
 11
-61.5
 21
24
  0
LINE
  8
0
 10
-61.5
 20
24
 11
-61.4882
 21
24.188
  0
LINE
  8
0
 10
-61.4882
 20
24.188
 11
-61.4529
 21
24.373
  0
LINE
  8
0
 10
-61.4529
 20
24.373
 11
-61.3947
 21
24.5522
  0
LINE
  8
0
 10
-61.3947
 20
24.5522
 11
-61.3145
 21
24.7226
  0
LINE
  8
0
 10
-61.3145
 20
24.7226
 11
-61.2135
 21
24.8817
  0
LINE
  8
0
 10
-61.2135
 20
24.8817
 11
-61.0934
 21
25.0268
  0
LINE
  8
0
 10
-61.0934
 20
25.0268
 11
-60.9561
 21
25.1558
  0
LINE
  8
0
 10
-60.9561
 20
25.1558
 11
-60.8037
 21
25.2665
  0
LINE
  8
0
 10
-60.8037
 20
25.2665
 11
-60.6387
 21
25.3572
  0
LINE
  8
0
 10
-60.6387
 20
25.3572
 11
-60.4635
 21
25.4266
  0
LINE
  8
0
 10
-60.4635
 20
25.4266
 11
-60.2811
 21
25.4734
  0
LINE
  8
0
 10
-60.2811
 20
25.4734
 11
-60.0942
 21
25.497
  0
LINE
  8
0
 10
-60.0942
 20
25.497
 11
-59.9058
 21
25.497
  0
LINE
  8
0
 10
-59.9058
 20
25.497
 11
-59.7189
 21
25.4734
  0
LINE
  8
0
 10
-59.7189
 20
25.4734
 11
-59.5365
 21
25.4266
  0
LINE
  8
0
 10
-59.5365
 20
25.4266
 11
-59.3613
 21
25.3572
  0
LINE
  8
0
 10
-59.3613
 20
25.3572
 11
-59.1963
 21
25.2665
  0
LINE
  8
0
 10
-59.1963
 20
25.2665
 11
-59.0439
 21
25.1558
  0
LINE
  8
0
 10
-59.0439
 20
25.1558
 11
-58.9065
 21
25.0268
  0
LINE
  8
0
 10
-58.9065
 20
25.0268
 11
-58.7865
 21
24.8817
  0
LINE
  8
0
 10
-58.7865
 20
24.8817
 11
-58.6855
 21
24.7226
  0
LINE
  8
0
 10
-58.6855
 20
24.7226
 11
-58.6053
 21
24.5522
  0
LINE
  8
0
 10
-58.6053
 20
24.5522
 11
-58.5471
 21
24.373
  0
LINE
  8
0
 10
-58.5471
 20
24.373
 11
-58.5118
 21
24.188
  0
LINE
  8
0
 10
-58.5118
 20
24.188
 11
-58.5
 21
24
  0
LINE
  8
0
 10
-58.5
 20
24
 11
-58.5118
 21
23.812
  0
LINE
  8
0
 10
-58.5118
 20
23.812
 11
-58.5471
 21
23.627
  0
LINE
  8
0
 10
-58.5471
 20
23.627
 11
-58.6053
 21
23.4478
  0
LINE
  8
0
 10
-58.6053
 20
23.4478
 11
-58.6855
 21
23.2774
  0
LINE
  8
0
 10
-58.6855
 20
23.2774
 11
-58.7865
 21
23.1183
  0
LINE
  8
0
 10
-58.7865
 20
23.1183
 11
-58.9065
 21
22.9732
  0
LINE
  8
0
 10
-58.9065
 20
22.9732
 11
-59.0439
 21
22.8442
  0
LINE
  8
0
 10
-59.0439
 20
22.8442
 11
-59.1963
 21
22.7335
  0
LINE
  8
0
 10
-59.1963
 20
22.7335
 11
-59.3613
 21
22.6428
  0
LINE
  8
0
 10
-59.3613
 20
22.6428
 11
-59.5365
 21
22.5734
  0
LINE
  8
0
 10
-59.5365
 20
22.5734
 11
-59.7189
 21
22.5266
  0
LINE
  8
0
 10
-59.7189
 20
22.5266
 11
-59.9058
 21
22.503
  0
LINE
  8
0
 10
-59.9058
 20
22.503
 11
-60.0942
 21
22.503
  0
LINE
  8
0
 10
-7.59418
 20
22.503
 11
-7.78107
 21
22.5266
  0
LINE
  8
0
 10
-7.78107
 20
22.5266
 11
-7.96352
 21
22.5734
  0
LINE
  8
0
 10
-7.96352
 20
22.5734
 11
-8.13866
 21
22.6428
  0
LINE
  8
0
 10
-8.13866
 20
22.6428
 11
-8.30373
 21
22.7335
  0
LINE
  8
0
 10
-8.30373
 20
22.7335
 11
-8.45613
 21
22.8442
  0
LINE
  8
0
 10
-8.45613
 20
22.8442
 11
-8.59344
 21
22.9732
  0
LINE
  8
0
 10
-8.59344
 20
22.9732
 11
-8.71352
 21
23.1183
  0
LINE
  8
0
 10
-8.71352
 20
23.1183
 11
-8.81445
 21
23.2774
  0
LINE
  8
0
 10
-8.81445
 20
23.2774
 11
-8.89465
 21
23.4478
  0
LINE
  8
0
 10
-8.89465
 20
23.4478
 11
-8.95287
 21
23.627
  0
LINE
  8
0
 10
-8.95287
 20
23.627
 11
-8.98816
 21
23.812
  0
LINE
  8
0
 10
-8.98816
 20
23.812
 11
-9
 21
24
  0
LINE
  8
0
 10
-9
 20
24
 11
-8.98816
 21
24.188
  0
LINE
  8
0
 10
-8.98816
 20
24.188
 11
-8.95287
 21
24.373
  0
LINE
  8
0
 10
-8.95287
 20
24.373
 11
-8.89465
 21
24.5522
  0
LINE
  8
0
 10
-8.89465
 20
24.5522
 11
-8.81445
 21
24.7226
  0
LINE
  8
0
 10
-8.81445
 20
24.7226
 11
-8.71352
 21
24.8817
  0
LINE
  8
0
 10
-8.71352
 20
24.8817
 11
-8.59344
 21
25.0268
  0
LINE
  8
0
 10
-8.59344
 20
25.0268
 11
-8.45613
 21
25.1558
  0
LINE
  8
0
 10
-8.45613
 20
25.1558
 11
-8.30373
 21
25.2665
  0
LINE
  8
0
 10
-8.30373
 20
25.2665
 11
-8.13866
 21
25.3572
  0
LINE
  8
0
 10
-8.13866
 20
25.3572
 11
-7.96352
 21
25.4266
  0
LINE
  8
0
 10
-7.96352
 20
25.4266
 11
-7.78107
 21
25.4734
  0
LINE
  8
0
 10
-7.78107
 20
25.4734
 11
-7.59418
 21
25.497
  0
LINE
  8
0
 10
-7.59418
 20
25.497
 11
-7.40581
 21
25.497
  0
LINE
  8
0
 10
-7.40581
 20
25.497
 11
-7.21892
 21
25.4734
  0
LINE
  8
0
 10
-7.21892
 20
25.4734
 11
-7.03647
 21
25.4266
  0
LINE
  8
0
 10
-7.03647
 20
25.4266
 11
-6.86133
 21
25.3572
  0
LINE
  8
0
 10
-6.86133
 20
25.3572
 11
-6.69626
 21
25.2665
  0
LINE
  8
0
 10
-6.69626
 20
25.2665
 11
-6.54385
 21
25.1558
  0
LINE
  8
0
 10
-6.54385
 20
25.1558
 11
-6.40654
 21
25.0268
  0
LINE
  8
0
 10
-6.40654
 20
25.0268
 11
-6.28647
 21
24.8817
  0
LINE
  8
0
 10
-6.28647
 20
24.8817
 11
-6.18553
 21
24.7226
  0
LINE
  8
0
 10
-6.18553
 20
24.7226
 11
-6.10533
 21
24.5522
  0
LINE
  8
0
 10
-6.10533
 20
24.5522
 11
-6.04712
 21
24.373
  0
LINE
  8
0
 10
-6.04712
 20
24.373
 11
-6.01183
 21
24.188
  0
LINE
  8
0
 10
-6.01183
 20
24.188
 11
-6
 21
24
  0
LINE
  8
0
 10
-6
 20
24
 11
-6.01183
 21
23.812
  0
LINE
  8
0
 10
-6.01183
 20
23.812
 11
-6.04712
 21
23.627
  0
LINE
  8
0
 10
-6.04712
 20
23.627
 11
-6.10533
 21
23.4478
  0
LINE
  8
0
 10
-6.10533
 20
23.4478
 11
-6.18553
 21
23.2774
  0
LINE
  8
0
 10
-6.18553
 20
23.2774
 11
-6.28647
 21
23.1183
  0
LINE
  8
0
 10
-6.28647
 20
23.1183
 11
-6.40654
 21
22.9732
  0
LINE
  8
0
 10
-6.40654
 20
22.9732
 11
-6.54385
 21
22.8442
  0
LINE
  8
0
 10
-6.54385
 20
22.8442
 11
-6.69626
 21
22.7335
  0
LINE
  8
0
 10
-6.69626
 20
22.7335
 11
-6.86133
 21
22.6428
  0
LINE
  8
0
 10
-6.86133
 20
22.6428
 11
-7.03647
 21
22.5734
  0
LINE
  8
0
 10
-7.03647
 20
22.5734
 11
-7.21892
 21
22.5266
  0
LINE
  8
0
 10
-7.21892
 20
22.5266
 11
-7.40581
 21
22.503
  0
LINE
  8
0
 10
-7.40581
 20
22.503
 11
-7.59418
 21
22.503
  0
LINE
  8
0
 10
-0.0941772
 20
22.503
 11
-0.281067
 21
22.5266
  0
LINE
  8
0
 10
-0.281067
 20
22.5266
 11
-0.463516
 21
22.5734
  0
LINE
  8
0
 10
-0.463516
 20
22.5734
 11
-0.638657
 21
22.6428
  0
LINE
  8
0
 10
-0.638657
 20
22.6428
 11
-0.803726
 21
22.7335
  0
LINE
  8
0
 10
-0.803726
 20
22.7335
 11
-0.956131
 21
22.8442
  0
LINE
  8
0
 10
-0.956131
 20
22.8442
 11
-1.09344
 21
22.9732
  0
LINE
  8
0
 10
-1.09344
 20
22.9732
 11
-1.21352
 21
23.1183
  0
LINE
  8
0
 10
-1.21352
 20
23.1183
 11
-1.31445
 21
23.2774
  0
LINE
  8
0
 10
-1.31445
 20
23.2774
 11
-1.39465
 21
23.4478
  0
LINE
  8
0
 10
-1.39465
 20
23.4478
 11
-1.45287
 21
23.627
  0
LINE
  8
0
 10
-1.45287
 20
23.627
 11
-1.48816
 21
23.812
  0
LINE
  8
0
 10
-1.48816
 20
23.812
 11
-1.5
 21
24
  0
LINE
  8
0
 10
-1.5
 20
24
 11
-1.48816
 21
24.188
  0
LINE
  8
0
 10
-1.48816
 20
24.188
 11
-1.45287
 21
24.373
  0
LINE
  8
0
 10
-1.45287
 20
24.373
 11
-1.39465
 21
24.5522
  0
LINE
  8
0
 10
-1.39465
 20
24.5522
 11
-1.31445
 21
24.7226
  0
LINE
  8
0
 10
-1.31445
 20
24.7226
 11
-1.21352
 21
24.8817
  0
LINE
  8
0
 10
-1.21352
 20
24.8817
 11
-1.09344
 21
25.0268
  0
LINE
  8
0
 10
-1.09344
 20
25.0268
 11
-0.956131
 21
25.1558
  0
LINE
  8
0
 10
-0.956131
 20
25.1558
 11
-0.803726
 21
25.2665
  0
LINE
  8
0
 10
-0.803726
 20
25.2665
 11
-0.638657
 21
25.3572
  0
LINE
  8
0
 10
-0.638657
 20
25.3572
 11
-0.463516
 21
25.4266
  0
LINE
  8
0
 10
-0.463516
 20
25.4266
 11
-0.281067
 21
25.4734
  0
LINE
  8
0
 10
-0.281067
 20
25.4734
 11
-0.0941772
 21
25.497
  0
LINE
  8
0
 10
-0.0941772
 20
25.497
 11
0.0941772
 21
25.497
  0
LINE
  8
0
 10
0.0941772
 20
25.497
 11
0.281067
 21
25.4734
  0
LINE
  8
0
 10
0.281067
 20
25.4734
 11
0.463516
 21
25.4266
  0
LINE
  8
0
 10
0.463516
 20
25.4266
 11
0.638657
 21
25.3572
  0
LINE
  8
0
 10
0.638657
 20
25.3572
 11
0.803726
 21
25.2665
  0
LINE
  8
0
 10
0.803726
 20
25.2665
 11
0.956131
 21
25.1558
  0
LINE
  8
0
 10
0.956131
 20
25.1558
 11
1.09344
 21
25.0268
  0
LINE
  8
0
 10
1.09344
 20
25.0268
 11
1.21352
 21
24.8817
  0
LINE
  8
0
 10
1.21352
 20
24.8817
 11
1.31445
 21
24.7226
  0
LINE
  8
0
 10
1.31445
 20
24.7226
 11
1.39465
 21
24.5522
  0
LINE
  8
0
 10
1.39465
 20
24.5522
 11
1.45287
 21
24.373
  0
LINE
  8
0
 10
1.45287
 20
24.373
 11
1.48816
 21
24.188
  0
LINE
  8
0
 10
1.48816
 20
24.188
 11
1.5
 21
24
  0
LINE
  8
0
 10
1.5
 20
24
 11
1.48816
 21
23.812
  0
LINE
  8
0
 10
1.48816
 20
23.812
 11
1.45287
 21
23.627
  0
LINE
  8
0
 10
1.45287
 20
23.627
 11
1.39465
 21
23.4478
  0
LINE
  8
0
 10
1.39465
 20
23.4478
 11
1.31445
 21
23.2774
  0
LINE
  8
0
 10
1.31445
 20
23.2774
 11
1.21352
 21
23.1183
  0
LINE
  8
0
 10
1.21352
 20
23.1183
 11
1.09344
 21
22.9732
  0
LINE
  8
0
 10
1.09344
 20
22.9732
 11
0.956131
 21
22.8442
  0
LINE
  8
0
 10
0.956131
 20
22.8442
 11
0.803726
 21
22.7335
  0
LINE
  8
0
 10
0.803726
 20
22.7335
 11
0.638657
 21
22.6428
  0
LINE
  8
0
 10
0.638657
 20
22.6428
 11
0.463516
 21
22.5734
  0
LINE
  8
0
 10
0.463516
 20
22.5734
 11
0.281067
 21
22.5266
  0
LINE
  8
0
 10
0.281067
 20
22.5266
 11
0.0941772
 21
22.503
  0
LINE
  8
0
 10
0.0941772
 20
22.503
 11
-0.0941772
 21
22.503
  0
LINE
  8
0
 10
-52.5942
 20
22.503
 11
-52.7811
 21
22.5266
  0
LINE
  8
0
 10
-52.7811
 20
22.5266
 11
-52.9635
 21
22.5734
  0
LINE
  8
0
 10
-52.9635
 20
22.5734
 11
-53.1387
 21
22.6428
  0
LINE
  8
0
 10
-53.1387
 20
22.6428
 11
-53.3037
 21
22.7335
  0
LINE
  8
0
 10
-53.3037
 20
22.7335
 11
-53.4561
 21
22.8442
  0
LINE
  8
0
 10
-53.4561
 20
22.8442
 11
-53.5934
 21
22.9732
  0
LINE
  8
0
 10
-53.5934
 20
22.9732
 11
-53.7135
 21
23.1183
  0
LINE
  8
0
 10
-53.7135
 20
23.1183
 11
-53.8145
 21
23.2774
  0
LINE
  8
0
 10
-53.8145
 20
23.2774
 11
-53.8947
 21
23.4478
  0
LINE
  8
0
 10
-53.8947
 20
23.4478
 11
-53.9529
 21
23.627
  0
LINE
  8
0
 10
-53.9529
 20
23.627
 11
-53.9882
 21
23.812
  0
LINE
  8
0
 10
-53.9882
 20
23.812
 11
-54
 21
24
  0
LINE
  8
0
 10
-54
 20
24
 11
-53.9882
 21
24.188
  0
LINE
  8
0
 10
-53.9882
 20
24.188
 11
-53.9529
 21
24.373
  0
LINE
  8
0
 10
-53.9529
 20
24.373
 11
-53.8947
 21
24.5522
  0
LINE
  8
0
 10
-53.8947
 20
24.5522
 11
-53.8145
 21
24.7226
  0
LINE
  8
0
 10
-53.8145
 20
24.7226
 11
-53.7135
 21
24.8817
  0
LINE
  8
0
 10
-53.7135
 20
24.8817
 11
-53.5934
 21
25.0268
  0
LINE
  8
0
 10
-53.5934
 20
25.0268
 11
-53.4561
 21
25.1558
  0
LINE
  8
0
 10
-53.4561
 20
25.1558
 11
-53.3037
 21
25.2665
  0
LINE
  8
0
 10
-53.3037
 20
25.2665
 11
-53.1387
 21
25.3572
  0
LINE
  8
0
 10
-53.1387
 20
25.3572
 11
-52.9635
 21
25.4266
  0
LINE
  8
0
 10
-52.9635
 20
25.4266
 11
-52.7811
 21
25.4734
  0
LINE
  8
0
 10
-52.7811
 20
25.4734
 11
-52.5942
 21
25.497
  0
LINE
  8
0
 10
-52.5942
 20
25.497
 11
-52.4058
 21
25.497
  0
LINE
  8
0
 10
-52.4058
 20
25.497
 11
-52.2189
 21
25.4734
  0
LINE
  8
0
 10
-52.2189
 20
25.4734
 11
-52.0365
 21
25.4266
  0
LINE
  8
0
 10
-52.0365
 20
25.4266
 11
-51.8613
 21
25.3572
  0
LINE
  8
0
 10
-51.8613
 20
25.3572
 11
-51.6963
 21
25.2665
  0
LINE
  8
0
 10
-51.6963
 20
25.2665
 11
-51.5439
 21
25.1558
  0
LINE
  8
0
 10
-51.5439
 20
25.1558
 11
-51.4065
 21
25.0268
  0
LINE
  8
0
 10
-51.4065
 20
25.0268
 11
-51.2865
 21
24.8817
  0
LINE
  8
0
 10
-51.2865
 20
24.8817
 11
-51.1855
 21
24.7226
  0
LINE
  8
0
 10
-51.1855
 20
24.7226
 11
-51.1053
 21
24.5522
  0
LINE
  8
0
 10
-51.1053
 20
24.5522
 11
-51.0471
 21
24.373
  0
LINE
  8
0
 10
-51.0471
 20
24.373
 11
-51.0118
 21
24.188
  0
LINE
  8
0
 10
-51.0118
 20
24.188
 11
-51
 21
24
  0
LINE
  8
0
 10
-51
 20
24
 11
-51.0118
 21
23.812
  0
LINE
  8
0
 10
-51.0118
 20
23.812
 11
-51.0471
 21
23.627
  0
LINE
  8
0
 10
-51.0471
 20
23.627
 11
-51.1053
 21
23.4478
  0
LINE
  8
0
 10
-51.1053
 20
23.4478
 11
-51.1855
 21
23.2774
  0
LINE
  8
0
 10
-51.1855
 20
23.2774
 11
-51.2865
 21
23.1183
  0
LINE
  8
0
 10
-51.2865
 20
23.1183
 11
-51.4065
 21
22.9732
  0
LINE
  8
0
 10
-51.4065
 20
22.9732
 11
-51.5439
 21
22.8442
  0
LINE
  8
0
 10
-51.5439
 20
22.8442
 11
-51.6963
 21
22.7335
  0
LINE
  8
0
 10
-51.6963
 20
22.7335
 11
-51.8613
 21
22.6428
  0
LINE
  8
0
 10
-51.8613
 20
22.6428
 11
-52.0365
 21
22.5734
  0
LINE
  8
0
 10
-52.0365
 20
22.5734
 11
-52.2189
 21
22.5266
  0
LINE
  8
0
 10
-52.2189
 20
22.5266
 11
-52.4058
 21
22.503
  0
LINE
  8
0
 10
-52.4058
 20
22.503
 11
-52.5942
 21
22.503
  0
ENDSEC
  0
SECTION
  2
OBJECTS
  0
DICTIONARY
  0
ENDSEC
  0
EOF
