  0
SECTION
  2
BLOCKS
  0
ENDSEC
  0
SECTION
  2
ENTITIES
  0
LINE
  8
0
 10
137.937
 20
-111.911
 11
138.545
 21
-111.755
  0
LINE
  8
0
 10
138.545
 20
-111.755
 11
139.129
 21
-111.524
  0
LINE
  8
0
 10
139.129
 20
-111.524
 11
139.679
 21
-111.222
  0
LINE
  8
0
 10
139.679
 20
-111.222
 11
140.187
 21
-110.853
  0
LINE
  8
0
 10
140.187
 20
-110.853
 11
140.645
 21
-110.423
  0
LINE
  8
0
 10
140.645
 20
-110.423
 11
141.045
 21
-109.939
  0
LINE
  8
0
 10
141.045
 20
-109.939
 11
141.382
 21
-109.409
  0
LINE
  8
0
 10
141.382
 20
-109.409
 11
141.649
 21
-108.841
  0
LINE
  8
0
 10
141.649
 20
-108.841
 11
141.843
 21
-108.243
  0
LINE
  8
0
 10
141.843
 20
-108.243
 11
141.961
 21
-107.627
  0
LINE
  8
0
 10
141.961
 20
-107.627
 11
142
 21
-107
  0
LINE
  8
0
 10
142
 20
-107
 11
142
 21
107
  0
LINE
  8
0
 10
142
 20
107
 11
141.961
 21
107.627
  0
LINE
  8
0
 10
141.961
 20
107.627
 11
141.843
 21
108.243
  0
LINE
  8
0
 10
141.843
 20
108.243
 11
141.649
 21
108.841
  0
LINE
  8
0
 10
141.649
 20
108.841
 11
141.382
 21
109.409
  0
LINE
  8
0
 10
141.382
 20
109.409
 11
141.045
 21
109.939
  0
LINE
  8
0
 10
141.045
 20
109.939
 11
140.645
 21
110.423
  0
LINE
  8
0
 10
140.645
 20
110.423
 11
140.187
 21
110.853
  0
LINE
  8
0
 10
140.187
 20
110.853
 11
139.679
 21
111.222
  0
LINE
  8
0
 10
139.679
 20
111.222
 11
139.129
 21
111.524
  0
LINE
  8
0
 10
139.129
 20
111.524
 11
138.545
 21
111.755
  0
LINE
  8
0
 10
138.545
 20
111.755
 11
137.937
 21
111.911
  0
LINE
  8
0
 10
137.937
 20
111.911
 11
137.314
 21
111.99
  0
LINE
  8
0
 10
137.314
 20
111.99
 11
-137.314
 21
111.99
  0
LINE
  8
0
 10
-137.314
 20
111.99
 11
-137.937
 21
111.911
  0
LINE
  8
0
 10
-137.937
 20
111.911
 11
-138.545
 21
111.755
  0
LINE
  8
0
 10
-138.545
 20
111.755
 11
-139.129
 21
111.524
  0
LINE
  8
0
 10
-139.129
 20
111.524
 11
-139.679
 21
111.222
  0
LINE
  8
0
 10
-139.679
 20
111.222
 11
-140.187
 21
110.853
  0
LINE
  8
0
 10
-140.187
 20
110.853
 11
-140.645
 21
110.423
  0
LINE
  8
0
 10
-140.645
 20
110.423
 11
-141.045
 21
109.939
  0
LINE
  8
0
 10
-141.045
 20
109.939
 11
-141.382
 21
109.409
  0
LINE
  8
0
 10
-141.382
 20
109.409
 11
-141.649
 21
108.841
  0
LINE
  8
0
 10
-141.649
 20
108.841
 11
-141.843
 21
108.243
  0
LINE
  8
0
 10
-141.843
 20
108.243
 11
-141.961
 21
107.627
  0
LINE
  8
0
 10
-141.961
 20
107.627
 11
-142
 21
107
  0
LINE
  8
0
 10
-142
 20
107
 11
-142
 21
-107
  0
LINE
  8
0
 10
-142
 20
-107
 11
-141.961
 21
-107.627
  0
LINE
  8
0
 10
-141.961
 20
-107.627
 11
-141.843
 21
-108.243
  0
LINE
  8
0
 10
-141.843
 20
-108.243
 11
-141.649
 21
-108.841
  0
LINE
  8
0
 10
-141.649
 20
-108.841
 11
-141.382
 21
-109.409
  0
LINE
  8
0
 10
-141.382
 20
-109.409
 11
-141.045
 21
-109.939
  0
LINE
  8
0
 10
-141.045
 20
-109.939
 11
-140.645
 21
-110.423
  0
LINE
  8
0
 10
-140.645
 20
-110.423
 11
-140.187
 21
-110.853
  0
LINE
  8
0
 10
-140.187
 20
-110.853
 11
-139.679
 21
-111.222
  0
LINE
  8
0
 10
-139.679
 20
-111.222
 11
-139.129
 21
-111.524
  0
LINE
  8
0
 10
-139.129
 20
-111.524
 11
-138.545
 21
-111.755
  0
LINE
  8
0
 10
-138.545
 20
-111.755
 11
-137.937
 21
-111.911
  0
LINE
  8
0
 10
-137.937
 20
-111.911
 11
-137.314
 21
-111.99
  0
LINE
  8
0
 10
-137.314
 20
-111.99
 11
137.314
 21
-111.99
  0
LINE
  8
0
 10
137.314
 20
-111.99
 11
137.937
 21
-111.911
  0
LINE
  8
0
 10
134.812
 20
102.006
 11
134.438
 21
102.053
  0
LINE
  8
0
 10
134.438
 20
102.053
 11
134.073
 21
102.147
  0
LINE
  8
0
 10
134.073
 20
102.147
 11
133.723
 21
102.286
  0
LINE
  8
0
 10
133.723
 20
102.286
 11
133.393
 21
102.467
  0
LINE
  8
0
 10
133.393
 20
102.467
 11
133.088
 21
102.688
  0
LINE
  8
0
 10
133.088
 20
102.688
 11
132.813
 21
102.946
  0
LINE
  8
0
 10
132.813
 20
102.946
 11
132.573
 21
103.237
  0
LINE
  8
0
 10
132.573
 20
103.237
 11
132.371
 21
103.555
  0
LINE
  8
0
 10
132.371
 20
103.555
 11
132.211
 21
103.896
  0
LINE
  8
0
 10
132.211
 20
103.896
 11
132.094
 21
104.254
  0
LINE
  8
0
 10
132.094
 20
104.254
 11
132.024
 21
104.624
  0
LINE
  8
0
 10
132.024
 20
104.624
 11
132
 21
105
  0
LINE
  8
0
 10
132
 20
105
 11
132.024
 21
105.376
  0
LINE
  8
0
 10
132.024
 20
105.376
 11
132.094
 21
105.746
  0
LINE
  8
0
 10
132.094
 20
105.746
 11
132.211
 21
106.104
  0
LINE
  8
0
 10
132.211
 20
106.104
 11
132.371
 21
106.445
  0
LINE
  8
0
 10
132.371
 20
106.445
 11
132.573
 21
106.763
  0
LINE
  8
0
 10
132.573
 20
106.763
 11
132.813
 21
107.054
  0
LINE
  8
0
 10
132.813
 20
107.054
 11
133.088
 21
107.312
  0
LINE
  8
0
 10
133.088
 20
107.312
 11
133.393
 21
107.533
  0
LINE
  8
0
 10
133.393
 20
107.533
 11
133.723
 21
107.714
  0
LINE
  8
0
 10
133.723
 20
107.714
 11
134.073
 21
107.853
  0
LINE
  8
0
 10
134.073
 20
107.853
 11
134.438
 21
107.947
  0
LINE
  8
0
 10
134.438
 20
107.947
 11
134.812
 21
107.994
  0
LINE
  8
0
 10
134.812
 20
107.994
 11
135.188
 21
107.994
  0
LINE
  8
0
 10
135.188
 20
107.994
 11
135.562
 21
107.947
  0
LINE
  8
0
 10
135.562
 20
107.947
 11
135.927
 21
107.853
  0
LINE
  8
0
 10
135.927
 20
107.853
 11
136.277
 21
107.714
  0
LINE
  8
0
 10
136.277
 20
107.714
 11
136.607
 21
107.533
  0
LINE
  8
0
 10
136.607
 20
107.533
 11
136.912
 21
107.312
  0
LINE
  8
0
 10
136.912
 20
107.312
 11
137.187
 21
107.054
  0
LINE
  8
0
 10
137.187
 20
107.054
 11
137.427
 21
106.763
  0
LINE
  8
0
 10
137.427
 20
106.763
 11
137.629
 21
106.445
  0
LINE
  8
0
 10
137.629
 20
106.445
 11
137.789
 21
106.104
  0
LINE
  8
0
 10
137.789
 20
106.104
 11
137.906
 21
105.746
  0
LINE
  8
0
 10
137.906
 20
105.746
 11
137.976
 21
105.376
  0
LINE
  8
0
 10
137.976
 20
105.376
 11
138
 21
105
  0
LINE
  8
0
 10
138
 20
105
 11
137.976
 21
104.624
  0
LINE
  8
0
 10
137.976
 20
104.624
 11
137.906
 21
104.254
  0
LINE
  8
0
 10
137.906
 20
104.254
 11
137.789
 21
103.896
  0
LINE
  8
0
 10
137.789
 20
103.896
 11
137.629
 21
103.555
  0
LINE
  8
0
 10
137.629
 20
103.555
 11
137.427
 21
103.237
  0
LINE
  8
0
 10
137.427
 20
103.237
 11
137.187
 21
102.946
  0
LINE
  8
0
 10
137.187
 20
102.946
 11
136.912
 21
102.688
  0
LINE
  8
0
 10
136.912
 20
102.688
 11
136.607
 21
102.467
  0
LINE
  8
0
 10
136.607
 20
102.467
 11
136.277
 21
102.286
  0
LINE
  8
0
 10
136.277
 20
102.286
 11
135.927
 21
102.147
  0
LINE
  8
0
 10
135.927
 20
102.147
 11
135.562
 21
102.053
  0
LINE
  8
0
 10
135.562
 20
102.053
 11
135.188
 21
102.006
  0
LINE
  8
0
 10
135.188
 20
102.006
 11
134.812
 21
102.006
  0
LINE
  8
0
 10
-135.188
 20
102.006
 11
-135.562
 21
102.053
  0
LINE
  8
0
 10
-135.562
 20
102.053
 11
-135.927
 21
102.147
  0
LINE
  8
0
 10
-135.927
 20
102.147
 11
-136.277
 21
102.286
  0
LINE
  8
0
 10
-136.277
 20
102.286
 11
-136.607
 21
102.467
  0
LINE
  8
0
 10
-136.607
 20
102.467
 11
-136.912
 21
102.688
  0
LINE
  8
0
 10
-136.912
 20
102.688
 11
-137.187
 21
102.946
  0
LINE
  8
0
 10
-137.187
 20
102.946
 11
-137.427
 21
103.237
  0
LINE
  8
0
 10
-137.427
 20
103.237
 11
-137.629
 21
103.555
  0
LINE
  8
0
 10
-137.629
 20
103.555
 11
-137.789
 21
103.896
  0
LINE
  8
0
 10
-137.789
 20
103.896
 11
-137.906
 21
104.254
  0
LINE
  8
0
 10
-137.906
 20
104.254
 11
-137.976
 21
104.624
  0
LINE
  8
0
 10
-137.976
 20
104.624
 11
-138
 21
105
  0
LINE
  8
0
 10
-138
 20
105
 11
-137.976
 21
105.376
  0
LINE
  8
0
 10
-137.976
 20
105.376
 11
-137.906
 21
105.746
  0
LINE
  8
0
 10
-137.906
 20
105.746
 11
-137.789
 21
106.104
  0
LINE
  8
0
 10
-137.789
 20
106.104
 11
-137.629
 21
106.445
  0
LINE
  8
0
 10
-137.629
 20
106.445
 11
-137.427
 21
106.763
  0
LINE
  8
0
 10
-137.427
 20
106.763
 11
-137.187
 21
107.054
  0
LINE
  8
0
 10
-137.187
 20
107.054
 11
-136.912
 21
107.312
  0
LINE
  8
0
 10
-136.912
 20
107.312
 11
-136.607
 21
107.533
  0
LINE
  8
0
 10
-136.607
 20
107.533
 11
-136.277
 21
107.714
  0
LINE
  8
0
 10
-136.277
 20
107.714
 11
-135.927
 21
107.853
  0
LINE
  8
0
 10
-135.927
 20
107.853
 11
-135.562
 21
107.947
  0
LINE
  8
0
 10
-135.562
 20
107.947
 11
-135.188
 21
107.994
  0
LINE
  8
0
 10
-135.188
 20
107.994
 11
-134.812
 21
107.994
  0
LINE
  8
0
 10
-134.812
 20
107.994
 11
-134.438
 21
107.947
  0
LINE
  8
0
 10
-134.438
 20
107.947
 11
-134.073
 21
107.853
  0
LINE
  8
0
 10
-134.073
 20
107.853
 11
-133.723
 21
107.714
  0
LINE
  8
0
 10
-133.723
 20
107.714
 11
-133.393
 21
107.533
  0
LINE
  8
0
 10
-133.393
 20
107.533
 11
-133.088
 21
107.312
  0
LINE
  8
0
 10
-133.088
 20
107.312
 11
-132.813
 21
107.054
  0
LINE
  8
0
 10
-132.813
 20
107.054
 11
-132.573
 21
106.763
  0
LINE
  8
0
 10
-132.573
 20
106.763
 11
-132.371
 21
106.445
  0
LINE
  8
0
 10
-132.371
 20
106.445
 11
-132.211
 21
106.104
  0
LINE
  8
0
 10
-132.211
 20
106.104
 11
-132.094
 21
105.746
  0
LINE
  8
0
 10
-132.094
 20
105.746
 11
-132.024
 21
105.376
  0
LINE
  8
0
 10
-132.024
 20
105.376
 11
-132
 21
105
  0
LINE
  8
0
 10
-132
 20
105
 11
-132.024
 21
104.624
  0
LINE
  8
0
 10
-132.024
 20
104.624
 11
-132.094
 21
104.254
  0
LINE
  8
0
 10
-132.094
 20
104.254
 11
-132.211
 21
103.896
  0
LINE
  8
0
 10
-132.211
 20
103.896
 11
-132.371
 21
103.555
  0
LINE
  8
0
 10
-132.371
 20
103.555
 11
-132.573
 21
103.237
  0
LINE
  8
0
 10
-132.573
 20
103.237
 11
-132.813
 21
102.946
  0
LINE
  8
0
 10
-132.813
 20
102.946
 11
-133.088
 21
102.688
  0
LINE
  8
0
 10
-133.088
 20
102.688
 11
-133.393
 21
102.467
  0
LINE
  8
0
 10
-133.393
 20
102.467
 11
-133.723
 21
102.286
  0
LINE
  8
0
 10
-133.723
 20
102.286
 11
-134.073
 21
102.147
  0
LINE
  8
0
 10
-134.073
 20
102.147
 11
-134.438
 21
102.053
  0
LINE
  8
0
 10
-134.438
 20
102.053
 11
-134.812
 21
102.006
  0
LINE
  8
0
 10
-134.812
 20
102.006
 11
-135.188
 21
102.006
  0
LINE
  8
0
 10
134.812
 20
-107.994
 11
134.438
 21
-107.947
  0
LINE
  8
0
 10
134.438
 20
-107.947
 11
134.073
 21
-107.853
  0
LINE
  8
0
 10
134.073
 20
-107.853
 11
133.723
 21
-107.714
  0
LINE
  8
0
 10
133.723
 20
-107.714
 11
133.393
 21
-107.533
  0
LINE
  8
0
 10
133.393
 20
-107.533
 11
133.088
 21
-107.312
  0
LINE
  8
0
 10
133.088
 20
-107.312
 11
132.813
 21
-107.054
  0
LINE
  8
0
 10
132.813
 20
-107.054
 11
132.573
 21
-106.763
  0
LINE
  8
0
 10
132.573
 20
-106.763
 11
132.371
 21
-106.445
  0
LINE
  8
0
 10
132.371
 20
-106.445
 11
132.211
 21
-106.104
  0
LINE
  8
0
 10
132.211
 20
-106.104
 11
132.094
 21
-105.746
  0
LINE
  8
0
 10
132.094
 20
-105.746
 11
132.024
 21
-105.376
  0
LINE
  8
0
 10
132.024
 20
-105.376
 11
132
 21
-105
  0
LINE
  8
0
 10
132
 20
-105
 11
132.024
 21
-104.624
  0
LINE
  8
0
 10
132.024
 20
-104.624
 11
132.094
 21
-104.254
  0
LINE
  8
0
 10
132.094
 20
-104.254
 11
132.211
 21
-103.896
  0
LINE
  8
0
 10
132.211
 20
-103.896
 11
132.371
 21
-103.555
  0
LINE
  8
0
 10
132.371
 20
-103.555
 11
132.573
 21
-103.237
  0
LINE
  8
0
 10
132.573
 20
-103.237
 11
132.813
 21
-102.946
  0
LINE
  8
0
 10
132.813
 20
-102.946
 11
133.088
 21
-102.688
  0
LINE
  8
0
 10
133.088
 20
-102.688
 11
133.393
 21
-102.467
  0
LINE
  8
0
 10
133.393
 20
-102.467
 11
133.723
 21
-102.286
  0
LINE
  8
0
 10
133.723
 20
-102.286
 11
134.073
 21
-102.147
  0
LINE
  8
0
 10
134.073
 20
-102.147
 11
134.438
 21
-102.053
  0
LINE
  8
0
 10
134.438
 20
-102.053
 11
134.812
 21
-102.006
  0
LINE
  8
0
 10
134.812
 20
-102.006
 11
135.188
 21
-102.006
  0
LINE
  8
0
 10
135.188
 20
-102.006
 11
135.562
 21
-102.053
  0
LINE
  8
0
 10
135.562
 20
-102.053
 11
135.927
 21
-102.147
  0
LINE
  8
0
 10
135.927
 20
-102.147
 11
136.277
 21
-102.286
  0
LINE
  8
0
 10
136.277
 20
-102.286
 11
136.607
 21
-102.467
  0
LINE
  8
0
 10
136.607
 20
-102.467
 11
136.912
 21
-102.688
  0
LINE
  8
0
 10
136.912
 20
-102.688
 11
137.187
 21
-102.946
  0
LINE
  8
0
 10
137.187
 20
-102.946
 11
137.427
 21
-103.237
  0
LINE
  8
0
 10
137.427
 20
-103.237
 11
137.629
 21
-103.555
  0
LINE
  8
0
 10
137.629
 20
-103.555
 11
137.789
 21
-103.896
  0
LINE
  8
0
 10
137.789
 20
-103.896
 11
137.906
 21
-104.254
  0
LINE
  8
0
 10
137.906
 20
-104.254
 11
137.976
 21
-104.624
  0
LINE
  8
0
 10
137.976
 20
-104.624
 11
138
 21
-105
  0
LINE
  8
0
 10
138
 20
-105
 11
137.976
 21
-105.376
  0
LINE
  8
0
 10
137.976
 20
-105.376
 11
137.906
 21
-105.746
  0
LINE
  8
0
 10
137.906
 20
-105.746
 11
137.789
 21
-106.104
  0
LINE
  8
0
 10
137.789
 20
-106.104
 11
137.629
 21
-106.445
  0
LINE
  8
0
 10
137.629
 20
-106.445
 11
137.427
 21
-106.763
  0
LINE
  8
0
 10
137.427
 20
-106.763
 11
137.187
 21
-107.054
  0
LINE
  8
0
 10
137.187
 20
-107.054
 11
136.912
 21
-107.312
  0
LINE
  8
0
 10
136.912
 20
-107.312
 11
136.607
 21
-107.533
  0
LINE
  8
0
 10
136.607
 20
-107.533
 11
136.277
 21
-107.714
  0
LINE
  8
0
 10
136.277
 20
-107.714
 11
135.927
 21
-107.853
  0
LINE
  8
0
 10
135.927
 20
-107.853
 11
135.562
 21
-107.947
  0
LINE
  8
0
 10
135.562
 20
-107.947
 11
135.188
 21
-107.994
  0
LINE
  8
0
 10
135.188
 20
-107.994
 11
134.812
 21
-107.994
  0
LINE
  8
0
 10
-135.188
 20
-107.994
 11
-135.562
 21
-107.947
  0
LINE
  8
0
 10
-135.562
 20
-107.947
 11
-135.927
 21
-107.853
  0
LINE
  8
0
 10
-135.927
 20
-107.853
 11
-136.277
 21
-107.714
  0
LINE
  8
0
 10
-136.277
 20
-107.714
 11
-136.607
 21
-107.533
  0
LINE
  8
0
 10
-136.607
 20
-107.533
 11
-136.912
 21
-107.312
  0
LINE
  8
0
 10
-136.912
 20
-107.312
 11
-137.187
 21
-107.054
  0
LINE
  8
0
 10
-137.187
 20
-107.054
 11
-137.427
 21
-106.763
  0
LINE
  8
0
 10
-137.427
 20
-106.763
 11
-137.629
 21
-106.445
  0
LINE
  8
0
 10
-137.629
 20
-106.445
 11
-137.789
 21
-106.104
  0
LINE
  8
0
 10
-137.789
 20
-106.104
 11
-137.906
 21
-105.746
  0
LINE
  8
0
 10
-137.906
 20
-105.746
 11
-137.976
 21
-105.376
  0
LINE
  8
0
 10
-137.976
 20
-105.376
 11
-138
 21
-105
  0
LINE
  8
0
 10
-138
 20
-105
 11
-137.976
 21
-104.624
  0
LINE
  8
0
 10
-137.976
 20
-104.624
 11
-137.906
 21
-104.254
  0
LINE
  8
0
 10
-137.906
 20
-104.254
 11
-137.789
 21
-103.896
  0
LINE
  8
0
 10
-137.789
 20
-103.896
 11
-137.629
 21
-103.555
  0
LINE
  8
0
 10
-137.629
 20
-103.555
 11
-137.427
 21
-103.237
  0
LINE
  8
0
 10
-137.427
 20
-103.237
 11
-137.187
 21
-102.946
  0
LINE
  8
0
 10
-137.187
 20
-102.946
 11
-136.912
 21
-102.688
  0
LINE
  8
0
 10
-136.912
 20
-102.688
 11
-136.607
 21
-102.467
  0
LINE
  8
0
 10
-136.607
 20
-102.467
 11
-136.277
 21
-102.286
  0
LINE
  8
0
 10
-136.277
 20
-102.286
 11
-135.927
 21
-102.147
  0
LINE
  8
0
 10
-135.927
 20
-102.147
 11
-135.562
 21
-102.053
  0
LINE
  8
0
 10
-135.562
 20
-102.053
 11
-135.188
 21
-102.006
  0
LINE
  8
0
 10
-135.188
 20
-102.006
 11
-134.812
 21
-102.006
  0
LINE
  8
0
 10
-134.812
 20
-102.006
 11
-134.438
 21
-102.053
  0
LINE
  8
0
 10
-134.438
 20
-102.053
 11
-134.073
 21
-102.147
  0
LINE
  8
0
 10
-134.073
 20
-102.147
 11
-133.723
 21
-102.286
  0
LINE
  8
0
 10
-133.723
 20
-102.286
 11
-133.393
 21
-102.467
  0
LINE
  8
0
 10
-133.393
 20
-102.467
 11
-133.088
 21
-102.688
  0
LINE
  8
0
 10
-133.088
 20
-102.688
 11
-132.813
 21
-102.946
  0
LINE
  8
0
 10
-132.813
 20
-102.946
 11
-132.573
 21
-103.237
  0
LINE
  8
0
 10
-132.573
 20
-103.237
 11
-132.371
 21
-103.555
  0
LINE
  8
0
 10
-132.371
 20
-103.555
 11
-132.211
 21
-103.896
  0
LINE
  8
0
 10
-132.211
 20
-103.896
 11
-132.094
 21
-104.254
  0
LINE
  8
0
 10
-132.094
 20
-104.254
 11
-132.024
 21
-104.624
  0
LINE
  8
0
 10
-132.024
 20
-104.624
 11
-132
 21
-105
  0
LINE
  8
0
 10
-132
 20
-105
 11
-132.024
 21
-105.376
  0
LINE
  8
0
 10
-132.024
 20
-105.376
 11
-132.094
 21
-105.746
  0
LINE
  8
0
 10
-132.094
 20
-105.746
 11
-132.211
 21
-106.104
  0
LINE
  8
0
 10
-132.211
 20
-106.104
 11
-132.371
 21
-106.445
  0
LINE
  8
0
 10
-132.371
 20
-106.445
 11
-132.573
 21
-106.763
  0
LINE
  8
0
 10
-132.573
 20
-106.763
 11
-132.813
 21
-107.054
  0
LINE
  8
0
 10
-132.813
 20
-107.054
 11
-133.088
 21
-107.312
  0
LINE
  8
0
 10
-133.088
 20
-107.312
 11
-133.393
 21
-107.533
  0
LINE
  8
0
 10
-133.393
 20
-107.533
 11
-133.723
 21
-107.714
  0
LINE
  8
0
 10
-133.723
 20
-107.714
 11
-134.073
 21
-107.853
  0
LINE
  8
0
 10
-134.073
 20
-107.853
 11
-134.438
 21
-107.947
  0
LINE
  8
0
 10
-134.438
 20
-107.947
 11
-134.812
 21
-107.994
  0
LINE
  8
0
 10
-134.812
 20
-107.994
 11
-135.188
 21
-107.994
  0
ENDSEC
  0
SECTION
  2
OBJECTS
  0
DICTIONARY
  0
ENDSEC
  0
EOF
