  0
SECTION
  2
BLOCKS
  0
ENDSEC
  0
SECTION
  2
ENTITIES
  0
LINE
  8
0
 10
107.937
 20
-66.9114
 11
108.545
 21
-66.7553
  0
LINE
  8
0
 10
108.545
 20
-66.7553
 11
109.129
 21
-66.5241
  0
LINE
  8
0
 10
109.129
 20
-66.5241
 11
109.679
 21
-66.2216
  0
LINE
  8
0
 10
109.679
 20
-66.2216
 11
110.187
 21
-65.8526
  0
LINE
  8
0
 10
110.187
 20
-65.8526
 11
110.645
 21
-65.4227
  0
LINE
  8
0
 10
110.645
 20
-65.4227
 11
111.045
 21
-64.9389
  0
LINE
  8
0
 10
111.045
 20
-64.9389
 11
111.382
 21
-64.4088
  0
LINE
  8
0
 10
111.382
 20
-64.4088
 11
111.649
 21
-63.8406
  0
LINE
  8
0
 10
111.649
 20
-63.8406
 11
111.843
 21
-63.2434
  0
LINE
  8
0
 10
111.843
 20
-63.2434
 11
111.961
 21
-62.6267
  0
LINE
  8
0
 10
111.961
 20
-62.6267
 11
112
 21
-62
  0
LINE
  8
0
 10
112
 20
-62
 11
112
 21
62
  0
LINE
  8
0
 10
112
 20
62
 11
111.961
 21
62.6267
  0
LINE
  8
0
 10
111.961
 20
62.6267
 11
111.843
 21
63.2434
  0
LINE
  8
0
 10
111.843
 20
63.2434
 11
111.649
 21
63.8406
  0
LINE
  8
0
 10
111.649
 20
63.8406
 11
111.382
 21
64.4088
  0
LINE
  8
0
 10
111.382
 20
64.4088
 11
111.045
 21
64.9389
  0
LINE
  8
0
 10
111.045
 20
64.9389
 11
110.645
 21
65.4227
  0
LINE
  8
0
 10
110.645
 20
65.4227
 11
110.187
 21
65.8526
  0
LINE
  8
0
 10
110.187
 20
65.8526
 11
109.679
 21
66.2216
  0
LINE
  8
0
 10
109.679
 20
66.2216
 11
109.129
 21
66.5241
  0
LINE
  8
0
 10
109.129
 20
66.5241
 11
108.545
 21
66.7553
  0
LINE
  8
0
 10
108.545
 20
66.7553
 11
107.937
 21
66.9114
  0
LINE
  8
0
 10
107.937
 20
66.9114
 11
107.314
 21
66.9901
  0
LINE
  8
0
 10
107.314
 20
66.9901
 11
-107.314
 21
66.9901
  0
LINE
  8
0
 10
-107.314
 20
66.9901
 11
-107.937
 21
66.9114
  0
LINE
  8
0
 10
-107.937
 20
66.9114
 11
-108.545
 21
66.7553
  0
LINE
  8
0
 10
-108.545
 20
66.7553
 11
-109.129
 21
66.5241
  0
LINE
  8
0
 10
-109.129
 20
66.5241
 11
-109.679
 21
66.2216
  0
LINE
  8
0
 10
-109.679
 20
66.2216
 11
-110.187
 21
65.8526
  0
LINE
  8
0
 10
-110.187
 20
65.8526
 11
-110.645
 21
65.4227
  0
LINE
  8
0
 10
-110.645
 20
65.4227
 11
-111.045
 21
64.9389
  0
LINE
  8
0
 10
-111.045
 20
64.9389
 11
-111.382
 21
64.4088
  0
LINE
  8
0
 10
-111.382
 20
64.4088
 11
-111.649
 21
63.8406
  0
LINE
  8
0
 10
-111.649
 20
63.8406
 11
-111.843
 21
63.2434
  0
LINE
  8
0
 10
-111.843
 20
63.2434
 11
-111.961
 21
62.6267
  0
LINE
  8
0
 10
-111.961
 20
62.6267
 11
-112
 21
62
  0
LINE
  8
0
 10
-112
 20
62
 11
-112
 21
-62
  0
LINE
  8
0
 10
-112
 20
-62
 11
-111.961
 21
-62.6267
  0
LINE
  8
0
 10
-111.961
 20
-62.6267
 11
-111.843
 21
-63.2434
  0
LINE
  8
0
 10
-111.843
 20
-63.2434
 11
-111.649
 21
-63.8406
  0
LINE
  8
0
 10
-111.649
 20
-63.8406
 11
-111.382
 21
-64.4088
  0
LINE
  8
0
 10
-111.382
 20
-64.4088
 11
-111.045
 21
-64.9389
  0
LINE
  8
0
 10
-111.045
 20
-64.9389
 11
-110.645
 21
-65.4227
  0
LINE
  8
0
 10
-110.645
 20
-65.4227
 11
-110.187
 21
-65.8526
  0
LINE
  8
0
 10
-110.187
 20
-65.8526
 11
-109.679
 21
-66.2216
  0
LINE
  8
0
 10
-109.679
 20
-66.2216
 11
-109.129
 21
-66.5241
  0
LINE
  8
0
 10
-109.129
 20
-66.5241
 11
-108.545
 21
-66.7553
  0
LINE
  8
0
 10
-108.545
 20
-66.7553
 11
-107.937
 21
-66.9114
  0
LINE
  8
0
 10
-107.937
 20
-66.9114
 11
-107.314
 21
-66.9901
  0
LINE
  8
0
 10
-107.314
 20
-66.9901
 11
107.314
 21
-66.9901
  0
LINE
  8
0
 10
107.314
 20
-66.9901
 11
107.937
 21
-66.9114
  0
LINE
  8
0
 10
104.812
 20
57.0059
 11
104.438
 21
57.0531
  0
LINE
  8
0
 10
104.438
 20
57.0531
 11
104.073
 21
57.1468
  0
LINE
  8
0
 10
104.073
 20
57.1468
 11
103.723
 21
57.2855
  0
LINE
  8
0
 10
103.723
 20
57.2855
 11
103.393
 21
57.467
  0
LINE
  8
0
 10
103.393
 20
57.467
 11
103.088
 21
57.6885
  0
LINE
  8
0
 10
103.088
 20
57.6885
 11
102.813
 21
57.9464
  0
LINE
  8
0
 10
102.813
 20
57.9464
 11
102.573
 21
58.2366
  0
LINE
  8
0
 10
102.573
 20
58.2366
 11
102.371
 21
58.5547
  0
LINE
  8
0
 10
102.371
 20
58.5547
 11
102.211
 21
58.8956
  0
LINE
  8
0
 10
102.211
 20
58.8956
 11
102.094
 21
59.2539
  0
LINE
  8
0
 10
102.094
 20
59.2539
 11
102.024
 21
59.624
  0
LINE
  8
0
 10
102.024
 20
59.624
 11
102
 21
60
  0
LINE
  8
0
 10
102
 20
60
 11
102.024
 21
60.376
  0
LINE
  8
0
 10
102.024
 20
60.376
 11
102.094
 21
60.7461
  0
LINE
  8
0
 10
102.094
 20
60.7461
 11
102.211
 21
61.1044
  0
LINE
  8
0
 10
102.211
 20
61.1044
 11
102.371
 21
61.4453
  0
LINE
  8
0
 10
102.371
 20
61.4453
 11
102.573
 21
61.7634
  0
LINE
  8
0
 10
102.573
 20
61.7634
 11
102.813
 21
62.0536
  0
LINE
  8
0
 10
102.813
 20
62.0536
 11
103.088
 21
62.3115
  0
LINE
  8
0
 10
103.088
 20
62.3115
 11
103.393
 21
62.533
  0
LINE
  8
0
 10
103.393
 20
62.533
 11
103.723
 21
62.7145
  0
LINE
  8
0
 10
103.723
 20
62.7145
 11
104.073
 21
62.8532
  0
LINE
  8
0
 10
104.073
 20
62.8532
 11
104.438
 21
62.9469
  0
LINE
  8
0
 10
104.438
 20
62.9469
 11
104.812
 21
62.9941
  0
LINE
  8
0
 10
104.812
 20
62.9941
 11
105.188
 21
62.9941
  0
LINE
  8
0
 10
105.188
 20
62.9941
 11
105.562
 21
62.9469
  0
LINE
  8
0
 10
105.562
 20
62.9469
 11
105.927
 21
62.8532
  0
LINE
  8
0
 10
105.927
 20
62.8532
 11
106.277
 21
62.7145
  0
LINE
  8
0
 10
106.277
 20
62.7145
 11
106.607
 21
62.533
  0
LINE
  8
0
 10
106.607
 20
62.533
 11
106.912
 21
62.3115
  0
LINE
  8
0
 10
106.912
 20
62.3115
 11
107.187
 21
62.0536
  0
LINE
  8
0
 10
107.187
 20
62.0536
 11
107.427
 21
61.7634
  0
LINE
  8
0
 10
107.427
 20
61.7634
 11
107.629
 21
61.4453
  0
LINE
  8
0
 10
107.629
 20
61.4453
 11
107.789
 21
61.1044
  0
LINE
  8
0
 10
107.789
 20
61.1044
 11
107.906
 21
60.7461
  0
LINE
  8
0
 10
107.906
 20
60.7461
 11
107.976
 21
60.376
  0
LINE
  8
0
 10
107.976
 20
60.376
 11
108
 21
60
  0
LINE
  8
0
 10
108
 20
60
 11
107.976
 21
59.624
  0
LINE
  8
0
 10
107.976
 20
59.624
 11
107.906
 21
59.2539
  0
LINE
  8
0
 10
107.906
 20
59.2539
 11
107.789
 21
58.8956
  0
LINE
  8
0
 10
107.789
 20
58.8956
 11
107.629
 21
58.5547
  0
LINE
  8
0
 10
107.629
 20
58.5547
 11
107.427
 21
58.2366
  0
LINE
  8
0
 10
107.427
 20
58.2366
 11
107.187
 21
57.9464
  0
LINE
  8
0
 10
107.187
 20
57.9464
 11
106.912
 21
57.6885
  0
LINE
  8
0
 10
106.912
 20
57.6885
 11
106.607
 21
57.467
  0
LINE
  8
0
 10
106.607
 20
57.467
 11
106.277
 21
57.2855
  0
LINE
  8
0
 10
106.277
 20
57.2855
 11
105.927
 21
57.1468
  0
LINE
  8
0
 10
105.927
 20
57.1468
 11
105.562
 21
57.0531
  0
LINE
  8
0
 10
105.562
 20
57.0531
 11
105.188
 21
57.0059
  0
LINE
  8
0
 10
105.188
 20
57.0059
 11
104.812
 21
57.0059
  0
LINE
  8
0
 10
-105.188
 20
57.0059
 11
-105.562
 21
57.0531
  0
LINE
  8
0
 10
-105.562
 20
57.0531
 11
-105.927
 21
57.1468
  0
LINE
  8
0
 10
-105.927
 20
57.1468
 11
-106.277
 21
57.2855
  0
LINE
  8
0
 10
-106.277
 20
57.2855
 11
-106.607
 21
57.467
  0
LINE
  8
0
 10
-106.607
 20
57.467
 11
-106.912
 21
57.6885
  0
LINE
  8
0
 10
-106.912
 20
57.6885
 11
-107.187
 21
57.9464
  0
LINE
  8
0
 10
-107.187
 20
57.9464
 11
-107.427
 21
58.2366
  0
LINE
  8
0
 10
-107.427
 20
58.2366
 11
-107.629
 21
58.5547
  0
LINE
  8
0
 10
-107.629
 20
58.5547
 11
-107.789
 21
58.8956
  0
LINE
  8
0
 10
-107.789
 20
58.8956
 11
-107.906
 21
59.2539
  0
LINE
  8
0
 10
-107.906
 20
59.2539
 11
-107.976
 21
59.624
  0
LINE
  8
0
 10
-107.976
 20
59.624
 11
-108
 21
60
  0
LINE
  8
0
 10
-108
 20
60
 11
-107.976
 21
60.376
  0
LINE
  8
0
 10
-107.976
 20
60.376
 11
-107.906
 21
60.7461
  0
LINE
  8
0
 10
-107.906
 20
60.7461
 11
-107.789
 21
61.1044
  0
LINE
  8
0
 10
-107.789
 20
61.1044
 11
-107.629
 21
61.4453
  0
LINE
  8
0
 10
-107.629
 20
61.4453
 11
-107.427
 21
61.7634
  0
LINE
  8
0
 10
-107.427
 20
61.7634
 11
-107.187
 21
62.0536
  0
LINE
  8
0
 10
-107.187
 20
62.0536
 11
-106.912
 21
62.3115
  0
LINE
  8
0
 10
-106.912
 20
62.3115
 11
-106.607
 21
62.533
  0
LINE
  8
0
 10
-106.607
 20
62.533
 11
-106.277
 21
62.7145
  0
LINE
  8
0
 10
-106.277
 20
62.7145
 11
-105.927
 21
62.8532
  0
LINE
  8
0
 10
-105.927
 20
62.8532
 11
-105.562
 21
62.9469
  0
LINE
  8
0
 10
-105.562
 20
62.9469
 11
-105.188
 21
62.9941
  0
LINE
  8
0
 10
-105.188
 20
62.9941
 11
-104.812
 21
62.9941
  0
LINE
  8
0
 10
-104.812
 20
62.9941
 11
-104.438
 21
62.9469
  0
LINE
  8
0
 10
-104.438
 20
62.9469
 11
-104.073
 21
62.8532
  0
LINE
  8
0
 10
-104.073
 20
62.8532
 11
-103.723
 21
62.7145
  0
LINE
  8
0
 10
-103.723
 20
62.7145
 11
-103.393
 21
62.533
  0
LINE
  8
0
 10
-103.393
 20
62.533
 11
-103.088
 21
62.3115
  0
LINE
  8
0
 10
-103.088
 20
62.3115
 11
-102.813
 21
62.0536
  0
LINE
  8
0
 10
-102.813
 20
62.0536
 11
-102.573
 21
61.7634
  0
LINE
  8
0
 10
-102.573
 20
61.7634
 11
-102.371
 21
61.4453
  0
LINE
  8
0
 10
-102.371
 20
61.4453
 11
-102.211
 21
61.1044
  0
LINE
  8
0
 10
-102.211
 20
61.1044
 11
-102.094
 21
60.7461
  0
LINE
  8
0
 10
-102.094
 20
60.7461
 11
-102.024
 21
60.376
  0
LINE
  8
0
 10
-102.024
 20
60.376
 11
-102
 21
60
  0
LINE
  8
0
 10
-102
 20
60
 11
-102.024
 21
59.624
  0
LINE
  8
0
 10
-102.024
 20
59.624
 11
-102.094
 21
59.2539
  0
LINE
  8
0
 10
-102.094
 20
59.2539
 11
-102.211
 21
58.8956
  0
LINE
  8
0
 10
-102.211
 20
58.8956
 11
-102.371
 21
58.5547
  0
LINE
  8
0
 10
-102.371
 20
58.5547
 11
-102.573
 21
58.2366
  0
LINE
  8
0
 10
-102.573
 20
58.2366
 11
-102.813
 21
57.9464
  0
LINE
  8
0
 10
-102.813
 20
57.9464
 11
-103.088
 21
57.6885
  0
LINE
  8
0
 10
-103.088
 20
57.6885
 11
-103.393
 21
57.467
  0
LINE
  8
0
 10
-103.393
 20
57.467
 11
-103.723
 21
57.2855
  0
LINE
  8
0
 10
-103.723
 20
57.2855
 11
-104.073
 21
57.1468
  0
LINE
  8
0
 10
-104.073
 20
57.1468
 11
-104.438
 21
57.0531
  0
LINE
  8
0
 10
-104.438
 20
57.0531
 11
-104.812
 21
57.0059
  0
LINE
  8
0
 10
-104.812
 20
57.0059
 11
-105.188
 21
57.0059
  0
LINE
  8
0
 10
104.812
 20
-62.9941
 11
104.438
 21
-62.9469
  0
LINE
  8
0
 10
104.438
 20
-62.9469
 11
104.073
 21
-62.8532
  0
LINE
  8
0
 10
104.073
 20
-62.8532
 11
103.723
 21
-62.7145
  0
LINE
  8
0
 10
103.723
 20
-62.7145
 11
103.393
 21
-62.533
  0
LINE
  8
0
 10
103.393
 20
-62.533
 11
103.088
 21
-62.3115
  0
LINE
  8
0
 10
103.088
 20
-62.3115
 11
102.813
 21
-62.0536
  0
LINE
  8
0
 10
102.813
 20
-62.0536
 11
102.573
 21
-61.7634
  0
LINE
  8
0
 10
102.573
 20
-61.7634
 11
102.371
 21
-61.4453
  0
LINE
  8
0
 10
102.371
 20
-61.4453
 11
102.211
 21
-61.1044
  0
LINE
  8
0
 10
102.211
 20
-61.1044
 11
102.094
 21
-60.7461
  0
LINE
  8
0
 10
102.094
 20
-60.7461
 11
102.024
 21
-60.376
  0
LINE
  8
0
 10
102.024
 20
-60.376
 11
102
 21
-60
  0
LINE
  8
0
 10
102
 20
-60
 11
102.024
 21
-59.624
  0
LINE
  8
0
 10
102.024
 20
-59.624
 11
102.094
 21
-59.2539
  0
LINE
  8
0
 10
102.094
 20
-59.2539
 11
102.211
 21
-58.8956
  0
LINE
  8
0
 10
102.211
 20
-58.8956
 11
102.371
 21
-58.5547
  0
LINE
  8
0
 10
102.371
 20
-58.5547
 11
102.573
 21
-58.2366
  0
LINE
  8
0
 10
102.573
 20
-58.2366
 11
102.813
 21
-57.9464
  0
LINE
  8
0
 10
102.813
 20
-57.9464
 11
103.088
 21
-57.6885
  0
LINE
  8
0
 10
103.088
 20
-57.6885
 11
103.393
 21
-57.467
  0
LINE
  8
0
 10
103.393
 20
-57.467
 11
103.723
 21
-57.2855
  0
LINE
  8
0
 10
103.723
 20
-57.2855
 11
104.073
 21
-57.1468
  0
LINE
  8
0
 10
104.073
 20
-57.1468
 11
104.438
 21
-57.0531
  0
LINE
  8
0
 10
104.438
 20
-57.0531
 11
104.812
 21
-57.0059
  0
LINE
  8
0
 10
104.812
 20
-57.0059
 11
105.188
 21
-57.0059
  0
LINE
  8
0
 10
105.188
 20
-57.0059
 11
105.562
 21
-57.0531
  0
LINE
  8
0
 10
105.562
 20
-57.0531
 11
105.927
 21
-57.1468
  0
LINE
  8
0
 10
105.927
 20
-57.1468
 11
106.277
 21
-57.2855
  0
LINE
  8
0
 10
106.277
 20
-57.2855
 11
106.607
 21
-57.467
  0
LINE
  8
0
 10
106.607
 20
-57.467
 11
106.912
 21
-57.6885
  0
LINE
  8
0
 10
106.912
 20
-57.6885
 11
107.187
 21
-57.9464
  0
LINE
  8
0
 10
107.187
 20
-57.9464
 11
107.427
 21
-58.2366
  0
LINE
  8
0
 10
107.427
 20
-58.2366
 11
107.629
 21
-58.5547
  0
LINE
  8
0
 10
107.629
 20
-58.5547
 11
107.789
 21
-58.8956
  0
LINE
  8
0
 10
107.789
 20
-58.8956
 11
107.906
 21
-59.2539
  0
LINE
  8
0
 10
107.906
 20
-59.2539
 11
107.976
 21
-59.624
  0
LINE
  8
0
 10
107.976
 20
-59.624
 11
108
 21
-60
  0
LINE
  8
0
 10
108
 20
-60
 11
107.976
 21
-60.376
  0
LINE
  8
0
 10
107.976
 20
-60.376
 11
107.906
 21
-60.7461
  0
LINE
  8
0
 10
107.906
 20
-60.7461
 11
107.789
 21
-61.1044
  0
LINE
  8
0
 10
107.789
 20
-61.1044
 11
107.629
 21
-61.4453
  0
LINE
  8
0
 10
107.629
 20
-61.4453
 11
107.427
 21
-61.7634
  0
LINE
  8
0
 10
107.427
 20
-61.7634
 11
107.187
 21
-62.0536
  0
LINE
  8
0
 10
107.187
 20
-62.0536
 11
106.912
 21
-62.3115
  0
LINE
  8
0
 10
106.912
 20
-62.3115
 11
106.607
 21
-62.533
  0
LINE
  8
0
 10
106.607
 20
-62.533
 11
106.277
 21
-62.7145
  0
LINE
  8
0
 10
106.277
 20
-62.7145
 11
105.927
 21
-62.8532
  0
LINE
  8
0
 10
105.927
 20
-62.8532
 11
105.562
 21
-62.9469
  0
LINE
  8
0
 10
105.562
 20
-62.9469
 11
105.188
 21
-62.9941
  0
LINE
  8
0
 10
105.188
 20
-62.9941
 11
104.812
 21
-62.9941
  0
LINE
  8
0
 10
-105.188
 20
-62.9941
 11
-105.562
 21
-62.9469
  0
LINE
  8
0
 10
-105.562
 20
-62.9469
 11
-105.927
 21
-62.8532
  0
LINE
  8
0
 10
-105.927
 20
-62.8532
 11
-106.277
 21
-62.7145
  0
LINE
  8
0
 10
-106.277
 20
-62.7145
 11
-106.607
 21
-62.533
  0
LINE
  8
0
 10
-106.607
 20
-62.533
 11
-106.912
 21
-62.3115
  0
LINE
  8
0
 10
-106.912
 20
-62.3115
 11
-107.187
 21
-62.0536
  0
LINE
  8
0
 10
-107.187
 20
-62.0536
 11
-107.427
 21
-61.7634
  0
LINE
  8
0
 10
-107.427
 20
-61.7634
 11
-107.629
 21
-61.4453
  0
LINE
  8
0
 10
-107.629
 20
-61.4453
 11
-107.789
 21
-61.1044
  0
LINE
  8
0
 10
-107.789
 20
-61.1044
 11
-107.906
 21
-60.7461
  0
LINE
  8
0
 10
-107.906
 20
-60.7461
 11
-107.976
 21
-60.376
  0
LINE
  8
0
 10
-107.976
 20
-60.376
 11
-108
 21
-60
  0
LINE
  8
0
 10
-108
 20
-60
 11
-107.976
 21
-59.624
  0
LINE
  8
0
 10
-107.976
 20
-59.624
 11
-107.906
 21
-59.2539
  0
LINE
  8
0
 10
-107.906
 20
-59.2539
 11
-107.789
 21
-58.8956
  0
LINE
  8
0
 10
-107.789
 20
-58.8956
 11
-107.629
 21
-58.5547
  0
LINE
  8
0
 10
-107.629
 20
-58.5547
 11
-107.427
 21
-58.2366
  0
LINE
  8
0
 10
-107.427
 20
-58.2366
 11
-107.187
 21
-57.9464
  0
LINE
  8
0
 10
-107.187
 20
-57.9464
 11
-106.912
 21
-57.6885
  0
LINE
  8
0
 10
-106.912
 20
-57.6885
 11
-106.607
 21
-57.467
  0
LINE
  8
0
 10
-106.607
 20
-57.467
 11
-106.277
 21
-57.2855
  0
LINE
  8
0
 10
-106.277
 20
-57.2855
 11
-105.927
 21
-57.1468
  0
LINE
  8
0
 10
-105.927
 20
-57.1468
 11
-105.562
 21
-57.0531
  0
LINE
  8
0
 10
-105.562
 20
-57.0531
 11
-105.188
 21
-57.0059
  0
LINE
  8
0
 10
-105.188
 20
-57.0059
 11
-104.812
 21
-57.0059
  0
LINE
  8
0
 10
-104.812
 20
-57.0059
 11
-104.438
 21
-57.0531
  0
LINE
  8
0
 10
-104.438
 20
-57.0531
 11
-104.073
 21
-57.1468
  0
LINE
  8
0
 10
-104.073
 20
-57.1468
 11
-103.723
 21
-57.2855
  0
LINE
  8
0
 10
-103.723
 20
-57.2855
 11
-103.393
 21
-57.467
  0
LINE
  8
0
 10
-103.393
 20
-57.467
 11
-103.088
 21
-57.6885
  0
LINE
  8
0
 10
-103.088
 20
-57.6885
 11
-102.813
 21
-57.9464
  0
LINE
  8
0
 10
-102.813
 20
-57.9464
 11
-102.573
 21
-58.2366
  0
LINE
  8
0
 10
-102.573
 20
-58.2366
 11
-102.371
 21
-58.5547
  0
LINE
  8
0
 10
-102.371
 20
-58.5547
 11
-102.211
 21
-58.8956
  0
LINE
  8
0
 10
-102.211
 20
-58.8956
 11
-102.094
 21
-59.2539
  0
LINE
  8
0
 10
-102.094
 20
-59.2539
 11
-102.024
 21
-59.624
  0
LINE
  8
0
 10
-102.024
 20
-59.624
 11
-102
 21
-60
  0
LINE
  8
0
 10
-102
 20
-60
 11
-102.024
 21
-60.376
  0
LINE
  8
0
 10
-102.024
 20
-60.376
 11
-102.094
 21
-60.7461
  0
LINE
  8
0
 10
-102.094
 20
-60.7461
 11
-102.211
 21
-61.1044
  0
LINE
  8
0
 10
-102.211
 20
-61.1044
 11
-102.371
 21
-61.4453
  0
LINE
  8
0
 10
-102.371
 20
-61.4453
 11
-102.573
 21
-61.7634
  0
LINE
  8
0
 10
-102.573
 20
-61.7634
 11
-102.813
 21
-62.0536
  0
LINE
  8
0
 10
-102.813
 20
-62.0536
 11
-103.088
 21
-62.3115
  0
LINE
  8
0
 10
-103.088
 20
-62.3115
 11
-103.393
 21
-62.533
  0
LINE
  8
0
 10
-103.393
 20
-62.533
 11
-103.723
 21
-62.7145
  0
LINE
  8
0
 10
-103.723
 20
-62.7145
 11
-104.073
 21
-62.8532
  0
LINE
  8
0
 10
-104.073
 20
-62.8532
 11
-104.438
 21
-62.9469
  0
LINE
  8
0
 10
-104.438
 20
-62.9469
 11
-104.812
 21
-62.9941
  0
LINE
  8
0
 10
-104.812
 20
-62.9941
 11
-105.188
 21
-62.9941
  0
ENDSEC
  0
SECTION
  2
OBJECTS
  0
DICTIONARY
  0
ENDSEC
  0
EOF
