  0
SECTION
  2
BLOCKS
  0
ENDSEC
  0
SECTION
  2
ENTITIES
  0
LINE
  8
0
 10
70.4369
 20
-51.9114
 11
71.0451
 21
-51.7553
  0
LINE
  8
0
 10
71.0451
 20
-51.7553
 11
71.6289
 21
-51.5241
  0
LINE
  8
0
 10
71.6289
 20
-51.5241
 11
72.1791
 21
-51.2216
  0
LINE
  8
0
 10
72.1791
 20
-51.2216
 11
72.6871
 21
-50.8526
  0
LINE
  8
0
 10
72.6871
 20
-50.8526
 11
73.1448
 21
-50.4227
  0
LINE
  8
0
 10
73.1448
 20
-50.4227
 11
73.5451
 21
-49.9389
  0
LINE
  8
0
 10
73.5451
 20
-49.9389
 11
73.8815
 21
-49.4088
  0
LINE
  8
0
 10
73.8815
 20
-49.4088
 11
74.1489
 21
-48.8406
  0
LINE
  8
0
 10
74.1489
 20
-48.8406
 11
74.3429
 21
-48.2434
  0
LINE
  8
0
 10
74.3429
 20
-48.2434
 11
74.4606
 21
-47.6267
  0
LINE
  8
0
 10
74.4606
 20
-47.6267
 11
74.5
 21
-47
  0
LINE
  8
0
 10
74.5
 20
-47
 11
74.5
 21
47
  0
LINE
  8
0
 10
74.5
 20
47
 11
74.4606
 21
47.6267
  0
LINE
  8
0
 10
74.4606
 20
47.6267
 11
74.3429
 21
48.2434
  0
LINE
  8
0
 10
74.3429
 20
48.2434
 11
74.1489
 21
48.8406
  0
LINE
  8
0
 10
74.1489
 20
48.8406
 11
73.8815
 21
49.4088
  0
LINE
  8
0
 10
73.8815
 20
49.4088
 11
73.5451
 21
49.9389
  0
LINE
  8
0
 10
73.5451
 20
49.9389
 11
73.1448
 21
50.4227
  0
LINE
  8
0
 10
73.1448
 20
50.4227
 11
72.6871
 21
50.8526
  0
LINE
  8
0
 10
72.6871
 20
50.8526
 11
72.1791
 21
51.2216
  0
LINE
  8
0
 10
72.1791
 20
51.2216
 11
71.6289
 21
51.5241
  0
LINE
  8
0
 10
71.6289
 20
51.5241
 11
71.0451
 21
51.7553
  0
LINE
  8
0
 10
71.0451
 20
51.7553
 11
70.4369
 21
51.9114
  0
LINE
  8
0
 10
70.4369
 20
51.9114
 11
69.8139
 21
51.9901
  0
LINE
  8
0
 10
69.8139
 20
51.9901
 11
-69.8139
 21
51.9901
  0
LINE
  8
0
 10
-69.8139
 20
51.9901
 11
-70.4369
 21
51.9114
  0
LINE
  8
0
 10
-70.4369
 20
51.9114
 11
-71.0451
 21
51.7553
  0
LINE
  8
0
 10
-71.0451
 20
51.7553
 11
-71.6289
 21
51.5241
  0
LINE
  8
0
 10
-71.6289
 20
51.5241
 11
-72.1791
 21
51.2216
  0
LINE
  8
0
 10
-72.1791
 20
51.2216
 11
-72.6871
 21
50.8526
  0
LINE
  8
0
 10
-72.6871
 20
50.8526
 11
-73.1448
 21
50.4227
  0
LINE
  8
0
 10
-73.1448
 20
50.4227
 11
-73.5451
 21
49.9389
  0
LINE
  8
0
 10
-73.5451
 20
49.9389
 11
-73.8815
 21
49.4088
  0
LINE
  8
0
 10
-73.8815
 20
49.4088
 11
-74.1489
 21
48.8406
  0
LINE
  8
0
 10
-74.1489
 20
48.8406
 11
-74.3429
 21
48.2434
  0
LINE
  8
0
 10
-74.3429
 20
48.2434
 11
-74.4606
 21
47.6267
  0
LINE
  8
0
 10
-74.4606
 20
47.6267
 11
-74.5
 21
47
  0
LINE
  8
0
 10
-74.5
 20
47
 11
-74.5
 21
-47
  0
LINE
  8
0
 10
-74.5
 20
-47
 11
-74.4606
 21
-47.6267
  0
LINE
  8
0
 10
-74.4606
 20
-47.6267
 11
-74.3429
 21
-48.2434
  0
LINE
  8
0
 10
-74.3429
 20
-48.2434
 11
-74.1489
 21
-48.8406
  0
LINE
  8
0
 10
-74.1489
 20
-48.8406
 11
-73.8815
 21
-49.4088
  0
LINE
  8
0
 10
-73.8815
 20
-49.4088
 11
-73.5451
 21
-49.9389
  0
LINE
  8
0
 10
-73.5451
 20
-49.9389
 11
-73.1448
 21
-50.4227
  0
LINE
  8
0
 10
-73.1448
 20
-50.4227
 11
-72.6871
 21
-50.8526
  0
LINE
  8
0
 10
-72.6871
 20
-50.8526
 11
-72.1791
 21
-51.2216
  0
LINE
  8
0
 10
-72.1791
 20
-51.2216
 11
-71.6289
 21
-51.5241
  0
LINE
  8
0
 10
-71.6289
 20
-51.5241
 11
-71.0451
 21
-51.7553
  0
LINE
  8
0
 10
-71.0451
 20
-51.7553
 11
-70.4369
 21
-51.9114
  0
LINE
  8
0
 10
-70.4369
 20
-51.9114
 11
-69.8139
 21
-51.9901
  0
LINE
  8
0
 10
-69.8139
 20
-51.9901
 11
69.8139
 21
-51.9901
  0
LINE
  8
0
 10
69.8139
 20
-51.9901
 11
70.4369
 21
-51.9114
  0
LINE
  8
0
 10
-67.6884
 20
42.0059
 11
-68.0621
 21
42.0531
  0
LINE
  8
0
 10
-68.0621
 20
42.0531
 11
-68.427
 21
42.1468
  0
LINE
  8
0
 10
-68.427
 20
42.1468
 11
-68.7773
 21
42.2855
  0
LINE
  8
0
 10
-68.7773
 20
42.2855
 11
-69.1075
 21
42.467
  0
LINE
  8
0
 10
-69.1075
 20
42.467
 11
-69.4123
 21
42.6885
  0
LINE
  8
0
 10
-69.4123
 20
42.6885
 11
-69.6869
 21
42.9464
  0
LINE
  8
0
 10
-69.6869
 20
42.9464
 11
-69.927
 21
43.2366
  0
LINE
  8
0
 10
-69.927
 20
43.2366
 11
-70.1289
 21
43.5547
  0
LINE
  8
0
 10
-70.1289
 20
43.5547
 11
-70.2893
 21
43.8956
  0
LINE
  8
0
 10
-70.2893
 20
43.8956
 11
-70.4057
 21
44.2539
  0
LINE
  8
0
 10
-70.4057
 20
44.2539
 11
-70.4763
 21
44.624
  0
LINE
  8
0
 10
-70.4763
 20
44.624
 11
-70.5
 21
45
  0
LINE
  8
0
 10
-70.5
 20
45
 11
-70.4763
 21
45.376
  0
LINE
  8
0
 10
-70.4763
 20
45.376
 11
-70.4057
 21
45.7461
  0
LINE
  8
0
 10
-70.4057
 20
45.7461
 11
-70.2893
 21
46.1044
  0
LINE
  8
0
 10
-70.2893
 20
46.1044
 11
-70.1289
 21
46.4453
  0
LINE
  8
0
 10
-70.1289
 20
46.4453
 11
-69.927
 21
46.7634
  0
LINE
  8
0
 10
-69.927
 20
46.7634
 11
-69.6869
 21
47.0536
  0
LINE
  8
0
 10
-69.6869
 20
47.0536
 11
-69.4123
 21
47.3115
  0
LINE
  8
0
 10
-69.4123
 20
47.3115
 11
-69.1075
 21
47.533
  0
LINE
  8
0
 10
-69.1075
 20
47.533
 11
-68.7773
 21
47.7145
  0
LINE
  8
0
 10
-68.7773
 20
47.7145
 11
-68.427
 21
47.8532
  0
LINE
  8
0
 10
-68.427
 20
47.8532
 11
-68.0621
 21
47.9469
  0
LINE
  8
0
 10
-68.0621
 20
47.9469
 11
-67.6884
 21
47.9941
  0
LINE
  8
0
 10
-67.6884
 20
47.9941
 11
-67.3116
 21
47.9941
  0
LINE
  8
0
 10
-67.3116
 20
47.9941
 11
-66.9379
 21
47.9469
  0
LINE
  8
0
 10
-66.9379
 20
47.9469
 11
-66.573
 21
47.8532
  0
LINE
  8
0
 10
-66.573
 20
47.8532
 11
-66.2227
 21
47.7145
  0
LINE
  8
0
 10
-66.2227
 20
47.7145
 11
-65.8925
 21
47.533
  0
LINE
  8
0
 10
-65.8925
 20
47.533
 11
-65.5877
 21
47.3115
  0
LINE
  8
0
 10
-65.5877
 20
47.3115
 11
-65.3131
 21
47.0536
  0
LINE
  8
0
 10
-65.3131
 20
47.0536
 11
-65.073
 21
46.7634
  0
LINE
  8
0
 10
-65.073
 20
46.7634
 11
-64.8711
 21
46.4453
  0
LINE
  8
0
 10
-64.8711
 20
46.4453
 11
-64.7107
 21
46.1044
  0
LINE
  8
0
 10
-64.7107
 20
46.1044
 11
-64.5943
 21
45.7461
  0
LINE
  8
0
 10
-64.5943
 20
45.7461
 11
-64.5237
 21
45.376
  0
LINE
  8
0
 10
-64.5237
 20
45.376
 11
-64.5
 21
45
  0
LINE
  8
0
 10
-64.5
 20
45
 11
-64.5237
 21
44.624
  0
LINE
  8
0
 10
-64.5237
 20
44.624
 11
-64.5943
 21
44.2539
  0
LINE
  8
0
 10
-64.5943
 20
44.2539
 11
-64.7107
 21
43.8956
  0
LINE
  8
0
 10
-64.7107
 20
43.8956
 11
-64.8711
 21
43.5547
  0
LINE
  8
0
 10
-64.8711
 20
43.5547
 11
-65.073
 21
43.2366
  0
LINE
  8
0
 10
-65.073
 20
43.2366
 11
-65.3131
 21
42.9464
  0
LINE
  8
0
 10
-65.3131
 20
42.9464
 11
-65.5877
 21
42.6885
  0
LINE
  8
0
 10
-65.5877
 20
42.6885
 11
-65.8925
 21
42.467
  0
LINE
  8
0
 10
-65.8925
 20
42.467
 11
-66.2227
 21
42.2855
  0
LINE
  8
0
 10
-66.2227
 20
42.2855
 11
-66.573
 21
42.1468
  0
LINE
  8
0
 10
-66.573
 20
42.1468
 11
-66.9379
 21
42.0531
  0
LINE
  8
0
 10
-66.9379
 20
42.0531
 11
-67.3116
 21
42.0059
  0
LINE
  8
0
 10
-67.3116
 20
42.0059
 11
-67.6884
 21
42.0059
  0
LINE
  8
0
 10
67.3116
 20
42.0059
 11
66.9379
 21
42.0531
  0
LINE
  8
0
 10
66.9379
 20
42.0531
 11
66.573
 21
42.1468
  0
LINE
  8
0
 10
66.573
 20
42.1468
 11
66.2227
 21
42.2855
  0
LINE
  8
0
 10
66.2227
 20
42.2855
 11
65.8925
 21
42.467
  0
LINE
  8
0
 10
65.8925
 20
42.467
 11
65.5877
 21
42.6885
  0
LINE
  8
0
 10
65.5877
 20
42.6885
 11
65.3131
 21
42.9464
  0
LINE
  8
0
 10
65.3131
 20
42.9464
 11
65.073
 21
43.2366
  0
LINE
  8
0
 10
65.073
 20
43.2366
 11
64.8711
 21
43.5547
  0
LINE
  8
0
 10
64.8711
 20
43.5547
 11
64.7107
 21
43.8956
  0
LINE
  8
0
 10
64.7107
 20
43.8956
 11
64.5943
 21
44.2539
  0
LINE
  8
0
 10
64.5943
 20
44.2539
 11
64.5237
 21
44.624
  0
LINE
  8
0
 10
64.5237
 20
44.624
 11
64.5
 21
45
  0
LINE
  8
0
 10
64.5
 20
45
 11
64.5237
 21
45.376
  0
LINE
  8
0
 10
64.5237
 20
45.376
 11
64.5943
 21
45.7461
  0
LINE
  8
0
 10
64.5943
 20
45.7461
 11
64.7107
 21
46.1044
  0
LINE
  8
0
 10
64.7107
 20
46.1044
 11
64.8711
 21
46.4453
  0
LINE
  8
0
 10
64.8711
 20
46.4453
 11
65.073
 21
46.7634
  0
LINE
  8
0
 10
65.073
 20
46.7634
 11
65.3131
 21
47.0536
  0
LINE
  8
0
 10
65.3131
 20
47.0536
 11
65.5877
 21
47.3115
  0
LINE
  8
0
 10
65.5877
 20
47.3115
 11
65.8925
 21
47.533
  0
LINE
  8
0
 10
65.8925
 20
47.533
 11
66.2227
 21
47.7145
  0
LINE
  8
0
 10
66.2227
 20
47.7145
 11
66.573
 21
47.8532
  0
LINE
  8
0
 10
66.573
 20
47.8532
 11
66.9379
 21
47.9469
  0
LINE
  8
0
 10
66.9379
 20
47.9469
 11
67.3116
 21
47.9941
  0
LINE
  8
0
 10
67.3116
 20
47.9941
 11
67.6884
 21
47.9941
  0
LINE
  8
0
 10
67.6884
 20
47.9941
 11
68.0621
 21
47.9469
  0
LINE
  8
0
 10
68.0621
 20
47.9469
 11
68.427
 21
47.8532
  0
LINE
  8
0
 10
68.427
 20
47.8532
 11
68.7773
 21
47.7145
  0
LINE
  8
0
 10
68.7773
 20
47.7145
 11
69.1075
 21
47.533
  0
LINE
  8
0
 10
69.1075
 20
47.533
 11
69.4123
 21
47.3115
  0
LINE
  8
0
 10
69.4123
 20
47.3115
 11
69.6869
 21
47.0536
  0
LINE
  8
0
 10
69.6869
 20
47.0536
 11
69.927
 21
46.7634
  0
LINE
  8
0
 10
69.927
 20
46.7634
 11
70.1289
 21
46.4453
  0
LINE
  8
0
 10
70.1289
 20
46.4453
 11
70.2893
 21
46.1044
  0
LINE
  8
0
 10
70.2893
 20
46.1044
 11
70.4057
 21
45.7461
  0
LINE
  8
0
 10
70.4057
 20
45.7461
 11
70.4763
 21
45.376
  0
LINE
  8
0
 10
70.4763
 20
45.376
 11
70.5
 21
45
  0
LINE
  8
0
 10
70.5
 20
45
 11
70.4763
 21
44.624
  0
LINE
  8
0
 10
70.4763
 20
44.624
 11
70.4057
 21
44.2539
  0
LINE
  8
0
 10
70.4057
 20
44.2539
 11
70.2893
 21
43.8956
  0
LINE
  8
0
 10
70.2893
 20
43.8956
 11
70.1289
 21
43.5547
  0
LINE
  8
0
 10
70.1289
 20
43.5547
 11
69.927
 21
43.2366
  0
LINE
  8
0
 10
69.927
 20
43.2366
 11
69.6869
 21
42.9464
  0
LINE
  8
0
 10
69.6869
 20
42.9464
 11
69.4123
 21
42.6885
  0
LINE
  8
0
 10
69.4123
 20
42.6885
 11
69.1075
 21
42.467
  0
LINE
  8
0
 10
69.1075
 20
42.467
 11
68.7773
 21
42.2855
  0
LINE
  8
0
 10
68.7773
 20
42.2855
 11
68.427
 21
42.1468
  0
LINE
  8
0
 10
68.427
 20
42.1468
 11
68.0621
 21
42.0531
  0
LINE
  8
0
 10
68.0621
 20
42.0531
 11
67.6884
 21
42.0059
  0
LINE
  8
0
 10
67.6884
 20
42.0059
 11
67.3116
 21
42.0059
  0
LINE
  8
0
 10
67.3116
 20
-47.9941
 11
66.9379
 21
-47.9469
  0
LINE
  8
0
 10
66.9379
 20
-47.9469
 11
66.573
 21
-47.8532
  0
LINE
  8
0
 10
66.573
 20
-47.8532
 11
66.2227
 21
-47.7145
  0
LINE
  8
0
 10
66.2227
 20
-47.7145
 11
65.8925
 21
-47.533
  0
LINE
  8
0
 10
65.8925
 20
-47.533
 11
65.5877
 21
-47.3115
  0
LINE
  8
0
 10
65.5877
 20
-47.3115
 11
65.3131
 21
-47.0536
  0
LINE
  8
0
 10
65.3131
 20
-47.0536
 11
65.073
 21
-46.7634
  0
LINE
  8
0
 10
65.073
 20
-46.7634
 11
64.8711
 21
-46.4453
  0
LINE
  8
0
 10
64.8711
 20
-46.4453
 11
64.7107
 21
-46.1044
  0
LINE
  8
0
 10
64.7107
 20
-46.1044
 11
64.5943
 21
-45.7461
  0
LINE
  8
0
 10
64.5943
 20
-45.7461
 11
64.5237
 21
-45.376
  0
LINE
  8
0
 10
64.5237
 20
-45.376
 11
64.5
 21
-45
  0
LINE
  8
0
 10
64.5
 20
-45
 11
64.5237
 21
-44.624
  0
LINE
  8
0
 10
64.5237
 20
-44.624
 11
64.5943
 21
-44.2539
  0
LINE
  8
0
 10
64.5943
 20
-44.2539
 11
64.7107
 21
-43.8956
  0
LINE
  8
0
 10
64.7107
 20
-43.8956
 11
64.8711
 21
-43.5547
  0
LINE
  8
0
 10
64.8711
 20
-43.5547
 11
65.073
 21
-43.2366
  0
LINE
  8
0
 10
65.073
 20
-43.2366
 11
65.3131
 21
-42.9464
  0
LINE
  8
0
 10
65.3131
 20
-42.9464
 11
65.5877
 21
-42.6885
  0
LINE
  8
0
 10
65.5877
 20
-42.6885
 11
65.8925
 21
-42.467
  0
LINE
  8
0
 10
65.8925
 20
-42.467
 11
66.2227
 21
-42.2855
  0
LINE
  8
0
 10
66.2227
 20
-42.2855
 11
66.573
 21
-42.1468
  0
LINE
  8
0
 10
66.573
 20
-42.1468
 11
66.9379
 21
-42.0531
  0
LINE
  8
0
 10
66.9379
 20
-42.0531
 11
67.3116
 21
-42.0059
  0
LINE
  8
0
 10
67.3116
 20
-42.0059
 11
67.6884
 21
-42.0059
  0
LINE
  8
0
 10
67.6884
 20
-42.0059
 11
68.0621
 21
-42.0531
  0
LINE
  8
0
 10
68.0621
 20
-42.0531
 11
68.427
 21
-42.1468
  0
LINE
  8
0
 10
68.427
 20
-42.1468
 11
68.7773
 21
-42.2855
  0
LINE
  8
0
 10
68.7773
 20
-42.2855
 11
69.1075
 21
-42.467
  0
LINE
  8
0
 10
69.1075
 20
-42.467
 11
69.4123
 21
-42.6885
  0
LINE
  8
0
 10
69.4123
 20
-42.6885
 11
69.6869
 21
-42.9464
  0
LINE
  8
0
 10
69.6869
 20
-42.9464
 11
69.927
 21
-43.2366
  0
LINE
  8
0
 10
69.927
 20
-43.2366
 11
70.1289
 21
-43.5547
  0
LINE
  8
0
 10
70.1289
 20
-43.5547
 11
70.2893
 21
-43.8956
  0
LINE
  8
0
 10
70.2893
 20
-43.8956
 11
70.4057
 21
-44.2539
  0
LINE
  8
0
 10
70.4057
 20
-44.2539
 11
70.4763
 21
-44.624
  0
LINE
  8
0
 10
70.4763
 20
-44.624
 11
70.5
 21
-45
  0
LINE
  8
0
 10
70.5
 20
-45
 11
70.4763
 21
-45.376
  0
LINE
  8
0
 10
70.4763
 20
-45.376
 11
70.4057
 21
-45.7461
  0
LINE
  8
0
 10
70.4057
 20
-45.7461
 11
70.2893
 21
-46.1044
  0
LINE
  8
0
 10
70.2893
 20
-46.1044
 11
70.1289
 21
-46.4453
  0
LINE
  8
0
 10
70.1289
 20
-46.4453
 11
69.927
 21
-46.7634
  0
LINE
  8
0
 10
69.927
 20
-46.7634
 11
69.6869
 21
-47.0536
  0
LINE
  8
0
 10
69.6869
 20
-47.0536
 11
69.4123
 21
-47.3115
  0
LINE
  8
0
 10
69.4123
 20
-47.3115
 11
69.1075
 21
-47.533
  0
LINE
  8
0
 10
69.1075
 20
-47.533
 11
68.7773
 21
-47.7145
  0
LINE
  8
0
 10
68.7773
 20
-47.7145
 11
68.427
 21
-47.8532
  0
LINE
  8
0
 10
68.427
 20
-47.8532
 11
68.0621
 21
-47.9469
  0
LINE
  8
0
 10
68.0621
 20
-47.9469
 11
67.6884
 21
-47.9941
  0
LINE
  8
0
 10
67.6884
 20
-47.9941
 11
67.3116
 21
-47.9941
  0
LINE
  8
0
 10
-67.6884
 20
-47.9941
 11
-68.0621
 21
-47.9469
  0
LINE
  8
0
 10
-68.0621
 20
-47.9469
 11
-68.427
 21
-47.8532
  0
LINE
  8
0
 10
-68.427
 20
-47.8532
 11
-68.7773
 21
-47.7145
  0
LINE
  8
0
 10
-68.7773
 20
-47.7145
 11
-69.1075
 21
-47.533
  0
LINE
  8
0
 10
-69.1075
 20
-47.533
 11
-69.4123
 21
-47.3115
  0
LINE
  8
0
 10
-69.4123
 20
-47.3115
 11
-69.6869
 21
-47.0536
  0
LINE
  8
0
 10
-69.6869
 20
-47.0536
 11
-69.927
 21
-46.7634
  0
LINE
  8
0
 10
-69.927
 20
-46.7634
 11
-70.1289
 21
-46.4453
  0
LINE
  8
0
 10
-70.1289
 20
-46.4453
 11
-70.2893
 21
-46.1044
  0
LINE
  8
0
 10
-70.2893
 20
-46.1044
 11
-70.4057
 21
-45.7461
  0
LINE
  8
0
 10
-70.4057
 20
-45.7461
 11
-70.4763
 21
-45.376
  0
LINE
  8
0
 10
-70.4763
 20
-45.376
 11
-70.5
 21
-45
  0
LINE
  8
0
 10
-70.5
 20
-45
 11
-70.4763
 21
-44.624
  0
LINE
  8
0
 10
-70.4763
 20
-44.624
 11
-70.4057
 21
-44.2539
  0
LINE
  8
0
 10
-70.4057
 20
-44.2539
 11
-70.2893
 21
-43.8956
  0
LINE
  8
0
 10
-70.2893
 20
-43.8956
 11
-70.1289
 21
-43.5547
  0
LINE
  8
0
 10
-70.1289
 20
-43.5547
 11
-69.927
 21
-43.2366
  0
LINE
  8
0
 10
-69.927
 20
-43.2366
 11
-69.6869
 21
-42.9464
  0
LINE
  8
0
 10
-69.6869
 20
-42.9464
 11
-69.4123
 21
-42.6885
  0
LINE
  8
0
 10
-69.4123
 20
-42.6885
 11
-69.1075
 21
-42.467
  0
LINE
  8
0
 10
-69.1075
 20
-42.467
 11
-68.7773
 21
-42.2855
  0
LINE
  8
0
 10
-68.7773
 20
-42.2855
 11
-68.427
 21
-42.1468
  0
LINE
  8
0
 10
-68.427
 20
-42.1468
 11
-68.0621
 21
-42.0531
  0
LINE
  8
0
 10
-68.0621
 20
-42.0531
 11
-67.6884
 21
-42.0059
  0
LINE
  8
0
 10
-67.6884
 20
-42.0059
 11
-67.3116
 21
-42.0059
  0
LINE
  8
0
 10
-67.3116
 20
-42.0059
 11
-66.9379
 21
-42.0531
  0
LINE
  8
0
 10
-66.9379
 20
-42.0531
 11
-66.573
 21
-42.1468
  0
LINE
  8
0
 10
-66.573
 20
-42.1468
 11
-66.2227
 21
-42.2855
  0
LINE
  8
0
 10
-66.2227
 20
-42.2855
 11
-65.8925
 21
-42.467
  0
LINE
  8
0
 10
-65.8925
 20
-42.467
 11
-65.5877
 21
-42.6885
  0
LINE
  8
0
 10
-65.5877
 20
-42.6885
 11
-65.3131
 21
-42.9464
  0
LINE
  8
0
 10
-65.3131
 20
-42.9464
 11
-65.073
 21
-43.2366
  0
LINE
  8
0
 10
-65.073
 20
-43.2366
 11
-64.8711
 21
-43.5547
  0
LINE
  8
0
 10
-64.8711
 20
-43.5547
 11
-64.7107
 21
-43.8956
  0
LINE
  8
0
 10
-64.7107
 20
-43.8956
 11
-64.5943
 21
-44.2539
  0
LINE
  8
0
 10
-64.5943
 20
-44.2539
 11
-64.5237
 21
-44.624
  0
LINE
  8
0
 10
-64.5237
 20
-44.624
 11
-64.5
 21
-45
  0
LINE
  8
0
 10
-64.5
 20
-45
 11
-64.5237
 21
-45.376
  0
LINE
  8
0
 10
-64.5237
 20
-45.376
 11
-64.5943
 21
-45.7461
  0
LINE
  8
0
 10
-64.5943
 20
-45.7461
 11
-64.7107
 21
-46.1044
  0
LINE
  8
0
 10
-64.7107
 20
-46.1044
 11
-64.8711
 21
-46.4453
  0
LINE
  8
0
 10
-64.8711
 20
-46.4453
 11
-65.073
 21
-46.7634
  0
LINE
  8
0
 10
-65.073
 20
-46.7634
 11
-65.3131
 21
-47.0536
  0
LINE
  8
0
 10
-65.3131
 20
-47.0536
 11
-65.5877
 21
-47.3115
  0
LINE
  8
0
 10
-65.5877
 20
-47.3115
 11
-65.8925
 21
-47.533
  0
LINE
  8
0
 10
-65.8925
 20
-47.533
 11
-66.2227
 21
-47.7145
  0
LINE
  8
0
 10
-66.2227
 20
-47.7145
 11
-66.573
 21
-47.8532
  0
LINE
  8
0
 10
-66.573
 20
-47.8532
 11
-66.9379
 21
-47.9469
  0
LINE
  8
0
 10
-66.9379
 20
-47.9469
 11
-67.3116
 21
-47.9941
  0
LINE
  8
0
 10
-67.3116
 20
-47.9941
 11
-67.6884
 21
-47.9941
  0
ENDSEC
  0
SECTION
  2
OBJECTS
  0
DICTIONARY
  0
ENDSEC
  0
EOF
