<?xml version="1.0" standalone="no"?>
<!DOCTYPE svg PUBLIC "-//W3C//DTD SVG 1.1//EN" "http://www.w3.org/Graphics/SVG/1.1/DTD/svg11.dtd">
<svg width="224mm" height="38mm" viewBox="-112 -79 224 38" xmlns="http://www.w3.org/2000/svg" version="1.1">
<title>OpenSCAD Model</title>
<path d="
M 107.937,-65.0886 L 108.545,-65.2447 L 109.129,-65.4759 L 109.679,-65.7784 L 110.187,-66.1474 L 110.645,-66.5773
 L 111.045,-67.0611 L 111.382,-67.5912 L 111.649,-68.1594 L 111.843,-68.7566 L 111.961,-69.3733 L 112,-70
 L 112,-74 L 111.961,-74.6267 L 111.843,-75.2434 L 111.649,-75.8406 L 111.382,-76.4088 L 111.045,-76.9389
 L 110.645,-77.4227 L 110.187,-77.8526 L 109.679,-78.2216 L 109.129,-78.5241 L 108.545,-78.7553 L 107.937,-78.9114
 L 107.314,-78.9901 L -107.314,-78.9901 L -107.937,-78.9114 L -108.545,-78.7553 L -109.129,-78.5241 L -109.679,-78.2216
 L -110.187,-77.8526 L -110.645,-77.4227 L -111.045,-76.9389 L -111.382,-76.4088 L -111.649,-75.8406 L -111.843,-75.2434
 L -111.961,-74.6267 L -112,-74 L -112,-70 L -111.961,-69.3733 L -111.843,-68.7566 L -111.649,-68.1594
 L -111.382,-67.5912 L -111.045,-67.0611 L -110.645,-66.5773 L -110.187,-66.1474 L -109.679,-65.7784 L -109.129,-65.4759
 L -108.545,-65.2447 L -107.937,-65.0886 L -107.314,-65.0099 L 107.314,-65.0099 z
M -0.18837,-69.0059 L -0.562134,-69.0531 L -0.927048,-69.1468 L -1.27733,-69.2855 L -1.60747,-69.467 L -1.91226,-69.6885
 L -2.1869,-69.9464 L -2.42705,-70.2366 L -2.62891,-70.5547 L -2.78932,-70.8956 L -2.90575,-71.2539 L -2.97633,-71.624
 L -3,-72 L -2.97633,-72.376 L -2.90575,-72.7461 L -2.78932,-73.1044 L -2.62891,-73.4453 L -2.42705,-73.7634
 L -2.1869,-74.0536 L -1.91226,-74.3115 L -1.60747,-74.533 L -1.27733,-74.7145 L -0.927048,-74.8532 L -0.562134,-74.9469
 L -0.18837,-74.9941 L 0.18837,-74.9941 L 0.562134,-74.9469 L 0.927048,-74.8532 L 1.27733,-74.7145 L 1.60747,-74.533
 L 1.91226,-74.3115 L 2.1869,-74.0536 L 2.42705,-73.7634 L 2.62891,-73.4453 L 2.78932,-73.1044 L 2.90575,-72.7461
 L 2.97633,-72.376 L 3,-72 L 2.97633,-71.624 L 2.90575,-71.2539 L 2.78932,-70.8956 L 2.62891,-70.5547
 L 2.42705,-70.2366 L 2.1869,-69.9464 L 1.91226,-69.6885 L 1.60747,-69.467 L 1.27733,-69.2855 L 0.927048,-69.1468
 L 0.562134,-69.0531 L 0.18837,-69.0059 z
M -75.1884,-69.0059 L -75.5621,-69.0531 L -75.927,-69.1468 L -76.2773,-69.2855 L -76.6075,-69.467 L -76.9123,-69.6885
 L -77.1869,-69.9464 L -77.427,-70.2366 L -77.6289,-70.5547 L -77.7893,-70.8956 L -77.9057,-71.2539 L -77.9763,-71.624
 L -78,-72 L -77.9763,-72.376 L -77.9057,-72.7461 L -77.7893,-73.1044 L -77.6289,-73.4453 L -77.427,-73.7634
 L -77.1869,-74.0536 L -76.9123,-74.3115 L -76.6075,-74.533 L -76.2773,-74.7145 L -75.927,-74.8532 L -75.5621,-74.9469
 L -75.1884,-74.9941 L -74.8116,-74.9941 L -74.4379,-74.9469 L -74.073,-74.8532 L -73.7227,-74.7145 L -73.3925,-74.533
 L -73.0877,-74.3115 L -72.8131,-74.0536 L -72.573,-73.7634 L -72.3711,-73.4453 L -72.2107,-73.1044 L -72.0943,-72.7461
 L -72.0237,-72.376 L -72,-72 L -72.0237,-71.624 L -72.0943,-71.2539 L -72.2107,-70.8956 L -72.3711,-70.5547
 L -72.573,-70.2366 L -72.8131,-69.9464 L -73.0877,-69.6885 L -73.3925,-69.467 L -73.7227,-69.2855 L -74.073,-69.1468
 L -74.4379,-69.0531 L -74.8116,-69.0059 z
M -15.1884,-69.0059 L -15.5621,-69.0531 L -15.927,-69.1468 L -16.2773,-69.2855 L -16.6075,-69.467 L -16.9123,-69.6885
 L -17.1869,-69.9464 L -17.427,-70.2366 L -17.6289,-70.5547 L -17.7893,-70.8956 L -17.9057,-71.2539 L -17.9763,-71.624
 L -18,-72 L -17.9763,-72.376 L -17.9057,-72.7461 L -17.7893,-73.1044 L -17.6289,-73.4453 L -17.427,-73.7634
 L -17.1869,-74.0536 L -16.9123,-74.3115 L -16.6075,-74.533 L -16.2773,-74.7145 L -15.927,-74.8532 L -15.5621,-74.9469
 L -15.1884,-74.9941 L -14.8116,-74.9941 L -14.4379,-74.9469 L -14.0729,-74.8532 L -13.7227,-74.7145 L -13.3925,-74.533
 L -13.0877,-74.3115 L -12.8131,-74.0536 L -12.5729,-73.7634 L -12.3711,-73.4453 L -12.2107,-73.1044 L -12.0942,-72.7461
 L -12.0237,-72.376 L -12,-72 L -12.0237,-71.624 L -12.0942,-71.2539 L -12.2107,-70.8956 L -12.3711,-70.5547
 L -12.5729,-70.2366 L -12.8131,-69.9464 L -13.0877,-69.6885 L -13.3925,-69.467 L -13.7227,-69.2855 L -14.0729,-69.1468
 L -14.4379,-69.0531 L -14.8116,-69.0059 z
M -60.1884,-69.0059 L -60.5621,-69.0531 L -60.927,-69.1468 L -61.2773,-69.2855 L -61.6075,-69.467 L -61.9123,-69.6885
 L -62.1869,-69.9464 L -62.427,-70.2366 L -62.6289,-70.5547 L -62.7893,-70.8956 L -62.9057,-71.2539 L -62.9763,-71.624
 L -63,-72 L -62.9763,-72.376 L -62.9057,-72.7461 L -62.7893,-73.1044 L -62.6289,-73.4453 L -62.427,-73.7634
 L -62.1869,-74.0536 L -61.9123,-74.3115 L -61.6075,-74.533 L -61.2773,-74.7145 L -60.927,-74.8532 L -60.5621,-74.9469
 L -60.1884,-74.9941 L -59.8116,-74.9941 L -59.4379,-74.9469 L -59.0729,-74.8532 L -58.7227,-74.7145 L -58.3925,-74.533
 L -58.0877,-74.3115 L -57.8131,-74.0536 L -57.5729,-73.7634 L -57.3711,-73.4453 L -57.2107,-73.1044 L -57.0942,-72.7461
 L -57.0237,-72.376 L -57,-72 L -57.0237,-71.624 L -57.0942,-71.2539 L -57.2107,-70.8956 L -57.3711,-70.5547
 L -57.5729,-70.2366 L -57.8131,-69.9464 L -58.0877,-69.6885 L -58.3925,-69.467 L -58.7227,-69.2855 L -59.0729,-69.1468
 L -59.4379,-69.0531 L -59.8116,-69.0059 z
M 14.8116,-69.0059 L 14.4379,-69.0531 L 14.0729,-69.1468 L 13.7227,-69.2855 L 13.3925,-69.467 L 13.0877,-69.6885
 L 12.8131,-69.9464 L 12.5729,-70.2366 L 12.3711,-70.5547 L 12.2107,-70.8956 L 12.0942,-71.2539 L 12.0237,-71.624
 L 12,-72 L 12.0237,-72.376 L 12.0942,-72.7461 L 12.2107,-73.1044 L 12.3711,-73.4453 L 12.5729,-73.7634
 L 12.8131,-74.0536 L 13.0877,-74.3115 L 13.3925,-74.533 L 13.7227,-74.7145 L 14.0729,-74.8532 L 14.4379,-74.9469
 L 14.8116,-74.9941 L 15.1884,-74.9941 L 15.5621,-74.9469 L 15.927,-74.8532 L 16.2773,-74.7145 L 16.6075,-74.533
 L 16.9123,-74.3115 L 17.1869,-74.0536 L 17.427,-73.7634 L 17.6289,-73.4453 L 17.7893,-73.1044 L 17.9057,-72.7461
 L 17.9763,-72.376 L 18,-72 L 17.9763,-71.624 L 17.9057,-71.2539 L 17.7893,-70.8956 L 17.6289,-70.5547
 L 17.427,-70.2366 L 17.1869,-69.9464 L 16.9123,-69.6885 L 16.6075,-69.467 L 16.2773,-69.2855 L 15.927,-69.1468
 L 15.5621,-69.0531 L 15.1884,-69.0059 z
M 44.8116,-69.0059 L 44.4379,-69.0531 L 44.0729,-69.1468 L 43.7227,-69.2855 L 43.3925,-69.467 L 43.0877,-69.6885
 L 42.8131,-69.9464 L 42.5729,-70.2366 L 42.3711,-70.5547 L 42.2107,-70.8956 L 42.0942,-71.2539 L 42.0237,-71.624
 L 42,-72 L 42.0237,-72.376 L 42.0942,-72.7461 L 42.2107,-73.1044 L 42.3711,-73.4453 L 42.5729,-73.7634
 L 42.8131,-74.0536 L 43.0877,-74.3115 L 43.3925,-74.533 L 43.7227,-74.7145 L 44.0729,-74.8532 L 44.4379,-74.9469
 L 44.8116,-74.9941 L 45.1884,-74.9941 L 45.5621,-74.9469 L 45.927,-74.8532 L 46.2773,-74.7145 L 46.6075,-74.533
 L 46.9123,-74.3115 L 47.1869,-74.0536 L 47.427,-73.7634 L 47.6289,-73.4453 L 47.7893,-73.1044 L 47.9057,-72.7461
 L 47.9763,-72.376 L 48,-72 L 47.9763,-71.624 L 47.9057,-71.2539 L 47.7893,-70.8956 L 47.6289,-70.5547
 L 47.427,-70.2366 L 47.1869,-69.9464 L 46.9123,-69.6885 L 46.6075,-69.467 L 46.2773,-69.2855 L 45.927,-69.1468
 L 45.5621,-69.0531 L 45.1884,-69.0059 z
M -90.1884,-69.0059 L -90.5621,-69.0531 L -90.927,-69.1468 L -91.2773,-69.2855 L -91.6075,-69.467 L -91.9123,-69.6885
 L -92.1869,-69.9464 L -92.427,-70.2366 L -92.6289,-70.5547 L -92.7893,-70.8956 L -92.9057,-71.2539 L -92.9763,-71.624
 L -93,-72 L -92.9763,-72.376 L -92.9057,-72.7461 L -92.7893,-73.1044 L -92.6289,-73.4453 L -92.427,-73.7634
 L -92.1869,-74.0536 L -91.9123,-74.3115 L -91.6075,-74.533 L -91.2773,-74.7145 L -90.927,-74.8532 L -90.5621,-74.9469
 L -90.1884,-74.9941 L -89.8116,-74.9941 L -89.4379,-74.9469 L -89.073,-74.8532 L -88.7227,-74.7145 L -88.3925,-74.533
 L -88.0877,-74.3115 L -87.8131,-74.0536 L -87.573,-73.7634 L -87.3711,-73.4453 L -87.2107,-73.1044 L -87.0943,-72.7461
 L -87.0237,-72.376 L -87,-72 L -87.0237,-71.624 L -87.0943,-71.2539 L -87.2107,-70.8956 L -87.3711,-70.5547
 L -87.573,-70.2366 L -87.8131,-69.9464 L -88.0877,-69.6885 L -88.3925,-69.467 L -88.7227,-69.2855 L -89.073,-69.1468
 L -89.4379,-69.0531 L -89.8116,-69.0059 z
M 74.8116,-69.0059 L 74.4379,-69.0531 L 74.073,-69.1468 L 73.7227,-69.2855 L 73.3925,-69.467 L 73.0877,-69.6885
 L 72.8131,-69.9464 L 72.573,-70.2366 L 72.3711,-70.5547 L 72.2107,-70.8956 L 72.0943,-71.2539 L 72.0237,-71.624
 L 72,-72 L 72.0237,-72.376 L 72.0943,-72.7461 L 72.2107,-73.1044 L 72.3711,-73.4453 L 72.573,-73.7634
 L 72.8131,-74.0536 L 73.0877,-74.3115 L 73.3925,-74.533 L 73.7227,-74.7145 L 74.073,-74.8532 L 74.4379,-74.9469
 L 74.8116,-74.9941 L 75.1884,-74.9941 L 75.5621,-74.9469 L 75.927,-74.8532 L 76.2773,-74.7145 L 76.6075,-74.533
 L 76.9123,-74.3115 L 77.1869,-74.0536 L 77.427,-73.7634 L 77.6289,-73.4453 L 77.7893,-73.1044 L 77.9057,-72.7461
 L 77.9763,-72.376 L 78,-72 L 77.9763,-71.624 L 77.9057,-71.2539 L 77.7893,-70.8956 L 77.6289,-70.5547
 L 77.427,-70.2366 L 77.1869,-69.9464 L 76.9123,-69.6885 L 76.6075,-69.467 L 76.2773,-69.2855 L 75.927,-69.1468
 L 75.5621,-69.0531 L 75.1884,-69.0059 z
M 59.8116,-69.0059 L 59.4379,-69.0531 L 59.0729,-69.1468 L 58.7227,-69.2855 L 58.3925,-69.467 L 58.0877,-69.6885
 L 57.8131,-69.9464 L 57.5729,-70.2366 L 57.3711,-70.5547 L 57.2107,-70.8956 L 57.0942,-71.2539 L 57.0237,-71.624
 L 57,-72 L 57.0237,-72.376 L 57.0942,-72.7461 L 57.2107,-73.1044 L 57.3711,-73.4453 L 57.5729,-73.7634
 L 57.8131,-74.0536 L 58.0877,-74.3115 L 58.3925,-74.533 L 58.7227,-74.7145 L 59.0729,-74.8532 L 59.4379,-74.9469
 L 59.8116,-74.9941 L 60.1884,-74.9941 L 60.5621,-74.9469 L 60.927,-74.8532 L 61.2773,-74.7145 L 61.6075,-74.533
 L 61.9123,-74.3115 L 62.1869,-74.0536 L 62.427,-73.7634 L 62.6289,-73.4453 L 62.7893,-73.1044 L 62.9057,-72.7461
 L 62.9763,-72.376 L 63,-72 L 62.9763,-71.624 L 62.9057,-71.2539 L 62.7893,-70.8956 L 62.6289,-70.5547
 L 62.427,-70.2366 L 62.1869,-69.9464 L 61.9123,-69.6885 L 61.6075,-69.467 L 61.2773,-69.2855 L 60.927,-69.1468
 L 60.5621,-69.0531 L 60.1884,-69.0059 z
M 104.812,-69.0059 L 104.438,-69.0531 L 104.073,-69.1468 L 103.723,-69.2855 L 103.393,-69.467 L 103.088,-69.6885
 L 102.813,-69.9464 L 102.573,-70.2366 L 102.371,-70.5547 L 102.211,-70.8956 L 102.094,-71.2539 L 102.024,-71.624
 L 102,-72 L 102.024,-72.376 L 102.094,-72.7461 L 102.211,-73.1044 L 102.371,-73.4453 L 102.573,-73.7634
 L 102.813,-74.0536 L 103.088,-74.3115 L 103.393,-74.533 L 103.723,-74.7145 L 104.073,-74.8532 L 104.438,-74.9469
 L 104.812,-74.9941 L 105.188,-74.9941 L 105.562,-74.9469 L 105.927,-74.8532 L 106.277,-74.7145 L 106.607,-74.533
 L 106.912,-74.3115 L 107.187,-74.0536 L 107.427,-73.7634 L 107.629,-73.4453 L 107.789,-73.1044 L 107.906,-72.7461
 L 107.976,-72.376 L 108,-72 L 107.976,-71.624 L 107.906,-71.2539 L 107.789,-70.8956 L 107.629,-70.5547
 L 107.427,-70.2366 L 107.187,-69.9464 L 106.912,-69.6885 L 106.607,-69.467 L 106.277,-69.2855 L 105.927,-69.1468
 L 105.562,-69.0531 L 105.188,-69.0059 z
M -105.188,-69.0059 L -105.562,-69.0531 L -105.927,-69.1468 L -106.277,-69.2855 L -106.607,-69.467 L -106.912,-69.6885
 L -107.187,-69.9464 L -107.427,-70.2366 L -107.629,-70.5547 L -107.789,-70.8956 L -107.906,-71.2539 L -107.976,-71.624
 L -108,-72 L -107.976,-72.376 L -107.906,-72.7461 L -107.789,-73.1044 L -107.629,-73.4453 L -107.427,-73.7634
 L -107.187,-74.0536 L -106.912,-74.3115 L -106.607,-74.533 L -106.277,-74.7145 L -105.927,-74.8532 L -105.562,-74.9469
 L -105.188,-74.9941 L -104.812,-74.9941 L -104.438,-74.9469 L -104.073,-74.8532 L -103.723,-74.7145 L -103.393,-74.533
 L -103.088,-74.3115 L -102.813,-74.0536 L -102.573,-73.7634 L -102.371,-73.4453 L -102.211,-73.1044 L -102.094,-72.7461
 L -102.024,-72.376 L -102,-72 L -102.024,-71.624 L -102.094,-71.2539 L -102.211,-70.8956 L -102.371,-70.5547
 L -102.573,-70.2366 L -102.813,-69.9464 L -103.088,-69.6885 L -103.393,-69.467 L -103.723,-69.2855 L -104.073,-69.1468
 L -104.438,-69.0531 L -104.812,-69.0059 z
M 29.8116,-69.0059 L 29.4379,-69.0531 L 29.0729,-69.1468 L 28.7227,-69.2855 L 28.3925,-69.467 L 28.0877,-69.6885
 L 27.8131,-69.9464 L 27.5729,-70.2366 L 27.3711,-70.5547 L 27.2107,-70.8956 L 27.0942,-71.2539 L 27.0237,-71.624
 L 27,-72 L 27.0237,-72.376 L 27.0942,-72.7461 L 27.2107,-73.1044 L 27.3711,-73.4453 L 27.5729,-73.7634
 L 27.8131,-74.0536 L 28.0877,-74.3115 L 28.3925,-74.533 L 28.7227,-74.7145 L 29.0729,-74.8532 L 29.4379,-74.9469
 L 29.8116,-74.9941 L 30.1884,-74.9941 L 30.5621,-74.9469 L 30.927,-74.8532 L 31.2773,-74.7145 L 31.6075,-74.533
 L 31.9123,-74.3115 L 32.1869,-74.0536 L 32.427,-73.7634 L 32.6289,-73.4453 L 32.7893,-73.1044 L 32.9057,-72.7461
 L 32.9763,-72.376 L 33,-72 L 32.9763,-71.624 L 32.9057,-71.2539 L 32.7893,-70.8956 L 32.6289,-70.5547
 L 32.427,-70.2366 L 32.1869,-69.9464 L 31.9123,-69.6885 L 31.6075,-69.467 L 31.2773,-69.2855 L 30.927,-69.1468
 L 30.5621,-69.0531 L 30.1884,-69.0059 z
M -45.1884,-69.0059 L -45.5621,-69.0531 L -45.927,-69.1468 L -46.2773,-69.2855 L -46.6075,-69.467 L -46.9123,-69.6885
 L -47.1869,-69.9464 L -47.427,-70.2366 L -47.6289,-70.5547 L -47.7893,-70.8956 L -47.9057,-71.2539 L -47.9763,-71.624
 L -48,-72 L -47.9763,-72.376 L -47.9057,-72.7461 L -47.7893,-73.1044 L -47.6289,-73.4453 L -47.427,-73.7634
 L -47.1869,-74.0536 L -46.9123,-74.3115 L -46.6075,-74.533 L -46.2773,-74.7145 L -45.927,-74.8532 L -45.5621,-74.9469
 L -45.1884,-74.9941 L -44.8116,-74.9941 L -44.4379,-74.9469 L -44.0729,-74.8532 L -43.7227,-74.7145 L -43.3925,-74.533
 L -43.0877,-74.3115 L -42.8131,-74.0536 L -42.5729,-73.7634 L -42.3711,-73.4453 L -42.2107,-73.1044 L -42.0942,-72.7461
 L -42.0237,-72.376 L -42,-72 L -42.0237,-71.624 L -42.0942,-71.2539 L -42.2107,-70.8956 L -42.3711,-70.5547
 L -42.5729,-70.2366 L -42.8131,-69.9464 L -43.0877,-69.6885 L -43.3925,-69.467 L -43.7227,-69.2855 L -44.0729,-69.1468
 L -44.4379,-69.0531 L -44.8116,-69.0059 z
M 89.8116,-69.0059 L 89.4379,-69.0531 L 89.073,-69.1468 L 88.7227,-69.2855 L 88.3925,-69.467 L 88.0877,-69.6885
 L 87.8131,-69.9464 L 87.573,-70.2366 L 87.3711,-70.5547 L 87.2107,-70.8956 L 87.0943,-71.2539 L 87.0237,-71.624
 L 87,-72 L 87.0237,-72.376 L 87.0943,-72.7461 L 87.2107,-73.1044 L 87.3711,-73.4453 L 87.573,-73.7634
 L 87.8131,-74.0536 L 88.0877,-74.3115 L 88.3925,-74.533 L 88.7227,-74.7145 L 89.073,-74.8532 L 89.4379,-74.9469
 L 89.8116,-74.9941 L 90.1884,-74.9941 L 90.5621,-74.9469 L 90.927,-74.8532 L 91.2773,-74.7145 L 91.6075,-74.533
 L 91.9123,-74.3115 L 92.1869,-74.0536 L 92.427,-73.7634 L 92.6289,-73.4453 L 92.7893,-73.1044 L 92.9057,-72.7461
 L 92.9763,-72.376 L 93,-72 L 92.9763,-71.624 L 92.9057,-71.2539 L 92.7893,-70.8956 L 92.6289,-70.5547
 L 92.427,-70.2366 L 92.1869,-69.9464 L 91.9123,-69.6885 L 91.6075,-69.467 L 91.2773,-69.2855 L 90.927,-69.1468
 L 90.5621,-69.0531 L 90.1884,-69.0059 z
M -30.1884,-69.0059 L -30.5621,-69.0531 L -30.927,-69.1468 L -31.2773,-69.2855 L -31.6075,-69.467 L -31.9123,-69.6885
 L -32.1869,-69.9464 L -32.427,-70.2366 L -32.6289,-70.5547 L -32.7893,-70.8956 L -32.9057,-71.2539 L -32.9763,-71.624
 L -33,-72 L -32.9763,-72.376 L -32.9057,-72.7461 L -32.7893,-73.1044 L -32.6289,-73.4453 L -32.427,-73.7634
 L -32.1869,-74.0536 L -31.9123,-74.3115 L -31.6075,-74.533 L -31.2773,-74.7145 L -30.927,-74.8532 L -30.5621,-74.9469
 L -30.1884,-74.9941 L -29.8116,-74.9941 L -29.4379,-74.9469 L -29.0729,-74.8532 L -28.7227,-74.7145 L -28.3925,-74.533
 L -28.0877,-74.3115 L -27.8131,-74.0536 L -27.5729,-73.7634 L -27.3711,-73.4453 L -27.2107,-73.1044 L -27.0942,-72.7461
 L -27.0237,-72.376 L -27,-72 L -27.0237,-71.624 L -27.0942,-71.2539 L -27.2107,-70.8956 L -27.3711,-70.5547
 L -27.5729,-70.2366 L -27.8131,-69.9464 L -28.0877,-69.6885 L -28.3925,-69.467 L -28.7227,-69.2855 L -29.0729,-69.1468
 L -29.4379,-69.0531 L -29.8116,-69.0059 z
M 107.937,-41.0886 L 108.545,-41.2447 L 109.129,-41.4759 L 109.679,-41.7784 L 110.187,-42.1474 L 110.645,-42.5773
 L 111.045,-43.0611 L 111.382,-43.5912 L 111.649,-44.1594 L 111.843,-44.7566 L 111.961,-45.3733 L 112,-46
 L 112,-50 L 111.961,-50.6267 L 111.843,-51.2434 L 111.649,-51.8406 L 111.382,-52.4088 L 111.045,-52.9389
 L 110.645,-53.4227 L 110.187,-53.8526 L 109.679,-54.2216 L 109.129,-54.5241 L 108.545,-54.7553 L 107.937,-54.9114
 L 107.314,-54.9901 L -107.314,-54.9901 L -107.937,-54.9114 L -108.545,-54.7553 L -109.129,-54.5241 L -109.679,-54.2216
 L -110.187,-53.8526 L -110.645,-53.4227 L -111.045,-52.9389 L -111.382,-52.4088 L -111.649,-51.8406 L -111.843,-51.2434
 L -111.961,-50.6267 L -112,-50 L -112,-46 L -111.961,-45.3733 L -111.843,-44.7566 L -111.649,-44.1594
 L -111.382,-43.5912 L -111.045,-43.0611 L -110.645,-42.5773 L -110.187,-42.1474 L -109.679,-41.7784 L -109.129,-41.4759
 L -108.545,-41.2447 L -107.937,-41.0886 L -107.314,-41.0099 L 107.314,-41.0099 z
M -0.18837,-45.0059 L -0.562134,-45.0531 L -0.927048,-45.1468 L -1.27733,-45.2855 L -1.60747,-45.467 L -1.91226,-45.6885
 L -2.1869,-45.9464 L -2.42705,-46.2366 L -2.62891,-46.5547 L -2.78932,-46.8956 L -2.90575,-47.2539 L -2.97633,-47.624
 L -3,-48 L -2.97633,-48.376 L -2.90575,-48.7461 L -2.78932,-49.1044 L -2.62891,-49.4453 L -2.42705,-49.7634
 L -2.1869,-50.0536 L -1.91226,-50.3115 L -1.60747,-50.533 L -1.27733,-50.7145 L -0.927048,-50.8532 L -0.562134,-50.9469
 L -0.18837,-50.9941 L 0.18837,-50.9941 L 0.562134,-50.9469 L 0.927048,-50.8532 L 1.27733,-50.7145 L 1.60747,-50.533
 L 1.91226,-50.3115 L 2.1869,-50.0536 L 2.42705,-49.7634 L 2.62891,-49.4453 L 2.78932,-49.1044 L 2.90575,-48.7461
 L 2.97633,-48.376 L 3,-48 L 2.97633,-47.624 L 2.90575,-47.2539 L 2.78932,-46.8956 L 2.62891,-46.5547
 L 2.42705,-46.2366 L 2.1869,-45.9464 L 1.91226,-45.6885 L 1.60747,-45.467 L 1.27733,-45.2855 L 0.927048,-45.1468
 L 0.562134,-45.0531 L 0.18837,-45.0059 z
M -75.1884,-45.0059 L -75.5621,-45.0531 L -75.927,-45.1468 L -76.2773,-45.2855 L -76.6075,-45.467 L -76.9123,-45.6885
 L -77.1869,-45.9464 L -77.427,-46.2366 L -77.6289,-46.5547 L -77.7893,-46.8956 L -77.9057,-47.2539 L -77.9763,-47.624
 L -78,-48 L -77.9763,-48.376 L -77.9057,-48.7461 L -77.7893,-49.1044 L -77.6289,-49.4453 L -77.427,-49.7634
 L -77.1869,-50.0536 L -76.9123,-50.3115 L -76.6075,-50.533 L -76.2773,-50.7145 L -75.927,-50.8532 L -75.5621,-50.9469
 L -75.1884,-50.9941 L -74.8116,-50.9941 L -74.4379,-50.9469 L -74.073,-50.8532 L -73.7227,-50.7145 L -73.3925,-50.533
 L -73.0877,-50.3115 L -72.8131,-50.0536 L -72.573,-49.7634 L -72.3711,-49.4453 L -72.2107,-49.1044 L -72.0943,-48.7461
 L -72.0237,-48.376 L -72,-48 L -72.0237,-47.624 L -72.0943,-47.2539 L -72.2107,-46.8956 L -72.3711,-46.5547
 L -72.573,-46.2366 L -72.8131,-45.9464 L -73.0877,-45.6885 L -73.3925,-45.467 L -73.7227,-45.2855 L -74.073,-45.1468
 L -74.4379,-45.0531 L -74.8116,-45.0059 z
M -15.1884,-45.0059 L -15.5621,-45.0531 L -15.927,-45.1468 L -16.2773,-45.2855 L -16.6075,-45.467 L -16.9123,-45.6885
 L -17.1869,-45.9464 L -17.427,-46.2366 L -17.6289,-46.5547 L -17.7893,-46.8956 L -17.9057,-47.2539 L -17.9763,-47.624
 L -18,-48 L -17.9763,-48.376 L -17.9057,-48.7461 L -17.7893,-49.1044 L -17.6289,-49.4453 L -17.427,-49.7634
 L -17.1869,-50.0536 L -16.9123,-50.3115 L -16.6075,-50.533 L -16.2773,-50.7145 L -15.927,-50.8532 L -15.5621,-50.9469
 L -15.1884,-50.9941 L -14.8116,-50.9941 L -14.4379,-50.9469 L -14.0729,-50.8532 L -13.7227,-50.7145 L -13.3925,-50.533
 L -13.0877,-50.3115 L -12.8131,-50.0536 L -12.5729,-49.7634 L -12.3711,-49.4453 L -12.2107,-49.1044 L -12.0942,-48.7461
 L -12.0237,-48.376 L -12,-48 L -12.0237,-47.624 L -12.0942,-47.2539 L -12.2107,-46.8956 L -12.3711,-46.5547
 L -12.5729,-46.2366 L -12.8131,-45.9464 L -13.0877,-45.6885 L -13.3925,-45.467 L -13.7227,-45.2855 L -14.0729,-45.1468
 L -14.4379,-45.0531 L -14.8116,-45.0059 z
M -60.1884,-45.0059 L -60.5621,-45.0531 L -60.927,-45.1468 L -61.2773,-45.2855 L -61.6075,-45.467 L -61.9123,-45.6885
 L -62.1869,-45.9464 L -62.427,-46.2366 L -62.6289,-46.5547 L -62.7893,-46.8956 L -62.9057,-47.2539 L -62.9763,-47.624
 L -63,-48 L -62.9763,-48.376 L -62.9057,-48.7461 L -62.7893,-49.1044 L -62.6289,-49.4453 L -62.427,-49.7634
 L -62.1869,-50.0536 L -61.9123,-50.3115 L -61.6075,-50.533 L -61.2773,-50.7145 L -60.927,-50.8532 L -60.5621,-50.9469
 L -60.1884,-50.9941 L -59.8116,-50.9941 L -59.4379,-50.9469 L -59.0729,-50.8532 L -58.7227,-50.7145 L -58.3925,-50.533
 L -58.0877,-50.3115 L -57.8131,-50.0536 L -57.5729,-49.7634 L -57.3711,-49.4453 L -57.2107,-49.1044 L -57.0942,-48.7461
 L -57.0237,-48.376 L -57,-48 L -57.0237,-47.624 L -57.0942,-47.2539 L -57.2107,-46.8956 L -57.3711,-46.5547
 L -57.5729,-46.2366 L -57.8131,-45.9464 L -58.0877,-45.6885 L -58.3925,-45.467 L -58.7227,-45.2855 L -59.0729,-45.1468
 L -59.4379,-45.0531 L -59.8116,-45.0059 z
M 14.8116,-45.0059 L 14.4379,-45.0531 L 14.0729,-45.1468 L 13.7227,-45.2855 L 13.3925,-45.467 L 13.0877,-45.6885
 L 12.8131,-45.9464 L 12.5729,-46.2366 L 12.3711,-46.5547 L 12.2107,-46.8956 L 12.0942,-47.2539 L 12.0237,-47.624
 L 12,-48 L 12.0237,-48.376 L 12.0942,-48.7461 L 12.2107,-49.1044 L 12.3711,-49.4453 L 12.5729,-49.7634
 L 12.8131,-50.0536 L 13.0877,-50.3115 L 13.3925,-50.533 L 13.7227,-50.7145 L 14.0729,-50.8532 L 14.4379,-50.9469
 L 14.8116,-50.9941 L 15.1884,-50.9941 L 15.5621,-50.9469 L 15.927,-50.8532 L 16.2773,-50.7145 L 16.6075,-50.533
 L 16.9123,-50.3115 L 17.1869,-50.0536 L 17.427,-49.7634 L 17.6289,-49.4453 L 17.7893,-49.1044 L 17.9057,-48.7461
 L 17.9763,-48.376 L 18,-48 L 17.9763,-47.624 L 17.9057,-47.2539 L 17.7893,-46.8956 L 17.6289,-46.5547
 L 17.427,-46.2366 L 17.1869,-45.9464 L 16.9123,-45.6885 L 16.6075,-45.467 L 16.2773,-45.2855 L 15.927,-45.1468
 L 15.5621,-45.0531 L 15.1884,-45.0059 z
M 44.8116,-45.0059 L 44.4379,-45.0531 L 44.0729,-45.1468 L 43.7227,-45.2855 L 43.3925,-45.467 L 43.0877,-45.6885
 L 42.8131,-45.9464 L 42.5729,-46.2366 L 42.3711,-46.5547 L 42.2107,-46.8956 L 42.0942,-47.2539 L 42.0237,-47.624
 L 42,-48 L 42.0237,-48.376 L 42.0942,-48.7461 L 42.2107,-49.1044 L 42.3711,-49.4453 L 42.5729,-49.7634
 L 42.8131,-50.0536 L 43.0877,-50.3115 L 43.3925,-50.533 L 43.7227,-50.7145 L 44.0729,-50.8532 L 44.4379,-50.9469
 L 44.8116,-50.9941 L 45.1884,-50.9941 L 45.5621,-50.9469 L 45.927,-50.8532 L 46.2773,-50.7145 L 46.6075,-50.533
 L 46.9123,-50.3115 L 47.1869,-50.0536 L 47.427,-49.7634 L 47.6289,-49.4453 L 47.7893,-49.1044 L 47.9057,-48.7461
 L 47.9763,-48.376 L 48,-48 L 47.9763,-47.624 L 47.9057,-47.2539 L 47.7893,-46.8956 L 47.6289,-46.5547
 L 47.427,-46.2366 L 47.1869,-45.9464 L 46.9123,-45.6885 L 46.6075,-45.467 L 46.2773,-45.2855 L 45.927,-45.1468
 L 45.5621,-45.0531 L 45.1884,-45.0059 z
M -90.1884,-45.0059 L -90.5621,-45.0531 L -90.927,-45.1468 L -91.2773,-45.2855 L -91.6075,-45.467 L -91.9123,-45.6885
 L -92.1869,-45.9464 L -92.427,-46.2366 L -92.6289,-46.5547 L -92.7893,-46.8956 L -92.9057,-47.2539 L -92.9763,-47.624
 L -93,-48 L -92.9763,-48.376 L -92.9057,-48.7461 L -92.7893,-49.1044 L -92.6289,-49.4453 L -92.427,-49.7634
 L -92.1869,-50.0536 L -91.9123,-50.3115 L -91.6075,-50.533 L -91.2773,-50.7145 L -90.927,-50.8532 L -90.5621,-50.9469
 L -90.1884,-50.9941 L -89.8116,-50.9941 L -89.4379,-50.9469 L -89.073,-50.8532 L -88.7227,-50.7145 L -88.3925,-50.533
 L -88.0877,-50.3115 L -87.8131,-50.0536 L -87.573,-49.7634 L -87.3711,-49.4453 L -87.2107,-49.1044 L -87.0943,-48.7461
 L -87.0237,-48.376 L -87,-48 L -87.0237,-47.624 L -87.0943,-47.2539 L -87.2107,-46.8956 L -87.3711,-46.5547
 L -87.573,-46.2366 L -87.8131,-45.9464 L -88.0877,-45.6885 L -88.3925,-45.467 L -88.7227,-45.2855 L -89.073,-45.1468
 L -89.4379,-45.0531 L -89.8116,-45.0059 z
M 74.8116,-45.0059 L 74.4379,-45.0531 L 74.073,-45.1468 L 73.7227,-45.2855 L 73.3925,-45.467 L 73.0877,-45.6885
 L 72.8131,-45.9464 L 72.573,-46.2366 L 72.3711,-46.5547 L 72.2107,-46.8956 L 72.0943,-47.2539 L 72.0237,-47.624
 L 72,-48 L 72.0237,-48.376 L 72.0943,-48.7461 L 72.2107,-49.1044 L 72.3711,-49.4453 L 72.573,-49.7634
 L 72.8131,-50.0536 L 73.0877,-50.3115 L 73.3925,-50.533 L 73.7227,-50.7145 L 74.073,-50.8532 L 74.4379,-50.9469
 L 74.8116,-50.9941 L 75.1884,-50.9941 L 75.5621,-50.9469 L 75.927,-50.8532 L 76.2773,-50.7145 L 76.6075,-50.533
 L 76.9123,-50.3115 L 77.1869,-50.0536 L 77.427,-49.7634 L 77.6289,-49.4453 L 77.7893,-49.1044 L 77.9057,-48.7461
 L 77.9763,-48.376 L 78,-48 L 77.9763,-47.624 L 77.9057,-47.2539 L 77.7893,-46.8956 L 77.6289,-46.5547
 L 77.427,-46.2366 L 77.1869,-45.9464 L 76.9123,-45.6885 L 76.6075,-45.467 L 76.2773,-45.2855 L 75.927,-45.1468
 L 75.5621,-45.0531 L 75.1884,-45.0059 z
M 59.8116,-45.0059 L 59.4379,-45.0531 L 59.0729,-45.1468 L 58.7227,-45.2855 L 58.3925,-45.467 L 58.0877,-45.6885
 L 57.8131,-45.9464 L 57.5729,-46.2366 L 57.3711,-46.5547 L 57.2107,-46.8956 L 57.0942,-47.2539 L 57.0237,-47.624
 L 57,-48 L 57.0237,-48.376 L 57.0942,-48.7461 L 57.2107,-49.1044 L 57.3711,-49.4453 L 57.5729,-49.7634
 L 57.8131,-50.0536 L 58.0877,-50.3115 L 58.3925,-50.533 L 58.7227,-50.7145 L 59.0729,-50.8532 L 59.4379,-50.9469
 L 59.8116,-50.9941 L 60.1884,-50.9941 L 60.5621,-50.9469 L 60.927,-50.8532 L 61.2773,-50.7145 L 61.6075,-50.533
 L 61.9123,-50.3115 L 62.1869,-50.0536 L 62.427,-49.7634 L 62.6289,-49.4453 L 62.7893,-49.1044 L 62.9057,-48.7461
 L 62.9763,-48.376 L 63,-48 L 62.9763,-47.624 L 62.9057,-47.2539 L 62.7893,-46.8956 L 62.6289,-46.5547
 L 62.427,-46.2366 L 62.1869,-45.9464 L 61.9123,-45.6885 L 61.6075,-45.467 L 61.2773,-45.2855 L 60.927,-45.1468
 L 60.5621,-45.0531 L 60.1884,-45.0059 z
M 104.812,-45.0059 L 104.438,-45.0531 L 104.073,-45.1468 L 103.723,-45.2855 L 103.393,-45.467 L 103.088,-45.6885
 L 102.813,-45.9464 L 102.573,-46.2366 L 102.371,-46.5547 L 102.211,-46.8956 L 102.094,-47.2539 L 102.024,-47.624
 L 102,-48 L 102.024,-48.376 L 102.094,-48.7461 L 102.211,-49.1044 L 102.371,-49.4453 L 102.573,-49.7634
 L 102.813,-50.0536 L 103.088,-50.3115 L 103.393,-50.533 L 103.723,-50.7145 L 104.073,-50.8532 L 104.438,-50.9469
 L 104.812,-50.9941 L 105.188,-50.9941 L 105.562,-50.9469 L 105.927,-50.8532 L 106.277,-50.7145 L 106.607,-50.533
 L 106.912,-50.3115 L 107.187,-50.0536 L 107.427,-49.7634 L 107.629,-49.4453 L 107.789,-49.1044 L 107.906,-48.7461
 L 107.976,-48.376 L 108,-48 L 107.976,-47.624 L 107.906,-47.2539 L 107.789,-46.8956 L 107.629,-46.5547
 L 107.427,-46.2366 L 107.187,-45.9464 L 106.912,-45.6885 L 106.607,-45.467 L 106.277,-45.2855 L 105.927,-45.1468
 L 105.562,-45.0531 L 105.188,-45.0059 z
M -105.188,-45.0059 L -105.562,-45.0531 L -105.927,-45.1468 L -106.277,-45.2855 L -106.607,-45.467 L -106.912,-45.6885
 L -107.187,-45.9464 L -107.427,-46.2366 L -107.629,-46.5547 L -107.789,-46.8956 L -107.906,-47.2539 L -107.976,-47.624
 L -108,-48 L -107.976,-48.376 L -107.906,-48.7461 L -107.789,-49.1044 L -107.629,-49.4453 L -107.427,-49.7634
 L -107.187,-50.0536 L -106.912,-50.3115 L -106.607,-50.533 L -106.277,-50.7145 L -105.927,-50.8532 L -105.562,-50.9469
 L -105.188,-50.9941 L -104.812,-50.9941 L -104.438,-50.9469 L -104.073,-50.8532 L -103.723,-50.7145 L -103.393,-50.533
 L -103.088,-50.3115 L -102.813,-50.0536 L -102.573,-49.7634 L -102.371,-49.4453 L -102.211,-49.1044 L -102.094,-48.7461
 L -102.024,-48.376 L -102,-48 L -102.024,-47.624 L -102.094,-47.2539 L -102.211,-46.8956 L -102.371,-46.5547
 L -102.573,-46.2366 L -102.813,-45.9464 L -103.088,-45.6885 L -103.393,-45.467 L -103.723,-45.2855 L -104.073,-45.1468
 L -104.438,-45.0531 L -104.812,-45.0059 z
M 29.8116,-45.0059 L 29.4379,-45.0531 L 29.0729,-45.1468 L 28.7227,-45.2855 L 28.3925,-45.467 L 28.0877,-45.6885
 L 27.8131,-45.9464 L 27.5729,-46.2366 L 27.3711,-46.5547 L 27.2107,-46.8956 L 27.0942,-47.2539 L 27.0237,-47.624
 L 27,-48 L 27.0237,-48.376 L 27.0942,-48.7461 L 27.2107,-49.1044 L 27.3711,-49.4453 L 27.5729,-49.7634
 L 27.8131,-50.0536 L 28.0877,-50.3115 L 28.3925,-50.533 L 28.7227,-50.7145 L 29.0729,-50.8532 L 29.4379,-50.9469
 L 29.8116,-50.9941 L 30.1884,-50.9941 L 30.5621,-50.9469 L 30.927,-50.8532 L 31.2773,-50.7145 L 31.6075,-50.533
 L 31.9123,-50.3115 L 32.1869,-50.0536 L 32.427,-49.7634 L 32.6289,-49.4453 L 32.7893,-49.1044 L 32.9057,-48.7461
 L 32.9763,-48.376 L 33,-48 L 32.9763,-47.624 L 32.9057,-47.2539 L 32.7893,-46.8956 L 32.6289,-46.5547
 L 32.427,-46.2366 L 32.1869,-45.9464 L 31.9123,-45.6885 L 31.6075,-45.467 L 31.2773,-45.2855 L 30.927,-45.1468
 L 30.5621,-45.0531 L 30.1884,-45.0059 z
M -45.1884,-45.0059 L -45.5621,-45.0531 L -45.927,-45.1468 L -46.2773,-45.2855 L -46.6075,-45.467 L -46.9123,-45.6885
 L -47.1869,-45.9464 L -47.427,-46.2366 L -47.6289,-46.5547 L -47.7893,-46.8956 L -47.9057,-47.2539 L -47.9763,-47.624
 L -48,-48 L -47.9763,-48.376 L -47.9057,-48.7461 L -47.7893,-49.1044 L -47.6289,-49.4453 L -47.427,-49.7634
 L -47.1869,-50.0536 L -46.9123,-50.3115 L -46.6075,-50.533 L -46.2773,-50.7145 L -45.927,-50.8532 L -45.5621,-50.9469
 L -45.1884,-50.9941 L -44.8116,-50.9941 L -44.4379,-50.9469 L -44.0729,-50.8532 L -43.7227,-50.7145 L -43.3925,-50.533
 L -43.0877,-50.3115 L -42.8131,-50.0536 L -42.5729,-49.7634 L -42.3711,-49.4453 L -42.2107,-49.1044 L -42.0942,-48.7461
 L -42.0237,-48.376 L -42,-48 L -42.0237,-47.624 L -42.0942,-47.2539 L -42.2107,-46.8956 L -42.3711,-46.5547
 L -42.5729,-46.2366 L -42.8131,-45.9464 L -43.0877,-45.6885 L -43.3925,-45.467 L -43.7227,-45.2855 L -44.0729,-45.1468
 L -44.4379,-45.0531 L -44.8116,-45.0059 z
M 89.8116,-45.0059 L 89.4379,-45.0531 L 89.073,-45.1468 L 88.7227,-45.2855 L 88.3925,-45.467 L 88.0877,-45.6885
 L 87.8131,-45.9464 L 87.573,-46.2366 L 87.3711,-46.5547 L 87.2107,-46.8956 L 87.0943,-47.2539 L 87.0237,-47.624
 L 87,-48 L 87.0237,-48.376 L 87.0943,-48.7461 L 87.2107,-49.1044 L 87.3711,-49.4453 L 87.573,-49.7634
 L 87.8131,-50.0536 L 88.0877,-50.3115 L 88.3925,-50.533 L 88.7227,-50.7145 L 89.073,-50.8532 L 89.4379,-50.9469
 L 89.8116,-50.9941 L 90.1884,-50.9941 L 90.5621,-50.9469 L 90.927,-50.8532 L 91.2773,-50.7145 L 91.6075,-50.533
 L 91.9123,-50.3115 L 92.1869,-50.0536 L 92.427,-49.7634 L 92.6289,-49.4453 L 92.7893,-49.1044 L 92.9057,-48.7461
 L 92.9763,-48.376 L 93,-48 L 92.9763,-47.624 L 92.9057,-47.2539 L 92.7893,-46.8956 L 92.6289,-46.5547
 L 92.427,-46.2366 L 92.1869,-45.9464 L 91.9123,-45.6885 L 91.6075,-45.467 L 91.2773,-45.2855 L 90.927,-45.1468
 L 90.5621,-45.0531 L 90.1884,-45.0059 z
M -30.1884,-45.0059 L -30.5621,-45.0531 L -30.927,-45.1468 L -31.2773,-45.2855 L -31.6075,-45.467 L -31.9123,-45.6885
 L -32.1869,-45.9464 L -32.427,-46.2366 L -32.6289,-46.5547 L -32.7893,-46.8956 L -32.9057,-47.2539 L -32.9763,-47.624
 L -33,-48 L -32.9763,-48.376 L -32.9057,-48.7461 L -32.7893,-49.1044 L -32.6289,-49.4453 L -32.427,-49.7634
 L -32.1869,-50.0536 L -31.9123,-50.3115 L -31.6075,-50.533 L -31.2773,-50.7145 L -30.927,-50.8532 L -30.5621,-50.9469
 L -30.1884,-50.9941 L -29.8116,-50.9941 L -29.4379,-50.9469 L -29.0729,-50.8532 L -28.7227,-50.7145 L -28.3925,-50.533
 L -28.0877,-50.3115 L -27.8131,-50.0536 L -27.5729,-49.7634 L -27.3711,-49.4453 L -27.2107,-49.1044 L -27.0942,-48.7461
 L -27.0237,-48.376 L -27,-48 L -27.0237,-47.624 L -27.0942,-47.2539 L -27.2107,-46.8956 L -27.3711,-46.5547
 L -27.5729,-46.2366 L -27.8131,-45.9464 L -28.0877,-45.6885 L -28.3925,-45.467 L -28.7227,-45.2855 L -29.0729,-45.1468
 L -29.4379,-45.0531 L -29.8116,-45.0059 z
" stroke="black" fill="lightgray" stroke-width="0.5"/>
</svg>
