  0
SECTION
  2
BLOCKS
  0
ENDSEC
  0
SECTION
  2
ENTITIES
  0
LINE
  8
0
 10
212.937
 20
65.0886
 11
213.545
 21
65.2447
  0
LINE
  8
0
 10
213.545
 20
65.2447
 11
214.129
 21
65.4759
  0
LINE
  8
0
 10
214.129
 20
65.4759
 11
214.679
 21
65.7784
  0
LINE
  8
0
 10
214.679
 20
65.7784
 11
215.187
 21
66.1474
  0
LINE
  8
0
 10
215.187
 20
66.1474
 11
215.645
 21
66.5773
  0
LINE
  8
0
 10
215.645
 20
66.5773
 11
216.045
 21
67.0611
  0
LINE
  8
0
 10
216.045
 20
67.0611
 11
216.382
 21
67.5912
  0
LINE
  8
0
 10
216.382
 20
67.5912
 11
216.649
 21
68.1594
  0
LINE
  8
0
 10
216.649
 20
68.1594
 11
216.843
 21
68.7566
  0
LINE
  8
0
 10
216.843
 20
68.7566
 11
216.961
 21
69.3733
  0
LINE
  8
0
 10
216.961
 20
69.3733
 11
217
 21
70
  0
LINE
  8
0
 10
217
 20
70
 11
217
 21
74
  0
LINE
  8
0
 10
217
 20
74
 11
216.961
 21
74.6267
  0
LINE
  8
0
 10
216.961
 20
74.6267
 11
216.843
 21
75.2434
  0
LINE
  8
0
 10
216.843
 20
75.2434
 11
216.649
 21
75.8406
  0
LINE
  8
0
 10
216.649
 20
75.8406
 11
216.382
 21
76.4088
  0
LINE
  8
0
 10
216.382
 20
76.4088
 11
216.045
 21
76.9389
  0
LINE
  8
0
 10
216.045
 20
76.9389
 11
215.645
 21
77.4227
  0
LINE
  8
0
 10
215.645
 20
77.4227
 11
215.187
 21
77.8526
  0
LINE
  8
0
 10
215.187
 20
77.8526
 11
214.679
 21
78.2216
  0
LINE
  8
0
 10
214.679
 20
78.2216
 11
214.129
 21
78.5241
  0
LINE
  8
0
 10
214.129
 20
78.5241
 11
213.545
 21
78.7553
  0
LINE
  8
0
 10
213.545
 20
78.7553
 11
212.937
 21
78.9114
  0
LINE
  8
0
 10
212.937
 20
78.9114
 11
212.314
 21
78.9901
  0
LINE
  8
0
 10
212.314
 20
78.9901
 11
-212.314
 21
78.9901
  0
LINE
  8
0
 10
-212.314
 20
78.9901
 11
-212.937
 21
78.9114
  0
LINE
  8
0
 10
-212.937
 20
78.9114
 11
-213.545
 21
78.7553
  0
LINE
  8
0
 10
-213.545
 20
78.7553
 11
-214.129
 21
78.5241
  0
LINE
  8
0
 10
-214.129
 20
78.5241
 11
-214.679
 21
78.2216
  0
LINE
  8
0
 10
-214.679
 20
78.2216
 11
-215.187
 21
77.8526
  0
LINE
  8
0
 10
-215.187
 20
77.8526
 11
-215.645
 21
77.4227
  0
LINE
  8
0
 10
-215.645
 20
77.4227
 11
-216.045
 21
76.9389
  0
LINE
  8
0
 10
-216.045
 20
76.9389
 11
-216.382
 21
76.4088
  0
LINE
  8
0
 10
-216.382
 20
76.4088
 11
-216.649
 21
75.8406
  0
LINE
  8
0
 10
-216.649
 20
75.8406
 11
-216.843
 21
75.2434
  0
LINE
  8
0
 10
-216.843
 20
75.2434
 11
-216.961
 21
74.6267
  0
LINE
  8
0
 10
-216.961
 20
74.6267
 11
-217
 21
74
  0
LINE
  8
0
 10
-217
 20
74
 11
-217
 21
70
  0
LINE
  8
0
 10
-217
 20
70
 11
-216.961
 21
69.3733
  0
LINE
  8
0
 10
-216.961
 20
69.3733
 11
-216.843
 21
68.7566
  0
LINE
  8
0
 10
-216.843
 20
68.7566
 11
-216.649
 21
68.1594
  0
LINE
  8
0
 10
-216.649
 20
68.1594
 11
-216.382
 21
67.5912
  0
LINE
  8
0
 10
-216.382
 20
67.5912
 11
-216.045
 21
67.0611
  0
LINE
  8
0
 10
-216.045
 20
67.0611
 11
-215.645
 21
66.5773
  0
LINE
  8
0
 10
-215.645
 20
66.5773
 11
-215.187
 21
66.1474
  0
LINE
  8
0
 10
-215.187
 20
66.1474
 11
-214.679
 21
65.7784
  0
LINE
  8
0
 10
-214.679
 20
65.7784
 11
-214.129
 21
65.4759
  0
LINE
  8
0
 10
-214.129
 20
65.4759
 11
-213.545
 21
65.2447
  0
LINE
  8
0
 10
-213.545
 20
65.2447
 11
-212.937
 21
65.0886
  0
LINE
  8
0
 10
-212.937
 20
65.0886
 11
-212.314
 21
65.0099
  0
LINE
  8
0
 10
-212.314
 20
65.0099
 11
212.314
 21
65.0099
  0
LINE
  8
0
 10
212.314
 20
65.0099
 11
212.937
 21
65.0886
  0
LINE
  8
0
 10
14.8116
 20
69.0059
 11
14.4379
 21
69.0531
  0
LINE
  8
0
 10
14.4379
 20
69.0531
 11
14.0729
 21
69.1468
  0
LINE
  8
0
 10
14.0729
 20
69.1468
 11
13.7227
 21
69.2855
  0
LINE
  8
0
 10
13.7227
 20
69.2855
 11
13.3925
 21
69.467
  0
LINE
  8
0
 10
13.3925
 20
69.467
 11
13.0877
 21
69.6885
  0
LINE
  8
0
 10
13.0877
 20
69.6885
 11
12.8131
 21
69.9464
  0
LINE
  8
0
 10
12.8131
 20
69.9464
 11
12.5729
 21
70.2366
  0
LINE
  8
0
 10
12.5729
 20
70.2366
 11
12.3711
 21
70.5547
  0
LINE
  8
0
 10
12.3711
 20
70.5547
 11
12.2107
 21
70.8956
  0
LINE
  8
0
 10
12.2107
 20
70.8956
 11
12.0942
 21
71.2539
  0
LINE
  8
0
 10
12.0942
 20
71.2539
 11
12.0237
 21
71.624
  0
LINE
  8
0
 10
12.0237
 20
71.624
 11
12
 21
72
  0
LINE
  8
0
 10
12
 20
72
 11
12.0237
 21
72.376
  0
LINE
  8
0
 10
12.0237
 20
72.376
 11
12.0942
 21
72.7461
  0
LINE
  8
0
 10
12.0942
 20
72.7461
 11
12.2107
 21
73.1044
  0
LINE
  8
0
 10
12.2107
 20
73.1044
 11
12.3711
 21
73.4453
  0
LINE
  8
0
 10
12.3711
 20
73.4453
 11
12.5729
 21
73.7634
  0
LINE
  8
0
 10
12.5729
 20
73.7634
 11
12.8131
 21
74.0536
  0
LINE
  8
0
 10
12.8131
 20
74.0536
 11
13.0877
 21
74.3115
  0
LINE
  8
0
 10
13.0877
 20
74.3115
 11
13.3925
 21
74.533
  0
LINE
  8
0
 10
13.3925
 20
74.533
 11
13.7227
 21
74.7145
  0
LINE
  8
0
 10
13.7227
 20
74.7145
 11
14.0729
 21
74.8532
  0
LINE
  8
0
 10
14.0729
 20
74.8532
 11
14.4379
 21
74.9469
  0
LINE
  8
0
 10
14.4379
 20
74.9469
 11
14.8116
 21
74.9941
  0
LINE
  8
0
 10
14.8116
 20
74.9941
 11
15.1884
 21
74.9941
  0
LINE
  8
0
 10
15.1884
 20
74.9941
 11
15.5621
 21
74.9469
  0
LINE
  8
0
 10
15.5621
 20
74.9469
 11
15.927
 21
74.8532
  0
LINE
  8
0
 10
15.927
 20
74.8532
 11
16.2773
 21
74.7145
  0
LINE
  8
0
 10
16.2773
 20
74.7145
 11
16.6075
 21
74.533
  0
LINE
  8
0
 10
16.6075
 20
74.533
 11
16.9123
 21
74.3115
  0
LINE
  8
0
 10
16.9123
 20
74.3115
 11
17.1869
 21
74.0536
  0
LINE
  8
0
 10
17.1869
 20
74.0536
 11
17.427
 21
73.7634
  0
LINE
  8
0
 10
17.427
 20
73.7634
 11
17.6289
 21
73.4453
  0
LINE
  8
0
 10
17.6289
 20
73.4453
 11
17.7893
 21
73.1044
  0
LINE
  8
0
 10
17.7893
 20
73.1044
 11
17.9057
 21
72.7461
  0
LINE
  8
0
 10
17.9057
 20
72.7461
 11
17.9763
 21
72.376
  0
LINE
  8
0
 10
17.9763
 20
72.376
 11
18
 21
72
  0
LINE
  8
0
 10
18
 20
72
 11
17.9763
 21
71.624
  0
LINE
  8
0
 10
17.9763
 20
71.624
 11
17.9057
 21
71.2539
  0
LINE
  8
0
 10
17.9057
 20
71.2539
 11
17.7893
 21
70.8956
  0
LINE
  8
0
 10
17.7893
 20
70.8956
 11
17.6289
 21
70.5547
  0
LINE
  8
0
 10
17.6289
 20
70.5547
 11
17.427
 21
70.2366
  0
LINE
  8
0
 10
17.427
 20
70.2366
 11
17.1869
 21
69.9464
  0
LINE
  8
0
 10
17.1869
 20
69.9464
 11
16.9123
 21
69.6885
  0
LINE
  8
0
 10
16.9123
 20
69.6885
 11
16.6075
 21
69.467
  0
LINE
  8
0
 10
16.6075
 20
69.467
 11
16.2773
 21
69.2855
  0
LINE
  8
0
 10
16.2773
 20
69.2855
 11
15.927
 21
69.1468
  0
LINE
  8
0
 10
15.927
 20
69.1468
 11
15.5621
 21
69.0531
  0
LINE
  8
0
 10
15.5621
 20
69.0531
 11
15.1884
 21
69.0059
  0
LINE
  8
0
 10
15.1884
 20
69.0059
 11
14.8116
 21
69.0059
  0
LINE
  8
0
 10
-180.188
 20
69.0059
 11
-180.562
 21
69.0531
  0
LINE
  8
0
 10
-180.562
 20
69.0531
 11
-180.927
 21
69.1468
  0
LINE
  8
0
 10
-180.927
 20
69.1468
 11
-181.277
 21
69.2855
  0
LINE
  8
0
 10
-181.277
 20
69.2855
 11
-181.607
 21
69.467
  0
LINE
  8
0
 10
-181.607
 20
69.467
 11
-181.912
 21
69.6885
  0
LINE
  8
0
 10
-181.912
 20
69.6885
 11
-182.187
 21
69.9464
  0
LINE
  8
0
 10
-182.187
 20
69.9464
 11
-182.427
 21
70.2366
  0
LINE
  8
0
 10
-182.427
 20
70.2366
 11
-182.629
 21
70.5547
  0
LINE
  8
0
 10
-182.629
 20
70.5547
 11
-182.789
 21
70.8956
  0
LINE
  8
0
 10
-182.789
 20
70.8956
 11
-182.906
 21
71.2539
  0
LINE
  8
0
 10
-182.906
 20
71.2539
 11
-182.976
 21
71.624
  0
LINE
  8
0
 10
-182.976
 20
71.624
 11
-183
 21
72
  0
LINE
  8
0
 10
-183
 20
72
 11
-182.976
 21
72.376
  0
LINE
  8
0
 10
-182.976
 20
72.376
 11
-182.906
 21
72.7461
  0
LINE
  8
0
 10
-182.906
 20
72.7461
 11
-182.789
 21
73.1044
  0
LINE
  8
0
 10
-182.789
 20
73.1044
 11
-182.629
 21
73.4453
  0
LINE
  8
0
 10
-182.629
 20
73.4453
 11
-182.427
 21
73.7634
  0
LINE
  8
0
 10
-182.427
 20
73.7634
 11
-182.187
 21
74.0536
  0
LINE
  8
0
 10
-182.187
 20
74.0536
 11
-181.912
 21
74.3115
  0
LINE
  8
0
 10
-181.912
 20
74.3115
 11
-181.607
 21
74.533
  0
LINE
  8
0
 10
-181.607
 20
74.533
 11
-181.277
 21
74.7145
  0
LINE
  8
0
 10
-181.277
 20
74.7145
 11
-180.927
 21
74.8532
  0
LINE
  8
0
 10
-180.927
 20
74.8532
 11
-180.562
 21
74.9469
  0
LINE
  8
0
 10
-180.562
 20
74.9469
 11
-180.188
 21
74.9941
  0
LINE
  8
0
 10
-180.188
 20
74.9941
 11
-179.812
 21
74.9941
  0
LINE
  8
0
 10
-179.812
 20
74.9941
 11
-179.438
 21
74.9469
  0
LINE
  8
0
 10
-179.438
 20
74.9469
 11
-179.073
 21
74.8532
  0
LINE
  8
0
 10
-179.073
 20
74.8532
 11
-178.723
 21
74.7145
  0
LINE
  8
0
 10
-178.723
 20
74.7145
 11
-178.393
 21
74.533
  0
LINE
  8
0
 10
-178.393
 20
74.533
 11
-178.088
 21
74.3115
  0
LINE
  8
0
 10
-178.088
 20
74.3115
 11
-177.813
 21
74.0536
  0
LINE
  8
0
 10
-177.813
 20
74.0536
 11
-177.573
 21
73.7634
  0
LINE
  8
0
 10
-177.573
 20
73.7634
 11
-177.371
 21
73.4453
  0
LINE
  8
0
 10
-177.371
 20
73.4453
 11
-177.211
 21
73.1044
  0
LINE
  8
0
 10
-177.211
 20
73.1044
 11
-177.094
 21
72.7461
  0
LINE
  8
0
 10
-177.094
 20
72.7461
 11
-177.024
 21
72.376
  0
LINE
  8
0
 10
-177.024
 20
72.376
 11
-177
 21
72
  0
LINE
  8
0
 10
-177
 20
72
 11
-177.024
 21
71.624
  0
LINE
  8
0
 10
-177.024
 20
71.624
 11
-177.094
 21
71.2539
  0
LINE
  8
0
 10
-177.094
 20
71.2539
 11
-177.211
 21
70.8956
  0
LINE
  8
0
 10
-177.211
 20
70.8956
 11
-177.371
 21
70.5547
  0
LINE
  8
0
 10
-177.371
 20
70.5547
 11
-177.573
 21
70.2366
  0
LINE
  8
0
 10
-177.573
 20
70.2366
 11
-177.813
 21
69.9464
  0
LINE
  8
0
 10
-177.813
 20
69.9464
 11
-178.088
 21
69.6885
  0
LINE
  8
0
 10
-178.088
 20
69.6885
 11
-178.393
 21
69.467
  0
LINE
  8
0
 10
-178.393
 20
69.467
 11
-178.723
 21
69.2855
  0
LINE
  8
0
 10
-178.723
 20
69.2855
 11
-179.073
 21
69.1468
  0
LINE
  8
0
 10
-179.073
 20
69.1468
 11
-179.438
 21
69.0531
  0
LINE
  8
0
 10
-179.438
 20
69.0531
 11
-179.812
 21
69.0059
  0
LINE
  8
0
 10
-179.812
 20
69.0059
 11
-180.188
 21
69.0059
  0
LINE
  8
0
 10
-15.1884
 20
69.0059
 11
-15.5621
 21
69.0531
  0
LINE
  8
0
 10
-15.5621
 20
69.0531
 11
-15.927
 21
69.1468
  0
LINE
  8
0
 10
-15.927
 20
69.1468
 11
-16.2773
 21
69.2855
  0
LINE
  8
0
 10
-16.2773
 20
69.2855
 11
-16.6075
 21
69.467
  0
LINE
  8
0
 10
-16.6075
 20
69.467
 11
-16.9123
 21
69.6885
  0
LINE
  8
0
 10
-16.9123
 20
69.6885
 11
-17.1869
 21
69.9464
  0
LINE
  8
0
 10
-17.1869
 20
69.9464
 11
-17.427
 21
70.2366
  0
LINE
  8
0
 10
-17.427
 20
70.2366
 11
-17.6289
 21
70.5547
  0
LINE
  8
0
 10
-17.6289
 20
70.5547
 11
-17.7893
 21
70.8956
  0
LINE
  8
0
 10
-17.7893
 20
70.8956
 11
-17.9057
 21
71.2539
  0
LINE
  8
0
 10
-17.9057
 20
71.2539
 11
-17.9763
 21
71.624
  0
LINE
  8
0
 10
-17.9763
 20
71.624
 11
-18
 21
72
  0
LINE
  8
0
 10
-18
 20
72
 11
-17.9763
 21
72.376
  0
LINE
  8
0
 10
-17.9763
 20
72.376
 11
-17.9057
 21
72.7461
  0
LINE
  8
0
 10
-17.9057
 20
72.7461
 11
-17.7893
 21
73.1044
  0
LINE
  8
0
 10
-17.7893
 20
73.1044
 11
-17.6289
 21
73.4453
  0
LINE
  8
0
 10
-17.6289
 20
73.4453
 11
-17.427
 21
73.7634
  0
LINE
  8
0
 10
-17.427
 20
73.7634
 11
-17.1869
 21
74.0536
  0
LINE
  8
0
 10
-17.1869
 20
74.0536
 11
-16.9123
 21
74.3115
  0
LINE
  8
0
 10
-16.9123
 20
74.3115
 11
-16.6075
 21
74.533
  0
LINE
  8
0
 10
-16.6075
 20
74.533
 11
-16.2773
 21
74.7145
  0
LINE
  8
0
 10
-16.2773
 20
74.7145
 11
-15.927
 21
74.8532
  0
LINE
  8
0
 10
-15.927
 20
74.8532
 11
-15.5621
 21
74.9469
  0
LINE
  8
0
 10
-15.5621
 20
74.9469
 11
-15.1884
 21
74.9941
  0
LINE
  8
0
 10
-15.1884
 20
74.9941
 11
-14.8116
 21
74.9941
  0
LINE
  8
0
 10
-14.8116
 20
74.9941
 11
-14.4379
 21
74.9469
  0
LINE
  8
0
 10
-14.4379
 20
74.9469
 11
-14.0729
 21
74.8532
  0
LINE
  8
0
 10
-14.0729
 20
74.8532
 11
-13.7227
 21
74.7145
  0
LINE
  8
0
 10
-13.7227
 20
74.7145
 11
-13.3925
 21
74.533
  0
LINE
  8
0
 10
-13.3925
 20
74.533
 11
-13.0877
 21
74.3115
  0
LINE
  8
0
 10
-13.0877
 20
74.3115
 11
-12.8131
 21
74.0536
  0
LINE
  8
0
 10
-12.8131
 20
74.0536
 11
-12.5729
 21
73.7634
  0
LINE
  8
0
 10
-12.5729
 20
73.7634
 11
-12.3711
 21
73.4453
  0
LINE
  8
0
 10
-12.3711
 20
73.4453
 11
-12.2107
 21
73.1044
  0
LINE
  8
0
 10
-12.2107
 20
73.1044
 11
-12.0942
 21
72.7461
  0
LINE
  8
0
 10
-12.0942
 20
72.7461
 11
-12.0237
 21
72.376
  0
LINE
  8
0
 10
-12.0237
 20
72.376
 11
-12
 21
72
  0
LINE
  8
0
 10
-12
 20
72
 11
-12.0237
 21
71.624
  0
LINE
  8
0
 10
-12.0237
 20
71.624
 11
-12.0942
 21
71.2539
  0
LINE
  8
0
 10
-12.0942
 20
71.2539
 11
-12.2107
 21
70.8956
  0
LINE
  8
0
 10
-12.2107
 20
70.8956
 11
-12.3711
 21
70.5547
  0
LINE
  8
0
 10
-12.3711
 20
70.5547
 11
-12.5729
 21
70.2366
  0
LINE
  8
0
 10
-12.5729
 20
70.2366
 11
-12.8131
 21
69.9464
  0
LINE
  8
0
 10
-12.8131
 20
69.9464
 11
-13.0877
 21
69.6885
  0
LINE
  8
0
 10
-13.0877
 20
69.6885
 11
-13.3925
 21
69.467
  0
LINE
  8
0
 10
-13.3925
 20
69.467
 11
-13.7227
 21
69.2855
  0
LINE
  8
0
 10
-13.7227
 20
69.2855
 11
-14.0729
 21
69.1468
  0
LINE
  8
0
 10
-14.0729
 20
69.1468
 11
-14.4379
 21
69.0531
  0
LINE
  8
0
 10
-14.4379
 20
69.0531
 11
-14.8116
 21
69.0059
  0
LINE
  8
0
 10
-14.8116
 20
69.0059
 11
-15.1884
 21
69.0059
  0
LINE
  8
0
 10
-210.188
 20
69.0059
 11
-210.562
 21
69.0531
  0
LINE
  8
0
 10
-210.562
 20
69.0531
 11
-210.927
 21
69.1468
  0
LINE
  8
0
 10
-210.927
 20
69.1468
 11
-211.277
 21
69.2855
  0
LINE
  8
0
 10
-211.277
 20
69.2855
 11
-211.607
 21
69.467
  0
LINE
  8
0
 10
-211.607
 20
69.467
 11
-211.912
 21
69.6885
  0
LINE
  8
0
 10
-211.912
 20
69.6885
 11
-212.187
 21
69.9464
  0
LINE
  8
0
 10
-212.187
 20
69.9464
 11
-212.427
 21
70.2366
  0
LINE
  8
0
 10
-212.427
 20
70.2366
 11
-212.629
 21
70.5547
  0
LINE
  8
0
 10
-212.629
 20
70.5547
 11
-212.789
 21
70.8956
  0
LINE
  8
0
 10
-212.789
 20
70.8956
 11
-212.906
 21
71.2539
  0
LINE
  8
0
 10
-212.906
 20
71.2539
 11
-212.976
 21
71.624
  0
LINE
  8
0
 10
-212.976
 20
71.624
 11
-213
 21
72
  0
LINE
  8
0
 10
-213
 20
72
 11
-212.976
 21
72.376
  0
LINE
  8
0
 10
-212.976
 20
72.376
 11
-212.906
 21
72.7461
  0
LINE
  8
0
 10
-212.906
 20
72.7461
 11
-212.789
 21
73.1044
  0
LINE
  8
0
 10
-212.789
 20
73.1044
 11
-212.629
 21
73.4453
  0
LINE
  8
0
 10
-212.629
 20
73.4453
 11
-212.427
 21
73.7634
  0
LINE
  8
0
 10
-212.427
 20
73.7634
 11
-212.187
 21
74.0536
  0
LINE
  8
0
 10
-212.187
 20
74.0536
 11
-211.912
 21
74.3115
  0
LINE
  8
0
 10
-211.912
 20
74.3115
 11
-211.607
 21
74.533
  0
LINE
  8
0
 10
-211.607
 20
74.533
 11
-211.277
 21
74.7145
  0
LINE
  8
0
 10
-211.277
 20
74.7145
 11
-210.927
 21
74.8532
  0
LINE
  8
0
 10
-210.927
 20
74.8532
 11
-210.562
 21
74.9469
  0
LINE
  8
0
 10
-210.562
 20
74.9469
 11
-210.188
 21
74.9941
  0
LINE
  8
0
 10
-210.188
 20
74.9941
 11
-209.812
 21
74.9941
  0
LINE
  8
0
 10
-209.812
 20
74.9941
 11
-209.438
 21
74.9469
  0
LINE
  8
0
 10
-209.438
 20
74.9469
 11
-209.073
 21
74.8532
  0
LINE
  8
0
 10
-209.073
 20
74.8532
 11
-208.723
 21
74.7145
  0
LINE
  8
0
 10
-208.723
 20
74.7145
 11
-208.393
 21
74.533
  0
LINE
  8
0
 10
-208.393
 20
74.533
 11
-208.088
 21
74.3115
  0
LINE
  8
0
 10
-208.088
 20
74.3115
 11
-207.813
 21
74.0536
  0
LINE
  8
0
 10
-207.813
 20
74.0536
 11
-207.573
 21
73.7634
  0
LINE
  8
0
 10
-207.573
 20
73.7634
 11
-207.371
 21
73.4453
  0
LINE
  8
0
 10
-207.371
 20
73.4453
 11
-207.211
 21
73.1044
  0
LINE
  8
0
 10
-207.211
 20
73.1044
 11
-207.094
 21
72.7461
  0
LINE
  8
0
 10
-207.094
 20
72.7461
 11
-207.024
 21
72.376
  0
LINE
  8
0
 10
-207.024
 20
72.376
 11
-207
 21
72
  0
LINE
  8
0
 10
-207
 20
72
 11
-207.024
 21
71.624
  0
LINE
  8
0
 10
-207.024
 20
71.624
 11
-207.094
 21
71.2539
  0
LINE
  8
0
 10
-207.094
 20
71.2539
 11
-207.211
 21
70.8956
  0
LINE
  8
0
 10
-207.211
 20
70.8956
 11
-207.371
 21
70.5547
  0
LINE
  8
0
 10
-207.371
 20
70.5547
 11
-207.573
 21
70.2366
  0
LINE
  8
0
 10
-207.573
 20
70.2366
 11
-207.813
 21
69.9464
  0
LINE
  8
0
 10
-207.813
 20
69.9464
 11
-208.088
 21
69.6885
  0
LINE
  8
0
 10
-208.088
 20
69.6885
 11
-208.393
 21
69.467
  0
LINE
  8
0
 10
-208.393
 20
69.467
 11
-208.723
 21
69.2855
  0
LINE
  8
0
 10
-208.723
 20
69.2855
 11
-209.073
 21
69.1468
  0
LINE
  8
0
 10
-209.073
 20
69.1468
 11
-209.438
 21
69.0531
  0
LINE
  8
0
 10
-209.438
 20
69.0531
 11
-209.812
 21
69.0059
  0
LINE
  8
0
 10
-209.812
 20
69.0059
 11
-210.188
 21
69.0059
  0
LINE
  8
0
 10
-195.188
 20
69.0059
 11
-195.562
 21
69.0531
  0
LINE
  8
0
 10
-195.562
 20
69.0531
 11
-195.927
 21
69.1468
  0
LINE
  8
0
 10
-195.927
 20
69.1468
 11
-196.277
 21
69.2855
  0
LINE
  8
0
 10
-196.277
 20
69.2855
 11
-196.607
 21
69.467
  0
LINE
  8
0
 10
-196.607
 20
69.467
 11
-196.912
 21
69.6885
  0
LINE
  8
0
 10
-196.912
 20
69.6885
 11
-197.187
 21
69.9464
  0
LINE
  8
0
 10
-197.187
 20
69.9464
 11
-197.427
 21
70.2366
  0
LINE
  8
0
 10
-197.427
 20
70.2366
 11
-197.629
 21
70.5547
  0
LINE
  8
0
 10
-197.629
 20
70.5547
 11
-197.789
 21
70.8956
  0
LINE
  8
0
 10
-197.789
 20
70.8956
 11
-197.906
 21
71.2539
  0
LINE
  8
0
 10
-197.906
 20
71.2539
 11
-197.976
 21
71.624
  0
LINE
  8
0
 10
-197.976
 20
71.624
 11
-198
 21
72
  0
LINE
  8
0
 10
-198
 20
72
 11
-197.976
 21
72.376
  0
LINE
  8
0
 10
-197.976
 20
72.376
 11
-197.906
 21
72.7461
  0
LINE
  8
0
 10
-197.906
 20
72.7461
 11
-197.789
 21
73.1044
  0
LINE
  8
0
 10
-197.789
 20
73.1044
 11
-197.629
 21
73.4453
  0
LINE
  8
0
 10
-197.629
 20
73.4453
 11
-197.427
 21
73.7634
  0
LINE
  8
0
 10
-197.427
 20
73.7634
 11
-197.187
 21
74.0536
  0
LINE
  8
0
 10
-197.187
 20
74.0536
 11
-196.912
 21
74.3115
  0
LINE
  8
0
 10
-196.912
 20
74.3115
 11
-196.607
 21
74.533
  0
LINE
  8
0
 10
-196.607
 20
74.533
 11
-196.277
 21
74.7145
  0
LINE
  8
0
 10
-196.277
 20
74.7145
 11
-195.927
 21
74.8532
  0
LINE
  8
0
 10
-195.927
 20
74.8532
 11
-195.562
 21
74.9469
  0
LINE
  8
0
 10
-195.562
 20
74.9469
 11
-195.188
 21
74.9941
  0
LINE
  8
0
 10
-195.188
 20
74.9941
 11
-194.812
 21
74.9941
  0
LINE
  8
0
 10
-194.812
 20
74.9941
 11
-194.438
 21
74.9469
  0
LINE
  8
0
 10
-194.438
 20
74.9469
 11
-194.073
 21
74.8532
  0
LINE
  8
0
 10
-194.073
 20
74.8532
 11
-193.723
 21
74.7145
  0
LINE
  8
0
 10
-193.723
 20
74.7145
 11
-193.393
 21
74.533
  0
LINE
  8
0
 10
-193.393
 20
74.533
 11
-193.088
 21
74.3115
  0
LINE
  8
0
 10
-193.088
 20
74.3115
 11
-192.813
 21
74.0536
  0
LINE
  8
0
 10
-192.813
 20
74.0536
 11
-192.573
 21
73.7634
  0
LINE
  8
0
 10
-192.573
 20
73.7634
 11
-192.371
 21
73.4453
  0
LINE
  8
0
 10
-192.371
 20
73.4453
 11
-192.211
 21
73.1044
  0
LINE
  8
0
 10
-192.211
 20
73.1044
 11
-192.094
 21
72.7461
  0
LINE
  8
0
 10
-192.094
 20
72.7461
 11
-192.024
 21
72.376
  0
LINE
  8
0
 10
-192.024
 20
72.376
 11
-192
 21
72
  0
LINE
  8
0
 10
-192
 20
72
 11
-192.024
 21
71.624
  0
LINE
  8
0
 10
-192.024
 20
71.624
 11
-192.094
 21
71.2539
  0
LINE
  8
0
 10
-192.094
 20
71.2539
 11
-192.211
 21
70.8956
  0
LINE
  8
0
 10
-192.211
 20
70.8956
 11
-192.371
 21
70.5547
  0
LINE
  8
0
 10
-192.371
 20
70.5547
 11
-192.573
 21
70.2366
  0
LINE
  8
0
 10
-192.573
 20
70.2366
 11
-192.813
 21
69.9464
  0
LINE
  8
0
 10
-192.813
 20
69.9464
 11
-193.088
 21
69.6885
  0
LINE
  8
0
 10
-193.088
 20
69.6885
 11
-193.393
 21
69.467
  0
LINE
  8
0
 10
-193.393
 20
69.467
 11
-193.723
 21
69.2855
  0
LINE
  8
0
 10
-193.723
 20
69.2855
 11
-194.073
 21
69.1468
  0
LINE
  8
0
 10
-194.073
 20
69.1468
 11
-194.438
 21
69.0531
  0
LINE
  8
0
 10
-194.438
 20
69.0531
 11
-194.812
 21
69.0059
  0
LINE
  8
0
 10
-194.812
 20
69.0059
 11
-195.188
 21
69.0059
  0
LINE
  8
0
 10
119.812
 20
69.0059
 11
119.438
 21
69.0531
  0
LINE
  8
0
 10
119.438
 20
69.0531
 11
119.073
 21
69.1468
  0
LINE
  8
0
 10
119.073
 20
69.1468
 11
118.723
 21
69.2855
  0
LINE
  8
0
 10
118.723
 20
69.2855
 11
118.393
 21
69.467
  0
LINE
  8
0
 10
118.393
 20
69.467
 11
118.088
 21
69.6885
  0
LINE
  8
0
 10
118.088
 20
69.6885
 11
117.813
 21
69.9464
  0
LINE
  8
0
 10
117.813
 20
69.9464
 11
117.573
 21
70.2366
  0
LINE
  8
0
 10
117.573
 20
70.2366
 11
117.371
 21
70.5547
  0
LINE
  8
0
 10
117.371
 20
70.5547
 11
117.211
 21
70.8956
  0
LINE
  8
0
 10
117.211
 20
70.8956
 11
117.094
 21
71.2539
  0
LINE
  8
0
 10
117.094
 20
71.2539
 11
117.024
 21
71.624
  0
LINE
  8
0
 10
117.024
 20
71.624
 11
117
 21
72
  0
LINE
  8
0
 10
117
 20
72
 11
117.024
 21
72.376
  0
LINE
  8
0
 10
117.024
 20
72.376
 11
117.094
 21
72.7461
  0
LINE
  8
0
 10
117.094
 20
72.7461
 11
117.211
 21
73.1044
  0
LINE
  8
0
 10
117.211
 20
73.1044
 11
117.371
 21
73.4453
  0
LINE
  8
0
 10
117.371
 20
73.4453
 11
117.573
 21
73.7634
  0
LINE
  8
0
 10
117.573
 20
73.7634
 11
117.813
 21
74.0536
  0
LINE
  8
0
 10
117.813
 20
74.0536
 11
118.088
 21
74.3115
  0
LINE
  8
0
 10
118.088
 20
74.3115
 11
118.393
 21
74.533
  0
LINE
  8
0
 10
118.393
 20
74.533
 11
118.723
 21
74.7145
  0
LINE
  8
0
 10
118.723
 20
74.7145
 11
119.073
 21
74.8532
  0
LINE
  8
0
 10
119.073
 20
74.8532
 11
119.438
 21
74.9469
  0
LINE
  8
0
 10
119.438
 20
74.9469
 11
119.812
 21
74.9941
  0
LINE
  8
0
 10
119.812
 20
74.9941
 11
120.188
 21
74.9941
  0
LINE
  8
0
 10
120.188
 20
74.9941
 11
120.562
 21
74.9469
  0
LINE
  8
0
 10
120.562
 20
74.9469
 11
120.927
 21
74.8532
  0
LINE
  8
0
 10
120.927
 20
74.8532
 11
121.277
 21
74.7145
  0
LINE
  8
0
 10
121.277
 20
74.7145
 11
121.607
 21
74.533
  0
LINE
  8
0
 10
121.607
 20
74.533
 11
121.912
 21
74.3115
  0
LINE
  8
0
 10
121.912
 20
74.3115
 11
122.187
 21
74.0536
  0
LINE
  8
0
 10
122.187
 20
74.0536
 11
122.427
 21
73.7634
  0
LINE
  8
0
 10
122.427
 20
73.7634
 11
122.629
 21
73.4453
  0
LINE
  8
0
 10
122.629
 20
73.4453
 11
122.789
 21
73.1044
  0
LINE
  8
0
 10
122.789
 20
73.1044
 11
122.906
 21
72.7461
  0
LINE
  8
0
 10
122.906
 20
72.7461
 11
122.976
 21
72.376
  0
LINE
  8
0
 10
122.976
 20
72.376
 11
123
 21
72
  0
LINE
  8
0
 10
123
 20
72
 11
122.976
 21
71.624
  0
LINE
  8
0
 10
122.976
 20
71.624
 11
122.906
 21
71.2539
  0
LINE
  8
0
 10
122.906
 20
71.2539
 11
122.789
 21
70.8956
  0
LINE
  8
0
 10
122.789
 20
70.8956
 11
122.629
 21
70.5547
  0
LINE
  8
0
 10
122.629
 20
70.5547
 11
122.427
 21
70.2366
  0
LINE
  8
0
 10
122.427
 20
70.2366
 11
122.187
 21
69.9464
  0
LINE
  8
0
 10
122.187
 20
69.9464
 11
121.912
 21
69.6885
  0
LINE
  8
0
 10
121.912
 20
69.6885
 11
121.607
 21
69.467
  0
LINE
  8
0
 10
121.607
 20
69.467
 11
121.277
 21
69.2855
  0
LINE
  8
0
 10
121.277
 20
69.2855
 11
120.927
 21
69.1468
  0
LINE
  8
0
 10
120.927
 20
69.1468
 11
120.562
 21
69.0531
  0
LINE
  8
0
 10
120.562
 20
69.0531
 11
120.188
 21
69.0059
  0
LINE
  8
0
 10
120.188
 20
69.0059
 11
119.812
 21
69.0059
  0
LINE
  8
0
 10
104.812
 20
69.0059
 11
104.438
 21
69.0531
  0
LINE
  8
0
 10
104.438
 20
69.0531
 11
104.073
 21
69.1468
  0
LINE
  8
0
 10
104.073
 20
69.1468
 11
103.723
 21
69.2855
  0
LINE
  8
0
 10
103.723
 20
69.2855
 11
103.393
 21
69.467
  0
LINE
  8
0
 10
103.393
 20
69.467
 11
103.088
 21
69.6885
  0
LINE
  8
0
 10
103.088
 20
69.6885
 11
102.813
 21
69.9464
  0
LINE
  8
0
 10
102.813
 20
69.9464
 11
102.573
 21
70.2366
  0
LINE
  8
0
 10
102.573
 20
70.2366
 11
102.371
 21
70.5547
  0
LINE
  8
0
 10
102.371
 20
70.5547
 11
102.211
 21
70.8956
  0
LINE
  8
0
 10
102.211
 20
70.8956
 11
102.094
 21
71.2539
  0
LINE
  8
0
 10
102.094
 20
71.2539
 11
102.024
 21
71.624
  0
LINE
  8
0
 10
102.024
 20
71.624
 11
102
 21
72
  0
LINE
  8
0
 10
102
 20
72
 11
102.024
 21
72.376
  0
LINE
  8
0
 10
102.024
 20
72.376
 11
102.094
 21
72.7461
  0
LINE
  8
0
 10
102.094
 20
72.7461
 11
102.211
 21
73.1044
  0
LINE
  8
0
 10
102.211
 20
73.1044
 11
102.371
 21
73.4453
  0
LINE
  8
0
 10
102.371
 20
73.4453
 11
102.573
 21
73.7634
  0
LINE
  8
0
 10
102.573
 20
73.7634
 11
102.813
 21
74.0536
  0
LINE
  8
0
 10
102.813
 20
74.0536
 11
103.088
 21
74.3115
  0
LINE
  8
0
 10
103.088
 20
74.3115
 11
103.393
 21
74.533
  0
LINE
  8
0
 10
103.393
 20
74.533
 11
103.723
 21
74.7145
  0
LINE
  8
0
 10
103.723
 20
74.7145
 11
104.073
 21
74.8532
  0
LINE
  8
0
 10
104.073
 20
74.8532
 11
104.438
 21
74.9469
  0
LINE
  8
0
 10
104.438
 20
74.9469
 11
104.812
 21
74.9941
  0
LINE
  8
0
 10
104.812
 20
74.9941
 11
105.188
 21
74.9941
  0
LINE
  8
0
 10
105.188
 20
74.9941
 11
105.562
 21
74.9469
  0
LINE
  8
0
 10
105.562
 20
74.9469
 11
105.927
 21
74.8532
  0
LINE
  8
0
 10
105.927
 20
74.8532
 11
106.277
 21
74.7145
  0
LINE
  8
0
 10
106.277
 20
74.7145
 11
106.607
 21
74.533
  0
LINE
  8
0
 10
106.607
 20
74.533
 11
106.912
 21
74.3115
  0
LINE
  8
0
 10
106.912
 20
74.3115
 11
107.187
 21
74.0536
  0
LINE
  8
0
 10
107.187
 20
74.0536
 11
107.427
 21
73.7634
  0
LINE
  8
0
 10
107.427
 20
73.7634
 11
107.629
 21
73.4453
  0
LINE
  8
0
 10
107.629
 20
73.4453
 11
107.789
 21
73.1044
  0
LINE
  8
0
 10
107.789
 20
73.1044
 11
107.906
 21
72.7461
  0
LINE
  8
0
 10
107.906
 20
72.7461
 11
107.976
 21
72.376
  0
LINE
  8
0
 10
107.976
 20
72.376
 11
108
 21
72
  0
LINE
  8
0
 10
108
 20
72
 11
107.976
 21
71.624
  0
LINE
  8
0
 10
107.976
 20
71.624
 11
107.906
 21
71.2539
  0
LINE
  8
0
 10
107.906
 20
71.2539
 11
107.789
 21
70.8956
  0
LINE
  8
0
 10
107.789
 20
70.8956
 11
107.629
 21
70.5547
  0
LINE
  8
0
 10
107.629
 20
70.5547
 11
107.427
 21
70.2366
  0
LINE
  8
0
 10
107.427
 20
70.2366
 11
107.187
 21
69.9464
  0
LINE
  8
0
 10
107.187
 20
69.9464
 11
106.912
 21
69.6885
  0
LINE
  8
0
 10
106.912
 20
69.6885
 11
106.607
 21
69.467
  0
LINE
  8
0
 10
106.607
 20
69.467
 11
106.277
 21
69.2855
  0
LINE
  8
0
 10
106.277
 20
69.2855
 11
105.927
 21
69.1468
  0
LINE
  8
0
 10
105.927
 20
69.1468
 11
105.562
 21
69.0531
  0
LINE
  8
0
 10
105.562
 20
69.0531
 11
105.188
 21
69.0059
  0
LINE
  8
0
 10
105.188
 20
69.0059
 11
104.812
 21
69.0059
  0
LINE
  8
0
 10
134.812
 20
69.0059
 11
134.438
 21
69.0531
  0
LINE
  8
0
 10
134.438
 20
69.0531
 11
134.073
 21
69.1468
  0
LINE
  8
0
 10
134.073
 20
69.1468
 11
133.723
 21
69.2855
  0
LINE
  8
0
 10
133.723
 20
69.2855
 11
133.393
 21
69.467
  0
LINE
  8
0
 10
133.393
 20
69.467
 11
133.088
 21
69.6885
  0
LINE
  8
0
 10
133.088
 20
69.6885
 11
132.813
 21
69.9464
  0
LINE
  8
0
 10
132.813
 20
69.9464
 11
132.573
 21
70.2366
  0
LINE
  8
0
 10
132.573
 20
70.2366
 11
132.371
 21
70.5547
  0
LINE
  8
0
 10
132.371
 20
70.5547
 11
132.211
 21
70.8956
  0
LINE
  8
0
 10
132.211
 20
70.8956
 11
132.094
 21
71.2539
  0
LINE
  8
0
 10
132.094
 20
71.2539
 11
132.024
 21
71.624
  0
LINE
  8
0
 10
132.024
 20
71.624
 11
132
 21
72
  0
LINE
  8
0
 10
132
 20
72
 11
132.024
 21
72.376
  0
LINE
  8
0
 10
132.024
 20
72.376
 11
132.094
 21
72.7461
  0
LINE
  8
0
 10
132.094
 20
72.7461
 11
132.211
 21
73.1044
  0
LINE
  8
0
 10
132.211
 20
73.1044
 11
132.371
 21
73.4453
  0
LINE
  8
0
 10
132.371
 20
73.4453
 11
132.573
 21
73.7634
  0
LINE
  8
0
 10
132.573
 20
73.7634
 11
132.813
 21
74.0536
  0
LINE
  8
0
 10
132.813
 20
74.0536
 11
133.088
 21
74.3115
  0
LINE
  8
0
 10
133.088
 20
74.3115
 11
133.393
 21
74.533
  0
LINE
  8
0
 10
133.393
 20
74.533
 11
133.723
 21
74.7145
  0
LINE
  8
0
 10
133.723
 20
74.7145
 11
134.073
 21
74.8532
  0
LINE
  8
0
 10
134.073
 20
74.8532
 11
134.438
 21
74.9469
  0
LINE
  8
0
 10
134.438
 20
74.9469
 11
134.812
 21
74.9941
  0
LINE
  8
0
 10
134.812
 20
74.9941
 11
135.188
 21
74.9941
  0
LINE
  8
0
 10
135.188
 20
74.9941
 11
135.562
 21
74.9469
  0
LINE
  8
0
 10
135.562
 20
74.9469
 11
135.927
 21
74.8532
  0
LINE
  8
0
 10
135.927
 20
74.8532
 11
136.277
 21
74.7145
  0
LINE
  8
0
 10
136.277
 20
74.7145
 11
136.607
 21
74.533
  0
LINE
  8
0
 10
136.607
 20
74.533
 11
136.912
 21
74.3115
  0
LINE
  8
0
 10
136.912
 20
74.3115
 11
137.187
 21
74.0536
  0
LINE
  8
0
 10
137.187
 20
74.0536
 11
137.427
 21
73.7634
  0
LINE
  8
0
 10
137.427
 20
73.7634
 11
137.629
 21
73.4453
  0
LINE
  8
0
 10
137.629
 20
73.4453
 11
137.789
 21
73.1044
  0
LINE
  8
0
 10
137.789
 20
73.1044
 11
137.906
 21
72.7461
  0
LINE
  8
0
 10
137.906
 20
72.7461
 11
137.976
 21
72.376
  0
LINE
  8
0
 10
137.976
 20
72.376
 11
138
 21
72
  0
LINE
  8
0
 10
138
 20
72
 11
137.976
 21
71.624
  0
LINE
  8
0
 10
137.976
 20
71.624
 11
137.906
 21
71.2539
  0
LINE
  8
0
 10
137.906
 20
71.2539
 11
137.789
 21
70.8956
  0
LINE
  8
0
 10
137.789
 20
70.8956
 11
137.629
 21
70.5547
  0
LINE
  8
0
 10
137.629
 20
70.5547
 11
137.427
 21
70.2366
  0
LINE
  8
0
 10
137.427
 20
70.2366
 11
137.187
 21
69.9464
  0
LINE
  8
0
 10
137.187
 20
69.9464
 11
136.912
 21
69.6885
  0
LINE
  8
0
 10
136.912
 20
69.6885
 11
136.607
 21
69.467
  0
LINE
  8
0
 10
136.607
 20
69.467
 11
136.277
 21
69.2855
  0
LINE
  8
0
 10
136.277
 20
69.2855
 11
135.927
 21
69.1468
  0
LINE
  8
0
 10
135.927
 20
69.1468
 11
135.562
 21
69.0531
  0
LINE
  8
0
 10
135.562
 20
69.0531
 11
135.188
 21
69.0059
  0
LINE
  8
0
 10
135.188
 20
69.0059
 11
134.812
 21
69.0059
  0
LINE
  8
0
 10
149.812
 20
69.0059
 11
149.438
 21
69.0531
  0
LINE
  8
0
 10
149.438
 20
69.0531
 11
149.073
 21
69.1468
  0
LINE
  8
0
 10
149.073
 20
69.1468
 11
148.723
 21
69.2855
  0
LINE
  8
0
 10
148.723
 20
69.2855
 11
148.393
 21
69.467
  0
LINE
  8
0
 10
148.393
 20
69.467
 11
148.088
 21
69.6885
  0
LINE
  8
0
 10
148.088
 20
69.6885
 11
147.813
 21
69.9464
  0
LINE
  8
0
 10
147.813
 20
69.9464
 11
147.573
 21
70.2366
  0
LINE
  8
0
 10
147.573
 20
70.2366
 11
147.371
 21
70.5547
  0
LINE
  8
0
 10
147.371
 20
70.5547
 11
147.211
 21
70.8956
  0
LINE
  8
0
 10
147.211
 20
70.8956
 11
147.094
 21
71.2539
  0
LINE
  8
0
 10
147.094
 20
71.2539
 11
147.024
 21
71.624
  0
LINE
  8
0
 10
147.024
 20
71.624
 11
147
 21
72
  0
LINE
  8
0
 10
147
 20
72
 11
147.024
 21
72.376
  0
LINE
  8
0
 10
147.024
 20
72.376
 11
147.094
 21
72.7461
  0
LINE
  8
0
 10
147.094
 20
72.7461
 11
147.211
 21
73.1044
  0
LINE
  8
0
 10
147.211
 20
73.1044
 11
147.371
 21
73.4453
  0
LINE
  8
0
 10
147.371
 20
73.4453
 11
147.573
 21
73.7634
  0
LINE
  8
0
 10
147.573
 20
73.7634
 11
147.813
 21
74.0536
  0
LINE
  8
0
 10
147.813
 20
74.0536
 11
148.088
 21
74.3115
  0
LINE
  8
0
 10
148.088
 20
74.3115
 11
148.393
 21
74.533
  0
LINE
  8
0
 10
148.393
 20
74.533
 11
148.723
 21
74.7145
  0
LINE
  8
0
 10
148.723
 20
74.7145
 11
149.073
 21
74.8532
  0
LINE
  8
0
 10
149.073
 20
74.8532
 11
149.438
 21
74.9469
  0
LINE
  8
0
 10
149.438
 20
74.9469
 11
149.812
 21
74.9941
  0
LINE
  8
0
 10
149.812
 20
74.9941
 11
150.188
 21
74.9941
  0
LINE
  8
0
 10
150.188
 20
74.9941
 11
150.562
 21
74.9469
  0
LINE
  8
0
 10
150.562
 20
74.9469
 11
150.927
 21
74.8532
  0
LINE
  8
0
 10
150.927
 20
74.8532
 11
151.277
 21
74.7145
  0
LINE
  8
0
 10
151.277
 20
74.7145
 11
151.607
 21
74.533
  0
LINE
  8
0
 10
151.607
 20
74.533
 11
151.912
 21
74.3115
  0
LINE
  8
0
 10
151.912
 20
74.3115
 11
152.187
 21
74.0536
  0
LINE
  8
0
 10
152.187
 20
74.0536
 11
152.427
 21
73.7634
  0
LINE
  8
0
 10
152.427
 20
73.7634
 11
152.629
 21
73.4453
  0
LINE
  8
0
 10
152.629
 20
73.4453
 11
152.789
 21
73.1044
  0
LINE
  8
0
 10
152.789
 20
73.1044
 11
152.906
 21
72.7461
  0
LINE
  8
0
 10
152.906
 20
72.7461
 11
152.976
 21
72.376
  0
LINE
  8
0
 10
152.976
 20
72.376
 11
153
 21
72
  0
LINE
  8
0
 10
153
 20
72
 11
152.976
 21
71.624
  0
LINE
  8
0
 10
152.976
 20
71.624
 11
152.906
 21
71.2539
  0
LINE
  8
0
 10
152.906
 20
71.2539
 11
152.789
 21
70.8956
  0
LINE
  8
0
 10
152.789
 20
70.8956
 11
152.629
 21
70.5547
  0
LINE
  8
0
 10
152.629
 20
70.5547
 11
152.427
 21
70.2366
  0
LINE
  8
0
 10
152.427
 20
70.2366
 11
152.187
 21
69.9464
  0
LINE
  8
0
 10
152.187
 20
69.9464
 11
151.912
 21
69.6885
  0
LINE
  8
0
 10
151.912
 20
69.6885
 11
151.607
 21
69.467
  0
LINE
  8
0
 10
151.607
 20
69.467
 11
151.277
 21
69.2855
  0
LINE
  8
0
 10
151.277
 20
69.2855
 11
150.927
 21
69.1468
  0
LINE
  8
0
 10
150.927
 20
69.1468
 11
150.562
 21
69.0531
  0
LINE
  8
0
 10
150.562
 20
69.0531
 11
150.188
 21
69.0059
  0
LINE
  8
0
 10
150.188
 20
69.0059
 11
149.812
 21
69.0059
  0
LINE
  8
0
 10
74.8116
 20
69.0059
 11
74.4379
 21
69.0531
  0
LINE
  8
0
 10
74.4379
 20
69.0531
 11
74.073
 21
69.1468
  0
LINE
  8
0
 10
74.073
 20
69.1468
 11
73.7227
 21
69.2855
  0
LINE
  8
0
 10
73.7227
 20
69.2855
 11
73.3925
 21
69.467
  0
LINE
  8
0
 10
73.3925
 20
69.467
 11
73.0877
 21
69.6885
  0
LINE
  8
0
 10
73.0877
 20
69.6885
 11
72.8131
 21
69.9464
  0
LINE
  8
0
 10
72.8131
 20
69.9464
 11
72.573
 21
70.2366
  0
LINE
  8
0
 10
72.573
 20
70.2366
 11
72.3711
 21
70.5547
  0
LINE
  8
0
 10
72.3711
 20
70.5547
 11
72.2107
 21
70.8956
  0
LINE
  8
0
 10
72.2107
 20
70.8956
 11
72.0943
 21
71.2539
  0
LINE
  8
0
 10
72.0943
 20
71.2539
 11
72.0237
 21
71.624
  0
LINE
  8
0
 10
72.0237
 20
71.624
 11
72
 21
72
  0
LINE
  8
0
 10
72
 20
72
 11
72.0237
 21
72.376
  0
LINE
  8
0
 10
72.0237
 20
72.376
 11
72.0943
 21
72.7461
  0
LINE
  8
0
 10
72.0943
 20
72.7461
 11
72.2107
 21
73.1044
  0
LINE
  8
0
 10
72.2107
 20
73.1044
 11
72.3711
 21
73.4453
  0
LINE
  8
0
 10
72.3711
 20
73.4453
 11
72.573
 21
73.7634
  0
LINE
  8
0
 10
72.573
 20
73.7634
 11
72.8131
 21
74.0536
  0
LINE
  8
0
 10
72.8131
 20
74.0536
 11
73.0877
 21
74.3115
  0
LINE
  8
0
 10
73.0877
 20
74.3115
 11
73.3925
 21
74.533
  0
LINE
  8
0
 10
73.3925
 20
74.533
 11
73.7227
 21
74.7145
  0
LINE
  8
0
 10
73.7227
 20
74.7145
 11
74.073
 21
74.8532
  0
LINE
  8
0
 10
74.073
 20
74.8532
 11
74.4379
 21
74.9469
  0
LINE
  8
0
 10
74.4379
 20
74.9469
 11
74.8116
 21
74.9941
  0
LINE
  8
0
 10
74.8116
 20
74.9941
 11
75.1884
 21
74.9941
  0
LINE
  8
0
 10
75.1884
 20
74.9941
 11
75.5621
 21
74.9469
  0
LINE
  8
0
 10
75.5621
 20
74.9469
 11
75.927
 21
74.8532
  0
LINE
  8
0
 10
75.927
 20
74.8532
 11
76.2773
 21
74.7145
  0
LINE
  8
0
 10
76.2773
 20
74.7145
 11
76.6075
 21
74.533
  0
LINE
  8
0
 10
76.6075
 20
74.533
 11
76.9123
 21
74.3115
  0
LINE
  8
0
 10
76.9123
 20
74.3115
 11
77.1869
 21
74.0536
  0
LINE
  8
0
 10
77.1869
 20
74.0536
 11
77.427
 21
73.7634
  0
LINE
  8
0
 10
77.427
 20
73.7634
 11
77.6289
 21
73.4453
  0
LINE
  8
0
 10
77.6289
 20
73.4453
 11
77.7893
 21
73.1044
  0
LINE
  8
0
 10
77.7893
 20
73.1044
 11
77.9057
 21
72.7461
  0
LINE
  8
0
 10
77.9057
 20
72.7461
 11
77.9763
 21
72.376
  0
LINE
  8
0
 10
77.9763
 20
72.376
 11
78
 21
72
  0
LINE
  8
0
 10
78
 20
72
 11
77.9763
 21
71.624
  0
LINE
  8
0
 10
77.9763
 20
71.624
 11
77.9057
 21
71.2539
  0
LINE
  8
0
 10
77.9057
 20
71.2539
 11
77.7893
 21
70.8956
  0
LINE
  8
0
 10
77.7893
 20
70.8956
 11
77.6289
 21
70.5547
  0
LINE
  8
0
 10
77.6289
 20
70.5547
 11
77.427
 21
70.2366
  0
LINE
  8
0
 10
77.427
 20
70.2366
 11
77.1869
 21
69.9464
  0
LINE
  8
0
 10
77.1869
 20
69.9464
 11
76.9123
 21
69.6885
  0
LINE
  8
0
 10
76.9123
 20
69.6885
 11
76.6075
 21
69.467
  0
LINE
  8
0
 10
76.6075
 20
69.467
 11
76.2773
 21
69.2855
  0
LINE
  8
0
 10
76.2773
 20
69.2855
 11
75.927
 21
69.1468
  0
LINE
  8
0
 10
75.927
 20
69.1468
 11
75.5621
 21
69.0531
  0
LINE
  8
0
 10
75.5621
 20
69.0531
 11
75.1884
 21
69.0059
  0
LINE
  8
0
 10
75.1884
 20
69.0059
 11
74.8116
 21
69.0059
  0
LINE
  8
0
 10
-60.1884
 20
69.0059
 11
-60.5621
 21
69.0531
  0
LINE
  8
0
 10
-60.5621
 20
69.0531
 11
-60.927
 21
69.1468
  0
LINE
  8
0
 10
-60.927
 20
69.1468
 11
-61.2773
 21
69.2855
  0
LINE
  8
0
 10
-61.2773
 20
69.2855
 11
-61.6075
 21
69.467
  0
LINE
  8
0
 10
-61.6075
 20
69.467
 11
-61.9123
 21
69.6885
  0
LINE
  8
0
 10
-61.9123
 20
69.6885
 11
-62.1869
 21
69.9464
  0
LINE
  8
0
 10
-62.1869
 20
69.9464
 11
-62.427
 21
70.2366
  0
LINE
  8
0
 10
-62.427
 20
70.2366
 11
-62.6289
 21
70.5547
  0
LINE
  8
0
 10
-62.6289
 20
70.5547
 11
-62.7893
 21
70.8956
  0
LINE
  8
0
 10
-62.7893
 20
70.8956
 11
-62.9057
 21
71.2539
  0
LINE
  8
0
 10
-62.9057
 20
71.2539
 11
-62.9763
 21
71.624
  0
LINE
  8
0
 10
-62.9763
 20
71.624
 11
-63
 21
72
  0
LINE
  8
0
 10
-63
 20
72
 11
-62.9763
 21
72.376
  0
LINE
  8
0
 10
-62.9763
 20
72.376
 11
-62.9057
 21
72.7461
  0
LINE
  8
0
 10
-62.9057
 20
72.7461
 11
-62.7893
 21
73.1044
  0
LINE
  8
0
 10
-62.7893
 20
73.1044
 11
-62.6289
 21
73.4453
  0
LINE
  8
0
 10
-62.6289
 20
73.4453
 11
-62.427
 21
73.7634
  0
LINE
  8
0
 10
-62.427
 20
73.7634
 11
-62.1869
 21
74.0536
  0
LINE
  8
0
 10
-62.1869
 20
74.0536
 11
-61.9123
 21
74.3115
  0
LINE
  8
0
 10
-61.9123
 20
74.3115
 11
-61.6075
 21
74.533
  0
LINE
  8
0
 10
-61.6075
 20
74.533
 11
-61.2773
 21
74.7145
  0
LINE
  8
0
 10
-61.2773
 20
74.7145
 11
-60.927
 21
74.8532
  0
LINE
  8
0
 10
-60.927
 20
74.8532
 11
-60.5621
 21
74.9469
  0
LINE
  8
0
 10
-60.5621
 20
74.9469
 11
-60.1884
 21
74.9941
  0
LINE
  8
0
 10
-60.1884
 20
74.9941
 11
-59.8116
 21
74.9941
  0
LINE
  8
0
 10
-59.8116
 20
74.9941
 11
-59.4379
 21
74.9469
  0
LINE
  8
0
 10
-59.4379
 20
74.9469
 11
-59.0729
 21
74.8532
  0
LINE
  8
0
 10
-59.0729
 20
74.8532
 11
-58.7227
 21
74.7145
  0
LINE
  8
0
 10
-58.7227
 20
74.7145
 11
-58.3925
 21
74.533
  0
LINE
  8
0
 10
-58.3925
 20
74.533
 11
-58.0877
 21
74.3115
  0
LINE
  8
0
 10
-58.0877
 20
74.3115
 11
-57.8131
 21
74.0536
  0
LINE
  8
0
 10
-57.8131
 20
74.0536
 11
-57.5729
 21
73.7634
  0
LINE
  8
0
 10
-57.5729
 20
73.7634
 11
-57.3711
 21
73.4453
  0
LINE
  8
0
 10
-57.3711
 20
73.4453
 11
-57.2107
 21
73.1044
  0
LINE
  8
0
 10
-57.2107
 20
73.1044
 11
-57.0942
 21
72.7461
  0
LINE
  8
0
 10
-57.0942
 20
72.7461
 11
-57.0237
 21
72.376
  0
LINE
  8
0
 10
-57.0237
 20
72.376
 11
-57
 21
72
  0
LINE
  8
0
 10
-57
 20
72
 11
-57.0237
 21
71.624
  0
LINE
  8
0
 10
-57.0237
 20
71.624
 11
-57.0942
 21
71.2539
  0
LINE
  8
0
 10
-57.0942
 20
71.2539
 11
-57.2107
 21
70.8956
  0
LINE
  8
0
 10
-57.2107
 20
70.8956
 11
-57.3711
 21
70.5547
  0
LINE
  8
0
 10
-57.3711
 20
70.5547
 11
-57.5729
 21
70.2366
  0
LINE
  8
0
 10
-57.5729
 20
70.2366
 11
-57.8131
 21
69.9464
  0
LINE
  8
0
 10
-57.8131
 20
69.9464
 11
-58.0877
 21
69.6885
  0
LINE
  8
0
 10
-58.0877
 20
69.6885
 11
-58.3925
 21
69.467
  0
LINE
  8
0
 10
-58.3925
 20
69.467
 11
-58.7227
 21
69.2855
  0
LINE
  8
0
 10
-58.7227
 20
69.2855
 11
-59.0729
 21
69.1468
  0
LINE
  8
0
 10
-59.0729
 20
69.1468
 11
-59.4379
 21
69.0531
  0
LINE
  8
0
 10
-59.4379
 20
69.0531
 11
-59.8116
 21
69.0059
  0
LINE
  8
0
 10
-59.8116
 20
69.0059
 11
-60.1884
 21
69.0059
  0
LINE
  8
0
 10
-135.188
 20
69.0059
 11
-135.562
 21
69.0531
  0
LINE
  8
0
 10
-135.562
 20
69.0531
 11
-135.927
 21
69.1468
  0
LINE
  8
0
 10
-135.927
 20
69.1468
 11
-136.277
 21
69.2855
  0
LINE
  8
0
 10
-136.277
 20
69.2855
 11
-136.607
 21
69.467
  0
LINE
  8
0
 10
-136.607
 20
69.467
 11
-136.912
 21
69.6885
  0
LINE
  8
0
 10
-136.912
 20
69.6885
 11
-137.187
 21
69.9464
  0
LINE
  8
0
 10
-137.187
 20
69.9464
 11
-137.427
 21
70.2366
  0
LINE
  8
0
 10
-137.427
 20
70.2366
 11
-137.629
 21
70.5547
  0
LINE
  8
0
 10
-137.629
 20
70.5547
 11
-137.789
 21
70.8956
  0
LINE
  8
0
 10
-137.789
 20
70.8956
 11
-137.906
 21
71.2539
  0
LINE
  8
0
 10
-137.906
 20
71.2539
 11
-137.976
 21
71.624
  0
LINE
  8
0
 10
-137.976
 20
71.624
 11
-138
 21
72
  0
LINE
  8
0
 10
-138
 20
72
 11
-137.976
 21
72.376
  0
LINE
  8
0
 10
-137.976
 20
72.376
 11
-137.906
 21
72.7461
  0
LINE
  8
0
 10
-137.906
 20
72.7461
 11
-137.789
 21
73.1044
  0
LINE
  8
0
 10
-137.789
 20
73.1044
 11
-137.629
 21
73.4453
  0
LINE
  8
0
 10
-137.629
 20
73.4453
 11
-137.427
 21
73.7634
  0
LINE
  8
0
 10
-137.427
 20
73.7634
 11
-137.187
 21
74.0536
  0
LINE
  8
0
 10
-137.187
 20
74.0536
 11
-136.912
 21
74.3115
  0
LINE
  8
0
 10
-136.912
 20
74.3115
 11
-136.607
 21
74.533
  0
LINE
  8
0
 10
-136.607
 20
74.533
 11
-136.277
 21
74.7145
  0
LINE
  8
0
 10
-136.277
 20
74.7145
 11
-135.927
 21
74.8532
  0
LINE
  8
0
 10
-135.927
 20
74.8532
 11
-135.562
 21
74.9469
  0
LINE
  8
0
 10
-135.562
 20
74.9469
 11
-135.188
 21
74.9941
  0
LINE
  8
0
 10
-135.188
 20
74.9941
 11
-134.812
 21
74.9941
  0
LINE
  8
0
 10
-134.812
 20
74.9941
 11
-134.438
 21
74.9469
  0
LINE
  8
0
 10
-134.438
 20
74.9469
 11
-134.073
 21
74.8532
  0
LINE
  8
0
 10
-134.073
 20
74.8532
 11
-133.723
 21
74.7145
  0
LINE
  8
0
 10
-133.723
 20
74.7145
 11
-133.393
 21
74.533
  0
LINE
  8
0
 10
-133.393
 20
74.533
 11
-133.088
 21
74.3115
  0
LINE
  8
0
 10
-133.088
 20
74.3115
 11
-132.813
 21
74.0536
  0
LINE
  8
0
 10
-132.813
 20
74.0536
 11
-132.573
 21
73.7634
  0
LINE
  8
0
 10
-132.573
 20
73.7634
 11
-132.371
 21
73.4453
  0
LINE
  8
0
 10
-132.371
 20
73.4453
 11
-132.211
 21
73.1044
  0
LINE
  8
0
 10
-132.211
 20
73.1044
 11
-132.094
 21
72.7461
  0
LINE
  8
0
 10
-132.094
 20
72.7461
 11
-132.024
 21
72.376
  0
LINE
  8
0
 10
-132.024
 20
72.376
 11
-132
 21
72
  0
LINE
  8
0
 10
-132
 20
72
 11
-132.024
 21
71.624
  0
LINE
  8
0
 10
-132.024
 20
71.624
 11
-132.094
 21
71.2539
  0
LINE
  8
0
 10
-132.094
 20
71.2539
 11
-132.211
 21
70.8956
  0
LINE
  8
0
 10
-132.211
 20
70.8956
 11
-132.371
 21
70.5547
  0
LINE
  8
0
 10
-132.371
 20
70.5547
 11
-132.573
 21
70.2366
  0
LINE
  8
0
 10
-132.573
 20
70.2366
 11
-132.813
 21
69.9464
  0
LINE
  8
0
 10
-132.813
 20
69.9464
 11
-133.088
 21
69.6885
  0
LINE
  8
0
 10
-133.088
 20
69.6885
 11
-133.393
 21
69.467
  0
LINE
  8
0
 10
-133.393
 20
69.467
 11
-133.723
 21
69.2855
  0
LINE
  8
0
 10
-133.723
 20
69.2855
 11
-134.073
 21
69.1468
  0
LINE
  8
0
 10
-134.073
 20
69.1468
 11
-134.438
 21
69.0531
  0
LINE
  8
0
 10
-134.438
 20
69.0531
 11
-134.812
 21
69.0059
  0
LINE
  8
0
 10
-134.812
 20
69.0059
 11
-135.188
 21
69.0059
  0
LINE
  8
0
 10
29.8116
 20
69.0059
 11
29.4379
 21
69.0531
  0
LINE
  8
0
 10
29.4379
 20
69.0531
 11
29.0729
 21
69.1468
  0
LINE
  8
0
 10
29.0729
 20
69.1468
 11
28.7227
 21
69.2855
  0
LINE
  8
0
 10
28.7227
 20
69.2855
 11
28.3925
 21
69.467
  0
LINE
  8
0
 10
28.3925
 20
69.467
 11
28.0877
 21
69.6885
  0
LINE
  8
0
 10
28.0877
 20
69.6885
 11
27.8131
 21
69.9464
  0
LINE
  8
0
 10
27.8131
 20
69.9464
 11
27.5729
 21
70.2366
  0
LINE
  8
0
 10
27.5729
 20
70.2366
 11
27.3711
 21
70.5547
  0
LINE
  8
0
 10
27.3711
 20
70.5547
 11
27.2107
 21
70.8956
  0
LINE
  8
0
 10
27.2107
 20
70.8956
 11
27.0942
 21
71.2539
  0
LINE
  8
0
 10
27.0942
 20
71.2539
 11
27.0237
 21
71.624
  0
LINE
  8
0
 10
27.0237
 20
71.624
 11
27
 21
72
  0
LINE
  8
0
 10
27
 20
72
 11
27.0237
 21
72.376
  0
LINE
  8
0
 10
27.0237
 20
72.376
 11
27.0942
 21
72.7461
  0
LINE
  8
0
 10
27.0942
 20
72.7461
 11
27.2107
 21
73.1044
  0
LINE
  8
0
 10
27.2107
 20
73.1044
 11
27.3711
 21
73.4453
  0
LINE
  8
0
 10
27.3711
 20
73.4453
 11
27.5729
 21
73.7634
  0
LINE
  8
0
 10
27.5729
 20
73.7634
 11
27.8131
 21
74.0536
  0
LINE
  8
0
 10
27.8131
 20
74.0536
 11
28.0877
 21
74.3115
  0
LINE
  8
0
 10
28.0877
 20
74.3115
 11
28.3925
 21
74.533
  0
LINE
  8
0
 10
28.3925
 20
74.533
 11
28.7227
 21
74.7145
  0
LINE
  8
0
 10
28.7227
 20
74.7145
 11
29.0729
 21
74.8532
  0
LINE
  8
0
 10
29.0729
 20
74.8532
 11
29.4379
 21
74.9469
  0
LINE
  8
0
 10
29.4379
 20
74.9469
 11
29.8116
 21
74.9941
  0
LINE
  8
0
 10
29.8116
 20
74.9941
 11
30.1884
 21
74.9941
  0
LINE
  8
0
 10
30.1884
 20
74.9941
 11
30.5621
 21
74.9469
  0
LINE
  8
0
 10
30.5621
 20
74.9469
 11
30.927
 21
74.8532
  0
LINE
  8
0
 10
30.927
 20
74.8532
 11
31.2773
 21
74.7145
  0
LINE
  8
0
 10
31.2773
 20
74.7145
 11
31.6075
 21
74.533
  0
LINE
  8
0
 10
31.6075
 20
74.533
 11
31.9123
 21
74.3115
  0
LINE
  8
0
 10
31.9123
 20
74.3115
 11
32.1869
 21
74.0536
  0
LINE
  8
0
 10
32.1869
 20
74.0536
 11
32.427
 21
73.7634
  0
LINE
  8
0
 10
32.427
 20
73.7634
 11
32.6289
 21
73.4453
  0
LINE
  8
0
 10
32.6289
 20
73.4453
 11
32.7893
 21
73.1044
  0
LINE
  8
0
 10
32.7893
 20
73.1044
 11
32.9057
 21
72.7461
  0
LINE
  8
0
 10
32.9057
 20
72.7461
 11
32.9763
 21
72.376
  0
LINE
  8
0
 10
32.9763
 20
72.376
 11
33
 21
72
  0
LINE
  8
0
 10
33
 20
72
 11
32.9763
 21
71.624
  0
LINE
  8
0
 10
32.9763
 20
71.624
 11
32.9057
 21
71.2539
  0
LINE
  8
0
 10
32.9057
 20
71.2539
 11
32.7893
 21
70.8956
  0
LINE
  8
0
 10
32.7893
 20
70.8956
 11
32.6289
 21
70.5547
  0
LINE
  8
0
 10
32.6289
 20
70.5547
 11
32.427
 21
70.2366
  0
LINE
  8
0
 10
32.427
 20
70.2366
 11
32.1869
 21
69.9464
  0
LINE
  8
0
 10
32.1869
 20
69.9464
 11
31.9123
 21
69.6885
  0
LINE
  8
0
 10
31.9123
 20
69.6885
 11
31.6075
 21
69.467
  0
LINE
  8
0
 10
31.6075
 20
69.467
 11
31.2773
 21
69.2855
  0
LINE
  8
0
 10
31.2773
 20
69.2855
 11
30.927
 21
69.1468
  0
LINE
  8
0
 10
30.927
 20
69.1468
 11
30.5621
 21
69.0531
  0
LINE
  8
0
 10
30.5621
 20
69.0531
 11
30.1884
 21
69.0059
  0
LINE
  8
0
 10
30.1884
 20
69.0059
 11
29.8116
 21
69.0059
  0
LINE
  8
0
 10
-75.1884
 20
69.0059
 11
-75.5621
 21
69.0531
  0
LINE
  8
0
 10
-75.5621
 20
69.0531
 11
-75.927
 21
69.1468
  0
LINE
  8
0
 10
-75.927
 20
69.1468
 11
-76.2773
 21
69.2855
  0
LINE
  8
0
 10
-76.2773
 20
69.2855
 11
-76.6075
 21
69.467
  0
LINE
  8
0
 10
-76.6075
 20
69.467
 11
-76.9123
 21
69.6885
  0
LINE
  8
0
 10
-76.9123
 20
69.6885
 11
-77.1869
 21
69.9464
  0
LINE
  8
0
 10
-77.1869
 20
69.9464
 11
-77.427
 21
70.2366
  0
LINE
  8
0
 10
-77.427
 20
70.2366
 11
-77.6289
 21
70.5547
  0
LINE
  8
0
 10
-77.6289
 20
70.5547
 11
-77.7893
 21
70.8956
  0
LINE
  8
0
 10
-77.7893
 20
70.8956
 11
-77.9057
 21
71.2539
  0
LINE
  8
0
 10
-77.9057
 20
71.2539
 11
-77.9763
 21
71.624
  0
LINE
  8
0
 10
-77.9763
 20
71.624
 11
-78
 21
72
  0
LINE
  8
0
 10
-78
 20
72
 11
-77.9763
 21
72.376
  0
LINE
  8
0
 10
-77.9763
 20
72.376
 11
-77.9057
 21
72.7461
  0
LINE
  8
0
 10
-77.9057
 20
72.7461
 11
-77.7893
 21
73.1044
  0
LINE
  8
0
 10
-77.7893
 20
73.1044
 11
-77.6289
 21
73.4453
  0
LINE
  8
0
 10
-77.6289
 20
73.4453
 11
-77.427
 21
73.7634
  0
LINE
  8
0
 10
-77.427
 20
73.7634
 11
-77.1869
 21
74.0536
  0
LINE
  8
0
 10
-77.1869
 20
74.0536
 11
-76.9123
 21
74.3115
  0
LINE
  8
0
 10
-76.9123
 20
74.3115
 11
-76.6075
 21
74.533
  0
LINE
  8
0
 10
-76.6075
 20
74.533
 11
-76.2773
 21
74.7145
  0
LINE
  8
0
 10
-76.2773
 20
74.7145
 11
-75.927
 21
74.8532
  0
LINE
  8
0
 10
-75.927
 20
74.8532
 11
-75.5621
 21
74.9469
  0
LINE
  8
0
 10
-75.5621
 20
74.9469
 11
-75.1884
 21
74.9941
  0
LINE
  8
0
 10
-75.1884
 20
74.9941
 11
-74.8116
 21
74.9941
  0
LINE
  8
0
 10
-74.8116
 20
74.9941
 11
-74.4379
 21
74.9469
  0
LINE
  8
0
 10
-74.4379
 20
74.9469
 11
-74.073
 21
74.8532
  0
LINE
  8
0
 10
-74.073
 20
74.8532
 11
-73.7227
 21
74.7145
  0
LINE
  8
0
 10
-73.7227
 20
74.7145
 11
-73.3925
 21
74.533
  0
LINE
  8
0
 10
-73.3925
 20
74.533
 11
-73.0877
 21
74.3115
  0
LINE
  8
0
 10
-73.0877
 20
74.3115
 11
-72.8131
 21
74.0536
  0
LINE
  8
0
 10
-72.8131
 20
74.0536
 11
-72.573
 21
73.7634
  0
LINE
  8
0
 10
-72.573
 20
73.7634
 11
-72.3711
 21
73.4453
  0
LINE
  8
0
 10
-72.3711
 20
73.4453
 11
-72.2107
 21
73.1044
  0
LINE
  8
0
 10
-72.2107
 20
73.1044
 11
-72.0943
 21
72.7461
  0
LINE
  8
0
 10
-72.0943
 20
72.7461
 11
-72.0237
 21
72.376
  0
LINE
  8
0
 10
-72.0237
 20
72.376
 11
-72
 21
72
  0
LINE
  8
0
 10
-72
 20
72
 11
-72.0237
 21
71.624
  0
LINE
  8
0
 10
-72.0237
 20
71.624
 11
-72.0943
 21
71.2539
  0
LINE
  8
0
 10
-72.0943
 20
71.2539
 11
-72.2107
 21
70.8956
  0
LINE
  8
0
 10
-72.2107
 20
70.8956
 11
-72.3711
 21
70.5547
  0
LINE
  8
0
 10
-72.3711
 20
70.5547
 11
-72.573
 21
70.2366
  0
LINE
  8
0
 10
-72.573
 20
70.2366
 11
-72.8131
 21
69.9464
  0
LINE
  8
0
 10
-72.8131
 20
69.9464
 11
-73.0877
 21
69.6885
  0
LINE
  8
0
 10
-73.0877
 20
69.6885
 11
-73.3925
 21
69.467
  0
LINE
  8
0
 10
-73.3925
 20
69.467
 11
-73.7227
 21
69.2855
  0
LINE
  8
0
 10
-73.7227
 20
69.2855
 11
-74.073
 21
69.1468
  0
LINE
  8
0
 10
-74.073
 20
69.1468
 11
-74.4379
 21
69.0531
  0
LINE
  8
0
 10
-74.4379
 20
69.0531
 11
-74.8116
 21
69.0059
  0
LINE
  8
0
 10
-74.8116
 20
69.0059
 11
-75.1884
 21
69.0059
  0
LINE
  8
0
 10
-45.1884
 20
69.0059
 11
-45.5621
 21
69.0531
  0
LINE
  8
0
 10
-45.5621
 20
69.0531
 11
-45.927
 21
69.1468
  0
LINE
  8
0
 10
-45.927
 20
69.1468
 11
-46.2773
 21
69.2855
  0
LINE
  8
0
 10
-46.2773
 20
69.2855
 11
-46.6075
 21
69.467
  0
LINE
  8
0
 10
-46.6075
 20
69.467
 11
-46.9123
 21
69.6885
  0
LINE
  8
0
 10
-46.9123
 20
69.6885
 11
-47.1869
 21
69.9464
  0
LINE
  8
0
 10
-47.1869
 20
69.9464
 11
-47.427
 21
70.2366
  0
LINE
  8
0
 10
-47.427
 20
70.2366
 11
-47.6289
 21
70.5547
  0
LINE
  8
0
 10
-47.6289
 20
70.5547
 11
-47.7893
 21
70.8956
  0
LINE
  8
0
 10
-47.7893
 20
70.8956
 11
-47.9057
 21
71.2539
  0
LINE
  8
0
 10
-47.9057
 20
71.2539
 11
-47.9763
 21
71.624
  0
LINE
  8
0
 10
-47.9763
 20
71.624
 11
-48
 21
72
  0
LINE
  8
0
 10
-48
 20
72
 11
-47.9763
 21
72.376
  0
LINE
  8
0
 10
-47.9763
 20
72.376
 11
-47.9057
 21
72.7461
  0
LINE
  8
0
 10
-47.9057
 20
72.7461
 11
-47.7893
 21
73.1044
  0
LINE
  8
0
 10
-47.7893
 20
73.1044
 11
-47.6289
 21
73.4453
  0
LINE
  8
0
 10
-47.6289
 20
73.4453
 11
-47.427
 21
73.7634
  0
LINE
  8
0
 10
-47.427
 20
73.7634
 11
-47.1869
 21
74.0536
  0
LINE
  8
0
 10
-47.1869
 20
74.0536
 11
-46.9123
 21
74.3115
  0
LINE
  8
0
 10
-46.9123
 20
74.3115
 11
-46.6075
 21
74.533
  0
LINE
  8
0
 10
-46.6075
 20
74.533
 11
-46.2773
 21
74.7145
  0
LINE
  8
0
 10
-46.2773
 20
74.7145
 11
-45.927
 21
74.8532
  0
LINE
  8
0
 10
-45.927
 20
74.8532
 11
-45.5621
 21
74.9469
  0
LINE
  8
0
 10
-45.5621
 20
74.9469
 11
-45.1884
 21
74.9941
  0
LINE
  8
0
 10
-45.1884
 20
74.9941
 11
-44.8116
 21
74.9941
  0
LINE
  8
0
 10
-44.8116
 20
74.9941
 11
-44.4379
 21
74.9469
  0
LINE
  8
0
 10
-44.4379
 20
74.9469
 11
-44.0729
 21
74.8532
  0
LINE
  8
0
 10
-44.0729
 20
74.8532
 11
-43.7227
 21
74.7145
  0
LINE
  8
0
 10
-43.7227
 20
74.7145
 11
-43.3925
 21
74.533
  0
LINE
  8
0
 10
-43.3925
 20
74.533
 11
-43.0877
 21
74.3115
  0
LINE
  8
0
 10
-43.0877
 20
74.3115
 11
-42.8131
 21
74.0536
  0
LINE
  8
0
 10
-42.8131
 20
74.0536
 11
-42.5729
 21
73.7634
  0
LINE
  8
0
 10
-42.5729
 20
73.7634
 11
-42.3711
 21
73.4453
  0
LINE
  8
0
 10
-42.3711
 20
73.4453
 11
-42.2107
 21
73.1044
  0
LINE
  8
0
 10
-42.2107
 20
73.1044
 11
-42.0942
 21
72.7461
  0
LINE
  8
0
 10
-42.0942
 20
72.7461
 11
-42.0237
 21
72.376
  0
LINE
  8
0
 10
-42.0237
 20
72.376
 11
-42
 21
72
  0
LINE
  8
0
 10
-42
 20
72
 11
-42.0237
 21
71.624
  0
LINE
  8
0
 10
-42.0237
 20
71.624
 11
-42.0942
 21
71.2539
  0
LINE
  8
0
 10
-42.0942
 20
71.2539
 11
-42.2107
 21
70.8956
  0
LINE
  8
0
 10
-42.2107
 20
70.8956
 11
-42.3711
 21
70.5547
  0
LINE
  8
0
 10
-42.3711
 20
70.5547
 11
-42.5729
 21
70.2366
  0
LINE
  8
0
 10
-42.5729
 20
70.2366
 11
-42.8131
 21
69.9464
  0
LINE
  8
0
 10
-42.8131
 20
69.9464
 11
-43.0877
 21
69.6885
  0
LINE
  8
0
 10
-43.0877
 20
69.6885
 11
-43.3925
 21
69.467
  0
LINE
  8
0
 10
-43.3925
 20
69.467
 11
-43.7227
 21
69.2855
  0
LINE
  8
0
 10
-43.7227
 20
69.2855
 11
-44.0729
 21
69.1468
  0
LINE
  8
0
 10
-44.0729
 20
69.1468
 11
-44.4379
 21
69.0531
  0
LINE
  8
0
 10
-44.4379
 20
69.0531
 11
-44.8116
 21
69.0059
  0
LINE
  8
0
 10
-44.8116
 20
69.0059
 11
-45.1884
 21
69.0059
  0
LINE
  8
0
 10
194.812
 20
69.0059
 11
194.438
 21
69.0531
  0
LINE
  8
0
 10
194.438
 20
69.0531
 11
194.073
 21
69.1468
  0
LINE
  8
0
 10
194.073
 20
69.1468
 11
193.723
 21
69.2855
  0
LINE
  8
0
 10
193.723
 20
69.2855
 11
193.393
 21
69.467
  0
LINE
  8
0
 10
193.393
 20
69.467
 11
193.088
 21
69.6885
  0
LINE
  8
0
 10
193.088
 20
69.6885
 11
192.813
 21
69.9464
  0
LINE
  8
0
 10
192.813
 20
69.9464
 11
192.573
 21
70.2366
  0
LINE
  8
0
 10
192.573
 20
70.2366
 11
192.371
 21
70.5547
  0
LINE
  8
0
 10
192.371
 20
70.5547
 11
192.211
 21
70.8956
  0
LINE
  8
0
 10
192.211
 20
70.8956
 11
192.094
 21
71.2539
  0
LINE
  8
0
 10
192.094
 20
71.2539
 11
192.024
 21
71.624
  0
LINE
  8
0
 10
192.024
 20
71.624
 11
192
 21
72
  0
LINE
  8
0
 10
192
 20
72
 11
192.024
 21
72.376
  0
LINE
  8
0
 10
192.024
 20
72.376
 11
192.094
 21
72.7461
  0
LINE
  8
0
 10
192.094
 20
72.7461
 11
192.211
 21
73.1044
  0
LINE
  8
0
 10
192.211
 20
73.1044
 11
192.371
 21
73.4453
  0
LINE
  8
0
 10
192.371
 20
73.4453
 11
192.573
 21
73.7634
  0
LINE
  8
0
 10
192.573
 20
73.7634
 11
192.813
 21
74.0536
  0
LINE
  8
0
 10
192.813
 20
74.0536
 11
193.088
 21
74.3115
  0
LINE
  8
0
 10
193.088
 20
74.3115
 11
193.393
 21
74.533
  0
LINE
  8
0
 10
193.393
 20
74.533
 11
193.723
 21
74.7145
  0
LINE
  8
0
 10
193.723
 20
74.7145
 11
194.073
 21
74.8532
  0
LINE
  8
0
 10
194.073
 20
74.8532
 11
194.438
 21
74.9469
  0
LINE
  8
0
 10
194.438
 20
74.9469
 11
194.812
 21
74.9941
  0
LINE
  8
0
 10
194.812
 20
74.9941
 11
195.188
 21
74.9941
  0
LINE
  8
0
 10
195.188
 20
74.9941
 11
195.562
 21
74.9469
  0
LINE
  8
0
 10
195.562
 20
74.9469
 11
195.927
 21
74.8532
  0
LINE
  8
0
 10
195.927
 20
74.8532
 11
196.277
 21
74.7145
  0
LINE
  8
0
 10
196.277
 20
74.7145
 11
196.607
 21
74.533
  0
LINE
  8
0
 10
196.607
 20
74.533
 11
196.912
 21
74.3115
  0
LINE
  8
0
 10
196.912
 20
74.3115
 11
197.187
 21
74.0536
  0
LINE
  8
0
 10
197.187
 20
74.0536
 11
197.427
 21
73.7634
  0
LINE
  8
0
 10
197.427
 20
73.7634
 11
197.629
 21
73.4453
  0
LINE
  8
0
 10
197.629
 20
73.4453
 11
197.789
 21
73.1044
  0
LINE
  8
0
 10
197.789
 20
73.1044
 11
197.906
 21
72.7461
  0
LINE
  8
0
 10
197.906
 20
72.7461
 11
197.976
 21
72.376
  0
LINE
  8
0
 10
197.976
 20
72.376
 11
198
 21
72
  0
LINE
  8
0
 10
198
 20
72
 11
197.976
 21
71.624
  0
LINE
  8
0
 10
197.976
 20
71.624
 11
197.906
 21
71.2539
  0
LINE
  8
0
 10
197.906
 20
71.2539
 11
197.789
 21
70.8956
  0
LINE
  8
0
 10
197.789
 20
70.8956
 11
197.629
 21
70.5547
  0
LINE
  8
0
 10
197.629
 20
70.5547
 11
197.427
 21
70.2366
  0
LINE
  8
0
 10
197.427
 20
70.2366
 11
197.187
 21
69.9464
  0
LINE
  8
0
 10
197.187
 20
69.9464
 11
196.912
 21
69.6885
  0
LINE
  8
0
 10
196.912
 20
69.6885
 11
196.607
 21
69.467
  0
LINE
  8
0
 10
196.607
 20
69.467
 11
196.277
 21
69.2855
  0
LINE
  8
0
 10
196.277
 20
69.2855
 11
195.927
 21
69.1468
  0
LINE
  8
0
 10
195.927
 20
69.1468
 11
195.562
 21
69.0531
  0
LINE
  8
0
 10
195.562
 20
69.0531
 11
195.188
 21
69.0059
  0
LINE
  8
0
 10
195.188
 20
69.0059
 11
194.812
 21
69.0059
  0
LINE
  8
0
 10
164.812
 20
69.0059
 11
164.438
 21
69.0531
  0
LINE
  8
0
 10
164.438
 20
69.0531
 11
164.073
 21
69.1468
  0
LINE
  8
0
 10
164.073
 20
69.1468
 11
163.723
 21
69.2855
  0
LINE
  8
0
 10
163.723
 20
69.2855
 11
163.393
 21
69.467
  0
LINE
  8
0
 10
163.393
 20
69.467
 11
163.088
 21
69.6885
  0
LINE
  8
0
 10
163.088
 20
69.6885
 11
162.813
 21
69.9464
  0
LINE
  8
0
 10
162.813
 20
69.9464
 11
162.573
 21
70.2366
  0
LINE
  8
0
 10
162.573
 20
70.2366
 11
162.371
 21
70.5547
  0
LINE
  8
0
 10
162.371
 20
70.5547
 11
162.211
 21
70.8956
  0
LINE
  8
0
 10
162.211
 20
70.8956
 11
162.094
 21
71.2539
  0
LINE
  8
0
 10
162.094
 20
71.2539
 11
162.024
 21
71.624
  0
LINE
  8
0
 10
162.024
 20
71.624
 11
162
 21
72
  0
LINE
  8
0
 10
162
 20
72
 11
162.024
 21
72.376
  0
LINE
  8
0
 10
162.024
 20
72.376
 11
162.094
 21
72.7461
  0
LINE
  8
0
 10
162.094
 20
72.7461
 11
162.211
 21
73.1044
  0
LINE
  8
0
 10
162.211
 20
73.1044
 11
162.371
 21
73.4453
  0
LINE
  8
0
 10
162.371
 20
73.4453
 11
162.573
 21
73.7634
  0
LINE
  8
0
 10
162.573
 20
73.7634
 11
162.813
 21
74.0536
  0
LINE
  8
0
 10
162.813
 20
74.0536
 11
163.088
 21
74.3115
  0
LINE
  8
0
 10
163.088
 20
74.3115
 11
163.393
 21
74.533
  0
LINE
  8
0
 10
163.393
 20
74.533
 11
163.723
 21
74.7145
  0
LINE
  8
0
 10
163.723
 20
74.7145
 11
164.073
 21
74.8532
  0
LINE
  8
0
 10
164.073
 20
74.8532
 11
164.438
 21
74.9469
  0
LINE
  8
0
 10
164.438
 20
74.9469
 11
164.812
 21
74.9941
  0
LINE
  8
0
 10
164.812
 20
74.9941
 11
165.188
 21
74.9941
  0
LINE
  8
0
 10
165.188
 20
74.9941
 11
165.562
 21
74.9469
  0
LINE
  8
0
 10
165.562
 20
74.9469
 11
165.927
 21
74.8532
  0
LINE
  8
0
 10
165.927
 20
74.8532
 11
166.277
 21
74.7145
  0
LINE
  8
0
 10
166.277
 20
74.7145
 11
166.607
 21
74.533
  0
LINE
  8
0
 10
166.607
 20
74.533
 11
166.912
 21
74.3115
  0
LINE
  8
0
 10
166.912
 20
74.3115
 11
167.187
 21
74.0536
  0
LINE
  8
0
 10
167.187
 20
74.0536
 11
167.427
 21
73.7634
  0
LINE
  8
0
 10
167.427
 20
73.7634
 11
167.629
 21
73.4453
  0
LINE
  8
0
 10
167.629
 20
73.4453
 11
167.789
 21
73.1044
  0
LINE
  8
0
 10
167.789
 20
73.1044
 11
167.906
 21
72.7461
  0
LINE
  8
0
 10
167.906
 20
72.7461
 11
167.976
 21
72.376
  0
LINE
  8
0
 10
167.976
 20
72.376
 11
168
 21
72
  0
LINE
  8
0
 10
168
 20
72
 11
167.976
 21
71.624
  0
LINE
  8
0
 10
167.976
 20
71.624
 11
167.906
 21
71.2539
  0
LINE
  8
0
 10
167.906
 20
71.2539
 11
167.789
 21
70.8956
  0
LINE
  8
0
 10
167.789
 20
70.8956
 11
167.629
 21
70.5547
  0
LINE
  8
0
 10
167.629
 20
70.5547
 11
167.427
 21
70.2366
  0
LINE
  8
0
 10
167.427
 20
70.2366
 11
167.187
 21
69.9464
  0
LINE
  8
0
 10
167.187
 20
69.9464
 11
166.912
 21
69.6885
  0
LINE
  8
0
 10
166.912
 20
69.6885
 11
166.607
 21
69.467
  0
LINE
  8
0
 10
166.607
 20
69.467
 11
166.277
 21
69.2855
  0
LINE
  8
0
 10
166.277
 20
69.2855
 11
165.927
 21
69.1468
  0
LINE
  8
0
 10
165.927
 20
69.1468
 11
165.562
 21
69.0531
  0
LINE
  8
0
 10
165.562
 20
69.0531
 11
165.188
 21
69.0059
  0
LINE
  8
0
 10
165.188
 20
69.0059
 11
164.812
 21
69.0059
  0
LINE
  8
0
 10
-90.1884
 20
69.0059
 11
-90.5621
 21
69.0531
  0
LINE
  8
0
 10
-90.5621
 20
69.0531
 11
-90.927
 21
69.1468
  0
LINE
  8
0
 10
-90.927
 20
69.1468
 11
-91.2773
 21
69.2855
  0
LINE
  8
0
 10
-91.2773
 20
69.2855
 11
-91.6075
 21
69.467
  0
LINE
  8
0
 10
-91.6075
 20
69.467
 11
-91.9123
 21
69.6885
  0
LINE
  8
0
 10
-91.9123
 20
69.6885
 11
-92.1869
 21
69.9464
  0
LINE
  8
0
 10
-92.1869
 20
69.9464
 11
-92.427
 21
70.2366
  0
LINE
  8
0
 10
-92.427
 20
70.2366
 11
-92.6289
 21
70.5547
  0
LINE
  8
0
 10
-92.6289
 20
70.5547
 11
-92.7893
 21
70.8956
  0
LINE
  8
0
 10
-92.7893
 20
70.8956
 11
-92.9057
 21
71.2539
  0
LINE
  8
0
 10
-92.9057
 20
71.2539
 11
-92.9763
 21
71.624
  0
LINE
  8
0
 10
-92.9763
 20
71.624
 11
-93
 21
72
  0
LINE
  8
0
 10
-93
 20
72
 11
-92.9763
 21
72.376
  0
LINE
  8
0
 10
-92.9763
 20
72.376
 11
-92.9057
 21
72.7461
  0
LINE
  8
0
 10
-92.9057
 20
72.7461
 11
-92.7893
 21
73.1044
  0
LINE
  8
0
 10
-92.7893
 20
73.1044
 11
-92.6289
 21
73.4453
  0
LINE
  8
0
 10
-92.6289
 20
73.4453
 11
-92.427
 21
73.7634
  0
LINE
  8
0
 10
-92.427
 20
73.7634
 11
-92.1869
 21
74.0536
  0
LINE
  8
0
 10
-92.1869
 20
74.0536
 11
-91.9123
 21
74.3115
  0
LINE
  8
0
 10
-91.9123
 20
74.3115
 11
-91.6075
 21
74.533
  0
LINE
  8
0
 10
-91.6075
 20
74.533
 11
-91.2773
 21
74.7145
  0
LINE
  8
0
 10
-91.2773
 20
74.7145
 11
-90.927
 21
74.8532
  0
LINE
  8
0
 10
-90.927
 20
74.8532
 11
-90.5621
 21
74.9469
  0
LINE
  8
0
 10
-90.5621
 20
74.9469
 11
-90.1884
 21
74.9941
  0
LINE
  8
0
 10
-90.1884
 20
74.9941
 11
-89.8116
 21
74.9941
  0
LINE
  8
0
 10
-89.8116
 20
74.9941
 11
-89.4379
 21
74.9469
  0
LINE
  8
0
 10
-89.4379
 20
74.9469
 11
-89.073
 21
74.8532
  0
LINE
  8
0
 10
-89.073
 20
74.8532
 11
-88.7227
 21
74.7145
  0
LINE
  8
0
 10
-88.7227
 20
74.7145
 11
-88.3925
 21
74.533
  0
LINE
  8
0
 10
-88.3925
 20
74.533
 11
-88.0877
 21
74.3115
  0
LINE
  8
0
 10
-88.0877
 20
74.3115
 11
-87.8131
 21
74.0536
  0
LINE
  8
0
 10
-87.8131
 20
74.0536
 11
-87.573
 21
73.7634
  0
LINE
  8
0
 10
-87.573
 20
73.7634
 11
-87.3711
 21
73.4453
  0
LINE
  8
0
 10
-87.3711
 20
73.4453
 11
-87.2107
 21
73.1044
  0
LINE
  8
0
 10
-87.2107
 20
73.1044
 11
-87.0943
 21
72.7461
  0
LINE
  8
0
 10
-87.0943
 20
72.7461
 11
-87.0237
 21
72.376
  0
LINE
  8
0
 10
-87.0237
 20
72.376
 11
-87
 21
72
  0
LINE
  8
0
 10
-87
 20
72
 11
-87.0237
 21
71.624
  0
LINE
  8
0
 10
-87.0237
 20
71.624
 11
-87.0943
 21
71.2539
  0
LINE
  8
0
 10
-87.0943
 20
71.2539
 11
-87.2107
 21
70.8956
  0
LINE
  8
0
 10
-87.2107
 20
70.8956
 11
-87.3711
 21
70.5547
  0
LINE
  8
0
 10
-87.3711
 20
70.5547
 11
-87.573
 21
70.2366
  0
LINE
  8
0
 10
-87.573
 20
70.2366
 11
-87.8131
 21
69.9464
  0
LINE
  8
0
 10
-87.8131
 20
69.9464
 11
-88.0877
 21
69.6885
  0
LINE
  8
0
 10
-88.0877
 20
69.6885
 11
-88.3925
 21
69.467
  0
LINE
  8
0
 10
-88.3925
 20
69.467
 11
-88.7227
 21
69.2855
  0
LINE
  8
0
 10
-88.7227
 20
69.2855
 11
-89.073
 21
69.1468
  0
LINE
  8
0
 10
-89.073
 20
69.1468
 11
-89.4379
 21
69.0531
  0
LINE
  8
0
 10
-89.4379
 20
69.0531
 11
-89.8116
 21
69.0059
  0
LINE
  8
0
 10
-89.8116
 20
69.0059
 11
-90.1884
 21
69.0059
  0
LINE
  8
0
 10
44.8116
 20
69.0059
 11
44.4379
 21
69.0531
  0
LINE
  8
0
 10
44.4379
 20
69.0531
 11
44.0729
 21
69.1468
  0
LINE
  8
0
 10
44.0729
 20
69.1468
 11
43.7227
 21
69.2855
  0
LINE
  8
0
 10
43.7227
 20
69.2855
 11
43.3925
 21
69.467
  0
LINE
  8
0
 10
43.3925
 20
69.467
 11
43.0877
 21
69.6885
  0
LINE
  8
0
 10
43.0877
 20
69.6885
 11
42.8131
 21
69.9464
  0
LINE
  8
0
 10
42.8131
 20
69.9464
 11
42.5729
 21
70.2366
  0
LINE
  8
0
 10
42.5729
 20
70.2366
 11
42.3711
 21
70.5547
  0
LINE
  8
0
 10
42.3711
 20
70.5547
 11
42.2107
 21
70.8956
  0
LINE
  8
0
 10
42.2107
 20
70.8956
 11
42.0942
 21
71.2539
  0
LINE
  8
0
 10
42.0942
 20
71.2539
 11
42.0237
 21
71.624
  0
LINE
  8
0
 10
42.0237
 20
71.624
 11
42
 21
72
  0
LINE
  8
0
 10
42
 20
72
 11
42.0237
 21
72.376
  0
LINE
  8
0
 10
42.0237
 20
72.376
 11
42.0942
 21
72.7461
  0
LINE
  8
0
 10
42.0942
 20
72.7461
 11
42.2107
 21
73.1044
  0
LINE
  8
0
 10
42.2107
 20
73.1044
 11
42.3711
 21
73.4453
  0
LINE
  8
0
 10
42.3711
 20
73.4453
 11
42.5729
 21
73.7634
  0
LINE
  8
0
 10
42.5729
 20
73.7634
 11
42.8131
 21
74.0536
  0
LINE
  8
0
 10
42.8131
 20
74.0536
 11
43.0877
 21
74.3115
  0
LINE
  8
0
 10
43.0877
 20
74.3115
 11
43.3925
 21
74.533
  0
LINE
  8
0
 10
43.3925
 20
74.533
 11
43.7227
 21
74.7145
  0
LINE
  8
0
 10
43.7227
 20
74.7145
 11
44.0729
 21
74.8532
  0
LINE
  8
0
 10
44.0729
 20
74.8532
 11
44.4379
 21
74.9469
  0
LINE
  8
0
 10
44.4379
 20
74.9469
 11
44.8116
 21
74.9941
  0
LINE
  8
0
 10
44.8116
 20
74.9941
 11
45.1884
 21
74.9941
  0
LINE
  8
0
 10
45.1884
 20
74.9941
 11
45.5621
 21
74.9469
  0
LINE
  8
0
 10
45.5621
 20
74.9469
 11
45.927
 21
74.8532
  0
LINE
  8
0
 10
45.927
 20
74.8532
 11
46.2773
 21
74.7145
  0
LINE
  8
0
 10
46.2773
 20
74.7145
 11
46.6075
 21
74.533
  0
LINE
  8
0
 10
46.6075
 20
74.533
 11
46.9123
 21
74.3115
  0
LINE
  8
0
 10
46.9123
 20
74.3115
 11
47.1869
 21
74.0536
  0
LINE
  8
0
 10
47.1869
 20
74.0536
 11
47.427
 21
73.7634
  0
LINE
  8
0
 10
47.427
 20
73.7634
 11
47.6289
 21
73.4453
  0
LINE
  8
0
 10
47.6289
 20
73.4453
 11
47.7893
 21
73.1044
  0
LINE
  8
0
 10
47.7893
 20
73.1044
 11
47.9057
 21
72.7461
  0
LINE
  8
0
 10
47.9057
 20
72.7461
 11
47.9763
 21
72.376
  0
LINE
  8
0
 10
47.9763
 20
72.376
 11
48
 21
72
  0
LINE
  8
0
 10
48
 20
72
 11
47.9763
 21
71.624
  0
LINE
  8
0
 10
47.9763
 20
71.624
 11
47.9057
 21
71.2539
  0
LINE
  8
0
 10
47.9057
 20
71.2539
 11
47.7893
 21
70.8956
  0
LINE
  8
0
 10
47.7893
 20
70.8956
 11
47.6289
 21
70.5547
  0
LINE
  8
0
 10
47.6289
 20
70.5547
 11
47.427
 21
70.2366
  0
LINE
  8
0
 10
47.427
 20
70.2366
 11
47.1869
 21
69.9464
  0
LINE
  8
0
 10
47.1869
 20
69.9464
 11
46.9123
 21
69.6885
  0
LINE
  8
0
 10
46.9123
 20
69.6885
 11
46.6075
 21
69.467
  0
LINE
  8
0
 10
46.6075
 20
69.467
 11
46.2773
 21
69.2855
  0
LINE
  8
0
 10
46.2773
 20
69.2855
 11
45.927
 21
69.1468
  0
LINE
  8
0
 10
45.927
 20
69.1468
 11
45.5621
 21
69.0531
  0
LINE
  8
0
 10
45.5621
 20
69.0531
 11
45.1884
 21
69.0059
  0
LINE
  8
0
 10
45.1884
 20
69.0059
 11
44.8116
 21
69.0059
  0
LINE
  8
0
 10
-120.188
 20
69.0059
 11
-120.562
 21
69.0531
  0
LINE
  8
0
 10
-120.562
 20
69.0531
 11
-120.927
 21
69.1468
  0
LINE
  8
0
 10
-120.927
 20
69.1468
 11
-121.277
 21
69.2855
  0
LINE
  8
0
 10
-121.277
 20
69.2855
 11
-121.607
 21
69.467
  0
LINE
  8
0
 10
-121.607
 20
69.467
 11
-121.912
 21
69.6885
  0
LINE
  8
0
 10
-121.912
 20
69.6885
 11
-122.187
 21
69.9464
  0
LINE
  8
0
 10
-122.187
 20
69.9464
 11
-122.427
 21
70.2366
  0
LINE
  8
0
 10
-122.427
 20
70.2366
 11
-122.629
 21
70.5547
  0
LINE
  8
0
 10
-122.629
 20
70.5547
 11
-122.789
 21
70.8956
  0
LINE
  8
0
 10
-122.789
 20
70.8956
 11
-122.906
 21
71.2539
  0
LINE
  8
0
 10
-122.906
 20
71.2539
 11
-122.976
 21
71.624
  0
LINE
  8
0
 10
-122.976
 20
71.624
 11
-123
 21
72
  0
LINE
  8
0
 10
-123
 20
72
 11
-122.976
 21
72.376
  0
LINE
  8
0
 10
-122.976
 20
72.376
 11
-122.906
 21
72.7461
  0
LINE
  8
0
 10
-122.906
 20
72.7461
 11
-122.789
 21
73.1044
  0
LINE
  8
0
 10
-122.789
 20
73.1044
 11
-122.629
 21
73.4453
  0
LINE
  8
0
 10
-122.629
 20
73.4453
 11
-122.427
 21
73.7634
  0
LINE
  8
0
 10
-122.427
 20
73.7634
 11
-122.187
 21
74.0536
  0
LINE
  8
0
 10
-122.187
 20
74.0536
 11
-121.912
 21
74.3115
  0
LINE
  8
0
 10
-121.912
 20
74.3115
 11
-121.607
 21
74.533
  0
LINE
  8
0
 10
-121.607
 20
74.533
 11
-121.277
 21
74.7145
  0
LINE
  8
0
 10
-121.277
 20
74.7145
 11
-120.927
 21
74.8532
  0
LINE
  8
0
 10
-120.927
 20
74.8532
 11
-120.562
 21
74.9469
  0
LINE
  8
0
 10
-120.562
 20
74.9469
 11
-120.188
 21
74.9941
  0
LINE
  8
0
 10
-120.188
 20
74.9941
 11
-119.812
 21
74.9941
  0
LINE
  8
0
 10
-119.812
 20
74.9941
 11
-119.438
 21
74.9469
  0
LINE
  8
0
 10
-119.438
 20
74.9469
 11
-119.073
 21
74.8532
  0
LINE
  8
0
 10
-119.073
 20
74.8532
 11
-118.723
 21
74.7145
  0
LINE
  8
0
 10
-118.723
 20
74.7145
 11
-118.393
 21
74.533
  0
LINE
  8
0
 10
-118.393
 20
74.533
 11
-118.088
 21
74.3115
  0
LINE
  8
0
 10
-118.088
 20
74.3115
 11
-117.813
 21
74.0536
  0
LINE
  8
0
 10
-117.813
 20
74.0536
 11
-117.573
 21
73.7634
  0
LINE
  8
0
 10
-117.573
 20
73.7634
 11
-117.371
 21
73.4453
  0
LINE
  8
0
 10
-117.371
 20
73.4453
 11
-117.211
 21
73.1044
  0
LINE
  8
0
 10
-117.211
 20
73.1044
 11
-117.094
 21
72.7461
  0
LINE
  8
0
 10
-117.094
 20
72.7461
 11
-117.024
 21
72.376
  0
LINE
  8
0
 10
-117.024
 20
72.376
 11
-117
 21
72
  0
LINE
  8
0
 10
-117
 20
72
 11
-117.024
 21
71.624
  0
LINE
  8
0
 10
-117.024
 20
71.624
 11
-117.094
 21
71.2539
  0
LINE
  8
0
 10
-117.094
 20
71.2539
 11
-117.211
 21
70.8956
  0
LINE
  8
0
 10
-117.211
 20
70.8956
 11
-117.371
 21
70.5547
  0
LINE
  8
0
 10
-117.371
 20
70.5547
 11
-117.573
 21
70.2366
  0
LINE
  8
0
 10
-117.573
 20
70.2366
 11
-117.813
 21
69.9464
  0
LINE
  8
0
 10
-117.813
 20
69.9464
 11
-118.088
 21
69.6885
  0
LINE
  8
0
 10
-118.088
 20
69.6885
 11
-118.393
 21
69.467
  0
LINE
  8
0
 10
-118.393
 20
69.467
 11
-118.723
 21
69.2855
  0
LINE
  8
0
 10
-118.723
 20
69.2855
 11
-119.073
 21
69.1468
  0
LINE
  8
0
 10
-119.073
 20
69.1468
 11
-119.438
 21
69.0531
  0
LINE
  8
0
 10
-119.438
 20
69.0531
 11
-119.812
 21
69.0059
  0
LINE
  8
0
 10
-119.812
 20
69.0059
 11
-120.188
 21
69.0059
  0
LINE
  8
0
 10
59.8116
 20
69.0059
 11
59.4379
 21
69.0531
  0
LINE
  8
0
 10
59.4379
 20
69.0531
 11
59.0729
 21
69.1468
  0
LINE
  8
0
 10
59.0729
 20
69.1468
 11
58.7227
 21
69.2855
  0
LINE
  8
0
 10
58.7227
 20
69.2855
 11
58.3925
 21
69.467
  0
LINE
  8
0
 10
58.3925
 20
69.467
 11
58.0877
 21
69.6885
  0
LINE
  8
0
 10
58.0877
 20
69.6885
 11
57.8131
 21
69.9464
  0
LINE
  8
0
 10
57.8131
 20
69.9464
 11
57.5729
 21
70.2366
  0
LINE
  8
0
 10
57.5729
 20
70.2366
 11
57.3711
 21
70.5547
  0
LINE
  8
0
 10
57.3711
 20
70.5547
 11
57.2107
 21
70.8956
  0
LINE
  8
0
 10
57.2107
 20
70.8956
 11
57.0942
 21
71.2539
  0
LINE
  8
0
 10
57.0942
 20
71.2539
 11
57.0237
 21
71.624
  0
LINE
  8
0
 10
57.0237
 20
71.624
 11
57
 21
72
  0
LINE
  8
0
 10
57
 20
72
 11
57.0237
 21
72.376
  0
LINE
  8
0
 10
57.0237
 20
72.376
 11
57.0942
 21
72.7461
  0
LINE
  8
0
 10
57.0942
 20
72.7461
 11
57.2107
 21
73.1044
  0
LINE
  8
0
 10
57.2107
 20
73.1044
 11
57.3711
 21
73.4453
  0
LINE
  8
0
 10
57.3711
 20
73.4453
 11
57.5729
 21
73.7634
  0
LINE
  8
0
 10
57.5729
 20
73.7634
 11
57.8131
 21
74.0536
  0
LINE
  8
0
 10
57.8131
 20
74.0536
 11
58.0877
 21
74.3115
  0
LINE
  8
0
 10
58.0877
 20
74.3115
 11
58.3925
 21
74.533
  0
LINE
  8
0
 10
58.3925
 20
74.533
 11
58.7227
 21
74.7145
  0
LINE
  8
0
 10
58.7227
 20
74.7145
 11
59.0729
 21
74.8532
  0
LINE
  8
0
 10
59.0729
 20
74.8532
 11
59.4379
 21
74.9469
  0
LINE
  8
0
 10
59.4379
 20
74.9469
 11
59.8116
 21
74.9941
  0
LINE
  8
0
 10
59.8116
 20
74.9941
 11
60.1884
 21
74.9941
  0
LINE
  8
0
 10
60.1884
 20
74.9941
 11
60.5621
 21
74.9469
  0
LINE
  8
0
 10
60.5621
 20
74.9469
 11
60.927
 21
74.8532
  0
LINE
  8
0
 10
60.927
 20
74.8532
 11
61.2773
 21
74.7145
  0
LINE
  8
0
 10
61.2773
 20
74.7145
 11
61.6075
 21
74.533
  0
LINE
  8
0
 10
61.6075
 20
74.533
 11
61.9123
 21
74.3115
  0
LINE
  8
0
 10
61.9123
 20
74.3115
 11
62.1869
 21
74.0536
  0
LINE
  8
0
 10
62.1869
 20
74.0536
 11
62.427
 21
73.7634
  0
LINE
  8
0
 10
62.427
 20
73.7634
 11
62.6289
 21
73.4453
  0
LINE
  8
0
 10
62.6289
 20
73.4453
 11
62.7893
 21
73.1044
  0
LINE
  8
0
 10
62.7893
 20
73.1044
 11
62.9057
 21
72.7461
  0
LINE
  8
0
 10
62.9057
 20
72.7461
 11
62.9763
 21
72.376
  0
LINE
  8
0
 10
62.9763
 20
72.376
 11
63
 21
72
  0
LINE
  8
0
 10
63
 20
72
 11
62.9763
 21
71.624
  0
LINE
  8
0
 10
62.9763
 20
71.624
 11
62.9057
 21
71.2539
  0
LINE
  8
0
 10
62.9057
 20
71.2539
 11
62.7893
 21
70.8956
  0
LINE
  8
0
 10
62.7893
 20
70.8956
 11
62.6289
 21
70.5547
  0
LINE
  8
0
 10
62.6289
 20
70.5547
 11
62.427
 21
70.2366
  0
LINE
  8
0
 10
62.427
 20
70.2366
 11
62.1869
 21
69.9464
  0
LINE
  8
0
 10
62.1869
 20
69.9464
 11
61.9123
 21
69.6885
  0
LINE
  8
0
 10
61.9123
 20
69.6885
 11
61.6075
 21
69.467
  0
LINE
  8
0
 10
61.6075
 20
69.467
 11
61.2773
 21
69.2855
  0
LINE
  8
0
 10
61.2773
 20
69.2855
 11
60.927
 21
69.1468
  0
LINE
  8
0
 10
60.927
 20
69.1468
 11
60.5621
 21
69.0531
  0
LINE
  8
0
 10
60.5621
 20
69.0531
 11
60.1884
 21
69.0059
  0
LINE
  8
0
 10
60.1884
 20
69.0059
 11
59.8116
 21
69.0059
  0
LINE
  8
0
 10
-105.188
 20
69.0059
 11
-105.562
 21
69.0531
  0
LINE
  8
0
 10
-105.562
 20
69.0531
 11
-105.927
 21
69.1468
  0
LINE
  8
0
 10
-105.927
 20
69.1468
 11
-106.277
 21
69.2855
  0
LINE
  8
0
 10
-106.277
 20
69.2855
 11
-106.607
 21
69.467
  0
LINE
  8
0
 10
-106.607
 20
69.467
 11
-106.912
 21
69.6885
  0
LINE
  8
0
 10
-106.912
 20
69.6885
 11
-107.187
 21
69.9464
  0
LINE
  8
0
 10
-107.187
 20
69.9464
 11
-107.427
 21
70.2366
  0
LINE
  8
0
 10
-107.427
 20
70.2366
 11
-107.629
 21
70.5547
  0
LINE
  8
0
 10
-107.629
 20
70.5547
 11
-107.789
 21
70.8956
  0
LINE
  8
0
 10
-107.789
 20
70.8956
 11
-107.906
 21
71.2539
  0
LINE
  8
0
 10
-107.906
 20
71.2539
 11
-107.976
 21
71.624
  0
LINE
  8
0
 10
-107.976
 20
71.624
 11
-108
 21
72
  0
LINE
  8
0
 10
-108
 20
72
 11
-107.976
 21
72.376
  0
LINE
  8
0
 10
-107.976
 20
72.376
 11
-107.906
 21
72.7461
  0
LINE
  8
0
 10
-107.906
 20
72.7461
 11
-107.789
 21
73.1044
  0
LINE
  8
0
 10
-107.789
 20
73.1044
 11
-107.629
 21
73.4453
  0
LINE
  8
0
 10
-107.629
 20
73.4453
 11
-107.427
 21
73.7634
  0
LINE
  8
0
 10
-107.427
 20
73.7634
 11
-107.187
 21
74.0536
  0
LINE
  8
0
 10
-107.187
 20
74.0536
 11
-106.912
 21
74.3115
  0
LINE
  8
0
 10
-106.912
 20
74.3115
 11
-106.607
 21
74.533
  0
LINE
  8
0
 10
-106.607
 20
74.533
 11
-106.277
 21
74.7145
  0
LINE
  8
0
 10
-106.277
 20
74.7145
 11
-105.927
 21
74.8532
  0
LINE
  8
0
 10
-105.927
 20
74.8532
 11
-105.562
 21
74.9469
  0
LINE
  8
0
 10
-105.562
 20
74.9469
 11
-105.188
 21
74.9941
  0
LINE
  8
0
 10
-105.188
 20
74.9941
 11
-104.812
 21
74.9941
  0
LINE
  8
0
 10
-104.812
 20
74.9941
 11
-104.438
 21
74.9469
  0
LINE
  8
0
 10
-104.438
 20
74.9469
 11
-104.073
 21
74.8532
  0
LINE
  8
0
 10
-104.073
 20
74.8532
 11
-103.723
 21
74.7145
  0
LINE
  8
0
 10
-103.723
 20
74.7145
 11
-103.393
 21
74.533
  0
LINE
  8
0
 10
-103.393
 20
74.533
 11
-103.088
 21
74.3115
  0
LINE
  8
0
 10
-103.088
 20
74.3115
 11
-102.813
 21
74.0536
  0
LINE
  8
0
 10
-102.813
 20
74.0536
 11
-102.573
 21
73.7634
  0
LINE
  8
0
 10
-102.573
 20
73.7634
 11
-102.371
 21
73.4453
  0
LINE
  8
0
 10
-102.371
 20
73.4453
 11
-102.211
 21
73.1044
  0
LINE
  8
0
 10
-102.211
 20
73.1044
 11
-102.094
 21
72.7461
  0
LINE
  8
0
 10
-102.094
 20
72.7461
 11
-102.024
 21
72.376
  0
LINE
  8
0
 10
-102.024
 20
72.376
 11
-102
 21
72
  0
LINE
  8
0
 10
-102
 20
72
 11
-102.024
 21
71.624
  0
LINE
  8
0
 10
-102.024
 20
71.624
 11
-102.094
 21
71.2539
  0
LINE
  8
0
 10
-102.094
 20
71.2539
 11
-102.211
 21
70.8956
  0
LINE
  8
0
 10
-102.211
 20
70.8956
 11
-102.371
 21
70.5547
  0
LINE
  8
0
 10
-102.371
 20
70.5547
 11
-102.573
 21
70.2366
  0
LINE
  8
0
 10
-102.573
 20
70.2366
 11
-102.813
 21
69.9464
  0
LINE
  8
0
 10
-102.813
 20
69.9464
 11
-103.088
 21
69.6885
  0
LINE
  8
0
 10
-103.088
 20
69.6885
 11
-103.393
 21
69.467
  0
LINE
  8
0
 10
-103.393
 20
69.467
 11
-103.723
 21
69.2855
  0
LINE
  8
0
 10
-103.723
 20
69.2855
 11
-104.073
 21
69.1468
  0
LINE
  8
0
 10
-104.073
 20
69.1468
 11
-104.438
 21
69.0531
  0
LINE
  8
0
 10
-104.438
 20
69.0531
 11
-104.812
 21
69.0059
  0
LINE
  8
0
 10
-104.812
 20
69.0059
 11
-105.188
 21
69.0059
  0
LINE
  8
0
 10
-165.188
 20
69.0059
 11
-165.562
 21
69.0531
  0
LINE
  8
0
 10
-165.562
 20
69.0531
 11
-165.927
 21
69.1468
  0
LINE
  8
0
 10
-165.927
 20
69.1468
 11
-166.277
 21
69.2855
  0
LINE
  8
0
 10
-166.277
 20
69.2855
 11
-166.607
 21
69.467
  0
LINE
  8
0
 10
-166.607
 20
69.467
 11
-166.912
 21
69.6885
  0
LINE
  8
0
 10
-166.912
 20
69.6885
 11
-167.187
 21
69.9464
  0
LINE
  8
0
 10
-167.187
 20
69.9464
 11
-167.427
 21
70.2366
  0
LINE
  8
0
 10
-167.427
 20
70.2366
 11
-167.629
 21
70.5547
  0
LINE
  8
0
 10
-167.629
 20
70.5547
 11
-167.789
 21
70.8956
  0
LINE
  8
0
 10
-167.789
 20
70.8956
 11
-167.906
 21
71.2539
  0
LINE
  8
0
 10
-167.906
 20
71.2539
 11
-167.976
 21
71.624
  0
LINE
  8
0
 10
-167.976
 20
71.624
 11
-168
 21
72
  0
LINE
  8
0
 10
-168
 20
72
 11
-167.976
 21
72.376
  0
LINE
  8
0
 10
-167.976
 20
72.376
 11
-167.906
 21
72.7461
  0
LINE
  8
0
 10
-167.906
 20
72.7461
 11
-167.789
 21
73.1044
  0
LINE
  8
0
 10
-167.789
 20
73.1044
 11
-167.629
 21
73.4453
  0
LINE
  8
0
 10
-167.629
 20
73.4453
 11
-167.427
 21
73.7634
  0
LINE
  8
0
 10
-167.427
 20
73.7634
 11
-167.187
 21
74.0536
  0
LINE
  8
0
 10
-167.187
 20
74.0536
 11
-166.912
 21
74.3115
  0
LINE
  8
0
 10
-166.912
 20
74.3115
 11
-166.607
 21
74.533
  0
LINE
  8
0
 10
-166.607
 20
74.533
 11
-166.277
 21
74.7145
  0
LINE
  8
0
 10
-166.277
 20
74.7145
 11
-165.927
 21
74.8532
  0
LINE
  8
0
 10
-165.927
 20
74.8532
 11
-165.562
 21
74.9469
  0
LINE
  8
0
 10
-165.562
 20
74.9469
 11
-165.188
 21
74.9941
  0
LINE
  8
0
 10
-165.188
 20
74.9941
 11
-164.812
 21
74.9941
  0
LINE
  8
0
 10
-164.812
 20
74.9941
 11
-164.438
 21
74.9469
  0
LINE
  8
0
 10
-164.438
 20
74.9469
 11
-164.073
 21
74.8532
  0
LINE
  8
0
 10
-164.073
 20
74.8532
 11
-163.723
 21
74.7145
  0
LINE
  8
0
 10
-163.723
 20
74.7145
 11
-163.393
 21
74.533
  0
LINE
  8
0
 10
-163.393
 20
74.533
 11
-163.088
 21
74.3115
  0
LINE
  8
0
 10
-163.088
 20
74.3115
 11
-162.813
 21
74.0536
  0
LINE
  8
0
 10
-162.813
 20
74.0536
 11
-162.573
 21
73.7634
  0
LINE
  8
0
 10
-162.573
 20
73.7634
 11
-162.371
 21
73.4453
  0
LINE
  8
0
 10
-162.371
 20
73.4453
 11
-162.211
 21
73.1044
  0
LINE
  8
0
 10
-162.211
 20
73.1044
 11
-162.094
 21
72.7461
  0
LINE
  8
0
 10
-162.094
 20
72.7461
 11
-162.024
 21
72.376
  0
LINE
  8
0
 10
-162.024
 20
72.376
 11
-162
 21
72
  0
LINE
  8
0
 10
-162
 20
72
 11
-162.024
 21
71.624
  0
LINE
  8
0
 10
-162.024
 20
71.624
 11
-162.094
 21
71.2539
  0
LINE
  8
0
 10
-162.094
 20
71.2539
 11
-162.211
 21
70.8956
  0
LINE
  8
0
 10
-162.211
 20
70.8956
 11
-162.371
 21
70.5547
  0
LINE
  8
0
 10
-162.371
 20
70.5547
 11
-162.573
 21
70.2366
  0
LINE
  8
0
 10
-162.573
 20
70.2366
 11
-162.813
 21
69.9464
  0
LINE
  8
0
 10
-162.813
 20
69.9464
 11
-163.088
 21
69.6885
  0
LINE
  8
0
 10
-163.088
 20
69.6885
 11
-163.393
 21
69.467
  0
LINE
  8
0
 10
-163.393
 20
69.467
 11
-163.723
 21
69.2855
  0
LINE
  8
0
 10
-163.723
 20
69.2855
 11
-164.073
 21
69.1468
  0
LINE
  8
0
 10
-164.073
 20
69.1468
 11
-164.438
 21
69.0531
  0
LINE
  8
0
 10
-164.438
 20
69.0531
 11
-164.812
 21
69.0059
  0
LINE
  8
0
 10
-164.812
 20
69.0059
 11
-165.188
 21
69.0059
  0
LINE
  8
0
 10
179.812
 20
69.0059
 11
179.438
 21
69.0531
  0
LINE
  8
0
 10
179.438
 20
69.0531
 11
179.073
 21
69.1468
  0
LINE
  8
0
 10
179.073
 20
69.1468
 11
178.723
 21
69.2855
  0
LINE
  8
0
 10
178.723
 20
69.2855
 11
178.393
 21
69.467
  0
LINE
  8
0
 10
178.393
 20
69.467
 11
178.088
 21
69.6885
  0
LINE
  8
0
 10
178.088
 20
69.6885
 11
177.813
 21
69.9464
  0
LINE
  8
0
 10
177.813
 20
69.9464
 11
177.573
 21
70.2366
  0
LINE
  8
0
 10
177.573
 20
70.2366
 11
177.371
 21
70.5547
  0
LINE
  8
0
 10
177.371
 20
70.5547
 11
177.211
 21
70.8956
  0
LINE
  8
0
 10
177.211
 20
70.8956
 11
177.094
 21
71.2539
  0
LINE
  8
0
 10
177.094
 20
71.2539
 11
177.024
 21
71.624
  0
LINE
  8
0
 10
177.024
 20
71.624
 11
177
 21
72
  0
LINE
  8
0
 10
177
 20
72
 11
177.024
 21
72.376
  0
LINE
  8
0
 10
177.024
 20
72.376
 11
177.094
 21
72.7461
  0
LINE
  8
0
 10
177.094
 20
72.7461
 11
177.211
 21
73.1044
  0
LINE
  8
0
 10
177.211
 20
73.1044
 11
177.371
 21
73.4453
  0
LINE
  8
0
 10
177.371
 20
73.4453
 11
177.573
 21
73.7634
  0
LINE
  8
0
 10
177.573
 20
73.7634
 11
177.813
 21
74.0536
  0
LINE
  8
0
 10
177.813
 20
74.0536
 11
178.088
 21
74.3115
  0
LINE
  8
0
 10
178.088
 20
74.3115
 11
178.393
 21
74.533
  0
LINE
  8
0
 10
178.393
 20
74.533
 11
178.723
 21
74.7145
  0
LINE
  8
0
 10
178.723
 20
74.7145
 11
179.073
 21
74.8532
  0
LINE
  8
0
 10
179.073
 20
74.8532
 11
179.438
 21
74.9469
  0
LINE
  8
0
 10
179.438
 20
74.9469
 11
179.812
 21
74.9941
  0
LINE
  8
0
 10
179.812
 20
74.9941
 11
180.188
 21
74.9941
  0
LINE
  8
0
 10
180.188
 20
74.9941
 11
180.562
 21
74.9469
  0
LINE
  8
0
 10
180.562
 20
74.9469
 11
180.927
 21
74.8532
  0
LINE
  8
0
 10
180.927
 20
74.8532
 11
181.277
 21
74.7145
  0
LINE
  8
0
 10
181.277
 20
74.7145
 11
181.607
 21
74.533
  0
LINE
  8
0
 10
181.607
 20
74.533
 11
181.912
 21
74.3115
  0
LINE
  8
0
 10
181.912
 20
74.3115
 11
182.187
 21
74.0536
  0
LINE
  8
0
 10
182.187
 20
74.0536
 11
182.427
 21
73.7634
  0
LINE
  8
0
 10
182.427
 20
73.7634
 11
182.629
 21
73.4453
  0
LINE
  8
0
 10
182.629
 20
73.4453
 11
182.789
 21
73.1044
  0
LINE
  8
0
 10
182.789
 20
73.1044
 11
182.906
 21
72.7461
  0
LINE
  8
0
 10
182.906
 20
72.7461
 11
182.976
 21
72.376
  0
LINE
  8
0
 10
182.976
 20
72.376
 11
183
 21
72
  0
LINE
  8
0
 10
183
 20
72
 11
182.976
 21
71.624
  0
LINE
  8
0
 10
182.976
 20
71.624
 11
182.906
 21
71.2539
  0
LINE
  8
0
 10
182.906
 20
71.2539
 11
182.789
 21
70.8956
  0
LINE
  8
0
 10
182.789
 20
70.8956
 11
182.629
 21
70.5547
  0
LINE
  8
0
 10
182.629
 20
70.5547
 11
182.427
 21
70.2366
  0
LINE
  8
0
 10
182.427
 20
70.2366
 11
182.187
 21
69.9464
  0
LINE
  8
0
 10
182.187
 20
69.9464
 11
181.912
 21
69.6885
  0
LINE
  8
0
 10
181.912
 20
69.6885
 11
181.607
 21
69.467
  0
LINE
  8
0
 10
181.607
 20
69.467
 11
181.277
 21
69.2855
  0
LINE
  8
0
 10
181.277
 20
69.2855
 11
180.927
 21
69.1468
  0
LINE
  8
0
 10
180.927
 20
69.1468
 11
180.562
 21
69.0531
  0
LINE
  8
0
 10
180.562
 20
69.0531
 11
180.188
 21
69.0059
  0
LINE
  8
0
 10
180.188
 20
69.0059
 11
179.812
 21
69.0059
  0
LINE
  8
0
 10
89.8116
 20
69.0059
 11
89.4379
 21
69.0531
  0
LINE
  8
0
 10
89.4379
 20
69.0531
 11
89.073
 21
69.1468
  0
LINE
  8
0
 10
89.073
 20
69.1468
 11
88.7227
 21
69.2855
  0
LINE
  8
0
 10
88.7227
 20
69.2855
 11
88.3925
 21
69.467
  0
LINE
  8
0
 10
88.3925
 20
69.467
 11
88.0877
 21
69.6885
  0
LINE
  8
0
 10
88.0877
 20
69.6885
 11
87.8131
 21
69.9464
  0
LINE
  8
0
 10
87.8131
 20
69.9464
 11
87.573
 21
70.2366
  0
LINE
  8
0
 10
87.573
 20
70.2366
 11
87.3711
 21
70.5547
  0
LINE
  8
0
 10
87.3711
 20
70.5547
 11
87.2107
 21
70.8956
  0
LINE
  8
0
 10
87.2107
 20
70.8956
 11
87.0943
 21
71.2539
  0
LINE
  8
0
 10
87.0943
 20
71.2539
 11
87.0237
 21
71.624
  0
LINE
  8
0
 10
87.0237
 20
71.624
 11
87
 21
72
  0
LINE
  8
0
 10
87
 20
72
 11
87.0237
 21
72.376
  0
LINE
  8
0
 10
87.0237
 20
72.376
 11
87.0943
 21
72.7461
  0
LINE
  8
0
 10
87.0943
 20
72.7461
 11
87.2107
 21
73.1044
  0
LINE
  8
0
 10
87.2107
 20
73.1044
 11
87.3711
 21
73.4453
  0
LINE
  8
0
 10
87.3711
 20
73.4453
 11
87.573
 21
73.7634
  0
LINE
  8
0
 10
87.573
 20
73.7634
 11
87.8131
 21
74.0536
  0
LINE
  8
0
 10
87.8131
 20
74.0536
 11
88.0877
 21
74.3115
  0
LINE
  8
0
 10
88.0877
 20
74.3115
 11
88.3925
 21
74.533
  0
LINE
  8
0
 10
88.3925
 20
74.533
 11
88.7227
 21
74.7145
  0
LINE
  8
0
 10
88.7227
 20
74.7145
 11
89.073
 21
74.8532
  0
LINE
  8
0
 10
89.073
 20
74.8532
 11
89.4379
 21
74.9469
  0
LINE
  8
0
 10
89.4379
 20
74.9469
 11
89.8116
 21
74.9941
  0
LINE
  8
0
 10
89.8116
 20
74.9941
 11
90.1884
 21
74.9941
  0
LINE
  8
0
 10
90.1884
 20
74.9941
 11
90.5621
 21
74.9469
  0
LINE
  8
0
 10
90.5621
 20
74.9469
 11
90.927
 21
74.8532
  0
LINE
  8
0
 10
90.927
 20
74.8532
 11
91.2773
 21
74.7145
  0
LINE
  8
0
 10
91.2773
 20
74.7145
 11
91.6075
 21
74.533
  0
LINE
  8
0
 10
91.6075
 20
74.533
 11
91.9123
 21
74.3115
  0
LINE
  8
0
 10
91.9123
 20
74.3115
 11
92.1869
 21
74.0536
  0
LINE
  8
0
 10
92.1869
 20
74.0536
 11
92.427
 21
73.7634
  0
LINE
  8
0
 10
92.427
 20
73.7634
 11
92.6289
 21
73.4453
  0
LINE
  8
0
 10
92.6289
 20
73.4453
 11
92.7893
 21
73.1044
  0
LINE
  8
0
 10
92.7893
 20
73.1044
 11
92.9057
 21
72.7461
  0
LINE
  8
0
 10
92.9057
 20
72.7461
 11
92.9763
 21
72.376
  0
LINE
  8
0
 10
92.9763
 20
72.376
 11
93
 21
72
  0
LINE
  8
0
 10
93
 20
72
 11
92.9763
 21
71.624
  0
LINE
  8
0
 10
92.9763
 20
71.624
 11
92.9057
 21
71.2539
  0
LINE
  8
0
 10
92.9057
 20
71.2539
 11
92.7893
 21
70.8956
  0
LINE
  8
0
 10
92.7893
 20
70.8956
 11
92.6289
 21
70.5547
  0
LINE
  8
0
 10
92.6289
 20
70.5547
 11
92.427
 21
70.2366
  0
LINE
  8
0
 10
92.427
 20
70.2366
 11
92.1869
 21
69.9464
  0
LINE
  8
0
 10
92.1869
 20
69.9464
 11
91.9123
 21
69.6885
  0
LINE
  8
0
 10
91.9123
 20
69.6885
 11
91.6075
 21
69.467
  0
LINE
  8
0
 10
91.6075
 20
69.467
 11
91.2773
 21
69.2855
  0
LINE
  8
0
 10
91.2773
 20
69.2855
 11
90.927
 21
69.1468
  0
LINE
  8
0
 10
90.927
 20
69.1468
 11
90.5621
 21
69.0531
  0
LINE
  8
0
 10
90.5621
 20
69.0531
 11
90.1884
 21
69.0059
  0
LINE
  8
0
 10
90.1884
 20
69.0059
 11
89.8116
 21
69.0059
  0
LINE
  8
0
 10
-0.18837
 20
69.0059
 11
-0.562134
 21
69.0531
  0
LINE
  8
0
 10
-0.562134
 20
69.0531
 11
-0.927048
 21
69.1468
  0
LINE
  8
0
 10
-0.927048
 20
69.1468
 11
-1.27733
 21
69.2855
  0
LINE
  8
0
 10
-1.27733
 20
69.2855
 11
-1.60747
 21
69.467
  0
LINE
  8
0
 10
-1.60747
 20
69.467
 11
-1.91226
 21
69.6885
  0
LINE
  8
0
 10
-1.91226
 20
69.6885
 11
-2.1869
 21
69.9464
  0
LINE
  8
0
 10
-2.1869
 20
69.9464
 11
-2.42705
 21
70.2366
  0
LINE
  8
0
 10
-2.42705
 20
70.2366
 11
-2.62891
 21
70.5547
  0
LINE
  8
0
 10
-2.62891
 20
70.5547
 11
-2.78932
 21
70.8956
  0
LINE
  8
0
 10
-2.78932
 20
70.8956
 11
-2.90575
 21
71.2539
  0
LINE
  8
0
 10
-2.90575
 20
71.2539
 11
-2.97633
 21
71.624
  0
LINE
  8
0
 10
-2.97633
 20
71.624
 11
-3
 21
72
  0
LINE
  8
0
 10
-3
 20
72
 11
-2.97633
 21
72.376
  0
LINE
  8
0
 10
-2.97633
 20
72.376
 11
-2.90575
 21
72.7461
  0
LINE
  8
0
 10
-2.90575
 20
72.7461
 11
-2.78932
 21
73.1044
  0
LINE
  8
0
 10
-2.78932
 20
73.1044
 11
-2.62891
 21
73.4453
  0
LINE
  8
0
 10
-2.62891
 20
73.4453
 11
-2.42705
 21
73.7634
  0
LINE
  8
0
 10
-2.42705
 20
73.7634
 11
-2.1869
 21
74.0536
  0
LINE
  8
0
 10
-2.1869
 20
74.0536
 11
-1.91226
 21
74.3115
  0
LINE
  8
0
 10
-1.91226
 20
74.3115
 11
-1.60747
 21
74.533
  0
LINE
  8
0
 10
-1.60747
 20
74.533
 11
-1.27733
 21
74.7145
  0
LINE
  8
0
 10
-1.27733
 20
74.7145
 11
-0.927048
 21
74.8532
  0
LINE
  8
0
 10
-0.927048
 20
74.8532
 11
-0.562134
 21
74.9469
  0
LINE
  8
0
 10
-0.562134
 20
74.9469
 11
-0.18837
 21
74.9941
  0
LINE
  8
0
 10
-0.18837
 20
74.9941
 11
0.18837
 21
74.9941
  0
LINE
  8
0
 10
0.18837
 20
74.9941
 11
0.562134
 21
74.9469
  0
LINE
  8
0
 10
0.562134
 20
74.9469
 11
0.927048
 21
74.8532
  0
LINE
  8
0
 10
0.927048
 20
74.8532
 11
1.27733
 21
74.7145
  0
LINE
  8
0
 10
1.27733
 20
74.7145
 11
1.60747
 21
74.533
  0
LINE
  8
0
 10
1.60747
 20
74.533
 11
1.91226
 21
74.3115
  0
LINE
  8
0
 10
1.91226
 20
74.3115
 11
2.1869
 21
74.0536
  0
LINE
  8
0
 10
2.1869
 20
74.0536
 11
2.42705
 21
73.7634
  0
LINE
  8
0
 10
2.42705
 20
73.7634
 11
2.62891
 21
73.4453
  0
LINE
  8
0
 10
2.62891
 20
73.4453
 11
2.78932
 21
73.1044
  0
LINE
  8
0
 10
2.78932
 20
73.1044
 11
2.90575
 21
72.7461
  0
LINE
  8
0
 10
2.90575
 20
72.7461
 11
2.97633
 21
72.376
  0
LINE
  8
0
 10
2.97633
 20
72.376
 11
3
 21
72
  0
LINE
  8
0
 10
3
 20
72
 11
2.97633
 21
71.624
  0
LINE
  8
0
 10
2.97633
 20
71.624
 11
2.90575
 21
71.2539
  0
LINE
  8
0
 10
2.90575
 20
71.2539
 11
2.78932
 21
70.8956
  0
LINE
  8
0
 10
2.78932
 20
70.8956
 11
2.62891
 21
70.5547
  0
LINE
  8
0
 10
2.62891
 20
70.5547
 11
2.42705
 21
70.2366
  0
LINE
  8
0
 10
2.42705
 20
70.2366
 11
2.1869
 21
69.9464
  0
LINE
  8
0
 10
2.1869
 20
69.9464
 11
1.91226
 21
69.6885
  0
LINE
  8
0
 10
1.91226
 20
69.6885
 11
1.60747
 21
69.467
  0
LINE
  8
0
 10
1.60747
 20
69.467
 11
1.27733
 21
69.2855
  0
LINE
  8
0
 10
1.27733
 20
69.2855
 11
0.927048
 21
69.1468
  0
LINE
  8
0
 10
0.927048
 20
69.1468
 11
0.562134
 21
69.0531
  0
LINE
  8
0
 10
0.562134
 20
69.0531
 11
0.18837
 21
69.0059
  0
LINE
  8
0
 10
0.18837
 20
69.0059
 11
-0.18837
 21
69.0059
  0
LINE
  8
0
 10
209.812
 20
69.0059
 11
209.438
 21
69.0531
  0
LINE
  8
0
 10
209.438
 20
69.0531
 11
209.073
 21
69.1468
  0
LINE
  8
0
 10
209.073
 20
69.1468
 11
208.723
 21
69.2855
  0
LINE
  8
0
 10
208.723
 20
69.2855
 11
208.393
 21
69.467
  0
LINE
  8
0
 10
208.393
 20
69.467
 11
208.088
 21
69.6885
  0
LINE
  8
0
 10
208.088
 20
69.6885
 11
207.813
 21
69.9464
  0
LINE
  8
0
 10
207.813
 20
69.9464
 11
207.573
 21
70.2366
  0
LINE
  8
0
 10
207.573
 20
70.2366
 11
207.371
 21
70.5547
  0
LINE
  8
0
 10
207.371
 20
70.5547
 11
207.211
 21
70.8956
  0
LINE
  8
0
 10
207.211
 20
70.8956
 11
207.094
 21
71.2539
  0
LINE
  8
0
 10
207.094
 20
71.2539
 11
207.024
 21
71.624
  0
LINE
  8
0
 10
207.024
 20
71.624
 11
207
 21
72
  0
LINE
  8
0
 10
207
 20
72
 11
207.024
 21
72.376
  0
LINE
  8
0
 10
207.024
 20
72.376
 11
207.094
 21
72.7461
  0
LINE
  8
0
 10
207.094
 20
72.7461
 11
207.211
 21
73.1044
  0
LINE
  8
0
 10
207.211
 20
73.1044
 11
207.371
 21
73.4453
  0
LINE
  8
0
 10
207.371
 20
73.4453
 11
207.573
 21
73.7634
  0
LINE
  8
0
 10
207.573
 20
73.7634
 11
207.813
 21
74.0536
  0
LINE
  8
0
 10
207.813
 20
74.0536
 11
208.088
 21
74.3115
  0
LINE
  8
0
 10
208.088
 20
74.3115
 11
208.393
 21
74.533
  0
LINE
  8
0
 10
208.393
 20
74.533
 11
208.723
 21
74.7145
  0
LINE
  8
0
 10
208.723
 20
74.7145
 11
209.073
 21
74.8532
  0
LINE
  8
0
 10
209.073
 20
74.8532
 11
209.438
 21
74.9469
  0
LINE
  8
0
 10
209.438
 20
74.9469
 11
209.812
 21
74.9941
  0
LINE
  8
0
 10
209.812
 20
74.9941
 11
210.188
 21
74.9941
  0
LINE
  8
0
 10
210.188
 20
74.9941
 11
210.562
 21
74.9469
  0
LINE
  8
0
 10
210.562
 20
74.9469
 11
210.927
 21
74.8532
  0
LINE
  8
0
 10
210.927
 20
74.8532
 11
211.277
 21
74.7145
  0
LINE
  8
0
 10
211.277
 20
74.7145
 11
211.607
 21
74.533
  0
LINE
  8
0
 10
211.607
 20
74.533
 11
211.912
 21
74.3115
  0
LINE
  8
0
 10
211.912
 20
74.3115
 11
212.187
 21
74.0536
  0
LINE
  8
0
 10
212.187
 20
74.0536
 11
212.427
 21
73.7634
  0
LINE
  8
0
 10
212.427
 20
73.7634
 11
212.629
 21
73.4453
  0
LINE
  8
0
 10
212.629
 20
73.4453
 11
212.789
 21
73.1044
  0
LINE
  8
0
 10
212.789
 20
73.1044
 11
212.906
 21
72.7461
  0
LINE
  8
0
 10
212.906
 20
72.7461
 11
212.976
 21
72.376
  0
LINE
  8
0
 10
212.976
 20
72.376
 11
213
 21
72
  0
LINE
  8
0
 10
213
 20
72
 11
212.976
 21
71.624
  0
LINE
  8
0
 10
212.976
 20
71.624
 11
212.906
 21
71.2539
  0
LINE
  8
0
 10
212.906
 20
71.2539
 11
212.789
 21
70.8956
  0
LINE
  8
0
 10
212.789
 20
70.8956
 11
212.629
 21
70.5547
  0
LINE
  8
0
 10
212.629
 20
70.5547
 11
212.427
 21
70.2366
  0
LINE
  8
0
 10
212.427
 20
70.2366
 11
212.187
 21
69.9464
  0
LINE
  8
0
 10
212.187
 20
69.9464
 11
211.912
 21
69.6885
  0
LINE
  8
0
 10
211.912
 20
69.6885
 11
211.607
 21
69.467
  0
LINE
  8
0
 10
211.607
 20
69.467
 11
211.277
 21
69.2855
  0
LINE
  8
0
 10
211.277
 20
69.2855
 11
210.927
 21
69.1468
  0
LINE
  8
0
 10
210.927
 20
69.1468
 11
210.562
 21
69.0531
  0
LINE
  8
0
 10
210.562
 20
69.0531
 11
210.188
 21
69.0059
  0
LINE
  8
0
 10
210.188
 20
69.0059
 11
209.812
 21
69.0059
  0
LINE
  8
0
 10
-30.1884
 20
69.0059
 11
-30.5621
 21
69.0531
  0
LINE
  8
0
 10
-30.5621
 20
69.0531
 11
-30.927
 21
69.1468
  0
LINE
  8
0
 10
-30.927
 20
69.1468
 11
-31.2773
 21
69.2855
  0
LINE
  8
0
 10
-31.2773
 20
69.2855
 11
-31.6075
 21
69.467
  0
LINE
  8
0
 10
-31.6075
 20
69.467
 11
-31.9123
 21
69.6885
  0
LINE
  8
0
 10
-31.9123
 20
69.6885
 11
-32.1869
 21
69.9464
  0
LINE
  8
0
 10
-32.1869
 20
69.9464
 11
-32.427
 21
70.2366
  0
LINE
  8
0
 10
-32.427
 20
70.2366
 11
-32.6289
 21
70.5547
  0
LINE
  8
0
 10
-32.6289
 20
70.5547
 11
-32.7893
 21
70.8956
  0
LINE
  8
0
 10
-32.7893
 20
70.8956
 11
-32.9057
 21
71.2539
  0
LINE
  8
0
 10
-32.9057
 20
71.2539
 11
-32.9763
 21
71.624
  0
LINE
  8
0
 10
-32.9763
 20
71.624
 11
-33
 21
72
  0
LINE
  8
0
 10
-33
 20
72
 11
-32.9763
 21
72.376
  0
LINE
  8
0
 10
-32.9763
 20
72.376
 11
-32.9057
 21
72.7461
  0
LINE
  8
0
 10
-32.9057
 20
72.7461
 11
-32.7893
 21
73.1044
  0
LINE
  8
0
 10
-32.7893
 20
73.1044
 11
-32.6289
 21
73.4453
  0
LINE
  8
0
 10
-32.6289
 20
73.4453
 11
-32.427
 21
73.7634
  0
LINE
  8
0
 10
-32.427
 20
73.7634
 11
-32.1869
 21
74.0536
  0
LINE
  8
0
 10
-32.1869
 20
74.0536
 11
-31.9123
 21
74.3115
  0
LINE
  8
0
 10
-31.9123
 20
74.3115
 11
-31.6075
 21
74.533
  0
LINE
  8
0
 10
-31.6075
 20
74.533
 11
-31.2773
 21
74.7145
  0
LINE
  8
0
 10
-31.2773
 20
74.7145
 11
-30.927
 21
74.8532
  0
LINE
  8
0
 10
-30.927
 20
74.8532
 11
-30.5621
 21
74.9469
  0
LINE
  8
0
 10
-30.5621
 20
74.9469
 11
-30.1884
 21
74.9941
  0
LINE
  8
0
 10
-30.1884
 20
74.9941
 11
-29.8116
 21
74.9941
  0
LINE
  8
0
 10
-29.8116
 20
74.9941
 11
-29.4379
 21
74.9469
  0
LINE
  8
0
 10
-29.4379
 20
74.9469
 11
-29.0729
 21
74.8532
  0
LINE
  8
0
 10
-29.0729
 20
74.8532
 11
-28.7227
 21
74.7145
  0
LINE
  8
0
 10
-28.7227
 20
74.7145
 11
-28.3925
 21
74.533
  0
LINE
  8
0
 10
-28.3925
 20
74.533
 11
-28.0877
 21
74.3115
  0
LINE
  8
0
 10
-28.0877
 20
74.3115
 11
-27.8131
 21
74.0536
  0
LINE
  8
0
 10
-27.8131
 20
74.0536
 11
-27.5729
 21
73.7634
  0
LINE
  8
0
 10
-27.5729
 20
73.7634
 11
-27.3711
 21
73.4453
  0
LINE
  8
0
 10
-27.3711
 20
73.4453
 11
-27.2107
 21
73.1044
  0
LINE
  8
0
 10
-27.2107
 20
73.1044
 11
-27.0942
 21
72.7461
  0
LINE
  8
0
 10
-27.0942
 20
72.7461
 11
-27.0237
 21
72.376
  0
LINE
  8
0
 10
-27.0237
 20
72.376
 11
-27
 21
72
  0
LINE
  8
0
 10
-27
 20
72
 11
-27.0237
 21
71.624
  0
LINE
  8
0
 10
-27.0237
 20
71.624
 11
-27.0942
 21
71.2539
  0
LINE
  8
0
 10
-27.0942
 20
71.2539
 11
-27.2107
 21
70.8956
  0
LINE
  8
0
 10
-27.2107
 20
70.8956
 11
-27.3711
 21
70.5547
  0
LINE
  8
0
 10
-27.3711
 20
70.5547
 11
-27.5729
 21
70.2366
  0
LINE
  8
0
 10
-27.5729
 20
70.2366
 11
-27.8131
 21
69.9464
  0
LINE
  8
0
 10
-27.8131
 20
69.9464
 11
-28.0877
 21
69.6885
  0
LINE
  8
0
 10
-28.0877
 20
69.6885
 11
-28.3925
 21
69.467
  0
LINE
  8
0
 10
-28.3925
 20
69.467
 11
-28.7227
 21
69.2855
  0
LINE
  8
0
 10
-28.7227
 20
69.2855
 11
-29.0729
 21
69.1468
  0
LINE
  8
0
 10
-29.0729
 20
69.1468
 11
-29.4379
 21
69.0531
  0
LINE
  8
0
 10
-29.4379
 20
69.0531
 11
-29.8116
 21
69.0059
  0
LINE
  8
0
 10
-29.8116
 20
69.0059
 11
-30.1884
 21
69.0059
  0
LINE
  8
0
 10
-150.188
 20
69.0059
 11
-150.562
 21
69.0531
  0
LINE
  8
0
 10
-150.562
 20
69.0531
 11
-150.927
 21
69.1468
  0
LINE
  8
0
 10
-150.927
 20
69.1468
 11
-151.277
 21
69.2855
  0
LINE
  8
0
 10
-151.277
 20
69.2855
 11
-151.607
 21
69.467
  0
LINE
  8
0
 10
-151.607
 20
69.467
 11
-151.912
 21
69.6885
  0
LINE
  8
0
 10
-151.912
 20
69.6885
 11
-152.187
 21
69.9464
  0
LINE
  8
0
 10
-152.187
 20
69.9464
 11
-152.427
 21
70.2366
  0
LINE
  8
0
 10
-152.427
 20
70.2366
 11
-152.629
 21
70.5547
  0
LINE
  8
0
 10
-152.629
 20
70.5547
 11
-152.789
 21
70.8956
  0
LINE
  8
0
 10
-152.789
 20
70.8956
 11
-152.906
 21
71.2539
  0
LINE
  8
0
 10
-152.906
 20
71.2539
 11
-152.976
 21
71.624
  0
LINE
  8
0
 10
-152.976
 20
71.624
 11
-153
 21
72
  0
LINE
  8
0
 10
-153
 20
72
 11
-152.976
 21
72.376
  0
LINE
  8
0
 10
-152.976
 20
72.376
 11
-152.906
 21
72.7461
  0
LINE
  8
0
 10
-152.906
 20
72.7461
 11
-152.789
 21
73.1044
  0
LINE
  8
0
 10
-152.789
 20
73.1044
 11
-152.629
 21
73.4453
  0
LINE
  8
0
 10
-152.629
 20
73.4453
 11
-152.427
 21
73.7634
  0
LINE
  8
0
 10
-152.427
 20
73.7634
 11
-152.187
 21
74.0536
  0
LINE
  8
0
 10
-152.187
 20
74.0536
 11
-151.912
 21
74.3115
  0
LINE
  8
0
 10
-151.912
 20
74.3115
 11
-151.607
 21
74.533
  0
LINE
  8
0
 10
-151.607
 20
74.533
 11
-151.277
 21
74.7145
  0
LINE
  8
0
 10
-151.277
 20
74.7145
 11
-150.927
 21
74.8532
  0
LINE
  8
0
 10
-150.927
 20
74.8532
 11
-150.562
 21
74.9469
  0
LINE
  8
0
 10
-150.562
 20
74.9469
 11
-150.188
 21
74.9941
  0
LINE
  8
0
 10
-150.188
 20
74.9941
 11
-149.812
 21
74.9941
  0
LINE
  8
0
 10
-149.812
 20
74.9941
 11
-149.438
 21
74.9469
  0
LINE
  8
0
 10
-149.438
 20
74.9469
 11
-149.073
 21
74.8532
  0
LINE
  8
0
 10
-149.073
 20
74.8532
 11
-148.723
 21
74.7145
  0
LINE
  8
0
 10
-148.723
 20
74.7145
 11
-148.393
 21
74.533
  0
LINE
  8
0
 10
-148.393
 20
74.533
 11
-148.088
 21
74.3115
  0
LINE
  8
0
 10
-148.088
 20
74.3115
 11
-147.813
 21
74.0536
  0
LINE
  8
0
 10
-147.813
 20
74.0536
 11
-147.573
 21
73.7634
  0
LINE
  8
0
 10
-147.573
 20
73.7634
 11
-147.371
 21
73.4453
  0
LINE
  8
0
 10
-147.371
 20
73.4453
 11
-147.211
 21
73.1044
  0
LINE
  8
0
 10
-147.211
 20
73.1044
 11
-147.094
 21
72.7461
  0
LINE
  8
0
 10
-147.094
 20
72.7461
 11
-147.024
 21
72.376
  0
LINE
  8
0
 10
-147.024
 20
72.376
 11
-147
 21
72
  0
LINE
  8
0
 10
-147
 20
72
 11
-147.024
 21
71.624
  0
LINE
  8
0
 10
-147.024
 20
71.624
 11
-147.094
 21
71.2539
  0
LINE
  8
0
 10
-147.094
 20
71.2539
 11
-147.211
 21
70.8956
  0
LINE
  8
0
 10
-147.211
 20
70.8956
 11
-147.371
 21
70.5547
  0
LINE
  8
0
 10
-147.371
 20
70.5547
 11
-147.573
 21
70.2366
  0
LINE
  8
0
 10
-147.573
 20
70.2366
 11
-147.813
 21
69.9464
  0
LINE
  8
0
 10
-147.813
 20
69.9464
 11
-148.088
 21
69.6885
  0
LINE
  8
0
 10
-148.088
 20
69.6885
 11
-148.393
 21
69.467
  0
LINE
  8
0
 10
-148.393
 20
69.467
 11
-148.723
 21
69.2855
  0
LINE
  8
0
 10
-148.723
 20
69.2855
 11
-149.073
 21
69.1468
  0
LINE
  8
0
 10
-149.073
 20
69.1468
 11
-149.438
 21
69.0531
  0
LINE
  8
0
 10
-149.438
 20
69.0531
 11
-149.812
 21
69.0059
  0
LINE
  8
0
 10
-149.812
 20
69.0059
 11
-150.188
 21
69.0059
  0
LINE
  8
0
 10
212.937
 20
41.0886
 11
213.545
 21
41.2447
  0
LINE
  8
0
 10
213.545
 20
41.2447
 11
214.129
 21
41.4759
  0
LINE
  8
0
 10
214.129
 20
41.4759
 11
214.679
 21
41.7784
  0
LINE
  8
0
 10
214.679
 20
41.7784
 11
215.187
 21
42.1474
  0
LINE
  8
0
 10
215.187
 20
42.1474
 11
215.645
 21
42.5773
  0
LINE
  8
0
 10
215.645
 20
42.5773
 11
216.045
 21
43.0611
  0
LINE
  8
0
 10
216.045
 20
43.0611
 11
216.382
 21
43.5912
  0
LINE
  8
0
 10
216.382
 20
43.5912
 11
216.649
 21
44.1594
  0
LINE
  8
0
 10
216.649
 20
44.1594
 11
216.843
 21
44.7566
  0
LINE
  8
0
 10
216.843
 20
44.7566
 11
216.961
 21
45.3733
  0
LINE
  8
0
 10
216.961
 20
45.3733
 11
217
 21
46
  0
LINE
  8
0
 10
217
 20
46
 11
217
 21
50
  0
LINE
  8
0
 10
217
 20
50
 11
216.961
 21
50.6267
  0
LINE
  8
0
 10
216.961
 20
50.6267
 11
216.843
 21
51.2434
  0
LINE
  8
0
 10
216.843
 20
51.2434
 11
216.649
 21
51.8406
  0
LINE
  8
0
 10
216.649
 20
51.8406
 11
216.382
 21
52.4088
  0
LINE
  8
0
 10
216.382
 20
52.4088
 11
216.045
 21
52.9389
  0
LINE
  8
0
 10
216.045
 20
52.9389
 11
215.645
 21
53.4227
  0
LINE
  8
0
 10
215.645
 20
53.4227
 11
215.187
 21
53.8526
  0
LINE
  8
0
 10
215.187
 20
53.8526
 11
214.679
 21
54.2216
  0
LINE
  8
0
 10
214.679
 20
54.2216
 11
214.129
 21
54.5241
  0
LINE
  8
0
 10
214.129
 20
54.5241
 11
213.545
 21
54.7553
  0
LINE
  8
0
 10
213.545
 20
54.7553
 11
212.937
 21
54.9114
  0
LINE
  8
0
 10
212.937
 20
54.9114
 11
212.314
 21
54.9901
  0
LINE
  8
0
 10
212.314
 20
54.9901
 11
-212.314
 21
54.9901
  0
LINE
  8
0
 10
-212.314
 20
54.9901
 11
-212.937
 21
54.9114
  0
LINE
  8
0
 10
-212.937
 20
54.9114
 11
-213.545
 21
54.7553
  0
LINE
  8
0
 10
-213.545
 20
54.7553
 11
-214.129
 21
54.5241
  0
LINE
  8
0
 10
-214.129
 20
54.5241
 11
-214.679
 21
54.2216
  0
LINE
  8
0
 10
-214.679
 20
54.2216
 11
-215.187
 21
53.8526
  0
LINE
  8
0
 10
-215.187
 20
53.8526
 11
-215.645
 21
53.4227
  0
LINE
  8
0
 10
-215.645
 20
53.4227
 11
-216.045
 21
52.9389
  0
LINE
  8
0
 10
-216.045
 20
52.9389
 11
-216.382
 21
52.4088
  0
LINE
  8
0
 10
-216.382
 20
52.4088
 11
-216.649
 21
51.8406
  0
LINE
  8
0
 10
-216.649
 20
51.8406
 11
-216.843
 21
51.2434
  0
LINE
  8
0
 10
-216.843
 20
51.2434
 11
-216.961
 21
50.6267
  0
LINE
  8
0
 10
-216.961
 20
50.6267
 11
-217
 21
50
  0
LINE
  8
0
 10
-217
 20
50
 11
-217
 21
46
  0
LINE
  8
0
 10
-217
 20
46
 11
-216.961
 21
45.3733
  0
LINE
  8
0
 10
-216.961
 20
45.3733
 11
-216.843
 21
44.7566
  0
LINE
  8
0
 10
-216.843
 20
44.7566
 11
-216.649
 21
44.1594
  0
LINE
  8
0
 10
-216.649
 20
44.1594
 11
-216.382
 21
43.5912
  0
LINE
  8
0
 10
-216.382
 20
43.5912
 11
-216.045
 21
43.0611
  0
LINE
  8
0
 10
-216.045
 20
43.0611
 11
-215.645
 21
42.5773
  0
LINE
  8
0
 10
-215.645
 20
42.5773
 11
-215.187
 21
42.1474
  0
LINE
  8
0
 10
-215.187
 20
42.1474
 11
-214.679
 21
41.7784
  0
LINE
  8
0
 10
-214.679
 20
41.7784
 11
-214.129
 21
41.4759
  0
LINE
  8
0
 10
-214.129
 20
41.4759
 11
-213.545
 21
41.2447
  0
LINE
  8
0
 10
-213.545
 20
41.2447
 11
-212.937
 21
41.0886
  0
LINE
  8
0
 10
-212.937
 20
41.0886
 11
-212.314
 21
41.0099
  0
LINE
  8
0
 10
-212.314
 20
41.0099
 11
212.314
 21
41.0099
  0
LINE
  8
0
 10
212.314
 20
41.0099
 11
212.937
 21
41.0886
  0
LINE
  8
0
 10
14.8116
 20
45.0059
 11
14.4379
 21
45.0531
  0
LINE
  8
0
 10
14.4379
 20
45.0531
 11
14.0729
 21
45.1468
  0
LINE
  8
0
 10
14.0729
 20
45.1468
 11
13.7227
 21
45.2855
  0
LINE
  8
0
 10
13.7227
 20
45.2855
 11
13.3925
 21
45.467
  0
LINE
  8
0
 10
13.3925
 20
45.467
 11
13.0877
 21
45.6885
  0
LINE
  8
0
 10
13.0877
 20
45.6885
 11
12.8131
 21
45.9464
  0
LINE
  8
0
 10
12.8131
 20
45.9464
 11
12.5729
 21
46.2366
  0
LINE
  8
0
 10
12.5729
 20
46.2366
 11
12.3711
 21
46.5547
  0
LINE
  8
0
 10
12.3711
 20
46.5547
 11
12.2107
 21
46.8956
  0
LINE
  8
0
 10
12.2107
 20
46.8956
 11
12.0942
 21
47.2539
  0
LINE
  8
0
 10
12.0942
 20
47.2539
 11
12.0237
 21
47.624
  0
LINE
  8
0
 10
12.0237
 20
47.624
 11
12
 21
48
  0
LINE
  8
0
 10
12
 20
48
 11
12.0237
 21
48.376
  0
LINE
  8
0
 10
12.0237
 20
48.376
 11
12.0942
 21
48.7461
  0
LINE
  8
0
 10
12.0942
 20
48.7461
 11
12.2107
 21
49.1044
  0
LINE
  8
0
 10
12.2107
 20
49.1044
 11
12.3711
 21
49.4453
  0
LINE
  8
0
 10
12.3711
 20
49.4453
 11
12.5729
 21
49.7634
  0
LINE
  8
0
 10
12.5729
 20
49.7634
 11
12.8131
 21
50.0536
  0
LINE
  8
0
 10
12.8131
 20
50.0536
 11
13.0877
 21
50.3115
  0
LINE
  8
0
 10
13.0877
 20
50.3115
 11
13.3925
 21
50.533
  0
LINE
  8
0
 10
13.3925
 20
50.533
 11
13.7227
 21
50.7145
  0
LINE
  8
0
 10
13.7227
 20
50.7145
 11
14.0729
 21
50.8532
  0
LINE
  8
0
 10
14.0729
 20
50.8532
 11
14.4379
 21
50.9469
  0
LINE
  8
0
 10
14.4379
 20
50.9469
 11
14.8116
 21
50.9941
  0
LINE
  8
0
 10
14.8116
 20
50.9941
 11
15.1884
 21
50.9941
  0
LINE
  8
0
 10
15.1884
 20
50.9941
 11
15.5621
 21
50.9469
  0
LINE
  8
0
 10
15.5621
 20
50.9469
 11
15.927
 21
50.8532
  0
LINE
  8
0
 10
15.927
 20
50.8532
 11
16.2773
 21
50.7145
  0
LINE
  8
0
 10
16.2773
 20
50.7145
 11
16.6075
 21
50.533
  0
LINE
  8
0
 10
16.6075
 20
50.533
 11
16.9123
 21
50.3115
  0
LINE
  8
0
 10
16.9123
 20
50.3115
 11
17.1869
 21
50.0536
  0
LINE
  8
0
 10
17.1869
 20
50.0536
 11
17.427
 21
49.7634
  0
LINE
  8
0
 10
17.427
 20
49.7634
 11
17.6289
 21
49.4453
  0
LINE
  8
0
 10
17.6289
 20
49.4453
 11
17.7893
 21
49.1044
  0
LINE
  8
0
 10
17.7893
 20
49.1044
 11
17.9057
 21
48.7461
  0
LINE
  8
0
 10
17.9057
 20
48.7461
 11
17.9763
 21
48.376
  0
LINE
  8
0
 10
17.9763
 20
48.376
 11
18
 21
48
  0
LINE
  8
0
 10
18
 20
48
 11
17.9763
 21
47.624
  0
LINE
  8
0
 10
17.9763
 20
47.624
 11
17.9057
 21
47.2539
  0
LINE
  8
0
 10
17.9057
 20
47.2539
 11
17.7893
 21
46.8956
  0
LINE
  8
0
 10
17.7893
 20
46.8956
 11
17.6289
 21
46.5547
  0
LINE
  8
0
 10
17.6289
 20
46.5547
 11
17.427
 21
46.2366
  0
LINE
  8
0
 10
17.427
 20
46.2366
 11
17.1869
 21
45.9464
  0
LINE
  8
0
 10
17.1869
 20
45.9464
 11
16.9123
 21
45.6885
  0
LINE
  8
0
 10
16.9123
 20
45.6885
 11
16.6075
 21
45.467
  0
LINE
  8
0
 10
16.6075
 20
45.467
 11
16.2773
 21
45.2855
  0
LINE
  8
0
 10
16.2773
 20
45.2855
 11
15.927
 21
45.1468
  0
LINE
  8
0
 10
15.927
 20
45.1468
 11
15.5621
 21
45.0531
  0
LINE
  8
0
 10
15.5621
 20
45.0531
 11
15.1884
 21
45.0059
  0
LINE
  8
0
 10
15.1884
 20
45.0059
 11
14.8116
 21
45.0059
  0
LINE
  8
0
 10
-180.188
 20
45.0059
 11
-180.562
 21
45.0531
  0
LINE
  8
0
 10
-180.562
 20
45.0531
 11
-180.927
 21
45.1468
  0
LINE
  8
0
 10
-180.927
 20
45.1468
 11
-181.277
 21
45.2855
  0
LINE
  8
0
 10
-181.277
 20
45.2855
 11
-181.607
 21
45.467
  0
LINE
  8
0
 10
-181.607
 20
45.467
 11
-181.912
 21
45.6885
  0
LINE
  8
0
 10
-181.912
 20
45.6885
 11
-182.187
 21
45.9464
  0
LINE
  8
0
 10
-182.187
 20
45.9464
 11
-182.427
 21
46.2366
  0
LINE
  8
0
 10
-182.427
 20
46.2366
 11
-182.629
 21
46.5547
  0
LINE
  8
0
 10
-182.629
 20
46.5547
 11
-182.789
 21
46.8956
  0
LINE
  8
0
 10
-182.789
 20
46.8956
 11
-182.906
 21
47.2539
  0
LINE
  8
0
 10
-182.906
 20
47.2539
 11
-182.976
 21
47.624
  0
LINE
  8
0
 10
-182.976
 20
47.624
 11
-183
 21
48
  0
LINE
  8
0
 10
-183
 20
48
 11
-182.976
 21
48.376
  0
LINE
  8
0
 10
-182.976
 20
48.376
 11
-182.906
 21
48.7461
  0
LINE
  8
0
 10
-182.906
 20
48.7461
 11
-182.789
 21
49.1044
  0
LINE
  8
0
 10
-182.789
 20
49.1044
 11
-182.629
 21
49.4453
  0
LINE
  8
0
 10
-182.629
 20
49.4453
 11
-182.427
 21
49.7634
  0
LINE
  8
0
 10
-182.427
 20
49.7634
 11
-182.187
 21
50.0536
  0
LINE
  8
0
 10
-182.187
 20
50.0536
 11
-181.912
 21
50.3115
  0
LINE
  8
0
 10
-181.912
 20
50.3115
 11
-181.607
 21
50.533
  0
LINE
  8
0
 10
-181.607
 20
50.533
 11
-181.277
 21
50.7145
  0
LINE
  8
0
 10
-181.277
 20
50.7145
 11
-180.927
 21
50.8532
  0
LINE
  8
0
 10
-180.927
 20
50.8532
 11
-180.562
 21
50.9469
  0
LINE
  8
0
 10
-180.562
 20
50.9469
 11
-180.188
 21
50.9941
  0
LINE
  8
0
 10
-180.188
 20
50.9941
 11
-179.812
 21
50.9941
  0
LINE
  8
0
 10
-179.812
 20
50.9941
 11
-179.438
 21
50.9469
  0
LINE
  8
0
 10
-179.438
 20
50.9469
 11
-179.073
 21
50.8532
  0
LINE
  8
0
 10
-179.073
 20
50.8532
 11
-178.723
 21
50.7145
  0
LINE
  8
0
 10
-178.723
 20
50.7145
 11
-178.393
 21
50.533
  0
LINE
  8
0
 10
-178.393
 20
50.533
 11
-178.088
 21
50.3115
  0
LINE
  8
0
 10
-178.088
 20
50.3115
 11
-177.813
 21
50.0536
  0
LINE
  8
0
 10
-177.813
 20
50.0536
 11
-177.573
 21
49.7634
  0
LINE
  8
0
 10
-177.573
 20
49.7634
 11
-177.371
 21
49.4453
  0
LINE
  8
0
 10
-177.371
 20
49.4453
 11
-177.211
 21
49.1044
  0
LINE
  8
0
 10
-177.211
 20
49.1044
 11
-177.094
 21
48.7461
  0
LINE
  8
0
 10
-177.094
 20
48.7461
 11
-177.024
 21
48.376
  0
LINE
  8
0
 10
-177.024
 20
48.376
 11
-177
 21
48
  0
LINE
  8
0
 10
-177
 20
48
 11
-177.024
 21
47.624
  0
LINE
  8
0
 10
-177.024
 20
47.624
 11
-177.094
 21
47.2539
  0
LINE
  8
0
 10
-177.094
 20
47.2539
 11
-177.211
 21
46.8956
  0
LINE
  8
0
 10
-177.211
 20
46.8956
 11
-177.371
 21
46.5547
  0
LINE
  8
0
 10
-177.371
 20
46.5547
 11
-177.573
 21
46.2366
  0
LINE
  8
0
 10
-177.573
 20
46.2366
 11
-177.813
 21
45.9464
  0
LINE
  8
0
 10
-177.813
 20
45.9464
 11
-178.088
 21
45.6885
  0
LINE
  8
0
 10
-178.088
 20
45.6885
 11
-178.393
 21
45.467
  0
LINE
  8
0
 10
-178.393
 20
45.467
 11
-178.723
 21
45.2855
  0
LINE
  8
0
 10
-178.723
 20
45.2855
 11
-179.073
 21
45.1468
  0
LINE
  8
0
 10
-179.073
 20
45.1468
 11
-179.438
 21
45.0531
  0
LINE
  8
0
 10
-179.438
 20
45.0531
 11
-179.812
 21
45.0059
  0
LINE
  8
0
 10
-179.812
 20
45.0059
 11
-180.188
 21
45.0059
  0
LINE
  8
0
 10
-15.1884
 20
45.0059
 11
-15.5621
 21
45.0531
  0
LINE
  8
0
 10
-15.5621
 20
45.0531
 11
-15.927
 21
45.1468
  0
LINE
  8
0
 10
-15.927
 20
45.1468
 11
-16.2773
 21
45.2855
  0
LINE
  8
0
 10
-16.2773
 20
45.2855
 11
-16.6075
 21
45.467
  0
LINE
  8
0
 10
-16.6075
 20
45.467
 11
-16.9123
 21
45.6885
  0
LINE
  8
0
 10
-16.9123
 20
45.6885
 11
-17.1869
 21
45.9464
  0
LINE
  8
0
 10
-17.1869
 20
45.9464
 11
-17.427
 21
46.2366
  0
LINE
  8
0
 10
-17.427
 20
46.2366
 11
-17.6289
 21
46.5547
  0
LINE
  8
0
 10
-17.6289
 20
46.5547
 11
-17.7893
 21
46.8956
  0
LINE
  8
0
 10
-17.7893
 20
46.8956
 11
-17.9057
 21
47.2539
  0
LINE
  8
0
 10
-17.9057
 20
47.2539
 11
-17.9763
 21
47.624
  0
LINE
  8
0
 10
-17.9763
 20
47.624
 11
-18
 21
48
  0
LINE
  8
0
 10
-18
 20
48
 11
-17.9763
 21
48.376
  0
LINE
  8
0
 10
-17.9763
 20
48.376
 11
-17.9057
 21
48.7461
  0
LINE
  8
0
 10
-17.9057
 20
48.7461
 11
-17.7893
 21
49.1044
  0
LINE
  8
0
 10
-17.7893
 20
49.1044
 11
-17.6289
 21
49.4453
  0
LINE
  8
0
 10
-17.6289
 20
49.4453
 11
-17.427
 21
49.7634
  0
LINE
  8
0
 10
-17.427
 20
49.7634
 11
-17.1869
 21
50.0536
  0
LINE
  8
0
 10
-17.1869
 20
50.0536
 11
-16.9123
 21
50.3115
  0
LINE
  8
0
 10
-16.9123
 20
50.3115
 11
-16.6075
 21
50.533
  0
LINE
  8
0
 10
-16.6075
 20
50.533
 11
-16.2773
 21
50.7145
  0
LINE
  8
0
 10
-16.2773
 20
50.7145
 11
-15.927
 21
50.8532
  0
LINE
  8
0
 10
-15.927
 20
50.8532
 11
-15.5621
 21
50.9469
  0
LINE
  8
0
 10
-15.5621
 20
50.9469
 11
-15.1884
 21
50.9941
  0
LINE
  8
0
 10
-15.1884
 20
50.9941
 11
-14.8116
 21
50.9941
  0
LINE
  8
0
 10
-14.8116
 20
50.9941
 11
-14.4379
 21
50.9469
  0
LINE
  8
0
 10
-14.4379
 20
50.9469
 11
-14.0729
 21
50.8532
  0
LINE
  8
0
 10
-14.0729
 20
50.8532
 11
-13.7227
 21
50.7145
  0
LINE
  8
0
 10
-13.7227
 20
50.7145
 11
-13.3925
 21
50.533
  0
LINE
  8
0
 10
-13.3925
 20
50.533
 11
-13.0877
 21
50.3115
  0
LINE
  8
0
 10
-13.0877
 20
50.3115
 11
-12.8131
 21
50.0536
  0
LINE
  8
0
 10
-12.8131
 20
50.0536
 11
-12.5729
 21
49.7634
  0
LINE
  8
0
 10
-12.5729
 20
49.7634
 11
-12.3711
 21
49.4453
  0
LINE
  8
0
 10
-12.3711
 20
49.4453
 11
-12.2107
 21
49.1044
  0
LINE
  8
0
 10
-12.2107
 20
49.1044
 11
-12.0942
 21
48.7461
  0
LINE
  8
0
 10
-12.0942
 20
48.7461
 11
-12.0237
 21
48.376
  0
LINE
  8
0
 10
-12.0237
 20
48.376
 11
-12
 21
48
  0
LINE
  8
0
 10
-12
 20
48
 11
-12.0237
 21
47.624
  0
LINE
  8
0
 10
-12.0237
 20
47.624
 11
-12.0942
 21
47.2539
  0
LINE
  8
0
 10
-12.0942
 20
47.2539
 11
-12.2107
 21
46.8956
  0
LINE
  8
0
 10
-12.2107
 20
46.8956
 11
-12.3711
 21
46.5547
  0
LINE
  8
0
 10
-12.3711
 20
46.5547
 11
-12.5729
 21
46.2366
  0
LINE
  8
0
 10
-12.5729
 20
46.2366
 11
-12.8131
 21
45.9464
  0
LINE
  8
0
 10
-12.8131
 20
45.9464
 11
-13.0877
 21
45.6885
  0
LINE
  8
0
 10
-13.0877
 20
45.6885
 11
-13.3925
 21
45.467
  0
LINE
  8
0
 10
-13.3925
 20
45.467
 11
-13.7227
 21
45.2855
  0
LINE
  8
0
 10
-13.7227
 20
45.2855
 11
-14.0729
 21
45.1468
  0
LINE
  8
0
 10
-14.0729
 20
45.1468
 11
-14.4379
 21
45.0531
  0
LINE
  8
0
 10
-14.4379
 20
45.0531
 11
-14.8116
 21
45.0059
  0
LINE
  8
0
 10
-14.8116
 20
45.0059
 11
-15.1884
 21
45.0059
  0
LINE
  8
0
 10
-210.188
 20
45.0059
 11
-210.562
 21
45.0531
  0
LINE
  8
0
 10
-210.562
 20
45.0531
 11
-210.927
 21
45.1468
  0
LINE
  8
0
 10
-210.927
 20
45.1468
 11
-211.277
 21
45.2855
  0
LINE
  8
0
 10
-211.277
 20
45.2855
 11
-211.607
 21
45.467
  0
LINE
  8
0
 10
-211.607
 20
45.467
 11
-211.912
 21
45.6885
  0
LINE
  8
0
 10
-211.912
 20
45.6885
 11
-212.187
 21
45.9464
  0
LINE
  8
0
 10
-212.187
 20
45.9464
 11
-212.427
 21
46.2366
  0
LINE
  8
0
 10
-212.427
 20
46.2366
 11
-212.629
 21
46.5547
  0
LINE
  8
0
 10
-212.629
 20
46.5547
 11
-212.789
 21
46.8956
  0
LINE
  8
0
 10
-212.789
 20
46.8956
 11
-212.906
 21
47.2539
  0
LINE
  8
0
 10
-212.906
 20
47.2539
 11
-212.976
 21
47.624
  0
LINE
  8
0
 10
-212.976
 20
47.624
 11
-213
 21
48
  0
LINE
  8
0
 10
-213
 20
48
 11
-212.976
 21
48.376
  0
LINE
  8
0
 10
-212.976
 20
48.376
 11
-212.906
 21
48.7461
  0
LINE
  8
0
 10
-212.906
 20
48.7461
 11
-212.789
 21
49.1044
  0
LINE
  8
0
 10
-212.789
 20
49.1044
 11
-212.629
 21
49.4453
  0
LINE
  8
0
 10
-212.629
 20
49.4453
 11
-212.427
 21
49.7634
  0
LINE
  8
0
 10
-212.427
 20
49.7634
 11
-212.187
 21
50.0536
  0
LINE
  8
0
 10
-212.187
 20
50.0536
 11
-211.912
 21
50.3115
  0
LINE
  8
0
 10
-211.912
 20
50.3115
 11
-211.607
 21
50.533
  0
LINE
  8
0
 10
-211.607
 20
50.533
 11
-211.277
 21
50.7145
  0
LINE
  8
0
 10
-211.277
 20
50.7145
 11
-210.927
 21
50.8532
  0
LINE
  8
0
 10
-210.927
 20
50.8532
 11
-210.562
 21
50.9469
  0
LINE
  8
0
 10
-210.562
 20
50.9469
 11
-210.188
 21
50.9941
  0
LINE
  8
0
 10
-210.188
 20
50.9941
 11
-209.812
 21
50.9941
  0
LINE
  8
0
 10
-209.812
 20
50.9941
 11
-209.438
 21
50.9469
  0
LINE
  8
0
 10
-209.438
 20
50.9469
 11
-209.073
 21
50.8532
  0
LINE
  8
0
 10
-209.073
 20
50.8532
 11
-208.723
 21
50.7145
  0
LINE
  8
0
 10
-208.723
 20
50.7145
 11
-208.393
 21
50.533
  0
LINE
  8
0
 10
-208.393
 20
50.533
 11
-208.088
 21
50.3115
  0
LINE
  8
0
 10
-208.088
 20
50.3115
 11
-207.813
 21
50.0536
  0
LINE
  8
0
 10
-207.813
 20
50.0536
 11
-207.573
 21
49.7634
  0
LINE
  8
0
 10
-207.573
 20
49.7634
 11
-207.371
 21
49.4453
  0
LINE
  8
0
 10
-207.371
 20
49.4453
 11
-207.211
 21
49.1044
  0
LINE
  8
0
 10
-207.211
 20
49.1044
 11
-207.094
 21
48.7461
  0
LINE
  8
0
 10
-207.094
 20
48.7461
 11
-207.024
 21
48.376
  0
LINE
  8
0
 10
-207.024
 20
48.376
 11
-207
 21
48
  0
LINE
  8
0
 10
-207
 20
48
 11
-207.024
 21
47.624
  0
LINE
  8
0
 10
-207.024
 20
47.624
 11
-207.094
 21
47.2539
  0
LINE
  8
0
 10
-207.094
 20
47.2539
 11
-207.211
 21
46.8956
  0
LINE
  8
0
 10
-207.211
 20
46.8956
 11
-207.371
 21
46.5547
  0
LINE
  8
0
 10
-207.371
 20
46.5547
 11
-207.573
 21
46.2366
  0
LINE
  8
0
 10
-207.573
 20
46.2366
 11
-207.813
 21
45.9464
  0
LINE
  8
0
 10
-207.813
 20
45.9464
 11
-208.088
 21
45.6885
  0
LINE
  8
0
 10
-208.088
 20
45.6885
 11
-208.393
 21
45.467
  0
LINE
  8
0
 10
-208.393
 20
45.467
 11
-208.723
 21
45.2855
  0
LINE
  8
0
 10
-208.723
 20
45.2855
 11
-209.073
 21
45.1468
  0
LINE
  8
0
 10
-209.073
 20
45.1468
 11
-209.438
 21
45.0531
  0
LINE
  8
0
 10
-209.438
 20
45.0531
 11
-209.812
 21
45.0059
  0
LINE
  8
0
 10
-209.812
 20
45.0059
 11
-210.188
 21
45.0059
  0
LINE
  8
0
 10
-195.188
 20
45.0059
 11
-195.562
 21
45.0531
  0
LINE
  8
0
 10
-195.562
 20
45.0531
 11
-195.927
 21
45.1468
  0
LINE
  8
0
 10
-195.927
 20
45.1468
 11
-196.277
 21
45.2855
  0
LINE
  8
0
 10
-196.277
 20
45.2855
 11
-196.607
 21
45.467
  0
LINE
  8
0
 10
-196.607
 20
45.467
 11
-196.912
 21
45.6885
  0
LINE
  8
0
 10
-196.912
 20
45.6885
 11
-197.187
 21
45.9464
  0
LINE
  8
0
 10
-197.187
 20
45.9464
 11
-197.427
 21
46.2366
  0
LINE
  8
0
 10
-197.427
 20
46.2366
 11
-197.629
 21
46.5547
  0
LINE
  8
0
 10
-197.629
 20
46.5547
 11
-197.789
 21
46.8956
  0
LINE
  8
0
 10
-197.789
 20
46.8956
 11
-197.906
 21
47.2539
  0
LINE
  8
0
 10
-197.906
 20
47.2539
 11
-197.976
 21
47.624
  0
LINE
  8
0
 10
-197.976
 20
47.624
 11
-198
 21
48
  0
LINE
  8
0
 10
-198
 20
48
 11
-197.976
 21
48.376
  0
LINE
  8
0
 10
-197.976
 20
48.376
 11
-197.906
 21
48.7461
  0
LINE
  8
0
 10
-197.906
 20
48.7461
 11
-197.789
 21
49.1044
  0
LINE
  8
0
 10
-197.789
 20
49.1044
 11
-197.629
 21
49.4453
  0
LINE
  8
0
 10
-197.629
 20
49.4453
 11
-197.427
 21
49.7634
  0
LINE
  8
0
 10
-197.427
 20
49.7634
 11
-197.187
 21
50.0536
  0
LINE
  8
0
 10
-197.187
 20
50.0536
 11
-196.912
 21
50.3115
  0
LINE
  8
0
 10
-196.912
 20
50.3115
 11
-196.607
 21
50.533
  0
LINE
  8
0
 10
-196.607
 20
50.533
 11
-196.277
 21
50.7145
  0
LINE
  8
0
 10
-196.277
 20
50.7145
 11
-195.927
 21
50.8532
  0
LINE
  8
0
 10
-195.927
 20
50.8532
 11
-195.562
 21
50.9469
  0
LINE
  8
0
 10
-195.562
 20
50.9469
 11
-195.188
 21
50.9941
  0
LINE
  8
0
 10
-195.188
 20
50.9941
 11
-194.812
 21
50.9941
  0
LINE
  8
0
 10
-194.812
 20
50.9941
 11
-194.438
 21
50.9469
  0
LINE
  8
0
 10
-194.438
 20
50.9469
 11
-194.073
 21
50.8532
  0
LINE
  8
0
 10
-194.073
 20
50.8532
 11
-193.723
 21
50.7145
  0
LINE
  8
0
 10
-193.723
 20
50.7145
 11
-193.393
 21
50.533
  0
LINE
  8
0
 10
-193.393
 20
50.533
 11
-193.088
 21
50.3115
  0
LINE
  8
0
 10
-193.088
 20
50.3115
 11
-192.813
 21
50.0536
  0
LINE
  8
0
 10
-192.813
 20
50.0536
 11
-192.573
 21
49.7634
  0
LINE
  8
0
 10
-192.573
 20
49.7634
 11
-192.371
 21
49.4453
  0
LINE
  8
0
 10
-192.371
 20
49.4453
 11
-192.211
 21
49.1044
  0
LINE
  8
0
 10
-192.211
 20
49.1044
 11
-192.094
 21
48.7461
  0
LINE
  8
0
 10
-192.094
 20
48.7461
 11
-192.024
 21
48.376
  0
LINE
  8
0
 10
-192.024
 20
48.376
 11
-192
 21
48
  0
LINE
  8
0
 10
-192
 20
48
 11
-192.024
 21
47.624
  0
LINE
  8
0
 10
-192.024
 20
47.624
 11
-192.094
 21
47.2539
  0
LINE
  8
0
 10
-192.094
 20
47.2539
 11
-192.211
 21
46.8956
  0
LINE
  8
0
 10
-192.211
 20
46.8956
 11
-192.371
 21
46.5547
  0
LINE
  8
0
 10
-192.371
 20
46.5547
 11
-192.573
 21
46.2366
  0
LINE
  8
0
 10
-192.573
 20
46.2366
 11
-192.813
 21
45.9464
  0
LINE
  8
0
 10
-192.813
 20
45.9464
 11
-193.088
 21
45.6885
  0
LINE
  8
0
 10
-193.088
 20
45.6885
 11
-193.393
 21
45.467
  0
LINE
  8
0
 10
-193.393
 20
45.467
 11
-193.723
 21
45.2855
  0
LINE
  8
0
 10
-193.723
 20
45.2855
 11
-194.073
 21
45.1468
  0
LINE
  8
0
 10
-194.073
 20
45.1468
 11
-194.438
 21
45.0531
  0
LINE
  8
0
 10
-194.438
 20
45.0531
 11
-194.812
 21
45.0059
  0
LINE
  8
0
 10
-194.812
 20
45.0059
 11
-195.188
 21
45.0059
  0
LINE
  8
0
 10
119.812
 20
45.0059
 11
119.438
 21
45.0531
  0
LINE
  8
0
 10
119.438
 20
45.0531
 11
119.073
 21
45.1468
  0
LINE
  8
0
 10
119.073
 20
45.1468
 11
118.723
 21
45.2855
  0
LINE
  8
0
 10
118.723
 20
45.2855
 11
118.393
 21
45.467
  0
LINE
  8
0
 10
118.393
 20
45.467
 11
118.088
 21
45.6885
  0
LINE
  8
0
 10
118.088
 20
45.6885
 11
117.813
 21
45.9464
  0
LINE
  8
0
 10
117.813
 20
45.9464
 11
117.573
 21
46.2366
  0
LINE
  8
0
 10
117.573
 20
46.2366
 11
117.371
 21
46.5547
  0
LINE
  8
0
 10
117.371
 20
46.5547
 11
117.211
 21
46.8956
  0
LINE
  8
0
 10
117.211
 20
46.8956
 11
117.094
 21
47.2539
  0
LINE
  8
0
 10
117.094
 20
47.2539
 11
117.024
 21
47.624
  0
LINE
  8
0
 10
117.024
 20
47.624
 11
117
 21
48
  0
LINE
  8
0
 10
117
 20
48
 11
117.024
 21
48.376
  0
LINE
  8
0
 10
117.024
 20
48.376
 11
117.094
 21
48.7461
  0
LINE
  8
0
 10
117.094
 20
48.7461
 11
117.211
 21
49.1044
  0
LINE
  8
0
 10
117.211
 20
49.1044
 11
117.371
 21
49.4453
  0
LINE
  8
0
 10
117.371
 20
49.4453
 11
117.573
 21
49.7634
  0
LINE
  8
0
 10
117.573
 20
49.7634
 11
117.813
 21
50.0536
  0
LINE
  8
0
 10
117.813
 20
50.0536
 11
118.088
 21
50.3115
  0
LINE
  8
0
 10
118.088
 20
50.3115
 11
118.393
 21
50.533
  0
LINE
  8
0
 10
118.393
 20
50.533
 11
118.723
 21
50.7145
  0
LINE
  8
0
 10
118.723
 20
50.7145
 11
119.073
 21
50.8532
  0
LINE
  8
0
 10
119.073
 20
50.8532
 11
119.438
 21
50.9469
  0
LINE
  8
0
 10
119.438
 20
50.9469
 11
119.812
 21
50.9941
  0
LINE
  8
0
 10
119.812
 20
50.9941
 11
120.188
 21
50.9941
  0
LINE
  8
0
 10
120.188
 20
50.9941
 11
120.562
 21
50.9469
  0
LINE
  8
0
 10
120.562
 20
50.9469
 11
120.927
 21
50.8532
  0
LINE
  8
0
 10
120.927
 20
50.8532
 11
121.277
 21
50.7145
  0
LINE
  8
0
 10
121.277
 20
50.7145
 11
121.607
 21
50.533
  0
LINE
  8
0
 10
121.607
 20
50.533
 11
121.912
 21
50.3115
  0
LINE
  8
0
 10
121.912
 20
50.3115
 11
122.187
 21
50.0536
  0
LINE
  8
0
 10
122.187
 20
50.0536
 11
122.427
 21
49.7634
  0
LINE
  8
0
 10
122.427
 20
49.7634
 11
122.629
 21
49.4453
  0
LINE
  8
0
 10
122.629
 20
49.4453
 11
122.789
 21
49.1044
  0
LINE
  8
0
 10
122.789
 20
49.1044
 11
122.906
 21
48.7461
  0
LINE
  8
0
 10
122.906
 20
48.7461
 11
122.976
 21
48.376
  0
LINE
  8
0
 10
122.976
 20
48.376
 11
123
 21
48
  0
LINE
  8
0
 10
123
 20
48
 11
122.976
 21
47.624
  0
LINE
  8
0
 10
122.976
 20
47.624
 11
122.906
 21
47.2539
  0
LINE
  8
0
 10
122.906
 20
47.2539
 11
122.789
 21
46.8956
  0
LINE
  8
0
 10
122.789
 20
46.8956
 11
122.629
 21
46.5547
  0
LINE
  8
0
 10
122.629
 20
46.5547
 11
122.427
 21
46.2366
  0
LINE
  8
0
 10
122.427
 20
46.2366
 11
122.187
 21
45.9464
  0
LINE
  8
0
 10
122.187
 20
45.9464
 11
121.912
 21
45.6885
  0
LINE
  8
0
 10
121.912
 20
45.6885
 11
121.607
 21
45.467
  0
LINE
  8
0
 10
121.607
 20
45.467
 11
121.277
 21
45.2855
  0
LINE
  8
0
 10
121.277
 20
45.2855
 11
120.927
 21
45.1468
  0
LINE
  8
0
 10
120.927
 20
45.1468
 11
120.562
 21
45.0531
  0
LINE
  8
0
 10
120.562
 20
45.0531
 11
120.188
 21
45.0059
  0
LINE
  8
0
 10
120.188
 20
45.0059
 11
119.812
 21
45.0059
  0
LINE
  8
0
 10
104.812
 20
45.0059
 11
104.438
 21
45.0531
  0
LINE
  8
0
 10
104.438
 20
45.0531
 11
104.073
 21
45.1468
  0
LINE
  8
0
 10
104.073
 20
45.1468
 11
103.723
 21
45.2855
  0
LINE
  8
0
 10
103.723
 20
45.2855
 11
103.393
 21
45.467
  0
LINE
  8
0
 10
103.393
 20
45.467
 11
103.088
 21
45.6885
  0
LINE
  8
0
 10
103.088
 20
45.6885
 11
102.813
 21
45.9464
  0
LINE
  8
0
 10
102.813
 20
45.9464
 11
102.573
 21
46.2366
  0
LINE
  8
0
 10
102.573
 20
46.2366
 11
102.371
 21
46.5547
  0
LINE
  8
0
 10
102.371
 20
46.5547
 11
102.211
 21
46.8956
  0
LINE
  8
0
 10
102.211
 20
46.8956
 11
102.094
 21
47.2539
  0
LINE
  8
0
 10
102.094
 20
47.2539
 11
102.024
 21
47.624
  0
LINE
  8
0
 10
102.024
 20
47.624
 11
102
 21
48
  0
LINE
  8
0
 10
102
 20
48
 11
102.024
 21
48.376
  0
LINE
  8
0
 10
102.024
 20
48.376
 11
102.094
 21
48.7461
  0
LINE
  8
0
 10
102.094
 20
48.7461
 11
102.211
 21
49.1044
  0
LINE
  8
0
 10
102.211
 20
49.1044
 11
102.371
 21
49.4453
  0
LINE
  8
0
 10
102.371
 20
49.4453
 11
102.573
 21
49.7634
  0
LINE
  8
0
 10
102.573
 20
49.7634
 11
102.813
 21
50.0536
  0
LINE
  8
0
 10
102.813
 20
50.0536
 11
103.088
 21
50.3115
  0
LINE
  8
0
 10
103.088
 20
50.3115
 11
103.393
 21
50.533
  0
LINE
  8
0
 10
103.393
 20
50.533
 11
103.723
 21
50.7145
  0
LINE
  8
0
 10
103.723
 20
50.7145
 11
104.073
 21
50.8532
  0
LINE
  8
0
 10
104.073
 20
50.8532
 11
104.438
 21
50.9469
  0
LINE
  8
0
 10
104.438
 20
50.9469
 11
104.812
 21
50.9941
  0
LINE
  8
0
 10
104.812
 20
50.9941
 11
105.188
 21
50.9941
  0
LINE
  8
0
 10
105.188
 20
50.9941
 11
105.562
 21
50.9469
  0
LINE
  8
0
 10
105.562
 20
50.9469
 11
105.927
 21
50.8532
  0
LINE
  8
0
 10
105.927
 20
50.8532
 11
106.277
 21
50.7145
  0
LINE
  8
0
 10
106.277
 20
50.7145
 11
106.607
 21
50.533
  0
LINE
  8
0
 10
106.607
 20
50.533
 11
106.912
 21
50.3115
  0
LINE
  8
0
 10
106.912
 20
50.3115
 11
107.187
 21
50.0536
  0
LINE
  8
0
 10
107.187
 20
50.0536
 11
107.427
 21
49.7634
  0
LINE
  8
0
 10
107.427
 20
49.7634
 11
107.629
 21
49.4453
  0
LINE
  8
0
 10
107.629
 20
49.4453
 11
107.789
 21
49.1044
  0
LINE
  8
0
 10
107.789
 20
49.1044
 11
107.906
 21
48.7461
  0
LINE
  8
0
 10
107.906
 20
48.7461
 11
107.976
 21
48.376
  0
LINE
  8
0
 10
107.976
 20
48.376
 11
108
 21
48
  0
LINE
  8
0
 10
108
 20
48
 11
107.976
 21
47.624
  0
LINE
  8
0
 10
107.976
 20
47.624
 11
107.906
 21
47.2539
  0
LINE
  8
0
 10
107.906
 20
47.2539
 11
107.789
 21
46.8956
  0
LINE
  8
0
 10
107.789
 20
46.8956
 11
107.629
 21
46.5547
  0
LINE
  8
0
 10
107.629
 20
46.5547
 11
107.427
 21
46.2366
  0
LINE
  8
0
 10
107.427
 20
46.2366
 11
107.187
 21
45.9464
  0
LINE
  8
0
 10
107.187
 20
45.9464
 11
106.912
 21
45.6885
  0
LINE
  8
0
 10
106.912
 20
45.6885
 11
106.607
 21
45.467
  0
LINE
  8
0
 10
106.607
 20
45.467
 11
106.277
 21
45.2855
  0
LINE
  8
0
 10
106.277
 20
45.2855
 11
105.927
 21
45.1468
  0
LINE
  8
0
 10
105.927
 20
45.1468
 11
105.562
 21
45.0531
  0
LINE
  8
0
 10
105.562
 20
45.0531
 11
105.188
 21
45.0059
  0
LINE
  8
0
 10
105.188
 20
45.0059
 11
104.812
 21
45.0059
  0
LINE
  8
0
 10
134.812
 20
45.0059
 11
134.438
 21
45.0531
  0
LINE
  8
0
 10
134.438
 20
45.0531
 11
134.073
 21
45.1468
  0
LINE
  8
0
 10
134.073
 20
45.1468
 11
133.723
 21
45.2855
  0
LINE
  8
0
 10
133.723
 20
45.2855
 11
133.393
 21
45.467
  0
LINE
  8
0
 10
133.393
 20
45.467
 11
133.088
 21
45.6885
  0
LINE
  8
0
 10
133.088
 20
45.6885
 11
132.813
 21
45.9464
  0
LINE
  8
0
 10
132.813
 20
45.9464
 11
132.573
 21
46.2366
  0
LINE
  8
0
 10
132.573
 20
46.2366
 11
132.371
 21
46.5547
  0
LINE
  8
0
 10
132.371
 20
46.5547
 11
132.211
 21
46.8956
  0
LINE
  8
0
 10
132.211
 20
46.8956
 11
132.094
 21
47.2539
  0
LINE
  8
0
 10
132.094
 20
47.2539
 11
132.024
 21
47.624
  0
LINE
  8
0
 10
132.024
 20
47.624
 11
132
 21
48
  0
LINE
  8
0
 10
132
 20
48
 11
132.024
 21
48.376
  0
LINE
  8
0
 10
132.024
 20
48.376
 11
132.094
 21
48.7461
  0
LINE
  8
0
 10
132.094
 20
48.7461
 11
132.211
 21
49.1044
  0
LINE
  8
0
 10
132.211
 20
49.1044
 11
132.371
 21
49.4453
  0
LINE
  8
0
 10
132.371
 20
49.4453
 11
132.573
 21
49.7634
  0
LINE
  8
0
 10
132.573
 20
49.7634
 11
132.813
 21
50.0536
  0
LINE
  8
0
 10
132.813
 20
50.0536
 11
133.088
 21
50.3115
  0
LINE
  8
0
 10
133.088
 20
50.3115
 11
133.393
 21
50.533
  0
LINE
  8
0
 10
133.393
 20
50.533
 11
133.723
 21
50.7145
  0
LINE
  8
0
 10
133.723
 20
50.7145
 11
134.073
 21
50.8532
  0
LINE
  8
0
 10
134.073
 20
50.8532
 11
134.438
 21
50.9469
  0
LINE
  8
0
 10
134.438
 20
50.9469
 11
134.812
 21
50.9941
  0
LINE
  8
0
 10
134.812
 20
50.9941
 11
135.188
 21
50.9941
  0
LINE
  8
0
 10
135.188
 20
50.9941
 11
135.562
 21
50.9469
  0
LINE
  8
0
 10
135.562
 20
50.9469
 11
135.927
 21
50.8532
  0
LINE
  8
0
 10
135.927
 20
50.8532
 11
136.277
 21
50.7145
  0
LINE
  8
0
 10
136.277
 20
50.7145
 11
136.607
 21
50.533
  0
LINE
  8
0
 10
136.607
 20
50.533
 11
136.912
 21
50.3115
  0
LINE
  8
0
 10
136.912
 20
50.3115
 11
137.187
 21
50.0536
  0
LINE
  8
0
 10
137.187
 20
50.0536
 11
137.427
 21
49.7634
  0
LINE
  8
0
 10
137.427
 20
49.7634
 11
137.629
 21
49.4453
  0
LINE
  8
0
 10
137.629
 20
49.4453
 11
137.789
 21
49.1044
  0
LINE
  8
0
 10
137.789
 20
49.1044
 11
137.906
 21
48.7461
  0
LINE
  8
0
 10
137.906
 20
48.7461
 11
137.976
 21
48.376
  0
LINE
  8
0
 10
137.976
 20
48.376
 11
138
 21
48
  0
LINE
  8
0
 10
138
 20
48
 11
137.976
 21
47.624
  0
LINE
  8
0
 10
137.976
 20
47.624
 11
137.906
 21
47.2539
  0
LINE
  8
0
 10
137.906
 20
47.2539
 11
137.789
 21
46.8956
  0
LINE
  8
0
 10
137.789
 20
46.8956
 11
137.629
 21
46.5547
  0
LINE
  8
0
 10
137.629
 20
46.5547
 11
137.427
 21
46.2366
  0
LINE
  8
0
 10
137.427
 20
46.2366
 11
137.187
 21
45.9464
  0
LINE
  8
0
 10
137.187
 20
45.9464
 11
136.912
 21
45.6885
  0
LINE
  8
0
 10
136.912
 20
45.6885
 11
136.607
 21
45.467
  0
LINE
  8
0
 10
136.607
 20
45.467
 11
136.277
 21
45.2855
  0
LINE
  8
0
 10
136.277
 20
45.2855
 11
135.927
 21
45.1468
  0
LINE
  8
0
 10
135.927
 20
45.1468
 11
135.562
 21
45.0531
  0
LINE
  8
0
 10
135.562
 20
45.0531
 11
135.188
 21
45.0059
  0
LINE
  8
0
 10
135.188
 20
45.0059
 11
134.812
 21
45.0059
  0
LINE
  8
0
 10
149.812
 20
45.0059
 11
149.438
 21
45.0531
  0
LINE
  8
0
 10
149.438
 20
45.0531
 11
149.073
 21
45.1468
  0
LINE
  8
0
 10
149.073
 20
45.1468
 11
148.723
 21
45.2855
  0
LINE
  8
0
 10
148.723
 20
45.2855
 11
148.393
 21
45.467
  0
LINE
  8
0
 10
148.393
 20
45.467
 11
148.088
 21
45.6885
  0
LINE
  8
0
 10
148.088
 20
45.6885
 11
147.813
 21
45.9464
  0
LINE
  8
0
 10
147.813
 20
45.9464
 11
147.573
 21
46.2366
  0
LINE
  8
0
 10
147.573
 20
46.2366
 11
147.371
 21
46.5547
  0
LINE
  8
0
 10
147.371
 20
46.5547
 11
147.211
 21
46.8956
  0
LINE
  8
0
 10
147.211
 20
46.8956
 11
147.094
 21
47.2539
  0
LINE
  8
0
 10
147.094
 20
47.2539
 11
147.024
 21
47.624
  0
LINE
  8
0
 10
147.024
 20
47.624
 11
147
 21
48
  0
LINE
  8
0
 10
147
 20
48
 11
147.024
 21
48.376
  0
LINE
  8
0
 10
147.024
 20
48.376
 11
147.094
 21
48.7461
  0
LINE
  8
0
 10
147.094
 20
48.7461
 11
147.211
 21
49.1044
  0
LINE
  8
0
 10
147.211
 20
49.1044
 11
147.371
 21
49.4453
  0
LINE
  8
0
 10
147.371
 20
49.4453
 11
147.573
 21
49.7634
  0
LINE
  8
0
 10
147.573
 20
49.7634
 11
147.813
 21
50.0536
  0
LINE
  8
0
 10
147.813
 20
50.0536
 11
148.088
 21
50.3115
  0
LINE
  8
0
 10
148.088
 20
50.3115
 11
148.393
 21
50.533
  0
LINE
  8
0
 10
148.393
 20
50.533
 11
148.723
 21
50.7145
  0
LINE
  8
0
 10
148.723
 20
50.7145
 11
149.073
 21
50.8532
  0
LINE
  8
0
 10
149.073
 20
50.8532
 11
149.438
 21
50.9469
  0
LINE
  8
0
 10
149.438
 20
50.9469
 11
149.812
 21
50.9941
  0
LINE
  8
0
 10
149.812
 20
50.9941
 11
150.188
 21
50.9941
  0
LINE
  8
0
 10
150.188
 20
50.9941
 11
150.562
 21
50.9469
  0
LINE
  8
0
 10
150.562
 20
50.9469
 11
150.927
 21
50.8532
  0
LINE
  8
0
 10
150.927
 20
50.8532
 11
151.277
 21
50.7145
  0
LINE
  8
0
 10
151.277
 20
50.7145
 11
151.607
 21
50.533
  0
LINE
  8
0
 10
151.607
 20
50.533
 11
151.912
 21
50.3115
  0
LINE
  8
0
 10
151.912
 20
50.3115
 11
152.187
 21
50.0536
  0
LINE
  8
0
 10
152.187
 20
50.0536
 11
152.427
 21
49.7634
  0
LINE
  8
0
 10
152.427
 20
49.7634
 11
152.629
 21
49.4453
  0
LINE
  8
0
 10
152.629
 20
49.4453
 11
152.789
 21
49.1044
  0
LINE
  8
0
 10
152.789
 20
49.1044
 11
152.906
 21
48.7461
  0
LINE
  8
0
 10
152.906
 20
48.7461
 11
152.976
 21
48.376
  0
LINE
  8
0
 10
152.976
 20
48.376
 11
153
 21
48
  0
LINE
  8
0
 10
153
 20
48
 11
152.976
 21
47.624
  0
LINE
  8
0
 10
152.976
 20
47.624
 11
152.906
 21
47.2539
  0
LINE
  8
0
 10
152.906
 20
47.2539
 11
152.789
 21
46.8956
  0
LINE
  8
0
 10
152.789
 20
46.8956
 11
152.629
 21
46.5547
  0
LINE
  8
0
 10
152.629
 20
46.5547
 11
152.427
 21
46.2366
  0
LINE
  8
0
 10
152.427
 20
46.2366
 11
152.187
 21
45.9464
  0
LINE
  8
0
 10
152.187
 20
45.9464
 11
151.912
 21
45.6885
  0
LINE
  8
0
 10
151.912
 20
45.6885
 11
151.607
 21
45.467
  0
LINE
  8
0
 10
151.607
 20
45.467
 11
151.277
 21
45.2855
  0
LINE
  8
0
 10
151.277
 20
45.2855
 11
150.927
 21
45.1468
  0
LINE
  8
0
 10
150.927
 20
45.1468
 11
150.562
 21
45.0531
  0
LINE
  8
0
 10
150.562
 20
45.0531
 11
150.188
 21
45.0059
  0
LINE
  8
0
 10
150.188
 20
45.0059
 11
149.812
 21
45.0059
  0
LINE
  8
0
 10
74.8116
 20
45.0059
 11
74.4379
 21
45.0531
  0
LINE
  8
0
 10
74.4379
 20
45.0531
 11
74.073
 21
45.1468
  0
LINE
  8
0
 10
74.073
 20
45.1468
 11
73.7227
 21
45.2855
  0
LINE
  8
0
 10
73.7227
 20
45.2855
 11
73.3925
 21
45.467
  0
LINE
  8
0
 10
73.3925
 20
45.467
 11
73.0877
 21
45.6885
  0
LINE
  8
0
 10
73.0877
 20
45.6885
 11
72.8131
 21
45.9464
  0
LINE
  8
0
 10
72.8131
 20
45.9464
 11
72.573
 21
46.2366
  0
LINE
  8
0
 10
72.573
 20
46.2366
 11
72.3711
 21
46.5547
  0
LINE
  8
0
 10
72.3711
 20
46.5547
 11
72.2107
 21
46.8956
  0
LINE
  8
0
 10
72.2107
 20
46.8956
 11
72.0943
 21
47.2539
  0
LINE
  8
0
 10
72.0943
 20
47.2539
 11
72.0237
 21
47.624
  0
LINE
  8
0
 10
72.0237
 20
47.624
 11
72
 21
48
  0
LINE
  8
0
 10
72
 20
48
 11
72.0237
 21
48.376
  0
LINE
  8
0
 10
72.0237
 20
48.376
 11
72.0943
 21
48.7461
  0
LINE
  8
0
 10
72.0943
 20
48.7461
 11
72.2107
 21
49.1044
  0
LINE
  8
0
 10
72.2107
 20
49.1044
 11
72.3711
 21
49.4453
  0
LINE
  8
0
 10
72.3711
 20
49.4453
 11
72.573
 21
49.7634
  0
LINE
  8
0
 10
72.573
 20
49.7634
 11
72.8131
 21
50.0536
  0
LINE
  8
0
 10
72.8131
 20
50.0536
 11
73.0877
 21
50.3115
  0
LINE
  8
0
 10
73.0877
 20
50.3115
 11
73.3925
 21
50.533
  0
LINE
  8
0
 10
73.3925
 20
50.533
 11
73.7227
 21
50.7145
  0
LINE
  8
0
 10
73.7227
 20
50.7145
 11
74.073
 21
50.8532
  0
LINE
  8
0
 10
74.073
 20
50.8532
 11
74.4379
 21
50.9469
  0
LINE
  8
0
 10
74.4379
 20
50.9469
 11
74.8116
 21
50.9941
  0
LINE
  8
0
 10
74.8116
 20
50.9941
 11
75.1884
 21
50.9941
  0
LINE
  8
0
 10
75.1884
 20
50.9941
 11
75.5621
 21
50.9469
  0
LINE
  8
0
 10
75.5621
 20
50.9469
 11
75.927
 21
50.8532
  0
LINE
  8
0
 10
75.927
 20
50.8532
 11
76.2773
 21
50.7145
  0
LINE
  8
0
 10
76.2773
 20
50.7145
 11
76.6075
 21
50.533
  0
LINE
  8
0
 10
76.6075
 20
50.533
 11
76.9123
 21
50.3115
  0
LINE
  8
0
 10
76.9123
 20
50.3115
 11
77.1869
 21
50.0536
  0
LINE
  8
0
 10
77.1869
 20
50.0536
 11
77.427
 21
49.7634
  0
LINE
  8
0
 10
77.427
 20
49.7634
 11
77.6289
 21
49.4453
  0
LINE
  8
0
 10
77.6289
 20
49.4453
 11
77.7893
 21
49.1044
  0
LINE
  8
0
 10
77.7893
 20
49.1044
 11
77.9057
 21
48.7461
  0
LINE
  8
0
 10
77.9057
 20
48.7461
 11
77.9763
 21
48.376
  0
LINE
  8
0
 10
77.9763
 20
48.376
 11
78
 21
48
  0
LINE
  8
0
 10
78
 20
48
 11
77.9763
 21
47.624
  0
LINE
  8
0
 10
77.9763
 20
47.624
 11
77.9057
 21
47.2539
  0
LINE
  8
0
 10
77.9057
 20
47.2539
 11
77.7893
 21
46.8956
  0
LINE
  8
0
 10
77.7893
 20
46.8956
 11
77.6289
 21
46.5547
  0
LINE
  8
0
 10
77.6289
 20
46.5547
 11
77.427
 21
46.2366
  0
LINE
  8
0
 10
77.427
 20
46.2366
 11
77.1869
 21
45.9464
  0
LINE
  8
0
 10
77.1869
 20
45.9464
 11
76.9123
 21
45.6885
  0
LINE
  8
0
 10
76.9123
 20
45.6885
 11
76.6075
 21
45.467
  0
LINE
  8
0
 10
76.6075
 20
45.467
 11
76.2773
 21
45.2855
  0
LINE
  8
0
 10
76.2773
 20
45.2855
 11
75.927
 21
45.1468
  0
LINE
  8
0
 10
75.927
 20
45.1468
 11
75.5621
 21
45.0531
  0
LINE
  8
0
 10
75.5621
 20
45.0531
 11
75.1884
 21
45.0059
  0
LINE
  8
0
 10
75.1884
 20
45.0059
 11
74.8116
 21
45.0059
  0
LINE
  8
0
 10
-60.1884
 20
45.0059
 11
-60.5621
 21
45.0531
  0
LINE
  8
0
 10
-60.5621
 20
45.0531
 11
-60.927
 21
45.1468
  0
LINE
  8
0
 10
-60.927
 20
45.1468
 11
-61.2773
 21
45.2855
  0
LINE
  8
0
 10
-61.2773
 20
45.2855
 11
-61.6075
 21
45.467
  0
LINE
  8
0
 10
-61.6075
 20
45.467
 11
-61.9123
 21
45.6885
  0
LINE
  8
0
 10
-61.9123
 20
45.6885
 11
-62.1869
 21
45.9464
  0
LINE
  8
0
 10
-62.1869
 20
45.9464
 11
-62.427
 21
46.2366
  0
LINE
  8
0
 10
-62.427
 20
46.2366
 11
-62.6289
 21
46.5547
  0
LINE
  8
0
 10
-62.6289
 20
46.5547
 11
-62.7893
 21
46.8956
  0
LINE
  8
0
 10
-62.7893
 20
46.8956
 11
-62.9057
 21
47.2539
  0
LINE
  8
0
 10
-62.9057
 20
47.2539
 11
-62.9763
 21
47.624
  0
LINE
  8
0
 10
-62.9763
 20
47.624
 11
-63
 21
48
  0
LINE
  8
0
 10
-63
 20
48
 11
-62.9763
 21
48.376
  0
LINE
  8
0
 10
-62.9763
 20
48.376
 11
-62.9057
 21
48.7461
  0
LINE
  8
0
 10
-62.9057
 20
48.7461
 11
-62.7893
 21
49.1044
  0
LINE
  8
0
 10
-62.7893
 20
49.1044
 11
-62.6289
 21
49.4453
  0
LINE
  8
0
 10
-62.6289
 20
49.4453
 11
-62.427
 21
49.7634
  0
LINE
  8
0
 10
-62.427
 20
49.7634
 11
-62.1869
 21
50.0536
  0
LINE
  8
0
 10
-62.1869
 20
50.0536
 11
-61.9123
 21
50.3115
  0
LINE
  8
0
 10
-61.9123
 20
50.3115
 11
-61.6075
 21
50.533
  0
LINE
  8
0
 10
-61.6075
 20
50.533
 11
-61.2773
 21
50.7145
  0
LINE
  8
0
 10
-61.2773
 20
50.7145
 11
-60.927
 21
50.8532
  0
LINE
  8
0
 10
-60.927
 20
50.8532
 11
-60.5621
 21
50.9469
  0
LINE
  8
0
 10
-60.5621
 20
50.9469
 11
-60.1884
 21
50.9941
  0
LINE
  8
0
 10
-60.1884
 20
50.9941
 11
-59.8116
 21
50.9941
  0
LINE
  8
0
 10
-59.8116
 20
50.9941
 11
-59.4379
 21
50.9469
  0
LINE
  8
0
 10
-59.4379
 20
50.9469
 11
-59.0729
 21
50.8532
  0
LINE
  8
0
 10
-59.0729
 20
50.8532
 11
-58.7227
 21
50.7145
  0
LINE
  8
0
 10
-58.7227
 20
50.7145
 11
-58.3925
 21
50.533
  0
LINE
  8
0
 10
-58.3925
 20
50.533
 11
-58.0877
 21
50.3115
  0
LINE
  8
0
 10
-58.0877
 20
50.3115
 11
-57.8131
 21
50.0536
  0
LINE
  8
0
 10
-57.8131
 20
50.0536
 11
-57.5729
 21
49.7634
  0
LINE
  8
0
 10
-57.5729
 20
49.7634
 11
-57.3711
 21
49.4453
  0
LINE
  8
0
 10
-57.3711
 20
49.4453
 11
-57.2107
 21
49.1044
  0
LINE
  8
0
 10
-57.2107
 20
49.1044
 11
-57.0942
 21
48.7461
  0
LINE
  8
0
 10
-57.0942
 20
48.7461
 11
-57.0237
 21
48.376
  0
LINE
  8
0
 10
-57.0237
 20
48.376
 11
-57
 21
48
  0
LINE
  8
0
 10
-57
 20
48
 11
-57.0237
 21
47.624
  0
LINE
  8
0
 10
-57.0237
 20
47.624
 11
-57.0942
 21
47.2539
  0
LINE
  8
0
 10
-57.0942
 20
47.2539
 11
-57.2107
 21
46.8956
  0
LINE
  8
0
 10
-57.2107
 20
46.8956
 11
-57.3711
 21
46.5547
  0
LINE
  8
0
 10
-57.3711
 20
46.5547
 11
-57.5729
 21
46.2366
  0
LINE
  8
0
 10
-57.5729
 20
46.2366
 11
-57.8131
 21
45.9464
  0
LINE
  8
0
 10
-57.8131
 20
45.9464
 11
-58.0877
 21
45.6885
  0
LINE
  8
0
 10
-58.0877
 20
45.6885
 11
-58.3925
 21
45.467
  0
LINE
  8
0
 10
-58.3925
 20
45.467
 11
-58.7227
 21
45.2855
  0
LINE
  8
0
 10
-58.7227
 20
45.2855
 11
-59.0729
 21
45.1468
  0
LINE
  8
0
 10
-59.0729
 20
45.1468
 11
-59.4379
 21
45.0531
  0
LINE
  8
0
 10
-59.4379
 20
45.0531
 11
-59.8116
 21
45.0059
  0
LINE
  8
0
 10
-59.8116
 20
45.0059
 11
-60.1884
 21
45.0059
  0
LINE
  8
0
 10
-135.188
 20
45.0059
 11
-135.562
 21
45.0531
  0
LINE
  8
0
 10
-135.562
 20
45.0531
 11
-135.927
 21
45.1468
  0
LINE
  8
0
 10
-135.927
 20
45.1468
 11
-136.277
 21
45.2855
  0
LINE
  8
0
 10
-136.277
 20
45.2855
 11
-136.607
 21
45.467
  0
LINE
  8
0
 10
-136.607
 20
45.467
 11
-136.912
 21
45.6885
  0
LINE
  8
0
 10
-136.912
 20
45.6885
 11
-137.187
 21
45.9464
  0
LINE
  8
0
 10
-137.187
 20
45.9464
 11
-137.427
 21
46.2366
  0
LINE
  8
0
 10
-137.427
 20
46.2366
 11
-137.629
 21
46.5547
  0
LINE
  8
0
 10
-137.629
 20
46.5547
 11
-137.789
 21
46.8956
  0
LINE
  8
0
 10
-137.789
 20
46.8956
 11
-137.906
 21
47.2539
  0
LINE
  8
0
 10
-137.906
 20
47.2539
 11
-137.976
 21
47.624
  0
LINE
  8
0
 10
-137.976
 20
47.624
 11
-138
 21
48
  0
LINE
  8
0
 10
-138
 20
48
 11
-137.976
 21
48.376
  0
LINE
  8
0
 10
-137.976
 20
48.376
 11
-137.906
 21
48.7461
  0
LINE
  8
0
 10
-137.906
 20
48.7461
 11
-137.789
 21
49.1044
  0
LINE
  8
0
 10
-137.789
 20
49.1044
 11
-137.629
 21
49.4453
  0
LINE
  8
0
 10
-137.629
 20
49.4453
 11
-137.427
 21
49.7634
  0
LINE
  8
0
 10
-137.427
 20
49.7634
 11
-137.187
 21
50.0536
  0
LINE
  8
0
 10
-137.187
 20
50.0536
 11
-136.912
 21
50.3115
  0
LINE
  8
0
 10
-136.912
 20
50.3115
 11
-136.607
 21
50.533
  0
LINE
  8
0
 10
-136.607
 20
50.533
 11
-136.277
 21
50.7145
  0
LINE
  8
0
 10
-136.277
 20
50.7145
 11
-135.927
 21
50.8532
  0
LINE
  8
0
 10
-135.927
 20
50.8532
 11
-135.562
 21
50.9469
  0
LINE
  8
0
 10
-135.562
 20
50.9469
 11
-135.188
 21
50.9941
  0
LINE
  8
0
 10
-135.188
 20
50.9941
 11
-134.812
 21
50.9941
  0
LINE
  8
0
 10
-134.812
 20
50.9941
 11
-134.438
 21
50.9469
  0
LINE
  8
0
 10
-134.438
 20
50.9469
 11
-134.073
 21
50.8532
  0
LINE
  8
0
 10
-134.073
 20
50.8532
 11
-133.723
 21
50.7145
  0
LINE
  8
0
 10
-133.723
 20
50.7145
 11
-133.393
 21
50.533
  0
LINE
  8
0
 10
-133.393
 20
50.533
 11
-133.088
 21
50.3115
  0
LINE
  8
0
 10
-133.088
 20
50.3115
 11
-132.813
 21
50.0536
  0
LINE
  8
0
 10
-132.813
 20
50.0536
 11
-132.573
 21
49.7634
  0
LINE
  8
0
 10
-132.573
 20
49.7634
 11
-132.371
 21
49.4453
  0
LINE
  8
0
 10
-132.371
 20
49.4453
 11
-132.211
 21
49.1044
  0
LINE
  8
0
 10
-132.211
 20
49.1044
 11
-132.094
 21
48.7461
  0
LINE
  8
0
 10
-132.094
 20
48.7461
 11
-132.024
 21
48.376
  0
LINE
  8
0
 10
-132.024
 20
48.376
 11
-132
 21
48
  0
LINE
  8
0
 10
-132
 20
48
 11
-132.024
 21
47.624
  0
LINE
  8
0
 10
-132.024
 20
47.624
 11
-132.094
 21
47.2539
  0
LINE
  8
0
 10
-132.094
 20
47.2539
 11
-132.211
 21
46.8956
  0
LINE
  8
0
 10
-132.211
 20
46.8956
 11
-132.371
 21
46.5547
  0
LINE
  8
0
 10
-132.371
 20
46.5547
 11
-132.573
 21
46.2366
  0
LINE
  8
0
 10
-132.573
 20
46.2366
 11
-132.813
 21
45.9464
  0
LINE
  8
0
 10
-132.813
 20
45.9464
 11
-133.088
 21
45.6885
  0
LINE
  8
0
 10
-133.088
 20
45.6885
 11
-133.393
 21
45.467
  0
LINE
  8
0
 10
-133.393
 20
45.467
 11
-133.723
 21
45.2855
  0
LINE
  8
0
 10
-133.723
 20
45.2855
 11
-134.073
 21
45.1468
  0
LINE
  8
0
 10
-134.073
 20
45.1468
 11
-134.438
 21
45.0531
  0
LINE
  8
0
 10
-134.438
 20
45.0531
 11
-134.812
 21
45.0059
  0
LINE
  8
0
 10
-134.812
 20
45.0059
 11
-135.188
 21
45.0059
  0
LINE
  8
0
 10
29.8116
 20
45.0059
 11
29.4379
 21
45.0531
  0
LINE
  8
0
 10
29.4379
 20
45.0531
 11
29.0729
 21
45.1468
  0
LINE
  8
0
 10
29.0729
 20
45.1468
 11
28.7227
 21
45.2855
  0
LINE
  8
0
 10
28.7227
 20
45.2855
 11
28.3925
 21
45.467
  0
LINE
  8
0
 10
28.3925
 20
45.467
 11
28.0877
 21
45.6885
  0
LINE
  8
0
 10
28.0877
 20
45.6885
 11
27.8131
 21
45.9464
  0
LINE
  8
0
 10
27.8131
 20
45.9464
 11
27.5729
 21
46.2366
  0
LINE
  8
0
 10
27.5729
 20
46.2366
 11
27.3711
 21
46.5547
  0
LINE
  8
0
 10
27.3711
 20
46.5547
 11
27.2107
 21
46.8956
  0
LINE
  8
0
 10
27.2107
 20
46.8956
 11
27.0942
 21
47.2539
  0
LINE
  8
0
 10
27.0942
 20
47.2539
 11
27.0237
 21
47.624
  0
LINE
  8
0
 10
27.0237
 20
47.624
 11
27
 21
48
  0
LINE
  8
0
 10
27
 20
48
 11
27.0237
 21
48.376
  0
LINE
  8
0
 10
27.0237
 20
48.376
 11
27.0942
 21
48.7461
  0
LINE
  8
0
 10
27.0942
 20
48.7461
 11
27.2107
 21
49.1044
  0
LINE
  8
0
 10
27.2107
 20
49.1044
 11
27.3711
 21
49.4453
  0
LINE
  8
0
 10
27.3711
 20
49.4453
 11
27.5729
 21
49.7634
  0
LINE
  8
0
 10
27.5729
 20
49.7634
 11
27.8131
 21
50.0536
  0
LINE
  8
0
 10
27.8131
 20
50.0536
 11
28.0877
 21
50.3115
  0
LINE
  8
0
 10
28.0877
 20
50.3115
 11
28.3925
 21
50.533
  0
LINE
  8
0
 10
28.3925
 20
50.533
 11
28.7227
 21
50.7145
  0
LINE
  8
0
 10
28.7227
 20
50.7145
 11
29.0729
 21
50.8532
  0
LINE
  8
0
 10
29.0729
 20
50.8532
 11
29.4379
 21
50.9469
  0
LINE
  8
0
 10
29.4379
 20
50.9469
 11
29.8116
 21
50.9941
  0
LINE
  8
0
 10
29.8116
 20
50.9941
 11
30.1884
 21
50.9941
  0
LINE
  8
0
 10
30.1884
 20
50.9941
 11
30.5621
 21
50.9469
  0
LINE
  8
0
 10
30.5621
 20
50.9469
 11
30.927
 21
50.8532
  0
LINE
  8
0
 10
30.927
 20
50.8532
 11
31.2773
 21
50.7145
  0
LINE
  8
0
 10
31.2773
 20
50.7145
 11
31.6075
 21
50.533
  0
LINE
  8
0
 10
31.6075
 20
50.533
 11
31.9123
 21
50.3115
  0
LINE
  8
0
 10
31.9123
 20
50.3115
 11
32.1869
 21
50.0536
  0
LINE
  8
0
 10
32.1869
 20
50.0536
 11
32.427
 21
49.7634
  0
LINE
  8
0
 10
32.427
 20
49.7634
 11
32.6289
 21
49.4453
  0
LINE
  8
0
 10
32.6289
 20
49.4453
 11
32.7893
 21
49.1044
  0
LINE
  8
0
 10
32.7893
 20
49.1044
 11
32.9057
 21
48.7461
  0
LINE
  8
0
 10
32.9057
 20
48.7461
 11
32.9763
 21
48.376
  0
LINE
  8
0
 10
32.9763
 20
48.376
 11
33
 21
48
  0
LINE
  8
0
 10
33
 20
48
 11
32.9763
 21
47.624
  0
LINE
  8
0
 10
32.9763
 20
47.624
 11
32.9057
 21
47.2539
  0
LINE
  8
0
 10
32.9057
 20
47.2539
 11
32.7893
 21
46.8956
  0
LINE
  8
0
 10
32.7893
 20
46.8956
 11
32.6289
 21
46.5547
  0
LINE
  8
0
 10
32.6289
 20
46.5547
 11
32.427
 21
46.2366
  0
LINE
  8
0
 10
32.427
 20
46.2366
 11
32.1869
 21
45.9464
  0
LINE
  8
0
 10
32.1869
 20
45.9464
 11
31.9123
 21
45.6885
  0
LINE
  8
0
 10
31.9123
 20
45.6885
 11
31.6075
 21
45.467
  0
LINE
  8
0
 10
31.6075
 20
45.467
 11
31.2773
 21
45.2855
  0
LINE
  8
0
 10
31.2773
 20
45.2855
 11
30.927
 21
45.1468
  0
LINE
  8
0
 10
30.927
 20
45.1468
 11
30.5621
 21
45.0531
  0
LINE
  8
0
 10
30.5621
 20
45.0531
 11
30.1884
 21
45.0059
  0
LINE
  8
0
 10
30.1884
 20
45.0059
 11
29.8116
 21
45.0059
  0
LINE
  8
0
 10
-75.1884
 20
45.0059
 11
-75.5621
 21
45.0531
  0
LINE
  8
0
 10
-75.5621
 20
45.0531
 11
-75.927
 21
45.1468
  0
LINE
  8
0
 10
-75.927
 20
45.1468
 11
-76.2773
 21
45.2855
  0
LINE
  8
0
 10
-76.2773
 20
45.2855
 11
-76.6075
 21
45.467
  0
LINE
  8
0
 10
-76.6075
 20
45.467
 11
-76.9123
 21
45.6885
  0
LINE
  8
0
 10
-76.9123
 20
45.6885
 11
-77.1869
 21
45.9464
  0
LINE
  8
0
 10
-77.1869
 20
45.9464
 11
-77.427
 21
46.2366
  0
LINE
  8
0
 10
-77.427
 20
46.2366
 11
-77.6289
 21
46.5547
  0
LINE
  8
0
 10
-77.6289
 20
46.5547
 11
-77.7893
 21
46.8956
  0
LINE
  8
0
 10
-77.7893
 20
46.8956
 11
-77.9057
 21
47.2539
  0
LINE
  8
0
 10
-77.9057
 20
47.2539
 11
-77.9763
 21
47.624
  0
LINE
  8
0
 10
-77.9763
 20
47.624
 11
-78
 21
48
  0
LINE
  8
0
 10
-78
 20
48
 11
-77.9763
 21
48.376
  0
LINE
  8
0
 10
-77.9763
 20
48.376
 11
-77.9057
 21
48.7461
  0
LINE
  8
0
 10
-77.9057
 20
48.7461
 11
-77.7893
 21
49.1044
  0
LINE
  8
0
 10
-77.7893
 20
49.1044
 11
-77.6289
 21
49.4453
  0
LINE
  8
0
 10
-77.6289
 20
49.4453
 11
-77.427
 21
49.7634
  0
LINE
  8
0
 10
-77.427
 20
49.7634
 11
-77.1869
 21
50.0536
  0
LINE
  8
0
 10
-77.1869
 20
50.0536
 11
-76.9123
 21
50.3115
  0
LINE
  8
0
 10
-76.9123
 20
50.3115
 11
-76.6075
 21
50.533
  0
LINE
  8
0
 10
-76.6075
 20
50.533
 11
-76.2773
 21
50.7145
  0
LINE
  8
0
 10
-76.2773
 20
50.7145
 11
-75.927
 21
50.8532
  0
LINE
  8
0
 10
-75.927
 20
50.8532
 11
-75.5621
 21
50.9469
  0
LINE
  8
0
 10
-75.5621
 20
50.9469
 11
-75.1884
 21
50.9941
  0
LINE
  8
0
 10
-75.1884
 20
50.9941
 11
-74.8116
 21
50.9941
  0
LINE
  8
0
 10
-74.8116
 20
50.9941
 11
-74.4379
 21
50.9469
  0
LINE
  8
0
 10
-74.4379
 20
50.9469
 11
-74.073
 21
50.8532
  0
LINE
  8
0
 10
-74.073
 20
50.8532
 11
-73.7227
 21
50.7145
  0
LINE
  8
0
 10
-73.7227
 20
50.7145
 11
-73.3925
 21
50.533
  0
LINE
  8
0
 10
-73.3925
 20
50.533
 11
-73.0877
 21
50.3115
  0
LINE
  8
0
 10
-73.0877
 20
50.3115
 11
-72.8131
 21
50.0536
  0
LINE
  8
0
 10
-72.8131
 20
50.0536
 11
-72.573
 21
49.7634
  0
LINE
  8
0
 10
-72.573
 20
49.7634
 11
-72.3711
 21
49.4453
  0
LINE
  8
0
 10
-72.3711
 20
49.4453
 11
-72.2107
 21
49.1044
  0
LINE
  8
0
 10
-72.2107
 20
49.1044
 11
-72.0943
 21
48.7461
  0
LINE
  8
0
 10
-72.0943
 20
48.7461
 11
-72.0237
 21
48.376
  0
LINE
  8
0
 10
-72.0237
 20
48.376
 11
-72
 21
48
  0
LINE
  8
0
 10
-72
 20
48
 11
-72.0237
 21
47.624
  0
LINE
  8
0
 10
-72.0237
 20
47.624
 11
-72.0943
 21
47.2539
  0
LINE
  8
0
 10
-72.0943
 20
47.2539
 11
-72.2107
 21
46.8956
  0
LINE
  8
0
 10
-72.2107
 20
46.8956
 11
-72.3711
 21
46.5547
  0
LINE
  8
0
 10
-72.3711
 20
46.5547
 11
-72.573
 21
46.2366
  0
LINE
  8
0
 10
-72.573
 20
46.2366
 11
-72.8131
 21
45.9464
  0
LINE
  8
0
 10
-72.8131
 20
45.9464
 11
-73.0877
 21
45.6885
  0
LINE
  8
0
 10
-73.0877
 20
45.6885
 11
-73.3925
 21
45.467
  0
LINE
  8
0
 10
-73.3925
 20
45.467
 11
-73.7227
 21
45.2855
  0
LINE
  8
0
 10
-73.7227
 20
45.2855
 11
-74.073
 21
45.1468
  0
LINE
  8
0
 10
-74.073
 20
45.1468
 11
-74.4379
 21
45.0531
  0
LINE
  8
0
 10
-74.4379
 20
45.0531
 11
-74.8116
 21
45.0059
  0
LINE
  8
0
 10
-74.8116
 20
45.0059
 11
-75.1884
 21
45.0059
  0
LINE
  8
0
 10
-45.1884
 20
45.0059
 11
-45.5621
 21
45.0531
  0
LINE
  8
0
 10
-45.5621
 20
45.0531
 11
-45.927
 21
45.1468
  0
LINE
  8
0
 10
-45.927
 20
45.1468
 11
-46.2773
 21
45.2855
  0
LINE
  8
0
 10
-46.2773
 20
45.2855
 11
-46.6075
 21
45.467
  0
LINE
  8
0
 10
-46.6075
 20
45.467
 11
-46.9123
 21
45.6885
  0
LINE
  8
0
 10
-46.9123
 20
45.6885
 11
-47.1869
 21
45.9464
  0
LINE
  8
0
 10
-47.1869
 20
45.9464
 11
-47.427
 21
46.2366
  0
LINE
  8
0
 10
-47.427
 20
46.2366
 11
-47.6289
 21
46.5547
  0
LINE
  8
0
 10
-47.6289
 20
46.5547
 11
-47.7893
 21
46.8956
  0
LINE
  8
0
 10
-47.7893
 20
46.8956
 11
-47.9057
 21
47.2539
  0
LINE
  8
0
 10
-47.9057
 20
47.2539
 11
-47.9763
 21
47.624
  0
LINE
  8
0
 10
-47.9763
 20
47.624
 11
-48
 21
48
  0
LINE
  8
0
 10
-48
 20
48
 11
-47.9763
 21
48.376
  0
LINE
  8
0
 10
-47.9763
 20
48.376
 11
-47.9057
 21
48.7461
  0
LINE
  8
0
 10
-47.9057
 20
48.7461
 11
-47.7893
 21
49.1044
  0
LINE
  8
0
 10
-47.7893
 20
49.1044
 11
-47.6289
 21
49.4453
  0
LINE
  8
0
 10
-47.6289
 20
49.4453
 11
-47.427
 21
49.7634
  0
LINE
  8
0
 10
-47.427
 20
49.7634
 11
-47.1869
 21
50.0536
  0
LINE
  8
0
 10
-47.1869
 20
50.0536
 11
-46.9123
 21
50.3115
  0
LINE
  8
0
 10
-46.9123
 20
50.3115
 11
-46.6075
 21
50.533
  0
LINE
  8
0
 10
-46.6075
 20
50.533
 11
-46.2773
 21
50.7145
  0
LINE
  8
0
 10
-46.2773
 20
50.7145
 11
-45.927
 21
50.8532
  0
LINE
  8
0
 10
-45.927
 20
50.8532
 11
-45.5621
 21
50.9469
  0
LINE
  8
0
 10
-45.5621
 20
50.9469
 11
-45.1884
 21
50.9941
  0
LINE
  8
0
 10
-45.1884
 20
50.9941
 11
-44.8116
 21
50.9941
  0
LINE
  8
0
 10
-44.8116
 20
50.9941
 11
-44.4379
 21
50.9469
  0
LINE
  8
0
 10
-44.4379
 20
50.9469
 11
-44.0729
 21
50.8532
  0
LINE
  8
0
 10
-44.0729
 20
50.8532
 11
-43.7227
 21
50.7145
  0
LINE
  8
0
 10
-43.7227
 20
50.7145
 11
-43.3925
 21
50.533
  0
LINE
  8
0
 10
-43.3925
 20
50.533
 11
-43.0877
 21
50.3115
  0
LINE
  8
0
 10
-43.0877
 20
50.3115
 11
-42.8131
 21
50.0536
  0
LINE
  8
0
 10
-42.8131
 20
50.0536
 11
-42.5729
 21
49.7634
  0
LINE
  8
0
 10
-42.5729
 20
49.7634
 11
-42.3711
 21
49.4453
  0
LINE
  8
0
 10
-42.3711
 20
49.4453
 11
-42.2107
 21
49.1044
  0
LINE
  8
0
 10
-42.2107
 20
49.1044
 11
-42.0942
 21
48.7461
  0
LINE
  8
0
 10
-42.0942
 20
48.7461
 11
-42.0237
 21
48.376
  0
LINE
  8
0
 10
-42.0237
 20
48.376
 11
-42
 21
48
  0
LINE
  8
0
 10
-42
 20
48
 11
-42.0237
 21
47.624
  0
LINE
  8
0
 10
-42.0237
 20
47.624
 11
-42.0942
 21
47.2539
  0
LINE
  8
0
 10
-42.0942
 20
47.2539
 11
-42.2107
 21
46.8956
  0
LINE
  8
0
 10
-42.2107
 20
46.8956
 11
-42.3711
 21
46.5547
  0
LINE
  8
0
 10
-42.3711
 20
46.5547
 11
-42.5729
 21
46.2366
  0
LINE
  8
0
 10
-42.5729
 20
46.2366
 11
-42.8131
 21
45.9464
  0
LINE
  8
0
 10
-42.8131
 20
45.9464
 11
-43.0877
 21
45.6885
  0
LINE
  8
0
 10
-43.0877
 20
45.6885
 11
-43.3925
 21
45.467
  0
LINE
  8
0
 10
-43.3925
 20
45.467
 11
-43.7227
 21
45.2855
  0
LINE
  8
0
 10
-43.7227
 20
45.2855
 11
-44.0729
 21
45.1468
  0
LINE
  8
0
 10
-44.0729
 20
45.1468
 11
-44.4379
 21
45.0531
  0
LINE
  8
0
 10
-44.4379
 20
45.0531
 11
-44.8116
 21
45.0059
  0
LINE
  8
0
 10
-44.8116
 20
45.0059
 11
-45.1884
 21
45.0059
  0
LINE
  8
0
 10
194.812
 20
45.0059
 11
194.438
 21
45.0531
  0
LINE
  8
0
 10
194.438
 20
45.0531
 11
194.073
 21
45.1468
  0
LINE
  8
0
 10
194.073
 20
45.1468
 11
193.723
 21
45.2855
  0
LINE
  8
0
 10
193.723
 20
45.2855
 11
193.393
 21
45.467
  0
LINE
  8
0
 10
193.393
 20
45.467
 11
193.088
 21
45.6885
  0
LINE
  8
0
 10
193.088
 20
45.6885
 11
192.813
 21
45.9464
  0
LINE
  8
0
 10
192.813
 20
45.9464
 11
192.573
 21
46.2366
  0
LINE
  8
0
 10
192.573
 20
46.2366
 11
192.371
 21
46.5547
  0
LINE
  8
0
 10
192.371
 20
46.5547
 11
192.211
 21
46.8956
  0
LINE
  8
0
 10
192.211
 20
46.8956
 11
192.094
 21
47.2539
  0
LINE
  8
0
 10
192.094
 20
47.2539
 11
192.024
 21
47.624
  0
LINE
  8
0
 10
192.024
 20
47.624
 11
192
 21
48
  0
LINE
  8
0
 10
192
 20
48
 11
192.024
 21
48.376
  0
LINE
  8
0
 10
192.024
 20
48.376
 11
192.094
 21
48.7461
  0
LINE
  8
0
 10
192.094
 20
48.7461
 11
192.211
 21
49.1044
  0
LINE
  8
0
 10
192.211
 20
49.1044
 11
192.371
 21
49.4453
  0
LINE
  8
0
 10
192.371
 20
49.4453
 11
192.573
 21
49.7634
  0
LINE
  8
0
 10
192.573
 20
49.7634
 11
192.813
 21
50.0536
  0
LINE
  8
0
 10
192.813
 20
50.0536
 11
193.088
 21
50.3115
  0
LINE
  8
0
 10
193.088
 20
50.3115
 11
193.393
 21
50.533
  0
LINE
  8
0
 10
193.393
 20
50.533
 11
193.723
 21
50.7145
  0
LINE
  8
0
 10
193.723
 20
50.7145
 11
194.073
 21
50.8532
  0
LINE
  8
0
 10
194.073
 20
50.8532
 11
194.438
 21
50.9469
  0
LINE
  8
0
 10
194.438
 20
50.9469
 11
194.812
 21
50.9941
  0
LINE
  8
0
 10
194.812
 20
50.9941
 11
195.188
 21
50.9941
  0
LINE
  8
0
 10
195.188
 20
50.9941
 11
195.562
 21
50.9469
  0
LINE
  8
0
 10
195.562
 20
50.9469
 11
195.927
 21
50.8532
  0
LINE
  8
0
 10
195.927
 20
50.8532
 11
196.277
 21
50.7145
  0
LINE
  8
0
 10
196.277
 20
50.7145
 11
196.607
 21
50.533
  0
LINE
  8
0
 10
196.607
 20
50.533
 11
196.912
 21
50.3115
  0
LINE
  8
0
 10
196.912
 20
50.3115
 11
197.187
 21
50.0536
  0
LINE
  8
0
 10
197.187
 20
50.0536
 11
197.427
 21
49.7634
  0
LINE
  8
0
 10
197.427
 20
49.7634
 11
197.629
 21
49.4453
  0
LINE
  8
0
 10
197.629
 20
49.4453
 11
197.789
 21
49.1044
  0
LINE
  8
0
 10
197.789
 20
49.1044
 11
197.906
 21
48.7461
  0
LINE
  8
0
 10
197.906
 20
48.7461
 11
197.976
 21
48.376
  0
LINE
  8
0
 10
197.976
 20
48.376
 11
198
 21
48
  0
LINE
  8
0
 10
198
 20
48
 11
197.976
 21
47.624
  0
LINE
  8
0
 10
197.976
 20
47.624
 11
197.906
 21
47.2539
  0
LINE
  8
0
 10
197.906
 20
47.2539
 11
197.789
 21
46.8956
  0
LINE
  8
0
 10
197.789
 20
46.8956
 11
197.629
 21
46.5547
  0
LINE
  8
0
 10
197.629
 20
46.5547
 11
197.427
 21
46.2366
  0
LINE
  8
0
 10
197.427
 20
46.2366
 11
197.187
 21
45.9464
  0
LINE
  8
0
 10
197.187
 20
45.9464
 11
196.912
 21
45.6885
  0
LINE
  8
0
 10
196.912
 20
45.6885
 11
196.607
 21
45.467
  0
LINE
  8
0
 10
196.607
 20
45.467
 11
196.277
 21
45.2855
  0
LINE
  8
0
 10
196.277
 20
45.2855
 11
195.927
 21
45.1468
  0
LINE
  8
0
 10
195.927
 20
45.1468
 11
195.562
 21
45.0531
  0
LINE
  8
0
 10
195.562
 20
45.0531
 11
195.188
 21
45.0059
  0
LINE
  8
0
 10
195.188
 20
45.0059
 11
194.812
 21
45.0059
  0
LINE
  8
0
 10
164.812
 20
45.0059
 11
164.438
 21
45.0531
  0
LINE
  8
0
 10
164.438
 20
45.0531
 11
164.073
 21
45.1468
  0
LINE
  8
0
 10
164.073
 20
45.1468
 11
163.723
 21
45.2855
  0
LINE
  8
0
 10
163.723
 20
45.2855
 11
163.393
 21
45.467
  0
LINE
  8
0
 10
163.393
 20
45.467
 11
163.088
 21
45.6885
  0
LINE
  8
0
 10
163.088
 20
45.6885
 11
162.813
 21
45.9464
  0
LINE
  8
0
 10
162.813
 20
45.9464
 11
162.573
 21
46.2366
  0
LINE
  8
0
 10
162.573
 20
46.2366
 11
162.371
 21
46.5547
  0
LINE
  8
0
 10
162.371
 20
46.5547
 11
162.211
 21
46.8956
  0
LINE
  8
0
 10
162.211
 20
46.8956
 11
162.094
 21
47.2539
  0
LINE
  8
0
 10
162.094
 20
47.2539
 11
162.024
 21
47.624
  0
LINE
  8
0
 10
162.024
 20
47.624
 11
162
 21
48
  0
LINE
  8
0
 10
162
 20
48
 11
162.024
 21
48.376
  0
LINE
  8
0
 10
162.024
 20
48.376
 11
162.094
 21
48.7461
  0
LINE
  8
0
 10
162.094
 20
48.7461
 11
162.211
 21
49.1044
  0
LINE
  8
0
 10
162.211
 20
49.1044
 11
162.371
 21
49.4453
  0
LINE
  8
0
 10
162.371
 20
49.4453
 11
162.573
 21
49.7634
  0
LINE
  8
0
 10
162.573
 20
49.7634
 11
162.813
 21
50.0536
  0
LINE
  8
0
 10
162.813
 20
50.0536
 11
163.088
 21
50.3115
  0
LINE
  8
0
 10
163.088
 20
50.3115
 11
163.393
 21
50.533
  0
LINE
  8
0
 10
163.393
 20
50.533
 11
163.723
 21
50.7145
  0
LINE
  8
0
 10
163.723
 20
50.7145
 11
164.073
 21
50.8532
  0
LINE
  8
0
 10
164.073
 20
50.8532
 11
164.438
 21
50.9469
  0
LINE
  8
0
 10
164.438
 20
50.9469
 11
164.812
 21
50.9941
  0
LINE
  8
0
 10
164.812
 20
50.9941
 11
165.188
 21
50.9941
  0
LINE
  8
0
 10
165.188
 20
50.9941
 11
165.562
 21
50.9469
  0
LINE
  8
0
 10
165.562
 20
50.9469
 11
165.927
 21
50.8532
  0
LINE
  8
0
 10
165.927
 20
50.8532
 11
166.277
 21
50.7145
  0
LINE
  8
0
 10
166.277
 20
50.7145
 11
166.607
 21
50.533
  0
LINE
  8
0
 10
166.607
 20
50.533
 11
166.912
 21
50.3115
  0
LINE
  8
0
 10
166.912
 20
50.3115
 11
167.187
 21
50.0536
  0
LINE
  8
0
 10
167.187
 20
50.0536
 11
167.427
 21
49.7634
  0
LINE
  8
0
 10
167.427
 20
49.7634
 11
167.629
 21
49.4453
  0
LINE
  8
0
 10
167.629
 20
49.4453
 11
167.789
 21
49.1044
  0
LINE
  8
0
 10
167.789
 20
49.1044
 11
167.906
 21
48.7461
  0
LINE
  8
0
 10
167.906
 20
48.7461
 11
167.976
 21
48.376
  0
LINE
  8
0
 10
167.976
 20
48.376
 11
168
 21
48
  0
LINE
  8
0
 10
168
 20
48
 11
167.976
 21
47.624
  0
LINE
  8
0
 10
167.976
 20
47.624
 11
167.906
 21
47.2539
  0
LINE
  8
0
 10
167.906
 20
47.2539
 11
167.789
 21
46.8956
  0
LINE
  8
0
 10
167.789
 20
46.8956
 11
167.629
 21
46.5547
  0
LINE
  8
0
 10
167.629
 20
46.5547
 11
167.427
 21
46.2366
  0
LINE
  8
0
 10
167.427
 20
46.2366
 11
167.187
 21
45.9464
  0
LINE
  8
0
 10
167.187
 20
45.9464
 11
166.912
 21
45.6885
  0
LINE
  8
0
 10
166.912
 20
45.6885
 11
166.607
 21
45.467
  0
LINE
  8
0
 10
166.607
 20
45.467
 11
166.277
 21
45.2855
  0
LINE
  8
0
 10
166.277
 20
45.2855
 11
165.927
 21
45.1468
  0
LINE
  8
0
 10
165.927
 20
45.1468
 11
165.562
 21
45.0531
  0
LINE
  8
0
 10
165.562
 20
45.0531
 11
165.188
 21
45.0059
  0
LINE
  8
0
 10
165.188
 20
45.0059
 11
164.812
 21
45.0059
  0
LINE
  8
0
 10
-90.1884
 20
45.0059
 11
-90.5621
 21
45.0531
  0
LINE
  8
0
 10
-90.5621
 20
45.0531
 11
-90.927
 21
45.1468
  0
LINE
  8
0
 10
-90.927
 20
45.1468
 11
-91.2773
 21
45.2855
  0
LINE
  8
0
 10
-91.2773
 20
45.2855
 11
-91.6075
 21
45.467
  0
LINE
  8
0
 10
-91.6075
 20
45.467
 11
-91.9123
 21
45.6885
  0
LINE
  8
0
 10
-91.9123
 20
45.6885
 11
-92.1869
 21
45.9464
  0
LINE
  8
0
 10
-92.1869
 20
45.9464
 11
-92.427
 21
46.2366
  0
LINE
  8
0
 10
-92.427
 20
46.2366
 11
-92.6289
 21
46.5547
  0
LINE
  8
0
 10
-92.6289
 20
46.5547
 11
-92.7893
 21
46.8956
  0
LINE
  8
0
 10
-92.7893
 20
46.8956
 11
-92.9057
 21
47.2539
  0
LINE
  8
0
 10
-92.9057
 20
47.2539
 11
-92.9763
 21
47.624
  0
LINE
  8
0
 10
-92.9763
 20
47.624
 11
-93
 21
48
  0
LINE
  8
0
 10
-93
 20
48
 11
-92.9763
 21
48.376
  0
LINE
  8
0
 10
-92.9763
 20
48.376
 11
-92.9057
 21
48.7461
  0
LINE
  8
0
 10
-92.9057
 20
48.7461
 11
-92.7893
 21
49.1044
  0
LINE
  8
0
 10
-92.7893
 20
49.1044
 11
-92.6289
 21
49.4453
  0
LINE
  8
0
 10
-92.6289
 20
49.4453
 11
-92.427
 21
49.7634
  0
LINE
  8
0
 10
-92.427
 20
49.7634
 11
-92.1869
 21
50.0536
  0
LINE
  8
0
 10
-92.1869
 20
50.0536
 11
-91.9123
 21
50.3115
  0
LINE
  8
0
 10
-91.9123
 20
50.3115
 11
-91.6075
 21
50.533
  0
LINE
  8
0
 10
-91.6075
 20
50.533
 11
-91.2773
 21
50.7145
  0
LINE
  8
0
 10
-91.2773
 20
50.7145
 11
-90.927
 21
50.8532
  0
LINE
  8
0
 10
-90.927
 20
50.8532
 11
-90.5621
 21
50.9469
  0
LINE
  8
0
 10
-90.5621
 20
50.9469
 11
-90.1884
 21
50.9941
  0
LINE
  8
0
 10
-90.1884
 20
50.9941
 11
-89.8116
 21
50.9941
  0
LINE
  8
0
 10
-89.8116
 20
50.9941
 11
-89.4379
 21
50.9469
  0
LINE
  8
0
 10
-89.4379
 20
50.9469
 11
-89.073
 21
50.8532
  0
LINE
  8
0
 10
-89.073
 20
50.8532
 11
-88.7227
 21
50.7145
  0
LINE
  8
0
 10
-88.7227
 20
50.7145
 11
-88.3925
 21
50.533
  0
LINE
  8
0
 10
-88.3925
 20
50.533
 11
-88.0877
 21
50.3115
  0
LINE
  8
0
 10
-88.0877
 20
50.3115
 11
-87.8131
 21
50.0536
  0
LINE
  8
0
 10
-87.8131
 20
50.0536
 11
-87.573
 21
49.7634
  0
LINE
  8
0
 10
-87.573
 20
49.7634
 11
-87.3711
 21
49.4453
  0
LINE
  8
0
 10
-87.3711
 20
49.4453
 11
-87.2107
 21
49.1044
  0
LINE
  8
0
 10
-87.2107
 20
49.1044
 11
-87.0943
 21
48.7461
  0
LINE
  8
0
 10
-87.0943
 20
48.7461
 11
-87.0237
 21
48.376
  0
LINE
  8
0
 10
-87.0237
 20
48.376
 11
-87
 21
48
  0
LINE
  8
0
 10
-87
 20
48
 11
-87.0237
 21
47.624
  0
LINE
  8
0
 10
-87.0237
 20
47.624
 11
-87.0943
 21
47.2539
  0
LINE
  8
0
 10
-87.0943
 20
47.2539
 11
-87.2107
 21
46.8956
  0
LINE
  8
0
 10
-87.2107
 20
46.8956
 11
-87.3711
 21
46.5547
  0
LINE
  8
0
 10
-87.3711
 20
46.5547
 11
-87.573
 21
46.2366
  0
LINE
  8
0
 10
-87.573
 20
46.2366
 11
-87.8131
 21
45.9464
  0
LINE
  8
0
 10
-87.8131
 20
45.9464
 11
-88.0877
 21
45.6885
  0
LINE
  8
0
 10
-88.0877
 20
45.6885
 11
-88.3925
 21
45.467
  0
LINE
  8
0
 10
-88.3925
 20
45.467
 11
-88.7227
 21
45.2855
  0
LINE
  8
0
 10
-88.7227
 20
45.2855
 11
-89.073
 21
45.1468
  0
LINE
  8
0
 10
-89.073
 20
45.1468
 11
-89.4379
 21
45.0531
  0
LINE
  8
0
 10
-89.4379
 20
45.0531
 11
-89.8116
 21
45.0059
  0
LINE
  8
0
 10
-89.8116
 20
45.0059
 11
-90.1884
 21
45.0059
  0
LINE
  8
0
 10
44.8116
 20
45.0059
 11
44.4379
 21
45.0531
  0
LINE
  8
0
 10
44.4379
 20
45.0531
 11
44.0729
 21
45.1468
  0
LINE
  8
0
 10
44.0729
 20
45.1468
 11
43.7227
 21
45.2855
  0
LINE
  8
0
 10
43.7227
 20
45.2855
 11
43.3925
 21
45.467
  0
LINE
  8
0
 10
43.3925
 20
45.467
 11
43.0877
 21
45.6885
  0
LINE
  8
0
 10
43.0877
 20
45.6885
 11
42.8131
 21
45.9464
  0
LINE
  8
0
 10
42.8131
 20
45.9464
 11
42.5729
 21
46.2366
  0
LINE
  8
0
 10
42.5729
 20
46.2366
 11
42.3711
 21
46.5547
  0
LINE
  8
0
 10
42.3711
 20
46.5547
 11
42.2107
 21
46.8956
  0
LINE
  8
0
 10
42.2107
 20
46.8956
 11
42.0942
 21
47.2539
  0
LINE
  8
0
 10
42.0942
 20
47.2539
 11
42.0237
 21
47.624
  0
LINE
  8
0
 10
42.0237
 20
47.624
 11
42
 21
48
  0
LINE
  8
0
 10
42
 20
48
 11
42.0237
 21
48.376
  0
LINE
  8
0
 10
42.0237
 20
48.376
 11
42.0942
 21
48.7461
  0
LINE
  8
0
 10
42.0942
 20
48.7461
 11
42.2107
 21
49.1044
  0
LINE
  8
0
 10
42.2107
 20
49.1044
 11
42.3711
 21
49.4453
  0
LINE
  8
0
 10
42.3711
 20
49.4453
 11
42.5729
 21
49.7634
  0
LINE
  8
0
 10
42.5729
 20
49.7634
 11
42.8131
 21
50.0536
  0
LINE
  8
0
 10
42.8131
 20
50.0536
 11
43.0877
 21
50.3115
  0
LINE
  8
0
 10
43.0877
 20
50.3115
 11
43.3925
 21
50.533
  0
LINE
  8
0
 10
43.3925
 20
50.533
 11
43.7227
 21
50.7145
  0
LINE
  8
0
 10
43.7227
 20
50.7145
 11
44.0729
 21
50.8532
  0
LINE
  8
0
 10
44.0729
 20
50.8532
 11
44.4379
 21
50.9469
  0
LINE
  8
0
 10
44.4379
 20
50.9469
 11
44.8116
 21
50.9941
  0
LINE
  8
0
 10
44.8116
 20
50.9941
 11
45.1884
 21
50.9941
  0
LINE
  8
0
 10
45.1884
 20
50.9941
 11
45.5621
 21
50.9469
  0
LINE
  8
0
 10
45.5621
 20
50.9469
 11
45.927
 21
50.8532
  0
LINE
  8
0
 10
45.927
 20
50.8532
 11
46.2773
 21
50.7145
  0
LINE
  8
0
 10
46.2773
 20
50.7145
 11
46.6075
 21
50.533
  0
LINE
  8
0
 10
46.6075
 20
50.533
 11
46.9123
 21
50.3115
  0
LINE
  8
0
 10
46.9123
 20
50.3115
 11
47.1869
 21
50.0536
  0
LINE
  8
0
 10
47.1869
 20
50.0536
 11
47.427
 21
49.7634
  0
LINE
  8
0
 10
47.427
 20
49.7634
 11
47.6289
 21
49.4453
  0
LINE
  8
0
 10
47.6289
 20
49.4453
 11
47.7893
 21
49.1044
  0
LINE
  8
0
 10
47.7893
 20
49.1044
 11
47.9057
 21
48.7461
  0
LINE
  8
0
 10
47.9057
 20
48.7461
 11
47.9763
 21
48.376
  0
LINE
  8
0
 10
47.9763
 20
48.376
 11
48
 21
48
  0
LINE
  8
0
 10
48
 20
48
 11
47.9763
 21
47.624
  0
LINE
  8
0
 10
47.9763
 20
47.624
 11
47.9057
 21
47.2539
  0
LINE
  8
0
 10
47.9057
 20
47.2539
 11
47.7893
 21
46.8956
  0
LINE
  8
0
 10
47.7893
 20
46.8956
 11
47.6289
 21
46.5547
  0
LINE
  8
0
 10
47.6289
 20
46.5547
 11
47.427
 21
46.2366
  0
LINE
  8
0
 10
47.427
 20
46.2366
 11
47.1869
 21
45.9464
  0
LINE
  8
0
 10
47.1869
 20
45.9464
 11
46.9123
 21
45.6885
  0
LINE
  8
0
 10
46.9123
 20
45.6885
 11
46.6075
 21
45.467
  0
LINE
  8
0
 10
46.6075
 20
45.467
 11
46.2773
 21
45.2855
  0
LINE
  8
0
 10
46.2773
 20
45.2855
 11
45.927
 21
45.1468
  0
LINE
  8
0
 10
45.927
 20
45.1468
 11
45.5621
 21
45.0531
  0
LINE
  8
0
 10
45.5621
 20
45.0531
 11
45.1884
 21
45.0059
  0
LINE
  8
0
 10
45.1884
 20
45.0059
 11
44.8116
 21
45.0059
  0
LINE
  8
0
 10
-120.188
 20
45.0059
 11
-120.562
 21
45.0531
  0
LINE
  8
0
 10
-120.562
 20
45.0531
 11
-120.927
 21
45.1468
  0
LINE
  8
0
 10
-120.927
 20
45.1468
 11
-121.277
 21
45.2855
  0
LINE
  8
0
 10
-121.277
 20
45.2855
 11
-121.607
 21
45.467
  0
LINE
  8
0
 10
-121.607
 20
45.467
 11
-121.912
 21
45.6885
  0
LINE
  8
0
 10
-121.912
 20
45.6885
 11
-122.187
 21
45.9464
  0
LINE
  8
0
 10
-122.187
 20
45.9464
 11
-122.427
 21
46.2366
  0
LINE
  8
0
 10
-122.427
 20
46.2366
 11
-122.629
 21
46.5547
  0
LINE
  8
0
 10
-122.629
 20
46.5547
 11
-122.789
 21
46.8956
  0
LINE
  8
0
 10
-122.789
 20
46.8956
 11
-122.906
 21
47.2539
  0
LINE
  8
0
 10
-122.906
 20
47.2539
 11
-122.976
 21
47.624
  0
LINE
  8
0
 10
-122.976
 20
47.624
 11
-123
 21
48
  0
LINE
  8
0
 10
-123
 20
48
 11
-122.976
 21
48.376
  0
LINE
  8
0
 10
-122.976
 20
48.376
 11
-122.906
 21
48.7461
  0
LINE
  8
0
 10
-122.906
 20
48.7461
 11
-122.789
 21
49.1044
  0
LINE
  8
0
 10
-122.789
 20
49.1044
 11
-122.629
 21
49.4453
  0
LINE
  8
0
 10
-122.629
 20
49.4453
 11
-122.427
 21
49.7634
  0
LINE
  8
0
 10
-122.427
 20
49.7634
 11
-122.187
 21
50.0536
  0
LINE
  8
0
 10
-122.187
 20
50.0536
 11
-121.912
 21
50.3115
  0
LINE
  8
0
 10
-121.912
 20
50.3115
 11
-121.607
 21
50.533
  0
LINE
  8
0
 10
-121.607
 20
50.533
 11
-121.277
 21
50.7145
  0
LINE
  8
0
 10
-121.277
 20
50.7145
 11
-120.927
 21
50.8532
  0
LINE
  8
0
 10
-120.927
 20
50.8532
 11
-120.562
 21
50.9469
  0
LINE
  8
0
 10
-120.562
 20
50.9469
 11
-120.188
 21
50.9941
  0
LINE
  8
0
 10
-120.188
 20
50.9941
 11
-119.812
 21
50.9941
  0
LINE
  8
0
 10
-119.812
 20
50.9941
 11
-119.438
 21
50.9469
  0
LINE
  8
0
 10
-119.438
 20
50.9469
 11
-119.073
 21
50.8532
  0
LINE
  8
0
 10
-119.073
 20
50.8532
 11
-118.723
 21
50.7145
  0
LINE
  8
0
 10
-118.723
 20
50.7145
 11
-118.393
 21
50.533
  0
LINE
  8
0
 10
-118.393
 20
50.533
 11
-118.088
 21
50.3115
  0
LINE
  8
0
 10
-118.088
 20
50.3115
 11
-117.813
 21
50.0536
  0
LINE
  8
0
 10
-117.813
 20
50.0536
 11
-117.573
 21
49.7634
  0
LINE
  8
0
 10
-117.573
 20
49.7634
 11
-117.371
 21
49.4453
  0
LINE
  8
0
 10
-117.371
 20
49.4453
 11
-117.211
 21
49.1044
  0
LINE
  8
0
 10
-117.211
 20
49.1044
 11
-117.094
 21
48.7461
  0
LINE
  8
0
 10
-117.094
 20
48.7461
 11
-117.024
 21
48.376
  0
LINE
  8
0
 10
-117.024
 20
48.376
 11
-117
 21
48
  0
LINE
  8
0
 10
-117
 20
48
 11
-117.024
 21
47.624
  0
LINE
  8
0
 10
-117.024
 20
47.624
 11
-117.094
 21
47.2539
  0
LINE
  8
0
 10
-117.094
 20
47.2539
 11
-117.211
 21
46.8956
  0
LINE
  8
0
 10
-117.211
 20
46.8956
 11
-117.371
 21
46.5547
  0
LINE
  8
0
 10
-117.371
 20
46.5547
 11
-117.573
 21
46.2366
  0
LINE
  8
0
 10
-117.573
 20
46.2366
 11
-117.813
 21
45.9464
  0
LINE
  8
0
 10
-117.813
 20
45.9464
 11
-118.088
 21
45.6885
  0
LINE
  8
0
 10
-118.088
 20
45.6885
 11
-118.393
 21
45.467
  0
LINE
  8
0
 10
-118.393
 20
45.467
 11
-118.723
 21
45.2855
  0
LINE
  8
0
 10
-118.723
 20
45.2855
 11
-119.073
 21
45.1468
  0
LINE
  8
0
 10
-119.073
 20
45.1468
 11
-119.438
 21
45.0531
  0
LINE
  8
0
 10
-119.438
 20
45.0531
 11
-119.812
 21
45.0059
  0
LINE
  8
0
 10
-119.812
 20
45.0059
 11
-120.188
 21
45.0059
  0
LINE
  8
0
 10
59.8116
 20
45.0059
 11
59.4379
 21
45.0531
  0
LINE
  8
0
 10
59.4379
 20
45.0531
 11
59.0729
 21
45.1468
  0
LINE
  8
0
 10
59.0729
 20
45.1468
 11
58.7227
 21
45.2855
  0
LINE
  8
0
 10
58.7227
 20
45.2855
 11
58.3925
 21
45.467
  0
LINE
  8
0
 10
58.3925
 20
45.467
 11
58.0877
 21
45.6885
  0
LINE
  8
0
 10
58.0877
 20
45.6885
 11
57.8131
 21
45.9464
  0
LINE
  8
0
 10
57.8131
 20
45.9464
 11
57.5729
 21
46.2366
  0
LINE
  8
0
 10
57.5729
 20
46.2366
 11
57.3711
 21
46.5547
  0
LINE
  8
0
 10
57.3711
 20
46.5547
 11
57.2107
 21
46.8956
  0
LINE
  8
0
 10
57.2107
 20
46.8956
 11
57.0942
 21
47.2539
  0
LINE
  8
0
 10
57.0942
 20
47.2539
 11
57.0237
 21
47.624
  0
LINE
  8
0
 10
57.0237
 20
47.624
 11
57
 21
48
  0
LINE
  8
0
 10
57
 20
48
 11
57.0237
 21
48.376
  0
LINE
  8
0
 10
57.0237
 20
48.376
 11
57.0942
 21
48.7461
  0
LINE
  8
0
 10
57.0942
 20
48.7461
 11
57.2107
 21
49.1044
  0
LINE
  8
0
 10
57.2107
 20
49.1044
 11
57.3711
 21
49.4453
  0
LINE
  8
0
 10
57.3711
 20
49.4453
 11
57.5729
 21
49.7634
  0
LINE
  8
0
 10
57.5729
 20
49.7634
 11
57.8131
 21
50.0536
  0
LINE
  8
0
 10
57.8131
 20
50.0536
 11
58.0877
 21
50.3115
  0
LINE
  8
0
 10
58.0877
 20
50.3115
 11
58.3925
 21
50.533
  0
LINE
  8
0
 10
58.3925
 20
50.533
 11
58.7227
 21
50.7145
  0
LINE
  8
0
 10
58.7227
 20
50.7145
 11
59.0729
 21
50.8532
  0
LINE
  8
0
 10
59.0729
 20
50.8532
 11
59.4379
 21
50.9469
  0
LINE
  8
0
 10
59.4379
 20
50.9469
 11
59.8116
 21
50.9941
  0
LINE
  8
0
 10
59.8116
 20
50.9941
 11
60.1884
 21
50.9941
  0
LINE
  8
0
 10
60.1884
 20
50.9941
 11
60.5621
 21
50.9469
  0
LINE
  8
0
 10
60.5621
 20
50.9469
 11
60.927
 21
50.8532
  0
LINE
  8
0
 10
60.927
 20
50.8532
 11
61.2773
 21
50.7145
  0
LINE
  8
0
 10
61.2773
 20
50.7145
 11
61.6075
 21
50.533
  0
LINE
  8
0
 10
61.6075
 20
50.533
 11
61.9123
 21
50.3115
  0
LINE
  8
0
 10
61.9123
 20
50.3115
 11
62.1869
 21
50.0536
  0
LINE
  8
0
 10
62.1869
 20
50.0536
 11
62.427
 21
49.7634
  0
LINE
  8
0
 10
62.427
 20
49.7634
 11
62.6289
 21
49.4453
  0
LINE
  8
0
 10
62.6289
 20
49.4453
 11
62.7893
 21
49.1044
  0
LINE
  8
0
 10
62.7893
 20
49.1044
 11
62.9057
 21
48.7461
  0
LINE
  8
0
 10
62.9057
 20
48.7461
 11
62.9763
 21
48.376
  0
LINE
  8
0
 10
62.9763
 20
48.376
 11
63
 21
48
  0
LINE
  8
0
 10
63
 20
48
 11
62.9763
 21
47.624
  0
LINE
  8
0
 10
62.9763
 20
47.624
 11
62.9057
 21
47.2539
  0
LINE
  8
0
 10
62.9057
 20
47.2539
 11
62.7893
 21
46.8956
  0
LINE
  8
0
 10
62.7893
 20
46.8956
 11
62.6289
 21
46.5547
  0
LINE
  8
0
 10
62.6289
 20
46.5547
 11
62.427
 21
46.2366
  0
LINE
  8
0
 10
62.427
 20
46.2366
 11
62.1869
 21
45.9464
  0
LINE
  8
0
 10
62.1869
 20
45.9464
 11
61.9123
 21
45.6885
  0
LINE
  8
0
 10
61.9123
 20
45.6885
 11
61.6075
 21
45.467
  0
LINE
  8
0
 10
61.6075
 20
45.467
 11
61.2773
 21
45.2855
  0
LINE
  8
0
 10
61.2773
 20
45.2855
 11
60.927
 21
45.1468
  0
LINE
  8
0
 10
60.927
 20
45.1468
 11
60.5621
 21
45.0531
  0
LINE
  8
0
 10
60.5621
 20
45.0531
 11
60.1884
 21
45.0059
  0
LINE
  8
0
 10
60.1884
 20
45.0059
 11
59.8116
 21
45.0059
  0
LINE
  8
0
 10
-105.188
 20
45.0059
 11
-105.562
 21
45.0531
  0
LINE
  8
0
 10
-105.562
 20
45.0531
 11
-105.927
 21
45.1468
  0
LINE
  8
0
 10
-105.927
 20
45.1468
 11
-106.277
 21
45.2855
  0
LINE
  8
0
 10
-106.277
 20
45.2855
 11
-106.607
 21
45.467
  0
LINE
  8
0
 10
-106.607
 20
45.467
 11
-106.912
 21
45.6885
  0
LINE
  8
0
 10
-106.912
 20
45.6885
 11
-107.187
 21
45.9464
  0
LINE
  8
0
 10
-107.187
 20
45.9464
 11
-107.427
 21
46.2366
  0
LINE
  8
0
 10
-107.427
 20
46.2366
 11
-107.629
 21
46.5547
  0
LINE
  8
0
 10
-107.629
 20
46.5547
 11
-107.789
 21
46.8956
  0
LINE
  8
0
 10
-107.789
 20
46.8956
 11
-107.906
 21
47.2539
  0
LINE
  8
0
 10
-107.906
 20
47.2539
 11
-107.976
 21
47.624
  0
LINE
  8
0
 10
-107.976
 20
47.624
 11
-108
 21
48
  0
LINE
  8
0
 10
-108
 20
48
 11
-107.976
 21
48.376
  0
LINE
  8
0
 10
-107.976
 20
48.376
 11
-107.906
 21
48.7461
  0
LINE
  8
0
 10
-107.906
 20
48.7461
 11
-107.789
 21
49.1044
  0
LINE
  8
0
 10
-107.789
 20
49.1044
 11
-107.629
 21
49.4453
  0
LINE
  8
0
 10
-107.629
 20
49.4453
 11
-107.427
 21
49.7634
  0
LINE
  8
0
 10
-107.427
 20
49.7634
 11
-107.187
 21
50.0536
  0
LINE
  8
0
 10
-107.187
 20
50.0536
 11
-106.912
 21
50.3115
  0
LINE
  8
0
 10
-106.912
 20
50.3115
 11
-106.607
 21
50.533
  0
LINE
  8
0
 10
-106.607
 20
50.533
 11
-106.277
 21
50.7145
  0
LINE
  8
0
 10
-106.277
 20
50.7145
 11
-105.927
 21
50.8532
  0
LINE
  8
0
 10
-105.927
 20
50.8532
 11
-105.562
 21
50.9469
  0
LINE
  8
0
 10
-105.562
 20
50.9469
 11
-105.188
 21
50.9941
  0
LINE
  8
0
 10
-105.188
 20
50.9941
 11
-104.812
 21
50.9941
  0
LINE
  8
0
 10
-104.812
 20
50.9941
 11
-104.438
 21
50.9469
  0
LINE
  8
0
 10
-104.438
 20
50.9469
 11
-104.073
 21
50.8532
  0
LINE
  8
0
 10
-104.073
 20
50.8532
 11
-103.723
 21
50.7145
  0
LINE
  8
0
 10
-103.723
 20
50.7145
 11
-103.393
 21
50.533
  0
LINE
  8
0
 10
-103.393
 20
50.533
 11
-103.088
 21
50.3115
  0
LINE
  8
0
 10
-103.088
 20
50.3115
 11
-102.813
 21
50.0536
  0
LINE
  8
0
 10
-102.813
 20
50.0536
 11
-102.573
 21
49.7634
  0
LINE
  8
0
 10
-102.573
 20
49.7634
 11
-102.371
 21
49.4453
  0
LINE
  8
0
 10
-102.371
 20
49.4453
 11
-102.211
 21
49.1044
  0
LINE
  8
0
 10
-102.211
 20
49.1044
 11
-102.094
 21
48.7461
  0
LINE
  8
0
 10
-102.094
 20
48.7461
 11
-102.024
 21
48.376
  0
LINE
  8
0
 10
-102.024
 20
48.376
 11
-102
 21
48
  0
LINE
  8
0
 10
-102
 20
48
 11
-102.024
 21
47.624
  0
LINE
  8
0
 10
-102.024
 20
47.624
 11
-102.094
 21
47.2539
  0
LINE
  8
0
 10
-102.094
 20
47.2539
 11
-102.211
 21
46.8956
  0
LINE
  8
0
 10
-102.211
 20
46.8956
 11
-102.371
 21
46.5547
  0
LINE
  8
0
 10
-102.371
 20
46.5547
 11
-102.573
 21
46.2366
  0
LINE
  8
0
 10
-102.573
 20
46.2366
 11
-102.813
 21
45.9464
  0
LINE
  8
0
 10
-102.813
 20
45.9464
 11
-103.088
 21
45.6885
  0
LINE
  8
0
 10
-103.088
 20
45.6885
 11
-103.393
 21
45.467
  0
LINE
  8
0
 10
-103.393
 20
45.467
 11
-103.723
 21
45.2855
  0
LINE
  8
0
 10
-103.723
 20
45.2855
 11
-104.073
 21
45.1468
  0
LINE
  8
0
 10
-104.073
 20
45.1468
 11
-104.438
 21
45.0531
  0
LINE
  8
0
 10
-104.438
 20
45.0531
 11
-104.812
 21
45.0059
  0
LINE
  8
0
 10
-104.812
 20
45.0059
 11
-105.188
 21
45.0059
  0
LINE
  8
0
 10
-165.188
 20
45.0059
 11
-165.562
 21
45.0531
  0
LINE
  8
0
 10
-165.562
 20
45.0531
 11
-165.927
 21
45.1468
  0
LINE
  8
0
 10
-165.927
 20
45.1468
 11
-166.277
 21
45.2855
  0
LINE
  8
0
 10
-166.277
 20
45.2855
 11
-166.607
 21
45.467
  0
LINE
  8
0
 10
-166.607
 20
45.467
 11
-166.912
 21
45.6885
  0
LINE
  8
0
 10
-166.912
 20
45.6885
 11
-167.187
 21
45.9464
  0
LINE
  8
0
 10
-167.187
 20
45.9464
 11
-167.427
 21
46.2366
  0
LINE
  8
0
 10
-167.427
 20
46.2366
 11
-167.629
 21
46.5547
  0
LINE
  8
0
 10
-167.629
 20
46.5547
 11
-167.789
 21
46.8956
  0
LINE
  8
0
 10
-167.789
 20
46.8956
 11
-167.906
 21
47.2539
  0
LINE
  8
0
 10
-167.906
 20
47.2539
 11
-167.976
 21
47.624
  0
LINE
  8
0
 10
-167.976
 20
47.624
 11
-168
 21
48
  0
LINE
  8
0
 10
-168
 20
48
 11
-167.976
 21
48.376
  0
LINE
  8
0
 10
-167.976
 20
48.376
 11
-167.906
 21
48.7461
  0
LINE
  8
0
 10
-167.906
 20
48.7461
 11
-167.789
 21
49.1044
  0
LINE
  8
0
 10
-167.789
 20
49.1044
 11
-167.629
 21
49.4453
  0
LINE
  8
0
 10
-167.629
 20
49.4453
 11
-167.427
 21
49.7634
  0
LINE
  8
0
 10
-167.427
 20
49.7634
 11
-167.187
 21
50.0536
  0
LINE
  8
0
 10
-167.187
 20
50.0536
 11
-166.912
 21
50.3115
  0
LINE
  8
0
 10
-166.912
 20
50.3115
 11
-166.607
 21
50.533
  0
LINE
  8
0
 10
-166.607
 20
50.533
 11
-166.277
 21
50.7145
  0
LINE
  8
0
 10
-166.277
 20
50.7145
 11
-165.927
 21
50.8532
  0
LINE
  8
0
 10
-165.927
 20
50.8532
 11
-165.562
 21
50.9469
  0
LINE
  8
0
 10
-165.562
 20
50.9469
 11
-165.188
 21
50.9941
  0
LINE
  8
0
 10
-165.188
 20
50.9941
 11
-164.812
 21
50.9941
  0
LINE
  8
0
 10
-164.812
 20
50.9941
 11
-164.438
 21
50.9469
  0
LINE
  8
0
 10
-164.438
 20
50.9469
 11
-164.073
 21
50.8532
  0
LINE
  8
0
 10
-164.073
 20
50.8532
 11
-163.723
 21
50.7145
  0
LINE
  8
0
 10
-163.723
 20
50.7145
 11
-163.393
 21
50.533
  0
LINE
  8
0
 10
-163.393
 20
50.533
 11
-163.088
 21
50.3115
  0
LINE
  8
0
 10
-163.088
 20
50.3115
 11
-162.813
 21
50.0536
  0
LINE
  8
0
 10
-162.813
 20
50.0536
 11
-162.573
 21
49.7634
  0
LINE
  8
0
 10
-162.573
 20
49.7634
 11
-162.371
 21
49.4453
  0
LINE
  8
0
 10
-162.371
 20
49.4453
 11
-162.211
 21
49.1044
  0
LINE
  8
0
 10
-162.211
 20
49.1044
 11
-162.094
 21
48.7461
  0
LINE
  8
0
 10
-162.094
 20
48.7461
 11
-162.024
 21
48.376
  0
LINE
  8
0
 10
-162.024
 20
48.376
 11
-162
 21
48
  0
LINE
  8
0
 10
-162
 20
48
 11
-162.024
 21
47.624
  0
LINE
  8
0
 10
-162.024
 20
47.624
 11
-162.094
 21
47.2539
  0
LINE
  8
0
 10
-162.094
 20
47.2539
 11
-162.211
 21
46.8956
  0
LINE
  8
0
 10
-162.211
 20
46.8956
 11
-162.371
 21
46.5547
  0
LINE
  8
0
 10
-162.371
 20
46.5547
 11
-162.573
 21
46.2366
  0
LINE
  8
0
 10
-162.573
 20
46.2366
 11
-162.813
 21
45.9464
  0
LINE
  8
0
 10
-162.813
 20
45.9464
 11
-163.088
 21
45.6885
  0
LINE
  8
0
 10
-163.088
 20
45.6885
 11
-163.393
 21
45.467
  0
LINE
  8
0
 10
-163.393
 20
45.467
 11
-163.723
 21
45.2855
  0
LINE
  8
0
 10
-163.723
 20
45.2855
 11
-164.073
 21
45.1468
  0
LINE
  8
0
 10
-164.073
 20
45.1468
 11
-164.438
 21
45.0531
  0
LINE
  8
0
 10
-164.438
 20
45.0531
 11
-164.812
 21
45.0059
  0
LINE
  8
0
 10
-164.812
 20
45.0059
 11
-165.188
 21
45.0059
  0
LINE
  8
0
 10
179.812
 20
45.0059
 11
179.438
 21
45.0531
  0
LINE
  8
0
 10
179.438
 20
45.0531
 11
179.073
 21
45.1468
  0
LINE
  8
0
 10
179.073
 20
45.1468
 11
178.723
 21
45.2855
  0
LINE
  8
0
 10
178.723
 20
45.2855
 11
178.393
 21
45.467
  0
LINE
  8
0
 10
178.393
 20
45.467
 11
178.088
 21
45.6885
  0
LINE
  8
0
 10
178.088
 20
45.6885
 11
177.813
 21
45.9464
  0
LINE
  8
0
 10
177.813
 20
45.9464
 11
177.573
 21
46.2366
  0
LINE
  8
0
 10
177.573
 20
46.2366
 11
177.371
 21
46.5547
  0
LINE
  8
0
 10
177.371
 20
46.5547
 11
177.211
 21
46.8956
  0
LINE
  8
0
 10
177.211
 20
46.8956
 11
177.094
 21
47.2539
  0
LINE
  8
0
 10
177.094
 20
47.2539
 11
177.024
 21
47.624
  0
LINE
  8
0
 10
177.024
 20
47.624
 11
177
 21
48
  0
LINE
  8
0
 10
177
 20
48
 11
177.024
 21
48.376
  0
LINE
  8
0
 10
177.024
 20
48.376
 11
177.094
 21
48.7461
  0
LINE
  8
0
 10
177.094
 20
48.7461
 11
177.211
 21
49.1044
  0
LINE
  8
0
 10
177.211
 20
49.1044
 11
177.371
 21
49.4453
  0
LINE
  8
0
 10
177.371
 20
49.4453
 11
177.573
 21
49.7634
  0
LINE
  8
0
 10
177.573
 20
49.7634
 11
177.813
 21
50.0536
  0
LINE
  8
0
 10
177.813
 20
50.0536
 11
178.088
 21
50.3115
  0
LINE
  8
0
 10
178.088
 20
50.3115
 11
178.393
 21
50.533
  0
LINE
  8
0
 10
178.393
 20
50.533
 11
178.723
 21
50.7145
  0
LINE
  8
0
 10
178.723
 20
50.7145
 11
179.073
 21
50.8532
  0
LINE
  8
0
 10
179.073
 20
50.8532
 11
179.438
 21
50.9469
  0
LINE
  8
0
 10
179.438
 20
50.9469
 11
179.812
 21
50.9941
  0
LINE
  8
0
 10
179.812
 20
50.9941
 11
180.188
 21
50.9941
  0
LINE
  8
0
 10
180.188
 20
50.9941
 11
180.562
 21
50.9469
  0
LINE
  8
0
 10
180.562
 20
50.9469
 11
180.927
 21
50.8532
  0
LINE
  8
0
 10
180.927
 20
50.8532
 11
181.277
 21
50.7145
  0
LINE
  8
0
 10
181.277
 20
50.7145
 11
181.607
 21
50.533
  0
LINE
  8
0
 10
181.607
 20
50.533
 11
181.912
 21
50.3115
  0
LINE
  8
0
 10
181.912
 20
50.3115
 11
182.187
 21
50.0536
  0
LINE
  8
0
 10
182.187
 20
50.0536
 11
182.427
 21
49.7634
  0
LINE
  8
0
 10
182.427
 20
49.7634
 11
182.629
 21
49.4453
  0
LINE
  8
0
 10
182.629
 20
49.4453
 11
182.789
 21
49.1044
  0
LINE
  8
0
 10
182.789
 20
49.1044
 11
182.906
 21
48.7461
  0
LINE
  8
0
 10
182.906
 20
48.7461
 11
182.976
 21
48.376
  0
LINE
  8
0
 10
182.976
 20
48.376
 11
183
 21
48
  0
LINE
  8
0
 10
183
 20
48
 11
182.976
 21
47.624
  0
LINE
  8
0
 10
182.976
 20
47.624
 11
182.906
 21
47.2539
  0
LINE
  8
0
 10
182.906
 20
47.2539
 11
182.789
 21
46.8956
  0
LINE
  8
0
 10
182.789
 20
46.8956
 11
182.629
 21
46.5547
  0
LINE
  8
0
 10
182.629
 20
46.5547
 11
182.427
 21
46.2366
  0
LINE
  8
0
 10
182.427
 20
46.2366
 11
182.187
 21
45.9464
  0
LINE
  8
0
 10
182.187
 20
45.9464
 11
181.912
 21
45.6885
  0
LINE
  8
0
 10
181.912
 20
45.6885
 11
181.607
 21
45.467
  0
LINE
  8
0
 10
181.607
 20
45.467
 11
181.277
 21
45.2855
  0
LINE
  8
0
 10
181.277
 20
45.2855
 11
180.927
 21
45.1468
  0
LINE
  8
0
 10
180.927
 20
45.1468
 11
180.562
 21
45.0531
  0
LINE
  8
0
 10
180.562
 20
45.0531
 11
180.188
 21
45.0059
  0
LINE
  8
0
 10
180.188
 20
45.0059
 11
179.812
 21
45.0059
  0
LINE
  8
0
 10
89.8116
 20
45.0059
 11
89.4379
 21
45.0531
  0
LINE
  8
0
 10
89.4379
 20
45.0531
 11
89.073
 21
45.1468
  0
LINE
  8
0
 10
89.073
 20
45.1468
 11
88.7227
 21
45.2855
  0
LINE
  8
0
 10
88.7227
 20
45.2855
 11
88.3925
 21
45.467
  0
LINE
  8
0
 10
88.3925
 20
45.467
 11
88.0877
 21
45.6885
  0
LINE
  8
0
 10
88.0877
 20
45.6885
 11
87.8131
 21
45.9464
  0
LINE
  8
0
 10
87.8131
 20
45.9464
 11
87.573
 21
46.2366
  0
LINE
  8
0
 10
87.573
 20
46.2366
 11
87.3711
 21
46.5547
  0
LINE
  8
0
 10
87.3711
 20
46.5547
 11
87.2107
 21
46.8956
  0
LINE
  8
0
 10
87.2107
 20
46.8956
 11
87.0943
 21
47.2539
  0
LINE
  8
0
 10
87.0943
 20
47.2539
 11
87.0237
 21
47.624
  0
LINE
  8
0
 10
87.0237
 20
47.624
 11
87
 21
48
  0
LINE
  8
0
 10
87
 20
48
 11
87.0237
 21
48.376
  0
LINE
  8
0
 10
87.0237
 20
48.376
 11
87.0943
 21
48.7461
  0
LINE
  8
0
 10
87.0943
 20
48.7461
 11
87.2107
 21
49.1044
  0
LINE
  8
0
 10
87.2107
 20
49.1044
 11
87.3711
 21
49.4453
  0
LINE
  8
0
 10
87.3711
 20
49.4453
 11
87.573
 21
49.7634
  0
LINE
  8
0
 10
87.573
 20
49.7634
 11
87.8131
 21
50.0536
  0
LINE
  8
0
 10
87.8131
 20
50.0536
 11
88.0877
 21
50.3115
  0
LINE
  8
0
 10
88.0877
 20
50.3115
 11
88.3925
 21
50.533
  0
LINE
  8
0
 10
88.3925
 20
50.533
 11
88.7227
 21
50.7145
  0
LINE
  8
0
 10
88.7227
 20
50.7145
 11
89.073
 21
50.8532
  0
LINE
  8
0
 10
89.073
 20
50.8532
 11
89.4379
 21
50.9469
  0
LINE
  8
0
 10
89.4379
 20
50.9469
 11
89.8116
 21
50.9941
  0
LINE
  8
0
 10
89.8116
 20
50.9941
 11
90.1884
 21
50.9941
  0
LINE
  8
0
 10
90.1884
 20
50.9941
 11
90.5621
 21
50.9469
  0
LINE
  8
0
 10
90.5621
 20
50.9469
 11
90.927
 21
50.8532
  0
LINE
  8
0
 10
90.927
 20
50.8532
 11
91.2773
 21
50.7145
  0
LINE
  8
0
 10
91.2773
 20
50.7145
 11
91.6075
 21
50.533
  0
LINE
  8
0
 10
91.6075
 20
50.533
 11
91.9123
 21
50.3115
  0
LINE
  8
0
 10
91.9123
 20
50.3115
 11
92.1869
 21
50.0536
  0
LINE
  8
0
 10
92.1869
 20
50.0536
 11
92.427
 21
49.7634
  0
LINE
  8
0
 10
92.427
 20
49.7634
 11
92.6289
 21
49.4453
  0
LINE
  8
0
 10
92.6289
 20
49.4453
 11
92.7893
 21
49.1044
  0
LINE
  8
0
 10
92.7893
 20
49.1044
 11
92.9057
 21
48.7461
  0
LINE
  8
0
 10
92.9057
 20
48.7461
 11
92.9763
 21
48.376
  0
LINE
  8
0
 10
92.9763
 20
48.376
 11
93
 21
48
  0
LINE
  8
0
 10
93
 20
48
 11
92.9763
 21
47.624
  0
LINE
  8
0
 10
92.9763
 20
47.624
 11
92.9057
 21
47.2539
  0
LINE
  8
0
 10
92.9057
 20
47.2539
 11
92.7893
 21
46.8956
  0
LINE
  8
0
 10
92.7893
 20
46.8956
 11
92.6289
 21
46.5547
  0
LINE
  8
0
 10
92.6289
 20
46.5547
 11
92.427
 21
46.2366
  0
LINE
  8
0
 10
92.427
 20
46.2366
 11
92.1869
 21
45.9464
  0
LINE
  8
0
 10
92.1869
 20
45.9464
 11
91.9123
 21
45.6885
  0
LINE
  8
0
 10
91.9123
 20
45.6885
 11
91.6075
 21
45.467
  0
LINE
  8
0
 10
91.6075
 20
45.467
 11
91.2773
 21
45.2855
  0
LINE
  8
0
 10
91.2773
 20
45.2855
 11
90.927
 21
45.1468
  0
LINE
  8
0
 10
90.927
 20
45.1468
 11
90.5621
 21
45.0531
  0
LINE
  8
0
 10
90.5621
 20
45.0531
 11
90.1884
 21
45.0059
  0
LINE
  8
0
 10
90.1884
 20
45.0059
 11
89.8116
 21
45.0059
  0
LINE
  8
0
 10
-0.18837
 20
45.0059
 11
-0.562134
 21
45.0531
  0
LINE
  8
0
 10
-0.562134
 20
45.0531
 11
-0.927048
 21
45.1468
  0
LINE
  8
0
 10
-0.927048
 20
45.1468
 11
-1.27733
 21
45.2855
  0
LINE
  8
0
 10
-1.27733
 20
45.2855
 11
-1.60747
 21
45.467
  0
LINE
  8
0
 10
-1.60747
 20
45.467
 11
-1.91226
 21
45.6885
  0
LINE
  8
0
 10
-1.91226
 20
45.6885
 11
-2.1869
 21
45.9464
  0
LINE
  8
0
 10
-2.1869
 20
45.9464
 11
-2.42705
 21
46.2366
  0
LINE
  8
0
 10
-2.42705
 20
46.2366
 11
-2.62891
 21
46.5547
  0
LINE
  8
0
 10
-2.62891
 20
46.5547
 11
-2.78932
 21
46.8956
  0
LINE
  8
0
 10
-2.78932
 20
46.8956
 11
-2.90575
 21
47.2539
  0
LINE
  8
0
 10
-2.90575
 20
47.2539
 11
-2.97633
 21
47.624
  0
LINE
  8
0
 10
-2.97633
 20
47.624
 11
-3
 21
48
  0
LINE
  8
0
 10
-3
 20
48
 11
-2.97633
 21
48.376
  0
LINE
  8
0
 10
-2.97633
 20
48.376
 11
-2.90575
 21
48.7461
  0
LINE
  8
0
 10
-2.90575
 20
48.7461
 11
-2.78932
 21
49.1044
  0
LINE
  8
0
 10
-2.78932
 20
49.1044
 11
-2.62891
 21
49.4453
  0
LINE
  8
0
 10
-2.62891
 20
49.4453
 11
-2.42705
 21
49.7634
  0
LINE
  8
0
 10
-2.42705
 20
49.7634
 11
-2.1869
 21
50.0536
  0
LINE
  8
0
 10
-2.1869
 20
50.0536
 11
-1.91226
 21
50.3115
  0
LINE
  8
0
 10
-1.91226
 20
50.3115
 11
-1.60747
 21
50.533
  0
LINE
  8
0
 10
-1.60747
 20
50.533
 11
-1.27733
 21
50.7145
  0
LINE
  8
0
 10
-1.27733
 20
50.7145
 11
-0.927048
 21
50.8532
  0
LINE
  8
0
 10
-0.927048
 20
50.8532
 11
-0.562134
 21
50.9469
  0
LINE
  8
0
 10
-0.562134
 20
50.9469
 11
-0.18837
 21
50.9941
  0
LINE
  8
0
 10
-0.18837
 20
50.9941
 11
0.18837
 21
50.9941
  0
LINE
  8
0
 10
0.18837
 20
50.9941
 11
0.562134
 21
50.9469
  0
LINE
  8
0
 10
0.562134
 20
50.9469
 11
0.927048
 21
50.8532
  0
LINE
  8
0
 10
0.927048
 20
50.8532
 11
1.27733
 21
50.7145
  0
LINE
  8
0
 10
1.27733
 20
50.7145
 11
1.60747
 21
50.533
  0
LINE
  8
0
 10
1.60747
 20
50.533
 11
1.91226
 21
50.3115
  0
LINE
  8
0
 10
1.91226
 20
50.3115
 11
2.1869
 21
50.0536
  0
LINE
  8
0
 10
2.1869
 20
50.0536
 11
2.42705
 21
49.7634
  0
LINE
  8
0
 10
2.42705
 20
49.7634
 11
2.62891
 21
49.4453
  0
LINE
  8
0
 10
2.62891
 20
49.4453
 11
2.78932
 21
49.1044
  0
LINE
  8
0
 10
2.78932
 20
49.1044
 11
2.90575
 21
48.7461
  0
LINE
  8
0
 10
2.90575
 20
48.7461
 11
2.97633
 21
48.376
  0
LINE
  8
0
 10
2.97633
 20
48.376
 11
3
 21
48
  0
LINE
  8
0
 10
3
 20
48
 11
2.97633
 21
47.624
  0
LINE
  8
0
 10
2.97633
 20
47.624
 11
2.90575
 21
47.2539
  0
LINE
  8
0
 10
2.90575
 20
47.2539
 11
2.78932
 21
46.8956
  0
LINE
  8
0
 10
2.78932
 20
46.8956
 11
2.62891
 21
46.5547
  0
LINE
  8
0
 10
2.62891
 20
46.5547
 11
2.42705
 21
46.2366
  0
LINE
  8
0
 10
2.42705
 20
46.2366
 11
2.1869
 21
45.9464
  0
LINE
  8
0
 10
2.1869
 20
45.9464
 11
1.91226
 21
45.6885
  0
LINE
  8
0
 10
1.91226
 20
45.6885
 11
1.60747
 21
45.467
  0
LINE
  8
0
 10
1.60747
 20
45.467
 11
1.27733
 21
45.2855
  0
LINE
  8
0
 10
1.27733
 20
45.2855
 11
0.927048
 21
45.1468
  0
LINE
  8
0
 10
0.927048
 20
45.1468
 11
0.562134
 21
45.0531
  0
LINE
  8
0
 10
0.562134
 20
45.0531
 11
0.18837
 21
45.0059
  0
LINE
  8
0
 10
0.18837
 20
45.0059
 11
-0.18837
 21
45.0059
  0
LINE
  8
0
 10
209.812
 20
45.0059
 11
209.438
 21
45.0531
  0
LINE
  8
0
 10
209.438
 20
45.0531
 11
209.073
 21
45.1468
  0
LINE
  8
0
 10
209.073
 20
45.1468
 11
208.723
 21
45.2855
  0
LINE
  8
0
 10
208.723
 20
45.2855
 11
208.393
 21
45.467
  0
LINE
  8
0
 10
208.393
 20
45.467
 11
208.088
 21
45.6885
  0
LINE
  8
0
 10
208.088
 20
45.6885
 11
207.813
 21
45.9464
  0
LINE
  8
0
 10
207.813
 20
45.9464
 11
207.573
 21
46.2366
  0
LINE
  8
0
 10
207.573
 20
46.2366
 11
207.371
 21
46.5547
  0
LINE
  8
0
 10
207.371
 20
46.5547
 11
207.211
 21
46.8956
  0
LINE
  8
0
 10
207.211
 20
46.8956
 11
207.094
 21
47.2539
  0
LINE
  8
0
 10
207.094
 20
47.2539
 11
207.024
 21
47.624
  0
LINE
  8
0
 10
207.024
 20
47.624
 11
207
 21
48
  0
LINE
  8
0
 10
207
 20
48
 11
207.024
 21
48.376
  0
LINE
  8
0
 10
207.024
 20
48.376
 11
207.094
 21
48.7461
  0
LINE
  8
0
 10
207.094
 20
48.7461
 11
207.211
 21
49.1044
  0
LINE
  8
0
 10
207.211
 20
49.1044
 11
207.371
 21
49.4453
  0
LINE
  8
0
 10
207.371
 20
49.4453
 11
207.573
 21
49.7634
  0
LINE
  8
0
 10
207.573
 20
49.7634
 11
207.813
 21
50.0536
  0
LINE
  8
0
 10
207.813
 20
50.0536
 11
208.088
 21
50.3115
  0
LINE
  8
0
 10
208.088
 20
50.3115
 11
208.393
 21
50.533
  0
LINE
  8
0
 10
208.393
 20
50.533
 11
208.723
 21
50.7145
  0
LINE
  8
0
 10
208.723
 20
50.7145
 11
209.073
 21
50.8532
  0
LINE
  8
0
 10
209.073
 20
50.8532
 11
209.438
 21
50.9469
  0
LINE
  8
0
 10
209.438
 20
50.9469
 11
209.812
 21
50.9941
  0
LINE
  8
0
 10
209.812
 20
50.9941
 11
210.188
 21
50.9941
  0
LINE
  8
0
 10
210.188
 20
50.9941
 11
210.562
 21
50.9469
  0
LINE
  8
0
 10
210.562
 20
50.9469
 11
210.927
 21
50.8532
  0
LINE
  8
0
 10
210.927
 20
50.8532
 11
211.277
 21
50.7145
  0
LINE
  8
0
 10
211.277
 20
50.7145
 11
211.607
 21
50.533
  0
LINE
  8
0
 10
211.607
 20
50.533
 11
211.912
 21
50.3115
  0
LINE
  8
0
 10
211.912
 20
50.3115
 11
212.187
 21
50.0536
  0
LINE
  8
0
 10
212.187
 20
50.0536
 11
212.427
 21
49.7634
  0
LINE
  8
0
 10
212.427
 20
49.7634
 11
212.629
 21
49.4453
  0
LINE
  8
0
 10
212.629
 20
49.4453
 11
212.789
 21
49.1044
  0
LINE
  8
0
 10
212.789
 20
49.1044
 11
212.906
 21
48.7461
  0
LINE
  8
0
 10
212.906
 20
48.7461
 11
212.976
 21
48.376
  0
LINE
  8
0
 10
212.976
 20
48.376
 11
213
 21
48
  0
LINE
  8
0
 10
213
 20
48
 11
212.976
 21
47.624
  0
LINE
  8
0
 10
212.976
 20
47.624
 11
212.906
 21
47.2539
  0
LINE
  8
0
 10
212.906
 20
47.2539
 11
212.789
 21
46.8956
  0
LINE
  8
0
 10
212.789
 20
46.8956
 11
212.629
 21
46.5547
  0
LINE
  8
0
 10
212.629
 20
46.5547
 11
212.427
 21
46.2366
  0
LINE
  8
0
 10
212.427
 20
46.2366
 11
212.187
 21
45.9464
  0
LINE
  8
0
 10
212.187
 20
45.9464
 11
211.912
 21
45.6885
  0
LINE
  8
0
 10
211.912
 20
45.6885
 11
211.607
 21
45.467
  0
LINE
  8
0
 10
211.607
 20
45.467
 11
211.277
 21
45.2855
  0
LINE
  8
0
 10
211.277
 20
45.2855
 11
210.927
 21
45.1468
  0
LINE
  8
0
 10
210.927
 20
45.1468
 11
210.562
 21
45.0531
  0
LINE
  8
0
 10
210.562
 20
45.0531
 11
210.188
 21
45.0059
  0
LINE
  8
0
 10
210.188
 20
45.0059
 11
209.812
 21
45.0059
  0
LINE
  8
0
 10
-30.1884
 20
45.0059
 11
-30.5621
 21
45.0531
  0
LINE
  8
0
 10
-30.5621
 20
45.0531
 11
-30.927
 21
45.1468
  0
LINE
  8
0
 10
-30.927
 20
45.1468
 11
-31.2773
 21
45.2855
  0
LINE
  8
0
 10
-31.2773
 20
45.2855
 11
-31.6075
 21
45.467
  0
LINE
  8
0
 10
-31.6075
 20
45.467
 11
-31.9123
 21
45.6885
  0
LINE
  8
0
 10
-31.9123
 20
45.6885
 11
-32.1869
 21
45.9464
  0
LINE
  8
0
 10
-32.1869
 20
45.9464
 11
-32.427
 21
46.2366
  0
LINE
  8
0
 10
-32.427
 20
46.2366
 11
-32.6289
 21
46.5547
  0
LINE
  8
0
 10
-32.6289
 20
46.5547
 11
-32.7893
 21
46.8956
  0
LINE
  8
0
 10
-32.7893
 20
46.8956
 11
-32.9057
 21
47.2539
  0
LINE
  8
0
 10
-32.9057
 20
47.2539
 11
-32.9763
 21
47.624
  0
LINE
  8
0
 10
-32.9763
 20
47.624
 11
-33
 21
48
  0
LINE
  8
0
 10
-33
 20
48
 11
-32.9763
 21
48.376
  0
LINE
  8
0
 10
-32.9763
 20
48.376
 11
-32.9057
 21
48.7461
  0
LINE
  8
0
 10
-32.9057
 20
48.7461
 11
-32.7893
 21
49.1044
  0
LINE
  8
0
 10
-32.7893
 20
49.1044
 11
-32.6289
 21
49.4453
  0
LINE
  8
0
 10
-32.6289
 20
49.4453
 11
-32.427
 21
49.7634
  0
LINE
  8
0
 10
-32.427
 20
49.7634
 11
-32.1869
 21
50.0536
  0
LINE
  8
0
 10
-32.1869
 20
50.0536
 11
-31.9123
 21
50.3115
  0
LINE
  8
0
 10
-31.9123
 20
50.3115
 11
-31.6075
 21
50.533
  0
LINE
  8
0
 10
-31.6075
 20
50.533
 11
-31.2773
 21
50.7145
  0
LINE
  8
0
 10
-31.2773
 20
50.7145
 11
-30.927
 21
50.8532
  0
LINE
  8
0
 10
-30.927
 20
50.8532
 11
-30.5621
 21
50.9469
  0
LINE
  8
0
 10
-30.5621
 20
50.9469
 11
-30.1884
 21
50.9941
  0
LINE
  8
0
 10
-30.1884
 20
50.9941
 11
-29.8116
 21
50.9941
  0
LINE
  8
0
 10
-29.8116
 20
50.9941
 11
-29.4379
 21
50.9469
  0
LINE
  8
0
 10
-29.4379
 20
50.9469
 11
-29.0729
 21
50.8532
  0
LINE
  8
0
 10
-29.0729
 20
50.8532
 11
-28.7227
 21
50.7145
  0
LINE
  8
0
 10
-28.7227
 20
50.7145
 11
-28.3925
 21
50.533
  0
LINE
  8
0
 10
-28.3925
 20
50.533
 11
-28.0877
 21
50.3115
  0
LINE
  8
0
 10
-28.0877
 20
50.3115
 11
-27.8131
 21
50.0536
  0
LINE
  8
0
 10
-27.8131
 20
50.0536
 11
-27.5729
 21
49.7634
  0
LINE
  8
0
 10
-27.5729
 20
49.7634
 11
-27.3711
 21
49.4453
  0
LINE
  8
0
 10
-27.3711
 20
49.4453
 11
-27.2107
 21
49.1044
  0
LINE
  8
0
 10
-27.2107
 20
49.1044
 11
-27.0942
 21
48.7461
  0
LINE
  8
0
 10
-27.0942
 20
48.7461
 11
-27.0237
 21
48.376
  0
LINE
  8
0
 10
-27.0237
 20
48.376
 11
-27
 21
48
  0
LINE
  8
0
 10
-27
 20
48
 11
-27.0237
 21
47.624
  0
LINE
  8
0
 10
-27.0237
 20
47.624
 11
-27.0942
 21
47.2539
  0
LINE
  8
0
 10
-27.0942
 20
47.2539
 11
-27.2107
 21
46.8956
  0
LINE
  8
0
 10
-27.2107
 20
46.8956
 11
-27.3711
 21
46.5547
  0
LINE
  8
0
 10
-27.3711
 20
46.5547
 11
-27.5729
 21
46.2366
  0
LINE
  8
0
 10
-27.5729
 20
46.2366
 11
-27.8131
 21
45.9464
  0
LINE
  8
0
 10
-27.8131
 20
45.9464
 11
-28.0877
 21
45.6885
  0
LINE
  8
0
 10
-28.0877
 20
45.6885
 11
-28.3925
 21
45.467
  0
LINE
  8
0
 10
-28.3925
 20
45.467
 11
-28.7227
 21
45.2855
  0
LINE
  8
0
 10
-28.7227
 20
45.2855
 11
-29.0729
 21
45.1468
  0
LINE
  8
0
 10
-29.0729
 20
45.1468
 11
-29.4379
 21
45.0531
  0
LINE
  8
0
 10
-29.4379
 20
45.0531
 11
-29.8116
 21
45.0059
  0
LINE
  8
0
 10
-29.8116
 20
45.0059
 11
-30.1884
 21
45.0059
  0
LINE
  8
0
 10
-150.188
 20
45.0059
 11
-150.562
 21
45.0531
  0
LINE
  8
0
 10
-150.562
 20
45.0531
 11
-150.927
 21
45.1468
  0
LINE
  8
0
 10
-150.927
 20
45.1468
 11
-151.277
 21
45.2855
  0
LINE
  8
0
 10
-151.277
 20
45.2855
 11
-151.607
 21
45.467
  0
LINE
  8
0
 10
-151.607
 20
45.467
 11
-151.912
 21
45.6885
  0
LINE
  8
0
 10
-151.912
 20
45.6885
 11
-152.187
 21
45.9464
  0
LINE
  8
0
 10
-152.187
 20
45.9464
 11
-152.427
 21
46.2366
  0
LINE
  8
0
 10
-152.427
 20
46.2366
 11
-152.629
 21
46.5547
  0
LINE
  8
0
 10
-152.629
 20
46.5547
 11
-152.789
 21
46.8956
  0
LINE
  8
0
 10
-152.789
 20
46.8956
 11
-152.906
 21
47.2539
  0
LINE
  8
0
 10
-152.906
 20
47.2539
 11
-152.976
 21
47.624
  0
LINE
  8
0
 10
-152.976
 20
47.624
 11
-153
 21
48
  0
LINE
  8
0
 10
-153
 20
48
 11
-152.976
 21
48.376
  0
LINE
  8
0
 10
-152.976
 20
48.376
 11
-152.906
 21
48.7461
  0
LINE
  8
0
 10
-152.906
 20
48.7461
 11
-152.789
 21
49.1044
  0
LINE
  8
0
 10
-152.789
 20
49.1044
 11
-152.629
 21
49.4453
  0
LINE
  8
0
 10
-152.629
 20
49.4453
 11
-152.427
 21
49.7634
  0
LINE
  8
0
 10
-152.427
 20
49.7634
 11
-152.187
 21
50.0536
  0
LINE
  8
0
 10
-152.187
 20
50.0536
 11
-151.912
 21
50.3115
  0
LINE
  8
0
 10
-151.912
 20
50.3115
 11
-151.607
 21
50.533
  0
LINE
  8
0
 10
-151.607
 20
50.533
 11
-151.277
 21
50.7145
  0
LINE
  8
0
 10
-151.277
 20
50.7145
 11
-150.927
 21
50.8532
  0
LINE
  8
0
 10
-150.927
 20
50.8532
 11
-150.562
 21
50.9469
  0
LINE
  8
0
 10
-150.562
 20
50.9469
 11
-150.188
 21
50.9941
  0
LINE
  8
0
 10
-150.188
 20
50.9941
 11
-149.812
 21
50.9941
  0
LINE
  8
0
 10
-149.812
 20
50.9941
 11
-149.438
 21
50.9469
  0
LINE
  8
0
 10
-149.438
 20
50.9469
 11
-149.073
 21
50.8532
  0
LINE
  8
0
 10
-149.073
 20
50.8532
 11
-148.723
 21
50.7145
  0
LINE
  8
0
 10
-148.723
 20
50.7145
 11
-148.393
 21
50.533
  0
LINE
  8
0
 10
-148.393
 20
50.533
 11
-148.088
 21
50.3115
  0
LINE
  8
0
 10
-148.088
 20
50.3115
 11
-147.813
 21
50.0536
  0
LINE
  8
0
 10
-147.813
 20
50.0536
 11
-147.573
 21
49.7634
  0
LINE
  8
0
 10
-147.573
 20
49.7634
 11
-147.371
 21
49.4453
  0
LINE
  8
0
 10
-147.371
 20
49.4453
 11
-147.211
 21
49.1044
  0
LINE
  8
0
 10
-147.211
 20
49.1044
 11
-147.094
 21
48.7461
  0
LINE
  8
0
 10
-147.094
 20
48.7461
 11
-147.024
 21
48.376
  0
LINE
  8
0
 10
-147.024
 20
48.376
 11
-147
 21
48
  0
LINE
  8
0
 10
-147
 20
48
 11
-147.024
 21
47.624
  0
LINE
  8
0
 10
-147.024
 20
47.624
 11
-147.094
 21
47.2539
  0
LINE
  8
0
 10
-147.094
 20
47.2539
 11
-147.211
 21
46.8956
  0
LINE
  8
0
 10
-147.211
 20
46.8956
 11
-147.371
 21
46.5547
  0
LINE
  8
0
 10
-147.371
 20
46.5547
 11
-147.573
 21
46.2366
  0
LINE
  8
0
 10
-147.573
 20
46.2366
 11
-147.813
 21
45.9464
  0
LINE
  8
0
 10
-147.813
 20
45.9464
 11
-148.088
 21
45.6885
  0
LINE
  8
0
 10
-148.088
 20
45.6885
 11
-148.393
 21
45.467
  0
LINE
  8
0
 10
-148.393
 20
45.467
 11
-148.723
 21
45.2855
  0
LINE
  8
0
 10
-148.723
 20
45.2855
 11
-149.073
 21
45.1468
  0
LINE
  8
0
 10
-149.073
 20
45.1468
 11
-149.438
 21
45.0531
  0
LINE
  8
0
 10
-149.438
 20
45.0531
 11
-149.812
 21
45.0059
  0
LINE
  8
0
 10
-149.812
 20
45.0059
 11
-150.188
 21
45.0059
  0
ENDSEC
  0
SECTION
  2
OBJECTS
  0
DICTIONARY
  0
ENDSEC
  0
EOF
