  0
SECTION
  2
BLOCKS
  0
ENDSEC
  0
SECTION
  2
ENTITIES
  0
LINE
  8
0
 10
40.4369
 20
-36.9114
 11
41.0451
 21
-36.7553
  0
LINE
  8
0
 10
41.0451
 20
-36.7553
 11
41.6289
 21
-36.5241
  0
LINE
  8
0
 10
41.6289
 20
-36.5241
 11
42.1791
 21
-36.2216
  0
LINE
  8
0
 10
42.1791
 20
-36.2216
 11
42.6871
 21
-35.8526
  0
LINE
  8
0
 10
42.6871
 20
-35.8526
 11
43.1448
 21
-35.4227
  0
LINE
  8
0
 10
43.1448
 20
-35.4227
 11
43.5451
 21
-34.9389
  0
LINE
  8
0
 10
43.5451
 20
-34.9389
 11
43.8815
 21
-34.4088
  0
LINE
  8
0
 10
43.8815
 20
-34.4088
 11
44.1489
 21
-33.8406
  0
LINE
  8
0
 10
44.1489
 20
-33.8406
 11
44.3429
 21
-33.2434
  0
LINE
  8
0
 10
44.3429
 20
-33.2434
 11
44.4606
 21
-32.6267
  0
LINE
  8
0
 10
44.4606
 20
-32.6267
 11
44.5
 21
-32
  0
LINE
  8
0
 10
44.5
 20
-32
 11
44.5
 21
32
  0
LINE
  8
0
 10
44.5
 20
32
 11
44.4606
 21
32.6267
  0
LINE
  8
0
 10
44.4606
 20
32.6267
 11
44.3429
 21
33.2434
  0
LINE
  8
0
 10
44.3429
 20
33.2434
 11
44.1489
 21
33.8406
  0
LINE
  8
0
 10
44.1489
 20
33.8406
 11
43.8815
 21
34.4088
  0
LINE
  8
0
 10
43.8815
 20
34.4088
 11
43.5451
 21
34.9389
  0
LINE
  8
0
 10
43.5451
 20
34.9389
 11
43.1448
 21
35.4227
  0
LINE
  8
0
 10
43.1448
 20
35.4227
 11
42.6871
 21
35.8526
  0
LINE
  8
0
 10
42.6871
 20
35.8526
 11
42.1791
 21
36.2216
  0
LINE
  8
0
 10
42.1791
 20
36.2216
 11
41.6289
 21
36.5241
  0
LINE
  8
0
 10
41.6289
 20
36.5241
 11
41.0451
 21
36.7553
  0
LINE
  8
0
 10
41.0451
 20
36.7553
 11
40.4369
 21
36.9114
  0
LINE
  8
0
 10
40.4369
 20
36.9114
 11
39.8139
 21
36.9901
  0
LINE
  8
0
 10
39.8139
 20
36.9901
 11
-39.8139
 21
36.9901
  0
LINE
  8
0
 10
-39.8139
 20
36.9901
 11
-40.4369
 21
36.9114
  0
LINE
  8
0
 10
-40.4369
 20
36.9114
 11
-41.0451
 21
36.7553
  0
LINE
  8
0
 10
-41.0451
 20
36.7553
 11
-41.6289
 21
36.5241
  0
LINE
  8
0
 10
-41.6289
 20
36.5241
 11
-42.1791
 21
36.2216
  0
LINE
  8
0
 10
-42.1791
 20
36.2216
 11
-42.6871
 21
35.8526
  0
LINE
  8
0
 10
-42.6871
 20
35.8526
 11
-43.1448
 21
35.4227
  0
LINE
  8
0
 10
-43.1448
 20
35.4227
 11
-43.5451
 21
34.9389
  0
LINE
  8
0
 10
-43.5451
 20
34.9389
 11
-43.8815
 21
34.4088
  0
LINE
  8
0
 10
-43.8815
 20
34.4088
 11
-44.1489
 21
33.8406
  0
LINE
  8
0
 10
-44.1489
 20
33.8406
 11
-44.3429
 21
33.2434
  0
LINE
  8
0
 10
-44.3429
 20
33.2434
 11
-44.4606
 21
32.6267
  0
LINE
  8
0
 10
-44.4606
 20
32.6267
 11
-44.5
 21
32
  0
LINE
  8
0
 10
-44.5
 20
32
 11
-44.5
 21
-32
  0
LINE
  8
0
 10
-44.5
 20
-32
 11
-44.4606
 21
-32.6267
  0
LINE
  8
0
 10
-44.4606
 20
-32.6267
 11
-44.3429
 21
-33.2434
  0
LINE
  8
0
 10
-44.3429
 20
-33.2434
 11
-44.1489
 21
-33.8406
  0
LINE
  8
0
 10
-44.1489
 20
-33.8406
 11
-43.8815
 21
-34.4088
  0
LINE
  8
0
 10
-43.8815
 20
-34.4088
 11
-43.5451
 21
-34.9389
  0
LINE
  8
0
 10
-43.5451
 20
-34.9389
 11
-43.1448
 21
-35.4227
  0
LINE
  8
0
 10
-43.1448
 20
-35.4227
 11
-42.6871
 21
-35.8526
  0
LINE
  8
0
 10
-42.6871
 20
-35.8526
 11
-42.1791
 21
-36.2216
  0
LINE
  8
0
 10
-42.1791
 20
-36.2216
 11
-41.6289
 21
-36.5241
  0
LINE
  8
0
 10
-41.6289
 20
-36.5241
 11
-41.0451
 21
-36.7553
  0
LINE
  8
0
 10
-41.0451
 20
-36.7553
 11
-40.4369
 21
-36.9114
  0
LINE
  8
0
 10
-40.4369
 20
-36.9114
 11
-39.8139
 21
-36.9901
  0
LINE
  8
0
 10
-39.8139
 20
-36.9901
 11
39.8139
 21
-36.9901
  0
LINE
  8
0
 10
39.8139
 20
-36.9901
 11
40.4369
 21
-36.9114
  0
LINE
  8
0
 10
-37.6884
 20
27.0059
 11
-38.0621
 21
27.0531
  0
LINE
  8
0
 10
-38.0621
 20
27.0531
 11
-38.427
 21
27.1468
  0
LINE
  8
0
 10
-38.427
 20
27.1468
 11
-38.7773
 21
27.2855
  0
LINE
  8
0
 10
-38.7773
 20
27.2855
 11
-39.1075
 21
27.467
  0
LINE
  8
0
 10
-39.1075
 20
27.467
 11
-39.4123
 21
27.6884
  0
LINE
  8
0
 10
-39.4123
 20
27.6884
 11
-39.6869
 21
27.9464
  0
LINE
  8
0
 10
-39.6869
 20
27.9464
 11
-39.927
 21
28.2366
  0
LINE
  8
0
 10
-39.927
 20
28.2366
 11
-40.1289
 21
28.5547
  0
LINE
  8
0
 10
-40.1289
 20
28.5547
 11
-40.2893
 21
28.8956
  0
LINE
  8
0
 10
-40.2893
 20
28.8956
 11
-40.4057
 21
29.2539
  0
LINE
  8
0
 10
-40.4057
 20
29.2539
 11
-40.4763
 21
29.624
  0
LINE
  8
0
 10
-40.4763
 20
29.624
 11
-40.5
 21
30
  0
LINE
  8
0
 10
-40.5
 20
30
 11
-40.4763
 21
30.376
  0
LINE
  8
0
 10
-40.4763
 20
30.376
 11
-40.4057
 21
30.7461
  0
LINE
  8
0
 10
-40.4057
 20
30.7461
 11
-40.2893
 21
31.1044
  0
LINE
  8
0
 10
-40.2893
 20
31.1044
 11
-40.1289
 21
31.4453
  0
LINE
  8
0
 10
-40.1289
 20
31.4453
 11
-39.927
 21
31.7634
  0
LINE
  8
0
 10
-39.927
 20
31.7634
 11
-39.6869
 21
32.0536
  0
LINE
  8
0
 10
-39.6869
 20
32.0536
 11
-39.4123
 21
32.3115
  0
LINE
  8
0
 10
-39.4123
 20
32.3115
 11
-39.1075
 21
32.533
  0
LINE
  8
0
 10
-39.1075
 20
32.533
 11
-38.7773
 21
32.7145
  0
LINE
  8
0
 10
-38.7773
 20
32.7145
 11
-38.427
 21
32.8532
  0
LINE
  8
0
 10
-38.427
 20
32.8532
 11
-38.0621
 21
32.9469
  0
LINE
  8
0
 10
-38.0621
 20
32.9469
 11
-37.6884
 21
32.9941
  0
LINE
  8
0
 10
-37.6884
 20
32.9941
 11
-37.3116
 21
32.9941
  0
LINE
  8
0
 10
-37.3116
 20
32.9941
 11
-36.9379
 21
32.9469
  0
LINE
  8
0
 10
-36.9379
 20
32.9469
 11
-36.5729
 21
32.8532
  0
LINE
  8
0
 10
-36.5729
 20
32.8532
 11
-36.2227
 21
32.7145
  0
LINE
  8
0
 10
-36.2227
 20
32.7145
 11
-35.8925
 21
32.533
  0
LINE
  8
0
 10
-35.8925
 20
32.533
 11
-35.5877
 21
32.3115
  0
LINE
  8
0
 10
-35.5877
 20
32.3115
 11
-35.3131
 21
32.0536
  0
LINE
  8
0
 10
-35.3131
 20
32.0536
 11
-35.0729
 21
31.7634
  0
LINE
  8
0
 10
-35.0729
 20
31.7634
 11
-34.8711
 21
31.4453
  0
LINE
  8
0
 10
-34.8711
 20
31.4453
 11
-34.7107
 21
31.1044
  0
LINE
  8
0
 10
-34.7107
 20
31.1044
 11
-34.5942
 21
30.7461
  0
LINE
  8
0
 10
-34.5942
 20
30.7461
 11
-34.5237
 21
30.376
  0
LINE
  8
0
 10
-34.5237
 20
30.376
 11
-34.5
 21
30
  0
LINE
  8
0
 10
-34.5
 20
30
 11
-34.5237
 21
29.624
  0
LINE
  8
0
 10
-34.5237
 20
29.624
 11
-34.5942
 21
29.2539
  0
LINE
  8
0
 10
-34.5942
 20
29.2539
 11
-34.7107
 21
28.8956
  0
LINE
  8
0
 10
-34.7107
 20
28.8956
 11
-34.8711
 21
28.5547
  0
LINE
  8
0
 10
-34.8711
 20
28.5547
 11
-35.0729
 21
28.2366
  0
LINE
  8
0
 10
-35.0729
 20
28.2366
 11
-35.3131
 21
27.9464
  0
LINE
  8
0
 10
-35.3131
 20
27.9464
 11
-35.5877
 21
27.6884
  0
LINE
  8
0
 10
-35.5877
 20
27.6884
 11
-35.8925
 21
27.467
  0
LINE
  8
0
 10
-35.8925
 20
27.467
 11
-36.2227
 21
27.2855
  0
LINE
  8
0
 10
-36.2227
 20
27.2855
 11
-36.5729
 21
27.1468
  0
LINE
  8
0
 10
-36.5729
 20
27.1468
 11
-36.9379
 21
27.0531
  0
LINE
  8
0
 10
-36.9379
 20
27.0531
 11
-37.3116
 21
27.0059
  0
LINE
  8
0
 10
-37.3116
 20
27.0059
 11
-37.6884
 21
27.0059
  0
LINE
  8
0
 10
37.3116
 20
27.0059
 11
36.9379
 21
27.0531
  0
LINE
  8
0
 10
36.9379
 20
27.0531
 11
36.5729
 21
27.1468
  0
LINE
  8
0
 10
36.5729
 20
27.1468
 11
36.2227
 21
27.2855
  0
LINE
  8
0
 10
36.2227
 20
27.2855
 11
35.8925
 21
27.467
  0
LINE
  8
0
 10
35.8925
 20
27.467
 11
35.5877
 21
27.6884
  0
LINE
  8
0
 10
35.5877
 20
27.6884
 11
35.3131
 21
27.9464
  0
LINE
  8
0
 10
35.3131
 20
27.9464
 11
35.0729
 21
28.2366
  0
LINE
  8
0
 10
35.0729
 20
28.2366
 11
34.8711
 21
28.5547
  0
LINE
  8
0
 10
34.8711
 20
28.5547
 11
34.7107
 21
28.8956
  0
LINE
  8
0
 10
34.7107
 20
28.8956
 11
34.5942
 21
29.2539
  0
LINE
  8
0
 10
34.5942
 20
29.2539
 11
34.5237
 21
29.624
  0
LINE
  8
0
 10
34.5237
 20
29.624
 11
34.5
 21
30
  0
LINE
  8
0
 10
34.5
 20
30
 11
34.5237
 21
30.376
  0
LINE
  8
0
 10
34.5237
 20
30.376
 11
34.5942
 21
30.7461
  0
LINE
  8
0
 10
34.5942
 20
30.7461
 11
34.7107
 21
31.1044
  0
LINE
  8
0
 10
34.7107
 20
31.1044
 11
34.8711
 21
31.4453
  0
LINE
  8
0
 10
34.8711
 20
31.4453
 11
35.0729
 21
31.7634
  0
LINE
  8
0
 10
35.0729
 20
31.7634
 11
35.3131
 21
32.0536
  0
LINE
  8
0
 10
35.3131
 20
32.0536
 11
35.5877
 21
32.3115
  0
LINE
  8
0
 10
35.5877
 20
32.3115
 11
35.8925
 21
32.533
  0
LINE
  8
0
 10
35.8925
 20
32.533
 11
36.2227
 21
32.7145
  0
LINE
  8
0
 10
36.2227
 20
32.7145
 11
36.5729
 21
32.8532
  0
LINE
  8
0
 10
36.5729
 20
32.8532
 11
36.9379
 21
32.9469
  0
LINE
  8
0
 10
36.9379
 20
32.9469
 11
37.3116
 21
32.9941
  0
LINE
  8
0
 10
37.3116
 20
32.9941
 11
37.6884
 21
32.9941
  0
LINE
  8
0
 10
37.6884
 20
32.9941
 11
38.0621
 21
32.9469
  0
LINE
  8
0
 10
38.0621
 20
32.9469
 11
38.427
 21
32.8532
  0
LINE
  8
0
 10
38.427
 20
32.8532
 11
38.7773
 21
32.7145
  0
LINE
  8
0
 10
38.7773
 20
32.7145
 11
39.1075
 21
32.533
  0
LINE
  8
0
 10
39.1075
 20
32.533
 11
39.4123
 21
32.3115
  0
LINE
  8
0
 10
39.4123
 20
32.3115
 11
39.6869
 21
32.0536
  0
LINE
  8
0
 10
39.6869
 20
32.0536
 11
39.927
 21
31.7634
  0
LINE
  8
0
 10
39.927
 20
31.7634
 11
40.1289
 21
31.4453
  0
LINE
  8
0
 10
40.1289
 20
31.4453
 11
40.2893
 21
31.1044
  0
LINE
  8
0
 10
40.2893
 20
31.1044
 11
40.4057
 21
30.7461
  0
LINE
  8
0
 10
40.4057
 20
30.7461
 11
40.4763
 21
30.376
  0
LINE
  8
0
 10
40.4763
 20
30.376
 11
40.5
 21
30
  0
LINE
  8
0
 10
40.5
 20
30
 11
40.4763
 21
29.624
  0
LINE
  8
0
 10
40.4763
 20
29.624
 11
40.4057
 21
29.2539
  0
LINE
  8
0
 10
40.4057
 20
29.2539
 11
40.2893
 21
28.8956
  0
LINE
  8
0
 10
40.2893
 20
28.8956
 11
40.1289
 21
28.5547
  0
LINE
  8
0
 10
40.1289
 20
28.5547
 11
39.927
 21
28.2366
  0
LINE
  8
0
 10
39.927
 20
28.2366
 11
39.6869
 21
27.9464
  0
LINE
  8
0
 10
39.6869
 20
27.9464
 11
39.4123
 21
27.6884
  0
LINE
  8
0
 10
39.4123
 20
27.6884
 11
39.1075
 21
27.467
  0
LINE
  8
0
 10
39.1075
 20
27.467
 11
38.7773
 21
27.2855
  0
LINE
  8
0
 10
38.7773
 20
27.2855
 11
38.427
 21
27.1468
  0
LINE
  8
0
 10
38.427
 20
27.1468
 11
38.0621
 21
27.0531
  0
LINE
  8
0
 10
38.0621
 20
27.0531
 11
37.6884
 21
27.0059
  0
LINE
  8
0
 10
37.6884
 20
27.0059
 11
37.3116
 21
27.0059
  0
LINE
  8
0
 10
37.3116
 20
-32.9941
 11
36.9379
 21
-32.9469
  0
LINE
  8
0
 10
36.9379
 20
-32.9469
 11
36.5729
 21
-32.8532
  0
LINE
  8
0
 10
36.5729
 20
-32.8532
 11
36.2227
 21
-32.7145
  0
LINE
  8
0
 10
36.2227
 20
-32.7145
 11
35.8925
 21
-32.533
  0
LINE
  8
0
 10
35.8925
 20
-32.533
 11
35.5877
 21
-32.3115
  0
LINE
  8
0
 10
35.5877
 20
-32.3115
 11
35.3131
 21
-32.0536
  0
LINE
  8
0
 10
35.3131
 20
-32.0536
 11
35.0729
 21
-31.7634
  0
LINE
  8
0
 10
35.0729
 20
-31.7634
 11
34.8711
 21
-31.4453
  0
LINE
  8
0
 10
34.8711
 20
-31.4453
 11
34.7107
 21
-31.1044
  0
LINE
  8
0
 10
34.7107
 20
-31.1044
 11
34.5942
 21
-30.7461
  0
LINE
  8
0
 10
34.5942
 20
-30.7461
 11
34.5237
 21
-30.376
  0
LINE
  8
0
 10
34.5237
 20
-30.376
 11
34.5
 21
-30
  0
LINE
  8
0
 10
34.5
 20
-30
 11
34.5237
 21
-29.624
  0
LINE
  8
0
 10
34.5237
 20
-29.624
 11
34.5942
 21
-29.2539
  0
LINE
  8
0
 10
34.5942
 20
-29.2539
 11
34.7107
 21
-28.8956
  0
LINE
  8
0
 10
34.7107
 20
-28.8956
 11
34.8711
 21
-28.5547
  0
LINE
  8
0
 10
34.8711
 20
-28.5547
 11
35.0729
 21
-28.2366
  0
LINE
  8
0
 10
35.0729
 20
-28.2366
 11
35.3131
 21
-27.9464
  0
LINE
  8
0
 10
35.3131
 20
-27.9464
 11
35.5877
 21
-27.6884
  0
LINE
  8
0
 10
35.5877
 20
-27.6884
 11
35.8925
 21
-27.467
  0
LINE
  8
0
 10
35.8925
 20
-27.467
 11
36.2227
 21
-27.2855
  0
LINE
  8
0
 10
36.2227
 20
-27.2855
 11
36.5729
 21
-27.1468
  0
LINE
  8
0
 10
36.5729
 20
-27.1468
 11
36.9379
 21
-27.0531
  0
LINE
  8
0
 10
36.9379
 20
-27.0531
 11
37.3116
 21
-27.0059
  0
LINE
  8
0
 10
37.3116
 20
-27.0059
 11
37.6884
 21
-27.0059
  0
LINE
  8
0
 10
37.6884
 20
-27.0059
 11
38.0621
 21
-27.0531
  0
LINE
  8
0
 10
38.0621
 20
-27.0531
 11
38.427
 21
-27.1468
  0
LINE
  8
0
 10
38.427
 20
-27.1468
 11
38.7773
 21
-27.2855
  0
LINE
  8
0
 10
38.7773
 20
-27.2855
 11
39.1075
 21
-27.467
  0
LINE
  8
0
 10
39.1075
 20
-27.467
 11
39.4123
 21
-27.6884
  0
LINE
  8
0
 10
39.4123
 20
-27.6884
 11
39.6869
 21
-27.9464
  0
LINE
  8
0
 10
39.6869
 20
-27.9464
 11
39.927
 21
-28.2366
  0
LINE
  8
0
 10
39.927
 20
-28.2366
 11
40.1289
 21
-28.5547
  0
LINE
  8
0
 10
40.1289
 20
-28.5547
 11
40.2893
 21
-28.8956
  0
LINE
  8
0
 10
40.2893
 20
-28.8956
 11
40.4057
 21
-29.2539
  0
LINE
  8
0
 10
40.4057
 20
-29.2539
 11
40.4763
 21
-29.624
  0
LINE
  8
0
 10
40.4763
 20
-29.624
 11
40.5
 21
-30
  0
LINE
  8
0
 10
40.5
 20
-30
 11
40.4763
 21
-30.376
  0
LINE
  8
0
 10
40.4763
 20
-30.376
 11
40.4057
 21
-30.7461
  0
LINE
  8
0
 10
40.4057
 20
-30.7461
 11
40.2893
 21
-31.1044
  0
LINE
  8
0
 10
40.2893
 20
-31.1044
 11
40.1289
 21
-31.4453
  0
LINE
  8
0
 10
40.1289
 20
-31.4453
 11
39.927
 21
-31.7634
  0
LINE
  8
0
 10
39.927
 20
-31.7634
 11
39.6869
 21
-32.0536
  0
LINE
  8
0
 10
39.6869
 20
-32.0536
 11
39.4123
 21
-32.3115
  0
LINE
  8
0
 10
39.4123
 20
-32.3115
 11
39.1075
 21
-32.533
  0
LINE
  8
0
 10
39.1075
 20
-32.533
 11
38.7773
 21
-32.7145
  0
LINE
  8
0
 10
38.7773
 20
-32.7145
 11
38.427
 21
-32.8532
  0
LINE
  8
0
 10
38.427
 20
-32.8532
 11
38.0621
 21
-32.9469
  0
LINE
  8
0
 10
38.0621
 20
-32.9469
 11
37.6884
 21
-32.9941
  0
LINE
  8
0
 10
37.6884
 20
-32.9941
 11
37.3116
 21
-32.9941
  0
LINE
  8
0
 10
-37.6884
 20
-32.9941
 11
-38.0621
 21
-32.9469
  0
LINE
  8
0
 10
-38.0621
 20
-32.9469
 11
-38.427
 21
-32.8532
  0
LINE
  8
0
 10
-38.427
 20
-32.8532
 11
-38.7773
 21
-32.7145
  0
LINE
  8
0
 10
-38.7773
 20
-32.7145
 11
-39.1075
 21
-32.533
  0
LINE
  8
0
 10
-39.1075
 20
-32.533
 11
-39.4123
 21
-32.3115
  0
LINE
  8
0
 10
-39.4123
 20
-32.3115
 11
-39.6869
 21
-32.0536
  0
LINE
  8
0
 10
-39.6869
 20
-32.0536
 11
-39.927
 21
-31.7634
  0
LINE
  8
0
 10
-39.927
 20
-31.7634
 11
-40.1289
 21
-31.4453
  0
LINE
  8
0
 10
-40.1289
 20
-31.4453
 11
-40.2893
 21
-31.1044
  0
LINE
  8
0
 10
-40.2893
 20
-31.1044
 11
-40.4057
 21
-30.7461
  0
LINE
  8
0
 10
-40.4057
 20
-30.7461
 11
-40.4763
 21
-30.376
  0
LINE
  8
0
 10
-40.4763
 20
-30.376
 11
-40.5
 21
-30
  0
LINE
  8
0
 10
-40.5
 20
-30
 11
-40.4763
 21
-29.624
  0
LINE
  8
0
 10
-40.4763
 20
-29.624
 11
-40.4057
 21
-29.2539
  0
LINE
  8
0
 10
-40.4057
 20
-29.2539
 11
-40.2893
 21
-28.8956
  0
LINE
  8
0
 10
-40.2893
 20
-28.8956
 11
-40.1289
 21
-28.5547
  0
LINE
  8
0
 10
-40.1289
 20
-28.5547
 11
-39.927
 21
-28.2366
  0
LINE
  8
0
 10
-39.927
 20
-28.2366
 11
-39.6869
 21
-27.9464
  0
LINE
  8
0
 10
-39.6869
 20
-27.9464
 11
-39.4123
 21
-27.6884
  0
LINE
  8
0
 10
-39.4123
 20
-27.6884
 11
-39.1075
 21
-27.467
  0
LINE
  8
0
 10
-39.1075
 20
-27.467
 11
-38.7773
 21
-27.2855
  0
LINE
  8
0
 10
-38.7773
 20
-27.2855
 11
-38.427
 21
-27.1468
  0
LINE
  8
0
 10
-38.427
 20
-27.1468
 11
-38.0621
 21
-27.0531
  0
LINE
  8
0
 10
-38.0621
 20
-27.0531
 11
-37.6884
 21
-27.0059
  0
LINE
  8
0
 10
-37.6884
 20
-27.0059
 11
-37.3116
 21
-27.0059
  0
LINE
  8
0
 10
-37.3116
 20
-27.0059
 11
-36.9379
 21
-27.0531
  0
LINE
  8
0
 10
-36.9379
 20
-27.0531
 11
-36.5729
 21
-27.1468
  0
LINE
  8
0
 10
-36.5729
 20
-27.1468
 11
-36.2227
 21
-27.2855
  0
LINE
  8
0
 10
-36.2227
 20
-27.2855
 11
-35.8925
 21
-27.467
  0
LINE
  8
0
 10
-35.8925
 20
-27.467
 11
-35.5877
 21
-27.6884
  0
LINE
  8
0
 10
-35.5877
 20
-27.6884
 11
-35.3131
 21
-27.9464
  0
LINE
  8
0
 10
-35.3131
 20
-27.9464
 11
-35.0729
 21
-28.2366
  0
LINE
  8
0
 10
-35.0729
 20
-28.2366
 11
-34.8711
 21
-28.5547
  0
LINE
  8
0
 10
-34.8711
 20
-28.5547
 11
-34.7107
 21
-28.8956
  0
LINE
  8
0
 10
-34.7107
 20
-28.8956
 11
-34.5942
 21
-29.2539
  0
LINE
  8
0
 10
-34.5942
 20
-29.2539
 11
-34.5237
 21
-29.624
  0
LINE
  8
0
 10
-34.5237
 20
-29.624
 11
-34.5
 21
-30
  0
LINE
  8
0
 10
-34.5
 20
-30
 11
-34.5237
 21
-30.376
  0
LINE
  8
0
 10
-34.5237
 20
-30.376
 11
-34.5942
 21
-30.7461
  0
LINE
  8
0
 10
-34.5942
 20
-30.7461
 11
-34.7107
 21
-31.1044
  0
LINE
  8
0
 10
-34.7107
 20
-31.1044
 11
-34.8711
 21
-31.4453
  0
LINE
  8
0
 10
-34.8711
 20
-31.4453
 11
-35.0729
 21
-31.7634
  0
LINE
  8
0
 10
-35.0729
 20
-31.7634
 11
-35.3131
 21
-32.0536
  0
LINE
  8
0
 10
-35.3131
 20
-32.0536
 11
-35.5877
 21
-32.3115
  0
LINE
  8
0
 10
-35.5877
 20
-32.3115
 11
-35.8925
 21
-32.533
  0
LINE
  8
0
 10
-35.8925
 20
-32.533
 11
-36.2227
 21
-32.7145
  0
LINE
  8
0
 10
-36.2227
 20
-32.7145
 11
-36.5729
 21
-32.8532
  0
LINE
  8
0
 10
-36.5729
 20
-32.8532
 11
-36.9379
 21
-32.9469
  0
LINE
  8
0
 10
-36.9379
 20
-32.9469
 11
-37.3116
 21
-32.9941
  0
LINE
  8
0
 10
-37.3116
 20
-32.9941
 11
-37.6884
 21
-32.9941
  0
ENDSEC
  0
SECTION
  2
OBJECTS
  0
DICTIONARY
  0
ENDSEC
  0
EOF
