  0
SECTION
  2
BLOCKS
  0
ENDSEC
  0
SECTION
  2
ENTITIES
  0
LINE
  8
0
 10
107.937
 20
-14.4114
 11
108.545
 21
-14.2553
  0
LINE
  8
0
 10
108.545
 20
-14.2553
 11
109.129
 21
-14.0241
  0
LINE
  8
0
 10
109.129
 20
-14.0241
 11
109.679
 21
-13.7216
  0
LINE
  8
0
 10
109.679
 20
-13.7216
 11
110.187
 21
-13.3526
  0
LINE
  8
0
 10
110.187
 20
-13.3526
 11
110.645
 21
-12.9227
  0
LINE
  8
0
 10
110.645
 20
-12.9227
 11
111.045
 21
-12.4389
  0
LINE
  8
0
 10
111.045
 20
-12.4389
 11
111.382
 21
-11.9088
  0
LINE
  8
0
 10
111.382
 20
-11.9088
 11
111.649
 21
-11.3406
  0
LINE
  8
0
 10
111.649
 20
-11.3406
 11
111.843
 21
-10.7434
  0
LINE
  8
0
 10
111.843
 20
-10.7434
 11
111.961
 21
-10.1267
  0
LINE
  8
0
 10
111.961
 20
-10.1267
 11
112
 21
-9.5
  0
LINE
  8
0
 10
112
 20
-9.5
 11
112
 21
9.5
  0
LINE
  8
0
 10
112
 20
9.5
 11
111.961
 21
10.1267
  0
LINE
  8
0
 10
111.961
 20
10.1267
 11
111.843
 21
10.7434
  0
LINE
  8
0
 10
111.843
 20
10.7434
 11
111.649
 21
11.3406
  0
LINE
  8
0
 10
111.649
 20
11.3406
 11
111.382
 21
11.9088
  0
LINE
  8
0
 10
111.382
 20
11.9088
 11
111.045
 21
12.4389
  0
LINE
  8
0
 10
111.045
 20
12.4389
 11
110.645
 21
12.9227
  0
LINE
  8
0
 10
110.645
 20
12.9227
 11
110.187
 21
13.3526
  0
LINE
  8
0
 10
110.187
 20
13.3526
 11
109.679
 21
13.7216
  0
LINE
  8
0
 10
109.679
 20
13.7216
 11
109.129
 21
14.0241
  0
LINE
  8
0
 10
109.129
 20
14.0241
 11
108.545
 21
14.2553
  0
LINE
  8
0
 10
108.545
 20
14.2553
 11
107.937
 21
14.4114
  0
LINE
  8
0
 10
107.937
 20
14.4114
 11
107.314
 21
14.4901
  0
LINE
  8
0
 10
107.314
 20
14.4901
 11
-107.314
 21
14.4901
  0
LINE
  8
0
 10
-107.314
 20
14.4901
 11
-107.937
 21
14.4114
  0
LINE
  8
0
 10
-107.937
 20
14.4114
 11
-108.545
 21
14.2553
  0
LINE
  8
0
 10
-108.545
 20
14.2553
 11
-109.129
 21
14.0241
  0
LINE
  8
0
 10
-109.129
 20
14.0241
 11
-109.679
 21
13.7216
  0
LINE
  8
0
 10
-109.679
 20
13.7216
 11
-110.187
 21
13.3526
  0
LINE
  8
0
 10
-110.187
 20
13.3526
 11
-110.645
 21
12.9227
  0
LINE
  8
0
 10
-110.645
 20
12.9227
 11
-111.045
 21
12.4389
  0
LINE
  8
0
 10
-111.045
 20
12.4389
 11
-111.382
 21
11.9088
  0
LINE
  8
0
 10
-111.382
 20
11.9088
 11
-111.649
 21
11.3406
  0
LINE
  8
0
 10
-111.649
 20
11.3406
 11
-111.843
 21
10.7434
  0
LINE
  8
0
 10
-111.843
 20
10.7434
 11
-111.961
 21
10.1267
  0
LINE
  8
0
 10
-111.961
 20
10.1267
 11
-112
 21
9.5
  0
LINE
  8
0
 10
-112
 20
9.5
 11
-112
 21
-9.5
  0
LINE
  8
0
 10
-112
 20
-9.5
 11
-111.961
 21
-10.1267
  0
LINE
  8
0
 10
-111.961
 20
-10.1267
 11
-111.843
 21
-10.7434
  0
LINE
  8
0
 10
-111.843
 20
-10.7434
 11
-111.649
 21
-11.3406
  0
LINE
  8
0
 10
-111.649
 20
-11.3406
 11
-111.382
 21
-11.9088
  0
LINE
  8
0
 10
-111.382
 20
-11.9088
 11
-111.045
 21
-12.4389
  0
LINE
  8
0
 10
-111.045
 20
-12.4389
 11
-110.645
 21
-12.9227
  0
LINE
  8
0
 10
-110.645
 20
-12.9227
 11
-110.187
 21
-13.3526
  0
LINE
  8
0
 10
-110.187
 20
-13.3526
 11
-109.679
 21
-13.7216
  0
LINE
  8
0
 10
-109.679
 20
-13.7216
 11
-109.129
 21
-14.0241
  0
LINE
  8
0
 10
-109.129
 20
-14.0241
 11
-108.545
 21
-14.2553
  0
LINE
  8
0
 10
-108.545
 20
-14.2553
 11
-107.937
 21
-14.4114
  0
LINE
  8
0
 10
-107.937
 20
-14.4114
 11
-107.314
 21
-14.4901
  0
LINE
  8
0
 10
-107.314
 20
-14.4901
 11
107.314
 21
-14.4901
  0
LINE
  8
0
 10
107.314
 20
-14.4901
 11
107.937
 21
-14.4114
  0
LINE
  8
0
 10
-45.1884
 20
4.50591
 11
-45.5621
 21
4.55313
  0
LINE
  8
0
 10
-45.5621
 20
4.55313
 11
-45.927
 21
4.64682
  0
LINE
  8
0
 10
-45.927
 20
4.64682
 11
-46.2773
 21
4.78551
  0
LINE
  8
0
 10
-46.2773
 20
4.78551
 11
-46.6075
 21
4.96701
  0
LINE
  8
0
 10
-46.6075
 20
4.96701
 11
-46.9123
 21
5.18845
  0
LINE
  8
0
 10
-46.9123
 20
5.18845
 11
-47.1869
 21
5.44635
  0
LINE
  8
0
 10
-47.1869
 20
5.44635
 11
-47.427
 21
5.73663
  0
LINE
  8
0
 10
-47.427
 20
5.73663
 11
-47.6289
 21
6.05473
  0
LINE
  8
0
 10
-47.6289
 20
6.05473
 11
-47.7893
 21
6.39561
  0
LINE
  8
0
 10
-47.7893
 20
6.39561
 11
-47.9057
 21
6.75392
  0
LINE
  8
0
 10
-47.9057
 20
6.75392
 11
-47.9763
 21
7.12399
  0
LINE
  8
0
 10
-47.9763
 20
7.12399
 11
-48
 21
7.5
  0
LINE
  8
0
 10
-48
 20
7.5
 11
-47.9763
 21
7.87599
  0
LINE
  8
0
 10
-47.9763
 20
7.87599
 11
-47.9057
 21
8.24606
  0
LINE
  8
0
 10
-47.9057
 20
8.24606
 11
-47.7893
 21
8.60437
  0
LINE
  8
0
 10
-47.7893
 20
8.60437
 11
-47.6289
 21
8.94525
  0
LINE
  8
0
 10
-47.6289
 20
8.94525
 11
-47.427
 21
9.26335
  0
LINE
  8
0
 10
-47.427
 20
9.26335
 11
-47.1869
 21
9.55363
  0
LINE
  8
0
 10
-47.1869
 20
9.55363
 11
-46.9123
 21
9.81154
  0
LINE
  8
0
 10
-46.9123
 20
9.81154
 11
-46.6075
 21
10.033
  0
LINE
  8
0
 10
-46.6075
 20
10.033
 11
-46.2773
 21
10.2145
  0
LINE
  8
0
 10
-46.2773
 20
10.2145
 11
-45.927
 21
10.3532
  0
LINE
  8
0
 10
-45.927
 20
10.3532
 11
-45.5621
 21
10.4469
  0
LINE
  8
0
 10
-45.5621
 20
10.4469
 11
-45.1884
 21
10.4941
  0
LINE
  8
0
 10
-45.1884
 20
10.4941
 11
-44.8116
 21
10.4941
  0
LINE
  8
0
 10
-44.8116
 20
10.4941
 11
-44.4379
 21
10.4469
  0
LINE
  8
0
 10
-44.4379
 20
10.4469
 11
-44.0729
 21
10.3532
  0
LINE
  8
0
 10
-44.0729
 20
10.3532
 11
-43.7227
 21
10.2145
  0
LINE
  8
0
 10
-43.7227
 20
10.2145
 11
-43.3925
 21
10.033
  0
LINE
  8
0
 10
-43.3925
 20
10.033
 11
-43.0877
 21
9.81154
  0
LINE
  8
0
 10
-43.0877
 20
9.81154
 11
-42.8131
 21
9.55363
  0
LINE
  8
0
 10
-42.8131
 20
9.55363
 11
-42.5729
 21
9.26335
  0
LINE
  8
0
 10
-42.5729
 20
9.26335
 11
-42.3711
 21
8.94525
  0
LINE
  8
0
 10
-42.3711
 20
8.94525
 11
-42.2107
 21
8.60437
  0
LINE
  8
0
 10
-42.2107
 20
8.60437
 11
-42.0942
 21
8.24606
  0
LINE
  8
0
 10
-42.0942
 20
8.24606
 11
-42.0237
 21
7.87599
  0
LINE
  8
0
 10
-42.0237
 20
7.87599
 11
-42
 21
7.5
  0
LINE
  8
0
 10
-42
 20
7.5
 11
-42.0237
 21
7.12399
  0
LINE
  8
0
 10
-42.0237
 20
7.12399
 11
-42.0942
 21
6.75392
  0
LINE
  8
0
 10
-42.0942
 20
6.75392
 11
-42.2107
 21
6.39561
  0
LINE
  8
0
 10
-42.2107
 20
6.39561
 11
-42.3711
 21
6.05473
  0
LINE
  8
0
 10
-42.3711
 20
6.05473
 11
-42.5729
 21
5.73663
  0
LINE
  8
0
 10
-42.5729
 20
5.73663
 11
-42.8131
 21
5.44635
  0
LINE
  8
0
 10
-42.8131
 20
5.44635
 11
-43.0877
 21
5.18845
  0
LINE
  8
0
 10
-43.0877
 20
5.18845
 11
-43.3925
 21
4.96701
  0
LINE
  8
0
 10
-43.3925
 20
4.96701
 11
-43.7227
 21
4.78551
  0
LINE
  8
0
 10
-43.7227
 20
4.78551
 11
-44.0729
 21
4.64682
  0
LINE
  8
0
 10
-44.0729
 20
4.64682
 11
-44.4379
 21
4.55313
  0
LINE
  8
0
 10
-44.4379
 20
4.55313
 11
-44.8116
 21
4.50591
  0
LINE
  8
0
 10
-44.8116
 20
4.50591
 11
-45.1884
 21
4.50591
  0
LINE
  8
0
 10
-105.188
 20
4.50591
 11
-105.562
 21
4.55313
  0
LINE
  8
0
 10
-105.562
 20
4.55313
 11
-105.927
 21
4.64682
  0
LINE
  8
0
 10
-105.927
 20
4.64682
 11
-106.277
 21
4.78551
  0
LINE
  8
0
 10
-106.277
 20
4.78551
 11
-106.607
 21
4.96701
  0
LINE
  8
0
 10
-106.607
 20
4.96701
 11
-106.912
 21
5.18845
  0
LINE
  8
0
 10
-106.912
 20
5.18845
 11
-107.187
 21
5.44635
  0
LINE
  8
0
 10
-107.187
 20
5.44635
 11
-107.427
 21
5.73663
  0
LINE
  8
0
 10
-107.427
 20
5.73663
 11
-107.629
 21
6.05473
  0
LINE
  8
0
 10
-107.629
 20
6.05473
 11
-107.789
 21
6.39561
  0
LINE
  8
0
 10
-107.789
 20
6.39561
 11
-107.906
 21
6.75392
  0
LINE
  8
0
 10
-107.906
 20
6.75392
 11
-107.976
 21
7.12399
  0
LINE
  8
0
 10
-107.976
 20
7.12399
 11
-108
 21
7.5
  0
LINE
  8
0
 10
-108
 20
7.5
 11
-107.976
 21
7.87599
  0
LINE
  8
0
 10
-107.976
 20
7.87599
 11
-107.906
 21
8.24606
  0
LINE
  8
0
 10
-107.906
 20
8.24606
 11
-107.789
 21
8.60437
  0
LINE
  8
0
 10
-107.789
 20
8.60437
 11
-107.629
 21
8.94525
  0
LINE
  8
0
 10
-107.629
 20
8.94525
 11
-107.427
 21
9.26335
  0
LINE
  8
0
 10
-107.427
 20
9.26335
 11
-107.187
 21
9.55363
  0
LINE
  8
0
 10
-107.187
 20
9.55363
 11
-106.912
 21
9.81154
  0
LINE
  8
0
 10
-106.912
 20
9.81154
 11
-106.607
 21
10.033
  0
LINE
  8
0
 10
-106.607
 20
10.033
 11
-106.277
 21
10.2145
  0
LINE
  8
0
 10
-106.277
 20
10.2145
 11
-105.927
 21
10.3532
  0
LINE
  8
0
 10
-105.927
 20
10.3532
 11
-105.562
 21
10.4469
  0
LINE
  8
0
 10
-105.562
 20
10.4469
 11
-105.188
 21
10.4941
  0
LINE
  8
0
 10
-105.188
 20
10.4941
 11
-104.812
 21
10.4941
  0
LINE
  8
0
 10
-104.812
 20
10.4941
 11
-104.438
 21
10.4469
  0
LINE
  8
0
 10
-104.438
 20
10.4469
 11
-104.073
 21
10.3532
  0
LINE
  8
0
 10
-104.073
 20
10.3532
 11
-103.723
 21
10.2145
  0
LINE
  8
0
 10
-103.723
 20
10.2145
 11
-103.393
 21
10.033
  0
LINE
  8
0
 10
-103.393
 20
10.033
 11
-103.088
 21
9.81154
  0
LINE
  8
0
 10
-103.088
 20
9.81154
 11
-102.813
 21
9.55363
  0
LINE
  8
0
 10
-102.813
 20
9.55363
 11
-102.573
 21
9.26335
  0
LINE
  8
0
 10
-102.573
 20
9.26335
 11
-102.371
 21
8.94525
  0
LINE
  8
0
 10
-102.371
 20
8.94525
 11
-102.211
 21
8.60437
  0
LINE
  8
0
 10
-102.211
 20
8.60437
 11
-102.094
 21
8.24606
  0
LINE
  8
0
 10
-102.094
 20
8.24606
 11
-102.024
 21
7.87599
  0
LINE
  8
0
 10
-102.024
 20
7.87599
 11
-102
 21
7.5
  0
LINE
  8
0
 10
-102
 20
7.5
 11
-102.024
 21
7.12399
  0
LINE
  8
0
 10
-102.024
 20
7.12399
 11
-102.094
 21
6.75392
  0
LINE
  8
0
 10
-102.094
 20
6.75392
 11
-102.211
 21
6.39561
  0
LINE
  8
0
 10
-102.211
 20
6.39561
 11
-102.371
 21
6.05473
  0
LINE
  8
0
 10
-102.371
 20
6.05473
 11
-102.573
 21
5.73663
  0
LINE
  8
0
 10
-102.573
 20
5.73663
 11
-102.813
 21
5.44635
  0
LINE
  8
0
 10
-102.813
 20
5.44635
 11
-103.088
 21
5.18845
  0
LINE
  8
0
 10
-103.088
 20
5.18845
 11
-103.393
 21
4.96701
  0
LINE
  8
0
 10
-103.393
 20
4.96701
 11
-103.723
 21
4.78551
  0
LINE
  8
0
 10
-103.723
 20
4.78551
 11
-104.073
 21
4.64682
  0
LINE
  8
0
 10
-104.073
 20
4.64682
 11
-104.438
 21
4.55313
  0
LINE
  8
0
 10
-104.438
 20
4.55313
 11
-104.812
 21
4.50591
  0
LINE
  8
0
 10
-104.812
 20
4.50591
 11
-105.188
 21
4.50591
  0
LINE
  8
0
 10
89.8116
 20
4.50591
 11
89.4379
 21
4.55313
  0
LINE
  8
0
 10
89.4379
 20
4.55313
 11
89.073
 21
4.64682
  0
LINE
  8
0
 10
89.073
 20
4.64682
 11
88.7227
 21
4.78551
  0
LINE
  8
0
 10
88.7227
 20
4.78551
 11
88.3925
 21
4.96701
  0
LINE
  8
0
 10
88.3925
 20
4.96701
 11
88.0877
 21
5.18845
  0
LINE
  8
0
 10
88.0877
 20
5.18845
 11
87.8131
 21
5.44635
  0
LINE
  8
0
 10
87.8131
 20
5.44635
 11
87.573
 21
5.73663
  0
LINE
  8
0
 10
87.573
 20
5.73663
 11
87.3711
 21
6.05473
  0
LINE
  8
0
 10
87.3711
 20
6.05473
 11
87.2107
 21
6.39561
  0
LINE
  8
0
 10
87.2107
 20
6.39561
 11
87.0943
 21
6.75392
  0
LINE
  8
0
 10
87.0943
 20
6.75392
 11
87.0237
 21
7.12399
  0
LINE
  8
0
 10
87.0237
 20
7.12399
 11
87
 21
7.5
  0
LINE
  8
0
 10
87
 20
7.5
 11
87.0237
 21
7.87599
  0
LINE
  8
0
 10
87.0237
 20
7.87599
 11
87.0943
 21
8.24606
  0
LINE
  8
0
 10
87.0943
 20
8.24606
 11
87.2107
 21
8.60437
  0
LINE
  8
0
 10
87.2107
 20
8.60437
 11
87.3711
 21
8.94525
  0
LINE
  8
0
 10
87.3711
 20
8.94525
 11
87.573
 21
9.26335
  0
LINE
  8
0
 10
87.573
 20
9.26335
 11
87.8131
 21
9.55363
  0
LINE
  8
0
 10
87.8131
 20
9.55363
 11
88.0877
 21
9.81154
  0
LINE
  8
0
 10
88.0877
 20
9.81154
 11
88.3925
 21
10.033
  0
LINE
  8
0
 10
88.3925
 20
10.033
 11
88.7227
 21
10.2145
  0
LINE
  8
0
 10
88.7227
 20
10.2145
 11
89.073
 21
10.3532
  0
LINE
  8
0
 10
89.073
 20
10.3532
 11
89.4379
 21
10.4469
  0
LINE
  8
0
 10
89.4379
 20
10.4469
 11
89.8116
 21
10.4941
  0
LINE
  8
0
 10
89.8116
 20
10.4941
 11
90.1884
 21
10.4941
  0
LINE
  8
0
 10
90.1884
 20
10.4941
 11
90.5621
 21
10.4469
  0
LINE
  8
0
 10
90.5621
 20
10.4469
 11
90.927
 21
10.3532
  0
LINE
  8
0
 10
90.927
 20
10.3532
 11
91.2773
 21
10.2145
  0
LINE
  8
0
 10
91.2773
 20
10.2145
 11
91.6075
 21
10.033
  0
LINE
  8
0
 10
91.6075
 20
10.033
 11
91.9123
 21
9.81154
  0
LINE
  8
0
 10
91.9123
 20
9.81154
 11
92.1869
 21
9.55363
  0
LINE
  8
0
 10
92.1869
 20
9.55363
 11
92.427
 21
9.26335
  0
LINE
  8
0
 10
92.427
 20
9.26335
 11
92.6289
 21
8.94525
  0
LINE
  8
0
 10
92.6289
 20
8.94525
 11
92.7893
 21
8.60437
  0
LINE
  8
0
 10
92.7893
 20
8.60437
 11
92.9057
 21
8.24606
  0
LINE
  8
0
 10
92.9057
 20
8.24606
 11
92.9763
 21
7.87599
  0
LINE
  8
0
 10
92.9763
 20
7.87599
 11
93
 21
7.5
  0
LINE
  8
0
 10
93
 20
7.5
 11
92.9763
 21
7.12399
  0
LINE
  8
0
 10
92.9763
 20
7.12399
 11
92.9057
 21
6.75392
  0
LINE
  8
0
 10
92.9057
 20
6.75392
 11
92.7893
 21
6.39561
  0
LINE
  8
0
 10
92.7893
 20
6.39561
 11
92.6289
 21
6.05473
  0
LINE
  8
0
 10
92.6289
 20
6.05473
 11
92.427
 21
5.73663
  0
LINE
  8
0
 10
92.427
 20
5.73663
 11
92.1869
 21
5.44635
  0
LINE
  8
0
 10
92.1869
 20
5.44635
 11
91.9123
 21
5.18845
  0
LINE
  8
0
 10
91.9123
 20
5.18845
 11
91.6075
 21
4.96701
  0
LINE
  8
0
 10
91.6075
 20
4.96701
 11
91.2773
 21
4.78551
  0
LINE
  8
0
 10
91.2773
 20
4.78551
 11
90.927
 21
4.64682
  0
LINE
  8
0
 10
90.927
 20
4.64682
 11
90.5621
 21
4.55313
  0
LINE
  8
0
 10
90.5621
 20
4.55313
 11
90.1884
 21
4.50591
  0
LINE
  8
0
 10
90.1884
 20
4.50591
 11
89.8116
 21
4.50591
  0
LINE
  8
0
 10
-75.1884
 20
4.50591
 11
-75.5621
 21
4.55313
  0
LINE
  8
0
 10
-75.5621
 20
4.55313
 11
-75.927
 21
4.64682
  0
LINE
  8
0
 10
-75.927
 20
4.64682
 11
-76.2773
 21
4.78551
  0
LINE
  8
0
 10
-76.2773
 20
4.78551
 11
-76.6075
 21
4.96701
  0
LINE
  8
0
 10
-76.6075
 20
4.96701
 11
-76.9123
 21
5.18845
  0
LINE
  8
0
 10
-76.9123
 20
5.18845
 11
-77.1869
 21
5.44635
  0
LINE
  8
0
 10
-77.1869
 20
5.44635
 11
-77.427
 21
5.73663
  0
LINE
  8
0
 10
-77.427
 20
5.73663
 11
-77.6289
 21
6.05473
  0
LINE
  8
0
 10
-77.6289
 20
6.05473
 11
-77.7893
 21
6.39561
  0
LINE
  8
0
 10
-77.7893
 20
6.39561
 11
-77.9057
 21
6.75392
  0
LINE
  8
0
 10
-77.9057
 20
6.75392
 11
-77.9763
 21
7.12399
  0
LINE
  8
0
 10
-77.9763
 20
7.12399
 11
-78
 21
7.5
  0
LINE
  8
0
 10
-78
 20
7.5
 11
-77.9763
 21
7.87599
  0
LINE
  8
0
 10
-77.9763
 20
7.87599
 11
-77.9057
 21
8.24606
  0
LINE
  8
0
 10
-77.9057
 20
8.24606
 11
-77.7893
 21
8.60437
  0
LINE
  8
0
 10
-77.7893
 20
8.60437
 11
-77.6289
 21
8.94525
  0
LINE
  8
0
 10
-77.6289
 20
8.94525
 11
-77.427
 21
9.26335
  0
LINE
  8
0
 10
-77.427
 20
9.26335
 11
-77.1869
 21
9.55363
  0
LINE
  8
0
 10
-77.1869
 20
9.55363
 11
-76.9123
 21
9.81154
  0
LINE
  8
0
 10
-76.9123
 20
9.81154
 11
-76.6075
 21
10.033
  0
LINE
  8
0
 10
-76.6075
 20
10.033
 11
-76.2773
 21
10.2145
  0
LINE
  8
0
 10
-76.2773
 20
10.2145
 11
-75.927
 21
10.3532
  0
LINE
  8
0
 10
-75.927
 20
10.3532
 11
-75.5621
 21
10.4469
  0
LINE
  8
0
 10
-75.5621
 20
10.4469
 11
-75.1884
 21
10.4941
  0
LINE
  8
0
 10
-75.1884
 20
10.4941
 11
-74.8116
 21
10.4941
  0
LINE
  8
0
 10
-74.8116
 20
10.4941
 11
-74.4379
 21
10.4469
  0
LINE
  8
0
 10
-74.4379
 20
10.4469
 11
-74.073
 21
10.3532
  0
LINE
  8
0
 10
-74.073
 20
10.3532
 11
-73.7227
 21
10.2145
  0
LINE
  8
0
 10
-73.7227
 20
10.2145
 11
-73.3925
 21
10.033
  0
LINE
  8
0
 10
-73.3925
 20
10.033
 11
-73.0877
 21
9.81154
  0
LINE
  8
0
 10
-73.0877
 20
9.81154
 11
-72.8131
 21
9.55363
  0
LINE
  8
0
 10
-72.8131
 20
9.55363
 11
-72.573
 21
9.26335
  0
LINE
  8
0
 10
-72.573
 20
9.26335
 11
-72.3711
 21
8.94525
  0
LINE
  8
0
 10
-72.3711
 20
8.94525
 11
-72.2107
 21
8.60437
  0
LINE
  8
0
 10
-72.2107
 20
8.60437
 11
-72.0943
 21
8.24606
  0
LINE
  8
0
 10
-72.0943
 20
8.24606
 11
-72.0237
 21
7.87599
  0
LINE
  8
0
 10
-72.0237
 20
7.87599
 11
-72
 21
7.5
  0
LINE
  8
0
 10
-72
 20
7.5
 11
-72.0237
 21
7.12399
  0
LINE
  8
0
 10
-72.0237
 20
7.12399
 11
-72.0943
 21
6.75392
  0
LINE
  8
0
 10
-72.0943
 20
6.75392
 11
-72.2107
 21
6.39561
  0
LINE
  8
0
 10
-72.2107
 20
6.39561
 11
-72.3711
 21
6.05473
  0
LINE
  8
0
 10
-72.3711
 20
6.05473
 11
-72.573
 21
5.73663
  0
LINE
  8
0
 10
-72.573
 20
5.73663
 11
-72.8131
 21
5.44635
  0
LINE
  8
0
 10
-72.8131
 20
5.44635
 11
-73.0877
 21
5.18845
  0
LINE
  8
0
 10
-73.0877
 20
5.18845
 11
-73.3925
 21
4.96701
  0
LINE
  8
0
 10
-73.3925
 20
4.96701
 11
-73.7227
 21
4.78551
  0
LINE
  8
0
 10
-73.7227
 20
4.78551
 11
-74.073
 21
4.64682
  0
LINE
  8
0
 10
-74.073
 20
4.64682
 11
-74.4379
 21
4.55313
  0
LINE
  8
0
 10
-74.4379
 20
4.55313
 11
-74.8116
 21
4.50591
  0
LINE
  8
0
 10
-74.8116
 20
4.50591
 11
-75.1884
 21
4.50591
  0
LINE
  8
0
 10
-30.1884
 20
4.50591
 11
-30.5621
 21
4.55313
  0
LINE
  8
0
 10
-30.5621
 20
4.55313
 11
-30.927
 21
4.64682
  0
LINE
  8
0
 10
-30.927
 20
4.64682
 11
-31.2773
 21
4.78551
  0
LINE
  8
0
 10
-31.2773
 20
4.78551
 11
-31.6075
 21
4.96701
  0
LINE
  8
0
 10
-31.6075
 20
4.96701
 11
-31.9123
 21
5.18845
  0
LINE
  8
0
 10
-31.9123
 20
5.18845
 11
-32.1869
 21
5.44635
  0
LINE
  8
0
 10
-32.1869
 20
5.44635
 11
-32.427
 21
5.73663
  0
LINE
  8
0
 10
-32.427
 20
5.73663
 11
-32.6289
 21
6.05473
  0
LINE
  8
0
 10
-32.6289
 20
6.05473
 11
-32.7893
 21
6.39561
  0
LINE
  8
0
 10
-32.7893
 20
6.39561
 11
-32.9057
 21
6.75392
  0
LINE
  8
0
 10
-32.9057
 20
6.75392
 11
-32.9763
 21
7.12399
  0
LINE
  8
0
 10
-32.9763
 20
7.12399
 11
-33
 21
7.5
  0
LINE
  8
0
 10
-33
 20
7.5
 11
-32.9763
 21
7.87599
  0
LINE
  8
0
 10
-32.9763
 20
7.87599
 11
-32.9057
 21
8.24606
  0
LINE
  8
0
 10
-32.9057
 20
8.24606
 11
-32.7893
 21
8.60437
  0
LINE
  8
0
 10
-32.7893
 20
8.60437
 11
-32.6289
 21
8.94525
  0
LINE
  8
0
 10
-32.6289
 20
8.94525
 11
-32.427
 21
9.26335
  0
LINE
  8
0
 10
-32.427
 20
9.26335
 11
-32.1869
 21
9.55363
  0
LINE
  8
0
 10
-32.1869
 20
9.55363
 11
-31.9123
 21
9.81154
  0
LINE
  8
0
 10
-31.9123
 20
9.81154
 11
-31.6075
 21
10.033
  0
LINE
  8
0
 10
-31.6075
 20
10.033
 11
-31.2773
 21
10.2145
  0
LINE
  8
0
 10
-31.2773
 20
10.2145
 11
-30.927
 21
10.3532
  0
LINE
  8
0
 10
-30.927
 20
10.3532
 11
-30.5621
 21
10.4469
  0
LINE
  8
0
 10
-30.5621
 20
10.4469
 11
-30.1884
 21
10.4941
  0
LINE
  8
0
 10
-30.1884
 20
10.4941
 11
-29.8116
 21
10.4941
  0
LINE
  8
0
 10
-29.8116
 20
10.4941
 11
-29.4379
 21
10.4469
  0
LINE
  8
0
 10
-29.4379
 20
10.4469
 11
-29.0729
 21
10.3532
  0
LINE
  8
0
 10
-29.0729
 20
10.3532
 11
-28.7227
 21
10.2145
  0
LINE
  8
0
 10
-28.7227
 20
10.2145
 11
-28.3925
 21
10.033
  0
LINE
  8
0
 10
-28.3925
 20
10.033
 11
-28.0877
 21
9.81154
  0
LINE
  8
0
 10
-28.0877
 20
9.81154
 11
-27.8131
 21
9.55363
  0
LINE
  8
0
 10
-27.8131
 20
9.55363
 11
-27.5729
 21
9.26335
  0
LINE
  8
0
 10
-27.5729
 20
9.26335
 11
-27.3711
 21
8.94525
  0
LINE
  8
0
 10
-27.3711
 20
8.94525
 11
-27.2107
 21
8.60437
  0
LINE
  8
0
 10
-27.2107
 20
8.60437
 11
-27.0942
 21
8.24606
  0
LINE
  8
0
 10
-27.0942
 20
8.24606
 11
-27.0237
 21
7.87599
  0
LINE
  8
0
 10
-27.0237
 20
7.87599
 11
-27
 21
7.5
  0
LINE
  8
0
 10
-27
 20
7.5
 11
-27.0237
 21
7.12399
  0
LINE
  8
0
 10
-27.0237
 20
7.12399
 11
-27.0942
 21
6.75392
  0
LINE
  8
0
 10
-27.0942
 20
6.75392
 11
-27.2107
 21
6.39561
  0
LINE
  8
0
 10
-27.2107
 20
6.39561
 11
-27.3711
 21
6.05473
  0
LINE
  8
0
 10
-27.3711
 20
6.05473
 11
-27.5729
 21
5.73663
  0
LINE
  8
0
 10
-27.5729
 20
5.73663
 11
-27.8131
 21
5.44635
  0
LINE
  8
0
 10
-27.8131
 20
5.44635
 11
-28.0877
 21
5.18845
  0
LINE
  8
0
 10
-28.0877
 20
5.18845
 11
-28.3925
 21
4.96701
  0
LINE
  8
0
 10
-28.3925
 20
4.96701
 11
-28.7227
 21
4.78551
  0
LINE
  8
0
 10
-28.7227
 20
4.78551
 11
-29.0729
 21
4.64682
  0
LINE
  8
0
 10
-29.0729
 20
4.64682
 11
-29.4379
 21
4.55313
  0
LINE
  8
0
 10
-29.4379
 20
4.55313
 11
-29.8116
 21
4.50591
  0
LINE
  8
0
 10
-29.8116
 20
4.50591
 11
-30.1884
 21
4.50591
  0
LINE
  8
0
 10
-90.1884
 20
4.50591
 11
-90.5621
 21
4.55313
  0
LINE
  8
0
 10
-90.5621
 20
4.55313
 11
-90.927
 21
4.64682
  0
LINE
  8
0
 10
-90.927
 20
4.64682
 11
-91.2773
 21
4.78551
  0
LINE
  8
0
 10
-91.2773
 20
4.78551
 11
-91.6075
 21
4.96701
  0
LINE
  8
0
 10
-91.6075
 20
4.96701
 11
-91.9123
 21
5.18845
  0
LINE
  8
0
 10
-91.9123
 20
5.18845
 11
-92.1869
 21
5.44635
  0
LINE
  8
0
 10
-92.1869
 20
5.44635
 11
-92.427
 21
5.73663
  0
LINE
  8
0
 10
-92.427
 20
5.73663
 11
-92.6289
 21
6.05473
  0
LINE
  8
0
 10
-92.6289
 20
6.05473
 11
-92.7893
 21
6.39561
  0
LINE
  8
0
 10
-92.7893
 20
6.39561
 11
-92.9057
 21
6.75392
  0
LINE
  8
0
 10
-92.9057
 20
6.75392
 11
-92.9763
 21
7.12399
  0
LINE
  8
0
 10
-92.9763
 20
7.12399
 11
-93
 21
7.5
  0
LINE
  8
0
 10
-93
 20
7.5
 11
-92.9763
 21
7.87599
  0
LINE
  8
0
 10
-92.9763
 20
7.87599
 11
-92.9057
 21
8.24606
  0
LINE
  8
0
 10
-92.9057
 20
8.24606
 11
-92.7893
 21
8.60437
  0
LINE
  8
0
 10
-92.7893
 20
8.60437
 11
-92.6289
 21
8.94525
  0
LINE
  8
0
 10
-92.6289
 20
8.94525
 11
-92.427
 21
9.26335
  0
LINE
  8
0
 10
-92.427
 20
9.26335
 11
-92.1869
 21
9.55363
  0
LINE
  8
0
 10
-92.1869
 20
9.55363
 11
-91.9123
 21
9.81154
  0
LINE
  8
0
 10
-91.9123
 20
9.81154
 11
-91.6075
 21
10.033
  0
LINE
  8
0
 10
-91.6075
 20
10.033
 11
-91.2773
 21
10.2145
  0
LINE
  8
0
 10
-91.2773
 20
10.2145
 11
-90.927
 21
10.3532
  0
LINE
  8
0
 10
-90.927
 20
10.3532
 11
-90.5621
 21
10.4469
  0
LINE
  8
0
 10
-90.5621
 20
10.4469
 11
-90.1884
 21
10.4941
  0
LINE
  8
0
 10
-90.1884
 20
10.4941
 11
-89.8116
 21
10.4941
  0
LINE
  8
0
 10
-89.8116
 20
10.4941
 11
-89.4379
 21
10.4469
  0
LINE
  8
0
 10
-89.4379
 20
10.4469
 11
-89.073
 21
10.3532
  0
LINE
  8
0
 10
-89.073
 20
10.3532
 11
-88.7227
 21
10.2145
  0
LINE
  8
0
 10
-88.7227
 20
10.2145
 11
-88.3925
 21
10.033
  0
LINE
  8
0
 10
-88.3925
 20
10.033
 11
-88.0877
 21
9.81154
  0
LINE
  8
0
 10
-88.0877
 20
9.81154
 11
-87.8131
 21
9.55363
  0
LINE
  8
0
 10
-87.8131
 20
9.55363
 11
-87.573
 21
9.26335
  0
LINE
  8
0
 10
-87.573
 20
9.26335
 11
-87.3711
 21
8.94525
  0
LINE
  8
0
 10
-87.3711
 20
8.94525
 11
-87.2107
 21
8.60437
  0
LINE
  8
0
 10
-87.2107
 20
8.60437
 11
-87.0943
 21
8.24606
  0
LINE
  8
0
 10
-87.0943
 20
8.24606
 11
-87.0237
 21
7.87599
  0
LINE
  8
0
 10
-87.0237
 20
7.87599
 11
-87
 21
7.5
  0
LINE
  8
0
 10
-87
 20
7.5
 11
-87.0237
 21
7.12399
  0
LINE
  8
0
 10
-87.0237
 20
7.12399
 11
-87.0943
 21
6.75392
  0
LINE
  8
0
 10
-87.0943
 20
6.75392
 11
-87.2107
 21
6.39561
  0
LINE
  8
0
 10
-87.2107
 20
6.39561
 11
-87.3711
 21
6.05473
  0
LINE
  8
0
 10
-87.3711
 20
6.05473
 11
-87.573
 21
5.73663
  0
LINE
  8
0
 10
-87.573
 20
5.73663
 11
-87.8131
 21
5.44635
  0
LINE
  8
0
 10
-87.8131
 20
5.44635
 11
-88.0877
 21
5.18845
  0
LINE
  8
0
 10
-88.0877
 20
5.18845
 11
-88.3925
 21
4.96701
  0
LINE
  8
0
 10
-88.3925
 20
4.96701
 11
-88.7227
 21
4.78551
  0
LINE
  8
0
 10
-88.7227
 20
4.78551
 11
-89.073
 21
4.64682
  0
LINE
  8
0
 10
-89.073
 20
4.64682
 11
-89.4379
 21
4.55313
  0
LINE
  8
0
 10
-89.4379
 20
4.55313
 11
-89.8116
 21
4.50591
  0
LINE
  8
0
 10
-89.8116
 20
4.50591
 11
-90.1884
 21
4.50591
  0
LINE
  8
0
 10
-60.1884
 20
4.50591
 11
-60.5621
 21
4.55313
  0
LINE
  8
0
 10
-60.5621
 20
4.55313
 11
-60.927
 21
4.64682
  0
LINE
  8
0
 10
-60.927
 20
4.64682
 11
-61.2773
 21
4.78551
  0
LINE
  8
0
 10
-61.2773
 20
4.78551
 11
-61.6075
 21
4.96701
  0
LINE
  8
0
 10
-61.6075
 20
4.96701
 11
-61.9123
 21
5.18845
  0
LINE
  8
0
 10
-61.9123
 20
5.18845
 11
-62.1869
 21
5.44635
  0
LINE
  8
0
 10
-62.1869
 20
5.44635
 11
-62.427
 21
5.73663
  0
LINE
  8
0
 10
-62.427
 20
5.73663
 11
-62.6289
 21
6.05473
  0
LINE
  8
0
 10
-62.6289
 20
6.05473
 11
-62.7893
 21
6.39561
  0
LINE
  8
0
 10
-62.7893
 20
6.39561
 11
-62.9057
 21
6.75392
  0
LINE
  8
0
 10
-62.9057
 20
6.75392
 11
-62.9763
 21
7.12399
  0
LINE
  8
0
 10
-62.9763
 20
7.12399
 11
-63
 21
7.5
  0
LINE
  8
0
 10
-63
 20
7.5
 11
-62.9763
 21
7.87599
  0
LINE
  8
0
 10
-62.9763
 20
7.87599
 11
-62.9057
 21
8.24606
  0
LINE
  8
0
 10
-62.9057
 20
8.24606
 11
-62.7893
 21
8.60437
  0
LINE
  8
0
 10
-62.7893
 20
8.60437
 11
-62.6289
 21
8.94525
  0
LINE
  8
0
 10
-62.6289
 20
8.94525
 11
-62.427
 21
9.26335
  0
LINE
  8
0
 10
-62.427
 20
9.26335
 11
-62.1869
 21
9.55363
  0
LINE
  8
0
 10
-62.1869
 20
9.55363
 11
-61.9123
 21
9.81154
  0
LINE
  8
0
 10
-61.9123
 20
9.81154
 11
-61.6075
 21
10.033
  0
LINE
  8
0
 10
-61.6075
 20
10.033
 11
-61.2773
 21
10.2145
  0
LINE
  8
0
 10
-61.2773
 20
10.2145
 11
-60.927
 21
10.3532
  0
LINE
  8
0
 10
-60.927
 20
10.3532
 11
-60.5621
 21
10.4469
  0
LINE
  8
0
 10
-60.5621
 20
10.4469
 11
-60.1884
 21
10.4941
  0
LINE
  8
0
 10
-60.1884
 20
10.4941
 11
-59.8116
 21
10.4941
  0
LINE
  8
0
 10
-59.8116
 20
10.4941
 11
-59.4379
 21
10.4469
  0
LINE
  8
0
 10
-59.4379
 20
10.4469
 11
-59.0729
 21
10.3532
  0
LINE
  8
0
 10
-59.0729
 20
10.3532
 11
-58.7227
 21
10.2145
  0
LINE
  8
0
 10
-58.7227
 20
10.2145
 11
-58.3925
 21
10.033
  0
LINE
  8
0
 10
-58.3925
 20
10.033
 11
-58.0877
 21
9.81154
  0
LINE
  8
0
 10
-58.0877
 20
9.81154
 11
-57.8131
 21
9.55363
  0
LINE
  8
0
 10
-57.8131
 20
9.55363
 11
-57.5729
 21
9.26335
  0
LINE
  8
0
 10
-57.5729
 20
9.26335
 11
-57.3711
 21
8.94525
  0
LINE
  8
0
 10
-57.3711
 20
8.94525
 11
-57.2107
 21
8.60437
  0
LINE
  8
0
 10
-57.2107
 20
8.60437
 11
-57.0942
 21
8.24606
  0
LINE
  8
0
 10
-57.0942
 20
8.24606
 11
-57.0237
 21
7.87599
  0
LINE
  8
0
 10
-57.0237
 20
7.87599
 11
-57
 21
7.5
  0
LINE
  8
0
 10
-57
 20
7.5
 11
-57.0237
 21
7.12399
  0
LINE
  8
0
 10
-57.0237
 20
7.12399
 11
-57.0942
 21
6.75392
  0
LINE
  8
0
 10
-57.0942
 20
6.75392
 11
-57.2107
 21
6.39561
  0
LINE
  8
0
 10
-57.2107
 20
6.39561
 11
-57.3711
 21
6.05473
  0
LINE
  8
0
 10
-57.3711
 20
6.05473
 11
-57.5729
 21
5.73663
  0
LINE
  8
0
 10
-57.5729
 20
5.73663
 11
-57.8131
 21
5.44635
  0
LINE
  8
0
 10
-57.8131
 20
5.44635
 11
-58.0877
 21
5.18845
  0
LINE
  8
0
 10
-58.0877
 20
5.18845
 11
-58.3925
 21
4.96701
  0
LINE
  8
0
 10
-58.3925
 20
4.96701
 11
-58.7227
 21
4.78551
  0
LINE
  8
0
 10
-58.7227
 20
4.78551
 11
-59.0729
 21
4.64682
  0
LINE
  8
0
 10
-59.0729
 20
4.64682
 11
-59.4379
 21
4.55313
  0
LINE
  8
0
 10
-59.4379
 20
4.55313
 11
-59.8116
 21
4.50591
  0
LINE
  8
0
 10
-59.8116
 20
4.50591
 11
-60.1884
 21
4.50591
  0
LINE
  8
0
 10
104.812
 20
4.50591
 11
104.438
 21
4.55313
  0
LINE
  8
0
 10
104.438
 20
4.55313
 11
104.073
 21
4.64682
  0
LINE
  8
0
 10
104.073
 20
4.64682
 11
103.723
 21
4.78551
  0
LINE
  8
0
 10
103.723
 20
4.78551
 11
103.393
 21
4.96701
  0
LINE
  8
0
 10
103.393
 20
4.96701
 11
103.088
 21
5.18845
  0
LINE
  8
0
 10
103.088
 20
5.18845
 11
102.813
 21
5.44635
  0
LINE
  8
0
 10
102.813
 20
5.44635
 11
102.573
 21
5.73663
  0
LINE
  8
0
 10
102.573
 20
5.73663
 11
102.371
 21
6.05473
  0
LINE
  8
0
 10
102.371
 20
6.05473
 11
102.211
 21
6.39561
  0
LINE
  8
0
 10
102.211
 20
6.39561
 11
102.094
 21
6.75392
  0
LINE
  8
0
 10
102.094
 20
6.75392
 11
102.024
 21
7.12399
  0
LINE
  8
0
 10
102.024
 20
7.12399
 11
102
 21
7.5
  0
LINE
  8
0
 10
102
 20
7.5
 11
102.024
 21
7.87599
  0
LINE
  8
0
 10
102.024
 20
7.87599
 11
102.094
 21
8.24606
  0
LINE
  8
0
 10
102.094
 20
8.24606
 11
102.211
 21
8.60437
  0
LINE
  8
0
 10
102.211
 20
8.60437
 11
102.371
 21
8.94525
  0
LINE
  8
0
 10
102.371
 20
8.94525
 11
102.573
 21
9.26335
  0
LINE
  8
0
 10
102.573
 20
9.26335
 11
102.813
 21
9.55363
  0
LINE
  8
0
 10
102.813
 20
9.55363
 11
103.088
 21
9.81154
  0
LINE
  8
0
 10
103.088
 20
9.81154
 11
103.393
 21
10.033
  0
LINE
  8
0
 10
103.393
 20
10.033
 11
103.723
 21
10.2145
  0
LINE
  8
0
 10
103.723
 20
10.2145
 11
104.073
 21
10.3532
  0
LINE
  8
0
 10
104.073
 20
10.3532
 11
104.438
 21
10.4469
  0
LINE
  8
0
 10
104.438
 20
10.4469
 11
104.812
 21
10.4941
  0
LINE
  8
0
 10
104.812
 20
10.4941
 11
105.188
 21
10.4941
  0
LINE
  8
0
 10
105.188
 20
10.4941
 11
105.562
 21
10.4469
  0
LINE
  8
0
 10
105.562
 20
10.4469
 11
105.927
 21
10.3532
  0
LINE
  8
0
 10
105.927
 20
10.3532
 11
106.277
 21
10.2145
  0
LINE
  8
0
 10
106.277
 20
10.2145
 11
106.607
 21
10.033
  0
LINE
  8
0
 10
106.607
 20
10.033
 11
106.912
 21
9.81154
  0
LINE
  8
0
 10
106.912
 20
9.81154
 11
107.187
 21
9.55363
  0
LINE
  8
0
 10
107.187
 20
9.55363
 11
107.427
 21
9.26335
  0
LINE
  8
0
 10
107.427
 20
9.26335
 11
107.629
 21
8.94525
  0
LINE
  8
0
 10
107.629
 20
8.94525
 11
107.789
 21
8.60437
  0
LINE
  8
0
 10
107.789
 20
8.60437
 11
107.906
 21
8.24606
  0
LINE
  8
0
 10
107.906
 20
8.24606
 11
107.976
 21
7.87599
  0
LINE
  8
0
 10
107.976
 20
7.87599
 11
108
 21
7.5
  0
LINE
  8
0
 10
108
 20
7.5
 11
107.976
 21
7.12399
  0
LINE
  8
0
 10
107.976
 20
7.12399
 11
107.906
 21
6.75392
  0
LINE
  8
0
 10
107.906
 20
6.75392
 11
107.789
 21
6.39561
  0
LINE
  8
0
 10
107.789
 20
6.39561
 11
107.629
 21
6.05473
  0
LINE
  8
0
 10
107.629
 20
6.05473
 11
107.427
 21
5.73663
  0
LINE
  8
0
 10
107.427
 20
5.73663
 11
107.187
 21
5.44635
  0
LINE
  8
0
 10
107.187
 20
5.44635
 11
106.912
 21
5.18845
  0
LINE
  8
0
 10
106.912
 20
5.18845
 11
106.607
 21
4.96701
  0
LINE
  8
0
 10
106.607
 20
4.96701
 11
106.277
 21
4.78551
  0
LINE
  8
0
 10
106.277
 20
4.78551
 11
105.927
 21
4.64682
  0
LINE
  8
0
 10
105.927
 20
4.64682
 11
105.562
 21
4.55313
  0
LINE
  8
0
 10
105.562
 20
4.55313
 11
105.188
 21
4.50591
  0
LINE
  8
0
 10
105.188
 20
4.50591
 11
104.812
 21
4.50591
  0
LINE
  8
0
 10
-14.4379
 20
10.4469
 11
-14.0729
 21
10.3532
  0
LINE
  8
0
 10
-14.0729
 20
10.3532
 11
-13.7227
 21
10.2145
  0
LINE
  8
0
 10
-13.7227
 20
10.2145
 11
-13.3925
 21
10.033
  0
LINE
  8
0
 10
-13.3925
 20
10.033
 11
-13.0877
 21
9.81154
  0
LINE
  8
0
 10
-13.0877
 20
9.81154
 11
-12.8131
 21
9.55363
  0
LINE
  8
0
 10
-12.8131
 20
9.55363
 11
-12.5729
 21
9.26335
  0
LINE
  8
0
 10
-12.5729
 20
9.26335
 11
-12.3711
 21
8.94525
  0
LINE
  8
0
 10
-12.3711
 20
8.94525
 11
-12.2107
 21
8.60437
  0
LINE
  8
0
 10
-12.2107
 20
8.60437
 11
-12.0942
 21
8.24606
  0
LINE
  8
0
 10
-12.0942
 20
8.24606
 11
-12.0237
 21
7.87599
  0
LINE
  8
0
 10
-12.0237
 20
7.87599
 11
-12
 21
7.5
  0
LINE
  8
0
 10
-12
 20
7.5
 11
-12.0237
 21
7.12399
  0
LINE
  8
0
 10
-12.0237
 20
7.12399
 11
-12.0942
 21
6.75392
  0
LINE
  8
0
 10
-12.0942
 20
6.75392
 11
-12.2107
 21
6.39561
  0
LINE
  8
0
 10
-12.2107
 20
6.39561
 11
-12.3711
 21
6.05473
  0
LINE
  8
0
 10
-12.3711
 20
6.05473
 11
-12.5729
 21
5.73663
  0
LINE
  8
0
 10
-12.5729
 20
5.73663
 11
-12.8131
 21
5.44635
  0
LINE
  8
0
 10
-12.8131
 20
5.44635
 11
-13.0877
 21
5.18845
  0
LINE
  8
0
 10
-13.0877
 20
5.18845
 11
-13.3925
 21
4.96701
  0
LINE
  8
0
 10
-13.3925
 20
4.96701
 11
-13.7227
 21
4.78551
  0
LINE
  8
0
 10
-13.7227
 20
4.78551
 11
-14.0729
 21
4.64682
  0
LINE
  8
0
 10
-14.0729
 20
4.64682
 11
-14.4379
 21
4.55313
  0
LINE
  8
0
 10
-14.4379
 20
4.55313
 11
-14.8116
 21
4.50591
  0
LINE
  8
0
 10
-14.8116
 20
4.50591
 11
-15.1884
 21
4.50591
  0
LINE
  8
0
 10
-15.1884
 20
4.50591
 11
-15.5621
 21
4.55313
  0
LINE
  8
0
 10
-15.5621
 20
4.55313
 11
-15.927
 21
4.64682
  0
LINE
  8
0
 10
-15.927
 20
4.64682
 11
-16.2773
 21
4.78551
  0
LINE
  8
0
 10
-16.2773
 20
4.78551
 11
-16.6075
 21
4.96701
  0
LINE
  8
0
 10
-16.6075
 20
4.96701
 11
-16.9123
 21
5.18845
  0
LINE
  8
0
 10
-16.9123
 20
5.18845
 11
-17.1869
 21
5.44635
  0
LINE
  8
0
 10
-17.1869
 20
5.44635
 11
-17.427
 21
5.73663
  0
LINE
  8
0
 10
-17.427
 20
5.73663
 11
-17.6289
 21
6.05473
  0
LINE
  8
0
 10
-17.6289
 20
6.05473
 11
-17.7893
 21
6.39561
  0
LINE
  8
0
 10
-17.7893
 20
6.39561
 11
-17.9057
 21
6.75392
  0
LINE
  8
0
 10
-17.9057
 20
6.75392
 11
-17.9763
 21
7.12399
  0
LINE
  8
0
 10
-17.9763
 20
7.12399
 11
-18
 21
7.5
  0
LINE
  8
0
 10
-18
 20
7.5
 11
-17.9763
 21
7.87599
  0
LINE
  8
0
 10
-17.9763
 20
7.87599
 11
-17.9057
 21
8.24606
  0
LINE
  8
0
 10
-17.9057
 20
8.24606
 11
-17.7893
 21
8.60437
  0
LINE
  8
0
 10
-17.7893
 20
8.60437
 11
-17.6289
 21
8.94525
  0
LINE
  8
0
 10
-17.6289
 20
8.94525
 11
-17.427
 21
9.26335
  0
LINE
  8
0
 10
-17.427
 20
9.26335
 11
-17.1869
 21
9.55363
  0
LINE
  8
0
 10
-17.1869
 20
9.55363
 11
-16.9123
 21
9.81154
  0
LINE
  8
0
 10
-16.9123
 20
9.81154
 11
-16.6075
 21
10.033
  0
LINE
  8
0
 10
-16.6075
 20
10.033
 11
-16.2773
 21
10.2145
  0
LINE
  8
0
 10
-16.2773
 20
10.2145
 11
-15.927
 21
10.3532
  0
LINE
  8
0
 10
-15.927
 20
10.3532
 11
-15.5621
 21
10.4469
  0
LINE
  8
0
 10
-15.5621
 20
10.4469
 11
-15.1884
 21
10.4941
  0
LINE
  8
0
 10
-15.1884
 20
10.4941
 11
-14.8116
 21
10.4941
  0
LINE
  8
0
 10
-14.8116
 20
10.4941
 11
-14.4379
 21
10.4469
  0
LINE
  8
0
 10
0.562134
 20
10.4469
 11
0.927048
 21
10.3532
  0
LINE
  8
0
 10
0.927048
 20
10.3532
 11
1.27733
 21
10.2145
  0
LINE
  8
0
 10
1.27733
 20
10.2145
 11
1.60747
 21
10.033
  0
LINE
  8
0
 10
1.60747
 20
10.033
 11
1.91226
 21
9.81154
  0
LINE
  8
0
 10
1.91226
 20
9.81154
 11
2.1869
 21
9.55363
  0
LINE
  8
0
 10
2.1869
 20
9.55363
 11
2.42705
 21
9.26335
  0
LINE
  8
0
 10
2.42705
 20
9.26335
 11
2.62891
 21
8.94525
  0
LINE
  8
0
 10
2.62891
 20
8.94525
 11
2.78932
 21
8.60437
  0
LINE
  8
0
 10
2.78932
 20
8.60437
 11
2.90575
 21
8.24606
  0
LINE
  8
0
 10
2.90575
 20
8.24606
 11
2.97633
 21
7.87599
  0
LINE
  8
0
 10
2.97633
 20
7.87599
 11
3
 21
7.5
  0
LINE
  8
0
 10
3
 20
7.5
 11
2.97633
 21
7.12399
  0
LINE
  8
0
 10
2.97633
 20
7.12399
 11
2.90575
 21
6.75392
  0
LINE
  8
0
 10
2.90575
 20
6.75392
 11
2.78932
 21
6.39561
  0
LINE
  8
0
 10
2.78932
 20
6.39561
 11
2.62891
 21
6.05473
  0
LINE
  8
0
 10
2.62891
 20
6.05473
 11
2.42705
 21
5.73663
  0
LINE
  8
0
 10
2.42705
 20
5.73663
 11
2.1869
 21
5.44635
  0
LINE
  8
0
 10
2.1869
 20
5.44635
 11
1.91226
 21
5.18845
  0
LINE
  8
0
 10
1.91226
 20
5.18845
 11
1.60747
 21
4.96701
  0
LINE
  8
0
 10
1.60747
 20
4.96701
 11
1.27733
 21
4.78551
  0
LINE
  8
0
 10
1.27733
 20
4.78551
 11
0.927048
 21
4.64682
  0
LINE
  8
0
 10
0.927048
 20
4.64682
 11
0.562134
 21
4.55313
  0
LINE
  8
0
 10
0.562134
 20
4.55313
 11
0.18837
 21
4.50591
  0
LINE
  8
0
 10
0.18837
 20
4.50591
 11
-0.18837
 21
4.50591
  0
LINE
  8
0
 10
-0.18837
 20
4.50591
 11
-0.562134
 21
4.55313
  0
LINE
  8
0
 10
-0.562134
 20
4.55313
 11
-0.927048
 21
4.64682
  0
LINE
  8
0
 10
-0.927048
 20
4.64682
 11
-1.27733
 21
4.78551
  0
LINE
  8
0
 10
-1.27733
 20
4.78551
 11
-1.60747
 21
4.96701
  0
LINE
  8
0
 10
-1.60747
 20
4.96701
 11
-1.91226
 21
5.18845
  0
LINE
  8
0
 10
-1.91226
 20
5.18845
 11
-2.1869
 21
5.44635
  0
LINE
  8
0
 10
-2.1869
 20
5.44635
 11
-2.42705
 21
5.73663
  0
LINE
  8
0
 10
-2.42705
 20
5.73663
 11
-2.62891
 21
6.05473
  0
LINE
  8
0
 10
-2.62891
 20
6.05473
 11
-2.78932
 21
6.39561
  0
LINE
  8
0
 10
-2.78932
 20
6.39561
 11
-2.90575
 21
6.75392
  0
LINE
  8
0
 10
-2.90575
 20
6.75392
 11
-2.97633
 21
7.12399
  0
LINE
  8
0
 10
-2.97633
 20
7.12399
 11
-3
 21
7.5
  0
LINE
  8
0
 10
-3
 20
7.5
 11
-2.97633
 21
7.87599
  0
LINE
  8
0
 10
-2.97633
 20
7.87599
 11
-2.90575
 21
8.24606
  0
LINE
  8
0
 10
-2.90575
 20
8.24606
 11
-2.78932
 21
8.60437
  0
LINE
  8
0
 10
-2.78932
 20
8.60437
 11
-2.62891
 21
8.94525
  0
LINE
  8
0
 10
-2.62891
 20
8.94525
 11
-2.42705
 21
9.26335
  0
LINE
  8
0
 10
-2.42705
 20
9.26335
 11
-2.1869
 21
9.55363
  0
LINE
  8
0
 10
-2.1869
 20
9.55363
 11
-1.91226
 21
9.81154
  0
LINE
  8
0
 10
-1.91226
 20
9.81154
 11
-1.60747
 21
10.033
  0
LINE
  8
0
 10
-1.60747
 20
10.033
 11
-1.27733
 21
10.2145
  0
LINE
  8
0
 10
-1.27733
 20
10.2145
 11
-0.927048
 21
10.3532
  0
LINE
  8
0
 10
-0.927048
 20
10.3532
 11
-0.562134
 21
10.4469
  0
LINE
  8
0
 10
-0.562134
 20
10.4469
 11
-0.18837
 21
10.4941
  0
LINE
  8
0
 10
-0.18837
 20
10.4941
 11
0.18837
 21
10.4941
  0
LINE
  8
0
 10
0.18837
 20
10.4941
 11
0.562134
 21
10.4469
  0
LINE
  8
0
 10
15.5621
 20
10.4469
 11
15.927
 21
10.3532
  0
LINE
  8
0
 10
15.927
 20
10.3532
 11
16.2773
 21
10.2145
  0
LINE
  8
0
 10
16.2773
 20
10.2145
 11
16.6075
 21
10.033
  0
LINE
  8
0
 10
16.6075
 20
10.033
 11
16.9123
 21
9.81154
  0
LINE
  8
0
 10
16.9123
 20
9.81154
 11
17.1869
 21
9.55363
  0
LINE
  8
0
 10
17.1869
 20
9.55363
 11
17.427
 21
9.26335
  0
LINE
  8
0
 10
17.427
 20
9.26335
 11
17.6289
 21
8.94525
  0
LINE
  8
0
 10
17.6289
 20
8.94525
 11
17.7893
 21
8.60437
  0
LINE
  8
0
 10
17.7893
 20
8.60437
 11
17.9057
 21
8.24606
  0
LINE
  8
0
 10
17.9057
 20
8.24606
 11
17.9763
 21
7.87599
  0
LINE
  8
0
 10
17.9763
 20
7.87599
 11
18
 21
7.5
  0
LINE
  8
0
 10
18
 20
7.5
 11
17.9763
 21
7.12399
  0
LINE
  8
0
 10
17.9763
 20
7.12399
 11
17.9057
 21
6.75392
  0
LINE
  8
0
 10
17.9057
 20
6.75392
 11
17.7893
 21
6.39561
  0
LINE
  8
0
 10
17.7893
 20
6.39561
 11
17.6289
 21
6.05473
  0
LINE
  8
0
 10
17.6289
 20
6.05473
 11
17.427
 21
5.73663
  0
LINE
  8
0
 10
17.427
 20
5.73663
 11
17.1869
 21
5.44635
  0
LINE
  8
0
 10
17.1869
 20
5.44635
 11
16.9123
 21
5.18845
  0
LINE
  8
0
 10
16.9123
 20
5.18845
 11
16.6075
 21
4.96701
  0
LINE
  8
0
 10
16.6075
 20
4.96701
 11
16.2773
 21
4.78551
  0
LINE
  8
0
 10
16.2773
 20
4.78551
 11
15.927
 21
4.64682
  0
LINE
  8
0
 10
15.927
 20
4.64682
 11
15.5621
 21
4.55313
  0
LINE
  8
0
 10
15.5621
 20
4.55313
 11
15.1884
 21
4.50591
  0
LINE
  8
0
 10
15.1884
 20
4.50591
 11
14.8116
 21
4.50591
  0
LINE
  8
0
 10
14.8116
 20
4.50591
 11
14.4379
 21
4.55313
  0
LINE
  8
0
 10
14.4379
 20
4.55313
 11
14.0729
 21
4.64682
  0
LINE
  8
0
 10
14.0729
 20
4.64682
 11
13.7227
 21
4.78551
  0
LINE
  8
0
 10
13.7227
 20
4.78551
 11
13.3925
 21
4.96701
  0
LINE
  8
0
 10
13.3925
 20
4.96701
 11
13.0877
 21
5.18845
  0
LINE
  8
0
 10
13.0877
 20
5.18845
 11
12.8131
 21
5.44635
  0
LINE
  8
0
 10
12.8131
 20
5.44635
 11
12.5729
 21
5.73663
  0
LINE
  8
0
 10
12.5729
 20
5.73663
 11
12.3711
 21
6.05473
  0
LINE
  8
0
 10
12.3711
 20
6.05473
 11
12.2107
 21
6.39561
  0
LINE
  8
0
 10
12.2107
 20
6.39561
 11
12.0942
 21
6.75392
  0
LINE
  8
0
 10
12.0942
 20
6.75392
 11
12.0237
 21
7.12399
  0
LINE
  8
0
 10
12.0237
 20
7.12399
 11
12
 21
7.5
  0
LINE
  8
0
 10
12
 20
7.5
 11
12.0237
 21
7.87599
  0
LINE
  8
0
 10
12.0237
 20
7.87599
 11
12.0942
 21
8.24606
  0
LINE
  8
0
 10
12.0942
 20
8.24606
 11
12.2107
 21
8.60437
  0
LINE
  8
0
 10
12.2107
 20
8.60437
 11
12.3711
 21
8.94525
  0
LINE
  8
0
 10
12.3711
 20
8.94525
 11
12.5729
 21
9.26335
  0
LINE
  8
0
 10
12.5729
 20
9.26335
 11
12.8131
 21
9.55363
  0
LINE
  8
0
 10
12.8131
 20
9.55363
 11
13.0877
 21
9.81154
  0
LINE
  8
0
 10
13.0877
 20
9.81154
 11
13.3925
 21
10.033
  0
LINE
  8
0
 10
13.3925
 20
10.033
 11
13.7227
 21
10.2145
  0
LINE
  8
0
 10
13.7227
 20
10.2145
 11
14.0729
 21
10.3532
  0
LINE
  8
0
 10
14.0729
 20
10.3532
 11
14.4379
 21
10.4469
  0
LINE
  8
0
 10
14.4379
 20
10.4469
 11
14.8116
 21
10.4941
  0
LINE
  8
0
 10
14.8116
 20
10.4941
 11
15.1884
 21
10.4941
  0
LINE
  8
0
 10
15.1884
 20
10.4941
 11
15.5621
 21
10.4469
  0
LINE
  8
0
 10
30.5621
 20
10.4469
 11
30.927
 21
10.3532
  0
LINE
  8
0
 10
30.927
 20
10.3532
 11
31.2773
 21
10.2145
  0
LINE
  8
0
 10
31.2773
 20
10.2145
 11
31.6075
 21
10.033
  0
LINE
  8
0
 10
31.6075
 20
10.033
 11
31.9123
 21
9.81154
  0
LINE
  8
0
 10
31.9123
 20
9.81154
 11
32.1869
 21
9.55363
  0
LINE
  8
0
 10
32.1869
 20
9.55363
 11
32.427
 21
9.26335
  0
LINE
  8
0
 10
32.427
 20
9.26335
 11
32.6289
 21
8.94525
  0
LINE
  8
0
 10
32.6289
 20
8.94525
 11
32.7893
 21
8.60437
  0
LINE
  8
0
 10
32.7893
 20
8.60437
 11
32.9057
 21
8.24606
  0
LINE
  8
0
 10
32.9057
 20
8.24606
 11
32.9763
 21
7.87599
  0
LINE
  8
0
 10
32.9763
 20
7.87599
 11
33
 21
7.5
  0
LINE
  8
0
 10
33
 20
7.5
 11
32.9763
 21
7.12399
  0
LINE
  8
0
 10
32.9763
 20
7.12399
 11
32.9057
 21
6.75392
  0
LINE
  8
0
 10
32.9057
 20
6.75392
 11
32.7893
 21
6.39561
  0
LINE
  8
0
 10
32.7893
 20
6.39561
 11
32.6289
 21
6.05473
  0
LINE
  8
0
 10
32.6289
 20
6.05473
 11
32.427
 21
5.73663
  0
LINE
  8
0
 10
32.427
 20
5.73663
 11
32.1869
 21
5.44635
  0
LINE
  8
0
 10
32.1869
 20
5.44635
 11
31.9123
 21
5.18845
  0
LINE
  8
0
 10
31.9123
 20
5.18845
 11
31.6075
 21
4.96701
  0
LINE
  8
0
 10
31.6075
 20
4.96701
 11
31.2773
 21
4.78551
  0
LINE
  8
0
 10
31.2773
 20
4.78551
 11
30.927
 21
4.64682
  0
LINE
  8
0
 10
30.927
 20
4.64682
 11
30.5621
 21
4.55313
  0
LINE
  8
0
 10
30.5621
 20
4.55313
 11
30.1884
 21
4.50591
  0
LINE
  8
0
 10
30.1884
 20
4.50591
 11
29.8116
 21
4.50591
  0
LINE
  8
0
 10
29.8116
 20
4.50591
 11
29.4379
 21
4.55313
  0
LINE
  8
0
 10
29.4379
 20
4.55313
 11
29.0729
 21
4.64682
  0
LINE
  8
0
 10
29.0729
 20
4.64682
 11
28.7227
 21
4.78551
  0
LINE
  8
0
 10
28.7227
 20
4.78551
 11
28.3925
 21
4.96701
  0
LINE
  8
0
 10
28.3925
 20
4.96701
 11
28.0877
 21
5.18845
  0
LINE
  8
0
 10
28.0877
 20
5.18845
 11
27.8131
 21
5.44635
  0
LINE
  8
0
 10
27.8131
 20
5.44635
 11
27.5729
 21
5.73663
  0
LINE
  8
0
 10
27.5729
 20
5.73663
 11
27.3711
 21
6.05473
  0
LINE
  8
0
 10
27.3711
 20
6.05473
 11
27.2107
 21
6.39561
  0
LINE
  8
0
 10
27.2107
 20
6.39561
 11
27.0942
 21
6.75392
  0
LINE
  8
0
 10
27.0942
 20
6.75392
 11
27.0237
 21
7.12399
  0
LINE
  8
0
 10
27.0237
 20
7.12399
 11
27
 21
7.5
  0
LINE
  8
0
 10
27
 20
7.5
 11
27.0237
 21
7.87599
  0
LINE
  8
0
 10
27.0237
 20
7.87599
 11
27.0942
 21
8.24606
  0
LINE
  8
0
 10
27.0942
 20
8.24606
 11
27.2107
 21
8.60437
  0
LINE
  8
0
 10
27.2107
 20
8.60437
 11
27.3711
 21
8.94525
  0
LINE
  8
0
 10
27.3711
 20
8.94525
 11
27.5729
 21
9.26335
  0
LINE
  8
0
 10
27.5729
 20
9.26335
 11
27.8131
 21
9.55363
  0
LINE
  8
0
 10
27.8131
 20
9.55363
 11
28.0877
 21
9.81154
  0
LINE
  8
0
 10
28.0877
 20
9.81154
 11
28.3925
 21
10.033
  0
LINE
  8
0
 10
28.3925
 20
10.033
 11
28.7227
 21
10.2145
  0
LINE
  8
0
 10
28.7227
 20
10.2145
 11
29.0729
 21
10.3532
  0
LINE
  8
0
 10
29.0729
 20
10.3532
 11
29.4379
 21
10.4469
  0
LINE
  8
0
 10
29.4379
 20
10.4469
 11
29.8116
 21
10.4941
  0
LINE
  8
0
 10
29.8116
 20
10.4941
 11
30.1884
 21
10.4941
  0
LINE
  8
0
 10
30.1884
 20
10.4941
 11
30.5621
 21
10.4469
  0
LINE
  8
0
 10
45.5621
 20
10.4469
 11
45.927
 21
10.3532
  0
LINE
  8
0
 10
45.927
 20
10.3532
 11
46.2773
 21
10.2145
  0
LINE
  8
0
 10
46.2773
 20
10.2145
 11
46.6075
 21
10.033
  0
LINE
  8
0
 10
46.6075
 20
10.033
 11
46.9123
 21
9.81154
  0
LINE
  8
0
 10
46.9123
 20
9.81154
 11
47.1869
 21
9.55363
  0
LINE
  8
0
 10
47.1869
 20
9.55363
 11
47.427
 21
9.26335
  0
LINE
  8
0
 10
47.427
 20
9.26335
 11
47.6289
 21
8.94525
  0
LINE
  8
0
 10
47.6289
 20
8.94525
 11
47.7893
 21
8.60437
  0
LINE
  8
0
 10
47.7893
 20
8.60437
 11
47.9057
 21
8.24606
  0
LINE
  8
0
 10
47.9057
 20
8.24606
 11
47.9763
 21
7.87599
  0
LINE
  8
0
 10
47.9763
 20
7.87599
 11
48
 21
7.5
  0
LINE
  8
0
 10
48
 20
7.5
 11
47.9763
 21
7.12399
  0
LINE
  8
0
 10
47.9763
 20
7.12399
 11
47.9057
 21
6.75392
  0
LINE
  8
0
 10
47.9057
 20
6.75392
 11
47.7893
 21
6.39561
  0
LINE
  8
0
 10
47.7893
 20
6.39561
 11
47.6289
 21
6.05473
  0
LINE
  8
0
 10
47.6289
 20
6.05473
 11
47.427
 21
5.73663
  0
LINE
  8
0
 10
47.427
 20
5.73663
 11
47.1869
 21
5.44635
  0
LINE
  8
0
 10
47.1869
 20
5.44635
 11
46.9123
 21
5.18845
  0
LINE
  8
0
 10
46.9123
 20
5.18845
 11
46.6075
 21
4.96701
  0
LINE
  8
0
 10
46.6075
 20
4.96701
 11
46.2773
 21
4.78551
  0
LINE
  8
0
 10
46.2773
 20
4.78551
 11
45.927
 21
4.64682
  0
LINE
  8
0
 10
45.927
 20
4.64682
 11
45.5621
 21
4.55313
  0
LINE
  8
0
 10
45.5621
 20
4.55313
 11
45.1884
 21
4.50591
  0
LINE
  8
0
 10
45.1884
 20
4.50591
 11
44.8116
 21
4.50591
  0
LINE
  8
0
 10
44.8116
 20
4.50591
 11
44.4379
 21
4.55313
  0
LINE
  8
0
 10
44.4379
 20
4.55313
 11
44.0729
 21
4.64682
  0
LINE
  8
0
 10
44.0729
 20
4.64682
 11
43.7227
 21
4.78551
  0
LINE
  8
0
 10
43.7227
 20
4.78551
 11
43.3925
 21
4.96701
  0
LINE
  8
0
 10
43.3925
 20
4.96701
 11
43.0877
 21
5.18845
  0
LINE
  8
0
 10
43.0877
 20
5.18845
 11
42.8131
 21
5.44635
  0
LINE
  8
0
 10
42.8131
 20
5.44635
 11
42.5729
 21
5.73663
  0
LINE
  8
0
 10
42.5729
 20
5.73663
 11
42.3711
 21
6.05473
  0
LINE
  8
0
 10
42.3711
 20
6.05473
 11
42.2107
 21
6.39561
  0
LINE
  8
0
 10
42.2107
 20
6.39561
 11
42.0942
 21
6.75392
  0
LINE
  8
0
 10
42.0942
 20
6.75392
 11
42.0237
 21
7.12399
  0
LINE
  8
0
 10
42.0237
 20
7.12399
 11
42
 21
7.5
  0
LINE
  8
0
 10
42
 20
7.5
 11
42.0237
 21
7.87599
  0
LINE
  8
0
 10
42.0237
 20
7.87599
 11
42.0942
 21
8.24606
  0
LINE
  8
0
 10
42.0942
 20
8.24606
 11
42.2107
 21
8.60437
  0
LINE
  8
0
 10
42.2107
 20
8.60437
 11
42.3711
 21
8.94525
  0
LINE
  8
0
 10
42.3711
 20
8.94525
 11
42.5729
 21
9.26335
  0
LINE
  8
0
 10
42.5729
 20
9.26335
 11
42.8131
 21
9.55363
  0
LINE
  8
0
 10
42.8131
 20
9.55363
 11
43.0877
 21
9.81154
  0
LINE
  8
0
 10
43.0877
 20
9.81154
 11
43.3925
 21
10.033
  0
LINE
  8
0
 10
43.3925
 20
10.033
 11
43.7227
 21
10.2145
  0
LINE
  8
0
 10
43.7227
 20
10.2145
 11
44.0729
 21
10.3532
  0
LINE
  8
0
 10
44.0729
 20
10.3532
 11
44.4379
 21
10.4469
  0
LINE
  8
0
 10
44.4379
 20
10.4469
 11
44.8116
 21
10.4941
  0
LINE
  8
0
 10
44.8116
 20
10.4941
 11
45.1884
 21
10.4941
  0
LINE
  8
0
 10
45.1884
 20
10.4941
 11
45.5621
 21
10.4469
  0
LINE
  8
0
 10
60.5621
 20
10.4469
 11
60.927
 21
10.3532
  0
LINE
  8
0
 10
60.927
 20
10.3532
 11
61.2773
 21
10.2145
  0
LINE
  8
0
 10
61.2773
 20
10.2145
 11
61.6075
 21
10.033
  0
LINE
  8
0
 10
61.6075
 20
10.033
 11
61.9123
 21
9.81154
  0
LINE
  8
0
 10
61.9123
 20
9.81154
 11
62.1869
 21
9.55363
  0
LINE
  8
0
 10
62.1869
 20
9.55363
 11
62.427
 21
9.26335
  0
LINE
  8
0
 10
62.427
 20
9.26335
 11
62.6289
 21
8.94525
  0
LINE
  8
0
 10
62.6289
 20
8.94525
 11
62.7893
 21
8.60437
  0
LINE
  8
0
 10
62.7893
 20
8.60437
 11
62.9057
 21
8.24606
  0
LINE
  8
0
 10
62.9057
 20
8.24606
 11
62.9763
 21
7.87599
  0
LINE
  8
0
 10
62.9763
 20
7.87599
 11
63
 21
7.5
  0
LINE
  8
0
 10
63
 20
7.5
 11
62.9763
 21
7.12399
  0
LINE
  8
0
 10
62.9763
 20
7.12399
 11
62.9057
 21
6.75392
  0
LINE
  8
0
 10
62.9057
 20
6.75392
 11
62.7893
 21
6.39561
  0
LINE
  8
0
 10
62.7893
 20
6.39561
 11
62.6289
 21
6.05473
  0
LINE
  8
0
 10
62.6289
 20
6.05473
 11
62.427
 21
5.73663
  0
LINE
  8
0
 10
62.427
 20
5.73663
 11
62.1869
 21
5.44635
  0
LINE
  8
0
 10
62.1869
 20
5.44635
 11
61.9123
 21
5.18845
  0
LINE
  8
0
 10
61.9123
 20
5.18845
 11
61.6075
 21
4.96701
  0
LINE
  8
0
 10
61.6075
 20
4.96701
 11
61.2773
 21
4.78551
  0
LINE
  8
0
 10
61.2773
 20
4.78551
 11
60.927
 21
4.64682
  0
LINE
  8
0
 10
60.927
 20
4.64682
 11
60.5621
 21
4.55313
  0
LINE
  8
0
 10
60.5621
 20
4.55313
 11
60.1884
 21
4.50591
  0
LINE
  8
0
 10
60.1884
 20
4.50591
 11
59.8116
 21
4.50591
  0
LINE
  8
0
 10
59.8116
 20
4.50591
 11
59.4379
 21
4.55313
  0
LINE
  8
0
 10
59.4379
 20
4.55313
 11
59.0729
 21
4.64682
  0
LINE
  8
0
 10
59.0729
 20
4.64682
 11
58.7227
 21
4.78551
  0
LINE
  8
0
 10
58.7227
 20
4.78551
 11
58.3925
 21
4.96701
  0
LINE
  8
0
 10
58.3925
 20
4.96701
 11
58.0877
 21
5.18845
  0
LINE
  8
0
 10
58.0877
 20
5.18845
 11
57.8131
 21
5.44635
  0
LINE
  8
0
 10
57.8131
 20
5.44635
 11
57.5729
 21
5.73663
  0
LINE
  8
0
 10
57.5729
 20
5.73663
 11
57.3711
 21
6.05473
  0
LINE
  8
0
 10
57.3711
 20
6.05473
 11
57.2107
 21
6.39561
  0
LINE
  8
0
 10
57.2107
 20
6.39561
 11
57.0942
 21
6.75392
  0
LINE
  8
0
 10
57.0942
 20
6.75392
 11
57.0237
 21
7.12399
  0
LINE
  8
0
 10
57.0237
 20
7.12399
 11
57
 21
7.5
  0
LINE
  8
0
 10
57
 20
7.5
 11
57.0237
 21
7.87599
  0
LINE
  8
0
 10
57.0237
 20
7.87599
 11
57.0942
 21
8.24606
  0
LINE
  8
0
 10
57.0942
 20
8.24606
 11
57.2107
 21
8.60437
  0
LINE
  8
0
 10
57.2107
 20
8.60437
 11
57.3711
 21
8.94525
  0
LINE
  8
0
 10
57.3711
 20
8.94525
 11
57.5729
 21
9.26335
  0
LINE
  8
0
 10
57.5729
 20
9.26335
 11
57.8131
 21
9.55363
  0
LINE
  8
0
 10
57.8131
 20
9.55363
 11
58.0877
 21
9.81154
  0
LINE
  8
0
 10
58.0877
 20
9.81154
 11
58.3925
 21
10.033
  0
LINE
  8
0
 10
58.3925
 20
10.033
 11
58.7227
 21
10.2145
  0
LINE
  8
0
 10
58.7227
 20
10.2145
 11
59.0729
 21
10.3532
  0
LINE
  8
0
 10
59.0729
 20
10.3532
 11
59.4379
 21
10.4469
  0
LINE
  8
0
 10
59.4379
 20
10.4469
 11
59.8116
 21
10.4941
  0
LINE
  8
0
 10
59.8116
 20
10.4941
 11
60.1884
 21
10.4941
  0
LINE
  8
0
 10
60.1884
 20
10.4941
 11
60.5621
 21
10.4469
  0
LINE
  8
0
 10
75.5621
 20
10.4469
 11
75.927
 21
10.3532
  0
LINE
  8
0
 10
75.927
 20
10.3532
 11
76.2773
 21
10.2145
  0
LINE
  8
0
 10
76.2773
 20
10.2145
 11
76.6075
 21
10.033
  0
LINE
  8
0
 10
76.6075
 20
10.033
 11
76.9123
 21
9.81154
  0
LINE
  8
0
 10
76.9123
 20
9.81154
 11
77.1869
 21
9.55363
  0
LINE
  8
0
 10
77.1869
 20
9.55363
 11
77.427
 21
9.26335
  0
LINE
  8
0
 10
77.427
 20
9.26335
 11
77.6289
 21
8.94525
  0
LINE
  8
0
 10
77.6289
 20
8.94525
 11
77.7893
 21
8.60437
  0
LINE
  8
0
 10
77.7893
 20
8.60437
 11
77.9057
 21
8.24606
  0
LINE
  8
0
 10
77.9057
 20
8.24606
 11
77.9763
 21
7.87599
  0
LINE
  8
0
 10
77.9763
 20
7.87599
 11
78
 21
7.5
  0
LINE
  8
0
 10
78
 20
7.5
 11
77.9763
 21
7.12399
  0
LINE
  8
0
 10
77.9763
 20
7.12399
 11
77.9057
 21
6.75392
  0
LINE
  8
0
 10
77.9057
 20
6.75392
 11
77.7893
 21
6.39561
  0
LINE
  8
0
 10
77.7893
 20
6.39561
 11
77.6289
 21
6.05473
  0
LINE
  8
0
 10
77.6289
 20
6.05473
 11
77.427
 21
5.73663
  0
LINE
  8
0
 10
77.427
 20
5.73663
 11
77.1869
 21
5.44635
  0
LINE
  8
0
 10
77.1869
 20
5.44635
 11
76.9123
 21
5.18845
  0
LINE
  8
0
 10
76.9123
 20
5.18845
 11
76.6075
 21
4.96701
  0
LINE
  8
0
 10
76.6075
 20
4.96701
 11
76.2773
 21
4.78551
  0
LINE
  8
0
 10
76.2773
 20
4.78551
 11
75.927
 21
4.64682
  0
LINE
  8
0
 10
75.927
 20
4.64682
 11
75.5621
 21
4.55313
  0
LINE
  8
0
 10
75.5621
 20
4.55313
 11
75.1884
 21
4.50591
  0
LINE
  8
0
 10
75.1884
 20
4.50591
 11
74.8116
 21
4.50591
  0
LINE
  8
0
 10
74.8116
 20
4.50591
 11
74.4379
 21
4.55313
  0
LINE
  8
0
 10
74.4379
 20
4.55313
 11
74.073
 21
4.64682
  0
LINE
  8
0
 10
74.073
 20
4.64682
 11
73.7227
 21
4.78551
  0
LINE
  8
0
 10
73.7227
 20
4.78551
 11
73.3925
 21
4.96701
  0
LINE
  8
0
 10
73.3925
 20
4.96701
 11
73.0877
 21
5.18845
  0
LINE
  8
0
 10
73.0877
 20
5.18845
 11
72.8131
 21
5.44635
  0
LINE
  8
0
 10
72.8131
 20
5.44635
 11
72.573
 21
5.73663
  0
LINE
  8
0
 10
72.573
 20
5.73663
 11
72.3711
 21
6.05473
  0
LINE
  8
0
 10
72.3711
 20
6.05473
 11
72.2107
 21
6.39561
  0
LINE
  8
0
 10
72.2107
 20
6.39561
 11
72.0943
 21
6.75392
  0
LINE
  8
0
 10
72.0943
 20
6.75392
 11
72.0237
 21
7.12399
  0
LINE
  8
0
 10
72.0237
 20
7.12399
 11
72
 21
7.5
  0
LINE
  8
0
 10
72
 20
7.5
 11
72.0237
 21
7.87599
  0
LINE
  8
0
 10
72.0237
 20
7.87599
 11
72.0943
 21
8.24606
  0
LINE
  8
0
 10
72.0943
 20
8.24606
 11
72.2107
 21
8.60437
  0
LINE
  8
0
 10
72.2107
 20
8.60437
 11
72.3711
 21
8.94525
  0
LINE
  8
0
 10
72.3711
 20
8.94525
 11
72.573
 21
9.26335
  0
LINE
  8
0
 10
72.573
 20
9.26335
 11
72.8131
 21
9.55363
  0
LINE
  8
0
 10
72.8131
 20
9.55363
 11
73.0877
 21
9.81154
  0
LINE
  8
0
 10
73.0877
 20
9.81154
 11
73.3925
 21
10.033
  0
LINE
  8
0
 10
73.3925
 20
10.033
 11
73.7227
 21
10.2145
  0
LINE
  8
0
 10
73.7227
 20
10.2145
 11
74.073
 21
10.3532
  0
LINE
  8
0
 10
74.073
 20
10.3532
 11
74.4379
 21
10.4469
  0
LINE
  8
0
 10
74.4379
 20
10.4469
 11
74.8116
 21
10.4941
  0
LINE
  8
0
 10
74.8116
 20
10.4941
 11
75.1884
 21
10.4941
  0
LINE
  8
0
 10
75.1884
 20
10.4941
 11
75.5621
 21
10.4469
  0
LINE
  8
0
 10
44.8116
 20
-10.4941
 11
44.4379
 21
-10.4469
  0
LINE
  8
0
 10
44.4379
 20
-10.4469
 11
44.0729
 21
-10.3532
  0
LINE
  8
0
 10
44.0729
 20
-10.3532
 11
43.7227
 21
-10.2145
  0
LINE
  8
0
 10
43.7227
 20
-10.2145
 11
43.3925
 21
-10.033
  0
LINE
  8
0
 10
43.3925
 20
-10.033
 11
43.0877
 21
-9.81154
  0
LINE
  8
0
 10
43.0877
 20
-9.81154
 11
42.8131
 21
-9.55363
  0
LINE
  8
0
 10
42.8131
 20
-9.55363
 11
42.5729
 21
-9.26335
  0
LINE
  8
0
 10
42.5729
 20
-9.26335
 11
42.3711
 21
-8.94525
  0
LINE
  8
0
 10
42.3711
 20
-8.94525
 11
42.2107
 21
-8.60437
  0
LINE
  8
0
 10
42.2107
 20
-8.60437
 11
42.0942
 21
-8.24606
  0
LINE
  8
0
 10
42.0942
 20
-8.24606
 11
42.0237
 21
-7.87599
  0
LINE
  8
0
 10
42.0237
 20
-7.87599
 11
42
 21
-7.5
  0
LINE
  8
0
 10
42
 20
-7.5
 11
42.0237
 21
-7.12399
  0
LINE
  8
0
 10
42.0237
 20
-7.12399
 11
42.0942
 21
-6.75392
  0
LINE
  8
0
 10
42.0942
 20
-6.75392
 11
42.2107
 21
-6.39561
  0
LINE
  8
0
 10
42.2107
 20
-6.39561
 11
42.3711
 21
-6.05473
  0
LINE
  8
0
 10
42.3711
 20
-6.05473
 11
42.5729
 21
-5.73663
  0
LINE
  8
0
 10
42.5729
 20
-5.73663
 11
42.8131
 21
-5.44635
  0
LINE
  8
0
 10
42.8131
 20
-5.44635
 11
43.0877
 21
-5.18845
  0
LINE
  8
0
 10
43.0877
 20
-5.18845
 11
43.3925
 21
-4.96701
  0
LINE
  8
0
 10
43.3925
 20
-4.96701
 11
43.7227
 21
-4.78551
  0
LINE
  8
0
 10
43.7227
 20
-4.78551
 11
44.0729
 21
-4.64682
  0
LINE
  8
0
 10
44.0729
 20
-4.64682
 11
44.4379
 21
-4.55313
  0
LINE
  8
0
 10
44.4379
 20
-4.55313
 11
44.8116
 21
-4.50591
  0
LINE
  8
0
 10
44.8116
 20
-4.50591
 11
45.1884
 21
-4.50591
  0
LINE
  8
0
 10
45.1884
 20
-4.50591
 11
45.5621
 21
-4.55313
  0
LINE
  8
0
 10
45.5621
 20
-4.55313
 11
45.927
 21
-4.64682
  0
LINE
  8
0
 10
45.927
 20
-4.64682
 11
46.2773
 21
-4.78551
  0
LINE
  8
0
 10
46.2773
 20
-4.78551
 11
46.6075
 21
-4.96701
  0
LINE
  8
0
 10
46.6075
 20
-4.96701
 11
46.9123
 21
-5.18845
  0
LINE
  8
0
 10
46.9123
 20
-5.18845
 11
47.1869
 21
-5.44635
  0
LINE
  8
0
 10
47.1869
 20
-5.44635
 11
47.427
 21
-5.73663
  0
LINE
  8
0
 10
47.427
 20
-5.73663
 11
47.6289
 21
-6.05473
  0
LINE
  8
0
 10
47.6289
 20
-6.05473
 11
47.7893
 21
-6.39561
  0
LINE
  8
0
 10
47.7893
 20
-6.39561
 11
47.9057
 21
-6.75392
  0
LINE
  8
0
 10
47.9057
 20
-6.75392
 11
47.9763
 21
-7.12399
  0
LINE
  8
0
 10
47.9763
 20
-7.12399
 11
48
 21
-7.5
  0
LINE
  8
0
 10
48
 20
-7.5
 11
47.9763
 21
-7.87599
  0
LINE
  8
0
 10
47.9763
 20
-7.87599
 11
47.9057
 21
-8.24606
  0
LINE
  8
0
 10
47.9057
 20
-8.24606
 11
47.7893
 21
-8.60437
  0
LINE
  8
0
 10
47.7893
 20
-8.60437
 11
47.6289
 21
-8.94525
  0
LINE
  8
0
 10
47.6289
 20
-8.94525
 11
47.427
 21
-9.26335
  0
LINE
  8
0
 10
47.427
 20
-9.26335
 11
47.1869
 21
-9.55363
  0
LINE
  8
0
 10
47.1869
 20
-9.55363
 11
46.9123
 21
-9.81154
  0
LINE
  8
0
 10
46.9123
 20
-9.81154
 11
46.6075
 21
-10.033
  0
LINE
  8
0
 10
46.6075
 20
-10.033
 11
46.2773
 21
-10.2145
  0
LINE
  8
0
 10
46.2773
 20
-10.2145
 11
45.927
 21
-10.3532
  0
LINE
  8
0
 10
45.927
 20
-10.3532
 11
45.5621
 21
-10.4469
  0
LINE
  8
0
 10
45.5621
 20
-10.4469
 11
45.1884
 21
-10.4941
  0
LINE
  8
0
 10
45.1884
 20
-10.4941
 11
44.8116
 21
-10.4941
  0
LINE
  8
0
 10
29.8116
 20
-10.4941
 11
29.4379
 21
-10.4469
  0
LINE
  8
0
 10
29.4379
 20
-10.4469
 11
29.0729
 21
-10.3532
  0
LINE
  8
0
 10
29.0729
 20
-10.3532
 11
28.7227
 21
-10.2145
  0
LINE
  8
0
 10
28.7227
 20
-10.2145
 11
28.3925
 21
-10.033
  0
LINE
  8
0
 10
28.3925
 20
-10.033
 11
28.0877
 21
-9.81154
  0
LINE
  8
0
 10
28.0877
 20
-9.81154
 11
27.8131
 21
-9.55363
  0
LINE
  8
0
 10
27.8131
 20
-9.55363
 11
27.5729
 21
-9.26335
  0
LINE
  8
0
 10
27.5729
 20
-9.26335
 11
27.3711
 21
-8.94525
  0
LINE
  8
0
 10
27.3711
 20
-8.94525
 11
27.2107
 21
-8.60437
  0
LINE
  8
0
 10
27.2107
 20
-8.60437
 11
27.0942
 21
-8.24606
  0
LINE
  8
0
 10
27.0942
 20
-8.24606
 11
27.0237
 21
-7.87599
  0
LINE
  8
0
 10
27.0237
 20
-7.87599
 11
27
 21
-7.5
  0
LINE
  8
0
 10
27
 20
-7.5
 11
27.0237
 21
-7.12399
  0
LINE
  8
0
 10
27.0237
 20
-7.12399
 11
27.0942
 21
-6.75392
  0
LINE
  8
0
 10
27.0942
 20
-6.75392
 11
27.2107
 21
-6.39561
  0
LINE
  8
0
 10
27.2107
 20
-6.39561
 11
27.3711
 21
-6.05473
  0
LINE
  8
0
 10
27.3711
 20
-6.05473
 11
27.5729
 21
-5.73663
  0
LINE
  8
0
 10
27.5729
 20
-5.73663
 11
27.8131
 21
-5.44635
  0
LINE
  8
0
 10
27.8131
 20
-5.44635
 11
28.0877
 21
-5.18845
  0
LINE
  8
0
 10
28.0877
 20
-5.18845
 11
28.3925
 21
-4.96701
  0
LINE
  8
0
 10
28.3925
 20
-4.96701
 11
28.7227
 21
-4.78551
  0
LINE
  8
0
 10
28.7227
 20
-4.78551
 11
29.0729
 21
-4.64682
  0
LINE
  8
0
 10
29.0729
 20
-4.64682
 11
29.4379
 21
-4.55313
  0
LINE
  8
0
 10
29.4379
 20
-4.55313
 11
29.8116
 21
-4.50591
  0
LINE
  8
0
 10
29.8116
 20
-4.50591
 11
30.1884
 21
-4.50591
  0
LINE
  8
0
 10
30.1884
 20
-4.50591
 11
30.5621
 21
-4.55313
  0
LINE
  8
0
 10
30.5621
 20
-4.55313
 11
30.927
 21
-4.64682
  0
LINE
  8
0
 10
30.927
 20
-4.64682
 11
31.2773
 21
-4.78551
  0
LINE
  8
0
 10
31.2773
 20
-4.78551
 11
31.6075
 21
-4.96701
  0
LINE
  8
0
 10
31.6075
 20
-4.96701
 11
31.9123
 21
-5.18845
  0
LINE
  8
0
 10
31.9123
 20
-5.18845
 11
32.1869
 21
-5.44635
  0
LINE
  8
0
 10
32.1869
 20
-5.44635
 11
32.427
 21
-5.73663
  0
LINE
  8
0
 10
32.427
 20
-5.73663
 11
32.6289
 21
-6.05473
  0
LINE
  8
0
 10
32.6289
 20
-6.05473
 11
32.7893
 21
-6.39561
  0
LINE
  8
0
 10
32.7893
 20
-6.39561
 11
32.9057
 21
-6.75392
  0
LINE
  8
0
 10
32.9057
 20
-6.75392
 11
32.9763
 21
-7.12399
  0
LINE
  8
0
 10
32.9763
 20
-7.12399
 11
33
 21
-7.5
  0
LINE
  8
0
 10
33
 20
-7.5
 11
32.9763
 21
-7.87599
  0
LINE
  8
0
 10
32.9763
 20
-7.87599
 11
32.9057
 21
-8.24606
  0
LINE
  8
0
 10
32.9057
 20
-8.24606
 11
32.7893
 21
-8.60437
  0
LINE
  8
0
 10
32.7893
 20
-8.60437
 11
32.6289
 21
-8.94525
  0
LINE
  8
0
 10
32.6289
 20
-8.94525
 11
32.427
 21
-9.26335
  0
LINE
  8
0
 10
32.427
 20
-9.26335
 11
32.1869
 21
-9.55363
  0
LINE
  8
0
 10
32.1869
 20
-9.55363
 11
31.9123
 21
-9.81154
  0
LINE
  8
0
 10
31.9123
 20
-9.81154
 11
31.6075
 21
-10.033
  0
LINE
  8
0
 10
31.6075
 20
-10.033
 11
31.2773
 21
-10.2145
  0
LINE
  8
0
 10
31.2773
 20
-10.2145
 11
30.927
 21
-10.3532
  0
LINE
  8
0
 10
30.927
 20
-10.3532
 11
30.5621
 21
-10.4469
  0
LINE
  8
0
 10
30.5621
 20
-10.4469
 11
30.1884
 21
-10.4941
  0
LINE
  8
0
 10
30.1884
 20
-10.4941
 11
29.8116
 21
-10.4941
  0
LINE
  8
0
 10
-30.1884
 20
-10.4941
 11
-30.5621
 21
-10.4469
  0
LINE
  8
0
 10
-30.5621
 20
-10.4469
 11
-30.927
 21
-10.3532
  0
LINE
  8
0
 10
-30.927
 20
-10.3532
 11
-31.2773
 21
-10.2145
  0
LINE
  8
0
 10
-31.2773
 20
-10.2145
 11
-31.6075
 21
-10.033
  0
LINE
  8
0
 10
-31.6075
 20
-10.033
 11
-31.9123
 21
-9.81154
  0
LINE
  8
0
 10
-31.9123
 20
-9.81154
 11
-32.1869
 21
-9.55363
  0
LINE
  8
0
 10
-32.1869
 20
-9.55363
 11
-32.427
 21
-9.26335
  0
LINE
  8
0
 10
-32.427
 20
-9.26335
 11
-32.6289
 21
-8.94525
  0
LINE
  8
0
 10
-32.6289
 20
-8.94525
 11
-32.7893
 21
-8.60437
  0
LINE
  8
0
 10
-32.7893
 20
-8.60437
 11
-32.9057
 21
-8.24606
  0
LINE
  8
0
 10
-32.9057
 20
-8.24606
 11
-32.9763
 21
-7.87599
  0
LINE
  8
0
 10
-32.9763
 20
-7.87599
 11
-33
 21
-7.5
  0
LINE
  8
0
 10
-33
 20
-7.5
 11
-32.9763
 21
-7.12399
  0
LINE
  8
0
 10
-32.9763
 20
-7.12399
 11
-32.9057
 21
-6.75392
  0
LINE
  8
0
 10
-32.9057
 20
-6.75392
 11
-32.7893
 21
-6.39561
  0
LINE
  8
0
 10
-32.7893
 20
-6.39561
 11
-32.6289
 21
-6.05473
  0
LINE
  8
0
 10
-32.6289
 20
-6.05473
 11
-32.427
 21
-5.73663
  0
LINE
  8
0
 10
-32.427
 20
-5.73663
 11
-32.1869
 21
-5.44635
  0
LINE
  8
0
 10
-32.1869
 20
-5.44635
 11
-31.9123
 21
-5.18845
  0
LINE
  8
0
 10
-31.9123
 20
-5.18845
 11
-31.6075
 21
-4.96701
  0
LINE
  8
0
 10
-31.6075
 20
-4.96701
 11
-31.2773
 21
-4.78551
  0
LINE
  8
0
 10
-31.2773
 20
-4.78551
 11
-30.927
 21
-4.64682
  0
LINE
  8
0
 10
-30.927
 20
-4.64682
 11
-30.5621
 21
-4.55313
  0
LINE
  8
0
 10
-30.5621
 20
-4.55313
 11
-30.1884
 21
-4.50591
  0
LINE
  8
0
 10
-30.1884
 20
-4.50591
 11
-29.8116
 21
-4.50591
  0
LINE
  8
0
 10
-29.8116
 20
-4.50591
 11
-29.4379
 21
-4.55313
  0
LINE
  8
0
 10
-29.4379
 20
-4.55313
 11
-29.0729
 21
-4.64682
  0
LINE
  8
0
 10
-29.0729
 20
-4.64682
 11
-28.7227
 21
-4.78551
  0
LINE
  8
0
 10
-28.7227
 20
-4.78551
 11
-28.3925
 21
-4.96701
  0
LINE
  8
0
 10
-28.3925
 20
-4.96701
 11
-28.0877
 21
-5.18845
  0
LINE
  8
0
 10
-28.0877
 20
-5.18845
 11
-27.8131
 21
-5.44635
  0
LINE
  8
0
 10
-27.8131
 20
-5.44635
 11
-27.5729
 21
-5.73663
  0
LINE
  8
0
 10
-27.5729
 20
-5.73663
 11
-27.3711
 21
-6.05473
  0
LINE
  8
0
 10
-27.3711
 20
-6.05473
 11
-27.2107
 21
-6.39561
  0
LINE
  8
0
 10
-27.2107
 20
-6.39561
 11
-27.0942
 21
-6.75392
  0
LINE
  8
0
 10
-27.0942
 20
-6.75392
 11
-27.0237
 21
-7.12399
  0
LINE
  8
0
 10
-27.0237
 20
-7.12399
 11
-27
 21
-7.5
  0
LINE
  8
0
 10
-27
 20
-7.5
 11
-27.0237
 21
-7.87599
  0
LINE
  8
0
 10
-27.0237
 20
-7.87599
 11
-27.0942
 21
-8.24606
  0
LINE
  8
0
 10
-27.0942
 20
-8.24606
 11
-27.2107
 21
-8.60437
  0
LINE
  8
0
 10
-27.2107
 20
-8.60437
 11
-27.3711
 21
-8.94525
  0
LINE
  8
0
 10
-27.3711
 20
-8.94525
 11
-27.5729
 21
-9.26335
  0
LINE
  8
0
 10
-27.5729
 20
-9.26335
 11
-27.8131
 21
-9.55363
  0
LINE
  8
0
 10
-27.8131
 20
-9.55363
 11
-28.0877
 21
-9.81154
  0
LINE
  8
0
 10
-28.0877
 20
-9.81154
 11
-28.3925
 21
-10.033
  0
LINE
  8
0
 10
-28.3925
 20
-10.033
 11
-28.7227
 21
-10.2145
  0
LINE
  8
0
 10
-28.7227
 20
-10.2145
 11
-29.0729
 21
-10.3532
  0
LINE
  8
0
 10
-29.0729
 20
-10.3532
 11
-29.4379
 21
-10.4469
  0
LINE
  8
0
 10
-29.4379
 20
-10.4469
 11
-29.8116
 21
-10.4941
  0
LINE
  8
0
 10
-29.8116
 20
-10.4941
 11
-30.1884
 21
-10.4941
  0
LINE
  8
0
 10
-90.1884
 20
-10.4941
 11
-90.5621
 21
-10.4469
  0
LINE
  8
0
 10
-90.5621
 20
-10.4469
 11
-90.927
 21
-10.3532
  0
LINE
  8
0
 10
-90.927
 20
-10.3532
 11
-91.2773
 21
-10.2145
  0
LINE
  8
0
 10
-91.2773
 20
-10.2145
 11
-91.6075
 21
-10.033
  0
LINE
  8
0
 10
-91.6075
 20
-10.033
 11
-91.9123
 21
-9.81154
  0
LINE
  8
0
 10
-91.9123
 20
-9.81154
 11
-92.1869
 21
-9.55363
  0
LINE
  8
0
 10
-92.1869
 20
-9.55363
 11
-92.427
 21
-9.26335
  0
LINE
  8
0
 10
-92.427
 20
-9.26335
 11
-92.6289
 21
-8.94525
  0
LINE
  8
0
 10
-92.6289
 20
-8.94525
 11
-92.7893
 21
-8.60437
  0
LINE
  8
0
 10
-92.7893
 20
-8.60437
 11
-92.9057
 21
-8.24606
  0
LINE
  8
0
 10
-92.9057
 20
-8.24606
 11
-92.9763
 21
-7.87599
  0
LINE
  8
0
 10
-92.9763
 20
-7.87599
 11
-93
 21
-7.5
  0
LINE
  8
0
 10
-93
 20
-7.5
 11
-92.9763
 21
-7.12399
  0
LINE
  8
0
 10
-92.9763
 20
-7.12399
 11
-92.9057
 21
-6.75392
  0
LINE
  8
0
 10
-92.9057
 20
-6.75392
 11
-92.7893
 21
-6.39561
  0
LINE
  8
0
 10
-92.7893
 20
-6.39561
 11
-92.6289
 21
-6.05473
  0
LINE
  8
0
 10
-92.6289
 20
-6.05473
 11
-92.427
 21
-5.73663
  0
LINE
  8
0
 10
-92.427
 20
-5.73663
 11
-92.1869
 21
-5.44635
  0
LINE
  8
0
 10
-92.1869
 20
-5.44635
 11
-91.9123
 21
-5.18845
  0
LINE
  8
0
 10
-91.9123
 20
-5.18845
 11
-91.6075
 21
-4.96701
  0
LINE
  8
0
 10
-91.6075
 20
-4.96701
 11
-91.2773
 21
-4.78551
  0
LINE
  8
0
 10
-91.2773
 20
-4.78551
 11
-90.927
 21
-4.64682
  0
LINE
  8
0
 10
-90.927
 20
-4.64682
 11
-90.5621
 21
-4.55313
  0
LINE
  8
0
 10
-90.5621
 20
-4.55313
 11
-90.1884
 21
-4.50591
  0
LINE
  8
0
 10
-90.1884
 20
-4.50591
 11
-89.8116
 21
-4.50591
  0
LINE
  8
0
 10
-89.8116
 20
-4.50591
 11
-89.4379
 21
-4.55313
  0
LINE
  8
0
 10
-89.4379
 20
-4.55313
 11
-89.073
 21
-4.64682
  0
LINE
  8
0
 10
-89.073
 20
-4.64682
 11
-88.7227
 21
-4.78551
  0
LINE
  8
0
 10
-88.7227
 20
-4.78551
 11
-88.3925
 21
-4.96701
  0
LINE
  8
0
 10
-88.3925
 20
-4.96701
 11
-88.0877
 21
-5.18845
  0
LINE
  8
0
 10
-88.0877
 20
-5.18845
 11
-87.8131
 21
-5.44635
  0
LINE
  8
0
 10
-87.8131
 20
-5.44635
 11
-87.573
 21
-5.73663
  0
LINE
  8
0
 10
-87.573
 20
-5.73663
 11
-87.3711
 21
-6.05473
  0
LINE
  8
0
 10
-87.3711
 20
-6.05473
 11
-87.2107
 21
-6.39561
  0
LINE
  8
0
 10
-87.2107
 20
-6.39561
 11
-87.0943
 21
-6.75392
  0
LINE
  8
0
 10
-87.0943
 20
-6.75392
 11
-87.0237
 21
-7.12399
  0
LINE
  8
0
 10
-87.0237
 20
-7.12399
 11
-87
 21
-7.5
  0
LINE
  8
0
 10
-87
 20
-7.5
 11
-87.0237
 21
-7.87599
  0
LINE
  8
0
 10
-87.0237
 20
-7.87599
 11
-87.0943
 21
-8.24606
  0
LINE
  8
0
 10
-87.0943
 20
-8.24606
 11
-87.2107
 21
-8.60437
  0
LINE
  8
0
 10
-87.2107
 20
-8.60437
 11
-87.3711
 21
-8.94525
  0
LINE
  8
0
 10
-87.3711
 20
-8.94525
 11
-87.573
 21
-9.26335
  0
LINE
  8
0
 10
-87.573
 20
-9.26335
 11
-87.8131
 21
-9.55363
  0
LINE
  8
0
 10
-87.8131
 20
-9.55363
 11
-88.0877
 21
-9.81154
  0
LINE
  8
0
 10
-88.0877
 20
-9.81154
 11
-88.3925
 21
-10.033
  0
LINE
  8
0
 10
-88.3925
 20
-10.033
 11
-88.7227
 21
-10.2145
  0
LINE
  8
0
 10
-88.7227
 20
-10.2145
 11
-89.073
 21
-10.3532
  0
LINE
  8
0
 10
-89.073
 20
-10.3532
 11
-89.4379
 21
-10.4469
  0
LINE
  8
0
 10
-89.4379
 20
-10.4469
 11
-89.8116
 21
-10.4941
  0
LINE
  8
0
 10
-89.8116
 20
-10.4941
 11
-90.1884
 21
-10.4941
  0
LINE
  8
0
 10
104.812
 20
-10.4941
 11
104.438
 21
-10.4469
  0
LINE
  8
0
 10
104.438
 20
-10.4469
 11
104.073
 21
-10.3532
  0
LINE
  8
0
 10
104.073
 20
-10.3532
 11
103.723
 21
-10.2145
  0
LINE
  8
0
 10
103.723
 20
-10.2145
 11
103.393
 21
-10.033
  0
LINE
  8
0
 10
103.393
 20
-10.033
 11
103.088
 21
-9.81154
  0
LINE
  8
0
 10
103.088
 20
-9.81154
 11
102.813
 21
-9.55363
  0
LINE
  8
0
 10
102.813
 20
-9.55363
 11
102.573
 21
-9.26335
  0
LINE
  8
0
 10
102.573
 20
-9.26335
 11
102.371
 21
-8.94525
  0
LINE
  8
0
 10
102.371
 20
-8.94525
 11
102.211
 21
-8.60437
  0
LINE
  8
0
 10
102.211
 20
-8.60437
 11
102.094
 21
-8.24606
  0
LINE
  8
0
 10
102.094
 20
-8.24606
 11
102.024
 21
-7.87599
  0
LINE
  8
0
 10
102.024
 20
-7.87599
 11
102
 21
-7.5
  0
LINE
  8
0
 10
102
 20
-7.5
 11
102.024
 21
-7.12399
  0
LINE
  8
0
 10
102.024
 20
-7.12399
 11
102.094
 21
-6.75392
  0
LINE
  8
0
 10
102.094
 20
-6.75392
 11
102.211
 21
-6.39561
  0
LINE
  8
0
 10
102.211
 20
-6.39561
 11
102.371
 21
-6.05473
  0
LINE
  8
0
 10
102.371
 20
-6.05473
 11
102.573
 21
-5.73663
  0
LINE
  8
0
 10
102.573
 20
-5.73663
 11
102.813
 21
-5.44635
  0
LINE
  8
0
 10
102.813
 20
-5.44635
 11
103.088
 21
-5.18845
  0
LINE
  8
0
 10
103.088
 20
-5.18845
 11
103.393
 21
-4.96701
  0
LINE
  8
0
 10
103.393
 20
-4.96701
 11
103.723
 21
-4.78551
  0
LINE
  8
0
 10
103.723
 20
-4.78551
 11
104.073
 21
-4.64682
  0
LINE
  8
0
 10
104.073
 20
-4.64682
 11
104.438
 21
-4.55313
  0
LINE
  8
0
 10
104.438
 20
-4.55313
 11
104.812
 21
-4.50591
  0
LINE
  8
0
 10
104.812
 20
-4.50591
 11
105.188
 21
-4.50591
  0
LINE
  8
0
 10
105.188
 20
-4.50591
 11
105.562
 21
-4.55313
  0
LINE
  8
0
 10
105.562
 20
-4.55313
 11
105.927
 21
-4.64682
  0
LINE
  8
0
 10
105.927
 20
-4.64682
 11
106.277
 21
-4.78551
  0
LINE
  8
0
 10
106.277
 20
-4.78551
 11
106.607
 21
-4.96701
  0
LINE
  8
0
 10
106.607
 20
-4.96701
 11
106.912
 21
-5.18845
  0
LINE
  8
0
 10
106.912
 20
-5.18845
 11
107.187
 21
-5.44635
  0
LINE
  8
0
 10
107.187
 20
-5.44635
 11
107.427
 21
-5.73663
  0
LINE
  8
0
 10
107.427
 20
-5.73663
 11
107.629
 21
-6.05473
  0
LINE
  8
0
 10
107.629
 20
-6.05473
 11
107.789
 21
-6.39561
  0
LINE
  8
0
 10
107.789
 20
-6.39561
 11
107.906
 21
-6.75392
  0
LINE
  8
0
 10
107.906
 20
-6.75392
 11
107.976
 21
-7.12399
  0
LINE
  8
0
 10
107.976
 20
-7.12399
 11
108
 21
-7.5
  0
LINE
  8
0
 10
108
 20
-7.5
 11
107.976
 21
-7.87599
  0
LINE
  8
0
 10
107.976
 20
-7.87599
 11
107.906
 21
-8.24606
  0
LINE
  8
0
 10
107.906
 20
-8.24606
 11
107.789
 21
-8.60437
  0
LINE
  8
0
 10
107.789
 20
-8.60437
 11
107.629
 21
-8.94525
  0
LINE
  8
0
 10
107.629
 20
-8.94525
 11
107.427
 21
-9.26335
  0
LINE
  8
0
 10
107.427
 20
-9.26335
 11
107.187
 21
-9.55363
  0
LINE
  8
0
 10
107.187
 20
-9.55363
 11
106.912
 21
-9.81154
  0
LINE
  8
0
 10
106.912
 20
-9.81154
 11
106.607
 21
-10.033
  0
LINE
  8
0
 10
106.607
 20
-10.033
 11
106.277
 21
-10.2145
  0
LINE
  8
0
 10
106.277
 20
-10.2145
 11
105.927
 21
-10.3532
  0
LINE
  8
0
 10
105.927
 20
-10.3532
 11
105.562
 21
-10.4469
  0
LINE
  8
0
 10
105.562
 20
-10.4469
 11
105.188
 21
-10.4941
  0
LINE
  8
0
 10
105.188
 20
-10.4941
 11
104.812
 21
-10.4941
  0
LINE
  8
0
 10
-75.1884
 20
-10.4941
 11
-75.5621
 21
-10.4469
  0
LINE
  8
0
 10
-75.5621
 20
-10.4469
 11
-75.927
 21
-10.3532
  0
LINE
  8
0
 10
-75.927
 20
-10.3532
 11
-76.2773
 21
-10.2145
  0
LINE
  8
0
 10
-76.2773
 20
-10.2145
 11
-76.6075
 21
-10.033
  0
LINE
  8
0
 10
-76.6075
 20
-10.033
 11
-76.9123
 21
-9.81154
  0
LINE
  8
0
 10
-76.9123
 20
-9.81154
 11
-77.1869
 21
-9.55363
  0
LINE
  8
0
 10
-77.1869
 20
-9.55363
 11
-77.427
 21
-9.26335
  0
LINE
  8
0
 10
-77.427
 20
-9.26335
 11
-77.6289
 21
-8.94525
  0
LINE
  8
0
 10
-77.6289
 20
-8.94525
 11
-77.7893
 21
-8.60437
  0
LINE
  8
0
 10
-77.7893
 20
-8.60437
 11
-77.9057
 21
-8.24606
  0
LINE
  8
0
 10
-77.9057
 20
-8.24606
 11
-77.9763
 21
-7.87599
  0
LINE
  8
0
 10
-77.9763
 20
-7.87599
 11
-78
 21
-7.5
  0
LINE
  8
0
 10
-78
 20
-7.5
 11
-77.9763
 21
-7.12399
  0
LINE
  8
0
 10
-77.9763
 20
-7.12399
 11
-77.9057
 21
-6.75392
  0
LINE
  8
0
 10
-77.9057
 20
-6.75392
 11
-77.7893
 21
-6.39561
  0
LINE
  8
0
 10
-77.7893
 20
-6.39561
 11
-77.6289
 21
-6.05473
  0
LINE
  8
0
 10
-77.6289
 20
-6.05473
 11
-77.427
 21
-5.73663
  0
LINE
  8
0
 10
-77.427
 20
-5.73663
 11
-77.1869
 21
-5.44635
  0
LINE
  8
0
 10
-77.1869
 20
-5.44635
 11
-76.9123
 21
-5.18845
  0
LINE
  8
0
 10
-76.9123
 20
-5.18845
 11
-76.6075
 21
-4.96701
  0
LINE
  8
0
 10
-76.6075
 20
-4.96701
 11
-76.2773
 21
-4.78551
  0
LINE
  8
0
 10
-76.2773
 20
-4.78551
 11
-75.927
 21
-4.64682
  0
LINE
  8
0
 10
-75.927
 20
-4.64682
 11
-75.5621
 21
-4.55313
  0
LINE
  8
0
 10
-75.5621
 20
-4.55313
 11
-75.1884
 21
-4.50591
  0
LINE
  8
0
 10
-75.1884
 20
-4.50591
 11
-74.8116
 21
-4.50591
  0
LINE
  8
0
 10
-74.8116
 20
-4.50591
 11
-74.4379
 21
-4.55313
  0
LINE
  8
0
 10
-74.4379
 20
-4.55313
 11
-74.073
 21
-4.64682
  0
LINE
  8
0
 10
-74.073
 20
-4.64682
 11
-73.7227
 21
-4.78551
  0
LINE
  8
0
 10
-73.7227
 20
-4.78551
 11
-73.3925
 21
-4.96701
  0
LINE
  8
0
 10
-73.3925
 20
-4.96701
 11
-73.0877
 21
-5.18845
  0
LINE
  8
0
 10
-73.0877
 20
-5.18845
 11
-72.8131
 21
-5.44635
  0
LINE
  8
0
 10
-72.8131
 20
-5.44635
 11
-72.573
 21
-5.73663
  0
LINE
  8
0
 10
-72.573
 20
-5.73663
 11
-72.3711
 21
-6.05473
  0
LINE
  8
0
 10
-72.3711
 20
-6.05473
 11
-72.2107
 21
-6.39561
  0
LINE
  8
0
 10
-72.2107
 20
-6.39561
 11
-72.0943
 21
-6.75392
  0
LINE
  8
0
 10
-72.0943
 20
-6.75392
 11
-72.0237
 21
-7.12399
  0
LINE
  8
0
 10
-72.0237
 20
-7.12399
 11
-72
 21
-7.5
  0
LINE
  8
0
 10
-72
 20
-7.5
 11
-72.0237
 21
-7.87599
  0
LINE
  8
0
 10
-72.0237
 20
-7.87599
 11
-72.0943
 21
-8.24606
  0
LINE
  8
0
 10
-72.0943
 20
-8.24606
 11
-72.2107
 21
-8.60437
  0
LINE
  8
0
 10
-72.2107
 20
-8.60437
 11
-72.3711
 21
-8.94525
  0
LINE
  8
0
 10
-72.3711
 20
-8.94525
 11
-72.573
 21
-9.26335
  0
LINE
  8
0
 10
-72.573
 20
-9.26335
 11
-72.8131
 21
-9.55363
  0
LINE
  8
0
 10
-72.8131
 20
-9.55363
 11
-73.0877
 21
-9.81154
  0
LINE
  8
0
 10
-73.0877
 20
-9.81154
 11
-73.3925
 21
-10.033
  0
LINE
  8
0
 10
-73.3925
 20
-10.033
 11
-73.7227
 21
-10.2145
  0
LINE
  8
0
 10
-73.7227
 20
-10.2145
 11
-74.073
 21
-10.3532
  0
LINE
  8
0
 10
-74.073
 20
-10.3532
 11
-74.4379
 21
-10.4469
  0
LINE
  8
0
 10
-74.4379
 20
-10.4469
 11
-74.8116
 21
-10.4941
  0
LINE
  8
0
 10
-74.8116
 20
-10.4941
 11
-75.1884
 21
-10.4941
  0
LINE
  8
0
 10
-105.188
 20
-10.4941
 11
-105.562
 21
-10.4469
  0
LINE
  8
0
 10
-105.562
 20
-10.4469
 11
-105.927
 21
-10.3532
  0
LINE
  8
0
 10
-105.927
 20
-10.3532
 11
-106.277
 21
-10.2145
  0
LINE
  8
0
 10
-106.277
 20
-10.2145
 11
-106.607
 21
-10.033
  0
LINE
  8
0
 10
-106.607
 20
-10.033
 11
-106.912
 21
-9.81154
  0
LINE
  8
0
 10
-106.912
 20
-9.81154
 11
-107.187
 21
-9.55363
  0
LINE
  8
0
 10
-107.187
 20
-9.55363
 11
-107.427
 21
-9.26335
  0
LINE
  8
0
 10
-107.427
 20
-9.26335
 11
-107.629
 21
-8.94525
  0
LINE
  8
0
 10
-107.629
 20
-8.94525
 11
-107.789
 21
-8.60437
  0
LINE
  8
0
 10
-107.789
 20
-8.60437
 11
-107.906
 21
-8.24606
  0
LINE
  8
0
 10
-107.906
 20
-8.24606
 11
-107.976
 21
-7.87599
  0
LINE
  8
0
 10
-107.976
 20
-7.87599
 11
-108
 21
-7.5
  0
LINE
  8
0
 10
-108
 20
-7.5
 11
-107.976
 21
-7.12399
  0
LINE
  8
0
 10
-107.976
 20
-7.12399
 11
-107.906
 21
-6.75392
  0
LINE
  8
0
 10
-107.906
 20
-6.75392
 11
-107.789
 21
-6.39561
  0
LINE
  8
0
 10
-107.789
 20
-6.39561
 11
-107.629
 21
-6.05473
  0
LINE
  8
0
 10
-107.629
 20
-6.05473
 11
-107.427
 21
-5.73663
  0
LINE
  8
0
 10
-107.427
 20
-5.73663
 11
-107.187
 21
-5.44635
  0
LINE
  8
0
 10
-107.187
 20
-5.44635
 11
-106.912
 21
-5.18845
  0
LINE
  8
0
 10
-106.912
 20
-5.18845
 11
-106.607
 21
-4.96701
  0
LINE
  8
0
 10
-106.607
 20
-4.96701
 11
-106.277
 21
-4.78551
  0
LINE
  8
0
 10
-106.277
 20
-4.78551
 11
-105.927
 21
-4.64682
  0
LINE
  8
0
 10
-105.927
 20
-4.64682
 11
-105.562
 21
-4.55313
  0
LINE
  8
0
 10
-105.562
 20
-4.55313
 11
-105.188
 21
-4.50591
  0
LINE
  8
0
 10
-105.188
 20
-4.50591
 11
-104.812
 21
-4.50591
  0
LINE
  8
0
 10
-104.812
 20
-4.50591
 11
-104.438
 21
-4.55313
  0
LINE
  8
0
 10
-104.438
 20
-4.55313
 11
-104.073
 21
-4.64682
  0
LINE
  8
0
 10
-104.073
 20
-4.64682
 11
-103.723
 21
-4.78551
  0
LINE
  8
0
 10
-103.723
 20
-4.78551
 11
-103.393
 21
-4.96701
  0
LINE
  8
0
 10
-103.393
 20
-4.96701
 11
-103.088
 21
-5.18845
  0
LINE
  8
0
 10
-103.088
 20
-5.18845
 11
-102.813
 21
-5.44635
  0
LINE
  8
0
 10
-102.813
 20
-5.44635
 11
-102.573
 21
-5.73663
  0
LINE
  8
0
 10
-102.573
 20
-5.73663
 11
-102.371
 21
-6.05473
  0
LINE
  8
0
 10
-102.371
 20
-6.05473
 11
-102.211
 21
-6.39561
  0
LINE
  8
0
 10
-102.211
 20
-6.39561
 11
-102.094
 21
-6.75392
  0
LINE
  8
0
 10
-102.094
 20
-6.75392
 11
-102.024
 21
-7.12399
  0
LINE
  8
0
 10
-102.024
 20
-7.12399
 11
-102
 21
-7.5
  0
LINE
  8
0
 10
-102
 20
-7.5
 11
-102.024
 21
-7.87599
  0
LINE
  8
0
 10
-102.024
 20
-7.87599
 11
-102.094
 21
-8.24606
  0
LINE
  8
0
 10
-102.094
 20
-8.24606
 11
-102.211
 21
-8.60437
  0
LINE
  8
0
 10
-102.211
 20
-8.60437
 11
-102.371
 21
-8.94525
  0
LINE
  8
0
 10
-102.371
 20
-8.94525
 11
-102.573
 21
-9.26335
  0
LINE
  8
0
 10
-102.573
 20
-9.26335
 11
-102.813
 21
-9.55363
  0
LINE
  8
0
 10
-102.813
 20
-9.55363
 11
-103.088
 21
-9.81154
  0
LINE
  8
0
 10
-103.088
 20
-9.81154
 11
-103.393
 21
-10.033
  0
LINE
  8
0
 10
-103.393
 20
-10.033
 11
-103.723
 21
-10.2145
  0
LINE
  8
0
 10
-103.723
 20
-10.2145
 11
-104.073
 21
-10.3532
  0
LINE
  8
0
 10
-104.073
 20
-10.3532
 11
-104.438
 21
-10.4469
  0
LINE
  8
0
 10
-104.438
 20
-10.4469
 11
-104.812
 21
-10.4941
  0
LINE
  8
0
 10
-104.812
 20
-10.4941
 11
-105.188
 21
-10.4941
  0
LINE
  8
0
 10
-15.1884
 20
-10.4941
 11
-15.5621
 21
-10.4469
  0
LINE
  8
0
 10
-15.5621
 20
-10.4469
 11
-15.927
 21
-10.3532
  0
LINE
  8
0
 10
-15.927
 20
-10.3532
 11
-16.2773
 21
-10.2145
  0
LINE
  8
0
 10
-16.2773
 20
-10.2145
 11
-16.6075
 21
-10.033
  0
LINE
  8
0
 10
-16.6075
 20
-10.033
 11
-16.9123
 21
-9.81154
  0
LINE
  8
0
 10
-16.9123
 20
-9.81154
 11
-17.1869
 21
-9.55363
  0
LINE
  8
0
 10
-17.1869
 20
-9.55363
 11
-17.427
 21
-9.26335
  0
LINE
  8
0
 10
-17.427
 20
-9.26335
 11
-17.6289
 21
-8.94525
  0
LINE
  8
0
 10
-17.6289
 20
-8.94525
 11
-17.7893
 21
-8.60437
  0
LINE
  8
0
 10
-17.7893
 20
-8.60437
 11
-17.9057
 21
-8.24606
  0
LINE
  8
0
 10
-17.9057
 20
-8.24606
 11
-17.9763
 21
-7.87599
  0
LINE
  8
0
 10
-17.9763
 20
-7.87599
 11
-18
 21
-7.5
  0
LINE
  8
0
 10
-18
 20
-7.5
 11
-17.9763
 21
-7.12399
  0
LINE
  8
0
 10
-17.9763
 20
-7.12399
 11
-17.9057
 21
-6.75392
  0
LINE
  8
0
 10
-17.9057
 20
-6.75392
 11
-17.7893
 21
-6.39561
  0
LINE
  8
0
 10
-17.7893
 20
-6.39561
 11
-17.6289
 21
-6.05473
  0
LINE
  8
0
 10
-17.6289
 20
-6.05473
 11
-17.427
 21
-5.73663
  0
LINE
  8
0
 10
-17.427
 20
-5.73663
 11
-17.1869
 21
-5.44635
  0
LINE
  8
0
 10
-17.1869
 20
-5.44635
 11
-16.9123
 21
-5.18845
  0
LINE
  8
0
 10
-16.9123
 20
-5.18845
 11
-16.6075
 21
-4.96701
  0
LINE
  8
0
 10
-16.6075
 20
-4.96701
 11
-16.2773
 21
-4.78551
  0
LINE
  8
0
 10
-16.2773
 20
-4.78551
 11
-15.927
 21
-4.64682
  0
LINE
  8
0
 10
-15.927
 20
-4.64682
 11
-15.5621
 21
-4.55313
  0
LINE
  8
0
 10
-15.5621
 20
-4.55313
 11
-15.1884
 21
-4.50591
  0
LINE
  8
0
 10
-15.1884
 20
-4.50591
 11
-14.8116
 21
-4.50591
  0
LINE
  8
0
 10
-14.8116
 20
-4.50591
 11
-14.4379
 21
-4.55313
  0
LINE
  8
0
 10
-14.4379
 20
-4.55313
 11
-14.0729
 21
-4.64682
  0
LINE
  8
0
 10
-14.0729
 20
-4.64682
 11
-13.7227
 21
-4.78551
  0
LINE
  8
0
 10
-13.7227
 20
-4.78551
 11
-13.3925
 21
-4.96701
  0
LINE
  8
0
 10
-13.3925
 20
-4.96701
 11
-13.0877
 21
-5.18845
  0
LINE
  8
0
 10
-13.0877
 20
-5.18845
 11
-12.8131
 21
-5.44635
  0
LINE
  8
0
 10
-12.8131
 20
-5.44635
 11
-12.5729
 21
-5.73663
  0
LINE
  8
0
 10
-12.5729
 20
-5.73663
 11
-12.3711
 21
-6.05473
  0
LINE
  8
0
 10
-12.3711
 20
-6.05473
 11
-12.2107
 21
-6.39561
  0
LINE
  8
0
 10
-12.2107
 20
-6.39561
 11
-12.0942
 21
-6.75392
  0
LINE
  8
0
 10
-12.0942
 20
-6.75392
 11
-12.0237
 21
-7.12399
  0
LINE
  8
0
 10
-12.0237
 20
-7.12399
 11
-12
 21
-7.5
  0
LINE
  8
0
 10
-12
 20
-7.5
 11
-12.0237
 21
-7.87599
  0
LINE
  8
0
 10
-12.0237
 20
-7.87599
 11
-12.0942
 21
-8.24606
  0
LINE
  8
0
 10
-12.0942
 20
-8.24606
 11
-12.2107
 21
-8.60437
  0
LINE
  8
0
 10
-12.2107
 20
-8.60437
 11
-12.3711
 21
-8.94525
  0
LINE
  8
0
 10
-12.3711
 20
-8.94525
 11
-12.5729
 21
-9.26335
  0
LINE
  8
0
 10
-12.5729
 20
-9.26335
 11
-12.8131
 21
-9.55363
  0
LINE
  8
0
 10
-12.8131
 20
-9.55363
 11
-13.0877
 21
-9.81154
  0
LINE
  8
0
 10
-13.0877
 20
-9.81154
 11
-13.3925
 21
-10.033
  0
LINE
  8
0
 10
-13.3925
 20
-10.033
 11
-13.7227
 21
-10.2145
  0
LINE
  8
0
 10
-13.7227
 20
-10.2145
 11
-14.0729
 21
-10.3532
  0
LINE
  8
0
 10
-14.0729
 20
-10.3532
 11
-14.4379
 21
-10.4469
  0
LINE
  8
0
 10
-14.4379
 20
-10.4469
 11
-14.8116
 21
-10.4941
  0
LINE
  8
0
 10
-14.8116
 20
-10.4941
 11
-15.1884
 21
-10.4941
  0
LINE
  8
0
 10
-0.18837
 20
-10.4941
 11
-0.562134
 21
-10.4469
  0
LINE
  8
0
 10
-0.562134
 20
-10.4469
 11
-0.927048
 21
-10.3532
  0
LINE
  8
0
 10
-0.927048
 20
-10.3532
 11
-1.27733
 21
-10.2145
  0
LINE
  8
0
 10
-1.27733
 20
-10.2145
 11
-1.60747
 21
-10.033
  0
LINE
  8
0
 10
-1.60747
 20
-10.033
 11
-1.91226
 21
-9.81154
  0
LINE
  8
0
 10
-1.91226
 20
-9.81154
 11
-2.1869
 21
-9.55363
  0
LINE
  8
0
 10
-2.1869
 20
-9.55363
 11
-2.42705
 21
-9.26335
  0
LINE
  8
0
 10
-2.42705
 20
-9.26335
 11
-2.62891
 21
-8.94525
  0
LINE
  8
0
 10
-2.62891
 20
-8.94525
 11
-2.78932
 21
-8.60437
  0
LINE
  8
0
 10
-2.78932
 20
-8.60437
 11
-2.90575
 21
-8.24606
  0
LINE
  8
0
 10
-2.90575
 20
-8.24606
 11
-2.97633
 21
-7.87599
  0
LINE
  8
0
 10
-2.97633
 20
-7.87599
 11
-3
 21
-7.5
  0
LINE
  8
0
 10
-3
 20
-7.5
 11
-2.97633
 21
-7.12399
  0
LINE
  8
0
 10
-2.97633
 20
-7.12399
 11
-2.90575
 21
-6.75392
  0
LINE
  8
0
 10
-2.90575
 20
-6.75392
 11
-2.78932
 21
-6.39561
  0
LINE
  8
0
 10
-2.78932
 20
-6.39561
 11
-2.62891
 21
-6.05473
  0
LINE
  8
0
 10
-2.62891
 20
-6.05473
 11
-2.42705
 21
-5.73663
  0
LINE
  8
0
 10
-2.42705
 20
-5.73663
 11
-2.1869
 21
-5.44635
  0
LINE
  8
0
 10
-2.1869
 20
-5.44635
 11
-1.91226
 21
-5.18845
  0
LINE
  8
0
 10
-1.91226
 20
-5.18845
 11
-1.60747
 21
-4.96701
  0
LINE
  8
0
 10
-1.60747
 20
-4.96701
 11
-1.27733
 21
-4.78551
  0
LINE
  8
0
 10
-1.27733
 20
-4.78551
 11
-0.927048
 21
-4.64682
  0
LINE
  8
0
 10
-0.927048
 20
-4.64682
 11
-0.562134
 21
-4.55313
  0
LINE
  8
0
 10
-0.562134
 20
-4.55313
 11
-0.18837
 21
-4.50591
  0
LINE
  8
0
 10
-0.18837
 20
-4.50591
 11
0.18837
 21
-4.50591
  0
LINE
  8
0
 10
0.18837
 20
-4.50591
 11
0.562134
 21
-4.55313
  0
LINE
  8
0
 10
0.562134
 20
-4.55313
 11
0.927048
 21
-4.64682
  0
LINE
  8
0
 10
0.927048
 20
-4.64682
 11
1.27733
 21
-4.78551
  0
LINE
  8
0
 10
1.27733
 20
-4.78551
 11
1.60747
 21
-4.96701
  0
LINE
  8
0
 10
1.60747
 20
-4.96701
 11
1.91226
 21
-5.18845
  0
LINE
  8
0
 10
1.91226
 20
-5.18845
 11
2.1869
 21
-5.44635
  0
LINE
  8
0
 10
2.1869
 20
-5.44635
 11
2.42705
 21
-5.73663
  0
LINE
  8
0
 10
2.42705
 20
-5.73663
 11
2.62891
 21
-6.05473
  0
LINE
  8
0
 10
2.62891
 20
-6.05473
 11
2.78932
 21
-6.39561
  0
LINE
  8
0
 10
2.78932
 20
-6.39561
 11
2.90575
 21
-6.75392
  0
LINE
  8
0
 10
2.90575
 20
-6.75392
 11
2.97633
 21
-7.12399
  0
LINE
  8
0
 10
2.97633
 20
-7.12399
 11
3
 21
-7.5
  0
LINE
  8
0
 10
3
 20
-7.5
 11
2.97633
 21
-7.87599
  0
LINE
  8
0
 10
2.97633
 20
-7.87599
 11
2.90575
 21
-8.24606
  0
LINE
  8
0
 10
2.90575
 20
-8.24606
 11
2.78932
 21
-8.60437
  0
LINE
  8
0
 10
2.78932
 20
-8.60437
 11
2.62891
 21
-8.94525
  0
LINE
  8
0
 10
2.62891
 20
-8.94525
 11
2.42705
 21
-9.26335
  0
LINE
  8
0
 10
2.42705
 20
-9.26335
 11
2.1869
 21
-9.55363
  0
LINE
  8
0
 10
2.1869
 20
-9.55363
 11
1.91226
 21
-9.81154
  0
LINE
  8
0
 10
1.91226
 20
-9.81154
 11
1.60747
 21
-10.033
  0
LINE
  8
0
 10
1.60747
 20
-10.033
 11
1.27733
 21
-10.2145
  0
LINE
  8
0
 10
1.27733
 20
-10.2145
 11
0.927048
 21
-10.3532
  0
LINE
  8
0
 10
0.927048
 20
-10.3532
 11
0.562134
 21
-10.4469
  0
LINE
  8
0
 10
0.562134
 20
-10.4469
 11
0.18837
 21
-10.4941
  0
LINE
  8
0
 10
0.18837
 20
-10.4941
 11
-0.18837
 21
-10.4941
  0
LINE
  8
0
 10
-60.1884
 20
-10.4941
 11
-60.5621
 21
-10.4469
  0
LINE
  8
0
 10
-60.5621
 20
-10.4469
 11
-60.927
 21
-10.3532
  0
LINE
  8
0
 10
-60.927
 20
-10.3532
 11
-61.2773
 21
-10.2145
  0
LINE
  8
0
 10
-61.2773
 20
-10.2145
 11
-61.6075
 21
-10.033
  0
LINE
  8
0
 10
-61.6075
 20
-10.033
 11
-61.9123
 21
-9.81154
  0
LINE
  8
0
 10
-61.9123
 20
-9.81154
 11
-62.1869
 21
-9.55363
  0
LINE
  8
0
 10
-62.1869
 20
-9.55363
 11
-62.427
 21
-9.26335
  0
LINE
  8
0
 10
-62.427
 20
-9.26335
 11
-62.6289
 21
-8.94525
  0
LINE
  8
0
 10
-62.6289
 20
-8.94525
 11
-62.7893
 21
-8.60437
  0
LINE
  8
0
 10
-62.7893
 20
-8.60437
 11
-62.9057
 21
-8.24606
  0
LINE
  8
0
 10
-62.9057
 20
-8.24606
 11
-62.9763
 21
-7.87599
  0
LINE
  8
0
 10
-62.9763
 20
-7.87599
 11
-63
 21
-7.5
  0
LINE
  8
0
 10
-63
 20
-7.5
 11
-62.9763
 21
-7.12399
  0
LINE
  8
0
 10
-62.9763
 20
-7.12399
 11
-62.9057
 21
-6.75392
  0
LINE
  8
0
 10
-62.9057
 20
-6.75392
 11
-62.7893
 21
-6.39561
  0
LINE
  8
0
 10
-62.7893
 20
-6.39561
 11
-62.6289
 21
-6.05473
  0
LINE
  8
0
 10
-62.6289
 20
-6.05473
 11
-62.427
 21
-5.73663
  0
LINE
  8
0
 10
-62.427
 20
-5.73663
 11
-62.1869
 21
-5.44635
  0
LINE
  8
0
 10
-62.1869
 20
-5.44635
 11
-61.9123
 21
-5.18845
  0
LINE
  8
0
 10
-61.9123
 20
-5.18845
 11
-61.6075
 21
-4.96701
  0
LINE
  8
0
 10
-61.6075
 20
-4.96701
 11
-61.2773
 21
-4.78551
  0
LINE
  8
0
 10
-61.2773
 20
-4.78551
 11
-60.927
 21
-4.64682
  0
LINE
  8
0
 10
-60.927
 20
-4.64682
 11
-60.5621
 21
-4.55313
  0
LINE
  8
0
 10
-60.5621
 20
-4.55313
 11
-60.1884
 21
-4.50591
  0
LINE
  8
0
 10
-60.1884
 20
-4.50591
 11
-59.8116
 21
-4.50591
  0
LINE
  8
0
 10
-59.8116
 20
-4.50591
 11
-59.4379
 21
-4.55313
  0
LINE
  8
0
 10
-59.4379
 20
-4.55313
 11
-59.0729
 21
-4.64682
  0
LINE
  8
0
 10
-59.0729
 20
-4.64682
 11
-58.7227
 21
-4.78551
  0
LINE
  8
0
 10
-58.7227
 20
-4.78551
 11
-58.3925
 21
-4.96701
  0
LINE
  8
0
 10
-58.3925
 20
-4.96701
 11
-58.0877
 21
-5.18845
  0
LINE
  8
0
 10
-58.0877
 20
-5.18845
 11
-57.8131
 21
-5.44635
  0
LINE
  8
0
 10
-57.8131
 20
-5.44635
 11
-57.5729
 21
-5.73663
  0
LINE
  8
0
 10
-57.5729
 20
-5.73663
 11
-57.3711
 21
-6.05473
  0
LINE
  8
0
 10
-57.3711
 20
-6.05473
 11
-57.2107
 21
-6.39561
  0
LINE
  8
0
 10
-57.2107
 20
-6.39561
 11
-57.0942
 21
-6.75392
  0
LINE
  8
0
 10
-57.0942
 20
-6.75392
 11
-57.0237
 21
-7.12399
  0
LINE
  8
0
 10
-57.0237
 20
-7.12399
 11
-57
 21
-7.5
  0
LINE
  8
0
 10
-57
 20
-7.5
 11
-57.0237
 21
-7.87599
  0
LINE
  8
0
 10
-57.0237
 20
-7.87599
 11
-57.0942
 21
-8.24606
  0
LINE
  8
0
 10
-57.0942
 20
-8.24606
 11
-57.2107
 21
-8.60437
  0
LINE
  8
0
 10
-57.2107
 20
-8.60437
 11
-57.3711
 21
-8.94525
  0
LINE
  8
0
 10
-57.3711
 20
-8.94525
 11
-57.5729
 21
-9.26335
  0
LINE
  8
0
 10
-57.5729
 20
-9.26335
 11
-57.8131
 21
-9.55363
  0
LINE
  8
0
 10
-57.8131
 20
-9.55363
 11
-58.0877
 21
-9.81154
  0
LINE
  8
0
 10
-58.0877
 20
-9.81154
 11
-58.3925
 21
-10.033
  0
LINE
  8
0
 10
-58.3925
 20
-10.033
 11
-58.7227
 21
-10.2145
  0
LINE
  8
0
 10
-58.7227
 20
-10.2145
 11
-59.0729
 21
-10.3532
  0
LINE
  8
0
 10
-59.0729
 20
-10.3532
 11
-59.4379
 21
-10.4469
  0
LINE
  8
0
 10
-59.4379
 20
-10.4469
 11
-59.8116
 21
-10.4941
  0
LINE
  8
0
 10
-59.8116
 20
-10.4941
 11
-60.1884
 21
-10.4941
  0
LINE
  8
0
 10
59.8116
 20
-10.4941
 11
59.4379
 21
-10.4469
  0
LINE
  8
0
 10
59.4379
 20
-10.4469
 11
59.0729
 21
-10.3532
  0
LINE
  8
0
 10
59.0729
 20
-10.3532
 11
58.7227
 21
-10.2145
  0
LINE
  8
0
 10
58.7227
 20
-10.2145
 11
58.3925
 21
-10.033
  0
LINE
  8
0
 10
58.3925
 20
-10.033
 11
58.0877
 21
-9.81154
  0
LINE
  8
0
 10
58.0877
 20
-9.81154
 11
57.8131
 21
-9.55363
  0
LINE
  8
0
 10
57.8131
 20
-9.55363
 11
57.5729
 21
-9.26335
  0
LINE
  8
0
 10
57.5729
 20
-9.26335
 11
57.3711
 21
-8.94525
  0
LINE
  8
0
 10
57.3711
 20
-8.94525
 11
57.2107
 21
-8.60437
  0
LINE
  8
0
 10
57.2107
 20
-8.60437
 11
57.0942
 21
-8.24606
  0
LINE
  8
0
 10
57.0942
 20
-8.24606
 11
57.0237
 21
-7.87599
  0
LINE
  8
0
 10
57.0237
 20
-7.87599
 11
57
 21
-7.5
  0
LINE
  8
0
 10
57
 20
-7.5
 11
57.0237
 21
-7.12399
  0
LINE
  8
0
 10
57.0237
 20
-7.12399
 11
57.0942
 21
-6.75392
  0
LINE
  8
0
 10
57.0942
 20
-6.75392
 11
57.2107
 21
-6.39561
  0
LINE
  8
0
 10
57.2107
 20
-6.39561
 11
57.3711
 21
-6.05473
  0
LINE
  8
0
 10
57.3711
 20
-6.05473
 11
57.5729
 21
-5.73663
  0
LINE
  8
0
 10
57.5729
 20
-5.73663
 11
57.8131
 21
-5.44635
  0
LINE
  8
0
 10
57.8131
 20
-5.44635
 11
58.0877
 21
-5.18845
  0
LINE
  8
0
 10
58.0877
 20
-5.18845
 11
58.3925
 21
-4.96701
  0
LINE
  8
0
 10
58.3925
 20
-4.96701
 11
58.7227
 21
-4.78551
  0
LINE
  8
0
 10
58.7227
 20
-4.78551
 11
59.0729
 21
-4.64682
  0
LINE
  8
0
 10
59.0729
 20
-4.64682
 11
59.4379
 21
-4.55313
  0
LINE
  8
0
 10
59.4379
 20
-4.55313
 11
59.8116
 21
-4.50591
  0
LINE
  8
0
 10
59.8116
 20
-4.50591
 11
60.1884
 21
-4.50591
  0
LINE
  8
0
 10
60.1884
 20
-4.50591
 11
60.5621
 21
-4.55313
  0
LINE
  8
0
 10
60.5621
 20
-4.55313
 11
60.927
 21
-4.64682
  0
LINE
  8
0
 10
60.927
 20
-4.64682
 11
61.2773
 21
-4.78551
  0
LINE
  8
0
 10
61.2773
 20
-4.78551
 11
61.6075
 21
-4.96701
  0
LINE
  8
0
 10
61.6075
 20
-4.96701
 11
61.9123
 21
-5.18845
  0
LINE
  8
0
 10
61.9123
 20
-5.18845
 11
62.1869
 21
-5.44635
  0
LINE
  8
0
 10
62.1869
 20
-5.44635
 11
62.427
 21
-5.73663
  0
LINE
  8
0
 10
62.427
 20
-5.73663
 11
62.6289
 21
-6.05473
  0
LINE
  8
0
 10
62.6289
 20
-6.05473
 11
62.7893
 21
-6.39561
  0
LINE
  8
0
 10
62.7893
 20
-6.39561
 11
62.9057
 21
-6.75392
  0
LINE
  8
0
 10
62.9057
 20
-6.75392
 11
62.9763
 21
-7.12399
  0
LINE
  8
0
 10
62.9763
 20
-7.12399
 11
63
 21
-7.5
  0
LINE
  8
0
 10
63
 20
-7.5
 11
62.9763
 21
-7.87599
  0
LINE
  8
0
 10
62.9763
 20
-7.87599
 11
62.9057
 21
-8.24606
  0
LINE
  8
0
 10
62.9057
 20
-8.24606
 11
62.7893
 21
-8.60437
  0
LINE
  8
0
 10
62.7893
 20
-8.60437
 11
62.6289
 21
-8.94525
  0
LINE
  8
0
 10
62.6289
 20
-8.94525
 11
62.427
 21
-9.26335
  0
LINE
  8
0
 10
62.427
 20
-9.26335
 11
62.1869
 21
-9.55363
  0
LINE
  8
0
 10
62.1869
 20
-9.55363
 11
61.9123
 21
-9.81154
  0
LINE
  8
0
 10
61.9123
 20
-9.81154
 11
61.6075
 21
-10.033
  0
LINE
  8
0
 10
61.6075
 20
-10.033
 11
61.2773
 21
-10.2145
  0
LINE
  8
0
 10
61.2773
 20
-10.2145
 11
60.927
 21
-10.3532
  0
LINE
  8
0
 10
60.927
 20
-10.3532
 11
60.5621
 21
-10.4469
  0
LINE
  8
0
 10
60.5621
 20
-10.4469
 11
60.1884
 21
-10.4941
  0
LINE
  8
0
 10
60.1884
 20
-10.4941
 11
59.8116
 21
-10.4941
  0
LINE
  8
0
 10
-45.1884
 20
-10.4941
 11
-45.5621
 21
-10.4469
  0
LINE
  8
0
 10
-45.5621
 20
-10.4469
 11
-45.927
 21
-10.3532
  0
LINE
  8
0
 10
-45.927
 20
-10.3532
 11
-46.2773
 21
-10.2145
  0
LINE
  8
0
 10
-46.2773
 20
-10.2145
 11
-46.6075
 21
-10.033
  0
LINE
  8
0
 10
-46.6075
 20
-10.033
 11
-46.9123
 21
-9.81154
  0
LINE
  8
0
 10
-46.9123
 20
-9.81154
 11
-47.1869
 21
-9.55363
  0
LINE
  8
0
 10
-47.1869
 20
-9.55363
 11
-47.427
 21
-9.26335
  0
LINE
  8
0
 10
-47.427
 20
-9.26335
 11
-47.6289
 21
-8.94525
  0
LINE
  8
0
 10
-47.6289
 20
-8.94525
 11
-47.7893
 21
-8.60437
  0
LINE
  8
0
 10
-47.7893
 20
-8.60437
 11
-47.9057
 21
-8.24606
  0
LINE
  8
0
 10
-47.9057
 20
-8.24606
 11
-47.9763
 21
-7.87599
  0
LINE
  8
0
 10
-47.9763
 20
-7.87599
 11
-48
 21
-7.5
  0
LINE
  8
0
 10
-48
 20
-7.5
 11
-47.9763
 21
-7.12399
  0
LINE
  8
0
 10
-47.9763
 20
-7.12399
 11
-47.9057
 21
-6.75392
  0
LINE
  8
0
 10
-47.9057
 20
-6.75392
 11
-47.7893
 21
-6.39561
  0
LINE
  8
0
 10
-47.7893
 20
-6.39561
 11
-47.6289
 21
-6.05473
  0
LINE
  8
0
 10
-47.6289
 20
-6.05473
 11
-47.427
 21
-5.73663
  0
LINE
  8
0
 10
-47.427
 20
-5.73663
 11
-47.1869
 21
-5.44635
  0
LINE
  8
0
 10
-47.1869
 20
-5.44635
 11
-46.9123
 21
-5.18845
  0
LINE
  8
0
 10
-46.9123
 20
-5.18845
 11
-46.6075
 21
-4.96701
  0
LINE
  8
0
 10
-46.6075
 20
-4.96701
 11
-46.2773
 21
-4.78551
  0
LINE
  8
0
 10
-46.2773
 20
-4.78551
 11
-45.927
 21
-4.64682
  0
LINE
  8
0
 10
-45.927
 20
-4.64682
 11
-45.5621
 21
-4.55313
  0
LINE
  8
0
 10
-45.5621
 20
-4.55313
 11
-45.1884
 21
-4.50591
  0
LINE
  8
0
 10
-45.1884
 20
-4.50591
 11
-44.8116
 21
-4.50591
  0
LINE
  8
0
 10
-44.8116
 20
-4.50591
 11
-44.4379
 21
-4.55313
  0
LINE
  8
0
 10
-44.4379
 20
-4.55313
 11
-44.0729
 21
-4.64682
  0
LINE
  8
0
 10
-44.0729
 20
-4.64682
 11
-43.7227
 21
-4.78551
  0
LINE
  8
0
 10
-43.7227
 20
-4.78551
 11
-43.3925
 21
-4.96701
  0
LINE
  8
0
 10
-43.3925
 20
-4.96701
 11
-43.0877
 21
-5.18845
  0
LINE
  8
0
 10
-43.0877
 20
-5.18845
 11
-42.8131
 21
-5.44635
  0
LINE
  8
0
 10
-42.8131
 20
-5.44635
 11
-42.5729
 21
-5.73663
  0
LINE
  8
0
 10
-42.5729
 20
-5.73663
 11
-42.3711
 21
-6.05473
  0
LINE
  8
0
 10
-42.3711
 20
-6.05473
 11
-42.2107
 21
-6.39561
  0
LINE
  8
0
 10
-42.2107
 20
-6.39561
 11
-42.0942
 21
-6.75392
  0
LINE
  8
0
 10
-42.0942
 20
-6.75392
 11
-42.0237
 21
-7.12399
  0
LINE
  8
0
 10
-42.0237
 20
-7.12399
 11
-42
 21
-7.5
  0
LINE
  8
0
 10
-42
 20
-7.5
 11
-42.0237
 21
-7.87599
  0
LINE
  8
0
 10
-42.0237
 20
-7.87599
 11
-42.0942
 21
-8.24606
  0
LINE
  8
0
 10
-42.0942
 20
-8.24606
 11
-42.2107
 21
-8.60437
  0
LINE
  8
0
 10
-42.2107
 20
-8.60437
 11
-42.3711
 21
-8.94525
  0
LINE
  8
0
 10
-42.3711
 20
-8.94525
 11
-42.5729
 21
-9.26335
  0
LINE
  8
0
 10
-42.5729
 20
-9.26335
 11
-42.8131
 21
-9.55363
  0
LINE
  8
0
 10
-42.8131
 20
-9.55363
 11
-43.0877
 21
-9.81154
  0
LINE
  8
0
 10
-43.0877
 20
-9.81154
 11
-43.3925
 21
-10.033
  0
LINE
  8
0
 10
-43.3925
 20
-10.033
 11
-43.7227
 21
-10.2145
  0
LINE
  8
0
 10
-43.7227
 20
-10.2145
 11
-44.0729
 21
-10.3532
  0
LINE
  8
0
 10
-44.0729
 20
-10.3532
 11
-44.4379
 21
-10.4469
  0
LINE
  8
0
 10
-44.4379
 20
-10.4469
 11
-44.8116
 21
-10.4941
  0
LINE
  8
0
 10
-44.8116
 20
-10.4941
 11
-45.1884
 21
-10.4941
  0
LINE
  8
0
 10
14.8116
 20
-10.4941
 11
14.4379
 21
-10.4469
  0
LINE
  8
0
 10
14.4379
 20
-10.4469
 11
14.0729
 21
-10.3532
  0
LINE
  8
0
 10
14.0729
 20
-10.3532
 11
13.7227
 21
-10.2145
  0
LINE
  8
0
 10
13.7227
 20
-10.2145
 11
13.3925
 21
-10.033
  0
LINE
  8
0
 10
13.3925
 20
-10.033
 11
13.0877
 21
-9.81154
  0
LINE
  8
0
 10
13.0877
 20
-9.81154
 11
12.8131
 21
-9.55363
  0
LINE
  8
0
 10
12.8131
 20
-9.55363
 11
12.5729
 21
-9.26335
  0
LINE
  8
0
 10
12.5729
 20
-9.26335
 11
12.3711
 21
-8.94525
  0
LINE
  8
0
 10
12.3711
 20
-8.94525
 11
12.2107
 21
-8.60437
  0
LINE
  8
0
 10
12.2107
 20
-8.60437
 11
12.0942
 21
-8.24606
  0
LINE
  8
0
 10
12.0942
 20
-8.24606
 11
12.0237
 21
-7.87599
  0
LINE
  8
0
 10
12.0237
 20
-7.87599
 11
12
 21
-7.5
  0
LINE
  8
0
 10
12
 20
-7.5
 11
12.0237
 21
-7.12399
  0
LINE
  8
0
 10
12.0237
 20
-7.12399
 11
12.0942
 21
-6.75392
  0
LINE
  8
0
 10
12.0942
 20
-6.75392
 11
12.2107
 21
-6.39561
  0
LINE
  8
0
 10
12.2107
 20
-6.39561
 11
12.3711
 21
-6.05473
  0
LINE
  8
0
 10
12.3711
 20
-6.05473
 11
12.5729
 21
-5.73663
  0
LINE
  8
0
 10
12.5729
 20
-5.73663
 11
12.8131
 21
-5.44635
  0
LINE
  8
0
 10
12.8131
 20
-5.44635
 11
13.0877
 21
-5.18845
  0
LINE
  8
0
 10
13.0877
 20
-5.18845
 11
13.3925
 21
-4.96701
  0
LINE
  8
0
 10
13.3925
 20
-4.96701
 11
13.7227
 21
-4.78551
  0
LINE
  8
0
 10
13.7227
 20
-4.78551
 11
14.0729
 21
-4.64682
  0
LINE
  8
0
 10
14.0729
 20
-4.64682
 11
14.4379
 21
-4.55313
  0
LINE
  8
0
 10
14.4379
 20
-4.55313
 11
14.8116
 21
-4.50591
  0
LINE
  8
0
 10
14.8116
 20
-4.50591
 11
15.1884
 21
-4.50591
  0
LINE
  8
0
 10
15.1884
 20
-4.50591
 11
15.5621
 21
-4.55313
  0
LINE
  8
0
 10
15.5621
 20
-4.55313
 11
15.927
 21
-4.64682
  0
LINE
  8
0
 10
15.927
 20
-4.64682
 11
16.2773
 21
-4.78551
  0
LINE
  8
0
 10
16.2773
 20
-4.78551
 11
16.6075
 21
-4.96701
  0
LINE
  8
0
 10
16.6075
 20
-4.96701
 11
16.9123
 21
-5.18845
  0
LINE
  8
0
 10
16.9123
 20
-5.18845
 11
17.1869
 21
-5.44635
  0
LINE
  8
0
 10
17.1869
 20
-5.44635
 11
17.427
 21
-5.73663
  0
LINE
  8
0
 10
17.427
 20
-5.73663
 11
17.6289
 21
-6.05473
  0
LINE
  8
0
 10
17.6289
 20
-6.05473
 11
17.7893
 21
-6.39561
  0
LINE
  8
0
 10
17.7893
 20
-6.39561
 11
17.9057
 21
-6.75392
  0
LINE
  8
0
 10
17.9057
 20
-6.75392
 11
17.9763
 21
-7.12399
  0
LINE
  8
0
 10
17.9763
 20
-7.12399
 11
18
 21
-7.5
  0
LINE
  8
0
 10
18
 20
-7.5
 11
17.9763
 21
-7.87599
  0
LINE
  8
0
 10
17.9763
 20
-7.87599
 11
17.9057
 21
-8.24606
  0
LINE
  8
0
 10
17.9057
 20
-8.24606
 11
17.7893
 21
-8.60437
  0
LINE
  8
0
 10
17.7893
 20
-8.60437
 11
17.6289
 21
-8.94525
  0
LINE
  8
0
 10
17.6289
 20
-8.94525
 11
17.427
 21
-9.26335
  0
LINE
  8
0
 10
17.427
 20
-9.26335
 11
17.1869
 21
-9.55363
  0
LINE
  8
0
 10
17.1869
 20
-9.55363
 11
16.9123
 21
-9.81154
  0
LINE
  8
0
 10
16.9123
 20
-9.81154
 11
16.6075
 21
-10.033
  0
LINE
  8
0
 10
16.6075
 20
-10.033
 11
16.2773
 21
-10.2145
  0
LINE
  8
0
 10
16.2773
 20
-10.2145
 11
15.927
 21
-10.3532
  0
LINE
  8
0
 10
15.927
 20
-10.3532
 11
15.5621
 21
-10.4469
  0
LINE
  8
0
 10
15.5621
 20
-10.4469
 11
15.1884
 21
-10.4941
  0
LINE
  8
0
 10
15.1884
 20
-10.4941
 11
14.8116
 21
-10.4941
  0
LINE
  8
0
 10
74.8116
 20
-10.4941
 11
74.4379
 21
-10.4469
  0
LINE
  8
0
 10
74.4379
 20
-10.4469
 11
74.073
 21
-10.3532
  0
LINE
  8
0
 10
74.073
 20
-10.3532
 11
73.7227
 21
-10.2145
  0
LINE
  8
0
 10
73.7227
 20
-10.2145
 11
73.3925
 21
-10.033
  0
LINE
  8
0
 10
73.3925
 20
-10.033
 11
73.0877
 21
-9.81154
  0
LINE
  8
0
 10
73.0877
 20
-9.81154
 11
72.8131
 21
-9.55363
  0
LINE
  8
0
 10
72.8131
 20
-9.55363
 11
72.573
 21
-9.26335
  0
LINE
  8
0
 10
72.573
 20
-9.26335
 11
72.3711
 21
-8.94525
  0
LINE
  8
0
 10
72.3711
 20
-8.94525
 11
72.2107
 21
-8.60437
  0
LINE
  8
0
 10
72.2107
 20
-8.60437
 11
72.0943
 21
-8.24606
  0
LINE
  8
0
 10
72.0943
 20
-8.24606
 11
72.0237
 21
-7.87599
  0
LINE
  8
0
 10
72.0237
 20
-7.87599
 11
72
 21
-7.5
  0
LINE
  8
0
 10
72
 20
-7.5
 11
72.0237
 21
-7.12399
  0
LINE
  8
0
 10
72.0237
 20
-7.12399
 11
72.0943
 21
-6.75392
  0
LINE
  8
0
 10
72.0943
 20
-6.75392
 11
72.2107
 21
-6.39561
  0
LINE
  8
0
 10
72.2107
 20
-6.39561
 11
72.3711
 21
-6.05473
  0
LINE
  8
0
 10
72.3711
 20
-6.05473
 11
72.573
 21
-5.73663
  0
LINE
  8
0
 10
72.573
 20
-5.73663
 11
72.8131
 21
-5.44635
  0
LINE
  8
0
 10
72.8131
 20
-5.44635
 11
73.0877
 21
-5.18845
  0
LINE
  8
0
 10
73.0877
 20
-5.18845
 11
73.3925
 21
-4.96701
  0
LINE
  8
0
 10
73.3925
 20
-4.96701
 11
73.7227
 21
-4.78551
  0
LINE
  8
0
 10
73.7227
 20
-4.78551
 11
74.073
 21
-4.64682
  0
LINE
  8
0
 10
74.073
 20
-4.64682
 11
74.4379
 21
-4.55313
  0
LINE
  8
0
 10
74.4379
 20
-4.55313
 11
74.8116
 21
-4.50591
  0
LINE
  8
0
 10
74.8116
 20
-4.50591
 11
75.1884
 21
-4.50591
  0
LINE
  8
0
 10
75.1884
 20
-4.50591
 11
75.5621
 21
-4.55313
  0
LINE
  8
0
 10
75.5621
 20
-4.55313
 11
75.927
 21
-4.64682
  0
LINE
  8
0
 10
75.927
 20
-4.64682
 11
76.2773
 21
-4.78551
  0
LINE
  8
0
 10
76.2773
 20
-4.78551
 11
76.6075
 21
-4.96701
  0
LINE
  8
0
 10
76.6075
 20
-4.96701
 11
76.9123
 21
-5.18845
  0
LINE
  8
0
 10
76.9123
 20
-5.18845
 11
77.1869
 21
-5.44635
  0
LINE
  8
0
 10
77.1869
 20
-5.44635
 11
77.427
 21
-5.73663
  0
LINE
  8
0
 10
77.427
 20
-5.73663
 11
77.6289
 21
-6.05473
  0
LINE
  8
0
 10
77.6289
 20
-6.05473
 11
77.7893
 21
-6.39561
  0
LINE
  8
0
 10
77.7893
 20
-6.39561
 11
77.9057
 21
-6.75392
  0
LINE
  8
0
 10
77.9057
 20
-6.75392
 11
77.9763
 21
-7.12399
  0
LINE
  8
0
 10
77.9763
 20
-7.12399
 11
78
 21
-7.5
  0
LINE
  8
0
 10
78
 20
-7.5
 11
77.9763
 21
-7.87599
  0
LINE
  8
0
 10
77.9763
 20
-7.87599
 11
77.9057
 21
-8.24606
  0
LINE
  8
0
 10
77.9057
 20
-8.24606
 11
77.7893
 21
-8.60437
  0
LINE
  8
0
 10
77.7893
 20
-8.60437
 11
77.6289
 21
-8.94525
  0
LINE
  8
0
 10
77.6289
 20
-8.94525
 11
77.427
 21
-9.26335
  0
LINE
  8
0
 10
77.427
 20
-9.26335
 11
77.1869
 21
-9.55363
  0
LINE
  8
0
 10
77.1869
 20
-9.55363
 11
76.9123
 21
-9.81154
  0
LINE
  8
0
 10
76.9123
 20
-9.81154
 11
76.6075
 21
-10.033
  0
LINE
  8
0
 10
76.6075
 20
-10.033
 11
76.2773
 21
-10.2145
  0
LINE
  8
0
 10
76.2773
 20
-10.2145
 11
75.927
 21
-10.3532
  0
LINE
  8
0
 10
75.927
 20
-10.3532
 11
75.5621
 21
-10.4469
  0
LINE
  8
0
 10
75.5621
 20
-10.4469
 11
75.1884
 21
-10.4941
  0
LINE
  8
0
 10
75.1884
 20
-10.4941
 11
74.8116
 21
-10.4941
  0
LINE
  8
0
 10
89.8116
 20
-10.4941
 11
89.4379
 21
-10.4469
  0
LINE
  8
0
 10
89.4379
 20
-10.4469
 11
89.073
 21
-10.3532
  0
LINE
  8
0
 10
89.073
 20
-10.3532
 11
88.7227
 21
-10.2145
  0
LINE
  8
0
 10
88.7227
 20
-10.2145
 11
88.3925
 21
-10.033
  0
LINE
  8
0
 10
88.3925
 20
-10.033
 11
88.0877
 21
-9.81154
  0
LINE
  8
0
 10
88.0877
 20
-9.81154
 11
87.8131
 21
-9.55363
  0
LINE
  8
0
 10
87.8131
 20
-9.55363
 11
87.573
 21
-9.26335
  0
LINE
  8
0
 10
87.573
 20
-9.26335
 11
87.3711
 21
-8.94525
  0
LINE
  8
0
 10
87.3711
 20
-8.94525
 11
87.2107
 21
-8.60437
  0
LINE
  8
0
 10
87.2107
 20
-8.60437
 11
87.0943
 21
-8.24606
  0
LINE
  8
0
 10
87.0943
 20
-8.24606
 11
87.0237
 21
-7.87599
  0
LINE
  8
0
 10
87.0237
 20
-7.87599
 11
87
 21
-7.5
  0
LINE
  8
0
 10
87
 20
-7.5
 11
87.0237
 21
-7.12399
  0
LINE
  8
0
 10
87.0237
 20
-7.12399
 11
87.0943
 21
-6.75392
  0
LINE
  8
0
 10
87.0943
 20
-6.75392
 11
87.2107
 21
-6.39561
  0
LINE
  8
0
 10
87.2107
 20
-6.39561
 11
87.3711
 21
-6.05473
  0
LINE
  8
0
 10
87.3711
 20
-6.05473
 11
87.573
 21
-5.73663
  0
LINE
  8
0
 10
87.573
 20
-5.73663
 11
87.8131
 21
-5.44635
  0
LINE
  8
0
 10
87.8131
 20
-5.44635
 11
88.0877
 21
-5.18845
  0
LINE
  8
0
 10
88.0877
 20
-5.18845
 11
88.3925
 21
-4.96701
  0
LINE
  8
0
 10
88.3925
 20
-4.96701
 11
88.7227
 21
-4.78551
  0
LINE
  8
0
 10
88.7227
 20
-4.78551
 11
89.073
 21
-4.64682
  0
LINE
  8
0
 10
89.073
 20
-4.64682
 11
89.4379
 21
-4.55313
  0
LINE
  8
0
 10
89.4379
 20
-4.55313
 11
89.8116
 21
-4.50591
  0
LINE
  8
0
 10
89.8116
 20
-4.50591
 11
90.1884
 21
-4.50591
  0
LINE
  8
0
 10
90.1884
 20
-4.50591
 11
90.5621
 21
-4.55313
  0
LINE
  8
0
 10
90.5621
 20
-4.55313
 11
90.927
 21
-4.64682
  0
LINE
  8
0
 10
90.927
 20
-4.64682
 11
91.2773
 21
-4.78551
  0
LINE
  8
0
 10
91.2773
 20
-4.78551
 11
91.6075
 21
-4.96701
  0
LINE
  8
0
 10
91.6075
 20
-4.96701
 11
91.9123
 21
-5.18845
  0
LINE
  8
0
 10
91.9123
 20
-5.18845
 11
92.1869
 21
-5.44635
  0
LINE
  8
0
 10
92.1869
 20
-5.44635
 11
92.427
 21
-5.73663
  0
LINE
  8
0
 10
92.427
 20
-5.73663
 11
92.6289
 21
-6.05473
  0
LINE
  8
0
 10
92.6289
 20
-6.05473
 11
92.7893
 21
-6.39561
  0
LINE
  8
0
 10
92.7893
 20
-6.39561
 11
92.9057
 21
-6.75392
  0
LINE
  8
0
 10
92.9057
 20
-6.75392
 11
92.9763
 21
-7.12399
  0
LINE
  8
0
 10
92.9763
 20
-7.12399
 11
93
 21
-7.5
  0
LINE
  8
0
 10
93
 20
-7.5
 11
92.9763
 21
-7.87599
  0
LINE
  8
0
 10
92.9763
 20
-7.87599
 11
92.9057
 21
-8.24606
  0
LINE
  8
0
 10
92.9057
 20
-8.24606
 11
92.7893
 21
-8.60437
  0
LINE
  8
0
 10
92.7893
 20
-8.60437
 11
92.6289
 21
-8.94525
  0
LINE
  8
0
 10
92.6289
 20
-8.94525
 11
92.427
 21
-9.26335
  0
LINE
  8
0
 10
92.427
 20
-9.26335
 11
92.1869
 21
-9.55363
  0
LINE
  8
0
 10
92.1869
 20
-9.55363
 11
91.9123
 21
-9.81154
  0
LINE
  8
0
 10
91.9123
 20
-9.81154
 11
91.6075
 21
-10.033
  0
LINE
  8
0
 10
91.6075
 20
-10.033
 11
91.2773
 21
-10.2145
  0
LINE
  8
0
 10
91.2773
 20
-10.2145
 11
90.927
 21
-10.3532
  0
LINE
  8
0
 10
90.927
 20
-10.3532
 11
90.5621
 21
-10.4469
  0
LINE
  8
0
 10
90.5621
 20
-10.4469
 11
90.1884
 21
-10.4941
  0
LINE
  8
0
 10
90.1884
 20
-10.4941
 11
89.8116
 21
-10.4941
  0
ENDSEC
  0
SECTION
  2
OBJECTS
  0
DICTIONARY
  0
ENDSEC
  0
EOF
