solid OpenSCAD_Model
  facet normal -0.844175 -0.536068 0
    outer loop
      vertex -147.371 1.44526 0
      vertex -147.573 1.76336 9
      vertex -147.573 1.76336 0
    endloop
  endfacet
  facet normal -0.844175 -0.536068 0
    outer loop
      vertex -147.573 1.76336 9
      vertex -147.371 1.44526 0
      vertex -147.371 1.44526 9
    endloop
  endfacet
  facet normal -0.368389 -0.929672 0
    outer loop
      vertex -149.073 2.85317 0
      vertex -148.723 2.71448 9
      vertex -149.073 2.85317 9
    endloop
  endfacet
  facet normal -0.368389 -0.929672 -0
    outer loop
      vertex -148.723 2.71448 9
      vertex -149.073 2.85317 0
      vertex -148.723 2.71448 0
    endloop
  endfacet
  facet normal 0.368389 -0.929672 0
    outer loop
      vertex -151.277 2.71448 0
      vertex -150.927 2.85317 9
      vertex -151.277 2.71448 9
    endloop
  endfacet
  facet normal 0.368389 -0.929672 0
    outer loop
      vertex -150.927 2.85317 9
      vertex -151.277 2.71448 0
      vertex -150.927 2.85317 0
    endloop
  endfacet
  facet normal 0.905247 -0.424886 0
    outer loop
      vertex -152.789 1.10437 9
      vertex -152.629 1.44526 0
      vertex -152.629 1.44526 9
    endloop
  endfacet
  facet normal 0.905247 -0.424886 0
    outer loop
      vertex -152.629 1.44526 0
      vertex -152.789 1.10437 9
      vertex -152.789 1.10437 0
    endloop
  endfacet
  facet normal -0.982577 0.185858 0
    outer loop
      vertex -147.094 -0.746069 0
      vertex -147.024 -0.375999 9
      vertex -147.024 -0.375999 0
    endloop
  endfacet
  facet normal -0.982577 0.185858 0
    outer loop
      vertex -147.024 -0.375999 9
      vertex -147.094 -0.746069 0
      vertex -147.094 -0.746069 9
    endloop
  endfacet
  facet normal -0.684065 -0.729421 0
    outer loop
      vertex -148.088 2.31154 0
      vertex -147.813 2.05364 9
      vertex -148.088 2.31154 9
    endloop
  endfacet
  facet normal -0.684065 -0.729421 -0
    outer loop
      vertex -147.813 2.05364 9
      vertex -148.088 2.31154 0
      vertex -147.813 2.05364 0
    endloop
  endfacet
  facet normal 0 -1 0
    outer loop
      vertex -150.188 2.99408 0
      vertex -149.812 2.99408 9
      vertex -150.188 2.99408 9
    endloop
  endfacet
  facet normal 0 -1 -0
    outer loop
      vertex -149.812 2.99408 9
      vertex -150.188 2.99408 0
      vertex -149.812 2.99408 0
    endloop
  endfacet
  facet normal -0.587515 -0.809213 0
    outer loop
      vertex -148.393 2.53298 0
      vertex -148.088 2.31154 9
      vertex -148.393 2.53298 9
    endloop
  endfacet
  facet normal -0.587515 -0.809213 -0
    outer loop
      vertex -148.088 2.31154 9
      vertex -148.393 2.53298 0
      vertex -148.088 2.31154 0
    endloop
  endfacet
  facet normal 0.982577 -0.185858 0
    outer loop
      vertex -152.976 0.375999 9
      vertex -152.906 0.746069 0
      vertex -152.906 0.746069 9
    endloop
  endfacet
  facet normal 0.982577 -0.185858 0
    outer loop
      vertex -152.906 0.746069 0
      vertex -152.976 0.375999 9
      vertex -152.976 0.375999 0
    endloop
  endfacet
  facet normal 0.770696 -0.637202 0
    outer loop
      vertex -152.427 1.76336 9
      vertex -152.187 2.05364 0
      vertex -152.187 2.05364 9
    endloop
  endfacet
  facet normal 0.770696 -0.637202 0
    outer loop
      vertex -152.187 2.05364 0
      vertex -152.427 1.76336 9
      vertex -152.427 1.76336 0
    endloop
  endfacet
  facet normal 0.248625 -0.9686 0
    outer loop
      vertex -150.927 2.85317 0
      vertex -150.562 2.94686 9
      vertex -150.927 2.85317 9
    endloop
  endfacet
  facet normal 0.248625 -0.9686 0
    outer loop
      vertex -150.562 2.94686 9
      vertex -150.927 2.85317 0
      vertex -150.562 2.94686 0
    endloop
  endfacet
  facet normal 0.684065 -0.729421 0
    outer loop
      vertex -152.187 2.05364 0
      vertex -151.912 2.31154 9
      vertex -152.187 2.05364 9
    endloop
  endfacet
  facet normal 0.684065 -0.729421 0
    outer loop
      vertex -151.912 2.31154 9
      vertex -152.187 2.05364 0
      vertex -151.912 2.31154 0
    endloop
  endfacet
  facet normal -0.997969 -0.0637003 0
    outer loop
      vertex -147 0 0
      vertex -147.024 0.375999 9
      vertex -147.024 0.375999 0
    endloop
  endfacet
  facet normal -0.997969 -0.0637003 0
    outer loop
      vertex -147.024 0.375999 9
      vertex -147 0 0
      vertex -147 0 9
    endloop
  endfacet
  facet normal -0.481919 0.876216 0
    outer loop
      vertex -148.393 -2.53298 0
      vertex -148.723 -2.71448 9
      vertex -148.393 -2.53298 9
    endloop
  endfacet
  facet normal -0.481919 0.876216 0
    outer loop
      vertex -148.723 -2.71448 9
      vertex -148.393 -2.53298 0
      vertex -148.723 -2.71448 0
    endloop
  endfacet
  facet normal -0.770696 -0.637202 0
    outer loop
      vertex -147.573 1.76336 0
      vertex -147.813 2.05364 9
      vertex -147.813 2.05364 0
    endloop
  endfacet
  facet normal -0.770696 -0.637202 0
    outer loop
      vertex -147.813 2.05364 9
      vertex -147.573 1.76336 0
      vertex -147.573 1.76336 9
    endloop
  endfacet
  facet normal -0.248625 -0.9686 0
    outer loop
      vertex -149.438 2.94686 0
      vertex -149.073 2.85317 9
      vertex -149.438 2.94686 9
    endloop
  endfacet
  facet normal -0.248625 -0.9686 -0
    outer loop
      vertex -149.073 2.85317 9
      vertex -149.438 2.94686 0
      vertex -149.073 2.85317 0
    endloop
  endfacet
  facet normal -0.125262 -0.992124 0
    outer loop
      vertex -149.812 2.99408 0
      vertex -149.438 2.94686 9
      vertex -149.812 2.99408 9
    endloop
  endfacet
  facet normal -0.125262 -0.992124 -0
    outer loop
      vertex -149.438 2.94686 9
      vertex -149.812 2.99408 0
      vertex -149.438 2.94686 0
    endloop
  endfacet
  facet normal -0.481919 -0.876216 0
    outer loop
      vertex -148.723 2.71448 0
      vertex -148.393 2.53298 9
      vertex -148.723 2.71448 9
    endloop
  endfacet
  facet normal -0.481919 -0.876216 -0
    outer loop
      vertex -148.393 2.53298 9
      vertex -148.723 2.71448 0
      vertex -148.393 2.53298 0
    endloop
  endfacet
  facet normal 0.997969 -0.0637003 0
    outer loop
      vertex -153 0 9
      vertex -152.976 0.375999 0
      vertex -152.976 0.375999 9
    endloop
  endfacet
  facet normal 0.997969 -0.0637003 0
    outer loop
      vertex -152.976 0.375999 0
      vertex -153 0 9
      vertex -153 0 0
    endloop
  endfacet
  facet normal 0 0 1
    outer loop
      vertex 152.314 6.99013 9
      vertex 157 2 9
      vertex 156.961 2.62667 9
    endloop
  endfacet
  facet normal 0 0 1
    outer loop
      vertex 157 2 9
      vertex 152.314 6.99013 9
      vertex 157 -2 9
    endloop
  endfacet
  facet normal 0 0 1
    outer loop
      vertex 152.314 6.99013 9
      vertex 156.961 2.62667 9
      vertex 156.843 3.24345 9
    endloop
  endfacet
  facet normal 0 0 1
    outer loop
      vertex 152.314 -6.99013 9
      vertex 157 -2 9
      vertex 152.314 6.99013 9
    endloop
  endfacet
  facet normal 0 0 1
    outer loop
      vertex 152.314 6.99013 9
      vertex 156.843 3.24345 9
      vertex 156.649 3.84062 9
    endloop
  endfacet
  facet normal 0 0 1
    outer loop
      vertex 157 -2 9
      vertex 152.314 -6.99013 9
      vertex 156.961 -2.62667 9
    endloop
  endfacet
  facet normal 0 0 1
    outer loop
      vertex 152.314 6.99013 9
      vertex 156.649 3.84062 9
      vertex 156.382 4.40877 9
    endloop
  endfacet
  facet normal 0 0 1
    outer loop
      vertex 156.961 -2.62667 9
      vertex 152.314 -6.99013 9
      vertex 156.843 -3.24345 9
    endloop
  endfacet
  facet normal 0 0 1
    outer loop
      vertex 152.314 6.99013 9
      vertex 156.382 4.40877 9
      vertex 156.045 4.93893 9
    endloop
  endfacet
  facet normal 0 0 1
    outer loop
      vertex 156.843 -3.24345 9
      vertex 152.314 -6.99013 9
      vertex 156.649 -3.84062 9
    endloop
  endfacet
  facet normal 0 0 1
    outer loop
      vertex 152.314 6.99013 9
      vertex 156.045 4.93893 9
      vertex 155.645 5.42274 9
    endloop
  endfacet
  facet normal 0 0 1
    outer loop
      vertex 156.649 -3.84062 9
      vertex 152.314 -6.99013 9
      vertex 156.382 -4.40877 9
    endloop
  endfacet
  facet normal 0 0 1
    outer loop
      vertex 152.314 6.99013 9
      vertex 155.645 5.42274 9
      vertex 155.187 5.85257 9
    endloop
  endfacet
  facet normal 0 0 1
    outer loop
      vertex 156.382 -4.40877 9
      vertex 152.314 -6.99013 9
      vertex 156.045 -4.93893 9
    endloop
  endfacet
  facet normal 0 0 1
    outer loop
      vertex 152.314 6.99013 9
      vertex 155.187 5.85257 9
      vertex 154.679 6.22164 9
    endloop
  endfacet
  facet normal 0 0 1
    outer loop
      vertex 156.045 -4.93893 9
      vertex 152.314 -6.99013 9
      vertex 155.645 -5.42274 9
    endloop
  endfacet
  facet normal 0 0 1
    outer loop
      vertex 152.314 6.99013 9
      vertex 154.679 6.22164 9
      vertex 154.129 6.52413 9
    endloop
  endfacet
  facet normal 0 0 1
    outer loop
      vertex 155.645 -5.42274 9
      vertex 152.314 -6.99013 9
      vertex 155.187 -5.85257 9
    endloop
  endfacet
  facet normal 0 0 1
    outer loop
      vertex 152.314 6.99013 9
      vertex 154.129 6.52413 9
      vertex 153.545 6.75528 9
    endloop
  endfacet
  facet normal 0 0 1
    outer loop
      vertex 155.187 -5.85257 9
      vertex 152.314 -6.99013 9
      vertex 154.679 -6.22164 9
    endloop
  endfacet
  facet normal 0 0 1
    outer loop
      vertex 152.314 6.99013 9
      vertex 153.545 6.75528 9
      vertex 152.937 6.91144 9
    endloop
  endfacet
  facet normal 0 0 1
    outer loop
      vertex 154.679 -6.22164 9
      vertex 152.314 -6.99013 9
      vertex 154.129 -6.52413 9
    endloop
  endfacet
  facet normal 0 0 1
    outer loop
      vertex 154.129 -6.52413 9
      vertex 152.314 -6.99013 9
      vertex 153.545 -6.75528 9
    endloop
  endfacet
  facet normal 0 0 1
    outer loop
      vertex 153.545 -6.75528 9
      vertex 152.314 -6.99013 9
      vertex 152.937 -6.91144 9
    endloop
  endfacet
  facet normal 0 0 1
    outer loop
      vertex 152.314 6.99013 9
      vertex -147 0 9
      vertex 152.314 -6.99013 9
    endloop
  endfacet
  facet normal 0 0 1
    outer loop
      vertex 152.314 6.99013 9
      vertex -147.024 0.375999 9
      vertex -147 0 9
    endloop
  endfacet
  facet normal 0 0 1
    outer loop
      vertex 152.314 6.99013 9
      vertex -147.094 0.746069 9
      vertex -147.024 0.375999 9
    endloop
  endfacet
  facet normal 0 0 1
    outer loop
      vertex 152.314 6.99013 9
      vertex -147.211 1.10437 9
      vertex -147.094 0.746069 9
    endloop
  endfacet
  facet normal 0 0 1
    outer loop
      vertex 152.314 6.99013 9
      vertex -147.371 1.44526 9
      vertex -147.211 1.10437 9
    endloop
  endfacet
  facet normal 0 0 1
    outer loop
      vertex 152.314 6.99013 9
      vertex -147.573 1.76336 9
      vertex -147.371 1.44526 9
    endloop
  endfacet
  facet normal 0 0 1
    outer loop
      vertex 152.314 6.99013 9
      vertex -147.813 2.05364 9
      vertex -147.573 1.76336 9
    endloop
  endfacet
  facet normal -0 0 1
    outer loop
      vertex -152.314 6.99013 9
      vertex -147.813 2.05364 9
      vertex 152.314 6.99013 9
    endloop
  endfacet
  facet normal 0 0 1
    outer loop
      vertex -147.813 2.05364 9
      vertex -152.314 6.99013 9
      vertex -148.088 2.31154 9
    endloop
  endfacet
  facet normal 0 0 1
    outer loop
      vertex -148.088 2.31154 9
      vertex -152.314 6.99013 9
      vertex -148.393 2.53298 9
    endloop
  endfacet
  facet normal 0 0 1
    outer loop
      vertex -148.393 2.53298 9
      vertex -152.314 6.99013 9
      vertex -148.723 2.71448 9
    endloop
  endfacet
  facet normal 0 0 1
    outer loop
      vertex -148.723 2.71448 9
      vertex -152.314 6.99013 9
      vertex -149.073 2.85317 9
    endloop
  endfacet
  facet normal 0 0 1
    outer loop
      vertex -149.073 2.85317 9
      vertex -152.314 6.99013 9
      vertex -149.438 2.94686 9
    endloop
  endfacet
  facet normal 0 0 1
    outer loop
      vertex -149.438 2.94686 9
      vertex -152.314 6.99013 9
      vertex -149.812 2.99408 9
    endloop
  endfacet
  facet normal 0 0 1
    outer loop
      vertex -149.812 2.99408 9
      vertex -152.314 6.99013 9
      vertex -150.188 2.99408 9
    endloop
  endfacet
  facet normal 0 0 1
    outer loop
      vertex -152.314 6.99013 9
      vertex -150.562 2.94686 9
      vertex -150.188 2.99408 9
    endloop
  endfacet
  facet normal 0 0 1
    outer loop
      vertex -152.314 6.99013 9
      vertex -150.927 2.85317 9
      vertex -150.562 2.94686 9
    endloop
  endfacet
  facet normal 0 0 1
    outer loop
      vertex -152.314 6.99013 9
      vertex -151.277 2.71448 9
      vertex -150.927 2.85317 9
    endloop
  endfacet
  facet normal -0 0 1
    outer loop
      vertex -152.937 6.91144 9
      vertex -151.277 2.71448 9
      vertex -152.314 6.99013 9
    endloop
  endfacet
  facet normal 0 0 1
    outer loop
      vertex -151.277 2.71448 9
      vertex -152.937 6.91144 9
      vertex -151.607 2.53298 9
    endloop
  endfacet
  facet normal -0 0 1
    outer loop
      vertex -153.545 6.75528 9
      vertex -151.607 2.53298 9
      vertex -152.937 6.91144 9
    endloop
  endfacet
  facet normal -0 0 1
    outer loop
      vertex -154.129 6.52413 9
      vertex -151.607 2.53298 9
      vertex -153.545 6.75528 9
    endloop
  endfacet
  facet normal 0 0 1
    outer loop
      vertex -151.607 2.53298 9
      vertex -154.129 6.52413 9
      vertex -151.912 2.31154 9
    endloop
  endfacet
  facet normal -0 0 1
    outer loop
      vertex -154.679 6.22164 9
      vertex -151.912 2.31154 9
      vertex -154.129 6.52413 9
    endloop
  endfacet
  facet normal -0 0 1
    outer loop
      vertex -155.187 5.85257 9
      vertex -151.912 2.31154 9
      vertex -154.679 6.22164 9
    endloop
  endfacet
  facet normal 0 0 1
    outer loop
      vertex -151.912 2.31154 9
      vertex -155.187 5.85257 9
      vertex -152.187 2.05364 9
    endloop
  endfacet
  facet normal -0 0 1
    outer loop
      vertex -155.645 5.42274 9
      vertex -152.187 2.05364 9
      vertex -155.187 5.85257 9
    endloop
  endfacet
  facet normal -0 0 1
    outer loop
      vertex -156.045 4.93893 9
      vertex -152.187 2.05364 9
      vertex -155.645 5.42274 9
    endloop
  endfacet
  facet normal 0 0 1
    outer loop
      vertex -152.187 2.05364 9
      vertex -156.045 4.93893 9
      vertex -152.427 1.76336 9
    endloop
  endfacet
  facet normal -0 0 1
    outer loop
      vertex -147.024 -0.375999 9
      vertex 152.314 -6.99013 9
      vertex -147 0 9
    endloop
  endfacet
  facet normal -0 0 1
    outer loop
      vertex -147.094 -0.746069 9
      vertex 152.314 -6.99013 9
      vertex -147.024 -0.375999 9
    endloop
  endfacet
  facet normal -0 0 1
    outer loop
      vertex -147.211 -1.10437 9
      vertex 152.314 -6.99013 9
      vertex -147.094 -0.746069 9
    endloop
  endfacet
  facet normal -0 0 1
    outer loop
      vertex -147.371 -1.44526 9
      vertex 152.314 -6.99013 9
      vertex -147.211 -1.10437 9
    endloop
  endfacet
  facet normal -0 0 1
    outer loop
      vertex -147.573 -1.76336 9
      vertex 152.314 -6.99013 9
      vertex -147.371 -1.44526 9
    endloop
  endfacet
  facet normal -0 0 1
    outer loop
      vertex -147.813 -2.05364 9
      vertex 152.314 -6.99013 9
      vertex -147.573 -1.76336 9
    endloop
  endfacet
  facet normal 0 0 1
    outer loop
      vertex -152.314 -6.99013 9
      vertex -147.813 -2.05364 9
      vertex -148.088 -2.31154 9
    endloop
  endfacet
  facet normal 0 0 1
    outer loop
      vertex -152.314 -6.99013 9
      vertex -148.088 -2.31154 9
      vertex -148.393 -2.53298 9
    endloop
  endfacet
  facet normal 0 0 1
    outer loop
      vertex -152.314 -6.99013 9
      vertex -148.393 -2.53298 9
      vertex -148.723 -2.71448 9
    endloop
  endfacet
  facet normal 0 0 1
    outer loop
      vertex -152.314 -6.99013 9
      vertex -148.723 -2.71448 9
      vertex -149.073 -2.85317 9
    endloop
  endfacet
  facet normal 0 0 1
    outer loop
      vertex -152.314 -6.99013 9
      vertex -149.073 -2.85317 9
      vertex -149.438 -2.94686 9
    endloop
  endfacet
  facet normal 0 0 1
    outer loop
      vertex -152.314 -6.99013 9
      vertex -149.438 -2.94686 9
      vertex -149.812 -2.99408 9
    endloop
  endfacet
  facet normal 0 0 1
    outer loop
      vertex -152.314 -6.99013 9
      vertex -149.812 -2.99408 9
      vertex -150.188 -2.99408 9
    endloop
  endfacet
  facet normal 0 0 1
    outer loop
      vertex -147.813 -2.05364 9
      vertex -152.314 -6.99013 9
      vertex 152.314 -6.99013 9
    endloop
  endfacet
  facet normal 0 0 1
    outer loop
      vertex -150.562 -2.94686 9
      vertex -152.314 -6.99013 9
      vertex -150.188 -2.99408 9
    endloop
  endfacet
  facet normal 0 0 1
    outer loop
      vertex -150.927 -2.85317 9
      vertex -152.314 -6.99013 9
      vertex -150.562 -2.94686 9
    endloop
  endfacet
  facet normal 0 0 1
    outer loop
      vertex -151.277 -2.71448 9
      vertex -152.314 -6.99013 9
      vertex -150.927 -2.85317 9
    endloop
  endfacet
  facet normal 0 0 1
    outer loop
      vertex -152.937 -6.91144 9
      vertex -151.277 -2.71448 9
      vertex -151.607 -2.53298 9
    endloop
  endfacet
  facet normal 0 0 1
    outer loop
      vertex -154.129 -6.52413 9
      vertex -151.607 -2.53298 9
      vertex -151.912 -2.31154 9
    endloop
  endfacet
  facet normal 0 0 1
    outer loop
      vertex -155.187 -5.85257 9
      vertex -151.912 -2.31154 9
      vertex -152.187 -2.05364 9
    endloop
  endfacet
  facet normal 0 0 1
    outer loop
      vertex -156.045 -4.93893 9
      vertex -152.187 -2.05364 9
      vertex -152.427 -1.76336 9
    endloop
  endfacet
  facet normal 0 0 1
    outer loop
      vertex -156.649 -3.84062 9
      vertex -152.427 -1.76336 9
      vertex -152.629 -1.44526 9
    endloop
  endfacet
  facet normal 0 0 1
    outer loop
      vertex -156.961 -2.62667 9
      vertex -152.629 -1.44526 9
      vertex -152.789 -1.10437 9
    endloop
  endfacet
  facet normal 0 0 1
    outer loop
      vertex -157 -2 9
      vertex -152.789 -1.10437 9
      vertex -152.906 -0.746069 9
    endloop
  endfacet
  facet normal 0 0 1
    outer loop
      vertex -151.277 -2.71448 9
      vertex -152.937 -6.91144 9
      vertex -152.314 -6.99013 9
    endloop
  endfacet
  facet normal 0 0 1
    outer loop
      vertex -157 -2 9
      vertex -152.906 -0.746069 9
      vertex -152.976 -0.375999 9
    endloop
  endfacet
  facet normal 0 0 1
    outer loop
      vertex -157 -2 9
      vertex -152.976 -0.375999 9
      vertex -153 0 9
    endloop
  endfacet
  facet normal -0 0 1
    outer loop
      vertex -156.382 4.40877 9
      vertex -152.427 1.76336 9
      vertex -156.045 4.93893 9
    endloop
  endfacet
  facet normal 0 0 1
    outer loop
      vertex -157 -2 9
      vertex -153 0 9
      vertex -157 2 9
    endloop
  endfacet
  facet normal -0 0 1
    outer loop
      vertex -156.649 3.84062 9
      vertex -152.427 1.76336 9
      vertex -156.382 4.40877 9
    endloop
  endfacet
  facet normal 0 0 1
    outer loop
      vertex -152.789 -1.10437 9
      vertex -157 -2 9
      vertex -156.961 -2.62667 9
    endloop
  endfacet
  facet normal 0 0 1
    outer loop
      vertex -152.427 1.76336 9
      vertex -156.649 3.84062 9
      vertex -152.629 1.44526 9
    endloop
  endfacet
  facet normal 0 0 1
    outer loop
      vertex -151.607 -2.53298 9
      vertex -153.545 -6.75528 9
      vertex -152.937 -6.91144 9
    endloop
  endfacet
  facet normal -0 0 1
    outer loop
      vertex -156.843 3.24345 9
      vertex -152.629 1.44526 9
      vertex -156.649 3.84062 9
    endloop
  endfacet
  facet normal 0 0 1
    outer loop
      vertex -151.607 -2.53298 9
      vertex -154.129 -6.52413 9
      vertex -153.545 -6.75528 9
    endloop
  endfacet
  facet normal -0 0 1
    outer loop
      vertex -156.961 2.62667 9
      vertex -152.629 1.44526 9
      vertex -156.843 3.24345 9
    endloop
  endfacet
  facet normal 0 0 1
    outer loop
      vertex -151.912 -2.31154 9
      vertex -154.679 -6.22164 9
      vertex -154.129 -6.52413 9
    endloop
  endfacet
  facet normal 0 0 1
    outer loop
      vertex -152.629 1.44526 9
      vertex -156.961 2.62667 9
      vertex -152.789 1.10437 9
    endloop
  endfacet
  facet normal 0 0 1
    outer loop
      vertex -151.912 -2.31154 9
      vertex -155.187 -5.85257 9
      vertex -154.679 -6.22164 9
    endloop
  endfacet
  facet normal -0 0 1
    outer loop
      vertex -157 2 9
      vertex -152.789 1.10437 9
      vertex -156.961 2.62667 9
    endloop
  endfacet
  facet normal 0 0 1
    outer loop
      vertex -152.187 -2.05364 9
      vertex -155.645 -5.42274 9
      vertex -155.187 -5.85257 9
    endloop
  endfacet
  facet normal 0 0 1
    outer loop
      vertex -152.789 1.10437 9
      vertex -157 2 9
      vertex -152.906 0.746069 9
    endloop
  endfacet
  facet normal 0 0 1
    outer loop
      vertex -152.187 -2.05364 9
      vertex -156.045 -4.93893 9
      vertex -155.645 -5.42274 9
    endloop
  endfacet
  facet normal 0 0 1
    outer loop
      vertex -152.906 0.746069 9
      vertex -157 2 9
      vertex -152.976 0.375999 9
    endloop
  endfacet
  facet normal 0 0 1
    outer loop
      vertex -152.427 -1.76336 9
      vertex -156.382 -4.40877 9
      vertex -156.045 -4.93893 9
    endloop
  endfacet
  facet normal 0 0 1
    outer loop
      vertex -152.976 0.375999 9
      vertex -157 2 9
      vertex -153 0 9
    endloop
  endfacet
  facet normal 0 0 1
    outer loop
      vertex -152.427 -1.76336 9
      vertex -156.649 -3.84062 9
      vertex -156.382 -4.40877 9
    endloop
  endfacet
  facet normal 0 0 1
    outer loop
      vertex -152.629 -1.44526 9
      vertex -156.843 -3.24345 9
      vertex -156.649 -3.84062 9
    endloop
  endfacet
  facet normal 0 0 1
    outer loop
      vertex -152.629 -1.44526 9
      vertex -156.961 -2.62667 9
      vertex -156.843 -3.24345 9
    endloop
  endfacet
  facet normal 0.950603 -0.310411 0
    outer loop
      vertex -152.906 0.746069 9
      vertex -152.789 1.10437 0
      vertex -152.789 1.10437 9
    endloop
  endfacet
  facet normal 0.950603 -0.310411 0
    outer loop
      vertex -152.789 1.10437 0
      vertex -152.906 0.746069 9
      vertex -152.906 0.746069 0
    endloop
  endfacet
  facet normal 0.844175 -0.536068 0
    outer loop
      vertex -152.629 1.44526 9
      vertex -152.427 1.76336 0
      vertex -152.427 1.76336 9
    endloop
  endfacet
  facet normal 0.844175 -0.536068 0
    outer loop
      vertex -152.427 1.76336 0
      vertex -152.629 1.44526 9
      vertex -152.629 1.44526 0
    endloop
  endfacet
  facet normal 0.125262 -0.992124 0
    outer loop
      vertex -150.562 2.94686 0
      vertex -150.188 2.99408 9
      vertex -150.562 2.94686 9
    endloop
  endfacet
  facet normal 0.125262 -0.992124 0
    outer loop
      vertex -150.188 2.99408 9
      vertex -150.562 2.94686 0
      vertex -150.188 2.99408 0
    endloop
  endfacet
  facet normal 0.587515 -0.809213 0
    outer loop
      vertex -151.912 2.31154 0
      vertex -151.607 2.53298 9
      vertex -151.912 2.31154 9
    endloop
  endfacet
  facet normal 0.587515 -0.809213 0
    outer loop
      vertex -151.607 2.53298 9
      vertex -151.912 2.31154 0
      vertex -151.607 2.53298 0
    endloop
  endfacet
  facet normal 0.481919 -0.876216 0
    outer loop
      vertex -151.607 2.53298 0
      vertex -151.277 2.71448 9
      vertex -151.607 2.53298 9
    endloop
  endfacet
  facet normal 0.481919 -0.876216 0
    outer loop
      vertex -151.277 2.71448 9
      vertex -151.607 2.53298 0
      vertex -151.277 2.71448 0
    endloop
  endfacet
  facet normal 0 1 -0
    outer loop
      vertex -149.812 -2.99408 0
      vertex -150.188 -2.99408 9
      vertex -149.812 -2.99408 9
    endloop
  endfacet
  facet normal 0 1 0
    outer loop
      vertex -150.188 -2.99408 9
      vertex -149.812 -2.99408 0
      vertex -150.188 -2.99408 0
    endloop
  endfacet
  facet normal 0 0 -1
    outer loop
      vertex 152.314 -6.99013 0
      vertex 157 -2 0
      vertex 156.961 -2.62667 0
    endloop
  endfacet
  facet normal -0 0 -1
    outer loop
      vertex 157 -2 0
      vertex 152.314 -6.99013 0
      vertex 157 2 0
    endloop
  endfacet
  facet normal 0 0 -1
    outer loop
      vertex 152.314 -6.99013 0
      vertex 156.961 -2.62667 0
      vertex 156.843 -3.24345 0
    endloop
  endfacet
  facet normal 0 0 -1
    outer loop
      vertex 152.314 6.99013 0
      vertex 157 2 0
      vertex 152.314 -6.99013 0
    endloop
  endfacet
  facet normal 0 0 -1
    outer loop
      vertex 152.314 -6.99013 0
      vertex 156.843 -3.24345 0
      vertex 156.649 -3.84062 0
    endloop
  endfacet
  facet normal 0 0 -1
    outer loop
      vertex 157 2 0
      vertex 152.314 6.99013 0
      vertex 156.961 2.62667 0
    endloop
  endfacet
  facet normal 0 0 -1
    outer loop
      vertex 152.314 -6.99013 0
      vertex 156.649 -3.84062 0
      vertex 156.382 -4.40877 0
    endloop
  endfacet
  facet normal 0 0 -1
    outer loop
      vertex 156.961 2.62667 0
      vertex 152.314 6.99013 0
      vertex 156.843 3.24345 0
    endloop
  endfacet
  facet normal 0 0 -1
    outer loop
      vertex 152.314 -6.99013 0
      vertex 156.382 -4.40877 0
      vertex 156.045 -4.93893 0
    endloop
  endfacet
  facet normal 0 0 -1
    outer loop
      vertex 156.843 3.24345 0
      vertex 152.314 6.99013 0
      vertex 156.649 3.84062 0
    endloop
  endfacet
  facet normal 0 0 -1
    outer loop
      vertex 152.314 -6.99013 0
      vertex 156.045 -4.93893 0
      vertex 155.645 -5.42274 0
    endloop
  endfacet
  facet normal 0 0 -1
    outer loop
      vertex 156.649 3.84062 0
      vertex 152.314 6.99013 0
      vertex 156.382 4.40877 0
    endloop
  endfacet
  facet normal 0 0 -1
    outer loop
      vertex 152.314 -6.99013 0
      vertex 155.645 -5.42274 0
      vertex 155.187 -5.85257 0
    endloop
  endfacet
  facet normal 0 0 -1
    outer loop
      vertex 156.382 4.40877 0
      vertex 152.314 6.99013 0
      vertex 156.045 4.93893 0
    endloop
  endfacet
  facet normal 0 0 -1
    outer loop
      vertex 152.314 -6.99013 0
      vertex 155.187 -5.85257 0
      vertex 154.679 -6.22164 0
    endloop
  endfacet
  facet normal 0 0 -1
    outer loop
      vertex 156.045 4.93893 0
      vertex 152.314 6.99013 0
      vertex 155.645 5.42274 0
    endloop
  endfacet
  facet normal 0 0 -1
    outer loop
      vertex 152.314 -6.99013 0
      vertex 154.679 -6.22164 0
      vertex 154.129 -6.52413 0
    endloop
  endfacet
  facet normal 0 0 -1
    outer loop
      vertex 155.645 5.42274 0
      vertex 152.314 6.99013 0
      vertex 155.187 5.85257 0
    endloop
  endfacet
  facet normal 0 0 -1
    outer loop
      vertex 152.314 -6.99013 0
      vertex 154.129 -6.52413 0
      vertex 153.545 -6.75528 0
    endloop
  endfacet
  facet normal 0 0 -1
    outer loop
      vertex 155.187 5.85257 0
      vertex 152.314 6.99013 0
      vertex 154.679 6.22164 0
    endloop
  endfacet
  facet normal 0 0 -1
    outer loop
      vertex 152.314 -6.99013 0
      vertex 153.545 -6.75528 0
      vertex 152.937 -6.91144 0
    endloop
  endfacet
  facet normal 0 0 -1
    outer loop
      vertex 154.679 6.22164 0
      vertex 152.314 6.99013 0
      vertex 154.129 6.52413 0
    endloop
  endfacet
  facet normal 0 0 -1
    outer loop
      vertex 154.129 6.52413 0
      vertex 152.314 6.99013 0
      vertex 153.545 6.75528 0
    endloop
  endfacet
  facet normal 0 0 -1
    outer loop
      vertex 153.545 6.75528 0
      vertex 152.314 6.99013 0
      vertex 152.937 6.91144 0
    endloop
  endfacet
  facet normal 0 0 -1
    outer loop
      vertex 152.314 -6.99013 0
      vertex -147 0 0
      vertex 152.314 6.99013 0
    endloop
  endfacet
  facet normal 0 0 -1
    outer loop
      vertex 152.314 -6.99013 0
      vertex -147.024 -0.375999 0
      vertex -147 0 0
    endloop
  endfacet
  facet normal 0 0 -1
    outer loop
      vertex 152.314 -6.99013 0
      vertex -147.094 -0.746069 0
      vertex -147.024 -0.375999 0
    endloop
  endfacet
  facet normal 0 0 -1
    outer loop
      vertex 152.314 -6.99013 0
      vertex -147.211 -1.10437 0
      vertex -147.094 -0.746069 0
    endloop
  endfacet
  facet normal 0 0 -1
    outer loop
      vertex 152.314 -6.99013 0
      vertex -147.371 -1.44526 0
      vertex -147.211 -1.10437 0
    endloop
  endfacet
  facet normal 0 0 -1
    outer loop
      vertex 152.314 -6.99013 0
      vertex -147.573 -1.76336 0
      vertex -147.371 -1.44526 0
    endloop
  endfacet
  facet normal 0 0 -1
    outer loop
      vertex 152.314 -6.99013 0
      vertex -147.813 -2.05364 0
      vertex -147.573 -1.76336 0
    endloop
  endfacet
  facet normal 0 0 -1
    outer loop
      vertex -152.314 -6.99013 0
      vertex -147.813 -2.05364 0
      vertex 152.314 -6.99013 0
    endloop
  endfacet
  facet normal 0 0 -1
    outer loop
      vertex -147.813 -2.05364 0
      vertex -152.314 -6.99013 0
      vertex -148.088 -2.31154 0
    endloop
  endfacet
  facet normal 0 0 -1
    outer loop
      vertex -148.088 -2.31154 0
      vertex -152.314 -6.99013 0
      vertex -148.393 -2.53298 0
    endloop
  endfacet
  facet normal 0 0 -1
    outer loop
      vertex -148.393 -2.53298 0
      vertex -152.314 -6.99013 0
      vertex -148.723 -2.71448 0
    endloop
  endfacet
  facet normal 0 0 -1
    outer loop
      vertex -148.723 -2.71448 0
      vertex -152.314 -6.99013 0
      vertex -149.073 -2.85317 0
    endloop
  endfacet
  facet normal 0 0 -1
    outer loop
      vertex -149.073 -2.85317 0
      vertex -152.314 -6.99013 0
      vertex -149.438 -2.94686 0
    endloop
  endfacet
  facet normal 0 0 -1
    outer loop
      vertex -149.438 -2.94686 0
      vertex -152.314 -6.99013 0
      vertex -149.812 -2.99408 0
    endloop
  endfacet
  facet normal -0 0 -1
    outer loop
      vertex -149.812 -2.99408 0
      vertex -152.314 -6.99013 0
      vertex -150.188 -2.99408 0
    endloop
  endfacet
  facet normal 0 0 -1
    outer loop
      vertex -152.314 -6.99013 0
      vertex -150.562 -2.94686 0
      vertex -150.188 -2.99408 0
    endloop
  endfacet
  facet normal 0 0 -1
    outer loop
      vertex -152.314 -6.99013 0
      vertex -150.927 -2.85317 0
      vertex -150.562 -2.94686 0
    endloop
  endfacet
  facet normal 0 0 -1
    outer loop
      vertex -152.314 -6.99013 0
      vertex -151.277 -2.71448 0
      vertex -150.927 -2.85317 0
    endloop
  endfacet
  facet normal 0 0 -1
    outer loop
      vertex -152.937 -6.91144 0
      vertex -151.277 -2.71448 0
      vertex -152.314 -6.99013 0
    endloop
  endfacet
  facet normal -0 0 -1
    outer loop
      vertex -151.277 -2.71448 0
      vertex -152.937 -6.91144 0
      vertex -151.607 -2.53298 0
    endloop
  endfacet
  facet normal 0 0 -1
    outer loop
      vertex -153.545 -6.75528 0
      vertex -151.607 -2.53298 0
      vertex -152.937 -6.91144 0
    endloop
  endfacet
  facet normal 0 0 -1
    outer loop
      vertex -154.129 -6.52413 0
      vertex -151.607 -2.53298 0
      vertex -153.545 -6.75528 0
    endloop
  endfacet
  facet normal -0 0 -1
    outer loop
      vertex -151.607 -2.53298 0
      vertex -154.129 -6.52413 0
      vertex -151.912 -2.31154 0
    endloop
  endfacet
  facet normal 0 0 -1
    outer loop
      vertex -154.679 -6.22164 0
      vertex -151.912 -2.31154 0
      vertex -154.129 -6.52413 0
    endloop
  endfacet
  facet normal 0 0 -1
    outer loop
      vertex -155.187 -5.85257 0
      vertex -151.912 -2.31154 0
      vertex -154.679 -6.22164 0
    endloop
  endfacet
  facet normal -0 0 -1
    outer loop
      vertex -151.912 -2.31154 0
      vertex -155.187 -5.85257 0
      vertex -152.187 -2.05364 0
    endloop
  endfacet
  facet normal 0 0 -1
    outer loop
      vertex -155.645 -5.42274 0
      vertex -152.187 -2.05364 0
      vertex -155.187 -5.85257 0
    endloop
  endfacet
  facet normal 0 0 -1
    outer loop
      vertex -156.045 -4.93893 0
      vertex -152.187 -2.05364 0
      vertex -155.645 -5.42274 0
    endloop
  endfacet
  facet normal -0 0 -1
    outer loop
      vertex -152.187 -2.05364 0
      vertex -156.045 -4.93893 0
      vertex -152.427 -1.76336 0
    endloop
  endfacet
  facet normal 0 0 -1
    outer loop
      vertex -147.024 0.375999 0
      vertex 152.314 6.99013 0
      vertex -147 0 0
    endloop
  endfacet
  facet normal 0 0 -1
    outer loop
      vertex -147.094 0.746069 0
      vertex 152.314 6.99013 0
      vertex -147.024 0.375999 0
    endloop
  endfacet
  facet normal 0 0 -1
    outer loop
      vertex -147.211 1.10437 0
      vertex 152.314 6.99013 0
      vertex -147.094 0.746069 0
    endloop
  endfacet
  facet normal 0 0 -1
    outer loop
      vertex -147.371 1.44526 0
      vertex 152.314 6.99013 0
      vertex -147.211 1.10437 0
    endloop
  endfacet
  facet normal 0 0 -1
    outer loop
      vertex -147.573 1.76336 0
      vertex 152.314 6.99013 0
      vertex -147.371 1.44526 0
    endloop
  endfacet
  facet normal 0 0 -1
    outer loop
      vertex -147.813 2.05364 0
      vertex 152.314 6.99013 0
      vertex -147.573 1.76336 0
    endloop
  endfacet
  facet normal 0 0 -1
    outer loop
      vertex -152.314 6.99013 0
      vertex -147.813 2.05364 0
      vertex -148.088 2.31154 0
    endloop
  endfacet
  facet normal 0 0 -1
    outer loop
      vertex -152.314 6.99013 0
      vertex -148.088 2.31154 0
      vertex -148.393 2.53298 0
    endloop
  endfacet
  facet normal 0 0 -1
    outer loop
      vertex -152.314 6.99013 0
      vertex -148.393 2.53298 0
      vertex -148.723 2.71448 0
    endloop
  endfacet
  facet normal 0 0 -1
    outer loop
      vertex -152.314 6.99013 0
      vertex -148.723 2.71448 0
      vertex -149.073 2.85317 0
    endloop
  endfacet
  facet normal 0 0 -1
    outer loop
      vertex -152.314 6.99013 0
      vertex -149.073 2.85317 0
      vertex -149.438 2.94686 0
    endloop
  endfacet
  facet normal 0 0 -1
    outer loop
      vertex -152.314 6.99013 0
      vertex -149.438 2.94686 0
      vertex -149.812 2.99408 0
    endloop
  endfacet
  facet normal 0 0 -1
    outer loop
      vertex -152.314 6.99013 0
      vertex -149.812 2.99408 0
      vertex -150.188 2.99408 0
    endloop
  endfacet
  facet normal 0 0 -1
    outer loop
      vertex -147.813 2.05364 0
      vertex -152.314 6.99013 0
      vertex 152.314 6.99013 0
    endloop
  endfacet
  facet normal 0 0 -1
    outer loop
      vertex -150.562 2.94686 0
      vertex -152.314 6.99013 0
      vertex -150.188 2.99408 0
    endloop
  endfacet
  facet normal 0 0 -1
    outer loop
      vertex -150.927 2.85317 0
      vertex -152.314 6.99013 0
      vertex -150.562 2.94686 0
    endloop
  endfacet
  facet normal 0 0 -1
    outer loop
      vertex -151.277 2.71448 0
      vertex -152.314 6.99013 0
      vertex -150.927 2.85317 0
    endloop
  endfacet
  facet normal 0 0 -1
    outer loop
      vertex -152.937 6.91144 0
      vertex -151.277 2.71448 0
      vertex -151.607 2.53298 0
    endloop
  endfacet
  facet normal 0 0 -1
    outer loop
      vertex -154.129 6.52413 0
      vertex -151.607 2.53298 0
      vertex -151.912 2.31154 0
    endloop
  endfacet
  facet normal 0 0 -1
    outer loop
      vertex -155.187 5.85257 0
      vertex -151.912 2.31154 0
      vertex -152.187 2.05364 0
    endloop
  endfacet
  facet normal 0 0 -1
    outer loop
      vertex -156.045 4.93893 0
      vertex -152.187 2.05364 0
      vertex -152.427 1.76336 0
    endloop
  endfacet
  facet normal 0 0 -1
    outer loop
      vertex -156.649 3.84062 0
      vertex -152.427 1.76336 0
      vertex -152.629 1.44526 0
    endloop
  endfacet
  facet normal 0 0 -1
    outer loop
      vertex -156.961 2.62667 0
      vertex -152.629 1.44526 0
      vertex -152.789 1.10437 0
    endloop
  endfacet
  facet normal 0 0 -1
    outer loop
      vertex -157 2 0
      vertex -152.789 1.10437 0
      vertex -152.906 0.746069 0
    endloop
  endfacet
  facet normal 0 0 -1
    outer loop
      vertex -151.277 2.71448 0
      vertex -152.937 6.91144 0
      vertex -152.314 6.99013 0
    endloop
  endfacet
  facet normal 0 0 -1
    outer loop
      vertex -157 2 0
      vertex -152.906 0.746069 0
      vertex -152.976 0.375999 0
    endloop
  endfacet
  facet normal 0 0 -1
    outer loop
      vertex -157 2 0
      vertex -152.976 0.375999 0
      vertex -153 0 0
    endloop
  endfacet
  facet normal 0 0 -1
    outer loop
      vertex -156.382 -4.40877 0
      vertex -152.427 -1.76336 0
      vertex -156.045 -4.93893 0
    endloop
  endfacet
  facet normal 0 0 -1
    outer loop
      vertex -157 2 0
      vertex -153 0 0
      vertex -157 -2 0
    endloop
  endfacet
  facet normal 0 0 -1
    outer loop
      vertex -156.649 -3.84062 0
      vertex -152.427 -1.76336 0
      vertex -156.382 -4.40877 0
    endloop
  endfacet
  facet normal 0 0 -1
    outer loop
      vertex -152.789 1.10437 0
      vertex -157 2 0
      vertex -156.961 2.62667 0
    endloop
  endfacet
  facet normal -0 0 -1
    outer loop
      vertex -152.427 -1.76336 0
      vertex -156.649 -3.84062 0
      vertex -152.629 -1.44526 0
    endloop
  endfacet
  facet normal 0 0 -1
    outer loop
      vertex -151.607 2.53298 0
      vertex -153.545 6.75528 0
      vertex -152.937 6.91144 0
    endloop
  endfacet
  facet normal 0 0 -1
    outer loop
      vertex -156.843 -3.24345 0
      vertex -152.629 -1.44526 0
      vertex -156.649 -3.84062 0
    endloop
  endfacet
  facet normal 0 0 -1
    outer loop
      vertex -151.607 2.53298 0
      vertex -154.129 6.52413 0
      vertex -153.545 6.75528 0
    endloop
  endfacet
  facet normal 0 0 -1
    outer loop
      vertex -156.961 -2.62667 0
      vertex -152.629 -1.44526 0
      vertex -156.843 -3.24345 0
    endloop
  endfacet
  facet normal 0 0 -1
    outer loop
      vertex -151.912 2.31154 0
      vertex -154.679 6.22164 0
      vertex -154.129 6.52413 0
    endloop
  endfacet
  facet normal -0 0 -1
    outer loop
      vertex -152.629 -1.44526 0
      vertex -156.961 -2.62667 0
      vertex -152.789 -1.10437 0
    endloop
  endfacet
  facet normal 0 0 -1
    outer loop
      vertex -151.912 2.31154 0
      vertex -155.187 5.85257 0
      vertex -154.679 6.22164 0
    endloop
  endfacet
  facet normal 0 0 -1
    outer loop
      vertex -157 -2 0
      vertex -152.789 -1.10437 0
      vertex -156.961 -2.62667 0
    endloop
  endfacet
  facet normal 0 0 -1
    outer loop
      vertex -152.187 2.05364 0
      vertex -155.645 5.42274 0
      vertex -155.187 5.85257 0
    endloop
  endfacet
  facet normal -0 0 -1
    outer loop
      vertex -152.789 -1.10437 0
      vertex -157 -2 0
      vertex -152.906 -0.746069 0
    endloop
  endfacet
  facet normal 0 0 -1
    outer loop
      vertex -152.187 2.05364 0
      vertex -156.045 4.93893 0
      vertex -155.645 5.42274 0
    endloop
  endfacet
  facet normal -0 0 -1
    outer loop
      vertex -152.906 -0.746069 0
      vertex -157 -2 0
      vertex -152.976 -0.375999 0
    endloop
  endfacet
  facet normal 0 0 -1
    outer loop
      vertex -152.427 1.76336 0
      vertex -156.382 4.40877 0
      vertex -156.045 4.93893 0
    endloop
  endfacet
  facet normal -0 0 -1
    outer loop
      vertex -152.976 -0.375999 0
      vertex -157 -2 0
      vertex -153 0 0
    endloop
  endfacet
  facet normal 0 0 -1
    outer loop
      vertex -152.427 1.76336 0
      vertex -156.649 3.84062 0
      vertex -156.382 4.40877 0
    endloop
  endfacet
  facet normal 0 0 -1
    outer loop
      vertex -152.629 1.44526 0
      vertex -156.843 3.24345 0
      vertex -156.649 3.84062 0
    endloop
  endfacet
  facet normal 0 0 -1
    outer loop
      vertex -152.629 1.44526 0
      vertex -156.961 2.62667 0
      vertex -156.843 3.24345 0
    endloop
  endfacet
  facet normal 0.844175 0.536068 0
    outer loop
      vertex -152.427 -1.76336 9
      vertex -152.629 -1.44526 0
      vertex -152.629 -1.44526 9
    endloop
  endfacet
  facet normal 0.844175 0.536068 0
    outer loop
      vertex -152.629 -1.44526 0
      vertex -152.427 -1.76336 9
      vertex -152.427 -1.76336 0
    endloop
  endfacet
  facet normal -0.125262 0.992124 0
    outer loop
      vertex -149.438 -2.94686 0
      vertex -149.812 -2.99408 9
      vertex -149.438 -2.94686 9
    endloop
  endfacet
  facet normal -0.125262 0.992124 0
    outer loop
      vertex -149.812 -2.99408 9
      vertex -149.438 -2.94686 0
      vertex -149.812 -2.99408 0
    endloop
  endfacet
  facet normal -0.368389 0.929672 0
    outer loop
      vertex -148.723 -2.71448 0
      vertex -149.073 -2.85317 9
      vertex -148.723 -2.71448 9
    endloop
  endfacet
  facet normal -0.368389 0.929672 0
    outer loop
      vertex -149.073 -2.85317 9
      vertex -148.723 -2.71448 0
      vertex -149.073 -2.85317 0
    endloop
  endfacet
  facet normal -0.905247 -0.424886 0
    outer loop
      vertex -147.211 1.10437 0
      vertex -147.371 1.44526 9
      vertex -147.371 1.44526 0
    endloop
  endfacet
  facet normal -0.905247 -0.424886 0
    outer loop
      vertex -147.371 1.44526 9
      vertex -147.211 1.10437 0
      vertex -147.211 1.10437 9
    endloop
  endfacet
  facet normal -0.950603 -0.310411 0
    outer loop
      vertex -147.094 0.746069 0
      vertex -147.211 1.10437 9
      vertex -147.211 1.10437 0
    endloop
  endfacet
  facet normal -0.950603 -0.310411 0
    outer loop
      vertex -147.211 1.10437 9
      vertex -147.094 0.746069 0
      vertex -147.094 0.746069 9
    endloop
  endfacet
  facet normal -0.982577 -0.185858 0
    outer loop
      vertex -147.024 0.375999 0
      vertex -147.094 0.746069 9
      vertex -147.094 0.746069 0
    endloop
  endfacet
  facet normal -0.982577 -0.185858 0
    outer loop
      vertex -147.094 0.746069 9
      vertex -147.024 0.375999 0
      vertex -147.024 0.375999 9
    endloop
  endfacet
  facet normal -0.997969 0.0637003 0
    outer loop
      vertex -147.024 -0.375999 0
      vertex -147 0 9
      vertex -147 0 0
    endloop
  endfacet
  facet normal -0.997969 0.0637003 0
    outer loop
      vertex -147 0 9
      vertex -147.024 -0.375999 0
      vertex -147.024 -0.375999 9
    endloop
  endfacet
  facet normal -0.905247 0.424886 0
    outer loop
      vertex -147.371 -1.44526 0
      vertex -147.211 -1.10437 9
      vertex -147.211 -1.10437 0
    endloop
  endfacet
  facet normal -0.905247 0.424886 0
    outer loop
      vertex -147.211 -1.10437 9
      vertex -147.371 -1.44526 0
      vertex -147.371 -1.44526 9
    endloop
  endfacet
  facet normal -0.950603 0.310411 0
    outer loop
      vertex -147.211 -1.10437 0
      vertex -147.094 -0.746069 9
      vertex -147.094 -0.746069 0
    endloop
  endfacet
  facet normal -0.950603 0.310411 0
    outer loop
      vertex -147.094 -0.746069 9
      vertex -147.211 -1.10437 0
      vertex -147.211 -1.10437 9
    endloop
  endfacet
  facet normal -0.684065 0.729421 0
    outer loop
      vertex -147.813 -2.05364 0
      vertex -148.088 -2.31154 9
      vertex -147.813 -2.05364 9
    endloop
  endfacet
  facet normal -0.684065 0.729421 0
    outer loop
      vertex -148.088 -2.31154 9
      vertex -147.813 -2.05364 0
      vertex -148.088 -2.31154 0
    endloop
  endfacet
  facet normal -0.770696 0.637202 0
    outer loop
      vertex -147.813 -2.05364 0
      vertex -147.573 -1.76336 9
      vertex -147.573 -1.76336 0
    endloop
  endfacet
  facet normal -0.770696 0.637202 0
    outer loop
      vertex -147.573 -1.76336 9
      vertex -147.813 -2.05364 0
      vertex -147.813 -2.05364 9
    endloop
  endfacet
  facet normal -0.844175 0.536068 0
    outer loop
      vertex -147.573 -1.76336 0
      vertex -147.371 -1.44526 9
      vertex -147.371 -1.44526 0
    endloop
  endfacet
  facet normal -0.844175 0.536068 0
    outer loop
      vertex -147.371 -1.44526 9
      vertex -147.573 -1.76336 0
      vertex -147.573 -1.76336 9
    endloop
  endfacet
  facet normal 0.905247 0.424886 0
    outer loop
      vertex -152.629 -1.44526 9
      vertex -152.789 -1.10437 0
      vertex -152.789 -1.10437 9
    endloop
  endfacet
  facet normal 0.905247 0.424886 0
    outer loop
      vertex -152.789 -1.10437 0
      vertex -152.629 -1.44526 9
      vertex -152.629 -1.44526 0
    endloop
  endfacet
  facet normal 0.684065 0.729421 -0
    outer loop
      vertex -151.912 -2.31154 0
      vertex -152.187 -2.05364 9
      vertex -151.912 -2.31154 9
    endloop
  endfacet
  facet normal 0.684065 0.729421 0
    outer loop
      vertex -152.187 -2.05364 9
      vertex -151.912 -2.31154 0
      vertex -152.187 -2.05364 0
    endloop
  endfacet
  facet normal -0.248625 0.9686 0
    outer loop
      vertex -149.073 -2.85317 0
      vertex -149.438 -2.94686 9
      vertex -149.073 -2.85317 9
    endloop
  endfacet
  facet normal -0.248625 0.9686 0
    outer loop
      vertex -149.438 -2.94686 9
      vertex -149.073 -2.85317 0
      vertex -149.438 -2.94686 0
    endloop
  endfacet
  facet normal -0.587515 0.809213 0
    outer loop
      vertex -148.088 -2.31154 0
      vertex -148.393 -2.53298 9
      vertex -148.088 -2.31154 9
    endloop
  endfacet
  facet normal -0.587515 0.809213 0
    outer loop
      vertex -148.393 -2.53298 9
      vertex -148.088 -2.31154 0
      vertex -148.393 -2.53298 0
    endloop
  endfacet
  facet normal 0.587515 0.809213 -0
    outer loop
      vertex -151.607 -2.53298 0
      vertex -151.912 -2.31154 9
      vertex -151.607 -2.53298 9
    endloop
  endfacet
  facet normal 0.587515 0.809213 0
    outer loop
      vertex -151.912 -2.31154 9
      vertex -151.607 -2.53298 0
      vertex -151.912 -2.31154 0
    endloop
  endfacet
  facet normal 0.248625 0.9686 -0
    outer loop
      vertex -150.562 -2.94686 0
      vertex -150.927 -2.85317 9
      vertex -150.562 -2.94686 9
    endloop
  endfacet
  facet normal 0.248625 0.9686 0
    outer loop
      vertex -150.927 -2.85317 9
      vertex -150.562 -2.94686 0
      vertex -150.927 -2.85317 0
    endloop
  endfacet
  facet normal 0.125262 0.992124 -0
    outer loop
      vertex -150.188 -2.99408 0
      vertex -150.562 -2.94686 9
      vertex -150.188 -2.99408 9
    endloop
  endfacet
  facet normal 0.125262 0.992124 0
    outer loop
      vertex -150.562 -2.94686 9
      vertex -150.188 -2.99408 0
      vertex -150.562 -2.94686 0
    endloop
  endfacet
  facet normal 0.982577 0.185858 0
    outer loop
      vertex -152.906 -0.746069 9
      vertex -152.976 -0.375999 0
      vertex -152.976 -0.375999 9
    endloop
  endfacet
  facet normal 0.982577 0.185858 0
    outer loop
      vertex -152.976 -0.375999 0
      vertex -152.906 -0.746069 9
      vertex -152.906 -0.746069 0
    endloop
  endfacet
  facet normal 0.997969 0.0637003 0
    outer loop
      vertex -152.976 -0.375999 9
      vertex -153 0 0
      vertex -153 0 9
    endloop
  endfacet
  facet normal 0.997969 0.0637003 0
    outer loop
      vertex -153 0 0
      vertex -152.976 -0.375999 9
      vertex -152.976 -0.375999 0
    endloop
  endfacet
  facet normal 0.481919 0.876216 -0
    outer loop
      vertex -151.277 -2.71448 0
      vertex -151.607 -2.53298 9
      vertex -151.277 -2.71448 9
    endloop
  endfacet
  facet normal 0.481919 0.876216 0
    outer loop
      vertex -151.607 -2.53298 9
      vertex -151.277 -2.71448 0
      vertex -151.607 -2.53298 0
    endloop
  endfacet
  facet normal 0.950603 0.310411 0
    outer loop
      vertex -152.789 -1.10437 9
      vertex -152.906 -0.746069 0
      vertex -152.906 -0.746069 9
    endloop
  endfacet
  facet normal 0.950603 0.310411 0
    outer loop
      vertex -152.906 -0.746069 0
      vertex -152.789 -1.10437 9
      vertex -152.789 -1.10437 0
    endloop
  endfacet
  facet normal 0.770696 0.637202 0
    outer loop
      vertex -152.187 -2.05364 9
      vertex -152.427 -1.76336 0
      vertex -152.427 -1.76336 9
    endloop
  endfacet
  facet normal 0.770696 0.637202 0
    outer loop
      vertex -152.427 -1.76336 0
      vertex -152.187 -2.05364 9
      vertex -152.187 -2.05364 0
    endloop
  endfacet
  facet normal 0.368389 0.929672 -0
    outer loop
      vertex -150.927 -2.85317 0
      vertex -151.277 -2.71448 9
      vertex -150.927 -2.85317 9
    endloop
  endfacet
  facet normal 0.368389 0.929672 0
    outer loop
      vertex -151.277 -2.71448 9
      vertex -150.927 -2.85317 0
      vertex -151.277 -2.71448 0
    endloop
  endfacet
  facet normal -1 0 0
    outer loop
      vertex -157 -2 0
      vertex -157 2 9
      vertex -157 2 0
    endloop
  endfacet
  facet normal -1 -0 0
    outer loop
      vertex -157 2 9
      vertex -157 -2 0
      vertex -157 -2 9
    endloop
  endfacet
  facet normal -0.998069 -0.0621135 0
    outer loop
      vertex -156.961 -2.62667 0
      vertex -157 -2 9
      vertex -157 -2 0
    endloop
  endfacet
  facet normal -0.998069 -0.0621135 0
    outer loop
      vertex -157 -2 9
      vertex -156.961 -2.62667 0
      vertex -156.961 -2.62667 9
    endloop
  endfacet
  facet normal 0 1 -0
    outer loop
      vertex 152.314 6.99013 0
      vertex -152.314 6.99013 9
      vertex 152.314 6.99013 9
    endloop
  endfacet
  facet normal 0 1 0
    outer loop
      vertex -152.314 6.99013 9
      vertex 152.314 6.99013 0
      vertex -152.314 6.99013 0
    endloop
  endfacet
  facet normal 0 -1 0
    outer loop
      vertex -152.314 -6.99013 0
      vertex 152.314 -6.99013 9
      vertex -152.314 -6.99013 9
    endloop
  endfacet
  facet normal 0 -1 -0
    outer loop
      vertex 152.314 -6.99013 9
      vertex -152.314 -6.99013 0
      vertex 152.314 -6.99013 0
    endloop
  endfacet
  facet normal -0.998069 0.0621135 0
    outer loop
      vertex -157 2 0
      vertex -156.961 2.62667 9
      vertex -156.961 2.62667 0
    endloop
  endfacet
  facet normal -0.998069 0.0621135 0
    outer loop
      vertex -156.961 2.62667 9
      vertex -157 2 0
      vertex -157 2 9
    endloop
  endfacet
  facet normal 0.905042 -0.425321 0
    outer loop
      vertex 156.382 -4.40877 9
      vertex 156.649 -3.84062 0
      vertex 156.649 -3.84062 9
    endloop
  endfacet
  facet normal 0.905042 -0.425321 0
    outer loop
      vertex 156.649 -3.84062 0
      vertex 156.382 -4.40877 9
      vertex 156.382 -4.40877 0
    endloop
  endfacet
  facet normal -0.368026 -0.929816 0
    outer loop
      vertex -154.129 -6.52413 0
      vertex -153.545 -6.75528 9
      vertex -154.129 -6.52413 9
    endloop
  endfacet
  facet normal -0.368026 -0.929816 -0
    outer loop
      vertex -153.545 -6.75528 9
      vertex -154.129 -6.52413 0
      vertex -153.545 -6.75528 0
    endloop
  endfacet
  facet normal -0.125313 -0.992117 0
    outer loop
      vertex -152.937 -6.91144 0
      vertex -152.314 -6.99013 9
      vertex -152.937 -6.91144 9
    endloop
  endfacet
  facet normal -0.125313 -0.992117 -0
    outer loop
      vertex -152.314 -6.99013 9
      vertex -152.937 -6.91144 0
      vertex -152.314 -6.99013 0
    endloop
  endfacet
  facet normal -0.481907 -0.876223 0
    outer loop
      vertex -154.679 -6.22164 0
      vertex -154.129 -6.52413 9
      vertex -154.679 -6.22164 9
    endloop
  endfacet
  facet normal -0.481907 -0.876223 -0
    outer loop
      vertex -154.129 -6.52413 9
      vertex -154.679 -6.22164 0
      vertex -154.129 -6.52413 0
    endloop
  endfacet
  facet normal -0.684327 -0.729176 0
    outer loop
      vertex -155.645 -5.42274 0
      vertex -155.187 -5.85257 9
      vertex -155.645 -5.42274 9
    endloop
  endfacet
  facet normal -0.684327 -0.729176 -0
    outer loop
      vertex -155.187 -5.85257 9
      vertex -155.645 -5.42274 0
      vertex -155.187 -5.85257 0
    endloop
  endfacet
  facet normal 1 -0 0
    outer loop
      vertex 157 -2 9
      vertex 157 2 0
      vertex 157 2 9
    endloop
  endfacet
  facet normal 1 0 0
    outer loop
      vertex 157 2 0
      vertex 157 -2 9
      vertex 157 -2 0
    endloop
  endfacet
  facet normal 0.951072 -0.30897 0
    outer loop
      vertex 156.649 -3.84062 9
      vertex 156.843 -3.24345 0
      vertex 156.843 -3.24345 9
    endloop
  endfacet
  facet normal 0.951072 -0.30897 0
    outer loop
      vertex 156.843 -3.24345 0
      vertex 156.649 -3.84062 9
      vertex 156.649 -3.84062 0
    endloop
  endfacet
  facet normal 0.982187 -0.187908 0
    outer loop
      vertex 156.843 -3.24345 9
      vertex 156.961 -2.62667 0
      vertex 156.961 -2.62667 9
    endloop
  endfacet
  facet normal 0.982187 -0.187908 0
    outer loop
      vertex 156.961 -2.62667 0
      vertex 156.843 -3.24345 9
      vertex 156.843 -3.24345 0
    endloop
  endfacet
  facet normal 0.481907 -0.876223 0
    outer loop
      vertex 154.129 -6.52413 0
      vertex 154.679 -6.22164 9
      vertex 154.129 -6.52413 9
    endloop
  endfacet
  facet normal 0.481907 -0.876223 0
    outer loop
      vertex 154.679 -6.22164 9
      vertex 154.129 -6.52413 0
      vertex 154.679 -6.22164 0
    endloop
  endfacet
  facet normal 0.843931 0.536451 0
    outer loop
      vertex 156.382 4.40877 9
      vertex 156.045 4.93893 0
      vertex 156.045 4.93893 9
    endloop
  endfacet
  facet normal 0.843931 0.536451 0
    outer loop
      vertex 156.045 4.93893 0
      vertex 156.382 4.40877 9
      vertex 156.382 4.40877 0
    endloop
  endfacet
  facet normal 0.951072 0.30897 0
    outer loop
      vertex 156.843 3.24345 9
      vertex 156.649 3.84062 0
      vertex 156.649 3.84062 9
    endloop
  endfacet
  facet normal 0.951072 0.30897 0
    outer loop
      vertex 156.649 3.84062 0
      vertex 156.843 3.24345 9
      vertex 156.843 3.24345 0
    endloop
  endfacet
  facet normal 0.684327 0.729176 -0
    outer loop
      vertex 155.645 5.42274 0
      vertex 155.187 5.85257 9
      vertex 155.645 5.42274 9
    endloop
  endfacet
  facet normal 0.684327 0.729176 0
    outer loop
      vertex 155.187 5.85257 9
      vertex 155.645 5.42274 0
      vertex 155.187 5.85257 0
    endloop
  endfacet
  facet normal 0.368026 0.929816 -0
    outer loop
      vertex 154.129 6.52413 0
      vertex 153.545 6.75528 9
      vertex 154.129 6.52413 9
    endloop
  endfacet
  facet normal 0.368026 0.929816 0
    outer loop
      vertex 153.545 6.75528 9
      vertex 154.129 6.52413 0
      vertex 153.545 6.75528 0
    endloop
  endfacet
  facet normal 0.248768 0.968563 -0
    outer loop
      vertex 153.545 6.75528 0
      vertex 152.937 6.91144 9
      vertex 153.545 6.75528 9
    endloop
  endfacet
  facet normal 0.248768 0.968563 0
    outer loop
      vertex 152.937 6.91144 9
      vertex 153.545 6.75528 0
      vertex 152.937 6.91144 0
    endloop
  endfacet
  facet normal 0.125313 0.992117 -0
    outer loop
      vertex 152.937 6.91144 0
      vertex 152.314 6.99013 9
      vertex 152.937 6.91144 9
    endloop
  endfacet
  facet normal 0.125313 0.992117 0
    outer loop
      vertex 152.314 6.99013 9
      vertex 152.937 6.91144 0
      vertex 152.314 6.99013 0
    endloop
  endfacet
  facet normal -0.368026 0.929816 0
    outer loop
      vertex -153.545 6.75528 0
      vertex -154.129 6.52413 9
      vertex -153.545 6.75528 9
    endloop
  endfacet
  facet normal -0.368026 0.929816 0
    outer loop
      vertex -154.129 6.52413 9
      vertex -153.545 6.75528 0
      vertex -154.129 6.52413 0
    endloop
  endfacet
  facet normal -0.770703 0.637195 0
    outer loop
      vertex -156.045 4.93893 0
      vertex -155.645 5.42274 9
      vertex -155.645 5.42274 0
    endloop
  endfacet
  facet normal -0.770703 0.637195 0
    outer loop
      vertex -155.645 5.42274 9
      vertex -156.045 4.93893 0
      vertex -156.045 4.93893 9
    endloop
  endfacet
  facet normal -0.951072 -0.30897 0
    outer loop
      vertex -156.649 -3.84062 0
      vertex -156.843 -3.24345 9
      vertex -156.843 -3.24345 0
    endloop
  endfacet
  facet normal -0.951072 -0.30897 0
    outer loop
      vertex -156.843 -3.24345 9
      vertex -156.649 -3.84062 0
      vertex -156.649 -3.84062 9
    endloop
  endfacet
  facet normal -0.905042 -0.425321 0
    outer loop
      vertex -156.382 -4.40877 0
      vertex -156.649 -3.84062 9
      vertex -156.649 -3.84062 0
    endloop
  endfacet
  facet normal -0.905042 -0.425321 0
    outer loop
      vertex -156.649 -3.84062 9
      vertex -156.382 -4.40877 0
      vertex -156.382 -4.40877 9
    endloop
  endfacet
  facet normal -0.770703 -0.637195 0
    outer loop
      vertex -155.645 -5.42274 0
      vertex -156.045 -4.93893 9
      vertex -156.045 -4.93893 0
    endloop
  endfacet
  facet normal -0.770703 -0.637195 0
    outer loop
      vertex -156.045 -4.93893 9
      vertex -155.645 -5.42274 0
      vertex -155.645 -5.42274 9
    endloop
  endfacet
  facet normal -0.248768 -0.968563 0
    outer loop
      vertex -153.545 -6.75528 0
      vertex -152.937 -6.91144 9
      vertex -153.545 -6.75528 9
    endloop
  endfacet
  facet normal -0.248768 -0.968563 -0
    outer loop
      vertex -152.937 -6.91144 9
      vertex -153.545 -6.75528 0
      vertex -152.937 -6.91144 0
    endloop
  endfacet
  facet normal -0.587771 -0.809027 0
    outer loop
      vertex -155.187 -5.85257 0
      vertex -154.679 -6.22164 9
      vertex -155.187 -5.85257 9
    endloop
  endfacet
  facet normal -0.587771 -0.809027 -0
    outer loop
      vertex -154.679 -6.22164 9
      vertex -155.187 -5.85257 0
      vertex -154.679 -6.22164 0
    endloop
  endfacet
  facet normal 0.998069 -0.0621135 0
    outer loop
      vertex 156.961 -2.62667 9
      vertex 157 -2 0
      vertex 157 -2 9
    endloop
  endfacet
  facet normal 0.998069 -0.0621135 0
    outer loop
      vertex 157 -2 0
      vertex 156.961 -2.62667 9
      vertex 156.961 -2.62667 0
    endloop
  endfacet
  facet normal 0.684327 -0.729176 0
    outer loop
      vertex 155.187 -5.85257 0
      vertex 155.645 -5.42274 9
      vertex 155.187 -5.85257 9
    endloop
  endfacet
  facet normal 0.684327 -0.729176 0
    outer loop
      vertex 155.645 -5.42274 9
      vertex 155.187 -5.85257 0
      vertex 155.645 -5.42274 0
    endloop
  endfacet
  facet normal 0.587771 -0.809027 0
    outer loop
      vertex 154.679 -6.22164 0
      vertex 155.187 -5.85257 9
      vertex 154.679 -6.22164 9
    endloop
  endfacet
  facet normal 0.587771 -0.809027 0
    outer loop
      vertex 155.187 -5.85257 9
      vertex 154.679 -6.22164 0
      vertex 155.187 -5.85257 0
    endloop
  endfacet
  facet normal 0.770703 -0.637195 0
    outer loop
      vertex 155.645 -5.42274 9
      vertex 156.045 -4.93893 0
      vertex 156.045 -4.93893 9
    endloop
  endfacet
  facet normal 0.770703 -0.637195 0
    outer loop
      vertex 156.045 -4.93893 0
      vertex 155.645 -5.42274 9
      vertex 155.645 -5.42274 0
    endloop
  endfacet
  facet normal 0.368026 -0.929816 0
    outer loop
      vertex 153.545 -6.75528 0
      vertex 154.129 -6.52413 9
      vertex 153.545 -6.75528 9
    endloop
  endfacet
  facet normal 0.368026 -0.929816 0
    outer loop
      vertex 154.129 -6.52413 9
      vertex 153.545 -6.75528 0
      vertex 154.129 -6.52413 0
    endloop
  endfacet
  facet normal 0.125313 -0.992117 0
    outer loop
      vertex 152.314 -6.99013 0
      vertex 152.937 -6.91144 9
      vertex 152.314 -6.99013 9
    endloop
  endfacet
  facet normal 0.125313 -0.992117 0
    outer loop
      vertex 152.937 -6.91144 9
      vertex 152.314 -6.99013 0
      vertex 152.937 -6.91144 0
    endloop
  endfacet
  facet normal 0.770703 0.637195 0
    outer loop
      vertex 156.045 4.93893 9
      vertex 155.645 5.42274 0
      vertex 155.645 5.42274 9
    endloop
  endfacet
  facet normal 0.770703 0.637195 0
    outer loop
      vertex 155.645 5.42274 0
      vertex 156.045 4.93893 9
      vertex 156.045 4.93893 0
    endloop
  endfacet
  facet normal 0.905042 0.425321 0
    outer loop
      vertex 156.649 3.84062 9
      vertex 156.382 4.40877 0
      vertex 156.382 4.40877 9
    endloop
  endfacet
  facet normal 0.905042 0.425321 0
    outer loop
      vertex 156.382 4.40877 0
      vertex 156.649 3.84062 9
      vertex 156.649 3.84062 0
    endloop
  endfacet
  facet normal 0.587771 0.809027 -0
    outer loop
      vertex 155.187 5.85257 0
      vertex 154.679 6.22164 9
      vertex 155.187 5.85257 9
    endloop
  endfacet
  facet normal 0.587771 0.809027 0
    outer loop
      vertex 154.679 6.22164 9
      vertex 155.187 5.85257 0
      vertex 154.679 6.22164 0
    endloop
  endfacet
  facet normal 0.481907 0.876223 -0
    outer loop
      vertex 154.679 6.22164 0
      vertex 154.129 6.52413 9
      vertex 154.679 6.22164 9
    endloop
  endfacet
  facet normal 0.481907 0.876223 0
    outer loop
      vertex 154.129 6.52413 9
      vertex 154.679 6.22164 0
      vertex 154.129 6.52413 0
    endloop
  endfacet
  facet normal -0.684327 0.729176 0
    outer loop
      vertex -155.187 5.85257 0
      vertex -155.645 5.42274 9
      vertex -155.187 5.85257 9
    endloop
  endfacet
  facet normal -0.684327 0.729176 0
    outer loop
      vertex -155.645 5.42274 9
      vertex -155.187 5.85257 0
      vertex -155.645 5.42274 0
    endloop
  endfacet
  facet normal -0.125313 0.992117 0
    outer loop
      vertex -152.314 6.99013 0
      vertex -152.937 6.91144 9
      vertex -152.314 6.99013 9
    endloop
  endfacet
  facet normal -0.125313 0.992117 0
    outer loop
      vertex -152.937 6.91144 9
      vertex -152.314 6.99013 0
      vertex -152.937 6.91144 0
    endloop
  endfacet
  facet normal -0.982187 0.187908 0
    outer loop
      vertex -156.961 2.62667 0
      vertex -156.843 3.24345 9
      vertex -156.843 3.24345 0
    endloop
  endfacet
  facet normal -0.982187 0.187908 0
    outer loop
      vertex -156.843 3.24345 9
      vertex -156.961 2.62667 0
      vertex -156.961 2.62667 9
    endloop
  endfacet
  facet normal -0.982187 -0.187908 0
    outer loop
      vertex -156.843 -3.24345 0
      vertex -156.961 -2.62667 9
      vertex -156.961 -2.62667 0
    endloop
  endfacet
  facet normal -0.982187 -0.187908 0
    outer loop
      vertex -156.961 -2.62667 9
      vertex -156.843 -3.24345 0
      vertex -156.843 -3.24345 9
    endloop
  endfacet
  facet normal -0.843931 -0.536451 0
    outer loop
      vertex -156.045 -4.93893 0
      vertex -156.382 -4.40877 9
      vertex -156.382 -4.40877 0
    endloop
  endfacet
  facet normal -0.843931 -0.536451 0
    outer loop
      vertex -156.382 -4.40877 9
      vertex -156.045 -4.93893 0
      vertex -156.045 -4.93893 9
    endloop
  endfacet
  facet normal 0.843931 -0.536451 0
    outer loop
      vertex 156.045 -4.93893 9
      vertex 156.382 -4.40877 0
      vertex 156.382 -4.40877 9
    endloop
  endfacet
  facet normal 0.843931 -0.536451 0
    outer loop
      vertex 156.382 -4.40877 0
      vertex 156.045 -4.93893 9
      vertex 156.045 -4.93893 0
    endloop
  endfacet
  facet normal 0.248768 -0.968563 0
    outer loop
      vertex 152.937 -6.91144 0
      vertex 153.545 -6.75528 9
      vertex 152.937 -6.91144 9
    endloop
  endfacet
  facet normal 0.248768 -0.968563 0
    outer loop
      vertex 153.545 -6.75528 9
      vertex 152.937 -6.91144 0
      vertex 153.545 -6.75528 0
    endloop
  endfacet
  facet normal -0.248768 0.968563 0
    outer loop
      vertex -152.937 6.91144 0
      vertex -153.545 6.75528 9
      vertex -152.937 6.91144 9
    endloop
  endfacet
  facet normal -0.248768 0.968563 0
    outer loop
      vertex -153.545 6.75528 9
      vertex -152.937 6.91144 0
      vertex -153.545 6.75528 0
    endloop
  endfacet
  facet normal -0.843931 0.536451 0
    outer loop
      vertex -156.382 4.40877 0
      vertex -156.045 4.93893 9
      vertex -156.045 4.93893 0
    endloop
  endfacet
  facet normal -0.843931 0.536451 0
    outer loop
      vertex -156.045 4.93893 9
      vertex -156.382 4.40877 0
      vertex -156.382 4.40877 9
    endloop
  endfacet
  facet normal -0.951072 0.30897 0
    outer loop
      vertex -156.843 3.24345 0
      vertex -156.649 3.84062 9
      vertex -156.649 3.84062 0
    endloop
  endfacet
  facet normal -0.951072 0.30897 0
    outer loop
      vertex -156.649 3.84062 9
      vertex -156.843 3.24345 0
      vertex -156.843 3.24345 9
    endloop
  endfacet
  facet normal 0.982187 0.187908 0
    outer loop
      vertex 156.961 2.62667 9
      vertex 156.843 3.24345 0
      vertex 156.843 3.24345 9
    endloop
  endfacet
  facet normal 0.982187 0.187908 0
    outer loop
      vertex 156.843 3.24345 0
      vertex 156.961 2.62667 9
      vertex 156.961 2.62667 0
    endloop
  endfacet
  facet normal 0.998069 0.0621135 0
    outer loop
      vertex 157 2 9
      vertex 156.961 2.62667 0
      vertex 156.961 2.62667 9
    endloop
  endfacet
  facet normal 0.998069 0.0621135 0
    outer loop
      vertex 156.961 2.62667 0
      vertex 157 2 9
      vertex 157 2 0
    endloop
  endfacet
  facet normal -0.587771 0.809027 0
    outer loop
      vertex -154.679 6.22164 0
      vertex -155.187 5.85257 9
      vertex -154.679 6.22164 9
    endloop
  endfacet
  facet normal -0.587771 0.809027 0
    outer loop
      vertex -155.187 5.85257 9
      vertex -154.679 6.22164 0
      vertex -155.187 5.85257 0
    endloop
  endfacet
  facet normal -0.481907 0.876223 0
    outer loop
      vertex -154.129 6.52413 0
      vertex -154.679 6.22164 9
      vertex -154.129 6.52413 9
    endloop
  endfacet
  facet normal -0.481907 0.876223 0
    outer loop
      vertex -154.679 6.22164 9
      vertex -154.129 6.52413 0
      vertex -154.679 6.22164 0
    endloop
  endfacet
  facet normal -0.905042 0.425321 0
    outer loop
      vertex -156.649 3.84062 0
      vertex -156.382 4.40877 9
      vertex -156.382 4.40877 0
    endloop
  endfacet
  facet normal -0.905042 0.425321 0
    outer loop
      vertex -156.382 4.40877 9
      vertex -156.649 3.84062 0
      vertex -156.649 3.84062 9
    endloop
  endfacet
endsolid OpenSCAD_Model
