  0
SECTION
  2
BLOCKS
  0
ENDSEC
  0
SECTION
  2
ENTITIES
  0
LINE
  8
0
 10
115.437
 20
-36.9114
 11
116.045
 21
-36.7553
  0
LINE
  8
0
 10
116.045
 20
-36.7553
 11
116.629
 21
-36.5241
  0
LINE
  8
0
 10
116.629
 20
-36.5241
 11
117.179
 21
-36.2216
  0
LINE
  8
0
 10
117.179
 20
-36.2216
 11
117.687
 21
-35.8526
  0
LINE
  8
0
 10
117.687
 20
-35.8526
 11
118.145
 21
-35.4227
  0
LINE
  8
0
 10
118.145
 20
-35.4227
 11
118.545
 21
-34.9389
  0
LINE
  8
0
 10
118.545
 20
-34.9389
 11
118.882
 21
-34.4088
  0
LINE
  8
0
 10
118.882
 20
-34.4088
 11
119.149
 21
-33.8406
  0
LINE
  8
0
 10
119.149
 20
-33.8406
 11
119.343
 21
-33.2434
  0
LINE
  8
0
 10
119.343
 20
-33.2434
 11
119.461
 21
-32.6267
  0
LINE
  8
0
 10
119.461
 20
-32.6267
 11
119.5
 21
-32
  0
LINE
  8
0
 10
119.5
 20
-32
 11
119.5
 21
32
  0
LINE
  8
0
 10
119.5
 20
32
 11
119.461
 21
32.6267
  0
LINE
  8
0
 10
119.461
 20
32.6267
 11
119.343
 21
33.2434
  0
LINE
  8
0
 10
119.343
 20
33.2434
 11
119.149
 21
33.8406
  0
LINE
  8
0
 10
119.149
 20
33.8406
 11
118.882
 21
34.4088
  0
LINE
  8
0
 10
118.882
 20
34.4088
 11
118.545
 21
34.9389
  0
LINE
  8
0
 10
118.545
 20
34.9389
 11
118.145
 21
35.4227
  0
LINE
  8
0
 10
118.145
 20
35.4227
 11
117.687
 21
35.8526
  0
LINE
  8
0
 10
117.687
 20
35.8526
 11
117.179
 21
36.2216
  0
LINE
  8
0
 10
117.179
 20
36.2216
 11
116.629
 21
36.5241
  0
LINE
  8
0
 10
116.629
 20
36.5241
 11
116.045
 21
36.7553
  0
LINE
  8
0
 10
116.045
 20
36.7553
 11
115.437
 21
36.9114
  0
LINE
  8
0
 10
115.437
 20
36.9114
 11
114.814
 21
36.9901
  0
LINE
  8
0
 10
114.814
 20
36.9901
 11
-114.814
 21
36.9901
  0
LINE
  8
0
 10
-114.814
 20
36.9901
 11
-115.437
 21
36.9114
  0
LINE
  8
0
 10
-115.437
 20
36.9114
 11
-116.045
 21
36.7553
  0
LINE
  8
0
 10
-116.045
 20
36.7553
 11
-116.629
 21
36.5241
  0
LINE
  8
0
 10
-116.629
 20
36.5241
 11
-117.179
 21
36.2216
  0
LINE
  8
0
 10
-117.179
 20
36.2216
 11
-117.687
 21
35.8526
  0
LINE
  8
0
 10
-117.687
 20
35.8526
 11
-118.145
 21
35.4227
  0
LINE
  8
0
 10
-118.145
 20
35.4227
 11
-118.545
 21
34.9389
  0
LINE
  8
0
 10
-118.545
 20
34.9389
 11
-118.882
 21
34.4088
  0
LINE
  8
0
 10
-118.882
 20
34.4088
 11
-119.149
 21
33.8406
  0
LINE
  8
0
 10
-119.149
 20
33.8406
 11
-119.343
 21
33.2434
  0
LINE
  8
0
 10
-119.343
 20
33.2434
 11
-119.461
 21
32.6267
  0
LINE
  8
0
 10
-119.461
 20
32.6267
 11
-119.5
 21
32
  0
LINE
  8
0
 10
-119.5
 20
32
 11
-119.5
 21
-32
  0
LINE
  8
0
 10
-119.5
 20
-32
 11
-119.461
 21
-32.6267
  0
LINE
  8
0
 10
-119.461
 20
-32.6267
 11
-119.343
 21
-33.2434
  0
LINE
  8
0
 10
-119.343
 20
-33.2434
 11
-119.149
 21
-33.8406
  0
LINE
  8
0
 10
-119.149
 20
-33.8406
 11
-118.882
 21
-34.4088
  0
LINE
  8
0
 10
-118.882
 20
-34.4088
 11
-118.545
 21
-34.9389
  0
LINE
  8
0
 10
-118.545
 20
-34.9389
 11
-118.145
 21
-35.4227
  0
LINE
  8
0
 10
-118.145
 20
-35.4227
 11
-117.687
 21
-35.8526
  0
LINE
  8
0
 10
-117.687
 20
-35.8526
 11
-117.179
 21
-36.2216
  0
LINE
  8
0
 10
-117.179
 20
-36.2216
 11
-116.629
 21
-36.5241
  0
LINE
  8
0
 10
-116.629
 20
-36.5241
 11
-116.045
 21
-36.7553
  0
LINE
  8
0
 10
-116.045
 20
-36.7553
 11
-115.437
 21
-36.9114
  0
LINE
  8
0
 10
-115.437
 20
-36.9114
 11
-114.814
 21
-36.9901
  0
LINE
  8
0
 10
-114.814
 20
-36.9901
 11
114.814
 21
-36.9901
  0
LINE
  8
0
 10
114.814
 20
-36.9901
 11
115.437
 21
-36.9114
  0
LINE
  8
0
 10
112.312
 20
27.0059
 11
111.938
 21
27.0531
  0
LINE
  8
0
 10
111.938
 20
27.0531
 11
111.573
 21
27.1468
  0
LINE
  8
0
 10
111.573
 20
27.1468
 11
111.223
 21
27.2855
  0
LINE
  8
0
 10
111.223
 20
27.2855
 11
110.893
 21
27.467
  0
LINE
  8
0
 10
110.893
 20
27.467
 11
110.588
 21
27.6884
  0
LINE
  8
0
 10
110.588
 20
27.6884
 11
110.313
 21
27.9464
  0
LINE
  8
0
 10
110.313
 20
27.9464
 11
110.073
 21
28.2366
  0
LINE
  8
0
 10
110.073
 20
28.2366
 11
109.871
 21
28.5547
  0
LINE
  8
0
 10
109.871
 20
28.5547
 11
109.711
 21
28.8956
  0
LINE
  8
0
 10
109.711
 20
28.8956
 11
109.594
 21
29.2539
  0
LINE
  8
0
 10
109.594
 20
29.2539
 11
109.524
 21
29.624
  0
LINE
  8
0
 10
109.524
 20
29.624
 11
109.5
 21
30
  0
LINE
  8
0
 10
109.5
 20
30
 11
109.524
 21
30.376
  0
LINE
  8
0
 10
109.524
 20
30.376
 11
109.594
 21
30.7461
  0
LINE
  8
0
 10
109.594
 20
30.7461
 11
109.711
 21
31.1044
  0
LINE
  8
0
 10
109.711
 20
31.1044
 11
109.871
 21
31.4453
  0
LINE
  8
0
 10
109.871
 20
31.4453
 11
110.073
 21
31.7634
  0
LINE
  8
0
 10
110.073
 20
31.7634
 11
110.313
 21
32.0536
  0
LINE
  8
0
 10
110.313
 20
32.0536
 11
110.588
 21
32.3115
  0
LINE
  8
0
 10
110.588
 20
32.3115
 11
110.893
 21
32.533
  0
LINE
  8
0
 10
110.893
 20
32.533
 11
111.223
 21
32.7145
  0
LINE
  8
0
 10
111.223
 20
32.7145
 11
111.573
 21
32.8532
  0
LINE
  8
0
 10
111.573
 20
32.8532
 11
111.938
 21
32.9469
  0
LINE
  8
0
 10
111.938
 20
32.9469
 11
112.312
 21
32.9941
  0
LINE
  8
0
 10
112.312
 20
32.9941
 11
112.688
 21
32.9941
  0
LINE
  8
0
 10
112.688
 20
32.9941
 11
113.062
 21
32.9469
  0
LINE
  8
0
 10
113.062
 20
32.9469
 11
113.427
 21
32.8532
  0
LINE
  8
0
 10
113.427
 20
32.8532
 11
113.777
 21
32.7145
  0
LINE
  8
0
 10
113.777
 20
32.7145
 11
114.107
 21
32.533
  0
LINE
  8
0
 10
114.107
 20
32.533
 11
114.412
 21
32.3115
  0
LINE
  8
0
 10
114.412
 20
32.3115
 11
114.687
 21
32.0536
  0
LINE
  8
0
 10
114.687
 20
32.0536
 11
114.927
 21
31.7634
  0
LINE
  8
0
 10
114.927
 20
31.7634
 11
115.129
 21
31.4453
  0
LINE
  8
0
 10
115.129
 20
31.4453
 11
115.289
 21
31.1044
  0
LINE
  8
0
 10
115.289
 20
31.1044
 11
115.406
 21
30.7461
  0
LINE
  8
0
 10
115.406
 20
30.7461
 11
115.476
 21
30.376
  0
LINE
  8
0
 10
115.476
 20
30.376
 11
115.5
 21
30
  0
LINE
  8
0
 10
115.5
 20
30
 11
115.476
 21
29.624
  0
LINE
  8
0
 10
115.476
 20
29.624
 11
115.406
 21
29.2539
  0
LINE
  8
0
 10
115.406
 20
29.2539
 11
115.289
 21
28.8956
  0
LINE
  8
0
 10
115.289
 20
28.8956
 11
115.129
 21
28.5547
  0
LINE
  8
0
 10
115.129
 20
28.5547
 11
114.927
 21
28.2366
  0
LINE
  8
0
 10
114.927
 20
28.2366
 11
114.687
 21
27.9464
  0
LINE
  8
0
 10
114.687
 20
27.9464
 11
114.412
 21
27.6884
  0
LINE
  8
0
 10
114.412
 20
27.6884
 11
114.107
 21
27.467
  0
LINE
  8
0
 10
114.107
 20
27.467
 11
113.777
 21
27.2855
  0
LINE
  8
0
 10
113.777
 20
27.2855
 11
113.427
 21
27.1468
  0
LINE
  8
0
 10
113.427
 20
27.1468
 11
113.062
 21
27.0531
  0
LINE
  8
0
 10
113.062
 20
27.0531
 11
112.688
 21
27.0059
  0
LINE
  8
0
 10
112.688
 20
27.0059
 11
112.312
 21
27.0059
  0
LINE
  8
0
 10
-112.688
 20
27.0059
 11
-113.062
 21
27.0531
  0
LINE
  8
0
 10
-113.062
 20
27.0531
 11
-113.427
 21
27.1468
  0
LINE
  8
0
 10
-113.427
 20
27.1468
 11
-113.777
 21
27.2855
  0
LINE
  8
0
 10
-113.777
 20
27.2855
 11
-114.107
 21
27.467
  0
LINE
  8
0
 10
-114.107
 20
27.467
 11
-114.412
 21
27.6884
  0
LINE
  8
0
 10
-114.412
 20
27.6884
 11
-114.687
 21
27.9464
  0
LINE
  8
0
 10
-114.687
 20
27.9464
 11
-114.927
 21
28.2366
  0
LINE
  8
0
 10
-114.927
 20
28.2366
 11
-115.129
 21
28.5547
  0
LINE
  8
0
 10
-115.129
 20
28.5547
 11
-115.289
 21
28.8956
  0
LINE
  8
0
 10
-115.289
 20
28.8956
 11
-115.406
 21
29.2539
  0
LINE
  8
0
 10
-115.406
 20
29.2539
 11
-115.476
 21
29.624
  0
LINE
  8
0
 10
-115.476
 20
29.624
 11
-115.5
 21
30
  0
LINE
  8
0
 10
-115.5
 20
30
 11
-115.476
 21
30.376
  0
LINE
  8
0
 10
-115.476
 20
30.376
 11
-115.406
 21
30.7461
  0
LINE
  8
0
 10
-115.406
 20
30.7461
 11
-115.289
 21
31.1044
  0
LINE
  8
0
 10
-115.289
 20
31.1044
 11
-115.129
 21
31.4453
  0
LINE
  8
0
 10
-115.129
 20
31.4453
 11
-114.927
 21
31.7634
  0
LINE
  8
0
 10
-114.927
 20
31.7634
 11
-114.687
 21
32.0536
  0
LINE
  8
0
 10
-114.687
 20
32.0536
 11
-114.412
 21
32.3115
  0
LINE
  8
0
 10
-114.412
 20
32.3115
 11
-114.107
 21
32.533
  0
LINE
  8
0
 10
-114.107
 20
32.533
 11
-113.777
 21
32.7145
  0
LINE
  8
0
 10
-113.777
 20
32.7145
 11
-113.427
 21
32.8532
  0
LINE
  8
0
 10
-113.427
 20
32.8532
 11
-113.062
 21
32.9469
  0
LINE
  8
0
 10
-113.062
 20
32.9469
 11
-112.688
 21
32.9941
  0
LINE
  8
0
 10
-112.688
 20
32.9941
 11
-112.312
 21
32.9941
  0
LINE
  8
0
 10
-112.312
 20
32.9941
 11
-111.938
 21
32.9469
  0
LINE
  8
0
 10
-111.938
 20
32.9469
 11
-111.573
 21
32.8532
  0
LINE
  8
0
 10
-111.573
 20
32.8532
 11
-111.223
 21
32.7145
  0
LINE
  8
0
 10
-111.223
 20
32.7145
 11
-110.893
 21
32.533
  0
LINE
  8
0
 10
-110.893
 20
32.533
 11
-110.588
 21
32.3115
  0
LINE
  8
0
 10
-110.588
 20
32.3115
 11
-110.313
 21
32.0536
  0
LINE
  8
0
 10
-110.313
 20
32.0536
 11
-110.073
 21
31.7634
  0
LINE
  8
0
 10
-110.073
 20
31.7634
 11
-109.871
 21
31.4453
  0
LINE
  8
0
 10
-109.871
 20
31.4453
 11
-109.711
 21
31.1044
  0
LINE
  8
0
 10
-109.711
 20
31.1044
 11
-109.594
 21
30.7461
  0
LINE
  8
0
 10
-109.594
 20
30.7461
 11
-109.524
 21
30.376
  0
LINE
  8
0
 10
-109.524
 20
30.376
 11
-109.5
 21
30
  0
LINE
  8
0
 10
-109.5
 20
30
 11
-109.524
 21
29.624
  0
LINE
  8
0
 10
-109.524
 20
29.624
 11
-109.594
 21
29.2539
  0
LINE
  8
0
 10
-109.594
 20
29.2539
 11
-109.711
 21
28.8956
  0
LINE
  8
0
 10
-109.711
 20
28.8956
 11
-109.871
 21
28.5547
  0
LINE
  8
0
 10
-109.871
 20
28.5547
 11
-110.073
 21
28.2366
  0
LINE
  8
0
 10
-110.073
 20
28.2366
 11
-110.313
 21
27.9464
  0
LINE
  8
0
 10
-110.313
 20
27.9464
 11
-110.588
 21
27.6884
  0
LINE
  8
0
 10
-110.588
 20
27.6884
 11
-110.893
 21
27.467
  0
LINE
  8
0
 10
-110.893
 20
27.467
 11
-111.223
 21
27.2855
  0
LINE
  8
0
 10
-111.223
 20
27.2855
 11
-111.573
 21
27.1468
  0
LINE
  8
0
 10
-111.573
 20
27.1468
 11
-111.938
 21
27.0531
  0
LINE
  8
0
 10
-111.938
 20
27.0531
 11
-112.312
 21
27.0059
  0
LINE
  8
0
 10
-112.312
 20
27.0059
 11
-112.688
 21
27.0059
  0
LINE
  8
0
 10
112.312
 20
-32.9941
 11
111.938
 21
-32.9469
  0
LINE
  8
0
 10
111.938
 20
-32.9469
 11
111.573
 21
-32.8532
  0
LINE
  8
0
 10
111.573
 20
-32.8532
 11
111.223
 21
-32.7145
  0
LINE
  8
0
 10
111.223
 20
-32.7145
 11
110.893
 21
-32.533
  0
LINE
  8
0
 10
110.893
 20
-32.533
 11
110.588
 21
-32.3115
  0
LINE
  8
0
 10
110.588
 20
-32.3115
 11
110.313
 21
-32.0536
  0
LINE
  8
0
 10
110.313
 20
-32.0536
 11
110.073
 21
-31.7634
  0
LINE
  8
0
 10
110.073
 20
-31.7634
 11
109.871
 21
-31.4453
  0
LINE
  8
0
 10
109.871
 20
-31.4453
 11
109.711
 21
-31.1044
  0
LINE
  8
0
 10
109.711
 20
-31.1044
 11
109.594
 21
-30.7461
  0
LINE
  8
0
 10
109.594
 20
-30.7461
 11
109.524
 21
-30.376
  0
LINE
  8
0
 10
109.524
 20
-30.376
 11
109.5
 21
-30
  0
LINE
  8
0
 10
109.5
 20
-30
 11
109.524
 21
-29.624
  0
LINE
  8
0
 10
109.524
 20
-29.624
 11
109.594
 21
-29.2539
  0
LINE
  8
0
 10
109.594
 20
-29.2539
 11
109.711
 21
-28.8956
  0
LINE
  8
0
 10
109.711
 20
-28.8956
 11
109.871
 21
-28.5547
  0
LINE
  8
0
 10
109.871
 20
-28.5547
 11
110.073
 21
-28.2366
  0
LINE
  8
0
 10
110.073
 20
-28.2366
 11
110.313
 21
-27.9464
  0
LINE
  8
0
 10
110.313
 20
-27.9464
 11
110.588
 21
-27.6884
  0
LINE
  8
0
 10
110.588
 20
-27.6884
 11
110.893
 21
-27.467
  0
LINE
  8
0
 10
110.893
 20
-27.467
 11
111.223
 21
-27.2855
  0
LINE
  8
0
 10
111.223
 20
-27.2855
 11
111.573
 21
-27.1468
  0
LINE
  8
0
 10
111.573
 20
-27.1468
 11
111.938
 21
-27.0531
  0
LINE
  8
0
 10
111.938
 20
-27.0531
 11
112.312
 21
-27.0059
  0
LINE
  8
0
 10
112.312
 20
-27.0059
 11
112.688
 21
-27.0059
  0
LINE
  8
0
 10
112.688
 20
-27.0059
 11
113.062
 21
-27.0531
  0
LINE
  8
0
 10
113.062
 20
-27.0531
 11
113.427
 21
-27.1468
  0
LINE
  8
0
 10
113.427
 20
-27.1468
 11
113.777
 21
-27.2855
  0
LINE
  8
0
 10
113.777
 20
-27.2855
 11
114.107
 21
-27.467
  0
LINE
  8
0
 10
114.107
 20
-27.467
 11
114.412
 21
-27.6884
  0
LINE
  8
0
 10
114.412
 20
-27.6884
 11
114.687
 21
-27.9464
  0
LINE
  8
0
 10
114.687
 20
-27.9464
 11
114.927
 21
-28.2366
  0
LINE
  8
0
 10
114.927
 20
-28.2366
 11
115.129
 21
-28.5547
  0
LINE
  8
0
 10
115.129
 20
-28.5547
 11
115.289
 21
-28.8956
  0
LINE
  8
0
 10
115.289
 20
-28.8956
 11
115.406
 21
-29.2539
  0
LINE
  8
0
 10
115.406
 20
-29.2539
 11
115.476
 21
-29.624
  0
LINE
  8
0
 10
115.476
 20
-29.624
 11
115.5
 21
-30
  0
LINE
  8
0
 10
115.5
 20
-30
 11
115.476
 21
-30.376
  0
LINE
  8
0
 10
115.476
 20
-30.376
 11
115.406
 21
-30.7461
  0
LINE
  8
0
 10
115.406
 20
-30.7461
 11
115.289
 21
-31.1044
  0
LINE
  8
0
 10
115.289
 20
-31.1044
 11
115.129
 21
-31.4453
  0
LINE
  8
0
 10
115.129
 20
-31.4453
 11
114.927
 21
-31.7634
  0
LINE
  8
0
 10
114.927
 20
-31.7634
 11
114.687
 21
-32.0536
  0
LINE
  8
0
 10
114.687
 20
-32.0536
 11
114.412
 21
-32.3115
  0
LINE
  8
0
 10
114.412
 20
-32.3115
 11
114.107
 21
-32.533
  0
LINE
  8
0
 10
114.107
 20
-32.533
 11
113.777
 21
-32.7145
  0
LINE
  8
0
 10
113.777
 20
-32.7145
 11
113.427
 21
-32.8532
  0
LINE
  8
0
 10
113.427
 20
-32.8532
 11
113.062
 21
-32.9469
  0
LINE
  8
0
 10
113.062
 20
-32.9469
 11
112.688
 21
-32.9941
  0
LINE
  8
0
 10
112.688
 20
-32.9941
 11
112.312
 21
-32.9941
  0
LINE
  8
0
 10
-112.688
 20
-32.9941
 11
-113.062
 21
-32.9469
  0
LINE
  8
0
 10
-113.062
 20
-32.9469
 11
-113.427
 21
-32.8532
  0
LINE
  8
0
 10
-113.427
 20
-32.8532
 11
-113.777
 21
-32.7145
  0
LINE
  8
0
 10
-113.777
 20
-32.7145
 11
-114.107
 21
-32.533
  0
LINE
  8
0
 10
-114.107
 20
-32.533
 11
-114.412
 21
-32.3115
  0
LINE
  8
0
 10
-114.412
 20
-32.3115
 11
-114.687
 21
-32.0536
  0
LINE
  8
0
 10
-114.687
 20
-32.0536
 11
-114.927
 21
-31.7634
  0
LINE
  8
0
 10
-114.927
 20
-31.7634
 11
-115.129
 21
-31.4453
  0
LINE
  8
0
 10
-115.129
 20
-31.4453
 11
-115.289
 21
-31.1044
  0
LINE
  8
0
 10
-115.289
 20
-31.1044
 11
-115.406
 21
-30.7461
  0
LINE
  8
0
 10
-115.406
 20
-30.7461
 11
-115.476
 21
-30.376
  0
LINE
  8
0
 10
-115.476
 20
-30.376
 11
-115.5
 21
-30
  0
LINE
  8
0
 10
-115.5
 20
-30
 11
-115.476
 21
-29.624
  0
LINE
  8
0
 10
-115.476
 20
-29.624
 11
-115.406
 21
-29.2539
  0
LINE
  8
0
 10
-115.406
 20
-29.2539
 11
-115.289
 21
-28.8956
  0
LINE
  8
0
 10
-115.289
 20
-28.8956
 11
-115.129
 21
-28.5547
  0
LINE
  8
0
 10
-115.129
 20
-28.5547
 11
-114.927
 21
-28.2366
  0
LINE
  8
0
 10
-114.927
 20
-28.2366
 11
-114.687
 21
-27.9464
  0
LINE
  8
0
 10
-114.687
 20
-27.9464
 11
-114.412
 21
-27.6884
  0
LINE
  8
0
 10
-114.412
 20
-27.6884
 11
-114.107
 21
-27.467
  0
LINE
  8
0
 10
-114.107
 20
-27.467
 11
-113.777
 21
-27.2855
  0
LINE
  8
0
 10
-113.777
 20
-27.2855
 11
-113.427
 21
-27.1468
  0
LINE
  8
0
 10
-113.427
 20
-27.1468
 11
-113.062
 21
-27.0531
  0
LINE
  8
0
 10
-113.062
 20
-27.0531
 11
-112.688
 21
-27.0059
  0
LINE
  8
0
 10
-112.688
 20
-27.0059
 11
-112.312
 21
-27.0059
  0
LINE
  8
0
 10
-112.312
 20
-27.0059
 11
-111.938
 21
-27.0531
  0
LINE
  8
0
 10
-111.938
 20
-27.0531
 11
-111.573
 21
-27.1468
  0
LINE
  8
0
 10
-111.573
 20
-27.1468
 11
-111.223
 21
-27.2855
  0
LINE
  8
0
 10
-111.223
 20
-27.2855
 11
-110.893
 21
-27.467
  0
LINE
  8
0
 10
-110.893
 20
-27.467
 11
-110.588
 21
-27.6884
  0
LINE
  8
0
 10
-110.588
 20
-27.6884
 11
-110.313
 21
-27.9464
  0
LINE
  8
0
 10
-110.313
 20
-27.9464
 11
-110.073
 21
-28.2366
  0
LINE
  8
0
 10
-110.073
 20
-28.2366
 11
-109.871
 21
-28.5547
  0
LINE
  8
0
 10
-109.871
 20
-28.5547
 11
-109.711
 21
-28.8956
  0
LINE
  8
0
 10
-109.711
 20
-28.8956
 11
-109.594
 21
-29.2539
  0
LINE
  8
0
 10
-109.594
 20
-29.2539
 11
-109.524
 21
-29.624
  0
LINE
  8
0
 10
-109.524
 20
-29.624
 11
-109.5
 21
-30
  0
LINE
  8
0
 10
-109.5
 20
-30
 11
-109.524
 21
-30.376
  0
LINE
  8
0
 10
-109.524
 20
-30.376
 11
-109.594
 21
-30.7461
  0
LINE
  8
0
 10
-109.594
 20
-30.7461
 11
-109.711
 21
-31.1044
  0
LINE
  8
0
 10
-109.711
 20
-31.1044
 11
-109.871
 21
-31.4453
  0
LINE
  8
0
 10
-109.871
 20
-31.4453
 11
-110.073
 21
-31.7634
  0
LINE
  8
0
 10
-110.073
 20
-31.7634
 11
-110.313
 21
-32.0536
  0
LINE
  8
0
 10
-110.313
 20
-32.0536
 11
-110.588
 21
-32.3115
  0
LINE
  8
0
 10
-110.588
 20
-32.3115
 11
-110.893
 21
-32.533
  0
LINE
  8
0
 10
-110.893
 20
-32.533
 11
-111.223
 21
-32.7145
  0
LINE
  8
0
 10
-111.223
 20
-32.7145
 11
-111.573
 21
-32.8532
  0
LINE
  8
0
 10
-111.573
 20
-32.8532
 11
-111.938
 21
-32.9469
  0
LINE
  8
0
 10
-111.938
 20
-32.9469
 11
-112.312
 21
-32.9941
  0
LINE
  8
0
 10
-112.312
 20
-32.9941
 11
-112.688
 21
-32.9941
  0
ENDSEC
  0
SECTION
  2
OBJECTS
  0
DICTIONARY
  0
ENDSEC
  0
EOF
