  0
SECTION
  2
BLOCKS
  0
ENDSEC
  0
SECTION
  2
ENTITIES
  0
LINE
  8
0
 10
1.31166
 20
473.124
 11
2.16312
 21
473.343
  0
LINE
  8
0
 10
2.16312
 20
473.343
 11
2.98045
 21
473.666
  0
LINE
  8
0
 10
2.98045
 20
473.666
 11
3.75078
 21
474.09
  0
LINE
  8
0
 10
3.75078
 20
474.09
 11
4.46196
 21
474.606
  0
LINE
  8
0
 10
4.46196
 20
474.606
 11
5.10277
 21
475.208
  0
LINE
  8
0
 10
5.10277
 20
475.208
 11
5.66312
 21
475.886
  0
LINE
  8
0
 10
5.66312
 20
475.886
 11
6.13414
 21
476.628
  0
LINE
  8
0
 10
6.13414
 20
476.628
 11
6.50842
 21
477.423
  0
LINE
  8
0
 10
6.50842
 20
477.423
 11
6.78008
 21
478.259
  0
LINE
  8
0
 10
6.78008
 20
478.259
 11
6.94479
 21
479.123
  0
LINE
  8
0
 10
6.94479
 20
479.123
 11
7
 21
480
  0
LINE
  8
0
 10
7
 20
480
 11
6.94479
 21
480.877
  0
LINE
  8
0
 10
6.94479
 20
480.877
 11
6.78008
 21
481.741
  0
LINE
  8
0
 10
6.78008
 20
481.741
 11
6.50842
 21
482.577
  0
LINE
  8
0
 10
6.50842
 20
482.577
 11
6.13414
 21
483.372
  0
LINE
  8
0
 10
6.13414
 20
483.372
 11
5.66312
 21
484.114
  0
LINE
  8
0
 10
5.66312
 20
484.114
 11
5.10277
 21
484.792
  0
LINE
  8
0
 10
5.10277
 20
484.792
 11
4.46196
 21
485.394
  0
LINE
  8
0
 10
4.46196
 20
485.394
 11
3.75078
 21
485.91
  0
LINE
  8
0
 10
3.75078
 20
485.91
 11
2.98045
 21
486.334
  0
LINE
  8
0
 10
2.98045
 20
486.334
 11
2.16312
 21
486.657
  0
LINE
  8
0
 10
2.16312
 20
486.657
 11
1.31166
 21
486.876
  0
LINE
  8
0
 10
1.31166
 20
486.876
 11
0.439529
 21
486.986
  0
LINE
  8
0
 10
0.439529
 20
486.986
 11
-0.439529
 21
486.986
  0
LINE
  8
0
 10
-0.439529
 20
486.986
 11
-1.31166
 21
486.876
  0
LINE
  8
0
 10
-1.31166
 20
486.876
 11
-2.16312
 21
486.657
  0
LINE
  8
0
 10
-2.16312
 20
486.657
 11
-2.98045
 21
486.334
  0
LINE
  8
0
 10
-2.98045
 20
486.334
 11
-3.75078
 21
485.91
  0
LINE
  8
0
 10
-3.75078
 20
485.91
 11
-4.46196
 21
485.394
  0
LINE
  8
0
 10
-4.46196
 20
485.394
 11
-5.10277
 21
484.792
  0
LINE
  8
0
 10
-5.10277
 20
484.792
 11
-5.66312
 21
484.114
  0
LINE
  8
0
 10
-5.66312
 20
484.114
 11
-6.13414
 21
483.372
  0
LINE
  8
0
 10
-6.13414
 20
483.372
 11
-6.50842
 21
482.577
  0
LINE
  8
0
 10
-6.50842
 20
482.577
 11
-6.78008
 21
481.741
  0
LINE
  8
0
 10
-6.78008
 20
481.741
 11
-6.94479
 21
480.877
  0
LINE
  8
0
 10
-6.94479
 20
480.877
 11
-7
 21
480
  0
LINE
  8
0
 10
-7
 20
480
 11
-6.94479
 21
479.123
  0
LINE
  8
0
 10
-6.94479
 20
479.123
 11
-6.78008
 21
478.259
  0
LINE
  8
0
 10
-6.78008
 20
478.259
 11
-6.50842
 21
477.423
  0
LINE
  8
0
 10
-6.50842
 20
477.423
 11
-6.13414
 21
476.628
  0
LINE
  8
0
 10
-6.13414
 20
476.628
 11
-5.66312
 21
475.886
  0
LINE
  8
0
 10
-5.66312
 20
475.886
 11
-5.10277
 21
475.208
  0
LINE
  8
0
 10
-5.10277
 20
475.208
 11
-4.46196
 21
474.606
  0
LINE
  8
0
 10
-4.46196
 20
474.606
 11
-3.75078
 21
474.09
  0
LINE
  8
0
 10
-3.75078
 20
474.09
 11
-2.98045
 21
473.666
  0
LINE
  8
0
 10
-2.98045
 20
473.666
 11
-2.16312
 21
473.343
  0
LINE
  8
0
 10
-2.16312
 20
473.343
 11
-1.31166
 21
473.124
  0
LINE
  8
0
 10
-1.31166
 20
473.124
 11
-0.439529
 21
473.014
  0
LINE
  8
0
 10
-0.439529
 20
473.014
 11
0.439529
 21
473.014
  0
LINE
  8
0
 10
0.439529
 20
473.014
 11
1.31166
 21
473.124
  0
LINE
  8
0
 10
-0.0941772
 20
478.503
 11
-0.281067
 21
478.527
  0
LINE
  8
0
 10
-0.281067
 20
478.527
 11
-0.463516
 21
478.573
  0
LINE
  8
0
 10
-0.463516
 20
478.573
 11
-0.638657
 21
478.643
  0
LINE
  8
0
 10
-0.638657
 20
478.643
 11
-0.803726
 21
478.734
  0
LINE
  8
0
 10
-0.803726
 20
478.734
 11
-0.956131
 21
478.844
  0
LINE
  8
0
 10
-0.956131
 20
478.844
 11
-1.09344
 21
478.973
  0
LINE
  8
0
 10
-1.09344
 20
478.973
 11
-1.21352
 21
479.118
  0
LINE
  8
0
 10
-1.21352
 20
479.118
 11
-1.31445
 21
479.277
  0
LINE
  8
0
 10
-1.31445
 20
479.277
 11
-1.39465
 21
479.448
  0
LINE
  8
0
 10
-1.39465
 20
479.448
 11
-1.45287
 21
479.627
  0
LINE
  8
0
 10
-1.45287
 20
479.627
 11
-1.48816
 21
479.812
  0
LINE
  8
0
 10
-1.48816
 20
479.812
 11
-1.5
 21
480
  0
LINE
  8
0
 10
-1.5
 20
480
 11
-1.48816
 21
480.188
  0
LINE
  8
0
 10
-1.48816
 20
480.188
 11
-1.45287
 21
480.373
  0
LINE
  8
0
 10
-1.45287
 20
480.373
 11
-1.39465
 21
480.552
  0
LINE
  8
0
 10
-1.39465
 20
480.552
 11
-1.31445
 21
480.723
  0
LINE
  8
0
 10
-1.31445
 20
480.723
 11
-1.21352
 21
480.882
  0
LINE
  8
0
 10
-1.21352
 20
480.882
 11
-1.09344
 21
481.027
  0
LINE
  8
0
 10
-1.09344
 20
481.027
 11
-0.956131
 21
481.156
  0
LINE
  8
0
 10
-0.956131
 20
481.156
 11
-0.803726
 21
481.266
  0
LINE
  8
0
 10
-0.803726
 20
481.266
 11
-0.638657
 21
481.357
  0
LINE
  8
0
 10
-0.638657
 20
481.357
 11
-0.463516
 21
481.427
  0
LINE
  8
0
 10
-0.463516
 20
481.427
 11
-0.281067
 21
481.473
  0
LINE
  8
0
 10
-0.281067
 20
481.473
 11
-0.0941772
 21
481.497
  0
LINE
  8
0
 10
-0.0941772
 20
481.497
 11
0.0941772
 21
481.497
  0
LINE
  8
0
 10
0.0941772
 20
481.497
 11
0.281067
 21
481.473
  0
LINE
  8
0
 10
0.281067
 20
481.473
 11
0.463516
 21
481.427
  0
LINE
  8
0
 10
0.463516
 20
481.427
 11
0.638657
 21
481.357
  0
LINE
  8
0
 10
0.638657
 20
481.357
 11
0.803726
 21
481.266
  0
LINE
  8
0
 10
0.803726
 20
481.266
 11
0.956131
 21
481.156
  0
LINE
  8
0
 10
0.956131
 20
481.156
 11
1.09344
 21
481.027
  0
LINE
  8
0
 10
1.09344
 20
481.027
 11
1.21352
 21
480.882
  0
LINE
  8
0
 10
1.21352
 20
480.882
 11
1.31445
 21
480.723
  0
LINE
  8
0
 10
1.31445
 20
480.723
 11
1.39465
 21
480.552
  0
LINE
  8
0
 10
1.39465
 20
480.552
 11
1.45287
 21
480.373
  0
LINE
  8
0
 10
1.45287
 20
480.373
 11
1.48816
 21
480.188
  0
LINE
  8
0
 10
1.48816
 20
480.188
 11
1.5
 21
480
  0
LINE
  8
0
 10
1.5
 20
480
 11
1.48816
 21
479.812
  0
LINE
  8
0
 10
1.48816
 20
479.812
 11
1.45287
 21
479.627
  0
LINE
  8
0
 10
1.45287
 20
479.627
 11
1.39465
 21
479.448
  0
LINE
  8
0
 10
1.39465
 20
479.448
 11
1.31445
 21
479.277
  0
LINE
  8
0
 10
1.31445
 20
479.277
 11
1.21352
 21
479.118
  0
LINE
  8
0
 10
1.21352
 20
479.118
 11
1.09344
 21
478.973
  0
LINE
  8
0
 10
1.09344
 20
478.973
 11
0.956131
 21
478.844
  0
LINE
  8
0
 10
0.956131
 20
478.844
 11
0.803726
 21
478.734
  0
LINE
  8
0
 10
0.803726
 20
478.734
 11
0.638657
 21
478.643
  0
LINE
  8
0
 10
0.638657
 20
478.643
 11
0.463516
 21
478.573
  0
LINE
  8
0
 10
0.463516
 20
478.573
 11
0.281067
 21
478.527
  0
LINE
  8
0
 10
0.281067
 20
478.527
 11
0.0941772
 21
478.503
  0
LINE
  8
0
 10
0.0941772
 20
478.503
 11
-0.0941772
 21
478.503
  0
LINE
  8
0
 10
1.31166
 20
449.124
 11
2.16312
 21
449.343
  0
LINE
  8
0
 10
2.16312
 20
449.343
 11
2.98045
 21
449.666
  0
LINE
  8
0
 10
2.98045
 20
449.666
 11
3.75078
 21
450.09
  0
LINE
  8
0
 10
3.75078
 20
450.09
 11
4.46196
 21
450.606
  0
LINE
  8
0
 10
4.46196
 20
450.606
 11
5.10277
 21
451.208
  0
LINE
  8
0
 10
5.10277
 20
451.208
 11
5.66312
 21
451.886
  0
LINE
  8
0
 10
5.66312
 20
451.886
 11
6.13414
 21
452.628
  0
LINE
  8
0
 10
6.13414
 20
452.628
 11
6.50842
 21
453.423
  0
LINE
  8
0
 10
6.50842
 20
453.423
 11
6.78008
 21
454.259
  0
LINE
  8
0
 10
6.78008
 20
454.259
 11
6.94479
 21
455.123
  0
LINE
  8
0
 10
6.94479
 20
455.123
 11
7
 21
456
  0
LINE
  8
0
 10
7
 20
456
 11
6.94479
 21
456.877
  0
LINE
  8
0
 10
6.94479
 20
456.877
 11
6.78008
 21
457.741
  0
LINE
  8
0
 10
6.78008
 20
457.741
 11
6.50842
 21
458.577
  0
LINE
  8
0
 10
6.50842
 20
458.577
 11
6.13414
 21
459.372
  0
LINE
  8
0
 10
6.13414
 20
459.372
 11
5.66312
 21
460.114
  0
LINE
  8
0
 10
5.66312
 20
460.114
 11
5.10277
 21
460.792
  0
LINE
  8
0
 10
5.10277
 20
460.792
 11
4.46196
 21
461.394
  0
LINE
  8
0
 10
4.46196
 20
461.394
 11
3.75078
 21
461.91
  0
LINE
  8
0
 10
3.75078
 20
461.91
 11
2.98045
 21
462.334
  0
LINE
  8
0
 10
2.98045
 20
462.334
 11
2.16312
 21
462.657
  0
LINE
  8
0
 10
2.16312
 20
462.657
 11
1.31166
 21
462.876
  0
LINE
  8
0
 10
1.31166
 20
462.876
 11
0.439529
 21
462.986
  0
LINE
  8
0
 10
0.439529
 20
462.986
 11
-0.439529
 21
462.986
  0
LINE
  8
0
 10
-0.439529
 20
462.986
 11
-1.31166
 21
462.876
  0
LINE
  8
0
 10
-1.31166
 20
462.876
 11
-2.16312
 21
462.657
  0
LINE
  8
0
 10
-2.16312
 20
462.657
 11
-2.98045
 21
462.334
  0
LINE
  8
0
 10
-2.98045
 20
462.334
 11
-3.75078
 21
461.91
  0
LINE
  8
0
 10
-3.75078
 20
461.91
 11
-4.46196
 21
461.394
  0
LINE
  8
0
 10
-4.46196
 20
461.394
 11
-5.10277
 21
460.792
  0
LINE
  8
0
 10
-5.10277
 20
460.792
 11
-5.66312
 21
460.114
  0
LINE
  8
0
 10
-5.66312
 20
460.114
 11
-6.13414
 21
459.372
  0
LINE
  8
0
 10
-6.13414
 20
459.372
 11
-6.50842
 21
458.577
  0
LINE
  8
0
 10
-6.50842
 20
458.577
 11
-6.78008
 21
457.741
  0
LINE
  8
0
 10
-6.78008
 20
457.741
 11
-6.94479
 21
456.877
  0
LINE
  8
0
 10
-6.94479
 20
456.877
 11
-7
 21
456
  0
LINE
  8
0
 10
-7
 20
456
 11
-6.94479
 21
455.123
  0
LINE
  8
0
 10
-6.94479
 20
455.123
 11
-6.78008
 21
454.259
  0
LINE
  8
0
 10
-6.78008
 20
454.259
 11
-6.50842
 21
453.423
  0
LINE
  8
0
 10
-6.50842
 20
453.423
 11
-6.13414
 21
452.628
  0
LINE
  8
0
 10
-6.13414
 20
452.628
 11
-5.66312
 21
451.886
  0
LINE
  8
0
 10
-5.66312
 20
451.886
 11
-5.10277
 21
451.208
  0
LINE
  8
0
 10
-5.10277
 20
451.208
 11
-4.46196
 21
450.606
  0
LINE
  8
0
 10
-4.46196
 20
450.606
 11
-3.75078
 21
450.09
  0
LINE
  8
0
 10
-3.75078
 20
450.09
 11
-2.98045
 21
449.666
  0
LINE
  8
0
 10
-2.98045
 20
449.666
 11
-2.16312
 21
449.343
  0
LINE
  8
0
 10
-2.16312
 20
449.343
 11
-1.31166
 21
449.124
  0
LINE
  8
0
 10
-1.31166
 20
449.124
 11
-0.439529
 21
449.014
  0
LINE
  8
0
 10
-0.439529
 20
449.014
 11
0.439529
 21
449.014
  0
LINE
  8
0
 10
0.439529
 20
449.014
 11
1.31166
 21
449.124
  0
LINE
  8
0
 10
-0.0941772
 20
454.503
 11
-0.281067
 21
454.527
  0
LINE
  8
0
 10
-0.281067
 20
454.527
 11
-0.463516
 21
454.573
  0
LINE
  8
0
 10
-0.463516
 20
454.573
 11
-0.638657
 21
454.643
  0
LINE
  8
0
 10
-0.638657
 20
454.643
 11
-0.803726
 21
454.734
  0
LINE
  8
0
 10
-0.803726
 20
454.734
 11
-0.956131
 21
454.844
  0
LINE
  8
0
 10
-0.956131
 20
454.844
 11
-1.09344
 21
454.973
  0
LINE
  8
0
 10
-1.09344
 20
454.973
 11
-1.21352
 21
455.118
  0
LINE
  8
0
 10
-1.21352
 20
455.118
 11
-1.31445
 21
455.277
  0
LINE
  8
0
 10
-1.31445
 20
455.277
 11
-1.39465
 21
455.448
  0
LINE
  8
0
 10
-1.39465
 20
455.448
 11
-1.45287
 21
455.627
  0
LINE
  8
0
 10
-1.45287
 20
455.627
 11
-1.48816
 21
455.812
  0
LINE
  8
0
 10
-1.48816
 20
455.812
 11
-1.5
 21
456
  0
LINE
  8
0
 10
-1.5
 20
456
 11
-1.48816
 21
456.188
  0
LINE
  8
0
 10
-1.48816
 20
456.188
 11
-1.45287
 21
456.373
  0
LINE
  8
0
 10
-1.45287
 20
456.373
 11
-1.39465
 21
456.552
  0
LINE
  8
0
 10
-1.39465
 20
456.552
 11
-1.31445
 21
456.723
  0
LINE
  8
0
 10
-1.31445
 20
456.723
 11
-1.21352
 21
456.882
  0
LINE
  8
0
 10
-1.21352
 20
456.882
 11
-1.09344
 21
457.027
  0
LINE
  8
0
 10
-1.09344
 20
457.027
 11
-0.956131
 21
457.156
  0
LINE
  8
0
 10
-0.956131
 20
457.156
 11
-0.803726
 21
457.266
  0
LINE
  8
0
 10
-0.803726
 20
457.266
 11
-0.638657
 21
457.357
  0
LINE
  8
0
 10
-0.638657
 20
457.357
 11
-0.463516
 21
457.427
  0
LINE
  8
0
 10
-0.463516
 20
457.427
 11
-0.281067
 21
457.473
  0
LINE
  8
0
 10
-0.281067
 20
457.473
 11
-0.0941772
 21
457.497
  0
LINE
  8
0
 10
-0.0941772
 20
457.497
 11
0.0941772
 21
457.497
  0
LINE
  8
0
 10
0.0941772
 20
457.497
 11
0.281067
 21
457.473
  0
LINE
  8
0
 10
0.281067
 20
457.473
 11
0.463516
 21
457.427
  0
LINE
  8
0
 10
0.463516
 20
457.427
 11
0.638657
 21
457.357
  0
LINE
  8
0
 10
0.638657
 20
457.357
 11
0.803726
 21
457.266
  0
LINE
  8
0
 10
0.803726
 20
457.266
 11
0.956131
 21
457.156
  0
LINE
  8
0
 10
0.956131
 20
457.156
 11
1.09344
 21
457.027
  0
LINE
  8
0
 10
1.09344
 20
457.027
 11
1.21352
 21
456.882
  0
LINE
  8
0
 10
1.21352
 20
456.882
 11
1.31445
 21
456.723
  0
LINE
  8
0
 10
1.31445
 20
456.723
 11
1.39465
 21
456.552
  0
LINE
  8
0
 10
1.39465
 20
456.552
 11
1.45287
 21
456.373
  0
LINE
  8
0
 10
1.45287
 20
456.373
 11
1.48816
 21
456.188
  0
LINE
  8
0
 10
1.48816
 20
456.188
 11
1.5
 21
456
  0
LINE
  8
0
 10
1.5
 20
456
 11
1.48816
 21
455.812
  0
LINE
  8
0
 10
1.48816
 20
455.812
 11
1.45287
 21
455.627
  0
LINE
  8
0
 10
1.45287
 20
455.627
 11
1.39465
 21
455.448
  0
LINE
  8
0
 10
1.39465
 20
455.448
 11
1.31445
 21
455.277
  0
LINE
  8
0
 10
1.31445
 20
455.277
 11
1.21352
 21
455.118
  0
LINE
  8
0
 10
1.21352
 20
455.118
 11
1.09344
 21
454.973
  0
LINE
  8
0
 10
1.09344
 20
454.973
 11
0.956131
 21
454.844
  0
LINE
  8
0
 10
0.956131
 20
454.844
 11
0.803726
 21
454.734
  0
LINE
  8
0
 10
0.803726
 20
454.734
 11
0.638657
 21
454.643
  0
LINE
  8
0
 10
0.638657
 20
454.643
 11
0.463516
 21
454.573
  0
LINE
  8
0
 10
0.463516
 20
454.573
 11
0.281067
 21
454.527
  0
LINE
  8
0
 10
0.281067
 20
454.527
 11
0.0941772
 21
454.503
  0
LINE
  8
0
 10
0.0941772
 20
454.503
 11
-0.0941772
 21
454.503
  0
LINE
  8
0
 10
1.31166
 20
425.124
 11
2.16312
 21
425.343
  0
LINE
  8
0
 10
2.16312
 20
425.343
 11
2.98045
 21
425.666
  0
LINE
  8
0
 10
2.98045
 20
425.666
 11
3.75078
 21
426.09
  0
LINE
  8
0
 10
3.75078
 20
426.09
 11
4.46196
 21
426.606
  0
LINE
  8
0
 10
4.46196
 20
426.606
 11
5.10277
 21
427.208
  0
LINE
  8
0
 10
5.10277
 20
427.208
 11
5.66312
 21
427.886
  0
LINE
  8
0
 10
5.66312
 20
427.886
 11
6.13414
 21
428.628
  0
LINE
  8
0
 10
6.13414
 20
428.628
 11
6.50842
 21
429.423
  0
LINE
  8
0
 10
6.50842
 20
429.423
 11
6.78008
 21
430.259
  0
LINE
  8
0
 10
6.78008
 20
430.259
 11
6.94479
 21
431.123
  0
LINE
  8
0
 10
6.94479
 20
431.123
 11
7
 21
432
  0
LINE
  8
0
 10
7
 20
432
 11
6.94479
 21
432.877
  0
LINE
  8
0
 10
6.94479
 20
432.877
 11
6.78008
 21
433.741
  0
LINE
  8
0
 10
6.78008
 20
433.741
 11
6.50842
 21
434.577
  0
LINE
  8
0
 10
6.50842
 20
434.577
 11
6.13414
 21
435.372
  0
LINE
  8
0
 10
6.13414
 20
435.372
 11
5.66312
 21
436.114
  0
LINE
  8
0
 10
5.66312
 20
436.114
 11
5.10277
 21
436.792
  0
LINE
  8
0
 10
5.10277
 20
436.792
 11
4.46196
 21
437.394
  0
LINE
  8
0
 10
4.46196
 20
437.394
 11
3.75078
 21
437.91
  0
LINE
  8
0
 10
3.75078
 20
437.91
 11
2.98045
 21
438.334
  0
LINE
  8
0
 10
2.98045
 20
438.334
 11
2.16312
 21
438.657
  0
LINE
  8
0
 10
2.16312
 20
438.657
 11
1.31166
 21
438.876
  0
LINE
  8
0
 10
1.31166
 20
438.876
 11
0.439529
 21
438.986
  0
LINE
  8
0
 10
0.439529
 20
438.986
 11
-0.439529
 21
438.986
  0
LINE
  8
0
 10
-0.439529
 20
438.986
 11
-1.31166
 21
438.876
  0
LINE
  8
0
 10
-1.31166
 20
438.876
 11
-2.16312
 21
438.657
  0
LINE
  8
0
 10
-2.16312
 20
438.657
 11
-2.98045
 21
438.334
  0
LINE
  8
0
 10
-2.98045
 20
438.334
 11
-3.75078
 21
437.91
  0
LINE
  8
0
 10
-3.75078
 20
437.91
 11
-4.46196
 21
437.394
  0
LINE
  8
0
 10
-4.46196
 20
437.394
 11
-5.10277
 21
436.792
  0
LINE
  8
0
 10
-5.10277
 20
436.792
 11
-5.66312
 21
436.114
  0
LINE
  8
0
 10
-5.66312
 20
436.114
 11
-6.13414
 21
435.372
  0
LINE
  8
0
 10
-6.13414
 20
435.372
 11
-6.50842
 21
434.577
  0
LINE
  8
0
 10
-6.50842
 20
434.577
 11
-6.78008
 21
433.741
  0
LINE
  8
0
 10
-6.78008
 20
433.741
 11
-6.94479
 21
432.877
  0
LINE
  8
0
 10
-6.94479
 20
432.877
 11
-7
 21
432
  0
LINE
  8
0
 10
-7
 20
432
 11
-6.94479
 21
431.123
  0
LINE
  8
0
 10
-6.94479
 20
431.123
 11
-6.78008
 21
430.259
  0
LINE
  8
0
 10
-6.78008
 20
430.259
 11
-6.50842
 21
429.423
  0
LINE
  8
0
 10
-6.50842
 20
429.423
 11
-6.13414
 21
428.628
  0
LINE
  8
0
 10
-6.13414
 20
428.628
 11
-5.66312
 21
427.886
  0
LINE
  8
0
 10
-5.66312
 20
427.886
 11
-5.10277
 21
427.208
  0
LINE
  8
0
 10
-5.10277
 20
427.208
 11
-4.46196
 21
426.606
  0
LINE
  8
0
 10
-4.46196
 20
426.606
 11
-3.75078
 21
426.09
  0
LINE
  8
0
 10
-3.75078
 20
426.09
 11
-2.98045
 21
425.666
  0
LINE
  8
0
 10
-2.98045
 20
425.666
 11
-2.16312
 21
425.343
  0
LINE
  8
0
 10
-2.16312
 20
425.343
 11
-1.31166
 21
425.124
  0
LINE
  8
0
 10
-1.31166
 20
425.124
 11
-0.439529
 21
425.014
  0
LINE
  8
0
 10
-0.439529
 20
425.014
 11
0.439529
 21
425.014
  0
LINE
  8
0
 10
0.439529
 20
425.014
 11
1.31166
 21
425.124
  0
LINE
  8
0
 10
-0.0941772
 20
430.503
 11
-0.281067
 21
430.527
  0
LINE
  8
0
 10
-0.281067
 20
430.527
 11
-0.463516
 21
430.573
  0
LINE
  8
0
 10
-0.463516
 20
430.573
 11
-0.638657
 21
430.643
  0
LINE
  8
0
 10
-0.638657
 20
430.643
 11
-0.803726
 21
430.734
  0
LINE
  8
0
 10
-0.803726
 20
430.734
 11
-0.956131
 21
430.844
  0
LINE
  8
0
 10
-0.956131
 20
430.844
 11
-1.09344
 21
430.973
  0
LINE
  8
0
 10
-1.09344
 20
430.973
 11
-1.21352
 21
431.118
  0
LINE
  8
0
 10
-1.21352
 20
431.118
 11
-1.31445
 21
431.277
  0
LINE
  8
0
 10
-1.31445
 20
431.277
 11
-1.39465
 21
431.448
  0
LINE
  8
0
 10
-1.39465
 20
431.448
 11
-1.45287
 21
431.627
  0
LINE
  8
0
 10
-1.45287
 20
431.627
 11
-1.48816
 21
431.812
  0
LINE
  8
0
 10
-1.48816
 20
431.812
 11
-1.5
 21
432
  0
LINE
  8
0
 10
-1.5
 20
432
 11
-1.48816
 21
432.188
  0
LINE
  8
0
 10
-1.48816
 20
432.188
 11
-1.45287
 21
432.373
  0
LINE
  8
0
 10
-1.45287
 20
432.373
 11
-1.39465
 21
432.552
  0
LINE
  8
0
 10
-1.39465
 20
432.552
 11
-1.31445
 21
432.723
  0
LINE
  8
0
 10
-1.31445
 20
432.723
 11
-1.21352
 21
432.882
  0
LINE
  8
0
 10
-1.21352
 20
432.882
 11
-1.09344
 21
433.027
  0
LINE
  8
0
 10
-1.09344
 20
433.027
 11
-0.956131
 21
433.156
  0
LINE
  8
0
 10
-0.956131
 20
433.156
 11
-0.803726
 21
433.266
  0
LINE
  8
0
 10
-0.803726
 20
433.266
 11
-0.638657
 21
433.357
  0
LINE
  8
0
 10
-0.638657
 20
433.357
 11
-0.463516
 21
433.427
  0
LINE
  8
0
 10
-0.463516
 20
433.427
 11
-0.281067
 21
433.473
  0
LINE
  8
0
 10
-0.281067
 20
433.473
 11
-0.0941772
 21
433.497
  0
LINE
  8
0
 10
-0.0941772
 20
433.497
 11
0.0941772
 21
433.497
  0
LINE
  8
0
 10
0.0941772
 20
433.497
 11
0.281067
 21
433.473
  0
LINE
  8
0
 10
0.281067
 20
433.473
 11
0.463516
 21
433.427
  0
LINE
  8
0
 10
0.463516
 20
433.427
 11
0.638657
 21
433.357
  0
LINE
  8
0
 10
0.638657
 20
433.357
 11
0.803726
 21
433.266
  0
LINE
  8
0
 10
0.803726
 20
433.266
 11
0.956131
 21
433.156
  0
LINE
  8
0
 10
0.956131
 20
433.156
 11
1.09344
 21
433.027
  0
LINE
  8
0
 10
1.09344
 20
433.027
 11
1.21352
 21
432.882
  0
LINE
  8
0
 10
1.21352
 20
432.882
 11
1.31445
 21
432.723
  0
LINE
  8
0
 10
1.31445
 20
432.723
 11
1.39465
 21
432.552
  0
LINE
  8
0
 10
1.39465
 20
432.552
 11
1.45287
 21
432.373
  0
LINE
  8
0
 10
1.45287
 20
432.373
 11
1.48816
 21
432.188
  0
LINE
  8
0
 10
1.48816
 20
432.188
 11
1.5
 21
432
  0
LINE
  8
0
 10
1.5
 20
432
 11
1.48816
 21
431.812
  0
LINE
  8
0
 10
1.48816
 20
431.812
 11
1.45287
 21
431.627
  0
LINE
  8
0
 10
1.45287
 20
431.627
 11
1.39465
 21
431.448
  0
LINE
  8
0
 10
1.39465
 20
431.448
 11
1.31445
 21
431.277
  0
LINE
  8
0
 10
1.31445
 20
431.277
 11
1.21352
 21
431.118
  0
LINE
  8
0
 10
1.21352
 20
431.118
 11
1.09344
 21
430.973
  0
LINE
  8
0
 10
1.09344
 20
430.973
 11
0.956131
 21
430.844
  0
LINE
  8
0
 10
0.956131
 20
430.844
 11
0.803726
 21
430.734
  0
LINE
  8
0
 10
0.803726
 20
430.734
 11
0.638657
 21
430.643
  0
LINE
  8
0
 10
0.638657
 20
430.643
 11
0.463516
 21
430.573
  0
LINE
  8
0
 10
0.463516
 20
430.573
 11
0.281067
 21
430.527
  0
LINE
  8
0
 10
0.281067
 20
430.527
 11
0.0941772
 21
430.503
  0
LINE
  8
0
 10
0.0941772
 20
430.503
 11
-0.0941772
 21
430.503
  0
LINE
  8
0
 10
1.31166
 20
401.124
 11
2.16312
 21
401.343
  0
LINE
  8
0
 10
2.16312
 20
401.343
 11
2.98045
 21
401.666
  0
LINE
  8
0
 10
2.98045
 20
401.666
 11
3.75078
 21
402.09
  0
LINE
  8
0
 10
3.75078
 20
402.09
 11
4.46196
 21
402.606
  0
LINE
  8
0
 10
4.46196
 20
402.606
 11
5.10277
 21
403.208
  0
LINE
  8
0
 10
5.10277
 20
403.208
 11
5.66312
 21
403.886
  0
LINE
  8
0
 10
5.66312
 20
403.886
 11
6.13414
 21
404.628
  0
LINE
  8
0
 10
6.13414
 20
404.628
 11
6.50842
 21
405.423
  0
LINE
  8
0
 10
6.50842
 20
405.423
 11
6.78008
 21
406.259
  0
LINE
  8
0
 10
6.78008
 20
406.259
 11
6.94479
 21
407.123
  0
LINE
  8
0
 10
6.94479
 20
407.123
 11
7
 21
408
  0
LINE
  8
0
 10
7
 20
408
 11
6.94479
 21
408.877
  0
LINE
  8
0
 10
6.94479
 20
408.877
 11
6.78008
 21
409.741
  0
LINE
  8
0
 10
6.78008
 20
409.741
 11
6.50842
 21
410.577
  0
LINE
  8
0
 10
6.50842
 20
410.577
 11
6.13414
 21
411.372
  0
LINE
  8
0
 10
6.13414
 20
411.372
 11
5.66312
 21
412.114
  0
LINE
  8
0
 10
5.66312
 20
412.114
 11
5.10277
 21
412.792
  0
LINE
  8
0
 10
5.10277
 20
412.792
 11
4.46196
 21
413.394
  0
LINE
  8
0
 10
4.46196
 20
413.394
 11
3.75078
 21
413.91
  0
LINE
  8
0
 10
3.75078
 20
413.91
 11
2.98045
 21
414.334
  0
LINE
  8
0
 10
2.98045
 20
414.334
 11
2.16312
 21
414.657
  0
LINE
  8
0
 10
2.16312
 20
414.657
 11
1.31166
 21
414.876
  0
LINE
  8
0
 10
1.31166
 20
414.876
 11
0.439529
 21
414.986
  0
LINE
  8
0
 10
0.439529
 20
414.986
 11
-0.439529
 21
414.986
  0
LINE
  8
0
 10
-0.439529
 20
414.986
 11
-1.31166
 21
414.876
  0
LINE
  8
0
 10
-1.31166
 20
414.876
 11
-2.16312
 21
414.657
  0
LINE
  8
0
 10
-2.16312
 20
414.657
 11
-2.98045
 21
414.334
  0
LINE
  8
0
 10
-2.98045
 20
414.334
 11
-3.75078
 21
413.91
  0
LINE
  8
0
 10
-3.75078
 20
413.91
 11
-4.46196
 21
413.394
  0
LINE
  8
0
 10
-4.46196
 20
413.394
 11
-5.10277
 21
412.792
  0
LINE
  8
0
 10
-5.10277
 20
412.792
 11
-5.66312
 21
412.114
  0
LINE
  8
0
 10
-5.66312
 20
412.114
 11
-6.13414
 21
411.372
  0
LINE
  8
0
 10
-6.13414
 20
411.372
 11
-6.50842
 21
410.577
  0
LINE
  8
0
 10
-6.50842
 20
410.577
 11
-6.78008
 21
409.741
  0
LINE
  8
0
 10
-6.78008
 20
409.741
 11
-6.94479
 21
408.877
  0
LINE
  8
0
 10
-6.94479
 20
408.877
 11
-7
 21
408
  0
LINE
  8
0
 10
-7
 20
408
 11
-6.94479
 21
407.123
  0
LINE
  8
0
 10
-6.94479
 20
407.123
 11
-6.78008
 21
406.259
  0
LINE
  8
0
 10
-6.78008
 20
406.259
 11
-6.50842
 21
405.423
  0
LINE
  8
0
 10
-6.50842
 20
405.423
 11
-6.13414
 21
404.628
  0
LINE
  8
0
 10
-6.13414
 20
404.628
 11
-5.66312
 21
403.886
  0
LINE
  8
0
 10
-5.66312
 20
403.886
 11
-5.10277
 21
403.208
  0
LINE
  8
0
 10
-5.10277
 20
403.208
 11
-4.46196
 21
402.606
  0
LINE
  8
0
 10
-4.46196
 20
402.606
 11
-3.75078
 21
402.09
  0
LINE
  8
0
 10
-3.75078
 20
402.09
 11
-2.98045
 21
401.666
  0
LINE
  8
0
 10
-2.98045
 20
401.666
 11
-2.16312
 21
401.343
  0
LINE
  8
0
 10
-2.16312
 20
401.343
 11
-1.31166
 21
401.124
  0
LINE
  8
0
 10
-1.31166
 20
401.124
 11
-0.439529
 21
401.014
  0
LINE
  8
0
 10
-0.439529
 20
401.014
 11
0.439529
 21
401.014
  0
LINE
  8
0
 10
0.439529
 20
401.014
 11
1.31166
 21
401.124
  0
LINE
  8
0
 10
-0.0941772
 20
406.503
 11
-0.281067
 21
406.527
  0
LINE
  8
0
 10
-0.281067
 20
406.527
 11
-0.463516
 21
406.573
  0
LINE
  8
0
 10
-0.463516
 20
406.573
 11
-0.638657
 21
406.643
  0
LINE
  8
0
 10
-0.638657
 20
406.643
 11
-0.803726
 21
406.734
  0
LINE
  8
0
 10
-0.803726
 20
406.734
 11
-0.956131
 21
406.844
  0
LINE
  8
0
 10
-0.956131
 20
406.844
 11
-1.09344
 21
406.973
  0
LINE
  8
0
 10
-1.09344
 20
406.973
 11
-1.21352
 21
407.118
  0
LINE
  8
0
 10
-1.21352
 20
407.118
 11
-1.31445
 21
407.277
  0
LINE
  8
0
 10
-1.31445
 20
407.277
 11
-1.39465
 21
407.448
  0
LINE
  8
0
 10
-1.39465
 20
407.448
 11
-1.45287
 21
407.627
  0
LINE
  8
0
 10
-1.45287
 20
407.627
 11
-1.48816
 21
407.812
  0
LINE
  8
0
 10
-1.48816
 20
407.812
 11
-1.5
 21
408
  0
LINE
  8
0
 10
-1.5
 20
408
 11
-1.48816
 21
408.188
  0
LINE
  8
0
 10
-1.48816
 20
408.188
 11
-1.45287
 21
408.373
  0
LINE
  8
0
 10
-1.45287
 20
408.373
 11
-1.39465
 21
408.552
  0
LINE
  8
0
 10
-1.39465
 20
408.552
 11
-1.31445
 21
408.723
  0
LINE
  8
0
 10
-1.31445
 20
408.723
 11
-1.21352
 21
408.882
  0
LINE
  8
0
 10
-1.21352
 20
408.882
 11
-1.09344
 21
409.027
  0
LINE
  8
0
 10
-1.09344
 20
409.027
 11
-0.956131
 21
409.156
  0
LINE
  8
0
 10
-0.956131
 20
409.156
 11
-0.803726
 21
409.266
  0
LINE
  8
0
 10
-0.803726
 20
409.266
 11
-0.638657
 21
409.357
  0
LINE
  8
0
 10
-0.638657
 20
409.357
 11
-0.463516
 21
409.427
  0
LINE
  8
0
 10
-0.463516
 20
409.427
 11
-0.281067
 21
409.473
  0
LINE
  8
0
 10
-0.281067
 20
409.473
 11
-0.0941772
 21
409.497
  0
LINE
  8
0
 10
-0.0941772
 20
409.497
 11
0.0941772
 21
409.497
  0
LINE
  8
0
 10
0.0941772
 20
409.497
 11
0.281067
 21
409.473
  0
LINE
  8
0
 10
0.281067
 20
409.473
 11
0.463516
 21
409.427
  0
LINE
  8
0
 10
0.463516
 20
409.427
 11
0.638657
 21
409.357
  0
LINE
  8
0
 10
0.638657
 20
409.357
 11
0.803726
 21
409.266
  0
LINE
  8
0
 10
0.803726
 20
409.266
 11
0.956131
 21
409.156
  0
LINE
  8
0
 10
0.956131
 20
409.156
 11
1.09344
 21
409.027
  0
LINE
  8
0
 10
1.09344
 20
409.027
 11
1.21352
 21
408.882
  0
LINE
  8
0
 10
1.21352
 20
408.882
 11
1.31445
 21
408.723
  0
LINE
  8
0
 10
1.31445
 20
408.723
 11
1.39465
 21
408.552
  0
LINE
  8
0
 10
1.39465
 20
408.552
 11
1.45287
 21
408.373
  0
LINE
  8
0
 10
1.45287
 20
408.373
 11
1.48816
 21
408.188
  0
LINE
  8
0
 10
1.48816
 20
408.188
 11
1.5
 21
408
  0
LINE
  8
0
 10
1.5
 20
408
 11
1.48816
 21
407.812
  0
LINE
  8
0
 10
1.48816
 20
407.812
 11
1.45287
 21
407.627
  0
LINE
  8
0
 10
1.45287
 20
407.627
 11
1.39465
 21
407.448
  0
LINE
  8
0
 10
1.39465
 20
407.448
 11
1.31445
 21
407.277
  0
LINE
  8
0
 10
1.31445
 20
407.277
 11
1.21352
 21
407.118
  0
LINE
  8
0
 10
1.21352
 20
407.118
 11
1.09344
 21
406.973
  0
LINE
  8
0
 10
1.09344
 20
406.973
 11
0.956131
 21
406.844
  0
LINE
  8
0
 10
0.956131
 20
406.844
 11
0.803726
 21
406.734
  0
LINE
  8
0
 10
0.803726
 20
406.734
 11
0.638657
 21
406.643
  0
LINE
  8
0
 10
0.638657
 20
406.643
 11
0.463516
 21
406.573
  0
LINE
  8
0
 10
0.463516
 20
406.573
 11
0.281067
 21
406.527
  0
LINE
  8
0
 10
0.281067
 20
406.527
 11
0.0941772
 21
406.503
  0
LINE
  8
0
 10
0.0941772
 20
406.503
 11
-0.0941772
 21
406.503
  0
LINE
  8
0
 10
1.31166
 20
377.124
 11
2.16312
 21
377.343
  0
LINE
  8
0
 10
2.16312
 20
377.343
 11
2.98045
 21
377.666
  0
LINE
  8
0
 10
2.98045
 20
377.666
 11
3.75078
 21
378.09
  0
LINE
  8
0
 10
3.75078
 20
378.09
 11
4.46196
 21
378.606
  0
LINE
  8
0
 10
4.46196
 20
378.606
 11
5.10277
 21
379.208
  0
LINE
  8
0
 10
5.10277
 20
379.208
 11
5.66312
 21
379.886
  0
LINE
  8
0
 10
5.66312
 20
379.886
 11
6.13414
 21
380.628
  0
LINE
  8
0
 10
6.13414
 20
380.628
 11
6.50842
 21
381.423
  0
LINE
  8
0
 10
6.50842
 20
381.423
 11
6.78008
 21
382.259
  0
LINE
  8
0
 10
6.78008
 20
382.259
 11
6.94479
 21
383.123
  0
LINE
  8
0
 10
6.94479
 20
383.123
 11
7
 21
384
  0
LINE
  8
0
 10
7
 20
384
 11
6.94479
 21
384.877
  0
LINE
  8
0
 10
6.94479
 20
384.877
 11
6.78008
 21
385.741
  0
LINE
  8
0
 10
6.78008
 20
385.741
 11
6.50842
 21
386.577
  0
LINE
  8
0
 10
6.50842
 20
386.577
 11
6.13414
 21
387.372
  0
LINE
  8
0
 10
6.13414
 20
387.372
 11
5.66312
 21
388.114
  0
LINE
  8
0
 10
5.66312
 20
388.114
 11
5.10277
 21
388.792
  0
LINE
  8
0
 10
5.10277
 20
388.792
 11
4.46196
 21
389.394
  0
LINE
  8
0
 10
4.46196
 20
389.394
 11
3.75078
 21
389.91
  0
LINE
  8
0
 10
3.75078
 20
389.91
 11
2.98045
 21
390.334
  0
LINE
  8
0
 10
2.98045
 20
390.334
 11
2.16312
 21
390.657
  0
LINE
  8
0
 10
2.16312
 20
390.657
 11
1.31166
 21
390.876
  0
LINE
  8
0
 10
1.31166
 20
390.876
 11
0.439529
 21
390.986
  0
LINE
  8
0
 10
0.439529
 20
390.986
 11
-0.439529
 21
390.986
  0
LINE
  8
0
 10
-0.439529
 20
390.986
 11
-1.31166
 21
390.876
  0
LINE
  8
0
 10
-1.31166
 20
390.876
 11
-2.16312
 21
390.657
  0
LINE
  8
0
 10
-2.16312
 20
390.657
 11
-2.98045
 21
390.334
  0
LINE
  8
0
 10
-2.98045
 20
390.334
 11
-3.75078
 21
389.91
  0
LINE
  8
0
 10
-3.75078
 20
389.91
 11
-4.46196
 21
389.394
  0
LINE
  8
0
 10
-4.46196
 20
389.394
 11
-5.10277
 21
388.792
  0
LINE
  8
0
 10
-5.10277
 20
388.792
 11
-5.66312
 21
388.114
  0
LINE
  8
0
 10
-5.66312
 20
388.114
 11
-6.13414
 21
387.372
  0
LINE
  8
0
 10
-6.13414
 20
387.372
 11
-6.50842
 21
386.577
  0
LINE
  8
0
 10
-6.50842
 20
386.577
 11
-6.78008
 21
385.741
  0
LINE
  8
0
 10
-6.78008
 20
385.741
 11
-6.94479
 21
384.877
  0
LINE
  8
0
 10
-6.94479
 20
384.877
 11
-7
 21
384
  0
LINE
  8
0
 10
-7
 20
384
 11
-6.94479
 21
383.123
  0
LINE
  8
0
 10
-6.94479
 20
383.123
 11
-6.78008
 21
382.259
  0
LINE
  8
0
 10
-6.78008
 20
382.259
 11
-6.50842
 21
381.423
  0
LINE
  8
0
 10
-6.50842
 20
381.423
 11
-6.13414
 21
380.628
  0
LINE
  8
0
 10
-6.13414
 20
380.628
 11
-5.66312
 21
379.886
  0
LINE
  8
0
 10
-5.66312
 20
379.886
 11
-5.10277
 21
379.208
  0
LINE
  8
0
 10
-5.10277
 20
379.208
 11
-4.46196
 21
378.606
  0
LINE
  8
0
 10
-4.46196
 20
378.606
 11
-3.75078
 21
378.09
  0
LINE
  8
0
 10
-3.75078
 20
378.09
 11
-2.98045
 21
377.666
  0
LINE
  8
0
 10
-2.98045
 20
377.666
 11
-2.16312
 21
377.343
  0
LINE
  8
0
 10
-2.16312
 20
377.343
 11
-1.31166
 21
377.124
  0
LINE
  8
0
 10
-1.31166
 20
377.124
 11
-0.439529
 21
377.014
  0
LINE
  8
0
 10
-0.439529
 20
377.014
 11
0.439529
 21
377.014
  0
LINE
  8
0
 10
0.439529
 20
377.014
 11
1.31166
 21
377.124
  0
LINE
  8
0
 10
-0.0941772
 20
382.503
 11
-0.281067
 21
382.527
  0
LINE
  8
0
 10
-0.281067
 20
382.527
 11
-0.463516
 21
382.573
  0
LINE
  8
0
 10
-0.463516
 20
382.573
 11
-0.638657
 21
382.643
  0
LINE
  8
0
 10
-0.638657
 20
382.643
 11
-0.803726
 21
382.734
  0
LINE
  8
0
 10
-0.803726
 20
382.734
 11
-0.956131
 21
382.844
  0
LINE
  8
0
 10
-0.956131
 20
382.844
 11
-1.09344
 21
382.973
  0
LINE
  8
0
 10
-1.09344
 20
382.973
 11
-1.21352
 21
383.118
  0
LINE
  8
0
 10
-1.21352
 20
383.118
 11
-1.31445
 21
383.277
  0
LINE
  8
0
 10
-1.31445
 20
383.277
 11
-1.39465
 21
383.448
  0
LINE
  8
0
 10
-1.39465
 20
383.448
 11
-1.45287
 21
383.627
  0
LINE
  8
0
 10
-1.45287
 20
383.627
 11
-1.48816
 21
383.812
  0
LINE
  8
0
 10
-1.48816
 20
383.812
 11
-1.5
 21
384
  0
LINE
  8
0
 10
-1.5
 20
384
 11
-1.48816
 21
384.188
  0
LINE
  8
0
 10
-1.48816
 20
384.188
 11
-1.45287
 21
384.373
  0
LINE
  8
0
 10
-1.45287
 20
384.373
 11
-1.39465
 21
384.552
  0
LINE
  8
0
 10
-1.39465
 20
384.552
 11
-1.31445
 21
384.723
  0
LINE
  8
0
 10
-1.31445
 20
384.723
 11
-1.21352
 21
384.882
  0
LINE
  8
0
 10
-1.21352
 20
384.882
 11
-1.09344
 21
385.027
  0
LINE
  8
0
 10
-1.09344
 20
385.027
 11
-0.956131
 21
385.156
  0
LINE
  8
0
 10
-0.956131
 20
385.156
 11
-0.803726
 21
385.266
  0
LINE
  8
0
 10
-0.803726
 20
385.266
 11
-0.638657
 21
385.357
  0
LINE
  8
0
 10
-0.638657
 20
385.357
 11
-0.463516
 21
385.427
  0
LINE
  8
0
 10
-0.463516
 20
385.427
 11
-0.281067
 21
385.473
  0
LINE
  8
0
 10
-0.281067
 20
385.473
 11
-0.0941772
 21
385.497
  0
LINE
  8
0
 10
-0.0941772
 20
385.497
 11
0.0941772
 21
385.497
  0
LINE
  8
0
 10
0.0941772
 20
385.497
 11
0.281067
 21
385.473
  0
LINE
  8
0
 10
0.281067
 20
385.473
 11
0.463516
 21
385.427
  0
LINE
  8
0
 10
0.463516
 20
385.427
 11
0.638657
 21
385.357
  0
LINE
  8
0
 10
0.638657
 20
385.357
 11
0.803726
 21
385.266
  0
LINE
  8
0
 10
0.803726
 20
385.266
 11
0.956131
 21
385.156
  0
LINE
  8
0
 10
0.956131
 20
385.156
 11
1.09344
 21
385.027
  0
LINE
  8
0
 10
1.09344
 20
385.027
 11
1.21352
 21
384.882
  0
LINE
  8
0
 10
1.21352
 20
384.882
 11
1.31445
 21
384.723
  0
LINE
  8
0
 10
1.31445
 20
384.723
 11
1.39465
 21
384.552
  0
LINE
  8
0
 10
1.39465
 20
384.552
 11
1.45287
 21
384.373
  0
LINE
  8
0
 10
1.45287
 20
384.373
 11
1.48816
 21
384.188
  0
LINE
  8
0
 10
1.48816
 20
384.188
 11
1.5
 21
384
  0
LINE
  8
0
 10
1.5
 20
384
 11
1.48816
 21
383.812
  0
LINE
  8
0
 10
1.48816
 20
383.812
 11
1.45287
 21
383.627
  0
LINE
  8
0
 10
1.45287
 20
383.627
 11
1.39465
 21
383.448
  0
LINE
  8
0
 10
1.39465
 20
383.448
 11
1.31445
 21
383.277
  0
LINE
  8
0
 10
1.31445
 20
383.277
 11
1.21352
 21
383.118
  0
LINE
  8
0
 10
1.21352
 20
383.118
 11
1.09344
 21
382.973
  0
LINE
  8
0
 10
1.09344
 20
382.973
 11
0.956131
 21
382.844
  0
LINE
  8
0
 10
0.956131
 20
382.844
 11
0.803726
 21
382.734
  0
LINE
  8
0
 10
0.803726
 20
382.734
 11
0.638657
 21
382.643
  0
LINE
  8
0
 10
0.638657
 20
382.643
 11
0.463516
 21
382.573
  0
LINE
  8
0
 10
0.463516
 20
382.573
 11
0.281067
 21
382.527
  0
LINE
  8
0
 10
0.281067
 20
382.527
 11
0.0941772
 21
382.503
  0
LINE
  8
0
 10
0.0941772
 20
382.503
 11
-0.0941772
 21
382.503
  0
LINE
  8
0
 10
1.31166
 20
353.124
 11
2.16312
 21
353.343
  0
LINE
  8
0
 10
2.16312
 20
353.343
 11
2.98045
 21
353.666
  0
LINE
  8
0
 10
2.98045
 20
353.666
 11
3.75078
 21
354.09
  0
LINE
  8
0
 10
3.75078
 20
354.09
 11
4.46196
 21
354.606
  0
LINE
  8
0
 10
4.46196
 20
354.606
 11
5.10277
 21
355.208
  0
LINE
  8
0
 10
5.10277
 20
355.208
 11
5.66312
 21
355.886
  0
LINE
  8
0
 10
5.66312
 20
355.886
 11
6.13414
 21
356.628
  0
LINE
  8
0
 10
6.13414
 20
356.628
 11
6.50842
 21
357.423
  0
LINE
  8
0
 10
6.50842
 20
357.423
 11
6.78008
 21
358.259
  0
LINE
  8
0
 10
6.78008
 20
358.259
 11
6.94479
 21
359.123
  0
LINE
  8
0
 10
6.94479
 20
359.123
 11
7
 21
360
  0
LINE
  8
0
 10
7
 20
360
 11
6.94479
 21
360.877
  0
LINE
  8
0
 10
6.94479
 20
360.877
 11
6.78008
 21
361.741
  0
LINE
  8
0
 10
6.78008
 20
361.741
 11
6.50842
 21
362.577
  0
LINE
  8
0
 10
6.50842
 20
362.577
 11
6.13414
 21
363.372
  0
LINE
  8
0
 10
6.13414
 20
363.372
 11
5.66312
 21
364.114
  0
LINE
  8
0
 10
5.66312
 20
364.114
 11
5.10277
 21
364.792
  0
LINE
  8
0
 10
5.10277
 20
364.792
 11
4.46196
 21
365.394
  0
LINE
  8
0
 10
4.46196
 20
365.394
 11
3.75078
 21
365.91
  0
LINE
  8
0
 10
3.75078
 20
365.91
 11
2.98045
 21
366.334
  0
LINE
  8
0
 10
2.98045
 20
366.334
 11
2.16312
 21
366.657
  0
LINE
  8
0
 10
2.16312
 20
366.657
 11
1.31166
 21
366.876
  0
LINE
  8
0
 10
1.31166
 20
366.876
 11
0.439529
 21
366.986
  0
LINE
  8
0
 10
0.439529
 20
366.986
 11
-0.439529
 21
366.986
  0
LINE
  8
0
 10
-0.439529
 20
366.986
 11
-1.31166
 21
366.876
  0
LINE
  8
0
 10
-1.31166
 20
366.876
 11
-2.16312
 21
366.657
  0
LINE
  8
0
 10
-2.16312
 20
366.657
 11
-2.98045
 21
366.334
  0
LINE
  8
0
 10
-2.98045
 20
366.334
 11
-3.75078
 21
365.91
  0
LINE
  8
0
 10
-3.75078
 20
365.91
 11
-4.46196
 21
365.394
  0
LINE
  8
0
 10
-4.46196
 20
365.394
 11
-5.10277
 21
364.792
  0
LINE
  8
0
 10
-5.10277
 20
364.792
 11
-5.66312
 21
364.114
  0
LINE
  8
0
 10
-5.66312
 20
364.114
 11
-6.13414
 21
363.372
  0
LINE
  8
0
 10
-6.13414
 20
363.372
 11
-6.50842
 21
362.577
  0
LINE
  8
0
 10
-6.50842
 20
362.577
 11
-6.78008
 21
361.741
  0
LINE
  8
0
 10
-6.78008
 20
361.741
 11
-6.94479
 21
360.877
  0
LINE
  8
0
 10
-6.94479
 20
360.877
 11
-7
 21
360
  0
LINE
  8
0
 10
-7
 20
360
 11
-6.94479
 21
359.123
  0
LINE
  8
0
 10
-6.94479
 20
359.123
 11
-6.78008
 21
358.259
  0
LINE
  8
0
 10
-6.78008
 20
358.259
 11
-6.50842
 21
357.423
  0
LINE
  8
0
 10
-6.50842
 20
357.423
 11
-6.13414
 21
356.628
  0
LINE
  8
0
 10
-6.13414
 20
356.628
 11
-5.66312
 21
355.886
  0
LINE
  8
0
 10
-5.66312
 20
355.886
 11
-5.10277
 21
355.208
  0
LINE
  8
0
 10
-5.10277
 20
355.208
 11
-4.46196
 21
354.606
  0
LINE
  8
0
 10
-4.46196
 20
354.606
 11
-3.75078
 21
354.09
  0
LINE
  8
0
 10
-3.75078
 20
354.09
 11
-2.98045
 21
353.666
  0
LINE
  8
0
 10
-2.98045
 20
353.666
 11
-2.16312
 21
353.343
  0
LINE
  8
0
 10
-2.16312
 20
353.343
 11
-1.31166
 21
353.124
  0
LINE
  8
0
 10
-1.31166
 20
353.124
 11
-0.439529
 21
353.014
  0
LINE
  8
0
 10
-0.439529
 20
353.014
 11
0.439529
 21
353.014
  0
LINE
  8
0
 10
0.439529
 20
353.014
 11
1.31166
 21
353.124
  0
LINE
  8
0
 10
-0.0941772
 20
358.503
 11
-0.281067
 21
358.527
  0
LINE
  8
0
 10
-0.281067
 20
358.527
 11
-0.463516
 21
358.573
  0
LINE
  8
0
 10
-0.463516
 20
358.573
 11
-0.638657
 21
358.643
  0
LINE
  8
0
 10
-0.638657
 20
358.643
 11
-0.803726
 21
358.734
  0
LINE
  8
0
 10
-0.803726
 20
358.734
 11
-0.956131
 21
358.844
  0
LINE
  8
0
 10
-0.956131
 20
358.844
 11
-1.09344
 21
358.973
  0
LINE
  8
0
 10
-1.09344
 20
358.973
 11
-1.21352
 21
359.118
  0
LINE
  8
0
 10
-1.21352
 20
359.118
 11
-1.31445
 21
359.277
  0
LINE
  8
0
 10
-1.31445
 20
359.277
 11
-1.39465
 21
359.448
  0
LINE
  8
0
 10
-1.39465
 20
359.448
 11
-1.45287
 21
359.627
  0
LINE
  8
0
 10
-1.45287
 20
359.627
 11
-1.48816
 21
359.812
  0
LINE
  8
0
 10
-1.48816
 20
359.812
 11
-1.5
 21
360
  0
LINE
  8
0
 10
-1.5
 20
360
 11
-1.48816
 21
360.188
  0
LINE
  8
0
 10
-1.48816
 20
360.188
 11
-1.45287
 21
360.373
  0
LINE
  8
0
 10
-1.45287
 20
360.373
 11
-1.39465
 21
360.552
  0
LINE
  8
0
 10
-1.39465
 20
360.552
 11
-1.31445
 21
360.723
  0
LINE
  8
0
 10
-1.31445
 20
360.723
 11
-1.21352
 21
360.882
  0
LINE
  8
0
 10
-1.21352
 20
360.882
 11
-1.09344
 21
361.027
  0
LINE
  8
0
 10
-1.09344
 20
361.027
 11
-0.956131
 21
361.156
  0
LINE
  8
0
 10
-0.956131
 20
361.156
 11
-0.803726
 21
361.266
  0
LINE
  8
0
 10
-0.803726
 20
361.266
 11
-0.638657
 21
361.357
  0
LINE
  8
0
 10
-0.638657
 20
361.357
 11
-0.463516
 21
361.427
  0
LINE
  8
0
 10
-0.463516
 20
361.427
 11
-0.281067
 21
361.473
  0
LINE
  8
0
 10
-0.281067
 20
361.473
 11
-0.0941772
 21
361.497
  0
LINE
  8
0
 10
-0.0941772
 20
361.497
 11
0.0941772
 21
361.497
  0
LINE
  8
0
 10
0.0941772
 20
361.497
 11
0.281067
 21
361.473
  0
LINE
  8
0
 10
0.281067
 20
361.473
 11
0.463516
 21
361.427
  0
LINE
  8
0
 10
0.463516
 20
361.427
 11
0.638657
 21
361.357
  0
LINE
  8
0
 10
0.638657
 20
361.357
 11
0.803726
 21
361.266
  0
LINE
  8
0
 10
0.803726
 20
361.266
 11
0.956131
 21
361.156
  0
LINE
  8
0
 10
0.956131
 20
361.156
 11
1.09344
 21
361.027
  0
LINE
  8
0
 10
1.09344
 20
361.027
 11
1.21352
 21
360.882
  0
LINE
  8
0
 10
1.21352
 20
360.882
 11
1.31445
 21
360.723
  0
LINE
  8
0
 10
1.31445
 20
360.723
 11
1.39465
 21
360.552
  0
LINE
  8
0
 10
1.39465
 20
360.552
 11
1.45287
 21
360.373
  0
LINE
  8
0
 10
1.45287
 20
360.373
 11
1.48816
 21
360.188
  0
LINE
  8
0
 10
1.48816
 20
360.188
 11
1.5
 21
360
  0
LINE
  8
0
 10
1.5
 20
360
 11
1.48816
 21
359.812
  0
LINE
  8
0
 10
1.48816
 20
359.812
 11
1.45287
 21
359.627
  0
LINE
  8
0
 10
1.45287
 20
359.627
 11
1.39465
 21
359.448
  0
LINE
  8
0
 10
1.39465
 20
359.448
 11
1.31445
 21
359.277
  0
LINE
  8
0
 10
1.31445
 20
359.277
 11
1.21352
 21
359.118
  0
LINE
  8
0
 10
1.21352
 20
359.118
 11
1.09344
 21
358.973
  0
LINE
  8
0
 10
1.09344
 20
358.973
 11
0.956131
 21
358.844
  0
LINE
  8
0
 10
0.956131
 20
358.844
 11
0.803726
 21
358.734
  0
LINE
  8
0
 10
0.803726
 20
358.734
 11
0.638657
 21
358.643
  0
LINE
  8
0
 10
0.638657
 20
358.643
 11
0.463516
 21
358.573
  0
LINE
  8
0
 10
0.463516
 20
358.573
 11
0.281067
 21
358.527
  0
LINE
  8
0
 10
0.281067
 20
358.527
 11
0.0941772
 21
358.503
  0
LINE
  8
0
 10
0.0941772
 20
358.503
 11
-0.0941772
 21
358.503
  0
LINE
  8
0
 10
1.31166
 20
329.124
 11
2.16312
 21
329.343
  0
LINE
  8
0
 10
2.16312
 20
329.343
 11
2.98045
 21
329.666
  0
LINE
  8
0
 10
2.98045
 20
329.666
 11
3.75078
 21
330.09
  0
LINE
  8
0
 10
3.75078
 20
330.09
 11
4.46196
 21
330.606
  0
LINE
  8
0
 10
4.46196
 20
330.606
 11
5.10277
 21
331.208
  0
LINE
  8
0
 10
5.10277
 20
331.208
 11
5.66312
 21
331.886
  0
LINE
  8
0
 10
5.66312
 20
331.886
 11
6.13414
 21
332.628
  0
LINE
  8
0
 10
6.13414
 20
332.628
 11
6.50842
 21
333.423
  0
LINE
  8
0
 10
6.50842
 20
333.423
 11
6.78008
 21
334.259
  0
LINE
  8
0
 10
6.78008
 20
334.259
 11
6.94479
 21
335.123
  0
LINE
  8
0
 10
6.94479
 20
335.123
 11
7
 21
336
  0
LINE
  8
0
 10
7
 20
336
 11
6.94479
 21
336.877
  0
LINE
  8
0
 10
6.94479
 20
336.877
 11
6.78008
 21
337.741
  0
LINE
  8
0
 10
6.78008
 20
337.741
 11
6.50842
 21
338.577
  0
LINE
  8
0
 10
6.50842
 20
338.577
 11
6.13414
 21
339.372
  0
LINE
  8
0
 10
6.13414
 20
339.372
 11
5.66312
 21
340.114
  0
LINE
  8
0
 10
5.66312
 20
340.114
 11
5.10277
 21
340.792
  0
LINE
  8
0
 10
5.10277
 20
340.792
 11
4.46196
 21
341.394
  0
LINE
  8
0
 10
4.46196
 20
341.394
 11
3.75078
 21
341.91
  0
LINE
  8
0
 10
3.75078
 20
341.91
 11
2.98045
 21
342.334
  0
LINE
  8
0
 10
2.98045
 20
342.334
 11
2.16312
 21
342.657
  0
LINE
  8
0
 10
2.16312
 20
342.657
 11
1.31166
 21
342.876
  0
LINE
  8
0
 10
1.31166
 20
342.876
 11
0.439529
 21
342.986
  0
LINE
  8
0
 10
0.439529
 20
342.986
 11
-0.439529
 21
342.986
  0
LINE
  8
0
 10
-0.439529
 20
342.986
 11
-1.31166
 21
342.876
  0
LINE
  8
0
 10
-1.31166
 20
342.876
 11
-2.16312
 21
342.657
  0
LINE
  8
0
 10
-2.16312
 20
342.657
 11
-2.98045
 21
342.334
  0
LINE
  8
0
 10
-2.98045
 20
342.334
 11
-3.75078
 21
341.91
  0
LINE
  8
0
 10
-3.75078
 20
341.91
 11
-4.46196
 21
341.394
  0
LINE
  8
0
 10
-4.46196
 20
341.394
 11
-5.10277
 21
340.792
  0
LINE
  8
0
 10
-5.10277
 20
340.792
 11
-5.66312
 21
340.114
  0
LINE
  8
0
 10
-5.66312
 20
340.114
 11
-6.13414
 21
339.372
  0
LINE
  8
0
 10
-6.13414
 20
339.372
 11
-6.50842
 21
338.577
  0
LINE
  8
0
 10
-6.50842
 20
338.577
 11
-6.78008
 21
337.741
  0
LINE
  8
0
 10
-6.78008
 20
337.741
 11
-6.94479
 21
336.877
  0
LINE
  8
0
 10
-6.94479
 20
336.877
 11
-7
 21
336
  0
LINE
  8
0
 10
-7
 20
336
 11
-6.94479
 21
335.123
  0
LINE
  8
0
 10
-6.94479
 20
335.123
 11
-6.78008
 21
334.259
  0
LINE
  8
0
 10
-6.78008
 20
334.259
 11
-6.50842
 21
333.423
  0
LINE
  8
0
 10
-6.50842
 20
333.423
 11
-6.13414
 21
332.628
  0
LINE
  8
0
 10
-6.13414
 20
332.628
 11
-5.66312
 21
331.886
  0
LINE
  8
0
 10
-5.66312
 20
331.886
 11
-5.10277
 21
331.208
  0
LINE
  8
0
 10
-5.10277
 20
331.208
 11
-4.46196
 21
330.606
  0
LINE
  8
0
 10
-4.46196
 20
330.606
 11
-3.75078
 21
330.09
  0
LINE
  8
0
 10
-3.75078
 20
330.09
 11
-2.98045
 21
329.666
  0
LINE
  8
0
 10
-2.98045
 20
329.666
 11
-2.16312
 21
329.343
  0
LINE
  8
0
 10
-2.16312
 20
329.343
 11
-1.31166
 21
329.124
  0
LINE
  8
0
 10
-1.31166
 20
329.124
 11
-0.439529
 21
329.014
  0
LINE
  8
0
 10
-0.439529
 20
329.014
 11
0.439529
 21
329.014
  0
LINE
  8
0
 10
0.439529
 20
329.014
 11
1.31166
 21
329.124
  0
LINE
  8
0
 10
-0.0941772
 20
334.503
 11
-0.281067
 21
334.527
  0
LINE
  8
0
 10
-0.281067
 20
334.527
 11
-0.463516
 21
334.573
  0
LINE
  8
0
 10
-0.463516
 20
334.573
 11
-0.638657
 21
334.643
  0
LINE
  8
0
 10
-0.638657
 20
334.643
 11
-0.803726
 21
334.734
  0
LINE
  8
0
 10
-0.803726
 20
334.734
 11
-0.956131
 21
334.844
  0
LINE
  8
0
 10
-0.956131
 20
334.844
 11
-1.09344
 21
334.973
  0
LINE
  8
0
 10
-1.09344
 20
334.973
 11
-1.21352
 21
335.118
  0
LINE
  8
0
 10
-1.21352
 20
335.118
 11
-1.31445
 21
335.277
  0
LINE
  8
0
 10
-1.31445
 20
335.277
 11
-1.39465
 21
335.448
  0
LINE
  8
0
 10
-1.39465
 20
335.448
 11
-1.45287
 21
335.627
  0
LINE
  8
0
 10
-1.45287
 20
335.627
 11
-1.48816
 21
335.812
  0
LINE
  8
0
 10
-1.48816
 20
335.812
 11
-1.5
 21
336
  0
LINE
  8
0
 10
-1.5
 20
336
 11
-1.48816
 21
336.188
  0
LINE
  8
0
 10
-1.48816
 20
336.188
 11
-1.45287
 21
336.373
  0
LINE
  8
0
 10
-1.45287
 20
336.373
 11
-1.39465
 21
336.552
  0
LINE
  8
0
 10
-1.39465
 20
336.552
 11
-1.31445
 21
336.723
  0
LINE
  8
0
 10
-1.31445
 20
336.723
 11
-1.21352
 21
336.882
  0
LINE
  8
0
 10
-1.21352
 20
336.882
 11
-1.09344
 21
337.027
  0
LINE
  8
0
 10
-1.09344
 20
337.027
 11
-0.956131
 21
337.156
  0
LINE
  8
0
 10
-0.956131
 20
337.156
 11
-0.803726
 21
337.266
  0
LINE
  8
0
 10
-0.803726
 20
337.266
 11
-0.638657
 21
337.357
  0
LINE
  8
0
 10
-0.638657
 20
337.357
 11
-0.463516
 21
337.427
  0
LINE
  8
0
 10
-0.463516
 20
337.427
 11
-0.281067
 21
337.473
  0
LINE
  8
0
 10
-0.281067
 20
337.473
 11
-0.0941772
 21
337.497
  0
LINE
  8
0
 10
-0.0941772
 20
337.497
 11
0.0941772
 21
337.497
  0
LINE
  8
0
 10
0.0941772
 20
337.497
 11
0.281067
 21
337.473
  0
LINE
  8
0
 10
0.281067
 20
337.473
 11
0.463516
 21
337.427
  0
LINE
  8
0
 10
0.463516
 20
337.427
 11
0.638657
 21
337.357
  0
LINE
  8
0
 10
0.638657
 20
337.357
 11
0.803726
 21
337.266
  0
LINE
  8
0
 10
0.803726
 20
337.266
 11
0.956131
 21
337.156
  0
LINE
  8
0
 10
0.956131
 20
337.156
 11
1.09344
 21
337.027
  0
LINE
  8
0
 10
1.09344
 20
337.027
 11
1.21352
 21
336.882
  0
LINE
  8
0
 10
1.21352
 20
336.882
 11
1.31445
 21
336.723
  0
LINE
  8
0
 10
1.31445
 20
336.723
 11
1.39465
 21
336.552
  0
LINE
  8
0
 10
1.39465
 20
336.552
 11
1.45287
 21
336.373
  0
LINE
  8
0
 10
1.45287
 20
336.373
 11
1.48816
 21
336.188
  0
LINE
  8
0
 10
1.48816
 20
336.188
 11
1.5
 21
336
  0
LINE
  8
0
 10
1.5
 20
336
 11
1.48816
 21
335.812
  0
LINE
  8
0
 10
1.48816
 20
335.812
 11
1.45287
 21
335.627
  0
LINE
  8
0
 10
1.45287
 20
335.627
 11
1.39465
 21
335.448
  0
LINE
  8
0
 10
1.39465
 20
335.448
 11
1.31445
 21
335.277
  0
LINE
  8
0
 10
1.31445
 20
335.277
 11
1.21352
 21
335.118
  0
LINE
  8
0
 10
1.21352
 20
335.118
 11
1.09344
 21
334.973
  0
LINE
  8
0
 10
1.09344
 20
334.973
 11
0.956131
 21
334.844
  0
LINE
  8
0
 10
0.956131
 20
334.844
 11
0.803726
 21
334.734
  0
LINE
  8
0
 10
0.803726
 20
334.734
 11
0.638657
 21
334.643
  0
LINE
  8
0
 10
0.638657
 20
334.643
 11
0.463516
 21
334.573
  0
LINE
  8
0
 10
0.463516
 20
334.573
 11
0.281067
 21
334.527
  0
LINE
  8
0
 10
0.281067
 20
334.527
 11
0.0941772
 21
334.503
  0
LINE
  8
0
 10
0.0941772
 20
334.503
 11
-0.0941772
 21
334.503
  0
LINE
  8
0
 10
1.31166
 20
305.124
 11
2.16312
 21
305.343
  0
LINE
  8
0
 10
2.16312
 20
305.343
 11
2.98045
 21
305.666
  0
LINE
  8
0
 10
2.98045
 20
305.666
 11
3.75078
 21
306.09
  0
LINE
  8
0
 10
3.75078
 20
306.09
 11
4.46196
 21
306.606
  0
LINE
  8
0
 10
4.46196
 20
306.606
 11
5.10277
 21
307.208
  0
LINE
  8
0
 10
5.10277
 20
307.208
 11
5.66312
 21
307.886
  0
LINE
  8
0
 10
5.66312
 20
307.886
 11
6.13414
 21
308.628
  0
LINE
  8
0
 10
6.13414
 20
308.628
 11
6.50842
 21
309.423
  0
LINE
  8
0
 10
6.50842
 20
309.423
 11
6.78008
 21
310.259
  0
LINE
  8
0
 10
6.78008
 20
310.259
 11
6.94479
 21
311.123
  0
LINE
  8
0
 10
6.94479
 20
311.123
 11
7
 21
312
  0
LINE
  8
0
 10
7
 20
312
 11
6.94479
 21
312.877
  0
LINE
  8
0
 10
6.94479
 20
312.877
 11
6.78008
 21
313.741
  0
LINE
  8
0
 10
6.78008
 20
313.741
 11
6.50842
 21
314.577
  0
LINE
  8
0
 10
6.50842
 20
314.577
 11
6.13414
 21
315.372
  0
LINE
  8
0
 10
6.13414
 20
315.372
 11
5.66312
 21
316.114
  0
LINE
  8
0
 10
5.66312
 20
316.114
 11
5.10277
 21
316.792
  0
LINE
  8
0
 10
5.10277
 20
316.792
 11
4.46196
 21
317.394
  0
LINE
  8
0
 10
4.46196
 20
317.394
 11
3.75078
 21
317.91
  0
LINE
  8
0
 10
3.75078
 20
317.91
 11
2.98045
 21
318.334
  0
LINE
  8
0
 10
2.98045
 20
318.334
 11
2.16312
 21
318.657
  0
LINE
  8
0
 10
2.16312
 20
318.657
 11
1.31166
 21
318.876
  0
LINE
  8
0
 10
1.31166
 20
318.876
 11
0.439529
 21
318.986
  0
LINE
  8
0
 10
0.439529
 20
318.986
 11
-0.439529
 21
318.986
  0
LINE
  8
0
 10
-0.439529
 20
318.986
 11
-1.31166
 21
318.876
  0
LINE
  8
0
 10
-1.31166
 20
318.876
 11
-2.16312
 21
318.657
  0
LINE
  8
0
 10
-2.16312
 20
318.657
 11
-2.98045
 21
318.334
  0
LINE
  8
0
 10
-2.98045
 20
318.334
 11
-3.75078
 21
317.91
  0
LINE
  8
0
 10
-3.75078
 20
317.91
 11
-4.46196
 21
317.394
  0
LINE
  8
0
 10
-4.46196
 20
317.394
 11
-5.10277
 21
316.792
  0
LINE
  8
0
 10
-5.10277
 20
316.792
 11
-5.66312
 21
316.114
  0
LINE
  8
0
 10
-5.66312
 20
316.114
 11
-6.13414
 21
315.372
  0
LINE
  8
0
 10
-6.13414
 20
315.372
 11
-6.50842
 21
314.577
  0
LINE
  8
0
 10
-6.50842
 20
314.577
 11
-6.78008
 21
313.741
  0
LINE
  8
0
 10
-6.78008
 20
313.741
 11
-6.94479
 21
312.877
  0
LINE
  8
0
 10
-6.94479
 20
312.877
 11
-7
 21
312
  0
LINE
  8
0
 10
-7
 20
312
 11
-6.94479
 21
311.123
  0
LINE
  8
0
 10
-6.94479
 20
311.123
 11
-6.78008
 21
310.259
  0
LINE
  8
0
 10
-6.78008
 20
310.259
 11
-6.50842
 21
309.423
  0
LINE
  8
0
 10
-6.50842
 20
309.423
 11
-6.13414
 21
308.628
  0
LINE
  8
0
 10
-6.13414
 20
308.628
 11
-5.66312
 21
307.886
  0
LINE
  8
0
 10
-5.66312
 20
307.886
 11
-5.10277
 21
307.208
  0
LINE
  8
0
 10
-5.10277
 20
307.208
 11
-4.46196
 21
306.606
  0
LINE
  8
0
 10
-4.46196
 20
306.606
 11
-3.75078
 21
306.09
  0
LINE
  8
0
 10
-3.75078
 20
306.09
 11
-2.98045
 21
305.666
  0
LINE
  8
0
 10
-2.98045
 20
305.666
 11
-2.16312
 21
305.343
  0
LINE
  8
0
 10
-2.16312
 20
305.343
 11
-1.31166
 21
305.124
  0
LINE
  8
0
 10
-1.31166
 20
305.124
 11
-0.439529
 21
305.014
  0
LINE
  8
0
 10
-0.439529
 20
305.014
 11
0.439529
 21
305.014
  0
LINE
  8
0
 10
0.439529
 20
305.014
 11
1.31166
 21
305.124
  0
LINE
  8
0
 10
-0.0941772
 20
310.503
 11
-0.281067
 21
310.527
  0
LINE
  8
0
 10
-0.281067
 20
310.527
 11
-0.463516
 21
310.573
  0
LINE
  8
0
 10
-0.463516
 20
310.573
 11
-0.638657
 21
310.643
  0
LINE
  8
0
 10
-0.638657
 20
310.643
 11
-0.803726
 21
310.734
  0
LINE
  8
0
 10
-0.803726
 20
310.734
 11
-0.956131
 21
310.844
  0
LINE
  8
0
 10
-0.956131
 20
310.844
 11
-1.09344
 21
310.973
  0
LINE
  8
0
 10
-1.09344
 20
310.973
 11
-1.21352
 21
311.118
  0
LINE
  8
0
 10
-1.21352
 20
311.118
 11
-1.31445
 21
311.277
  0
LINE
  8
0
 10
-1.31445
 20
311.277
 11
-1.39465
 21
311.448
  0
LINE
  8
0
 10
-1.39465
 20
311.448
 11
-1.45287
 21
311.627
  0
LINE
  8
0
 10
-1.45287
 20
311.627
 11
-1.48816
 21
311.812
  0
LINE
  8
0
 10
-1.48816
 20
311.812
 11
-1.5
 21
312
  0
LINE
  8
0
 10
-1.5
 20
312
 11
-1.48816
 21
312.188
  0
LINE
  8
0
 10
-1.48816
 20
312.188
 11
-1.45287
 21
312.373
  0
LINE
  8
0
 10
-1.45287
 20
312.373
 11
-1.39465
 21
312.552
  0
LINE
  8
0
 10
-1.39465
 20
312.552
 11
-1.31445
 21
312.723
  0
LINE
  8
0
 10
-1.31445
 20
312.723
 11
-1.21352
 21
312.882
  0
LINE
  8
0
 10
-1.21352
 20
312.882
 11
-1.09344
 21
313.027
  0
LINE
  8
0
 10
-1.09344
 20
313.027
 11
-0.956131
 21
313.156
  0
LINE
  8
0
 10
-0.956131
 20
313.156
 11
-0.803726
 21
313.266
  0
LINE
  8
0
 10
-0.803726
 20
313.266
 11
-0.638657
 21
313.357
  0
LINE
  8
0
 10
-0.638657
 20
313.357
 11
-0.463516
 21
313.427
  0
LINE
  8
0
 10
-0.463516
 20
313.427
 11
-0.281067
 21
313.473
  0
LINE
  8
0
 10
-0.281067
 20
313.473
 11
-0.0941772
 21
313.497
  0
LINE
  8
0
 10
-0.0941772
 20
313.497
 11
0.0941772
 21
313.497
  0
LINE
  8
0
 10
0.0941772
 20
313.497
 11
0.281067
 21
313.473
  0
LINE
  8
0
 10
0.281067
 20
313.473
 11
0.463516
 21
313.427
  0
LINE
  8
0
 10
0.463516
 20
313.427
 11
0.638657
 21
313.357
  0
LINE
  8
0
 10
0.638657
 20
313.357
 11
0.803726
 21
313.266
  0
LINE
  8
0
 10
0.803726
 20
313.266
 11
0.956131
 21
313.156
  0
LINE
  8
0
 10
0.956131
 20
313.156
 11
1.09344
 21
313.027
  0
LINE
  8
0
 10
1.09344
 20
313.027
 11
1.21352
 21
312.882
  0
LINE
  8
0
 10
1.21352
 20
312.882
 11
1.31445
 21
312.723
  0
LINE
  8
0
 10
1.31445
 20
312.723
 11
1.39465
 21
312.552
  0
LINE
  8
0
 10
1.39465
 20
312.552
 11
1.45287
 21
312.373
  0
LINE
  8
0
 10
1.45287
 20
312.373
 11
1.48816
 21
312.188
  0
LINE
  8
0
 10
1.48816
 20
312.188
 11
1.5
 21
312
  0
LINE
  8
0
 10
1.5
 20
312
 11
1.48816
 21
311.812
  0
LINE
  8
0
 10
1.48816
 20
311.812
 11
1.45287
 21
311.627
  0
LINE
  8
0
 10
1.45287
 20
311.627
 11
1.39465
 21
311.448
  0
LINE
  8
0
 10
1.39465
 20
311.448
 11
1.31445
 21
311.277
  0
LINE
  8
0
 10
1.31445
 20
311.277
 11
1.21352
 21
311.118
  0
LINE
  8
0
 10
1.21352
 20
311.118
 11
1.09344
 21
310.973
  0
LINE
  8
0
 10
1.09344
 20
310.973
 11
0.956131
 21
310.844
  0
LINE
  8
0
 10
0.956131
 20
310.844
 11
0.803726
 21
310.734
  0
LINE
  8
0
 10
0.803726
 20
310.734
 11
0.638657
 21
310.643
  0
LINE
  8
0
 10
0.638657
 20
310.643
 11
0.463516
 21
310.573
  0
LINE
  8
0
 10
0.463516
 20
310.573
 11
0.281067
 21
310.527
  0
LINE
  8
0
 10
0.281067
 20
310.527
 11
0.0941772
 21
310.503
  0
LINE
  8
0
 10
0.0941772
 20
310.503
 11
-0.0941772
 21
310.503
  0
LINE
  8
0
 10
1.31166
 20
281.124
 11
2.16312
 21
281.343
  0
LINE
  8
0
 10
2.16312
 20
281.343
 11
2.98045
 21
281.666
  0
LINE
  8
0
 10
2.98045
 20
281.666
 11
3.75078
 21
282.09
  0
LINE
  8
0
 10
3.75078
 20
282.09
 11
4.46196
 21
282.606
  0
LINE
  8
0
 10
4.46196
 20
282.606
 11
5.10277
 21
283.208
  0
LINE
  8
0
 10
5.10277
 20
283.208
 11
5.66312
 21
283.886
  0
LINE
  8
0
 10
5.66312
 20
283.886
 11
6.13414
 21
284.628
  0
LINE
  8
0
 10
6.13414
 20
284.628
 11
6.50842
 21
285.423
  0
LINE
  8
0
 10
6.50842
 20
285.423
 11
6.78008
 21
286.259
  0
LINE
  8
0
 10
6.78008
 20
286.259
 11
6.94479
 21
287.123
  0
LINE
  8
0
 10
6.94479
 20
287.123
 11
7
 21
288
  0
LINE
  8
0
 10
7
 20
288
 11
6.94479
 21
288.877
  0
LINE
  8
0
 10
6.94479
 20
288.877
 11
6.78008
 21
289.741
  0
LINE
  8
0
 10
6.78008
 20
289.741
 11
6.50842
 21
290.577
  0
LINE
  8
0
 10
6.50842
 20
290.577
 11
6.13414
 21
291.372
  0
LINE
  8
0
 10
6.13414
 20
291.372
 11
5.66312
 21
292.114
  0
LINE
  8
0
 10
5.66312
 20
292.114
 11
5.10277
 21
292.792
  0
LINE
  8
0
 10
5.10277
 20
292.792
 11
4.46196
 21
293.394
  0
LINE
  8
0
 10
4.46196
 20
293.394
 11
3.75078
 21
293.91
  0
LINE
  8
0
 10
3.75078
 20
293.91
 11
2.98045
 21
294.334
  0
LINE
  8
0
 10
2.98045
 20
294.334
 11
2.16312
 21
294.657
  0
LINE
  8
0
 10
2.16312
 20
294.657
 11
1.31166
 21
294.876
  0
LINE
  8
0
 10
1.31166
 20
294.876
 11
0.439529
 21
294.986
  0
LINE
  8
0
 10
0.439529
 20
294.986
 11
-0.439529
 21
294.986
  0
LINE
  8
0
 10
-0.439529
 20
294.986
 11
-1.31166
 21
294.876
  0
LINE
  8
0
 10
-1.31166
 20
294.876
 11
-2.16312
 21
294.657
  0
LINE
  8
0
 10
-2.16312
 20
294.657
 11
-2.98045
 21
294.334
  0
LINE
  8
0
 10
-2.98045
 20
294.334
 11
-3.75078
 21
293.91
  0
LINE
  8
0
 10
-3.75078
 20
293.91
 11
-4.46196
 21
293.394
  0
LINE
  8
0
 10
-4.46196
 20
293.394
 11
-5.10277
 21
292.792
  0
LINE
  8
0
 10
-5.10277
 20
292.792
 11
-5.66312
 21
292.114
  0
LINE
  8
0
 10
-5.66312
 20
292.114
 11
-6.13414
 21
291.372
  0
LINE
  8
0
 10
-6.13414
 20
291.372
 11
-6.50842
 21
290.577
  0
LINE
  8
0
 10
-6.50842
 20
290.577
 11
-6.78008
 21
289.741
  0
LINE
  8
0
 10
-6.78008
 20
289.741
 11
-6.94479
 21
288.877
  0
LINE
  8
0
 10
-6.94479
 20
288.877
 11
-7
 21
288
  0
LINE
  8
0
 10
-7
 20
288
 11
-6.94479
 21
287.123
  0
LINE
  8
0
 10
-6.94479
 20
287.123
 11
-6.78008
 21
286.259
  0
LINE
  8
0
 10
-6.78008
 20
286.259
 11
-6.50842
 21
285.423
  0
LINE
  8
0
 10
-6.50842
 20
285.423
 11
-6.13414
 21
284.628
  0
LINE
  8
0
 10
-6.13414
 20
284.628
 11
-5.66312
 21
283.886
  0
LINE
  8
0
 10
-5.66312
 20
283.886
 11
-5.10277
 21
283.208
  0
LINE
  8
0
 10
-5.10277
 20
283.208
 11
-4.46196
 21
282.606
  0
LINE
  8
0
 10
-4.46196
 20
282.606
 11
-3.75078
 21
282.09
  0
LINE
  8
0
 10
-3.75078
 20
282.09
 11
-2.98045
 21
281.666
  0
LINE
  8
0
 10
-2.98045
 20
281.666
 11
-2.16312
 21
281.343
  0
LINE
  8
0
 10
-2.16312
 20
281.343
 11
-1.31166
 21
281.124
  0
LINE
  8
0
 10
-1.31166
 20
281.124
 11
-0.439529
 21
281.014
  0
LINE
  8
0
 10
-0.439529
 20
281.014
 11
0.439529
 21
281.014
  0
LINE
  8
0
 10
0.439529
 20
281.014
 11
1.31166
 21
281.124
  0
LINE
  8
0
 10
-0.0941772
 20
286.503
 11
-0.281067
 21
286.527
  0
LINE
  8
0
 10
-0.281067
 20
286.527
 11
-0.463516
 21
286.573
  0
LINE
  8
0
 10
-0.463516
 20
286.573
 11
-0.638657
 21
286.643
  0
LINE
  8
0
 10
-0.638657
 20
286.643
 11
-0.803726
 21
286.734
  0
LINE
  8
0
 10
-0.803726
 20
286.734
 11
-0.956131
 21
286.844
  0
LINE
  8
0
 10
-0.956131
 20
286.844
 11
-1.09344
 21
286.973
  0
LINE
  8
0
 10
-1.09344
 20
286.973
 11
-1.21352
 21
287.118
  0
LINE
  8
0
 10
-1.21352
 20
287.118
 11
-1.31445
 21
287.277
  0
LINE
  8
0
 10
-1.31445
 20
287.277
 11
-1.39465
 21
287.448
  0
LINE
  8
0
 10
-1.39465
 20
287.448
 11
-1.45287
 21
287.627
  0
LINE
  8
0
 10
-1.45287
 20
287.627
 11
-1.48816
 21
287.812
  0
LINE
  8
0
 10
-1.48816
 20
287.812
 11
-1.5
 21
288
  0
LINE
  8
0
 10
-1.5
 20
288
 11
-1.48816
 21
288.188
  0
LINE
  8
0
 10
-1.48816
 20
288.188
 11
-1.45287
 21
288.373
  0
LINE
  8
0
 10
-1.45287
 20
288.373
 11
-1.39465
 21
288.552
  0
LINE
  8
0
 10
-1.39465
 20
288.552
 11
-1.31445
 21
288.723
  0
LINE
  8
0
 10
-1.31445
 20
288.723
 11
-1.21352
 21
288.882
  0
LINE
  8
0
 10
-1.21352
 20
288.882
 11
-1.09344
 21
289.027
  0
LINE
  8
0
 10
-1.09344
 20
289.027
 11
-0.956131
 21
289.156
  0
LINE
  8
0
 10
-0.956131
 20
289.156
 11
-0.803726
 21
289.266
  0
LINE
  8
0
 10
-0.803726
 20
289.266
 11
-0.638657
 21
289.357
  0
LINE
  8
0
 10
-0.638657
 20
289.357
 11
-0.463516
 21
289.427
  0
LINE
  8
0
 10
-0.463516
 20
289.427
 11
-0.281067
 21
289.473
  0
LINE
  8
0
 10
-0.281067
 20
289.473
 11
-0.0941772
 21
289.497
  0
LINE
  8
0
 10
-0.0941772
 20
289.497
 11
0.0941772
 21
289.497
  0
LINE
  8
0
 10
0.0941772
 20
289.497
 11
0.281067
 21
289.473
  0
LINE
  8
0
 10
0.281067
 20
289.473
 11
0.463516
 21
289.427
  0
LINE
  8
0
 10
0.463516
 20
289.427
 11
0.638657
 21
289.357
  0
LINE
  8
0
 10
0.638657
 20
289.357
 11
0.803726
 21
289.266
  0
LINE
  8
0
 10
0.803726
 20
289.266
 11
0.956131
 21
289.156
  0
LINE
  8
0
 10
0.956131
 20
289.156
 11
1.09344
 21
289.027
  0
LINE
  8
0
 10
1.09344
 20
289.027
 11
1.21352
 21
288.882
  0
LINE
  8
0
 10
1.21352
 20
288.882
 11
1.31445
 21
288.723
  0
LINE
  8
0
 10
1.31445
 20
288.723
 11
1.39465
 21
288.552
  0
LINE
  8
0
 10
1.39465
 20
288.552
 11
1.45287
 21
288.373
  0
LINE
  8
0
 10
1.45287
 20
288.373
 11
1.48816
 21
288.188
  0
LINE
  8
0
 10
1.48816
 20
288.188
 11
1.5
 21
288
  0
LINE
  8
0
 10
1.5
 20
288
 11
1.48816
 21
287.812
  0
LINE
  8
0
 10
1.48816
 20
287.812
 11
1.45287
 21
287.627
  0
LINE
  8
0
 10
1.45287
 20
287.627
 11
1.39465
 21
287.448
  0
LINE
  8
0
 10
1.39465
 20
287.448
 11
1.31445
 21
287.277
  0
LINE
  8
0
 10
1.31445
 20
287.277
 11
1.21352
 21
287.118
  0
LINE
  8
0
 10
1.21352
 20
287.118
 11
1.09344
 21
286.973
  0
LINE
  8
0
 10
1.09344
 20
286.973
 11
0.956131
 21
286.844
  0
LINE
  8
0
 10
0.956131
 20
286.844
 11
0.803726
 21
286.734
  0
LINE
  8
0
 10
0.803726
 20
286.734
 11
0.638657
 21
286.643
  0
LINE
  8
0
 10
0.638657
 20
286.643
 11
0.463516
 21
286.573
  0
LINE
  8
0
 10
0.463516
 20
286.573
 11
0.281067
 21
286.527
  0
LINE
  8
0
 10
0.281067
 20
286.527
 11
0.0941772
 21
286.503
  0
LINE
  8
0
 10
0.0941772
 20
286.503
 11
-0.0941772
 21
286.503
  0
LINE
  8
0
 10
1.31166
 20
257.124
 11
2.16312
 21
257.343
  0
LINE
  8
0
 10
2.16312
 20
257.343
 11
2.98045
 21
257.666
  0
LINE
  8
0
 10
2.98045
 20
257.666
 11
3.75078
 21
258.09
  0
LINE
  8
0
 10
3.75078
 20
258.09
 11
4.46196
 21
258.606
  0
LINE
  8
0
 10
4.46196
 20
258.606
 11
5.10277
 21
259.208
  0
LINE
  8
0
 10
5.10277
 20
259.208
 11
5.66312
 21
259.886
  0
LINE
  8
0
 10
5.66312
 20
259.886
 11
6.13414
 21
260.628
  0
LINE
  8
0
 10
6.13414
 20
260.628
 11
6.50842
 21
261.423
  0
LINE
  8
0
 10
6.50842
 20
261.423
 11
6.78008
 21
262.259
  0
LINE
  8
0
 10
6.78008
 20
262.259
 11
6.94479
 21
263.123
  0
LINE
  8
0
 10
6.94479
 20
263.123
 11
7
 21
264
  0
LINE
  8
0
 10
7
 20
264
 11
6.94479
 21
264.877
  0
LINE
  8
0
 10
6.94479
 20
264.877
 11
6.78008
 21
265.741
  0
LINE
  8
0
 10
6.78008
 20
265.741
 11
6.50842
 21
266.577
  0
LINE
  8
0
 10
6.50842
 20
266.577
 11
6.13414
 21
267.372
  0
LINE
  8
0
 10
6.13414
 20
267.372
 11
5.66312
 21
268.114
  0
LINE
  8
0
 10
5.66312
 20
268.114
 11
5.10277
 21
268.792
  0
LINE
  8
0
 10
5.10277
 20
268.792
 11
4.46196
 21
269.394
  0
LINE
  8
0
 10
4.46196
 20
269.394
 11
3.75078
 21
269.91
  0
LINE
  8
0
 10
3.75078
 20
269.91
 11
2.98045
 21
270.334
  0
LINE
  8
0
 10
2.98045
 20
270.334
 11
2.16312
 21
270.657
  0
LINE
  8
0
 10
2.16312
 20
270.657
 11
1.31166
 21
270.876
  0
LINE
  8
0
 10
1.31166
 20
270.876
 11
0.439529
 21
270.986
  0
LINE
  8
0
 10
0.439529
 20
270.986
 11
-0.439529
 21
270.986
  0
LINE
  8
0
 10
-0.439529
 20
270.986
 11
-1.31166
 21
270.876
  0
LINE
  8
0
 10
-1.31166
 20
270.876
 11
-2.16312
 21
270.657
  0
LINE
  8
0
 10
-2.16312
 20
270.657
 11
-2.98045
 21
270.334
  0
LINE
  8
0
 10
-2.98045
 20
270.334
 11
-3.75078
 21
269.91
  0
LINE
  8
0
 10
-3.75078
 20
269.91
 11
-4.46196
 21
269.394
  0
LINE
  8
0
 10
-4.46196
 20
269.394
 11
-5.10277
 21
268.792
  0
LINE
  8
0
 10
-5.10277
 20
268.792
 11
-5.66312
 21
268.114
  0
LINE
  8
0
 10
-5.66312
 20
268.114
 11
-6.13414
 21
267.372
  0
LINE
  8
0
 10
-6.13414
 20
267.372
 11
-6.50842
 21
266.577
  0
LINE
  8
0
 10
-6.50842
 20
266.577
 11
-6.78008
 21
265.741
  0
LINE
  8
0
 10
-6.78008
 20
265.741
 11
-6.94479
 21
264.877
  0
LINE
  8
0
 10
-6.94479
 20
264.877
 11
-7
 21
264
  0
LINE
  8
0
 10
-7
 20
264
 11
-6.94479
 21
263.123
  0
LINE
  8
0
 10
-6.94479
 20
263.123
 11
-6.78008
 21
262.259
  0
LINE
  8
0
 10
-6.78008
 20
262.259
 11
-6.50842
 21
261.423
  0
LINE
  8
0
 10
-6.50842
 20
261.423
 11
-6.13414
 21
260.628
  0
LINE
  8
0
 10
-6.13414
 20
260.628
 11
-5.66312
 21
259.886
  0
LINE
  8
0
 10
-5.66312
 20
259.886
 11
-5.10277
 21
259.208
  0
LINE
  8
0
 10
-5.10277
 20
259.208
 11
-4.46196
 21
258.606
  0
LINE
  8
0
 10
-4.46196
 20
258.606
 11
-3.75078
 21
258.09
  0
LINE
  8
0
 10
-3.75078
 20
258.09
 11
-2.98045
 21
257.666
  0
LINE
  8
0
 10
-2.98045
 20
257.666
 11
-2.16312
 21
257.343
  0
LINE
  8
0
 10
-2.16312
 20
257.343
 11
-1.31166
 21
257.124
  0
LINE
  8
0
 10
-1.31166
 20
257.124
 11
-0.439529
 21
257.014
  0
LINE
  8
0
 10
-0.439529
 20
257.014
 11
0.439529
 21
257.014
  0
LINE
  8
0
 10
0.439529
 20
257.014
 11
1.31166
 21
257.124
  0
LINE
  8
0
 10
-0.0941772
 20
262.503
 11
-0.281067
 21
262.527
  0
LINE
  8
0
 10
-0.281067
 20
262.527
 11
-0.463516
 21
262.573
  0
LINE
  8
0
 10
-0.463516
 20
262.573
 11
-0.638657
 21
262.643
  0
LINE
  8
0
 10
-0.638657
 20
262.643
 11
-0.803726
 21
262.734
  0
LINE
  8
0
 10
-0.803726
 20
262.734
 11
-0.956131
 21
262.844
  0
LINE
  8
0
 10
-0.956131
 20
262.844
 11
-1.09344
 21
262.973
  0
LINE
  8
0
 10
-1.09344
 20
262.973
 11
-1.21352
 21
263.118
  0
LINE
  8
0
 10
-1.21352
 20
263.118
 11
-1.31445
 21
263.277
  0
LINE
  8
0
 10
-1.31445
 20
263.277
 11
-1.39465
 21
263.448
  0
LINE
  8
0
 10
-1.39465
 20
263.448
 11
-1.45287
 21
263.627
  0
LINE
  8
0
 10
-1.45287
 20
263.627
 11
-1.48816
 21
263.812
  0
LINE
  8
0
 10
-1.48816
 20
263.812
 11
-1.5
 21
264
  0
LINE
  8
0
 10
-1.5
 20
264
 11
-1.48816
 21
264.188
  0
LINE
  8
0
 10
-1.48816
 20
264.188
 11
-1.45287
 21
264.373
  0
LINE
  8
0
 10
-1.45287
 20
264.373
 11
-1.39465
 21
264.552
  0
LINE
  8
0
 10
-1.39465
 20
264.552
 11
-1.31445
 21
264.723
  0
LINE
  8
0
 10
-1.31445
 20
264.723
 11
-1.21352
 21
264.882
  0
LINE
  8
0
 10
-1.21352
 20
264.882
 11
-1.09344
 21
265.027
  0
LINE
  8
0
 10
-1.09344
 20
265.027
 11
-0.956131
 21
265.156
  0
LINE
  8
0
 10
-0.956131
 20
265.156
 11
-0.803726
 21
265.266
  0
LINE
  8
0
 10
-0.803726
 20
265.266
 11
-0.638657
 21
265.357
  0
LINE
  8
0
 10
-0.638657
 20
265.357
 11
-0.463516
 21
265.427
  0
LINE
  8
0
 10
-0.463516
 20
265.427
 11
-0.281067
 21
265.473
  0
LINE
  8
0
 10
-0.281067
 20
265.473
 11
-0.0941772
 21
265.497
  0
LINE
  8
0
 10
-0.0941772
 20
265.497
 11
0.0941772
 21
265.497
  0
LINE
  8
0
 10
0.0941772
 20
265.497
 11
0.281067
 21
265.473
  0
LINE
  8
0
 10
0.281067
 20
265.473
 11
0.463516
 21
265.427
  0
LINE
  8
0
 10
0.463516
 20
265.427
 11
0.638657
 21
265.357
  0
LINE
  8
0
 10
0.638657
 20
265.357
 11
0.803726
 21
265.266
  0
LINE
  8
0
 10
0.803726
 20
265.266
 11
0.956131
 21
265.156
  0
LINE
  8
0
 10
0.956131
 20
265.156
 11
1.09344
 21
265.027
  0
LINE
  8
0
 10
1.09344
 20
265.027
 11
1.21352
 21
264.882
  0
LINE
  8
0
 10
1.21352
 20
264.882
 11
1.31445
 21
264.723
  0
LINE
  8
0
 10
1.31445
 20
264.723
 11
1.39465
 21
264.552
  0
LINE
  8
0
 10
1.39465
 20
264.552
 11
1.45287
 21
264.373
  0
LINE
  8
0
 10
1.45287
 20
264.373
 11
1.48816
 21
264.188
  0
LINE
  8
0
 10
1.48816
 20
264.188
 11
1.5
 21
264
  0
LINE
  8
0
 10
1.5
 20
264
 11
1.48816
 21
263.812
  0
LINE
  8
0
 10
1.48816
 20
263.812
 11
1.45287
 21
263.627
  0
LINE
  8
0
 10
1.45287
 20
263.627
 11
1.39465
 21
263.448
  0
LINE
  8
0
 10
1.39465
 20
263.448
 11
1.31445
 21
263.277
  0
LINE
  8
0
 10
1.31445
 20
263.277
 11
1.21352
 21
263.118
  0
LINE
  8
0
 10
1.21352
 20
263.118
 11
1.09344
 21
262.973
  0
LINE
  8
0
 10
1.09344
 20
262.973
 11
0.956131
 21
262.844
  0
LINE
  8
0
 10
0.956131
 20
262.844
 11
0.803726
 21
262.734
  0
LINE
  8
0
 10
0.803726
 20
262.734
 11
0.638657
 21
262.643
  0
LINE
  8
0
 10
0.638657
 20
262.643
 11
0.463516
 21
262.573
  0
LINE
  8
0
 10
0.463516
 20
262.573
 11
0.281067
 21
262.527
  0
LINE
  8
0
 10
0.281067
 20
262.527
 11
0.0941772
 21
262.503
  0
LINE
  8
0
 10
0.0941772
 20
262.503
 11
-0.0941772
 21
262.503
  0
LINE
  8
0
 10
1.31166
 20
233.124
 11
2.16312
 21
233.343
  0
LINE
  8
0
 10
2.16312
 20
233.343
 11
2.98045
 21
233.666
  0
LINE
  8
0
 10
2.98045
 20
233.666
 11
3.75078
 21
234.09
  0
LINE
  8
0
 10
3.75078
 20
234.09
 11
4.46196
 21
234.606
  0
LINE
  8
0
 10
4.46196
 20
234.606
 11
5.10277
 21
235.208
  0
LINE
  8
0
 10
5.10277
 20
235.208
 11
5.66312
 21
235.886
  0
LINE
  8
0
 10
5.66312
 20
235.886
 11
6.13414
 21
236.628
  0
LINE
  8
0
 10
6.13414
 20
236.628
 11
6.50842
 21
237.423
  0
LINE
  8
0
 10
6.50842
 20
237.423
 11
6.78008
 21
238.259
  0
LINE
  8
0
 10
6.78008
 20
238.259
 11
6.94479
 21
239.123
  0
LINE
  8
0
 10
6.94479
 20
239.123
 11
7
 21
240
  0
LINE
  8
0
 10
7
 20
240
 11
6.94479
 21
240.877
  0
LINE
  8
0
 10
6.94479
 20
240.877
 11
6.78008
 21
241.741
  0
LINE
  8
0
 10
6.78008
 20
241.741
 11
6.50842
 21
242.577
  0
LINE
  8
0
 10
6.50842
 20
242.577
 11
6.13414
 21
243.372
  0
LINE
  8
0
 10
6.13414
 20
243.372
 11
5.66312
 21
244.114
  0
LINE
  8
0
 10
5.66312
 20
244.114
 11
5.10277
 21
244.792
  0
LINE
  8
0
 10
5.10277
 20
244.792
 11
4.46196
 21
245.394
  0
LINE
  8
0
 10
4.46196
 20
245.394
 11
3.75078
 21
245.91
  0
LINE
  8
0
 10
3.75078
 20
245.91
 11
2.98045
 21
246.334
  0
LINE
  8
0
 10
2.98045
 20
246.334
 11
2.16312
 21
246.657
  0
LINE
  8
0
 10
2.16312
 20
246.657
 11
1.31166
 21
246.876
  0
LINE
  8
0
 10
1.31166
 20
246.876
 11
0.439529
 21
246.986
  0
LINE
  8
0
 10
0.439529
 20
246.986
 11
-0.439529
 21
246.986
  0
LINE
  8
0
 10
-0.439529
 20
246.986
 11
-1.31166
 21
246.876
  0
LINE
  8
0
 10
-1.31166
 20
246.876
 11
-2.16312
 21
246.657
  0
LINE
  8
0
 10
-2.16312
 20
246.657
 11
-2.98045
 21
246.334
  0
LINE
  8
0
 10
-2.98045
 20
246.334
 11
-3.75078
 21
245.91
  0
LINE
  8
0
 10
-3.75078
 20
245.91
 11
-4.46196
 21
245.394
  0
LINE
  8
0
 10
-4.46196
 20
245.394
 11
-5.10277
 21
244.792
  0
LINE
  8
0
 10
-5.10277
 20
244.792
 11
-5.66312
 21
244.114
  0
LINE
  8
0
 10
-5.66312
 20
244.114
 11
-6.13414
 21
243.372
  0
LINE
  8
0
 10
-6.13414
 20
243.372
 11
-6.50842
 21
242.577
  0
LINE
  8
0
 10
-6.50842
 20
242.577
 11
-6.78008
 21
241.741
  0
LINE
  8
0
 10
-6.78008
 20
241.741
 11
-6.94479
 21
240.877
  0
LINE
  8
0
 10
-6.94479
 20
240.877
 11
-7
 21
240
  0
LINE
  8
0
 10
-7
 20
240
 11
-6.94479
 21
239.123
  0
LINE
  8
0
 10
-6.94479
 20
239.123
 11
-6.78008
 21
238.259
  0
LINE
  8
0
 10
-6.78008
 20
238.259
 11
-6.50842
 21
237.423
  0
LINE
  8
0
 10
-6.50842
 20
237.423
 11
-6.13414
 21
236.628
  0
LINE
  8
0
 10
-6.13414
 20
236.628
 11
-5.66312
 21
235.886
  0
LINE
  8
0
 10
-5.66312
 20
235.886
 11
-5.10277
 21
235.208
  0
LINE
  8
0
 10
-5.10277
 20
235.208
 11
-4.46196
 21
234.606
  0
LINE
  8
0
 10
-4.46196
 20
234.606
 11
-3.75078
 21
234.09
  0
LINE
  8
0
 10
-3.75078
 20
234.09
 11
-2.98045
 21
233.666
  0
LINE
  8
0
 10
-2.98045
 20
233.666
 11
-2.16312
 21
233.343
  0
LINE
  8
0
 10
-2.16312
 20
233.343
 11
-1.31166
 21
233.124
  0
LINE
  8
0
 10
-1.31166
 20
233.124
 11
-0.439529
 21
233.014
  0
LINE
  8
0
 10
-0.439529
 20
233.014
 11
0.439529
 21
233.014
  0
LINE
  8
0
 10
0.439529
 20
233.014
 11
1.31166
 21
233.124
  0
LINE
  8
0
 10
-0.0941772
 20
238.503
 11
-0.281067
 21
238.527
  0
LINE
  8
0
 10
-0.281067
 20
238.527
 11
-0.463516
 21
238.573
  0
LINE
  8
0
 10
-0.463516
 20
238.573
 11
-0.638657
 21
238.643
  0
LINE
  8
0
 10
-0.638657
 20
238.643
 11
-0.803726
 21
238.734
  0
LINE
  8
0
 10
-0.803726
 20
238.734
 11
-0.956131
 21
238.844
  0
LINE
  8
0
 10
-0.956131
 20
238.844
 11
-1.09344
 21
238.973
  0
LINE
  8
0
 10
-1.09344
 20
238.973
 11
-1.21352
 21
239.118
  0
LINE
  8
0
 10
-1.21352
 20
239.118
 11
-1.31445
 21
239.277
  0
LINE
  8
0
 10
-1.31445
 20
239.277
 11
-1.39465
 21
239.448
  0
LINE
  8
0
 10
-1.39465
 20
239.448
 11
-1.45287
 21
239.627
  0
LINE
  8
0
 10
-1.45287
 20
239.627
 11
-1.48816
 21
239.812
  0
LINE
  8
0
 10
-1.48816
 20
239.812
 11
-1.5
 21
240
  0
LINE
  8
0
 10
-1.5
 20
240
 11
-1.48816
 21
240.188
  0
LINE
  8
0
 10
-1.48816
 20
240.188
 11
-1.45287
 21
240.373
  0
LINE
  8
0
 10
-1.45287
 20
240.373
 11
-1.39465
 21
240.552
  0
LINE
  8
0
 10
-1.39465
 20
240.552
 11
-1.31445
 21
240.723
  0
LINE
  8
0
 10
-1.31445
 20
240.723
 11
-1.21352
 21
240.882
  0
LINE
  8
0
 10
-1.21352
 20
240.882
 11
-1.09344
 21
241.027
  0
LINE
  8
0
 10
-1.09344
 20
241.027
 11
-0.956131
 21
241.156
  0
LINE
  8
0
 10
-0.956131
 20
241.156
 11
-0.803726
 21
241.266
  0
LINE
  8
0
 10
-0.803726
 20
241.266
 11
-0.638657
 21
241.357
  0
LINE
  8
0
 10
-0.638657
 20
241.357
 11
-0.463516
 21
241.427
  0
LINE
  8
0
 10
-0.463516
 20
241.427
 11
-0.281067
 21
241.473
  0
LINE
  8
0
 10
-0.281067
 20
241.473
 11
-0.0941772
 21
241.497
  0
LINE
  8
0
 10
-0.0941772
 20
241.497
 11
0.0941772
 21
241.497
  0
LINE
  8
0
 10
0.0941772
 20
241.497
 11
0.281067
 21
241.473
  0
LINE
  8
0
 10
0.281067
 20
241.473
 11
0.463516
 21
241.427
  0
LINE
  8
0
 10
0.463516
 20
241.427
 11
0.638657
 21
241.357
  0
LINE
  8
0
 10
0.638657
 20
241.357
 11
0.803726
 21
241.266
  0
LINE
  8
0
 10
0.803726
 20
241.266
 11
0.956131
 21
241.156
  0
LINE
  8
0
 10
0.956131
 20
241.156
 11
1.09344
 21
241.027
  0
LINE
  8
0
 10
1.09344
 20
241.027
 11
1.21352
 21
240.882
  0
LINE
  8
0
 10
1.21352
 20
240.882
 11
1.31445
 21
240.723
  0
LINE
  8
0
 10
1.31445
 20
240.723
 11
1.39465
 21
240.552
  0
LINE
  8
0
 10
1.39465
 20
240.552
 11
1.45287
 21
240.373
  0
LINE
  8
0
 10
1.45287
 20
240.373
 11
1.48816
 21
240.188
  0
LINE
  8
0
 10
1.48816
 20
240.188
 11
1.5
 21
240
  0
LINE
  8
0
 10
1.5
 20
240
 11
1.48816
 21
239.812
  0
LINE
  8
0
 10
1.48816
 20
239.812
 11
1.45287
 21
239.627
  0
LINE
  8
0
 10
1.45287
 20
239.627
 11
1.39465
 21
239.448
  0
LINE
  8
0
 10
1.39465
 20
239.448
 11
1.31445
 21
239.277
  0
LINE
  8
0
 10
1.31445
 20
239.277
 11
1.21352
 21
239.118
  0
LINE
  8
0
 10
1.21352
 20
239.118
 11
1.09344
 21
238.973
  0
LINE
  8
0
 10
1.09344
 20
238.973
 11
0.956131
 21
238.844
  0
LINE
  8
0
 10
0.956131
 20
238.844
 11
0.803726
 21
238.734
  0
LINE
  8
0
 10
0.803726
 20
238.734
 11
0.638657
 21
238.643
  0
LINE
  8
0
 10
0.638657
 20
238.643
 11
0.463516
 21
238.573
  0
LINE
  8
0
 10
0.463516
 20
238.573
 11
0.281067
 21
238.527
  0
LINE
  8
0
 10
0.281067
 20
238.527
 11
0.0941772
 21
238.503
  0
LINE
  8
0
 10
0.0941772
 20
238.503
 11
-0.0941772
 21
238.503
  0
ENDSEC
  0
SECTION
  2
OBJECTS
  0
DICTIONARY
  0
ENDSEC
  0
EOF
