  0
SECTION
  2
BLOCKS
  0
ENDSEC
  0
SECTION
  2
ENTITIES
  0
LINE
  8
0
 10
55.4369
 20
17.0886
 11
56.0451
 21
17.2447
  0
LINE
  8
0
 10
56.0451
 20
17.2447
 11
56.6289
 21
17.4759
  0
LINE
  8
0
 10
56.6289
 20
17.4759
 11
57.1791
 21
17.7784
  0
LINE
  8
0
 10
57.1791
 20
17.7784
 11
57.6871
 21
18.1474
  0
LINE
  8
0
 10
57.6871
 20
18.1474
 11
58.1448
 21
18.5773
  0
LINE
  8
0
 10
58.1448
 20
18.5773
 11
58.5451
 21
19.0611
  0
LINE
  8
0
 10
58.5451
 20
19.0611
 11
58.8815
 21
19.5912
  0
LINE
  8
0
 10
58.8815
 20
19.5912
 11
59.1489
 21
20.1594
  0
LINE
  8
0
 10
59.1489
 20
20.1594
 11
59.3429
 21
20.7566
  0
LINE
  8
0
 10
59.3429
 20
20.7566
 11
59.4606
 21
21.3733
  0
LINE
  8
0
 10
59.4606
 20
21.3733
 11
59.5
 21
22
  0
LINE
  8
0
 10
59.5
 20
22
 11
59.5
 21
26
  0
LINE
  8
0
 10
59.5
 20
26
 11
59.4606
 21
26.6267
  0
LINE
  8
0
 10
59.4606
 20
26.6267
 11
59.3429
 21
27.2434
  0
LINE
  8
0
 10
59.3429
 20
27.2434
 11
59.1489
 21
27.8406
  0
LINE
  8
0
 10
59.1489
 20
27.8406
 11
58.8815
 21
28.4088
  0
LINE
  8
0
 10
58.8815
 20
28.4088
 11
58.5451
 21
28.9389
  0
LINE
  8
0
 10
58.5451
 20
28.9389
 11
58.1448
 21
29.4227
  0
LINE
  8
0
 10
58.1448
 20
29.4227
 11
57.6871
 21
29.8526
  0
LINE
  8
0
 10
57.6871
 20
29.8526
 11
57.1791
 21
30.2216
  0
LINE
  8
0
 10
57.1791
 20
30.2216
 11
56.6289
 21
30.5241
  0
LINE
  8
0
 10
56.6289
 20
30.5241
 11
56.0451
 21
30.7553
  0
LINE
  8
0
 10
56.0451
 20
30.7553
 11
55.4369
 21
30.9114
  0
LINE
  8
0
 10
55.4369
 20
30.9114
 11
54.8139
 21
30.9901
  0
LINE
  8
0
 10
54.8139
 20
30.9901
 11
-54.8139
 21
30.9901
  0
LINE
  8
0
 10
-54.8139
 20
30.9901
 11
-55.4369
 21
30.9114
  0
LINE
  8
0
 10
-55.4369
 20
30.9114
 11
-56.0451
 21
30.7553
  0
LINE
  8
0
 10
-56.0451
 20
30.7553
 11
-56.6289
 21
30.5241
  0
LINE
  8
0
 10
-56.6289
 20
30.5241
 11
-57.1791
 21
30.2216
  0
LINE
  8
0
 10
-57.1791
 20
30.2216
 11
-57.6871
 21
29.8526
  0
LINE
  8
0
 10
-57.6871
 20
29.8526
 11
-58.1448
 21
29.4227
  0
LINE
  8
0
 10
-58.1448
 20
29.4227
 11
-58.5451
 21
28.9389
  0
LINE
  8
0
 10
-58.5451
 20
28.9389
 11
-58.8815
 21
28.4088
  0
LINE
  8
0
 10
-58.8815
 20
28.4088
 11
-59.1489
 21
27.8406
  0
LINE
  8
0
 10
-59.1489
 20
27.8406
 11
-59.3429
 21
27.2434
  0
LINE
  8
0
 10
-59.3429
 20
27.2434
 11
-59.4606
 21
26.6267
  0
LINE
  8
0
 10
-59.4606
 20
26.6267
 11
-59.5
 21
26
  0
LINE
  8
0
 10
-59.5
 20
26
 11
-59.5
 21
22
  0
LINE
  8
0
 10
-59.5
 20
22
 11
-59.4606
 21
21.3733
  0
LINE
  8
0
 10
-59.4606
 20
21.3733
 11
-59.3429
 21
20.7566
  0
LINE
  8
0
 10
-59.3429
 20
20.7566
 11
-59.1489
 21
20.1594
  0
LINE
  8
0
 10
-59.1489
 20
20.1594
 11
-58.8815
 21
19.5912
  0
LINE
  8
0
 10
-58.8815
 20
19.5912
 11
-58.5451
 21
19.0611
  0
LINE
  8
0
 10
-58.5451
 20
19.0611
 11
-58.1448
 21
18.5773
  0
LINE
  8
0
 10
-58.1448
 20
18.5773
 11
-57.6871
 21
18.1474
  0
LINE
  8
0
 10
-57.6871
 20
18.1474
 11
-57.1791
 21
17.7784
  0
LINE
  8
0
 10
-57.1791
 20
17.7784
 11
-56.6289
 21
17.4759
  0
LINE
  8
0
 10
-56.6289
 20
17.4759
 11
-56.0451
 21
17.2447
  0
LINE
  8
0
 10
-56.0451
 20
17.2447
 11
-55.4369
 21
17.0886
  0
LINE
  8
0
 10
-55.4369
 20
17.0886
 11
-54.8139
 21
17.0099
  0
LINE
  8
0
 10
-54.8139
 20
17.0099
 11
54.8139
 21
17.0099
  0
LINE
  8
0
 10
54.8139
 20
17.0099
 11
55.4369
 21
17.0886
  0
LINE
  8
0
 10
52.3116
 20
21.0059
 11
51.9379
 21
21.0531
  0
LINE
  8
0
 10
51.9379
 20
21.0531
 11
51.5729
 21
21.1468
  0
LINE
  8
0
 10
51.5729
 20
21.1468
 11
51.2227
 21
21.2855
  0
LINE
  8
0
 10
51.2227
 20
21.2855
 11
50.8925
 21
21.467
  0
LINE
  8
0
 10
50.8925
 20
21.467
 11
50.5877
 21
21.6885
  0
LINE
  8
0
 10
50.5877
 20
21.6885
 11
50.3131
 21
21.9464
  0
LINE
  8
0
 10
50.3131
 20
21.9464
 11
50.0729
 21
22.2366
  0
LINE
  8
0
 10
50.0729
 20
22.2366
 11
49.8711
 21
22.5547
  0
LINE
  8
0
 10
49.8711
 20
22.5547
 11
49.7107
 21
22.8956
  0
LINE
  8
0
 10
49.7107
 20
22.8956
 11
49.5942
 21
23.2539
  0
LINE
  8
0
 10
49.5942
 20
23.2539
 11
49.5237
 21
23.624
  0
LINE
  8
0
 10
49.5237
 20
23.624
 11
49.5
 21
24
  0
LINE
  8
0
 10
49.5
 20
24
 11
49.5237
 21
24.376
  0
LINE
  8
0
 10
49.5237
 20
24.376
 11
49.5942
 21
24.7461
  0
LINE
  8
0
 10
49.5942
 20
24.7461
 11
49.7107
 21
25.1044
  0
LINE
  8
0
 10
49.7107
 20
25.1044
 11
49.8711
 21
25.4453
  0
LINE
  8
0
 10
49.8711
 20
25.4453
 11
50.0729
 21
25.7634
  0
LINE
  8
0
 10
50.0729
 20
25.7634
 11
50.3131
 21
26.0536
  0
LINE
  8
0
 10
50.3131
 20
26.0536
 11
50.5877
 21
26.3115
  0
LINE
  8
0
 10
50.5877
 20
26.3115
 11
50.8925
 21
26.533
  0
LINE
  8
0
 10
50.8925
 20
26.533
 11
51.2227
 21
26.7145
  0
LINE
  8
0
 10
51.2227
 20
26.7145
 11
51.5729
 21
26.8532
  0
LINE
  8
0
 10
51.5729
 20
26.8532
 11
51.9379
 21
26.9469
  0
LINE
  8
0
 10
51.9379
 20
26.9469
 11
52.3116
 21
26.9941
  0
LINE
  8
0
 10
52.3116
 20
26.9941
 11
52.6884
 21
26.9941
  0
LINE
  8
0
 10
52.6884
 20
26.9941
 11
53.0621
 21
26.9469
  0
LINE
  8
0
 10
53.0621
 20
26.9469
 11
53.427
 21
26.8532
  0
LINE
  8
0
 10
53.427
 20
26.8532
 11
53.7773
 21
26.7145
  0
LINE
  8
0
 10
53.7773
 20
26.7145
 11
54.1075
 21
26.533
  0
LINE
  8
0
 10
54.1075
 20
26.533
 11
54.4123
 21
26.3115
  0
LINE
  8
0
 10
54.4123
 20
26.3115
 11
54.6869
 21
26.0536
  0
LINE
  8
0
 10
54.6869
 20
26.0536
 11
54.927
 21
25.7634
  0
LINE
  8
0
 10
54.927
 20
25.7634
 11
55.1289
 21
25.4453
  0
LINE
  8
0
 10
55.1289
 20
25.4453
 11
55.2893
 21
25.1044
  0
LINE
  8
0
 10
55.2893
 20
25.1044
 11
55.4057
 21
24.7461
  0
LINE
  8
0
 10
55.4057
 20
24.7461
 11
55.4763
 21
24.376
  0
LINE
  8
0
 10
55.4763
 20
24.376
 11
55.5
 21
24
  0
LINE
  8
0
 10
55.5
 20
24
 11
55.4763
 21
23.624
  0
LINE
  8
0
 10
55.4763
 20
23.624
 11
55.4057
 21
23.2539
  0
LINE
  8
0
 10
55.4057
 20
23.2539
 11
55.2893
 21
22.8956
  0
LINE
  8
0
 10
55.2893
 20
22.8956
 11
55.1289
 21
22.5547
  0
LINE
  8
0
 10
55.1289
 20
22.5547
 11
54.927
 21
22.2366
  0
LINE
  8
0
 10
54.927
 20
22.2366
 11
54.6869
 21
21.9464
  0
LINE
  8
0
 10
54.6869
 20
21.9464
 11
54.4123
 21
21.6885
  0
LINE
  8
0
 10
54.4123
 20
21.6885
 11
54.1075
 21
21.467
  0
LINE
  8
0
 10
54.1075
 20
21.467
 11
53.7773
 21
21.2855
  0
LINE
  8
0
 10
53.7773
 20
21.2855
 11
53.427
 21
21.1468
  0
LINE
  8
0
 10
53.427
 20
21.1468
 11
53.0621
 21
21.0531
  0
LINE
  8
0
 10
53.0621
 20
21.0531
 11
52.6884
 21
21.0059
  0
LINE
  8
0
 10
52.6884
 20
21.0059
 11
52.3116
 21
21.0059
  0
LINE
  8
0
 10
-52.6884
 20
21.0059
 11
-53.0621
 21
21.0531
  0
LINE
  8
0
 10
-53.0621
 20
21.0531
 11
-53.427
 21
21.1468
  0
LINE
  8
0
 10
-53.427
 20
21.1468
 11
-53.7773
 21
21.2855
  0
LINE
  8
0
 10
-53.7773
 20
21.2855
 11
-54.1075
 21
21.467
  0
LINE
  8
0
 10
-54.1075
 20
21.467
 11
-54.4123
 21
21.6885
  0
LINE
  8
0
 10
-54.4123
 20
21.6885
 11
-54.6869
 21
21.9464
  0
LINE
  8
0
 10
-54.6869
 20
21.9464
 11
-54.927
 21
22.2366
  0
LINE
  8
0
 10
-54.927
 20
22.2366
 11
-55.1289
 21
22.5547
  0
LINE
  8
0
 10
-55.1289
 20
22.5547
 11
-55.2893
 21
22.8956
  0
LINE
  8
0
 10
-55.2893
 20
22.8956
 11
-55.4057
 21
23.2539
  0
LINE
  8
0
 10
-55.4057
 20
23.2539
 11
-55.4763
 21
23.624
  0
LINE
  8
0
 10
-55.4763
 20
23.624
 11
-55.5
 21
24
  0
LINE
  8
0
 10
-55.5
 20
24
 11
-55.4763
 21
24.376
  0
LINE
  8
0
 10
-55.4763
 20
24.376
 11
-55.4057
 21
24.7461
  0
LINE
  8
0
 10
-55.4057
 20
24.7461
 11
-55.2893
 21
25.1044
  0
LINE
  8
0
 10
-55.2893
 20
25.1044
 11
-55.1289
 21
25.4453
  0
LINE
  8
0
 10
-55.1289
 20
25.4453
 11
-54.927
 21
25.7634
  0
LINE
  8
0
 10
-54.927
 20
25.7634
 11
-54.6869
 21
26.0536
  0
LINE
  8
0
 10
-54.6869
 20
26.0536
 11
-54.4123
 21
26.3115
  0
LINE
  8
0
 10
-54.4123
 20
26.3115
 11
-54.1075
 21
26.533
  0
LINE
  8
0
 10
-54.1075
 20
26.533
 11
-53.7773
 21
26.7145
  0
LINE
  8
0
 10
-53.7773
 20
26.7145
 11
-53.427
 21
26.8532
  0
LINE
  8
0
 10
-53.427
 20
26.8532
 11
-53.0621
 21
26.9469
  0
LINE
  8
0
 10
-53.0621
 20
26.9469
 11
-52.6884
 21
26.9941
  0
LINE
  8
0
 10
-52.6884
 20
26.9941
 11
-52.3116
 21
26.9941
  0
LINE
  8
0
 10
-52.3116
 20
26.9941
 11
-51.9379
 21
26.9469
  0
LINE
  8
0
 10
-51.9379
 20
26.9469
 11
-51.5729
 21
26.8532
  0
LINE
  8
0
 10
-51.5729
 20
26.8532
 11
-51.2227
 21
26.7145
  0
LINE
  8
0
 10
-51.2227
 20
26.7145
 11
-50.8925
 21
26.533
  0
LINE
  8
0
 10
-50.8925
 20
26.533
 11
-50.5877
 21
26.3115
  0
LINE
  8
0
 10
-50.5877
 20
26.3115
 11
-50.3131
 21
26.0536
  0
LINE
  8
0
 10
-50.3131
 20
26.0536
 11
-50.0729
 21
25.7634
  0
LINE
  8
0
 10
-50.0729
 20
25.7634
 11
-49.8711
 21
25.4453
  0
LINE
  8
0
 10
-49.8711
 20
25.4453
 11
-49.7107
 21
25.1044
  0
LINE
  8
0
 10
-49.7107
 20
25.1044
 11
-49.5942
 21
24.7461
  0
LINE
  8
0
 10
-49.5942
 20
24.7461
 11
-49.5237
 21
24.376
  0
LINE
  8
0
 10
-49.5237
 20
24.376
 11
-49.5
 21
24
  0
LINE
  8
0
 10
-49.5
 20
24
 11
-49.5237
 21
23.624
  0
LINE
  8
0
 10
-49.5237
 20
23.624
 11
-49.5942
 21
23.2539
  0
LINE
  8
0
 10
-49.5942
 20
23.2539
 11
-49.7107
 21
22.8956
  0
LINE
  8
0
 10
-49.7107
 20
22.8956
 11
-49.8711
 21
22.5547
  0
LINE
  8
0
 10
-49.8711
 20
22.5547
 11
-50.0729
 21
22.2366
  0
LINE
  8
0
 10
-50.0729
 20
22.2366
 11
-50.3131
 21
21.9464
  0
LINE
  8
0
 10
-50.3131
 20
21.9464
 11
-50.5877
 21
21.6885
  0
LINE
  8
0
 10
-50.5877
 20
21.6885
 11
-50.8925
 21
21.467
  0
LINE
  8
0
 10
-50.8925
 20
21.467
 11
-51.2227
 21
21.2855
  0
LINE
  8
0
 10
-51.2227
 20
21.2855
 11
-51.5729
 21
21.1468
  0
LINE
  8
0
 10
-51.5729
 20
21.1468
 11
-51.9379
 21
21.0531
  0
LINE
  8
0
 10
-51.9379
 20
21.0531
 11
-52.3116
 21
21.0059
  0
LINE
  8
0
 10
-52.3116
 20
21.0059
 11
-52.6884
 21
21.0059
  0
ENDSEC
  0
SECTION
  2
OBJECTS
  0
DICTIONARY
  0
ENDSEC
  0
EOF
