  0
SECTION
  2
BLOCKS
  0
ENDSEC
  0
SECTION
  2
ENTITIES
  0
LINE
  8
0
 10
32.9369
 20
467.089
 11
33.5451
 21
467.245
  0
LINE
  8
0
 10
33.5451
 20
467.245
 11
34.1289
 21
467.476
  0
LINE
  8
0
 10
34.1289
 20
467.476
 11
34.6791
 21
467.778
  0
LINE
  8
0
 10
34.6791
 20
467.778
 11
35.1871
 21
468.147
  0
LINE
  8
0
 10
35.1871
 20
468.147
 11
35.6448
 21
468.577
  0
LINE
  8
0
 10
35.6448
 20
468.577
 11
36.0451
 21
469.061
  0
LINE
  8
0
 10
36.0451
 20
469.061
 11
36.3815
 21
469.591
  0
LINE
  8
0
 10
36.3815
 20
469.591
 11
36.6489
 21
470.159
  0
LINE
  8
0
 10
36.6489
 20
470.159
 11
36.8429
 21
470.757
  0
LINE
  8
0
 10
36.8429
 20
470.757
 11
36.9606
 21
471.373
  0
LINE
  8
0
 10
36.9606
 20
471.373
 11
37
 21
472
  0
LINE
  8
0
 10
37
 20
472
 11
37
 21
536
  0
LINE
  8
0
 10
37
 20
536
 11
36.9606
 21
536.627
  0
LINE
  8
0
 10
36.9606
 20
536.627
 11
36.8429
 21
537.243
  0
LINE
  8
0
 10
36.8429
 20
537.243
 11
36.6489
 21
537.841
  0
LINE
  8
0
 10
36.6489
 20
537.841
 11
36.3815
 21
538.409
  0
LINE
  8
0
 10
36.3815
 20
538.409
 11
36.0451
 21
538.939
  0
LINE
  8
0
 10
36.0451
 20
538.939
 11
35.6448
 21
539.423
  0
LINE
  8
0
 10
35.6448
 20
539.423
 11
35.1871
 21
539.853
  0
LINE
  8
0
 10
35.1871
 20
539.853
 11
34.6791
 21
540.222
  0
LINE
  8
0
 10
34.6791
 20
540.222
 11
34.1289
 21
540.524
  0
LINE
  8
0
 10
34.1289
 20
540.524
 11
33.5451
 21
540.755
  0
LINE
  8
0
 10
33.5451
 20
540.755
 11
32.9369
 21
540.911
  0
LINE
  8
0
 10
32.9369
 20
540.911
 11
32.3139
 21
540.99
  0
LINE
  8
0
 10
32.3139
 20
540.99
 11
-32.3139
 21
540.99
  0
LINE
  8
0
 10
-32.3139
 20
540.99
 11
-32.9369
 21
540.911
  0
LINE
  8
0
 10
-32.9369
 20
540.911
 11
-33.5451
 21
540.755
  0
LINE
  8
0
 10
-33.5451
 20
540.755
 11
-34.1289
 21
540.524
  0
LINE
  8
0
 10
-34.1289
 20
540.524
 11
-34.6791
 21
540.222
  0
LINE
  8
0
 10
-34.6791
 20
540.222
 11
-35.1871
 21
539.853
  0
LINE
  8
0
 10
-35.1871
 20
539.853
 11
-35.6448
 21
539.423
  0
LINE
  8
0
 10
-35.6448
 20
539.423
 11
-36.0451
 21
538.939
  0
LINE
  8
0
 10
-36.0451
 20
538.939
 11
-36.3815
 21
538.409
  0
LINE
  8
0
 10
-36.3815
 20
538.409
 11
-36.6489
 21
537.841
  0
LINE
  8
0
 10
-36.6489
 20
537.841
 11
-36.8429
 21
537.243
  0
LINE
  8
0
 10
-36.8429
 20
537.243
 11
-36.9606
 21
536.627
  0
LINE
  8
0
 10
-36.9606
 20
536.627
 11
-37
 21
536
  0
LINE
  8
0
 10
-37
 20
536
 11
-37
 21
472
  0
LINE
  8
0
 10
-37
 20
472
 11
-36.9606
 21
471.373
  0
LINE
  8
0
 10
-36.9606
 20
471.373
 11
-36.8429
 21
470.757
  0
LINE
  8
0
 10
-36.8429
 20
470.757
 11
-36.6489
 21
470.159
  0
LINE
  8
0
 10
-36.6489
 20
470.159
 11
-36.3815
 21
469.591
  0
LINE
  8
0
 10
-36.3815
 20
469.591
 11
-36.0451
 21
469.061
  0
LINE
  8
0
 10
-36.0451
 20
469.061
 11
-35.6448
 21
468.577
  0
LINE
  8
0
 10
-35.6448
 20
468.577
 11
-35.1871
 21
468.147
  0
LINE
  8
0
 10
-35.1871
 20
468.147
 11
-34.6791
 21
467.778
  0
LINE
  8
0
 10
-34.6791
 20
467.778
 11
-34.1289
 21
467.476
  0
LINE
  8
0
 10
-34.1289
 20
467.476
 11
-33.5451
 21
467.245
  0
LINE
  8
0
 10
-33.5451
 20
467.245
 11
-32.9369
 21
467.089
  0
LINE
  8
0
 10
-32.9369
 20
467.089
 11
-32.3139
 21
467.01
  0
LINE
  8
0
 10
-32.3139
 20
467.01
 11
32.3139
 21
467.01
  0
LINE
  8
0
 10
32.3139
 20
467.01
 11
32.9369
 21
467.089
  0
LINE
  8
0
 10
-30.1884
 20
531.006
 11
-30.5621
 21
531.053
  0
LINE
  8
0
 10
-30.5621
 20
531.053
 11
-30.927
 21
531.147
  0
LINE
  8
0
 10
-30.927
 20
531.147
 11
-31.2773
 21
531.286
  0
LINE
  8
0
 10
-31.2773
 20
531.286
 11
-31.6075
 21
531.467
  0
LINE
  8
0
 10
-31.6075
 20
531.467
 11
-31.9123
 21
531.688
  0
LINE
  8
0
 10
-31.9123
 20
531.688
 11
-32.1869
 21
531.946
  0
LINE
  8
0
 10
-32.1869
 20
531.946
 11
-32.427
 21
532.237
  0
LINE
  8
0
 10
-32.427
 20
532.237
 11
-32.6289
 21
532.555
  0
LINE
  8
0
 10
-32.6289
 20
532.555
 11
-32.7893
 21
532.896
  0
LINE
  8
0
 10
-32.7893
 20
532.896
 11
-32.9057
 21
533.254
  0
LINE
  8
0
 10
-32.9057
 20
533.254
 11
-32.9763
 21
533.624
  0
LINE
  8
0
 10
-32.9763
 20
533.624
 11
-33
 21
534
  0
LINE
  8
0
 10
-33
 20
534
 11
-32.9763
 21
534.376
  0
LINE
  8
0
 10
-32.9763
 20
534.376
 11
-32.9057
 21
534.746
  0
LINE
  8
0
 10
-32.9057
 20
534.746
 11
-32.7893
 21
535.104
  0
LINE
  8
0
 10
-32.7893
 20
535.104
 11
-32.6289
 21
535.445
  0
LINE
  8
0
 10
-32.6289
 20
535.445
 11
-32.427
 21
535.763
  0
LINE
  8
0
 10
-32.427
 20
535.763
 11
-32.1869
 21
536.054
  0
LINE
  8
0
 10
-32.1869
 20
536.054
 11
-31.9123
 21
536.312
  0
LINE
  8
0
 10
-31.9123
 20
536.312
 11
-31.6075
 21
536.533
  0
LINE
  8
0
 10
-31.6075
 20
536.533
 11
-31.2773
 21
536.714
  0
LINE
  8
0
 10
-31.2773
 20
536.714
 11
-30.927
 21
536.853
  0
LINE
  8
0
 10
-30.927
 20
536.853
 11
-30.5621
 21
536.947
  0
LINE
  8
0
 10
-30.5621
 20
536.947
 11
-30.1884
 21
536.994
  0
LINE
  8
0
 10
-30.1884
 20
536.994
 11
-29.8116
 21
536.994
  0
LINE
  8
0
 10
-29.8116
 20
536.994
 11
-29.4379
 21
536.947
  0
LINE
  8
0
 10
-29.4379
 20
536.947
 11
-29.0729
 21
536.853
  0
LINE
  8
0
 10
-29.0729
 20
536.853
 11
-28.7227
 21
536.714
  0
LINE
  8
0
 10
-28.7227
 20
536.714
 11
-28.3925
 21
536.533
  0
LINE
  8
0
 10
-28.3925
 20
536.533
 11
-28.0877
 21
536.312
  0
LINE
  8
0
 10
-28.0877
 20
536.312
 11
-27.8131
 21
536.054
  0
LINE
  8
0
 10
-27.8131
 20
536.054
 11
-27.5729
 21
535.763
  0
LINE
  8
0
 10
-27.5729
 20
535.763
 11
-27.3711
 21
535.445
  0
LINE
  8
0
 10
-27.3711
 20
535.445
 11
-27.2107
 21
535.104
  0
LINE
  8
0
 10
-27.2107
 20
535.104
 11
-27.0942
 21
534.746
  0
LINE
  8
0
 10
-27.0942
 20
534.746
 11
-27.0237
 21
534.376
  0
LINE
  8
0
 10
-27.0237
 20
534.376
 11
-27
 21
534
  0
LINE
  8
0
 10
-27
 20
534
 11
-27.0237
 21
533.624
  0
LINE
  8
0
 10
-27.0237
 20
533.624
 11
-27.0942
 21
533.254
  0
LINE
  8
0
 10
-27.0942
 20
533.254
 11
-27.2107
 21
532.896
  0
LINE
  8
0
 10
-27.2107
 20
532.896
 11
-27.3711
 21
532.555
  0
LINE
  8
0
 10
-27.3711
 20
532.555
 11
-27.5729
 21
532.237
  0
LINE
  8
0
 10
-27.5729
 20
532.237
 11
-27.8131
 21
531.946
  0
LINE
  8
0
 10
-27.8131
 20
531.946
 11
-28.0877
 21
531.688
  0
LINE
  8
0
 10
-28.0877
 20
531.688
 11
-28.3925
 21
531.467
  0
LINE
  8
0
 10
-28.3925
 20
531.467
 11
-28.7227
 21
531.286
  0
LINE
  8
0
 10
-28.7227
 20
531.286
 11
-29.0729
 21
531.147
  0
LINE
  8
0
 10
-29.0729
 20
531.147
 11
-29.4379
 21
531.053
  0
LINE
  8
0
 10
-29.4379
 20
531.053
 11
-29.8116
 21
531.006
  0
LINE
  8
0
 10
-29.8116
 20
531.006
 11
-30.1884
 21
531.006
  0
LINE
  8
0
 10
29.8116
 20
531.006
 11
29.4379
 21
531.053
  0
LINE
  8
0
 10
29.4379
 20
531.053
 11
29.0729
 21
531.147
  0
LINE
  8
0
 10
29.0729
 20
531.147
 11
28.7227
 21
531.286
  0
LINE
  8
0
 10
28.7227
 20
531.286
 11
28.3925
 21
531.467
  0
LINE
  8
0
 10
28.3925
 20
531.467
 11
28.0877
 21
531.688
  0
LINE
  8
0
 10
28.0877
 20
531.688
 11
27.8131
 21
531.946
  0
LINE
  8
0
 10
27.8131
 20
531.946
 11
27.5729
 21
532.237
  0
LINE
  8
0
 10
27.5729
 20
532.237
 11
27.3711
 21
532.555
  0
LINE
  8
0
 10
27.3711
 20
532.555
 11
27.2107
 21
532.896
  0
LINE
  8
0
 10
27.2107
 20
532.896
 11
27.0942
 21
533.254
  0
LINE
  8
0
 10
27.0942
 20
533.254
 11
27.0237
 21
533.624
  0
LINE
  8
0
 10
27.0237
 20
533.624
 11
27
 21
534
  0
LINE
  8
0
 10
27
 20
534
 11
27.0237
 21
534.376
  0
LINE
  8
0
 10
27.0237
 20
534.376
 11
27.0942
 21
534.746
  0
LINE
  8
0
 10
27.0942
 20
534.746
 11
27.2107
 21
535.104
  0
LINE
  8
0
 10
27.2107
 20
535.104
 11
27.3711
 21
535.445
  0
LINE
  8
0
 10
27.3711
 20
535.445
 11
27.5729
 21
535.763
  0
LINE
  8
0
 10
27.5729
 20
535.763
 11
27.8131
 21
536.054
  0
LINE
  8
0
 10
27.8131
 20
536.054
 11
28.0877
 21
536.312
  0
LINE
  8
0
 10
28.0877
 20
536.312
 11
28.3925
 21
536.533
  0
LINE
  8
0
 10
28.3925
 20
536.533
 11
28.7227
 21
536.714
  0
LINE
  8
0
 10
28.7227
 20
536.714
 11
29.0729
 21
536.853
  0
LINE
  8
0
 10
29.0729
 20
536.853
 11
29.4379
 21
536.947
  0
LINE
  8
0
 10
29.4379
 20
536.947
 11
29.8116
 21
536.994
  0
LINE
  8
0
 10
29.8116
 20
536.994
 11
30.1884
 21
536.994
  0
LINE
  8
0
 10
30.1884
 20
536.994
 11
30.5621
 21
536.947
  0
LINE
  8
0
 10
30.5621
 20
536.947
 11
30.927
 21
536.853
  0
LINE
  8
0
 10
30.927
 20
536.853
 11
31.2773
 21
536.714
  0
LINE
  8
0
 10
31.2773
 20
536.714
 11
31.6075
 21
536.533
  0
LINE
  8
0
 10
31.6075
 20
536.533
 11
31.9123
 21
536.312
  0
LINE
  8
0
 10
31.9123
 20
536.312
 11
32.1869
 21
536.054
  0
LINE
  8
0
 10
32.1869
 20
536.054
 11
32.427
 21
535.763
  0
LINE
  8
0
 10
32.427
 20
535.763
 11
32.6289
 21
535.445
  0
LINE
  8
0
 10
32.6289
 20
535.445
 11
32.7893
 21
535.104
  0
LINE
  8
0
 10
32.7893
 20
535.104
 11
32.9057
 21
534.746
  0
LINE
  8
0
 10
32.9057
 20
534.746
 11
32.9763
 21
534.376
  0
LINE
  8
0
 10
32.9763
 20
534.376
 11
33
 21
534
  0
LINE
  8
0
 10
33
 20
534
 11
32.9763
 21
533.624
  0
LINE
  8
0
 10
32.9763
 20
533.624
 11
32.9057
 21
533.254
  0
LINE
  8
0
 10
32.9057
 20
533.254
 11
32.7893
 21
532.896
  0
LINE
  8
0
 10
32.7893
 20
532.896
 11
32.6289
 21
532.555
  0
LINE
  8
0
 10
32.6289
 20
532.555
 11
32.427
 21
532.237
  0
LINE
  8
0
 10
32.427
 20
532.237
 11
32.1869
 21
531.946
  0
LINE
  8
0
 10
32.1869
 20
531.946
 11
31.9123
 21
531.688
  0
LINE
  8
0
 10
31.9123
 20
531.688
 11
31.6075
 21
531.467
  0
LINE
  8
0
 10
31.6075
 20
531.467
 11
31.2773
 21
531.286
  0
LINE
  8
0
 10
31.2773
 20
531.286
 11
30.927
 21
531.147
  0
LINE
  8
0
 10
30.927
 20
531.147
 11
30.5621
 21
531.053
  0
LINE
  8
0
 10
30.5621
 20
531.053
 11
30.1884
 21
531.006
  0
LINE
  8
0
 10
30.1884
 20
531.006
 11
29.8116
 21
531.006
  0
LINE
  8
0
 10
-30.1884
 20
471.006
 11
-30.5621
 21
471.053
  0
LINE
  8
0
 10
-30.5621
 20
471.053
 11
-30.927
 21
471.147
  0
LINE
  8
0
 10
-30.927
 20
471.147
 11
-31.2773
 21
471.286
  0
LINE
  8
0
 10
-31.2773
 20
471.286
 11
-31.6075
 21
471.467
  0
LINE
  8
0
 10
-31.6075
 20
471.467
 11
-31.9123
 21
471.688
  0
LINE
  8
0
 10
-31.9123
 20
471.688
 11
-32.1869
 21
471.946
  0
LINE
  8
0
 10
-32.1869
 20
471.946
 11
-32.427
 21
472.237
  0
LINE
  8
0
 10
-32.427
 20
472.237
 11
-32.6289
 21
472.555
  0
LINE
  8
0
 10
-32.6289
 20
472.555
 11
-32.7893
 21
472.896
  0
LINE
  8
0
 10
-32.7893
 20
472.896
 11
-32.9057
 21
473.254
  0
LINE
  8
0
 10
-32.9057
 20
473.254
 11
-32.9763
 21
473.624
  0
LINE
  8
0
 10
-32.9763
 20
473.624
 11
-33
 21
474
  0
LINE
  8
0
 10
-33
 20
474
 11
-32.9763
 21
474.376
  0
LINE
  8
0
 10
-32.9763
 20
474.376
 11
-32.9057
 21
474.746
  0
LINE
  8
0
 10
-32.9057
 20
474.746
 11
-32.7893
 21
475.104
  0
LINE
  8
0
 10
-32.7893
 20
475.104
 11
-32.6289
 21
475.445
  0
LINE
  8
0
 10
-32.6289
 20
475.445
 11
-32.427
 21
475.763
  0
LINE
  8
0
 10
-32.427
 20
475.763
 11
-32.1869
 21
476.054
  0
LINE
  8
0
 10
-32.1869
 20
476.054
 11
-31.9123
 21
476.312
  0
LINE
  8
0
 10
-31.9123
 20
476.312
 11
-31.6075
 21
476.533
  0
LINE
  8
0
 10
-31.6075
 20
476.533
 11
-31.2773
 21
476.714
  0
LINE
  8
0
 10
-31.2773
 20
476.714
 11
-30.927
 21
476.853
  0
LINE
  8
0
 10
-30.927
 20
476.853
 11
-30.5621
 21
476.947
  0
LINE
  8
0
 10
-30.5621
 20
476.947
 11
-30.1884
 21
476.994
  0
LINE
  8
0
 10
-30.1884
 20
476.994
 11
-29.8116
 21
476.994
  0
LINE
  8
0
 10
-29.8116
 20
476.994
 11
-29.4379
 21
476.947
  0
LINE
  8
0
 10
-29.4379
 20
476.947
 11
-29.0729
 21
476.853
  0
LINE
  8
0
 10
-29.0729
 20
476.853
 11
-28.7227
 21
476.714
  0
LINE
  8
0
 10
-28.7227
 20
476.714
 11
-28.3925
 21
476.533
  0
LINE
  8
0
 10
-28.3925
 20
476.533
 11
-28.0877
 21
476.312
  0
LINE
  8
0
 10
-28.0877
 20
476.312
 11
-27.8131
 21
476.054
  0
LINE
  8
0
 10
-27.8131
 20
476.054
 11
-27.5729
 21
475.763
  0
LINE
  8
0
 10
-27.5729
 20
475.763
 11
-27.3711
 21
475.445
  0
LINE
  8
0
 10
-27.3711
 20
475.445
 11
-27.2107
 21
475.104
  0
LINE
  8
0
 10
-27.2107
 20
475.104
 11
-27.0942
 21
474.746
  0
LINE
  8
0
 10
-27.0942
 20
474.746
 11
-27.0237
 21
474.376
  0
LINE
  8
0
 10
-27.0237
 20
474.376
 11
-27
 21
474
  0
LINE
  8
0
 10
-27
 20
474
 11
-27.0237
 21
473.624
  0
LINE
  8
0
 10
-27.0237
 20
473.624
 11
-27.0942
 21
473.254
  0
LINE
  8
0
 10
-27.0942
 20
473.254
 11
-27.2107
 21
472.896
  0
LINE
  8
0
 10
-27.2107
 20
472.896
 11
-27.3711
 21
472.555
  0
LINE
  8
0
 10
-27.3711
 20
472.555
 11
-27.5729
 21
472.237
  0
LINE
  8
0
 10
-27.5729
 20
472.237
 11
-27.8131
 21
471.946
  0
LINE
  8
0
 10
-27.8131
 20
471.946
 11
-28.0877
 21
471.688
  0
LINE
  8
0
 10
-28.0877
 20
471.688
 11
-28.3925
 21
471.467
  0
LINE
  8
0
 10
-28.3925
 20
471.467
 11
-28.7227
 21
471.286
  0
LINE
  8
0
 10
-28.7227
 20
471.286
 11
-29.0729
 21
471.147
  0
LINE
  8
0
 10
-29.0729
 20
471.147
 11
-29.4379
 21
471.053
  0
LINE
  8
0
 10
-29.4379
 20
471.053
 11
-29.8116
 21
471.006
  0
LINE
  8
0
 10
-29.8116
 20
471.006
 11
-30.1884
 21
471.006
  0
LINE
  8
0
 10
29.8116
 20
471.006
 11
29.4379
 21
471.053
  0
LINE
  8
0
 10
29.4379
 20
471.053
 11
29.0729
 21
471.147
  0
LINE
  8
0
 10
29.0729
 20
471.147
 11
28.7227
 21
471.286
  0
LINE
  8
0
 10
28.7227
 20
471.286
 11
28.3925
 21
471.467
  0
LINE
  8
0
 10
28.3925
 20
471.467
 11
28.0877
 21
471.688
  0
LINE
  8
0
 10
28.0877
 20
471.688
 11
27.8131
 21
471.946
  0
LINE
  8
0
 10
27.8131
 20
471.946
 11
27.5729
 21
472.237
  0
LINE
  8
0
 10
27.5729
 20
472.237
 11
27.3711
 21
472.555
  0
LINE
  8
0
 10
27.3711
 20
472.555
 11
27.2107
 21
472.896
  0
LINE
  8
0
 10
27.2107
 20
472.896
 11
27.0942
 21
473.254
  0
LINE
  8
0
 10
27.0942
 20
473.254
 11
27.0237
 21
473.624
  0
LINE
  8
0
 10
27.0237
 20
473.624
 11
27
 21
474
  0
LINE
  8
0
 10
27
 20
474
 11
27.0237
 21
474.376
  0
LINE
  8
0
 10
27.0237
 20
474.376
 11
27.0942
 21
474.746
  0
LINE
  8
0
 10
27.0942
 20
474.746
 11
27.2107
 21
475.104
  0
LINE
  8
0
 10
27.2107
 20
475.104
 11
27.3711
 21
475.445
  0
LINE
  8
0
 10
27.3711
 20
475.445
 11
27.5729
 21
475.763
  0
LINE
  8
0
 10
27.5729
 20
475.763
 11
27.8131
 21
476.054
  0
LINE
  8
0
 10
27.8131
 20
476.054
 11
28.0877
 21
476.312
  0
LINE
  8
0
 10
28.0877
 20
476.312
 11
28.3925
 21
476.533
  0
LINE
  8
0
 10
28.3925
 20
476.533
 11
28.7227
 21
476.714
  0
LINE
  8
0
 10
28.7227
 20
476.714
 11
29.0729
 21
476.853
  0
LINE
  8
0
 10
29.0729
 20
476.853
 11
29.4379
 21
476.947
  0
LINE
  8
0
 10
29.4379
 20
476.947
 11
29.8116
 21
476.994
  0
LINE
  8
0
 10
29.8116
 20
476.994
 11
30.1884
 21
476.994
  0
LINE
  8
0
 10
30.1884
 20
476.994
 11
30.5621
 21
476.947
  0
LINE
  8
0
 10
30.5621
 20
476.947
 11
30.927
 21
476.853
  0
LINE
  8
0
 10
30.927
 20
476.853
 11
31.2773
 21
476.714
  0
LINE
  8
0
 10
31.2773
 20
476.714
 11
31.6075
 21
476.533
  0
LINE
  8
0
 10
31.6075
 20
476.533
 11
31.9123
 21
476.312
  0
LINE
  8
0
 10
31.9123
 20
476.312
 11
32.1869
 21
476.054
  0
LINE
  8
0
 10
32.1869
 20
476.054
 11
32.427
 21
475.763
  0
LINE
  8
0
 10
32.427
 20
475.763
 11
32.6289
 21
475.445
  0
LINE
  8
0
 10
32.6289
 20
475.445
 11
32.7893
 21
475.104
  0
LINE
  8
0
 10
32.7893
 20
475.104
 11
32.9057
 21
474.746
  0
LINE
  8
0
 10
32.9057
 20
474.746
 11
32.9763
 21
474.376
  0
LINE
  8
0
 10
32.9763
 20
474.376
 11
33
 21
474
  0
LINE
  8
0
 10
33
 20
474
 11
32.9763
 21
473.624
  0
LINE
  8
0
 10
32.9763
 20
473.624
 11
32.9057
 21
473.254
  0
LINE
  8
0
 10
32.9057
 20
473.254
 11
32.7893
 21
472.896
  0
LINE
  8
0
 10
32.7893
 20
472.896
 11
32.6289
 21
472.555
  0
LINE
  8
0
 10
32.6289
 20
472.555
 11
32.427
 21
472.237
  0
LINE
  8
0
 10
32.427
 20
472.237
 11
32.1869
 21
471.946
  0
LINE
  8
0
 10
32.1869
 20
471.946
 11
31.9123
 21
471.688
  0
LINE
  8
0
 10
31.9123
 20
471.688
 11
31.6075
 21
471.467
  0
LINE
  8
0
 10
31.6075
 20
471.467
 11
31.2773
 21
471.286
  0
LINE
  8
0
 10
31.2773
 20
471.286
 11
30.927
 21
471.147
  0
LINE
  8
0
 10
30.927
 20
471.147
 11
30.5621
 21
471.053
  0
LINE
  8
0
 10
30.5621
 20
471.053
 11
30.1884
 21
471.006
  0
LINE
  8
0
 10
30.1884
 20
471.006
 11
29.8116
 21
471.006
  0
LINE
  8
0
 10
32.9369
 20
383.089
 11
33.5451
 21
383.245
  0
LINE
  8
0
 10
33.5451
 20
383.245
 11
34.1289
 21
383.476
  0
LINE
  8
0
 10
34.1289
 20
383.476
 11
34.6791
 21
383.778
  0
LINE
  8
0
 10
34.6791
 20
383.778
 11
35.1871
 21
384.147
  0
LINE
  8
0
 10
35.1871
 20
384.147
 11
35.6448
 21
384.577
  0
LINE
  8
0
 10
35.6448
 20
384.577
 11
36.0451
 21
385.061
  0
LINE
  8
0
 10
36.0451
 20
385.061
 11
36.3815
 21
385.591
  0
LINE
  8
0
 10
36.3815
 20
385.591
 11
36.6489
 21
386.159
  0
LINE
  8
0
 10
36.6489
 20
386.159
 11
36.8429
 21
386.757
  0
LINE
  8
0
 10
36.8429
 20
386.757
 11
36.9606
 21
387.373
  0
LINE
  8
0
 10
36.9606
 20
387.373
 11
37
 21
388
  0
LINE
  8
0
 10
37
 20
388
 11
37
 21
452
  0
LINE
  8
0
 10
37
 20
452
 11
36.9606
 21
452.627
  0
LINE
  8
0
 10
36.9606
 20
452.627
 11
36.8429
 21
453.243
  0
LINE
  8
0
 10
36.8429
 20
453.243
 11
36.6489
 21
453.841
  0
LINE
  8
0
 10
36.6489
 20
453.841
 11
36.3815
 21
454.409
  0
LINE
  8
0
 10
36.3815
 20
454.409
 11
36.0451
 21
454.939
  0
LINE
  8
0
 10
36.0451
 20
454.939
 11
35.6448
 21
455.423
  0
LINE
  8
0
 10
35.6448
 20
455.423
 11
35.1871
 21
455.853
  0
LINE
  8
0
 10
35.1871
 20
455.853
 11
34.6791
 21
456.222
  0
LINE
  8
0
 10
34.6791
 20
456.222
 11
34.1289
 21
456.524
  0
LINE
  8
0
 10
34.1289
 20
456.524
 11
33.5451
 21
456.755
  0
LINE
  8
0
 10
33.5451
 20
456.755
 11
32.9369
 21
456.911
  0
LINE
  8
0
 10
32.9369
 20
456.911
 11
32.3139
 21
456.99
  0
LINE
  8
0
 10
32.3139
 20
456.99
 11
-32.3139
 21
456.99
  0
LINE
  8
0
 10
-32.3139
 20
456.99
 11
-32.9369
 21
456.911
  0
LINE
  8
0
 10
-32.9369
 20
456.911
 11
-33.5451
 21
456.755
  0
LINE
  8
0
 10
-33.5451
 20
456.755
 11
-34.1289
 21
456.524
  0
LINE
  8
0
 10
-34.1289
 20
456.524
 11
-34.6791
 21
456.222
  0
LINE
  8
0
 10
-34.6791
 20
456.222
 11
-35.1871
 21
455.853
  0
LINE
  8
0
 10
-35.1871
 20
455.853
 11
-35.6448
 21
455.423
  0
LINE
  8
0
 10
-35.6448
 20
455.423
 11
-36.0451
 21
454.939
  0
LINE
  8
0
 10
-36.0451
 20
454.939
 11
-36.3815
 21
454.409
  0
LINE
  8
0
 10
-36.3815
 20
454.409
 11
-36.6489
 21
453.841
  0
LINE
  8
0
 10
-36.6489
 20
453.841
 11
-36.8429
 21
453.243
  0
LINE
  8
0
 10
-36.8429
 20
453.243
 11
-36.9606
 21
452.627
  0
LINE
  8
0
 10
-36.9606
 20
452.627
 11
-37
 21
452
  0
LINE
  8
0
 10
-37
 20
452
 11
-37
 21
388
  0
LINE
  8
0
 10
-37
 20
388
 11
-36.9606
 21
387.373
  0
LINE
  8
0
 10
-36.9606
 20
387.373
 11
-36.8429
 21
386.757
  0
LINE
  8
0
 10
-36.8429
 20
386.757
 11
-36.6489
 21
386.159
  0
LINE
  8
0
 10
-36.6489
 20
386.159
 11
-36.3815
 21
385.591
  0
LINE
  8
0
 10
-36.3815
 20
385.591
 11
-36.0451
 21
385.061
  0
LINE
  8
0
 10
-36.0451
 20
385.061
 11
-35.6448
 21
384.577
  0
LINE
  8
0
 10
-35.6448
 20
384.577
 11
-35.1871
 21
384.147
  0
LINE
  8
0
 10
-35.1871
 20
384.147
 11
-34.6791
 21
383.778
  0
LINE
  8
0
 10
-34.6791
 20
383.778
 11
-34.1289
 21
383.476
  0
LINE
  8
0
 10
-34.1289
 20
383.476
 11
-33.5451
 21
383.245
  0
LINE
  8
0
 10
-33.5451
 20
383.245
 11
-32.9369
 21
383.089
  0
LINE
  8
0
 10
-32.9369
 20
383.089
 11
-32.3139
 21
383.01
  0
LINE
  8
0
 10
-32.3139
 20
383.01
 11
32.3139
 21
383.01
  0
LINE
  8
0
 10
32.3139
 20
383.01
 11
32.9369
 21
383.089
  0
LINE
  8
0
 10
29.8116
 20
447.006
 11
29.4379
 21
447.053
  0
LINE
  8
0
 10
29.4379
 20
447.053
 11
29.0729
 21
447.147
  0
LINE
  8
0
 10
29.0729
 20
447.147
 11
28.7227
 21
447.286
  0
LINE
  8
0
 10
28.7227
 20
447.286
 11
28.3925
 21
447.467
  0
LINE
  8
0
 10
28.3925
 20
447.467
 11
28.0877
 21
447.688
  0
LINE
  8
0
 10
28.0877
 20
447.688
 11
27.8131
 21
447.946
  0
LINE
  8
0
 10
27.8131
 20
447.946
 11
27.5729
 21
448.237
  0
LINE
  8
0
 10
27.5729
 20
448.237
 11
27.3711
 21
448.555
  0
LINE
  8
0
 10
27.3711
 20
448.555
 11
27.2107
 21
448.896
  0
LINE
  8
0
 10
27.2107
 20
448.896
 11
27.0942
 21
449.254
  0
LINE
  8
0
 10
27.0942
 20
449.254
 11
27.0237
 21
449.624
  0
LINE
  8
0
 10
27.0237
 20
449.624
 11
27
 21
450
  0
LINE
  8
0
 10
27
 20
450
 11
27.0237
 21
450.376
  0
LINE
  8
0
 10
27.0237
 20
450.376
 11
27.0942
 21
450.746
  0
LINE
  8
0
 10
27.0942
 20
450.746
 11
27.2107
 21
451.104
  0
LINE
  8
0
 10
27.2107
 20
451.104
 11
27.3711
 21
451.445
  0
LINE
  8
0
 10
27.3711
 20
451.445
 11
27.5729
 21
451.763
  0
LINE
  8
0
 10
27.5729
 20
451.763
 11
27.8131
 21
452.054
  0
LINE
  8
0
 10
27.8131
 20
452.054
 11
28.0877
 21
452.312
  0
LINE
  8
0
 10
28.0877
 20
452.312
 11
28.3925
 21
452.533
  0
LINE
  8
0
 10
28.3925
 20
452.533
 11
28.7227
 21
452.714
  0
LINE
  8
0
 10
28.7227
 20
452.714
 11
29.0729
 21
452.853
  0
LINE
  8
0
 10
29.0729
 20
452.853
 11
29.4379
 21
452.947
  0
LINE
  8
0
 10
29.4379
 20
452.947
 11
29.8116
 21
452.994
  0
LINE
  8
0
 10
29.8116
 20
452.994
 11
30.1884
 21
452.994
  0
LINE
  8
0
 10
30.1884
 20
452.994
 11
30.5621
 21
452.947
  0
LINE
  8
0
 10
30.5621
 20
452.947
 11
30.927
 21
452.853
  0
LINE
  8
0
 10
30.927
 20
452.853
 11
31.2773
 21
452.714
  0
LINE
  8
0
 10
31.2773
 20
452.714
 11
31.6075
 21
452.533
  0
LINE
  8
0
 10
31.6075
 20
452.533
 11
31.9123
 21
452.312
  0
LINE
  8
0
 10
31.9123
 20
452.312
 11
32.1869
 21
452.054
  0
LINE
  8
0
 10
32.1869
 20
452.054
 11
32.427
 21
451.763
  0
LINE
  8
0
 10
32.427
 20
451.763
 11
32.6289
 21
451.445
  0
LINE
  8
0
 10
32.6289
 20
451.445
 11
32.7893
 21
451.104
  0
LINE
  8
0
 10
32.7893
 20
451.104
 11
32.9057
 21
450.746
  0
LINE
  8
0
 10
32.9057
 20
450.746
 11
32.9763
 21
450.376
  0
LINE
  8
0
 10
32.9763
 20
450.376
 11
33
 21
450
  0
LINE
  8
0
 10
33
 20
450
 11
32.9763
 21
449.624
  0
LINE
  8
0
 10
32.9763
 20
449.624
 11
32.9057
 21
449.254
  0
LINE
  8
0
 10
32.9057
 20
449.254
 11
32.7893
 21
448.896
  0
LINE
  8
0
 10
32.7893
 20
448.896
 11
32.6289
 21
448.555
  0
LINE
  8
0
 10
32.6289
 20
448.555
 11
32.427
 21
448.237
  0
LINE
  8
0
 10
32.427
 20
448.237
 11
32.1869
 21
447.946
  0
LINE
  8
0
 10
32.1869
 20
447.946
 11
31.9123
 21
447.688
  0
LINE
  8
0
 10
31.9123
 20
447.688
 11
31.6075
 21
447.467
  0
LINE
  8
0
 10
31.6075
 20
447.467
 11
31.2773
 21
447.286
  0
LINE
  8
0
 10
31.2773
 20
447.286
 11
30.927
 21
447.147
  0
LINE
  8
0
 10
30.927
 20
447.147
 11
30.5621
 21
447.053
  0
LINE
  8
0
 10
30.5621
 20
447.053
 11
30.1884
 21
447.006
  0
LINE
  8
0
 10
30.1884
 20
447.006
 11
29.8116
 21
447.006
  0
LINE
  8
0
 10
-30.1884
 20
447.006
 11
-30.5621
 21
447.053
  0
LINE
  8
0
 10
-30.5621
 20
447.053
 11
-30.927
 21
447.147
  0
LINE
  8
0
 10
-30.927
 20
447.147
 11
-31.2773
 21
447.286
  0
LINE
  8
0
 10
-31.2773
 20
447.286
 11
-31.6075
 21
447.467
  0
LINE
  8
0
 10
-31.6075
 20
447.467
 11
-31.9123
 21
447.688
  0
LINE
  8
0
 10
-31.9123
 20
447.688
 11
-32.1869
 21
447.946
  0
LINE
  8
0
 10
-32.1869
 20
447.946
 11
-32.427
 21
448.237
  0
LINE
  8
0
 10
-32.427
 20
448.237
 11
-32.6289
 21
448.555
  0
LINE
  8
0
 10
-32.6289
 20
448.555
 11
-32.7893
 21
448.896
  0
LINE
  8
0
 10
-32.7893
 20
448.896
 11
-32.9057
 21
449.254
  0
LINE
  8
0
 10
-32.9057
 20
449.254
 11
-32.9763
 21
449.624
  0
LINE
  8
0
 10
-32.9763
 20
449.624
 11
-33
 21
450
  0
LINE
  8
0
 10
-33
 20
450
 11
-32.9763
 21
450.376
  0
LINE
  8
0
 10
-32.9763
 20
450.376
 11
-32.9057
 21
450.746
  0
LINE
  8
0
 10
-32.9057
 20
450.746
 11
-32.7893
 21
451.104
  0
LINE
  8
0
 10
-32.7893
 20
451.104
 11
-32.6289
 21
451.445
  0
LINE
  8
0
 10
-32.6289
 20
451.445
 11
-32.427
 21
451.763
  0
LINE
  8
0
 10
-32.427
 20
451.763
 11
-32.1869
 21
452.054
  0
LINE
  8
0
 10
-32.1869
 20
452.054
 11
-31.9123
 21
452.312
  0
LINE
  8
0
 10
-31.9123
 20
452.312
 11
-31.6075
 21
452.533
  0
LINE
  8
0
 10
-31.6075
 20
452.533
 11
-31.2773
 21
452.714
  0
LINE
  8
0
 10
-31.2773
 20
452.714
 11
-30.927
 21
452.853
  0
LINE
  8
0
 10
-30.927
 20
452.853
 11
-30.5621
 21
452.947
  0
LINE
  8
0
 10
-30.5621
 20
452.947
 11
-30.1884
 21
452.994
  0
LINE
  8
0
 10
-30.1884
 20
452.994
 11
-29.8116
 21
452.994
  0
LINE
  8
0
 10
-29.8116
 20
452.994
 11
-29.4379
 21
452.947
  0
LINE
  8
0
 10
-29.4379
 20
452.947
 11
-29.0729
 21
452.853
  0
LINE
  8
0
 10
-29.0729
 20
452.853
 11
-28.7227
 21
452.714
  0
LINE
  8
0
 10
-28.7227
 20
452.714
 11
-28.3925
 21
452.533
  0
LINE
  8
0
 10
-28.3925
 20
452.533
 11
-28.0877
 21
452.312
  0
LINE
  8
0
 10
-28.0877
 20
452.312
 11
-27.8131
 21
452.054
  0
LINE
  8
0
 10
-27.8131
 20
452.054
 11
-27.5729
 21
451.763
  0
LINE
  8
0
 10
-27.5729
 20
451.763
 11
-27.3711
 21
451.445
  0
LINE
  8
0
 10
-27.3711
 20
451.445
 11
-27.2107
 21
451.104
  0
LINE
  8
0
 10
-27.2107
 20
451.104
 11
-27.0942
 21
450.746
  0
LINE
  8
0
 10
-27.0942
 20
450.746
 11
-27.0237
 21
450.376
  0
LINE
  8
0
 10
-27.0237
 20
450.376
 11
-27
 21
450
  0
LINE
  8
0
 10
-27
 20
450
 11
-27.0237
 21
449.624
  0
LINE
  8
0
 10
-27.0237
 20
449.624
 11
-27.0942
 21
449.254
  0
LINE
  8
0
 10
-27.0942
 20
449.254
 11
-27.2107
 21
448.896
  0
LINE
  8
0
 10
-27.2107
 20
448.896
 11
-27.3711
 21
448.555
  0
LINE
  8
0
 10
-27.3711
 20
448.555
 11
-27.5729
 21
448.237
  0
LINE
  8
0
 10
-27.5729
 20
448.237
 11
-27.8131
 21
447.946
  0
LINE
  8
0
 10
-27.8131
 20
447.946
 11
-28.0877
 21
447.688
  0
LINE
  8
0
 10
-28.0877
 20
447.688
 11
-28.3925
 21
447.467
  0
LINE
  8
0
 10
-28.3925
 20
447.467
 11
-28.7227
 21
447.286
  0
LINE
  8
0
 10
-28.7227
 20
447.286
 11
-29.0729
 21
447.147
  0
LINE
  8
0
 10
-29.0729
 20
447.147
 11
-29.4379
 21
447.053
  0
LINE
  8
0
 10
-29.4379
 20
447.053
 11
-29.8116
 21
447.006
  0
LINE
  8
0
 10
-29.8116
 20
447.006
 11
-30.1884
 21
447.006
  0
LINE
  8
0
 10
29.8116
 20
387.006
 11
29.4379
 21
387.053
  0
LINE
  8
0
 10
29.4379
 20
387.053
 11
29.0729
 21
387.147
  0
LINE
  8
0
 10
29.0729
 20
387.147
 11
28.7227
 21
387.286
  0
LINE
  8
0
 10
28.7227
 20
387.286
 11
28.3925
 21
387.467
  0
LINE
  8
0
 10
28.3925
 20
387.467
 11
28.0877
 21
387.688
  0
LINE
  8
0
 10
28.0877
 20
387.688
 11
27.8131
 21
387.946
  0
LINE
  8
0
 10
27.8131
 20
387.946
 11
27.5729
 21
388.237
  0
LINE
  8
0
 10
27.5729
 20
388.237
 11
27.3711
 21
388.555
  0
LINE
  8
0
 10
27.3711
 20
388.555
 11
27.2107
 21
388.896
  0
LINE
  8
0
 10
27.2107
 20
388.896
 11
27.0942
 21
389.254
  0
LINE
  8
0
 10
27.0942
 20
389.254
 11
27.0237
 21
389.624
  0
LINE
  8
0
 10
27.0237
 20
389.624
 11
27
 21
390
  0
LINE
  8
0
 10
27
 20
390
 11
27.0237
 21
390.376
  0
LINE
  8
0
 10
27.0237
 20
390.376
 11
27.0942
 21
390.746
  0
LINE
  8
0
 10
27.0942
 20
390.746
 11
27.2107
 21
391.104
  0
LINE
  8
0
 10
27.2107
 20
391.104
 11
27.3711
 21
391.445
  0
LINE
  8
0
 10
27.3711
 20
391.445
 11
27.5729
 21
391.763
  0
LINE
  8
0
 10
27.5729
 20
391.763
 11
27.8131
 21
392.054
  0
LINE
  8
0
 10
27.8131
 20
392.054
 11
28.0877
 21
392.312
  0
LINE
  8
0
 10
28.0877
 20
392.312
 11
28.3925
 21
392.533
  0
LINE
  8
0
 10
28.3925
 20
392.533
 11
28.7227
 21
392.714
  0
LINE
  8
0
 10
28.7227
 20
392.714
 11
29.0729
 21
392.853
  0
LINE
  8
0
 10
29.0729
 20
392.853
 11
29.4379
 21
392.947
  0
LINE
  8
0
 10
29.4379
 20
392.947
 11
29.8116
 21
392.994
  0
LINE
  8
0
 10
29.8116
 20
392.994
 11
30.1884
 21
392.994
  0
LINE
  8
0
 10
30.1884
 20
392.994
 11
30.5621
 21
392.947
  0
LINE
  8
0
 10
30.5621
 20
392.947
 11
30.927
 21
392.853
  0
LINE
  8
0
 10
30.927
 20
392.853
 11
31.2773
 21
392.714
  0
LINE
  8
0
 10
31.2773
 20
392.714
 11
31.6075
 21
392.533
  0
LINE
  8
0
 10
31.6075
 20
392.533
 11
31.9123
 21
392.312
  0
LINE
  8
0
 10
31.9123
 20
392.312
 11
32.1869
 21
392.054
  0
LINE
  8
0
 10
32.1869
 20
392.054
 11
32.427
 21
391.763
  0
LINE
  8
0
 10
32.427
 20
391.763
 11
32.6289
 21
391.445
  0
LINE
  8
0
 10
32.6289
 20
391.445
 11
32.7893
 21
391.104
  0
LINE
  8
0
 10
32.7893
 20
391.104
 11
32.9057
 21
390.746
  0
LINE
  8
0
 10
32.9057
 20
390.746
 11
32.9763
 21
390.376
  0
LINE
  8
0
 10
32.9763
 20
390.376
 11
33
 21
390
  0
LINE
  8
0
 10
33
 20
390
 11
32.9763
 21
389.624
  0
LINE
  8
0
 10
32.9763
 20
389.624
 11
32.9057
 21
389.254
  0
LINE
  8
0
 10
32.9057
 20
389.254
 11
32.7893
 21
388.896
  0
LINE
  8
0
 10
32.7893
 20
388.896
 11
32.6289
 21
388.555
  0
LINE
  8
0
 10
32.6289
 20
388.555
 11
32.427
 21
388.237
  0
LINE
  8
0
 10
32.427
 20
388.237
 11
32.1869
 21
387.946
  0
LINE
  8
0
 10
32.1869
 20
387.946
 11
31.9123
 21
387.688
  0
LINE
  8
0
 10
31.9123
 20
387.688
 11
31.6075
 21
387.467
  0
LINE
  8
0
 10
31.6075
 20
387.467
 11
31.2773
 21
387.286
  0
LINE
  8
0
 10
31.2773
 20
387.286
 11
30.927
 21
387.147
  0
LINE
  8
0
 10
30.927
 20
387.147
 11
30.5621
 21
387.053
  0
LINE
  8
0
 10
30.5621
 20
387.053
 11
30.1884
 21
387.006
  0
LINE
  8
0
 10
30.1884
 20
387.006
 11
29.8116
 21
387.006
  0
LINE
  8
0
 10
-30.1884
 20
387.006
 11
-30.5621
 21
387.053
  0
LINE
  8
0
 10
-30.5621
 20
387.053
 11
-30.927
 21
387.147
  0
LINE
  8
0
 10
-30.927
 20
387.147
 11
-31.2773
 21
387.286
  0
LINE
  8
0
 10
-31.2773
 20
387.286
 11
-31.6075
 21
387.467
  0
LINE
  8
0
 10
-31.6075
 20
387.467
 11
-31.9123
 21
387.688
  0
LINE
  8
0
 10
-31.9123
 20
387.688
 11
-32.1869
 21
387.946
  0
LINE
  8
0
 10
-32.1869
 20
387.946
 11
-32.427
 21
388.237
  0
LINE
  8
0
 10
-32.427
 20
388.237
 11
-32.6289
 21
388.555
  0
LINE
  8
0
 10
-32.6289
 20
388.555
 11
-32.7893
 21
388.896
  0
LINE
  8
0
 10
-32.7893
 20
388.896
 11
-32.9057
 21
389.254
  0
LINE
  8
0
 10
-32.9057
 20
389.254
 11
-32.9763
 21
389.624
  0
LINE
  8
0
 10
-32.9763
 20
389.624
 11
-33
 21
390
  0
LINE
  8
0
 10
-33
 20
390
 11
-32.9763
 21
390.376
  0
LINE
  8
0
 10
-32.9763
 20
390.376
 11
-32.9057
 21
390.746
  0
LINE
  8
0
 10
-32.9057
 20
390.746
 11
-32.7893
 21
391.104
  0
LINE
  8
0
 10
-32.7893
 20
391.104
 11
-32.6289
 21
391.445
  0
LINE
  8
0
 10
-32.6289
 20
391.445
 11
-32.427
 21
391.763
  0
LINE
  8
0
 10
-32.427
 20
391.763
 11
-32.1869
 21
392.054
  0
LINE
  8
0
 10
-32.1869
 20
392.054
 11
-31.9123
 21
392.312
  0
LINE
  8
0
 10
-31.9123
 20
392.312
 11
-31.6075
 21
392.533
  0
LINE
  8
0
 10
-31.6075
 20
392.533
 11
-31.2773
 21
392.714
  0
LINE
  8
0
 10
-31.2773
 20
392.714
 11
-30.927
 21
392.853
  0
LINE
  8
0
 10
-30.927
 20
392.853
 11
-30.5621
 21
392.947
  0
LINE
  8
0
 10
-30.5621
 20
392.947
 11
-30.1884
 21
392.994
  0
LINE
  8
0
 10
-30.1884
 20
392.994
 11
-29.8116
 21
392.994
  0
LINE
  8
0
 10
-29.8116
 20
392.994
 11
-29.4379
 21
392.947
  0
LINE
  8
0
 10
-29.4379
 20
392.947
 11
-29.0729
 21
392.853
  0
LINE
  8
0
 10
-29.0729
 20
392.853
 11
-28.7227
 21
392.714
  0
LINE
  8
0
 10
-28.7227
 20
392.714
 11
-28.3925
 21
392.533
  0
LINE
  8
0
 10
-28.3925
 20
392.533
 11
-28.0877
 21
392.312
  0
LINE
  8
0
 10
-28.0877
 20
392.312
 11
-27.8131
 21
392.054
  0
LINE
  8
0
 10
-27.8131
 20
392.054
 11
-27.5729
 21
391.763
  0
LINE
  8
0
 10
-27.5729
 20
391.763
 11
-27.3711
 21
391.445
  0
LINE
  8
0
 10
-27.3711
 20
391.445
 11
-27.2107
 21
391.104
  0
LINE
  8
0
 10
-27.2107
 20
391.104
 11
-27.0942
 21
390.746
  0
LINE
  8
0
 10
-27.0942
 20
390.746
 11
-27.0237
 21
390.376
  0
LINE
  8
0
 10
-27.0237
 20
390.376
 11
-27
 21
390
  0
LINE
  8
0
 10
-27
 20
390
 11
-27.0237
 21
389.624
  0
LINE
  8
0
 10
-27.0237
 20
389.624
 11
-27.0942
 21
389.254
  0
LINE
  8
0
 10
-27.0942
 20
389.254
 11
-27.2107
 21
388.896
  0
LINE
  8
0
 10
-27.2107
 20
388.896
 11
-27.3711
 21
388.555
  0
LINE
  8
0
 10
-27.3711
 20
388.555
 11
-27.5729
 21
388.237
  0
LINE
  8
0
 10
-27.5729
 20
388.237
 11
-27.8131
 21
387.946
  0
LINE
  8
0
 10
-27.8131
 20
387.946
 11
-28.0877
 21
387.688
  0
LINE
  8
0
 10
-28.0877
 20
387.688
 11
-28.3925
 21
387.467
  0
LINE
  8
0
 10
-28.3925
 20
387.467
 11
-28.7227
 21
387.286
  0
LINE
  8
0
 10
-28.7227
 20
387.286
 11
-29.0729
 21
387.147
  0
LINE
  8
0
 10
-29.0729
 20
387.147
 11
-29.4379
 21
387.053
  0
LINE
  8
0
 10
-29.4379
 20
387.053
 11
-29.8116
 21
387.006
  0
LINE
  8
0
 10
-29.8116
 20
387.006
 11
-30.1884
 21
387.006
  0
LINE
  8
0
 10
32.9369
 20
299.089
 11
33.5451
 21
299.245
  0
LINE
  8
0
 10
33.5451
 20
299.245
 11
34.1289
 21
299.476
  0
LINE
  8
0
 10
34.1289
 20
299.476
 11
34.6791
 21
299.778
  0
LINE
  8
0
 10
34.6791
 20
299.778
 11
35.1871
 21
300.147
  0
LINE
  8
0
 10
35.1871
 20
300.147
 11
35.6448
 21
300.577
  0
LINE
  8
0
 10
35.6448
 20
300.577
 11
36.0451
 21
301.061
  0
LINE
  8
0
 10
36.0451
 20
301.061
 11
36.3815
 21
301.591
  0
LINE
  8
0
 10
36.3815
 20
301.591
 11
36.6489
 21
302.159
  0
LINE
  8
0
 10
36.6489
 20
302.159
 11
36.8429
 21
302.757
  0
LINE
  8
0
 10
36.8429
 20
302.757
 11
36.9606
 21
303.373
  0
LINE
  8
0
 10
36.9606
 20
303.373
 11
37
 21
304
  0
LINE
  8
0
 10
37
 20
304
 11
37
 21
368
  0
LINE
  8
0
 10
37
 20
368
 11
36.9606
 21
368.627
  0
LINE
  8
0
 10
36.9606
 20
368.627
 11
36.8429
 21
369.243
  0
LINE
  8
0
 10
36.8429
 20
369.243
 11
36.6489
 21
369.841
  0
LINE
  8
0
 10
36.6489
 20
369.841
 11
36.3815
 21
370.409
  0
LINE
  8
0
 10
36.3815
 20
370.409
 11
36.0451
 21
370.939
  0
LINE
  8
0
 10
36.0451
 20
370.939
 11
35.6448
 21
371.423
  0
LINE
  8
0
 10
35.6448
 20
371.423
 11
35.1871
 21
371.853
  0
LINE
  8
0
 10
35.1871
 20
371.853
 11
34.6791
 21
372.222
  0
LINE
  8
0
 10
34.6791
 20
372.222
 11
34.1289
 21
372.524
  0
LINE
  8
0
 10
34.1289
 20
372.524
 11
33.5451
 21
372.755
  0
LINE
  8
0
 10
33.5451
 20
372.755
 11
32.9369
 21
372.911
  0
LINE
  8
0
 10
32.9369
 20
372.911
 11
32.3139
 21
372.99
  0
LINE
  8
0
 10
32.3139
 20
372.99
 11
-32.3139
 21
372.99
  0
LINE
  8
0
 10
-32.3139
 20
372.99
 11
-32.9369
 21
372.911
  0
LINE
  8
0
 10
-32.9369
 20
372.911
 11
-33.5451
 21
372.755
  0
LINE
  8
0
 10
-33.5451
 20
372.755
 11
-34.1289
 21
372.524
  0
LINE
  8
0
 10
-34.1289
 20
372.524
 11
-34.6791
 21
372.222
  0
LINE
  8
0
 10
-34.6791
 20
372.222
 11
-35.1871
 21
371.853
  0
LINE
  8
0
 10
-35.1871
 20
371.853
 11
-35.6448
 21
371.423
  0
LINE
  8
0
 10
-35.6448
 20
371.423
 11
-36.0451
 21
370.939
  0
LINE
  8
0
 10
-36.0451
 20
370.939
 11
-36.3815
 21
370.409
  0
LINE
  8
0
 10
-36.3815
 20
370.409
 11
-36.6489
 21
369.841
  0
LINE
  8
0
 10
-36.6489
 20
369.841
 11
-36.8429
 21
369.243
  0
LINE
  8
0
 10
-36.8429
 20
369.243
 11
-36.9606
 21
368.627
  0
LINE
  8
0
 10
-36.9606
 20
368.627
 11
-37
 21
368
  0
LINE
  8
0
 10
-37
 20
368
 11
-37
 21
304
  0
LINE
  8
0
 10
-37
 20
304
 11
-36.9606
 21
303.373
  0
LINE
  8
0
 10
-36.9606
 20
303.373
 11
-36.8429
 21
302.757
  0
LINE
  8
0
 10
-36.8429
 20
302.757
 11
-36.6489
 21
302.159
  0
LINE
  8
0
 10
-36.6489
 20
302.159
 11
-36.3815
 21
301.591
  0
LINE
  8
0
 10
-36.3815
 20
301.591
 11
-36.0451
 21
301.061
  0
LINE
  8
0
 10
-36.0451
 20
301.061
 11
-35.6448
 21
300.577
  0
LINE
  8
0
 10
-35.6448
 20
300.577
 11
-35.1871
 21
300.147
  0
LINE
  8
0
 10
-35.1871
 20
300.147
 11
-34.6791
 21
299.778
  0
LINE
  8
0
 10
-34.6791
 20
299.778
 11
-34.1289
 21
299.476
  0
LINE
  8
0
 10
-34.1289
 20
299.476
 11
-33.5451
 21
299.245
  0
LINE
  8
0
 10
-33.5451
 20
299.245
 11
-32.9369
 21
299.089
  0
LINE
  8
0
 10
-32.9369
 20
299.089
 11
-32.3139
 21
299.01
  0
LINE
  8
0
 10
-32.3139
 20
299.01
 11
32.3139
 21
299.01
  0
LINE
  8
0
 10
32.3139
 20
299.01
 11
32.9369
 21
299.089
  0
LINE
  8
0
 10
29.8116
 20
363.006
 11
29.4379
 21
363.053
  0
LINE
  8
0
 10
29.4379
 20
363.053
 11
29.0729
 21
363.147
  0
LINE
  8
0
 10
29.0729
 20
363.147
 11
28.7227
 21
363.286
  0
LINE
  8
0
 10
28.7227
 20
363.286
 11
28.3925
 21
363.467
  0
LINE
  8
0
 10
28.3925
 20
363.467
 11
28.0877
 21
363.688
  0
LINE
  8
0
 10
28.0877
 20
363.688
 11
27.8131
 21
363.946
  0
LINE
  8
0
 10
27.8131
 20
363.946
 11
27.5729
 21
364.237
  0
LINE
  8
0
 10
27.5729
 20
364.237
 11
27.3711
 21
364.555
  0
LINE
  8
0
 10
27.3711
 20
364.555
 11
27.2107
 21
364.896
  0
LINE
  8
0
 10
27.2107
 20
364.896
 11
27.0942
 21
365.254
  0
LINE
  8
0
 10
27.0942
 20
365.254
 11
27.0237
 21
365.624
  0
LINE
  8
0
 10
27.0237
 20
365.624
 11
27
 21
366
  0
LINE
  8
0
 10
27
 20
366
 11
27.0237
 21
366.376
  0
LINE
  8
0
 10
27.0237
 20
366.376
 11
27.0942
 21
366.746
  0
LINE
  8
0
 10
27.0942
 20
366.746
 11
27.2107
 21
367.104
  0
LINE
  8
0
 10
27.2107
 20
367.104
 11
27.3711
 21
367.445
  0
LINE
  8
0
 10
27.3711
 20
367.445
 11
27.5729
 21
367.763
  0
LINE
  8
0
 10
27.5729
 20
367.763
 11
27.8131
 21
368.054
  0
LINE
  8
0
 10
27.8131
 20
368.054
 11
28.0877
 21
368.312
  0
LINE
  8
0
 10
28.0877
 20
368.312
 11
28.3925
 21
368.533
  0
LINE
  8
0
 10
28.3925
 20
368.533
 11
28.7227
 21
368.714
  0
LINE
  8
0
 10
28.7227
 20
368.714
 11
29.0729
 21
368.853
  0
LINE
  8
0
 10
29.0729
 20
368.853
 11
29.4379
 21
368.947
  0
LINE
  8
0
 10
29.4379
 20
368.947
 11
29.8116
 21
368.994
  0
LINE
  8
0
 10
29.8116
 20
368.994
 11
30.1884
 21
368.994
  0
LINE
  8
0
 10
30.1884
 20
368.994
 11
30.5621
 21
368.947
  0
LINE
  8
0
 10
30.5621
 20
368.947
 11
30.927
 21
368.853
  0
LINE
  8
0
 10
30.927
 20
368.853
 11
31.2773
 21
368.714
  0
LINE
  8
0
 10
31.2773
 20
368.714
 11
31.6075
 21
368.533
  0
LINE
  8
0
 10
31.6075
 20
368.533
 11
31.9123
 21
368.312
  0
LINE
  8
0
 10
31.9123
 20
368.312
 11
32.1869
 21
368.054
  0
LINE
  8
0
 10
32.1869
 20
368.054
 11
32.427
 21
367.763
  0
LINE
  8
0
 10
32.427
 20
367.763
 11
32.6289
 21
367.445
  0
LINE
  8
0
 10
32.6289
 20
367.445
 11
32.7893
 21
367.104
  0
LINE
  8
0
 10
32.7893
 20
367.104
 11
32.9057
 21
366.746
  0
LINE
  8
0
 10
32.9057
 20
366.746
 11
32.9763
 21
366.376
  0
LINE
  8
0
 10
32.9763
 20
366.376
 11
33
 21
366
  0
LINE
  8
0
 10
33
 20
366
 11
32.9763
 21
365.624
  0
LINE
  8
0
 10
32.9763
 20
365.624
 11
32.9057
 21
365.254
  0
LINE
  8
0
 10
32.9057
 20
365.254
 11
32.7893
 21
364.896
  0
LINE
  8
0
 10
32.7893
 20
364.896
 11
32.6289
 21
364.555
  0
LINE
  8
0
 10
32.6289
 20
364.555
 11
32.427
 21
364.237
  0
LINE
  8
0
 10
32.427
 20
364.237
 11
32.1869
 21
363.946
  0
LINE
  8
0
 10
32.1869
 20
363.946
 11
31.9123
 21
363.688
  0
LINE
  8
0
 10
31.9123
 20
363.688
 11
31.6075
 21
363.467
  0
LINE
  8
0
 10
31.6075
 20
363.467
 11
31.2773
 21
363.286
  0
LINE
  8
0
 10
31.2773
 20
363.286
 11
30.927
 21
363.147
  0
LINE
  8
0
 10
30.927
 20
363.147
 11
30.5621
 21
363.053
  0
LINE
  8
0
 10
30.5621
 20
363.053
 11
30.1884
 21
363.006
  0
LINE
  8
0
 10
30.1884
 20
363.006
 11
29.8116
 21
363.006
  0
LINE
  8
0
 10
-30.1884
 20
363.006
 11
-30.5621
 21
363.053
  0
LINE
  8
0
 10
-30.5621
 20
363.053
 11
-30.927
 21
363.147
  0
LINE
  8
0
 10
-30.927
 20
363.147
 11
-31.2773
 21
363.286
  0
LINE
  8
0
 10
-31.2773
 20
363.286
 11
-31.6075
 21
363.467
  0
LINE
  8
0
 10
-31.6075
 20
363.467
 11
-31.9123
 21
363.688
  0
LINE
  8
0
 10
-31.9123
 20
363.688
 11
-32.1869
 21
363.946
  0
LINE
  8
0
 10
-32.1869
 20
363.946
 11
-32.427
 21
364.237
  0
LINE
  8
0
 10
-32.427
 20
364.237
 11
-32.6289
 21
364.555
  0
LINE
  8
0
 10
-32.6289
 20
364.555
 11
-32.7893
 21
364.896
  0
LINE
  8
0
 10
-32.7893
 20
364.896
 11
-32.9057
 21
365.254
  0
LINE
  8
0
 10
-32.9057
 20
365.254
 11
-32.9763
 21
365.624
  0
LINE
  8
0
 10
-32.9763
 20
365.624
 11
-33
 21
366
  0
LINE
  8
0
 10
-33
 20
366
 11
-32.9763
 21
366.376
  0
LINE
  8
0
 10
-32.9763
 20
366.376
 11
-32.9057
 21
366.746
  0
LINE
  8
0
 10
-32.9057
 20
366.746
 11
-32.7893
 21
367.104
  0
LINE
  8
0
 10
-32.7893
 20
367.104
 11
-32.6289
 21
367.445
  0
LINE
  8
0
 10
-32.6289
 20
367.445
 11
-32.427
 21
367.763
  0
LINE
  8
0
 10
-32.427
 20
367.763
 11
-32.1869
 21
368.054
  0
LINE
  8
0
 10
-32.1869
 20
368.054
 11
-31.9123
 21
368.312
  0
LINE
  8
0
 10
-31.9123
 20
368.312
 11
-31.6075
 21
368.533
  0
LINE
  8
0
 10
-31.6075
 20
368.533
 11
-31.2773
 21
368.714
  0
LINE
  8
0
 10
-31.2773
 20
368.714
 11
-30.927
 21
368.853
  0
LINE
  8
0
 10
-30.927
 20
368.853
 11
-30.5621
 21
368.947
  0
LINE
  8
0
 10
-30.5621
 20
368.947
 11
-30.1884
 21
368.994
  0
LINE
  8
0
 10
-30.1884
 20
368.994
 11
-29.8116
 21
368.994
  0
LINE
  8
0
 10
-29.8116
 20
368.994
 11
-29.4379
 21
368.947
  0
LINE
  8
0
 10
-29.4379
 20
368.947
 11
-29.0729
 21
368.853
  0
LINE
  8
0
 10
-29.0729
 20
368.853
 11
-28.7227
 21
368.714
  0
LINE
  8
0
 10
-28.7227
 20
368.714
 11
-28.3925
 21
368.533
  0
LINE
  8
0
 10
-28.3925
 20
368.533
 11
-28.0877
 21
368.312
  0
LINE
  8
0
 10
-28.0877
 20
368.312
 11
-27.8131
 21
368.054
  0
LINE
  8
0
 10
-27.8131
 20
368.054
 11
-27.5729
 21
367.763
  0
LINE
  8
0
 10
-27.5729
 20
367.763
 11
-27.3711
 21
367.445
  0
LINE
  8
0
 10
-27.3711
 20
367.445
 11
-27.2107
 21
367.104
  0
LINE
  8
0
 10
-27.2107
 20
367.104
 11
-27.0942
 21
366.746
  0
LINE
  8
0
 10
-27.0942
 20
366.746
 11
-27.0237
 21
366.376
  0
LINE
  8
0
 10
-27.0237
 20
366.376
 11
-27
 21
366
  0
LINE
  8
0
 10
-27
 20
366
 11
-27.0237
 21
365.624
  0
LINE
  8
0
 10
-27.0237
 20
365.624
 11
-27.0942
 21
365.254
  0
LINE
  8
0
 10
-27.0942
 20
365.254
 11
-27.2107
 21
364.896
  0
LINE
  8
0
 10
-27.2107
 20
364.896
 11
-27.3711
 21
364.555
  0
LINE
  8
0
 10
-27.3711
 20
364.555
 11
-27.5729
 21
364.237
  0
LINE
  8
0
 10
-27.5729
 20
364.237
 11
-27.8131
 21
363.946
  0
LINE
  8
0
 10
-27.8131
 20
363.946
 11
-28.0877
 21
363.688
  0
LINE
  8
0
 10
-28.0877
 20
363.688
 11
-28.3925
 21
363.467
  0
LINE
  8
0
 10
-28.3925
 20
363.467
 11
-28.7227
 21
363.286
  0
LINE
  8
0
 10
-28.7227
 20
363.286
 11
-29.0729
 21
363.147
  0
LINE
  8
0
 10
-29.0729
 20
363.147
 11
-29.4379
 21
363.053
  0
LINE
  8
0
 10
-29.4379
 20
363.053
 11
-29.8116
 21
363.006
  0
LINE
  8
0
 10
-29.8116
 20
363.006
 11
-30.1884
 21
363.006
  0
LINE
  8
0
 10
29.8116
 20
303.006
 11
29.4379
 21
303.053
  0
LINE
  8
0
 10
29.4379
 20
303.053
 11
29.0729
 21
303.147
  0
LINE
  8
0
 10
29.0729
 20
303.147
 11
28.7227
 21
303.286
  0
LINE
  8
0
 10
28.7227
 20
303.286
 11
28.3925
 21
303.467
  0
LINE
  8
0
 10
28.3925
 20
303.467
 11
28.0877
 21
303.688
  0
LINE
  8
0
 10
28.0877
 20
303.688
 11
27.8131
 21
303.946
  0
LINE
  8
0
 10
27.8131
 20
303.946
 11
27.5729
 21
304.237
  0
LINE
  8
0
 10
27.5729
 20
304.237
 11
27.3711
 21
304.555
  0
LINE
  8
0
 10
27.3711
 20
304.555
 11
27.2107
 21
304.896
  0
LINE
  8
0
 10
27.2107
 20
304.896
 11
27.0942
 21
305.254
  0
LINE
  8
0
 10
27.0942
 20
305.254
 11
27.0237
 21
305.624
  0
LINE
  8
0
 10
27.0237
 20
305.624
 11
27
 21
306
  0
LINE
  8
0
 10
27
 20
306
 11
27.0237
 21
306.376
  0
LINE
  8
0
 10
27.0237
 20
306.376
 11
27.0942
 21
306.746
  0
LINE
  8
0
 10
27.0942
 20
306.746
 11
27.2107
 21
307.104
  0
LINE
  8
0
 10
27.2107
 20
307.104
 11
27.3711
 21
307.445
  0
LINE
  8
0
 10
27.3711
 20
307.445
 11
27.5729
 21
307.763
  0
LINE
  8
0
 10
27.5729
 20
307.763
 11
27.8131
 21
308.054
  0
LINE
  8
0
 10
27.8131
 20
308.054
 11
28.0877
 21
308.312
  0
LINE
  8
0
 10
28.0877
 20
308.312
 11
28.3925
 21
308.533
  0
LINE
  8
0
 10
28.3925
 20
308.533
 11
28.7227
 21
308.714
  0
LINE
  8
0
 10
28.7227
 20
308.714
 11
29.0729
 21
308.853
  0
LINE
  8
0
 10
29.0729
 20
308.853
 11
29.4379
 21
308.947
  0
LINE
  8
0
 10
29.4379
 20
308.947
 11
29.8116
 21
308.994
  0
LINE
  8
0
 10
29.8116
 20
308.994
 11
30.1884
 21
308.994
  0
LINE
  8
0
 10
30.1884
 20
308.994
 11
30.5621
 21
308.947
  0
LINE
  8
0
 10
30.5621
 20
308.947
 11
30.927
 21
308.853
  0
LINE
  8
0
 10
30.927
 20
308.853
 11
31.2773
 21
308.714
  0
LINE
  8
0
 10
31.2773
 20
308.714
 11
31.6075
 21
308.533
  0
LINE
  8
0
 10
31.6075
 20
308.533
 11
31.9123
 21
308.312
  0
LINE
  8
0
 10
31.9123
 20
308.312
 11
32.1869
 21
308.054
  0
LINE
  8
0
 10
32.1869
 20
308.054
 11
32.427
 21
307.763
  0
LINE
  8
0
 10
32.427
 20
307.763
 11
32.6289
 21
307.445
  0
LINE
  8
0
 10
32.6289
 20
307.445
 11
32.7893
 21
307.104
  0
LINE
  8
0
 10
32.7893
 20
307.104
 11
32.9057
 21
306.746
  0
LINE
  8
0
 10
32.9057
 20
306.746
 11
32.9763
 21
306.376
  0
LINE
  8
0
 10
32.9763
 20
306.376
 11
33
 21
306
  0
LINE
  8
0
 10
33
 20
306
 11
32.9763
 21
305.624
  0
LINE
  8
0
 10
32.9763
 20
305.624
 11
32.9057
 21
305.254
  0
LINE
  8
0
 10
32.9057
 20
305.254
 11
32.7893
 21
304.896
  0
LINE
  8
0
 10
32.7893
 20
304.896
 11
32.6289
 21
304.555
  0
LINE
  8
0
 10
32.6289
 20
304.555
 11
32.427
 21
304.237
  0
LINE
  8
0
 10
32.427
 20
304.237
 11
32.1869
 21
303.946
  0
LINE
  8
0
 10
32.1869
 20
303.946
 11
31.9123
 21
303.688
  0
LINE
  8
0
 10
31.9123
 20
303.688
 11
31.6075
 21
303.467
  0
LINE
  8
0
 10
31.6075
 20
303.467
 11
31.2773
 21
303.286
  0
LINE
  8
0
 10
31.2773
 20
303.286
 11
30.927
 21
303.147
  0
LINE
  8
0
 10
30.927
 20
303.147
 11
30.5621
 21
303.053
  0
LINE
  8
0
 10
30.5621
 20
303.053
 11
30.1884
 21
303.006
  0
LINE
  8
0
 10
30.1884
 20
303.006
 11
29.8116
 21
303.006
  0
LINE
  8
0
 10
-30.1884
 20
303.006
 11
-30.5621
 21
303.053
  0
LINE
  8
0
 10
-30.5621
 20
303.053
 11
-30.927
 21
303.147
  0
LINE
  8
0
 10
-30.927
 20
303.147
 11
-31.2773
 21
303.286
  0
LINE
  8
0
 10
-31.2773
 20
303.286
 11
-31.6075
 21
303.467
  0
LINE
  8
0
 10
-31.6075
 20
303.467
 11
-31.9123
 21
303.688
  0
LINE
  8
0
 10
-31.9123
 20
303.688
 11
-32.1869
 21
303.946
  0
LINE
  8
0
 10
-32.1869
 20
303.946
 11
-32.427
 21
304.237
  0
LINE
  8
0
 10
-32.427
 20
304.237
 11
-32.6289
 21
304.555
  0
LINE
  8
0
 10
-32.6289
 20
304.555
 11
-32.7893
 21
304.896
  0
LINE
  8
0
 10
-32.7893
 20
304.896
 11
-32.9057
 21
305.254
  0
LINE
  8
0
 10
-32.9057
 20
305.254
 11
-32.9763
 21
305.624
  0
LINE
  8
0
 10
-32.9763
 20
305.624
 11
-33
 21
306
  0
LINE
  8
0
 10
-33
 20
306
 11
-32.9763
 21
306.376
  0
LINE
  8
0
 10
-32.9763
 20
306.376
 11
-32.9057
 21
306.746
  0
LINE
  8
0
 10
-32.9057
 20
306.746
 11
-32.7893
 21
307.104
  0
LINE
  8
0
 10
-32.7893
 20
307.104
 11
-32.6289
 21
307.445
  0
LINE
  8
0
 10
-32.6289
 20
307.445
 11
-32.427
 21
307.763
  0
LINE
  8
0
 10
-32.427
 20
307.763
 11
-32.1869
 21
308.054
  0
LINE
  8
0
 10
-32.1869
 20
308.054
 11
-31.9123
 21
308.312
  0
LINE
  8
0
 10
-31.9123
 20
308.312
 11
-31.6075
 21
308.533
  0
LINE
  8
0
 10
-31.6075
 20
308.533
 11
-31.2773
 21
308.714
  0
LINE
  8
0
 10
-31.2773
 20
308.714
 11
-30.927
 21
308.853
  0
LINE
  8
0
 10
-30.927
 20
308.853
 11
-30.5621
 21
308.947
  0
LINE
  8
0
 10
-30.5621
 20
308.947
 11
-30.1884
 21
308.994
  0
LINE
  8
0
 10
-30.1884
 20
308.994
 11
-29.8116
 21
308.994
  0
LINE
  8
0
 10
-29.8116
 20
308.994
 11
-29.4379
 21
308.947
  0
LINE
  8
0
 10
-29.4379
 20
308.947
 11
-29.0729
 21
308.853
  0
LINE
  8
0
 10
-29.0729
 20
308.853
 11
-28.7227
 21
308.714
  0
LINE
  8
0
 10
-28.7227
 20
308.714
 11
-28.3925
 21
308.533
  0
LINE
  8
0
 10
-28.3925
 20
308.533
 11
-28.0877
 21
308.312
  0
LINE
  8
0
 10
-28.0877
 20
308.312
 11
-27.8131
 21
308.054
  0
LINE
  8
0
 10
-27.8131
 20
308.054
 11
-27.5729
 21
307.763
  0
LINE
  8
0
 10
-27.5729
 20
307.763
 11
-27.3711
 21
307.445
  0
LINE
  8
0
 10
-27.3711
 20
307.445
 11
-27.2107
 21
307.104
  0
LINE
  8
0
 10
-27.2107
 20
307.104
 11
-27.0942
 21
306.746
  0
LINE
  8
0
 10
-27.0942
 20
306.746
 11
-27.0237
 21
306.376
  0
LINE
  8
0
 10
-27.0237
 20
306.376
 11
-27
 21
306
  0
LINE
  8
0
 10
-27
 20
306
 11
-27.0237
 21
305.624
  0
LINE
  8
0
 10
-27.0237
 20
305.624
 11
-27.0942
 21
305.254
  0
LINE
  8
0
 10
-27.0942
 20
305.254
 11
-27.2107
 21
304.896
  0
LINE
  8
0
 10
-27.2107
 20
304.896
 11
-27.3711
 21
304.555
  0
LINE
  8
0
 10
-27.3711
 20
304.555
 11
-27.5729
 21
304.237
  0
LINE
  8
0
 10
-27.5729
 20
304.237
 11
-27.8131
 21
303.946
  0
LINE
  8
0
 10
-27.8131
 20
303.946
 11
-28.0877
 21
303.688
  0
LINE
  8
0
 10
-28.0877
 20
303.688
 11
-28.3925
 21
303.467
  0
LINE
  8
0
 10
-28.3925
 20
303.467
 11
-28.7227
 21
303.286
  0
LINE
  8
0
 10
-28.7227
 20
303.286
 11
-29.0729
 21
303.147
  0
LINE
  8
0
 10
-29.0729
 20
303.147
 11
-29.4379
 21
303.053
  0
LINE
  8
0
 10
-29.4379
 20
303.053
 11
-29.8116
 21
303.006
  0
LINE
  8
0
 10
-29.8116
 20
303.006
 11
-30.1884
 21
303.006
  0
LINE
  8
0
 10
32.9369
 20
215.089
 11
33.5451
 21
215.245
  0
LINE
  8
0
 10
33.5451
 20
215.245
 11
34.1289
 21
215.476
  0
LINE
  8
0
 10
34.1289
 20
215.476
 11
34.6791
 21
215.778
  0
LINE
  8
0
 10
34.6791
 20
215.778
 11
35.1871
 21
216.147
  0
LINE
  8
0
 10
35.1871
 20
216.147
 11
35.6448
 21
216.577
  0
LINE
  8
0
 10
35.6448
 20
216.577
 11
36.0451
 21
217.061
  0
LINE
  8
0
 10
36.0451
 20
217.061
 11
36.3815
 21
217.591
  0
LINE
  8
0
 10
36.3815
 20
217.591
 11
36.6489
 21
218.159
  0
LINE
  8
0
 10
36.6489
 20
218.159
 11
36.8429
 21
218.757
  0
LINE
  8
0
 10
36.8429
 20
218.757
 11
36.9606
 21
219.373
  0
LINE
  8
0
 10
36.9606
 20
219.373
 11
37
 21
220
  0
LINE
  8
0
 10
37
 20
220
 11
37
 21
284
  0
LINE
  8
0
 10
37
 20
284
 11
36.9606
 21
284.627
  0
LINE
  8
0
 10
36.9606
 20
284.627
 11
36.8429
 21
285.243
  0
LINE
  8
0
 10
36.8429
 20
285.243
 11
36.6489
 21
285.841
  0
LINE
  8
0
 10
36.6489
 20
285.841
 11
36.3815
 21
286.409
  0
LINE
  8
0
 10
36.3815
 20
286.409
 11
36.0451
 21
286.939
  0
LINE
  8
0
 10
36.0451
 20
286.939
 11
35.6448
 21
287.423
  0
LINE
  8
0
 10
35.6448
 20
287.423
 11
35.1871
 21
287.853
  0
LINE
  8
0
 10
35.1871
 20
287.853
 11
34.6791
 21
288.222
  0
LINE
  8
0
 10
34.6791
 20
288.222
 11
34.1289
 21
288.524
  0
LINE
  8
0
 10
34.1289
 20
288.524
 11
33.5451
 21
288.755
  0
LINE
  8
0
 10
33.5451
 20
288.755
 11
32.9369
 21
288.911
  0
LINE
  8
0
 10
32.9369
 20
288.911
 11
32.3139
 21
288.99
  0
LINE
  8
0
 10
32.3139
 20
288.99
 11
-32.3139
 21
288.99
  0
LINE
  8
0
 10
-32.3139
 20
288.99
 11
-32.9369
 21
288.911
  0
LINE
  8
0
 10
-32.9369
 20
288.911
 11
-33.5451
 21
288.755
  0
LINE
  8
0
 10
-33.5451
 20
288.755
 11
-34.1289
 21
288.524
  0
LINE
  8
0
 10
-34.1289
 20
288.524
 11
-34.6791
 21
288.222
  0
LINE
  8
0
 10
-34.6791
 20
288.222
 11
-35.1871
 21
287.853
  0
LINE
  8
0
 10
-35.1871
 20
287.853
 11
-35.6448
 21
287.423
  0
LINE
  8
0
 10
-35.6448
 20
287.423
 11
-36.0451
 21
286.939
  0
LINE
  8
0
 10
-36.0451
 20
286.939
 11
-36.3815
 21
286.409
  0
LINE
  8
0
 10
-36.3815
 20
286.409
 11
-36.6489
 21
285.841
  0
LINE
  8
0
 10
-36.6489
 20
285.841
 11
-36.8429
 21
285.243
  0
LINE
  8
0
 10
-36.8429
 20
285.243
 11
-36.9606
 21
284.627
  0
LINE
  8
0
 10
-36.9606
 20
284.627
 11
-37
 21
284
  0
LINE
  8
0
 10
-37
 20
284
 11
-37
 21
220
  0
LINE
  8
0
 10
-37
 20
220
 11
-36.9606
 21
219.373
  0
LINE
  8
0
 10
-36.9606
 20
219.373
 11
-36.8429
 21
218.757
  0
LINE
  8
0
 10
-36.8429
 20
218.757
 11
-36.6489
 21
218.159
  0
LINE
  8
0
 10
-36.6489
 20
218.159
 11
-36.3815
 21
217.591
  0
LINE
  8
0
 10
-36.3815
 20
217.591
 11
-36.0451
 21
217.061
  0
LINE
  8
0
 10
-36.0451
 20
217.061
 11
-35.6448
 21
216.577
  0
LINE
  8
0
 10
-35.6448
 20
216.577
 11
-35.1871
 21
216.147
  0
LINE
  8
0
 10
-35.1871
 20
216.147
 11
-34.6791
 21
215.778
  0
LINE
  8
0
 10
-34.6791
 20
215.778
 11
-34.1289
 21
215.476
  0
LINE
  8
0
 10
-34.1289
 20
215.476
 11
-33.5451
 21
215.245
  0
LINE
  8
0
 10
-33.5451
 20
215.245
 11
-32.9369
 21
215.089
  0
LINE
  8
0
 10
-32.9369
 20
215.089
 11
-32.3139
 21
215.01
  0
LINE
  8
0
 10
-32.3139
 20
215.01
 11
32.3139
 21
215.01
  0
LINE
  8
0
 10
32.3139
 20
215.01
 11
32.9369
 21
215.089
  0
LINE
  8
0
 10
29.8116
 20
279.006
 11
29.4379
 21
279.053
  0
LINE
  8
0
 10
29.4379
 20
279.053
 11
29.0729
 21
279.147
  0
LINE
  8
0
 10
29.0729
 20
279.147
 11
28.7227
 21
279.286
  0
LINE
  8
0
 10
28.7227
 20
279.286
 11
28.3925
 21
279.467
  0
LINE
  8
0
 10
28.3925
 20
279.467
 11
28.0877
 21
279.688
  0
LINE
  8
0
 10
28.0877
 20
279.688
 11
27.8131
 21
279.946
  0
LINE
  8
0
 10
27.8131
 20
279.946
 11
27.5729
 21
280.237
  0
LINE
  8
0
 10
27.5729
 20
280.237
 11
27.3711
 21
280.555
  0
LINE
  8
0
 10
27.3711
 20
280.555
 11
27.2107
 21
280.896
  0
LINE
  8
0
 10
27.2107
 20
280.896
 11
27.0942
 21
281.254
  0
LINE
  8
0
 10
27.0942
 20
281.254
 11
27.0237
 21
281.624
  0
LINE
  8
0
 10
27.0237
 20
281.624
 11
27
 21
282
  0
LINE
  8
0
 10
27
 20
282
 11
27.0237
 21
282.376
  0
LINE
  8
0
 10
27.0237
 20
282.376
 11
27.0942
 21
282.746
  0
LINE
  8
0
 10
27.0942
 20
282.746
 11
27.2107
 21
283.104
  0
LINE
  8
0
 10
27.2107
 20
283.104
 11
27.3711
 21
283.445
  0
LINE
  8
0
 10
27.3711
 20
283.445
 11
27.5729
 21
283.763
  0
LINE
  8
0
 10
27.5729
 20
283.763
 11
27.8131
 21
284.054
  0
LINE
  8
0
 10
27.8131
 20
284.054
 11
28.0877
 21
284.312
  0
LINE
  8
0
 10
28.0877
 20
284.312
 11
28.3925
 21
284.533
  0
LINE
  8
0
 10
28.3925
 20
284.533
 11
28.7227
 21
284.714
  0
LINE
  8
0
 10
28.7227
 20
284.714
 11
29.0729
 21
284.853
  0
LINE
  8
0
 10
29.0729
 20
284.853
 11
29.4379
 21
284.947
  0
LINE
  8
0
 10
29.4379
 20
284.947
 11
29.8116
 21
284.994
  0
LINE
  8
0
 10
29.8116
 20
284.994
 11
30.1884
 21
284.994
  0
LINE
  8
0
 10
30.1884
 20
284.994
 11
30.5621
 21
284.947
  0
LINE
  8
0
 10
30.5621
 20
284.947
 11
30.927
 21
284.853
  0
LINE
  8
0
 10
30.927
 20
284.853
 11
31.2773
 21
284.714
  0
LINE
  8
0
 10
31.2773
 20
284.714
 11
31.6075
 21
284.533
  0
LINE
  8
0
 10
31.6075
 20
284.533
 11
31.9123
 21
284.312
  0
LINE
  8
0
 10
31.9123
 20
284.312
 11
32.1869
 21
284.054
  0
LINE
  8
0
 10
32.1869
 20
284.054
 11
32.427
 21
283.763
  0
LINE
  8
0
 10
32.427
 20
283.763
 11
32.6289
 21
283.445
  0
LINE
  8
0
 10
32.6289
 20
283.445
 11
32.7893
 21
283.104
  0
LINE
  8
0
 10
32.7893
 20
283.104
 11
32.9057
 21
282.746
  0
LINE
  8
0
 10
32.9057
 20
282.746
 11
32.9763
 21
282.376
  0
LINE
  8
0
 10
32.9763
 20
282.376
 11
33
 21
282
  0
LINE
  8
0
 10
33
 20
282
 11
32.9763
 21
281.624
  0
LINE
  8
0
 10
32.9763
 20
281.624
 11
32.9057
 21
281.254
  0
LINE
  8
0
 10
32.9057
 20
281.254
 11
32.7893
 21
280.896
  0
LINE
  8
0
 10
32.7893
 20
280.896
 11
32.6289
 21
280.555
  0
LINE
  8
0
 10
32.6289
 20
280.555
 11
32.427
 21
280.237
  0
LINE
  8
0
 10
32.427
 20
280.237
 11
32.1869
 21
279.946
  0
LINE
  8
0
 10
32.1869
 20
279.946
 11
31.9123
 21
279.688
  0
LINE
  8
0
 10
31.9123
 20
279.688
 11
31.6075
 21
279.467
  0
LINE
  8
0
 10
31.6075
 20
279.467
 11
31.2773
 21
279.286
  0
LINE
  8
0
 10
31.2773
 20
279.286
 11
30.927
 21
279.147
  0
LINE
  8
0
 10
30.927
 20
279.147
 11
30.5621
 21
279.053
  0
LINE
  8
0
 10
30.5621
 20
279.053
 11
30.1884
 21
279.006
  0
LINE
  8
0
 10
30.1884
 20
279.006
 11
29.8116
 21
279.006
  0
LINE
  8
0
 10
-30.1884
 20
279.006
 11
-30.5621
 21
279.053
  0
LINE
  8
0
 10
-30.5621
 20
279.053
 11
-30.927
 21
279.147
  0
LINE
  8
0
 10
-30.927
 20
279.147
 11
-31.2773
 21
279.286
  0
LINE
  8
0
 10
-31.2773
 20
279.286
 11
-31.6075
 21
279.467
  0
LINE
  8
0
 10
-31.6075
 20
279.467
 11
-31.9123
 21
279.688
  0
LINE
  8
0
 10
-31.9123
 20
279.688
 11
-32.1869
 21
279.946
  0
LINE
  8
0
 10
-32.1869
 20
279.946
 11
-32.427
 21
280.237
  0
LINE
  8
0
 10
-32.427
 20
280.237
 11
-32.6289
 21
280.555
  0
LINE
  8
0
 10
-32.6289
 20
280.555
 11
-32.7893
 21
280.896
  0
LINE
  8
0
 10
-32.7893
 20
280.896
 11
-32.9057
 21
281.254
  0
LINE
  8
0
 10
-32.9057
 20
281.254
 11
-32.9763
 21
281.624
  0
LINE
  8
0
 10
-32.9763
 20
281.624
 11
-33
 21
282
  0
LINE
  8
0
 10
-33
 20
282
 11
-32.9763
 21
282.376
  0
LINE
  8
0
 10
-32.9763
 20
282.376
 11
-32.9057
 21
282.746
  0
LINE
  8
0
 10
-32.9057
 20
282.746
 11
-32.7893
 21
283.104
  0
LINE
  8
0
 10
-32.7893
 20
283.104
 11
-32.6289
 21
283.445
  0
LINE
  8
0
 10
-32.6289
 20
283.445
 11
-32.427
 21
283.763
  0
LINE
  8
0
 10
-32.427
 20
283.763
 11
-32.1869
 21
284.054
  0
LINE
  8
0
 10
-32.1869
 20
284.054
 11
-31.9123
 21
284.312
  0
LINE
  8
0
 10
-31.9123
 20
284.312
 11
-31.6075
 21
284.533
  0
LINE
  8
0
 10
-31.6075
 20
284.533
 11
-31.2773
 21
284.714
  0
LINE
  8
0
 10
-31.2773
 20
284.714
 11
-30.927
 21
284.853
  0
LINE
  8
0
 10
-30.927
 20
284.853
 11
-30.5621
 21
284.947
  0
LINE
  8
0
 10
-30.5621
 20
284.947
 11
-30.1884
 21
284.994
  0
LINE
  8
0
 10
-30.1884
 20
284.994
 11
-29.8116
 21
284.994
  0
LINE
  8
0
 10
-29.8116
 20
284.994
 11
-29.4379
 21
284.947
  0
LINE
  8
0
 10
-29.4379
 20
284.947
 11
-29.0729
 21
284.853
  0
LINE
  8
0
 10
-29.0729
 20
284.853
 11
-28.7227
 21
284.714
  0
LINE
  8
0
 10
-28.7227
 20
284.714
 11
-28.3925
 21
284.533
  0
LINE
  8
0
 10
-28.3925
 20
284.533
 11
-28.0877
 21
284.312
  0
LINE
  8
0
 10
-28.0877
 20
284.312
 11
-27.8131
 21
284.054
  0
LINE
  8
0
 10
-27.8131
 20
284.054
 11
-27.5729
 21
283.763
  0
LINE
  8
0
 10
-27.5729
 20
283.763
 11
-27.3711
 21
283.445
  0
LINE
  8
0
 10
-27.3711
 20
283.445
 11
-27.2107
 21
283.104
  0
LINE
  8
0
 10
-27.2107
 20
283.104
 11
-27.0942
 21
282.746
  0
LINE
  8
0
 10
-27.0942
 20
282.746
 11
-27.0237
 21
282.376
  0
LINE
  8
0
 10
-27.0237
 20
282.376
 11
-27
 21
282
  0
LINE
  8
0
 10
-27
 20
282
 11
-27.0237
 21
281.624
  0
LINE
  8
0
 10
-27.0237
 20
281.624
 11
-27.0942
 21
281.254
  0
LINE
  8
0
 10
-27.0942
 20
281.254
 11
-27.2107
 21
280.896
  0
LINE
  8
0
 10
-27.2107
 20
280.896
 11
-27.3711
 21
280.555
  0
LINE
  8
0
 10
-27.3711
 20
280.555
 11
-27.5729
 21
280.237
  0
LINE
  8
0
 10
-27.5729
 20
280.237
 11
-27.8131
 21
279.946
  0
LINE
  8
0
 10
-27.8131
 20
279.946
 11
-28.0877
 21
279.688
  0
LINE
  8
0
 10
-28.0877
 20
279.688
 11
-28.3925
 21
279.467
  0
LINE
  8
0
 10
-28.3925
 20
279.467
 11
-28.7227
 21
279.286
  0
LINE
  8
0
 10
-28.7227
 20
279.286
 11
-29.0729
 21
279.147
  0
LINE
  8
0
 10
-29.0729
 20
279.147
 11
-29.4379
 21
279.053
  0
LINE
  8
0
 10
-29.4379
 20
279.053
 11
-29.8116
 21
279.006
  0
LINE
  8
0
 10
-29.8116
 20
279.006
 11
-30.1884
 21
279.006
  0
LINE
  8
0
 10
29.8116
 20
219.006
 11
29.4379
 21
219.053
  0
LINE
  8
0
 10
29.4379
 20
219.053
 11
29.0729
 21
219.147
  0
LINE
  8
0
 10
29.0729
 20
219.147
 11
28.7227
 21
219.286
  0
LINE
  8
0
 10
28.7227
 20
219.286
 11
28.3925
 21
219.467
  0
LINE
  8
0
 10
28.3925
 20
219.467
 11
28.0877
 21
219.688
  0
LINE
  8
0
 10
28.0877
 20
219.688
 11
27.8131
 21
219.946
  0
LINE
  8
0
 10
27.8131
 20
219.946
 11
27.5729
 21
220.237
  0
LINE
  8
0
 10
27.5729
 20
220.237
 11
27.3711
 21
220.555
  0
LINE
  8
0
 10
27.3711
 20
220.555
 11
27.2107
 21
220.896
  0
LINE
  8
0
 10
27.2107
 20
220.896
 11
27.0942
 21
221.254
  0
LINE
  8
0
 10
27.0942
 20
221.254
 11
27.0237
 21
221.624
  0
LINE
  8
0
 10
27.0237
 20
221.624
 11
27
 21
222
  0
LINE
  8
0
 10
27
 20
222
 11
27.0237
 21
222.376
  0
LINE
  8
0
 10
27.0237
 20
222.376
 11
27.0942
 21
222.746
  0
LINE
  8
0
 10
27.0942
 20
222.746
 11
27.2107
 21
223.104
  0
LINE
  8
0
 10
27.2107
 20
223.104
 11
27.3711
 21
223.445
  0
LINE
  8
0
 10
27.3711
 20
223.445
 11
27.5729
 21
223.763
  0
LINE
  8
0
 10
27.5729
 20
223.763
 11
27.8131
 21
224.054
  0
LINE
  8
0
 10
27.8131
 20
224.054
 11
28.0877
 21
224.312
  0
LINE
  8
0
 10
28.0877
 20
224.312
 11
28.3925
 21
224.533
  0
LINE
  8
0
 10
28.3925
 20
224.533
 11
28.7227
 21
224.714
  0
LINE
  8
0
 10
28.7227
 20
224.714
 11
29.0729
 21
224.853
  0
LINE
  8
0
 10
29.0729
 20
224.853
 11
29.4379
 21
224.947
  0
LINE
  8
0
 10
29.4379
 20
224.947
 11
29.8116
 21
224.994
  0
LINE
  8
0
 10
29.8116
 20
224.994
 11
30.1884
 21
224.994
  0
LINE
  8
0
 10
30.1884
 20
224.994
 11
30.5621
 21
224.947
  0
LINE
  8
0
 10
30.5621
 20
224.947
 11
30.927
 21
224.853
  0
LINE
  8
0
 10
30.927
 20
224.853
 11
31.2773
 21
224.714
  0
LINE
  8
0
 10
31.2773
 20
224.714
 11
31.6075
 21
224.533
  0
LINE
  8
0
 10
31.6075
 20
224.533
 11
31.9123
 21
224.312
  0
LINE
  8
0
 10
31.9123
 20
224.312
 11
32.1869
 21
224.054
  0
LINE
  8
0
 10
32.1869
 20
224.054
 11
32.427
 21
223.763
  0
LINE
  8
0
 10
32.427
 20
223.763
 11
32.6289
 21
223.445
  0
LINE
  8
0
 10
32.6289
 20
223.445
 11
32.7893
 21
223.104
  0
LINE
  8
0
 10
32.7893
 20
223.104
 11
32.9057
 21
222.746
  0
LINE
  8
0
 10
32.9057
 20
222.746
 11
32.9763
 21
222.376
  0
LINE
  8
0
 10
32.9763
 20
222.376
 11
33
 21
222
  0
LINE
  8
0
 10
33
 20
222
 11
32.9763
 21
221.624
  0
LINE
  8
0
 10
32.9763
 20
221.624
 11
32.9057
 21
221.254
  0
LINE
  8
0
 10
32.9057
 20
221.254
 11
32.7893
 21
220.896
  0
LINE
  8
0
 10
32.7893
 20
220.896
 11
32.6289
 21
220.555
  0
LINE
  8
0
 10
32.6289
 20
220.555
 11
32.427
 21
220.237
  0
LINE
  8
0
 10
32.427
 20
220.237
 11
32.1869
 21
219.946
  0
LINE
  8
0
 10
32.1869
 20
219.946
 11
31.9123
 21
219.688
  0
LINE
  8
0
 10
31.9123
 20
219.688
 11
31.6075
 21
219.467
  0
LINE
  8
0
 10
31.6075
 20
219.467
 11
31.2773
 21
219.286
  0
LINE
  8
0
 10
31.2773
 20
219.286
 11
30.927
 21
219.147
  0
LINE
  8
0
 10
30.927
 20
219.147
 11
30.5621
 21
219.053
  0
LINE
  8
0
 10
30.5621
 20
219.053
 11
30.1884
 21
219.006
  0
LINE
  8
0
 10
30.1884
 20
219.006
 11
29.8116
 21
219.006
  0
LINE
  8
0
 10
-30.1884
 20
219.006
 11
-30.5621
 21
219.053
  0
LINE
  8
0
 10
-30.5621
 20
219.053
 11
-30.927
 21
219.147
  0
LINE
  8
0
 10
-30.927
 20
219.147
 11
-31.2773
 21
219.286
  0
LINE
  8
0
 10
-31.2773
 20
219.286
 11
-31.6075
 21
219.467
  0
LINE
  8
0
 10
-31.6075
 20
219.467
 11
-31.9123
 21
219.688
  0
LINE
  8
0
 10
-31.9123
 20
219.688
 11
-32.1869
 21
219.946
  0
LINE
  8
0
 10
-32.1869
 20
219.946
 11
-32.427
 21
220.237
  0
LINE
  8
0
 10
-32.427
 20
220.237
 11
-32.6289
 21
220.555
  0
LINE
  8
0
 10
-32.6289
 20
220.555
 11
-32.7893
 21
220.896
  0
LINE
  8
0
 10
-32.7893
 20
220.896
 11
-32.9057
 21
221.254
  0
LINE
  8
0
 10
-32.9057
 20
221.254
 11
-32.9763
 21
221.624
  0
LINE
  8
0
 10
-32.9763
 20
221.624
 11
-33
 21
222
  0
LINE
  8
0
 10
-33
 20
222
 11
-32.9763
 21
222.376
  0
LINE
  8
0
 10
-32.9763
 20
222.376
 11
-32.9057
 21
222.746
  0
LINE
  8
0
 10
-32.9057
 20
222.746
 11
-32.7893
 21
223.104
  0
LINE
  8
0
 10
-32.7893
 20
223.104
 11
-32.6289
 21
223.445
  0
LINE
  8
0
 10
-32.6289
 20
223.445
 11
-32.427
 21
223.763
  0
LINE
  8
0
 10
-32.427
 20
223.763
 11
-32.1869
 21
224.054
  0
LINE
  8
0
 10
-32.1869
 20
224.054
 11
-31.9123
 21
224.312
  0
LINE
  8
0
 10
-31.9123
 20
224.312
 11
-31.6075
 21
224.533
  0
LINE
  8
0
 10
-31.6075
 20
224.533
 11
-31.2773
 21
224.714
  0
LINE
  8
0
 10
-31.2773
 20
224.714
 11
-30.927
 21
224.853
  0
LINE
  8
0
 10
-30.927
 20
224.853
 11
-30.5621
 21
224.947
  0
LINE
  8
0
 10
-30.5621
 20
224.947
 11
-30.1884
 21
224.994
  0
LINE
  8
0
 10
-30.1884
 20
224.994
 11
-29.8116
 21
224.994
  0
LINE
  8
0
 10
-29.8116
 20
224.994
 11
-29.4379
 21
224.947
  0
LINE
  8
0
 10
-29.4379
 20
224.947
 11
-29.0729
 21
224.853
  0
LINE
  8
0
 10
-29.0729
 20
224.853
 11
-28.7227
 21
224.714
  0
LINE
  8
0
 10
-28.7227
 20
224.714
 11
-28.3925
 21
224.533
  0
LINE
  8
0
 10
-28.3925
 20
224.533
 11
-28.0877
 21
224.312
  0
LINE
  8
0
 10
-28.0877
 20
224.312
 11
-27.8131
 21
224.054
  0
LINE
  8
0
 10
-27.8131
 20
224.054
 11
-27.5729
 21
223.763
  0
LINE
  8
0
 10
-27.5729
 20
223.763
 11
-27.3711
 21
223.445
  0
LINE
  8
0
 10
-27.3711
 20
223.445
 11
-27.2107
 21
223.104
  0
LINE
  8
0
 10
-27.2107
 20
223.104
 11
-27.0942
 21
222.746
  0
LINE
  8
0
 10
-27.0942
 20
222.746
 11
-27.0237
 21
222.376
  0
LINE
  8
0
 10
-27.0237
 20
222.376
 11
-27
 21
222
  0
LINE
  8
0
 10
-27
 20
222
 11
-27.0237
 21
221.624
  0
LINE
  8
0
 10
-27.0237
 20
221.624
 11
-27.0942
 21
221.254
  0
LINE
  8
0
 10
-27.0942
 20
221.254
 11
-27.2107
 21
220.896
  0
LINE
  8
0
 10
-27.2107
 20
220.896
 11
-27.3711
 21
220.555
  0
LINE
  8
0
 10
-27.3711
 20
220.555
 11
-27.5729
 21
220.237
  0
LINE
  8
0
 10
-27.5729
 20
220.237
 11
-27.8131
 21
219.946
  0
LINE
  8
0
 10
-27.8131
 20
219.946
 11
-28.0877
 21
219.688
  0
LINE
  8
0
 10
-28.0877
 20
219.688
 11
-28.3925
 21
219.467
  0
LINE
  8
0
 10
-28.3925
 20
219.467
 11
-28.7227
 21
219.286
  0
LINE
  8
0
 10
-28.7227
 20
219.286
 11
-29.0729
 21
219.147
  0
LINE
  8
0
 10
-29.0729
 20
219.147
 11
-29.4379
 21
219.053
  0
LINE
  8
0
 10
-29.4379
 20
219.053
 11
-29.8116
 21
219.006
  0
LINE
  8
0
 10
-29.8116
 20
219.006
 11
-30.1884
 21
219.006
  0
ENDSEC
  0
SECTION
  2
OBJECTS
  0
DICTIONARY
  0
ENDSEC
  0
EOF
