  0
SECTION
  2
BLOCKS
  0
ENDSEC
  0
SECTION
  2
ENTITIES
  0
LINE
  8
0
 10
167.937
 20
-36.9114
 11
168.545
 21
-36.7553
  0
LINE
  8
0
 10
168.545
 20
-36.7553
 11
169.129
 21
-36.5241
  0
LINE
  8
0
 10
169.129
 20
-36.5241
 11
169.679
 21
-36.2216
  0
LINE
  8
0
 10
169.679
 20
-36.2216
 11
170.187
 21
-35.8526
  0
LINE
  8
0
 10
170.187
 20
-35.8526
 11
170.645
 21
-35.4227
  0
LINE
  8
0
 10
170.645
 20
-35.4227
 11
171.045
 21
-34.9389
  0
LINE
  8
0
 10
171.045
 20
-34.9389
 11
171.382
 21
-34.4088
  0
LINE
  8
0
 10
171.382
 20
-34.4088
 11
171.649
 21
-33.8406
  0
LINE
  8
0
 10
171.649
 20
-33.8406
 11
171.843
 21
-33.2434
  0
LINE
  8
0
 10
171.843
 20
-33.2434
 11
171.961
 21
-32.6267
  0
LINE
  8
0
 10
171.961
 20
-32.6267
 11
172
 21
-32
  0
LINE
  8
0
 10
172
 20
-32
 11
172
 21
32
  0
LINE
  8
0
 10
172
 20
32
 11
171.961
 21
32.6267
  0
LINE
  8
0
 10
171.961
 20
32.6267
 11
171.843
 21
33.2434
  0
LINE
  8
0
 10
171.843
 20
33.2434
 11
171.649
 21
33.8406
  0
LINE
  8
0
 10
171.649
 20
33.8406
 11
171.382
 21
34.4088
  0
LINE
  8
0
 10
171.382
 20
34.4088
 11
171.045
 21
34.9389
  0
LINE
  8
0
 10
171.045
 20
34.9389
 11
170.645
 21
35.4227
  0
LINE
  8
0
 10
170.645
 20
35.4227
 11
170.187
 21
35.8526
  0
LINE
  8
0
 10
170.187
 20
35.8526
 11
169.679
 21
36.2216
  0
LINE
  8
0
 10
169.679
 20
36.2216
 11
169.129
 21
36.5241
  0
LINE
  8
0
 10
169.129
 20
36.5241
 11
168.545
 21
36.7553
  0
LINE
  8
0
 10
168.545
 20
36.7553
 11
167.937
 21
36.9114
  0
LINE
  8
0
 10
167.937
 20
36.9114
 11
167.314
 21
36.9901
  0
LINE
  8
0
 10
167.314
 20
36.9901
 11
-167.314
 21
36.9901
  0
LINE
  8
0
 10
-167.314
 20
36.9901
 11
-167.937
 21
36.9114
  0
LINE
  8
0
 10
-167.937
 20
36.9114
 11
-168.545
 21
36.7553
  0
LINE
  8
0
 10
-168.545
 20
36.7553
 11
-169.129
 21
36.5241
  0
LINE
  8
0
 10
-169.129
 20
36.5241
 11
-169.679
 21
36.2216
  0
LINE
  8
0
 10
-169.679
 20
36.2216
 11
-170.187
 21
35.8526
  0
LINE
  8
0
 10
-170.187
 20
35.8526
 11
-170.645
 21
35.4227
  0
LINE
  8
0
 10
-170.645
 20
35.4227
 11
-171.045
 21
34.9389
  0
LINE
  8
0
 10
-171.045
 20
34.9389
 11
-171.382
 21
34.4088
  0
LINE
  8
0
 10
-171.382
 20
34.4088
 11
-171.649
 21
33.8406
  0
LINE
  8
0
 10
-171.649
 20
33.8406
 11
-171.843
 21
33.2434
  0
LINE
  8
0
 10
-171.843
 20
33.2434
 11
-171.961
 21
32.6267
  0
LINE
  8
0
 10
-171.961
 20
32.6267
 11
-172
 21
32
  0
LINE
  8
0
 10
-172
 20
32
 11
-172
 21
-32
  0
LINE
  8
0
 10
-172
 20
-32
 11
-171.961
 21
-32.6267
  0
LINE
  8
0
 10
-171.961
 20
-32.6267
 11
-171.843
 21
-33.2434
  0
LINE
  8
0
 10
-171.843
 20
-33.2434
 11
-171.649
 21
-33.8406
  0
LINE
  8
0
 10
-171.649
 20
-33.8406
 11
-171.382
 21
-34.4088
  0
LINE
  8
0
 10
-171.382
 20
-34.4088
 11
-171.045
 21
-34.9389
  0
LINE
  8
0
 10
-171.045
 20
-34.9389
 11
-170.645
 21
-35.4227
  0
LINE
  8
0
 10
-170.645
 20
-35.4227
 11
-170.187
 21
-35.8526
  0
LINE
  8
0
 10
-170.187
 20
-35.8526
 11
-169.679
 21
-36.2216
  0
LINE
  8
0
 10
-169.679
 20
-36.2216
 11
-169.129
 21
-36.5241
  0
LINE
  8
0
 10
-169.129
 20
-36.5241
 11
-168.545
 21
-36.7553
  0
LINE
  8
0
 10
-168.545
 20
-36.7553
 11
-167.937
 21
-36.9114
  0
LINE
  8
0
 10
-167.937
 20
-36.9114
 11
-167.314
 21
-36.9901
  0
LINE
  8
0
 10
-167.314
 20
-36.9901
 11
167.314
 21
-36.9901
  0
LINE
  8
0
 10
167.314
 20
-36.9901
 11
167.937
 21
-36.9114
  0
LINE
  8
0
 10
162.024
 20
30.376
 11
162.094
 21
30.7461
  0
LINE
  8
0
 10
162.094
 20
30.7461
 11
162.211
 21
31.1044
  0
LINE
  8
0
 10
162.211
 20
31.1044
 11
162.371
 21
31.4453
  0
LINE
  8
0
 10
162.371
 20
31.4453
 11
162.573
 21
31.7634
  0
LINE
  8
0
 10
162.573
 20
31.7634
 11
162.813
 21
32.0536
  0
LINE
  8
0
 10
162.813
 20
32.0536
 11
163.088
 21
32.3115
  0
LINE
  8
0
 10
163.088
 20
32.3115
 11
163.393
 21
32.533
  0
LINE
  8
0
 10
163.393
 20
32.533
 11
163.723
 21
32.7145
  0
LINE
  8
0
 10
163.723
 20
32.7145
 11
164.073
 21
32.8532
  0
LINE
  8
0
 10
164.073
 20
32.8532
 11
164.438
 21
32.9469
  0
LINE
  8
0
 10
164.438
 20
32.9469
 11
164.812
 21
32.9941
  0
LINE
  8
0
 10
164.812
 20
32.9941
 11
165.188
 21
32.9941
  0
LINE
  8
0
 10
165.188
 20
32.9941
 11
165.562
 21
32.9469
  0
LINE
  8
0
 10
165.562
 20
32.9469
 11
165.927
 21
32.8532
  0
LINE
  8
0
 10
165.927
 20
32.8532
 11
166.277
 21
32.7145
  0
LINE
  8
0
 10
166.277
 20
32.7145
 11
166.607
 21
32.533
  0
LINE
  8
0
 10
166.607
 20
32.533
 11
166.912
 21
32.3115
  0
LINE
  8
0
 10
166.912
 20
32.3115
 11
167.187
 21
32.0536
  0
LINE
  8
0
 10
167.187
 20
32.0536
 11
167.427
 21
31.7634
  0
LINE
  8
0
 10
167.427
 20
31.7634
 11
167.629
 21
31.4453
  0
LINE
  8
0
 10
167.629
 20
31.4453
 11
167.789
 21
31.1044
  0
LINE
  8
0
 10
167.789
 20
31.1044
 11
167.906
 21
30.7461
  0
LINE
  8
0
 10
167.906
 20
30.7461
 11
167.976
 21
30.376
  0
LINE
  8
0
 10
167.976
 20
30.376
 11
168
 21
30
  0
LINE
  8
0
 10
168
 20
30
 11
167.976
 21
29.624
  0
LINE
  8
0
 10
167.976
 20
29.624
 11
167.906
 21
29.2539
  0
LINE
  8
0
 10
167.906
 20
29.2539
 11
167.789
 21
28.8956
  0
LINE
  8
0
 10
167.789
 20
28.8956
 11
167.629
 21
28.5547
  0
LINE
  8
0
 10
167.629
 20
28.5547
 11
167.427
 21
28.2366
  0
LINE
  8
0
 10
167.427
 20
28.2366
 11
167.187
 21
27.9464
  0
LINE
  8
0
 10
167.187
 20
27.9464
 11
166.912
 21
27.6884
  0
LINE
  8
0
 10
166.912
 20
27.6884
 11
166.607
 21
27.467
  0
LINE
  8
0
 10
166.607
 20
27.467
 11
166.277
 21
27.2855
  0
LINE
  8
0
 10
166.277
 20
27.2855
 11
165.927
 21
27.1468
  0
LINE
  8
0
 10
165.927
 20
27.1468
 11
165.562
 21
27.0531
  0
LINE
  8
0
 10
165.562
 20
27.0531
 11
165.188
 21
27.0059
  0
LINE
  8
0
 10
165.188
 20
27.0059
 11
164.812
 21
27.0059
  0
LINE
  8
0
 10
164.812
 20
27.0059
 11
164.438
 21
27.0531
  0
LINE
  8
0
 10
164.438
 20
27.0531
 11
164.073
 21
27.1468
  0
LINE
  8
0
 10
164.073
 20
27.1468
 11
163.723
 21
27.2855
  0
LINE
  8
0
 10
163.723
 20
27.2855
 11
163.393
 21
27.467
  0
LINE
  8
0
 10
163.393
 20
27.467
 11
163.088
 21
27.6884
  0
LINE
  8
0
 10
163.088
 20
27.6884
 11
162.813
 21
27.9464
  0
LINE
  8
0
 10
162.813
 20
27.9464
 11
162.573
 21
28.2366
  0
LINE
  8
0
 10
162.573
 20
28.2366
 11
162.371
 21
28.5547
  0
LINE
  8
0
 10
162.371
 20
28.5547
 11
162.211
 21
28.8956
  0
LINE
  8
0
 10
162.211
 20
28.8956
 11
162.094
 21
29.2539
  0
LINE
  8
0
 10
162.094
 20
29.2539
 11
162.024
 21
29.624
  0
LINE
  8
0
 10
162.024
 20
29.624
 11
162
 21
30
  0
LINE
  8
0
 10
162
 20
30
 11
162.024
 21
30.376
  0
LINE
  8
0
 10
-165.188
 20
-32.9941
 11
-165.562
 21
-32.9469
  0
LINE
  8
0
 10
-165.562
 20
-32.9469
 11
-165.927
 21
-32.8532
  0
LINE
  8
0
 10
-165.927
 20
-32.8532
 11
-166.277
 21
-32.7145
  0
LINE
  8
0
 10
-166.277
 20
-32.7145
 11
-166.607
 21
-32.533
  0
LINE
  8
0
 10
-166.607
 20
-32.533
 11
-166.912
 21
-32.3115
  0
LINE
  8
0
 10
-166.912
 20
-32.3115
 11
-167.187
 21
-32.0536
  0
LINE
  8
0
 10
-167.187
 20
-32.0536
 11
-167.427
 21
-31.7634
  0
LINE
  8
0
 10
-167.427
 20
-31.7634
 11
-167.629
 21
-31.4453
  0
LINE
  8
0
 10
-167.629
 20
-31.4453
 11
-167.789
 21
-31.1044
  0
LINE
  8
0
 10
-167.789
 20
-31.1044
 11
-167.906
 21
-30.7461
  0
LINE
  8
0
 10
-167.906
 20
-30.7461
 11
-167.976
 21
-30.376
  0
LINE
  8
0
 10
-167.976
 20
-30.376
 11
-168
 21
-30
  0
LINE
  8
0
 10
-168
 20
-30
 11
-167.976
 21
-29.624
  0
LINE
  8
0
 10
-167.976
 20
-29.624
 11
-167.906
 21
-29.2539
  0
LINE
  8
0
 10
-167.906
 20
-29.2539
 11
-167.789
 21
-28.8956
  0
LINE
  8
0
 10
-167.789
 20
-28.8956
 11
-167.629
 21
-28.5547
  0
LINE
  8
0
 10
-167.629
 20
-28.5547
 11
-167.427
 21
-28.2366
  0
LINE
  8
0
 10
-167.427
 20
-28.2366
 11
-167.187
 21
-27.9464
  0
LINE
  8
0
 10
-167.187
 20
-27.9464
 11
-166.912
 21
-27.6884
  0
LINE
  8
0
 10
-166.912
 20
-27.6884
 11
-166.607
 21
-27.467
  0
LINE
  8
0
 10
-166.607
 20
-27.467
 11
-166.277
 21
-27.2855
  0
LINE
  8
0
 10
-166.277
 20
-27.2855
 11
-165.927
 21
-27.1468
  0
LINE
  8
0
 10
-165.927
 20
-27.1468
 11
-165.562
 21
-27.0531
  0
LINE
  8
0
 10
-165.562
 20
-27.0531
 11
-165.188
 21
-27.0059
  0
LINE
  8
0
 10
-165.188
 20
-27.0059
 11
-164.812
 21
-27.0059
  0
LINE
  8
0
 10
-164.812
 20
-27.0059
 11
-164.438
 21
-27.0531
  0
LINE
  8
0
 10
-164.438
 20
-27.0531
 11
-164.073
 21
-27.1468
  0
LINE
  8
0
 10
-164.073
 20
-27.1468
 11
-163.723
 21
-27.2855
  0
LINE
  8
0
 10
-163.723
 20
-27.2855
 11
-163.393
 21
-27.467
  0
LINE
  8
0
 10
-163.393
 20
-27.467
 11
-163.088
 21
-27.6884
  0
LINE
  8
0
 10
-163.088
 20
-27.6884
 11
-162.813
 21
-27.9464
  0
LINE
  8
0
 10
-162.813
 20
-27.9464
 11
-162.573
 21
-28.2366
  0
LINE
  8
0
 10
-162.573
 20
-28.2366
 11
-162.371
 21
-28.5547
  0
LINE
  8
0
 10
-162.371
 20
-28.5547
 11
-162.211
 21
-28.8956
  0
LINE
  8
0
 10
-162.211
 20
-28.8956
 11
-162.094
 21
-29.2539
  0
LINE
  8
0
 10
-162.094
 20
-29.2539
 11
-162.024
 21
-29.624
  0
LINE
  8
0
 10
-162.024
 20
-29.624
 11
-162
 21
-30
  0
LINE
  8
0
 10
-162
 20
-30
 11
-162.024
 21
-30.376
  0
LINE
  8
0
 10
-162.024
 20
-30.376
 11
-162.094
 21
-30.7461
  0
LINE
  8
0
 10
-162.094
 20
-30.7461
 11
-162.211
 21
-31.1044
  0
LINE
  8
0
 10
-162.211
 20
-31.1044
 11
-162.371
 21
-31.4453
  0
LINE
  8
0
 10
-162.371
 20
-31.4453
 11
-162.573
 21
-31.7634
  0
LINE
  8
0
 10
-162.573
 20
-31.7634
 11
-162.813
 21
-32.0536
  0
LINE
  8
0
 10
-162.813
 20
-32.0536
 11
-163.088
 21
-32.3115
  0
LINE
  8
0
 10
-163.088
 20
-32.3115
 11
-163.393
 21
-32.533
  0
LINE
  8
0
 10
-163.393
 20
-32.533
 11
-163.723
 21
-32.7145
  0
LINE
  8
0
 10
-163.723
 20
-32.7145
 11
-164.073
 21
-32.8532
  0
LINE
  8
0
 10
-164.073
 20
-32.8532
 11
-164.438
 21
-32.9469
  0
LINE
  8
0
 10
-164.438
 20
-32.9469
 11
-164.812
 21
-32.9941
  0
LINE
  8
0
 10
-164.812
 20
-32.9941
 11
-165.188
 21
-32.9941
  0
LINE
  8
0
 10
164.812
 20
-32.9941
 11
164.438
 21
-32.9469
  0
LINE
  8
0
 10
164.438
 20
-32.9469
 11
164.073
 21
-32.8532
  0
LINE
  8
0
 10
164.073
 20
-32.8532
 11
163.723
 21
-32.7145
  0
LINE
  8
0
 10
163.723
 20
-32.7145
 11
163.393
 21
-32.533
  0
LINE
  8
0
 10
163.393
 20
-32.533
 11
163.088
 21
-32.3115
  0
LINE
  8
0
 10
163.088
 20
-32.3115
 11
162.813
 21
-32.0536
  0
LINE
  8
0
 10
162.813
 20
-32.0536
 11
162.573
 21
-31.7634
  0
LINE
  8
0
 10
162.573
 20
-31.7634
 11
162.371
 21
-31.4453
  0
LINE
  8
0
 10
162.371
 20
-31.4453
 11
162.211
 21
-31.1044
  0
LINE
  8
0
 10
162.211
 20
-31.1044
 11
162.094
 21
-30.7461
  0
LINE
  8
0
 10
162.094
 20
-30.7461
 11
162.024
 21
-30.376
  0
LINE
  8
0
 10
162.024
 20
-30.376
 11
162
 21
-30
  0
LINE
  8
0
 10
162
 20
-30
 11
162.024
 21
-29.624
  0
LINE
  8
0
 10
162.024
 20
-29.624
 11
162.094
 21
-29.2539
  0
LINE
  8
0
 10
162.094
 20
-29.2539
 11
162.211
 21
-28.8956
  0
LINE
  8
0
 10
162.211
 20
-28.8956
 11
162.371
 21
-28.5547
  0
LINE
  8
0
 10
162.371
 20
-28.5547
 11
162.573
 21
-28.2366
  0
LINE
  8
0
 10
162.573
 20
-28.2366
 11
162.813
 21
-27.9464
  0
LINE
  8
0
 10
162.813
 20
-27.9464
 11
163.088
 21
-27.6884
  0
LINE
  8
0
 10
163.088
 20
-27.6884
 11
163.393
 21
-27.467
  0
LINE
  8
0
 10
163.393
 20
-27.467
 11
163.723
 21
-27.2855
  0
LINE
  8
0
 10
163.723
 20
-27.2855
 11
164.073
 21
-27.1468
  0
LINE
  8
0
 10
164.073
 20
-27.1468
 11
164.438
 21
-27.0531
  0
LINE
  8
0
 10
164.438
 20
-27.0531
 11
164.812
 21
-27.0059
  0
LINE
  8
0
 10
164.812
 20
-27.0059
 11
165.188
 21
-27.0059
  0
LINE
  8
0
 10
165.188
 20
-27.0059
 11
165.562
 21
-27.0531
  0
LINE
  8
0
 10
165.562
 20
-27.0531
 11
165.927
 21
-27.1468
  0
LINE
  8
0
 10
165.927
 20
-27.1468
 11
166.277
 21
-27.2855
  0
LINE
  8
0
 10
166.277
 20
-27.2855
 11
166.607
 21
-27.467
  0
LINE
  8
0
 10
166.607
 20
-27.467
 11
166.912
 21
-27.6884
  0
LINE
  8
0
 10
166.912
 20
-27.6884
 11
167.187
 21
-27.9464
  0
LINE
  8
0
 10
167.187
 20
-27.9464
 11
167.427
 21
-28.2366
  0
LINE
  8
0
 10
167.427
 20
-28.2366
 11
167.629
 21
-28.5547
  0
LINE
  8
0
 10
167.629
 20
-28.5547
 11
167.789
 21
-28.8956
  0
LINE
  8
0
 10
167.789
 20
-28.8956
 11
167.906
 21
-29.2539
  0
LINE
  8
0
 10
167.906
 20
-29.2539
 11
167.976
 21
-29.624
  0
LINE
  8
0
 10
167.976
 20
-29.624
 11
168
 21
-30
  0
LINE
  8
0
 10
168
 20
-30
 11
167.976
 21
-30.376
  0
LINE
  8
0
 10
167.976
 20
-30.376
 11
167.906
 21
-30.7461
  0
LINE
  8
0
 10
167.906
 20
-30.7461
 11
167.789
 21
-31.1044
  0
LINE
  8
0
 10
167.789
 20
-31.1044
 11
167.629
 21
-31.4453
  0
LINE
  8
0
 10
167.629
 20
-31.4453
 11
167.427
 21
-31.7634
  0
LINE
  8
0
 10
167.427
 20
-31.7634
 11
167.187
 21
-32.0536
  0
LINE
  8
0
 10
167.187
 20
-32.0536
 11
166.912
 21
-32.3115
  0
LINE
  8
0
 10
166.912
 20
-32.3115
 11
166.607
 21
-32.533
  0
LINE
  8
0
 10
166.607
 20
-32.533
 11
166.277
 21
-32.7145
  0
LINE
  8
0
 10
166.277
 20
-32.7145
 11
165.927
 21
-32.8532
  0
LINE
  8
0
 10
165.927
 20
-32.8532
 11
165.562
 21
-32.9469
  0
LINE
  8
0
 10
165.562
 20
-32.9469
 11
165.188
 21
-32.9941
  0
LINE
  8
0
 10
165.188
 20
-32.9941
 11
164.812
 21
-32.9941
  0
LINE
  8
0
 10
-162.211
 20
28.8956
 11
-162.371
 21
28.5547
  0
LINE
  8
0
 10
-162.371
 20
28.5547
 11
-162.573
 21
28.2366
  0
LINE
  8
0
 10
-162.573
 20
28.2366
 11
-162.813
 21
27.9464
  0
LINE
  8
0
 10
-162.813
 20
27.9464
 11
-163.088
 21
27.6884
  0
LINE
  8
0
 10
-163.088
 20
27.6884
 11
-163.393
 21
27.467
  0
LINE
  8
0
 10
-163.393
 20
27.467
 11
-163.723
 21
27.2855
  0
LINE
  8
0
 10
-163.723
 20
27.2855
 11
-164.073
 21
27.1468
  0
LINE
  8
0
 10
-164.073
 20
27.1468
 11
-164.438
 21
27.0531
  0
LINE
  8
0
 10
-164.438
 20
27.0531
 11
-164.812
 21
27.0059
  0
LINE
  8
0
 10
-164.812
 20
27.0059
 11
-165.188
 21
27.0059
  0
LINE
  8
0
 10
-165.188
 20
27.0059
 11
-165.562
 21
27.0531
  0
LINE
  8
0
 10
-165.562
 20
27.0531
 11
-165.927
 21
27.1468
  0
LINE
  8
0
 10
-165.927
 20
27.1468
 11
-166.277
 21
27.2855
  0
LINE
  8
0
 10
-166.277
 20
27.2855
 11
-166.607
 21
27.467
  0
LINE
  8
0
 10
-166.607
 20
27.467
 11
-166.912
 21
27.6884
  0
LINE
  8
0
 10
-166.912
 20
27.6884
 11
-167.187
 21
27.9464
  0
LINE
  8
0
 10
-167.187
 20
27.9464
 11
-167.427
 21
28.2366
  0
LINE
  8
0
 10
-167.427
 20
28.2366
 11
-167.629
 21
28.5547
  0
LINE
  8
0
 10
-167.629
 20
28.5547
 11
-167.789
 21
28.8956
  0
LINE
  8
0
 10
-167.789
 20
28.8956
 11
-167.906
 21
29.2539
  0
LINE
  8
0
 10
-167.906
 20
29.2539
 11
-167.976
 21
29.624
  0
LINE
  8
0
 10
-167.976
 20
29.624
 11
-168
 21
30
  0
LINE
  8
0
 10
-168
 20
30
 11
-167.976
 21
30.376
  0
LINE
  8
0
 10
-167.976
 20
30.376
 11
-167.906
 21
30.7461
  0
LINE
  8
0
 10
-167.906
 20
30.7461
 11
-167.789
 21
31.1044
  0
LINE
  8
0
 10
-167.789
 20
31.1044
 11
-167.629
 21
31.4453
  0
LINE
  8
0
 10
-167.629
 20
31.4453
 11
-167.427
 21
31.7634
  0
LINE
  8
0
 10
-167.427
 20
31.7634
 11
-167.187
 21
32.0536
  0
LINE
  8
0
 10
-167.187
 20
32.0536
 11
-166.912
 21
32.3115
  0
LINE
  8
0
 10
-166.912
 20
32.3115
 11
-166.607
 21
32.533
  0
LINE
  8
0
 10
-166.607
 20
32.533
 11
-166.277
 21
32.7145
  0
LINE
  8
0
 10
-166.277
 20
32.7145
 11
-165.927
 21
32.8532
  0
LINE
  8
0
 10
-165.927
 20
32.8532
 11
-165.562
 21
32.9469
  0
LINE
  8
0
 10
-165.562
 20
32.9469
 11
-165.188
 21
32.9941
  0
LINE
  8
0
 10
-165.188
 20
32.9941
 11
-164.812
 21
32.9941
  0
LINE
  8
0
 10
-164.812
 20
32.9941
 11
-164.438
 21
32.9469
  0
LINE
  8
0
 10
-164.438
 20
32.9469
 11
-164.073
 21
32.8532
  0
LINE
  8
0
 10
-164.073
 20
32.8532
 11
-163.723
 21
32.7145
  0
LINE
  8
0
 10
-163.723
 20
32.7145
 11
-163.393
 21
32.533
  0
LINE
  8
0
 10
-163.393
 20
32.533
 11
-163.088
 21
32.3115
  0
LINE
  8
0
 10
-163.088
 20
32.3115
 11
-162.813
 21
32.0536
  0
LINE
  8
0
 10
-162.813
 20
32.0536
 11
-162.573
 21
31.7634
  0
LINE
  8
0
 10
-162.573
 20
31.7634
 11
-162.371
 21
31.4453
  0
LINE
  8
0
 10
-162.371
 20
31.4453
 11
-162.211
 21
31.1044
  0
LINE
  8
0
 10
-162.211
 20
31.1044
 11
-162.094
 21
30.7461
  0
LINE
  8
0
 10
-162.094
 20
30.7461
 11
-162.024
 21
30.376
  0
LINE
  8
0
 10
-162.024
 20
30.376
 11
-162
 21
30
  0
LINE
  8
0
 10
-162
 20
30
 11
-162.024
 21
29.624
  0
LINE
  8
0
 10
-162.024
 20
29.624
 11
-162.094
 21
29.2539
  0
LINE
  8
0
 10
-162.094
 20
29.2539
 11
-162.211
 21
28.8956
  0
ENDSEC
  0
SECTION
  2
OBJECTS
  0
DICTIONARY
  0
ENDSEC
  0
EOF
