  0
SECTION
  2
BLOCKS
  0
ENDSEC
  0
SECTION
  2
ENTITIES
  0
LINE
  8
0
 10
145.437
 20
-111.911
 11
146.045
 21
-111.755
  0
LINE
  8
0
 10
146.045
 20
-111.755
 11
146.629
 21
-111.524
  0
LINE
  8
0
 10
146.629
 20
-111.524
 11
147.179
 21
-111.222
  0
LINE
  8
0
 10
147.179
 20
-111.222
 11
147.687
 21
-110.853
  0
LINE
  8
0
 10
147.687
 20
-110.853
 11
148.145
 21
-110.423
  0
LINE
  8
0
 10
148.145
 20
-110.423
 11
148.545
 21
-109.939
  0
LINE
  8
0
 10
148.545
 20
-109.939
 11
148.882
 21
-109.409
  0
LINE
  8
0
 10
148.882
 20
-109.409
 11
149.149
 21
-108.841
  0
LINE
  8
0
 10
149.149
 20
-108.841
 11
149.343
 21
-108.243
  0
LINE
  8
0
 10
149.343
 20
-108.243
 11
149.461
 21
-107.627
  0
LINE
  8
0
 10
149.461
 20
-107.627
 11
149.5
 21
-107
  0
LINE
  8
0
 10
149.5
 20
-107
 11
149.5
 21
107
  0
LINE
  8
0
 10
149.5
 20
107
 11
149.461
 21
107.627
  0
LINE
  8
0
 10
149.461
 20
107.627
 11
149.343
 21
108.243
  0
LINE
  8
0
 10
149.343
 20
108.243
 11
149.149
 21
108.841
  0
LINE
  8
0
 10
149.149
 20
108.841
 11
148.882
 21
109.409
  0
LINE
  8
0
 10
148.882
 20
109.409
 11
148.545
 21
109.939
  0
LINE
  8
0
 10
148.545
 20
109.939
 11
148.145
 21
110.423
  0
LINE
  8
0
 10
148.145
 20
110.423
 11
147.687
 21
110.853
  0
LINE
  8
0
 10
147.687
 20
110.853
 11
147.179
 21
111.222
  0
LINE
  8
0
 10
147.179
 20
111.222
 11
146.629
 21
111.524
  0
LINE
  8
0
 10
146.629
 20
111.524
 11
146.045
 21
111.755
  0
LINE
  8
0
 10
146.045
 20
111.755
 11
145.437
 21
111.911
  0
LINE
  8
0
 10
145.437
 20
111.911
 11
144.814
 21
111.99
  0
LINE
  8
0
 10
144.814
 20
111.99
 11
-144.814
 21
111.99
  0
LINE
  8
0
 10
-144.814
 20
111.99
 11
-145.437
 21
111.911
  0
LINE
  8
0
 10
-145.437
 20
111.911
 11
-146.045
 21
111.755
  0
LINE
  8
0
 10
-146.045
 20
111.755
 11
-146.629
 21
111.524
  0
LINE
  8
0
 10
-146.629
 20
111.524
 11
-147.179
 21
111.222
  0
LINE
  8
0
 10
-147.179
 20
111.222
 11
-147.687
 21
110.853
  0
LINE
  8
0
 10
-147.687
 20
110.853
 11
-148.145
 21
110.423
  0
LINE
  8
0
 10
-148.145
 20
110.423
 11
-148.545
 21
109.939
  0
LINE
  8
0
 10
-148.545
 20
109.939
 11
-148.882
 21
109.409
  0
LINE
  8
0
 10
-148.882
 20
109.409
 11
-149.149
 21
108.841
  0
LINE
  8
0
 10
-149.149
 20
108.841
 11
-149.343
 21
108.243
  0
LINE
  8
0
 10
-149.343
 20
108.243
 11
-149.461
 21
107.627
  0
LINE
  8
0
 10
-149.461
 20
107.627
 11
-149.5
 21
107
  0
LINE
  8
0
 10
-149.5
 20
107
 11
-149.5
 21
-107
  0
LINE
  8
0
 10
-149.5
 20
-107
 11
-149.461
 21
-107.627
  0
LINE
  8
0
 10
-149.461
 20
-107.627
 11
-149.343
 21
-108.243
  0
LINE
  8
0
 10
-149.343
 20
-108.243
 11
-149.149
 21
-108.841
  0
LINE
  8
0
 10
-149.149
 20
-108.841
 11
-148.882
 21
-109.409
  0
LINE
  8
0
 10
-148.882
 20
-109.409
 11
-148.545
 21
-109.939
  0
LINE
  8
0
 10
-148.545
 20
-109.939
 11
-148.145
 21
-110.423
  0
LINE
  8
0
 10
-148.145
 20
-110.423
 11
-147.687
 21
-110.853
  0
LINE
  8
0
 10
-147.687
 20
-110.853
 11
-147.179
 21
-111.222
  0
LINE
  8
0
 10
-147.179
 20
-111.222
 11
-146.629
 21
-111.524
  0
LINE
  8
0
 10
-146.629
 20
-111.524
 11
-146.045
 21
-111.755
  0
LINE
  8
0
 10
-146.045
 20
-111.755
 11
-145.437
 21
-111.911
  0
LINE
  8
0
 10
-145.437
 20
-111.911
 11
-144.814
 21
-111.99
  0
LINE
  8
0
 10
-144.814
 20
-111.99
 11
144.814
 21
-111.99
  0
LINE
  8
0
 10
144.814
 20
-111.99
 11
145.437
 21
-111.911
  0
LINE
  8
0
 10
142.312
 20
102.006
 11
141.938
 21
102.053
  0
LINE
  8
0
 10
141.938
 20
102.053
 11
141.573
 21
102.147
  0
LINE
  8
0
 10
141.573
 20
102.147
 11
141.223
 21
102.286
  0
LINE
  8
0
 10
141.223
 20
102.286
 11
140.893
 21
102.467
  0
LINE
  8
0
 10
140.893
 20
102.467
 11
140.588
 21
102.688
  0
LINE
  8
0
 10
140.588
 20
102.688
 11
140.313
 21
102.946
  0
LINE
  8
0
 10
140.313
 20
102.946
 11
140.073
 21
103.237
  0
LINE
  8
0
 10
140.073
 20
103.237
 11
139.871
 21
103.555
  0
LINE
  8
0
 10
139.871
 20
103.555
 11
139.711
 21
103.896
  0
LINE
  8
0
 10
139.711
 20
103.896
 11
139.594
 21
104.254
  0
LINE
  8
0
 10
139.594
 20
104.254
 11
139.524
 21
104.624
  0
LINE
  8
0
 10
139.524
 20
104.624
 11
139.5
 21
105
  0
LINE
  8
0
 10
139.5
 20
105
 11
139.524
 21
105.376
  0
LINE
  8
0
 10
139.524
 20
105.376
 11
139.594
 21
105.746
  0
LINE
  8
0
 10
139.594
 20
105.746
 11
139.711
 21
106.104
  0
LINE
  8
0
 10
139.711
 20
106.104
 11
139.871
 21
106.445
  0
LINE
  8
0
 10
139.871
 20
106.445
 11
140.073
 21
106.763
  0
LINE
  8
0
 10
140.073
 20
106.763
 11
140.313
 21
107.054
  0
LINE
  8
0
 10
140.313
 20
107.054
 11
140.588
 21
107.312
  0
LINE
  8
0
 10
140.588
 20
107.312
 11
140.893
 21
107.533
  0
LINE
  8
0
 10
140.893
 20
107.533
 11
141.223
 21
107.714
  0
LINE
  8
0
 10
141.223
 20
107.714
 11
141.573
 21
107.853
  0
LINE
  8
0
 10
141.573
 20
107.853
 11
141.938
 21
107.947
  0
LINE
  8
0
 10
141.938
 20
107.947
 11
142.312
 21
107.994
  0
LINE
  8
0
 10
142.312
 20
107.994
 11
142.688
 21
107.994
  0
LINE
  8
0
 10
142.688
 20
107.994
 11
143.062
 21
107.947
  0
LINE
  8
0
 10
143.062
 20
107.947
 11
143.427
 21
107.853
  0
LINE
  8
0
 10
143.427
 20
107.853
 11
143.777
 21
107.714
  0
LINE
  8
0
 10
143.777
 20
107.714
 11
144.107
 21
107.533
  0
LINE
  8
0
 10
144.107
 20
107.533
 11
144.412
 21
107.312
  0
LINE
  8
0
 10
144.412
 20
107.312
 11
144.687
 21
107.054
  0
LINE
  8
0
 10
144.687
 20
107.054
 11
144.927
 21
106.763
  0
LINE
  8
0
 10
144.927
 20
106.763
 11
145.129
 21
106.445
  0
LINE
  8
0
 10
145.129
 20
106.445
 11
145.289
 21
106.104
  0
LINE
  8
0
 10
145.289
 20
106.104
 11
145.406
 21
105.746
  0
LINE
  8
0
 10
145.406
 20
105.746
 11
145.476
 21
105.376
  0
LINE
  8
0
 10
145.476
 20
105.376
 11
145.5
 21
105
  0
LINE
  8
0
 10
145.5
 20
105
 11
145.476
 21
104.624
  0
LINE
  8
0
 10
145.476
 20
104.624
 11
145.406
 21
104.254
  0
LINE
  8
0
 10
145.406
 20
104.254
 11
145.289
 21
103.896
  0
LINE
  8
0
 10
145.289
 20
103.896
 11
145.129
 21
103.555
  0
LINE
  8
0
 10
145.129
 20
103.555
 11
144.927
 21
103.237
  0
LINE
  8
0
 10
144.927
 20
103.237
 11
144.687
 21
102.946
  0
LINE
  8
0
 10
144.687
 20
102.946
 11
144.412
 21
102.688
  0
LINE
  8
0
 10
144.412
 20
102.688
 11
144.107
 21
102.467
  0
LINE
  8
0
 10
144.107
 20
102.467
 11
143.777
 21
102.286
  0
LINE
  8
0
 10
143.777
 20
102.286
 11
143.427
 21
102.147
  0
LINE
  8
0
 10
143.427
 20
102.147
 11
143.062
 21
102.053
  0
LINE
  8
0
 10
143.062
 20
102.053
 11
142.688
 21
102.006
  0
LINE
  8
0
 10
142.688
 20
102.006
 11
142.312
 21
102.006
  0
LINE
  8
0
 10
-142.688
 20
102.006
 11
-143.062
 21
102.053
  0
LINE
  8
0
 10
-143.062
 20
102.053
 11
-143.427
 21
102.147
  0
LINE
  8
0
 10
-143.427
 20
102.147
 11
-143.777
 21
102.286
  0
LINE
  8
0
 10
-143.777
 20
102.286
 11
-144.107
 21
102.467
  0
LINE
  8
0
 10
-144.107
 20
102.467
 11
-144.412
 21
102.688
  0
LINE
  8
0
 10
-144.412
 20
102.688
 11
-144.687
 21
102.946
  0
LINE
  8
0
 10
-144.687
 20
102.946
 11
-144.927
 21
103.237
  0
LINE
  8
0
 10
-144.927
 20
103.237
 11
-145.129
 21
103.555
  0
LINE
  8
0
 10
-145.129
 20
103.555
 11
-145.289
 21
103.896
  0
LINE
  8
0
 10
-145.289
 20
103.896
 11
-145.406
 21
104.254
  0
LINE
  8
0
 10
-145.406
 20
104.254
 11
-145.476
 21
104.624
  0
LINE
  8
0
 10
-145.476
 20
104.624
 11
-145.5
 21
105
  0
LINE
  8
0
 10
-145.5
 20
105
 11
-145.476
 21
105.376
  0
LINE
  8
0
 10
-145.476
 20
105.376
 11
-145.406
 21
105.746
  0
LINE
  8
0
 10
-145.406
 20
105.746
 11
-145.289
 21
106.104
  0
LINE
  8
0
 10
-145.289
 20
106.104
 11
-145.129
 21
106.445
  0
LINE
  8
0
 10
-145.129
 20
106.445
 11
-144.927
 21
106.763
  0
LINE
  8
0
 10
-144.927
 20
106.763
 11
-144.687
 21
107.054
  0
LINE
  8
0
 10
-144.687
 20
107.054
 11
-144.412
 21
107.312
  0
LINE
  8
0
 10
-144.412
 20
107.312
 11
-144.107
 21
107.533
  0
LINE
  8
0
 10
-144.107
 20
107.533
 11
-143.777
 21
107.714
  0
LINE
  8
0
 10
-143.777
 20
107.714
 11
-143.427
 21
107.853
  0
LINE
  8
0
 10
-143.427
 20
107.853
 11
-143.062
 21
107.947
  0
LINE
  8
0
 10
-143.062
 20
107.947
 11
-142.688
 21
107.994
  0
LINE
  8
0
 10
-142.688
 20
107.994
 11
-142.312
 21
107.994
  0
LINE
  8
0
 10
-142.312
 20
107.994
 11
-141.938
 21
107.947
  0
LINE
  8
0
 10
-141.938
 20
107.947
 11
-141.573
 21
107.853
  0
LINE
  8
0
 10
-141.573
 20
107.853
 11
-141.223
 21
107.714
  0
LINE
  8
0
 10
-141.223
 20
107.714
 11
-140.893
 21
107.533
  0
LINE
  8
0
 10
-140.893
 20
107.533
 11
-140.588
 21
107.312
  0
LINE
  8
0
 10
-140.588
 20
107.312
 11
-140.313
 21
107.054
  0
LINE
  8
0
 10
-140.313
 20
107.054
 11
-140.073
 21
106.763
  0
LINE
  8
0
 10
-140.073
 20
106.763
 11
-139.871
 21
106.445
  0
LINE
  8
0
 10
-139.871
 20
106.445
 11
-139.711
 21
106.104
  0
LINE
  8
0
 10
-139.711
 20
106.104
 11
-139.594
 21
105.746
  0
LINE
  8
0
 10
-139.594
 20
105.746
 11
-139.524
 21
105.376
  0
LINE
  8
0
 10
-139.524
 20
105.376
 11
-139.5
 21
105
  0
LINE
  8
0
 10
-139.5
 20
105
 11
-139.524
 21
104.624
  0
LINE
  8
0
 10
-139.524
 20
104.624
 11
-139.594
 21
104.254
  0
LINE
  8
0
 10
-139.594
 20
104.254
 11
-139.711
 21
103.896
  0
LINE
  8
0
 10
-139.711
 20
103.896
 11
-139.871
 21
103.555
  0
LINE
  8
0
 10
-139.871
 20
103.555
 11
-140.073
 21
103.237
  0
LINE
  8
0
 10
-140.073
 20
103.237
 11
-140.313
 21
102.946
  0
LINE
  8
0
 10
-140.313
 20
102.946
 11
-140.588
 21
102.688
  0
LINE
  8
0
 10
-140.588
 20
102.688
 11
-140.893
 21
102.467
  0
LINE
  8
0
 10
-140.893
 20
102.467
 11
-141.223
 21
102.286
  0
LINE
  8
0
 10
-141.223
 20
102.286
 11
-141.573
 21
102.147
  0
LINE
  8
0
 10
-141.573
 20
102.147
 11
-141.938
 21
102.053
  0
LINE
  8
0
 10
-141.938
 20
102.053
 11
-142.312
 21
102.006
  0
LINE
  8
0
 10
-142.312
 20
102.006
 11
-142.688
 21
102.006
  0
LINE
  8
0
 10
142.312
 20
-107.994
 11
141.938
 21
-107.947
  0
LINE
  8
0
 10
141.938
 20
-107.947
 11
141.573
 21
-107.853
  0
LINE
  8
0
 10
141.573
 20
-107.853
 11
141.223
 21
-107.714
  0
LINE
  8
0
 10
141.223
 20
-107.714
 11
140.893
 21
-107.533
  0
LINE
  8
0
 10
140.893
 20
-107.533
 11
140.588
 21
-107.312
  0
LINE
  8
0
 10
140.588
 20
-107.312
 11
140.313
 21
-107.054
  0
LINE
  8
0
 10
140.313
 20
-107.054
 11
140.073
 21
-106.763
  0
LINE
  8
0
 10
140.073
 20
-106.763
 11
139.871
 21
-106.445
  0
LINE
  8
0
 10
139.871
 20
-106.445
 11
139.711
 21
-106.104
  0
LINE
  8
0
 10
139.711
 20
-106.104
 11
139.594
 21
-105.746
  0
LINE
  8
0
 10
139.594
 20
-105.746
 11
139.524
 21
-105.376
  0
LINE
  8
0
 10
139.524
 20
-105.376
 11
139.5
 21
-105
  0
LINE
  8
0
 10
139.5
 20
-105
 11
139.524
 21
-104.624
  0
LINE
  8
0
 10
139.524
 20
-104.624
 11
139.594
 21
-104.254
  0
LINE
  8
0
 10
139.594
 20
-104.254
 11
139.711
 21
-103.896
  0
LINE
  8
0
 10
139.711
 20
-103.896
 11
139.871
 21
-103.555
  0
LINE
  8
0
 10
139.871
 20
-103.555
 11
140.073
 21
-103.237
  0
LINE
  8
0
 10
140.073
 20
-103.237
 11
140.313
 21
-102.946
  0
LINE
  8
0
 10
140.313
 20
-102.946
 11
140.588
 21
-102.688
  0
LINE
  8
0
 10
140.588
 20
-102.688
 11
140.893
 21
-102.467
  0
LINE
  8
0
 10
140.893
 20
-102.467
 11
141.223
 21
-102.286
  0
LINE
  8
0
 10
141.223
 20
-102.286
 11
141.573
 21
-102.147
  0
LINE
  8
0
 10
141.573
 20
-102.147
 11
141.938
 21
-102.053
  0
LINE
  8
0
 10
141.938
 20
-102.053
 11
142.312
 21
-102.006
  0
LINE
  8
0
 10
142.312
 20
-102.006
 11
142.688
 21
-102.006
  0
LINE
  8
0
 10
142.688
 20
-102.006
 11
143.062
 21
-102.053
  0
LINE
  8
0
 10
143.062
 20
-102.053
 11
143.427
 21
-102.147
  0
LINE
  8
0
 10
143.427
 20
-102.147
 11
143.777
 21
-102.286
  0
LINE
  8
0
 10
143.777
 20
-102.286
 11
144.107
 21
-102.467
  0
LINE
  8
0
 10
144.107
 20
-102.467
 11
144.412
 21
-102.688
  0
LINE
  8
0
 10
144.412
 20
-102.688
 11
144.687
 21
-102.946
  0
LINE
  8
0
 10
144.687
 20
-102.946
 11
144.927
 21
-103.237
  0
LINE
  8
0
 10
144.927
 20
-103.237
 11
145.129
 21
-103.555
  0
LINE
  8
0
 10
145.129
 20
-103.555
 11
145.289
 21
-103.896
  0
LINE
  8
0
 10
145.289
 20
-103.896
 11
145.406
 21
-104.254
  0
LINE
  8
0
 10
145.406
 20
-104.254
 11
145.476
 21
-104.624
  0
LINE
  8
0
 10
145.476
 20
-104.624
 11
145.5
 21
-105
  0
LINE
  8
0
 10
145.5
 20
-105
 11
145.476
 21
-105.376
  0
LINE
  8
0
 10
145.476
 20
-105.376
 11
145.406
 21
-105.746
  0
LINE
  8
0
 10
145.406
 20
-105.746
 11
145.289
 21
-106.104
  0
LINE
  8
0
 10
145.289
 20
-106.104
 11
145.129
 21
-106.445
  0
LINE
  8
0
 10
145.129
 20
-106.445
 11
144.927
 21
-106.763
  0
LINE
  8
0
 10
144.927
 20
-106.763
 11
144.687
 21
-107.054
  0
LINE
  8
0
 10
144.687
 20
-107.054
 11
144.412
 21
-107.312
  0
LINE
  8
0
 10
144.412
 20
-107.312
 11
144.107
 21
-107.533
  0
LINE
  8
0
 10
144.107
 20
-107.533
 11
143.777
 21
-107.714
  0
LINE
  8
0
 10
143.777
 20
-107.714
 11
143.427
 21
-107.853
  0
LINE
  8
0
 10
143.427
 20
-107.853
 11
143.062
 21
-107.947
  0
LINE
  8
0
 10
143.062
 20
-107.947
 11
142.688
 21
-107.994
  0
LINE
  8
0
 10
142.688
 20
-107.994
 11
142.312
 21
-107.994
  0
LINE
  8
0
 10
-142.688
 20
-107.994
 11
-143.062
 21
-107.947
  0
LINE
  8
0
 10
-143.062
 20
-107.947
 11
-143.427
 21
-107.853
  0
LINE
  8
0
 10
-143.427
 20
-107.853
 11
-143.777
 21
-107.714
  0
LINE
  8
0
 10
-143.777
 20
-107.714
 11
-144.107
 21
-107.533
  0
LINE
  8
0
 10
-144.107
 20
-107.533
 11
-144.412
 21
-107.312
  0
LINE
  8
0
 10
-144.412
 20
-107.312
 11
-144.687
 21
-107.054
  0
LINE
  8
0
 10
-144.687
 20
-107.054
 11
-144.927
 21
-106.763
  0
LINE
  8
0
 10
-144.927
 20
-106.763
 11
-145.129
 21
-106.445
  0
LINE
  8
0
 10
-145.129
 20
-106.445
 11
-145.289
 21
-106.104
  0
LINE
  8
0
 10
-145.289
 20
-106.104
 11
-145.406
 21
-105.746
  0
LINE
  8
0
 10
-145.406
 20
-105.746
 11
-145.476
 21
-105.376
  0
LINE
  8
0
 10
-145.476
 20
-105.376
 11
-145.5
 21
-105
  0
LINE
  8
0
 10
-145.5
 20
-105
 11
-145.476
 21
-104.624
  0
LINE
  8
0
 10
-145.476
 20
-104.624
 11
-145.406
 21
-104.254
  0
LINE
  8
0
 10
-145.406
 20
-104.254
 11
-145.289
 21
-103.896
  0
LINE
  8
0
 10
-145.289
 20
-103.896
 11
-145.129
 21
-103.555
  0
LINE
  8
0
 10
-145.129
 20
-103.555
 11
-144.927
 21
-103.237
  0
LINE
  8
0
 10
-144.927
 20
-103.237
 11
-144.687
 21
-102.946
  0
LINE
  8
0
 10
-144.687
 20
-102.946
 11
-144.412
 21
-102.688
  0
LINE
  8
0
 10
-144.412
 20
-102.688
 11
-144.107
 21
-102.467
  0
LINE
  8
0
 10
-144.107
 20
-102.467
 11
-143.777
 21
-102.286
  0
LINE
  8
0
 10
-143.777
 20
-102.286
 11
-143.427
 21
-102.147
  0
LINE
  8
0
 10
-143.427
 20
-102.147
 11
-143.062
 21
-102.053
  0
LINE
  8
0
 10
-143.062
 20
-102.053
 11
-142.688
 21
-102.006
  0
LINE
  8
0
 10
-142.688
 20
-102.006
 11
-142.312
 21
-102.006
  0
LINE
  8
0
 10
-142.312
 20
-102.006
 11
-141.938
 21
-102.053
  0
LINE
  8
0
 10
-141.938
 20
-102.053
 11
-141.573
 21
-102.147
  0
LINE
  8
0
 10
-141.573
 20
-102.147
 11
-141.223
 21
-102.286
  0
LINE
  8
0
 10
-141.223
 20
-102.286
 11
-140.893
 21
-102.467
  0
LINE
  8
0
 10
-140.893
 20
-102.467
 11
-140.588
 21
-102.688
  0
LINE
  8
0
 10
-140.588
 20
-102.688
 11
-140.313
 21
-102.946
  0
LINE
  8
0
 10
-140.313
 20
-102.946
 11
-140.073
 21
-103.237
  0
LINE
  8
0
 10
-140.073
 20
-103.237
 11
-139.871
 21
-103.555
  0
LINE
  8
0
 10
-139.871
 20
-103.555
 11
-139.711
 21
-103.896
  0
LINE
  8
0
 10
-139.711
 20
-103.896
 11
-139.594
 21
-104.254
  0
LINE
  8
0
 10
-139.594
 20
-104.254
 11
-139.524
 21
-104.624
  0
LINE
  8
0
 10
-139.524
 20
-104.624
 11
-139.5
 21
-105
  0
LINE
  8
0
 10
-139.5
 20
-105
 11
-139.524
 21
-105.376
  0
LINE
  8
0
 10
-139.524
 20
-105.376
 11
-139.594
 21
-105.746
  0
LINE
  8
0
 10
-139.594
 20
-105.746
 11
-139.711
 21
-106.104
  0
LINE
  8
0
 10
-139.711
 20
-106.104
 11
-139.871
 21
-106.445
  0
LINE
  8
0
 10
-139.871
 20
-106.445
 11
-140.073
 21
-106.763
  0
LINE
  8
0
 10
-140.073
 20
-106.763
 11
-140.313
 21
-107.054
  0
LINE
  8
0
 10
-140.313
 20
-107.054
 11
-140.588
 21
-107.312
  0
LINE
  8
0
 10
-140.588
 20
-107.312
 11
-140.893
 21
-107.533
  0
LINE
  8
0
 10
-140.893
 20
-107.533
 11
-141.223
 21
-107.714
  0
LINE
  8
0
 10
-141.223
 20
-107.714
 11
-141.573
 21
-107.853
  0
LINE
  8
0
 10
-141.573
 20
-107.853
 11
-141.938
 21
-107.947
  0
LINE
  8
0
 10
-141.938
 20
-107.947
 11
-142.312
 21
-107.994
  0
LINE
  8
0
 10
-142.312
 20
-107.994
 11
-142.688
 21
-107.994
  0
ENDSEC
  0
SECTION
  2
OBJECTS
  0
DICTIONARY
  0
ENDSEC
  0
EOF
