solid OpenSCAD_Model
  facet normal 0.950603 -0.310411 0
    outer loop
      vertex -107.906 0.746069 6
      vertex -107.789 1.10437 0
      vertex -107.789 1.10437 6
    endloop
  endfacet
  facet normal 0.950603 -0.310411 0
    outer loop
      vertex -107.789 1.10437 0
      vertex -107.906 0.746069 6
      vertex -107.906 0.746069 0
    endloop
  endfacet
  facet normal -0.844175 -0.536068 0
    outer loop
      vertex -102.371 1.44526 0
      vertex -102.573 1.76336 6
      vertex -102.573 1.76336 0
    endloop
  endfacet
  facet normal -0.844175 -0.536068 0
    outer loop
      vertex -102.573 1.76336 6
      vertex -102.371 1.44526 0
      vertex -102.371 1.44526 6
    endloop
  endfacet
  facet normal -0.368389 -0.929672 0
    outer loop
      vertex -104.073 2.85317 0
      vertex -103.723 2.71448 6
      vertex -104.073 2.85317 6
    endloop
  endfacet
  facet normal -0.368389 -0.929672 -0
    outer loop
      vertex -103.723 2.71448 6
      vertex -104.073 2.85317 0
      vertex -103.723 2.71448 0
    endloop
  endfacet
  facet normal 0.368389 -0.929672 0
    outer loop
      vertex -106.277 2.71448 0
      vertex -105.927 2.85317 6
      vertex -106.277 2.71448 6
    endloop
  endfacet
  facet normal 0.368389 -0.929672 0
    outer loop
      vertex -105.927 2.85317 6
      vertex -106.277 2.71448 0
      vertex -105.927 2.85317 0
    endloop
  endfacet
  facet normal 0.905247 -0.424886 0
    outer loop
      vertex -107.789 1.10437 6
      vertex -107.629 1.44526 0
      vertex -107.629 1.44526 6
    endloop
  endfacet
  facet normal 0.905247 -0.424886 0
    outer loop
      vertex -107.629 1.44526 0
      vertex -107.789 1.10437 6
      vertex -107.789 1.10437 0
    endloop
  endfacet
  facet normal -0.982577 0.185858 0
    outer loop
      vertex -102.094 -0.746069 0
      vertex -102.024 -0.375999 6
      vertex -102.024 -0.375999 0
    endloop
  endfacet
  facet normal -0.982577 0.185858 0
    outer loop
      vertex -102.024 -0.375999 6
      vertex -102.094 -0.746069 0
      vertex -102.094 -0.746069 6
    endloop
  endfacet
  facet normal -0.684065 -0.729421 0
    outer loop
      vertex -103.088 2.31154 0
      vertex -102.813 2.05364 6
      vertex -103.088 2.31154 6
    endloop
  endfacet
  facet normal -0.684065 -0.729421 -0
    outer loop
      vertex -102.813 2.05364 6
      vertex -103.088 2.31154 0
      vertex -102.813 2.05364 0
    endloop
  endfacet
  facet normal 0 -1 0
    outer loop
      vertex -105.188 2.99408 0
      vertex -104.812 2.99408 6
      vertex -105.188 2.99408 6
    endloop
  endfacet
  facet normal 0 -1 -0
    outer loop
      vertex -104.812 2.99408 6
      vertex -105.188 2.99408 0
      vertex -104.812 2.99408 0
    endloop
  endfacet
  facet normal -0.587515 -0.809213 0
    outer loop
      vertex -103.393 2.53298 0
      vertex -103.088 2.31154 6
      vertex -103.393 2.53298 6
    endloop
  endfacet
  facet normal -0.587515 -0.809213 -0
    outer loop
      vertex -103.088 2.31154 6
      vertex -103.393 2.53298 0
      vertex -103.088 2.31154 0
    endloop
  endfacet
  facet normal 0.982577 -0.185858 0
    outer loop
      vertex -107.976 0.375999 6
      vertex -107.906 0.746069 0
      vertex -107.906 0.746069 6
    endloop
  endfacet
  facet normal 0.982577 -0.185858 0
    outer loop
      vertex -107.906 0.746069 0
      vertex -107.976 0.375999 6
      vertex -107.976 0.375999 0
    endloop
  endfacet
  facet normal 0.770696 -0.637202 0
    outer loop
      vertex -107.427 1.76336 6
      vertex -107.187 2.05364 0
      vertex -107.187 2.05364 6
    endloop
  endfacet
  facet normal 0.770696 -0.637202 0
    outer loop
      vertex -107.187 2.05364 0
      vertex -107.427 1.76336 6
      vertex -107.427 1.76336 0
    endloop
  endfacet
  facet normal 0.248625 -0.9686 0
    outer loop
      vertex -105.927 2.85317 0
      vertex -105.562 2.94686 6
      vertex -105.927 2.85317 6
    endloop
  endfacet
  facet normal 0.248625 -0.9686 0
    outer loop
      vertex -105.562 2.94686 6
      vertex -105.927 2.85317 0
      vertex -105.562 2.94686 0
    endloop
  endfacet
  facet normal 0.684065 -0.729421 0
    outer loop
      vertex -107.187 2.05364 0
      vertex -106.912 2.31154 6
      vertex -107.187 2.05364 6
    endloop
  endfacet
  facet normal 0.684065 -0.729421 0
    outer loop
      vertex -106.912 2.31154 6
      vertex -107.187 2.05364 0
      vertex -106.912 2.31154 0
    endloop
  endfacet
  facet normal -0.997969 -0.0637003 0
    outer loop
      vertex -102 0 0
      vertex -102.024 0.375999 6
      vertex -102.024 0.375999 0
    endloop
  endfacet
  facet normal -0.997969 -0.0637003 0
    outer loop
      vertex -102.024 0.375999 6
      vertex -102 0 0
      vertex -102 0 6
    endloop
  endfacet
  facet normal -0.481919 0.876216 0
    outer loop
      vertex -103.393 -2.53298 0
      vertex -103.723 -2.71448 6
      vertex -103.393 -2.53298 6
    endloop
  endfacet
  facet normal -0.481919 0.876216 0
    outer loop
      vertex -103.723 -2.71448 6
      vertex -103.393 -2.53298 0
      vertex -103.723 -2.71448 0
    endloop
  endfacet
  facet normal -0.770696 -0.637202 0
    outer loop
      vertex -102.573 1.76336 0
      vertex -102.813 2.05364 6
      vertex -102.813 2.05364 0
    endloop
  endfacet
  facet normal -0.770696 -0.637202 0
    outer loop
      vertex -102.813 2.05364 6
      vertex -102.573 1.76336 0
      vertex -102.573 1.76336 6
    endloop
  endfacet
  facet normal -0.248625 -0.9686 0
    outer loop
      vertex -104.438 2.94686 0
      vertex -104.073 2.85317 6
      vertex -104.438 2.94686 6
    endloop
  endfacet
  facet normal -0.248625 -0.9686 -0
    outer loop
      vertex -104.073 2.85317 6
      vertex -104.438 2.94686 0
      vertex -104.073 2.85317 0
    endloop
  endfacet
  facet normal -0.125262 -0.992124 0
    outer loop
      vertex -104.812 2.99408 0
      vertex -104.438 2.94686 6
      vertex -104.812 2.99408 6
    endloop
  endfacet
  facet normal -0.125262 -0.992124 -0
    outer loop
      vertex -104.438 2.94686 6
      vertex -104.812 2.99408 0
      vertex -104.438 2.94686 0
    endloop
  endfacet
  facet normal -0.481919 -0.876216 0
    outer loop
      vertex -103.723 2.71448 0
      vertex -103.393 2.53298 6
      vertex -103.723 2.71448 6
    endloop
  endfacet
  facet normal -0.481919 -0.876216 -0
    outer loop
      vertex -103.393 2.53298 6
      vertex -103.723 2.71448 0
      vertex -103.393 2.53298 0
    endloop
  endfacet
  facet normal 0.997969 -0.0637003 0
    outer loop
      vertex -108 0 6
      vertex -107.976 0.375999 0
      vertex -107.976 0.375999 6
    endloop
  endfacet
  facet normal 0.997969 -0.0637003 0
    outer loop
      vertex -107.976 0.375999 0
      vertex -108 0 6
      vertex -108 0 0
    endloop
  endfacet
  facet normal 0 0 1
    outer loop
      vertex 107.314 6.99013 6
      vertex 112 2 6
      vertex 111.961 2.62667 6
    endloop
  endfacet
  facet normal 0 0 1
    outer loop
      vertex 112 2 6
      vertex 107.314 6.99013 6
      vertex 112 -2 6
    endloop
  endfacet
  facet normal 0 0 1
    outer loop
      vertex 107.314 6.99013 6
      vertex 111.961 2.62667 6
      vertex 111.843 3.24345 6
    endloop
  endfacet
  facet normal 0 0 1
    outer loop
      vertex 107.314 -6.99013 6
      vertex 112 -2 6
      vertex 107.314 6.99013 6
    endloop
  endfacet
  facet normal 0 0 1
    outer loop
      vertex 107.314 6.99013 6
      vertex 111.843 3.24345 6
      vertex 111.649 3.84062 6
    endloop
  endfacet
  facet normal 0 0 1
    outer loop
      vertex 112 -2 6
      vertex 107.314 -6.99013 6
      vertex 111.961 -2.62667 6
    endloop
  endfacet
  facet normal 0 0 1
    outer loop
      vertex 107.314 6.99013 6
      vertex 111.649 3.84062 6
      vertex 111.382 4.40877 6
    endloop
  endfacet
  facet normal 0 0 1
    outer loop
      vertex 111.961 -2.62667 6
      vertex 107.314 -6.99013 6
      vertex 111.843 -3.24345 6
    endloop
  endfacet
  facet normal 0 0 1
    outer loop
      vertex 107.314 6.99013 6
      vertex 111.382 4.40877 6
      vertex 111.045 4.93893 6
    endloop
  endfacet
  facet normal 0 0 1
    outer loop
      vertex 111.843 -3.24345 6
      vertex 107.314 -6.99013 6
      vertex 111.649 -3.84062 6
    endloop
  endfacet
  facet normal 0 0 1
    outer loop
      vertex 107.314 6.99013 6
      vertex 111.045 4.93893 6
      vertex 110.645 5.42274 6
    endloop
  endfacet
  facet normal 0 0 1
    outer loop
      vertex 111.649 -3.84062 6
      vertex 107.314 -6.99013 6
      vertex 111.382 -4.40877 6
    endloop
  endfacet
  facet normal 0 0 1
    outer loop
      vertex 107.314 6.99013 6
      vertex 110.645 5.42274 6
      vertex 110.187 5.85257 6
    endloop
  endfacet
  facet normal 0 0 1
    outer loop
      vertex 111.382 -4.40877 6
      vertex 107.314 -6.99013 6
      vertex 111.045 -4.93893 6
    endloop
  endfacet
  facet normal 0 0 1
    outer loop
      vertex 107.314 6.99013 6
      vertex 110.187 5.85257 6
      vertex 109.679 6.22164 6
    endloop
  endfacet
  facet normal 0 0 1
    outer loop
      vertex 111.045 -4.93893 6
      vertex 107.314 -6.99013 6
      vertex 110.645 -5.42274 6
    endloop
  endfacet
  facet normal 0 0 1
    outer loop
      vertex 107.314 6.99013 6
      vertex 109.679 6.22164 6
      vertex 109.129 6.52413 6
    endloop
  endfacet
  facet normal 0 0 1
    outer loop
      vertex 110.645 -5.42274 6
      vertex 107.314 -6.99013 6
      vertex 110.187 -5.85257 6
    endloop
  endfacet
  facet normal 0 0 1
    outer loop
      vertex 107.314 6.99013 6
      vertex 109.129 6.52413 6
      vertex 108.545 6.75528 6
    endloop
  endfacet
  facet normal 0 0 1
    outer loop
      vertex 110.187 -5.85257 6
      vertex 107.314 -6.99013 6
      vertex 109.679 -6.22164 6
    endloop
  endfacet
  facet normal 0 0 1
    outer loop
      vertex 107.314 6.99013 6
      vertex 108.545 6.75528 6
      vertex 107.937 6.91144 6
    endloop
  endfacet
  facet normal 0 0 1
    outer loop
      vertex 109.679 -6.22164 6
      vertex 107.314 -6.99013 6
      vertex 109.129 -6.52413 6
    endloop
  endfacet
  facet normal 0 0 1
    outer loop
      vertex 109.129 -6.52413 6
      vertex 107.314 -6.99013 6
      vertex 108.545 -6.75528 6
    endloop
  endfacet
  facet normal 0 0 1
    outer loop
      vertex 108.545 -6.75528 6
      vertex 107.314 -6.99013 6
      vertex 107.937 -6.91144 6
    endloop
  endfacet
  facet normal 0 0 1
    outer loop
      vertex 107.314 6.99013 6
      vertex -102 0 6
      vertex 107.314 -6.99013 6
    endloop
  endfacet
  facet normal 0 0 1
    outer loop
      vertex 107.314 6.99013 6
      vertex -102.024 0.375999 6
      vertex -102 0 6
    endloop
  endfacet
  facet normal 0 0 1
    outer loop
      vertex 107.314 6.99013 6
      vertex -102.094 0.746069 6
      vertex -102.024 0.375999 6
    endloop
  endfacet
  facet normal 0 0 1
    outer loop
      vertex 107.314 6.99013 6
      vertex -102.211 1.10437 6
      vertex -102.094 0.746069 6
    endloop
  endfacet
  facet normal 0 0 1
    outer loop
      vertex 107.314 6.99013 6
      vertex -102.371 1.44526 6
      vertex -102.211 1.10437 6
    endloop
  endfacet
  facet normal 0 0 1
    outer loop
      vertex 107.314 6.99013 6
      vertex -102.573 1.76336 6
      vertex -102.371 1.44526 6
    endloop
  endfacet
  facet normal 0 0 1
    outer loop
      vertex 107.314 6.99013 6
      vertex -102.813 2.05364 6
      vertex -102.573 1.76336 6
    endloop
  endfacet
  facet normal -0 0 1
    outer loop
      vertex -107.314 6.99013 6
      vertex -102.813 2.05364 6
      vertex 107.314 6.99013 6
    endloop
  endfacet
  facet normal 0 0 1
    outer loop
      vertex -102.813 2.05364 6
      vertex -107.314 6.99013 6
      vertex -103.088 2.31154 6
    endloop
  endfacet
  facet normal 0 0 1
    outer loop
      vertex -103.088 2.31154 6
      vertex -107.314 6.99013 6
      vertex -103.393 2.53298 6
    endloop
  endfacet
  facet normal 0 0 1
    outer loop
      vertex -103.393 2.53298 6
      vertex -107.314 6.99013 6
      vertex -103.723 2.71448 6
    endloop
  endfacet
  facet normal 0 0 1
    outer loop
      vertex -103.723 2.71448 6
      vertex -107.314 6.99013 6
      vertex -104.073 2.85317 6
    endloop
  endfacet
  facet normal 0 0 1
    outer loop
      vertex -104.073 2.85317 6
      vertex -107.314 6.99013 6
      vertex -104.438 2.94686 6
    endloop
  endfacet
  facet normal 0 0 1
    outer loop
      vertex -104.438 2.94686 6
      vertex -107.314 6.99013 6
      vertex -104.812 2.99408 6
    endloop
  endfacet
  facet normal 0 0 1
    outer loop
      vertex -104.812 2.99408 6
      vertex -107.314 6.99013 6
      vertex -105.188 2.99408 6
    endloop
  endfacet
  facet normal 0 0 1
    outer loop
      vertex -107.314 6.99013 6
      vertex -105.562 2.94686 6
      vertex -105.188 2.99408 6
    endloop
  endfacet
  facet normal 0 0 1
    outer loop
      vertex -107.314 6.99013 6
      vertex -105.927 2.85317 6
      vertex -105.562 2.94686 6
    endloop
  endfacet
  facet normal 0 0 1
    outer loop
      vertex -107.314 6.99013 6
      vertex -106.277 2.71448 6
      vertex -105.927 2.85317 6
    endloop
  endfacet
  facet normal -0 0 1
    outer loop
      vertex -107.937 6.91144 6
      vertex -106.277 2.71448 6
      vertex -107.314 6.99013 6
    endloop
  endfacet
  facet normal 0 0 1
    outer loop
      vertex -106.277 2.71448 6
      vertex -107.937 6.91144 6
      vertex -106.607 2.53298 6
    endloop
  endfacet
  facet normal -0 0 1
    outer loop
      vertex -108.545 6.75528 6
      vertex -106.607 2.53298 6
      vertex -107.937 6.91144 6
    endloop
  endfacet
  facet normal -0 0 1
    outer loop
      vertex -109.129 6.52413 6
      vertex -106.607 2.53298 6
      vertex -108.545 6.75528 6
    endloop
  endfacet
  facet normal 0 0 1
    outer loop
      vertex -106.607 2.53298 6
      vertex -109.129 6.52413 6
      vertex -106.912 2.31154 6
    endloop
  endfacet
  facet normal -0 0 1
    outer loop
      vertex -109.679 6.22164 6
      vertex -106.912 2.31154 6
      vertex -109.129 6.52413 6
    endloop
  endfacet
  facet normal -0 0 1
    outer loop
      vertex -110.187 5.85257 6
      vertex -106.912 2.31154 6
      vertex -109.679 6.22164 6
    endloop
  endfacet
  facet normal 0 0 1
    outer loop
      vertex -106.912 2.31154 6
      vertex -110.187 5.85257 6
      vertex -107.187 2.05364 6
    endloop
  endfacet
  facet normal -0 0 1
    outer loop
      vertex -110.645 5.42274 6
      vertex -107.187 2.05364 6
      vertex -110.187 5.85257 6
    endloop
  endfacet
  facet normal -0 0 1
    outer loop
      vertex -111.045 4.93893 6
      vertex -107.187 2.05364 6
      vertex -110.645 5.42274 6
    endloop
  endfacet
  facet normal 0 0 1
    outer loop
      vertex -107.187 2.05364 6
      vertex -111.045 4.93893 6
      vertex -107.427 1.76336 6
    endloop
  endfacet
  facet normal -0 0 1
    outer loop
      vertex -102.024 -0.375999 6
      vertex 107.314 -6.99013 6
      vertex -102 0 6
    endloop
  endfacet
  facet normal -0 0 1
    outer loop
      vertex -102.094 -0.746069 6
      vertex 107.314 -6.99013 6
      vertex -102.024 -0.375999 6
    endloop
  endfacet
  facet normal -0 0 1
    outer loop
      vertex -102.211 -1.10437 6
      vertex 107.314 -6.99013 6
      vertex -102.094 -0.746069 6
    endloop
  endfacet
  facet normal -0 0 1
    outer loop
      vertex -102.371 -1.44526 6
      vertex 107.314 -6.99013 6
      vertex -102.211 -1.10437 6
    endloop
  endfacet
  facet normal -0 0 1
    outer loop
      vertex -102.573 -1.76336 6
      vertex 107.314 -6.99013 6
      vertex -102.371 -1.44526 6
    endloop
  endfacet
  facet normal -0 0 1
    outer loop
      vertex -102.813 -2.05364 6
      vertex 107.314 -6.99013 6
      vertex -102.573 -1.76336 6
    endloop
  endfacet
  facet normal 0 0 1
    outer loop
      vertex -107.314 -6.99013 6
      vertex -102.813 -2.05364 6
      vertex -103.088 -2.31154 6
    endloop
  endfacet
  facet normal 0 0 1
    outer loop
      vertex -107.314 -6.99013 6
      vertex -103.088 -2.31154 6
      vertex -103.393 -2.53298 6
    endloop
  endfacet
  facet normal 0 0 1
    outer loop
      vertex -107.314 -6.99013 6
      vertex -103.393 -2.53298 6
      vertex -103.723 -2.71448 6
    endloop
  endfacet
  facet normal 0 0 1
    outer loop
      vertex -107.314 -6.99013 6
      vertex -103.723 -2.71448 6
      vertex -104.073 -2.85317 6
    endloop
  endfacet
  facet normal 0 0 1
    outer loop
      vertex -107.314 -6.99013 6
      vertex -104.073 -2.85317 6
      vertex -104.438 -2.94686 6
    endloop
  endfacet
  facet normal 0 0 1
    outer loop
      vertex -107.314 -6.99013 6
      vertex -104.438 -2.94686 6
      vertex -104.812 -2.99408 6
    endloop
  endfacet
  facet normal 0 0 1
    outer loop
      vertex -107.314 -6.99013 6
      vertex -104.812 -2.99408 6
      vertex -105.188 -2.99408 6
    endloop
  endfacet
  facet normal 0 0 1
    outer loop
      vertex -102.813 -2.05364 6
      vertex -107.314 -6.99013 6
      vertex 107.314 -6.99013 6
    endloop
  endfacet
  facet normal 0 0 1
    outer loop
      vertex -105.562 -2.94686 6
      vertex -107.314 -6.99013 6
      vertex -105.188 -2.99408 6
    endloop
  endfacet
  facet normal 0 0 1
    outer loop
      vertex -105.927 -2.85317 6
      vertex -107.314 -6.99013 6
      vertex -105.562 -2.94686 6
    endloop
  endfacet
  facet normal 0 0 1
    outer loop
      vertex -106.277 -2.71448 6
      vertex -107.314 -6.99013 6
      vertex -105.927 -2.85317 6
    endloop
  endfacet
  facet normal 0 0 1
    outer loop
      vertex -107.937 -6.91144 6
      vertex -106.277 -2.71448 6
      vertex -106.607 -2.53298 6
    endloop
  endfacet
  facet normal 0 0 1
    outer loop
      vertex -109.129 -6.52413 6
      vertex -106.607 -2.53298 6
      vertex -106.912 -2.31154 6
    endloop
  endfacet
  facet normal 0 0 1
    outer loop
      vertex -110.187 -5.85257 6
      vertex -106.912 -2.31154 6
      vertex -107.187 -2.05364 6
    endloop
  endfacet
  facet normal 0 0 1
    outer loop
      vertex -111.045 -4.93893 6
      vertex -107.187 -2.05364 6
      vertex -107.427 -1.76336 6
    endloop
  endfacet
  facet normal 0 0 1
    outer loop
      vertex -111.649 -3.84062 6
      vertex -107.427 -1.76336 6
      vertex -107.629 -1.44526 6
    endloop
  endfacet
  facet normal 0 0 1
    outer loop
      vertex -111.961 -2.62667 6
      vertex -107.629 -1.44526 6
      vertex -107.789 -1.10437 6
    endloop
  endfacet
  facet normal 0 0 1
    outer loop
      vertex -112 -2 6
      vertex -107.789 -1.10437 6
      vertex -107.906 -0.746069 6
    endloop
  endfacet
  facet normal 0 0 1
    outer loop
      vertex -106.277 -2.71448 6
      vertex -107.937 -6.91144 6
      vertex -107.314 -6.99013 6
    endloop
  endfacet
  facet normal 0 0 1
    outer loop
      vertex -112 -2 6
      vertex -107.906 -0.746069 6
      vertex -107.976 -0.375999 6
    endloop
  endfacet
  facet normal 0 0 1
    outer loop
      vertex -112 -2 6
      vertex -107.976 -0.375999 6
      vertex -108 0 6
    endloop
  endfacet
  facet normal -0 0 1
    outer loop
      vertex -111.382 4.40877 6
      vertex -107.427 1.76336 6
      vertex -111.045 4.93893 6
    endloop
  endfacet
  facet normal 0 0 1
    outer loop
      vertex -112 -2 6
      vertex -108 0 6
      vertex -112 2 6
    endloop
  endfacet
  facet normal -0 0 1
    outer loop
      vertex -111.649 3.84062 6
      vertex -107.427 1.76336 6
      vertex -111.382 4.40877 6
    endloop
  endfacet
  facet normal 0 0 1
    outer loop
      vertex -107.789 -1.10437 6
      vertex -112 -2 6
      vertex -111.961 -2.62667 6
    endloop
  endfacet
  facet normal 0 0 1
    outer loop
      vertex -107.427 1.76336 6
      vertex -111.649 3.84062 6
      vertex -107.629 1.44526 6
    endloop
  endfacet
  facet normal 0 0 1
    outer loop
      vertex -106.607 -2.53298 6
      vertex -108.545 -6.75528 6
      vertex -107.937 -6.91144 6
    endloop
  endfacet
  facet normal -0 0 1
    outer loop
      vertex -111.843 3.24345 6
      vertex -107.629 1.44526 6
      vertex -111.649 3.84062 6
    endloop
  endfacet
  facet normal 0 0 1
    outer loop
      vertex -106.607 -2.53298 6
      vertex -109.129 -6.52413 6
      vertex -108.545 -6.75528 6
    endloop
  endfacet
  facet normal -0 0 1
    outer loop
      vertex -111.961 2.62667 6
      vertex -107.629 1.44526 6
      vertex -111.843 3.24345 6
    endloop
  endfacet
  facet normal 0 0 1
    outer loop
      vertex -106.912 -2.31154 6
      vertex -109.679 -6.22164 6
      vertex -109.129 -6.52413 6
    endloop
  endfacet
  facet normal 0 0 1
    outer loop
      vertex -107.629 1.44526 6
      vertex -111.961 2.62667 6
      vertex -107.789 1.10437 6
    endloop
  endfacet
  facet normal 0 0 1
    outer loop
      vertex -106.912 -2.31154 6
      vertex -110.187 -5.85257 6
      vertex -109.679 -6.22164 6
    endloop
  endfacet
  facet normal -0 0 1
    outer loop
      vertex -112 2 6
      vertex -107.789 1.10437 6
      vertex -111.961 2.62667 6
    endloop
  endfacet
  facet normal 0 0 1
    outer loop
      vertex -107.187 -2.05364 6
      vertex -110.645 -5.42274 6
      vertex -110.187 -5.85257 6
    endloop
  endfacet
  facet normal 0 0 1
    outer loop
      vertex -107.789 1.10437 6
      vertex -112 2 6
      vertex -107.906 0.746069 6
    endloop
  endfacet
  facet normal 0 0 1
    outer loop
      vertex -107.187 -2.05364 6
      vertex -111.045 -4.93893 6
      vertex -110.645 -5.42274 6
    endloop
  endfacet
  facet normal 0 0 1
    outer loop
      vertex -107.906 0.746069 6
      vertex -112 2 6
      vertex -107.976 0.375999 6
    endloop
  endfacet
  facet normal 0 0 1
    outer loop
      vertex -107.427 -1.76336 6
      vertex -111.382 -4.40877 6
      vertex -111.045 -4.93893 6
    endloop
  endfacet
  facet normal 0 0 1
    outer loop
      vertex -107.976 0.375999 6
      vertex -112 2 6
      vertex -108 0 6
    endloop
  endfacet
  facet normal 0 0 1
    outer loop
      vertex -107.427 -1.76336 6
      vertex -111.649 -3.84062 6
      vertex -111.382 -4.40877 6
    endloop
  endfacet
  facet normal 0 0 1
    outer loop
      vertex -107.629 -1.44526 6
      vertex -111.843 -3.24345 6
      vertex -111.649 -3.84062 6
    endloop
  endfacet
  facet normal 0 0 1
    outer loop
      vertex -107.629 -1.44526 6
      vertex -111.961 -2.62667 6
      vertex -111.843 -3.24345 6
    endloop
  endfacet
  facet normal 0.844175 -0.536068 0
    outer loop
      vertex -107.629 1.44526 6
      vertex -107.427 1.76336 0
      vertex -107.427 1.76336 6
    endloop
  endfacet
  facet normal 0.844175 -0.536068 0
    outer loop
      vertex -107.427 1.76336 0
      vertex -107.629 1.44526 6
      vertex -107.629 1.44526 0
    endloop
  endfacet
  facet normal 0.125262 -0.992124 0
    outer loop
      vertex -105.562 2.94686 0
      vertex -105.188 2.99408 6
      vertex -105.562 2.94686 6
    endloop
  endfacet
  facet normal 0.125262 -0.992124 0
    outer loop
      vertex -105.188 2.99408 6
      vertex -105.562 2.94686 0
      vertex -105.188 2.99408 0
    endloop
  endfacet
  facet normal 0.587515 -0.809213 0
    outer loop
      vertex -106.912 2.31154 0
      vertex -106.607 2.53298 6
      vertex -106.912 2.31154 6
    endloop
  endfacet
  facet normal 0.587515 -0.809213 0
    outer loop
      vertex -106.607 2.53298 6
      vertex -106.912 2.31154 0
      vertex -106.607 2.53298 0
    endloop
  endfacet
  facet normal 0.481919 -0.876216 0
    outer loop
      vertex -106.607 2.53298 0
      vertex -106.277 2.71448 6
      vertex -106.607 2.53298 6
    endloop
  endfacet
  facet normal 0.481919 -0.876216 0
    outer loop
      vertex -106.277 2.71448 6
      vertex -106.607 2.53298 0
      vertex -106.277 2.71448 0
    endloop
  endfacet
  facet normal -0.997969 0.0637003 0
    outer loop
      vertex -102.024 -0.375999 0
      vertex -102 0 6
      vertex -102 0 0
    endloop
  endfacet
  facet normal -0.997969 0.0637003 0
    outer loop
      vertex -102 0 6
      vertex -102.024 -0.375999 0
      vertex -102.024 -0.375999 6
    endloop
  endfacet
  facet normal 0 1 -0
    outer loop
      vertex -104.812 -2.99408 0
      vertex -105.188 -2.99408 6
      vertex -104.812 -2.99408 6
    endloop
  endfacet
  facet normal 0 1 0
    outer loop
      vertex -105.188 -2.99408 6
      vertex -104.812 -2.99408 0
      vertex -105.188 -2.99408 0
    endloop
  endfacet
  facet normal 0 0 -1
    outer loop
      vertex 107.314 -6.99013 0
      vertex 112 -2 0
      vertex 111.961 -2.62667 0
    endloop
  endfacet
  facet normal -0 0 -1
    outer loop
      vertex 112 -2 0
      vertex 107.314 -6.99013 0
      vertex 112 2 0
    endloop
  endfacet
  facet normal 0 0 -1
    outer loop
      vertex 107.314 -6.99013 0
      vertex 111.961 -2.62667 0
      vertex 111.843 -3.24345 0
    endloop
  endfacet
  facet normal 0 0 -1
    outer loop
      vertex 107.314 6.99013 0
      vertex 112 2 0
      vertex 107.314 -6.99013 0
    endloop
  endfacet
  facet normal 0 0 -1
    outer loop
      vertex 107.314 -6.99013 0
      vertex 111.843 -3.24345 0
      vertex 111.649 -3.84062 0
    endloop
  endfacet
  facet normal 0 0 -1
    outer loop
      vertex 112 2 0
      vertex 107.314 6.99013 0
      vertex 111.961 2.62667 0
    endloop
  endfacet
  facet normal 0 0 -1
    outer loop
      vertex 107.314 -6.99013 0
      vertex 111.649 -3.84062 0
      vertex 111.382 -4.40877 0
    endloop
  endfacet
  facet normal 0 0 -1
    outer loop
      vertex 111.961 2.62667 0
      vertex 107.314 6.99013 0
      vertex 111.843 3.24345 0
    endloop
  endfacet
  facet normal 0 0 -1
    outer loop
      vertex 107.314 -6.99013 0
      vertex 111.382 -4.40877 0
      vertex 111.045 -4.93893 0
    endloop
  endfacet
  facet normal 0 0 -1
    outer loop
      vertex 111.843 3.24345 0
      vertex 107.314 6.99013 0
      vertex 111.649 3.84062 0
    endloop
  endfacet
  facet normal 0 0 -1
    outer loop
      vertex 107.314 -6.99013 0
      vertex 111.045 -4.93893 0
      vertex 110.645 -5.42274 0
    endloop
  endfacet
  facet normal 0 0 -1
    outer loop
      vertex 111.649 3.84062 0
      vertex 107.314 6.99013 0
      vertex 111.382 4.40877 0
    endloop
  endfacet
  facet normal 0 0 -1
    outer loop
      vertex 107.314 -6.99013 0
      vertex 110.645 -5.42274 0
      vertex 110.187 -5.85257 0
    endloop
  endfacet
  facet normal 0 0 -1
    outer loop
      vertex 111.382 4.40877 0
      vertex 107.314 6.99013 0
      vertex 111.045 4.93893 0
    endloop
  endfacet
  facet normal 0 0 -1
    outer loop
      vertex 107.314 -6.99013 0
      vertex 110.187 -5.85257 0
      vertex 109.679 -6.22164 0
    endloop
  endfacet
  facet normal 0 0 -1
    outer loop
      vertex 111.045 4.93893 0
      vertex 107.314 6.99013 0
      vertex 110.645 5.42274 0
    endloop
  endfacet
  facet normal 0 0 -1
    outer loop
      vertex 107.314 -6.99013 0
      vertex 109.679 -6.22164 0
      vertex 109.129 -6.52413 0
    endloop
  endfacet
  facet normal 0 0 -1
    outer loop
      vertex 110.645 5.42274 0
      vertex 107.314 6.99013 0
      vertex 110.187 5.85257 0
    endloop
  endfacet
  facet normal 0 0 -1
    outer loop
      vertex 107.314 -6.99013 0
      vertex 109.129 -6.52413 0
      vertex 108.545 -6.75528 0
    endloop
  endfacet
  facet normal 0 0 -1
    outer loop
      vertex 110.187 5.85257 0
      vertex 107.314 6.99013 0
      vertex 109.679 6.22164 0
    endloop
  endfacet
  facet normal 0 0 -1
    outer loop
      vertex 107.314 -6.99013 0
      vertex 108.545 -6.75528 0
      vertex 107.937 -6.91144 0
    endloop
  endfacet
  facet normal 0 0 -1
    outer loop
      vertex 109.679 6.22164 0
      vertex 107.314 6.99013 0
      vertex 109.129 6.52413 0
    endloop
  endfacet
  facet normal 0 0 -1
    outer loop
      vertex 109.129 6.52413 0
      vertex 107.314 6.99013 0
      vertex 108.545 6.75528 0
    endloop
  endfacet
  facet normal 0 0 -1
    outer loop
      vertex 108.545 6.75528 0
      vertex 107.314 6.99013 0
      vertex 107.937 6.91144 0
    endloop
  endfacet
  facet normal 0 0 -1
    outer loop
      vertex 107.314 -6.99013 0
      vertex -102 0 0
      vertex 107.314 6.99013 0
    endloop
  endfacet
  facet normal 0 0 -1
    outer loop
      vertex 107.314 -6.99013 0
      vertex -102.024 -0.375999 0
      vertex -102 0 0
    endloop
  endfacet
  facet normal 0 0 -1
    outer loop
      vertex 107.314 -6.99013 0
      vertex -102.094 -0.746069 0
      vertex -102.024 -0.375999 0
    endloop
  endfacet
  facet normal 0 0 -1
    outer loop
      vertex 107.314 -6.99013 0
      vertex -102.211 -1.10437 0
      vertex -102.094 -0.746069 0
    endloop
  endfacet
  facet normal 0 0 -1
    outer loop
      vertex 107.314 -6.99013 0
      vertex -102.371 -1.44526 0
      vertex -102.211 -1.10437 0
    endloop
  endfacet
  facet normal 0 0 -1
    outer loop
      vertex 107.314 -6.99013 0
      vertex -102.573 -1.76336 0
      vertex -102.371 -1.44526 0
    endloop
  endfacet
  facet normal 0 0 -1
    outer loop
      vertex 107.314 -6.99013 0
      vertex -102.813 -2.05364 0
      vertex -102.573 -1.76336 0
    endloop
  endfacet
  facet normal 0 0 -1
    outer loop
      vertex -107.314 -6.99013 0
      vertex -102.813 -2.05364 0
      vertex 107.314 -6.99013 0
    endloop
  endfacet
  facet normal 0 0 -1
    outer loop
      vertex -102.813 -2.05364 0
      vertex -107.314 -6.99013 0
      vertex -103.088 -2.31154 0
    endloop
  endfacet
  facet normal 0 0 -1
    outer loop
      vertex -103.088 -2.31154 0
      vertex -107.314 -6.99013 0
      vertex -103.393 -2.53298 0
    endloop
  endfacet
  facet normal 0 0 -1
    outer loop
      vertex -103.393 -2.53298 0
      vertex -107.314 -6.99013 0
      vertex -103.723 -2.71448 0
    endloop
  endfacet
  facet normal 0 0 -1
    outer loop
      vertex -103.723 -2.71448 0
      vertex -107.314 -6.99013 0
      vertex -104.073 -2.85317 0
    endloop
  endfacet
  facet normal 0 0 -1
    outer loop
      vertex -104.073 -2.85317 0
      vertex -107.314 -6.99013 0
      vertex -104.438 -2.94686 0
    endloop
  endfacet
  facet normal 0 0 -1
    outer loop
      vertex -104.438 -2.94686 0
      vertex -107.314 -6.99013 0
      vertex -104.812 -2.99408 0
    endloop
  endfacet
  facet normal -0 0 -1
    outer loop
      vertex -104.812 -2.99408 0
      vertex -107.314 -6.99013 0
      vertex -105.188 -2.99408 0
    endloop
  endfacet
  facet normal 0 0 -1
    outer loop
      vertex -107.314 -6.99013 0
      vertex -105.562 -2.94686 0
      vertex -105.188 -2.99408 0
    endloop
  endfacet
  facet normal 0 0 -1
    outer loop
      vertex -107.314 -6.99013 0
      vertex -105.927 -2.85317 0
      vertex -105.562 -2.94686 0
    endloop
  endfacet
  facet normal 0 0 -1
    outer loop
      vertex -107.314 -6.99013 0
      vertex -106.277 -2.71448 0
      vertex -105.927 -2.85317 0
    endloop
  endfacet
  facet normal 0 0 -1
    outer loop
      vertex -107.937 -6.91144 0
      vertex -106.277 -2.71448 0
      vertex -107.314 -6.99013 0
    endloop
  endfacet
  facet normal -0 0 -1
    outer loop
      vertex -106.277 -2.71448 0
      vertex -107.937 -6.91144 0
      vertex -106.607 -2.53298 0
    endloop
  endfacet
  facet normal 0 0 -1
    outer loop
      vertex -108.545 -6.75528 0
      vertex -106.607 -2.53298 0
      vertex -107.937 -6.91144 0
    endloop
  endfacet
  facet normal 0 0 -1
    outer loop
      vertex -109.129 -6.52413 0
      vertex -106.607 -2.53298 0
      vertex -108.545 -6.75528 0
    endloop
  endfacet
  facet normal -0 0 -1
    outer loop
      vertex -106.607 -2.53298 0
      vertex -109.129 -6.52413 0
      vertex -106.912 -2.31154 0
    endloop
  endfacet
  facet normal 0 0 -1
    outer loop
      vertex -109.679 -6.22164 0
      vertex -106.912 -2.31154 0
      vertex -109.129 -6.52413 0
    endloop
  endfacet
  facet normal 0 0 -1
    outer loop
      vertex -110.187 -5.85257 0
      vertex -106.912 -2.31154 0
      vertex -109.679 -6.22164 0
    endloop
  endfacet
  facet normal -0 0 -1
    outer loop
      vertex -106.912 -2.31154 0
      vertex -110.187 -5.85257 0
      vertex -107.187 -2.05364 0
    endloop
  endfacet
  facet normal 0 0 -1
    outer loop
      vertex -110.645 -5.42274 0
      vertex -107.187 -2.05364 0
      vertex -110.187 -5.85257 0
    endloop
  endfacet
  facet normal 0 0 -1
    outer loop
      vertex -111.045 -4.93893 0
      vertex -107.187 -2.05364 0
      vertex -110.645 -5.42274 0
    endloop
  endfacet
  facet normal -0 0 -1
    outer loop
      vertex -107.187 -2.05364 0
      vertex -111.045 -4.93893 0
      vertex -107.427 -1.76336 0
    endloop
  endfacet
  facet normal 0 0 -1
    outer loop
      vertex -102.024 0.375999 0
      vertex 107.314 6.99013 0
      vertex -102 0 0
    endloop
  endfacet
  facet normal 0 0 -1
    outer loop
      vertex -102.094 0.746069 0
      vertex 107.314 6.99013 0
      vertex -102.024 0.375999 0
    endloop
  endfacet
  facet normal 0 0 -1
    outer loop
      vertex -102.211 1.10437 0
      vertex 107.314 6.99013 0
      vertex -102.094 0.746069 0
    endloop
  endfacet
  facet normal 0 0 -1
    outer loop
      vertex -102.371 1.44526 0
      vertex 107.314 6.99013 0
      vertex -102.211 1.10437 0
    endloop
  endfacet
  facet normal 0 0 -1
    outer loop
      vertex -102.573 1.76336 0
      vertex 107.314 6.99013 0
      vertex -102.371 1.44526 0
    endloop
  endfacet
  facet normal 0 0 -1
    outer loop
      vertex -102.813 2.05364 0
      vertex 107.314 6.99013 0
      vertex -102.573 1.76336 0
    endloop
  endfacet
  facet normal 0 0 -1
    outer loop
      vertex -107.314 6.99013 0
      vertex -102.813 2.05364 0
      vertex -103.088 2.31154 0
    endloop
  endfacet
  facet normal 0 0 -1
    outer loop
      vertex -107.314 6.99013 0
      vertex -103.088 2.31154 0
      vertex -103.393 2.53298 0
    endloop
  endfacet
  facet normal 0 0 -1
    outer loop
      vertex -107.314 6.99013 0
      vertex -103.393 2.53298 0
      vertex -103.723 2.71448 0
    endloop
  endfacet
  facet normal 0 0 -1
    outer loop
      vertex -107.314 6.99013 0
      vertex -103.723 2.71448 0
      vertex -104.073 2.85317 0
    endloop
  endfacet
  facet normal 0 0 -1
    outer loop
      vertex -107.314 6.99013 0
      vertex -104.073 2.85317 0
      vertex -104.438 2.94686 0
    endloop
  endfacet
  facet normal 0 0 -1
    outer loop
      vertex -107.314 6.99013 0
      vertex -104.438 2.94686 0
      vertex -104.812 2.99408 0
    endloop
  endfacet
  facet normal 0 0 -1
    outer loop
      vertex -107.314 6.99013 0
      vertex -104.812 2.99408 0
      vertex -105.188 2.99408 0
    endloop
  endfacet
  facet normal 0 0 -1
    outer loop
      vertex -102.813 2.05364 0
      vertex -107.314 6.99013 0
      vertex 107.314 6.99013 0
    endloop
  endfacet
  facet normal 0 0 -1
    outer loop
      vertex -105.562 2.94686 0
      vertex -107.314 6.99013 0
      vertex -105.188 2.99408 0
    endloop
  endfacet
  facet normal 0 0 -1
    outer loop
      vertex -105.927 2.85317 0
      vertex -107.314 6.99013 0
      vertex -105.562 2.94686 0
    endloop
  endfacet
  facet normal 0 0 -1
    outer loop
      vertex -106.277 2.71448 0
      vertex -107.314 6.99013 0
      vertex -105.927 2.85317 0
    endloop
  endfacet
  facet normal 0 0 -1
    outer loop
      vertex -107.937 6.91144 0
      vertex -106.277 2.71448 0
      vertex -106.607 2.53298 0
    endloop
  endfacet
  facet normal 0 0 -1
    outer loop
      vertex -109.129 6.52413 0
      vertex -106.607 2.53298 0
      vertex -106.912 2.31154 0
    endloop
  endfacet
  facet normal 0 0 -1
    outer loop
      vertex -110.187 5.85257 0
      vertex -106.912 2.31154 0
      vertex -107.187 2.05364 0
    endloop
  endfacet
  facet normal 0 0 -1
    outer loop
      vertex -111.045 4.93893 0
      vertex -107.187 2.05364 0
      vertex -107.427 1.76336 0
    endloop
  endfacet
  facet normal 0 0 -1
    outer loop
      vertex -111.649 3.84062 0
      vertex -107.427 1.76336 0
      vertex -107.629 1.44526 0
    endloop
  endfacet
  facet normal 0 0 -1
    outer loop
      vertex -111.961 2.62667 0
      vertex -107.629 1.44526 0
      vertex -107.789 1.10437 0
    endloop
  endfacet
  facet normal 0 0 -1
    outer loop
      vertex -112 2 0
      vertex -107.789 1.10437 0
      vertex -107.906 0.746069 0
    endloop
  endfacet
  facet normal 0 0 -1
    outer loop
      vertex -106.277 2.71448 0
      vertex -107.937 6.91144 0
      vertex -107.314 6.99013 0
    endloop
  endfacet
  facet normal 0 0 -1
    outer loop
      vertex -112 2 0
      vertex -107.906 0.746069 0
      vertex -107.976 0.375999 0
    endloop
  endfacet
  facet normal 0 0 -1
    outer loop
      vertex -112 2 0
      vertex -107.976 0.375999 0
      vertex -108 0 0
    endloop
  endfacet
  facet normal 0 0 -1
    outer loop
      vertex -111.382 -4.40877 0
      vertex -107.427 -1.76336 0
      vertex -111.045 -4.93893 0
    endloop
  endfacet
  facet normal 0 0 -1
    outer loop
      vertex -112 2 0
      vertex -108 0 0
      vertex -112 -2 0
    endloop
  endfacet
  facet normal 0 0 -1
    outer loop
      vertex -111.649 -3.84062 0
      vertex -107.427 -1.76336 0
      vertex -111.382 -4.40877 0
    endloop
  endfacet
  facet normal 0 0 -1
    outer loop
      vertex -107.789 1.10437 0
      vertex -112 2 0
      vertex -111.961 2.62667 0
    endloop
  endfacet
  facet normal -0 0 -1
    outer loop
      vertex -107.427 -1.76336 0
      vertex -111.649 -3.84062 0
      vertex -107.629 -1.44526 0
    endloop
  endfacet
  facet normal 0 0 -1
    outer loop
      vertex -106.607 2.53298 0
      vertex -108.545 6.75528 0
      vertex -107.937 6.91144 0
    endloop
  endfacet
  facet normal 0 0 -1
    outer loop
      vertex -111.843 -3.24345 0
      vertex -107.629 -1.44526 0
      vertex -111.649 -3.84062 0
    endloop
  endfacet
  facet normal 0 0 -1
    outer loop
      vertex -106.607 2.53298 0
      vertex -109.129 6.52413 0
      vertex -108.545 6.75528 0
    endloop
  endfacet
  facet normal 0 0 -1
    outer loop
      vertex -111.961 -2.62667 0
      vertex -107.629 -1.44526 0
      vertex -111.843 -3.24345 0
    endloop
  endfacet
  facet normal 0 0 -1
    outer loop
      vertex -106.912 2.31154 0
      vertex -109.679 6.22164 0
      vertex -109.129 6.52413 0
    endloop
  endfacet
  facet normal -0 0 -1
    outer loop
      vertex -107.629 -1.44526 0
      vertex -111.961 -2.62667 0
      vertex -107.789 -1.10437 0
    endloop
  endfacet
  facet normal 0 0 -1
    outer loop
      vertex -106.912 2.31154 0
      vertex -110.187 5.85257 0
      vertex -109.679 6.22164 0
    endloop
  endfacet
  facet normal 0 0 -1
    outer loop
      vertex -112 -2 0
      vertex -107.789 -1.10437 0
      vertex -111.961 -2.62667 0
    endloop
  endfacet
  facet normal 0 0 -1
    outer loop
      vertex -107.187 2.05364 0
      vertex -110.645 5.42274 0
      vertex -110.187 5.85257 0
    endloop
  endfacet
  facet normal -0 0 -1
    outer loop
      vertex -107.789 -1.10437 0
      vertex -112 -2 0
      vertex -107.906 -0.746069 0
    endloop
  endfacet
  facet normal 0 0 -1
    outer loop
      vertex -107.187 2.05364 0
      vertex -111.045 4.93893 0
      vertex -110.645 5.42274 0
    endloop
  endfacet
  facet normal -0 0 -1
    outer loop
      vertex -107.906 -0.746069 0
      vertex -112 -2 0
      vertex -107.976 -0.375999 0
    endloop
  endfacet
  facet normal 0 0 -1
    outer loop
      vertex -107.427 1.76336 0
      vertex -111.382 4.40877 0
      vertex -111.045 4.93893 0
    endloop
  endfacet
  facet normal -0 0 -1
    outer loop
      vertex -107.976 -0.375999 0
      vertex -112 -2 0
      vertex -108 0 0
    endloop
  endfacet
  facet normal 0 0 -1
    outer loop
      vertex -107.427 1.76336 0
      vertex -111.649 3.84062 0
      vertex -111.382 4.40877 0
    endloop
  endfacet
  facet normal 0 0 -1
    outer loop
      vertex -107.629 1.44526 0
      vertex -111.843 3.24345 0
      vertex -111.649 3.84062 0
    endloop
  endfacet
  facet normal 0 0 -1
    outer loop
      vertex -107.629 1.44526 0
      vertex -111.961 2.62667 0
      vertex -111.843 3.24345 0
    endloop
  endfacet
  facet normal 0.844175 0.536068 0
    outer loop
      vertex -107.427 -1.76336 6
      vertex -107.629 -1.44526 0
      vertex -107.629 -1.44526 6
    endloop
  endfacet
  facet normal 0.844175 0.536068 0
    outer loop
      vertex -107.629 -1.44526 0
      vertex -107.427 -1.76336 6
      vertex -107.427 -1.76336 0
    endloop
  endfacet
  facet normal -0.125262 0.992124 0
    outer loop
      vertex -104.438 -2.94686 0
      vertex -104.812 -2.99408 6
      vertex -104.438 -2.94686 6
    endloop
  endfacet
  facet normal -0.125262 0.992124 0
    outer loop
      vertex -104.812 -2.99408 6
      vertex -104.438 -2.94686 0
      vertex -104.812 -2.99408 0
    endloop
  endfacet
  facet normal -0.368389 0.929672 0
    outer loop
      vertex -103.723 -2.71448 0
      vertex -104.073 -2.85317 6
      vertex -103.723 -2.71448 6
    endloop
  endfacet
  facet normal -0.368389 0.929672 0
    outer loop
      vertex -104.073 -2.85317 6
      vertex -103.723 -2.71448 0
      vertex -104.073 -2.85317 0
    endloop
  endfacet
  facet normal -0.905247 -0.424886 0
    outer loop
      vertex -102.211 1.10437 0
      vertex -102.371 1.44526 6
      vertex -102.371 1.44526 0
    endloop
  endfacet
  facet normal -0.905247 -0.424886 0
    outer loop
      vertex -102.371 1.44526 6
      vertex -102.211 1.10437 0
      vertex -102.211 1.10437 6
    endloop
  endfacet
  facet normal -0.950603 -0.310411 0
    outer loop
      vertex -102.094 0.746069 0
      vertex -102.211 1.10437 6
      vertex -102.211 1.10437 0
    endloop
  endfacet
  facet normal -0.950603 -0.310411 0
    outer loop
      vertex -102.211 1.10437 6
      vertex -102.094 0.746069 0
      vertex -102.094 0.746069 6
    endloop
  endfacet
  facet normal -0.982577 -0.185858 0
    outer loop
      vertex -102.024 0.375999 0
      vertex -102.094 0.746069 6
      vertex -102.094 0.746069 0
    endloop
  endfacet
  facet normal -0.982577 -0.185858 0
    outer loop
      vertex -102.094 0.746069 6
      vertex -102.024 0.375999 0
      vertex -102.024 0.375999 6
    endloop
  endfacet
  facet normal -0.905247 0.424886 0
    outer loop
      vertex -102.371 -1.44526 0
      vertex -102.211 -1.10437 6
      vertex -102.211 -1.10437 0
    endloop
  endfacet
  facet normal -0.905247 0.424886 0
    outer loop
      vertex -102.211 -1.10437 6
      vertex -102.371 -1.44526 0
      vertex -102.371 -1.44526 6
    endloop
  endfacet
  facet normal -0.950603 0.310411 0
    outer loop
      vertex -102.211 -1.10437 0
      vertex -102.094 -0.746069 6
      vertex -102.094 -0.746069 0
    endloop
  endfacet
  facet normal -0.950603 0.310411 0
    outer loop
      vertex -102.094 -0.746069 6
      vertex -102.211 -1.10437 0
      vertex -102.211 -1.10437 6
    endloop
  endfacet
  facet normal -0.684065 0.729421 0
    outer loop
      vertex -102.813 -2.05364 0
      vertex -103.088 -2.31154 6
      vertex -102.813 -2.05364 6
    endloop
  endfacet
  facet normal -0.684065 0.729421 0
    outer loop
      vertex -103.088 -2.31154 6
      vertex -102.813 -2.05364 0
      vertex -103.088 -2.31154 0
    endloop
  endfacet
  facet normal -0.770696 0.637202 0
    outer loop
      vertex -102.813 -2.05364 0
      vertex -102.573 -1.76336 6
      vertex -102.573 -1.76336 0
    endloop
  endfacet
  facet normal -0.770696 0.637202 0
    outer loop
      vertex -102.573 -1.76336 6
      vertex -102.813 -2.05364 0
      vertex -102.813 -2.05364 6
    endloop
  endfacet
  facet normal -0.844175 0.536068 0
    outer loop
      vertex -102.573 -1.76336 0
      vertex -102.371 -1.44526 6
      vertex -102.371 -1.44526 0
    endloop
  endfacet
  facet normal -0.844175 0.536068 0
    outer loop
      vertex -102.371 -1.44526 6
      vertex -102.573 -1.76336 0
      vertex -102.573 -1.76336 6
    endloop
  endfacet
  facet normal 0.905247 0.424886 0
    outer loop
      vertex -107.629 -1.44526 6
      vertex -107.789 -1.10437 0
      vertex -107.789 -1.10437 6
    endloop
  endfacet
  facet normal 0.905247 0.424886 0
    outer loop
      vertex -107.789 -1.10437 0
      vertex -107.629 -1.44526 6
      vertex -107.629 -1.44526 0
    endloop
  endfacet
  facet normal 0.684065 0.729421 -0
    outer loop
      vertex -106.912 -2.31154 0
      vertex -107.187 -2.05364 6
      vertex -106.912 -2.31154 6
    endloop
  endfacet
  facet normal 0.684065 0.729421 0
    outer loop
      vertex -107.187 -2.05364 6
      vertex -106.912 -2.31154 0
      vertex -107.187 -2.05364 0
    endloop
  endfacet
  facet normal -0.248625 0.9686 0
    outer loop
      vertex -104.073 -2.85317 0
      vertex -104.438 -2.94686 6
      vertex -104.073 -2.85317 6
    endloop
  endfacet
  facet normal -0.248625 0.9686 0
    outer loop
      vertex -104.438 -2.94686 6
      vertex -104.073 -2.85317 0
      vertex -104.438 -2.94686 0
    endloop
  endfacet
  facet normal -0.587515 0.809213 0
    outer loop
      vertex -103.088 -2.31154 0
      vertex -103.393 -2.53298 6
      vertex -103.088 -2.31154 6
    endloop
  endfacet
  facet normal -0.587515 0.809213 0
    outer loop
      vertex -103.393 -2.53298 6
      vertex -103.088 -2.31154 0
      vertex -103.393 -2.53298 0
    endloop
  endfacet
  facet normal 0.587515 0.809213 -0
    outer loop
      vertex -106.607 -2.53298 0
      vertex -106.912 -2.31154 6
      vertex -106.607 -2.53298 6
    endloop
  endfacet
  facet normal 0.587515 0.809213 0
    outer loop
      vertex -106.912 -2.31154 6
      vertex -106.607 -2.53298 0
      vertex -106.912 -2.31154 0
    endloop
  endfacet
  facet normal 0.248625 0.9686 -0
    outer loop
      vertex -105.562 -2.94686 0
      vertex -105.927 -2.85317 6
      vertex -105.562 -2.94686 6
    endloop
  endfacet
  facet normal 0.248625 0.9686 0
    outer loop
      vertex -105.927 -2.85317 6
      vertex -105.562 -2.94686 0
      vertex -105.927 -2.85317 0
    endloop
  endfacet
  facet normal 0.125262 0.992124 -0
    outer loop
      vertex -105.188 -2.99408 0
      vertex -105.562 -2.94686 6
      vertex -105.188 -2.99408 6
    endloop
  endfacet
  facet normal 0.125262 0.992124 0
    outer loop
      vertex -105.562 -2.94686 6
      vertex -105.188 -2.99408 0
      vertex -105.562 -2.94686 0
    endloop
  endfacet
  facet normal 0.982577 0.185858 0
    outer loop
      vertex -107.906 -0.746069 6
      vertex -107.976 -0.375999 0
      vertex -107.976 -0.375999 6
    endloop
  endfacet
  facet normal 0.982577 0.185858 0
    outer loop
      vertex -107.976 -0.375999 0
      vertex -107.906 -0.746069 6
      vertex -107.906 -0.746069 0
    endloop
  endfacet
  facet normal 0.997969 0.0637003 0
    outer loop
      vertex -107.976 -0.375999 6
      vertex -108 0 0
      vertex -108 0 6
    endloop
  endfacet
  facet normal 0.997969 0.0637003 0
    outer loop
      vertex -108 0 0
      vertex -107.976 -0.375999 6
      vertex -107.976 -0.375999 0
    endloop
  endfacet
  facet normal 0.481919 0.876216 -0
    outer loop
      vertex -106.277 -2.71448 0
      vertex -106.607 -2.53298 6
      vertex -106.277 -2.71448 6
    endloop
  endfacet
  facet normal 0.481919 0.876216 0
    outer loop
      vertex -106.607 -2.53298 6
      vertex -106.277 -2.71448 0
      vertex -106.607 -2.53298 0
    endloop
  endfacet
  facet normal 0.950603 0.310411 0
    outer loop
      vertex -107.789 -1.10437 6
      vertex -107.906 -0.746069 0
      vertex -107.906 -0.746069 6
    endloop
  endfacet
  facet normal 0.950603 0.310411 0
    outer loop
      vertex -107.906 -0.746069 0
      vertex -107.789 -1.10437 6
      vertex -107.789 -1.10437 0
    endloop
  endfacet
  facet normal 0.770696 0.637202 0
    outer loop
      vertex -107.187 -2.05364 6
      vertex -107.427 -1.76336 0
      vertex -107.427 -1.76336 6
    endloop
  endfacet
  facet normal 0.770696 0.637202 0
    outer loop
      vertex -107.427 -1.76336 0
      vertex -107.187 -2.05364 6
      vertex -107.187 -2.05364 0
    endloop
  endfacet
  facet normal 0.368389 0.929672 -0
    outer loop
      vertex -105.927 -2.85317 0
      vertex -106.277 -2.71448 6
      vertex -105.927 -2.85317 6
    endloop
  endfacet
  facet normal 0.368389 0.929672 0
    outer loop
      vertex -106.277 -2.71448 6
      vertex -105.927 -2.85317 0
      vertex -106.277 -2.71448 0
    endloop
  endfacet
  facet normal -1 0 0
    outer loop
      vertex -112 -2 0
      vertex -112 2 6
      vertex -112 2 0
    endloop
  endfacet
  facet normal -1 -0 0
    outer loop
      vertex -112 2 6
      vertex -112 -2 0
      vertex -112 -2 6
    endloop
  endfacet
  facet normal -0.998069 -0.0621135 0
    outer loop
      vertex -111.961 -2.62667 0
      vertex -112 -2 6
      vertex -112 -2 0
    endloop
  endfacet
  facet normal -0.998069 -0.0621135 0
    outer loop
      vertex -112 -2 6
      vertex -111.961 -2.62667 0
      vertex -111.961 -2.62667 6
    endloop
  endfacet
  facet normal 0 1 -0
    outer loop
      vertex 107.314 6.99013 0
      vertex -107.314 6.99013 6
      vertex 107.314 6.99013 6
    endloop
  endfacet
  facet normal 0 1 0
    outer loop
      vertex -107.314 6.99013 6
      vertex 107.314 6.99013 0
      vertex -107.314 6.99013 0
    endloop
  endfacet
  facet normal 0 -1 0
    outer loop
      vertex -107.314 -6.99013 0
      vertex 107.314 -6.99013 6
      vertex -107.314 -6.99013 6
    endloop
  endfacet
  facet normal 0 -1 -0
    outer loop
      vertex 107.314 -6.99013 6
      vertex -107.314 -6.99013 0
      vertex 107.314 -6.99013 0
    endloop
  endfacet
  facet normal -0.998069 0.0621135 0
    outer loop
      vertex -112 2 0
      vertex -111.961 2.62667 6
      vertex -111.961 2.62667 0
    endloop
  endfacet
  facet normal -0.998069 0.0621135 0
    outer loop
      vertex -111.961 2.62667 6
      vertex -112 2 0
      vertex -112 2 6
    endloop
  endfacet
  facet normal 0.905042 -0.425321 0
    outer loop
      vertex 111.382 -4.40877 6
      vertex 111.649 -3.84062 0
      vertex 111.649 -3.84062 6
    endloop
  endfacet
  facet normal 0.905042 -0.425321 0
    outer loop
      vertex 111.649 -3.84062 0
      vertex 111.382 -4.40877 6
      vertex 111.382 -4.40877 0
    endloop
  endfacet
  facet normal -0.770703 0.637195 0
    outer loop
      vertex -111.045 4.93893 0
      vertex -110.645 5.42274 6
      vertex -110.645 5.42274 0
    endloop
  endfacet
  facet normal -0.770703 0.637195 0
    outer loop
      vertex -110.645 5.42274 6
      vertex -111.045 4.93893 0
      vertex -111.045 4.93893 6
    endloop
  endfacet
  facet normal -0.368026 -0.929816 0
    outer loop
      vertex -109.129 -6.52413 0
      vertex -108.545 -6.75528 6
      vertex -109.129 -6.52413 6
    endloop
  endfacet
  facet normal -0.368026 -0.929816 -0
    outer loop
      vertex -108.545 -6.75528 6
      vertex -109.129 -6.52413 0
      vertex -108.545 -6.75528 0
    endloop
  endfacet
  facet normal -0.125313 -0.992117 0
    outer loop
      vertex -107.937 -6.91144 0
      vertex -107.314 -6.99013 6
      vertex -107.937 -6.91144 6
    endloop
  endfacet
  facet normal -0.125313 -0.992117 -0
    outer loop
      vertex -107.314 -6.99013 6
      vertex -107.937 -6.91144 0
      vertex -107.314 -6.99013 0
    endloop
  endfacet
  facet normal -0.481907 -0.876223 0
    outer loop
      vertex -109.679 -6.22164 0
      vertex -109.129 -6.52413 6
      vertex -109.679 -6.22164 6
    endloop
  endfacet
  facet normal -0.481907 -0.876223 -0
    outer loop
      vertex -109.129 -6.52413 6
      vertex -109.679 -6.22164 0
      vertex -109.129 -6.52413 0
    endloop
  endfacet
  facet normal -0.684327 -0.729176 0
    outer loop
      vertex -110.645 -5.42274 0
      vertex -110.187 -5.85257 6
      vertex -110.645 -5.42274 6
    endloop
  endfacet
  facet normal -0.684327 -0.729176 -0
    outer loop
      vertex -110.187 -5.85257 6
      vertex -110.645 -5.42274 0
      vertex -110.187 -5.85257 0
    endloop
  endfacet
  facet normal 1 -0 0
    outer loop
      vertex 112 -2 6
      vertex 112 2 0
      vertex 112 2 6
    endloop
  endfacet
  facet normal 1 0 0
    outer loop
      vertex 112 2 0
      vertex 112 -2 6
      vertex 112 -2 0
    endloop
  endfacet
  facet normal 0.951072 -0.30897 0
    outer loop
      vertex 111.649 -3.84062 6
      vertex 111.843 -3.24345 0
      vertex 111.843 -3.24345 6
    endloop
  endfacet
  facet normal 0.951072 -0.30897 0
    outer loop
      vertex 111.843 -3.24345 0
      vertex 111.649 -3.84062 6
      vertex 111.649 -3.84062 0
    endloop
  endfacet
  facet normal 0.982187 -0.187908 0
    outer loop
      vertex 111.843 -3.24345 6
      vertex 111.961 -2.62667 0
      vertex 111.961 -2.62667 6
    endloop
  endfacet
  facet normal 0.982187 -0.187908 0
    outer loop
      vertex 111.961 -2.62667 0
      vertex 111.843 -3.24345 6
      vertex 111.843 -3.24345 0
    endloop
  endfacet
  facet normal 0.481907 -0.876223 0
    outer loop
      vertex 109.129 -6.52413 0
      vertex 109.679 -6.22164 6
      vertex 109.129 -6.52413 6
    endloop
  endfacet
  facet normal 0.481907 -0.876223 0
    outer loop
      vertex 109.679 -6.22164 6
      vertex 109.129 -6.52413 0
      vertex 109.679 -6.22164 0
    endloop
  endfacet
  facet normal 0.951072 0.30897 0
    outer loop
      vertex 111.843 3.24345 6
      vertex 111.649 3.84062 0
      vertex 111.649 3.84062 6
    endloop
  endfacet
  facet normal 0.951072 0.30897 0
    outer loop
      vertex 111.649 3.84062 0
      vertex 111.843 3.24345 6
      vertex 111.843 3.24345 0
    endloop
  endfacet
  facet normal 0.684327 0.729176 -0
    outer loop
      vertex 110.645 5.42274 0
      vertex 110.187 5.85257 6
      vertex 110.645 5.42274 6
    endloop
  endfacet
  facet normal 0.684327 0.729176 0
    outer loop
      vertex 110.187 5.85257 6
      vertex 110.645 5.42274 0
      vertex 110.187 5.85257 0
    endloop
  endfacet
  facet normal 0.368026 0.929816 -0
    outer loop
      vertex 109.129 6.52413 0
      vertex 108.545 6.75528 6
      vertex 109.129 6.52413 6
    endloop
  endfacet
  facet normal 0.368026 0.929816 0
    outer loop
      vertex 108.545 6.75528 6
      vertex 109.129 6.52413 0
      vertex 108.545 6.75528 0
    endloop
  endfacet
  facet normal 0.248768 0.968563 -0
    outer loop
      vertex 108.545 6.75528 0
      vertex 107.937 6.91144 6
      vertex 108.545 6.75528 6
    endloop
  endfacet
  facet normal 0.248768 0.968563 0
    outer loop
      vertex 107.937 6.91144 6
      vertex 108.545 6.75528 0
      vertex 107.937 6.91144 0
    endloop
  endfacet
  facet normal 0.125313 0.992117 -0
    outer loop
      vertex 107.937 6.91144 0
      vertex 107.314 6.99013 6
      vertex 107.937 6.91144 6
    endloop
  endfacet
  facet normal 0.125313 0.992117 0
    outer loop
      vertex 107.314 6.99013 6
      vertex 107.937 6.91144 0
      vertex 107.314 6.99013 0
    endloop
  endfacet
  facet normal -0.368026 0.929816 0
    outer loop
      vertex -108.545 6.75528 0
      vertex -109.129 6.52413 6
      vertex -108.545 6.75528 6
    endloop
  endfacet
  facet normal -0.368026 0.929816 0
    outer loop
      vertex -109.129 6.52413 6
      vertex -108.545 6.75528 0
      vertex -109.129 6.52413 0
    endloop
  endfacet
  facet normal -0.951072 -0.30897 0
    outer loop
      vertex -111.649 -3.84062 0
      vertex -111.843 -3.24345 6
      vertex -111.843 -3.24345 0
    endloop
  endfacet
  facet normal -0.951072 -0.30897 0
    outer loop
      vertex -111.843 -3.24345 6
      vertex -111.649 -3.84062 0
      vertex -111.649 -3.84062 6
    endloop
  endfacet
  facet normal -0.905042 -0.425321 0
    outer loop
      vertex -111.382 -4.40877 0
      vertex -111.649 -3.84062 6
      vertex -111.649 -3.84062 0
    endloop
  endfacet
  facet normal -0.905042 -0.425321 0
    outer loop
      vertex -111.649 -3.84062 6
      vertex -111.382 -4.40877 0
      vertex -111.382 -4.40877 6
    endloop
  endfacet
  facet normal -0.770703 -0.637195 0
    outer loop
      vertex -110.645 -5.42274 0
      vertex -111.045 -4.93893 6
      vertex -111.045 -4.93893 0
    endloop
  endfacet
  facet normal -0.770703 -0.637195 0
    outer loop
      vertex -111.045 -4.93893 6
      vertex -110.645 -5.42274 0
      vertex -110.645 -5.42274 6
    endloop
  endfacet
  facet normal -0.248768 -0.968563 0
    outer loop
      vertex -108.545 -6.75528 0
      vertex -107.937 -6.91144 6
      vertex -108.545 -6.75528 6
    endloop
  endfacet
  facet normal -0.248768 -0.968563 -0
    outer loop
      vertex -107.937 -6.91144 6
      vertex -108.545 -6.75528 0
      vertex -107.937 -6.91144 0
    endloop
  endfacet
  facet normal -0.587771 -0.809027 0
    outer loop
      vertex -110.187 -5.85257 0
      vertex -109.679 -6.22164 6
      vertex -110.187 -5.85257 6
    endloop
  endfacet
  facet normal -0.587771 -0.809027 -0
    outer loop
      vertex -109.679 -6.22164 6
      vertex -110.187 -5.85257 0
      vertex -109.679 -6.22164 0
    endloop
  endfacet
  facet normal 0.998069 -0.0621135 0
    outer loop
      vertex 111.961 -2.62667 6
      vertex 112 -2 0
      vertex 112 -2 6
    endloop
  endfacet
  facet normal 0.998069 -0.0621135 0
    outer loop
      vertex 112 -2 0
      vertex 111.961 -2.62667 6
      vertex 111.961 -2.62667 0
    endloop
  endfacet
  facet normal 0.684327 -0.729176 0
    outer loop
      vertex 110.187 -5.85257 0
      vertex 110.645 -5.42274 6
      vertex 110.187 -5.85257 6
    endloop
  endfacet
  facet normal 0.684327 -0.729176 0
    outer loop
      vertex 110.645 -5.42274 6
      vertex 110.187 -5.85257 0
      vertex 110.645 -5.42274 0
    endloop
  endfacet
  facet normal 0.587771 -0.809027 0
    outer loop
      vertex 109.679 -6.22164 0
      vertex 110.187 -5.85257 6
      vertex 109.679 -6.22164 6
    endloop
  endfacet
  facet normal 0.587771 -0.809027 0
    outer loop
      vertex 110.187 -5.85257 6
      vertex 109.679 -6.22164 0
      vertex 110.187 -5.85257 0
    endloop
  endfacet
  facet normal 0.770703 -0.637195 0
    outer loop
      vertex 110.645 -5.42274 6
      vertex 111.045 -4.93893 0
      vertex 111.045 -4.93893 6
    endloop
  endfacet
  facet normal 0.770703 -0.637195 0
    outer loop
      vertex 111.045 -4.93893 0
      vertex 110.645 -5.42274 6
      vertex 110.645 -5.42274 0
    endloop
  endfacet
  facet normal 0.368026 -0.929816 0
    outer loop
      vertex 108.545 -6.75528 0
      vertex 109.129 -6.52413 6
      vertex 108.545 -6.75528 6
    endloop
  endfacet
  facet normal 0.368026 -0.929816 0
    outer loop
      vertex 109.129 -6.52413 6
      vertex 108.545 -6.75528 0
      vertex 109.129 -6.52413 0
    endloop
  endfacet
  facet normal 0.125313 -0.992117 0
    outer loop
      vertex 107.314 -6.99013 0
      vertex 107.937 -6.91144 6
      vertex 107.314 -6.99013 6
    endloop
  endfacet
  facet normal 0.125313 -0.992117 0
    outer loop
      vertex 107.937 -6.91144 6
      vertex 107.314 -6.99013 0
      vertex 107.937 -6.91144 0
    endloop
  endfacet
  facet normal 0.770703 0.637195 0
    outer loop
      vertex 111.045 4.93893 6
      vertex 110.645 5.42274 0
      vertex 110.645 5.42274 6
    endloop
  endfacet
  facet normal 0.770703 0.637195 0
    outer loop
      vertex 110.645 5.42274 0
      vertex 111.045 4.93893 6
      vertex 111.045 4.93893 0
    endloop
  endfacet
  facet normal 0.587771 0.809027 -0
    outer loop
      vertex 110.187 5.85257 0
      vertex 109.679 6.22164 6
      vertex 110.187 5.85257 6
    endloop
  endfacet
  facet normal 0.587771 0.809027 0
    outer loop
      vertex 109.679 6.22164 6
      vertex 110.187 5.85257 0
      vertex 109.679 6.22164 0
    endloop
  endfacet
  facet normal 0.481907 0.876223 -0
    outer loop
      vertex 109.679 6.22164 0
      vertex 109.129 6.52413 6
      vertex 109.679 6.22164 6
    endloop
  endfacet
  facet normal 0.481907 0.876223 0
    outer loop
      vertex 109.129 6.52413 6
      vertex 109.679 6.22164 0
      vertex 109.129 6.52413 0
    endloop
  endfacet
  facet normal -0.684327 0.729176 0
    outer loop
      vertex -110.187 5.85257 0
      vertex -110.645 5.42274 6
      vertex -110.187 5.85257 6
    endloop
  endfacet
  facet normal -0.684327 0.729176 0
    outer loop
      vertex -110.645 5.42274 6
      vertex -110.187 5.85257 0
      vertex -110.645 5.42274 0
    endloop
  endfacet
  facet normal -0.125313 0.992117 0
    outer loop
      vertex -107.314 6.99013 0
      vertex -107.937 6.91144 6
      vertex -107.314 6.99013 6
    endloop
  endfacet
  facet normal -0.125313 0.992117 0
    outer loop
      vertex -107.937 6.91144 6
      vertex -107.314 6.99013 0
      vertex -107.937 6.91144 0
    endloop
  endfacet
  facet normal -0.982187 0.187908 0
    outer loop
      vertex -111.961 2.62667 0
      vertex -111.843 3.24345 6
      vertex -111.843 3.24345 0
    endloop
  endfacet
  facet normal -0.982187 0.187908 0
    outer loop
      vertex -111.843 3.24345 6
      vertex -111.961 2.62667 0
      vertex -111.961 2.62667 6
    endloop
  endfacet
  facet normal -0.951072 0.30897 0
    outer loop
      vertex -111.843 3.24345 0
      vertex -111.649 3.84062 6
      vertex -111.649 3.84062 0
    endloop
  endfacet
  facet normal -0.951072 0.30897 0
    outer loop
      vertex -111.649 3.84062 6
      vertex -111.843 3.24345 0
      vertex -111.843 3.24345 6
    endloop
  endfacet
  facet normal -0.982187 -0.187908 0
    outer loop
      vertex -111.843 -3.24345 0
      vertex -111.961 -2.62667 6
      vertex -111.961 -2.62667 0
    endloop
  endfacet
  facet normal -0.982187 -0.187908 0
    outer loop
      vertex -111.961 -2.62667 6
      vertex -111.843 -3.24345 0
      vertex -111.843 -3.24345 6
    endloop
  endfacet
  facet normal -0.843931 -0.536451 0
    outer loop
      vertex -111.045 -4.93893 0
      vertex -111.382 -4.40877 6
      vertex -111.382 -4.40877 0
    endloop
  endfacet
  facet normal -0.843931 -0.536451 0
    outer loop
      vertex -111.382 -4.40877 6
      vertex -111.045 -4.93893 0
      vertex -111.045 -4.93893 6
    endloop
  endfacet
  facet normal 0.843931 -0.536451 0
    outer loop
      vertex 111.045 -4.93893 6
      vertex 111.382 -4.40877 0
      vertex 111.382 -4.40877 6
    endloop
  endfacet
  facet normal 0.843931 -0.536451 0
    outer loop
      vertex 111.382 -4.40877 0
      vertex 111.045 -4.93893 6
      vertex 111.045 -4.93893 0
    endloop
  endfacet
  facet normal 0.248768 -0.968563 0
    outer loop
      vertex 107.937 -6.91144 0
      vertex 108.545 -6.75528 6
      vertex 107.937 -6.91144 6
    endloop
  endfacet
  facet normal 0.248768 -0.968563 0
    outer loop
      vertex 108.545 -6.75528 6
      vertex 107.937 -6.91144 0
      vertex 108.545 -6.75528 0
    endloop
  endfacet
  facet normal 0.843931 0.536451 0
    outer loop
      vertex 111.382 4.40877 6
      vertex 111.045 4.93893 0
      vertex 111.045 4.93893 6
    endloop
  endfacet
  facet normal 0.843931 0.536451 0
    outer loop
      vertex 111.045 4.93893 0
      vertex 111.382 4.40877 6
      vertex 111.382 4.40877 0
    endloop
  endfacet
  facet normal -0.248768 0.968563 0
    outer loop
      vertex -107.937 6.91144 0
      vertex -108.545 6.75528 6
      vertex -107.937 6.91144 6
    endloop
  endfacet
  facet normal -0.248768 0.968563 0
    outer loop
      vertex -108.545 6.75528 6
      vertex -107.937 6.91144 0
      vertex -108.545 6.75528 0
    endloop
  endfacet
  facet normal -0.843931 0.536451 0
    outer loop
      vertex -111.382 4.40877 0
      vertex -111.045 4.93893 6
      vertex -111.045 4.93893 0
    endloop
  endfacet
  facet normal -0.843931 0.536451 0
    outer loop
      vertex -111.045 4.93893 6
      vertex -111.382 4.40877 0
      vertex -111.382 4.40877 6
    endloop
  endfacet
  facet normal -0.905042 0.425321 0
    outer loop
      vertex -111.649 3.84062 0
      vertex -111.382 4.40877 6
      vertex -111.382 4.40877 0
    endloop
  endfacet
  facet normal -0.905042 0.425321 0
    outer loop
      vertex -111.382 4.40877 6
      vertex -111.649 3.84062 0
      vertex -111.649 3.84062 6
    endloop
  endfacet
  facet normal 0.982187 0.187908 0
    outer loop
      vertex 111.961 2.62667 6
      vertex 111.843 3.24345 0
      vertex 111.843 3.24345 6
    endloop
  endfacet
  facet normal 0.982187 0.187908 0
    outer loop
      vertex 111.843 3.24345 0
      vertex 111.961 2.62667 6
      vertex 111.961 2.62667 0
    endloop
  endfacet
  facet normal 0.998069 0.0621135 0
    outer loop
      vertex 112 2 6
      vertex 111.961 2.62667 0
      vertex 111.961 2.62667 6
    endloop
  endfacet
  facet normal 0.998069 0.0621135 0
    outer loop
      vertex 111.961 2.62667 0
      vertex 112 2 6
      vertex 112 2 0
    endloop
  endfacet
  facet normal 0.905042 0.425321 0
    outer loop
      vertex 111.649 3.84062 6
      vertex 111.382 4.40877 0
      vertex 111.382 4.40877 6
    endloop
  endfacet
  facet normal 0.905042 0.425321 0
    outer loop
      vertex 111.382 4.40877 0
      vertex 111.649 3.84062 6
      vertex 111.649 3.84062 0
    endloop
  endfacet
  facet normal -0.587771 0.809027 0
    outer loop
      vertex -109.679 6.22164 0
      vertex -110.187 5.85257 6
      vertex -109.679 6.22164 6
    endloop
  endfacet
  facet normal -0.587771 0.809027 0
    outer loop
      vertex -110.187 5.85257 6
      vertex -109.679 6.22164 0
      vertex -110.187 5.85257 0
    endloop
  endfacet
  facet normal -0.481907 0.876223 0
    outer loop
      vertex -109.129 6.52413 0
      vertex -109.679 6.22164 6
      vertex -109.129 6.52413 6
    endloop
  endfacet
  facet normal -0.481907 0.876223 0
    outer loop
      vertex -109.679 6.22164 6
      vertex -109.129 6.52413 0
      vertex -109.679 6.22164 0
    endloop
  endfacet
endsolid OpenSCAD_Model
