  0
SECTION
  2
BLOCKS
  0
ENDSEC
  0
SECTION
  2
ENTITIES
  0
LINE
  8
0
 10
32.9369
 20
86.0886
 11
33.5451
 21
86.2447
  0
LINE
  8
0
 10
33.5451
 20
86.2447
 11
34.1289
 21
86.4759
  0
LINE
  8
0
 10
34.1289
 20
86.4759
 11
34.6791
 21
86.7784
  0
LINE
  8
0
 10
34.6791
 20
86.7784
 11
35.1871
 21
87.1474
  0
LINE
  8
0
 10
35.1871
 20
87.1474
 11
35.6448
 21
87.5773
  0
LINE
  8
0
 10
35.6448
 20
87.5773
 11
36.0451
 21
88.0611
  0
LINE
  8
0
 10
36.0451
 20
88.0611
 11
36.3815
 21
88.5912
  0
LINE
  8
0
 10
36.3815
 20
88.5912
 11
36.6489
 21
89.1594
  0
LINE
  8
0
 10
36.6489
 20
89.1594
 11
36.8429
 21
89.7566
  0
LINE
  8
0
 10
36.8429
 20
89.7566
 11
36.9606
 21
90.3733
  0
LINE
  8
0
 10
36.9606
 20
90.3733
 11
37
 21
91
  0
LINE
  8
0
 10
37
 20
91
 11
37
 21
125
  0
LINE
  8
0
 10
37
 20
125
 11
36.9606
 21
125.627
  0
LINE
  8
0
 10
36.9606
 20
125.627
 11
36.8429
 21
126.243
  0
LINE
  8
0
 10
36.8429
 20
126.243
 11
36.6489
 21
126.841
  0
LINE
  8
0
 10
36.6489
 20
126.841
 11
36.3815
 21
127.409
  0
LINE
  8
0
 10
36.3815
 20
127.409
 11
36.0451
 21
127.939
  0
LINE
  8
0
 10
36.0451
 20
127.939
 11
35.6448
 21
128.423
  0
LINE
  8
0
 10
35.6448
 20
128.423
 11
35.1871
 21
128.853
  0
LINE
  8
0
 10
35.1871
 20
128.853
 11
34.6791
 21
129.222
  0
LINE
  8
0
 10
34.6791
 20
129.222
 11
34.1289
 21
129.524
  0
LINE
  8
0
 10
34.1289
 20
129.524
 11
33.5451
 21
129.755
  0
LINE
  8
0
 10
33.5451
 20
129.755
 11
32.9369
 21
129.911
  0
LINE
  8
0
 10
32.9369
 20
129.911
 11
32.3139
 21
129.99
  0
LINE
  8
0
 10
32.3139
 20
129.99
 11
-32.3139
 21
129.99
  0
LINE
  8
0
 10
-32.3139
 20
129.99
 11
-32.9369
 21
129.911
  0
LINE
  8
0
 10
-32.9369
 20
129.911
 11
-33.5451
 21
129.755
  0
LINE
  8
0
 10
-33.5451
 20
129.755
 11
-34.1289
 21
129.524
  0
LINE
  8
0
 10
-34.1289
 20
129.524
 11
-34.6791
 21
129.222
  0
LINE
  8
0
 10
-34.6791
 20
129.222
 11
-35.1871
 21
128.853
  0
LINE
  8
0
 10
-35.1871
 20
128.853
 11
-35.6448
 21
128.423
  0
LINE
  8
0
 10
-35.6448
 20
128.423
 11
-36.0451
 21
127.939
  0
LINE
  8
0
 10
-36.0451
 20
127.939
 11
-36.3815
 21
127.409
  0
LINE
  8
0
 10
-36.3815
 20
127.409
 11
-36.6489
 21
126.841
  0
LINE
  8
0
 10
-36.6489
 20
126.841
 11
-36.8429
 21
126.243
  0
LINE
  8
0
 10
-36.8429
 20
126.243
 11
-36.9606
 21
125.627
  0
LINE
  8
0
 10
-36.9606
 20
125.627
 11
-37
 21
125
  0
LINE
  8
0
 10
-37
 20
125
 11
-37
 21
91
  0
LINE
  8
0
 10
-37
 20
91
 11
-36.9606
 21
90.3733
  0
LINE
  8
0
 10
-36.9606
 20
90.3733
 11
-36.8429
 21
89.7566
  0
LINE
  8
0
 10
-36.8429
 20
89.7566
 11
-36.6489
 21
89.1594
  0
LINE
  8
0
 10
-36.6489
 20
89.1594
 11
-36.3815
 21
88.5912
  0
LINE
  8
0
 10
-36.3815
 20
88.5912
 11
-36.0451
 21
88.0611
  0
LINE
  8
0
 10
-36.0451
 20
88.0611
 11
-35.6448
 21
87.5773
  0
LINE
  8
0
 10
-35.6448
 20
87.5773
 11
-35.1871
 21
87.1474
  0
LINE
  8
0
 10
-35.1871
 20
87.1474
 11
-34.6791
 21
86.7784
  0
LINE
  8
0
 10
-34.6791
 20
86.7784
 11
-34.1289
 21
86.4759
  0
LINE
  8
0
 10
-34.1289
 20
86.4759
 11
-33.5451
 21
86.2447
  0
LINE
  8
0
 10
-33.5451
 20
86.2447
 11
-32.9369
 21
86.0886
  0
LINE
  8
0
 10
-32.9369
 20
86.0886
 11
-32.3139
 21
86.0099
  0
LINE
  8
0
 10
-32.3139
 20
86.0099
 11
32.3139
 21
86.0099
  0
LINE
  8
0
 10
32.3139
 20
86.0099
 11
32.9369
 21
86.0886
  0
LINE
  8
0
 10
-30.1884
 20
120.006
 11
-30.5621
 21
120.053
  0
LINE
  8
0
 10
-30.5621
 20
120.053
 11
-30.927
 21
120.147
  0
LINE
  8
0
 10
-30.927
 20
120.147
 11
-31.2773
 21
120.286
  0
LINE
  8
0
 10
-31.2773
 20
120.286
 11
-31.6075
 21
120.467
  0
LINE
  8
0
 10
-31.6075
 20
120.467
 11
-31.9123
 21
120.688
  0
LINE
  8
0
 10
-31.9123
 20
120.688
 11
-32.1869
 21
120.946
  0
LINE
  8
0
 10
-32.1869
 20
120.946
 11
-32.427
 21
121.237
  0
LINE
  8
0
 10
-32.427
 20
121.237
 11
-32.6289
 21
121.555
  0
LINE
  8
0
 10
-32.6289
 20
121.555
 11
-32.7893
 21
121.896
  0
LINE
  8
0
 10
-32.7893
 20
121.896
 11
-32.9057
 21
122.254
  0
LINE
  8
0
 10
-32.9057
 20
122.254
 11
-32.9763
 21
122.624
  0
LINE
  8
0
 10
-32.9763
 20
122.624
 11
-33
 21
123
  0
LINE
  8
0
 10
-33
 20
123
 11
-32.9763
 21
123.376
  0
LINE
  8
0
 10
-32.9763
 20
123.376
 11
-32.9057
 21
123.746
  0
LINE
  8
0
 10
-32.9057
 20
123.746
 11
-32.7893
 21
124.104
  0
LINE
  8
0
 10
-32.7893
 20
124.104
 11
-32.6289
 21
124.445
  0
LINE
  8
0
 10
-32.6289
 20
124.445
 11
-32.427
 21
124.763
  0
LINE
  8
0
 10
-32.427
 20
124.763
 11
-32.1869
 21
125.054
  0
LINE
  8
0
 10
-32.1869
 20
125.054
 11
-31.9123
 21
125.312
  0
LINE
  8
0
 10
-31.9123
 20
125.312
 11
-31.6075
 21
125.533
  0
LINE
  8
0
 10
-31.6075
 20
125.533
 11
-31.2773
 21
125.714
  0
LINE
  8
0
 10
-31.2773
 20
125.714
 11
-30.927
 21
125.853
  0
LINE
  8
0
 10
-30.927
 20
125.853
 11
-30.5621
 21
125.947
  0
LINE
  8
0
 10
-30.5621
 20
125.947
 11
-30.1884
 21
125.994
  0
LINE
  8
0
 10
-30.1884
 20
125.994
 11
-29.8116
 21
125.994
  0
LINE
  8
0
 10
-29.8116
 20
125.994
 11
-29.4379
 21
125.947
  0
LINE
  8
0
 10
-29.4379
 20
125.947
 11
-29.0729
 21
125.853
  0
LINE
  8
0
 10
-29.0729
 20
125.853
 11
-28.7227
 21
125.714
  0
LINE
  8
0
 10
-28.7227
 20
125.714
 11
-28.3925
 21
125.533
  0
LINE
  8
0
 10
-28.3925
 20
125.533
 11
-28.0877
 21
125.312
  0
LINE
  8
0
 10
-28.0877
 20
125.312
 11
-27.8131
 21
125.054
  0
LINE
  8
0
 10
-27.8131
 20
125.054
 11
-27.5729
 21
124.763
  0
LINE
  8
0
 10
-27.5729
 20
124.763
 11
-27.3711
 21
124.445
  0
LINE
  8
0
 10
-27.3711
 20
124.445
 11
-27.2107
 21
124.104
  0
LINE
  8
0
 10
-27.2107
 20
124.104
 11
-27.0942
 21
123.746
  0
LINE
  8
0
 10
-27.0942
 20
123.746
 11
-27.0237
 21
123.376
  0
LINE
  8
0
 10
-27.0237
 20
123.376
 11
-27
 21
123
  0
LINE
  8
0
 10
-27
 20
123
 11
-27.0237
 21
122.624
  0
LINE
  8
0
 10
-27.0237
 20
122.624
 11
-27.0942
 21
122.254
  0
LINE
  8
0
 10
-27.0942
 20
122.254
 11
-27.2107
 21
121.896
  0
LINE
  8
0
 10
-27.2107
 20
121.896
 11
-27.3711
 21
121.555
  0
LINE
  8
0
 10
-27.3711
 20
121.555
 11
-27.5729
 21
121.237
  0
LINE
  8
0
 10
-27.5729
 20
121.237
 11
-27.8131
 21
120.946
  0
LINE
  8
0
 10
-27.8131
 20
120.946
 11
-28.0877
 21
120.688
  0
LINE
  8
0
 10
-28.0877
 20
120.688
 11
-28.3925
 21
120.467
  0
LINE
  8
0
 10
-28.3925
 20
120.467
 11
-28.7227
 21
120.286
  0
LINE
  8
0
 10
-28.7227
 20
120.286
 11
-29.0729
 21
120.147
  0
LINE
  8
0
 10
-29.0729
 20
120.147
 11
-29.4379
 21
120.053
  0
LINE
  8
0
 10
-29.4379
 20
120.053
 11
-29.8116
 21
120.006
  0
LINE
  8
0
 10
-29.8116
 20
120.006
 11
-30.1884
 21
120.006
  0
LINE
  8
0
 10
14.8116
 20
120.006
 11
14.4379
 21
120.053
  0
LINE
  8
0
 10
14.4379
 20
120.053
 11
14.0729
 21
120.147
  0
LINE
  8
0
 10
14.0729
 20
120.147
 11
13.7227
 21
120.286
  0
LINE
  8
0
 10
13.7227
 20
120.286
 11
13.3925
 21
120.467
  0
LINE
  8
0
 10
13.3925
 20
120.467
 11
13.0877
 21
120.688
  0
LINE
  8
0
 10
13.0877
 20
120.688
 11
12.8131
 21
120.946
  0
LINE
  8
0
 10
12.8131
 20
120.946
 11
12.5729
 21
121.237
  0
LINE
  8
0
 10
12.5729
 20
121.237
 11
12.3711
 21
121.555
  0
LINE
  8
0
 10
12.3711
 20
121.555
 11
12.2107
 21
121.896
  0
LINE
  8
0
 10
12.2107
 20
121.896
 11
12.0942
 21
122.254
  0
LINE
  8
0
 10
12.0942
 20
122.254
 11
12.0237
 21
122.624
  0
LINE
  8
0
 10
12.0237
 20
122.624
 11
12
 21
123
  0
LINE
  8
0
 10
12
 20
123
 11
12.0237
 21
123.376
  0
LINE
  8
0
 10
12.0237
 20
123.376
 11
12.0942
 21
123.746
  0
LINE
  8
0
 10
12.0942
 20
123.746
 11
12.2107
 21
124.104
  0
LINE
  8
0
 10
12.2107
 20
124.104
 11
12.3711
 21
124.445
  0
LINE
  8
0
 10
12.3711
 20
124.445
 11
12.5729
 21
124.763
  0
LINE
  8
0
 10
12.5729
 20
124.763
 11
12.8131
 21
125.054
  0
LINE
  8
0
 10
12.8131
 20
125.054
 11
13.0877
 21
125.312
  0
LINE
  8
0
 10
13.0877
 20
125.312
 11
13.3925
 21
125.533
  0
LINE
  8
0
 10
13.3925
 20
125.533
 11
13.7227
 21
125.714
  0
LINE
  8
0
 10
13.7227
 20
125.714
 11
14.0729
 21
125.853
  0
LINE
  8
0
 10
14.0729
 20
125.853
 11
14.4379
 21
125.947
  0
LINE
  8
0
 10
14.4379
 20
125.947
 11
14.8116
 21
125.994
  0
LINE
  8
0
 10
14.8116
 20
125.994
 11
15.1884
 21
125.994
  0
LINE
  8
0
 10
15.1884
 20
125.994
 11
15.5621
 21
125.947
  0
LINE
  8
0
 10
15.5621
 20
125.947
 11
15.927
 21
125.853
  0
LINE
  8
0
 10
15.927
 20
125.853
 11
16.2773
 21
125.714
  0
LINE
  8
0
 10
16.2773
 20
125.714
 11
16.6075
 21
125.533
  0
LINE
  8
0
 10
16.6075
 20
125.533
 11
16.9123
 21
125.312
  0
LINE
  8
0
 10
16.9123
 20
125.312
 11
17.1869
 21
125.054
  0
LINE
  8
0
 10
17.1869
 20
125.054
 11
17.427
 21
124.763
  0
LINE
  8
0
 10
17.427
 20
124.763
 11
17.6289
 21
124.445
  0
LINE
  8
0
 10
17.6289
 20
124.445
 11
17.7893
 21
124.104
  0
LINE
  8
0
 10
17.7893
 20
124.104
 11
17.9057
 21
123.746
  0
LINE
  8
0
 10
17.9057
 20
123.746
 11
17.9763
 21
123.376
  0
LINE
  8
0
 10
17.9763
 20
123.376
 11
18
 21
123
  0
LINE
  8
0
 10
18
 20
123
 11
17.9763
 21
122.624
  0
LINE
  8
0
 10
17.9763
 20
122.624
 11
17.9057
 21
122.254
  0
LINE
  8
0
 10
17.9057
 20
122.254
 11
17.7893
 21
121.896
  0
LINE
  8
0
 10
17.7893
 20
121.896
 11
17.6289
 21
121.555
  0
LINE
  8
0
 10
17.6289
 20
121.555
 11
17.427
 21
121.237
  0
LINE
  8
0
 10
17.427
 20
121.237
 11
17.1869
 21
120.946
  0
LINE
  8
0
 10
17.1869
 20
120.946
 11
16.9123
 21
120.688
  0
LINE
  8
0
 10
16.9123
 20
120.688
 11
16.6075
 21
120.467
  0
LINE
  8
0
 10
16.6075
 20
120.467
 11
16.2773
 21
120.286
  0
LINE
  8
0
 10
16.2773
 20
120.286
 11
15.927
 21
120.147
  0
LINE
  8
0
 10
15.927
 20
120.147
 11
15.5621
 21
120.053
  0
LINE
  8
0
 10
15.5621
 20
120.053
 11
15.1884
 21
120.006
  0
LINE
  8
0
 10
15.1884
 20
120.006
 11
14.8116
 21
120.006
  0
LINE
  8
0
 10
-15.1884
 20
120.006
 11
-15.5621
 21
120.053
  0
LINE
  8
0
 10
-15.5621
 20
120.053
 11
-15.927
 21
120.147
  0
LINE
  8
0
 10
-15.927
 20
120.147
 11
-16.2773
 21
120.286
  0
LINE
  8
0
 10
-16.2773
 20
120.286
 11
-16.6075
 21
120.467
  0
LINE
  8
0
 10
-16.6075
 20
120.467
 11
-16.9123
 21
120.688
  0
LINE
  8
0
 10
-16.9123
 20
120.688
 11
-17.1869
 21
120.946
  0
LINE
  8
0
 10
-17.1869
 20
120.946
 11
-17.427
 21
121.237
  0
LINE
  8
0
 10
-17.427
 20
121.237
 11
-17.6289
 21
121.555
  0
LINE
  8
0
 10
-17.6289
 20
121.555
 11
-17.7893
 21
121.896
  0
LINE
  8
0
 10
-17.7893
 20
121.896
 11
-17.9057
 21
122.254
  0
LINE
  8
0
 10
-17.9057
 20
122.254
 11
-17.9763
 21
122.624
  0
LINE
  8
0
 10
-17.9763
 20
122.624
 11
-18
 21
123
  0
LINE
  8
0
 10
-18
 20
123
 11
-17.9763
 21
123.376
  0
LINE
  8
0
 10
-17.9763
 20
123.376
 11
-17.9057
 21
123.746
  0
LINE
  8
0
 10
-17.9057
 20
123.746
 11
-17.7893
 21
124.104
  0
LINE
  8
0
 10
-17.7893
 20
124.104
 11
-17.6289
 21
124.445
  0
LINE
  8
0
 10
-17.6289
 20
124.445
 11
-17.427
 21
124.763
  0
LINE
  8
0
 10
-17.427
 20
124.763
 11
-17.1869
 21
125.054
  0
LINE
  8
0
 10
-17.1869
 20
125.054
 11
-16.9123
 21
125.312
  0
LINE
  8
0
 10
-16.9123
 20
125.312
 11
-16.6075
 21
125.533
  0
LINE
  8
0
 10
-16.6075
 20
125.533
 11
-16.2773
 21
125.714
  0
LINE
  8
0
 10
-16.2773
 20
125.714
 11
-15.927
 21
125.853
  0
LINE
  8
0
 10
-15.927
 20
125.853
 11
-15.5621
 21
125.947
  0
LINE
  8
0
 10
-15.5621
 20
125.947
 11
-15.1884
 21
125.994
  0
LINE
  8
0
 10
-15.1884
 20
125.994
 11
-14.8116
 21
125.994
  0
LINE
  8
0
 10
-14.8116
 20
125.994
 11
-14.4379
 21
125.947
  0
LINE
  8
0
 10
-14.4379
 20
125.947
 11
-14.0729
 21
125.853
  0
LINE
  8
0
 10
-14.0729
 20
125.853
 11
-13.7227
 21
125.714
  0
LINE
  8
0
 10
-13.7227
 20
125.714
 11
-13.3925
 21
125.533
  0
LINE
  8
0
 10
-13.3925
 20
125.533
 11
-13.0877
 21
125.312
  0
LINE
  8
0
 10
-13.0877
 20
125.312
 11
-12.8131
 21
125.054
  0
LINE
  8
0
 10
-12.8131
 20
125.054
 11
-12.5729
 21
124.763
  0
LINE
  8
0
 10
-12.5729
 20
124.763
 11
-12.3711
 21
124.445
  0
LINE
  8
0
 10
-12.3711
 20
124.445
 11
-12.2107
 21
124.104
  0
LINE
  8
0
 10
-12.2107
 20
124.104
 11
-12.0942
 21
123.746
  0
LINE
  8
0
 10
-12.0942
 20
123.746
 11
-12.0237
 21
123.376
  0
LINE
  8
0
 10
-12.0237
 20
123.376
 11
-12
 21
123
  0
LINE
  8
0
 10
-12
 20
123
 11
-12.0237
 21
122.624
  0
LINE
  8
0
 10
-12.0237
 20
122.624
 11
-12.0942
 21
122.254
  0
LINE
  8
0
 10
-12.0942
 20
122.254
 11
-12.2107
 21
121.896
  0
LINE
  8
0
 10
-12.2107
 20
121.896
 11
-12.3711
 21
121.555
  0
LINE
  8
0
 10
-12.3711
 20
121.555
 11
-12.5729
 21
121.237
  0
LINE
  8
0
 10
-12.5729
 20
121.237
 11
-12.8131
 21
120.946
  0
LINE
  8
0
 10
-12.8131
 20
120.946
 11
-13.0877
 21
120.688
  0
LINE
  8
0
 10
-13.0877
 20
120.688
 11
-13.3925
 21
120.467
  0
LINE
  8
0
 10
-13.3925
 20
120.467
 11
-13.7227
 21
120.286
  0
LINE
  8
0
 10
-13.7227
 20
120.286
 11
-14.0729
 21
120.147
  0
LINE
  8
0
 10
-14.0729
 20
120.147
 11
-14.4379
 21
120.053
  0
LINE
  8
0
 10
-14.4379
 20
120.053
 11
-14.8116
 21
120.006
  0
LINE
  8
0
 10
-14.8116
 20
120.006
 11
-15.1884
 21
120.006
  0
LINE
  8
0
 10
29.8116
 20
120.006
 11
29.4379
 21
120.053
  0
LINE
  8
0
 10
29.4379
 20
120.053
 11
29.0729
 21
120.147
  0
LINE
  8
0
 10
29.0729
 20
120.147
 11
28.7227
 21
120.286
  0
LINE
  8
0
 10
28.7227
 20
120.286
 11
28.3925
 21
120.467
  0
LINE
  8
0
 10
28.3925
 20
120.467
 11
28.0877
 21
120.688
  0
LINE
  8
0
 10
28.0877
 20
120.688
 11
27.8131
 21
120.946
  0
LINE
  8
0
 10
27.8131
 20
120.946
 11
27.5729
 21
121.237
  0
LINE
  8
0
 10
27.5729
 20
121.237
 11
27.3711
 21
121.555
  0
LINE
  8
0
 10
27.3711
 20
121.555
 11
27.2107
 21
121.896
  0
LINE
  8
0
 10
27.2107
 20
121.896
 11
27.0942
 21
122.254
  0
LINE
  8
0
 10
27.0942
 20
122.254
 11
27.0237
 21
122.624
  0
LINE
  8
0
 10
27.0237
 20
122.624
 11
27
 21
123
  0
LINE
  8
0
 10
27
 20
123
 11
27.0237
 21
123.376
  0
LINE
  8
0
 10
27.0237
 20
123.376
 11
27.0942
 21
123.746
  0
LINE
  8
0
 10
27.0942
 20
123.746
 11
27.2107
 21
124.104
  0
LINE
  8
0
 10
27.2107
 20
124.104
 11
27.3711
 21
124.445
  0
LINE
  8
0
 10
27.3711
 20
124.445
 11
27.5729
 21
124.763
  0
LINE
  8
0
 10
27.5729
 20
124.763
 11
27.8131
 21
125.054
  0
LINE
  8
0
 10
27.8131
 20
125.054
 11
28.0877
 21
125.312
  0
LINE
  8
0
 10
28.0877
 20
125.312
 11
28.3925
 21
125.533
  0
LINE
  8
0
 10
28.3925
 20
125.533
 11
28.7227
 21
125.714
  0
LINE
  8
0
 10
28.7227
 20
125.714
 11
29.0729
 21
125.853
  0
LINE
  8
0
 10
29.0729
 20
125.853
 11
29.4379
 21
125.947
  0
LINE
  8
0
 10
29.4379
 20
125.947
 11
29.8116
 21
125.994
  0
LINE
  8
0
 10
29.8116
 20
125.994
 11
30.1884
 21
125.994
  0
LINE
  8
0
 10
30.1884
 20
125.994
 11
30.5621
 21
125.947
  0
LINE
  8
0
 10
30.5621
 20
125.947
 11
30.927
 21
125.853
  0
LINE
  8
0
 10
30.927
 20
125.853
 11
31.2773
 21
125.714
  0
LINE
  8
0
 10
31.2773
 20
125.714
 11
31.6075
 21
125.533
  0
LINE
  8
0
 10
31.6075
 20
125.533
 11
31.9123
 21
125.312
  0
LINE
  8
0
 10
31.9123
 20
125.312
 11
32.1869
 21
125.054
  0
LINE
  8
0
 10
32.1869
 20
125.054
 11
32.427
 21
124.763
  0
LINE
  8
0
 10
32.427
 20
124.763
 11
32.6289
 21
124.445
  0
LINE
  8
0
 10
32.6289
 20
124.445
 11
32.7893
 21
124.104
  0
LINE
  8
0
 10
32.7893
 20
124.104
 11
32.9057
 21
123.746
  0
LINE
  8
0
 10
32.9057
 20
123.746
 11
32.9763
 21
123.376
  0
LINE
  8
0
 10
32.9763
 20
123.376
 11
33
 21
123
  0
LINE
  8
0
 10
33
 20
123
 11
32.9763
 21
122.624
  0
LINE
  8
0
 10
32.9763
 20
122.624
 11
32.9057
 21
122.254
  0
LINE
  8
0
 10
32.9057
 20
122.254
 11
32.7893
 21
121.896
  0
LINE
  8
0
 10
32.7893
 20
121.896
 11
32.6289
 21
121.555
  0
LINE
  8
0
 10
32.6289
 20
121.555
 11
32.427
 21
121.237
  0
LINE
  8
0
 10
32.427
 20
121.237
 11
32.1869
 21
120.946
  0
LINE
  8
0
 10
32.1869
 20
120.946
 11
31.9123
 21
120.688
  0
LINE
  8
0
 10
31.9123
 20
120.688
 11
31.6075
 21
120.467
  0
LINE
  8
0
 10
31.6075
 20
120.467
 11
31.2773
 21
120.286
  0
LINE
  8
0
 10
31.2773
 20
120.286
 11
30.927
 21
120.147
  0
LINE
  8
0
 10
30.927
 20
120.147
 11
30.5621
 21
120.053
  0
LINE
  8
0
 10
30.5621
 20
120.053
 11
30.1884
 21
120.006
  0
LINE
  8
0
 10
30.1884
 20
120.006
 11
29.8116
 21
120.006
  0
LINE
  8
0
 10
-0.18837
 20
120.006
 11
-0.562134
 21
120.053
  0
LINE
  8
0
 10
-0.562134
 20
120.053
 11
-0.927048
 21
120.147
  0
LINE
  8
0
 10
-0.927048
 20
120.147
 11
-1.27733
 21
120.286
  0
LINE
  8
0
 10
-1.27733
 20
120.286
 11
-1.60747
 21
120.467
  0
LINE
  8
0
 10
-1.60747
 20
120.467
 11
-1.91226
 21
120.688
  0
LINE
  8
0
 10
-1.91226
 20
120.688
 11
-2.1869
 21
120.946
  0
LINE
  8
0
 10
-2.1869
 20
120.946
 11
-2.42705
 21
121.237
  0
LINE
  8
0
 10
-2.42705
 20
121.237
 11
-2.62891
 21
121.555
  0
LINE
  8
0
 10
-2.62891
 20
121.555
 11
-2.78932
 21
121.896
  0
LINE
  8
0
 10
-2.78932
 20
121.896
 11
-2.90575
 21
122.254
  0
LINE
  8
0
 10
-2.90575
 20
122.254
 11
-2.97633
 21
122.624
  0
LINE
  8
0
 10
-2.97633
 20
122.624
 11
-3
 21
123
  0
LINE
  8
0
 10
-3
 20
123
 11
-2.97633
 21
123.376
  0
LINE
  8
0
 10
-2.97633
 20
123.376
 11
-2.90575
 21
123.746
  0
LINE
  8
0
 10
-2.90575
 20
123.746
 11
-2.78932
 21
124.104
  0
LINE
  8
0
 10
-2.78932
 20
124.104
 11
-2.62891
 21
124.445
  0
LINE
  8
0
 10
-2.62891
 20
124.445
 11
-2.42705
 21
124.763
  0
LINE
  8
0
 10
-2.42705
 20
124.763
 11
-2.1869
 21
125.054
  0
LINE
  8
0
 10
-2.1869
 20
125.054
 11
-1.91226
 21
125.312
  0
LINE
  8
0
 10
-1.91226
 20
125.312
 11
-1.60747
 21
125.533
  0
LINE
  8
0
 10
-1.60747
 20
125.533
 11
-1.27733
 21
125.714
  0
LINE
  8
0
 10
-1.27733
 20
125.714
 11
-0.927048
 21
125.853
  0
LINE
  8
0
 10
-0.927048
 20
125.853
 11
-0.562134
 21
125.947
  0
LINE
  8
0
 10
-0.562134
 20
125.947
 11
-0.18837
 21
125.994
  0
LINE
  8
0
 10
-0.18837
 20
125.994
 11
0.18837
 21
125.994
  0
LINE
  8
0
 10
0.18837
 20
125.994
 11
0.562134
 21
125.947
  0
LINE
  8
0
 10
0.562134
 20
125.947
 11
0.927048
 21
125.853
  0
LINE
  8
0
 10
0.927048
 20
125.853
 11
1.27733
 21
125.714
  0
LINE
  8
0
 10
1.27733
 20
125.714
 11
1.60747
 21
125.533
  0
LINE
  8
0
 10
1.60747
 20
125.533
 11
1.91226
 21
125.312
  0
LINE
  8
0
 10
1.91226
 20
125.312
 11
2.1869
 21
125.054
  0
LINE
  8
0
 10
2.1869
 20
125.054
 11
2.42705
 21
124.763
  0
LINE
  8
0
 10
2.42705
 20
124.763
 11
2.62891
 21
124.445
  0
LINE
  8
0
 10
2.62891
 20
124.445
 11
2.78932
 21
124.104
  0
LINE
  8
0
 10
2.78932
 20
124.104
 11
2.90575
 21
123.746
  0
LINE
  8
0
 10
2.90575
 20
123.746
 11
2.97633
 21
123.376
  0
LINE
  8
0
 10
2.97633
 20
123.376
 11
3
 21
123
  0
LINE
  8
0
 10
3
 20
123
 11
2.97633
 21
122.624
  0
LINE
  8
0
 10
2.97633
 20
122.624
 11
2.90575
 21
122.254
  0
LINE
  8
0
 10
2.90575
 20
122.254
 11
2.78932
 21
121.896
  0
LINE
  8
0
 10
2.78932
 20
121.896
 11
2.62891
 21
121.555
  0
LINE
  8
0
 10
2.62891
 20
121.555
 11
2.42705
 21
121.237
  0
LINE
  8
0
 10
2.42705
 20
121.237
 11
2.1869
 21
120.946
  0
LINE
  8
0
 10
2.1869
 20
120.946
 11
1.91226
 21
120.688
  0
LINE
  8
0
 10
1.91226
 20
120.688
 11
1.60747
 21
120.467
  0
LINE
  8
0
 10
1.60747
 20
120.467
 11
1.27733
 21
120.286
  0
LINE
  8
0
 10
1.27733
 20
120.286
 11
0.927048
 21
120.147
  0
LINE
  8
0
 10
0.927048
 20
120.147
 11
0.562134
 21
120.053
  0
LINE
  8
0
 10
0.562134
 20
120.053
 11
0.18837
 21
120.006
  0
LINE
  8
0
 10
0.18837
 20
120.006
 11
-0.18837
 21
120.006
  0
LINE
  8
0
 10
-30.1884
 20
105.006
 11
-30.5621
 21
105.053
  0
LINE
  8
0
 10
-30.5621
 20
105.053
 11
-30.927
 21
105.147
  0
LINE
  8
0
 10
-30.927
 20
105.147
 11
-31.2773
 21
105.286
  0
LINE
  8
0
 10
-31.2773
 20
105.286
 11
-31.6075
 21
105.467
  0
LINE
  8
0
 10
-31.6075
 20
105.467
 11
-31.9123
 21
105.688
  0
LINE
  8
0
 10
-31.9123
 20
105.688
 11
-32.1869
 21
105.946
  0
LINE
  8
0
 10
-32.1869
 20
105.946
 11
-32.427
 21
106.237
  0
LINE
  8
0
 10
-32.427
 20
106.237
 11
-32.6289
 21
106.555
  0
LINE
  8
0
 10
-32.6289
 20
106.555
 11
-32.7893
 21
106.896
  0
LINE
  8
0
 10
-32.7893
 20
106.896
 11
-32.9057
 21
107.254
  0
LINE
  8
0
 10
-32.9057
 20
107.254
 11
-32.9763
 21
107.624
  0
LINE
  8
0
 10
-32.9763
 20
107.624
 11
-33
 21
108
  0
LINE
  8
0
 10
-33
 20
108
 11
-32.9763
 21
108.376
  0
LINE
  8
0
 10
-32.9763
 20
108.376
 11
-32.9057
 21
108.746
  0
LINE
  8
0
 10
-32.9057
 20
108.746
 11
-32.7893
 21
109.104
  0
LINE
  8
0
 10
-32.7893
 20
109.104
 11
-32.6289
 21
109.445
  0
LINE
  8
0
 10
-32.6289
 20
109.445
 11
-32.427
 21
109.763
  0
LINE
  8
0
 10
-32.427
 20
109.763
 11
-32.1869
 21
110.054
  0
LINE
  8
0
 10
-32.1869
 20
110.054
 11
-31.9123
 21
110.312
  0
LINE
  8
0
 10
-31.9123
 20
110.312
 11
-31.6075
 21
110.533
  0
LINE
  8
0
 10
-31.6075
 20
110.533
 11
-31.2773
 21
110.714
  0
LINE
  8
0
 10
-31.2773
 20
110.714
 11
-30.927
 21
110.853
  0
LINE
  8
0
 10
-30.927
 20
110.853
 11
-30.5621
 21
110.947
  0
LINE
  8
0
 10
-30.5621
 20
110.947
 11
-30.1884
 21
110.994
  0
LINE
  8
0
 10
-30.1884
 20
110.994
 11
-29.8116
 21
110.994
  0
LINE
  8
0
 10
-29.8116
 20
110.994
 11
-29.4379
 21
110.947
  0
LINE
  8
0
 10
-29.4379
 20
110.947
 11
-29.0729
 21
110.853
  0
LINE
  8
0
 10
-29.0729
 20
110.853
 11
-28.7227
 21
110.714
  0
LINE
  8
0
 10
-28.7227
 20
110.714
 11
-28.3925
 21
110.533
  0
LINE
  8
0
 10
-28.3925
 20
110.533
 11
-28.0877
 21
110.312
  0
LINE
  8
0
 10
-28.0877
 20
110.312
 11
-27.8131
 21
110.054
  0
LINE
  8
0
 10
-27.8131
 20
110.054
 11
-27.5729
 21
109.763
  0
LINE
  8
0
 10
-27.5729
 20
109.763
 11
-27.3711
 21
109.445
  0
LINE
  8
0
 10
-27.3711
 20
109.445
 11
-27.2107
 21
109.104
  0
LINE
  8
0
 10
-27.2107
 20
109.104
 11
-27.0942
 21
108.746
  0
LINE
  8
0
 10
-27.0942
 20
108.746
 11
-27.0237
 21
108.376
  0
LINE
  8
0
 10
-27.0237
 20
108.376
 11
-27
 21
108
  0
LINE
  8
0
 10
-27
 20
108
 11
-27.0237
 21
107.624
  0
LINE
  8
0
 10
-27.0237
 20
107.624
 11
-27.0942
 21
107.254
  0
LINE
  8
0
 10
-27.0942
 20
107.254
 11
-27.2107
 21
106.896
  0
LINE
  8
0
 10
-27.2107
 20
106.896
 11
-27.3711
 21
106.555
  0
LINE
  8
0
 10
-27.3711
 20
106.555
 11
-27.5729
 21
106.237
  0
LINE
  8
0
 10
-27.5729
 20
106.237
 11
-27.8131
 21
105.946
  0
LINE
  8
0
 10
-27.8131
 20
105.946
 11
-28.0877
 21
105.688
  0
LINE
  8
0
 10
-28.0877
 20
105.688
 11
-28.3925
 21
105.467
  0
LINE
  8
0
 10
-28.3925
 20
105.467
 11
-28.7227
 21
105.286
  0
LINE
  8
0
 10
-28.7227
 20
105.286
 11
-29.0729
 21
105.147
  0
LINE
  8
0
 10
-29.0729
 20
105.147
 11
-29.4379
 21
105.053
  0
LINE
  8
0
 10
-29.4379
 20
105.053
 11
-29.8116
 21
105.006
  0
LINE
  8
0
 10
-29.8116
 20
105.006
 11
-30.1884
 21
105.006
  0
LINE
  8
0
 10
29.8116
 20
105.006
 11
29.4379
 21
105.053
  0
LINE
  8
0
 10
29.4379
 20
105.053
 11
29.0729
 21
105.147
  0
LINE
  8
0
 10
29.0729
 20
105.147
 11
28.7227
 21
105.286
  0
LINE
  8
0
 10
28.7227
 20
105.286
 11
28.3925
 21
105.467
  0
LINE
  8
0
 10
28.3925
 20
105.467
 11
28.0877
 21
105.688
  0
LINE
  8
0
 10
28.0877
 20
105.688
 11
27.8131
 21
105.946
  0
LINE
  8
0
 10
27.8131
 20
105.946
 11
27.5729
 21
106.237
  0
LINE
  8
0
 10
27.5729
 20
106.237
 11
27.3711
 21
106.555
  0
LINE
  8
0
 10
27.3711
 20
106.555
 11
27.2107
 21
106.896
  0
LINE
  8
0
 10
27.2107
 20
106.896
 11
27.0942
 21
107.254
  0
LINE
  8
0
 10
27.0942
 20
107.254
 11
27.0237
 21
107.624
  0
LINE
  8
0
 10
27.0237
 20
107.624
 11
27
 21
108
  0
LINE
  8
0
 10
27
 20
108
 11
27.0237
 21
108.376
  0
LINE
  8
0
 10
27.0237
 20
108.376
 11
27.0942
 21
108.746
  0
LINE
  8
0
 10
27.0942
 20
108.746
 11
27.2107
 21
109.104
  0
LINE
  8
0
 10
27.2107
 20
109.104
 11
27.3711
 21
109.445
  0
LINE
  8
0
 10
27.3711
 20
109.445
 11
27.5729
 21
109.763
  0
LINE
  8
0
 10
27.5729
 20
109.763
 11
27.8131
 21
110.054
  0
LINE
  8
0
 10
27.8131
 20
110.054
 11
28.0877
 21
110.312
  0
LINE
  8
0
 10
28.0877
 20
110.312
 11
28.3925
 21
110.533
  0
LINE
  8
0
 10
28.3925
 20
110.533
 11
28.7227
 21
110.714
  0
LINE
  8
0
 10
28.7227
 20
110.714
 11
29.0729
 21
110.853
  0
LINE
  8
0
 10
29.0729
 20
110.853
 11
29.4379
 21
110.947
  0
LINE
  8
0
 10
29.4379
 20
110.947
 11
29.8116
 21
110.994
  0
LINE
  8
0
 10
29.8116
 20
110.994
 11
30.1884
 21
110.994
  0
LINE
  8
0
 10
30.1884
 20
110.994
 11
30.5621
 21
110.947
  0
LINE
  8
0
 10
30.5621
 20
110.947
 11
30.927
 21
110.853
  0
LINE
  8
0
 10
30.927
 20
110.853
 11
31.2773
 21
110.714
  0
LINE
  8
0
 10
31.2773
 20
110.714
 11
31.6075
 21
110.533
  0
LINE
  8
0
 10
31.6075
 20
110.533
 11
31.9123
 21
110.312
  0
LINE
  8
0
 10
31.9123
 20
110.312
 11
32.1869
 21
110.054
  0
LINE
  8
0
 10
32.1869
 20
110.054
 11
32.427
 21
109.763
  0
LINE
  8
0
 10
32.427
 20
109.763
 11
32.6289
 21
109.445
  0
LINE
  8
0
 10
32.6289
 20
109.445
 11
32.7893
 21
109.104
  0
LINE
  8
0
 10
32.7893
 20
109.104
 11
32.9057
 21
108.746
  0
LINE
  8
0
 10
32.9057
 20
108.746
 11
32.9763
 21
108.376
  0
LINE
  8
0
 10
32.9763
 20
108.376
 11
33
 21
108
  0
LINE
  8
0
 10
33
 20
108
 11
32.9763
 21
107.624
  0
LINE
  8
0
 10
32.9763
 20
107.624
 11
32.9057
 21
107.254
  0
LINE
  8
0
 10
32.9057
 20
107.254
 11
32.7893
 21
106.896
  0
LINE
  8
0
 10
32.7893
 20
106.896
 11
32.6289
 21
106.555
  0
LINE
  8
0
 10
32.6289
 20
106.555
 11
32.427
 21
106.237
  0
LINE
  8
0
 10
32.427
 20
106.237
 11
32.1869
 21
105.946
  0
LINE
  8
0
 10
32.1869
 20
105.946
 11
31.9123
 21
105.688
  0
LINE
  8
0
 10
31.9123
 20
105.688
 11
31.6075
 21
105.467
  0
LINE
  8
0
 10
31.6075
 20
105.467
 11
31.2773
 21
105.286
  0
LINE
  8
0
 10
31.2773
 20
105.286
 11
30.927
 21
105.147
  0
LINE
  8
0
 10
30.927
 20
105.147
 11
30.5621
 21
105.053
  0
LINE
  8
0
 10
30.5621
 20
105.053
 11
30.1884
 21
105.006
  0
LINE
  8
0
 10
30.1884
 20
105.006
 11
29.8116
 21
105.006
  0
LINE
  8
0
 10
-0.18837
 20
105.006
 11
-0.562134
 21
105.053
  0
LINE
  8
0
 10
-0.562134
 20
105.053
 11
-0.927048
 21
105.147
  0
LINE
  8
0
 10
-0.927048
 20
105.147
 11
-1.27733
 21
105.286
  0
LINE
  8
0
 10
-1.27733
 20
105.286
 11
-1.60747
 21
105.467
  0
LINE
  8
0
 10
-1.60747
 20
105.467
 11
-1.91226
 21
105.688
  0
LINE
  8
0
 10
-1.91226
 20
105.688
 11
-2.1869
 21
105.946
  0
LINE
  8
0
 10
-2.1869
 20
105.946
 11
-2.42705
 21
106.237
  0
LINE
  8
0
 10
-2.42705
 20
106.237
 11
-2.62891
 21
106.555
  0
LINE
  8
0
 10
-2.62891
 20
106.555
 11
-2.78932
 21
106.896
  0
LINE
  8
0
 10
-2.78932
 20
106.896
 11
-2.90575
 21
107.254
  0
LINE
  8
0
 10
-2.90575
 20
107.254
 11
-2.97633
 21
107.624
  0
LINE
  8
0
 10
-2.97633
 20
107.624
 11
-3
 21
108
  0
LINE
  8
0
 10
-3
 20
108
 11
-2.97633
 21
108.376
  0
LINE
  8
0
 10
-2.97633
 20
108.376
 11
-2.90575
 21
108.746
  0
LINE
  8
0
 10
-2.90575
 20
108.746
 11
-2.78932
 21
109.104
  0
LINE
  8
0
 10
-2.78932
 20
109.104
 11
-2.62891
 21
109.445
  0
LINE
  8
0
 10
-2.62891
 20
109.445
 11
-2.42705
 21
109.763
  0
LINE
  8
0
 10
-2.42705
 20
109.763
 11
-2.1869
 21
110.054
  0
LINE
  8
0
 10
-2.1869
 20
110.054
 11
-1.91226
 21
110.312
  0
LINE
  8
0
 10
-1.91226
 20
110.312
 11
-1.60747
 21
110.533
  0
LINE
  8
0
 10
-1.60747
 20
110.533
 11
-1.27733
 21
110.714
  0
LINE
  8
0
 10
-1.27733
 20
110.714
 11
-0.927048
 21
110.853
  0
LINE
  8
0
 10
-0.927048
 20
110.853
 11
-0.562134
 21
110.947
  0
LINE
  8
0
 10
-0.562134
 20
110.947
 11
-0.18837
 21
110.994
  0
LINE
  8
0
 10
-0.18837
 20
110.994
 11
0.18837
 21
110.994
  0
LINE
  8
0
 10
0.18837
 20
110.994
 11
0.562134
 21
110.947
  0
LINE
  8
0
 10
0.562134
 20
110.947
 11
0.927048
 21
110.853
  0
LINE
  8
0
 10
0.927048
 20
110.853
 11
1.27733
 21
110.714
  0
LINE
  8
0
 10
1.27733
 20
110.714
 11
1.60747
 21
110.533
  0
LINE
  8
0
 10
1.60747
 20
110.533
 11
1.91226
 21
110.312
  0
LINE
  8
0
 10
1.91226
 20
110.312
 11
2.1869
 21
110.054
  0
LINE
  8
0
 10
2.1869
 20
110.054
 11
2.42705
 21
109.763
  0
LINE
  8
0
 10
2.42705
 20
109.763
 11
2.62891
 21
109.445
  0
LINE
  8
0
 10
2.62891
 20
109.445
 11
2.78932
 21
109.104
  0
LINE
  8
0
 10
2.78932
 20
109.104
 11
2.90575
 21
108.746
  0
LINE
  8
0
 10
2.90575
 20
108.746
 11
2.97633
 21
108.376
  0
LINE
  8
0
 10
2.97633
 20
108.376
 11
3
 21
108
  0
LINE
  8
0
 10
3
 20
108
 11
2.97633
 21
107.624
  0
LINE
  8
0
 10
2.97633
 20
107.624
 11
2.90575
 21
107.254
  0
LINE
  8
0
 10
2.90575
 20
107.254
 11
2.78932
 21
106.896
  0
LINE
  8
0
 10
2.78932
 20
106.896
 11
2.62891
 21
106.555
  0
LINE
  8
0
 10
2.62891
 20
106.555
 11
2.42705
 21
106.237
  0
LINE
  8
0
 10
2.42705
 20
106.237
 11
2.1869
 21
105.946
  0
LINE
  8
0
 10
2.1869
 20
105.946
 11
1.91226
 21
105.688
  0
LINE
  8
0
 10
1.91226
 20
105.688
 11
1.60747
 21
105.467
  0
LINE
  8
0
 10
1.60747
 20
105.467
 11
1.27733
 21
105.286
  0
LINE
  8
0
 10
1.27733
 20
105.286
 11
0.927048
 21
105.147
  0
LINE
  8
0
 10
0.927048
 20
105.147
 11
0.562134
 21
105.053
  0
LINE
  8
0
 10
0.562134
 20
105.053
 11
0.18837
 21
105.006
  0
LINE
  8
0
 10
0.18837
 20
105.006
 11
-0.18837
 21
105.006
  0
LINE
  8
0
 10
14.8116
 20
105.006
 11
14.4379
 21
105.053
  0
LINE
  8
0
 10
14.4379
 20
105.053
 11
14.0729
 21
105.147
  0
LINE
  8
0
 10
14.0729
 20
105.147
 11
13.7227
 21
105.286
  0
LINE
  8
0
 10
13.7227
 20
105.286
 11
13.3925
 21
105.467
  0
LINE
  8
0
 10
13.3925
 20
105.467
 11
13.0877
 21
105.688
  0
LINE
  8
0
 10
13.0877
 20
105.688
 11
12.8131
 21
105.946
  0
LINE
  8
0
 10
12.8131
 20
105.946
 11
12.5729
 21
106.237
  0
LINE
  8
0
 10
12.5729
 20
106.237
 11
12.3711
 21
106.555
  0
LINE
  8
0
 10
12.3711
 20
106.555
 11
12.2107
 21
106.896
  0
LINE
  8
0
 10
12.2107
 20
106.896
 11
12.0942
 21
107.254
  0
LINE
  8
0
 10
12.0942
 20
107.254
 11
12.0237
 21
107.624
  0
LINE
  8
0
 10
12.0237
 20
107.624
 11
12
 21
108
  0
LINE
  8
0
 10
12
 20
108
 11
12.0237
 21
108.376
  0
LINE
  8
0
 10
12.0237
 20
108.376
 11
12.0942
 21
108.746
  0
LINE
  8
0
 10
12.0942
 20
108.746
 11
12.2107
 21
109.104
  0
LINE
  8
0
 10
12.2107
 20
109.104
 11
12.3711
 21
109.445
  0
LINE
  8
0
 10
12.3711
 20
109.445
 11
12.5729
 21
109.763
  0
LINE
  8
0
 10
12.5729
 20
109.763
 11
12.8131
 21
110.054
  0
LINE
  8
0
 10
12.8131
 20
110.054
 11
13.0877
 21
110.312
  0
LINE
  8
0
 10
13.0877
 20
110.312
 11
13.3925
 21
110.533
  0
LINE
  8
0
 10
13.3925
 20
110.533
 11
13.7227
 21
110.714
  0
LINE
  8
0
 10
13.7227
 20
110.714
 11
14.0729
 21
110.853
  0
LINE
  8
0
 10
14.0729
 20
110.853
 11
14.4379
 21
110.947
  0
LINE
  8
0
 10
14.4379
 20
110.947
 11
14.8116
 21
110.994
  0
LINE
  8
0
 10
14.8116
 20
110.994
 11
15.1884
 21
110.994
  0
LINE
  8
0
 10
15.1884
 20
110.994
 11
15.5621
 21
110.947
  0
LINE
  8
0
 10
15.5621
 20
110.947
 11
15.927
 21
110.853
  0
LINE
  8
0
 10
15.927
 20
110.853
 11
16.2773
 21
110.714
  0
LINE
  8
0
 10
16.2773
 20
110.714
 11
16.6075
 21
110.533
  0
LINE
  8
0
 10
16.6075
 20
110.533
 11
16.9123
 21
110.312
  0
LINE
  8
0
 10
16.9123
 20
110.312
 11
17.1869
 21
110.054
  0
LINE
  8
0
 10
17.1869
 20
110.054
 11
17.427
 21
109.763
  0
LINE
  8
0
 10
17.427
 20
109.763
 11
17.6289
 21
109.445
  0
LINE
  8
0
 10
17.6289
 20
109.445
 11
17.7893
 21
109.104
  0
LINE
  8
0
 10
17.7893
 20
109.104
 11
17.9057
 21
108.746
  0
LINE
  8
0
 10
17.9057
 20
108.746
 11
17.9763
 21
108.376
  0
LINE
  8
0
 10
17.9763
 20
108.376
 11
18
 21
108
  0
LINE
  8
0
 10
18
 20
108
 11
17.9763
 21
107.624
  0
LINE
  8
0
 10
17.9763
 20
107.624
 11
17.9057
 21
107.254
  0
LINE
  8
0
 10
17.9057
 20
107.254
 11
17.7893
 21
106.896
  0
LINE
  8
0
 10
17.7893
 20
106.896
 11
17.6289
 21
106.555
  0
LINE
  8
0
 10
17.6289
 20
106.555
 11
17.427
 21
106.237
  0
LINE
  8
0
 10
17.427
 20
106.237
 11
17.1869
 21
105.946
  0
LINE
  8
0
 10
17.1869
 20
105.946
 11
16.9123
 21
105.688
  0
LINE
  8
0
 10
16.9123
 20
105.688
 11
16.6075
 21
105.467
  0
LINE
  8
0
 10
16.6075
 20
105.467
 11
16.2773
 21
105.286
  0
LINE
  8
0
 10
16.2773
 20
105.286
 11
15.927
 21
105.147
  0
LINE
  8
0
 10
15.927
 20
105.147
 11
15.5621
 21
105.053
  0
LINE
  8
0
 10
15.5621
 20
105.053
 11
15.1884
 21
105.006
  0
LINE
  8
0
 10
15.1884
 20
105.006
 11
14.8116
 21
105.006
  0
LINE
  8
0
 10
-15.1884
 20
105.006
 11
-15.5621
 21
105.053
  0
LINE
  8
0
 10
-15.5621
 20
105.053
 11
-15.927
 21
105.147
  0
LINE
  8
0
 10
-15.927
 20
105.147
 11
-16.2773
 21
105.286
  0
LINE
  8
0
 10
-16.2773
 20
105.286
 11
-16.6075
 21
105.467
  0
LINE
  8
0
 10
-16.6075
 20
105.467
 11
-16.9123
 21
105.688
  0
LINE
  8
0
 10
-16.9123
 20
105.688
 11
-17.1869
 21
105.946
  0
LINE
  8
0
 10
-17.1869
 20
105.946
 11
-17.427
 21
106.237
  0
LINE
  8
0
 10
-17.427
 20
106.237
 11
-17.6289
 21
106.555
  0
LINE
  8
0
 10
-17.6289
 20
106.555
 11
-17.7893
 21
106.896
  0
LINE
  8
0
 10
-17.7893
 20
106.896
 11
-17.9057
 21
107.254
  0
LINE
  8
0
 10
-17.9057
 20
107.254
 11
-17.9763
 21
107.624
  0
LINE
  8
0
 10
-17.9763
 20
107.624
 11
-18
 21
108
  0
LINE
  8
0
 10
-18
 20
108
 11
-17.9763
 21
108.376
  0
LINE
  8
0
 10
-17.9763
 20
108.376
 11
-17.9057
 21
108.746
  0
LINE
  8
0
 10
-17.9057
 20
108.746
 11
-17.7893
 21
109.104
  0
LINE
  8
0
 10
-17.7893
 20
109.104
 11
-17.6289
 21
109.445
  0
LINE
  8
0
 10
-17.6289
 20
109.445
 11
-17.427
 21
109.763
  0
LINE
  8
0
 10
-17.427
 20
109.763
 11
-17.1869
 21
110.054
  0
LINE
  8
0
 10
-17.1869
 20
110.054
 11
-16.9123
 21
110.312
  0
LINE
  8
0
 10
-16.9123
 20
110.312
 11
-16.6075
 21
110.533
  0
LINE
  8
0
 10
-16.6075
 20
110.533
 11
-16.2773
 21
110.714
  0
LINE
  8
0
 10
-16.2773
 20
110.714
 11
-15.927
 21
110.853
  0
LINE
  8
0
 10
-15.927
 20
110.853
 11
-15.5621
 21
110.947
  0
LINE
  8
0
 10
-15.5621
 20
110.947
 11
-15.1884
 21
110.994
  0
LINE
  8
0
 10
-15.1884
 20
110.994
 11
-14.8116
 21
110.994
  0
LINE
  8
0
 10
-14.8116
 20
110.994
 11
-14.4379
 21
110.947
  0
LINE
  8
0
 10
-14.4379
 20
110.947
 11
-14.0729
 21
110.853
  0
LINE
  8
0
 10
-14.0729
 20
110.853
 11
-13.7227
 21
110.714
  0
LINE
  8
0
 10
-13.7227
 20
110.714
 11
-13.3925
 21
110.533
  0
LINE
  8
0
 10
-13.3925
 20
110.533
 11
-13.0877
 21
110.312
  0
LINE
  8
0
 10
-13.0877
 20
110.312
 11
-12.8131
 21
110.054
  0
LINE
  8
0
 10
-12.8131
 20
110.054
 11
-12.5729
 21
109.763
  0
LINE
  8
0
 10
-12.5729
 20
109.763
 11
-12.3711
 21
109.445
  0
LINE
  8
0
 10
-12.3711
 20
109.445
 11
-12.2107
 21
109.104
  0
LINE
  8
0
 10
-12.2107
 20
109.104
 11
-12.0942
 21
108.746
  0
LINE
  8
0
 10
-12.0942
 20
108.746
 11
-12.0237
 21
108.376
  0
LINE
  8
0
 10
-12.0237
 20
108.376
 11
-12
 21
108
  0
LINE
  8
0
 10
-12
 20
108
 11
-12.0237
 21
107.624
  0
LINE
  8
0
 10
-12.0237
 20
107.624
 11
-12.0942
 21
107.254
  0
LINE
  8
0
 10
-12.0942
 20
107.254
 11
-12.2107
 21
106.896
  0
LINE
  8
0
 10
-12.2107
 20
106.896
 11
-12.3711
 21
106.555
  0
LINE
  8
0
 10
-12.3711
 20
106.555
 11
-12.5729
 21
106.237
  0
LINE
  8
0
 10
-12.5729
 20
106.237
 11
-12.8131
 21
105.946
  0
LINE
  8
0
 10
-12.8131
 20
105.946
 11
-13.0877
 21
105.688
  0
LINE
  8
0
 10
-13.0877
 20
105.688
 11
-13.3925
 21
105.467
  0
LINE
  8
0
 10
-13.3925
 20
105.467
 11
-13.7227
 21
105.286
  0
LINE
  8
0
 10
-13.7227
 20
105.286
 11
-14.0729
 21
105.147
  0
LINE
  8
0
 10
-14.0729
 20
105.147
 11
-14.4379
 21
105.053
  0
LINE
  8
0
 10
-14.4379
 20
105.053
 11
-14.8116
 21
105.006
  0
LINE
  8
0
 10
-14.8116
 20
105.006
 11
-15.1884
 21
105.006
  0
LINE
  8
0
 10
-0.18837
 20
90.0059
 11
-0.562134
 21
90.0531
  0
LINE
  8
0
 10
-0.562134
 20
90.0531
 11
-0.927048
 21
90.1468
  0
LINE
  8
0
 10
-0.927048
 20
90.1468
 11
-1.27733
 21
90.2855
  0
LINE
  8
0
 10
-1.27733
 20
90.2855
 11
-1.60747
 21
90.467
  0
LINE
  8
0
 10
-1.60747
 20
90.467
 11
-1.91226
 21
90.6885
  0
LINE
  8
0
 10
-1.91226
 20
90.6885
 11
-2.1869
 21
90.9464
  0
LINE
  8
0
 10
-2.1869
 20
90.9464
 11
-2.42705
 21
91.2366
  0
LINE
  8
0
 10
-2.42705
 20
91.2366
 11
-2.62891
 21
91.5547
  0
LINE
  8
0
 10
-2.62891
 20
91.5547
 11
-2.78932
 21
91.8956
  0
LINE
  8
0
 10
-2.78932
 20
91.8956
 11
-2.90575
 21
92.2539
  0
LINE
  8
0
 10
-2.90575
 20
92.2539
 11
-2.97633
 21
92.624
  0
LINE
  8
0
 10
-2.97633
 20
92.624
 11
-3
 21
93
  0
LINE
  8
0
 10
-3
 20
93
 11
-2.97633
 21
93.376
  0
LINE
  8
0
 10
-2.97633
 20
93.376
 11
-2.90575
 21
93.7461
  0
LINE
  8
0
 10
-2.90575
 20
93.7461
 11
-2.78932
 21
94.1044
  0
LINE
  8
0
 10
-2.78932
 20
94.1044
 11
-2.62891
 21
94.4453
  0
LINE
  8
0
 10
-2.62891
 20
94.4453
 11
-2.42705
 21
94.7634
  0
LINE
  8
0
 10
-2.42705
 20
94.7634
 11
-2.1869
 21
95.0536
  0
LINE
  8
0
 10
-2.1869
 20
95.0536
 11
-1.91226
 21
95.3116
  0
LINE
  8
0
 10
-1.91226
 20
95.3116
 11
-1.60747
 21
95.533
  0
LINE
  8
0
 10
-1.60747
 20
95.533
 11
-1.27733
 21
95.7145
  0
LINE
  8
0
 10
-1.27733
 20
95.7145
 11
-0.927048
 21
95.8532
  0
LINE
  8
0
 10
-0.927048
 20
95.8532
 11
-0.562134
 21
95.9469
  0
LINE
  8
0
 10
-0.562134
 20
95.9469
 11
-0.18837
 21
95.9941
  0
LINE
  8
0
 10
-0.18837
 20
95.9941
 11
0.18837
 21
95.9941
  0
LINE
  8
0
 10
0.18837
 20
95.9941
 11
0.562134
 21
95.9469
  0
LINE
  8
0
 10
0.562134
 20
95.9469
 11
0.927048
 21
95.8532
  0
LINE
  8
0
 10
0.927048
 20
95.8532
 11
1.27733
 21
95.7145
  0
LINE
  8
0
 10
1.27733
 20
95.7145
 11
1.60747
 21
95.533
  0
LINE
  8
0
 10
1.60747
 20
95.533
 11
1.91226
 21
95.3116
  0
LINE
  8
0
 10
1.91226
 20
95.3116
 11
2.1869
 21
95.0536
  0
LINE
  8
0
 10
2.1869
 20
95.0536
 11
2.42705
 21
94.7634
  0
LINE
  8
0
 10
2.42705
 20
94.7634
 11
2.62891
 21
94.4453
  0
LINE
  8
0
 10
2.62891
 20
94.4453
 11
2.78932
 21
94.1044
  0
LINE
  8
0
 10
2.78932
 20
94.1044
 11
2.90575
 21
93.7461
  0
LINE
  8
0
 10
2.90575
 20
93.7461
 11
2.97633
 21
93.376
  0
LINE
  8
0
 10
2.97633
 20
93.376
 11
3
 21
93
  0
LINE
  8
0
 10
3
 20
93
 11
2.97633
 21
92.624
  0
LINE
  8
0
 10
2.97633
 20
92.624
 11
2.90575
 21
92.2539
  0
LINE
  8
0
 10
2.90575
 20
92.2539
 11
2.78932
 21
91.8956
  0
LINE
  8
0
 10
2.78932
 20
91.8956
 11
2.62891
 21
91.5547
  0
LINE
  8
0
 10
2.62891
 20
91.5547
 11
2.42705
 21
91.2366
  0
LINE
  8
0
 10
2.42705
 20
91.2366
 11
2.1869
 21
90.9464
  0
LINE
  8
0
 10
2.1869
 20
90.9464
 11
1.91226
 21
90.6885
  0
LINE
  8
0
 10
1.91226
 20
90.6885
 11
1.60747
 21
90.467
  0
LINE
  8
0
 10
1.60747
 20
90.467
 11
1.27733
 21
90.2855
  0
LINE
  8
0
 10
1.27733
 20
90.2855
 11
0.927048
 21
90.1468
  0
LINE
  8
0
 10
0.927048
 20
90.1468
 11
0.562134
 21
90.0531
  0
LINE
  8
0
 10
0.562134
 20
90.0531
 11
0.18837
 21
90.0059
  0
LINE
  8
0
 10
0.18837
 20
90.0059
 11
-0.18837
 21
90.0059
  0
LINE
  8
0
 10
29.8116
 20
90.0059
 11
29.4379
 21
90.0531
  0
LINE
  8
0
 10
29.4379
 20
90.0531
 11
29.0729
 21
90.1468
  0
LINE
  8
0
 10
29.0729
 20
90.1468
 11
28.7227
 21
90.2855
  0
LINE
  8
0
 10
28.7227
 20
90.2855
 11
28.3925
 21
90.467
  0
LINE
  8
0
 10
28.3925
 20
90.467
 11
28.0877
 21
90.6885
  0
LINE
  8
0
 10
28.0877
 20
90.6885
 11
27.8131
 21
90.9464
  0
LINE
  8
0
 10
27.8131
 20
90.9464
 11
27.5729
 21
91.2366
  0
LINE
  8
0
 10
27.5729
 20
91.2366
 11
27.3711
 21
91.5547
  0
LINE
  8
0
 10
27.3711
 20
91.5547
 11
27.2107
 21
91.8956
  0
LINE
  8
0
 10
27.2107
 20
91.8956
 11
27.0942
 21
92.2539
  0
LINE
  8
0
 10
27.0942
 20
92.2539
 11
27.0237
 21
92.624
  0
LINE
  8
0
 10
27.0237
 20
92.624
 11
27
 21
93
  0
LINE
  8
0
 10
27
 20
93
 11
27.0237
 21
93.376
  0
LINE
  8
0
 10
27.0237
 20
93.376
 11
27.0942
 21
93.7461
  0
LINE
  8
0
 10
27.0942
 20
93.7461
 11
27.2107
 21
94.1044
  0
LINE
  8
0
 10
27.2107
 20
94.1044
 11
27.3711
 21
94.4453
  0
LINE
  8
0
 10
27.3711
 20
94.4453
 11
27.5729
 21
94.7634
  0
LINE
  8
0
 10
27.5729
 20
94.7634
 11
27.8131
 21
95.0536
  0
LINE
  8
0
 10
27.8131
 20
95.0536
 11
28.0877
 21
95.3116
  0
LINE
  8
0
 10
28.0877
 20
95.3116
 11
28.3925
 21
95.533
  0
LINE
  8
0
 10
28.3925
 20
95.533
 11
28.7227
 21
95.7145
  0
LINE
  8
0
 10
28.7227
 20
95.7145
 11
29.0729
 21
95.8532
  0
LINE
  8
0
 10
29.0729
 20
95.8532
 11
29.4379
 21
95.9469
  0
LINE
  8
0
 10
29.4379
 20
95.9469
 11
29.8116
 21
95.9941
  0
LINE
  8
0
 10
29.8116
 20
95.9941
 11
30.1884
 21
95.9941
  0
LINE
  8
0
 10
30.1884
 20
95.9941
 11
30.5621
 21
95.9469
  0
LINE
  8
0
 10
30.5621
 20
95.9469
 11
30.927
 21
95.8532
  0
LINE
  8
0
 10
30.927
 20
95.8532
 11
31.2773
 21
95.7145
  0
LINE
  8
0
 10
31.2773
 20
95.7145
 11
31.6075
 21
95.533
  0
LINE
  8
0
 10
31.6075
 20
95.533
 11
31.9123
 21
95.3116
  0
LINE
  8
0
 10
31.9123
 20
95.3116
 11
32.1869
 21
95.0536
  0
LINE
  8
0
 10
32.1869
 20
95.0536
 11
32.427
 21
94.7634
  0
LINE
  8
0
 10
32.427
 20
94.7634
 11
32.6289
 21
94.4453
  0
LINE
  8
0
 10
32.6289
 20
94.4453
 11
32.7893
 21
94.1044
  0
LINE
  8
0
 10
32.7893
 20
94.1044
 11
32.9057
 21
93.7461
  0
LINE
  8
0
 10
32.9057
 20
93.7461
 11
32.9763
 21
93.376
  0
LINE
  8
0
 10
32.9763
 20
93.376
 11
33
 21
93
  0
LINE
  8
0
 10
33
 20
93
 11
32.9763
 21
92.624
  0
LINE
  8
0
 10
32.9763
 20
92.624
 11
32.9057
 21
92.2539
  0
LINE
  8
0
 10
32.9057
 20
92.2539
 11
32.7893
 21
91.8956
  0
LINE
  8
0
 10
32.7893
 20
91.8956
 11
32.6289
 21
91.5547
  0
LINE
  8
0
 10
32.6289
 20
91.5547
 11
32.427
 21
91.2366
  0
LINE
  8
0
 10
32.427
 20
91.2366
 11
32.1869
 21
90.9464
  0
LINE
  8
0
 10
32.1869
 20
90.9464
 11
31.9123
 21
90.6885
  0
LINE
  8
0
 10
31.9123
 20
90.6885
 11
31.6075
 21
90.467
  0
LINE
  8
0
 10
31.6075
 20
90.467
 11
31.2773
 21
90.2855
  0
LINE
  8
0
 10
31.2773
 20
90.2855
 11
30.927
 21
90.1468
  0
LINE
  8
0
 10
30.927
 20
90.1468
 11
30.5621
 21
90.0531
  0
LINE
  8
0
 10
30.5621
 20
90.0531
 11
30.1884
 21
90.0059
  0
LINE
  8
0
 10
30.1884
 20
90.0059
 11
29.8116
 21
90.0059
  0
LINE
  8
0
 10
-15.1884
 20
90.0059
 11
-15.5621
 21
90.0531
  0
LINE
  8
0
 10
-15.5621
 20
90.0531
 11
-15.927
 21
90.1468
  0
LINE
  8
0
 10
-15.927
 20
90.1468
 11
-16.2773
 21
90.2855
  0
LINE
  8
0
 10
-16.2773
 20
90.2855
 11
-16.6075
 21
90.467
  0
LINE
  8
0
 10
-16.6075
 20
90.467
 11
-16.9123
 21
90.6885
  0
LINE
  8
0
 10
-16.9123
 20
90.6885
 11
-17.1869
 21
90.9464
  0
LINE
  8
0
 10
-17.1869
 20
90.9464
 11
-17.427
 21
91.2366
  0
LINE
  8
0
 10
-17.427
 20
91.2366
 11
-17.6289
 21
91.5547
  0
LINE
  8
0
 10
-17.6289
 20
91.5547
 11
-17.7893
 21
91.8956
  0
LINE
  8
0
 10
-17.7893
 20
91.8956
 11
-17.9057
 21
92.2539
  0
LINE
  8
0
 10
-17.9057
 20
92.2539
 11
-17.9763
 21
92.624
  0
LINE
  8
0
 10
-17.9763
 20
92.624
 11
-18
 21
93
  0
LINE
  8
0
 10
-18
 20
93
 11
-17.9763
 21
93.376
  0
LINE
  8
0
 10
-17.9763
 20
93.376
 11
-17.9057
 21
93.7461
  0
LINE
  8
0
 10
-17.9057
 20
93.7461
 11
-17.7893
 21
94.1044
  0
LINE
  8
0
 10
-17.7893
 20
94.1044
 11
-17.6289
 21
94.4453
  0
LINE
  8
0
 10
-17.6289
 20
94.4453
 11
-17.427
 21
94.7634
  0
LINE
  8
0
 10
-17.427
 20
94.7634
 11
-17.1869
 21
95.0536
  0
LINE
  8
0
 10
-17.1869
 20
95.0536
 11
-16.9123
 21
95.3116
  0
LINE
  8
0
 10
-16.9123
 20
95.3116
 11
-16.6075
 21
95.533
  0
LINE
  8
0
 10
-16.6075
 20
95.533
 11
-16.2773
 21
95.7145
  0
LINE
  8
0
 10
-16.2773
 20
95.7145
 11
-15.927
 21
95.8532
  0
LINE
  8
0
 10
-15.927
 20
95.8532
 11
-15.5621
 21
95.9469
  0
LINE
  8
0
 10
-15.5621
 20
95.9469
 11
-15.1884
 21
95.9941
  0
LINE
  8
0
 10
-15.1884
 20
95.9941
 11
-14.8116
 21
95.9941
  0
LINE
  8
0
 10
-14.8116
 20
95.9941
 11
-14.4379
 21
95.9469
  0
LINE
  8
0
 10
-14.4379
 20
95.9469
 11
-14.0729
 21
95.8532
  0
LINE
  8
0
 10
-14.0729
 20
95.8532
 11
-13.7227
 21
95.7145
  0
LINE
  8
0
 10
-13.7227
 20
95.7145
 11
-13.3925
 21
95.533
  0
LINE
  8
0
 10
-13.3925
 20
95.533
 11
-13.0877
 21
95.3116
  0
LINE
  8
0
 10
-13.0877
 20
95.3116
 11
-12.8131
 21
95.0536
  0
LINE
  8
0
 10
-12.8131
 20
95.0536
 11
-12.5729
 21
94.7634
  0
LINE
  8
0
 10
-12.5729
 20
94.7634
 11
-12.3711
 21
94.4453
  0
LINE
  8
0
 10
-12.3711
 20
94.4453
 11
-12.2107
 21
94.1044
  0
LINE
  8
0
 10
-12.2107
 20
94.1044
 11
-12.0942
 21
93.7461
  0
LINE
  8
0
 10
-12.0942
 20
93.7461
 11
-12.0237
 21
93.376
  0
LINE
  8
0
 10
-12.0237
 20
93.376
 11
-12
 21
93
  0
LINE
  8
0
 10
-12
 20
93
 11
-12.0237
 21
92.624
  0
LINE
  8
0
 10
-12.0237
 20
92.624
 11
-12.0942
 21
92.2539
  0
LINE
  8
0
 10
-12.0942
 20
92.2539
 11
-12.2107
 21
91.8956
  0
LINE
  8
0
 10
-12.2107
 20
91.8956
 11
-12.3711
 21
91.5547
  0
LINE
  8
0
 10
-12.3711
 20
91.5547
 11
-12.5729
 21
91.2366
  0
LINE
  8
0
 10
-12.5729
 20
91.2366
 11
-12.8131
 21
90.9464
  0
LINE
  8
0
 10
-12.8131
 20
90.9464
 11
-13.0877
 21
90.6885
  0
LINE
  8
0
 10
-13.0877
 20
90.6885
 11
-13.3925
 21
90.467
  0
LINE
  8
0
 10
-13.3925
 20
90.467
 11
-13.7227
 21
90.2855
  0
LINE
  8
0
 10
-13.7227
 20
90.2855
 11
-14.0729
 21
90.1468
  0
LINE
  8
0
 10
-14.0729
 20
90.1468
 11
-14.4379
 21
90.0531
  0
LINE
  8
0
 10
-14.4379
 20
90.0531
 11
-14.8116
 21
90.0059
  0
LINE
  8
0
 10
-14.8116
 20
90.0059
 11
-15.1884
 21
90.0059
  0
LINE
  8
0
 10
-30.1884
 20
90.0059
 11
-30.5621
 21
90.0531
  0
LINE
  8
0
 10
-30.5621
 20
90.0531
 11
-30.927
 21
90.1468
  0
LINE
  8
0
 10
-30.927
 20
90.1468
 11
-31.2773
 21
90.2855
  0
LINE
  8
0
 10
-31.2773
 20
90.2855
 11
-31.6075
 21
90.467
  0
LINE
  8
0
 10
-31.6075
 20
90.467
 11
-31.9123
 21
90.6885
  0
LINE
  8
0
 10
-31.9123
 20
90.6885
 11
-32.1869
 21
90.9464
  0
LINE
  8
0
 10
-32.1869
 20
90.9464
 11
-32.427
 21
91.2366
  0
LINE
  8
0
 10
-32.427
 20
91.2366
 11
-32.6289
 21
91.5547
  0
LINE
  8
0
 10
-32.6289
 20
91.5547
 11
-32.7893
 21
91.8956
  0
LINE
  8
0
 10
-32.7893
 20
91.8956
 11
-32.9057
 21
92.2539
  0
LINE
  8
0
 10
-32.9057
 20
92.2539
 11
-32.9763
 21
92.624
  0
LINE
  8
0
 10
-32.9763
 20
92.624
 11
-33
 21
93
  0
LINE
  8
0
 10
-33
 20
93
 11
-32.9763
 21
93.376
  0
LINE
  8
0
 10
-32.9763
 20
93.376
 11
-32.9057
 21
93.7461
  0
LINE
  8
0
 10
-32.9057
 20
93.7461
 11
-32.7893
 21
94.1044
  0
LINE
  8
0
 10
-32.7893
 20
94.1044
 11
-32.6289
 21
94.4453
  0
LINE
  8
0
 10
-32.6289
 20
94.4453
 11
-32.427
 21
94.7634
  0
LINE
  8
0
 10
-32.427
 20
94.7634
 11
-32.1869
 21
95.0536
  0
LINE
  8
0
 10
-32.1869
 20
95.0536
 11
-31.9123
 21
95.3116
  0
LINE
  8
0
 10
-31.9123
 20
95.3116
 11
-31.6075
 21
95.533
  0
LINE
  8
0
 10
-31.6075
 20
95.533
 11
-31.2773
 21
95.7145
  0
LINE
  8
0
 10
-31.2773
 20
95.7145
 11
-30.927
 21
95.8532
  0
LINE
  8
0
 10
-30.927
 20
95.8532
 11
-30.5621
 21
95.9469
  0
LINE
  8
0
 10
-30.5621
 20
95.9469
 11
-30.1884
 21
95.9941
  0
LINE
  8
0
 10
-30.1884
 20
95.9941
 11
-29.8116
 21
95.9941
  0
LINE
  8
0
 10
-29.8116
 20
95.9941
 11
-29.4379
 21
95.9469
  0
LINE
  8
0
 10
-29.4379
 20
95.9469
 11
-29.0729
 21
95.8532
  0
LINE
  8
0
 10
-29.0729
 20
95.8532
 11
-28.7227
 21
95.7145
  0
LINE
  8
0
 10
-28.7227
 20
95.7145
 11
-28.3925
 21
95.533
  0
LINE
  8
0
 10
-28.3925
 20
95.533
 11
-28.0877
 21
95.3116
  0
LINE
  8
0
 10
-28.0877
 20
95.3116
 11
-27.8131
 21
95.0536
  0
LINE
  8
0
 10
-27.8131
 20
95.0536
 11
-27.5729
 21
94.7634
  0
LINE
  8
0
 10
-27.5729
 20
94.7634
 11
-27.3711
 21
94.4453
  0
LINE
  8
0
 10
-27.3711
 20
94.4453
 11
-27.2107
 21
94.1044
  0
LINE
  8
0
 10
-27.2107
 20
94.1044
 11
-27.0942
 21
93.7461
  0
LINE
  8
0
 10
-27.0942
 20
93.7461
 11
-27.0237
 21
93.376
  0
LINE
  8
0
 10
-27.0237
 20
93.376
 11
-27
 21
93
  0
LINE
  8
0
 10
-27
 20
93
 11
-27.0237
 21
92.624
  0
LINE
  8
0
 10
-27.0237
 20
92.624
 11
-27.0942
 21
92.2539
  0
LINE
  8
0
 10
-27.0942
 20
92.2539
 11
-27.2107
 21
91.8956
  0
LINE
  8
0
 10
-27.2107
 20
91.8956
 11
-27.3711
 21
91.5547
  0
LINE
  8
0
 10
-27.3711
 20
91.5547
 11
-27.5729
 21
91.2366
  0
LINE
  8
0
 10
-27.5729
 20
91.2366
 11
-27.8131
 21
90.9464
  0
LINE
  8
0
 10
-27.8131
 20
90.9464
 11
-28.0877
 21
90.6885
  0
LINE
  8
0
 10
-28.0877
 20
90.6885
 11
-28.3925
 21
90.467
  0
LINE
  8
0
 10
-28.3925
 20
90.467
 11
-28.7227
 21
90.2855
  0
LINE
  8
0
 10
-28.7227
 20
90.2855
 11
-29.0729
 21
90.1468
  0
LINE
  8
0
 10
-29.0729
 20
90.1468
 11
-29.4379
 21
90.0531
  0
LINE
  8
0
 10
-29.4379
 20
90.0531
 11
-29.8116
 21
90.0059
  0
LINE
  8
0
 10
-29.8116
 20
90.0059
 11
-30.1884
 21
90.0059
  0
LINE
  8
0
 10
14.8116
 20
90.0059
 11
14.4379
 21
90.0531
  0
LINE
  8
0
 10
14.4379
 20
90.0531
 11
14.0729
 21
90.1468
  0
LINE
  8
0
 10
14.0729
 20
90.1468
 11
13.7227
 21
90.2855
  0
LINE
  8
0
 10
13.7227
 20
90.2855
 11
13.3925
 21
90.467
  0
LINE
  8
0
 10
13.3925
 20
90.467
 11
13.0877
 21
90.6885
  0
LINE
  8
0
 10
13.0877
 20
90.6885
 11
12.8131
 21
90.9464
  0
LINE
  8
0
 10
12.8131
 20
90.9464
 11
12.5729
 21
91.2366
  0
LINE
  8
0
 10
12.5729
 20
91.2366
 11
12.3711
 21
91.5547
  0
LINE
  8
0
 10
12.3711
 20
91.5547
 11
12.2107
 21
91.8956
  0
LINE
  8
0
 10
12.2107
 20
91.8956
 11
12.0942
 21
92.2539
  0
LINE
  8
0
 10
12.0942
 20
92.2539
 11
12.0237
 21
92.624
  0
LINE
  8
0
 10
12.0237
 20
92.624
 11
12
 21
93
  0
LINE
  8
0
 10
12
 20
93
 11
12.0237
 21
93.376
  0
LINE
  8
0
 10
12.0237
 20
93.376
 11
12.0942
 21
93.7461
  0
LINE
  8
0
 10
12.0942
 20
93.7461
 11
12.2107
 21
94.1044
  0
LINE
  8
0
 10
12.2107
 20
94.1044
 11
12.3711
 21
94.4453
  0
LINE
  8
0
 10
12.3711
 20
94.4453
 11
12.5729
 21
94.7634
  0
LINE
  8
0
 10
12.5729
 20
94.7634
 11
12.8131
 21
95.0536
  0
LINE
  8
0
 10
12.8131
 20
95.0536
 11
13.0877
 21
95.3116
  0
LINE
  8
0
 10
13.0877
 20
95.3116
 11
13.3925
 21
95.533
  0
LINE
  8
0
 10
13.3925
 20
95.533
 11
13.7227
 21
95.7145
  0
LINE
  8
0
 10
13.7227
 20
95.7145
 11
14.0729
 21
95.8532
  0
LINE
  8
0
 10
14.0729
 20
95.8532
 11
14.4379
 21
95.9469
  0
LINE
  8
0
 10
14.4379
 20
95.9469
 11
14.8116
 21
95.9941
  0
LINE
  8
0
 10
14.8116
 20
95.9941
 11
15.1884
 21
95.9941
  0
LINE
  8
0
 10
15.1884
 20
95.9941
 11
15.5621
 21
95.9469
  0
LINE
  8
0
 10
15.5621
 20
95.9469
 11
15.927
 21
95.8532
  0
LINE
  8
0
 10
15.927
 20
95.8532
 11
16.2773
 21
95.7145
  0
LINE
  8
0
 10
16.2773
 20
95.7145
 11
16.6075
 21
95.533
  0
LINE
  8
0
 10
16.6075
 20
95.533
 11
16.9123
 21
95.3116
  0
LINE
  8
0
 10
16.9123
 20
95.3116
 11
17.1869
 21
95.0536
  0
LINE
  8
0
 10
17.1869
 20
95.0536
 11
17.427
 21
94.7634
  0
LINE
  8
0
 10
17.427
 20
94.7634
 11
17.6289
 21
94.4453
  0
LINE
  8
0
 10
17.6289
 20
94.4453
 11
17.7893
 21
94.1044
  0
LINE
  8
0
 10
17.7893
 20
94.1044
 11
17.9057
 21
93.7461
  0
LINE
  8
0
 10
17.9057
 20
93.7461
 11
17.9763
 21
93.376
  0
LINE
  8
0
 10
17.9763
 20
93.376
 11
18
 21
93
  0
LINE
  8
0
 10
18
 20
93
 11
17.9763
 21
92.624
  0
LINE
  8
0
 10
17.9763
 20
92.624
 11
17.9057
 21
92.2539
  0
LINE
  8
0
 10
17.9057
 20
92.2539
 11
17.7893
 21
91.8956
  0
LINE
  8
0
 10
17.7893
 20
91.8956
 11
17.6289
 21
91.5547
  0
LINE
  8
0
 10
17.6289
 20
91.5547
 11
17.427
 21
91.2366
  0
LINE
  8
0
 10
17.427
 20
91.2366
 11
17.1869
 21
90.9464
  0
LINE
  8
0
 10
17.1869
 20
90.9464
 11
16.9123
 21
90.6885
  0
LINE
  8
0
 10
16.9123
 20
90.6885
 11
16.6075
 21
90.467
  0
LINE
  8
0
 10
16.6075
 20
90.467
 11
16.2773
 21
90.2855
  0
LINE
  8
0
 10
16.2773
 20
90.2855
 11
15.927
 21
90.1468
  0
LINE
  8
0
 10
15.927
 20
90.1468
 11
15.5621
 21
90.0531
  0
LINE
  8
0
 10
15.5621
 20
90.0531
 11
15.1884
 21
90.0059
  0
LINE
  8
0
 10
15.1884
 20
90.0059
 11
14.8116
 21
90.0059
  0
LINE
  8
0
 10
32.9369
 20
32.0886
 11
33.5451
 21
32.2447
  0
LINE
  8
0
 10
33.5451
 20
32.2447
 11
34.1289
 21
32.4759
  0
LINE
  8
0
 10
34.1289
 20
32.4759
 11
34.6791
 21
32.7784
  0
LINE
  8
0
 10
34.6791
 20
32.7784
 11
35.1871
 21
33.1474
  0
LINE
  8
0
 10
35.1871
 20
33.1474
 11
35.6448
 21
33.5773
  0
LINE
  8
0
 10
35.6448
 20
33.5773
 11
36.0451
 21
34.0611
  0
LINE
  8
0
 10
36.0451
 20
34.0611
 11
36.3815
 21
34.5912
  0
LINE
  8
0
 10
36.3815
 20
34.5912
 11
36.6489
 21
35.1594
  0
LINE
  8
0
 10
36.6489
 20
35.1594
 11
36.8429
 21
35.7566
  0
LINE
  8
0
 10
36.8429
 20
35.7566
 11
36.9606
 21
36.3733
  0
LINE
  8
0
 10
36.9606
 20
36.3733
 11
37
 21
37
  0
LINE
  8
0
 10
37
 20
37
 11
37
 21
71
  0
LINE
  8
0
 10
37
 20
71
 11
36.9606
 21
71.6267
  0
LINE
  8
0
 10
36.9606
 20
71.6267
 11
36.8429
 21
72.2434
  0
LINE
  8
0
 10
36.8429
 20
72.2434
 11
36.6489
 21
72.8406
  0
LINE
  8
0
 10
36.6489
 20
72.8406
 11
36.3815
 21
73.4088
  0
LINE
  8
0
 10
36.3815
 20
73.4088
 11
36.0451
 21
73.9389
  0
LINE
  8
0
 10
36.0451
 20
73.9389
 11
35.6448
 21
74.4227
  0
LINE
  8
0
 10
35.6448
 20
74.4227
 11
35.1871
 21
74.8526
  0
LINE
  8
0
 10
35.1871
 20
74.8526
 11
34.6791
 21
75.2216
  0
LINE
  8
0
 10
34.6791
 20
75.2216
 11
34.1289
 21
75.5241
  0
LINE
  8
0
 10
34.1289
 20
75.5241
 11
33.5451
 21
75.7553
  0
LINE
  8
0
 10
33.5451
 20
75.7553
 11
32.9369
 21
75.9114
  0
LINE
  8
0
 10
32.9369
 20
75.9114
 11
32.3139
 21
75.9901
  0
LINE
  8
0
 10
32.3139
 20
75.9901
 11
-32.3139
 21
75.9901
  0
LINE
  8
0
 10
-32.3139
 20
75.9901
 11
-32.9369
 21
75.9114
  0
LINE
  8
0
 10
-32.9369
 20
75.9114
 11
-33.5451
 21
75.7553
  0
LINE
  8
0
 10
-33.5451
 20
75.7553
 11
-34.1289
 21
75.5241
  0
LINE
  8
0
 10
-34.1289
 20
75.5241
 11
-34.6791
 21
75.2216
  0
LINE
  8
0
 10
-34.6791
 20
75.2216
 11
-35.1871
 21
74.8526
  0
LINE
  8
0
 10
-35.1871
 20
74.8526
 11
-35.6448
 21
74.4227
  0
LINE
  8
0
 10
-35.6448
 20
74.4227
 11
-36.0451
 21
73.9389
  0
LINE
  8
0
 10
-36.0451
 20
73.9389
 11
-36.3815
 21
73.4088
  0
LINE
  8
0
 10
-36.3815
 20
73.4088
 11
-36.6489
 21
72.8406
  0
LINE
  8
0
 10
-36.6489
 20
72.8406
 11
-36.8429
 21
72.2434
  0
LINE
  8
0
 10
-36.8429
 20
72.2434
 11
-36.9606
 21
71.6267
  0
LINE
  8
0
 10
-36.9606
 20
71.6267
 11
-37
 21
71
  0
LINE
  8
0
 10
-37
 20
71
 11
-37
 21
37
  0
LINE
  8
0
 10
-37
 20
37
 11
-36.9606
 21
36.3733
  0
LINE
  8
0
 10
-36.9606
 20
36.3733
 11
-36.8429
 21
35.7566
  0
LINE
  8
0
 10
-36.8429
 20
35.7566
 11
-36.6489
 21
35.1594
  0
LINE
  8
0
 10
-36.6489
 20
35.1594
 11
-36.3815
 21
34.5912
  0
LINE
  8
0
 10
-36.3815
 20
34.5912
 11
-36.0451
 21
34.0611
  0
LINE
  8
0
 10
-36.0451
 20
34.0611
 11
-35.6448
 21
33.5773
  0
LINE
  8
0
 10
-35.6448
 20
33.5773
 11
-35.1871
 21
33.1474
  0
LINE
  8
0
 10
-35.1871
 20
33.1474
 11
-34.6791
 21
32.7784
  0
LINE
  8
0
 10
-34.6791
 20
32.7784
 11
-34.1289
 21
32.4759
  0
LINE
  8
0
 10
-34.1289
 20
32.4759
 11
-33.5451
 21
32.2447
  0
LINE
  8
0
 10
-33.5451
 20
32.2447
 11
-32.9369
 21
32.0886
  0
LINE
  8
0
 10
-32.9369
 20
32.0886
 11
-32.3139
 21
32.0099
  0
LINE
  8
0
 10
-32.3139
 20
32.0099
 11
32.3139
 21
32.0099
  0
LINE
  8
0
 10
32.3139
 20
32.0099
 11
32.9369
 21
32.0886
  0
LINE
  8
0
 10
-0.18837
 20
66.0059
 11
-0.562134
 21
66.0531
  0
LINE
  8
0
 10
-0.562134
 20
66.0531
 11
-0.927048
 21
66.1468
  0
LINE
  8
0
 10
-0.927048
 20
66.1468
 11
-1.27733
 21
66.2855
  0
LINE
  8
0
 10
-1.27733
 20
66.2855
 11
-1.60747
 21
66.467
  0
LINE
  8
0
 10
-1.60747
 20
66.467
 11
-1.91226
 21
66.6884
  0
LINE
  8
0
 10
-1.91226
 20
66.6884
 11
-2.1869
 21
66.9464
  0
LINE
  8
0
 10
-2.1869
 20
66.9464
 11
-2.42705
 21
67.2366
  0
LINE
  8
0
 10
-2.42705
 20
67.2366
 11
-2.62891
 21
67.5547
  0
LINE
  8
0
 10
-2.62891
 20
67.5547
 11
-2.78932
 21
67.8956
  0
LINE
  8
0
 10
-2.78932
 20
67.8956
 11
-2.90575
 21
68.2539
  0
LINE
  8
0
 10
-2.90575
 20
68.2539
 11
-2.97633
 21
68.624
  0
LINE
  8
0
 10
-2.97633
 20
68.624
 11
-3
 21
69
  0
LINE
  8
0
 10
-3
 20
69
 11
-2.97633
 21
69.376
  0
LINE
  8
0
 10
-2.97633
 20
69.376
 11
-2.90575
 21
69.7461
  0
LINE
  8
0
 10
-2.90575
 20
69.7461
 11
-2.78932
 21
70.1044
  0
LINE
  8
0
 10
-2.78932
 20
70.1044
 11
-2.62891
 21
70.4453
  0
LINE
  8
0
 10
-2.62891
 20
70.4453
 11
-2.42705
 21
70.7634
  0
LINE
  8
0
 10
-2.42705
 20
70.7634
 11
-2.1869
 21
71.0536
  0
LINE
  8
0
 10
-2.1869
 20
71.0536
 11
-1.91226
 21
71.3115
  0
LINE
  8
0
 10
-1.91226
 20
71.3115
 11
-1.60747
 21
71.533
  0
LINE
  8
0
 10
-1.60747
 20
71.533
 11
-1.27733
 21
71.7145
  0
LINE
  8
0
 10
-1.27733
 20
71.7145
 11
-0.927048
 21
71.8532
  0
LINE
  8
0
 10
-0.927048
 20
71.8532
 11
-0.562134
 21
71.9469
  0
LINE
  8
0
 10
-0.562134
 20
71.9469
 11
-0.18837
 21
71.9941
  0
LINE
  8
0
 10
-0.18837
 20
71.9941
 11
0.18837
 21
71.9941
  0
LINE
  8
0
 10
0.18837
 20
71.9941
 11
0.562134
 21
71.9469
  0
LINE
  8
0
 10
0.562134
 20
71.9469
 11
0.927048
 21
71.8532
  0
LINE
  8
0
 10
0.927048
 20
71.8532
 11
1.27733
 21
71.7145
  0
LINE
  8
0
 10
1.27733
 20
71.7145
 11
1.60747
 21
71.533
  0
LINE
  8
0
 10
1.60747
 20
71.533
 11
1.91226
 21
71.3115
  0
LINE
  8
0
 10
1.91226
 20
71.3115
 11
2.1869
 21
71.0536
  0
LINE
  8
0
 10
2.1869
 20
71.0536
 11
2.42705
 21
70.7634
  0
LINE
  8
0
 10
2.42705
 20
70.7634
 11
2.62891
 21
70.4453
  0
LINE
  8
0
 10
2.62891
 20
70.4453
 11
2.78932
 21
70.1044
  0
LINE
  8
0
 10
2.78932
 20
70.1044
 11
2.90575
 21
69.7461
  0
LINE
  8
0
 10
2.90575
 20
69.7461
 11
2.97633
 21
69.376
  0
LINE
  8
0
 10
2.97633
 20
69.376
 11
3
 21
69
  0
LINE
  8
0
 10
3
 20
69
 11
2.97633
 21
68.624
  0
LINE
  8
0
 10
2.97633
 20
68.624
 11
2.90575
 21
68.2539
  0
LINE
  8
0
 10
2.90575
 20
68.2539
 11
2.78932
 21
67.8956
  0
LINE
  8
0
 10
2.78932
 20
67.8956
 11
2.62891
 21
67.5547
  0
LINE
  8
0
 10
2.62891
 20
67.5547
 11
2.42705
 21
67.2366
  0
LINE
  8
0
 10
2.42705
 20
67.2366
 11
2.1869
 21
66.9464
  0
LINE
  8
0
 10
2.1869
 20
66.9464
 11
1.91226
 21
66.6884
  0
LINE
  8
0
 10
1.91226
 20
66.6884
 11
1.60747
 21
66.467
  0
LINE
  8
0
 10
1.60747
 20
66.467
 11
1.27733
 21
66.2855
  0
LINE
  8
0
 10
1.27733
 20
66.2855
 11
0.927048
 21
66.1468
  0
LINE
  8
0
 10
0.927048
 20
66.1468
 11
0.562134
 21
66.0531
  0
LINE
  8
0
 10
0.562134
 20
66.0531
 11
0.18837
 21
66.0059
  0
LINE
  8
0
 10
0.18837
 20
66.0059
 11
-0.18837
 21
66.0059
  0
LINE
  8
0
 10
-15.1884
 20
66.0059
 11
-15.5621
 21
66.0531
  0
LINE
  8
0
 10
-15.5621
 20
66.0531
 11
-15.927
 21
66.1468
  0
LINE
  8
0
 10
-15.927
 20
66.1468
 11
-16.2773
 21
66.2855
  0
LINE
  8
0
 10
-16.2773
 20
66.2855
 11
-16.6075
 21
66.467
  0
LINE
  8
0
 10
-16.6075
 20
66.467
 11
-16.9123
 21
66.6884
  0
LINE
  8
0
 10
-16.9123
 20
66.6884
 11
-17.1869
 21
66.9464
  0
LINE
  8
0
 10
-17.1869
 20
66.9464
 11
-17.427
 21
67.2366
  0
LINE
  8
0
 10
-17.427
 20
67.2366
 11
-17.6289
 21
67.5547
  0
LINE
  8
0
 10
-17.6289
 20
67.5547
 11
-17.7893
 21
67.8956
  0
LINE
  8
0
 10
-17.7893
 20
67.8956
 11
-17.9057
 21
68.2539
  0
LINE
  8
0
 10
-17.9057
 20
68.2539
 11
-17.9763
 21
68.624
  0
LINE
  8
0
 10
-17.9763
 20
68.624
 11
-18
 21
69
  0
LINE
  8
0
 10
-18
 20
69
 11
-17.9763
 21
69.376
  0
LINE
  8
0
 10
-17.9763
 20
69.376
 11
-17.9057
 21
69.7461
  0
LINE
  8
0
 10
-17.9057
 20
69.7461
 11
-17.7893
 21
70.1044
  0
LINE
  8
0
 10
-17.7893
 20
70.1044
 11
-17.6289
 21
70.4453
  0
LINE
  8
0
 10
-17.6289
 20
70.4453
 11
-17.427
 21
70.7634
  0
LINE
  8
0
 10
-17.427
 20
70.7634
 11
-17.1869
 21
71.0536
  0
LINE
  8
0
 10
-17.1869
 20
71.0536
 11
-16.9123
 21
71.3115
  0
LINE
  8
0
 10
-16.9123
 20
71.3115
 11
-16.6075
 21
71.533
  0
LINE
  8
0
 10
-16.6075
 20
71.533
 11
-16.2773
 21
71.7145
  0
LINE
  8
0
 10
-16.2773
 20
71.7145
 11
-15.927
 21
71.8532
  0
LINE
  8
0
 10
-15.927
 20
71.8532
 11
-15.5621
 21
71.9469
  0
LINE
  8
0
 10
-15.5621
 20
71.9469
 11
-15.1884
 21
71.9941
  0
LINE
  8
0
 10
-15.1884
 20
71.9941
 11
-14.8116
 21
71.9941
  0
LINE
  8
0
 10
-14.8116
 20
71.9941
 11
-14.4379
 21
71.9469
  0
LINE
  8
0
 10
-14.4379
 20
71.9469
 11
-14.0729
 21
71.8532
  0
LINE
  8
0
 10
-14.0729
 20
71.8532
 11
-13.7227
 21
71.7145
  0
LINE
  8
0
 10
-13.7227
 20
71.7145
 11
-13.3925
 21
71.533
  0
LINE
  8
0
 10
-13.3925
 20
71.533
 11
-13.0877
 21
71.3115
  0
LINE
  8
0
 10
-13.0877
 20
71.3115
 11
-12.8131
 21
71.0536
  0
LINE
  8
0
 10
-12.8131
 20
71.0536
 11
-12.5729
 21
70.7634
  0
LINE
  8
0
 10
-12.5729
 20
70.7634
 11
-12.3711
 21
70.4453
  0
LINE
  8
0
 10
-12.3711
 20
70.4453
 11
-12.2107
 21
70.1044
  0
LINE
  8
0
 10
-12.2107
 20
70.1044
 11
-12.0942
 21
69.7461
  0
LINE
  8
0
 10
-12.0942
 20
69.7461
 11
-12.0237
 21
69.376
  0
LINE
  8
0
 10
-12.0237
 20
69.376
 11
-12
 21
69
  0
LINE
  8
0
 10
-12
 20
69
 11
-12.0237
 21
68.624
  0
LINE
  8
0
 10
-12.0237
 20
68.624
 11
-12.0942
 21
68.2539
  0
LINE
  8
0
 10
-12.0942
 20
68.2539
 11
-12.2107
 21
67.8956
  0
LINE
  8
0
 10
-12.2107
 20
67.8956
 11
-12.3711
 21
67.5547
  0
LINE
  8
0
 10
-12.3711
 20
67.5547
 11
-12.5729
 21
67.2366
  0
LINE
  8
0
 10
-12.5729
 20
67.2366
 11
-12.8131
 21
66.9464
  0
LINE
  8
0
 10
-12.8131
 20
66.9464
 11
-13.0877
 21
66.6884
  0
LINE
  8
0
 10
-13.0877
 20
66.6884
 11
-13.3925
 21
66.467
  0
LINE
  8
0
 10
-13.3925
 20
66.467
 11
-13.7227
 21
66.2855
  0
LINE
  8
0
 10
-13.7227
 20
66.2855
 11
-14.0729
 21
66.1468
  0
LINE
  8
0
 10
-14.0729
 20
66.1468
 11
-14.4379
 21
66.0531
  0
LINE
  8
0
 10
-14.4379
 20
66.0531
 11
-14.8116
 21
66.0059
  0
LINE
  8
0
 10
-14.8116
 20
66.0059
 11
-15.1884
 21
66.0059
  0
LINE
  8
0
 10
-30.1884
 20
66.0059
 11
-30.5621
 21
66.0531
  0
LINE
  8
0
 10
-30.5621
 20
66.0531
 11
-30.927
 21
66.1468
  0
LINE
  8
0
 10
-30.927
 20
66.1468
 11
-31.2773
 21
66.2855
  0
LINE
  8
0
 10
-31.2773
 20
66.2855
 11
-31.6075
 21
66.467
  0
LINE
  8
0
 10
-31.6075
 20
66.467
 11
-31.9123
 21
66.6884
  0
LINE
  8
0
 10
-31.9123
 20
66.6884
 11
-32.1869
 21
66.9464
  0
LINE
  8
0
 10
-32.1869
 20
66.9464
 11
-32.427
 21
67.2366
  0
LINE
  8
0
 10
-32.427
 20
67.2366
 11
-32.6289
 21
67.5547
  0
LINE
  8
0
 10
-32.6289
 20
67.5547
 11
-32.7893
 21
67.8956
  0
LINE
  8
0
 10
-32.7893
 20
67.8956
 11
-32.9057
 21
68.2539
  0
LINE
  8
0
 10
-32.9057
 20
68.2539
 11
-32.9763
 21
68.624
  0
LINE
  8
0
 10
-32.9763
 20
68.624
 11
-33
 21
69
  0
LINE
  8
0
 10
-33
 20
69
 11
-32.9763
 21
69.376
  0
LINE
  8
0
 10
-32.9763
 20
69.376
 11
-32.9057
 21
69.7461
  0
LINE
  8
0
 10
-32.9057
 20
69.7461
 11
-32.7893
 21
70.1044
  0
LINE
  8
0
 10
-32.7893
 20
70.1044
 11
-32.6289
 21
70.4453
  0
LINE
  8
0
 10
-32.6289
 20
70.4453
 11
-32.427
 21
70.7634
  0
LINE
  8
0
 10
-32.427
 20
70.7634
 11
-32.1869
 21
71.0536
  0
LINE
  8
0
 10
-32.1869
 20
71.0536
 11
-31.9123
 21
71.3115
  0
LINE
  8
0
 10
-31.9123
 20
71.3115
 11
-31.6075
 21
71.533
  0
LINE
  8
0
 10
-31.6075
 20
71.533
 11
-31.2773
 21
71.7145
  0
LINE
  8
0
 10
-31.2773
 20
71.7145
 11
-30.927
 21
71.8532
  0
LINE
  8
0
 10
-30.927
 20
71.8532
 11
-30.5621
 21
71.9469
  0
LINE
  8
0
 10
-30.5621
 20
71.9469
 11
-30.1884
 21
71.9941
  0
LINE
  8
0
 10
-30.1884
 20
71.9941
 11
-29.8116
 21
71.9941
  0
LINE
  8
0
 10
-29.8116
 20
71.9941
 11
-29.4379
 21
71.9469
  0
LINE
  8
0
 10
-29.4379
 20
71.9469
 11
-29.0729
 21
71.8532
  0
LINE
  8
0
 10
-29.0729
 20
71.8532
 11
-28.7227
 21
71.7145
  0
LINE
  8
0
 10
-28.7227
 20
71.7145
 11
-28.3925
 21
71.533
  0
LINE
  8
0
 10
-28.3925
 20
71.533
 11
-28.0877
 21
71.3115
  0
LINE
  8
0
 10
-28.0877
 20
71.3115
 11
-27.8131
 21
71.0536
  0
LINE
  8
0
 10
-27.8131
 20
71.0536
 11
-27.5729
 21
70.7634
  0
LINE
  8
0
 10
-27.5729
 20
70.7634
 11
-27.3711
 21
70.4453
  0
LINE
  8
0
 10
-27.3711
 20
70.4453
 11
-27.2107
 21
70.1044
  0
LINE
  8
0
 10
-27.2107
 20
70.1044
 11
-27.0942
 21
69.7461
  0
LINE
  8
0
 10
-27.0942
 20
69.7461
 11
-27.0237
 21
69.376
  0
LINE
  8
0
 10
-27.0237
 20
69.376
 11
-27
 21
69
  0
LINE
  8
0
 10
-27
 20
69
 11
-27.0237
 21
68.624
  0
LINE
  8
0
 10
-27.0237
 20
68.624
 11
-27.0942
 21
68.2539
  0
LINE
  8
0
 10
-27.0942
 20
68.2539
 11
-27.2107
 21
67.8956
  0
LINE
  8
0
 10
-27.2107
 20
67.8956
 11
-27.3711
 21
67.5547
  0
LINE
  8
0
 10
-27.3711
 20
67.5547
 11
-27.5729
 21
67.2366
  0
LINE
  8
0
 10
-27.5729
 20
67.2366
 11
-27.8131
 21
66.9464
  0
LINE
  8
0
 10
-27.8131
 20
66.9464
 11
-28.0877
 21
66.6884
  0
LINE
  8
0
 10
-28.0877
 20
66.6884
 11
-28.3925
 21
66.467
  0
LINE
  8
0
 10
-28.3925
 20
66.467
 11
-28.7227
 21
66.2855
  0
LINE
  8
0
 10
-28.7227
 20
66.2855
 11
-29.0729
 21
66.1468
  0
LINE
  8
0
 10
-29.0729
 20
66.1468
 11
-29.4379
 21
66.0531
  0
LINE
  8
0
 10
-29.4379
 20
66.0531
 11
-29.8116
 21
66.0059
  0
LINE
  8
0
 10
-29.8116
 20
66.0059
 11
-30.1884
 21
66.0059
  0
LINE
  8
0
 10
29.8116
 20
66.0059
 11
29.4379
 21
66.0531
  0
LINE
  8
0
 10
29.4379
 20
66.0531
 11
29.0729
 21
66.1468
  0
LINE
  8
0
 10
29.0729
 20
66.1468
 11
28.7227
 21
66.2855
  0
LINE
  8
0
 10
28.7227
 20
66.2855
 11
28.3925
 21
66.467
  0
LINE
  8
0
 10
28.3925
 20
66.467
 11
28.0877
 21
66.6884
  0
LINE
  8
0
 10
28.0877
 20
66.6884
 11
27.8131
 21
66.9464
  0
LINE
  8
0
 10
27.8131
 20
66.9464
 11
27.5729
 21
67.2366
  0
LINE
  8
0
 10
27.5729
 20
67.2366
 11
27.3711
 21
67.5547
  0
LINE
  8
0
 10
27.3711
 20
67.5547
 11
27.2107
 21
67.8956
  0
LINE
  8
0
 10
27.2107
 20
67.8956
 11
27.0942
 21
68.2539
  0
LINE
  8
0
 10
27.0942
 20
68.2539
 11
27.0237
 21
68.624
  0
LINE
  8
0
 10
27.0237
 20
68.624
 11
27
 21
69
  0
LINE
  8
0
 10
27
 20
69
 11
27.0237
 21
69.376
  0
LINE
  8
0
 10
27.0237
 20
69.376
 11
27.0942
 21
69.7461
  0
LINE
  8
0
 10
27.0942
 20
69.7461
 11
27.2107
 21
70.1044
  0
LINE
  8
0
 10
27.2107
 20
70.1044
 11
27.3711
 21
70.4453
  0
LINE
  8
0
 10
27.3711
 20
70.4453
 11
27.5729
 21
70.7634
  0
LINE
  8
0
 10
27.5729
 20
70.7634
 11
27.8131
 21
71.0536
  0
LINE
  8
0
 10
27.8131
 20
71.0536
 11
28.0877
 21
71.3115
  0
LINE
  8
0
 10
28.0877
 20
71.3115
 11
28.3925
 21
71.533
  0
LINE
  8
0
 10
28.3925
 20
71.533
 11
28.7227
 21
71.7145
  0
LINE
  8
0
 10
28.7227
 20
71.7145
 11
29.0729
 21
71.8532
  0
LINE
  8
0
 10
29.0729
 20
71.8532
 11
29.4379
 21
71.9469
  0
LINE
  8
0
 10
29.4379
 20
71.9469
 11
29.8116
 21
71.9941
  0
LINE
  8
0
 10
29.8116
 20
71.9941
 11
30.1884
 21
71.9941
  0
LINE
  8
0
 10
30.1884
 20
71.9941
 11
30.5621
 21
71.9469
  0
LINE
  8
0
 10
30.5621
 20
71.9469
 11
30.927
 21
71.8532
  0
LINE
  8
0
 10
30.927
 20
71.8532
 11
31.2773
 21
71.7145
  0
LINE
  8
0
 10
31.2773
 20
71.7145
 11
31.6075
 21
71.533
  0
LINE
  8
0
 10
31.6075
 20
71.533
 11
31.9123
 21
71.3115
  0
LINE
  8
0
 10
31.9123
 20
71.3115
 11
32.1869
 21
71.0536
  0
LINE
  8
0
 10
32.1869
 20
71.0536
 11
32.427
 21
70.7634
  0
LINE
  8
0
 10
32.427
 20
70.7634
 11
32.6289
 21
70.4453
  0
LINE
  8
0
 10
32.6289
 20
70.4453
 11
32.7893
 21
70.1044
  0
LINE
  8
0
 10
32.7893
 20
70.1044
 11
32.9057
 21
69.7461
  0
LINE
  8
0
 10
32.9057
 20
69.7461
 11
32.9763
 21
69.376
  0
LINE
  8
0
 10
32.9763
 20
69.376
 11
33
 21
69
  0
LINE
  8
0
 10
33
 20
69
 11
32.9763
 21
68.624
  0
LINE
  8
0
 10
32.9763
 20
68.624
 11
32.9057
 21
68.2539
  0
LINE
  8
0
 10
32.9057
 20
68.2539
 11
32.7893
 21
67.8956
  0
LINE
  8
0
 10
32.7893
 20
67.8956
 11
32.6289
 21
67.5547
  0
LINE
  8
0
 10
32.6289
 20
67.5547
 11
32.427
 21
67.2366
  0
LINE
  8
0
 10
32.427
 20
67.2366
 11
32.1869
 21
66.9464
  0
LINE
  8
0
 10
32.1869
 20
66.9464
 11
31.9123
 21
66.6884
  0
LINE
  8
0
 10
31.9123
 20
66.6884
 11
31.6075
 21
66.467
  0
LINE
  8
0
 10
31.6075
 20
66.467
 11
31.2773
 21
66.2855
  0
LINE
  8
0
 10
31.2773
 20
66.2855
 11
30.927
 21
66.1468
  0
LINE
  8
0
 10
30.927
 20
66.1468
 11
30.5621
 21
66.0531
  0
LINE
  8
0
 10
30.5621
 20
66.0531
 11
30.1884
 21
66.0059
  0
LINE
  8
0
 10
30.1884
 20
66.0059
 11
29.8116
 21
66.0059
  0
LINE
  8
0
 10
14.8116
 20
66.0059
 11
14.4379
 21
66.0531
  0
LINE
  8
0
 10
14.4379
 20
66.0531
 11
14.0729
 21
66.1468
  0
LINE
  8
0
 10
14.0729
 20
66.1468
 11
13.7227
 21
66.2855
  0
LINE
  8
0
 10
13.7227
 20
66.2855
 11
13.3925
 21
66.467
  0
LINE
  8
0
 10
13.3925
 20
66.467
 11
13.0877
 21
66.6884
  0
LINE
  8
0
 10
13.0877
 20
66.6884
 11
12.8131
 21
66.9464
  0
LINE
  8
0
 10
12.8131
 20
66.9464
 11
12.5729
 21
67.2366
  0
LINE
  8
0
 10
12.5729
 20
67.2366
 11
12.3711
 21
67.5547
  0
LINE
  8
0
 10
12.3711
 20
67.5547
 11
12.2107
 21
67.8956
  0
LINE
  8
0
 10
12.2107
 20
67.8956
 11
12.0942
 21
68.2539
  0
LINE
  8
0
 10
12.0942
 20
68.2539
 11
12.0237
 21
68.624
  0
LINE
  8
0
 10
12.0237
 20
68.624
 11
12
 21
69
  0
LINE
  8
0
 10
12
 20
69
 11
12.0237
 21
69.376
  0
LINE
  8
0
 10
12.0237
 20
69.376
 11
12.0942
 21
69.7461
  0
LINE
  8
0
 10
12.0942
 20
69.7461
 11
12.2107
 21
70.1044
  0
LINE
  8
0
 10
12.2107
 20
70.1044
 11
12.3711
 21
70.4453
  0
LINE
  8
0
 10
12.3711
 20
70.4453
 11
12.5729
 21
70.7634
  0
LINE
  8
0
 10
12.5729
 20
70.7634
 11
12.8131
 21
71.0536
  0
LINE
  8
0
 10
12.8131
 20
71.0536
 11
13.0877
 21
71.3115
  0
LINE
  8
0
 10
13.0877
 20
71.3115
 11
13.3925
 21
71.533
  0
LINE
  8
0
 10
13.3925
 20
71.533
 11
13.7227
 21
71.7145
  0
LINE
  8
0
 10
13.7227
 20
71.7145
 11
14.0729
 21
71.8532
  0
LINE
  8
0
 10
14.0729
 20
71.8532
 11
14.4379
 21
71.9469
  0
LINE
  8
0
 10
14.4379
 20
71.9469
 11
14.8116
 21
71.9941
  0
LINE
  8
0
 10
14.8116
 20
71.9941
 11
15.1884
 21
71.9941
  0
LINE
  8
0
 10
15.1884
 20
71.9941
 11
15.5621
 21
71.9469
  0
LINE
  8
0
 10
15.5621
 20
71.9469
 11
15.927
 21
71.8532
  0
LINE
  8
0
 10
15.927
 20
71.8532
 11
16.2773
 21
71.7145
  0
LINE
  8
0
 10
16.2773
 20
71.7145
 11
16.6075
 21
71.533
  0
LINE
  8
0
 10
16.6075
 20
71.533
 11
16.9123
 21
71.3115
  0
LINE
  8
0
 10
16.9123
 20
71.3115
 11
17.1869
 21
71.0536
  0
LINE
  8
0
 10
17.1869
 20
71.0536
 11
17.427
 21
70.7634
  0
LINE
  8
0
 10
17.427
 20
70.7634
 11
17.6289
 21
70.4453
  0
LINE
  8
0
 10
17.6289
 20
70.4453
 11
17.7893
 21
70.1044
  0
LINE
  8
0
 10
17.7893
 20
70.1044
 11
17.9057
 21
69.7461
  0
LINE
  8
0
 10
17.9057
 20
69.7461
 11
17.9763
 21
69.376
  0
LINE
  8
0
 10
17.9763
 20
69.376
 11
18
 21
69
  0
LINE
  8
0
 10
18
 20
69
 11
17.9763
 21
68.624
  0
LINE
  8
0
 10
17.9763
 20
68.624
 11
17.9057
 21
68.2539
  0
LINE
  8
0
 10
17.9057
 20
68.2539
 11
17.7893
 21
67.8956
  0
LINE
  8
0
 10
17.7893
 20
67.8956
 11
17.6289
 21
67.5547
  0
LINE
  8
0
 10
17.6289
 20
67.5547
 11
17.427
 21
67.2366
  0
LINE
  8
0
 10
17.427
 20
67.2366
 11
17.1869
 21
66.9464
  0
LINE
  8
0
 10
17.1869
 20
66.9464
 11
16.9123
 21
66.6884
  0
LINE
  8
0
 10
16.9123
 20
66.6884
 11
16.6075
 21
66.467
  0
LINE
  8
0
 10
16.6075
 20
66.467
 11
16.2773
 21
66.2855
  0
LINE
  8
0
 10
16.2773
 20
66.2855
 11
15.927
 21
66.1468
  0
LINE
  8
0
 10
15.927
 20
66.1468
 11
15.5621
 21
66.0531
  0
LINE
  8
0
 10
15.5621
 20
66.0531
 11
15.1884
 21
66.0059
  0
LINE
  8
0
 10
15.1884
 20
66.0059
 11
14.8116
 21
66.0059
  0
LINE
  8
0
 10
14.8116
 20
51.0059
 11
14.4379
 21
51.0531
  0
LINE
  8
0
 10
14.4379
 20
51.0531
 11
14.0729
 21
51.1468
  0
LINE
  8
0
 10
14.0729
 20
51.1468
 11
13.7227
 21
51.2855
  0
LINE
  8
0
 10
13.7227
 20
51.2855
 11
13.3925
 21
51.467
  0
LINE
  8
0
 10
13.3925
 20
51.467
 11
13.0877
 21
51.6885
  0
LINE
  8
0
 10
13.0877
 20
51.6885
 11
12.8131
 21
51.9464
  0
LINE
  8
0
 10
12.8131
 20
51.9464
 11
12.5729
 21
52.2366
  0
LINE
  8
0
 10
12.5729
 20
52.2366
 11
12.3711
 21
52.5547
  0
LINE
  8
0
 10
12.3711
 20
52.5547
 11
12.2107
 21
52.8956
  0
LINE
  8
0
 10
12.2107
 20
52.8956
 11
12.0942
 21
53.2539
  0
LINE
  8
0
 10
12.0942
 20
53.2539
 11
12.0237
 21
53.624
  0
LINE
  8
0
 10
12.0237
 20
53.624
 11
12
 21
54
  0
LINE
  8
0
 10
12
 20
54
 11
12.0237
 21
54.376
  0
LINE
  8
0
 10
12.0237
 20
54.376
 11
12.0942
 21
54.7461
  0
LINE
  8
0
 10
12.0942
 20
54.7461
 11
12.2107
 21
55.1044
  0
LINE
  8
0
 10
12.2107
 20
55.1044
 11
12.3711
 21
55.4453
  0
LINE
  8
0
 10
12.3711
 20
55.4453
 11
12.5729
 21
55.7634
  0
LINE
  8
0
 10
12.5729
 20
55.7634
 11
12.8131
 21
56.0536
  0
LINE
  8
0
 10
12.8131
 20
56.0536
 11
13.0877
 21
56.3115
  0
LINE
  8
0
 10
13.0877
 20
56.3115
 11
13.3925
 21
56.533
  0
LINE
  8
0
 10
13.3925
 20
56.533
 11
13.7227
 21
56.7145
  0
LINE
  8
0
 10
13.7227
 20
56.7145
 11
14.0729
 21
56.8532
  0
LINE
  8
0
 10
14.0729
 20
56.8532
 11
14.4379
 21
56.9469
  0
LINE
  8
0
 10
14.4379
 20
56.9469
 11
14.8116
 21
56.9941
  0
LINE
  8
0
 10
14.8116
 20
56.9941
 11
15.1884
 21
56.9941
  0
LINE
  8
0
 10
15.1884
 20
56.9941
 11
15.5621
 21
56.9469
  0
LINE
  8
0
 10
15.5621
 20
56.9469
 11
15.927
 21
56.8532
  0
LINE
  8
0
 10
15.927
 20
56.8532
 11
16.2773
 21
56.7145
  0
LINE
  8
0
 10
16.2773
 20
56.7145
 11
16.6075
 21
56.533
  0
LINE
  8
0
 10
16.6075
 20
56.533
 11
16.9123
 21
56.3115
  0
LINE
  8
0
 10
16.9123
 20
56.3115
 11
17.1869
 21
56.0536
  0
LINE
  8
0
 10
17.1869
 20
56.0536
 11
17.427
 21
55.7634
  0
LINE
  8
0
 10
17.427
 20
55.7634
 11
17.6289
 21
55.4453
  0
LINE
  8
0
 10
17.6289
 20
55.4453
 11
17.7893
 21
55.1044
  0
LINE
  8
0
 10
17.7893
 20
55.1044
 11
17.9057
 21
54.7461
  0
LINE
  8
0
 10
17.9057
 20
54.7461
 11
17.9763
 21
54.376
  0
LINE
  8
0
 10
17.9763
 20
54.376
 11
18
 21
54
  0
LINE
  8
0
 10
18
 20
54
 11
17.9763
 21
53.624
  0
LINE
  8
0
 10
17.9763
 20
53.624
 11
17.9057
 21
53.2539
  0
LINE
  8
0
 10
17.9057
 20
53.2539
 11
17.7893
 21
52.8956
  0
LINE
  8
0
 10
17.7893
 20
52.8956
 11
17.6289
 21
52.5547
  0
LINE
  8
0
 10
17.6289
 20
52.5547
 11
17.427
 21
52.2366
  0
LINE
  8
0
 10
17.427
 20
52.2366
 11
17.1869
 21
51.9464
  0
LINE
  8
0
 10
17.1869
 20
51.9464
 11
16.9123
 21
51.6885
  0
LINE
  8
0
 10
16.9123
 20
51.6885
 11
16.6075
 21
51.467
  0
LINE
  8
0
 10
16.6075
 20
51.467
 11
16.2773
 21
51.2855
  0
LINE
  8
0
 10
16.2773
 20
51.2855
 11
15.927
 21
51.1468
  0
LINE
  8
0
 10
15.927
 20
51.1468
 11
15.5621
 21
51.0531
  0
LINE
  8
0
 10
15.5621
 20
51.0531
 11
15.1884
 21
51.0059
  0
LINE
  8
0
 10
15.1884
 20
51.0059
 11
14.8116
 21
51.0059
  0
LINE
  8
0
 10
-30.1884
 20
51.0059
 11
-30.5621
 21
51.0531
  0
LINE
  8
0
 10
-30.5621
 20
51.0531
 11
-30.927
 21
51.1468
  0
LINE
  8
0
 10
-30.927
 20
51.1468
 11
-31.2773
 21
51.2855
  0
LINE
  8
0
 10
-31.2773
 20
51.2855
 11
-31.6075
 21
51.467
  0
LINE
  8
0
 10
-31.6075
 20
51.467
 11
-31.9123
 21
51.6885
  0
LINE
  8
0
 10
-31.9123
 20
51.6885
 11
-32.1869
 21
51.9464
  0
LINE
  8
0
 10
-32.1869
 20
51.9464
 11
-32.427
 21
52.2366
  0
LINE
  8
0
 10
-32.427
 20
52.2366
 11
-32.6289
 21
52.5547
  0
LINE
  8
0
 10
-32.6289
 20
52.5547
 11
-32.7893
 21
52.8956
  0
LINE
  8
0
 10
-32.7893
 20
52.8956
 11
-32.9057
 21
53.2539
  0
LINE
  8
0
 10
-32.9057
 20
53.2539
 11
-32.9763
 21
53.624
  0
LINE
  8
0
 10
-32.9763
 20
53.624
 11
-33
 21
54
  0
LINE
  8
0
 10
-33
 20
54
 11
-32.9763
 21
54.376
  0
LINE
  8
0
 10
-32.9763
 20
54.376
 11
-32.9057
 21
54.7461
  0
LINE
  8
0
 10
-32.9057
 20
54.7461
 11
-32.7893
 21
55.1044
  0
LINE
  8
0
 10
-32.7893
 20
55.1044
 11
-32.6289
 21
55.4453
  0
LINE
  8
0
 10
-32.6289
 20
55.4453
 11
-32.427
 21
55.7634
  0
LINE
  8
0
 10
-32.427
 20
55.7634
 11
-32.1869
 21
56.0536
  0
LINE
  8
0
 10
-32.1869
 20
56.0536
 11
-31.9123
 21
56.3115
  0
LINE
  8
0
 10
-31.9123
 20
56.3115
 11
-31.6075
 21
56.533
  0
LINE
  8
0
 10
-31.6075
 20
56.533
 11
-31.2773
 21
56.7145
  0
LINE
  8
0
 10
-31.2773
 20
56.7145
 11
-30.927
 21
56.8532
  0
LINE
  8
0
 10
-30.927
 20
56.8532
 11
-30.5621
 21
56.9469
  0
LINE
  8
0
 10
-30.5621
 20
56.9469
 11
-30.1884
 21
56.9941
  0
LINE
  8
0
 10
-30.1884
 20
56.9941
 11
-29.8116
 21
56.9941
  0
LINE
  8
0
 10
-29.8116
 20
56.9941
 11
-29.4379
 21
56.9469
  0
LINE
  8
0
 10
-29.4379
 20
56.9469
 11
-29.0729
 21
56.8532
  0
LINE
  8
0
 10
-29.0729
 20
56.8532
 11
-28.7227
 21
56.7145
  0
LINE
  8
0
 10
-28.7227
 20
56.7145
 11
-28.3925
 21
56.533
  0
LINE
  8
0
 10
-28.3925
 20
56.533
 11
-28.0877
 21
56.3115
  0
LINE
  8
0
 10
-28.0877
 20
56.3115
 11
-27.8131
 21
56.0536
  0
LINE
  8
0
 10
-27.8131
 20
56.0536
 11
-27.5729
 21
55.7634
  0
LINE
  8
0
 10
-27.5729
 20
55.7634
 11
-27.3711
 21
55.4453
  0
LINE
  8
0
 10
-27.3711
 20
55.4453
 11
-27.2107
 21
55.1044
  0
LINE
  8
0
 10
-27.2107
 20
55.1044
 11
-27.0942
 21
54.7461
  0
LINE
  8
0
 10
-27.0942
 20
54.7461
 11
-27.0237
 21
54.376
  0
LINE
  8
0
 10
-27.0237
 20
54.376
 11
-27
 21
54
  0
LINE
  8
0
 10
-27
 20
54
 11
-27.0237
 21
53.624
  0
LINE
  8
0
 10
-27.0237
 20
53.624
 11
-27.0942
 21
53.2539
  0
LINE
  8
0
 10
-27.0942
 20
53.2539
 11
-27.2107
 21
52.8956
  0
LINE
  8
0
 10
-27.2107
 20
52.8956
 11
-27.3711
 21
52.5547
  0
LINE
  8
0
 10
-27.3711
 20
52.5547
 11
-27.5729
 21
52.2366
  0
LINE
  8
0
 10
-27.5729
 20
52.2366
 11
-27.8131
 21
51.9464
  0
LINE
  8
0
 10
-27.8131
 20
51.9464
 11
-28.0877
 21
51.6885
  0
LINE
  8
0
 10
-28.0877
 20
51.6885
 11
-28.3925
 21
51.467
  0
LINE
  8
0
 10
-28.3925
 20
51.467
 11
-28.7227
 21
51.2855
  0
LINE
  8
0
 10
-28.7227
 20
51.2855
 11
-29.0729
 21
51.1468
  0
LINE
  8
0
 10
-29.0729
 20
51.1468
 11
-29.4379
 21
51.0531
  0
LINE
  8
0
 10
-29.4379
 20
51.0531
 11
-29.8116
 21
51.0059
  0
LINE
  8
0
 10
-29.8116
 20
51.0059
 11
-30.1884
 21
51.0059
  0
LINE
  8
0
 10
-15.1884
 20
51.0059
 11
-15.5621
 21
51.0531
  0
LINE
  8
0
 10
-15.5621
 20
51.0531
 11
-15.927
 21
51.1468
  0
LINE
  8
0
 10
-15.927
 20
51.1468
 11
-16.2773
 21
51.2855
  0
LINE
  8
0
 10
-16.2773
 20
51.2855
 11
-16.6075
 21
51.467
  0
LINE
  8
0
 10
-16.6075
 20
51.467
 11
-16.9123
 21
51.6885
  0
LINE
  8
0
 10
-16.9123
 20
51.6885
 11
-17.1869
 21
51.9464
  0
LINE
  8
0
 10
-17.1869
 20
51.9464
 11
-17.427
 21
52.2366
  0
LINE
  8
0
 10
-17.427
 20
52.2366
 11
-17.6289
 21
52.5547
  0
LINE
  8
0
 10
-17.6289
 20
52.5547
 11
-17.7893
 21
52.8956
  0
LINE
  8
0
 10
-17.7893
 20
52.8956
 11
-17.9057
 21
53.2539
  0
LINE
  8
0
 10
-17.9057
 20
53.2539
 11
-17.9763
 21
53.624
  0
LINE
  8
0
 10
-17.9763
 20
53.624
 11
-18
 21
54
  0
LINE
  8
0
 10
-18
 20
54
 11
-17.9763
 21
54.376
  0
LINE
  8
0
 10
-17.9763
 20
54.376
 11
-17.9057
 21
54.7461
  0
LINE
  8
0
 10
-17.9057
 20
54.7461
 11
-17.7893
 21
55.1044
  0
LINE
  8
0
 10
-17.7893
 20
55.1044
 11
-17.6289
 21
55.4453
  0
LINE
  8
0
 10
-17.6289
 20
55.4453
 11
-17.427
 21
55.7634
  0
LINE
  8
0
 10
-17.427
 20
55.7634
 11
-17.1869
 21
56.0536
  0
LINE
  8
0
 10
-17.1869
 20
56.0536
 11
-16.9123
 21
56.3115
  0
LINE
  8
0
 10
-16.9123
 20
56.3115
 11
-16.6075
 21
56.533
  0
LINE
  8
0
 10
-16.6075
 20
56.533
 11
-16.2773
 21
56.7145
  0
LINE
  8
0
 10
-16.2773
 20
56.7145
 11
-15.927
 21
56.8532
  0
LINE
  8
0
 10
-15.927
 20
56.8532
 11
-15.5621
 21
56.9469
  0
LINE
  8
0
 10
-15.5621
 20
56.9469
 11
-15.1884
 21
56.9941
  0
LINE
  8
0
 10
-15.1884
 20
56.9941
 11
-14.8116
 21
56.9941
  0
LINE
  8
0
 10
-14.8116
 20
56.9941
 11
-14.4379
 21
56.9469
  0
LINE
  8
0
 10
-14.4379
 20
56.9469
 11
-14.0729
 21
56.8532
  0
LINE
  8
0
 10
-14.0729
 20
56.8532
 11
-13.7227
 21
56.7145
  0
LINE
  8
0
 10
-13.7227
 20
56.7145
 11
-13.3925
 21
56.533
  0
LINE
  8
0
 10
-13.3925
 20
56.533
 11
-13.0877
 21
56.3115
  0
LINE
  8
0
 10
-13.0877
 20
56.3115
 11
-12.8131
 21
56.0536
  0
LINE
  8
0
 10
-12.8131
 20
56.0536
 11
-12.5729
 21
55.7634
  0
LINE
  8
0
 10
-12.5729
 20
55.7634
 11
-12.3711
 21
55.4453
  0
LINE
  8
0
 10
-12.3711
 20
55.4453
 11
-12.2107
 21
55.1044
  0
LINE
  8
0
 10
-12.2107
 20
55.1044
 11
-12.0942
 21
54.7461
  0
LINE
  8
0
 10
-12.0942
 20
54.7461
 11
-12.0237
 21
54.376
  0
LINE
  8
0
 10
-12.0237
 20
54.376
 11
-12
 21
54
  0
LINE
  8
0
 10
-12
 20
54
 11
-12.0237
 21
53.624
  0
LINE
  8
0
 10
-12.0237
 20
53.624
 11
-12.0942
 21
53.2539
  0
LINE
  8
0
 10
-12.0942
 20
53.2539
 11
-12.2107
 21
52.8956
  0
LINE
  8
0
 10
-12.2107
 20
52.8956
 11
-12.3711
 21
52.5547
  0
LINE
  8
0
 10
-12.3711
 20
52.5547
 11
-12.5729
 21
52.2366
  0
LINE
  8
0
 10
-12.5729
 20
52.2366
 11
-12.8131
 21
51.9464
  0
LINE
  8
0
 10
-12.8131
 20
51.9464
 11
-13.0877
 21
51.6885
  0
LINE
  8
0
 10
-13.0877
 20
51.6885
 11
-13.3925
 21
51.467
  0
LINE
  8
0
 10
-13.3925
 20
51.467
 11
-13.7227
 21
51.2855
  0
LINE
  8
0
 10
-13.7227
 20
51.2855
 11
-14.0729
 21
51.1468
  0
LINE
  8
0
 10
-14.0729
 20
51.1468
 11
-14.4379
 21
51.0531
  0
LINE
  8
0
 10
-14.4379
 20
51.0531
 11
-14.8116
 21
51.0059
  0
LINE
  8
0
 10
-14.8116
 20
51.0059
 11
-15.1884
 21
51.0059
  0
LINE
  8
0
 10
-0.18837
 20
51.0059
 11
-0.562134
 21
51.0531
  0
LINE
  8
0
 10
-0.562134
 20
51.0531
 11
-0.927048
 21
51.1468
  0
LINE
  8
0
 10
-0.927048
 20
51.1468
 11
-1.27733
 21
51.2855
  0
LINE
  8
0
 10
-1.27733
 20
51.2855
 11
-1.60747
 21
51.467
  0
LINE
  8
0
 10
-1.60747
 20
51.467
 11
-1.91226
 21
51.6885
  0
LINE
  8
0
 10
-1.91226
 20
51.6885
 11
-2.1869
 21
51.9464
  0
LINE
  8
0
 10
-2.1869
 20
51.9464
 11
-2.42705
 21
52.2366
  0
LINE
  8
0
 10
-2.42705
 20
52.2366
 11
-2.62891
 21
52.5547
  0
LINE
  8
0
 10
-2.62891
 20
52.5547
 11
-2.78932
 21
52.8956
  0
LINE
  8
0
 10
-2.78932
 20
52.8956
 11
-2.90575
 21
53.2539
  0
LINE
  8
0
 10
-2.90575
 20
53.2539
 11
-2.97633
 21
53.624
  0
LINE
  8
0
 10
-2.97633
 20
53.624
 11
-3
 21
54
  0
LINE
  8
0
 10
-3
 20
54
 11
-2.97633
 21
54.376
  0
LINE
  8
0
 10
-2.97633
 20
54.376
 11
-2.90575
 21
54.7461
  0
LINE
  8
0
 10
-2.90575
 20
54.7461
 11
-2.78932
 21
55.1044
  0
LINE
  8
0
 10
-2.78932
 20
55.1044
 11
-2.62891
 21
55.4453
  0
LINE
  8
0
 10
-2.62891
 20
55.4453
 11
-2.42705
 21
55.7634
  0
LINE
  8
0
 10
-2.42705
 20
55.7634
 11
-2.1869
 21
56.0536
  0
LINE
  8
0
 10
-2.1869
 20
56.0536
 11
-1.91226
 21
56.3115
  0
LINE
  8
0
 10
-1.91226
 20
56.3115
 11
-1.60747
 21
56.533
  0
LINE
  8
0
 10
-1.60747
 20
56.533
 11
-1.27733
 21
56.7145
  0
LINE
  8
0
 10
-1.27733
 20
56.7145
 11
-0.927048
 21
56.8532
  0
LINE
  8
0
 10
-0.927048
 20
56.8532
 11
-0.562134
 21
56.9469
  0
LINE
  8
0
 10
-0.562134
 20
56.9469
 11
-0.18837
 21
56.9941
  0
LINE
  8
0
 10
-0.18837
 20
56.9941
 11
0.18837
 21
56.9941
  0
LINE
  8
0
 10
0.18837
 20
56.9941
 11
0.562134
 21
56.9469
  0
LINE
  8
0
 10
0.562134
 20
56.9469
 11
0.927048
 21
56.8532
  0
LINE
  8
0
 10
0.927048
 20
56.8532
 11
1.27733
 21
56.7145
  0
LINE
  8
0
 10
1.27733
 20
56.7145
 11
1.60747
 21
56.533
  0
LINE
  8
0
 10
1.60747
 20
56.533
 11
1.91226
 21
56.3115
  0
LINE
  8
0
 10
1.91226
 20
56.3115
 11
2.1869
 21
56.0536
  0
LINE
  8
0
 10
2.1869
 20
56.0536
 11
2.42705
 21
55.7634
  0
LINE
  8
0
 10
2.42705
 20
55.7634
 11
2.62891
 21
55.4453
  0
LINE
  8
0
 10
2.62891
 20
55.4453
 11
2.78932
 21
55.1044
  0
LINE
  8
0
 10
2.78932
 20
55.1044
 11
2.90575
 21
54.7461
  0
LINE
  8
0
 10
2.90575
 20
54.7461
 11
2.97633
 21
54.376
  0
LINE
  8
0
 10
2.97633
 20
54.376
 11
3
 21
54
  0
LINE
  8
0
 10
3
 20
54
 11
2.97633
 21
53.624
  0
LINE
  8
0
 10
2.97633
 20
53.624
 11
2.90575
 21
53.2539
  0
LINE
  8
0
 10
2.90575
 20
53.2539
 11
2.78932
 21
52.8956
  0
LINE
  8
0
 10
2.78932
 20
52.8956
 11
2.62891
 21
52.5547
  0
LINE
  8
0
 10
2.62891
 20
52.5547
 11
2.42705
 21
52.2366
  0
LINE
  8
0
 10
2.42705
 20
52.2366
 11
2.1869
 21
51.9464
  0
LINE
  8
0
 10
2.1869
 20
51.9464
 11
1.91226
 21
51.6885
  0
LINE
  8
0
 10
1.91226
 20
51.6885
 11
1.60747
 21
51.467
  0
LINE
  8
0
 10
1.60747
 20
51.467
 11
1.27733
 21
51.2855
  0
LINE
  8
0
 10
1.27733
 20
51.2855
 11
0.927048
 21
51.1468
  0
LINE
  8
0
 10
0.927048
 20
51.1468
 11
0.562134
 21
51.0531
  0
LINE
  8
0
 10
0.562134
 20
51.0531
 11
0.18837
 21
51.0059
  0
LINE
  8
0
 10
0.18837
 20
51.0059
 11
-0.18837
 21
51.0059
  0
LINE
  8
0
 10
29.8116
 20
51.0059
 11
29.4379
 21
51.0531
  0
LINE
  8
0
 10
29.4379
 20
51.0531
 11
29.0729
 21
51.1468
  0
LINE
  8
0
 10
29.0729
 20
51.1468
 11
28.7227
 21
51.2855
  0
LINE
  8
0
 10
28.7227
 20
51.2855
 11
28.3925
 21
51.467
  0
LINE
  8
0
 10
28.3925
 20
51.467
 11
28.0877
 21
51.6885
  0
LINE
  8
0
 10
28.0877
 20
51.6885
 11
27.8131
 21
51.9464
  0
LINE
  8
0
 10
27.8131
 20
51.9464
 11
27.5729
 21
52.2366
  0
LINE
  8
0
 10
27.5729
 20
52.2366
 11
27.3711
 21
52.5547
  0
LINE
  8
0
 10
27.3711
 20
52.5547
 11
27.2107
 21
52.8956
  0
LINE
  8
0
 10
27.2107
 20
52.8956
 11
27.0942
 21
53.2539
  0
LINE
  8
0
 10
27.0942
 20
53.2539
 11
27.0237
 21
53.624
  0
LINE
  8
0
 10
27.0237
 20
53.624
 11
27
 21
54
  0
LINE
  8
0
 10
27
 20
54
 11
27.0237
 21
54.376
  0
LINE
  8
0
 10
27.0237
 20
54.376
 11
27.0942
 21
54.7461
  0
LINE
  8
0
 10
27.0942
 20
54.7461
 11
27.2107
 21
55.1044
  0
LINE
  8
0
 10
27.2107
 20
55.1044
 11
27.3711
 21
55.4453
  0
LINE
  8
0
 10
27.3711
 20
55.4453
 11
27.5729
 21
55.7634
  0
LINE
  8
0
 10
27.5729
 20
55.7634
 11
27.8131
 21
56.0536
  0
LINE
  8
0
 10
27.8131
 20
56.0536
 11
28.0877
 21
56.3115
  0
LINE
  8
0
 10
28.0877
 20
56.3115
 11
28.3925
 21
56.533
  0
LINE
  8
0
 10
28.3925
 20
56.533
 11
28.7227
 21
56.7145
  0
LINE
  8
0
 10
28.7227
 20
56.7145
 11
29.0729
 21
56.8532
  0
LINE
  8
0
 10
29.0729
 20
56.8532
 11
29.4379
 21
56.9469
  0
LINE
  8
0
 10
29.4379
 20
56.9469
 11
29.8116
 21
56.9941
  0
LINE
  8
0
 10
29.8116
 20
56.9941
 11
30.1884
 21
56.9941
  0
LINE
  8
0
 10
30.1884
 20
56.9941
 11
30.5621
 21
56.9469
  0
LINE
  8
0
 10
30.5621
 20
56.9469
 11
30.927
 21
56.8532
  0
LINE
  8
0
 10
30.927
 20
56.8532
 11
31.2773
 21
56.7145
  0
LINE
  8
0
 10
31.2773
 20
56.7145
 11
31.6075
 21
56.533
  0
LINE
  8
0
 10
31.6075
 20
56.533
 11
31.9123
 21
56.3115
  0
LINE
  8
0
 10
31.9123
 20
56.3115
 11
32.1869
 21
56.0536
  0
LINE
  8
0
 10
32.1869
 20
56.0536
 11
32.427
 21
55.7634
  0
LINE
  8
0
 10
32.427
 20
55.7634
 11
32.6289
 21
55.4453
  0
LINE
  8
0
 10
32.6289
 20
55.4453
 11
32.7893
 21
55.1044
  0
LINE
  8
0
 10
32.7893
 20
55.1044
 11
32.9057
 21
54.7461
  0
LINE
  8
0
 10
32.9057
 20
54.7461
 11
32.9763
 21
54.376
  0
LINE
  8
0
 10
32.9763
 20
54.376
 11
33
 21
54
  0
LINE
  8
0
 10
33
 20
54
 11
32.9763
 21
53.624
  0
LINE
  8
0
 10
32.9763
 20
53.624
 11
32.9057
 21
53.2539
  0
LINE
  8
0
 10
32.9057
 20
53.2539
 11
32.7893
 21
52.8956
  0
LINE
  8
0
 10
32.7893
 20
52.8956
 11
32.6289
 21
52.5547
  0
LINE
  8
0
 10
32.6289
 20
52.5547
 11
32.427
 21
52.2366
  0
LINE
  8
0
 10
32.427
 20
52.2366
 11
32.1869
 21
51.9464
  0
LINE
  8
0
 10
32.1869
 20
51.9464
 11
31.9123
 21
51.6885
  0
LINE
  8
0
 10
31.9123
 20
51.6885
 11
31.6075
 21
51.467
  0
LINE
  8
0
 10
31.6075
 20
51.467
 11
31.2773
 21
51.2855
  0
LINE
  8
0
 10
31.2773
 20
51.2855
 11
30.927
 21
51.1468
  0
LINE
  8
0
 10
30.927
 20
51.1468
 11
30.5621
 21
51.0531
  0
LINE
  8
0
 10
30.5621
 20
51.0531
 11
30.1884
 21
51.0059
  0
LINE
  8
0
 10
30.1884
 20
51.0059
 11
29.8116
 21
51.0059
  0
LINE
  8
0
 10
-30.1884
 20
36.0059
 11
-30.5621
 21
36.0531
  0
LINE
  8
0
 10
-30.5621
 20
36.0531
 11
-30.927
 21
36.1468
  0
LINE
  8
0
 10
-30.927
 20
36.1468
 11
-31.2773
 21
36.2855
  0
LINE
  8
0
 10
-31.2773
 20
36.2855
 11
-31.6075
 21
36.467
  0
LINE
  8
0
 10
-31.6075
 20
36.467
 11
-31.9123
 21
36.6885
  0
LINE
  8
0
 10
-31.9123
 20
36.6885
 11
-32.1869
 21
36.9464
  0
LINE
  8
0
 10
-32.1869
 20
36.9464
 11
-32.427
 21
37.2366
  0
LINE
  8
0
 10
-32.427
 20
37.2366
 11
-32.6289
 21
37.5547
  0
LINE
  8
0
 10
-32.6289
 20
37.5547
 11
-32.7893
 21
37.8956
  0
LINE
  8
0
 10
-32.7893
 20
37.8956
 11
-32.9057
 21
38.2539
  0
LINE
  8
0
 10
-32.9057
 20
38.2539
 11
-32.9763
 21
38.624
  0
LINE
  8
0
 10
-32.9763
 20
38.624
 11
-33
 21
39
  0
LINE
  8
0
 10
-33
 20
39
 11
-32.9763
 21
39.376
  0
LINE
  8
0
 10
-32.9763
 20
39.376
 11
-32.9057
 21
39.7461
  0
LINE
  8
0
 10
-32.9057
 20
39.7461
 11
-32.7893
 21
40.1044
  0
LINE
  8
0
 10
-32.7893
 20
40.1044
 11
-32.6289
 21
40.4453
  0
LINE
  8
0
 10
-32.6289
 20
40.4453
 11
-32.427
 21
40.7634
  0
LINE
  8
0
 10
-32.427
 20
40.7634
 11
-32.1869
 21
41.0536
  0
LINE
  8
0
 10
-32.1869
 20
41.0536
 11
-31.9123
 21
41.3116
  0
LINE
  8
0
 10
-31.9123
 20
41.3116
 11
-31.6075
 21
41.533
  0
LINE
  8
0
 10
-31.6075
 20
41.533
 11
-31.2773
 21
41.7145
  0
LINE
  8
0
 10
-31.2773
 20
41.7145
 11
-30.927
 21
41.8532
  0
LINE
  8
0
 10
-30.927
 20
41.8532
 11
-30.5621
 21
41.9469
  0
LINE
  8
0
 10
-30.5621
 20
41.9469
 11
-30.1884
 21
41.9941
  0
LINE
  8
0
 10
-30.1884
 20
41.9941
 11
-29.8116
 21
41.9941
  0
LINE
  8
0
 10
-29.8116
 20
41.9941
 11
-29.4379
 21
41.9469
  0
LINE
  8
0
 10
-29.4379
 20
41.9469
 11
-29.0729
 21
41.8532
  0
LINE
  8
0
 10
-29.0729
 20
41.8532
 11
-28.7227
 21
41.7145
  0
LINE
  8
0
 10
-28.7227
 20
41.7145
 11
-28.3925
 21
41.533
  0
LINE
  8
0
 10
-28.3925
 20
41.533
 11
-28.0877
 21
41.3116
  0
LINE
  8
0
 10
-28.0877
 20
41.3116
 11
-27.8131
 21
41.0536
  0
LINE
  8
0
 10
-27.8131
 20
41.0536
 11
-27.5729
 21
40.7634
  0
LINE
  8
0
 10
-27.5729
 20
40.7634
 11
-27.3711
 21
40.4453
  0
LINE
  8
0
 10
-27.3711
 20
40.4453
 11
-27.2107
 21
40.1044
  0
LINE
  8
0
 10
-27.2107
 20
40.1044
 11
-27.0942
 21
39.7461
  0
LINE
  8
0
 10
-27.0942
 20
39.7461
 11
-27.0237
 21
39.376
  0
LINE
  8
0
 10
-27.0237
 20
39.376
 11
-27
 21
39
  0
LINE
  8
0
 10
-27
 20
39
 11
-27.0237
 21
38.624
  0
LINE
  8
0
 10
-27.0237
 20
38.624
 11
-27.0942
 21
38.2539
  0
LINE
  8
0
 10
-27.0942
 20
38.2539
 11
-27.2107
 21
37.8956
  0
LINE
  8
0
 10
-27.2107
 20
37.8956
 11
-27.3711
 21
37.5547
  0
LINE
  8
0
 10
-27.3711
 20
37.5547
 11
-27.5729
 21
37.2366
  0
LINE
  8
0
 10
-27.5729
 20
37.2366
 11
-27.8131
 21
36.9464
  0
LINE
  8
0
 10
-27.8131
 20
36.9464
 11
-28.0877
 21
36.6885
  0
LINE
  8
0
 10
-28.0877
 20
36.6885
 11
-28.3925
 21
36.467
  0
LINE
  8
0
 10
-28.3925
 20
36.467
 11
-28.7227
 21
36.2855
  0
LINE
  8
0
 10
-28.7227
 20
36.2855
 11
-29.0729
 21
36.1468
  0
LINE
  8
0
 10
-29.0729
 20
36.1468
 11
-29.4379
 21
36.0531
  0
LINE
  8
0
 10
-29.4379
 20
36.0531
 11
-29.8116
 21
36.0059
  0
LINE
  8
0
 10
-29.8116
 20
36.0059
 11
-30.1884
 21
36.0059
  0
LINE
  8
0
 10
-0.18837
 20
36.0059
 11
-0.562134
 21
36.0531
  0
LINE
  8
0
 10
-0.562134
 20
36.0531
 11
-0.927048
 21
36.1468
  0
LINE
  8
0
 10
-0.927048
 20
36.1468
 11
-1.27733
 21
36.2855
  0
LINE
  8
0
 10
-1.27733
 20
36.2855
 11
-1.60747
 21
36.467
  0
LINE
  8
0
 10
-1.60747
 20
36.467
 11
-1.91226
 21
36.6885
  0
LINE
  8
0
 10
-1.91226
 20
36.6885
 11
-2.1869
 21
36.9464
  0
LINE
  8
0
 10
-2.1869
 20
36.9464
 11
-2.42705
 21
37.2366
  0
LINE
  8
0
 10
-2.42705
 20
37.2366
 11
-2.62891
 21
37.5547
  0
LINE
  8
0
 10
-2.62891
 20
37.5547
 11
-2.78932
 21
37.8956
  0
LINE
  8
0
 10
-2.78932
 20
37.8956
 11
-2.90575
 21
38.2539
  0
LINE
  8
0
 10
-2.90575
 20
38.2539
 11
-2.97633
 21
38.624
  0
LINE
  8
0
 10
-2.97633
 20
38.624
 11
-3
 21
39
  0
LINE
  8
0
 10
-3
 20
39
 11
-2.97633
 21
39.376
  0
LINE
  8
0
 10
-2.97633
 20
39.376
 11
-2.90575
 21
39.7461
  0
LINE
  8
0
 10
-2.90575
 20
39.7461
 11
-2.78932
 21
40.1044
  0
LINE
  8
0
 10
-2.78932
 20
40.1044
 11
-2.62891
 21
40.4453
  0
LINE
  8
0
 10
-2.62891
 20
40.4453
 11
-2.42705
 21
40.7634
  0
LINE
  8
0
 10
-2.42705
 20
40.7634
 11
-2.1869
 21
41.0536
  0
LINE
  8
0
 10
-2.1869
 20
41.0536
 11
-1.91226
 21
41.3116
  0
LINE
  8
0
 10
-1.91226
 20
41.3116
 11
-1.60747
 21
41.533
  0
LINE
  8
0
 10
-1.60747
 20
41.533
 11
-1.27733
 21
41.7145
  0
LINE
  8
0
 10
-1.27733
 20
41.7145
 11
-0.927048
 21
41.8532
  0
LINE
  8
0
 10
-0.927048
 20
41.8532
 11
-0.562134
 21
41.9469
  0
LINE
  8
0
 10
-0.562134
 20
41.9469
 11
-0.18837
 21
41.9941
  0
LINE
  8
0
 10
-0.18837
 20
41.9941
 11
0.18837
 21
41.9941
  0
LINE
  8
0
 10
0.18837
 20
41.9941
 11
0.562134
 21
41.9469
  0
LINE
  8
0
 10
0.562134
 20
41.9469
 11
0.927048
 21
41.8532
  0
LINE
  8
0
 10
0.927048
 20
41.8532
 11
1.27733
 21
41.7145
  0
LINE
  8
0
 10
1.27733
 20
41.7145
 11
1.60747
 21
41.533
  0
LINE
  8
0
 10
1.60747
 20
41.533
 11
1.91226
 21
41.3116
  0
LINE
  8
0
 10
1.91226
 20
41.3116
 11
2.1869
 21
41.0536
  0
LINE
  8
0
 10
2.1869
 20
41.0536
 11
2.42705
 21
40.7634
  0
LINE
  8
0
 10
2.42705
 20
40.7634
 11
2.62891
 21
40.4453
  0
LINE
  8
0
 10
2.62891
 20
40.4453
 11
2.78932
 21
40.1044
  0
LINE
  8
0
 10
2.78932
 20
40.1044
 11
2.90575
 21
39.7461
  0
LINE
  8
0
 10
2.90575
 20
39.7461
 11
2.97633
 21
39.376
  0
LINE
  8
0
 10
2.97633
 20
39.376
 11
3
 21
39
  0
LINE
  8
0
 10
3
 20
39
 11
2.97633
 21
38.624
  0
LINE
  8
0
 10
2.97633
 20
38.624
 11
2.90575
 21
38.2539
  0
LINE
  8
0
 10
2.90575
 20
38.2539
 11
2.78932
 21
37.8956
  0
LINE
  8
0
 10
2.78932
 20
37.8956
 11
2.62891
 21
37.5547
  0
LINE
  8
0
 10
2.62891
 20
37.5547
 11
2.42705
 21
37.2366
  0
LINE
  8
0
 10
2.42705
 20
37.2366
 11
2.1869
 21
36.9464
  0
LINE
  8
0
 10
2.1869
 20
36.9464
 11
1.91226
 21
36.6885
  0
LINE
  8
0
 10
1.91226
 20
36.6885
 11
1.60747
 21
36.467
  0
LINE
  8
0
 10
1.60747
 20
36.467
 11
1.27733
 21
36.2855
  0
LINE
  8
0
 10
1.27733
 20
36.2855
 11
0.927048
 21
36.1468
  0
LINE
  8
0
 10
0.927048
 20
36.1468
 11
0.562134
 21
36.0531
  0
LINE
  8
0
 10
0.562134
 20
36.0531
 11
0.18837
 21
36.0059
  0
LINE
  8
0
 10
0.18837
 20
36.0059
 11
-0.18837
 21
36.0059
  0
LINE
  8
0
 10
-15.1884
 20
36.0059
 11
-15.5621
 21
36.0531
  0
LINE
  8
0
 10
-15.5621
 20
36.0531
 11
-15.927
 21
36.1468
  0
LINE
  8
0
 10
-15.927
 20
36.1468
 11
-16.2773
 21
36.2855
  0
LINE
  8
0
 10
-16.2773
 20
36.2855
 11
-16.6075
 21
36.467
  0
LINE
  8
0
 10
-16.6075
 20
36.467
 11
-16.9123
 21
36.6885
  0
LINE
  8
0
 10
-16.9123
 20
36.6885
 11
-17.1869
 21
36.9464
  0
LINE
  8
0
 10
-17.1869
 20
36.9464
 11
-17.427
 21
37.2366
  0
LINE
  8
0
 10
-17.427
 20
37.2366
 11
-17.6289
 21
37.5547
  0
LINE
  8
0
 10
-17.6289
 20
37.5547
 11
-17.7893
 21
37.8956
  0
LINE
  8
0
 10
-17.7893
 20
37.8956
 11
-17.9057
 21
38.2539
  0
LINE
  8
0
 10
-17.9057
 20
38.2539
 11
-17.9763
 21
38.624
  0
LINE
  8
0
 10
-17.9763
 20
38.624
 11
-18
 21
39
  0
LINE
  8
0
 10
-18
 20
39
 11
-17.9763
 21
39.376
  0
LINE
  8
0
 10
-17.9763
 20
39.376
 11
-17.9057
 21
39.7461
  0
LINE
  8
0
 10
-17.9057
 20
39.7461
 11
-17.7893
 21
40.1044
  0
LINE
  8
0
 10
-17.7893
 20
40.1044
 11
-17.6289
 21
40.4453
  0
LINE
  8
0
 10
-17.6289
 20
40.4453
 11
-17.427
 21
40.7634
  0
LINE
  8
0
 10
-17.427
 20
40.7634
 11
-17.1869
 21
41.0536
  0
LINE
  8
0
 10
-17.1869
 20
41.0536
 11
-16.9123
 21
41.3116
  0
LINE
  8
0
 10
-16.9123
 20
41.3116
 11
-16.6075
 21
41.533
  0
LINE
  8
0
 10
-16.6075
 20
41.533
 11
-16.2773
 21
41.7145
  0
LINE
  8
0
 10
-16.2773
 20
41.7145
 11
-15.927
 21
41.8532
  0
LINE
  8
0
 10
-15.927
 20
41.8532
 11
-15.5621
 21
41.9469
  0
LINE
  8
0
 10
-15.5621
 20
41.9469
 11
-15.1884
 21
41.9941
  0
LINE
  8
0
 10
-15.1884
 20
41.9941
 11
-14.8116
 21
41.9941
  0
LINE
  8
0
 10
-14.8116
 20
41.9941
 11
-14.4379
 21
41.9469
  0
LINE
  8
0
 10
-14.4379
 20
41.9469
 11
-14.0729
 21
41.8532
  0
LINE
  8
0
 10
-14.0729
 20
41.8532
 11
-13.7227
 21
41.7145
  0
LINE
  8
0
 10
-13.7227
 20
41.7145
 11
-13.3925
 21
41.533
  0
LINE
  8
0
 10
-13.3925
 20
41.533
 11
-13.0877
 21
41.3116
  0
LINE
  8
0
 10
-13.0877
 20
41.3116
 11
-12.8131
 21
41.0536
  0
LINE
  8
0
 10
-12.8131
 20
41.0536
 11
-12.5729
 21
40.7634
  0
LINE
  8
0
 10
-12.5729
 20
40.7634
 11
-12.3711
 21
40.4453
  0
LINE
  8
0
 10
-12.3711
 20
40.4453
 11
-12.2107
 21
40.1044
  0
LINE
  8
0
 10
-12.2107
 20
40.1044
 11
-12.0942
 21
39.7461
  0
LINE
  8
0
 10
-12.0942
 20
39.7461
 11
-12.0237
 21
39.376
  0
LINE
  8
0
 10
-12.0237
 20
39.376
 11
-12
 21
39
  0
LINE
  8
0
 10
-12
 20
39
 11
-12.0237
 21
38.624
  0
LINE
  8
0
 10
-12.0237
 20
38.624
 11
-12.0942
 21
38.2539
  0
LINE
  8
0
 10
-12.0942
 20
38.2539
 11
-12.2107
 21
37.8956
  0
LINE
  8
0
 10
-12.2107
 20
37.8956
 11
-12.3711
 21
37.5547
  0
LINE
  8
0
 10
-12.3711
 20
37.5547
 11
-12.5729
 21
37.2366
  0
LINE
  8
0
 10
-12.5729
 20
37.2366
 11
-12.8131
 21
36.9464
  0
LINE
  8
0
 10
-12.8131
 20
36.9464
 11
-13.0877
 21
36.6885
  0
LINE
  8
0
 10
-13.0877
 20
36.6885
 11
-13.3925
 21
36.467
  0
LINE
  8
0
 10
-13.3925
 20
36.467
 11
-13.7227
 21
36.2855
  0
LINE
  8
0
 10
-13.7227
 20
36.2855
 11
-14.0729
 21
36.1468
  0
LINE
  8
0
 10
-14.0729
 20
36.1468
 11
-14.4379
 21
36.0531
  0
LINE
  8
0
 10
-14.4379
 20
36.0531
 11
-14.8116
 21
36.0059
  0
LINE
  8
0
 10
-14.8116
 20
36.0059
 11
-15.1884
 21
36.0059
  0
LINE
  8
0
 10
29.8116
 20
36.0059
 11
29.4379
 21
36.0531
  0
LINE
  8
0
 10
29.4379
 20
36.0531
 11
29.0729
 21
36.1468
  0
LINE
  8
0
 10
29.0729
 20
36.1468
 11
28.7227
 21
36.2855
  0
LINE
  8
0
 10
28.7227
 20
36.2855
 11
28.3925
 21
36.467
  0
LINE
  8
0
 10
28.3925
 20
36.467
 11
28.0877
 21
36.6885
  0
LINE
  8
0
 10
28.0877
 20
36.6885
 11
27.8131
 21
36.9464
  0
LINE
  8
0
 10
27.8131
 20
36.9464
 11
27.5729
 21
37.2366
  0
LINE
  8
0
 10
27.5729
 20
37.2366
 11
27.3711
 21
37.5547
  0
LINE
  8
0
 10
27.3711
 20
37.5547
 11
27.2107
 21
37.8956
  0
LINE
  8
0
 10
27.2107
 20
37.8956
 11
27.0942
 21
38.2539
  0
LINE
  8
0
 10
27.0942
 20
38.2539
 11
27.0237
 21
38.624
  0
LINE
  8
0
 10
27.0237
 20
38.624
 11
27
 21
39
  0
LINE
  8
0
 10
27
 20
39
 11
27.0237
 21
39.376
  0
LINE
  8
0
 10
27.0237
 20
39.376
 11
27.0942
 21
39.7461
  0
LINE
  8
0
 10
27.0942
 20
39.7461
 11
27.2107
 21
40.1044
  0
LINE
  8
0
 10
27.2107
 20
40.1044
 11
27.3711
 21
40.4453
  0
LINE
  8
0
 10
27.3711
 20
40.4453
 11
27.5729
 21
40.7634
  0
LINE
  8
0
 10
27.5729
 20
40.7634
 11
27.8131
 21
41.0536
  0
LINE
  8
0
 10
27.8131
 20
41.0536
 11
28.0877
 21
41.3116
  0
LINE
  8
0
 10
28.0877
 20
41.3116
 11
28.3925
 21
41.533
  0
LINE
  8
0
 10
28.3925
 20
41.533
 11
28.7227
 21
41.7145
  0
LINE
  8
0
 10
28.7227
 20
41.7145
 11
29.0729
 21
41.8532
  0
LINE
  8
0
 10
29.0729
 20
41.8532
 11
29.4379
 21
41.9469
  0
LINE
  8
0
 10
29.4379
 20
41.9469
 11
29.8116
 21
41.9941
  0
LINE
  8
0
 10
29.8116
 20
41.9941
 11
30.1884
 21
41.9941
  0
LINE
  8
0
 10
30.1884
 20
41.9941
 11
30.5621
 21
41.9469
  0
LINE
  8
0
 10
30.5621
 20
41.9469
 11
30.927
 21
41.8532
  0
LINE
  8
0
 10
30.927
 20
41.8532
 11
31.2773
 21
41.7145
  0
LINE
  8
0
 10
31.2773
 20
41.7145
 11
31.6075
 21
41.533
  0
LINE
  8
0
 10
31.6075
 20
41.533
 11
31.9123
 21
41.3116
  0
LINE
  8
0
 10
31.9123
 20
41.3116
 11
32.1869
 21
41.0536
  0
LINE
  8
0
 10
32.1869
 20
41.0536
 11
32.427
 21
40.7634
  0
LINE
  8
0
 10
32.427
 20
40.7634
 11
32.6289
 21
40.4453
  0
LINE
  8
0
 10
32.6289
 20
40.4453
 11
32.7893
 21
40.1044
  0
LINE
  8
0
 10
32.7893
 20
40.1044
 11
32.9057
 21
39.7461
  0
LINE
  8
0
 10
32.9057
 20
39.7461
 11
32.9763
 21
39.376
  0
LINE
  8
0
 10
32.9763
 20
39.376
 11
33
 21
39
  0
LINE
  8
0
 10
33
 20
39
 11
32.9763
 21
38.624
  0
LINE
  8
0
 10
32.9763
 20
38.624
 11
32.9057
 21
38.2539
  0
LINE
  8
0
 10
32.9057
 20
38.2539
 11
32.7893
 21
37.8956
  0
LINE
  8
0
 10
32.7893
 20
37.8956
 11
32.6289
 21
37.5547
  0
LINE
  8
0
 10
32.6289
 20
37.5547
 11
32.427
 21
37.2366
  0
LINE
  8
0
 10
32.427
 20
37.2366
 11
32.1869
 21
36.9464
  0
LINE
  8
0
 10
32.1869
 20
36.9464
 11
31.9123
 21
36.6885
  0
LINE
  8
0
 10
31.9123
 20
36.6885
 11
31.6075
 21
36.467
  0
LINE
  8
0
 10
31.6075
 20
36.467
 11
31.2773
 21
36.2855
  0
LINE
  8
0
 10
31.2773
 20
36.2855
 11
30.927
 21
36.1468
  0
LINE
  8
0
 10
30.927
 20
36.1468
 11
30.5621
 21
36.0531
  0
LINE
  8
0
 10
30.5621
 20
36.0531
 11
30.1884
 21
36.0059
  0
LINE
  8
0
 10
30.1884
 20
36.0059
 11
29.8116
 21
36.0059
  0
LINE
  8
0
 10
14.8116
 20
36.0059
 11
14.4379
 21
36.0531
  0
LINE
  8
0
 10
14.4379
 20
36.0531
 11
14.0729
 21
36.1468
  0
LINE
  8
0
 10
14.0729
 20
36.1468
 11
13.7227
 21
36.2855
  0
LINE
  8
0
 10
13.7227
 20
36.2855
 11
13.3925
 21
36.467
  0
LINE
  8
0
 10
13.3925
 20
36.467
 11
13.0877
 21
36.6885
  0
LINE
  8
0
 10
13.0877
 20
36.6885
 11
12.8131
 21
36.9464
  0
LINE
  8
0
 10
12.8131
 20
36.9464
 11
12.5729
 21
37.2366
  0
LINE
  8
0
 10
12.5729
 20
37.2366
 11
12.3711
 21
37.5547
  0
LINE
  8
0
 10
12.3711
 20
37.5547
 11
12.2107
 21
37.8956
  0
LINE
  8
0
 10
12.2107
 20
37.8956
 11
12.0942
 21
38.2539
  0
LINE
  8
0
 10
12.0942
 20
38.2539
 11
12.0237
 21
38.624
  0
LINE
  8
0
 10
12.0237
 20
38.624
 11
12
 21
39
  0
LINE
  8
0
 10
12
 20
39
 11
12.0237
 21
39.376
  0
LINE
  8
0
 10
12.0237
 20
39.376
 11
12.0942
 21
39.7461
  0
LINE
  8
0
 10
12.0942
 20
39.7461
 11
12.2107
 21
40.1044
  0
LINE
  8
0
 10
12.2107
 20
40.1044
 11
12.3711
 21
40.4453
  0
LINE
  8
0
 10
12.3711
 20
40.4453
 11
12.5729
 21
40.7634
  0
LINE
  8
0
 10
12.5729
 20
40.7634
 11
12.8131
 21
41.0536
  0
LINE
  8
0
 10
12.8131
 20
41.0536
 11
13.0877
 21
41.3116
  0
LINE
  8
0
 10
13.0877
 20
41.3116
 11
13.3925
 21
41.533
  0
LINE
  8
0
 10
13.3925
 20
41.533
 11
13.7227
 21
41.7145
  0
LINE
  8
0
 10
13.7227
 20
41.7145
 11
14.0729
 21
41.8532
  0
LINE
  8
0
 10
14.0729
 20
41.8532
 11
14.4379
 21
41.9469
  0
LINE
  8
0
 10
14.4379
 20
41.9469
 11
14.8116
 21
41.9941
  0
LINE
  8
0
 10
14.8116
 20
41.9941
 11
15.1884
 21
41.9941
  0
LINE
  8
0
 10
15.1884
 20
41.9941
 11
15.5621
 21
41.9469
  0
LINE
  8
0
 10
15.5621
 20
41.9469
 11
15.927
 21
41.8532
  0
LINE
  8
0
 10
15.927
 20
41.8532
 11
16.2773
 21
41.7145
  0
LINE
  8
0
 10
16.2773
 20
41.7145
 11
16.6075
 21
41.533
  0
LINE
  8
0
 10
16.6075
 20
41.533
 11
16.9123
 21
41.3116
  0
LINE
  8
0
 10
16.9123
 20
41.3116
 11
17.1869
 21
41.0536
  0
LINE
  8
0
 10
17.1869
 20
41.0536
 11
17.427
 21
40.7634
  0
LINE
  8
0
 10
17.427
 20
40.7634
 11
17.6289
 21
40.4453
  0
LINE
  8
0
 10
17.6289
 20
40.4453
 11
17.7893
 21
40.1044
  0
LINE
  8
0
 10
17.7893
 20
40.1044
 11
17.9057
 21
39.7461
  0
LINE
  8
0
 10
17.9057
 20
39.7461
 11
17.9763
 21
39.376
  0
LINE
  8
0
 10
17.9763
 20
39.376
 11
18
 21
39
  0
LINE
  8
0
 10
18
 20
39
 11
17.9763
 21
38.624
  0
LINE
  8
0
 10
17.9763
 20
38.624
 11
17.9057
 21
38.2539
  0
LINE
  8
0
 10
17.9057
 20
38.2539
 11
17.7893
 21
37.8956
  0
LINE
  8
0
 10
17.7893
 20
37.8956
 11
17.6289
 21
37.5547
  0
LINE
  8
0
 10
17.6289
 20
37.5547
 11
17.427
 21
37.2366
  0
LINE
  8
0
 10
17.427
 20
37.2366
 11
17.1869
 21
36.9464
  0
LINE
  8
0
 10
17.1869
 20
36.9464
 11
16.9123
 21
36.6885
  0
LINE
  8
0
 10
16.9123
 20
36.6885
 11
16.6075
 21
36.467
  0
LINE
  8
0
 10
16.6075
 20
36.467
 11
16.2773
 21
36.2855
  0
LINE
  8
0
 10
16.2773
 20
36.2855
 11
15.927
 21
36.1468
  0
LINE
  8
0
 10
15.927
 20
36.1468
 11
15.5621
 21
36.0531
  0
LINE
  8
0
 10
15.5621
 20
36.0531
 11
15.1884
 21
36.0059
  0
LINE
  8
0
 10
15.1884
 20
36.0059
 11
14.8116
 21
36.0059
  0
ENDSEC
  0
SECTION
  2
OBJECTS
  0
DICTIONARY
  0
ENDSEC
  0
EOF
