<?xml version="1.0" standalone="no"?>
<!DOCTYPE svg PUBLIC "-//W3C//DTD SVG 1.1//EN" "http://www.w3.org/Graphics/SVG/1.1/DTD/svg11.dtd">
<svg width="14mm" height="350mm" viewBox="-7 -703 14 350" xmlns="http://www.w3.org/2000/svg" version="1.1">
<title>OpenSCAD Model</title>
<path d="
M 1.31166,-689.124 L 2.16312,-689.343 L 2.98045,-689.666 L 3.75078,-690.09 L 4.46196,-690.606 L 5.10277,-691.208
 L 5.66312,-691.886 L 6.13414,-692.628 L 6.50842,-693.423 L 6.78008,-694.259 L 6.94479,-695.123 L 7,-696
 L 6.94479,-696.877 L 6.78008,-697.741 L 6.50842,-698.577 L 6.13414,-699.372 L 5.66312,-700.114 L 5.10277,-700.792
 L 4.46196,-701.394 L 3.75078,-701.91 L 2.98045,-702.334 L 2.16312,-702.657 L 1.31166,-702.876 L 0.439529,-702.986
 L -0.439529,-702.986 L -1.31166,-702.876 L -2.16312,-702.657 L -2.98045,-702.334 L -3.75078,-701.91 L -4.46196,-701.394
 L -5.10277,-700.792 L -5.66312,-700.114 L -6.13414,-699.372 L -6.50842,-698.577 L -6.78008,-697.741 L -6.94479,-696.877
 L -7,-696 L -6.94479,-695.123 L -6.78008,-694.259 L -6.50842,-693.423 L -6.13414,-692.628 L -5.66312,-691.886
 L -5.10277,-691.208 L -4.46196,-690.606 L -3.75078,-690.09 L -2.98045,-689.666 L -2.16312,-689.343 L -1.31166,-689.124
 L -0.439529,-689.014 L 0.439529,-689.014 z
M -0.0941772,-694.503 L -0.281067,-694.527 L -0.463516,-694.573 L -0.638657,-694.643 L -0.803726,-694.734 L -0.956131,-694.844
 L -1.09344,-694.973 L -1.21352,-695.118 L -1.31445,-695.277 L -1.39465,-695.448 L -1.45287,-695.627 L -1.48816,-695.812
 L -1.5,-696 L -1.48816,-696.188 L -1.45287,-696.373 L -1.39465,-696.552 L -1.31445,-696.723 L -1.21352,-696.882
 L -1.09344,-697.027 L -0.956131,-697.156 L -0.803726,-697.266 L -0.638657,-697.357 L -0.463516,-697.427 L -0.281067,-697.473
 L -0.0941772,-697.497 L 0.0941772,-697.497 L 0.281067,-697.473 L 0.463516,-697.427 L 0.638657,-697.357 L 0.803726,-697.266
 L 0.956131,-697.156 L 1.09344,-697.027 L 1.21352,-696.882 L 1.31445,-696.723 L 1.39465,-696.552 L 1.45287,-696.373
 L 1.48816,-696.188 L 1.5,-696 L 1.48816,-695.812 L 1.45287,-695.627 L 1.39465,-695.448 L 1.31445,-695.277
 L 1.21352,-695.118 L 1.09344,-694.973 L 0.956131,-694.844 L 0.803726,-694.734 L 0.638657,-694.643 L 0.463516,-694.573
 L 0.281067,-694.527 L 0.0941772,-694.503 z
M 1.31166,-665.124 L 2.16312,-665.343 L 2.98045,-665.666 L 3.75078,-666.09 L 4.46196,-666.606 L 5.10277,-667.208
 L 5.66312,-667.886 L 6.13414,-668.628 L 6.50842,-669.423 L 6.78008,-670.259 L 6.94479,-671.123 L 7,-672
 L 6.94479,-672.877 L 6.78008,-673.741 L 6.50842,-674.577 L 6.13414,-675.372 L 5.66312,-676.114 L 5.10277,-676.792
 L 4.46196,-677.394 L 3.75078,-677.91 L 2.98045,-678.334 L 2.16312,-678.657 L 1.31166,-678.876 L 0.439529,-678.986
 L -0.439529,-678.986 L -1.31166,-678.876 L -2.16312,-678.657 L -2.98045,-678.334 L -3.75078,-677.91 L -4.46196,-677.394
 L -5.10277,-676.792 L -5.66312,-676.114 L -6.13414,-675.372 L -6.50842,-674.577 L -6.78008,-673.741 L -6.94479,-672.877
 L -7,-672 L -6.94479,-671.123 L -6.78008,-670.259 L -6.50842,-669.423 L -6.13414,-668.628 L -5.66312,-667.886
 L -5.10277,-667.208 L -4.46196,-666.606 L -3.75078,-666.09 L -2.98045,-665.666 L -2.16312,-665.343 L -1.31166,-665.124
 L -0.439529,-665.014 L 0.439529,-665.014 z
M -0.0941772,-670.503 L -0.281067,-670.527 L -0.463516,-670.573 L -0.638657,-670.643 L -0.803726,-670.734 L -0.956131,-670.844
 L -1.09344,-670.973 L -1.21352,-671.118 L -1.31445,-671.277 L -1.39465,-671.448 L -1.45287,-671.627 L -1.48816,-671.812
 L -1.5,-672 L -1.48816,-672.188 L -1.45287,-672.373 L -1.39465,-672.552 L -1.31445,-672.723 L -1.21352,-672.882
 L -1.09344,-673.027 L -0.956131,-673.156 L -0.803726,-673.266 L -0.638657,-673.357 L -0.463516,-673.427 L -0.281067,-673.473
 L -0.0941772,-673.497 L 0.0941772,-673.497 L 0.281067,-673.473 L 0.463516,-673.427 L 0.638657,-673.357 L 0.803726,-673.266
 L 0.956131,-673.156 L 1.09344,-673.027 L 1.21352,-672.882 L 1.31445,-672.723 L 1.39465,-672.552 L 1.45287,-672.373
 L 1.48816,-672.188 L 1.5,-672 L 1.48816,-671.812 L 1.45287,-671.627 L 1.39465,-671.448 L 1.31445,-671.277
 L 1.21352,-671.118 L 1.09344,-670.973 L 0.956131,-670.844 L 0.803726,-670.734 L 0.638657,-670.643 L 0.463516,-670.573
 L 0.281067,-670.527 L 0.0941772,-670.503 z
M 1.31166,-641.124 L 2.16312,-641.343 L 2.98045,-641.666 L 3.75078,-642.09 L 4.46196,-642.606 L 5.10277,-643.208
 L 5.66312,-643.886 L 6.13414,-644.628 L 6.50842,-645.423 L 6.78008,-646.259 L 6.94479,-647.123 L 7,-648
 L 6.94479,-648.877 L 6.78008,-649.741 L 6.50842,-650.577 L 6.13414,-651.372 L 5.66312,-652.114 L 5.10277,-652.792
 L 4.46196,-653.394 L 3.75078,-653.91 L 2.98045,-654.334 L 2.16312,-654.657 L 1.31166,-654.876 L 0.439529,-654.986
 L -0.439529,-654.986 L -1.31166,-654.876 L -2.16312,-654.657 L -2.98045,-654.334 L -3.75078,-653.91 L -4.46196,-653.394
 L -5.10277,-652.792 L -5.66312,-652.114 L -6.13414,-651.372 L -6.50842,-650.577 L -6.78008,-649.741 L -6.94479,-648.877
 L -7,-648 L -6.94479,-647.123 L -6.78008,-646.259 L -6.50842,-645.423 L -6.13414,-644.628 L -5.66312,-643.886
 L -5.10277,-643.208 L -4.46196,-642.606 L -3.75078,-642.09 L -2.98045,-641.666 L -2.16312,-641.343 L -1.31166,-641.124
 L -0.439529,-641.014 L 0.439529,-641.014 z
M -0.0941772,-646.503 L -0.281067,-646.527 L -0.463516,-646.573 L -0.638657,-646.643 L -0.803726,-646.734 L -0.956131,-646.844
 L -1.09344,-646.973 L -1.21352,-647.118 L -1.31445,-647.277 L -1.39465,-647.448 L -1.45287,-647.627 L -1.48816,-647.812
 L -1.5,-648 L -1.48816,-648.188 L -1.45287,-648.373 L -1.39465,-648.552 L -1.31445,-648.723 L -1.21352,-648.882
 L -1.09344,-649.027 L -0.956131,-649.156 L -0.803726,-649.266 L -0.638657,-649.357 L -0.463516,-649.427 L -0.281067,-649.473
 L -0.0941772,-649.497 L 0.0941772,-649.497 L 0.281067,-649.473 L 0.463516,-649.427 L 0.638657,-649.357 L 0.803726,-649.266
 L 0.956131,-649.156 L 1.09344,-649.027 L 1.21352,-648.882 L 1.31445,-648.723 L 1.39465,-648.552 L 1.45287,-648.373
 L 1.48816,-648.188 L 1.5,-648 L 1.48816,-647.812 L 1.45287,-647.627 L 1.39465,-647.448 L 1.31445,-647.277
 L 1.21352,-647.118 L 1.09344,-646.973 L 0.956131,-646.844 L 0.803726,-646.734 L 0.638657,-646.643 L 0.463516,-646.573
 L 0.281067,-646.527 L 0.0941772,-646.503 z
M 1.31166,-617.124 L 2.16312,-617.343 L 2.98045,-617.666 L 3.75078,-618.09 L 4.46196,-618.606 L 5.10277,-619.208
 L 5.66312,-619.886 L 6.13414,-620.628 L 6.50842,-621.423 L 6.78008,-622.259 L 6.94479,-623.123 L 7,-624
 L 6.94479,-624.877 L 6.78008,-625.741 L 6.50842,-626.577 L 6.13414,-627.372 L 5.66312,-628.114 L 5.10277,-628.792
 L 4.46196,-629.394 L 3.75078,-629.91 L 2.98045,-630.334 L 2.16312,-630.657 L 1.31166,-630.876 L 0.439529,-630.986
 L -0.439529,-630.986 L -1.31166,-630.876 L -2.16312,-630.657 L -2.98045,-630.334 L -3.75078,-629.91 L -4.46196,-629.394
 L -5.10277,-628.792 L -5.66312,-628.114 L -6.13414,-627.372 L -6.50842,-626.577 L -6.78008,-625.741 L -6.94479,-624.877
 L -7,-624 L -6.94479,-623.123 L -6.78008,-622.259 L -6.50842,-621.423 L -6.13414,-620.628 L -5.66312,-619.886
 L -5.10277,-619.208 L -4.46196,-618.606 L -3.75078,-618.09 L -2.98045,-617.666 L -2.16312,-617.343 L -1.31166,-617.124
 L -0.439529,-617.014 L 0.439529,-617.014 z
M -0.0941772,-622.503 L -0.281067,-622.527 L -0.463516,-622.573 L -0.638657,-622.643 L -0.803726,-622.734 L -0.956131,-622.844
 L -1.09344,-622.973 L -1.21352,-623.118 L -1.31445,-623.277 L -1.39465,-623.448 L -1.45287,-623.627 L -1.48816,-623.812
 L -1.5,-624 L -1.48816,-624.188 L -1.45287,-624.373 L -1.39465,-624.552 L -1.31445,-624.723 L -1.21352,-624.882
 L -1.09344,-625.027 L -0.956131,-625.156 L -0.803726,-625.266 L -0.638657,-625.357 L -0.463516,-625.427 L -0.281067,-625.473
 L -0.0941772,-625.497 L 0.0941772,-625.497 L 0.281067,-625.473 L 0.463516,-625.427 L 0.638657,-625.357 L 0.803726,-625.266
 L 0.956131,-625.156 L 1.09344,-625.027 L 1.21352,-624.882 L 1.31445,-624.723 L 1.39465,-624.552 L 1.45287,-624.373
 L 1.48816,-624.188 L 1.5,-624 L 1.48816,-623.812 L 1.45287,-623.627 L 1.39465,-623.448 L 1.31445,-623.277
 L 1.21352,-623.118 L 1.09344,-622.973 L 0.956131,-622.844 L 0.803726,-622.734 L 0.638657,-622.643 L 0.463516,-622.573
 L 0.281067,-622.527 L 0.0941772,-622.503 z
M 1.31166,-593.124 L 2.16312,-593.343 L 2.98045,-593.666 L 3.75078,-594.09 L 4.46196,-594.606 L 5.10277,-595.208
 L 5.66312,-595.886 L 6.13414,-596.628 L 6.50842,-597.423 L 6.78008,-598.259 L 6.94479,-599.123 L 7,-600
 L 6.94479,-600.877 L 6.78008,-601.741 L 6.50842,-602.577 L 6.13414,-603.372 L 5.66312,-604.114 L 5.10277,-604.792
 L 4.46196,-605.394 L 3.75078,-605.91 L 2.98045,-606.334 L 2.16312,-606.657 L 1.31166,-606.876 L 0.439529,-606.986
 L -0.439529,-606.986 L -1.31166,-606.876 L -2.16312,-606.657 L -2.98045,-606.334 L -3.75078,-605.91 L -4.46196,-605.394
 L -5.10277,-604.792 L -5.66312,-604.114 L -6.13414,-603.372 L -6.50842,-602.577 L -6.78008,-601.741 L -6.94479,-600.877
 L -7,-600 L -6.94479,-599.123 L -6.78008,-598.259 L -6.50842,-597.423 L -6.13414,-596.628 L -5.66312,-595.886
 L -5.10277,-595.208 L -4.46196,-594.606 L -3.75078,-594.09 L -2.98045,-593.666 L -2.16312,-593.343 L -1.31166,-593.124
 L -0.439529,-593.014 L 0.439529,-593.014 z
M -0.0941772,-598.503 L -0.281067,-598.527 L -0.463516,-598.573 L -0.638657,-598.643 L -0.803726,-598.734 L -0.956131,-598.844
 L -1.09344,-598.973 L -1.21352,-599.118 L -1.31445,-599.277 L -1.39465,-599.448 L -1.45287,-599.627 L -1.48816,-599.812
 L -1.5,-600 L -1.48816,-600.188 L -1.45287,-600.373 L -1.39465,-600.552 L -1.31445,-600.723 L -1.21352,-600.882
 L -1.09344,-601.027 L -0.956131,-601.156 L -0.803726,-601.266 L -0.638657,-601.357 L -0.463516,-601.427 L -0.281067,-601.473
 L -0.0941772,-601.497 L 0.0941772,-601.497 L 0.281067,-601.473 L 0.463516,-601.427 L 0.638657,-601.357 L 0.803726,-601.266
 L 0.956131,-601.156 L 1.09344,-601.027 L 1.21352,-600.882 L 1.31445,-600.723 L 1.39465,-600.552 L 1.45287,-600.373
 L 1.48816,-600.188 L 1.5,-600 L 1.48816,-599.812 L 1.45287,-599.627 L 1.39465,-599.448 L 1.31445,-599.277
 L 1.21352,-599.118 L 1.09344,-598.973 L 0.956131,-598.844 L 0.803726,-598.734 L 0.638657,-598.643 L 0.463516,-598.573
 L 0.281067,-598.527 L 0.0941772,-598.503 z
M 1.31166,-569.124 L 2.16312,-569.343 L 2.98045,-569.666 L 3.75078,-570.09 L 4.46196,-570.606 L 5.10277,-571.208
 L 5.66312,-571.886 L 6.13414,-572.628 L 6.50842,-573.423 L 6.78008,-574.259 L 6.94479,-575.123 L 7,-576
 L 6.94479,-576.877 L 6.78008,-577.741 L 6.50842,-578.577 L 6.13414,-579.372 L 5.66312,-580.114 L 5.10277,-580.792
 L 4.46196,-581.394 L 3.75078,-581.91 L 2.98045,-582.334 L 2.16312,-582.657 L 1.31166,-582.876 L 0.439529,-582.986
 L -0.439529,-582.986 L -1.31166,-582.876 L -2.16312,-582.657 L -2.98045,-582.334 L -3.75078,-581.91 L -4.46196,-581.394
 L -5.10277,-580.792 L -5.66312,-580.114 L -6.13414,-579.372 L -6.50842,-578.577 L -6.78008,-577.741 L -6.94479,-576.877
 L -7,-576 L -6.94479,-575.123 L -6.78008,-574.259 L -6.50842,-573.423 L -6.13414,-572.628 L -5.66312,-571.886
 L -5.10277,-571.208 L -4.46196,-570.606 L -3.75078,-570.09 L -2.98045,-569.666 L -2.16312,-569.343 L -1.31166,-569.124
 L -0.439529,-569.014 L 0.439529,-569.014 z
M -0.0941772,-574.503 L -0.281067,-574.527 L -0.463516,-574.573 L -0.638657,-574.643 L -0.803726,-574.734 L -0.956131,-574.844
 L -1.09344,-574.973 L -1.21352,-575.118 L -1.31445,-575.277 L -1.39465,-575.448 L -1.45287,-575.627 L -1.48816,-575.812
 L -1.5,-576 L -1.48816,-576.188 L -1.45287,-576.373 L -1.39465,-576.552 L -1.31445,-576.723 L -1.21352,-576.882
 L -1.09344,-577.027 L -0.956131,-577.156 L -0.803726,-577.266 L -0.638657,-577.357 L -0.463516,-577.427 L -0.281067,-577.473
 L -0.0941772,-577.497 L 0.0941772,-577.497 L 0.281067,-577.473 L 0.463516,-577.427 L 0.638657,-577.357 L 0.803726,-577.266
 L 0.956131,-577.156 L 1.09344,-577.027 L 1.21352,-576.882 L 1.31445,-576.723 L 1.39465,-576.552 L 1.45287,-576.373
 L 1.48816,-576.188 L 1.5,-576 L 1.48816,-575.812 L 1.45287,-575.627 L 1.39465,-575.448 L 1.31445,-575.277
 L 1.21352,-575.118 L 1.09344,-574.973 L 0.956131,-574.844 L 0.803726,-574.734 L 0.638657,-574.643 L 0.463516,-574.573
 L 0.281067,-574.527 L 0.0941772,-574.503 z
M 1.31166,-545.124 L 2.16312,-545.343 L 2.98045,-545.666 L 3.75078,-546.09 L 4.46196,-546.606 L 5.10277,-547.208
 L 5.66312,-547.886 L 6.13414,-548.628 L 6.50842,-549.423 L 6.78008,-550.259 L 6.94479,-551.123 L 7,-552
 L 6.94479,-552.877 L 6.78008,-553.741 L 6.50842,-554.577 L 6.13414,-555.372 L 5.66312,-556.114 L 5.10277,-556.792
 L 4.46196,-557.394 L 3.75078,-557.91 L 2.98045,-558.334 L 2.16312,-558.657 L 1.31166,-558.876 L 0.439529,-558.986
 L -0.439529,-558.986 L -1.31166,-558.876 L -2.16312,-558.657 L -2.98045,-558.334 L -3.75078,-557.91 L -4.46196,-557.394
 L -5.10277,-556.792 L -5.66312,-556.114 L -6.13414,-555.372 L -6.50842,-554.577 L -6.78008,-553.741 L -6.94479,-552.877
 L -7,-552 L -6.94479,-551.123 L -6.78008,-550.259 L -6.50842,-549.423 L -6.13414,-548.628 L -5.66312,-547.886
 L -5.10277,-547.208 L -4.46196,-546.606 L -3.75078,-546.09 L -2.98045,-545.666 L -2.16312,-545.343 L -1.31166,-545.124
 L -0.439529,-545.014 L 0.439529,-545.014 z
M -0.0941772,-550.503 L -0.281067,-550.527 L -0.463516,-550.573 L -0.638657,-550.643 L -0.803726,-550.734 L -0.956131,-550.844
 L -1.09344,-550.973 L -1.21352,-551.118 L -1.31445,-551.277 L -1.39465,-551.448 L -1.45287,-551.627 L -1.48816,-551.812
 L -1.5,-552 L -1.48816,-552.188 L -1.45287,-552.373 L -1.39465,-552.552 L -1.31445,-552.723 L -1.21352,-552.882
 L -1.09344,-553.027 L -0.956131,-553.156 L -0.803726,-553.266 L -0.638657,-553.357 L -0.463516,-553.427 L -0.281067,-553.473
 L -0.0941772,-553.497 L 0.0941772,-553.497 L 0.281067,-553.473 L 0.463516,-553.427 L 0.638657,-553.357 L 0.803726,-553.266
 L 0.956131,-553.156 L 1.09344,-553.027 L 1.21352,-552.882 L 1.31445,-552.723 L 1.39465,-552.552 L 1.45287,-552.373
 L 1.48816,-552.188 L 1.5,-552 L 1.48816,-551.812 L 1.45287,-551.627 L 1.39465,-551.448 L 1.31445,-551.277
 L 1.21352,-551.118 L 1.09344,-550.973 L 0.956131,-550.844 L 0.803726,-550.734 L 0.638657,-550.643 L 0.463516,-550.573
 L 0.281067,-550.527 L 0.0941772,-550.503 z
M 1.31166,-521.124 L 2.16312,-521.343 L 2.98045,-521.666 L 3.75078,-522.09 L 4.46196,-522.606 L 5.10277,-523.208
 L 5.66312,-523.886 L 6.13414,-524.628 L 6.50842,-525.423 L 6.78008,-526.259 L 6.94479,-527.123 L 7,-528
 L 6.94479,-528.877 L 6.78008,-529.741 L 6.50842,-530.577 L 6.13414,-531.372 L 5.66312,-532.114 L 5.10277,-532.792
 L 4.46196,-533.394 L 3.75078,-533.91 L 2.98045,-534.334 L 2.16312,-534.657 L 1.31166,-534.876 L 0.439529,-534.986
 L -0.439529,-534.986 L -1.31166,-534.876 L -2.16312,-534.657 L -2.98045,-534.334 L -3.75078,-533.91 L -4.46196,-533.394
 L -5.10277,-532.792 L -5.66312,-532.114 L -6.13414,-531.372 L -6.50842,-530.577 L -6.78008,-529.741 L -6.94479,-528.877
 L -7,-528 L -6.94479,-527.123 L -6.78008,-526.259 L -6.50842,-525.423 L -6.13414,-524.628 L -5.66312,-523.886
 L -5.10277,-523.208 L -4.46196,-522.606 L -3.75078,-522.09 L -2.98045,-521.666 L -2.16312,-521.343 L -1.31166,-521.124
 L -0.439529,-521.014 L 0.439529,-521.014 z
M -0.0941772,-526.503 L -0.281067,-526.527 L -0.463516,-526.573 L -0.638657,-526.643 L -0.803726,-526.734 L -0.956131,-526.844
 L -1.09344,-526.973 L -1.21352,-527.118 L -1.31445,-527.277 L -1.39465,-527.448 L -1.45287,-527.627 L -1.48816,-527.812
 L -1.5,-528 L -1.48816,-528.188 L -1.45287,-528.373 L -1.39465,-528.552 L -1.31445,-528.723 L -1.21352,-528.882
 L -1.09344,-529.027 L -0.956131,-529.156 L -0.803726,-529.266 L -0.638657,-529.357 L -0.463516,-529.427 L -0.281067,-529.473
 L -0.0941772,-529.497 L 0.0941772,-529.497 L 0.281067,-529.473 L 0.463516,-529.427 L 0.638657,-529.357 L 0.803726,-529.266
 L 0.956131,-529.156 L 1.09344,-529.027 L 1.21352,-528.882 L 1.31445,-528.723 L 1.39465,-528.552 L 1.45287,-528.373
 L 1.48816,-528.188 L 1.5,-528 L 1.48816,-527.812 L 1.45287,-527.627 L 1.39465,-527.448 L 1.31445,-527.277
 L 1.21352,-527.118 L 1.09344,-526.973 L 0.956131,-526.844 L 0.803726,-526.734 L 0.638657,-526.643 L 0.463516,-526.573
 L 0.281067,-526.527 L 0.0941772,-526.503 z
M 1.31166,-497.124 L 2.16312,-497.343 L 2.98045,-497.666 L 3.75078,-498.09 L 4.46196,-498.606 L 5.10277,-499.208
 L 5.66312,-499.886 L 6.13414,-500.628 L 6.50842,-501.423 L 6.78008,-502.259 L 6.94479,-503.123 L 7,-504
 L 6.94479,-504.877 L 6.78008,-505.741 L 6.50842,-506.577 L 6.13414,-507.372 L 5.66312,-508.114 L 5.10277,-508.792
 L 4.46196,-509.394 L 3.75078,-509.91 L 2.98045,-510.334 L 2.16312,-510.657 L 1.31166,-510.876 L 0.439529,-510.986
 L -0.439529,-510.986 L -1.31166,-510.876 L -2.16312,-510.657 L -2.98045,-510.334 L -3.75078,-509.91 L -4.46196,-509.394
 L -5.10277,-508.792 L -5.66312,-508.114 L -6.13414,-507.372 L -6.50842,-506.577 L -6.78008,-505.741 L -6.94479,-504.877
 L -7,-504 L -6.94479,-503.123 L -6.78008,-502.259 L -6.50842,-501.423 L -6.13414,-500.628 L -5.66312,-499.886
 L -5.10277,-499.208 L -4.46196,-498.606 L -3.75078,-498.09 L -2.98045,-497.666 L -2.16312,-497.343 L -1.31166,-497.124
 L -0.439529,-497.014 L 0.439529,-497.014 z
M -0.0941772,-502.503 L -0.281067,-502.527 L -0.463516,-502.573 L -0.638657,-502.643 L -0.803726,-502.734 L -0.956131,-502.844
 L -1.09344,-502.973 L -1.21352,-503.118 L -1.31445,-503.277 L -1.39465,-503.448 L -1.45287,-503.627 L -1.48816,-503.812
 L -1.5,-504 L -1.48816,-504.188 L -1.45287,-504.373 L -1.39465,-504.552 L -1.31445,-504.723 L -1.21352,-504.882
 L -1.09344,-505.027 L -0.956131,-505.156 L -0.803726,-505.266 L -0.638657,-505.357 L -0.463516,-505.427 L -0.281067,-505.473
 L -0.0941772,-505.497 L 0.0941772,-505.497 L 0.281067,-505.473 L 0.463516,-505.427 L 0.638657,-505.357 L 0.803726,-505.266
 L 0.956131,-505.156 L 1.09344,-505.027 L 1.21352,-504.882 L 1.31445,-504.723 L 1.39465,-504.552 L 1.45287,-504.373
 L 1.48816,-504.188 L 1.5,-504 L 1.48816,-503.812 L 1.45287,-503.627 L 1.39465,-503.448 L 1.31445,-503.277
 L 1.21352,-503.118 L 1.09344,-502.973 L 0.956131,-502.844 L 0.803726,-502.734 L 0.638657,-502.643 L 0.463516,-502.573
 L 0.281067,-502.527 L 0.0941772,-502.503 z
M 1.31166,-473.124 L 2.16312,-473.343 L 2.98045,-473.666 L 3.75078,-474.09 L 4.46196,-474.606 L 5.10277,-475.208
 L 5.66312,-475.886 L 6.13414,-476.628 L 6.50842,-477.423 L 6.78008,-478.259 L 6.94479,-479.123 L 7,-480
 L 6.94479,-480.877 L 6.78008,-481.741 L 6.50842,-482.577 L 6.13414,-483.372 L 5.66312,-484.114 L 5.10277,-484.792
 L 4.46196,-485.394 L 3.75078,-485.91 L 2.98045,-486.334 L 2.16312,-486.657 L 1.31166,-486.876 L 0.439529,-486.986
 L -0.439529,-486.986 L -1.31166,-486.876 L -2.16312,-486.657 L -2.98045,-486.334 L -3.75078,-485.91 L -4.46196,-485.394
 L -5.10277,-484.792 L -5.66312,-484.114 L -6.13414,-483.372 L -6.50842,-482.577 L -6.78008,-481.741 L -6.94479,-480.877
 L -7,-480 L -6.94479,-479.123 L -6.78008,-478.259 L -6.50842,-477.423 L -6.13414,-476.628 L -5.66312,-475.886
 L -5.10277,-475.208 L -4.46196,-474.606 L -3.75078,-474.09 L -2.98045,-473.666 L -2.16312,-473.343 L -1.31166,-473.124
 L -0.439529,-473.014 L 0.439529,-473.014 z
M -0.0941772,-478.503 L -0.281067,-478.527 L -0.463516,-478.573 L -0.638657,-478.643 L -0.803726,-478.734 L -0.956131,-478.844
 L -1.09344,-478.973 L -1.21352,-479.118 L -1.31445,-479.277 L -1.39465,-479.448 L -1.45287,-479.627 L -1.48816,-479.812
 L -1.5,-480 L -1.48816,-480.188 L -1.45287,-480.373 L -1.39465,-480.552 L -1.31445,-480.723 L -1.21352,-480.882
 L -1.09344,-481.027 L -0.956131,-481.156 L -0.803726,-481.266 L -0.638657,-481.357 L -0.463516,-481.427 L -0.281067,-481.473
 L -0.0941772,-481.497 L 0.0941772,-481.497 L 0.281067,-481.473 L 0.463516,-481.427 L 0.638657,-481.357 L 0.803726,-481.266
 L 0.956131,-481.156 L 1.09344,-481.027 L 1.21352,-480.882 L 1.31445,-480.723 L 1.39465,-480.552 L 1.45287,-480.373
 L 1.48816,-480.188 L 1.5,-480 L 1.48816,-479.812 L 1.45287,-479.627 L 1.39465,-479.448 L 1.31445,-479.277
 L 1.21352,-479.118 L 1.09344,-478.973 L 0.956131,-478.844 L 0.803726,-478.734 L 0.638657,-478.643 L 0.463516,-478.573
 L 0.281067,-478.527 L 0.0941772,-478.503 z
M 1.31166,-449.124 L 2.16312,-449.343 L 2.98045,-449.666 L 3.75078,-450.09 L 4.46196,-450.606 L 5.10277,-451.208
 L 5.66312,-451.886 L 6.13414,-452.628 L 6.50842,-453.423 L 6.78008,-454.259 L 6.94479,-455.123 L 7,-456
 L 6.94479,-456.877 L 6.78008,-457.741 L 6.50842,-458.577 L 6.13414,-459.372 L 5.66312,-460.114 L 5.10277,-460.792
 L 4.46196,-461.394 L 3.75078,-461.91 L 2.98045,-462.334 L 2.16312,-462.657 L 1.31166,-462.876 L 0.439529,-462.986
 L -0.439529,-462.986 L -1.31166,-462.876 L -2.16312,-462.657 L -2.98045,-462.334 L -3.75078,-461.91 L -4.46196,-461.394
 L -5.10277,-460.792 L -5.66312,-460.114 L -6.13414,-459.372 L -6.50842,-458.577 L -6.78008,-457.741 L -6.94479,-456.877
 L -7,-456 L -6.94479,-455.123 L -6.78008,-454.259 L -6.50842,-453.423 L -6.13414,-452.628 L -5.66312,-451.886
 L -5.10277,-451.208 L -4.46196,-450.606 L -3.75078,-450.09 L -2.98045,-449.666 L -2.16312,-449.343 L -1.31166,-449.124
 L -0.439529,-449.014 L 0.439529,-449.014 z
M -0.0941772,-454.503 L -0.281067,-454.527 L -0.463516,-454.573 L -0.638657,-454.643 L -0.803726,-454.734 L -0.956131,-454.844
 L -1.09344,-454.973 L -1.21352,-455.118 L -1.31445,-455.277 L -1.39465,-455.448 L -1.45287,-455.627 L -1.48816,-455.812
 L -1.5,-456 L -1.48816,-456.188 L -1.45287,-456.373 L -1.39465,-456.552 L -1.31445,-456.723 L -1.21352,-456.882
 L -1.09344,-457.027 L -0.956131,-457.156 L -0.803726,-457.266 L -0.638657,-457.357 L -0.463516,-457.427 L -0.281067,-457.473
 L -0.0941772,-457.497 L 0.0941772,-457.497 L 0.281067,-457.473 L 0.463516,-457.427 L 0.638657,-457.357 L 0.803726,-457.266
 L 0.956131,-457.156 L 1.09344,-457.027 L 1.21352,-456.882 L 1.31445,-456.723 L 1.39465,-456.552 L 1.45287,-456.373
 L 1.48816,-456.188 L 1.5,-456 L 1.48816,-455.812 L 1.45287,-455.627 L 1.39465,-455.448 L 1.31445,-455.277
 L 1.21352,-455.118 L 1.09344,-454.973 L 0.956131,-454.844 L 0.803726,-454.734 L 0.638657,-454.643 L 0.463516,-454.573
 L 0.281067,-454.527 L 0.0941772,-454.503 z
M 1.31166,-425.124 L 2.16312,-425.343 L 2.98045,-425.666 L 3.75078,-426.09 L 4.46196,-426.606 L 5.10277,-427.208
 L 5.66312,-427.886 L 6.13414,-428.628 L 6.50842,-429.423 L 6.78008,-430.259 L 6.94479,-431.123 L 7,-432
 L 6.94479,-432.877 L 6.78008,-433.741 L 6.50842,-434.577 L 6.13414,-435.372 L 5.66312,-436.114 L 5.10277,-436.792
 L 4.46196,-437.394 L 3.75078,-437.91 L 2.98045,-438.334 L 2.16312,-438.657 L 1.31166,-438.876 L 0.439529,-438.986
 L -0.439529,-438.986 L -1.31166,-438.876 L -2.16312,-438.657 L -2.98045,-438.334 L -3.75078,-437.91 L -4.46196,-437.394
 L -5.10277,-436.792 L -5.66312,-436.114 L -6.13414,-435.372 L -6.50842,-434.577 L -6.78008,-433.741 L -6.94479,-432.877
 L -7,-432 L -6.94479,-431.123 L -6.78008,-430.259 L -6.50842,-429.423 L -6.13414,-428.628 L -5.66312,-427.886
 L -5.10277,-427.208 L -4.46196,-426.606 L -3.75078,-426.09 L -2.98045,-425.666 L -2.16312,-425.343 L -1.31166,-425.124
 L -0.439529,-425.014 L 0.439529,-425.014 z
M -0.0941772,-430.503 L -0.281067,-430.527 L -0.463516,-430.573 L -0.638657,-430.643 L -0.803726,-430.734 L -0.956131,-430.844
 L -1.09344,-430.973 L -1.21352,-431.118 L -1.31445,-431.277 L -1.39465,-431.448 L -1.45287,-431.627 L -1.48816,-431.812
 L -1.5,-432 L -1.48816,-432.188 L -1.45287,-432.373 L -1.39465,-432.552 L -1.31445,-432.723 L -1.21352,-432.882
 L -1.09344,-433.027 L -0.956131,-433.156 L -0.803726,-433.266 L -0.638657,-433.357 L -0.463516,-433.427 L -0.281067,-433.473
 L -0.0941772,-433.497 L 0.0941772,-433.497 L 0.281067,-433.473 L 0.463516,-433.427 L 0.638657,-433.357 L 0.803726,-433.266
 L 0.956131,-433.156 L 1.09344,-433.027 L 1.21352,-432.882 L 1.31445,-432.723 L 1.39465,-432.552 L 1.45287,-432.373
 L 1.48816,-432.188 L 1.5,-432 L 1.48816,-431.812 L 1.45287,-431.627 L 1.39465,-431.448 L 1.31445,-431.277
 L 1.21352,-431.118 L 1.09344,-430.973 L 0.956131,-430.844 L 0.803726,-430.734 L 0.638657,-430.643 L 0.463516,-430.573
 L 0.281067,-430.527 L 0.0941772,-430.503 z
M 1.31166,-401.124 L 2.16312,-401.343 L 2.98045,-401.666 L 3.75078,-402.09 L 4.46196,-402.606 L 5.10277,-403.208
 L 5.66312,-403.886 L 6.13414,-404.628 L 6.50842,-405.423 L 6.78008,-406.259 L 6.94479,-407.123 L 7,-408
 L 6.94479,-408.877 L 6.78008,-409.741 L 6.50842,-410.577 L 6.13414,-411.372 L 5.66312,-412.114 L 5.10277,-412.792
 L 4.46196,-413.394 L 3.75078,-413.91 L 2.98045,-414.334 L 2.16312,-414.657 L 1.31166,-414.876 L 0.439529,-414.986
 L -0.439529,-414.986 L -1.31166,-414.876 L -2.16312,-414.657 L -2.98045,-414.334 L -3.75078,-413.91 L -4.46196,-413.394
 L -5.10277,-412.792 L -5.66312,-412.114 L -6.13414,-411.372 L -6.50842,-410.577 L -6.78008,-409.741 L -6.94479,-408.877
 L -7,-408 L -6.94479,-407.123 L -6.78008,-406.259 L -6.50842,-405.423 L -6.13414,-404.628 L -5.66312,-403.886
 L -5.10277,-403.208 L -4.46196,-402.606 L -3.75078,-402.09 L -2.98045,-401.666 L -2.16312,-401.343 L -1.31166,-401.124
 L -0.439529,-401.014 L 0.439529,-401.014 z
M -0.0941772,-406.503 L -0.281067,-406.527 L -0.463516,-406.573 L -0.638657,-406.643 L -0.803726,-406.734 L -0.956131,-406.844
 L -1.09344,-406.973 L -1.21352,-407.118 L -1.31445,-407.277 L -1.39465,-407.448 L -1.45287,-407.627 L -1.48816,-407.812
 L -1.5,-408 L -1.48816,-408.188 L -1.45287,-408.373 L -1.39465,-408.552 L -1.31445,-408.723 L -1.21352,-408.882
 L -1.09344,-409.027 L -0.956131,-409.156 L -0.803726,-409.266 L -0.638657,-409.357 L -0.463516,-409.427 L -0.281067,-409.473
 L -0.0941772,-409.497 L 0.0941772,-409.497 L 0.281067,-409.473 L 0.463516,-409.427 L 0.638657,-409.357 L 0.803726,-409.266
 L 0.956131,-409.156 L 1.09344,-409.027 L 1.21352,-408.882 L 1.31445,-408.723 L 1.39465,-408.552 L 1.45287,-408.373
 L 1.48816,-408.188 L 1.5,-408 L 1.48816,-407.812 L 1.45287,-407.627 L 1.39465,-407.448 L 1.31445,-407.277
 L 1.21352,-407.118 L 1.09344,-406.973 L 0.956131,-406.844 L 0.803726,-406.734 L 0.638657,-406.643 L 0.463516,-406.573
 L 0.281067,-406.527 L 0.0941772,-406.503 z
M 1.31166,-377.124 L 2.16312,-377.343 L 2.98045,-377.666 L 3.75078,-378.09 L 4.46196,-378.606 L 5.10277,-379.208
 L 5.66312,-379.886 L 6.13414,-380.628 L 6.50842,-381.423 L 6.78008,-382.259 L 6.94479,-383.123 L 7,-384
 L 6.94479,-384.877 L 6.78008,-385.741 L 6.50842,-386.577 L 6.13414,-387.372 L 5.66312,-388.114 L 5.10277,-388.792
 L 4.46196,-389.394 L 3.75078,-389.91 L 2.98045,-390.334 L 2.16312,-390.657 L 1.31166,-390.876 L 0.439529,-390.986
 L -0.439529,-390.986 L -1.31166,-390.876 L -2.16312,-390.657 L -2.98045,-390.334 L -3.75078,-389.91 L -4.46196,-389.394
 L -5.10277,-388.792 L -5.66312,-388.114 L -6.13414,-387.372 L -6.50842,-386.577 L -6.78008,-385.741 L -6.94479,-384.877
 L -7,-384 L -6.94479,-383.123 L -6.78008,-382.259 L -6.50842,-381.423 L -6.13414,-380.628 L -5.66312,-379.886
 L -5.10277,-379.208 L -4.46196,-378.606 L -3.75078,-378.09 L -2.98045,-377.666 L -2.16312,-377.343 L -1.31166,-377.124
 L -0.439529,-377.014 L 0.439529,-377.014 z
M -0.0941772,-382.503 L -0.281067,-382.527 L -0.463516,-382.573 L -0.638657,-382.643 L -0.803726,-382.734 L -0.956131,-382.844
 L -1.09344,-382.973 L -1.21352,-383.118 L -1.31445,-383.277 L -1.39465,-383.448 L -1.45287,-383.627 L -1.48816,-383.812
 L -1.5,-384 L -1.48816,-384.188 L -1.45287,-384.373 L -1.39465,-384.552 L -1.31445,-384.723 L -1.21352,-384.882
 L -1.09344,-385.027 L -0.956131,-385.156 L -0.803726,-385.266 L -0.638657,-385.357 L -0.463516,-385.427 L -0.281067,-385.473
 L -0.0941772,-385.497 L 0.0941772,-385.497 L 0.281067,-385.473 L 0.463516,-385.427 L 0.638657,-385.357 L 0.803726,-385.266
 L 0.956131,-385.156 L 1.09344,-385.027 L 1.21352,-384.882 L 1.31445,-384.723 L 1.39465,-384.552 L 1.45287,-384.373
 L 1.48816,-384.188 L 1.5,-384 L 1.48816,-383.812 L 1.45287,-383.627 L 1.39465,-383.448 L 1.31445,-383.277
 L 1.21352,-383.118 L 1.09344,-382.973 L 0.956131,-382.844 L 0.803726,-382.734 L 0.638657,-382.643 L 0.463516,-382.573
 L 0.281067,-382.527 L 0.0941772,-382.503 z
M 1.31166,-353.124 L 2.16312,-353.343 L 2.98045,-353.666 L 3.75078,-354.09 L 4.46196,-354.606 L 5.10277,-355.208
 L 5.66312,-355.886 L 6.13414,-356.628 L 6.50842,-357.423 L 6.78008,-358.259 L 6.94479,-359.123 L 7,-360
 L 6.94479,-360.877 L 6.78008,-361.741 L 6.50842,-362.577 L 6.13414,-363.372 L 5.66312,-364.114 L 5.10277,-364.792
 L 4.46196,-365.394 L 3.75078,-365.91 L 2.98045,-366.334 L 2.16312,-366.657 L 1.31166,-366.876 L 0.439529,-366.986
 L -0.439529,-366.986 L -1.31166,-366.876 L -2.16312,-366.657 L -2.98045,-366.334 L -3.75078,-365.91 L -4.46196,-365.394
 L -5.10277,-364.792 L -5.66312,-364.114 L -6.13414,-363.372 L -6.50842,-362.577 L -6.78008,-361.741 L -6.94479,-360.877
 L -7,-360 L -6.94479,-359.123 L -6.78008,-358.259 L -6.50842,-357.423 L -6.13414,-356.628 L -5.66312,-355.886
 L -5.10277,-355.208 L -4.46196,-354.606 L -3.75078,-354.09 L -2.98045,-353.666 L -2.16312,-353.343 L -1.31166,-353.124
 L -0.439529,-353.014 L 0.439529,-353.014 z
M -0.0941772,-358.503 L -0.281067,-358.527 L -0.463516,-358.573 L -0.638657,-358.643 L -0.803726,-358.734 L -0.956131,-358.844
 L -1.09344,-358.973 L -1.21352,-359.118 L -1.31445,-359.277 L -1.39465,-359.448 L -1.45287,-359.627 L -1.48816,-359.812
 L -1.5,-360 L -1.48816,-360.188 L -1.45287,-360.373 L -1.39465,-360.552 L -1.31445,-360.723 L -1.21352,-360.882
 L -1.09344,-361.027 L -0.956131,-361.156 L -0.803726,-361.266 L -0.638657,-361.357 L -0.463516,-361.427 L -0.281067,-361.473
 L -0.0941772,-361.497 L 0.0941772,-361.497 L 0.281067,-361.473 L 0.463516,-361.427 L 0.638657,-361.357 L 0.803726,-361.266
 L 0.956131,-361.156 L 1.09344,-361.027 L 1.21352,-360.882 L 1.31445,-360.723 L 1.39465,-360.552 L 1.45287,-360.373
 L 1.48816,-360.188 L 1.5,-360 L 1.48816,-359.812 L 1.45287,-359.627 L 1.39465,-359.448 L 1.31445,-359.277
 L 1.21352,-359.118 L 1.09344,-358.973 L 0.956131,-358.844 L 0.803726,-358.734 L 0.638657,-358.643 L 0.463516,-358.573
 L 0.281067,-358.527 L 0.0941772,-358.503 z
" stroke="black" fill="lightgray" stroke-width="0.5"/>
</svg>
