  0
SECTION
  2
BLOCKS
  0
ENDSEC
  0
SECTION
  2
ENTITIES
  0
LINE
  8
0
 10
182.937
 20
-6.91142
 11
183.545
 21
-6.75528
  0
LINE
  8
0
 10
183.545
 20
-6.75528
 11
184.129
 21
-6.52412
  0
LINE
  8
0
 10
184.129
 20
-6.52412
 11
184.679
 21
-6.22163
  0
LINE
  8
0
 10
184.679
 20
-6.22163
 11
185.187
 21
-5.85255
  0
LINE
  8
0
 10
185.187
 20
-5.85255
 11
185.645
 21
-5.42273
  0
LINE
  8
0
 10
185.645
 20
-5.42273
 11
186.045
 21
-4.93892
  0
LINE
  8
0
 10
186.045
 20
-4.93892
 11
186.382
 21
-4.40877
  0
LINE
  8
0
 10
186.382
 20
-4.40877
 11
186.649
 21
-3.84062
  0
LINE
  8
0
 10
186.649
 20
-3.84062
 11
186.843
 21
-3.24344
  0
LINE
  8
0
 10
186.843
 20
-3.24344
 11
186.961
 21
-2.62666
  0
LINE
  8
0
 10
186.961
 20
-2.62666
 11
187
 21
-2
  0
LINE
  8
0
 10
187
 20
-2
 11
187
 21
2
  0
LINE
  8
0
 10
187
 20
2
 11
186.961
 21
2.62666
  0
LINE
  8
0
 10
186.961
 20
2.62666
 11
186.843
 21
3.24344
  0
LINE
  8
0
 10
186.843
 20
3.24344
 11
186.649
 21
3.84062
  0
LINE
  8
0
 10
186.649
 20
3.84062
 11
186.382
 21
4.40877
  0
LINE
  8
0
 10
186.382
 20
4.40877
 11
186.045
 21
4.93892
  0
LINE
  8
0
 10
186.045
 20
4.93892
 11
185.645
 21
5.42273
  0
LINE
  8
0
 10
185.645
 20
5.42273
 11
185.187
 21
5.85255
  0
LINE
  8
0
 10
185.187
 20
5.85255
 11
184.679
 21
6.22163
  0
LINE
  8
0
 10
184.679
 20
6.22163
 11
184.129
 21
6.52412
  0
LINE
  8
0
 10
184.129
 20
6.52412
 11
183.545
 21
6.75528
  0
LINE
  8
0
 10
183.545
 20
6.75528
 11
182.937
 21
6.91142
  0
LINE
  8
0
 10
182.937
 20
6.91142
 11
182.314
 21
6.99013
  0
LINE
  8
0
 10
182.314
 20
6.99013
 11
-182.314
 21
6.99013
  0
LINE
  8
0
 10
-182.314
 20
6.99013
 11
-182.937
 21
6.91142
  0
LINE
  8
0
 10
-182.937
 20
6.91142
 11
-183.545
 21
6.75528
  0
LINE
  8
0
 10
-183.545
 20
6.75528
 11
-184.129
 21
6.52412
  0
LINE
  8
0
 10
-184.129
 20
6.52412
 11
-184.679
 21
6.22163
  0
LINE
  8
0
 10
-184.679
 20
6.22163
 11
-185.187
 21
5.85255
  0
LINE
  8
0
 10
-185.187
 20
5.85255
 11
-185.645
 21
5.42273
  0
LINE
  8
0
 10
-185.645
 20
5.42273
 11
-186.045
 21
4.93892
  0
LINE
  8
0
 10
-186.045
 20
4.93892
 11
-186.382
 21
4.40877
  0
LINE
  8
0
 10
-186.382
 20
4.40877
 11
-186.649
 21
3.84062
  0
LINE
  8
0
 10
-186.649
 20
3.84062
 11
-186.843
 21
3.24344
  0
LINE
  8
0
 10
-186.843
 20
3.24344
 11
-186.961
 21
2.62666
  0
LINE
  8
0
 10
-186.961
 20
2.62666
 11
-187
 21
2
  0
LINE
  8
0
 10
-187
 20
2
 11
-187
 21
-2
  0
LINE
  8
0
 10
-187
 20
-2
 11
-186.961
 21
-2.62666
  0
LINE
  8
0
 10
-186.961
 20
-2.62666
 11
-186.843
 21
-3.24344
  0
LINE
  8
0
 10
-186.843
 20
-3.24344
 11
-186.649
 21
-3.84062
  0
LINE
  8
0
 10
-186.649
 20
-3.84062
 11
-186.382
 21
-4.40877
  0
LINE
  8
0
 10
-186.382
 20
-4.40877
 11
-186.045
 21
-4.93892
  0
LINE
  8
0
 10
-186.045
 20
-4.93892
 11
-185.645
 21
-5.42273
  0
LINE
  8
0
 10
-185.645
 20
-5.42273
 11
-185.187
 21
-5.85255
  0
LINE
  8
0
 10
-185.187
 20
-5.85255
 11
-184.679
 21
-6.22163
  0
LINE
  8
0
 10
-184.679
 20
-6.22163
 11
-184.129
 21
-6.52412
  0
LINE
  8
0
 10
-184.129
 20
-6.52412
 11
-183.545
 21
-6.75528
  0
LINE
  8
0
 10
-183.545
 20
-6.75528
 11
-182.937
 21
-6.91142
  0
LINE
  8
0
 10
-182.937
 20
-6.91142
 11
-182.314
 21
-6.99013
  0
LINE
  8
0
 10
-182.314
 20
-6.99013
 11
182.314
 21
-6.99013
  0
LINE
  8
0
 10
182.314
 20
-6.99013
 11
182.937
 21
-6.91142
  0
LINE
  8
0
 10
179.812
 20
-2.99408
 11
179.438
 21
-2.94685
  0
LINE
  8
0
 10
179.438
 20
-2.94685
 11
179.073
 21
-2.85316
  0
LINE
  8
0
 10
179.073
 20
-2.85316
 11
178.723
 21
-2.71448
  0
LINE
  8
0
 10
178.723
 20
-2.71448
 11
178.393
 21
-2.53297
  0
LINE
  8
0
 10
178.393
 20
-2.53297
 11
178.088
 21
-2.31154
  0
LINE
  8
0
 10
178.088
 20
-2.31154
 11
177.813
 21
-2.05363
  0
LINE
  8
0
 10
177.813
 20
-2.05363
 11
177.573
 21
-1.76335
  0
LINE
  8
0
 10
177.573
 20
-1.76335
 11
177.371
 21
-1.44525
  0
LINE
  8
0
 10
177.371
 20
-1.44525
 11
177.211
 21
-1.10437
  0
LINE
  8
0
 10
177.211
 20
-1.10437
 11
177.094
 21
-0.746063
  0
LINE
  8
0
 10
177.094
 20
-0.746063
 11
177.024
 21
-0.375992
  0
LINE
  8
0
 10
177.024
 20
-0.375992
 11
177
 21
0
  0
LINE
  8
0
 10
177
 20
0
 11
177.024
 21
0.375992
  0
LINE
  8
0
 10
177.024
 20
0.375992
 11
177.094
 21
0.746063
  0
LINE
  8
0
 10
177.094
 20
0.746063
 11
177.211
 21
1.10437
  0
LINE
  8
0
 10
177.211
 20
1.10437
 11
177.371
 21
1.44525
  0
LINE
  8
0
 10
177.371
 20
1.44525
 11
177.573
 21
1.76335
  0
LINE
  8
0
 10
177.573
 20
1.76335
 11
177.813
 21
2.05363
  0
LINE
  8
0
 10
177.813
 20
2.05363
 11
178.088
 21
2.31154
  0
LINE
  8
0
 10
178.088
 20
2.31154
 11
178.393
 21
2.53297
  0
LINE
  8
0
 10
178.393
 20
2.53297
 11
178.723
 21
2.71448
  0
LINE
  8
0
 10
178.723
 20
2.71448
 11
179.073
 21
2.85316
  0
LINE
  8
0
 10
179.073
 20
2.85316
 11
179.438
 21
2.94685
  0
LINE
  8
0
 10
179.438
 20
2.94685
 11
179.812
 21
2.99408
  0
LINE
  8
0
 10
179.812
 20
2.99408
 11
180.188
 21
2.99408
  0
LINE
  8
0
 10
180.188
 20
2.99408
 11
180.562
 21
2.94685
  0
LINE
  8
0
 10
180.562
 20
2.94685
 11
180.927
 21
2.85316
  0
LINE
  8
0
 10
180.927
 20
2.85316
 11
181.277
 21
2.71448
  0
LINE
  8
0
 10
181.277
 20
2.71448
 11
181.607
 21
2.53297
  0
LINE
  8
0
 10
181.607
 20
2.53297
 11
181.912
 21
2.31154
  0
LINE
  8
0
 10
181.912
 20
2.31154
 11
182.187
 21
2.05363
  0
LINE
  8
0
 10
182.187
 20
2.05363
 11
182.427
 21
1.76335
  0
LINE
  8
0
 10
182.427
 20
1.76335
 11
182.629
 21
1.44525
  0
LINE
  8
0
 10
182.629
 20
1.44525
 11
182.789
 21
1.10437
  0
LINE
  8
0
 10
182.789
 20
1.10437
 11
182.906
 21
0.746063
  0
LINE
  8
0
 10
182.906
 20
0.746063
 11
182.976
 21
0.375992
  0
LINE
  8
0
 10
182.976
 20
0.375992
 11
183
 21
0
  0
LINE
  8
0
 10
183
 20
0
 11
182.976
 21
-0.375992
  0
LINE
  8
0
 10
182.976
 20
-0.375992
 11
182.906
 21
-0.746063
  0
LINE
  8
0
 10
182.906
 20
-0.746063
 11
182.789
 21
-1.10437
  0
LINE
  8
0
 10
182.789
 20
-1.10437
 11
182.629
 21
-1.44525
  0
LINE
  8
0
 10
182.629
 20
-1.44525
 11
182.427
 21
-1.76335
  0
LINE
  8
0
 10
182.427
 20
-1.76335
 11
182.187
 21
-2.05363
  0
LINE
  8
0
 10
182.187
 20
-2.05363
 11
181.912
 21
-2.31154
  0
LINE
  8
0
 10
181.912
 20
-2.31154
 11
181.607
 21
-2.53297
  0
LINE
  8
0
 10
181.607
 20
-2.53297
 11
181.277
 21
-2.71448
  0
LINE
  8
0
 10
181.277
 20
-2.71448
 11
180.927
 21
-2.85316
  0
LINE
  8
0
 10
180.927
 20
-2.85316
 11
180.562
 21
-2.94685
  0
LINE
  8
0
 10
180.562
 20
-2.94685
 11
180.188
 21
-2.99408
  0
LINE
  8
0
 10
180.188
 20
-2.99408
 11
179.812
 21
-2.99408
  0
LINE
  8
0
 10
-180.188
 20
-2.99408
 11
-180.562
 21
-2.94685
  0
LINE
  8
0
 10
-180.562
 20
-2.94685
 11
-180.927
 21
-2.85316
  0
LINE
  8
0
 10
-180.927
 20
-2.85316
 11
-181.277
 21
-2.71448
  0
LINE
  8
0
 10
-181.277
 20
-2.71448
 11
-181.607
 21
-2.53297
  0
LINE
  8
0
 10
-181.607
 20
-2.53297
 11
-181.912
 21
-2.31154
  0
LINE
  8
0
 10
-181.912
 20
-2.31154
 11
-182.187
 21
-2.05363
  0
LINE
  8
0
 10
-182.187
 20
-2.05363
 11
-182.427
 21
-1.76335
  0
LINE
  8
0
 10
-182.427
 20
-1.76335
 11
-182.629
 21
-1.44525
  0
LINE
  8
0
 10
-182.629
 20
-1.44525
 11
-182.789
 21
-1.10437
  0
LINE
  8
0
 10
-182.789
 20
-1.10437
 11
-182.906
 21
-0.746063
  0
LINE
  8
0
 10
-182.906
 20
-0.746063
 11
-182.976
 21
-0.375992
  0
LINE
  8
0
 10
-182.976
 20
-0.375992
 11
-183
 21
0
  0
LINE
  8
0
 10
-183
 20
0
 11
-182.976
 21
0.375992
  0
LINE
  8
0
 10
-182.976
 20
0.375992
 11
-182.906
 21
0.746063
  0
LINE
  8
0
 10
-182.906
 20
0.746063
 11
-182.789
 21
1.10437
  0
LINE
  8
0
 10
-182.789
 20
1.10437
 11
-182.629
 21
1.44525
  0
LINE
  8
0
 10
-182.629
 20
1.44525
 11
-182.427
 21
1.76335
  0
LINE
  8
0
 10
-182.427
 20
1.76335
 11
-182.187
 21
2.05363
  0
LINE
  8
0
 10
-182.187
 20
2.05363
 11
-181.912
 21
2.31154
  0
LINE
  8
0
 10
-181.912
 20
2.31154
 11
-181.607
 21
2.53297
  0
LINE
  8
0
 10
-181.607
 20
2.53297
 11
-181.277
 21
2.71448
  0
LINE
  8
0
 10
-181.277
 20
2.71448
 11
-180.927
 21
2.85316
  0
LINE
  8
0
 10
-180.927
 20
2.85316
 11
-180.562
 21
2.94685
  0
LINE
  8
0
 10
-180.562
 20
2.94685
 11
-180.188
 21
2.99408
  0
LINE
  8
0
 10
-180.188
 20
2.99408
 11
-179.812
 21
2.99408
  0
LINE
  8
0
 10
-179.812
 20
2.99408
 11
-179.438
 21
2.94685
  0
LINE
  8
0
 10
-179.438
 20
2.94685
 11
-179.073
 21
2.85316
  0
LINE
  8
0
 10
-179.073
 20
2.85316
 11
-178.723
 21
2.71448
  0
LINE
  8
0
 10
-178.723
 20
2.71448
 11
-178.393
 21
2.53297
  0
LINE
  8
0
 10
-178.393
 20
2.53297
 11
-178.088
 21
2.31154
  0
LINE
  8
0
 10
-178.088
 20
2.31154
 11
-177.813
 21
2.05363
  0
LINE
  8
0
 10
-177.813
 20
2.05363
 11
-177.573
 21
1.76335
  0
LINE
  8
0
 10
-177.573
 20
1.76335
 11
-177.371
 21
1.44525
  0
LINE
  8
0
 10
-177.371
 20
1.44525
 11
-177.211
 21
1.10437
  0
LINE
  8
0
 10
-177.211
 20
1.10437
 11
-177.094
 21
0.746063
  0
LINE
  8
0
 10
-177.094
 20
0.746063
 11
-177.024
 21
0.375992
  0
LINE
  8
0
 10
-177.024
 20
0.375992
 11
-177
 21
0
  0
LINE
  8
0
 10
-177
 20
0
 11
-177.024
 21
-0.375992
  0
LINE
  8
0
 10
-177.024
 20
-0.375992
 11
-177.094
 21
-0.746063
  0
LINE
  8
0
 10
-177.094
 20
-0.746063
 11
-177.211
 21
-1.10437
  0
LINE
  8
0
 10
-177.211
 20
-1.10437
 11
-177.371
 21
-1.44525
  0
LINE
  8
0
 10
-177.371
 20
-1.44525
 11
-177.573
 21
-1.76335
  0
LINE
  8
0
 10
-177.573
 20
-1.76335
 11
-177.813
 21
-2.05363
  0
LINE
  8
0
 10
-177.813
 20
-2.05363
 11
-178.088
 21
-2.31154
  0
LINE
  8
0
 10
-178.088
 20
-2.31154
 11
-178.393
 21
-2.53297
  0
LINE
  8
0
 10
-178.393
 20
-2.53297
 11
-178.723
 21
-2.71448
  0
LINE
  8
0
 10
-178.723
 20
-2.71448
 11
-179.073
 21
-2.85316
  0
LINE
  8
0
 10
-179.073
 20
-2.85316
 11
-179.438
 21
-2.94685
  0
LINE
  8
0
 10
-179.438
 20
-2.94685
 11
-179.812
 21
-2.99408
  0
LINE
  8
0
 10
-179.812
 20
-2.99408
 11
-180.188
 21
-2.99408
  0
ENDSEC
  0
SECTION
  2
OBJECTS
  0
DICTIONARY
  0
ENDSEC
  0
EOF
