  0
SECTION
  2
BLOCKS
  0
ENDSEC
  0
SECTION
  2
ENTITIES
  0
LINE
  8
0
 10
85.4369
 20
-89.4114
 11
86.0451
 21
-89.2553
  0
LINE
  8
0
 10
86.0451
 20
-89.2553
 11
86.6289
 21
-89.0241
  0
LINE
  8
0
 10
86.6289
 20
-89.0241
 11
87.1791
 21
-88.7216
  0
LINE
  8
0
 10
87.1791
 20
-88.7216
 11
87.6871
 21
-88.3526
  0
LINE
  8
0
 10
87.6871
 20
-88.3526
 11
88.1448
 21
-87.9227
  0
LINE
  8
0
 10
88.1448
 20
-87.9227
 11
88.5451
 21
-87.4389
  0
LINE
  8
0
 10
88.5451
 20
-87.4389
 11
88.8815
 21
-86.9088
  0
LINE
  8
0
 10
88.8815
 20
-86.9088
 11
89.1489
 21
-86.3406
  0
LINE
  8
0
 10
89.1489
 20
-86.3406
 11
89.3429
 21
-85.7434
  0
LINE
  8
0
 10
89.3429
 20
-85.7434
 11
89.4606
 21
-85.1267
  0
LINE
  8
0
 10
89.4606
 20
-85.1267
 11
89.5
 21
-84.5
  0
LINE
  8
0
 10
89.5
 20
-84.5
 11
89.5
 21
84.5
  0
LINE
  8
0
 10
89.5
 20
84.5
 11
89.4606
 21
85.1267
  0
LINE
  8
0
 10
89.4606
 20
85.1267
 11
89.3429
 21
85.7434
  0
LINE
  8
0
 10
89.3429
 20
85.7434
 11
89.1489
 21
86.3406
  0
LINE
  8
0
 10
89.1489
 20
86.3406
 11
88.8815
 21
86.9088
  0
LINE
  8
0
 10
88.8815
 20
86.9088
 11
88.5451
 21
87.4389
  0
LINE
  8
0
 10
88.5451
 20
87.4389
 11
88.1448
 21
87.9227
  0
LINE
  8
0
 10
88.1448
 20
87.9227
 11
87.6871
 21
88.3526
  0
LINE
  8
0
 10
87.6871
 20
88.3526
 11
87.1791
 21
88.7216
  0
LINE
  8
0
 10
87.1791
 20
88.7216
 11
86.6289
 21
89.0241
  0
LINE
  8
0
 10
86.6289
 20
89.0241
 11
86.0451
 21
89.2553
  0
LINE
  8
0
 10
86.0451
 20
89.2553
 11
85.4369
 21
89.4114
  0
LINE
  8
0
 10
85.4369
 20
89.4114
 11
84.8139
 21
89.4901
  0
LINE
  8
0
 10
84.8139
 20
89.4901
 11
-84.8139
 21
89.4901
  0
LINE
  8
0
 10
-84.8139
 20
89.4901
 11
-85.4369
 21
89.4114
  0
LINE
  8
0
 10
-85.4369
 20
89.4114
 11
-86.0451
 21
89.2553
  0
LINE
  8
0
 10
-86.0451
 20
89.2553
 11
-86.6289
 21
89.0241
  0
LINE
  8
0
 10
-86.6289
 20
89.0241
 11
-87.1791
 21
88.7216
  0
LINE
  8
0
 10
-87.1791
 20
88.7216
 11
-87.6871
 21
88.3526
  0
LINE
  8
0
 10
-87.6871
 20
88.3526
 11
-88.1448
 21
87.9227
  0
LINE
  8
0
 10
-88.1448
 20
87.9227
 11
-88.5451
 21
87.4389
  0
LINE
  8
0
 10
-88.5451
 20
87.4389
 11
-88.8815
 21
86.9088
  0
LINE
  8
0
 10
-88.8815
 20
86.9088
 11
-89.1489
 21
86.3406
  0
LINE
  8
0
 10
-89.1489
 20
86.3406
 11
-89.3429
 21
85.7434
  0
LINE
  8
0
 10
-89.3429
 20
85.7434
 11
-89.4606
 21
85.1267
  0
LINE
  8
0
 10
-89.4606
 20
85.1267
 11
-89.5
 21
84.5
  0
LINE
  8
0
 10
-89.5
 20
84.5
 11
-89.5
 21
-84.5
  0
LINE
  8
0
 10
-89.5
 20
-84.5
 11
-89.4606
 21
-85.1267
  0
LINE
  8
0
 10
-89.4606
 20
-85.1267
 11
-89.3429
 21
-85.7434
  0
LINE
  8
0
 10
-89.3429
 20
-85.7434
 11
-89.1489
 21
-86.3406
  0
LINE
  8
0
 10
-89.1489
 20
-86.3406
 11
-88.8815
 21
-86.9088
  0
LINE
  8
0
 10
-88.8815
 20
-86.9088
 11
-88.5451
 21
-87.4389
  0
LINE
  8
0
 10
-88.5451
 20
-87.4389
 11
-88.1448
 21
-87.9227
  0
LINE
  8
0
 10
-88.1448
 20
-87.9227
 11
-87.6871
 21
-88.3526
  0
LINE
  8
0
 10
-87.6871
 20
-88.3526
 11
-87.1791
 21
-88.7216
  0
LINE
  8
0
 10
-87.1791
 20
-88.7216
 11
-86.6289
 21
-89.0241
  0
LINE
  8
0
 10
-86.6289
 20
-89.0241
 11
-86.0451
 21
-89.2553
  0
LINE
  8
0
 10
-86.0451
 20
-89.2553
 11
-85.4369
 21
-89.4114
  0
LINE
  8
0
 10
-85.4369
 20
-89.4114
 11
-84.8139
 21
-89.4901
  0
LINE
  8
0
 10
-84.8139
 20
-89.4901
 11
84.8139
 21
-89.4901
  0
LINE
  8
0
 10
84.8139
 20
-89.4901
 11
85.4369
 21
-89.4114
  0
LINE
  8
0
 10
82.3116
 20
79.5059
 11
81.9379
 21
79.5531
  0
LINE
  8
0
 10
81.9379
 20
79.5531
 11
81.573
 21
79.6468
  0
LINE
  8
0
 10
81.573
 20
79.6468
 11
81.2227
 21
79.7855
  0
LINE
  8
0
 10
81.2227
 20
79.7855
 11
80.8925
 21
79.967
  0
LINE
  8
0
 10
80.8925
 20
79.967
 11
80.5877
 21
80.1885
  0
LINE
  8
0
 10
80.5877
 20
80.1885
 11
80.3131
 21
80.4464
  0
LINE
  8
0
 10
80.3131
 20
80.4464
 11
80.073
 21
80.7366
  0
LINE
  8
0
 10
80.073
 20
80.7366
 11
79.8711
 21
81.0547
  0
LINE
  8
0
 10
79.8711
 20
81.0547
 11
79.7107
 21
81.3956
  0
LINE
  8
0
 10
79.7107
 20
81.3956
 11
79.5943
 21
81.7539
  0
LINE
  8
0
 10
79.5943
 20
81.7539
 11
79.5237
 21
82.124
  0
LINE
  8
0
 10
79.5237
 20
82.124
 11
79.5
 21
82.5
  0
LINE
  8
0
 10
79.5
 20
82.5
 11
79.5237
 21
82.876
  0
LINE
  8
0
 10
79.5237
 20
82.876
 11
79.5943
 21
83.2461
  0
LINE
  8
0
 10
79.5943
 20
83.2461
 11
79.7107
 21
83.6044
  0
LINE
  8
0
 10
79.7107
 20
83.6044
 11
79.8711
 21
83.9453
  0
LINE
  8
0
 10
79.8711
 20
83.9453
 11
80.073
 21
84.2634
  0
LINE
  8
0
 10
80.073
 20
84.2634
 11
80.3131
 21
84.5536
  0
LINE
  8
0
 10
80.3131
 20
84.5536
 11
80.5877
 21
84.8115
  0
LINE
  8
0
 10
80.5877
 20
84.8115
 11
80.8925
 21
85.033
  0
LINE
  8
0
 10
80.8925
 20
85.033
 11
81.2227
 21
85.2145
  0
LINE
  8
0
 10
81.2227
 20
85.2145
 11
81.573
 21
85.3532
  0
LINE
  8
0
 10
81.573
 20
85.3532
 11
81.9379
 21
85.4469
  0
LINE
  8
0
 10
81.9379
 20
85.4469
 11
82.3116
 21
85.4941
  0
LINE
  8
0
 10
82.3116
 20
85.4941
 11
82.6884
 21
85.4941
  0
LINE
  8
0
 10
82.6884
 20
85.4941
 11
83.0621
 21
85.4469
  0
LINE
  8
0
 10
83.0621
 20
85.4469
 11
83.427
 21
85.3532
  0
LINE
  8
0
 10
83.427
 20
85.3532
 11
83.7773
 21
85.2145
  0
LINE
  8
0
 10
83.7773
 20
85.2145
 11
84.1075
 21
85.033
  0
LINE
  8
0
 10
84.1075
 20
85.033
 11
84.4123
 21
84.8115
  0
LINE
  8
0
 10
84.4123
 20
84.8115
 11
84.6869
 21
84.5536
  0
LINE
  8
0
 10
84.6869
 20
84.5536
 11
84.927
 21
84.2634
  0
LINE
  8
0
 10
84.927
 20
84.2634
 11
85.1289
 21
83.9453
  0
LINE
  8
0
 10
85.1289
 20
83.9453
 11
85.2893
 21
83.6044
  0
LINE
  8
0
 10
85.2893
 20
83.6044
 11
85.4057
 21
83.2461
  0
LINE
  8
0
 10
85.4057
 20
83.2461
 11
85.4763
 21
82.876
  0
LINE
  8
0
 10
85.4763
 20
82.876
 11
85.5
 21
82.5
  0
LINE
  8
0
 10
85.5
 20
82.5
 11
85.4763
 21
82.124
  0
LINE
  8
0
 10
85.4763
 20
82.124
 11
85.4057
 21
81.7539
  0
LINE
  8
0
 10
85.4057
 20
81.7539
 11
85.2893
 21
81.3956
  0
LINE
  8
0
 10
85.2893
 20
81.3956
 11
85.1289
 21
81.0547
  0
LINE
  8
0
 10
85.1289
 20
81.0547
 11
84.927
 21
80.7366
  0
LINE
  8
0
 10
84.927
 20
80.7366
 11
84.6869
 21
80.4464
  0
LINE
  8
0
 10
84.6869
 20
80.4464
 11
84.4123
 21
80.1885
  0
LINE
  8
0
 10
84.4123
 20
80.1885
 11
84.1075
 21
79.967
  0
LINE
  8
0
 10
84.1075
 20
79.967
 11
83.7773
 21
79.7855
  0
LINE
  8
0
 10
83.7773
 20
79.7855
 11
83.427
 21
79.6468
  0
LINE
  8
0
 10
83.427
 20
79.6468
 11
83.0621
 21
79.5531
  0
LINE
  8
0
 10
83.0621
 20
79.5531
 11
82.6884
 21
79.5059
  0
LINE
  8
0
 10
82.6884
 20
79.5059
 11
82.3116
 21
79.5059
  0
LINE
  8
0
 10
-82.6884
 20
79.5059
 11
-83.0621
 21
79.5531
  0
LINE
  8
0
 10
-83.0621
 20
79.5531
 11
-83.427
 21
79.6468
  0
LINE
  8
0
 10
-83.427
 20
79.6468
 11
-83.7773
 21
79.7855
  0
LINE
  8
0
 10
-83.7773
 20
79.7855
 11
-84.1075
 21
79.967
  0
LINE
  8
0
 10
-84.1075
 20
79.967
 11
-84.4123
 21
80.1885
  0
LINE
  8
0
 10
-84.4123
 20
80.1885
 11
-84.6869
 21
80.4464
  0
LINE
  8
0
 10
-84.6869
 20
80.4464
 11
-84.927
 21
80.7366
  0
LINE
  8
0
 10
-84.927
 20
80.7366
 11
-85.1289
 21
81.0547
  0
LINE
  8
0
 10
-85.1289
 20
81.0547
 11
-85.2893
 21
81.3956
  0
LINE
  8
0
 10
-85.2893
 20
81.3956
 11
-85.4057
 21
81.7539
  0
LINE
  8
0
 10
-85.4057
 20
81.7539
 11
-85.4763
 21
82.124
  0
LINE
  8
0
 10
-85.4763
 20
82.124
 11
-85.5
 21
82.5
  0
LINE
  8
0
 10
-85.5
 20
82.5
 11
-85.4763
 21
82.876
  0
LINE
  8
0
 10
-85.4763
 20
82.876
 11
-85.4057
 21
83.2461
  0
LINE
  8
0
 10
-85.4057
 20
83.2461
 11
-85.2893
 21
83.6044
  0
LINE
  8
0
 10
-85.2893
 20
83.6044
 11
-85.1289
 21
83.9453
  0
LINE
  8
0
 10
-85.1289
 20
83.9453
 11
-84.927
 21
84.2634
  0
LINE
  8
0
 10
-84.927
 20
84.2634
 11
-84.6869
 21
84.5536
  0
LINE
  8
0
 10
-84.6869
 20
84.5536
 11
-84.4123
 21
84.8115
  0
LINE
  8
0
 10
-84.4123
 20
84.8115
 11
-84.1075
 21
85.033
  0
LINE
  8
0
 10
-84.1075
 20
85.033
 11
-83.7773
 21
85.2145
  0
LINE
  8
0
 10
-83.7773
 20
85.2145
 11
-83.427
 21
85.3532
  0
LINE
  8
0
 10
-83.427
 20
85.3532
 11
-83.0621
 21
85.4469
  0
LINE
  8
0
 10
-83.0621
 20
85.4469
 11
-82.6884
 21
85.4941
  0
LINE
  8
0
 10
-82.6884
 20
85.4941
 11
-82.3116
 21
85.4941
  0
LINE
  8
0
 10
-82.3116
 20
85.4941
 11
-81.9379
 21
85.4469
  0
LINE
  8
0
 10
-81.9379
 20
85.4469
 11
-81.573
 21
85.3532
  0
LINE
  8
0
 10
-81.573
 20
85.3532
 11
-81.2227
 21
85.2145
  0
LINE
  8
0
 10
-81.2227
 20
85.2145
 11
-80.8925
 21
85.033
  0
LINE
  8
0
 10
-80.8925
 20
85.033
 11
-80.5877
 21
84.8115
  0
LINE
  8
0
 10
-80.5877
 20
84.8115
 11
-80.3131
 21
84.5536
  0
LINE
  8
0
 10
-80.3131
 20
84.5536
 11
-80.073
 21
84.2634
  0
LINE
  8
0
 10
-80.073
 20
84.2634
 11
-79.8711
 21
83.9453
  0
LINE
  8
0
 10
-79.8711
 20
83.9453
 11
-79.7107
 21
83.6044
  0
LINE
  8
0
 10
-79.7107
 20
83.6044
 11
-79.5943
 21
83.2461
  0
LINE
  8
0
 10
-79.5943
 20
83.2461
 11
-79.5237
 21
82.876
  0
LINE
  8
0
 10
-79.5237
 20
82.876
 11
-79.5
 21
82.5
  0
LINE
  8
0
 10
-79.5
 20
82.5
 11
-79.5237
 21
82.124
  0
LINE
  8
0
 10
-79.5237
 20
82.124
 11
-79.5943
 21
81.7539
  0
LINE
  8
0
 10
-79.5943
 20
81.7539
 11
-79.7107
 21
81.3956
  0
LINE
  8
0
 10
-79.7107
 20
81.3956
 11
-79.8711
 21
81.0547
  0
LINE
  8
0
 10
-79.8711
 20
81.0547
 11
-80.073
 21
80.7366
  0
LINE
  8
0
 10
-80.073
 20
80.7366
 11
-80.3131
 21
80.4464
  0
LINE
  8
0
 10
-80.3131
 20
80.4464
 11
-80.5877
 21
80.1885
  0
LINE
  8
0
 10
-80.5877
 20
80.1885
 11
-80.8925
 21
79.967
  0
LINE
  8
0
 10
-80.8925
 20
79.967
 11
-81.2227
 21
79.7855
  0
LINE
  8
0
 10
-81.2227
 20
79.7855
 11
-81.573
 21
79.6468
  0
LINE
  8
0
 10
-81.573
 20
79.6468
 11
-81.9379
 21
79.5531
  0
LINE
  8
0
 10
-81.9379
 20
79.5531
 11
-82.3116
 21
79.5059
  0
LINE
  8
0
 10
-82.3116
 20
79.5059
 11
-82.6884
 21
79.5059
  0
LINE
  8
0
 10
82.3116
 20
-85.4941
 11
81.9379
 21
-85.4469
  0
LINE
  8
0
 10
81.9379
 20
-85.4469
 11
81.573
 21
-85.3532
  0
LINE
  8
0
 10
81.573
 20
-85.3532
 11
81.2227
 21
-85.2145
  0
LINE
  8
0
 10
81.2227
 20
-85.2145
 11
80.8925
 21
-85.033
  0
LINE
  8
0
 10
80.8925
 20
-85.033
 11
80.5877
 21
-84.8115
  0
LINE
  8
0
 10
80.5877
 20
-84.8115
 11
80.3131
 21
-84.5536
  0
LINE
  8
0
 10
80.3131
 20
-84.5536
 11
80.073
 21
-84.2634
  0
LINE
  8
0
 10
80.073
 20
-84.2634
 11
79.8711
 21
-83.9453
  0
LINE
  8
0
 10
79.8711
 20
-83.9453
 11
79.7107
 21
-83.6044
  0
LINE
  8
0
 10
79.7107
 20
-83.6044
 11
79.5943
 21
-83.2461
  0
LINE
  8
0
 10
79.5943
 20
-83.2461
 11
79.5237
 21
-82.876
  0
LINE
  8
0
 10
79.5237
 20
-82.876
 11
79.5
 21
-82.5
  0
LINE
  8
0
 10
79.5
 20
-82.5
 11
79.5237
 21
-82.124
  0
LINE
  8
0
 10
79.5237
 20
-82.124
 11
79.5943
 21
-81.7539
  0
LINE
  8
0
 10
79.5943
 20
-81.7539
 11
79.7107
 21
-81.3956
  0
LINE
  8
0
 10
79.7107
 20
-81.3956
 11
79.8711
 21
-81.0547
  0
LINE
  8
0
 10
79.8711
 20
-81.0547
 11
80.073
 21
-80.7366
  0
LINE
  8
0
 10
80.073
 20
-80.7366
 11
80.3131
 21
-80.4464
  0
LINE
  8
0
 10
80.3131
 20
-80.4464
 11
80.5877
 21
-80.1885
  0
LINE
  8
0
 10
80.5877
 20
-80.1885
 11
80.8925
 21
-79.967
  0
LINE
  8
0
 10
80.8925
 20
-79.967
 11
81.2227
 21
-79.7855
  0
LINE
  8
0
 10
81.2227
 20
-79.7855
 11
81.573
 21
-79.6468
  0
LINE
  8
0
 10
81.573
 20
-79.6468
 11
81.9379
 21
-79.5531
  0
LINE
  8
0
 10
81.9379
 20
-79.5531
 11
82.3116
 21
-79.5059
  0
LINE
  8
0
 10
82.3116
 20
-79.5059
 11
82.6884
 21
-79.5059
  0
LINE
  8
0
 10
82.6884
 20
-79.5059
 11
83.0621
 21
-79.5531
  0
LINE
  8
0
 10
83.0621
 20
-79.5531
 11
83.427
 21
-79.6468
  0
LINE
  8
0
 10
83.427
 20
-79.6468
 11
83.7773
 21
-79.7855
  0
LINE
  8
0
 10
83.7773
 20
-79.7855
 11
84.1075
 21
-79.967
  0
LINE
  8
0
 10
84.1075
 20
-79.967
 11
84.4123
 21
-80.1885
  0
LINE
  8
0
 10
84.4123
 20
-80.1885
 11
84.6869
 21
-80.4464
  0
LINE
  8
0
 10
84.6869
 20
-80.4464
 11
84.927
 21
-80.7366
  0
LINE
  8
0
 10
84.927
 20
-80.7366
 11
85.1289
 21
-81.0547
  0
LINE
  8
0
 10
85.1289
 20
-81.0547
 11
85.2893
 21
-81.3956
  0
LINE
  8
0
 10
85.2893
 20
-81.3956
 11
85.4057
 21
-81.7539
  0
LINE
  8
0
 10
85.4057
 20
-81.7539
 11
85.4763
 21
-82.124
  0
LINE
  8
0
 10
85.4763
 20
-82.124
 11
85.5
 21
-82.5
  0
LINE
  8
0
 10
85.5
 20
-82.5
 11
85.4763
 21
-82.876
  0
LINE
  8
0
 10
85.4763
 20
-82.876
 11
85.4057
 21
-83.2461
  0
LINE
  8
0
 10
85.4057
 20
-83.2461
 11
85.2893
 21
-83.6044
  0
LINE
  8
0
 10
85.2893
 20
-83.6044
 11
85.1289
 21
-83.9453
  0
LINE
  8
0
 10
85.1289
 20
-83.9453
 11
84.927
 21
-84.2634
  0
LINE
  8
0
 10
84.927
 20
-84.2634
 11
84.6869
 21
-84.5536
  0
LINE
  8
0
 10
84.6869
 20
-84.5536
 11
84.4123
 21
-84.8115
  0
LINE
  8
0
 10
84.4123
 20
-84.8115
 11
84.1075
 21
-85.033
  0
LINE
  8
0
 10
84.1075
 20
-85.033
 11
83.7773
 21
-85.2145
  0
LINE
  8
0
 10
83.7773
 20
-85.2145
 11
83.427
 21
-85.3532
  0
LINE
  8
0
 10
83.427
 20
-85.3532
 11
83.0621
 21
-85.4469
  0
LINE
  8
0
 10
83.0621
 20
-85.4469
 11
82.6884
 21
-85.4941
  0
LINE
  8
0
 10
82.6884
 20
-85.4941
 11
82.3116
 21
-85.4941
  0
LINE
  8
0
 10
-82.6884
 20
-85.4941
 11
-83.0621
 21
-85.4469
  0
LINE
  8
0
 10
-83.0621
 20
-85.4469
 11
-83.427
 21
-85.3532
  0
LINE
  8
0
 10
-83.427
 20
-85.3532
 11
-83.7773
 21
-85.2145
  0
LINE
  8
0
 10
-83.7773
 20
-85.2145
 11
-84.1075
 21
-85.033
  0
LINE
  8
0
 10
-84.1075
 20
-85.033
 11
-84.4123
 21
-84.8115
  0
LINE
  8
0
 10
-84.4123
 20
-84.8115
 11
-84.6869
 21
-84.5536
  0
LINE
  8
0
 10
-84.6869
 20
-84.5536
 11
-84.927
 21
-84.2634
  0
LINE
  8
0
 10
-84.927
 20
-84.2634
 11
-85.1289
 21
-83.9453
  0
LINE
  8
0
 10
-85.1289
 20
-83.9453
 11
-85.2893
 21
-83.6044
  0
LINE
  8
0
 10
-85.2893
 20
-83.6044
 11
-85.4057
 21
-83.2461
  0
LINE
  8
0
 10
-85.4057
 20
-83.2461
 11
-85.4763
 21
-82.876
  0
LINE
  8
0
 10
-85.4763
 20
-82.876
 11
-85.5
 21
-82.5
  0
LINE
  8
0
 10
-85.5
 20
-82.5
 11
-85.4763
 21
-82.124
  0
LINE
  8
0
 10
-85.4763
 20
-82.124
 11
-85.4057
 21
-81.7539
  0
LINE
  8
0
 10
-85.4057
 20
-81.7539
 11
-85.2893
 21
-81.3956
  0
LINE
  8
0
 10
-85.2893
 20
-81.3956
 11
-85.1289
 21
-81.0547
  0
LINE
  8
0
 10
-85.1289
 20
-81.0547
 11
-84.927
 21
-80.7366
  0
LINE
  8
0
 10
-84.927
 20
-80.7366
 11
-84.6869
 21
-80.4464
  0
LINE
  8
0
 10
-84.6869
 20
-80.4464
 11
-84.4123
 21
-80.1885
  0
LINE
  8
0
 10
-84.4123
 20
-80.1885
 11
-84.1075
 21
-79.967
  0
LINE
  8
0
 10
-84.1075
 20
-79.967
 11
-83.7773
 21
-79.7855
  0
LINE
  8
0
 10
-83.7773
 20
-79.7855
 11
-83.427
 21
-79.6468
  0
LINE
  8
0
 10
-83.427
 20
-79.6468
 11
-83.0621
 21
-79.5531
  0
LINE
  8
0
 10
-83.0621
 20
-79.5531
 11
-82.6884
 21
-79.5059
  0
LINE
  8
0
 10
-82.6884
 20
-79.5059
 11
-82.3116
 21
-79.5059
  0
LINE
  8
0
 10
-82.3116
 20
-79.5059
 11
-81.9379
 21
-79.5531
  0
LINE
  8
0
 10
-81.9379
 20
-79.5531
 11
-81.573
 21
-79.6468
  0
LINE
  8
0
 10
-81.573
 20
-79.6468
 11
-81.2227
 21
-79.7855
  0
LINE
  8
0
 10
-81.2227
 20
-79.7855
 11
-80.8925
 21
-79.967
  0
LINE
  8
0
 10
-80.8925
 20
-79.967
 11
-80.5877
 21
-80.1885
  0
LINE
  8
0
 10
-80.5877
 20
-80.1885
 11
-80.3131
 21
-80.4464
  0
LINE
  8
0
 10
-80.3131
 20
-80.4464
 11
-80.073
 21
-80.7366
  0
LINE
  8
0
 10
-80.073
 20
-80.7366
 11
-79.8711
 21
-81.0547
  0
LINE
  8
0
 10
-79.8711
 20
-81.0547
 11
-79.7107
 21
-81.3956
  0
LINE
  8
0
 10
-79.7107
 20
-81.3956
 11
-79.5943
 21
-81.7539
  0
LINE
  8
0
 10
-79.5943
 20
-81.7539
 11
-79.5237
 21
-82.124
  0
LINE
  8
0
 10
-79.5237
 20
-82.124
 11
-79.5
 21
-82.5
  0
LINE
  8
0
 10
-79.5
 20
-82.5
 11
-79.5237
 21
-82.876
  0
LINE
  8
0
 10
-79.5237
 20
-82.876
 11
-79.5943
 21
-83.2461
  0
LINE
  8
0
 10
-79.5943
 20
-83.2461
 11
-79.7107
 21
-83.6044
  0
LINE
  8
0
 10
-79.7107
 20
-83.6044
 11
-79.8711
 21
-83.9453
  0
LINE
  8
0
 10
-79.8711
 20
-83.9453
 11
-80.073
 21
-84.2634
  0
LINE
  8
0
 10
-80.073
 20
-84.2634
 11
-80.3131
 21
-84.5536
  0
LINE
  8
0
 10
-80.3131
 20
-84.5536
 11
-80.5877
 21
-84.8115
  0
LINE
  8
0
 10
-80.5877
 20
-84.8115
 11
-80.8925
 21
-85.033
  0
LINE
  8
0
 10
-80.8925
 20
-85.033
 11
-81.2227
 21
-85.2145
  0
LINE
  8
0
 10
-81.2227
 20
-85.2145
 11
-81.573
 21
-85.3532
  0
LINE
  8
0
 10
-81.573
 20
-85.3532
 11
-81.9379
 21
-85.4469
  0
LINE
  8
0
 10
-81.9379
 20
-85.4469
 11
-82.3116
 21
-85.4941
  0
LINE
  8
0
 10
-82.3116
 20
-85.4941
 11
-82.6884
 21
-85.4941
  0
ENDSEC
  0
SECTION
  2
OBJECTS
  0
DICTIONARY
  0
ENDSEC
  0
EOF
