  0
SECTION
  2
BLOCKS
  0
ENDSEC
  0
SECTION
  2
ENTITIES
  0
LINE
  8
0
 10
17.9369
 20
-21.9114
 11
18.5451
 21
-21.7553
  0
LINE
  8
0
 10
18.5451
 20
-21.7553
 11
19.1289
 21
-21.5241
  0
LINE
  8
0
 10
19.1289
 20
-21.5241
 11
19.6791
 21
-21.2216
  0
LINE
  8
0
 10
19.6791
 20
-21.2216
 11
20.1871
 21
-20.8526
  0
LINE
  8
0
 10
20.1871
 20
-20.8526
 11
20.6448
 21
-20.4227
  0
LINE
  8
0
 10
20.6448
 20
-20.4227
 11
21.0451
 21
-19.9389
  0
LINE
  8
0
 10
21.0451
 20
-19.9389
 11
21.3815
 21
-19.4088
  0
LINE
  8
0
 10
21.3815
 20
-19.4088
 11
21.6489
 21
-18.8406
  0
LINE
  8
0
 10
21.6489
 20
-18.8406
 11
21.8429
 21
-18.2434
  0
LINE
  8
0
 10
21.8429
 20
-18.2434
 11
21.9606
 21
-17.6267
  0
LINE
  8
0
 10
21.9606
 20
-17.6267
 11
22
 21
-17
  0
LINE
  8
0
 10
22
 20
-17
 11
22
 21
17
  0
LINE
  8
0
 10
22
 20
17
 11
21.9606
 21
17.6267
  0
LINE
  8
0
 10
21.9606
 20
17.6267
 11
21.8429
 21
18.2434
  0
LINE
  8
0
 10
21.8429
 20
18.2434
 11
21.6489
 21
18.8406
  0
LINE
  8
0
 10
21.6489
 20
18.8406
 11
21.3815
 21
19.4088
  0
LINE
  8
0
 10
21.3815
 20
19.4088
 11
21.0451
 21
19.9389
  0
LINE
  8
0
 10
21.0451
 20
19.9389
 11
20.6448
 21
20.4227
  0
LINE
  8
0
 10
20.6448
 20
20.4227
 11
20.1871
 21
20.8526
  0
LINE
  8
0
 10
20.1871
 20
20.8526
 11
19.6791
 21
21.2216
  0
LINE
  8
0
 10
19.6791
 20
21.2216
 11
19.1289
 21
21.5241
  0
LINE
  8
0
 10
19.1289
 20
21.5241
 11
18.5451
 21
21.7553
  0
LINE
  8
0
 10
18.5451
 20
21.7553
 11
17.9369
 21
21.9114
  0
LINE
  8
0
 10
17.9369
 20
21.9114
 11
17.3139
 21
21.9901
  0
LINE
  8
0
 10
17.3139
 20
21.9901
 11
-17.3139
 21
21.9901
  0
LINE
  8
0
 10
-17.3139
 20
21.9901
 11
-17.9369
 21
21.9114
  0
LINE
  8
0
 10
-17.9369
 20
21.9114
 11
-18.5451
 21
21.7553
  0
LINE
  8
0
 10
-18.5451
 20
21.7553
 11
-19.1289
 21
21.5241
  0
LINE
  8
0
 10
-19.1289
 20
21.5241
 11
-19.6791
 21
21.2216
  0
LINE
  8
0
 10
-19.6791
 20
21.2216
 11
-20.1871
 21
20.8526
  0
LINE
  8
0
 10
-20.1871
 20
20.8526
 11
-20.6448
 21
20.4227
  0
LINE
  8
0
 10
-20.6448
 20
20.4227
 11
-21.0451
 21
19.9389
  0
LINE
  8
0
 10
-21.0451
 20
19.9389
 11
-21.3815
 21
19.4088
  0
LINE
  8
0
 10
-21.3815
 20
19.4088
 11
-21.6489
 21
18.8406
  0
LINE
  8
0
 10
-21.6489
 20
18.8406
 11
-21.8429
 21
18.2434
  0
LINE
  8
0
 10
-21.8429
 20
18.2434
 11
-21.9606
 21
17.6267
  0
LINE
  8
0
 10
-21.9606
 20
17.6267
 11
-22
 21
17
  0
LINE
  8
0
 10
-22
 20
17
 11
-22
 21
-17
  0
LINE
  8
0
 10
-22
 20
-17
 11
-21.9606
 21
-17.6267
  0
LINE
  8
0
 10
-21.9606
 20
-17.6267
 11
-21.8429
 21
-18.2434
  0
LINE
  8
0
 10
-21.8429
 20
-18.2434
 11
-21.6489
 21
-18.8406
  0
LINE
  8
0
 10
-21.6489
 20
-18.8406
 11
-21.3815
 21
-19.4088
  0
LINE
  8
0
 10
-21.3815
 20
-19.4088
 11
-21.0451
 21
-19.9389
  0
LINE
  8
0
 10
-21.0451
 20
-19.9389
 11
-20.6448
 21
-20.4227
  0
LINE
  8
0
 10
-20.6448
 20
-20.4227
 11
-20.1871
 21
-20.8526
  0
LINE
  8
0
 10
-20.1871
 20
-20.8526
 11
-19.6791
 21
-21.2216
  0
LINE
  8
0
 10
-19.6791
 20
-21.2216
 11
-19.1289
 21
-21.5241
  0
LINE
  8
0
 10
-19.1289
 20
-21.5241
 11
-18.5451
 21
-21.7553
  0
LINE
  8
0
 10
-18.5451
 20
-21.7553
 11
-17.9369
 21
-21.9114
  0
LINE
  8
0
 10
-17.9369
 20
-21.9114
 11
-17.3139
 21
-21.9901
  0
LINE
  8
0
 10
-17.3139
 20
-21.9901
 11
17.3139
 21
-21.9901
  0
LINE
  8
0
 10
17.3139
 20
-21.9901
 11
17.9369
 21
-21.9114
  0
LINE
  8
0
 10
-15.1884
 20
12.0059
 11
-15.5621
 21
12.0531
  0
LINE
  8
0
 10
-15.5621
 20
12.0531
 11
-15.927
 21
12.1468
  0
LINE
  8
0
 10
-15.927
 20
12.1468
 11
-16.2773
 21
12.2855
  0
LINE
  8
0
 10
-16.2773
 20
12.2855
 11
-16.6075
 21
12.467
  0
LINE
  8
0
 10
-16.6075
 20
12.467
 11
-16.9123
 21
12.6884
  0
LINE
  8
0
 10
-16.9123
 20
12.6884
 11
-17.1869
 21
12.9464
  0
LINE
  8
0
 10
-17.1869
 20
12.9464
 11
-17.427
 21
13.2366
  0
LINE
  8
0
 10
-17.427
 20
13.2366
 11
-17.6289
 21
13.5547
  0
LINE
  8
0
 10
-17.6289
 20
13.5547
 11
-17.7893
 21
13.8956
  0
LINE
  8
0
 10
-17.7893
 20
13.8956
 11
-17.9057
 21
14.2539
  0
LINE
  8
0
 10
-17.9057
 20
14.2539
 11
-17.9763
 21
14.624
  0
LINE
  8
0
 10
-17.9763
 20
14.624
 11
-18
 21
15
  0
LINE
  8
0
 10
-18
 20
15
 11
-17.9763
 21
15.376
  0
LINE
  8
0
 10
-17.9763
 20
15.376
 11
-17.9057
 21
15.7461
  0
LINE
  8
0
 10
-17.9057
 20
15.7461
 11
-17.7893
 21
16.1044
  0
LINE
  8
0
 10
-17.7893
 20
16.1044
 11
-17.6289
 21
16.4453
  0
LINE
  8
0
 10
-17.6289
 20
16.4453
 11
-17.427
 21
16.7634
  0
LINE
  8
0
 10
-17.427
 20
16.7634
 11
-17.1869
 21
17.0536
  0
LINE
  8
0
 10
-17.1869
 20
17.0536
 11
-16.9123
 21
17.3115
  0
LINE
  8
0
 10
-16.9123
 20
17.3115
 11
-16.6075
 21
17.533
  0
LINE
  8
0
 10
-16.6075
 20
17.533
 11
-16.2773
 21
17.7145
  0
LINE
  8
0
 10
-16.2773
 20
17.7145
 11
-15.927
 21
17.8532
  0
LINE
  8
0
 10
-15.927
 20
17.8532
 11
-15.5621
 21
17.9469
  0
LINE
  8
0
 10
-15.5621
 20
17.9469
 11
-15.1884
 21
17.9941
  0
LINE
  8
0
 10
-15.1884
 20
17.9941
 11
-14.8116
 21
17.9941
  0
LINE
  8
0
 10
-14.8116
 20
17.9941
 11
-14.4379
 21
17.9469
  0
LINE
  8
0
 10
-14.4379
 20
17.9469
 11
-14.0729
 21
17.8532
  0
LINE
  8
0
 10
-14.0729
 20
17.8532
 11
-13.7227
 21
17.7145
  0
LINE
  8
0
 10
-13.7227
 20
17.7145
 11
-13.3925
 21
17.533
  0
LINE
  8
0
 10
-13.3925
 20
17.533
 11
-13.0877
 21
17.3115
  0
LINE
  8
0
 10
-13.0877
 20
17.3115
 11
-12.8131
 21
17.0536
  0
LINE
  8
0
 10
-12.8131
 20
17.0536
 11
-12.5729
 21
16.7634
  0
LINE
  8
0
 10
-12.5729
 20
16.7634
 11
-12.3711
 21
16.4453
  0
LINE
  8
0
 10
-12.3711
 20
16.4453
 11
-12.2107
 21
16.1044
  0
LINE
  8
0
 10
-12.2107
 20
16.1044
 11
-12.0942
 21
15.7461
  0
LINE
  8
0
 10
-12.0942
 20
15.7461
 11
-12.0237
 21
15.376
  0
LINE
  8
0
 10
-12.0237
 20
15.376
 11
-12
 21
15
  0
LINE
  8
0
 10
-12
 20
15
 11
-12.0237
 21
14.624
  0
LINE
  8
0
 10
-12.0237
 20
14.624
 11
-12.0942
 21
14.2539
  0
LINE
  8
0
 10
-12.0942
 20
14.2539
 11
-12.2107
 21
13.8956
  0
LINE
  8
0
 10
-12.2107
 20
13.8956
 11
-12.3711
 21
13.5547
  0
LINE
  8
0
 10
-12.3711
 20
13.5547
 11
-12.5729
 21
13.2366
  0
LINE
  8
0
 10
-12.5729
 20
13.2366
 11
-12.8131
 21
12.9464
  0
LINE
  8
0
 10
-12.8131
 20
12.9464
 11
-13.0877
 21
12.6884
  0
LINE
  8
0
 10
-13.0877
 20
12.6884
 11
-13.3925
 21
12.467
  0
LINE
  8
0
 10
-13.3925
 20
12.467
 11
-13.7227
 21
12.2855
  0
LINE
  8
0
 10
-13.7227
 20
12.2855
 11
-14.0729
 21
12.1468
  0
LINE
  8
0
 10
-14.0729
 20
12.1468
 11
-14.4379
 21
12.0531
  0
LINE
  8
0
 10
-14.4379
 20
12.0531
 11
-14.8116
 21
12.0059
  0
LINE
  8
0
 10
-14.8116
 20
12.0059
 11
-15.1884
 21
12.0059
  0
LINE
  8
0
 10
-15.0942
 20
6.00294
 11
-15.2811
 21
6.02657
  0
LINE
  8
0
 10
-15.2811
 20
6.02657
 11
-15.4635
 21
6.07341
  0
LINE
  8
0
 10
-15.4635
 20
6.07341
 11
-15.6387
 21
6.14275
  0
LINE
  8
0
 10
-15.6387
 20
6.14275
 11
-15.8037
 21
6.23351
  0
LINE
  8
0
 10
-15.8037
 20
6.23351
 11
-15.9561
 21
6.34422
  0
LINE
  8
0
 10
-15.9561
 20
6.34422
 11
-16.0934
 21
6.47318
  0
LINE
  8
0
 10
-16.0934
 20
6.47318
 11
-16.2135
 21
6.61832
  0
LINE
  8
0
 10
-16.2135
 20
6.61832
 11
-16.3145
 21
6.77736
  0
LINE
  8
0
 10
-16.3145
 20
6.77736
 11
-16.3947
 21
6.9478
  0
LINE
  8
0
 10
-16.3947
 20
6.9478
 11
-16.4529
 21
7.12695
  0
LINE
  8
0
 10
-16.4529
 20
7.12695
 11
-16.4882
 21
7.312
  0
LINE
  8
0
 10
-16.4882
 20
7.312
 11
-16.5
 21
7.5
  0
LINE
  8
0
 10
-16.5
 20
7.5
 11
-16.4882
 21
7.68799
  0
LINE
  8
0
 10
-16.4882
 20
7.68799
 11
-16.4529
 21
7.87303
  0
LINE
  8
0
 10
-16.4529
 20
7.87303
 11
-16.3947
 21
8.05219
  0
LINE
  8
0
 10
-16.3947
 20
8.05219
 11
-16.3145
 21
8.22263
  0
LINE
  8
0
 10
-16.3145
 20
8.22263
 11
-16.2135
 21
8.38167
  0
LINE
  8
0
 10
-16.2135
 20
8.38167
 11
-16.0934
 21
8.52681
  0
LINE
  8
0
 10
-16.0934
 20
8.52681
 11
-15.9561
 21
8.65576
  0
LINE
  8
0
 10
-15.9561
 20
8.65576
 11
-15.8037
 21
8.76648
  0
LINE
  8
0
 10
-15.8037
 20
8.76648
 11
-15.6387
 21
8.85724
  0
LINE
  8
0
 10
-15.6387
 20
8.85724
 11
-15.4635
 21
8.92657
  0
LINE
  8
0
 10
-15.4635
 20
8.92657
 11
-15.2811
 21
8.97342
  0
LINE
  8
0
 10
-15.2811
 20
8.97342
 11
-15.0942
 21
8.99704
  0
LINE
  8
0
 10
-15.0942
 20
8.99704
 11
-14.9058
 21
8.99704
  0
LINE
  8
0
 10
-14.9058
 20
8.99704
 11
-14.7189
 21
8.97342
  0
LINE
  8
0
 10
-14.7189
 20
8.97342
 11
-14.5365
 21
8.92657
  0
LINE
  8
0
 10
-14.5365
 20
8.92657
 11
-14.3613
 21
8.85724
  0
LINE
  8
0
 10
-14.3613
 20
8.85724
 11
-14.1963
 21
8.76648
  0
LINE
  8
0
 10
-14.1963
 20
8.76648
 11
-14.0439
 21
8.65576
  0
LINE
  8
0
 10
-14.0439
 20
8.65576
 11
-13.9065
 21
8.52681
  0
LINE
  8
0
 10
-13.9065
 20
8.52681
 11
-13.7865
 21
8.38167
  0
LINE
  8
0
 10
-13.7865
 20
8.38167
 11
-13.6855
 21
8.22263
  0
LINE
  8
0
 10
-13.6855
 20
8.22263
 11
-13.6053
 21
8.05219
  0
LINE
  8
0
 10
-13.6053
 20
8.05219
 11
-13.5471
 21
7.87303
  0
LINE
  8
0
 10
-13.5471
 20
7.87303
 11
-13.5118
 21
7.68799
  0
LINE
  8
0
 10
-13.5118
 20
7.68799
 11
-13.5
 21
7.5
  0
LINE
  8
0
 10
-13.5
 20
7.5
 11
-13.5118
 21
7.312
  0
LINE
  8
0
 10
-13.5118
 20
7.312
 11
-13.5471
 21
7.12695
  0
LINE
  8
0
 10
-13.5471
 20
7.12695
 11
-13.6053
 21
6.9478
  0
LINE
  8
0
 10
-13.6053
 20
6.9478
 11
-13.6855
 21
6.77736
  0
LINE
  8
0
 10
-13.6855
 20
6.77736
 11
-13.7865
 21
6.61832
  0
LINE
  8
0
 10
-13.7865
 20
6.61832
 11
-13.9065
 21
6.47318
  0
LINE
  8
0
 10
-13.9065
 20
6.47318
 11
-14.0439
 21
6.34422
  0
LINE
  8
0
 10
-14.0439
 20
6.34422
 11
-14.1963
 21
6.23351
  0
LINE
  8
0
 10
-14.1963
 20
6.23351
 11
-14.3613
 21
6.14275
  0
LINE
  8
0
 10
-14.3613
 20
6.14275
 11
-14.5365
 21
6.07341
  0
LINE
  8
0
 10
-14.5365
 20
6.07341
 11
-14.7189
 21
6.02657
  0
LINE
  8
0
 10
-14.7189
 20
6.02657
 11
-14.9058
 21
6.00294
  0
LINE
  8
0
 10
-14.9058
 20
6.00294
 11
-15.0942
 21
6.00294
  0
LINE
  8
0
 10
-15.1884
 20
-2.99408
 11
-15.5621
 21
-2.94685
  0
LINE
  8
0
 10
-15.5621
 20
-2.94685
 11
-15.927
 21
-2.85316
  0
LINE
  8
0
 10
-15.927
 20
-2.85316
 11
-16.2773
 21
-2.71448
  0
LINE
  8
0
 10
-16.2773
 20
-2.71448
 11
-16.6075
 21
-2.53297
  0
LINE
  8
0
 10
-16.6075
 20
-2.53297
 11
-16.9123
 21
-2.31154
  0
LINE
  8
0
 10
-16.9123
 20
-2.31154
 11
-17.1869
 21
-2.05363
  0
LINE
  8
0
 10
-17.1869
 20
-2.05363
 11
-17.427
 21
-1.76335
  0
LINE
  8
0
 10
-17.427
 20
-1.76335
 11
-17.6289
 21
-1.44525
  0
LINE
  8
0
 10
-17.6289
 20
-1.44525
 11
-17.7893
 21
-1.10437
  0
LINE
  8
0
 10
-17.7893
 20
-1.10437
 11
-17.9057
 21
-0.746063
  0
LINE
  8
0
 10
-17.9057
 20
-0.746063
 11
-17.9763
 21
-0.375992
  0
LINE
  8
0
 10
-17.9763
 20
-0.375992
 11
-18
 21
0
  0
LINE
  8
0
 10
-18
 20
0
 11
-17.9763
 21
0.375992
  0
LINE
  8
0
 10
-17.9763
 20
0.375992
 11
-17.9057
 21
0.746063
  0
LINE
  8
0
 10
-17.9057
 20
0.746063
 11
-17.7893
 21
1.10437
  0
LINE
  8
0
 10
-17.7893
 20
1.10437
 11
-17.6289
 21
1.44525
  0
LINE
  8
0
 10
-17.6289
 20
1.44525
 11
-17.427
 21
1.76335
  0
LINE
  8
0
 10
-17.427
 20
1.76335
 11
-17.1869
 21
2.05363
  0
LINE
  8
0
 10
-17.1869
 20
2.05363
 11
-16.9123
 21
2.31154
  0
LINE
  8
0
 10
-16.9123
 20
2.31154
 11
-16.6075
 21
2.53297
  0
LINE
  8
0
 10
-16.6075
 20
2.53297
 11
-16.2773
 21
2.71448
  0
LINE
  8
0
 10
-16.2773
 20
2.71448
 11
-15.927
 21
2.85316
  0
LINE
  8
0
 10
-15.927
 20
2.85316
 11
-15.5621
 21
2.94685
  0
LINE
  8
0
 10
-15.5621
 20
2.94685
 11
-15.1884
 21
2.99408
  0
LINE
  8
0
 10
-15.1884
 20
2.99408
 11
-14.8116
 21
2.99408
  0
LINE
  8
0
 10
-14.8116
 20
2.99408
 11
-14.4379
 21
2.94685
  0
LINE
  8
0
 10
-14.4379
 20
2.94685
 11
-14.0729
 21
2.85316
  0
LINE
  8
0
 10
-14.0729
 20
2.85316
 11
-13.7227
 21
2.71448
  0
LINE
  8
0
 10
-13.7227
 20
2.71448
 11
-13.3925
 21
2.53297
  0
LINE
  8
0
 10
-13.3925
 20
2.53297
 11
-13.0877
 21
2.31154
  0
LINE
  8
0
 10
-13.0877
 20
2.31154
 11
-12.8131
 21
2.05363
  0
LINE
  8
0
 10
-12.8131
 20
2.05363
 11
-12.5729
 21
1.76335
  0
LINE
  8
0
 10
-12.5729
 20
1.76335
 11
-12.3711
 21
1.44525
  0
LINE
  8
0
 10
-12.3711
 20
1.44525
 11
-12.2107
 21
1.10437
  0
LINE
  8
0
 10
-12.2107
 20
1.10437
 11
-12.0942
 21
0.746063
  0
LINE
  8
0
 10
-12.0942
 20
0.746063
 11
-12.0237
 21
0.375992
  0
LINE
  8
0
 10
-12.0237
 20
0.375992
 11
-12
 21
0
  0
LINE
  8
0
 10
-12
 20
0
 11
-12.0237
 21
-0.375992
  0
LINE
  8
0
 10
-12.0237
 20
-0.375992
 11
-12.0942
 21
-0.746063
  0
LINE
  8
0
 10
-12.0942
 20
-0.746063
 11
-12.2107
 21
-1.10437
  0
LINE
  8
0
 10
-12.2107
 20
-1.10437
 11
-12.3711
 21
-1.44525
  0
LINE
  8
0
 10
-12.3711
 20
-1.44525
 11
-12.5729
 21
-1.76335
  0
LINE
  8
0
 10
-12.5729
 20
-1.76335
 11
-12.8131
 21
-2.05363
  0
LINE
  8
0
 10
-12.8131
 20
-2.05363
 11
-13.0877
 21
-2.31154
  0
LINE
  8
0
 10
-13.0877
 20
-2.31154
 11
-13.3925
 21
-2.53297
  0
LINE
  8
0
 10
-13.3925
 20
-2.53297
 11
-13.7227
 21
-2.71448
  0
LINE
  8
0
 10
-13.7227
 20
-2.71448
 11
-14.0729
 21
-2.85316
  0
LINE
  8
0
 10
-14.0729
 20
-2.85316
 11
-14.4379
 21
-2.94685
  0
LINE
  8
0
 10
-14.4379
 20
-2.94685
 11
-14.8116
 21
-2.99408
  0
LINE
  8
0
 10
-14.8116
 20
-2.99408
 11
-15.1884
 21
-2.99408
  0
LINE
  8
0
 10
-15.0942
 20
-8.99704
 11
-15.2811
 21
-8.97342
  0
LINE
  8
0
 10
-15.2811
 20
-8.97342
 11
-15.4635
 21
-8.92657
  0
LINE
  8
0
 10
-15.4635
 20
-8.92657
 11
-15.6387
 21
-8.85724
  0
LINE
  8
0
 10
-15.6387
 20
-8.85724
 11
-15.8037
 21
-8.76648
  0
LINE
  8
0
 10
-15.8037
 20
-8.76648
 11
-15.9561
 21
-8.65576
  0
LINE
  8
0
 10
-15.9561
 20
-8.65576
 11
-16.0934
 21
-8.52681
  0
LINE
  8
0
 10
-16.0934
 20
-8.52681
 11
-16.2135
 21
-8.38167
  0
LINE
  8
0
 10
-16.2135
 20
-8.38167
 11
-16.3145
 21
-8.22263
  0
LINE
  8
0
 10
-16.3145
 20
-8.22263
 11
-16.3947
 21
-8.05219
  0
LINE
  8
0
 10
-16.3947
 20
-8.05219
 11
-16.4529
 21
-7.87303
  0
LINE
  8
0
 10
-16.4529
 20
-7.87303
 11
-16.4882
 21
-7.68799
  0
LINE
  8
0
 10
-16.4882
 20
-7.68799
 11
-16.5
 21
-7.5
  0
LINE
  8
0
 10
-16.5
 20
-7.5
 11
-16.4882
 21
-7.312
  0
LINE
  8
0
 10
-16.4882
 20
-7.312
 11
-16.4529
 21
-7.12695
  0
LINE
  8
0
 10
-16.4529
 20
-7.12695
 11
-16.3947
 21
-6.9478
  0
LINE
  8
0
 10
-16.3947
 20
-6.9478
 11
-16.3145
 21
-6.77736
  0
LINE
  8
0
 10
-16.3145
 20
-6.77736
 11
-16.2135
 21
-6.61832
  0
LINE
  8
0
 10
-16.2135
 20
-6.61832
 11
-16.0934
 21
-6.47318
  0
LINE
  8
0
 10
-16.0934
 20
-6.47318
 11
-15.9561
 21
-6.34422
  0
LINE
  8
0
 10
-15.9561
 20
-6.34422
 11
-15.8037
 21
-6.23351
  0
LINE
  8
0
 10
-15.8037
 20
-6.23351
 11
-15.6387
 21
-6.14275
  0
LINE
  8
0
 10
-15.6387
 20
-6.14275
 11
-15.4635
 21
-6.07341
  0
LINE
  8
0
 10
-15.4635
 20
-6.07341
 11
-15.2811
 21
-6.02657
  0
LINE
  8
0
 10
-15.2811
 20
-6.02657
 11
-15.0942
 21
-6.00294
  0
LINE
  8
0
 10
-15.0942
 20
-6.00294
 11
-14.9058
 21
-6.00294
  0
LINE
  8
0
 10
-14.9058
 20
-6.00294
 11
-14.7189
 21
-6.02657
  0
LINE
  8
0
 10
-14.7189
 20
-6.02657
 11
-14.5365
 21
-6.07341
  0
LINE
  8
0
 10
-14.5365
 20
-6.07341
 11
-14.3613
 21
-6.14275
  0
LINE
  8
0
 10
-14.3613
 20
-6.14275
 11
-14.1963
 21
-6.23351
  0
LINE
  8
0
 10
-14.1963
 20
-6.23351
 11
-14.0439
 21
-6.34422
  0
LINE
  8
0
 10
-14.0439
 20
-6.34422
 11
-13.9065
 21
-6.47318
  0
LINE
  8
0
 10
-13.9065
 20
-6.47318
 11
-13.7865
 21
-6.61832
  0
LINE
  8
0
 10
-13.7865
 20
-6.61832
 11
-13.6855
 21
-6.77736
  0
LINE
  8
0
 10
-13.6855
 20
-6.77736
 11
-13.6053
 21
-6.9478
  0
LINE
  8
0
 10
-13.6053
 20
-6.9478
 11
-13.5471
 21
-7.12695
  0
LINE
  8
0
 10
-13.5471
 20
-7.12695
 11
-13.5118
 21
-7.312
  0
LINE
  8
0
 10
-13.5118
 20
-7.312
 11
-13.5
 21
-7.5
  0
LINE
  8
0
 10
-13.5
 20
-7.5
 11
-13.5118
 21
-7.68799
  0
LINE
  8
0
 10
-13.5118
 20
-7.68799
 11
-13.5471
 21
-7.87303
  0
LINE
  8
0
 10
-13.5471
 20
-7.87303
 11
-13.6053
 21
-8.05219
  0
LINE
  8
0
 10
-13.6053
 20
-8.05219
 11
-13.6855
 21
-8.22263
  0
LINE
  8
0
 10
-13.6855
 20
-8.22263
 11
-13.7865
 21
-8.38167
  0
LINE
  8
0
 10
-13.7865
 20
-8.38167
 11
-13.9065
 21
-8.52681
  0
LINE
  8
0
 10
-13.9065
 20
-8.52681
 11
-14.0439
 21
-8.65576
  0
LINE
  8
0
 10
-14.0439
 20
-8.65576
 11
-14.1963
 21
-8.76648
  0
LINE
  8
0
 10
-14.1963
 20
-8.76648
 11
-14.3613
 21
-8.85724
  0
LINE
  8
0
 10
-14.3613
 20
-8.85724
 11
-14.5365
 21
-8.92657
  0
LINE
  8
0
 10
-14.5365
 20
-8.92657
 11
-14.7189
 21
-8.97342
  0
LINE
  8
0
 10
-14.7189
 20
-8.97342
 11
-14.9058
 21
-8.99704
  0
LINE
  8
0
 10
-14.9058
 20
-8.99704
 11
-15.0942
 21
-8.99704
  0
LINE
  8
0
 10
-15.1884
 20
-17.9941
 11
-15.5621
 21
-17.9469
  0
LINE
  8
0
 10
-15.5621
 20
-17.9469
 11
-15.927
 21
-17.8532
  0
LINE
  8
0
 10
-15.927
 20
-17.8532
 11
-16.2773
 21
-17.7145
  0
LINE
  8
0
 10
-16.2773
 20
-17.7145
 11
-16.6075
 21
-17.533
  0
LINE
  8
0
 10
-16.6075
 20
-17.533
 11
-16.9123
 21
-17.3115
  0
LINE
  8
0
 10
-16.9123
 20
-17.3115
 11
-17.1869
 21
-17.0536
  0
LINE
  8
0
 10
-17.1869
 20
-17.0536
 11
-17.427
 21
-16.7634
  0
LINE
  8
0
 10
-17.427
 20
-16.7634
 11
-17.6289
 21
-16.4453
  0
LINE
  8
0
 10
-17.6289
 20
-16.4453
 11
-17.7893
 21
-16.1044
  0
LINE
  8
0
 10
-17.7893
 20
-16.1044
 11
-17.9057
 21
-15.7461
  0
LINE
  8
0
 10
-17.9057
 20
-15.7461
 11
-17.9763
 21
-15.376
  0
LINE
  8
0
 10
-17.9763
 20
-15.376
 11
-18
 21
-15
  0
LINE
  8
0
 10
-18
 20
-15
 11
-17.9763
 21
-14.624
  0
LINE
  8
0
 10
-17.9763
 20
-14.624
 11
-17.9057
 21
-14.2539
  0
LINE
  8
0
 10
-17.9057
 20
-14.2539
 11
-17.7893
 21
-13.8956
  0
LINE
  8
0
 10
-17.7893
 20
-13.8956
 11
-17.6289
 21
-13.5547
  0
LINE
  8
0
 10
-17.6289
 20
-13.5547
 11
-17.427
 21
-13.2366
  0
LINE
  8
0
 10
-17.427
 20
-13.2366
 11
-17.1869
 21
-12.9464
  0
LINE
  8
0
 10
-17.1869
 20
-12.9464
 11
-16.9123
 21
-12.6884
  0
LINE
  8
0
 10
-16.9123
 20
-12.6884
 11
-16.6075
 21
-12.467
  0
LINE
  8
0
 10
-16.6075
 20
-12.467
 11
-16.2773
 21
-12.2855
  0
LINE
  8
0
 10
-16.2773
 20
-12.2855
 11
-15.927
 21
-12.1468
  0
LINE
  8
0
 10
-15.927
 20
-12.1468
 11
-15.5621
 21
-12.0531
  0
LINE
  8
0
 10
-15.5621
 20
-12.0531
 11
-15.1884
 21
-12.0059
  0
LINE
  8
0
 10
-15.1884
 20
-12.0059
 11
-14.8116
 21
-12.0059
  0
LINE
  8
0
 10
-14.8116
 20
-12.0059
 11
-14.4379
 21
-12.0531
  0
LINE
  8
0
 10
-14.4379
 20
-12.0531
 11
-14.0729
 21
-12.1468
  0
LINE
  8
0
 10
-14.0729
 20
-12.1468
 11
-13.7227
 21
-12.2855
  0
LINE
  8
0
 10
-13.7227
 20
-12.2855
 11
-13.3925
 21
-12.467
  0
LINE
  8
0
 10
-13.3925
 20
-12.467
 11
-13.0877
 21
-12.6884
  0
LINE
  8
0
 10
-13.0877
 20
-12.6884
 11
-12.8131
 21
-12.9464
  0
LINE
  8
0
 10
-12.8131
 20
-12.9464
 11
-12.5729
 21
-13.2366
  0
LINE
  8
0
 10
-12.5729
 20
-13.2366
 11
-12.3711
 21
-13.5547
  0
LINE
  8
0
 10
-12.3711
 20
-13.5547
 11
-12.2107
 21
-13.8956
  0
LINE
  8
0
 10
-12.2107
 20
-13.8956
 11
-12.0942
 21
-14.2539
  0
LINE
  8
0
 10
-12.0942
 20
-14.2539
 11
-12.0237
 21
-14.624
  0
LINE
  8
0
 10
-12.0237
 20
-14.624
 11
-12
 21
-15
  0
LINE
  8
0
 10
-12
 20
-15
 11
-12.0237
 21
-15.376
  0
LINE
  8
0
 10
-12.0237
 20
-15.376
 11
-12.0942
 21
-15.7461
  0
LINE
  8
0
 10
-12.0942
 20
-15.7461
 11
-12.2107
 21
-16.1044
  0
LINE
  8
0
 10
-12.2107
 20
-16.1044
 11
-12.3711
 21
-16.4453
  0
LINE
  8
0
 10
-12.3711
 20
-16.4453
 11
-12.5729
 21
-16.7634
  0
LINE
  8
0
 10
-12.5729
 20
-16.7634
 11
-12.8131
 21
-17.0536
  0
LINE
  8
0
 10
-12.8131
 20
-17.0536
 11
-13.0877
 21
-17.3115
  0
LINE
  8
0
 10
-13.0877
 20
-17.3115
 11
-13.3925
 21
-17.533
  0
LINE
  8
0
 10
-13.3925
 20
-17.533
 11
-13.7227
 21
-17.7145
  0
LINE
  8
0
 10
-13.7227
 20
-17.7145
 11
-14.0729
 21
-17.8532
  0
LINE
  8
0
 10
-14.0729
 20
-17.8532
 11
-14.4379
 21
-17.9469
  0
LINE
  8
0
 10
-14.4379
 20
-17.9469
 11
-14.8116
 21
-17.9941
  0
LINE
  8
0
 10
-14.8116
 20
-17.9941
 11
-15.1884
 21
-17.9941
  0
ENDSEC
  0
SECTION
  2
OBJECTS
  0
DICTIONARY
  0
ENDSEC
  0
EOF
