  0
SECTION
  2
BLOCKS
  0
ENDSEC
  0
SECTION
  2
ENTITIES
  0
LINE
  8
0
 10
160.437
 20
-21.9114
 11
161.045
 21
-21.7553
  0
LINE
  8
0
 10
161.045
 20
-21.7553
 11
161.629
 21
-21.5241
  0
LINE
  8
0
 10
161.629
 20
-21.5241
 11
162.179
 21
-21.2216
  0
LINE
  8
0
 10
162.179
 20
-21.2216
 11
162.687
 21
-20.8526
  0
LINE
  8
0
 10
162.687
 20
-20.8526
 11
163.145
 21
-20.4227
  0
LINE
  8
0
 10
163.145
 20
-20.4227
 11
163.545
 21
-19.9389
  0
LINE
  8
0
 10
163.545
 20
-19.9389
 11
163.882
 21
-19.4088
  0
LINE
  8
0
 10
163.882
 20
-19.4088
 11
164.149
 21
-18.8406
  0
LINE
  8
0
 10
164.149
 20
-18.8406
 11
164.343
 21
-18.2434
  0
LINE
  8
0
 10
164.343
 20
-18.2434
 11
164.461
 21
-17.6267
  0
LINE
  8
0
 10
164.461
 20
-17.6267
 11
164.5
 21
-17
  0
LINE
  8
0
 10
164.5
 20
-17
 11
164.5
 21
17
  0
LINE
  8
0
 10
164.5
 20
17
 11
164.461
 21
17.6267
  0
LINE
  8
0
 10
164.461
 20
17.6267
 11
164.343
 21
18.2434
  0
LINE
  8
0
 10
164.343
 20
18.2434
 11
164.149
 21
18.8406
  0
LINE
  8
0
 10
164.149
 20
18.8406
 11
163.882
 21
19.4088
  0
LINE
  8
0
 10
163.882
 20
19.4088
 11
163.545
 21
19.9389
  0
LINE
  8
0
 10
163.545
 20
19.9389
 11
163.145
 21
20.4227
  0
LINE
  8
0
 10
163.145
 20
20.4227
 11
162.687
 21
20.8526
  0
LINE
  8
0
 10
162.687
 20
20.8526
 11
162.179
 21
21.2216
  0
LINE
  8
0
 10
162.179
 20
21.2216
 11
161.629
 21
21.5241
  0
LINE
  8
0
 10
161.629
 20
21.5241
 11
161.045
 21
21.7553
  0
LINE
  8
0
 10
161.045
 20
21.7553
 11
160.437
 21
21.9114
  0
LINE
  8
0
 10
160.437
 20
21.9114
 11
159.814
 21
21.9901
  0
LINE
  8
0
 10
159.814
 20
21.9901
 11
-159.814
 21
21.9901
  0
LINE
  8
0
 10
-159.814
 20
21.9901
 11
-160.437
 21
21.9114
  0
LINE
  8
0
 10
-160.437
 20
21.9114
 11
-161.045
 21
21.7553
  0
LINE
  8
0
 10
-161.045
 20
21.7553
 11
-161.629
 21
21.5241
  0
LINE
  8
0
 10
-161.629
 20
21.5241
 11
-162.179
 21
21.2216
  0
LINE
  8
0
 10
-162.179
 20
21.2216
 11
-162.687
 21
20.8526
  0
LINE
  8
0
 10
-162.687
 20
20.8526
 11
-163.145
 21
20.4227
  0
LINE
  8
0
 10
-163.145
 20
20.4227
 11
-163.545
 21
19.9389
  0
LINE
  8
0
 10
-163.545
 20
19.9389
 11
-163.882
 21
19.4088
  0
LINE
  8
0
 10
-163.882
 20
19.4088
 11
-164.149
 21
18.8406
  0
LINE
  8
0
 10
-164.149
 20
18.8406
 11
-164.343
 21
18.2434
  0
LINE
  8
0
 10
-164.343
 20
18.2434
 11
-164.461
 21
17.6267
  0
LINE
  8
0
 10
-164.461
 20
17.6267
 11
-164.5
 21
17
  0
LINE
  8
0
 10
-164.5
 20
17
 11
-164.5
 21
-17
  0
LINE
  8
0
 10
-164.5
 20
-17
 11
-164.461
 21
-17.6267
  0
LINE
  8
0
 10
-164.461
 20
-17.6267
 11
-164.343
 21
-18.2434
  0
LINE
  8
0
 10
-164.343
 20
-18.2434
 11
-164.149
 21
-18.8406
  0
LINE
  8
0
 10
-164.149
 20
-18.8406
 11
-163.882
 21
-19.4088
  0
LINE
  8
0
 10
-163.882
 20
-19.4088
 11
-163.545
 21
-19.9389
  0
LINE
  8
0
 10
-163.545
 20
-19.9389
 11
-163.145
 21
-20.4227
  0
LINE
  8
0
 10
-163.145
 20
-20.4227
 11
-162.687
 21
-20.8526
  0
LINE
  8
0
 10
-162.687
 20
-20.8526
 11
-162.179
 21
-21.2216
  0
LINE
  8
0
 10
-162.179
 20
-21.2216
 11
-161.629
 21
-21.5241
  0
LINE
  8
0
 10
-161.629
 20
-21.5241
 11
-161.045
 21
-21.7553
  0
LINE
  8
0
 10
-161.045
 20
-21.7553
 11
-160.437
 21
-21.9114
  0
LINE
  8
0
 10
-160.437
 20
-21.9114
 11
-159.814
 21
-21.9901
  0
LINE
  8
0
 10
-159.814
 20
-21.9901
 11
159.814
 21
-21.9901
  0
LINE
  8
0
 10
159.814
 20
-21.9901
 11
160.437
 21
-21.9114
  0
LINE
  8
0
 10
157.312
 20
12.0059
 11
156.938
 21
12.0531
  0
LINE
  8
0
 10
156.938
 20
12.0531
 11
156.573
 21
12.1468
  0
LINE
  8
0
 10
156.573
 20
12.1468
 11
156.223
 21
12.2855
  0
LINE
  8
0
 10
156.223
 20
12.2855
 11
155.893
 21
12.467
  0
LINE
  8
0
 10
155.893
 20
12.467
 11
155.588
 21
12.6884
  0
LINE
  8
0
 10
155.588
 20
12.6884
 11
155.313
 21
12.9464
  0
LINE
  8
0
 10
155.313
 20
12.9464
 11
155.073
 21
13.2366
  0
LINE
  8
0
 10
155.073
 20
13.2366
 11
154.871
 21
13.5547
  0
LINE
  8
0
 10
154.871
 20
13.5547
 11
154.711
 21
13.8956
  0
LINE
  8
0
 10
154.711
 20
13.8956
 11
154.594
 21
14.2539
  0
LINE
  8
0
 10
154.594
 20
14.2539
 11
154.524
 21
14.624
  0
LINE
  8
0
 10
154.524
 20
14.624
 11
154.5
 21
15
  0
LINE
  8
0
 10
154.5
 20
15
 11
154.524
 21
15.376
  0
LINE
  8
0
 10
154.524
 20
15.376
 11
154.594
 21
15.7461
  0
LINE
  8
0
 10
154.594
 20
15.7461
 11
154.711
 21
16.1044
  0
LINE
  8
0
 10
154.711
 20
16.1044
 11
154.871
 21
16.4453
  0
LINE
  8
0
 10
154.871
 20
16.4453
 11
155.073
 21
16.7634
  0
LINE
  8
0
 10
155.073
 20
16.7634
 11
155.313
 21
17.0536
  0
LINE
  8
0
 10
155.313
 20
17.0536
 11
155.588
 21
17.3115
  0
LINE
  8
0
 10
155.588
 20
17.3115
 11
155.893
 21
17.533
  0
LINE
  8
0
 10
155.893
 20
17.533
 11
156.223
 21
17.7145
  0
LINE
  8
0
 10
156.223
 20
17.7145
 11
156.573
 21
17.8532
  0
LINE
  8
0
 10
156.573
 20
17.8532
 11
156.938
 21
17.9469
  0
LINE
  8
0
 10
156.938
 20
17.9469
 11
157.312
 21
17.9941
  0
LINE
  8
0
 10
157.312
 20
17.9941
 11
157.688
 21
17.9941
  0
LINE
  8
0
 10
157.688
 20
17.9941
 11
158.062
 21
17.9469
  0
LINE
  8
0
 10
158.062
 20
17.9469
 11
158.427
 21
17.8532
  0
LINE
  8
0
 10
158.427
 20
17.8532
 11
158.777
 21
17.7145
  0
LINE
  8
0
 10
158.777
 20
17.7145
 11
159.107
 21
17.533
  0
LINE
  8
0
 10
159.107
 20
17.533
 11
159.412
 21
17.3115
  0
LINE
  8
0
 10
159.412
 20
17.3115
 11
159.687
 21
17.0536
  0
LINE
  8
0
 10
159.687
 20
17.0536
 11
159.927
 21
16.7634
  0
LINE
  8
0
 10
159.927
 20
16.7634
 11
160.129
 21
16.4453
  0
LINE
  8
0
 10
160.129
 20
16.4453
 11
160.289
 21
16.1044
  0
LINE
  8
0
 10
160.289
 20
16.1044
 11
160.406
 21
15.7461
  0
LINE
  8
0
 10
160.406
 20
15.7461
 11
160.476
 21
15.376
  0
LINE
  8
0
 10
160.476
 20
15.376
 11
160.5
 21
15
  0
LINE
  8
0
 10
160.5
 20
15
 11
160.476
 21
14.624
  0
LINE
  8
0
 10
160.476
 20
14.624
 11
160.406
 21
14.2539
  0
LINE
  8
0
 10
160.406
 20
14.2539
 11
160.289
 21
13.8956
  0
LINE
  8
0
 10
160.289
 20
13.8956
 11
160.129
 21
13.5547
  0
LINE
  8
0
 10
160.129
 20
13.5547
 11
159.927
 21
13.2366
  0
LINE
  8
0
 10
159.927
 20
13.2366
 11
159.687
 21
12.9464
  0
LINE
  8
0
 10
159.687
 20
12.9464
 11
159.412
 21
12.6884
  0
LINE
  8
0
 10
159.412
 20
12.6884
 11
159.107
 21
12.467
  0
LINE
  8
0
 10
159.107
 20
12.467
 11
158.777
 21
12.2855
  0
LINE
  8
0
 10
158.777
 20
12.2855
 11
158.427
 21
12.1468
  0
LINE
  8
0
 10
158.427
 20
12.1468
 11
158.062
 21
12.0531
  0
LINE
  8
0
 10
158.062
 20
12.0531
 11
157.688
 21
12.0059
  0
LINE
  8
0
 10
157.688
 20
12.0059
 11
157.312
 21
12.0059
  0
LINE
  8
0
 10
-157.688
 20
12.0059
 11
-158.062
 21
12.0531
  0
LINE
  8
0
 10
-158.062
 20
12.0531
 11
-158.427
 21
12.1468
  0
LINE
  8
0
 10
-158.427
 20
12.1468
 11
-158.777
 21
12.2855
  0
LINE
  8
0
 10
-158.777
 20
12.2855
 11
-159.107
 21
12.467
  0
LINE
  8
0
 10
-159.107
 20
12.467
 11
-159.412
 21
12.6884
  0
LINE
  8
0
 10
-159.412
 20
12.6884
 11
-159.687
 21
12.9464
  0
LINE
  8
0
 10
-159.687
 20
12.9464
 11
-159.927
 21
13.2366
  0
LINE
  8
0
 10
-159.927
 20
13.2366
 11
-160.129
 21
13.5547
  0
LINE
  8
0
 10
-160.129
 20
13.5547
 11
-160.289
 21
13.8956
  0
LINE
  8
0
 10
-160.289
 20
13.8956
 11
-160.406
 21
14.2539
  0
LINE
  8
0
 10
-160.406
 20
14.2539
 11
-160.476
 21
14.624
  0
LINE
  8
0
 10
-160.476
 20
14.624
 11
-160.5
 21
15
  0
LINE
  8
0
 10
-160.5
 20
15
 11
-160.476
 21
15.376
  0
LINE
  8
0
 10
-160.476
 20
15.376
 11
-160.406
 21
15.7461
  0
LINE
  8
0
 10
-160.406
 20
15.7461
 11
-160.289
 21
16.1044
  0
LINE
  8
0
 10
-160.289
 20
16.1044
 11
-160.129
 21
16.4453
  0
LINE
  8
0
 10
-160.129
 20
16.4453
 11
-159.927
 21
16.7634
  0
LINE
  8
0
 10
-159.927
 20
16.7634
 11
-159.687
 21
17.0536
  0
LINE
  8
0
 10
-159.687
 20
17.0536
 11
-159.412
 21
17.3115
  0
LINE
  8
0
 10
-159.412
 20
17.3115
 11
-159.107
 21
17.533
  0
LINE
  8
0
 10
-159.107
 20
17.533
 11
-158.777
 21
17.7145
  0
LINE
  8
0
 10
-158.777
 20
17.7145
 11
-158.427
 21
17.8532
  0
LINE
  8
0
 10
-158.427
 20
17.8532
 11
-158.062
 21
17.9469
  0
LINE
  8
0
 10
-158.062
 20
17.9469
 11
-157.688
 21
17.9941
  0
LINE
  8
0
 10
-157.688
 20
17.9941
 11
-157.312
 21
17.9941
  0
LINE
  8
0
 10
-157.312
 20
17.9941
 11
-156.938
 21
17.9469
  0
LINE
  8
0
 10
-156.938
 20
17.9469
 11
-156.573
 21
17.8532
  0
LINE
  8
0
 10
-156.573
 20
17.8532
 11
-156.223
 21
17.7145
  0
LINE
  8
0
 10
-156.223
 20
17.7145
 11
-155.893
 21
17.533
  0
LINE
  8
0
 10
-155.893
 20
17.533
 11
-155.588
 21
17.3115
  0
LINE
  8
0
 10
-155.588
 20
17.3115
 11
-155.313
 21
17.0536
  0
LINE
  8
0
 10
-155.313
 20
17.0536
 11
-155.073
 21
16.7634
  0
LINE
  8
0
 10
-155.073
 20
16.7634
 11
-154.871
 21
16.4453
  0
LINE
  8
0
 10
-154.871
 20
16.4453
 11
-154.711
 21
16.1044
  0
LINE
  8
0
 10
-154.711
 20
16.1044
 11
-154.594
 21
15.7461
  0
LINE
  8
0
 10
-154.594
 20
15.7461
 11
-154.524
 21
15.376
  0
LINE
  8
0
 10
-154.524
 20
15.376
 11
-154.5
 21
15
  0
LINE
  8
0
 10
-154.5
 20
15
 11
-154.524
 21
14.624
  0
LINE
  8
0
 10
-154.524
 20
14.624
 11
-154.594
 21
14.2539
  0
LINE
  8
0
 10
-154.594
 20
14.2539
 11
-154.711
 21
13.8956
  0
LINE
  8
0
 10
-154.711
 20
13.8956
 11
-154.871
 21
13.5547
  0
LINE
  8
0
 10
-154.871
 20
13.5547
 11
-155.073
 21
13.2366
  0
LINE
  8
0
 10
-155.073
 20
13.2366
 11
-155.313
 21
12.9464
  0
LINE
  8
0
 10
-155.313
 20
12.9464
 11
-155.588
 21
12.6884
  0
LINE
  8
0
 10
-155.588
 20
12.6884
 11
-155.893
 21
12.467
  0
LINE
  8
0
 10
-155.893
 20
12.467
 11
-156.223
 21
12.2855
  0
LINE
  8
0
 10
-156.223
 20
12.2855
 11
-156.573
 21
12.1468
  0
LINE
  8
0
 10
-156.573
 20
12.1468
 11
-156.938
 21
12.0531
  0
LINE
  8
0
 10
-156.938
 20
12.0531
 11
-157.312
 21
12.0059
  0
LINE
  8
0
 10
-157.312
 20
12.0059
 11
-157.688
 21
12.0059
  0
LINE
  8
0
 10
-157.594
 20
6.00294
 11
-157.781
 21
6.02657
  0
LINE
  8
0
 10
-157.781
 20
6.02657
 11
-157.964
 21
6.07341
  0
LINE
  8
0
 10
-157.964
 20
6.07341
 11
-158.139
 21
6.14275
  0
LINE
  8
0
 10
-158.139
 20
6.14275
 11
-158.304
 21
6.23351
  0
LINE
  8
0
 10
-158.304
 20
6.23351
 11
-158.456
 21
6.34422
  0
LINE
  8
0
 10
-158.456
 20
6.34422
 11
-158.593
 21
6.47318
  0
LINE
  8
0
 10
-158.593
 20
6.47318
 11
-158.714
 21
6.61832
  0
LINE
  8
0
 10
-158.714
 20
6.61832
 11
-158.814
 21
6.77736
  0
LINE
  8
0
 10
-158.814
 20
6.77736
 11
-158.895
 21
6.9478
  0
LINE
  8
0
 10
-158.895
 20
6.9478
 11
-158.953
 21
7.12695
  0
LINE
  8
0
 10
-158.953
 20
7.12695
 11
-158.988
 21
7.312
  0
LINE
  8
0
 10
-158.988
 20
7.312
 11
-159
 21
7.5
  0
LINE
  8
0
 10
-159
 20
7.5
 11
-158.988
 21
7.68799
  0
LINE
  8
0
 10
-158.988
 20
7.68799
 11
-158.953
 21
7.87303
  0
LINE
  8
0
 10
-158.953
 20
7.87303
 11
-158.895
 21
8.05219
  0
LINE
  8
0
 10
-158.895
 20
8.05219
 11
-158.814
 21
8.22263
  0
LINE
  8
0
 10
-158.814
 20
8.22263
 11
-158.714
 21
8.38167
  0
LINE
  8
0
 10
-158.714
 20
8.38167
 11
-158.593
 21
8.52681
  0
LINE
  8
0
 10
-158.593
 20
8.52681
 11
-158.456
 21
8.65576
  0
LINE
  8
0
 10
-158.456
 20
8.65576
 11
-158.304
 21
8.76648
  0
LINE
  8
0
 10
-158.304
 20
8.76648
 11
-158.139
 21
8.85724
  0
LINE
  8
0
 10
-158.139
 20
8.85724
 11
-157.964
 21
8.92657
  0
LINE
  8
0
 10
-157.964
 20
8.92657
 11
-157.781
 21
8.97342
  0
LINE
  8
0
 10
-157.781
 20
8.97342
 11
-157.594
 21
8.99704
  0
LINE
  8
0
 10
-157.594
 20
8.99704
 11
-157.406
 21
8.99704
  0
LINE
  8
0
 10
-157.406
 20
8.99704
 11
-157.219
 21
8.97342
  0
LINE
  8
0
 10
-157.219
 20
8.97342
 11
-157.036
 21
8.92657
  0
LINE
  8
0
 10
-157.036
 20
8.92657
 11
-156.861
 21
8.85724
  0
LINE
  8
0
 10
-156.861
 20
8.85724
 11
-156.696
 21
8.76648
  0
LINE
  8
0
 10
-156.696
 20
8.76648
 11
-156.544
 21
8.65576
  0
LINE
  8
0
 10
-156.544
 20
8.65576
 11
-156.407
 21
8.52681
  0
LINE
  8
0
 10
-156.407
 20
8.52681
 11
-156.286
 21
8.38167
  0
LINE
  8
0
 10
-156.286
 20
8.38167
 11
-156.186
 21
8.22263
  0
LINE
  8
0
 10
-156.186
 20
8.22263
 11
-156.105
 21
8.05219
  0
LINE
  8
0
 10
-156.105
 20
8.05219
 11
-156.047
 21
7.87303
  0
LINE
  8
0
 10
-156.047
 20
7.87303
 11
-156.012
 21
7.68799
  0
LINE
  8
0
 10
-156.012
 20
7.68799
 11
-156
 21
7.5
  0
LINE
  8
0
 10
-156
 20
7.5
 11
-156.012
 21
7.312
  0
LINE
  8
0
 10
-156.012
 20
7.312
 11
-156.047
 21
7.12695
  0
LINE
  8
0
 10
-156.047
 20
7.12695
 11
-156.105
 21
6.9478
  0
LINE
  8
0
 10
-156.105
 20
6.9478
 11
-156.186
 21
6.77736
  0
LINE
  8
0
 10
-156.186
 20
6.77736
 11
-156.286
 21
6.61832
  0
LINE
  8
0
 10
-156.286
 20
6.61832
 11
-156.407
 21
6.47318
  0
LINE
  8
0
 10
-156.407
 20
6.47318
 11
-156.544
 21
6.34422
  0
LINE
  8
0
 10
-156.544
 20
6.34422
 11
-156.696
 21
6.23351
  0
LINE
  8
0
 10
-156.696
 20
6.23351
 11
-156.861
 21
6.14275
  0
LINE
  8
0
 10
-156.861
 20
6.14275
 11
-157.036
 21
6.07341
  0
LINE
  8
0
 10
-157.036
 20
6.07341
 11
-157.219
 21
6.02657
  0
LINE
  8
0
 10
-157.219
 20
6.02657
 11
-157.406
 21
6.00294
  0
LINE
  8
0
 10
-157.406
 20
6.00294
 11
-157.594
 21
6.00294
  0
LINE
  8
0
 10
157.406
 20
6.00294
 11
157.219
 21
6.02657
  0
LINE
  8
0
 10
157.219
 20
6.02657
 11
157.036
 21
6.07341
  0
LINE
  8
0
 10
157.036
 20
6.07341
 11
156.861
 21
6.14275
  0
LINE
  8
0
 10
156.861
 20
6.14275
 11
156.696
 21
6.23351
  0
LINE
  8
0
 10
156.696
 20
6.23351
 11
156.544
 21
6.34422
  0
LINE
  8
0
 10
156.544
 20
6.34422
 11
156.407
 21
6.47318
  0
LINE
  8
0
 10
156.407
 20
6.47318
 11
156.286
 21
6.61832
  0
LINE
  8
0
 10
156.286
 20
6.61832
 11
156.186
 21
6.77736
  0
LINE
  8
0
 10
156.186
 20
6.77736
 11
156.105
 21
6.9478
  0
LINE
  8
0
 10
156.105
 20
6.9478
 11
156.047
 21
7.12695
  0
LINE
  8
0
 10
156.047
 20
7.12695
 11
156.012
 21
7.312
  0
LINE
  8
0
 10
156.012
 20
7.312
 11
156
 21
7.5
  0
LINE
  8
0
 10
156
 20
7.5
 11
156.012
 21
7.68799
  0
LINE
  8
0
 10
156.012
 20
7.68799
 11
156.047
 21
7.87303
  0
LINE
  8
0
 10
156.047
 20
7.87303
 11
156.105
 21
8.05219
  0
LINE
  8
0
 10
156.105
 20
8.05219
 11
156.186
 21
8.22263
  0
LINE
  8
0
 10
156.186
 20
8.22263
 11
156.286
 21
8.38167
  0
LINE
  8
0
 10
156.286
 20
8.38167
 11
156.407
 21
8.52681
  0
LINE
  8
0
 10
156.407
 20
8.52681
 11
156.544
 21
8.65576
  0
LINE
  8
0
 10
156.544
 20
8.65576
 11
156.696
 21
8.76648
  0
LINE
  8
0
 10
156.696
 20
8.76648
 11
156.861
 21
8.85724
  0
LINE
  8
0
 10
156.861
 20
8.85724
 11
157.036
 21
8.92657
  0
LINE
  8
0
 10
157.036
 20
8.92657
 11
157.219
 21
8.97342
  0
LINE
  8
0
 10
157.219
 20
8.97342
 11
157.406
 21
8.99704
  0
LINE
  8
0
 10
157.406
 20
8.99704
 11
157.594
 21
8.99704
  0
LINE
  8
0
 10
157.594
 20
8.99704
 11
157.781
 21
8.97342
  0
LINE
  8
0
 10
157.781
 20
8.97342
 11
157.964
 21
8.92657
  0
LINE
  8
0
 10
157.964
 20
8.92657
 11
158.139
 21
8.85724
  0
LINE
  8
0
 10
158.139
 20
8.85724
 11
158.304
 21
8.76648
  0
LINE
  8
0
 10
158.304
 20
8.76648
 11
158.456
 21
8.65576
  0
LINE
  8
0
 10
158.456
 20
8.65576
 11
158.593
 21
8.52681
  0
LINE
  8
0
 10
158.593
 20
8.52681
 11
158.714
 21
8.38167
  0
LINE
  8
0
 10
158.714
 20
8.38167
 11
158.814
 21
8.22263
  0
LINE
  8
0
 10
158.814
 20
8.22263
 11
158.895
 21
8.05219
  0
LINE
  8
0
 10
158.895
 20
8.05219
 11
158.953
 21
7.87303
  0
LINE
  8
0
 10
158.953
 20
7.87303
 11
158.988
 21
7.68799
  0
LINE
  8
0
 10
158.988
 20
7.68799
 11
159
 21
7.5
  0
LINE
  8
0
 10
159
 20
7.5
 11
158.988
 21
7.312
  0
LINE
  8
0
 10
158.988
 20
7.312
 11
158.953
 21
7.12695
  0
LINE
  8
0
 10
158.953
 20
7.12695
 11
158.895
 21
6.9478
  0
LINE
  8
0
 10
158.895
 20
6.9478
 11
158.814
 21
6.77736
  0
LINE
  8
0
 10
158.814
 20
6.77736
 11
158.714
 21
6.61832
  0
LINE
  8
0
 10
158.714
 20
6.61832
 11
158.593
 21
6.47318
  0
LINE
  8
0
 10
158.593
 20
6.47318
 11
158.456
 21
6.34422
  0
LINE
  8
0
 10
158.456
 20
6.34422
 11
158.304
 21
6.23351
  0
LINE
  8
0
 10
158.304
 20
6.23351
 11
158.139
 21
6.14275
  0
LINE
  8
0
 10
158.139
 20
6.14275
 11
157.964
 21
6.07341
  0
LINE
  8
0
 10
157.964
 20
6.07341
 11
157.781
 21
6.02657
  0
LINE
  8
0
 10
157.781
 20
6.02657
 11
157.594
 21
6.00294
  0
LINE
  8
0
 10
157.594
 20
6.00294
 11
157.406
 21
6.00294
  0
LINE
  8
0
 10
-157.688
 20
-2.99408
 11
-158.062
 21
-2.94685
  0
LINE
  8
0
 10
-158.062
 20
-2.94685
 11
-158.427
 21
-2.85316
  0
LINE
  8
0
 10
-158.427
 20
-2.85316
 11
-158.777
 21
-2.71448
  0
LINE
  8
0
 10
-158.777
 20
-2.71448
 11
-159.107
 21
-2.53297
  0
LINE
  8
0
 10
-159.107
 20
-2.53297
 11
-159.412
 21
-2.31154
  0
LINE
  8
0
 10
-159.412
 20
-2.31154
 11
-159.687
 21
-2.05363
  0
LINE
  8
0
 10
-159.687
 20
-2.05363
 11
-159.927
 21
-1.76335
  0
LINE
  8
0
 10
-159.927
 20
-1.76335
 11
-160.129
 21
-1.44525
  0
LINE
  8
0
 10
-160.129
 20
-1.44525
 11
-160.289
 21
-1.10437
  0
LINE
  8
0
 10
-160.289
 20
-1.10437
 11
-160.406
 21
-0.746063
  0
LINE
  8
0
 10
-160.406
 20
-0.746063
 11
-160.476
 21
-0.375992
  0
LINE
  8
0
 10
-160.476
 20
-0.375992
 11
-160.5
 21
0
  0
LINE
  8
0
 10
-160.5
 20
0
 11
-160.476
 21
0.375992
  0
LINE
  8
0
 10
-160.476
 20
0.375992
 11
-160.406
 21
0.746063
  0
LINE
  8
0
 10
-160.406
 20
0.746063
 11
-160.289
 21
1.10437
  0
LINE
  8
0
 10
-160.289
 20
1.10437
 11
-160.129
 21
1.44525
  0
LINE
  8
0
 10
-160.129
 20
1.44525
 11
-159.927
 21
1.76335
  0
LINE
  8
0
 10
-159.927
 20
1.76335
 11
-159.687
 21
2.05363
  0
LINE
  8
0
 10
-159.687
 20
2.05363
 11
-159.412
 21
2.31154
  0
LINE
  8
0
 10
-159.412
 20
2.31154
 11
-159.107
 21
2.53297
  0
LINE
  8
0
 10
-159.107
 20
2.53297
 11
-158.777
 21
2.71448
  0
LINE
  8
0
 10
-158.777
 20
2.71448
 11
-158.427
 21
2.85316
  0
LINE
  8
0
 10
-158.427
 20
2.85316
 11
-158.062
 21
2.94685
  0
LINE
  8
0
 10
-158.062
 20
2.94685
 11
-157.688
 21
2.99408
  0
LINE
  8
0
 10
-157.688
 20
2.99408
 11
-157.312
 21
2.99408
  0
LINE
  8
0
 10
-157.312
 20
2.99408
 11
-156.938
 21
2.94685
  0
LINE
  8
0
 10
-156.938
 20
2.94685
 11
-156.573
 21
2.85316
  0
LINE
  8
0
 10
-156.573
 20
2.85316
 11
-156.223
 21
2.71448
  0
LINE
  8
0
 10
-156.223
 20
2.71448
 11
-155.893
 21
2.53297
  0
LINE
  8
0
 10
-155.893
 20
2.53297
 11
-155.588
 21
2.31154
  0
LINE
  8
0
 10
-155.588
 20
2.31154
 11
-155.313
 21
2.05363
  0
LINE
  8
0
 10
-155.313
 20
2.05363
 11
-155.073
 21
1.76335
  0
LINE
  8
0
 10
-155.073
 20
1.76335
 11
-154.871
 21
1.44525
  0
LINE
  8
0
 10
-154.871
 20
1.44525
 11
-154.711
 21
1.10437
  0
LINE
  8
0
 10
-154.711
 20
1.10437
 11
-154.594
 21
0.746063
  0
LINE
  8
0
 10
-154.594
 20
0.746063
 11
-154.524
 21
0.375992
  0
LINE
  8
0
 10
-154.524
 20
0.375992
 11
-154.5
 21
0
  0
LINE
  8
0
 10
-154.5
 20
0
 11
-154.524
 21
-0.375992
  0
LINE
  8
0
 10
-154.524
 20
-0.375992
 11
-154.594
 21
-0.746063
  0
LINE
  8
0
 10
-154.594
 20
-0.746063
 11
-154.711
 21
-1.10437
  0
LINE
  8
0
 10
-154.711
 20
-1.10437
 11
-154.871
 21
-1.44525
  0
LINE
  8
0
 10
-154.871
 20
-1.44525
 11
-155.073
 21
-1.76335
  0
LINE
  8
0
 10
-155.073
 20
-1.76335
 11
-155.313
 21
-2.05363
  0
LINE
  8
0
 10
-155.313
 20
-2.05363
 11
-155.588
 21
-2.31154
  0
LINE
  8
0
 10
-155.588
 20
-2.31154
 11
-155.893
 21
-2.53297
  0
LINE
  8
0
 10
-155.893
 20
-2.53297
 11
-156.223
 21
-2.71448
  0
LINE
  8
0
 10
-156.223
 20
-2.71448
 11
-156.573
 21
-2.85316
  0
LINE
  8
0
 10
-156.573
 20
-2.85316
 11
-156.938
 21
-2.94685
  0
LINE
  8
0
 10
-156.938
 20
-2.94685
 11
-157.312
 21
-2.99408
  0
LINE
  8
0
 10
-157.312
 20
-2.99408
 11
-157.688
 21
-2.99408
  0
LINE
  8
0
 10
157.312
 20
-2.99408
 11
156.938
 21
-2.94685
  0
LINE
  8
0
 10
156.938
 20
-2.94685
 11
156.573
 21
-2.85316
  0
LINE
  8
0
 10
156.573
 20
-2.85316
 11
156.223
 21
-2.71448
  0
LINE
  8
0
 10
156.223
 20
-2.71448
 11
155.893
 21
-2.53297
  0
LINE
  8
0
 10
155.893
 20
-2.53297
 11
155.588
 21
-2.31154
  0
LINE
  8
0
 10
155.588
 20
-2.31154
 11
155.313
 21
-2.05363
  0
LINE
  8
0
 10
155.313
 20
-2.05363
 11
155.073
 21
-1.76335
  0
LINE
  8
0
 10
155.073
 20
-1.76335
 11
154.871
 21
-1.44525
  0
LINE
  8
0
 10
154.871
 20
-1.44525
 11
154.711
 21
-1.10437
  0
LINE
  8
0
 10
154.711
 20
-1.10437
 11
154.594
 21
-0.746063
  0
LINE
  8
0
 10
154.594
 20
-0.746063
 11
154.524
 21
-0.375992
  0
LINE
  8
0
 10
154.524
 20
-0.375992
 11
154.5
 21
0
  0
LINE
  8
0
 10
154.5
 20
0
 11
154.524
 21
0.375992
  0
LINE
  8
0
 10
154.524
 20
0.375992
 11
154.594
 21
0.746063
  0
LINE
  8
0
 10
154.594
 20
0.746063
 11
154.711
 21
1.10437
  0
LINE
  8
0
 10
154.711
 20
1.10437
 11
154.871
 21
1.44525
  0
LINE
  8
0
 10
154.871
 20
1.44525
 11
155.073
 21
1.76335
  0
LINE
  8
0
 10
155.073
 20
1.76335
 11
155.313
 21
2.05363
  0
LINE
  8
0
 10
155.313
 20
2.05363
 11
155.588
 21
2.31154
  0
LINE
  8
0
 10
155.588
 20
2.31154
 11
155.893
 21
2.53297
  0
LINE
  8
0
 10
155.893
 20
2.53297
 11
156.223
 21
2.71448
  0
LINE
  8
0
 10
156.223
 20
2.71448
 11
156.573
 21
2.85316
  0
LINE
  8
0
 10
156.573
 20
2.85316
 11
156.938
 21
2.94685
  0
LINE
  8
0
 10
156.938
 20
2.94685
 11
157.312
 21
2.99408
  0
LINE
  8
0
 10
157.312
 20
2.99408
 11
157.688
 21
2.99408
  0
LINE
  8
0
 10
157.688
 20
2.99408
 11
158.062
 21
2.94685
  0
LINE
  8
0
 10
158.062
 20
2.94685
 11
158.427
 21
2.85316
  0
LINE
  8
0
 10
158.427
 20
2.85316
 11
158.777
 21
2.71448
  0
LINE
  8
0
 10
158.777
 20
2.71448
 11
159.107
 21
2.53297
  0
LINE
  8
0
 10
159.107
 20
2.53297
 11
159.412
 21
2.31154
  0
LINE
  8
0
 10
159.412
 20
2.31154
 11
159.687
 21
2.05363
  0
LINE
  8
0
 10
159.687
 20
2.05363
 11
159.927
 21
1.76335
  0
LINE
  8
0
 10
159.927
 20
1.76335
 11
160.129
 21
1.44525
  0
LINE
  8
0
 10
160.129
 20
1.44525
 11
160.289
 21
1.10437
  0
LINE
  8
0
 10
160.289
 20
1.10437
 11
160.406
 21
0.746063
  0
LINE
  8
0
 10
160.406
 20
0.746063
 11
160.476
 21
0.375992
  0
LINE
  8
0
 10
160.476
 20
0.375992
 11
160.5
 21
0
  0
LINE
  8
0
 10
160.5
 20
0
 11
160.476
 21
-0.375992
  0
LINE
  8
0
 10
160.476
 20
-0.375992
 11
160.406
 21
-0.746063
  0
LINE
  8
0
 10
160.406
 20
-0.746063
 11
160.289
 21
-1.10437
  0
LINE
  8
0
 10
160.289
 20
-1.10437
 11
160.129
 21
-1.44525
  0
LINE
  8
0
 10
160.129
 20
-1.44525
 11
159.927
 21
-1.76335
  0
LINE
  8
0
 10
159.927
 20
-1.76335
 11
159.687
 21
-2.05363
  0
LINE
  8
0
 10
159.687
 20
-2.05363
 11
159.412
 21
-2.31154
  0
LINE
  8
0
 10
159.412
 20
-2.31154
 11
159.107
 21
-2.53297
  0
LINE
  8
0
 10
159.107
 20
-2.53297
 11
158.777
 21
-2.71448
  0
LINE
  8
0
 10
158.777
 20
-2.71448
 11
158.427
 21
-2.85316
  0
LINE
  8
0
 10
158.427
 20
-2.85316
 11
158.062
 21
-2.94685
  0
LINE
  8
0
 10
158.062
 20
-2.94685
 11
157.688
 21
-2.99408
  0
LINE
  8
0
 10
157.688
 20
-2.99408
 11
157.312
 21
-2.99408
  0
LINE
  8
0
 10
157.406
 20
-8.99704
 11
157.219
 21
-8.97342
  0
LINE
  8
0
 10
157.219
 20
-8.97342
 11
157.036
 21
-8.92657
  0
LINE
  8
0
 10
157.036
 20
-8.92657
 11
156.861
 21
-8.85724
  0
LINE
  8
0
 10
156.861
 20
-8.85724
 11
156.696
 21
-8.76648
  0
LINE
  8
0
 10
156.696
 20
-8.76648
 11
156.544
 21
-8.65576
  0
LINE
  8
0
 10
156.544
 20
-8.65576
 11
156.407
 21
-8.52681
  0
LINE
  8
0
 10
156.407
 20
-8.52681
 11
156.286
 21
-8.38167
  0
LINE
  8
0
 10
156.286
 20
-8.38167
 11
156.186
 21
-8.22263
  0
LINE
  8
0
 10
156.186
 20
-8.22263
 11
156.105
 21
-8.05219
  0
LINE
  8
0
 10
156.105
 20
-8.05219
 11
156.047
 21
-7.87303
  0
LINE
  8
0
 10
156.047
 20
-7.87303
 11
156.012
 21
-7.68799
  0
LINE
  8
0
 10
156.012
 20
-7.68799
 11
156
 21
-7.5
  0
LINE
  8
0
 10
156
 20
-7.5
 11
156.012
 21
-7.312
  0
LINE
  8
0
 10
156.012
 20
-7.312
 11
156.047
 21
-7.12695
  0
LINE
  8
0
 10
156.047
 20
-7.12695
 11
156.105
 21
-6.9478
  0
LINE
  8
0
 10
156.105
 20
-6.9478
 11
156.186
 21
-6.77736
  0
LINE
  8
0
 10
156.186
 20
-6.77736
 11
156.286
 21
-6.61832
  0
LINE
  8
0
 10
156.286
 20
-6.61832
 11
156.407
 21
-6.47318
  0
LINE
  8
0
 10
156.407
 20
-6.47318
 11
156.544
 21
-6.34422
  0
LINE
  8
0
 10
156.544
 20
-6.34422
 11
156.696
 21
-6.23351
  0
LINE
  8
0
 10
156.696
 20
-6.23351
 11
156.861
 21
-6.14275
  0
LINE
  8
0
 10
156.861
 20
-6.14275
 11
157.036
 21
-6.07341
  0
LINE
  8
0
 10
157.036
 20
-6.07341
 11
157.219
 21
-6.02657
  0
LINE
  8
0
 10
157.219
 20
-6.02657
 11
157.406
 21
-6.00294
  0
LINE
  8
0
 10
157.406
 20
-6.00294
 11
157.594
 21
-6.00294
  0
LINE
  8
0
 10
157.594
 20
-6.00294
 11
157.781
 21
-6.02657
  0
LINE
  8
0
 10
157.781
 20
-6.02657
 11
157.964
 21
-6.07341
  0
LINE
  8
0
 10
157.964
 20
-6.07341
 11
158.139
 21
-6.14275
  0
LINE
  8
0
 10
158.139
 20
-6.14275
 11
158.304
 21
-6.23351
  0
LINE
  8
0
 10
158.304
 20
-6.23351
 11
158.456
 21
-6.34422
  0
LINE
  8
0
 10
158.456
 20
-6.34422
 11
158.593
 21
-6.47318
  0
LINE
  8
0
 10
158.593
 20
-6.47318
 11
158.714
 21
-6.61832
  0
LINE
  8
0
 10
158.714
 20
-6.61832
 11
158.814
 21
-6.77736
  0
LINE
  8
0
 10
158.814
 20
-6.77736
 11
158.895
 21
-6.9478
  0
LINE
  8
0
 10
158.895
 20
-6.9478
 11
158.953
 21
-7.12695
  0
LINE
  8
0
 10
158.953
 20
-7.12695
 11
158.988
 21
-7.312
  0
LINE
  8
0
 10
158.988
 20
-7.312
 11
159
 21
-7.5
  0
LINE
  8
0
 10
159
 20
-7.5
 11
158.988
 21
-7.68799
  0
LINE
  8
0
 10
158.988
 20
-7.68799
 11
158.953
 21
-7.87303
  0
LINE
  8
0
 10
158.953
 20
-7.87303
 11
158.895
 21
-8.05219
  0
LINE
  8
0
 10
158.895
 20
-8.05219
 11
158.814
 21
-8.22263
  0
LINE
  8
0
 10
158.814
 20
-8.22263
 11
158.714
 21
-8.38167
  0
LINE
  8
0
 10
158.714
 20
-8.38167
 11
158.593
 21
-8.52681
  0
LINE
  8
0
 10
158.593
 20
-8.52681
 11
158.456
 21
-8.65576
  0
LINE
  8
0
 10
158.456
 20
-8.65576
 11
158.304
 21
-8.76648
  0
LINE
  8
0
 10
158.304
 20
-8.76648
 11
158.139
 21
-8.85724
  0
LINE
  8
0
 10
158.139
 20
-8.85724
 11
157.964
 21
-8.92657
  0
LINE
  8
0
 10
157.964
 20
-8.92657
 11
157.781
 21
-8.97342
  0
LINE
  8
0
 10
157.781
 20
-8.97342
 11
157.594
 21
-8.99704
  0
LINE
  8
0
 10
157.594
 20
-8.99704
 11
157.406
 21
-8.99704
  0
LINE
  8
0
 10
-157.594
 20
-8.99704
 11
-157.781
 21
-8.97342
  0
LINE
  8
0
 10
-157.781
 20
-8.97342
 11
-157.964
 21
-8.92657
  0
LINE
  8
0
 10
-157.964
 20
-8.92657
 11
-158.139
 21
-8.85724
  0
LINE
  8
0
 10
-158.139
 20
-8.85724
 11
-158.304
 21
-8.76648
  0
LINE
  8
0
 10
-158.304
 20
-8.76648
 11
-158.456
 21
-8.65576
  0
LINE
  8
0
 10
-158.456
 20
-8.65576
 11
-158.593
 21
-8.52681
  0
LINE
  8
0
 10
-158.593
 20
-8.52681
 11
-158.714
 21
-8.38167
  0
LINE
  8
0
 10
-158.714
 20
-8.38167
 11
-158.814
 21
-8.22263
  0
LINE
  8
0
 10
-158.814
 20
-8.22263
 11
-158.895
 21
-8.05219
  0
LINE
  8
0
 10
-158.895
 20
-8.05219
 11
-158.953
 21
-7.87303
  0
LINE
  8
0
 10
-158.953
 20
-7.87303
 11
-158.988
 21
-7.68799
  0
LINE
  8
0
 10
-158.988
 20
-7.68799
 11
-159
 21
-7.5
  0
LINE
  8
0
 10
-159
 20
-7.5
 11
-158.988
 21
-7.312
  0
LINE
  8
0
 10
-158.988
 20
-7.312
 11
-158.953
 21
-7.12695
  0
LINE
  8
0
 10
-158.953
 20
-7.12695
 11
-158.895
 21
-6.9478
  0
LINE
  8
0
 10
-158.895
 20
-6.9478
 11
-158.814
 21
-6.77736
  0
LINE
  8
0
 10
-158.814
 20
-6.77736
 11
-158.714
 21
-6.61832
  0
LINE
  8
0
 10
-158.714
 20
-6.61832
 11
-158.593
 21
-6.47318
  0
LINE
  8
0
 10
-158.593
 20
-6.47318
 11
-158.456
 21
-6.34422
  0
LINE
  8
0
 10
-158.456
 20
-6.34422
 11
-158.304
 21
-6.23351
  0
LINE
  8
0
 10
-158.304
 20
-6.23351
 11
-158.139
 21
-6.14275
  0
LINE
  8
0
 10
-158.139
 20
-6.14275
 11
-157.964
 21
-6.07341
  0
LINE
  8
0
 10
-157.964
 20
-6.07341
 11
-157.781
 21
-6.02657
  0
LINE
  8
0
 10
-157.781
 20
-6.02657
 11
-157.594
 21
-6.00294
  0
LINE
  8
0
 10
-157.594
 20
-6.00294
 11
-157.406
 21
-6.00294
  0
LINE
  8
0
 10
-157.406
 20
-6.00294
 11
-157.219
 21
-6.02657
  0
LINE
  8
0
 10
-157.219
 20
-6.02657
 11
-157.036
 21
-6.07341
  0
LINE
  8
0
 10
-157.036
 20
-6.07341
 11
-156.861
 21
-6.14275
  0
LINE
  8
0
 10
-156.861
 20
-6.14275
 11
-156.696
 21
-6.23351
  0
LINE
  8
0
 10
-156.696
 20
-6.23351
 11
-156.544
 21
-6.34422
  0
LINE
  8
0
 10
-156.544
 20
-6.34422
 11
-156.407
 21
-6.47318
  0
LINE
  8
0
 10
-156.407
 20
-6.47318
 11
-156.286
 21
-6.61832
  0
LINE
  8
0
 10
-156.286
 20
-6.61832
 11
-156.186
 21
-6.77736
  0
LINE
  8
0
 10
-156.186
 20
-6.77736
 11
-156.105
 21
-6.9478
  0
LINE
  8
0
 10
-156.105
 20
-6.9478
 11
-156.047
 21
-7.12695
  0
LINE
  8
0
 10
-156.047
 20
-7.12695
 11
-156.012
 21
-7.312
  0
LINE
  8
0
 10
-156.012
 20
-7.312
 11
-156
 21
-7.5
  0
LINE
  8
0
 10
-156
 20
-7.5
 11
-156.012
 21
-7.68799
  0
LINE
  8
0
 10
-156.012
 20
-7.68799
 11
-156.047
 21
-7.87303
  0
LINE
  8
0
 10
-156.047
 20
-7.87303
 11
-156.105
 21
-8.05219
  0
LINE
  8
0
 10
-156.105
 20
-8.05219
 11
-156.186
 21
-8.22263
  0
LINE
  8
0
 10
-156.186
 20
-8.22263
 11
-156.286
 21
-8.38167
  0
LINE
  8
0
 10
-156.286
 20
-8.38167
 11
-156.407
 21
-8.52681
  0
LINE
  8
0
 10
-156.407
 20
-8.52681
 11
-156.544
 21
-8.65576
  0
LINE
  8
0
 10
-156.544
 20
-8.65576
 11
-156.696
 21
-8.76648
  0
LINE
  8
0
 10
-156.696
 20
-8.76648
 11
-156.861
 21
-8.85724
  0
LINE
  8
0
 10
-156.861
 20
-8.85724
 11
-157.036
 21
-8.92657
  0
LINE
  8
0
 10
-157.036
 20
-8.92657
 11
-157.219
 21
-8.97342
  0
LINE
  8
0
 10
-157.219
 20
-8.97342
 11
-157.406
 21
-8.99704
  0
LINE
  8
0
 10
-157.406
 20
-8.99704
 11
-157.594
 21
-8.99704
  0
LINE
  8
0
 10
157.312
 20
-17.9941
 11
156.938
 21
-17.9469
  0
LINE
  8
0
 10
156.938
 20
-17.9469
 11
156.573
 21
-17.8532
  0
LINE
  8
0
 10
156.573
 20
-17.8532
 11
156.223
 21
-17.7145
  0
LINE
  8
0
 10
156.223
 20
-17.7145
 11
155.893
 21
-17.533
  0
LINE
  8
0
 10
155.893
 20
-17.533
 11
155.588
 21
-17.3115
  0
LINE
  8
0
 10
155.588
 20
-17.3115
 11
155.313
 21
-17.0536
  0
LINE
  8
0
 10
155.313
 20
-17.0536
 11
155.073
 21
-16.7634
  0
LINE
  8
0
 10
155.073
 20
-16.7634
 11
154.871
 21
-16.4453
  0
LINE
  8
0
 10
154.871
 20
-16.4453
 11
154.711
 21
-16.1044
  0
LINE
  8
0
 10
154.711
 20
-16.1044
 11
154.594
 21
-15.7461
  0
LINE
  8
0
 10
154.594
 20
-15.7461
 11
154.524
 21
-15.376
  0
LINE
  8
0
 10
154.524
 20
-15.376
 11
154.5
 21
-15
  0
LINE
  8
0
 10
154.5
 20
-15
 11
154.524
 21
-14.624
  0
LINE
  8
0
 10
154.524
 20
-14.624
 11
154.594
 21
-14.2539
  0
LINE
  8
0
 10
154.594
 20
-14.2539
 11
154.711
 21
-13.8956
  0
LINE
  8
0
 10
154.711
 20
-13.8956
 11
154.871
 21
-13.5547
  0
LINE
  8
0
 10
154.871
 20
-13.5547
 11
155.073
 21
-13.2366
  0
LINE
  8
0
 10
155.073
 20
-13.2366
 11
155.313
 21
-12.9464
  0
LINE
  8
0
 10
155.313
 20
-12.9464
 11
155.588
 21
-12.6884
  0
LINE
  8
0
 10
155.588
 20
-12.6884
 11
155.893
 21
-12.467
  0
LINE
  8
0
 10
155.893
 20
-12.467
 11
156.223
 21
-12.2855
  0
LINE
  8
0
 10
156.223
 20
-12.2855
 11
156.573
 21
-12.1468
  0
LINE
  8
0
 10
156.573
 20
-12.1468
 11
156.938
 21
-12.0531
  0
LINE
  8
0
 10
156.938
 20
-12.0531
 11
157.312
 21
-12.0059
  0
LINE
  8
0
 10
157.312
 20
-12.0059
 11
157.688
 21
-12.0059
  0
LINE
  8
0
 10
157.688
 20
-12.0059
 11
158.062
 21
-12.0531
  0
LINE
  8
0
 10
158.062
 20
-12.0531
 11
158.427
 21
-12.1468
  0
LINE
  8
0
 10
158.427
 20
-12.1468
 11
158.777
 21
-12.2855
  0
LINE
  8
0
 10
158.777
 20
-12.2855
 11
159.107
 21
-12.467
  0
LINE
  8
0
 10
159.107
 20
-12.467
 11
159.412
 21
-12.6884
  0
LINE
  8
0
 10
159.412
 20
-12.6884
 11
159.687
 21
-12.9464
  0
LINE
  8
0
 10
159.687
 20
-12.9464
 11
159.927
 21
-13.2366
  0
LINE
  8
0
 10
159.927
 20
-13.2366
 11
160.129
 21
-13.5547
  0
LINE
  8
0
 10
160.129
 20
-13.5547
 11
160.289
 21
-13.8956
  0
LINE
  8
0
 10
160.289
 20
-13.8956
 11
160.406
 21
-14.2539
  0
LINE
  8
0
 10
160.406
 20
-14.2539
 11
160.476
 21
-14.624
  0
LINE
  8
0
 10
160.476
 20
-14.624
 11
160.5
 21
-15
  0
LINE
  8
0
 10
160.5
 20
-15
 11
160.476
 21
-15.376
  0
LINE
  8
0
 10
160.476
 20
-15.376
 11
160.406
 21
-15.7461
  0
LINE
  8
0
 10
160.406
 20
-15.7461
 11
160.289
 21
-16.1044
  0
LINE
  8
0
 10
160.289
 20
-16.1044
 11
160.129
 21
-16.4453
  0
LINE
  8
0
 10
160.129
 20
-16.4453
 11
159.927
 21
-16.7634
  0
LINE
  8
0
 10
159.927
 20
-16.7634
 11
159.687
 21
-17.0536
  0
LINE
  8
0
 10
159.687
 20
-17.0536
 11
159.412
 21
-17.3115
  0
LINE
  8
0
 10
159.412
 20
-17.3115
 11
159.107
 21
-17.533
  0
LINE
  8
0
 10
159.107
 20
-17.533
 11
158.777
 21
-17.7145
  0
LINE
  8
0
 10
158.777
 20
-17.7145
 11
158.427
 21
-17.8532
  0
LINE
  8
0
 10
158.427
 20
-17.8532
 11
158.062
 21
-17.9469
  0
LINE
  8
0
 10
158.062
 20
-17.9469
 11
157.688
 21
-17.9941
  0
LINE
  8
0
 10
157.688
 20
-17.9941
 11
157.312
 21
-17.9941
  0
LINE
  8
0
 10
-157.688
 20
-17.9941
 11
-158.062
 21
-17.9469
  0
LINE
  8
0
 10
-158.062
 20
-17.9469
 11
-158.427
 21
-17.8532
  0
LINE
  8
0
 10
-158.427
 20
-17.8532
 11
-158.777
 21
-17.7145
  0
LINE
  8
0
 10
-158.777
 20
-17.7145
 11
-159.107
 21
-17.533
  0
LINE
  8
0
 10
-159.107
 20
-17.533
 11
-159.412
 21
-17.3115
  0
LINE
  8
0
 10
-159.412
 20
-17.3115
 11
-159.687
 21
-17.0536
  0
LINE
  8
0
 10
-159.687
 20
-17.0536
 11
-159.927
 21
-16.7634
  0
LINE
  8
0
 10
-159.927
 20
-16.7634
 11
-160.129
 21
-16.4453
  0
LINE
  8
0
 10
-160.129
 20
-16.4453
 11
-160.289
 21
-16.1044
  0
LINE
  8
0
 10
-160.289
 20
-16.1044
 11
-160.406
 21
-15.7461
  0
LINE
  8
0
 10
-160.406
 20
-15.7461
 11
-160.476
 21
-15.376
  0
LINE
  8
0
 10
-160.476
 20
-15.376
 11
-160.5
 21
-15
  0
LINE
  8
0
 10
-160.5
 20
-15
 11
-160.476
 21
-14.624
  0
LINE
  8
0
 10
-160.476
 20
-14.624
 11
-160.406
 21
-14.2539
  0
LINE
  8
0
 10
-160.406
 20
-14.2539
 11
-160.289
 21
-13.8956
  0
LINE
  8
0
 10
-160.289
 20
-13.8956
 11
-160.129
 21
-13.5547
  0
LINE
  8
0
 10
-160.129
 20
-13.5547
 11
-159.927
 21
-13.2366
  0
LINE
  8
0
 10
-159.927
 20
-13.2366
 11
-159.687
 21
-12.9464
  0
LINE
  8
0
 10
-159.687
 20
-12.9464
 11
-159.412
 21
-12.6884
  0
LINE
  8
0
 10
-159.412
 20
-12.6884
 11
-159.107
 21
-12.467
  0
LINE
  8
0
 10
-159.107
 20
-12.467
 11
-158.777
 21
-12.2855
  0
LINE
  8
0
 10
-158.777
 20
-12.2855
 11
-158.427
 21
-12.1468
  0
LINE
  8
0
 10
-158.427
 20
-12.1468
 11
-158.062
 21
-12.0531
  0
LINE
  8
0
 10
-158.062
 20
-12.0531
 11
-157.688
 21
-12.0059
  0
LINE
  8
0
 10
-157.688
 20
-12.0059
 11
-157.312
 21
-12.0059
  0
LINE
  8
0
 10
-157.312
 20
-12.0059
 11
-156.938
 21
-12.0531
  0
LINE
  8
0
 10
-156.938
 20
-12.0531
 11
-156.573
 21
-12.1468
  0
LINE
  8
0
 10
-156.573
 20
-12.1468
 11
-156.223
 21
-12.2855
  0
LINE
  8
0
 10
-156.223
 20
-12.2855
 11
-155.893
 21
-12.467
  0
LINE
  8
0
 10
-155.893
 20
-12.467
 11
-155.588
 21
-12.6884
  0
LINE
  8
0
 10
-155.588
 20
-12.6884
 11
-155.313
 21
-12.9464
  0
LINE
  8
0
 10
-155.313
 20
-12.9464
 11
-155.073
 21
-13.2366
  0
LINE
  8
0
 10
-155.073
 20
-13.2366
 11
-154.871
 21
-13.5547
  0
LINE
  8
0
 10
-154.871
 20
-13.5547
 11
-154.711
 21
-13.8956
  0
LINE
  8
0
 10
-154.711
 20
-13.8956
 11
-154.594
 21
-14.2539
  0
LINE
  8
0
 10
-154.594
 20
-14.2539
 11
-154.524
 21
-14.624
  0
LINE
  8
0
 10
-154.524
 20
-14.624
 11
-154.5
 21
-15
  0
LINE
  8
0
 10
-154.5
 20
-15
 11
-154.524
 21
-15.376
  0
LINE
  8
0
 10
-154.524
 20
-15.376
 11
-154.594
 21
-15.7461
  0
LINE
  8
0
 10
-154.594
 20
-15.7461
 11
-154.711
 21
-16.1044
  0
LINE
  8
0
 10
-154.711
 20
-16.1044
 11
-154.871
 21
-16.4453
  0
LINE
  8
0
 10
-154.871
 20
-16.4453
 11
-155.073
 21
-16.7634
  0
LINE
  8
0
 10
-155.073
 20
-16.7634
 11
-155.313
 21
-17.0536
  0
LINE
  8
0
 10
-155.313
 20
-17.0536
 11
-155.588
 21
-17.3115
  0
LINE
  8
0
 10
-155.588
 20
-17.3115
 11
-155.893
 21
-17.533
  0
LINE
  8
0
 10
-155.893
 20
-17.533
 11
-156.223
 21
-17.7145
  0
LINE
  8
0
 10
-156.223
 20
-17.7145
 11
-156.573
 21
-17.8532
  0
LINE
  8
0
 10
-156.573
 20
-17.8532
 11
-156.938
 21
-17.9469
  0
LINE
  8
0
 10
-156.938
 20
-17.9469
 11
-157.312
 21
-17.9941
  0
LINE
  8
0
 10
-157.312
 20
-17.9941
 11
-157.688
 21
-17.9941
  0
ENDSEC
  0
SECTION
  2
OBJECTS
  0
DICTIONARY
  0
ENDSEC
  0
EOF
