  0
SECTION
  2
BLOCKS
  0
ENDSEC
  0
SECTION
  2
ENTITIES
  0
LINE
  8
0
 10
212.937
 20
-6.91142
 11
213.545
 21
-6.75528
  0
LINE
  8
0
 10
213.545
 20
-6.75528
 11
214.129
 21
-6.52412
  0
LINE
  8
0
 10
214.129
 20
-6.52412
 11
214.679
 21
-6.22163
  0
LINE
  8
0
 10
214.679
 20
-6.22163
 11
215.187
 21
-5.85255
  0
LINE
  8
0
 10
215.187
 20
-5.85255
 11
215.645
 21
-5.42273
  0
LINE
  8
0
 10
215.645
 20
-5.42273
 11
216.045
 21
-4.93892
  0
LINE
  8
0
 10
216.045
 20
-4.93892
 11
216.382
 21
-4.40877
  0
LINE
  8
0
 10
216.382
 20
-4.40877
 11
216.649
 21
-3.84062
  0
LINE
  8
0
 10
216.649
 20
-3.84062
 11
216.843
 21
-3.24344
  0
LINE
  8
0
 10
216.843
 20
-3.24344
 11
216.961
 21
-2.62666
  0
LINE
  8
0
 10
216.961
 20
-2.62666
 11
217
 21
-2
  0
LINE
  8
0
 10
217
 20
-2
 11
217
 21
2
  0
LINE
  8
0
 10
217
 20
2
 11
216.961
 21
2.62666
  0
LINE
  8
0
 10
216.961
 20
2.62666
 11
216.843
 21
3.24344
  0
LINE
  8
0
 10
216.843
 20
3.24344
 11
216.649
 21
3.84062
  0
LINE
  8
0
 10
216.649
 20
3.84062
 11
216.382
 21
4.40877
  0
LINE
  8
0
 10
216.382
 20
4.40877
 11
216.045
 21
4.93892
  0
LINE
  8
0
 10
216.045
 20
4.93892
 11
215.645
 21
5.42273
  0
LINE
  8
0
 10
215.645
 20
5.42273
 11
215.187
 21
5.85255
  0
LINE
  8
0
 10
215.187
 20
5.85255
 11
214.679
 21
6.22163
  0
LINE
  8
0
 10
214.679
 20
6.22163
 11
214.129
 21
6.52412
  0
LINE
  8
0
 10
214.129
 20
6.52412
 11
213.545
 21
6.75528
  0
LINE
  8
0
 10
213.545
 20
6.75528
 11
212.937
 21
6.91142
  0
LINE
  8
0
 10
212.937
 20
6.91142
 11
212.314
 21
6.99013
  0
LINE
  8
0
 10
212.314
 20
6.99013
 11
-212.314
 21
6.99013
  0
LINE
  8
0
 10
-212.314
 20
6.99013
 11
-212.937
 21
6.91142
  0
LINE
  8
0
 10
-212.937
 20
6.91142
 11
-213.545
 21
6.75528
  0
LINE
  8
0
 10
-213.545
 20
6.75528
 11
-214.129
 21
6.52412
  0
LINE
  8
0
 10
-214.129
 20
6.52412
 11
-214.679
 21
6.22163
  0
LINE
  8
0
 10
-214.679
 20
6.22163
 11
-215.187
 21
5.85255
  0
LINE
  8
0
 10
-215.187
 20
5.85255
 11
-215.645
 21
5.42273
  0
LINE
  8
0
 10
-215.645
 20
5.42273
 11
-216.045
 21
4.93892
  0
LINE
  8
0
 10
-216.045
 20
4.93892
 11
-216.382
 21
4.40877
  0
LINE
  8
0
 10
-216.382
 20
4.40877
 11
-216.649
 21
3.84062
  0
LINE
  8
0
 10
-216.649
 20
3.84062
 11
-216.843
 21
3.24344
  0
LINE
  8
0
 10
-216.843
 20
3.24344
 11
-216.961
 21
2.62666
  0
LINE
  8
0
 10
-216.961
 20
2.62666
 11
-217
 21
2
  0
LINE
  8
0
 10
-217
 20
2
 11
-217
 21
-2
  0
LINE
  8
0
 10
-217
 20
-2
 11
-216.961
 21
-2.62666
  0
LINE
  8
0
 10
-216.961
 20
-2.62666
 11
-216.843
 21
-3.24344
  0
LINE
  8
0
 10
-216.843
 20
-3.24344
 11
-216.649
 21
-3.84062
  0
LINE
  8
0
 10
-216.649
 20
-3.84062
 11
-216.382
 21
-4.40877
  0
LINE
  8
0
 10
-216.382
 20
-4.40877
 11
-216.045
 21
-4.93892
  0
LINE
  8
0
 10
-216.045
 20
-4.93892
 11
-215.645
 21
-5.42273
  0
LINE
  8
0
 10
-215.645
 20
-5.42273
 11
-215.187
 21
-5.85255
  0
LINE
  8
0
 10
-215.187
 20
-5.85255
 11
-214.679
 21
-6.22163
  0
LINE
  8
0
 10
-214.679
 20
-6.22163
 11
-214.129
 21
-6.52412
  0
LINE
  8
0
 10
-214.129
 20
-6.52412
 11
-213.545
 21
-6.75528
  0
LINE
  8
0
 10
-213.545
 20
-6.75528
 11
-212.937
 21
-6.91142
  0
LINE
  8
0
 10
-212.937
 20
-6.91142
 11
-212.314
 21
-6.99013
  0
LINE
  8
0
 10
-212.314
 20
-6.99013
 11
212.314
 21
-6.99013
  0
LINE
  8
0
 10
212.314
 20
-6.99013
 11
212.937
 21
-6.91142
  0
LINE
  8
0
 10
209.812
 20
-2.99408
 11
209.438
 21
-2.94685
  0
LINE
  8
0
 10
209.438
 20
-2.94685
 11
209.073
 21
-2.85316
  0
LINE
  8
0
 10
209.073
 20
-2.85316
 11
208.723
 21
-2.71448
  0
LINE
  8
0
 10
208.723
 20
-2.71448
 11
208.393
 21
-2.53297
  0
LINE
  8
0
 10
208.393
 20
-2.53297
 11
208.088
 21
-2.31154
  0
LINE
  8
0
 10
208.088
 20
-2.31154
 11
207.813
 21
-2.05363
  0
LINE
  8
0
 10
207.813
 20
-2.05363
 11
207.573
 21
-1.76335
  0
LINE
  8
0
 10
207.573
 20
-1.76335
 11
207.371
 21
-1.44525
  0
LINE
  8
0
 10
207.371
 20
-1.44525
 11
207.211
 21
-1.10437
  0
LINE
  8
0
 10
207.211
 20
-1.10437
 11
207.094
 21
-0.746063
  0
LINE
  8
0
 10
207.094
 20
-0.746063
 11
207.024
 21
-0.375992
  0
LINE
  8
0
 10
207.024
 20
-0.375992
 11
207
 21
0
  0
LINE
  8
0
 10
207
 20
0
 11
207.024
 21
0.375992
  0
LINE
  8
0
 10
207.024
 20
0.375992
 11
207.094
 21
0.746063
  0
LINE
  8
0
 10
207.094
 20
0.746063
 11
207.211
 21
1.10437
  0
LINE
  8
0
 10
207.211
 20
1.10437
 11
207.371
 21
1.44525
  0
LINE
  8
0
 10
207.371
 20
1.44525
 11
207.573
 21
1.76335
  0
LINE
  8
0
 10
207.573
 20
1.76335
 11
207.813
 21
2.05363
  0
LINE
  8
0
 10
207.813
 20
2.05363
 11
208.088
 21
2.31154
  0
LINE
  8
0
 10
208.088
 20
2.31154
 11
208.393
 21
2.53297
  0
LINE
  8
0
 10
208.393
 20
2.53297
 11
208.723
 21
2.71448
  0
LINE
  8
0
 10
208.723
 20
2.71448
 11
209.073
 21
2.85316
  0
LINE
  8
0
 10
209.073
 20
2.85316
 11
209.438
 21
2.94685
  0
LINE
  8
0
 10
209.438
 20
2.94685
 11
209.812
 21
2.99408
  0
LINE
  8
0
 10
209.812
 20
2.99408
 11
210.188
 21
2.99408
  0
LINE
  8
0
 10
210.188
 20
2.99408
 11
210.562
 21
2.94685
  0
LINE
  8
0
 10
210.562
 20
2.94685
 11
210.927
 21
2.85316
  0
LINE
  8
0
 10
210.927
 20
2.85316
 11
211.277
 21
2.71448
  0
LINE
  8
0
 10
211.277
 20
2.71448
 11
211.607
 21
2.53297
  0
LINE
  8
0
 10
211.607
 20
2.53297
 11
211.912
 21
2.31154
  0
LINE
  8
0
 10
211.912
 20
2.31154
 11
212.187
 21
2.05363
  0
LINE
  8
0
 10
212.187
 20
2.05363
 11
212.427
 21
1.76335
  0
LINE
  8
0
 10
212.427
 20
1.76335
 11
212.629
 21
1.44525
  0
LINE
  8
0
 10
212.629
 20
1.44525
 11
212.789
 21
1.10437
  0
LINE
  8
0
 10
212.789
 20
1.10437
 11
212.906
 21
0.746063
  0
LINE
  8
0
 10
212.906
 20
0.746063
 11
212.976
 21
0.375992
  0
LINE
  8
0
 10
212.976
 20
0.375992
 11
213
 21
0
  0
LINE
  8
0
 10
213
 20
0
 11
212.976
 21
-0.375992
  0
LINE
  8
0
 10
212.976
 20
-0.375992
 11
212.906
 21
-0.746063
  0
LINE
  8
0
 10
212.906
 20
-0.746063
 11
212.789
 21
-1.10437
  0
LINE
  8
0
 10
212.789
 20
-1.10437
 11
212.629
 21
-1.44525
  0
LINE
  8
0
 10
212.629
 20
-1.44525
 11
212.427
 21
-1.76335
  0
LINE
  8
0
 10
212.427
 20
-1.76335
 11
212.187
 21
-2.05363
  0
LINE
  8
0
 10
212.187
 20
-2.05363
 11
211.912
 21
-2.31154
  0
LINE
  8
0
 10
211.912
 20
-2.31154
 11
211.607
 21
-2.53297
  0
LINE
  8
0
 10
211.607
 20
-2.53297
 11
211.277
 21
-2.71448
  0
LINE
  8
0
 10
211.277
 20
-2.71448
 11
210.927
 21
-2.85316
  0
LINE
  8
0
 10
210.927
 20
-2.85316
 11
210.562
 21
-2.94685
  0
LINE
  8
0
 10
210.562
 20
-2.94685
 11
210.188
 21
-2.99408
  0
LINE
  8
0
 10
210.188
 20
-2.99408
 11
209.812
 21
-2.99408
  0
LINE
  8
0
 10
-210.188
 20
-2.99408
 11
-210.562
 21
-2.94685
  0
LINE
  8
0
 10
-210.562
 20
-2.94685
 11
-210.927
 21
-2.85316
  0
LINE
  8
0
 10
-210.927
 20
-2.85316
 11
-211.277
 21
-2.71448
  0
LINE
  8
0
 10
-211.277
 20
-2.71448
 11
-211.607
 21
-2.53297
  0
LINE
  8
0
 10
-211.607
 20
-2.53297
 11
-211.912
 21
-2.31154
  0
LINE
  8
0
 10
-211.912
 20
-2.31154
 11
-212.187
 21
-2.05363
  0
LINE
  8
0
 10
-212.187
 20
-2.05363
 11
-212.427
 21
-1.76335
  0
LINE
  8
0
 10
-212.427
 20
-1.76335
 11
-212.629
 21
-1.44525
  0
LINE
  8
0
 10
-212.629
 20
-1.44525
 11
-212.789
 21
-1.10437
  0
LINE
  8
0
 10
-212.789
 20
-1.10437
 11
-212.906
 21
-0.746063
  0
LINE
  8
0
 10
-212.906
 20
-0.746063
 11
-212.976
 21
-0.375992
  0
LINE
  8
0
 10
-212.976
 20
-0.375992
 11
-213
 21
0
  0
LINE
  8
0
 10
-213
 20
0
 11
-212.976
 21
0.375992
  0
LINE
  8
0
 10
-212.976
 20
0.375992
 11
-212.906
 21
0.746063
  0
LINE
  8
0
 10
-212.906
 20
0.746063
 11
-212.789
 21
1.10437
  0
LINE
  8
0
 10
-212.789
 20
1.10437
 11
-212.629
 21
1.44525
  0
LINE
  8
0
 10
-212.629
 20
1.44525
 11
-212.427
 21
1.76335
  0
LINE
  8
0
 10
-212.427
 20
1.76335
 11
-212.187
 21
2.05363
  0
LINE
  8
0
 10
-212.187
 20
2.05363
 11
-211.912
 21
2.31154
  0
LINE
  8
0
 10
-211.912
 20
2.31154
 11
-211.607
 21
2.53297
  0
LINE
  8
0
 10
-211.607
 20
2.53297
 11
-211.277
 21
2.71448
  0
LINE
  8
0
 10
-211.277
 20
2.71448
 11
-210.927
 21
2.85316
  0
LINE
  8
0
 10
-210.927
 20
2.85316
 11
-210.562
 21
2.94685
  0
LINE
  8
0
 10
-210.562
 20
2.94685
 11
-210.188
 21
2.99408
  0
LINE
  8
0
 10
-210.188
 20
2.99408
 11
-209.812
 21
2.99408
  0
LINE
  8
0
 10
-209.812
 20
2.99408
 11
-209.438
 21
2.94685
  0
LINE
  8
0
 10
-209.438
 20
2.94685
 11
-209.073
 21
2.85316
  0
LINE
  8
0
 10
-209.073
 20
2.85316
 11
-208.723
 21
2.71448
  0
LINE
  8
0
 10
-208.723
 20
2.71448
 11
-208.393
 21
2.53297
  0
LINE
  8
0
 10
-208.393
 20
2.53297
 11
-208.088
 21
2.31154
  0
LINE
  8
0
 10
-208.088
 20
2.31154
 11
-207.813
 21
2.05363
  0
LINE
  8
0
 10
-207.813
 20
2.05363
 11
-207.573
 21
1.76335
  0
LINE
  8
0
 10
-207.573
 20
1.76335
 11
-207.371
 21
1.44525
  0
LINE
  8
0
 10
-207.371
 20
1.44525
 11
-207.211
 21
1.10437
  0
LINE
  8
0
 10
-207.211
 20
1.10437
 11
-207.094
 21
0.746063
  0
LINE
  8
0
 10
-207.094
 20
0.746063
 11
-207.024
 21
0.375992
  0
LINE
  8
0
 10
-207.024
 20
0.375992
 11
-207
 21
0
  0
LINE
  8
0
 10
-207
 20
0
 11
-207.024
 21
-0.375992
  0
LINE
  8
0
 10
-207.024
 20
-0.375992
 11
-207.094
 21
-0.746063
  0
LINE
  8
0
 10
-207.094
 20
-0.746063
 11
-207.211
 21
-1.10437
  0
LINE
  8
0
 10
-207.211
 20
-1.10437
 11
-207.371
 21
-1.44525
  0
LINE
  8
0
 10
-207.371
 20
-1.44525
 11
-207.573
 21
-1.76335
  0
LINE
  8
0
 10
-207.573
 20
-1.76335
 11
-207.813
 21
-2.05363
  0
LINE
  8
0
 10
-207.813
 20
-2.05363
 11
-208.088
 21
-2.31154
  0
LINE
  8
0
 10
-208.088
 20
-2.31154
 11
-208.393
 21
-2.53297
  0
LINE
  8
0
 10
-208.393
 20
-2.53297
 11
-208.723
 21
-2.71448
  0
LINE
  8
0
 10
-208.723
 20
-2.71448
 11
-209.073
 21
-2.85316
  0
LINE
  8
0
 10
-209.073
 20
-2.85316
 11
-209.438
 21
-2.94685
  0
LINE
  8
0
 10
-209.438
 20
-2.94685
 11
-209.812
 21
-2.99408
  0
LINE
  8
0
 10
-209.812
 20
-2.99408
 11
-210.188
 21
-2.99408
  0
ENDSEC
  0
SECTION
  2
OBJECTS
  0
DICTIONARY
  0
ENDSEC
  0
EOF
