  0
SECTION
  2
BLOCKS
  0
ENDSEC
  0
SECTION
  2
ENTITIES
  0
LINE
  8
0
 10
100.437
 20
41.0886
 11
101.045
 21
41.2447
  0
LINE
  8
0
 10
101.045
 20
41.2447
 11
101.629
 21
41.4759
  0
LINE
  8
0
 10
101.629
 20
41.4759
 11
102.179
 21
41.7784
  0
LINE
  8
0
 10
102.179
 20
41.7784
 11
102.687
 21
42.1474
  0
LINE
  8
0
 10
102.687
 20
42.1474
 11
103.145
 21
42.5773
  0
LINE
  8
0
 10
103.145
 20
42.5773
 11
103.545
 21
43.0611
  0
LINE
  8
0
 10
103.545
 20
43.0611
 11
103.882
 21
43.5912
  0
LINE
  8
0
 10
103.882
 20
43.5912
 11
104.149
 21
44.1594
  0
LINE
  8
0
 10
104.149
 20
44.1594
 11
104.343
 21
44.7566
  0
LINE
  8
0
 10
104.343
 20
44.7566
 11
104.461
 21
45.3733
  0
LINE
  8
0
 10
104.461
 20
45.3733
 11
104.5
 21
46
  0
LINE
  8
0
 10
104.5
 20
46
 11
104.5
 21
50
  0
LINE
  8
0
 10
104.5
 20
50
 11
104.461
 21
50.6267
  0
LINE
  8
0
 10
104.461
 20
50.6267
 11
104.343
 21
51.2434
  0
LINE
  8
0
 10
104.343
 20
51.2434
 11
104.149
 21
51.8406
  0
LINE
  8
0
 10
104.149
 20
51.8406
 11
103.882
 21
52.4088
  0
LINE
  8
0
 10
103.882
 20
52.4088
 11
103.545
 21
52.9389
  0
LINE
  8
0
 10
103.545
 20
52.9389
 11
103.145
 21
53.4227
  0
LINE
  8
0
 10
103.145
 20
53.4227
 11
102.687
 21
53.8526
  0
LINE
  8
0
 10
102.687
 20
53.8526
 11
102.179
 21
54.2216
  0
LINE
  8
0
 10
102.179
 20
54.2216
 11
101.629
 21
54.5241
  0
LINE
  8
0
 10
101.629
 20
54.5241
 11
101.045
 21
54.7553
  0
LINE
  8
0
 10
101.045
 20
54.7553
 11
100.437
 21
54.9114
  0
LINE
  8
0
 10
100.437
 20
54.9114
 11
99.8139
 21
54.9901
  0
LINE
  8
0
 10
99.8139
 20
54.9901
 11
-99.8139
 21
54.9901
  0
LINE
  8
0
 10
-99.8139
 20
54.9901
 11
-100.437
 21
54.9114
  0
LINE
  8
0
 10
-100.437
 20
54.9114
 11
-101.045
 21
54.7553
  0
LINE
  8
0
 10
-101.045
 20
54.7553
 11
-101.629
 21
54.5241
  0
LINE
  8
0
 10
-101.629
 20
54.5241
 11
-102.179
 21
54.2216
  0
LINE
  8
0
 10
-102.179
 20
54.2216
 11
-102.687
 21
53.8526
  0
LINE
  8
0
 10
-102.687
 20
53.8526
 11
-103.145
 21
53.4227
  0
LINE
  8
0
 10
-103.145
 20
53.4227
 11
-103.545
 21
52.9389
  0
LINE
  8
0
 10
-103.545
 20
52.9389
 11
-103.882
 21
52.4088
  0
LINE
  8
0
 10
-103.882
 20
52.4088
 11
-104.149
 21
51.8406
  0
LINE
  8
0
 10
-104.149
 20
51.8406
 11
-104.343
 21
51.2434
  0
LINE
  8
0
 10
-104.343
 20
51.2434
 11
-104.461
 21
50.6267
  0
LINE
  8
0
 10
-104.461
 20
50.6267
 11
-104.5
 21
50
  0
LINE
  8
0
 10
-104.5
 20
50
 11
-104.5
 21
46
  0
LINE
  8
0
 10
-104.5
 20
46
 11
-104.461
 21
45.3733
  0
LINE
  8
0
 10
-104.461
 20
45.3733
 11
-104.343
 21
44.7566
  0
LINE
  8
0
 10
-104.343
 20
44.7566
 11
-104.149
 21
44.1594
  0
LINE
  8
0
 10
-104.149
 20
44.1594
 11
-103.882
 21
43.5912
  0
LINE
  8
0
 10
-103.882
 20
43.5912
 11
-103.545
 21
43.0611
  0
LINE
  8
0
 10
-103.545
 20
43.0611
 11
-103.145
 21
42.5773
  0
LINE
  8
0
 10
-103.145
 20
42.5773
 11
-102.687
 21
42.1474
  0
LINE
  8
0
 10
-102.687
 20
42.1474
 11
-102.179
 21
41.7784
  0
LINE
  8
0
 10
-102.179
 20
41.7784
 11
-101.629
 21
41.4759
  0
LINE
  8
0
 10
-101.629
 20
41.4759
 11
-101.045
 21
41.2447
  0
LINE
  8
0
 10
-101.045
 20
41.2447
 11
-100.437
 21
41.0886
  0
LINE
  8
0
 10
-100.437
 20
41.0886
 11
-99.8139
 21
41.0099
  0
LINE
  8
0
 10
-99.8139
 20
41.0099
 11
99.8139
 21
41.0099
  0
LINE
  8
0
 10
99.8139
 20
41.0099
 11
100.437
 21
41.0886
  0
LINE
  8
0
 10
97.3116
 20
45.0059
 11
96.9379
 21
45.0531
  0
LINE
  8
0
 10
96.9379
 20
45.0531
 11
96.573
 21
45.1468
  0
LINE
  8
0
 10
96.573
 20
45.1468
 11
96.2227
 21
45.2855
  0
LINE
  8
0
 10
96.2227
 20
45.2855
 11
95.8925
 21
45.467
  0
LINE
  8
0
 10
95.8925
 20
45.467
 11
95.5877
 21
45.6885
  0
LINE
  8
0
 10
95.5877
 20
45.6885
 11
95.3131
 21
45.9464
  0
LINE
  8
0
 10
95.3131
 20
45.9464
 11
95.073
 21
46.2366
  0
LINE
  8
0
 10
95.073
 20
46.2366
 11
94.8711
 21
46.5547
  0
LINE
  8
0
 10
94.8711
 20
46.5547
 11
94.7107
 21
46.8956
  0
LINE
  8
0
 10
94.7107
 20
46.8956
 11
94.5943
 21
47.2539
  0
LINE
  8
0
 10
94.5943
 20
47.2539
 11
94.5237
 21
47.624
  0
LINE
  8
0
 10
94.5237
 20
47.624
 11
94.5
 21
48
  0
LINE
  8
0
 10
94.5
 20
48
 11
94.5237
 21
48.376
  0
LINE
  8
0
 10
94.5237
 20
48.376
 11
94.5943
 21
48.7461
  0
LINE
  8
0
 10
94.5943
 20
48.7461
 11
94.7107
 21
49.1044
  0
LINE
  8
0
 10
94.7107
 20
49.1044
 11
94.8711
 21
49.4453
  0
LINE
  8
0
 10
94.8711
 20
49.4453
 11
95.073
 21
49.7634
  0
LINE
  8
0
 10
95.073
 20
49.7634
 11
95.3131
 21
50.0536
  0
LINE
  8
0
 10
95.3131
 20
50.0536
 11
95.5877
 21
50.3115
  0
LINE
  8
0
 10
95.5877
 20
50.3115
 11
95.8925
 21
50.533
  0
LINE
  8
0
 10
95.8925
 20
50.533
 11
96.2227
 21
50.7145
  0
LINE
  8
0
 10
96.2227
 20
50.7145
 11
96.573
 21
50.8532
  0
LINE
  8
0
 10
96.573
 20
50.8532
 11
96.9379
 21
50.9469
  0
LINE
  8
0
 10
96.9379
 20
50.9469
 11
97.3116
 21
50.9941
  0
LINE
  8
0
 10
97.3116
 20
50.9941
 11
97.6884
 21
50.9941
  0
LINE
  8
0
 10
97.6884
 20
50.9941
 11
98.0621
 21
50.9469
  0
LINE
  8
0
 10
98.0621
 20
50.9469
 11
98.427
 21
50.8532
  0
LINE
  8
0
 10
98.427
 20
50.8532
 11
98.7773
 21
50.7145
  0
LINE
  8
0
 10
98.7773
 20
50.7145
 11
99.1075
 21
50.533
  0
LINE
  8
0
 10
99.1075
 20
50.533
 11
99.4123
 21
50.3115
  0
LINE
  8
0
 10
99.4123
 20
50.3115
 11
99.6869
 21
50.0536
  0
LINE
  8
0
 10
99.6869
 20
50.0536
 11
99.927
 21
49.7634
  0
LINE
  8
0
 10
99.927
 20
49.7634
 11
100.129
 21
49.4453
  0
LINE
  8
0
 10
100.129
 20
49.4453
 11
100.289
 21
49.1044
  0
LINE
  8
0
 10
100.289
 20
49.1044
 11
100.406
 21
48.7461
  0
LINE
  8
0
 10
100.406
 20
48.7461
 11
100.476
 21
48.376
  0
LINE
  8
0
 10
100.476
 20
48.376
 11
100.5
 21
48
  0
LINE
  8
0
 10
100.5
 20
48
 11
100.476
 21
47.624
  0
LINE
  8
0
 10
100.476
 20
47.624
 11
100.406
 21
47.2539
  0
LINE
  8
0
 10
100.406
 20
47.2539
 11
100.289
 21
46.8956
  0
LINE
  8
0
 10
100.289
 20
46.8956
 11
100.129
 21
46.5547
  0
LINE
  8
0
 10
100.129
 20
46.5547
 11
99.927
 21
46.2366
  0
LINE
  8
0
 10
99.927
 20
46.2366
 11
99.6869
 21
45.9464
  0
LINE
  8
0
 10
99.6869
 20
45.9464
 11
99.4123
 21
45.6885
  0
LINE
  8
0
 10
99.4123
 20
45.6885
 11
99.1075
 21
45.467
  0
LINE
  8
0
 10
99.1075
 20
45.467
 11
98.7773
 21
45.2855
  0
LINE
  8
0
 10
98.7773
 20
45.2855
 11
98.427
 21
45.1468
  0
LINE
  8
0
 10
98.427
 20
45.1468
 11
98.0621
 21
45.0531
  0
LINE
  8
0
 10
98.0621
 20
45.0531
 11
97.6884
 21
45.0059
  0
LINE
  8
0
 10
97.6884
 20
45.0059
 11
97.3116
 21
45.0059
  0
LINE
  8
0
 10
-97.6884
 20
45.0059
 11
-98.0621
 21
45.0531
  0
LINE
  8
0
 10
-98.0621
 20
45.0531
 11
-98.427
 21
45.1468
  0
LINE
  8
0
 10
-98.427
 20
45.1468
 11
-98.7773
 21
45.2855
  0
LINE
  8
0
 10
-98.7773
 20
45.2855
 11
-99.1075
 21
45.467
  0
LINE
  8
0
 10
-99.1075
 20
45.467
 11
-99.4123
 21
45.6885
  0
LINE
  8
0
 10
-99.4123
 20
45.6885
 11
-99.6869
 21
45.9464
  0
LINE
  8
0
 10
-99.6869
 20
45.9464
 11
-99.927
 21
46.2366
  0
LINE
  8
0
 10
-99.927
 20
46.2366
 11
-100.129
 21
46.5547
  0
LINE
  8
0
 10
-100.129
 20
46.5547
 11
-100.289
 21
46.8956
  0
LINE
  8
0
 10
-100.289
 20
46.8956
 11
-100.406
 21
47.2539
  0
LINE
  8
0
 10
-100.406
 20
47.2539
 11
-100.476
 21
47.624
  0
LINE
  8
0
 10
-100.476
 20
47.624
 11
-100.5
 21
48
  0
LINE
  8
0
 10
-100.5
 20
48
 11
-100.476
 21
48.376
  0
LINE
  8
0
 10
-100.476
 20
48.376
 11
-100.406
 21
48.7461
  0
LINE
  8
0
 10
-100.406
 20
48.7461
 11
-100.289
 21
49.1044
  0
LINE
  8
0
 10
-100.289
 20
49.1044
 11
-100.129
 21
49.4453
  0
LINE
  8
0
 10
-100.129
 20
49.4453
 11
-99.927
 21
49.7634
  0
LINE
  8
0
 10
-99.927
 20
49.7634
 11
-99.6869
 21
50.0536
  0
LINE
  8
0
 10
-99.6869
 20
50.0536
 11
-99.4123
 21
50.3115
  0
LINE
  8
0
 10
-99.4123
 20
50.3115
 11
-99.1075
 21
50.533
  0
LINE
  8
0
 10
-99.1075
 20
50.533
 11
-98.7773
 21
50.7145
  0
LINE
  8
0
 10
-98.7773
 20
50.7145
 11
-98.427
 21
50.8532
  0
LINE
  8
0
 10
-98.427
 20
50.8532
 11
-98.0621
 21
50.9469
  0
LINE
  8
0
 10
-98.0621
 20
50.9469
 11
-97.6884
 21
50.9941
  0
LINE
  8
0
 10
-97.6884
 20
50.9941
 11
-97.3116
 21
50.9941
  0
LINE
  8
0
 10
-97.3116
 20
50.9941
 11
-96.9379
 21
50.9469
  0
LINE
  8
0
 10
-96.9379
 20
50.9469
 11
-96.573
 21
50.8532
  0
LINE
  8
0
 10
-96.573
 20
50.8532
 11
-96.2227
 21
50.7145
  0
LINE
  8
0
 10
-96.2227
 20
50.7145
 11
-95.8925
 21
50.533
  0
LINE
  8
0
 10
-95.8925
 20
50.533
 11
-95.5877
 21
50.3115
  0
LINE
  8
0
 10
-95.5877
 20
50.3115
 11
-95.3131
 21
50.0536
  0
LINE
  8
0
 10
-95.3131
 20
50.0536
 11
-95.073
 21
49.7634
  0
LINE
  8
0
 10
-95.073
 20
49.7634
 11
-94.8711
 21
49.4453
  0
LINE
  8
0
 10
-94.8711
 20
49.4453
 11
-94.7107
 21
49.1044
  0
LINE
  8
0
 10
-94.7107
 20
49.1044
 11
-94.5943
 21
48.7461
  0
LINE
  8
0
 10
-94.5943
 20
48.7461
 11
-94.5237
 21
48.376
  0
LINE
  8
0
 10
-94.5237
 20
48.376
 11
-94.5
 21
48
  0
LINE
  8
0
 10
-94.5
 20
48
 11
-94.5237
 21
47.624
  0
LINE
  8
0
 10
-94.5237
 20
47.624
 11
-94.5943
 21
47.2539
  0
LINE
  8
0
 10
-94.5943
 20
47.2539
 11
-94.7107
 21
46.8956
  0
LINE
  8
0
 10
-94.7107
 20
46.8956
 11
-94.8711
 21
46.5547
  0
LINE
  8
0
 10
-94.8711
 20
46.5547
 11
-95.073
 21
46.2366
  0
LINE
  8
0
 10
-95.073
 20
46.2366
 11
-95.3131
 21
45.9464
  0
LINE
  8
0
 10
-95.3131
 20
45.9464
 11
-95.5877
 21
45.6885
  0
LINE
  8
0
 10
-95.5877
 20
45.6885
 11
-95.8925
 21
45.467
  0
LINE
  8
0
 10
-95.8925
 20
45.467
 11
-96.2227
 21
45.2855
  0
LINE
  8
0
 10
-96.2227
 20
45.2855
 11
-96.573
 21
45.1468
  0
LINE
  8
0
 10
-96.573
 20
45.1468
 11
-96.9379
 21
45.0531
  0
LINE
  8
0
 10
-96.9379
 20
45.0531
 11
-97.3116
 21
45.0059
  0
LINE
  8
0
 10
-97.3116
 20
45.0059
 11
-97.6884
 21
45.0059
  0
LINE
  8
0
 10
100.437
 20
17.0886
 11
101.045
 21
17.2447
  0
LINE
  8
0
 10
101.045
 20
17.2447
 11
101.629
 21
17.4759
  0
LINE
  8
0
 10
101.629
 20
17.4759
 11
102.179
 21
17.7784
  0
LINE
  8
0
 10
102.179
 20
17.7784
 11
102.687
 21
18.1474
  0
LINE
  8
0
 10
102.687
 20
18.1474
 11
103.145
 21
18.5773
  0
LINE
  8
0
 10
103.145
 20
18.5773
 11
103.545
 21
19.0611
  0
LINE
  8
0
 10
103.545
 20
19.0611
 11
103.882
 21
19.5912
  0
LINE
  8
0
 10
103.882
 20
19.5912
 11
104.149
 21
20.1594
  0
LINE
  8
0
 10
104.149
 20
20.1594
 11
104.343
 21
20.7566
  0
LINE
  8
0
 10
104.343
 20
20.7566
 11
104.461
 21
21.3733
  0
LINE
  8
0
 10
104.461
 20
21.3733
 11
104.5
 21
22
  0
LINE
  8
0
 10
104.5
 20
22
 11
104.5
 21
26
  0
LINE
  8
0
 10
104.5
 20
26
 11
104.461
 21
26.6267
  0
LINE
  8
0
 10
104.461
 20
26.6267
 11
104.343
 21
27.2434
  0
LINE
  8
0
 10
104.343
 20
27.2434
 11
104.149
 21
27.8406
  0
LINE
  8
0
 10
104.149
 20
27.8406
 11
103.882
 21
28.4088
  0
LINE
  8
0
 10
103.882
 20
28.4088
 11
103.545
 21
28.9389
  0
LINE
  8
0
 10
103.545
 20
28.9389
 11
103.145
 21
29.4227
  0
LINE
  8
0
 10
103.145
 20
29.4227
 11
102.687
 21
29.8526
  0
LINE
  8
0
 10
102.687
 20
29.8526
 11
102.179
 21
30.2216
  0
LINE
  8
0
 10
102.179
 20
30.2216
 11
101.629
 21
30.5241
  0
LINE
  8
0
 10
101.629
 20
30.5241
 11
101.045
 21
30.7553
  0
LINE
  8
0
 10
101.045
 20
30.7553
 11
100.437
 21
30.9114
  0
LINE
  8
0
 10
100.437
 20
30.9114
 11
99.8139
 21
30.9901
  0
LINE
  8
0
 10
99.8139
 20
30.9901
 11
-99.8139
 21
30.9901
  0
LINE
  8
0
 10
-99.8139
 20
30.9901
 11
-100.437
 21
30.9114
  0
LINE
  8
0
 10
-100.437
 20
30.9114
 11
-101.045
 21
30.7553
  0
LINE
  8
0
 10
-101.045
 20
30.7553
 11
-101.629
 21
30.5241
  0
LINE
  8
0
 10
-101.629
 20
30.5241
 11
-102.179
 21
30.2216
  0
LINE
  8
0
 10
-102.179
 20
30.2216
 11
-102.687
 21
29.8526
  0
LINE
  8
0
 10
-102.687
 20
29.8526
 11
-103.145
 21
29.4227
  0
LINE
  8
0
 10
-103.145
 20
29.4227
 11
-103.545
 21
28.9389
  0
LINE
  8
0
 10
-103.545
 20
28.9389
 11
-103.882
 21
28.4088
  0
LINE
  8
0
 10
-103.882
 20
28.4088
 11
-104.149
 21
27.8406
  0
LINE
  8
0
 10
-104.149
 20
27.8406
 11
-104.343
 21
27.2434
  0
LINE
  8
0
 10
-104.343
 20
27.2434
 11
-104.461
 21
26.6267
  0
LINE
  8
0
 10
-104.461
 20
26.6267
 11
-104.5
 21
26
  0
LINE
  8
0
 10
-104.5
 20
26
 11
-104.5
 21
22
  0
LINE
  8
0
 10
-104.5
 20
22
 11
-104.461
 21
21.3733
  0
LINE
  8
0
 10
-104.461
 20
21.3733
 11
-104.343
 21
20.7566
  0
LINE
  8
0
 10
-104.343
 20
20.7566
 11
-104.149
 21
20.1594
  0
LINE
  8
0
 10
-104.149
 20
20.1594
 11
-103.882
 21
19.5912
  0
LINE
  8
0
 10
-103.882
 20
19.5912
 11
-103.545
 21
19.0611
  0
LINE
  8
0
 10
-103.545
 20
19.0611
 11
-103.145
 21
18.5773
  0
LINE
  8
0
 10
-103.145
 20
18.5773
 11
-102.687
 21
18.1474
  0
LINE
  8
0
 10
-102.687
 20
18.1474
 11
-102.179
 21
17.7784
  0
LINE
  8
0
 10
-102.179
 20
17.7784
 11
-101.629
 21
17.4759
  0
LINE
  8
0
 10
-101.629
 20
17.4759
 11
-101.045
 21
17.2447
  0
LINE
  8
0
 10
-101.045
 20
17.2447
 11
-100.437
 21
17.0886
  0
LINE
  8
0
 10
-100.437
 20
17.0886
 11
-99.8139
 21
17.0099
  0
LINE
  8
0
 10
-99.8139
 20
17.0099
 11
99.8139
 21
17.0099
  0
LINE
  8
0
 10
99.8139
 20
17.0099
 11
100.437
 21
17.0886
  0
LINE
  8
0
 10
-97.6884
 20
21.0059
 11
-98.0621
 21
21.0531
  0
LINE
  8
0
 10
-98.0621
 20
21.0531
 11
-98.427
 21
21.1468
  0
LINE
  8
0
 10
-98.427
 20
21.1468
 11
-98.7773
 21
21.2855
  0
LINE
  8
0
 10
-98.7773
 20
21.2855
 11
-99.1075
 21
21.467
  0
LINE
  8
0
 10
-99.1075
 20
21.467
 11
-99.4123
 21
21.6885
  0
LINE
  8
0
 10
-99.4123
 20
21.6885
 11
-99.6869
 21
21.9464
  0
LINE
  8
0
 10
-99.6869
 20
21.9464
 11
-99.927
 21
22.2366
  0
LINE
  8
0
 10
-99.927
 20
22.2366
 11
-100.129
 21
22.5547
  0
LINE
  8
0
 10
-100.129
 20
22.5547
 11
-100.289
 21
22.8956
  0
LINE
  8
0
 10
-100.289
 20
22.8956
 11
-100.406
 21
23.2539
  0
LINE
  8
0
 10
-100.406
 20
23.2539
 11
-100.476
 21
23.624
  0
LINE
  8
0
 10
-100.476
 20
23.624
 11
-100.5
 21
24
  0
LINE
  8
0
 10
-100.5
 20
24
 11
-100.476
 21
24.376
  0
LINE
  8
0
 10
-100.476
 20
24.376
 11
-100.406
 21
24.7461
  0
LINE
  8
0
 10
-100.406
 20
24.7461
 11
-100.289
 21
25.1044
  0
LINE
  8
0
 10
-100.289
 20
25.1044
 11
-100.129
 21
25.4453
  0
LINE
  8
0
 10
-100.129
 20
25.4453
 11
-99.927
 21
25.7634
  0
LINE
  8
0
 10
-99.927
 20
25.7634
 11
-99.6869
 21
26.0536
  0
LINE
  8
0
 10
-99.6869
 20
26.0536
 11
-99.4123
 21
26.3115
  0
LINE
  8
0
 10
-99.4123
 20
26.3115
 11
-99.1075
 21
26.533
  0
LINE
  8
0
 10
-99.1075
 20
26.533
 11
-98.7773
 21
26.7145
  0
LINE
  8
0
 10
-98.7773
 20
26.7145
 11
-98.427
 21
26.8532
  0
LINE
  8
0
 10
-98.427
 20
26.8532
 11
-98.0621
 21
26.9469
  0
LINE
  8
0
 10
-98.0621
 20
26.9469
 11
-97.6884
 21
26.9941
  0
LINE
  8
0
 10
-97.6884
 20
26.9941
 11
-97.3116
 21
26.9941
  0
LINE
  8
0
 10
-97.3116
 20
26.9941
 11
-96.9379
 21
26.9469
  0
LINE
  8
0
 10
-96.9379
 20
26.9469
 11
-96.573
 21
26.8532
  0
LINE
  8
0
 10
-96.573
 20
26.8532
 11
-96.2227
 21
26.7145
  0
LINE
  8
0
 10
-96.2227
 20
26.7145
 11
-95.8925
 21
26.533
  0
LINE
  8
0
 10
-95.8925
 20
26.533
 11
-95.5877
 21
26.3115
  0
LINE
  8
0
 10
-95.5877
 20
26.3115
 11
-95.3131
 21
26.0536
  0
LINE
  8
0
 10
-95.3131
 20
26.0536
 11
-95.073
 21
25.7634
  0
LINE
  8
0
 10
-95.073
 20
25.7634
 11
-94.8711
 21
25.4453
  0
LINE
  8
0
 10
-94.8711
 20
25.4453
 11
-94.7107
 21
25.1044
  0
LINE
  8
0
 10
-94.7107
 20
25.1044
 11
-94.5943
 21
24.7461
  0
LINE
  8
0
 10
-94.5943
 20
24.7461
 11
-94.5237
 21
24.376
  0
LINE
  8
0
 10
-94.5237
 20
24.376
 11
-94.5
 21
24
  0
LINE
  8
0
 10
-94.5
 20
24
 11
-94.5237
 21
23.624
  0
LINE
  8
0
 10
-94.5237
 20
23.624
 11
-94.5943
 21
23.2539
  0
LINE
  8
0
 10
-94.5943
 20
23.2539
 11
-94.7107
 21
22.8956
  0
LINE
  8
0
 10
-94.7107
 20
22.8956
 11
-94.8711
 21
22.5547
  0
LINE
  8
0
 10
-94.8711
 20
22.5547
 11
-95.073
 21
22.2366
  0
LINE
  8
0
 10
-95.073
 20
22.2366
 11
-95.3131
 21
21.9464
  0
LINE
  8
0
 10
-95.3131
 20
21.9464
 11
-95.5877
 21
21.6885
  0
LINE
  8
0
 10
-95.5877
 20
21.6885
 11
-95.8925
 21
21.467
  0
LINE
  8
0
 10
-95.8925
 20
21.467
 11
-96.2227
 21
21.2855
  0
LINE
  8
0
 10
-96.2227
 20
21.2855
 11
-96.573
 21
21.1468
  0
LINE
  8
0
 10
-96.573
 20
21.1468
 11
-96.9379
 21
21.0531
  0
LINE
  8
0
 10
-96.9379
 20
21.0531
 11
-97.3116
 21
21.0059
  0
LINE
  8
0
 10
-97.3116
 20
21.0059
 11
-97.6884
 21
21.0059
  0
LINE
  8
0
 10
97.3116
 20
21.0059
 11
96.9379
 21
21.0531
  0
LINE
  8
0
 10
96.9379
 20
21.0531
 11
96.573
 21
21.1468
  0
LINE
  8
0
 10
96.573
 20
21.1468
 11
96.2227
 21
21.2855
  0
LINE
  8
0
 10
96.2227
 20
21.2855
 11
95.8925
 21
21.467
  0
LINE
  8
0
 10
95.8925
 20
21.467
 11
95.5877
 21
21.6885
  0
LINE
  8
0
 10
95.5877
 20
21.6885
 11
95.3131
 21
21.9464
  0
LINE
  8
0
 10
95.3131
 20
21.9464
 11
95.073
 21
22.2366
  0
LINE
  8
0
 10
95.073
 20
22.2366
 11
94.8711
 21
22.5547
  0
LINE
  8
0
 10
94.8711
 20
22.5547
 11
94.7107
 21
22.8956
  0
LINE
  8
0
 10
94.7107
 20
22.8956
 11
94.5943
 21
23.2539
  0
LINE
  8
0
 10
94.5943
 20
23.2539
 11
94.5237
 21
23.624
  0
LINE
  8
0
 10
94.5237
 20
23.624
 11
94.5
 21
24
  0
LINE
  8
0
 10
94.5
 20
24
 11
94.5237
 21
24.376
  0
LINE
  8
0
 10
94.5237
 20
24.376
 11
94.5943
 21
24.7461
  0
LINE
  8
0
 10
94.5943
 20
24.7461
 11
94.7107
 21
25.1044
  0
LINE
  8
0
 10
94.7107
 20
25.1044
 11
94.8711
 21
25.4453
  0
LINE
  8
0
 10
94.8711
 20
25.4453
 11
95.073
 21
25.7634
  0
LINE
  8
0
 10
95.073
 20
25.7634
 11
95.3131
 21
26.0536
  0
LINE
  8
0
 10
95.3131
 20
26.0536
 11
95.5877
 21
26.3115
  0
LINE
  8
0
 10
95.5877
 20
26.3115
 11
95.8925
 21
26.533
  0
LINE
  8
0
 10
95.8925
 20
26.533
 11
96.2227
 21
26.7145
  0
LINE
  8
0
 10
96.2227
 20
26.7145
 11
96.573
 21
26.8532
  0
LINE
  8
0
 10
96.573
 20
26.8532
 11
96.9379
 21
26.9469
  0
LINE
  8
0
 10
96.9379
 20
26.9469
 11
97.3116
 21
26.9941
  0
LINE
  8
0
 10
97.3116
 20
26.9941
 11
97.6884
 21
26.9941
  0
LINE
  8
0
 10
97.6884
 20
26.9941
 11
98.0621
 21
26.9469
  0
LINE
  8
0
 10
98.0621
 20
26.9469
 11
98.427
 21
26.8532
  0
LINE
  8
0
 10
98.427
 20
26.8532
 11
98.7773
 21
26.7145
  0
LINE
  8
0
 10
98.7773
 20
26.7145
 11
99.1075
 21
26.533
  0
LINE
  8
0
 10
99.1075
 20
26.533
 11
99.4123
 21
26.3115
  0
LINE
  8
0
 10
99.4123
 20
26.3115
 11
99.6869
 21
26.0536
  0
LINE
  8
0
 10
99.6869
 20
26.0536
 11
99.927
 21
25.7634
  0
LINE
  8
0
 10
99.927
 20
25.7634
 11
100.129
 21
25.4453
  0
LINE
  8
0
 10
100.129
 20
25.4453
 11
100.289
 21
25.1044
  0
LINE
  8
0
 10
100.289
 20
25.1044
 11
100.406
 21
24.7461
  0
LINE
  8
0
 10
100.406
 20
24.7461
 11
100.476
 21
24.376
  0
LINE
  8
0
 10
100.476
 20
24.376
 11
100.5
 21
24
  0
LINE
  8
0
 10
100.5
 20
24
 11
100.476
 21
23.624
  0
LINE
  8
0
 10
100.476
 20
23.624
 11
100.406
 21
23.2539
  0
LINE
  8
0
 10
100.406
 20
23.2539
 11
100.289
 21
22.8956
  0
LINE
  8
0
 10
100.289
 20
22.8956
 11
100.129
 21
22.5547
  0
LINE
  8
0
 10
100.129
 20
22.5547
 11
99.927
 21
22.2366
  0
LINE
  8
0
 10
99.927
 20
22.2366
 11
99.6869
 21
21.9464
  0
LINE
  8
0
 10
99.6869
 20
21.9464
 11
99.4123
 21
21.6885
  0
LINE
  8
0
 10
99.4123
 20
21.6885
 11
99.1075
 21
21.467
  0
LINE
  8
0
 10
99.1075
 20
21.467
 11
98.7773
 21
21.2855
  0
LINE
  8
0
 10
98.7773
 20
21.2855
 11
98.427
 21
21.1468
  0
LINE
  8
0
 10
98.427
 20
21.1468
 11
98.0621
 21
21.0531
  0
LINE
  8
0
 10
98.0621
 20
21.0531
 11
97.6884
 21
21.0059
  0
LINE
  8
0
 10
97.6884
 20
21.0059
 11
97.3116
 21
21.0059
  0
ENDSEC
  0
SECTION
  2
OBJECTS
  0
DICTIONARY
  0
ENDSEC
  0
EOF
