  0
SECTION
  2
BLOCKS
  0
ENDSEC
  0
SECTION
  2
ENTITIES
  0
LINE
  8
0
 10
40.4369
 20
-44.4114
 11
41.0451
 21
-44.2553
  0
LINE
  8
0
 10
41.0451
 20
-44.2553
 11
41.6289
 21
-44.0241
  0
LINE
  8
0
 10
41.6289
 20
-44.0241
 11
42.1791
 21
-43.7216
  0
LINE
  8
0
 10
42.1791
 20
-43.7216
 11
42.6871
 21
-43.3526
  0
LINE
  8
0
 10
42.6871
 20
-43.3526
 11
43.1448
 21
-42.9227
  0
LINE
  8
0
 10
43.1448
 20
-42.9227
 11
43.5451
 21
-42.4389
  0
LINE
  8
0
 10
43.5451
 20
-42.4389
 11
43.8815
 21
-41.9088
  0
LINE
  8
0
 10
43.8815
 20
-41.9088
 11
44.1489
 21
-41.3406
  0
LINE
  8
0
 10
44.1489
 20
-41.3406
 11
44.3429
 21
-40.7434
  0
LINE
  8
0
 10
44.3429
 20
-40.7434
 11
44.4606
 21
-40.1267
  0
LINE
  8
0
 10
44.4606
 20
-40.1267
 11
44.5
 21
-39.5
  0
LINE
  8
0
 10
44.5
 20
-39.5
 11
44.5
 21
39.5
  0
LINE
  8
0
 10
44.5
 20
39.5
 11
44.4606
 21
40.1267
  0
LINE
  8
0
 10
44.4606
 20
40.1267
 11
44.3429
 21
40.7434
  0
LINE
  8
0
 10
44.3429
 20
40.7434
 11
44.1489
 21
41.3406
  0
LINE
  8
0
 10
44.1489
 20
41.3406
 11
43.8815
 21
41.9088
  0
LINE
  8
0
 10
43.8815
 20
41.9088
 11
43.5451
 21
42.4389
  0
LINE
  8
0
 10
43.5451
 20
42.4389
 11
43.1448
 21
42.9227
  0
LINE
  8
0
 10
43.1448
 20
42.9227
 11
42.6871
 21
43.3526
  0
LINE
  8
0
 10
42.6871
 20
43.3526
 11
42.1791
 21
43.7216
  0
LINE
  8
0
 10
42.1791
 20
43.7216
 11
41.6289
 21
44.0241
  0
LINE
  8
0
 10
41.6289
 20
44.0241
 11
41.0451
 21
44.2553
  0
LINE
  8
0
 10
41.0451
 20
44.2553
 11
40.4369
 21
44.4114
  0
LINE
  8
0
 10
40.4369
 20
44.4114
 11
39.8139
 21
44.4901
  0
LINE
  8
0
 10
39.8139
 20
44.4901
 11
-39.8139
 21
44.4901
  0
LINE
  8
0
 10
-39.8139
 20
44.4901
 11
-40.4369
 21
44.4114
  0
LINE
  8
0
 10
-40.4369
 20
44.4114
 11
-41.0451
 21
44.2553
  0
LINE
  8
0
 10
-41.0451
 20
44.2553
 11
-41.6289
 21
44.0241
  0
LINE
  8
0
 10
-41.6289
 20
44.0241
 11
-42.1791
 21
43.7216
  0
LINE
  8
0
 10
-42.1791
 20
43.7216
 11
-42.6871
 21
43.3526
  0
LINE
  8
0
 10
-42.6871
 20
43.3526
 11
-43.1448
 21
42.9227
  0
LINE
  8
0
 10
-43.1448
 20
42.9227
 11
-43.5451
 21
42.4389
  0
LINE
  8
0
 10
-43.5451
 20
42.4389
 11
-43.8815
 21
41.9088
  0
LINE
  8
0
 10
-43.8815
 20
41.9088
 11
-44.1489
 21
41.3406
  0
LINE
  8
0
 10
-44.1489
 20
41.3406
 11
-44.3429
 21
40.7434
  0
LINE
  8
0
 10
-44.3429
 20
40.7434
 11
-44.4606
 21
40.1267
  0
LINE
  8
0
 10
-44.4606
 20
40.1267
 11
-44.5
 21
39.5
  0
LINE
  8
0
 10
-44.5
 20
39.5
 11
-44.5
 21
-39.5
  0
LINE
  8
0
 10
-44.5
 20
-39.5
 11
-44.4606
 21
-40.1267
  0
LINE
  8
0
 10
-44.4606
 20
-40.1267
 11
-44.3429
 21
-40.7434
  0
LINE
  8
0
 10
-44.3429
 20
-40.7434
 11
-44.1489
 21
-41.3406
  0
LINE
  8
0
 10
-44.1489
 20
-41.3406
 11
-43.8815
 21
-41.9088
  0
LINE
  8
0
 10
-43.8815
 20
-41.9088
 11
-43.5451
 21
-42.4389
  0
LINE
  8
0
 10
-43.5451
 20
-42.4389
 11
-43.1448
 21
-42.9227
  0
LINE
  8
0
 10
-43.1448
 20
-42.9227
 11
-42.6871
 21
-43.3526
  0
LINE
  8
0
 10
-42.6871
 20
-43.3526
 11
-42.1791
 21
-43.7216
  0
LINE
  8
0
 10
-42.1791
 20
-43.7216
 11
-41.6289
 21
-44.0241
  0
LINE
  8
0
 10
-41.6289
 20
-44.0241
 11
-41.0451
 21
-44.2553
  0
LINE
  8
0
 10
-41.0451
 20
-44.2553
 11
-40.4369
 21
-44.4114
  0
LINE
  8
0
 10
-40.4369
 20
-44.4114
 11
-39.8139
 21
-44.4901
  0
LINE
  8
0
 10
-39.8139
 20
-44.4901
 11
39.8139
 21
-44.4901
  0
LINE
  8
0
 10
39.8139
 20
-44.4901
 11
40.4369
 21
-44.4114
  0
LINE
  8
0
 10
-37.6884
 20
34.5059
 11
-38.0621
 21
34.5531
  0
LINE
  8
0
 10
-38.0621
 20
34.5531
 11
-38.427
 21
34.6468
  0
LINE
  8
0
 10
-38.427
 20
34.6468
 11
-38.7773
 21
34.7855
  0
LINE
  8
0
 10
-38.7773
 20
34.7855
 11
-39.1075
 21
34.967
  0
LINE
  8
0
 10
-39.1075
 20
34.967
 11
-39.4123
 21
35.1885
  0
LINE
  8
0
 10
-39.4123
 20
35.1885
 11
-39.6869
 21
35.4464
  0
LINE
  8
0
 10
-39.6869
 20
35.4464
 11
-39.927
 21
35.7366
  0
LINE
  8
0
 10
-39.927
 20
35.7366
 11
-40.1289
 21
36.0547
  0
LINE
  8
0
 10
-40.1289
 20
36.0547
 11
-40.2893
 21
36.3956
  0
LINE
  8
0
 10
-40.2893
 20
36.3956
 11
-40.4057
 21
36.7539
  0
LINE
  8
0
 10
-40.4057
 20
36.7539
 11
-40.4763
 21
37.124
  0
LINE
  8
0
 10
-40.4763
 20
37.124
 11
-40.5
 21
37.5
  0
LINE
  8
0
 10
-40.5
 20
37.5
 11
-40.4763
 21
37.876
  0
LINE
  8
0
 10
-40.4763
 20
37.876
 11
-40.4057
 21
38.2461
  0
LINE
  8
0
 10
-40.4057
 20
38.2461
 11
-40.2893
 21
38.6044
  0
LINE
  8
0
 10
-40.2893
 20
38.6044
 11
-40.1289
 21
38.9453
  0
LINE
  8
0
 10
-40.1289
 20
38.9453
 11
-39.927
 21
39.2634
  0
LINE
  8
0
 10
-39.927
 20
39.2634
 11
-39.6869
 21
39.5536
  0
LINE
  8
0
 10
-39.6869
 20
39.5536
 11
-39.4123
 21
39.8115
  0
LINE
  8
0
 10
-39.4123
 20
39.8115
 11
-39.1075
 21
40.033
  0
LINE
  8
0
 10
-39.1075
 20
40.033
 11
-38.7773
 21
40.2145
  0
LINE
  8
0
 10
-38.7773
 20
40.2145
 11
-38.427
 21
40.3532
  0
LINE
  8
0
 10
-38.427
 20
40.3532
 11
-38.0621
 21
40.4469
  0
LINE
  8
0
 10
-38.0621
 20
40.4469
 11
-37.6884
 21
40.4941
  0
LINE
  8
0
 10
-37.6884
 20
40.4941
 11
-37.3116
 21
40.4941
  0
LINE
  8
0
 10
-37.3116
 20
40.4941
 11
-36.9379
 21
40.4469
  0
LINE
  8
0
 10
-36.9379
 20
40.4469
 11
-36.5729
 21
40.3532
  0
LINE
  8
0
 10
-36.5729
 20
40.3532
 11
-36.2227
 21
40.2145
  0
LINE
  8
0
 10
-36.2227
 20
40.2145
 11
-35.8925
 21
40.033
  0
LINE
  8
0
 10
-35.8925
 20
40.033
 11
-35.5877
 21
39.8115
  0
LINE
  8
0
 10
-35.5877
 20
39.8115
 11
-35.3131
 21
39.5536
  0
LINE
  8
0
 10
-35.3131
 20
39.5536
 11
-35.0729
 21
39.2634
  0
LINE
  8
0
 10
-35.0729
 20
39.2634
 11
-34.8711
 21
38.9453
  0
LINE
  8
0
 10
-34.8711
 20
38.9453
 11
-34.7107
 21
38.6044
  0
LINE
  8
0
 10
-34.7107
 20
38.6044
 11
-34.5942
 21
38.2461
  0
LINE
  8
0
 10
-34.5942
 20
38.2461
 11
-34.5237
 21
37.876
  0
LINE
  8
0
 10
-34.5237
 20
37.876
 11
-34.5
 21
37.5
  0
LINE
  8
0
 10
-34.5
 20
37.5
 11
-34.5237
 21
37.124
  0
LINE
  8
0
 10
-34.5237
 20
37.124
 11
-34.5942
 21
36.7539
  0
LINE
  8
0
 10
-34.5942
 20
36.7539
 11
-34.7107
 21
36.3956
  0
LINE
  8
0
 10
-34.7107
 20
36.3956
 11
-34.8711
 21
36.0547
  0
LINE
  8
0
 10
-34.8711
 20
36.0547
 11
-35.0729
 21
35.7366
  0
LINE
  8
0
 10
-35.0729
 20
35.7366
 11
-35.3131
 21
35.4464
  0
LINE
  8
0
 10
-35.3131
 20
35.4464
 11
-35.5877
 21
35.1885
  0
LINE
  8
0
 10
-35.5877
 20
35.1885
 11
-35.8925
 21
34.967
  0
LINE
  8
0
 10
-35.8925
 20
34.967
 11
-36.2227
 21
34.7855
  0
LINE
  8
0
 10
-36.2227
 20
34.7855
 11
-36.5729
 21
34.6468
  0
LINE
  8
0
 10
-36.5729
 20
34.6468
 11
-36.9379
 21
34.5531
  0
LINE
  8
0
 10
-36.9379
 20
34.5531
 11
-37.3116
 21
34.5059
  0
LINE
  8
0
 10
-37.3116
 20
34.5059
 11
-37.6884
 21
34.5059
  0
LINE
  8
0
 10
-37.5942
 20
28.503
 11
-37.7811
 21
28.5266
  0
LINE
  8
0
 10
-37.7811
 20
28.5266
 11
-37.9635
 21
28.5734
  0
LINE
  8
0
 10
-37.9635
 20
28.5734
 11
-38.1387
 21
28.6427
  0
LINE
  8
0
 10
-38.1387
 20
28.6427
 11
-38.3037
 21
28.7335
  0
LINE
  8
0
 10
-38.3037
 20
28.7335
 11
-38.4561
 21
28.8442
  0
LINE
  8
0
 10
-38.4561
 20
28.8442
 11
-38.5934
 21
28.9732
  0
LINE
  8
0
 10
-38.5934
 20
28.9732
 11
-38.7135
 21
29.1183
  0
LINE
  8
0
 10
-38.7135
 20
29.1183
 11
-38.8145
 21
29.2774
  0
LINE
  8
0
 10
-38.8145
 20
29.2774
 11
-38.8947
 21
29.4478
  0
LINE
  8
0
 10
-38.8947
 20
29.4478
 11
-38.9529
 21
29.627
  0
LINE
  8
0
 10
-38.9529
 20
29.627
 11
-38.9882
 21
29.812
  0
LINE
  8
0
 10
-38.9882
 20
29.812
 11
-39
 21
30
  0
LINE
  8
0
 10
-39
 20
30
 11
-38.9882
 21
30.188
  0
LINE
  8
0
 10
-38.9882
 20
30.188
 11
-38.9529
 21
30.373
  0
LINE
  8
0
 10
-38.9529
 20
30.373
 11
-38.8947
 21
30.5522
  0
LINE
  8
0
 10
-38.8947
 20
30.5522
 11
-38.8145
 21
30.7226
  0
LINE
  8
0
 10
-38.8145
 20
30.7226
 11
-38.7135
 21
30.8817
  0
LINE
  8
0
 10
-38.7135
 20
30.8817
 11
-38.5934
 21
31.0268
  0
LINE
  8
0
 10
-38.5934
 20
31.0268
 11
-38.4561
 21
31.1558
  0
LINE
  8
0
 10
-38.4561
 20
31.1558
 11
-38.3037
 21
31.2665
  0
LINE
  8
0
 10
-38.3037
 20
31.2665
 11
-38.1387
 21
31.3572
  0
LINE
  8
0
 10
-38.1387
 20
31.3572
 11
-37.9635
 21
31.4266
  0
LINE
  8
0
 10
-37.9635
 20
31.4266
 11
-37.7811
 21
31.4734
  0
LINE
  8
0
 10
-37.7811
 20
31.4734
 11
-37.5942
 21
31.497
  0
LINE
  8
0
 10
-37.5942
 20
31.497
 11
-37.4058
 21
31.497
  0
LINE
  8
0
 10
-37.4058
 20
31.497
 11
-37.2189
 21
31.4734
  0
LINE
  8
0
 10
-37.2189
 20
31.4734
 11
-37.0365
 21
31.4266
  0
LINE
  8
0
 10
-37.0365
 20
31.4266
 11
-36.8613
 21
31.3572
  0
LINE
  8
0
 10
-36.8613
 20
31.3572
 11
-36.6963
 21
31.2665
  0
LINE
  8
0
 10
-36.6963
 20
31.2665
 11
-36.5439
 21
31.1558
  0
LINE
  8
0
 10
-36.5439
 20
31.1558
 11
-36.4065
 21
31.0268
  0
LINE
  8
0
 10
-36.4065
 20
31.0268
 11
-36.2865
 21
30.8817
  0
LINE
  8
0
 10
-36.2865
 20
30.8817
 11
-36.1855
 21
30.7226
  0
LINE
  8
0
 10
-36.1855
 20
30.7226
 11
-36.1053
 21
30.5522
  0
LINE
  8
0
 10
-36.1053
 20
30.5522
 11
-36.0471
 21
30.373
  0
LINE
  8
0
 10
-36.0471
 20
30.373
 11
-36.0118
 21
30.188
  0
LINE
  8
0
 10
-36.0118
 20
30.188
 11
-36
 21
30
  0
LINE
  8
0
 10
-36
 20
30
 11
-36.0118
 21
29.812
  0
LINE
  8
0
 10
-36.0118
 20
29.812
 11
-36.0471
 21
29.627
  0
LINE
  8
0
 10
-36.0471
 20
29.627
 11
-36.1053
 21
29.4478
  0
LINE
  8
0
 10
-36.1053
 20
29.4478
 11
-36.1855
 21
29.2774
  0
LINE
  8
0
 10
-36.1855
 20
29.2774
 11
-36.2865
 21
29.1183
  0
LINE
  8
0
 10
-36.2865
 20
29.1183
 11
-36.4065
 21
28.9732
  0
LINE
  8
0
 10
-36.4065
 20
28.9732
 11
-36.5439
 21
28.8442
  0
LINE
  8
0
 10
-36.5439
 20
28.8442
 11
-36.6963
 21
28.7335
  0
LINE
  8
0
 10
-36.6963
 20
28.7335
 11
-36.8613
 21
28.6427
  0
LINE
  8
0
 10
-36.8613
 20
28.6427
 11
-37.0365
 21
28.5734
  0
LINE
  8
0
 10
-37.0365
 20
28.5734
 11
-37.2189
 21
28.5266
  0
LINE
  8
0
 10
-37.2189
 20
28.5266
 11
-37.4058
 21
28.503
  0
LINE
  8
0
 10
-37.4058
 20
28.503
 11
-37.5942
 21
28.503
  0
LINE
  8
0
 10
-37.6884
 20
19.5059
 11
-38.0621
 21
19.5531
  0
LINE
  8
0
 10
-38.0621
 20
19.5531
 11
-38.427
 21
19.6468
  0
LINE
  8
0
 10
-38.427
 20
19.6468
 11
-38.7773
 21
19.7855
  0
LINE
  8
0
 10
-38.7773
 20
19.7855
 11
-39.1075
 21
19.967
  0
LINE
  8
0
 10
-39.1075
 20
19.967
 11
-39.4123
 21
20.1884
  0
LINE
  8
0
 10
-39.4123
 20
20.1884
 11
-39.6869
 21
20.4464
  0
LINE
  8
0
 10
-39.6869
 20
20.4464
 11
-39.927
 21
20.7366
  0
LINE
  8
0
 10
-39.927
 20
20.7366
 11
-40.1289
 21
21.0547
  0
LINE
  8
0
 10
-40.1289
 20
21.0547
 11
-40.2893
 21
21.3956
  0
LINE
  8
0
 10
-40.2893
 20
21.3956
 11
-40.4057
 21
21.7539
  0
LINE
  8
0
 10
-40.4057
 20
21.7539
 11
-40.4763
 21
22.124
  0
LINE
  8
0
 10
-40.4763
 20
22.124
 11
-40.5
 21
22.5
  0
LINE
  8
0
 10
-40.5
 20
22.5
 11
-40.4763
 21
22.876
  0
LINE
  8
0
 10
-40.4763
 20
22.876
 11
-40.4057
 21
23.2461
  0
LINE
  8
0
 10
-40.4057
 20
23.2461
 11
-40.2893
 21
23.6044
  0
LINE
  8
0
 10
-40.2893
 20
23.6044
 11
-40.1289
 21
23.9453
  0
LINE
  8
0
 10
-40.1289
 20
23.9453
 11
-39.927
 21
24.2634
  0
LINE
  8
0
 10
-39.927
 20
24.2634
 11
-39.6869
 21
24.5536
  0
LINE
  8
0
 10
-39.6869
 20
24.5536
 11
-39.4123
 21
24.8115
  0
LINE
  8
0
 10
-39.4123
 20
24.8115
 11
-39.1075
 21
25.033
  0
LINE
  8
0
 10
-39.1075
 20
25.033
 11
-38.7773
 21
25.2145
  0
LINE
  8
0
 10
-38.7773
 20
25.2145
 11
-38.427
 21
25.3532
  0
LINE
  8
0
 10
-38.427
 20
25.3532
 11
-38.0621
 21
25.4469
  0
LINE
  8
0
 10
-38.0621
 20
25.4469
 11
-37.6884
 21
25.4941
  0
LINE
  8
0
 10
-37.6884
 20
25.4941
 11
-37.3116
 21
25.4941
  0
LINE
  8
0
 10
-37.3116
 20
25.4941
 11
-36.9379
 21
25.4469
  0
LINE
  8
0
 10
-36.9379
 20
25.4469
 11
-36.5729
 21
25.3532
  0
LINE
  8
0
 10
-36.5729
 20
25.3532
 11
-36.2227
 21
25.2145
  0
LINE
  8
0
 10
-36.2227
 20
25.2145
 11
-35.8925
 21
25.033
  0
LINE
  8
0
 10
-35.8925
 20
25.033
 11
-35.5877
 21
24.8115
  0
LINE
  8
0
 10
-35.5877
 20
24.8115
 11
-35.3131
 21
24.5536
  0
LINE
  8
0
 10
-35.3131
 20
24.5536
 11
-35.0729
 21
24.2634
  0
LINE
  8
0
 10
-35.0729
 20
24.2634
 11
-34.8711
 21
23.9453
  0
LINE
  8
0
 10
-34.8711
 20
23.9453
 11
-34.7107
 21
23.6044
  0
LINE
  8
0
 10
-34.7107
 20
23.6044
 11
-34.5942
 21
23.2461
  0
LINE
  8
0
 10
-34.5942
 20
23.2461
 11
-34.5237
 21
22.876
  0
LINE
  8
0
 10
-34.5237
 20
22.876
 11
-34.5
 21
22.5
  0
LINE
  8
0
 10
-34.5
 20
22.5
 11
-34.5237
 21
22.124
  0
LINE
  8
0
 10
-34.5237
 20
22.124
 11
-34.5942
 21
21.7539
  0
LINE
  8
0
 10
-34.5942
 20
21.7539
 11
-34.7107
 21
21.3956
  0
LINE
  8
0
 10
-34.7107
 20
21.3956
 11
-34.8711
 21
21.0547
  0
LINE
  8
0
 10
-34.8711
 20
21.0547
 11
-35.0729
 21
20.7366
  0
LINE
  8
0
 10
-35.0729
 20
20.7366
 11
-35.3131
 21
20.4464
  0
LINE
  8
0
 10
-35.3131
 20
20.4464
 11
-35.5877
 21
20.1884
  0
LINE
  8
0
 10
-35.5877
 20
20.1884
 11
-35.8925
 21
19.967
  0
LINE
  8
0
 10
-35.8925
 20
19.967
 11
-36.2227
 21
19.7855
  0
LINE
  8
0
 10
-36.2227
 20
19.7855
 11
-36.5729
 21
19.6468
  0
LINE
  8
0
 10
-36.5729
 20
19.6468
 11
-36.9379
 21
19.5531
  0
LINE
  8
0
 10
-36.9379
 20
19.5531
 11
-37.3116
 21
19.5059
  0
LINE
  8
0
 10
-37.3116
 20
19.5059
 11
-37.6884
 21
19.5059
  0
LINE
  8
0
 10
-37.5942
 20
13.5029
 11
-37.7811
 21
13.5266
  0
LINE
  8
0
 10
-37.7811
 20
13.5266
 11
-37.9635
 21
13.5734
  0
LINE
  8
0
 10
-37.9635
 20
13.5734
 11
-38.1387
 21
13.6427
  0
LINE
  8
0
 10
-38.1387
 20
13.6427
 11
-38.3037
 21
13.7335
  0
LINE
  8
0
 10
-38.3037
 20
13.7335
 11
-38.4561
 21
13.8442
  0
LINE
  8
0
 10
-38.4561
 20
13.8442
 11
-38.5934
 21
13.9732
  0
LINE
  8
0
 10
-38.5934
 20
13.9732
 11
-38.7135
 21
14.1183
  0
LINE
  8
0
 10
-38.7135
 20
14.1183
 11
-38.8145
 21
14.2774
  0
LINE
  8
0
 10
-38.8145
 20
14.2774
 11
-38.8947
 21
14.4478
  0
LINE
  8
0
 10
-38.8947
 20
14.4478
 11
-38.9529
 21
14.627
  0
LINE
  8
0
 10
-38.9529
 20
14.627
 11
-38.9882
 21
14.812
  0
LINE
  8
0
 10
-38.9882
 20
14.812
 11
-39
 21
15
  0
LINE
  8
0
 10
-39
 20
15
 11
-38.9882
 21
15.188
  0
LINE
  8
0
 10
-38.9882
 20
15.188
 11
-38.9529
 21
15.373
  0
LINE
  8
0
 10
-38.9529
 20
15.373
 11
-38.8947
 21
15.5522
  0
LINE
  8
0
 10
-38.8947
 20
15.5522
 11
-38.8145
 21
15.7226
  0
LINE
  8
0
 10
-38.8145
 20
15.7226
 11
-38.7135
 21
15.8817
  0
LINE
  8
0
 10
-38.7135
 20
15.8817
 11
-38.5934
 21
16.0268
  0
LINE
  8
0
 10
-38.5934
 20
16.0268
 11
-38.4561
 21
16.1558
  0
LINE
  8
0
 10
-38.4561
 20
16.1558
 11
-38.3037
 21
16.2665
  0
LINE
  8
0
 10
-38.3037
 20
16.2665
 11
-38.1387
 21
16.3572
  0
LINE
  8
0
 10
-38.1387
 20
16.3572
 11
-37.9635
 21
16.4266
  0
LINE
  8
0
 10
-37.9635
 20
16.4266
 11
-37.7811
 21
16.4734
  0
LINE
  8
0
 10
-37.7811
 20
16.4734
 11
-37.5942
 21
16.497
  0
LINE
  8
0
 10
-37.5942
 20
16.497
 11
-37.4058
 21
16.497
  0
LINE
  8
0
 10
-37.4058
 20
16.497
 11
-37.2189
 21
16.4734
  0
LINE
  8
0
 10
-37.2189
 20
16.4734
 11
-37.0365
 21
16.4266
  0
LINE
  8
0
 10
-37.0365
 20
16.4266
 11
-36.8613
 21
16.3572
  0
LINE
  8
0
 10
-36.8613
 20
16.3572
 11
-36.6963
 21
16.2665
  0
LINE
  8
0
 10
-36.6963
 20
16.2665
 11
-36.5439
 21
16.1558
  0
LINE
  8
0
 10
-36.5439
 20
16.1558
 11
-36.4065
 21
16.0268
  0
LINE
  8
0
 10
-36.4065
 20
16.0268
 11
-36.2865
 21
15.8817
  0
LINE
  8
0
 10
-36.2865
 20
15.8817
 11
-36.1855
 21
15.7226
  0
LINE
  8
0
 10
-36.1855
 20
15.7226
 11
-36.1053
 21
15.5522
  0
LINE
  8
0
 10
-36.1053
 20
15.5522
 11
-36.0471
 21
15.373
  0
LINE
  8
0
 10
-36.0471
 20
15.373
 11
-36.0118
 21
15.188
  0
LINE
  8
0
 10
-36.0118
 20
15.188
 11
-36
 21
15
  0
LINE
  8
0
 10
-36
 20
15
 11
-36.0118
 21
14.812
  0
LINE
  8
0
 10
-36.0118
 20
14.812
 11
-36.0471
 21
14.627
  0
LINE
  8
0
 10
-36.0471
 20
14.627
 11
-36.1053
 21
14.4478
  0
LINE
  8
0
 10
-36.1053
 20
14.4478
 11
-36.1855
 21
14.2774
  0
LINE
  8
0
 10
-36.1855
 20
14.2774
 11
-36.2865
 21
14.1183
  0
LINE
  8
0
 10
-36.2865
 20
14.1183
 11
-36.4065
 21
13.9732
  0
LINE
  8
0
 10
-36.4065
 20
13.9732
 11
-36.5439
 21
13.8442
  0
LINE
  8
0
 10
-36.5439
 20
13.8442
 11
-36.6963
 21
13.7335
  0
LINE
  8
0
 10
-36.6963
 20
13.7335
 11
-36.8613
 21
13.6427
  0
LINE
  8
0
 10
-36.8613
 20
13.6427
 11
-37.0365
 21
13.5734
  0
LINE
  8
0
 10
-37.0365
 20
13.5734
 11
-37.2189
 21
13.5266
  0
LINE
  8
0
 10
-37.2189
 20
13.5266
 11
-37.4058
 21
13.5029
  0
LINE
  8
0
 10
-37.4058
 20
13.5029
 11
-37.5942
 21
13.5029
  0
LINE
  8
0
 10
-37.6884
 20
4.50591
 11
-38.0621
 21
4.55313
  0
LINE
  8
0
 10
-38.0621
 20
4.55313
 11
-38.427
 21
4.64682
  0
LINE
  8
0
 10
-38.427
 20
4.64682
 11
-38.7773
 21
4.78551
  0
LINE
  8
0
 10
-38.7773
 20
4.78551
 11
-39.1075
 21
4.96701
  0
LINE
  8
0
 10
-39.1075
 20
4.96701
 11
-39.4123
 21
5.18845
  0
LINE
  8
0
 10
-39.4123
 20
5.18845
 11
-39.6869
 21
5.44635
  0
LINE
  8
0
 10
-39.6869
 20
5.44635
 11
-39.927
 21
5.73663
  0
LINE
  8
0
 10
-39.927
 20
5.73663
 11
-40.1289
 21
6.05473
  0
LINE
  8
0
 10
-40.1289
 20
6.05473
 11
-40.2893
 21
6.39561
  0
LINE
  8
0
 10
-40.2893
 20
6.39561
 11
-40.4057
 21
6.75392
  0
LINE
  8
0
 10
-40.4057
 20
6.75392
 11
-40.4763
 21
7.12399
  0
LINE
  8
0
 10
-40.4763
 20
7.12399
 11
-40.5
 21
7.5
  0
LINE
  8
0
 10
-40.5
 20
7.5
 11
-40.4763
 21
7.87599
  0
LINE
  8
0
 10
-40.4763
 20
7.87599
 11
-40.4057
 21
8.24606
  0
LINE
  8
0
 10
-40.4057
 20
8.24606
 11
-40.2893
 21
8.60437
  0
LINE
  8
0
 10
-40.2893
 20
8.60437
 11
-40.1289
 21
8.94525
  0
LINE
  8
0
 10
-40.1289
 20
8.94525
 11
-39.927
 21
9.26335
  0
LINE
  8
0
 10
-39.927
 20
9.26335
 11
-39.6869
 21
9.55363
  0
LINE
  8
0
 10
-39.6869
 20
9.55363
 11
-39.4123
 21
9.81154
  0
LINE
  8
0
 10
-39.4123
 20
9.81154
 11
-39.1075
 21
10.033
  0
LINE
  8
0
 10
-39.1075
 20
10.033
 11
-38.7773
 21
10.2145
  0
LINE
  8
0
 10
-38.7773
 20
10.2145
 11
-38.427
 21
10.3532
  0
LINE
  8
0
 10
-38.427
 20
10.3532
 11
-38.0621
 21
10.4469
  0
LINE
  8
0
 10
-38.0621
 20
10.4469
 11
-37.6884
 21
10.4941
  0
LINE
  8
0
 10
-37.6884
 20
10.4941
 11
-37.3116
 21
10.4941
  0
LINE
  8
0
 10
-37.3116
 20
10.4941
 11
-36.9379
 21
10.4469
  0
LINE
  8
0
 10
-36.9379
 20
10.4469
 11
-36.5729
 21
10.3532
  0
LINE
  8
0
 10
-36.5729
 20
10.3532
 11
-36.2227
 21
10.2145
  0
LINE
  8
0
 10
-36.2227
 20
10.2145
 11
-35.8925
 21
10.033
  0
LINE
  8
0
 10
-35.8925
 20
10.033
 11
-35.5877
 21
9.81154
  0
LINE
  8
0
 10
-35.5877
 20
9.81154
 11
-35.3131
 21
9.55363
  0
LINE
  8
0
 10
-35.3131
 20
9.55363
 11
-35.0729
 21
9.26335
  0
LINE
  8
0
 10
-35.0729
 20
9.26335
 11
-34.8711
 21
8.94525
  0
LINE
  8
0
 10
-34.8711
 20
8.94525
 11
-34.7107
 21
8.60437
  0
LINE
  8
0
 10
-34.7107
 20
8.60437
 11
-34.5942
 21
8.24606
  0
LINE
  8
0
 10
-34.5942
 20
8.24606
 11
-34.5237
 21
7.87599
  0
LINE
  8
0
 10
-34.5237
 20
7.87599
 11
-34.5
 21
7.5
  0
LINE
  8
0
 10
-34.5
 20
7.5
 11
-34.5237
 21
7.12399
  0
LINE
  8
0
 10
-34.5237
 20
7.12399
 11
-34.5942
 21
6.75392
  0
LINE
  8
0
 10
-34.5942
 20
6.75392
 11
-34.7107
 21
6.39561
  0
LINE
  8
0
 10
-34.7107
 20
6.39561
 11
-34.8711
 21
6.05473
  0
LINE
  8
0
 10
-34.8711
 20
6.05473
 11
-35.0729
 21
5.73663
  0
LINE
  8
0
 10
-35.0729
 20
5.73663
 11
-35.3131
 21
5.44635
  0
LINE
  8
0
 10
-35.3131
 20
5.44635
 11
-35.5877
 21
5.18845
  0
LINE
  8
0
 10
-35.5877
 20
5.18845
 11
-35.8925
 21
4.96701
  0
LINE
  8
0
 10
-35.8925
 20
4.96701
 11
-36.2227
 21
4.78551
  0
LINE
  8
0
 10
-36.2227
 20
4.78551
 11
-36.5729
 21
4.64682
  0
LINE
  8
0
 10
-36.5729
 20
4.64682
 11
-36.9379
 21
4.55313
  0
LINE
  8
0
 10
-36.9379
 20
4.55313
 11
-37.3116
 21
4.50591
  0
LINE
  8
0
 10
-37.3116
 20
4.50591
 11
-37.6884
 21
4.50591
  0
LINE
  8
0
 10
-37.5942
 20
-1.49704
 11
-37.7811
 21
-1.47342
  0
LINE
  8
0
 10
-37.7811
 20
-1.47342
 11
-37.9635
 21
-1.42657
  0
LINE
  8
0
 10
-37.9635
 20
-1.42657
 11
-38.1387
 21
-1.35724
  0
LINE
  8
0
 10
-38.1387
 20
-1.35724
 11
-38.3037
 21
-1.26648
  0
LINE
  8
0
 10
-38.3037
 20
-1.26648
 11
-38.4561
 21
-1.15576
  0
LINE
  8
0
 10
-38.4561
 20
-1.15576
 11
-38.5934
 21
-1.02681
  0
LINE
  8
0
 10
-38.5934
 20
-1.02681
 11
-38.7135
 21
-0.881668
  0
LINE
  8
0
 10
-38.7135
 20
-0.881668
 11
-38.8145
 21
-0.722626
  0
LINE
  8
0
 10
-38.8145
 20
-0.722626
 11
-38.8947
 21
-0.552185
  0
LINE
  8
0
 10
-38.8947
 20
-0.552185
 11
-38.9529
 21
-0.373032
  0
LINE
  8
0
 10
-38.9529
 20
-0.373032
 11
-38.9882
 21
-0.187988
  0
LINE
  8
0
 10
-38.9882
 20
-0.187988
 11
-39
 21
0
  0
LINE
  8
0
 10
-39
 20
0
 11
-38.9882
 21
0.187988
  0
LINE
  8
0
 10
-38.9882
 20
0.187988
 11
-38.9529
 21
0.373032
  0
LINE
  8
0
 10
-38.9529
 20
0.373032
 11
-38.8947
 21
0.552185
  0
LINE
  8
0
 10
-38.8947
 20
0.552185
 11
-38.8145
 21
0.722626
  0
LINE
  8
0
 10
-38.8145
 20
0.722626
 11
-38.7135
 21
0.881668
  0
LINE
  8
0
 10
-38.7135
 20
0.881668
 11
-38.5934
 21
1.02681
  0
LINE
  8
0
 10
-38.5934
 20
1.02681
 11
-38.4561
 21
1.15576
  0
LINE
  8
0
 10
-38.4561
 20
1.15576
 11
-38.3037
 21
1.26648
  0
LINE
  8
0
 10
-38.3037
 20
1.26648
 11
-38.1387
 21
1.35724
  0
LINE
  8
0
 10
-38.1387
 20
1.35724
 11
-37.9635
 21
1.42657
  0
LINE
  8
0
 10
-37.9635
 20
1.42657
 11
-37.7811
 21
1.47342
  0
LINE
  8
0
 10
-37.7811
 20
1.47342
 11
-37.5942
 21
1.49704
  0
LINE
  8
0
 10
-37.5942
 20
1.49704
 11
-37.4058
 21
1.49704
  0
LINE
  8
0
 10
-37.4058
 20
1.49704
 11
-37.2189
 21
1.47342
  0
LINE
  8
0
 10
-37.2189
 20
1.47342
 11
-37.0365
 21
1.42657
  0
LINE
  8
0
 10
-37.0365
 20
1.42657
 11
-36.8613
 21
1.35724
  0
LINE
  8
0
 10
-36.8613
 20
1.35724
 11
-36.6963
 21
1.26648
  0
LINE
  8
0
 10
-36.6963
 20
1.26648
 11
-36.5439
 21
1.15576
  0
LINE
  8
0
 10
-36.5439
 20
1.15576
 11
-36.4065
 21
1.02681
  0
LINE
  8
0
 10
-36.4065
 20
1.02681
 11
-36.2865
 21
0.881668
  0
LINE
  8
0
 10
-36.2865
 20
0.881668
 11
-36.1855
 21
0.722626
  0
LINE
  8
0
 10
-36.1855
 20
0.722626
 11
-36.1053
 21
0.552185
  0
LINE
  8
0
 10
-36.1053
 20
0.552185
 11
-36.0471
 21
0.373032
  0
LINE
  8
0
 10
-36.0471
 20
0.373032
 11
-36.0118
 21
0.187988
  0
LINE
  8
0
 10
-36.0118
 20
0.187988
 11
-36
 21
0
  0
LINE
  8
0
 10
-36
 20
0
 11
-36.0118
 21
-0.187988
  0
LINE
  8
0
 10
-36.0118
 20
-0.187988
 11
-36.0471
 21
-0.373032
  0
LINE
  8
0
 10
-36.0471
 20
-0.373032
 11
-36.1053
 21
-0.552185
  0
LINE
  8
0
 10
-36.1053
 20
-0.552185
 11
-36.1855
 21
-0.722626
  0
LINE
  8
0
 10
-36.1855
 20
-0.722626
 11
-36.2865
 21
-0.881668
  0
LINE
  8
0
 10
-36.2865
 20
-0.881668
 11
-36.4065
 21
-1.02681
  0
LINE
  8
0
 10
-36.4065
 20
-1.02681
 11
-36.5439
 21
-1.15576
  0
LINE
  8
0
 10
-36.5439
 20
-1.15576
 11
-36.6963
 21
-1.26648
  0
LINE
  8
0
 10
-36.6963
 20
-1.26648
 11
-36.8613
 21
-1.35724
  0
LINE
  8
0
 10
-36.8613
 20
-1.35724
 11
-37.0365
 21
-1.42657
  0
LINE
  8
0
 10
-37.0365
 20
-1.42657
 11
-37.2189
 21
-1.47342
  0
LINE
  8
0
 10
-37.2189
 20
-1.47342
 11
-37.4058
 21
-1.49704
  0
LINE
  8
0
 10
-37.4058
 20
-1.49704
 11
-37.5942
 21
-1.49704
  0
LINE
  8
0
 10
-37.6884
 20
-10.4941
 11
-38.0621
 21
-10.4469
  0
LINE
  8
0
 10
-38.0621
 20
-10.4469
 11
-38.427
 21
-10.3532
  0
LINE
  8
0
 10
-38.427
 20
-10.3532
 11
-38.7773
 21
-10.2145
  0
LINE
  8
0
 10
-38.7773
 20
-10.2145
 11
-39.1075
 21
-10.033
  0
LINE
  8
0
 10
-39.1075
 20
-10.033
 11
-39.4123
 21
-9.81154
  0
LINE
  8
0
 10
-39.4123
 20
-9.81154
 11
-39.6869
 21
-9.55363
  0
LINE
  8
0
 10
-39.6869
 20
-9.55363
 11
-39.927
 21
-9.26335
  0
LINE
  8
0
 10
-39.927
 20
-9.26335
 11
-40.1289
 21
-8.94525
  0
LINE
  8
0
 10
-40.1289
 20
-8.94525
 11
-40.2893
 21
-8.60437
  0
LINE
  8
0
 10
-40.2893
 20
-8.60437
 11
-40.4057
 21
-8.24606
  0
LINE
  8
0
 10
-40.4057
 20
-8.24606
 11
-40.4763
 21
-7.87599
  0
LINE
  8
0
 10
-40.4763
 20
-7.87599
 11
-40.5
 21
-7.5
  0
LINE
  8
0
 10
-40.5
 20
-7.5
 11
-40.4763
 21
-7.12399
  0
LINE
  8
0
 10
-40.4763
 20
-7.12399
 11
-40.4057
 21
-6.75392
  0
LINE
  8
0
 10
-40.4057
 20
-6.75392
 11
-40.2893
 21
-6.39561
  0
LINE
  8
0
 10
-40.2893
 20
-6.39561
 11
-40.1289
 21
-6.05473
  0
LINE
  8
0
 10
-40.1289
 20
-6.05473
 11
-39.927
 21
-5.73663
  0
LINE
  8
0
 10
-39.927
 20
-5.73663
 11
-39.6869
 21
-5.44635
  0
LINE
  8
0
 10
-39.6869
 20
-5.44635
 11
-39.4123
 21
-5.18845
  0
LINE
  8
0
 10
-39.4123
 20
-5.18845
 11
-39.1075
 21
-4.96701
  0
LINE
  8
0
 10
-39.1075
 20
-4.96701
 11
-38.7773
 21
-4.78551
  0
LINE
  8
0
 10
-38.7773
 20
-4.78551
 11
-38.427
 21
-4.64682
  0
LINE
  8
0
 10
-38.427
 20
-4.64682
 11
-38.0621
 21
-4.55313
  0
LINE
  8
0
 10
-38.0621
 20
-4.55313
 11
-37.6884
 21
-4.50591
  0
LINE
  8
0
 10
-37.6884
 20
-4.50591
 11
-37.3116
 21
-4.50591
  0
LINE
  8
0
 10
-37.3116
 20
-4.50591
 11
-36.9379
 21
-4.55313
  0
LINE
  8
0
 10
-36.9379
 20
-4.55313
 11
-36.5729
 21
-4.64682
  0
LINE
  8
0
 10
-36.5729
 20
-4.64682
 11
-36.2227
 21
-4.78551
  0
LINE
  8
0
 10
-36.2227
 20
-4.78551
 11
-35.8925
 21
-4.96701
  0
LINE
  8
0
 10
-35.8925
 20
-4.96701
 11
-35.5877
 21
-5.18845
  0
LINE
  8
0
 10
-35.5877
 20
-5.18845
 11
-35.3131
 21
-5.44635
  0
LINE
  8
0
 10
-35.3131
 20
-5.44635
 11
-35.0729
 21
-5.73663
  0
LINE
  8
0
 10
-35.0729
 20
-5.73663
 11
-34.8711
 21
-6.05473
  0
LINE
  8
0
 10
-34.8711
 20
-6.05473
 11
-34.7107
 21
-6.39561
  0
LINE
  8
0
 10
-34.7107
 20
-6.39561
 11
-34.5942
 21
-6.75392
  0
LINE
  8
0
 10
-34.5942
 20
-6.75392
 11
-34.5237
 21
-7.12399
  0
LINE
  8
0
 10
-34.5237
 20
-7.12399
 11
-34.5
 21
-7.5
  0
LINE
  8
0
 10
-34.5
 20
-7.5
 11
-34.5237
 21
-7.87599
  0
LINE
  8
0
 10
-34.5237
 20
-7.87599
 11
-34.5942
 21
-8.24606
  0
LINE
  8
0
 10
-34.5942
 20
-8.24606
 11
-34.7107
 21
-8.60437
  0
LINE
  8
0
 10
-34.7107
 20
-8.60437
 11
-34.8711
 21
-8.94525
  0
LINE
  8
0
 10
-34.8711
 20
-8.94525
 11
-35.0729
 21
-9.26335
  0
LINE
  8
0
 10
-35.0729
 20
-9.26335
 11
-35.3131
 21
-9.55363
  0
LINE
  8
0
 10
-35.3131
 20
-9.55363
 11
-35.5877
 21
-9.81154
  0
LINE
  8
0
 10
-35.5877
 20
-9.81154
 11
-35.8925
 21
-10.033
  0
LINE
  8
0
 10
-35.8925
 20
-10.033
 11
-36.2227
 21
-10.2145
  0
LINE
  8
0
 10
-36.2227
 20
-10.2145
 11
-36.5729
 21
-10.3532
  0
LINE
  8
0
 10
-36.5729
 20
-10.3532
 11
-36.9379
 21
-10.4469
  0
LINE
  8
0
 10
-36.9379
 20
-10.4469
 11
-37.3116
 21
-10.4941
  0
LINE
  8
0
 10
-37.3116
 20
-10.4941
 11
-37.6884
 21
-10.4941
  0
LINE
  8
0
 10
-37.5942
 20
-16.497
 11
-37.7811
 21
-16.4734
  0
LINE
  8
0
 10
-37.7811
 20
-16.4734
 11
-37.9635
 21
-16.4266
  0
LINE
  8
0
 10
-37.9635
 20
-16.4266
 11
-38.1387
 21
-16.3572
  0
LINE
  8
0
 10
-38.1387
 20
-16.3572
 11
-38.3037
 21
-16.2665
  0
LINE
  8
0
 10
-38.3037
 20
-16.2665
 11
-38.4561
 21
-16.1558
  0
LINE
  8
0
 10
-38.4561
 20
-16.1558
 11
-38.5934
 21
-16.0268
  0
LINE
  8
0
 10
-38.5934
 20
-16.0268
 11
-38.7135
 21
-15.8817
  0
LINE
  8
0
 10
-38.7135
 20
-15.8817
 11
-38.8145
 21
-15.7226
  0
LINE
  8
0
 10
-38.8145
 20
-15.7226
 11
-38.8947
 21
-15.5522
  0
LINE
  8
0
 10
-38.8947
 20
-15.5522
 11
-38.9529
 21
-15.373
  0
LINE
  8
0
 10
-38.9529
 20
-15.373
 11
-38.9882
 21
-15.188
  0
LINE
  8
0
 10
-38.9882
 20
-15.188
 11
-39
 21
-15
  0
LINE
  8
0
 10
-39
 20
-15
 11
-38.9882
 21
-14.812
  0
LINE
  8
0
 10
-38.9882
 20
-14.812
 11
-38.9529
 21
-14.627
  0
LINE
  8
0
 10
-38.9529
 20
-14.627
 11
-38.8947
 21
-14.4478
  0
LINE
  8
0
 10
-38.8947
 20
-14.4478
 11
-38.8145
 21
-14.2774
  0
LINE
  8
0
 10
-38.8145
 20
-14.2774
 11
-38.7135
 21
-14.1183
  0
LINE
  8
0
 10
-38.7135
 20
-14.1183
 11
-38.5934
 21
-13.9732
  0
LINE
  8
0
 10
-38.5934
 20
-13.9732
 11
-38.4561
 21
-13.8442
  0
LINE
  8
0
 10
-38.4561
 20
-13.8442
 11
-38.3037
 21
-13.7335
  0
LINE
  8
0
 10
-38.3037
 20
-13.7335
 11
-38.1387
 21
-13.6427
  0
LINE
  8
0
 10
-38.1387
 20
-13.6427
 11
-37.9635
 21
-13.5734
  0
LINE
  8
0
 10
-37.9635
 20
-13.5734
 11
-37.7811
 21
-13.5266
  0
LINE
  8
0
 10
-37.7811
 20
-13.5266
 11
-37.5942
 21
-13.5029
  0
LINE
  8
0
 10
-37.5942
 20
-13.5029
 11
-37.4058
 21
-13.5029
  0
LINE
  8
0
 10
-37.4058
 20
-13.5029
 11
-37.2189
 21
-13.5266
  0
LINE
  8
0
 10
-37.2189
 20
-13.5266
 11
-37.0365
 21
-13.5734
  0
LINE
  8
0
 10
-37.0365
 20
-13.5734
 11
-36.8613
 21
-13.6427
  0
LINE
  8
0
 10
-36.8613
 20
-13.6427
 11
-36.6963
 21
-13.7335
  0
LINE
  8
0
 10
-36.6963
 20
-13.7335
 11
-36.5439
 21
-13.8442
  0
LINE
  8
0
 10
-36.5439
 20
-13.8442
 11
-36.4065
 21
-13.9732
  0
LINE
  8
0
 10
-36.4065
 20
-13.9732
 11
-36.2865
 21
-14.1183
  0
LINE
  8
0
 10
-36.2865
 20
-14.1183
 11
-36.1855
 21
-14.2774
  0
LINE
  8
0
 10
-36.1855
 20
-14.2774
 11
-36.1053
 21
-14.4478
  0
LINE
  8
0
 10
-36.1053
 20
-14.4478
 11
-36.0471
 21
-14.627
  0
LINE
  8
0
 10
-36.0471
 20
-14.627
 11
-36.0118
 21
-14.812
  0
LINE
  8
0
 10
-36.0118
 20
-14.812
 11
-36
 21
-15
  0
LINE
  8
0
 10
-36
 20
-15
 11
-36.0118
 21
-15.188
  0
LINE
  8
0
 10
-36.0118
 20
-15.188
 11
-36.0471
 21
-15.373
  0
LINE
  8
0
 10
-36.0471
 20
-15.373
 11
-36.1053
 21
-15.5522
  0
LINE
  8
0
 10
-36.1053
 20
-15.5522
 11
-36.1855
 21
-15.7226
  0
LINE
  8
0
 10
-36.1855
 20
-15.7226
 11
-36.2865
 21
-15.8817
  0
LINE
  8
0
 10
-36.2865
 20
-15.8817
 11
-36.4065
 21
-16.0268
  0
LINE
  8
0
 10
-36.4065
 20
-16.0268
 11
-36.5439
 21
-16.1558
  0
LINE
  8
0
 10
-36.5439
 20
-16.1558
 11
-36.6963
 21
-16.2665
  0
LINE
  8
0
 10
-36.6963
 20
-16.2665
 11
-36.8613
 21
-16.3572
  0
LINE
  8
0
 10
-36.8613
 20
-16.3572
 11
-37.0365
 21
-16.4266
  0
LINE
  8
0
 10
-37.0365
 20
-16.4266
 11
-37.2189
 21
-16.4734
  0
LINE
  8
0
 10
-37.2189
 20
-16.4734
 11
-37.4058
 21
-16.497
  0
LINE
  8
0
 10
-37.4058
 20
-16.497
 11
-37.5942
 21
-16.497
  0
LINE
  8
0
 10
-37.6884
 20
-25.4941
 11
-38.0621
 21
-25.4469
  0
LINE
  8
0
 10
-38.0621
 20
-25.4469
 11
-38.427
 21
-25.3532
  0
LINE
  8
0
 10
-38.427
 20
-25.3532
 11
-38.7773
 21
-25.2145
  0
LINE
  8
0
 10
-38.7773
 20
-25.2145
 11
-39.1075
 21
-25.033
  0
LINE
  8
0
 10
-39.1075
 20
-25.033
 11
-39.4123
 21
-24.8115
  0
LINE
  8
0
 10
-39.4123
 20
-24.8115
 11
-39.6869
 21
-24.5536
  0
LINE
  8
0
 10
-39.6869
 20
-24.5536
 11
-39.927
 21
-24.2634
  0
LINE
  8
0
 10
-39.927
 20
-24.2634
 11
-40.1289
 21
-23.9453
  0
LINE
  8
0
 10
-40.1289
 20
-23.9453
 11
-40.2893
 21
-23.6044
  0
LINE
  8
0
 10
-40.2893
 20
-23.6044
 11
-40.4057
 21
-23.2461
  0
LINE
  8
0
 10
-40.4057
 20
-23.2461
 11
-40.4763
 21
-22.876
  0
LINE
  8
0
 10
-40.4763
 20
-22.876
 11
-40.5
 21
-22.5
  0
LINE
  8
0
 10
-40.5
 20
-22.5
 11
-40.4763
 21
-22.124
  0
LINE
  8
0
 10
-40.4763
 20
-22.124
 11
-40.4057
 21
-21.7539
  0
LINE
  8
0
 10
-40.4057
 20
-21.7539
 11
-40.2893
 21
-21.3956
  0
LINE
  8
0
 10
-40.2893
 20
-21.3956
 11
-40.1289
 21
-21.0547
  0
LINE
  8
0
 10
-40.1289
 20
-21.0547
 11
-39.927
 21
-20.7366
  0
LINE
  8
0
 10
-39.927
 20
-20.7366
 11
-39.6869
 21
-20.4464
  0
LINE
  8
0
 10
-39.6869
 20
-20.4464
 11
-39.4123
 21
-20.1884
  0
LINE
  8
0
 10
-39.4123
 20
-20.1884
 11
-39.1075
 21
-19.967
  0
LINE
  8
0
 10
-39.1075
 20
-19.967
 11
-38.7773
 21
-19.7855
  0
LINE
  8
0
 10
-38.7773
 20
-19.7855
 11
-38.427
 21
-19.6468
  0
LINE
  8
0
 10
-38.427
 20
-19.6468
 11
-38.0621
 21
-19.5531
  0
LINE
  8
0
 10
-38.0621
 20
-19.5531
 11
-37.6884
 21
-19.5059
  0
LINE
  8
0
 10
-37.6884
 20
-19.5059
 11
-37.3116
 21
-19.5059
  0
LINE
  8
0
 10
-37.3116
 20
-19.5059
 11
-36.9379
 21
-19.5531
  0
LINE
  8
0
 10
-36.9379
 20
-19.5531
 11
-36.5729
 21
-19.6468
  0
LINE
  8
0
 10
-36.5729
 20
-19.6468
 11
-36.2227
 21
-19.7855
  0
LINE
  8
0
 10
-36.2227
 20
-19.7855
 11
-35.8925
 21
-19.967
  0
LINE
  8
0
 10
-35.8925
 20
-19.967
 11
-35.5877
 21
-20.1884
  0
LINE
  8
0
 10
-35.5877
 20
-20.1884
 11
-35.3131
 21
-20.4464
  0
LINE
  8
0
 10
-35.3131
 20
-20.4464
 11
-35.0729
 21
-20.7366
  0
LINE
  8
0
 10
-35.0729
 20
-20.7366
 11
-34.8711
 21
-21.0547
  0
LINE
  8
0
 10
-34.8711
 20
-21.0547
 11
-34.7107
 21
-21.3956
  0
LINE
  8
0
 10
-34.7107
 20
-21.3956
 11
-34.5942
 21
-21.7539
  0
LINE
  8
0
 10
-34.5942
 20
-21.7539
 11
-34.5237
 21
-22.124
  0
LINE
  8
0
 10
-34.5237
 20
-22.124
 11
-34.5
 21
-22.5
  0
LINE
  8
0
 10
-34.5
 20
-22.5
 11
-34.5237
 21
-22.876
  0
LINE
  8
0
 10
-34.5237
 20
-22.876
 11
-34.5942
 21
-23.2461
  0
LINE
  8
0
 10
-34.5942
 20
-23.2461
 11
-34.7107
 21
-23.6044
  0
LINE
  8
0
 10
-34.7107
 20
-23.6044
 11
-34.8711
 21
-23.9453
  0
LINE
  8
0
 10
-34.8711
 20
-23.9453
 11
-35.0729
 21
-24.2634
  0
LINE
  8
0
 10
-35.0729
 20
-24.2634
 11
-35.3131
 21
-24.5536
  0
LINE
  8
0
 10
-35.3131
 20
-24.5536
 11
-35.5877
 21
-24.8115
  0
LINE
  8
0
 10
-35.5877
 20
-24.8115
 11
-35.8925
 21
-25.033
  0
LINE
  8
0
 10
-35.8925
 20
-25.033
 11
-36.2227
 21
-25.2145
  0
LINE
  8
0
 10
-36.2227
 20
-25.2145
 11
-36.5729
 21
-25.3532
  0
LINE
  8
0
 10
-36.5729
 20
-25.3532
 11
-36.9379
 21
-25.4469
  0
LINE
  8
0
 10
-36.9379
 20
-25.4469
 11
-37.3116
 21
-25.4941
  0
LINE
  8
0
 10
-37.3116
 20
-25.4941
 11
-37.6884
 21
-25.4941
  0
LINE
  8
0
 10
-37.5942
 20
-31.497
 11
-37.7811
 21
-31.4734
  0
LINE
  8
0
 10
-37.7811
 20
-31.4734
 11
-37.9635
 21
-31.4266
  0
LINE
  8
0
 10
-37.9635
 20
-31.4266
 11
-38.1387
 21
-31.3572
  0
LINE
  8
0
 10
-38.1387
 20
-31.3572
 11
-38.3037
 21
-31.2665
  0
LINE
  8
0
 10
-38.3037
 20
-31.2665
 11
-38.4561
 21
-31.1558
  0
LINE
  8
0
 10
-38.4561
 20
-31.1558
 11
-38.5934
 21
-31.0268
  0
LINE
  8
0
 10
-38.5934
 20
-31.0268
 11
-38.7135
 21
-30.8817
  0
LINE
  8
0
 10
-38.7135
 20
-30.8817
 11
-38.8145
 21
-30.7226
  0
LINE
  8
0
 10
-38.8145
 20
-30.7226
 11
-38.8947
 21
-30.5522
  0
LINE
  8
0
 10
-38.8947
 20
-30.5522
 11
-38.9529
 21
-30.373
  0
LINE
  8
0
 10
-38.9529
 20
-30.373
 11
-38.9882
 21
-30.188
  0
LINE
  8
0
 10
-38.9882
 20
-30.188
 11
-39
 21
-30
  0
LINE
  8
0
 10
-39
 20
-30
 11
-38.9882
 21
-29.812
  0
LINE
  8
0
 10
-38.9882
 20
-29.812
 11
-38.9529
 21
-29.627
  0
LINE
  8
0
 10
-38.9529
 20
-29.627
 11
-38.8947
 21
-29.4478
  0
LINE
  8
0
 10
-38.8947
 20
-29.4478
 11
-38.8145
 21
-29.2774
  0
LINE
  8
0
 10
-38.8145
 20
-29.2774
 11
-38.7135
 21
-29.1183
  0
LINE
  8
0
 10
-38.7135
 20
-29.1183
 11
-38.5934
 21
-28.9732
  0
LINE
  8
0
 10
-38.5934
 20
-28.9732
 11
-38.4561
 21
-28.8442
  0
LINE
  8
0
 10
-38.4561
 20
-28.8442
 11
-38.3037
 21
-28.7335
  0
LINE
  8
0
 10
-38.3037
 20
-28.7335
 11
-38.1387
 21
-28.6427
  0
LINE
  8
0
 10
-38.1387
 20
-28.6427
 11
-37.9635
 21
-28.5734
  0
LINE
  8
0
 10
-37.9635
 20
-28.5734
 11
-37.7811
 21
-28.5266
  0
LINE
  8
0
 10
-37.7811
 20
-28.5266
 11
-37.5942
 21
-28.503
  0
LINE
  8
0
 10
-37.5942
 20
-28.503
 11
-37.4058
 21
-28.503
  0
LINE
  8
0
 10
-37.4058
 20
-28.503
 11
-37.2189
 21
-28.5266
  0
LINE
  8
0
 10
-37.2189
 20
-28.5266
 11
-37.0365
 21
-28.5734
  0
LINE
  8
0
 10
-37.0365
 20
-28.5734
 11
-36.8613
 21
-28.6427
  0
LINE
  8
0
 10
-36.8613
 20
-28.6427
 11
-36.6963
 21
-28.7335
  0
LINE
  8
0
 10
-36.6963
 20
-28.7335
 11
-36.5439
 21
-28.8442
  0
LINE
  8
0
 10
-36.5439
 20
-28.8442
 11
-36.4065
 21
-28.9732
  0
LINE
  8
0
 10
-36.4065
 20
-28.9732
 11
-36.2865
 21
-29.1183
  0
LINE
  8
0
 10
-36.2865
 20
-29.1183
 11
-36.1855
 21
-29.2774
  0
LINE
  8
0
 10
-36.1855
 20
-29.2774
 11
-36.1053
 21
-29.4478
  0
LINE
  8
0
 10
-36.1053
 20
-29.4478
 11
-36.0471
 21
-29.627
  0
LINE
  8
0
 10
-36.0471
 20
-29.627
 11
-36.0118
 21
-29.812
  0
LINE
  8
0
 10
-36.0118
 20
-29.812
 11
-36
 21
-30
  0
LINE
  8
0
 10
-36
 20
-30
 11
-36.0118
 21
-30.188
  0
LINE
  8
0
 10
-36.0118
 20
-30.188
 11
-36.0471
 21
-30.373
  0
LINE
  8
0
 10
-36.0471
 20
-30.373
 11
-36.1053
 21
-30.5522
  0
LINE
  8
0
 10
-36.1053
 20
-30.5522
 11
-36.1855
 21
-30.7226
  0
LINE
  8
0
 10
-36.1855
 20
-30.7226
 11
-36.2865
 21
-30.8817
  0
LINE
  8
0
 10
-36.2865
 20
-30.8817
 11
-36.4065
 21
-31.0268
  0
LINE
  8
0
 10
-36.4065
 20
-31.0268
 11
-36.5439
 21
-31.1558
  0
LINE
  8
0
 10
-36.5439
 20
-31.1558
 11
-36.6963
 21
-31.2665
  0
LINE
  8
0
 10
-36.6963
 20
-31.2665
 11
-36.8613
 21
-31.3572
  0
LINE
  8
0
 10
-36.8613
 20
-31.3572
 11
-37.0365
 21
-31.4266
  0
LINE
  8
0
 10
-37.0365
 20
-31.4266
 11
-37.2189
 21
-31.4734
  0
LINE
  8
0
 10
-37.2189
 20
-31.4734
 11
-37.4058
 21
-31.497
  0
LINE
  8
0
 10
-37.4058
 20
-31.497
 11
-37.5942
 21
-31.497
  0
LINE
  8
0
 10
-37.6884
 20
-40.4941
 11
-38.0621
 21
-40.4469
  0
LINE
  8
0
 10
-38.0621
 20
-40.4469
 11
-38.427
 21
-40.3532
  0
LINE
  8
0
 10
-38.427
 20
-40.3532
 11
-38.7773
 21
-40.2145
  0
LINE
  8
0
 10
-38.7773
 20
-40.2145
 11
-39.1075
 21
-40.033
  0
LINE
  8
0
 10
-39.1075
 20
-40.033
 11
-39.4123
 21
-39.8115
  0
LINE
  8
0
 10
-39.4123
 20
-39.8115
 11
-39.6869
 21
-39.5536
  0
LINE
  8
0
 10
-39.6869
 20
-39.5536
 11
-39.927
 21
-39.2634
  0
LINE
  8
0
 10
-39.927
 20
-39.2634
 11
-40.1289
 21
-38.9453
  0
LINE
  8
0
 10
-40.1289
 20
-38.9453
 11
-40.2893
 21
-38.6044
  0
LINE
  8
0
 10
-40.2893
 20
-38.6044
 11
-40.4057
 21
-38.2461
  0
LINE
  8
0
 10
-40.4057
 20
-38.2461
 11
-40.4763
 21
-37.876
  0
LINE
  8
0
 10
-40.4763
 20
-37.876
 11
-40.5
 21
-37.5
  0
LINE
  8
0
 10
-40.5
 20
-37.5
 11
-40.4763
 21
-37.124
  0
LINE
  8
0
 10
-40.4763
 20
-37.124
 11
-40.4057
 21
-36.7539
  0
LINE
  8
0
 10
-40.4057
 20
-36.7539
 11
-40.2893
 21
-36.3956
  0
LINE
  8
0
 10
-40.2893
 20
-36.3956
 11
-40.1289
 21
-36.0547
  0
LINE
  8
0
 10
-40.1289
 20
-36.0547
 11
-39.927
 21
-35.7366
  0
LINE
  8
0
 10
-39.927
 20
-35.7366
 11
-39.6869
 21
-35.4464
  0
LINE
  8
0
 10
-39.6869
 20
-35.4464
 11
-39.4123
 21
-35.1885
  0
LINE
  8
0
 10
-39.4123
 20
-35.1885
 11
-39.1075
 21
-34.967
  0
LINE
  8
0
 10
-39.1075
 20
-34.967
 11
-38.7773
 21
-34.7855
  0
LINE
  8
0
 10
-38.7773
 20
-34.7855
 11
-38.427
 21
-34.6468
  0
LINE
  8
0
 10
-38.427
 20
-34.6468
 11
-38.0621
 21
-34.5531
  0
LINE
  8
0
 10
-38.0621
 20
-34.5531
 11
-37.6884
 21
-34.5059
  0
LINE
  8
0
 10
-37.6884
 20
-34.5059
 11
-37.3116
 21
-34.5059
  0
LINE
  8
0
 10
-37.3116
 20
-34.5059
 11
-36.9379
 21
-34.5531
  0
LINE
  8
0
 10
-36.9379
 20
-34.5531
 11
-36.5729
 21
-34.6468
  0
LINE
  8
0
 10
-36.5729
 20
-34.6468
 11
-36.2227
 21
-34.7855
  0
LINE
  8
0
 10
-36.2227
 20
-34.7855
 11
-35.8925
 21
-34.967
  0
LINE
  8
0
 10
-35.8925
 20
-34.967
 11
-35.5877
 21
-35.1885
  0
LINE
  8
0
 10
-35.5877
 20
-35.1885
 11
-35.3131
 21
-35.4464
  0
LINE
  8
0
 10
-35.3131
 20
-35.4464
 11
-35.0729
 21
-35.7366
  0
LINE
  8
0
 10
-35.0729
 20
-35.7366
 11
-34.8711
 21
-36.0547
  0
LINE
  8
0
 10
-34.8711
 20
-36.0547
 11
-34.7107
 21
-36.3956
  0
LINE
  8
0
 10
-34.7107
 20
-36.3956
 11
-34.5942
 21
-36.7539
  0
LINE
  8
0
 10
-34.5942
 20
-36.7539
 11
-34.5237
 21
-37.124
  0
LINE
  8
0
 10
-34.5237
 20
-37.124
 11
-34.5
 21
-37.5
  0
LINE
  8
0
 10
-34.5
 20
-37.5
 11
-34.5237
 21
-37.876
  0
LINE
  8
0
 10
-34.5237
 20
-37.876
 11
-34.5942
 21
-38.2461
  0
LINE
  8
0
 10
-34.5942
 20
-38.2461
 11
-34.7107
 21
-38.6044
  0
LINE
  8
0
 10
-34.7107
 20
-38.6044
 11
-34.8711
 21
-38.9453
  0
LINE
  8
0
 10
-34.8711
 20
-38.9453
 11
-35.0729
 21
-39.2634
  0
LINE
  8
0
 10
-35.0729
 20
-39.2634
 11
-35.3131
 21
-39.5536
  0
LINE
  8
0
 10
-35.3131
 20
-39.5536
 11
-35.5877
 21
-39.8115
  0
LINE
  8
0
 10
-35.5877
 20
-39.8115
 11
-35.8925
 21
-40.033
  0
LINE
  8
0
 10
-35.8925
 20
-40.033
 11
-36.2227
 21
-40.2145
  0
LINE
  8
0
 10
-36.2227
 20
-40.2145
 11
-36.5729
 21
-40.3532
  0
LINE
  8
0
 10
-36.5729
 20
-40.3532
 11
-36.9379
 21
-40.4469
  0
LINE
  8
0
 10
-36.9379
 20
-40.4469
 11
-37.3116
 21
-40.4941
  0
LINE
  8
0
 10
-37.3116
 20
-40.4941
 11
-37.6884
 21
-40.4941
  0
ENDSEC
  0
SECTION
  2
OBJECTS
  0
DICTIONARY
  0
ENDSEC
  0
EOF
