  0
SECTION
  2
BLOCKS
  0
ENDSEC
  0
SECTION
  2
ENTITIES
  0
LINE
  8
0
 10
100.437
 20
-104.411
 11
101.045
 21
-104.255
  0
LINE
  8
0
 10
101.045
 20
-104.255
 11
101.629
 21
-104.024
  0
LINE
  8
0
 10
101.629
 20
-104.024
 11
102.179
 21
-103.722
  0
LINE
  8
0
 10
102.179
 20
-103.722
 11
102.687
 21
-103.353
  0
LINE
  8
0
 10
102.687
 20
-103.353
 11
103.145
 21
-102.923
  0
LINE
  8
0
 10
103.145
 20
-102.923
 11
103.545
 21
-102.439
  0
LINE
  8
0
 10
103.545
 20
-102.439
 11
103.882
 21
-101.909
  0
LINE
  8
0
 10
103.882
 20
-101.909
 11
104.149
 21
-101.341
  0
LINE
  8
0
 10
104.149
 20
-101.341
 11
104.343
 21
-100.743
  0
LINE
  8
0
 10
104.343
 20
-100.743
 11
104.461
 21
-100.127
  0
LINE
  8
0
 10
104.461
 20
-100.127
 11
104.5
 21
-99.5
  0
LINE
  8
0
 10
104.5
 20
-99.5
 11
104.5
 21
99.5
  0
LINE
  8
0
 10
104.5
 20
99.5
 11
104.461
 21
100.127
  0
LINE
  8
0
 10
104.461
 20
100.127
 11
104.343
 21
100.743
  0
LINE
  8
0
 10
104.343
 20
100.743
 11
104.149
 21
101.341
  0
LINE
  8
0
 10
104.149
 20
101.341
 11
103.882
 21
101.909
  0
LINE
  8
0
 10
103.882
 20
101.909
 11
103.545
 21
102.439
  0
LINE
  8
0
 10
103.545
 20
102.439
 11
103.145
 21
102.923
  0
LINE
  8
0
 10
103.145
 20
102.923
 11
102.687
 21
103.353
  0
LINE
  8
0
 10
102.687
 20
103.353
 11
102.179
 21
103.722
  0
LINE
  8
0
 10
102.179
 20
103.722
 11
101.629
 21
104.024
  0
LINE
  8
0
 10
101.629
 20
104.024
 11
101.045
 21
104.255
  0
LINE
  8
0
 10
101.045
 20
104.255
 11
100.437
 21
104.411
  0
LINE
  8
0
 10
100.437
 20
104.411
 11
99.8139
 21
104.49
  0
LINE
  8
0
 10
99.8139
 20
104.49
 11
-99.8139
 21
104.49
  0
LINE
  8
0
 10
-99.8139
 20
104.49
 11
-100.437
 21
104.411
  0
LINE
  8
0
 10
-100.437
 20
104.411
 11
-101.045
 21
104.255
  0
LINE
  8
0
 10
-101.045
 20
104.255
 11
-101.629
 21
104.024
  0
LINE
  8
0
 10
-101.629
 20
104.024
 11
-102.179
 21
103.722
  0
LINE
  8
0
 10
-102.179
 20
103.722
 11
-102.687
 21
103.353
  0
LINE
  8
0
 10
-102.687
 20
103.353
 11
-103.145
 21
102.923
  0
LINE
  8
0
 10
-103.145
 20
102.923
 11
-103.545
 21
102.439
  0
LINE
  8
0
 10
-103.545
 20
102.439
 11
-103.882
 21
101.909
  0
LINE
  8
0
 10
-103.882
 20
101.909
 11
-104.149
 21
101.341
  0
LINE
  8
0
 10
-104.149
 20
101.341
 11
-104.343
 21
100.743
  0
LINE
  8
0
 10
-104.343
 20
100.743
 11
-104.461
 21
100.127
  0
LINE
  8
0
 10
-104.461
 20
100.127
 11
-104.5
 21
99.5
  0
LINE
  8
0
 10
-104.5
 20
99.5
 11
-104.5
 21
-99.5
  0
LINE
  8
0
 10
-104.5
 20
-99.5
 11
-104.461
 21
-100.127
  0
LINE
  8
0
 10
-104.461
 20
-100.127
 11
-104.343
 21
-100.743
  0
LINE
  8
0
 10
-104.343
 20
-100.743
 11
-104.149
 21
-101.341
  0
LINE
  8
0
 10
-104.149
 20
-101.341
 11
-103.882
 21
-101.909
  0
LINE
  8
0
 10
-103.882
 20
-101.909
 11
-103.545
 21
-102.439
  0
LINE
  8
0
 10
-103.545
 20
-102.439
 11
-103.145
 21
-102.923
  0
LINE
  8
0
 10
-103.145
 20
-102.923
 11
-102.687
 21
-103.353
  0
LINE
  8
0
 10
-102.687
 20
-103.353
 11
-102.179
 21
-103.722
  0
LINE
  8
0
 10
-102.179
 20
-103.722
 11
-101.629
 21
-104.024
  0
LINE
  8
0
 10
-101.629
 20
-104.024
 11
-101.045
 21
-104.255
  0
LINE
  8
0
 10
-101.045
 20
-104.255
 11
-100.437
 21
-104.411
  0
LINE
  8
0
 10
-100.437
 20
-104.411
 11
-99.8139
 21
-104.49
  0
LINE
  8
0
 10
-99.8139
 20
-104.49
 11
99.8139
 21
-104.49
  0
LINE
  8
0
 10
99.8139
 20
-104.49
 11
100.437
 21
-104.411
  0
LINE
  8
0
 10
97.3116
 20
94.5059
 11
96.9379
 21
94.5531
  0
LINE
  8
0
 10
96.9379
 20
94.5531
 11
96.573
 21
94.6468
  0
LINE
  8
0
 10
96.573
 20
94.6468
 11
96.2227
 21
94.7855
  0
LINE
  8
0
 10
96.2227
 20
94.7855
 11
95.8925
 21
94.967
  0
LINE
  8
0
 10
95.8925
 20
94.967
 11
95.5877
 21
95.1885
  0
LINE
  8
0
 10
95.5877
 20
95.1885
 11
95.3131
 21
95.4464
  0
LINE
  8
0
 10
95.3131
 20
95.4464
 11
95.073
 21
95.7366
  0
LINE
  8
0
 10
95.073
 20
95.7366
 11
94.8711
 21
96.0547
  0
LINE
  8
0
 10
94.8711
 20
96.0547
 11
94.7107
 21
96.3956
  0
LINE
  8
0
 10
94.7107
 20
96.3956
 11
94.5943
 21
96.7539
  0
LINE
  8
0
 10
94.5943
 20
96.7539
 11
94.5237
 21
97.124
  0
LINE
  8
0
 10
94.5237
 20
97.124
 11
94.5
 21
97.5
  0
LINE
  8
0
 10
94.5
 20
97.5
 11
94.5237
 21
97.876
  0
LINE
  8
0
 10
94.5237
 20
97.876
 11
94.5943
 21
98.2461
  0
LINE
  8
0
 10
94.5943
 20
98.2461
 11
94.7107
 21
98.6044
  0
LINE
  8
0
 10
94.7107
 20
98.6044
 11
94.8711
 21
98.9453
  0
LINE
  8
0
 10
94.8711
 20
98.9453
 11
95.073
 21
99.2634
  0
LINE
  8
0
 10
95.073
 20
99.2634
 11
95.3131
 21
99.5536
  0
LINE
  8
0
 10
95.3131
 20
99.5536
 11
95.5877
 21
99.8115
  0
LINE
  8
0
 10
95.5877
 20
99.8115
 11
95.8925
 21
100.033
  0
LINE
  8
0
 10
95.8925
 20
100.033
 11
96.2227
 21
100.214
  0
LINE
  8
0
 10
96.2227
 20
100.214
 11
96.573
 21
100.353
  0
LINE
  8
0
 10
96.573
 20
100.353
 11
96.9379
 21
100.447
  0
LINE
  8
0
 10
96.9379
 20
100.447
 11
97.3116
 21
100.494
  0
LINE
  8
0
 10
97.3116
 20
100.494
 11
97.6884
 21
100.494
  0
LINE
  8
0
 10
97.6884
 20
100.494
 11
98.0621
 21
100.447
  0
LINE
  8
0
 10
98.0621
 20
100.447
 11
98.427
 21
100.353
  0
LINE
  8
0
 10
98.427
 20
100.353
 11
98.7773
 21
100.214
  0
LINE
  8
0
 10
98.7773
 20
100.214
 11
99.1075
 21
100.033
  0
LINE
  8
0
 10
99.1075
 20
100.033
 11
99.4123
 21
99.8115
  0
LINE
  8
0
 10
99.4123
 20
99.8115
 11
99.6869
 21
99.5536
  0
LINE
  8
0
 10
99.6869
 20
99.5536
 11
99.927
 21
99.2634
  0
LINE
  8
0
 10
99.927
 20
99.2634
 11
100.129
 21
98.9453
  0
LINE
  8
0
 10
100.129
 20
98.9453
 11
100.289
 21
98.6044
  0
LINE
  8
0
 10
100.289
 20
98.6044
 11
100.406
 21
98.2461
  0
LINE
  8
0
 10
100.406
 20
98.2461
 11
100.476
 21
97.876
  0
LINE
  8
0
 10
100.476
 20
97.876
 11
100.5
 21
97.5
  0
LINE
  8
0
 10
100.5
 20
97.5
 11
100.476
 21
97.124
  0
LINE
  8
0
 10
100.476
 20
97.124
 11
100.406
 21
96.7539
  0
LINE
  8
0
 10
100.406
 20
96.7539
 11
100.289
 21
96.3956
  0
LINE
  8
0
 10
100.289
 20
96.3956
 11
100.129
 21
96.0547
  0
LINE
  8
0
 10
100.129
 20
96.0547
 11
99.927
 21
95.7366
  0
LINE
  8
0
 10
99.927
 20
95.7366
 11
99.6869
 21
95.4464
  0
LINE
  8
0
 10
99.6869
 20
95.4464
 11
99.4123
 21
95.1885
  0
LINE
  8
0
 10
99.4123
 20
95.1885
 11
99.1075
 21
94.967
  0
LINE
  8
0
 10
99.1075
 20
94.967
 11
98.7773
 21
94.7855
  0
LINE
  8
0
 10
98.7773
 20
94.7855
 11
98.427
 21
94.6468
  0
LINE
  8
0
 10
98.427
 20
94.6468
 11
98.0621
 21
94.5531
  0
LINE
  8
0
 10
98.0621
 20
94.5531
 11
97.6884
 21
94.5059
  0
LINE
  8
0
 10
97.6884
 20
94.5059
 11
97.3116
 21
94.5059
  0
LINE
  8
0
 10
-97.6884
 20
94.5059
 11
-98.0621
 21
94.5531
  0
LINE
  8
0
 10
-98.0621
 20
94.5531
 11
-98.427
 21
94.6468
  0
LINE
  8
0
 10
-98.427
 20
94.6468
 11
-98.7773
 21
94.7855
  0
LINE
  8
0
 10
-98.7773
 20
94.7855
 11
-99.1075
 21
94.967
  0
LINE
  8
0
 10
-99.1075
 20
94.967
 11
-99.4123
 21
95.1885
  0
LINE
  8
0
 10
-99.4123
 20
95.1885
 11
-99.6869
 21
95.4464
  0
LINE
  8
0
 10
-99.6869
 20
95.4464
 11
-99.927
 21
95.7366
  0
LINE
  8
0
 10
-99.927
 20
95.7366
 11
-100.129
 21
96.0547
  0
LINE
  8
0
 10
-100.129
 20
96.0547
 11
-100.289
 21
96.3956
  0
LINE
  8
0
 10
-100.289
 20
96.3956
 11
-100.406
 21
96.7539
  0
LINE
  8
0
 10
-100.406
 20
96.7539
 11
-100.476
 21
97.124
  0
LINE
  8
0
 10
-100.476
 20
97.124
 11
-100.5
 21
97.5
  0
LINE
  8
0
 10
-100.5
 20
97.5
 11
-100.476
 21
97.876
  0
LINE
  8
0
 10
-100.476
 20
97.876
 11
-100.406
 21
98.2461
  0
LINE
  8
0
 10
-100.406
 20
98.2461
 11
-100.289
 21
98.6044
  0
LINE
  8
0
 10
-100.289
 20
98.6044
 11
-100.129
 21
98.9453
  0
LINE
  8
0
 10
-100.129
 20
98.9453
 11
-99.927
 21
99.2634
  0
LINE
  8
0
 10
-99.927
 20
99.2634
 11
-99.6869
 21
99.5536
  0
LINE
  8
0
 10
-99.6869
 20
99.5536
 11
-99.4123
 21
99.8115
  0
LINE
  8
0
 10
-99.4123
 20
99.8115
 11
-99.1075
 21
100.033
  0
LINE
  8
0
 10
-99.1075
 20
100.033
 11
-98.7773
 21
100.214
  0
LINE
  8
0
 10
-98.7773
 20
100.214
 11
-98.427
 21
100.353
  0
LINE
  8
0
 10
-98.427
 20
100.353
 11
-98.0621
 21
100.447
  0
LINE
  8
0
 10
-98.0621
 20
100.447
 11
-97.6884
 21
100.494
  0
LINE
  8
0
 10
-97.6884
 20
100.494
 11
-97.3116
 21
100.494
  0
LINE
  8
0
 10
-97.3116
 20
100.494
 11
-96.9379
 21
100.447
  0
LINE
  8
0
 10
-96.9379
 20
100.447
 11
-96.573
 21
100.353
  0
LINE
  8
0
 10
-96.573
 20
100.353
 11
-96.2227
 21
100.214
  0
LINE
  8
0
 10
-96.2227
 20
100.214
 11
-95.8925
 21
100.033
  0
LINE
  8
0
 10
-95.8925
 20
100.033
 11
-95.5877
 21
99.8115
  0
LINE
  8
0
 10
-95.5877
 20
99.8115
 11
-95.3131
 21
99.5536
  0
LINE
  8
0
 10
-95.3131
 20
99.5536
 11
-95.073
 21
99.2634
  0
LINE
  8
0
 10
-95.073
 20
99.2634
 11
-94.8711
 21
98.9453
  0
LINE
  8
0
 10
-94.8711
 20
98.9453
 11
-94.7107
 21
98.6044
  0
LINE
  8
0
 10
-94.7107
 20
98.6044
 11
-94.5943
 21
98.2461
  0
LINE
  8
0
 10
-94.5943
 20
98.2461
 11
-94.5237
 21
97.876
  0
LINE
  8
0
 10
-94.5237
 20
97.876
 11
-94.5
 21
97.5
  0
LINE
  8
0
 10
-94.5
 20
97.5
 11
-94.5237
 21
97.124
  0
LINE
  8
0
 10
-94.5237
 20
97.124
 11
-94.5943
 21
96.7539
  0
LINE
  8
0
 10
-94.5943
 20
96.7539
 11
-94.7107
 21
96.3956
  0
LINE
  8
0
 10
-94.7107
 20
96.3956
 11
-94.8711
 21
96.0547
  0
LINE
  8
0
 10
-94.8711
 20
96.0547
 11
-95.073
 21
95.7366
  0
LINE
  8
0
 10
-95.073
 20
95.7366
 11
-95.3131
 21
95.4464
  0
LINE
  8
0
 10
-95.3131
 20
95.4464
 11
-95.5877
 21
95.1885
  0
LINE
  8
0
 10
-95.5877
 20
95.1885
 11
-95.8925
 21
94.967
  0
LINE
  8
0
 10
-95.8925
 20
94.967
 11
-96.2227
 21
94.7855
  0
LINE
  8
0
 10
-96.2227
 20
94.7855
 11
-96.573
 21
94.6468
  0
LINE
  8
0
 10
-96.573
 20
94.6468
 11
-96.9379
 21
94.5531
  0
LINE
  8
0
 10
-96.9379
 20
94.5531
 11
-97.3116
 21
94.5059
  0
LINE
  8
0
 10
-97.3116
 20
94.5059
 11
-97.6884
 21
94.5059
  0
LINE
  8
0
 10
97.3116
 20
-100.494
 11
96.9379
 21
-100.447
  0
LINE
  8
0
 10
96.9379
 20
-100.447
 11
96.573
 21
-100.353
  0
LINE
  8
0
 10
96.573
 20
-100.353
 11
96.2227
 21
-100.214
  0
LINE
  8
0
 10
96.2227
 20
-100.214
 11
95.8925
 21
-100.033
  0
LINE
  8
0
 10
95.8925
 20
-100.033
 11
95.5877
 21
-99.8115
  0
LINE
  8
0
 10
95.5877
 20
-99.8115
 11
95.3131
 21
-99.5536
  0
LINE
  8
0
 10
95.3131
 20
-99.5536
 11
95.073
 21
-99.2634
  0
LINE
  8
0
 10
95.073
 20
-99.2634
 11
94.8711
 21
-98.9453
  0
LINE
  8
0
 10
94.8711
 20
-98.9453
 11
94.7107
 21
-98.6044
  0
LINE
  8
0
 10
94.7107
 20
-98.6044
 11
94.5943
 21
-98.2461
  0
LINE
  8
0
 10
94.5943
 20
-98.2461
 11
94.5237
 21
-97.876
  0
LINE
  8
0
 10
94.5237
 20
-97.876
 11
94.5
 21
-97.5
  0
LINE
  8
0
 10
94.5
 20
-97.5
 11
94.5237
 21
-97.124
  0
LINE
  8
0
 10
94.5237
 20
-97.124
 11
94.5943
 21
-96.7539
  0
LINE
  8
0
 10
94.5943
 20
-96.7539
 11
94.7107
 21
-96.3956
  0
LINE
  8
0
 10
94.7107
 20
-96.3956
 11
94.8711
 21
-96.0547
  0
LINE
  8
0
 10
94.8711
 20
-96.0547
 11
95.073
 21
-95.7366
  0
LINE
  8
0
 10
95.073
 20
-95.7366
 11
95.3131
 21
-95.4464
  0
LINE
  8
0
 10
95.3131
 20
-95.4464
 11
95.5877
 21
-95.1885
  0
LINE
  8
0
 10
95.5877
 20
-95.1885
 11
95.8925
 21
-94.967
  0
LINE
  8
0
 10
95.8925
 20
-94.967
 11
96.2227
 21
-94.7855
  0
LINE
  8
0
 10
96.2227
 20
-94.7855
 11
96.573
 21
-94.6468
  0
LINE
  8
0
 10
96.573
 20
-94.6468
 11
96.9379
 21
-94.5531
  0
LINE
  8
0
 10
96.9379
 20
-94.5531
 11
97.3116
 21
-94.5059
  0
LINE
  8
0
 10
97.3116
 20
-94.5059
 11
97.6884
 21
-94.5059
  0
LINE
  8
0
 10
97.6884
 20
-94.5059
 11
98.0621
 21
-94.5531
  0
LINE
  8
0
 10
98.0621
 20
-94.5531
 11
98.427
 21
-94.6468
  0
LINE
  8
0
 10
98.427
 20
-94.6468
 11
98.7773
 21
-94.7855
  0
LINE
  8
0
 10
98.7773
 20
-94.7855
 11
99.1075
 21
-94.967
  0
LINE
  8
0
 10
99.1075
 20
-94.967
 11
99.4123
 21
-95.1885
  0
LINE
  8
0
 10
99.4123
 20
-95.1885
 11
99.6869
 21
-95.4464
  0
LINE
  8
0
 10
99.6869
 20
-95.4464
 11
99.927
 21
-95.7366
  0
LINE
  8
0
 10
99.927
 20
-95.7366
 11
100.129
 21
-96.0547
  0
LINE
  8
0
 10
100.129
 20
-96.0547
 11
100.289
 21
-96.3956
  0
LINE
  8
0
 10
100.289
 20
-96.3956
 11
100.406
 21
-96.7539
  0
LINE
  8
0
 10
100.406
 20
-96.7539
 11
100.476
 21
-97.124
  0
LINE
  8
0
 10
100.476
 20
-97.124
 11
100.5
 21
-97.5
  0
LINE
  8
0
 10
100.5
 20
-97.5
 11
100.476
 21
-97.876
  0
LINE
  8
0
 10
100.476
 20
-97.876
 11
100.406
 21
-98.2461
  0
LINE
  8
0
 10
100.406
 20
-98.2461
 11
100.289
 21
-98.6044
  0
LINE
  8
0
 10
100.289
 20
-98.6044
 11
100.129
 21
-98.9453
  0
LINE
  8
0
 10
100.129
 20
-98.9453
 11
99.927
 21
-99.2634
  0
LINE
  8
0
 10
99.927
 20
-99.2634
 11
99.6869
 21
-99.5536
  0
LINE
  8
0
 10
99.6869
 20
-99.5536
 11
99.4123
 21
-99.8115
  0
LINE
  8
0
 10
99.4123
 20
-99.8115
 11
99.1075
 21
-100.033
  0
LINE
  8
0
 10
99.1075
 20
-100.033
 11
98.7773
 21
-100.214
  0
LINE
  8
0
 10
98.7773
 20
-100.214
 11
98.427
 21
-100.353
  0
LINE
  8
0
 10
98.427
 20
-100.353
 11
98.0621
 21
-100.447
  0
LINE
  8
0
 10
98.0621
 20
-100.447
 11
97.6884
 21
-100.494
  0
LINE
  8
0
 10
97.6884
 20
-100.494
 11
97.3116
 21
-100.494
  0
LINE
  8
0
 10
-97.6884
 20
-100.494
 11
-98.0621
 21
-100.447
  0
LINE
  8
0
 10
-98.0621
 20
-100.447
 11
-98.427
 21
-100.353
  0
LINE
  8
0
 10
-98.427
 20
-100.353
 11
-98.7773
 21
-100.214
  0
LINE
  8
0
 10
-98.7773
 20
-100.214
 11
-99.1075
 21
-100.033
  0
LINE
  8
0
 10
-99.1075
 20
-100.033
 11
-99.4123
 21
-99.8115
  0
LINE
  8
0
 10
-99.4123
 20
-99.8115
 11
-99.6869
 21
-99.5536
  0
LINE
  8
0
 10
-99.6869
 20
-99.5536
 11
-99.927
 21
-99.2634
  0
LINE
  8
0
 10
-99.927
 20
-99.2634
 11
-100.129
 21
-98.9453
  0
LINE
  8
0
 10
-100.129
 20
-98.9453
 11
-100.289
 21
-98.6044
  0
LINE
  8
0
 10
-100.289
 20
-98.6044
 11
-100.406
 21
-98.2461
  0
LINE
  8
0
 10
-100.406
 20
-98.2461
 11
-100.476
 21
-97.876
  0
LINE
  8
0
 10
-100.476
 20
-97.876
 11
-100.5
 21
-97.5
  0
LINE
  8
0
 10
-100.5
 20
-97.5
 11
-100.476
 21
-97.124
  0
LINE
  8
0
 10
-100.476
 20
-97.124
 11
-100.406
 21
-96.7539
  0
LINE
  8
0
 10
-100.406
 20
-96.7539
 11
-100.289
 21
-96.3956
  0
LINE
  8
0
 10
-100.289
 20
-96.3956
 11
-100.129
 21
-96.0547
  0
LINE
  8
0
 10
-100.129
 20
-96.0547
 11
-99.927
 21
-95.7366
  0
LINE
  8
0
 10
-99.927
 20
-95.7366
 11
-99.6869
 21
-95.4464
  0
LINE
  8
0
 10
-99.6869
 20
-95.4464
 11
-99.4123
 21
-95.1885
  0
LINE
  8
0
 10
-99.4123
 20
-95.1885
 11
-99.1075
 21
-94.967
  0
LINE
  8
0
 10
-99.1075
 20
-94.967
 11
-98.7773
 21
-94.7855
  0
LINE
  8
0
 10
-98.7773
 20
-94.7855
 11
-98.427
 21
-94.6468
  0
LINE
  8
0
 10
-98.427
 20
-94.6468
 11
-98.0621
 21
-94.5531
  0
LINE
  8
0
 10
-98.0621
 20
-94.5531
 11
-97.6884
 21
-94.5059
  0
LINE
  8
0
 10
-97.6884
 20
-94.5059
 11
-97.3116
 21
-94.5059
  0
LINE
  8
0
 10
-97.3116
 20
-94.5059
 11
-96.9379
 21
-94.5531
  0
LINE
  8
0
 10
-96.9379
 20
-94.5531
 11
-96.573
 21
-94.6468
  0
LINE
  8
0
 10
-96.573
 20
-94.6468
 11
-96.2227
 21
-94.7855
  0
LINE
  8
0
 10
-96.2227
 20
-94.7855
 11
-95.8925
 21
-94.967
  0
LINE
  8
0
 10
-95.8925
 20
-94.967
 11
-95.5877
 21
-95.1885
  0
LINE
  8
0
 10
-95.5877
 20
-95.1885
 11
-95.3131
 21
-95.4464
  0
LINE
  8
0
 10
-95.3131
 20
-95.4464
 11
-95.073
 21
-95.7366
  0
LINE
  8
0
 10
-95.073
 20
-95.7366
 11
-94.8711
 21
-96.0547
  0
LINE
  8
0
 10
-94.8711
 20
-96.0547
 11
-94.7107
 21
-96.3956
  0
LINE
  8
0
 10
-94.7107
 20
-96.3956
 11
-94.5943
 21
-96.7539
  0
LINE
  8
0
 10
-94.5943
 20
-96.7539
 11
-94.5237
 21
-97.124
  0
LINE
  8
0
 10
-94.5237
 20
-97.124
 11
-94.5
 21
-97.5
  0
LINE
  8
0
 10
-94.5
 20
-97.5
 11
-94.5237
 21
-97.876
  0
LINE
  8
0
 10
-94.5237
 20
-97.876
 11
-94.5943
 21
-98.2461
  0
LINE
  8
0
 10
-94.5943
 20
-98.2461
 11
-94.7107
 21
-98.6044
  0
LINE
  8
0
 10
-94.7107
 20
-98.6044
 11
-94.8711
 21
-98.9453
  0
LINE
  8
0
 10
-94.8711
 20
-98.9453
 11
-95.073
 21
-99.2634
  0
LINE
  8
0
 10
-95.073
 20
-99.2634
 11
-95.3131
 21
-99.5536
  0
LINE
  8
0
 10
-95.3131
 20
-99.5536
 11
-95.5877
 21
-99.8115
  0
LINE
  8
0
 10
-95.5877
 20
-99.8115
 11
-95.8925
 21
-100.033
  0
LINE
  8
0
 10
-95.8925
 20
-100.033
 11
-96.2227
 21
-100.214
  0
LINE
  8
0
 10
-96.2227
 20
-100.214
 11
-96.573
 21
-100.353
  0
LINE
  8
0
 10
-96.573
 20
-100.353
 11
-96.9379
 21
-100.447
  0
LINE
  8
0
 10
-96.9379
 20
-100.447
 11
-97.3116
 21
-100.494
  0
LINE
  8
0
 10
-97.3116
 20
-100.494
 11
-97.6884
 21
-100.494
  0
ENDSEC
  0
SECTION
  2
OBJECTS
  0
DICTIONARY
  0
ENDSEC
  0
EOF
