<?xml version="1.0" standalone="no"?>
<!DOCTYPE svg PUBLIC "-//W3C//DTD SVG 1.1//EN" "http://www.w3.org/Graphics/SVG/1.1/DTD/svg11.dtd">
<svg width="240mm" height="38mm" viewBox="-120 -55 240 38" xmlns="http://www.w3.org/2000/svg" version="1.1">
<title>OpenSCAD Model</title>
<path d="
M 115.437,-41.0886 L 116.045,-41.2447 L 116.629,-41.4759 L 117.179,-41.7784 L 117.687,-42.1474 L 118.145,-42.5773
 L 118.545,-43.0611 L 118.882,-43.5912 L 119.149,-44.1594 L 119.343,-44.7566 L 119.461,-45.3733 L 119.5,-46
 L 119.5,-50 L 119.461,-50.6267 L 119.343,-51.2434 L 119.149,-51.8406 L 118.882,-52.4088 L 118.545,-52.9389
 L 118.145,-53.4227 L 117.687,-53.8526 L 117.179,-54.2216 L 116.629,-54.5241 L 116.045,-54.7553 L 115.437,-54.9114
 L 114.814,-54.9901 L -114.814,-54.9901 L -115.437,-54.9114 L -116.045,-54.7553 L -116.629,-54.5241 L -117.179,-54.2216
 L -117.687,-53.8526 L -118.145,-53.4227 L -118.545,-52.9389 L -118.882,-52.4088 L -119.149,-51.8406 L -119.343,-51.2434
 L -119.461,-50.6267 L -119.5,-50 L -119.5,-46 L -119.461,-45.3733 L -119.343,-44.7566 L -119.149,-44.1594
 L -118.882,-43.5912 L -118.545,-43.0611 L -118.145,-42.5773 L -117.687,-42.1474 L -117.179,-41.7784 L -116.629,-41.4759
 L -116.045,-41.2447 L -115.437,-41.0886 L -114.814,-41.0099 L 114.814,-41.0099 z
M 7.31161,-45.0059 L 6.93785,-45.0531 L 6.57294,-45.1468 L 6.22266,-45.2855 L 5.89252,-45.467 L 5.58772,-45.6885
 L 5.31308,-45.9464 L 5.07294,-46.2366 L 4.87108,-46.5547 L 4.71066,-46.8956 L 4.59424,-47.2539 L 4.52365,-47.624
 L 4.5,-48 L 4.52365,-48.376 L 4.59424,-48.7461 L 4.71066,-49.1044 L 4.87108,-49.4453 L 5.07294,-49.7634
 L 5.31308,-50.0536 L 5.58772,-50.3115 L 5.89252,-50.533 L 6.22266,-50.7145 L 6.57294,-50.8532 L 6.93785,-50.9469
 L 7.31161,-50.9941 L 7.68837,-50.9941 L 8.06213,-50.9469 L 8.42705,-50.8532 L 8.77733,-50.7145 L 9.10747,-50.533
 L 9.41226,-50.3115 L 9.6869,-50.0536 L 9.92705,-49.7634 L 10.1289,-49.4453 L 10.2893,-49.1044 L 10.4057,-48.7461
 L 10.4763,-48.376 L 10.5,-48 L 10.4763,-47.624 L 10.4057,-47.2539 L 10.2893,-46.8956 L 10.1289,-46.5547
 L 9.92705,-46.2366 L 9.6869,-45.9464 L 9.41226,-45.6885 L 9.10747,-45.467 L 8.77733,-45.2855 L 8.42705,-45.1468
 L 8.06213,-45.0531 L 7.68837,-45.0059 z
M 67.3116,-45.0059 L 66.9379,-45.0531 L 66.573,-45.1468 L 66.2227,-45.2855 L 65.8925,-45.467 L 65.5877,-45.6885
 L 65.3131,-45.9464 L 65.073,-46.2366 L 64.8711,-46.5547 L 64.7107,-46.8956 L 64.5943,-47.2539 L 64.5237,-47.624
 L 64.5,-48 L 64.5237,-48.376 L 64.5943,-48.7461 L 64.7107,-49.1044 L 64.8711,-49.4453 L 65.073,-49.7634
 L 65.3131,-50.0536 L 65.5877,-50.3115 L 65.8925,-50.533 L 66.2227,-50.7145 L 66.573,-50.8532 L 66.9379,-50.9469
 L 67.3116,-50.9941 L 67.6884,-50.9941 L 68.0621,-50.9469 L 68.427,-50.8532 L 68.7773,-50.7145 L 69.1075,-50.533
 L 69.4123,-50.3115 L 69.6869,-50.0536 L 69.927,-49.7634 L 70.1289,-49.4453 L 70.2893,-49.1044 L 70.4057,-48.7461
 L 70.4763,-48.376 L 70.5,-48 L 70.4763,-47.624 L 70.4057,-47.2539 L 70.2893,-46.8956 L 70.1289,-46.5547
 L 69.927,-46.2366 L 69.6869,-45.9464 L 69.4123,-45.6885 L 69.1075,-45.467 L 68.7773,-45.2855 L 68.427,-45.1468
 L 68.0621,-45.0531 L 67.6884,-45.0059 z
M -37.6884,-45.0059 L -38.0621,-45.0531 L -38.427,-45.1468 L -38.7773,-45.2855 L -39.1075,-45.467 L -39.4123,-45.6885
 L -39.6869,-45.9464 L -39.927,-46.2366 L -40.1289,-46.5547 L -40.2893,-46.8956 L -40.4057,-47.2539 L -40.4763,-47.624
 L -40.5,-48 L -40.4763,-48.376 L -40.4057,-48.7461 L -40.2893,-49.1044 L -40.1289,-49.4453 L -39.927,-49.7634
 L -39.6869,-50.0536 L -39.4123,-50.3115 L -39.1075,-50.533 L -38.7773,-50.7145 L -38.427,-50.8532 L -38.0621,-50.9469
 L -37.6884,-50.9941 L -37.3116,-50.9941 L -36.9379,-50.9469 L -36.5729,-50.8532 L -36.2227,-50.7145 L -35.8925,-50.533
 L -35.5877,-50.3115 L -35.3131,-50.0536 L -35.0729,-49.7634 L -34.8711,-49.4453 L -34.7107,-49.1044 L -34.5942,-48.7461
 L -34.5237,-48.376 L -34.5,-48 L -34.5237,-47.624 L -34.5942,-47.2539 L -34.7107,-46.8956 L -34.8711,-46.5547
 L -35.0729,-46.2366 L -35.3131,-45.9464 L -35.5877,-45.6885 L -35.8925,-45.467 L -36.2227,-45.2855 L -36.5729,-45.1468
 L -36.9379,-45.0531 L -37.3116,-45.0059 z
M -52.6884,-45.0059 L -53.0621,-45.0531 L -53.427,-45.1468 L -53.7773,-45.2855 L -54.1075,-45.467 L -54.4123,-45.6885
 L -54.6869,-45.9464 L -54.927,-46.2366 L -55.1289,-46.5547 L -55.2893,-46.8956 L -55.4057,-47.2539 L -55.4763,-47.624
 L -55.5,-48 L -55.4763,-48.376 L -55.4057,-48.7461 L -55.2893,-49.1044 L -55.1289,-49.4453 L -54.927,-49.7634
 L -54.6869,-50.0536 L -54.4123,-50.3115 L -54.1075,-50.533 L -53.7773,-50.7145 L -53.427,-50.8532 L -53.0621,-50.9469
 L -52.6884,-50.9941 L -52.3116,-50.9941 L -51.9379,-50.9469 L -51.5729,-50.8532 L -51.2227,-50.7145 L -50.8925,-50.533
 L -50.5877,-50.3115 L -50.3131,-50.0536 L -50.0729,-49.7634 L -49.8711,-49.4453 L -49.7107,-49.1044 L -49.5942,-48.7461
 L -49.5237,-48.376 L -49.5,-48 L -49.5237,-47.624 L -49.5942,-47.2539 L -49.7107,-46.8956 L -49.8711,-46.5547
 L -50.0729,-46.2366 L -50.3131,-45.9464 L -50.5877,-45.6885 L -50.8925,-45.467 L -51.2227,-45.2855 L -51.5729,-45.1468
 L -51.9379,-45.0531 L -52.3116,-45.0059 z
M 52.3116,-45.0059 L 51.9379,-45.0531 L 51.5729,-45.1468 L 51.2227,-45.2855 L 50.8925,-45.467 L 50.5877,-45.6885
 L 50.3131,-45.9464 L 50.0729,-46.2366 L 49.8711,-46.5547 L 49.7107,-46.8956 L 49.5942,-47.2539 L 49.5237,-47.624
 L 49.5,-48 L 49.5237,-48.376 L 49.5942,-48.7461 L 49.7107,-49.1044 L 49.8711,-49.4453 L 50.0729,-49.7634
 L 50.3131,-50.0536 L 50.5877,-50.3115 L 50.8925,-50.533 L 51.2227,-50.7145 L 51.5729,-50.8532 L 51.9379,-50.9469
 L 52.3116,-50.9941 L 52.6884,-50.9941 L 53.0621,-50.9469 L 53.427,-50.8532 L 53.7773,-50.7145 L 54.1075,-50.533
 L 54.4123,-50.3115 L 54.6869,-50.0536 L 54.927,-49.7634 L 55.1289,-49.4453 L 55.2893,-49.1044 L 55.4057,-48.7461
 L 55.4763,-48.376 L 55.5,-48 L 55.4763,-47.624 L 55.4057,-47.2539 L 55.2893,-46.8956 L 55.1289,-46.5547
 L 54.927,-46.2366 L 54.6869,-45.9464 L 54.4123,-45.6885 L 54.1075,-45.467 L 53.7773,-45.2855 L 53.427,-45.1468
 L 53.0621,-45.0531 L 52.6884,-45.0059 z
M -22.6884,-45.0059 L -23.0621,-45.0531 L -23.427,-45.1468 L -23.7773,-45.2855 L -24.1075,-45.467 L -24.4123,-45.6885
 L -24.6869,-45.9464 L -24.927,-46.2366 L -25.1289,-46.5547 L -25.2893,-46.8956 L -25.4057,-47.2539 L -25.4763,-47.624
 L -25.5,-48 L -25.4763,-48.376 L -25.4057,-48.7461 L -25.2893,-49.1044 L -25.1289,-49.4453 L -24.927,-49.7634
 L -24.6869,-50.0536 L -24.4123,-50.3115 L -24.1075,-50.533 L -23.7773,-50.7145 L -23.427,-50.8532 L -23.0621,-50.9469
 L -22.6884,-50.9941 L -22.3116,-50.9941 L -21.9379,-50.9469 L -21.5729,-50.8532 L -21.2227,-50.7145 L -20.8925,-50.533
 L -20.5877,-50.3115 L -20.3131,-50.0536 L -20.0729,-49.7634 L -19.8711,-49.4453 L -19.7107,-49.1044 L -19.5942,-48.7461
 L -19.5237,-48.376 L -19.5,-48 L -19.5237,-47.624 L -19.5942,-47.2539 L -19.7107,-46.8956 L -19.8711,-46.5547
 L -20.0729,-46.2366 L -20.3131,-45.9464 L -20.5877,-45.6885 L -20.8925,-45.467 L -21.2227,-45.2855 L -21.5729,-45.1468
 L -21.9379,-45.0531 L -22.3116,-45.0059 z
M 22.3116,-45.0059 L 21.9379,-45.0531 L 21.5729,-45.1468 L 21.2227,-45.2855 L 20.8925,-45.467 L 20.5877,-45.6885
 L 20.3131,-45.9464 L 20.0729,-46.2366 L 19.8711,-46.5547 L 19.7107,-46.8956 L 19.5942,-47.2539 L 19.5237,-47.624
 L 19.5,-48 L 19.5237,-48.376 L 19.5942,-48.7461 L 19.7107,-49.1044 L 19.8711,-49.4453 L 20.0729,-49.7634
 L 20.3131,-50.0536 L 20.5877,-50.3115 L 20.8925,-50.533 L 21.2227,-50.7145 L 21.5729,-50.8532 L 21.9379,-50.9469
 L 22.3116,-50.9941 L 22.6884,-50.9941 L 23.0621,-50.9469 L 23.427,-50.8532 L 23.7773,-50.7145 L 24.1075,-50.533
 L 24.4123,-50.3115 L 24.6869,-50.0536 L 24.927,-49.7634 L 25.1289,-49.4453 L 25.2893,-49.1044 L 25.4057,-48.7461
 L 25.4763,-48.376 L 25.5,-48 L 25.4763,-47.624 L 25.4057,-47.2539 L 25.2893,-46.8956 L 25.1289,-46.5547
 L 24.927,-46.2366 L 24.6869,-45.9464 L 24.4123,-45.6885 L 24.1075,-45.467 L 23.7773,-45.2855 L 23.427,-45.1468
 L 23.0621,-45.0531 L 22.6884,-45.0059 z
M -112.688,-45.0059 L -113.062,-45.0531 L -113.427,-45.1468 L -113.777,-45.2855 L -114.107,-45.467 L -114.412,-45.6885
 L -114.687,-45.9464 L -114.927,-46.2366 L -115.129,-46.5547 L -115.289,-46.8956 L -115.406,-47.2539 L -115.476,-47.624
 L -115.5,-48 L -115.476,-48.376 L -115.406,-48.7461 L -115.289,-49.1044 L -115.129,-49.4453 L -114.927,-49.7634
 L -114.687,-50.0536 L -114.412,-50.3115 L -114.107,-50.533 L -113.777,-50.7145 L -113.427,-50.8532 L -113.062,-50.9469
 L -112.688,-50.9941 L -112.312,-50.9941 L -111.938,-50.9469 L -111.573,-50.8532 L -111.223,-50.7145 L -110.893,-50.533
 L -110.588,-50.3115 L -110.313,-50.0536 L -110.073,-49.7634 L -109.871,-49.4453 L -109.711,-49.1044 L -109.594,-48.7461
 L -109.524,-48.376 L -109.5,-48 L -109.524,-47.624 L -109.594,-47.2539 L -109.711,-46.8956 L -109.871,-46.5547
 L -110.073,-46.2366 L -110.313,-45.9464 L -110.588,-45.6885 L -110.893,-45.467 L -111.223,-45.2855 L -111.573,-45.1468
 L -111.938,-45.0531 L -112.312,-45.0059 z
M -7.68837,-45.0059 L -8.06213,-45.0531 L -8.42705,-45.1468 L -8.77733,-45.2855 L -9.10747,-45.467 L -9.41226,-45.6885
 L -9.6869,-45.9464 L -9.92705,-46.2366 L -10.1289,-46.5547 L -10.2893,-46.8956 L -10.4057,-47.2539 L -10.4763,-47.624
 L -10.5,-48 L -10.4763,-48.376 L -10.4057,-48.7461 L -10.2893,-49.1044 L -10.1289,-49.4453 L -9.92705,-49.7634
 L -9.6869,-50.0536 L -9.41226,-50.3115 L -9.10747,-50.533 L -8.77733,-50.7145 L -8.42705,-50.8532 L -8.06213,-50.9469
 L -7.68837,-50.9941 L -7.31161,-50.9941 L -6.93785,-50.9469 L -6.57294,-50.8532 L -6.22266,-50.7145 L -5.89252,-50.533
 L -5.58772,-50.3115 L -5.31308,-50.0536 L -5.07294,-49.7634 L -4.87108,-49.4453 L -4.71066,-49.1044 L -4.59424,-48.7461
 L -4.52365,-48.376 L -4.5,-48 L -4.52365,-47.624 L -4.59424,-47.2539 L -4.71066,-46.8956 L -4.87108,-46.5547
 L -5.07294,-46.2366 L -5.31308,-45.9464 L -5.58772,-45.6885 L -5.89252,-45.467 L -6.22266,-45.2855 L -6.57294,-45.1468
 L -6.93785,-45.0531 L -7.31161,-45.0059 z
M 97.3116,-45.0059 L 96.9379,-45.0531 L 96.573,-45.1468 L 96.2227,-45.2855 L 95.8925,-45.467 L 95.5877,-45.6885
 L 95.3131,-45.9464 L 95.073,-46.2366 L 94.8711,-46.5547 L 94.7107,-46.8956 L 94.5943,-47.2539 L 94.5237,-47.624
 L 94.5,-48 L 94.5237,-48.376 L 94.5943,-48.7461 L 94.7107,-49.1044 L 94.8711,-49.4453 L 95.073,-49.7634
 L 95.3131,-50.0536 L 95.5877,-50.3115 L 95.8925,-50.533 L 96.2227,-50.7145 L 96.573,-50.8532 L 96.9379,-50.9469
 L 97.3116,-50.9941 L 97.6884,-50.9941 L 98.0621,-50.9469 L 98.427,-50.8532 L 98.7773,-50.7145 L 99.1075,-50.533
 L 99.4123,-50.3115 L 99.6869,-50.0536 L 99.927,-49.7634 L 100.129,-49.4453 L 100.289,-49.1044 L 100.406,-48.7461
 L 100.476,-48.376 L 100.5,-48 L 100.476,-47.624 L 100.406,-47.2539 L 100.289,-46.8956 L 100.129,-46.5547
 L 99.927,-46.2366 L 99.6869,-45.9464 L 99.4123,-45.6885 L 99.1075,-45.467 L 98.7773,-45.2855 L 98.427,-45.1468
 L 98.0621,-45.0531 L 97.6884,-45.0059 z
M 112.312,-45.0059 L 111.938,-45.0531 L 111.573,-45.1468 L 111.223,-45.2855 L 110.893,-45.467 L 110.588,-45.6885
 L 110.313,-45.9464 L 110.073,-46.2366 L 109.871,-46.5547 L 109.711,-46.8956 L 109.594,-47.2539 L 109.524,-47.624
 L 109.5,-48 L 109.524,-48.376 L 109.594,-48.7461 L 109.711,-49.1044 L 109.871,-49.4453 L 110.073,-49.7634
 L 110.313,-50.0536 L 110.588,-50.3115 L 110.893,-50.533 L 111.223,-50.7145 L 111.573,-50.8532 L 111.938,-50.9469
 L 112.312,-50.9941 L 112.688,-50.9941 L 113.062,-50.9469 L 113.427,-50.8532 L 113.777,-50.7145 L 114.107,-50.533
 L 114.412,-50.3115 L 114.687,-50.0536 L 114.927,-49.7634 L 115.129,-49.4453 L 115.289,-49.1044 L 115.406,-48.7461
 L 115.476,-48.376 L 115.5,-48 L 115.476,-47.624 L 115.406,-47.2539 L 115.289,-46.8956 L 115.129,-46.5547
 L 114.927,-46.2366 L 114.687,-45.9464 L 114.412,-45.6885 L 114.107,-45.467 L 113.777,-45.2855 L 113.427,-45.1468
 L 113.062,-45.0531 L 112.688,-45.0059 z
M -97.6884,-45.0059 L -98.0621,-45.0531 L -98.427,-45.1468 L -98.7773,-45.2855 L -99.1075,-45.467 L -99.4123,-45.6885
 L -99.6869,-45.9464 L -99.927,-46.2366 L -100.129,-46.5547 L -100.289,-46.8956 L -100.406,-47.2539 L -100.476,-47.624
 L -100.5,-48 L -100.476,-48.376 L -100.406,-48.7461 L -100.289,-49.1044 L -100.129,-49.4453 L -99.927,-49.7634
 L -99.6869,-50.0536 L -99.4123,-50.3115 L -99.1075,-50.533 L -98.7773,-50.7145 L -98.427,-50.8532 L -98.0621,-50.9469
 L -97.6884,-50.9941 L -97.3116,-50.9941 L -96.9379,-50.9469 L -96.573,-50.8532 L -96.2227,-50.7145 L -95.8925,-50.533
 L -95.5877,-50.3115 L -95.3131,-50.0536 L -95.073,-49.7634 L -94.8711,-49.4453 L -94.7107,-49.1044 L -94.5943,-48.7461
 L -94.5237,-48.376 L -94.5,-48 L -94.5237,-47.624 L -94.5943,-47.2539 L -94.7107,-46.8956 L -94.8711,-46.5547
 L -95.073,-46.2366 L -95.3131,-45.9464 L -95.5877,-45.6885 L -95.8925,-45.467 L -96.2227,-45.2855 L -96.573,-45.1468
 L -96.9379,-45.0531 L -97.3116,-45.0059 z
M 82.3116,-45.0059 L 81.9379,-45.0531 L 81.573,-45.1468 L 81.2227,-45.2855 L 80.8925,-45.467 L 80.5877,-45.6885
 L 80.3131,-45.9464 L 80.073,-46.2366 L 79.8711,-46.5547 L 79.7107,-46.8956 L 79.5943,-47.2539 L 79.5237,-47.624
 L 79.5,-48 L 79.5237,-48.376 L 79.5943,-48.7461 L 79.7107,-49.1044 L 79.8711,-49.4453 L 80.073,-49.7634
 L 80.3131,-50.0536 L 80.5877,-50.3115 L 80.8925,-50.533 L 81.2227,-50.7145 L 81.573,-50.8532 L 81.9379,-50.9469
 L 82.3116,-50.9941 L 82.6884,-50.9941 L 83.0621,-50.9469 L 83.427,-50.8532 L 83.7773,-50.7145 L 84.1075,-50.533
 L 84.4123,-50.3115 L 84.6869,-50.0536 L 84.927,-49.7634 L 85.1289,-49.4453 L 85.2893,-49.1044 L 85.4057,-48.7461
 L 85.4763,-48.376 L 85.5,-48 L 85.4763,-47.624 L 85.4057,-47.2539 L 85.2893,-46.8956 L 85.1289,-46.5547
 L 84.927,-46.2366 L 84.6869,-45.9464 L 84.4123,-45.6885 L 84.1075,-45.467 L 83.7773,-45.2855 L 83.427,-45.1468
 L 83.0621,-45.0531 L 82.6884,-45.0059 z
M -82.6884,-45.0059 L -83.0621,-45.0531 L -83.427,-45.1468 L -83.7773,-45.2855 L -84.1075,-45.467 L -84.4123,-45.6885
 L -84.6869,-45.9464 L -84.927,-46.2366 L -85.1289,-46.5547 L -85.2893,-46.8956 L -85.4057,-47.2539 L -85.4763,-47.624
 L -85.5,-48 L -85.4763,-48.376 L -85.4057,-48.7461 L -85.2893,-49.1044 L -85.1289,-49.4453 L -84.927,-49.7634
 L -84.6869,-50.0536 L -84.4123,-50.3115 L -84.1075,-50.533 L -83.7773,-50.7145 L -83.427,-50.8532 L -83.0621,-50.9469
 L -82.6884,-50.9941 L -82.3116,-50.9941 L -81.9379,-50.9469 L -81.573,-50.8532 L -81.2227,-50.7145 L -80.8925,-50.533
 L -80.5877,-50.3115 L -80.3131,-50.0536 L -80.073,-49.7634 L -79.8711,-49.4453 L -79.7107,-49.1044 L -79.5943,-48.7461
 L -79.5237,-48.376 L -79.5,-48 L -79.5237,-47.624 L -79.5943,-47.2539 L -79.7107,-46.8956 L -79.8711,-46.5547
 L -80.073,-46.2366 L -80.3131,-45.9464 L -80.5877,-45.6885 L -80.8925,-45.467 L -81.2227,-45.2855 L -81.573,-45.1468
 L -81.9379,-45.0531 L -82.3116,-45.0059 z
M -67.6884,-45.0059 L -68.0621,-45.0531 L -68.427,-45.1468 L -68.7773,-45.2855 L -69.1075,-45.467 L -69.4123,-45.6885
 L -69.6869,-45.9464 L -69.927,-46.2366 L -70.1289,-46.5547 L -70.2893,-46.8956 L -70.4057,-47.2539 L -70.4763,-47.624
 L -70.5,-48 L -70.4763,-48.376 L -70.4057,-48.7461 L -70.2893,-49.1044 L -70.1289,-49.4453 L -69.927,-49.7634
 L -69.6869,-50.0536 L -69.4123,-50.3115 L -69.1075,-50.533 L -68.7773,-50.7145 L -68.427,-50.8532 L -68.0621,-50.9469
 L -67.6884,-50.9941 L -67.3116,-50.9941 L -66.9379,-50.9469 L -66.573,-50.8532 L -66.2227,-50.7145 L -65.8925,-50.533
 L -65.5877,-50.3115 L -65.3131,-50.0536 L -65.073,-49.7634 L -64.8711,-49.4453 L -64.7107,-49.1044 L -64.5943,-48.7461
 L -64.5237,-48.376 L -64.5,-48 L -64.5237,-47.624 L -64.5943,-47.2539 L -64.7107,-46.8956 L -64.8711,-46.5547
 L -65.073,-46.2366 L -65.3131,-45.9464 L -65.5877,-45.6885 L -65.8925,-45.467 L -66.2227,-45.2855 L -66.573,-45.1468
 L -66.9379,-45.0531 L -67.3116,-45.0059 z
M 37.3116,-45.0059 L 36.9379,-45.0531 L 36.5729,-45.1468 L 36.2227,-45.2855 L 35.8925,-45.467 L 35.5877,-45.6885
 L 35.3131,-45.9464 L 35.0729,-46.2366 L 34.8711,-46.5547 L 34.7107,-46.8956 L 34.5942,-47.2539 L 34.5237,-47.624
 L 34.5,-48 L 34.5237,-48.376 L 34.5942,-48.7461 L 34.7107,-49.1044 L 34.8711,-49.4453 L 35.0729,-49.7634
 L 35.3131,-50.0536 L 35.5877,-50.3115 L 35.8925,-50.533 L 36.2227,-50.7145 L 36.5729,-50.8532 L 36.9379,-50.9469
 L 37.3116,-50.9941 L 37.6884,-50.9941 L 38.0621,-50.9469 L 38.427,-50.8532 L 38.7773,-50.7145 L 39.1075,-50.533
 L 39.4123,-50.3115 L 39.6869,-50.0536 L 39.927,-49.7634 L 40.1289,-49.4453 L 40.2893,-49.1044 L 40.4057,-48.7461
 L 40.4763,-48.376 L 40.5,-48 L 40.4763,-47.624 L 40.4057,-47.2539 L 40.2893,-46.8956 L 40.1289,-46.5547
 L 39.927,-46.2366 L 39.6869,-45.9464 L 39.4123,-45.6885 L 39.1075,-45.467 L 38.7773,-45.2855 L 38.427,-45.1468
 L 38.0621,-45.0531 L 37.6884,-45.0059 z
M 115.437,-17.0886 L 116.045,-17.2447 L 116.629,-17.4759 L 117.179,-17.7784 L 117.687,-18.1474 L 118.145,-18.5773
 L 118.545,-19.0611 L 118.882,-19.5912 L 119.149,-20.1594 L 119.343,-20.7566 L 119.461,-21.3733 L 119.5,-22
 L 119.5,-26 L 119.461,-26.6267 L 119.343,-27.2434 L 119.149,-27.8406 L 118.882,-28.4088 L 118.545,-28.9389
 L 118.145,-29.4227 L 117.687,-29.8526 L 117.179,-30.2216 L 116.629,-30.5241 L 116.045,-30.7553 L 115.437,-30.9114
 L 114.814,-30.9901 L -114.814,-30.9901 L -115.437,-30.9114 L -116.045,-30.7553 L -116.629,-30.5241 L -117.179,-30.2216
 L -117.687,-29.8526 L -118.145,-29.4227 L -118.545,-28.9389 L -118.882,-28.4088 L -119.149,-27.8406 L -119.343,-27.2434
 L -119.461,-26.6267 L -119.5,-26 L -119.5,-22 L -119.461,-21.3733 L -119.343,-20.7566 L -119.149,-20.1594
 L -118.882,-19.5912 L -118.545,-19.0611 L -118.145,-18.5773 L -117.687,-18.1474 L -117.179,-17.7784 L -116.629,-17.4759
 L -116.045,-17.2447 L -115.437,-17.0886 L -114.814,-17.0099 L 114.814,-17.0099 z
M -37.6884,-21.0059 L -38.0621,-21.0531 L -38.427,-21.1468 L -38.7773,-21.2855 L -39.1075,-21.467 L -39.4123,-21.6885
 L -39.6869,-21.9464 L -39.927,-22.2366 L -40.1289,-22.5547 L -40.2893,-22.8956 L -40.4057,-23.2539 L -40.4763,-23.624
 L -40.5,-24 L -40.4763,-24.376 L -40.4057,-24.7461 L -40.2893,-25.1044 L -40.1289,-25.4453 L -39.927,-25.7634
 L -39.6869,-26.0536 L -39.4123,-26.3115 L -39.1075,-26.533 L -38.7773,-26.7145 L -38.427,-26.8532 L -38.0621,-26.9469
 L -37.6884,-26.9941 L -37.3116,-26.9941 L -36.9379,-26.9469 L -36.5729,-26.8532 L -36.2227,-26.7145 L -35.8925,-26.533
 L -35.5877,-26.3115 L -35.3131,-26.0536 L -35.0729,-25.7634 L -34.8711,-25.4453 L -34.7107,-25.1044 L -34.5942,-24.7461
 L -34.5237,-24.376 L -34.5,-24 L -34.5237,-23.624 L -34.5942,-23.2539 L -34.7107,-22.8956 L -34.8711,-22.5547
 L -35.0729,-22.2366 L -35.3131,-21.9464 L -35.5877,-21.6885 L -35.8925,-21.467 L -36.2227,-21.2855 L -36.5729,-21.1468
 L -36.9379,-21.0531 L -37.3116,-21.0059 z
M 67.3116,-21.0059 L 66.9379,-21.0531 L 66.573,-21.1468 L 66.2227,-21.2855 L 65.8925,-21.467 L 65.5877,-21.6885
 L 65.3131,-21.9464 L 65.073,-22.2366 L 64.8711,-22.5547 L 64.7107,-22.8956 L 64.5943,-23.2539 L 64.5237,-23.624
 L 64.5,-24 L 64.5237,-24.376 L 64.5943,-24.7461 L 64.7107,-25.1044 L 64.8711,-25.4453 L 65.073,-25.7634
 L 65.3131,-26.0536 L 65.5877,-26.3115 L 65.8925,-26.533 L 66.2227,-26.7145 L 66.573,-26.8532 L 66.9379,-26.9469
 L 67.3116,-26.9941 L 67.6884,-26.9941 L 68.0621,-26.9469 L 68.427,-26.8532 L 68.7773,-26.7145 L 69.1075,-26.533
 L 69.4123,-26.3115 L 69.6869,-26.0536 L 69.927,-25.7634 L 70.1289,-25.4453 L 70.2893,-25.1044 L 70.4057,-24.7461
 L 70.4763,-24.376 L 70.5,-24 L 70.4763,-23.624 L 70.4057,-23.2539 L 70.2893,-22.8956 L 70.1289,-22.5547
 L 69.927,-22.2366 L 69.6869,-21.9464 L 69.4123,-21.6885 L 69.1075,-21.467 L 68.7773,-21.2855 L 68.427,-21.1468
 L 68.0621,-21.0531 L 67.6884,-21.0059 z
M -112.688,-21.0059 L -113.062,-21.0531 L -113.427,-21.1468 L -113.777,-21.2855 L -114.107,-21.467 L -114.412,-21.6885
 L -114.687,-21.9464 L -114.927,-22.2366 L -115.129,-22.5547 L -115.289,-22.8956 L -115.406,-23.2539 L -115.476,-23.624
 L -115.5,-24 L -115.476,-24.376 L -115.406,-24.7461 L -115.289,-25.1044 L -115.129,-25.4453 L -114.927,-25.7634
 L -114.687,-26.0536 L -114.412,-26.3115 L -114.107,-26.533 L -113.777,-26.7145 L -113.427,-26.8532 L -113.062,-26.9469
 L -112.688,-26.9941 L -112.312,-26.9941 L -111.938,-26.9469 L -111.573,-26.8532 L -111.223,-26.7145 L -110.893,-26.533
 L -110.588,-26.3115 L -110.313,-26.0536 L -110.073,-25.7634 L -109.871,-25.4453 L -109.711,-25.1044 L -109.594,-24.7461
 L -109.524,-24.376 L -109.5,-24 L -109.524,-23.624 L -109.594,-23.2539 L -109.711,-22.8956 L -109.871,-22.5547
 L -110.073,-22.2366 L -110.313,-21.9464 L -110.588,-21.6885 L -110.893,-21.467 L -111.223,-21.2855 L -111.573,-21.1468
 L -111.938,-21.0531 L -112.312,-21.0059 z
M 37.3116,-21.0059 L 36.9379,-21.0531 L 36.5729,-21.1468 L 36.2227,-21.2855 L 35.8925,-21.467 L 35.5877,-21.6885
 L 35.3131,-21.9464 L 35.0729,-22.2366 L 34.8711,-22.5547 L 34.7107,-22.8956 L 34.5942,-23.2539 L 34.5237,-23.624
 L 34.5,-24 L 34.5237,-24.376 L 34.5942,-24.7461 L 34.7107,-25.1044 L 34.8711,-25.4453 L 35.0729,-25.7634
 L 35.3131,-26.0536 L 35.5877,-26.3115 L 35.8925,-26.533 L 36.2227,-26.7145 L 36.5729,-26.8532 L 36.9379,-26.9469
 L 37.3116,-26.9941 L 37.6884,-26.9941 L 38.0621,-26.9469 L 38.427,-26.8532 L 38.7773,-26.7145 L 39.1075,-26.533
 L 39.4123,-26.3115 L 39.6869,-26.0536 L 39.927,-25.7634 L 40.1289,-25.4453 L 40.2893,-25.1044 L 40.4057,-24.7461
 L 40.4763,-24.376 L 40.5,-24 L 40.4763,-23.624 L 40.4057,-23.2539 L 40.2893,-22.8956 L 40.1289,-22.5547
 L 39.927,-22.2366 L 39.6869,-21.9464 L 39.4123,-21.6885 L 39.1075,-21.467 L 38.7773,-21.2855 L 38.427,-21.1468
 L 38.0621,-21.0531 L 37.6884,-21.0059 z
M 22.3116,-21.0059 L 21.9379,-21.0531 L 21.5729,-21.1468 L 21.2227,-21.2855 L 20.8925,-21.467 L 20.5877,-21.6885
 L 20.3131,-21.9464 L 20.0729,-22.2366 L 19.8711,-22.5547 L 19.7107,-22.8956 L 19.5942,-23.2539 L 19.5237,-23.624
 L 19.5,-24 L 19.5237,-24.376 L 19.5942,-24.7461 L 19.7107,-25.1044 L 19.8711,-25.4453 L 20.0729,-25.7634
 L 20.3131,-26.0536 L 20.5877,-26.3115 L 20.8925,-26.533 L 21.2227,-26.7145 L 21.5729,-26.8532 L 21.9379,-26.9469
 L 22.3116,-26.9941 L 22.6884,-26.9941 L 23.0621,-26.9469 L 23.427,-26.8532 L 23.7773,-26.7145 L 24.1075,-26.533
 L 24.4123,-26.3115 L 24.6869,-26.0536 L 24.927,-25.7634 L 25.1289,-25.4453 L 25.2893,-25.1044 L 25.4057,-24.7461
 L 25.4763,-24.376 L 25.5,-24 L 25.4763,-23.624 L 25.4057,-23.2539 L 25.2893,-22.8956 L 25.1289,-22.5547
 L 24.927,-22.2366 L 24.6869,-21.9464 L 24.4123,-21.6885 L 24.1075,-21.467 L 23.7773,-21.2855 L 23.427,-21.1468
 L 23.0621,-21.0531 L 22.6884,-21.0059 z
M -97.6884,-21.0059 L -98.0621,-21.0531 L -98.427,-21.1468 L -98.7773,-21.2855 L -99.1075,-21.467 L -99.4123,-21.6885
 L -99.6869,-21.9464 L -99.927,-22.2366 L -100.129,-22.5547 L -100.289,-22.8956 L -100.406,-23.2539 L -100.476,-23.624
 L -100.5,-24 L -100.476,-24.376 L -100.406,-24.7461 L -100.289,-25.1044 L -100.129,-25.4453 L -99.927,-25.7634
 L -99.6869,-26.0536 L -99.4123,-26.3115 L -99.1075,-26.533 L -98.7773,-26.7145 L -98.427,-26.8532 L -98.0621,-26.9469
 L -97.6884,-26.9941 L -97.3116,-26.9941 L -96.9379,-26.9469 L -96.573,-26.8532 L -96.2227,-26.7145 L -95.8925,-26.533
 L -95.5877,-26.3115 L -95.3131,-26.0536 L -95.073,-25.7634 L -94.8711,-25.4453 L -94.7107,-25.1044 L -94.5943,-24.7461
 L -94.5237,-24.376 L -94.5,-24 L -94.5237,-23.624 L -94.5943,-23.2539 L -94.7107,-22.8956 L -94.8711,-22.5547
 L -95.073,-22.2366 L -95.3131,-21.9464 L -95.5877,-21.6885 L -95.8925,-21.467 L -96.2227,-21.2855 L -96.573,-21.1468
 L -96.9379,-21.0531 L -97.3116,-21.0059 z
M 112.312,-21.0059 L 111.938,-21.0531 L 111.573,-21.1468 L 111.223,-21.2855 L 110.893,-21.467 L 110.588,-21.6885
 L 110.313,-21.9464 L 110.073,-22.2366 L 109.871,-22.5547 L 109.711,-22.8956 L 109.594,-23.2539 L 109.524,-23.624
 L 109.5,-24 L 109.524,-24.376 L 109.594,-24.7461 L 109.711,-25.1044 L 109.871,-25.4453 L 110.073,-25.7634
 L 110.313,-26.0536 L 110.588,-26.3115 L 110.893,-26.533 L 111.223,-26.7145 L 111.573,-26.8532 L 111.938,-26.9469
 L 112.312,-26.9941 L 112.688,-26.9941 L 113.062,-26.9469 L 113.427,-26.8532 L 113.777,-26.7145 L 114.107,-26.533
 L 114.412,-26.3115 L 114.687,-26.0536 L 114.927,-25.7634 L 115.129,-25.4453 L 115.289,-25.1044 L 115.406,-24.7461
 L 115.476,-24.376 L 115.5,-24 L 115.476,-23.624 L 115.406,-23.2539 L 115.289,-22.8956 L 115.129,-22.5547
 L 114.927,-22.2366 L 114.687,-21.9464 L 114.412,-21.6885 L 114.107,-21.467 L 113.777,-21.2855 L 113.427,-21.1468
 L 113.062,-21.0531 L 112.688,-21.0059 z
M -7.68837,-21.0059 L -8.06213,-21.0531 L -8.42705,-21.1468 L -8.77733,-21.2855 L -9.10747,-21.467 L -9.41226,-21.6885
 L -9.6869,-21.9464 L -9.92705,-22.2366 L -10.1289,-22.5547 L -10.2893,-22.8956 L -10.4057,-23.2539 L -10.4763,-23.624
 L -10.5,-24 L -10.4763,-24.376 L -10.4057,-24.7461 L -10.2893,-25.1044 L -10.1289,-25.4453 L -9.92705,-25.7634
 L -9.6869,-26.0536 L -9.41226,-26.3115 L -9.10747,-26.533 L -8.77733,-26.7145 L -8.42705,-26.8532 L -8.06213,-26.9469
 L -7.68837,-26.9941 L -7.31161,-26.9941 L -6.93785,-26.9469 L -6.57294,-26.8532 L -6.22266,-26.7145 L -5.89252,-26.533
 L -5.58772,-26.3115 L -5.31308,-26.0536 L -5.07294,-25.7634 L -4.87108,-25.4453 L -4.71066,-25.1044 L -4.59424,-24.7461
 L -4.52365,-24.376 L -4.5,-24 L -4.52365,-23.624 L -4.59424,-23.2539 L -4.71066,-22.8956 L -4.87108,-22.5547
 L -5.07294,-22.2366 L -5.31308,-21.9464 L -5.58772,-21.6885 L -5.89252,-21.467 L -6.22266,-21.2855 L -6.57294,-21.1468
 L -6.93785,-21.0531 L -7.31161,-21.0059 z
M 82.3116,-21.0059 L 81.9379,-21.0531 L 81.573,-21.1468 L 81.2227,-21.2855 L 80.8925,-21.467 L 80.5877,-21.6885
 L 80.3131,-21.9464 L 80.073,-22.2366 L 79.8711,-22.5547 L 79.7107,-22.8956 L 79.5943,-23.2539 L 79.5237,-23.624
 L 79.5,-24 L 79.5237,-24.376 L 79.5943,-24.7461 L 79.7107,-25.1044 L 79.8711,-25.4453 L 80.073,-25.7634
 L 80.3131,-26.0536 L 80.5877,-26.3115 L 80.8925,-26.533 L 81.2227,-26.7145 L 81.573,-26.8532 L 81.9379,-26.9469
 L 82.3116,-26.9941 L 82.6884,-26.9941 L 83.0621,-26.9469 L 83.427,-26.8532 L 83.7773,-26.7145 L 84.1075,-26.533
 L 84.4123,-26.3115 L 84.6869,-26.0536 L 84.927,-25.7634 L 85.1289,-25.4453 L 85.2893,-25.1044 L 85.4057,-24.7461
 L 85.4763,-24.376 L 85.5,-24 L 85.4763,-23.624 L 85.4057,-23.2539 L 85.2893,-22.8956 L 85.1289,-22.5547
 L 84.927,-22.2366 L 84.6869,-21.9464 L 84.4123,-21.6885 L 84.1075,-21.467 L 83.7773,-21.2855 L 83.427,-21.1468
 L 83.0621,-21.0531 L 82.6884,-21.0059 z
M 97.3116,-21.0059 L 96.9379,-21.0531 L 96.573,-21.1468 L 96.2227,-21.2855 L 95.8925,-21.467 L 95.5877,-21.6885
 L 95.3131,-21.9464 L 95.073,-22.2366 L 94.8711,-22.5547 L 94.7107,-22.8956 L 94.5943,-23.2539 L 94.5237,-23.624
 L 94.5,-24 L 94.5237,-24.376 L 94.5943,-24.7461 L 94.7107,-25.1044 L 94.8711,-25.4453 L 95.073,-25.7634
 L 95.3131,-26.0536 L 95.5877,-26.3115 L 95.8925,-26.533 L 96.2227,-26.7145 L 96.573,-26.8532 L 96.9379,-26.9469
 L 97.3116,-26.9941 L 97.6884,-26.9941 L 98.0621,-26.9469 L 98.427,-26.8532 L 98.7773,-26.7145 L 99.1075,-26.533
 L 99.4123,-26.3115 L 99.6869,-26.0536 L 99.927,-25.7634 L 100.129,-25.4453 L 100.289,-25.1044 L 100.406,-24.7461
 L 100.476,-24.376 L 100.5,-24 L 100.476,-23.624 L 100.406,-23.2539 L 100.289,-22.8956 L 100.129,-22.5547
 L 99.927,-22.2366 L 99.6869,-21.9464 L 99.4123,-21.6885 L 99.1075,-21.467 L 98.7773,-21.2855 L 98.427,-21.1468
 L 98.0621,-21.0531 L 97.6884,-21.0059 z
M -22.6884,-21.0059 L -23.0621,-21.0531 L -23.427,-21.1468 L -23.7773,-21.2855 L -24.1075,-21.467 L -24.4123,-21.6885
 L -24.6869,-21.9464 L -24.927,-22.2366 L -25.1289,-22.5547 L -25.2893,-22.8956 L -25.4057,-23.2539 L -25.4763,-23.624
 L -25.5,-24 L -25.4763,-24.376 L -25.4057,-24.7461 L -25.2893,-25.1044 L -25.1289,-25.4453 L -24.927,-25.7634
 L -24.6869,-26.0536 L -24.4123,-26.3115 L -24.1075,-26.533 L -23.7773,-26.7145 L -23.427,-26.8532 L -23.0621,-26.9469
 L -22.6884,-26.9941 L -22.3116,-26.9941 L -21.9379,-26.9469 L -21.5729,-26.8532 L -21.2227,-26.7145 L -20.8925,-26.533
 L -20.5877,-26.3115 L -20.3131,-26.0536 L -20.0729,-25.7634 L -19.8711,-25.4453 L -19.7107,-25.1044 L -19.5942,-24.7461
 L -19.5237,-24.376 L -19.5,-24 L -19.5237,-23.624 L -19.5942,-23.2539 L -19.7107,-22.8956 L -19.8711,-22.5547
 L -20.0729,-22.2366 L -20.3131,-21.9464 L -20.5877,-21.6885 L -20.8925,-21.467 L -21.2227,-21.2855 L -21.5729,-21.1468
 L -21.9379,-21.0531 L -22.3116,-21.0059 z
M 7.31161,-21.0059 L 6.93785,-21.0531 L 6.57294,-21.1468 L 6.22266,-21.2855 L 5.89252,-21.467 L 5.58772,-21.6885
 L 5.31308,-21.9464 L 5.07294,-22.2366 L 4.87108,-22.5547 L 4.71066,-22.8956 L 4.59424,-23.2539 L 4.52365,-23.624
 L 4.5,-24 L 4.52365,-24.376 L 4.59424,-24.7461 L 4.71066,-25.1044 L 4.87108,-25.4453 L 5.07294,-25.7634
 L 5.31308,-26.0536 L 5.58772,-26.3115 L 5.89252,-26.533 L 6.22266,-26.7145 L 6.57294,-26.8532 L 6.93785,-26.9469
 L 7.31161,-26.9941 L 7.68837,-26.9941 L 8.06213,-26.9469 L 8.42705,-26.8532 L 8.77733,-26.7145 L 9.10747,-26.533
 L 9.41226,-26.3115 L 9.6869,-26.0536 L 9.92705,-25.7634 L 10.1289,-25.4453 L 10.2893,-25.1044 L 10.4057,-24.7461
 L 10.4763,-24.376 L 10.5,-24 L 10.4763,-23.624 L 10.4057,-23.2539 L 10.2893,-22.8956 L 10.1289,-22.5547
 L 9.92705,-22.2366 L 9.6869,-21.9464 L 9.41226,-21.6885 L 9.10747,-21.467 L 8.77733,-21.2855 L 8.42705,-21.1468
 L 8.06213,-21.0531 L 7.68837,-21.0059 z
M -52.6884,-21.0059 L -53.0621,-21.0531 L -53.427,-21.1468 L -53.7773,-21.2855 L -54.1075,-21.467 L -54.4123,-21.6885
 L -54.6869,-21.9464 L -54.927,-22.2366 L -55.1289,-22.5547 L -55.2893,-22.8956 L -55.4057,-23.2539 L -55.4763,-23.624
 L -55.5,-24 L -55.4763,-24.376 L -55.4057,-24.7461 L -55.2893,-25.1044 L -55.1289,-25.4453 L -54.927,-25.7634
 L -54.6869,-26.0536 L -54.4123,-26.3115 L -54.1075,-26.533 L -53.7773,-26.7145 L -53.427,-26.8532 L -53.0621,-26.9469
 L -52.6884,-26.9941 L -52.3116,-26.9941 L -51.9379,-26.9469 L -51.5729,-26.8532 L -51.2227,-26.7145 L -50.8925,-26.533
 L -50.5877,-26.3115 L -50.3131,-26.0536 L -50.0729,-25.7634 L -49.8711,-25.4453 L -49.7107,-25.1044 L -49.5942,-24.7461
 L -49.5237,-24.376 L -49.5,-24 L -49.5237,-23.624 L -49.5942,-23.2539 L -49.7107,-22.8956 L -49.8711,-22.5547
 L -50.0729,-22.2366 L -50.3131,-21.9464 L -50.5877,-21.6885 L -50.8925,-21.467 L -51.2227,-21.2855 L -51.5729,-21.1468
 L -51.9379,-21.0531 L -52.3116,-21.0059 z
M 52.3116,-21.0059 L 51.9379,-21.0531 L 51.5729,-21.1468 L 51.2227,-21.2855 L 50.8925,-21.467 L 50.5877,-21.6885
 L 50.3131,-21.9464 L 50.0729,-22.2366 L 49.8711,-22.5547 L 49.7107,-22.8956 L 49.5942,-23.2539 L 49.5237,-23.624
 L 49.5,-24 L 49.5237,-24.376 L 49.5942,-24.7461 L 49.7107,-25.1044 L 49.8711,-25.4453 L 50.0729,-25.7634
 L 50.3131,-26.0536 L 50.5877,-26.3115 L 50.8925,-26.533 L 51.2227,-26.7145 L 51.5729,-26.8532 L 51.9379,-26.9469
 L 52.3116,-26.9941 L 52.6884,-26.9941 L 53.0621,-26.9469 L 53.427,-26.8532 L 53.7773,-26.7145 L 54.1075,-26.533
 L 54.4123,-26.3115 L 54.6869,-26.0536 L 54.927,-25.7634 L 55.1289,-25.4453 L 55.2893,-25.1044 L 55.4057,-24.7461
 L 55.4763,-24.376 L 55.5,-24 L 55.4763,-23.624 L 55.4057,-23.2539 L 55.2893,-22.8956 L 55.1289,-22.5547
 L 54.927,-22.2366 L 54.6869,-21.9464 L 54.4123,-21.6885 L 54.1075,-21.467 L 53.7773,-21.2855 L 53.427,-21.1468
 L 53.0621,-21.0531 L 52.6884,-21.0059 z
M -67.6884,-21.0059 L -68.0621,-21.0531 L -68.427,-21.1468 L -68.7773,-21.2855 L -69.1075,-21.467 L -69.4123,-21.6885
 L -69.6869,-21.9464 L -69.927,-22.2366 L -70.1289,-22.5547 L -70.2893,-22.8956 L -70.4057,-23.2539 L -70.4763,-23.624
 L -70.5,-24 L -70.4763,-24.376 L -70.4057,-24.7461 L -70.2893,-25.1044 L -70.1289,-25.4453 L -69.927,-25.7634
 L -69.6869,-26.0536 L -69.4123,-26.3115 L -69.1075,-26.533 L -68.7773,-26.7145 L -68.427,-26.8532 L -68.0621,-26.9469
 L -67.6884,-26.9941 L -67.3116,-26.9941 L -66.9379,-26.9469 L -66.573,-26.8532 L -66.2227,-26.7145 L -65.8925,-26.533
 L -65.5877,-26.3115 L -65.3131,-26.0536 L -65.073,-25.7634 L -64.8711,-25.4453 L -64.7107,-25.1044 L -64.5943,-24.7461
 L -64.5237,-24.376 L -64.5,-24 L -64.5237,-23.624 L -64.5943,-23.2539 L -64.7107,-22.8956 L -64.8711,-22.5547
 L -65.073,-22.2366 L -65.3131,-21.9464 L -65.5877,-21.6885 L -65.8925,-21.467 L -66.2227,-21.2855 L -66.573,-21.1468
 L -66.9379,-21.0531 L -67.3116,-21.0059 z
M -82.6884,-21.0059 L -83.0621,-21.0531 L -83.427,-21.1468 L -83.7773,-21.2855 L -84.1075,-21.467 L -84.4123,-21.6885
 L -84.6869,-21.9464 L -84.927,-22.2366 L -85.1289,-22.5547 L -85.2893,-22.8956 L -85.4057,-23.2539 L -85.4763,-23.624
 L -85.5,-24 L -85.4763,-24.376 L -85.4057,-24.7461 L -85.2893,-25.1044 L -85.1289,-25.4453 L -84.927,-25.7634
 L -84.6869,-26.0536 L -84.4123,-26.3115 L -84.1075,-26.533 L -83.7773,-26.7145 L -83.427,-26.8532 L -83.0621,-26.9469
 L -82.6884,-26.9941 L -82.3116,-26.9941 L -81.9379,-26.9469 L -81.573,-26.8532 L -81.2227,-26.7145 L -80.8925,-26.533
 L -80.5877,-26.3115 L -80.3131,-26.0536 L -80.073,-25.7634 L -79.8711,-25.4453 L -79.7107,-25.1044 L -79.5943,-24.7461
 L -79.5237,-24.376 L -79.5,-24 L -79.5237,-23.624 L -79.5943,-23.2539 L -79.7107,-22.8956 L -79.8711,-22.5547
 L -80.073,-22.2366 L -80.3131,-21.9464 L -80.5877,-21.6885 L -80.8925,-21.467 L -81.2227,-21.2855 L -81.573,-21.1468
 L -81.9379,-21.0531 L -82.3116,-21.0059 z
" stroke="black" fill="lightgray" stroke-width="0.5"/>
</svg>
