  0
SECTION
  2
BLOCKS
  0
ENDSEC
  0
SECTION
  2
ENTITIES
  0
LINE
  8
0
 10
175.437
 20
17.0886
 11
176.045
 21
17.2447
  0
LINE
  8
0
 10
176.045
 20
17.2447
 11
176.629
 21
17.4759
  0
LINE
  8
0
 10
176.629
 20
17.4759
 11
177.179
 21
17.7784
  0
LINE
  8
0
 10
177.179
 20
17.7784
 11
177.687
 21
18.1474
  0
LINE
  8
0
 10
177.687
 20
18.1474
 11
178.145
 21
18.5773
  0
LINE
  8
0
 10
178.145
 20
18.5773
 11
178.545
 21
19.0611
  0
LINE
  8
0
 10
178.545
 20
19.0611
 11
178.882
 21
19.5912
  0
LINE
  8
0
 10
178.882
 20
19.5912
 11
179.149
 21
20.1594
  0
LINE
  8
0
 10
179.149
 20
20.1594
 11
179.343
 21
20.7566
  0
LINE
  8
0
 10
179.343
 20
20.7566
 11
179.461
 21
21.3733
  0
LINE
  8
0
 10
179.461
 20
21.3733
 11
179.5
 21
22
  0
LINE
  8
0
 10
179.5
 20
22
 11
179.5
 21
26
  0
LINE
  8
0
 10
179.5
 20
26
 11
179.461
 21
26.6267
  0
LINE
  8
0
 10
179.461
 20
26.6267
 11
179.343
 21
27.2434
  0
LINE
  8
0
 10
179.343
 20
27.2434
 11
179.149
 21
27.8406
  0
LINE
  8
0
 10
179.149
 20
27.8406
 11
178.882
 21
28.4088
  0
LINE
  8
0
 10
178.882
 20
28.4088
 11
178.545
 21
28.9389
  0
LINE
  8
0
 10
178.545
 20
28.9389
 11
178.145
 21
29.4227
  0
LINE
  8
0
 10
178.145
 20
29.4227
 11
177.687
 21
29.8526
  0
LINE
  8
0
 10
177.687
 20
29.8526
 11
177.179
 21
30.2216
  0
LINE
  8
0
 10
177.179
 20
30.2216
 11
176.629
 21
30.5241
  0
LINE
  8
0
 10
176.629
 20
30.5241
 11
176.045
 21
30.7553
  0
LINE
  8
0
 10
176.045
 20
30.7553
 11
175.437
 21
30.9114
  0
LINE
  8
0
 10
175.437
 20
30.9114
 11
174.814
 21
30.9901
  0
LINE
  8
0
 10
174.814
 20
30.9901
 11
-174.814
 21
30.9901
  0
LINE
  8
0
 10
-174.814
 20
30.9901
 11
-175.437
 21
30.9114
  0
LINE
  8
0
 10
-175.437
 20
30.9114
 11
-176.045
 21
30.7553
  0
LINE
  8
0
 10
-176.045
 20
30.7553
 11
-176.629
 21
30.5241
  0
LINE
  8
0
 10
-176.629
 20
30.5241
 11
-177.179
 21
30.2216
  0
LINE
  8
0
 10
-177.179
 20
30.2216
 11
-177.687
 21
29.8526
  0
LINE
  8
0
 10
-177.687
 20
29.8526
 11
-178.145
 21
29.4227
  0
LINE
  8
0
 10
-178.145
 20
29.4227
 11
-178.545
 21
28.9389
  0
LINE
  8
0
 10
-178.545
 20
28.9389
 11
-178.882
 21
28.4088
  0
LINE
  8
0
 10
-178.882
 20
28.4088
 11
-179.149
 21
27.8406
  0
LINE
  8
0
 10
-179.149
 20
27.8406
 11
-179.343
 21
27.2434
  0
LINE
  8
0
 10
-179.343
 20
27.2434
 11
-179.461
 21
26.6267
  0
LINE
  8
0
 10
-179.461
 20
26.6267
 11
-179.5
 21
26
  0
LINE
  8
0
 10
-179.5
 20
26
 11
-179.5
 21
22
  0
LINE
  8
0
 10
-179.5
 20
22
 11
-179.461
 21
21.3733
  0
LINE
  8
0
 10
-179.461
 20
21.3733
 11
-179.343
 21
20.7566
  0
LINE
  8
0
 10
-179.343
 20
20.7566
 11
-179.149
 21
20.1594
  0
LINE
  8
0
 10
-179.149
 20
20.1594
 11
-178.882
 21
19.5912
  0
LINE
  8
0
 10
-178.882
 20
19.5912
 11
-178.545
 21
19.0611
  0
LINE
  8
0
 10
-178.545
 20
19.0611
 11
-178.145
 21
18.5773
  0
LINE
  8
0
 10
-178.145
 20
18.5773
 11
-177.687
 21
18.1474
  0
LINE
  8
0
 10
-177.687
 20
18.1474
 11
-177.179
 21
17.7784
  0
LINE
  8
0
 10
-177.179
 20
17.7784
 11
-176.629
 21
17.4759
  0
LINE
  8
0
 10
-176.629
 20
17.4759
 11
-176.045
 21
17.2447
  0
LINE
  8
0
 10
-176.045
 20
17.2447
 11
-175.437
 21
17.0886
  0
LINE
  8
0
 10
-175.437
 20
17.0886
 11
-174.814
 21
17.0099
  0
LINE
  8
0
 10
-174.814
 20
17.0099
 11
174.814
 21
17.0099
  0
LINE
  8
0
 10
174.814
 20
17.0099
 11
175.437
 21
17.0886
  0
LINE
  8
0
 10
-172.688
 20
21.0059
 11
-173.062
 21
21.0531
  0
LINE
  8
0
 10
-173.062
 20
21.0531
 11
-173.427
 21
21.1468
  0
LINE
  8
0
 10
-173.427
 20
21.1468
 11
-173.777
 21
21.2855
  0
LINE
  8
0
 10
-173.777
 20
21.2855
 11
-174.107
 21
21.467
  0
LINE
  8
0
 10
-174.107
 20
21.467
 11
-174.412
 21
21.6885
  0
LINE
  8
0
 10
-174.412
 20
21.6885
 11
-174.687
 21
21.9464
  0
LINE
  8
0
 10
-174.687
 20
21.9464
 11
-174.927
 21
22.2366
  0
LINE
  8
0
 10
-174.927
 20
22.2366
 11
-175.129
 21
22.5547
  0
LINE
  8
0
 10
-175.129
 20
22.5547
 11
-175.289
 21
22.8956
  0
LINE
  8
0
 10
-175.289
 20
22.8956
 11
-175.406
 21
23.2539
  0
LINE
  8
0
 10
-175.406
 20
23.2539
 11
-175.476
 21
23.624
  0
LINE
  8
0
 10
-175.476
 20
23.624
 11
-175.5
 21
24
  0
LINE
  8
0
 10
-175.5
 20
24
 11
-175.476
 21
24.376
  0
LINE
  8
0
 10
-175.476
 20
24.376
 11
-175.406
 21
24.7461
  0
LINE
  8
0
 10
-175.406
 20
24.7461
 11
-175.289
 21
25.1044
  0
LINE
  8
0
 10
-175.289
 20
25.1044
 11
-175.129
 21
25.4453
  0
LINE
  8
0
 10
-175.129
 20
25.4453
 11
-174.927
 21
25.7634
  0
LINE
  8
0
 10
-174.927
 20
25.7634
 11
-174.687
 21
26.0536
  0
LINE
  8
0
 10
-174.687
 20
26.0536
 11
-174.412
 21
26.3115
  0
LINE
  8
0
 10
-174.412
 20
26.3115
 11
-174.107
 21
26.533
  0
LINE
  8
0
 10
-174.107
 20
26.533
 11
-173.777
 21
26.7145
  0
LINE
  8
0
 10
-173.777
 20
26.7145
 11
-173.427
 21
26.8532
  0
LINE
  8
0
 10
-173.427
 20
26.8532
 11
-173.062
 21
26.9469
  0
LINE
  8
0
 10
-173.062
 20
26.9469
 11
-172.688
 21
26.9941
  0
LINE
  8
0
 10
-172.688
 20
26.9941
 11
-172.312
 21
26.9941
  0
LINE
  8
0
 10
-172.312
 20
26.9941
 11
-171.938
 21
26.9469
  0
LINE
  8
0
 10
-171.938
 20
26.9469
 11
-171.573
 21
26.8532
  0
LINE
  8
0
 10
-171.573
 20
26.8532
 11
-171.223
 21
26.7145
  0
LINE
  8
0
 10
-171.223
 20
26.7145
 11
-170.893
 21
26.533
  0
LINE
  8
0
 10
-170.893
 20
26.533
 11
-170.588
 21
26.3115
  0
LINE
  8
0
 10
-170.588
 20
26.3115
 11
-170.313
 21
26.0536
  0
LINE
  8
0
 10
-170.313
 20
26.0536
 11
-170.073
 21
25.7634
  0
LINE
  8
0
 10
-170.073
 20
25.7634
 11
-169.871
 21
25.4453
  0
LINE
  8
0
 10
-169.871
 20
25.4453
 11
-169.711
 21
25.1044
  0
LINE
  8
0
 10
-169.711
 20
25.1044
 11
-169.594
 21
24.7461
  0
LINE
  8
0
 10
-169.594
 20
24.7461
 11
-169.524
 21
24.376
  0
LINE
  8
0
 10
-169.524
 20
24.376
 11
-169.5
 21
24
  0
LINE
  8
0
 10
-169.5
 20
24
 11
-169.524
 21
23.624
  0
LINE
  8
0
 10
-169.524
 20
23.624
 11
-169.594
 21
23.2539
  0
LINE
  8
0
 10
-169.594
 20
23.2539
 11
-169.711
 21
22.8956
  0
LINE
  8
0
 10
-169.711
 20
22.8956
 11
-169.871
 21
22.5547
  0
LINE
  8
0
 10
-169.871
 20
22.5547
 11
-170.073
 21
22.2366
  0
LINE
  8
0
 10
-170.073
 20
22.2366
 11
-170.313
 21
21.9464
  0
LINE
  8
0
 10
-170.313
 20
21.9464
 11
-170.588
 21
21.6885
  0
LINE
  8
0
 10
-170.588
 20
21.6885
 11
-170.893
 21
21.467
  0
LINE
  8
0
 10
-170.893
 20
21.467
 11
-171.223
 21
21.2855
  0
LINE
  8
0
 10
-171.223
 20
21.2855
 11
-171.573
 21
21.1468
  0
LINE
  8
0
 10
-171.573
 20
21.1468
 11
-171.938
 21
21.0531
  0
LINE
  8
0
 10
-171.938
 20
21.0531
 11
-172.312
 21
21.0059
  0
LINE
  8
0
 10
-172.312
 20
21.0059
 11
-172.688
 21
21.0059
  0
ENDSEC
  0
SECTION
  2
OBJECTS
  0
DICTIONARY
  0
ENDSEC
  0
EOF
