  0
SECTION
  2
BLOCKS
  0
ENDSEC
  0
SECTION
  2
ENTITIES
  0
LINE
  8
0
 10
77.9369
 20
-6.91142
 11
78.5451
 21
-6.75528
  0
LINE
  8
0
 10
78.5451
 20
-6.75528
 11
79.1289
 21
-6.52412
  0
LINE
  8
0
 10
79.1289
 20
-6.52412
 11
79.6791
 21
-6.22163
  0
LINE
  8
0
 10
79.6791
 20
-6.22163
 11
80.1871
 21
-5.85255
  0
LINE
  8
0
 10
80.1871
 20
-5.85255
 11
80.6448
 21
-5.42273
  0
LINE
  8
0
 10
80.6448
 20
-5.42273
 11
81.0451
 21
-4.93892
  0
LINE
  8
0
 10
81.0451
 20
-4.93892
 11
81.3815
 21
-4.40877
  0
LINE
  8
0
 10
81.3815
 20
-4.40877
 11
81.6489
 21
-3.84062
  0
LINE
  8
0
 10
81.6489
 20
-3.84062
 11
81.8429
 21
-3.24344
  0
LINE
  8
0
 10
81.8429
 20
-3.24344
 11
81.9606
 21
-2.62666
  0
LINE
  8
0
 10
81.9606
 20
-2.62666
 11
82
 21
-2
  0
LINE
  8
0
 10
82
 20
-2
 11
82
 21
2
  0
LINE
  8
0
 10
82
 20
2
 11
81.9606
 21
2.62666
  0
LINE
  8
0
 10
81.9606
 20
2.62666
 11
81.8429
 21
3.24344
  0
LINE
  8
0
 10
81.8429
 20
3.24344
 11
81.6489
 21
3.84062
  0
LINE
  8
0
 10
81.6489
 20
3.84062
 11
81.3815
 21
4.40877
  0
LINE
  8
0
 10
81.3815
 20
4.40877
 11
81.0451
 21
4.93892
  0
LINE
  8
0
 10
81.0451
 20
4.93892
 11
80.6448
 21
5.42273
  0
LINE
  8
0
 10
80.6448
 20
5.42273
 11
80.1871
 21
5.85255
  0
LINE
  8
0
 10
80.1871
 20
5.85255
 11
79.6791
 21
6.22163
  0
LINE
  8
0
 10
79.6791
 20
6.22163
 11
79.1289
 21
6.52412
  0
LINE
  8
0
 10
79.1289
 20
6.52412
 11
78.5451
 21
6.75528
  0
LINE
  8
0
 10
78.5451
 20
6.75528
 11
77.9369
 21
6.91142
  0
LINE
  8
0
 10
77.9369
 20
6.91142
 11
77.3139
 21
6.99013
  0
LINE
  8
0
 10
77.3139
 20
6.99013
 11
-77.3139
 21
6.99013
  0
LINE
  8
0
 10
-77.3139
 20
6.99013
 11
-77.9369
 21
6.91142
  0
LINE
  8
0
 10
-77.9369
 20
6.91142
 11
-78.5451
 21
6.75528
  0
LINE
  8
0
 10
-78.5451
 20
6.75528
 11
-79.1289
 21
6.52412
  0
LINE
  8
0
 10
-79.1289
 20
6.52412
 11
-79.6791
 21
6.22163
  0
LINE
  8
0
 10
-79.6791
 20
6.22163
 11
-80.1871
 21
5.85255
  0
LINE
  8
0
 10
-80.1871
 20
5.85255
 11
-80.6448
 21
5.42273
  0
LINE
  8
0
 10
-80.6448
 20
5.42273
 11
-81.0451
 21
4.93892
  0
LINE
  8
0
 10
-81.0451
 20
4.93892
 11
-81.3815
 21
4.40877
  0
LINE
  8
0
 10
-81.3815
 20
4.40877
 11
-81.6489
 21
3.84062
  0
LINE
  8
0
 10
-81.6489
 20
3.84062
 11
-81.8429
 21
3.24344
  0
LINE
  8
0
 10
-81.8429
 20
3.24344
 11
-81.9606
 21
2.62666
  0
LINE
  8
0
 10
-81.9606
 20
2.62666
 11
-82
 21
2
  0
LINE
  8
0
 10
-82
 20
2
 11
-82
 21
-2
  0
LINE
  8
0
 10
-82
 20
-2
 11
-81.9606
 21
-2.62666
  0
LINE
  8
0
 10
-81.9606
 20
-2.62666
 11
-81.8429
 21
-3.24344
  0
LINE
  8
0
 10
-81.8429
 20
-3.24344
 11
-81.6489
 21
-3.84062
  0
LINE
  8
0
 10
-81.6489
 20
-3.84062
 11
-81.3815
 21
-4.40877
  0
LINE
  8
0
 10
-81.3815
 20
-4.40877
 11
-81.0451
 21
-4.93892
  0
LINE
  8
0
 10
-81.0451
 20
-4.93892
 11
-80.6448
 21
-5.42273
  0
LINE
  8
0
 10
-80.6448
 20
-5.42273
 11
-80.1871
 21
-5.85255
  0
LINE
  8
0
 10
-80.1871
 20
-5.85255
 11
-79.6791
 21
-6.22163
  0
LINE
  8
0
 10
-79.6791
 20
-6.22163
 11
-79.1289
 21
-6.52412
  0
LINE
  8
0
 10
-79.1289
 20
-6.52412
 11
-78.5451
 21
-6.75528
  0
LINE
  8
0
 10
-78.5451
 20
-6.75528
 11
-77.9369
 21
-6.91142
  0
LINE
  8
0
 10
-77.9369
 20
-6.91142
 11
-77.3139
 21
-6.99013
  0
LINE
  8
0
 10
-77.3139
 20
-6.99013
 11
77.3139
 21
-6.99013
  0
LINE
  8
0
 10
77.3139
 20
-6.99013
 11
77.9369
 21
-6.91142
  0
LINE
  8
0
 10
74.8116
 20
-2.99408
 11
74.4379
 21
-2.94685
  0
LINE
  8
0
 10
74.4379
 20
-2.94685
 11
74.073
 21
-2.85316
  0
LINE
  8
0
 10
74.073
 20
-2.85316
 11
73.7227
 21
-2.71448
  0
LINE
  8
0
 10
73.7227
 20
-2.71448
 11
73.3925
 21
-2.53297
  0
LINE
  8
0
 10
73.3925
 20
-2.53297
 11
73.0877
 21
-2.31154
  0
LINE
  8
0
 10
73.0877
 20
-2.31154
 11
72.8131
 21
-2.05363
  0
LINE
  8
0
 10
72.8131
 20
-2.05363
 11
72.573
 21
-1.76335
  0
LINE
  8
0
 10
72.573
 20
-1.76335
 11
72.3711
 21
-1.44525
  0
LINE
  8
0
 10
72.3711
 20
-1.44525
 11
72.2107
 21
-1.10437
  0
LINE
  8
0
 10
72.2107
 20
-1.10437
 11
72.0943
 21
-0.746063
  0
LINE
  8
0
 10
72.0943
 20
-0.746063
 11
72.0237
 21
-0.375992
  0
LINE
  8
0
 10
72.0237
 20
-0.375992
 11
72
 21
0
  0
LINE
  8
0
 10
72
 20
0
 11
72.0237
 21
0.375992
  0
LINE
  8
0
 10
72.0237
 20
0.375992
 11
72.0943
 21
0.746063
  0
LINE
  8
0
 10
72.0943
 20
0.746063
 11
72.2107
 21
1.10437
  0
LINE
  8
0
 10
72.2107
 20
1.10437
 11
72.3711
 21
1.44525
  0
LINE
  8
0
 10
72.3711
 20
1.44525
 11
72.573
 21
1.76335
  0
LINE
  8
0
 10
72.573
 20
1.76335
 11
72.8131
 21
2.05363
  0
LINE
  8
0
 10
72.8131
 20
2.05363
 11
73.0877
 21
2.31154
  0
LINE
  8
0
 10
73.0877
 20
2.31154
 11
73.3925
 21
2.53297
  0
LINE
  8
0
 10
73.3925
 20
2.53297
 11
73.7227
 21
2.71448
  0
LINE
  8
0
 10
73.7227
 20
2.71448
 11
74.073
 21
2.85316
  0
LINE
  8
0
 10
74.073
 20
2.85316
 11
74.4379
 21
2.94685
  0
LINE
  8
0
 10
74.4379
 20
2.94685
 11
74.8116
 21
2.99408
  0
LINE
  8
0
 10
74.8116
 20
2.99408
 11
75.1884
 21
2.99408
  0
LINE
  8
0
 10
75.1884
 20
2.99408
 11
75.5621
 21
2.94685
  0
LINE
  8
0
 10
75.5621
 20
2.94685
 11
75.927
 21
2.85316
  0
LINE
  8
0
 10
75.927
 20
2.85316
 11
76.2773
 21
2.71448
  0
LINE
  8
0
 10
76.2773
 20
2.71448
 11
76.6075
 21
2.53297
  0
LINE
  8
0
 10
76.6075
 20
2.53297
 11
76.9123
 21
2.31154
  0
LINE
  8
0
 10
76.9123
 20
2.31154
 11
77.1869
 21
2.05363
  0
LINE
  8
0
 10
77.1869
 20
2.05363
 11
77.427
 21
1.76335
  0
LINE
  8
0
 10
77.427
 20
1.76335
 11
77.6289
 21
1.44525
  0
LINE
  8
0
 10
77.6289
 20
1.44525
 11
77.7893
 21
1.10437
  0
LINE
  8
0
 10
77.7893
 20
1.10437
 11
77.9057
 21
0.746063
  0
LINE
  8
0
 10
77.9057
 20
0.746063
 11
77.9763
 21
0.375992
  0
LINE
  8
0
 10
77.9763
 20
0.375992
 11
78
 21
0
  0
LINE
  8
0
 10
78
 20
0
 11
77.9763
 21
-0.375992
  0
LINE
  8
0
 10
77.9763
 20
-0.375992
 11
77.9057
 21
-0.746063
  0
LINE
  8
0
 10
77.9057
 20
-0.746063
 11
77.7893
 21
-1.10437
  0
LINE
  8
0
 10
77.7893
 20
-1.10437
 11
77.6289
 21
-1.44525
  0
LINE
  8
0
 10
77.6289
 20
-1.44525
 11
77.427
 21
-1.76335
  0
LINE
  8
0
 10
77.427
 20
-1.76335
 11
77.1869
 21
-2.05363
  0
LINE
  8
0
 10
77.1869
 20
-2.05363
 11
76.9123
 21
-2.31154
  0
LINE
  8
0
 10
76.9123
 20
-2.31154
 11
76.6075
 21
-2.53297
  0
LINE
  8
0
 10
76.6075
 20
-2.53297
 11
76.2773
 21
-2.71448
  0
LINE
  8
0
 10
76.2773
 20
-2.71448
 11
75.927
 21
-2.85316
  0
LINE
  8
0
 10
75.927
 20
-2.85316
 11
75.5621
 21
-2.94685
  0
LINE
  8
0
 10
75.5621
 20
-2.94685
 11
75.1884
 21
-2.99408
  0
LINE
  8
0
 10
75.1884
 20
-2.99408
 11
74.8116
 21
-2.99408
  0
LINE
  8
0
 10
-75.1884
 20
-2.99408
 11
-75.5621
 21
-2.94685
  0
LINE
  8
0
 10
-75.5621
 20
-2.94685
 11
-75.927
 21
-2.85316
  0
LINE
  8
0
 10
-75.927
 20
-2.85316
 11
-76.2773
 21
-2.71448
  0
LINE
  8
0
 10
-76.2773
 20
-2.71448
 11
-76.6075
 21
-2.53297
  0
LINE
  8
0
 10
-76.6075
 20
-2.53297
 11
-76.9123
 21
-2.31154
  0
LINE
  8
0
 10
-76.9123
 20
-2.31154
 11
-77.1869
 21
-2.05363
  0
LINE
  8
0
 10
-77.1869
 20
-2.05363
 11
-77.427
 21
-1.76335
  0
LINE
  8
0
 10
-77.427
 20
-1.76335
 11
-77.6289
 21
-1.44525
  0
LINE
  8
0
 10
-77.6289
 20
-1.44525
 11
-77.7893
 21
-1.10437
  0
LINE
  8
0
 10
-77.7893
 20
-1.10437
 11
-77.9057
 21
-0.746063
  0
LINE
  8
0
 10
-77.9057
 20
-0.746063
 11
-77.9763
 21
-0.375992
  0
LINE
  8
0
 10
-77.9763
 20
-0.375992
 11
-78
 21
0
  0
LINE
  8
0
 10
-78
 20
0
 11
-77.9763
 21
0.375992
  0
LINE
  8
0
 10
-77.9763
 20
0.375992
 11
-77.9057
 21
0.746063
  0
LINE
  8
0
 10
-77.9057
 20
0.746063
 11
-77.7893
 21
1.10437
  0
LINE
  8
0
 10
-77.7893
 20
1.10437
 11
-77.6289
 21
1.44525
  0
LINE
  8
0
 10
-77.6289
 20
1.44525
 11
-77.427
 21
1.76335
  0
LINE
  8
0
 10
-77.427
 20
1.76335
 11
-77.1869
 21
2.05363
  0
LINE
  8
0
 10
-77.1869
 20
2.05363
 11
-76.9123
 21
2.31154
  0
LINE
  8
0
 10
-76.9123
 20
2.31154
 11
-76.6075
 21
2.53297
  0
LINE
  8
0
 10
-76.6075
 20
2.53297
 11
-76.2773
 21
2.71448
  0
LINE
  8
0
 10
-76.2773
 20
2.71448
 11
-75.927
 21
2.85316
  0
LINE
  8
0
 10
-75.927
 20
2.85316
 11
-75.5621
 21
2.94685
  0
LINE
  8
0
 10
-75.5621
 20
2.94685
 11
-75.1884
 21
2.99408
  0
LINE
  8
0
 10
-75.1884
 20
2.99408
 11
-74.8116
 21
2.99408
  0
LINE
  8
0
 10
-74.8116
 20
2.99408
 11
-74.4379
 21
2.94685
  0
LINE
  8
0
 10
-74.4379
 20
2.94685
 11
-74.073
 21
2.85316
  0
LINE
  8
0
 10
-74.073
 20
2.85316
 11
-73.7227
 21
2.71448
  0
LINE
  8
0
 10
-73.7227
 20
2.71448
 11
-73.3925
 21
2.53297
  0
LINE
  8
0
 10
-73.3925
 20
2.53297
 11
-73.0877
 21
2.31154
  0
LINE
  8
0
 10
-73.0877
 20
2.31154
 11
-72.8131
 21
2.05363
  0
LINE
  8
0
 10
-72.8131
 20
2.05363
 11
-72.573
 21
1.76335
  0
LINE
  8
0
 10
-72.573
 20
1.76335
 11
-72.3711
 21
1.44525
  0
LINE
  8
0
 10
-72.3711
 20
1.44525
 11
-72.2107
 21
1.10437
  0
LINE
  8
0
 10
-72.2107
 20
1.10437
 11
-72.0943
 21
0.746063
  0
LINE
  8
0
 10
-72.0943
 20
0.746063
 11
-72.0237
 21
0.375992
  0
LINE
  8
0
 10
-72.0237
 20
0.375992
 11
-72
 21
0
  0
LINE
  8
0
 10
-72
 20
0
 11
-72.0237
 21
-0.375992
  0
LINE
  8
0
 10
-72.0237
 20
-0.375992
 11
-72.0943
 21
-0.746063
  0
LINE
  8
0
 10
-72.0943
 20
-0.746063
 11
-72.2107
 21
-1.10437
  0
LINE
  8
0
 10
-72.2107
 20
-1.10437
 11
-72.3711
 21
-1.44525
  0
LINE
  8
0
 10
-72.3711
 20
-1.44525
 11
-72.573
 21
-1.76335
  0
LINE
  8
0
 10
-72.573
 20
-1.76335
 11
-72.8131
 21
-2.05363
  0
LINE
  8
0
 10
-72.8131
 20
-2.05363
 11
-73.0877
 21
-2.31154
  0
LINE
  8
0
 10
-73.0877
 20
-2.31154
 11
-73.3925
 21
-2.53297
  0
LINE
  8
0
 10
-73.3925
 20
-2.53297
 11
-73.7227
 21
-2.71448
  0
LINE
  8
0
 10
-73.7227
 20
-2.71448
 11
-74.073
 21
-2.85316
  0
LINE
  8
0
 10
-74.073
 20
-2.85316
 11
-74.4379
 21
-2.94685
  0
LINE
  8
0
 10
-74.4379
 20
-2.94685
 11
-74.8116
 21
-2.99408
  0
LINE
  8
0
 10
-74.8116
 20
-2.99408
 11
-75.1884
 21
-2.99408
  0
ENDSEC
  0
SECTION
  2
OBJECTS
  0
DICTIONARY
  0
ENDSEC
  0
EOF
