  0
SECTION
  2
BLOCKS
  0
ENDSEC
  0
SECTION
  2
ENTITIES
  0
LINE
  8
0
 10
100.437
 20
-36.9114
 11
101.045
 21
-36.7553
  0
LINE
  8
0
 10
101.045
 20
-36.7553
 11
101.629
 21
-36.5241
  0
LINE
  8
0
 10
101.629
 20
-36.5241
 11
102.179
 21
-36.2216
  0
LINE
  8
0
 10
102.179
 20
-36.2216
 11
102.687
 21
-35.8526
  0
LINE
  8
0
 10
102.687
 20
-35.8526
 11
103.145
 21
-35.4227
  0
LINE
  8
0
 10
103.145
 20
-35.4227
 11
103.545
 21
-34.9389
  0
LINE
  8
0
 10
103.545
 20
-34.9389
 11
103.882
 21
-34.4088
  0
LINE
  8
0
 10
103.882
 20
-34.4088
 11
104.149
 21
-33.8406
  0
LINE
  8
0
 10
104.149
 20
-33.8406
 11
104.343
 21
-33.2434
  0
LINE
  8
0
 10
104.343
 20
-33.2434
 11
104.461
 21
-32.6267
  0
LINE
  8
0
 10
104.461
 20
-32.6267
 11
104.5
 21
-32
  0
LINE
  8
0
 10
104.5
 20
-32
 11
104.5
 21
32
  0
LINE
  8
0
 10
104.5
 20
32
 11
104.461
 21
32.6267
  0
LINE
  8
0
 10
104.461
 20
32.6267
 11
104.343
 21
33.2434
  0
LINE
  8
0
 10
104.343
 20
33.2434
 11
104.149
 21
33.8406
  0
LINE
  8
0
 10
104.149
 20
33.8406
 11
103.882
 21
34.4088
  0
LINE
  8
0
 10
103.882
 20
34.4088
 11
103.545
 21
34.9389
  0
LINE
  8
0
 10
103.545
 20
34.9389
 11
103.145
 21
35.4227
  0
LINE
  8
0
 10
103.145
 20
35.4227
 11
102.687
 21
35.8526
  0
LINE
  8
0
 10
102.687
 20
35.8526
 11
102.179
 21
36.2216
  0
LINE
  8
0
 10
102.179
 20
36.2216
 11
101.629
 21
36.5241
  0
LINE
  8
0
 10
101.629
 20
36.5241
 11
101.045
 21
36.7553
  0
LINE
  8
0
 10
101.045
 20
36.7553
 11
100.437
 21
36.9114
  0
LINE
  8
0
 10
100.437
 20
36.9114
 11
99.8139
 21
36.9901
  0
LINE
  8
0
 10
99.8139
 20
36.9901
 11
-99.8139
 21
36.9901
  0
LINE
  8
0
 10
-99.8139
 20
36.9901
 11
-100.437
 21
36.9114
  0
LINE
  8
0
 10
-100.437
 20
36.9114
 11
-101.045
 21
36.7553
  0
LINE
  8
0
 10
-101.045
 20
36.7553
 11
-101.629
 21
36.5241
  0
LINE
  8
0
 10
-101.629
 20
36.5241
 11
-102.179
 21
36.2216
  0
LINE
  8
0
 10
-102.179
 20
36.2216
 11
-102.687
 21
35.8526
  0
LINE
  8
0
 10
-102.687
 20
35.8526
 11
-103.145
 21
35.4227
  0
LINE
  8
0
 10
-103.145
 20
35.4227
 11
-103.545
 21
34.9389
  0
LINE
  8
0
 10
-103.545
 20
34.9389
 11
-103.882
 21
34.4088
  0
LINE
  8
0
 10
-103.882
 20
34.4088
 11
-104.149
 21
33.8406
  0
LINE
  8
0
 10
-104.149
 20
33.8406
 11
-104.343
 21
33.2434
  0
LINE
  8
0
 10
-104.343
 20
33.2434
 11
-104.461
 21
32.6267
  0
LINE
  8
0
 10
-104.461
 20
32.6267
 11
-104.5
 21
32
  0
LINE
  8
0
 10
-104.5
 20
32
 11
-104.5
 21
-32
  0
LINE
  8
0
 10
-104.5
 20
-32
 11
-104.461
 21
-32.6267
  0
LINE
  8
0
 10
-104.461
 20
-32.6267
 11
-104.343
 21
-33.2434
  0
LINE
  8
0
 10
-104.343
 20
-33.2434
 11
-104.149
 21
-33.8406
  0
LINE
  8
0
 10
-104.149
 20
-33.8406
 11
-103.882
 21
-34.4088
  0
LINE
  8
0
 10
-103.882
 20
-34.4088
 11
-103.545
 21
-34.9389
  0
LINE
  8
0
 10
-103.545
 20
-34.9389
 11
-103.145
 21
-35.4227
  0
LINE
  8
0
 10
-103.145
 20
-35.4227
 11
-102.687
 21
-35.8526
  0
LINE
  8
0
 10
-102.687
 20
-35.8526
 11
-102.179
 21
-36.2216
  0
LINE
  8
0
 10
-102.179
 20
-36.2216
 11
-101.629
 21
-36.5241
  0
LINE
  8
0
 10
-101.629
 20
-36.5241
 11
-101.045
 21
-36.7553
  0
LINE
  8
0
 10
-101.045
 20
-36.7553
 11
-100.437
 21
-36.9114
  0
LINE
  8
0
 10
-100.437
 20
-36.9114
 11
-99.8139
 21
-36.9901
  0
LINE
  8
0
 10
-99.8139
 20
-36.9901
 11
99.8139
 21
-36.9901
  0
LINE
  8
0
 10
99.8139
 20
-36.9901
 11
100.437
 21
-36.9114
  0
LINE
  8
0
 10
97.3116
 20
27.0059
 11
96.9379
 21
27.0531
  0
LINE
  8
0
 10
96.9379
 20
27.0531
 11
96.573
 21
27.1468
  0
LINE
  8
0
 10
96.573
 20
27.1468
 11
96.2227
 21
27.2855
  0
LINE
  8
0
 10
96.2227
 20
27.2855
 11
95.8925
 21
27.467
  0
LINE
  8
0
 10
95.8925
 20
27.467
 11
95.5877
 21
27.6884
  0
LINE
  8
0
 10
95.5877
 20
27.6884
 11
95.3131
 21
27.9464
  0
LINE
  8
0
 10
95.3131
 20
27.9464
 11
95.073
 21
28.2366
  0
LINE
  8
0
 10
95.073
 20
28.2366
 11
94.8711
 21
28.5547
  0
LINE
  8
0
 10
94.8711
 20
28.5547
 11
94.7107
 21
28.8956
  0
LINE
  8
0
 10
94.7107
 20
28.8956
 11
94.5943
 21
29.2539
  0
LINE
  8
0
 10
94.5943
 20
29.2539
 11
94.5237
 21
29.624
  0
LINE
  8
0
 10
94.5237
 20
29.624
 11
94.5
 21
30
  0
LINE
  8
0
 10
94.5
 20
30
 11
94.5237
 21
30.376
  0
LINE
  8
0
 10
94.5237
 20
30.376
 11
94.5943
 21
30.7461
  0
LINE
  8
0
 10
94.5943
 20
30.7461
 11
94.7107
 21
31.1044
  0
LINE
  8
0
 10
94.7107
 20
31.1044
 11
94.8711
 21
31.4453
  0
LINE
  8
0
 10
94.8711
 20
31.4453
 11
95.073
 21
31.7634
  0
LINE
  8
0
 10
95.073
 20
31.7634
 11
95.3131
 21
32.0536
  0
LINE
  8
0
 10
95.3131
 20
32.0536
 11
95.5877
 21
32.3115
  0
LINE
  8
0
 10
95.5877
 20
32.3115
 11
95.8925
 21
32.533
  0
LINE
  8
0
 10
95.8925
 20
32.533
 11
96.2227
 21
32.7145
  0
LINE
  8
0
 10
96.2227
 20
32.7145
 11
96.573
 21
32.8532
  0
LINE
  8
0
 10
96.573
 20
32.8532
 11
96.9379
 21
32.9469
  0
LINE
  8
0
 10
96.9379
 20
32.9469
 11
97.3116
 21
32.9941
  0
LINE
  8
0
 10
97.3116
 20
32.9941
 11
97.6884
 21
32.9941
  0
LINE
  8
0
 10
97.6884
 20
32.9941
 11
98.0621
 21
32.9469
  0
LINE
  8
0
 10
98.0621
 20
32.9469
 11
98.427
 21
32.8532
  0
LINE
  8
0
 10
98.427
 20
32.8532
 11
98.7773
 21
32.7145
  0
LINE
  8
0
 10
98.7773
 20
32.7145
 11
99.1075
 21
32.533
  0
LINE
  8
0
 10
99.1075
 20
32.533
 11
99.4123
 21
32.3115
  0
LINE
  8
0
 10
99.4123
 20
32.3115
 11
99.6869
 21
32.0536
  0
LINE
  8
0
 10
99.6869
 20
32.0536
 11
99.927
 21
31.7634
  0
LINE
  8
0
 10
99.927
 20
31.7634
 11
100.129
 21
31.4453
  0
LINE
  8
0
 10
100.129
 20
31.4453
 11
100.289
 21
31.1044
  0
LINE
  8
0
 10
100.289
 20
31.1044
 11
100.406
 21
30.7461
  0
LINE
  8
0
 10
100.406
 20
30.7461
 11
100.476
 21
30.376
  0
LINE
  8
0
 10
100.476
 20
30.376
 11
100.5
 21
30
  0
LINE
  8
0
 10
100.5
 20
30
 11
100.476
 21
29.624
  0
LINE
  8
0
 10
100.476
 20
29.624
 11
100.406
 21
29.2539
  0
LINE
  8
0
 10
100.406
 20
29.2539
 11
100.289
 21
28.8956
  0
LINE
  8
0
 10
100.289
 20
28.8956
 11
100.129
 21
28.5547
  0
LINE
  8
0
 10
100.129
 20
28.5547
 11
99.927
 21
28.2366
  0
LINE
  8
0
 10
99.927
 20
28.2366
 11
99.6869
 21
27.9464
  0
LINE
  8
0
 10
99.6869
 20
27.9464
 11
99.4123
 21
27.6884
  0
LINE
  8
0
 10
99.4123
 20
27.6884
 11
99.1075
 21
27.467
  0
LINE
  8
0
 10
99.1075
 20
27.467
 11
98.7773
 21
27.2855
  0
LINE
  8
0
 10
98.7773
 20
27.2855
 11
98.427
 21
27.1468
  0
LINE
  8
0
 10
98.427
 20
27.1468
 11
98.0621
 21
27.0531
  0
LINE
  8
0
 10
98.0621
 20
27.0531
 11
97.6884
 21
27.0059
  0
LINE
  8
0
 10
97.6884
 20
27.0059
 11
97.3116
 21
27.0059
  0
LINE
  8
0
 10
-97.6884
 20
27.0059
 11
-98.0621
 21
27.0531
  0
LINE
  8
0
 10
-98.0621
 20
27.0531
 11
-98.427
 21
27.1468
  0
LINE
  8
0
 10
-98.427
 20
27.1468
 11
-98.7773
 21
27.2855
  0
LINE
  8
0
 10
-98.7773
 20
27.2855
 11
-99.1075
 21
27.467
  0
LINE
  8
0
 10
-99.1075
 20
27.467
 11
-99.4123
 21
27.6884
  0
LINE
  8
0
 10
-99.4123
 20
27.6884
 11
-99.6869
 21
27.9464
  0
LINE
  8
0
 10
-99.6869
 20
27.9464
 11
-99.927
 21
28.2366
  0
LINE
  8
0
 10
-99.927
 20
28.2366
 11
-100.129
 21
28.5547
  0
LINE
  8
0
 10
-100.129
 20
28.5547
 11
-100.289
 21
28.8956
  0
LINE
  8
0
 10
-100.289
 20
28.8956
 11
-100.406
 21
29.2539
  0
LINE
  8
0
 10
-100.406
 20
29.2539
 11
-100.476
 21
29.624
  0
LINE
  8
0
 10
-100.476
 20
29.624
 11
-100.5
 21
30
  0
LINE
  8
0
 10
-100.5
 20
30
 11
-100.476
 21
30.376
  0
LINE
  8
0
 10
-100.476
 20
30.376
 11
-100.406
 21
30.7461
  0
LINE
  8
0
 10
-100.406
 20
30.7461
 11
-100.289
 21
31.1044
  0
LINE
  8
0
 10
-100.289
 20
31.1044
 11
-100.129
 21
31.4453
  0
LINE
  8
0
 10
-100.129
 20
31.4453
 11
-99.927
 21
31.7634
  0
LINE
  8
0
 10
-99.927
 20
31.7634
 11
-99.6869
 21
32.0536
  0
LINE
  8
0
 10
-99.6869
 20
32.0536
 11
-99.4123
 21
32.3115
  0
LINE
  8
0
 10
-99.4123
 20
32.3115
 11
-99.1075
 21
32.533
  0
LINE
  8
0
 10
-99.1075
 20
32.533
 11
-98.7773
 21
32.7145
  0
LINE
  8
0
 10
-98.7773
 20
32.7145
 11
-98.427
 21
32.8532
  0
LINE
  8
0
 10
-98.427
 20
32.8532
 11
-98.0621
 21
32.9469
  0
LINE
  8
0
 10
-98.0621
 20
32.9469
 11
-97.6884
 21
32.9941
  0
LINE
  8
0
 10
-97.6884
 20
32.9941
 11
-97.3116
 21
32.9941
  0
LINE
  8
0
 10
-97.3116
 20
32.9941
 11
-96.9379
 21
32.9469
  0
LINE
  8
0
 10
-96.9379
 20
32.9469
 11
-96.573
 21
32.8532
  0
LINE
  8
0
 10
-96.573
 20
32.8532
 11
-96.2227
 21
32.7145
  0
LINE
  8
0
 10
-96.2227
 20
32.7145
 11
-95.8925
 21
32.533
  0
LINE
  8
0
 10
-95.8925
 20
32.533
 11
-95.5877
 21
32.3115
  0
LINE
  8
0
 10
-95.5877
 20
32.3115
 11
-95.3131
 21
32.0536
  0
LINE
  8
0
 10
-95.3131
 20
32.0536
 11
-95.073
 21
31.7634
  0
LINE
  8
0
 10
-95.073
 20
31.7634
 11
-94.8711
 21
31.4453
  0
LINE
  8
0
 10
-94.8711
 20
31.4453
 11
-94.7107
 21
31.1044
  0
LINE
  8
0
 10
-94.7107
 20
31.1044
 11
-94.5943
 21
30.7461
  0
LINE
  8
0
 10
-94.5943
 20
30.7461
 11
-94.5237
 21
30.376
  0
LINE
  8
0
 10
-94.5237
 20
30.376
 11
-94.5
 21
30
  0
LINE
  8
0
 10
-94.5
 20
30
 11
-94.5237
 21
29.624
  0
LINE
  8
0
 10
-94.5237
 20
29.624
 11
-94.5943
 21
29.2539
  0
LINE
  8
0
 10
-94.5943
 20
29.2539
 11
-94.7107
 21
28.8956
  0
LINE
  8
0
 10
-94.7107
 20
28.8956
 11
-94.8711
 21
28.5547
  0
LINE
  8
0
 10
-94.8711
 20
28.5547
 11
-95.073
 21
28.2366
  0
LINE
  8
0
 10
-95.073
 20
28.2366
 11
-95.3131
 21
27.9464
  0
LINE
  8
0
 10
-95.3131
 20
27.9464
 11
-95.5877
 21
27.6884
  0
LINE
  8
0
 10
-95.5877
 20
27.6884
 11
-95.8925
 21
27.467
  0
LINE
  8
0
 10
-95.8925
 20
27.467
 11
-96.2227
 21
27.2855
  0
LINE
  8
0
 10
-96.2227
 20
27.2855
 11
-96.573
 21
27.1468
  0
LINE
  8
0
 10
-96.573
 20
27.1468
 11
-96.9379
 21
27.0531
  0
LINE
  8
0
 10
-96.9379
 20
27.0531
 11
-97.3116
 21
27.0059
  0
LINE
  8
0
 10
-97.3116
 20
27.0059
 11
-97.6884
 21
27.0059
  0
LINE
  8
0
 10
97.3116
 20
-32.9941
 11
96.9379
 21
-32.9469
  0
LINE
  8
0
 10
96.9379
 20
-32.9469
 11
96.573
 21
-32.8532
  0
LINE
  8
0
 10
96.573
 20
-32.8532
 11
96.2227
 21
-32.7145
  0
LINE
  8
0
 10
96.2227
 20
-32.7145
 11
95.8925
 21
-32.533
  0
LINE
  8
0
 10
95.8925
 20
-32.533
 11
95.5877
 21
-32.3115
  0
LINE
  8
0
 10
95.5877
 20
-32.3115
 11
95.3131
 21
-32.0536
  0
LINE
  8
0
 10
95.3131
 20
-32.0536
 11
95.073
 21
-31.7634
  0
LINE
  8
0
 10
95.073
 20
-31.7634
 11
94.8711
 21
-31.4453
  0
LINE
  8
0
 10
94.8711
 20
-31.4453
 11
94.7107
 21
-31.1044
  0
LINE
  8
0
 10
94.7107
 20
-31.1044
 11
94.5943
 21
-30.7461
  0
LINE
  8
0
 10
94.5943
 20
-30.7461
 11
94.5237
 21
-30.376
  0
LINE
  8
0
 10
94.5237
 20
-30.376
 11
94.5
 21
-30
  0
LINE
  8
0
 10
94.5
 20
-30
 11
94.5237
 21
-29.624
  0
LINE
  8
0
 10
94.5237
 20
-29.624
 11
94.5943
 21
-29.2539
  0
LINE
  8
0
 10
94.5943
 20
-29.2539
 11
94.7107
 21
-28.8956
  0
LINE
  8
0
 10
94.7107
 20
-28.8956
 11
94.8711
 21
-28.5547
  0
LINE
  8
0
 10
94.8711
 20
-28.5547
 11
95.073
 21
-28.2366
  0
LINE
  8
0
 10
95.073
 20
-28.2366
 11
95.3131
 21
-27.9464
  0
LINE
  8
0
 10
95.3131
 20
-27.9464
 11
95.5877
 21
-27.6884
  0
LINE
  8
0
 10
95.5877
 20
-27.6884
 11
95.8925
 21
-27.467
  0
LINE
  8
0
 10
95.8925
 20
-27.467
 11
96.2227
 21
-27.2855
  0
LINE
  8
0
 10
96.2227
 20
-27.2855
 11
96.573
 21
-27.1468
  0
LINE
  8
0
 10
96.573
 20
-27.1468
 11
96.9379
 21
-27.0531
  0
LINE
  8
0
 10
96.9379
 20
-27.0531
 11
97.3116
 21
-27.0059
  0
LINE
  8
0
 10
97.3116
 20
-27.0059
 11
97.6884
 21
-27.0059
  0
LINE
  8
0
 10
97.6884
 20
-27.0059
 11
98.0621
 21
-27.0531
  0
LINE
  8
0
 10
98.0621
 20
-27.0531
 11
98.427
 21
-27.1468
  0
LINE
  8
0
 10
98.427
 20
-27.1468
 11
98.7773
 21
-27.2855
  0
LINE
  8
0
 10
98.7773
 20
-27.2855
 11
99.1075
 21
-27.467
  0
LINE
  8
0
 10
99.1075
 20
-27.467
 11
99.4123
 21
-27.6884
  0
LINE
  8
0
 10
99.4123
 20
-27.6884
 11
99.6869
 21
-27.9464
  0
LINE
  8
0
 10
99.6869
 20
-27.9464
 11
99.927
 21
-28.2366
  0
LINE
  8
0
 10
99.927
 20
-28.2366
 11
100.129
 21
-28.5547
  0
LINE
  8
0
 10
100.129
 20
-28.5547
 11
100.289
 21
-28.8956
  0
LINE
  8
0
 10
100.289
 20
-28.8956
 11
100.406
 21
-29.2539
  0
LINE
  8
0
 10
100.406
 20
-29.2539
 11
100.476
 21
-29.624
  0
LINE
  8
0
 10
100.476
 20
-29.624
 11
100.5
 21
-30
  0
LINE
  8
0
 10
100.5
 20
-30
 11
100.476
 21
-30.376
  0
LINE
  8
0
 10
100.476
 20
-30.376
 11
100.406
 21
-30.7461
  0
LINE
  8
0
 10
100.406
 20
-30.7461
 11
100.289
 21
-31.1044
  0
LINE
  8
0
 10
100.289
 20
-31.1044
 11
100.129
 21
-31.4453
  0
LINE
  8
0
 10
100.129
 20
-31.4453
 11
99.927
 21
-31.7634
  0
LINE
  8
0
 10
99.927
 20
-31.7634
 11
99.6869
 21
-32.0536
  0
LINE
  8
0
 10
99.6869
 20
-32.0536
 11
99.4123
 21
-32.3115
  0
LINE
  8
0
 10
99.4123
 20
-32.3115
 11
99.1075
 21
-32.533
  0
LINE
  8
0
 10
99.1075
 20
-32.533
 11
98.7773
 21
-32.7145
  0
LINE
  8
0
 10
98.7773
 20
-32.7145
 11
98.427
 21
-32.8532
  0
LINE
  8
0
 10
98.427
 20
-32.8532
 11
98.0621
 21
-32.9469
  0
LINE
  8
0
 10
98.0621
 20
-32.9469
 11
97.6884
 21
-32.9941
  0
LINE
  8
0
 10
97.6884
 20
-32.9941
 11
97.3116
 21
-32.9941
  0
LINE
  8
0
 10
-97.6884
 20
-32.9941
 11
-98.0621
 21
-32.9469
  0
LINE
  8
0
 10
-98.0621
 20
-32.9469
 11
-98.427
 21
-32.8532
  0
LINE
  8
0
 10
-98.427
 20
-32.8532
 11
-98.7773
 21
-32.7145
  0
LINE
  8
0
 10
-98.7773
 20
-32.7145
 11
-99.1075
 21
-32.533
  0
LINE
  8
0
 10
-99.1075
 20
-32.533
 11
-99.4123
 21
-32.3115
  0
LINE
  8
0
 10
-99.4123
 20
-32.3115
 11
-99.6869
 21
-32.0536
  0
LINE
  8
0
 10
-99.6869
 20
-32.0536
 11
-99.927
 21
-31.7634
  0
LINE
  8
0
 10
-99.927
 20
-31.7634
 11
-100.129
 21
-31.4453
  0
LINE
  8
0
 10
-100.129
 20
-31.4453
 11
-100.289
 21
-31.1044
  0
LINE
  8
0
 10
-100.289
 20
-31.1044
 11
-100.406
 21
-30.7461
  0
LINE
  8
0
 10
-100.406
 20
-30.7461
 11
-100.476
 21
-30.376
  0
LINE
  8
0
 10
-100.476
 20
-30.376
 11
-100.5
 21
-30
  0
LINE
  8
0
 10
-100.5
 20
-30
 11
-100.476
 21
-29.624
  0
LINE
  8
0
 10
-100.476
 20
-29.624
 11
-100.406
 21
-29.2539
  0
LINE
  8
0
 10
-100.406
 20
-29.2539
 11
-100.289
 21
-28.8956
  0
LINE
  8
0
 10
-100.289
 20
-28.8956
 11
-100.129
 21
-28.5547
  0
LINE
  8
0
 10
-100.129
 20
-28.5547
 11
-99.927
 21
-28.2366
  0
LINE
  8
0
 10
-99.927
 20
-28.2366
 11
-99.6869
 21
-27.9464
  0
LINE
  8
0
 10
-99.6869
 20
-27.9464
 11
-99.4123
 21
-27.6884
  0
LINE
  8
0
 10
-99.4123
 20
-27.6884
 11
-99.1075
 21
-27.467
  0
LINE
  8
0
 10
-99.1075
 20
-27.467
 11
-98.7773
 21
-27.2855
  0
LINE
  8
0
 10
-98.7773
 20
-27.2855
 11
-98.427
 21
-27.1468
  0
LINE
  8
0
 10
-98.427
 20
-27.1468
 11
-98.0621
 21
-27.0531
  0
LINE
  8
0
 10
-98.0621
 20
-27.0531
 11
-97.6884
 21
-27.0059
  0
LINE
  8
0
 10
-97.6884
 20
-27.0059
 11
-97.3116
 21
-27.0059
  0
LINE
  8
0
 10
-97.3116
 20
-27.0059
 11
-96.9379
 21
-27.0531
  0
LINE
  8
0
 10
-96.9379
 20
-27.0531
 11
-96.573
 21
-27.1468
  0
LINE
  8
0
 10
-96.573
 20
-27.1468
 11
-96.2227
 21
-27.2855
  0
LINE
  8
0
 10
-96.2227
 20
-27.2855
 11
-95.8925
 21
-27.467
  0
LINE
  8
0
 10
-95.8925
 20
-27.467
 11
-95.5877
 21
-27.6884
  0
LINE
  8
0
 10
-95.5877
 20
-27.6884
 11
-95.3131
 21
-27.9464
  0
LINE
  8
0
 10
-95.3131
 20
-27.9464
 11
-95.073
 21
-28.2366
  0
LINE
  8
0
 10
-95.073
 20
-28.2366
 11
-94.8711
 21
-28.5547
  0
LINE
  8
0
 10
-94.8711
 20
-28.5547
 11
-94.7107
 21
-28.8956
  0
LINE
  8
0
 10
-94.7107
 20
-28.8956
 11
-94.5943
 21
-29.2539
  0
LINE
  8
0
 10
-94.5943
 20
-29.2539
 11
-94.5237
 21
-29.624
  0
LINE
  8
0
 10
-94.5237
 20
-29.624
 11
-94.5
 21
-30
  0
LINE
  8
0
 10
-94.5
 20
-30
 11
-94.5237
 21
-30.376
  0
LINE
  8
0
 10
-94.5237
 20
-30.376
 11
-94.5943
 21
-30.7461
  0
LINE
  8
0
 10
-94.5943
 20
-30.7461
 11
-94.7107
 21
-31.1044
  0
LINE
  8
0
 10
-94.7107
 20
-31.1044
 11
-94.8711
 21
-31.4453
  0
LINE
  8
0
 10
-94.8711
 20
-31.4453
 11
-95.073
 21
-31.7634
  0
LINE
  8
0
 10
-95.073
 20
-31.7634
 11
-95.3131
 21
-32.0536
  0
LINE
  8
0
 10
-95.3131
 20
-32.0536
 11
-95.5877
 21
-32.3115
  0
LINE
  8
0
 10
-95.5877
 20
-32.3115
 11
-95.8925
 21
-32.533
  0
LINE
  8
0
 10
-95.8925
 20
-32.533
 11
-96.2227
 21
-32.7145
  0
LINE
  8
0
 10
-96.2227
 20
-32.7145
 11
-96.573
 21
-32.8532
  0
LINE
  8
0
 10
-96.573
 20
-32.8532
 11
-96.9379
 21
-32.9469
  0
LINE
  8
0
 10
-96.9379
 20
-32.9469
 11
-97.3116
 21
-32.9941
  0
LINE
  8
0
 10
-97.3116
 20
-32.9941
 11
-97.6884
 21
-32.9941
  0
ENDSEC
  0
SECTION
  2
OBJECTS
  0
DICTIONARY
  0
ENDSEC
  0
EOF
