<?xml version="1.0" standalone="no"?>
<!DOCTYPE svg PUBLIC "-//W3C//DTD SVG 1.1//EN" "http://www.w3.org/Graphics/SVG/1.1/DTD/svg11.dtd">
<svg width="240mm" height="38mm" viewBox="-120 -79 240 38" xmlns="http://www.w3.org/2000/svg" version="1.1">
<title>OpenSCAD Model</title>
<path d="
M 115.437,-65.0886 L 116.045,-65.2447 L 116.629,-65.4759 L 117.179,-65.7784 L 117.687,-66.1474 L 118.145,-66.5773
 L 118.545,-67.0611 L 118.882,-67.5912 L 119.149,-68.1594 L 119.343,-68.7566 L 119.461,-69.3733 L 119.5,-70
 L 119.5,-74 L 119.461,-74.6267 L 119.343,-75.2434 L 119.149,-75.8406 L 118.882,-76.4088 L 118.545,-76.9389
 L 118.145,-77.4227 L 117.687,-77.8526 L 117.179,-78.2216 L 116.629,-78.5241 L 116.045,-78.7553 L 115.437,-78.9114
 L 114.814,-78.9901 L -114.814,-78.9901 L -115.437,-78.9114 L -116.045,-78.7553 L -116.629,-78.5241 L -117.179,-78.2216
 L -117.687,-77.8526 L -118.145,-77.4227 L -118.545,-76.9389 L -118.882,-76.4088 L -119.149,-75.8406 L -119.343,-75.2434
 L -119.461,-74.6267 L -119.5,-74 L -119.5,-70 L -119.461,-69.3733 L -119.343,-68.7566 L -119.149,-68.1594
 L -118.882,-67.5912 L -118.545,-67.0611 L -118.145,-66.5773 L -117.687,-66.1474 L -117.179,-65.7784 L -116.629,-65.4759
 L -116.045,-65.2447 L -115.437,-65.0886 L -114.814,-65.0099 L 114.814,-65.0099 z
M 7.31161,-69.0059 L 6.93785,-69.0531 L 6.57294,-69.1468 L 6.22266,-69.2855 L 5.89252,-69.467 L 5.58772,-69.6885
 L 5.31308,-69.9464 L 5.07294,-70.2366 L 4.87108,-70.5547 L 4.71066,-70.8956 L 4.59424,-71.2539 L 4.52365,-71.624
 L 4.5,-72 L 4.52365,-72.376 L 4.59424,-72.7461 L 4.71066,-73.1044 L 4.87108,-73.4453 L 5.07294,-73.7634
 L 5.31308,-74.0536 L 5.58772,-74.3115 L 5.89252,-74.533 L 6.22266,-74.7145 L 6.57294,-74.8532 L 6.93785,-74.9469
 L 7.31161,-74.9941 L 7.68837,-74.9941 L 8.06213,-74.9469 L 8.42705,-74.8532 L 8.77733,-74.7145 L 9.10747,-74.533
 L 9.41226,-74.3115 L 9.6869,-74.0536 L 9.92705,-73.7634 L 10.1289,-73.4453 L 10.2893,-73.1044 L 10.4057,-72.7461
 L 10.4763,-72.376 L 10.5,-72 L 10.4763,-71.624 L 10.4057,-71.2539 L 10.2893,-70.8956 L 10.1289,-70.5547
 L 9.92705,-70.2366 L 9.6869,-69.9464 L 9.41226,-69.6885 L 9.10747,-69.467 L 8.77733,-69.2855 L 8.42705,-69.1468
 L 8.06213,-69.0531 L 7.68837,-69.0059 z
M 67.3116,-69.0059 L 66.9379,-69.0531 L 66.573,-69.1468 L 66.2227,-69.2855 L 65.8925,-69.467 L 65.5877,-69.6885
 L 65.3131,-69.9464 L 65.073,-70.2366 L 64.8711,-70.5547 L 64.7107,-70.8956 L 64.5943,-71.2539 L 64.5237,-71.624
 L 64.5,-72 L 64.5237,-72.376 L 64.5943,-72.7461 L 64.7107,-73.1044 L 64.8711,-73.4453 L 65.073,-73.7634
 L 65.3131,-74.0536 L 65.5877,-74.3115 L 65.8925,-74.533 L 66.2227,-74.7145 L 66.573,-74.8532 L 66.9379,-74.9469
 L 67.3116,-74.9941 L 67.6884,-74.9941 L 68.0621,-74.9469 L 68.427,-74.8532 L 68.7773,-74.7145 L 69.1075,-74.533
 L 69.4123,-74.3115 L 69.6869,-74.0536 L 69.927,-73.7634 L 70.1289,-73.4453 L 70.2893,-73.1044 L 70.4057,-72.7461
 L 70.4763,-72.376 L 70.5,-72 L 70.4763,-71.624 L 70.4057,-71.2539 L 70.2893,-70.8956 L 70.1289,-70.5547
 L 69.927,-70.2366 L 69.6869,-69.9464 L 69.4123,-69.6885 L 69.1075,-69.467 L 68.7773,-69.2855 L 68.427,-69.1468
 L 68.0621,-69.0531 L 67.6884,-69.0059 z
M -37.6884,-69.0059 L -38.0621,-69.0531 L -38.427,-69.1468 L -38.7773,-69.2855 L -39.1075,-69.467 L -39.4123,-69.6885
 L -39.6869,-69.9464 L -39.927,-70.2366 L -40.1289,-70.5547 L -40.2893,-70.8956 L -40.4057,-71.2539 L -40.4763,-71.624
 L -40.5,-72 L -40.4763,-72.376 L -40.4057,-72.7461 L -40.2893,-73.1044 L -40.1289,-73.4453 L -39.927,-73.7634
 L -39.6869,-74.0536 L -39.4123,-74.3115 L -39.1075,-74.533 L -38.7773,-74.7145 L -38.427,-74.8532 L -38.0621,-74.9469
 L -37.6884,-74.9941 L -37.3116,-74.9941 L -36.9379,-74.9469 L -36.5729,-74.8532 L -36.2227,-74.7145 L -35.8925,-74.533
 L -35.5877,-74.3115 L -35.3131,-74.0536 L -35.0729,-73.7634 L -34.8711,-73.4453 L -34.7107,-73.1044 L -34.5942,-72.7461
 L -34.5237,-72.376 L -34.5,-72 L -34.5237,-71.624 L -34.5942,-71.2539 L -34.7107,-70.8956 L -34.8711,-70.5547
 L -35.0729,-70.2366 L -35.3131,-69.9464 L -35.5877,-69.6885 L -35.8925,-69.467 L -36.2227,-69.2855 L -36.5729,-69.1468
 L -36.9379,-69.0531 L -37.3116,-69.0059 z
M -52.6884,-69.0059 L -53.0621,-69.0531 L -53.427,-69.1468 L -53.7773,-69.2855 L -54.1075,-69.467 L -54.4123,-69.6885
 L -54.6869,-69.9464 L -54.927,-70.2366 L -55.1289,-70.5547 L -55.2893,-70.8956 L -55.4057,-71.2539 L -55.4763,-71.624
 L -55.5,-72 L -55.4763,-72.376 L -55.4057,-72.7461 L -55.2893,-73.1044 L -55.1289,-73.4453 L -54.927,-73.7634
 L -54.6869,-74.0536 L -54.4123,-74.3115 L -54.1075,-74.533 L -53.7773,-74.7145 L -53.427,-74.8532 L -53.0621,-74.9469
 L -52.6884,-74.9941 L -52.3116,-74.9941 L -51.9379,-74.9469 L -51.5729,-74.8532 L -51.2227,-74.7145 L -50.8925,-74.533
 L -50.5877,-74.3115 L -50.3131,-74.0536 L -50.0729,-73.7634 L -49.8711,-73.4453 L -49.7107,-73.1044 L -49.5942,-72.7461
 L -49.5237,-72.376 L -49.5,-72 L -49.5237,-71.624 L -49.5942,-71.2539 L -49.7107,-70.8956 L -49.8711,-70.5547
 L -50.0729,-70.2366 L -50.3131,-69.9464 L -50.5877,-69.6885 L -50.8925,-69.467 L -51.2227,-69.2855 L -51.5729,-69.1468
 L -51.9379,-69.0531 L -52.3116,-69.0059 z
M 52.3116,-69.0059 L 51.9379,-69.0531 L 51.5729,-69.1468 L 51.2227,-69.2855 L 50.8925,-69.467 L 50.5877,-69.6885
 L 50.3131,-69.9464 L 50.0729,-70.2366 L 49.8711,-70.5547 L 49.7107,-70.8956 L 49.5942,-71.2539 L 49.5237,-71.624
 L 49.5,-72 L 49.5237,-72.376 L 49.5942,-72.7461 L 49.7107,-73.1044 L 49.8711,-73.4453 L 50.0729,-73.7634
 L 50.3131,-74.0536 L 50.5877,-74.3115 L 50.8925,-74.533 L 51.2227,-74.7145 L 51.5729,-74.8532 L 51.9379,-74.9469
 L 52.3116,-74.9941 L 52.6884,-74.9941 L 53.0621,-74.9469 L 53.427,-74.8532 L 53.7773,-74.7145 L 54.1075,-74.533
 L 54.4123,-74.3115 L 54.6869,-74.0536 L 54.927,-73.7634 L 55.1289,-73.4453 L 55.2893,-73.1044 L 55.4057,-72.7461
 L 55.4763,-72.376 L 55.5,-72 L 55.4763,-71.624 L 55.4057,-71.2539 L 55.2893,-70.8956 L 55.1289,-70.5547
 L 54.927,-70.2366 L 54.6869,-69.9464 L 54.4123,-69.6885 L 54.1075,-69.467 L 53.7773,-69.2855 L 53.427,-69.1468
 L 53.0621,-69.0531 L 52.6884,-69.0059 z
M -22.6884,-69.0059 L -23.0621,-69.0531 L -23.427,-69.1468 L -23.7773,-69.2855 L -24.1075,-69.467 L -24.4123,-69.6885
 L -24.6869,-69.9464 L -24.927,-70.2366 L -25.1289,-70.5547 L -25.2893,-70.8956 L -25.4057,-71.2539 L -25.4763,-71.624
 L -25.5,-72 L -25.4763,-72.376 L -25.4057,-72.7461 L -25.2893,-73.1044 L -25.1289,-73.4453 L -24.927,-73.7634
 L -24.6869,-74.0536 L -24.4123,-74.3115 L -24.1075,-74.533 L -23.7773,-74.7145 L -23.427,-74.8532 L -23.0621,-74.9469
 L -22.6884,-74.9941 L -22.3116,-74.9941 L -21.9379,-74.9469 L -21.5729,-74.8532 L -21.2227,-74.7145 L -20.8925,-74.533
 L -20.5877,-74.3115 L -20.3131,-74.0536 L -20.0729,-73.7634 L -19.8711,-73.4453 L -19.7107,-73.1044 L -19.5942,-72.7461
 L -19.5237,-72.376 L -19.5,-72 L -19.5237,-71.624 L -19.5942,-71.2539 L -19.7107,-70.8956 L -19.8711,-70.5547
 L -20.0729,-70.2366 L -20.3131,-69.9464 L -20.5877,-69.6885 L -20.8925,-69.467 L -21.2227,-69.2855 L -21.5729,-69.1468
 L -21.9379,-69.0531 L -22.3116,-69.0059 z
M 22.3116,-69.0059 L 21.9379,-69.0531 L 21.5729,-69.1468 L 21.2227,-69.2855 L 20.8925,-69.467 L 20.5877,-69.6885
 L 20.3131,-69.9464 L 20.0729,-70.2366 L 19.8711,-70.5547 L 19.7107,-70.8956 L 19.5942,-71.2539 L 19.5237,-71.624
 L 19.5,-72 L 19.5237,-72.376 L 19.5942,-72.7461 L 19.7107,-73.1044 L 19.8711,-73.4453 L 20.0729,-73.7634
 L 20.3131,-74.0536 L 20.5877,-74.3115 L 20.8925,-74.533 L 21.2227,-74.7145 L 21.5729,-74.8532 L 21.9379,-74.9469
 L 22.3116,-74.9941 L 22.6884,-74.9941 L 23.0621,-74.9469 L 23.427,-74.8532 L 23.7773,-74.7145 L 24.1075,-74.533
 L 24.4123,-74.3115 L 24.6869,-74.0536 L 24.927,-73.7634 L 25.1289,-73.4453 L 25.2893,-73.1044 L 25.4057,-72.7461
 L 25.4763,-72.376 L 25.5,-72 L 25.4763,-71.624 L 25.4057,-71.2539 L 25.2893,-70.8956 L 25.1289,-70.5547
 L 24.927,-70.2366 L 24.6869,-69.9464 L 24.4123,-69.6885 L 24.1075,-69.467 L 23.7773,-69.2855 L 23.427,-69.1468
 L 23.0621,-69.0531 L 22.6884,-69.0059 z
M -112.688,-69.0059 L -113.062,-69.0531 L -113.427,-69.1468 L -113.777,-69.2855 L -114.107,-69.467 L -114.412,-69.6885
 L -114.687,-69.9464 L -114.927,-70.2366 L -115.129,-70.5547 L -115.289,-70.8956 L -115.406,-71.2539 L -115.476,-71.624
 L -115.5,-72 L -115.476,-72.376 L -115.406,-72.7461 L -115.289,-73.1044 L -115.129,-73.4453 L -114.927,-73.7634
 L -114.687,-74.0536 L -114.412,-74.3115 L -114.107,-74.533 L -113.777,-74.7145 L -113.427,-74.8532 L -113.062,-74.9469
 L -112.688,-74.9941 L -112.312,-74.9941 L -111.938,-74.9469 L -111.573,-74.8532 L -111.223,-74.7145 L -110.893,-74.533
 L -110.588,-74.3115 L -110.313,-74.0536 L -110.073,-73.7634 L -109.871,-73.4453 L -109.711,-73.1044 L -109.594,-72.7461
 L -109.524,-72.376 L -109.5,-72 L -109.524,-71.624 L -109.594,-71.2539 L -109.711,-70.8956 L -109.871,-70.5547
 L -110.073,-70.2366 L -110.313,-69.9464 L -110.588,-69.6885 L -110.893,-69.467 L -111.223,-69.2855 L -111.573,-69.1468
 L -111.938,-69.0531 L -112.312,-69.0059 z
M -7.68837,-69.0059 L -8.06213,-69.0531 L -8.42705,-69.1468 L -8.77733,-69.2855 L -9.10747,-69.467 L -9.41226,-69.6885
 L -9.6869,-69.9464 L -9.92705,-70.2366 L -10.1289,-70.5547 L -10.2893,-70.8956 L -10.4057,-71.2539 L -10.4763,-71.624
 L -10.5,-72 L -10.4763,-72.376 L -10.4057,-72.7461 L -10.2893,-73.1044 L -10.1289,-73.4453 L -9.92705,-73.7634
 L -9.6869,-74.0536 L -9.41226,-74.3115 L -9.10747,-74.533 L -8.77733,-74.7145 L -8.42705,-74.8532 L -8.06213,-74.9469
 L -7.68837,-74.9941 L -7.31161,-74.9941 L -6.93785,-74.9469 L -6.57294,-74.8532 L -6.22266,-74.7145 L -5.89252,-74.533
 L -5.58772,-74.3115 L -5.31308,-74.0536 L -5.07294,-73.7634 L -4.87108,-73.4453 L -4.71066,-73.1044 L -4.59424,-72.7461
 L -4.52365,-72.376 L -4.5,-72 L -4.52365,-71.624 L -4.59424,-71.2539 L -4.71066,-70.8956 L -4.87108,-70.5547
 L -5.07294,-70.2366 L -5.31308,-69.9464 L -5.58772,-69.6885 L -5.89252,-69.467 L -6.22266,-69.2855 L -6.57294,-69.1468
 L -6.93785,-69.0531 L -7.31161,-69.0059 z
M 97.3116,-69.0059 L 96.9379,-69.0531 L 96.573,-69.1468 L 96.2227,-69.2855 L 95.8925,-69.467 L 95.5877,-69.6885
 L 95.3131,-69.9464 L 95.073,-70.2366 L 94.8711,-70.5547 L 94.7107,-70.8956 L 94.5943,-71.2539 L 94.5237,-71.624
 L 94.5,-72 L 94.5237,-72.376 L 94.5943,-72.7461 L 94.7107,-73.1044 L 94.8711,-73.4453 L 95.073,-73.7634
 L 95.3131,-74.0536 L 95.5877,-74.3115 L 95.8925,-74.533 L 96.2227,-74.7145 L 96.573,-74.8532 L 96.9379,-74.9469
 L 97.3116,-74.9941 L 97.6884,-74.9941 L 98.0621,-74.9469 L 98.427,-74.8532 L 98.7773,-74.7145 L 99.1075,-74.533
 L 99.4123,-74.3115 L 99.6869,-74.0536 L 99.927,-73.7634 L 100.129,-73.4453 L 100.289,-73.1044 L 100.406,-72.7461
 L 100.476,-72.376 L 100.5,-72 L 100.476,-71.624 L 100.406,-71.2539 L 100.289,-70.8956 L 100.129,-70.5547
 L 99.927,-70.2366 L 99.6869,-69.9464 L 99.4123,-69.6885 L 99.1075,-69.467 L 98.7773,-69.2855 L 98.427,-69.1468
 L 98.0621,-69.0531 L 97.6884,-69.0059 z
M 112.312,-69.0059 L 111.938,-69.0531 L 111.573,-69.1468 L 111.223,-69.2855 L 110.893,-69.467 L 110.588,-69.6885
 L 110.313,-69.9464 L 110.073,-70.2366 L 109.871,-70.5547 L 109.711,-70.8956 L 109.594,-71.2539 L 109.524,-71.624
 L 109.5,-72 L 109.524,-72.376 L 109.594,-72.7461 L 109.711,-73.1044 L 109.871,-73.4453 L 110.073,-73.7634
 L 110.313,-74.0536 L 110.588,-74.3115 L 110.893,-74.533 L 111.223,-74.7145 L 111.573,-74.8532 L 111.938,-74.9469
 L 112.312,-74.9941 L 112.688,-74.9941 L 113.062,-74.9469 L 113.427,-74.8532 L 113.777,-74.7145 L 114.107,-74.533
 L 114.412,-74.3115 L 114.687,-74.0536 L 114.927,-73.7634 L 115.129,-73.4453 L 115.289,-73.1044 L 115.406,-72.7461
 L 115.476,-72.376 L 115.5,-72 L 115.476,-71.624 L 115.406,-71.2539 L 115.289,-70.8956 L 115.129,-70.5547
 L 114.927,-70.2366 L 114.687,-69.9464 L 114.412,-69.6885 L 114.107,-69.467 L 113.777,-69.2855 L 113.427,-69.1468
 L 113.062,-69.0531 L 112.688,-69.0059 z
M -97.6884,-69.0059 L -98.0621,-69.0531 L -98.427,-69.1468 L -98.7773,-69.2855 L -99.1075,-69.467 L -99.4123,-69.6885
 L -99.6869,-69.9464 L -99.927,-70.2366 L -100.129,-70.5547 L -100.289,-70.8956 L -100.406,-71.2539 L -100.476,-71.624
 L -100.5,-72 L -100.476,-72.376 L -100.406,-72.7461 L -100.289,-73.1044 L -100.129,-73.4453 L -99.927,-73.7634
 L -99.6869,-74.0536 L -99.4123,-74.3115 L -99.1075,-74.533 L -98.7773,-74.7145 L -98.427,-74.8532 L -98.0621,-74.9469
 L -97.6884,-74.9941 L -97.3116,-74.9941 L -96.9379,-74.9469 L -96.573,-74.8532 L -96.2227,-74.7145 L -95.8925,-74.533
 L -95.5877,-74.3115 L -95.3131,-74.0536 L -95.073,-73.7634 L -94.8711,-73.4453 L -94.7107,-73.1044 L -94.5943,-72.7461
 L -94.5237,-72.376 L -94.5,-72 L -94.5237,-71.624 L -94.5943,-71.2539 L -94.7107,-70.8956 L -94.8711,-70.5547
 L -95.073,-70.2366 L -95.3131,-69.9464 L -95.5877,-69.6885 L -95.8925,-69.467 L -96.2227,-69.2855 L -96.573,-69.1468
 L -96.9379,-69.0531 L -97.3116,-69.0059 z
M 82.3116,-69.0059 L 81.9379,-69.0531 L 81.573,-69.1468 L 81.2227,-69.2855 L 80.8925,-69.467 L 80.5877,-69.6885
 L 80.3131,-69.9464 L 80.073,-70.2366 L 79.8711,-70.5547 L 79.7107,-70.8956 L 79.5943,-71.2539 L 79.5237,-71.624
 L 79.5,-72 L 79.5237,-72.376 L 79.5943,-72.7461 L 79.7107,-73.1044 L 79.8711,-73.4453 L 80.073,-73.7634
 L 80.3131,-74.0536 L 80.5877,-74.3115 L 80.8925,-74.533 L 81.2227,-74.7145 L 81.573,-74.8532 L 81.9379,-74.9469
 L 82.3116,-74.9941 L 82.6884,-74.9941 L 83.0621,-74.9469 L 83.427,-74.8532 L 83.7773,-74.7145 L 84.1075,-74.533
 L 84.4123,-74.3115 L 84.6869,-74.0536 L 84.927,-73.7634 L 85.1289,-73.4453 L 85.2893,-73.1044 L 85.4057,-72.7461
 L 85.4763,-72.376 L 85.5,-72 L 85.4763,-71.624 L 85.4057,-71.2539 L 85.2893,-70.8956 L 85.1289,-70.5547
 L 84.927,-70.2366 L 84.6869,-69.9464 L 84.4123,-69.6885 L 84.1075,-69.467 L 83.7773,-69.2855 L 83.427,-69.1468
 L 83.0621,-69.0531 L 82.6884,-69.0059 z
M -82.6884,-69.0059 L -83.0621,-69.0531 L -83.427,-69.1468 L -83.7773,-69.2855 L -84.1075,-69.467 L -84.4123,-69.6885
 L -84.6869,-69.9464 L -84.927,-70.2366 L -85.1289,-70.5547 L -85.2893,-70.8956 L -85.4057,-71.2539 L -85.4763,-71.624
 L -85.5,-72 L -85.4763,-72.376 L -85.4057,-72.7461 L -85.2893,-73.1044 L -85.1289,-73.4453 L -84.927,-73.7634
 L -84.6869,-74.0536 L -84.4123,-74.3115 L -84.1075,-74.533 L -83.7773,-74.7145 L -83.427,-74.8532 L -83.0621,-74.9469
 L -82.6884,-74.9941 L -82.3116,-74.9941 L -81.9379,-74.9469 L -81.573,-74.8532 L -81.2227,-74.7145 L -80.8925,-74.533
 L -80.5877,-74.3115 L -80.3131,-74.0536 L -80.073,-73.7634 L -79.8711,-73.4453 L -79.7107,-73.1044 L -79.5943,-72.7461
 L -79.5237,-72.376 L -79.5,-72 L -79.5237,-71.624 L -79.5943,-71.2539 L -79.7107,-70.8956 L -79.8711,-70.5547
 L -80.073,-70.2366 L -80.3131,-69.9464 L -80.5877,-69.6885 L -80.8925,-69.467 L -81.2227,-69.2855 L -81.573,-69.1468
 L -81.9379,-69.0531 L -82.3116,-69.0059 z
M -67.6884,-69.0059 L -68.0621,-69.0531 L -68.427,-69.1468 L -68.7773,-69.2855 L -69.1075,-69.467 L -69.4123,-69.6885
 L -69.6869,-69.9464 L -69.927,-70.2366 L -70.1289,-70.5547 L -70.2893,-70.8956 L -70.4057,-71.2539 L -70.4763,-71.624
 L -70.5,-72 L -70.4763,-72.376 L -70.4057,-72.7461 L -70.2893,-73.1044 L -70.1289,-73.4453 L -69.927,-73.7634
 L -69.6869,-74.0536 L -69.4123,-74.3115 L -69.1075,-74.533 L -68.7773,-74.7145 L -68.427,-74.8532 L -68.0621,-74.9469
 L -67.6884,-74.9941 L -67.3116,-74.9941 L -66.9379,-74.9469 L -66.573,-74.8532 L -66.2227,-74.7145 L -65.8925,-74.533
 L -65.5877,-74.3115 L -65.3131,-74.0536 L -65.073,-73.7634 L -64.8711,-73.4453 L -64.7107,-73.1044 L -64.5943,-72.7461
 L -64.5237,-72.376 L -64.5,-72 L -64.5237,-71.624 L -64.5943,-71.2539 L -64.7107,-70.8956 L -64.8711,-70.5547
 L -65.073,-70.2366 L -65.3131,-69.9464 L -65.5877,-69.6885 L -65.8925,-69.467 L -66.2227,-69.2855 L -66.573,-69.1468
 L -66.9379,-69.0531 L -67.3116,-69.0059 z
M 37.3116,-69.0059 L 36.9379,-69.0531 L 36.5729,-69.1468 L 36.2227,-69.2855 L 35.8925,-69.467 L 35.5877,-69.6885
 L 35.3131,-69.9464 L 35.0729,-70.2366 L 34.8711,-70.5547 L 34.7107,-70.8956 L 34.5942,-71.2539 L 34.5237,-71.624
 L 34.5,-72 L 34.5237,-72.376 L 34.5942,-72.7461 L 34.7107,-73.1044 L 34.8711,-73.4453 L 35.0729,-73.7634
 L 35.3131,-74.0536 L 35.5877,-74.3115 L 35.8925,-74.533 L 36.2227,-74.7145 L 36.5729,-74.8532 L 36.9379,-74.9469
 L 37.3116,-74.9941 L 37.6884,-74.9941 L 38.0621,-74.9469 L 38.427,-74.8532 L 38.7773,-74.7145 L 39.1075,-74.533
 L 39.4123,-74.3115 L 39.6869,-74.0536 L 39.927,-73.7634 L 40.1289,-73.4453 L 40.2893,-73.1044 L 40.4057,-72.7461
 L 40.4763,-72.376 L 40.5,-72 L 40.4763,-71.624 L 40.4057,-71.2539 L 40.2893,-70.8956 L 40.1289,-70.5547
 L 39.927,-70.2366 L 39.6869,-69.9464 L 39.4123,-69.6885 L 39.1075,-69.467 L 38.7773,-69.2855 L 38.427,-69.1468
 L 38.0621,-69.0531 L 37.6884,-69.0059 z
M 115.437,-41.0886 L 116.045,-41.2447 L 116.629,-41.4759 L 117.179,-41.7784 L 117.687,-42.1474 L 118.145,-42.5773
 L 118.545,-43.0611 L 118.882,-43.5912 L 119.149,-44.1594 L 119.343,-44.7566 L 119.461,-45.3733 L 119.5,-46
 L 119.5,-50 L 119.461,-50.6267 L 119.343,-51.2434 L 119.149,-51.8406 L 118.882,-52.4088 L 118.545,-52.9389
 L 118.145,-53.4227 L 117.687,-53.8526 L 117.179,-54.2216 L 116.629,-54.5241 L 116.045,-54.7553 L 115.437,-54.9114
 L 114.814,-54.9901 L -114.814,-54.9901 L -115.437,-54.9114 L -116.045,-54.7553 L -116.629,-54.5241 L -117.179,-54.2216
 L -117.687,-53.8526 L -118.145,-53.4227 L -118.545,-52.9389 L -118.882,-52.4088 L -119.149,-51.8406 L -119.343,-51.2434
 L -119.461,-50.6267 L -119.5,-50 L -119.5,-46 L -119.461,-45.3733 L -119.343,-44.7566 L -119.149,-44.1594
 L -118.882,-43.5912 L -118.545,-43.0611 L -118.145,-42.5773 L -117.687,-42.1474 L -117.179,-41.7784 L -116.629,-41.4759
 L -116.045,-41.2447 L -115.437,-41.0886 L -114.814,-41.0099 L 114.814,-41.0099 z
M 7.31161,-45.0059 L 6.93785,-45.0531 L 6.57294,-45.1468 L 6.22266,-45.2855 L 5.89252,-45.467 L 5.58772,-45.6885
 L 5.31308,-45.9464 L 5.07294,-46.2366 L 4.87108,-46.5547 L 4.71066,-46.8956 L 4.59424,-47.2539 L 4.52365,-47.624
 L 4.5,-48 L 4.52365,-48.376 L 4.59424,-48.7461 L 4.71066,-49.1044 L 4.87108,-49.4453 L 5.07294,-49.7634
 L 5.31308,-50.0536 L 5.58772,-50.3115 L 5.89252,-50.533 L 6.22266,-50.7145 L 6.57294,-50.8532 L 6.93785,-50.9469
 L 7.31161,-50.9941 L 7.68837,-50.9941 L 8.06213,-50.9469 L 8.42705,-50.8532 L 8.77733,-50.7145 L 9.10747,-50.533
 L 9.41226,-50.3115 L 9.6869,-50.0536 L 9.92705,-49.7634 L 10.1289,-49.4453 L 10.2893,-49.1044 L 10.4057,-48.7461
 L 10.4763,-48.376 L 10.5,-48 L 10.4763,-47.624 L 10.4057,-47.2539 L 10.2893,-46.8956 L 10.1289,-46.5547
 L 9.92705,-46.2366 L 9.6869,-45.9464 L 9.41226,-45.6885 L 9.10747,-45.467 L 8.77733,-45.2855 L 8.42705,-45.1468
 L 8.06213,-45.0531 L 7.68837,-45.0059 z
M 67.3116,-45.0059 L 66.9379,-45.0531 L 66.573,-45.1468 L 66.2227,-45.2855 L 65.8925,-45.467 L 65.5877,-45.6885
 L 65.3131,-45.9464 L 65.073,-46.2366 L 64.8711,-46.5547 L 64.7107,-46.8956 L 64.5943,-47.2539 L 64.5237,-47.624
 L 64.5,-48 L 64.5237,-48.376 L 64.5943,-48.7461 L 64.7107,-49.1044 L 64.8711,-49.4453 L 65.073,-49.7634
 L 65.3131,-50.0536 L 65.5877,-50.3115 L 65.8925,-50.533 L 66.2227,-50.7145 L 66.573,-50.8532 L 66.9379,-50.9469
 L 67.3116,-50.9941 L 67.6884,-50.9941 L 68.0621,-50.9469 L 68.427,-50.8532 L 68.7773,-50.7145 L 69.1075,-50.533
 L 69.4123,-50.3115 L 69.6869,-50.0536 L 69.927,-49.7634 L 70.1289,-49.4453 L 70.2893,-49.1044 L 70.4057,-48.7461
 L 70.4763,-48.376 L 70.5,-48 L 70.4763,-47.624 L 70.4057,-47.2539 L 70.2893,-46.8956 L 70.1289,-46.5547
 L 69.927,-46.2366 L 69.6869,-45.9464 L 69.4123,-45.6885 L 69.1075,-45.467 L 68.7773,-45.2855 L 68.427,-45.1468
 L 68.0621,-45.0531 L 67.6884,-45.0059 z
M -37.6884,-45.0059 L -38.0621,-45.0531 L -38.427,-45.1468 L -38.7773,-45.2855 L -39.1075,-45.467 L -39.4123,-45.6885
 L -39.6869,-45.9464 L -39.927,-46.2366 L -40.1289,-46.5547 L -40.2893,-46.8956 L -40.4057,-47.2539 L -40.4763,-47.624
 L -40.5,-48 L -40.4763,-48.376 L -40.4057,-48.7461 L -40.2893,-49.1044 L -40.1289,-49.4453 L -39.927,-49.7634
 L -39.6869,-50.0536 L -39.4123,-50.3115 L -39.1075,-50.533 L -38.7773,-50.7145 L -38.427,-50.8532 L -38.0621,-50.9469
 L -37.6884,-50.9941 L -37.3116,-50.9941 L -36.9379,-50.9469 L -36.5729,-50.8532 L -36.2227,-50.7145 L -35.8925,-50.533
 L -35.5877,-50.3115 L -35.3131,-50.0536 L -35.0729,-49.7634 L -34.8711,-49.4453 L -34.7107,-49.1044 L -34.5942,-48.7461
 L -34.5237,-48.376 L -34.5,-48 L -34.5237,-47.624 L -34.5942,-47.2539 L -34.7107,-46.8956 L -34.8711,-46.5547
 L -35.0729,-46.2366 L -35.3131,-45.9464 L -35.5877,-45.6885 L -35.8925,-45.467 L -36.2227,-45.2855 L -36.5729,-45.1468
 L -36.9379,-45.0531 L -37.3116,-45.0059 z
M -52.6884,-45.0059 L -53.0621,-45.0531 L -53.427,-45.1468 L -53.7773,-45.2855 L -54.1075,-45.467 L -54.4123,-45.6885
 L -54.6869,-45.9464 L -54.927,-46.2366 L -55.1289,-46.5547 L -55.2893,-46.8956 L -55.4057,-47.2539 L -55.4763,-47.624
 L -55.5,-48 L -55.4763,-48.376 L -55.4057,-48.7461 L -55.2893,-49.1044 L -55.1289,-49.4453 L -54.927,-49.7634
 L -54.6869,-50.0536 L -54.4123,-50.3115 L -54.1075,-50.533 L -53.7773,-50.7145 L -53.427,-50.8532 L -53.0621,-50.9469
 L -52.6884,-50.9941 L -52.3116,-50.9941 L -51.9379,-50.9469 L -51.5729,-50.8532 L -51.2227,-50.7145 L -50.8925,-50.533
 L -50.5877,-50.3115 L -50.3131,-50.0536 L -50.0729,-49.7634 L -49.8711,-49.4453 L -49.7107,-49.1044 L -49.5942,-48.7461
 L -49.5237,-48.376 L -49.5,-48 L -49.5237,-47.624 L -49.5942,-47.2539 L -49.7107,-46.8956 L -49.8711,-46.5547
 L -50.0729,-46.2366 L -50.3131,-45.9464 L -50.5877,-45.6885 L -50.8925,-45.467 L -51.2227,-45.2855 L -51.5729,-45.1468
 L -51.9379,-45.0531 L -52.3116,-45.0059 z
M 52.3116,-45.0059 L 51.9379,-45.0531 L 51.5729,-45.1468 L 51.2227,-45.2855 L 50.8925,-45.467 L 50.5877,-45.6885
 L 50.3131,-45.9464 L 50.0729,-46.2366 L 49.8711,-46.5547 L 49.7107,-46.8956 L 49.5942,-47.2539 L 49.5237,-47.624
 L 49.5,-48 L 49.5237,-48.376 L 49.5942,-48.7461 L 49.7107,-49.1044 L 49.8711,-49.4453 L 50.0729,-49.7634
 L 50.3131,-50.0536 L 50.5877,-50.3115 L 50.8925,-50.533 L 51.2227,-50.7145 L 51.5729,-50.8532 L 51.9379,-50.9469
 L 52.3116,-50.9941 L 52.6884,-50.9941 L 53.0621,-50.9469 L 53.427,-50.8532 L 53.7773,-50.7145 L 54.1075,-50.533
 L 54.4123,-50.3115 L 54.6869,-50.0536 L 54.927,-49.7634 L 55.1289,-49.4453 L 55.2893,-49.1044 L 55.4057,-48.7461
 L 55.4763,-48.376 L 55.5,-48 L 55.4763,-47.624 L 55.4057,-47.2539 L 55.2893,-46.8956 L 55.1289,-46.5547
 L 54.927,-46.2366 L 54.6869,-45.9464 L 54.4123,-45.6885 L 54.1075,-45.467 L 53.7773,-45.2855 L 53.427,-45.1468
 L 53.0621,-45.0531 L 52.6884,-45.0059 z
M -22.6884,-45.0059 L -23.0621,-45.0531 L -23.427,-45.1468 L -23.7773,-45.2855 L -24.1075,-45.467 L -24.4123,-45.6885
 L -24.6869,-45.9464 L -24.927,-46.2366 L -25.1289,-46.5547 L -25.2893,-46.8956 L -25.4057,-47.2539 L -25.4763,-47.624
 L -25.5,-48 L -25.4763,-48.376 L -25.4057,-48.7461 L -25.2893,-49.1044 L -25.1289,-49.4453 L -24.927,-49.7634
 L -24.6869,-50.0536 L -24.4123,-50.3115 L -24.1075,-50.533 L -23.7773,-50.7145 L -23.427,-50.8532 L -23.0621,-50.9469
 L -22.6884,-50.9941 L -22.3116,-50.9941 L -21.9379,-50.9469 L -21.5729,-50.8532 L -21.2227,-50.7145 L -20.8925,-50.533
 L -20.5877,-50.3115 L -20.3131,-50.0536 L -20.0729,-49.7634 L -19.8711,-49.4453 L -19.7107,-49.1044 L -19.5942,-48.7461
 L -19.5237,-48.376 L -19.5,-48 L -19.5237,-47.624 L -19.5942,-47.2539 L -19.7107,-46.8956 L -19.8711,-46.5547
 L -20.0729,-46.2366 L -20.3131,-45.9464 L -20.5877,-45.6885 L -20.8925,-45.467 L -21.2227,-45.2855 L -21.5729,-45.1468
 L -21.9379,-45.0531 L -22.3116,-45.0059 z
M 22.3116,-45.0059 L 21.9379,-45.0531 L 21.5729,-45.1468 L 21.2227,-45.2855 L 20.8925,-45.467 L 20.5877,-45.6885
 L 20.3131,-45.9464 L 20.0729,-46.2366 L 19.8711,-46.5547 L 19.7107,-46.8956 L 19.5942,-47.2539 L 19.5237,-47.624
 L 19.5,-48 L 19.5237,-48.376 L 19.5942,-48.7461 L 19.7107,-49.1044 L 19.8711,-49.4453 L 20.0729,-49.7634
 L 20.3131,-50.0536 L 20.5877,-50.3115 L 20.8925,-50.533 L 21.2227,-50.7145 L 21.5729,-50.8532 L 21.9379,-50.9469
 L 22.3116,-50.9941 L 22.6884,-50.9941 L 23.0621,-50.9469 L 23.427,-50.8532 L 23.7773,-50.7145 L 24.1075,-50.533
 L 24.4123,-50.3115 L 24.6869,-50.0536 L 24.927,-49.7634 L 25.1289,-49.4453 L 25.2893,-49.1044 L 25.4057,-48.7461
 L 25.4763,-48.376 L 25.5,-48 L 25.4763,-47.624 L 25.4057,-47.2539 L 25.2893,-46.8956 L 25.1289,-46.5547
 L 24.927,-46.2366 L 24.6869,-45.9464 L 24.4123,-45.6885 L 24.1075,-45.467 L 23.7773,-45.2855 L 23.427,-45.1468
 L 23.0621,-45.0531 L 22.6884,-45.0059 z
M -112.688,-45.0059 L -113.062,-45.0531 L -113.427,-45.1468 L -113.777,-45.2855 L -114.107,-45.467 L -114.412,-45.6885
 L -114.687,-45.9464 L -114.927,-46.2366 L -115.129,-46.5547 L -115.289,-46.8956 L -115.406,-47.2539 L -115.476,-47.624
 L -115.5,-48 L -115.476,-48.376 L -115.406,-48.7461 L -115.289,-49.1044 L -115.129,-49.4453 L -114.927,-49.7634
 L -114.687,-50.0536 L -114.412,-50.3115 L -114.107,-50.533 L -113.777,-50.7145 L -113.427,-50.8532 L -113.062,-50.9469
 L -112.688,-50.9941 L -112.312,-50.9941 L -111.938,-50.9469 L -111.573,-50.8532 L -111.223,-50.7145 L -110.893,-50.533
 L -110.588,-50.3115 L -110.313,-50.0536 L -110.073,-49.7634 L -109.871,-49.4453 L -109.711,-49.1044 L -109.594,-48.7461
 L -109.524,-48.376 L -109.5,-48 L -109.524,-47.624 L -109.594,-47.2539 L -109.711,-46.8956 L -109.871,-46.5547
 L -110.073,-46.2366 L -110.313,-45.9464 L -110.588,-45.6885 L -110.893,-45.467 L -111.223,-45.2855 L -111.573,-45.1468
 L -111.938,-45.0531 L -112.312,-45.0059 z
M -7.68837,-45.0059 L -8.06213,-45.0531 L -8.42705,-45.1468 L -8.77733,-45.2855 L -9.10747,-45.467 L -9.41226,-45.6885
 L -9.6869,-45.9464 L -9.92705,-46.2366 L -10.1289,-46.5547 L -10.2893,-46.8956 L -10.4057,-47.2539 L -10.4763,-47.624
 L -10.5,-48 L -10.4763,-48.376 L -10.4057,-48.7461 L -10.2893,-49.1044 L -10.1289,-49.4453 L -9.92705,-49.7634
 L -9.6869,-50.0536 L -9.41226,-50.3115 L -9.10747,-50.533 L -8.77733,-50.7145 L -8.42705,-50.8532 L -8.06213,-50.9469
 L -7.68837,-50.9941 L -7.31161,-50.9941 L -6.93785,-50.9469 L -6.57294,-50.8532 L -6.22266,-50.7145 L -5.89252,-50.533
 L -5.58772,-50.3115 L -5.31308,-50.0536 L -5.07294,-49.7634 L -4.87108,-49.4453 L -4.71066,-49.1044 L -4.59424,-48.7461
 L -4.52365,-48.376 L -4.5,-48 L -4.52365,-47.624 L -4.59424,-47.2539 L -4.71066,-46.8956 L -4.87108,-46.5547
 L -5.07294,-46.2366 L -5.31308,-45.9464 L -5.58772,-45.6885 L -5.89252,-45.467 L -6.22266,-45.2855 L -6.57294,-45.1468
 L -6.93785,-45.0531 L -7.31161,-45.0059 z
M 97.3116,-45.0059 L 96.9379,-45.0531 L 96.573,-45.1468 L 96.2227,-45.2855 L 95.8925,-45.467 L 95.5877,-45.6885
 L 95.3131,-45.9464 L 95.073,-46.2366 L 94.8711,-46.5547 L 94.7107,-46.8956 L 94.5943,-47.2539 L 94.5237,-47.624
 L 94.5,-48 L 94.5237,-48.376 L 94.5943,-48.7461 L 94.7107,-49.1044 L 94.8711,-49.4453 L 95.073,-49.7634
 L 95.3131,-50.0536 L 95.5877,-50.3115 L 95.8925,-50.533 L 96.2227,-50.7145 L 96.573,-50.8532 L 96.9379,-50.9469
 L 97.3116,-50.9941 L 97.6884,-50.9941 L 98.0621,-50.9469 L 98.427,-50.8532 L 98.7773,-50.7145 L 99.1075,-50.533
 L 99.4123,-50.3115 L 99.6869,-50.0536 L 99.927,-49.7634 L 100.129,-49.4453 L 100.289,-49.1044 L 100.406,-48.7461
 L 100.476,-48.376 L 100.5,-48 L 100.476,-47.624 L 100.406,-47.2539 L 100.289,-46.8956 L 100.129,-46.5547
 L 99.927,-46.2366 L 99.6869,-45.9464 L 99.4123,-45.6885 L 99.1075,-45.467 L 98.7773,-45.2855 L 98.427,-45.1468
 L 98.0621,-45.0531 L 97.6884,-45.0059 z
M 112.312,-45.0059 L 111.938,-45.0531 L 111.573,-45.1468 L 111.223,-45.2855 L 110.893,-45.467 L 110.588,-45.6885
 L 110.313,-45.9464 L 110.073,-46.2366 L 109.871,-46.5547 L 109.711,-46.8956 L 109.594,-47.2539 L 109.524,-47.624
 L 109.5,-48 L 109.524,-48.376 L 109.594,-48.7461 L 109.711,-49.1044 L 109.871,-49.4453 L 110.073,-49.7634
 L 110.313,-50.0536 L 110.588,-50.3115 L 110.893,-50.533 L 111.223,-50.7145 L 111.573,-50.8532 L 111.938,-50.9469
 L 112.312,-50.9941 L 112.688,-50.9941 L 113.062,-50.9469 L 113.427,-50.8532 L 113.777,-50.7145 L 114.107,-50.533
 L 114.412,-50.3115 L 114.687,-50.0536 L 114.927,-49.7634 L 115.129,-49.4453 L 115.289,-49.1044 L 115.406,-48.7461
 L 115.476,-48.376 L 115.5,-48 L 115.476,-47.624 L 115.406,-47.2539 L 115.289,-46.8956 L 115.129,-46.5547
 L 114.927,-46.2366 L 114.687,-45.9464 L 114.412,-45.6885 L 114.107,-45.467 L 113.777,-45.2855 L 113.427,-45.1468
 L 113.062,-45.0531 L 112.688,-45.0059 z
M -97.6884,-45.0059 L -98.0621,-45.0531 L -98.427,-45.1468 L -98.7773,-45.2855 L -99.1075,-45.467 L -99.4123,-45.6885
 L -99.6869,-45.9464 L -99.927,-46.2366 L -100.129,-46.5547 L -100.289,-46.8956 L -100.406,-47.2539 L -100.476,-47.624
 L -100.5,-48 L -100.476,-48.376 L -100.406,-48.7461 L -100.289,-49.1044 L -100.129,-49.4453 L -99.927,-49.7634
 L -99.6869,-50.0536 L -99.4123,-50.3115 L -99.1075,-50.533 L -98.7773,-50.7145 L -98.427,-50.8532 L -98.0621,-50.9469
 L -97.6884,-50.9941 L -97.3116,-50.9941 L -96.9379,-50.9469 L -96.573,-50.8532 L -96.2227,-50.7145 L -95.8925,-50.533
 L -95.5877,-50.3115 L -95.3131,-50.0536 L -95.073,-49.7634 L -94.8711,-49.4453 L -94.7107,-49.1044 L -94.5943,-48.7461
 L -94.5237,-48.376 L -94.5,-48 L -94.5237,-47.624 L -94.5943,-47.2539 L -94.7107,-46.8956 L -94.8711,-46.5547
 L -95.073,-46.2366 L -95.3131,-45.9464 L -95.5877,-45.6885 L -95.8925,-45.467 L -96.2227,-45.2855 L -96.573,-45.1468
 L -96.9379,-45.0531 L -97.3116,-45.0059 z
M 82.3116,-45.0059 L 81.9379,-45.0531 L 81.573,-45.1468 L 81.2227,-45.2855 L 80.8925,-45.467 L 80.5877,-45.6885
 L 80.3131,-45.9464 L 80.073,-46.2366 L 79.8711,-46.5547 L 79.7107,-46.8956 L 79.5943,-47.2539 L 79.5237,-47.624
 L 79.5,-48 L 79.5237,-48.376 L 79.5943,-48.7461 L 79.7107,-49.1044 L 79.8711,-49.4453 L 80.073,-49.7634
 L 80.3131,-50.0536 L 80.5877,-50.3115 L 80.8925,-50.533 L 81.2227,-50.7145 L 81.573,-50.8532 L 81.9379,-50.9469
 L 82.3116,-50.9941 L 82.6884,-50.9941 L 83.0621,-50.9469 L 83.427,-50.8532 L 83.7773,-50.7145 L 84.1075,-50.533
 L 84.4123,-50.3115 L 84.6869,-50.0536 L 84.927,-49.7634 L 85.1289,-49.4453 L 85.2893,-49.1044 L 85.4057,-48.7461
 L 85.4763,-48.376 L 85.5,-48 L 85.4763,-47.624 L 85.4057,-47.2539 L 85.2893,-46.8956 L 85.1289,-46.5547
 L 84.927,-46.2366 L 84.6869,-45.9464 L 84.4123,-45.6885 L 84.1075,-45.467 L 83.7773,-45.2855 L 83.427,-45.1468
 L 83.0621,-45.0531 L 82.6884,-45.0059 z
M -82.6884,-45.0059 L -83.0621,-45.0531 L -83.427,-45.1468 L -83.7773,-45.2855 L -84.1075,-45.467 L -84.4123,-45.6885
 L -84.6869,-45.9464 L -84.927,-46.2366 L -85.1289,-46.5547 L -85.2893,-46.8956 L -85.4057,-47.2539 L -85.4763,-47.624
 L -85.5,-48 L -85.4763,-48.376 L -85.4057,-48.7461 L -85.2893,-49.1044 L -85.1289,-49.4453 L -84.927,-49.7634
 L -84.6869,-50.0536 L -84.4123,-50.3115 L -84.1075,-50.533 L -83.7773,-50.7145 L -83.427,-50.8532 L -83.0621,-50.9469
 L -82.6884,-50.9941 L -82.3116,-50.9941 L -81.9379,-50.9469 L -81.573,-50.8532 L -81.2227,-50.7145 L -80.8925,-50.533
 L -80.5877,-50.3115 L -80.3131,-50.0536 L -80.073,-49.7634 L -79.8711,-49.4453 L -79.7107,-49.1044 L -79.5943,-48.7461
 L -79.5237,-48.376 L -79.5,-48 L -79.5237,-47.624 L -79.5943,-47.2539 L -79.7107,-46.8956 L -79.8711,-46.5547
 L -80.073,-46.2366 L -80.3131,-45.9464 L -80.5877,-45.6885 L -80.8925,-45.467 L -81.2227,-45.2855 L -81.573,-45.1468
 L -81.9379,-45.0531 L -82.3116,-45.0059 z
M -67.6884,-45.0059 L -68.0621,-45.0531 L -68.427,-45.1468 L -68.7773,-45.2855 L -69.1075,-45.467 L -69.4123,-45.6885
 L -69.6869,-45.9464 L -69.927,-46.2366 L -70.1289,-46.5547 L -70.2893,-46.8956 L -70.4057,-47.2539 L -70.4763,-47.624
 L -70.5,-48 L -70.4763,-48.376 L -70.4057,-48.7461 L -70.2893,-49.1044 L -70.1289,-49.4453 L -69.927,-49.7634
 L -69.6869,-50.0536 L -69.4123,-50.3115 L -69.1075,-50.533 L -68.7773,-50.7145 L -68.427,-50.8532 L -68.0621,-50.9469
 L -67.6884,-50.9941 L -67.3116,-50.9941 L -66.9379,-50.9469 L -66.573,-50.8532 L -66.2227,-50.7145 L -65.8925,-50.533
 L -65.5877,-50.3115 L -65.3131,-50.0536 L -65.073,-49.7634 L -64.8711,-49.4453 L -64.7107,-49.1044 L -64.5943,-48.7461
 L -64.5237,-48.376 L -64.5,-48 L -64.5237,-47.624 L -64.5943,-47.2539 L -64.7107,-46.8956 L -64.8711,-46.5547
 L -65.073,-46.2366 L -65.3131,-45.9464 L -65.5877,-45.6885 L -65.8925,-45.467 L -66.2227,-45.2855 L -66.573,-45.1468
 L -66.9379,-45.0531 L -67.3116,-45.0059 z
M 37.3116,-45.0059 L 36.9379,-45.0531 L 36.5729,-45.1468 L 36.2227,-45.2855 L 35.8925,-45.467 L 35.5877,-45.6885
 L 35.3131,-45.9464 L 35.0729,-46.2366 L 34.8711,-46.5547 L 34.7107,-46.8956 L 34.5942,-47.2539 L 34.5237,-47.624
 L 34.5,-48 L 34.5237,-48.376 L 34.5942,-48.7461 L 34.7107,-49.1044 L 34.8711,-49.4453 L 35.0729,-49.7634
 L 35.3131,-50.0536 L 35.5877,-50.3115 L 35.8925,-50.533 L 36.2227,-50.7145 L 36.5729,-50.8532 L 36.9379,-50.9469
 L 37.3116,-50.9941 L 37.6884,-50.9941 L 38.0621,-50.9469 L 38.427,-50.8532 L 38.7773,-50.7145 L 39.1075,-50.533
 L 39.4123,-50.3115 L 39.6869,-50.0536 L 39.927,-49.7634 L 40.1289,-49.4453 L 40.2893,-49.1044 L 40.4057,-48.7461
 L 40.4763,-48.376 L 40.5,-48 L 40.4763,-47.624 L 40.4057,-47.2539 L 40.2893,-46.8956 L 40.1289,-46.5547
 L 39.927,-46.2366 L 39.6869,-45.9464 L 39.4123,-45.6885 L 39.1075,-45.467 L 38.7773,-45.2855 L 38.427,-45.1468
 L 38.0621,-45.0531 L 37.6884,-45.0059 z
" stroke="black" fill="lightgray" stroke-width="0.5"/>
</svg>
