  0
SECTION
  2
BLOCKS
  0
ENDSEC
  0
SECTION
  2
ENTITIES
  0
LINE
  8
0
 10
85.4369
 20
-6.91142
 11
86.0451
 21
-6.75528
  0
LINE
  8
0
 10
86.0451
 20
-6.75528
 11
86.6289
 21
-6.52412
  0
LINE
  8
0
 10
86.6289
 20
-6.52412
 11
87.1791
 21
-6.22163
  0
LINE
  8
0
 10
87.1791
 20
-6.22163
 11
87.6871
 21
-5.85255
  0
LINE
  8
0
 10
87.6871
 20
-5.85255
 11
88.1448
 21
-5.42273
  0
LINE
  8
0
 10
88.1448
 20
-5.42273
 11
88.5451
 21
-4.93892
  0
LINE
  8
0
 10
88.5451
 20
-4.93892
 11
88.8815
 21
-4.40877
  0
LINE
  8
0
 10
88.8815
 20
-4.40877
 11
89.1489
 21
-3.84062
  0
LINE
  8
0
 10
89.1489
 20
-3.84062
 11
89.3429
 21
-3.24344
  0
LINE
  8
0
 10
89.3429
 20
-3.24344
 11
89.4606
 21
-2.62666
  0
LINE
  8
0
 10
89.4606
 20
-2.62666
 11
89.5
 21
-2
  0
LINE
  8
0
 10
89.5
 20
-2
 11
89.5
 21
2
  0
LINE
  8
0
 10
89.5
 20
2
 11
89.4606
 21
2.62666
  0
LINE
  8
0
 10
89.4606
 20
2.62666
 11
89.3429
 21
3.24344
  0
LINE
  8
0
 10
89.3429
 20
3.24344
 11
89.1489
 21
3.84062
  0
LINE
  8
0
 10
89.1489
 20
3.84062
 11
88.8815
 21
4.40877
  0
LINE
  8
0
 10
88.8815
 20
4.40877
 11
88.5451
 21
4.93892
  0
LINE
  8
0
 10
88.5451
 20
4.93892
 11
88.1448
 21
5.42273
  0
LINE
  8
0
 10
88.1448
 20
5.42273
 11
87.6871
 21
5.85255
  0
LINE
  8
0
 10
87.6871
 20
5.85255
 11
87.1791
 21
6.22163
  0
LINE
  8
0
 10
87.1791
 20
6.22163
 11
86.6289
 21
6.52412
  0
LINE
  8
0
 10
86.6289
 20
6.52412
 11
86.0451
 21
6.75528
  0
LINE
  8
0
 10
86.0451
 20
6.75528
 11
85.4369
 21
6.91142
  0
LINE
  8
0
 10
85.4369
 20
6.91142
 11
84.8139
 21
6.99013
  0
LINE
  8
0
 10
84.8139
 20
6.99013
 11
-84.8139
 21
6.99013
  0
LINE
  8
0
 10
-84.8139
 20
6.99013
 11
-85.4369
 21
6.91142
  0
LINE
  8
0
 10
-85.4369
 20
6.91142
 11
-86.0451
 21
6.75528
  0
LINE
  8
0
 10
-86.0451
 20
6.75528
 11
-86.6289
 21
6.52412
  0
LINE
  8
0
 10
-86.6289
 20
6.52412
 11
-87.1791
 21
6.22163
  0
LINE
  8
0
 10
-87.1791
 20
6.22163
 11
-87.6871
 21
5.85255
  0
LINE
  8
0
 10
-87.6871
 20
5.85255
 11
-88.1448
 21
5.42273
  0
LINE
  8
0
 10
-88.1448
 20
5.42273
 11
-88.5451
 21
4.93892
  0
LINE
  8
0
 10
-88.5451
 20
4.93892
 11
-88.8815
 21
4.40877
  0
LINE
  8
0
 10
-88.8815
 20
4.40877
 11
-89.1489
 21
3.84062
  0
LINE
  8
0
 10
-89.1489
 20
3.84062
 11
-89.3429
 21
3.24344
  0
LINE
  8
0
 10
-89.3429
 20
3.24344
 11
-89.4606
 21
2.62666
  0
LINE
  8
0
 10
-89.4606
 20
2.62666
 11
-89.5
 21
2
  0
LINE
  8
0
 10
-89.5
 20
2
 11
-89.5
 21
-2
  0
LINE
  8
0
 10
-89.5
 20
-2
 11
-89.4606
 21
-2.62666
  0
LINE
  8
0
 10
-89.4606
 20
-2.62666
 11
-89.3429
 21
-3.24344
  0
LINE
  8
0
 10
-89.3429
 20
-3.24344
 11
-89.1489
 21
-3.84062
  0
LINE
  8
0
 10
-89.1489
 20
-3.84062
 11
-88.8815
 21
-4.40877
  0
LINE
  8
0
 10
-88.8815
 20
-4.40877
 11
-88.5451
 21
-4.93892
  0
LINE
  8
0
 10
-88.5451
 20
-4.93892
 11
-88.1448
 21
-5.42273
  0
LINE
  8
0
 10
-88.1448
 20
-5.42273
 11
-87.6871
 21
-5.85255
  0
LINE
  8
0
 10
-87.6871
 20
-5.85255
 11
-87.1791
 21
-6.22163
  0
LINE
  8
0
 10
-87.1791
 20
-6.22163
 11
-86.6289
 21
-6.52412
  0
LINE
  8
0
 10
-86.6289
 20
-6.52412
 11
-86.0451
 21
-6.75528
  0
LINE
  8
0
 10
-86.0451
 20
-6.75528
 11
-85.4369
 21
-6.91142
  0
LINE
  8
0
 10
-85.4369
 20
-6.91142
 11
-84.8139
 21
-6.99013
  0
LINE
  8
0
 10
-84.8139
 20
-6.99013
 11
84.8139
 21
-6.99013
  0
LINE
  8
0
 10
84.8139
 20
-6.99013
 11
85.4369
 21
-6.91142
  0
LINE
  8
0
 10
-82.6884
 20
-2.99408
 11
-83.0621
 21
-2.94685
  0
LINE
  8
0
 10
-83.0621
 20
-2.94685
 11
-83.427
 21
-2.85316
  0
LINE
  8
0
 10
-83.427
 20
-2.85316
 11
-83.7773
 21
-2.71448
  0
LINE
  8
0
 10
-83.7773
 20
-2.71448
 11
-84.1075
 21
-2.53297
  0
LINE
  8
0
 10
-84.1075
 20
-2.53297
 11
-84.4123
 21
-2.31154
  0
LINE
  8
0
 10
-84.4123
 20
-2.31154
 11
-84.6869
 21
-2.05363
  0
LINE
  8
0
 10
-84.6869
 20
-2.05363
 11
-84.927
 21
-1.76335
  0
LINE
  8
0
 10
-84.927
 20
-1.76335
 11
-85.1289
 21
-1.44525
  0
LINE
  8
0
 10
-85.1289
 20
-1.44525
 11
-85.2893
 21
-1.10437
  0
LINE
  8
0
 10
-85.2893
 20
-1.10437
 11
-85.4057
 21
-0.746063
  0
LINE
  8
0
 10
-85.4057
 20
-0.746063
 11
-85.4763
 21
-0.375992
  0
LINE
  8
0
 10
-85.4763
 20
-0.375992
 11
-85.5
 21
0
  0
LINE
  8
0
 10
-85.5
 20
0
 11
-85.4763
 21
0.375992
  0
LINE
  8
0
 10
-85.4763
 20
0.375992
 11
-85.4057
 21
0.746063
  0
LINE
  8
0
 10
-85.4057
 20
0.746063
 11
-85.2893
 21
1.10437
  0
LINE
  8
0
 10
-85.2893
 20
1.10437
 11
-85.1289
 21
1.44525
  0
LINE
  8
0
 10
-85.1289
 20
1.44525
 11
-84.927
 21
1.76335
  0
LINE
  8
0
 10
-84.927
 20
1.76335
 11
-84.6869
 21
2.05363
  0
LINE
  8
0
 10
-84.6869
 20
2.05363
 11
-84.4123
 21
2.31154
  0
LINE
  8
0
 10
-84.4123
 20
2.31154
 11
-84.1075
 21
2.53297
  0
LINE
  8
0
 10
-84.1075
 20
2.53297
 11
-83.7773
 21
2.71448
  0
LINE
  8
0
 10
-83.7773
 20
2.71448
 11
-83.427
 21
2.85316
  0
LINE
  8
0
 10
-83.427
 20
2.85316
 11
-83.0621
 21
2.94685
  0
LINE
  8
0
 10
-83.0621
 20
2.94685
 11
-82.6884
 21
2.99408
  0
LINE
  8
0
 10
-82.6884
 20
2.99408
 11
-82.3116
 21
2.99408
  0
LINE
  8
0
 10
-82.3116
 20
2.99408
 11
-81.9379
 21
2.94685
  0
LINE
  8
0
 10
-81.9379
 20
2.94685
 11
-81.573
 21
2.85316
  0
LINE
  8
0
 10
-81.573
 20
2.85316
 11
-81.2227
 21
2.71448
  0
LINE
  8
0
 10
-81.2227
 20
2.71448
 11
-80.8925
 21
2.53297
  0
LINE
  8
0
 10
-80.8925
 20
2.53297
 11
-80.5877
 21
2.31154
  0
LINE
  8
0
 10
-80.5877
 20
2.31154
 11
-80.3131
 21
2.05363
  0
LINE
  8
0
 10
-80.3131
 20
2.05363
 11
-80.073
 21
1.76335
  0
LINE
  8
0
 10
-80.073
 20
1.76335
 11
-79.8711
 21
1.44525
  0
LINE
  8
0
 10
-79.8711
 20
1.44525
 11
-79.7107
 21
1.10437
  0
LINE
  8
0
 10
-79.7107
 20
1.10437
 11
-79.5943
 21
0.746063
  0
LINE
  8
0
 10
-79.5943
 20
0.746063
 11
-79.5237
 21
0.375992
  0
LINE
  8
0
 10
-79.5237
 20
0.375992
 11
-79.5
 21
0
  0
LINE
  8
0
 10
-79.5
 20
0
 11
-79.5237
 21
-0.375992
  0
LINE
  8
0
 10
-79.5237
 20
-0.375992
 11
-79.5943
 21
-0.746063
  0
LINE
  8
0
 10
-79.5943
 20
-0.746063
 11
-79.7107
 21
-1.10437
  0
LINE
  8
0
 10
-79.7107
 20
-1.10437
 11
-79.8711
 21
-1.44525
  0
LINE
  8
0
 10
-79.8711
 20
-1.44525
 11
-80.073
 21
-1.76335
  0
LINE
  8
0
 10
-80.073
 20
-1.76335
 11
-80.3131
 21
-2.05363
  0
LINE
  8
0
 10
-80.3131
 20
-2.05363
 11
-80.5877
 21
-2.31154
  0
LINE
  8
0
 10
-80.5877
 20
-2.31154
 11
-80.8925
 21
-2.53297
  0
LINE
  8
0
 10
-80.8925
 20
-2.53297
 11
-81.2227
 21
-2.71448
  0
LINE
  8
0
 10
-81.2227
 20
-2.71448
 11
-81.573
 21
-2.85316
  0
LINE
  8
0
 10
-81.573
 20
-2.85316
 11
-81.9379
 21
-2.94685
  0
LINE
  8
0
 10
-81.9379
 20
-2.94685
 11
-82.3116
 21
-2.99408
  0
LINE
  8
0
 10
-82.3116
 20
-2.99408
 11
-82.6884
 21
-2.99408
  0
ENDSEC
  0
SECTION
  2
OBJECTS
  0
DICTIONARY
  0
ENDSEC
  0
EOF
