  0
SECTION
  2
BLOCKS
  0
ENDSEC
  0
SECTION
  2
ENTITIES
  0
LINE
  8
0
 10
92.9369
 20
-96.9114
 11
93.5451
 21
-96.7553
  0
LINE
  8
0
 10
93.5451
 20
-96.7553
 11
94.1289
 21
-96.5241
  0
LINE
  8
0
 10
94.1289
 20
-96.5241
 11
94.6791
 21
-96.2216
  0
LINE
  8
0
 10
94.6791
 20
-96.2216
 11
95.1871
 21
-95.8526
  0
LINE
  8
0
 10
95.1871
 20
-95.8526
 11
95.6448
 21
-95.4227
  0
LINE
  8
0
 10
95.6448
 20
-95.4227
 11
96.0451
 21
-94.9389
  0
LINE
  8
0
 10
96.0451
 20
-94.9389
 11
96.3815
 21
-94.4088
  0
LINE
  8
0
 10
96.3815
 20
-94.4088
 11
96.6489
 21
-93.8406
  0
LINE
  8
0
 10
96.6489
 20
-93.8406
 11
96.8429
 21
-93.2434
  0
LINE
  8
0
 10
96.8429
 20
-93.2434
 11
96.9606
 21
-92.6267
  0
LINE
  8
0
 10
96.9606
 20
-92.6267
 11
97
 21
-92
  0
LINE
  8
0
 10
97
 20
-92
 11
97
 21
92
  0
LINE
  8
0
 10
97
 20
92
 11
96.9606
 21
92.6267
  0
LINE
  8
0
 10
96.9606
 20
92.6267
 11
96.8429
 21
93.2434
  0
LINE
  8
0
 10
96.8429
 20
93.2434
 11
96.6489
 21
93.8406
  0
LINE
  8
0
 10
96.6489
 20
93.8406
 11
96.3815
 21
94.4088
  0
LINE
  8
0
 10
96.3815
 20
94.4088
 11
96.0451
 21
94.9389
  0
LINE
  8
0
 10
96.0451
 20
94.9389
 11
95.6448
 21
95.4227
  0
LINE
  8
0
 10
95.6448
 20
95.4227
 11
95.1871
 21
95.8526
  0
LINE
  8
0
 10
95.1871
 20
95.8526
 11
94.6791
 21
96.2216
  0
LINE
  8
0
 10
94.6791
 20
96.2216
 11
94.1289
 21
96.5241
  0
LINE
  8
0
 10
94.1289
 20
96.5241
 11
93.5451
 21
96.7553
  0
LINE
  8
0
 10
93.5451
 20
96.7553
 11
92.9369
 21
96.9114
  0
LINE
  8
0
 10
92.9369
 20
96.9114
 11
92.3139
 21
96.9901
  0
LINE
  8
0
 10
92.3139
 20
96.9901
 11
-92.3139
 21
96.9901
  0
LINE
  8
0
 10
-92.3139
 20
96.9901
 11
-92.9369
 21
96.9114
  0
LINE
  8
0
 10
-92.9369
 20
96.9114
 11
-93.5451
 21
96.7553
  0
LINE
  8
0
 10
-93.5451
 20
96.7553
 11
-94.1289
 21
96.5241
  0
LINE
  8
0
 10
-94.1289
 20
96.5241
 11
-94.6791
 21
96.2216
  0
LINE
  8
0
 10
-94.6791
 20
96.2216
 11
-95.1871
 21
95.8526
  0
LINE
  8
0
 10
-95.1871
 20
95.8526
 11
-95.6448
 21
95.4227
  0
LINE
  8
0
 10
-95.6448
 20
95.4227
 11
-96.0451
 21
94.9389
  0
LINE
  8
0
 10
-96.0451
 20
94.9389
 11
-96.3815
 21
94.4088
  0
LINE
  8
0
 10
-96.3815
 20
94.4088
 11
-96.6489
 21
93.8406
  0
LINE
  8
0
 10
-96.6489
 20
93.8406
 11
-96.8429
 21
93.2434
  0
LINE
  8
0
 10
-96.8429
 20
93.2434
 11
-96.9606
 21
92.6267
  0
LINE
  8
0
 10
-96.9606
 20
92.6267
 11
-97
 21
92
  0
LINE
  8
0
 10
-97
 20
92
 11
-97
 21
-92
  0
LINE
  8
0
 10
-97
 20
-92
 11
-96.9606
 21
-92.6267
  0
LINE
  8
0
 10
-96.9606
 20
-92.6267
 11
-96.8429
 21
-93.2434
  0
LINE
  8
0
 10
-96.8429
 20
-93.2434
 11
-96.6489
 21
-93.8406
  0
LINE
  8
0
 10
-96.6489
 20
-93.8406
 11
-96.3815
 21
-94.4088
  0
LINE
  8
0
 10
-96.3815
 20
-94.4088
 11
-96.0451
 21
-94.9389
  0
LINE
  8
0
 10
-96.0451
 20
-94.9389
 11
-95.6448
 21
-95.4227
  0
LINE
  8
0
 10
-95.6448
 20
-95.4227
 11
-95.1871
 21
-95.8526
  0
LINE
  8
0
 10
-95.1871
 20
-95.8526
 11
-94.6791
 21
-96.2216
  0
LINE
  8
0
 10
-94.6791
 20
-96.2216
 11
-94.1289
 21
-96.5241
  0
LINE
  8
0
 10
-94.1289
 20
-96.5241
 11
-93.5451
 21
-96.7553
  0
LINE
  8
0
 10
-93.5451
 20
-96.7553
 11
-92.9369
 21
-96.9114
  0
LINE
  8
0
 10
-92.9369
 20
-96.9114
 11
-92.3139
 21
-96.9901
  0
LINE
  8
0
 10
-92.3139
 20
-96.9901
 11
92.3139
 21
-96.9901
  0
LINE
  8
0
 10
92.3139
 20
-96.9901
 11
92.9369
 21
-96.9114
  0
LINE
  8
0
 10
89.8116
 20
87.0059
 11
89.4379
 21
87.0531
  0
LINE
  8
0
 10
89.4379
 20
87.0531
 11
89.073
 21
87.1468
  0
LINE
  8
0
 10
89.073
 20
87.1468
 11
88.7227
 21
87.2855
  0
LINE
  8
0
 10
88.7227
 20
87.2855
 11
88.3925
 21
87.467
  0
LINE
  8
0
 10
88.3925
 20
87.467
 11
88.0877
 21
87.6885
  0
LINE
  8
0
 10
88.0877
 20
87.6885
 11
87.8131
 21
87.9464
  0
LINE
  8
0
 10
87.8131
 20
87.9464
 11
87.573
 21
88.2366
  0
LINE
  8
0
 10
87.573
 20
88.2366
 11
87.3711
 21
88.5547
  0
LINE
  8
0
 10
87.3711
 20
88.5547
 11
87.2107
 21
88.8956
  0
LINE
  8
0
 10
87.2107
 20
88.8956
 11
87.0943
 21
89.2539
  0
LINE
  8
0
 10
87.0943
 20
89.2539
 11
87.0237
 21
89.624
  0
LINE
  8
0
 10
87.0237
 20
89.624
 11
87
 21
90
  0
LINE
  8
0
 10
87
 20
90
 11
87.0237
 21
90.376
  0
LINE
  8
0
 10
87.0237
 20
90.376
 11
87.0943
 21
90.7461
  0
LINE
  8
0
 10
87.0943
 20
90.7461
 11
87.2107
 21
91.1044
  0
LINE
  8
0
 10
87.2107
 20
91.1044
 11
87.3711
 21
91.4453
  0
LINE
  8
0
 10
87.3711
 20
91.4453
 11
87.573
 21
91.7634
  0
LINE
  8
0
 10
87.573
 20
91.7634
 11
87.8131
 21
92.0536
  0
LINE
  8
0
 10
87.8131
 20
92.0536
 11
88.0877
 21
92.3115
  0
LINE
  8
0
 10
88.0877
 20
92.3115
 11
88.3925
 21
92.533
  0
LINE
  8
0
 10
88.3925
 20
92.533
 11
88.7227
 21
92.7145
  0
LINE
  8
0
 10
88.7227
 20
92.7145
 11
89.073
 21
92.8532
  0
LINE
  8
0
 10
89.073
 20
92.8532
 11
89.4379
 21
92.9469
  0
LINE
  8
0
 10
89.4379
 20
92.9469
 11
89.8116
 21
92.9941
  0
LINE
  8
0
 10
89.8116
 20
92.9941
 11
90.1884
 21
92.9941
  0
LINE
  8
0
 10
90.1884
 20
92.9941
 11
90.5621
 21
92.9469
  0
LINE
  8
0
 10
90.5621
 20
92.9469
 11
90.927
 21
92.8532
  0
LINE
  8
0
 10
90.927
 20
92.8532
 11
91.2773
 21
92.7145
  0
LINE
  8
0
 10
91.2773
 20
92.7145
 11
91.6075
 21
92.533
  0
LINE
  8
0
 10
91.6075
 20
92.533
 11
91.9123
 21
92.3115
  0
LINE
  8
0
 10
91.9123
 20
92.3115
 11
92.1869
 21
92.0536
  0
LINE
  8
0
 10
92.1869
 20
92.0536
 11
92.427
 21
91.7634
  0
LINE
  8
0
 10
92.427
 20
91.7634
 11
92.6289
 21
91.4453
  0
LINE
  8
0
 10
92.6289
 20
91.4453
 11
92.7893
 21
91.1044
  0
LINE
  8
0
 10
92.7893
 20
91.1044
 11
92.9057
 21
90.7461
  0
LINE
  8
0
 10
92.9057
 20
90.7461
 11
92.9763
 21
90.376
  0
LINE
  8
0
 10
92.9763
 20
90.376
 11
93
 21
90
  0
LINE
  8
0
 10
93
 20
90
 11
92.9763
 21
89.624
  0
LINE
  8
0
 10
92.9763
 20
89.624
 11
92.9057
 21
89.2539
  0
LINE
  8
0
 10
92.9057
 20
89.2539
 11
92.7893
 21
88.8956
  0
LINE
  8
0
 10
92.7893
 20
88.8956
 11
92.6289
 21
88.5547
  0
LINE
  8
0
 10
92.6289
 20
88.5547
 11
92.427
 21
88.2366
  0
LINE
  8
0
 10
92.427
 20
88.2366
 11
92.1869
 21
87.9464
  0
LINE
  8
0
 10
92.1869
 20
87.9464
 11
91.9123
 21
87.6885
  0
LINE
  8
0
 10
91.9123
 20
87.6885
 11
91.6075
 21
87.467
  0
LINE
  8
0
 10
91.6075
 20
87.467
 11
91.2773
 21
87.2855
  0
LINE
  8
0
 10
91.2773
 20
87.2855
 11
90.927
 21
87.1468
  0
LINE
  8
0
 10
90.927
 20
87.1468
 11
90.5621
 21
87.0531
  0
LINE
  8
0
 10
90.5621
 20
87.0531
 11
90.1884
 21
87.0059
  0
LINE
  8
0
 10
90.1884
 20
87.0059
 11
89.8116
 21
87.0059
  0
LINE
  8
0
 10
-90.1884
 20
87.0059
 11
-90.5621
 21
87.0531
  0
LINE
  8
0
 10
-90.5621
 20
87.0531
 11
-90.927
 21
87.1468
  0
LINE
  8
0
 10
-90.927
 20
87.1468
 11
-91.2773
 21
87.2855
  0
LINE
  8
0
 10
-91.2773
 20
87.2855
 11
-91.6075
 21
87.467
  0
LINE
  8
0
 10
-91.6075
 20
87.467
 11
-91.9123
 21
87.6885
  0
LINE
  8
0
 10
-91.9123
 20
87.6885
 11
-92.1869
 21
87.9464
  0
LINE
  8
0
 10
-92.1869
 20
87.9464
 11
-92.427
 21
88.2366
  0
LINE
  8
0
 10
-92.427
 20
88.2366
 11
-92.6289
 21
88.5547
  0
LINE
  8
0
 10
-92.6289
 20
88.5547
 11
-92.7893
 21
88.8956
  0
LINE
  8
0
 10
-92.7893
 20
88.8956
 11
-92.9057
 21
89.2539
  0
LINE
  8
0
 10
-92.9057
 20
89.2539
 11
-92.9763
 21
89.624
  0
LINE
  8
0
 10
-92.9763
 20
89.624
 11
-93
 21
90
  0
LINE
  8
0
 10
-93
 20
90
 11
-92.9763
 21
90.376
  0
LINE
  8
0
 10
-92.9763
 20
90.376
 11
-92.9057
 21
90.7461
  0
LINE
  8
0
 10
-92.9057
 20
90.7461
 11
-92.7893
 21
91.1044
  0
LINE
  8
0
 10
-92.7893
 20
91.1044
 11
-92.6289
 21
91.4453
  0
LINE
  8
0
 10
-92.6289
 20
91.4453
 11
-92.427
 21
91.7634
  0
LINE
  8
0
 10
-92.427
 20
91.7634
 11
-92.1869
 21
92.0536
  0
LINE
  8
0
 10
-92.1869
 20
92.0536
 11
-91.9123
 21
92.3115
  0
LINE
  8
0
 10
-91.9123
 20
92.3115
 11
-91.6075
 21
92.533
  0
LINE
  8
0
 10
-91.6075
 20
92.533
 11
-91.2773
 21
92.7145
  0
LINE
  8
0
 10
-91.2773
 20
92.7145
 11
-90.927
 21
92.8532
  0
LINE
  8
0
 10
-90.927
 20
92.8532
 11
-90.5621
 21
92.9469
  0
LINE
  8
0
 10
-90.5621
 20
92.9469
 11
-90.1884
 21
92.9941
  0
LINE
  8
0
 10
-90.1884
 20
92.9941
 11
-89.8116
 21
92.9941
  0
LINE
  8
0
 10
-89.8116
 20
92.9941
 11
-89.4379
 21
92.9469
  0
LINE
  8
0
 10
-89.4379
 20
92.9469
 11
-89.073
 21
92.8532
  0
LINE
  8
0
 10
-89.073
 20
92.8532
 11
-88.7227
 21
92.7145
  0
LINE
  8
0
 10
-88.7227
 20
92.7145
 11
-88.3925
 21
92.533
  0
LINE
  8
0
 10
-88.3925
 20
92.533
 11
-88.0877
 21
92.3115
  0
LINE
  8
0
 10
-88.0877
 20
92.3115
 11
-87.8131
 21
92.0536
  0
LINE
  8
0
 10
-87.8131
 20
92.0536
 11
-87.573
 21
91.7634
  0
LINE
  8
0
 10
-87.573
 20
91.7634
 11
-87.3711
 21
91.4453
  0
LINE
  8
0
 10
-87.3711
 20
91.4453
 11
-87.2107
 21
91.1044
  0
LINE
  8
0
 10
-87.2107
 20
91.1044
 11
-87.0943
 21
90.7461
  0
LINE
  8
0
 10
-87.0943
 20
90.7461
 11
-87.0237
 21
90.376
  0
LINE
  8
0
 10
-87.0237
 20
90.376
 11
-87
 21
90
  0
LINE
  8
0
 10
-87
 20
90
 11
-87.0237
 21
89.624
  0
LINE
  8
0
 10
-87.0237
 20
89.624
 11
-87.0943
 21
89.2539
  0
LINE
  8
0
 10
-87.0943
 20
89.2539
 11
-87.2107
 21
88.8956
  0
LINE
  8
0
 10
-87.2107
 20
88.8956
 11
-87.3711
 21
88.5547
  0
LINE
  8
0
 10
-87.3711
 20
88.5547
 11
-87.573
 21
88.2366
  0
LINE
  8
0
 10
-87.573
 20
88.2366
 11
-87.8131
 21
87.9464
  0
LINE
  8
0
 10
-87.8131
 20
87.9464
 11
-88.0877
 21
87.6885
  0
LINE
  8
0
 10
-88.0877
 20
87.6885
 11
-88.3925
 21
87.467
  0
LINE
  8
0
 10
-88.3925
 20
87.467
 11
-88.7227
 21
87.2855
  0
LINE
  8
0
 10
-88.7227
 20
87.2855
 11
-89.073
 21
87.1468
  0
LINE
  8
0
 10
-89.073
 20
87.1468
 11
-89.4379
 21
87.0531
  0
LINE
  8
0
 10
-89.4379
 20
87.0531
 11
-89.8116
 21
87.0059
  0
LINE
  8
0
 10
-89.8116
 20
87.0059
 11
-90.1884
 21
87.0059
  0
LINE
  8
0
 10
89.8116
 20
-92.9941
 11
89.4379
 21
-92.9469
  0
LINE
  8
0
 10
89.4379
 20
-92.9469
 11
89.073
 21
-92.8532
  0
LINE
  8
0
 10
89.073
 20
-92.8532
 11
88.7227
 21
-92.7145
  0
LINE
  8
0
 10
88.7227
 20
-92.7145
 11
88.3925
 21
-92.533
  0
LINE
  8
0
 10
88.3925
 20
-92.533
 11
88.0877
 21
-92.3115
  0
LINE
  8
0
 10
88.0877
 20
-92.3115
 11
87.8131
 21
-92.0536
  0
LINE
  8
0
 10
87.8131
 20
-92.0536
 11
87.573
 21
-91.7634
  0
LINE
  8
0
 10
87.573
 20
-91.7634
 11
87.3711
 21
-91.4453
  0
LINE
  8
0
 10
87.3711
 20
-91.4453
 11
87.2107
 21
-91.1044
  0
LINE
  8
0
 10
87.2107
 20
-91.1044
 11
87.0943
 21
-90.7461
  0
LINE
  8
0
 10
87.0943
 20
-90.7461
 11
87.0237
 21
-90.376
  0
LINE
  8
0
 10
87.0237
 20
-90.376
 11
87
 21
-90
  0
LINE
  8
0
 10
87
 20
-90
 11
87.0237
 21
-89.624
  0
LINE
  8
0
 10
87.0237
 20
-89.624
 11
87.0943
 21
-89.2539
  0
LINE
  8
0
 10
87.0943
 20
-89.2539
 11
87.2107
 21
-88.8956
  0
LINE
  8
0
 10
87.2107
 20
-88.8956
 11
87.3711
 21
-88.5547
  0
LINE
  8
0
 10
87.3711
 20
-88.5547
 11
87.573
 21
-88.2366
  0
LINE
  8
0
 10
87.573
 20
-88.2366
 11
87.8131
 21
-87.9464
  0
LINE
  8
0
 10
87.8131
 20
-87.9464
 11
88.0877
 21
-87.6885
  0
LINE
  8
0
 10
88.0877
 20
-87.6885
 11
88.3925
 21
-87.467
  0
LINE
  8
0
 10
88.3925
 20
-87.467
 11
88.7227
 21
-87.2855
  0
LINE
  8
0
 10
88.7227
 20
-87.2855
 11
89.073
 21
-87.1468
  0
LINE
  8
0
 10
89.073
 20
-87.1468
 11
89.4379
 21
-87.0531
  0
LINE
  8
0
 10
89.4379
 20
-87.0531
 11
89.8116
 21
-87.0059
  0
LINE
  8
0
 10
89.8116
 20
-87.0059
 11
90.1884
 21
-87.0059
  0
LINE
  8
0
 10
90.1884
 20
-87.0059
 11
90.5621
 21
-87.0531
  0
LINE
  8
0
 10
90.5621
 20
-87.0531
 11
90.927
 21
-87.1468
  0
LINE
  8
0
 10
90.927
 20
-87.1468
 11
91.2773
 21
-87.2855
  0
LINE
  8
0
 10
91.2773
 20
-87.2855
 11
91.6075
 21
-87.467
  0
LINE
  8
0
 10
91.6075
 20
-87.467
 11
91.9123
 21
-87.6885
  0
LINE
  8
0
 10
91.9123
 20
-87.6885
 11
92.1869
 21
-87.9464
  0
LINE
  8
0
 10
92.1869
 20
-87.9464
 11
92.427
 21
-88.2366
  0
LINE
  8
0
 10
92.427
 20
-88.2366
 11
92.6289
 21
-88.5547
  0
LINE
  8
0
 10
92.6289
 20
-88.5547
 11
92.7893
 21
-88.8956
  0
LINE
  8
0
 10
92.7893
 20
-88.8956
 11
92.9057
 21
-89.2539
  0
LINE
  8
0
 10
92.9057
 20
-89.2539
 11
92.9763
 21
-89.624
  0
LINE
  8
0
 10
92.9763
 20
-89.624
 11
93
 21
-90
  0
LINE
  8
0
 10
93
 20
-90
 11
92.9763
 21
-90.376
  0
LINE
  8
0
 10
92.9763
 20
-90.376
 11
92.9057
 21
-90.7461
  0
LINE
  8
0
 10
92.9057
 20
-90.7461
 11
92.7893
 21
-91.1044
  0
LINE
  8
0
 10
92.7893
 20
-91.1044
 11
92.6289
 21
-91.4453
  0
LINE
  8
0
 10
92.6289
 20
-91.4453
 11
92.427
 21
-91.7634
  0
LINE
  8
0
 10
92.427
 20
-91.7634
 11
92.1869
 21
-92.0536
  0
LINE
  8
0
 10
92.1869
 20
-92.0536
 11
91.9123
 21
-92.3115
  0
LINE
  8
0
 10
91.9123
 20
-92.3115
 11
91.6075
 21
-92.533
  0
LINE
  8
0
 10
91.6075
 20
-92.533
 11
91.2773
 21
-92.7145
  0
LINE
  8
0
 10
91.2773
 20
-92.7145
 11
90.927
 21
-92.8532
  0
LINE
  8
0
 10
90.927
 20
-92.8532
 11
90.5621
 21
-92.9469
  0
LINE
  8
0
 10
90.5621
 20
-92.9469
 11
90.1884
 21
-92.9941
  0
LINE
  8
0
 10
90.1884
 20
-92.9941
 11
89.8116
 21
-92.9941
  0
LINE
  8
0
 10
-90.1884
 20
-92.9941
 11
-90.5621
 21
-92.9469
  0
LINE
  8
0
 10
-90.5621
 20
-92.9469
 11
-90.927
 21
-92.8532
  0
LINE
  8
0
 10
-90.927
 20
-92.8532
 11
-91.2773
 21
-92.7145
  0
LINE
  8
0
 10
-91.2773
 20
-92.7145
 11
-91.6075
 21
-92.533
  0
LINE
  8
0
 10
-91.6075
 20
-92.533
 11
-91.9123
 21
-92.3115
  0
LINE
  8
0
 10
-91.9123
 20
-92.3115
 11
-92.1869
 21
-92.0536
  0
LINE
  8
0
 10
-92.1869
 20
-92.0536
 11
-92.427
 21
-91.7634
  0
LINE
  8
0
 10
-92.427
 20
-91.7634
 11
-92.6289
 21
-91.4453
  0
LINE
  8
0
 10
-92.6289
 20
-91.4453
 11
-92.7893
 21
-91.1044
  0
LINE
  8
0
 10
-92.7893
 20
-91.1044
 11
-92.9057
 21
-90.7461
  0
LINE
  8
0
 10
-92.9057
 20
-90.7461
 11
-92.9763
 21
-90.376
  0
LINE
  8
0
 10
-92.9763
 20
-90.376
 11
-93
 21
-90
  0
LINE
  8
0
 10
-93
 20
-90
 11
-92.9763
 21
-89.624
  0
LINE
  8
0
 10
-92.9763
 20
-89.624
 11
-92.9057
 21
-89.2539
  0
LINE
  8
0
 10
-92.9057
 20
-89.2539
 11
-92.7893
 21
-88.8956
  0
LINE
  8
0
 10
-92.7893
 20
-88.8956
 11
-92.6289
 21
-88.5547
  0
LINE
  8
0
 10
-92.6289
 20
-88.5547
 11
-92.427
 21
-88.2366
  0
LINE
  8
0
 10
-92.427
 20
-88.2366
 11
-92.1869
 21
-87.9464
  0
LINE
  8
0
 10
-92.1869
 20
-87.9464
 11
-91.9123
 21
-87.6885
  0
LINE
  8
0
 10
-91.9123
 20
-87.6885
 11
-91.6075
 21
-87.467
  0
LINE
  8
0
 10
-91.6075
 20
-87.467
 11
-91.2773
 21
-87.2855
  0
LINE
  8
0
 10
-91.2773
 20
-87.2855
 11
-90.927
 21
-87.1468
  0
LINE
  8
0
 10
-90.927
 20
-87.1468
 11
-90.5621
 21
-87.0531
  0
LINE
  8
0
 10
-90.5621
 20
-87.0531
 11
-90.1884
 21
-87.0059
  0
LINE
  8
0
 10
-90.1884
 20
-87.0059
 11
-89.8116
 21
-87.0059
  0
LINE
  8
0
 10
-89.8116
 20
-87.0059
 11
-89.4379
 21
-87.0531
  0
LINE
  8
0
 10
-89.4379
 20
-87.0531
 11
-89.073
 21
-87.1468
  0
LINE
  8
0
 10
-89.073
 20
-87.1468
 11
-88.7227
 21
-87.2855
  0
LINE
  8
0
 10
-88.7227
 20
-87.2855
 11
-88.3925
 21
-87.467
  0
LINE
  8
0
 10
-88.3925
 20
-87.467
 11
-88.0877
 21
-87.6885
  0
LINE
  8
0
 10
-88.0877
 20
-87.6885
 11
-87.8131
 21
-87.9464
  0
LINE
  8
0
 10
-87.8131
 20
-87.9464
 11
-87.573
 21
-88.2366
  0
LINE
  8
0
 10
-87.573
 20
-88.2366
 11
-87.3711
 21
-88.5547
  0
LINE
  8
0
 10
-87.3711
 20
-88.5547
 11
-87.2107
 21
-88.8956
  0
LINE
  8
0
 10
-87.2107
 20
-88.8956
 11
-87.0943
 21
-89.2539
  0
LINE
  8
0
 10
-87.0943
 20
-89.2539
 11
-87.0237
 21
-89.624
  0
LINE
  8
0
 10
-87.0237
 20
-89.624
 11
-87
 21
-90
  0
LINE
  8
0
 10
-87
 20
-90
 11
-87.0237
 21
-90.376
  0
LINE
  8
0
 10
-87.0237
 20
-90.376
 11
-87.0943
 21
-90.7461
  0
LINE
  8
0
 10
-87.0943
 20
-90.7461
 11
-87.2107
 21
-91.1044
  0
LINE
  8
0
 10
-87.2107
 20
-91.1044
 11
-87.3711
 21
-91.4453
  0
LINE
  8
0
 10
-87.3711
 20
-91.4453
 11
-87.573
 21
-91.7634
  0
LINE
  8
0
 10
-87.573
 20
-91.7634
 11
-87.8131
 21
-92.0536
  0
LINE
  8
0
 10
-87.8131
 20
-92.0536
 11
-88.0877
 21
-92.3115
  0
LINE
  8
0
 10
-88.0877
 20
-92.3115
 11
-88.3925
 21
-92.533
  0
LINE
  8
0
 10
-88.3925
 20
-92.533
 11
-88.7227
 21
-92.7145
  0
LINE
  8
0
 10
-88.7227
 20
-92.7145
 11
-89.073
 21
-92.8532
  0
LINE
  8
0
 10
-89.073
 20
-92.8532
 11
-89.4379
 21
-92.9469
  0
LINE
  8
0
 10
-89.4379
 20
-92.9469
 11
-89.8116
 21
-92.9941
  0
LINE
  8
0
 10
-89.8116
 20
-92.9941
 11
-90.1884
 21
-92.9941
  0
ENDSEC
  0
SECTION
  2
OBJECTS
  0
DICTIONARY
  0
ENDSEC
  0
EOF
