  0
SECTION
  2
BLOCKS
  0
ENDSEC
  0
SECTION
  2
ENTITIES
  0
LINE
  8
0
 10
130.437
 20
-134.411
 11
131.045
 21
-134.255
  0
LINE
  8
0
 10
131.045
 20
-134.255
 11
131.629
 21
-134.024
  0
LINE
  8
0
 10
131.629
 20
-134.024
 11
132.179
 21
-133.722
  0
LINE
  8
0
 10
132.179
 20
-133.722
 11
132.687
 21
-133.353
  0
LINE
  8
0
 10
132.687
 20
-133.353
 11
133.145
 21
-132.923
  0
LINE
  8
0
 10
133.145
 20
-132.923
 11
133.545
 21
-132.439
  0
LINE
  8
0
 10
133.545
 20
-132.439
 11
133.882
 21
-131.909
  0
LINE
  8
0
 10
133.882
 20
-131.909
 11
134.149
 21
-131.341
  0
LINE
  8
0
 10
134.149
 20
-131.341
 11
134.343
 21
-130.743
  0
LINE
  8
0
 10
134.343
 20
-130.743
 11
134.461
 21
-130.127
  0
LINE
  8
0
 10
134.461
 20
-130.127
 11
134.5
 21
-129.5
  0
LINE
  8
0
 10
134.5
 20
-129.5
 11
134.5
 21
129.5
  0
LINE
  8
0
 10
134.5
 20
129.5
 11
134.461
 21
130.127
  0
LINE
  8
0
 10
134.461
 20
130.127
 11
134.343
 21
130.743
  0
LINE
  8
0
 10
134.343
 20
130.743
 11
134.149
 21
131.341
  0
LINE
  8
0
 10
134.149
 20
131.341
 11
133.882
 21
131.909
  0
LINE
  8
0
 10
133.882
 20
131.909
 11
133.545
 21
132.439
  0
LINE
  8
0
 10
133.545
 20
132.439
 11
133.145
 21
132.923
  0
LINE
  8
0
 10
133.145
 20
132.923
 11
132.687
 21
133.353
  0
LINE
  8
0
 10
132.687
 20
133.353
 11
132.179
 21
133.722
  0
LINE
  8
0
 10
132.179
 20
133.722
 11
131.629
 21
134.024
  0
LINE
  8
0
 10
131.629
 20
134.024
 11
131.045
 21
134.255
  0
LINE
  8
0
 10
131.045
 20
134.255
 11
130.437
 21
134.411
  0
LINE
  8
0
 10
130.437
 20
134.411
 11
129.814
 21
134.49
  0
LINE
  8
0
 10
129.814
 20
134.49
 11
-129.814
 21
134.49
  0
LINE
  8
0
 10
-129.814
 20
134.49
 11
-130.437
 21
134.411
  0
LINE
  8
0
 10
-130.437
 20
134.411
 11
-131.045
 21
134.255
  0
LINE
  8
0
 10
-131.045
 20
134.255
 11
-131.629
 21
134.024
  0
LINE
  8
0
 10
-131.629
 20
134.024
 11
-132.179
 21
133.722
  0
LINE
  8
0
 10
-132.179
 20
133.722
 11
-132.687
 21
133.353
  0
LINE
  8
0
 10
-132.687
 20
133.353
 11
-133.145
 21
132.923
  0
LINE
  8
0
 10
-133.145
 20
132.923
 11
-133.545
 21
132.439
  0
LINE
  8
0
 10
-133.545
 20
132.439
 11
-133.882
 21
131.909
  0
LINE
  8
0
 10
-133.882
 20
131.909
 11
-134.149
 21
131.341
  0
LINE
  8
0
 10
-134.149
 20
131.341
 11
-134.343
 21
130.743
  0
LINE
  8
0
 10
-134.343
 20
130.743
 11
-134.461
 21
130.127
  0
LINE
  8
0
 10
-134.461
 20
130.127
 11
-134.5
 21
129.5
  0
LINE
  8
0
 10
-134.5
 20
129.5
 11
-134.5
 21
-129.5
  0
LINE
  8
0
 10
-134.5
 20
-129.5
 11
-134.461
 21
-130.127
  0
LINE
  8
0
 10
-134.461
 20
-130.127
 11
-134.343
 21
-130.743
  0
LINE
  8
0
 10
-134.343
 20
-130.743
 11
-134.149
 21
-131.341
  0
LINE
  8
0
 10
-134.149
 20
-131.341
 11
-133.882
 21
-131.909
  0
LINE
  8
0
 10
-133.882
 20
-131.909
 11
-133.545
 21
-132.439
  0
LINE
  8
0
 10
-133.545
 20
-132.439
 11
-133.145
 21
-132.923
  0
LINE
  8
0
 10
-133.145
 20
-132.923
 11
-132.687
 21
-133.353
  0
LINE
  8
0
 10
-132.687
 20
-133.353
 11
-132.179
 21
-133.722
  0
LINE
  8
0
 10
-132.179
 20
-133.722
 11
-131.629
 21
-134.024
  0
LINE
  8
0
 10
-131.629
 20
-134.024
 11
-131.045
 21
-134.255
  0
LINE
  8
0
 10
-131.045
 20
-134.255
 11
-130.437
 21
-134.411
  0
LINE
  8
0
 10
-130.437
 20
-134.411
 11
-129.814
 21
-134.49
  0
LINE
  8
0
 10
-129.814
 20
-134.49
 11
129.814
 21
-134.49
  0
LINE
  8
0
 10
129.814
 20
-134.49
 11
130.437
 21
-134.411
  0
LINE
  8
0
 10
127.312
 20
124.506
 11
126.938
 21
124.553
  0
LINE
  8
0
 10
126.938
 20
124.553
 11
126.573
 21
124.647
  0
LINE
  8
0
 10
126.573
 20
124.647
 11
126.223
 21
124.786
  0
LINE
  8
0
 10
126.223
 20
124.786
 11
125.893
 21
124.967
  0
LINE
  8
0
 10
125.893
 20
124.967
 11
125.588
 21
125.188
  0
LINE
  8
0
 10
125.588
 20
125.188
 11
125.313
 21
125.446
  0
LINE
  8
0
 10
125.313
 20
125.446
 11
125.073
 21
125.737
  0
LINE
  8
0
 10
125.073
 20
125.737
 11
124.871
 21
126.055
  0
LINE
  8
0
 10
124.871
 20
126.055
 11
124.711
 21
126.396
  0
LINE
  8
0
 10
124.711
 20
126.396
 11
124.594
 21
126.754
  0
LINE
  8
0
 10
124.594
 20
126.754
 11
124.524
 21
127.124
  0
LINE
  8
0
 10
124.524
 20
127.124
 11
124.5
 21
127.5
  0
LINE
  8
0
 10
124.5
 20
127.5
 11
124.524
 21
127.876
  0
LINE
  8
0
 10
124.524
 20
127.876
 11
124.594
 21
128.246
  0
LINE
  8
0
 10
124.594
 20
128.246
 11
124.711
 21
128.604
  0
LINE
  8
0
 10
124.711
 20
128.604
 11
124.871
 21
128.945
  0
LINE
  8
0
 10
124.871
 20
128.945
 11
125.073
 21
129.263
  0
LINE
  8
0
 10
125.073
 20
129.263
 11
125.313
 21
129.554
  0
LINE
  8
0
 10
125.313
 20
129.554
 11
125.588
 21
129.812
  0
LINE
  8
0
 10
125.588
 20
129.812
 11
125.893
 21
130.033
  0
LINE
  8
0
 10
125.893
 20
130.033
 11
126.223
 21
130.214
  0
LINE
  8
0
 10
126.223
 20
130.214
 11
126.573
 21
130.353
  0
LINE
  8
0
 10
126.573
 20
130.353
 11
126.938
 21
130.447
  0
LINE
  8
0
 10
126.938
 20
130.447
 11
127.312
 21
130.494
  0
LINE
  8
0
 10
127.312
 20
130.494
 11
127.688
 21
130.494
  0
LINE
  8
0
 10
127.688
 20
130.494
 11
128.062
 21
130.447
  0
LINE
  8
0
 10
128.062
 20
130.447
 11
128.427
 21
130.353
  0
LINE
  8
0
 10
128.427
 20
130.353
 11
128.777
 21
130.214
  0
LINE
  8
0
 10
128.777
 20
130.214
 11
129.107
 21
130.033
  0
LINE
  8
0
 10
129.107
 20
130.033
 11
129.412
 21
129.812
  0
LINE
  8
0
 10
129.412
 20
129.812
 11
129.687
 21
129.554
  0
LINE
  8
0
 10
129.687
 20
129.554
 11
129.927
 21
129.263
  0
LINE
  8
0
 10
129.927
 20
129.263
 11
130.129
 21
128.945
  0
LINE
  8
0
 10
130.129
 20
128.945
 11
130.289
 21
128.604
  0
LINE
  8
0
 10
130.289
 20
128.604
 11
130.406
 21
128.246
  0
LINE
  8
0
 10
130.406
 20
128.246
 11
130.476
 21
127.876
  0
LINE
  8
0
 10
130.476
 20
127.876
 11
130.5
 21
127.5
  0
LINE
  8
0
 10
130.5
 20
127.5
 11
130.476
 21
127.124
  0
LINE
  8
0
 10
130.476
 20
127.124
 11
130.406
 21
126.754
  0
LINE
  8
0
 10
130.406
 20
126.754
 11
130.289
 21
126.396
  0
LINE
  8
0
 10
130.289
 20
126.396
 11
130.129
 21
126.055
  0
LINE
  8
0
 10
130.129
 20
126.055
 11
129.927
 21
125.737
  0
LINE
  8
0
 10
129.927
 20
125.737
 11
129.687
 21
125.446
  0
LINE
  8
0
 10
129.687
 20
125.446
 11
129.412
 21
125.188
  0
LINE
  8
0
 10
129.412
 20
125.188
 11
129.107
 21
124.967
  0
LINE
  8
0
 10
129.107
 20
124.967
 11
128.777
 21
124.786
  0
LINE
  8
0
 10
128.777
 20
124.786
 11
128.427
 21
124.647
  0
LINE
  8
0
 10
128.427
 20
124.647
 11
128.062
 21
124.553
  0
LINE
  8
0
 10
128.062
 20
124.553
 11
127.688
 21
124.506
  0
LINE
  8
0
 10
127.688
 20
124.506
 11
127.312
 21
124.506
  0
LINE
  8
0
 10
-127.688
 20
124.506
 11
-128.062
 21
124.553
  0
LINE
  8
0
 10
-128.062
 20
124.553
 11
-128.427
 21
124.647
  0
LINE
  8
0
 10
-128.427
 20
124.647
 11
-128.777
 21
124.786
  0
LINE
  8
0
 10
-128.777
 20
124.786
 11
-129.107
 21
124.967
  0
LINE
  8
0
 10
-129.107
 20
124.967
 11
-129.412
 21
125.188
  0
LINE
  8
0
 10
-129.412
 20
125.188
 11
-129.687
 21
125.446
  0
LINE
  8
0
 10
-129.687
 20
125.446
 11
-129.927
 21
125.737
  0
LINE
  8
0
 10
-129.927
 20
125.737
 11
-130.129
 21
126.055
  0
LINE
  8
0
 10
-130.129
 20
126.055
 11
-130.289
 21
126.396
  0
LINE
  8
0
 10
-130.289
 20
126.396
 11
-130.406
 21
126.754
  0
LINE
  8
0
 10
-130.406
 20
126.754
 11
-130.476
 21
127.124
  0
LINE
  8
0
 10
-130.476
 20
127.124
 11
-130.5
 21
127.5
  0
LINE
  8
0
 10
-130.5
 20
127.5
 11
-130.476
 21
127.876
  0
LINE
  8
0
 10
-130.476
 20
127.876
 11
-130.406
 21
128.246
  0
LINE
  8
0
 10
-130.406
 20
128.246
 11
-130.289
 21
128.604
  0
LINE
  8
0
 10
-130.289
 20
128.604
 11
-130.129
 21
128.945
  0
LINE
  8
0
 10
-130.129
 20
128.945
 11
-129.927
 21
129.263
  0
LINE
  8
0
 10
-129.927
 20
129.263
 11
-129.687
 21
129.554
  0
LINE
  8
0
 10
-129.687
 20
129.554
 11
-129.412
 21
129.812
  0
LINE
  8
0
 10
-129.412
 20
129.812
 11
-129.107
 21
130.033
  0
LINE
  8
0
 10
-129.107
 20
130.033
 11
-128.777
 21
130.214
  0
LINE
  8
0
 10
-128.777
 20
130.214
 11
-128.427
 21
130.353
  0
LINE
  8
0
 10
-128.427
 20
130.353
 11
-128.062
 21
130.447
  0
LINE
  8
0
 10
-128.062
 20
130.447
 11
-127.688
 21
130.494
  0
LINE
  8
0
 10
-127.688
 20
130.494
 11
-127.312
 21
130.494
  0
LINE
  8
0
 10
-127.312
 20
130.494
 11
-126.938
 21
130.447
  0
LINE
  8
0
 10
-126.938
 20
130.447
 11
-126.573
 21
130.353
  0
LINE
  8
0
 10
-126.573
 20
130.353
 11
-126.223
 21
130.214
  0
LINE
  8
0
 10
-126.223
 20
130.214
 11
-125.893
 21
130.033
  0
LINE
  8
0
 10
-125.893
 20
130.033
 11
-125.588
 21
129.812
  0
LINE
  8
0
 10
-125.588
 20
129.812
 11
-125.313
 21
129.554
  0
LINE
  8
0
 10
-125.313
 20
129.554
 11
-125.073
 21
129.263
  0
LINE
  8
0
 10
-125.073
 20
129.263
 11
-124.871
 21
128.945
  0
LINE
  8
0
 10
-124.871
 20
128.945
 11
-124.711
 21
128.604
  0
LINE
  8
0
 10
-124.711
 20
128.604
 11
-124.594
 21
128.246
  0
LINE
  8
0
 10
-124.594
 20
128.246
 11
-124.524
 21
127.876
  0
LINE
  8
0
 10
-124.524
 20
127.876
 11
-124.5
 21
127.5
  0
LINE
  8
0
 10
-124.5
 20
127.5
 11
-124.524
 21
127.124
  0
LINE
  8
0
 10
-124.524
 20
127.124
 11
-124.594
 21
126.754
  0
LINE
  8
0
 10
-124.594
 20
126.754
 11
-124.711
 21
126.396
  0
LINE
  8
0
 10
-124.711
 20
126.396
 11
-124.871
 21
126.055
  0
LINE
  8
0
 10
-124.871
 20
126.055
 11
-125.073
 21
125.737
  0
LINE
  8
0
 10
-125.073
 20
125.737
 11
-125.313
 21
125.446
  0
LINE
  8
0
 10
-125.313
 20
125.446
 11
-125.588
 21
125.188
  0
LINE
  8
0
 10
-125.588
 20
125.188
 11
-125.893
 21
124.967
  0
LINE
  8
0
 10
-125.893
 20
124.967
 11
-126.223
 21
124.786
  0
LINE
  8
0
 10
-126.223
 20
124.786
 11
-126.573
 21
124.647
  0
LINE
  8
0
 10
-126.573
 20
124.647
 11
-126.938
 21
124.553
  0
LINE
  8
0
 10
-126.938
 20
124.553
 11
-127.312
 21
124.506
  0
LINE
  8
0
 10
-127.312
 20
124.506
 11
-127.688
 21
124.506
  0
LINE
  8
0
 10
127.312
 20
-130.494
 11
126.938
 21
-130.447
  0
LINE
  8
0
 10
126.938
 20
-130.447
 11
126.573
 21
-130.353
  0
LINE
  8
0
 10
126.573
 20
-130.353
 11
126.223
 21
-130.214
  0
LINE
  8
0
 10
126.223
 20
-130.214
 11
125.893
 21
-130.033
  0
LINE
  8
0
 10
125.893
 20
-130.033
 11
125.588
 21
-129.812
  0
LINE
  8
0
 10
125.588
 20
-129.812
 11
125.313
 21
-129.554
  0
LINE
  8
0
 10
125.313
 20
-129.554
 11
125.073
 21
-129.263
  0
LINE
  8
0
 10
125.073
 20
-129.263
 11
124.871
 21
-128.945
  0
LINE
  8
0
 10
124.871
 20
-128.945
 11
124.711
 21
-128.604
  0
LINE
  8
0
 10
124.711
 20
-128.604
 11
124.594
 21
-128.246
  0
LINE
  8
0
 10
124.594
 20
-128.246
 11
124.524
 21
-127.876
  0
LINE
  8
0
 10
124.524
 20
-127.876
 11
124.5
 21
-127.5
  0
LINE
  8
0
 10
124.5
 20
-127.5
 11
124.524
 21
-127.124
  0
LINE
  8
0
 10
124.524
 20
-127.124
 11
124.594
 21
-126.754
  0
LINE
  8
0
 10
124.594
 20
-126.754
 11
124.711
 21
-126.396
  0
LINE
  8
0
 10
124.711
 20
-126.396
 11
124.871
 21
-126.055
  0
LINE
  8
0
 10
124.871
 20
-126.055
 11
125.073
 21
-125.737
  0
LINE
  8
0
 10
125.073
 20
-125.737
 11
125.313
 21
-125.446
  0
LINE
  8
0
 10
125.313
 20
-125.446
 11
125.588
 21
-125.188
  0
LINE
  8
0
 10
125.588
 20
-125.188
 11
125.893
 21
-124.967
  0
LINE
  8
0
 10
125.893
 20
-124.967
 11
126.223
 21
-124.786
  0
LINE
  8
0
 10
126.223
 20
-124.786
 11
126.573
 21
-124.647
  0
LINE
  8
0
 10
126.573
 20
-124.647
 11
126.938
 21
-124.553
  0
LINE
  8
0
 10
126.938
 20
-124.553
 11
127.312
 21
-124.506
  0
LINE
  8
0
 10
127.312
 20
-124.506
 11
127.688
 21
-124.506
  0
LINE
  8
0
 10
127.688
 20
-124.506
 11
128.062
 21
-124.553
  0
LINE
  8
0
 10
128.062
 20
-124.553
 11
128.427
 21
-124.647
  0
LINE
  8
0
 10
128.427
 20
-124.647
 11
128.777
 21
-124.786
  0
LINE
  8
0
 10
128.777
 20
-124.786
 11
129.107
 21
-124.967
  0
LINE
  8
0
 10
129.107
 20
-124.967
 11
129.412
 21
-125.188
  0
LINE
  8
0
 10
129.412
 20
-125.188
 11
129.687
 21
-125.446
  0
LINE
  8
0
 10
129.687
 20
-125.446
 11
129.927
 21
-125.737
  0
LINE
  8
0
 10
129.927
 20
-125.737
 11
130.129
 21
-126.055
  0
LINE
  8
0
 10
130.129
 20
-126.055
 11
130.289
 21
-126.396
  0
LINE
  8
0
 10
130.289
 20
-126.396
 11
130.406
 21
-126.754
  0
LINE
  8
0
 10
130.406
 20
-126.754
 11
130.476
 21
-127.124
  0
LINE
  8
0
 10
130.476
 20
-127.124
 11
130.5
 21
-127.5
  0
LINE
  8
0
 10
130.5
 20
-127.5
 11
130.476
 21
-127.876
  0
LINE
  8
0
 10
130.476
 20
-127.876
 11
130.406
 21
-128.246
  0
LINE
  8
0
 10
130.406
 20
-128.246
 11
130.289
 21
-128.604
  0
LINE
  8
0
 10
130.289
 20
-128.604
 11
130.129
 21
-128.945
  0
LINE
  8
0
 10
130.129
 20
-128.945
 11
129.927
 21
-129.263
  0
LINE
  8
0
 10
129.927
 20
-129.263
 11
129.687
 21
-129.554
  0
LINE
  8
0
 10
129.687
 20
-129.554
 11
129.412
 21
-129.812
  0
LINE
  8
0
 10
129.412
 20
-129.812
 11
129.107
 21
-130.033
  0
LINE
  8
0
 10
129.107
 20
-130.033
 11
128.777
 21
-130.214
  0
LINE
  8
0
 10
128.777
 20
-130.214
 11
128.427
 21
-130.353
  0
LINE
  8
0
 10
128.427
 20
-130.353
 11
128.062
 21
-130.447
  0
LINE
  8
0
 10
128.062
 20
-130.447
 11
127.688
 21
-130.494
  0
LINE
  8
0
 10
127.688
 20
-130.494
 11
127.312
 21
-130.494
  0
LINE
  8
0
 10
-127.688
 20
-130.494
 11
-128.062
 21
-130.447
  0
LINE
  8
0
 10
-128.062
 20
-130.447
 11
-128.427
 21
-130.353
  0
LINE
  8
0
 10
-128.427
 20
-130.353
 11
-128.777
 21
-130.214
  0
LINE
  8
0
 10
-128.777
 20
-130.214
 11
-129.107
 21
-130.033
  0
LINE
  8
0
 10
-129.107
 20
-130.033
 11
-129.412
 21
-129.812
  0
LINE
  8
0
 10
-129.412
 20
-129.812
 11
-129.687
 21
-129.554
  0
LINE
  8
0
 10
-129.687
 20
-129.554
 11
-129.927
 21
-129.263
  0
LINE
  8
0
 10
-129.927
 20
-129.263
 11
-130.129
 21
-128.945
  0
LINE
  8
0
 10
-130.129
 20
-128.945
 11
-130.289
 21
-128.604
  0
LINE
  8
0
 10
-130.289
 20
-128.604
 11
-130.406
 21
-128.246
  0
LINE
  8
0
 10
-130.406
 20
-128.246
 11
-130.476
 21
-127.876
  0
LINE
  8
0
 10
-130.476
 20
-127.876
 11
-130.5
 21
-127.5
  0
LINE
  8
0
 10
-130.5
 20
-127.5
 11
-130.476
 21
-127.124
  0
LINE
  8
0
 10
-130.476
 20
-127.124
 11
-130.406
 21
-126.754
  0
LINE
  8
0
 10
-130.406
 20
-126.754
 11
-130.289
 21
-126.396
  0
LINE
  8
0
 10
-130.289
 20
-126.396
 11
-130.129
 21
-126.055
  0
LINE
  8
0
 10
-130.129
 20
-126.055
 11
-129.927
 21
-125.737
  0
LINE
  8
0
 10
-129.927
 20
-125.737
 11
-129.687
 21
-125.446
  0
LINE
  8
0
 10
-129.687
 20
-125.446
 11
-129.412
 21
-125.188
  0
LINE
  8
0
 10
-129.412
 20
-125.188
 11
-129.107
 21
-124.967
  0
LINE
  8
0
 10
-129.107
 20
-124.967
 11
-128.777
 21
-124.786
  0
LINE
  8
0
 10
-128.777
 20
-124.786
 11
-128.427
 21
-124.647
  0
LINE
  8
0
 10
-128.427
 20
-124.647
 11
-128.062
 21
-124.553
  0
LINE
  8
0
 10
-128.062
 20
-124.553
 11
-127.688
 21
-124.506
  0
LINE
  8
0
 10
-127.688
 20
-124.506
 11
-127.312
 21
-124.506
  0
LINE
  8
0
 10
-127.312
 20
-124.506
 11
-126.938
 21
-124.553
  0
LINE
  8
0
 10
-126.938
 20
-124.553
 11
-126.573
 21
-124.647
  0
LINE
  8
0
 10
-126.573
 20
-124.647
 11
-126.223
 21
-124.786
  0
LINE
  8
0
 10
-126.223
 20
-124.786
 11
-125.893
 21
-124.967
  0
LINE
  8
0
 10
-125.893
 20
-124.967
 11
-125.588
 21
-125.188
  0
LINE
  8
0
 10
-125.588
 20
-125.188
 11
-125.313
 21
-125.446
  0
LINE
  8
0
 10
-125.313
 20
-125.446
 11
-125.073
 21
-125.737
  0
LINE
  8
0
 10
-125.073
 20
-125.737
 11
-124.871
 21
-126.055
  0
LINE
  8
0
 10
-124.871
 20
-126.055
 11
-124.711
 21
-126.396
  0
LINE
  8
0
 10
-124.711
 20
-126.396
 11
-124.594
 21
-126.754
  0
LINE
  8
0
 10
-124.594
 20
-126.754
 11
-124.524
 21
-127.124
  0
LINE
  8
0
 10
-124.524
 20
-127.124
 11
-124.5
 21
-127.5
  0
LINE
  8
0
 10
-124.5
 20
-127.5
 11
-124.524
 21
-127.876
  0
LINE
  8
0
 10
-124.524
 20
-127.876
 11
-124.594
 21
-128.246
  0
LINE
  8
0
 10
-124.594
 20
-128.246
 11
-124.711
 21
-128.604
  0
LINE
  8
0
 10
-124.711
 20
-128.604
 11
-124.871
 21
-128.945
  0
LINE
  8
0
 10
-124.871
 20
-128.945
 11
-125.073
 21
-129.263
  0
LINE
  8
0
 10
-125.073
 20
-129.263
 11
-125.313
 21
-129.554
  0
LINE
  8
0
 10
-125.313
 20
-129.554
 11
-125.588
 21
-129.812
  0
LINE
  8
0
 10
-125.588
 20
-129.812
 11
-125.893
 21
-130.033
  0
LINE
  8
0
 10
-125.893
 20
-130.033
 11
-126.223
 21
-130.214
  0
LINE
  8
0
 10
-126.223
 20
-130.214
 11
-126.573
 21
-130.353
  0
LINE
  8
0
 10
-126.573
 20
-130.353
 11
-126.938
 21
-130.447
  0
LINE
  8
0
 10
-126.938
 20
-130.447
 11
-127.312
 21
-130.494
  0
LINE
  8
0
 10
-127.312
 20
-130.494
 11
-127.688
 21
-130.494
  0
ENDSEC
  0
SECTION
  2
OBJECTS
  0
DICTIONARY
  0
ENDSEC
  0
EOF
