<?xml version="1.0" standalone="no"?>
<!DOCTYPE svg PUBLIC "-//W3C//DTD SVG 1.1//EN" "http://www.w3.org/Graphics/SVG/1.1/DTD/svg11.dtd">
<svg width="150mm" height="62mm" viewBox="-75 -103 150 62" xmlns="http://www.w3.org/2000/svg" version="1.1">
<title>OpenSCAD Model</title>
<path d="
M 70.4369,-89.0886 L 71.0451,-89.2447 L 71.6289,-89.4759 L 72.1791,-89.7784 L 72.6871,-90.1474 L 73.1448,-90.5773
 L 73.5451,-91.0611 L 73.8815,-91.5912 L 74.1489,-92.1594 L 74.3429,-92.7566 L 74.4606,-93.3733 L 74.5,-94
 L 74.5,-98 L 74.4606,-98.6267 L 74.3429,-99.2434 L 74.1489,-99.8406 L 73.8815,-100.409 L 73.5451,-100.939
 L 73.1448,-101.423 L 72.6871,-101.853 L 72.1791,-102.222 L 71.6289,-102.524 L 71.0451,-102.755 L 70.4369,-102.911
 L 69.8139,-102.99 L -69.8139,-102.99 L -70.4369,-102.911 L -71.0451,-102.755 L -71.6289,-102.524 L -72.1791,-102.222
 L -72.6871,-101.853 L -73.1448,-101.423 L -73.5451,-100.939 L -73.8815,-100.409 L -74.1489,-99.8406 L -74.3429,-99.2434
 L -74.4606,-98.6267 L -74.5,-98 L -74.5,-94 L -74.4606,-93.3733 L -74.3429,-92.7566 L -74.1489,-92.1594
 L -73.8815,-91.5912 L -73.5451,-91.0611 L -73.1448,-90.5773 L -72.6871,-90.1474 L -72.1791,-89.7784 L -71.6289,-89.4759
 L -71.0451,-89.2447 L -70.4369,-89.0886 L -69.8139,-89.0099 L 69.8139,-89.0099 z
M -7.68837,-93.0059 L -8.06213,-93.0531 L -8.42705,-93.1468 L -8.77733,-93.2855 L -9.10747,-93.467 L -9.41226,-93.6885
 L -9.6869,-93.9464 L -9.92705,-94.2366 L -10.1289,-94.5547 L -10.2893,-94.8956 L -10.4057,-95.2539 L -10.4763,-95.624
 L -10.5,-96 L -10.4763,-96.376 L -10.4057,-96.7461 L -10.2893,-97.1044 L -10.1289,-97.4453 L -9.92705,-97.7634
 L -9.6869,-98.0536 L -9.41226,-98.3115 L -9.10747,-98.533 L -8.77733,-98.7145 L -8.42705,-98.8532 L -8.06213,-98.9469
 L -7.68837,-98.9941 L -7.31161,-98.9941 L -6.93785,-98.9469 L -6.57294,-98.8532 L -6.22266,-98.7145 L -5.89252,-98.533
 L -5.58772,-98.3115 L -5.31308,-98.0536 L -5.07294,-97.7634 L -4.87108,-97.4453 L -4.71066,-97.1044 L -4.59424,-96.7461
 L -4.52365,-96.376 L -4.5,-96 L -4.52365,-95.624 L -4.59424,-95.2539 L -4.71066,-94.8956 L -4.87108,-94.5547
 L -5.07294,-94.2366 L -5.31308,-93.9464 L -5.58772,-93.6885 L -5.89252,-93.467 L -6.22266,-93.2855 L -6.57294,-93.1468
 L -6.93785,-93.0531 L -7.31161,-93.0059 z
M 52.3116,-93.0059 L 51.9379,-93.0531 L 51.5729,-93.1468 L 51.2227,-93.2855 L 50.8925,-93.467 L 50.5877,-93.6885
 L 50.3131,-93.9464 L 50.0729,-94.2366 L 49.8711,-94.5547 L 49.7107,-94.8956 L 49.5942,-95.2539 L 49.5237,-95.624
 L 49.5,-96 L 49.5237,-96.376 L 49.5942,-96.7461 L 49.7107,-97.1044 L 49.8711,-97.4453 L 50.0729,-97.7634
 L 50.3131,-98.0536 L 50.5877,-98.3115 L 50.8925,-98.533 L 51.2227,-98.7145 L 51.5729,-98.8532 L 51.9379,-98.9469
 L 52.3116,-98.9941 L 52.6884,-98.9941 L 53.0621,-98.9469 L 53.427,-98.8532 L 53.7773,-98.7145 L 54.1075,-98.533
 L 54.4123,-98.3115 L 54.6869,-98.0536 L 54.927,-97.7634 L 55.1289,-97.4453 L 55.2893,-97.1044 L 55.4057,-96.7461
 L 55.4763,-96.376 L 55.5,-96 L 55.4763,-95.624 L 55.4057,-95.2539 L 55.2893,-94.8956 L 55.1289,-94.5547
 L 54.927,-94.2366 L 54.6869,-93.9464 L 54.4123,-93.6885 L 54.1075,-93.467 L 53.7773,-93.2855 L 53.427,-93.1468
 L 53.0621,-93.0531 L 52.6884,-93.0059 z
M 67.3116,-93.0059 L 66.9379,-93.0531 L 66.573,-93.1468 L 66.2227,-93.2855 L 65.8925,-93.467 L 65.5877,-93.6885
 L 65.3131,-93.9464 L 65.073,-94.2366 L 64.8711,-94.5547 L 64.7107,-94.8956 L 64.5943,-95.2539 L 64.5237,-95.624
 L 64.5,-96 L 64.5237,-96.376 L 64.5943,-96.7461 L 64.7107,-97.1044 L 64.8711,-97.4453 L 65.073,-97.7634
 L 65.3131,-98.0536 L 65.5877,-98.3115 L 65.8925,-98.533 L 66.2227,-98.7145 L 66.573,-98.8532 L 66.9379,-98.9469
 L 67.3116,-98.9941 L 67.6884,-98.9941 L 68.0621,-98.9469 L 68.427,-98.8532 L 68.7773,-98.7145 L 69.1075,-98.533
 L 69.4123,-98.3115 L 69.6869,-98.0536 L 69.927,-97.7634 L 70.1289,-97.4453 L 70.2893,-97.1044 L 70.4057,-96.7461
 L 70.4763,-96.376 L 70.5,-96 L 70.4763,-95.624 L 70.4057,-95.2539 L 70.2893,-94.8956 L 70.1289,-94.5547
 L 69.927,-94.2366 L 69.6869,-93.9464 L 69.4123,-93.6885 L 69.1075,-93.467 L 68.7773,-93.2855 L 68.427,-93.1468
 L 68.0621,-93.0531 L 67.6884,-93.0059 z
M -37.6884,-93.0059 L -38.0621,-93.0531 L -38.427,-93.1468 L -38.7773,-93.2855 L -39.1075,-93.467 L -39.4123,-93.6885
 L -39.6869,-93.9464 L -39.927,-94.2366 L -40.1289,-94.5547 L -40.2893,-94.8956 L -40.4057,-95.2539 L -40.4763,-95.624
 L -40.5,-96 L -40.4763,-96.376 L -40.4057,-96.7461 L -40.2893,-97.1044 L -40.1289,-97.4453 L -39.927,-97.7634
 L -39.6869,-98.0536 L -39.4123,-98.3115 L -39.1075,-98.533 L -38.7773,-98.7145 L -38.427,-98.8532 L -38.0621,-98.9469
 L -37.6884,-98.9941 L -37.3116,-98.9941 L -36.9379,-98.9469 L -36.5729,-98.8532 L -36.2227,-98.7145 L -35.8925,-98.533
 L -35.5877,-98.3115 L -35.3131,-98.0536 L -35.0729,-97.7634 L -34.8711,-97.4453 L -34.7107,-97.1044 L -34.5942,-96.7461
 L -34.5237,-96.376 L -34.5,-96 L -34.5237,-95.624 L -34.5942,-95.2539 L -34.7107,-94.8956 L -34.8711,-94.5547
 L -35.0729,-94.2366 L -35.3131,-93.9464 L -35.5877,-93.6885 L -35.8925,-93.467 L -36.2227,-93.2855 L -36.5729,-93.1468
 L -36.9379,-93.0531 L -37.3116,-93.0059 z
M 7.31161,-93.0059 L 6.93785,-93.0531 L 6.57294,-93.1468 L 6.22266,-93.2855 L 5.89252,-93.467 L 5.58772,-93.6885
 L 5.31308,-93.9464 L 5.07294,-94.2366 L 4.87108,-94.5547 L 4.71066,-94.8956 L 4.59424,-95.2539 L 4.52365,-95.624
 L 4.5,-96 L 4.52365,-96.376 L 4.59424,-96.7461 L 4.71066,-97.1044 L 4.87108,-97.4453 L 5.07294,-97.7634
 L 5.31308,-98.0536 L 5.58772,-98.3115 L 5.89252,-98.533 L 6.22266,-98.7145 L 6.57294,-98.8532 L 6.93785,-98.9469
 L 7.31161,-98.9941 L 7.68837,-98.9941 L 8.06213,-98.9469 L 8.42705,-98.8532 L 8.77733,-98.7145 L 9.10747,-98.533
 L 9.41226,-98.3115 L 9.6869,-98.0536 L 9.92705,-97.7634 L 10.1289,-97.4453 L 10.2893,-97.1044 L 10.4057,-96.7461
 L 10.4763,-96.376 L 10.5,-96 L 10.4763,-95.624 L 10.4057,-95.2539 L 10.2893,-94.8956 L 10.1289,-94.5547
 L 9.92705,-94.2366 L 9.6869,-93.9464 L 9.41226,-93.6885 L 9.10747,-93.467 L 8.77733,-93.2855 L 8.42705,-93.1468
 L 8.06213,-93.0531 L 7.68837,-93.0059 z
M -22.6884,-93.0059 L -23.0621,-93.0531 L -23.427,-93.1468 L -23.7773,-93.2855 L -24.1075,-93.467 L -24.4123,-93.6885
 L -24.6869,-93.9464 L -24.927,-94.2366 L -25.1289,-94.5547 L -25.2893,-94.8956 L -25.4057,-95.2539 L -25.4763,-95.624
 L -25.5,-96 L -25.4763,-96.376 L -25.4057,-96.7461 L -25.2893,-97.1044 L -25.1289,-97.4453 L -24.927,-97.7634
 L -24.6869,-98.0536 L -24.4123,-98.3115 L -24.1075,-98.533 L -23.7773,-98.7145 L -23.427,-98.8532 L -23.0621,-98.9469
 L -22.6884,-98.9941 L -22.3116,-98.9941 L -21.9379,-98.9469 L -21.5729,-98.8532 L -21.2227,-98.7145 L -20.8925,-98.533
 L -20.5877,-98.3115 L -20.3131,-98.0536 L -20.0729,-97.7634 L -19.8711,-97.4453 L -19.7107,-97.1044 L -19.5942,-96.7461
 L -19.5237,-96.376 L -19.5,-96 L -19.5237,-95.624 L -19.5942,-95.2539 L -19.7107,-94.8956 L -19.8711,-94.5547
 L -20.0729,-94.2366 L -20.3131,-93.9464 L -20.5877,-93.6885 L -20.8925,-93.467 L -21.2227,-93.2855 L -21.5729,-93.1468
 L -21.9379,-93.0531 L -22.3116,-93.0059 z
M -52.6884,-93.0059 L -53.0621,-93.0531 L -53.427,-93.1468 L -53.7773,-93.2855 L -54.1075,-93.467 L -54.4123,-93.6885
 L -54.6869,-93.9464 L -54.927,-94.2366 L -55.1289,-94.5547 L -55.2893,-94.8956 L -55.4057,-95.2539 L -55.4763,-95.624
 L -55.5,-96 L -55.4763,-96.376 L -55.4057,-96.7461 L -55.2893,-97.1044 L -55.1289,-97.4453 L -54.927,-97.7634
 L -54.6869,-98.0536 L -54.4123,-98.3115 L -54.1075,-98.533 L -53.7773,-98.7145 L -53.427,-98.8532 L -53.0621,-98.9469
 L -52.6884,-98.9941 L -52.3116,-98.9941 L -51.9379,-98.9469 L -51.5729,-98.8532 L -51.2227,-98.7145 L -50.8925,-98.533
 L -50.5877,-98.3115 L -50.3131,-98.0536 L -50.0729,-97.7634 L -49.8711,-97.4453 L -49.7107,-97.1044 L -49.5942,-96.7461
 L -49.5237,-96.376 L -49.5,-96 L -49.5237,-95.624 L -49.5942,-95.2539 L -49.7107,-94.8956 L -49.8711,-94.5547
 L -50.0729,-94.2366 L -50.3131,-93.9464 L -50.5877,-93.6885 L -50.8925,-93.467 L -51.2227,-93.2855 L -51.5729,-93.1468
 L -51.9379,-93.0531 L -52.3116,-93.0059 z
M -67.6884,-93.0059 L -68.0621,-93.0531 L -68.427,-93.1468 L -68.7773,-93.2855 L -69.1075,-93.467 L -69.4123,-93.6885
 L -69.6869,-93.9464 L -69.927,-94.2366 L -70.1289,-94.5547 L -70.2893,-94.8956 L -70.4057,-95.2539 L -70.4763,-95.624
 L -70.5,-96 L -70.4763,-96.376 L -70.4057,-96.7461 L -70.2893,-97.1044 L -70.1289,-97.4453 L -69.927,-97.7634
 L -69.6869,-98.0536 L -69.4123,-98.3115 L -69.1075,-98.533 L -68.7773,-98.7145 L -68.427,-98.8532 L -68.0621,-98.9469
 L -67.6884,-98.9941 L -67.3116,-98.9941 L -66.9379,-98.9469 L -66.573,-98.8532 L -66.2227,-98.7145 L -65.8925,-98.533
 L -65.5877,-98.3115 L -65.3131,-98.0536 L -65.073,-97.7634 L -64.8711,-97.4453 L -64.7107,-97.1044 L -64.5943,-96.7461
 L -64.5237,-96.376 L -64.5,-96 L -64.5237,-95.624 L -64.5943,-95.2539 L -64.7107,-94.8956 L -64.8711,-94.5547
 L -65.073,-94.2366 L -65.3131,-93.9464 L -65.5877,-93.6885 L -65.8925,-93.467 L -66.2227,-93.2855 L -66.573,-93.1468
 L -66.9379,-93.0531 L -67.3116,-93.0059 z
M 37.3116,-93.0059 L 36.9379,-93.0531 L 36.5729,-93.1468 L 36.2227,-93.2855 L 35.8925,-93.467 L 35.5877,-93.6885
 L 35.3131,-93.9464 L 35.0729,-94.2366 L 34.8711,-94.5547 L 34.7107,-94.8956 L 34.5942,-95.2539 L 34.5237,-95.624
 L 34.5,-96 L 34.5237,-96.376 L 34.5942,-96.7461 L 34.7107,-97.1044 L 34.8711,-97.4453 L 35.0729,-97.7634
 L 35.3131,-98.0536 L 35.5877,-98.3115 L 35.8925,-98.533 L 36.2227,-98.7145 L 36.5729,-98.8532 L 36.9379,-98.9469
 L 37.3116,-98.9941 L 37.6884,-98.9941 L 38.0621,-98.9469 L 38.427,-98.8532 L 38.7773,-98.7145 L 39.1075,-98.533
 L 39.4123,-98.3115 L 39.6869,-98.0536 L 39.927,-97.7634 L 40.1289,-97.4453 L 40.2893,-97.1044 L 40.4057,-96.7461
 L 40.4763,-96.376 L 40.5,-96 L 40.4763,-95.624 L 40.4057,-95.2539 L 40.2893,-94.8956 L 40.1289,-94.5547
 L 39.927,-94.2366 L 39.6869,-93.9464 L 39.4123,-93.6885 L 39.1075,-93.467 L 38.7773,-93.2855 L 38.427,-93.1468
 L 38.0621,-93.0531 L 37.6884,-93.0059 z
M 22.3116,-93.0059 L 21.9379,-93.0531 L 21.5729,-93.1468 L 21.2227,-93.2855 L 20.8925,-93.467 L 20.5877,-93.6885
 L 20.3131,-93.9464 L 20.0729,-94.2366 L 19.8711,-94.5547 L 19.7107,-94.8956 L 19.5942,-95.2539 L 19.5237,-95.624
 L 19.5,-96 L 19.5237,-96.376 L 19.5942,-96.7461 L 19.7107,-97.1044 L 19.8711,-97.4453 L 20.0729,-97.7634
 L 20.3131,-98.0536 L 20.5877,-98.3115 L 20.8925,-98.533 L 21.2227,-98.7145 L 21.5729,-98.8532 L 21.9379,-98.9469
 L 22.3116,-98.9941 L 22.6884,-98.9941 L 23.0621,-98.9469 L 23.427,-98.8532 L 23.7773,-98.7145 L 24.1075,-98.533
 L 24.4123,-98.3115 L 24.6869,-98.0536 L 24.927,-97.7634 L 25.1289,-97.4453 L 25.2893,-97.1044 L 25.4057,-96.7461
 L 25.4763,-96.376 L 25.5,-96 L 25.4763,-95.624 L 25.4057,-95.2539 L 25.2893,-94.8956 L 25.1289,-94.5547
 L 24.927,-94.2366 L 24.6869,-93.9464 L 24.4123,-93.6885 L 24.1075,-93.467 L 23.7773,-93.2855 L 23.427,-93.1468
 L 23.0621,-93.0531 L 22.6884,-93.0059 z
M 70.4369,-65.0886 L 71.0451,-65.2447 L 71.6289,-65.4759 L 72.1791,-65.7784 L 72.6871,-66.1474 L 73.1448,-66.5773
 L 73.5451,-67.0611 L 73.8815,-67.5912 L 74.1489,-68.1594 L 74.3429,-68.7566 L 74.4606,-69.3733 L 74.5,-70
 L 74.5,-74 L 74.4606,-74.6267 L 74.3429,-75.2434 L 74.1489,-75.8406 L 73.8815,-76.4088 L 73.5451,-76.9389
 L 73.1448,-77.4227 L 72.6871,-77.8526 L 72.1791,-78.2216 L 71.6289,-78.5241 L 71.0451,-78.7553 L 70.4369,-78.9114
 L 69.8139,-78.9901 L -69.8139,-78.9901 L -70.4369,-78.9114 L -71.0451,-78.7553 L -71.6289,-78.5241 L -72.1791,-78.2216
 L -72.6871,-77.8526 L -73.1448,-77.4227 L -73.5451,-76.9389 L -73.8815,-76.4088 L -74.1489,-75.8406 L -74.3429,-75.2434
 L -74.4606,-74.6267 L -74.5,-74 L -74.5,-70 L -74.4606,-69.3733 L -74.3429,-68.7566 L -74.1489,-68.1594
 L -73.8815,-67.5912 L -73.5451,-67.0611 L -73.1448,-66.5773 L -72.6871,-66.1474 L -72.1791,-65.7784 L -71.6289,-65.4759
 L -71.0451,-65.2447 L -70.4369,-65.0886 L -69.8139,-65.0099 L 69.8139,-65.0099 z
M -22.6884,-69.0059 L -23.0621,-69.0531 L -23.427,-69.1468 L -23.7773,-69.2855 L -24.1075,-69.467 L -24.4123,-69.6885
 L -24.6869,-69.9464 L -24.927,-70.2366 L -25.1289,-70.5547 L -25.2893,-70.8956 L -25.4057,-71.2539 L -25.4763,-71.624
 L -25.5,-72 L -25.4763,-72.376 L -25.4057,-72.7461 L -25.2893,-73.1044 L -25.1289,-73.4453 L -24.927,-73.7634
 L -24.6869,-74.0536 L -24.4123,-74.3115 L -24.1075,-74.533 L -23.7773,-74.7145 L -23.427,-74.8532 L -23.0621,-74.9469
 L -22.6884,-74.9941 L -22.3116,-74.9941 L -21.9379,-74.9469 L -21.5729,-74.8532 L -21.2227,-74.7145 L -20.8925,-74.533
 L -20.5877,-74.3115 L -20.3131,-74.0536 L -20.0729,-73.7634 L -19.8711,-73.4453 L -19.7107,-73.1044 L -19.5942,-72.7461
 L -19.5237,-72.376 L -19.5,-72 L -19.5237,-71.624 L -19.5942,-71.2539 L -19.7107,-70.8956 L -19.8711,-70.5547
 L -20.0729,-70.2366 L -20.3131,-69.9464 L -20.5877,-69.6885 L -20.8925,-69.467 L -21.2227,-69.2855 L -21.5729,-69.1468
 L -21.9379,-69.0531 L -22.3116,-69.0059 z
M -7.68837,-69.0059 L -8.06213,-69.0531 L -8.42705,-69.1468 L -8.77733,-69.2855 L -9.10747,-69.467 L -9.41226,-69.6885
 L -9.6869,-69.9464 L -9.92705,-70.2366 L -10.1289,-70.5547 L -10.2893,-70.8956 L -10.4057,-71.2539 L -10.4763,-71.624
 L -10.5,-72 L -10.4763,-72.376 L -10.4057,-72.7461 L -10.2893,-73.1044 L -10.1289,-73.4453 L -9.92705,-73.7634
 L -9.6869,-74.0536 L -9.41226,-74.3115 L -9.10747,-74.533 L -8.77733,-74.7145 L -8.42705,-74.8532 L -8.06213,-74.9469
 L -7.68837,-74.9941 L -7.31161,-74.9941 L -6.93785,-74.9469 L -6.57294,-74.8532 L -6.22266,-74.7145 L -5.89252,-74.533
 L -5.58772,-74.3115 L -5.31308,-74.0536 L -5.07294,-73.7634 L -4.87108,-73.4453 L -4.71066,-73.1044 L -4.59424,-72.7461
 L -4.52365,-72.376 L -4.5,-72 L -4.52365,-71.624 L -4.59424,-71.2539 L -4.71066,-70.8956 L -4.87108,-70.5547
 L -5.07294,-70.2366 L -5.31308,-69.9464 L -5.58772,-69.6885 L -5.89252,-69.467 L -6.22266,-69.2855 L -6.57294,-69.1468
 L -6.93785,-69.0531 L -7.31161,-69.0059 z
M 22.3116,-69.0059 L 21.9379,-69.0531 L 21.5729,-69.1468 L 21.2227,-69.2855 L 20.8925,-69.467 L 20.5877,-69.6885
 L 20.3131,-69.9464 L 20.0729,-70.2366 L 19.8711,-70.5547 L 19.7107,-70.8956 L 19.5942,-71.2539 L 19.5237,-71.624
 L 19.5,-72 L 19.5237,-72.376 L 19.5942,-72.7461 L 19.7107,-73.1044 L 19.8711,-73.4453 L 20.0729,-73.7634
 L 20.3131,-74.0536 L 20.5877,-74.3115 L 20.8925,-74.533 L 21.2227,-74.7145 L 21.5729,-74.8532 L 21.9379,-74.9469
 L 22.3116,-74.9941 L 22.6884,-74.9941 L 23.0621,-74.9469 L 23.427,-74.8532 L 23.7773,-74.7145 L 24.1075,-74.533
 L 24.4123,-74.3115 L 24.6869,-74.0536 L 24.927,-73.7634 L 25.1289,-73.4453 L 25.2893,-73.1044 L 25.4057,-72.7461
 L 25.4763,-72.376 L 25.5,-72 L 25.4763,-71.624 L 25.4057,-71.2539 L 25.2893,-70.8956 L 25.1289,-70.5547
 L 24.927,-70.2366 L 24.6869,-69.9464 L 24.4123,-69.6885 L 24.1075,-69.467 L 23.7773,-69.2855 L 23.427,-69.1468
 L 23.0621,-69.0531 L 22.6884,-69.0059 z
M 37.3116,-69.0059 L 36.9379,-69.0531 L 36.5729,-69.1468 L 36.2227,-69.2855 L 35.8925,-69.467 L 35.5877,-69.6885
 L 35.3131,-69.9464 L 35.0729,-70.2366 L 34.8711,-70.5547 L 34.7107,-70.8956 L 34.5942,-71.2539 L 34.5237,-71.624
 L 34.5,-72 L 34.5237,-72.376 L 34.5942,-72.7461 L 34.7107,-73.1044 L 34.8711,-73.4453 L 35.0729,-73.7634
 L 35.3131,-74.0536 L 35.5877,-74.3115 L 35.8925,-74.533 L 36.2227,-74.7145 L 36.5729,-74.8532 L 36.9379,-74.9469
 L 37.3116,-74.9941 L 37.6884,-74.9941 L 38.0621,-74.9469 L 38.427,-74.8532 L 38.7773,-74.7145 L 39.1075,-74.533
 L 39.4123,-74.3115 L 39.6869,-74.0536 L 39.927,-73.7634 L 40.1289,-73.4453 L 40.2893,-73.1044 L 40.4057,-72.7461
 L 40.4763,-72.376 L 40.5,-72 L 40.4763,-71.624 L 40.4057,-71.2539 L 40.2893,-70.8956 L 40.1289,-70.5547
 L 39.927,-70.2366 L 39.6869,-69.9464 L 39.4123,-69.6885 L 39.1075,-69.467 L 38.7773,-69.2855 L 38.427,-69.1468
 L 38.0621,-69.0531 L 37.6884,-69.0059 z
M -67.6884,-69.0059 L -68.0621,-69.0531 L -68.427,-69.1468 L -68.7773,-69.2855 L -69.1075,-69.467 L -69.4123,-69.6885
 L -69.6869,-69.9464 L -69.927,-70.2366 L -70.1289,-70.5547 L -70.2893,-70.8956 L -70.4057,-71.2539 L -70.4763,-71.624
 L -70.5,-72 L -70.4763,-72.376 L -70.4057,-72.7461 L -70.2893,-73.1044 L -70.1289,-73.4453 L -69.927,-73.7634
 L -69.6869,-74.0536 L -69.4123,-74.3115 L -69.1075,-74.533 L -68.7773,-74.7145 L -68.427,-74.8532 L -68.0621,-74.9469
 L -67.6884,-74.9941 L -67.3116,-74.9941 L -66.9379,-74.9469 L -66.573,-74.8532 L -66.2227,-74.7145 L -65.8925,-74.533
 L -65.5877,-74.3115 L -65.3131,-74.0536 L -65.073,-73.7634 L -64.8711,-73.4453 L -64.7107,-73.1044 L -64.5943,-72.7461
 L -64.5237,-72.376 L -64.5,-72 L -64.5237,-71.624 L -64.5943,-71.2539 L -64.7107,-70.8956 L -64.8711,-70.5547
 L -65.073,-70.2366 L -65.3131,-69.9464 L -65.5877,-69.6885 L -65.8925,-69.467 L -66.2227,-69.2855 L -66.573,-69.1468
 L -66.9379,-69.0531 L -67.3116,-69.0059 z
M -52.6884,-69.0059 L -53.0621,-69.0531 L -53.427,-69.1468 L -53.7773,-69.2855 L -54.1075,-69.467 L -54.4123,-69.6885
 L -54.6869,-69.9464 L -54.927,-70.2366 L -55.1289,-70.5547 L -55.2893,-70.8956 L -55.4057,-71.2539 L -55.4763,-71.624
 L -55.5,-72 L -55.4763,-72.376 L -55.4057,-72.7461 L -55.2893,-73.1044 L -55.1289,-73.4453 L -54.927,-73.7634
 L -54.6869,-74.0536 L -54.4123,-74.3115 L -54.1075,-74.533 L -53.7773,-74.7145 L -53.427,-74.8532 L -53.0621,-74.9469
 L -52.6884,-74.9941 L -52.3116,-74.9941 L -51.9379,-74.9469 L -51.5729,-74.8532 L -51.2227,-74.7145 L -50.8925,-74.533
 L -50.5877,-74.3115 L -50.3131,-74.0536 L -50.0729,-73.7634 L -49.8711,-73.4453 L -49.7107,-73.1044 L -49.5942,-72.7461
 L -49.5237,-72.376 L -49.5,-72 L -49.5237,-71.624 L -49.5942,-71.2539 L -49.7107,-70.8956 L -49.8711,-70.5547
 L -50.0729,-70.2366 L -50.3131,-69.9464 L -50.5877,-69.6885 L -50.8925,-69.467 L -51.2227,-69.2855 L -51.5729,-69.1468
 L -51.9379,-69.0531 L -52.3116,-69.0059 z
M 7.31161,-69.0059 L 6.93785,-69.0531 L 6.57294,-69.1468 L 6.22266,-69.2855 L 5.89252,-69.467 L 5.58772,-69.6885
 L 5.31308,-69.9464 L 5.07294,-70.2366 L 4.87108,-70.5547 L 4.71066,-70.8956 L 4.59424,-71.2539 L 4.52365,-71.624
 L 4.5,-72 L 4.52365,-72.376 L 4.59424,-72.7461 L 4.71066,-73.1044 L 4.87108,-73.4453 L 5.07294,-73.7634
 L 5.31308,-74.0536 L 5.58772,-74.3115 L 5.89252,-74.533 L 6.22266,-74.7145 L 6.57294,-74.8532 L 6.93785,-74.9469
 L 7.31161,-74.9941 L 7.68837,-74.9941 L 8.06213,-74.9469 L 8.42705,-74.8532 L 8.77733,-74.7145 L 9.10747,-74.533
 L 9.41226,-74.3115 L 9.6869,-74.0536 L 9.92705,-73.7634 L 10.1289,-73.4453 L 10.2893,-73.1044 L 10.4057,-72.7461
 L 10.4763,-72.376 L 10.5,-72 L 10.4763,-71.624 L 10.4057,-71.2539 L 10.2893,-70.8956 L 10.1289,-70.5547
 L 9.92705,-70.2366 L 9.6869,-69.9464 L 9.41226,-69.6885 L 9.10747,-69.467 L 8.77733,-69.2855 L 8.42705,-69.1468
 L 8.06213,-69.0531 L 7.68837,-69.0059 z
M -37.6884,-69.0059 L -38.0621,-69.0531 L -38.427,-69.1468 L -38.7773,-69.2855 L -39.1075,-69.467 L -39.4123,-69.6885
 L -39.6869,-69.9464 L -39.927,-70.2366 L -40.1289,-70.5547 L -40.2893,-70.8956 L -40.4057,-71.2539 L -40.4763,-71.624
 L -40.5,-72 L -40.4763,-72.376 L -40.4057,-72.7461 L -40.2893,-73.1044 L -40.1289,-73.4453 L -39.927,-73.7634
 L -39.6869,-74.0536 L -39.4123,-74.3115 L -39.1075,-74.533 L -38.7773,-74.7145 L -38.427,-74.8532 L -38.0621,-74.9469
 L -37.6884,-74.9941 L -37.3116,-74.9941 L -36.9379,-74.9469 L -36.5729,-74.8532 L -36.2227,-74.7145 L -35.8925,-74.533
 L -35.5877,-74.3115 L -35.3131,-74.0536 L -35.0729,-73.7634 L -34.8711,-73.4453 L -34.7107,-73.1044 L -34.5942,-72.7461
 L -34.5237,-72.376 L -34.5,-72 L -34.5237,-71.624 L -34.5942,-71.2539 L -34.7107,-70.8956 L -34.8711,-70.5547
 L -35.0729,-70.2366 L -35.3131,-69.9464 L -35.5877,-69.6885 L -35.8925,-69.467 L -36.2227,-69.2855 L -36.5729,-69.1468
 L -36.9379,-69.0531 L -37.3116,-69.0059 z
M 67.3116,-69.0059 L 66.9379,-69.0531 L 66.573,-69.1468 L 66.2227,-69.2855 L 65.8925,-69.467 L 65.5877,-69.6885
 L 65.3131,-69.9464 L 65.073,-70.2366 L 64.8711,-70.5547 L 64.7107,-70.8956 L 64.5943,-71.2539 L 64.5237,-71.624
 L 64.5,-72 L 64.5237,-72.376 L 64.5943,-72.7461 L 64.7107,-73.1044 L 64.8711,-73.4453 L 65.073,-73.7634
 L 65.3131,-74.0536 L 65.5877,-74.3115 L 65.8925,-74.533 L 66.2227,-74.7145 L 66.573,-74.8532 L 66.9379,-74.9469
 L 67.3116,-74.9941 L 67.6884,-74.9941 L 68.0621,-74.9469 L 68.427,-74.8532 L 68.7773,-74.7145 L 69.1075,-74.533
 L 69.4123,-74.3115 L 69.6869,-74.0536 L 69.927,-73.7634 L 70.1289,-73.4453 L 70.2893,-73.1044 L 70.4057,-72.7461
 L 70.4763,-72.376 L 70.5,-72 L 70.4763,-71.624 L 70.4057,-71.2539 L 70.2893,-70.8956 L 70.1289,-70.5547
 L 69.927,-70.2366 L 69.6869,-69.9464 L 69.4123,-69.6885 L 69.1075,-69.467 L 68.7773,-69.2855 L 68.427,-69.1468
 L 68.0621,-69.0531 L 67.6884,-69.0059 z
M 52.3116,-69.0059 L 51.9379,-69.0531 L 51.5729,-69.1468 L 51.2227,-69.2855 L 50.8925,-69.467 L 50.5877,-69.6885
 L 50.3131,-69.9464 L 50.0729,-70.2366 L 49.8711,-70.5547 L 49.7107,-70.8956 L 49.5942,-71.2539 L 49.5237,-71.624
 L 49.5,-72 L 49.5237,-72.376 L 49.5942,-72.7461 L 49.7107,-73.1044 L 49.8711,-73.4453 L 50.0729,-73.7634
 L 50.3131,-74.0536 L 50.5877,-74.3115 L 50.8925,-74.533 L 51.2227,-74.7145 L 51.5729,-74.8532 L 51.9379,-74.9469
 L 52.3116,-74.9941 L 52.6884,-74.9941 L 53.0621,-74.9469 L 53.427,-74.8532 L 53.7773,-74.7145 L 54.1075,-74.533
 L 54.4123,-74.3115 L 54.6869,-74.0536 L 54.927,-73.7634 L 55.1289,-73.4453 L 55.2893,-73.1044 L 55.4057,-72.7461
 L 55.4763,-72.376 L 55.5,-72 L 55.4763,-71.624 L 55.4057,-71.2539 L 55.2893,-70.8956 L 55.1289,-70.5547
 L 54.927,-70.2366 L 54.6869,-69.9464 L 54.4123,-69.6885 L 54.1075,-69.467 L 53.7773,-69.2855 L 53.427,-69.1468
 L 53.0621,-69.0531 L 52.6884,-69.0059 z
M 70.4369,-41.0886 L 71.0451,-41.2447 L 71.6289,-41.4759 L 72.1791,-41.7784 L 72.6871,-42.1474 L 73.1448,-42.5773
 L 73.5451,-43.0611 L 73.8815,-43.5912 L 74.1489,-44.1594 L 74.3429,-44.7566 L 74.4606,-45.3733 L 74.5,-46
 L 74.5,-50 L 74.4606,-50.6267 L 74.3429,-51.2434 L 74.1489,-51.8406 L 73.8815,-52.4088 L 73.5451,-52.9389
 L 73.1448,-53.4227 L 72.6871,-53.8526 L 72.1791,-54.2216 L 71.6289,-54.5241 L 71.0451,-54.7553 L 70.4369,-54.9114
 L 69.8139,-54.9901 L -69.8139,-54.9901 L -70.4369,-54.9114 L -71.0451,-54.7553 L -71.6289,-54.5241 L -72.1791,-54.2216
 L -72.6871,-53.8526 L -73.1448,-53.4227 L -73.5451,-52.9389 L -73.8815,-52.4088 L -74.1489,-51.8406 L -74.3429,-51.2434
 L -74.4606,-50.6267 L -74.5,-50 L -74.5,-46 L -74.4606,-45.3733 L -74.3429,-44.7566 L -74.1489,-44.1594
 L -73.8815,-43.5912 L -73.5451,-43.0611 L -73.1448,-42.5773 L -72.6871,-42.1474 L -72.1791,-41.7784 L -71.6289,-41.4759
 L -71.0451,-41.2447 L -70.4369,-41.0886 L -69.8139,-41.0099 L 69.8139,-41.0099 z
M -22.6884,-45.0059 L -23.0621,-45.0531 L -23.427,-45.1468 L -23.7773,-45.2855 L -24.1075,-45.467 L -24.4123,-45.6885
 L -24.6869,-45.9464 L -24.927,-46.2366 L -25.1289,-46.5547 L -25.2893,-46.8956 L -25.4057,-47.2539 L -25.4763,-47.624
 L -25.5,-48 L -25.4763,-48.376 L -25.4057,-48.7461 L -25.2893,-49.1044 L -25.1289,-49.4453 L -24.927,-49.7634
 L -24.6869,-50.0536 L -24.4123,-50.3115 L -24.1075,-50.533 L -23.7773,-50.7145 L -23.427,-50.8532 L -23.0621,-50.9469
 L -22.6884,-50.9941 L -22.3116,-50.9941 L -21.9379,-50.9469 L -21.5729,-50.8532 L -21.2227,-50.7145 L -20.8925,-50.533
 L -20.5877,-50.3115 L -20.3131,-50.0536 L -20.0729,-49.7634 L -19.8711,-49.4453 L -19.7107,-49.1044 L -19.5942,-48.7461
 L -19.5237,-48.376 L -19.5,-48 L -19.5237,-47.624 L -19.5942,-47.2539 L -19.7107,-46.8956 L -19.8711,-46.5547
 L -20.0729,-46.2366 L -20.3131,-45.9464 L -20.5877,-45.6885 L -20.8925,-45.467 L -21.2227,-45.2855 L -21.5729,-45.1468
 L -21.9379,-45.0531 L -22.3116,-45.0059 z
M 22.3116,-45.0059 L 21.9379,-45.0531 L 21.5729,-45.1468 L 21.2227,-45.2855 L 20.8925,-45.467 L 20.5877,-45.6885
 L 20.3131,-45.9464 L 20.0729,-46.2366 L 19.8711,-46.5547 L 19.7107,-46.8956 L 19.5942,-47.2539 L 19.5237,-47.624
 L 19.5,-48 L 19.5237,-48.376 L 19.5942,-48.7461 L 19.7107,-49.1044 L 19.8711,-49.4453 L 20.0729,-49.7634
 L 20.3131,-50.0536 L 20.5877,-50.3115 L 20.8925,-50.533 L 21.2227,-50.7145 L 21.5729,-50.8532 L 21.9379,-50.9469
 L 22.3116,-50.9941 L 22.6884,-50.9941 L 23.0621,-50.9469 L 23.427,-50.8532 L 23.7773,-50.7145 L 24.1075,-50.533
 L 24.4123,-50.3115 L 24.6869,-50.0536 L 24.927,-49.7634 L 25.1289,-49.4453 L 25.2893,-49.1044 L 25.4057,-48.7461
 L 25.4763,-48.376 L 25.5,-48 L 25.4763,-47.624 L 25.4057,-47.2539 L 25.2893,-46.8956 L 25.1289,-46.5547
 L 24.927,-46.2366 L 24.6869,-45.9464 L 24.4123,-45.6885 L 24.1075,-45.467 L 23.7773,-45.2855 L 23.427,-45.1468
 L 23.0621,-45.0531 L 22.6884,-45.0059 z
M 7.31161,-45.0059 L 6.93785,-45.0531 L 6.57294,-45.1468 L 6.22266,-45.2855 L 5.89252,-45.467 L 5.58772,-45.6885
 L 5.31308,-45.9464 L 5.07294,-46.2366 L 4.87108,-46.5547 L 4.71066,-46.8956 L 4.59424,-47.2539 L 4.52365,-47.624
 L 4.5,-48 L 4.52365,-48.376 L 4.59424,-48.7461 L 4.71066,-49.1044 L 4.87108,-49.4453 L 5.07294,-49.7634
 L 5.31308,-50.0536 L 5.58772,-50.3115 L 5.89252,-50.533 L 6.22266,-50.7145 L 6.57294,-50.8532 L 6.93785,-50.9469
 L 7.31161,-50.9941 L 7.68837,-50.9941 L 8.06213,-50.9469 L 8.42705,-50.8532 L 8.77733,-50.7145 L 9.10747,-50.533
 L 9.41226,-50.3115 L 9.6869,-50.0536 L 9.92705,-49.7634 L 10.1289,-49.4453 L 10.2893,-49.1044 L 10.4057,-48.7461
 L 10.4763,-48.376 L 10.5,-48 L 10.4763,-47.624 L 10.4057,-47.2539 L 10.2893,-46.8956 L 10.1289,-46.5547
 L 9.92705,-46.2366 L 9.6869,-45.9464 L 9.41226,-45.6885 L 9.10747,-45.467 L 8.77733,-45.2855 L 8.42705,-45.1468
 L 8.06213,-45.0531 L 7.68837,-45.0059 z
M 37.3116,-45.0059 L 36.9379,-45.0531 L 36.5729,-45.1468 L 36.2227,-45.2855 L 35.8925,-45.467 L 35.5877,-45.6885
 L 35.3131,-45.9464 L 35.0729,-46.2366 L 34.8711,-46.5547 L 34.7107,-46.8956 L 34.5942,-47.2539 L 34.5237,-47.624
 L 34.5,-48 L 34.5237,-48.376 L 34.5942,-48.7461 L 34.7107,-49.1044 L 34.8711,-49.4453 L 35.0729,-49.7634
 L 35.3131,-50.0536 L 35.5877,-50.3115 L 35.8925,-50.533 L 36.2227,-50.7145 L 36.5729,-50.8532 L 36.9379,-50.9469
 L 37.3116,-50.9941 L 37.6884,-50.9941 L 38.0621,-50.9469 L 38.427,-50.8532 L 38.7773,-50.7145 L 39.1075,-50.533
 L 39.4123,-50.3115 L 39.6869,-50.0536 L 39.927,-49.7634 L 40.1289,-49.4453 L 40.2893,-49.1044 L 40.4057,-48.7461
 L 40.4763,-48.376 L 40.5,-48 L 40.4763,-47.624 L 40.4057,-47.2539 L 40.2893,-46.8956 L 40.1289,-46.5547
 L 39.927,-46.2366 L 39.6869,-45.9464 L 39.4123,-45.6885 L 39.1075,-45.467 L 38.7773,-45.2855 L 38.427,-45.1468
 L 38.0621,-45.0531 L 37.6884,-45.0059 z
M -52.6884,-45.0059 L -53.0621,-45.0531 L -53.427,-45.1468 L -53.7773,-45.2855 L -54.1075,-45.467 L -54.4123,-45.6885
 L -54.6869,-45.9464 L -54.927,-46.2366 L -55.1289,-46.5547 L -55.2893,-46.8956 L -55.4057,-47.2539 L -55.4763,-47.624
 L -55.5,-48 L -55.4763,-48.376 L -55.4057,-48.7461 L -55.2893,-49.1044 L -55.1289,-49.4453 L -54.927,-49.7634
 L -54.6869,-50.0536 L -54.4123,-50.3115 L -54.1075,-50.533 L -53.7773,-50.7145 L -53.427,-50.8532 L -53.0621,-50.9469
 L -52.6884,-50.9941 L -52.3116,-50.9941 L -51.9379,-50.9469 L -51.5729,-50.8532 L -51.2227,-50.7145 L -50.8925,-50.533
 L -50.5877,-50.3115 L -50.3131,-50.0536 L -50.0729,-49.7634 L -49.8711,-49.4453 L -49.7107,-49.1044 L -49.5942,-48.7461
 L -49.5237,-48.376 L -49.5,-48 L -49.5237,-47.624 L -49.5942,-47.2539 L -49.7107,-46.8956 L -49.8711,-46.5547
 L -50.0729,-46.2366 L -50.3131,-45.9464 L -50.5877,-45.6885 L -50.8925,-45.467 L -51.2227,-45.2855 L -51.5729,-45.1468
 L -51.9379,-45.0531 L -52.3116,-45.0059 z
M 67.3116,-45.0059 L 66.9379,-45.0531 L 66.573,-45.1468 L 66.2227,-45.2855 L 65.8925,-45.467 L 65.5877,-45.6885
 L 65.3131,-45.9464 L 65.073,-46.2366 L 64.8711,-46.5547 L 64.7107,-46.8956 L 64.5943,-47.2539 L 64.5237,-47.624
 L 64.5,-48 L 64.5237,-48.376 L 64.5943,-48.7461 L 64.7107,-49.1044 L 64.8711,-49.4453 L 65.073,-49.7634
 L 65.3131,-50.0536 L 65.5877,-50.3115 L 65.8925,-50.533 L 66.2227,-50.7145 L 66.573,-50.8532 L 66.9379,-50.9469
 L 67.3116,-50.9941 L 67.6884,-50.9941 L 68.0621,-50.9469 L 68.427,-50.8532 L 68.7773,-50.7145 L 69.1075,-50.533
 L 69.4123,-50.3115 L 69.6869,-50.0536 L 69.927,-49.7634 L 70.1289,-49.4453 L 70.2893,-49.1044 L 70.4057,-48.7461
 L 70.4763,-48.376 L 70.5,-48 L 70.4763,-47.624 L 70.4057,-47.2539 L 70.2893,-46.8956 L 70.1289,-46.5547
 L 69.927,-46.2366 L 69.6869,-45.9464 L 69.4123,-45.6885 L 69.1075,-45.467 L 68.7773,-45.2855 L 68.427,-45.1468
 L 68.0621,-45.0531 L 67.6884,-45.0059 z
M -7.68837,-45.0059 L -8.06213,-45.0531 L -8.42705,-45.1468 L -8.77733,-45.2855 L -9.10747,-45.467 L -9.41226,-45.6885
 L -9.6869,-45.9464 L -9.92705,-46.2366 L -10.1289,-46.5547 L -10.2893,-46.8956 L -10.4057,-47.2539 L -10.4763,-47.624
 L -10.5,-48 L -10.4763,-48.376 L -10.4057,-48.7461 L -10.2893,-49.1044 L -10.1289,-49.4453 L -9.92705,-49.7634
 L -9.6869,-50.0536 L -9.41226,-50.3115 L -9.10747,-50.533 L -8.77733,-50.7145 L -8.42705,-50.8532 L -8.06213,-50.9469
 L -7.68837,-50.9941 L -7.31161,-50.9941 L -6.93785,-50.9469 L -6.57294,-50.8532 L -6.22266,-50.7145 L -5.89252,-50.533
 L -5.58772,-50.3115 L -5.31308,-50.0536 L -5.07294,-49.7634 L -4.87108,-49.4453 L -4.71066,-49.1044 L -4.59424,-48.7461
 L -4.52365,-48.376 L -4.5,-48 L -4.52365,-47.624 L -4.59424,-47.2539 L -4.71066,-46.8956 L -4.87108,-46.5547
 L -5.07294,-46.2366 L -5.31308,-45.9464 L -5.58772,-45.6885 L -5.89252,-45.467 L -6.22266,-45.2855 L -6.57294,-45.1468
 L -6.93785,-45.0531 L -7.31161,-45.0059 z
M -37.6884,-45.0059 L -38.0621,-45.0531 L -38.427,-45.1468 L -38.7773,-45.2855 L -39.1075,-45.467 L -39.4123,-45.6885
 L -39.6869,-45.9464 L -39.927,-46.2366 L -40.1289,-46.5547 L -40.2893,-46.8956 L -40.4057,-47.2539 L -40.4763,-47.624
 L -40.5,-48 L -40.4763,-48.376 L -40.4057,-48.7461 L -40.2893,-49.1044 L -40.1289,-49.4453 L -39.927,-49.7634
 L -39.6869,-50.0536 L -39.4123,-50.3115 L -39.1075,-50.533 L -38.7773,-50.7145 L -38.427,-50.8532 L -38.0621,-50.9469
 L -37.6884,-50.9941 L -37.3116,-50.9941 L -36.9379,-50.9469 L -36.5729,-50.8532 L -36.2227,-50.7145 L -35.8925,-50.533
 L -35.5877,-50.3115 L -35.3131,-50.0536 L -35.0729,-49.7634 L -34.8711,-49.4453 L -34.7107,-49.1044 L -34.5942,-48.7461
 L -34.5237,-48.376 L -34.5,-48 L -34.5237,-47.624 L -34.5942,-47.2539 L -34.7107,-46.8956 L -34.8711,-46.5547
 L -35.0729,-46.2366 L -35.3131,-45.9464 L -35.5877,-45.6885 L -35.8925,-45.467 L -36.2227,-45.2855 L -36.5729,-45.1468
 L -36.9379,-45.0531 L -37.3116,-45.0059 z
M 52.3116,-45.0059 L 51.9379,-45.0531 L 51.5729,-45.1468 L 51.2227,-45.2855 L 50.8925,-45.467 L 50.5877,-45.6885
 L 50.3131,-45.9464 L 50.0729,-46.2366 L 49.8711,-46.5547 L 49.7107,-46.8956 L 49.5942,-47.2539 L 49.5237,-47.624
 L 49.5,-48 L 49.5237,-48.376 L 49.5942,-48.7461 L 49.7107,-49.1044 L 49.8711,-49.4453 L 50.0729,-49.7634
 L 50.3131,-50.0536 L 50.5877,-50.3115 L 50.8925,-50.533 L 51.2227,-50.7145 L 51.5729,-50.8532 L 51.9379,-50.9469
 L 52.3116,-50.9941 L 52.6884,-50.9941 L 53.0621,-50.9469 L 53.427,-50.8532 L 53.7773,-50.7145 L 54.1075,-50.533
 L 54.4123,-50.3115 L 54.6869,-50.0536 L 54.927,-49.7634 L 55.1289,-49.4453 L 55.2893,-49.1044 L 55.4057,-48.7461
 L 55.4763,-48.376 L 55.5,-48 L 55.4763,-47.624 L 55.4057,-47.2539 L 55.2893,-46.8956 L 55.1289,-46.5547
 L 54.927,-46.2366 L 54.6869,-45.9464 L 54.4123,-45.6885 L 54.1075,-45.467 L 53.7773,-45.2855 L 53.427,-45.1468
 L 53.0621,-45.0531 L 52.6884,-45.0059 z
M -67.6884,-45.0059 L -68.0621,-45.0531 L -68.427,-45.1468 L -68.7773,-45.2855 L -69.1075,-45.467 L -69.4123,-45.6885
 L -69.6869,-45.9464 L -69.927,-46.2366 L -70.1289,-46.5547 L -70.2893,-46.8956 L -70.4057,-47.2539 L -70.4763,-47.624
 L -70.5,-48 L -70.4763,-48.376 L -70.4057,-48.7461 L -70.2893,-49.1044 L -70.1289,-49.4453 L -69.927,-49.7634
 L -69.6869,-50.0536 L -69.4123,-50.3115 L -69.1075,-50.533 L -68.7773,-50.7145 L -68.427,-50.8532 L -68.0621,-50.9469
 L -67.6884,-50.9941 L -67.3116,-50.9941 L -66.9379,-50.9469 L -66.573,-50.8532 L -66.2227,-50.7145 L -65.8925,-50.533
 L -65.5877,-50.3115 L -65.3131,-50.0536 L -65.073,-49.7634 L -64.8711,-49.4453 L -64.7107,-49.1044 L -64.5943,-48.7461
 L -64.5237,-48.376 L -64.5,-48 L -64.5237,-47.624 L -64.5943,-47.2539 L -64.7107,-46.8956 L -64.8711,-46.5547
 L -65.073,-46.2366 L -65.3131,-45.9464 L -65.5877,-45.6885 L -65.8925,-45.467 L -66.2227,-45.2855 L -66.573,-45.1468
 L -66.9379,-45.0531 L -67.3116,-45.0059 z
" stroke="black" fill="lightgray" stroke-width="0.5"/>
</svg>
