  0
SECTION
  2
BLOCKS
  0
ENDSEC
  0
SECTION
  2
ENTITIES
  0
LINE
  8
0
 10
1.31166
 20
41.124
 11
2.16312
 21
41.3426
  0
LINE
  8
0
 10
2.16312
 20
41.3426
 11
2.98045
 21
41.6662
  0
LINE
  8
0
 10
2.98045
 20
41.6662
 11
3.75078
 21
42.0897
  0
LINE
  8
0
 10
3.75078
 20
42.0897
 11
4.46196
 21
42.6064
  0
LINE
  8
0
 10
4.46196
 20
42.6064
 11
5.10277
 21
43.2082
  0
LINE
  8
0
 10
5.10277
 20
43.2082
 11
5.66312
 21
43.8855
  0
LINE
  8
0
 10
5.66312
 20
43.8855
 11
6.13414
 21
44.6277
  0
LINE
  8
0
 10
6.13414
 20
44.6277
 11
6.50842
 21
45.4231
  0
LINE
  8
0
 10
6.50842
 20
45.4231
 11
6.78008
 21
46.2592
  0
LINE
  8
0
 10
6.78008
 20
46.2592
 11
6.94479
 21
47.1227
  0
LINE
  8
0
 10
6.94479
 20
47.1227
 11
7
 21
48
  0
LINE
  8
0
 10
7
 20
48
 11
6.94479
 21
48.8773
  0
LINE
  8
0
 10
6.94479
 20
48.8773
 11
6.78008
 21
49.7408
  0
LINE
  8
0
 10
6.78008
 20
49.7408
 11
6.50842
 21
50.5769
  0
LINE
  8
0
 10
6.50842
 20
50.5769
 11
6.13414
 21
51.3723
  0
LINE
  8
0
 10
6.13414
 20
51.3723
 11
5.66312
 21
52.1145
  0
LINE
  8
0
 10
5.66312
 20
52.1145
 11
5.10277
 21
52.7918
  0
LINE
  8
0
 10
5.10277
 20
52.7918
 11
4.46196
 21
53.3936
  0
LINE
  8
0
 10
4.46196
 20
53.3936
 11
3.75078
 21
53.9103
  0
LINE
  8
0
 10
3.75078
 20
53.9103
 11
2.98045
 21
54.3338
  0
LINE
  8
0
 10
2.98045
 20
54.3338
 11
2.16312
 21
54.6574
  0
LINE
  8
0
 10
2.16312
 20
54.6574
 11
1.31166
 21
54.876
  0
LINE
  8
0
 10
1.31166
 20
54.876
 11
0.439529
 21
54.9862
  0
LINE
  8
0
 10
0.439529
 20
54.9862
 11
-0.439529
 21
54.9862
  0
LINE
  8
0
 10
-0.439529
 20
54.9862
 11
-1.31166
 21
54.876
  0
LINE
  8
0
 10
-1.31166
 20
54.876
 11
-2.16312
 21
54.6574
  0
LINE
  8
0
 10
-2.16312
 20
54.6574
 11
-2.98045
 21
54.3338
  0
LINE
  8
0
 10
-2.98045
 20
54.3338
 11
-3.75078
 21
53.9103
  0
LINE
  8
0
 10
-3.75078
 20
53.9103
 11
-4.46196
 21
53.3936
  0
LINE
  8
0
 10
-4.46196
 20
53.3936
 11
-5.10277
 21
52.7918
  0
LINE
  8
0
 10
-5.10277
 20
52.7918
 11
-5.66312
 21
52.1145
  0
LINE
  8
0
 10
-5.66312
 20
52.1145
 11
-6.13414
 21
51.3723
  0
LINE
  8
0
 10
-6.13414
 20
51.3723
 11
-6.50842
 21
50.5769
  0
LINE
  8
0
 10
-6.50842
 20
50.5769
 11
-6.78008
 21
49.7408
  0
LINE
  8
0
 10
-6.78008
 20
49.7408
 11
-6.94479
 21
48.8773
  0
LINE
  8
0
 10
-6.94479
 20
48.8773
 11
-7
 21
48
  0
LINE
  8
0
 10
-7
 20
48
 11
-6.94479
 21
47.1227
  0
LINE
  8
0
 10
-6.94479
 20
47.1227
 11
-6.78008
 21
46.2592
  0
LINE
  8
0
 10
-6.78008
 20
46.2592
 11
-6.50842
 21
45.4231
  0
LINE
  8
0
 10
-6.50842
 20
45.4231
 11
-6.13414
 21
44.6277
  0
LINE
  8
0
 10
-6.13414
 20
44.6277
 11
-5.66312
 21
43.8855
  0
LINE
  8
0
 10
-5.66312
 20
43.8855
 11
-5.10277
 21
43.2082
  0
LINE
  8
0
 10
-5.10277
 20
43.2082
 11
-4.46196
 21
42.6064
  0
LINE
  8
0
 10
-4.46196
 20
42.6064
 11
-3.75078
 21
42.0897
  0
LINE
  8
0
 10
-3.75078
 20
42.0897
 11
-2.98045
 21
41.6662
  0
LINE
  8
0
 10
-2.98045
 20
41.6662
 11
-2.16312
 21
41.3426
  0
LINE
  8
0
 10
-2.16312
 20
41.3426
 11
-1.31166
 21
41.124
  0
LINE
  8
0
 10
-1.31166
 20
41.124
 11
-0.439529
 21
41.0138
  0
LINE
  8
0
 10
-0.439529
 20
41.0138
 11
0.439529
 21
41.0138
  0
LINE
  8
0
 10
0.439529
 20
41.0138
 11
1.31166
 21
41.124
  0
LINE
  8
0
 10
-0.0941772
 20
46.503
 11
-0.281067
 21
46.5266
  0
LINE
  8
0
 10
-0.281067
 20
46.5266
 11
-0.463516
 21
46.5734
  0
LINE
  8
0
 10
-0.463516
 20
46.5734
 11
-0.638657
 21
46.6428
  0
LINE
  8
0
 10
-0.638657
 20
46.6428
 11
-0.803726
 21
46.7335
  0
LINE
  8
0
 10
-0.803726
 20
46.7335
 11
-0.956131
 21
46.8442
  0
LINE
  8
0
 10
-0.956131
 20
46.8442
 11
-1.09344
 21
46.9732
  0
LINE
  8
0
 10
-1.09344
 20
46.9732
 11
-1.21352
 21
47.1183
  0
LINE
  8
0
 10
-1.21352
 20
47.1183
 11
-1.31445
 21
47.2774
  0
LINE
  8
0
 10
-1.31445
 20
47.2774
 11
-1.39465
 21
47.4478
  0
LINE
  8
0
 10
-1.39465
 20
47.4478
 11
-1.45287
 21
47.627
  0
LINE
  8
0
 10
-1.45287
 20
47.627
 11
-1.48816
 21
47.812
  0
LINE
  8
0
 10
-1.48816
 20
47.812
 11
-1.5
 21
48
  0
LINE
  8
0
 10
-1.5
 20
48
 11
-1.48816
 21
48.188
  0
LINE
  8
0
 10
-1.48816
 20
48.188
 11
-1.45287
 21
48.373
  0
LINE
  8
0
 10
-1.45287
 20
48.373
 11
-1.39465
 21
48.5522
  0
LINE
  8
0
 10
-1.39465
 20
48.5522
 11
-1.31445
 21
48.7226
  0
LINE
  8
0
 10
-1.31445
 20
48.7226
 11
-1.21352
 21
48.8817
  0
LINE
  8
0
 10
-1.21352
 20
48.8817
 11
-1.09344
 21
49.0268
  0
LINE
  8
0
 10
-1.09344
 20
49.0268
 11
-0.956131
 21
49.1558
  0
LINE
  8
0
 10
-0.956131
 20
49.1558
 11
-0.803726
 21
49.2665
  0
LINE
  8
0
 10
-0.803726
 20
49.2665
 11
-0.638657
 21
49.3572
  0
LINE
  8
0
 10
-0.638657
 20
49.3572
 11
-0.463516
 21
49.4266
  0
LINE
  8
0
 10
-0.463516
 20
49.4266
 11
-0.281067
 21
49.4734
  0
LINE
  8
0
 10
-0.281067
 20
49.4734
 11
-0.0941772
 21
49.497
  0
LINE
  8
0
 10
-0.0941772
 20
49.497
 11
0.0941772
 21
49.497
  0
LINE
  8
0
 10
0.0941772
 20
49.497
 11
0.281067
 21
49.4734
  0
LINE
  8
0
 10
0.281067
 20
49.4734
 11
0.463516
 21
49.4266
  0
LINE
  8
0
 10
0.463516
 20
49.4266
 11
0.638657
 21
49.3572
  0
LINE
  8
0
 10
0.638657
 20
49.3572
 11
0.803726
 21
49.2665
  0
LINE
  8
0
 10
0.803726
 20
49.2665
 11
0.956131
 21
49.1558
  0
LINE
  8
0
 10
0.956131
 20
49.1558
 11
1.09344
 21
49.0268
  0
LINE
  8
0
 10
1.09344
 20
49.0268
 11
1.21352
 21
48.8817
  0
LINE
  8
0
 10
1.21352
 20
48.8817
 11
1.31445
 21
48.7226
  0
LINE
  8
0
 10
1.31445
 20
48.7226
 11
1.39465
 21
48.5522
  0
LINE
  8
0
 10
1.39465
 20
48.5522
 11
1.45287
 21
48.373
  0
LINE
  8
0
 10
1.45287
 20
48.373
 11
1.48816
 21
48.188
  0
LINE
  8
0
 10
1.48816
 20
48.188
 11
1.5
 21
48
  0
LINE
  8
0
 10
1.5
 20
48
 11
1.48816
 21
47.812
  0
LINE
  8
0
 10
1.48816
 20
47.812
 11
1.45287
 21
47.627
  0
LINE
  8
0
 10
1.45287
 20
47.627
 11
1.39465
 21
47.4478
  0
LINE
  8
0
 10
1.39465
 20
47.4478
 11
1.31445
 21
47.2774
  0
LINE
  8
0
 10
1.31445
 20
47.2774
 11
1.21352
 21
47.1183
  0
LINE
  8
0
 10
1.21352
 20
47.1183
 11
1.09344
 21
46.9732
  0
LINE
  8
0
 10
1.09344
 20
46.9732
 11
0.956131
 21
46.8442
  0
LINE
  8
0
 10
0.956131
 20
46.8442
 11
0.803726
 21
46.7335
  0
LINE
  8
0
 10
0.803726
 20
46.7335
 11
0.638657
 21
46.6428
  0
LINE
  8
0
 10
0.638657
 20
46.6428
 11
0.463516
 21
46.5734
  0
LINE
  8
0
 10
0.463516
 20
46.5734
 11
0.281067
 21
46.5266
  0
LINE
  8
0
 10
0.281067
 20
46.5266
 11
0.0941772
 21
46.503
  0
LINE
  8
0
 10
0.0941772
 20
46.503
 11
-0.0941772
 21
46.503
  0
LINE
  8
0
 10
1.31166
 20
17.124
 11
2.16312
 21
17.3426
  0
LINE
  8
0
 10
2.16312
 20
17.3426
 11
2.98045
 21
17.6662
  0
LINE
  8
0
 10
2.98045
 20
17.6662
 11
3.75078
 21
18.0897
  0
LINE
  8
0
 10
3.75078
 20
18.0897
 11
4.46196
 21
18.6064
  0
LINE
  8
0
 10
4.46196
 20
18.6064
 11
5.10277
 21
19.2082
  0
LINE
  8
0
 10
5.10277
 20
19.2082
 11
5.66312
 21
19.8855
  0
LINE
  8
0
 10
5.66312
 20
19.8855
 11
6.13414
 21
20.6277
  0
LINE
  8
0
 10
6.13414
 20
20.6277
 11
6.50842
 21
21.4231
  0
LINE
  8
0
 10
6.50842
 20
21.4231
 11
6.78008
 21
22.2592
  0
LINE
  8
0
 10
6.78008
 20
22.2592
 11
6.94479
 21
23.1227
  0
LINE
  8
0
 10
6.94479
 20
23.1227
 11
7
 21
24
  0
LINE
  8
0
 10
7
 20
24
 11
6.94479
 21
24.8773
  0
LINE
  8
0
 10
6.94479
 20
24.8773
 11
6.78008
 21
25.7408
  0
LINE
  8
0
 10
6.78008
 20
25.7408
 11
6.50842
 21
26.5769
  0
LINE
  8
0
 10
6.50842
 20
26.5769
 11
6.13414
 21
27.3723
  0
LINE
  8
0
 10
6.13414
 20
27.3723
 11
5.66312
 21
28.1145
  0
LINE
  8
0
 10
5.66312
 20
28.1145
 11
5.10277
 21
28.7918
  0
LINE
  8
0
 10
5.10277
 20
28.7918
 11
4.46196
 21
29.3936
  0
LINE
  8
0
 10
4.46196
 20
29.3936
 11
3.75078
 21
29.9103
  0
LINE
  8
0
 10
3.75078
 20
29.9103
 11
2.98045
 21
30.3338
  0
LINE
  8
0
 10
2.98045
 20
30.3338
 11
2.16312
 21
30.6574
  0
LINE
  8
0
 10
2.16312
 20
30.6574
 11
1.31166
 21
30.876
  0
LINE
  8
0
 10
1.31166
 20
30.876
 11
0.439529
 21
30.9862
  0
LINE
  8
0
 10
0.439529
 20
30.9862
 11
-0.439529
 21
30.9862
  0
LINE
  8
0
 10
-0.439529
 20
30.9862
 11
-1.31166
 21
30.876
  0
LINE
  8
0
 10
-1.31166
 20
30.876
 11
-2.16312
 21
30.6574
  0
LINE
  8
0
 10
-2.16312
 20
30.6574
 11
-2.98045
 21
30.3338
  0
LINE
  8
0
 10
-2.98045
 20
30.3338
 11
-3.75078
 21
29.9103
  0
LINE
  8
0
 10
-3.75078
 20
29.9103
 11
-4.46196
 21
29.3936
  0
LINE
  8
0
 10
-4.46196
 20
29.3936
 11
-5.10277
 21
28.7918
  0
LINE
  8
0
 10
-5.10277
 20
28.7918
 11
-5.66312
 21
28.1145
  0
LINE
  8
0
 10
-5.66312
 20
28.1145
 11
-6.13414
 21
27.3723
  0
LINE
  8
0
 10
-6.13414
 20
27.3723
 11
-6.50842
 21
26.5769
  0
LINE
  8
0
 10
-6.50842
 20
26.5769
 11
-6.78008
 21
25.7408
  0
LINE
  8
0
 10
-6.78008
 20
25.7408
 11
-6.94479
 21
24.8773
  0
LINE
  8
0
 10
-6.94479
 20
24.8773
 11
-7
 21
24
  0
LINE
  8
0
 10
-7
 20
24
 11
-6.94479
 21
23.1227
  0
LINE
  8
0
 10
-6.94479
 20
23.1227
 11
-6.78008
 21
22.2592
  0
LINE
  8
0
 10
-6.78008
 20
22.2592
 11
-6.50842
 21
21.4231
  0
LINE
  8
0
 10
-6.50842
 20
21.4231
 11
-6.13414
 21
20.6277
  0
LINE
  8
0
 10
-6.13414
 20
20.6277
 11
-5.66312
 21
19.8855
  0
LINE
  8
0
 10
-5.66312
 20
19.8855
 11
-5.10277
 21
19.2082
  0
LINE
  8
0
 10
-5.10277
 20
19.2082
 11
-4.46196
 21
18.6064
  0
LINE
  8
0
 10
-4.46196
 20
18.6064
 11
-3.75078
 21
18.0897
  0
LINE
  8
0
 10
-3.75078
 20
18.0897
 11
-2.98045
 21
17.6662
  0
LINE
  8
0
 10
-2.98045
 20
17.6662
 11
-2.16312
 21
17.3426
  0
LINE
  8
0
 10
-2.16312
 20
17.3426
 11
-1.31166
 21
17.124
  0
LINE
  8
0
 10
-1.31166
 20
17.124
 11
-0.439529
 21
17.0138
  0
LINE
  8
0
 10
-0.439529
 20
17.0138
 11
0.439529
 21
17.0138
  0
LINE
  8
0
 10
0.439529
 20
17.0138
 11
1.31166
 21
17.124
  0
LINE
  8
0
 10
-0.0941772
 20
22.503
 11
-0.281067
 21
22.5266
  0
LINE
  8
0
 10
-0.281067
 20
22.5266
 11
-0.463516
 21
22.5734
  0
LINE
  8
0
 10
-0.463516
 20
22.5734
 11
-0.638657
 21
22.6428
  0
LINE
  8
0
 10
-0.638657
 20
22.6428
 11
-0.803726
 21
22.7335
  0
LINE
  8
0
 10
-0.803726
 20
22.7335
 11
-0.956131
 21
22.8442
  0
LINE
  8
0
 10
-0.956131
 20
22.8442
 11
-1.09344
 21
22.9732
  0
LINE
  8
0
 10
-1.09344
 20
22.9732
 11
-1.21352
 21
23.1183
  0
LINE
  8
0
 10
-1.21352
 20
23.1183
 11
-1.31445
 21
23.2774
  0
LINE
  8
0
 10
-1.31445
 20
23.2774
 11
-1.39465
 21
23.4478
  0
LINE
  8
0
 10
-1.39465
 20
23.4478
 11
-1.45287
 21
23.627
  0
LINE
  8
0
 10
-1.45287
 20
23.627
 11
-1.48816
 21
23.812
  0
LINE
  8
0
 10
-1.48816
 20
23.812
 11
-1.5
 21
24
  0
LINE
  8
0
 10
-1.5
 20
24
 11
-1.48816
 21
24.188
  0
LINE
  8
0
 10
-1.48816
 20
24.188
 11
-1.45287
 21
24.373
  0
LINE
  8
0
 10
-1.45287
 20
24.373
 11
-1.39465
 21
24.5522
  0
LINE
  8
0
 10
-1.39465
 20
24.5522
 11
-1.31445
 21
24.7226
  0
LINE
  8
0
 10
-1.31445
 20
24.7226
 11
-1.21352
 21
24.8817
  0
LINE
  8
0
 10
-1.21352
 20
24.8817
 11
-1.09344
 21
25.0268
  0
LINE
  8
0
 10
-1.09344
 20
25.0268
 11
-0.956131
 21
25.1558
  0
LINE
  8
0
 10
-0.956131
 20
25.1558
 11
-0.803726
 21
25.2665
  0
LINE
  8
0
 10
-0.803726
 20
25.2665
 11
-0.638657
 21
25.3572
  0
LINE
  8
0
 10
-0.638657
 20
25.3572
 11
-0.463516
 21
25.4266
  0
LINE
  8
0
 10
-0.463516
 20
25.4266
 11
-0.281067
 21
25.4734
  0
LINE
  8
0
 10
-0.281067
 20
25.4734
 11
-0.0941772
 21
25.497
  0
LINE
  8
0
 10
-0.0941772
 20
25.497
 11
0.0941772
 21
25.497
  0
LINE
  8
0
 10
0.0941772
 20
25.497
 11
0.281067
 21
25.4734
  0
LINE
  8
0
 10
0.281067
 20
25.4734
 11
0.463516
 21
25.4266
  0
LINE
  8
0
 10
0.463516
 20
25.4266
 11
0.638657
 21
25.3572
  0
LINE
  8
0
 10
0.638657
 20
25.3572
 11
0.803726
 21
25.2665
  0
LINE
  8
0
 10
0.803726
 20
25.2665
 11
0.956131
 21
25.1558
  0
LINE
  8
0
 10
0.956131
 20
25.1558
 11
1.09344
 21
25.0268
  0
LINE
  8
0
 10
1.09344
 20
25.0268
 11
1.21352
 21
24.8817
  0
LINE
  8
0
 10
1.21352
 20
24.8817
 11
1.31445
 21
24.7226
  0
LINE
  8
0
 10
1.31445
 20
24.7226
 11
1.39465
 21
24.5522
  0
LINE
  8
0
 10
1.39465
 20
24.5522
 11
1.45287
 21
24.373
  0
LINE
  8
0
 10
1.45287
 20
24.373
 11
1.48816
 21
24.188
  0
LINE
  8
0
 10
1.48816
 20
24.188
 11
1.5
 21
24
  0
LINE
  8
0
 10
1.5
 20
24
 11
1.48816
 21
23.812
  0
LINE
  8
0
 10
1.48816
 20
23.812
 11
1.45287
 21
23.627
  0
LINE
  8
0
 10
1.45287
 20
23.627
 11
1.39465
 21
23.4478
  0
LINE
  8
0
 10
1.39465
 20
23.4478
 11
1.31445
 21
23.2774
  0
LINE
  8
0
 10
1.31445
 20
23.2774
 11
1.21352
 21
23.1183
  0
LINE
  8
0
 10
1.21352
 20
23.1183
 11
1.09344
 21
22.9732
  0
LINE
  8
0
 10
1.09344
 20
22.9732
 11
0.956131
 21
22.8442
  0
LINE
  8
0
 10
0.956131
 20
22.8442
 11
0.803726
 21
22.7335
  0
LINE
  8
0
 10
0.803726
 20
22.7335
 11
0.638657
 21
22.6428
  0
LINE
  8
0
 10
0.638657
 20
22.6428
 11
0.463516
 21
22.5734
  0
LINE
  8
0
 10
0.463516
 20
22.5734
 11
0.281067
 21
22.5266
  0
LINE
  8
0
 10
0.281067
 20
22.5266
 11
0.0941772
 21
22.503
  0
LINE
  8
0
 10
0.0941772
 20
22.503
 11
-0.0941772
 21
22.503
  0
ENDSEC
  0
SECTION
  2
OBJECTS
  0
DICTIONARY
  0
ENDSEC
  0
EOF
