  0
SECTION
  2
BLOCKS
  0
ENDSEC
  0
SECTION
  2
ENTITIES
  0
LINE
  8
0
 10
25.4369
 20
-29.4114
 11
26.0451
 21
-29.2553
  0
LINE
  8
0
 10
26.0451
 20
-29.2553
 11
26.6289
 21
-29.0241
  0
LINE
  8
0
 10
26.6289
 20
-29.0241
 11
27.1791
 21
-28.7216
  0
LINE
  8
0
 10
27.1791
 20
-28.7216
 11
27.6871
 21
-28.3526
  0
LINE
  8
0
 10
27.6871
 20
-28.3526
 11
28.1448
 21
-27.9227
  0
LINE
  8
0
 10
28.1448
 20
-27.9227
 11
28.5451
 21
-27.4389
  0
LINE
  8
0
 10
28.5451
 20
-27.4389
 11
28.8815
 21
-26.9088
  0
LINE
  8
0
 10
28.8815
 20
-26.9088
 11
29.1489
 21
-26.3406
  0
LINE
  8
0
 10
29.1489
 20
-26.3406
 11
29.3429
 21
-25.7434
  0
LINE
  8
0
 10
29.3429
 20
-25.7434
 11
29.4606
 21
-25.1267
  0
LINE
  8
0
 10
29.4606
 20
-25.1267
 11
29.5
 21
-24.5
  0
LINE
  8
0
 10
29.5
 20
-24.5
 11
29.5
 21
24.5
  0
LINE
  8
0
 10
29.5
 20
24.5
 11
29.4606
 21
25.1267
  0
LINE
  8
0
 10
29.4606
 20
25.1267
 11
29.3429
 21
25.7434
  0
LINE
  8
0
 10
29.3429
 20
25.7434
 11
29.1489
 21
26.3406
  0
LINE
  8
0
 10
29.1489
 20
26.3406
 11
28.8815
 21
26.9088
  0
LINE
  8
0
 10
28.8815
 20
26.9088
 11
28.5451
 21
27.4389
  0
LINE
  8
0
 10
28.5451
 20
27.4389
 11
28.1448
 21
27.9227
  0
LINE
  8
0
 10
28.1448
 20
27.9227
 11
27.6871
 21
28.3526
  0
LINE
  8
0
 10
27.6871
 20
28.3526
 11
27.1791
 21
28.7216
  0
LINE
  8
0
 10
27.1791
 20
28.7216
 11
26.6289
 21
29.0241
  0
LINE
  8
0
 10
26.6289
 20
29.0241
 11
26.0451
 21
29.2553
  0
LINE
  8
0
 10
26.0451
 20
29.2553
 11
25.4369
 21
29.4114
  0
LINE
  8
0
 10
25.4369
 20
29.4114
 11
24.8139
 21
29.4901
  0
LINE
  8
0
 10
24.8139
 20
29.4901
 11
-24.8139
 21
29.4901
  0
LINE
  8
0
 10
-24.8139
 20
29.4901
 11
-25.4369
 21
29.4114
  0
LINE
  8
0
 10
-25.4369
 20
29.4114
 11
-26.0451
 21
29.2553
  0
LINE
  8
0
 10
-26.0451
 20
29.2553
 11
-26.6289
 21
29.0241
  0
LINE
  8
0
 10
-26.6289
 20
29.0241
 11
-27.1791
 21
28.7216
  0
LINE
  8
0
 10
-27.1791
 20
28.7216
 11
-27.6871
 21
28.3526
  0
LINE
  8
0
 10
-27.6871
 20
28.3526
 11
-28.1448
 21
27.9227
  0
LINE
  8
0
 10
-28.1448
 20
27.9227
 11
-28.5451
 21
27.4389
  0
LINE
  8
0
 10
-28.5451
 20
27.4389
 11
-28.8815
 21
26.9088
  0
LINE
  8
0
 10
-28.8815
 20
26.9088
 11
-29.1489
 21
26.3406
  0
LINE
  8
0
 10
-29.1489
 20
26.3406
 11
-29.3429
 21
25.7434
  0
LINE
  8
0
 10
-29.3429
 20
25.7434
 11
-29.4606
 21
25.1267
  0
LINE
  8
0
 10
-29.4606
 20
25.1267
 11
-29.5
 21
24.5
  0
LINE
  8
0
 10
-29.5
 20
24.5
 11
-29.5
 21
-24.5
  0
LINE
  8
0
 10
-29.5
 20
-24.5
 11
-29.4606
 21
-25.1267
  0
LINE
  8
0
 10
-29.4606
 20
-25.1267
 11
-29.3429
 21
-25.7434
  0
LINE
  8
0
 10
-29.3429
 20
-25.7434
 11
-29.1489
 21
-26.3406
  0
LINE
  8
0
 10
-29.1489
 20
-26.3406
 11
-28.8815
 21
-26.9088
  0
LINE
  8
0
 10
-28.8815
 20
-26.9088
 11
-28.5451
 21
-27.4389
  0
LINE
  8
0
 10
-28.5451
 20
-27.4389
 11
-28.1448
 21
-27.9227
  0
LINE
  8
0
 10
-28.1448
 20
-27.9227
 11
-27.6871
 21
-28.3526
  0
LINE
  8
0
 10
-27.6871
 20
-28.3526
 11
-27.1791
 21
-28.7216
  0
LINE
  8
0
 10
-27.1791
 20
-28.7216
 11
-26.6289
 21
-29.0241
  0
LINE
  8
0
 10
-26.6289
 20
-29.0241
 11
-26.0451
 21
-29.2553
  0
LINE
  8
0
 10
-26.0451
 20
-29.2553
 11
-25.4369
 21
-29.4114
  0
LINE
  8
0
 10
-25.4369
 20
-29.4114
 11
-24.8139
 21
-29.4901
  0
LINE
  8
0
 10
-24.8139
 20
-29.4901
 11
24.8139
 21
-29.4901
  0
LINE
  8
0
 10
24.8139
 20
-29.4901
 11
25.4369
 21
-29.4114
  0
LINE
  8
0
 10
19.5942
 20
23.2461
 11
19.7107
 21
23.6044
  0
LINE
  8
0
 10
19.7107
 20
23.6044
 11
19.8711
 21
23.9453
  0
LINE
  8
0
 10
19.8711
 20
23.9453
 11
20.0729
 21
24.2634
  0
LINE
  8
0
 10
20.0729
 20
24.2634
 11
20.3131
 21
24.5536
  0
LINE
  8
0
 10
20.3131
 20
24.5536
 11
20.5877
 21
24.8115
  0
LINE
  8
0
 10
20.5877
 20
24.8115
 11
20.8925
 21
25.033
  0
LINE
  8
0
 10
20.8925
 20
25.033
 11
21.2227
 21
25.2145
  0
LINE
  8
0
 10
21.2227
 20
25.2145
 11
21.5729
 21
25.3532
  0
LINE
  8
0
 10
21.5729
 20
25.3532
 11
21.9379
 21
25.4469
  0
LINE
  8
0
 10
21.9379
 20
25.4469
 11
22.3116
 21
25.4941
  0
LINE
  8
0
 10
22.3116
 20
25.4941
 11
22.6884
 21
25.4941
  0
LINE
  8
0
 10
22.6884
 20
25.4941
 11
23.0621
 21
25.4469
  0
LINE
  8
0
 10
23.0621
 20
25.4469
 11
23.427
 21
25.3532
  0
LINE
  8
0
 10
23.427
 20
25.3532
 11
23.7773
 21
25.2145
  0
LINE
  8
0
 10
23.7773
 20
25.2145
 11
24.1075
 21
25.033
  0
LINE
  8
0
 10
24.1075
 20
25.033
 11
24.4123
 21
24.8115
  0
LINE
  8
0
 10
24.4123
 20
24.8115
 11
24.6869
 21
24.5536
  0
LINE
  8
0
 10
24.6869
 20
24.5536
 11
24.927
 21
24.2634
  0
LINE
  8
0
 10
24.927
 20
24.2634
 11
25.1289
 21
23.9453
  0
LINE
  8
0
 10
25.1289
 20
23.9453
 11
25.2893
 21
23.6044
  0
LINE
  8
0
 10
25.2893
 20
23.6044
 11
25.4057
 21
23.2461
  0
LINE
  8
0
 10
25.4057
 20
23.2461
 11
25.4763
 21
22.876
  0
LINE
  8
0
 10
25.4763
 20
22.876
 11
25.5
 21
22.5
  0
LINE
  8
0
 10
25.5
 20
22.5
 11
25.4763
 21
22.124
  0
LINE
  8
0
 10
25.4763
 20
22.124
 11
25.4057
 21
21.7539
  0
LINE
  8
0
 10
25.4057
 20
21.7539
 11
25.2893
 21
21.3956
  0
LINE
  8
0
 10
25.2893
 20
21.3956
 11
25.1289
 21
21.0547
  0
LINE
  8
0
 10
25.1289
 20
21.0547
 11
24.927
 21
20.7366
  0
LINE
  8
0
 10
24.927
 20
20.7366
 11
24.6869
 21
20.4464
  0
LINE
  8
0
 10
24.6869
 20
20.4464
 11
24.4123
 21
20.1884
  0
LINE
  8
0
 10
24.4123
 20
20.1884
 11
24.1075
 21
19.967
  0
LINE
  8
0
 10
24.1075
 20
19.967
 11
23.7773
 21
19.7855
  0
LINE
  8
0
 10
23.7773
 20
19.7855
 11
23.427
 21
19.6468
  0
LINE
  8
0
 10
23.427
 20
19.6468
 11
23.0621
 21
19.5531
  0
LINE
  8
0
 10
23.0621
 20
19.5531
 11
22.6884
 21
19.5059
  0
LINE
  8
0
 10
22.6884
 20
19.5059
 11
22.3116
 21
19.5059
  0
LINE
  8
0
 10
22.3116
 20
19.5059
 11
21.9379
 21
19.5531
  0
LINE
  8
0
 10
21.9379
 20
19.5531
 11
21.5729
 21
19.6468
  0
LINE
  8
0
 10
21.5729
 20
19.6468
 11
21.2227
 21
19.7855
  0
LINE
  8
0
 10
21.2227
 20
19.7855
 11
20.8925
 21
19.967
  0
LINE
  8
0
 10
20.8925
 20
19.967
 11
20.5877
 21
20.1884
  0
LINE
  8
0
 10
20.5877
 20
20.1884
 11
20.3131
 21
20.4464
  0
LINE
  8
0
 10
20.3131
 20
20.4464
 11
20.0729
 21
20.7366
  0
LINE
  8
0
 10
20.0729
 20
20.7366
 11
19.8711
 21
21.0547
  0
LINE
  8
0
 10
19.8711
 20
21.0547
 11
19.7107
 21
21.3956
  0
LINE
  8
0
 10
19.7107
 20
21.3956
 11
19.5942
 21
21.7539
  0
LINE
  8
0
 10
19.5942
 20
21.7539
 11
19.5237
 21
22.124
  0
LINE
  8
0
 10
19.5237
 20
22.124
 11
19.5
 21
22.5
  0
LINE
  8
0
 10
19.5
 20
22.5
 11
19.5237
 21
22.876
  0
LINE
  8
0
 10
19.5237
 20
22.876
 11
19.5942
 21
23.2461
  0
LINE
  8
0
 10
-22.5942
 20
13.5029
 11
-22.7811
 21
13.5266
  0
LINE
  8
0
 10
-22.7811
 20
13.5266
 11
-22.9635
 21
13.5734
  0
LINE
  8
0
 10
-22.9635
 20
13.5734
 11
-23.1387
 21
13.6427
  0
LINE
  8
0
 10
-23.1387
 20
13.6427
 11
-23.3037
 21
13.7335
  0
LINE
  8
0
 10
-23.3037
 20
13.7335
 11
-23.4561
 21
13.8442
  0
LINE
  8
0
 10
-23.4561
 20
13.8442
 11
-23.5934
 21
13.9732
  0
LINE
  8
0
 10
-23.5934
 20
13.9732
 11
-23.7135
 21
14.1183
  0
LINE
  8
0
 10
-23.7135
 20
14.1183
 11
-23.8145
 21
14.2774
  0
LINE
  8
0
 10
-23.8145
 20
14.2774
 11
-23.8947
 21
14.4478
  0
LINE
  8
0
 10
-23.8947
 20
14.4478
 11
-23.9529
 21
14.627
  0
LINE
  8
0
 10
-23.9529
 20
14.627
 11
-23.9882
 21
14.812
  0
LINE
  8
0
 10
-23.9882
 20
14.812
 11
-24
 21
15
  0
LINE
  8
0
 10
-24
 20
15
 11
-23.9882
 21
15.188
  0
LINE
  8
0
 10
-23.9882
 20
15.188
 11
-23.9529
 21
15.373
  0
LINE
  8
0
 10
-23.9529
 20
15.373
 11
-23.8947
 21
15.5522
  0
LINE
  8
0
 10
-23.8947
 20
15.5522
 11
-23.8145
 21
15.7226
  0
LINE
  8
0
 10
-23.8145
 20
15.7226
 11
-23.7135
 21
15.8817
  0
LINE
  8
0
 10
-23.7135
 20
15.8817
 11
-23.5934
 21
16.0268
  0
LINE
  8
0
 10
-23.5934
 20
16.0268
 11
-23.4561
 21
16.1558
  0
LINE
  8
0
 10
-23.4561
 20
16.1558
 11
-23.3037
 21
16.2665
  0
LINE
  8
0
 10
-23.3037
 20
16.2665
 11
-23.1387
 21
16.3572
  0
LINE
  8
0
 10
-23.1387
 20
16.3572
 11
-22.9635
 21
16.4266
  0
LINE
  8
0
 10
-22.9635
 20
16.4266
 11
-22.7811
 21
16.4734
  0
LINE
  8
0
 10
-22.7811
 20
16.4734
 11
-22.5942
 21
16.497
  0
LINE
  8
0
 10
-22.5942
 20
16.497
 11
-22.4058
 21
16.497
  0
LINE
  8
0
 10
-22.4058
 20
16.497
 11
-22.2189
 21
16.4734
  0
LINE
  8
0
 10
-22.2189
 20
16.4734
 11
-22.0365
 21
16.4266
  0
LINE
  8
0
 10
-22.0365
 20
16.4266
 11
-21.8613
 21
16.3572
  0
LINE
  8
0
 10
-21.8613
 20
16.3572
 11
-21.6963
 21
16.2665
  0
LINE
  8
0
 10
-21.6963
 20
16.2665
 11
-21.5439
 21
16.1558
  0
LINE
  8
0
 10
-21.5439
 20
16.1558
 11
-21.4065
 21
16.0268
  0
LINE
  8
0
 10
-21.4065
 20
16.0268
 11
-21.2865
 21
15.8817
  0
LINE
  8
0
 10
-21.2865
 20
15.8817
 11
-21.1855
 21
15.7226
  0
LINE
  8
0
 10
-21.1855
 20
15.7226
 11
-21.1053
 21
15.5522
  0
LINE
  8
0
 10
-21.1053
 20
15.5522
 11
-21.0471
 21
15.373
  0
LINE
  8
0
 10
-21.0471
 20
15.373
 11
-21.0118
 21
15.188
  0
LINE
  8
0
 10
-21.0118
 20
15.188
 11
-21
 21
15
  0
LINE
  8
0
 10
-21
 20
15
 11
-21.0118
 21
14.812
  0
LINE
  8
0
 10
-21.0118
 20
14.812
 11
-21.0471
 21
14.627
  0
LINE
  8
0
 10
-21.0471
 20
14.627
 11
-21.1053
 21
14.4478
  0
LINE
  8
0
 10
-21.1053
 20
14.4478
 11
-21.1855
 21
14.2774
  0
LINE
  8
0
 10
-21.1855
 20
14.2774
 11
-21.2865
 21
14.1183
  0
LINE
  8
0
 10
-21.2865
 20
14.1183
 11
-21.4065
 21
13.9732
  0
LINE
  8
0
 10
-21.4065
 20
13.9732
 11
-21.5439
 21
13.8442
  0
LINE
  8
0
 10
-21.5439
 20
13.8442
 11
-21.6963
 21
13.7335
  0
LINE
  8
0
 10
-21.6963
 20
13.7335
 11
-21.8613
 21
13.6427
  0
LINE
  8
0
 10
-21.8613
 20
13.6427
 11
-22.0365
 21
13.5734
  0
LINE
  8
0
 10
-22.0365
 20
13.5734
 11
-22.2189
 21
13.5266
  0
LINE
  8
0
 10
-22.2189
 20
13.5266
 11
-22.4058
 21
13.5029
  0
LINE
  8
0
 10
-22.4058
 20
13.5029
 11
-22.5942
 21
13.5029
  0
LINE
  8
0
 10
22.4058
 20
13.5029
 11
22.2189
 21
13.5266
  0
LINE
  8
0
 10
22.2189
 20
13.5266
 11
22.0365
 21
13.5734
  0
LINE
  8
0
 10
22.0365
 20
13.5734
 11
21.8613
 21
13.6427
  0
LINE
  8
0
 10
21.8613
 20
13.6427
 11
21.6963
 21
13.7335
  0
LINE
  8
0
 10
21.6963
 20
13.7335
 11
21.5439
 21
13.8442
  0
LINE
  8
0
 10
21.5439
 20
13.8442
 11
21.4065
 21
13.9732
  0
LINE
  8
0
 10
21.4065
 20
13.9732
 11
21.2865
 21
14.1183
  0
LINE
  8
0
 10
21.2865
 20
14.1183
 11
21.1855
 21
14.2774
  0
LINE
  8
0
 10
21.1855
 20
14.2774
 11
21.1053
 21
14.4478
  0
LINE
  8
0
 10
21.1053
 20
14.4478
 11
21.0471
 21
14.627
  0
LINE
  8
0
 10
21.0471
 20
14.627
 11
21.0118
 21
14.812
  0
LINE
  8
0
 10
21.0118
 20
14.812
 11
21
 21
15
  0
LINE
  8
0
 10
21
 20
15
 11
21.0118
 21
15.188
  0
LINE
  8
0
 10
21.0118
 20
15.188
 11
21.0471
 21
15.373
  0
LINE
  8
0
 10
21.0471
 20
15.373
 11
21.1053
 21
15.5522
  0
LINE
  8
0
 10
21.1053
 20
15.5522
 11
21.1855
 21
15.7226
  0
LINE
  8
0
 10
21.1855
 20
15.7226
 11
21.2865
 21
15.8817
  0
LINE
  8
0
 10
21.2865
 20
15.8817
 11
21.4065
 21
16.0268
  0
LINE
  8
0
 10
21.4065
 20
16.0268
 11
21.5439
 21
16.1558
  0
LINE
  8
0
 10
21.5439
 20
16.1558
 11
21.6963
 21
16.2665
  0
LINE
  8
0
 10
21.6963
 20
16.2665
 11
21.8613
 21
16.3572
  0
LINE
  8
0
 10
21.8613
 20
16.3572
 11
22.0365
 21
16.4266
  0
LINE
  8
0
 10
22.0365
 20
16.4266
 11
22.2189
 21
16.4734
  0
LINE
  8
0
 10
22.2189
 20
16.4734
 11
22.4058
 21
16.497
  0
LINE
  8
0
 10
22.4058
 20
16.497
 11
22.5942
 21
16.497
  0
LINE
  8
0
 10
22.5942
 20
16.497
 11
22.7811
 21
16.4734
  0
LINE
  8
0
 10
22.7811
 20
16.4734
 11
22.9635
 21
16.4266
  0
LINE
  8
0
 10
22.9635
 20
16.4266
 11
23.1387
 21
16.3572
  0
LINE
  8
0
 10
23.1387
 20
16.3572
 11
23.3037
 21
16.2665
  0
LINE
  8
0
 10
23.3037
 20
16.2665
 11
23.4561
 21
16.1558
  0
LINE
  8
0
 10
23.4561
 20
16.1558
 11
23.5934
 21
16.0268
  0
LINE
  8
0
 10
23.5934
 20
16.0268
 11
23.7135
 21
15.8817
  0
LINE
  8
0
 10
23.7135
 20
15.8817
 11
23.8145
 21
15.7226
  0
LINE
  8
0
 10
23.8145
 20
15.7226
 11
23.8947
 21
15.5522
  0
LINE
  8
0
 10
23.8947
 20
15.5522
 11
23.9529
 21
15.373
  0
LINE
  8
0
 10
23.9529
 20
15.373
 11
23.9882
 21
15.188
  0
LINE
  8
0
 10
23.9882
 20
15.188
 11
24
 21
15
  0
LINE
  8
0
 10
24
 20
15
 11
23.9882
 21
14.812
  0
LINE
  8
0
 10
23.9882
 20
14.812
 11
23.9529
 21
14.627
  0
LINE
  8
0
 10
23.9529
 20
14.627
 11
23.8947
 21
14.4478
  0
LINE
  8
0
 10
23.8947
 20
14.4478
 11
23.8145
 21
14.2774
  0
LINE
  8
0
 10
23.8145
 20
14.2774
 11
23.7135
 21
14.1183
  0
LINE
  8
0
 10
23.7135
 20
14.1183
 11
23.5934
 21
13.9732
  0
LINE
  8
0
 10
23.5934
 20
13.9732
 11
23.4561
 21
13.8442
  0
LINE
  8
0
 10
23.4561
 20
13.8442
 11
23.3037
 21
13.7335
  0
LINE
  8
0
 10
23.3037
 20
13.7335
 11
23.1387
 21
13.6427
  0
LINE
  8
0
 10
23.1387
 20
13.6427
 11
22.9635
 21
13.5734
  0
LINE
  8
0
 10
22.9635
 20
13.5734
 11
22.7811
 21
13.5266
  0
LINE
  8
0
 10
22.7811
 20
13.5266
 11
22.5942
 21
13.5029
  0
LINE
  8
0
 10
22.5942
 20
13.5029
 11
22.4058
 21
13.5029
  0
LINE
  8
0
 10
22.3116
 20
4.50591
 11
21.9379
 21
4.55313
  0
LINE
  8
0
 10
21.9379
 20
4.55313
 11
21.5729
 21
4.64682
  0
LINE
  8
0
 10
21.5729
 20
4.64682
 11
21.2227
 21
4.78551
  0
LINE
  8
0
 10
21.2227
 20
4.78551
 11
20.8925
 21
4.96701
  0
LINE
  8
0
 10
20.8925
 20
4.96701
 11
20.5877
 21
5.18845
  0
LINE
  8
0
 10
20.5877
 20
5.18845
 11
20.3131
 21
5.44635
  0
LINE
  8
0
 10
20.3131
 20
5.44635
 11
20.0729
 21
5.73663
  0
LINE
  8
0
 10
20.0729
 20
5.73663
 11
19.8711
 21
6.05473
  0
LINE
  8
0
 10
19.8711
 20
6.05473
 11
19.7107
 21
6.39561
  0
LINE
  8
0
 10
19.7107
 20
6.39561
 11
19.5942
 21
6.75392
  0
LINE
  8
0
 10
19.5942
 20
6.75392
 11
19.5237
 21
7.12399
  0
LINE
  8
0
 10
19.5237
 20
7.12399
 11
19.5
 21
7.5
  0
LINE
  8
0
 10
19.5
 20
7.5
 11
19.5237
 21
7.87599
  0
LINE
  8
0
 10
19.5237
 20
7.87599
 11
19.5942
 21
8.24606
  0
LINE
  8
0
 10
19.5942
 20
8.24606
 11
19.7107
 21
8.60437
  0
LINE
  8
0
 10
19.7107
 20
8.60437
 11
19.8711
 21
8.94525
  0
LINE
  8
0
 10
19.8711
 20
8.94525
 11
20.0729
 21
9.26335
  0
LINE
  8
0
 10
20.0729
 20
9.26335
 11
20.3131
 21
9.55363
  0
LINE
  8
0
 10
20.3131
 20
9.55363
 11
20.5877
 21
9.81154
  0
LINE
  8
0
 10
20.5877
 20
9.81154
 11
20.8925
 21
10.033
  0
LINE
  8
0
 10
20.8925
 20
10.033
 11
21.2227
 21
10.2145
  0
LINE
  8
0
 10
21.2227
 20
10.2145
 11
21.5729
 21
10.3532
  0
LINE
  8
0
 10
21.5729
 20
10.3532
 11
21.9379
 21
10.4469
  0
LINE
  8
0
 10
21.9379
 20
10.4469
 11
22.3116
 21
10.4941
  0
LINE
  8
0
 10
22.3116
 20
10.4941
 11
22.6884
 21
10.4941
  0
LINE
  8
0
 10
22.6884
 20
10.4941
 11
23.0621
 21
10.4469
  0
LINE
  8
0
 10
23.0621
 20
10.4469
 11
23.427
 21
10.3532
  0
LINE
  8
0
 10
23.427
 20
10.3532
 11
23.7773
 21
10.2145
  0
LINE
  8
0
 10
23.7773
 20
10.2145
 11
24.1075
 21
10.033
  0
LINE
  8
0
 10
24.1075
 20
10.033
 11
24.4123
 21
9.81154
  0
LINE
  8
0
 10
24.4123
 20
9.81154
 11
24.6869
 21
9.55363
  0
LINE
  8
0
 10
24.6869
 20
9.55363
 11
24.927
 21
9.26335
  0
LINE
  8
0
 10
24.927
 20
9.26335
 11
25.1289
 21
8.94525
  0
LINE
  8
0
 10
25.1289
 20
8.94525
 11
25.2893
 21
8.60437
  0
LINE
  8
0
 10
25.2893
 20
8.60437
 11
25.4057
 21
8.24606
  0
LINE
  8
0
 10
25.4057
 20
8.24606
 11
25.4763
 21
7.87599
  0
LINE
  8
0
 10
25.4763
 20
7.87599
 11
25.5
 21
7.5
  0
LINE
  8
0
 10
25.5
 20
7.5
 11
25.4763
 21
7.12399
  0
LINE
  8
0
 10
25.4763
 20
7.12399
 11
25.4057
 21
6.75392
  0
LINE
  8
0
 10
25.4057
 20
6.75392
 11
25.2893
 21
6.39561
  0
LINE
  8
0
 10
25.2893
 20
6.39561
 11
25.1289
 21
6.05473
  0
LINE
  8
0
 10
25.1289
 20
6.05473
 11
24.927
 21
5.73663
  0
LINE
  8
0
 10
24.927
 20
5.73663
 11
24.6869
 21
5.44635
  0
LINE
  8
0
 10
24.6869
 20
5.44635
 11
24.4123
 21
5.18845
  0
LINE
  8
0
 10
24.4123
 20
5.18845
 11
24.1075
 21
4.96701
  0
LINE
  8
0
 10
24.1075
 20
4.96701
 11
23.7773
 21
4.78551
  0
LINE
  8
0
 10
23.7773
 20
4.78551
 11
23.427
 21
4.64682
  0
LINE
  8
0
 10
23.427
 20
4.64682
 11
23.0621
 21
4.55313
  0
LINE
  8
0
 10
23.0621
 20
4.55313
 11
22.6884
 21
4.50591
  0
LINE
  8
0
 10
22.6884
 20
4.50591
 11
22.3116
 21
4.50591
  0
LINE
  8
0
 10
-22.6884
 20
4.50591
 11
-23.0621
 21
4.55313
  0
LINE
  8
0
 10
-23.0621
 20
4.55313
 11
-23.427
 21
4.64682
  0
LINE
  8
0
 10
-23.427
 20
4.64682
 11
-23.7773
 21
4.78551
  0
LINE
  8
0
 10
-23.7773
 20
4.78551
 11
-24.1075
 21
4.96701
  0
LINE
  8
0
 10
-24.1075
 20
4.96701
 11
-24.4123
 21
5.18845
  0
LINE
  8
0
 10
-24.4123
 20
5.18845
 11
-24.6869
 21
5.44635
  0
LINE
  8
0
 10
-24.6869
 20
5.44635
 11
-24.927
 21
5.73663
  0
LINE
  8
0
 10
-24.927
 20
5.73663
 11
-25.1289
 21
6.05473
  0
LINE
  8
0
 10
-25.1289
 20
6.05473
 11
-25.2893
 21
6.39561
  0
LINE
  8
0
 10
-25.2893
 20
6.39561
 11
-25.4057
 21
6.75392
  0
LINE
  8
0
 10
-25.4057
 20
6.75392
 11
-25.4763
 21
7.12399
  0
LINE
  8
0
 10
-25.4763
 20
7.12399
 11
-25.5
 21
7.5
  0
LINE
  8
0
 10
-25.5
 20
7.5
 11
-25.4763
 21
7.87599
  0
LINE
  8
0
 10
-25.4763
 20
7.87599
 11
-25.4057
 21
8.24606
  0
LINE
  8
0
 10
-25.4057
 20
8.24606
 11
-25.2893
 21
8.60437
  0
LINE
  8
0
 10
-25.2893
 20
8.60437
 11
-25.1289
 21
8.94525
  0
LINE
  8
0
 10
-25.1289
 20
8.94525
 11
-24.927
 21
9.26335
  0
LINE
  8
0
 10
-24.927
 20
9.26335
 11
-24.6869
 21
9.55363
  0
LINE
  8
0
 10
-24.6869
 20
9.55363
 11
-24.4123
 21
9.81154
  0
LINE
  8
0
 10
-24.4123
 20
9.81154
 11
-24.1075
 21
10.033
  0
LINE
  8
0
 10
-24.1075
 20
10.033
 11
-23.7773
 21
10.2145
  0
LINE
  8
0
 10
-23.7773
 20
10.2145
 11
-23.427
 21
10.3532
  0
LINE
  8
0
 10
-23.427
 20
10.3532
 11
-23.0621
 21
10.4469
  0
LINE
  8
0
 10
-23.0621
 20
10.4469
 11
-22.6884
 21
10.4941
  0
LINE
  8
0
 10
-22.6884
 20
10.4941
 11
-22.3116
 21
10.4941
  0
LINE
  8
0
 10
-22.3116
 20
10.4941
 11
-21.9379
 21
10.4469
  0
LINE
  8
0
 10
-21.9379
 20
10.4469
 11
-21.5729
 21
10.3532
  0
LINE
  8
0
 10
-21.5729
 20
10.3532
 11
-21.2227
 21
10.2145
  0
LINE
  8
0
 10
-21.2227
 20
10.2145
 11
-20.8925
 21
10.033
  0
LINE
  8
0
 10
-20.8925
 20
10.033
 11
-20.5877
 21
9.81154
  0
LINE
  8
0
 10
-20.5877
 20
9.81154
 11
-20.3131
 21
9.55363
  0
LINE
  8
0
 10
-20.3131
 20
9.55363
 11
-20.0729
 21
9.26335
  0
LINE
  8
0
 10
-20.0729
 20
9.26335
 11
-19.8711
 21
8.94525
  0
LINE
  8
0
 10
-19.8711
 20
8.94525
 11
-19.7107
 21
8.60437
  0
LINE
  8
0
 10
-19.7107
 20
8.60437
 11
-19.5942
 21
8.24606
  0
LINE
  8
0
 10
-19.5942
 20
8.24606
 11
-19.5237
 21
7.87599
  0
LINE
  8
0
 10
-19.5237
 20
7.87599
 11
-19.5
 21
7.5
  0
LINE
  8
0
 10
-19.5
 20
7.5
 11
-19.5237
 21
7.12399
  0
LINE
  8
0
 10
-19.5237
 20
7.12399
 11
-19.5942
 21
6.75392
  0
LINE
  8
0
 10
-19.5942
 20
6.75392
 11
-19.7107
 21
6.39561
  0
LINE
  8
0
 10
-19.7107
 20
6.39561
 11
-19.8711
 21
6.05473
  0
LINE
  8
0
 10
-19.8711
 20
6.05473
 11
-20.0729
 21
5.73663
  0
LINE
  8
0
 10
-20.0729
 20
5.73663
 11
-20.3131
 21
5.44635
  0
LINE
  8
0
 10
-20.3131
 20
5.44635
 11
-20.5877
 21
5.18845
  0
LINE
  8
0
 10
-20.5877
 20
5.18845
 11
-20.8925
 21
4.96701
  0
LINE
  8
0
 10
-20.8925
 20
4.96701
 11
-21.2227
 21
4.78551
  0
LINE
  8
0
 10
-21.2227
 20
4.78551
 11
-21.5729
 21
4.64682
  0
LINE
  8
0
 10
-21.5729
 20
4.64682
 11
-21.9379
 21
4.55313
  0
LINE
  8
0
 10
-21.9379
 20
4.55313
 11
-22.3116
 21
4.50591
  0
LINE
  8
0
 10
-22.3116
 20
4.50591
 11
-22.6884
 21
4.50591
  0
LINE
  8
0
 10
22.4058
 20
-1.49704
 11
22.2189
 21
-1.47342
  0
LINE
  8
0
 10
22.2189
 20
-1.47342
 11
22.0365
 21
-1.42657
  0
LINE
  8
0
 10
22.0365
 20
-1.42657
 11
21.8613
 21
-1.35724
  0
LINE
  8
0
 10
21.8613
 20
-1.35724
 11
21.6963
 21
-1.26648
  0
LINE
  8
0
 10
21.6963
 20
-1.26648
 11
21.5439
 21
-1.15576
  0
LINE
  8
0
 10
21.5439
 20
-1.15576
 11
21.4065
 21
-1.02681
  0
LINE
  8
0
 10
21.4065
 20
-1.02681
 11
21.2865
 21
-0.881668
  0
LINE
  8
0
 10
21.2865
 20
-0.881668
 11
21.1855
 21
-0.722626
  0
LINE
  8
0
 10
21.1855
 20
-0.722626
 11
21.1053
 21
-0.552185
  0
LINE
  8
0
 10
21.1053
 20
-0.552185
 11
21.0471
 21
-0.373032
  0
LINE
  8
0
 10
21.0471
 20
-0.373032
 11
21.0118
 21
-0.187988
  0
LINE
  8
0
 10
21.0118
 20
-0.187988
 11
21
 21
0
  0
LINE
  8
0
 10
21
 20
0
 11
21.0118
 21
0.187988
  0
LINE
  8
0
 10
21.0118
 20
0.187988
 11
21.0471
 21
0.373032
  0
LINE
  8
0
 10
21.0471
 20
0.373032
 11
21.1053
 21
0.552185
  0
LINE
  8
0
 10
21.1053
 20
0.552185
 11
21.1855
 21
0.722626
  0
LINE
  8
0
 10
21.1855
 20
0.722626
 11
21.2865
 21
0.881668
  0
LINE
  8
0
 10
21.2865
 20
0.881668
 11
21.4065
 21
1.02681
  0
LINE
  8
0
 10
21.4065
 20
1.02681
 11
21.5439
 21
1.15576
  0
LINE
  8
0
 10
21.5439
 20
1.15576
 11
21.6963
 21
1.26648
  0
LINE
  8
0
 10
21.6963
 20
1.26648
 11
21.8613
 21
1.35724
  0
LINE
  8
0
 10
21.8613
 20
1.35724
 11
22.0365
 21
1.42657
  0
LINE
  8
0
 10
22.0365
 20
1.42657
 11
22.2189
 21
1.47342
  0
LINE
  8
0
 10
22.2189
 20
1.47342
 11
22.4058
 21
1.49704
  0
LINE
  8
0
 10
22.4058
 20
1.49704
 11
22.5942
 21
1.49704
  0
LINE
  8
0
 10
22.5942
 20
1.49704
 11
22.7811
 21
1.47342
  0
LINE
  8
0
 10
22.7811
 20
1.47342
 11
22.9635
 21
1.42657
  0
LINE
  8
0
 10
22.9635
 20
1.42657
 11
23.1387
 21
1.35724
  0
LINE
  8
0
 10
23.1387
 20
1.35724
 11
23.3037
 21
1.26648
  0
LINE
  8
0
 10
23.3037
 20
1.26648
 11
23.4561
 21
1.15576
  0
LINE
  8
0
 10
23.4561
 20
1.15576
 11
23.5934
 21
1.02681
  0
LINE
  8
0
 10
23.5934
 20
1.02681
 11
23.7135
 21
0.881668
  0
LINE
  8
0
 10
23.7135
 20
0.881668
 11
23.8145
 21
0.722626
  0
LINE
  8
0
 10
23.8145
 20
0.722626
 11
23.8947
 21
0.552185
  0
LINE
  8
0
 10
23.8947
 20
0.552185
 11
23.9529
 21
0.373032
  0
LINE
  8
0
 10
23.9529
 20
0.373032
 11
23.9882
 21
0.187988
  0
LINE
  8
0
 10
23.9882
 20
0.187988
 11
24
 21
0
  0
LINE
  8
0
 10
24
 20
0
 11
23.9882
 21
-0.187988
  0
LINE
  8
0
 10
23.9882
 20
-0.187988
 11
23.9529
 21
-0.373032
  0
LINE
  8
0
 10
23.9529
 20
-0.373032
 11
23.8947
 21
-0.552185
  0
LINE
  8
0
 10
23.8947
 20
-0.552185
 11
23.8145
 21
-0.722626
  0
LINE
  8
0
 10
23.8145
 20
-0.722626
 11
23.7135
 21
-0.881668
  0
LINE
  8
0
 10
23.7135
 20
-0.881668
 11
23.5934
 21
-1.02681
  0
LINE
  8
0
 10
23.5934
 20
-1.02681
 11
23.4561
 21
-1.15576
  0
LINE
  8
0
 10
23.4561
 20
-1.15576
 11
23.3037
 21
-1.26648
  0
LINE
  8
0
 10
23.3037
 20
-1.26648
 11
23.1387
 21
-1.35724
  0
LINE
  8
0
 10
23.1387
 20
-1.35724
 11
22.9635
 21
-1.42657
  0
LINE
  8
0
 10
22.9635
 20
-1.42657
 11
22.7811
 21
-1.47342
  0
LINE
  8
0
 10
22.7811
 20
-1.47342
 11
22.5942
 21
-1.49704
  0
LINE
  8
0
 10
22.5942
 20
-1.49704
 11
22.4058
 21
-1.49704
  0
LINE
  8
0
 10
-22.5942
 20
-1.49704
 11
-22.7811
 21
-1.47342
  0
LINE
  8
0
 10
-22.7811
 20
-1.47342
 11
-22.9635
 21
-1.42657
  0
LINE
  8
0
 10
-22.9635
 20
-1.42657
 11
-23.1387
 21
-1.35724
  0
LINE
  8
0
 10
-23.1387
 20
-1.35724
 11
-23.3037
 21
-1.26648
  0
LINE
  8
0
 10
-23.3037
 20
-1.26648
 11
-23.4561
 21
-1.15576
  0
LINE
  8
0
 10
-23.4561
 20
-1.15576
 11
-23.5934
 21
-1.02681
  0
LINE
  8
0
 10
-23.5934
 20
-1.02681
 11
-23.7135
 21
-0.881668
  0
LINE
  8
0
 10
-23.7135
 20
-0.881668
 11
-23.8145
 21
-0.722626
  0
LINE
  8
0
 10
-23.8145
 20
-0.722626
 11
-23.8947
 21
-0.552185
  0
LINE
  8
0
 10
-23.8947
 20
-0.552185
 11
-23.9529
 21
-0.373032
  0
LINE
  8
0
 10
-23.9529
 20
-0.373032
 11
-23.9882
 21
-0.187988
  0
LINE
  8
0
 10
-23.9882
 20
-0.187988
 11
-24
 21
0
  0
LINE
  8
0
 10
-24
 20
0
 11
-23.9882
 21
0.187988
  0
LINE
  8
0
 10
-23.9882
 20
0.187988
 11
-23.9529
 21
0.373032
  0
LINE
  8
0
 10
-23.9529
 20
0.373032
 11
-23.8947
 21
0.552185
  0
LINE
  8
0
 10
-23.8947
 20
0.552185
 11
-23.8145
 21
0.722626
  0
LINE
  8
0
 10
-23.8145
 20
0.722626
 11
-23.7135
 21
0.881668
  0
LINE
  8
0
 10
-23.7135
 20
0.881668
 11
-23.5934
 21
1.02681
  0
LINE
  8
0
 10
-23.5934
 20
1.02681
 11
-23.4561
 21
1.15576
  0
LINE
  8
0
 10
-23.4561
 20
1.15576
 11
-23.3037
 21
1.26648
  0
LINE
  8
0
 10
-23.3037
 20
1.26648
 11
-23.1387
 21
1.35724
  0
LINE
  8
0
 10
-23.1387
 20
1.35724
 11
-22.9635
 21
1.42657
  0
LINE
  8
0
 10
-22.9635
 20
1.42657
 11
-22.7811
 21
1.47342
  0
LINE
  8
0
 10
-22.7811
 20
1.47342
 11
-22.5942
 21
1.49704
  0
LINE
  8
0
 10
-22.5942
 20
1.49704
 11
-22.4058
 21
1.49704
  0
LINE
  8
0
 10
-22.4058
 20
1.49704
 11
-22.2189
 21
1.47342
  0
LINE
  8
0
 10
-22.2189
 20
1.47342
 11
-22.0365
 21
1.42657
  0
LINE
  8
0
 10
-22.0365
 20
1.42657
 11
-21.8613
 21
1.35724
  0
LINE
  8
0
 10
-21.8613
 20
1.35724
 11
-21.6963
 21
1.26648
  0
LINE
  8
0
 10
-21.6963
 20
1.26648
 11
-21.5439
 21
1.15576
  0
LINE
  8
0
 10
-21.5439
 20
1.15576
 11
-21.4065
 21
1.02681
  0
LINE
  8
0
 10
-21.4065
 20
1.02681
 11
-21.2865
 21
0.881668
  0
LINE
  8
0
 10
-21.2865
 20
0.881668
 11
-21.1855
 21
0.722626
  0
LINE
  8
0
 10
-21.1855
 20
0.722626
 11
-21.1053
 21
0.552185
  0
LINE
  8
0
 10
-21.1053
 20
0.552185
 11
-21.0471
 21
0.373032
  0
LINE
  8
0
 10
-21.0471
 20
0.373032
 11
-21.0118
 21
0.187988
  0
LINE
  8
0
 10
-21.0118
 20
0.187988
 11
-21
 21
0
  0
LINE
  8
0
 10
-21
 20
0
 11
-21.0118
 21
-0.187988
  0
LINE
  8
0
 10
-21.0118
 20
-0.187988
 11
-21.0471
 21
-0.373032
  0
LINE
  8
0
 10
-21.0471
 20
-0.373032
 11
-21.1053
 21
-0.552185
  0
LINE
  8
0
 10
-21.1053
 20
-0.552185
 11
-21.1855
 21
-0.722626
  0
LINE
  8
0
 10
-21.1855
 20
-0.722626
 11
-21.2865
 21
-0.881668
  0
LINE
  8
0
 10
-21.2865
 20
-0.881668
 11
-21.4065
 21
-1.02681
  0
LINE
  8
0
 10
-21.4065
 20
-1.02681
 11
-21.5439
 21
-1.15576
  0
LINE
  8
0
 10
-21.5439
 20
-1.15576
 11
-21.6963
 21
-1.26648
  0
LINE
  8
0
 10
-21.6963
 20
-1.26648
 11
-21.8613
 21
-1.35724
  0
LINE
  8
0
 10
-21.8613
 20
-1.35724
 11
-22.0365
 21
-1.42657
  0
LINE
  8
0
 10
-22.0365
 20
-1.42657
 11
-22.2189
 21
-1.47342
  0
LINE
  8
0
 10
-22.2189
 20
-1.47342
 11
-22.4058
 21
-1.49704
  0
LINE
  8
0
 10
-22.4058
 20
-1.49704
 11
-22.5942
 21
-1.49704
  0
LINE
  8
0
 10
19.5942
 20
-6.75392
 11
19.7107
 21
-6.39561
  0
LINE
  8
0
 10
19.7107
 20
-6.39561
 11
19.8711
 21
-6.05473
  0
LINE
  8
0
 10
19.8711
 20
-6.05473
 11
20.0729
 21
-5.73663
  0
LINE
  8
0
 10
20.0729
 20
-5.73663
 11
20.3131
 21
-5.44635
  0
LINE
  8
0
 10
20.3131
 20
-5.44635
 11
20.5877
 21
-5.18845
  0
LINE
  8
0
 10
20.5877
 20
-5.18845
 11
20.8925
 21
-4.96701
  0
LINE
  8
0
 10
20.8925
 20
-4.96701
 11
21.2227
 21
-4.78551
  0
LINE
  8
0
 10
21.2227
 20
-4.78551
 11
21.5729
 21
-4.64682
  0
LINE
  8
0
 10
21.5729
 20
-4.64682
 11
21.9379
 21
-4.55313
  0
LINE
  8
0
 10
21.9379
 20
-4.55313
 11
22.3116
 21
-4.50591
  0
LINE
  8
0
 10
22.3116
 20
-4.50591
 11
22.6884
 21
-4.50591
  0
LINE
  8
0
 10
22.6884
 20
-4.50591
 11
23.0621
 21
-4.55313
  0
LINE
  8
0
 10
23.0621
 20
-4.55313
 11
23.427
 21
-4.64682
  0
LINE
  8
0
 10
23.427
 20
-4.64682
 11
23.7773
 21
-4.78551
  0
LINE
  8
0
 10
23.7773
 20
-4.78551
 11
24.1075
 21
-4.96701
  0
LINE
  8
0
 10
24.1075
 20
-4.96701
 11
24.4123
 21
-5.18845
  0
LINE
  8
0
 10
24.4123
 20
-5.18845
 11
24.6869
 21
-5.44635
  0
LINE
  8
0
 10
24.6869
 20
-5.44635
 11
24.927
 21
-5.73663
  0
LINE
  8
0
 10
24.927
 20
-5.73663
 11
25.1289
 21
-6.05473
  0
LINE
  8
0
 10
25.1289
 20
-6.05473
 11
25.2893
 21
-6.39561
  0
LINE
  8
0
 10
25.2893
 20
-6.39561
 11
25.4057
 21
-6.75392
  0
LINE
  8
0
 10
25.4057
 20
-6.75392
 11
25.4763
 21
-7.12399
  0
LINE
  8
0
 10
25.4763
 20
-7.12399
 11
25.5
 21
-7.5
  0
LINE
  8
0
 10
25.5
 20
-7.5
 11
25.4763
 21
-7.87599
  0
LINE
  8
0
 10
25.4763
 20
-7.87599
 11
25.4057
 21
-8.24606
  0
LINE
  8
0
 10
25.4057
 20
-8.24606
 11
25.2893
 21
-8.60437
  0
LINE
  8
0
 10
25.2893
 20
-8.60437
 11
25.1289
 21
-8.94525
  0
LINE
  8
0
 10
25.1289
 20
-8.94525
 11
24.927
 21
-9.26335
  0
LINE
  8
0
 10
24.927
 20
-9.26335
 11
24.6869
 21
-9.55363
  0
LINE
  8
0
 10
24.6869
 20
-9.55363
 11
24.4123
 21
-9.81154
  0
LINE
  8
0
 10
24.4123
 20
-9.81154
 11
24.1075
 21
-10.033
  0
LINE
  8
0
 10
24.1075
 20
-10.033
 11
23.7773
 21
-10.2145
  0
LINE
  8
0
 10
23.7773
 20
-10.2145
 11
23.427
 21
-10.3532
  0
LINE
  8
0
 10
23.427
 20
-10.3532
 11
23.0621
 21
-10.4469
  0
LINE
  8
0
 10
23.0621
 20
-10.4469
 11
22.6884
 21
-10.4941
  0
LINE
  8
0
 10
22.6884
 20
-10.4941
 11
22.3116
 21
-10.4941
  0
LINE
  8
0
 10
22.3116
 20
-10.4941
 11
21.9379
 21
-10.4469
  0
LINE
  8
0
 10
21.9379
 20
-10.4469
 11
21.5729
 21
-10.3532
  0
LINE
  8
0
 10
21.5729
 20
-10.3532
 11
21.2227
 21
-10.2145
  0
LINE
  8
0
 10
21.2227
 20
-10.2145
 11
20.8925
 21
-10.033
  0
LINE
  8
0
 10
20.8925
 20
-10.033
 11
20.5877
 21
-9.81154
  0
LINE
  8
0
 10
20.5877
 20
-9.81154
 11
20.3131
 21
-9.55363
  0
LINE
  8
0
 10
20.3131
 20
-9.55363
 11
20.0729
 21
-9.26335
  0
LINE
  8
0
 10
20.0729
 20
-9.26335
 11
19.8711
 21
-8.94525
  0
LINE
  8
0
 10
19.8711
 20
-8.94525
 11
19.7107
 21
-8.60437
  0
LINE
  8
0
 10
19.7107
 20
-8.60437
 11
19.5942
 21
-8.24606
  0
LINE
  8
0
 10
19.5942
 20
-8.24606
 11
19.5237
 21
-7.87599
  0
LINE
  8
0
 10
19.5237
 20
-7.87599
 11
19.5
 21
-7.5
  0
LINE
  8
0
 10
19.5
 20
-7.5
 11
19.5237
 21
-7.12399
  0
LINE
  8
0
 10
19.5237
 20
-7.12399
 11
19.5942
 21
-6.75392
  0
LINE
  8
0
 10
22.4058
 20
-16.497
 11
22.2189
 21
-16.4734
  0
LINE
  8
0
 10
22.2189
 20
-16.4734
 11
22.0365
 21
-16.4266
  0
LINE
  8
0
 10
22.0365
 20
-16.4266
 11
21.8613
 21
-16.3572
  0
LINE
  8
0
 10
21.8613
 20
-16.3572
 11
21.6963
 21
-16.2665
  0
LINE
  8
0
 10
21.6963
 20
-16.2665
 11
21.5439
 21
-16.1558
  0
LINE
  8
0
 10
21.5439
 20
-16.1558
 11
21.4065
 21
-16.0268
  0
LINE
  8
0
 10
21.4065
 20
-16.0268
 11
21.2865
 21
-15.8817
  0
LINE
  8
0
 10
21.2865
 20
-15.8817
 11
21.1855
 21
-15.7226
  0
LINE
  8
0
 10
21.1855
 20
-15.7226
 11
21.1053
 21
-15.5522
  0
LINE
  8
0
 10
21.1053
 20
-15.5522
 11
21.0471
 21
-15.373
  0
LINE
  8
0
 10
21.0471
 20
-15.373
 11
21.0118
 21
-15.188
  0
LINE
  8
0
 10
21.0118
 20
-15.188
 11
21
 21
-15
  0
LINE
  8
0
 10
21
 20
-15
 11
21.0118
 21
-14.812
  0
LINE
  8
0
 10
21.0118
 20
-14.812
 11
21.0471
 21
-14.627
  0
LINE
  8
0
 10
21.0471
 20
-14.627
 11
21.1053
 21
-14.4478
  0
LINE
  8
0
 10
21.1053
 20
-14.4478
 11
21.1855
 21
-14.2774
  0
LINE
  8
0
 10
21.1855
 20
-14.2774
 11
21.2865
 21
-14.1183
  0
LINE
  8
0
 10
21.2865
 20
-14.1183
 11
21.4065
 21
-13.9732
  0
LINE
  8
0
 10
21.4065
 20
-13.9732
 11
21.5439
 21
-13.8442
  0
LINE
  8
0
 10
21.5439
 20
-13.8442
 11
21.6963
 21
-13.7335
  0
LINE
  8
0
 10
21.6963
 20
-13.7335
 11
21.8613
 21
-13.6427
  0
LINE
  8
0
 10
21.8613
 20
-13.6427
 11
22.0365
 21
-13.5734
  0
LINE
  8
0
 10
22.0365
 20
-13.5734
 11
22.2189
 21
-13.5266
  0
LINE
  8
0
 10
22.2189
 20
-13.5266
 11
22.4058
 21
-13.5029
  0
LINE
  8
0
 10
22.4058
 20
-13.5029
 11
22.5942
 21
-13.5029
  0
LINE
  8
0
 10
22.5942
 20
-13.5029
 11
22.7811
 21
-13.5266
  0
LINE
  8
0
 10
22.7811
 20
-13.5266
 11
22.9635
 21
-13.5734
  0
LINE
  8
0
 10
22.9635
 20
-13.5734
 11
23.1387
 21
-13.6427
  0
LINE
  8
0
 10
23.1387
 20
-13.6427
 11
23.3037
 21
-13.7335
  0
LINE
  8
0
 10
23.3037
 20
-13.7335
 11
23.4561
 21
-13.8442
  0
LINE
  8
0
 10
23.4561
 20
-13.8442
 11
23.5934
 21
-13.9732
  0
LINE
  8
0
 10
23.5934
 20
-13.9732
 11
23.7135
 21
-14.1183
  0
LINE
  8
0
 10
23.7135
 20
-14.1183
 11
23.8145
 21
-14.2774
  0
LINE
  8
0
 10
23.8145
 20
-14.2774
 11
23.8947
 21
-14.4478
  0
LINE
  8
0
 10
23.8947
 20
-14.4478
 11
23.9529
 21
-14.627
  0
LINE
  8
0
 10
23.9529
 20
-14.627
 11
23.9882
 21
-14.812
  0
LINE
  8
0
 10
23.9882
 20
-14.812
 11
24
 21
-15
  0
LINE
  8
0
 10
24
 20
-15
 11
23.9882
 21
-15.188
  0
LINE
  8
0
 10
23.9882
 20
-15.188
 11
23.9529
 21
-15.373
  0
LINE
  8
0
 10
23.9529
 20
-15.373
 11
23.8947
 21
-15.5522
  0
LINE
  8
0
 10
23.8947
 20
-15.5522
 11
23.8145
 21
-15.7226
  0
LINE
  8
0
 10
23.8145
 20
-15.7226
 11
23.7135
 21
-15.8817
  0
LINE
  8
0
 10
23.7135
 20
-15.8817
 11
23.5934
 21
-16.0268
  0
LINE
  8
0
 10
23.5934
 20
-16.0268
 11
23.4561
 21
-16.1558
  0
LINE
  8
0
 10
23.4561
 20
-16.1558
 11
23.3037
 21
-16.2665
  0
LINE
  8
0
 10
23.3037
 20
-16.2665
 11
23.1387
 21
-16.3572
  0
LINE
  8
0
 10
23.1387
 20
-16.3572
 11
22.9635
 21
-16.4266
  0
LINE
  8
0
 10
22.9635
 20
-16.4266
 11
22.7811
 21
-16.4734
  0
LINE
  8
0
 10
22.7811
 20
-16.4734
 11
22.5942
 21
-16.497
  0
LINE
  8
0
 10
22.5942
 20
-16.497
 11
22.4058
 21
-16.497
  0
LINE
  8
0
 10
-22.5942
 20
-16.497
 11
-22.7811
 21
-16.4734
  0
LINE
  8
0
 10
-22.7811
 20
-16.4734
 11
-22.9635
 21
-16.4266
  0
LINE
  8
0
 10
-22.9635
 20
-16.4266
 11
-23.1387
 21
-16.3572
  0
LINE
  8
0
 10
-23.1387
 20
-16.3572
 11
-23.3037
 21
-16.2665
  0
LINE
  8
0
 10
-23.3037
 20
-16.2665
 11
-23.4561
 21
-16.1558
  0
LINE
  8
0
 10
-23.4561
 20
-16.1558
 11
-23.5934
 21
-16.0268
  0
LINE
  8
0
 10
-23.5934
 20
-16.0268
 11
-23.7135
 21
-15.8817
  0
LINE
  8
0
 10
-23.7135
 20
-15.8817
 11
-23.8145
 21
-15.7226
  0
LINE
  8
0
 10
-23.8145
 20
-15.7226
 11
-23.8947
 21
-15.5522
  0
LINE
  8
0
 10
-23.8947
 20
-15.5522
 11
-23.9529
 21
-15.373
  0
LINE
  8
0
 10
-23.9529
 20
-15.373
 11
-23.9882
 21
-15.188
  0
LINE
  8
0
 10
-23.9882
 20
-15.188
 11
-24
 21
-15
  0
LINE
  8
0
 10
-24
 20
-15
 11
-23.9882
 21
-14.812
  0
LINE
  8
0
 10
-23.9882
 20
-14.812
 11
-23.9529
 21
-14.627
  0
LINE
  8
0
 10
-23.9529
 20
-14.627
 11
-23.8947
 21
-14.4478
  0
LINE
  8
0
 10
-23.8947
 20
-14.4478
 11
-23.8145
 21
-14.2774
  0
LINE
  8
0
 10
-23.8145
 20
-14.2774
 11
-23.7135
 21
-14.1183
  0
LINE
  8
0
 10
-23.7135
 20
-14.1183
 11
-23.5934
 21
-13.9732
  0
LINE
  8
0
 10
-23.5934
 20
-13.9732
 11
-23.4561
 21
-13.8442
  0
LINE
  8
0
 10
-23.4561
 20
-13.8442
 11
-23.3037
 21
-13.7335
  0
LINE
  8
0
 10
-23.3037
 20
-13.7335
 11
-23.1387
 21
-13.6427
  0
LINE
  8
0
 10
-23.1387
 20
-13.6427
 11
-22.9635
 21
-13.5734
  0
LINE
  8
0
 10
-22.9635
 20
-13.5734
 11
-22.7811
 21
-13.5266
  0
LINE
  8
0
 10
-22.7811
 20
-13.5266
 11
-22.5942
 21
-13.5029
  0
LINE
  8
0
 10
-22.5942
 20
-13.5029
 11
-22.4058
 21
-13.5029
  0
LINE
  8
0
 10
-22.4058
 20
-13.5029
 11
-22.2189
 21
-13.5266
  0
LINE
  8
0
 10
-22.2189
 20
-13.5266
 11
-22.0365
 21
-13.5734
  0
LINE
  8
0
 10
-22.0365
 20
-13.5734
 11
-21.8613
 21
-13.6427
  0
LINE
  8
0
 10
-21.8613
 20
-13.6427
 11
-21.6963
 21
-13.7335
  0
LINE
  8
0
 10
-21.6963
 20
-13.7335
 11
-21.5439
 21
-13.8442
  0
LINE
  8
0
 10
-21.5439
 20
-13.8442
 11
-21.4065
 21
-13.9732
  0
LINE
  8
0
 10
-21.4065
 20
-13.9732
 11
-21.2865
 21
-14.1183
  0
LINE
  8
0
 10
-21.2865
 20
-14.1183
 11
-21.1855
 21
-14.2774
  0
LINE
  8
0
 10
-21.1855
 20
-14.2774
 11
-21.1053
 21
-14.4478
  0
LINE
  8
0
 10
-21.1053
 20
-14.4478
 11
-21.0471
 21
-14.627
  0
LINE
  8
0
 10
-21.0471
 20
-14.627
 11
-21.0118
 21
-14.812
  0
LINE
  8
0
 10
-21.0118
 20
-14.812
 11
-21
 21
-15
  0
LINE
  8
0
 10
-21
 20
-15
 11
-21.0118
 21
-15.188
  0
LINE
  8
0
 10
-21.0118
 20
-15.188
 11
-21.0471
 21
-15.373
  0
LINE
  8
0
 10
-21.0471
 20
-15.373
 11
-21.1053
 21
-15.5522
  0
LINE
  8
0
 10
-21.1053
 20
-15.5522
 11
-21.1855
 21
-15.7226
  0
LINE
  8
0
 10
-21.1855
 20
-15.7226
 11
-21.2865
 21
-15.8817
  0
LINE
  8
0
 10
-21.2865
 20
-15.8817
 11
-21.4065
 21
-16.0268
  0
LINE
  8
0
 10
-21.4065
 20
-16.0268
 11
-21.5439
 21
-16.1558
  0
LINE
  8
0
 10
-21.5439
 20
-16.1558
 11
-21.6963
 21
-16.2665
  0
LINE
  8
0
 10
-21.6963
 20
-16.2665
 11
-21.8613
 21
-16.3572
  0
LINE
  8
0
 10
-21.8613
 20
-16.3572
 11
-22.0365
 21
-16.4266
  0
LINE
  8
0
 10
-22.0365
 20
-16.4266
 11
-22.2189
 21
-16.4734
  0
LINE
  8
0
 10
-22.2189
 20
-16.4734
 11
-22.4058
 21
-16.497
  0
LINE
  8
0
 10
-22.4058
 20
-16.497
 11
-22.5942
 21
-16.497
  0
LINE
  8
0
 10
22.3116
 20
-25.4941
 11
21.9379
 21
-25.4469
  0
LINE
  8
0
 10
21.9379
 20
-25.4469
 11
21.5729
 21
-25.3532
  0
LINE
  8
0
 10
21.5729
 20
-25.3532
 11
21.2227
 21
-25.2145
  0
LINE
  8
0
 10
21.2227
 20
-25.2145
 11
20.8925
 21
-25.033
  0
LINE
  8
0
 10
20.8925
 20
-25.033
 11
20.5877
 21
-24.8115
  0
LINE
  8
0
 10
20.5877
 20
-24.8115
 11
20.3131
 21
-24.5536
  0
LINE
  8
0
 10
20.3131
 20
-24.5536
 11
20.0729
 21
-24.2634
  0
LINE
  8
0
 10
20.0729
 20
-24.2634
 11
19.8711
 21
-23.9453
  0
LINE
  8
0
 10
19.8711
 20
-23.9453
 11
19.7107
 21
-23.6044
  0
LINE
  8
0
 10
19.7107
 20
-23.6044
 11
19.5942
 21
-23.2461
  0
LINE
  8
0
 10
19.5942
 20
-23.2461
 11
19.5237
 21
-22.876
  0
LINE
  8
0
 10
19.5237
 20
-22.876
 11
19.5
 21
-22.5
  0
LINE
  8
0
 10
19.5
 20
-22.5
 11
19.5237
 21
-22.124
  0
LINE
  8
0
 10
19.5237
 20
-22.124
 11
19.5942
 21
-21.7539
  0
LINE
  8
0
 10
19.5942
 20
-21.7539
 11
19.7107
 21
-21.3956
  0
LINE
  8
0
 10
19.7107
 20
-21.3956
 11
19.8711
 21
-21.0547
  0
LINE
  8
0
 10
19.8711
 20
-21.0547
 11
20.0729
 21
-20.7366
  0
LINE
  8
0
 10
20.0729
 20
-20.7366
 11
20.3131
 21
-20.4464
  0
LINE
  8
0
 10
20.3131
 20
-20.4464
 11
20.5877
 21
-20.1884
  0
LINE
  8
0
 10
20.5877
 20
-20.1884
 11
20.8925
 21
-19.967
  0
LINE
  8
0
 10
20.8925
 20
-19.967
 11
21.2227
 21
-19.7855
  0
LINE
  8
0
 10
21.2227
 20
-19.7855
 11
21.5729
 21
-19.6468
  0
LINE
  8
0
 10
21.5729
 20
-19.6468
 11
21.9379
 21
-19.5531
  0
LINE
  8
0
 10
21.9379
 20
-19.5531
 11
22.3116
 21
-19.5059
  0
LINE
  8
0
 10
22.3116
 20
-19.5059
 11
22.6884
 21
-19.5059
  0
LINE
  8
0
 10
22.6884
 20
-19.5059
 11
23.0621
 21
-19.5531
  0
LINE
  8
0
 10
23.0621
 20
-19.5531
 11
23.427
 21
-19.6468
  0
LINE
  8
0
 10
23.427
 20
-19.6468
 11
23.7773
 21
-19.7855
  0
LINE
  8
0
 10
23.7773
 20
-19.7855
 11
24.1075
 21
-19.967
  0
LINE
  8
0
 10
24.1075
 20
-19.967
 11
24.4123
 21
-20.1884
  0
LINE
  8
0
 10
24.4123
 20
-20.1884
 11
24.6869
 21
-20.4464
  0
LINE
  8
0
 10
24.6869
 20
-20.4464
 11
24.927
 21
-20.7366
  0
LINE
  8
0
 10
24.927
 20
-20.7366
 11
25.1289
 21
-21.0547
  0
LINE
  8
0
 10
25.1289
 20
-21.0547
 11
25.2893
 21
-21.3956
  0
LINE
  8
0
 10
25.2893
 20
-21.3956
 11
25.4057
 21
-21.7539
  0
LINE
  8
0
 10
25.4057
 20
-21.7539
 11
25.4763
 21
-22.124
  0
LINE
  8
0
 10
25.4763
 20
-22.124
 11
25.5
 21
-22.5
  0
LINE
  8
0
 10
25.5
 20
-22.5
 11
25.4763
 21
-22.876
  0
LINE
  8
0
 10
25.4763
 20
-22.876
 11
25.4057
 21
-23.2461
  0
LINE
  8
0
 10
25.4057
 20
-23.2461
 11
25.2893
 21
-23.6044
  0
LINE
  8
0
 10
25.2893
 20
-23.6044
 11
25.1289
 21
-23.9453
  0
LINE
  8
0
 10
25.1289
 20
-23.9453
 11
24.927
 21
-24.2634
  0
LINE
  8
0
 10
24.927
 20
-24.2634
 11
24.6869
 21
-24.5536
  0
LINE
  8
0
 10
24.6869
 20
-24.5536
 11
24.4123
 21
-24.8115
  0
LINE
  8
0
 10
24.4123
 20
-24.8115
 11
24.1075
 21
-25.033
  0
LINE
  8
0
 10
24.1075
 20
-25.033
 11
23.7773
 21
-25.2145
  0
LINE
  8
0
 10
23.7773
 20
-25.2145
 11
23.427
 21
-25.3532
  0
LINE
  8
0
 10
23.427
 20
-25.3532
 11
23.0621
 21
-25.4469
  0
LINE
  8
0
 10
23.0621
 20
-25.4469
 11
22.6884
 21
-25.4941
  0
LINE
  8
0
 10
22.6884
 20
-25.4941
 11
22.3116
 21
-25.4941
  0
LINE
  8
0
 10
-22.6884
 20
-25.4941
 11
-23.0621
 21
-25.4469
  0
LINE
  8
0
 10
-23.0621
 20
-25.4469
 11
-23.427
 21
-25.3532
  0
LINE
  8
0
 10
-23.427
 20
-25.3532
 11
-23.7773
 21
-25.2145
  0
LINE
  8
0
 10
-23.7773
 20
-25.2145
 11
-24.1075
 21
-25.033
  0
LINE
  8
0
 10
-24.1075
 20
-25.033
 11
-24.4123
 21
-24.8115
  0
LINE
  8
0
 10
-24.4123
 20
-24.8115
 11
-24.6869
 21
-24.5536
  0
LINE
  8
0
 10
-24.6869
 20
-24.5536
 11
-24.927
 21
-24.2634
  0
LINE
  8
0
 10
-24.927
 20
-24.2634
 11
-25.1289
 21
-23.9453
  0
LINE
  8
0
 10
-25.1289
 20
-23.9453
 11
-25.2893
 21
-23.6044
  0
LINE
  8
0
 10
-25.2893
 20
-23.6044
 11
-25.4057
 21
-23.2461
  0
LINE
  8
0
 10
-25.4057
 20
-23.2461
 11
-25.4763
 21
-22.876
  0
LINE
  8
0
 10
-25.4763
 20
-22.876
 11
-25.5
 21
-22.5
  0
LINE
  8
0
 10
-25.5
 20
-22.5
 11
-25.4763
 21
-22.124
  0
LINE
  8
0
 10
-25.4763
 20
-22.124
 11
-25.4057
 21
-21.7539
  0
LINE
  8
0
 10
-25.4057
 20
-21.7539
 11
-25.2893
 21
-21.3956
  0
LINE
  8
0
 10
-25.2893
 20
-21.3956
 11
-25.1289
 21
-21.0547
  0
LINE
  8
0
 10
-25.1289
 20
-21.0547
 11
-24.927
 21
-20.7366
  0
LINE
  8
0
 10
-24.927
 20
-20.7366
 11
-24.6869
 21
-20.4464
  0
LINE
  8
0
 10
-24.6869
 20
-20.4464
 11
-24.4123
 21
-20.1884
  0
LINE
  8
0
 10
-24.4123
 20
-20.1884
 11
-24.1075
 21
-19.967
  0
LINE
  8
0
 10
-24.1075
 20
-19.967
 11
-23.7773
 21
-19.7855
  0
LINE
  8
0
 10
-23.7773
 20
-19.7855
 11
-23.427
 21
-19.6468
  0
LINE
  8
0
 10
-23.427
 20
-19.6468
 11
-23.0621
 21
-19.5531
  0
LINE
  8
0
 10
-23.0621
 20
-19.5531
 11
-22.6884
 21
-19.5059
  0
LINE
  8
0
 10
-22.6884
 20
-19.5059
 11
-22.3116
 21
-19.5059
  0
LINE
  8
0
 10
-22.3116
 20
-19.5059
 11
-21.9379
 21
-19.5531
  0
LINE
  8
0
 10
-21.9379
 20
-19.5531
 11
-21.5729
 21
-19.6468
  0
LINE
  8
0
 10
-21.5729
 20
-19.6468
 11
-21.2227
 21
-19.7855
  0
LINE
  8
0
 10
-21.2227
 20
-19.7855
 11
-20.8925
 21
-19.967
  0
LINE
  8
0
 10
-20.8925
 20
-19.967
 11
-20.5877
 21
-20.1884
  0
LINE
  8
0
 10
-20.5877
 20
-20.1884
 11
-20.3131
 21
-20.4464
  0
LINE
  8
0
 10
-20.3131
 20
-20.4464
 11
-20.0729
 21
-20.7366
  0
LINE
  8
0
 10
-20.0729
 20
-20.7366
 11
-19.8711
 21
-21.0547
  0
LINE
  8
0
 10
-19.8711
 20
-21.0547
 11
-19.7107
 21
-21.3956
  0
LINE
  8
0
 10
-19.7107
 20
-21.3956
 11
-19.5942
 21
-21.7539
  0
LINE
  8
0
 10
-19.5942
 20
-21.7539
 11
-19.5237
 21
-22.124
  0
LINE
  8
0
 10
-19.5237
 20
-22.124
 11
-19.5
 21
-22.5
  0
LINE
  8
0
 10
-19.5
 20
-22.5
 11
-19.5237
 21
-22.876
  0
LINE
  8
0
 10
-19.5237
 20
-22.876
 11
-19.5942
 21
-23.2461
  0
LINE
  8
0
 10
-19.5942
 20
-23.2461
 11
-19.7107
 21
-23.6044
  0
LINE
  8
0
 10
-19.7107
 20
-23.6044
 11
-19.8711
 21
-23.9453
  0
LINE
  8
0
 10
-19.8711
 20
-23.9453
 11
-20.0729
 21
-24.2634
  0
LINE
  8
0
 10
-20.0729
 20
-24.2634
 11
-20.3131
 21
-24.5536
  0
LINE
  8
0
 10
-20.3131
 20
-24.5536
 11
-20.5877
 21
-24.8115
  0
LINE
  8
0
 10
-20.5877
 20
-24.8115
 11
-20.8925
 21
-25.033
  0
LINE
  8
0
 10
-20.8925
 20
-25.033
 11
-21.2227
 21
-25.2145
  0
LINE
  8
0
 10
-21.2227
 20
-25.2145
 11
-21.5729
 21
-25.3532
  0
LINE
  8
0
 10
-21.5729
 20
-25.3532
 11
-21.9379
 21
-25.4469
  0
LINE
  8
0
 10
-21.9379
 20
-25.4469
 11
-22.3116
 21
-25.4941
  0
LINE
  8
0
 10
-22.3116
 20
-25.4941
 11
-22.6884
 21
-25.4941
  0
LINE
  8
0
 10
-19.5942
 20
21.7539
 11
-19.7107
 21
21.3956
  0
LINE
  8
0
 10
-19.7107
 20
21.3956
 11
-19.8711
 21
21.0547
  0
LINE
  8
0
 10
-19.8711
 20
21.0547
 11
-20.0729
 21
20.7366
  0
LINE
  8
0
 10
-20.0729
 20
20.7366
 11
-20.3131
 21
20.4464
  0
LINE
  8
0
 10
-20.3131
 20
20.4464
 11
-20.5877
 21
20.1884
  0
LINE
  8
0
 10
-20.5877
 20
20.1884
 11
-20.8925
 21
19.967
  0
LINE
  8
0
 10
-20.8925
 20
19.967
 11
-21.2227
 21
19.7855
  0
LINE
  8
0
 10
-21.2227
 20
19.7855
 11
-21.5729
 21
19.6468
  0
LINE
  8
0
 10
-21.5729
 20
19.6468
 11
-21.9379
 21
19.5531
  0
LINE
  8
0
 10
-21.9379
 20
19.5531
 11
-22.3116
 21
19.5059
  0
LINE
  8
0
 10
-22.3116
 20
19.5059
 11
-22.6884
 21
19.5059
  0
LINE
  8
0
 10
-22.6884
 20
19.5059
 11
-23.0621
 21
19.5531
  0
LINE
  8
0
 10
-23.0621
 20
19.5531
 11
-23.427
 21
19.6468
  0
LINE
  8
0
 10
-23.427
 20
19.6468
 11
-23.7773
 21
19.7855
  0
LINE
  8
0
 10
-23.7773
 20
19.7855
 11
-24.1075
 21
19.967
  0
LINE
  8
0
 10
-24.1075
 20
19.967
 11
-24.4123
 21
20.1884
  0
LINE
  8
0
 10
-24.4123
 20
20.1884
 11
-24.6869
 21
20.4464
  0
LINE
  8
0
 10
-24.6869
 20
20.4464
 11
-24.927
 21
20.7366
  0
LINE
  8
0
 10
-24.927
 20
20.7366
 11
-25.1289
 21
21.0547
  0
LINE
  8
0
 10
-25.1289
 20
21.0547
 11
-25.2893
 21
21.3956
  0
LINE
  8
0
 10
-25.2893
 20
21.3956
 11
-25.4057
 21
21.7539
  0
LINE
  8
0
 10
-25.4057
 20
21.7539
 11
-25.4763
 21
22.124
  0
LINE
  8
0
 10
-25.4763
 20
22.124
 11
-25.5
 21
22.5
  0
LINE
  8
0
 10
-25.5
 20
22.5
 11
-25.4763
 21
22.876
  0
LINE
  8
0
 10
-25.4763
 20
22.876
 11
-25.4057
 21
23.2461
  0
LINE
  8
0
 10
-25.4057
 20
23.2461
 11
-25.2893
 21
23.6044
  0
LINE
  8
0
 10
-25.2893
 20
23.6044
 11
-25.1289
 21
23.9453
  0
LINE
  8
0
 10
-25.1289
 20
23.9453
 11
-24.927
 21
24.2634
  0
LINE
  8
0
 10
-24.927
 20
24.2634
 11
-24.6869
 21
24.5536
  0
LINE
  8
0
 10
-24.6869
 20
24.5536
 11
-24.4123
 21
24.8115
  0
LINE
  8
0
 10
-24.4123
 20
24.8115
 11
-24.1075
 21
25.033
  0
LINE
  8
0
 10
-24.1075
 20
25.033
 11
-23.7773
 21
25.2145
  0
LINE
  8
0
 10
-23.7773
 20
25.2145
 11
-23.427
 21
25.3532
  0
LINE
  8
0
 10
-23.427
 20
25.3532
 11
-23.0621
 21
25.4469
  0
LINE
  8
0
 10
-23.0621
 20
25.4469
 11
-22.6884
 21
25.4941
  0
LINE
  8
0
 10
-22.6884
 20
25.4941
 11
-22.3116
 21
25.4941
  0
LINE
  8
0
 10
-22.3116
 20
25.4941
 11
-21.9379
 21
25.4469
  0
LINE
  8
0
 10
-21.9379
 20
25.4469
 11
-21.5729
 21
25.3532
  0
LINE
  8
0
 10
-21.5729
 20
25.3532
 11
-21.2227
 21
25.2145
  0
LINE
  8
0
 10
-21.2227
 20
25.2145
 11
-20.8925
 21
25.033
  0
LINE
  8
0
 10
-20.8925
 20
25.033
 11
-20.5877
 21
24.8115
  0
LINE
  8
0
 10
-20.5877
 20
24.8115
 11
-20.3131
 21
24.5536
  0
LINE
  8
0
 10
-20.3131
 20
24.5536
 11
-20.0729
 21
24.2634
  0
LINE
  8
0
 10
-20.0729
 20
24.2634
 11
-19.8711
 21
23.9453
  0
LINE
  8
0
 10
-19.8711
 20
23.9453
 11
-19.7107
 21
23.6044
  0
LINE
  8
0
 10
-19.7107
 20
23.6044
 11
-19.5942
 21
23.2461
  0
LINE
  8
0
 10
-19.5942
 20
23.2461
 11
-19.5237
 21
22.876
  0
LINE
  8
0
 10
-19.5237
 20
22.876
 11
-19.5
 21
22.5
  0
LINE
  8
0
 10
-19.5
 20
22.5
 11
-19.5237
 21
22.124
  0
LINE
  8
0
 10
-19.5237
 20
22.124
 11
-19.5942
 21
21.7539
  0
LINE
  8
0
 10
-19.5942
 20
-8.24606
 11
-19.7107
 21
-8.60437
  0
LINE
  8
0
 10
-19.7107
 20
-8.60437
 11
-19.8711
 21
-8.94525
  0
LINE
  8
0
 10
-19.8711
 20
-8.94525
 11
-20.0729
 21
-9.26335
  0
LINE
  8
0
 10
-20.0729
 20
-9.26335
 11
-20.3131
 21
-9.55363
  0
LINE
  8
0
 10
-20.3131
 20
-9.55363
 11
-20.5877
 21
-9.81154
  0
LINE
  8
0
 10
-20.5877
 20
-9.81154
 11
-20.8925
 21
-10.033
  0
LINE
  8
0
 10
-20.8925
 20
-10.033
 11
-21.2227
 21
-10.2145
  0
LINE
  8
0
 10
-21.2227
 20
-10.2145
 11
-21.5729
 21
-10.3532
  0
LINE
  8
0
 10
-21.5729
 20
-10.3532
 11
-21.9379
 21
-10.4469
  0
LINE
  8
0
 10
-21.9379
 20
-10.4469
 11
-22.3116
 21
-10.4941
  0
LINE
  8
0
 10
-22.3116
 20
-10.4941
 11
-22.6884
 21
-10.4941
  0
LINE
  8
0
 10
-22.6884
 20
-10.4941
 11
-23.0621
 21
-10.4469
  0
LINE
  8
0
 10
-23.0621
 20
-10.4469
 11
-23.427
 21
-10.3532
  0
LINE
  8
0
 10
-23.427
 20
-10.3532
 11
-23.7773
 21
-10.2145
  0
LINE
  8
0
 10
-23.7773
 20
-10.2145
 11
-24.1075
 21
-10.033
  0
LINE
  8
0
 10
-24.1075
 20
-10.033
 11
-24.4123
 21
-9.81154
  0
LINE
  8
0
 10
-24.4123
 20
-9.81154
 11
-24.6869
 21
-9.55363
  0
LINE
  8
0
 10
-24.6869
 20
-9.55363
 11
-24.927
 21
-9.26335
  0
LINE
  8
0
 10
-24.927
 20
-9.26335
 11
-25.1289
 21
-8.94525
  0
LINE
  8
0
 10
-25.1289
 20
-8.94525
 11
-25.2893
 21
-8.60437
  0
LINE
  8
0
 10
-25.2893
 20
-8.60437
 11
-25.4057
 21
-8.24606
  0
LINE
  8
0
 10
-25.4057
 20
-8.24606
 11
-25.4763
 21
-7.87599
  0
LINE
  8
0
 10
-25.4763
 20
-7.87599
 11
-25.5
 21
-7.5
  0
LINE
  8
0
 10
-25.5
 20
-7.5
 11
-25.4763
 21
-7.12399
  0
LINE
  8
0
 10
-25.4763
 20
-7.12399
 11
-25.4057
 21
-6.75392
  0
LINE
  8
0
 10
-25.4057
 20
-6.75392
 11
-25.2893
 21
-6.39561
  0
LINE
  8
0
 10
-25.2893
 20
-6.39561
 11
-25.1289
 21
-6.05473
  0
LINE
  8
0
 10
-25.1289
 20
-6.05473
 11
-24.927
 21
-5.73663
  0
LINE
  8
0
 10
-24.927
 20
-5.73663
 11
-24.6869
 21
-5.44635
  0
LINE
  8
0
 10
-24.6869
 20
-5.44635
 11
-24.4123
 21
-5.18845
  0
LINE
  8
0
 10
-24.4123
 20
-5.18845
 11
-24.1075
 21
-4.96701
  0
LINE
  8
0
 10
-24.1075
 20
-4.96701
 11
-23.7773
 21
-4.78551
  0
LINE
  8
0
 10
-23.7773
 20
-4.78551
 11
-23.427
 21
-4.64682
  0
LINE
  8
0
 10
-23.427
 20
-4.64682
 11
-23.0621
 21
-4.55313
  0
LINE
  8
0
 10
-23.0621
 20
-4.55313
 11
-22.6884
 21
-4.50591
  0
LINE
  8
0
 10
-22.6884
 20
-4.50591
 11
-22.3116
 21
-4.50591
  0
LINE
  8
0
 10
-22.3116
 20
-4.50591
 11
-21.9379
 21
-4.55313
  0
LINE
  8
0
 10
-21.9379
 20
-4.55313
 11
-21.5729
 21
-4.64682
  0
LINE
  8
0
 10
-21.5729
 20
-4.64682
 11
-21.2227
 21
-4.78551
  0
LINE
  8
0
 10
-21.2227
 20
-4.78551
 11
-20.8925
 21
-4.96701
  0
LINE
  8
0
 10
-20.8925
 20
-4.96701
 11
-20.5877
 21
-5.18845
  0
LINE
  8
0
 10
-20.5877
 20
-5.18845
 11
-20.3131
 21
-5.44635
  0
LINE
  8
0
 10
-20.3131
 20
-5.44635
 11
-20.0729
 21
-5.73663
  0
LINE
  8
0
 10
-20.0729
 20
-5.73663
 11
-19.8711
 21
-6.05473
  0
LINE
  8
0
 10
-19.8711
 20
-6.05473
 11
-19.7107
 21
-6.39561
  0
LINE
  8
0
 10
-19.7107
 20
-6.39561
 11
-19.5942
 21
-6.75392
  0
LINE
  8
0
 10
-19.5942
 20
-6.75392
 11
-19.5237
 21
-7.12399
  0
LINE
  8
0
 10
-19.5237
 20
-7.12399
 11
-19.5
 21
-7.5
  0
LINE
  8
0
 10
-19.5
 20
-7.5
 11
-19.5237
 21
-7.87599
  0
LINE
  8
0
 10
-19.5237
 20
-7.87599
 11
-19.5942
 21
-8.24606
  0
ENDSEC
  0
SECTION
  2
OBJECTS
  0
DICTIONARY
  0
ENDSEC
  0
EOF
