  0
SECTION
  2
BLOCKS
  0
ENDSEC
  0
SECTION
  2
ENTITIES
  0
LINE
  8
0
 10
205.437
 20
-6.91142
 11
206.045
 21
-6.75528
  0
LINE
  8
0
 10
206.045
 20
-6.75528
 11
206.629
 21
-6.52412
  0
LINE
  8
0
 10
206.629
 20
-6.52412
 11
207.179
 21
-6.22163
  0
LINE
  8
0
 10
207.179
 20
-6.22163
 11
207.687
 21
-5.85255
  0
LINE
  8
0
 10
207.687
 20
-5.85255
 11
208.145
 21
-5.42273
  0
LINE
  8
0
 10
208.145
 20
-5.42273
 11
208.545
 21
-4.93892
  0
LINE
  8
0
 10
208.545
 20
-4.93892
 11
208.882
 21
-4.40877
  0
LINE
  8
0
 10
208.882
 20
-4.40877
 11
209.149
 21
-3.84062
  0
LINE
  8
0
 10
209.149
 20
-3.84062
 11
209.343
 21
-3.24344
  0
LINE
  8
0
 10
209.343
 20
-3.24344
 11
209.461
 21
-2.62666
  0
LINE
  8
0
 10
209.461
 20
-2.62666
 11
209.5
 21
-2
  0
LINE
  8
0
 10
209.5
 20
-2
 11
209.5
 21
2
  0
LINE
  8
0
 10
209.5
 20
2
 11
209.461
 21
2.62666
  0
LINE
  8
0
 10
209.461
 20
2.62666
 11
209.343
 21
3.24344
  0
LINE
  8
0
 10
209.343
 20
3.24344
 11
209.149
 21
3.84062
  0
LINE
  8
0
 10
209.149
 20
3.84062
 11
208.882
 21
4.40877
  0
LINE
  8
0
 10
208.882
 20
4.40877
 11
208.545
 21
4.93892
  0
LINE
  8
0
 10
208.545
 20
4.93892
 11
208.145
 21
5.42273
  0
LINE
  8
0
 10
208.145
 20
5.42273
 11
207.687
 21
5.85255
  0
LINE
  8
0
 10
207.687
 20
5.85255
 11
207.179
 21
6.22163
  0
LINE
  8
0
 10
207.179
 20
6.22163
 11
206.629
 21
6.52412
  0
LINE
  8
0
 10
206.629
 20
6.52412
 11
206.045
 21
6.75528
  0
LINE
  8
0
 10
206.045
 20
6.75528
 11
205.437
 21
6.91142
  0
LINE
  8
0
 10
205.437
 20
6.91142
 11
204.814
 21
6.99013
  0
LINE
  8
0
 10
204.814
 20
6.99013
 11
-204.814
 21
6.99013
  0
LINE
  8
0
 10
-204.814
 20
6.99013
 11
-205.437
 21
6.91142
  0
LINE
  8
0
 10
-205.437
 20
6.91142
 11
-206.045
 21
6.75528
  0
LINE
  8
0
 10
-206.045
 20
6.75528
 11
-206.629
 21
6.52412
  0
LINE
  8
0
 10
-206.629
 20
6.52412
 11
-207.179
 21
6.22163
  0
LINE
  8
0
 10
-207.179
 20
6.22163
 11
-207.687
 21
5.85255
  0
LINE
  8
0
 10
-207.687
 20
5.85255
 11
-208.145
 21
5.42273
  0
LINE
  8
0
 10
-208.145
 20
5.42273
 11
-208.545
 21
4.93892
  0
LINE
  8
0
 10
-208.545
 20
4.93892
 11
-208.882
 21
4.40877
  0
LINE
  8
0
 10
-208.882
 20
4.40877
 11
-209.149
 21
3.84062
  0
LINE
  8
0
 10
-209.149
 20
3.84062
 11
-209.343
 21
3.24344
  0
LINE
  8
0
 10
-209.343
 20
3.24344
 11
-209.461
 21
2.62666
  0
LINE
  8
0
 10
-209.461
 20
2.62666
 11
-209.5
 21
2
  0
LINE
  8
0
 10
-209.5
 20
2
 11
-209.5
 21
-2
  0
LINE
  8
0
 10
-209.5
 20
-2
 11
-209.461
 21
-2.62666
  0
LINE
  8
0
 10
-209.461
 20
-2.62666
 11
-209.343
 21
-3.24344
  0
LINE
  8
0
 10
-209.343
 20
-3.24344
 11
-209.149
 21
-3.84062
  0
LINE
  8
0
 10
-209.149
 20
-3.84062
 11
-208.882
 21
-4.40877
  0
LINE
  8
0
 10
-208.882
 20
-4.40877
 11
-208.545
 21
-4.93892
  0
LINE
  8
0
 10
-208.545
 20
-4.93892
 11
-208.145
 21
-5.42273
  0
LINE
  8
0
 10
-208.145
 20
-5.42273
 11
-207.687
 21
-5.85255
  0
LINE
  8
0
 10
-207.687
 20
-5.85255
 11
-207.179
 21
-6.22163
  0
LINE
  8
0
 10
-207.179
 20
-6.22163
 11
-206.629
 21
-6.52412
  0
LINE
  8
0
 10
-206.629
 20
-6.52412
 11
-206.045
 21
-6.75528
  0
LINE
  8
0
 10
-206.045
 20
-6.75528
 11
-205.437
 21
-6.91142
  0
LINE
  8
0
 10
-205.437
 20
-6.91142
 11
-204.814
 21
-6.99013
  0
LINE
  8
0
 10
-204.814
 20
-6.99013
 11
204.814
 21
-6.99013
  0
LINE
  8
0
 10
204.814
 20
-6.99013
 11
205.437
 21
-6.91142
  0
LINE
  8
0
 10
202.312
 20
-2.99408
 11
201.938
 21
-2.94685
  0
LINE
  8
0
 10
201.938
 20
-2.94685
 11
201.573
 21
-2.85316
  0
LINE
  8
0
 10
201.573
 20
-2.85316
 11
201.223
 21
-2.71448
  0
LINE
  8
0
 10
201.223
 20
-2.71448
 11
200.893
 21
-2.53297
  0
LINE
  8
0
 10
200.893
 20
-2.53297
 11
200.588
 21
-2.31154
  0
LINE
  8
0
 10
200.588
 20
-2.31154
 11
200.313
 21
-2.05363
  0
LINE
  8
0
 10
200.313
 20
-2.05363
 11
200.073
 21
-1.76335
  0
LINE
  8
0
 10
200.073
 20
-1.76335
 11
199.871
 21
-1.44525
  0
LINE
  8
0
 10
199.871
 20
-1.44525
 11
199.711
 21
-1.10437
  0
LINE
  8
0
 10
199.711
 20
-1.10437
 11
199.594
 21
-0.746063
  0
LINE
  8
0
 10
199.594
 20
-0.746063
 11
199.524
 21
-0.375992
  0
LINE
  8
0
 10
199.524
 20
-0.375992
 11
199.5
 21
0
  0
LINE
  8
0
 10
199.5
 20
0
 11
199.524
 21
0.375992
  0
LINE
  8
0
 10
199.524
 20
0.375992
 11
199.594
 21
0.746063
  0
LINE
  8
0
 10
199.594
 20
0.746063
 11
199.711
 21
1.10437
  0
LINE
  8
0
 10
199.711
 20
1.10437
 11
199.871
 21
1.44525
  0
LINE
  8
0
 10
199.871
 20
1.44525
 11
200.073
 21
1.76335
  0
LINE
  8
0
 10
200.073
 20
1.76335
 11
200.313
 21
2.05363
  0
LINE
  8
0
 10
200.313
 20
2.05363
 11
200.588
 21
2.31154
  0
LINE
  8
0
 10
200.588
 20
2.31154
 11
200.893
 21
2.53297
  0
LINE
  8
0
 10
200.893
 20
2.53297
 11
201.223
 21
2.71448
  0
LINE
  8
0
 10
201.223
 20
2.71448
 11
201.573
 21
2.85316
  0
LINE
  8
0
 10
201.573
 20
2.85316
 11
201.938
 21
2.94685
  0
LINE
  8
0
 10
201.938
 20
2.94685
 11
202.312
 21
2.99408
  0
LINE
  8
0
 10
202.312
 20
2.99408
 11
202.688
 21
2.99408
  0
LINE
  8
0
 10
202.688
 20
2.99408
 11
203.062
 21
2.94685
  0
LINE
  8
0
 10
203.062
 20
2.94685
 11
203.427
 21
2.85316
  0
LINE
  8
0
 10
203.427
 20
2.85316
 11
203.777
 21
2.71448
  0
LINE
  8
0
 10
203.777
 20
2.71448
 11
204.107
 21
2.53297
  0
LINE
  8
0
 10
204.107
 20
2.53297
 11
204.412
 21
2.31154
  0
LINE
  8
0
 10
204.412
 20
2.31154
 11
204.687
 21
2.05363
  0
LINE
  8
0
 10
204.687
 20
2.05363
 11
204.927
 21
1.76335
  0
LINE
  8
0
 10
204.927
 20
1.76335
 11
205.129
 21
1.44525
  0
LINE
  8
0
 10
205.129
 20
1.44525
 11
205.289
 21
1.10437
  0
LINE
  8
0
 10
205.289
 20
1.10437
 11
205.406
 21
0.746063
  0
LINE
  8
0
 10
205.406
 20
0.746063
 11
205.476
 21
0.375992
  0
LINE
  8
0
 10
205.476
 20
0.375992
 11
205.5
 21
0
  0
LINE
  8
0
 10
205.5
 20
0
 11
205.476
 21
-0.375992
  0
LINE
  8
0
 10
205.476
 20
-0.375992
 11
205.406
 21
-0.746063
  0
LINE
  8
0
 10
205.406
 20
-0.746063
 11
205.289
 21
-1.10437
  0
LINE
  8
0
 10
205.289
 20
-1.10437
 11
205.129
 21
-1.44525
  0
LINE
  8
0
 10
205.129
 20
-1.44525
 11
204.927
 21
-1.76335
  0
LINE
  8
0
 10
204.927
 20
-1.76335
 11
204.687
 21
-2.05363
  0
LINE
  8
0
 10
204.687
 20
-2.05363
 11
204.412
 21
-2.31154
  0
LINE
  8
0
 10
204.412
 20
-2.31154
 11
204.107
 21
-2.53297
  0
LINE
  8
0
 10
204.107
 20
-2.53297
 11
203.777
 21
-2.71448
  0
LINE
  8
0
 10
203.777
 20
-2.71448
 11
203.427
 21
-2.85316
  0
LINE
  8
0
 10
203.427
 20
-2.85316
 11
203.062
 21
-2.94685
  0
LINE
  8
0
 10
203.062
 20
-2.94685
 11
202.688
 21
-2.99408
  0
LINE
  8
0
 10
202.688
 20
-2.99408
 11
202.312
 21
-2.99408
  0
LINE
  8
0
 10
-202.688
 20
-2.99408
 11
-203.062
 21
-2.94685
  0
LINE
  8
0
 10
-203.062
 20
-2.94685
 11
-203.427
 21
-2.85316
  0
LINE
  8
0
 10
-203.427
 20
-2.85316
 11
-203.777
 21
-2.71448
  0
LINE
  8
0
 10
-203.777
 20
-2.71448
 11
-204.107
 21
-2.53297
  0
LINE
  8
0
 10
-204.107
 20
-2.53297
 11
-204.412
 21
-2.31154
  0
LINE
  8
0
 10
-204.412
 20
-2.31154
 11
-204.687
 21
-2.05363
  0
LINE
  8
0
 10
-204.687
 20
-2.05363
 11
-204.927
 21
-1.76335
  0
LINE
  8
0
 10
-204.927
 20
-1.76335
 11
-205.129
 21
-1.44525
  0
LINE
  8
0
 10
-205.129
 20
-1.44525
 11
-205.289
 21
-1.10437
  0
LINE
  8
0
 10
-205.289
 20
-1.10437
 11
-205.406
 21
-0.746063
  0
LINE
  8
0
 10
-205.406
 20
-0.746063
 11
-205.476
 21
-0.375992
  0
LINE
  8
0
 10
-205.476
 20
-0.375992
 11
-205.5
 21
0
  0
LINE
  8
0
 10
-205.5
 20
0
 11
-205.476
 21
0.375992
  0
LINE
  8
0
 10
-205.476
 20
0.375992
 11
-205.406
 21
0.746063
  0
LINE
  8
0
 10
-205.406
 20
0.746063
 11
-205.289
 21
1.10437
  0
LINE
  8
0
 10
-205.289
 20
1.10437
 11
-205.129
 21
1.44525
  0
LINE
  8
0
 10
-205.129
 20
1.44525
 11
-204.927
 21
1.76335
  0
LINE
  8
0
 10
-204.927
 20
1.76335
 11
-204.687
 21
2.05363
  0
LINE
  8
0
 10
-204.687
 20
2.05363
 11
-204.412
 21
2.31154
  0
LINE
  8
0
 10
-204.412
 20
2.31154
 11
-204.107
 21
2.53297
  0
LINE
  8
0
 10
-204.107
 20
2.53297
 11
-203.777
 21
2.71448
  0
LINE
  8
0
 10
-203.777
 20
2.71448
 11
-203.427
 21
2.85316
  0
LINE
  8
0
 10
-203.427
 20
2.85316
 11
-203.062
 21
2.94685
  0
LINE
  8
0
 10
-203.062
 20
2.94685
 11
-202.688
 21
2.99408
  0
LINE
  8
0
 10
-202.688
 20
2.99408
 11
-202.312
 21
2.99408
  0
LINE
  8
0
 10
-202.312
 20
2.99408
 11
-201.938
 21
2.94685
  0
LINE
  8
0
 10
-201.938
 20
2.94685
 11
-201.573
 21
2.85316
  0
LINE
  8
0
 10
-201.573
 20
2.85316
 11
-201.223
 21
2.71448
  0
LINE
  8
0
 10
-201.223
 20
2.71448
 11
-200.893
 21
2.53297
  0
LINE
  8
0
 10
-200.893
 20
2.53297
 11
-200.588
 21
2.31154
  0
LINE
  8
0
 10
-200.588
 20
2.31154
 11
-200.313
 21
2.05363
  0
LINE
  8
0
 10
-200.313
 20
2.05363
 11
-200.073
 21
1.76335
  0
LINE
  8
0
 10
-200.073
 20
1.76335
 11
-199.871
 21
1.44525
  0
LINE
  8
0
 10
-199.871
 20
1.44525
 11
-199.711
 21
1.10437
  0
LINE
  8
0
 10
-199.711
 20
1.10437
 11
-199.594
 21
0.746063
  0
LINE
  8
0
 10
-199.594
 20
0.746063
 11
-199.524
 21
0.375992
  0
LINE
  8
0
 10
-199.524
 20
0.375992
 11
-199.5
 21
0
  0
LINE
  8
0
 10
-199.5
 20
0
 11
-199.524
 21
-0.375992
  0
LINE
  8
0
 10
-199.524
 20
-0.375992
 11
-199.594
 21
-0.746063
  0
LINE
  8
0
 10
-199.594
 20
-0.746063
 11
-199.711
 21
-1.10437
  0
LINE
  8
0
 10
-199.711
 20
-1.10437
 11
-199.871
 21
-1.44525
  0
LINE
  8
0
 10
-199.871
 20
-1.44525
 11
-200.073
 21
-1.76335
  0
LINE
  8
0
 10
-200.073
 20
-1.76335
 11
-200.313
 21
-2.05363
  0
LINE
  8
0
 10
-200.313
 20
-2.05363
 11
-200.588
 21
-2.31154
  0
LINE
  8
0
 10
-200.588
 20
-2.31154
 11
-200.893
 21
-2.53297
  0
LINE
  8
0
 10
-200.893
 20
-2.53297
 11
-201.223
 21
-2.71448
  0
LINE
  8
0
 10
-201.223
 20
-2.71448
 11
-201.573
 21
-2.85316
  0
LINE
  8
0
 10
-201.573
 20
-2.85316
 11
-201.938
 21
-2.94685
  0
LINE
  8
0
 10
-201.938
 20
-2.94685
 11
-202.312
 21
-2.99408
  0
LINE
  8
0
 10
-202.312
 20
-2.99408
 11
-202.688
 21
-2.99408
  0
ENDSEC
  0
SECTION
  2
OBJECTS
  0
DICTIONARY
  0
ENDSEC
  0
EOF
