  0
SECTION
  2
BLOCKS
  0
ENDSEC
  0
SECTION
  2
ENTITIES
  0
LINE
  8
0
 10
122.937
 20
-111.911
 11
123.545
 21
-111.755
  0
LINE
  8
0
 10
123.545
 20
-111.755
 11
124.129
 21
-111.524
  0
LINE
  8
0
 10
124.129
 20
-111.524
 11
124.679
 21
-111.222
  0
LINE
  8
0
 10
124.679
 20
-111.222
 11
125.187
 21
-110.853
  0
LINE
  8
0
 10
125.187
 20
-110.853
 11
125.645
 21
-110.423
  0
LINE
  8
0
 10
125.645
 20
-110.423
 11
126.045
 21
-109.939
  0
LINE
  8
0
 10
126.045
 20
-109.939
 11
126.382
 21
-109.409
  0
LINE
  8
0
 10
126.382
 20
-109.409
 11
126.649
 21
-108.841
  0
LINE
  8
0
 10
126.649
 20
-108.841
 11
126.843
 21
-108.243
  0
LINE
  8
0
 10
126.843
 20
-108.243
 11
126.961
 21
-107.627
  0
LINE
  8
0
 10
126.961
 20
-107.627
 11
127
 21
-107
  0
LINE
  8
0
 10
127
 20
-107
 11
127
 21
107
  0
LINE
  8
0
 10
127
 20
107
 11
126.961
 21
107.627
  0
LINE
  8
0
 10
126.961
 20
107.627
 11
126.843
 21
108.243
  0
LINE
  8
0
 10
126.843
 20
108.243
 11
126.649
 21
108.841
  0
LINE
  8
0
 10
126.649
 20
108.841
 11
126.382
 21
109.409
  0
LINE
  8
0
 10
126.382
 20
109.409
 11
126.045
 21
109.939
  0
LINE
  8
0
 10
126.045
 20
109.939
 11
125.645
 21
110.423
  0
LINE
  8
0
 10
125.645
 20
110.423
 11
125.187
 21
110.853
  0
LINE
  8
0
 10
125.187
 20
110.853
 11
124.679
 21
111.222
  0
LINE
  8
0
 10
124.679
 20
111.222
 11
124.129
 21
111.524
  0
LINE
  8
0
 10
124.129
 20
111.524
 11
123.545
 21
111.755
  0
LINE
  8
0
 10
123.545
 20
111.755
 11
122.937
 21
111.911
  0
LINE
  8
0
 10
122.937
 20
111.911
 11
122.314
 21
111.99
  0
LINE
  8
0
 10
122.314
 20
111.99
 11
-122.314
 21
111.99
  0
LINE
  8
0
 10
-122.314
 20
111.99
 11
-122.937
 21
111.911
  0
LINE
  8
0
 10
-122.937
 20
111.911
 11
-123.545
 21
111.755
  0
LINE
  8
0
 10
-123.545
 20
111.755
 11
-124.129
 21
111.524
  0
LINE
  8
0
 10
-124.129
 20
111.524
 11
-124.679
 21
111.222
  0
LINE
  8
0
 10
-124.679
 20
111.222
 11
-125.187
 21
110.853
  0
LINE
  8
0
 10
-125.187
 20
110.853
 11
-125.645
 21
110.423
  0
LINE
  8
0
 10
-125.645
 20
110.423
 11
-126.045
 21
109.939
  0
LINE
  8
0
 10
-126.045
 20
109.939
 11
-126.382
 21
109.409
  0
LINE
  8
0
 10
-126.382
 20
109.409
 11
-126.649
 21
108.841
  0
LINE
  8
0
 10
-126.649
 20
108.841
 11
-126.843
 21
108.243
  0
LINE
  8
0
 10
-126.843
 20
108.243
 11
-126.961
 21
107.627
  0
LINE
  8
0
 10
-126.961
 20
107.627
 11
-127
 21
107
  0
LINE
  8
0
 10
-127
 20
107
 11
-127
 21
-107
  0
LINE
  8
0
 10
-127
 20
-107
 11
-126.961
 21
-107.627
  0
LINE
  8
0
 10
-126.961
 20
-107.627
 11
-126.843
 21
-108.243
  0
LINE
  8
0
 10
-126.843
 20
-108.243
 11
-126.649
 21
-108.841
  0
LINE
  8
0
 10
-126.649
 20
-108.841
 11
-126.382
 21
-109.409
  0
LINE
  8
0
 10
-126.382
 20
-109.409
 11
-126.045
 21
-109.939
  0
LINE
  8
0
 10
-126.045
 20
-109.939
 11
-125.645
 21
-110.423
  0
LINE
  8
0
 10
-125.645
 20
-110.423
 11
-125.187
 21
-110.853
  0
LINE
  8
0
 10
-125.187
 20
-110.853
 11
-124.679
 21
-111.222
  0
LINE
  8
0
 10
-124.679
 20
-111.222
 11
-124.129
 21
-111.524
  0
LINE
  8
0
 10
-124.129
 20
-111.524
 11
-123.545
 21
-111.755
  0
LINE
  8
0
 10
-123.545
 20
-111.755
 11
-122.937
 21
-111.911
  0
LINE
  8
0
 10
-122.937
 20
-111.911
 11
-122.314
 21
-111.99
  0
LINE
  8
0
 10
-122.314
 20
-111.99
 11
122.314
 21
-111.99
  0
LINE
  8
0
 10
122.314
 20
-111.99
 11
122.937
 21
-111.911
  0
LINE
  8
0
 10
119.812
 20
102.006
 11
119.438
 21
102.053
  0
LINE
  8
0
 10
119.438
 20
102.053
 11
119.073
 21
102.147
  0
LINE
  8
0
 10
119.073
 20
102.147
 11
118.723
 21
102.286
  0
LINE
  8
0
 10
118.723
 20
102.286
 11
118.393
 21
102.467
  0
LINE
  8
0
 10
118.393
 20
102.467
 11
118.088
 21
102.688
  0
LINE
  8
0
 10
118.088
 20
102.688
 11
117.813
 21
102.946
  0
LINE
  8
0
 10
117.813
 20
102.946
 11
117.573
 21
103.237
  0
LINE
  8
0
 10
117.573
 20
103.237
 11
117.371
 21
103.555
  0
LINE
  8
0
 10
117.371
 20
103.555
 11
117.211
 21
103.896
  0
LINE
  8
0
 10
117.211
 20
103.896
 11
117.094
 21
104.254
  0
LINE
  8
0
 10
117.094
 20
104.254
 11
117.024
 21
104.624
  0
LINE
  8
0
 10
117.024
 20
104.624
 11
117
 21
105
  0
LINE
  8
0
 10
117
 20
105
 11
117.024
 21
105.376
  0
LINE
  8
0
 10
117.024
 20
105.376
 11
117.094
 21
105.746
  0
LINE
  8
0
 10
117.094
 20
105.746
 11
117.211
 21
106.104
  0
LINE
  8
0
 10
117.211
 20
106.104
 11
117.371
 21
106.445
  0
LINE
  8
0
 10
117.371
 20
106.445
 11
117.573
 21
106.763
  0
LINE
  8
0
 10
117.573
 20
106.763
 11
117.813
 21
107.054
  0
LINE
  8
0
 10
117.813
 20
107.054
 11
118.088
 21
107.312
  0
LINE
  8
0
 10
118.088
 20
107.312
 11
118.393
 21
107.533
  0
LINE
  8
0
 10
118.393
 20
107.533
 11
118.723
 21
107.714
  0
LINE
  8
0
 10
118.723
 20
107.714
 11
119.073
 21
107.853
  0
LINE
  8
0
 10
119.073
 20
107.853
 11
119.438
 21
107.947
  0
LINE
  8
0
 10
119.438
 20
107.947
 11
119.812
 21
107.994
  0
LINE
  8
0
 10
119.812
 20
107.994
 11
120.188
 21
107.994
  0
LINE
  8
0
 10
120.188
 20
107.994
 11
120.562
 21
107.947
  0
LINE
  8
0
 10
120.562
 20
107.947
 11
120.927
 21
107.853
  0
LINE
  8
0
 10
120.927
 20
107.853
 11
121.277
 21
107.714
  0
LINE
  8
0
 10
121.277
 20
107.714
 11
121.607
 21
107.533
  0
LINE
  8
0
 10
121.607
 20
107.533
 11
121.912
 21
107.312
  0
LINE
  8
0
 10
121.912
 20
107.312
 11
122.187
 21
107.054
  0
LINE
  8
0
 10
122.187
 20
107.054
 11
122.427
 21
106.763
  0
LINE
  8
0
 10
122.427
 20
106.763
 11
122.629
 21
106.445
  0
LINE
  8
0
 10
122.629
 20
106.445
 11
122.789
 21
106.104
  0
LINE
  8
0
 10
122.789
 20
106.104
 11
122.906
 21
105.746
  0
LINE
  8
0
 10
122.906
 20
105.746
 11
122.976
 21
105.376
  0
LINE
  8
0
 10
122.976
 20
105.376
 11
123
 21
105
  0
LINE
  8
0
 10
123
 20
105
 11
122.976
 21
104.624
  0
LINE
  8
0
 10
122.976
 20
104.624
 11
122.906
 21
104.254
  0
LINE
  8
0
 10
122.906
 20
104.254
 11
122.789
 21
103.896
  0
LINE
  8
0
 10
122.789
 20
103.896
 11
122.629
 21
103.555
  0
LINE
  8
0
 10
122.629
 20
103.555
 11
122.427
 21
103.237
  0
LINE
  8
0
 10
122.427
 20
103.237
 11
122.187
 21
102.946
  0
LINE
  8
0
 10
122.187
 20
102.946
 11
121.912
 21
102.688
  0
LINE
  8
0
 10
121.912
 20
102.688
 11
121.607
 21
102.467
  0
LINE
  8
0
 10
121.607
 20
102.467
 11
121.277
 21
102.286
  0
LINE
  8
0
 10
121.277
 20
102.286
 11
120.927
 21
102.147
  0
LINE
  8
0
 10
120.927
 20
102.147
 11
120.562
 21
102.053
  0
LINE
  8
0
 10
120.562
 20
102.053
 11
120.188
 21
102.006
  0
LINE
  8
0
 10
120.188
 20
102.006
 11
119.812
 21
102.006
  0
LINE
  8
0
 10
-120.188
 20
102.006
 11
-120.562
 21
102.053
  0
LINE
  8
0
 10
-120.562
 20
102.053
 11
-120.927
 21
102.147
  0
LINE
  8
0
 10
-120.927
 20
102.147
 11
-121.277
 21
102.286
  0
LINE
  8
0
 10
-121.277
 20
102.286
 11
-121.607
 21
102.467
  0
LINE
  8
0
 10
-121.607
 20
102.467
 11
-121.912
 21
102.688
  0
LINE
  8
0
 10
-121.912
 20
102.688
 11
-122.187
 21
102.946
  0
LINE
  8
0
 10
-122.187
 20
102.946
 11
-122.427
 21
103.237
  0
LINE
  8
0
 10
-122.427
 20
103.237
 11
-122.629
 21
103.555
  0
LINE
  8
0
 10
-122.629
 20
103.555
 11
-122.789
 21
103.896
  0
LINE
  8
0
 10
-122.789
 20
103.896
 11
-122.906
 21
104.254
  0
LINE
  8
0
 10
-122.906
 20
104.254
 11
-122.976
 21
104.624
  0
LINE
  8
0
 10
-122.976
 20
104.624
 11
-123
 21
105
  0
LINE
  8
0
 10
-123
 20
105
 11
-122.976
 21
105.376
  0
LINE
  8
0
 10
-122.976
 20
105.376
 11
-122.906
 21
105.746
  0
LINE
  8
0
 10
-122.906
 20
105.746
 11
-122.789
 21
106.104
  0
LINE
  8
0
 10
-122.789
 20
106.104
 11
-122.629
 21
106.445
  0
LINE
  8
0
 10
-122.629
 20
106.445
 11
-122.427
 21
106.763
  0
LINE
  8
0
 10
-122.427
 20
106.763
 11
-122.187
 21
107.054
  0
LINE
  8
0
 10
-122.187
 20
107.054
 11
-121.912
 21
107.312
  0
LINE
  8
0
 10
-121.912
 20
107.312
 11
-121.607
 21
107.533
  0
LINE
  8
0
 10
-121.607
 20
107.533
 11
-121.277
 21
107.714
  0
LINE
  8
0
 10
-121.277
 20
107.714
 11
-120.927
 21
107.853
  0
LINE
  8
0
 10
-120.927
 20
107.853
 11
-120.562
 21
107.947
  0
LINE
  8
0
 10
-120.562
 20
107.947
 11
-120.188
 21
107.994
  0
LINE
  8
0
 10
-120.188
 20
107.994
 11
-119.812
 21
107.994
  0
LINE
  8
0
 10
-119.812
 20
107.994
 11
-119.438
 21
107.947
  0
LINE
  8
0
 10
-119.438
 20
107.947
 11
-119.073
 21
107.853
  0
LINE
  8
0
 10
-119.073
 20
107.853
 11
-118.723
 21
107.714
  0
LINE
  8
0
 10
-118.723
 20
107.714
 11
-118.393
 21
107.533
  0
LINE
  8
0
 10
-118.393
 20
107.533
 11
-118.088
 21
107.312
  0
LINE
  8
0
 10
-118.088
 20
107.312
 11
-117.813
 21
107.054
  0
LINE
  8
0
 10
-117.813
 20
107.054
 11
-117.573
 21
106.763
  0
LINE
  8
0
 10
-117.573
 20
106.763
 11
-117.371
 21
106.445
  0
LINE
  8
0
 10
-117.371
 20
106.445
 11
-117.211
 21
106.104
  0
LINE
  8
0
 10
-117.211
 20
106.104
 11
-117.094
 21
105.746
  0
LINE
  8
0
 10
-117.094
 20
105.746
 11
-117.024
 21
105.376
  0
LINE
  8
0
 10
-117.024
 20
105.376
 11
-117
 21
105
  0
LINE
  8
0
 10
-117
 20
105
 11
-117.024
 21
104.624
  0
LINE
  8
0
 10
-117.024
 20
104.624
 11
-117.094
 21
104.254
  0
LINE
  8
0
 10
-117.094
 20
104.254
 11
-117.211
 21
103.896
  0
LINE
  8
0
 10
-117.211
 20
103.896
 11
-117.371
 21
103.555
  0
LINE
  8
0
 10
-117.371
 20
103.555
 11
-117.573
 21
103.237
  0
LINE
  8
0
 10
-117.573
 20
103.237
 11
-117.813
 21
102.946
  0
LINE
  8
0
 10
-117.813
 20
102.946
 11
-118.088
 21
102.688
  0
LINE
  8
0
 10
-118.088
 20
102.688
 11
-118.393
 21
102.467
  0
LINE
  8
0
 10
-118.393
 20
102.467
 11
-118.723
 21
102.286
  0
LINE
  8
0
 10
-118.723
 20
102.286
 11
-119.073
 21
102.147
  0
LINE
  8
0
 10
-119.073
 20
102.147
 11
-119.438
 21
102.053
  0
LINE
  8
0
 10
-119.438
 20
102.053
 11
-119.812
 21
102.006
  0
LINE
  8
0
 10
-119.812
 20
102.006
 11
-120.188
 21
102.006
  0
LINE
  8
0
 10
119.812
 20
-107.994
 11
119.438
 21
-107.947
  0
LINE
  8
0
 10
119.438
 20
-107.947
 11
119.073
 21
-107.853
  0
LINE
  8
0
 10
119.073
 20
-107.853
 11
118.723
 21
-107.714
  0
LINE
  8
0
 10
118.723
 20
-107.714
 11
118.393
 21
-107.533
  0
LINE
  8
0
 10
118.393
 20
-107.533
 11
118.088
 21
-107.312
  0
LINE
  8
0
 10
118.088
 20
-107.312
 11
117.813
 21
-107.054
  0
LINE
  8
0
 10
117.813
 20
-107.054
 11
117.573
 21
-106.763
  0
LINE
  8
0
 10
117.573
 20
-106.763
 11
117.371
 21
-106.445
  0
LINE
  8
0
 10
117.371
 20
-106.445
 11
117.211
 21
-106.104
  0
LINE
  8
0
 10
117.211
 20
-106.104
 11
117.094
 21
-105.746
  0
LINE
  8
0
 10
117.094
 20
-105.746
 11
117.024
 21
-105.376
  0
LINE
  8
0
 10
117.024
 20
-105.376
 11
117
 21
-105
  0
LINE
  8
0
 10
117
 20
-105
 11
117.024
 21
-104.624
  0
LINE
  8
0
 10
117.024
 20
-104.624
 11
117.094
 21
-104.254
  0
LINE
  8
0
 10
117.094
 20
-104.254
 11
117.211
 21
-103.896
  0
LINE
  8
0
 10
117.211
 20
-103.896
 11
117.371
 21
-103.555
  0
LINE
  8
0
 10
117.371
 20
-103.555
 11
117.573
 21
-103.237
  0
LINE
  8
0
 10
117.573
 20
-103.237
 11
117.813
 21
-102.946
  0
LINE
  8
0
 10
117.813
 20
-102.946
 11
118.088
 21
-102.688
  0
LINE
  8
0
 10
118.088
 20
-102.688
 11
118.393
 21
-102.467
  0
LINE
  8
0
 10
118.393
 20
-102.467
 11
118.723
 21
-102.286
  0
LINE
  8
0
 10
118.723
 20
-102.286
 11
119.073
 21
-102.147
  0
LINE
  8
0
 10
119.073
 20
-102.147
 11
119.438
 21
-102.053
  0
LINE
  8
0
 10
119.438
 20
-102.053
 11
119.812
 21
-102.006
  0
LINE
  8
0
 10
119.812
 20
-102.006
 11
120.188
 21
-102.006
  0
LINE
  8
0
 10
120.188
 20
-102.006
 11
120.562
 21
-102.053
  0
LINE
  8
0
 10
120.562
 20
-102.053
 11
120.927
 21
-102.147
  0
LINE
  8
0
 10
120.927
 20
-102.147
 11
121.277
 21
-102.286
  0
LINE
  8
0
 10
121.277
 20
-102.286
 11
121.607
 21
-102.467
  0
LINE
  8
0
 10
121.607
 20
-102.467
 11
121.912
 21
-102.688
  0
LINE
  8
0
 10
121.912
 20
-102.688
 11
122.187
 21
-102.946
  0
LINE
  8
0
 10
122.187
 20
-102.946
 11
122.427
 21
-103.237
  0
LINE
  8
0
 10
122.427
 20
-103.237
 11
122.629
 21
-103.555
  0
LINE
  8
0
 10
122.629
 20
-103.555
 11
122.789
 21
-103.896
  0
LINE
  8
0
 10
122.789
 20
-103.896
 11
122.906
 21
-104.254
  0
LINE
  8
0
 10
122.906
 20
-104.254
 11
122.976
 21
-104.624
  0
LINE
  8
0
 10
122.976
 20
-104.624
 11
123
 21
-105
  0
LINE
  8
0
 10
123
 20
-105
 11
122.976
 21
-105.376
  0
LINE
  8
0
 10
122.976
 20
-105.376
 11
122.906
 21
-105.746
  0
LINE
  8
0
 10
122.906
 20
-105.746
 11
122.789
 21
-106.104
  0
LINE
  8
0
 10
122.789
 20
-106.104
 11
122.629
 21
-106.445
  0
LINE
  8
0
 10
122.629
 20
-106.445
 11
122.427
 21
-106.763
  0
LINE
  8
0
 10
122.427
 20
-106.763
 11
122.187
 21
-107.054
  0
LINE
  8
0
 10
122.187
 20
-107.054
 11
121.912
 21
-107.312
  0
LINE
  8
0
 10
121.912
 20
-107.312
 11
121.607
 21
-107.533
  0
LINE
  8
0
 10
121.607
 20
-107.533
 11
121.277
 21
-107.714
  0
LINE
  8
0
 10
121.277
 20
-107.714
 11
120.927
 21
-107.853
  0
LINE
  8
0
 10
120.927
 20
-107.853
 11
120.562
 21
-107.947
  0
LINE
  8
0
 10
120.562
 20
-107.947
 11
120.188
 21
-107.994
  0
LINE
  8
0
 10
120.188
 20
-107.994
 11
119.812
 21
-107.994
  0
LINE
  8
0
 10
-120.188
 20
-107.994
 11
-120.562
 21
-107.947
  0
LINE
  8
0
 10
-120.562
 20
-107.947
 11
-120.927
 21
-107.853
  0
LINE
  8
0
 10
-120.927
 20
-107.853
 11
-121.277
 21
-107.714
  0
LINE
  8
0
 10
-121.277
 20
-107.714
 11
-121.607
 21
-107.533
  0
LINE
  8
0
 10
-121.607
 20
-107.533
 11
-121.912
 21
-107.312
  0
LINE
  8
0
 10
-121.912
 20
-107.312
 11
-122.187
 21
-107.054
  0
LINE
  8
0
 10
-122.187
 20
-107.054
 11
-122.427
 21
-106.763
  0
LINE
  8
0
 10
-122.427
 20
-106.763
 11
-122.629
 21
-106.445
  0
LINE
  8
0
 10
-122.629
 20
-106.445
 11
-122.789
 21
-106.104
  0
LINE
  8
0
 10
-122.789
 20
-106.104
 11
-122.906
 21
-105.746
  0
LINE
  8
0
 10
-122.906
 20
-105.746
 11
-122.976
 21
-105.376
  0
LINE
  8
0
 10
-122.976
 20
-105.376
 11
-123
 21
-105
  0
LINE
  8
0
 10
-123
 20
-105
 11
-122.976
 21
-104.624
  0
LINE
  8
0
 10
-122.976
 20
-104.624
 11
-122.906
 21
-104.254
  0
LINE
  8
0
 10
-122.906
 20
-104.254
 11
-122.789
 21
-103.896
  0
LINE
  8
0
 10
-122.789
 20
-103.896
 11
-122.629
 21
-103.555
  0
LINE
  8
0
 10
-122.629
 20
-103.555
 11
-122.427
 21
-103.237
  0
LINE
  8
0
 10
-122.427
 20
-103.237
 11
-122.187
 21
-102.946
  0
LINE
  8
0
 10
-122.187
 20
-102.946
 11
-121.912
 21
-102.688
  0
LINE
  8
0
 10
-121.912
 20
-102.688
 11
-121.607
 21
-102.467
  0
LINE
  8
0
 10
-121.607
 20
-102.467
 11
-121.277
 21
-102.286
  0
LINE
  8
0
 10
-121.277
 20
-102.286
 11
-120.927
 21
-102.147
  0
LINE
  8
0
 10
-120.927
 20
-102.147
 11
-120.562
 21
-102.053
  0
LINE
  8
0
 10
-120.562
 20
-102.053
 11
-120.188
 21
-102.006
  0
LINE
  8
0
 10
-120.188
 20
-102.006
 11
-119.812
 21
-102.006
  0
LINE
  8
0
 10
-119.812
 20
-102.006
 11
-119.438
 21
-102.053
  0
LINE
  8
0
 10
-119.438
 20
-102.053
 11
-119.073
 21
-102.147
  0
LINE
  8
0
 10
-119.073
 20
-102.147
 11
-118.723
 21
-102.286
  0
LINE
  8
0
 10
-118.723
 20
-102.286
 11
-118.393
 21
-102.467
  0
LINE
  8
0
 10
-118.393
 20
-102.467
 11
-118.088
 21
-102.688
  0
LINE
  8
0
 10
-118.088
 20
-102.688
 11
-117.813
 21
-102.946
  0
LINE
  8
0
 10
-117.813
 20
-102.946
 11
-117.573
 21
-103.237
  0
LINE
  8
0
 10
-117.573
 20
-103.237
 11
-117.371
 21
-103.555
  0
LINE
  8
0
 10
-117.371
 20
-103.555
 11
-117.211
 21
-103.896
  0
LINE
  8
0
 10
-117.211
 20
-103.896
 11
-117.094
 21
-104.254
  0
LINE
  8
0
 10
-117.094
 20
-104.254
 11
-117.024
 21
-104.624
  0
LINE
  8
0
 10
-117.024
 20
-104.624
 11
-117
 21
-105
  0
LINE
  8
0
 10
-117
 20
-105
 11
-117.024
 21
-105.376
  0
LINE
  8
0
 10
-117.024
 20
-105.376
 11
-117.094
 21
-105.746
  0
LINE
  8
0
 10
-117.094
 20
-105.746
 11
-117.211
 21
-106.104
  0
LINE
  8
0
 10
-117.211
 20
-106.104
 11
-117.371
 21
-106.445
  0
LINE
  8
0
 10
-117.371
 20
-106.445
 11
-117.573
 21
-106.763
  0
LINE
  8
0
 10
-117.573
 20
-106.763
 11
-117.813
 21
-107.054
  0
LINE
  8
0
 10
-117.813
 20
-107.054
 11
-118.088
 21
-107.312
  0
LINE
  8
0
 10
-118.088
 20
-107.312
 11
-118.393
 21
-107.533
  0
LINE
  8
0
 10
-118.393
 20
-107.533
 11
-118.723
 21
-107.714
  0
LINE
  8
0
 10
-118.723
 20
-107.714
 11
-119.073
 21
-107.853
  0
LINE
  8
0
 10
-119.073
 20
-107.853
 11
-119.438
 21
-107.947
  0
LINE
  8
0
 10
-119.438
 20
-107.947
 11
-119.812
 21
-107.994
  0
LINE
  8
0
 10
-119.812
 20
-107.994
 11
-120.188
 21
-107.994
  0
ENDSEC
  0
SECTION
  2
OBJECTS
  0
DICTIONARY
  0
ENDSEC
  0
EOF
