  0
SECTION
  2
BLOCKS
  0
ENDSEC
  0
SECTION
  2
ENTITIES
  0
LINE
  8
0
 10
107.937
 20
-36.9114
 11
108.545
 21
-36.7553
  0
LINE
  8
0
 10
108.545
 20
-36.7553
 11
109.129
 21
-36.5241
  0
LINE
  8
0
 10
109.129
 20
-36.5241
 11
109.679
 21
-36.2216
  0
LINE
  8
0
 10
109.679
 20
-36.2216
 11
110.187
 21
-35.8526
  0
LINE
  8
0
 10
110.187
 20
-35.8526
 11
110.645
 21
-35.4227
  0
LINE
  8
0
 10
110.645
 20
-35.4227
 11
111.045
 21
-34.9389
  0
LINE
  8
0
 10
111.045
 20
-34.9389
 11
111.382
 21
-34.4088
  0
LINE
  8
0
 10
111.382
 20
-34.4088
 11
111.649
 21
-33.8406
  0
LINE
  8
0
 10
111.649
 20
-33.8406
 11
111.843
 21
-33.2434
  0
LINE
  8
0
 10
111.843
 20
-33.2434
 11
111.961
 21
-32.6267
  0
LINE
  8
0
 10
111.961
 20
-32.6267
 11
112
 21
-32
  0
LINE
  8
0
 10
112
 20
-32
 11
112
 21
32
  0
LINE
  8
0
 10
112
 20
32
 11
111.961
 21
32.6267
  0
LINE
  8
0
 10
111.961
 20
32.6267
 11
111.843
 21
33.2434
  0
LINE
  8
0
 10
111.843
 20
33.2434
 11
111.649
 21
33.8406
  0
LINE
  8
0
 10
111.649
 20
33.8406
 11
111.382
 21
34.4088
  0
LINE
  8
0
 10
111.382
 20
34.4088
 11
111.045
 21
34.9389
  0
LINE
  8
0
 10
111.045
 20
34.9389
 11
110.645
 21
35.4227
  0
LINE
  8
0
 10
110.645
 20
35.4227
 11
110.187
 21
35.8526
  0
LINE
  8
0
 10
110.187
 20
35.8526
 11
109.679
 21
36.2216
  0
LINE
  8
0
 10
109.679
 20
36.2216
 11
109.129
 21
36.5241
  0
LINE
  8
0
 10
109.129
 20
36.5241
 11
108.545
 21
36.7553
  0
LINE
  8
0
 10
108.545
 20
36.7553
 11
107.937
 21
36.9114
  0
LINE
  8
0
 10
107.937
 20
36.9114
 11
107.314
 21
36.9901
  0
LINE
  8
0
 10
107.314
 20
36.9901
 11
-107.314
 21
36.9901
  0
LINE
  8
0
 10
-107.314
 20
36.9901
 11
-107.937
 21
36.9114
  0
LINE
  8
0
 10
-107.937
 20
36.9114
 11
-108.545
 21
36.7553
  0
LINE
  8
0
 10
-108.545
 20
36.7553
 11
-109.129
 21
36.5241
  0
LINE
  8
0
 10
-109.129
 20
36.5241
 11
-109.679
 21
36.2216
  0
LINE
  8
0
 10
-109.679
 20
36.2216
 11
-110.187
 21
35.8526
  0
LINE
  8
0
 10
-110.187
 20
35.8526
 11
-110.645
 21
35.4227
  0
LINE
  8
0
 10
-110.645
 20
35.4227
 11
-111.045
 21
34.9389
  0
LINE
  8
0
 10
-111.045
 20
34.9389
 11
-111.382
 21
34.4088
  0
LINE
  8
0
 10
-111.382
 20
34.4088
 11
-111.649
 21
33.8406
  0
LINE
  8
0
 10
-111.649
 20
33.8406
 11
-111.843
 21
33.2434
  0
LINE
  8
0
 10
-111.843
 20
33.2434
 11
-111.961
 21
32.6267
  0
LINE
  8
0
 10
-111.961
 20
32.6267
 11
-112
 21
32
  0
LINE
  8
0
 10
-112
 20
32
 11
-112
 21
-32
  0
LINE
  8
0
 10
-112
 20
-32
 11
-111.961
 21
-32.6267
  0
LINE
  8
0
 10
-111.961
 20
-32.6267
 11
-111.843
 21
-33.2434
  0
LINE
  8
0
 10
-111.843
 20
-33.2434
 11
-111.649
 21
-33.8406
  0
LINE
  8
0
 10
-111.649
 20
-33.8406
 11
-111.382
 21
-34.4088
  0
LINE
  8
0
 10
-111.382
 20
-34.4088
 11
-111.045
 21
-34.9389
  0
LINE
  8
0
 10
-111.045
 20
-34.9389
 11
-110.645
 21
-35.4227
  0
LINE
  8
0
 10
-110.645
 20
-35.4227
 11
-110.187
 21
-35.8526
  0
LINE
  8
0
 10
-110.187
 20
-35.8526
 11
-109.679
 21
-36.2216
  0
LINE
  8
0
 10
-109.679
 20
-36.2216
 11
-109.129
 21
-36.5241
  0
LINE
  8
0
 10
-109.129
 20
-36.5241
 11
-108.545
 21
-36.7553
  0
LINE
  8
0
 10
-108.545
 20
-36.7553
 11
-107.937
 21
-36.9114
  0
LINE
  8
0
 10
-107.937
 20
-36.9114
 11
-107.314
 21
-36.9901
  0
LINE
  8
0
 10
-107.314
 20
-36.9901
 11
107.314
 21
-36.9901
  0
LINE
  8
0
 10
107.314
 20
-36.9901
 11
107.937
 21
-36.9114
  0
LINE
  8
0
 10
104.812
 20
27.0059
 11
104.438
 21
27.0531
  0
LINE
  8
0
 10
104.438
 20
27.0531
 11
104.073
 21
27.1468
  0
LINE
  8
0
 10
104.073
 20
27.1468
 11
103.723
 21
27.2855
  0
LINE
  8
0
 10
103.723
 20
27.2855
 11
103.393
 21
27.467
  0
LINE
  8
0
 10
103.393
 20
27.467
 11
103.088
 21
27.6884
  0
LINE
  8
0
 10
103.088
 20
27.6884
 11
102.813
 21
27.9464
  0
LINE
  8
0
 10
102.813
 20
27.9464
 11
102.573
 21
28.2366
  0
LINE
  8
0
 10
102.573
 20
28.2366
 11
102.371
 21
28.5547
  0
LINE
  8
0
 10
102.371
 20
28.5547
 11
102.211
 21
28.8956
  0
LINE
  8
0
 10
102.211
 20
28.8956
 11
102.094
 21
29.2539
  0
LINE
  8
0
 10
102.094
 20
29.2539
 11
102.024
 21
29.624
  0
LINE
  8
0
 10
102.024
 20
29.624
 11
102
 21
30
  0
LINE
  8
0
 10
102
 20
30
 11
102.024
 21
30.376
  0
LINE
  8
0
 10
102.024
 20
30.376
 11
102.094
 21
30.7461
  0
LINE
  8
0
 10
102.094
 20
30.7461
 11
102.211
 21
31.1044
  0
LINE
  8
0
 10
102.211
 20
31.1044
 11
102.371
 21
31.4453
  0
LINE
  8
0
 10
102.371
 20
31.4453
 11
102.573
 21
31.7634
  0
LINE
  8
0
 10
102.573
 20
31.7634
 11
102.813
 21
32.0536
  0
LINE
  8
0
 10
102.813
 20
32.0536
 11
103.088
 21
32.3115
  0
LINE
  8
0
 10
103.088
 20
32.3115
 11
103.393
 21
32.533
  0
LINE
  8
0
 10
103.393
 20
32.533
 11
103.723
 21
32.7145
  0
LINE
  8
0
 10
103.723
 20
32.7145
 11
104.073
 21
32.8532
  0
LINE
  8
0
 10
104.073
 20
32.8532
 11
104.438
 21
32.9469
  0
LINE
  8
0
 10
104.438
 20
32.9469
 11
104.812
 21
32.9941
  0
LINE
  8
0
 10
104.812
 20
32.9941
 11
105.188
 21
32.9941
  0
LINE
  8
0
 10
105.188
 20
32.9941
 11
105.562
 21
32.9469
  0
LINE
  8
0
 10
105.562
 20
32.9469
 11
105.927
 21
32.8532
  0
LINE
  8
0
 10
105.927
 20
32.8532
 11
106.277
 21
32.7145
  0
LINE
  8
0
 10
106.277
 20
32.7145
 11
106.607
 21
32.533
  0
LINE
  8
0
 10
106.607
 20
32.533
 11
106.912
 21
32.3115
  0
LINE
  8
0
 10
106.912
 20
32.3115
 11
107.187
 21
32.0536
  0
LINE
  8
0
 10
107.187
 20
32.0536
 11
107.427
 21
31.7634
  0
LINE
  8
0
 10
107.427
 20
31.7634
 11
107.629
 21
31.4453
  0
LINE
  8
0
 10
107.629
 20
31.4453
 11
107.789
 21
31.1044
  0
LINE
  8
0
 10
107.789
 20
31.1044
 11
107.906
 21
30.7461
  0
LINE
  8
0
 10
107.906
 20
30.7461
 11
107.976
 21
30.376
  0
LINE
  8
0
 10
107.976
 20
30.376
 11
108
 21
30
  0
LINE
  8
0
 10
108
 20
30
 11
107.976
 21
29.624
  0
LINE
  8
0
 10
107.976
 20
29.624
 11
107.906
 21
29.2539
  0
LINE
  8
0
 10
107.906
 20
29.2539
 11
107.789
 21
28.8956
  0
LINE
  8
0
 10
107.789
 20
28.8956
 11
107.629
 21
28.5547
  0
LINE
  8
0
 10
107.629
 20
28.5547
 11
107.427
 21
28.2366
  0
LINE
  8
0
 10
107.427
 20
28.2366
 11
107.187
 21
27.9464
  0
LINE
  8
0
 10
107.187
 20
27.9464
 11
106.912
 21
27.6884
  0
LINE
  8
0
 10
106.912
 20
27.6884
 11
106.607
 21
27.467
  0
LINE
  8
0
 10
106.607
 20
27.467
 11
106.277
 21
27.2855
  0
LINE
  8
0
 10
106.277
 20
27.2855
 11
105.927
 21
27.1468
  0
LINE
  8
0
 10
105.927
 20
27.1468
 11
105.562
 21
27.0531
  0
LINE
  8
0
 10
105.562
 20
27.0531
 11
105.188
 21
27.0059
  0
LINE
  8
0
 10
105.188
 20
27.0059
 11
104.812
 21
27.0059
  0
LINE
  8
0
 10
-105.188
 20
27.0059
 11
-105.562
 21
27.0531
  0
LINE
  8
0
 10
-105.562
 20
27.0531
 11
-105.927
 21
27.1468
  0
LINE
  8
0
 10
-105.927
 20
27.1468
 11
-106.277
 21
27.2855
  0
LINE
  8
0
 10
-106.277
 20
27.2855
 11
-106.607
 21
27.467
  0
LINE
  8
0
 10
-106.607
 20
27.467
 11
-106.912
 21
27.6884
  0
LINE
  8
0
 10
-106.912
 20
27.6884
 11
-107.187
 21
27.9464
  0
LINE
  8
0
 10
-107.187
 20
27.9464
 11
-107.427
 21
28.2366
  0
LINE
  8
0
 10
-107.427
 20
28.2366
 11
-107.629
 21
28.5547
  0
LINE
  8
0
 10
-107.629
 20
28.5547
 11
-107.789
 21
28.8956
  0
LINE
  8
0
 10
-107.789
 20
28.8956
 11
-107.906
 21
29.2539
  0
LINE
  8
0
 10
-107.906
 20
29.2539
 11
-107.976
 21
29.624
  0
LINE
  8
0
 10
-107.976
 20
29.624
 11
-108
 21
30
  0
LINE
  8
0
 10
-108
 20
30
 11
-107.976
 21
30.376
  0
LINE
  8
0
 10
-107.976
 20
30.376
 11
-107.906
 21
30.7461
  0
LINE
  8
0
 10
-107.906
 20
30.7461
 11
-107.789
 21
31.1044
  0
LINE
  8
0
 10
-107.789
 20
31.1044
 11
-107.629
 21
31.4453
  0
LINE
  8
0
 10
-107.629
 20
31.4453
 11
-107.427
 21
31.7634
  0
LINE
  8
0
 10
-107.427
 20
31.7634
 11
-107.187
 21
32.0536
  0
LINE
  8
0
 10
-107.187
 20
32.0536
 11
-106.912
 21
32.3115
  0
LINE
  8
0
 10
-106.912
 20
32.3115
 11
-106.607
 21
32.533
  0
LINE
  8
0
 10
-106.607
 20
32.533
 11
-106.277
 21
32.7145
  0
LINE
  8
0
 10
-106.277
 20
32.7145
 11
-105.927
 21
32.8532
  0
LINE
  8
0
 10
-105.927
 20
32.8532
 11
-105.562
 21
32.9469
  0
LINE
  8
0
 10
-105.562
 20
32.9469
 11
-105.188
 21
32.9941
  0
LINE
  8
0
 10
-105.188
 20
32.9941
 11
-104.812
 21
32.9941
  0
LINE
  8
0
 10
-104.812
 20
32.9941
 11
-104.438
 21
32.9469
  0
LINE
  8
0
 10
-104.438
 20
32.9469
 11
-104.073
 21
32.8532
  0
LINE
  8
0
 10
-104.073
 20
32.8532
 11
-103.723
 21
32.7145
  0
LINE
  8
0
 10
-103.723
 20
32.7145
 11
-103.393
 21
32.533
  0
LINE
  8
0
 10
-103.393
 20
32.533
 11
-103.088
 21
32.3115
  0
LINE
  8
0
 10
-103.088
 20
32.3115
 11
-102.813
 21
32.0536
  0
LINE
  8
0
 10
-102.813
 20
32.0536
 11
-102.573
 21
31.7634
  0
LINE
  8
0
 10
-102.573
 20
31.7634
 11
-102.371
 21
31.4453
  0
LINE
  8
0
 10
-102.371
 20
31.4453
 11
-102.211
 21
31.1044
  0
LINE
  8
0
 10
-102.211
 20
31.1044
 11
-102.094
 21
30.7461
  0
LINE
  8
0
 10
-102.094
 20
30.7461
 11
-102.024
 21
30.376
  0
LINE
  8
0
 10
-102.024
 20
30.376
 11
-102
 21
30
  0
LINE
  8
0
 10
-102
 20
30
 11
-102.024
 21
29.624
  0
LINE
  8
0
 10
-102.024
 20
29.624
 11
-102.094
 21
29.2539
  0
LINE
  8
0
 10
-102.094
 20
29.2539
 11
-102.211
 21
28.8956
  0
LINE
  8
0
 10
-102.211
 20
28.8956
 11
-102.371
 21
28.5547
  0
LINE
  8
0
 10
-102.371
 20
28.5547
 11
-102.573
 21
28.2366
  0
LINE
  8
0
 10
-102.573
 20
28.2366
 11
-102.813
 21
27.9464
  0
LINE
  8
0
 10
-102.813
 20
27.9464
 11
-103.088
 21
27.6884
  0
LINE
  8
0
 10
-103.088
 20
27.6884
 11
-103.393
 21
27.467
  0
LINE
  8
0
 10
-103.393
 20
27.467
 11
-103.723
 21
27.2855
  0
LINE
  8
0
 10
-103.723
 20
27.2855
 11
-104.073
 21
27.1468
  0
LINE
  8
0
 10
-104.073
 20
27.1468
 11
-104.438
 21
27.0531
  0
LINE
  8
0
 10
-104.438
 20
27.0531
 11
-104.812
 21
27.0059
  0
LINE
  8
0
 10
-104.812
 20
27.0059
 11
-105.188
 21
27.0059
  0
LINE
  8
0
 10
104.812
 20
-32.9941
 11
104.438
 21
-32.9469
  0
LINE
  8
0
 10
104.438
 20
-32.9469
 11
104.073
 21
-32.8532
  0
LINE
  8
0
 10
104.073
 20
-32.8532
 11
103.723
 21
-32.7145
  0
LINE
  8
0
 10
103.723
 20
-32.7145
 11
103.393
 21
-32.533
  0
LINE
  8
0
 10
103.393
 20
-32.533
 11
103.088
 21
-32.3115
  0
LINE
  8
0
 10
103.088
 20
-32.3115
 11
102.813
 21
-32.0536
  0
LINE
  8
0
 10
102.813
 20
-32.0536
 11
102.573
 21
-31.7634
  0
LINE
  8
0
 10
102.573
 20
-31.7634
 11
102.371
 21
-31.4453
  0
LINE
  8
0
 10
102.371
 20
-31.4453
 11
102.211
 21
-31.1044
  0
LINE
  8
0
 10
102.211
 20
-31.1044
 11
102.094
 21
-30.7461
  0
LINE
  8
0
 10
102.094
 20
-30.7461
 11
102.024
 21
-30.376
  0
LINE
  8
0
 10
102.024
 20
-30.376
 11
102
 21
-30
  0
LINE
  8
0
 10
102
 20
-30
 11
102.024
 21
-29.624
  0
LINE
  8
0
 10
102.024
 20
-29.624
 11
102.094
 21
-29.2539
  0
LINE
  8
0
 10
102.094
 20
-29.2539
 11
102.211
 21
-28.8956
  0
LINE
  8
0
 10
102.211
 20
-28.8956
 11
102.371
 21
-28.5547
  0
LINE
  8
0
 10
102.371
 20
-28.5547
 11
102.573
 21
-28.2366
  0
LINE
  8
0
 10
102.573
 20
-28.2366
 11
102.813
 21
-27.9464
  0
LINE
  8
0
 10
102.813
 20
-27.9464
 11
103.088
 21
-27.6884
  0
LINE
  8
0
 10
103.088
 20
-27.6884
 11
103.393
 21
-27.467
  0
LINE
  8
0
 10
103.393
 20
-27.467
 11
103.723
 21
-27.2855
  0
LINE
  8
0
 10
103.723
 20
-27.2855
 11
104.073
 21
-27.1468
  0
LINE
  8
0
 10
104.073
 20
-27.1468
 11
104.438
 21
-27.0531
  0
LINE
  8
0
 10
104.438
 20
-27.0531
 11
104.812
 21
-27.0059
  0
LINE
  8
0
 10
104.812
 20
-27.0059
 11
105.188
 21
-27.0059
  0
LINE
  8
0
 10
105.188
 20
-27.0059
 11
105.562
 21
-27.0531
  0
LINE
  8
0
 10
105.562
 20
-27.0531
 11
105.927
 21
-27.1468
  0
LINE
  8
0
 10
105.927
 20
-27.1468
 11
106.277
 21
-27.2855
  0
LINE
  8
0
 10
106.277
 20
-27.2855
 11
106.607
 21
-27.467
  0
LINE
  8
0
 10
106.607
 20
-27.467
 11
106.912
 21
-27.6884
  0
LINE
  8
0
 10
106.912
 20
-27.6884
 11
107.187
 21
-27.9464
  0
LINE
  8
0
 10
107.187
 20
-27.9464
 11
107.427
 21
-28.2366
  0
LINE
  8
0
 10
107.427
 20
-28.2366
 11
107.629
 21
-28.5547
  0
LINE
  8
0
 10
107.629
 20
-28.5547
 11
107.789
 21
-28.8956
  0
LINE
  8
0
 10
107.789
 20
-28.8956
 11
107.906
 21
-29.2539
  0
LINE
  8
0
 10
107.906
 20
-29.2539
 11
107.976
 21
-29.624
  0
LINE
  8
0
 10
107.976
 20
-29.624
 11
108
 21
-30
  0
LINE
  8
0
 10
108
 20
-30
 11
107.976
 21
-30.376
  0
LINE
  8
0
 10
107.976
 20
-30.376
 11
107.906
 21
-30.7461
  0
LINE
  8
0
 10
107.906
 20
-30.7461
 11
107.789
 21
-31.1044
  0
LINE
  8
0
 10
107.789
 20
-31.1044
 11
107.629
 21
-31.4453
  0
LINE
  8
0
 10
107.629
 20
-31.4453
 11
107.427
 21
-31.7634
  0
LINE
  8
0
 10
107.427
 20
-31.7634
 11
107.187
 21
-32.0536
  0
LINE
  8
0
 10
107.187
 20
-32.0536
 11
106.912
 21
-32.3115
  0
LINE
  8
0
 10
106.912
 20
-32.3115
 11
106.607
 21
-32.533
  0
LINE
  8
0
 10
106.607
 20
-32.533
 11
106.277
 21
-32.7145
  0
LINE
  8
0
 10
106.277
 20
-32.7145
 11
105.927
 21
-32.8532
  0
LINE
  8
0
 10
105.927
 20
-32.8532
 11
105.562
 21
-32.9469
  0
LINE
  8
0
 10
105.562
 20
-32.9469
 11
105.188
 21
-32.9941
  0
LINE
  8
0
 10
105.188
 20
-32.9941
 11
104.812
 21
-32.9941
  0
LINE
  8
0
 10
-105.188
 20
-32.9941
 11
-105.562
 21
-32.9469
  0
LINE
  8
0
 10
-105.562
 20
-32.9469
 11
-105.927
 21
-32.8532
  0
LINE
  8
0
 10
-105.927
 20
-32.8532
 11
-106.277
 21
-32.7145
  0
LINE
  8
0
 10
-106.277
 20
-32.7145
 11
-106.607
 21
-32.533
  0
LINE
  8
0
 10
-106.607
 20
-32.533
 11
-106.912
 21
-32.3115
  0
LINE
  8
0
 10
-106.912
 20
-32.3115
 11
-107.187
 21
-32.0536
  0
LINE
  8
0
 10
-107.187
 20
-32.0536
 11
-107.427
 21
-31.7634
  0
LINE
  8
0
 10
-107.427
 20
-31.7634
 11
-107.629
 21
-31.4453
  0
LINE
  8
0
 10
-107.629
 20
-31.4453
 11
-107.789
 21
-31.1044
  0
LINE
  8
0
 10
-107.789
 20
-31.1044
 11
-107.906
 21
-30.7461
  0
LINE
  8
0
 10
-107.906
 20
-30.7461
 11
-107.976
 21
-30.376
  0
LINE
  8
0
 10
-107.976
 20
-30.376
 11
-108
 21
-30
  0
LINE
  8
0
 10
-108
 20
-30
 11
-107.976
 21
-29.624
  0
LINE
  8
0
 10
-107.976
 20
-29.624
 11
-107.906
 21
-29.2539
  0
LINE
  8
0
 10
-107.906
 20
-29.2539
 11
-107.789
 21
-28.8956
  0
LINE
  8
0
 10
-107.789
 20
-28.8956
 11
-107.629
 21
-28.5547
  0
LINE
  8
0
 10
-107.629
 20
-28.5547
 11
-107.427
 21
-28.2366
  0
LINE
  8
0
 10
-107.427
 20
-28.2366
 11
-107.187
 21
-27.9464
  0
LINE
  8
0
 10
-107.187
 20
-27.9464
 11
-106.912
 21
-27.6884
  0
LINE
  8
0
 10
-106.912
 20
-27.6884
 11
-106.607
 21
-27.467
  0
LINE
  8
0
 10
-106.607
 20
-27.467
 11
-106.277
 21
-27.2855
  0
LINE
  8
0
 10
-106.277
 20
-27.2855
 11
-105.927
 21
-27.1468
  0
LINE
  8
0
 10
-105.927
 20
-27.1468
 11
-105.562
 21
-27.0531
  0
LINE
  8
0
 10
-105.562
 20
-27.0531
 11
-105.188
 21
-27.0059
  0
LINE
  8
0
 10
-105.188
 20
-27.0059
 11
-104.812
 21
-27.0059
  0
LINE
  8
0
 10
-104.812
 20
-27.0059
 11
-104.438
 21
-27.0531
  0
LINE
  8
0
 10
-104.438
 20
-27.0531
 11
-104.073
 21
-27.1468
  0
LINE
  8
0
 10
-104.073
 20
-27.1468
 11
-103.723
 21
-27.2855
  0
LINE
  8
0
 10
-103.723
 20
-27.2855
 11
-103.393
 21
-27.467
  0
LINE
  8
0
 10
-103.393
 20
-27.467
 11
-103.088
 21
-27.6884
  0
LINE
  8
0
 10
-103.088
 20
-27.6884
 11
-102.813
 21
-27.9464
  0
LINE
  8
0
 10
-102.813
 20
-27.9464
 11
-102.573
 21
-28.2366
  0
LINE
  8
0
 10
-102.573
 20
-28.2366
 11
-102.371
 21
-28.5547
  0
LINE
  8
0
 10
-102.371
 20
-28.5547
 11
-102.211
 21
-28.8956
  0
LINE
  8
0
 10
-102.211
 20
-28.8956
 11
-102.094
 21
-29.2539
  0
LINE
  8
0
 10
-102.094
 20
-29.2539
 11
-102.024
 21
-29.624
  0
LINE
  8
0
 10
-102.024
 20
-29.624
 11
-102
 21
-30
  0
LINE
  8
0
 10
-102
 20
-30
 11
-102.024
 21
-30.376
  0
LINE
  8
0
 10
-102.024
 20
-30.376
 11
-102.094
 21
-30.7461
  0
LINE
  8
0
 10
-102.094
 20
-30.7461
 11
-102.211
 21
-31.1044
  0
LINE
  8
0
 10
-102.211
 20
-31.1044
 11
-102.371
 21
-31.4453
  0
LINE
  8
0
 10
-102.371
 20
-31.4453
 11
-102.573
 21
-31.7634
  0
LINE
  8
0
 10
-102.573
 20
-31.7634
 11
-102.813
 21
-32.0536
  0
LINE
  8
0
 10
-102.813
 20
-32.0536
 11
-103.088
 21
-32.3115
  0
LINE
  8
0
 10
-103.088
 20
-32.3115
 11
-103.393
 21
-32.533
  0
LINE
  8
0
 10
-103.393
 20
-32.533
 11
-103.723
 21
-32.7145
  0
LINE
  8
0
 10
-103.723
 20
-32.7145
 11
-104.073
 21
-32.8532
  0
LINE
  8
0
 10
-104.073
 20
-32.8532
 11
-104.438
 21
-32.9469
  0
LINE
  8
0
 10
-104.438
 20
-32.9469
 11
-104.812
 21
-32.9941
  0
LINE
  8
0
 10
-104.812
 20
-32.9941
 11
-105.188
 21
-32.9941
  0
ENDSEC
  0
SECTION
  2
OBJECTS
  0
DICTIONARY
  0
ENDSEC
  0
EOF
