solid OpenSCAD_Model
  facet normal -0.844175 -0.536068 0
    outer loop
      vertex -139.871 1.44526 0
      vertex -140.073 1.76336 15
      vertex -140.073 1.76336 0
    endloop
  endfacet
  facet normal -0.844175 -0.536068 0
    outer loop
      vertex -140.073 1.76336 15
      vertex -139.871 1.44526 0
      vertex -139.871 1.44526 15
    endloop
  endfacet
  facet normal -0.368389 -0.929672 0
    outer loop
      vertex -141.573 2.85317 0
      vertex -141.223 2.71448 15
      vertex -141.573 2.85317 15
    endloop
  endfacet
  facet normal -0.368389 -0.929672 -0
    outer loop
      vertex -141.223 2.71448 15
      vertex -141.573 2.85317 0
      vertex -141.223 2.71448 0
    endloop
  endfacet
  facet normal 0.368389 -0.929672 0
    outer loop
      vertex -143.777 2.71448 0
      vertex -143.427 2.85317 15
      vertex -143.777 2.71448 15
    endloop
  endfacet
  facet normal 0.368389 -0.929672 0
    outer loop
      vertex -143.427 2.85317 15
      vertex -143.777 2.71448 0
      vertex -143.427 2.85317 0
    endloop
  endfacet
  facet normal 0.905247 -0.424886 0
    outer loop
      vertex -145.289 1.10437 15
      vertex -145.129 1.44526 0
      vertex -145.129 1.44526 15
    endloop
  endfacet
  facet normal 0.905247 -0.424886 0
    outer loop
      vertex -145.129 1.44526 0
      vertex -145.289 1.10437 15
      vertex -145.289 1.10437 0
    endloop
  endfacet
  facet normal -0.982577 0.185858 0
    outer loop
      vertex -139.594 -0.746069 0
      vertex -139.524 -0.375999 15
      vertex -139.524 -0.375999 0
    endloop
  endfacet
  facet normal -0.982577 0.185858 0
    outer loop
      vertex -139.524 -0.375999 15
      vertex -139.594 -0.746069 0
      vertex -139.594 -0.746069 15
    endloop
  endfacet
  facet normal -0.982577 -0.185858 0
    outer loop
      vertex -139.524 0.375999 0
      vertex -139.594 0.746069 15
      vertex -139.594 0.746069 0
    endloop
  endfacet
  facet normal -0.982577 -0.185858 0
    outer loop
      vertex -139.594 0.746069 15
      vertex -139.524 0.375999 0
      vertex -139.524 0.375999 15
    endloop
  endfacet
  facet normal -0.684065 -0.729421 0
    outer loop
      vertex -140.588 2.31154 0
      vertex -140.313 2.05364 15
      vertex -140.588 2.31154 15
    endloop
  endfacet
  facet normal -0.684065 -0.729421 -0
    outer loop
      vertex -140.313 2.05364 15
      vertex -140.588 2.31154 0
      vertex -140.313 2.05364 0
    endloop
  endfacet
  facet normal 0 -1 0
    outer loop
      vertex -142.688 2.99408 0
      vertex -142.312 2.99408 15
      vertex -142.688 2.99408 15
    endloop
  endfacet
  facet normal 0 -1 -0
    outer loop
      vertex -142.312 2.99408 15
      vertex -142.688 2.99408 0
      vertex -142.312 2.99408 0
    endloop
  endfacet
  facet normal -0.587515 -0.809213 0
    outer loop
      vertex -140.893 2.53298 0
      vertex -140.588 2.31154 15
      vertex -140.893 2.53298 15
    endloop
  endfacet
  facet normal -0.587515 -0.809213 -0
    outer loop
      vertex -140.588 2.31154 15
      vertex -140.893 2.53298 0
      vertex -140.588 2.31154 0
    endloop
  endfacet
  facet normal 0.982577 -0.185858 0
    outer loop
      vertex -145.476 0.375999 15
      vertex -145.406 0.746069 0
      vertex -145.406 0.746069 15
    endloop
  endfacet
  facet normal 0.982577 -0.185858 0
    outer loop
      vertex -145.406 0.746069 0
      vertex -145.476 0.375999 15
      vertex -145.476 0.375999 0
    endloop
  endfacet
  facet normal 0.770696 -0.637202 0
    outer loop
      vertex -144.927 1.76336 15
      vertex -144.687 2.05364 0
      vertex -144.687 2.05364 15
    endloop
  endfacet
  facet normal 0.770696 -0.637202 0
    outer loop
      vertex -144.687 2.05364 0
      vertex -144.927 1.76336 15
      vertex -144.927 1.76336 0
    endloop
  endfacet
  facet normal 0.248625 -0.9686 0
    outer loop
      vertex -143.427 2.85317 0
      vertex -143.062 2.94686 15
      vertex -143.427 2.85317 15
    endloop
  endfacet
  facet normal 0.248625 -0.9686 0
    outer loop
      vertex -143.062 2.94686 15
      vertex -143.427 2.85317 0
      vertex -143.062 2.94686 0
    endloop
  endfacet
  facet normal 0.684065 -0.729421 0
    outer loop
      vertex -144.687 2.05364 0
      vertex -144.412 2.31154 15
      vertex -144.687 2.05364 15
    endloop
  endfacet
  facet normal 0.684065 -0.729421 0
    outer loop
      vertex -144.412 2.31154 15
      vertex -144.687 2.05364 0
      vertex -144.412 2.31154 0
    endloop
  endfacet
  facet normal -0.997969 -0.0637003 0
    outer loop
      vertex -139.5 0 0
      vertex -139.524 0.375999 15
      vertex -139.524 0.375999 0
    endloop
  endfacet
  facet normal -0.997969 -0.0637003 0
    outer loop
      vertex -139.524 0.375999 15
      vertex -139.5 0 0
      vertex -139.5 0 15
    endloop
  endfacet
  facet normal -0.481919 0.876216 0
    outer loop
      vertex -140.893 -2.53298 0
      vertex -141.223 -2.71448 15
      vertex -140.893 -2.53298 15
    endloop
  endfacet
  facet normal -0.481919 0.876216 0
    outer loop
      vertex -141.223 -2.71448 15
      vertex -140.893 -2.53298 0
      vertex -141.223 -2.71448 0
    endloop
  endfacet
  facet normal -0.770696 -0.637202 0
    outer loop
      vertex -140.073 1.76336 0
      vertex -140.313 2.05364 15
      vertex -140.313 2.05364 0
    endloop
  endfacet
  facet normal -0.770696 -0.637202 0
    outer loop
      vertex -140.313 2.05364 15
      vertex -140.073 1.76336 0
      vertex -140.073 1.76336 15
    endloop
  endfacet
  facet normal -0.248625 -0.9686 0
    outer loop
      vertex -141.938 2.94686 0
      vertex -141.573 2.85317 15
      vertex -141.938 2.94686 15
    endloop
  endfacet
  facet normal -0.248625 -0.9686 -0
    outer loop
      vertex -141.573 2.85317 15
      vertex -141.938 2.94686 0
      vertex -141.573 2.85317 0
    endloop
  endfacet
  facet normal -0.125262 -0.992124 0
    outer loop
      vertex -142.312 2.99408 0
      vertex -141.938 2.94686 15
      vertex -142.312 2.99408 15
    endloop
  endfacet
  facet normal -0.125262 -0.992124 -0
    outer loop
      vertex -141.938 2.94686 15
      vertex -142.312 2.99408 0
      vertex -141.938 2.94686 0
    endloop
  endfacet
  facet normal -0.481919 -0.876216 0
    outer loop
      vertex -141.223 2.71448 0
      vertex -140.893 2.53298 15
      vertex -141.223 2.71448 15
    endloop
  endfacet
  facet normal -0.481919 -0.876216 -0
    outer loop
      vertex -140.893 2.53298 15
      vertex -141.223 2.71448 0
      vertex -140.893 2.53298 0
    endloop
  endfacet
  facet normal 0.997969 -0.0637003 0
    outer loop
      vertex -145.5 0 15
      vertex -145.476 0.375999 0
      vertex -145.476 0.375999 15
    endloop
  endfacet
  facet normal 0.997969 -0.0637003 0
    outer loop
      vertex -145.476 0.375999 0
      vertex -145.5 0 15
      vertex -145.5 0 0
    endloop
  endfacet
  facet normal 0 0 1
    outer loop
      vertex 144.814 6.99013 15
      vertex 149.5 2 15
      vertex 149.461 2.62667 15
    endloop
  endfacet
  facet normal 0 0 1
    outer loop
      vertex 149.5 2 15
      vertex 144.814 6.99013 15
      vertex 149.5 -2 15
    endloop
  endfacet
  facet normal 0 0 1
    outer loop
      vertex 144.814 6.99013 15
      vertex 149.461 2.62667 15
      vertex 149.343 3.24345 15
    endloop
  endfacet
  facet normal 0 0 1
    outer loop
      vertex 144.814 -6.99013 15
      vertex 149.5 -2 15
      vertex 144.814 6.99013 15
    endloop
  endfacet
  facet normal 0 0 1
    outer loop
      vertex 144.814 6.99013 15
      vertex 149.343 3.24345 15
      vertex 149.149 3.84062 15
    endloop
  endfacet
  facet normal 0 0 1
    outer loop
      vertex 149.5 -2 15
      vertex 144.814 -6.99013 15
      vertex 149.461 -2.62667 15
    endloop
  endfacet
  facet normal 0 0 1
    outer loop
      vertex 144.814 6.99013 15
      vertex 149.149 3.84062 15
      vertex 148.882 4.40877 15
    endloop
  endfacet
  facet normal 0 0 1
    outer loop
      vertex 149.461 -2.62667 15
      vertex 144.814 -6.99013 15
      vertex 149.343 -3.24345 15
    endloop
  endfacet
  facet normal 0 0 1
    outer loop
      vertex 144.814 6.99013 15
      vertex 148.882 4.40877 15
      vertex 148.545 4.93893 15
    endloop
  endfacet
  facet normal 0 0 1
    outer loop
      vertex 149.343 -3.24345 15
      vertex 144.814 -6.99013 15
      vertex 149.149 -3.84062 15
    endloop
  endfacet
  facet normal 0 0 1
    outer loop
      vertex 144.814 6.99013 15
      vertex 148.545 4.93893 15
      vertex 148.145 5.42274 15
    endloop
  endfacet
  facet normal 0 0 1
    outer loop
      vertex 149.149 -3.84062 15
      vertex 144.814 -6.99013 15
      vertex 148.882 -4.40877 15
    endloop
  endfacet
  facet normal 0 0 1
    outer loop
      vertex 144.814 6.99013 15
      vertex 148.145 5.42274 15
      vertex 147.687 5.85257 15
    endloop
  endfacet
  facet normal 0 0 1
    outer loop
      vertex 148.882 -4.40877 15
      vertex 144.814 -6.99013 15
      vertex 148.545 -4.93893 15
    endloop
  endfacet
  facet normal 0 0 1
    outer loop
      vertex 144.814 6.99013 15
      vertex 147.687 5.85257 15
      vertex 147.179 6.22164 15
    endloop
  endfacet
  facet normal 0 0 1
    outer loop
      vertex 148.545 -4.93893 15
      vertex 144.814 -6.99013 15
      vertex 148.145 -5.42274 15
    endloop
  endfacet
  facet normal 0 0 1
    outer loop
      vertex 144.814 6.99013 15
      vertex 147.179 6.22164 15
      vertex 146.629 6.52413 15
    endloop
  endfacet
  facet normal 0 0 1
    outer loop
      vertex 148.145 -5.42274 15
      vertex 144.814 -6.99013 15
      vertex 147.687 -5.85257 15
    endloop
  endfacet
  facet normal 0 0 1
    outer loop
      vertex 144.814 6.99013 15
      vertex 146.629 6.52413 15
      vertex 146.045 6.75528 15
    endloop
  endfacet
  facet normal 0 0 1
    outer loop
      vertex 147.687 -5.85257 15
      vertex 144.814 -6.99013 15
      vertex 147.179 -6.22164 15
    endloop
  endfacet
  facet normal 0 0 1
    outer loop
      vertex 144.814 6.99013 15
      vertex 146.045 6.75528 15
      vertex 145.437 6.91144 15
    endloop
  endfacet
  facet normal 0 0 1
    outer loop
      vertex 147.179 -6.22164 15
      vertex 144.814 -6.99013 15
      vertex 146.629 -6.52413 15
    endloop
  endfacet
  facet normal 0 0 1
    outer loop
      vertex 146.629 -6.52413 15
      vertex 144.814 -6.99013 15
      vertex 146.045 -6.75528 15
    endloop
  endfacet
  facet normal 0 0 1
    outer loop
      vertex 146.045 -6.75528 15
      vertex 144.814 -6.99013 15
      vertex 145.437 -6.91144 15
    endloop
  endfacet
  facet normal 0 0 1
    outer loop
      vertex 144.814 6.99013 15
      vertex -139.5 0 15
      vertex 144.814 -6.99013 15
    endloop
  endfacet
  facet normal 0 0 1
    outer loop
      vertex 144.814 6.99013 15
      vertex -139.524 0.375999 15
      vertex -139.5 0 15
    endloop
  endfacet
  facet normal 0 0 1
    outer loop
      vertex 144.814 6.99013 15
      vertex -139.594 0.746069 15
      vertex -139.524 0.375999 15
    endloop
  endfacet
  facet normal 0 0 1
    outer loop
      vertex 144.814 6.99013 15
      vertex -139.711 1.10437 15
      vertex -139.594 0.746069 15
    endloop
  endfacet
  facet normal 0 0 1
    outer loop
      vertex 144.814 6.99013 15
      vertex -139.871 1.44526 15
      vertex -139.711 1.10437 15
    endloop
  endfacet
  facet normal 0 0 1
    outer loop
      vertex 144.814 6.99013 15
      vertex -140.073 1.76336 15
      vertex -139.871 1.44526 15
    endloop
  endfacet
  facet normal 0 0 1
    outer loop
      vertex 144.814 6.99013 15
      vertex -140.313 2.05364 15
      vertex -140.073 1.76336 15
    endloop
  endfacet
  facet normal -0 0 1
    outer loop
      vertex -144.814 6.99013 15
      vertex -140.313 2.05364 15
      vertex 144.814 6.99013 15
    endloop
  endfacet
  facet normal 0 0 1
    outer loop
      vertex -140.313 2.05364 15
      vertex -144.814 6.99013 15
      vertex -140.588 2.31154 15
    endloop
  endfacet
  facet normal 0 0 1
    outer loop
      vertex -140.588 2.31154 15
      vertex -144.814 6.99013 15
      vertex -140.893 2.53298 15
    endloop
  endfacet
  facet normal 0 0 1
    outer loop
      vertex -140.893 2.53298 15
      vertex -144.814 6.99013 15
      vertex -141.223 2.71448 15
    endloop
  endfacet
  facet normal 0 0 1
    outer loop
      vertex -141.223 2.71448 15
      vertex -144.814 6.99013 15
      vertex -141.573 2.85317 15
    endloop
  endfacet
  facet normal 0 0 1
    outer loop
      vertex -141.573 2.85317 15
      vertex -144.814 6.99013 15
      vertex -141.938 2.94686 15
    endloop
  endfacet
  facet normal 0 0 1
    outer loop
      vertex -141.938 2.94686 15
      vertex -144.814 6.99013 15
      vertex -142.312 2.99408 15
    endloop
  endfacet
  facet normal 0 0 1
    outer loop
      vertex -142.312 2.99408 15
      vertex -144.814 6.99013 15
      vertex -142.688 2.99408 15
    endloop
  endfacet
  facet normal 0 0 1
    outer loop
      vertex -144.814 6.99013 15
      vertex -143.062 2.94686 15
      vertex -142.688 2.99408 15
    endloop
  endfacet
  facet normal 0 0 1
    outer loop
      vertex -144.814 6.99013 15
      vertex -143.427 2.85317 15
      vertex -143.062 2.94686 15
    endloop
  endfacet
  facet normal 0 0 1
    outer loop
      vertex -144.814 6.99013 15
      vertex -143.777 2.71448 15
      vertex -143.427 2.85317 15
    endloop
  endfacet
  facet normal -0 0 1
    outer loop
      vertex -145.437 6.91144 15
      vertex -143.777 2.71448 15
      vertex -144.814 6.99013 15
    endloop
  endfacet
  facet normal 0 0 1
    outer loop
      vertex -143.777 2.71448 15
      vertex -145.437 6.91144 15
      vertex -144.107 2.53298 15
    endloop
  endfacet
  facet normal -0 0 1
    outer loop
      vertex -146.045 6.75528 15
      vertex -144.107 2.53298 15
      vertex -145.437 6.91144 15
    endloop
  endfacet
  facet normal -0 0 1
    outer loop
      vertex -146.629 6.52413 15
      vertex -144.107 2.53298 15
      vertex -146.045 6.75528 15
    endloop
  endfacet
  facet normal 0 0 1
    outer loop
      vertex -144.107 2.53298 15
      vertex -146.629 6.52413 15
      vertex -144.412 2.31154 15
    endloop
  endfacet
  facet normal -0 0 1
    outer loop
      vertex -147.179 6.22164 15
      vertex -144.412 2.31154 15
      vertex -146.629 6.52413 15
    endloop
  endfacet
  facet normal -0 0 1
    outer loop
      vertex -147.687 5.85257 15
      vertex -144.412 2.31154 15
      vertex -147.179 6.22164 15
    endloop
  endfacet
  facet normal 0 0 1
    outer loop
      vertex -144.412 2.31154 15
      vertex -147.687 5.85257 15
      vertex -144.687 2.05364 15
    endloop
  endfacet
  facet normal -0 0 1
    outer loop
      vertex -148.145 5.42274 15
      vertex -144.687 2.05364 15
      vertex -147.687 5.85257 15
    endloop
  endfacet
  facet normal -0 0 1
    outer loop
      vertex -148.545 4.93893 15
      vertex -144.687 2.05364 15
      vertex -148.145 5.42274 15
    endloop
  endfacet
  facet normal 0 0 1
    outer loop
      vertex -144.687 2.05364 15
      vertex -148.545 4.93893 15
      vertex -144.927 1.76336 15
    endloop
  endfacet
  facet normal -0 0 1
    outer loop
      vertex -139.524 -0.375999 15
      vertex 144.814 -6.99013 15
      vertex -139.5 0 15
    endloop
  endfacet
  facet normal -0 0 1
    outer loop
      vertex -139.594 -0.746069 15
      vertex 144.814 -6.99013 15
      vertex -139.524 -0.375999 15
    endloop
  endfacet
  facet normal -0 0 1
    outer loop
      vertex -139.711 -1.10437 15
      vertex 144.814 -6.99013 15
      vertex -139.594 -0.746069 15
    endloop
  endfacet
  facet normal -0 0 1
    outer loop
      vertex -139.871 -1.44526 15
      vertex 144.814 -6.99013 15
      vertex -139.711 -1.10437 15
    endloop
  endfacet
  facet normal -0 0 1
    outer loop
      vertex -140.073 -1.76336 15
      vertex 144.814 -6.99013 15
      vertex -139.871 -1.44526 15
    endloop
  endfacet
  facet normal -0 0 1
    outer loop
      vertex -140.313 -2.05364 15
      vertex 144.814 -6.99013 15
      vertex -140.073 -1.76336 15
    endloop
  endfacet
  facet normal 0 0 1
    outer loop
      vertex -144.814 -6.99013 15
      vertex -140.313 -2.05364 15
      vertex -140.588 -2.31154 15
    endloop
  endfacet
  facet normal 0 0 1
    outer loop
      vertex -144.814 -6.99013 15
      vertex -140.588 -2.31154 15
      vertex -140.893 -2.53298 15
    endloop
  endfacet
  facet normal 0 0 1
    outer loop
      vertex -144.814 -6.99013 15
      vertex -140.893 -2.53298 15
      vertex -141.223 -2.71448 15
    endloop
  endfacet
  facet normal 0 0 1
    outer loop
      vertex -144.814 -6.99013 15
      vertex -141.223 -2.71448 15
      vertex -141.573 -2.85317 15
    endloop
  endfacet
  facet normal 0 0 1
    outer loop
      vertex -144.814 -6.99013 15
      vertex -141.573 -2.85317 15
      vertex -141.938 -2.94686 15
    endloop
  endfacet
  facet normal 0 0 1
    outer loop
      vertex -144.814 -6.99013 15
      vertex -141.938 -2.94686 15
      vertex -142.312 -2.99408 15
    endloop
  endfacet
  facet normal 0 0 1
    outer loop
      vertex -144.814 -6.99013 15
      vertex -142.312 -2.99408 15
      vertex -142.688 -2.99408 15
    endloop
  endfacet
  facet normal 0 0 1
    outer loop
      vertex -140.313 -2.05364 15
      vertex -144.814 -6.99013 15
      vertex 144.814 -6.99013 15
    endloop
  endfacet
  facet normal 0 0 1
    outer loop
      vertex -143.062 -2.94686 15
      vertex -144.814 -6.99013 15
      vertex -142.688 -2.99408 15
    endloop
  endfacet
  facet normal 0 0 1
    outer loop
      vertex -143.427 -2.85317 15
      vertex -144.814 -6.99013 15
      vertex -143.062 -2.94686 15
    endloop
  endfacet
  facet normal 0 0 1
    outer loop
      vertex -143.777 -2.71448 15
      vertex -144.814 -6.99013 15
      vertex -143.427 -2.85317 15
    endloop
  endfacet
  facet normal 0 0 1
    outer loop
      vertex -145.437 -6.91144 15
      vertex -143.777 -2.71448 15
      vertex -144.107 -2.53298 15
    endloop
  endfacet
  facet normal 0 0 1
    outer loop
      vertex -146.629 -6.52413 15
      vertex -144.107 -2.53298 15
      vertex -144.412 -2.31154 15
    endloop
  endfacet
  facet normal 0 0 1
    outer loop
      vertex -147.687 -5.85257 15
      vertex -144.412 -2.31154 15
      vertex -144.687 -2.05364 15
    endloop
  endfacet
  facet normal 0 0 1
    outer loop
      vertex -148.545 -4.93893 15
      vertex -144.687 -2.05364 15
      vertex -144.927 -1.76336 15
    endloop
  endfacet
  facet normal 0 0 1
    outer loop
      vertex -149.149 -3.84062 15
      vertex -144.927 -1.76336 15
      vertex -145.129 -1.44526 15
    endloop
  endfacet
  facet normal 0 0 1
    outer loop
      vertex -149.461 -2.62667 15
      vertex -145.129 -1.44526 15
      vertex -145.289 -1.10437 15
    endloop
  endfacet
  facet normal 0 0 1
    outer loop
      vertex -149.5 -2 15
      vertex -145.289 -1.10437 15
      vertex -145.406 -0.746069 15
    endloop
  endfacet
  facet normal 0 0 1
    outer loop
      vertex -143.777 -2.71448 15
      vertex -145.437 -6.91144 15
      vertex -144.814 -6.99013 15
    endloop
  endfacet
  facet normal 0 0 1
    outer loop
      vertex -149.5 -2 15
      vertex -145.406 -0.746069 15
      vertex -145.476 -0.375999 15
    endloop
  endfacet
  facet normal 0 0 1
    outer loop
      vertex -149.5 -2 15
      vertex -145.476 -0.375999 15
      vertex -145.5 0 15
    endloop
  endfacet
  facet normal -0 0 1
    outer loop
      vertex -148.882 4.40877 15
      vertex -144.927 1.76336 15
      vertex -148.545 4.93893 15
    endloop
  endfacet
  facet normal 0 0 1
    outer loop
      vertex -149.5 -2 15
      vertex -145.5 0 15
      vertex -149.5 2 15
    endloop
  endfacet
  facet normal -0 0 1
    outer loop
      vertex -149.149 3.84062 15
      vertex -144.927 1.76336 15
      vertex -148.882 4.40877 15
    endloop
  endfacet
  facet normal 0 0 1
    outer loop
      vertex -145.289 -1.10437 15
      vertex -149.5 -2 15
      vertex -149.461 -2.62667 15
    endloop
  endfacet
  facet normal 0 0 1
    outer loop
      vertex -144.927 1.76336 15
      vertex -149.149 3.84062 15
      vertex -145.129 1.44526 15
    endloop
  endfacet
  facet normal 0 0 1
    outer loop
      vertex -144.107 -2.53298 15
      vertex -146.045 -6.75528 15
      vertex -145.437 -6.91144 15
    endloop
  endfacet
  facet normal -0 0 1
    outer loop
      vertex -149.343 3.24345 15
      vertex -145.129 1.44526 15
      vertex -149.149 3.84062 15
    endloop
  endfacet
  facet normal 0 0 1
    outer loop
      vertex -144.107 -2.53298 15
      vertex -146.629 -6.52413 15
      vertex -146.045 -6.75528 15
    endloop
  endfacet
  facet normal -0 0 1
    outer loop
      vertex -149.461 2.62667 15
      vertex -145.129 1.44526 15
      vertex -149.343 3.24345 15
    endloop
  endfacet
  facet normal 0 0 1
    outer loop
      vertex -144.412 -2.31154 15
      vertex -147.179 -6.22164 15
      vertex -146.629 -6.52413 15
    endloop
  endfacet
  facet normal 0 0 1
    outer loop
      vertex -145.129 1.44526 15
      vertex -149.461 2.62667 15
      vertex -145.289 1.10437 15
    endloop
  endfacet
  facet normal 0 0 1
    outer loop
      vertex -144.412 -2.31154 15
      vertex -147.687 -5.85257 15
      vertex -147.179 -6.22164 15
    endloop
  endfacet
  facet normal -0 0 1
    outer loop
      vertex -149.5 2 15
      vertex -145.289 1.10437 15
      vertex -149.461 2.62667 15
    endloop
  endfacet
  facet normal 0 0 1
    outer loop
      vertex -144.687 -2.05364 15
      vertex -148.145 -5.42274 15
      vertex -147.687 -5.85257 15
    endloop
  endfacet
  facet normal 0 0 1
    outer loop
      vertex -145.289 1.10437 15
      vertex -149.5 2 15
      vertex -145.406 0.746069 15
    endloop
  endfacet
  facet normal 0 0 1
    outer loop
      vertex -144.687 -2.05364 15
      vertex -148.545 -4.93893 15
      vertex -148.145 -5.42274 15
    endloop
  endfacet
  facet normal 0 0 1
    outer loop
      vertex -145.406 0.746069 15
      vertex -149.5 2 15
      vertex -145.476 0.375999 15
    endloop
  endfacet
  facet normal 0 0 1
    outer loop
      vertex -144.927 -1.76336 15
      vertex -148.882 -4.40877 15
      vertex -148.545 -4.93893 15
    endloop
  endfacet
  facet normal 0 0 1
    outer loop
      vertex -145.476 0.375999 15
      vertex -149.5 2 15
      vertex -145.5 0 15
    endloop
  endfacet
  facet normal 0 0 1
    outer loop
      vertex -144.927 -1.76336 15
      vertex -149.149 -3.84062 15
      vertex -148.882 -4.40877 15
    endloop
  endfacet
  facet normal 0 0 1
    outer loop
      vertex -145.129 -1.44526 15
      vertex -149.343 -3.24345 15
      vertex -149.149 -3.84062 15
    endloop
  endfacet
  facet normal 0 0 1
    outer loop
      vertex -145.129 -1.44526 15
      vertex -149.461 -2.62667 15
      vertex -149.343 -3.24345 15
    endloop
  endfacet
  facet normal 0.950603 -0.310411 0
    outer loop
      vertex -145.406 0.746069 15
      vertex -145.289 1.10437 0
      vertex -145.289 1.10437 15
    endloop
  endfacet
  facet normal 0.950603 -0.310411 0
    outer loop
      vertex -145.289 1.10437 0
      vertex -145.406 0.746069 15
      vertex -145.406 0.746069 0
    endloop
  endfacet
  facet normal 0.844175 -0.536068 0
    outer loop
      vertex -145.129 1.44526 15
      vertex -144.927 1.76336 0
      vertex -144.927 1.76336 15
    endloop
  endfacet
  facet normal 0.844175 -0.536068 0
    outer loop
      vertex -144.927 1.76336 0
      vertex -145.129 1.44526 15
      vertex -145.129 1.44526 0
    endloop
  endfacet
  facet normal 0.125262 -0.992124 0
    outer loop
      vertex -143.062 2.94686 0
      vertex -142.688 2.99408 15
      vertex -143.062 2.94686 15
    endloop
  endfacet
  facet normal 0.125262 -0.992124 0
    outer loop
      vertex -142.688 2.99408 15
      vertex -143.062 2.94686 0
      vertex -142.688 2.99408 0
    endloop
  endfacet
  facet normal 0.587515 -0.809213 0
    outer loop
      vertex -144.412 2.31154 0
      vertex -144.107 2.53298 15
      vertex -144.412 2.31154 15
    endloop
  endfacet
  facet normal 0.587515 -0.809213 0
    outer loop
      vertex -144.107 2.53298 15
      vertex -144.412 2.31154 0
      vertex -144.107 2.53298 0
    endloop
  endfacet
  facet normal 0.481919 -0.876216 0
    outer loop
      vertex -144.107 2.53298 0
      vertex -143.777 2.71448 15
      vertex -144.107 2.53298 15
    endloop
  endfacet
  facet normal 0.481919 -0.876216 0
    outer loop
      vertex -143.777 2.71448 15
      vertex -144.107 2.53298 0
      vertex -143.777 2.71448 0
    endloop
  endfacet
  facet normal 0 1 -0
    outer loop
      vertex -142.312 -2.99408 0
      vertex -142.688 -2.99408 15
      vertex -142.312 -2.99408 15
    endloop
  endfacet
  facet normal 0 1 0
    outer loop
      vertex -142.688 -2.99408 15
      vertex -142.312 -2.99408 0
      vertex -142.688 -2.99408 0
    endloop
  endfacet
  facet normal 0 0 -1
    outer loop
      vertex 144.814 -6.99013 0
      vertex 149.5 -2 0
      vertex 149.461 -2.62667 0
    endloop
  endfacet
  facet normal -0 0 -1
    outer loop
      vertex 149.5 -2 0
      vertex 144.814 -6.99013 0
      vertex 149.5 2 0
    endloop
  endfacet
  facet normal 0 0 -1
    outer loop
      vertex 144.814 -6.99013 0
      vertex 149.461 -2.62667 0
      vertex 149.343 -3.24345 0
    endloop
  endfacet
  facet normal 0 0 -1
    outer loop
      vertex 144.814 6.99013 0
      vertex 149.5 2 0
      vertex 144.814 -6.99013 0
    endloop
  endfacet
  facet normal 0 0 -1
    outer loop
      vertex 144.814 -6.99013 0
      vertex 149.343 -3.24345 0
      vertex 149.149 -3.84062 0
    endloop
  endfacet
  facet normal 0 0 -1
    outer loop
      vertex 149.5 2 0
      vertex 144.814 6.99013 0
      vertex 149.461 2.62667 0
    endloop
  endfacet
  facet normal 0 0 -1
    outer loop
      vertex 144.814 -6.99013 0
      vertex 149.149 -3.84062 0
      vertex 148.882 -4.40877 0
    endloop
  endfacet
  facet normal 0 0 -1
    outer loop
      vertex 149.461 2.62667 0
      vertex 144.814 6.99013 0
      vertex 149.343 3.24345 0
    endloop
  endfacet
  facet normal 0 0 -1
    outer loop
      vertex 144.814 -6.99013 0
      vertex 148.882 -4.40877 0
      vertex 148.545 -4.93893 0
    endloop
  endfacet
  facet normal 0 0 -1
    outer loop
      vertex 149.343 3.24345 0
      vertex 144.814 6.99013 0
      vertex 149.149 3.84062 0
    endloop
  endfacet
  facet normal 0 0 -1
    outer loop
      vertex 144.814 -6.99013 0
      vertex 148.545 -4.93893 0
      vertex 148.145 -5.42274 0
    endloop
  endfacet
  facet normal 0 0 -1
    outer loop
      vertex 149.149 3.84062 0
      vertex 144.814 6.99013 0
      vertex 148.882 4.40877 0
    endloop
  endfacet
  facet normal 0 0 -1
    outer loop
      vertex 144.814 -6.99013 0
      vertex 148.145 -5.42274 0
      vertex 147.687 -5.85257 0
    endloop
  endfacet
  facet normal 0 0 -1
    outer loop
      vertex 148.882 4.40877 0
      vertex 144.814 6.99013 0
      vertex 148.545 4.93893 0
    endloop
  endfacet
  facet normal 0 0 -1
    outer loop
      vertex 144.814 -6.99013 0
      vertex 147.687 -5.85257 0
      vertex 147.179 -6.22164 0
    endloop
  endfacet
  facet normal 0 0 -1
    outer loop
      vertex 148.545 4.93893 0
      vertex 144.814 6.99013 0
      vertex 148.145 5.42274 0
    endloop
  endfacet
  facet normal 0 0 -1
    outer loop
      vertex 144.814 -6.99013 0
      vertex 147.179 -6.22164 0
      vertex 146.629 -6.52413 0
    endloop
  endfacet
  facet normal 0 0 -1
    outer loop
      vertex 148.145 5.42274 0
      vertex 144.814 6.99013 0
      vertex 147.687 5.85257 0
    endloop
  endfacet
  facet normal 0 0 -1
    outer loop
      vertex 144.814 -6.99013 0
      vertex 146.629 -6.52413 0
      vertex 146.045 -6.75528 0
    endloop
  endfacet
  facet normal 0 0 -1
    outer loop
      vertex 147.687 5.85257 0
      vertex 144.814 6.99013 0
      vertex 147.179 6.22164 0
    endloop
  endfacet
  facet normal 0 0 -1
    outer loop
      vertex 144.814 -6.99013 0
      vertex 146.045 -6.75528 0
      vertex 145.437 -6.91144 0
    endloop
  endfacet
  facet normal 0 0 -1
    outer loop
      vertex 147.179 6.22164 0
      vertex 144.814 6.99013 0
      vertex 146.629 6.52413 0
    endloop
  endfacet
  facet normal 0 0 -1
    outer loop
      vertex 146.629 6.52413 0
      vertex 144.814 6.99013 0
      vertex 146.045 6.75528 0
    endloop
  endfacet
  facet normal 0 0 -1
    outer loop
      vertex 146.045 6.75528 0
      vertex 144.814 6.99013 0
      vertex 145.437 6.91144 0
    endloop
  endfacet
  facet normal 0 0 -1
    outer loop
      vertex 144.814 -6.99013 0
      vertex -139.5 0 0
      vertex 144.814 6.99013 0
    endloop
  endfacet
  facet normal 0 0 -1
    outer loop
      vertex 144.814 -6.99013 0
      vertex -139.524 -0.375999 0
      vertex -139.5 0 0
    endloop
  endfacet
  facet normal 0 0 -1
    outer loop
      vertex 144.814 -6.99013 0
      vertex -139.594 -0.746069 0
      vertex -139.524 -0.375999 0
    endloop
  endfacet
  facet normal 0 0 -1
    outer loop
      vertex 144.814 -6.99013 0
      vertex -139.711 -1.10437 0
      vertex -139.594 -0.746069 0
    endloop
  endfacet
  facet normal 0 0 -1
    outer loop
      vertex 144.814 -6.99013 0
      vertex -139.871 -1.44526 0
      vertex -139.711 -1.10437 0
    endloop
  endfacet
  facet normal 0 0 -1
    outer loop
      vertex 144.814 -6.99013 0
      vertex -140.073 -1.76336 0
      vertex -139.871 -1.44526 0
    endloop
  endfacet
  facet normal 0 0 -1
    outer loop
      vertex 144.814 -6.99013 0
      vertex -140.313 -2.05364 0
      vertex -140.073 -1.76336 0
    endloop
  endfacet
  facet normal 0 0 -1
    outer loop
      vertex -144.814 -6.99013 0
      vertex -140.313 -2.05364 0
      vertex 144.814 -6.99013 0
    endloop
  endfacet
  facet normal 0 0 -1
    outer loop
      vertex -140.313 -2.05364 0
      vertex -144.814 -6.99013 0
      vertex -140.588 -2.31154 0
    endloop
  endfacet
  facet normal 0 0 -1
    outer loop
      vertex -140.588 -2.31154 0
      vertex -144.814 -6.99013 0
      vertex -140.893 -2.53298 0
    endloop
  endfacet
  facet normal 0 0 -1
    outer loop
      vertex -140.893 -2.53298 0
      vertex -144.814 -6.99013 0
      vertex -141.223 -2.71448 0
    endloop
  endfacet
  facet normal 0 0 -1
    outer loop
      vertex -141.223 -2.71448 0
      vertex -144.814 -6.99013 0
      vertex -141.573 -2.85317 0
    endloop
  endfacet
  facet normal 0 0 -1
    outer loop
      vertex -141.573 -2.85317 0
      vertex -144.814 -6.99013 0
      vertex -141.938 -2.94686 0
    endloop
  endfacet
  facet normal 0 0 -1
    outer loop
      vertex -141.938 -2.94686 0
      vertex -144.814 -6.99013 0
      vertex -142.312 -2.99408 0
    endloop
  endfacet
  facet normal -0 0 -1
    outer loop
      vertex -142.312 -2.99408 0
      vertex -144.814 -6.99013 0
      vertex -142.688 -2.99408 0
    endloop
  endfacet
  facet normal 0 0 -1
    outer loop
      vertex -144.814 -6.99013 0
      vertex -143.062 -2.94686 0
      vertex -142.688 -2.99408 0
    endloop
  endfacet
  facet normal 0 0 -1
    outer loop
      vertex -144.814 -6.99013 0
      vertex -143.427 -2.85317 0
      vertex -143.062 -2.94686 0
    endloop
  endfacet
  facet normal 0 0 -1
    outer loop
      vertex -144.814 -6.99013 0
      vertex -143.777 -2.71448 0
      vertex -143.427 -2.85317 0
    endloop
  endfacet
  facet normal 0 0 -1
    outer loop
      vertex -145.437 -6.91144 0
      vertex -143.777 -2.71448 0
      vertex -144.814 -6.99013 0
    endloop
  endfacet
  facet normal -0 0 -1
    outer loop
      vertex -143.777 -2.71448 0
      vertex -145.437 -6.91144 0
      vertex -144.107 -2.53298 0
    endloop
  endfacet
  facet normal 0 0 -1
    outer loop
      vertex -146.045 -6.75528 0
      vertex -144.107 -2.53298 0
      vertex -145.437 -6.91144 0
    endloop
  endfacet
  facet normal 0 0 -1
    outer loop
      vertex -146.629 -6.52413 0
      vertex -144.107 -2.53298 0
      vertex -146.045 -6.75528 0
    endloop
  endfacet
  facet normal -0 0 -1
    outer loop
      vertex -144.107 -2.53298 0
      vertex -146.629 -6.52413 0
      vertex -144.412 -2.31154 0
    endloop
  endfacet
  facet normal 0 0 -1
    outer loop
      vertex -147.179 -6.22164 0
      vertex -144.412 -2.31154 0
      vertex -146.629 -6.52413 0
    endloop
  endfacet
  facet normal 0 0 -1
    outer loop
      vertex -147.687 -5.85257 0
      vertex -144.412 -2.31154 0
      vertex -147.179 -6.22164 0
    endloop
  endfacet
  facet normal -0 0 -1
    outer loop
      vertex -144.412 -2.31154 0
      vertex -147.687 -5.85257 0
      vertex -144.687 -2.05364 0
    endloop
  endfacet
  facet normal 0 0 -1
    outer loop
      vertex -148.145 -5.42274 0
      vertex -144.687 -2.05364 0
      vertex -147.687 -5.85257 0
    endloop
  endfacet
  facet normal 0 0 -1
    outer loop
      vertex -148.545 -4.93893 0
      vertex -144.687 -2.05364 0
      vertex -148.145 -5.42274 0
    endloop
  endfacet
  facet normal -0 0 -1
    outer loop
      vertex -144.687 -2.05364 0
      vertex -148.545 -4.93893 0
      vertex -144.927 -1.76336 0
    endloop
  endfacet
  facet normal 0 0 -1
    outer loop
      vertex -139.524 0.375999 0
      vertex 144.814 6.99013 0
      vertex -139.5 0 0
    endloop
  endfacet
  facet normal 0 0 -1
    outer loop
      vertex -139.594 0.746069 0
      vertex 144.814 6.99013 0
      vertex -139.524 0.375999 0
    endloop
  endfacet
  facet normal 0 0 -1
    outer loop
      vertex -139.711 1.10437 0
      vertex 144.814 6.99013 0
      vertex -139.594 0.746069 0
    endloop
  endfacet
  facet normal 0 0 -1
    outer loop
      vertex -139.871 1.44526 0
      vertex 144.814 6.99013 0
      vertex -139.711 1.10437 0
    endloop
  endfacet
  facet normal 0 0 -1
    outer loop
      vertex -140.073 1.76336 0
      vertex 144.814 6.99013 0
      vertex -139.871 1.44526 0
    endloop
  endfacet
  facet normal 0 0 -1
    outer loop
      vertex -140.313 2.05364 0
      vertex 144.814 6.99013 0
      vertex -140.073 1.76336 0
    endloop
  endfacet
  facet normal 0 0 -1
    outer loop
      vertex -144.814 6.99013 0
      vertex -140.313 2.05364 0
      vertex -140.588 2.31154 0
    endloop
  endfacet
  facet normal 0 0 -1
    outer loop
      vertex -144.814 6.99013 0
      vertex -140.588 2.31154 0
      vertex -140.893 2.53298 0
    endloop
  endfacet
  facet normal 0 0 -1
    outer loop
      vertex -144.814 6.99013 0
      vertex -140.893 2.53298 0
      vertex -141.223 2.71448 0
    endloop
  endfacet
  facet normal 0 0 -1
    outer loop
      vertex -144.814 6.99013 0
      vertex -141.223 2.71448 0
      vertex -141.573 2.85317 0
    endloop
  endfacet
  facet normal 0 0 -1
    outer loop
      vertex -144.814 6.99013 0
      vertex -141.573 2.85317 0
      vertex -141.938 2.94686 0
    endloop
  endfacet
  facet normal 0 0 -1
    outer loop
      vertex -144.814 6.99013 0
      vertex -141.938 2.94686 0
      vertex -142.312 2.99408 0
    endloop
  endfacet
  facet normal 0 0 -1
    outer loop
      vertex -144.814 6.99013 0
      vertex -142.312 2.99408 0
      vertex -142.688 2.99408 0
    endloop
  endfacet
  facet normal 0 0 -1
    outer loop
      vertex -140.313 2.05364 0
      vertex -144.814 6.99013 0
      vertex 144.814 6.99013 0
    endloop
  endfacet
  facet normal 0 0 -1
    outer loop
      vertex -143.062 2.94686 0
      vertex -144.814 6.99013 0
      vertex -142.688 2.99408 0
    endloop
  endfacet
  facet normal 0 0 -1
    outer loop
      vertex -143.427 2.85317 0
      vertex -144.814 6.99013 0
      vertex -143.062 2.94686 0
    endloop
  endfacet
  facet normal 0 0 -1
    outer loop
      vertex -143.777 2.71448 0
      vertex -144.814 6.99013 0
      vertex -143.427 2.85317 0
    endloop
  endfacet
  facet normal 0 0 -1
    outer loop
      vertex -145.437 6.91144 0
      vertex -143.777 2.71448 0
      vertex -144.107 2.53298 0
    endloop
  endfacet
  facet normal 0 0 -1
    outer loop
      vertex -146.629 6.52413 0
      vertex -144.107 2.53298 0
      vertex -144.412 2.31154 0
    endloop
  endfacet
  facet normal 0 0 -1
    outer loop
      vertex -147.687 5.85257 0
      vertex -144.412 2.31154 0
      vertex -144.687 2.05364 0
    endloop
  endfacet
  facet normal 0 0 -1
    outer loop
      vertex -148.545 4.93893 0
      vertex -144.687 2.05364 0
      vertex -144.927 1.76336 0
    endloop
  endfacet
  facet normal 0 0 -1
    outer loop
      vertex -149.149 3.84062 0
      vertex -144.927 1.76336 0
      vertex -145.129 1.44526 0
    endloop
  endfacet
  facet normal 0 0 -1
    outer loop
      vertex -149.461 2.62667 0
      vertex -145.129 1.44526 0
      vertex -145.289 1.10437 0
    endloop
  endfacet
  facet normal 0 0 -1
    outer loop
      vertex -149.5 2 0
      vertex -145.289 1.10437 0
      vertex -145.406 0.746069 0
    endloop
  endfacet
  facet normal 0 0 -1
    outer loop
      vertex -143.777 2.71448 0
      vertex -145.437 6.91144 0
      vertex -144.814 6.99013 0
    endloop
  endfacet
  facet normal 0 0 -1
    outer loop
      vertex -149.5 2 0
      vertex -145.406 0.746069 0
      vertex -145.476 0.375999 0
    endloop
  endfacet
  facet normal 0 0 -1
    outer loop
      vertex -149.5 2 0
      vertex -145.476 0.375999 0
      vertex -145.5 0 0
    endloop
  endfacet
  facet normal 0 0 -1
    outer loop
      vertex -148.882 -4.40877 0
      vertex -144.927 -1.76336 0
      vertex -148.545 -4.93893 0
    endloop
  endfacet
  facet normal 0 0 -1
    outer loop
      vertex -149.5 2 0
      vertex -145.5 0 0
      vertex -149.5 -2 0
    endloop
  endfacet
  facet normal 0 0 -1
    outer loop
      vertex -149.149 -3.84062 0
      vertex -144.927 -1.76336 0
      vertex -148.882 -4.40877 0
    endloop
  endfacet
  facet normal 0 0 -1
    outer loop
      vertex -145.289 1.10437 0
      vertex -149.5 2 0
      vertex -149.461 2.62667 0
    endloop
  endfacet
  facet normal -0 0 -1
    outer loop
      vertex -144.927 -1.76336 0
      vertex -149.149 -3.84062 0
      vertex -145.129 -1.44526 0
    endloop
  endfacet
  facet normal 0 0 -1
    outer loop
      vertex -144.107 2.53298 0
      vertex -146.045 6.75528 0
      vertex -145.437 6.91144 0
    endloop
  endfacet
  facet normal 0 0 -1
    outer loop
      vertex -149.343 -3.24345 0
      vertex -145.129 -1.44526 0
      vertex -149.149 -3.84062 0
    endloop
  endfacet
  facet normal 0 0 -1
    outer loop
      vertex -144.107 2.53298 0
      vertex -146.629 6.52413 0
      vertex -146.045 6.75528 0
    endloop
  endfacet
  facet normal 0 0 -1
    outer loop
      vertex -149.461 -2.62667 0
      vertex -145.129 -1.44526 0
      vertex -149.343 -3.24345 0
    endloop
  endfacet
  facet normal 0 0 -1
    outer loop
      vertex -144.412 2.31154 0
      vertex -147.179 6.22164 0
      vertex -146.629 6.52413 0
    endloop
  endfacet
  facet normal -0 0 -1
    outer loop
      vertex -145.129 -1.44526 0
      vertex -149.461 -2.62667 0
      vertex -145.289 -1.10437 0
    endloop
  endfacet
  facet normal 0 0 -1
    outer loop
      vertex -144.412 2.31154 0
      vertex -147.687 5.85257 0
      vertex -147.179 6.22164 0
    endloop
  endfacet
  facet normal 0 0 -1
    outer loop
      vertex -149.5 -2 0
      vertex -145.289 -1.10437 0
      vertex -149.461 -2.62667 0
    endloop
  endfacet
  facet normal 0 0 -1
    outer loop
      vertex -144.687 2.05364 0
      vertex -148.145 5.42274 0
      vertex -147.687 5.85257 0
    endloop
  endfacet
  facet normal -0 0 -1
    outer loop
      vertex -145.289 -1.10437 0
      vertex -149.5 -2 0
      vertex -145.406 -0.746069 0
    endloop
  endfacet
  facet normal 0 0 -1
    outer loop
      vertex -144.687 2.05364 0
      vertex -148.545 4.93893 0
      vertex -148.145 5.42274 0
    endloop
  endfacet
  facet normal -0 0 -1
    outer loop
      vertex -145.406 -0.746069 0
      vertex -149.5 -2 0
      vertex -145.476 -0.375999 0
    endloop
  endfacet
  facet normal 0 0 -1
    outer loop
      vertex -144.927 1.76336 0
      vertex -148.882 4.40877 0
      vertex -148.545 4.93893 0
    endloop
  endfacet
  facet normal -0 0 -1
    outer loop
      vertex -145.476 -0.375999 0
      vertex -149.5 -2 0
      vertex -145.5 0 0
    endloop
  endfacet
  facet normal 0 0 -1
    outer loop
      vertex -144.927 1.76336 0
      vertex -149.149 3.84062 0
      vertex -148.882 4.40877 0
    endloop
  endfacet
  facet normal 0 0 -1
    outer loop
      vertex -145.129 1.44526 0
      vertex -149.343 3.24345 0
      vertex -149.149 3.84062 0
    endloop
  endfacet
  facet normal 0 0 -1
    outer loop
      vertex -145.129 1.44526 0
      vertex -149.461 2.62667 0
      vertex -149.343 3.24345 0
    endloop
  endfacet
  facet normal 0.844175 0.536068 0
    outer loop
      vertex -144.927 -1.76336 15
      vertex -145.129 -1.44526 0
      vertex -145.129 -1.44526 15
    endloop
  endfacet
  facet normal 0.844175 0.536068 0
    outer loop
      vertex -145.129 -1.44526 0
      vertex -144.927 -1.76336 15
      vertex -144.927 -1.76336 0
    endloop
  endfacet
  facet normal -0.125262 0.992124 0
    outer loop
      vertex -141.938 -2.94686 0
      vertex -142.312 -2.99408 15
      vertex -141.938 -2.94686 15
    endloop
  endfacet
  facet normal -0.125262 0.992124 0
    outer loop
      vertex -142.312 -2.99408 15
      vertex -141.938 -2.94686 0
      vertex -142.312 -2.99408 0
    endloop
  endfacet
  facet normal -0.368389 0.929672 0
    outer loop
      vertex -141.223 -2.71448 0
      vertex -141.573 -2.85317 15
      vertex -141.223 -2.71448 15
    endloop
  endfacet
  facet normal -0.368389 0.929672 0
    outer loop
      vertex -141.573 -2.85317 15
      vertex -141.223 -2.71448 0
      vertex -141.573 -2.85317 0
    endloop
  endfacet
  facet normal -0.905247 -0.424886 0
    outer loop
      vertex -139.711 1.10437 0
      vertex -139.871 1.44526 15
      vertex -139.871 1.44526 0
    endloop
  endfacet
  facet normal -0.905247 -0.424886 0
    outer loop
      vertex -139.871 1.44526 15
      vertex -139.711 1.10437 0
      vertex -139.711 1.10437 15
    endloop
  endfacet
  facet normal -0.950603 -0.310411 0
    outer loop
      vertex -139.594 0.746069 0
      vertex -139.711 1.10437 15
      vertex -139.711 1.10437 0
    endloop
  endfacet
  facet normal -0.950603 -0.310411 0
    outer loop
      vertex -139.711 1.10437 15
      vertex -139.594 0.746069 0
      vertex -139.594 0.746069 15
    endloop
  endfacet
  facet normal -0.997969 0.0637003 0
    outer loop
      vertex -139.524 -0.375999 0
      vertex -139.5 0 15
      vertex -139.5 0 0
    endloop
  endfacet
  facet normal -0.997969 0.0637003 0
    outer loop
      vertex -139.5 0 15
      vertex -139.524 -0.375999 0
      vertex -139.524 -0.375999 15
    endloop
  endfacet
  facet normal -0.905247 0.424886 0
    outer loop
      vertex -139.871 -1.44526 0
      vertex -139.711 -1.10437 15
      vertex -139.711 -1.10437 0
    endloop
  endfacet
  facet normal -0.905247 0.424886 0
    outer loop
      vertex -139.711 -1.10437 15
      vertex -139.871 -1.44526 0
      vertex -139.871 -1.44526 15
    endloop
  endfacet
  facet normal -0.950603 0.310411 0
    outer loop
      vertex -139.711 -1.10437 0
      vertex -139.594 -0.746069 15
      vertex -139.594 -0.746069 0
    endloop
  endfacet
  facet normal -0.950603 0.310411 0
    outer loop
      vertex -139.594 -0.746069 15
      vertex -139.711 -1.10437 0
      vertex -139.711 -1.10437 15
    endloop
  endfacet
  facet normal -0.684065 0.729421 0
    outer loop
      vertex -140.313 -2.05364 0
      vertex -140.588 -2.31154 15
      vertex -140.313 -2.05364 15
    endloop
  endfacet
  facet normal -0.684065 0.729421 0
    outer loop
      vertex -140.588 -2.31154 15
      vertex -140.313 -2.05364 0
      vertex -140.588 -2.31154 0
    endloop
  endfacet
  facet normal -0.770696 0.637202 0
    outer loop
      vertex -140.313 -2.05364 0
      vertex -140.073 -1.76336 15
      vertex -140.073 -1.76336 0
    endloop
  endfacet
  facet normal -0.770696 0.637202 0
    outer loop
      vertex -140.073 -1.76336 15
      vertex -140.313 -2.05364 0
      vertex -140.313 -2.05364 15
    endloop
  endfacet
  facet normal -0.844175 0.536068 0
    outer loop
      vertex -140.073 -1.76336 0
      vertex -139.871 -1.44526 15
      vertex -139.871 -1.44526 0
    endloop
  endfacet
  facet normal -0.844175 0.536068 0
    outer loop
      vertex -139.871 -1.44526 15
      vertex -140.073 -1.76336 0
      vertex -140.073 -1.76336 15
    endloop
  endfacet
  facet normal 0.905247 0.424886 0
    outer loop
      vertex -145.129 -1.44526 15
      vertex -145.289 -1.10437 0
      vertex -145.289 -1.10437 15
    endloop
  endfacet
  facet normal 0.905247 0.424886 0
    outer loop
      vertex -145.289 -1.10437 0
      vertex -145.129 -1.44526 15
      vertex -145.129 -1.44526 0
    endloop
  endfacet
  facet normal 0.684065 0.729421 -0
    outer loop
      vertex -144.412 -2.31154 0
      vertex -144.687 -2.05364 15
      vertex -144.412 -2.31154 15
    endloop
  endfacet
  facet normal 0.684065 0.729421 0
    outer loop
      vertex -144.687 -2.05364 15
      vertex -144.412 -2.31154 0
      vertex -144.687 -2.05364 0
    endloop
  endfacet
  facet normal -0.248625 0.9686 0
    outer loop
      vertex -141.573 -2.85317 0
      vertex -141.938 -2.94686 15
      vertex -141.573 -2.85317 15
    endloop
  endfacet
  facet normal -0.248625 0.9686 0
    outer loop
      vertex -141.938 -2.94686 15
      vertex -141.573 -2.85317 0
      vertex -141.938 -2.94686 0
    endloop
  endfacet
  facet normal -0.587515 0.809213 0
    outer loop
      vertex -140.588 -2.31154 0
      vertex -140.893 -2.53298 15
      vertex -140.588 -2.31154 15
    endloop
  endfacet
  facet normal -0.587515 0.809213 0
    outer loop
      vertex -140.893 -2.53298 15
      vertex -140.588 -2.31154 0
      vertex -140.893 -2.53298 0
    endloop
  endfacet
  facet normal 0.587515 0.809213 -0
    outer loop
      vertex -144.107 -2.53298 0
      vertex -144.412 -2.31154 15
      vertex -144.107 -2.53298 15
    endloop
  endfacet
  facet normal 0.587515 0.809213 0
    outer loop
      vertex -144.412 -2.31154 15
      vertex -144.107 -2.53298 0
      vertex -144.412 -2.31154 0
    endloop
  endfacet
  facet normal 0.248625 0.9686 -0
    outer loop
      vertex -143.062 -2.94686 0
      vertex -143.427 -2.85317 15
      vertex -143.062 -2.94686 15
    endloop
  endfacet
  facet normal 0.248625 0.9686 0
    outer loop
      vertex -143.427 -2.85317 15
      vertex -143.062 -2.94686 0
      vertex -143.427 -2.85317 0
    endloop
  endfacet
  facet normal 0.125262 0.992124 -0
    outer loop
      vertex -142.688 -2.99408 0
      vertex -143.062 -2.94686 15
      vertex -142.688 -2.99408 15
    endloop
  endfacet
  facet normal 0.125262 0.992124 0
    outer loop
      vertex -143.062 -2.94686 15
      vertex -142.688 -2.99408 0
      vertex -143.062 -2.94686 0
    endloop
  endfacet
  facet normal 0.997969 0.0637003 0
    outer loop
      vertex -145.476 -0.375999 15
      vertex -145.5 0 0
      vertex -145.5 0 15
    endloop
  endfacet
  facet normal 0.997969 0.0637003 0
    outer loop
      vertex -145.5 0 0
      vertex -145.476 -0.375999 15
      vertex -145.476 -0.375999 0
    endloop
  endfacet
  facet normal 0.481919 0.876216 -0
    outer loop
      vertex -143.777 -2.71448 0
      vertex -144.107 -2.53298 15
      vertex -143.777 -2.71448 15
    endloop
  endfacet
  facet normal 0.481919 0.876216 0
    outer loop
      vertex -144.107 -2.53298 15
      vertex -143.777 -2.71448 0
      vertex -144.107 -2.53298 0
    endloop
  endfacet
  facet normal 0.950603 0.310411 0
    outer loop
      vertex -145.289 -1.10437 15
      vertex -145.406 -0.746069 0
      vertex -145.406 -0.746069 15
    endloop
  endfacet
  facet normal 0.950603 0.310411 0
    outer loop
      vertex -145.406 -0.746069 0
      vertex -145.289 -1.10437 15
      vertex -145.289 -1.10437 0
    endloop
  endfacet
  facet normal 0.982577 0.185858 0
    outer loop
      vertex -145.406 -0.746069 15
      vertex -145.476 -0.375999 0
      vertex -145.476 -0.375999 15
    endloop
  endfacet
  facet normal 0.982577 0.185858 0
    outer loop
      vertex -145.476 -0.375999 0
      vertex -145.406 -0.746069 15
      vertex -145.406 -0.746069 0
    endloop
  endfacet
  facet normal 0.770696 0.637202 0
    outer loop
      vertex -144.687 -2.05364 15
      vertex -144.927 -1.76336 0
      vertex -144.927 -1.76336 15
    endloop
  endfacet
  facet normal 0.770696 0.637202 0
    outer loop
      vertex -144.927 -1.76336 0
      vertex -144.687 -2.05364 15
      vertex -144.687 -2.05364 0
    endloop
  endfacet
  facet normal 0.368389 0.929672 -0
    outer loop
      vertex -143.427 -2.85317 0
      vertex -143.777 -2.71448 15
      vertex -143.427 -2.85317 15
    endloop
  endfacet
  facet normal 0.368389 0.929672 0
    outer loop
      vertex -143.777 -2.71448 15
      vertex -143.427 -2.85317 0
      vertex -143.777 -2.71448 0
    endloop
  endfacet
  facet normal -1 0 0
    outer loop
      vertex -149.5 -2 0
      vertex -149.5 2 15
      vertex -149.5 2 0
    endloop
  endfacet
  facet normal -1 -0 0
    outer loop
      vertex -149.5 2 15
      vertex -149.5 -2 0
      vertex -149.5 -2 15
    endloop
  endfacet
  facet normal -0.998069 -0.0621135 0
    outer loop
      vertex -149.461 -2.62667 0
      vertex -149.5 -2 15
      vertex -149.5 -2 0
    endloop
  endfacet
  facet normal -0.998069 -0.0621135 0
    outer loop
      vertex -149.5 -2 15
      vertex -149.461 -2.62667 0
      vertex -149.461 -2.62667 15
    endloop
  endfacet
  facet normal 0 1 -0
    outer loop
      vertex 144.814 6.99013 0
      vertex -144.814 6.99013 15
      vertex 144.814 6.99013 15
    endloop
  endfacet
  facet normal 0 1 0
    outer loop
      vertex -144.814 6.99013 15
      vertex 144.814 6.99013 0
      vertex -144.814 6.99013 0
    endloop
  endfacet
  facet normal 0 -1 0
    outer loop
      vertex -144.814 -6.99013 0
      vertex 144.814 -6.99013 15
      vertex -144.814 -6.99013 15
    endloop
  endfacet
  facet normal 0 -1 -0
    outer loop
      vertex 144.814 -6.99013 15
      vertex -144.814 -6.99013 0
      vertex 144.814 -6.99013 0
    endloop
  endfacet
  facet normal -0.998069 0.0621135 0
    outer loop
      vertex -149.5 2 0
      vertex -149.461 2.62667 15
      vertex -149.461 2.62667 0
    endloop
  endfacet
  facet normal -0.998069 0.0621135 0
    outer loop
      vertex -149.461 2.62667 15
      vertex -149.5 2 0
      vertex -149.5 2 15
    endloop
  endfacet
  facet normal 0.905042 -0.425321 0
    outer loop
      vertex 148.882 -4.40877 15
      vertex 149.149 -3.84062 0
      vertex 149.149 -3.84062 15
    endloop
  endfacet
  facet normal 0.905042 -0.425321 0
    outer loop
      vertex 149.149 -3.84062 0
      vertex 148.882 -4.40877 15
      vertex 148.882 -4.40877 0
    endloop
  endfacet
  facet normal -0.481907 -0.876223 0
    outer loop
      vertex -147.179 -6.22164 0
      vertex -146.629 -6.52413 15
      vertex -147.179 -6.22164 15
    endloop
  endfacet
  facet normal -0.481907 -0.876223 -0
    outer loop
      vertex -146.629 -6.52413 15
      vertex -147.179 -6.22164 0
      vertex -146.629 -6.52413 0
    endloop
  endfacet
  facet normal -0.368026 -0.929816 0
    outer loop
      vertex -146.629 -6.52413 0
      vertex -146.045 -6.75528 15
      vertex -146.629 -6.52413 15
    endloop
  endfacet
  facet normal -0.368026 -0.929816 -0
    outer loop
      vertex -146.045 -6.75528 15
      vertex -146.629 -6.52413 0
      vertex -146.045 -6.75528 0
    endloop
  endfacet
  facet normal -0.684327 -0.729176 0
    outer loop
      vertex -148.145 -5.42274 0
      vertex -147.687 -5.85257 15
      vertex -148.145 -5.42274 15
    endloop
  endfacet
  facet normal -0.684327 -0.729176 -0
    outer loop
      vertex -147.687 -5.85257 15
      vertex -148.145 -5.42274 0
      vertex -147.687 -5.85257 0
    endloop
  endfacet
  facet normal 1 -0 0
    outer loop
      vertex 149.5 -2 15
      vertex 149.5 2 0
      vertex 149.5 2 15
    endloop
  endfacet
  facet normal 1 0 0
    outer loop
      vertex 149.5 2 0
      vertex 149.5 -2 15
      vertex 149.5 -2 0
    endloop
  endfacet
  facet normal 0.951072 -0.30897 0
    outer loop
      vertex 149.149 -3.84062 15
      vertex 149.343 -3.24345 0
      vertex 149.343 -3.24345 15
    endloop
  endfacet
  facet normal 0.951072 -0.30897 0
    outer loop
      vertex 149.343 -3.24345 0
      vertex 149.149 -3.84062 15
      vertex 149.149 -3.84062 0
    endloop
  endfacet
  facet normal 0.905042 0.425321 0
    outer loop
      vertex 149.149 3.84062 15
      vertex 148.882 4.40877 0
      vertex 148.882 4.40877 15
    endloop
  endfacet
  facet normal 0.905042 0.425321 0
    outer loop
      vertex 148.882 4.40877 0
      vertex 149.149 3.84062 15
      vertex 149.149 3.84062 0
    endloop
  endfacet
  facet normal 0.951072 0.30897 0
    outer loop
      vertex 149.343 3.24345 15
      vertex 149.149 3.84062 0
      vertex 149.149 3.84062 15
    endloop
  endfacet
  facet normal 0.951072 0.30897 0
    outer loop
      vertex 149.149 3.84062 0
      vertex 149.343 3.24345 15
      vertex 149.343 3.24345 0
    endloop
  endfacet
  facet normal 0.684327 0.729176 -0
    outer loop
      vertex 148.145 5.42274 0
      vertex 147.687 5.85257 15
      vertex 148.145 5.42274 15
    endloop
  endfacet
  facet normal 0.684327 0.729176 0
    outer loop
      vertex 147.687 5.85257 15
      vertex 148.145 5.42274 0
      vertex 147.687 5.85257 0
    endloop
  endfacet
  facet normal 0.368026 0.929816 -0
    outer loop
      vertex 146.629 6.52413 0
      vertex 146.045 6.75528 15
      vertex 146.629 6.52413 15
    endloop
  endfacet
  facet normal 0.368026 0.929816 0
    outer loop
      vertex 146.045 6.75528 15
      vertex 146.629 6.52413 0
      vertex 146.045 6.75528 0
    endloop
  endfacet
  facet normal 0.248768 0.968563 -0
    outer loop
      vertex 146.045 6.75528 0
      vertex 145.437 6.91144 15
      vertex 146.045 6.75528 15
    endloop
  endfacet
  facet normal 0.248768 0.968563 0
    outer loop
      vertex 145.437 6.91144 15
      vertex 146.045 6.75528 0
      vertex 145.437 6.91144 0
    endloop
  endfacet
  facet normal 0.125313 0.992117 -0
    outer loop
      vertex 145.437 6.91144 0
      vertex 144.814 6.99013 15
      vertex 145.437 6.91144 15
    endloop
  endfacet
  facet normal 0.125313 0.992117 0
    outer loop
      vertex 144.814 6.99013 15
      vertex 145.437 6.91144 0
      vertex 144.814 6.99013 0
    endloop
  endfacet
  facet normal -0.481907 0.876223 0
    outer loop
      vertex -146.629 6.52413 0
      vertex -147.179 6.22164 15
      vertex -146.629 6.52413 15
    endloop
  endfacet
  facet normal -0.481907 0.876223 0
    outer loop
      vertex -147.179 6.22164 15
      vertex -146.629 6.52413 0
      vertex -147.179 6.22164 0
    endloop
  endfacet
  facet normal -0.248768 0.968563 0
    outer loop
      vertex -145.437 6.91144 0
      vertex -146.045 6.75528 15
      vertex -145.437 6.91144 15
    endloop
  endfacet
  facet normal -0.248768 0.968563 0
    outer loop
      vertex -146.045 6.75528 15
      vertex -145.437 6.91144 0
      vertex -146.045 6.75528 0
    endloop
  endfacet
  facet normal -0.770703 0.637195 0
    outer loop
      vertex -148.545 4.93893 0
      vertex -148.145 5.42274 15
      vertex -148.145 5.42274 0
    endloop
  endfacet
  facet normal -0.770703 0.637195 0
    outer loop
      vertex -148.145 5.42274 15
      vertex -148.545 4.93893 0
      vertex -148.545 4.93893 15
    endloop
  endfacet
  facet normal -0.951072 -0.30897 0
    outer loop
      vertex -149.149 -3.84062 0
      vertex -149.343 -3.24345 15
      vertex -149.343 -3.24345 0
    endloop
  endfacet
  facet normal -0.951072 -0.30897 0
    outer loop
      vertex -149.343 -3.24345 15
      vertex -149.149 -3.84062 0
      vertex -149.149 -3.84062 15
    endloop
  endfacet
  facet normal -0.770703 -0.637195 0
    outer loop
      vertex -148.145 -5.42274 0
      vertex -148.545 -4.93893 15
      vertex -148.545 -4.93893 0
    endloop
  endfacet
  facet normal -0.770703 -0.637195 0
    outer loop
      vertex -148.545 -4.93893 15
      vertex -148.145 -5.42274 0
      vertex -148.145 -5.42274 15
    endloop
  endfacet
  facet normal -0.905042 -0.425321 0
    outer loop
      vertex -148.882 -4.40877 0
      vertex -149.149 -3.84062 15
      vertex -149.149 -3.84062 0
    endloop
  endfacet
  facet normal -0.905042 -0.425321 0
    outer loop
      vertex -149.149 -3.84062 15
      vertex -148.882 -4.40877 0
      vertex -148.882 -4.40877 15
    endloop
  endfacet
  facet normal -0.248768 -0.968563 0
    outer loop
      vertex -146.045 -6.75528 0
      vertex -145.437 -6.91144 15
      vertex -146.045 -6.75528 15
    endloop
  endfacet
  facet normal -0.248768 -0.968563 -0
    outer loop
      vertex -145.437 -6.91144 15
      vertex -146.045 -6.75528 0
      vertex -145.437 -6.91144 0
    endloop
  endfacet
  facet normal -0.587771 -0.809027 0
    outer loop
      vertex -147.687 -5.85257 0
      vertex -147.179 -6.22164 15
      vertex -147.687 -5.85257 15
    endloop
  endfacet
  facet normal -0.587771 -0.809027 -0
    outer loop
      vertex -147.179 -6.22164 15
      vertex -147.687 -5.85257 0
      vertex -147.179 -6.22164 0
    endloop
  endfacet
  facet normal 0.998069 -0.0621135 0
    outer loop
      vertex 149.461 -2.62667 15
      vertex 149.5 -2 0
      vertex 149.5 -2 15
    endloop
  endfacet
  facet normal 0.998069 -0.0621135 0
    outer loop
      vertex 149.5 -2 0
      vertex 149.461 -2.62667 15
      vertex 149.461 -2.62667 0
    endloop
  endfacet
  facet normal 0.587771 -0.809027 0
    outer loop
      vertex 147.179 -6.22164 0
      vertex 147.687 -5.85257 15
      vertex 147.179 -6.22164 15
    endloop
  endfacet
  facet normal 0.587771 -0.809027 0
    outer loop
      vertex 147.687 -5.85257 15
      vertex 147.179 -6.22164 0
      vertex 147.687 -5.85257 0
    endloop
  endfacet
  facet normal 0.770703 -0.637195 0
    outer loop
      vertex 148.145 -5.42274 15
      vertex 148.545 -4.93893 0
      vertex 148.545 -4.93893 15
    endloop
  endfacet
  facet normal 0.770703 -0.637195 0
    outer loop
      vertex 148.545 -4.93893 0
      vertex 148.145 -5.42274 15
      vertex 148.145 -5.42274 0
    endloop
  endfacet
  facet normal 0.368026 -0.929816 0
    outer loop
      vertex 146.045 -6.75528 0
      vertex 146.629 -6.52413 15
      vertex 146.045 -6.75528 15
    endloop
  endfacet
  facet normal 0.368026 -0.929816 0
    outer loop
      vertex 146.629 -6.52413 15
      vertex 146.045 -6.75528 0
      vertex 146.629 -6.52413 0
    endloop
  endfacet
  facet normal 0.125313 -0.992117 0
    outer loop
      vertex 144.814 -6.99013 0
      vertex 145.437 -6.91144 15
      vertex 144.814 -6.99013 15
    endloop
  endfacet
  facet normal 0.125313 -0.992117 0
    outer loop
      vertex 145.437 -6.91144 15
      vertex 144.814 -6.99013 0
      vertex 145.437 -6.91144 0
    endloop
  endfacet
  facet normal 0.770703 0.637195 0
    outer loop
      vertex 148.545 4.93893 15
      vertex 148.145 5.42274 0
      vertex 148.145 5.42274 15
    endloop
  endfacet
  facet normal 0.770703 0.637195 0
    outer loop
      vertex 148.145 5.42274 0
      vertex 148.545 4.93893 15
      vertex 148.545 4.93893 0
    endloop
  endfacet
  facet normal 0.843931 0.536451 0
    outer loop
      vertex 148.882 4.40877 15
      vertex 148.545 4.93893 0
      vertex 148.545 4.93893 15
    endloop
  endfacet
  facet normal 0.843931 0.536451 0
    outer loop
      vertex 148.545 4.93893 0
      vertex 148.882 4.40877 15
      vertex 148.882 4.40877 0
    endloop
  endfacet
  facet normal 0.587771 0.809027 -0
    outer loop
      vertex 147.687 5.85257 0
      vertex 147.179 6.22164 15
      vertex 147.687 5.85257 15
    endloop
  endfacet
  facet normal 0.587771 0.809027 0
    outer loop
      vertex 147.179 6.22164 15
      vertex 147.687 5.85257 0
      vertex 147.179 6.22164 0
    endloop
  endfacet
  facet normal 0.481907 0.876223 -0
    outer loop
      vertex 147.179 6.22164 0
      vertex 146.629 6.52413 15
      vertex 147.179 6.22164 15
    endloop
  endfacet
  facet normal 0.481907 0.876223 0
    outer loop
      vertex 146.629 6.52413 15
      vertex 147.179 6.22164 0
      vertex 146.629 6.52413 0
    endloop
  endfacet
  facet normal -0.125313 0.992117 0
    outer loop
      vertex -144.814 6.99013 0
      vertex -145.437 6.91144 15
      vertex -144.814 6.99013 15
    endloop
  endfacet
  facet normal -0.125313 0.992117 0
    outer loop
      vertex -145.437 6.91144 15
      vertex -144.814 6.99013 0
      vertex -145.437 6.91144 0
    endloop
  endfacet
  facet normal -0.368026 0.929816 0
    outer loop
      vertex -146.045 6.75528 0
      vertex -146.629 6.52413 15
      vertex -146.045 6.75528 15
    endloop
  endfacet
  facet normal -0.368026 0.929816 0
    outer loop
      vertex -146.629 6.52413 15
      vertex -146.045 6.75528 0
      vertex -146.629 6.52413 0
    endloop
  endfacet
  facet normal -0.951072 0.30897 0
    outer loop
      vertex -149.343 3.24345 0
      vertex -149.149 3.84062 15
      vertex -149.149 3.84062 0
    endloop
  endfacet
  facet normal -0.951072 0.30897 0
    outer loop
      vertex -149.149 3.84062 15
      vertex -149.343 3.24345 0
      vertex -149.343 3.24345 15
    endloop
  endfacet
  facet normal -0.982187 -0.187908 0
    outer loop
      vertex -149.343 -3.24345 0
      vertex -149.461 -2.62667 15
      vertex -149.461 -2.62667 0
    endloop
  endfacet
  facet normal -0.982187 -0.187908 0
    outer loop
      vertex -149.461 -2.62667 15
      vertex -149.343 -3.24345 0
      vertex -149.343 -3.24345 15
    endloop
  endfacet
  facet normal -0.843931 -0.536451 0
    outer loop
      vertex -148.545 -4.93893 0
      vertex -148.882 -4.40877 15
      vertex -148.882 -4.40877 0
    endloop
  endfacet
  facet normal -0.843931 -0.536451 0
    outer loop
      vertex -148.882 -4.40877 15
      vertex -148.545 -4.93893 0
      vertex -148.545 -4.93893 15
    endloop
  endfacet
  facet normal -0.125313 -0.992117 0
    outer loop
      vertex -145.437 -6.91144 0
      vertex -144.814 -6.99013 15
      vertex -145.437 -6.91144 15
    endloop
  endfacet
  facet normal -0.125313 -0.992117 -0
    outer loop
      vertex -144.814 -6.99013 15
      vertex -145.437 -6.91144 0
      vertex -144.814 -6.99013 0
    endloop
  endfacet
  facet normal 0.982187 -0.187908 0
    outer loop
      vertex 149.343 -3.24345 15
      vertex 149.461 -2.62667 0
      vertex 149.461 -2.62667 15
    endloop
  endfacet
  facet normal 0.982187 -0.187908 0
    outer loop
      vertex 149.461 -2.62667 0
      vertex 149.343 -3.24345 15
      vertex 149.343 -3.24345 0
    endloop
  endfacet
  facet normal 0.684327 -0.729176 0
    outer loop
      vertex 147.687 -5.85257 0
      vertex 148.145 -5.42274 15
      vertex 147.687 -5.85257 15
    endloop
  endfacet
  facet normal 0.684327 -0.729176 0
    outer loop
      vertex 148.145 -5.42274 15
      vertex 147.687 -5.85257 0
      vertex 148.145 -5.42274 0
    endloop
  endfacet
  facet normal 0.843931 -0.536451 0
    outer loop
      vertex 148.545 -4.93893 15
      vertex 148.882 -4.40877 0
      vertex 148.882 -4.40877 15
    endloop
  endfacet
  facet normal 0.843931 -0.536451 0
    outer loop
      vertex 148.882 -4.40877 0
      vertex 148.545 -4.93893 15
      vertex 148.545 -4.93893 0
    endloop
  endfacet
  facet normal 0.481907 -0.876223 0
    outer loop
      vertex 146.629 -6.52413 0
      vertex 147.179 -6.22164 15
      vertex 146.629 -6.52413 15
    endloop
  endfacet
  facet normal 0.481907 -0.876223 0
    outer loop
      vertex 147.179 -6.22164 15
      vertex 146.629 -6.52413 0
      vertex 147.179 -6.22164 0
    endloop
  endfacet
  facet normal 0.248768 -0.968563 0
    outer loop
      vertex 145.437 -6.91144 0
      vertex 146.045 -6.75528 15
      vertex 145.437 -6.91144 15
    endloop
  endfacet
  facet normal 0.248768 -0.968563 0
    outer loop
      vertex 146.045 -6.75528 15
      vertex 145.437 -6.91144 0
      vertex 146.045 -6.75528 0
    endloop
  endfacet
  facet normal -0.684327 0.729176 0
    outer loop
      vertex -147.687 5.85257 0
      vertex -148.145 5.42274 15
      vertex -147.687 5.85257 15
    endloop
  endfacet
  facet normal -0.684327 0.729176 0
    outer loop
      vertex -148.145 5.42274 15
      vertex -147.687 5.85257 0
      vertex -148.145 5.42274 0
    endloop
  endfacet
  facet normal -0.843931 0.536451 0
    outer loop
      vertex -148.882 4.40877 0
      vertex -148.545 4.93893 15
      vertex -148.545 4.93893 0
    endloop
  endfacet
  facet normal -0.843931 0.536451 0
    outer loop
      vertex -148.545 4.93893 15
      vertex -148.882 4.40877 0
      vertex -148.882 4.40877 15
    endloop
  endfacet
  facet normal -0.982187 0.187908 0
    outer loop
      vertex -149.461 2.62667 0
      vertex -149.343 3.24345 15
      vertex -149.343 3.24345 0
    endloop
  endfacet
  facet normal -0.982187 0.187908 0
    outer loop
      vertex -149.343 3.24345 15
      vertex -149.461 2.62667 0
      vertex -149.461 2.62667 15
    endloop
  endfacet
  facet normal 0.982187 0.187908 0
    outer loop
      vertex 149.461 2.62667 15
      vertex 149.343 3.24345 0
      vertex 149.343 3.24345 15
    endloop
  endfacet
  facet normal 0.982187 0.187908 0
    outer loop
      vertex 149.343 3.24345 0
      vertex 149.461 2.62667 15
      vertex 149.461 2.62667 0
    endloop
  endfacet
  facet normal 0.998069 0.0621135 0
    outer loop
      vertex 149.5 2 15
      vertex 149.461 2.62667 0
      vertex 149.461 2.62667 15
    endloop
  endfacet
  facet normal 0.998069 0.0621135 0
    outer loop
      vertex 149.461 2.62667 0
      vertex 149.5 2 15
      vertex 149.5 2 0
    endloop
  endfacet
  facet normal -0.587771 0.809027 0
    outer loop
      vertex -147.179 6.22164 0
      vertex -147.687 5.85257 15
      vertex -147.179 6.22164 15
    endloop
  endfacet
  facet normal -0.587771 0.809027 0
    outer loop
      vertex -147.687 5.85257 15
      vertex -147.179 6.22164 0
      vertex -147.687 5.85257 0
    endloop
  endfacet
  facet normal -0.905042 0.425321 0
    outer loop
      vertex -149.149 3.84062 0
      vertex -148.882 4.40877 15
      vertex -148.882 4.40877 0
    endloop
  endfacet
  facet normal -0.905042 0.425321 0
    outer loop
      vertex -148.882 4.40877 15
      vertex -149.149 3.84062 0
      vertex -149.149 3.84062 15
    endloop
  endfacet
endsolid OpenSCAD_Model
