  0
SECTION
  2
BLOCKS
  0
ENDSEC
  0
SECTION
  2
ENTITIES
  0
LINE
  8
0
 10
122.937
 20
137.089
 11
123.545
 21
137.245
  0
LINE
  8
0
 10
123.545
 20
137.245
 11
124.129
 21
137.476
  0
LINE
  8
0
 10
124.129
 20
137.476
 11
124.679
 21
137.778
  0
LINE
  8
0
 10
124.679
 20
137.778
 11
125.187
 21
138.147
  0
LINE
  8
0
 10
125.187
 20
138.147
 11
125.645
 21
138.577
  0
LINE
  8
0
 10
125.645
 20
138.577
 11
126.045
 21
139.061
  0
LINE
  8
0
 10
126.045
 20
139.061
 11
126.382
 21
139.591
  0
LINE
  8
0
 10
126.382
 20
139.591
 11
126.649
 21
140.159
  0
LINE
  8
0
 10
126.649
 20
140.159
 11
126.843
 21
140.757
  0
LINE
  8
0
 10
126.843
 20
140.757
 11
126.961
 21
141.373
  0
LINE
  8
0
 10
126.961
 20
141.373
 11
127
 21
142
  0
LINE
  8
0
 10
127
 20
142
 11
127
 21
146
  0
LINE
  8
0
 10
127
 20
146
 11
126.961
 21
146.627
  0
LINE
  8
0
 10
126.961
 20
146.627
 11
126.843
 21
147.243
  0
LINE
  8
0
 10
126.843
 20
147.243
 11
126.649
 21
147.841
  0
LINE
  8
0
 10
126.649
 20
147.841
 11
126.382
 21
148.409
  0
LINE
  8
0
 10
126.382
 20
148.409
 11
126.045
 21
148.939
  0
LINE
  8
0
 10
126.045
 20
148.939
 11
125.645
 21
149.423
  0
LINE
  8
0
 10
125.645
 20
149.423
 11
125.187
 21
149.853
  0
LINE
  8
0
 10
125.187
 20
149.853
 11
124.679
 21
150.222
  0
LINE
  8
0
 10
124.679
 20
150.222
 11
124.129
 21
150.524
  0
LINE
  8
0
 10
124.129
 20
150.524
 11
123.545
 21
150.755
  0
LINE
  8
0
 10
123.545
 20
150.755
 11
122.937
 21
150.911
  0
LINE
  8
0
 10
122.937
 20
150.911
 11
122.314
 21
150.99
  0
LINE
  8
0
 10
122.314
 20
150.99
 11
-122.314
 21
150.99
  0
LINE
  8
0
 10
-122.314
 20
150.99
 11
-122.937
 21
150.911
  0
LINE
  8
0
 10
-122.937
 20
150.911
 11
-123.545
 21
150.755
  0
LINE
  8
0
 10
-123.545
 20
150.755
 11
-124.129
 21
150.524
  0
LINE
  8
0
 10
-124.129
 20
150.524
 11
-124.679
 21
150.222
  0
LINE
  8
0
 10
-124.679
 20
150.222
 11
-125.187
 21
149.853
  0
LINE
  8
0
 10
-125.187
 20
149.853
 11
-125.645
 21
149.423
  0
LINE
  8
0
 10
-125.645
 20
149.423
 11
-126.045
 21
148.939
  0
LINE
  8
0
 10
-126.045
 20
148.939
 11
-126.382
 21
148.409
  0
LINE
  8
0
 10
-126.382
 20
148.409
 11
-126.649
 21
147.841
  0
LINE
  8
0
 10
-126.649
 20
147.841
 11
-126.843
 21
147.243
  0
LINE
  8
0
 10
-126.843
 20
147.243
 11
-126.961
 21
146.627
  0
LINE
  8
0
 10
-126.961
 20
146.627
 11
-127
 21
146
  0
LINE
  8
0
 10
-127
 20
146
 11
-127
 21
142
  0
LINE
  8
0
 10
-127
 20
142
 11
-126.961
 21
141.373
  0
LINE
  8
0
 10
-126.961
 20
141.373
 11
-126.843
 21
140.757
  0
LINE
  8
0
 10
-126.843
 20
140.757
 11
-126.649
 21
140.159
  0
LINE
  8
0
 10
-126.649
 20
140.159
 11
-126.382
 21
139.591
  0
LINE
  8
0
 10
-126.382
 20
139.591
 11
-126.045
 21
139.061
  0
LINE
  8
0
 10
-126.045
 20
139.061
 11
-125.645
 21
138.577
  0
LINE
  8
0
 10
-125.645
 20
138.577
 11
-125.187
 21
138.147
  0
LINE
  8
0
 10
-125.187
 20
138.147
 11
-124.679
 21
137.778
  0
LINE
  8
0
 10
-124.679
 20
137.778
 11
-124.129
 21
137.476
  0
LINE
  8
0
 10
-124.129
 20
137.476
 11
-123.545
 21
137.245
  0
LINE
  8
0
 10
-123.545
 20
137.245
 11
-122.937
 21
137.089
  0
LINE
  8
0
 10
-122.937
 20
137.089
 11
-122.314
 21
137.01
  0
LINE
  8
0
 10
-122.314
 20
137.01
 11
122.314
 21
137.01
  0
LINE
  8
0
 10
122.314
 20
137.01
 11
122.937
 21
137.089
  0
LINE
  8
0
 10
-120.188
 20
141.006
 11
-120.562
 21
141.053
  0
LINE
  8
0
 10
-120.562
 20
141.053
 11
-120.927
 21
141.147
  0
LINE
  8
0
 10
-120.927
 20
141.147
 11
-121.277
 21
141.286
  0
LINE
  8
0
 10
-121.277
 20
141.286
 11
-121.607
 21
141.467
  0
LINE
  8
0
 10
-121.607
 20
141.467
 11
-121.912
 21
141.688
  0
LINE
  8
0
 10
-121.912
 20
141.688
 11
-122.187
 21
141.946
  0
LINE
  8
0
 10
-122.187
 20
141.946
 11
-122.427
 21
142.237
  0
LINE
  8
0
 10
-122.427
 20
142.237
 11
-122.629
 21
142.555
  0
LINE
  8
0
 10
-122.629
 20
142.555
 11
-122.789
 21
142.896
  0
LINE
  8
0
 10
-122.789
 20
142.896
 11
-122.906
 21
143.254
  0
LINE
  8
0
 10
-122.906
 20
143.254
 11
-122.976
 21
143.624
  0
LINE
  8
0
 10
-122.976
 20
143.624
 11
-123
 21
144
  0
LINE
  8
0
 10
-123
 20
144
 11
-122.976
 21
144.376
  0
LINE
  8
0
 10
-122.976
 20
144.376
 11
-122.906
 21
144.746
  0
LINE
  8
0
 10
-122.906
 20
144.746
 11
-122.789
 21
145.104
  0
LINE
  8
0
 10
-122.789
 20
145.104
 11
-122.629
 21
145.445
  0
LINE
  8
0
 10
-122.629
 20
145.445
 11
-122.427
 21
145.763
  0
LINE
  8
0
 10
-122.427
 20
145.763
 11
-122.187
 21
146.054
  0
LINE
  8
0
 10
-122.187
 20
146.054
 11
-121.912
 21
146.312
  0
LINE
  8
0
 10
-121.912
 20
146.312
 11
-121.607
 21
146.533
  0
LINE
  8
0
 10
-121.607
 20
146.533
 11
-121.277
 21
146.714
  0
LINE
  8
0
 10
-121.277
 20
146.714
 11
-120.927
 21
146.853
  0
LINE
  8
0
 10
-120.927
 20
146.853
 11
-120.562
 21
146.947
  0
LINE
  8
0
 10
-120.562
 20
146.947
 11
-120.188
 21
146.994
  0
LINE
  8
0
 10
-120.188
 20
146.994
 11
-119.812
 21
146.994
  0
LINE
  8
0
 10
-119.812
 20
146.994
 11
-119.438
 21
146.947
  0
LINE
  8
0
 10
-119.438
 20
146.947
 11
-119.073
 21
146.853
  0
LINE
  8
0
 10
-119.073
 20
146.853
 11
-118.723
 21
146.714
  0
LINE
  8
0
 10
-118.723
 20
146.714
 11
-118.393
 21
146.533
  0
LINE
  8
0
 10
-118.393
 20
146.533
 11
-118.088
 21
146.312
  0
LINE
  8
0
 10
-118.088
 20
146.312
 11
-117.813
 21
146.054
  0
LINE
  8
0
 10
-117.813
 20
146.054
 11
-117.573
 21
145.763
  0
LINE
  8
0
 10
-117.573
 20
145.763
 11
-117.371
 21
145.445
  0
LINE
  8
0
 10
-117.371
 20
145.445
 11
-117.211
 21
145.104
  0
LINE
  8
0
 10
-117.211
 20
145.104
 11
-117.094
 21
144.746
  0
LINE
  8
0
 10
-117.094
 20
144.746
 11
-117.024
 21
144.376
  0
LINE
  8
0
 10
-117.024
 20
144.376
 11
-117
 21
144
  0
LINE
  8
0
 10
-117
 20
144
 11
-117.024
 21
143.624
  0
LINE
  8
0
 10
-117.024
 20
143.624
 11
-117.094
 21
143.254
  0
LINE
  8
0
 10
-117.094
 20
143.254
 11
-117.211
 21
142.896
  0
LINE
  8
0
 10
-117.211
 20
142.896
 11
-117.371
 21
142.555
  0
LINE
  8
0
 10
-117.371
 20
142.555
 11
-117.573
 21
142.237
  0
LINE
  8
0
 10
-117.573
 20
142.237
 11
-117.813
 21
141.946
  0
LINE
  8
0
 10
-117.813
 20
141.946
 11
-118.088
 21
141.688
  0
LINE
  8
0
 10
-118.088
 20
141.688
 11
-118.393
 21
141.467
  0
LINE
  8
0
 10
-118.393
 20
141.467
 11
-118.723
 21
141.286
  0
LINE
  8
0
 10
-118.723
 20
141.286
 11
-119.073
 21
141.147
  0
LINE
  8
0
 10
-119.073
 20
141.147
 11
-119.438
 21
141.053
  0
LINE
  8
0
 10
-119.438
 20
141.053
 11
-119.812
 21
141.006
  0
LINE
  8
0
 10
-119.812
 20
141.006
 11
-120.188
 21
141.006
  0
LINE
  8
0
 10
122.937
 20
113.089
 11
123.545
 21
113.245
  0
LINE
  8
0
 10
123.545
 20
113.245
 11
124.129
 21
113.476
  0
LINE
  8
0
 10
124.129
 20
113.476
 11
124.679
 21
113.778
  0
LINE
  8
0
 10
124.679
 20
113.778
 11
125.187
 21
114.147
  0
LINE
  8
0
 10
125.187
 20
114.147
 11
125.645
 21
114.577
  0
LINE
  8
0
 10
125.645
 20
114.577
 11
126.045
 21
115.061
  0
LINE
  8
0
 10
126.045
 20
115.061
 11
126.382
 21
115.591
  0
LINE
  8
0
 10
126.382
 20
115.591
 11
126.649
 21
116.159
  0
LINE
  8
0
 10
126.649
 20
116.159
 11
126.843
 21
116.757
  0
LINE
  8
0
 10
126.843
 20
116.757
 11
126.961
 21
117.373
  0
LINE
  8
0
 10
126.961
 20
117.373
 11
127
 21
118
  0
LINE
  8
0
 10
127
 20
118
 11
127
 21
122
  0
LINE
  8
0
 10
127
 20
122
 11
126.961
 21
122.627
  0
LINE
  8
0
 10
126.961
 20
122.627
 11
126.843
 21
123.243
  0
LINE
  8
0
 10
126.843
 20
123.243
 11
126.649
 21
123.841
  0
LINE
  8
0
 10
126.649
 20
123.841
 11
126.382
 21
124.409
  0
LINE
  8
0
 10
126.382
 20
124.409
 11
126.045
 21
124.939
  0
LINE
  8
0
 10
126.045
 20
124.939
 11
125.645
 21
125.423
  0
LINE
  8
0
 10
125.645
 20
125.423
 11
125.187
 21
125.853
  0
LINE
  8
0
 10
125.187
 20
125.853
 11
124.679
 21
126.222
  0
LINE
  8
0
 10
124.679
 20
126.222
 11
124.129
 21
126.524
  0
LINE
  8
0
 10
124.129
 20
126.524
 11
123.545
 21
126.755
  0
LINE
  8
0
 10
123.545
 20
126.755
 11
122.937
 21
126.911
  0
LINE
  8
0
 10
122.937
 20
126.911
 11
122.314
 21
126.99
  0
LINE
  8
0
 10
122.314
 20
126.99
 11
-122.314
 21
126.99
  0
LINE
  8
0
 10
-122.314
 20
126.99
 11
-122.937
 21
126.911
  0
LINE
  8
0
 10
-122.937
 20
126.911
 11
-123.545
 21
126.755
  0
LINE
  8
0
 10
-123.545
 20
126.755
 11
-124.129
 21
126.524
  0
LINE
  8
0
 10
-124.129
 20
126.524
 11
-124.679
 21
126.222
  0
LINE
  8
0
 10
-124.679
 20
126.222
 11
-125.187
 21
125.853
  0
LINE
  8
0
 10
-125.187
 20
125.853
 11
-125.645
 21
125.423
  0
LINE
  8
0
 10
-125.645
 20
125.423
 11
-126.045
 21
124.939
  0
LINE
  8
0
 10
-126.045
 20
124.939
 11
-126.382
 21
124.409
  0
LINE
  8
0
 10
-126.382
 20
124.409
 11
-126.649
 21
123.841
  0
LINE
  8
0
 10
-126.649
 20
123.841
 11
-126.843
 21
123.243
  0
LINE
  8
0
 10
-126.843
 20
123.243
 11
-126.961
 21
122.627
  0
LINE
  8
0
 10
-126.961
 20
122.627
 11
-127
 21
122
  0
LINE
  8
0
 10
-127
 20
122
 11
-127
 21
118
  0
LINE
  8
0
 10
-127
 20
118
 11
-126.961
 21
117.373
  0
LINE
  8
0
 10
-126.961
 20
117.373
 11
-126.843
 21
116.757
  0
LINE
  8
0
 10
-126.843
 20
116.757
 11
-126.649
 21
116.159
  0
LINE
  8
0
 10
-126.649
 20
116.159
 11
-126.382
 21
115.591
  0
LINE
  8
0
 10
-126.382
 20
115.591
 11
-126.045
 21
115.061
  0
LINE
  8
0
 10
-126.045
 20
115.061
 11
-125.645
 21
114.577
  0
LINE
  8
0
 10
-125.645
 20
114.577
 11
-125.187
 21
114.147
  0
LINE
  8
0
 10
-125.187
 20
114.147
 11
-124.679
 21
113.778
  0
LINE
  8
0
 10
-124.679
 20
113.778
 11
-124.129
 21
113.476
  0
LINE
  8
0
 10
-124.129
 20
113.476
 11
-123.545
 21
113.245
  0
LINE
  8
0
 10
-123.545
 20
113.245
 11
-122.937
 21
113.089
  0
LINE
  8
0
 10
-122.937
 20
113.089
 11
-122.314
 21
113.01
  0
LINE
  8
0
 10
-122.314
 20
113.01
 11
122.314
 21
113.01
  0
LINE
  8
0
 10
122.314
 20
113.01
 11
122.937
 21
113.089
  0
LINE
  8
0
 10
-120.188
 20
117.006
 11
-120.562
 21
117.053
  0
LINE
  8
0
 10
-120.562
 20
117.053
 11
-120.927
 21
117.147
  0
LINE
  8
0
 10
-120.927
 20
117.147
 11
-121.277
 21
117.286
  0
LINE
  8
0
 10
-121.277
 20
117.286
 11
-121.607
 21
117.467
  0
LINE
  8
0
 10
-121.607
 20
117.467
 11
-121.912
 21
117.688
  0
LINE
  8
0
 10
-121.912
 20
117.688
 11
-122.187
 21
117.946
  0
LINE
  8
0
 10
-122.187
 20
117.946
 11
-122.427
 21
118.237
  0
LINE
  8
0
 10
-122.427
 20
118.237
 11
-122.629
 21
118.555
  0
LINE
  8
0
 10
-122.629
 20
118.555
 11
-122.789
 21
118.896
  0
LINE
  8
0
 10
-122.789
 20
118.896
 11
-122.906
 21
119.254
  0
LINE
  8
0
 10
-122.906
 20
119.254
 11
-122.976
 21
119.624
  0
LINE
  8
0
 10
-122.976
 20
119.624
 11
-123
 21
120
  0
LINE
  8
0
 10
-123
 20
120
 11
-122.976
 21
120.376
  0
LINE
  8
0
 10
-122.976
 20
120.376
 11
-122.906
 21
120.746
  0
LINE
  8
0
 10
-122.906
 20
120.746
 11
-122.789
 21
121.104
  0
LINE
  8
0
 10
-122.789
 20
121.104
 11
-122.629
 21
121.445
  0
LINE
  8
0
 10
-122.629
 20
121.445
 11
-122.427
 21
121.763
  0
LINE
  8
0
 10
-122.427
 20
121.763
 11
-122.187
 21
122.054
  0
LINE
  8
0
 10
-122.187
 20
122.054
 11
-121.912
 21
122.312
  0
LINE
  8
0
 10
-121.912
 20
122.312
 11
-121.607
 21
122.533
  0
LINE
  8
0
 10
-121.607
 20
122.533
 11
-121.277
 21
122.714
  0
LINE
  8
0
 10
-121.277
 20
122.714
 11
-120.927
 21
122.853
  0
LINE
  8
0
 10
-120.927
 20
122.853
 11
-120.562
 21
122.947
  0
LINE
  8
0
 10
-120.562
 20
122.947
 11
-120.188
 21
122.994
  0
LINE
  8
0
 10
-120.188
 20
122.994
 11
-119.812
 21
122.994
  0
LINE
  8
0
 10
-119.812
 20
122.994
 11
-119.438
 21
122.947
  0
LINE
  8
0
 10
-119.438
 20
122.947
 11
-119.073
 21
122.853
  0
LINE
  8
0
 10
-119.073
 20
122.853
 11
-118.723
 21
122.714
  0
LINE
  8
0
 10
-118.723
 20
122.714
 11
-118.393
 21
122.533
  0
LINE
  8
0
 10
-118.393
 20
122.533
 11
-118.088
 21
122.312
  0
LINE
  8
0
 10
-118.088
 20
122.312
 11
-117.813
 21
122.054
  0
LINE
  8
0
 10
-117.813
 20
122.054
 11
-117.573
 21
121.763
  0
LINE
  8
0
 10
-117.573
 20
121.763
 11
-117.371
 21
121.445
  0
LINE
  8
0
 10
-117.371
 20
121.445
 11
-117.211
 21
121.104
  0
LINE
  8
0
 10
-117.211
 20
121.104
 11
-117.094
 21
120.746
  0
LINE
  8
0
 10
-117.094
 20
120.746
 11
-117.024
 21
120.376
  0
LINE
  8
0
 10
-117.024
 20
120.376
 11
-117
 21
120
  0
LINE
  8
0
 10
-117
 20
120
 11
-117.024
 21
119.624
  0
LINE
  8
0
 10
-117.024
 20
119.624
 11
-117.094
 21
119.254
  0
LINE
  8
0
 10
-117.094
 20
119.254
 11
-117.211
 21
118.896
  0
LINE
  8
0
 10
-117.211
 20
118.896
 11
-117.371
 21
118.555
  0
LINE
  8
0
 10
-117.371
 20
118.555
 11
-117.573
 21
118.237
  0
LINE
  8
0
 10
-117.573
 20
118.237
 11
-117.813
 21
117.946
  0
LINE
  8
0
 10
-117.813
 20
117.946
 11
-118.088
 21
117.688
  0
LINE
  8
0
 10
-118.088
 20
117.688
 11
-118.393
 21
117.467
  0
LINE
  8
0
 10
-118.393
 20
117.467
 11
-118.723
 21
117.286
  0
LINE
  8
0
 10
-118.723
 20
117.286
 11
-119.073
 21
117.147
  0
LINE
  8
0
 10
-119.073
 20
117.147
 11
-119.438
 21
117.053
  0
LINE
  8
0
 10
-119.438
 20
117.053
 11
-119.812
 21
117.006
  0
LINE
  8
0
 10
-119.812
 20
117.006
 11
-120.188
 21
117.006
  0
LINE
  8
0
 10
122.937
 20
89.0886
 11
123.545
 21
89.2447
  0
LINE
  8
0
 10
123.545
 20
89.2447
 11
124.129
 21
89.4759
  0
LINE
  8
0
 10
124.129
 20
89.4759
 11
124.679
 21
89.7784
  0
LINE
  8
0
 10
124.679
 20
89.7784
 11
125.187
 21
90.1474
  0
LINE
  8
0
 10
125.187
 20
90.1474
 11
125.645
 21
90.5773
  0
LINE
  8
0
 10
125.645
 20
90.5773
 11
126.045
 21
91.0611
  0
LINE
  8
0
 10
126.045
 20
91.0611
 11
126.382
 21
91.5912
  0
LINE
  8
0
 10
126.382
 20
91.5912
 11
126.649
 21
92.1594
  0
LINE
  8
0
 10
126.649
 20
92.1594
 11
126.843
 21
92.7566
  0
LINE
  8
0
 10
126.843
 20
92.7566
 11
126.961
 21
93.3733
  0
LINE
  8
0
 10
126.961
 20
93.3733
 11
127
 21
94
  0
LINE
  8
0
 10
127
 20
94
 11
127
 21
98
  0
LINE
  8
0
 10
127
 20
98
 11
126.961
 21
98.6267
  0
LINE
  8
0
 10
126.961
 20
98.6267
 11
126.843
 21
99.2434
  0
LINE
  8
0
 10
126.843
 20
99.2434
 11
126.649
 21
99.8406
  0
LINE
  8
0
 10
126.649
 20
99.8406
 11
126.382
 21
100.409
  0
LINE
  8
0
 10
126.382
 20
100.409
 11
126.045
 21
100.939
  0
LINE
  8
0
 10
126.045
 20
100.939
 11
125.645
 21
101.423
  0
LINE
  8
0
 10
125.645
 20
101.423
 11
125.187
 21
101.853
  0
LINE
  8
0
 10
125.187
 20
101.853
 11
124.679
 21
102.222
  0
LINE
  8
0
 10
124.679
 20
102.222
 11
124.129
 21
102.524
  0
LINE
  8
0
 10
124.129
 20
102.524
 11
123.545
 21
102.755
  0
LINE
  8
0
 10
123.545
 20
102.755
 11
122.937
 21
102.911
  0
LINE
  8
0
 10
122.937
 20
102.911
 11
122.314
 21
102.99
  0
LINE
  8
0
 10
122.314
 20
102.99
 11
-122.314
 21
102.99
  0
LINE
  8
0
 10
-122.314
 20
102.99
 11
-122.937
 21
102.911
  0
LINE
  8
0
 10
-122.937
 20
102.911
 11
-123.545
 21
102.755
  0
LINE
  8
0
 10
-123.545
 20
102.755
 11
-124.129
 21
102.524
  0
LINE
  8
0
 10
-124.129
 20
102.524
 11
-124.679
 21
102.222
  0
LINE
  8
0
 10
-124.679
 20
102.222
 11
-125.187
 21
101.853
  0
LINE
  8
0
 10
-125.187
 20
101.853
 11
-125.645
 21
101.423
  0
LINE
  8
0
 10
-125.645
 20
101.423
 11
-126.045
 21
100.939
  0
LINE
  8
0
 10
-126.045
 20
100.939
 11
-126.382
 21
100.409
  0
LINE
  8
0
 10
-126.382
 20
100.409
 11
-126.649
 21
99.8406
  0
LINE
  8
0
 10
-126.649
 20
99.8406
 11
-126.843
 21
99.2434
  0
LINE
  8
0
 10
-126.843
 20
99.2434
 11
-126.961
 21
98.6267
  0
LINE
  8
0
 10
-126.961
 20
98.6267
 11
-127
 21
98
  0
LINE
  8
0
 10
-127
 20
98
 11
-127
 21
94
  0
LINE
  8
0
 10
-127
 20
94
 11
-126.961
 21
93.3733
  0
LINE
  8
0
 10
-126.961
 20
93.3733
 11
-126.843
 21
92.7566
  0
LINE
  8
0
 10
-126.843
 20
92.7566
 11
-126.649
 21
92.1594
  0
LINE
  8
0
 10
-126.649
 20
92.1594
 11
-126.382
 21
91.5912
  0
LINE
  8
0
 10
-126.382
 20
91.5912
 11
-126.045
 21
91.0611
  0
LINE
  8
0
 10
-126.045
 20
91.0611
 11
-125.645
 21
90.5773
  0
LINE
  8
0
 10
-125.645
 20
90.5773
 11
-125.187
 21
90.1474
  0
LINE
  8
0
 10
-125.187
 20
90.1474
 11
-124.679
 21
89.7784
  0
LINE
  8
0
 10
-124.679
 20
89.7784
 11
-124.129
 21
89.4759
  0
LINE
  8
0
 10
-124.129
 20
89.4759
 11
-123.545
 21
89.2447
  0
LINE
  8
0
 10
-123.545
 20
89.2447
 11
-122.937
 21
89.0886
  0
LINE
  8
0
 10
-122.937
 20
89.0886
 11
-122.314
 21
89.0099
  0
LINE
  8
0
 10
-122.314
 20
89.0099
 11
122.314
 21
89.0099
  0
LINE
  8
0
 10
122.314
 20
89.0099
 11
122.937
 21
89.0886
  0
LINE
  8
0
 10
-120.188
 20
93.0059
 11
-120.562
 21
93.0531
  0
LINE
  8
0
 10
-120.562
 20
93.0531
 11
-120.927
 21
93.1468
  0
LINE
  8
0
 10
-120.927
 20
93.1468
 11
-121.277
 21
93.2855
  0
LINE
  8
0
 10
-121.277
 20
93.2855
 11
-121.607
 21
93.467
  0
LINE
  8
0
 10
-121.607
 20
93.467
 11
-121.912
 21
93.6885
  0
LINE
  8
0
 10
-121.912
 20
93.6885
 11
-122.187
 21
93.9464
  0
LINE
  8
0
 10
-122.187
 20
93.9464
 11
-122.427
 21
94.2366
  0
LINE
  8
0
 10
-122.427
 20
94.2366
 11
-122.629
 21
94.5547
  0
LINE
  8
0
 10
-122.629
 20
94.5547
 11
-122.789
 21
94.8956
  0
LINE
  8
0
 10
-122.789
 20
94.8956
 11
-122.906
 21
95.2539
  0
LINE
  8
0
 10
-122.906
 20
95.2539
 11
-122.976
 21
95.624
  0
LINE
  8
0
 10
-122.976
 20
95.624
 11
-123
 21
96
  0
LINE
  8
0
 10
-123
 20
96
 11
-122.976
 21
96.376
  0
LINE
  8
0
 10
-122.976
 20
96.376
 11
-122.906
 21
96.7461
  0
LINE
  8
0
 10
-122.906
 20
96.7461
 11
-122.789
 21
97.1044
  0
LINE
  8
0
 10
-122.789
 20
97.1044
 11
-122.629
 21
97.4453
  0
LINE
  8
0
 10
-122.629
 20
97.4453
 11
-122.427
 21
97.7634
  0
LINE
  8
0
 10
-122.427
 20
97.7634
 11
-122.187
 21
98.0536
  0
LINE
  8
0
 10
-122.187
 20
98.0536
 11
-121.912
 21
98.3115
  0
LINE
  8
0
 10
-121.912
 20
98.3115
 11
-121.607
 21
98.533
  0
LINE
  8
0
 10
-121.607
 20
98.533
 11
-121.277
 21
98.7145
  0
LINE
  8
0
 10
-121.277
 20
98.7145
 11
-120.927
 21
98.8532
  0
LINE
  8
0
 10
-120.927
 20
98.8532
 11
-120.562
 21
98.9469
  0
LINE
  8
0
 10
-120.562
 20
98.9469
 11
-120.188
 21
98.9941
  0
LINE
  8
0
 10
-120.188
 20
98.9941
 11
-119.812
 21
98.9941
  0
LINE
  8
0
 10
-119.812
 20
98.9941
 11
-119.438
 21
98.9469
  0
LINE
  8
0
 10
-119.438
 20
98.9469
 11
-119.073
 21
98.8532
  0
LINE
  8
0
 10
-119.073
 20
98.8532
 11
-118.723
 21
98.7145
  0
LINE
  8
0
 10
-118.723
 20
98.7145
 11
-118.393
 21
98.533
  0
LINE
  8
0
 10
-118.393
 20
98.533
 11
-118.088
 21
98.3115
  0
LINE
  8
0
 10
-118.088
 20
98.3115
 11
-117.813
 21
98.0536
  0
LINE
  8
0
 10
-117.813
 20
98.0536
 11
-117.573
 21
97.7634
  0
LINE
  8
0
 10
-117.573
 20
97.7634
 11
-117.371
 21
97.4453
  0
LINE
  8
0
 10
-117.371
 20
97.4453
 11
-117.211
 21
97.1044
  0
LINE
  8
0
 10
-117.211
 20
97.1044
 11
-117.094
 21
96.7461
  0
LINE
  8
0
 10
-117.094
 20
96.7461
 11
-117.024
 21
96.376
  0
LINE
  8
0
 10
-117.024
 20
96.376
 11
-117
 21
96
  0
LINE
  8
0
 10
-117
 20
96
 11
-117.024
 21
95.624
  0
LINE
  8
0
 10
-117.024
 20
95.624
 11
-117.094
 21
95.2539
  0
LINE
  8
0
 10
-117.094
 20
95.2539
 11
-117.211
 21
94.8956
  0
LINE
  8
0
 10
-117.211
 20
94.8956
 11
-117.371
 21
94.5547
  0
LINE
  8
0
 10
-117.371
 20
94.5547
 11
-117.573
 21
94.2366
  0
LINE
  8
0
 10
-117.573
 20
94.2366
 11
-117.813
 21
93.9464
  0
LINE
  8
0
 10
-117.813
 20
93.9464
 11
-118.088
 21
93.6885
  0
LINE
  8
0
 10
-118.088
 20
93.6885
 11
-118.393
 21
93.467
  0
LINE
  8
0
 10
-118.393
 20
93.467
 11
-118.723
 21
93.2855
  0
LINE
  8
0
 10
-118.723
 20
93.2855
 11
-119.073
 21
93.1468
  0
LINE
  8
0
 10
-119.073
 20
93.1468
 11
-119.438
 21
93.0531
  0
LINE
  8
0
 10
-119.438
 20
93.0531
 11
-119.812
 21
93.0059
  0
LINE
  8
0
 10
-119.812
 20
93.0059
 11
-120.188
 21
93.0059
  0
LINE
  8
0
 10
122.937
 20
65.0886
 11
123.545
 21
65.2447
  0
LINE
  8
0
 10
123.545
 20
65.2447
 11
124.129
 21
65.4759
  0
LINE
  8
0
 10
124.129
 20
65.4759
 11
124.679
 21
65.7784
  0
LINE
  8
0
 10
124.679
 20
65.7784
 11
125.187
 21
66.1474
  0
LINE
  8
0
 10
125.187
 20
66.1474
 11
125.645
 21
66.5773
  0
LINE
  8
0
 10
125.645
 20
66.5773
 11
126.045
 21
67.0611
  0
LINE
  8
0
 10
126.045
 20
67.0611
 11
126.382
 21
67.5912
  0
LINE
  8
0
 10
126.382
 20
67.5912
 11
126.649
 21
68.1594
  0
LINE
  8
0
 10
126.649
 20
68.1594
 11
126.843
 21
68.7566
  0
LINE
  8
0
 10
126.843
 20
68.7566
 11
126.961
 21
69.3733
  0
LINE
  8
0
 10
126.961
 20
69.3733
 11
127
 21
70
  0
LINE
  8
0
 10
127
 20
70
 11
127
 21
74
  0
LINE
  8
0
 10
127
 20
74
 11
126.961
 21
74.6267
  0
LINE
  8
0
 10
126.961
 20
74.6267
 11
126.843
 21
75.2434
  0
LINE
  8
0
 10
126.843
 20
75.2434
 11
126.649
 21
75.8406
  0
LINE
  8
0
 10
126.649
 20
75.8406
 11
126.382
 21
76.4088
  0
LINE
  8
0
 10
126.382
 20
76.4088
 11
126.045
 21
76.9389
  0
LINE
  8
0
 10
126.045
 20
76.9389
 11
125.645
 21
77.4227
  0
LINE
  8
0
 10
125.645
 20
77.4227
 11
125.187
 21
77.8526
  0
LINE
  8
0
 10
125.187
 20
77.8526
 11
124.679
 21
78.2216
  0
LINE
  8
0
 10
124.679
 20
78.2216
 11
124.129
 21
78.5241
  0
LINE
  8
0
 10
124.129
 20
78.5241
 11
123.545
 21
78.7553
  0
LINE
  8
0
 10
123.545
 20
78.7553
 11
122.937
 21
78.9114
  0
LINE
  8
0
 10
122.937
 20
78.9114
 11
122.314
 21
78.9901
  0
LINE
  8
0
 10
122.314
 20
78.9901
 11
-122.314
 21
78.9901
  0
LINE
  8
0
 10
-122.314
 20
78.9901
 11
-122.937
 21
78.9114
  0
LINE
  8
0
 10
-122.937
 20
78.9114
 11
-123.545
 21
78.7553
  0
LINE
  8
0
 10
-123.545
 20
78.7553
 11
-124.129
 21
78.5241
  0
LINE
  8
0
 10
-124.129
 20
78.5241
 11
-124.679
 21
78.2216
  0
LINE
  8
0
 10
-124.679
 20
78.2216
 11
-125.187
 21
77.8526
  0
LINE
  8
0
 10
-125.187
 20
77.8526
 11
-125.645
 21
77.4227
  0
LINE
  8
0
 10
-125.645
 20
77.4227
 11
-126.045
 21
76.9389
  0
LINE
  8
0
 10
-126.045
 20
76.9389
 11
-126.382
 21
76.4088
  0
LINE
  8
0
 10
-126.382
 20
76.4088
 11
-126.649
 21
75.8406
  0
LINE
  8
0
 10
-126.649
 20
75.8406
 11
-126.843
 21
75.2434
  0
LINE
  8
0
 10
-126.843
 20
75.2434
 11
-126.961
 21
74.6267
  0
LINE
  8
0
 10
-126.961
 20
74.6267
 11
-127
 21
74
  0
LINE
  8
0
 10
-127
 20
74
 11
-127
 21
70
  0
LINE
  8
0
 10
-127
 20
70
 11
-126.961
 21
69.3733
  0
LINE
  8
0
 10
-126.961
 20
69.3733
 11
-126.843
 21
68.7566
  0
LINE
  8
0
 10
-126.843
 20
68.7566
 11
-126.649
 21
68.1594
  0
LINE
  8
0
 10
-126.649
 20
68.1594
 11
-126.382
 21
67.5912
  0
LINE
  8
0
 10
-126.382
 20
67.5912
 11
-126.045
 21
67.0611
  0
LINE
  8
0
 10
-126.045
 20
67.0611
 11
-125.645
 21
66.5773
  0
LINE
  8
0
 10
-125.645
 20
66.5773
 11
-125.187
 21
66.1474
  0
LINE
  8
0
 10
-125.187
 20
66.1474
 11
-124.679
 21
65.7784
  0
LINE
  8
0
 10
-124.679
 20
65.7784
 11
-124.129
 21
65.4759
  0
LINE
  8
0
 10
-124.129
 20
65.4759
 11
-123.545
 21
65.2447
  0
LINE
  8
0
 10
-123.545
 20
65.2447
 11
-122.937
 21
65.0886
  0
LINE
  8
0
 10
-122.937
 20
65.0886
 11
-122.314
 21
65.0099
  0
LINE
  8
0
 10
-122.314
 20
65.0099
 11
122.314
 21
65.0099
  0
LINE
  8
0
 10
122.314
 20
65.0099
 11
122.937
 21
65.0886
  0
LINE
  8
0
 10
-120.188
 20
69.0059
 11
-120.562
 21
69.0531
  0
LINE
  8
0
 10
-120.562
 20
69.0531
 11
-120.927
 21
69.1468
  0
LINE
  8
0
 10
-120.927
 20
69.1468
 11
-121.277
 21
69.2855
  0
LINE
  8
0
 10
-121.277
 20
69.2855
 11
-121.607
 21
69.467
  0
LINE
  8
0
 10
-121.607
 20
69.467
 11
-121.912
 21
69.6885
  0
LINE
  8
0
 10
-121.912
 20
69.6885
 11
-122.187
 21
69.9464
  0
LINE
  8
0
 10
-122.187
 20
69.9464
 11
-122.427
 21
70.2366
  0
LINE
  8
0
 10
-122.427
 20
70.2366
 11
-122.629
 21
70.5547
  0
LINE
  8
0
 10
-122.629
 20
70.5547
 11
-122.789
 21
70.8956
  0
LINE
  8
0
 10
-122.789
 20
70.8956
 11
-122.906
 21
71.2539
  0
LINE
  8
0
 10
-122.906
 20
71.2539
 11
-122.976
 21
71.624
  0
LINE
  8
0
 10
-122.976
 20
71.624
 11
-123
 21
72
  0
LINE
  8
0
 10
-123
 20
72
 11
-122.976
 21
72.376
  0
LINE
  8
0
 10
-122.976
 20
72.376
 11
-122.906
 21
72.7461
  0
LINE
  8
0
 10
-122.906
 20
72.7461
 11
-122.789
 21
73.1044
  0
LINE
  8
0
 10
-122.789
 20
73.1044
 11
-122.629
 21
73.4453
  0
LINE
  8
0
 10
-122.629
 20
73.4453
 11
-122.427
 21
73.7634
  0
LINE
  8
0
 10
-122.427
 20
73.7634
 11
-122.187
 21
74.0536
  0
LINE
  8
0
 10
-122.187
 20
74.0536
 11
-121.912
 21
74.3115
  0
LINE
  8
0
 10
-121.912
 20
74.3115
 11
-121.607
 21
74.533
  0
LINE
  8
0
 10
-121.607
 20
74.533
 11
-121.277
 21
74.7145
  0
LINE
  8
0
 10
-121.277
 20
74.7145
 11
-120.927
 21
74.8532
  0
LINE
  8
0
 10
-120.927
 20
74.8532
 11
-120.562
 21
74.9469
  0
LINE
  8
0
 10
-120.562
 20
74.9469
 11
-120.188
 21
74.9941
  0
LINE
  8
0
 10
-120.188
 20
74.9941
 11
-119.812
 21
74.9941
  0
LINE
  8
0
 10
-119.812
 20
74.9941
 11
-119.438
 21
74.9469
  0
LINE
  8
0
 10
-119.438
 20
74.9469
 11
-119.073
 21
74.8532
  0
LINE
  8
0
 10
-119.073
 20
74.8532
 11
-118.723
 21
74.7145
  0
LINE
  8
0
 10
-118.723
 20
74.7145
 11
-118.393
 21
74.533
  0
LINE
  8
0
 10
-118.393
 20
74.533
 11
-118.088
 21
74.3115
  0
LINE
  8
0
 10
-118.088
 20
74.3115
 11
-117.813
 21
74.0536
  0
LINE
  8
0
 10
-117.813
 20
74.0536
 11
-117.573
 21
73.7634
  0
LINE
  8
0
 10
-117.573
 20
73.7634
 11
-117.371
 21
73.4453
  0
LINE
  8
0
 10
-117.371
 20
73.4453
 11
-117.211
 21
73.1044
  0
LINE
  8
0
 10
-117.211
 20
73.1044
 11
-117.094
 21
72.7461
  0
LINE
  8
0
 10
-117.094
 20
72.7461
 11
-117.024
 21
72.376
  0
LINE
  8
0
 10
-117.024
 20
72.376
 11
-117
 21
72
  0
LINE
  8
0
 10
-117
 20
72
 11
-117.024
 21
71.624
  0
LINE
  8
0
 10
-117.024
 20
71.624
 11
-117.094
 21
71.2539
  0
LINE
  8
0
 10
-117.094
 20
71.2539
 11
-117.211
 21
70.8956
  0
LINE
  8
0
 10
-117.211
 20
70.8956
 11
-117.371
 21
70.5547
  0
LINE
  8
0
 10
-117.371
 20
70.5547
 11
-117.573
 21
70.2366
  0
LINE
  8
0
 10
-117.573
 20
70.2366
 11
-117.813
 21
69.9464
  0
LINE
  8
0
 10
-117.813
 20
69.9464
 11
-118.088
 21
69.6885
  0
LINE
  8
0
 10
-118.088
 20
69.6885
 11
-118.393
 21
69.467
  0
LINE
  8
0
 10
-118.393
 20
69.467
 11
-118.723
 21
69.2855
  0
LINE
  8
0
 10
-118.723
 20
69.2855
 11
-119.073
 21
69.1468
  0
LINE
  8
0
 10
-119.073
 20
69.1468
 11
-119.438
 21
69.0531
  0
LINE
  8
0
 10
-119.438
 20
69.0531
 11
-119.812
 21
69.0059
  0
LINE
  8
0
 10
-119.812
 20
69.0059
 11
-120.188
 21
69.0059
  0
ENDSEC
  0
SECTION
  2
OBJECTS
  0
DICTIONARY
  0
ENDSEC
  0
EOF
