<?xml version="1.0" standalone="no"?>
<!DOCTYPE svg PUBLIC "-//W3C//DTD SVG 1.1//EN" "http://www.w3.org/Graphics/SVG/1.1/DTD/svg11.dtd">
<svg width="360mm" height="44mm" viewBox="-180 -22 360 44" xmlns="http://www.w3.org/2000/svg" version="1.1">
<title>OpenSCAD Model</title>
<path d="
M 175.437,21.9114 L 176.045,21.7553 L 176.629,21.5241 L 177.179,21.2216 L 177.687,20.8526 L 178.145,20.4227
 L 178.545,19.9389 L 178.882,19.4088 L 179.149,18.8406 L 179.343,18.2434 L 179.461,17.6267 L 179.5,17
 L 179.5,-17 L 179.461,-17.6267 L 179.343,-18.2434 L 179.149,-18.8406 L 178.882,-19.4088 L 178.545,-19.9389
 L 178.145,-20.4227 L 177.687,-20.8526 L 177.179,-21.2216 L 176.629,-21.5241 L 176.045,-21.7553 L 175.437,-21.9114
 L 174.814,-21.9901 L -174.814,-21.9901 L -175.437,-21.9114 L -176.045,-21.7553 L -176.629,-21.5241 L -177.179,-21.2216
 L -177.687,-20.8526 L -178.145,-20.4227 L -178.545,-19.9389 L -178.882,-19.4088 L -179.149,-18.8406 L -179.343,-18.2434
 L -179.461,-17.6267 L -179.5,-17 L -179.5,17 L -179.461,17.6267 L -179.343,18.2434 L -179.149,18.8406
 L -178.882,19.4088 L -178.545,19.9389 L -178.145,20.4227 L -177.687,20.8526 L -177.179,21.2216 L -176.629,21.5241
 L -176.045,21.7553 L -175.437,21.9114 L -174.814,21.9901 L 174.814,21.9901 z
M 127.312,-12.0059 L 126.938,-12.0531 L 126.573,-12.1468 L 126.223,-12.2855 L 125.893,-12.467 L 125.588,-12.6884
 L 125.313,-12.9464 L 125.073,-13.2366 L 124.871,-13.5547 L 124.711,-13.8956 L 124.594,-14.2539 L 124.524,-14.624
 L 124.5,-15 L 124.524,-15.376 L 124.594,-15.7461 L 124.711,-16.1044 L 124.871,-16.4453 L 125.073,-16.7634
 L 125.313,-17.0536 L 125.588,-17.3115 L 125.893,-17.533 L 126.223,-17.7145 L 126.573,-17.8532 L 126.938,-17.9469
 L 127.312,-17.9941 L 127.688,-17.9941 L 128.062,-17.9469 L 128.427,-17.8532 L 128.777,-17.7145 L 129.107,-17.533
 L 129.412,-17.3115 L 129.687,-17.0536 L 129.927,-16.7634 L 130.129,-16.4453 L 130.289,-16.1044 L 130.406,-15.7461
 L 130.476,-15.376 L 130.5,-15 L 130.476,-14.624 L 130.406,-14.2539 L 130.289,-13.8956 L 130.129,-13.5547
 L 129.927,-13.2366 L 129.687,-12.9464 L 129.412,-12.6884 L 129.107,-12.467 L 128.777,-12.2855 L 128.427,-12.1468
 L 128.062,-12.0531 L 127.688,-12.0059 z
M -37.6884,-12.0059 L -38.0621,-12.0531 L -38.427,-12.1468 L -38.7773,-12.2855 L -39.1075,-12.467 L -39.4123,-12.6884
 L -39.6869,-12.9464 L -39.927,-13.2366 L -40.1289,-13.5547 L -40.2893,-13.8956 L -40.4057,-14.2539 L -40.4763,-14.624
 L -40.5,-15 L -40.4763,-15.376 L -40.4057,-15.7461 L -40.2893,-16.1044 L -40.1289,-16.4453 L -39.927,-16.7634
 L -39.6869,-17.0536 L -39.4123,-17.3115 L -39.1075,-17.533 L -38.7773,-17.7145 L -38.427,-17.8532 L -38.0621,-17.9469
 L -37.6884,-17.9941 L -37.3116,-17.9941 L -36.9379,-17.9469 L -36.5729,-17.8532 L -36.2227,-17.7145 L -35.8925,-17.533
 L -35.5877,-17.3115 L -35.3131,-17.0536 L -35.0729,-16.7634 L -34.8711,-16.4453 L -34.7107,-16.1044 L -34.5942,-15.7461
 L -34.5237,-15.376 L -34.5,-15 L -34.5237,-14.624 L -34.5942,-14.2539 L -34.7107,-13.8956 L -34.8711,-13.5547
 L -35.0729,-13.2366 L -35.3131,-12.9464 L -35.5877,-12.6884 L -35.8925,-12.467 L -36.2227,-12.2855 L -36.5729,-12.1468
 L -36.9379,-12.0531 L -37.3116,-12.0059 z
M 97.3116,-12.0059 L 96.9379,-12.0531 L 96.573,-12.1468 L 96.2227,-12.2855 L 95.8925,-12.467 L 95.5877,-12.6884
 L 95.3131,-12.9464 L 95.073,-13.2366 L 94.8711,-13.5547 L 94.7107,-13.8956 L 94.5943,-14.2539 L 94.5237,-14.624
 L 94.5,-15 L 94.5237,-15.376 L 94.5943,-15.7461 L 94.7107,-16.1044 L 94.8711,-16.4453 L 95.073,-16.7634
 L 95.3131,-17.0536 L 95.5877,-17.3115 L 95.8925,-17.533 L 96.2227,-17.7145 L 96.573,-17.8532 L 96.9379,-17.9469
 L 97.3116,-17.9941 L 97.6884,-17.9941 L 98.0621,-17.9469 L 98.427,-17.8532 L 98.7773,-17.7145 L 99.1075,-17.533
 L 99.4123,-17.3115 L 99.6869,-17.0536 L 99.927,-16.7634 L 100.129,-16.4453 L 100.289,-16.1044 L 100.406,-15.7461
 L 100.476,-15.376 L 100.5,-15 L 100.476,-14.624 L 100.406,-14.2539 L 100.289,-13.8956 L 100.129,-13.5547
 L 99.927,-13.2366 L 99.6869,-12.9464 L 99.4123,-12.6884 L 99.1075,-12.467 L 98.7773,-12.2855 L 98.427,-12.1468
 L 98.0621,-12.0531 L 97.6884,-12.0059 z
M 112.312,-12.0059 L 111.938,-12.0531 L 111.573,-12.1468 L 111.223,-12.2855 L 110.893,-12.467 L 110.588,-12.6884
 L 110.313,-12.9464 L 110.073,-13.2366 L 109.871,-13.5547 L 109.711,-13.8956 L 109.594,-14.2539 L 109.524,-14.624
 L 109.5,-15 L 109.524,-15.376 L 109.594,-15.7461 L 109.711,-16.1044 L 109.871,-16.4453 L 110.073,-16.7634
 L 110.313,-17.0536 L 110.588,-17.3115 L 110.893,-17.533 L 111.223,-17.7145 L 111.573,-17.8532 L 111.938,-17.9469
 L 112.312,-17.9941 L 112.688,-17.9941 L 113.062,-17.9469 L 113.427,-17.8532 L 113.777,-17.7145 L 114.107,-17.533
 L 114.412,-17.3115 L 114.687,-17.0536 L 114.927,-16.7634 L 115.129,-16.4453 L 115.289,-16.1044 L 115.406,-15.7461
 L 115.476,-15.376 L 115.5,-15 L 115.476,-14.624 L 115.406,-14.2539 L 115.289,-13.8956 L 115.129,-13.5547
 L 114.927,-13.2366 L 114.687,-12.9464 L 114.412,-12.6884 L 114.107,-12.467 L 113.777,-12.2855 L 113.427,-12.1468
 L 113.062,-12.0531 L 112.688,-12.0059 z
M -7.68837,-12.0059 L -8.06213,-12.0531 L -8.42705,-12.1468 L -8.77733,-12.2855 L -9.10747,-12.467 L -9.41226,-12.6884
 L -9.6869,-12.9464 L -9.92705,-13.2366 L -10.1289,-13.5547 L -10.2893,-13.8956 L -10.4057,-14.2539 L -10.4763,-14.624
 L -10.5,-15 L -10.4763,-15.376 L -10.4057,-15.7461 L -10.2893,-16.1044 L -10.1289,-16.4453 L -9.92705,-16.7634
 L -9.6869,-17.0536 L -9.41226,-17.3115 L -9.10747,-17.533 L -8.77733,-17.7145 L -8.42705,-17.8532 L -8.06213,-17.9469
 L -7.68837,-17.9941 L -7.31161,-17.9941 L -6.93785,-17.9469 L -6.57294,-17.8532 L -6.22266,-17.7145 L -5.89252,-17.533
 L -5.58772,-17.3115 L -5.31308,-17.0536 L -5.07294,-16.7634 L -4.87108,-16.4453 L -4.71066,-16.1044 L -4.59424,-15.7461
 L -4.52365,-15.376 L -4.5,-15 L -4.52365,-14.624 L -4.59424,-14.2539 L -4.71066,-13.8956 L -4.87108,-13.5547
 L -5.07294,-13.2366 L -5.31308,-12.9464 L -5.58772,-12.6884 L -5.89252,-12.467 L -6.22266,-12.2855 L -6.57294,-12.1468
 L -6.93785,-12.0531 L -7.31161,-12.0059 z
M 22.3116,-12.0059 L 21.9379,-12.0531 L 21.5729,-12.1468 L 21.2227,-12.2855 L 20.8925,-12.467 L 20.5877,-12.6884
 L 20.3131,-12.9464 L 20.0729,-13.2366 L 19.8711,-13.5547 L 19.7107,-13.8956 L 19.5942,-14.2539 L 19.5237,-14.624
 L 19.5,-15 L 19.5237,-15.376 L 19.5942,-15.7461 L 19.7107,-16.1044 L 19.8711,-16.4453 L 20.0729,-16.7634
 L 20.3131,-17.0536 L 20.5877,-17.3115 L 20.8925,-17.533 L 21.2227,-17.7145 L 21.5729,-17.8532 L 21.9379,-17.9469
 L 22.3116,-17.9941 L 22.6884,-17.9941 L 23.0621,-17.9469 L 23.427,-17.8532 L 23.7773,-17.7145 L 24.1075,-17.533
 L 24.4123,-17.3115 L 24.6869,-17.0536 L 24.927,-16.7634 L 25.1289,-16.4453 L 25.2893,-16.1044 L 25.4057,-15.7461
 L 25.4763,-15.376 L 25.5,-15 L 25.4763,-14.624 L 25.4057,-14.2539 L 25.2893,-13.8956 L 25.1289,-13.5547
 L 24.927,-13.2366 L 24.6869,-12.9464 L 24.4123,-12.6884 L 24.1075,-12.467 L 23.7773,-12.2855 L 23.427,-12.1468
 L 23.0621,-12.0531 L 22.6884,-12.0059 z
M 67.3116,-12.0059 L 66.9379,-12.0531 L 66.573,-12.1468 L 66.2227,-12.2855 L 65.8925,-12.467 L 65.5877,-12.6884
 L 65.3131,-12.9464 L 65.073,-13.2366 L 64.8711,-13.5547 L 64.7107,-13.8956 L 64.5943,-14.2539 L 64.5237,-14.624
 L 64.5,-15 L 64.5237,-15.376 L 64.5943,-15.7461 L 64.7107,-16.1044 L 64.8711,-16.4453 L 65.073,-16.7634
 L 65.3131,-17.0536 L 65.5877,-17.3115 L 65.8925,-17.533 L 66.2227,-17.7145 L 66.573,-17.8532 L 66.9379,-17.9469
 L 67.3116,-17.9941 L 67.6884,-17.9941 L 68.0621,-17.9469 L 68.427,-17.8532 L 68.7773,-17.7145 L 69.1075,-17.533
 L 69.4123,-17.3115 L 69.6869,-17.0536 L 69.927,-16.7634 L 70.1289,-16.4453 L 70.2893,-16.1044 L 70.4057,-15.7461
 L 70.4763,-15.376 L 70.5,-15 L 70.4763,-14.624 L 70.4057,-14.2539 L 70.2893,-13.8956 L 70.1289,-13.5547
 L 69.927,-13.2366 L 69.6869,-12.9464 L 69.4123,-12.6884 L 69.1075,-12.467 L 68.7773,-12.2855 L 68.427,-12.1468
 L 68.0621,-12.0531 L 67.6884,-12.0059 z
M -67.6884,-12.0059 L -68.0621,-12.0531 L -68.427,-12.1468 L -68.7773,-12.2855 L -69.1075,-12.467 L -69.4123,-12.6884
 L -69.6869,-12.9464 L -69.927,-13.2366 L -70.1289,-13.5547 L -70.2893,-13.8956 L -70.4057,-14.2539 L -70.4763,-14.624
 L -70.5,-15 L -70.4763,-15.376 L -70.4057,-15.7461 L -70.2893,-16.1044 L -70.1289,-16.4453 L -69.927,-16.7634
 L -69.6869,-17.0536 L -69.4123,-17.3115 L -69.1075,-17.533 L -68.7773,-17.7145 L -68.427,-17.8532 L -68.0621,-17.9469
 L -67.6884,-17.9941 L -67.3116,-17.9941 L -66.9379,-17.9469 L -66.573,-17.8532 L -66.2227,-17.7145 L -65.8925,-17.533
 L -65.5877,-17.3115 L -65.3131,-17.0536 L -65.073,-16.7634 L -64.8711,-16.4453 L -64.7107,-16.1044 L -64.5943,-15.7461
 L -64.5237,-15.376 L -64.5,-15 L -64.5237,-14.624 L -64.5943,-14.2539 L -64.7107,-13.8956 L -64.8711,-13.5547
 L -65.073,-13.2366 L -65.3131,-12.9464 L -65.5877,-12.6884 L -65.8925,-12.467 L -66.2227,-12.2855 L -66.573,-12.1468
 L -66.9379,-12.0531 L -67.3116,-12.0059 z
M -172.688,-12.0059 L -173.062,-12.0531 L -173.427,-12.1468 L -173.777,-12.2855 L -174.107,-12.467 L -174.412,-12.6884
 L -174.687,-12.9464 L -174.927,-13.2366 L -175.129,-13.5547 L -175.289,-13.8956 L -175.406,-14.2539 L -175.476,-14.624
 L -175.5,-15 L -175.476,-15.376 L -175.406,-15.7461 L -175.289,-16.1044 L -175.129,-16.4453 L -174.927,-16.7634
 L -174.687,-17.0536 L -174.412,-17.3115 L -174.107,-17.533 L -173.777,-17.7145 L -173.427,-17.8532 L -173.062,-17.9469
 L -172.688,-17.9941 L -172.312,-17.9941 L -171.938,-17.9469 L -171.573,-17.8532 L -171.223,-17.7145 L -170.893,-17.533
 L -170.588,-17.3115 L -170.313,-17.0536 L -170.073,-16.7634 L -169.871,-16.4453 L -169.711,-16.1044 L -169.594,-15.7461
 L -169.524,-15.376 L -169.5,-15 L -169.524,-14.624 L -169.594,-14.2539 L -169.711,-13.8956 L -169.871,-13.5547
 L -170.073,-13.2366 L -170.313,-12.9464 L -170.588,-12.6884 L -170.893,-12.467 L -171.223,-12.2855 L -171.573,-12.1468
 L -171.938,-12.0531 L -172.312,-12.0059 z
M 172.312,-12.0059 L 171.938,-12.0531 L 171.573,-12.1468 L 171.223,-12.2855 L 170.893,-12.467 L 170.588,-12.6884
 L 170.313,-12.9464 L 170.073,-13.2366 L 169.871,-13.5547 L 169.711,-13.8956 L 169.594,-14.2539 L 169.524,-14.624
 L 169.5,-15 L 169.524,-15.376 L 169.594,-15.7461 L 169.711,-16.1044 L 169.871,-16.4453 L 170.073,-16.7634
 L 170.313,-17.0536 L 170.588,-17.3115 L 170.893,-17.533 L 171.223,-17.7145 L 171.573,-17.8532 L 171.938,-17.9469
 L 172.312,-17.9941 L 172.688,-17.9941 L 173.062,-17.9469 L 173.427,-17.8532 L 173.777,-17.7145 L 174.107,-17.533
 L 174.412,-17.3115 L 174.687,-17.0536 L 174.927,-16.7634 L 175.129,-16.4453 L 175.289,-16.1044 L 175.406,-15.7461
 L 175.476,-15.376 L 175.5,-15 L 175.476,-14.624 L 175.406,-14.2539 L 175.289,-13.8956 L 175.129,-13.5547
 L 174.927,-13.2366 L 174.687,-12.9464 L 174.412,-12.6884 L 174.107,-12.467 L 173.777,-12.2855 L 173.427,-12.1468
 L 173.062,-12.0531 L 172.688,-12.0059 z
M 82.3116,-12.0059 L 81.9379,-12.0531 L 81.573,-12.1468 L 81.2227,-12.2855 L 80.8925,-12.467 L 80.5877,-12.6884
 L 80.3131,-12.9464 L 80.073,-13.2366 L 79.8711,-13.5547 L 79.7107,-13.8956 L 79.5943,-14.2539 L 79.5237,-14.624
 L 79.5,-15 L 79.5237,-15.376 L 79.5943,-15.7461 L 79.7107,-16.1044 L 79.8711,-16.4453 L 80.073,-16.7634
 L 80.3131,-17.0536 L 80.5877,-17.3115 L 80.8925,-17.533 L 81.2227,-17.7145 L 81.573,-17.8532 L 81.9379,-17.9469
 L 82.3116,-17.9941 L 82.6884,-17.9941 L 83.0621,-17.9469 L 83.427,-17.8532 L 83.7773,-17.7145 L 84.1075,-17.533
 L 84.4123,-17.3115 L 84.6869,-17.0536 L 84.927,-16.7634 L 85.1289,-16.4453 L 85.2893,-16.1044 L 85.4057,-15.7461
 L 85.4763,-15.376 L 85.5,-15 L 85.4763,-14.624 L 85.4057,-14.2539 L 85.2893,-13.8956 L 85.1289,-13.5547
 L 84.927,-13.2366 L 84.6869,-12.9464 L 84.4123,-12.6884 L 84.1075,-12.467 L 83.7773,-12.2855 L 83.427,-12.1468
 L 83.0621,-12.0531 L 82.6884,-12.0059 z
M -52.6884,-12.0059 L -53.0621,-12.0531 L -53.427,-12.1468 L -53.7773,-12.2855 L -54.1075,-12.467 L -54.4123,-12.6884
 L -54.6869,-12.9464 L -54.927,-13.2366 L -55.1289,-13.5547 L -55.2893,-13.8956 L -55.4057,-14.2539 L -55.4763,-14.624
 L -55.5,-15 L -55.4763,-15.376 L -55.4057,-15.7461 L -55.2893,-16.1044 L -55.1289,-16.4453 L -54.927,-16.7634
 L -54.6869,-17.0536 L -54.4123,-17.3115 L -54.1075,-17.533 L -53.7773,-17.7145 L -53.427,-17.8532 L -53.0621,-17.9469
 L -52.6884,-17.9941 L -52.3116,-17.9941 L -51.9379,-17.9469 L -51.5729,-17.8532 L -51.2227,-17.7145 L -50.8925,-17.533
 L -50.5877,-17.3115 L -50.3131,-17.0536 L -50.0729,-16.7634 L -49.8711,-16.4453 L -49.7107,-16.1044 L -49.5942,-15.7461
 L -49.5237,-15.376 L -49.5,-15 L -49.5237,-14.624 L -49.5942,-14.2539 L -49.7107,-13.8956 L -49.8711,-13.5547
 L -50.0729,-13.2366 L -50.3131,-12.9464 L -50.5877,-12.6884 L -50.8925,-12.467 L -51.2227,-12.2855 L -51.5729,-12.1468
 L -51.9379,-12.0531 L -52.3116,-12.0059 z
M 157.312,-12.0059 L 156.938,-12.0531 L 156.573,-12.1468 L 156.223,-12.2855 L 155.893,-12.467 L 155.588,-12.6884
 L 155.313,-12.9464 L 155.073,-13.2366 L 154.871,-13.5547 L 154.711,-13.8956 L 154.594,-14.2539 L 154.524,-14.624
 L 154.5,-15 L 154.524,-15.376 L 154.594,-15.7461 L 154.711,-16.1044 L 154.871,-16.4453 L 155.073,-16.7634
 L 155.313,-17.0536 L 155.588,-17.3115 L 155.893,-17.533 L 156.223,-17.7145 L 156.573,-17.8532 L 156.938,-17.9469
 L 157.312,-17.9941 L 157.688,-17.9941 L 158.062,-17.9469 L 158.427,-17.8532 L 158.777,-17.7145 L 159.107,-17.533
 L 159.412,-17.3115 L 159.687,-17.0536 L 159.927,-16.7634 L 160.129,-16.4453 L 160.289,-16.1044 L 160.406,-15.7461
 L 160.476,-15.376 L 160.5,-15 L 160.476,-14.624 L 160.406,-14.2539 L 160.289,-13.8956 L 160.129,-13.5547
 L 159.927,-13.2366 L 159.687,-12.9464 L 159.412,-12.6884 L 159.107,-12.467 L 158.777,-12.2855 L 158.427,-12.1468
 L 158.062,-12.0531 L 157.688,-12.0059 z
M -127.688,-12.0059 L -128.062,-12.0531 L -128.427,-12.1468 L -128.777,-12.2855 L -129.107,-12.467 L -129.412,-12.6884
 L -129.687,-12.9464 L -129.927,-13.2366 L -130.129,-13.5547 L -130.289,-13.8956 L -130.406,-14.2539 L -130.476,-14.624
 L -130.5,-15 L -130.476,-15.376 L -130.406,-15.7461 L -130.289,-16.1044 L -130.129,-16.4453 L -129.927,-16.7634
 L -129.687,-17.0536 L -129.412,-17.3115 L -129.107,-17.533 L -128.777,-17.7145 L -128.427,-17.8532 L -128.062,-17.9469
 L -127.688,-17.9941 L -127.312,-17.9941 L -126.938,-17.9469 L -126.573,-17.8532 L -126.223,-17.7145 L -125.893,-17.533
 L -125.588,-17.3115 L -125.313,-17.0536 L -125.073,-16.7634 L -124.871,-16.4453 L -124.711,-16.1044 L -124.594,-15.7461
 L -124.524,-15.376 L -124.5,-15 L -124.524,-14.624 L -124.594,-14.2539 L -124.711,-13.8956 L -124.871,-13.5547
 L -125.073,-13.2366 L -125.313,-12.9464 L -125.588,-12.6884 L -125.893,-12.467 L -126.223,-12.2855 L -126.573,-12.1468
 L -126.938,-12.0531 L -127.312,-12.0059 z
M 7.31161,-12.0059 L 6.93785,-12.0531 L 6.57294,-12.1468 L 6.22266,-12.2855 L 5.89252,-12.467 L 5.58772,-12.6884
 L 5.31308,-12.9464 L 5.07294,-13.2366 L 4.87108,-13.5547 L 4.71066,-13.8956 L 4.59424,-14.2539 L 4.52365,-14.624
 L 4.5,-15 L 4.52365,-15.376 L 4.59424,-15.7461 L 4.71066,-16.1044 L 4.87108,-16.4453 L 5.07294,-16.7634
 L 5.31308,-17.0536 L 5.58772,-17.3115 L 5.89252,-17.533 L 6.22266,-17.7145 L 6.57294,-17.8532 L 6.93785,-17.9469
 L 7.31161,-17.9941 L 7.68837,-17.9941 L 8.06213,-17.9469 L 8.42705,-17.8532 L 8.77733,-17.7145 L 9.10747,-17.533
 L 9.41226,-17.3115 L 9.6869,-17.0536 L 9.92705,-16.7634 L 10.1289,-16.4453 L 10.2893,-16.1044 L 10.4057,-15.7461
 L 10.4763,-15.376 L 10.5,-15 L 10.4763,-14.624 L 10.4057,-14.2539 L 10.2893,-13.8956 L 10.1289,-13.5547
 L 9.92705,-13.2366 L 9.6869,-12.9464 L 9.41226,-12.6884 L 9.10747,-12.467 L 8.77733,-12.2855 L 8.42705,-12.1468
 L 8.06213,-12.0531 L 7.68837,-12.0059 z
M -82.6884,-12.0059 L -83.0621,-12.0531 L -83.427,-12.1468 L -83.7773,-12.2855 L -84.1075,-12.467 L -84.4123,-12.6884
 L -84.6869,-12.9464 L -84.927,-13.2366 L -85.1289,-13.5547 L -85.2893,-13.8956 L -85.4057,-14.2539 L -85.4763,-14.624
 L -85.5,-15 L -85.4763,-15.376 L -85.4057,-15.7461 L -85.2893,-16.1044 L -85.1289,-16.4453 L -84.927,-16.7634
 L -84.6869,-17.0536 L -84.4123,-17.3115 L -84.1075,-17.533 L -83.7773,-17.7145 L -83.427,-17.8532 L -83.0621,-17.9469
 L -82.6884,-17.9941 L -82.3116,-17.9941 L -81.9379,-17.9469 L -81.573,-17.8532 L -81.2227,-17.7145 L -80.8925,-17.533
 L -80.5877,-17.3115 L -80.3131,-17.0536 L -80.073,-16.7634 L -79.8711,-16.4453 L -79.7107,-16.1044 L -79.5943,-15.7461
 L -79.5237,-15.376 L -79.5,-15 L -79.5237,-14.624 L -79.5943,-14.2539 L -79.7107,-13.8956 L -79.8711,-13.5547
 L -80.073,-13.2366 L -80.3131,-12.9464 L -80.5877,-12.6884 L -80.8925,-12.467 L -81.2227,-12.2855 L -81.573,-12.1468
 L -81.9379,-12.0531 L -82.3116,-12.0059 z
M -112.688,-12.0059 L -113.062,-12.0531 L -113.427,-12.1468 L -113.777,-12.2855 L -114.107,-12.467 L -114.412,-12.6884
 L -114.687,-12.9464 L -114.927,-13.2366 L -115.129,-13.5547 L -115.289,-13.8956 L -115.406,-14.2539 L -115.476,-14.624
 L -115.5,-15 L -115.476,-15.376 L -115.406,-15.7461 L -115.289,-16.1044 L -115.129,-16.4453 L -114.927,-16.7634
 L -114.687,-17.0536 L -114.412,-17.3115 L -114.107,-17.533 L -113.777,-17.7145 L -113.427,-17.8532 L -113.062,-17.9469
 L -112.688,-17.9941 L -112.312,-17.9941 L -111.938,-17.9469 L -111.573,-17.8532 L -111.223,-17.7145 L -110.893,-17.533
 L -110.588,-17.3115 L -110.313,-17.0536 L -110.073,-16.7634 L -109.871,-16.4453 L -109.711,-16.1044 L -109.594,-15.7461
 L -109.524,-15.376 L -109.5,-15 L -109.524,-14.624 L -109.594,-14.2539 L -109.711,-13.8956 L -109.871,-13.5547
 L -110.073,-13.2366 L -110.313,-12.9464 L -110.588,-12.6884 L -110.893,-12.467 L -111.223,-12.2855 L -111.573,-12.1468
 L -111.938,-12.0531 L -112.312,-12.0059 z
M -157.688,-12.0059 L -158.062,-12.0531 L -158.427,-12.1468 L -158.777,-12.2855 L -159.107,-12.467 L -159.412,-12.6884
 L -159.687,-12.9464 L -159.927,-13.2366 L -160.129,-13.5547 L -160.289,-13.8956 L -160.406,-14.2539 L -160.476,-14.624
 L -160.5,-15 L -160.476,-15.376 L -160.406,-15.7461 L -160.289,-16.1044 L -160.129,-16.4453 L -159.927,-16.7634
 L -159.687,-17.0536 L -159.412,-17.3115 L -159.107,-17.533 L -158.777,-17.7145 L -158.427,-17.8532 L -158.062,-17.9469
 L -157.688,-17.9941 L -157.312,-17.9941 L -156.938,-17.9469 L -156.573,-17.8532 L -156.223,-17.7145 L -155.893,-17.533
 L -155.588,-17.3115 L -155.313,-17.0536 L -155.073,-16.7634 L -154.871,-16.4453 L -154.711,-16.1044 L -154.594,-15.7461
 L -154.524,-15.376 L -154.5,-15 L -154.524,-14.624 L -154.594,-14.2539 L -154.711,-13.8956 L -154.871,-13.5547
 L -155.073,-13.2366 L -155.313,-12.9464 L -155.588,-12.6884 L -155.893,-12.467 L -156.223,-12.2855 L -156.573,-12.1468
 L -156.938,-12.0531 L -157.312,-12.0059 z
M -22.6884,-12.0059 L -23.0621,-12.0531 L -23.427,-12.1468 L -23.7773,-12.2855 L -24.1075,-12.467 L -24.4123,-12.6884
 L -24.6869,-12.9464 L -24.927,-13.2366 L -25.1289,-13.5547 L -25.2893,-13.8956 L -25.4057,-14.2539 L -25.4763,-14.624
 L -25.5,-15 L -25.4763,-15.376 L -25.4057,-15.7461 L -25.2893,-16.1044 L -25.1289,-16.4453 L -24.927,-16.7634
 L -24.6869,-17.0536 L -24.4123,-17.3115 L -24.1075,-17.533 L -23.7773,-17.7145 L -23.427,-17.8532 L -23.0621,-17.9469
 L -22.6884,-17.9941 L -22.3116,-17.9941 L -21.9379,-17.9469 L -21.5729,-17.8532 L -21.2227,-17.7145 L -20.8925,-17.533
 L -20.5877,-17.3115 L -20.3131,-17.0536 L -20.0729,-16.7634 L -19.8711,-16.4453 L -19.7107,-16.1044 L -19.5942,-15.7461
 L -19.5237,-15.376 L -19.5,-15 L -19.5237,-14.624 L -19.5942,-14.2539 L -19.7107,-13.8956 L -19.8711,-13.5547
 L -20.0729,-13.2366 L -20.3131,-12.9464 L -20.5877,-12.6884 L -20.8925,-12.467 L -21.2227,-12.2855 L -21.5729,-12.1468
 L -21.9379,-12.0531 L -22.3116,-12.0059 z
M 52.3116,-12.0059 L 51.9379,-12.0531 L 51.5729,-12.1468 L 51.2227,-12.2855 L 50.8925,-12.467 L 50.5877,-12.6884
 L 50.3131,-12.9464 L 50.0729,-13.2366 L 49.8711,-13.5547 L 49.7107,-13.8956 L 49.5942,-14.2539 L 49.5237,-14.624
 L 49.5,-15 L 49.5237,-15.376 L 49.5942,-15.7461 L 49.7107,-16.1044 L 49.8711,-16.4453 L 50.0729,-16.7634
 L 50.3131,-17.0536 L 50.5877,-17.3115 L 50.8925,-17.533 L 51.2227,-17.7145 L 51.5729,-17.8532 L 51.9379,-17.9469
 L 52.3116,-17.9941 L 52.6884,-17.9941 L 53.0621,-17.9469 L 53.427,-17.8532 L 53.7773,-17.7145 L 54.1075,-17.533
 L 54.4123,-17.3115 L 54.6869,-17.0536 L 54.927,-16.7634 L 55.1289,-16.4453 L 55.2893,-16.1044 L 55.4057,-15.7461
 L 55.4763,-15.376 L 55.5,-15 L 55.4763,-14.624 L 55.4057,-14.2539 L 55.2893,-13.8956 L 55.1289,-13.5547
 L 54.927,-13.2366 L 54.6869,-12.9464 L 54.4123,-12.6884 L 54.1075,-12.467 L 53.7773,-12.2855 L 53.427,-12.1468
 L 53.0621,-12.0531 L 52.6884,-12.0059 z
M -97.6884,-12.0059 L -98.0621,-12.0531 L -98.427,-12.1468 L -98.7773,-12.2855 L -99.1075,-12.467 L -99.4123,-12.6884
 L -99.6869,-12.9464 L -99.927,-13.2366 L -100.129,-13.5547 L -100.289,-13.8956 L -100.406,-14.2539 L -100.476,-14.624
 L -100.5,-15 L -100.476,-15.376 L -100.406,-15.7461 L -100.289,-16.1044 L -100.129,-16.4453 L -99.927,-16.7634
 L -99.6869,-17.0536 L -99.4123,-17.3115 L -99.1075,-17.533 L -98.7773,-17.7145 L -98.427,-17.8532 L -98.0621,-17.9469
 L -97.6884,-17.9941 L -97.3116,-17.9941 L -96.9379,-17.9469 L -96.573,-17.8532 L -96.2227,-17.7145 L -95.8925,-17.533
 L -95.5877,-17.3115 L -95.3131,-17.0536 L -95.073,-16.7634 L -94.8711,-16.4453 L -94.7107,-16.1044 L -94.5943,-15.7461
 L -94.5237,-15.376 L -94.5,-15 L -94.5237,-14.624 L -94.5943,-14.2539 L -94.7107,-13.8956 L -94.8711,-13.5547
 L -95.073,-13.2366 L -95.3131,-12.9464 L -95.5877,-12.6884 L -95.8925,-12.467 L -96.2227,-12.2855 L -96.573,-12.1468
 L -96.9379,-12.0531 L -97.3116,-12.0059 z
M -142.688,-12.0059 L -143.062,-12.0531 L -143.427,-12.1468 L -143.777,-12.2855 L -144.107,-12.467 L -144.412,-12.6884
 L -144.687,-12.9464 L -144.927,-13.2366 L -145.129,-13.5547 L -145.289,-13.8956 L -145.406,-14.2539 L -145.476,-14.624
 L -145.5,-15 L -145.476,-15.376 L -145.406,-15.7461 L -145.289,-16.1044 L -145.129,-16.4453 L -144.927,-16.7634
 L -144.687,-17.0536 L -144.412,-17.3115 L -144.107,-17.533 L -143.777,-17.7145 L -143.427,-17.8532 L -143.062,-17.9469
 L -142.688,-17.9941 L -142.312,-17.9941 L -141.938,-17.9469 L -141.573,-17.8532 L -141.223,-17.7145 L -140.893,-17.533
 L -140.588,-17.3115 L -140.313,-17.0536 L -140.073,-16.7634 L -139.871,-16.4453 L -139.711,-16.1044 L -139.594,-15.7461
 L -139.524,-15.376 L -139.5,-15 L -139.524,-14.624 L -139.594,-14.2539 L -139.711,-13.8956 L -139.871,-13.5547
 L -140.073,-13.2366 L -140.313,-12.9464 L -140.588,-12.6884 L -140.893,-12.467 L -141.223,-12.2855 L -141.573,-12.1468
 L -141.938,-12.0531 L -142.312,-12.0059 z
M 37.3116,-12.0059 L 36.9379,-12.0531 L 36.5729,-12.1468 L 36.2227,-12.2855 L 35.8925,-12.467 L 35.5877,-12.6884
 L 35.3131,-12.9464 L 35.0729,-13.2366 L 34.8711,-13.5547 L 34.7107,-13.8956 L 34.5942,-14.2539 L 34.5237,-14.624
 L 34.5,-15 L 34.5237,-15.376 L 34.5942,-15.7461 L 34.7107,-16.1044 L 34.8711,-16.4453 L 35.0729,-16.7634
 L 35.3131,-17.0536 L 35.5877,-17.3115 L 35.8925,-17.533 L 36.2227,-17.7145 L 36.5729,-17.8532 L 36.9379,-17.9469
 L 37.3116,-17.9941 L 37.6884,-17.9941 L 38.0621,-17.9469 L 38.427,-17.8532 L 38.7773,-17.7145 L 39.1075,-17.533
 L 39.4123,-17.3115 L 39.6869,-17.0536 L 39.927,-16.7634 L 40.1289,-16.4453 L 40.2893,-16.1044 L 40.4057,-15.7461
 L 40.4763,-15.376 L 40.5,-15 L 40.4763,-14.624 L 40.4057,-14.2539 L 40.2893,-13.8956 L 40.1289,-13.5547
 L 39.927,-13.2366 L 39.6869,-12.9464 L 39.4123,-12.6884 L 39.1075,-12.467 L 38.7773,-12.2855 L 38.427,-12.1468
 L 38.0621,-12.0531 L 37.6884,-12.0059 z
M 142.312,-12.0059 L 141.938,-12.0531 L 141.573,-12.1468 L 141.223,-12.2855 L 140.893,-12.467 L 140.588,-12.6884
 L 140.313,-12.9464 L 140.073,-13.2366 L 139.871,-13.5547 L 139.711,-13.8956 L 139.594,-14.2539 L 139.524,-14.624
 L 139.5,-15 L 139.524,-15.376 L 139.594,-15.7461 L 139.711,-16.1044 L 139.871,-16.4453 L 140.073,-16.7634
 L 140.313,-17.0536 L 140.588,-17.3115 L 140.893,-17.533 L 141.223,-17.7145 L 141.573,-17.8532 L 141.938,-17.9469
 L 142.312,-17.9941 L 142.688,-17.9941 L 143.062,-17.9469 L 143.427,-17.8532 L 143.777,-17.7145 L 144.107,-17.533
 L 144.412,-17.3115 L 144.687,-17.0536 L 144.927,-16.7634 L 145.129,-16.4453 L 145.289,-16.1044 L 145.406,-15.7461
 L 145.476,-15.376 L 145.5,-15 L 145.476,-14.624 L 145.406,-14.2539 L 145.289,-13.8956 L 145.129,-13.5547
 L 144.927,-13.2366 L 144.687,-12.9464 L 144.412,-12.6884 L 144.107,-12.467 L 143.777,-12.2855 L 143.427,-12.1468
 L 143.062,-12.0531 L 142.688,-12.0059 z
M -112.688,2.99408 L -113.062,2.94685 L -113.427,2.85316 L -113.777,2.71448 L -114.107,2.53297 L -114.412,2.31154
 L -114.687,2.05363 L -114.927,1.76335 L -115.129,1.44525 L -115.289,1.10437 L -115.406,0.746063 L -115.476,0.375992
 L -115.5,-0 L -115.476,-0.375992 L -115.406,-0.746063 L -115.289,-1.10437 L -115.129,-1.44525 L -114.927,-1.76335
 L -114.687,-2.05363 L -114.412,-2.31154 L -114.107,-2.53297 L -113.777,-2.71448 L -113.427,-2.85316 L -113.062,-2.94685
 L -112.688,-2.99408 L -112.312,-2.99408 L -111.938,-2.94685 L -111.573,-2.85316 L -111.223,-2.71448 L -110.893,-2.53297
 L -110.588,-2.31154 L -110.313,-2.05363 L -110.073,-1.76335 L -109.871,-1.44525 L -109.711,-1.10437 L -109.594,-0.746063
 L -109.524,-0.375992 L -109.5,-0 L -109.524,0.375992 L -109.594,0.746063 L -109.711,1.10437 L -109.871,1.44525
 L -110.073,1.76335 L -110.313,2.05363 L -110.588,2.31154 L -110.893,2.53297 L -111.223,2.71448 L -111.573,2.85316
 L -111.938,2.94685 L -112.312,2.99408 z
M -142.688,2.99408 L -143.062,2.94685 L -143.427,2.85316 L -143.777,2.71448 L -144.107,2.53297 L -144.412,2.31154
 L -144.687,2.05363 L -144.927,1.76335 L -145.129,1.44525 L -145.289,1.10437 L -145.406,0.746063 L -145.476,0.375992
 L -145.5,-0 L -145.476,-0.375992 L -145.406,-0.746063 L -145.289,-1.10437 L -145.129,-1.44525 L -144.927,-1.76335
 L -144.687,-2.05363 L -144.412,-2.31154 L -144.107,-2.53297 L -143.777,-2.71448 L -143.427,-2.85316 L -143.062,-2.94685
 L -142.688,-2.99408 L -142.312,-2.99408 L -141.938,-2.94685 L -141.573,-2.85316 L -141.223,-2.71448 L -140.893,-2.53297
 L -140.588,-2.31154 L -140.313,-2.05363 L -140.073,-1.76335 L -139.871,-1.44525 L -139.711,-1.10437 L -139.594,-0.746063
 L -139.524,-0.375992 L -139.5,-0 L -139.524,0.375992 L -139.594,0.746063 L -139.711,1.10437 L -139.871,1.44525
 L -140.073,1.76335 L -140.313,2.05363 L -140.588,2.31154 L -140.893,2.53297 L -141.223,2.71448 L -141.573,2.85316
 L -141.938,2.94685 L -142.312,2.99408 z
M -22.6884,2.99408 L -23.0621,2.94685 L -23.427,2.85316 L -23.7773,2.71448 L -24.1075,2.53297 L -24.4123,2.31154
 L -24.6869,2.05363 L -24.927,1.76335 L -25.1289,1.44525 L -25.2893,1.10437 L -25.4057,0.746063 L -25.4763,0.375992
 L -25.5,-0 L -25.4763,-0.375992 L -25.4057,-0.746063 L -25.2893,-1.10437 L -25.1289,-1.44525 L -24.927,-1.76335
 L -24.6869,-2.05363 L -24.4123,-2.31154 L -24.1075,-2.53297 L -23.7773,-2.71448 L -23.427,-2.85316 L -23.0621,-2.94685
 L -22.6884,-2.99408 L -22.3116,-2.99408 L -21.9379,-2.94685 L -21.5729,-2.85316 L -21.2227,-2.71448 L -20.8925,-2.53297
 L -20.5877,-2.31154 L -20.3131,-2.05363 L -20.0729,-1.76335 L -19.8711,-1.44525 L -19.7107,-1.10437 L -19.5942,-0.746063
 L -19.5237,-0.375992 L -19.5,-0 L -19.5237,0.375992 L -19.5942,0.746063 L -19.7107,1.10437 L -19.8711,1.44525
 L -20.0729,1.76335 L -20.3131,2.05363 L -20.5877,2.31154 L -20.8925,2.53297 L -21.2227,2.71448 L -21.5729,2.85316
 L -21.9379,2.94685 L -22.3116,2.99408 z
M -67.6884,2.99408 L -68.0621,2.94685 L -68.427,2.85316 L -68.7773,2.71448 L -69.1075,2.53297 L -69.4123,2.31154
 L -69.6869,2.05363 L -69.927,1.76335 L -70.1289,1.44525 L -70.2893,1.10437 L -70.4057,0.746063 L -70.4763,0.375992
 L -70.5,-0 L -70.4763,-0.375992 L -70.4057,-0.746063 L -70.2893,-1.10437 L -70.1289,-1.44525 L -69.927,-1.76335
 L -69.6869,-2.05363 L -69.4123,-2.31154 L -69.1075,-2.53297 L -68.7773,-2.71448 L -68.427,-2.85316 L -68.0621,-2.94685
 L -67.6884,-2.99408 L -67.3116,-2.99408 L -66.9379,-2.94685 L -66.573,-2.85316 L -66.2227,-2.71448 L -65.8925,-2.53297
 L -65.5877,-2.31154 L -65.3131,-2.05363 L -65.073,-1.76335 L -64.8711,-1.44525 L -64.7107,-1.10437 L -64.5943,-0.746063
 L -64.5237,-0.375992 L -64.5,-0 L -64.5237,0.375992 L -64.5943,0.746063 L -64.7107,1.10437 L -64.8711,1.44525
 L -65.073,1.76335 L -65.3131,2.05363 L -65.5877,2.31154 L -65.8925,2.53297 L -66.2227,2.71448 L -66.573,2.85316
 L -66.9379,2.94685 L -67.3116,2.99408 z
M -82.6884,2.99408 L -83.0621,2.94685 L -83.427,2.85316 L -83.7773,2.71448 L -84.1075,2.53297 L -84.4123,2.31154
 L -84.6869,2.05363 L -84.927,1.76335 L -85.1289,1.44525 L -85.2893,1.10437 L -85.4057,0.746063 L -85.4763,0.375992
 L -85.5,-0 L -85.4763,-0.375992 L -85.4057,-0.746063 L -85.2893,-1.10437 L -85.1289,-1.44525 L -84.927,-1.76335
 L -84.6869,-2.05363 L -84.4123,-2.31154 L -84.1075,-2.53297 L -83.7773,-2.71448 L -83.427,-2.85316 L -83.0621,-2.94685
 L -82.6884,-2.99408 L -82.3116,-2.99408 L -81.9379,-2.94685 L -81.573,-2.85316 L -81.2227,-2.71448 L -80.8925,-2.53297
 L -80.5877,-2.31154 L -80.3131,-2.05363 L -80.073,-1.76335 L -79.8711,-1.44525 L -79.7107,-1.10437 L -79.5943,-0.746063
 L -79.5237,-0.375992 L -79.5,-0 L -79.5237,0.375992 L -79.5943,0.746063 L -79.7107,1.10437 L -79.8711,1.44525
 L -80.073,1.76335 L -80.3131,2.05363 L -80.5877,2.31154 L -80.8925,2.53297 L -81.2227,2.71448 L -81.573,2.85316
 L -81.9379,2.94685 L -82.3116,2.99408 z
M 97.3116,2.99408 L 96.9379,2.94685 L 96.573,2.85316 L 96.2227,2.71448 L 95.8925,2.53297 L 95.5877,2.31154
 L 95.3131,2.05363 L 95.073,1.76335 L 94.8711,1.44525 L 94.7107,1.10437 L 94.5943,0.746063 L 94.5237,0.375992
 L 94.5,-0 L 94.5237,-0.375992 L 94.5943,-0.746063 L 94.7107,-1.10437 L 94.8711,-1.44525 L 95.073,-1.76335
 L 95.3131,-2.05363 L 95.5877,-2.31154 L 95.8925,-2.53297 L 96.2227,-2.71448 L 96.573,-2.85316 L 96.9379,-2.94685
 L 97.3116,-2.99408 L 97.6884,-2.99408 L 98.0621,-2.94685 L 98.427,-2.85316 L 98.7773,-2.71448 L 99.1075,-2.53297
 L 99.4123,-2.31154 L 99.6869,-2.05363 L 99.927,-1.76335 L 100.129,-1.44525 L 100.289,-1.10437 L 100.406,-0.746063
 L 100.476,-0.375992 L 100.5,-0 L 100.476,0.375992 L 100.406,0.746063 L 100.289,1.10437 L 100.129,1.44525
 L 99.927,1.76335 L 99.6869,2.05363 L 99.4123,2.31154 L 99.1075,2.53297 L 98.7773,2.71448 L 98.427,2.85316
 L 98.0621,2.94685 L 97.6884,2.99408 z
M 37.3116,2.99408 L 36.9379,2.94685 L 36.5729,2.85316 L 36.2227,2.71448 L 35.8925,2.53297 L 35.5877,2.31154
 L 35.3131,2.05363 L 35.0729,1.76335 L 34.8711,1.44525 L 34.7107,1.10437 L 34.5942,0.746063 L 34.5237,0.375992
 L 34.5,-0 L 34.5237,-0.375992 L 34.5942,-0.746063 L 34.7107,-1.10437 L 34.8711,-1.44525 L 35.0729,-1.76335
 L 35.3131,-2.05363 L 35.5877,-2.31154 L 35.8925,-2.53297 L 36.2227,-2.71448 L 36.5729,-2.85316 L 36.9379,-2.94685
 L 37.3116,-2.99408 L 37.6884,-2.99408 L 38.0621,-2.94685 L 38.427,-2.85316 L 38.7773,-2.71448 L 39.1075,-2.53297
 L 39.4123,-2.31154 L 39.6869,-2.05363 L 39.927,-1.76335 L 40.1289,-1.44525 L 40.2893,-1.10437 L 40.4057,-0.746063
 L 40.4763,-0.375992 L 40.5,-0 L 40.4763,0.375992 L 40.4057,0.746063 L 40.2893,1.10437 L 40.1289,1.44525
 L 39.927,1.76335 L 39.6869,2.05363 L 39.4123,2.31154 L 39.1075,2.53297 L 38.7773,2.71448 L 38.427,2.85316
 L 38.0621,2.94685 L 37.6884,2.99408 z
M 112.312,2.99408 L 111.938,2.94685 L 111.573,2.85316 L 111.223,2.71448 L 110.893,2.53297 L 110.588,2.31154
 L 110.313,2.05363 L 110.073,1.76335 L 109.871,1.44525 L 109.711,1.10437 L 109.594,0.746063 L 109.524,0.375992
 L 109.5,-0 L 109.524,-0.375992 L 109.594,-0.746063 L 109.711,-1.10437 L 109.871,-1.44525 L 110.073,-1.76335
 L 110.313,-2.05363 L 110.588,-2.31154 L 110.893,-2.53297 L 111.223,-2.71448 L 111.573,-2.85316 L 111.938,-2.94685
 L 112.312,-2.99408 L 112.688,-2.99408 L 113.062,-2.94685 L 113.427,-2.85316 L 113.777,-2.71448 L 114.107,-2.53297
 L 114.412,-2.31154 L 114.687,-2.05363 L 114.927,-1.76335 L 115.129,-1.44525 L 115.289,-1.10437 L 115.406,-0.746063
 L 115.476,-0.375992 L 115.5,-0 L 115.476,0.375992 L 115.406,0.746063 L 115.289,1.10437 L 115.129,1.44525
 L 114.927,1.76335 L 114.687,2.05363 L 114.412,2.31154 L 114.107,2.53297 L 113.777,2.71448 L 113.427,2.85316
 L 113.062,2.94685 L 112.688,2.99408 z
M 127.312,2.99408 L 126.938,2.94685 L 126.573,2.85316 L 126.223,2.71448 L 125.893,2.53297 L 125.588,2.31154
 L 125.313,2.05363 L 125.073,1.76335 L 124.871,1.44525 L 124.711,1.10437 L 124.594,0.746063 L 124.524,0.375992
 L 124.5,-0 L 124.524,-0.375992 L 124.594,-0.746063 L 124.711,-1.10437 L 124.871,-1.44525 L 125.073,-1.76335
 L 125.313,-2.05363 L 125.588,-2.31154 L 125.893,-2.53297 L 126.223,-2.71448 L 126.573,-2.85316 L 126.938,-2.94685
 L 127.312,-2.99408 L 127.688,-2.99408 L 128.062,-2.94685 L 128.427,-2.85316 L 128.777,-2.71448 L 129.107,-2.53297
 L 129.412,-2.31154 L 129.687,-2.05363 L 129.927,-1.76335 L 130.129,-1.44525 L 130.289,-1.10437 L 130.406,-0.746063
 L 130.476,-0.375992 L 130.5,-0 L 130.476,0.375992 L 130.406,0.746063 L 130.289,1.10437 L 130.129,1.44525
 L 129.927,1.76335 L 129.687,2.05363 L 129.412,2.31154 L 129.107,2.53297 L 128.777,2.71448 L 128.427,2.85316
 L 128.062,2.94685 L 127.688,2.99408 z
M -172.688,2.99408 L -173.062,2.94685 L -173.427,2.85316 L -173.777,2.71448 L -174.107,2.53297 L -174.412,2.31154
 L -174.687,2.05363 L -174.927,1.76335 L -175.129,1.44525 L -175.289,1.10437 L -175.406,0.746063 L -175.476,0.375992
 L -175.5,-0 L -175.476,-0.375992 L -175.406,-0.746063 L -175.289,-1.10437 L -175.129,-1.44525 L -174.927,-1.76335
 L -174.687,-2.05363 L -174.412,-2.31154 L -174.107,-2.53297 L -173.777,-2.71448 L -173.427,-2.85316 L -173.062,-2.94685
 L -172.688,-2.99408 L -172.312,-2.99408 L -171.938,-2.94685 L -171.573,-2.85316 L -171.223,-2.71448 L -170.893,-2.53297
 L -170.588,-2.31154 L -170.313,-2.05363 L -170.073,-1.76335 L -169.871,-1.44525 L -169.711,-1.10437 L -169.594,-0.746063
 L -169.524,-0.375992 L -169.5,-0 L -169.524,0.375992 L -169.594,0.746063 L -169.711,1.10437 L -169.871,1.44525
 L -170.073,1.76335 L -170.313,2.05363 L -170.588,2.31154 L -170.893,2.53297 L -171.223,2.71448 L -171.573,2.85316
 L -171.938,2.94685 L -172.312,2.99408 z
M 172.312,2.99408 L 171.938,2.94685 L 171.573,2.85316 L 171.223,2.71448 L 170.893,2.53297 L 170.588,2.31154
 L 170.313,2.05363 L 170.073,1.76335 L 169.871,1.44525 L 169.711,1.10437 L 169.594,0.746063 L 169.524,0.375992
 L 169.5,-0 L 169.524,-0.375992 L 169.594,-0.746063 L 169.711,-1.10437 L 169.871,-1.44525 L 170.073,-1.76335
 L 170.313,-2.05363 L 170.588,-2.31154 L 170.893,-2.53297 L 171.223,-2.71448 L 171.573,-2.85316 L 171.938,-2.94685
 L 172.312,-2.99408 L 172.688,-2.99408 L 173.062,-2.94685 L 173.427,-2.85316 L 173.777,-2.71448 L 174.107,-2.53297
 L 174.412,-2.31154 L 174.687,-2.05363 L 174.927,-1.76335 L 175.129,-1.44525 L 175.289,-1.10437 L 175.406,-0.746063
 L 175.476,-0.375992 L 175.5,-0 L 175.476,0.375992 L 175.406,0.746063 L 175.289,1.10437 L 175.129,1.44525
 L 174.927,1.76335 L 174.687,2.05363 L 174.412,2.31154 L 174.107,2.53297 L 173.777,2.71448 L 173.427,2.85316
 L 173.062,2.94685 L 172.688,2.99408 z
M -37.6884,2.99408 L -38.0621,2.94685 L -38.427,2.85316 L -38.7773,2.71448 L -39.1075,2.53297 L -39.4123,2.31154
 L -39.6869,2.05363 L -39.927,1.76335 L -40.1289,1.44525 L -40.2893,1.10437 L -40.4057,0.746063 L -40.4763,0.375992
 L -40.5,-0 L -40.4763,-0.375992 L -40.4057,-0.746063 L -40.2893,-1.10437 L -40.1289,-1.44525 L -39.927,-1.76335
 L -39.6869,-2.05363 L -39.4123,-2.31154 L -39.1075,-2.53297 L -38.7773,-2.71448 L -38.427,-2.85316 L -38.0621,-2.94685
 L -37.6884,-2.99408 L -37.3116,-2.99408 L -36.9379,-2.94685 L -36.5729,-2.85316 L -36.2227,-2.71448 L -35.8925,-2.53297
 L -35.5877,-2.31154 L -35.3131,-2.05363 L -35.0729,-1.76335 L -34.8711,-1.44525 L -34.7107,-1.10437 L -34.5942,-0.746063
 L -34.5237,-0.375992 L -34.5,-0 L -34.5237,0.375992 L -34.5942,0.746063 L -34.7107,1.10437 L -34.8711,1.44525
 L -35.0729,1.76335 L -35.3131,2.05363 L -35.5877,2.31154 L -35.8925,2.53297 L -36.2227,2.71448 L -36.5729,2.85316
 L -36.9379,2.94685 L -37.3116,2.99408 z
M -157.688,2.99408 L -158.062,2.94685 L -158.427,2.85316 L -158.777,2.71448 L -159.107,2.53297 L -159.412,2.31154
 L -159.687,2.05363 L -159.927,1.76335 L -160.129,1.44525 L -160.289,1.10437 L -160.406,0.746063 L -160.476,0.375992
 L -160.5,-0 L -160.476,-0.375992 L -160.406,-0.746063 L -160.289,-1.10437 L -160.129,-1.44525 L -159.927,-1.76335
 L -159.687,-2.05363 L -159.412,-2.31154 L -159.107,-2.53297 L -158.777,-2.71448 L -158.427,-2.85316 L -158.062,-2.94685
 L -157.688,-2.99408 L -157.312,-2.99408 L -156.938,-2.94685 L -156.573,-2.85316 L -156.223,-2.71448 L -155.893,-2.53297
 L -155.588,-2.31154 L -155.313,-2.05363 L -155.073,-1.76335 L -154.871,-1.44525 L -154.711,-1.10437 L -154.594,-0.746063
 L -154.524,-0.375992 L -154.5,-0 L -154.524,0.375992 L -154.594,0.746063 L -154.711,1.10437 L -154.871,1.44525
 L -155.073,1.76335 L -155.313,2.05363 L -155.588,2.31154 L -155.893,2.53297 L -156.223,2.71448 L -156.573,2.85316
 L -156.938,2.94685 L -157.312,2.99408 z
M 142.312,2.99408 L 141.938,2.94685 L 141.573,2.85316 L 141.223,2.71448 L 140.893,2.53297 L 140.588,2.31154
 L 140.313,2.05363 L 140.073,1.76335 L 139.871,1.44525 L 139.711,1.10437 L 139.594,0.746063 L 139.524,0.375992
 L 139.5,-0 L 139.524,-0.375992 L 139.594,-0.746063 L 139.711,-1.10437 L 139.871,-1.44525 L 140.073,-1.76335
 L 140.313,-2.05363 L 140.588,-2.31154 L 140.893,-2.53297 L 141.223,-2.71448 L 141.573,-2.85316 L 141.938,-2.94685
 L 142.312,-2.99408 L 142.688,-2.99408 L 143.062,-2.94685 L 143.427,-2.85316 L 143.777,-2.71448 L 144.107,-2.53297
 L 144.412,-2.31154 L 144.687,-2.05363 L 144.927,-1.76335 L 145.129,-1.44525 L 145.289,-1.10437 L 145.406,-0.746063
 L 145.476,-0.375992 L 145.5,-0 L 145.476,0.375992 L 145.406,0.746063 L 145.289,1.10437 L 145.129,1.44525
 L 144.927,1.76335 L 144.687,2.05363 L 144.412,2.31154 L 144.107,2.53297 L 143.777,2.71448 L 143.427,2.85316
 L 143.062,2.94685 L 142.688,2.99408 z
M 4.87108,1.44525 L 4.71066,1.10437 L 4.59424,0.746063 L 4.52365,0.375992 L 4.5,-0 L 4.52365,-0.375992
 L 4.59424,-0.746063 L 4.71066,-1.10437 L 4.87108,-1.44525 L 5.07294,-1.76335 L 5.31308,-2.05363 L 5.58772,-2.31154
 L 5.89252,-2.53297 L 6.22266,-2.71448 L 6.57294,-2.85316 L 6.93785,-2.94685 L 7.31161,-2.99408 L 7.68837,-2.99408
 L 8.06213,-2.94685 L 8.42705,-2.85316 L 8.77733,-2.71448 L 9.10747,-2.53297 L 9.41226,-2.31154 L 9.6869,-2.05363
 L 9.92705,-1.76335 L 10.1289,-1.44525 L 10.2893,-1.10437 L 10.4057,-0.746063 L 10.4763,-0.375992 L 10.5,-0
 L 10.4763,0.375992 L 10.4057,0.746063 L 10.2893,1.10437 L 10.1289,1.44525 L 9.92705,1.76335 L 9.6869,2.05363
 L 9.41226,2.31154 L 9.10747,2.53297 L 8.77733,2.71448 L 8.42705,2.85316 L 8.06213,2.94685 L 7.68837,2.99408
 L 7.31161,2.99408 L 6.93785,2.94685 L 6.57294,2.85316 L 6.22266,2.71448 L 5.89252,2.53297 L 5.58772,2.31154
 L 5.31308,2.05363 L 5.07294,1.76335 z
M -127.688,2.99408 L -128.062,2.94685 L -128.427,2.85316 L -128.777,2.71448 L -129.107,2.53297 L -129.412,2.31154
 L -129.687,2.05363 L -129.927,1.76335 L -130.129,1.44525 L -130.289,1.10437 L -130.406,0.746063 L -130.476,0.375992
 L -130.5,-0 L -130.476,-0.375992 L -130.406,-0.746063 L -130.289,-1.10437 L -130.129,-1.44525 L -129.927,-1.76335
 L -129.687,-2.05363 L -129.412,-2.31154 L -129.107,-2.53297 L -128.777,-2.71448 L -128.427,-2.85316 L -128.062,-2.94685
 L -127.688,-2.99408 L -127.312,-2.99408 L -126.938,-2.94685 L -126.573,-2.85316 L -126.223,-2.71448 L -125.893,-2.53297
 L -125.588,-2.31154 L -125.313,-2.05363 L -125.073,-1.76335 L -124.871,-1.44525 L -124.711,-1.10437 L -124.594,-0.746063
 L -124.524,-0.375992 L -124.5,-0 L -124.524,0.375992 L -124.594,0.746063 L -124.711,1.10437 L -124.871,1.44525
 L -125.073,1.76335 L -125.313,2.05363 L -125.588,2.31154 L -125.893,2.53297 L -126.223,2.71448 L -126.573,2.85316
 L -126.938,2.94685 L -127.312,2.99408 z
M 22.3116,2.99408 L 21.9379,2.94685 L 21.5729,2.85316 L 21.2227,2.71448 L 20.8925,2.53297 L 20.5877,2.31154
 L 20.3131,2.05363 L 20.0729,1.76335 L 19.8711,1.44525 L 19.7107,1.10437 L 19.5942,0.746063 L 19.5237,0.375992
 L 19.5,-0 L 19.5237,-0.375992 L 19.5942,-0.746063 L 19.7107,-1.10437 L 19.8711,-1.44525 L 20.0729,-1.76335
 L 20.3131,-2.05363 L 20.5877,-2.31154 L 20.8925,-2.53297 L 21.2227,-2.71448 L 21.5729,-2.85316 L 21.9379,-2.94685
 L 22.3116,-2.99408 L 22.6884,-2.99408 L 23.0621,-2.94685 L 23.427,-2.85316 L 23.7773,-2.71448 L 24.1075,-2.53297
 L 24.4123,-2.31154 L 24.6869,-2.05363 L 24.927,-1.76335 L 25.1289,-1.44525 L 25.2893,-1.10437 L 25.4057,-0.746063
 L 25.4763,-0.375992 L 25.5,-0 L 25.4763,0.375992 L 25.4057,0.746063 L 25.2893,1.10437 L 25.1289,1.44525
 L 24.927,1.76335 L 24.6869,2.05363 L 24.4123,2.31154 L 24.1075,2.53297 L 23.7773,2.71448 L 23.427,2.85316
 L 23.0621,2.94685 L 22.6884,2.99408 z
M 157.312,2.99408 L 156.938,2.94685 L 156.573,2.85316 L 156.223,2.71448 L 155.893,2.53297 L 155.588,2.31154
 L 155.313,2.05363 L 155.073,1.76335 L 154.871,1.44525 L 154.711,1.10437 L 154.594,0.746063 L 154.524,0.375992
 L 154.5,-0 L 154.524,-0.375992 L 154.594,-0.746063 L 154.711,-1.10437 L 154.871,-1.44525 L 155.073,-1.76335
 L 155.313,-2.05363 L 155.588,-2.31154 L 155.893,-2.53297 L 156.223,-2.71448 L 156.573,-2.85316 L 156.938,-2.94685
 L 157.312,-2.99408 L 157.688,-2.99408 L 158.062,-2.94685 L 158.427,-2.85316 L 158.777,-2.71448 L 159.107,-2.53297
 L 159.412,-2.31154 L 159.687,-2.05363 L 159.927,-1.76335 L 160.129,-1.44525 L 160.289,-1.10437 L 160.406,-0.746063
 L 160.476,-0.375992 L 160.5,-0 L 160.476,0.375992 L 160.406,0.746063 L 160.289,1.10437 L 160.129,1.44525
 L 159.927,1.76335 L 159.687,2.05363 L 159.412,2.31154 L 159.107,2.53297 L 158.777,2.71448 L 158.427,2.85316
 L 158.062,2.94685 L 157.688,2.99408 z
M -97.6884,2.99408 L -98.0621,2.94685 L -98.427,2.85316 L -98.7773,2.71448 L -99.1075,2.53297 L -99.4123,2.31154
 L -99.6869,2.05363 L -99.927,1.76335 L -100.129,1.44525 L -100.289,1.10437 L -100.406,0.746063 L -100.476,0.375992
 L -100.5,-0 L -100.476,-0.375992 L -100.406,-0.746063 L -100.289,-1.10437 L -100.129,-1.44525 L -99.927,-1.76335
 L -99.6869,-2.05363 L -99.4123,-2.31154 L -99.1075,-2.53297 L -98.7773,-2.71448 L -98.427,-2.85316 L -98.0621,-2.94685
 L -97.6884,-2.99408 L -97.3116,-2.99408 L -96.9379,-2.94685 L -96.573,-2.85316 L -96.2227,-2.71448 L -95.8925,-2.53297
 L -95.5877,-2.31154 L -95.3131,-2.05363 L -95.073,-1.76335 L -94.8711,-1.44525 L -94.7107,-1.10437 L -94.5943,-0.746063
 L -94.5237,-0.375992 L -94.5,-0 L -94.5237,0.375992 L -94.5943,0.746063 L -94.7107,1.10437 L -94.8711,1.44525
 L -95.073,1.76335 L -95.3131,2.05363 L -95.5877,2.31154 L -95.8925,2.53297 L -96.2227,2.71448 L -96.573,2.85316
 L -96.9379,2.94685 L -97.3116,2.99408 z
M 67.3116,2.99408 L 66.9379,2.94685 L 66.573,2.85316 L 66.2227,2.71448 L 65.8925,2.53297 L 65.5877,2.31154
 L 65.3131,2.05363 L 65.073,1.76335 L 64.8711,1.44525 L 64.7107,1.10437 L 64.5943,0.746063 L 64.5237,0.375992
 L 64.5,-0 L 64.5237,-0.375992 L 64.5943,-0.746063 L 64.7107,-1.10437 L 64.8711,-1.44525 L 65.073,-1.76335
 L 65.3131,-2.05363 L 65.5877,-2.31154 L 65.8925,-2.53297 L 66.2227,-2.71448 L 66.573,-2.85316 L 66.9379,-2.94685
 L 67.3116,-2.99408 L 67.6884,-2.99408 L 68.0621,-2.94685 L 68.427,-2.85316 L 68.7773,-2.71448 L 69.1075,-2.53297
 L 69.4123,-2.31154 L 69.6869,-2.05363 L 69.927,-1.76335 L 70.1289,-1.44525 L 70.2893,-1.10437 L 70.4057,-0.746063
 L 70.4763,-0.375992 L 70.5,-0 L 70.4763,0.375992 L 70.4057,0.746063 L 70.2893,1.10437 L 70.1289,1.44525
 L 69.927,1.76335 L 69.6869,2.05363 L 69.4123,2.31154 L 69.1075,2.53297 L 68.7773,2.71448 L 68.427,2.85316
 L 68.0621,2.94685 L 67.6884,2.99408 z
M 52.3116,2.99408 L 51.9379,2.94685 L 51.5729,2.85316 L 51.2227,2.71448 L 50.8925,2.53297 L 50.5877,2.31154
 L 50.3131,2.05363 L 50.0729,1.76335 L 49.8711,1.44525 L 49.7107,1.10437 L 49.5942,0.746063 L 49.5237,0.375992
 L 49.5,-0 L 49.5237,-0.375992 L 49.5942,-0.746063 L 49.7107,-1.10437 L 49.8711,-1.44525 L 50.0729,-1.76335
 L 50.3131,-2.05363 L 50.5877,-2.31154 L 50.8925,-2.53297 L 51.2227,-2.71448 L 51.5729,-2.85316 L 51.9379,-2.94685
 L 52.3116,-2.99408 L 52.6884,-2.99408 L 53.0621,-2.94685 L 53.427,-2.85316 L 53.7773,-2.71448 L 54.1075,-2.53297
 L 54.4123,-2.31154 L 54.6869,-2.05363 L 54.927,-1.76335 L 55.1289,-1.44525 L 55.2893,-1.10437 L 55.4057,-0.746063
 L 55.4763,-0.375992 L 55.5,-0 L 55.4763,0.375992 L 55.4057,0.746063 L 55.2893,1.10437 L 55.1289,1.44525
 L 54.927,1.76335 L 54.6869,2.05363 L 54.4123,2.31154 L 54.1075,2.53297 L 53.7773,2.71448 L 53.427,2.85316
 L 53.0621,2.94685 L 52.6884,2.99408 z
M -52.6884,2.99408 L -53.0621,2.94685 L -53.427,2.85316 L -53.7773,2.71448 L -54.1075,2.53297 L -54.4123,2.31154
 L -54.6869,2.05363 L -54.927,1.76335 L -55.1289,1.44525 L -55.2893,1.10437 L -55.4057,0.746063 L -55.4763,0.375992
 L -55.5,-0 L -55.4763,-0.375992 L -55.4057,-0.746063 L -55.2893,-1.10437 L -55.1289,-1.44525 L -54.927,-1.76335
 L -54.6869,-2.05363 L -54.4123,-2.31154 L -54.1075,-2.53297 L -53.7773,-2.71448 L -53.427,-2.85316 L -53.0621,-2.94685
 L -52.6884,-2.99408 L -52.3116,-2.99408 L -51.9379,-2.94685 L -51.5729,-2.85316 L -51.2227,-2.71448 L -50.8925,-2.53297
 L -50.5877,-2.31154 L -50.3131,-2.05363 L -50.0729,-1.76335 L -49.8711,-1.44525 L -49.7107,-1.10437 L -49.5942,-0.746063
 L -49.5237,-0.375992 L -49.5,-0 L -49.5237,0.375992 L -49.5942,0.746063 L -49.7107,1.10437 L -49.8711,1.44525
 L -50.0729,1.76335 L -50.3131,2.05363 L -50.5877,2.31154 L -50.8925,2.53297 L -51.2227,2.71448 L -51.5729,2.85316
 L -51.9379,2.94685 L -52.3116,2.99408 z
M 82.3116,2.99408 L 81.9379,2.94685 L 81.573,2.85316 L 81.2227,2.71448 L 80.8925,2.53297 L 80.5877,2.31154
 L 80.3131,2.05363 L 80.073,1.76335 L 79.8711,1.44525 L 79.7107,1.10437 L 79.5943,0.746063 L 79.5237,0.375992
 L 79.5,-0 L 79.5237,-0.375992 L 79.5943,-0.746063 L 79.7107,-1.10437 L 79.8711,-1.44525 L 80.073,-1.76335
 L 80.3131,-2.05363 L 80.5877,-2.31154 L 80.8925,-2.53297 L 81.2227,-2.71448 L 81.573,-2.85316 L 81.9379,-2.94685
 L 82.3116,-2.99408 L 82.6884,-2.99408 L 83.0621,-2.94685 L 83.427,-2.85316 L 83.7773,-2.71448 L 84.1075,-2.53297
 L 84.4123,-2.31154 L 84.6869,-2.05363 L 84.927,-1.76335 L 85.1289,-1.44525 L 85.2893,-1.10437 L 85.4057,-0.746063
 L 85.4763,-0.375992 L 85.5,-0 L 85.4763,0.375992 L 85.4057,0.746063 L 85.2893,1.10437 L 85.1289,1.44525
 L 84.927,1.76335 L 84.6869,2.05363 L 84.4123,2.31154 L 84.1075,2.53297 L 83.7773,2.71448 L 83.427,2.85316
 L 83.0621,2.94685 L 82.6884,2.99408 z
M 7.31161,17.9941 L 6.93785,17.9469 L 6.57294,17.8532 L 6.22266,17.7145 L 5.89252,17.533 L 5.58772,17.3115
 L 5.31308,17.0536 L 5.07294,16.7634 L 4.87108,16.4453 L 4.71066,16.1044 L 4.59424,15.7461 L 4.52365,15.376
 L 4.5,15 L 4.52365,14.624 L 4.59424,14.2539 L 4.71066,13.8956 L 4.87108,13.5547 L 5.07294,13.2366
 L 5.31308,12.9464 L 5.58772,12.6884 L 5.89252,12.467 L 6.22266,12.2855 L 6.57294,12.1468 L 6.93785,12.0531
 L 7.31161,12.0059 L 7.68837,12.0059 L 8.06213,12.0531 L 8.42705,12.1468 L 8.77733,12.2855 L 9.10747,12.467
 L 9.41226,12.6884 L 9.6869,12.9464 L 9.92705,13.2366 L 10.1289,13.5547 L 10.2893,13.8956 L 10.4057,14.2539
 L 10.4763,14.624 L 10.5,15 L 10.4763,15.376 L 10.4057,15.7461 L 10.2893,16.1044 L 10.1289,16.4453
 L 9.92705,16.7634 L 9.6869,17.0536 L 9.41226,17.3115 L 9.10747,17.533 L 8.77733,17.7145 L 8.42705,17.8532
 L 8.06213,17.9469 L 7.68837,17.9941 z
M -7.68837,17.9941 L -8.06213,17.9469 L -8.42705,17.8532 L -8.77733,17.7145 L -9.10747,17.533 L -9.41226,17.3115
 L -9.6869,17.0536 L -9.92705,16.7634 L -10.1289,16.4453 L -10.2893,16.1044 L -10.4057,15.7461 L -10.4763,15.376
 L -10.5,15 L -10.4763,14.624 L -10.4057,14.2539 L -10.2893,13.8956 L -10.1289,13.5547 L -9.92705,13.2366
 L -9.6869,12.9464 L -9.41226,12.6884 L -9.10747,12.467 L -8.77733,12.2855 L -8.42705,12.1468 L -8.06213,12.0531
 L -7.68837,12.0059 L -7.31161,12.0059 L -6.93785,12.0531 L -6.57294,12.1468 L -6.22266,12.2855 L -5.89252,12.467
 L -5.58772,12.6884 L -5.31308,12.9464 L -5.07294,13.2366 L -4.87108,13.5547 L -4.71066,13.8956 L -4.59424,14.2539
 L -4.52365,14.624 L -4.5,15 L -4.52365,15.376 L -4.59424,15.7461 L -4.71066,16.1044 L -4.87108,16.4453
 L -5.07294,16.7634 L -5.31308,17.0536 L -5.58772,17.3115 L -5.89252,17.533 L -6.22266,17.7145 L -6.57294,17.8532
 L -6.93785,17.9469 L -7.31161,17.9941 z
M -37.6884,17.9941 L -38.0621,17.9469 L -38.427,17.8532 L -38.7773,17.7145 L -39.1075,17.533 L -39.4123,17.3115
 L -39.6869,17.0536 L -39.927,16.7634 L -40.1289,16.4453 L -40.2893,16.1044 L -40.4057,15.7461 L -40.4763,15.376
 L -40.5,15 L -40.4763,14.624 L -40.4057,14.2539 L -40.2893,13.8956 L -40.1289,13.5547 L -39.927,13.2366
 L -39.6869,12.9464 L -39.4123,12.6884 L -39.1075,12.467 L -38.7773,12.2855 L -38.427,12.1468 L -38.0621,12.0531
 L -37.6884,12.0059 L -37.3116,12.0059 L -36.9379,12.0531 L -36.5729,12.1468 L -36.2227,12.2855 L -35.8925,12.467
 L -35.5877,12.6884 L -35.3131,12.9464 L -35.0729,13.2366 L -34.8711,13.5547 L -34.7107,13.8956 L -34.5942,14.2539
 L -34.5237,14.624 L -34.5,15 L -34.5237,15.376 L -34.5942,15.7461 L -34.7107,16.1044 L -34.8711,16.4453
 L -35.0729,16.7634 L -35.3131,17.0536 L -35.5877,17.3115 L -35.8925,17.533 L -36.2227,17.7145 L -36.5729,17.8532
 L -36.9379,17.9469 L -37.3116,17.9941 z
M -67.6884,17.9941 L -68.0621,17.9469 L -68.427,17.8532 L -68.7773,17.7145 L -69.1075,17.533 L -69.4123,17.3115
 L -69.6869,17.0536 L -69.927,16.7634 L -70.1289,16.4453 L -70.2893,16.1044 L -70.4057,15.7461 L -70.4763,15.376
 L -70.5,15 L -70.4763,14.624 L -70.4057,14.2539 L -70.2893,13.8956 L -70.1289,13.5547 L -69.927,13.2366
 L -69.6869,12.9464 L -69.4123,12.6884 L -69.1075,12.467 L -68.7773,12.2855 L -68.427,12.1468 L -68.0621,12.0531
 L -67.6884,12.0059 L -67.3116,12.0059 L -66.9379,12.0531 L -66.573,12.1468 L -66.2227,12.2855 L -65.8925,12.467
 L -65.5877,12.6884 L -65.3131,12.9464 L -65.073,13.2366 L -64.8711,13.5547 L -64.7107,13.8956 L -64.5943,14.2539
 L -64.5237,14.624 L -64.5,15 L -64.5237,15.376 L -64.5943,15.7461 L -64.7107,16.1044 L -64.8711,16.4453
 L -65.073,16.7634 L -65.3131,17.0536 L -65.5877,17.3115 L -65.8925,17.533 L -66.2227,17.7145 L -66.573,17.8532
 L -66.9379,17.9469 L -67.3116,17.9941 z
M -22.6884,17.9941 L -23.0621,17.9469 L -23.427,17.8532 L -23.7773,17.7145 L -24.1075,17.533 L -24.4123,17.3115
 L -24.6869,17.0536 L -24.927,16.7634 L -25.1289,16.4453 L -25.2893,16.1044 L -25.4057,15.7461 L -25.4763,15.376
 L -25.5,15 L -25.4763,14.624 L -25.4057,14.2539 L -25.2893,13.8956 L -25.1289,13.5547 L -24.927,13.2366
 L -24.6869,12.9464 L -24.4123,12.6884 L -24.1075,12.467 L -23.7773,12.2855 L -23.427,12.1468 L -23.0621,12.0531
 L -22.6884,12.0059 L -22.3116,12.0059 L -21.9379,12.0531 L -21.5729,12.1468 L -21.2227,12.2855 L -20.8925,12.467
 L -20.5877,12.6884 L -20.3131,12.9464 L -20.0729,13.2366 L -19.8711,13.5547 L -19.7107,13.8956 L -19.5942,14.2539
 L -19.5237,14.624 L -19.5,15 L -19.5237,15.376 L -19.5942,15.7461 L -19.7107,16.1044 L -19.8711,16.4453
 L -20.0729,16.7634 L -20.3131,17.0536 L -20.5877,17.3115 L -20.8925,17.533 L -21.2227,17.7145 L -21.5729,17.8532
 L -21.9379,17.9469 L -22.3116,17.9941 z
M 142.312,17.9941 L 141.938,17.9469 L 141.573,17.8532 L 141.223,17.7145 L 140.893,17.533 L 140.588,17.3115
 L 140.313,17.0536 L 140.073,16.7634 L 139.871,16.4453 L 139.711,16.1044 L 139.594,15.7461 L 139.524,15.376
 L 139.5,15 L 139.524,14.624 L 139.594,14.2539 L 139.711,13.8956 L 139.871,13.5547 L 140.073,13.2366
 L 140.313,12.9464 L 140.588,12.6884 L 140.893,12.467 L 141.223,12.2855 L 141.573,12.1468 L 141.938,12.0531
 L 142.312,12.0059 L 142.688,12.0059 L 143.062,12.0531 L 143.427,12.1468 L 143.777,12.2855 L 144.107,12.467
 L 144.412,12.6884 L 144.687,12.9464 L 144.927,13.2366 L 145.129,13.5547 L 145.289,13.8956 L 145.406,14.2539
 L 145.476,14.624 L 145.5,15 L 145.476,15.376 L 145.406,15.7461 L 145.289,16.1044 L 145.129,16.4453
 L 144.927,16.7634 L 144.687,17.0536 L 144.412,17.3115 L 144.107,17.533 L 143.777,17.7145 L 143.427,17.8532
 L 143.062,17.9469 L 142.688,17.9941 z
M 52.3116,17.9941 L 51.9379,17.9469 L 51.5729,17.8532 L 51.2227,17.7145 L 50.8925,17.533 L 50.5877,17.3115
 L 50.3131,17.0536 L 50.0729,16.7634 L 49.8711,16.4453 L 49.7107,16.1044 L 49.5942,15.7461 L 49.5237,15.376
 L 49.5,15 L 49.5237,14.624 L 49.5942,14.2539 L 49.7107,13.8956 L 49.8711,13.5547 L 50.0729,13.2366
 L 50.3131,12.9464 L 50.5877,12.6884 L 50.8925,12.467 L 51.2227,12.2855 L 51.5729,12.1468 L 51.9379,12.0531
 L 52.3116,12.0059 L 52.6884,12.0059 L 53.0621,12.0531 L 53.427,12.1468 L 53.7773,12.2855 L 54.1075,12.467
 L 54.4123,12.6884 L 54.6869,12.9464 L 54.927,13.2366 L 55.1289,13.5547 L 55.2893,13.8956 L 55.4057,14.2539
 L 55.4763,14.624 L 55.5,15 L 55.4763,15.376 L 55.4057,15.7461 L 55.2893,16.1044 L 55.1289,16.4453
 L 54.927,16.7634 L 54.6869,17.0536 L 54.4123,17.3115 L 54.1075,17.533 L 53.7773,17.7145 L 53.427,17.8532
 L 53.0621,17.9469 L 52.6884,17.9941 z
M 97.3116,17.9941 L 96.9379,17.9469 L 96.573,17.8532 L 96.2227,17.7145 L 95.8925,17.533 L 95.5877,17.3115
 L 95.3131,17.0536 L 95.073,16.7634 L 94.8711,16.4453 L 94.7107,16.1044 L 94.5943,15.7461 L 94.5237,15.376
 L 94.5,15 L 94.5237,14.624 L 94.5943,14.2539 L 94.7107,13.8956 L 94.8711,13.5547 L 95.073,13.2366
 L 95.3131,12.9464 L 95.5877,12.6884 L 95.8925,12.467 L 96.2227,12.2855 L 96.573,12.1468 L 96.9379,12.0531
 L 97.3116,12.0059 L 97.6884,12.0059 L 98.0621,12.0531 L 98.427,12.1468 L 98.7773,12.2855 L 99.1075,12.467
 L 99.4123,12.6884 L 99.6869,12.9464 L 99.927,13.2366 L 100.129,13.5547 L 100.289,13.8956 L 100.406,14.2539
 L 100.476,14.624 L 100.5,15 L 100.476,15.376 L 100.406,15.7461 L 100.289,16.1044 L 100.129,16.4453
 L 99.927,16.7634 L 99.6869,17.0536 L 99.4123,17.3115 L 99.1075,17.533 L 98.7773,17.7145 L 98.427,17.8532
 L 98.0621,17.9469 L 97.6884,17.9941 z
M -142.688,17.9941 L -143.062,17.9469 L -143.427,17.8532 L -143.777,17.7145 L -144.107,17.533 L -144.412,17.3115
 L -144.687,17.0536 L -144.927,16.7634 L -145.129,16.4453 L -145.289,16.1044 L -145.406,15.7461 L -145.476,15.376
 L -145.5,15 L -145.476,14.624 L -145.406,14.2539 L -145.289,13.8956 L -145.129,13.5547 L -144.927,13.2366
 L -144.687,12.9464 L -144.412,12.6884 L -144.107,12.467 L -143.777,12.2855 L -143.427,12.1468 L -143.062,12.0531
 L -142.688,12.0059 L -142.312,12.0059 L -141.938,12.0531 L -141.573,12.1468 L -141.223,12.2855 L -140.893,12.467
 L -140.588,12.6884 L -140.313,12.9464 L -140.073,13.2366 L -139.871,13.5547 L -139.711,13.8956 L -139.594,14.2539
 L -139.524,14.624 L -139.5,15 L -139.524,15.376 L -139.594,15.7461 L -139.711,16.1044 L -139.871,16.4453
 L -140.073,16.7634 L -140.313,17.0536 L -140.588,17.3115 L -140.893,17.533 L -141.223,17.7145 L -141.573,17.8532
 L -141.938,17.9469 L -142.312,17.9941 z
M -127.688,17.9941 L -128.062,17.9469 L -128.427,17.8532 L -128.777,17.7145 L -129.107,17.533 L -129.412,17.3115
 L -129.687,17.0536 L -129.927,16.7634 L -130.129,16.4453 L -130.289,16.1044 L -130.406,15.7461 L -130.476,15.376
 L -130.5,15 L -130.476,14.624 L -130.406,14.2539 L -130.289,13.8956 L -130.129,13.5547 L -129.927,13.2366
 L -129.687,12.9464 L -129.412,12.6884 L -129.107,12.467 L -128.777,12.2855 L -128.427,12.1468 L -128.062,12.0531
 L -127.688,12.0059 L -127.312,12.0059 L -126.938,12.0531 L -126.573,12.1468 L -126.223,12.2855 L -125.893,12.467
 L -125.588,12.6884 L -125.313,12.9464 L -125.073,13.2366 L -124.871,13.5547 L -124.711,13.8956 L -124.594,14.2539
 L -124.524,14.624 L -124.5,15 L -124.524,15.376 L -124.594,15.7461 L -124.711,16.1044 L -124.871,16.4453
 L -125.073,16.7634 L -125.313,17.0536 L -125.588,17.3115 L -125.893,17.533 L -126.223,17.7145 L -126.573,17.8532
 L -126.938,17.9469 L -127.312,17.9941 z
M -82.6884,17.9941 L -83.0621,17.9469 L -83.427,17.8532 L -83.7773,17.7145 L -84.1075,17.533 L -84.4123,17.3115
 L -84.6869,17.0536 L -84.927,16.7634 L -85.1289,16.4453 L -85.2893,16.1044 L -85.4057,15.7461 L -85.4763,15.376
 L -85.5,15 L -85.4763,14.624 L -85.4057,14.2539 L -85.2893,13.8956 L -85.1289,13.5547 L -84.927,13.2366
 L -84.6869,12.9464 L -84.4123,12.6884 L -84.1075,12.467 L -83.7773,12.2855 L -83.427,12.1468 L -83.0621,12.0531
 L -82.6884,12.0059 L -82.3116,12.0059 L -81.9379,12.0531 L -81.573,12.1468 L -81.2227,12.2855 L -80.8925,12.467
 L -80.5877,12.6884 L -80.3131,12.9464 L -80.073,13.2366 L -79.8711,13.5547 L -79.7107,13.8956 L -79.5943,14.2539
 L -79.5237,14.624 L -79.5,15 L -79.5237,15.376 L -79.5943,15.7461 L -79.7107,16.1044 L -79.8711,16.4453
 L -80.073,16.7634 L -80.3131,17.0536 L -80.5877,17.3115 L -80.8925,17.533 L -81.2227,17.7145 L -81.573,17.8532
 L -81.9379,17.9469 L -82.3116,17.9941 z
M 112.312,17.9941 L 111.938,17.9469 L 111.573,17.8532 L 111.223,17.7145 L 110.893,17.533 L 110.588,17.3115
 L 110.313,17.0536 L 110.073,16.7634 L 109.871,16.4453 L 109.711,16.1044 L 109.594,15.7461 L 109.524,15.376
 L 109.5,15 L 109.524,14.624 L 109.594,14.2539 L 109.711,13.8956 L 109.871,13.5547 L 110.073,13.2366
 L 110.313,12.9464 L 110.588,12.6884 L 110.893,12.467 L 111.223,12.2855 L 111.573,12.1468 L 111.938,12.0531
 L 112.312,12.0059 L 112.688,12.0059 L 113.062,12.0531 L 113.427,12.1468 L 113.777,12.2855 L 114.107,12.467
 L 114.412,12.6884 L 114.687,12.9464 L 114.927,13.2366 L 115.129,13.5547 L 115.289,13.8956 L 115.406,14.2539
 L 115.476,14.624 L 115.5,15 L 115.476,15.376 L 115.406,15.7461 L 115.289,16.1044 L 115.129,16.4453
 L 114.927,16.7634 L 114.687,17.0536 L 114.412,17.3115 L 114.107,17.533 L 113.777,17.7145 L 113.427,17.8532
 L 113.062,17.9469 L 112.688,17.9941 z
M -97.6884,17.9941 L -98.0621,17.9469 L -98.427,17.8532 L -98.7773,17.7145 L -99.1075,17.533 L -99.4123,17.3115
 L -99.6869,17.0536 L -99.927,16.7634 L -100.129,16.4453 L -100.289,16.1044 L -100.406,15.7461 L -100.476,15.376
 L -100.5,15 L -100.476,14.624 L -100.406,14.2539 L -100.289,13.8956 L -100.129,13.5547 L -99.927,13.2366
 L -99.6869,12.9464 L -99.4123,12.6884 L -99.1075,12.467 L -98.7773,12.2855 L -98.427,12.1468 L -98.0621,12.0531
 L -97.6884,12.0059 L -97.3116,12.0059 L -96.9379,12.0531 L -96.573,12.1468 L -96.2227,12.2855 L -95.8925,12.467
 L -95.5877,12.6884 L -95.3131,12.9464 L -95.073,13.2366 L -94.8711,13.5547 L -94.7107,13.8956 L -94.5943,14.2539
 L -94.5237,14.624 L -94.5,15 L -94.5237,15.376 L -94.5943,15.7461 L -94.7107,16.1044 L -94.8711,16.4453
 L -95.073,16.7634 L -95.3131,17.0536 L -95.5877,17.3115 L -95.8925,17.533 L -96.2227,17.7145 L -96.573,17.8532
 L -96.9379,17.9469 L -97.3116,17.9941 z
M 67.3116,17.9941 L 66.9379,17.9469 L 66.573,17.8532 L 66.2227,17.7145 L 65.8925,17.533 L 65.5877,17.3115
 L 65.3131,17.0536 L 65.073,16.7634 L 64.8711,16.4453 L 64.7107,16.1044 L 64.5943,15.7461 L 64.5237,15.376
 L 64.5,15 L 64.5237,14.624 L 64.5943,14.2539 L 64.7107,13.8956 L 64.8711,13.5547 L 65.073,13.2366
 L 65.3131,12.9464 L 65.5877,12.6884 L 65.8925,12.467 L 66.2227,12.2855 L 66.573,12.1468 L 66.9379,12.0531
 L 67.3116,12.0059 L 67.6884,12.0059 L 68.0621,12.0531 L 68.427,12.1468 L 68.7773,12.2855 L 69.1075,12.467
 L 69.4123,12.6884 L 69.6869,12.9464 L 69.927,13.2366 L 70.1289,13.5547 L 70.2893,13.8956 L 70.4057,14.2539
 L 70.4763,14.624 L 70.5,15 L 70.4763,15.376 L 70.4057,15.7461 L 70.2893,16.1044 L 70.1289,16.4453
 L 69.927,16.7634 L 69.6869,17.0536 L 69.4123,17.3115 L 69.1075,17.533 L 68.7773,17.7145 L 68.427,17.8532
 L 68.0621,17.9469 L 67.6884,17.9941 z
M 37.3116,17.9941 L 36.9379,17.9469 L 36.5729,17.8532 L 36.2227,17.7145 L 35.8925,17.533 L 35.5877,17.3115
 L 35.3131,17.0536 L 35.0729,16.7634 L 34.8711,16.4453 L 34.7107,16.1044 L 34.5942,15.7461 L 34.5237,15.376
 L 34.5,15 L 34.5237,14.624 L 34.5942,14.2539 L 34.7107,13.8956 L 34.8711,13.5547 L 35.0729,13.2366
 L 35.3131,12.9464 L 35.5877,12.6884 L 35.8925,12.467 L 36.2227,12.2855 L 36.5729,12.1468 L 36.9379,12.0531
 L 37.3116,12.0059 L 37.6884,12.0059 L 38.0621,12.0531 L 38.427,12.1468 L 38.7773,12.2855 L 39.1075,12.467
 L 39.4123,12.6884 L 39.6869,12.9464 L 39.927,13.2366 L 40.1289,13.5547 L 40.2893,13.8956 L 40.4057,14.2539
 L 40.4763,14.624 L 40.5,15 L 40.4763,15.376 L 40.4057,15.7461 L 40.2893,16.1044 L 40.1289,16.4453
 L 39.927,16.7634 L 39.6869,17.0536 L 39.4123,17.3115 L 39.1075,17.533 L 38.7773,17.7145 L 38.427,17.8532
 L 38.0621,17.9469 L 37.6884,17.9941 z
M -157.688,17.9941 L -158.062,17.9469 L -158.427,17.8532 L -158.777,17.7145 L -159.107,17.533 L -159.412,17.3115
 L -159.687,17.0536 L -159.927,16.7634 L -160.129,16.4453 L -160.289,16.1044 L -160.406,15.7461 L -160.476,15.376
 L -160.5,15 L -160.476,14.624 L -160.406,14.2539 L -160.289,13.8956 L -160.129,13.5547 L -159.927,13.2366
 L -159.687,12.9464 L -159.412,12.6884 L -159.107,12.467 L -158.777,12.2855 L -158.427,12.1468 L -158.062,12.0531
 L -157.688,12.0059 L -157.312,12.0059 L -156.938,12.0531 L -156.573,12.1468 L -156.223,12.2855 L -155.893,12.467
 L -155.588,12.6884 L -155.313,12.9464 L -155.073,13.2366 L -154.871,13.5547 L -154.711,13.8956 L -154.594,14.2539
 L -154.524,14.624 L -154.5,15 L -154.524,15.376 L -154.594,15.7461 L -154.711,16.1044 L -154.871,16.4453
 L -155.073,16.7634 L -155.313,17.0536 L -155.588,17.3115 L -155.893,17.533 L -156.223,17.7145 L -156.573,17.8532
 L -156.938,17.9469 L -157.312,17.9941 z
M -172.688,17.9941 L -173.062,17.9469 L -173.427,17.8532 L -173.777,17.7145 L -174.107,17.533 L -174.412,17.3115
 L -174.687,17.0536 L -174.927,16.7634 L -175.129,16.4453 L -175.289,16.1044 L -175.406,15.7461 L -175.476,15.376
 L -175.5,15 L -175.476,14.624 L -175.406,14.2539 L -175.289,13.8956 L -175.129,13.5547 L -174.927,13.2366
 L -174.687,12.9464 L -174.412,12.6884 L -174.107,12.467 L -173.777,12.2855 L -173.427,12.1468 L -173.062,12.0531
 L -172.688,12.0059 L -172.312,12.0059 L -171.938,12.0531 L -171.573,12.1468 L -171.223,12.2855 L -170.893,12.467
 L -170.588,12.6884 L -170.313,12.9464 L -170.073,13.2366 L -169.871,13.5547 L -169.711,13.8956 L -169.594,14.2539
 L -169.524,14.624 L -169.5,15 L -169.524,15.376 L -169.594,15.7461 L -169.711,16.1044 L -169.871,16.4453
 L -170.073,16.7634 L -170.313,17.0536 L -170.588,17.3115 L -170.893,17.533 L -171.223,17.7145 L -171.573,17.8532
 L -171.938,17.9469 L -172.312,17.9941 z
M -52.6884,17.9941 L -53.0621,17.9469 L -53.427,17.8532 L -53.7773,17.7145 L -54.1075,17.533 L -54.4123,17.3115
 L -54.6869,17.0536 L -54.927,16.7634 L -55.1289,16.4453 L -55.2893,16.1044 L -55.4057,15.7461 L -55.4763,15.376
 L -55.5,15 L -55.4763,14.624 L -55.4057,14.2539 L -55.2893,13.8956 L -55.1289,13.5547 L -54.927,13.2366
 L -54.6869,12.9464 L -54.4123,12.6884 L -54.1075,12.467 L -53.7773,12.2855 L -53.427,12.1468 L -53.0621,12.0531
 L -52.6884,12.0059 L -52.3116,12.0059 L -51.9379,12.0531 L -51.5729,12.1468 L -51.2227,12.2855 L -50.8925,12.467
 L -50.5877,12.6884 L -50.3131,12.9464 L -50.0729,13.2366 L -49.8711,13.5547 L -49.7107,13.8956 L -49.5942,14.2539
 L -49.5237,14.624 L -49.5,15 L -49.5237,15.376 L -49.5942,15.7461 L -49.7107,16.1044 L -49.8711,16.4453
 L -50.0729,16.7634 L -50.3131,17.0536 L -50.5877,17.3115 L -50.8925,17.533 L -51.2227,17.7145 L -51.5729,17.8532
 L -51.9379,17.9469 L -52.3116,17.9941 z
M 82.3116,17.9941 L 81.9379,17.9469 L 81.573,17.8532 L 81.2227,17.7145 L 80.8925,17.533 L 80.5877,17.3115
 L 80.3131,17.0536 L 80.073,16.7634 L 79.8711,16.4453 L 79.7107,16.1044 L 79.5943,15.7461 L 79.5237,15.376
 L 79.5,15 L 79.5237,14.624 L 79.5943,14.2539 L 79.7107,13.8956 L 79.8711,13.5547 L 80.073,13.2366
 L 80.3131,12.9464 L 80.5877,12.6884 L 80.8925,12.467 L 81.2227,12.2855 L 81.573,12.1468 L 81.9379,12.0531
 L 82.3116,12.0059 L 82.6884,12.0059 L 83.0621,12.0531 L 83.427,12.1468 L 83.7773,12.2855 L 84.1075,12.467
 L 84.4123,12.6884 L 84.6869,12.9464 L 84.927,13.2366 L 85.1289,13.5547 L 85.2893,13.8956 L 85.4057,14.2539
 L 85.4763,14.624 L 85.5,15 L 85.4763,15.376 L 85.4057,15.7461 L 85.2893,16.1044 L 85.1289,16.4453
 L 84.927,16.7634 L 84.6869,17.0536 L 84.4123,17.3115 L 84.1075,17.533 L 83.7773,17.7145 L 83.427,17.8532
 L 83.0621,17.9469 L 82.6884,17.9941 z
M 22.3116,17.9941 L 21.9379,17.9469 L 21.5729,17.8532 L 21.2227,17.7145 L 20.8925,17.533 L 20.5877,17.3115
 L 20.3131,17.0536 L 20.0729,16.7634 L 19.8711,16.4453 L 19.7107,16.1044 L 19.5942,15.7461 L 19.5237,15.376
 L 19.5,15 L 19.5237,14.624 L 19.5942,14.2539 L 19.7107,13.8956 L 19.8711,13.5547 L 20.0729,13.2366
 L 20.3131,12.9464 L 20.5877,12.6884 L 20.8925,12.467 L 21.2227,12.2855 L 21.5729,12.1468 L 21.9379,12.0531
 L 22.3116,12.0059 L 22.6884,12.0059 L 23.0621,12.0531 L 23.427,12.1468 L 23.7773,12.2855 L 24.1075,12.467
 L 24.4123,12.6884 L 24.6869,12.9464 L 24.927,13.2366 L 25.1289,13.5547 L 25.2893,13.8956 L 25.4057,14.2539
 L 25.4763,14.624 L 25.5,15 L 25.4763,15.376 L 25.4057,15.7461 L 25.2893,16.1044 L 25.1289,16.4453
 L 24.927,16.7634 L 24.6869,17.0536 L 24.4123,17.3115 L 24.1075,17.533 L 23.7773,17.7145 L 23.427,17.8532
 L 23.0621,17.9469 L 22.6884,17.9941 z
M -112.688,17.9941 L -113.062,17.9469 L -113.427,17.8532 L -113.777,17.7145 L -114.107,17.533 L -114.412,17.3115
 L -114.687,17.0536 L -114.927,16.7634 L -115.129,16.4453 L -115.289,16.1044 L -115.406,15.7461 L -115.476,15.376
 L -115.5,15 L -115.476,14.624 L -115.406,14.2539 L -115.289,13.8956 L -115.129,13.5547 L -114.927,13.2366
 L -114.687,12.9464 L -114.412,12.6884 L -114.107,12.467 L -113.777,12.2855 L -113.427,12.1468 L -113.062,12.0531
 L -112.688,12.0059 L -112.312,12.0059 L -111.938,12.0531 L -111.573,12.1468 L -111.223,12.2855 L -110.893,12.467
 L -110.588,12.6884 L -110.313,12.9464 L -110.073,13.2366 L -109.871,13.5547 L -109.711,13.8956 L -109.594,14.2539
 L -109.524,14.624 L -109.5,15 L -109.524,15.376 L -109.594,15.7461 L -109.711,16.1044 L -109.871,16.4453
 L -110.073,16.7634 L -110.313,17.0536 L -110.588,17.3115 L -110.893,17.533 L -111.223,17.7145 L -111.573,17.8532
 L -111.938,17.9469 L -112.312,17.9941 z
M 172.312,17.9941 L 171.938,17.9469 L 171.573,17.8532 L 171.223,17.7145 L 170.893,17.533 L 170.588,17.3115
 L 170.313,17.0536 L 170.073,16.7634 L 169.871,16.4453 L 169.711,16.1044 L 169.594,15.7461 L 169.524,15.376
 L 169.5,15 L 169.524,14.624 L 169.594,14.2539 L 169.711,13.8956 L 169.871,13.5547 L 170.073,13.2366
 L 170.313,12.9464 L 170.588,12.6884 L 170.893,12.467 L 171.223,12.2855 L 171.573,12.1468 L 171.938,12.0531
 L 172.312,12.0059 L 172.688,12.0059 L 173.062,12.0531 L 173.427,12.1468 L 173.777,12.2855 L 174.107,12.467
 L 174.412,12.6884 L 174.687,12.9464 L 174.927,13.2366 L 175.129,13.5547 L 175.289,13.8956 L 175.406,14.2539
 L 175.476,14.624 L 175.5,15 L 175.476,15.376 L 175.406,15.7461 L 175.289,16.1044 L 175.129,16.4453
 L 174.927,16.7634 L 174.687,17.0536 L 174.412,17.3115 L 174.107,17.533 L 173.777,17.7145 L 173.427,17.8532
 L 173.062,17.9469 L 172.688,17.9941 z
M 127.312,17.9941 L 126.938,17.9469 L 126.573,17.8532 L 126.223,17.7145 L 125.893,17.533 L 125.588,17.3115
 L 125.313,17.0536 L 125.073,16.7634 L 124.871,16.4453 L 124.711,16.1044 L 124.594,15.7461 L 124.524,15.376
 L 124.5,15 L 124.524,14.624 L 124.594,14.2539 L 124.711,13.8956 L 124.871,13.5547 L 125.073,13.2366
 L 125.313,12.9464 L 125.588,12.6884 L 125.893,12.467 L 126.223,12.2855 L 126.573,12.1468 L 126.938,12.0531
 L 127.312,12.0059 L 127.688,12.0059 L 128.062,12.0531 L 128.427,12.1468 L 128.777,12.2855 L 129.107,12.467
 L 129.412,12.6884 L 129.687,12.9464 L 129.927,13.2366 L 130.129,13.5547 L 130.289,13.8956 L 130.406,14.2539
 L 130.476,14.624 L 130.5,15 L 130.476,15.376 L 130.406,15.7461 L 130.289,16.1044 L 130.129,16.4453
 L 129.927,16.7634 L 129.687,17.0536 L 129.412,17.3115 L 129.107,17.533 L 128.777,17.7145 L 128.427,17.8532
 L 128.062,17.9469 L 127.688,17.9941 z
M 157.312,17.9941 L 156.938,17.9469 L 156.573,17.8532 L 156.223,17.7145 L 155.893,17.533 L 155.588,17.3115
 L 155.313,17.0536 L 155.073,16.7634 L 154.871,16.4453 L 154.711,16.1044 L 154.594,15.7461 L 154.524,15.376
 L 154.5,15 L 154.524,14.624 L 154.594,14.2539 L 154.711,13.8956 L 154.871,13.5547 L 155.073,13.2366
 L 155.313,12.9464 L 155.588,12.6884 L 155.893,12.467 L 156.223,12.2855 L 156.573,12.1468 L 156.938,12.0531
 L 157.312,12.0059 L 157.688,12.0059 L 158.062,12.0531 L 158.427,12.1468 L 158.777,12.2855 L 159.107,12.467
 L 159.412,12.6884 L 159.687,12.9464 L 159.927,13.2366 L 160.129,13.5547 L 160.289,13.8956 L 160.406,14.2539
 L 160.476,14.624 L 160.5,15 L 160.476,15.376 L 160.406,15.7461 L 160.289,16.1044 L 160.129,16.4453
 L 159.927,16.7634 L 159.687,17.0536 L 159.412,17.3115 L 159.107,17.533 L 158.777,17.7145 L 158.427,17.8532
 L 158.062,17.9469 L 157.688,17.9941 z
M -5.89252,2.53297 L -6.22266,2.71448 L -6.57294,2.85316 L -6.93785,2.94685 L -7.31161,2.99408 L -7.68837,2.99408
 L -8.06213,2.94685 L -8.42705,2.85316 L -8.77733,2.71448 L -9.10747,2.53297 L -9.41226,2.31154 L -9.6869,2.05363
 L -9.92705,1.76335 L -10.1289,1.44525 L -10.2893,1.10437 L -10.4057,0.746063 L -10.4763,0.375992 L -10.5,-0
 L -10.4763,-0.375992 L -10.4057,-0.746063 L -10.2893,-1.10437 L -10.1289,-1.44525 L -9.92705,-1.76335 L -9.6869,-2.05363
 L -9.41226,-2.31154 L -9.10747,-2.53297 L -8.77733,-2.71448 L -8.42705,-2.85316 L -8.06213,-2.94685 L -7.68837,-2.99408
 L -7.31161,-2.99408 L -6.93785,-2.94685 L -6.57294,-2.85316 L -6.22266,-2.71448 L -5.89252,-2.53297 L -5.58772,-2.31154
 L -5.31308,-2.05363 L -5.07294,-1.76335 L -4.87108,-1.44525 L -4.71066,-1.10437 L -4.59424,-0.746063 L -4.52365,-0.375992
 L -4.5,-0 L -4.52365,0.375992 L -4.59424,0.746063 L -4.71066,1.10437 L -4.87108,1.44525 L -5.07294,1.76335
 L -5.31308,2.05363 L -5.58772,2.31154 z
" stroke="black" fill="lightgray" stroke-width="0.5"/>
</svg>
