  0
SECTION
  2
BLOCKS
  0
ENDSEC
  0
SECTION
  2
ENTITIES
  0
LINE
  8
0
 10
62.9369
 20
-51.9114
 11
63.5451
 21
-51.7553
  0
LINE
  8
0
 10
63.5451
 20
-51.7553
 11
64.1289
 21
-51.5241
  0
LINE
  8
0
 10
64.1289
 20
-51.5241
 11
64.6791
 21
-51.2216
  0
LINE
  8
0
 10
64.6791
 20
-51.2216
 11
65.1871
 21
-50.8526
  0
LINE
  8
0
 10
65.1871
 20
-50.8526
 11
65.6448
 21
-50.4227
  0
LINE
  8
0
 10
65.6448
 20
-50.4227
 11
66.0451
 21
-49.9389
  0
LINE
  8
0
 10
66.0451
 20
-49.9389
 11
66.3815
 21
-49.4088
  0
LINE
  8
0
 10
66.3815
 20
-49.4088
 11
66.6489
 21
-48.8406
  0
LINE
  8
0
 10
66.6489
 20
-48.8406
 11
66.8429
 21
-48.2434
  0
LINE
  8
0
 10
66.8429
 20
-48.2434
 11
66.9606
 21
-47.6267
  0
LINE
  8
0
 10
66.9606
 20
-47.6267
 11
67
 21
-47
  0
LINE
  8
0
 10
67
 20
-47
 11
67
 21
47
  0
LINE
  8
0
 10
67
 20
47
 11
66.9606
 21
47.6267
  0
LINE
  8
0
 10
66.9606
 20
47.6267
 11
66.8429
 21
48.2434
  0
LINE
  8
0
 10
66.8429
 20
48.2434
 11
66.6489
 21
48.8406
  0
LINE
  8
0
 10
66.6489
 20
48.8406
 11
66.3815
 21
49.4088
  0
LINE
  8
0
 10
66.3815
 20
49.4088
 11
66.0451
 21
49.9389
  0
LINE
  8
0
 10
66.0451
 20
49.9389
 11
65.6448
 21
50.4227
  0
LINE
  8
0
 10
65.6448
 20
50.4227
 11
65.1871
 21
50.8526
  0
LINE
  8
0
 10
65.1871
 20
50.8526
 11
64.6791
 21
51.2216
  0
LINE
  8
0
 10
64.6791
 20
51.2216
 11
64.1289
 21
51.5241
  0
LINE
  8
0
 10
64.1289
 20
51.5241
 11
63.5451
 21
51.7553
  0
LINE
  8
0
 10
63.5451
 20
51.7553
 11
62.9369
 21
51.9114
  0
LINE
  8
0
 10
62.9369
 20
51.9114
 11
62.3139
 21
51.9901
  0
LINE
  8
0
 10
62.3139
 20
51.9901
 11
-62.3139
 21
51.9901
  0
LINE
  8
0
 10
-62.3139
 20
51.9901
 11
-62.9369
 21
51.9114
  0
LINE
  8
0
 10
-62.9369
 20
51.9114
 11
-63.5451
 21
51.7553
  0
LINE
  8
0
 10
-63.5451
 20
51.7553
 11
-64.1289
 21
51.5241
  0
LINE
  8
0
 10
-64.1289
 20
51.5241
 11
-64.6791
 21
51.2216
  0
LINE
  8
0
 10
-64.6791
 20
51.2216
 11
-65.1871
 21
50.8526
  0
LINE
  8
0
 10
-65.1871
 20
50.8526
 11
-65.6448
 21
50.4227
  0
LINE
  8
0
 10
-65.6448
 20
50.4227
 11
-66.0451
 21
49.9389
  0
LINE
  8
0
 10
-66.0451
 20
49.9389
 11
-66.3815
 21
49.4088
  0
LINE
  8
0
 10
-66.3815
 20
49.4088
 11
-66.6489
 21
48.8406
  0
LINE
  8
0
 10
-66.6489
 20
48.8406
 11
-66.8429
 21
48.2434
  0
LINE
  8
0
 10
-66.8429
 20
48.2434
 11
-66.9606
 21
47.6267
  0
LINE
  8
0
 10
-66.9606
 20
47.6267
 11
-67
 21
47
  0
LINE
  8
0
 10
-67
 20
47
 11
-67
 21
-47
  0
LINE
  8
0
 10
-67
 20
-47
 11
-66.9606
 21
-47.6267
  0
LINE
  8
0
 10
-66.9606
 20
-47.6267
 11
-66.8429
 21
-48.2434
  0
LINE
  8
0
 10
-66.8429
 20
-48.2434
 11
-66.6489
 21
-48.8406
  0
LINE
  8
0
 10
-66.6489
 20
-48.8406
 11
-66.3815
 21
-49.4088
  0
LINE
  8
0
 10
-66.3815
 20
-49.4088
 11
-66.0451
 21
-49.9389
  0
LINE
  8
0
 10
-66.0451
 20
-49.9389
 11
-65.6448
 21
-50.4227
  0
LINE
  8
0
 10
-65.6448
 20
-50.4227
 11
-65.1871
 21
-50.8526
  0
LINE
  8
0
 10
-65.1871
 20
-50.8526
 11
-64.6791
 21
-51.2216
  0
LINE
  8
0
 10
-64.6791
 20
-51.2216
 11
-64.1289
 21
-51.5241
  0
LINE
  8
0
 10
-64.1289
 20
-51.5241
 11
-63.5451
 21
-51.7553
  0
LINE
  8
0
 10
-63.5451
 20
-51.7553
 11
-62.9369
 21
-51.9114
  0
LINE
  8
0
 10
-62.9369
 20
-51.9114
 11
-62.3139
 21
-51.9901
  0
LINE
  8
0
 10
-62.3139
 20
-51.9901
 11
62.3139
 21
-51.9901
  0
LINE
  8
0
 10
62.3139
 20
-51.9901
 11
62.9369
 21
-51.9114
  0
LINE
  8
0
 10
-60.1884
 20
42.0059
 11
-60.5621
 21
42.0531
  0
LINE
  8
0
 10
-60.5621
 20
42.0531
 11
-60.927
 21
42.1468
  0
LINE
  8
0
 10
-60.927
 20
42.1468
 11
-61.2773
 21
42.2855
  0
LINE
  8
0
 10
-61.2773
 20
42.2855
 11
-61.6075
 21
42.467
  0
LINE
  8
0
 10
-61.6075
 20
42.467
 11
-61.9123
 21
42.6885
  0
LINE
  8
0
 10
-61.9123
 20
42.6885
 11
-62.1869
 21
42.9464
  0
LINE
  8
0
 10
-62.1869
 20
42.9464
 11
-62.427
 21
43.2366
  0
LINE
  8
0
 10
-62.427
 20
43.2366
 11
-62.6289
 21
43.5547
  0
LINE
  8
0
 10
-62.6289
 20
43.5547
 11
-62.7893
 21
43.8956
  0
LINE
  8
0
 10
-62.7893
 20
43.8956
 11
-62.9057
 21
44.2539
  0
LINE
  8
0
 10
-62.9057
 20
44.2539
 11
-62.9763
 21
44.624
  0
LINE
  8
0
 10
-62.9763
 20
44.624
 11
-63
 21
45
  0
LINE
  8
0
 10
-63
 20
45
 11
-62.9763
 21
45.376
  0
LINE
  8
0
 10
-62.9763
 20
45.376
 11
-62.9057
 21
45.7461
  0
LINE
  8
0
 10
-62.9057
 20
45.7461
 11
-62.7893
 21
46.1044
  0
LINE
  8
0
 10
-62.7893
 20
46.1044
 11
-62.6289
 21
46.4453
  0
LINE
  8
0
 10
-62.6289
 20
46.4453
 11
-62.427
 21
46.7634
  0
LINE
  8
0
 10
-62.427
 20
46.7634
 11
-62.1869
 21
47.0536
  0
LINE
  8
0
 10
-62.1869
 20
47.0536
 11
-61.9123
 21
47.3115
  0
LINE
  8
0
 10
-61.9123
 20
47.3115
 11
-61.6075
 21
47.533
  0
LINE
  8
0
 10
-61.6075
 20
47.533
 11
-61.2773
 21
47.7145
  0
LINE
  8
0
 10
-61.2773
 20
47.7145
 11
-60.927
 21
47.8532
  0
LINE
  8
0
 10
-60.927
 20
47.8532
 11
-60.5621
 21
47.9469
  0
LINE
  8
0
 10
-60.5621
 20
47.9469
 11
-60.1884
 21
47.9941
  0
LINE
  8
0
 10
-60.1884
 20
47.9941
 11
-59.8116
 21
47.9941
  0
LINE
  8
0
 10
-59.8116
 20
47.9941
 11
-59.4379
 21
47.9469
  0
LINE
  8
0
 10
-59.4379
 20
47.9469
 11
-59.0729
 21
47.8532
  0
LINE
  8
0
 10
-59.0729
 20
47.8532
 11
-58.7227
 21
47.7145
  0
LINE
  8
0
 10
-58.7227
 20
47.7145
 11
-58.3925
 21
47.533
  0
LINE
  8
0
 10
-58.3925
 20
47.533
 11
-58.0877
 21
47.3115
  0
LINE
  8
0
 10
-58.0877
 20
47.3115
 11
-57.8131
 21
47.0536
  0
LINE
  8
0
 10
-57.8131
 20
47.0536
 11
-57.5729
 21
46.7634
  0
LINE
  8
0
 10
-57.5729
 20
46.7634
 11
-57.3711
 21
46.4453
  0
LINE
  8
0
 10
-57.3711
 20
46.4453
 11
-57.2107
 21
46.1044
  0
LINE
  8
0
 10
-57.2107
 20
46.1044
 11
-57.0942
 21
45.7461
  0
LINE
  8
0
 10
-57.0942
 20
45.7461
 11
-57.0237
 21
45.376
  0
LINE
  8
0
 10
-57.0237
 20
45.376
 11
-57
 21
45
  0
LINE
  8
0
 10
-57
 20
45
 11
-57.0237
 21
44.624
  0
LINE
  8
0
 10
-57.0237
 20
44.624
 11
-57.0942
 21
44.2539
  0
LINE
  8
0
 10
-57.0942
 20
44.2539
 11
-57.2107
 21
43.8956
  0
LINE
  8
0
 10
-57.2107
 20
43.8956
 11
-57.3711
 21
43.5547
  0
LINE
  8
0
 10
-57.3711
 20
43.5547
 11
-57.5729
 21
43.2366
  0
LINE
  8
0
 10
-57.5729
 20
43.2366
 11
-57.8131
 21
42.9464
  0
LINE
  8
0
 10
-57.8131
 20
42.9464
 11
-58.0877
 21
42.6885
  0
LINE
  8
0
 10
-58.0877
 20
42.6885
 11
-58.3925
 21
42.467
  0
LINE
  8
0
 10
-58.3925
 20
42.467
 11
-58.7227
 21
42.2855
  0
LINE
  8
0
 10
-58.7227
 20
42.2855
 11
-59.0729
 21
42.1468
  0
LINE
  8
0
 10
-59.0729
 20
42.1468
 11
-59.4379
 21
42.0531
  0
LINE
  8
0
 10
-59.4379
 20
42.0531
 11
-59.8116
 21
42.0059
  0
LINE
  8
0
 10
-59.8116
 20
42.0059
 11
-60.1884
 21
42.0059
  0
LINE
  8
0
 10
59.8116
 20
42.0059
 11
59.4379
 21
42.0531
  0
LINE
  8
0
 10
59.4379
 20
42.0531
 11
59.0729
 21
42.1468
  0
LINE
  8
0
 10
59.0729
 20
42.1468
 11
58.7227
 21
42.2855
  0
LINE
  8
0
 10
58.7227
 20
42.2855
 11
58.3925
 21
42.467
  0
LINE
  8
0
 10
58.3925
 20
42.467
 11
58.0877
 21
42.6885
  0
LINE
  8
0
 10
58.0877
 20
42.6885
 11
57.8131
 21
42.9464
  0
LINE
  8
0
 10
57.8131
 20
42.9464
 11
57.5729
 21
43.2366
  0
LINE
  8
0
 10
57.5729
 20
43.2366
 11
57.3711
 21
43.5547
  0
LINE
  8
0
 10
57.3711
 20
43.5547
 11
57.2107
 21
43.8956
  0
LINE
  8
0
 10
57.2107
 20
43.8956
 11
57.0942
 21
44.2539
  0
LINE
  8
0
 10
57.0942
 20
44.2539
 11
57.0237
 21
44.624
  0
LINE
  8
0
 10
57.0237
 20
44.624
 11
57
 21
45
  0
LINE
  8
0
 10
57
 20
45
 11
57.0237
 21
45.376
  0
LINE
  8
0
 10
57.0237
 20
45.376
 11
57.0942
 21
45.7461
  0
LINE
  8
0
 10
57.0942
 20
45.7461
 11
57.2107
 21
46.1044
  0
LINE
  8
0
 10
57.2107
 20
46.1044
 11
57.3711
 21
46.4453
  0
LINE
  8
0
 10
57.3711
 20
46.4453
 11
57.5729
 21
46.7634
  0
LINE
  8
0
 10
57.5729
 20
46.7634
 11
57.8131
 21
47.0536
  0
LINE
  8
0
 10
57.8131
 20
47.0536
 11
58.0877
 21
47.3115
  0
LINE
  8
0
 10
58.0877
 20
47.3115
 11
58.3925
 21
47.533
  0
LINE
  8
0
 10
58.3925
 20
47.533
 11
58.7227
 21
47.7145
  0
LINE
  8
0
 10
58.7227
 20
47.7145
 11
59.0729
 21
47.8532
  0
LINE
  8
0
 10
59.0729
 20
47.8532
 11
59.4379
 21
47.9469
  0
LINE
  8
0
 10
59.4379
 20
47.9469
 11
59.8116
 21
47.9941
  0
LINE
  8
0
 10
59.8116
 20
47.9941
 11
60.1884
 21
47.9941
  0
LINE
  8
0
 10
60.1884
 20
47.9941
 11
60.5621
 21
47.9469
  0
LINE
  8
0
 10
60.5621
 20
47.9469
 11
60.927
 21
47.8532
  0
LINE
  8
0
 10
60.927
 20
47.8532
 11
61.2773
 21
47.7145
  0
LINE
  8
0
 10
61.2773
 20
47.7145
 11
61.6075
 21
47.533
  0
LINE
  8
0
 10
61.6075
 20
47.533
 11
61.9123
 21
47.3115
  0
LINE
  8
0
 10
61.9123
 20
47.3115
 11
62.1869
 21
47.0536
  0
LINE
  8
0
 10
62.1869
 20
47.0536
 11
62.427
 21
46.7634
  0
LINE
  8
0
 10
62.427
 20
46.7634
 11
62.6289
 21
46.4453
  0
LINE
  8
0
 10
62.6289
 20
46.4453
 11
62.7893
 21
46.1044
  0
LINE
  8
0
 10
62.7893
 20
46.1044
 11
62.9057
 21
45.7461
  0
LINE
  8
0
 10
62.9057
 20
45.7461
 11
62.9763
 21
45.376
  0
LINE
  8
0
 10
62.9763
 20
45.376
 11
63
 21
45
  0
LINE
  8
0
 10
63
 20
45
 11
62.9763
 21
44.624
  0
LINE
  8
0
 10
62.9763
 20
44.624
 11
62.9057
 21
44.2539
  0
LINE
  8
0
 10
62.9057
 20
44.2539
 11
62.7893
 21
43.8956
  0
LINE
  8
0
 10
62.7893
 20
43.8956
 11
62.6289
 21
43.5547
  0
LINE
  8
0
 10
62.6289
 20
43.5547
 11
62.427
 21
43.2366
  0
LINE
  8
0
 10
62.427
 20
43.2366
 11
62.1869
 21
42.9464
  0
LINE
  8
0
 10
62.1869
 20
42.9464
 11
61.9123
 21
42.6885
  0
LINE
  8
0
 10
61.9123
 20
42.6885
 11
61.6075
 21
42.467
  0
LINE
  8
0
 10
61.6075
 20
42.467
 11
61.2773
 21
42.2855
  0
LINE
  8
0
 10
61.2773
 20
42.2855
 11
60.927
 21
42.1468
  0
LINE
  8
0
 10
60.927
 20
42.1468
 11
60.5621
 21
42.0531
  0
LINE
  8
0
 10
60.5621
 20
42.0531
 11
60.1884
 21
42.0059
  0
LINE
  8
0
 10
60.1884
 20
42.0059
 11
59.8116
 21
42.0059
  0
LINE
  8
0
 10
59.8116
 20
-47.9941
 11
59.4379
 21
-47.9469
  0
LINE
  8
0
 10
59.4379
 20
-47.9469
 11
59.0729
 21
-47.8532
  0
LINE
  8
0
 10
59.0729
 20
-47.8532
 11
58.7227
 21
-47.7145
  0
LINE
  8
0
 10
58.7227
 20
-47.7145
 11
58.3925
 21
-47.533
  0
LINE
  8
0
 10
58.3925
 20
-47.533
 11
58.0877
 21
-47.3115
  0
LINE
  8
0
 10
58.0877
 20
-47.3115
 11
57.8131
 21
-47.0536
  0
LINE
  8
0
 10
57.8131
 20
-47.0536
 11
57.5729
 21
-46.7634
  0
LINE
  8
0
 10
57.5729
 20
-46.7634
 11
57.3711
 21
-46.4453
  0
LINE
  8
0
 10
57.3711
 20
-46.4453
 11
57.2107
 21
-46.1044
  0
LINE
  8
0
 10
57.2107
 20
-46.1044
 11
57.0942
 21
-45.7461
  0
LINE
  8
0
 10
57.0942
 20
-45.7461
 11
57.0237
 21
-45.376
  0
LINE
  8
0
 10
57.0237
 20
-45.376
 11
57
 21
-45
  0
LINE
  8
0
 10
57
 20
-45
 11
57.0237
 21
-44.624
  0
LINE
  8
0
 10
57.0237
 20
-44.624
 11
57.0942
 21
-44.2539
  0
LINE
  8
0
 10
57.0942
 20
-44.2539
 11
57.2107
 21
-43.8956
  0
LINE
  8
0
 10
57.2107
 20
-43.8956
 11
57.3711
 21
-43.5547
  0
LINE
  8
0
 10
57.3711
 20
-43.5547
 11
57.5729
 21
-43.2366
  0
LINE
  8
0
 10
57.5729
 20
-43.2366
 11
57.8131
 21
-42.9464
  0
LINE
  8
0
 10
57.8131
 20
-42.9464
 11
58.0877
 21
-42.6885
  0
LINE
  8
0
 10
58.0877
 20
-42.6885
 11
58.3925
 21
-42.467
  0
LINE
  8
0
 10
58.3925
 20
-42.467
 11
58.7227
 21
-42.2855
  0
LINE
  8
0
 10
58.7227
 20
-42.2855
 11
59.0729
 21
-42.1468
  0
LINE
  8
0
 10
59.0729
 20
-42.1468
 11
59.4379
 21
-42.0531
  0
LINE
  8
0
 10
59.4379
 20
-42.0531
 11
59.8116
 21
-42.0059
  0
LINE
  8
0
 10
59.8116
 20
-42.0059
 11
60.1884
 21
-42.0059
  0
LINE
  8
0
 10
60.1884
 20
-42.0059
 11
60.5621
 21
-42.0531
  0
LINE
  8
0
 10
60.5621
 20
-42.0531
 11
60.927
 21
-42.1468
  0
LINE
  8
0
 10
60.927
 20
-42.1468
 11
61.2773
 21
-42.2855
  0
LINE
  8
0
 10
61.2773
 20
-42.2855
 11
61.6075
 21
-42.467
  0
LINE
  8
0
 10
61.6075
 20
-42.467
 11
61.9123
 21
-42.6885
  0
LINE
  8
0
 10
61.9123
 20
-42.6885
 11
62.1869
 21
-42.9464
  0
LINE
  8
0
 10
62.1869
 20
-42.9464
 11
62.427
 21
-43.2366
  0
LINE
  8
0
 10
62.427
 20
-43.2366
 11
62.6289
 21
-43.5547
  0
LINE
  8
0
 10
62.6289
 20
-43.5547
 11
62.7893
 21
-43.8956
  0
LINE
  8
0
 10
62.7893
 20
-43.8956
 11
62.9057
 21
-44.2539
  0
LINE
  8
0
 10
62.9057
 20
-44.2539
 11
62.9763
 21
-44.624
  0
LINE
  8
0
 10
62.9763
 20
-44.624
 11
63
 21
-45
  0
LINE
  8
0
 10
63
 20
-45
 11
62.9763
 21
-45.376
  0
LINE
  8
0
 10
62.9763
 20
-45.376
 11
62.9057
 21
-45.7461
  0
LINE
  8
0
 10
62.9057
 20
-45.7461
 11
62.7893
 21
-46.1044
  0
LINE
  8
0
 10
62.7893
 20
-46.1044
 11
62.6289
 21
-46.4453
  0
LINE
  8
0
 10
62.6289
 20
-46.4453
 11
62.427
 21
-46.7634
  0
LINE
  8
0
 10
62.427
 20
-46.7634
 11
62.1869
 21
-47.0536
  0
LINE
  8
0
 10
62.1869
 20
-47.0536
 11
61.9123
 21
-47.3115
  0
LINE
  8
0
 10
61.9123
 20
-47.3115
 11
61.6075
 21
-47.533
  0
LINE
  8
0
 10
61.6075
 20
-47.533
 11
61.2773
 21
-47.7145
  0
LINE
  8
0
 10
61.2773
 20
-47.7145
 11
60.927
 21
-47.8532
  0
LINE
  8
0
 10
60.927
 20
-47.8532
 11
60.5621
 21
-47.9469
  0
LINE
  8
0
 10
60.5621
 20
-47.9469
 11
60.1884
 21
-47.9941
  0
LINE
  8
0
 10
60.1884
 20
-47.9941
 11
59.8116
 21
-47.9941
  0
LINE
  8
0
 10
-60.1884
 20
-47.9941
 11
-60.5621
 21
-47.9469
  0
LINE
  8
0
 10
-60.5621
 20
-47.9469
 11
-60.927
 21
-47.8532
  0
LINE
  8
0
 10
-60.927
 20
-47.8532
 11
-61.2773
 21
-47.7145
  0
LINE
  8
0
 10
-61.2773
 20
-47.7145
 11
-61.6075
 21
-47.533
  0
LINE
  8
0
 10
-61.6075
 20
-47.533
 11
-61.9123
 21
-47.3115
  0
LINE
  8
0
 10
-61.9123
 20
-47.3115
 11
-62.1869
 21
-47.0536
  0
LINE
  8
0
 10
-62.1869
 20
-47.0536
 11
-62.427
 21
-46.7634
  0
LINE
  8
0
 10
-62.427
 20
-46.7634
 11
-62.6289
 21
-46.4453
  0
LINE
  8
0
 10
-62.6289
 20
-46.4453
 11
-62.7893
 21
-46.1044
  0
LINE
  8
0
 10
-62.7893
 20
-46.1044
 11
-62.9057
 21
-45.7461
  0
LINE
  8
0
 10
-62.9057
 20
-45.7461
 11
-62.9763
 21
-45.376
  0
LINE
  8
0
 10
-62.9763
 20
-45.376
 11
-63
 21
-45
  0
LINE
  8
0
 10
-63
 20
-45
 11
-62.9763
 21
-44.624
  0
LINE
  8
0
 10
-62.9763
 20
-44.624
 11
-62.9057
 21
-44.2539
  0
LINE
  8
0
 10
-62.9057
 20
-44.2539
 11
-62.7893
 21
-43.8956
  0
LINE
  8
0
 10
-62.7893
 20
-43.8956
 11
-62.6289
 21
-43.5547
  0
LINE
  8
0
 10
-62.6289
 20
-43.5547
 11
-62.427
 21
-43.2366
  0
LINE
  8
0
 10
-62.427
 20
-43.2366
 11
-62.1869
 21
-42.9464
  0
LINE
  8
0
 10
-62.1869
 20
-42.9464
 11
-61.9123
 21
-42.6885
  0
LINE
  8
0
 10
-61.9123
 20
-42.6885
 11
-61.6075
 21
-42.467
  0
LINE
  8
0
 10
-61.6075
 20
-42.467
 11
-61.2773
 21
-42.2855
  0
LINE
  8
0
 10
-61.2773
 20
-42.2855
 11
-60.927
 21
-42.1468
  0
LINE
  8
0
 10
-60.927
 20
-42.1468
 11
-60.5621
 21
-42.0531
  0
LINE
  8
0
 10
-60.5621
 20
-42.0531
 11
-60.1884
 21
-42.0059
  0
LINE
  8
0
 10
-60.1884
 20
-42.0059
 11
-59.8116
 21
-42.0059
  0
LINE
  8
0
 10
-59.8116
 20
-42.0059
 11
-59.4379
 21
-42.0531
  0
LINE
  8
0
 10
-59.4379
 20
-42.0531
 11
-59.0729
 21
-42.1468
  0
LINE
  8
0
 10
-59.0729
 20
-42.1468
 11
-58.7227
 21
-42.2855
  0
LINE
  8
0
 10
-58.7227
 20
-42.2855
 11
-58.3925
 21
-42.467
  0
LINE
  8
0
 10
-58.3925
 20
-42.467
 11
-58.0877
 21
-42.6885
  0
LINE
  8
0
 10
-58.0877
 20
-42.6885
 11
-57.8131
 21
-42.9464
  0
LINE
  8
0
 10
-57.8131
 20
-42.9464
 11
-57.5729
 21
-43.2366
  0
LINE
  8
0
 10
-57.5729
 20
-43.2366
 11
-57.3711
 21
-43.5547
  0
LINE
  8
0
 10
-57.3711
 20
-43.5547
 11
-57.2107
 21
-43.8956
  0
LINE
  8
0
 10
-57.2107
 20
-43.8956
 11
-57.0942
 21
-44.2539
  0
LINE
  8
0
 10
-57.0942
 20
-44.2539
 11
-57.0237
 21
-44.624
  0
LINE
  8
0
 10
-57.0237
 20
-44.624
 11
-57
 21
-45
  0
LINE
  8
0
 10
-57
 20
-45
 11
-57.0237
 21
-45.376
  0
LINE
  8
0
 10
-57.0237
 20
-45.376
 11
-57.0942
 21
-45.7461
  0
LINE
  8
0
 10
-57.0942
 20
-45.7461
 11
-57.2107
 21
-46.1044
  0
LINE
  8
0
 10
-57.2107
 20
-46.1044
 11
-57.3711
 21
-46.4453
  0
LINE
  8
0
 10
-57.3711
 20
-46.4453
 11
-57.5729
 21
-46.7634
  0
LINE
  8
0
 10
-57.5729
 20
-46.7634
 11
-57.8131
 21
-47.0536
  0
LINE
  8
0
 10
-57.8131
 20
-47.0536
 11
-58.0877
 21
-47.3115
  0
LINE
  8
0
 10
-58.0877
 20
-47.3115
 11
-58.3925
 21
-47.533
  0
LINE
  8
0
 10
-58.3925
 20
-47.533
 11
-58.7227
 21
-47.7145
  0
LINE
  8
0
 10
-58.7227
 20
-47.7145
 11
-59.0729
 21
-47.8532
  0
LINE
  8
0
 10
-59.0729
 20
-47.8532
 11
-59.4379
 21
-47.9469
  0
LINE
  8
0
 10
-59.4379
 20
-47.9469
 11
-59.8116
 21
-47.9941
  0
LINE
  8
0
 10
-59.8116
 20
-47.9941
 11
-60.1884
 21
-47.9941
  0
ENDSEC
  0
SECTION
  2
OBJECTS
  0
DICTIONARY
  0
ENDSEC
  0
EOF
