  0
SECTION
  2
BLOCKS
  0
ENDSEC
  0
SECTION
  2
ENTITIES
  0
LINE
  8
0
 10
1.31166
 20
641.124
 11
2.16312
 21
641.343
  0
LINE
  8
0
 10
2.16312
 20
641.343
 11
2.98045
 21
641.666
  0
LINE
  8
0
 10
2.98045
 20
641.666
 11
3.75078
 21
642.09
  0
LINE
  8
0
 10
3.75078
 20
642.09
 11
4.46196
 21
642.606
  0
LINE
  8
0
 10
4.46196
 20
642.606
 11
5.10277
 21
643.208
  0
LINE
  8
0
 10
5.10277
 20
643.208
 11
5.66312
 21
643.886
  0
LINE
  8
0
 10
5.66312
 20
643.886
 11
6.13414
 21
644.628
  0
LINE
  8
0
 10
6.13414
 20
644.628
 11
6.50842
 21
645.423
  0
LINE
  8
0
 10
6.50842
 20
645.423
 11
6.78008
 21
646.259
  0
LINE
  8
0
 10
6.78008
 20
646.259
 11
6.94479
 21
647.123
  0
LINE
  8
0
 10
6.94479
 20
647.123
 11
7
 21
648
  0
LINE
  8
0
 10
7
 20
648
 11
6.94479
 21
648.877
  0
LINE
  8
0
 10
6.94479
 20
648.877
 11
6.78008
 21
649.741
  0
LINE
  8
0
 10
6.78008
 20
649.741
 11
6.50842
 21
650.577
  0
LINE
  8
0
 10
6.50842
 20
650.577
 11
6.13414
 21
651.372
  0
LINE
  8
0
 10
6.13414
 20
651.372
 11
5.66312
 21
652.114
  0
LINE
  8
0
 10
5.66312
 20
652.114
 11
5.10277
 21
652.792
  0
LINE
  8
0
 10
5.10277
 20
652.792
 11
4.46196
 21
653.394
  0
LINE
  8
0
 10
4.46196
 20
653.394
 11
3.75078
 21
653.91
  0
LINE
  8
0
 10
3.75078
 20
653.91
 11
2.98045
 21
654.334
  0
LINE
  8
0
 10
2.98045
 20
654.334
 11
2.16312
 21
654.657
  0
LINE
  8
0
 10
2.16312
 20
654.657
 11
1.31166
 21
654.876
  0
LINE
  8
0
 10
1.31166
 20
654.876
 11
0.439529
 21
654.986
  0
LINE
  8
0
 10
0.439529
 20
654.986
 11
-0.439529
 21
654.986
  0
LINE
  8
0
 10
-0.439529
 20
654.986
 11
-1.31166
 21
654.876
  0
LINE
  8
0
 10
-1.31166
 20
654.876
 11
-2.16312
 21
654.657
  0
LINE
  8
0
 10
-2.16312
 20
654.657
 11
-2.98045
 21
654.334
  0
LINE
  8
0
 10
-2.98045
 20
654.334
 11
-3.75078
 21
653.91
  0
LINE
  8
0
 10
-3.75078
 20
653.91
 11
-4.46196
 21
653.394
  0
LINE
  8
0
 10
-4.46196
 20
653.394
 11
-5.10277
 21
652.792
  0
LINE
  8
0
 10
-5.10277
 20
652.792
 11
-5.66312
 21
652.114
  0
LINE
  8
0
 10
-5.66312
 20
652.114
 11
-6.13414
 21
651.372
  0
LINE
  8
0
 10
-6.13414
 20
651.372
 11
-6.50842
 21
650.577
  0
LINE
  8
0
 10
-6.50842
 20
650.577
 11
-6.78008
 21
649.741
  0
LINE
  8
0
 10
-6.78008
 20
649.741
 11
-6.94479
 21
648.877
  0
LINE
  8
0
 10
-6.94479
 20
648.877
 11
-7
 21
648
  0
LINE
  8
0
 10
-7
 20
648
 11
-6.94479
 21
647.123
  0
LINE
  8
0
 10
-6.94479
 20
647.123
 11
-6.78008
 21
646.259
  0
LINE
  8
0
 10
-6.78008
 20
646.259
 11
-6.50842
 21
645.423
  0
LINE
  8
0
 10
-6.50842
 20
645.423
 11
-6.13414
 21
644.628
  0
LINE
  8
0
 10
-6.13414
 20
644.628
 11
-5.66312
 21
643.886
  0
LINE
  8
0
 10
-5.66312
 20
643.886
 11
-5.10277
 21
643.208
  0
LINE
  8
0
 10
-5.10277
 20
643.208
 11
-4.46196
 21
642.606
  0
LINE
  8
0
 10
-4.46196
 20
642.606
 11
-3.75078
 21
642.09
  0
LINE
  8
0
 10
-3.75078
 20
642.09
 11
-2.98045
 21
641.666
  0
LINE
  8
0
 10
-2.98045
 20
641.666
 11
-2.16312
 21
641.343
  0
LINE
  8
0
 10
-2.16312
 20
641.343
 11
-1.31166
 21
641.124
  0
LINE
  8
0
 10
-1.31166
 20
641.124
 11
-0.439529
 21
641.014
  0
LINE
  8
0
 10
-0.439529
 20
641.014
 11
0.439529
 21
641.014
  0
LINE
  8
0
 10
0.439529
 20
641.014
 11
1.31166
 21
641.124
  0
LINE
  8
0
 10
-0.0941772
 20
646.503
 11
-0.281067
 21
646.527
  0
LINE
  8
0
 10
-0.281067
 20
646.527
 11
-0.463516
 21
646.573
  0
LINE
  8
0
 10
-0.463516
 20
646.573
 11
-0.638657
 21
646.643
  0
LINE
  8
0
 10
-0.638657
 20
646.643
 11
-0.803726
 21
646.734
  0
LINE
  8
0
 10
-0.803726
 20
646.734
 11
-0.956131
 21
646.844
  0
LINE
  8
0
 10
-0.956131
 20
646.844
 11
-1.09344
 21
646.973
  0
LINE
  8
0
 10
-1.09344
 20
646.973
 11
-1.21352
 21
647.118
  0
LINE
  8
0
 10
-1.21352
 20
647.118
 11
-1.31445
 21
647.277
  0
LINE
  8
0
 10
-1.31445
 20
647.277
 11
-1.39465
 21
647.448
  0
LINE
  8
0
 10
-1.39465
 20
647.448
 11
-1.45287
 21
647.627
  0
LINE
  8
0
 10
-1.45287
 20
647.627
 11
-1.48816
 21
647.812
  0
LINE
  8
0
 10
-1.48816
 20
647.812
 11
-1.5
 21
648
  0
LINE
  8
0
 10
-1.5
 20
648
 11
-1.48816
 21
648.188
  0
LINE
  8
0
 10
-1.48816
 20
648.188
 11
-1.45287
 21
648.373
  0
LINE
  8
0
 10
-1.45287
 20
648.373
 11
-1.39465
 21
648.552
  0
LINE
  8
0
 10
-1.39465
 20
648.552
 11
-1.31445
 21
648.723
  0
LINE
  8
0
 10
-1.31445
 20
648.723
 11
-1.21352
 21
648.882
  0
LINE
  8
0
 10
-1.21352
 20
648.882
 11
-1.09344
 21
649.027
  0
LINE
  8
0
 10
-1.09344
 20
649.027
 11
-0.956131
 21
649.156
  0
LINE
  8
0
 10
-0.956131
 20
649.156
 11
-0.803726
 21
649.266
  0
LINE
  8
0
 10
-0.803726
 20
649.266
 11
-0.638657
 21
649.357
  0
LINE
  8
0
 10
-0.638657
 20
649.357
 11
-0.463516
 21
649.427
  0
LINE
  8
0
 10
-0.463516
 20
649.427
 11
-0.281067
 21
649.473
  0
LINE
  8
0
 10
-0.281067
 20
649.473
 11
-0.0941772
 21
649.497
  0
LINE
  8
0
 10
-0.0941772
 20
649.497
 11
0.0941772
 21
649.497
  0
LINE
  8
0
 10
0.0941772
 20
649.497
 11
0.281067
 21
649.473
  0
LINE
  8
0
 10
0.281067
 20
649.473
 11
0.463516
 21
649.427
  0
LINE
  8
0
 10
0.463516
 20
649.427
 11
0.638657
 21
649.357
  0
LINE
  8
0
 10
0.638657
 20
649.357
 11
0.803726
 21
649.266
  0
LINE
  8
0
 10
0.803726
 20
649.266
 11
0.956131
 21
649.156
  0
LINE
  8
0
 10
0.956131
 20
649.156
 11
1.09344
 21
649.027
  0
LINE
  8
0
 10
1.09344
 20
649.027
 11
1.21352
 21
648.882
  0
LINE
  8
0
 10
1.21352
 20
648.882
 11
1.31445
 21
648.723
  0
LINE
  8
0
 10
1.31445
 20
648.723
 11
1.39465
 21
648.552
  0
LINE
  8
0
 10
1.39465
 20
648.552
 11
1.45287
 21
648.373
  0
LINE
  8
0
 10
1.45287
 20
648.373
 11
1.48816
 21
648.188
  0
LINE
  8
0
 10
1.48816
 20
648.188
 11
1.5
 21
648
  0
LINE
  8
0
 10
1.5
 20
648
 11
1.48816
 21
647.812
  0
LINE
  8
0
 10
1.48816
 20
647.812
 11
1.45287
 21
647.627
  0
LINE
  8
0
 10
1.45287
 20
647.627
 11
1.39465
 21
647.448
  0
LINE
  8
0
 10
1.39465
 20
647.448
 11
1.31445
 21
647.277
  0
LINE
  8
0
 10
1.31445
 20
647.277
 11
1.21352
 21
647.118
  0
LINE
  8
0
 10
1.21352
 20
647.118
 11
1.09344
 21
646.973
  0
LINE
  8
0
 10
1.09344
 20
646.973
 11
0.956131
 21
646.844
  0
LINE
  8
0
 10
0.956131
 20
646.844
 11
0.803726
 21
646.734
  0
LINE
  8
0
 10
0.803726
 20
646.734
 11
0.638657
 21
646.643
  0
LINE
  8
0
 10
0.638657
 20
646.643
 11
0.463516
 21
646.573
  0
LINE
  8
0
 10
0.463516
 20
646.573
 11
0.281067
 21
646.527
  0
LINE
  8
0
 10
0.281067
 20
646.527
 11
0.0941772
 21
646.503
  0
LINE
  8
0
 10
0.0941772
 20
646.503
 11
-0.0941772
 21
646.503
  0
LINE
  8
0
 10
1.31166
 20
617.124
 11
2.16312
 21
617.343
  0
LINE
  8
0
 10
2.16312
 20
617.343
 11
2.98045
 21
617.666
  0
LINE
  8
0
 10
2.98045
 20
617.666
 11
3.75078
 21
618.09
  0
LINE
  8
0
 10
3.75078
 20
618.09
 11
4.46196
 21
618.606
  0
LINE
  8
0
 10
4.46196
 20
618.606
 11
5.10277
 21
619.208
  0
LINE
  8
0
 10
5.10277
 20
619.208
 11
5.66312
 21
619.886
  0
LINE
  8
0
 10
5.66312
 20
619.886
 11
6.13414
 21
620.628
  0
LINE
  8
0
 10
6.13414
 20
620.628
 11
6.50842
 21
621.423
  0
LINE
  8
0
 10
6.50842
 20
621.423
 11
6.78008
 21
622.259
  0
LINE
  8
0
 10
6.78008
 20
622.259
 11
6.94479
 21
623.123
  0
LINE
  8
0
 10
6.94479
 20
623.123
 11
7
 21
624
  0
LINE
  8
0
 10
7
 20
624
 11
6.94479
 21
624.877
  0
LINE
  8
0
 10
6.94479
 20
624.877
 11
6.78008
 21
625.741
  0
LINE
  8
0
 10
6.78008
 20
625.741
 11
6.50842
 21
626.577
  0
LINE
  8
0
 10
6.50842
 20
626.577
 11
6.13414
 21
627.372
  0
LINE
  8
0
 10
6.13414
 20
627.372
 11
5.66312
 21
628.114
  0
LINE
  8
0
 10
5.66312
 20
628.114
 11
5.10277
 21
628.792
  0
LINE
  8
0
 10
5.10277
 20
628.792
 11
4.46196
 21
629.394
  0
LINE
  8
0
 10
4.46196
 20
629.394
 11
3.75078
 21
629.91
  0
LINE
  8
0
 10
3.75078
 20
629.91
 11
2.98045
 21
630.334
  0
LINE
  8
0
 10
2.98045
 20
630.334
 11
2.16312
 21
630.657
  0
LINE
  8
0
 10
2.16312
 20
630.657
 11
1.31166
 21
630.876
  0
LINE
  8
0
 10
1.31166
 20
630.876
 11
0.439529
 21
630.986
  0
LINE
  8
0
 10
0.439529
 20
630.986
 11
-0.439529
 21
630.986
  0
LINE
  8
0
 10
-0.439529
 20
630.986
 11
-1.31166
 21
630.876
  0
LINE
  8
0
 10
-1.31166
 20
630.876
 11
-2.16312
 21
630.657
  0
LINE
  8
0
 10
-2.16312
 20
630.657
 11
-2.98045
 21
630.334
  0
LINE
  8
0
 10
-2.98045
 20
630.334
 11
-3.75078
 21
629.91
  0
LINE
  8
0
 10
-3.75078
 20
629.91
 11
-4.46196
 21
629.394
  0
LINE
  8
0
 10
-4.46196
 20
629.394
 11
-5.10277
 21
628.792
  0
LINE
  8
0
 10
-5.10277
 20
628.792
 11
-5.66312
 21
628.114
  0
LINE
  8
0
 10
-5.66312
 20
628.114
 11
-6.13414
 21
627.372
  0
LINE
  8
0
 10
-6.13414
 20
627.372
 11
-6.50842
 21
626.577
  0
LINE
  8
0
 10
-6.50842
 20
626.577
 11
-6.78008
 21
625.741
  0
LINE
  8
0
 10
-6.78008
 20
625.741
 11
-6.94479
 21
624.877
  0
LINE
  8
0
 10
-6.94479
 20
624.877
 11
-7
 21
624
  0
LINE
  8
0
 10
-7
 20
624
 11
-6.94479
 21
623.123
  0
LINE
  8
0
 10
-6.94479
 20
623.123
 11
-6.78008
 21
622.259
  0
LINE
  8
0
 10
-6.78008
 20
622.259
 11
-6.50842
 21
621.423
  0
LINE
  8
0
 10
-6.50842
 20
621.423
 11
-6.13414
 21
620.628
  0
LINE
  8
0
 10
-6.13414
 20
620.628
 11
-5.66312
 21
619.886
  0
LINE
  8
0
 10
-5.66312
 20
619.886
 11
-5.10277
 21
619.208
  0
LINE
  8
0
 10
-5.10277
 20
619.208
 11
-4.46196
 21
618.606
  0
LINE
  8
0
 10
-4.46196
 20
618.606
 11
-3.75078
 21
618.09
  0
LINE
  8
0
 10
-3.75078
 20
618.09
 11
-2.98045
 21
617.666
  0
LINE
  8
0
 10
-2.98045
 20
617.666
 11
-2.16312
 21
617.343
  0
LINE
  8
0
 10
-2.16312
 20
617.343
 11
-1.31166
 21
617.124
  0
LINE
  8
0
 10
-1.31166
 20
617.124
 11
-0.439529
 21
617.014
  0
LINE
  8
0
 10
-0.439529
 20
617.014
 11
0.439529
 21
617.014
  0
LINE
  8
0
 10
0.439529
 20
617.014
 11
1.31166
 21
617.124
  0
LINE
  8
0
 10
-0.0941772
 20
622.503
 11
-0.281067
 21
622.527
  0
LINE
  8
0
 10
-0.281067
 20
622.527
 11
-0.463516
 21
622.573
  0
LINE
  8
0
 10
-0.463516
 20
622.573
 11
-0.638657
 21
622.643
  0
LINE
  8
0
 10
-0.638657
 20
622.643
 11
-0.803726
 21
622.734
  0
LINE
  8
0
 10
-0.803726
 20
622.734
 11
-0.956131
 21
622.844
  0
LINE
  8
0
 10
-0.956131
 20
622.844
 11
-1.09344
 21
622.973
  0
LINE
  8
0
 10
-1.09344
 20
622.973
 11
-1.21352
 21
623.118
  0
LINE
  8
0
 10
-1.21352
 20
623.118
 11
-1.31445
 21
623.277
  0
LINE
  8
0
 10
-1.31445
 20
623.277
 11
-1.39465
 21
623.448
  0
LINE
  8
0
 10
-1.39465
 20
623.448
 11
-1.45287
 21
623.627
  0
LINE
  8
0
 10
-1.45287
 20
623.627
 11
-1.48816
 21
623.812
  0
LINE
  8
0
 10
-1.48816
 20
623.812
 11
-1.5
 21
624
  0
LINE
  8
0
 10
-1.5
 20
624
 11
-1.48816
 21
624.188
  0
LINE
  8
0
 10
-1.48816
 20
624.188
 11
-1.45287
 21
624.373
  0
LINE
  8
0
 10
-1.45287
 20
624.373
 11
-1.39465
 21
624.552
  0
LINE
  8
0
 10
-1.39465
 20
624.552
 11
-1.31445
 21
624.723
  0
LINE
  8
0
 10
-1.31445
 20
624.723
 11
-1.21352
 21
624.882
  0
LINE
  8
0
 10
-1.21352
 20
624.882
 11
-1.09344
 21
625.027
  0
LINE
  8
0
 10
-1.09344
 20
625.027
 11
-0.956131
 21
625.156
  0
LINE
  8
0
 10
-0.956131
 20
625.156
 11
-0.803726
 21
625.266
  0
LINE
  8
0
 10
-0.803726
 20
625.266
 11
-0.638657
 21
625.357
  0
LINE
  8
0
 10
-0.638657
 20
625.357
 11
-0.463516
 21
625.427
  0
LINE
  8
0
 10
-0.463516
 20
625.427
 11
-0.281067
 21
625.473
  0
LINE
  8
0
 10
-0.281067
 20
625.473
 11
-0.0941772
 21
625.497
  0
LINE
  8
0
 10
-0.0941772
 20
625.497
 11
0.0941772
 21
625.497
  0
LINE
  8
0
 10
0.0941772
 20
625.497
 11
0.281067
 21
625.473
  0
LINE
  8
0
 10
0.281067
 20
625.473
 11
0.463516
 21
625.427
  0
LINE
  8
0
 10
0.463516
 20
625.427
 11
0.638657
 21
625.357
  0
LINE
  8
0
 10
0.638657
 20
625.357
 11
0.803726
 21
625.266
  0
LINE
  8
0
 10
0.803726
 20
625.266
 11
0.956131
 21
625.156
  0
LINE
  8
0
 10
0.956131
 20
625.156
 11
1.09344
 21
625.027
  0
LINE
  8
0
 10
1.09344
 20
625.027
 11
1.21352
 21
624.882
  0
LINE
  8
0
 10
1.21352
 20
624.882
 11
1.31445
 21
624.723
  0
LINE
  8
0
 10
1.31445
 20
624.723
 11
1.39465
 21
624.552
  0
LINE
  8
0
 10
1.39465
 20
624.552
 11
1.45287
 21
624.373
  0
LINE
  8
0
 10
1.45287
 20
624.373
 11
1.48816
 21
624.188
  0
LINE
  8
0
 10
1.48816
 20
624.188
 11
1.5
 21
624
  0
LINE
  8
0
 10
1.5
 20
624
 11
1.48816
 21
623.812
  0
LINE
  8
0
 10
1.48816
 20
623.812
 11
1.45287
 21
623.627
  0
LINE
  8
0
 10
1.45287
 20
623.627
 11
1.39465
 21
623.448
  0
LINE
  8
0
 10
1.39465
 20
623.448
 11
1.31445
 21
623.277
  0
LINE
  8
0
 10
1.31445
 20
623.277
 11
1.21352
 21
623.118
  0
LINE
  8
0
 10
1.21352
 20
623.118
 11
1.09344
 21
622.973
  0
LINE
  8
0
 10
1.09344
 20
622.973
 11
0.956131
 21
622.844
  0
LINE
  8
0
 10
0.956131
 20
622.844
 11
0.803726
 21
622.734
  0
LINE
  8
0
 10
0.803726
 20
622.734
 11
0.638657
 21
622.643
  0
LINE
  8
0
 10
0.638657
 20
622.643
 11
0.463516
 21
622.573
  0
LINE
  8
0
 10
0.463516
 20
622.573
 11
0.281067
 21
622.527
  0
LINE
  8
0
 10
0.281067
 20
622.527
 11
0.0941772
 21
622.503
  0
LINE
  8
0
 10
0.0941772
 20
622.503
 11
-0.0941772
 21
622.503
  0
LINE
  8
0
 10
1.31166
 20
593.124
 11
2.16312
 21
593.343
  0
LINE
  8
0
 10
2.16312
 20
593.343
 11
2.98045
 21
593.666
  0
LINE
  8
0
 10
2.98045
 20
593.666
 11
3.75078
 21
594.09
  0
LINE
  8
0
 10
3.75078
 20
594.09
 11
4.46196
 21
594.606
  0
LINE
  8
0
 10
4.46196
 20
594.606
 11
5.10277
 21
595.208
  0
LINE
  8
0
 10
5.10277
 20
595.208
 11
5.66312
 21
595.886
  0
LINE
  8
0
 10
5.66312
 20
595.886
 11
6.13414
 21
596.628
  0
LINE
  8
0
 10
6.13414
 20
596.628
 11
6.50842
 21
597.423
  0
LINE
  8
0
 10
6.50842
 20
597.423
 11
6.78008
 21
598.259
  0
LINE
  8
0
 10
6.78008
 20
598.259
 11
6.94479
 21
599.123
  0
LINE
  8
0
 10
6.94479
 20
599.123
 11
7
 21
600
  0
LINE
  8
0
 10
7
 20
600
 11
6.94479
 21
600.877
  0
LINE
  8
0
 10
6.94479
 20
600.877
 11
6.78008
 21
601.741
  0
LINE
  8
0
 10
6.78008
 20
601.741
 11
6.50842
 21
602.577
  0
LINE
  8
0
 10
6.50842
 20
602.577
 11
6.13414
 21
603.372
  0
LINE
  8
0
 10
6.13414
 20
603.372
 11
5.66312
 21
604.114
  0
LINE
  8
0
 10
5.66312
 20
604.114
 11
5.10277
 21
604.792
  0
LINE
  8
0
 10
5.10277
 20
604.792
 11
4.46196
 21
605.394
  0
LINE
  8
0
 10
4.46196
 20
605.394
 11
3.75078
 21
605.91
  0
LINE
  8
0
 10
3.75078
 20
605.91
 11
2.98045
 21
606.334
  0
LINE
  8
0
 10
2.98045
 20
606.334
 11
2.16312
 21
606.657
  0
LINE
  8
0
 10
2.16312
 20
606.657
 11
1.31166
 21
606.876
  0
LINE
  8
0
 10
1.31166
 20
606.876
 11
0.439529
 21
606.986
  0
LINE
  8
0
 10
0.439529
 20
606.986
 11
-0.439529
 21
606.986
  0
LINE
  8
0
 10
-0.439529
 20
606.986
 11
-1.31166
 21
606.876
  0
LINE
  8
0
 10
-1.31166
 20
606.876
 11
-2.16312
 21
606.657
  0
LINE
  8
0
 10
-2.16312
 20
606.657
 11
-2.98045
 21
606.334
  0
LINE
  8
0
 10
-2.98045
 20
606.334
 11
-3.75078
 21
605.91
  0
LINE
  8
0
 10
-3.75078
 20
605.91
 11
-4.46196
 21
605.394
  0
LINE
  8
0
 10
-4.46196
 20
605.394
 11
-5.10277
 21
604.792
  0
LINE
  8
0
 10
-5.10277
 20
604.792
 11
-5.66312
 21
604.114
  0
LINE
  8
0
 10
-5.66312
 20
604.114
 11
-6.13414
 21
603.372
  0
LINE
  8
0
 10
-6.13414
 20
603.372
 11
-6.50842
 21
602.577
  0
LINE
  8
0
 10
-6.50842
 20
602.577
 11
-6.78008
 21
601.741
  0
LINE
  8
0
 10
-6.78008
 20
601.741
 11
-6.94479
 21
600.877
  0
LINE
  8
0
 10
-6.94479
 20
600.877
 11
-7
 21
600
  0
LINE
  8
0
 10
-7
 20
600
 11
-6.94479
 21
599.123
  0
LINE
  8
0
 10
-6.94479
 20
599.123
 11
-6.78008
 21
598.259
  0
LINE
  8
0
 10
-6.78008
 20
598.259
 11
-6.50842
 21
597.423
  0
LINE
  8
0
 10
-6.50842
 20
597.423
 11
-6.13414
 21
596.628
  0
LINE
  8
0
 10
-6.13414
 20
596.628
 11
-5.66312
 21
595.886
  0
LINE
  8
0
 10
-5.66312
 20
595.886
 11
-5.10277
 21
595.208
  0
LINE
  8
0
 10
-5.10277
 20
595.208
 11
-4.46196
 21
594.606
  0
LINE
  8
0
 10
-4.46196
 20
594.606
 11
-3.75078
 21
594.09
  0
LINE
  8
0
 10
-3.75078
 20
594.09
 11
-2.98045
 21
593.666
  0
LINE
  8
0
 10
-2.98045
 20
593.666
 11
-2.16312
 21
593.343
  0
LINE
  8
0
 10
-2.16312
 20
593.343
 11
-1.31166
 21
593.124
  0
LINE
  8
0
 10
-1.31166
 20
593.124
 11
-0.439529
 21
593.014
  0
LINE
  8
0
 10
-0.439529
 20
593.014
 11
0.439529
 21
593.014
  0
LINE
  8
0
 10
0.439529
 20
593.014
 11
1.31166
 21
593.124
  0
LINE
  8
0
 10
-0.0941772
 20
598.503
 11
-0.281067
 21
598.527
  0
LINE
  8
0
 10
-0.281067
 20
598.527
 11
-0.463516
 21
598.573
  0
LINE
  8
0
 10
-0.463516
 20
598.573
 11
-0.638657
 21
598.643
  0
LINE
  8
0
 10
-0.638657
 20
598.643
 11
-0.803726
 21
598.734
  0
LINE
  8
0
 10
-0.803726
 20
598.734
 11
-0.956131
 21
598.844
  0
LINE
  8
0
 10
-0.956131
 20
598.844
 11
-1.09344
 21
598.973
  0
LINE
  8
0
 10
-1.09344
 20
598.973
 11
-1.21352
 21
599.118
  0
LINE
  8
0
 10
-1.21352
 20
599.118
 11
-1.31445
 21
599.277
  0
LINE
  8
0
 10
-1.31445
 20
599.277
 11
-1.39465
 21
599.448
  0
LINE
  8
0
 10
-1.39465
 20
599.448
 11
-1.45287
 21
599.627
  0
LINE
  8
0
 10
-1.45287
 20
599.627
 11
-1.48816
 21
599.812
  0
LINE
  8
0
 10
-1.48816
 20
599.812
 11
-1.5
 21
600
  0
LINE
  8
0
 10
-1.5
 20
600
 11
-1.48816
 21
600.188
  0
LINE
  8
0
 10
-1.48816
 20
600.188
 11
-1.45287
 21
600.373
  0
LINE
  8
0
 10
-1.45287
 20
600.373
 11
-1.39465
 21
600.552
  0
LINE
  8
0
 10
-1.39465
 20
600.552
 11
-1.31445
 21
600.723
  0
LINE
  8
0
 10
-1.31445
 20
600.723
 11
-1.21352
 21
600.882
  0
LINE
  8
0
 10
-1.21352
 20
600.882
 11
-1.09344
 21
601.027
  0
LINE
  8
0
 10
-1.09344
 20
601.027
 11
-0.956131
 21
601.156
  0
LINE
  8
0
 10
-0.956131
 20
601.156
 11
-0.803726
 21
601.266
  0
LINE
  8
0
 10
-0.803726
 20
601.266
 11
-0.638657
 21
601.357
  0
LINE
  8
0
 10
-0.638657
 20
601.357
 11
-0.463516
 21
601.427
  0
LINE
  8
0
 10
-0.463516
 20
601.427
 11
-0.281067
 21
601.473
  0
LINE
  8
0
 10
-0.281067
 20
601.473
 11
-0.0941772
 21
601.497
  0
LINE
  8
0
 10
-0.0941772
 20
601.497
 11
0.0941772
 21
601.497
  0
LINE
  8
0
 10
0.0941772
 20
601.497
 11
0.281067
 21
601.473
  0
LINE
  8
0
 10
0.281067
 20
601.473
 11
0.463516
 21
601.427
  0
LINE
  8
0
 10
0.463516
 20
601.427
 11
0.638657
 21
601.357
  0
LINE
  8
0
 10
0.638657
 20
601.357
 11
0.803726
 21
601.266
  0
LINE
  8
0
 10
0.803726
 20
601.266
 11
0.956131
 21
601.156
  0
LINE
  8
0
 10
0.956131
 20
601.156
 11
1.09344
 21
601.027
  0
LINE
  8
0
 10
1.09344
 20
601.027
 11
1.21352
 21
600.882
  0
LINE
  8
0
 10
1.21352
 20
600.882
 11
1.31445
 21
600.723
  0
LINE
  8
0
 10
1.31445
 20
600.723
 11
1.39465
 21
600.552
  0
LINE
  8
0
 10
1.39465
 20
600.552
 11
1.45287
 21
600.373
  0
LINE
  8
0
 10
1.45287
 20
600.373
 11
1.48816
 21
600.188
  0
LINE
  8
0
 10
1.48816
 20
600.188
 11
1.5
 21
600
  0
LINE
  8
0
 10
1.5
 20
600
 11
1.48816
 21
599.812
  0
LINE
  8
0
 10
1.48816
 20
599.812
 11
1.45287
 21
599.627
  0
LINE
  8
0
 10
1.45287
 20
599.627
 11
1.39465
 21
599.448
  0
LINE
  8
0
 10
1.39465
 20
599.448
 11
1.31445
 21
599.277
  0
LINE
  8
0
 10
1.31445
 20
599.277
 11
1.21352
 21
599.118
  0
LINE
  8
0
 10
1.21352
 20
599.118
 11
1.09344
 21
598.973
  0
LINE
  8
0
 10
1.09344
 20
598.973
 11
0.956131
 21
598.844
  0
LINE
  8
0
 10
0.956131
 20
598.844
 11
0.803726
 21
598.734
  0
LINE
  8
0
 10
0.803726
 20
598.734
 11
0.638657
 21
598.643
  0
LINE
  8
0
 10
0.638657
 20
598.643
 11
0.463516
 21
598.573
  0
LINE
  8
0
 10
0.463516
 20
598.573
 11
0.281067
 21
598.527
  0
LINE
  8
0
 10
0.281067
 20
598.527
 11
0.0941772
 21
598.503
  0
LINE
  8
0
 10
0.0941772
 20
598.503
 11
-0.0941772
 21
598.503
  0
LINE
  8
0
 10
1.31166
 20
569.124
 11
2.16312
 21
569.343
  0
LINE
  8
0
 10
2.16312
 20
569.343
 11
2.98045
 21
569.666
  0
LINE
  8
0
 10
2.98045
 20
569.666
 11
3.75078
 21
570.09
  0
LINE
  8
0
 10
3.75078
 20
570.09
 11
4.46196
 21
570.606
  0
LINE
  8
0
 10
4.46196
 20
570.606
 11
5.10277
 21
571.208
  0
LINE
  8
0
 10
5.10277
 20
571.208
 11
5.66312
 21
571.886
  0
LINE
  8
0
 10
5.66312
 20
571.886
 11
6.13414
 21
572.628
  0
LINE
  8
0
 10
6.13414
 20
572.628
 11
6.50842
 21
573.423
  0
LINE
  8
0
 10
6.50842
 20
573.423
 11
6.78008
 21
574.259
  0
LINE
  8
0
 10
6.78008
 20
574.259
 11
6.94479
 21
575.123
  0
LINE
  8
0
 10
6.94479
 20
575.123
 11
7
 21
576
  0
LINE
  8
0
 10
7
 20
576
 11
6.94479
 21
576.877
  0
LINE
  8
0
 10
6.94479
 20
576.877
 11
6.78008
 21
577.741
  0
LINE
  8
0
 10
6.78008
 20
577.741
 11
6.50842
 21
578.577
  0
LINE
  8
0
 10
6.50842
 20
578.577
 11
6.13414
 21
579.372
  0
LINE
  8
0
 10
6.13414
 20
579.372
 11
5.66312
 21
580.114
  0
LINE
  8
0
 10
5.66312
 20
580.114
 11
5.10277
 21
580.792
  0
LINE
  8
0
 10
5.10277
 20
580.792
 11
4.46196
 21
581.394
  0
LINE
  8
0
 10
4.46196
 20
581.394
 11
3.75078
 21
581.91
  0
LINE
  8
0
 10
3.75078
 20
581.91
 11
2.98045
 21
582.334
  0
LINE
  8
0
 10
2.98045
 20
582.334
 11
2.16312
 21
582.657
  0
LINE
  8
0
 10
2.16312
 20
582.657
 11
1.31166
 21
582.876
  0
LINE
  8
0
 10
1.31166
 20
582.876
 11
0.439529
 21
582.986
  0
LINE
  8
0
 10
0.439529
 20
582.986
 11
-0.439529
 21
582.986
  0
LINE
  8
0
 10
-0.439529
 20
582.986
 11
-1.31166
 21
582.876
  0
LINE
  8
0
 10
-1.31166
 20
582.876
 11
-2.16312
 21
582.657
  0
LINE
  8
0
 10
-2.16312
 20
582.657
 11
-2.98045
 21
582.334
  0
LINE
  8
0
 10
-2.98045
 20
582.334
 11
-3.75078
 21
581.91
  0
LINE
  8
0
 10
-3.75078
 20
581.91
 11
-4.46196
 21
581.394
  0
LINE
  8
0
 10
-4.46196
 20
581.394
 11
-5.10277
 21
580.792
  0
LINE
  8
0
 10
-5.10277
 20
580.792
 11
-5.66312
 21
580.114
  0
LINE
  8
0
 10
-5.66312
 20
580.114
 11
-6.13414
 21
579.372
  0
LINE
  8
0
 10
-6.13414
 20
579.372
 11
-6.50842
 21
578.577
  0
LINE
  8
0
 10
-6.50842
 20
578.577
 11
-6.78008
 21
577.741
  0
LINE
  8
0
 10
-6.78008
 20
577.741
 11
-6.94479
 21
576.877
  0
LINE
  8
0
 10
-6.94479
 20
576.877
 11
-7
 21
576
  0
LINE
  8
0
 10
-7
 20
576
 11
-6.94479
 21
575.123
  0
LINE
  8
0
 10
-6.94479
 20
575.123
 11
-6.78008
 21
574.259
  0
LINE
  8
0
 10
-6.78008
 20
574.259
 11
-6.50842
 21
573.423
  0
LINE
  8
0
 10
-6.50842
 20
573.423
 11
-6.13414
 21
572.628
  0
LINE
  8
0
 10
-6.13414
 20
572.628
 11
-5.66312
 21
571.886
  0
LINE
  8
0
 10
-5.66312
 20
571.886
 11
-5.10277
 21
571.208
  0
LINE
  8
0
 10
-5.10277
 20
571.208
 11
-4.46196
 21
570.606
  0
LINE
  8
0
 10
-4.46196
 20
570.606
 11
-3.75078
 21
570.09
  0
LINE
  8
0
 10
-3.75078
 20
570.09
 11
-2.98045
 21
569.666
  0
LINE
  8
0
 10
-2.98045
 20
569.666
 11
-2.16312
 21
569.343
  0
LINE
  8
0
 10
-2.16312
 20
569.343
 11
-1.31166
 21
569.124
  0
LINE
  8
0
 10
-1.31166
 20
569.124
 11
-0.439529
 21
569.014
  0
LINE
  8
0
 10
-0.439529
 20
569.014
 11
0.439529
 21
569.014
  0
LINE
  8
0
 10
0.439529
 20
569.014
 11
1.31166
 21
569.124
  0
LINE
  8
0
 10
-0.0941772
 20
574.503
 11
-0.281067
 21
574.527
  0
LINE
  8
0
 10
-0.281067
 20
574.527
 11
-0.463516
 21
574.573
  0
LINE
  8
0
 10
-0.463516
 20
574.573
 11
-0.638657
 21
574.643
  0
LINE
  8
0
 10
-0.638657
 20
574.643
 11
-0.803726
 21
574.734
  0
LINE
  8
0
 10
-0.803726
 20
574.734
 11
-0.956131
 21
574.844
  0
LINE
  8
0
 10
-0.956131
 20
574.844
 11
-1.09344
 21
574.973
  0
LINE
  8
0
 10
-1.09344
 20
574.973
 11
-1.21352
 21
575.118
  0
LINE
  8
0
 10
-1.21352
 20
575.118
 11
-1.31445
 21
575.277
  0
LINE
  8
0
 10
-1.31445
 20
575.277
 11
-1.39465
 21
575.448
  0
LINE
  8
0
 10
-1.39465
 20
575.448
 11
-1.45287
 21
575.627
  0
LINE
  8
0
 10
-1.45287
 20
575.627
 11
-1.48816
 21
575.812
  0
LINE
  8
0
 10
-1.48816
 20
575.812
 11
-1.5
 21
576
  0
LINE
  8
0
 10
-1.5
 20
576
 11
-1.48816
 21
576.188
  0
LINE
  8
0
 10
-1.48816
 20
576.188
 11
-1.45287
 21
576.373
  0
LINE
  8
0
 10
-1.45287
 20
576.373
 11
-1.39465
 21
576.552
  0
LINE
  8
0
 10
-1.39465
 20
576.552
 11
-1.31445
 21
576.723
  0
LINE
  8
0
 10
-1.31445
 20
576.723
 11
-1.21352
 21
576.882
  0
LINE
  8
0
 10
-1.21352
 20
576.882
 11
-1.09344
 21
577.027
  0
LINE
  8
0
 10
-1.09344
 20
577.027
 11
-0.956131
 21
577.156
  0
LINE
  8
0
 10
-0.956131
 20
577.156
 11
-0.803726
 21
577.266
  0
LINE
  8
0
 10
-0.803726
 20
577.266
 11
-0.638657
 21
577.357
  0
LINE
  8
0
 10
-0.638657
 20
577.357
 11
-0.463516
 21
577.427
  0
LINE
  8
0
 10
-0.463516
 20
577.427
 11
-0.281067
 21
577.473
  0
LINE
  8
0
 10
-0.281067
 20
577.473
 11
-0.0941772
 21
577.497
  0
LINE
  8
0
 10
-0.0941772
 20
577.497
 11
0.0941772
 21
577.497
  0
LINE
  8
0
 10
0.0941772
 20
577.497
 11
0.281067
 21
577.473
  0
LINE
  8
0
 10
0.281067
 20
577.473
 11
0.463516
 21
577.427
  0
LINE
  8
0
 10
0.463516
 20
577.427
 11
0.638657
 21
577.357
  0
LINE
  8
0
 10
0.638657
 20
577.357
 11
0.803726
 21
577.266
  0
LINE
  8
0
 10
0.803726
 20
577.266
 11
0.956131
 21
577.156
  0
LINE
  8
0
 10
0.956131
 20
577.156
 11
1.09344
 21
577.027
  0
LINE
  8
0
 10
1.09344
 20
577.027
 11
1.21352
 21
576.882
  0
LINE
  8
0
 10
1.21352
 20
576.882
 11
1.31445
 21
576.723
  0
LINE
  8
0
 10
1.31445
 20
576.723
 11
1.39465
 21
576.552
  0
LINE
  8
0
 10
1.39465
 20
576.552
 11
1.45287
 21
576.373
  0
LINE
  8
0
 10
1.45287
 20
576.373
 11
1.48816
 21
576.188
  0
LINE
  8
0
 10
1.48816
 20
576.188
 11
1.5
 21
576
  0
LINE
  8
0
 10
1.5
 20
576
 11
1.48816
 21
575.812
  0
LINE
  8
0
 10
1.48816
 20
575.812
 11
1.45287
 21
575.627
  0
LINE
  8
0
 10
1.45287
 20
575.627
 11
1.39465
 21
575.448
  0
LINE
  8
0
 10
1.39465
 20
575.448
 11
1.31445
 21
575.277
  0
LINE
  8
0
 10
1.31445
 20
575.277
 11
1.21352
 21
575.118
  0
LINE
  8
0
 10
1.21352
 20
575.118
 11
1.09344
 21
574.973
  0
LINE
  8
0
 10
1.09344
 20
574.973
 11
0.956131
 21
574.844
  0
LINE
  8
0
 10
0.956131
 20
574.844
 11
0.803726
 21
574.734
  0
LINE
  8
0
 10
0.803726
 20
574.734
 11
0.638657
 21
574.643
  0
LINE
  8
0
 10
0.638657
 20
574.643
 11
0.463516
 21
574.573
  0
LINE
  8
0
 10
0.463516
 20
574.573
 11
0.281067
 21
574.527
  0
LINE
  8
0
 10
0.281067
 20
574.527
 11
0.0941772
 21
574.503
  0
LINE
  8
0
 10
0.0941772
 20
574.503
 11
-0.0941772
 21
574.503
  0
LINE
  8
0
 10
1.31166
 20
545.124
 11
2.16312
 21
545.343
  0
LINE
  8
0
 10
2.16312
 20
545.343
 11
2.98045
 21
545.666
  0
LINE
  8
0
 10
2.98045
 20
545.666
 11
3.75078
 21
546.09
  0
LINE
  8
0
 10
3.75078
 20
546.09
 11
4.46196
 21
546.606
  0
LINE
  8
0
 10
4.46196
 20
546.606
 11
5.10277
 21
547.208
  0
LINE
  8
0
 10
5.10277
 20
547.208
 11
5.66312
 21
547.886
  0
LINE
  8
0
 10
5.66312
 20
547.886
 11
6.13414
 21
548.628
  0
LINE
  8
0
 10
6.13414
 20
548.628
 11
6.50842
 21
549.423
  0
LINE
  8
0
 10
6.50842
 20
549.423
 11
6.78008
 21
550.259
  0
LINE
  8
0
 10
6.78008
 20
550.259
 11
6.94479
 21
551.123
  0
LINE
  8
0
 10
6.94479
 20
551.123
 11
7
 21
552
  0
LINE
  8
0
 10
7
 20
552
 11
6.94479
 21
552.877
  0
LINE
  8
0
 10
6.94479
 20
552.877
 11
6.78008
 21
553.741
  0
LINE
  8
0
 10
6.78008
 20
553.741
 11
6.50842
 21
554.577
  0
LINE
  8
0
 10
6.50842
 20
554.577
 11
6.13414
 21
555.372
  0
LINE
  8
0
 10
6.13414
 20
555.372
 11
5.66312
 21
556.114
  0
LINE
  8
0
 10
5.66312
 20
556.114
 11
5.10277
 21
556.792
  0
LINE
  8
0
 10
5.10277
 20
556.792
 11
4.46196
 21
557.394
  0
LINE
  8
0
 10
4.46196
 20
557.394
 11
3.75078
 21
557.91
  0
LINE
  8
0
 10
3.75078
 20
557.91
 11
2.98045
 21
558.334
  0
LINE
  8
0
 10
2.98045
 20
558.334
 11
2.16312
 21
558.657
  0
LINE
  8
0
 10
2.16312
 20
558.657
 11
1.31166
 21
558.876
  0
LINE
  8
0
 10
1.31166
 20
558.876
 11
0.439529
 21
558.986
  0
LINE
  8
0
 10
0.439529
 20
558.986
 11
-0.439529
 21
558.986
  0
LINE
  8
0
 10
-0.439529
 20
558.986
 11
-1.31166
 21
558.876
  0
LINE
  8
0
 10
-1.31166
 20
558.876
 11
-2.16312
 21
558.657
  0
LINE
  8
0
 10
-2.16312
 20
558.657
 11
-2.98045
 21
558.334
  0
LINE
  8
0
 10
-2.98045
 20
558.334
 11
-3.75078
 21
557.91
  0
LINE
  8
0
 10
-3.75078
 20
557.91
 11
-4.46196
 21
557.394
  0
LINE
  8
0
 10
-4.46196
 20
557.394
 11
-5.10277
 21
556.792
  0
LINE
  8
0
 10
-5.10277
 20
556.792
 11
-5.66312
 21
556.114
  0
LINE
  8
0
 10
-5.66312
 20
556.114
 11
-6.13414
 21
555.372
  0
LINE
  8
0
 10
-6.13414
 20
555.372
 11
-6.50842
 21
554.577
  0
LINE
  8
0
 10
-6.50842
 20
554.577
 11
-6.78008
 21
553.741
  0
LINE
  8
0
 10
-6.78008
 20
553.741
 11
-6.94479
 21
552.877
  0
LINE
  8
0
 10
-6.94479
 20
552.877
 11
-7
 21
552
  0
LINE
  8
0
 10
-7
 20
552
 11
-6.94479
 21
551.123
  0
LINE
  8
0
 10
-6.94479
 20
551.123
 11
-6.78008
 21
550.259
  0
LINE
  8
0
 10
-6.78008
 20
550.259
 11
-6.50842
 21
549.423
  0
LINE
  8
0
 10
-6.50842
 20
549.423
 11
-6.13414
 21
548.628
  0
LINE
  8
0
 10
-6.13414
 20
548.628
 11
-5.66312
 21
547.886
  0
LINE
  8
0
 10
-5.66312
 20
547.886
 11
-5.10277
 21
547.208
  0
LINE
  8
0
 10
-5.10277
 20
547.208
 11
-4.46196
 21
546.606
  0
LINE
  8
0
 10
-4.46196
 20
546.606
 11
-3.75078
 21
546.09
  0
LINE
  8
0
 10
-3.75078
 20
546.09
 11
-2.98045
 21
545.666
  0
LINE
  8
0
 10
-2.98045
 20
545.666
 11
-2.16312
 21
545.343
  0
LINE
  8
0
 10
-2.16312
 20
545.343
 11
-1.31166
 21
545.124
  0
LINE
  8
0
 10
-1.31166
 20
545.124
 11
-0.439529
 21
545.014
  0
LINE
  8
0
 10
-0.439529
 20
545.014
 11
0.439529
 21
545.014
  0
LINE
  8
0
 10
0.439529
 20
545.014
 11
1.31166
 21
545.124
  0
LINE
  8
0
 10
-0.0941772
 20
550.503
 11
-0.281067
 21
550.527
  0
LINE
  8
0
 10
-0.281067
 20
550.527
 11
-0.463516
 21
550.573
  0
LINE
  8
0
 10
-0.463516
 20
550.573
 11
-0.638657
 21
550.643
  0
LINE
  8
0
 10
-0.638657
 20
550.643
 11
-0.803726
 21
550.734
  0
LINE
  8
0
 10
-0.803726
 20
550.734
 11
-0.956131
 21
550.844
  0
LINE
  8
0
 10
-0.956131
 20
550.844
 11
-1.09344
 21
550.973
  0
LINE
  8
0
 10
-1.09344
 20
550.973
 11
-1.21352
 21
551.118
  0
LINE
  8
0
 10
-1.21352
 20
551.118
 11
-1.31445
 21
551.277
  0
LINE
  8
0
 10
-1.31445
 20
551.277
 11
-1.39465
 21
551.448
  0
LINE
  8
0
 10
-1.39465
 20
551.448
 11
-1.45287
 21
551.627
  0
LINE
  8
0
 10
-1.45287
 20
551.627
 11
-1.48816
 21
551.812
  0
LINE
  8
0
 10
-1.48816
 20
551.812
 11
-1.5
 21
552
  0
LINE
  8
0
 10
-1.5
 20
552
 11
-1.48816
 21
552.188
  0
LINE
  8
0
 10
-1.48816
 20
552.188
 11
-1.45287
 21
552.373
  0
LINE
  8
0
 10
-1.45287
 20
552.373
 11
-1.39465
 21
552.552
  0
LINE
  8
0
 10
-1.39465
 20
552.552
 11
-1.31445
 21
552.723
  0
LINE
  8
0
 10
-1.31445
 20
552.723
 11
-1.21352
 21
552.882
  0
LINE
  8
0
 10
-1.21352
 20
552.882
 11
-1.09344
 21
553.027
  0
LINE
  8
0
 10
-1.09344
 20
553.027
 11
-0.956131
 21
553.156
  0
LINE
  8
0
 10
-0.956131
 20
553.156
 11
-0.803726
 21
553.266
  0
LINE
  8
0
 10
-0.803726
 20
553.266
 11
-0.638657
 21
553.357
  0
LINE
  8
0
 10
-0.638657
 20
553.357
 11
-0.463516
 21
553.427
  0
LINE
  8
0
 10
-0.463516
 20
553.427
 11
-0.281067
 21
553.473
  0
LINE
  8
0
 10
-0.281067
 20
553.473
 11
-0.0941772
 21
553.497
  0
LINE
  8
0
 10
-0.0941772
 20
553.497
 11
0.0941772
 21
553.497
  0
LINE
  8
0
 10
0.0941772
 20
553.497
 11
0.281067
 21
553.473
  0
LINE
  8
0
 10
0.281067
 20
553.473
 11
0.463516
 21
553.427
  0
LINE
  8
0
 10
0.463516
 20
553.427
 11
0.638657
 21
553.357
  0
LINE
  8
0
 10
0.638657
 20
553.357
 11
0.803726
 21
553.266
  0
LINE
  8
0
 10
0.803726
 20
553.266
 11
0.956131
 21
553.156
  0
LINE
  8
0
 10
0.956131
 20
553.156
 11
1.09344
 21
553.027
  0
LINE
  8
0
 10
1.09344
 20
553.027
 11
1.21352
 21
552.882
  0
LINE
  8
0
 10
1.21352
 20
552.882
 11
1.31445
 21
552.723
  0
LINE
  8
0
 10
1.31445
 20
552.723
 11
1.39465
 21
552.552
  0
LINE
  8
0
 10
1.39465
 20
552.552
 11
1.45287
 21
552.373
  0
LINE
  8
0
 10
1.45287
 20
552.373
 11
1.48816
 21
552.188
  0
LINE
  8
0
 10
1.48816
 20
552.188
 11
1.5
 21
552
  0
LINE
  8
0
 10
1.5
 20
552
 11
1.48816
 21
551.812
  0
LINE
  8
0
 10
1.48816
 20
551.812
 11
1.45287
 21
551.627
  0
LINE
  8
0
 10
1.45287
 20
551.627
 11
1.39465
 21
551.448
  0
LINE
  8
0
 10
1.39465
 20
551.448
 11
1.31445
 21
551.277
  0
LINE
  8
0
 10
1.31445
 20
551.277
 11
1.21352
 21
551.118
  0
LINE
  8
0
 10
1.21352
 20
551.118
 11
1.09344
 21
550.973
  0
LINE
  8
0
 10
1.09344
 20
550.973
 11
0.956131
 21
550.844
  0
LINE
  8
0
 10
0.956131
 20
550.844
 11
0.803726
 21
550.734
  0
LINE
  8
0
 10
0.803726
 20
550.734
 11
0.638657
 21
550.643
  0
LINE
  8
0
 10
0.638657
 20
550.643
 11
0.463516
 21
550.573
  0
LINE
  8
0
 10
0.463516
 20
550.573
 11
0.281067
 21
550.527
  0
LINE
  8
0
 10
0.281067
 20
550.527
 11
0.0941772
 21
550.503
  0
LINE
  8
0
 10
0.0941772
 20
550.503
 11
-0.0941772
 21
550.503
  0
LINE
  8
0
 10
1.31166
 20
521.124
 11
2.16312
 21
521.343
  0
LINE
  8
0
 10
2.16312
 20
521.343
 11
2.98045
 21
521.666
  0
LINE
  8
0
 10
2.98045
 20
521.666
 11
3.75078
 21
522.09
  0
LINE
  8
0
 10
3.75078
 20
522.09
 11
4.46196
 21
522.606
  0
LINE
  8
0
 10
4.46196
 20
522.606
 11
5.10277
 21
523.208
  0
LINE
  8
0
 10
5.10277
 20
523.208
 11
5.66312
 21
523.886
  0
LINE
  8
0
 10
5.66312
 20
523.886
 11
6.13414
 21
524.628
  0
LINE
  8
0
 10
6.13414
 20
524.628
 11
6.50842
 21
525.423
  0
LINE
  8
0
 10
6.50842
 20
525.423
 11
6.78008
 21
526.259
  0
LINE
  8
0
 10
6.78008
 20
526.259
 11
6.94479
 21
527.123
  0
LINE
  8
0
 10
6.94479
 20
527.123
 11
7
 21
528
  0
LINE
  8
0
 10
7
 20
528
 11
6.94479
 21
528.877
  0
LINE
  8
0
 10
6.94479
 20
528.877
 11
6.78008
 21
529.741
  0
LINE
  8
0
 10
6.78008
 20
529.741
 11
6.50842
 21
530.577
  0
LINE
  8
0
 10
6.50842
 20
530.577
 11
6.13414
 21
531.372
  0
LINE
  8
0
 10
6.13414
 20
531.372
 11
5.66312
 21
532.114
  0
LINE
  8
0
 10
5.66312
 20
532.114
 11
5.10277
 21
532.792
  0
LINE
  8
0
 10
5.10277
 20
532.792
 11
4.46196
 21
533.394
  0
LINE
  8
0
 10
4.46196
 20
533.394
 11
3.75078
 21
533.91
  0
LINE
  8
0
 10
3.75078
 20
533.91
 11
2.98045
 21
534.334
  0
LINE
  8
0
 10
2.98045
 20
534.334
 11
2.16312
 21
534.657
  0
LINE
  8
0
 10
2.16312
 20
534.657
 11
1.31166
 21
534.876
  0
LINE
  8
0
 10
1.31166
 20
534.876
 11
0.439529
 21
534.986
  0
LINE
  8
0
 10
0.439529
 20
534.986
 11
-0.439529
 21
534.986
  0
LINE
  8
0
 10
-0.439529
 20
534.986
 11
-1.31166
 21
534.876
  0
LINE
  8
0
 10
-1.31166
 20
534.876
 11
-2.16312
 21
534.657
  0
LINE
  8
0
 10
-2.16312
 20
534.657
 11
-2.98045
 21
534.334
  0
LINE
  8
0
 10
-2.98045
 20
534.334
 11
-3.75078
 21
533.91
  0
LINE
  8
0
 10
-3.75078
 20
533.91
 11
-4.46196
 21
533.394
  0
LINE
  8
0
 10
-4.46196
 20
533.394
 11
-5.10277
 21
532.792
  0
LINE
  8
0
 10
-5.10277
 20
532.792
 11
-5.66312
 21
532.114
  0
LINE
  8
0
 10
-5.66312
 20
532.114
 11
-6.13414
 21
531.372
  0
LINE
  8
0
 10
-6.13414
 20
531.372
 11
-6.50842
 21
530.577
  0
LINE
  8
0
 10
-6.50842
 20
530.577
 11
-6.78008
 21
529.741
  0
LINE
  8
0
 10
-6.78008
 20
529.741
 11
-6.94479
 21
528.877
  0
LINE
  8
0
 10
-6.94479
 20
528.877
 11
-7
 21
528
  0
LINE
  8
0
 10
-7
 20
528
 11
-6.94479
 21
527.123
  0
LINE
  8
0
 10
-6.94479
 20
527.123
 11
-6.78008
 21
526.259
  0
LINE
  8
0
 10
-6.78008
 20
526.259
 11
-6.50842
 21
525.423
  0
LINE
  8
0
 10
-6.50842
 20
525.423
 11
-6.13414
 21
524.628
  0
LINE
  8
0
 10
-6.13414
 20
524.628
 11
-5.66312
 21
523.886
  0
LINE
  8
0
 10
-5.66312
 20
523.886
 11
-5.10277
 21
523.208
  0
LINE
  8
0
 10
-5.10277
 20
523.208
 11
-4.46196
 21
522.606
  0
LINE
  8
0
 10
-4.46196
 20
522.606
 11
-3.75078
 21
522.09
  0
LINE
  8
0
 10
-3.75078
 20
522.09
 11
-2.98045
 21
521.666
  0
LINE
  8
0
 10
-2.98045
 20
521.666
 11
-2.16312
 21
521.343
  0
LINE
  8
0
 10
-2.16312
 20
521.343
 11
-1.31166
 21
521.124
  0
LINE
  8
0
 10
-1.31166
 20
521.124
 11
-0.439529
 21
521.014
  0
LINE
  8
0
 10
-0.439529
 20
521.014
 11
0.439529
 21
521.014
  0
LINE
  8
0
 10
0.439529
 20
521.014
 11
1.31166
 21
521.124
  0
LINE
  8
0
 10
-0.0941772
 20
526.503
 11
-0.281067
 21
526.527
  0
LINE
  8
0
 10
-0.281067
 20
526.527
 11
-0.463516
 21
526.573
  0
LINE
  8
0
 10
-0.463516
 20
526.573
 11
-0.638657
 21
526.643
  0
LINE
  8
0
 10
-0.638657
 20
526.643
 11
-0.803726
 21
526.734
  0
LINE
  8
0
 10
-0.803726
 20
526.734
 11
-0.956131
 21
526.844
  0
LINE
  8
0
 10
-0.956131
 20
526.844
 11
-1.09344
 21
526.973
  0
LINE
  8
0
 10
-1.09344
 20
526.973
 11
-1.21352
 21
527.118
  0
LINE
  8
0
 10
-1.21352
 20
527.118
 11
-1.31445
 21
527.277
  0
LINE
  8
0
 10
-1.31445
 20
527.277
 11
-1.39465
 21
527.448
  0
LINE
  8
0
 10
-1.39465
 20
527.448
 11
-1.45287
 21
527.627
  0
LINE
  8
0
 10
-1.45287
 20
527.627
 11
-1.48816
 21
527.812
  0
LINE
  8
0
 10
-1.48816
 20
527.812
 11
-1.5
 21
528
  0
LINE
  8
0
 10
-1.5
 20
528
 11
-1.48816
 21
528.188
  0
LINE
  8
0
 10
-1.48816
 20
528.188
 11
-1.45287
 21
528.373
  0
LINE
  8
0
 10
-1.45287
 20
528.373
 11
-1.39465
 21
528.552
  0
LINE
  8
0
 10
-1.39465
 20
528.552
 11
-1.31445
 21
528.723
  0
LINE
  8
0
 10
-1.31445
 20
528.723
 11
-1.21352
 21
528.882
  0
LINE
  8
0
 10
-1.21352
 20
528.882
 11
-1.09344
 21
529.027
  0
LINE
  8
0
 10
-1.09344
 20
529.027
 11
-0.956131
 21
529.156
  0
LINE
  8
0
 10
-0.956131
 20
529.156
 11
-0.803726
 21
529.266
  0
LINE
  8
0
 10
-0.803726
 20
529.266
 11
-0.638657
 21
529.357
  0
LINE
  8
0
 10
-0.638657
 20
529.357
 11
-0.463516
 21
529.427
  0
LINE
  8
0
 10
-0.463516
 20
529.427
 11
-0.281067
 21
529.473
  0
LINE
  8
0
 10
-0.281067
 20
529.473
 11
-0.0941772
 21
529.497
  0
LINE
  8
0
 10
-0.0941772
 20
529.497
 11
0.0941772
 21
529.497
  0
LINE
  8
0
 10
0.0941772
 20
529.497
 11
0.281067
 21
529.473
  0
LINE
  8
0
 10
0.281067
 20
529.473
 11
0.463516
 21
529.427
  0
LINE
  8
0
 10
0.463516
 20
529.427
 11
0.638657
 21
529.357
  0
LINE
  8
0
 10
0.638657
 20
529.357
 11
0.803726
 21
529.266
  0
LINE
  8
0
 10
0.803726
 20
529.266
 11
0.956131
 21
529.156
  0
LINE
  8
0
 10
0.956131
 20
529.156
 11
1.09344
 21
529.027
  0
LINE
  8
0
 10
1.09344
 20
529.027
 11
1.21352
 21
528.882
  0
LINE
  8
0
 10
1.21352
 20
528.882
 11
1.31445
 21
528.723
  0
LINE
  8
0
 10
1.31445
 20
528.723
 11
1.39465
 21
528.552
  0
LINE
  8
0
 10
1.39465
 20
528.552
 11
1.45287
 21
528.373
  0
LINE
  8
0
 10
1.45287
 20
528.373
 11
1.48816
 21
528.188
  0
LINE
  8
0
 10
1.48816
 20
528.188
 11
1.5
 21
528
  0
LINE
  8
0
 10
1.5
 20
528
 11
1.48816
 21
527.812
  0
LINE
  8
0
 10
1.48816
 20
527.812
 11
1.45287
 21
527.627
  0
LINE
  8
0
 10
1.45287
 20
527.627
 11
1.39465
 21
527.448
  0
LINE
  8
0
 10
1.39465
 20
527.448
 11
1.31445
 21
527.277
  0
LINE
  8
0
 10
1.31445
 20
527.277
 11
1.21352
 21
527.118
  0
LINE
  8
0
 10
1.21352
 20
527.118
 11
1.09344
 21
526.973
  0
LINE
  8
0
 10
1.09344
 20
526.973
 11
0.956131
 21
526.844
  0
LINE
  8
0
 10
0.956131
 20
526.844
 11
0.803726
 21
526.734
  0
LINE
  8
0
 10
0.803726
 20
526.734
 11
0.638657
 21
526.643
  0
LINE
  8
0
 10
0.638657
 20
526.643
 11
0.463516
 21
526.573
  0
LINE
  8
0
 10
0.463516
 20
526.573
 11
0.281067
 21
526.527
  0
LINE
  8
0
 10
0.281067
 20
526.527
 11
0.0941772
 21
526.503
  0
LINE
  8
0
 10
0.0941772
 20
526.503
 11
-0.0941772
 21
526.503
  0
LINE
  8
0
 10
1.31166
 20
497.124
 11
2.16312
 21
497.343
  0
LINE
  8
0
 10
2.16312
 20
497.343
 11
2.98045
 21
497.666
  0
LINE
  8
0
 10
2.98045
 20
497.666
 11
3.75078
 21
498.09
  0
LINE
  8
0
 10
3.75078
 20
498.09
 11
4.46196
 21
498.606
  0
LINE
  8
0
 10
4.46196
 20
498.606
 11
5.10277
 21
499.208
  0
LINE
  8
0
 10
5.10277
 20
499.208
 11
5.66312
 21
499.886
  0
LINE
  8
0
 10
5.66312
 20
499.886
 11
6.13414
 21
500.628
  0
LINE
  8
0
 10
6.13414
 20
500.628
 11
6.50842
 21
501.423
  0
LINE
  8
0
 10
6.50842
 20
501.423
 11
6.78008
 21
502.259
  0
LINE
  8
0
 10
6.78008
 20
502.259
 11
6.94479
 21
503.123
  0
LINE
  8
0
 10
6.94479
 20
503.123
 11
7
 21
504
  0
LINE
  8
0
 10
7
 20
504
 11
6.94479
 21
504.877
  0
LINE
  8
0
 10
6.94479
 20
504.877
 11
6.78008
 21
505.741
  0
LINE
  8
0
 10
6.78008
 20
505.741
 11
6.50842
 21
506.577
  0
LINE
  8
0
 10
6.50842
 20
506.577
 11
6.13414
 21
507.372
  0
LINE
  8
0
 10
6.13414
 20
507.372
 11
5.66312
 21
508.114
  0
LINE
  8
0
 10
5.66312
 20
508.114
 11
5.10277
 21
508.792
  0
LINE
  8
0
 10
5.10277
 20
508.792
 11
4.46196
 21
509.394
  0
LINE
  8
0
 10
4.46196
 20
509.394
 11
3.75078
 21
509.91
  0
LINE
  8
0
 10
3.75078
 20
509.91
 11
2.98045
 21
510.334
  0
LINE
  8
0
 10
2.98045
 20
510.334
 11
2.16312
 21
510.657
  0
LINE
  8
0
 10
2.16312
 20
510.657
 11
1.31166
 21
510.876
  0
LINE
  8
0
 10
1.31166
 20
510.876
 11
0.439529
 21
510.986
  0
LINE
  8
0
 10
0.439529
 20
510.986
 11
-0.439529
 21
510.986
  0
LINE
  8
0
 10
-0.439529
 20
510.986
 11
-1.31166
 21
510.876
  0
LINE
  8
0
 10
-1.31166
 20
510.876
 11
-2.16312
 21
510.657
  0
LINE
  8
0
 10
-2.16312
 20
510.657
 11
-2.98045
 21
510.334
  0
LINE
  8
0
 10
-2.98045
 20
510.334
 11
-3.75078
 21
509.91
  0
LINE
  8
0
 10
-3.75078
 20
509.91
 11
-4.46196
 21
509.394
  0
LINE
  8
0
 10
-4.46196
 20
509.394
 11
-5.10277
 21
508.792
  0
LINE
  8
0
 10
-5.10277
 20
508.792
 11
-5.66312
 21
508.114
  0
LINE
  8
0
 10
-5.66312
 20
508.114
 11
-6.13414
 21
507.372
  0
LINE
  8
0
 10
-6.13414
 20
507.372
 11
-6.50842
 21
506.577
  0
LINE
  8
0
 10
-6.50842
 20
506.577
 11
-6.78008
 21
505.741
  0
LINE
  8
0
 10
-6.78008
 20
505.741
 11
-6.94479
 21
504.877
  0
LINE
  8
0
 10
-6.94479
 20
504.877
 11
-7
 21
504
  0
LINE
  8
0
 10
-7
 20
504
 11
-6.94479
 21
503.123
  0
LINE
  8
0
 10
-6.94479
 20
503.123
 11
-6.78008
 21
502.259
  0
LINE
  8
0
 10
-6.78008
 20
502.259
 11
-6.50842
 21
501.423
  0
LINE
  8
0
 10
-6.50842
 20
501.423
 11
-6.13414
 21
500.628
  0
LINE
  8
0
 10
-6.13414
 20
500.628
 11
-5.66312
 21
499.886
  0
LINE
  8
0
 10
-5.66312
 20
499.886
 11
-5.10277
 21
499.208
  0
LINE
  8
0
 10
-5.10277
 20
499.208
 11
-4.46196
 21
498.606
  0
LINE
  8
0
 10
-4.46196
 20
498.606
 11
-3.75078
 21
498.09
  0
LINE
  8
0
 10
-3.75078
 20
498.09
 11
-2.98045
 21
497.666
  0
LINE
  8
0
 10
-2.98045
 20
497.666
 11
-2.16312
 21
497.343
  0
LINE
  8
0
 10
-2.16312
 20
497.343
 11
-1.31166
 21
497.124
  0
LINE
  8
0
 10
-1.31166
 20
497.124
 11
-0.439529
 21
497.014
  0
LINE
  8
0
 10
-0.439529
 20
497.014
 11
0.439529
 21
497.014
  0
LINE
  8
0
 10
0.439529
 20
497.014
 11
1.31166
 21
497.124
  0
LINE
  8
0
 10
-0.0941772
 20
502.503
 11
-0.281067
 21
502.527
  0
LINE
  8
0
 10
-0.281067
 20
502.527
 11
-0.463516
 21
502.573
  0
LINE
  8
0
 10
-0.463516
 20
502.573
 11
-0.638657
 21
502.643
  0
LINE
  8
0
 10
-0.638657
 20
502.643
 11
-0.803726
 21
502.734
  0
LINE
  8
0
 10
-0.803726
 20
502.734
 11
-0.956131
 21
502.844
  0
LINE
  8
0
 10
-0.956131
 20
502.844
 11
-1.09344
 21
502.973
  0
LINE
  8
0
 10
-1.09344
 20
502.973
 11
-1.21352
 21
503.118
  0
LINE
  8
0
 10
-1.21352
 20
503.118
 11
-1.31445
 21
503.277
  0
LINE
  8
0
 10
-1.31445
 20
503.277
 11
-1.39465
 21
503.448
  0
LINE
  8
0
 10
-1.39465
 20
503.448
 11
-1.45287
 21
503.627
  0
LINE
  8
0
 10
-1.45287
 20
503.627
 11
-1.48816
 21
503.812
  0
LINE
  8
0
 10
-1.48816
 20
503.812
 11
-1.5
 21
504
  0
LINE
  8
0
 10
-1.5
 20
504
 11
-1.48816
 21
504.188
  0
LINE
  8
0
 10
-1.48816
 20
504.188
 11
-1.45287
 21
504.373
  0
LINE
  8
0
 10
-1.45287
 20
504.373
 11
-1.39465
 21
504.552
  0
LINE
  8
0
 10
-1.39465
 20
504.552
 11
-1.31445
 21
504.723
  0
LINE
  8
0
 10
-1.31445
 20
504.723
 11
-1.21352
 21
504.882
  0
LINE
  8
0
 10
-1.21352
 20
504.882
 11
-1.09344
 21
505.027
  0
LINE
  8
0
 10
-1.09344
 20
505.027
 11
-0.956131
 21
505.156
  0
LINE
  8
0
 10
-0.956131
 20
505.156
 11
-0.803726
 21
505.266
  0
LINE
  8
0
 10
-0.803726
 20
505.266
 11
-0.638657
 21
505.357
  0
LINE
  8
0
 10
-0.638657
 20
505.357
 11
-0.463516
 21
505.427
  0
LINE
  8
0
 10
-0.463516
 20
505.427
 11
-0.281067
 21
505.473
  0
LINE
  8
0
 10
-0.281067
 20
505.473
 11
-0.0941772
 21
505.497
  0
LINE
  8
0
 10
-0.0941772
 20
505.497
 11
0.0941772
 21
505.497
  0
LINE
  8
0
 10
0.0941772
 20
505.497
 11
0.281067
 21
505.473
  0
LINE
  8
0
 10
0.281067
 20
505.473
 11
0.463516
 21
505.427
  0
LINE
  8
0
 10
0.463516
 20
505.427
 11
0.638657
 21
505.357
  0
LINE
  8
0
 10
0.638657
 20
505.357
 11
0.803726
 21
505.266
  0
LINE
  8
0
 10
0.803726
 20
505.266
 11
0.956131
 21
505.156
  0
LINE
  8
0
 10
0.956131
 20
505.156
 11
1.09344
 21
505.027
  0
LINE
  8
0
 10
1.09344
 20
505.027
 11
1.21352
 21
504.882
  0
LINE
  8
0
 10
1.21352
 20
504.882
 11
1.31445
 21
504.723
  0
LINE
  8
0
 10
1.31445
 20
504.723
 11
1.39465
 21
504.552
  0
LINE
  8
0
 10
1.39465
 20
504.552
 11
1.45287
 21
504.373
  0
LINE
  8
0
 10
1.45287
 20
504.373
 11
1.48816
 21
504.188
  0
LINE
  8
0
 10
1.48816
 20
504.188
 11
1.5
 21
504
  0
LINE
  8
0
 10
1.5
 20
504
 11
1.48816
 21
503.812
  0
LINE
  8
0
 10
1.48816
 20
503.812
 11
1.45287
 21
503.627
  0
LINE
  8
0
 10
1.45287
 20
503.627
 11
1.39465
 21
503.448
  0
LINE
  8
0
 10
1.39465
 20
503.448
 11
1.31445
 21
503.277
  0
LINE
  8
0
 10
1.31445
 20
503.277
 11
1.21352
 21
503.118
  0
LINE
  8
0
 10
1.21352
 20
503.118
 11
1.09344
 21
502.973
  0
LINE
  8
0
 10
1.09344
 20
502.973
 11
0.956131
 21
502.844
  0
LINE
  8
0
 10
0.956131
 20
502.844
 11
0.803726
 21
502.734
  0
LINE
  8
0
 10
0.803726
 20
502.734
 11
0.638657
 21
502.643
  0
LINE
  8
0
 10
0.638657
 20
502.643
 11
0.463516
 21
502.573
  0
LINE
  8
0
 10
0.463516
 20
502.573
 11
0.281067
 21
502.527
  0
LINE
  8
0
 10
0.281067
 20
502.527
 11
0.0941772
 21
502.503
  0
LINE
  8
0
 10
0.0941772
 20
502.503
 11
-0.0941772
 21
502.503
  0
LINE
  8
0
 10
1.31166
 20
473.124
 11
2.16312
 21
473.343
  0
LINE
  8
0
 10
2.16312
 20
473.343
 11
2.98045
 21
473.666
  0
LINE
  8
0
 10
2.98045
 20
473.666
 11
3.75078
 21
474.09
  0
LINE
  8
0
 10
3.75078
 20
474.09
 11
4.46196
 21
474.606
  0
LINE
  8
0
 10
4.46196
 20
474.606
 11
5.10277
 21
475.208
  0
LINE
  8
0
 10
5.10277
 20
475.208
 11
5.66312
 21
475.886
  0
LINE
  8
0
 10
5.66312
 20
475.886
 11
6.13414
 21
476.628
  0
LINE
  8
0
 10
6.13414
 20
476.628
 11
6.50842
 21
477.423
  0
LINE
  8
0
 10
6.50842
 20
477.423
 11
6.78008
 21
478.259
  0
LINE
  8
0
 10
6.78008
 20
478.259
 11
6.94479
 21
479.123
  0
LINE
  8
0
 10
6.94479
 20
479.123
 11
7
 21
480
  0
LINE
  8
0
 10
7
 20
480
 11
6.94479
 21
480.877
  0
LINE
  8
0
 10
6.94479
 20
480.877
 11
6.78008
 21
481.741
  0
LINE
  8
0
 10
6.78008
 20
481.741
 11
6.50842
 21
482.577
  0
LINE
  8
0
 10
6.50842
 20
482.577
 11
6.13414
 21
483.372
  0
LINE
  8
0
 10
6.13414
 20
483.372
 11
5.66312
 21
484.114
  0
LINE
  8
0
 10
5.66312
 20
484.114
 11
5.10277
 21
484.792
  0
LINE
  8
0
 10
5.10277
 20
484.792
 11
4.46196
 21
485.394
  0
LINE
  8
0
 10
4.46196
 20
485.394
 11
3.75078
 21
485.91
  0
LINE
  8
0
 10
3.75078
 20
485.91
 11
2.98045
 21
486.334
  0
LINE
  8
0
 10
2.98045
 20
486.334
 11
2.16312
 21
486.657
  0
LINE
  8
0
 10
2.16312
 20
486.657
 11
1.31166
 21
486.876
  0
LINE
  8
0
 10
1.31166
 20
486.876
 11
0.439529
 21
486.986
  0
LINE
  8
0
 10
0.439529
 20
486.986
 11
-0.439529
 21
486.986
  0
LINE
  8
0
 10
-0.439529
 20
486.986
 11
-1.31166
 21
486.876
  0
LINE
  8
0
 10
-1.31166
 20
486.876
 11
-2.16312
 21
486.657
  0
LINE
  8
0
 10
-2.16312
 20
486.657
 11
-2.98045
 21
486.334
  0
LINE
  8
0
 10
-2.98045
 20
486.334
 11
-3.75078
 21
485.91
  0
LINE
  8
0
 10
-3.75078
 20
485.91
 11
-4.46196
 21
485.394
  0
LINE
  8
0
 10
-4.46196
 20
485.394
 11
-5.10277
 21
484.792
  0
LINE
  8
0
 10
-5.10277
 20
484.792
 11
-5.66312
 21
484.114
  0
LINE
  8
0
 10
-5.66312
 20
484.114
 11
-6.13414
 21
483.372
  0
LINE
  8
0
 10
-6.13414
 20
483.372
 11
-6.50842
 21
482.577
  0
LINE
  8
0
 10
-6.50842
 20
482.577
 11
-6.78008
 21
481.741
  0
LINE
  8
0
 10
-6.78008
 20
481.741
 11
-6.94479
 21
480.877
  0
LINE
  8
0
 10
-6.94479
 20
480.877
 11
-7
 21
480
  0
LINE
  8
0
 10
-7
 20
480
 11
-6.94479
 21
479.123
  0
LINE
  8
0
 10
-6.94479
 20
479.123
 11
-6.78008
 21
478.259
  0
LINE
  8
0
 10
-6.78008
 20
478.259
 11
-6.50842
 21
477.423
  0
LINE
  8
0
 10
-6.50842
 20
477.423
 11
-6.13414
 21
476.628
  0
LINE
  8
0
 10
-6.13414
 20
476.628
 11
-5.66312
 21
475.886
  0
LINE
  8
0
 10
-5.66312
 20
475.886
 11
-5.10277
 21
475.208
  0
LINE
  8
0
 10
-5.10277
 20
475.208
 11
-4.46196
 21
474.606
  0
LINE
  8
0
 10
-4.46196
 20
474.606
 11
-3.75078
 21
474.09
  0
LINE
  8
0
 10
-3.75078
 20
474.09
 11
-2.98045
 21
473.666
  0
LINE
  8
0
 10
-2.98045
 20
473.666
 11
-2.16312
 21
473.343
  0
LINE
  8
0
 10
-2.16312
 20
473.343
 11
-1.31166
 21
473.124
  0
LINE
  8
0
 10
-1.31166
 20
473.124
 11
-0.439529
 21
473.014
  0
LINE
  8
0
 10
-0.439529
 20
473.014
 11
0.439529
 21
473.014
  0
LINE
  8
0
 10
0.439529
 20
473.014
 11
1.31166
 21
473.124
  0
LINE
  8
0
 10
-0.0941772
 20
478.503
 11
-0.281067
 21
478.527
  0
LINE
  8
0
 10
-0.281067
 20
478.527
 11
-0.463516
 21
478.573
  0
LINE
  8
0
 10
-0.463516
 20
478.573
 11
-0.638657
 21
478.643
  0
LINE
  8
0
 10
-0.638657
 20
478.643
 11
-0.803726
 21
478.734
  0
LINE
  8
0
 10
-0.803726
 20
478.734
 11
-0.956131
 21
478.844
  0
LINE
  8
0
 10
-0.956131
 20
478.844
 11
-1.09344
 21
478.973
  0
LINE
  8
0
 10
-1.09344
 20
478.973
 11
-1.21352
 21
479.118
  0
LINE
  8
0
 10
-1.21352
 20
479.118
 11
-1.31445
 21
479.277
  0
LINE
  8
0
 10
-1.31445
 20
479.277
 11
-1.39465
 21
479.448
  0
LINE
  8
0
 10
-1.39465
 20
479.448
 11
-1.45287
 21
479.627
  0
LINE
  8
0
 10
-1.45287
 20
479.627
 11
-1.48816
 21
479.812
  0
LINE
  8
0
 10
-1.48816
 20
479.812
 11
-1.5
 21
480
  0
LINE
  8
0
 10
-1.5
 20
480
 11
-1.48816
 21
480.188
  0
LINE
  8
0
 10
-1.48816
 20
480.188
 11
-1.45287
 21
480.373
  0
LINE
  8
0
 10
-1.45287
 20
480.373
 11
-1.39465
 21
480.552
  0
LINE
  8
0
 10
-1.39465
 20
480.552
 11
-1.31445
 21
480.723
  0
LINE
  8
0
 10
-1.31445
 20
480.723
 11
-1.21352
 21
480.882
  0
LINE
  8
0
 10
-1.21352
 20
480.882
 11
-1.09344
 21
481.027
  0
LINE
  8
0
 10
-1.09344
 20
481.027
 11
-0.956131
 21
481.156
  0
LINE
  8
0
 10
-0.956131
 20
481.156
 11
-0.803726
 21
481.266
  0
LINE
  8
0
 10
-0.803726
 20
481.266
 11
-0.638657
 21
481.357
  0
LINE
  8
0
 10
-0.638657
 20
481.357
 11
-0.463516
 21
481.427
  0
LINE
  8
0
 10
-0.463516
 20
481.427
 11
-0.281067
 21
481.473
  0
LINE
  8
0
 10
-0.281067
 20
481.473
 11
-0.0941772
 21
481.497
  0
LINE
  8
0
 10
-0.0941772
 20
481.497
 11
0.0941772
 21
481.497
  0
LINE
  8
0
 10
0.0941772
 20
481.497
 11
0.281067
 21
481.473
  0
LINE
  8
0
 10
0.281067
 20
481.473
 11
0.463516
 21
481.427
  0
LINE
  8
0
 10
0.463516
 20
481.427
 11
0.638657
 21
481.357
  0
LINE
  8
0
 10
0.638657
 20
481.357
 11
0.803726
 21
481.266
  0
LINE
  8
0
 10
0.803726
 20
481.266
 11
0.956131
 21
481.156
  0
LINE
  8
0
 10
0.956131
 20
481.156
 11
1.09344
 21
481.027
  0
LINE
  8
0
 10
1.09344
 20
481.027
 11
1.21352
 21
480.882
  0
LINE
  8
0
 10
1.21352
 20
480.882
 11
1.31445
 21
480.723
  0
LINE
  8
0
 10
1.31445
 20
480.723
 11
1.39465
 21
480.552
  0
LINE
  8
0
 10
1.39465
 20
480.552
 11
1.45287
 21
480.373
  0
LINE
  8
0
 10
1.45287
 20
480.373
 11
1.48816
 21
480.188
  0
LINE
  8
0
 10
1.48816
 20
480.188
 11
1.5
 21
480
  0
LINE
  8
0
 10
1.5
 20
480
 11
1.48816
 21
479.812
  0
LINE
  8
0
 10
1.48816
 20
479.812
 11
1.45287
 21
479.627
  0
LINE
  8
0
 10
1.45287
 20
479.627
 11
1.39465
 21
479.448
  0
LINE
  8
0
 10
1.39465
 20
479.448
 11
1.31445
 21
479.277
  0
LINE
  8
0
 10
1.31445
 20
479.277
 11
1.21352
 21
479.118
  0
LINE
  8
0
 10
1.21352
 20
479.118
 11
1.09344
 21
478.973
  0
LINE
  8
0
 10
1.09344
 20
478.973
 11
0.956131
 21
478.844
  0
LINE
  8
0
 10
0.956131
 20
478.844
 11
0.803726
 21
478.734
  0
LINE
  8
0
 10
0.803726
 20
478.734
 11
0.638657
 21
478.643
  0
LINE
  8
0
 10
0.638657
 20
478.643
 11
0.463516
 21
478.573
  0
LINE
  8
0
 10
0.463516
 20
478.573
 11
0.281067
 21
478.527
  0
LINE
  8
0
 10
0.281067
 20
478.527
 11
0.0941772
 21
478.503
  0
LINE
  8
0
 10
0.0941772
 20
478.503
 11
-0.0941772
 21
478.503
  0
LINE
  8
0
 10
1.31166
 20
449.124
 11
2.16312
 21
449.343
  0
LINE
  8
0
 10
2.16312
 20
449.343
 11
2.98045
 21
449.666
  0
LINE
  8
0
 10
2.98045
 20
449.666
 11
3.75078
 21
450.09
  0
LINE
  8
0
 10
3.75078
 20
450.09
 11
4.46196
 21
450.606
  0
LINE
  8
0
 10
4.46196
 20
450.606
 11
5.10277
 21
451.208
  0
LINE
  8
0
 10
5.10277
 20
451.208
 11
5.66312
 21
451.886
  0
LINE
  8
0
 10
5.66312
 20
451.886
 11
6.13414
 21
452.628
  0
LINE
  8
0
 10
6.13414
 20
452.628
 11
6.50842
 21
453.423
  0
LINE
  8
0
 10
6.50842
 20
453.423
 11
6.78008
 21
454.259
  0
LINE
  8
0
 10
6.78008
 20
454.259
 11
6.94479
 21
455.123
  0
LINE
  8
0
 10
6.94479
 20
455.123
 11
7
 21
456
  0
LINE
  8
0
 10
7
 20
456
 11
6.94479
 21
456.877
  0
LINE
  8
0
 10
6.94479
 20
456.877
 11
6.78008
 21
457.741
  0
LINE
  8
0
 10
6.78008
 20
457.741
 11
6.50842
 21
458.577
  0
LINE
  8
0
 10
6.50842
 20
458.577
 11
6.13414
 21
459.372
  0
LINE
  8
0
 10
6.13414
 20
459.372
 11
5.66312
 21
460.114
  0
LINE
  8
0
 10
5.66312
 20
460.114
 11
5.10277
 21
460.792
  0
LINE
  8
0
 10
5.10277
 20
460.792
 11
4.46196
 21
461.394
  0
LINE
  8
0
 10
4.46196
 20
461.394
 11
3.75078
 21
461.91
  0
LINE
  8
0
 10
3.75078
 20
461.91
 11
2.98045
 21
462.334
  0
LINE
  8
0
 10
2.98045
 20
462.334
 11
2.16312
 21
462.657
  0
LINE
  8
0
 10
2.16312
 20
462.657
 11
1.31166
 21
462.876
  0
LINE
  8
0
 10
1.31166
 20
462.876
 11
0.439529
 21
462.986
  0
LINE
  8
0
 10
0.439529
 20
462.986
 11
-0.439529
 21
462.986
  0
LINE
  8
0
 10
-0.439529
 20
462.986
 11
-1.31166
 21
462.876
  0
LINE
  8
0
 10
-1.31166
 20
462.876
 11
-2.16312
 21
462.657
  0
LINE
  8
0
 10
-2.16312
 20
462.657
 11
-2.98045
 21
462.334
  0
LINE
  8
0
 10
-2.98045
 20
462.334
 11
-3.75078
 21
461.91
  0
LINE
  8
0
 10
-3.75078
 20
461.91
 11
-4.46196
 21
461.394
  0
LINE
  8
0
 10
-4.46196
 20
461.394
 11
-5.10277
 21
460.792
  0
LINE
  8
0
 10
-5.10277
 20
460.792
 11
-5.66312
 21
460.114
  0
LINE
  8
0
 10
-5.66312
 20
460.114
 11
-6.13414
 21
459.372
  0
LINE
  8
0
 10
-6.13414
 20
459.372
 11
-6.50842
 21
458.577
  0
LINE
  8
0
 10
-6.50842
 20
458.577
 11
-6.78008
 21
457.741
  0
LINE
  8
0
 10
-6.78008
 20
457.741
 11
-6.94479
 21
456.877
  0
LINE
  8
0
 10
-6.94479
 20
456.877
 11
-7
 21
456
  0
LINE
  8
0
 10
-7
 20
456
 11
-6.94479
 21
455.123
  0
LINE
  8
0
 10
-6.94479
 20
455.123
 11
-6.78008
 21
454.259
  0
LINE
  8
0
 10
-6.78008
 20
454.259
 11
-6.50842
 21
453.423
  0
LINE
  8
0
 10
-6.50842
 20
453.423
 11
-6.13414
 21
452.628
  0
LINE
  8
0
 10
-6.13414
 20
452.628
 11
-5.66312
 21
451.886
  0
LINE
  8
0
 10
-5.66312
 20
451.886
 11
-5.10277
 21
451.208
  0
LINE
  8
0
 10
-5.10277
 20
451.208
 11
-4.46196
 21
450.606
  0
LINE
  8
0
 10
-4.46196
 20
450.606
 11
-3.75078
 21
450.09
  0
LINE
  8
0
 10
-3.75078
 20
450.09
 11
-2.98045
 21
449.666
  0
LINE
  8
0
 10
-2.98045
 20
449.666
 11
-2.16312
 21
449.343
  0
LINE
  8
0
 10
-2.16312
 20
449.343
 11
-1.31166
 21
449.124
  0
LINE
  8
0
 10
-1.31166
 20
449.124
 11
-0.439529
 21
449.014
  0
LINE
  8
0
 10
-0.439529
 20
449.014
 11
0.439529
 21
449.014
  0
LINE
  8
0
 10
0.439529
 20
449.014
 11
1.31166
 21
449.124
  0
LINE
  8
0
 10
-0.0941772
 20
454.503
 11
-0.281067
 21
454.527
  0
LINE
  8
0
 10
-0.281067
 20
454.527
 11
-0.463516
 21
454.573
  0
LINE
  8
0
 10
-0.463516
 20
454.573
 11
-0.638657
 21
454.643
  0
LINE
  8
0
 10
-0.638657
 20
454.643
 11
-0.803726
 21
454.734
  0
LINE
  8
0
 10
-0.803726
 20
454.734
 11
-0.956131
 21
454.844
  0
LINE
  8
0
 10
-0.956131
 20
454.844
 11
-1.09344
 21
454.973
  0
LINE
  8
0
 10
-1.09344
 20
454.973
 11
-1.21352
 21
455.118
  0
LINE
  8
0
 10
-1.21352
 20
455.118
 11
-1.31445
 21
455.277
  0
LINE
  8
0
 10
-1.31445
 20
455.277
 11
-1.39465
 21
455.448
  0
LINE
  8
0
 10
-1.39465
 20
455.448
 11
-1.45287
 21
455.627
  0
LINE
  8
0
 10
-1.45287
 20
455.627
 11
-1.48816
 21
455.812
  0
LINE
  8
0
 10
-1.48816
 20
455.812
 11
-1.5
 21
456
  0
LINE
  8
0
 10
-1.5
 20
456
 11
-1.48816
 21
456.188
  0
LINE
  8
0
 10
-1.48816
 20
456.188
 11
-1.45287
 21
456.373
  0
LINE
  8
0
 10
-1.45287
 20
456.373
 11
-1.39465
 21
456.552
  0
LINE
  8
0
 10
-1.39465
 20
456.552
 11
-1.31445
 21
456.723
  0
LINE
  8
0
 10
-1.31445
 20
456.723
 11
-1.21352
 21
456.882
  0
LINE
  8
0
 10
-1.21352
 20
456.882
 11
-1.09344
 21
457.027
  0
LINE
  8
0
 10
-1.09344
 20
457.027
 11
-0.956131
 21
457.156
  0
LINE
  8
0
 10
-0.956131
 20
457.156
 11
-0.803726
 21
457.266
  0
LINE
  8
0
 10
-0.803726
 20
457.266
 11
-0.638657
 21
457.357
  0
LINE
  8
0
 10
-0.638657
 20
457.357
 11
-0.463516
 21
457.427
  0
LINE
  8
0
 10
-0.463516
 20
457.427
 11
-0.281067
 21
457.473
  0
LINE
  8
0
 10
-0.281067
 20
457.473
 11
-0.0941772
 21
457.497
  0
LINE
  8
0
 10
-0.0941772
 20
457.497
 11
0.0941772
 21
457.497
  0
LINE
  8
0
 10
0.0941772
 20
457.497
 11
0.281067
 21
457.473
  0
LINE
  8
0
 10
0.281067
 20
457.473
 11
0.463516
 21
457.427
  0
LINE
  8
0
 10
0.463516
 20
457.427
 11
0.638657
 21
457.357
  0
LINE
  8
0
 10
0.638657
 20
457.357
 11
0.803726
 21
457.266
  0
LINE
  8
0
 10
0.803726
 20
457.266
 11
0.956131
 21
457.156
  0
LINE
  8
0
 10
0.956131
 20
457.156
 11
1.09344
 21
457.027
  0
LINE
  8
0
 10
1.09344
 20
457.027
 11
1.21352
 21
456.882
  0
LINE
  8
0
 10
1.21352
 20
456.882
 11
1.31445
 21
456.723
  0
LINE
  8
0
 10
1.31445
 20
456.723
 11
1.39465
 21
456.552
  0
LINE
  8
0
 10
1.39465
 20
456.552
 11
1.45287
 21
456.373
  0
LINE
  8
0
 10
1.45287
 20
456.373
 11
1.48816
 21
456.188
  0
LINE
  8
0
 10
1.48816
 20
456.188
 11
1.5
 21
456
  0
LINE
  8
0
 10
1.5
 20
456
 11
1.48816
 21
455.812
  0
LINE
  8
0
 10
1.48816
 20
455.812
 11
1.45287
 21
455.627
  0
LINE
  8
0
 10
1.45287
 20
455.627
 11
1.39465
 21
455.448
  0
LINE
  8
0
 10
1.39465
 20
455.448
 11
1.31445
 21
455.277
  0
LINE
  8
0
 10
1.31445
 20
455.277
 11
1.21352
 21
455.118
  0
LINE
  8
0
 10
1.21352
 20
455.118
 11
1.09344
 21
454.973
  0
LINE
  8
0
 10
1.09344
 20
454.973
 11
0.956131
 21
454.844
  0
LINE
  8
0
 10
0.956131
 20
454.844
 11
0.803726
 21
454.734
  0
LINE
  8
0
 10
0.803726
 20
454.734
 11
0.638657
 21
454.643
  0
LINE
  8
0
 10
0.638657
 20
454.643
 11
0.463516
 21
454.573
  0
LINE
  8
0
 10
0.463516
 20
454.573
 11
0.281067
 21
454.527
  0
LINE
  8
0
 10
0.281067
 20
454.527
 11
0.0941772
 21
454.503
  0
LINE
  8
0
 10
0.0941772
 20
454.503
 11
-0.0941772
 21
454.503
  0
LINE
  8
0
 10
1.31166
 20
425.124
 11
2.16312
 21
425.343
  0
LINE
  8
0
 10
2.16312
 20
425.343
 11
2.98045
 21
425.666
  0
LINE
  8
0
 10
2.98045
 20
425.666
 11
3.75078
 21
426.09
  0
LINE
  8
0
 10
3.75078
 20
426.09
 11
4.46196
 21
426.606
  0
LINE
  8
0
 10
4.46196
 20
426.606
 11
5.10277
 21
427.208
  0
LINE
  8
0
 10
5.10277
 20
427.208
 11
5.66312
 21
427.886
  0
LINE
  8
0
 10
5.66312
 20
427.886
 11
6.13414
 21
428.628
  0
LINE
  8
0
 10
6.13414
 20
428.628
 11
6.50842
 21
429.423
  0
LINE
  8
0
 10
6.50842
 20
429.423
 11
6.78008
 21
430.259
  0
LINE
  8
0
 10
6.78008
 20
430.259
 11
6.94479
 21
431.123
  0
LINE
  8
0
 10
6.94479
 20
431.123
 11
7
 21
432
  0
LINE
  8
0
 10
7
 20
432
 11
6.94479
 21
432.877
  0
LINE
  8
0
 10
6.94479
 20
432.877
 11
6.78008
 21
433.741
  0
LINE
  8
0
 10
6.78008
 20
433.741
 11
6.50842
 21
434.577
  0
LINE
  8
0
 10
6.50842
 20
434.577
 11
6.13414
 21
435.372
  0
LINE
  8
0
 10
6.13414
 20
435.372
 11
5.66312
 21
436.114
  0
LINE
  8
0
 10
5.66312
 20
436.114
 11
5.10277
 21
436.792
  0
LINE
  8
0
 10
5.10277
 20
436.792
 11
4.46196
 21
437.394
  0
LINE
  8
0
 10
4.46196
 20
437.394
 11
3.75078
 21
437.91
  0
LINE
  8
0
 10
3.75078
 20
437.91
 11
2.98045
 21
438.334
  0
LINE
  8
0
 10
2.98045
 20
438.334
 11
2.16312
 21
438.657
  0
LINE
  8
0
 10
2.16312
 20
438.657
 11
1.31166
 21
438.876
  0
LINE
  8
0
 10
1.31166
 20
438.876
 11
0.439529
 21
438.986
  0
LINE
  8
0
 10
0.439529
 20
438.986
 11
-0.439529
 21
438.986
  0
LINE
  8
0
 10
-0.439529
 20
438.986
 11
-1.31166
 21
438.876
  0
LINE
  8
0
 10
-1.31166
 20
438.876
 11
-2.16312
 21
438.657
  0
LINE
  8
0
 10
-2.16312
 20
438.657
 11
-2.98045
 21
438.334
  0
LINE
  8
0
 10
-2.98045
 20
438.334
 11
-3.75078
 21
437.91
  0
LINE
  8
0
 10
-3.75078
 20
437.91
 11
-4.46196
 21
437.394
  0
LINE
  8
0
 10
-4.46196
 20
437.394
 11
-5.10277
 21
436.792
  0
LINE
  8
0
 10
-5.10277
 20
436.792
 11
-5.66312
 21
436.114
  0
LINE
  8
0
 10
-5.66312
 20
436.114
 11
-6.13414
 21
435.372
  0
LINE
  8
0
 10
-6.13414
 20
435.372
 11
-6.50842
 21
434.577
  0
LINE
  8
0
 10
-6.50842
 20
434.577
 11
-6.78008
 21
433.741
  0
LINE
  8
0
 10
-6.78008
 20
433.741
 11
-6.94479
 21
432.877
  0
LINE
  8
0
 10
-6.94479
 20
432.877
 11
-7
 21
432
  0
LINE
  8
0
 10
-7
 20
432
 11
-6.94479
 21
431.123
  0
LINE
  8
0
 10
-6.94479
 20
431.123
 11
-6.78008
 21
430.259
  0
LINE
  8
0
 10
-6.78008
 20
430.259
 11
-6.50842
 21
429.423
  0
LINE
  8
0
 10
-6.50842
 20
429.423
 11
-6.13414
 21
428.628
  0
LINE
  8
0
 10
-6.13414
 20
428.628
 11
-5.66312
 21
427.886
  0
LINE
  8
0
 10
-5.66312
 20
427.886
 11
-5.10277
 21
427.208
  0
LINE
  8
0
 10
-5.10277
 20
427.208
 11
-4.46196
 21
426.606
  0
LINE
  8
0
 10
-4.46196
 20
426.606
 11
-3.75078
 21
426.09
  0
LINE
  8
0
 10
-3.75078
 20
426.09
 11
-2.98045
 21
425.666
  0
LINE
  8
0
 10
-2.98045
 20
425.666
 11
-2.16312
 21
425.343
  0
LINE
  8
0
 10
-2.16312
 20
425.343
 11
-1.31166
 21
425.124
  0
LINE
  8
0
 10
-1.31166
 20
425.124
 11
-0.439529
 21
425.014
  0
LINE
  8
0
 10
-0.439529
 20
425.014
 11
0.439529
 21
425.014
  0
LINE
  8
0
 10
0.439529
 20
425.014
 11
1.31166
 21
425.124
  0
LINE
  8
0
 10
-0.0941772
 20
430.503
 11
-0.281067
 21
430.527
  0
LINE
  8
0
 10
-0.281067
 20
430.527
 11
-0.463516
 21
430.573
  0
LINE
  8
0
 10
-0.463516
 20
430.573
 11
-0.638657
 21
430.643
  0
LINE
  8
0
 10
-0.638657
 20
430.643
 11
-0.803726
 21
430.734
  0
LINE
  8
0
 10
-0.803726
 20
430.734
 11
-0.956131
 21
430.844
  0
LINE
  8
0
 10
-0.956131
 20
430.844
 11
-1.09344
 21
430.973
  0
LINE
  8
0
 10
-1.09344
 20
430.973
 11
-1.21352
 21
431.118
  0
LINE
  8
0
 10
-1.21352
 20
431.118
 11
-1.31445
 21
431.277
  0
LINE
  8
0
 10
-1.31445
 20
431.277
 11
-1.39465
 21
431.448
  0
LINE
  8
0
 10
-1.39465
 20
431.448
 11
-1.45287
 21
431.627
  0
LINE
  8
0
 10
-1.45287
 20
431.627
 11
-1.48816
 21
431.812
  0
LINE
  8
0
 10
-1.48816
 20
431.812
 11
-1.5
 21
432
  0
LINE
  8
0
 10
-1.5
 20
432
 11
-1.48816
 21
432.188
  0
LINE
  8
0
 10
-1.48816
 20
432.188
 11
-1.45287
 21
432.373
  0
LINE
  8
0
 10
-1.45287
 20
432.373
 11
-1.39465
 21
432.552
  0
LINE
  8
0
 10
-1.39465
 20
432.552
 11
-1.31445
 21
432.723
  0
LINE
  8
0
 10
-1.31445
 20
432.723
 11
-1.21352
 21
432.882
  0
LINE
  8
0
 10
-1.21352
 20
432.882
 11
-1.09344
 21
433.027
  0
LINE
  8
0
 10
-1.09344
 20
433.027
 11
-0.956131
 21
433.156
  0
LINE
  8
0
 10
-0.956131
 20
433.156
 11
-0.803726
 21
433.266
  0
LINE
  8
0
 10
-0.803726
 20
433.266
 11
-0.638657
 21
433.357
  0
LINE
  8
0
 10
-0.638657
 20
433.357
 11
-0.463516
 21
433.427
  0
LINE
  8
0
 10
-0.463516
 20
433.427
 11
-0.281067
 21
433.473
  0
LINE
  8
0
 10
-0.281067
 20
433.473
 11
-0.0941772
 21
433.497
  0
LINE
  8
0
 10
-0.0941772
 20
433.497
 11
0.0941772
 21
433.497
  0
LINE
  8
0
 10
0.0941772
 20
433.497
 11
0.281067
 21
433.473
  0
LINE
  8
0
 10
0.281067
 20
433.473
 11
0.463516
 21
433.427
  0
LINE
  8
0
 10
0.463516
 20
433.427
 11
0.638657
 21
433.357
  0
LINE
  8
0
 10
0.638657
 20
433.357
 11
0.803726
 21
433.266
  0
LINE
  8
0
 10
0.803726
 20
433.266
 11
0.956131
 21
433.156
  0
LINE
  8
0
 10
0.956131
 20
433.156
 11
1.09344
 21
433.027
  0
LINE
  8
0
 10
1.09344
 20
433.027
 11
1.21352
 21
432.882
  0
LINE
  8
0
 10
1.21352
 20
432.882
 11
1.31445
 21
432.723
  0
LINE
  8
0
 10
1.31445
 20
432.723
 11
1.39465
 21
432.552
  0
LINE
  8
0
 10
1.39465
 20
432.552
 11
1.45287
 21
432.373
  0
LINE
  8
0
 10
1.45287
 20
432.373
 11
1.48816
 21
432.188
  0
LINE
  8
0
 10
1.48816
 20
432.188
 11
1.5
 21
432
  0
LINE
  8
0
 10
1.5
 20
432
 11
1.48816
 21
431.812
  0
LINE
  8
0
 10
1.48816
 20
431.812
 11
1.45287
 21
431.627
  0
LINE
  8
0
 10
1.45287
 20
431.627
 11
1.39465
 21
431.448
  0
LINE
  8
0
 10
1.39465
 20
431.448
 11
1.31445
 21
431.277
  0
LINE
  8
0
 10
1.31445
 20
431.277
 11
1.21352
 21
431.118
  0
LINE
  8
0
 10
1.21352
 20
431.118
 11
1.09344
 21
430.973
  0
LINE
  8
0
 10
1.09344
 20
430.973
 11
0.956131
 21
430.844
  0
LINE
  8
0
 10
0.956131
 20
430.844
 11
0.803726
 21
430.734
  0
LINE
  8
0
 10
0.803726
 20
430.734
 11
0.638657
 21
430.643
  0
LINE
  8
0
 10
0.638657
 20
430.643
 11
0.463516
 21
430.573
  0
LINE
  8
0
 10
0.463516
 20
430.573
 11
0.281067
 21
430.527
  0
LINE
  8
0
 10
0.281067
 20
430.527
 11
0.0941772
 21
430.503
  0
LINE
  8
0
 10
0.0941772
 20
430.503
 11
-0.0941772
 21
430.503
  0
LINE
  8
0
 10
1.31166
 20
401.124
 11
2.16312
 21
401.343
  0
LINE
  8
0
 10
2.16312
 20
401.343
 11
2.98045
 21
401.666
  0
LINE
  8
0
 10
2.98045
 20
401.666
 11
3.75078
 21
402.09
  0
LINE
  8
0
 10
3.75078
 20
402.09
 11
4.46196
 21
402.606
  0
LINE
  8
0
 10
4.46196
 20
402.606
 11
5.10277
 21
403.208
  0
LINE
  8
0
 10
5.10277
 20
403.208
 11
5.66312
 21
403.886
  0
LINE
  8
0
 10
5.66312
 20
403.886
 11
6.13414
 21
404.628
  0
LINE
  8
0
 10
6.13414
 20
404.628
 11
6.50842
 21
405.423
  0
LINE
  8
0
 10
6.50842
 20
405.423
 11
6.78008
 21
406.259
  0
LINE
  8
0
 10
6.78008
 20
406.259
 11
6.94479
 21
407.123
  0
LINE
  8
0
 10
6.94479
 20
407.123
 11
7
 21
408
  0
LINE
  8
0
 10
7
 20
408
 11
6.94479
 21
408.877
  0
LINE
  8
0
 10
6.94479
 20
408.877
 11
6.78008
 21
409.741
  0
LINE
  8
0
 10
6.78008
 20
409.741
 11
6.50842
 21
410.577
  0
LINE
  8
0
 10
6.50842
 20
410.577
 11
6.13414
 21
411.372
  0
LINE
  8
0
 10
6.13414
 20
411.372
 11
5.66312
 21
412.114
  0
LINE
  8
0
 10
5.66312
 20
412.114
 11
5.10277
 21
412.792
  0
LINE
  8
0
 10
5.10277
 20
412.792
 11
4.46196
 21
413.394
  0
LINE
  8
0
 10
4.46196
 20
413.394
 11
3.75078
 21
413.91
  0
LINE
  8
0
 10
3.75078
 20
413.91
 11
2.98045
 21
414.334
  0
LINE
  8
0
 10
2.98045
 20
414.334
 11
2.16312
 21
414.657
  0
LINE
  8
0
 10
2.16312
 20
414.657
 11
1.31166
 21
414.876
  0
LINE
  8
0
 10
1.31166
 20
414.876
 11
0.439529
 21
414.986
  0
LINE
  8
0
 10
0.439529
 20
414.986
 11
-0.439529
 21
414.986
  0
LINE
  8
0
 10
-0.439529
 20
414.986
 11
-1.31166
 21
414.876
  0
LINE
  8
0
 10
-1.31166
 20
414.876
 11
-2.16312
 21
414.657
  0
LINE
  8
0
 10
-2.16312
 20
414.657
 11
-2.98045
 21
414.334
  0
LINE
  8
0
 10
-2.98045
 20
414.334
 11
-3.75078
 21
413.91
  0
LINE
  8
0
 10
-3.75078
 20
413.91
 11
-4.46196
 21
413.394
  0
LINE
  8
0
 10
-4.46196
 20
413.394
 11
-5.10277
 21
412.792
  0
LINE
  8
0
 10
-5.10277
 20
412.792
 11
-5.66312
 21
412.114
  0
LINE
  8
0
 10
-5.66312
 20
412.114
 11
-6.13414
 21
411.372
  0
LINE
  8
0
 10
-6.13414
 20
411.372
 11
-6.50842
 21
410.577
  0
LINE
  8
0
 10
-6.50842
 20
410.577
 11
-6.78008
 21
409.741
  0
LINE
  8
0
 10
-6.78008
 20
409.741
 11
-6.94479
 21
408.877
  0
LINE
  8
0
 10
-6.94479
 20
408.877
 11
-7
 21
408
  0
LINE
  8
0
 10
-7
 20
408
 11
-6.94479
 21
407.123
  0
LINE
  8
0
 10
-6.94479
 20
407.123
 11
-6.78008
 21
406.259
  0
LINE
  8
0
 10
-6.78008
 20
406.259
 11
-6.50842
 21
405.423
  0
LINE
  8
0
 10
-6.50842
 20
405.423
 11
-6.13414
 21
404.628
  0
LINE
  8
0
 10
-6.13414
 20
404.628
 11
-5.66312
 21
403.886
  0
LINE
  8
0
 10
-5.66312
 20
403.886
 11
-5.10277
 21
403.208
  0
LINE
  8
0
 10
-5.10277
 20
403.208
 11
-4.46196
 21
402.606
  0
LINE
  8
0
 10
-4.46196
 20
402.606
 11
-3.75078
 21
402.09
  0
LINE
  8
0
 10
-3.75078
 20
402.09
 11
-2.98045
 21
401.666
  0
LINE
  8
0
 10
-2.98045
 20
401.666
 11
-2.16312
 21
401.343
  0
LINE
  8
0
 10
-2.16312
 20
401.343
 11
-1.31166
 21
401.124
  0
LINE
  8
0
 10
-1.31166
 20
401.124
 11
-0.439529
 21
401.014
  0
LINE
  8
0
 10
-0.439529
 20
401.014
 11
0.439529
 21
401.014
  0
LINE
  8
0
 10
0.439529
 20
401.014
 11
1.31166
 21
401.124
  0
LINE
  8
0
 10
-0.0941772
 20
406.503
 11
-0.281067
 21
406.527
  0
LINE
  8
0
 10
-0.281067
 20
406.527
 11
-0.463516
 21
406.573
  0
LINE
  8
0
 10
-0.463516
 20
406.573
 11
-0.638657
 21
406.643
  0
LINE
  8
0
 10
-0.638657
 20
406.643
 11
-0.803726
 21
406.734
  0
LINE
  8
0
 10
-0.803726
 20
406.734
 11
-0.956131
 21
406.844
  0
LINE
  8
0
 10
-0.956131
 20
406.844
 11
-1.09344
 21
406.973
  0
LINE
  8
0
 10
-1.09344
 20
406.973
 11
-1.21352
 21
407.118
  0
LINE
  8
0
 10
-1.21352
 20
407.118
 11
-1.31445
 21
407.277
  0
LINE
  8
0
 10
-1.31445
 20
407.277
 11
-1.39465
 21
407.448
  0
LINE
  8
0
 10
-1.39465
 20
407.448
 11
-1.45287
 21
407.627
  0
LINE
  8
0
 10
-1.45287
 20
407.627
 11
-1.48816
 21
407.812
  0
LINE
  8
0
 10
-1.48816
 20
407.812
 11
-1.5
 21
408
  0
LINE
  8
0
 10
-1.5
 20
408
 11
-1.48816
 21
408.188
  0
LINE
  8
0
 10
-1.48816
 20
408.188
 11
-1.45287
 21
408.373
  0
LINE
  8
0
 10
-1.45287
 20
408.373
 11
-1.39465
 21
408.552
  0
LINE
  8
0
 10
-1.39465
 20
408.552
 11
-1.31445
 21
408.723
  0
LINE
  8
0
 10
-1.31445
 20
408.723
 11
-1.21352
 21
408.882
  0
LINE
  8
0
 10
-1.21352
 20
408.882
 11
-1.09344
 21
409.027
  0
LINE
  8
0
 10
-1.09344
 20
409.027
 11
-0.956131
 21
409.156
  0
LINE
  8
0
 10
-0.956131
 20
409.156
 11
-0.803726
 21
409.266
  0
LINE
  8
0
 10
-0.803726
 20
409.266
 11
-0.638657
 21
409.357
  0
LINE
  8
0
 10
-0.638657
 20
409.357
 11
-0.463516
 21
409.427
  0
LINE
  8
0
 10
-0.463516
 20
409.427
 11
-0.281067
 21
409.473
  0
LINE
  8
0
 10
-0.281067
 20
409.473
 11
-0.0941772
 21
409.497
  0
LINE
  8
0
 10
-0.0941772
 20
409.497
 11
0.0941772
 21
409.497
  0
LINE
  8
0
 10
0.0941772
 20
409.497
 11
0.281067
 21
409.473
  0
LINE
  8
0
 10
0.281067
 20
409.473
 11
0.463516
 21
409.427
  0
LINE
  8
0
 10
0.463516
 20
409.427
 11
0.638657
 21
409.357
  0
LINE
  8
0
 10
0.638657
 20
409.357
 11
0.803726
 21
409.266
  0
LINE
  8
0
 10
0.803726
 20
409.266
 11
0.956131
 21
409.156
  0
LINE
  8
0
 10
0.956131
 20
409.156
 11
1.09344
 21
409.027
  0
LINE
  8
0
 10
1.09344
 20
409.027
 11
1.21352
 21
408.882
  0
LINE
  8
0
 10
1.21352
 20
408.882
 11
1.31445
 21
408.723
  0
LINE
  8
0
 10
1.31445
 20
408.723
 11
1.39465
 21
408.552
  0
LINE
  8
0
 10
1.39465
 20
408.552
 11
1.45287
 21
408.373
  0
LINE
  8
0
 10
1.45287
 20
408.373
 11
1.48816
 21
408.188
  0
LINE
  8
0
 10
1.48816
 20
408.188
 11
1.5
 21
408
  0
LINE
  8
0
 10
1.5
 20
408
 11
1.48816
 21
407.812
  0
LINE
  8
0
 10
1.48816
 20
407.812
 11
1.45287
 21
407.627
  0
LINE
  8
0
 10
1.45287
 20
407.627
 11
1.39465
 21
407.448
  0
LINE
  8
0
 10
1.39465
 20
407.448
 11
1.31445
 21
407.277
  0
LINE
  8
0
 10
1.31445
 20
407.277
 11
1.21352
 21
407.118
  0
LINE
  8
0
 10
1.21352
 20
407.118
 11
1.09344
 21
406.973
  0
LINE
  8
0
 10
1.09344
 20
406.973
 11
0.956131
 21
406.844
  0
LINE
  8
0
 10
0.956131
 20
406.844
 11
0.803726
 21
406.734
  0
LINE
  8
0
 10
0.803726
 20
406.734
 11
0.638657
 21
406.643
  0
LINE
  8
0
 10
0.638657
 20
406.643
 11
0.463516
 21
406.573
  0
LINE
  8
0
 10
0.463516
 20
406.573
 11
0.281067
 21
406.527
  0
LINE
  8
0
 10
0.281067
 20
406.527
 11
0.0941772
 21
406.503
  0
LINE
  8
0
 10
0.0941772
 20
406.503
 11
-0.0941772
 21
406.503
  0
LINE
  8
0
 10
1.31166
 20
377.124
 11
2.16312
 21
377.343
  0
LINE
  8
0
 10
2.16312
 20
377.343
 11
2.98045
 21
377.666
  0
LINE
  8
0
 10
2.98045
 20
377.666
 11
3.75078
 21
378.09
  0
LINE
  8
0
 10
3.75078
 20
378.09
 11
4.46196
 21
378.606
  0
LINE
  8
0
 10
4.46196
 20
378.606
 11
5.10277
 21
379.208
  0
LINE
  8
0
 10
5.10277
 20
379.208
 11
5.66312
 21
379.886
  0
LINE
  8
0
 10
5.66312
 20
379.886
 11
6.13414
 21
380.628
  0
LINE
  8
0
 10
6.13414
 20
380.628
 11
6.50842
 21
381.423
  0
LINE
  8
0
 10
6.50842
 20
381.423
 11
6.78008
 21
382.259
  0
LINE
  8
0
 10
6.78008
 20
382.259
 11
6.94479
 21
383.123
  0
LINE
  8
0
 10
6.94479
 20
383.123
 11
7
 21
384
  0
LINE
  8
0
 10
7
 20
384
 11
6.94479
 21
384.877
  0
LINE
  8
0
 10
6.94479
 20
384.877
 11
6.78008
 21
385.741
  0
LINE
  8
0
 10
6.78008
 20
385.741
 11
6.50842
 21
386.577
  0
LINE
  8
0
 10
6.50842
 20
386.577
 11
6.13414
 21
387.372
  0
LINE
  8
0
 10
6.13414
 20
387.372
 11
5.66312
 21
388.114
  0
LINE
  8
0
 10
5.66312
 20
388.114
 11
5.10277
 21
388.792
  0
LINE
  8
0
 10
5.10277
 20
388.792
 11
4.46196
 21
389.394
  0
LINE
  8
0
 10
4.46196
 20
389.394
 11
3.75078
 21
389.91
  0
LINE
  8
0
 10
3.75078
 20
389.91
 11
2.98045
 21
390.334
  0
LINE
  8
0
 10
2.98045
 20
390.334
 11
2.16312
 21
390.657
  0
LINE
  8
0
 10
2.16312
 20
390.657
 11
1.31166
 21
390.876
  0
LINE
  8
0
 10
1.31166
 20
390.876
 11
0.439529
 21
390.986
  0
LINE
  8
0
 10
0.439529
 20
390.986
 11
-0.439529
 21
390.986
  0
LINE
  8
0
 10
-0.439529
 20
390.986
 11
-1.31166
 21
390.876
  0
LINE
  8
0
 10
-1.31166
 20
390.876
 11
-2.16312
 21
390.657
  0
LINE
  8
0
 10
-2.16312
 20
390.657
 11
-2.98045
 21
390.334
  0
LINE
  8
0
 10
-2.98045
 20
390.334
 11
-3.75078
 21
389.91
  0
LINE
  8
0
 10
-3.75078
 20
389.91
 11
-4.46196
 21
389.394
  0
LINE
  8
0
 10
-4.46196
 20
389.394
 11
-5.10277
 21
388.792
  0
LINE
  8
0
 10
-5.10277
 20
388.792
 11
-5.66312
 21
388.114
  0
LINE
  8
0
 10
-5.66312
 20
388.114
 11
-6.13414
 21
387.372
  0
LINE
  8
0
 10
-6.13414
 20
387.372
 11
-6.50842
 21
386.577
  0
LINE
  8
0
 10
-6.50842
 20
386.577
 11
-6.78008
 21
385.741
  0
LINE
  8
0
 10
-6.78008
 20
385.741
 11
-6.94479
 21
384.877
  0
LINE
  8
0
 10
-6.94479
 20
384.877
 11
-7
 21
384
  0
LINE
  8
0
 10
-7
 20
384
 11
-6.94479
 21
383.123
  0
LINE
  8
0
 10
-6.94479
 20
383.123
 11
-6.78008
 21
382.259
  0
LINE
  8
0
 10
-6.78008
 20
382.259
 11
-6.50842
 21
381.423
  0
LINE
  8
0
 10
-6.50842
 20
381.423
 11
-6.13414
 21
380.628
  0
LINE
  8
0
 10
-6.13414
 20
380.628
 11
-5.66312
 21
379.886
  0
LINE
  8
0
 10
-5.66312
 20
379.886
 11
-5.10277
 21
379.208
  0
LINE
  8
0
 10
-5.10277
 20
379.208
 11
-4.46196
 21
378.606
  0
LINE
  8
0
 10
-4.46196
 20
378.606
 11
-3.75078
 21
378.09
  0
LINE
  8
0
 10
-3.75078
 20
378.09
 11
-2.98045
 21
377.666
  0
LINE
  8
0
 10
-2.98045
 20
377.666
 11
-2.16312
 21
377.343
  0
LINE
  8
0
 10
-2.16312
 20
377.343
 11
-1.31166
 21
377.124
  0
LINE
  8
0
 10
-1.31166
 20
377.124
 11
-0.439529
 21
377.014
  0
LINE
  8
0
 10
-0.439529
 20
377.014
 11
0.439529
 21
377.014
  0
LINE
  8
0
 10
0.439529
 20
377.014
 11
1.31166
 21
377.124
  0
LINE
  8
0
 10
-0.0941772
 20
382.503
 11
-0.281067
 21
382.527
  0
LINE
  8
0
 10
-0.281067
 20
382.527
 11
-0.463516
 21
382.573
  0
LINE
  8
0
 10
-0.463516
 20
382.573
 11
-0.638657
 21
382.643
  0
LINE
  8
0
 10
-0.638657
 20
382.643
 11
-0.803726
 21
382.734
  0
LINE
  8
0
 10
-0.803726
 20
382.734
 11
-0.956131
 21
382.844
  0
LINE
  8
0
 10
-0.956131
 20
382.844
 11
-1.09344
 21
382.973
  0
LINE
  8
0
 10
-1.09344
 20
382.973
 11
-1.21352
 21
383.118
  0
LINE
  8
0
 10
-1.21352
 20
383.118
 11
-1.31445
 21
383.277
  0
LINE
  8
0
 10
-1.31445
 20
383.277
 11
-1.39465
 21
383.448
  0
LINE
  8
0
 10
-1.39465
 20
383.448
 11
-1.45287
 21
383.627
  0
LINE
  8
0
 10
-1.45287
 20
383.627
 11
-1.48816
 21
383.812
  0
LINE
  8
0
 10
-1.48816
 20
383.812
 11
-1.5
 21
384
  0
LINE
  8
0
 10
-1.5
 20
384
 11
-1.48816
 21
384.188
  0
LINE
  8
0
 10
-1.48816
 20
384.188
 11
-1.45287
 21
384.373
  0
LINE
  8
0
 10
-1.45287
 20
384.373
 11
-1.39465
 21
384.552
  0
LINE
  8
0
 10
-1.39465
 20
384.552
 11
-1.31445
 21
384.723
  0
LINE
  8
0
 10
-1.31445
 20
384.723
 11
-1.21352
 21
384.882
  0
LINE
  8
0
 10
-1.21352
 20
384.882
 11
-1.09344
 21
385.027
  0
LINE
  8
0
 10
-1.09344
 20
385.027
 11
-0.956131
 21
385.156
  0
LINE
  8
0
 10
-0.956131
 20
385.156
 11
-0.803726
 21
385.266
  0
LINE
  8
0
 10
-0.803726
 20
385.266
 11
-0.638657
 21
385.357
  0
LINE
  8
0
 10
-0.638657
 20
385.357
 11
-0.463516
 21
385.427
  0
LINE
  8
0
 10
-0.463516
 20
385.427
 11
-0.281067
 21
385.473
  0
LINE
  8
0
 10
-0.281067
 20
385.473
 11
-0.0941772
 21
385.497
  0
LINE
  8
0
 10
-0.0941772
 20
385.497
 11
0.0941772
 21
385.497
  0
LINE
  8
0
 10
0.0941772
 20
385.497
 11
0.281067
 21
385.473
  0
LINE
  8
0
 10
0.281067
 20
385.473
 11
0.463516
 21
385.427
  0
LINE
  8
0
 10
0.463516
 20
385.427
 11
0.638657
 21
385.357
  0
LINE
  8
0
 10
0.638657
 20
385.357
 11
0.803726
 21
385.266
  0
LINE
  8
0
 10
0.803726
 20
385.266
 11
0.956131
 21
385.156
  0
LINE
  8
0
 10
0.956131
 20
385.156
 11
1.09344
 21
385.027
  0
LINE
  8
0
 10
1.09344
 20
385.027
 11
1.21352
 21
384.882
  0
LINE
  8
0
 10
1.21352
 20
384.882
 11
1.31445
 21
384.723
  0
LINE
  8
0
 10
1.31445
 20
384.723
 11
1.39465
 21
384.552
  0
LINE
  8
0
 10
1.39465
 20
384.552
 11
1.45287
 21
384.373
  0
LINE
  8
0
 10
1.45287
 20
384.373
 11
1.48816
 21
384.188
  0
LINE
  8
0
 10
1.48816
 20
384.188
 11
1.5
 21
384
  0
LINE
  8
0
 10
1.5
 20
384
 11
1.48816
 21
383.812
  0
LINE
  8
0
 10
1.48816
 20
383.812
 11
1.45287
 21
383.627
  0
LINE
  8
0
 10
1.45287
 20
383.627
 11
1.39465
 21
383.448
  0
LINE
  8
0
 10
1.39465
 20
383.448
 11
1.31445
 21
383.277
  0
LINE
  8
0
 10
1.31445
 20
383.277
 11
1.21352
 21
383.118
  0
LINE
  8
0
 10
1.21352
 20
383.118
 11
1.09344
 21
382.973
  0
LINE
  8
0
 10
1.09344
 20
382.973
 11
0.956131
 21
382.844
  0
LINE
  8
0
 10
0.956131
 20
382.844
 11
0.803726
 21
382.734
  0
LINE
  8
0
 10
0.803726
 20
382.734
 11
0.638657
 21
382.643
  0
LINE
  8
0
 10
0.638657
 20
382.643
 11
0.463516
 21
382.573
  0
LINE
  8
0
 10
0.463516
 20
382.573
 11
0.281067
 21
382.527
  0
LINE
  8
0
 10
0.281067
 20
382.527
 11
0.0941772
 21
382.503
  0
LINE
  8
0
 10
0.0941772
 20
382.503
 11
-0.0941772
 21
382.503
  0
LINE
  8
0
 10
1.31166
 20
353.124
 11
2.16312
 21
353.343
  0
LINE
  8
0
 10
2.16312
 20
353.343
 11
2.98045
 21
353.666
  0
LINE
  8
0
 10
2.98045
 20
353.666
 11
3.75078
 21
354.09
  0
LINE
  8
0
 10
3.75078
 20
354.09
 11
4.46196
 21
354.606
  0
LINE
  8
0
 10
4.46196
 20
354.606
 11
5.10277
 21
355.208
  0
LINE
  8
0
 10
5.10277
 20
355.208
 11
5.66312
 21
355.886
  0
LINE
  8
0
 10
5.66312
 20
355.886
 11
6.13414
 21
356.628
  0
LINE
  8
0
 10
6.13414
 20
356.628
 11
6.50842
 21
357.423
  0
LINE
  8
0
 10
6.50842
 20
357.423
 11
6.78008
 21
358.259
  0
LINE
  8
0
 10
6.78008
 20
358.259
 11
6.94479
 21
359.123
  0
LINE
  8
0
 10
6.94479
 20
359.123
 11
7
 21
360
  0
LINE
  8
0
 10
7
 20
360
 11
6.94479
 21
360.877
  0
LINE
  8
0
 10
6.94479
 20
360.877
 11
6.78008
 21
361.741
  0
LINE
  8
0
 10
6.78008
 20
361.741
 11
6.50842
 21
362.577
  0
LINE
  8
0
 10
6.50842
 20
362.577
 11
6.13414
 21
363.372
  0
LINE
  8
0
 10
6.13414
 20
363.372
 11
5.66312
 21
364.114
  0
LINE
  8
0
 10
5.66312
 20
364.114
 11
5.10277
 21
364.792
  0
LINE
  8
0
 10
5.10277
 20
364.792
 11
4.46196
 21
365.394
  0
LINE
  8
0
 10
4.46196
 20
365.394
 11
3.75078
 21
365.91
  0
LINE
  8
0
 10
3.75078
 20
365.91
 11
2.98045
 21
366.334
  0
LINE
  8
0
 10
2.98045
 20
366.334
 11
2.16312
 21
366.657
  0
LINE
  8
0
 10
2.16312
 20
366.657
 11
1.31166
 21
366.876
  0
LINE
  8
0
 10
1.31166
 20
366.876
 11
0.439529
 21
366.986
  0
LINE
  8
0
 10
0.439529
 20
366.986
 11
-0.439529
 21
366.986
  0
LINE
  8
0
 10
-0.439529
 20
366.986
 11
-1.31166
 21
366.876
  0
LINE
  8
0
 10
-1.31166
 20
366.876
 11
-2.16312
 21
366.657
  0
LINE
  8
0
 10
-2.16312
 20
366.657
 11
-2.98045
 21
366.334
  0
LINE
  8
0
 10
-2.98045
 20
366.334
 11
-3.75078
 21
365.91
  0
LINE
  8
0
 10
-3.75078
 20
365.91
 11
-4.46196
 21
365.394
  0
LINE
  8
0
 10
-4.46196
 20
365.394
 11
-5.10277
 21
364.792
  0
LINE
  8
0
 10
-5.10277
 20
364.792
 11
-5.66312
 21
364.114
  0
LINE
  8
0
 10
-5.66312
 20
364.114
 11
-6.13414
 21
363.372
  0
LINE
  8
0
 10
-6.13414
 20
363.372
 11
-6.50842
 21
362.577
  0
LINE
  8
0
 10
-6.50842
 20
362.577
 11
-6.78008
 21
361.741
  0
LINE
  8
0
 10
-6.78008
 20
361.741
 11
-6.94479
 21
360.877
  0
LINE
  8
0
 10
-6.94479
 20
360.877
 11
-7
 21
360
  0
LINE
  8
0
 10
-7
 20
360
 11
-6.94479
 21
359.123
  0
LINE
  8
0
 10
-6.94479
 20
359.123
 11
-6.78008
 21
358.259
  0
LINE
  8
0
 10
-6.78008
 20
358.259
 11
-6.50842
 21
357.423
  0
LINE
  8
0
 10
-6.50842
 20
357.423
 11
-6.13414
 21
356.628
  0
LINE
  8
0
 10
-6.13414
 20
356.628
 11
-5.66312
 21
355.886
  0
LINE
  8
0
 10
-5.66312
 20
355.886
 11
-5.10277
 21
355.208
  0
LINE
  8
0
 10
-5.10277
 20
355.208
 11
-4.46196
 21
354.606
  0
LINE
  8
0
 10
-4.46196
 20
354.606
 11
-3.75078
 21
354.09
  0
LINE
  8
0
 10
-3.75078
 20
354.09
 11
-2.98045
 21
353.666
  0
LINE
  8
0
 10
-2.98045
 20
353.666
 11
-2.16312
 21
353.343
  0
LINE
  8
0
 10
-2.16312
 20
353.343
 11
-1.31166
 21
353.124
  0
LINE
  8
0
 10
-1.31166
 20
353.124
 11
-0.439529
 21
353.014
  0
LINE
  8
0
 10
-0.439529
 20
353.014
 11
0.439529
 21
353.014
  0
LINE
  8
0
 10
0.439529
 20
353.014
 11
1.31166
 21
353.124
  0
LINE
  8
0
 10
-0.0941772
 20
358.503
 11
-0.281067
 21
358.527
  0
LINE
  8
0
 10
-0.281067
 20
358.527
 11
-0.463516
 21
358.573
  0
LINE
  8
0
 10
-0.463516
 20
358.573
 11
-0.638657
 21
358.643
  0
LINE
  8
0
 10
-0.638657
 20
358.643
 11
-0.803726
 21
358.734
  0
LINE
  8
0
 10
-0.803726
 20
358.734
 11
-0.956131
 21
358.844
  0
LINE
  8
0
 10
-0.956131
 20
358.844
 11
-1.09344
 21
358.973
  0
LINE
  8
0
 10
-1.09344
 20
358.973
 11
-1.21352
 21
359.118
  0
LINE
  8
0
 10
-1.21352
 20
359.118
 11
-1.31445
 21
359.277
  0
LINE
  8
0
 10
-1.31445
 20
359.277
 11
-1.39465
 21
359.448
  0
LINE
  8
0
 10
-1.39465
 20
359.448
 11
-1.45287
 21
359.627
  0
LINE
  8
0
 10
-1.45287
 20
359.627
 11
-1.48816
 21
359.812
  0
LINE
  8
0
 10
-1.48816
 20
359.812
 11
-1.5
 21
360
  0
LINE
  8
0
 10
-1.5
 20
360
 11
-1.48816
 21
360.188
  0
LINE
  8
0
 10
-1.48816
 20
360.188
 11
-1.45287
 21
360.373
  0
LINE
  8
0
 10
-1.45287
 20
360.373
 11
-1.39465
 21
360.552
  0
LINE
  8
0
 10
-1.39465
 20
360.552
 11
-1.31445
 21
360.723
  0
LINE
  8
0
 10
-1.31445
 20
360.723
 11
-1.21352
 21
360.882
  0
LINE
  8
0
 10
-1.21352
 20
360.882
 11
-1.09344
 21
361.027
  0
LINE
  8
0
 10
-1.09344
 20
361.027
 11
-0.956131
 21
361.156
  0
LINE
  8
0
 10
-0.956131
 20
361.156
 11
-0.803726
 21
361.266
  0
LINE
  8
0
 10
-0.803726
 20
361.266
 11
-0.638657
 21
361.357
  0
LINE
  8
0
 10
-0.638657
 20
361.357
 11
-0.463516
 21
361.427
  0
LINE
  8
0
 10
-0.463516
 20
361.427
 11
-0.281067
 21
361.473
  0
LINE
  8
0
 10
-0.281067
 20
361.473
 11
-0.0941772
 21
361.497
  0
LINE
  8
0
 10
-0.0941772
 20
361.497
 11
0.0941772
 21
361.497
  0
LINE
  8
0
 10
0.0941772
 20
361.497
 11
0.281067
 21
361.473
  0
LINE
  8
0
 10
0.281067
 20
361.473
 11
0.463516
 21
361.427
  0
LINE
  8
0
 10
0.463516
 20
361.427
 11
0.638657
 21
361.357
  0
LINE
  8
0
 10
0.638657
 20
361.357
 11
0.803726
 21
361.266
  0
LINE
  8
0
 10
0.803726
 20
361.266
 11
0.956131
 21
361.156
  0
LINE
  8
0
 10
0.956131
 20
361.156
 11
1.09344
 21
361.027
  0
LINE
  8
0
 10
1.09344
 20
361.027
 11
1.21352
 21
360.882
  0
LINE
  8
0
 10
1.21352
 20
360.882
 11
1.31445
 21
360.723
  0
LINE
  8
0
 10
1.31445
 20
360.723
 11
1.39465
 21
360.552
  0
LINE
  8
0
 10
1.39465
 20
360.552
 11
1.45287
 21
360.373
  0
LINE
  8
0
 10
1.45287
 20
360.373
 11
1.48816
 21
360.188
  0
LINE
  8
0
 10
1.48816
 20
360.188
 11
1.5
 21
360
  0
LINE
  8
0
 10
1.5
 20
360
 11
1.48816
 21
359.812
  0
LINE
  8
0
 10
1.48816
 20
359.812
 11
1.45287
 21
359.627
  0
LINE
  8
0
 10
1.45287
 20
359.627
 11
1.39465
 21
359.448
  0
LINE
  8
0
 10
1.39465
 20
359.448
 11
1.31445
 21
359.277
  0
LINE
  8
0
 10
1.31445
 20
359.277
 11
1.21352
 21
359.118
  0
LINE
  8
0
 10
1.21352
 20
359.118
 11
1.09344
 21
358.973
  0
LINE
  8
0
 10
1.09344
 20
358.973
 11
0.956131
 21
358.844
  0
LINE
  8
0
 10
0.956131
 20
358.844
 11
0.803726
 21
358.734
  0
LINE
  8
0
 10
0.803726
 20
358.734
 11
0.638657
 21
358.643
  0
LINE
  8
0
 10
0.638657
 20
358.643
 11
0.463516
 21
358.573
  0
LINE
  8
0
 10
0.463516
 20
358.573
 11
0.281067
 21
358.527
  0
LINE
  8
0
 10
0.281067
 20
358.527
 11
0.0941772
 21
358.503
  0
LINE
  8
0
 10
0.0941772
 20
358.503
 11
-0.0941772
 21
358.503
  0
LINE
  8
0
 10
1.31166
 20
329.124
 11
2.16312
 21
329.343
  0
LINE
  8
0
 10
2.16312
 20
329.343
 11
2.98045
 21
329.666
  0
LINE
  8
0
 10
2.98045
 20
329.666
 11
3.75078
 21
330.09
  0
LINE
  8
0
 10
3.75078
 20
330.09
 11
4.46196
 21
330.606
  0
LINE
  8
0
 10
4.46196
 20
330.606
 11
5.10277
 21
331.208
  0
LINE
  8
0
 10
5.10277
 20
331.208
 11
5.66312
 21
331.886
  0
LINE
  8
0
 10
5.66312
 20
331.886
 11
6.13414
 21
332.628
  0
LINE
  8
0
 10
6.13414
 20
332.628
 11
6.50842
 21
333.423
  0
LINE
  8
0
 10
6.50842
 20
333.423
 11
6.78008
 21
334.259
  0
LINE
  8
0
 10
6.78008
 20
334.259
 11
6.94479
 21
335.123
  0
LINE
  8
0
 10
6.94479
 20
335.123
 11
7
 21
336
  0
LINE
  8
0
 10
7
 20
336
 11
6.94479
 21
336.877
  0
LINE
  8
0
 10
6.94479
 20
336.877
 11
6.78008
 21
337.741
  0
LINE
  8
0
 10
6.78008
 20
337.741
 11
6.50842
 21
338.577
  0
LINE
  8
0
 10
6.50842
 20
338.577
 11
6.13414
 21
339.372
  0
LINE
  8
0
 10
6.13414
 20
339.372
 11
5.66312
 21
340.114
  0
LINE
  8
0
 10
5.66312
 20
340.114
 11
5.10277
 21
340.792
  0
LINE
  8
0
 10
5.10277
 20
340.792
 11
4.46196
 21
341.394
  0
LINE
  8
0
 10
4.46196
 20
341.394
 11
3.75078
 21
341.91
  0
LINE
  8
0
 10
3.75078
 20
341.91
 11
2.98045
 21
342.334
  0
LINE
  8
0
 10
2.98045
 20
342.334
 11
2.16312
 21
342.657
  0
LINE
  8
0
 10
2.16312
 20
342.657
 11
1.31166
 21
342.876
  0
LINE
  8
0
 10
1.31166
 20
342.876
 11
0.439529
 21
342.986
  0
LINE
  8
0
 10
0.439529
 20
342.986
 11
-0.439529
 21
342.986
  0
LINE
  8
0
 10
-0.439529
 20
342.986
 11
-1.31166
 21
342.876
  0
LINE
  8
0
 10
-1.31166
 20
342.876
 11
-2.16312
 21
342.657
  0
LINE
  8
0
 10
-2.16312
 20
342.657
 11
-2.98045
 21
342.334
  0
LINE
  8
0
 10
-2.98045
 20
342.334
 11
-3.75078
 21
341.91
  0
LINE
  8
0
 10
-3.75078
 20
341.91
 11
-4.46196
 21
341.394
  0
LINE
  8
0
 10
-4.46196
 20
341.394
 11
-5.10277
 21
340.792
  0
LINE
  8
0
 10
-5.10277
 20
340.792
 11
-5.66312
 21
340.114
  0
LINE
  8
0
 10
-5.66312
 20
340.114
 11
-6.13414
 21
339.372
  0
LINE
  8
0
 10
-6.13414
 20
339.372
 11
-6.50842
 21
338.577
  0
LINE
  8
0
 10
-6.50842
 20
338.577
 11
-6.78008
 21
337.741
  0
LINE
  8
0
 10
-6.78008
 20
337.741
 11
-6.94479
 21
336.877
  0
LINE
  8
0
 10
-6.94479
 20
336.877
 11
-7
 21
336
  0
LINE
  8
0
 10
-7
 20
336
 11
-6.94479
 21
335.123
  0
LINE
  8
0
 10
-6.94479
 20
335.123
 11
-6.78008
 21
334.259
  0
LINE
  8
0
 10
-6.78008
 20
334.259
 11
-6.50842
 21
333.423
  0
LINE
  8
0
 10
-6.50842
 20
333.423
 11
-6.13414
 21
332.628
  0
LINE
  8
0
 10
-6.13414
 20
332.628
 11
-5.66312
 21
331.886
  0
LINE
  8
0
 10
-5.66312
 20
331.886
 11
-5.10277
 21
331.208
  0
LINE
  8
0
 10
-5.10277
 20
331.208
 11
-4.46196
 21
330.606
  0
LINE
  8
0
 10
-4.46196
 20
330.606
 11
-3.75078
 21
330.09
  0
LINE
  8
0
 10
-3.75078
 20
330.09
 11
-2.98045
 21
329.666
  0
LINE
  8
0
 10
-2.98045
 20
329.666
 11
-2.16312
 21
329.343
  0
LINE
  8
0
 10
-2.16312
 20
329.343
 11
-1.31166
 21
329.124
  0
LINE
  8
0
 10
-1.31166
 20
329.124
 11
-0.439529
 21
329.014
  0
LINE
  8
0
 10
-0.439529
 20
329.014
 11
0.439529
 21
329.014
  0
LINE
  8
0
 10
0.439529
 20
329.014
 11
1.31166
 21
329.124
  0
LINE
  8
0
 10
-0.0941772
 20
334.503
 11
-0.281067
 21
334.527
  0
LINE
  8
0
 10
-0.281067
 20
334.527
 11
-0.463516
 21
334.573
  0
LINE
  8
0
 10
-0.463516
 20
334.573
 11
-0.638657
 21
334.643
  0
LINE
  8
0
 10
-0.638657
 20
334.643
 11
-0.803726
 21
334.734
  0
LINE
  8
0
 10
-0.803726
 20
334.734
 11
-0.956131
 21
334.844
  0
LINE
  8
0
 10
-0.956131
 20
334.844
 11
-1.09344
 21
334.973
  0
LINE
  8
0
 10
-1.09344
 20
334.973
 11
-1.21352
 21
335.118
  0
LINE
  8
0
 10
-1.21352
 20
335.118
 11
-1.31445
 21
335.277
  0
LINE
  8
0
 10
-1.31445
 20
335.277
 11
-1.39465
 21
335.448
  0
LINE
  8
0
 10
-1.39465
 20
335.448
 11
-1.45287
 21
335.627
  0
LINE
  8
0
 10
-1.45287
 20
335.627
 11
-1.48816
 21
335.812
  0
LINE
  8
0
 10
-1.48816
 20
335.812
 11
-1.5
 21
336
  0
LINE
  8
0
 10
-1.5
 20
336
 11
-1.48816
 21
336.188
  0
LINE
  8
0
 10
-1.48816
 20
336.188
 11
-1.45287
 21
336.373
  0
LINE
  8
0
 10
-1.45287
 20
336.373
 11
-1.39465
 21
336.552
  0
LINE
  8
0
 10
-1.39465
 20
336.552
 11
-1.31445
 21
336.723
  0
LINE
  8
0
 10
-1.31445
 20
336.723
 11
-1.21352
 21
336.882
  0
LINE
  8
0
 10
-1.21352
 20
336.882
 11
-1.09344
 21
337.027
  0
LINE
  8
0
 10
-1.09344
 20
337.027
 11
-0.956131
 21
337.156
  0
LINE
  8
0
 10
-0.956131
 20
337.156
 11
-0.803726
 21
337.266
  0
LINE
  8
0
 10
-0.803726
 20
337.266
 11
-0.638657
 21
337.357
  0
LINE
  8
0
 10
-0.638657
 20
337.357
 11
-0.463516
 21
337.427
  0
LINE
  8
0
 10
-0.463516
 20
337.427
 11
-0.281067
 21
337.473
  0
LINE
  8
0
 10
-0.281067
 20
337.473
 11
-0.0941772
 21
337.497
  0
LINE
  8
0
 10
-0.0941772
 20
337.497
 11
0.0941772
 21
337.497
  0
LINE
  8
0
 10
0.0941772
 20
337.497
 11
0.281067
 21
337.473
  0
LINE
  8
0
 10
0.281067
 20
337.473
 11
0.463516
 21
337.427
  0
LINE
  8
0
 10
0.463516
 20
337.427
 11
0.638657
 21
337.357
  0
LINE
  8
0
 10
0.638657
 20
337.357
 11
0.803726
 21
337.266
  0
LINE
  8
0
 10
0.803726
 20
337.266
 11
0.956131
 21
337.156
  0
LINE
  8
0
 10
0.956131
 20
337.156
 11
1.09344
 21
337.027
  0
LINE
  8
0
 10
1.09344
 20
337.027
 11
1.21352
 21
336.882
  0
LINE
  8
0
 10
1.21352
 20
336.882
 11
1.31445
 21
336.723
  0
LINE
  8
0
 10
1.31445
 20
336.723
 11
1.39465
 21
336.552
  0
LINE
  8
0
 10
1.39465
 20
336.552
 11
1.45287
 21
336.373
  0
LINE
  8
0
 10
1.45287
 20
336.373
 11
1.48816
 21
336.188
  0
LINE
  8
0
 10
1.48816
 20
336.188
 11
1.5
 21
336
  0
LINE
  8
0
 10
1.5
 20
336
 11
1.48816
 21
335.812
  0
LINE
  8
0
 10
1.48816
 20
335.812
 11
1.45287
 21
335.627
  0
LINE
  8
0
 10
1.45287
 20
335.627
 11
1.39465
 21
335.448
  0
LINE
  8
0
 10
1.39465
 20
335.448
 11
1.31445
 21
335.277
  0
LINE
  8
0
 10
1.31445
 20
335.277
 11
1.21352
 21
335.118
  0
LINE
  8
0
 10
1.21352
 20
335.118
 11
1.09344
 21
334.973
  0
LINE
  8
0
 10
1.09344
 20
334.973
 11
0.956131
 21
334.844
  0
LINE
  8
0
 10
0.956131
 20
334.844
 11
0.803726
 21
334.734
  0
LINE
  8
0
 10
0.803726
 20
334.734
 11
0.638657
 21
334.643
  0
LINE
  8
0
 10
0.638657
 20
334.643
 11
0.463516
 21
334.573
  0
LINE
  8
0
 10
0.463516
 20
334.573
 11
0.281067
 21
334.527
  0
LINE
  8
0
 10
0.281067
 20
334.527
 11
0.0941772
 21
334.503
  0
LINE
  8
0
 10
0.0941772
 20
334.503
 11
-0.0941772
 21
334.503
  0
ENDSEC
  0
SECTION
  2
OBJECTS
  0
DICTIONARY
  0
ENDSEC
  0
EOF
