solid OpenSCAD_Model
  facet normal -0.904619 -0.426222 0
    outer loop
      vertex -221.978 1.1964 0
      vertex -222.152 1.5657 6
      vertex -222.152 1.5657 0
    endloop
  endfacet
  facet normal -0.904619 -0.426222 0
    outer loop
      vertex -222.152 1.5657 6
      vertex -221.978 1.1964 0
      vertex -221.978 1.1964 6
    endloop
  endfacet
  facet normal -0.843984 -0.536368 0
    outer loop
      vertex -222.152 1.5657 0
      vertex -222.371 1.9103 6
      vertex -222.371 1.9103 0
    endloop
  endfacet
  facet normal -0.843984 -0.536368 0
    outer loop
      vertex -222.371 1.9103 6
      vertex -222.152 1.5657 0
      vertex -222.152 1.5657 6
    endloop
  endfacet
  facet normal -0.367675 -0.929954 0
    outer loop
      vertex -223.996 3.09093 0
      vertex -223.616 2.94069 6
      vertex -223.996 3.09093 6
    endloop
  endfacet
  facet normal -0.367675 -0.929954 -0
    outer loop
      vertex -223.616 2.94069 6
      vertex -223.996 3.09093 0
      vertex -223.616 2.94069 0
    endloop
  endfacet
  facet normal 0.367675 -0.929954 0
    outer loop
      vertex -226.384 2.94069 0
      vertex -226.004 3.09093 6
      vertex -226.384 2.94069 6
    endloop
  endfacet
  facet normal 0.367675 -0.929954 0
    outer loop
      vertex -226.004 3.09093 6
      vertex -226.384 2.94069 0
      vertex -226.004 3.09093 0
    endloop
  endfacet
  facet normal 0.904619 -0.426222 0
    outer loop
      vertex -228.022 1.1964 6
      vertex -227.848 1.5657 0
      vertex -227.848 1.5657 6
    endloop
  endfacet
  facet normal 0.904619 -0.426222 0
    outer loop
      vertex -227.848 1.5657 0
      vertex -228.022 1.1964 6
      vertex -228.022 1.1964 0
    endloop
  endfacet
  facet normal -0.982502 0.186252 0
    outer loop
      vertex -221.852 -0.808242 0
      vertex -221.776 -0.407332 6
      vertex -221.776 -0.407332 0
    endloop
  endfacet
  facet normal -0.982502 0.186252 0
    outer loop
      vertex -221.776 -0.407332 6
      vertex -221.852 -0.808242 0
      vertex -221.852 -0.808242 6
    endloop
  endfacet
  facet normal -0.125325 -0.992116 0
    outer loop
      vertex -224.796 3.24359 0
      vertex -224.391 3.19243 6
      vertex -224.796 3.24359 6
    endloop
  endfacet
  facet normal -0.125325 -0.992116 -0
    outer loop
      vertex -224.391 3.19243 6
      vertex -224.796 3.24359 0
      vertex -224.391 3.19243 0
    endloop
  endfacet
  facet normal -0.586847 -0.809698 0
    outer loop
      vertex -223.259 2.74407 0
      vertex -222.928 2.50417 6
      vertex -223.259 2.74407 6
    endloop
  endfacet
  facet normal -0.586847 -0.809698 -0
    outer loop
      vertex -222.928 2.50417 6
      vertex -223.259 2.74407 0
      vertex -222.928 2.50417 0
    endloop
  endfacet
  facet normal 0.982502 -0.186252 0
    outer loop
      vertex -228.224 0.407332 6
      vertex -228.148 0.808242 0
      vertex -228.148 0.808242 6
    endloop
  endfacet
  facet normal 0.982502 -0.186252 0
    outer loop
      vertex -228.148 0.808242 0
      vertex -228.224 0.407332 6
      vertex -228.224 0.407332 0
    endloop
  endfacet
  facet normal 0.770706 -0.63719 0
    outer loop
      vertex -227.629 1.9103 6
      vertex -227.369 2.22478 0
      vertex -227.369 2.22478 6
    endloop
  endfacet
  facet normal 0.770706 -0.63719 0
    outer loop
      vertex -227.369 2.22478 0
      vertex -227.629 1.9103 6
      vertex -227.629 1.9103 0
    endloop
  endfacet
  facet normal 0.482427 -0.875936 0
    outer loop
      vertex -226.741 2.74407 0
      vertex -226.384 2.94069 6
      vertex -226.741 2.74407 6
    endloop
  endfacet
  facet normal 0.482427 -0.875936 0
    outer loop
      vertex -226.384 2.94069 6
      vertex -226.741 2.74407 0
      vertex -226.384 2.94069 0
    endloop
  endfacet
  facet normal 0.125325 -0.992116 0
    outer loop
      vertex -225.609 3.19243 0
      vertex -225.204 3.24359 6
      vertex -225.609 3.19243 6
    endloop
  endfacet
  facet normal 0.125325 -0.992116 0
    outer loop
      vertex -225.204 3.24359 6
      vertex -225.609 3.19243 0
      vertex -225.204 3.24359 0
    endloop
  endfacet
  facet normal -0.997969 -0.0637004 0
    outer loop
      vertex -221.75 0 0
      vertex -221.776 0.407332 6
      vertex -221.776 0.407332 0
    endloop
  endfacet
  facet normal -0.997969 -0.0637004 0
    outer loop
      vertex -221.776 0.407332 6
      vertex -221.75 0 0
      vertex -221.75 0 6
    endloop
  endfacet
  facet normal -0.951143 0.308751 0
    outer loop
      vertex -221.978 -1.1964 0
      vertex -221.852 -0.808242 6
      vertex -221.852 -0.808242 0
    endloop
  endfacet
  facet normal -0.951143 0.308751 0
    outer loop
      vertex -221.852 -0.808242 6
      vertex -221.978 -1.1964 0
      vertex -221.978 -1.1964 6
    endloop
  endfacet
  facet normal -0.586847 0.809698 0
    outer loop
      vertex -222.928 -2.50417 0
      vertex -223.259 -2.74407 6
      vertex -222.928 -2.50417 6
    endloop
  endfacet
  facet normal -0.586847 0.809698 0
    outer loop
      vertex -223.259 -2.74407 6
      vertex -222.928 -2.50417 0
      vertex -223.259 -2.74407 0
    endloop
  endfacet
  facet normal -0.982502 -0.186252 0
    outer loop
      vertex -221.776 0.407332 0
      vertex -221.852 0.808242 6
      vertex -221.852 0.808242 0
    endloop
  endfacet
  facet normal -0.982502 -0.186252 0
    outer loop
      vertex -221.852 0.808242 6
      vertex -221.776 0.407332 0
      vertex -221.776 0.407332 6
    endloop
  endfacet
  facet normal -0.951143 -0.308751 0
    outer loop
      vertex -221.852 0.808242 0
      vertex -221.978 1.1964 6
      vertex -221.978 1.1964 0
    endloop
  endfacet
  facet normal -0.951143 -0.308751 0
    outer loop
      vertex -221.978 1.1964 6
      vertex -221.852 0.808242 0
      vertex -221.852 0.808242 6
    endloop
  endfacet
  facet normal -0.685183 -0.728371 0
    outer loop
      vertex -222.928 2.50417 0
      vertex -222.631 2.22478 6
      vertex -222.928 2.50417 6
    endloop
  endfacet
  facet normal -0.685183 -0.728371 -0
    outer loop
      vertex -222.631 2.22478 6
      vertex -222.928 2.50417 0
      vertex -222.631 2.22478 0
    endloop
  endfacet
  facet normal 0 -1 0
    outer loop
      vertex -225.204 3.24359 0
      vertex -224.796 3.24359 6
      vertex -225.204 3.24359 6
    endloop
  endfacet
  facet normal 0 -1 -0
    outer loop
      vertex -224.796 3.24359 6
      vertex -225.204 3.24359 0
      vertex -224.796 3.24359 0
    endloop
  endfacet
  facet normal -0.248877 -0.968535 0
    outer loop
      vertex -224.391 3.19243 0
      vertex -223.996 3.09093 6
      vertex -224.391 3.19243 6
    endloop
  endfacet
  facet normal -0.248877 -0.968535 -0
    outer loop
      vertex -223.996 3.09093 6
      vertex -224.391 3.19243 0
      vertex -223.996 3.09093 0
    endloop
  endfacet
  facet normal -0.482427 -0.875936 0
    outer loop
      vertex -223.616 2.94069 0
      vertex -223.259 2.74407 6
      vertex -223.616 2.94069 6
    endloop
  endfacet
  facet normal -0.482427 -0.875936 -0
    outer loop
      vertex -223.259 2.74407 6
      vertex -223.616 2.94069 0
      vertex -223.259 2.74407 0
    endloop
  endfacet
  facet normal 0.997969 -0.0637004 0
    outer loop
      vertex -228.25 0 6
      vertex -228.224 0.407332 0
      vertex -228.224 0.407332 6
    endloop
  endfacet
  facet normal 0.997969 -0.0637004 0
    outer loop
      vertex -228.224 0.407332 0
      vertex -228.25 0 6
      vertex -228.25 0 0
    endloop
  endfacet
  facet normal 0 0 1
    outer loop
      vertex 227.314 6.99013 6
      vertex 232 2 6
      vertex 231.961 2.62667 6
    endloop
  endfacet
  facet normal 0 0 1
    outer loop
      vertex 232 2 6
      vertex 227.314 6.99013 6
      vertex 232 -2 6
    endloop
  endfacet
  facet normal 0 0 1
    outer loop
      vertex 227.314 6.99013 6
      vertex 231.961 2.62667 6
      vertex 231.843 3.24345 6
    endloop
  endfacet
  facet normal 0 0 1
    outer loop
      vertex 227.314 -6.99013 6
      vertex 232 -2 6
      vertex 227.314 6.99013 6
    endloop
  endfacet
  facet normal 0 0 1
    outer loop
      vertex 227.314 6.99013 6
      vertex 231.843 3.24345 6
      vertex 231.649 3.84062 6
    endloop
  endfacet
  facet normal 0 0 1
    outer loop
      vertex 232 -2 6
      vertex 227.314 -6.99013 6
      vertex 231.961 -2.62667 6
    endloop
  endfacet
  facet normal 0 0 1
    outer loop
      vertex 227.314 6.99013 6
      vertex 231.649 3.84062 6
      vertex 231.382 4.40877 6
    endloop
  endfacet
  facet normal 0 0 1
    outer loop
      vertex 231.961 -2.62667 6
      vertex 227.314 -6.99013 6
      vertex 231.843 -3.24345 6
    endloop
  endfacet
  facet normal 0 0 1
    outer loop
      vertex 227.314 6.99013 6
      vertex 231.382 4.40877 6
      vertex 231.045 4.93893 6
    endloop
  endfacet
  facet normal 0 0 1
    outer loop
      vertex 231.843 -3.24345 6
      vertex 227.314 -6.99013 6
      vertex 231.649 -3.84062 6
    endloop
  endfacet
  facet normal 0 0 1
    outer loop
      vertex 227.314 6.99013 6
      vertex 231.045 4.93893 6
      vertex 230.645 5.42274 6
    endloop
  endfacet
  facet normal 0 0 1
    outer loop
      vertex 231.649 -3.84062 6
      vertex 227.314 -6.99013 6
      vertex 231.382 -4.40877 6
    endloop
  endfacet
  facet normal 0 0 1
    outer loop
      vertex 227.314 6.99013 6
      vertex 230.645 5.42274 6
      vertex 230.187 5.85257 6
    endloop
  endfacet
  facet normal 0 0 1
    outer loop
      vertex 231.382 -4.40877 6
      vertex 227.314 -6.99013 6
      vertex 231.045 -4.93893 6
    endloop
  endfacet
  facet normal 0 0 1
    outer loop
      vertex 227.314 6.99013 6
      vertex 230.187 5.85257 6
      vertex 229.679 6.22164 6
    endloop
  endfacet
  facet normal 0 0 1
    outer loop
      vertex 231.045 -4.93893 6
      vertex 227.314 -6.99013 6
      vertex 230.645 -5.42274 6
    endloop
  endfacet
  facet normal 0 0 1
    outer loop
      vertex 227.314 6.99013 6
      vertex 229.679 6.22164 6
      vertex 229.129 6.52413 6
    endloop
  endfacet
  facet normal 0 0 1
    outer loop
      vertex 230.645 -5.42274 6
      vertex 227.314 -6.99013 6
      vertex 230.187 -5.85257 6
    endloop
  endfacet
  facet normal 0 0 1
    outer loop
      vertex 227.314 6.99013 6
      vertex 229.129 6.52413 6
      vertex 228.545 6.75528 6
    endloop
  endfacet
  facet normal 0 0 1
    outer loop
      vertex 230.187 -5.85257 6
      vertex 227.314 -6.99013 6
      vertex 229.679 -6.22164 6
    endloop
  endfacet
  facet normal 0 0 1
    outer loop
      vertex 227.314 6.99013 6
      vertex 228.545 6.75528 6
      vertex 227.937 6.91144 6
    endloop
  endfacet
  facet normal 0 0 1
    outer loop
      vertex 229.679 -6.22164 6
      vertex 227.314 -6.99013 6
      vertex 229.129 -6.52413 6
    endloop
  endfacet
  facet normal 0 0 1
    outer loop
      vertex 229.129 -6.52413 6
      vertex 227.314 -6.99013 6
      vertex 228.545 -6.75528 6
    endloop
  endfacet
  facet normal 0 0 1
    outer loop
      vertex 228.545 -6.75528 6
      vertex 227.314 -6.99013 6
      vertex 227.937 -6.91144 6
    endloop
  endfacet
  facet normal 0 0 1
    outer loop
      vertex 227.314 6.99013 6
      vertex -221.75 0 6
      vertex 227.314 -6.99013 6
    endloop
  endfacet
  facet normal 0 0 1
    outer loop
      vertex 227.314 6.99013 6
      vertex -221.776 0.407332 6
      vertex -221.75 0 6
    endloop
  endfacet
  facet normal 0 0 1
    outer loop
      vertex 227.314 6.99013 6
      vertex -221.852 0.808242 6
      vertex -221.776 0.407332 6
    endloop
  endfacet
  facet normal 0 0 1
    outer loop
      vertex 227.314 6.99013 6
      vertex -221.978 1.1964 6
      vertex -221.852 0.808242 6
    endloop
  endfacet
  facet normal 0 0 1
    outer loop
      vertex 227.314 6.99013 6
      vertex -222.152 1.5657 6
      vertex -221.978 1.1964 6
    endloop
  endfacet
  facet normal 0 0 1
    outer loop
      vertex 227.314 6.99013 6
      vertex -222.371 1.9103 6
      vertex -222.152 1.5657 6
    endloop
  endfacet
  facet normal 0 0 1
    outer loop
      vertex 227.314 6.99013 6
      vertex -222.631 2.22478 6
      vertex -222.371 1.9103 6
    endloop
  endfacet
  facet normal -0 0 1
    outer loop
      vertex -227.314 6.99013 6
      vertex -222.631 2.22478 6
      vertex 227.314 6.99013 6
    endloop
  endfacet
  facet normal 0 0 1
    outer loop
      vertex -222.631 2.22478 6
      vertex -227.314 6.99013 6
      vertex -222.928 2.50417 6
    endloop
  endfacet
  facet normal 0 0 1
    outer loop
      vertex -222.928 2.50417 6
      vertex -227.314 6.99013 6
      vertex -223.259 2.74407 6
    endloop
  endfacet
  facet normal 0 0 1
    outer loop
      vertex -223.259 2.74407 6
      vertex -227.314 6.99013 6
      vertex -223.616 2.94069 6
    endloop
  endfacet
  facet normal 0 0 1
    outer loop
      vertex -223.616 2.94069 6
      vertex -227.314 6.99013 6
      vertex -223.996 3.09093 6
    endloop
  endfacet
  facet normal 0 0 1
    outer loop
      vertex -223.996 3.09093 6
      vertex -227.314 6.99013 6
      vertex -224.391 3.19243 6
    endloop
  endfacet
  facet normal 0 0 1
    outer loop
      vertex -224.391 3.19243 6
      vertex -227.314 6.99013 6
      vertex -224.796 3.24359 6
    endloop
  endfacet
  facet normal 0 0 1
    outer loop
      vertex -224.796 3.24359 6
      vertex -227.314 6.99013 6
      vertex -225.204 3.24359 6
    endloop
  endfacet
  facet normal 0 0 1
    outer loop
      vertex -227.314 6.99013 6
      vertex -225.609 3.19243 6
      vertex -225.204 3.24359 6
    endloop
  endfacet
  facet normal 0 0 1
    outer loop
      vertex -227.314 6.99013 6
      vertex -226.004 3.09093 6
      vertex -225.609 3.19243 6
    endloop
  endfacet
  facet normal 0 0 1
    outer loop
      vertex -227.314 6.99013 6
      vertex -226.384 2.94069 6
      vertex -226.004 3.09093 6
    endloop
  endfacet
  facet normal -0 0 1
    outer loop
      vertex -227.937 6.91144 6
      vertex -226.384 2.94069 6
      vertex -227.314 6.99013 6
    endloop
  endfacet
  facet normal 0 0 1
    outer loop
      vertex -226.384 2.94069 6
      vertex -227.937 6.91144 6
      vertex -226.741 2.74407 6
    endloop
  endfacet
  facet normal -0 0 1
    outer loop
      vertex -228.545 6.75528 6
      vertex -226.741 2.74407 6
      vertex -227.937 6.91144 6
    endloop
  endfacet
  facet normal -0 0 1
    outer loop
      vertex -229.129 6.52413 6
      vertex -226.741 2.74407 6
      vertex -228.545 6.75528 6
    endloop
  endfacet
  facet normal 0 0 1
    outer loop
      vertex -226.741 2.74407 6
      vertex -229.129 6.52413 6
      vertex -227.072 2.50417 6
    endloop
  endfacet
  facet normal -0 0 1
    outer loop
      vertex -229.679 6.22164 6
      vertex -227.072 2.50417 6
      vertex -229.129 6.52413 6
    endloop
  endfacet
  facet normal -0 0 1
    outer loop
      vertex -230.187 5.85257 6
      vertex -227.072 2.50417 6
      vertex -229.679 6.22164 6
    endloop
  endfacet
  facet normal 0 0 1
    outer loop
      vertex -227.072 2.50417 6
      vertex -230.187 5.85257 6
      vertex -227.369 2.22478 6
    endloop
  endfacet
  facet normal -0 0 1
    outer loop
      vertex -230.645 5.42274 6
      vertex -227.369 2.22478 6
      vertex -230.187 5.85257 6
    endloop
  endfacet
  facet normal -0 0 1
    outer loop
      vertex -231.045 4.93893 6
      vertex -227.369 2.22478 6
      vertex -230.645 5.42274 6
    endloop
  endfacet
  facet normal 0 0 1
    outer loop
      vertex -227.369 2.22478 6
      vertex -231.045 4.93893 6
      vertex -227.629 1.9103 6
    endloop
  endfacet
  facet normal -0 0 1
    outer loop
      vertex -221.776 -0.407332 6
      vertex 227.314 -6.99013 6
      vertex -221.75 0 6
    endloop
  endfacet
  facet normal -0 0 1
    outer loop
      vertex -221.852 -0.808242 6
      vertex 227.314 -6.99013 6
      vertex -221.776 -0.407332 6
    endloop
  endfacet
  facet normal -0 0 1
    outer loop
      vertex -221.978 -1.1964 6
      vertex 227.314 -6.99013 6
      vertex -221.852 -0.808242 6
    endloop
  endfacet
  facet normal -0 0 1
    outer loop
      vertex -222.152 -1.5657 6
      vertex 227.314 -6.99013 6
      vertex -221.978 -1.1964 6
    endloop
  endfacet
  facet normal -0 0 1
    outer loop
      vertex -222.371 -1.9103 6
      vertex 227.314 -6.99013 6
      vertex -222.152 -1.5657 6
    endloop
  endfacet
  facet normal -0 0 1
    outer loop
      vertex -222.631 -2.22478 6
      vertex 227.314 -6.99013 6
      vertex -222.371 -1.9103 6
    endloop
  endfacet
  facet normal 0 0 1
    outer loop
      vertex -227.314 -6.99013 6
      vertex -222.631 -2.22478 6
      vertex -222.928 -2.50417 6
    endloop
  endfacet
  facet normal 0 0 1
    outer loop
      vertex -227.314 -6.99013 6
      vertex -222.928 -2.50417 6
      vertex -223.259 -2.74407 6
    endloop
  endfacet
  facet normal 0 0 1
    outer loop
      vertex -227.314 -6.99013 6
      vertex -223.259 -2.74407 6
      vertex -223.616 -2.94069 6
    endloop
  endfacet
  facet normal 0 0 1
    outer loop
      vertex -227.314 -6.99013 6
      vertex -223.616 -2.94069 6
      vertex -223.996 -3.09093 6
    endloop
  endfacet
  facet normal 0 0 1
    outer loop
      vertex -227.314 -6.99013 6
      vertex -223.996 -3.09093 6
      vertex -224.391 -3.19243 6
    endloop
  endfacet
  facet normal 0 0 1
    outer loop
      vertex -227.314 -6.99013 6
      vertex -224.391 -3.19243 6
      vertex -224.796 -3.24359 6
    endloop
  endfacet
  facet normal 0 0 1
    outer loop
      vertex -227.314 -6.99013 6
      vertex -224.796 -3.24359 6
      vertex -225.204 -3.24359 6
    endloop
  endfacet
  facet normal 0 0 1
    outer loop
      vertex -222.631 -2.22478 6
      vertex -227.314 -6.99013 6
      vertex 227.314 -6.99013 6
    endloop
  endfacet
  facet normal 0 0 1
    outer loop
      vertex -225.609 -3.19243 6
      vertex -227.314 -6.99013 6
      vertex -225.204 -3.24359 6
    endloop
  endfacet
  facet normal 0 0 1
    outer loop
      vertex -226.004 -3.09093 6
      vertex -227.314 -6.99013 6
      vertex -225.609 -3.19243 6
    endloop
  endfacet
  facet normal 0 0 1
    outer loop
      vertex -226.384 -2.94069 6
      vertex -227.314 -6.99013 6
      vertex -226.004 -3.09093 6
    endloop
  endfacet
  facet normal 0 0 1
    outer loop
      vertex -227.937 -6.91144 6
      vertex -226.384 -2.94069 6
      vertex -226.741 -2.74407 6
    endloop
  endfacet
  facet normal 0 0 1
    outer loop
      vertex -229.129 -6.52413 6
      vertex -226.741 -2.74407 6
      vertex -227.072 -2.50417 6
    endloop
  endfacet
  facet normal 0 0 1
    outer loop
      vertex -230.187 -5.85257 6
      vertex -227.072 -2.50417 6
      vertex -227.369 -2.22478 6
    endloop
  endfacet
  facet normal 0 0 1
    outer loop
      vertex -231.045 -4.93893 6
      vertex -227.369 -2.22478 6
      vertex -227.629 -1.9103 6
    endloop
  endfacet
  facet normal 0 0 1
    outer loop
      vertex -231.649 -3.84062 6
      vertex -227.629 -1.9103 6
      vertex -227.848 -1.5657 6
    endloop
  endfacet
  facet normal 0 0 1
    outer loop
      vertex -226.384 -2.94069 6
      vertex -227.937 -6.91144 6
      vertex -227.314 -6.99013 6
    endloop
  endfacet
  facet normal 0 0 1
    outer loop
      vertex -231.961 -2.62667 6
      vertex -227.848 -1.5657 6
      vertex -228.022 -1.1964 6
    endloop
  endfacet
  facet normal 0 0 1
    outer loop
      vertex -232 -2 6
      vertex -228.022 -1.1964 6
      vertex -228.148 -0.808242 6
    endloop
  endfacet
  facet normal 0 0 1
    outer loop
      vertex -232 -2 6
      vertex -228.148 -0.808242 6
      vertex -228.224 -0.407332 6
    endloop
  endfacet
  facet normal 0 0 1
    outer loop
      vertex -232 -2 6
      vertex -228.224 -0.407332 6
      vertex -228.25 0 6
    endloop
  endfacet
  facet normal 0 0 1
    outer loop
      vertex -226.741 -2.74407 6
      vertex -228.545 -6.75528 6
      vertex -227.937 -6.91144 6
    endloop
  endfacet
  facet normal -0 0 1
    outer loop
      vertex -231.382 4.40877 6
      vertex -227.629 1.9103 6
      vertex -231.045 4.93893 6
    endloop
  endfacet
  facet normal -0 0 1
    outer loop
      vertex -231.649 3.84062 6
      vertex -227.629 1.9103 6
      vertex -231.382 4.40877 6
    endloop
  endfacet
  facet normal 0 0 1
    outer loop
      vertex -232 -2 6
      vertex -228.25 0 6
      vertex -232 2 6
    endloop
  endfacet
  facet normal 0 0 1
    outer loop
      vertex -227.629 1.9103 6
      vertex -231.649 3.84062 6
      vertex -227.848 1.5657 6
    endloop
  endfacet
  facet normal 0 0 1
    outer loop
      vertex -228.022 -1.1964 6
      vertex -232 -2 6
      vertex -231.961 -2.62667 6
    endloop
  endfacet
  facet normal -0 0 1
    outer loop
      vertex -231.843 3.24345 6
      vertex -227.848 1.5657 6
      vertex -231.649 3.84062 6
    endloop
  endfacet
  facet normal 0 0 1
    outer loop
      vertex -226.741 -2.74407 6
      vertex -229.129 -6.52413 6
      vertex -228.545 -6.75528 6
    endloop
  endfacet
  facet normal -0 0 1
    outer loop
      vertex -231.961 2.62667 6
      vertex -227.848 1.5657 6
      vertex -231.843 3.24345 6
    endloop
  endfacet
  facet normal 0 0 1
    outer loop
      vertex -227.072 -2.50417 6
      vertex -229.679 -6.22164 6
      vertex -229.129 -6.52413 6
    endloop
  endfacet
  facet normal 0 0 1
    outer loop
      vertex -227.848 1.5657 6
      vertex -231.961 2.62667 6
      vertex -228.022 1.1964 6
    endloop
  endfacet
  facet normal 0 0 1
    outer loop
      vertex -227.072 -2.50417 6
      vertex -230.187 -5.85257 6
      vertex -229.679 -6.22164 6
    endloop
  endfacet
  facet normal -0 0 1
    outer loop
      vertex -232 2 6
      vertex -228.022 1.1964 6
      vertex -231.961 2.62667 6
    endloop
  endfacet
  facet normal 0 0 1
    outer loop
      vertex -227.369 -2.22478 6
      vertex -230.645 -5.42274 6
      vertex -230.187 -5.85257 6
    endloop
  endfacet
  facet normal 0 0 1
    outer loop
      vertex -228.022 1.1964 6
      vertex -232 2 6
      vertex -228.148 0.808242 6
    endloop
  endfacet
  facet normal 0 0 1
    outer loop
      vertex -227.369 -2.22478 6
      vertex -231.045 -4.93893 6
      vertex -230.645 -5.42274 6
    endloop
  endfacet
  facet normal 0 0 1
    outer loop
      vertex -228.148 0.808242 6
      vertex -232 2 6
      vertex -228.224 0.407332 6
    endloop
  endfacet
  facet normal 0 0 1
    outer loop
      vertex -227.629 -1.9103 6
      vertex -231.382 -4.40877 6
      vertex -231.045 -4.93893 6
    endloop
  endfacet
  facet normal 0 0 1
    outer loop
      vertex -228.224 0.407332 6
      vertex -232 2 6
      vertex -228.25 0 6
    endloop
  endfacet
  facet normal 0 0 1
    outer loop
      vertex -227.629 -1.9103 6
      vertex -231.649 -3.84062 6
      vertex -231.382 -4.40877 6
    endloop
  endfacet
  facet normal 0 0 1
    outer loop
      vertex -227.848 -1.5657 6
      vertex -231.843 -3.24345 6
      vertex -231.649 -3.84062 6
    endloop
  endfacet
  facet normal 0 0 1
    outer loop
      vertex -227.848 -1.5657 6
      vertex -231.961 -2.62667 6
      vertex -231.843 -3.24345 6
    endloop
  endfacet
  facet normal 0.951143 -0.308751 0
    outer loop
      vertex -228.148 0.808242 6
      vertex -228.022 1.1964 0
      vertex -228.022 1.1964 6
    endloop
  endfacet
  facet normal 0.951143 -0.308751 0
    outer loop
      vertex -228.022 1.1964 0
      vertex -228.148 0.808242 6
      vertex -228.148 0.808242 0
    endloop
  endfacet
  facet normal 0.843984 -0.536368 0
    outer loop
      vertex -227.848 1.5657 6
      vertex -227.629 1.9103 0
      vertex -227.629 1.9103 6
    endloop
  endfacet
  facet normal 0.843984 -0.536368 0
    outer loop
      vertex -227.629 1.9103 0
      vertex -227.848 1.5657 6
      vertex -227.848 1.5657 0
    endloop
  endfacet
  facet normal 0.248877 -0.968535 0
    outer loop
      vertex -226.004 3.09093 0
      vertex -225.609 3.19243 6
      vertex -226.004 3.09093 6
    endloop
  endfacet
  facet normal 0.248877 -0.968535 0
    outer loop
      vertex -225.609 3.19243 6
      vertex -226.004 3.09093 0
      vertex -225.609 3.19243 0
    endloop
  endfacet
  facet normal 0.586847 -0.809698 0
    outer loop
      vertex -227.072 2.50417 0
      vertex -226.741 2.74407 6
      vertex -227.072 2.50417 6
    endloop
  endfacet
  facet normal 0.586847 -0.809698 0
    outer loop
      vertex -226.741 2.74407 6
      vertex -227.072 2.50417 0
      vertex -226.741 2.74407 0
    endloop
  endfacet
  facet normal 0.685183 -0.728371 0
    outer loop
      vertex -227.369 2.22478 0
      vertex -227.072 2.50417 6
      vertex -227.369 2.22478 6
    endloop
  endfacet
  facet normal 0.685183 -0.728371 0
    outer loop
      vertex -227.072 2.50417 6
      vertex -227.369 2.22478 0
      vertex -227.072 2.50417 0
    endloop
  endfacet
  facet normal -0.843984 0.536368 0
    outer loop
      vertex -222.371 -1.9103 0
      vertex -222.152 -1.5657 6
      vertex -222.152 -1.5657 0
    endloop
  endfacet
  facet normal -0.843984 0.536368 0
    outer loop
      vertex -222.152 -1.5657 6
      vertex -222.371 -1.9103 0
      vertex -222.371 -1.9103 6
    endloop
  endfacet
  facet normal 0 1 -0
    outer loop
      vertex -224.796 -3.24359 0
      vertex -225.204 -3.24359 6
      vertex -224.796 -3.24359 6
    endloop
  endfacet
  facet normal 0 1 0
    outer loop
      vertex -225.204 -3.24359 6
      vertex -224.796 -3.24359 0
      vertex -225.204 -3.24359 0
    endloop
  endfacet
  facet normal 0.951143 0.308751 0
    outer loop
      vertex -228.022 -1.1964 6
      vertex -228.148 -0.808242 0
      vertex -228.148 -0.808242 6
    endloop
  endfacet
  facet normal 0.951143 0.308751 0
    outer loop
      vertex -228.148 -0.808242 0
      vertex -228.022 -1.1964 6
      vertex -228.022 -1.1964 0
    endloop
  endfacet
  facet normal 0.904619 0.426222 0
    outer loop
      vertex -227.848 -1.5657 6
      vertex -228.022 -1.1964 0
      vertex -228.022 -1.1964 6
    endloop
  endfacet
  facet normal 0.904619 0.426222 0
    outer loop
      vertex -228.022 -1.1964 0
      vertex -227.848 -1.5657 6
      vertex -227.848 -1.5657 0
    endloop
  endfacet
  facet normal -0.125325 0.992116 0
    outer loop
      vertex -224.391 -3.19243 0
      vertex -224.796 -3.24359 6
      vertex -224.391 -3.19243 6
    endloop
  endfacet
  facet normal -0.125325 0.992116 0
    outer loop
      vertex -224.796 -3.24359 6
      vertex -224.391 -3.19243 0
      vertex -224.796 -3.24359 0
    endloop
  endfacet
  facet normal -0.770706 -0.63719 0
    outer loop
      vertex -222.371 1.9103 0
      vertex -222.631 2.22478 6
      vertex -222.631 2.22478 0
    endloop
  endfacet
  facet normal -0.770706 -0.63719 0
    outer loop
      vertex -222.631 2.22478 6
      vertex -222.371 1.9103 0
      vertex -222.371 1.9103 6
    endloop
  endfacet
  facet normal -0.997969 0.0637004 0
    outer loop
      vertex -221.776 -0.407332 0
      vertex -221.75 0 6
      vertex -221.75 0 0
    endloop
  endfacet
  facet normal -0.997969 0.0637004 0
    outer loop
      vertex -221.75 0 6
      vertex -221.776 -0.407332 0
      vertex -221.776 -0.407332 6
    endloop
  endfacet
  facet normal 0 0 -1
    outer loop
      vertex 227.314 -6.99013 0
      vertex 232 -2 0
      vertex 231.961 -2.62667 0
    endloop
  endfacet
  facet normal -0 0 -1
    outer loop
      vertex 232 -2 0
      vertex 227.314 -6.99013 0
      vertex 232 2 0
    endloop
  endfacet
  facet normal 0 0 -1
    outer loop
      vertex 227.314 -6.99013 0
      vertex 231.961 -2.62667 0
      vertex 231.843 -3.24345 0
    endloop
  endfacet
  facet normal 0 0 -1
    outer loop
      vertex 227.314 6.99013 0
      vertex 232 2 0
      vertex 227.314 -6.99013 0
    endloop
  endfacet
  facet normal 0 0 -1
    outer loop
      vertex 227.314 -6.99013 0
      vertex 231.843 -3.24345 0
      vertex 231.649 -3.84062 0
    endloop
  endfacet
  facet normal 0 0 -1
    outer loop
      vertex 232 2 0
      vertex 227.314 6.99013 0
      vertex 231.961 2.62667 0
    endloop
  endfacet
  facet normal 0 0 -1
    outer loop
      vertex 227.314 -6.99013 0
      vertex 231.649 -3.84062 0
      vertex 231.382 -4.40877 0
    endloop
  endfacet
  facet normal 0 0 -1
    outer loop
      vertex 231.961 2.62667 0
      vertex 227.314 6.99013 0
      vertex 231.843 3.24345 0
    endloop
  endfacet
  facet normal 0 0 -1
    outer loop
      vertex 227.314 -6.99013 0
      vertex 231.382 -4.40877 0
      vertex 231.045 -4.93893 0
    endloop
  endfacet
  facet normal 0 0 -1
    outer loop
      vertex 231.843 3.24345 0
      vertex 227.314 6.99013 0
      vertex 231.649 3.84062 0
    endloop
  endfacet
  facet normal 0 0 -1
    outer loop
      vertex 227.314 -6.99013 0
      vertex 231.045 -4.93893 0
      vertex 230.645 -5.42274 0
    endloop
  endfacet
  facet normal 0 0 -1
    outer loop
      vertex 231.649 3.84062 0
      vertex 227.314 6.99013 0
      vertex 231.382 4.40877 0
    endloop
  endfacet
  facet normal 0 0 -1
    outer loop
      vertex 227.314 -6.99013 0
      vertex 230.645 -5.42274 0
      vertex 230.187 -5.85257 0
    endloop
  endfacet
  facet normal 0 0 -1
    outer loop
      vertex 231.382 4.40877 0
      vertex 227.314 6.99013 0
      vertex 231.045 4.93893 0
    endloop
  endfacet
  facet normal 0 0 -1
    outer loop
      vertex 227.314 -6.99013 0
      vertex 230.187 -5.85257 0
      vertex 229.679 -6.22164 0
    endloop
  endfacet
  facet normal 0 0 -1
    outer loop
      vertex 231.045 4.93893 0
      vertex 227.314 6.99013 0
      vertex 230.645 5.42274 0
    endloop
  endfacet
  facet normal 0 0 -1
    outer loop
      vertex 227.314 -6.99013 0
      vertex 229.679 -6.22164 0
      vertex 229.129 -6.52413 0
    endloop
  endfacet
  facet normal 0 0 -1
    outer loop
      vertex 230.645 5.42274 0
      vertex 227.314 6.99013 0
      vertex 230.187 5.85257 0
    endloop
  endfacet
  facet normal 0 0 -1
    outer loop
      vertex 227.314 -6.99013 0
      vertex 229.129 -6.52413 0
      vertex 228.545 -6.75528 0
    endloop
  endfacet
  facet normal 0 0 -1
    outer loop
      vertex 230.187 5.85257 0
      vertex 227.314 6.99013 0
      vertex 229.679 6.22164 0
    endloop
  endfacet
  facet normal 0 0 -1
    outer loop
      vertex 227.314 -6.99013 0
      vertex 228.545 -6.75528 0
      vertex 227.937 -6.91144 0
    endloop
  endfacet
  facet normal 0 0 -1
    outer loop
      vertex 229.679 6.22164 0
      vertex 227.314 6.99013 0
      vertex 229.129 6.52413 0
    endloop
  endfacet
  facet normal 0 0 -1
    outer loop
      vertex 229.129 6.52413 0
      vertex 227.314 6.99013 0
      vertex 228.545 6.75528 0
    endloop
  endfacet
  facet normal 0 0 -1
    outer loop
      vertex 228.545 6.75528 0
      vertex 227.314 6.99013 0
      vertex 227.937 6.91144 0
    endloop
  endfacet
  facet normal 0 0 -1
    outer loop
      vertex 227.314 -6.99013 0
      vertex -221.75 0 0
      vertex 227.314 6.99013 0
    endloop
  endfacet
  facet normal 0 0 -1
    outer loop
      vertex 227.314 -6.99013 0
      vertex -221.776 -0.407332 0
      vertex -221.75 0 0
    endloop
  endfacet
  facet normal 0 0 -1
    outer loop
      vertex 227.314 -6.99013 0
      vertex -221.852 -0.808242 0
      vertex -221.776 -0.407332 0
    endloop
  endfacet
  facet normal 0 0 -1
    outer loop
      vertex 227.314 -6.99013 0
      vertex -221.978 -1.1964 0
      vertex -221.852 -0.808242 0
    endloop
  endfacet
  facet normal 0 0 -1
    outer loop
      vertex 227.314 -6.99013 0
      vertex -222.152 -1.5657 0
      vertex -221.978 -1.1964 0
    endloop
  endfacet
  facet normal 0 0 -1
    outer loop
      vertex 227.314 -6.99013 0
      vertex -222.371 -1.9103 0
      vertex -222.152 -1.5657 0
    endloop
  endfacet
  facet normal 0 0 -1
    outer loop
      vertex 227.314 -6.99013 0
      vertex -222.631 -2.22478 0
      vertex -222.371 -1.9103 0
    endloop
  endfacet
  facet normal 0 0 -1
    outer loop
      vertex -227.314 -6.99013 0
      vertex -222.631 -2.22478 0
      vertex 227.314 -6.99013 0
    endloop
  endfacet
  facet normal 0 0 -1
    outer loop
      vertex -222.631 -2.22478 0
      vertex -227.314 -6.99013 0
      vertex -222.928 -2.50417 0
    endloop
  endfacet
  facet normal 0 0 -1
    outer loop
      vertex -222.928 -2.50417 0
      vertex -227.314 -6.99013 0
      vertex -223.259 -2.74407 0
    endloop
  endfacet
  facet normal 0 0 -1
    outer loop
      vertex -223.259 -2.74407 0
      vertex -227.314 -6.99013 0
      vertex -223.616 -2.94069 0
    endloop
  endfacet
  facet normal 0 0 -1
    outer loop
      vertex -223.616 -2.94069 0
      vertex -227.314 -6.99013 0
      vertex -223.996 -3.09093 0
    endloop
  endfacet
  facet normal 0 0 -1
    outer loop
      vertex -223.996 -3.09093 0
      vertex -227.314 -6.99013 0
      vertex -224.391 -3.19243 0
    endloop
  endfacet
  facet normal 0 0 -1
    outer loop
      vertex -224.391 -3.19243 0
      vertex -227.314 -6.99013 0
      vertex -224.796 -3.24359 0
    endloop
  endfacet
  facet normal -0 0 -1
    outer loop
      vertex -224.796 -3.24359 0
      vertex -227.314 -6.99013 0
      vertex -225.204 -3.24359 0
    endloop
  endfacet
  facet normal 0 0 -1
    outer loop
      vertex -227.314 -6.99013 0
      vertex -225.609 -3.19243 0
      vertex -225.204 -3.24359 0
    endloop
  endfacet
  facet normal 0 0 -1
    outer loop
      vertex -227.314 -6.99013 0
      vertex -226.004 -3.09093 0
      vertex -225.609 -3.19243 0
    endloop
  endfacet
  facet normal 0 0 -1
    outer loop
      vertex -227.314 -6.99013 0
      vertex -226.384 -2.94069 0
      vertex -226.004 -3.09093 0
    endloop
  endfacet
  facet normal 0 0 -1
    outer loop
      vertex -227.937 -6.91144 0
      vertex -226.384 -2.94069 0
      vertex -227.314 -6.99013 0
    endloop
  endfacet
  facet normal -0 0 -1
    outer loop
      vertex -226.384 -2.94069 0
      vertex -227.937 -6.91144 0
      vertex -226.741 -2.74407 0
    endloop
  endfacet
  facet normal 0 0 -1
    outer loop
      vertex -228.545 -6.75528 0
      vertex -226.741 -2.74407 0
      vertex -227.937 -6.91144 0
    endloop
  endfacet
  facet normal 0 0 -1
    outer loop
      vertex -229.129 -6.52413 0
      vertex -226.741 -2.74407 0
      vertex -228.545 -6.75528 0
    endloop
  endfacet
  facet normal -0 0 -1
    outer loop
      vertex -226.741 -2.74407 0
      vertex -229.129 -6.52413 0
      vertex -227.072 -2.50417 0
    endloop
  endfacet
  facet normal 0 0 -1
    outer loop
      vertex -229.679 -6.22164 0
      vertex -227.072 -2.50417 0
      vertex -229.129 -6.52413 0
    endloop
  endfacet
  facet normal 0 0 -1
    outer loop
      vertex -230.187 -5.85257 0
      vertex -227.072 -2.50417 0
      vertex -229.679 -6.22164 0
    endloop
  endfacet
  facet normal -0 0 -1
    outer loop
      vertex -227.072 -2.50417 0
      vertex -230.187 -5.85257 0
      vertex -227.369 -2.22478 0
    endloop
  endfacet
  facet normal 0 0 -1
    outer loop
      vertex -230.645 -5.42274 0
      vertex -227.369 -2.22478 0
      vertex -230.187 -5.85257 0
    endloop
  endfacet
  facet normal 0 0 -1
    outer loop
      vertex -231.045 -4.93893 0
      vertex -227.369 -2.22478 0
      vertex -230.645 -5.42274 0
    endloop
  endfacet
  facet normal -0 0 -1
    outer loop
      vertex -227.369 -2.22478 0
      vertex -231.045 -4.93893 0
      vertex -227.629 -1.9103 0
    endloop
  endfacet
  facet normal 0 0 -1
    outer loop
      vertex -221.776 0.407332 0
      vertex 227.314 6.99013 0
      vertex -221.75 0 0
    endloop
  endfacet
  facet normal 0 0 -1
    outer loop
      vertex -221.852 0.808242 0
      vertex 227.314 6.99013 0
      vertex -221.776 0.407332 0
    endloop
  endfacet
  facet normal 0 0 -1
    outer loop
      vertex -221.978 1.1964 0
      vertex 227.314 6.99013 0
      vertex -221.852 0.808242 0
    endloop
  endfacet
  facet normal 0 0 -1
    outer loop
      vertex -222.152 1.5657 0
      vertex 227.314 6.99013 0
      vertex -221.978 1.1964 0
    endloop
  endfacet
  facet normal 0 0 -1
    outer loop
      vertex -222.371 1.9103 0
      vertex 227.314 6.99013 0
      vertex -222.152 1.5657 0
    endloop
  endfacet
  facet normal 0 0 -1
    outer loop
      vertex -222.631 2.22478 0
      vertex 227.314 6.99013 0
      vertex -222.371 1.9103 0
    endloop
  endfacet
  facet normal 0 0 -1
    outer loop
      vertex -227.314 6.99013 0
      vertex -222.631 2.22478 0
      vertex -222.928 2.50417 0
    endloop
  endfacet
  facet normal 0 0 -1
    outer loop
      vertex -227.314 6.99013 0
      vertex -222.928 2.50417 0
      vertex -223.259 2.74407 0
    endloop
  endfacet
  facet normal 0 0 -1
    outer loop
      vertex -227.314 6.99013 0
      vertex -223.259 2.74407 0
      vertex -223.616 2.94069 0
    endloop
  endfacet
  facet normal 0 0 -1
    outer loop
      vertex -227.314 6.99013 0
      vertex -223.616 2.94069 0
      vertex -223.996 3.09093 0
    endloop
  endfacet
  facet normal 0 0 -1
    outer loop
      vertex -227.314 6.99013 0
      vertex -223.996 3.09093 0
      vertex -224.391 3.19243 0
    endloop
  endfacet
  facet normal 0 0 -1
    outer loop
      vertex -227.314 6.99013 0
      vertex -224.391 3.19243 0
      vertex -224.796 3.24359 0
    endloop
  endfacet
  facet normal 0 0 -1
    outer loop
      vertex -227.314 6.99013 0
      vertex -224.796 3.24359 0
      vertex -225.204 3.24359 0
    endloop
  endfacet
  facet normal 0 0 -1
    outer loop
      vertex -222.631 2.22478 0
      vertex -227.314 6.99013 0
      vertex 227.314 6.99013 0
    endloop
  endfacet
  facet normal 0 0 -1
    outer loop
      vertex -225.609 3.19243 0
      vertex -227.314 6.99013 0
      vertex -225.204 3.24359 0
    endloop
  endfacet
  facet normal 0 0 -1
    outer loop
      vertex -226.004 3.09093 0
      vertex -227.314 6.99013 0
      vertex -225.609 3.19243 0
    endloop
  endfacet
  facet normal 0 0 -1
    outer loop
      vertex -226.384 2.94069 0
      vertex -227.314 6.99013 0
      vertex -226.004 3.09093 0
    endloop
  endfacet
  facet normal 0 0 -1
    outer loop
      vertex -227.937 6.91144 0
      vertex -226.384 2.94069 0
      vertex -226.741 2.74407 0
    endloop
  endfacet
  facet normal 0 0 -1
    outer loop
      vertex -229.129 6.52413 0
      vertex -226.741 2.74407 0
      vertex -227.072 2.50417 0
    endloop
  endfacet
  facet normal 0 0 -1
    outer loop
      vertex -230.187 5.85257 0
      vertex -227.072 2.50417 0
      vertex -227.369 2.22478 0
    endloop
  endfacet
  facet normal 0 0 -1
    outer loop
      vertex -231.045 4.93893 0
      vertex -227.369 2.22478 0
      vertex -227.629 1.9103 0
    endloop
  endfacet
  facet normal 0 0 -1
    outer loop
      vertex -231.649 3.84062 0
      vertex -227.629 1.9103 0
      vertex -227.848 1.5657 0
    endloop
  endfacet
  facet normal 0 0 -1
    outer loop
      vertex -226.384 2.94069 0
      vertex -227.937 6.91144 0
      vertex -227.314 6.99013 0
    endloop
  endfacet
  facet normal 0 0 -1
    outer loop
      vertex -231.961 2.62667 0
      vertex -227.848 1.5657 0
      vertex -228.022 1.1964 0
    endloop
  endfacet
  facet normal 0 0 -1
    outer loop
      vertex -232 2 0
      vertex -228.022 1.1964 0
      vertex -228.148 0.808242 0
    endloop
  endfacet
  facet normal 0 0 -1
    outer loop
      vertex -232 2 0
      vertex -228.148 0.808242 0
      vertex -228.224 0.407332 0
    endloop
  endfacet
  facet normal 0 0 -1
    outer loop
      vertex -232 2 0
      vertex -228.224 0.407332 0
      vertex -228.25 0 0
    endloop
  endfacet
  facet normal 0 0 -1
    outer loop
      vertex -226.741 2.74407 0
      vertex -228.545 6.75528 0
      vertex -227.937 6.91144 0
    endloop
  endfacet
  facet normal 0 0 -1
    outer loop
      vertex -231.382 -4.40877 0
      vertex -227.629 -1.9103 0
      vertex -231.045 -4.93893 0
    endloop
  endfacet
  facet normal 0 0 -1
    outer loop
      vertex -231.649 -3.84062 0
      vertex -227.629 -1.9103 0
      vertex -231.382 -4.40877 0
    endloop
  endfacet
  facet normal 0 0 -1
    outer loop
      vertex -232 2 0
      vertex -228.25 0 0
      vertex -232 -2 0
    endloop
  endfacet
  facet normal -0 0 -1
    outer loop
      vertex -227.629 -1.9103 0
      vertex -231.649 -3.84062 0
      vertex -227.848 -1.5657 0
    endloop
  endfacet
  facet normal 0 0 -1
    outer loop
      vertex -228.022 1.1964 0
      vertex -232 2 0
      vertex -231.961 2.62667 0
    endloop
  endfacet
  facet normal 0 0 -1
    outer loop
      vertex -231.843 -3.24345 0
      vertex -227.848 -1.5657 0
      vertex -231.649 -3.84062 0
    endloop
  endfacet
  facet normal 0 0 -1
    outer loop
      vertex -226.741 2.74407 0
      vertex -229.129 6.52413 0
      vertex -228.545 6.75528 0
    endloop
  endfacet
  facet normal 0 0 -1
    outer loop
      vertex -231.961 -2.62667 0
      vertex -227.848 -1.5657 0
      vertex -231.843 -3.24345 0
    endloop
  endfacet
  facet normal 0 0 -1
    outer loop
      vertex -227.072 2.50417 0
      vertex -229.679 6.22164 0
      vertex -229.129 6.52413 0
    endloop
  endfacet
  facet normal -0 0 -1
    outer loop
      vertex -227.848 -1.5657 0
      vertex -231.961 -2.62667 0
      vertex -228.022 -1.1964 0
    endloop
  endfacet
  facet normal 0 0 -1
    outer loop
      vertex -227.072 2.50417 0
      vertex -230.187 5.85257 0
      vertex -229.679 6.22164 0
    endloop
  endfacet
  facet normal 0 0 -1
    outer loop
      vertex -232 -2 0
      vertex -228.022 -1.1964 0
      vertex -231.961 -2.62667 0
    endloop
  endfacet
  facet normal 0 0 -1
    outer loop
      vertex -227.369 2.22478 0
      vertex -230.645 5.42274 0
      vertex -230.187 5.85257 0
    endloop
  endfacet
  facet normal -0 0 -1
    outer loop
      vertex -228.022 -1.1964 0
      vertex -232 -2 0
      vertex -228.148 -0.808242 0
    endloop
  endfacet
  facet normal 0 0 -1
    outer loop
      vertex -227.369 2.22478 0
      vertex -231.045 4.93893 0
      vertex -230.645 5.42274 0
    endloop
  endfacet
  facet normal -0 0 -1
    outer loop
      vertex -228.148 -0.808242 0
      vertex -232 -2 0
      vertex -228.224 -0.407332 0
    endloop
  endfacet
  facet normal 0 0 -1
    outer loop
      vertex -227.629 1.9103 0
      vertex -231.382 4.40877 0
      vertex -231.045 4.93893 0
    endloop
  endfacet
  facet normal -0 0 -1
    outer loop
      vertex -228.224 -0.407332 0
      vertex -232 -2 0
      vertex -228.25 0 0
    endloop
  endfacet
  facet normal 0 0 -1
    outer loop
      vertex -227.629 1.9103 0
      vertex -231.649 3.84062 0
      vertex -231.382 4.40877 0
    endloop
  endfacet
  facet normal 0 0 -1
    outer loop
      vertex -227.848 1.5657 0
      vertex -231.843 3.24345 0
      vertex -231.649 3.84062 0
    endloop
  endfacet
  facet normal 0 0 -1
    outer loop
      vertex -227.848 1.5657 0
      vertex -231.961 2.62667 0
      vertex -231.843 3.24345 0
    endloop
  endfacet
  facet normal -0.248877 0.968535 0
    outer loop
      vertex -223.996 -3.09093 0
      vertex -224.391 -3.19243 6
      vertex -223.996 -3.09093 6
    endloop
  endfacet
  facet normal -0.248877 0.968535 0
    outer loop
      vertex -224.391 -3.19243 6
      vertex -223.996 -3.09093 0
      vertex -224.391 -3.19243 0
    endloop
  endfacet
  facet normal -0.482427 0.875936 0
    outer loop
      vertex -223.259 -2.74407 0
      vertex -223.616 -2.94069 6
      vertex -223.259 -2.74407 6
    endloop
  endfacet
  facet normal -0.482427 0.875936 0
    outer loop
      vertex -223.616 -2.94069 6
      vertex -223.259 -2.74407 0
      vertex -223.616 -2.94069 0
    endloop
  endfacet
  facet normal -0.367675 0.929954 0
    outer loop
      vertex -223.616 -2.94069 0
      vertex -223.996 -3.09093 6
      vertex -223.616 -2.94069 6
    endloop
  endfacet
  facet normal -0.367675 0.929954 0
    outer loop
      vertex -223.996 -3.09093 6
      vertex -223.616 -2.94069 0
      vertex -223.996 -3.09093 0
    endloop
  endfacet
  facet normal -0.685183 0.728371 0
    outer loop
      vertex -222.631 -2.22478 0
      vertex -222.928 -2.50417 6
      vertex -222.631 -2.22478 6
    endloop
  endfacet
  facet normal -0.685183 0.728371 0
    outer loop
      vertex -222.928 -2.50417 6
      vertex -222.631 -2.22478 0
      vertex -222.928 -2.50417 0
    endloop
  endfacet
  facet normal -0.904619 0.426222 0
    outer loop
      vertex -222.152 -1.5657 0
      vertex -221.978 -1.1964 6
      vertex -221.978 -1.1964 0
    endloop
  endfacet
  facet normal -0.904619 0.426222 0
    outer loop
      vertex -221.978 -1.1964 6
      vertex -222.152 -1.5657 0
      vertex -222.152 -1.5657 6
    endloop
  endfacet
  facet normal 0.586847 0.809698 -0
    outer loop
      vertex -226.741 -2.74407 0
      vertex -227.072 -2.50417 6
      vertex -226.741 -2.74407 6
    endloop
  endfacet
  facet normal 0.586847 0.809698 0
    outer loop
      vertex -227.072 -2.50417 6
      vertex -226.741 -2.74407 0
      vertex -227.072 -2.50417 0
    endloop
  endfacet
  facet normal 0.248877 0.968535 -0
    outer loop
      vertex -225.609 -3.19243 0
      vertex -226.004 -3.09093 6
      vertex -225.609 -3.19243 6
    endloop
  endfacet
  facet normal 0.248877 0.968535 0
    outer loop
      vertex -226.004 -3.09093 6
      vertex -225.609 -3.19243 0
      vertex -226.004 -3.09093 0
    endloop
  endfacet
  facet normal 0.125325 0.992116 -0
    outer loop
      vertex -225.204 -3.24359 0
      vertex -225.609 -3.19243 6
      vertex -225.204 -3.24359 6
    endloop
  endfacet
  facet normal 0.125325 0.992116 0
    outer loop
      vertex -225.609 -3.19243 6
      vertex -225.204 -3.24359 0
      vertex -225.609 -3.19243 0
    endloop
  endfacet
  facet normal 0.770706 0.63719 0
    outer loop
      vertex -227.369 -2.22478 6
      vertex -227.629 -1.9103 0
      vertex -227.629 -1.9103 6
    endloop
  endfacet
  facet normal 0.770706 0.63719 0
    outer loop
      vertex -227.629 -1.9103 0
      vertex -227.369 -2.22478 6
      vertex -227.369 -2.22478 0
    endloop
  endfacet
  facet normal 0.685183 0.728371 -0
    outer loop
      vertex -227.072 -2.50417 0
      vertex -227.369 -2.22478 6
      vertex -227.072 -2.50417 6
    endloop
  endfacet
  facet normal 0.685183 0.728371 0
    outer loop
      vertex -227.369 -2.22478 6
      vertex -227.072 -2.50417 0
      vertex -227.369 -2.22478 0
    endloop
  endfacet
  facet normal 0.982502 0.186252 0
    outer loop
      vertex -228.148 -0.808242 6
      vertex -228.224 -0.407332 0
      vertex -228.224 -0.407332 6
    endloop
  endfacet
  facet normal 0.982502 0.186252 0
    outer loop
      vertex -228.224 -0.407332 0
      vertex -228.148 -0.808242 6
      vertex -228.148 -0.808242 0
    endloop
  endfacet
  facet normal 0.997969 0.0637004 0
    outer loop
      vertex -228.224 -0.407332 6
      vertex -228.25 0 0
      vertex -228.25 0 6
    endloop
  endfacet
  facet normal 0.997969 0.0637004 0
    outer loop
      vertex -228.25 0 0
      vertex -228.224 -0.407332 6
      vertex -228.224 -0.407332 0
    endloop
  endfacet
  facet normal -0.770706 0.63719 0
    outer loop
      vertex -222.631 -2.22478 0
      vertex -222.371 -1.9103 6
      vertex -222.371 -1.9103 0
    endloop
  endfacet
  facet normal -0.770706 0.63719 0
    outer loop
      vertex -222.371 -1.9103 6
      vertex -222.631 -2.22478 0
      vertex -222.631 -2.22478 6
    endloop
  endfacet
  facet normal 0.482427 0.875936 -0
    outer loop
      vertex -226.384 -2.94069 0
      vertex -226.741 -2.74407 6
      vertex -226.384 -2.94069 6
    endloop
  endfacet
  facet normal 0.482427 0.875936 0
    outer loop
      vertex -226.741 -2.74407 6
      vertex -226.384 -2.94069 0
      vertex -226.741 -2.74407 0
    endloop
  endfacet
  facet normal 0.843984 0.536368 0
    outer loop
      vertex -227.629 -1.9103 6
      vertex -227.848 -1.5657 0
      vertex -227.848 -1.5657 6
    endloop
  endfacet
  facet normal 0.843984 0.536368 0
    outer loop
      vertex -227.848 -1.5657 0
      vertex -227.629 -1.9103 6
      vertex -227.629 -1.9103 0
    endloop
  endfacet
  facet normal 0.367675 0.929954 -0
    outer loop
      vertex -226.004 -3.09093 0
      vertex -226.384 -2.94069 6
      vertex -226.004 -3.09093 6
    endloop
  endfacet
  facet normal 0.367675 0.929954 0
    outer loop
      vertex -226.384 -2.94069 6
      vertex -226.004 -3.09093 0
      vertex -226.384 -2.94069 0
    endloop
  endfacet
  facet normal -1 0 0
    outer loop
      vertex -232 -2 0
      vertex -232 2 6
      vertex -232 2 0
    endloop
  endfacet
  facet normal -1 -0 0
    outer loop
      vertex -232 2 6
      vertex -232 -2 0
      vertex -232 -2 6
    endloop
  endfacet
  facet normal -0.998069 -0.0621135 0
    outer loop
      vertex -231.961 -2.62667 0
      vertex -232 -2 6
      vertex -232 -2 0
    endloop
  endfacet
  facet normal -0.998069 -0.0621135 0
    outer loop
      vertex -232 -2 6
      vertex -231.961 -2.62667 0
      vertex -231.961 -2.62667 6
    endloop
  endfacet
  facet normal 0 1 -0
    outer loop
      vertex 227.314 6.99013 0
      vertex -227.314 6.99013 6
      vertex 227.314 6.99013 6
    endloop
  endfacet
  facet normal 0 1 0
    outer loop
      vertex -227.314 6.99013 6
      vertex 227.314 6.99013 0
      vertex -227.314 6.99013 0
    endloop
  endfacet
  facet normal 0 -1 0
    outer loop
      vertex -227.314 -6.99013 0
      vertex 227.314 -6.99013 6
      vertex -227.314 -6.99013 6
    endloop
  endfacet
  facet normal 0 -1 -0
    outer loop
      vertex 227.314 -6.99013 6
      vertex -227.314 -6.99013 0
      vertex 227.314 -6.99013 0
    endloop
  endfacet
  facet normal -0.998069 0.0621135 0
    outer loop
      vertex -232 2 0
      vertex -231.961 2.62667 6
      vertex -231.961 2.62667 0
    endloop
  endfacet
  facet normal -0.998069 0.0621135 0
    outer loop
      vertex -231.961 2.62667 6
      vertex -232 2 0
      vertex -232 2 6
    endloop
  endfacet
  facet normal 0.905042 -0.425321 0
    outer loop
      vertex 231.382 -4.40877 6
      vertex 231.649 -3.84062 0
      vertex 231.649 -3.84062 6
    endloop
  endfacet
  facet normal 0.905042 -0.425321 0
    outer loop
      vertex 231.649 -3.84062 0
      vertex 231.382 -4.40877 6
      vertex 231.382 -4.40877 0
    endloop
  endfacet
  facet normal 0.770703 0.637195 0
    outer loop
      vertex 231.045 4.93893 6
      vertex 230.645 5.42274 0
      vertex 230.645 5.42274 6
    endloop
  endfacet
  facet normal 0.770703 0.637195 0
    outer loop
      vertex 230.645 5.42274 0
      vertex 231.045 4.93893 6
      vertex 231.045 4.93893 0
    endloop
  endfacet
  facet normal 0.248768 0.968563 -0
    outer loop
      vertex 228.545 6.75528 0
      vertex 227.937 6.91144 6
      vertex 228.545 6.75528 6
    endloop
  endfacet
  facet normal 0.248768 0.968563 0
    outer loop
      vertex 227.937 6.91144 6
      vertex 228.545 6.75528 0
      vertex 227.937 6.91144 0
    endloop
  endfacet
  facet normal -0.982187 0.187908 0
    outer loop
      vertex -231.961 2.62667 0
      vertex -231.843 3.24345 6
      vertex -231.843 3.24345 0
    endloop
  endfacet
  facet normal -0.982187 0.187908 0
    outer loop
      vertex -231.843 3.24345 6
      vertex -231.961 2.62667 0
      vertex -231.961 2.62667 6
    endloop
  endfacet
  facet normal -0.368026 -0.929816 0
    outer loop
      vertex -229.129 -6.52413 0
      vertex -228.545 -6.75528 6
      vertex -229.129 -6.52413 6
    endloop
  endfacet
  facet normal -0.368026 -0.929816 -0
    outer loop
      vertex -228.545 -6.75528 6
      vertex -229.129 -6.52413 0
      vertex -228.545 -6.75528 0
    endloop
  endfacet
  facet normal -0.125313 -0.992117 0
    outer loop
      vertex -227.937 -6.91144 0
      vertex -227.314 -6.99013 6
      vertex -227.937 -6.91144 6
    endloop
  endfacet
  facet normal -0.125313 -0.992117 -0
    outer loop
      vertex -227.314 -6.99013 6
      vertex -227.937 -6.91144 0
      vertex -227.314 -6.99013 0
    endloop
  endfacet
  facet normal -0.481907 -0.876223 0
    outer loop
      vertex -229.679 -6.22164 0
      vertex -229.129 -6.52413 6
      vertex -229.679 -6.22164 6
    endloop
  endfacet
  facet normal -0.481907 -0.876223 -0
    outer loop
      vertex -229.129 -6.52413 6
      vertex -229.679 -6.22164 0
      vertex -229.129 -6.52413 0
    endloop
  endfacet
  facet normal -0.684327 -0.729176 0
    outer loop
      vertex -230.645 -5.42274 0
      vertex -230.187 -5.85257 6
      vertex -230.645 -5.42274 6
    endloop
  endfacet
  facet normal -0.684327 -0.729176 -0
    outer loop
      vertex -230.187 -5.85257 6
      vertex -230.645 -5.42274 0
      vertex -230.187 -5.85257 0
    endloop
  endfacet
  facet normal 1 -0 0
    outer loop
      vertex 232 -2 6
      vertex 232 2 0
      vertex 232 2 6
    endloop
  endfacet
  facet normal 1 0 0
    outer loop
      vertex 232 2 0
      vertex 232 -2 6
      vertex 232 -2 0
    endloop
  endfacet
  facet normal 0.982187 -0.187908 0
    outer loop
      vertex 231.843 -3.24345 6
      vertex 231.961 -2.62667 0
      vertex 231.961 -2.62667 6
    endloop
  endfacet
  facet normal 0.982187 -0.187908 0
    outer loop
      vertex 231.961 -2.62667 0
      vertex 231.843 -3.24345 6
      vertex 231.843 -3.24345 0
    endloop
  endfacet
  facet normal 0.684327 -0.729176 0
    outer loop
      vertex 230.187 -5.85257 0
      vertex 230.645 -5.42274 6
      vertex 230.187 -5.85257 6
    endloop
  endfacet
  facet normal 0.684327 -0.729176 0
    outer loop
      vertex 230.645 -5.42274 6
      vertex 230.187 -5.85257 0
      vertex 230.645 -5.42274 0
    endloop
  endfacet
  facet normal 0.843931 -0.536451 0
    outer loop
      vertex 231.045 -4.93893 6
      vertex 231.382 -4.40877 0
      vertex 231.382 -4.40877 6
    endloop
  endfacet
  facet normal 0.843931 -0.536451 0
    outer loop
      vertex 231.382 -4.40877 0
      vertex 231.045 -4.93893 6
      vertex 231.045 -4.93893 0
    endloop
  endfacet
  facet normal 0.481907 -0.876223 0
    outer loop
      vertex 229.129 -6.52413 0
      vertex 229.679 -6.22164 6
      vertex 229.129 -6.52413 6
    endloop
  endfacet
  facet normal 0.481907 -0.876223 0
    outer loop
      vertex 229.679 -6.22164 6
      vertex 229.129 -6.52413 0
      vertex 229.679 -6.22164 0
    endloop
  endfacet
  facet normal 0.843931 0.536451 0
    outer loop
      vertex 231.382 4.40877 6
      vertex 231.045 4.93893 0
      vertex 231.045 4.93893 6
    endloop
  endfacet
  facet normal 0.843931 0.536451 0
    outer loop
      vertex 231.045 4.93893 0
      vertex 231.382 4.40877 6
      vertex 231.382 4.40877 0
    endloop
  endfacet
  facet normal 0.951072 0.30897 0
    outer loop
      vertex 231.843 3.24345 6
      vertex 231.649 3.84062 0
      vertex 231.649 3.84062 6
    endloop
  endfacet
  facet normal 0.951072 0.30897 0
    outer loop
      vertex 231.649 3.84062 0
      vertex 231.843 3.24345 6
      vertex 231.843 3.24345 0
    endloop
  endfacet
  facet normal 0.684327 0.729176 -0
    outer loop
      vertex 230.645 5.42274 0
      vertex 230.187 5.85257 6
      vertex 230.645 5.42274 6
    endloop
  endfacet
  facet normal 0.684327 0.729176 0
    outer loop
      vertex 230.187 5.85257 6
      vertex 230.645 5.42274 0
      vertex 230.187 5.85257 0
    endloop
  endfacet
  facet normal 0.368026 0.929816 -0
    outer loop
      vertex 229.129 6.52413 0
      vertex 228.545 6.75528 6
      vertex 229.129 6.52413 6
    endloop
  endfacet
  facet normal 0.368026 0.929816 0
    outer loop
      vertex 228.545 6.75528 6
      vertex 229.129 6.52413 0
      vertex 228.545 6.75528 0
    endloop
  endfacet
  facet normal 0.125313 0.992117 -0
    outer loop
      vertex 227.937 6.91144 0
      vertex 227.314 6.99013 6
      vertex 227.937 6.91144 6
    endloop
  endfacet
  facet normal 0.125313 0.992117 0
    outer loop
      vertex 227.314 6.99013 6
      vertex 227.937 6.91144 0
      vertex 227.314 6.99013 0
    endloop
  endfacet
  facet normal -0.125313 0.992117 0
    outer loop
      vertex -227.314 6.99013 0
      vertex -227.937 6.91144 6
      vertex -227.314 6.99013 6
    endloop
  endfacet
  facet normal -0.125313 0.992117 0
    outer loop
      vertex -227.937 6.91144 6
      vertex -227.314 6.99013 0
      vertex -227.937 6.91144 0
    endloop
  endfacet
  facet normal -0.951072 -0.30897 0
    outer loop
      vertex -231.649 -3.84062 0
      vertex -231.843 -3.24345 6
      vertex -231.843 -3.24345 0
    endloop
  endfacet
  facet normal -0.951072 -0.30897 0
    outer loop
      vertex -231.843 -3.24345 6
      vertex -231.649 -3.84062 0
      vertex -231.649 -3.84062 6
    endloop
  endfacet
  facet normal -0.982187 -0.187908 0
    outer loop
      vertex -231.843 -3.24345 0
      vertex -231.961 -2.62667 6
      vertex -231.961 -2.62667 0
    endloop
  endfacet
  facet normal -0.982187 -0.187908 0
    outer loop
      vertex -231.961 -2.62667 6
      vertex -231.843 -3.24345 0
      vertex -231.843 -3.24345 6
    endloop
  endfacet
  facet normal -0.905042 -0.425321 0
    outer loop
      vertex -231.382 -4.40877 0
      vertex -231.649 -3.84062 6
      vertex -231.649 -3.84062 0
    endloop
  endfacet
  facet normal -0.905042 -0.425321 0
    outer loop
      vertex -231.649 -3.84062 6
      vertex -231.382 -4.40877 0
      vertex -231.382 -4.40877 6
    endloop
  endfacet
  facet normal -0.770703 -0.637195 0
    outer loop
      vertex -230.645 -5.42274 0
      vertex -231.045 -4.93893 6
      vertex -231.045 -4.93893 0
    endloop
  endfacet
  facet normal -0.770703 -0.637195 0
    outer loop
      vertex -231.045 -4.93893 6
      vertex -230.645 -5.42274 0
      vertex -230.645 -5.42274 6
    endloop
  endfacet
  facet normal -0.248768 -0.968563 0
    outer loop
      vertex -228.545 -6.75528 0
      vertex -227.937 -6.91144 6
      vertex -228.545 -6.75528 6
    endloop
  endfacet
  facet normal -0.248768 -0.968563 -0
    outer loop
      vertex -227.937 -6.91144 6
      vertex -228.545 -6.75528 0
      vertex -227.937 -6.91144 0
    endloop
  endfacet
  facet normal -0.587771 -0.809027 0
    outer loop
      vertex -230.187 -5.85257 0
      vertex -229.679 -6.22164 6
      vertex -230.187 -5.85257 6
    endloop
  endfacet
  facet normal -0.587771 -0.809027 -0
    outer loop
      vertex -229.679 -6.22164 6
      vertex -230.187 -5.85257 0
      vertex -229.679 -6.22164 0
    endloop
  endfacet
  facet normal 0.982187 0.187908 0
    outer loop
      vertex 231.961 2.62667 6
      vertex 231.843 3.24345 0
      vertex 231.843 3.24345 6
    endloop
  endfacet
  facet normal 0.982187 0.187908 0
    outer loop
      vertex 231.843 3.24345 0
      vertex 231.961 2.62667 6
      vertex 231.961 2.62667 0
    endloop
  endfacet
  facet normal 0.951072 -0.30897 0
    outer loop
      vertex 231.649 -3.84062 6
      vertex 231.843 -3.24345 0
      vertex 231.843 -3.24345 6
    endloop
  endfacet
  facet normal 0.951072 -0.30897 0
    outer loop
      vertex 231.843 -3.24345 0
      vertex 231.649 -3.84062 6
      vertex 231.649 -3.84062 0
    endloop
  endfacet
  facet normal 0.998069 -0.0621135 0
    outer loop
      vertex 231.961 -2.62667 6
      vertex 232 -2 0
      vertex 232 -2 6
    endloop
  endfacet
  facet normal 0.998069 -0.0621135 0
    outer loop
      vertex 232 -2 0
      vertex 231.961 -2.62667 6
      vertex 231.961 -2.62667 0
    endloop
  endfacet
  facet normal 0.587771 -0.809027 0
    outer loop
      vertex 229.679 -6.22164 0
      vertex 230.187 -5.85257 6
      vertex 229.679 -6.22164 6
    endloop
  endfacet
  facet normal 0.587771 -0.809027 0
    outer loop
      vertex 230.187 -5.85257 6
      vertex 229.679 -6.22164 0
      vertex 230.187 -5.85257 0
    endloop
  endfacet
  facet normal 0.770703 -0.637195 0
    outer loop
      vertex 230.645 -5.42274 6
      vertex 231.045 -4.93893 0
      vertex 231.045 -4.93893 6
    endloop
  endfacet
  facet normal 0.770703 -0.637195 0
    outer loop
      vertex 231.045 -4.93893 0
      vertex 230.645 -5.42274 6
      vertex 230.645 -5.42274 0
    endloop
  endfacet
  facet normal 0.125313 -0.992117 0
    outer loop
      vertex 227.314 -6.99013 0
      vertex 227.937 -6.91144 6
      vertex 227.314 -6.99013 6
    endloop
  endfacet
  facet normal 0.125313 -0.992117 0
    outer loop
      vertex 227.937 -6.91144 6
      vertex 227.314 -6.99013 0
      vertex 227.937 -6.91144 0
    endloop
  endfacet
  facet normal 0.368026 -0.929816 0
    outer loop
      vertex 228.545 -6.75528 0
      vertex 229.129 -6.52413 6
      vertex 228.545 -6.75528 6
    endloop
  endfacet
  facet normal 0.368026 -0.929816 0
    outer loop
      vertex 229.129 -6.52413 6
      vertex 228.545 -6.75528 0
      vertex 229.129 -6.52413 0
    endloop
  endfacet
  facet normal 0.905042 0.425321 0
    outer loop
      vertex 231.649 3.84062 6
      vertex 231.382 4.40877 0
      vertex 231.382 4.40877 6
    endloop
  endfacet
  facet normal 0.905042 0.425321 0
    outer loop
      vertex 231.382 4.40877 0
      vertex 231.649 3.84062 6
      vertex 231.649 3.84062 0
    endloop
  endfacet
  facet normal 0.481907 0.876223 -0
    outer loop
      vertex 229.679 6.22164 0
      vertex 229.129 6.52413 6
      vertex 229.679 6.22164 6
    endloop
  endfacet
  facet normal 0.481907 0.876223 0
    outer loop
      vertex 229.129 6.52413 6
      vertex 229.679 6.22164 0
      vertex 229.129 6.52413 0
    endloop
  endfacet
  facet normal -0.684327 0.729176 0
    outer loop
      vertex -230.187 5.85257 0
      vertex -230.645 5.42274 6
      vertex -230.187 5.85257 6
    endloop
  endfacet
  facet normal -0.684327 0.729176 0
    outer loop
      vertex -230.645 5.42274 6
      vertex -230.187 5.85257 0
      vertex -230.645 5.42274 0
    endloop
  endfacet
  facet normal -0.770703 0.637195 0
    outer loop
      vertex -231.045 4.93893 0
      vertex -230.645 5.42274 6
      vertex -230.645 5.42274 0
    endloop
  endfacet
  facet normal -0.770703 0.637195 0
    outer loop
      vertex -230.645 5.42274 6
      vertex -231.045 4.93893 0
      vertex -231.045 4.93893 6
    endloop
  endfacet
  facet normal -0.368026 0.929816 0
    outer loop
      vertex -228.545 6.75528 0
      vertex -229.129 6.52413 6
      vertex -228.545 6.75528 6
    endloop
  endfacet
  facet normal -0.368026 0.929816 0
    outer loop
      vertex -229.129 6.52413 6
      vertex -228.545 6.75528 0
      vertex -229.129 6.52413 0
    endloop
  endfacet
  facet normal -0.843931 -0.536451 0
    outer loop
      vertex -231.045 -4.93893 0
      vertex -231.382 -4.40877 6
      vertex -231.382 -4.40877 0
    endloop
  endfacet
  facet normal -0.843931 -0.536451 0
    outer loop
      vertex -231.382 -4.40877 6
      vertex -231.045 -4.93893 0
      vertex -231.045 -4.93893 6
    endloop
  endfacet
  facet normal 0.998069 0.0621135 0
    outer loop
      vertex 232 2 6
      vertex 231.961 2.62667 0
      vertex 231.961 2.62667 6
    endloop
  endfacet
  facet normal 0.998069 0.0621135 0
    outer loop
      vertex 231.961 2.62667 0
      vertex 232 2 6
      vertex 232 2 0
    endloop
  endfacet
  facet normal 0.248768 -0.968563 0
    outer loop
      vertex 227.937 -6.91144 0
      vertex 228.545 -6.75528 6
      vertex 227.937 -6.91144 6
    endloop
  endfacet
  facet normal 0.248768 -0.968563 0
    outer loop
      vertex 228.545 -6.75528 6
      vertex 227.937 -6.91144 0
      vertex 228.545 -6.75528 0
    endloop
  endfacet
  facet normal 0.587771 0.809027 -0
    outer loop
      vertex 230.187 5.85257 0
      vertex 229.679 6.22164 6
      vertex 230.187 5.85257 6
    endloop
  endfacet
  facet normal 0.587771 0.809027 0
    outer loop
      vertex 229.679 6.22164 6
      vertex 230.187 5.85257 0
      vertex 229.679 6.22164 0
    endloop
  endfacet
  facet normal -0.248768 0.968563 0
    outer loop
      vertex -227.937 6.91144 0
      vertex -228.545 6.75528 6
      vertex -227.937 6.91144 6
    endloop
  endfacet
  facet normal -0.248768 0.968563 0
    outer loop
      vertex -228.545 6.75528 6
      vertex -227.937 6.91144 0
      vertex -228.545 6.75528 0
    endloop
  endfacet
  facet normal -0.951072 0.30897 0
    outer loop
      vertex -231.843 3.24345 0
      vertex -231.649 3.84062 6
      vertex -231.649 3.84062 0
    endloop
  endfacet
  facet normal -0.951072 0.30897 0
    outer loop
      vertex -231.649 3.84062 6
      vertex -231.843 3.24345 0
      vertex -231.843 3.24345 6
    endloop
  endfacet
  facet normal -0.905042 0.425321 0
    outer loop
      vertex -231.649 3.84062 0
      vertex -231.382 4.40877 6
      vertex -231.382 4.40877 0
    endloop
  endfacet
  facet normal -0.905042 0.425321 0
    outer loop
      vertex -231.382 4.40877 6
      vertex -231.649 3.84062 0
      vertex -231.649 3.84062 6
    endloop
  endfacet
  facet normal -0.587771 0.809027 0
    outer loop
      vertex -229.679 6.22164 0
      vertex -230.187 5.85257 6
      vertex -229.679 6.22164 6
    endloop
  endfacet
  facet normal -0.587771 0.809027 0
    outer loop
      vertex -230.187 5.85257 6
      vertex -229.679 6.22164 0
      vertex -230.187 5.85257 0
    endloop
  endfacet
  facet normal -0.481907 0.876223 0
    outer loop
      vertex -229.129 6.52413 0
      vertex -229.679 6.22164 6
      vertex -229.129 6.52413 6
    endloop
  endfacet
  facet normal -0.481907 0.876223 0
    outer loop
      vertex -229.679 6.22164 6
      vertex -229.129 6.52413 0
      vertex -229.679 6.22164 0
    endloop
  endfacet
  facet normal -0.843931 0.536451 0
    outer loop
      vertex -231.382 4.40877 0
      vertex -231.045 4.93893 6
      vertex -231.045 4.93893 0
    endloop
  endfacet
  facet normal -0.843931 0.536451 0
    outer loop
      vertex -231.045 4.93893 6
      vertex -231.382 4.40877 0
      vertex -231.382 4.40877 6
    endloop
  endfacet
endsolid OpenSCAD_Model
