  0
SECTION
  2
BLOCKS
  0
ENDSEC
  0
SECTION
  2
ENTITIES
  0
LINE
  8
0
 10
70.4369
 20
-6.91142
 11
71.0451
 21
-6.75528
  0
LINE
  8
0
 10
71.0451
 20
-6.75528
 11
71.6289
 21
-6.52412
  0
LINE
  8
0
 10
71.6289
 20
-6.52412
 11
72.1791
 21
-6.22163
  0
LINE
  8
0
 10
72.1791
 20
-6.22163
 11
72.6871
 21
-5.85255
  0
LINE
  8
0
 10
72.6871
 20
-5.85255
 11
73.1448
 21
-5.42273
  0
LINE
  8
0
 10
73.1448
 20
-5.42273
 11
73.5451
 21
-4.93892
  0
LINE
  8
0
 10
73.5451
 20
-4.93892
 11
73.8815
 21
-4.40877
  0
LINE
  8
0
 10
73.8815
 20
-4.40877
 11
74.1489
 21
-3.84062
  0
LINE
  8
0
 10
74.1489
 20
-3.84062
 11
74.3429
 21
-3.24344
  0
LINE
  8
0
 10
74.3429
 20
-3.24344
 11
74.4606
 21
-2.62666
  0
LINE
  8
0
 10
74.4606
 20
-2.62666
 11
74.5
 21
-2
  0
LINE
  8
0
 10
74.5
 20
-2
 11
74.5
 21
2
  0
LINE
  8
0
 10
74.5
 20
2
 11
74.4606
 21
2.62666
  0
LINE
  8
0
 10
74.4606
 20
2.62666
 11
74.3429
 21
3.24344
  0
LINE
  8
0
 10
74.3429
 20
3.24344
 11
74.1489
 21
3.84062
  0
LINE
  8
0
 10
74.1489
 20
3.84062
 11
73.8815
 21
4.40877
  0
LINE
  8
0
 10
73.8815
 20
4.40877
 11
73.5451
 21
4.93892
  0
LINE
  8
0
 10
73.5451
 20
4.93892
 11
73.1448
 21
5.42273
  0
LINE
  8
0
 10
73.1448
 20
5.42273
 11
72.6871
 21
5.85255
  0
LINE
  8
0
 10
72.6871
 20
5.85255
 11
72.1791
 21
6.22163
  0
LINE
  8
0
 10
72.1791
 20
6.22163
 11
71.6289
 21
6.52412
  0
LINE
  8
0
 10
71.6289
 20
6.52412
 11
71.0451
 21
6.75528
  0
LINE
  8
0
 10
71.0451
 20
6.75528
 11
70.4369
 21
6.91142
  0
LINE
  8
0
 10
70.4369
 20
6.91142
 11
69.8139
 21
6.99013
  0
LINE
  8
0
 10
69.8139
 20
6.99013
 11
-69.8139
 21
6.99013
  0
LINE
  8
0
 10
-69.8139
 20
6.99013
 11
-70.4369
 21
6.91142
  0
LINE
  8
0
 10
-70.4369
 20
6.91142
 11
-71.0451
 21
6.75528
  0
LINE
  8
0
 10
-71.0451
 20
6.75528
 11
-71.6289
 21
6.52412
  0
LINE
  8
0
 10
-71.6289
 20
6.52412
 11
-72.1791
 21
6.22163
  0
LINE
  8
0
 10
-72.1791
 20
6.22163
 11
-72.6871
 21
5.85255
  0
LINE
  8
0
 10
-72.6871
 20
5.85255
 11
-73.1448
 21
5.42273
  0
LINE
  8
0
 10
-73.1448
 20
5.42273
 11
-73.5451
 21
4.93892
  0
LINE
  8
0
 10
-73.5451
 20
4.93892
 11
-73.8815
 21
4.40877
  0
LINE
  8
0
 10
-73.8815
 20
4.40877
 11
-74.1489
 21
3.84062
  0
LINE
  8
0
 10
-74.1489
 20
3.84062
 11
-74.3429
 21
3.24344
  0
LINE
  8
0
 10
-74.3429
 20
3.24344
 11
-74.4606
 21
2.62666
  0
LINE
  8
0
 10
-74.4606
 20
2.62666
 11
-74.5
 21
2
  0
LINE
  8
0
 10
-74.5
 20
2
 11
-74.5
 21
-2
  0
LINE
  8
0
 10
-74.5
 20
-2
 11
-74.4606
 21
-2.62666
  0
LINE
  8
0
 10
-74.4606
 20
-2.62666
 11
-74.3429
 21
-3.24344
  0
LINE
  8
0
 10
-74.3429
 20
-3.24344
 11
-74.1489
 21
-3.84062
  0
LINE
  8
0
 10
-74.1489
 20
-3.84062
 11
-73.8815
 21
-4.40877
  0
LINE
  8
0
 10
-73.8815
 20
-4.40877
 11
-73.5451
 21
-4.93892
  0
LINE
  8
0
 10
-73.5451
 20
-4.93892
 11
-73.1448
 21
-5.42273
  0
LINE
  8
0
 10
-73.1448
 20
-5.42273
 11
-72.6871
 21
-5.85255
  0
LINE
  8
0
 10
-72.6871
 20
-5.85255
 11
-72.1791
 21
-6.22163
  0
LINE
  8
0
 10
-72.1791
 20
-6.22163
 11
-71.6289
 21
-6.52412
  0
LINE
  8
0
 10
-71.6289
 20
-6.52412
 11
-71.0451
 21
-6.75528
  0
LINE
  8
0
 10
-71.0451
 20
-6.75528
 11
-70.4369
 21
-6.91142
  0
LINE
  8
0
 10
-70.4369
 20
-6.91142
 11
-69.8139
 21
-6.99013
  0
LINE
  8
0
 10
-69.8139
 20
-6.99013
 11
69.8139
 21
-6.99013
  0
LINE
  8
0
 10
69.8139
 20
-6.99013
 11
70.4369
 21
-6.91142
  0
LINE
  8
0
 10
67.3116
 20
-2.99408
 11
66.9379
 21
-2.94685
  0
LINE
  8
0
 10
66.9379
 20
-2.94685
 11
66.573
 21
-2.85316
  0
LINE
  8
0
 10
66.573
 20
-2.85316
 11
66.2227
 21
-2.71448
  0
LINE
  8
0
 10
66.2227
 20
-2.71448
 11
65.8925
 21
-2.53297
  0
LINE
  8
0
 10
65.8925
 20
-2.53297
 11
65.5877
 21
-2.31154
  0
LINE
  8
0
 10
65.5877
 20
-2.31154
 11
65.3131
 21
-2.05363
  0
LINE
  8
0
 10
65.3131
 20
-2.05363
 11
65.073
 21
-1.76335
  0
LINE
  8
0
 10
65.073
 20
-1.76335
 11
64.8711
 21
-1.44525
  0
LINE
  8
0
 10
64.8711
 20
-1.44525
 11
64.7107
 21
-1.10437
  0
LINE
  8
0
 10
64.7107
 20
-1.10437
 11
64.5943
 21
-0.746063
  0
LINE
  8
0
 10
64.5943
 20
-0.746063
 11
64.5237
 21
-0.375992
  0
LINE
  8
0
 10
64.5237
 20
-0.375992
 11
64.5
 21
0
  0
LINE
  8
0
 10
64.5
 20
0
 11
64.5237
 21
0.375992
  0
LINE
  8
0
 10
64.5237
 20
0.375992
 11
64.5943
 21
0.746063
  0
LINE
  8
0
 10
64.5943
 20
0.746063
 11
64.7107
 21
1.10437
  0
LINE
  8
0
 10
64.7107
 20
1.10437
 11
64.8711
 21
1.44525
  0
LINE
  8
0
 10
64.8711
 20
1.44525
 11
65.073
 21
1.76335
  0
LINE
  8
0
 10
65.073
 20
1.76335
 11
65.3131
 21
2.05363
  0
LINE
  8
0
 10
65.3131
 20
2.05363
 11
65.5877
 21
2.31154
  0
LINE
  8
0
 10
65.5877
 20
2.31154
 11
65.8925
 21
2.53297
  0
LINE
  8
0
 10
65.8925
 20
2.53297
 11
66.2227
 21
2.71448
  0
LINE
  8
0
 10
66.2227
 20
2.71448
 11
66.573
 21
2.85316
  0
LINE
  8
0
 10
66.573
 20
2.85316
 11
66.9379
 21
2.94685
  0
LINE
  8
0
 10
66.9379
 20
2.94685
 11
67.3116
 21
2.99408
  0
LINE
  8
0
 10
67.3116
 20
2.99408
 11
67.6884
 21
2.99408
  0
LINE
  8
0
 10
67.6884
 20
2.99408
 11
68.0621
 21
2.94685
  0
LINE
  8
0
 10
68.0621
 20
2.94685
 11
68.427
 21
2.85316
  0
LINE
  8
0
 10
68.427
 20
2.85316
 11
68.7773
 21
2.71448
  0
LINE
  8
0
 10
68.7773
 20
2.71448
 11
69.1075
 21
2.53297
  0
LINE
  8
0
 10
69.1075
 20
2.53297
 11
69.4123
 21
2.31154
  0
LINE
  8
0
 10
69.4123
 20
2.31154
 11
69.6869
 21
2.05363
  0
LINE
  8
0
 10
69.6869
 20
2.05363
 11
69.927
 21
1.76335
  0
LINE
  8
0
 10
69.927
 20
1.76335
 11
70.1289
 21
1.44525
  0
LINE
  8
0
 10
70.1289
 20
1.44525
 11
70.2893
 21
1.10437
  0
LINE
  8
0
 10
70.2893
 20
1.10437
 11
70.4057
 21
0.746063
  0
LINE
  8
0
 10
70.4057
 20
0.746063
 11
70.4763
 21
0.375992
  0
LINE
  8
0
 10
70.4763
 20
0.375992
 11
70.5
 21
0
  0
LINE
  8
0
 10
70.5
 20
0
 11
70.4763
 21
-0.375992
  0
LINE
  8
0
 10
70.4763
 20
-0.375992
 11
70.4057
 21
-0.746063
  0
LINE
  8
0
 10
70.4057
 20
-0.746063
 11
70.2893
 21
-1.10437
  0
LINE
  8
0
 10
70.2893
 20
-1.10437
 11
70.1289
 21
-1.44525
  0
LINE
  8
0
 10
70.1289
 20
-1.44525
 11
69.927
 21
-1.76335
  0
LINE
  8
0
 10
69.927
 20
-1.76335
 11
69.6869
 21
-2.05363
  0
LINE
  8
0
 10
69.6869
 20
-2.05363
 11
69.4123
 21
-2.31154
  0
LINE
  8
0
 10
69.4123
 20
-2.31154
 11
69.1075
 21
-2.53297
  0
LINE
  8
0
 10
69.1075
 20
-2.53297
 11
68.7773
 21
-2.71448
  0
LINE
  8
0
 10
68.7773
 20
-2.71448
 11
68.427
 21
-2.85316
  0
LINE
  8
0
 10
68.427
 20
-2.85316
 11
68.0621
 21
-2.94685
  0
LINE
  8
0
 10
68.0621
 20
-2.94685
 11
67.6884
 21
-2.99408
  0
LINE
  8
0
 10
67.6884
 20
-2.99408
 11
67.3116
 21
-2.99408
  0
LINE
  8
0
 10
-67.6884
 20
-2.99408
 11
-68.0621
 21
-2.94685
  0
LINE
  8
0
 10
-68.0621
 20
-2.94685
 11
-68.427
 21
-2.85316
  0
LINE
  8
0
 10
-68.427
 20
-2.85316
 11
-68.7773
 21
-2.71448
  0
LINE
  8
0
 10
-68.7773
 20
-2.71448
 11
-69.1075
 21
-2.53297
  0
LINE
  8
0
 10
-69.1075
 20
-2.53297
 11
-69.4123
 21
-2.31154
  0
LINE
  8
0
 10
-69.4123
 20
-2.31154
 11
-69.6869
 21
-2.05363
  0
LINE
  8
0
 10
-69.6869
 20
-2.05363
 11
-69.927
 21
-1.76335
  0
LINE
  8
0
 10
-69.927
 20
-1.76335
 11
-70.1289
 21
-1.44525
  0
LINE
  8
0
 10
-70.1289
 20
-1.44525
 11
-70.2893
 21
-1.10437
  0
LINE
  8
0
 10
-70.2893
 20
-1.10437
 11
-70.4057
 21
-0.746063
  0
LINE
  8
0
 10
-70.4057
 20
-0.746063
 11
-70.4763
 21
-0.375992
  0
LINE
  8
0
 10
-70.4763
 20
-0.375992
 11
-70.5
 21
0
  0
LINE
  8
0
 10
-70.5
 20
0
 11
-70.4763
 21
0.375992
  0
LINE
  8
0
 10
-70.4763
 20
0.375992
 11
-70.4057
 21
0.746063
  0
LINE
  8
0
 10
-70.4057
 20
0.746063
 11
-70.2893
 21
1.10437
  0
LINE
  8
0
 10
-70.2893
 20
1.10437
 11
-70.1289
 21
1.44525
  0
LINE
  8
0
 10
-70.1289
 20
1.44525
 11
-69.927
 21
1.76335
  0
LINE
  8
0
 10
-69.927
 20
1.76335
 11
-69.6869
 21
2.05363
  0
LINE
  8
0
 10
-69.6869
 20
2.05363
 11
-69.4123
 21
2.31154
  0
LINE
  8
0
 10
-69.4123
 20
2.31154
 11
-69.1075
 21
2.53297
  0
LINE
  8
0
 10
-69.1075
 20
2.53297
 11
-68.7773
 21
2.71448
  0
LINE
  8
0
 10
-68.7773
 20
2.71448
 11
-68.427
 21
2.85316
  0
LINE
  8
0
 10
-68.427
 20
2.85316
 11
-68.0621
 21
2.94685
  0
LINE
  8
0
 10
-68.0621
 20
2.94685
 11
-67.6884
 21
2.99408
  0
LINE
  8
0
 10
-67.6884
 20
2.99408
 11
-67.3116
 21
2.99408
  0
LINE
  8
0
 10
-67.3116
 20
2.99408
 11
-66.9379
 21
2.94685
  0
LINE
  8
0
 10
-66.9379
 20
2.94685
 11
-66.573
 21
2.85316
  0
LINE
  8
0
 10
-66.573
 20
2.85316
 11
-66.2227
 21
2.71448
  0
LINE
  8
0
 10
-66.2227
 20
2.71448
 11
-65.8925
 21
2.53297
  0
LINE
  8
0
 10
-65.8925
 20
2.53297
 11
-65.5877
 21
2.31154
  0
LINE
  8
0
 10
-65.5877
 20
2.31154
 11
-65.3131
 21
2.05363
  0
LINE
  8
0
 10
-65.3131
 20
2.05363
 11
-65.073
 21
1.76335
  0
LINE
  8
0
 10
-65.073
 20
1.76335
 11
-64.8711
 21
1.44525
  0
LINE
  8
0
 10
-64.8711
 20
1.44525
 11
-64.7107
 21
1.10437
  0
LINE
  8
0
 10
-64.7107
 20
1.10437
 11
-64.5943
 21
0.746063
  0
LINE
  8
0
 10
-64.5943
 20
0.746063
 11
-64.5237
 21
0.375992
  0
LINE
  8
0
 10
-64.5237
 20
0.375992
 11
-64.5
 21
0
  0
LINE
  8
0
 10
-64.5
 20
0
 11
-64.5237
 21
-0.375992
  0
LINE
  8
0
 10
-64.5237
 20
-0.375992
 11
-64.5943
 21
-0.746063
  0
LINE
  8
0
 10
-64.5943
 20
-0.746063
 11
-64.7107
 21
-1.10437
  0
LINE
  8
0
 10
-64.7107
 20
-1.10437
 11
-64.8711
 21
-1.44525
  0
LINE
  8
0
 10
-64.8711
 20
-1.44525
 11
-65.073
 21
-1.76335
  0
LINE
  8
0
 10
-65.073
 20
-1.76335
 11
-65.3131
 21
-2.05363
  0
LINE
  8
0
 10
-65.3131
 20
-2.05363
 11
-65.5877
 21
-2.31154
  0
LINE
  8
0
 10
-65.5877
 20
-2.31154
 11
-65.8925
 21
-2.53297
  0
LINE
  8
0
 10
-65.8925
 20
-2.53297
 11
-66.2227
 21
-2.71448
  0
LINE
  8
0
 10
-66.2227
 20
-2.71448
 11
-66.573
 21
-2.85316
  0
LINE
  8
0
 10
-66.573
 20
-2.85316
 11
-66.9379
 21
-2.94685
  0
LINE
  8
0
 10
-66.9379
 20
-2.94685
 11
-67.3116
 21
-2.99408
  0
LINE
  8
0
 10
-67.3116
 20
-2.99408
 11
-67.6884
 21
-2.99408
  0
ENDSEC
  0
SECTION
  2
OBJECTS
  0
DICTIONARY
  0
ENDSEC
  0
EOF
