  0
SECTION
  2
BLOCKS
  0
ENDSEC
  0
SECTION
  2
ENTITIES
  0
LINE
  8
0
 10
137.937
 20
209.089
 11
138.545
 21
209.245
  0
LINE
  8
0
 10
138.545
 20
209.245
 11
139.129
 21
209.476
  0
LINE
  8
0
 10
139.129
 20
209.476
 11
139.679
 21
209.778
  0
LINE
  8
0
 10
139.679
 20
209.778
 11
140.187
 21
210.147
  0
LINE
  8
0
 10
140.187
 20
210.147
 11
140.645
 21
210.577
  0
LINE
  8
0
 10
140.645
 20
210.577
 11
141.045
 21
211.061
  0
LINE
  8
0
 10
141.045
 20
211.061
 11
141.382
 21
211.591
  0
LINE
  8
0
 10
141.382
 20
211.591
 11
141.649
 21
212.159
  0
LINE
  8
0
 10
141.649
 20
212.159
 11
141.843
 21
212.757
  0
LINE
  8
0
 10
141.843
 20
212.757
 11
141.961
 21
213.373
  0
LINE
  8
0
 10
141.961
 20
213.373
 11
142
 21
214
  0
LINE
  8
0
 10
142
 20
214
 11
142
 21
218
  0
LINE
  8
0
 10
142
 20
218
 11
141.961
 21
218.627
  0
LINE
  8
0
 10
141.961
 20
218.627
 11
141.843
 21
219.243
  0
LINE
  8
0
 10
141.843
 20
219.243
 11
141.649
 21
219.841
  0
LINE
  8
0
 10
141.649
 20
219.841
 11
141.382
 21
220.409
  0
LINE
  8
0
 10
141.382
 20
220.409
 11
141.045
 21
220.939
  0
LINE
  8
0
 10
141.045
 20
220.939
 11
140.645
 21
221.423
  0
LINE
  8
0
 10
140.645
 20
221.423
 11
140.187
 21
221.853
  0
LINE
  8
0
 10
140.187
 20
221.853
 11
139.679
 21
222.222
  0
LINE
  8
0
 10
139.679
 20
222.222
 11
139.129
 21
222.524
  0
LINE
  8
0
 10
139.129
 20
222.524
 11
138.545
 21
222.755
  0
LINE
  8
0
 10
138.545
 20
222.755
 11
137.937
 21
222.911
  0
LINE
  8
0
 10
137.937
 20
222.911
 11
137.314
 21
222.99
  0
LINE
  8
0
 10
137.314
 20
222.99
 11
-137.314
 21
222.99
  0
LINE
  8
0
 10
-137.314
 20
222.99
 11
-137.937
 21
222.911
  0
LINE
  8
0
 10
-137.937
 20
222.911
 11
-138.545
 21
222.755
  0
LINE
  8
0
 10
-138.545
 20
222.755
 11
-139.129
 21
222.524
  0
LINE
  8
0
 10
-139.129
 20
222.524
 11
-139.679
 21
222.222
  0
LINE
  8
0
 10
-139.679
 20
222.222
 11
-140.187
 21
221.853
  0
LINE
  8
0
 10
-140.187
 20
221.853
 11
-140.645
 21
221.423
  0
LINE
  8
0
 10
-140.645
 20
221.423
 11
-141.045
 21
220.939
  0
LINE
  8
0
 10
-141.045
 20
220.939
 11
-141.382
 21
220.409
  0
LINE
  8
0
 10
-141.382
 20
220.409
 11
-141.649
 21
219.841
  0
LINE
  8
0
 10
-141.649
 20
219.841
 11
-141.843
 21
219.243
  0
LINE
  8
0
 10
-141.843
 20
219.243
 11
-141.961
 21
218.627
  0
LINE
  8
0
 10
-141.961
 20
218.627
 11
-142
 21
218
  0
LINE
  8
0
 10
-142
 20
218
 11
-142
 21
214
  0
LINE
  8
0
 10
-142
 20
214
 11
-141.961
 21
213.373
  0
LINE
  8
0
 10
-141.961
 20
213.373
 11
-141.843
 21
212.757
  0
LINE
  8
0
 10
-141.843
 20
212.757
 11
-141.649
 21
212.159
  0
LINE
  8
0
 10
-141.649
 20
212.159
 11
-141.382
 21
211.591
  0
LINE
  8
0
 10
-141.382
 20
211.591
 11
-141.045
 21
211.061
  0
LINE
  8
0
 10
-141.045
 20
211.061
 11
-140.645
 21
210.577
  0
LINE
  8
0
 10
-140.645
 20
210.577
 11
-140.187
 21
210.147
  0
LINE
  8
0
 10
-140.187
 20
210.147
 11
-139.679
 21
209.778
  0
LINE
  8
0
 10
-139.679
 20
209.778
 11
-139.129
 21
209.476
  0
LINE
  8
0
 10
-139.129
 20
209.476
 11
-138.545
 21
209.245
  0
LINE
  8
0
 10
-138.545
 20
209.245
 11
-137.937
 21
209.089
  0
LINE
  8
0
 10
-137.937
 20
209.089
 11
-137.314
 21
209.01
  0
LINE
  8
0
 10
-137.314
 20
209.01
 11
137.314
 21
209.01
  0
LINE
  8
0
 10
137.314
 20
209.01
 11
137.937
 21
209.089
  0
LINE
  8
0
 10
134.812
 20
213.006
 11
134.438
 21
213.053
  0
LINE
  8
0
 10
134.438
 20
213.053
 11
134.073
 21
213.147
  0
LINE
  8
0
 10
134.073
 20
213.147
 11
133.723
 21
213.286
  0
LINE
  8
0
 10
133.723
 20
213.286
 11
133.393
 21
213.467
  0
LINE
  8
0
 10
133.393
 20
213.467
 11
133.088
 21
213.688
  0
LINE
  8
0
 10
133.088
 20
213.688
 11
132.813
 21
213.946
  0
LINE
  8
0
 10
132.813
 20
213.946
 11
132.573
 21
214.237
  0
LINE
  8
0
 10
132.573
 20
214.237
 11
132.371
 21
214.555
  0
LINE
  8
0
 10
132.371
 20
214.555
 11
132.211
 21
214.896
  0
LINE
  8
0
 10
132.211
 20
214.896
 11
132.094
 21
215.254
  0
LINE
  8
0
 10
132.094
 20
215.254
 11
132.024
 21
215.624
  0
LINE
  8
0
 10
132.024
 20
215.624
 11
132
 21
216
  0
LINE
  8
0
 10
132
 20
216
 11
132.024
 21
216.376
  0
LINE
  8
0
 10
132.024
 20
216.376
 11
132.094
 21
216.746
  0
LINE
  8
0
 10
132.094
 20
216.746
 11
132.211
 21
217.104
  0
LINE
  8
0
 10
132.211
 20
217.104
 11
132.371
 21
217.445
  0
LINE
  8
0
 10
132.371
 20
217.445
 11
132.573
 21
217.763
  0
LINE
  8
0
 10
132.573
 20
217.763
 11
132.813
 21
218.054
  0
LINE
  8
0
 10
132.813
 20
218.054
 11
133.088
 21
218.312
  0
LINE
  8
0
 10
133.088
 20
218.312
 11
133.393
 21
218.533
  0
LINE
  8
0
 10
133.393
 20
218.533
 11
133.723
 21
218.714
  0
LINE
  8
0
 10
133.723
 20
218.714
 11
134.073
 21
218.853
  0
LINE
  8
0
 10
134.073
 20
218.853
 11
134.438
 21
218.947
  0
LINE
  8
0
 10
134.438
 20
218.947
 11
134.812
 21
218.994
  0
LINE
  8
0
 10
134.812
 20
218.994
 11
135.188
 21
218.994
  0
LINE
  8
0
 10
135.188
 20
218.994
 11
135.562
 21
218.947
  0
LINE
  8
0
 10
135.562
 20
218.947
 11
135.927
 21
218.853
  0
LINE
  8
0
 10
135.927
 20
218.853
 11
136.277
 21
218.714
  0
LINE
  8
0
 10
136.277
 20
218.714
 11
136.607
 21
218.533
  0
LINE
  8
0
 10
136.607
 20
218.533
 11
136.912
 21
218.312
  0
LINE
  8
0
 10
136.912
 20
218.312
 11
137.187
 21
218.054
  0
LINE
  8
0
 10
137.187
 20
218.054
 11
137.427
 21
217.763
  0
LINE
  8
0
 10
137.427
 20
217.763
 11
137.629
 21
217.445
  0
LINE
  8
0
 10
137.629
 20
217.445
 11
137.789
 21
217.104
  0
LINE
  8
0
 10
137.789
 20
217.104
 11
137.906
 21
216.746
  0
LINE
  8
0
 10
137.906
 20
216.746
 11
137.976
 21
216.376
  0
LINE
  8
0
 10
137.976
 20
216.376
 11
138
 21
216
  0
LINE
  8
0
 10
138
 20
216
 11
137.976
 21
215.624
  0
LINE
  8
0
 10
137.976
 20
215.624
 11
137.906
 21
215.254
  0
LINE
  8
0
 10
137.906
 20
215.254
 11
137.789
 21
214.896
  0
LINE
  8
0
 10
137.789
 20
214.896
 11
137.629
 21
214.555
  0
LINE
  8
0
 10
137.629
 20
214.555
 11
137.427
 21
214.237
  0
LINE
  8
0
 10
137.427
 20
214.237
 11
137.187
 21
213.946
  0
LINE
  8
0
 10
137.187
 20
213.946
 11
136.912
 21
213.688
  0
LINE
  8
0
 10
136.912
 20
213.688
 11
136.607
 21
213.467
  0
LINE
  8
0
 10
136.607
 20
213.467
 11
136.277
 21
213.286
  0
LINE
  8
0
 10
136.277
 20
213.286
 11
135.927
 21
213.147
  0
LINE
  8
0
 10
135.927
 20
213.147
 11
135.562
 21
213.053
  0
LINE
  8
0
 10
135.562
 20
213.053
 11
135.188
 21
213.006
  0
LINE
  8
0
 10
135.188
 20
213.006
 11
134.812
 21
213.006
  0
LINE
  8
0
 10
-135.188
 20
213.006
 11
-135.562
 21
213.053
  0
LINE
  8
0
 10
-135.562
 20
213.053
 11
-135.927
 21
213.147
  0
LINE
  8
0
 10
-135.927
 20
213.147
 11
-136.277
 21
213.286
  0
LINE
  8
0
 10
-136.277
 20
213.286
 11
-136.607
 21
213.467
  0
LINE
  8
0
 10
-136.607
 20
213.467
 11
-136.912
 21
213.688
  0
LINE
  8
0
 10
-136.912
 20
213.688
 11
-137.187
 21
213.946
  0
LINE
  8
0
 10
-137.187
 20
213.946
 11
-137.427
 21
214.237
  0
LINE
  8
0
 10
-137.427
 20
214.237
 11
-137.629
 21
214.555
  0
LINE
  8
0
 10
-137.629
 20
214.555
 11
-137.789
 21
214.896
  0
LINE
  8
0
 10
-137.789
 20
214.896
 11
-137.906
 21
215.254
  0
LINE
  8
0
 10
-137.906
 20
215.254
 11
-137.976
 21
215.624
  0
LINE
  8
0
 10
-137.976
 20
215.624
 11
-138
 21
216
  0
LINE
  8
0
 10
-138
 20
216
 11
-137.976
 21
216.376
  0
LINE
  8
0
 10
-137.976
 20
216.376
 11
-137.906
 21
216.746
  0
LINE
  8
0
 10
-137.906
 20
216.746
 11
-137.789
 21
217.104
  0
LINE
  8
0
 10
-137.789
 20
217.104
 11
-137.629
 21
217.445
  0
LINE
  8
0
 10
-137.629
 20
217.445
 11
-137.427
 21
217.763
  0
LINE
  8
0
 10
-137.427
 20
217.763
 11
-137.187
 21
218.054
  0
LINE
  8
0
 10
-137.187
 20
218.054
 11
-136.912
 21
218.312
  0
LINE
  8
0
 10
-136.912
 20
218.312
 11
-136.607
 21
218.533
  0
LINE
  8
0
 10
-136.607
 20
218.533
 11
-136.277
 21
218.714
  0
LINE
  8
0
 10
-136.277
 20
218.714
 11
-135.927
 21
218.853
  0
LINE
  8
0
 10
-135.927
 20
218.853
 11
-135.562
 21
218.947
  0
LINE
  8
0
 10
-135.562
 20
218.947
 11
-135.188
 21
218.994
  0
LINE
  8
0
 10
-135.188
 20
218.994
 11
-134.812
 21
218.994
  0
LINE
  8
0
 10
-134.812
 20
218.994
 11
-134.438
 21
218.947
  0
LINE
  8
0
 10
-134.438
 20
218.947
 11
-134.073
 21
218.853
  0
LINE
  8
0
 10
-134.073
 20
218.853
 11
-133.723
 21
218.714
  0
LINE
  8
0
 10
-133.723
 20
218.714
 11
-133.393
 21
218.533
  0
LINE
  8
0
 10
-133.393
 20
218.533
 11
-133.088
 21
218.312
  0
LINE
  8
0
 10
-133.088
 20
218.312
 11
-132.813
 21
218.054
  0
LINE
  8
0
 10
-132.813
 20
218.054
 11
-132.573
 21
217.763
  0
LINE
  8
0
 10
-132.573
 20
217.763
 11
-132.371
 21
217.445
  0
LINE
  8
0
 10
-132.371
 20
217.445
 11
-132.211
 21
217.104
  0
LINE
  8
0
 10
-132.211
 20
217.104
 11
-132.094
 21
216.746
  0
LINE
  8
0
 10
-132.094
 20
216.746
 11
-132.024
 21
216.376
  0
LINE
  8
0
 10
-132.024
 20
216.376
 11
-132
 21
216
  0
LINE
  8
0
 10
-132
 20
216
 11
-132.024
 21
215.624
  0
LINE
  8
0
 10
-132.024
 20
215.624
 11
-132.094
 21
215.254
  0
LINE
  8
0
 10
-132.094
 20
215.254
 11
-132.211
 21
214.896
  0
LINE
  8
0
 10
-132.211
 20
214.896
 11
-132.371
 21
214.555
  0
LINE
  8
0
 10
-132.371
 20
214.555
 11
-132.573
 21
214.237
  0
LINE
  8
0
 10
-132.573
 20
214.237
 11
-132.813
 21
213.946
  0
LINE
  8
0
 10
-132.813
 20
213.946
 11
-133.088
 21
213.688
  0
LINE
  8
0
 10
-133.088
 20
213.688
 11
-133.393
 21
213.467
  0
LINE
  8
0
 10
-133.393
 20
213.467
 11
-133.723
 21
213.286
  0
LINE
  8
0
 10
-133.723
 20
213.286
 11
-134.073
 21
213.147
  0
LINE
  8
0
 10
-134.073
 20
213.147
 11
-134.438
 21
213.053
  0
LINE
  8
0
 10
-134.438
 20
213.053
 11
-134.812
 21
213.006
  0
LINE
  8
0
 10
-134.812
 20
213.006
 11
-135.188
 21
213.006
  0
LINE
  8
0
 10
137.937
 20
185.089
 11
138.545
 21
185.245
  0
LINE
  8
0
 10
138.545
 20
185.245
 11
139.129
 21
185.476
  0
LINE
  8
0
 10
139.129
 20
185.476
 11
139.679
 21
185.778
  0
LINE
  8
0
 10
139.679
 20
185.778
 11
140.187
 21
186.147
  0
LINE
  8
0
 10
140.187
 20
186.147
 11
140.645
 21
186.577
  0
LINE
  8
0
 10
140.645
 20
186.577
 11
141.045
 21
187.061
  0
LINE
  8
0
 10
141.045
 20
187.061
 11
141.382
 21
187.591
  0
LINE
  8
0
 10
141.382
 20
187.591
 11
141.649
 21
188.159
  0
LINE
  8
0
 10
141.649
 20
188.159
 11
141.843
 21
188.757
  0
LINE
  8
0
 10
141.843
 20
188.757
 11
141.961
 21
189.373
  0
LINE
  8
0
 10
141.961
 20
189.373
 11
142
 21
190
  0
LINE
  8
0
 10
142
 20
190
 11
142
 21
194
  0
LINE
  8
0
 10
142
 20
194
 11
141.961
 21
194.627
  0
LINE
  8
0
 10
141.961
 20
194.627
 11
141.843
 21
195.243
  0
LINE
  8
0
 10
141.843
 20
195.243
 11
141.649
 21
195.841
  0
LINE
  8
0
 10
141.649
 20
195.841
 11
141.382
 21
196.409
  0
LINE
  8
0
 10
141.382
 20
196.409
 11
141.045
 21
196.939
  0
LINE
  8
0
 10
141.045
 20
196.939
 11
140.645
 21
197.423
  0
LINE
  8
0
 10
140.645
 20
197.423
 11
140.187
 21
197.853
  0
LINE
  8
0
 10
140.187
 20
197.853
 11
139.679
 21
198.222
  0
LINE
  8
0
 10
139.679
 20
198.222
 11
139.129
 21
198.524
  0
LINE
  8
0
 10
139.129
 20
198.524
 11
138.545
 21
198.755
  0
LINE
  8
0
 10
138.545
 20
198.755
 11
137.937
 21
198.911
  0
LINE
  8
0
 10
137.937
 20
198.911
 11
137.314
 21
198.99
  0
LINE
  8
0
 10
137.314
 20
198.99
 11
-137.314
 21
198.99
  0
LINE
  8
0
 10
-137.314
 20
198.99
 11
-137.937
 21
198.911
  0
LINE
  8
0
 10
-137.937
 20
198.911
 11
-138.545
 21
198.755
  0
LINE
  8
0
 10
-138.545
 20
198.755
 11
-139.129
 21
198.524
  0
LINE
  8
0
 10
-139.129
 20
198.524
 11
-139.679
 21
198.222
  0
LINE
  8
0
 10
-139.679
 20
198.222
 11
-140.187
 21
197.853
  0
LINE
  8
0
 10
-140.187
 20
197.853
 11
-140.645
 21
197.423
  0
LINE
  8
0
 10
-140.645
 20
197.423
 11
-141.045
 21
196.939
  0
LINE
  8
0
 10
-141.045
 20
196.939
 11
-141.382
 21
196.409
  0
LINE
  8
0
 10
-141.382
 20
196.409
 11
-141.649
 21
195.841
  0
LINE
  8
0
 10
-141.649
 20
195.841
 11
-141.843
 21
195.243
  0
LINE
  8
0
 10
-141.843
 20
195.243
 11
-141.961
 21
194.627
  0
LINE
  8
0
 10
-141.961
 20
194.627
 11
-142
 21
194
  0
LINE
  8
0
 10
-142
 20
194
 11
-142
 21
190
  0
LINE
  8
0
 10
-142
 20
190
 11
-141.961
 21
189.373
  0
LINE
  8
0
 10
-141.961
 20
189.373
 11
-141.843
 21
188.757
  0
LINE
  8
0
 10
-141.843
 20
188.757
 11
-141.649
 21
188.159
  0
LINE
  8
0
 10
-141.649
 20
188.159
 11
-141.382
 21
187.591
  0
LINE
  8
0
 10
-141.382
 20
187.591
 11
-141.045
 21
187.061
  0
LINE
  8
0
 10
-141.045
 20
187.061
 11
-140.645
 21
186.577
  0
LINE
  8
0
 10
-140.645
 20
186.577
 11
-140.187
 21
186.147
  0
LINE
  8
0
 10
-140.187
 20
186.147
 11
-139.679
 21
185.778
  0
LINE
  8
0
 10
-139.679
 20
185.778
 11
-139.129
 21
185.476
  0
LINE
  8
0
 10
-139.129
 20
185.476
 11
-138.545
 21
185.245
  0
LINE
  8
0
 10
-138.545
 20
185.245
 11
-137.937
 21
185.089
  0
LINE
  8
0
 10
-137.937
 20
185.089
 11
-137.314
 21
185.01
  0
LINE
  8
0
 10
-137.314
 20
185.01
 11
137.314
 21
185.01
  0
LINE
  8
0
 10
137.314
 20
185.01
 11
137.937
 21
185.089
  0
LINE
  8
0
 10
134.812
 20
189.006
 11
134.438
 21
189.053
  0
LINE
  8
0
 10
134.438
 20
189.053
 11
134.073
 21
189.147
  0
LINE
  8
0
 10
134.073
 20
189.147
 11
133.723
 21
189.286
  0
LINE
  8
0
 10
133.723
 20
189.286
 11
133.393
 21
189.467
  0
LINE
  8
0
 10
133.393
 20
189.467
 11
133.088
 21
189.688
  0
LINE
  8
0
 10
133.088
 20
189.688
 11
132.813
 21
189.946
  0
LINE
  8
0
 10
132.813
 20
189.946
 11
132.573
 21
190.237
  0
LINE
  8
0
 10
132.573
 20
190.237
 11
132.371
 21
190.555
  0
LINE
  8
0
 10
132.371
 20
190.555
 11
132.211
 21
190.896
  0
LINE
  8
0
 10
132.211
 20
190.896
 11
132.094
 21
191.254
  0
LINE
  8
0
 10
132.094
 20
191.254
 11
132.024
 21
191.624
  0
LINE
  8
0
 10
132.024
 20
191.624
 11
132
 21
192
  0
LINE
  8
0
 10
132
 20
192
 11
132.024
 21
192.376
  0
LINE
  8
0
 10
132.024
 20
192.376
 11
132.094
 21
192.746
  0
LINE
  8
0
 10
132.094
 20
192.746
 11
132.211
 21
193.104
  0
LINE
  8
0
 10
132.211
 20
193.104
 11
132.371
 21
193.445
  0
LINE
  8
0
 10
132.371
 20
193.445
 11
132.573
 21
193.763
  0
LINE
  8
0
 10
132.573
 20
193.763
 11
132.813
 21
194.054
  0
LINE
  8
0
 10
132.813
 20
194.054
 11
133.088
 21
194.312
  0
LINE
  8
0
 10
133.088
 20
194.312
 11
133.393
 21
194.533
  0
LINE
  8
0
 10
133.393
 20
194.533
 11
133.723
 21
194.714
  0
LINE
  8
0
 10
133.723
 20
194.714
 11
134.073
 21
194.853
  0
LINE
  8
0
 10
134.073
 20
194.853
 11
134.438
 21
194.947
  0
LINE
  8
0
 10
134.438
 20
194.947
 11
134.812
 21
194.994
  0
LINE
  8
0
 10
134.812
 20
194.994
 11
135.188
 21
194.994
  0
LINE
  8
0
 10
135.188
 20
194.994
 11
135.562
 21
194.947
  0
LINE
  8
0
 10
135.562
 20
194.947
 11
135.927
 21
194.853
  0
LINE
  8
0
 10
135.927
 20
194.853
 11
136.277
 21
194.714
  0
LINE
  8
0
 10
136.277
 20
194.714
 11
136.607
 21
194.533
  0
LINE
  8
0
 10
136.607
 20
194.533
 11
136.912
 21
194.312
  0
LINE
  8
0
 10
136.912
 20
194.312
 11
137.187
 21
194.054
  0
LINE
  8
0
 10
137.187
 20
194.054
 11
137.427
 21
193.763
  0
LINE
  8
0
 10
137.427
 20
193.763
 11
137.629
 21
193.445
  0
LINE
  8
0
 10
137.629
 20
193.445
 11
137.789
 21
193.104
  0
LINE
  8
0
 10
137.789
 20
193.104
 11
137.906
 21
192.746
  0
LINE
  8
0
 10
137.906
 20
192.746
 11
137.976
 21
192.376
  0
LINE
  8
0
 10
137.976
 20
192.376
 11
138
 21
192
  0
LINE
  8
0
 10
138
 20
192
 11
137.976
 21
191.624
  0
LINE
  8
0
 10
137.976
 20
191.624
 11
137.906
 21
191.254
  0
LINE
  8
0
 10
137.906
 20
191.254
 11
137.789
 21
190.896
  0
LINE
  8
0
 10
137.789
 20
190.896
 11
137.629
 21
190.555
  0
LINE
  8
0
 10
137.629
 20
190.555
 11
137.427
 21
190.237
  0
LINE
  8
0
 10
137.427
 20
190.237
 11
137.187
 21
189.946
  0
LINE
  8
0
 10
137.187
 20
189.946
 11
136.912
 21
189.688
  0
LINE
  8
0
 10
136.912
 20
189.688
 11
136.607
 21
189.467
  0
LINE
  8
0
 10
136.607
 20
189.467
 11
136.277
 21
189.286
  0
LINE
  8
0
 10
136.277
 20
189.286
 11
135.927
 21
189.147
  0
LINE
  8
0
 10
135.927
 20
189.147
 11
135.562
 21
189.053
  0
LINE
  8
0
 10
135.562
 20
189.053
 11
135.188
 21
189.006
  0
LINE
  8
0
 10
135.188
 20
189.006
 11
134.812
 21
189.006
  0
LINE
  8
0
 10
-135.188
 20
189.006
 11
-135.562
 21
189.053
  0
LINE
  8
0
 10
-135.562
 20
189.053
 11
-135.927
 21
189.147
  0
LINE
  8
0
 10
-135.927
 20
189.147
 11
-136.277
 21
189.286
  0
LINE
  8
0
 10
-136.277
 20
189.286
 11
-136.607
 21
189.467
  0
LINE
  8
0
 10
-136.607
 20
189.467
 11
-136.912
 21
189.688
  0
LINE
  8
0
 10
-136.912
 20
189.688
 11
-137.187
 21
189.946
  0
LINE
  8
0
 10
-137.187
 20
189.946
 11
-137.427
 21
190.237
  0
LINE
  8
0
 10
-137.427
 20
190.237
 11
-137.629
 21
190.555
  0
LINE
  8
0
 10
-137.629
 20
190.555
 11
-137.789
 21
190.896
  0
LINE
  8
0
 10
-137.789
 20
190.896
 11
-137.906
 21
191.254
  0
LINE
  8
0
 10
-137.906
 20
191.254
 11
-137.976
 21
191.624
  0
LINE
  8
0
 10
-137.976
 20
191.624
 11
-138
 21
192
  0
LINE
  8
0
 10
-138
 20
192
 11
-137.976
 21
192.376
  0
LINE
  8
0
 10
-137.976
 20
192.376
 11
-137.906
 21
192.746
  0
LINE
  8
0
 10
-137.906
 20
192.746
 11
-137.789
 21
193.104
  0
LINE
  8
0
 10
-137.789
 20
193.104
 11
-137.629
 21
193.445
  0
LINE
  8
0
 10
-137.629
 20
193.445
 11
-137.427
 21
193.763
  0
LINE
  8
0
 10
-137.427
 20
193.763
 11
-137.187
 21
194.054
  0
LINE
  8
0
 10
-137.187
 20
194.054
 11
-136.912
 21
194.312
  0
LINE
  8
0
 10
-136.912
 20
194.312
 11
-136.607
 21
194.533
  0
LINE
  8
0
 10
-136.607
 20
194.533
 11
-136.277
 21
194.714
  0
LINE
  8
0
 10
-136.277
 20
194.714
 11
-135.927
 21
194.853
  0
LINE
  8
0
 10
-135.927
 20
194.853
 11
-135.562
 21
194.947
  0
LINE
  8
0
 10
-135.562
 20
194.947
 11
-135.188
 21
194.994
  0
LINE
  8
0
 10
-135.188
 20
194.994
 11
-134.812
 21
194.994
  0
LINE
  8
0
 10
-134.812
 20
194.994
 11
-134.438
 21
194.947
  0
LINE
  8
0
 10
-134.438
 20
194.947
 11
-134.073
 21
194.853
  0
LINE
  8
0
 10
-134.073
 20
194.853
 11
-133.723
 21
194.714
  0
LINE
  8
0
 10
-133.723
 20
194.714
 11
-133.393
 21
194.533
  0
LINE
  8
0
 10
-133.393
 20
194.533
 11
-133.088
 21
194.312
  0
LINE
  8
0
 10
-133.088
 20
194.312
 11
-132.813
 21
194.054
  0
LINE
  8
0
 10
-132.813
 20
194.054
 11
-132.573
 21
193.763
  0
LINE
  8
0
 10
-132.573
 20
193.763
 11
-132.371
 21
193.445
  0
LINE
  8
0
 10
-132.371
 20
193.445
 11
-132.211
 21
193.104
  0
LINE
  8
0
 10
-132.211
 20
193.104
 11
-132.094
 21
192.746
  0
LINE
  8
0
 10
-132.094
 20
192.746
 11
-132.024
 21
192.376
  0
LINE
  8
0
 10
-132.024
 20
192.376
 11
-132
 21
192
  0
LINE
  8
0
 10
-132
 20
192
 11
-132.024
 21
191.624
  0
LINE
  8
0
 10
-132.024
 20
191.624
 11
-132.094
 21
191.254
  0
LINE
  8
0
 10
-132.094
 20
191.254
 11
-132.211
 21
190.896
  0
LINE
  8
0
 10
-132.211
 20
190.896
 11
-132.371
 21
190.555
  0
LINE
  8
0
 10
-132.371
 20
190.555
 11
-132.573
 21
190.237
  0
LINE
  8
0
 10
-132.573
 20
190.237
 11
-132.813
 21
189.946
  0
LINE
  8
0
 10
-132.813
 20
189.946
 11
-133.088
 21
189.688
  0
LINE
  8
0
 10
-133.088
 20
189.688
 11
-133.393
 21
189.467
  0
LINE
  8
0
 10
-133.393
 20
189.467
 11
-133.723
 21
189.286
  0
LINE
  8
0
 10
-133.723
 20
189.286
 11
-134.073
 21
189.147
  0
LINE
  8
0
 10
-134.073
 20
189.147
 11
-134.438
 21
189.053
  0
LINE
  8
0
 10
-134.438
 20
189.053
 11
-134.812
 21
189.006
  0
LINE
  8
0
 10
-134.812
 20
189.006
 11
-135.188
 21
189.006
  0
LINE
  8
0
 10
137.937
 20
161.089
 11
138.545
 21
161.245
  0
LINE
  8
0
 10
138.545
 20
161.245
 11
139.129
 21
161.476
  0
LINE
  8
0
 10
139.129
 20
161.476
 11
139.679
 21
161.778
  0
LINE
  8
0
 10
139.679
 20
161.778
 11
140.187
 21
162.147
  0
LINE
  8
0
 10
140.187
 20
162.147
 11
140.645
 21
162.577
  0
LINE
  8
0
 10
140.645
 20
162.577
 11
141.045
 21
163.061
  0
LINE
  8
0
 10
141.045
 20
163.061
 11
141.382
 21
163.591
  0
LINE
  8
0
 10
141.382
 20
163.591
 11
141.649
 21
164.159
  0
LINE
  8
0
 10
141.649
 20
164.159
 11
141.843
 21
164.757
  0
LINE
  8
0
 10
141.843
 20
164.757
 11
141.961
 21
165.373
  0
LINE
  8
0
 10
141.961
 20
165.373
 11
142
 21
166
  0
LINE
  8
0
 10
142
 20
166
 11
142
 21
170
  0
LINE
  8
0
 10
142
 20
170
 11
141.961
 21
170.627
  0
LINE
  8
0
 10
141.961
 20
170.627
 11
141.843
 21
171.243
  0
LINE
  8
0
 10
141.843
 20
171.243
 11
141.649
 21
171.841
  0
LINE
  8
0
 10
141.649
 20
171.841
 11
141.382
 21
172.409
  0
LINE
  8
0
 10
141.382
 20
172.409
 11
141.045
 21
172.939
  0
LINE
  8
0
 10
141.045
 20
172.939
 11
140.645
 21
173.423
  0
LINE
  8
0
 10
140.645
 20
173.423
 11
140.187
 21
173.853
  0
LINE
  8
0
 10
140.187
 20
173.853
 11
139.679
 21
174.222
  0
LINE
  8
0
 10
139.679
 20
174.222
 11
139.129
 21
174.524
  0
LINE
  8
0
 10
139.129
 20
174.524
 11
138.545
 21
174.755
  0
LINE
  8
0
 10
138.545
 20
174.755
 11
137.937
 21
174.911
  0
LINE
  8
0
 10
137.937
 20
174.911
 11
137.314
 21
174.99
  0
LINE
  8
0
 10
137.314
 20
174.99
 11
-137.314
 21
174.99
  0
LINE
  8
0
 10
-137.314
 20
174.99
 11
-137.937
 21
174.911
  0
LINE
  8
0
 10
-137.937
 20
174.911
 11
-138.545
 21
174.755
  0
LINE
  8
0
 10
-138.545
 20
174.755
 11
-139.129
 21
174.524
  0
LINE
  8
0
 10
-139.129
 20
174.524
 11
-139.679
 21
174.222
  0
LINE
  8
0
 10
-139.679
 20
174.222
 11
-140.187
 21
173.853
  0
LINE
  8
0
 10
-140.187
 20
173.853
 11
-140.645
 21
173.423
  0
LINE
  8
0
 10
-140.645
 20
173.423
 11
-141.045
 21
172.939
  0
LINE
  8
0
 10
-141.045
 20
172.939
 11
-141.382
 21
172.409
  0
LINE
  8
0
 10
-141.382
 20
172.409
 11
-141.649
 21
171.841
  0
LINE
  8
0
 10
-141.649
 20
171.841
 11
-141.843
 21
171.243
  0
LINE
  8
0
 10
-141.843
 20
171.243
 11
-141.961
 21
170.627
  0
LINE
  8
0
 10
-141.961
 20
170.627
 11
-142
 21
170
  0
LINE
  8
0
 10
-142
 20
170
 11
-142
 21
166
  0
LINE
  8
0
 10
-142
 20
166
 11
-141.961
 21
165.373
  0
LINE
  8
0
 10
-141.961
 20
165.373
 11
-141.843
 21
164.757
  0
LINE
  8
0
 10
-141.843
 20
164.757
 11
-141.649
 21
164.159
  0
LINE
  8
0
 10
-141.649
 20
164.159
 11
-141.382
 21
163.591
  0
LINE
  8
0
 10
-141.382
 20
163.591
 11
-141.045
 21
163.061
  0
LINE
  8
0
 10
-141.045
 20
163.061
 11
-140.645
 21
162.577
  0
LINE
  8
0
 10
-140.645
 20
162.577
 11
-140.187
 21
162.147
  0
LINE
  8
0
 10
-140.187
 20
162.147
 11
-139.679
 21
161.778
  0
LINE
  8
0
 10
-139.679
 20
161.778
 11
-139.129
 21
161.476
  0
LINE
  8
0
 10
-139.129
 20
161.476
 11
-138.545
 21
161.245
  0
LINE
  8
0
 10
-138.545
 20
161.245
 11
-137.937
 21
161.089
  0
LINE
  8
0
 10
-137.937
 20
161.089
 11
-137.314
 21
161.01
  0
LINE
  8
0
 10
-137.314
 20
161.01
 11
137.314
 21
161.01
  0
LINE
  8
0
 10
137.314
 20
161.01
 11
137.937
 21
161.089
  0
LINE
  8
0
 10
134.812
 20
165.006
 11
134.438
 21
165.053
  0
LINE
  8
0
 10
134.438
 20
165.053
 11
134.073
 21
165.147
  0
LINE
  8
0
 10
134.073
 20
165.147
 11
133.723
 21
165.286
  0
LINE
  8
0
 10
133.723
 20
165.286
 11
133.393
 21
165.467
  0
LINE
  8
0
 10
133.393
 20
165.467
 11
133.088
 21
165.688
  0
LINE
  8
0
 10
133.088
 20
165.688
 11
132.813
 21
165.946
  0
LINE
  8
0
 10
132.813
 20
165.946
 11
132.573
 21
166.237
  0
LINE
  8
0
 10
132.573
 20
166.237
 11
132.371
 21
166.555
  0
LINE
  8
0
 10
132.371
 20
166.555
 11
132.211
 21
166.896
  0
LINE
  8
0
 10
132.211
 20
166.896
 11
132.094
 21
167.254
  0
LINE
  8
0
 10
132.094
 20
167.254
 11
132.024
 21
167.624
  0
LINE
  8
0
 10
132.024
 20
167.624
 11
132
 21
168
  0
LINE
  8
0
 10
132
 20
168
 11
132.024
 21
168.376
  0
LINE
  8
0
 10
132.024
 20
168.376
 11
132.094
 21
168.746
  0
LINE
  8
0
 10
132.094
 20
168.746
 11
132.211
 21
169.104
  0
LINE
  8
0
 10
132.211
 20
169.104
 11
132.371
 21
169.445
  0
LINE
  8
0
 10
132.371
 20
169.445
 11
132.573
 21
169.763
  0
LINE
  8
0
 10
132.573
 20
169.763
 11
132.813
 21
170.054
  0
LINE
  8
0
 10
132.813
 20
170.054
 11
133.088
 21
170.312
  0
LINE
  8
0
 10
133.088
 20
170.312
 11
133.393
 21
170.533
  0
LINE
  8
0
 10
133.393
 20
170.533
 11
133.723
 21
170.714
  0
LINE
  8
0
 10
133.723
 20
170.714
 11
134.073
 21
170.853
  0
LINE
  8
0
 10
134.073
 20
170.853
 11
134.438
 21
170.947
  0
LINE
  8
0
 10
134.438
 20
170.947
 11
134.812
 21
170.994
  0
LINE
  8
0
 10
134.812
 20
170.994
 11
135.188
 21
170.994
  0
LINE
  8
0
 10
135.188
 20
170.994
 11
135.562
 21
170.947
  0
LINE
  8
0
 10
135.562
 20
170.947
 11
135.927
 21
170.853
  0
LINE
  8
0
 10
135.927
 20
170.853
 11
136.277
 21
170.714
  0
LINE
  8
0
 10
136.277
 20
170.714
 11
136.607
 21
170.533
  0
LINE
  8
0
 10
136.607
 20
170.533
 11
136.912
 21
170.312
  0
LINE
  8
0
 10
136.912
 20
170.312
 11
137.187
 21
170.054
  0
LINE
  8
0
 10
137.187
 20
170.054
 11
137.427
 21
169.763
  0
LINE
  8
0
 10
137.427
 20
169.763
 11
137.629
 21
169.445
  0
LINE
  8
0
 10
137.629
 20
169.445
 11
137.789
 21
169.104
  0
LINE
  8
0
 10
137.789
 20
169.104
 11
137.906
 21
168.746
  0
LINE
  8
0
 10
137.906
 20
168.746
 11
137.976
 21
168.376
  0
LINE
  8
0
 10
137.976
 20
168.376
 11
138
 21
168
  0
LINE
  8
0
 10
138
 20
168
 11
137.976
 21
167.624
  0
LINE
  8
0
 10
137.976
 20
167.624
 11
137.906
 21
167.254
  0
LINE
  8
0
 10
137.906
 20
167.254
 11
137.789
 21
166.896
  0
LINE
  8
0
 10
137.789
 20
166.896
 11
137.629
 21
166.555
  0
LINE
  8
0
 10
137.629
 20
166.555
 11
137.427
 21
166.237
  0
LINE
  8
0
 10
137.427
 20
166.237
 11
137.187
 21
165.946
  0
LINE
  8
0
 10
137.187
 20
165.946
 11
136.912
 21
165.688
  0
LINE
  8
0
 10
136.912
 20
165.688
 11
136.607
 21
165.467
  0
LINE
  8
0
 10
136.607
 20
165.467
 11
136.277
 21
165.286
  0
LINE
  8
0
 10
136.277
 20
165.286
 11
135.927
 21
165.147
  0
LINE
  8
0
 10
135.927
 20
165.147
 11
135.562
 21
165.053
  0
LINE
  8
0
 10
135.562
 20
165.053
 11
135.188
 21
165.006
  0
LINE
  8
0
 10
135.188
 20
165.006
 11
134.812
 21
165.006
  0
LINE
  8
0
 10
-135.188
 20
165.006
 11
-135.562
 21
165.053
  0
LINE
  8
0
 10
-135.562
 20
165.053
 11
-135.927
 21
165.147
  0
LINE
  8
0
 10
-135.927
 20
165.147
 11
-136.277
 21
165.286
  0
LINE
  8
0
 10
-136.277
 20
165.286
 11
-136.607
 21
165.467
  0
LINE
  8
0
 10
-136.607
 20
165.467
 11
-136.912
 21
165.688
  0
LINE
  8
0
 10
-136.912
 20
165.688
 11
-137.187
 21
165.946
  0
LINE
  8
0
 10
-137.187
 20
165.946
 11
-137.427
 21
166.237
  0
LINE
  8
0
 10
-137.427
 20
166.237
 11
-137.629
 21
166.555
  0
LINE
  8
0
 10
-137.629
 20
166.555
 11
-137.789
 21
166.896
  0
LINE
  8
0
 10
-137.789
 20
166.896
 11
-137.906
 21
167.254
  0
LINE
  8
0
 10
-137.906
 20
167.254
 11
-137.976
 21
167.624
  0
LINE
  8
0
 10
-137.976
 20
167.624
 11
-138
 21
168
  0
LINE
  8
0
 10
-138
 20
168
 11
-137.976
 21
168.376
  0
LINE
  8
0
 10
-137.976
 20
168.376
 11
-137.906
 21
168.746
  0
LINE
  8
0
 10
-137.906
 20
168.746
 11
-137.789
 21
169.104
  0
LINE
  8
0
 10
-137.789
 20
169.104
 11
-137.629
 21
169.445
  0
LINE
  8
0
 10
-137.629
 20
169.445
 11
-137.427
 21
169.763
  0
LINE
  8
0
 10
-137.427
 20
169.763
 11
-137.187
 21
170.054
  0
LINE
  8
0
 10
-137.187
 20
170.054
 11
-136.912
 21
170.312
  0
LINE
  8
0
 10
-136.912
 20
170.312
 11
-136.607
 21
170.533
  0
LINE
  8
0
 10
-136.607
 20
170.533
 11
-136.277
 21
170.714
  0
LINE
  8
0
 10
-136.277
 20
170.714
 11
-135.927
 21
170.853
  0
LINE
  8
0
 10
-135.927
 20
170.853
 11
-135.562
 21
170.947
  0
LINE
  8
0
 10
-135.562
 20
170.947
 11
-135.188
 21
170.994
  0
LINE
  8
0
 10
-135.188
 20
170.994
 11
-134.812
 21
170.994
  0
LINE
  8
0
 10
-134.812
 20
170.994
 11
-134.438
 21
170.947
  0
LINE
  8
0
 10
-134.438
 20
170.947
 11
-134.073
 21
170.853
  0
LINE
  8
0
 10
-134.073
 20
170.853
 11
-133.723
 21
170.714
  0
LINE
  8
0
 10
-133.723
 20
170.714
 11
-133.393
 21
170.533
  0
LINE
  8
0
 10
-133.393
 20
170.533
 11
-133.088
 21
170.312
  0
LINE
  8
0
 10
-133.088
 20
170.312
 11
-132.813
 21
170.054
  0
LINE
  8
0
 10
-132.813
 20
170.054
 11
-132.573
 21
169.763
  0
LINE
  8
0
 10
-132.573
 20
169.763
 11
-132.371
 21
169.445
  0
LINE
  8
0
 10
-132.371
 20
169.445
 11
-132.211
 21
169.104
  0
LINE
  8
0
 10
-132.211
 20
169.104
 11
-132.094
 21
168.746
  0
LINE
  8
0
 10
-132.094
 20
168.746
 11
-132.024
 21
168.376
  0
LINE
  8
0
 10
-132.024
 20
168.376
 11
-132
 21
168
  0
LINE
  8
0
 10
-132
 20
168
 11
-132.024
 21
167.624
  0
LINE
  8
0
 10
-132.024
 20
167.624
 11
-132.094
 21
167.254
  0
LINE
  8
0
 10
-132.094
 20
167.254
 11
-132.211
 21
166.896
  0
LINE
  8
0
 10
-132.211
 20
166.896
 11
-132.371
 21
166.555
  0
LINE
  8
0
 10
-132.371
 20
166.555
 11
-132.573
 21
166.237
  0
LINE
  8
0
 10
-132.573
 20
166.237
 11
-132.813
 21
165.946
  0
LINE
  8
0
 10
-132.813
 20
165.946
 11
-133.088
 21
165.688
  0
LINE
  8
0
 10
-133.088
 20
165.688
 11
-133.393
 21
165.467
  0
LINE
  8
0
 10
-133.393
 20
165.467
 11
-133.723
 21
165.286
  0
LINE
  8
0
 10
-133.723
 20
165.286
 11
-134.073
 21
165.147
  0
LINE
  8
0
 10
-134.073
 20
165.147
 11
-134.438
 21
165.053
  0
LINE
  8
0
 10
-134.438
 20
165.053
 11
-134.812
 21
165.006
  0
LINE
  8
0
 10
-134.812
 20
165.006
 11
-135.188
 21
165.006
  0
LINE
  8
0
 10
137.937
 20
137.089
 11
138.545
 21
137.245
  0
LINE
  8
0
 10
138.545
 20
137.245
 11
139.129
 21
137.476
  0
LINE
  8
0
 10
139.129
 20
137.476
 11
139.679
 21
137.778
  0
LINE
  8
0
 10
139.679
 20
137.778
 11
140.187
 21
138.147
  0
LINE
  8
0
 10
140.187
 20
138.147
 11
140.645
 21
138.577
  0
LINE
  8
0
 10
140.645
 20
138.577
 11
141.045
 21
139.061
  0
LINE
  8
0
 10
141.045
 20
139.061
 11
141.382
 21
139.591
  0
LINE
  8
0
 10
141.382
 20
139.591
 11
141.649
 21
140.159
  0
LINE
  8
0
 10
141.649
 20
140.159
 11
141.843
 21
140.757
  0
LINE
  8
0
 10
141.843
 20
140.757
 11
141.961
 21
141.373
  0
LINE
  8
0
 10
141.961
 20
141.373
 11
142
 21
142
  0
LINE
  8
0
 10
142
 20
142
 11
142
 21
146
  0
LINE
  8
0
 10
142
 20
146
 11
141.961
 21
146.627
  0
LINE
  8
0
 10
141.961
 20
146.627
 11
141.843
 21
147.243
  0
LINE
  8
0
 10
141.843
 20
147.243
 11
141.649
 21
147.841
  0
LINE
  8
0
 10
141.649
 20
147.841
 11
141.382
 21
148.409
  0
LINE
  8
0
 10
141.382
 20
148.409
 11
141.045
 21
148.939
  0
LINE
  8
0
 10
141.045
 20
148.939
 11
140.645
 21
149.423
  0
LINE
  8
0
 10
140.645
 20
149.423
 11
140.187
 21
149.853
  0
LINE
  8
0
 10
140.187
 20
149.853
 11
139.679
 21
150.222
  0
LINE
  8
0
 10
139.679
 20
150.222
 11
139.129
 21
150.524
  0
LINE
  8
0
 10
139.129
 20
150.524
 11
138.545
 21
150.755
  0
LINE
  8
0
 10
138.545
 20
150.755
 11
137.937
 21
150.911
  0
LINE
  8
0
 10
137.937
 20
150.911
 11
137.314
 21
150.99
  0
LINE
  8
0
 10
137.314
 20
150.99
 11
-137.314
 21
150.99
  0
LINE
  8
0
 10
-137.314
 20
150.99
 11
-137.937
 21
150.911
  0
LINE
  8
0
 10
-137.937
 20
150.911
 11
-138.545
 21
150.755
  0
LINE
  8
0
 10
-138.545
 20
150.755
 11
-139.129
 21
150.524
  0
LINE
  8
0
 10
-139.129
 20
150.524
 11
-139.679
 21
150.222
  0
LINE
  8
0
 10
-139.679
 20
150.222
 11
-140.187
 21
149.853
  0
LINE
  8
0
 10
-140.187
 20
149.853
 11
-140.645
 21
149.423
  0
LINE
  8
0
 10
-140.645
 20
149.423
 11
-141.045
 21
148.939
  0
LINE
  8
0
 10
-141.045
 20
148.939
 11
-141.382
 21
148.409
  0
LINE
  8
0
 10
-141.382
 20
148.409
 11
-141.649
 21
147.841
  0
LINE
  8
0
 10
-141.649
 20
147.841
 11
-141.843
 21
147.243
  0
LINE
  8
0
 10
-141.843
 20
147.243
 11
-141.961
 21
146.627
  0
LINE
  8
0
 10
-141.961
 20
146.627
 11
-142
 21
146
  0
LINE
  8
0
 10
-142
 20
146
 11
-142
 21
142
  0
LINE
  8
0
 10
-142
 20
142
 11
-141.961
 21
141.373
  0
LINE
  8
0
 10
-141.961
 20
141.373
 11
-141.843
 21
140.757
  0
LINE
  8
0
 10
-141.843
 20
140.757
 11
-141.649
 21
140.159
  0
LINE
  8
0
 10
-141.649
 20
140.159
 11
-141.382
 21
139.591
  0
LINE
  8
0
 10
-141.382
 20
139.591
 11
-141.045
 21
139.061
  0
LINE
  8
0
 10
-141.045
 20
139.061
 11
-140.645
 21
138.577
  0
LINE
  8
0
 10
-140.645
 20
138.577
 11
-140.187
 21
138.147
  0
LINE
  8
0
 10
-140.187
 20
138.147
 11
-139.679
 21
137.778
  0
LINE
  8
0
 10
-139.679
 20
137.778
 11
-139.129
 21
137.476
  0
LINE
  8
0
 10
-139.129
 20
137.476
 11
-138.545
 21
137.245
  0
LINE
  8
0
 10
-138.545
 20
137.245
 11
-137.937
 21
137.089
  0
LINE
  8
0
 10
-137.937
 20
137.089
 11
-137.314
 21
137.01
  0
LINE
  8
0
 10
-137.314
 20
137.01
 11
137.314
 21
137.01
  0
LINE
  8
0
 10
137.314
 20
137.01
 11
137.937
 21
137.089
  0
LINE
  8
0
 10
134.812
 20
141.006
 11
134.438
 21
141.053
  0
LINE
  8
0
 10
134.438
 20
141.053
 11
134.073
 21
141.147
  0
LINE
  8
0
 10
134.073
 20
141.147
 11
133.723
 21
141.286
  0
LINE
  8
0
 10
133.723
 20
141.286
 11
133.393
 21
141.467
  0
LINE
  8
0
 10
133.393
 20
141.467
 11
133.088
 21
141.688
  0
LINE
  8
0
 10
133.088
 20
141.688
 11
132.813
 21
141.946
  0
LINE
  8
0
 10
132.813
 20
141.946
 11
132.573
 21
142.237
  0
LINE
  8
0
 10
132.573
 20
142.237
 11
132.371
 21
142.555
  0
LINE
  8
0
 10
132.371
 20
142.555
 11
132.211
 21
142.896
  0
LINE
  8
0
 10
132.211
 20
142.896
 11
132.094
 21
143.254
  0
LINE
  8
0
 10
132.094
 20
143.254
 11
132.024
 21
143.624
  0
LINE
  8
0
 10
132.024
 20
143.624
 11
132
 21
144
  0
LINE
  8
0
 10
132
 20
144
 11
132.024
 21
144.376
  0
LINE
  8
0
 10
132.024
 20
144.376
 11
132.094
 21
144.746
  0
LINE
  8
0
 10
132.094
 20
144.746
 11
132.211
 21
145.104
  0
LINE
  8
0
 10
132.211
 20
145.104
 11
132.371
 21
145.445
  0
LINE
  8
0
 10
132.371
 20
145.445
 11
132.573
 21
145.763
  0
LINE
  8
0
 10
132.573
 20
145.763
 11
132.813
 21
146.054
  0
LINE
  8
0
 10
132.813
 20
146.054
 11
133.088
 21
146.312
  0
LINE
  8
0
 10
133.088
 20
146.312
 11
133.393
 21
146.533
  0
LINE
  8
0
 10
133.393
 20
146.533
 11
133.723
 21
146.714
  0
LINE
  8
0
 10
133.723
 20
146.714
 11
134.073
 21
146.853
  0
LINE
  8
0
 10
134.073
 20
146.853
 11
134.438
 21
146.947
  0
LINE
  8
0
 10
134.438
 20
146.947
 11
134.812
 21
146.994
  0
LINE
  8
0
 10
134.812
 20
146.994
 11
135.188
 21
146.994
  0
LINE
  8
0
 10
135.188
 20
146.994
 11
135.562
 21
146.947
  0
LINE
  8
0
 10
135.562
 20
146.947
 11
135.927
 21
146.853
  0
LINE
  8
0
 10
135.927
 20
146.853
 11
136.277
 21
146.714
  0
LINE
  8
0
 10
136.277
 20
146.714
 11
136.607
 21
146.533
  0
LINE
  8
0
 10
136.607
 20
146.533
 11
136.912
 21
146.312
  0
LINE
  8
0
 10
136.912
 20
146.312
 11
137.187
 21
146.054
  0
LINE
  8
0
 10
137.187
 20
146.054
 11
137.427
 21
145.763
  0
LINE
  8
0
 10
137.427
 20
145.763
 11
137.629
 21
145.445
  0
LINE
  8
0
 10
137.629
 20
145.445
 11
137.789
 21
145.104
  0
LINE
  8
0
 10
137.789
 20
145.104
 11
137.906
 21
144.746
  0
LINE
  8
0
 10
137.906
 20
144.746
 11
137.976
 21
144.376
  0
LINE
  8
0
 10
137.976
 20
144.376
 11
138
 21
144
  0
LINE
  8
0
 10
138
 20
144
 11
137.976
 21
143.624
  0
LINE
  8
0
 10
137.976
 20
143.624
 11
137.906
 21
143.254
  0
LINE
  8
0
 10
137.906
 20
143.254
 11
137.789
 21
142.896
  0
LINE
  8
0
 10
137.789
 20
142.896
 11
137.629
 21
142.555
  0
LINE
  8
0
 10
137.629
 20
142.555
 11
137.427
 21
142.237
  0
LINE
  8
0
 10
137.427
 20
142.237
 11
137.187
 21
141.946
  0
LINE
  8
0
 10
137.187
 20
141.946
 11
136.912
 21
141.688
  0
LINE
  8
0
 10
136.912
 20
141.688
 11
136.607
 21
141.467
  0
LINE
  8
0
 10
136.607
 20
141.467
 11
136.277
 21
141.286
  0
LINE
  8
0
 10
136.277
 20
141.286
 11
135.927
 21
141.147
  0
LINE
  8
0
 10
135.927
 20
141.147
 11
135.562
 21
141.053
  0
LINE
  8
0
 10
135.562
 20
141.053
 11
135.188
 21
141.006
  0
LINE
  8
0
 10
135.188
 20
141.006
 11
134.812
 21
141.006
  0
LINE
  8
0
 10
-135.188
 20
141.006
 11
-135.562
 21
141.053
  0
LINE
  8
0
 10
-135.562
 20
141.053
 11
-135.927
 21
141.147
  0
LINE
  8
0
 10
-135.927
 20
141.147
 11
-136.277
 21
141.286
  0
LINE
  8
0
 10
-136.277
 20
141.286
 11
-136.607
 21
141.467
  0
LINE
  8
0
 10
-136.607
 20
141.467
 11
-136.912
 21
141.688
  0
LINE
  8
0
 10
-136.912
 20
141.688
 11
-137.187
 21
141.946
  0
LINE
  8
0
 10
-137.187
 20
141.946
 11
-137.427
 21
142.237
  0
LINE
  8
0
 10
-137.427
 20
142.237
 11
-137.629
 21
142.555
  0
LINE
  8
0
 10
-137.629
 20
142.555
 11
-137.789
 21
142.896
  0
LINE
  8
0
 10
-137.789
 20
142.896
 11
-137.906
 21
143.254
  0
LINE
  8
0
 10
-137.906
 20
143.254
 11
-137.976
 21
143.624
  0
LINE
  8
0
 10
-137.976
 20
143.624
 11
-138
 21
144
  0
LINE
  8
0
 10
-138
 20
144
 11
-137.976
 21
144.376
  0
LINE
  8
0
 10
-137.976
 20
144.376
 11
-137.906
 21
144.746
  0
LINE
  8
0
 10
-137.906
 20
144.746
 11
-137.789
 21
145.104
  0
LINE
  8
0
 10
-137.789
 20
145.104
 11
-137.629
 21
145.445
  0
LINE
  8
0
 10
-137.629
 20
145.445
 11
-137.427
 21
145.763
  0
LINE
  8
0
 10
-137.427
 20
145.763
 11
-137.187
 21
146.054
  0
LINE
  8
0
 10
-137.187
 20
146.054
 11
-136.912
 21
146.312
  0
LINE
  8
0
 10
-136.912
 20
146.312
 11
-136.607
 21
146.533
  0
LINE
  8
0
 10
-136.607
 20
146.533
 11
-136.277
 21
146.714
  0
LINE
  8
0
 10
-136.277
 20
146.714
 11
-135.927
 21
146.853
  0
LINE
  8
0
 10
-135.927
 20
146.853
 11
-135.562
 21
146.947
  0
LINE
  8
0
 10
-135.562
 20
146.947
 11
-135.188
 21
146.994
  0
LINE
  8
0
 10
-135.188
 20
146.994
 11
-134.812
 21
146.994
  0
LINE
  8
0
 10
-134.812
 20
146.994
 11
-134.438
 21
146.947
  0
LINE
  8
0
 10
-134.438
 20
146.947
 11
-134.073
 21
146.853
  0
LINE
  8
0
 10
-134.073
 20
146.853
 11
-133.723
 21
146.714
  0
LINE
  8
0
 10
-133.723
 20
146.714
 11
-133.393
 21
146.533
  0
LINE
  8
0
 10
-133.393
 20
146.533
 11
-133.088
 21
146.312
  0
LINE
  8
0
 10
-133.088
 20
146.312
 11
-132.813
 21
146.054
  0
LINE
  8
0
 10
-132.813
 20
146.054
 11
-132.573
 21
145.763
  0
LINE
  8
0
 10
-132.573
 20
145.763
 11
-132.371
 21
145.445
  0
LINE
  8
0
 10
-132.371
 20
145.445
 11
-132.211
 21
145.104
  0
LINE
  8
0
 10
-132.211
 20
145.104
 11
-132.094
 21
144.746
  0
LINE
  8
0
 10
-132.094
 20
144.746
 11
-132.024
 21
144.376
  0
LINE
  8
0
 10
-132.024
 20
144.376
 11
-132
 21
144
  0
LINE
  8
0
 10
-132
 20
144
 11
-132.024
 21
143.624
  0
LINE
  8
0
 10
-132.024
 20
143.624
 11
-132.094
 21
143.254
  0
LINE
  8
0
 10
-132.094
 20
143.254
 11
-132.211
 21
142.896
  0
LINE
  8
0
 10
-132.211
 20
142.896
 11
-132.371
 21
142.555
  0
LINE
  8
0
 10
-132.371
 20
142.555
 11
-132.573
 21
142.237
  0
LINE
  8
0
 10
-132.573
 20
142.237
 11
-132.813
 21
141.946
  0
LINE
  8
0
 10
-132.813
 20
141.946
 11
-133.088
 21
141.688
  0
LINE
  8
0
 10
-133.088
 20
141.688
 11
-133.393
 21
141.467
  0
LINE
  8
0
 10
-133.393
 20
141.467
 11
-133.723
 21
141.286
  0
LINE
  8
0
 10
-133.723
 20
141.286
 11
-134.073
 21
141.147
  0
LINE
  8
0
 10
-134.073
 20
141.147
 11
-134.438
 21
141.053
  0
LINE
  8
0
 10
-134.438
 20
141.053
 11
-134.812
 21
141.006
  0
LINE
  8
0
 10
-134.812
 20
141.006
 11
-135.188
 21
141.006
  0
LINE
  8
0
 10
137.937
 20
113.089
 11
138.545
 21
113.245
  0
LINE
  8
0
 10
138.545
 20
113.245
 11
139.129
 21
113.476
  0
LINE
  8
0
 10
139.129
 20
113.476
 11
139.679
 21
113.778
  0
LINE
  8
0
 10
139.679
 20
113.778
 11
140.187
 21
114.147
  0
LINE
  8
0
 10
140.187
 20
114.147
 11
140.645
 21
114.577
  0
LINE
  8
0
 10
140.645
 20
114.577
 11
141.045
 21
115.061
  0
LINE
  8
0
 10
141.045
 20
115.061
 11
141.382
 21
115.591
  0
LINE
  8
0
 10
141.382
 20
115.591
 11
141.649
 21
116.159
  0
LINE
  8
0
 10
141.649
 20
116.159
 11
141.843
 21
116.757
  0
LINE
  8
0
 10
141.843
 20
116.757
 11
141.961
 21
117.373
  0
LINE
  8
0
 10
141.961
 20
117.373
 11
142
 21
118
  0
LINE
  8
0
 10
142
 20
118
 11
142
 21
122
  0
LINE
  8
0
 10
142
 20
122
 11
141.961
 21
122.627
  0
LINE
  8
0
 10
141.961
 20
122.627
 11
141.843
 21
123.243
  0
LINE
  8
0
 10
141.843
 20
123.243
 11
141.649
 21
123.841
  0
LINE
  8
0
 10
141.649
 20
123.841
 11
141.382
 21
124.409
  0
LINE
  8
0
 10
141.382
 20
124.409
 11
141.045
 21
124.939
  0
LINE
  8
0
 10
141.045
 20
124.939
 11
140.645
 21
125.423
  0
LINE
  8
0
 10
140.645
 20
125.423
 11
140.187
 21
125.853
  0
LINE
  8
0
 10
140.187
 20
125.853
 11
139.679
 21
126.222
  0
LINE
  8
0
 10
139.679
 20
126.222
 11
139.129
 21
126.524
  0
LINE
  8
0
 10
139.129
 20
126.524
 11
138.545
 21
126.755
  0
LINE
  8
0
 10
138.545
 20
126.755
 11
137.937
 21
126.911
  0
LINE
  8
0
 10
137.937
 20
126.911
 11
137.314
 21
126.99
  0
LINE
  8
0
 10
137.314
 20
126.99
 11
-137.314
 21
126.99
  0
LINE
  8
0
 10
-137.314
 20
126.99
 11
-137.937
 21
126.911
  0
LINE
  8
0
 10
-137.937
 20
126.911
 11
-138.545
 21
126.755
  0
LINE
  8
0
 10
-138.545
 20
126.755
 11
-139.129
 21
126.524
  0
LINE
  8
0
 10
-139.129
 20
126.524
 11
-139.679
 21
126.222
  0
LINE
  8
0
 10
-139.679
 20
126.222
 11
-140.187
 21
125.853
  0
LINE
  8
0
 10
-140.187
 20
125.853
 11
-140.645
 21
125.423
  0
LINE
  8
0
 10
-140.645
 20
125.423
 11
-141.045
 21
124.939
  0
LINE
  8
0
 10
-141.045
 20
124.939
 11
-141.382
 21
124.409
  0
LINE
  8
0
 10
-141.382
 20
124.409
 11
-141.649
 21
123.841
  0
LINE
  8
0
 10
-141.649
 20
123.841
 11
-141.843
 21
123.243
  0
LINE
  8
0
 10
-141.843
 20
123.243
 11
-141.961
 21
122.627
  0
LINE
  8
0
 10
-141.961
 20
122.627
 11
-142
 21
122
  0
LINE
  8
0
 10
-142
 20
122
 11
-142
 21
118
  0
LINE
  8
0
 10
-142
 20
118
 11
-141.961
 21
117.373
  0
LINE
  8
0
 10
-141.961
 20
117.373
 11
-141.843
 21
116.757
  0
LINE
  8
0
 10
-141.843
 20
116.757
 11
-141.649
 21
116.159
  0
LINE
  8
0
 10
-141.649
 20
116.159
 11
-141.382
 21
115.591
  0
LINE
  8
0
 10
-141.382
 20
115.591
 11
-141.045
 21
115.061
  0
LINE
  8
0
 10
-141.045
 20
115.061
 11
-140.645
 21
114.577
  0
LINE
  8
0
 10
-140.645
 20
114.577
 11
-140.187
 21
114.147
  0
LINE
  8
0
 10
-140.187
 20
114.147
 11
-139.679
 21
113.778
  0
LINE
  8
0
 10
-139.679
 20
113.778
 11
-139.129
 21
113.476
  0
LINE
  8
0
 10
-139.129
 20
113.476
 11
-138.545
 21
113.245
  0
LINE
  8
0
 10
-138.545
 20
113.245
 11
-137.937
 21
113.089
  0
LINE
  8
0
 10
-137.937
 20
113.089
 11
-137.314
 21
113.01
  0
LINE
  8
0
 10
-137.314
 20
113.01
 11
137.314
 21
113.01
  0
LINE
  8
0
 10
137.314
 20
113.01
 11
137.937
 21
113.089
  0
LINE
  8
0
 10
134.812
 20
117.006
 11
134.438
 21
117.053
  0
LINE
  8
0
 10
134.438
 20
117.053
 11
134.073
 21
117.147
  0
LINE
  8
0
 10
134.073
 20
117.147
 11
133.723
 21
117.286
  0
LINE
  8
0
 10
133.723
 20
117.286
 11
133.393
 21
117.467
  0
LINE
  8
0
 10
133.393
 20
117.467
 11
133.088
 21
117.688
  0
LINE
  8
0
 10
133.088
 20
117.688
 11
132.813
 21
117.946
  0
LINE
  8
0
 10
132.813
 20
117.946
 11
132.573
 21
118.237
  0
LINE
  8
0
 10
132.573
 20
118.237
 11
132.371
 21
118.555
  0
LINE
  8
0
 10
132.371
 20
118.555
 11
132.211
 21
118.896
  0
LINE
  8
0
 10
132.211
 20
118.896
 11
132.094
 21
119.254
  0
LINE
  8
0
 10
132.094
 20
119.254
 11
132.024
 21
119.624
  0
LINE
  8
0
 10
132.024
 20
119.624
 11
132
 21
120
  0
LINE
  8
0
 10
132
 20
120
 11
132.024
 21
120.376
  0
LINE
  8
0
 10
132.024
 20
120.376
 11
132.094
 21
120.746
  0
LINE
  8
0
 10
132.094
 20
120.746
 11
132.211
 21
121.104
  0
LINE
  8
0
 10
132.211
 20
121.104
 11
132.371
 21
121.445
  0
LINE
  8
0
 10
132.371
 20
121.445
 11
132.573
 21
121.763
  0
LINE
  8
0
 10
132.573
 20
121.763
 11
132.813
 21
122.054
  0
LINE
  8
0
 10
132.813
 20
122.054
 11
133.088
 21
122.312
  0
LINE
  8
0
 10
133.088
 20
122.312
 11
133.393
 21
122.533
  0
LINE
  8
0
 10
133.393
 20
122.533
 11
133.723
 21
122.714
  0
LINE
  8
0
 10
133.723
 20
122.714
 11
134.073
 21
122.853
  0
LINE
  8
0
 10
134.073
 20
122.853
 11
134.438
 21
122.947
  0
LINE
  8
0
 10
134.438
 20
122.947
 11
134.812
 21
122.994
  0
LINE
  8
0
 10
134.812
 20
122.994
 11
135.188
 21
122.994
  0
LINE
  8
0
 10
135.188
 20
122.994
 11
135.562
 21
122.947
  0
LINE
  8
0
 10
135.562
 20
122.947
 11
135.927
 21
122.853
  0
LINE
  8
0
 10
135.927
 20
122.853
 11
136.277
 21
122.714
  0
LINE
  8
0
 10
136.277
 20
122.714
 11
136.607
 21
122.533
  0
LINE
  8
0
 10
136.607
 20
122.533
 11
136.912
 21
122.312
  0
LINE
  8
0
 10
136.912
 20
122.312
 11
137.187
 21
122.054
  0
LINE
  8
0
 10
137.187
 20
122.054
 11
137.427
 21
121.763
  0
LINE
  8
0
 10
137.427
 20
121.763
 11
137.629
 21
121.445
  0
LINE
  8
0
 10
137.629
 20
121.445
 11
137.789
 21
121.104
  0
LINE
  8
0
 10
137.789
 20
121.104
 11
137.906
 21
120.746
  0
LINE
  8
0
 10
137.906
 20
120.746
 11
137.976
 21
120.376
  0
LINE
  8
0
 10
137.976
 20
120.376
 11
138
 21
120
  0
LINE
  8
0
 10
138
 20
120
 11
137.976
 21
119.624
  0
LINE
  8
0
 10
137.976
 20
119.624
 11
137.906
 21
119.254
  0
LINE
  8
0
 10
137.906
 20
119.254
 11
137.789
 21
118.896
  0
LINE
  8
0
 10
137.789
 20
118.896
 11
137.629
 21
118.555
  0
LINE
  8
0
 10
137.629
 20
118.555
 11
137.427
 21
118.237
  0
LINE
  8
0
 10
137.427
 20
118.237
 11
137.187
 21
117.946
  0
LINE
  8
0
 10
137.187
 20
117.946
 11
136.912
 21
117.688
  0
LINE
  8
0
 10
136.912
 20
117.688
 11
136.607
 21
117.467
  0
LINE
  8
0
 10
136.607
 20
117.467
 11
136.277
 21
117.286
  0
LINE
  8
0
 10
136.277
 20
117.286
 11
135.927
 21
117.147
  0
LINE
  8
0
 10
135.927
 20
117.147
 11
135.562
 21
117.053
  0
LINE
  8
0
 10
135.562
 20
117.053
 11
135.188
 21
117.006
  0
LINE
  8
0
 10
135.188
 20
117.006
 11
134.812
 21
117.006
  0
LINE
  8
0
 10
-135.188
 20
117.006
 11
-135.562
 21
117.053
  0
LINE
  8
0
 10
-135.562
 20
117.053
 11
-135.927
 21
117.147
  0
LINE
  8
0
 10
-135.927
 20
117.147
 11
-136.277
 21
117.286
  0
LINE
  8
0
 10
-136.277
 20
117.286
 11
-136.607
 21
117.467
  0
LINE
  8
0
 10
-136.607
 20
117.467
 11
-136.912
 21
117.688
  0
LINE
  8
0
 10
-136.912
 20
117.688
 11
-137.187
 21
117.946
  0
LINE
  8
0
 10
-137.187
 20
117.946
 11
-137.427
 21
118.237
  0
LINE
  8
0
 10
-137.427
 20
118.237
 11
-137.629
 21
118.555
  0
LINE
  8
0
 10
-137.629
 20
118.555
 11
-137.789
 21
118.896
  0
LINE
  8
0
 10
-137.789
 20
118.896
 11
-137.906
 21
119.254
  0
LINE
  8
0
 10
-137.906
 20
119.254
 11
-137.976
 21
119.624
  0
LINE
  8
0
 10
-137.976
 20
119.624
 11
-138
 21
120
  0
LINE
  8
0
 10
-138
 20
120
 11
-137.976
 21
120.376
  0
LINE
  8
0
 10
-137.976
 20
120.376
 11
-137.906
 21
120.746
  0
LINE
  8
0
 10
-137.906
 20
120.746
 11
-137.789
 21
121.104
  0
LINE
  8
0
 10
-137.789
 20
121.104
 11
-137.629
 21
121.445
  0
LINE
  8
0
 10
-137.629
 20
121.445
 11
-137.427
 21
121.763
  0
LINE
  8
0
 10
-137.427
 20
121.763
 11
-137.187
 21
122.054
  0
LINE
  8
0
 10
-137.187
 20
122.054
 11
-136.912
 21
122.312
  0
LINE
  8
0
 10
-136.912
 20
122.312
 11
-136.607
 21
122.533
  0
LINE
  8
0
 10
-136.607
 20
122.533
 11
-136.277
 21
122.714
  0
LINE
  8
0
 10
-136.277
 20
122.714
 11
-135.927
 21
122.853
  0
LINE
  8
0
 10
-135.927
 20
122.853
 11
-135.562
 21
122.947
  0
LINE
  8
0
 10
-135.562
 20
122.947
 11
-135.188
 21
122.994
  0
LINE
  8
0
 10
-135.188
 20
122.994
 11
-134.812
 21
122.994
  0
LINE
  8
0
 10
-134.812
 20
122.994
 11
-134.438
 21
122.947
  0
LINE
  8
0
 10
-134.438
 20
122.947
 11
-134.073
 21
122.853
  0
LINE
  8
0
 10
-134.073
 20
122.853
 11
-133.723
 21
122.714
  0
LINE
  8
0
 10
-133.723
 20
122.714
 11
-133.393
 21
122.533
  0
LINE
  8
0
 10
-133.393
 20
122.533
 11
-133.088
 21
122.312
  0
LINE
  8
0
 10
-133.088
 20
122.312
 11
-132.813
 21
122.054
  0
LINE
  8
0
 10
-132.813
 20
122.054
 11
-132.573
 21
121.763
  0
LINE
  8
0
 10
-132.573
 20
121.763
 11
-132.371
 21
121.445
  0
LINE
  8
0
 10
-132.371
 20
121.445
 11
-132.211
 21
121.104
  0
LINE
  8
0
 10
-132.211
 20
121.104
 11
-132.094
 21
120.746
  0
LINE
  8
0
 10
-132.094
 20
120.746
 11
-132.024
 21
120.376
  0
LINE
  8
0
 10
-132.024
 20
120.376
 11
-132
 21
120
  0
LINE
  8
0
 10
-132
 20
120
 11
-132.024
 21
119.624
  0
LINE
  8
0
 10
-132.024
 20
119.624
 11
-132.094
 21
119.254
  0
LINE
  8
0
 10
-132.094
 20
119.254
 11
-132.211
 21
118.896
  0
LINE
  8
0
 10
-132.211
 20
118.896
 11
-132.371
 21
118.555
  0
LINE
  8
0
 10
-132.371
 20
118.555
 11
-132.573
 21
118.237
  0
LINE
  8
0
 10
-132.573
 20
118.237
 11
-132.813
 21
117.946
  0
LINE
  8
0
 10
-132.813
 20
117.946
 11
-133.088
 21
117.688
  0
LINE
  8
0
 10
-133.088
 20
117.688
 11
-133.393
 21
117.467
  0
LINE
  8
0
 10
-133.393
 20
117.467
 11
-133.723
 21
117.286
  0
LINE
  8
0
 10
-133.723
 20
117.286
 11
-134.073
 21
117.147
  0
LINE
  8
0
 10
-134.073
 20
117.147
 11
-134.438
 21
117.053
  0
LINE
  8
0
 10
-134.438
 20
117.053
 11
-134.812
 21
117.006
  0
LINE
  8
0
 10
-134.812
 20
117.006
 11
-135.188
 21
117.006
  0
ENDSEC
  0
SECTION
  2
OBJECTS
  0
DICTIONARY
  0
ENDSEC
  0
EOF
