solid OpenSCAD_Model
  facet normal -0.997969 -0.0637003 0
    outer loop
      vertex -229.5 0 0
      vertex -229.524 0.375999 6
      vertex -229.524 0.375999 0
    endloop
  endfacet
  facet normal -0.997969 -0.0637003 0
    outer loop
      vertex -229.524 0.375999 6
      vertex -229.5 0 0
      vertex -229.5 0 6
    endloop
  endfacet
  facet normal 0.997969 -0.0637003 0
    outer loop
      vertex -235.5 0 6
      vertex -235.476 0.375999 0
      vertex -235.476 0.375999 6
    endloop
  endfacet
  facet normal 0.997969 -0.0637003 0
    outer loop
      vertex -235.476 0.375999 0
      vertex -235.5 0 6
      vertex -235.5 0 0
    endloop
  endfacet
  facet normal 0 -1 0
    outer loop
      vertex -232.688 2.99408 0
      vertex -232.312 2.99408 6
      vertex -232.688 2.99408 6
    endloop
  endfacet
  facet normal 0 -1 -0
    outer loop
      vertex -232.312 2.99408 6
      vertex -232.688 2.99408 0
      vertex -232.312 2.99408 0
    endloop
  endfacet
  facet normal 0 1 -0
    outer loop
      vertex -232.312 -2.99408 0
      vertex -232.688 -2.99408 6
      vertex -232.312 -2.99408 6
    endloop
  endfacet
  facet normal 0 1 0
    outer loop
      vertex -232.688 -2.99408 6
      vertex -232.312 -2.99408 0
      vertex -232.688 -2.99408 0
    endloop
  endfacet
  facet normal -0.684065 -0.729421 0
    outer loop
      vertex -230.588 2.31154 0
      vertex -230.313 2.05364 6
      vertex -230.588 2.31154 6
    endloop
  endfacet
  facet normal -0.684065 -0.729421 -0
    outer loop
      vertex -230.313 2.05364 6
      vertex -230.588 2.31154 0
      vertex -230.313 2.05364 0
    endloop
  endfacet
  facet normal 0.684065 -0.729421 0
    outer loop
      vertex -234.687 2.05364 0
      vertex -234.412 2.31154 6
      vertex -234.687 2.05364 6
    endloop
  endfacet
  facet normal 0.684065 -0.729421 0
    outer loop
      vertex -234.412 2.31154 6
      vertex -234.687 2.05364 0
      vertex -234.412 2.31154 0
    endloop
  endfacet
  facet normal 0.368389 -0.929672 0
    outer loop
      vertex -233.777 2.71448 0
      vertex -233.427 2.85317 6
      vertex -233.777 2.71448 6
    endloop
  endfacet
  facet normal 0.368389 -0.929672 0
    outer loop
      vertex -233.427 2.85317 6
      vertex -233.777 2.71448 0
      vertex -233.427 2.85317 0
    endloop
  endfacet
  facet normal -0.905247 -0.424886 0
    outer loop
      vertex -229.711 1.10437 0
      vertex -229.871 1.44526 6
      vertex -229.871 1.44526 0
    endloop
  endfacet
  facet normal -0.905247 -0.424886 0
    outer loop
      vertex -229.871 1.44526 6
      vertex -229.711 1.10437 0
      vertex -229.711 1.10437 6
    endloop
  endfacet
  facet normal -0.982577 -0.185858 0
    outer loop
      vertex -229.524 0.375999 0
      vertex -229.594 0.746069 6
      vertex -229.594 0.746069 0
    endloop
  endfacet
  facet normal -0.982577 -0.185858 0
    outer loop
      vertex -229.594 0.746069 6
      vertex -229.524 0.375999 0
      vertex -229.524 0.375999 6
    endloop
  endfacet
  facet normal -0.368389 -0.929672 0
    outer loop
      vertex -231.573 2.85317 0
      vertex -231.223 2.71448 6
      vertex -231.573 2.85317 6
    endloop
  endfacet
  facet normal -0.368389 -0.929672 -0
    outer loop
      vertex -231.223 2.71448 6
      vertex -231.573 2.85317 0
      vertex -231.223 2.71448 0
    endloop
  endfacet
  facet normal -0.587515 -0.809213 0
    outer loop
      vertex -230.893 2.53298 0
      vertex -230.588 2.31154 6
      vertex -230.893 2.53298 6
    endloop
  endfacet
  facet normal -0.587515 -0.809213 -0
    outer loop
      vertex -230.588 2.31154 6
      vertex -230.893 2.53298 0
      vertex -230.588 2.31154 0
    endloop
  endfacet
  facet normal 0.905247 -0.424886 0
    outer loop
      vertex -235.289 1.10437 6
      vertex -235.129 1.44526 0
      vertex -235.129 1.44526 6
    endloop
  endfacet
  facet normal 0.905247 -0.424886 0
    outer loop
      vertex -235.129 1.44526 0
      vertex -235.289 1.10437 6
      vertex -235.289 1.10437 0
    endloop
  endfacet
  facet normal 0.950603 -0.310411 0
    outer loop
      vertex -235.406 0.746069 6
      vertex -235.289 1.10437 0
      vertex -235.289 1.10437 6
    endloop
  endfacet
  facet normal 0.950603 -0.310411 0
    outer loop
      vertex -235.289 1.10437 0
      vertex -235.406 0.746069 6
      vertex -235.406 0.746069 0
    endloop
  endfacet
  facet normal 0.248625 -0.9686 0
    outer loop
      vertex -233.427 2.85317 0
      vertex -233.062 2.94686 6
      vertex -233.427 2.85317 6
    endloop
  endfacet
  facet normal 0.248625 -0.9686 0
    outer loop
      vertex -233.062 2.94686 6
      vertex -233.427 2.85317 0
      vertex -233.062 2.94686 0
    endloop
  endfacet
  facet normal -0.368389 0.929672 0
    outer loop
      vertex -231.223 -2.71448 0
      vertex -231.573 -2.85317 6
      vertex -231.223 -2.71448 6
    endloop
  endfacet
  facet normal -0.368389 0.929672 0
    outer loop
      vertex -231.573 -2.85317 6
      vertex -231.223 -2.71448 0
      vertex -231.573 -2.85317 0
    endloop
  endfacet
  facet normal -0.950603 -0.310411 0
    outer loop
      vertex -229.594 0.746069 0
      vertex -229.711 1.10437 6
      vertex -229.711 1.10437 0
    endloop
  endfacet
  facet normal -0.950603 -0.310411 0
    outer loop
      vertex -229.711 1.10437 6
      vertex -229.594 0.746069 0
      vertex -229.594 0.746069 6
    endloop
  endfacet
  facet normal -0.770696 -0.637202 0
    outer loop
      vertex -230.073 1.76336 0
      vertex -230.313 2.05364 6
      vertex -230.313 2.05364 0
    endloop
  endfacet
  facet normal -0.770696 -0.637202 0
    outer loop
      vertex -230.313 2.05364 6
      vertex -230.073 1.76336 0
      vertex -230.073 1.76336 6
    endloop
  endfacet
  facet normal -0.844175 -0.536068 0
    outer loop
      vertex -229.871 1.44526 0
      vertex -230.073 1.76336 6
      vertex -230.073 1.76336 0
    endloop
  endfacet
  facet normal -0.844175 -0.536068 0
    outer loop
      vertex -230.073 1.76336 6
      vertex -229.871 1.44526 0
      vertex -229.871 1.44526 6
    endloop
  endfacet
  facet normal -0.248625 -0.9686 0
    outer loop
      vertex -231.938 2.94686 0
      vertex -231.573 2.85317 6
      vertex -231.938 2.94686 6
    endloop
  endfacet
  facet normal -0.248625 -0.9686 -0
    outer loop
      vertex -231.573 2.85317 6
      vertex -231.938 2.94686 0
      vertex -231.573 2.85317 0
    endloop
  endfacet
  facet normal -0.125262 -0.992124 0
    outer loop
      vertex -232.312 2.99408 0
      vertex -231.938 2.94686 6
      vertex -232.312 2.99408 6
    endloop
  endfacet
  facet normal -0.125262 -0.992124 -0
    outer loop
      vertex -231.938 2.94686 6
      vertex -232.312 2.99408 0
      vertex -231.938 2.94686 0
    endloop
  endfacet
  facet normal -0.481919 -0.876216 0
    outer loop
      vertex -231.223 2.71448 0
      vertex -230.893 2.53298 6
      vertex -231.223 2.71448 6
    endloop
  endfacet
  facet normal -0.481919 -0.876216 -0
    outer loop
      vertex -230.893 2.53298 6
      vertex -231.223 2.71448 0
      vertex -230.893 2.53298 0
    endloop
  endfacet
  facet normal 0.844175 -0.536068 0
    outer loop
      vertex -235.129 1.44526 6
      vertex -234.927 1.76336 0
      vertex -234.927 1.76336 6
    endloop
  endfacet
  facet normal 0.844175 -0.536068 0
    outer loop
      vertex -234.927 1.76336 0
      vertex -235.129 1.44526 6
      vertex -235.129 1.44526 0
    endloop
  endfacet
  facet normal 0.770696 -0.637202 0
    outer loop
      vertex -234.927 1.76336 6
      vertex -234.687 2.05364 0
      vertex -234.687 2.05364 6
    endloop
  endfacet
  facet normal 0.770696 -0.637202 0
    outer loop
      vertex -234.687 2.05364 0
      vertex -234.927 1.76336 6
      vertex -234.927 1.76336 0
    endloop
  endfacet
  facet normal 0.982577 -0.185858 0
    outer loop
      vertex -235.476 0.375999 6
      vertex -235.406 0.746069 0
      vertex -235.406 0.746069 6
    endloop
  endfacet
  facet normal 0.982577 -0.185858 0
    outer loop
      vertex -235.406 0.746069 0
      vertex -235.476 0.375999 6
      vertex -235.476 0.375999 0
    endloop
  endfacet
  facet normal 0 0 1
    outer loop
      vertex 235.289 1.10437 6
      vertex 239.5 2 6
      vertex 239.461 2.62667 6
    endloop
  endfacet
  facet normal 0 0 1
    outer loop
      vertex 239.5 2 6
      vertex 235.5 0 6
      vertex 239.5 -2 6
    endloop
  endfacet
  facet normal 0 0 1
    outer loop
      vertex 235.129 1.44526 6
      vertex 239.461 2.62667 6
      vertex 239.343 3.24345 6
    endloop
  endfacet
  facet normal -0 0 1
    outer loop
      vertex 235.476 -0.375999 6
      vertex 239.5 -2 6
      vertex 235.5 0 6
    endloop
  endfacet
  facet normal 0 0 1
    outer loop
      vertex 235.129 1.44526 6
      vertex 239.343 3.24345 6
      vertex 239.149 3.84062 6
    endloop
  endfacet
  facet normal -0 0 1
    outer loop
      vertex 235.406 -0.746069 6
      vertex 239.5 -2 6
      vertex 235.476 -0.375999 6
    endloop
  endfacet
  facet normal 0 0 1
    outer loop
      vertex 234.927 1.76336 6
      vertex 239.149 3.84062 6
      vertex 238.882 4.40877 6
    endloop
  endfacet
  facet normal -0 0 1
    outer loop
      vertex 235.289 -1.10437 6
      vertex 239.5 -2 6
      vertex 235.406 -0.746069 6
    endloop
  endfacet
  facet normal 0 0 1
    outer loop
      vertex 234.927 1.76336 6
      vertex 238.882 4.40877 6
      vertex 238.545 4.93893 6
    endloop
  endfacet
  facet normal 0 0 1
    outer loop
      vertex 239.5 -2 6
      vertex 235.289 -1.10437 6
      vertex 239.461 -2.62667 6
    endloop
  endfacet
  facet normal 0 0 1
    outer loop
      vertex 234.687 2.05364 6
      vertex 238.545 4.93893 6
      vertex 238.145 5.42274 6
    endloop
  endfacet
  facet normal -0 0 1
    outer loop
      vertex 235.129 -1.44526 6
      vertex 239.461 -2.62667 6
      vertex 235.289 -1.10437 6
    endloop
  endfacet
  facet normal 0 0 1
    outer loop
      vertex 234.687 2.05364 6
      vertex 238.145 5.42274 6
      vertex 237.687 5.85257 6
    endloop
  endfacet
  facet normal 0 0 1
    outer loop
      vertex 239.461 -2.62667 6
      vertex 235.129 -1.44526 6
      vertex 239.343 -3.24345 6
    endloop
  endfacet
  facet normal 0 0 1
    outer loop
      vertex 234.412 2.31154 6
      vertex 237.687 5.85257 6
      vertex 237.179 6.22164 6
    endloop
  endfacet
  facet normal 0 0 1
    outer loop
      vertex 239.343 -3.24345 6
      vertex 235.129 -1.44526 6
      vertex 239.149 -3.84062 6
    endloop
  endfacet
  facet normal 0 0 1
    outer loop
      vertex 234.412 2.31154 6
      vertex 237.179 6.22164 6
      vertex 236.629 6.52413 6
    endloop
  endfacet
  facet normal -0 0 1
    outer loop
      vertex 234.927 -1.76336 6
      vertex 239.149 -3.84062 6
      vertex 235.129 -1.44526 6
    endloop
  endfacet
  facet normal 0 0 1
    outer loop
      vertex 234.107 2.53298 6
      vertex 236.629 6.52413 6
      vertex 236.045 6.75528 6
    endloop
  endfacet
  facet normal 0 0 1
    outer loop
      vertex 239.149 -3.84062 6
      vertex 234.927 -1.76336 6
      vertex 238.882 -4.40877 6
    endloop
  endfacet
  facet normal 0 0 1
    outer loop
      vertex 238.882 -4.40877 6
      vertex 234.927 -1.76336 6
      vertex 238.545 -4.93893 6
    endloop
  endfacet
  facet normal 0 0 1
    outer loop
      vertex 239.5 2 6
      vertex 235.476 0.375999 6
      vertex 235.5 0 6
    endloop
  endfacet
  facet normal 0 0 1
    outer loop
      vertex 234.107 2.53298 6
      vertex 236.045 6.75528 6
      vertex 235.437 6.91144 6
    endloop
  endfacet
  facet normal 0 0 1
    outer loop
      vertex 239.5 2 6
      vertex 235.406 0.746069 6
      vertex 235.476 0.375999 6
    endloop
  endfacet
  facet normal 0 0 1
    outer loop
      vertex 239.5 2 6
      vertex 235.289 1.10437 6
      vertex 235.406 0.746069 6
    endloop
  endfacet
  facet normal 0 0 1
    outer loop
      vertex 239.461 2.62667 6
      vertex 235.129 1.44526 6
      vertex 235.289 1.10437 6
    endloop
  endfacet
  facet normal 0 0 1
    outer loop
      vertex 239.149 3.84062 6
      vertex 234.927 1.76336 6
      vertex 235.129 1.44526 6
    endloop
  endfacet
  facet normal 0 0 1
    outer loop
      vertex 233.777 2.71448 6
      vertex 235.437 6.91144 6
      vertex 234.814 6.99013 6
    endloop
  endfacet
  facet normal 0 0 1
    outer loop
      vertex 238.545 4.93893 6
      vertex 234.687 2.05364 6
      vertex 234.927 1.76336 6
    endloop
  endfacet
  facet normal 0 0 1
    outer loop
      vertex 237.687 5.85257 6
      vertex 234.412 2.31154 6
      vertex 234.687 2.05364 6
    endloop
  endfacet
  facet normal 0 0 1
    outer loop
      vertex 236.629 6.52413 6
      vertex 234.107 2.53298 6
      vertex 234.412 2.31154 6
    endloop
  endfacet
  facet normal 0 0 1
    outer loop
      vertex 235.437 6.91144 6
      vertex 233.777 2.71448 6
      vertex 234.107 2.53298 6
    endloop
  endfacet
  facet normal 0 0 1
    outer loop
      vertex 234.814 6.99013 6
      vertex 233.427 2.85317 6
      vertex 233.777 2.71448 6
    endloop
  endfacet
  facet normal 0 0 1
    outer loop
      vertex 234.814 6.99013 6
      vertex 233.062 2.94686 6
      vertex 233.427 2.85317 6
    endloop
  endfacet
  facet normal 0 0 1
    outer loop
      vertex 234.814 6.99013 6
      vertex 232.688 2.99408 6
      vertex 233.062 2.94686 6
    endloop
  endfacet
  facet normal 0 0 1
    outer loop
      vertex 234.814 6.99013 6
      vertex 232.312 2.99408 6
      vertex 232.688 2.99408 6
    endloop
  endfacet
  facet normal 0 0 1
    outer loop
      vertex 234.814 6.99013 6
      vertex 231.938 2.94686 6
      vertex 232.312 2.99408 6
    endloop
  endfacet
  facet normal 0 0 1
    outer loop
      vertex 234.814 6.99013 6
      vertex 231.573 2.85317 6
      vertex 231.938 2.94686 6
    endloop
  endfacet
  facet normal 0 0 1
    outer loop
      vertex 234.814 6.99013 6
      vertex 231.223 2.71448 6
      vertex 231.573 2.85317 6
    endloop
  endfacet
  facet normal 0 0 1
    outer loop
      vertex 234.814 6.99013 6
      vertex 230.893 2.53298 6
      vertex 231.223 2.71448 6
    endloop
  endfacet
  facet normal 0 0 1
    outer loop
      vertex 234.814 6.99013 6
      vertex 230.588 2.31154 6
      vertex 230.893 2.53298 6
    endloop
  endfacet
  facet normal 0 0 1
    outer loop
      vertex 234.814 6.99013 6
      vertex 230.313 2.05364 6
      vertex 230.588 2.31154 6
    endloop
  endfacet
  facet normal 0 0 1
    outer loop
      vertex 229.524 0.375999 6
      vertex -229.5 0 6
      vertex 229.5 0 6
    endloop
  endfacet
  facet normal 0 0 1
    outer loop
      vertex -229.524 0.375999 6
      vertex 229.524 0.375999 6
      vertex 229.594 0.746069 6
    endloop
  endfacet
  facet normal 0 0 1
    outer loop
      vertex -229.594 0.746069 6
      vertex 229.594 0.746069 6
      vertex 229.711 1.10437 6
    endloop
  endfacet
  facet normal 0 0 1
    outer loop
      vertex -229.711 1.10437 6
      vertex 229.711 1.10437 6
      vertex 229.871 1.44526 6
    endloop
  endfacet
  facet normal 0 0 1
    outer loop
      vertex -229.871 1.44526 6
      vertex 229.871 1.44526 6
      vertex 230.073 1.76336 6
    endloop
  endfacet
  facet normal 0 0 1
    outer loop
      vertex -230.073 1.76336 6
      vertex 230.073 1.76336 6
      vertex 230.313 2.05364 6
    endloop
  endfacet
  facet normal 0 0 1
    outer loop
      vertex -230.313 2.05364 6
      vertex 230.313 2.05364 6
      vertex 234.814 6.99013 6
    endloop
  endfacet
  facet normal 0 0 1
    outer loop
      vertex 229.524 0.375999 6
      vertex -229.524 0.375999 6
      vertex -229.5 0 6
    endloop
  endfacet
  facet normal 0 0 1
    outer loop
      vertex 229.594 0.746069 6
      vertex -229.594 0.746069 6
      vertex -229.524 0.375999 6
    endloop
  endfacet
  facet normal 0 0 1
    outer loop
      vertex 229.711 1.10437 6
      vertex -229.711 1.10437 6
      vertex -229.594 0.746069 6
    endloop
  endfacet
  facet normal 0 0 1
    outer loop
      vertex 229.871 1.44526 6
      vertex -229.871 1.44526 6
      vertex -229.711 1.10437 6
    endloop
  endfacet
  facet normal 0 0 1
    outer loop
      vertex 230.073 1.76336 6
      vertex -230.073 1.76336 6
      vertex -229.871 1.44526 6
    endloop
  endfacet
  facet normal 0 0 1
    outer loop
      vertex 230.313 2.05364 6
      vertex -230.313 2.05364 6
      vertex -230.073 1.76336 6
    endloop
  endfacet
  facet normal -0 0 1
    outer loop
      vertex -234.814 6.99013 6
      vertex -230.313 2.05364 6
      vertex 234.814 6.99013 6
    endloop
  endfacet
  facet normal 0 0 1
    outer loop
      vertex -230.313 2.05364 6
      vertex -234.814 6.99013 6
      vertex -230.588 2.31154 6
    endloop
  endfacet
  facet normal 0 0 1
    outer loop
      vertex -230.588 2.31154 6
      vertex -234.814 6.99013 6
      vertex -230.893 2.53298 6
    endloop
  endfacet
  facet normal 0 0 1
    outer loop
      vertex -230.893 2.53298 6
      vertex -234.814 6.99013 6
      vertex -231.223 2.71448 6
    endloop
  endfacet
  facet normal 0 0 1
    outer loop
      vertex -231.223 2.71448 6
      vertex -234.814 6.99013 6
      vertex -231.573 2.85317 6
    endloop
  endfacet
  facet normal 0 0 1
    outer loop
      vertex -231.573 2.85317 6
      vertex -234.814 6.99013 6
      vertex -231.938 2.94686 6
    endloop
  endfacet
  facet normal 0 0 1
    outer loop
      vertex -231.938 2.94686 6
      vertex -234.814 6.99013 6
      vertex -232.312 2.99408 6
    endloop
  endfacet
  facet normal 0 0 1
    outer loop
      vertex -232.312 2.99408 6
      vertex -234.814 6.99013 6
      vertex -232.688 2.99408 6
    endloop
  endfacet
  facet normal 0 0 1
    outer loop
      vertex -234.814 6.99013 6
      vertex -233.062 2.94686 6
      vertex -232.688 2.99408 6
    endloop
  endfacet
  facet normal 0 0 1
    outer loop
      vertex -234.814 6.99013 6
      vertex -233.427 2.85317 6
      vertex -233.062 2.94686 6
    endloop
  endfacet
  facet normal 0 0 1
    outer loop
      vertex -234.814 6.99013 6
      vertex -233.777 2.71448 6
      vertex -233.427 2.85317 6
    endloop
  endfacet
  facet normal -0 0 1
    outer loop
      vertex -235.437 6.91144 6
      vertex -233.777 2.71448 6
      vertex -234.814 6.99013 6
    endloop
  endfacet
  facet normal 0 0 1
    outer loop
      vertex -233.777 2.71448 6
      vertex -235.437 6.91144 6
      vertex -234.107 2.53298 6
    endloop
  endfacet
  facet normal -0 0 1
    outer loop
      vertex -236.045 6.75528 6
      vertex -234.107 2.53298 6
      vertex -235.437 6.91144 6
    endloop
  endfacet
  facet normal -0 0 1
    outer loop
      vertex -236.629 6.52413 6
      vertex -234.107 2.53298 6
      vertex -236.045 6.75528 6
    endloop
  endfacet
  facet normal 0 0 1
    outer loop
      vertex -234.107 2.53298 6
      vertex -236.629 6.52413 6
      vertex -234.412 2.31154 6
    endloop
  endfacet
  facet normal -0 0 1
    outer loop
      vertex -237.179 6.22164 6
      vertex -234.412 2.31154 6
      vertex -236.629 6.52413 6
    endloop
  endfacet
  facet normal -0 0 1
    outer loop
      vertex -237.687 5.85257 6
      vertex -234.412 2.31154 6
      vertex -237.179 6.22164 6
    endloop
  endfacet
  facet normal 0 0 1
    outer loop
      vertex -234.412 2.31154 6
      vertex -237.687 5.85257 6
      vertex -234.687 2.05364 6
    endloop
  endfacet
  facet normal -0 0 1
    outer loop
      vertex -238.145 5.42274 6
      vertex -234.687 2.05364 6
      vertex -237.687 5.85257 6
    endloop
  endfacet
  facet normal -0 0 1
    outer loop
      vertex -238.545 4.93893 6
      vertex -234.687 2.05364 6
      vertex -238.145 5.42274 6
    endloop
  endfacet
  facet normal 0 0 1
    outer loop
      vertex -234.687 2.05364 6
      vertex -238.545 4.93893 6
      vertex -234.927 1.76336 6
    endloop
  endfacet
  facet normal -0 0 1
    outer loop
      vertex 234.687 -2.05364 6
      vertex 238.545 -4.93893 6
      vertex 234.927 -1.76336 6
    endloop
  endfacet
  facet normal 0 0 1
    outer loop
      vertex 238.545 -4.93893 6
      vertex 234.687 -2.05364 6
      vertex 238.145 -5.42274 6
    endloop
  endfacet
  facet normal 0 0 1
    outer loop
      vertex 238.145 -5.42274 6
      vertex 234.687 -2.05364 6
      vertex 237.687 -5.85257 6
    endloop
  endfacet
  facet normal -0 0 1
    outer loop
      vertex 234.412 -2.31154 6
      vertex 237.687 -5.85257 6
      vertex 234.687 -2.05364 6
    endloop
  endfacet
  facet normal 0 0 1
    outer loop
      vertex 237.687 -5.85257 6
      vertex 234.412 -2.31154 6
      vertex 237.179 -6.22164 6
    endloop
  endfacet
  facet normal 0 0 1
    outer loop
      vertex 237.179 -6.22164 6
      vertex 234.412 -2.31154 6
      vertex 236.629 -6.52413 6
    endloop
  endfacet
  facet normal -0 0 1
    outer loop
      vertex 234.107 -2.53298 6
      vertex 236.629 -6.52413 6
      vertex 234.412 -2.31154 6
    endloop
  endfacet
  facet normal 0 0 1
    outer loop
      vertex 236.629 -6.52413 6
      vertex 234.107 -2.53298 6
      vertex 236.045 -6.75528 6
    endloop
  endfacet
  facet normal 0 0 1
    outer loop
      vertex 236.045 -6.75528 6
      vertex 234.107 -2.53298 6
      vertex 235.437 -6.91144 6
    endloop
  endfacet
  facet normal -0 0 1
    outer loop
      vertex 233.777 -2.71448 6
      vertex 235.437 -6.91144 6
      vertex 234.107 -2.53298 6
    endloop
  endfacet
  facet normal 0 0 1
    outer loop
      vertex 235.437 -6.91144 6
      vertex 233.777 -2.71448 6
      vertex 234.814 -6.99013 6
    endloop
  endfacet
  facet normal -0 0 1
    outer loop
      vertex 233.427 -2.85317 6
      vertex 234.814 -6.99013 6
      vertex 233.777 -2.71448 6
    endloop
  endfacet
  facet normal -0 0 1
    outer loop
      vertex 233.062 -2.94686 6
      vertex 234.814 -6.99013 6
      vertex 233.427 -2.85317 6
    endloop
  endfacet
  facet normal -0 0 1
    outer loop
      vertex 232.688 -2.99408 6
      vertex 234.814 -6.99013 6
      vertex 233.062 -2.94686 6
    endloop
  endfacet
  facet normal -0 0 1
    outer loop
      vertex 232.312 -2.99408 6
      vertex 234.814 -6.99013 6
      vertex 232.688 -2.99408 6
    endloop
  endfacet
  facet normal 0 0 1
    outer loop
      vertex 231.938 -2.94686 6
      vertex 234.814 -6.99013 6
      vertex 232.312 -2.99408 6
    endloop
  endfacet
  facet normal 0 0 1
    outer loop
      vertex 231.573 -2.85317 6
      vertex 234.814 -6.99013 6
      vertex 231.938 -2.94686 6
    endloop
  endfacet
  facet normal 0 0 1
    outer loop
      vertex 231.223 -2.71448 6
      vertex 234.814 -6.99013 6
      vertex 231.573 -2.85317 6
    endloop
  endfacet
  facet normal 0 0 1
    outer loop
      vertex 230.893 -2.53298 6
      vertex 234.814 -6.99013 6
      vertex 231.223 -2.71448 6
    endloop
  endfacet
  facet normal 0 0 1
    outer loop
      vertex 230.588 -2.31154 6
      vertex 234.814 -6.99013 6
      vertex 230.893 -2.53298 6
    endloop
  endfacet
  facet normal 0 0 1
    outer loop
      vertex 230.313 -2.05364 6
      vertex 234.814 -6.99013 6
      vertex 230.588 -2.31154 6
    endloop
  endfacet
  facet normal -0 0 1
    outer loop
      vertex -229.5 0 6
      vertex 229.524 -0.375999 6
      vertex 229.5 0 6
    endloop
  endfacet
  facet normal 0 0 1
    outer loop
      vertex -229.524 -0.375999 6
      vertex 229.524 -0.375999 6
      vertex -229.5 0 6
    endloop
  endfacet
  facet normal 0 0 1
    outer loop
      vertex 229.524 -0.375999 6
      vertex -229.524 -0.375999 6
      vertex 229.594 -0.746069 6
    endloop
  endfacet
  facet normal 0 0 1
    outer loop
      vertex -229.594 -0.746069 6
      vertex 229.594 -0.746069 6
      vertex -229.524 -0.375999 6
    endloop
  endfacet
  facet normal 0 0 1
    outer loop
      vertex 229.594 -0.746069 6
      vertex -229.594 -0.746069 6
      vertex 229.711 -1.10437 6
    endloop
  endfacet
  facet normal 0 0 1
    outer loop
      vertex -229.711 -1.10437 6
      vertex 229.711 -1.10437 6
      vertex -229.594 -0.746069 6
    endloop
  endfacet
  facet normal 0 0 1
    outer loop
      vertex 229.711 -1.10437 6
      vertex -229.711 -1.10437 6
      vertex 229.871 -1.44526 6
    endloop
  endfacet
  facet normal 0 0 1
    outer loop
      vertex -229.871 -1.44526 6
      vertex 229.871 -1.44526 6
      vertex -229.711 -1.10437 6
    endloop
  endfacet
  facet normal 0 0 1
    outer loop
      vertex 229.871 -1.44526 6
      vertex -229.871 -1.44526 6
      vertex 230.073 -1.76336 6
    endloop
  endfacet
  facet normal 0 0 1
    outer loop
      vertex -230.073 -1.76336 6
      vertex 230.073 -1.76336 6
      vertex -229.871 -1.44526 6
    endloop
  endfacet
  facet normal 0 0 1
    outer loop
      vertex 230.073 -1.76336 6
      vertex -230.073 -1.76336 6
      vertex 230.313 -2.05364 6
    endloop
  endfacet
  facet normal 0 0 1
    outer loop
      vertex -230.313 -2.05364 6
      vertex 230.313 -2.05364 6
      vertex -230.073 -1.76336 6
    endloop
  endfacet
  facet normal 0 0 1
    outer loop
      vertex 230.313 -2.05364 6
      vertex -230.313 -2.05364 6
      vertex 234.814 -6.99013 6
    endloop
  endfacet
  facet normal 0 0 1
    outer loop
      vertex -234.814 -6.99013 6
      vertex -230.313 -2.05364 6
      vertex -230.588 -2.31154 6
    endloop
  endfacet
  facet normal 0 0 1
    outer loop
      vertex -234.814 -6.99013 6
      vertex -230.588 -2.31154 6
      vertex -230.893 -2.53298 6
    endloop
  endfacet
  facet normal 0 0 1
    outer loop
      vertex -234.814 -6.99013 6
      vertex -230.893 -2.53298 6
      vertex -231.223 -2.71448 6
    endloop
  endfacet
  facet normal 0 0 1
    outer loop
      vertex -234.814 -6.99013 6
      vertex -231.223 -2.71448 6
      vertex -231.573 -2.85317 6
    endloop
  endfacet
  facet normal 0 0 1
    outer loop
      vertex -234.814 -6.99013 6
      vertex -231.573 -2.85317 6
      vertex -231.938 -2.94686 6
    endloop
  endfacet
  facet normal 0 0 1
    outer loop
      vertex -234.814 -6.99013 6
      vertex -231.938 -2.94686 6
      vertex -232.312 -2.99408 6
    endloop
  endfacet
  facet normal 0 0 1
    outer loop
      vertex -234.814 -6.99013 6
      vertex -232.312 -2.99408 6
      vertex -232.688 -2.99408 6
    endloop
  endfacet
  facet normal 0 0 1
    outer loop
      vertex -230.313 -2.05364 6
      vertex -234.814 -6.99013 6
      vertex 234.814 -6.99013 6
    endloop
  endfacet
  facet normal 0 0 1
    outer loop
      vertex -233.062 -2.94686 6
      vertex -234.814 -6.99013 6
      vertex -232.688 -2.99408 6
    endloop
  endfacet
  facet normal 0 0 1
    outer loop
      vertex -233.427 -2.85317 6
      vertex -234.814 -6.99013 6
      vertex -233.062 -2.94686 6
    endloop
  endfacet
  facet normal 0 0 1
    outer loop
      vertex -233.777 -2.71448 6
      vertex -234.814 -6.99013 6
      vertex -233.427 -2.85317 6
    endloop
  endfacet
  facet normal 0 0 1
    outer loop
      vertex -235.437 -6.91144 6
      vertex -233.777 -2.71448 6
      vertex -234.107 -2.53298 6
    endloop
  endfacet
  facet normal 0 0 1
    outer loop
      vertex -236.629 -6.52413 6
      vertex -234.107 -2.53298 6
      vertex -234.412 -2.31154 6
    endloop
  endfacet
  facet normal 0 0 1
    outer loop
      vertex -237.687 -5.85257 6
      vertex -234.412 -2.31154 6
      vertex -234.687 -2.05364 6
    endloop
  endfacet
  facet normal 0 0 1
    outer loop
      vertex -238.545 -4.93893 6
      vertex -234.687 -2.05364 6
      vertex -234.927 -1.76336 6
    endloop
  endfacet
  facet normal 0 0 1
    outer loop
      vertex -239.149 -3.84062 6
      vertex -234.927 -1.76336 6
      vertex -235.129 -1.44526 6
    endloop
  endfacet
  facet normal 0 0 1
    outer loop
      vertex -239.461 -2.62667 6
      vertex -235.129 -1.44526 6
      vertex -235.289 -1.10437 6
    endloop
  endfacet
  facet normal 0 0 1
    outer loop
      vertex -239.5 -2 6
      vertex -235.289 -1.10437 6
      vertex -235.406 -0.746069 6
    endloop
  endfacet
  facet normal 0 0 1
    outer loop
      vertex -233.777 -2.71448 6
      vertex -235.437 -6.91144 6
      vertex -234.814 -6.99013 6
    endloop
  endfacet
  facet normal 0 0 1
    outer loop
      vertex -239.5 -2 6
      vertex -235.406 -0.746069 6
      vertex -235.476 -0.375999 6
    endloop
  endfacet
  facet normal 0 0 1
    outer loop
      vertex -239.5 -2 6
      vertex -235.476 -0.375999 6
      vertex -235.5 0 6
    endloop
  endfacet
  facet normal -0 0 1
    outer loop
      vertex -238.882 4.40877 6
      vertex -234.927 1.76336 6
      vertex -238.545 4.93893 6
    endloop
  endfacet
  facet normal 0 0 1
    outer loop
      vertex -239.5 -2 6
      vertex -235.5 0 6
      vertex -239.5 2 6
    endloop
  endfacet
  facet normal -0 0 1
    outer loop
      vertex -239.149 3.84062 6
      vertex -234.927 1.76336 6
      vertex -238.882 4.40877 6
    endloop
  endfacet
  facet normal 0 0 1
    outer loop
      vertex -235.289 -1.10437 6
      vertex -239.5 -2 6
      vertex -239.461 -2.62667 6
    endloop
  endfacet
  facet normal 0 0 1
    outer loop
      vertex -234.927 1.76336 6
      vertex -239.149 3.84062 6
      vertex -235.129 1.44526 6
    endloop
  endfacet
  facet normal 0 0 1
    outer loop
      vertex -234.107 -2.53298 6
      vertex -236.045 -6.75528 6
      vertex -235.437 -6.91144 6
    endloop
  endfacet
  facet normal -0 0 1
    outer loop
      vertex -239.343 3.24345 6
      vertex -235.129 1.44526 6
      vertex -239.149 3.84062 6
    endloop
  endfacet
  facet normal 0 0 1
    outer loop
      vertex -234.107 -2.53298 6
      vertex -236.629 -6.52413 6
      vertex -236.045 -6.75528 6
    endloop
  endfacet
  facet normal -0 0 1
    outer loop
      vertex -239.461 2.62667 6
      vertex -235.129 1.44526 6
      vertex -239.343 3.24345 6
    endloop
  endfacet
  facet normal 0 0 1
    outer loop
      vertex -234.412 -2.31154 6
      vertex -237.179 -6.22164 6
      vertex -236.629 -6.52413 6
    endloop
  endfacet
  facet normal 0 0 1
    outer loop
      vertex -235.129 1.44526 6
      vertex -239.461 2.62667 6
      vertex -235.289 1.10437 6
    endloop
  endfacet
  facet normal 0 0 1
    outer loop
      vertex -234.412 -2.31154 6
      vertex -237.687 -5.85257 6
      vertex -237.179 -6.22164 6
    endloop
  endfacet
  facet normal -0 0 1
    outer loop
      vertex -239.5 2 6
      vertex -235.289 1.10437 6
      vertex -239.461 2.62667 6
    endloop
  endfacet
  facet normal 0 0 1
    outer loop
      vertex -234.687 -2.05364 6
      vertex -238.145 -5.42274 6
      vertex -237.687 -5.85257 6
    endloop
  endfacet
  facet normal 0 0 1
    outer loop
      vertex -235.289 1.10437 6
      vertex -239.5 2 6
      vertex -235.406 0.746069 6
    endloop
  endfacet
  facet normal 0 0 1
    outer loop
      vertex -234.687 -2.05364 6
      vertex -238.545 -4.93893 6
      vertex -238.145 -5.42274 6
    endloop
  endfacet
  facet normal 0 0 1
    outer loop
      vertex -235.406 0.746069 6
      vertex -239.5 2 6
      vertex -235.476 0.375999 6
    endloop
  endfacet
  facet normal 0 0 1
    outer loop
      vertex -234.927 -1.76336 6
      vertex -238.882 -4.40877 6
      vertex -238.545 -4.93893 6
    endloop
  endfacet
  facet normal 0 0 1
    outer loop
      vertex -235.476 0.375999 6
      vertex -239.5 2 6
      vertex -235.5 0 6
    endloop
  endfacet
  facet normal 0 0 1
    outer loop
      vertex -234.927 -1.76336 6
      vertex -239.149 -3.84062 6
      vertex -238.882 -4.40877 6
    endloop
  endfacet
  facet normal 0 0 1
    outer loop
      vertex -235.129 -1.44526 6
      vertex -239.343 -3.24345 6
      vertex -239.149 -3.84062 6
    endloop
  endfacet
  facet normal 0 0 1
    outer loop
      vertex -235.129 -1.44526 6
      vertex -239.461 -2.62667 6
      vertex -239.343 -3.24345 6
    endloop
  endfacet
  facet normal 0.481919 -0.876216 0
    outer loop
      vertex -234.107 2.53298 0
      vertex -233.777 2.71448 6
      vertex -234.107 2.53298 6
    endloop
  endfacet
  facet normal 0.481919 -0.876216 0
    outer loop
      vertex -233.777 2.71448 6
      vertex -234.107 2.53298 0
      vertex -233.777 2.71448 0
    endloop
  endfacet
  facet normal 0.587515 -0.809213 0
    outer loop
      vertex -234.412 2.31154 0
      vertex -234.107 2.53298 6
      vertex -234.412 2.31154 6
    endloop
  endfacet
  facet normal 0.587515 -0.809213 0
    outer loop
      vertex -234.107 2.53298 6
      vertex -234.412 2.31154 0
      vertex -234.107 2.53298 0
    endloop
  endfacet
  facet normal 0.125262 -0.992124 0
    outer loop
      vertex -233.062 2.94686 0
      vertex -232.688 2.99408 6
      vertex -233.062 2.94686 6
    endloop
  endfacet
  facet normal 0.125262 -0.992124 0
    outer loop
      vertex -232.688 2.99408 6
      vertex -233.062 2.94686 0
      vertex -232.688 2.99408 0
    endloop
  endfacet
  facet normal -0.997969 0.0637003 0
    outer loop
      vertex -229.524 -0.375999 0
      vertex -229.5 0 6
      vertex -229.5 0 0
    endloop
  endfacet
  facet normal -0.997969 0.0637003 0
    outer loop
      vertex -229.5 0 6
      vertex -229.524 -0.375999 0
      vertex -229.524 -0.375999 6
    endloop
  endfacet
  facet normal -0.481919 0.876216 0
    outer loop
      vertex -230.893 -2.53298 0
      vertex -231.223 -2.71448 6
      vertex -230.893 -2.53298 6
    endloop
  endfacet
  facet normal -0.481919 0.876216 0
    outer loop
      vertex -231.223 -2.71448 6
      vertex -230.893 -2.53298 0
      vertex -231.223 -2.71448 0
    endloop
  endfacet
  facet normal -0.684065 0.729421 0
    outer loop
      vertex -230.313 -2.05364 0
      vertex -230.588 -2.31154 6
      vertex -230.313 -2.05364 6
    endloop
  endfacet
  facet normal -0.684065 0.729421 0
    outer loop
      vertex -230.588 -2.31154 6
      vertex -230.313 -2.05364 0
      vertex -230.588 -2.31154 0
    endloop
  endfacet
  facet normal -0.982577 0.185858 0
    outer loop
      vertex -229.594 -0.746069 0
      vertex -229.524 -0.375999 6
      vertex -229.524 -0.375999 0
    endloop
  endfacet
  facet normal -0.982577 0.185858 0
    outer loop
      vertex -229.524 -0.375999 6
      vertex -229.594 -0.746069 0
      vertex -229.594 -0.746069 6
    endloop
  endfacet
  facet normal 0 0 -1
    outer loop
      vertex 235.289 -1.10437 0
      vertex 239.5 -2 0
      vertex 239.461 -2.62667 0
    endloop
  endfacet
  facet normal 0 0 -1
    outer loop
      vertex 239.5 -2 0
      vertex 235.5 0 0
      vertex 239.5 2 0
    endloop
  endfacet
  facet normal 0 0 -1
    outer loop
      vertex 235.129 -1.44526 0
      vertex 239.461 -2.62667 0
      vertex 239.343 -3.24345 0
    endloop
  endfacet
  facet normal 0 0 -1
    outer loop
      vertex 235.476 0.375999 0
      vertex 239.5 2 0
      vertex 235.5 0 0
    endloop
  endfacet
  facet normal 0 0 -1
    outer loop
      vertex 235.129 -1.44526 0
      vertex 239.343 -3.24345 0
      vertex 239.149 -3.84062 0
    endloop
  endfacet
  facet normal 0 0 -1
    outer loop
      vertex 235.406 0.746069 0
      vertex 239.5 2 0
      vertex 235.476 0.375999 0
    endloop
  endfacet
  facet normal 0 0 -1
    outer loop
      vertex 234.927 -1.76336 0
      vertex 239.149 -3.84062 0
      vertex 238.882 -4.40877 0
    endloop
  endfacet
  facet normal 0 0 -1
    outer loop
      vertex 235.289 1.10437 0
      vertex 239.5 2 0
      vertex 235.406 0.746069 0
    endloop
  endfacet
  facet normal 0 0 -1
    outer loop
      vertex 234.927 -1.76336 0
      vertex 238.882 -4.40877 0
      vertex 238.545 -4.93893 0
    endloop
  endfacet
  facet normal -0 0 -1
    outer loop
      vertex 239.5 2 0
      vertex 235.289 1.10437 0
      vertex 239.461 2.62667 0
    endloop
  endfacet
  facet normal 0 0 -1
    outer loop
      vertex 234.687 -2.05364 0
      vertex 238.545 -4.93893 0
      vertex 238.145 -5.42274 0
    endloop
  endfacet
  facet normal 0 0 -1
    outer loop
      vertex 235.129 1.44526 0
      vertex 239.461 2.62667 0
      vertex 235.289 1.10437 0
    endloop
  endfacet
  facet normal 0 0 -1
    outer loop
      vertex 234.687 -2.05364 0
      vertex 238.145 -5.42274 0
      vertex 237.687 -5.85257 0
    endloop
  endfacet
  facet normal -0 0 -1
    outer loop
      vertex 239.461 2.62667 0
      vertex 235.129 1.44526 0
      vertex 239.343 3.24345 0
    endloop
  endfacet
  facet normal 0 0 -1
    outer loop
      vertex 234.412 -2.31154 0
      vertex 237.687 -5.85257 0
      vertex 237.179 -6.22164 0
    endloop
  endfacet
  facet normal -0 0 -1
    outer loop
      vertex 239.343 3.24345 0
      vertex 235.129 1.44526 0
      vertex 239.149 3.84062 0
    endloop
  endfacet
  facet normal 0 0 -1
    outer loop
      vertex 234.412 -2.31154 0
      vertex 237.179 -6.22164 0
      vertex 236.629 -6.52413 0
    endloop
  endfacet
  facet normal 0 0 -1
    outer loop
      vertex 234.927 1.76336 0
      vertex 239.149 3.84062 0
      vertex 235.129 1.44526 0
    endloop
  endfacet
  facet normal 0 0 -1
    outer loop
      vertex 234.107 -2.53298 0
      vertex 236.629 -6.52413 0
      vertex 236.045 -6.75528 0
    endloop
  endfacet
  facet normal -0 0 -1
    outer loop
      vertex 239.149 3.84062 0
      vertex 234.927 1.76336 0
      vertex 238.882 4.40877 0
    endloop
  endfacet
  facet normal -0 0 -1
    outer loop
      vertex 238.882 4.40877 0
      vertex 234.927 1.76336 0
      vertex 238.545 4.93893 0
    endloop
  endfacet
  facet normal 0 0 -1
    outer loop
      vertex 239.5 -2 0
      vertex 235.476 -0.375999 0
      vertex 235.5 0 0
    endloop
  endfacet
  facet normal 0 0 -1
    outer loop
      vertex 234.107 -2.53298 0
      vertex 236.045 -6.75528 0
      vertex 235.437 -6.91144 0
    endloop
  endfacet
  facet normal 0 0 -1
    outer loop
      vertex 239.5 -2 0
      vertex 235.406 -0.746069 0
      vertex 235.476 -0.375999 0
    endloop
  endfacet
  facet normal 0 0 -1
    outer loop
      vertex 239.5 -2 0
      vertex 235.289 -1.10437 0
      vertex 235.406 -0.746069 0
    endloop
  endfacet
  facet normal 0 0 -1
    outer loop
      vertex 239.461 -2.62667 0
      vertex 235.129 -1.44526 0
      vertex 235.289 -1.10437 0
    endloop
  endfacet
  facet normal 0 0 -1
    outer loop
      vertex 239.149 -3.84062 0
      vertex 234.927 -1.76336 0
      vertex 235.129 -1.44526 0
    endloop
  endfacet
  facet normal 0 0 -1
    outer loop
      vertex 233.777 -2.71448 0
      vertex 235.437 -6.91144 0
      vertex 234.814 -6.99013 0
    endloop
  endfacet
  facet normal 0 0 -1
    outer loop
      vertex 238.545 -4.93893 0
      vertex 234.687 -2.05364 0
      vertex 234.927 -1.76336 0
    endloop
  endfacet
  facet normal 0 0 -1
    outer loop
      vertex 237.687 -5.85257 0
      vertex 234.412 -2.31154 0
      vertex 234.687 -2.05364 0
    endloop
  endfacet
  facet normal 0 0 -1
    outer loop
      vertex 236.629 -6.52413 0
      vertex 234.107 -2.53298 0
      vertex 234.412 -2.31154 0
    endloop
  endfacet
  facet normal 0 0 -1
    outer loop
      vertex 235.437 -6.91144 0
      vertex 233.777 -2.71448 0
      vertex 234.107 -2.53298 0
    endloop
  endfacet
  facet normal 0 0 -1
    outer loop
      vertex 234.814 -6.99013 0
      vertex 233.427 -2.85317 0
      vertex 233.777 -2.71448 0
    endloop
  endfacet
  facet normal 0 0 -1
    outer loop
      vertex 234.814 -6.99013 0
      vertex 233.062 -2.94686 0
      vertex 233.427 -2.85317 0
    endloop
  endfacet
  facet normal 0 0 -1
    outer loop
      vertex 234.814 -6.99013 0
      vertex 232.688 -2.99408 0
      vertex 233.062 -2.94686 0
    endloop
  endfacet
  facet normal 0 0 -1
    outer loop
      vertex 234.814 -6.99013 0
      vertex 232.312 -2.99408 0
      vertex 232.688 -2.99408 0
    endloop
  endfacet
  facet normal 0 0 -1
    outer loop
      vertex 234.814 -6.99013 0
      vertex 231.938 -2.94686 0
      vertex 232.312 -2.99408 0
    endloop
  endfacet
  facet normal 0 0 -1
    outer loop
      vertex 234.814 -6.99013 0
      vertex 231.573 -2.85317 0
      vertex 231.938 -2.94686 0
    endloop
  endfacet
  facet normal 0 0 -1
    outer loop
      vertex 234.814 -6.99013 0
      vertex 231.223 -2.71448 0
      vertex 231.573 -2.85317 0
    endloop
  endfacet
  facet normal 0 0 -1
    outer loop
      vertex 234.814 -6.99013 0
      vertex 230.893 -2.53298 0
      vertex 231.223 -2.71448 0
    endloop
  endfacet
  facet normal 0 0 -1
    outer loop
      vertex 234.814 -6.99013 0
      vertex 230.588 -2.31154 0
      vertex 230.893 -2.53298 0
    endloop
  endfacet
  facet normal 0 0 -1
    outer loop
      vertex 234.814 -6.99013 0
      vertex 230.313 -2.05364 0
      vertex 230.588 -2.31154 0
    endloop
  endfacet
  facet normal 0 0 -1
    outer loop
      vertex 229.524 -0.375999 0
      vertex -229.5 0 0
      vertex 229.5 0 0
    endloop
  endfacet
  facet normal 0 0 -1
    outer loop
      vertex -229.524 -0.375999 0
      vertex 229.524 -0.375999 0
      vertex 229.594 -0.746069 0
    endloop
  endfacet
  facet normal 0 0 -1
    outer loop
      vertex -229.594 -0.746069 0
      vertex 229.594 -0.746069 0
      vertex 229.711 -1.10437 0
    endloop
  endfacet
  facet normal 0 0 -1
    outer loop
      vertex -229.711 -1.10437 0
      vertex 229.711 -1.10437 0
      vertex 229.871 -1.44526 0
    endloop
  endfacet
  facet normal 0 0 -1
    outer loop
      vertex -229.871 -1.44526 0
      vertex 229.871 -1.44526 0
      vertex 230.073 -1.76336 0
    endloop
  endfacet
  facet normal 0 0 -1
    outer loop
      vertex -230.073 -1.76336 0
      vertex 230.073 -1.76336 0
      vertex 230.313 -2.05364 0
    endloop
  endfacet
  facet normal 0 0 -1
    outer loop
      vertex -230.313 -2.05364 0
      vertex 230.313 -2.05364 0
      vertex 234.814 -6.99013 0
    endloop
  endfacet
  facet normal 0 0 -1
    outer loop
      vertex 229.524 -0.375999 0
      vertex -229.524 -0.375999 0
      vertex -229.5 0 0
    endloop
  endfacet
  facet normal 0 0 -1
    outer loop
      vertex 229.594 -0.746069 0
      vertex -229.594 -0.746069 0
      vertex -229.524 -0.375999 0
    endloop
  endfacet
  facet normal 0 0 -1
    outer loop
      vertex 229.711 -1.10437 0
      vertex -229.711 -1.10437 0
      vertex -229.594 -0.746069 0
    endloop
  endfacet
  facet normal 0 0 -1
    outer loop
      vertex 229.871 -1.44526 0
      vertex -229.871 -1.44526 0
      vertex -229.711 -1.10437 0
    endloop
  endfacet
  facet normal 0 0 -1
    outer loop
      vertex 230.073 -1.76336 0
      vertex -230.073 -1.76336 0
      vertex -229.871 -1.44526 0
    endloop
  endfacet
  facet normal 0 0 -1
    outer loop
      vertex 230.313 -2.05364 0
      vertex -230.313 -2.05364 0
      vertex -230.073 -1.76336 0
    endloop
  endfacet
  facet normal 0 0 -1
    outer loop
      vertex -234.814 -6.99013 0
      vertex -230.313 -2.05364 0
      vertex 234.814 -6.99013 0
    endloop
  endfacet
  facet normal 0 0 -1
    outer loop
      vertex -230.313 -2.05364 0
      vertex -234.814 -6.99013 0
      vertex -230.588 -2.31154 0
    endloop
  endfacet
  facet normal 0 0 -1
    outer loop
      vertex -230.588 -2.31154 0
      vertex -234.814 -6.99013 0
      vertex -230.893 -2.53298 0
    endloop
  endfacet
  facet normal 0 0 -1
    outer loop
      vertex -230.893 -2.53298 0
      vertex -234.814 -6.99013 0
      vertex -231.223 -2.71448 0
    endloop
  endfacet
  facet normal 0 0 -1
    outer loop
      vertex -231.223 -2.71448 0
      vertex -234.814 -6.99013 0
      vertex -231.573 -2.85317 0
    endloop
  endfacet
  facet normal 0 0 -1
    outer loop
      vertex -231.573 -2.85317 0
      vertex -234.814 -6.99013 0
      vertex -231.938 -2.94686 0
    endloop
  endfacet
  facet normal 0 0 -1
    outer loop
      vertex -231.938 -2.94686 0
      vertex -234.814 -6.99013 0
      vertex -232.312 -2.99408 0
    endloop
  endfacet
  facet normal -0 0 -1
    outer loop
      vertex -232.312 -2.99408 0
      vertex -234.814 -6.99013 0
      vertex -232.688 -2.99408 0
    endloop
  endfacet
  facet normal 0 0 -1
    outer loop
      vertex -234.814 -6.99013 0
      vertex -233.062 -2.94686 0
      vertex -232.688 -2.99408 0
    endloop
  endfacet
  facet normal 0 0 -1
    outer loop
      vertex -234.814 -6.99013 0
      vertex -233.427 -2.85317 0
      vertex -233.062 -2.94686 0
    endloop
  endfacet
  facet normal 0 0 -1
    outer loop
      vertex -234.814 -6.99013 0
      vertex -233.777 -2.71448 0
      vertex -233.427 -2.85317 0
    endloop
  endfacet
  facet normal 0 0 -1
    outer loop
      vertex -235.437 -6.91144 0
      vertex -233.777 -2.71448 0
      vertex -234.814 -6.99013 0
    endloop
  endfacet
  facet normal -0 0 -1
    outer loop
      vertex -233.777 -2.71448 0
      vertex -235.437 -6.91144 0
      vertex -234.107 -2.53298 0
    endloop
  endfacet
  facet normal 0 0 -1
    outer loop
      vertex -236.045 -6.75528 0
      vertex -234.107 -2.53298 0
      vertex -235.437 -6.91144 0
    endloop
  endfacet
  facet normal 0 0 -1
    outer loop
      vertex -236.629 -6.52413 0
      vertex -234.107 -2.53298 0
      vertex -236.045 -6.75528 0
    endloop
  endfacet
  facet normal -0 0 -1
    outer loop
      vertex -234.107 -2.53298 0
      vertex -236.629 -6.52413 0
      vertex -234.412 -2.31154 0
    endloop
  endfacet
  facet normal 0 0 -1
    outer loop
      vertex -237.179 -6.22164 0
      vertex -234.412 -2.31154 0
      vertex -236.629 -6.52413 0
    endloop
  endfacet
  facet normal 0 0 -1
    outer loop
      vertex -237.687 -5.85257 0
      vertex -234.412 -2.31154 0
      vertex -237.179 -6.22164 0
    endloop
  endfacet
  facet normal -0 0 -1
    outer loop
      vertex -234.412 -2.31154 0
      vertex -237.687 -5.85257 0
      vertex -234.687 -2.05364 0
    endloop
  endfacet
  facet normal 0 0 -1
    outer loop
      vertex -238.145 -5.42274 0
      vertex -234.687 -2.05364 0
      vertex -237.687 -5.85257 0
    endloop
  endfacet
  facet normal 0 0 -1
    outer loop
      vertex -238.545 -4.93893 0
      vertex -234.687 -2.05364 0
      vertex -238.145 -5.42274 0
    endloop
  endfacet
  facet normal -0 0 -1
    outer loop
      vertex -234.687 -2.05364 0
      vertex -238.545 -4.93893 0
      vertex -234.927 -1.76336 0
    endloop
  endfacet
  facet normal 0 0 -1
    outer loop
      vertex 234.687 2.05364 0
      vertex 238.545 4.93893 0
      vertex 234.927 1.76336 0
    endloop
  endfacet
  facet normal -0 0 -1
    outer loop
      vertex 238.545 4.93893 0
      vertex 234.687 2.05364 0
      vertex 238.145 5.42274 0
    endloop
  endfacet
  facet normal -0 0 -1
    outer loop
      vertex 238.145 5.42274 0
      vertex 234.687 2.05364 0
      vertex 237.687 5.85257 0
    endloop
  endfacet
  facet normal 0 0 -1
    outer loop
      vertex 234.412 2.31154 0
      vertex 237.687 5.85257 0
      vertex 234.687 2.05364 0
    endloop
  endfacet
  facet normal -0 0 -1
    outer loop
      vertex 237.687 5.85257 0
      vertex 234.412 2.31154 0
      vertex 237.179 6.22164 0
    endloop
  endfacet
  facet normal -0 0 -1
    outer loop
      vertex 237.179 6.22164 0
      vertex 234.412 2.31154 0
      vertex 236.629 6.52413 0
    endloop
  endfacet
  facet normal 0 0 -1
    outer loop
      vertex 234.107 2.53298 0
      vertex 236.629 6.52413 0
      vertex 234.412 2.31154 0
    endloop
  endfacet
  facet normal -0 0 -1
    outer loop
      vertex 236.629 6.52413 0
      vertex 234.107 2.53298 0
      vertex 236.045 6.75528 0
    endloop
  endfacet
  facet normal -0 0 -1
    outer loop
      vertex 236.045 6.75528 0
      vertex 234.107 2.53298 0
      vertex 235.437 6.91144 0
    endloop
  endfacet
  facet normal 0 0 -1
    outer loop
      vertex 233.777 2.71448 0
      vertex 235.437 6.91144 0
      vertex 234.107 2.53298 0
    endloop
  endfacet
  facet normal -0 0 -1
    outer loop
      vertex 235.437 6.91144 0
      vertex 233.777 2.71448 0
      vertex 234.814 6.99013 0
    endloop
  endfacet
  facet normal 0 0 -1
    outer loop
      vertex 233.427 2.85317 0
      vertex 234.814 6.99013 0
      vertex 233.777 2.71448 0
    endloop
  endfacet
  facet normal 0 0 -1
    outer loop
      vertex 233.062 2.94686 0
      vertex 234.814 6.99013 0
      vertex 233.427 2.85317 0
    endloop
  endfacet
  facet normal 0 0 -1
    outer loop
      vertex 232.688 2.99408 0
      vertex 234.814 6.99013 0
      vertex 233.062 2.94686 0
    endloop
  endfacet
  facet normal 0 0 -1
    outer loop
      vertex 232.312 2.99408 0
      vertex 234.814 6.99013 0
      vertex 232.688 2.99408 0
    endloop
  endfacet
  facet normal 0 0 -1
    outer loop
      vertex 231.938 2.94686 0
      vertex 234.814 6.99013 0
      vertex 232.312 2.99408 0
    endloop
  endfacet
  facet normal 0 0 -1
    outer loop
      vertex 231.573 2.85317 0
      vertex 234.814 6.99013 0
      vertex 231.938 2.94686 0
    endloop
  endfacet
  facet normal 0 0 -1
    outer loop
      vertex 231.223 2.71448 0
      vertex 234.814 6.99013 0
      vertex 231.573 2.85317 0
    endloop
  endfacet
  facet normal 0 0 -1
    outer loop
      vertex 230.893 2.53298 0
      vertex 234.814 6.99013 0
      vertex 231.223 2.71448 0
    endloop
  endfacet
  facet normal 0 0 -1
    outer loop
      vertex 230.588 2.31154 0
      vertex 234.814 6.99013 0
      vertex 230.893 2.53298 0
    endloop
  endfacet
  facet normal 0 0 -1
    outer loop
      vertex 230.313 2.05364 0
      vertex 234.814 6.99013 0
      vertex 230.588 2.31154 0
    endloop
  endfacet
  facet normal 0 0 -1
    outer loop
      vertex -229.5 0 0
      vertex 229.524 0.375999 0
      vertex 229.5 0 0
    endloop
  endfacet
  facet normal 0 0 -1
    outer loop
      vertex -229.524 0.375999 0
      vertex 229.524 0.375999 0
      vertex -229.5 0 0
    endloop
  endfacet
  facet normal 0 0 -1
    outer loop
      vertex 229.524 0.375999 0
      vertex -229.524 0.375999 0
      vertex 229.594 0.746069 0
    endloop
  endfacet
  facet normal 0 0 -1
    outer loop
      vertex -229.594 0.746069 0
      vertex 229.594 0.746069 0
      vertex -229.524 0.375999 0
    endloop
  endfacet
  facet normal 0 0 -1
    outer loop
      vertex 229.594 0.746069 0
      vertex -229.594 0.746069 0
      vertex 229.711 1.10437 0
    endloop
  endfacet
  facet normal 0 0 -1
    outer loop
      vertex -229.711 1.10437 0
      vertex 229.711 1.10437 0
      vertex -229.594 0.746069 0
    endloop
  endfacet
  facet normal 0 0 -1
    outer loop
      vertex 229.711 1.10437 0
      vertex -229.711 1.10437 0
      vertex 229.871 1.44526 0
    endloop
  endfacet
  facet normal 0 0 -1
    outer loop
      vertex -229.871 1.44526 0
      vertex 229.871 1.44526 0
      vertex -229.711 1.10437 0
    endloop
  endfacet
  facet normal 0 0 -1
    outer loop
      vertex 229.871 1.44526 0
      vertex -229.871 1.44526 0
      vertex 230.073 1.76336 0
    endloop
  endfacet
  facet normal 0 0 -1
    outer loop
      vertex -230.073 1.76336 0
      vertex 230.073 1.76336 0
      vertex -229.871 1.44526 0
    endloop
  endfacet
  facet normal 0 0 -1
    outer loop
      vertex 230.073 1.76336 0
      vertex -230.073 1.76336 0
      vertex 230.313 2.05364 0
    endloop
  endfacet
  facet normal 0 0 -1
    outer loop
      vertex -230.313 2.05364 0
      vertex 230.313 2.05364 0
      vertex -230.073 1.76336 0
    endloop
  endfacet
  facet normal 0 0 -1
    outer loop
      vertex 230.313 2.05364 0
      vertex -230.313 2.05364 0
      vertex 234.814 6.99013 0
    endloop
  endfacet
  facet normal 0 0 -1
    outer loop
      vertex -234.814 6.99013 0
      vertex -230.313 2.05364 0
      vertex -230.588 2.31154 0
    endloop
  endfacet
  facet normal 0 0 -1
    outer loop
      vertex -234.814 6.99013 0
      vertex -230.588 2.31154 0
      vertex -230.893 2.53298 0
    endloop
  endfacet
  facet normal 0 0 -1
    outer loop
      vertex -234.814 6.99013 0
      vertex -230.893 2.53298 0
      vertex -231.223 2.71448 0
    endloop
  endfacet
  facet normal 0 0 -1
    outer loop
      vertex -234.814 6.99013 0
      vertex -231.223 2.71448 0
      vertex -231.573 2.85317 0
    endloop
  endfacet
  facet normal 0 0 -1
    outer loop
      vertex -234.814 6.99013 0
      vertex -231.573 2.85317 0
      vertex -231.938 2.94686 0
    endloop
  endfacet
  facet normal 0 0 -1
    outer loop
      vertex -234.814 6.99013 0
      vertex -231.938 2.94686 0
      vertex -232.312 2.99408 0
    endloop
  endfacet
  facet normal 0 0 -1
    outer loop
      vertex -234.814 6.99013 0
      vertex -232.312 2.99408 0
      vertex -232.688 2.99408 0
    endloop
  endfacet
  facet normal 0 0 -1
    outer loop
      vertex -230.313 2.05364 0
      vertex -234.814 6.99013 0
      vertex 234.814 6.99013 0
    endloop
  endfacet
  facet normal 0 0 -1
    outer loop
      vertex -233.062 2.94686 0
      vertex -234.814 6.99013 0
      vertex -232.688 2.99408 0
    endloop
  endfacet
  facet normal 0 0 -1
    outer loop
      vertex -233.427 2.85317 0
      vertex -234.814 6.99013 0
      vertex -233.062 2.94686 0
    endloop
  endfacet
  facet normal 0 0 -1
    outer loop
      vertex -233.777 2.71448 0
      vertex -234.814 6.99013 0
      vertex -233.427 2.85317 0
    endloop
  endfacet
  facet normal 0 0 -1
    outer loop
      vertex -235.437 6.91144 0
      vertex -233.777 2.71448 0
      vertex -234.107 2.53298 0
    endloop
  endfacet
  facet normal 0 0 -1
    outer loop
      vertex -236.629 6.52413 0
      vertex -234.107 2.53298 0
      vertex -234.412 2.31154 0
    endloop
  endfacet
  facet normal 0 0 -1
    outer loop
      vertex -237.687 5.85257 0
      vertex -234.412 2.31154 0
      vertex -234.687 2.05364 0
    endloop
  endfacet
  facet normal 0 0 -1
    outer loop
      vertex -238.545 4.93893 0
      vertex -234.687 2.05364 0
      vertex -234.927 1.76336 0
    endloop
  endfacet
  facet normal 0 0 -1
    outer loop
      vertex -239.149 3.84062 0
      vertex -234.927 1.76336 0
      vertex -235.129 1.44526 0
    endloop
  endfacet
  facet normal 0 0 -1
    outer loop
      vertex -239.461 2.62667 0
      vertex -235.129 1.44526 0
      vertex -235.289 1.10437 0
    endloop
  endfacet
  facet normal 0 0 -1
    outer loop
      vertex -239.5 2 0
      vertex -235.289 1.10437 0
      vertex -235.406 0.746069 0
    endloop
  endfacet
  facet normal 0 0 -1
    outer loop
      vertex -233.777 2.71448 0
      vertex -235.437 6.91144 0
      vertex -234.814 6.99013 0
    endloop
  endfacet
  facet normal 0 0 -1
    outer loop
      vertex -239.5 2 0
      vertex -235.406 0.746069 0
      vertex -235.476 0.375999 0
    endloop
  endfacet
  facet normal 0 0 -1
    outer loop
      vertex -239.5 2 0
      vertex -235.476 0.375999 0
      vertex -235.5 0 0
    endloop
  endfacet
  facet normal 0 0 -1
    outer loop
      vertex -238.882 -4.40877 0
      vertex -234.927 -1.76336 0
      vertex -238.545 -4.93893 0
    endloop
  endfacet
  facet normal 0 0 -1
    outer loop
      vertex -239.5 2 0
      vertex -235.5 0 0
      vertex -239.5 -2 0
    endloop
  endfacet
  facet normal 0 0 -1
    outer loop
      vertex -239.149 -3.84062 0
      vertex -234.927 -1.76336 0
      vertex -238.882 -4.40877 0
    endloop
  endfacet
  facet normal 0 0 -1
    outer loop
      vertex -235.289 1.10437 0
      vertex -239.5 2 0
      vertex -239.461 2.62667 0
    endloop
  endfacet
  facet normal -0 0 -1
    outer loop
      vertex -234.927 -1.76336 0
      vertex -239.149 -3.84062 0
      vertex -235.129 -1.44526 0
    endloop
  endfacet
  facet normal 0 0 -1
    outer loop
      vertex -234.107 2.53298 0
      vertex -236.045 6.75528 0
      vertex -235.437 6.91144 0
    endloop
  endfacet
  facet normal 0 0 -1
    outer loop
      vertex -239.343 -3.24345 0
      vertex -235.129 -1.44526 0
      vertex -239.149 -3.84062 0
    endloop
  endfacet
  facet normal 0 0 -1
    outer loop
      vertex -234.107 2.53298 0
      vertex -236.629 6.52413 0
      vertex -236.045 6.75528 0
    endloop
  endfacet
  facet normal 0 0 -1
    outer loop
      vertex -239.461 -2.62667 0
      vertex -235.129 -1.44526 0
      vertex -239.343 -3.24345 0
    endloop
  endfacet
  facet normal 0 0 -1
    outer loop
      vertex -234.412 2.31154 0
      vertex -237.179 6.22164 0
      vertex -236.629 6.52413 0
    endloop
  endfacet
  facet normal -0 0 -1
    outer loop
      vertex -235.129 -1.44526 0
      vertex -239.461 -2.62667 0
      vertex -235.289 -1.10437 0
    endloop
  endfacet
  facet normal 0 0 -1
    outer loop
      vertex -234.412 2.31154 0
      vertex -237.687 5.85257 0
      vertex -237.179 6.22164 0
    endloop
  endfacet
  facet normal 0 0 -1
    outer loop
      vertex -239.5 -2 0
      vertex -235.289 -1.10437 0
      vertex -239.461 -2.62667 0
    endloop
  endfacet
  facet normal 0 0 -1
    outer loop
      vertex -234.687 2.05364 0
      vertex -238.145 5.42274 0
      vertex -237.687 5.85257 0
    endloop
  endfacet
  facet normal -0 0 -1
    outer loop
      vertex -235.289 -1.10437 0
      vertex -239.5 -2 0
      vertex -235.406 -0.746069 0
    endloop
  endfacet
  facet normal 0 0 -1
    outer loop
      vertex -234.687 2.05364 0
      vertex -238.545 4.93893 0
      vertex -238.145 5.42274 0
    endloop
  endfacet
  facet normal -0 0 -1
    outer loop
      vertex -235.406 -0.746069 0
      vertex -239.5 -2 0
      vertex -235.476 -0.375999 0
    endloop
  endfacet
  facet normal 0 0 -1
    outer loop
      vertex -234.927 1.76336 0
      vertex -238.882 4.40877 0
      vertex -238.545 4.93893 0
    endloop
  endfacet
  facet normal -0 0 -1
    outer loop
      vertex -235.476 -0.375999 0
      vertex -239.5 -2 0
      vertex -235.5 0 0
    endloop
  endfacet
  facet normal 0 0 -1
    outer loop
      vertex -234.927 1.76336 0
      vertex -239.149 3.84062 0
      vertex -238.882 4.40877 0
    endloop
  endfacet
  facet normal 0 0 -1
    outer loop
      vertex -235.129 1.44526 0
      vertex -239.343 3.24345 0
      vertex -239.149 3.84062 0
    endloop
  endfacet
  facet normal 0 0 -1
    outer loop
      vertex -235.129 1.44526 0
      vertex -239.461 2.62667 0
      vertex -239.343 3.24345 0
    endloop
  endfacet
  facet normal -0.905247 0.424886 0
    outer loop
      vertex -229.871 -1.44526 0
      vertex -229.711 -1.10437 6
      vertex -229.711 -1.10437 0
    endloop
  endfacet
  facet normal -0.905247 0.424886 0
    outer loop
      vertex -229.711 -1.10437 6
      vertex -229.871 -1.44526 0
      vertex -229.871 -1.44526 6
    endloop
  endfacet
  facet normal -0.770696 0.637202 0
    outer loop
      vertex -230.313 -2.05364 0
      vertex -230.073 -1.76336 6
      vertex -230.073 -1.76336 0
    endloop
  endfacet
  facet normal -0.770696 0.637202 0
    outer loop
      vertex -230.073 -1.76336 6
      vertex -230.313 -2.05364 0
      vertex -230.313 -2.05364 6
    endloop
  endfacet
  facet normal 0.684065 0.729421 -0
    outer loop
      vertex -234.412 -2.31154 0
      vertex -234.687 -2.05364 6
      vertex -234.412 -2.31154 6
    endloop
  endfacet
  facet normal 0.684065 0.729421 0
    outer loop
      vertex -234.687 -2.05364 6
      vertex -234.412 -2.31154 0
      vertex -234.687 -2.05364 0
    endloop
  endfacet
  facet normal 0.844175 0.536068 0
    outer loop
      vertex -234.927 -1.76336 6
      vertex -235.129 -1.44526 0
      vertex -235.129 -1.44526 6
    endloop
  endfacet
  facet normal 0.844175 0.536068 0
    outer loop
      vertex -235.129 -1.44526 0
      vertex -234.927 -1.76336 6
      vertex -234.927 -1.76336 0
    endloop
  endfacet
  facet normal 0.950603 0.310411 0
    outer loop
      vertex -235.289 -1.10437 6
      vertex -235.406 -0.746069 0
      vertex -235.406 -0.746069 6
    endloop
  endfacet
  facet normal 0.950603 0.310411 0
    outer loop
      vertex -235.406 -0.746069 0
      vertex -235.289 -1.10437 6
      vertex -235.289 -1.10437 0
    endloop
  endfacet
  facet normal -0.248625 0.9686 0
    outer loop
      vertex -231.573 -2.85317 0
      vertex -231.938 -2.94686 6
      vertex -231.573 -2.85317 6
    endloop
  endfacet
  facet normal -0.248625 0.9686 0
    outer loop
      vertex -231.938 -2.94686 6
      vertex -231.573 -2.85317 0
      vertex -231.938 -2.94686 0
    endloop
  endfacet
  facet normal -0.125262 0.992124 0
    outer loop
      vertex -231.938 -2.94686 0
      vertex -232.312 -2.99408 6
      vertex -231.938 -2.94686 6
    endloop
  endfacet
  facet normal -0.125262 0.992124 0
    outer loop
      vertex -232.312 -2.99408 6
      vertex -231.938 -2.94686 0
      vertex -232.312 -2.99408 0
    endloop
  endfacet
  facet normal -0.587515 0.809213 0
    outer loop
      vertex -230.588 -2.31154 0
      vertex -230.893 -2.53298 6
      vertex -230.588 -2.31154 6
    endloop
  endfacet
  facet normal -0.587515 0.809213 0
    outer loop
      vertex -230.893 -2.53298 6
      vertex -230.588 -2.31154 0
      vertex -230.893 -2.53298 0
    endloop
  endfacet
  facet normal -0.950603 0.310411 0
    outer loop
      vertex -229.711 -1.10437 0
      vertex -229.594 -0.746069 6
      vertex -229.594 -0.746069 0
    endloop
  endfacet
  facet normal -0.950603 0.310411 0
    outer loop
      vertex -229.594 -0.746069 6
      vertex -229.711 -1.10437 0
      vertex -229.711 -1.10437 6
    endloop
  endfacet
  facet normal -0.844175 0.536068 0
    outer loop
      vertex -230.073 -1.76336 0
      vertex -229.871 -1.44526 6
      vertex -229.871 -1.44526 0
    endloop
  endfacet
  facet normal -0.844175 0.536068 0
    outer loop
      vertex -229.871 -1.44526 6
      vertex -230.073 -1.76336 0
      vertex -230.073 -1.76336 6
    endloop
  endfacet
  facet normal 0.587515 0.809213 -0
    outer loop
      vertex -234.107 -2.53298 0
      vertex -234.412 -2.31154 6
      vertex -234.107 -2.53298 6
    endloop
  endfacet
  facet normal 0.587515 0.809213 0
    outer loop
      vertex -234.412 -2.31154 6
      vertex -234.107 -2.53298 0
      vertex -234.412 -2.31154 0
    endloop
  endfacet
  facet normal 0.248625 0.9686 -0
    outer loop
      vertex -233.062 -2.94686 0
      vertex -233.427 -2.85317 6
      vertex -233.062 -2.94686 6
    endloop
  endfacet
  facet normal 0.248625 0.9686 0
    outer loop
      vertex -233.427 -2.85317 6
      vertex -233.062 -2.94686 0
      vertex -233.427 -2.85317 0
    endloop
  endfacet
  facet normal 0.770696 0.637202 0
    outer loop
      vertex -234.687 -2.05364 6
      vertex -234.927 -1.76336 0
      vertex -234.927 -1.76336 6
    endloop
  endfacet
  facet normal 0.770696 0.637202 0
    outer loop
      vertex -234.927 -1.76336 0
      vertex -234.687 -2.05364 6
      vertex -234.687 -2.05364 0
    endloop
  endfacet
  facet normal 0.905247 0.424886 0
    outer loop
      vertex -235.129 -1.44526 6
      vertex -235.289 -1.10437 0
      vertex -235.289 -1.10437 6
    endloop
  endfacet
  facet normal 0.905247 0.424886 0
    outer loop
      vertex -235.289 -1.10437 0
      vertex -235.129 -1.44526 6
      vertex -235.129 -1.44526 0
    endloop
  endfacet
  facet normal 0.982577 0.185858 0
    outer loop
      vertex -235.406 -0.746069 6
      vertex -235.476 -0.375999 0
      vertex -235.476 -0.375999 6
    endloop
  endfacet
  facet normal 0.982577 0.185858 0
    outer loop
      vertex -235.476 -0.375999 0
      vertex -235.406 -0.746069 6
      vertex -235.406 -0.746069 0
    endloop
  endfacet
  facet normal 0.997969 0.0637003 0
    outer loop
      vertex -235.476 -0.375999 6
      vertex -235.5 0 0
      vertex -235.5 0 6
    endloop
  endfacet
  facet normal 0.997969 0.0637003 0
    outer loop
      vertex -235.5 0 0
      vertex -235.476 -0.375999 6
      vertex -235.476 -0.375999 0
    endloop
  endfacet
  facet normal 0.368389 0.929672 -0
    outer loop
      vertex -233.427 -2.85317 0
      vertex -233.777 -2.71448 6
      vertex -233.427 -2.85317 6
    endloop
  endfacet
  facet normal 0.368389 0.929672 0
    outer loop
      vertex -233.777 -2.71448 6
      vertex -233.427 -2.85317 0
      vertex -233.777 -2.71448 0
    endloop
  endfacet
  facet normal 0.481919 0.876216 -0
    outer loop
      vertex -233.777 -2.71448 0
      vertex -234.107 -2.53298 6
      vertex -233.777 -2.71448 6
    endloop
  endfacet
  facet normal 0.481919 0.876216 0
    outer loop
      vertex -234.107 -2.53298 6
      vertex -233.777 -2.71448 0
      vertex -234.107 -2.53298 0
    endloop
  endfacet
  facet normal 0.125262 0.992124 -0
    outer loop
      vertex -232.688 -2.99408 0
      vertex -233.062 -2.94686 6
      vertex -232.688 -2.99408 6
    endloop
  endfacet
  facet normal 0.125262 0.992124 0
    outer loop
      vertex -233.062 -2.94686 6
      vertex -232.688 -2.99408 0
      vertex -233.062 -2.94686 0
    endloop
  endfacet
  facet normal -0.997969 -0.0637003 0
    outer loop
      vertex 235.5 0 0
      vertex 235.476 0.375999 6
      vertex 235.476 0.375999 0
    endloop
  endfacet
  facet normal -0.997969 -0.0637003 0
    outer loop
      vertex 235.476 0.375999 6
      vertex 235.5 0 0
      vertex 235.5 0 6
    endloop
  endfacet
  facet normal 0.125262 -0.992124 0
    outer loop
      vertex 231.938 2.94686 0
      vertex 232.312 2.99408 6
      vertex 231.938 2.94686 6
    endloop
  endfacet
  facet normal 0.125262 -0.992124 0
    outer loop
      vertex 232.312 2.99408 6
      vertex 231.938 2.94686 0
      vertex 232.312 2.99408 0
    endloop
  endfacet
  facet normal -0.125262 0.992124 0
    outer loop
      vertex 233.062 -2.94686 0
      vertex 232.688 -2.99408 6
      vertex 233.062 -2.94686 6
    endloop
  endfacet
  facet normal -0.125262 0.992124 0
    outer loop
      vertex 232.688 -2.99408 6
      vertex 233.062 -2.94686 0
      vertex 232.688 -2.99408 0
    endloop
  endfacet
  facet normal -0.770696 0.637202 0
    outer loop
      vertex 234.687 -2.05364 0
      vertex 234.927 -1.76336 6
      vertex 234.927 -1.76336 0
    endloop
  endfacet
  facet normal -0.770696 0.637202 0
    outer loop
      vertex 234.927 -1.76336 6
      vertex 234.687 -2.05364 0
      vertex 234.687 -2.05364 6
    endloop
  endfacet
  facet normal -0.684065 -0.729421 0
    outer loop
      vertex 234.412 2.31154 0
      vertex 234.687 2.05364 6
      vertex 234.412 2.31154 6
    endloop
  endfacet
  facet normal -0.684065 -0.729421 -0
    outer loop
      vertex 234.687 2.05364 6
      vertex 234.412 2.31154 0
      vertex 234.687 2.05364 0
    endloop
  endfacet
  facet normal 0.770696 -0.637202 0
    outer loop
      vertex 230.073 1.76336 6
      vertex 230.313 2.05364 0
      vertex 230.313 2.05364 6
    endloop
  endfacet
  facet normal 0.770696 -0.637202 0
    outer loop
      vertex 230.313 2.05364 0
      vertex 230.073 1.76336 6
      vertex 230.073 1.76336 0
    endloop
  endfacet
  facet normal 0.481919 -0.876216 0
    outer loop
      vertex 230.893 2.53298 0
      vertex 231.223 2.71448 6
      vertex 230.893 2.53298 6
    endloop
  endfacet
  facet normal 0.481919 -0.876216 0
    outer loop
      vertex 231.223 2.71448 6
      vertex 230.893 2.53298 0
      vertex 231.223 2.71448 0
    endloop
  endfacet
  facet normal -0.950603 0.310411 0
    outer loop
      vertex 235.289 -1.10437 0
      vertex 235.406 -0.746069 6
      vertex 235.406 -0.746069 0
    endloop
  endfacet
  facet normal -0.950603 0.310411 0
    outer loop
      vertex 235.406 -0.746069 6
      vertex 235.289 -1.10437 0
      vertex 235.289 -1.10437 6
    endloop
  endfacet
  facet normal -0.905247 -0.424886 0
    outer loop
      vertex 235.289 1.10437 0
      vertex 235.129 1.44526 6
      vertex 235.129 1.44526 0
    endloop
  endfacet
  facet normal -0.905247 -0.424886 0
    outer loop
      vertex 235.129 1.44526 6
      vertex 235.289 1.10437 0
      vertex 235.289 1.10437 6
    endloop
  endfacet
  facet normal -0.982577 -0.185858 0
    outer loop
      vertex 235.476 0.375999 0
      vertex 235.406 0.746069 6
      vertex 235.406 0.746069 0
    endloop
  endfacet
  facet normal -0.982577 -0.185858 0
    outer loop
      vertex 235.406 0.746069 6
      vertex 235.476 0.375999 0
      vertex 235.476 0.375999 6
    endloop
  endfacet
  facet normal -0.368389 -0.929672 0
    outer loop
      vertex 233.427 2.85317 0
      vertex 233.777 2.71448 6
      vertex 233.427 2.85317 6
    endloop
  endfacet
  facet normal -0.368389 -0.929672 -0
    outer loop
      vertex 233.777 2.71448 6
      vertex 233.427 2.85317 0
      vertex 233.777 2.71448 0
    endloop
  endfacet
  facet normal -0.587515 -0.809213 0
    outer loop
      vertex 234.107 2.53298 0
      vertex 234.412 2.31154 6
      vertex 234.107 2.53298 6
    endloop
  endfacet
  facet normal -0.587515 -0.809213 -0
    outer loop
      vertex 234.412 2.31154 6
      vertex 234.107 2.53298 0
      vertex 234.412 2.31154 0
    endloop
  endfacet
  facet normal 0.950603 -0.310411 0
    outer loop
      vertex 229.594 0.746069 6
      vertex 229.711 1.10437 0
      vertex 229.711 1.10437 6
    endloop
  endfacet
  facet normal 0.950603 -0.310411 0
    outer loop
      vertex 229.711 1.10437 0
      vertex 229.594 0.746069 6
      vertex 229.594 0.746069 0
    endloop
  endfacet
  facet normal 0.844175 -0.536068 0
    outer loop
      vertex 229.871 1.44526 6
      vertex 230.073 1.76336 0
      vertex 230.073 1.76336 6
    endloop
  endfacet
  facet normal 0.844175 -0.536068 0
    outer loop
      vertex 230.073 1.76336 0
      vertex 229.871 1.44526 6
      vertex 229.871 1.44526 0
    endloop
  endfacet
  facet normal 0.587515 -0.809213 0
    outer loop
      vertex 230.588 2.31154 0
      vertex 230.893 2.53298 6
      vertex 230.588 2.31154 6
    endloop
  endfacet
  facet normal 0.587515 -0.809213 0
    outer loop
      vertex 230.893 2.53298 6
      vertex 230.588 2.31154 0
      vertex 230.893 2.53298 0
    endloop
  endfacet
  facet normal 0.248625 -0.9686 0
    outer loop
      vertex 231.573 2.85317 0
      vertex 231.938 2.94686 6
      vertex 231.573 2.85317 6
    endloop
  endfacet
  facet normal 0.248625 -0.9686 0
    outer loop
      vertex 231.938 2.94686 6
      vertex 231.573 2.85317 0
      vertex 231.938 2.94686 0
    endloop
  endfacet
  facet normal -0.248625 0.9686 0
    outer loop
      vertex 233.427 -2.85317 0
      vertex 233.062 -2.94686 6
      vertex 233.427 -2.85317 6
    endloop
  endfacet
  facet normal -0.248625 0.9686 0
    outer loop
      vertex 233.062 -2.94686 6
      vertex 233.427 -2.85317 0
      vertex 233.062 -2.94686 0
    endloop
  endfacet
  facet normal -0.481919 0.876216 0
    outer loop
      vertex 234.107 -2.53298 0
      vertex 233.777 -2.71448 6
      vertex 234.107 -2.53298 6
    endloop
  endfacet
  facet normal -0.481919 0.876216 0
    outer loop
      vertex 233.777 -2.71448 6
      vertex 234.107 -2.53298 0
      vertex 233.777 -2.71448 0
    endloop
  endfacet
  facet normal -0.950603 -0.310411 0
    outer loop
      vertex 235.406 0.746069 0
      vertex 235.289 1.10437 6
      vertex 235.289 1.10437 0
    endloop
  endfacet
  facet normal -0.950603 -0.310411 0
    outer loop
      vertex 235.289 1.10437 6
      vertex 235.406 0.746069 0
      vertex 235.406 0.746069 6
    endloop
  endfacet
  facet normal -0.770696 -0.637202 0
    outer loop
      vertex 234.927 1.76336 0
      vertex 234.687 2.05364 6
      vertex 234.687 2.05364 0
    endloop
  endfacet
  facet normal -0.770696 -0.637202 0
    outer loop
      vertex 234.687 2.05364 6
      vertex 234.927 1.76336 0
      vertex 234.927 1.76336 6
    endloop
  endfacet
  facet normal -0.844175 -0.536068 0
    outer loop
      vertex 235.129 1.44526 0
      vertex 234.927 1.76336 6
      vertex 234.927 1.76336 0
    endloop
  endfacet
  facet normal -0.844175 -0.536068 0
    outer loop
      vertex 234.927 1.76336 6
      vertex 235.129 1.44526 0
      vertex 235.129 1.44526 6
    endloop
  endfacet
  facet normal -0.125262 -0.992124 0
    outer loop
      vertex 232.688 2.99408 0
      vertex 233.062 2.94686 6
      vertex 232.688 2.99408 6
    endloop
  endfacet
  facet normal -0.125262 -0.992124 -0
    outer loop
      vertex 233.062 2.94686 6
      vertex 232.688 2.99408 0
      vertex 233.062 2.94686 0
    endloop
  endfacet
  facet normal -0.248625 -0.9686 0
    outer loop
      vertex 233.062 2.94686 0
      vertex 233.427 2.85317 6
      vertex 233.062 2.94686 6
    endloop
  endfacet
  facet normal -0.248625 -0.9686 -0
    outer loop
      vertex 233.427 2.85317 6
      vertex 233.062 2.94686 0
      vertex 233.427 2.85317 0
    endloop
  endfacet
  facet normal 0 -1 0
    outer loop
      vertex 232.312 2.99408 0
      vertex 232.688 2.99408 6
      vertex 232.312 2.99408 6
    endloop
  endfacet
  facet normal 0 -1 -0
    outer loop
      vertex 232.688 2.99408 6
      vertex 232.312 2.99408 0
      vertex 232.688 2.99408 0
    endloop
  endfacet
  facet normal -0.481919 -0.876216 0
    outer loop
      vertex 233.777 2.71448 0
      vertex 234.107 2.53298 6
      vertex 233.777 2.71448 6
    endloop
  endfacet
  facet normal -0.481919 -0.876216 -0
    outer loop
      vertex 234.107 2.53298 6
      vertex 233.777 2.71448 0
      vertex 234.107 2.53298 0
    endloop
  endfacet
  facet normal 0.905247 -0.424886 0
    outer loop
      vertex 229.711 1.10437 6
      vertex 229.871 1.44526 0
      vertex 229.871 1.44526 6
    endloop
  endfacet
  facet normal 0.905247 -0.424886 0
    outer loop
      vertex 229.871 1.44526 0
      vertex 229.711 1.10437 6
      vertex 229.711 1.10437 0
    endloop
  endfacet
  facet normal 0.982577 -0.185858 0
    outer loop
      vertex 229.524 0.375999 6
      vertex 229.594 0.746069 0
      vertex 229.594 0.746069 6
    endloop
  endfacet
  facet normal 0.982577 -0.185858 0
    outer loop
      vertex 229.594 0.746069 0
      vertex 229.524 0.375999 6
      vertex 229.524 0.375999 0
    endloop
  endfacet
  facet normal 0.997969 -0.0637003 0
    outer loop
      vertex 229.5 0 6
      vertex 229.524 0.375999 0
      vertex 229.524 0.375999 6
    endloop
  endfacet
  facet normal 0.997969 -0.0637003 0
    outer loop
      vertex 229.524 0.375999 0
      vertex 229.5 0 6
      vertex 229.5 0 0
    endloop
  endfacet
  facet normal 0.997969 0.0637003 0
    outer loop
      vertex 229.524 -0.375999 6
      vertex 229.5 0 0
      vertex 229.5 0 6
    endloop
  endfacet
  facet normal 0.997969 0.0637003 0
    outer loop
      vertex 229.5 0 0
      vertex 229.524 -0.375999 6
      vertex 229.524 -0.375999 0
    endloop
  endfacet
  facet normal 0.684065 -0.729421 0
    outer loop
      vertex 230.313 2.05364 0
      vertex 230.588 2.31154 6
      vertex 230.313 2.05364 6
    endloop
  endfacet
  facet normal 0.684065 -0.729421 0
    outer loop
      vertex 230.588 2.31154 6
      vertex 230.313 2.05364 0
      vertex 230.588 2.31154 0
    endloop
  endfacet
  facet normal 0.368389 -0.929672 0
    outer loop
      vertex 231.223 2.71448 0
      vertex 231.573 2.85317 6
      vertex 231.223 2.71448 6
    endloop
  endfacet
  facet normal 0.368389 -0.929672 0
    outer loop
      vertex 231.573 2.85317 6
      vertex 231.223 2.71448 0
      vertex 231.573 2.85317 0
    endloop
  endfacet
  facet normal -0.997969 0.0637003 0
    outer loop
      vertex 235.476 -0.375999 0
      vertex 235.5 0 6
      vertex 235.5 0 0
    endloop
  endfacet
  facet normal -0.997969 0.0637003 0
    outer loop
      vertex 235.5 0 6
      vertex 235.476 -0.375999 0
      vertex 235.476 -0.375999 6
    endloop
  endfacet
  facet normal -0.844175 0.536068 0
    outer loop
      vertex 234.927 -1.76336 0
      vertex 235.129 -1.44526 6
      vertex 235.129 -1.44526 0
    endloop
  endfacet
  facet normal -0.844175 0.536068 0
    outer loop
      vertex 235.129 -1.44526 6
      vertex 234.927 -1.76336 0
      vertex 234.927 -1.76336 6
    endloop
  endfacet
  facet normal -0.982577 0.185858 0
    outer loop
      vertex 235.406 -0.746069 0
      vertex 235.476 -0.375999 6
      vertex 235.476 -0.375999 0
    endloop
  endfacet
  facet normal -0.982577 0.185858 0
    outer loop
      vertex 235.476 -0.375999 6
      vertex 235.406 -0.746069 0
      vertex 235.406 -0.746069 6
    endloop
  endfacet
  facet normal 0.587515 0.809213 -0
    outer loop
      vertex 230.893 -2.53298 0
      vertex 230.588 -2.31154 6
      vertex 230.893 -2.53298 6
    endloop
  endfacet
  facet normal 0.587515 0.809213 0
    outer loop
      vertex 230.588 -2.31154 6
      vertex 230.893 -2.53298 0
      vertex 230.588 -2.31154 0
    endloop
  endfacet
  facet normal 0.844175 0.536068 0
    outer loop
      vertex 230.073 -1.76336 6
      vertex 229.871 -1.44526 0
      vertex 229.871 -1.44526 6
    endloop
  endfacet
  facet normal 0.844175 0.536068 0
    outer loop
      vertex 229.871 -1.44526 0
      vertex 230.073 -1.76336 6
      vertex 230.073 -1.76336 0
    endloop
  endfacet
  facet normal 0.684065 0.729421 -0
    outer loop
      vertex 230.588 -2.31154 0
      vertex 230.313 -2.05364 6
      vertex 230.588 -2.31154 6
    endloop
  endfacet
  facet normal 0.684065 0.729421 0
    outer loop
      vertex 230.313 -2.05364 6
      vertex 230.588 -2.31154 0
      vertex 230.313 -2.05364 0
    endloop
  endfacet
  facet normal 0.982577 0.185858 0
    outer loop
      vertex 229.594 -0.746069 6
      vertex 229.524 -0.375999 0
      vertex 229.524 -0.375999 6
    endloop
  endfacet
  facet normal 0.982577 0.185858 0
    outer loop
      vertex 229.524 -0.375999 0
      vertex 229.594 -0.746069 6
      vertex 229.594 -0.746069 0
    endloop
  endfacet
  facet normal -0.587515 0.809213 0
    outer loop
      vertex 234.412 -2.31154 0
      vertex 234.107 -2.53298 6
      vertex 234.412 -2.31154 6
    endloop
  endfacet
  facet normal -0.587515 0.809213 0
    outer loop
      vertex 234.107 -2.53298 6
      vertex 234.412 -2.31154 0
      vertex 234.107 -2.53298 0
    endloop
  endfacet
  facet normal -0.905247 0.424886 0
    outer loop
      vertex 235.129 -1.44526 0
      vertex 235.289 -1.10437 6
      vertex 235.289 -1.10437 0
    endloop
  endfacet
  facet normal -0.905247 0.424886 0
    outer loop
      vertex 235.289 -1.10437 6
      vertex 235.129 -1.44526 0
      vertex 235.129 -1.44526 6
    endloop
  endfacet
  facet normal 0.248625 0.9686 -0
    outer loop
      vertex 231.938 -2.94686 0
      vertex 231.573 -2.85317 6
      vertex 231.938 -2.94686 6
    endloop
  endfacet
  facet normal 0.248625 0.9686 0
    outer loop
      vertex 231.573 -2.85317 6
      vertex 231.938 -2.94686 0
      vertex 231.573 -2.85317 0
    endloop
  endfacet
  facet normal 0.368389 0.929672 -0
    outer loop
      vertex 231.573 -2.85317 0
      vertex 231.223 -2.71448 6
      vertex 231.573 -2.85317 6
    endloop
  endfacet
  facet normal 0.368389 0.929672 0
    outer loop
      vertex 231.223 -2.71448 6
      vertex 231.573 -2.85317 0
      vertex 231.223 -2.71448 0
    endloop
  endfacet
  facet normal 0.950603 0.310411 0
    outer loop
      vertex 229.711 -1.10437 6
      vertex 229.594 -0.746069 0
      vertex 229.594 -0.746069 6
    endloop
  endfacet
  facet normal 0.950603 0.310411 0
    outer loop
      vertex 229.594 -0.746069 0
      vertex 229.711 -1.10437 6
      vertex 229.711 -1.10437 0
    endloop
  endfacet
  facet normal 0.905247 0.424886 0
    outer loop
      vertex 229.871 -1.44526 6
      vertex 229.711 -1.10437 0
      vertex 229.711 -1.10437 6
    endloop
  endfacet
  facet normal 0.905247 0.424886 0
    outer loop
      vertex 229.711 -1.10437 0
      vertex 229.871 -1.44526 6
      vertex 229.871 -1.44526 0
    endloop
  endfacet
  facet normal -0.684065 0.729421 0
    outer loop
      vertex 234.687 -2.05364 0
      vertex 234.412 -2.31154 6
      vertex 234.687 -2.05364 6
    endloop
  endfacet
  facet normal -0.684065 0.729421 0
    outer loop
      vertex 234.412 -2.31154 6
      vertex 234.687 -2.05364 0
      vertex 234.412 -2.31154 0
    endloop
  endfacet
  facet normal -0.368389 0.929672 0
    outer loop
      vertex 233.777 -2.71448 0
      vertex 233.427 -2.85317 6
      vertex 233.777 -2.71448 6
    endloop
  endfacet
  facet normal -0.368389 0.929672 0
    outer loop
      vertex 233.427 -2.85317 6
      vertex 233.777 -2.71448 0
      vertex 233.427 -2.85317 0
    endloop
  endfacet
  facet normal 0 1 -0
    outer loop
      vertex 232.688 -2.99408 0
      vertex 232.312 -2.99408 6
      vertex 232.688 -2.99408 6
    endloop
  endfacet
  facet normal 0 1 0
    outer loop
      vertex 232.312 -2.99408 6
      vertex 232.688 -2.99408 0
      vertex 232.312 -2.99408 0
    endloop
  endfacet
  facet normal 0.481919 0.876216 -0
    outer loop
      vertex 231.223 -2.71448 0
      vertex 230.893 -2.53298 6
      vertex 231.223 -2.71448 6
    endloop
  endfacet
  facet normal 0.481919 0.876216 0
    outer loop
      vertex 230.893 -2.53298 6
      vertex 231.223 -2.71448 0
      vertex 230.893 -2.53298 0
    endloop
  endfacet
  facet normal 0.770696 0.637202 0
    outer loop
      vertex 230.313 -2.05364 6
      vertex 230.073 -1.76336 0
      vertex 230.073 -1.76336 6
    endloop
  endfacet
  facet normal 0.770696 0.637202 0
    outer loop
      vertex 230.073 -1.76336 0
      vertex 230.313 -2.05364 6
      vertex 230.313 -2.05364 0
    endloop
  endfacet
  facet normal 0.125262 0.992124 -0
    outer loop
      vertex 232.312 -2.99408 0
      vertex 231.938 -2.94686 6
      vertex 232.312 -2.99408 6
    endloop
  endfacet
  facet normal 0.125262 0.992124 0
    outer loop
      vertex 231.938 -2.94686 6
      vertex 232.312 -2.99408 0
      vertex 231.938 -2.94686 0
    endloop
  endfacet
  facet normal -1 0 0
    outer loop
      vertex -239.5 -2 0
      vertex -239.5 2 6
      vertex -239.5 2 0
    endloop
  endfacet
  facet normal -1 -0 0
    outer loop
      vertex -239.5 2 6
      vertex -239.5 -2 0
      vertex -239.5 -2 6
    endloop
  endfacet
  facet normal 0 1 -0
    outer loop
      vertex 234.814 6.99013 0
      vertex -234.814 6.99013 6
      vertex 234.814 6.99013 6
    endloop
  endfacet
  facet normal 0 1 0
    outer loop
      vertex -234.814 6.99013 6
      vertex 234.814 6.99013 0
      vertex -234.814 6.99013 0
    endloop
  endfacet
  facet normal 0 -1 0
    outer loop
      vertex -234.814 -6.99013 0
      vertex 234.814 -6.99013 6
      vertex -234.814 -6.99013 6
    endloop
  endfacet
  facet normal 0 -1 -0
    outer loop
      vertex 234.814 -6.99013 6
      vertex -234.814 -6.99013 0
      vertex 234.814 -6.99013 0
    endloop
  endfacet
  facet normal -0.998069 0.0621135 0
    outer loop
      vertex -239.5 2 0
      vertex -239.461 2.62667 6
      vertex -239.461 2.62667 0
    endloop
  endfacet
  facet normal -0.998069 0.0621135 0
    outer loop
      vertex -239.461 2.62667 6
      vertex -239.5 2 0
      vertex -239.5 2 6
    endloop
  endfacet
  facet normal -0.684327 -0.729176 0
    outer loop
      vertex -238.145 -5.42274 0
      vertex -237.687 -5.85257 6
      vertex -238.145 -5.42274 6
    endloop
  endfacet
  facet normal -0.684327 -0.729176 -0
    outer loop
      vertex -237.687 -5.85257 6
      vertex -238.145 -5.42274 0
      vertex -237.687 -5.85257 0
    endloop
  endfacet
  facet normal 0.998069 -0.0621135 0
    outer loop
      vertex 239.461 -2.62667 6
      vertex 239.5 -2 0
      vertex 239.5 -2 6
    endloop
  endfacet
  facet normal 0.998069 -0.0621135 0
    outer loop
      vertex 239.5 -2 0
      vertex 239.461 -2.62667 6
      vertex 239.461 -2.62667 0
    endloop
  endfacet
  facet normal 0.125313 -0.992117 0
    outer loop
      vertex 234.814 -6.99013 0
      vertex 235.437 -6.91144 6
      vertex 234.814 -6.99013 6
    endloop
  endfacet
  facet normal 0.125313 -0.992117 0
    outer loop
      vertex 235.437 -6.91144 6
      vertex 234.814 -6.99013 0
      vertex 235.437 -6.91144 0
    endloop
  endfacet
  facet normal 0.905042 0.425321 0
    outer loop
      vertex 239.149 3.84062 6
      vertex 238.882 4.40877 0
      vertex 238.882 4.40877 6
    endloop
  endfacet
  facet normal 0.905042 0.425321 0
    outer loop
      vertex 238.882 4.40877 0
      vertex 239.149 3.84062 6
      vertex 239.149 3.84062 0
    endloop
  endfacet
  facet normal 0.368026 0.929816 -0
    outer loop
      vertex 236.629 6.52413 0
      vertex 236.045 6.75528 6
      vertex 236.629 6.52413 6
    endloop
  endfacet
  facet normal 0.368026 0.929816 0
    outer loop
      vertex 236.045 6.75528 6
      vertex 236.629 6.52413 0
      vertex 236.045 6.75528 0
    endloop
  endfacet
  facet normal 0.248768 0.968563 -0
    outer loop
      vertex 236.045 6.75528 0
      vertex 235.437 6.91144 6
      vertex 236.045 6.75528 6
    endloop
  endfacet
  facet normal 0.248768 0.968563 0
    outer loop
      vertex 235.437 6.91144 6
      vertex 236.045 6.75528 0
      vertex 235.437 6.91144 0
    endloop
  endfacet
  facet normal -0.481907 0.876223 0
    outer loop
      vertex -236.629 6.52413 0
      vertex -237.179 6.22164 6
      vertex -236.629 6.52413 6
    endloop
  endfacet
  facet normal -0.481907 0.876223 0
    outer loop
      vertex -237.179 6.22164 6
      vertex -236.629 6.52413 0
      vertex -237.179 6.22164 0
    endloop
  endfacet
  facet normal -0.125313 0.992117 0
    outer loop
      vertex -234.814 6.99013 0
      vertex -235.437 6.91144 6
      vertex -234.814 6.99013 6
    endloop
  endfacet
  facet normal -0.125313 0.992117 0
    outer loop
      vertex -235.437 6.91144 6
      vertex -234.814 6.99013 0
      vertex -235.437 6.91144 0
    endloop
  endfacet
  facet normal -0.951072 0.30897 0
    outer loop
      vertex -239.343 3.24345 0
      vertex -239.149 3.84062 6
      vertex -239.149 3.84062 0
    endloop
  endfacet
  facet normal -0.951072 0.30897 0
    outer loop
      vertex -239.149 3.84062 6
      vertex -239.343 3.24345 0
      vertex -239.343 3.24345 6
    endloop
  endfacet
  facet normal -0.951072 -0.30897 0
    outer loop
      vertex -239.149 -3.84062 0
      vertex -239.343 -3.24345 6
      vertex -239.343 -3.24345 0
    endloop
  endfacet
  facet normal -0.951072 -0.30897 0
    outer loop
      vertex -239.343 -3.24345 6
      vertex -239.149 -3.84062 0
      vertex -239.149 -3.84062 6
    endloop
  endfacet
  facet normal -0.368026 -0.929816 0
    outer loop
      vertex -236.629 -6.52413 0
      vertex -236.045 -6.75528 6
      vertex -236.629 -6.52413 6
    endloop
  endfacet
  facet normal -0.368026 -0.929816 -0
    outer loop
      vertex -236.045 -6.75528 6
      vertex -236.629 -6.52413 0
      vertex -236.045 -6.75528 0
    endloop
  endfacet
  facet normal 0.770703 -0.637195 0
    outer loop
      vertex 238.145 -5.42274 6
      vertex 238.545 -4.93893 0
      vertex 238.545 -4.93893 6
    endloop
  endfacet
  facet normal 0.770703 -0.637195 0
    outer loop
      vertex 238.545 -4.93893 0
      vertex 238.145 -5.42274 6
      vertex 238.145 -5.42274 0
    endloop
  endfacet
  facet normal 0.951072 0.30897 0
    outer loop
      vertex 239.343 3.24345 6
      vertex 239.149 3.84062 0
      vertex 239.149 3.84062 6
    endloop
  endfacet
  facet normal 0.951072 0.30897 0
    outer loop
      vertex 239.149 3.84062 0
      vertex 239.343 3.24345 6
      vertex 239.343 3.24345 0
    endloop
  endfacet
  facet normal 0.843931 0.536451 0
    outer loop
      vertex 238.882 4.40877 6
      vertex 238.545 4.93893 0
      vertex 238.545 4.93893 6
    endloop
  endfacet
  facet normal 0.843931 0.536451 0
    outer loop
      vertex 238.545 4.93893 0
      vertex 238.882 4.40877 6
      vertex 238.882 4.40877 0
    endloop
  endfacet
  facet normal 0.684327 0.729176 -0
    outer loop
      vertex 238.145 5.42274 0
      vertex 237.687 5.85257 6
      vertex 238.145 5.42274 6
    endloop
  endfacet
  facet normal 0.684327 0.729176 0
    outer loop
      vertex 237.687 5.85257 6
      vertex 238.145 5.42274 0
      vertex 237.687 5.85257 0
    endloop
  endfacet
  facet normal 0.125313 0.992117 -0
    outer loop
      vertex 235.437 6.91144 0
      vertex 234.814 6.99013 6
      vertex 235.437 6.91144 6
    endloop
  endfacet
  facet normal 0.125313 0.992117 0
    outer loop
      vertex 234.814 6.99013 6
      vertex 235.437 6.91144 0
      vertex 234.814 6.99013 0
    endloop
  endfacet
  facet normal -0.843931 0.536451 0
    outer loop
      vertex -238.882 4.40877 0
      vertex -238.545 4.93893 6
      vertex -238.545 4.93893 0
    endloop
  endfacet
  facet normal -0.843931 0.536451 0
    outer loop
      vertex -238.545 4.93893 6
      vertex -238.882 4.40877 0
      vertex -238.882 4.40877 6
    endloop
  endfacet
  facet normal -0.998069 -0.0621135 0
    outer loop
      vertex -239.461 -2.62667 0
      vertex -239.5 -2 6
      vertex -239.5 -2 0
    endloop
  endfacet
  facet normal -0.998069 -0.0621135 0
    outer loop
      vertex -239.5 -2 6
      vertex -239.461 -2.62667 0
      vertex -239.461 -2.62667 6
    endloop
  endfacet
  facet normal -0.770703 -0.637195 0
    outer loop
      vertex -238.145 -5.42274 0
      vertex -238.545 -4.93893 6
      vertex -238.545 -4.93893 0
    endloop
  endfacet
  facet normal -0.770703 -0.637195 0
    outer loop
      vertex -238.545 -4.93893 6
      vertex -238.145 -5.42274 0
      vertex -238.145 -5.42274 6
    endloop
  endfacet
  facet normal -0.905042 -0.425321 0
    outer loop
      vertex -238.882 -4.40877 0
      vertex -239.149 -3.84062 6
      vertex -239.149 -3.84062 0
    endloop
  endfacet
  facet normal -0.905042 -0.425321 0
    outer loop
      vertex -239.149 -3.84062 6
      vertex -238.882 -4.40877 0
      vertex -238.882 -4.40877 6
    endloop
  endfacet
  facet normal -0.587771 -0.809027 0
    outer loop
      vertex -237.687 -5.85257 0
      vertex -237.179 -6.22164 6
      vertex -237.687 -5.85257 6
    endloop
  endfacet
  facet normal -0.587771 -0.809027 -0
    outer loop
      vertex -237.179 -6.22164 6
      vertex -237.687 -5.85257 0
      vertex -237.179 -6.22164 0
    endloop
  endfacet
  facet normal -0.248768 -0.968563 0
    outer loop
      vertex -236.045 -6.75528 0
      vertex -235.437 -6.91144 6
      vertex -236.045 -6.75528 6
    endloop
  endfacet
  facet normal -0.248768 -0.968563 -0
    outer loop
      vertex -235.437 -6.91144 6
      vertex -236.045 -6.75528 0
      vertex -235.437 -6.91144 0
    endloop
  endfacet
  facet normal -0.125313 -0.992117 0
    outer loop
      vertex -235.437 -6.91144 0
      vertex -234.814 -6.99013 6
      vertex -235.437 -6.91144 6
    endloop
  endfacet
  facet normal -0.125313 -0.992117 -0
    outer loop
      vertex -234.814 -6.99013 6
      vertex -235.437 -6.91144 0
      vertex -234.814 -6.99013 0
    endloop
  endfacet
  facet normal 1 -0 0
    outer loop
      vertex 239.5 -2 6
      vertex 239.5 2 0
      vertex 239.5 2 6
    endloop
  endfacet
  facet normal 1 0 0
    outer loop
      vertex 239.5 2 0
      vertex 239.5 -2 6
      vertex 239.5 -2 0
    endloop
  endfacet
  facet normal 0.982187 -0.187908 0
    outer loop
      vertex 239.343 -3.24345 6
      vertex 239.461 -2.62667 0
      vertex 239.461 -2.62667 6
    endloop
  endfacet
  facet normal 0.982187 -0.187908 0
    outer loop
      vertex 239.461 -2.62667 0
      vertex 239.343 -3.24345 6
      vertex 239.343 -3.24345 0
    endloop
  endfacet
  facet normal 0.905042 -0.425321 0
    outer loop
      vertex 238.882 -4.40877 6
      vertex 239.149 -3.84062 0
      vertex 239.149 -3.84062 6
    endloop
  endfacet
  facet normal 0.905042 -0.425321 0
    outer loop
      vertex 239.149 -3.84062 0
      vertex 238.882 -4.40877 6
      vertex 238.882 -4.40877 0
    endloop
  endfacet
  facet normal 0.587771 -0.809027 0
    outer loop
      vertex 237.179 -6.22164 0
      vertex 237.687 -5.85257 6
      vertex 237.179 -6.22164 6
    endloop
  endfacet
  facet normal 0.587771 -0.809027 0
    outer loop
      vertex 237.687 -5.85257 6
      vertex 237.179 -6.22164 0
      vertex 237.687 -5.85257 0
    endloop
  endfacet
  facet normal 0.368026 -0.929816 0
    outer loop
      vertex 236.045 -6.75528 0
      vertex 236.629 -6.52413 6
      vertex 236.045 -6.75528 6
    endloop
  endfacet
  facet normal 0.368026 -0.929816 0
    outer loop
      vertex 236.629 -6.52413 6
      vertex 236.045 -6.75528 0
      vertex 236.629 -6.52413 0
    endloop
  endfacet
  facet normal 0.770703 0.637195 0
    outer loop
      vertex 238.545 4.93893 6
      vertex 238.145 5.42274 0
      vertex 238.145 5.42274 6
    endloop
  endfacet
  facet normal 0.770703 0.637195 0
    outer loop
      vertex 238.145 5.42274 0
      vertex 238.545 4.93893 6
      vertex 238.545 4.93893 0
    endloop
  endfacet
  facet normal 0.587771 0.809027 -0
    outer loop
      vertex 237.687 5.85257 0
      vertex 237.179 6.22164 6
      vertex 237.687 5.85257 6
    endloop
  endfacet
  facet normal 0.587771 0.809027 0
    outer loop
      vertex 237.179 6.22164 6
      vertex 237.687 5.85257 0
      vertex 237.179 6.22164 0
    endloop
  endfacet
  facet normal 0.481907 0.876223 -0
    outer loop
      vertex 237.179 6.22164 0
      vertex 236.629 6.52413 6
      vertex 237.179 6.22164 6
    endloop
  endfacet
  facet normal 0.481907 0.876223 0
    outer loop
      vertex 236.629 6.52413 6
      vertex 237.179 6.22164 0
      vertex 236.629 6.52413 0
    endloop
  endfacet
  facet normal -0.248768 0.968563 0
    outer loop
      vertex -235.437 6.91144 0
      vertex -236.045 6.75528 6
      vertex -235.437 6.91144 6
    endloop
  endfacet
  facet normal -0.248768 0.968563 0
    outer loop
      vertex -236.045 6.75528 6
      vertex -235.437 6.91144 0
      vertex -236.045 6.75528 0
    endloop
  endfacet
  facet normal -0.982187 0.187908 0
    outer loop
      vertex -239.461 2.62667 0
      vertex -239.343 3.24345 6
      vertex -239.343 3.24345 0
    endloop
  endfacet
  facet normal -0.982187 0.187908 0
    outer loop
      vertex -239.343 3.24345 6
      vertex -239.461 2.62667 0
      vertex -239.461 2.62667 6
    endloop
  endfacet
  facet normal -0.982187 -0.187908 0
    outer loop
      vertex -239.343 -3.24345 0
      vertex -239.461 -2.62667 6
      vertex -239.461 -2.62667 0
    endloop
  endfacet
  facet normal -0.982187 -0.187908 0
    outer loop
      vertex -239.461 -2.62667 6
      vertex -239.343 -3.24345 0
      vertex -239.343 -3.24345 6
    endloop
  endfacet
  facet normal -0.843931 -0.536451 0
    outer loop
      vertex -238.545 -4.93893 0
      vertex -238.882 -4.40877 6
      vertex -238.882 -4.40877 0
    endloop
  endfacet
  facet normal -0.843931 -0.536451 0
    outer loop
      vertex -238.882 -4.40877 6
      vertex -238.545 -4.93893 0
      vertex -238.545 -4.93893 6
    endloop
  endfacet
  facet normal -0.481907 -0.876223 0
    outer loop
      vertex -237.179 -6.22164 0
      vertex -236.629 -6.52413 6
      vertex -237.179 -6.22164 6
    endloop
  endfacet
  facet normal -0.481907 -0.876223 -0
    outer loop
      vertex -236.629 -6.52413 6
      vertex -237.179 -6.22164 0
      vertex -236.629 -6.52413 0
    endloop
  endfacet
  facet normal 0.843931 -0.536451 0
    outer loop
      vertex 238.545 -4.93893 6
      vertex 238.882 -4.40877 0
      vertex 238.882 -4.40877 6
    endloop
  endfacet
  facet normal 0.843931 -0.536451 0
    outer loop
      vertex 238.882 -4.40877 0
      vertex 238.545 -4.93893 6
      vertex 238.545 -4.93893 0
    endloop
  endfacet
  facet normal 0.684327 -0.729176 0
    outer loop
      vertex 237.687 -5.85257 0
      vertex 238.145 -5.42274 6
      vertex 237.687 -5.85257 6
    endloop
  endfacet
  facet normal 0.684327 -0.729176 0
    outer loop
      vertex 238.145 -5.42274 6
      vertex 237.687 -5.85257 0
      vertex 238.145 -5.42274 0
    endloop
  endfacet
  facet normal 0.248768 -0.968563 0
    outer loop
      vertex 235.437 -6.91144 0
      vertex 236.045 -6.75528 6
      vertex 235.437 -6.91144 6
    endloop
  endfacet
  facet normal 0.248768 -0.968563 0
    outer loop
      vertex 236.045 -6.75528 6
      vertex 235.437 -6.91144 0
      vertex 236.045 -6.75528 0
    endloop
  endfacet
  facet normal 0.481907 -0.876223 0
    outer loop
      vertex 236.629 -6.52413 0
      vertex 237.179 -6.22164 6
      vertex 236.629 -6.52413 6
    endloop
  endfacet
  facet normal 0.481907 -0.876223 0
    outer loop
      vertex 237.179 -6.22164 6
      vertex 236.629 -6.52413 0
      vertex 237.179 -6.22164 0
    endloop
  endfacet
  facet normal -0.684327 0.729176 0
    outer loop
      vertex -237.687 5.85257 0
      vertex -238.145 5.42274 6
      vertex -237.687 5.85257 6
    endloop
  endfacet
  facet normal -0.684327 0.729176 0
    outer loop
      vertex -238.145 5.42274 6
      vertex -237.687 5.85257 0
      vertex -238.145 5.42274 0
    endloop
  endfacet
  facet normal -0.587771 0.809027 0
    outer loop
      vertex -237.179 6.22164 0
      vertex -237.687 5.85257 6
      vertex -237.179 6.22164 6
    endloop
  endfacet
  facet normal -0.587771 0.809027 0
    outer loop
      vertex -237.687 5.85257 6
      vertex -237.179 6.22164 0
      vertex -237.687 5.85257 0
    endloop
  endfacet
  facet normal -0.770703 0.637195 0
    outer loop
      vertex -238.545 4.93893 0
      vertex -238.145 5.42274 6
      vertex -238.145 5.42274 0
    endloop
  endfacet
  facet normal -0.770703 0.637195 0
    outer loop
      vertex -238.145 5.42274 6
      vertex -238.545 4.93893 0
      vertex -238.545 4.93893 6
    endloop
  endfacet
  facet normal -0.368026 0.929816 0
    outer loop
      vertex -236.045 6.75528 0
      vertex -236.629 6.52413 6
      vertex -236.045 6.75528 6
    endloop
  endfacet
  facet normal -0.368026 0.929816 0
    outer loop
      vertex -236.629 6.52413 6
      vertex -236.045 6.75528 0
      vertex -236.629 6.52413 0
    endloop
  endfacet
  facet normal 0.982187 0.187908 0
    outer loop
      vertex 239.461 2.62667 6
      vertex 239.343 3.24345 0
      vertex 239.343 3.24345 6
    endloop
  endfacet
  facet normal 0.982187 0.187908 0
    outer loop
      vertex 239.343 3.24345 0
      vertex 239.461 2.62667 6
      vertex 239.461 2.62667 0
    endloop
  endfacet
  facet normal 0.998069 0.0621135 0
    outer loop
      vertex 239.5 2 6
      vertex 239.461 2.62667 0
      vertex 239.461 2.62667 6
    endloop
  endfacet
  facet normal 0.998069 0.0621135 0
    outer loop
      vertex 239.461 2.62667 0
      vertex 239.5 2 6
      vertex 239.5 2 0
    endloop
  endfacet
  facet normal 0.951072 -0.30897 0
    outer loop
      vertex 239.149 -3.84062 6
      vertex 239.343 -3.24345 0
      vertex 239.343 -3.24345 6
    endloop
  endfacet
  facet normal 0.951072 -0.30897 0
    outer loop
      vertex 239.343 -3.24345 0
      vertex 239.149 -3.84062 6
      vertex 239.149 -3.84062 0
    endloop
  endfacet
  facet normal -0.905042 0.425321 0
    outer loop
      vertex -239.149 3.84062 0
      vertex -238.882 4.40877 6
      vertex -238.882 4.40877 0
    endloop
  endfacet
  facet normal -0.905042 0.425321 0
    outer loop
      vertex -238.882 4.40877 6
      vertex -239.149 3.84062 0
      vertex -239.149 3.84062 6
    endloop
  endfacet
endsolid OpenSCAD_Model
