  0
SECTION
  2
BLOCKS
  0
ENDSEC
  0
SECTION
  2
ENTITIES
  0
LINE
  8
0
 10
130.437
 20
176.089
 11
131.045
 21
176.245
  0
LINE
  8
0
 10
131.045
 20
176.245
 11
131.629
 21
176.476
  0
LINE
  8
0
 10
131.629
 20
176.476
 11
132.179
 21
176.778
  0
LINE
  8
0
 10
132.179
 20
176.778
 11
132.687
 21
177.147
  0
LINE
  8
0
 10
132.687
 20
177.147
 11
133.145
 21
177.577
  0
LINE
  8
0
 10
133.145
 20
177.577
 11
133.545
 21
178.061
  0
LINE
  8
0
 10
133.545
 20
178.061
 11
133.882
 21
178.591
  0
LINE
  8
0
 10
133.882
 20
178.591
 11
134.149
 21
179.159
  0
LINE
  8
0
 10
134.149
 20
179.159
 11
134.343
 21
179.757
  0
LINE
  8
0
 10
134.343
 20
179.757
 11
134.461
 21
180.373
  0
LINE
  8
0
 10
134.461
 20
180.373
 11
134.5
 21
181
  0
LINE
  8
0
 10
134.5
 20
181
 11
134.5
 21
275
  0
LINE
  8
0
 10
134.5
 20
275
 11
134.461
 21
275.627
  0
LINE
  8
0
 10
134.461
 20
275.627
 11
134.343
 21
276.243
  0
LINE
  8
0
 10
134.343
 20
276.243
 11
134.149
 21
276.841
  0
LINE
  8
0
 10
134.149
 20
276.841
 11
133.882
 21
277.409
  0
LINE
  8
0
 10
133.882
 20
277.409
 11
133.545
 21
277.939
  0
LINE
  8
0
 10
133.545
 20
277.939
 11
133.145
 21
278.423
  0
LINE
  8
0
 10
133.145
 20
278.423
 11
132.687
 21
278.853
  0
LINE
  8
0
 10
132.687
 20
278.853
 11
132.179
 21
279.222
  0
LINE
  8
0
 10
132.179
 20
279.222
 11
131.629
 21
279.524
  0
LINE
  8
0
 10
131.629
 20
279.524
 11
131.045
 21
279.755
  0
LINE
  8
0
 10
131.045
 20
279.755
 11
130.437
 21
279.911
  0
LINE
  8
0
 10
130.437
 20
279.911
 11
129.814
 21
279.99
  0
LINE
  8
0
 10
129.814
 20
279.99
 11
-129.814
 21
279.99
  0
LINE
  8
0
 10
-129.814
 20
279.99
 11
-130.437
 21
279.911
  0
LINE
  8
0
 10
-130.437
 20
279.911
 11
-131.045
 21
279.755
  0
LINE
  8
0
 10
-131.045
 20
279.755
 11
-131.629
 21
279.524
  0
LINE
  8
0
 10
-131.629
 20
279.524
 11
-132.179
 21
279.222
  0
LINE
  8
0
 10
-132.179
 20
279.222
 11
-132.687
 21
278.853
  0
LINE
  8
0
 10
-132.687
 20
278.853
 11
-133.145
 21
278.423
  0
LINE
  8
0
 10
-133.145
 20
278.423
 11
-133.545
 21
277.939
  0
LINE
  8
0
 10
-133.545
 20
277.939
 11
-133.882
 21
277.409
  0
LINE
  8
0
 10
-133.882
 20
277.409
 11
-134.149
 21
276.841
  0
LINE
  8
0
 10
-134.149
 20
276.841
 11
-134.343
 21
276.243
  0
LINE
  8
0
 10
-134.343
 20
276.243
 11
-134.461
 21
275.627
  0
LINE
  8
0
 10
-134.461
 20
275.627
 11
-134.5
 21
275
  0
LINE
  8
0
 10
-134.5
 20
275
 11
-134.5
 21
181
  0
LINE
  8
0
 10
-134.5
 20
181
 11
-134.461
 21
180.373
  0
LINE
  8
0
 10
-134.461
 20
180.373
 11
-134.343
 21
179.757
  0
LINE
  8
0
 10
-134.343
 20
179.757
 11
-134.149
 21
179.159
  0
LINE
  8
0
 10
-134.149
 20
179.159
 11
-133.882
 21
178.591
  0
LINE
  8
0
 10
-133.882
 20
178.591
 11
-133.545
 21
178.061
  0
LINE
  8
0
 10
-133.545
 20
178.061
 11
-133.145
 21
177.577
  0
LINE
  8
0
 10
-133.145
 20
177.577
 11
-132.687
 21
177.147
  0
LINE
  8
0
 10
-132.687
 20
177.147
 11
-132.179
 21
176.778
  0
LINE
  8
0
 10
-132.179
 20
176.778
 11
-131.629
 21
176.476
  0
LINE
  8
0
 10
-131.629
 20
176.476
 11
-131.045
 21
176.245
  0
LINE
  8
0
 10
-131.045
 20
176.245
 11
-130.437
 21
176.089
  0
LINE
  8
0
 10
-130.437
 20
176.089
 11
-129.814
 21
176.01
  0
LINE
  8
0
 10
-129.814
 20
176.01
 11
129.814
 21
176.01
  0
LINE
  8
0
 10
129.814
 20
176.01
 11
130.437
 21
176.089
  0
LINE
  8
0
 10
-127.688
 20
270.006
 11
-128.062
 21
270.053
  0
LINE
  8
0
 10
-128.062
 20
270.053
 11
-128.427
 21
270.147
  0
LINE
  8
0
 10
-128.427
 20
270.147
 11
-128.777
 21
270.286
  0
LINE
  8
0
 10
-128.777
 20
270.286
 11
-129.107
 21
270.467
  0
LINE
  8
0
 10
-129.107
 20
270.467
 11
-129.412
 21
270.688
  0
LINE
  8
0
 10
-129.412
 20
270.688
 11
-129.687
 21
270.946
  0
LINE
  8
0
 10
-129.687
 20
270.946
 11
-129.927
 21
271.237
  0
LINE
  8
0
 10
-129.927
 20
271.237
 11
-130.129
 21
271.555
  0
LINE
  8
0
 10
-130.129
 20
271.555
 11
-130.289
 21
271.896
  0
LINE
  8
0
 10
-130.289
 20
271.896
 11
-130.406
 21
272.254
  0
LINE
  8
0
 10
-130.406
 20
272.254
 11
-130.476
 21
272.624
  0
LINE
  8
0
 10
-130.476
 20
272.624
 11
-130.5
 21
273
  0
LINE
  8
0
 10
-130.5
 20
273
 11
-130.476
 21
273.376
  0
LINE
  8
0
 10
-130.476
 20
273.376
 11
-130.406
 21
273.746
  0
LINE
  8
0
 10
-130.406
 20
273.746
 11
-130.289
 21
274.104
  0
LINE
  8
0
 10
-130.289
 20
274.104
 11
-130.129
 21
274.445
  0
LINE
  8
0
 10
-130.129
 20
274.445
 11
-129.927
 21
274.763
  0
LINE
  8
0
 10
-129.927
 20
274.763
 11
-129.687
 21
275.054
  0
LINE
  8
0
 10
-129.687
 20
275.054
 11
-129.412
 21
275.312
  0
LINE
  8
0
 10
-129.412
 20
275.312
 11
-129.107
 21
275.533
  0
LINE
  8
0
 10
-129.107
 20
275.533
 11
-128.777
 21
275.714
  0
LINE
  8
0
 10
-128.777
 20
275.714
 11
-128.427
 21
275.853
  0
LINE
  8
0
 10
-128.427
 20
275.853
 11
-128.062
 21
275.947
  0
LINE
  8
0
 10
-128.062
 20
275.947
 11
-127.688
 21
275.994
  0
LINE
  8
0
 10
-127.688
 20
275.994
 11
-127.312
 21
275.994
  0
LINE
  8
0
 10
-127.312
 20
275.994
 11
-126.938
 21
275.947
  0
LINE
  8
0
 10
-126.938
 20
275.947
 11
-126.573
 21
275.853
  0
LINE
  8
0
 10
-126.573
 20
275.853
 11
-126.223
 21
275.714
  0
LINE
  8
0
 10
-126.223
 20
275.714
 11
-125.893
 21
275.533
  0
LINE
  8
0
 10
-125.893
 20
275.533
 11
-125.588
 21
275.312
  0
LINE
  8
0
 10
-125.588
 20
275.312
 11
-125.313
 21
275.054
  0
LINE
  8
0
 10
-125.313
 20
275.054
 11
-125.073
 21
274.763
  0
LINE
  8
0
 10
-125.073
 20
274.763
 11
-124.871
 21
274.445
  0
LINE
  8
0
 10
-124.871
 20
274.445
 11
-124.711
 21
274.104
  0
LINE
  8
0
 10
-124.711
 20
274.104
 11
-124.594
 21
273.746
  0
LINE
  8
0
 10
-124.594
 20
273.746
 11
-124.524
 21
273.376
  0
LINE
  8
0
 10
-124.524
 20
273.376
 11
-124.5
 21
273
  0
LINE
  8
0
 10
-124.5
 20
273
 11
-124.524
 21
272.624
  0
LINE
  8
0
 10
-124.524
 20
272.624
 11
-124.594
 21
272.254
  0
LINE
  8
0
 10
-124.594
 20
272.254
 11
-124.711
 21
271.896
  0
LINE
  8
0
 10
-124.711
 20
271.896
 11
-124.871
 21
271.555
  0
LINE
  8
0
 10
-124.871
 20
271.555
 11
-125.073
 21
271.237
  0
LINE
  8
0
 10
-125.073
 20
271.237
 11
-125.313
 21
270.946
  0
LINE
  8
0
 10
-125.313
 20
270.946
 11
-125.588
 21
270.688
  0
LINE
  8
0
 10
-125.588
 20
270.688
 11
-125.893
 21
270.467
  0
LINE
  8
0
 10
-125.893
 20
270.467
 11
-126.223
 21
270.286
  0
LINE
  8
0
 10
-126.223
 20
270.286
 11
-126.573
 21
270.147
  0
LINE
  8
0
 10
-126.573
 20
270.147
 11
-126.938
 21
270.053
  0
LINE
  8
0
 10
-126.938
 20
270.053
 11
-127.312
 21
270.006
  0
LINE
  8
0
 10
-127.312
 20
270.006
 11
-127.688
 21
270.006
  0
LINE
  8
0
 10
-127.594
 20
264.003
 11
-127.781
 21
264.027
  0
LINE
  8
0
 10
-127.781
 20
264.027
 11
-127.964
 21
264.073
  0
LINE
  8
0
 10
-127.964
 20
264.073
 11
-128.139
 21
264.143
  0
LINE
  8
0
 10
-128.139
 20
264.143
 11
-128.304
 21
264.234
  0
LINE
  8
0
 10
-128.304
 20
264.234
 11
-128.456
 21
264.344
  0
LINE
  8
0
 10
-128.456
 20
264.344
 11
-128.593
 21
264.473
  0
LINE
  8
0
 10
-128.593
 20
264.473
 11
-128.714
 21
264.618
  0
LINE
  8
0
 10
-128.714
 20
264.618
 11
-128.814
 21
264.777
  0
LINE
  8
0
 10
-128.814
 20
264.777
 11
-128.895
 21
264.948
  0
LINE
  8
0
 10
-128.895
 20
264.948
 11
-128.953
 21
265.127
  0
LINE
  8
0
 10
-128.953
 20
265.127
 11
-128.988
 21
265.312
  0
LINE
  8
0
 10
-128.988
 20
265.312
 11
-129
 21
265.5
  0
LINE
  8
0
 10
-129
 20
265.5
 11
-128.988
 21
265.688
  0
LINE
  8
0
 10
-128.988
 20
265.688
 11
-128.953
 21
265.873
  0
LINE
  8
0
 10
-128.953
 20
265.873
 11
-128.895
 21
266.052
  0
LINE
  8
0
 10
-128.895
 20
266.052
 11
-128.814
 21
266.223
  0
LINE
  8
0
 10
-128.814
 20
266.223
 11
-128.714
 21
266.382
  0
LINE
  8
0
 10
-128.714
 20
266.382
 11
-128.593
 21
266.527
  0
LINE
  8
0
 10
-128.593
 20
266.527
 11
-128.456
 21
266.656
  0
LINE
  8
0
 10
-128.456
 20
266.656
 11
-128.304
 21
266.766
  0
LINE
  8
0
 10
-128.304
 20
266.766
 11
-128.139
 21
266.857
  0
LINE
  8
0
 10
-128.139
 20
266.857
 11
-127.964
 21
266.927
  0
LINE
  8
0
 10
-127.964
 20
266.927
 11
-127.781
 21
266.973
  0
LINE
  8
0
 10
-127.781
 20
266.973
 11
-127.594
 21
266.997
  0
LINE
  8
0
 10
-127.594
 20
266.997
 11
-127.406
 21
266.997
  0
LINE
  8
0
 10
-127.406
 20
266.997
 11
-127.219
 21
266.973
  0
LINE
  8
0
 10
-127.219
 20
266.973
 11
-127.036
 21
266.927
  0
LINE
  8
0
 10
-127.036
 20
266.927
 11
-126.861
 21
266.857
  0
LINE
  8
0
 10
-126.861
 20
266.857
 11
-126.696
 21
266.766
  0
LINE
  8
0
 10
-126.696
 20
266.766
 11
-126.544
 21
266.656
  0
LINE
  8
0
 10
-126.544
 20
266.656
 11
-126.407
 21
266.527
  0
LINE
  8
0
 10
-126.407
 20
266.527
 11
-126.286
 21
266.382
  0
LINE
  8
0
 10
-126.286
 20
266.382
 11
-126.186
 21
266.223
  0
LINE
  8
0
 10
-126.186
 20
266.223
 11
-126.105
 21
266.052
  0
LINE
  8
0
 10
-126.105
 20
266.052
 11
-126.047
 21
265.873
  0
LINE
  8
0
 10
-126.047
 20
265.873
 11
-126.012
 21
265.688
  0
LINE
  8
0
 10
-126.012
 20
265.688
 11
-126
 21
265.5
  0
LINE
  8
0
 10
-126
 20
265.5
 11
-126.012
 21
265.312
  0
LINE
  8
0
 10
-126.012
 20
265.312
 11
-126.047
 21
265.127
  0
LINE
  8
0
 10
-126.047
 20
265.127
 11
-126.105
 21
264.948
  0
LINE
  8
0
 10
-126.105
 20
264.948
 11
-126.186
 21
264.777
  0
LINE
  8
0
 10
-126.186
 20
264.777
 11
-126.286
 21
264.618
  0
LINE
  8
0
 10
-126.286
 20
264.618
 11
-126.407
 21
264.473
  0
LINE
  8
0
 10
-126.407
 20
264.473
 11
-126.544
 21
264.344
  0
LINE
  8
0
 10
-126.544
 20
264.344
 11
-126.696
 21
264.234
  0
LINE
  8
0
 10
-126.696
 20
264.234
 11
-126.861
 21
264.143
  0
LINE
  8
0
 10
-126.861
 20
264.143
 11
-127.036
 21
264.073
  0
LINE
  8
0
 10
-127.036
 20
264.073
 11
-127.219
 21
264.027
  0
LINE
  8
0
 10
-127.219
 20
264.027
 11
-127.406
 21
264.003
  0
LINE
  8
0
 10
-127.406
 20
264.003
 11
-127.594
 21
264.003
  0
LINE
  8
0
 10
-127.688
 20
255.006
 11
-128.062
 21
255.053
  0
LINE
  8
0
 10
-128.062
 20
255.053
 11
-128.427
 21
255.147
  0
LINE
  8
0
 10
-128.427
 20
255.147
 11
-128.777
 21
255.286
  0
LINE
  8
0
 10
-128.777
 20
255.286
 11
-129.107
 21
255.467
  0
LINE
  8
0
 10
-129.107
 20
255.467
 11
-129.412
 21
255.688
  0
LINE
  8
0
 10
-129.412
 20
255.688
 11
-129.687
 21
255.946
  0
LINE
  8
0
 10
-129.687
 20
255.946
 11
-129.927
 21
256.237
  0
LINE
  8
0
 10
-129.927
 20
256.237
 11
-130.129
 21
256.555
  0
LINE
  8
0
 10
-130.129
 20
256.555
 11
-130.289
 21
256.896
  0
LINE
  8
0
 10
-130.289
 20
256.896
 11
-130.406
 21
257.254
  0
LINE
  8
0
 10
-130.406
 20
257.254
 11
-130.476
 21
257.624
  0
LINE
  8
0
 10
-130.476
 20
257.624
 11
-130.5
 21
258
  0
LINE
  8
0
 10
-130.5
 20
258
 11
-130.476
 21
258.376
  0
LINE
  8
0
 10
-130.476
 20
258.376
 11
-130.406
 21
258.746
  0
LINE
  8
0
 10
-130.406
 20
258.746
 11
-130.289
 21
259.104
  0
LINE
  8
0
 10
-130.289
 20
259.104
 11
-130.129
 21
259.445
  0
LINE
  8
0
 10
-130.129
 20
259.445
 11
-129.927
 21
259.763
  0
LINE
  8
0
 10
-129.927
 20
259.763
 11
-129.687
 21
260.054
  0
LINE
  8
0
 10
-129.687
 20
260.054
 11
-129.412
 21
260.312
  0
LINE
  8
0
 10
-129.412
 20
260.312
 11
-129.107
 21
260.533
  0
LINE
  8
0
 10
-129.107
 20
260.533
 11
-128.777
 21
260.714
  0
LINE
  8
0
 10
-128.777
 20
260.714
 11
-128.427
 21
260.853
  0
LINE
  8
0
 10
-128.427
 20
260.853
 11
-128.062
 21
260.947
  0
LINE
  8
0
 10
-128.062
 20
260.947
 11
-127.688
 21
260.994
  0
LINE
  8
0
 10
-127.688
 20
260.994
 11
-127.312
 21
260.994
  0
LINE
  8
0
 10
-127.312
 20
260.994
 11
-126.938
 21
260.947
  0
LINE
  8
0
 10
-126.938
 20
260.947
 11
-126.573
 21
260.853
  0
LINE
  8
0
 10
-126.573
 20
260.853
 11
-126.223
 21
260.714
  0
LINE
  8
0
 10
-126.223
 20
260.714
 11
-125.893
 21
260.533
  0
LINE
  8
0
 10
-125.893
 20
260.533
 11
-125.588
 21
260.312
  0
LINE
  8
0
 10
-125.588
 20
260.312
 11
-125.313
 21
260.054
  0
LINE
  8
0
 10
-125.313
 20
260.054
 11
-125.073
 21
259.763
  0
LINE
  8
0
 10
-125.073
 20
259.763
 11
-124.871
 21
259.445
  0
LINE
  8
0
 10
-124.871
 20
259.445
 11
-124.711
 21
259.104
  0
LINE
  8
0
 10
-124.711
 20
259.104
 11
-124.594
 21
258.746
  0
LINE
  8
0
 10
-124.594
 20
258.746
 11
-124.524
 21
258.376
  0
LINE
  8
0
 10
-124.524
 20
258.376
 11
-124.5
 21
258
  0
LINE
  8
0
 10
-124.5
 20
258
 11
-124.524
 21
257.624
  0
LINE
  8
0
 10
-124.524
 20
257.624
 11
-124.594
 21
257.254
  0
LINE
  8
0
 10
-124.594
 20
257.254
 11
-124.711
 21
256.896
  0
LINE
  8
0
 10
-124.711
 20
256.896
 11
-124.871
 21
256.555
  0
LINE
  8
0
 10
-124.871
 20
256.555
 11
-125.073
 21
256.237
  0
LINE
  8
0
 10
-125.073
 20
256.237
 11
-125.313
 21
255.946
  0
LINE
  8
0
 10
-125.313
 20
255.946
 11
-125.588
 21
255.688
  0
LINE
  8
0
 10
-125.588
 20
255.688
 11
-125.893
 21
255.467
  0
LINE
  8
0
 10
-125.893
 20
255.467
 11
-126.223
 21
255.286
  0
LINE
  8
0
 10
-126.223
 20
255.286
 11
-126.573
 21
255.147
  0
LINE
  8
0
 10
-126.573
 20
255.147
 11
-126.938
 21
255.053
  0
LINE
  8
0
 10
-126.938
 20
255.053
 11
-127.312
 21
255.006
  0
LINE
  8
0
 10
-127.312
 20
255.006
 11
-127.688
 21
255.006
  0
LINE
  8
0
 10
-127.594
 20
249.003
 11
-127.781
 21
249.027
  0
LINE
  8
0
 10
-127.781
 20
249.027
 11
-127.964
 21
249.073
  0
LINE
  8
0
 10
-127.964
 20
249.073
 11
-128.139
 21
249.143
  0
LINE
  8
0
 10
-128.139
 20
249.143
 11
-128.304
 21
249.234
  0
LINE
  8
0
 10
-128.304
 20
249.234
 11
-128.456
 21
249.344
  0
LINE
  8
0
 10
-128.456
 20
249.344
 11
-128.593
 21
249.473
  0
LINE
  8
0
 10
-128.593
 20
249.473
 11
-128.714
 21
249.618
  0
LINE
  8
0
 10
-128.714
 20
249.618
 11
-128.814
 21
249.777
  0
LINE
  8
0
 10
-128.814
 20
249.777
 11
-128.895
 21
249.948
  0
LINE
  8
0
 10
-128.895
 20
249.948
 11
-128.953
 21
250.127
  0
LINE
  8
0
 10
-128.953
 20
250.127
 11
-128.988
 21
250.312
  0
LINE
  8
0
 10
-128.988
 20
250.312
 11
-129
 21
250.5
  0
LINE
  8
0
 10
-129
 20
250.5
 11
-128.988
 21
250.688
  0
LINE
  8
0
 10
-128.988
 20
250.688
 11
-128.953
 21
250.873
  0
LINE
  8
0
 10
-128.953
 20
250.873
 11
-128.895
 21
251.052
  0
LINE
  8
0
 10
-128.895
 20
251.052
 11
-128.814
 21
251.223
  0
LINE
  8
0
 10
-128.814
 20
251.223
 11
-128.714
 21
251.382
  0
LINE
  8
0
 10
-128.714
 20
251.382
 11
-128.593
 21
251.527
  0
LINE
  8
0
 10
-128.593
 20
251.527
 11
-128.456
 21
251.656
  0
LINE
  8
0
 10
-128.456
 20
251.656
 11
-128.304
 21
251.766
  0
LINE
  8
0
 10
-128.304
 20
251.766
 11
-128.139
 21
251.857
  0
LINE
  8
0
 10
-128.139
 20
251.857
 11
-127.964
 21
251.927
  0
LINE
  8
0
 10
-127.964
 20
251.927
 11
-127.781
 21
251.973
  0
LINE
  8
0
 10
-127.781
 20
251.973
 11
-127.594
 21
251.997
  0
LINE
  8
0
 10
-127.594
 20
251.997
 11
-127.406
 21
251.997
  0
LINE
  8
0
 10
-127.406
 20
251.997
 11
-127.219
 21
251.973
  0
LINE
  8
0
 10
-127.219
 20
251.973
 11
-127.036
 21
251.927
  0
LINE
  8
0
 10
-127.036
 20
251.927
 11
-126.861
 21
251.857
  0
LINE
  8
0
 10
-126.861
 20
251.857
 11
-126.696
 21
251.766
  0
LINE
  8
0
 10
-126.696
 20
251.766
 11
-126.544
 21
251.656
  0
LINE
  8
0
 10
-126.544
 20
251.656
 11
-126.407
 21
251.527
  0
LINE
  8
0
 10
-126.407
 20
251.527
 11
-126.286
 21
251.382
  0
LINE
  8
0
 10
-126.286
 20
251.382
 11
-126.186
 21
251.223
  0
LINE
  8
0
 10
-126.186
 20
251.223
 11
-126.105
 21
251.052
  0
LINE
  8
0
 10
-126.105
 20
251.052
 11
-126.047
 21
250.873
  0
LINE
  8
0
 10
-126.047
 20
250.873
 11
-126.012
 21
250.688
  0
LINE
  8
0
 10
-126.012
 20
250.688
 11
-126
 21
250.5
  0
LINE
  8
0
 10
-126
 20
250.5
 11
-126.012
 21
250.312
  0
LINE
  8
0
 10
-126.012
 20
250.312
 11
-126.047
 21
250.127
  0
LINE
  8
0
 10
-126.047
 20
250.127
 11
-126.105
 21
249.948
  0
LINE
  8
0
 10
-126.105
 20
249.948
 11
-126.186
 21
249.777
  0
LINE
  8
0
 10
-126.186
 20
249.777
 11
-126.286
 21
249.618
  0
LINE
  8
0
 10
-126.286
 20
249.618
 11
-126.407
 21
249.473
  0
LINE
  8
0
 10
-126.407
 20
249.473
 11
-126.544
 21
249.344
  0
LINE
  8
0
 10
-126.544
 20
249.344
 11
-126.696
 21
249.234
  0
LINE
  8
0
 10
-126.696
 20
249.234
 11
-126.861
 21
249.143
  0
LINE
  8
0
 10
-126.861
 20
249.143
 11
-127.036
 21
249.073
  0
LINE
  8
0
 10
-127.036
 20
249.073
 11
-127.219
 21
249.027
  0
LINE
  8
0
 10
-127.219
 20
249.027
 11
-127.406
 21
249.003
  0
LINE
  8
0
 10
-127.406
 20
249.003
 11
-127.594
 21
249.003
  0
LINE
  8
0
 10
-127.688
 20
240.006
 11
-128.062
 21
240.053
  0
LINE
  8
0
 10
-128.062
 20
240.053
 11
-128.427
 21
240.147
  0
LINE
  8
0
 10
-128.427
 20
240.147
 11
-128.777
 21
240.286
  0
LINE
  8
0
 10
-128.777
 20
240.286
 11
-129.107
 21
240.467
  0
LINE
  8
0
 10
-129.107
 20
240.467
 11
-129.412
 21
240.688
  0
LINE
  8
0
 10
-129.412
 20
240.688
 11
-129.687
 21
240.946
  0
LINE
  8
0
 10
-129.687
 20
240.946
 11
-129.927
 21
241.237
  0
LINE
  8
0
 10
-129.927
 20
241.237
 11
-130.129
 21
241.555
  0
LINE
  8
0
 10
-130.129
 20
241.555
 11
-130.289
 21
241.896
  0
LINE
  8
0
 10
-130.289
 20
241.896
 11
-130.406
 21
242.254
  0
LINE
  8
0
 10
-130.406
 20
242.254
 11
-130.476
 21
242.624
  0
LINE
  8
0
 10
-130.476
 20
242.624
 11
-130.5
 21
243
  0
LINE
  8
0
 10
-130.5
 20
243
 11
-130.476
 21
243.376
  0
LINE
  8
0
 10
-130.476
 20
243.376
 11
-130.406
 21
243.746
  0
LINE
  8
0
 10
-130.406
 20
243.746
 11
-130.289
 21
244.104
  0
LINE
  8
0
 10
-130.289
 20
244.104
 11
-130.129
 21
244.445
  0
LINE
  8
0
 10
-130.129
 20
244.445
 11
-129.927
 21
244.763
  0
LINE
  8
0
 10
-129.927
 20
244.763
 11
-129.687
 21
245.054
  0
LINE
  8
0
 10
-129.687
 20
245.054
 11
-129.412
 21
245.312
  0
LINE
  8
0
 10
-129.412
 20
245.312
 11
-129.107
 21
245.533
  0
LINE
  8
0
 10
-129.107
 20
245.533
 11
-128.777
 21
245.714
  0
LINE
  8
0
 10
-128.777
 20
245.714
 11
-128.427
 21
245.853
  0
LINE
  8
0
 10
-128.427
 20
245.853
 11
-128.062
 21
245.947
  0
LINE
  8
0
 10
-128.062
 20
245.947
 11
-127.688
 21
245.994
  0
LINE
  8
0
 10
-127.688
 20
245.994
 11
-127.312
 21
245.994
  0
LINE
  8
0
 10
-127.312
 20
245.994
 11
-126.938
 21
245.947
  0
LINE
  8
0
 10
-126.938
 20
245.947
 11
-126.573
 21
245.853
  0
LINE
  8
0
 10
-126.573
 20
245.853
 11
-126.223
 21
245.714
  0
LINE
  8
0
 10
-126.223
 20
245.714
 11
-125.893
 21
245.533
  0
LINE
  8
0
 10
-125.893
 20
245.533
 11
-125.588
 21
245.312
  0
LINE
  8
0
 10
-125.588
 20
245.312
 11
-125.313
 21
245.054
  0
LINE
  8
0
 10
-125.313
 20
245.054
 11
-125.073
 21
244.763
  0
LINE
  8
0
 10
-125.073
 20
244.763
 11
-124.871
 21
244.445
  0
LINE
  8
0
 10
-124.871
 20
244.445
 11
-124.711
 21
244.104
  0
LINE
  8
0
 10
-124.711
 20
244.104
 11
-124.594
 21
243.746
  0
LINE
  8
0
 10
-124.594
 20
243.746
 11
-124.524
 21
243.376
  0
LINE
  8
0
 10
-124.524
 20
243.376
 11
-124.5
 21
243
  0
LINE
  8
0
 10
-124.5
 20
243
 11
-124.524
 21
242.624
  0
LINE
  8
0
 10
-124.524
 20
242.624
 11
-124.594
 21
242.254
  0
LINE
  8
0
 10
-124.594
 20
242.254
 11
-124.711
 21
241.896
  0
LINE
  8
0
 10
-124.711
 20
241.896
 11
-124.871
 21
241.555
  0
LINE
  8
0
 10
-124.871
 20
241.555
 11
-125.073
 21
241.237
  0
LINE
  8
0
 10
-125.073
 20
241.237
 11
-125.313
 21
240.946
  0
LINE
  8
0
 10
-125.313
 20
240.946
 11
-125.588
 21
240.688
  0
LINE
  8
0
 10
-125.588
 20
240.688
 11
-125.893
 21
240.467
  0
LINE
  8
0
 10
-125.893
 20
240.467
 11
-126.223
 21
240.286
  0
LINE
  8
0
 10
-126.223
 20
240.286
 11
-126.573
 21
240.147
  0
LINE
  8
0
 10
-126.573
 20
240.147
 11
-126.938
 21
240.053
  0
LINE
  8
0
 10
-126.938
 20
240.053
 11
-127.312
 21
240.006
  0
LINE
  8
0
 10
-127.312
 20
240.006
 11
-127.688
 21
240.006
  0
LINE
  8
0
 10
-127.594
 20
234.003
 11
-127.781
 21
234.027
  0
LINE
  8
0
 10
-127.781
 20
234.027
 11
-127.964
 21
234.073
  0
LINE
  8
0
 10
-127.964
 20
234.073
 11
-128.139
 21
234.143
  0
LINE
  8
0
 10
-128.139
 20
234.143
 11
-128.304
 21
234.234
  0
LINE
  8
0
 10
-128.304
 20
234.234
 11
-128.456
 21
234.344
  0
LINE
  8
0
 10
-128.456
 20
234.344
 11
-128.593
 21
234.473
  0
LINE
  8
0
 10
-128.593
 20
234.473
 11
-128.714
 21
234.618
  0
LINE
  8
0
 10
-128.714
 20
234.618
 11
-128.814
 21
234.777
  0
LINE
  8
0
 10
-128.814
 20
234.777
 11
-128.895
 21
234.948
  0
LINE
  8
0
 10
-128.895
 20
234.948
 11
-128.953
 21
235.127
  0
LINE
  8
0
 10
-128.953
 20
235.127
 11
-128.988
 21
235.312
  0
LINE
  8
0
 10
-128.988
 20
235.312
 11
-129
 21
235.5
  0
LINE
  8
0
 10
-129
 20
235.5
 11
-128.988
 21
235.688
  0
LINE
  8
0
 10
-128.988
 20
235.688
 11
-128.953
 21
235.873
  0
LINE
  8
0
 10
-128.953
 20
235.873
 11
-128.895
 21
236.052
  0
LINE
  8
0
 10
-128.895
 20
236.052
 11
-128.814
 21
236.223
  0
LINE
  8
0
 10
-128.814
 20
236.223
 11
-128.714
 21
236.382
  0
LINE
  8
0
 10
-128.714
 20
236.382
 11
-128.593
 21
236.527
  0
LINE
  8
0
 10
-128.593
 20
236.527
 11
-128.456
 21
236.656
  0
LINE
  8
0
 10
-128.456
 20
236.656
 11
-128.304
 21
236.766
  0
LINE
  8
0
 10
-128.304
 20
236.766
 11
-128.139
 21
236.857
  0
LINE
  8
0
 10
-128.139
 20
236.857
 11
-127.964
 21
236.927
  0
LINE
  8
0
 10
-127.964
 20
236.927
 11
-127.781
 21
236.973
  0
LINE
  8
0
 10
-127.781
 20
236.973
 11
-127.594
 21
236.997
  0
LINE
  8
0
 10
-127.594
 20
236.997
 11
-127.406
 21
236.997
  0
LINE
  8
0
 10
-127.406
 20
236.997
 11
-127.219
 21
236.973
  0
LINE
  8
0
 10
-127.219
 20
236.973
 11
-127.036
 21
236.927
  0
LINE
  8
0
 10
-127.036
 20
236.927
 11
-126.861
 21
236.857
  0
LINE
  8
0
 10
-126.861
 20
236.857
 11
-126.696
 21
236.766
  0
LINE
  8
0
 10
-126.696
 20
236.766
 11
-126.544
 21
236.656
  0
LINE
  8
0
 10
-126.544
 20
236.656
 11
-126.407
 21
236.527
  0
LINE
  8
0
 10
-126.407
 20
236.527
 11
-126.286
 21
236.382
  0
LINE
  8
0
 10
-126.286
 20
236.382
 11
-126.186
 21
236.223
  0
LINE
  8
0
 10
-126.186
 20
236.223
 11
-126.105
 21
236.052
  0
LINE
  8
0
 10
-126.105
 20
236.052
 11
-126.047
 21
235.873
  0
LINE
  8
0
 10
-126.047
 20
235.873
 11
-126.012
 21
235.688
  0
LINE
  8
0
 10
-126.012
 20
235.688
 11
-126
 21
235.5
  0
LINE
  8
0
 10
-126
 20
235.5
 11
-126.012
 21
235.312
  0
LINE
  8
0
 10
-126.012
 20
235.312
 11
-126.047
 21
235.127
  0
LINE
  8
0
 10
-126.047
 20
235.127
 11
-126.105
 21
234.948
  0
LINE
  8
0
 10
-126.105
 20
234.948
 11
-126.186
 21
234.777
  0
LINE
  8
0
 10
-126.186
 20
234.777
 11
-126.286
 21
234.618
  0
LINE
  8
0
 10
-126.286
 20
234.618
 11
-126.407
 21
234.473
  0
LINE
  8
0
 10
-126.407
 20
234.473
 11
-126.544
 21
234.344
  0
LINE
  8
0
 10
-126.544
 20
234.344
 11
-126.696
 21
234.234
  0
LINE
  8
0
 10
-126.696
 20
234.234
 11
-126.861
 21
234.143
  0
LINE
  8
0
 10
-126.861
 20
234.143
 11
-127.036
 21
234.073
  0
LINE
  8
0
 10
-127.036
 20
234.073
 11
-127.219
 21
234.027
  0
LINE
  8
0
 10
-127.219
 20
234.027
 11
-127.406
 21
234.003
  0
LINE
  8
0
 10
-127.406
 20
234.003
 11
-127.594
 21
234.003
  0
LINE
  8
0
 10
-127.688
 20
225.006
 11
-128.062
 21
225.053
  0
LINE
  8
0
 10
-128.062
 20
225.053
 11
-128.427
 21
225.147
  0
LINE
  8
0
 10
-128.427
 20
225.147
 11
-128.777
 21
225.286
  0
LINE
  8
0
 10
-128.777
 20
225.286
 11
-129.107
 21
225.467
  0
LINE
  8
0
 10
-129.107
 20
225.467
 11
-129.412
 21
225.688
  0
LINE
  8
0
 10
-129.412
 20
225.688
 11
-129.687
 21
225.946
  0
LINE
  8
0
 10
-129.687
 20
225.946
 11
-129.927
 21
226.237
  0
LINE
  8
0
 10
-129.927
 20
226.237
 11
-130.129
 21
226.555
  0
LINE
  8
0
 10
-130.129
 20
226.555
 11
-130.289
 21
226.896
  0
LINE
  8
0
 10
-130.289
 20
226.896
 11
-130.406
 21
227.254
  0
LINE
  8
0
 10
-130.406
 20
227.254
 11
-130.476
 21
227.624
  0
LINE
  8
0
 10
-130.476
 20
227.624
 11
-130.5
 21
228
  0
LINE
  8
0
 10
-130.5
 20
228
 11
-130.476
 21
228.376
  0
LINE
  8
0
 10
-130.476
 20
228.376
 11
-130.406
 21
228.746
  0
LINE
  8
0
 10
-130.406
 20
228.746
 11
-130.289
 21
229.104
  0
LINE
  8
0
 10
-130.289
 20
229.104
 11
-130.129
 21
229.445
  0
LINE
  8
0
 10
-130.129
 20
229.445
 11
-129.927
 21
229.763
  0
LINE
  8
0
 10
-129.927
 20
229.763
 11
-129.687
 21
230.054
  0
LINE
  8
0
 10
-129.687
 20
230.054
 11
-129.412
 21
230.312
  0
LINE
  8
0
 10
-129.412
 20
230.312
 11
-129.107
 21
230.533
  0
LINE
  8
0
 10
-129.107
 20
230.533
 11
-128.777
 21
230.714
  0
LINE
  8
0
 10
-128.777
 20
230.714
 11
-128.427
 21
230.853
  0
LINE
  8
0
 10
-128.427
 20
230.853
 11
-128.062
 21
230.947
  0
LINE
  8
0
 10
-128.062
 20
230.947
 11
-127.688
 21
230.994
  0
LINE
  8
0
 10
-127.688
 20
230.994
 11
-127.312
 21
230.994
  0
LINE
  8
0
 10
-127.312
 20
230.994
 11
-126.938
 21
230.947
  0
LINE
  8
0
 10
-126.938
 20
230.947
 11
-126.573
 21
230.853
  0
LINE
  8
0
 10
-126.573
 20
230.853
 11
-126.223
 21
230.714
  0
LINE
  8
0
 10
-126.223
 20
230.714
 11
-125.893
 21
230.533
  0
LINE
  8
0
 10
-125.893
 20
230.533
 11
-125.588
 21
230.312
  0
LINE
  8
0
 10
-125.588
 20
230.312
 11
-125.313
 21
230.054
  0
LINE
  8
0
 10
-125.313
 20
230.054
 11
-125.073
 21
229.763
  0
LINE
  8
0
 10
-125.073
 20
229.763
 11
-124.871
 21
229.445
  0
LINE
  8
0
 10
-124.871
 20
229.445
 11
-124.711
 21
229.104
  0
LINE
  8
0
 10
-124.711
 20
229.104
 11
-124.594
 21
228.746
  0
LINE
  8
0
 10
-124.594
 20
228.746
 11
-124.524
 21
228.376
  0
LINE
  8
0
 10
-124.524
 20
228.376
 11
-124.5
 21
228
  0
LINE
  8
0
 10
-124.5
 20
228
 11
-124.524
 21
227.624
  0
LINE
  8
0
 10
-124.524
 20
227.624
 11
-124.594
 21
227.254
  0
LINE
  8
0
 10
-124.594
 20
227.254
 11
-124.711
 21
226.896
  0
LINE
  8
0
 10
-124.711
 20
226.896
 11
-124.871
 21
226.555
  0
LINE
  8
0
 10
-124.871
 20
226.555
 11
-125.073
 21
226.237
  0
LINE
  8
0
 10
-125.073
 20
226.237
 11
-125.313
 21
225.946
  0
LINE
  8
0
 10
-125.313
 20
225.946
 11
-125.588
 21
225.688
  0
LINE
  8
0
 10
-125.588
 20
225.688
 11
-125.893
 21
225.467
  0
LINE
  8
0
 10
-125.893
 20
225.467
 11
-126.223
 21
225.286
  0
LINE
  8
0
 10
-126.223
 20
225.286
 11
-126.573
 21
225.147
  0
LINE
  8
0
 10
-126.573
 20
225.147
 11
-126.938
 21
225.053
  0
LINE
  8
0
 10
-126.938
 20
225.053
 11
-127.312
 21
225.006
  0
LINE
  8
0
 10
-127.312
 20
225.006
 11
-127.688
 21
225.006
  0
LINE
  8
0
 10
-127.594
 20
219.003
 11
-127.781
 21
219.027
  0
LINE
  8
0
 10
-127.781
 20
219.027
 11
-127.964
 21
219.073
  0
LINE
  8
0
 10
-127.964
 20
219.073
 11
-128.139
 21
219.143
  0
LINE
  8
0
 10
-128.139
 20
219.143
 11
-128.304
 21
219.234
  0
LINE
  8
0
 10
-128.304
 20
219.234
 11
-128.456
 21
219.344
  0
LINE
  8
0
 10
-128.456
 20
219.344
 11
-128.593
 21
219.473
  0
LINE
  8
0
 10
-128.593
 20
219.473
 11
-128.714
 21
219.618
  0
LINE
  8
0
 10
-128.714
 20
219.618
 11
-128.814
 21
219.777
  0
LINE
  8
0
 10
-128.814
 20
219.777
 11
-128.895
 21
219.948
  0
LINE
  8
0
 10
-128.895
 20
219.948
 11
-128.953
 21
220.127
  0
LINE
  8
0
 10
-128.953
 20
220.127
 11
-128.988
 21
220.312
  0
LINE
  8
0
 10
-128.988
 20
220.312
 11
-129
 21
220.5
  0
LINE
  8
0
 10
-129
 20
220.5
 11
-128.988
 21
220.688
  0
LINE
  8
0
 10
-128.988
 20
220.688
 11
-128.953
 21
220.873
  0
LINE
  8
0
 10
-128.953
 20
220.873
 11
-128.895
 21
221.052
  0
LINE
  8
0
 10
-128.895
 20
221.052
 11
-128.814
 21
221.223
  0
LINE
  8
0
 10
-128.814
 20
221.223
 11
-128.714
 21
221.382
  0
LINE
  8
0
 10
-128.714
 20
221.382
 11
-128.593
 21
221.527
  0
LINE
  8
0
 10
-128.593
 20
221.527
 11
-128.456
 21
221.656
  0
LINE
  8
0
 10
-128.456
 20
221.656
 11
-128.304
 21
221.766
  0
LINE
  8
0
 10
-128.304
 20
221.766
 11
-128.139
 21
221.857
  0
LINE
  8
0
 10
-128.139
 20
221.857
 11
-127.964
 21
221.927
  0
LINE
  8
0
 10
-127.964
 20
221.927
 11
-127.781
 21
221.973
  0
LINE
  8
0
 10
-127.781
 20
221.973
 11
-127.594
 21
221.997
  0
LINE
  8
0
 10
-127.594
 20
221.997
 11
-127.406
 21
221.997
  0
LINE
  8
0
 10
-127.406
 20
221.997
 11
-127.219
 21
221.973
  0
LINE
  8
0
 10
-127.219
 20
221.973
 11
-127.036
 21
221.927
  0
LINE
  8
0
 10
-127.036
 20
221.927
 11
-126.861
 21
221.857
  0
LINE
  8
0
 10
-126.861
 20
221.857
 11
-126.696
 21
221.766
  0
LINE
  8
0
 10
-126.696
 20
221.766
 11
-126.544
 21
221.656
  0
LINE
  8
0
 10
-126.544
 20
221.656
 11
-126.407
 21
221.527
  0
LINE
  8
0
 10
-126.407
 20
221.527
 11
-126.286
 21
221.382
  0
LINE
  8
0
 10
-126.286
 20
221.382
 11
-126.186
 21
221.223
  0
LINE
  8
0
 10
-126.186
 20
221.223
 11
-126.105
 21
221.052
  0
LINE
  8
0
 10
-126.105
 20
221.052
 11
-126.047
 21
220.873
  0
LINE
  8
0
 10
-126.047
 20
220.873
 11
-126.012
 21
220.688
  0
LINE
  8
0
 10
-126.012
 20
220.688
 11
-126
 21
220.5
  0
LINE
  8
0
 10
-126
 20
220.5
 11
-126.012
 21
220.312
  0
LINE
  8
0
 10
-126.012
 20
220.312
 11
-126.047
 21
220.127
  0
LINE
  8
0
 10
-126.047
 20
220.127
 11
-126.105
 21
219.948
  0
LINE
  8
0
 10
-126.105
 20
219.948
 11
-126.186
 21
219.777
  0
LINE
  8
0
 10
-126.186
 20
219.777
 11
-126.286
 21
219.618
  0
LINE
  8
0
 10
-126.286
 20
219.618
 11
-126.407
 21
219.473
  0
LINE
  8
0
 10
-126.407
 20
219.473
 11
-126.544
 21
219.344
  0
LINE
  8
0
 10
-126.544
 20
219.344
 11
-126.696
 21
219.234
  0
LINE
  8
0
 10
-126.696
 20
219.234
 11
-126.861
 21
219.143
  0
LINE
  8
0
 10
-126.861
 20
219.143
 11
-127.036
 21
219.073
  0
LINE
  8
0
 10
-127.036
 20
219.073
 11
-127.219
 21
219.027
  0
LINE
  8
0
 10
-127.219
 20
219.027
 11
-127.406
 21
219.003
  0
LINE
  8
0
 10
-127.406
 20
219.003
 11
-127.594
 21
219.003
  0
LINE
  8
0
 10
-127.688
 20
210.006
 11
-128.062
 21
210.053
  0
LINE
  8
0
 10
-128.062
 20
210.053
 11
-128.427
 21
210.147
  0
LINE
  8
0
 10
-128.427
 20
210.147
 11
-128.777
 21
210.286
  0
LINE
  8
0
 10
-128.777
 20
210.286
 11
-129.107
 21
210.467
  0
LINE
  8
0
 10
-129.107
 20
210.467
 11
-129.412
 21
210.688
  0
LINE
  8
0
 10
-129.412
 20
210.688
 11
-129.687
 21
210.946
  0
LINE
  8
0
 10
-129.687
 20
210.946
 11
-129.927
 21
211.237
  0
LINE
  8
0
 10
-129.927
 20
211.237
 11
-130.129
 21
211.555
  0
LINE
  8
0
 10
-130.129
 20
211.555
 11
-130.289
 21
211.896
  0
LINE
  8
0
 10
-130.289
 20
211.896
 11
-130.406
 21
212.254
  0
LINE
  8
0
 10
-130.406
 20
212.254
 11
-130.476
 21
212.624
  0
LINE
  8
0
 10
-130.476
 20
212.624
 11
-130.5
 21
213
  0
LINE
  8
0
 10
-130.5
 20
213
 11
-130.476
 21
213.376
  0
LINE
  8
0
 10
-130.476
 20
213.376
 11
-130.406
 21
213.746
  0
LINE
  8
0
 10
-130.406
 20
213.746
 11
-130.289
 21
214.104
  0
LINE
  8
0
 10
-130.289
 20
214.104
 11
-130.129
 21
214.445
  0
LINE
  8
0
 10
-130.129
 20
214.445
 11
-129.927
 21
214.763
  0
LINE
  8
0
 10
-129.927
 20
214.763
 11
-129.687
 21
215.054
  0
LINE
  8
0
 10
-129.687
 20
215.054
 11
-129.412
 21
215.312
  0
LINE
  8
0
 10
-129.412
 20
215.312
 11
-129.107
 21
215.533
  0
LINE
  8
0
 10
-129.107
 20
215.533
 11
-128.777
 21
215.714
  0
LINE
  8
0
 10
-128.777
 20
215.714
 11
-128.427
 21
215.853
  0
LINE
  8
0
 10
-128.427
 20
215.853
 11
-128.062
 21
215.947
  0
LINE
  8
0
 10
-128.062
 20
215.947
 11
-127.688
 21
215.994
  0
LINE
  8
0
 10
-127.688
 20
215.994
 11
-127.312
 21
215.994
  0
LINE
  8
0
 10
-127.312
 20
215.994
 11
-126.938
 21
215.947
  0
LINE
  8
0
 10
-126.938
 20
215.947
 11
-126.573
 21
215.853
  0
LINE
  8
0
 10
-126.573
 20
215.853
 11
-126.223
 21
215.714
  0
LINE
  8
0
 10
-126.223
 20
215.714
 11
-125.893
 21
215.533
  0
LINE
  8
0
 10
-125.893
 20
215.533
 11
-125.588
 21
215.312
  0
LINE
  8
0
 10
-125.588
 20
215.312
 11
-125.313
 21
215.054
  0
LINE
  8
0
 10
-125.313
 20
215.054
 11
-125.073
 21
214.763
  0
LINE
  8
0
 10
-125.073
 20
214.763
 11
-124.871
 21
214.445
  0
LINE
  8
0
 10
-124.871
 20
214.445
 11
-124.711
 21
214.104
  0
LINE
  8
0
 10
-124.711
 20
214.104
 11
-124.594
 21
213.746
  0
LINE
  8
0
 10
-124.594
 20
213.746
 11
-124.524
 21
213.376
  0
LINE
  8
0
 10
-124.524
 20
213.376
 11
-124.5
 21
213
  0
LINE
  8
0
 10
-124.5
 20
213
 11
-124.524
 21
212.624
  0
LINE
  8
0
 10
-124.524
 20
212.624
 11
-124.594
 21
212.254
  0
LINE
  8
0
 10
-124.594
 20
212.254
 11
-124.711
 21
211.896
  0
LINE
  8
0
 10
-124.711
 20
211.896
 11
-124.871
 21
211.555
  0
LINE
  8
0
 10
-124.871
 20
211.555
 11
-125.073
 21
211.237
  0
LINE
  8
0
 10
-125.073
 20
211.237
 11
-125.313
 21
210.946
  0
LINE
  8
0
 10
-125.313
 20
210.946
 11
-125.588
 21
210.688
  0
LINE
  8
0
 10
-125.588
 20
210.688
 11
-125.893
 21
210.467
  0
LINE
  8
0
 10
-125.893
 20
210.467
 11
-126.223
 21
210.286
  0
LINE
  8
0
 10
-126.223
 20
210.286
 11
-126.573
 21
210.147
  0
LINE
  8
0
 10
-126.573
 20
210.147
 11
-126.938
 21
210.053
  0
LINE
  8
0
 10
-126.938
 20
210.053
 11
-127.312
 21
210.006
  0
LINE
  8
0
 10
-127.312
 20
210.006
 11
-127.688
 21
210.006
  0
LINE
  8
0
 10
-127.594
 20
204.003
 11
-127.781
 21
204.027
  0
LINE
  8
0
 10
-127.781
 20
204.027
 11
-127.964
 21
204.073
  0
LINE
  8
0
 10
-127.964
 20
204.073
 11
-128.139
 21
204.143
  0
LINE
  8
0
 10
-128.139
 20
204.143
 11
-128.304
 21
204.234
  0
LINE
  8
0
 10
-128.304
 20
204.234
 11
-128.456
 21
204.344
  0
LINE
  8
0
 10
-128.456
 20
204.344
 11
-128.593
 21
204.473
  0
LINE
  8
0
 10
-128.593
 20
204.473
 11
-128.714
 21
204.618
  0
LINE
  8
0
 10
-128.714
 20
204.618
 11
-128.814
 21
204.777
  0
LINE
  8
0
 10
-128.814
 20
204.777
 11
-128.895
 21
204.948
  0
LINE
  8
0
 10
-128.895
 20
204.948
 11
-128.953
 21
205.127
  0
LINE
  8
0
 10
-128.953
 20
205.127
 11
-128.988
 21
205.312
  0
LINE
  8
0
 10
-128.988
 20
205.312
 11
-129
 21
205.5
  0
LINE
  8
0
 10
-129
 20
205.5
 11
-128.988
 21
205.688
  0
LINE
  8
0
 10
-128.988
 20
205.688
 11
-128.953
 21
205.873
  0
LINE
  8
0
 10
-128.953
 20
205.873
 11
-128.895
 21
206.052
  0
LINE
  8
0
 10
-128.895
 20
206.052
 11
-128.814
 21
206.223
  0
LINE
  8
0
 10
-128.814
 20
206.223
 11
-128.714
 21
206.382
  0
LINE
  8
0
 10
-128.714
 20
206.382
 11
-128.593
 21
206.527
  0
LINE
  8
0
 10
-128.593
 20
206.527
 11
-128.456
 21
206.656
  0
LINE
  8
0
 10
-128.456
 20
206.656
 11
-128.304
 21
206.766
  0
LINE
  8
0
 10
-128.304
 20
206.766
 11
-128.139
 21
206.857
  0
LINE
  8
0
 10
-128.139
 20
206.857
 11
-127.964
 21
206.927
  0
LINE
  8
0
 10
-127.964
 20
206.927
 11
-127.781
 21
206.973
  0
LINE
  8
0
 10
-127.781
 20
206.973
 11
-127.594
 21
206.997
  0
LINE
  8
0
 10
-127.594
 20
206.997
 11
-127.406
 21
206.997
  0
LINE
  8
0
 10
-127.406
 20
206.997
 11
-127.219
 21
206.973
  0
LINE
  8
0
 10
-127.219
 20
206.973
 11
-127.036
 21
206.927
  0
LINE
  8
0
 10
-127.036
 20
206.927
 11
-126.861
 21
206.857
  0
LINE
  8
0
 10
-126.861
 20
206.857
 11
-126.696
 21
206.766
  0
LINE
  8
0
 10
-126.696
 20
206.766
 11
-126.544
 21
206.656
  0
LINE
  8
0
 10
-126.544
 20
206.656
 11
-126.407
 21
206.527
  0
LINE
  8
0
 10
-126.407
 20
206.527
 11
-126.286
 21
206.382
  0
LINE
  8
0
 10
-126.286
 20
206.382
 11
-126.186
 21
206.223
  0
LINE
  8
0
 10
-126.186
 20
206.223
 11
-126.105
 21
206.052
  0
LINE
  8
0
 10
-126.105
 20
206.052
 11
-126.047
 21
205.873
  0
LINE
  8
0
 10
-126.047
 20
205.873
 11
-126.012
 21
205.688
  0
LINE
  8
0
 10
-126.012
 20
205.688
 11
-126
 21
205.5
  0
LINE
  8
0
 10
-126
 20
205.5
 11
-126.012
 21
205.312
  0
LINE
  8
0
 10
-126.012
 20
205.312
 11
-126.047
 21
205.127
  0
LINE
  8
0
 10
-126.047
 20
205.127
 11
-126.105
 21
204.948
  0
LINE
  8
0
 10
-126.105
 20
204.948
 11
-126.186
 21
204.777
  0
LINE
  8
0
 10
-126.186
 20
204.777
 11
-126.286
 21
204.618
  0
LINE
  8
0
 10
-126.286
 20
204.618
 11
-126.407
 21
204.473
  0
LINE
  8
0
 10
-126.407
 20
204.473
 11
-126.544
 21
204.344
  0
LINE
  8
0
 10
-126.544
 20
204.344
 11
-126.696
 21
204.234
  0
LINE
  8
0
 10
-126.696
 20
204.234
 11
-126.861
 21
204.143
  0
LINE
  8
0
 10
-126.861
 20
204.143
 11
-127.036
 21
204.073
  0
LINE
  8
0
 10
-127.036
 20
204.073
 11
-127.219
 21
204.027
  0
LINE
  8
0
 10
-127.219
 20
204.027
 11
-127.406
 21
204.003
  0
LINE
  8
0
 10
-127.406
 20
204.003
 11
-127.594
 21
204.003
  0
LINE
  8
0
 10
-127.688
 20
195.006
 11
-128.062
 21
195.053
  0
LINE
  8
0
 10
-128.062
 20
195.053
 11
-128.427
 21
195.147
  0
LINE
  8
0
 10
-128.427
 20
195.147
 11
-128.777
 21
195.286
  0
LINE
  8
0
 10
-128.777
 20
195.286
 11
-129.107
 21
195.467
  0
LINE
  8
0
 10
-129.107
 20
195.467
 11
-129.412
 21
195.688
  0
LINE
  8
0
 10
-129.412
 20
195.688
 11
-129.687
 21
195.946
  0
LINE
  8
0
 10
-129.687
 20
195.946
 11
-129.927
 21
196.237
  0
LINE
  8
0
 10
-129.927
 20
196.237
 11
-130.129
 21
196.555
  0
LINE
  8
0
 10
-130.129
 20
196.555
 11
-130.289
 21
196.896
  0
LINE
  8
0
 10
-130.289
 20
196.896
 11
-130.406
 21
197.254
  0
LINE
  8
0
 10
-130.406
 20
197.254
 11
-130.476
 21
197.624
  0
LINE
  8
0
 10
-130.476
 20
197.624
 11
-130.5
 21
198
  0
LINE
  8
0
 10
-130.5
 20
198
 11
-130.476
 21
198.376
  0
LINE
  8
0
 10
-130.476
 20
198.376
 11
-130.406
 21
198.746
  0
LINE
  8
0
 10
-130.406
 20
198.746
 11
-130.289
 21
199.104
  0
LINE
  8
0
 10
-130.289
 20
199.104
 11
-130.129
 21
199.445
  0
LINE
  8
0
 10
-130.129
 20
199.445
 11
-129.927
 21
199.763
  0
LINE
  8
0
 10
-129.927
 20
199.763
 11
-129.687
 21
200.054
  0
LINE
  8
0
 10
-129.687
 20
200.054
 11
-129.412
 21
200.312
  0
LINE
  8
0
 10
-129.412
 20
200.312
 11
-129.107
 21
200.533
  0
LINE
  8
0
 10
-129.107
 20
200.533
 11
-128.777
 21
200.714
  0
LINE
  8
0
 10
-128.777
 20
200.714
 11
-128.427
 21
200.853
  0
LINE
  8
0
 10
-128.427
 20
200.853
 11
-128.062
 21
200.947
  0
LINE
  8
0
 10
-128.062
 20
200.947
 11
-127.688
 21
200.994
  0
LINE
  8
0
 10
-127.688
 20
200.994
 11
-127.312
 21
200.994
  0
LINE
  8
0
 10
-127.312
 20
200.994
 11
-126.938
 21
200.947
  0
LINE
  8
0
 10
-126.938
 20
200.947
 11
-126.573
 21
200.853
  0
LINE
  8
0
 10
-126.573
 20
200.853
 11
-126.223
 21
200.714
  0
LINE
  8
0
 10
-126.223
 20
200.714
 11
-125.893
 21
200.533
  0
LINE
  8
0
 10
-125.893
 20
200.533
 11
-125.588
 21
200.312
  0
LINE
  8
0
 10
-125.588
 20
200.312
 11
-125.313
 21
200.054
  0
LINE
  8
0
 10
-125.313
 20
200.054
 11
-125.073
 21
199.763
  0
LINE
  8
0
 10
-125.073
 20
199.763
 11
-124.871
 21
199.445
  0
LINE
  8
0
 10
-124.871
 20
199.445
 11
-124.711
 21
199.104
  0
LINE
  8
0
 10
-124.711
 20
199.104
 11
-124.594
 21
198.746
  0
LINE
  8
0
 10
-124.594
 20
198.746
 11
-124.524
 21
198.376
  0
LINE
  8
0
 10
-124.524
 20
198.376
 11
-124.5
 21
198
  0
LINE
  8
0
 10
-124.5
 20
198
 11
-124.524
 21
197.624
  0
LINE
  8
0
 10
-124.524
 20
197.624
 11
-124.594
 21
197.254
  0
LINE
  8
0
 10
-124.594
 20
197.254
 11
-124.711
 21
196.896
  0
LINE
  8
0
 10
-124.711
 20
196.896
 11
-124.871
 21
196.555
  0
LINE
  8
0
 10
-124.871
 20
196.555
 11
-125.073
 21
196.237
  0
LINE
  8
0
 10
-125.073
 20
196.237
 11
-125.313
 21
195.946
  0
LINE
  8
0
 10
-125.313
 20
195.946
 11
-125.588
 21
195.688
  0
LINE
  8
0
 10
-125.588
 20
195.688
 11
-125.893
 21
195.467
  0
LINE
  8
0
 10
-125.893
 20
195.467
 11
-126.223
 21
195.286
  0
LINE
  8
0
 10
-126.223
 20
195.286
 11
-126.573
 21
195.147
  0
LINE
  8
0
 10
-126.573
 20
195.147
 11
-126.938
 21
195.053
  0
LINE
  8
0
 10
-126.938
 20
195.053
 11
-127.312
 21
195.006
  0
LINE
  8
0
 10
-127.312
 20
195.006
 11
-127.688
 21
195.006
  0
LINE
  8
0
 10
-127.594
 20
189.003
 11
-127.781
 21
189.027
  0
LINE
  8
0
 10
-127.781
 20
189.027
 11
-127.964
 21
189.073
  0
LINE
  8
0
 10
-127.964
 20
189.073
 11
-128.139
 21
189.143
  0
LINE
  8
0
 10
-128.139
 20
189.143
 11
-128.304
 21
189.234
  0
LINE
  8
0
 10
-128.304
 20
189.234
 11
-128.456
 21
189.344
  0
LINE
  8
0
 10
-128.456
 20
189.344
 11
-128.593
 21
189.473
  0
LINE
  8
0
 10
-128.593
 20
189.473
 11
-128.714
 21
189.618
  0
LINE
  8
0
 10
-128.714
 20
189.618
 11
-128.814
 21
189.777
  0
LINE
  8
0
 10
-128.814
 20
189.777
 11
-128.895
 21
189.948
  0
LINE
  8
0
 10
-128.895
 20
189.948
 11
-128.953
 21
190.127
  0
LINE
  8
0
 10
-128.953
 20
190.127
 11
-128.988
 21
190.312
  0
LINE
  8
0
 10
-128.988
 20
190.312
 11
-129
 21
190.5
  0
LINE
  8
0
 10
-129
 20
190.5
 11
-128.988
 21
190.688
  0
LINE
  8
0
 10
-128.988
 20
190.688
 11
-128.953
 21
190.873
  0
LINE
  8
0
 10
-128.953
 20
190.873
 11
-128.895
 21
191.052
  0
LINE
  8
0
 10
-128.895
 20
191.052
 11
-128.814
 21
191.223
  0
LINE
  8
0
 10
-128.814
 20
191.223
 11
-128.714
 21
191.382
  0
LINE
  8
0
 10
-128.714
 20
191.382
 11
-128.593
 21
191.527
  0
LINE
  8
0
 10
-128.593
 20
191.527
 11
-128.456
 21
191.656
  0
LINE
  8
0
 10
-128.456
 20
191.656
 11
-128.304
 21
191.766
  0
LINE
  8
0
 10
-128.304
 20
191.766
 11
-128.139
 21
191.857
  0
LINE
  8
0
 10
-128.139
 20
191.857
 11
-127.964
 21
191.927
  0
LINE
  8
0
 10
-127.964
 20
191.927
 11
-127.781
 21
191.973
  0
LINE
  8
0
 10
-127.781
 20
191.973
 11
-127.594
 21
191.997
  0
LINE
  8
0
 10
-127.594
 20
191.997
 11
-127.406
 21
191.997
  0
LINE
  8
0
 10
-127.406
 20
191.997
 11
-127.219
 21
191.973
  0
LINE
  8
0
 10
-127.219
 20
191.973
 11
-127.036
 21
191.927
  0
LINE
  8
0
 10
-127.036
 20
191.927
 11
-126.861
 21
191.857
  0
LINE
  8
0
 10
-126.861
 20
191.857
 11
-126.696
 21
191.766
  0
LINE
  8
0
 10
-126.696
 20
191.766
 11
-126.544
 21
191.656
  0
LINE
  8
0
 10
-126.544
 20
191.656
 11
-126.407
 21
191.527
  0
LINE
  8
0
 10
-126.407
 20
191.527
 11
-126.286
 21
191.382
  0
LINE
  8
0
 10
-126.286
 20
191.382
 11
-126.186
 21
191.223
  0
LINE
  8
0
 10
-126.186
 20
191.223
 11
-126.105
 21
191.052
  0
LINE
  8
0
 10
-126.105
 20
191.052
 11
-126.047
 21
190.873
  0
LINE
  8
0
 10
-126.047
 20
190.873
 11
-126.012
 21
190.688
  0
LINE
  8
0
 10
-126.012
 20
190.688
 11
-126
 21
190.5
  0
LINE
  8
0
 10
-126
 20
190.5
 11
-126.012
 21
190.312
  0
LINE
  8
0
 10
-126.012
 20
190.312
 11
-126.047
 21
190.127
  0
LINE
  8
0
 10
-126.047
 20
190.127
 11
-126.105
 21
189.948
  0
LINE
  8
0
 10
-126.105
 20
189.948
 11
-126.186
 21
189.777
  0
LINE
  8
0
 10
-126.186
 20
189.777
 11
-126.286
 21
189.618
  0
LINE
  8
0
 10
-126.286
 20
189.618
 11
-126.407
 21
189.473
  0
LINE
  8
0
 10
-126.407
 20
189.473
 11
-126.544
 21
189.344
  0
LINE
  8
0
 10
-126.544
 20
189.344
 11
-126.696
 21
189.234
  0
LINE
  8
0
 10
-126.696
 20
189.234
 11
-126.861
 21
189.143
  0
LINE
  8
0
 10
-126.861
 20
189.143
 11
-127.036
 21
189.073
  0
LINE
  8
0
 10
-127.036
 20
189.073
 11
-127.219
 21
189.027
  0
LINE
  8
0
 10
-127.219
 20
189.027
 11
-127.406
 21
189.003
  0
LINE
  8
0
 10
-127.406
 20
189.003
 11
-127.594
 21
189.003
  0
LINE
  8
0
 10
-127.688
 20
180.006
 11
-128.062
 21
180.053
  0
LINE
  8
0
 10
-128.062
 20
180.053
 11
-128.427
 21
180.147
  0
LINE
  8
0
 10
-128.427
 20
180.147
 11
-128.777
 21
180.286
  0
LINE
  8
0
 10
-128.777
 20
180.286
 11
-129.107
 21
180.467
  0
LINE
  8
0
 10
-129.107
 20
180.467
 11
-129.412
 21
180.688
  0
LINE
  8
0
 10
-129.412
 20
180.688
 11
-129.687
 21
180.946
  0
LINE
  8
0
 10
-129.687
 20
180.946
 11
-129.927
 21
181.237
  0
LINE
  8
0
 10
-129.927
 20
181.237
 11
-130.129
 21
181.555
  0
LINE
  8
0
 10
-130.129
 20
181.555
 11
-130.289
 21
181.896
  0
LINE
  8
0
 10
-130.289
 20
181.896
 11
-130.406
 21
182.254
  0
LINE
  8
0
 10
-130.406
 20
182.254
 11
-130.476
 21
182.624
  0
LINE
  8
0
 10
-130.476
 20
182.624
 11
-130.5
 21
183
  0
LINE
  8
0
 10
-130.5
 20
183
 11
-130.476
 21
183.376
  0
LINE
  8
0
 10
-130.476
 20
183.376
 11
-130.406
 21
183.746
  0
LINE
  8
0
 10
-130.406
 20
183.746
 11
-130.289
 21
184.104
  0
LINE
  8
0
 10
-130.289
 20
184.104
 11
-130.129
 21
184.445
  0
LINE
  8
0
 10
-130.129
 20
184.445
 11
-129.927
 21
184.763
  0
LINE
  8
0
 10
-129.927
 20
184.763
 11
-129.687
 21
185.054
  0
LINE
  8
0
 10
-129.687
 20
185.054
 11
-129.412
 21
185.312
  0
LINE
  8
0
 10
-129.412
 20
185.312
 11
-129.107
 21
185.533
  0
LINE
  8
0
 10
-129.107
 20
185.533
 11
-128.777
 21
185.714
  0
LINE
  8
0
 10
-128.777
 20
185.714
 11
-128.427
 21
185.853
  0
LINE
  8
0
 10
-128.427
 20
185.853
 11
-128.062
 21
185.947
  0
LINE
  8
0
 10
-128.062
 20
185.947
 11
-127.688
 21
185.994
  0
LINE
  8
0
 10
-127.688
 20
185.994
 11
-127.312
 21
185.994
  0
LINE
  8
0
 10
-127.312
 20
185.994
 11
-126.938
 21
185.947
  0
LINE
  8
0
 10
-126.938
 20
185.947
 11
-126.573
 21
185.853
  0
LINE
  8
0
 10
-126.573
 20
185.853
 11
-126.223
 21
185.714
  0
LINE
  8
0
 10
-126.223
 20
185.714
 11
-125.893
 21
185.533
  0
LINE
  8
0
 10
-125.893
 20
185.533
 11
-125.588
 21
185.312
  0
LINE
  8
0
 10
-125.588
 20
185.312
 11
-125.313
 21
185.054
  0
LINE
  8
0
 10
-125.313
 20
185.054
 11
-125.073
 21
184.763
  0
LINE
  8
0
 10
-125.073
 20
184.763
 11
-124.871
 21
184.445
  0
LINE
  8
0
 10
-124.871
 20
184.445
 11
-124.711
 21
184.104
  0
LINE
  8
0
 10
-124.711
 20
184.104
 11
-124.594
 21
183.746
  0
LINE
  8
0
 10
-124.594
 20
183.746
 11
-124.524
 21
183.376
  0
LINE
  8
0
 10
-124.524
 20
183.376
 11
-124.5
 21
183
  0
LINE
  8
0
 10
-124.5
 20
183
 11
-124.524
 21
182.624
  0
LINE
  8
0
 10
-124.524
 20
182.624
 11
-124.594
 21
182.254
  0
LINE
  8
0
 10
-124.594
 20
182.254
 11
-124.711
 21
181.896
  0
LINE
  8
0
 10
-124.711
 20
181.896
 11
-124.871
 21
181.555
  0
LINE
  8
0
 10
-124.871
 20
181.555
 11
-125.073
 21
181.237
  0
LINE
  8
0
 10
-125.073
 20
181.237
 11
-125.313
 21
180.946
  0
LINE
  8
0
 10
-125.313
 20
180.946
 11
-125.588
 21
180.688
  0
LINE
  8
0
 10
-125.588
 20
180.688
 11
-125.893
 21
180.467
  0
LINE
  8
0
 10
-125.893
 20
180.467
 11
-126.223
 21
180.286
  0
LINE
  8
0
 10
-126.223
 20
180.286
 11
-126.573
 21
180.147
  0
LINE
  8
0
 10
-126.573
 20
180.147
 11
-126.938
 21
180.053
  0
LINE
  8
0
 10
-126.938
 20
180.053
 11
-127.312
 21
180.006
  0
LINE
  8
0
 10
-127.312
 20
180.006
 11
-127.688
 21
180.006
  0
LINE
  8
0
 10
130.437
 20
62.0886
 11
131.045
 21
62.2447
  0
LINE
  8
0
 10
131.045
 20
62.2447
 11
131.629
 21
62.4759
  0
LINE
  8
0
 10
131.629
 20
62.4759
 11
132.179
 21
62.7784
  0
LINE
  8
0
 10
132.179
 20
62.7784
 11
132.687
 21
63.1474
  0
LINE
  8
0
 10
132.687
 20
63.1474
 11
133.145
 21
63.5773
  0
LINE
  8
0
 10
133.145
 20
63.5773
 11
133.545
 21
64.0611
  0
LINE
  8
0
 10
133.545
 20
64.0611
 11
133.882
 21
64.5912
  0
LINE
  8
0
 10
133.882
 20
64.5912
 11
134.149
 21
65.1594
  0
LINE
  8
0
 10
134.149
 20
65.1594
 11
134.343
 21
65.7566
  0
LINE
  8
0
 10
134.343
 20
65.7566
 11
134.461
 21
66.3733
  0
LINE
  8
0
 10
134.461
 20
66.3733
 11
134.5
 21
67
  0
LINE
  8
0
 10
134.5
 20
67
 11
134.5
 21
161
  0
LINE
  8
0
 10
134.5
 20
161
 11
134.461
 21
161.627
  0
LINE
  8
0
 10
134.461
 20
161.627
 11
134.343
 21
162.243
  0
LINE
  8
0
 10
134.343
 20
162.243
 11
134.149
 21
162.841
  0
LINE
  8
0
 10
134.149
 20
162.841
 11
133.882
 21
163.409
  0
LINE
  8
0
 10
133.882
 20
163.409
 11
133.545
 21
163.939
  0
LINE
  8
0
 10
133.545
 20
163.939
 11
133.145
 21
164.423
  0
LINE
  8
0
 10
133.145
 20
164.423
 11
132.687
 21
164.853
  0
LINE
  8
0
 10
132.687
 20
164.853
 11
132.179
 21
165.222
  0
LINE
  8
0
 10
132.179
 20
165.222
 11
131.629
 21
165.524
  0
LINE
  8
0
 10
131.629
 20
165.524
 11
131.045
 21
165.755
  0
LINE
  8
0
 10
131.045
 20
165.755
 11
130.437
 21
165.911
  0
LINE
  8
0
 10
130.437
 20
165.911
 11
129.814
 21
165.99
  0
LINE
  8
0
 10
129.814
 20
165.99
 11
-129.814
 21
165.99
  0
LINE
  8
0
 10
-129.814
 20
165.99
 11
-130.437
 21
165.911
  0
LINE
  8
0
 10
-130.437
 20
165.911
 11
-131.045
 21
165.755
  0
LINE
  8
0
 10
-131.045
 20
165.755
 11
-131.629
 21
165.524
  0
LINE
  8
0
 10
-131.629
 20
165.524
 11
-132.179
 21
165.222
  0
LINE
  8
0
 10
-132.179
 20
165.222
 11
-132.687
 21
164.853
  0
LINE
  8
0
 10
-132.687
 20
164.853
 11
-133.145
 21
164.423
  0
LINE
  8
0
 10
-133.145
 20
164.423
 11
-133.545
 21
163.939
  0
LINE
  8
0
 10
-133.545
 20
163.939
 11
-133.882
 21
163.409
  0
LINE
  8
0
 10
-133.882
 20
163.409
 11
-134.149
 21
162.841
  0
LINE
  8
0
 10
-134.149
 20
162.841
 11
-134.343
 21
162.243
  0
LINE
  8
0
 10
-134.343
 20
162.243
 11
-134.461
 21
161.627
  0
LINE
  8
0
 10
-134.461
 20
161.627
 11
-134.5
 21
161
  0
LINE
  8
0
 10
-134.5
 20
161
 11
-134.5
 21
67
  0
LINE
  8
0
 10
-134.5
 20
67
 11
-134.461
 21
66.3733
  0
LINE
  8
0
 10
-134.461
 20
66.3733
 11
-134.343
 21
65.7566
  0
LINE
  8
0
 10
-134.343
 20
65.7566
 11
-134.149
 21
65.1594
  0
LINE
  8
0
 10
-134.149
 20
65.1594
 11
-133.882
 21
64.5912
  0
LINE
  8
0
 10
-133.882
 20
64.5912
 11
-133.545
 21
64.0611
  0
LINE
  8
0
 10
-133.545
 20
64.0611
 11
-133.145
 21
63.5773
  0
LINE
  8
0
 10
-133.145
 20
63.5773
 11
-132.687
 21
63.1474
  0
LINE
  8
0
 10
-132.687
 20
63.1474
 11
-132.179
 21
62.7784
  0
LINE
  8
0
 10
-132.179
 20
62.7784
 11
-131.629
 21
62.4759
  0
LINE
  8
0
 10
-131.629
 20
62.4759
 11
-131.045
 21
62.2447
  0
LINE
  8
0
 10
-131.045
 20
62.2447
 11
-130.437
 21
62.0886
  0
LINE
  8
0
 10
-130.437
 20
62.0886
 11
-129.814
 21
62.0099
  0
LINE
  8
0
 10
-129.814
 20
62.0099
 11
129.814
 21
62.0099
  0
LINE
  8
0
 10
129.814
 20
62.0099
 11
130.437
 21
62.0886
  0
LINE
  8
0
 10
-127.688
 20
156.006
 11
-128.062
 21
156.053
  0
LINE
  8
0
 10
-128.062
 20
156.053
 11
-128.427
 21
156.147
  0
LINE
  8
0
 10
-128.427
 20
156.147
 11
-128.777
 21
156.286
  0
LINE
  8
0
 10
-128.777
 20
156.286
 11
-129.107
 21
156.467
  0
LINE
  8
0
 10
-129.107
 20
156.467
 11
-129.412
 21
156.688
  0
LINE
  8
0
 10
-129.412
 20
156.688
 11
-129.687
 21
156.946
  0
LINE
  8
0
 10
-129.687
 20
156.946
 11
-129.927
 21
157.237
  0
LINE
  8
0
 10
-129.927
 20
157.237
 11
-130.129
 21
157.555
  0
LINE
  8
0
 10
-130.129
 20
157.555
 11
-130.289
 21
157.896
  0
LINE
  8
0
 10
-130.289
 20
157.896
 11
-130.406
 21
158.254
  0
LINE
  8
0
 10
-130.406
 20
158.254
 11
-130.476
 21
158.624
  0
LINE
  8
0
 10
-130.476
 20
158.624
 11
-130.5
 21
159
  0
LINE
  8
0
 10
-130.5
 20
159
 11
-130.476
 21
159.376
  0
LINE
  8
0
 10
-130.476
 20
159.376
 11
-130.406
 21
159.746
  0
LINE
  8
0
 10
-130.406
 20
159.746
 11
-130.289
 21
160.104
  0
LINE
  8
0
 10
-130.289
 20
160.104
 11
-130.129
 21
160.445
  0
LINE
  8
0
 10
-130.129
 20
160.445
 11
-129.927
 21
160.763
  0
LINE
  8
0
 10
-129.927
 20
160.763
 11
-129.687
 21
161.054
  0
LINE
  8
0
 10
-129.687
 20
161.054
 11
-129.412
 21
161.312
  0
LINE
  8
0
 10
-129.412
 20
161.312
 11
-129.107
 21
161.533
  0
LINE
  8
0
 10
-129.107
 20
161.533
 11
-128.777
 21
161.714
  0
LINE
  8
0
 10
-128.777
 20
161.714
 11
-128.427
 21
161.853
  0
LINE
  8
0
 10
-128.427
 20
161.853
 11
-128.062
 21
161.947
  0
LINE
  8
0
 10
-128.062
 20
161.947
 11
-127.688
 21
161.994
  0
LINE
  8
0
 10
-127.688
 20
161.994
 11
-127.312
 21
161.994
  0
LINE
  8
0
 10
-127.312
 20
161.994
 11
-126.938
 21
161.947
  0
LINE
  8
0
 10
-126.938
 20
161.947
 11
-126.573
 21
161.853
  0
LINE
  8
0
 10
-126.573
 20
161.853
 11
-126.223
 21
161.714
  0
LINE
  8
0
 10
-126.223
 20
161.714
 11
-125.893
 21
161.533
  0
LINE
  8
0
 10
-125.893
 20
161.533
 11
-125.588
 21
161.312
  0
LINE
  8
0
 10
-125.588
 20
161.312
 11
-125.313
 21
161.054
  0
LINE
  8
0
 10
-125.313
 20
161.054
 11
-125.073
 21
160.763
  0
LINE
  8
0
 10
-125.073
 20
160.763
 11
-124.871
 21
160.445
  0
LINE
  8
0
 10
-124.871
 20
160.445
 11
-124.711
 21
160.104
  0
LINE
  8
0
 10
-124.711
 20
160.104
 11
-124.594
 21
159.746
  0
LINE
  8
0
 10
-124.594
 20
159.746
 11
-124.524
 21
159.376
  0
LINE
  8
0
 10
-124.524
 20
159.376
 11
-124.5
 21
159
  0
LINE
  8
0
 10
-124.5
 20
159
 11
-124.524
 21
158.624
  0
LINE
  8
0
 10
-124.524
 20
158.624
 11
-124.594
 21
158.254
  0
LINE
  8
0
 10
-124.594
 20
158.254
 11
-124.711
 21
157.896
  0
LINE
  8
0
 10
-124.711
 20
157.896
 11
-124.871
 21
157.555
  0
LINE
  8
0
 10
-124.871
 20
157.555
 11
-125.073
 21
157.237
  0
LINE
  8
0
 10
-125.073
 20
157.237
 11
-125.313
 21
156.946
  0
LINE
  8
0
 10
-125.313
 20
156.946
 11
-125.588
 21
156.688
  0
LINE
  8
0
 10
-125.588
 20
156.688
 11
-125.893
 21
156.467
  0
LINE
  8
0
 10
-125.893
 20
156.467
 11
-126.223
 21
156.286
  0
LINE
  8
0
 10
-126.223
 20
156.286
 11
-126.573
 21
156.147
  0
LINE
  8
0
 10
-126.573
 20
156.147
 11
-126.938
 21
156.053
  0
LINE
  8
0
 10
-126.938
 20
156.053
 11
-127.312
 21
156.006
  0
LINE
  8
0
 10
-127.312
 20
156.006
 11
-127.688
 21
156.006
  0
LINE
  8
0
 10
-127.594
 20
150.003
 11
-127.781
 21
150.027
  0
LINE
  8
0
 10
-127.781
 20
150.027
 11
-127.964
 21
150.073
  0
LINE
  8
0
 10
-127.964
 20
150.073
 11
-128.139
 21
150.143
  0
LINE
  8
0
 10
-128.139
 20
150.143
 11
-128.304
 21
150.234
  0
LINE
  8
0
 10
-128.304
 20
150.234
 11
-128.456
 21
150.344
  0
LINE
  8
0
 10
-128.456
 20
150.344
 11
-128.593
 21
150.473
  0
LINE
  8
0
 10
-128.593
 20
150.473
 11
-128.714
 21
150.618
  0
LINE
  8
0
 10
-128.714
 20
150.618
 11
-128.814
 21
150.777
  0
LINE
  8
0
 10
-128.814
 20
150.777
 11
-128.895
 21
150.948
  0
LINE
  8
0
 10
-128.895
 20
150.948
 11
-128.953
 21
151.127
  0
LINE
  8
0
 10
-128.953
 20
151.127
 11
-128.988
 21
151.312
  0
LINE
  8
0
 10
-128.988
 20
151.312
 11
-129
 21
151.5
  0
LINE
  8
0
 10
-129
 20
151.5
 11
-128.988
 21
151.688
  0
LINE
  8
0
 10
-128.988
 20
151.688
 11
-128.953
 21
151.873
  0
LINE
  8
0
 10
-128.953
 20
151.873
 11
-128.895
 21
152.052
  0
LINE
  8
0
 10
-128.895
 20
152.052
 11
-128.814
 21
152.223
  0
LINE
  8
0
 10
-128.814
 20
152.223
 11
-128.714
 21
152.382
  0
LINE
  8
0
 10
-128.714
 20
152.382
 11
-128.593
 21
152.527
  0
LINE
  8
0
 10
-128.593
 20
152.527
 11
-128.456
 21
152.656
  0
LINE
  8
0
 10
-128.456
 20
152.656
 11
-128.304
 21
152.766
  0
LINE
  8
0
 10
-128.304
 20
152.766
 11
-128.139
 21
152.857
  0
LINE
  8
0
 10
-128.139
 20
152.857
 11
-127.964
 21
152.927
  0
LINE
  8
0
 10
-127.964
 20
152.927
 11
-127.781
 21
152.973
  0
LINE
  8
0
 10
-127.781
 20
152.973
 11
-127.594
 21
152.997
  0
LINE
  8
0
 10
-127.594
 20
152.997
 11
-127.406
 21
152.997
  0
LINE
  8
0
 10
-127.406
 20
152.997
 11
-127.219
 21
152.973
  0
LINE
  8
0
 10
-127.219
 20
152.973
 11
-127.036
 21
152.927
  0
LINE
  8
0
 10
-127.036
 20
152.927
 11
-126.861
 21
152.857
  0
LINE
  8
0
 10
-126.861
 20
152.857
 11
-126.696
 21
152.766
  0
LINE
  8
0
 10
-126.696
 20
152.766
 11
-126.544
 21
152.656
  0
LINE
  8
0
 10
-126.544
 20
152.656
 11
-126.407
 21
152.527
  0
LINE
  8
0
 10
-126.407
 20
152.527
 11
-126.286
 21
152.382
  0
LINE
  8
0
 10
-126.286
 20
152.382
 11
-126.186
 21
152.223
  0
LINE
  8
0
 10
-126.186
 20
152.223
 11
-126.105
 21
152.052
  0
LINE
  8
0
 10
-126.105
 20
152.052
 11
-126.047
 21
151.873
  0
LINE
  8
0
 10
-126.047
 20
151.873
 11
-126.012
 21
151.688
  0
LINE
  8
0
 10
-126.012
 20
151.688
 11
-126
 21
151.5
  0
LINE
  8
0
 10
-126
 20
151.5
 11
-126.012
 21
151.312
  0
LINE
  8
0
 10
-126.012
 20
151.312
 11
-126.047
 21
151.127
  0
LINE
  8
0
 10
-126.047
 20
151.127
 11
-126.105
 21
150.948
  0
LINE
  8
0
 10
-126.105
 20
150.948
 11
-126.186
 21
150.777
  0
LINE
  8
0
 10
-126.186
 20
150.777
 11
-126.286
 21
150.618
  0
LINE
  8
0
 10
-126.286
 20
150.618
 11
-126.407
 21
150.473
  0
LINE
  8
0
 10
-126.407
 20
150.473
 11
-126.544
 21
150.344
  0
LINE
  8
0
 10
-126.544
 20
150.344
 11
-126.696
 21
150.234
  0
LINE
  8
0
 10
-126.696
 20
150.234
 11
-126.861
 21
150.143
  0
LINE
  8
0
 10
-126.861
 20
150.143
 11
-127.036
 21
150.073
  0
LINE
  8
0
 10
-127.036
 20
150.073
 11
-127.219
 21
150.027
  0
LINE
  8
0
 10
-127.219
 20
150.027
 11
-127.406
 21
150.003
  0
LINE
  8
0
 10
-127.406
 20
150.003
 11
-127.594
 21
150.003
  0
LINE
  8
0
 10
-127.688
 20
141.006
 11
-128.062
 21
141.053
  0
LINE
  8
0
 10
-128.062
 20
141.053
 11
-128.427
 21
141.147
  0
LINE
  8
0
 10
-128.427
 20
141.147
 11
-128.777
 21
141.286
  0
LINE
  8
0
 10
-128.777
 20
141.286
 11
-129.107
 21
141.467
  0
LINE
  8
0
 10
-129.107
 20
141.467
 11
-129.412
 21
141.688
  0
LINE
  8
0
 10
-129.412
 20
141.688
 11
-129.687
 21
141.946
  0
LINE
  8
0
 10
-129.687
 20
141.946
 11
-129.927
 21
142.237
  0
LINE
  8
0
 10
-129.927
 20
142.237
 11
-130.129
 21
142.555
  0
LINE
  8
0
 10
-130.129
 20
142.555
 11
-130.289
 21
142.896
  0
LINE
  8
0
 10
-130.289
 20
142.896
 11
-130.406
 21
143.254
  0
LINE
  8
0
 10
-130.406
 20
143.254
 11
-130.476
 21
143.624
  0
LINE
  8
0
 10
-130.476
 20
143.624
 11
-130.5
 21
144
  0
LINE
  8
0
 10
-130.5
 20
144
 11
-130.476
 21
144.376
  0
LINE
  8
0
 10
-130.476
 20
144.376
 11
-130.406
 21
144.746
  0
LINE
  8
0
 10
-130.406
 20
144.746
 11
-130.289
 21
145.104
  0
LINE
  8
0
 10
-130.289
 20
145.104
 11
-130.129
 21
145.445
  0
LINE
  8
0
 10
-130.129
 20
145.445
 11
-129.927
 21
145.763
  0
LINE
  8
0
 10
-129.927
 20
145.763
 11
-129.687
 21
146.054
  0
LINE
  8
0
 10
-129.687
 20
146.054
 11
-129.412
 21
146.312
  0
LINE
  8
0
 10
-129.412
 20
146.312
 11
-129.107
 21
146.533
  0
LINE
  8
0
 10
-129.107
 20
146.533
 11
-128.777
 21
146.714
  0
LINE
  8
0
 10
-128.777
 20
146.714
 11
-128.427
 21
146.853
  0
LINE
  8
0
 10
-128.427
 20
146.853
 11
-128.062
 21
146.947
  0
LINE
  8
0
 10
-128.062
 20
146.947
 11
-127.688
 21
146.994
  0
LINE
  8
0
 10
-127.688
 20
146.994
 11
-127.312
 21
146.994
  0
LINE
  8
0
 10
-127.312
 20
146.994
 11
-126.938
 21
146.947
  0
LINE
  8
0
 10
-126.938
 20
146.947
 11
-126.573
 21
146.853
  0
LINE
  8
0
 10
-126.573
 20
146.853
 11
-126.223
 21
146.714
  0
LINE
  8
0
 10
-126.223
 20
146.714
 11
-125.893
 21
146.533
  0
LINE
  8
0
 10
-125.893
 20
146.533
 11
-125.588
 21
146.312
  0
LINE
  8
0
 10
-125.588
 20
146.312
 11
-125.313
 21
146.054
  0
LINE
  8
0
 10
-125.313
 20
146.054
 11
-125.073
 21
145.763
  0
LINE
  8
0
 10
-125.073
 20
145.763
 11
-124.871
 21
145.445
  0
LINE
  8
0
 10
-124.871
 20
145.445
 11
-124.711
 21
145.104
  0
LINE
  8
0
 10
-124.711
 20
145.104
 11
-124.594
 21
144.746
  0
LINE
  8
0
 10
-124.594
 20
144.746
 11
-124.524
 21
144.376
  0
LINE
  8
0
 10
-124.524
 20
144.376
 11
-124.5
 21
144
  0
LINE
  8
0
 10
-124.5
 20
144
 11
-124.524
 21
143.624
  0
LINE
  8
0
 10
-124.524
 20
143.624
 11
-124.594
 21
143.254
  0
LINE
  8
0
 10
-124.594
 20
143.254
 11
-124.711
 21
142.896
  0
LINE
  8
0
 10
-124.711
 20
142.896
 11
-124.871
 21
142.555
  0
LINE
  8
0
 10
-124.871
 20
142.555
 11
-125.073
 21
142.237
  0
LINE
  8
0
 10
-125.073
 20
142.237
 11
-125.313
 21
141.946
  0
LINE
  8
0
 10
-125.313
 20
141.946
 11
-125.588
 21
141.688
  0
LINE
  8
0
 10
-125.588
 20
141.688
 11
-125.893
 21
141.467
  0
LINE
  8
0
 10
-125.893
 20
141.467
 11
-126.223
 21
141.286
  0
LINE
  8
0
 10
-126.223
 20
141.286
 11
-126.573
 21
141.147
  0
LINE
  8
0
 10
-126.573
 20
141.147
 11
-126.938
 21
141.053
  0
LINE
  8
0
 10
-126.938
 20
141.053
 11
-127.312
 21
141.006
  0
LINE
  8
0
 10
-127.312
 20
141.006
 11
-127.688
 21
141.006
  0
LINE
  8
0
 10
-127.594
 20
135.003
 11
-127.781
 21
135.027
  0
LINE
  8
0
 10
-127.781
 20
135.027
 11
-127.964
 21
135.073
  0
LINE
  8
0
 10
-127.964
 20
135.073
 11
-128.139
 21
135.143
  0
LINE
  8
0
 10
-128.139
 20
135.143
 11
-128.304
 21
135.234
  0
LINE
  8
0
 10
-128.304
 20
135.234
 11
-128.456
 21
135.344
  0
LINE
  8
0
 10
-128.456
 20
135.344
 11
-128.593
 21
135.473
  0
LINE
  8
0
 10
-128.593
 20
135.473
 11
-128.714
 21
135.618
  0
LINE
  8
0
 10
-128.714
 20
135.618
 11
-128.814
 21
135.777
  0
LINE
  8
0
 10
-128.814
 20
135.777
 11
-128.895
 21
135.948
  0
LINE
  8
0
 10
-128.895
 20
135.948
 11
-128.953
 21
136.127
  0
LINE
  8
0
 10
-128.953
 20
136.127
 11
-128.988
 21
136.312
  0
LINE
  8
0
 10
-128.988
 20
136.312
 11
-129
 21
136.5
  0
LINE
  8
0
 10
-129
 20
136.5
 11
-128.988
 21
136.688
  0
LINE
  8
0
 10
-128.988
 20
136.688
 11
-128.953
 21
136.873
  0
LINE
  8
0
 10
-128.953
 20
136.873
 11
-128.895
 21
137.052
  0
LINE
  8
0
 10
-128.895
 20
137.052
 11
-128.814
 21
137.223
  0
LINE
  8
0
 10
-128.814
 20
137.223
 11
-128.714
 21
137.382
  0
LINE
  8
0
 10
-128.714
 20
137.382
 11
-128.593
 21
137.527
  0
LINE
  8
0
 10
-128.593
 20
137.527
 11
-128.456
 21
137.656
  0
LINE
  8
0
 10
-128.456
 20
137.656
 11
-128.304
 21
137.766
  0
LINE
  8
0
 10
-128.304
 20
137.766
 11
-128.139
 21
137.857
  0
LINE
  8
0
 10
-128.139
 20
137.857
 11
-127.964
 21
137.927
  0
LINE
  8
0
 10
-127.964
 20
137.927
 11
-127.781
 21
137.973
  0
LINE
  8
0
 10
-127.781
 20
137.973
 11
-127.594
 21
137.997
  0
LINE
  8
0
 10
-127.594
 20
137.997
 11
-127.406
 21
137.997
  0
LINE
  8
0
 10
-127.406
 20
137.997
 11
-127.219
 21
137.973
  0
LINE
  8
0
 10
-127.219
 20
137.973
 11
-127.036
 21
137.927
  0
LINE
  8
0
 10
-127.036
 20
137.927
 11
-126.861
 21
137.857
  0
LINE
  8
0
 10
-126.861
 20
137.857
 11
-126.696
 21
137.766
  0
LINE
  8
0
 10
-126.696
 20
137.766
 11
-126.544
 21
137.656
  0
LINE
  8
0
 10
-126.544
 20
137.656
 11
-126.407
 21
137.527
  0
LINE
  8
0
 10
-126.407
 20
137.527
 11
-126.286
 21
137.382
  0
LINE
  8
0
 10
-126.286
 20
137.382
 11
-126.186
 21
137.223
  0
LINE
  8
0
 10
-126.186
 20
137.223
 11
-126.105
 21
137.052
  0
LINE
  8
0
 10
-126.105
 20
137.052
 11
-126.047
 21
136.873
  0
LINE
  8
0
 10
-126.047
 20
136.873
 11
-126.012
 21
136.688
  0
LINE
  8
0
 10
-126.012
 20
136.688
 11
-126
 21
136.5
  0
LINE
  8
0
 10
-126
 20
136.5
 11
-126.012
 21
136.312
  0
LINE
  8
0
 10
-126.012
 20
136.312
 11
-126.047
 21
136.127
  0
LINE
  8
0
 10
-126.047
 20
136.127
 11
-126.105
 21
135.948
  0
LINE
  8
0
 10
-126.105
 20
135.948
 11
-126.186
 21
135.777
  0
LINE
  8
0
 10
-126.186
 20
135.777
 11
-126.286
 21
135.618
  0
LINE
  8
0
 10
-126.286
 20
135.618
 11
-126.407
 21
135.473
  0
LINE
  8
0
 10
-126.407
 20
135.473
 11
-126.544
 21
135.344
  0
LINE
  8
0
 10
-126.544
 20
135.344
 11
-126.696
 21
135.234
  0
LINE
  8
0
 10
-126.696
 20
135.234
 11
-126.861
 21
135.143
  0
LINE
  8
0
 10
-126.861
 20
135.143
 11
-127.036
 21
135.073
  0
LINE
  8
0
 10
-127.036
 20
135.073
 11
-127.219
 21
135.027
  0
LINE
  8
0
 10
-127.219
 20
135.027
 11
-127.406
 21
135.003
  0
LINE
  8
0
 10
-127.406
 20
135.003
 11
-127.594
 21
135.003
  0
LINE
  8
0
 10
-127.688
 20
126.006
 11
-128.062
 21
126.053
  0
LINE
  8
0
 10
-128.062
 20
126.053
 11
-128.427
 21
126.147
  0
LINE
  8
0
 10
-128.427
 20
126.147
 11
-128.777
 21
126.286
  0
LINE
  8
0
 10
-128.777
 20
126.286
 11
-129.107
 21
126.467
  0
LINE
  8
0
 10
-129.107
 20
126.467
 11
-129.412
 21
126.688
  0
LINE
  8
0
 10
-129.412
 20
126.688
 11
-129.687
 21
126.946
  0
LINE
  8
0
 10
-129.687
 20
126.946
 11
-129.927
 21
127.237
  0
LINE
  8
0
 10
-129.927
 20
127.237
 11
-130.129
 21
127.555
  0
LINE
  8
0
 10
-130.129
 20
127.555
 11
-130.289
 21
127.896
  0
LINE
  8
0
 10
-130.289
 20
127.896
 11
-130.406
 21
128.254
  0
LINE
  8
0
 10
-130.406
 20
128.254
 11
-130.476
 21
128.624
  0
LINE
  8
0
 10
-130.476
 20
128.624
 11
-130.5
 21
129
  0
LINE
  8
0
 10
-130.5
 20
129
 11
-130.476
 21
129.376
  0
LINE
  8
0
 10
-130.476
 20
129.376
 11
-130.406
 21
129.746
  0
LINE
  8
0
 10
-130.406
 20
129.746
 11
-130.289
 21
130.104
  0
LINE
  8
0
 10
-130.289
 20
130.104
 11
-130.129
 21
130.445
  0
LINE
  8
0
 10
-130.129
 20
130.445
 11
-129.927
 21
130.763
  0
LINE
  8
0
 10
-129.927
 20
130.763
 11
-129.687
 21
131.054
  0
LINE
  8
0
 10
-129.687
 20
131.054
 11
-129.412
 21
131.312
  0
LINE
  8
0
 10
-129.412
 20
131.312
 11
-129.107
 21
131.533
  0
LINE
  8
0
 10
-129.107
 20
131.533
 11
-128.777
 21
131.714
  0
LINE
  8
0
 10
-128.777
 20
131.714
 11
-128.427
 21
131.853
  0
LINE
  8
0
 10
-128.427
 20
131.853
 11
-128.062
 21
131.947
  0
LINE
  8
0
 10
-128.062
 20
131.947
 11
-127.688
 21
131.994
  0
LINE
  8
0
 10
-127.688
 20
131.994
 11
-127.312
 21
131.994
  0
LINE
  8
0
 10
-127.312
 20
131.994
 11
-126.938
 21
131.947
  0
LINE
  8
0
 10
-126.938
 20
131.947
 11
-126.573
 21
131.853
  0
LINE
  8
0
 10
-126.573
 20
131.853
 11
-126.223
 21
131.714
  0
LINE
  8
0
 10
-126.223
 20
131.714
 11
-125.893
 21
131.533
  0
LINE
  8
0
 10
-125.893
 20
131.533
 11
-125.588
 21
131.312
  0
LINE
  8
0
 10
-125.588
 20
131.312
 11
-125.313
 21
131.054
  0
LINE
  8
0
 10
-125.313
 20
131.054
 11
-125.073
 21
130.763
  0
LINE
  8
0
 10
-125.073
 20
130.763
 11
-124.871
 21
130.445
  0
LINE
  8
0
 10
-124.871
 20
130.445
 11
-124.711
 21
130.104
  0
LINE
  8
0
 10
-124.711
 20
130.104
 11
-124.594
 21
129.746
  0
LINE
  8
0
 10
-124.594
 20
129.746
 11
-124.524
 21
129.376
  0
LINE
  8
0
 10
-124.524
 20
129.376
 11
-124.5
 21
129
  0
LINE
  8
0
 10
-124.5
 20
129
 11
-124.524
 21
128.624
  0
LINE
  8
0
 10
-124.524
 20
128.624
 11
-124.594
 21
128.254
  0
LINE
  8
0
 10
-124.594
 20
128.254
 11
-124.711
 21
127.896
  0
LINE
  8
0
 10
-124.711
 20
127.896
 11
-124.871
 21
127.555
  0
LINE
  8
0
 10
-124.871
 20
127.555
 11
-125.073
 21
127.237
  0
LINE
  8
0
 10
-125.073
 20
127.237
 11
-125.313
 21
126.946
  0
LINE
  8
0
 10
-125.313
 20
126.946
 11
-125.588
 21
126.688
  0
LINE
  8
0
 10
-125.588
 20
126.688
 11
-125.893
 21
126.467
  0
LINE
  8
0
 10
-125.893
 20
126.467
 11
-126.223
 21
126.286
  0
LINE
  8
0
 10
-126.223
 20
126.286
 11
-126.573
 21
126.147
  0
LINE
  8
0
 10
-126.573
 20
126.147
 11
-126.938
 21
126.053
  0
LINE
  8
0
 10
-126.938
 20
126.053
 11
-127.312
 21
126.006
  0
LINE
  8
0
 10
-127.312
 20
126.006
 11
-127.688
 21
126.006
  0
LINE
  8
0
 10
-127.594
 20
120.003
 11
-127.781
 21
120.027
  0
LINE
  8
0
 10
-127.781
 20
120.027
 11
-127.964
 21
120.073
  0
LINE
  8
0
 10
-127.964
 20
120.073
 11
-128.139
 21
120.143
  0
LINE
  8
0
 10
-128.139
 20
120.143
 11
-128.304
 21
120.234
  0
LINE
  8
0
 10
-128.304
 20
120.234
 11
-128.456
 21
120.344
  0
LINE
  8
0
 10
-128.456
 20
120.344
 11
-128.593
 21
120.473
  0
LINE
  8
0
 10
-128.593
 20
120.473
 11
-128.714
 21
120.618
  0
LINE
  8
0
 10
-128.714
 20
120.618
 11
-128.814
 21
120.777
  0
LINE
  8
0
 10
-128.814
 20
120.777
 11
-128.895
 21
120.948
  0
LINE
  8
0
 10
-128.895
 20
120.948
 11
-128.953
 21
121.127
  0
LINE
  8
0
 10
-128.953
 20
121.127
 11
-128.988
 21
121.312
  0
LINE
  8
0
 10
-128.988
 20
121.312
 11
-129
 21
121.5
  0
LINE
  8
0
 10
-129
 20
121.5
 11
-128.988
 21
121.688
  0
LINE
  8
0
 10
-128.988
 20
121.688
 11
-128.953
 21
121.873
  0
LINE
  8
0
 10
-128.953
 20
121.873
 11
-128.895
 21
122.052
  0
LINE
  8
0
 10
-128.895
 20
122.052
 11
-128.814
 21
122.223
  0
LINE
  8
0
 10
-128.814
 20
122.223
 11
-128.714
 21
122.382
  0
LINE
  8
0
 10
-128.714
 20
122.382
 11
-128.593
 21
122.527
  0
LINE
  8
0
 10
-128.593
 20
122.527
 11
-128.456
 21
122.656
  0
LINE
  8
0
 10
-128.456
 20
122.656
 11
-128.304
 21
122.766
  0
LINE
  8
0
 10
-128.304
 20
122.766
 11
-128.139
 21
122.857
  0
LINE
  8
0
 10
-128.139
 20
122.857
 11
-127.964
 21
122.927
  0
LINE
  8
0
 10
-127.964
 20
122.927
 11
-127.781
 21
122.973
  0
LINE
  8
0
 10
-127.781
 20
122.973
 11
-127.594
 21
122.997
  0
LINE
  8
0
 10
-127.594
 20
122.997
 11
-127.406
 21
122.997
  0
LINE
  8
0
 10
-127.406
 20
122.997
 11
-127.219
 21
122.973
  0
LINE
  8
0
 10
-127.219
 20
122.973
 11
-127.036
 21
122.927
  0
LINE
  8
0
 10
-127.036
 20
122.927
 11
-126.861
 21
122.857
  0
LINE
  8
0
 10
-126.861
 20
122.857
 11
-126.696
 21
122.766
  0
LINE
  8
0
 10
-126.696
 20
122.766
 11
-126.544
 21
122.656
  0
LINE
  8
0
 10
-126.544
 20
122.656
 11
-126.407
 21
122.527
  0
LINE
  8
0
 10
-126.407
 20
122.527
 11
-126.286
 21
122.382
  0
LINE
  8
0
 10
-126.286
 20
122.382
 11
-126.186
 21
122.223
  0
LINE
  8
0
 10
-126.186
 20
122.223
 11
-126.105
 21
122.052
  0
LINE
  8
0
 10
-126.105
 20
122.052
 11
-126.047
 21
121.873
  0
LINE
  8
0
 10
-126.047
 20
121.873
 11
-126.012
 21
121.688
  0
LINE
  8
0
 10
-126.012
 20
121.688
 11
-126
 21
121.5
  0
LINE
  8
0
 10
-126
 20
121.5
 11
-126.012
 21
121.312
  0
LINE
  8
0
 10
-126.012
 20
121.312
 11
-126.047
 21
121.127
  0
LINE
  8
0
 10
-126.047
 20
121.127
 11
-126.105
 21
120.948
  0
LINE
  8
0
 10
-126.105
 20
120.948
 11
-126.186
 21
120.777
  0
LINE
  8
0
 10
-126.186
 20
120.777
 11
-126.286
 21
120.618
  0
LINE
  8
0
 10
-126.286
 20
120.618
 11
-126.407
 21
120.473
  0
LINE
  8
0
 10
-126.407
 20
120.473
 11
-126.544
 21
120.344
  0
LINE
  8
0
 10
-126.544
 20
120.344
 11
-126.696
 21
120.234
  0
LINE
  8
0
 10
-126.696
 20
120.234
 11
-126.861
 21
120.143
  0
LINE
  8
0
 10
-126.861
 20
120.143
 11
-127.036
 21
120.073
  0
LINE
  8
0
 10
-127.036
 20
120.073
 11
-127.219
 21
120.027
  0
LINE
  8
0
 10
-127.219
 20
120.027
 11
-127.406
 21
120.003
  0
LINE
  8
0
 10
-127.406
 20
120.003
 11
-127.594
 21
120.003
  0
LINE
  8
0
 10
-127.688
 20
111.006
 11
-128.062
 21
111.053
  0
LINE
  8
0
 10
-128.062
 20
111.053
 11
-128.427
 21
111.147
  0
LINE
  8
0
 10
-128.427
 20
111.147
 11
-128.777
 21
111.286
  0
LINE
  8
0
 10
-128.777
 20
111.286
 11
-129.107
 21
111.467
  0
LINE
  8
0
 10
-129.107
 20
111.467
 11
-129.412
 21
111.688
  0
LINE
  8
0
 10
-129.412
 20
111.688
 11
-129.687
 21
111.946
  0
LINE
  8
0
 10
-129.687
 20
111.946
 11
-129.927
 21
112.237
  0
LINE
  8
0
 10
-129.927
 20
112.237
 11
-130.129
 21
112.555
  0
LINE
  8
0
 10
-130.129
 20
112.555
 11
-130.289
 21
112.896
  0
LINE
  8
0
 10
-130.289
 20
112.896
 11
-130.406
 21
113.254
  0
LINE
  8
0
 10
-130.406
 20
113.254
 11
-130.476
 21
113.624
  0
LINE
  8
0
 10
-130.476
 20
113.624
 11
-130.5
 21
114
  0
LINE
  8
0
 10
-130.5
 20
114
 11
-130.476
 21
114.376
  0
LINE
  8
0
 10
-130.476
 20
114.376
 11
-130.406
 21
114.746
  0
LINE
  8
0
 10
-130.406
 20
114.746
 11
-130.289
 21
115.104
  0
LINE
  8
0
 10
-130.289
 20
115.104
 11
-130.129
 21
115.445
  0
LINE
  8
0
 10
-130.129
 20
115.445
 11
-129.927
 21
115.763
  0
LINE
  8
0
 10
-129.927
 20
115.763
 11
-129.687
 21
116.054
  0
LINE
  8
0
 10
-129.687
 20
116.054
 11
-129.412
 21
116.312
  0
LINE
  8
0
 10
-129.412
 20
116.312
 11
-129.107
 21
116.533
  0
LINE
  8
0
 10
-129.107
 20
116.533
 11
-128.777
 21
116.714
  0
LINE
  8
0
 10
-128.777
 20
116.714
 11
-128.427
 21
116.853
  0
LINE
  8
0
 10
-128.427
 20
116.853
 11
-128.062
 21
116.947
  0
LINE
  8
0
 10
-128.062
 20
116.947
 11
-127.688
 21
116.994
  0
LINE
  8
0
 10
-127.688
 20
116.994
 11
-127.312
 21
116.994
  0
LINE
  8
0
 10
-127.312
 20
116.994
 11
-126.938
 21
116.947
  0
LINE
  8
0
 10
-126.938
 20
116.947
 11
-126.573
 21
116.853
  0
LINE
  8
0
 10
-126.573
 20
116.853
 11
-126.223
 21
116.714
  0
LINE
  8
0
 10
-126.223
 20
116.714
 11
-125.893
 21
116.533
  0
LINE
  8
0
 10
-125.893
 20
116.533
 11
-125.588
 21
116.312
  0
LINE
  8
0
 10
-125.588
 20
116.312
 11
-125.313
 21
116.054
  0
LINE
  8
0
 10
-125.313
 20
116.054
 11
-125.073
 21
115.763
  0
LINE
  8
0
 10
-125.073
 20
115.763
 11
-124.871
 21
115.445
  0
LINE
  8
0
 10
-124.871
 20
115.445
 11
-124.711
 21
115.104
  0
LINE
  8
0
 10
-124.711
 20
115.104
 11
-124.594
 21
114.746
  0
LINE
  8
0
 10
-124.594
 20
114.746
 11
-124.524
 21
114.376
  0
LINE
  8
0
 10
-124.524
 20
114.376
 11
-124.5
 21
114
  0
LINE
  8
0
 10
-124.5
 20
114
 11
-124.524
 21
113.624
  0
LINE
  8
0
 10
-124.524
 20
113.624
 11
-124.594
 21
113.254
  0
LINE
  8
0
 10
-124.594
 20
113.254
 11
-124.711
 21
112.896
  0
LINE
  8
0
 10
-124.711
 20
112.896
 11
-124.871
 21
112.555
  0
LINE
  8
0
 10
-124.871
 20
112.555
 11
-125.073
 21
112.237
  0
LINE
  8
0
 10
-125.073
 20
112.237
 11
-125.313
 21
111.946
  0
LINE
  8
0
 10
-125.313
 20
111.946
 11
-125.588
 21
111.688
  0
LINE
  8
0
 10
-125.588
 20
111.688
 11
-125.893
 21
111.467
  0
LINE
  8
0
 10
-125.893
 20
111.467
 11
-126.223
 21
111.286
  0
LINE
  8
0
 10
-126.223
 20
111.286
 11
-126.573
 21
111.147
  0
LINE
  8
0
 10
-126.573
 20
111.147
 11
-126.938
 21
111.053
  0
LINE
  8
0
 10
-126.938
 20
111.053
 11
-127.312
 21
111.006
  0
LINE
  8
0
 10
-127.312
 20
111.006
 11
-127.688
 21
111.006
  0
LINE
  8
0
 10
-127.594
 20
105.003
 11
-127.781
 21
105.027
  0
LINE
  8
0
 10
-127.781
 20
105.027
 11
-127.964
 21
105.073
  0
LINE
  8
0
 10
-127.964
 20
105.073
 11
-128.139
 21
105.143
  0
LINE
  8
0
 10
-128.139
 20
105.143
 11
-128.304
 21
105.234
  0
LINE
  8
0
 10
-128.304
 20
105.234
 11
-128.456
 21
105.344
  0
LINE
  8
0
 10
-128.456
 20
105.344
 11
-128.593
 21
105.473
  0
LINE
  8
0
 10
-128.593
 20
105.473
 11
-128.714
 21
105.618
  0
LINE
  8
0
 10
-128.714
 20
105.618
 11
-128.814
 21
105.777
  0
LINE
  8
0
 10
-128.814
 20
105.777
 11
-128.895
 21
105.948
  0
LINE
  8
0
 10
-128.895
 20
105.948
 11
-128.953
 21
106.127
  0
LINE
  8
0
 10
-128.953
 20
106.127
 11
-128.988
 21
106.312
  0
LINE
  8
0
 10
-128.988
 20
106.312
 11
-129
 21
106.5
  0
LINE
  8
0
 10
-129
 20
106.5
 11
-128.988
 21
106.688
  0
LINE
  8
0
 10
-128.988
 20
106.688
 11
-128.953
 21
106.873
  0
LINE
  8
0
 10
-128.953
 20
106.873
 11
-128.895
 21
107.052
  0
LINE
  8
0
 10
-128.895
 20
107.052
 11
-128.814
 21
107.223
  0
LINE
  8
0
 10
-128.814
 20
107.223
 11
-128.714
 21
107.382
  0
LINE
  8
0
 10
-128.714
 20
107.382
 11
-128.593
 21
107.527
  0
LINE
  8
0
 10
-128.593
 20
107.527
 11
-128.456
 21
107.656
  0
LINE
  8
0
 10
-128.456
 20
107.656
 11
-128.304
 21
107.766
  0
LINE
  8
0
 10
-128.304
 20
107.766
 11
-128.139
 21
107.857
  0
LINE
  8
0
 10
-128.139
 20
107.857
 11
-127.964
 21
107.927
  0
LINE
  8
0
 10
-127.964
 20
107.927
 11
-127.781
 21
107.973
  0
LINE
  8
0
 10
-127.781
 20
107.973
 11
-127.594
 21
107.997
  0
LINE
  8
0
 10
-127.594
 20
107.997
 11
-127.406
 21
107.997
  0
LINE
  8
0
 10
-127.406
 20
107.997
 11
-127.219
 21
107.973
  0
LINE
  8
0
 10
-127.219
 20
107.973
 11
-127.036
 21
107.927
  0
LINE
  8
0
 10
-127.036
 20
107.927
 11
-126.861
 21
107.857
  0
LINE
  8
0
 10
-126.861
 20
107.857
 11
-126.696
 21
107.766
  0
LINE
  8
0
 10
-126.696
 20
107.766
 11
-126.544
 21
107.656
  0
LINE
  8
0
 10
-126.544
 20
107.656
 11
-126.407
 21
107.527
  0
LINE
  8
0
 10
-126.407
 20
107.527
 11
-126.286
 21
107.382
  0
LINE
  8
0
 10
-126.286
 20
107.382
 11
-126.186
 21
107.223
  0
LINE
  8
0
 10
-126.186
 20
107.223
 11
-126.105
 21
107.052
  0
LINE
  8
0
 10
-126.105
 20
107.052
 11
-126.047
 21
106.873
  0
LINE
  8
0
 10
-126.047
 20
106.873
 11
-126.012
 21
106.688
  0
LINE
  8
0
 10
-126.012
 20
106.688
 11
-126
 21
106.5
  0
LINE
  8
0
 10
-126
 20
106.5
 11
-126.012
 21
106.312
  0
LINE
  8
0
 10
-126.012
 20
106.312
 11
-126.047
 21
106.127
  0
LINE
  8
0
 10
-126.047
 20
106.127
 11
-126.105
 21
105.948
  0
LINE
  8
0
 10
-126.105
 20
105.948
 11
-126.186
 21
105.777
  0
LINE
  8
0
 10
-126.186
 20
105.777
 11
-126.286
 21
105.618
  0
LINE
  8
0
 10
-126.286
 20
105.618
 11
-126.407
 21
105.473
  0
LINE
  8
0
 10
-126.407
 20
105.473
 11
-126.544
 21
105.344
  0
LINE
  8
0
 10
-126.544
 20
105.344
 11
-126.696
 21
105.234
  0
LINE
  8
0
 10
-126.696
 20
105.234
 11
-126.861
 21
105.143
  0
LINE
  8
0
 10
-126.861
 20
105.143
 11
-127.036
 21
105.073
  0
LINE
  8
0
 10
-127.036
 20
105.073
 11
-127.219
 21
105.027
  0
LINE
  8
0
 10
-127.219
 20
105.027
 11
-127.406
 21
105.003
  0
LINE
  8
0
 10
-127.406
 20
105.003
 11
-127.594
 21
105.003
  0
LINE
  8
0
 10
-127.688
 20
96.0059
 11
-128.062
 21
96.0531
  0
LINE
  8
0
 10
-128.062
 20
96.0531
 11
-128.427
 21
96.1468
  0
LINE
  8
0
 10
-128.427
 20
96.1468
 11
-128.777
 21
96.2855
  0
LINE
  8
0
 10
-128.777
 20
96.2855
 11
-129.107
 21
96.467
  0
LINE
  8
0
 10
-129.107
 20
96.467
 11
-129.412
 21
96.6885
  0
LINE
  8
0
 10
-129.412
 20
96.6885
 11
-129.687
 21
96.9464
  0
LINE
  8
0
 10
-129.687
 20
96.9464
 11
-129.927
 21
97.2366
  0
LINE
  8
0
 10
-129.927
 20
97.2366
 11
-130.129
 21
97.5547
  0
LINE
  8
0
 10
-130.129
 20
97.5547
 11
-130.289
 21
97.8956
  0
LINE
  8
0
 10
-130.289
 20
97.8956
 11
-130.406
 21
98.2539
  0
LINE
  8
0
 10
-130.406
 20
98.2539
 11
-130.476
 21
98.624
  0
LINE
  8
0
 10
-130.476
 20
98.624
 11
-130.5
 21
99
  0
LINE
  8
0
 10
-130.5
 20
99
 11
-130.476
 21
99.376
  0
LINE
  8
0
 10
-130.476
 20
99.376
 11
-130.406
 21
99.7461
  0
LINE
  8
0
 10
-130.406
 20
99.7461
 11
-130.289
 21
100.104
  0
LINE
  8
0
 10
-130.289
 20
100.104
 11
-130.129
 21
100.445
  0
LINE
  8
0
 10
-130.129
 20
100.445
 11
-129.927
 21
100.763
  0
LINE
  8
0
 10
-129.927
 20
100.763
 11
-129.687
 21
101.054
  0
LINE
  8
0
 10
-129.687
 20
101.054
 11
-129.412
 21
101.312
  0
LINE
  8
0
 10
-129.412
 20
101.312
 11
-129.107
 21
101.533
  0
LINE
  8
0
 10
-129.107
 20
101.533
 11
-128.777
 21
101.714
  0
LINE
  8
0
 10
-128.777
 20
101.714
 11
-128.427
 21
101.853
  0
LINE
  8
0
 10
-128.427
 20
101.853
 11
-128.062
 21
101.947
  0
LINE
  8
0
 10
-128.062
 20
101.947
 11
-127.688
 21
101.994
  0
LINE
  8
0
 10
-127.688
 20
101.994
 11
-127.312
 21
101.994
  0
LINE
  8
0
 10
-127.312
 20
101.994
 11
-126.938
 21
101.947
  0
LINE
  8
0
 10
-126.938
 20
101.947
 11
-126.573
 21
101.853
  0
LINE
  8
0
 10
-126.573
 20
101.853
 11
-126.223
 21
101.714
  0
LINE
  8
0
 10
-126.223
 20
101.714
 11
-125.893
 21
101.533
  0
LINE
  8
0
 10
-125.893
 20
101.533
 11
-125.588
 21
101.312
  0
LINE
  8
0
 10
-125.588
 20
101.312
 11
-125.313
 21
101.054
  0
LINE
  8
0
 10
-125.313
 20
101.054
 11
-125.073
 21
100.763
  0
LINE
  8
0
 10
-125.073
 20
100.763
 11
-124.871
 21
100.445
  0
LINE
  8
0
 10
-124.871
 20
100.445
 11
-124.711
 21
100.104
  0
LINE
  8
0
 10
-124.711
 20
100.104
 11
-124.594
 21
99.7461
  0
LINE
  8
0
 10
-124.594
 20
99.7461
 11
-124.524
 21
99.376
  0
LINE
  8
0
 10
-124.524
 20
99.376
 11
-124.5
 21
99
  0
LINE
  8
0
 10
-124.5
 20
99
 11
-124.524
 21
98.624
  0
LINE
  8
0
 10
-124.524
 20
98.624
 11
-124.594
 21
98.2539
  0
LINE
  8
0
 10
-124.594
 20
98.2539
 11
-124.711
 21
97.8956
  0
LINE
  8
0
 10
-124.711
 20
97.8956
 11
-124.871
 21
97.5547
  0
LINE
  8
0
 10
-124.871
 20
97.5547
 11
-125.073
 21
97.2366
  0
LINE
  8
0
 10
-125.073
 20
97.2366
 11
-125.313
 21
96.9464
  0
LINE
  8
0
 10
-125.313
 20
96.9464
 11
-125.588
 21
96.6885
  0
LINE
  8
0
 10
-125.588
 20
96.6885
 11
-125.893
 21
96.467
  0
LINE
  8
0
 10
-125.893
 20
96.467
 11
-126.223
 21
96.2855
  0
LINE
  8
0
 10
-126.223
 20
96.2855
 11
-126.573
 21
96.1468
  0
LINE
  8
0
 10
-126.573
 20
96.1468
 11
-126.938
 21
96.0531
  0
LINE
  8
0
 10
-126.938
 20
96.0531
 11
-127.312
 21
96.0059
  0
LINE
  8
0
 10
-127.312
 20
96.0059
 11
-127.688
 21
96.0059
  0
LINE
  8
0
 10
-127.594
 20
90.003
 11
-127.781
 21
90.0266
  0
LINE
  8
0
 10
-127.781
 20
90.0266
 11
-127.964
 21
90.0734
  0
LINE
  8
0
 10
-127.964
 20
90.0734
 11
-128.139
 21
90.1428
  0
LINE
  8
0
 10
-128.139
 20
90.1428
 11
-128.304
 21
90.2335
  0
LINE
  8
0
 10
-128.304
 20
90.2335
 11
-128.456
 21
90.3442
  0
LINE
  8
0
 10
-128.456
 20
90.3442
 11
-128.593
 21
90.4732
  0
LINE
  8
0
 10
-128.593
 20
90.4732
 11
-128.714
 21
90.6183
  0
LINE
  8
0
 10
-128.714
 20
90.6183
 11
-128.814
 21
90.7774
  0
LINE
  8
0
 10
-128.814
 20
90.7774
 11
-128.895
 21
90.9478
  0
LINE
  8
0
 10
-128.895
 20
90.9478
 11
-128.953
 21
91.127
  0
LINE
  8
0
 10
-128.953
 20
91.127
 11
-128.988
 21
91.312
  0
LINE
  8
0
 10
-128.988
 20
91.312
 11
-129
 21
91.5
  0
LINE
  8
0
 10
-129
 20
91.5
 11
-128.988
 21
91.688
  0
LINE
  8
0
 10
-128.988
 20
91.688
 11
-128.953
 21
91.873
  0
LINE
  8
0
 10
-128.953
 20
91.873
 11
-128.895
 21
92.0522
  0
LINE
  8
0
 10
-128.895
 20
92.0522
 11
-128.814
 21
92.2226
  0
LINE
  8
0
 10
-128.814
 20
92.2226
 11
-128.714
 21
92.3817
  0
LINE
  8
0
 10
-128.714
 20
92.3817
 11
-128.593
 21
92.5268
  0
LINE
  8
0
 10
-128.593
 20
92.5268
 11
-128.456
 21
92.6558
  0
LINE
  8
0
 10
-128.456
 20
92.6558
 11
-128.304
 21
92.7665
  0
LINE
  8
0
 10
-128.304
 20
92.7665
 11
-128.139
 21
92.8573
  0
LINE
  8
0
 10
-128.139
 20
92.8573
 11
-127.964
 21
92.9266
  0
LINE
  8
0
 10
-127.964
 20
92.9266
 11
-127.781
 21
92.9734
  0
LINE
  8
0
 10
-127.781
 20
92.9734
 11
-127.594
 21
92.997
  0
LINE
  8
0
 10
-127.594
 20
92.997
 11
-127.406
 21
92.997
  0
LINE
  8
0
 10
-127.406
 20
92.997
 11
-127.219
 21
92.9734
  0
LINE
  8
0
 10
-127.219
 20
92.9734
 11
-127.036
 21
92.9266
  0
LINE
  8
0
 10
-127.036
 20
92.9266
 11
-126.861
 21
92.8573
  0
LINE
  8
0
 10
-126.861
 20
92.8573
 11
-126.696
 21
92.7665
  0
LINE
  8
0
 10
-126.696
 20
92.7665
 11
-126.544
 21
92.6558
  0
LINE
  8
0
 10
-126.544
 20
92.6558
 11
-126.407
 21
92.5268
  0
LINE
  8
0
 10
-126.407
 20
92.5268
 11
-126.286
 21
92.3817
  0
LINE
  8
0
 10
-126.286
 20
92.3817
 11
-126.186
 21
92.2226
  0
LINE
  8
0
 10
-126.186
 20
92.2226
 11
-126.105
 21
92.0522
  0
LINE
  8
0
 10
-126.105
 20
92.0522
 11
-126.047
 21
91.873
  0
LINE
  8
0
 10
-126.047
 20
91.873
 11
-126.012
 21
91.688
  0
LINE
  8
0
 10
-126.012
 20
91.688
 11
-126
 21
91.5
  0
LINE
  8
0
 10
-126
 20
91.5
 11
-126.012
 21
91.312
  0
LINE
  8
0
 10
-126.012
 20
91.312
 11
-126.047
 21
91.127
  0
LINE
  8
0
 10
-126.047
 20
91.127
 11
-126.105
 21
90.9478
  0
LINE
  8
0
 10
-126.105
 20
90.9478
 11
-126.186
 21
90.7774
  0
LINE
  8
0
 10
-126.186
 20
90.7774
 11
-126.286
 21
90.6183
  0
LINE
  8
0
 10
-126.286
 20
90.6183
 11
-126.407
 21
90.4732
  0
LINE
  8
0
 10
-126.407
 20
90.4732
 11
-126.544
 21
90.3442
  0
LINE
  8
0
 10
-126.544
 20
90.3442
 11
-126.696
 21
90.2335
  0
LINE
  8
0
 10
-126.696
 20
90.2335
 11
-126.861
 21
90.1428
  0
LINE
  8
0
 10
-126.861
 20
90.1428
 11
-127.036
 21
90.0734
  0
LINE
  8
0
 10
-127.036
 20
90.0734
 11
-127.219
 21
90.0266
  0
LINE
  8
0
 10
-127.219
 20
90.0266
 11
-127.406
 21
90.003
  0
LINE
  8
0
 10
-127.406
 20
90.003
 11
-127.594
 21
90.003
  0
LINE
  8
0
 10
-127.688
 20
81.0059
 11
-128.062
 21
81.0531
  0
LINE
  8
0
 10
-128.062
 20
81.0531
 11
-128.427
 21
81.1468
  0
LINE
  8
0
 10
-128.427
 20
81.1468
 11
-128.777
 21
81.2855
  0
LINE
  8
0
 10
-128.777
 20
81.2855
 11
-129.107
 21
81.467
  0
LINE
  8
0
 10
-129.107
 20
81.467
 11
-129.412
 21
81.6885
  0
LINE
  8
0
 10
-129.412
 20
81.6885
 11
-129.687
 21
81.9464
  0
LINE
  8
0
 10
-129.687
 20
81.9464
 11
-129.927
 21
82.2366
  0
LINE
  8
0
 10
-129.927
 20
82.2366
 11
-130.129
 21
82.5547
  0
LINE
  8
0
 10
-130.129
 20
82.5547
 11
-130.289
 21
82.8956
  0
LINE
  8
0
 10
-130.289
 20
82.8956
 11
-130.406
 21
83.2539
  0
LINE
  8
0
 10
-130.406
 20
83.2539
 11
-130.476
 21
83.624
  0
LINE
  8
0
 10
-130.476
 20
83.624
 11
-130.5
 21
84
  0
LINE
  8
0
 10
-130.5
 20
84
 11
-130.476
 21
84.376
  0
LINE
  8
0
 10
-130.476
 20
84.376
 11
-130.406
 21
84.7461
  0
LINE
  8
0
 10
-130.406
 20
84.7461
 11
-130.289
 21
85.1044
  0
LINE
  8
0
 10
-130.289
 20
85.1044
 11
-130.129
 21
85.4453
  0
LINE
  8
0
 10
-130.129
 20
85.4453
 11
-129.927
 21
85.7634
  0
LINE
  8
0
 10
-129.927
 20
85.7634
 11
-129.687
 21
86.0536
  0
LINE
  8
0
 10
-129.687
 20
86.0536
 11
-129.412
 21
86.3116
  0
LINE
  8
0
 10
-129.412
 20
86.3116
 11
-129.107
 21
86.533
  0
LINE
  8
0
 10
-129.107
 20
86.533
 11
-128.777
 21
86.7145
  0
LINE
  8
0
 10
-128.777
 20
86.7145
 11
-128.427
 21
86.8532
  0
LINE
  8
0
 10
-128.427
 20
86.8532
 11
-128.062
 21
86.9469
  0
LINE
  8
0
 10
-128.062
 20
86.9469
 11
-127.688
 21
86.9941
  0
LINE
  8
0
 10
-127.688
 20
86.9941
 11
-127.312
 21
86.9941
  0
LINE
  8
0
 10
-127.312
 20
86.9941
 11
-126.938
 21
86.9469
  0
LINE
  8
0
 10
-126.938
 20
86.9469
 11
-126.573
 21
86.8532
  0
LINE
  8
0
 10
-126.573
 20
86.8532
 11
-126.223
 21
86.7145
  0
LINE
  8
0
 10
-126.223
 20
86.7145
 11
-125.893
 21
86.533
  0
LINE
  8
0
 10
-125.893
 20
86.533
 11
-125.588
 21
86.3116
  0
LINE
  8
0
 10
-125.588
 20
86.3116
 11
-125.313
 21
86.0536
  0
LINE
  8
0
 10
-125.313
 20
86.0536
 11
-125.073
 21
85.7634
  0
LINE
  8
0
 10
-125.073
 20
85.7634
 11
-124.871
 21
85.4453
  0
LINE
  8
0
 10
-124.871
 20
85.4453
 11
-124.711
 21
85.1044
  0
LINE
  8
0
 10
-124.711
 20
85.1044
 11
-124.594
 21
84.7461
  0
LINE
  8
0
 10
-124.594
 20
84.7461
 11
-124.524
 21
84.376
  0
LINE
  8
0
 10
-124.524
 20
84.376
 11
-124.5
 21
84
  0
LINE
  8
0
 10
-124.5
 20
84
 11
-124.524
 21
83.624
  0
LINE
  8
0
 10
-124.524
 20
83.624
 11
-124.594
 21
83.2539
  0
LINE
  8
0
 10
-124.594
 20
83.2539
 11
-124.711
 21
82.8956
  0
LINE
  8
0
 10
-124.711
 20
82.8956
 11
-124.871
 21
82.5547
  0
LINE
  8
0
 10
-124.871
 20
82.5547
 11
-125.073
 21
82.2366
  0
LINE
  8
0
 10
-125.073
 20
82.2366
 11
-125.313
 21
81.9464
  0
LINE
  8
0
 10
-125.313
 20
81.9464
 11
-125.588
 21
81.6885
  0
LINE
  8
0
 10
-125.588
 20
81.6885
 11
-125.893
 21
81.467
  0
LINE
  8
0
 10
-125.893
 20
81.467
 11
-126.223
 21
81.2855
  0
LINE
  8
0
 10
-126.223
 20
81.2855
 11
-126.573
 21
81.1468
  0
LINE
  8
0
 10
-126.573
 20
81.1468
 11
-126.938
 21
81.0531
  0
LINE
  8
0
 10
-126.938
 20
81.0531
 11
-127.312
 21
81.0059
  0
LINE
  8
0
 10
-127.312
 20
81.0059
 11
-127.688
 21
81.0059
  0
LINE
  8
0
 10
-127.594
 20
75.003
 11
-127.781
 21
75.0266
  0
LINE
  8
0
 10
-127.781
 20
75.0266
 11
-127.964
 21
75.0734
  0
LINE
  8
0
 10
-127.964
 20
75.0734
 11
-128.139
 21
75.1428
  0
LINE
  8
0
 10
-128.139
 20
75.1428
 11
-128.304
 21
75.2335
  0
LINE
  8
0
 10
-128.304
 20
75.2335
 11
-128.456
 21
75.3442
  0
LINE
  8
0
 10
-128.456
 20
75.3442
 11
-128.593
 21
75.4732
  0
LINE
  8
0
 10
-128.593
 20
75.4732
 11
-128.714
 21
75.6183
  0
LINE
  8
0
 10
-128.714
 20
75.6183
 11
-128.814
 21
75.7774
  0
LINE
  8
0
 10
-128.814
 20
75.7774
 11
-128.895
 21
75.9478
  0
LINE
  8
0
 10
-128.895
 20
75.9478
 11
-128.953
 21
76.127
  0
LINE
  8
0
 10
-128.953
 20
76.127
 11
-128.988
 21
76.312
  0
LINE
  8
0
 10
-128.988
 20
76.312
 11
-129
 21
76.5
  0
LINE
  8
0
 10
-129
 20
76.5
 11
-128.988
 21
76.688
  0
LINE
  8
0
 10
-128.988
 20
76.688
 11
-128.953
 21
76.873
  0
LINE
  8
0
 10
-128.953
 20
76.873
 11
-128.895
 21
77.0522
  0
LINE
  8
0
 10
-128.895
 20
77.0522
 11
-128.814
 21
77.2226
  0
LINE
  8
0
 10
-128.814
 20
77.2226
 11
-128.714
 21
77.3817
  0
LINE
  8
0
 10
-128.714
 20
77.3817
 11
-128.593
 21
77.5268
  0
LINE
  8
0
 10
-128.593
 20
77.5268
 11
-128.456
 21
77.6558
  0
LINE
  8
0
 10
-128.456
 20
77.6558
 11
-128.304
 21
77.7665
  0
LINE
  8
0
 10
-128.304
 20
77.7665
 11
-128.139
 21
77.8572
  0
LINE
  8
0
 10
-128.139
 20
77.8572
 11
-127.964
 21
77.9266
  0
LINE
  8
0
 10
-127.964
 20
77.9266
 11
-127.781
 21
77.9734
  0
LINE
  8
0
 10
-127.781
 20
77.9734
 11
-127.594
 21
77.997
  0
LINE
  8
0
 10
-127.594
 20
77.997
 11
-127.406
 21
77.997
  0
LINE
  8
0
 10
-127.406
 20
77.997
 11
-127.219
 21
77.9734
  0
LINE
  8
0
 10
-127.219
 20
77.9734
 11
-127.036
 21
77.9266
  0
LINE
  8
0
 10
-127.036
 20
77.9266
 11
-126.861
 21
77.8572
  0
LINE
  8
0
 10
-126.861
 20
77.8572
 11
-126.696
 21
77.7665
  0
LINE
  8
0
 10
-126.696
 20
77.7665
 11
-126.544
 21
77.6558
  0
LINE
  8
0
 10
-126.544
 20
77.6558
 11
-126.407
 21
77.5268
  0
LINE
  8
0
 10
-126.407
 20
77.5268
 11
-126.286
 21
77.3817
  0
LINE
  8
0
 10
-126.286
 20
77.3817
 11
-126.186
 21
77.2226
  0
LINE
  8
0
 10
-126.186
 20
77.2226
 11
-126.105
 21
77.0522
  0
LINE
  8
0
 10
-126.105
 20
77.0522
 11
-126.047
 21
76.873
  0
LINE
  8
0
 10
-126.047
 20
76.873
 11
-126.012
 21
76.688
  0
LINE
  8
0
 10
-126.012
 20
76.688
 11
-126
 21
76.5
  0
LINE
  8
0
 10
-126
 20
76.5
 11
-126.012
 21
76.312
  0
LINE
  8
0
 10
-126.012
 20
76.312
 11
-126.047
 21
76.127
  0
LINE
  8
0
 10
-126.047
 20
76.127
 11
-126.105
 21
75.9478
  0
LINE
  8
0
 10
-126.105
 20
75.9478
 11
-126.186
 21
75.7774
  0
LINE
  8
0
 10
-126.186
 20
75.7774
 11
-126.286
 21
75.6183
  0
LINE
  8
0
 10
-126.286
 20
75.6183
 11
-126.407
 21
75.4732
  0
LINE
  8
0
 10
-126.407
 20
75.4732
 11
-126.544
 21
75.3442
  0
LINE
  8
0
 10
-126.544
 20
75.3442
 11
-126.696
 21
75.2335
  0
LINE
  8
0
 10
-126.696
 20
75.2335
 11
-126.861
 21
75.1428
  0
LINE
  8
0
 10
-126.861
 20
75.1428
 11
-127.036
 21
75.0734
  0
LINE
  8
0
 10
-127.036
 20
75.0734
 11
-127.219
 21
75.0266
  0
LINE
  8
0
 10
-127.219
 20
75.0266
 11
-127.406
 21
75.003
  0
LINE
  8
0
 10
-127.406
 20
75.003
 11
-127.594
 21
75.003
  0
LINE
  8
0
 10
-127.688
 20
66.0059
 11
-128.062
 21
66.0531
  0
LINE
  8
0
 10
-128.062
 20
66.0531
 11
-128.427
 21
66.1468
  0
LINE
  8
0
 10
-128.427
 20
66.1468
 11
-128.777
 21
66.2855
  0
LINE
  8
0
 10
-128.777
 20
66.2855
 11
-129.107
 21
66.467
  0
LINE
  8
0
 10
-129.107
 20
66.467
 11
-129.412
 21
66.6885
  0
LINE
  8
0
 10
-129.412
 20
66.6885
 11
-129.687
 21
66.9464
  0
LINE
  8
0
 10
-129.687
 20
66.9464
 11
-129.927
 21
67.2366
  0
LINE
  8
0
 10
-129.927
 20
67.2366
 11
-130.129
 21
67.5547
  0
LINE
  8
0
 10
-130.129
 20
67.5547
 11
-130.289
 21
67.8956
  0
LINE
  8
0
 10
-130.289
 20
67.8956
 11
-130.406
 21
68.2539
  0
LINE
  8
0
 10
-130.406
 20
68.2539
 11
-130.476
 21
68.624
  0
LINE
  8
0
 10
-130.476
 20
68.624
 11
-130.5
 21
69
  0
LINE
  8
0
 10
-130.5
 20
69
 11
-130.476
 21
69.376
  0
LINE
  8
0
 10
-130.476
 20
69.376
 11
-130.406
 21
69.7461
  0
LINE
  8
0
 10
-130.406
 20
69.7461
 11
-130.289
 21
70.1044
  0
LINE
  8
0
 10
-130.289
 20
70.1044
 11
-130.129
 21
70.4453
  0
LINE
  8
0
 10
-130.129
 20
70.4453
 11
-129.927
 21
70.7634
  0
LINE
  8
0
 10
-129.927
 20
70.7634
 11
-129.687
 21
71.0536
  0
LINE
  8
0
 10
-129.687
 20
71.0536
 11
-129.412
 21
71.3115
  0
LINE
  8
0
 10
-129.412
 20
71.3115
 11
-129.107
 21
71.533
  0
LINE
  8
0
 10
-129.107
 20
71.533
 11
-128.777
 21
71.7145
  0
LINE
  8
0
 10
-128.777
 20
71.7145
 11
-128.427
 21
71.8532
  0
LINE
  8
0
 10
-128.427
 20
71.8532
 11
-128.062
 21
71.9469
  0
LINE
  8
0
 10
-128.062
 20
71.9469
 11
-127.688
 21
71.9941
  0
LINE
  8
0
 10
-127.688
 20
71.9941
 11
-127.312
 21
71.9941
  0
LINE
  8
0
 10
-127.312
 20
71.9941
 11
-126.938
 21
71.9469
  0
LINE
  8
0
 10
-126.938
 20
71.9469
 11
-126.573
 21
71.8532
  0
LINE
  8
0
 10
-126.573
 20
71.8532
 11
-126.223
 21
71.7145
  0
LINE
  8
0
 10
-126.223
 20
71.7145
 11
-125.893
 21
71.533
  0
LINE
  8
0
 10
-125.893
 20
71.533
 11
-125.588
 21
71.3115
  0
LINE
  8
0
 10
-125.588
 20
71.3115
 11
-125.313
 21
71.0536
  0
LINE
  8
0
 10
-125.313
 20
71.0536
 11
-125.073
 21
70.7634
  0
LINE
  8
0
 10
-125.073
 20
70.7634
 11
-124.871
 21
70.4453
  0
LINE
  8
0
 10
-124.871
 20
70.4453
 11
-124.711
 21
70.1044
  0
LINE
  8
0
 10
-124.711
 20
70.1044
 11
-124.594
 21
69.7461
  0
LINE
  8
0
 10
-124.594
 20
69.7461
 11
-124.524
 21
69.376
  0
LINE
  8
0
 10
-124.524
 20
69.376
 11
-124.5
 21
69
  0
LINE
  8
0
 10
-124.5
 20
69
 11
-124.524
 21
68.624
  0
LINE
  8
0
 10
-124.524
 20
68.624
 11
-124.594
 21
68.2539
  0
LINE
  8
0
 10
-124.594
 20
68.2539
 11
-124.711
 21
67.8956
  0
LINE
  8
0
 10
-124.711
 20
67.8956
 11
-124.871
 21
67.5547
  0
LINE
  8
0
 10
-124.871
 20
67.5547
 11
-125.073
 21
67.2366
  0
LINE
  8
0
 10
-125.073
 20
67.2366
 11
-125.313
 21
66.9464
  0
LINE
  8
0
 10
-125.313
 20
66.9464
 11
-125.588
 21
66.6885
  0
LINE
  8
0
 10
-125.588
 20
66.6885
 11
-125.893
 21
66.467
  0
LINE
  8
0
 10
-125.893
 20
66.467
 11
-126.223
 21
66.2855
  0
LINE
  8
0
 10
-126.223
 20
66.2855
 11
-126.573
 21
66.1468
  0
LINE
  8
0
 10
-126.573
 20
66.1468
 11
-126.938
 21
66.0531
  0
LINE
  8
0
 10
-126.938
 20
66.0531
 11
-127.312
 21
66.0059
  0
LINE
  8
0
 10
-127.312
 20
66.0059
 11
-127.688
 21
66.0059
  0
ENDSEC
  0
SECTION
  2
OBJECTS
  0
DICTIONARY
  0
ENDSEC
  0
EOF
