  0
SECTION
  2
BLOCKS
  0
ENDSEC
  0
SECTION
  2
ENTITIES
  0
LINE
  8
0
 10
137.937
 20
-36.9114
 11
138.545
 21
-36.7553
  0
LINE
  8
0
 10
138.545
 20
-36.7553
 11
139.129
 21
-36.5241
  0
LINE
  8
0
 10
139.129
 20
-36.5241
 11
139.679
 21
-36.2216
  0
LINE
  8
0
 10
139.679
 20
-36.2216
 11
140.187
 21
-35.8526
  0
LINE
  8
0
 10
140.187
 20
-35.8526
 11
140.645
 21
-35.4227
  0
LINE
  8
0
 10
140.645
 20
-35.4227
 11
141.045
 21
-34.9389
  0
LINE
  8
0
 10
141.045
 20
-34.9389
 11
141.382
 21
-34.4088
  0
LINE
  8
0
 10
141.382
 20
-34.4088
 11
141.649
 21
-33.8406
  0
LINE
  8
0
 10
141.649
 20
-33.8406
 11
141.843
 21
-33.2434
  0
LINE
  8
0
 10
141.843
 20
-33.2434
 11
141.961
 21
-32.6267
  0
LINE
  8
0
 10
141.961
 20
-32.6267
 11
142
 21
-32
  0
LINE
  8
0
 10
142
 20
-32
 11
142
 21
32
  0
LINE
  8
0
 10
142
 20
32
 11
141.961
 21
32.6267
  0
LINE
  8
0
 10
141.961
 20
32.6267
 11
141.843
 21
33.2434
  0
LINE
  8
0
 10
141.843
 20
33.2434
 11
141.649
 21
33.8406
  0
LINE
  8
0
 10
141.649
 20
33.8406
 11
141.382
 21
34.4088
  0
LINE
  8
0
 10
141.382
 20
34.4088
 11
141.045
 21
34.9389
  0
LINE
  8
0
 10
141.045
 20
34.9389
 11
140.645
 21
35.4227
  0
LINE
  8
0
 10
140.645
 20
35.4227
 11
140.187
 21
35.8526
  0
LINE
  8
0
 10
140.187
 20
35.8526
 11
139.679
 21
36.2216
  0
LINE
  8
0
 10
139.679
 20
36.2216
 11
139.129
 21
36.5241
  0
LINE
  8
0
 10
139.129
 20
36.5241
 11
138.545
 21
36.7553
  0
LINE
  8
0
 10
138.545
 20
36.7553
 11
137.937
 21
36.9114
  0
LINE
  8
0
 10
137.937
 20
36.9114
 11
137.314
 21
36.9901
  0
LINE
  8
0
 10
137.314
 20
36.9901
 11
-137.314
 21
36.9901
  0
LINE
  8
0
 10
-137.314
 20
36.9901
 11
-137.937
 21
36.9114
  0
LINE
  8
0
 10
-137.937
 20
36.9114
 11
-138.545
 21
36.7553
  0
LINE
  8
0
 10
-138.545
 20
36.7553
 11
-139.129
 21
36.5241
  0
LINE
  8
0
 10
-139.129
 20
36.5241
 11
-139.679
 21
36.2216
  0
LINE
  8
0
 10
-139.679
 20
36.2216
 11
-140.187
 21
35.8526
  0
LINE
  8
0
 10
-140.187
 20
35.8526
 11
-140.645
 21
35.4227
  0
LINE
  8
0
 10
-140.645
 20
35.4227
 11
-141.045
 21
34.9389
  0
LINE
  8
0
 10
-141.045
 20
34.9389
 11
-141.382
 21
34.4088
  0
LINE
  8
0
 10
-141.382
 20
34.4088
 11
-141.649
 21
33.8406
  0
LINE
  8
0
 10
-141.649
 20
33.8406
 11
-141.843
 21
33.2434
  0
LINE
  8
0
 10
-141.843
 20
33.2434
 11
-141.961
 21
32.6267
  0
LINE
  8
0
 10
-141.961
 20
32.6267
 11
-142
 21
32
  0
LINE
  8
0
 10
-142
 20
32
 11
-142
 21
-32
  0
LINE
  8
0
 10
-142
 20
-32
 11
-141.961
 21
-32.6267
  0
LINE
  8
0
 10
-141.961
 20
-32.6267
 11
-141.843
 21
-33.2434
  0
LINE
  8
0
 10
-141.843
 20
-33.2434
 11
-141.649
 21
-33.8406
  0
LINE
  8
0
 10
-141.649
 20
-33.8406
 11
-141.382
 21
-34.4088
  0
LINE
  8
0
 10
-141.382
 20
-34.4088
 11
-141.045
 21
-34.9389
  0
LINE
  8
0
 10
-141.045
 20
-34.9389
 11
-140.645
 21
-35.4227
  0
LINE
  8
0
 10
-140.645
 20
-35.4227
 11
-140.187
 21
-35.8526
  0
LINE
  8
0
 10
-140.187
 20
-35.8526
 11
-139.679
 21
-36.2216
  0
LINE
  8
0
 10
-139.679
 20
-36.2216
 11
-139.129
 21
-36.5241
  0
LINE
  8
0
 10
-139.129
 20
-36.5241
 11
-138.545
 21
-36.7553
  0
LINE
  8
0
 10
-138.545
 20
-36.7553
 11
-137.937
 21
-36.9114
  0
LINE
  8
0
 10
-137.937
 20
-36.9114
 11
-137.314
 21
-36.9901
  0
LINE
  8
0
 10
-137.314
 20
-36.9901
 11
137.314
 21
-36.9901
  0
LINE
  8
0
 10
137.314
 20
-36.9901
 11
137.937
 21
-36.9114
  0
LINE
  8
0
 10
134.812
 20
27.0059
 11
134.438
 21
27.0531
  0
LINE
  8
0
 10
134.438
 20
27.0531
 11
134.073
 21
27.1468
  0
LINE
  8
0
 10
134.073
 20
27.1468
 11
133.723
 21
27.2855
  0
LINE
  8
0
 10
133.723
 20
27.2855
 11
133.393
 21
27.467
  0
LINE
  8
0
 10
133.393
 20
27.467
 11
133.088
 21
27.6884
  0
LINE
  8
0
 10
133.088
 20
27.6884
 11
132.813
 21
27.9464
  0
LINE
  8
0
 10
132.813
 20
27.9464
 11
132.573
 21
28.2366
  0
LINE
  8
0
 10
132.573
 20
28.2366
 11
132.371
 21
28.5547
  0
LINE
  8
0
 10
132.371
 20
28.5547
 11
132.211
 21
28.8956
  0
LINE
  8
0
 10
132.211
 20
28.8956
 11
132.094
 21
29.2539
  0
LINE
  8
0
 10
132.094
 20
29.2539
 11
132.024
 21
29.624
  0
LINE
  8
0
 10
132.024
 20
29.624
 11
132
 21
30
  0
LINE
  8
0
 10
132
 20
30
 11
132.024
 21
30.376
  0
LINE
  8
0
 10
132.024
 20
30.376
 11
132.094
 21
30.7461
  0
LINE
  8
0
 10
132.094
 20
30.7461
 11
132.211
 21
31.1044
  0
LINE
  8
0
 10
132.211
 20
31.1044
 11
132.371
 21
31.4453
  0
LINE
  8
0
 10
132.371
 20
31.4453
 11
132.573
 21
31.7634
  0
LINE
  8
0
 10
132.573
 20
31.7634
 11
132.813
 21
32.0536
  0
LINE
  8
0
 10
132.813
 20
32.0536
 11
133.088
 21
32.3115
  0
LINE
  8
0
 10
133.088
 20
32.3115
 11
133.393
 21
32.533
  0
LINE
  8
0
 10
133.393
 20
32.533
 11
133.723
 21
32.7145
  0
LINE
  8
0
 10
133.723
 20
32.7145
 11
134.073
 21
32.8532
  0
LINE
  8
0
 10
134.073
 20
32.8532
 11
134.438
 21
32.9469
  0
LINE
  8
0
 10
134.438
 20
32.9469
 11
134.812
 21
32.9941
  0
LINE
  8
0
 10
134.812
 20
32.9941
 11
135.188
 21
32.9941
  0
LINE
  8
0
 10
135.188
 20
32.9941
 11
135.562
 21
32.9469
  0
LINE
  8
0
 10
135.562
 20
32.9469
 11
135.927
 21
32.8532
  0
LINE
  8
0
 10
135.927
 20
32.8532
 11
136.277
 21
32.7145
  0
LINE
  8
0
 10
136.277
 20
32.7145
 11
136.607
 21
32.533
  0
LINE
  8
0
 10
136.607
 20
32.533
 11
136.912
 21
32.3115
  0
LINE
  8
0
 10
136.912
 20
32.3115
 11
137.187
 21
32.0536
  0
LINE
  8
0
 10
137.187
 20
32.0536
 11
137.427
 21
31.7634
  0
LINE
  8
0
 10
137.427
 20
31.7634
 11
137.629
 21
31.4453
  0
LINE
  8
0
 10
137.629
 20
31.4453
 11
137.789
 21
31.1044
  0
LINE
  8
0
 10
137.789
 20
31.1044
 11
137.906
 21
30.7461
  0
LINE
  8
0
 10
137.906
 20
30.7461
 11
137.976
 21
30.376
  0
LINE
  8
0
 10
137.976
 20
30.376
 11
138
 21
30
  0
LINE
  8
0
 10
138
 20
30
 11
137.976
 21
29.624
  0
LINE
  8
0
 10
137.976
 20
29.624
 11
137.906
 21
29.2539
  0
LINE
  8
0
 10
137.906
 20
29.2539
 11
137.789
 21
28.8956
  0
LINE
  8
0
 10
137.789
 20
28.8956
 11
137.629
 21
28.5547
  0
LINE
  8
0
 10
137.629
 20
28.5547
 11
137.427
 21
28.2366
  0
LINE
  8
0
 10
137.427
 20
28.2366
 11
137.187
 21
27.9464
  0
LINE
  8
0
 10
137.187
 20
27.9464
 11
136.912
 21
27.6884
  0
LINE
  8
0
 10
136.912
 20
27.6884
 11
136.607
 21
27.467
  0
LINE
  8
0
 10
136.607
 20
27.467
 11
136.277
 21
27.2855
  0
LINE
  8
0
 10
136.277
 20
27.2855
 11
135.927
 21
27.1468
  0
LINE
  8
0
 10
135.927
 20
27.1468
 11
135.562
 21
27.0531
  0
LINE
  8
0
 10
135.562
 20
27.0531
 11
135.188
 21
27.0059
  0
LINE
  8
0
 10
135.188
 20
27.0059
 11
134.812
 21
27.0059
  0
LINE
  8
0
 10
-135.188
 20
27.0059
 11
-135.562
 21
27.0531
  0
LINE
  8
0
 10
-135.562
 20
27.0531
 11
-135.927
 21
27.1468
  0
LINE
  8
0
 10
-135.927
 20
27.1468
 11
-136.277
 21
27.2855
  0
LINE
  8
0
 10
-136.277
 20
27.2855
 11
-136.607
 21
27.467
  0
LINE
  8
0
 10
-136.607
 20
27.467
 11
-136.912
 21
27.6884
  0
LINE
  8
0
 10
-136.912
 20
27.6884
 11
-137.187
 21
27.9464
  0
LINE
  8
0
 10
-137.187
 20
27.9464
 11
-137.427
 21
28.2366
  0
LINE
  8
0
 10
-137.427
 20
28.2366
 11
-137.629
 21
28.5547
  0
LINE
  8
0
 10
-137.629
 20
28.5547
 11
-137.789
 21
28.8956
  0
LINE
  8
0
 10
-137.789
 20
28.8956
 11
-137.906
 21
29.2539
  0
LINE
  8
0
 10
-137.906
 20
29.2539
 11
-137.976
 21
29.624
  0
LINE
  8
0
 10
-137.976
 20
29.624
 11
-138
 21
30
  0
LINE
  8
0
 10
-138
 20
30
 11
-137.976
 21
30.376
  0
LINE
  8
0
 10
-137.976
 20
30.376
 11
-137.906
 21
30.7461
  0
LINE
  8
0
 10
-137.906
 20
30.7461
 11
-137.789
 21
31.1044
  0
LINE
  8
0
 10
-137.789
 20
31.1044
 11
-137.629
 21
31.4453
  0
LINE
  8
0
 10
-137.629
 20
31.4453
 11
-137.427
 21
31.7634
  0
LINE
  8
0
 10
-137.427
 20
31.7634
 11
-137.187
 21
32.0536
  0
LINE
  8
0
 10
-137.187
 20
32.0536
 11
-136.912
 21
32.3115
  0
LINE
  8
0
 10
-136.912
 20
32.3115
 11
-136.607
 21
32.533
  0
LINE
  8
0
 10
-136.607
 20
32.533
 11
-136.277
 21
32.7145
  0
LINE
  8
0
 10
-136.277
 20
32.7145
 11
-135.927
 21
32.8532
  0
LINE
  8
0
 10
-135.927
 20
32.8532
 11
-135.562
 21
32.9469
  0
LINE
  8
0
 10
-135.562
 20
32.9469
 11
-135.188
 21
32.9941
  0
LINE
  8
0
 10
-135.188
 20
32.9941
 11
-134.812
 21
32.9941
  0
LINE
  8
0
 10
-134.812
 20
32.9941
 11
-134.438
 21
32.9469
  0
LINE
  8
0
 10
-134.438
 20
32.9469
 11
-134.073
 21
32.8532
  0
LINE
  8
0
 10
-134.073
 20
32.8532
 11
-133.723
 21
32.7145
  0
LINE
  8
0
 10
-133.723
 20
32.7145
 11
-133.393
 21
32.533
  0
LINE
  8
0
 10
-133.393
 20
32.533
 11
-133.088
 21
32.3115
  0
LINE
  8
0
 10
-133.088
 20
32.3115
 11
-132.813
 21
32.0536
  0
LINE
  8
0
 10
-132.813
 20
32.0536
 11
-132.573
 21
31.7634
  0
LINE
  8
0
 10
-132.573
 20
31.7634
 11
-132.371
 21
31.4453
  0
LINE
  8
0
 10
-132.371
 20
31.4453
 11
-132.211
 21
31.1044
  0
LINE
  8
0
 10
-132.211
 20
31.1044
 11
-132.094
 21
30.7461
  0
LINE
  8
0
 10
-132.094
 20
30.7461
 11
-132.024
 21
30.376
  0
LINE
  8
0
 10
-132.024
 20
30.376
 11
-132
 21
30
  0
LINE
  8
0
 10
-132
 20
30
 11
-132.024
 21
29.624
  0
LINE
  8
0
 10
-132.024
 20
29.624
 11
-132.094
 21
29.2539
  0
LINE
  8
0
 10
-132.094
 20
29.2539
 11
-132.211
 21
28.8956
  0
LINE
  8
0
 10
-132.211
 20
28.8956
 11
-132.371
 21
28.5547
  0
LINE
  8
0
 10
-132.371
 20
28.5547
 11
-132.573
 21
28.2366
  0
LINE
  8
0
 10
-132.573
 20
28.2366
 11
-132.813
 21
27.9464
  0
LINE
  8
0
 10
-132.813
 20
27.9464
 11
-133.088
 21
27.6884
  0
LINE
  8
0
 10
-133.088
 20
27.6884
 11
-133.393
 21
27.467
  0
LINE
  8
0
 10
-133.393
 20
27.467
 11
-133.723
 21
27.2855
  0
LINE
  8
0
 10
-133.723
 20
27.2855
 11
-134.073
 21
27.1468
  0
LINE
  8
0
 10
-134.073
 20
27.1468
 11
-134.438
 21
27.0531
  0
LINE
  8
0
 10
-134.438
 20
27.0531
 11
-134.812
 21
27.0059
  0
LINE
  8
0
 10
-134.812
 20
27.0059
 11
-135.188
 21
27.0059
  0
LINE
  8
0
 10
134.812
 20
-32.9941
 11
134.438
 21
-32.9469
  0
LINE
  8
0
 10
134.438
 20
-32.9469
 11
134.073
 21
-32.8532
  0
LINE
  8
0
 10
134.073
 20
-32.8532
 11
133.723
 21
-32.7145
  0
LINE
  8
0
 10
133.723
 20
-32.7145
 11
133.393
 21
-32.533
  0
LINE
  8
0
 10
133.393
 20
-32.533
 11
133.088
 21
-32.3115
  0
LINE
  8
0
 10
133.088
 20
-32.3115
 11
132.813
 21
-32.0536
  0
LINE
  8
0
 10
132.813
 20
-32.0536
 11
132.573
 21
-31.7634
  0
LINE
  8
0
 10
132.573
 20
-31.7634
 11
132.371
 21
-31.4453
  0
LINE
  8
0
 10
132.371
 20
-31.4453
 11
132.211
 21
-31.1044
  0
LINE
  8
0
 10
132.211
 20
-31.1044
 11
132.094
 21
-30.7461
  0
LINE
  8
0
 10
132.094
 20
-30.7461
 11
132.024
 21
-30.376
  0
LINE
  8
0
 10
132.024
 20
-30.376
 11
132
 21
-30
  0
LINE
  8
0
 10
132
 20
-30
 11
132.024
 21
-29.624
  0
LINE
  8
0
 10
132.024
 20
-29.624
 11
132.094
 21
-29.2539
  0
LINE
  8
0
 10
132.094
 20
-29.2539
 11
132.211
 21
-28.8956
  0
LINE
  8
0
 10
132.211
 20
-28.8956
 11
132.371
 21
-28.5547
  0
LINE
  8
0
 10
132.371
 20
-28.5547
 11
132.573
 21
-28.2366
  0
LINE
  8
0
 10
132.573
 20
-28.2366
 11
132.813
 21
-27.9464
  0
LINE
  8
0
 10
132.813
 20
-27.9464
 11
133.088
 21
-27.6884
  0
LINE
  8
0
 10
133.088
 20
-27.6884
 11
133.393
 21
-27.467
  0
LINE
  8
0
 10
133.393
 20
-27.467
 11
133.723
 21
-27.2855
  0
LINE
  8
0
 10
133.723
 20
-27.2855
 11
134.073
 21
-27.1468
  0
LINE
  8
0
 10
134.073
 20
-27.1468
 11
134.438
 21
-27.0531
  0
LINE
  8
0
 10
134.438
 20
-27.0531
 11
134.812
 21
-27.0059
  0
LINE
  8
0
 10
134.812
 20
-27.0059
 11
135.188
 21
-27.0059
  0
LINE
  8
0
 10
135.188
 20
-27.0059
 11
135.562
 21
-27.0531
  0
LINE
  8
0
 10
135.562
 20
-27.0531
 11
135.927
 21
-27.1468
  0
LINE
  8
0
 10
135.927
 20
-27.1468
 11
136.277
 21
-27.2855
  0
LINE
  8
0
 10
136.277
 20
-27.2855
 11
136.607
 21
-27.467
  0
LINE
  8
0
 10
136.607
 20
-27.467
 11
136.912
 21
-27.6884
  0
LINE
  8
0
 10
136.912
 20
-27.6884
 11
137.187
 21
-27.9464
  0
LINE
  8
0
 10
137.187
 20
-27.9464
 11
137.427
 21
-28.2366
  0
LINE
  8
0
 10
137.427
 20
-28.2366
 11
137.629
 21
-28.5547
  0
LINE
  8
0
 10
137.629
 20
-28.5547
 11
137.789
 21
-28.8956
  0
LINE
  8
0
 10
137.789
 20
-28.8956
 11
137.906
 21
-29.2539
  0
LINE
  8
0
 10
137.906
 20
-29.2539
 11
137.976
 21
-29.624
  0
LINE
  8
0
 10
137.976
 20
-29.624
 11
138
 21
-30
  0
LINE
  8
0
 10
138
 20
-30
 11
137.976
 21
-30.376
  0
LINE
  8
0
 10
137.976
 20
-30.376
 11
137.906
 21
-30.7461
  0
LINE
  8
0
 10
137.906
 20
-30.7461
 11
137.789
 21
-31.1044
  0
LINE
  8
0
 10
137.789
 20
-31.1044
 11
137.629
 21
-31.4453
  0
LINE
  8
0
 10
137.629
 20
-31.4453
 11
137.427
 21
-31.7634
  0
LINE
  8
0
 10
137.427
 20
-31.7634
 11
137.187
 21
-32.0536
  0
LINE
  8
0
 10
137.187
 20
-32.0536
 11
136.912
 21
-32.3115
  0
LINE
  8
0
 10
136.912
 20
-32.3115
 11
136.607
 21
-32.533
  0
LINE
  8
0
 10
136.607
 20
-32.533
 11
136.277
 21
-32.7145
  0
LINE
  8
0
 10
136.277
 20
-32.7145
 11
135.927
 21
-32.8532
  0
LINE
  8
0
 10
135.927
 20
-32.8532
 11
135.562
 21
-32.9469
  0
LINE
  8
0
 10
135.562
 20
-32.9469
 11
135.188
 21
-32.9941
  0
LINE
  8
0
 10
135.188
 20
-32.9941
 11
134.812
 21
-32.9941
  0
LINE
  8
0
 10
-135.188
 20
-32.9941
 11
-135.562
 21
-32.9469
  0
LINE
  8
0
 10
-135.562
 20
-32.9469
 11
-135.927
 21
-32.8532
  0
LINE
  8
0
 10
-135.927
 20
-32.8532
 11
-136.277
 21
-32.7145
  0
LINE
  8
0
 10
-136.277
 20
-32.7145
 11
-136.607
 21
-32.533
  0
LINE
  8
0
 10
-136.607
 20
-32.533
 11
-136.912
 21
-32.3115
  0
LINE
  8
0
 10
-136.912
 20
-32.3115
 11
-137.187
 21
-32.0536
  0
LINE
  8
0
 10
-137.187
 20
-32.0536
 11
-137.427
 21
-31.7634
  0
LINE
  8
0
 10
-137.427
 20
-31.7634
 11
-137.629
 21
-31.4453
  0
LINE
  8
0
 10
-137.629
 20
-31.4453
 11
-137.789
 21
-31.1044
  0
LINE
  8
0
 10
-137.789
 20
-31.1044
 11
-137.906
 21
-30.7461
  0
LINE
  8
0
 10
-137.906
 20
-30.7461
 11
-137.976
 21
-30.376
  0
LINE
  8
0
 10
-137.976
 20
-30.376
 11
-138
 21
-30
  0
LINE
  8
0
 10
-138
 20
-30
 11
-137.976
 21
-29.624
  0
LINE
  8
0
 10
-137.976
 20
-29.624
 11
-137.906
 21
-29.2539
  0
LINE
  8
0
 10
-137.906
 20
-29.2539
 11
-137.789
 21
-28.8956
  0
LINE
  8
0
 10
-137.789
 20
-28.8956
 11
-137.629
 21
-28.5547
  0
LINE
  8
0
 10
-137.629
 20
-28.5547
 11
-137.427
 21
-28.2366
  0
LINE
  8
0
 10
-137.427
 20
-28.2366
 11
-137.187
 21
-27.9464
  0
LINE
  8
0
 10
-137.187
 20
-27.9464
 11
-136.912
 21
-27.6884
  0
LINE
  8
0
 10
-136.912
 20
-27.6884
 11
-136.607
 21
-27.467
  0
LINE
  8
0
 10
-136.607
 20
-27.467
 11
-136.277
 21
-27.2855
  0
LINE
  8
0
 10
-136.277
 20
-27.2855
 11
-135.927
 21
-27.1468
  0
LINE
  8
0
 10
-135.927
 20
-27.1468
 11
-135.562
 21
-27.0531
  0
LINE
  8
0
 10
-135.562
 20
-27.0531
 11
-135.188
 21
-27.0059
  0
LINE
  8
0
 10
-135.188
 20
-27.0059
 11
-134.812
 21
-27.0059
  0
LINE
  8
0
 10
-134.812
 20
-27.0059
 11
-134.438
 21
-27.0531
  0
LINE
  8
0
 10
-134.438
 20
-27.0531
 11
-134.073
 21
-27.1468
  0
LINE
  8
0
 10
-134.073
 20
-27.1468
 11
-133.723
 21
-27.2855
  0
LINE
  8
0
 10
-133.723
 20
-27.2855
 11
-133.393
 21
-27.467
  0
LINE
  8
0
 10
-133.393
 20
-27.467
 11
-133.088
 21
-27.6884
  0
LINE
  8
0
 10
-133.088
 20
-27.6884
 11
-132.813
 21
-27.9464
  0
LINE
  8
0
 10
-132.813
 20
-27.9464
 11
-132.573
 21
-28.2366
  0
LINE
  8
0
 10
-132.573
 20
-28.2366
 11
-132.371
 21
-28.5547
  0
LINE
  8
0
 10
-132.371
 20
-28.5547
 11
-132.211
 21
-28.8956
  0
LINE
  8
0
 10
-132.211
 20
-28.8956
 11
-132.094
 21
-29.2539
  0
LINE
  8
0
 10
-132.094
 20
-29.2539
 11
-132.024
 21
-29.624
  0
LINE
  8
0
 10
-132.024
 20
-29.624
 11
-132
 21
-30
  0
LINE
  8
0
 10
-132
 20
-30
 11
-132.024
 21
-30.376
  0
LINE
  8
0
 10
-132.024
 20
-30.376
 11
-132.094
 21
-30.7461
  0
LINE
  8
0
 10
-132.094
 20
-30.7461
 11
-132.211
 21
-31.1044
  0
LINE
  8
0
 10
-132.211
 20
-31.1044
 11
-132.371
 21
-31.4453
  0
LINE
  8
0
 10
-132.371
 20
-31.4453
 11
-132.573
 21
-31.7634
  0
LINE
  8
0
 10
-132.573
 20
-31.7634
 11
-132.813
 21
-32.0536
  0
LINE
  8
0
 10
-132.813
 20
-32.0536
 11
-133.088
 21
-32.3115
  0
LINE
  8
0
 10
-133.088
 20
-32.3115
 11
-133.393
 21
-32.533
  0
LINE
  8
0
 10
-133.393
 20
-32.533
 11
-133.723
 21
-32.7145
  0
LINE
  8
0
 10
-133.723
 20
-32.7145
 11
-134.073
 21
-32.8532
  0
LINE
  8
0
 10
-134.073
 20
-32.8532
 11
-134.438
 21
-32.9469
  0
LINE
  8
0
 10
-134.438
 20
-32.9469
 11
-134.812
 21
-32.9941
  0
LINE
  8
0
 10
-134.812
 20
-32.9941
 11
-135.188
 21
-32.9941
  0
ENDSEC
  0
SECTION
  2
OBJECTS
  0
DICTIONARY
  0
ENDSEC
  0
EOF
