  0
SECTION
  2
BLOCKS
  0
ENDSEC
  0
SECTION
  2
ENTITIES
  0
LINE
  8
0
 10
115.437
 20
-6.91142
 11
116.045
 21
-6.75528
  0
LINE
  8
0
 10
116.045
 20
-6.75528
 11
116.629
 21
-6.52412
  0
LINE
  8
0
 10
116.629
 20
-6.52412
 11
117.179
 21
-6.22163
  0
LINE
  8
0
 10
117.179
 20
-6.22163
 11
117.687
 21
-5.85255
  0
LINE
  8
0
 10
117.687
 20
-5.85255
 11
118.145
 21
-5.42273
  0
LINE
  8
0
 10
118.145
 20
-5.42273
 11
118.545
 21
-4.93892
  0
LINE
  8
0
 10
118.545
 20
-4.93892
 11
118.882
 21
-4.40877
  0
LINE
  8
0
 10
118.882
 20
-4.40877
 11
119.149
 21
-3.84062
  0
LINE
  8
0
 10
119.149
 20
-3.84062
 11
119.343
 21
-3.24344
  0
LINE
  8
0
 10
119.343
 20
-3.24344
 11
119.461
 21
-2.62666
  0
LINE
  8
0
 10
119.461
 20
-2.62666
 11
119.5
 21
-2
  0
LINE
  8
0
 10
119.5
 20
-2
 11
119.5
 21
2
  0
LINE
  8
0
 10
119.5
 20
2
 11
119.461
 21
2.62666
  0
LINE
  8
0
 10
119.461
 20
2.62666
 11
119.343
 21
3.24344
  0
LINE
  8
0
 10
119.343
 20
3.24344
 11
119.149
 21
3.84062
  0
LINE
  8
0
 10
119.149
 20
3.84062
 11
118.882
 21
4.40877
  0
LINE
  8
0
 10
118.882
 20
4.40877
 11
118.545
 21
4.93892
  0
LINE
  8
0
 10
118.545
 20
4.93892
 11
118.145
 21
5.42273
  0
LINE
  8
0
 10
118.145
 20
5.42273
 11
117.687
 21
5.85255
  0
LINE
  8
0
 10
117.687
 20
5.85255
 11
117.179
 21
6.22163
  0
LINE
  8
0
 10
117.179
 20
6.22163
 11
116.629
 21
6.52412
  0
LINE
  8
0
 10
116.629
 20
6.52412
 11
116.045
 21
6.75528
  0
LINE
  8
0
 10
116.045
 20
6.75528
 11
115.437
 21
6.91142
  0
LINE
  8
0
 10
115.437
 20
6.91142
 11
114.814
 21
6.99013
  0
LINE
  8
0
 10
114.814
 20
6.99013
 11
-114.814
 21
6.99013
  0
LINE
  8
0
 10
-114.814
 20
6.99013
 11
-115.437
 21
6.91142
  0
LINE
  8
0
 10
-115.437
 20
6.91142
 11
-116.045
 21
6.75528
  0
LINE
  8
0
 10
-116.045
 20
6.75528
 11
-116.629
 21
6.52412
  0
LINE
  8
0
 10
-116.629
 20
6.52412
 11
-117.179
 21
6.22163
  0
LINE
  8
0
 10
-117.179
 20
6.22163
 11
-117.687
 21
5.85255
  0
LINE
  8
0
 10
-117.687
 20
5.85255
 11
-118.145
 21
5.42273
  0
LINE
  8
0
 10
-118.145
 20
5.42273
 11
-118.545
 21
4.93892
  0
LINE
  8
0
 10
-118.545
 20
4.93892
 11
-118.882
 21
4.40877
  0
LINE
  8
0
 10
-118.882
 20
4.40877
 11
-119.149
 21
3.84062
  0
LINE
  8
0
 10
-119.149
 20
3.84062
 11
-119.343
 21
3.24344
  0
LINE
  8
0
 10
-119.343
 20
3.24344
 11
-119.461
 21
2.62666
  0
LINE
  8
0
 10
-119.461
 20
2.62666
 11
-119.5
 21
2
  0
LINE
  8
0
 10
-119.5
 20
2
 11
-119.5
 21
-2
  0
LINE
  8
0
 10
-119.5
 20
-2
 11
-119.461
 21
-2.62666
  0
LINE
  8
0
 10
-119.461
 20
-2.62666
 11
-119.343
 21
-3.24344
  0
LINE
  8
0
 10
-119.343
 20
-3.24344
 11
-119.149
 21
-3.84062
  0
LINE
  8
0
 10
-119.149
 20
-3.84062
 11
-118.882
 21
-4.40877
  0
LINE
  8
0
 10
-118.882
 20
-4.40877
 11
-118.545
 21
-4.93892
  0
LINE
  8
0
 10
-118.545
 20
-4.93892
 11
-118.145
 21
-5.42273
  0
LINE
  8
0
 10
-118.145
 20
-5.42273
 11
-117.687
 21
-5.85255
  0
LINE
  8
0
 10
-117.687
 20
-5.85255
 11
-117.179
 21
-6.22163
  0
LINE
  8
0
 10
-117.179
 20
-6.22163
 11
-116.629
 21
-6.52412
  0
LINE
  8
0
 10
-116.629
 20
-6.52412
 11
-116.045
 21
-6.75528
  0
LINE
  8
0
 10
-116.045
 20
-6.75528
 11
-115.437
 21
-6.91142
  0
LINE
  8
0
 10
-115.437
 20
-6.91142
 11
-114.814
 21
-6.99013
  0
LINE
  8
0
 10
-114.814
 20
-6.99013
 11
114.814
 21
-6.99013
  0
LINE
  8
0
 10
114.814
 20
-6.99013
 11
115.437
 21
-6.91142
  0
LINE
  8
0
 10
112.312
 20
-2.99408
 11
111.938
 21
-2.94685
  0
LINE
  8
0
 10
111.938
 20
-2.94685
 11
111.573
 21
-2.85316
  0
LINE
  8
0
 10
111.573
 20
-2.85316
 11
111.223
 21
-2.71448
  0
LINE
  8
0
 10
111.223
 20
-2.71448
 11
110.893
 21
-2.53297
  0
LINE
  8
0
 10
110.893
 20
-2.53297
 11
110.588
 21
-2.31154
  0
LINE
  8
0
 10
110.588
 20
-2.31154
 11
110.313
 21
-2.05363
  0
LINE
  8
0
 10
110.313
 20
-2.05363
 11
110.073
 21
-1.76335
  0
LINE
  8
0
 10
110.073
 20
-1.76335
 11
109.871
 21
-1.44525
  0
LINE
  8
0
 10
109.871
 20
-1.44525
 11
109.711
 21
-1.10437
  0
LINE
  8
0
 10
109.711
 20
-1.10437
 11
109.594
 21
-0.746063
  0
LINE
  8
0
 10
109.594
 20
-0.746063
 11
109.524
 21
-0.375992
  0
LINE
  8
0
 10
109.524
 20
-0.375992
 11
109.5
 21
0
  0
LINE
  8
0
 10
109.5
 20
0
 11
109.524
 21
0.375992
  0
LINE
  8
0
 10
109.524
 20
0.375992
 11
109.594
 21
0.746063
  0
LINE
  8
0
 10
109.594
 20
0.746063
 11
109.711
 21
1.10437
  0
LINE
  8
0
 10
109.711
 20
1.10437
 11
109.871
 21
1.44525
  0
LINE
  8
0
 10
109.871
 20
1.44525
 11
110.073
 21
1.76335
  0
LINE
  8
0
 10
110.073
 20
1.76335
 11
110.313
 21
2.05363
  0
LINE
  8
0
 10
110.313
 20
2.05363
 11
110.588
 21
2.31154
  0
LINE
  8
0
 10
110.588
 20
2.31154
 11
110.893
 21
2.53297
  0
LINE
  8
0
 10
110.893
 20
2.53297
 11
111.223
 21
2.71448
  0
LINE
  8
0
 10
111.223
 20
2.71448
 11
111.573
 21
2.85316
  0
LINE
  8
0
 10
111.573
 20
2.85316
 11
111.938
 21
2.94685
  0
LINE
  8
0
 10
111.938
 20
2.94685
 11
112.312
 21
2.99408
  0
LINE
  8
0
 10
112.312
 20
2.99408
 11
112.688
 21
2.99408
  0
LINE
  8
0
 10
112.688
 20
2.99408
 11
113.062
 21
2.94685
  0
LINE
  8
0
 10
113.062
 20
2.94685
 11
113.427
 21
2.85316
  0
LINE
  8
0
 10
113.427
 20
2.85316
 11
113.777
 21
2.71448
  0
LINE
  8
0
 10
113.777
 20
2.71448
 11
114.107
 21
2.53297
  0
LINE
  8
0
 10
114.107
 20
2.53297
 11
114.412
 21
2.31154
  0
LINE
  8
0
 10
114.412
 20
2.31154
 11
114.687
 21
2.05363
  0
LINE
  8
0
 10
114.687
 20
2.05363
 11
114.927
 21
1.76335
  0
LINE
  8
0
 10
114.927
 20
1.76335
 11
115.129
 21
1.44525
  0
LINE
  8
0
 10
115.129
 20
1.44525
 11
115.289
 21
1.10437
  0
LINE
  8
0
 10
115.289
 20
1.10437
 11
115.406
 21
0.746063
  0
LINE
  8
0
 10
115.406
 20
0.746063
 11
115.476
 21
0.375992
  0
LINE
  8
0
 10
115.476
 20
0.375992
 11
115.5
 21
0
  0
LINE
  8
0
 10
115.5
 20
0
 11
115.476
 21
-0.375992
  0
LINE
  8
0
 10
115.476
 20
-0.375992
 11
115.406
 21
-0.746063
  0
LINE
  8
0
 10
115.406
 20
-0.746063
 11
115.289
 21
-1.10437
  0
LINE
  8
0
 10
115.289
 20
-1.10437
 11
115.129
 21
-1.44525
  0
LINE
  8
0
 10
115.129
 20
-1.44525
 11
114.927
 21
-1.76335
  0
LINE
  8
0
 10
114.927
 20
-1.76335
 11
114.687
 21
-2.05363
  0
LINE
  8
0
 10
114.687
 20
-2.05363
 11
114.412
 21
-2.31154
  0
LINE
  8
0
 10
114.412
 20
-2.31154
 11
114.107
 21
-2.53297
  0
LINE
  8
0
 10
114.107
 20
-2.53297
 11
113.777
 21
-2.71448
  0
LINE
  8
0
 10
113.777
 20
-2.71448
 11
113.427
 21
-2.85316
  0
LINE
  8
0
 10
113.427
 20
-2.85316
 11
113.062
 21
-2.94685
  0
LINE
  8
0
 10
113.062
 20
-2.94685
 11
112.688
 21
-2.99408
  0
LINE
  8
0
 10
112.688
 20
-2.99408
 11
112.312
 21
-2.99408
  0
LINE
  8
0
 10
-112.688
 20
-2.99408
 11
-113.062
 21
-2.94685
  0
LINE
  8
0
 10
-113.062
 20
-2.94685
 11
-113.427
 21
-2.85316
  0
LINE
  8
0
 10
-113.427
 20
-2.85316
 11
-113.777
 21
-2.71448
  0
LINE
  8
0
 10
-113.777
 20
-2.71448
 11
-114.107
 21
-2.53297
  0
LINE
  8
0
 10
-114.107
 20
-2.53297
 11
-114.412
 21
-2.31154
  0
LINE
  8
0
 10
-114.412
 20
-2.31154
 11
-114.687
 21
-2.05363
  0
LINE
  8
0
 10
-114.687
 20
-2.05363
 11
-114.927
 21
-1.76335
  0
LINE
  8
0
 10
-114.927
 20
-1.76335
 11
-115.129
 21
-1.44525
  0
LINE
  8
0
 10
-115.129
 20
-1.44525
 11
-115.289
 21
-1.10437
  0
LINE
  8
0
 10
-115.289
 20
-1.10437
 11
-115.406
 21
-0.746063
  0
LINE
  8
0
 10
-115.406
 20
-0.746063
 11
-115.476
 21
-0.375992
  0
LINE
  8
0
 10
-115.476
 20
-0.375992
 11
-115.5
 21
0
  0
LINE
  8
0
 10
-115.5
 20
0
 11
-115.476
 21
0.375992
  0
LINE
  8
0
 10
-115.476
 20
0.375992
 11
-115.406
 21
0.746063
  0
LINE
  8
0
 10
-115.406
 20
0.746063
 11
-115.289
 21
1.10437
  0
LINE
  8
0
 10
-115.289
 20
1.10437
 11
-115.129
 21
1.44525
  0
LINE
  8
0
 10
-115.129
 20
1.44525
 11
-114.927
 21
1.76335
  0
LINE
  8
0
 10
-114.927
 20
1.76335
 11
-114.687
 21
2.05363
  0
LINE
  8
0
 10
-114.687
 20
2.05363
 11
-114.412
 21
2.31154
  0
LINE
  8
0
 10
-114.412
 20
2.31154
 11
-114.107
 21
2.53297
  0
LINE
  8
0
 10
-114.107
 20
2.53297
 11
-113.777
 21
2.71448
  0
LINE
  8
0
 10
-113.777
 20
2.71448
 11
-113.427
 21
2.85316
  0
LINE
  8
0
 10
-113.427
 20
2.85316
 11
-113.062
 21
2.94685
  0
LINE
  8
0
 10
-113.062
 20
2.94685
 11
-112.688
 21
2.99408
  0
LINE
  8
0
 10
-112.688
 20
2.99408
 11
-112.312
 21
2.99408
  0
LINE
  8
0
 10
-112.312
 20
2.99408
 11
-111.938
 21
2.94685
  0
LINE
  8
0
 10
-111.938
 20
2.94685
 11
-111.573
 21
2.85316
  0
LINE
  8
0
 10
-111.573
 20
2.85316
 11
-111.223
 21
2.71448
  0
LINE
  8
0
 10
-111.223
 20
2.71448
 11
-110.893
 21
2.53297
  0
LINE
  8
0
 10
-110.893
 20
2.53297
 11
-110.588
 21
2.31154
  0
LINE
  8
0
 10
-110.588
 20
2.31154
 11
-110.313
 21
2.05363
  0
LINE
  8
0
 10
-110.313
 20
2.05363
 11
-110.073
 21
1.76335
  0
LINE
  8
0
 10
-110.073
 20
1.76335
 11
-109.871
 21
1.44525
  0
LINE
  8
0
 10
-109.871
 20
1.44525
 11
-109.711
 21
1.10437
  0
LINE
  8
0
 10
-109.711
 20
1.10437
 11
-109.594
 21
0.746063
  0
LINE
  8
0
 10
-109.594
 20
0.746063
 11
-109.524
 21
0.375992
  0
LINE
  8
0
 10
-109.524
 20
0.375992
 11
-109.5
 21
0
  0
LINE
  8
0
 10
-109.5
 20
0
 11
-109.524
 21
-0.375992
  0
LINE
  8
0
 10
-109.524
 20
-0.375992
 11
-109.594
 21
-0.746063
  0
LINE
  8
0
 10
-109.594
 20
-0.746063
 11
-109.711
 21
-1.10437
  0
LINE
  8
0
 10
-109.711
 20
-1.10437
 11
-109.871
 21
-1.44525
  0
LINE
  8
0
 10
-109.871
 20
-1.44525
 11
-110.073
 21
-1.76335
  0
LINE
  8
0
 10
-110.073
 20
-1.76335
 11
-110.313
 21
-2.05363
  0
LINE
  8
0
 10
-110.313
 20
-2.05363
 11
-110.588
 21
-2.31154
  0
LINE
  8
0
 10
-110.588
 20
-2.31154
 11
-110.893
 21
-2.53297
  0
LINE
  8
0
 10
-110.893
 20
-2.53297
 11
-111.223
 21
-2.71448
  0
LINE
  8
0
 10
-111.223
 20
-2.71448
 11
-111.573
 21
-2.85316
  0
LINE
  8
0
 10
-111.573
 20
-2.85316
 11
-111.938
 21
-2.94685
  0
LINE
  8
0
 10
-111.938
 20
-2.94685
 11
-112.312
 21
-2.99408
  0
LINE
  8
0
 10
-112.312
 20
-2.99408
 11
-112.688
 21
-2.99408
  0
ENDSEC
  0
SECTION
  2
OBJECTS
  0
DICTIONARY
  0
ENDSEC
  0
EOF
