solid OpenSCAD_Model
  facet normal -0.997969 -0.0637003 0
    outer loop
      vertex -109.5 0 0
      vertex -109.524 0.375999 3
      vertex -109.524 0.375999 0
    endloop
  endfacet
  facet normal -0.997969 -0.0637003 0
    outer loop
      vertex -109.524 0.375999 3
      vertex -109.5 0 0
      vertex -109.5 0 3
    endloop
  endfacet
  facet normal 0.997969 -0.0637003 0
    outer loop
      vertex -115.5 0 3
      vertex -115.476 0.375999 0
      vertex -115.476 0.375999 3
    endloop
  endfacet
  facet normal 0.997969 -0.0637003 0
    outer loop
      vertex -115.476 0.375999 0
      vertex -115.5 0 3
      vertex -115.5 0 0
    endloop
  endfacet
  facet normal 0 -1 0
    outer loop
      vertex -112.688 2.99408 0
      vertex -112.312 2.99408 3
      vertex -112.688 2.99408 3
    endloop
  endfacet
  facet normal 0 -1 -0
    outer loop
      vertex -112.312 2.99408 3
      vertex -112.688 2.99408 0
      vertex -112.312 2.99408 0
    endloop
  endfacet
  facet normal 0 1 -0
    outer loop
      vertex -112.312 -2.99408 0
      vertex -112.688 -2.99408 3
      vertex -112.312 -2.99408 3
    endloop
  endfacet
  facet normal 0 1 0
    outer loop
      vertex -112.688 -2.99408 3
      vertex -112.312 -2.99408 0
      vertex -112.688 -2.99408 0
    endloop
  endfacet
  facet normal -0.684065 -0.729421 0
    outer loop
      vertex -110.588 2.31154 0
      vertex -110.313 2.05364 3
      vertex -110.588 2.31154 3
    endloop
  endfacet
  facet normal -0.684065 -0.729421 -0
    outer loop
      vertex -110.313 2.05364 3
      vertex -110.588 2.31154 0
      vertex -110.313 2.05364 0
    endloop
  endfacet
  facet normal 0.684065 -0.729421 0
    outer loop
      vertex -114.687 2.05364 0
      vertex -114.412 2.31154 3
      vertex -114.687 2.05364 3
    endloop
  endfacet
  facet normal 0.684065 -0.729421 0
    outer loop
      vertex -114.412 2.31154 3
      vertex -114.687 2.05364 0
      vertex -114.412 2.31154 0
    endloop
  endfacet
  facet normal 0.368389 -0.929672 0
    outer loop
      vertex -113.777 2.71448 0
      vertex -113.427 2.85317 3
      vertex -113.777 2.71448 3
    endloop
  endfacet
  facet normal 0.368389 -0.929672 0
    outer loop
      vertex -113.427 2.85317 3
      vertex -113.777 2.71448 0
      vertex -113.427 2.85317 0
    endloop
  endfacet
  facet normal -0.905247 -0.424886 0
    outer loop
      vertex -109.711 1.10437 0
      vertex -109.871 1.44526 3
      vertex -109.871 1.44526 0
    endloop
  endfacet
  facet normal -0.905247 -0.424886 0
    outer loop
      vertex -109.871 1.44526 3
      vertex -109.711 1.10437 0
      vertex -109.711 1.10437 3
    endloop
  endfacet
  facet normal -0.982577 -0.185858 0
    outer loop
      vertex -109.524 0.375999 0
      vertex -109.594 0.746069 3
      vertex -109.594 0.746069 0
    endloop
  endfacet
  facet normal -0.982577 -0.185858 0
    outer loop
      vertex -109.594 0.746069 3
      vertex -109.524 0.375999 0
      vertex -109.524 0.375999 3
    endloop
  endfacet
  facet normal -0.368389 -0.929672 0
    outer loop
      vertex -111.573 2.85317 0
      vertex -111.223 2.71448 3
      vertex -111.573 2.85317 3
    endloop
  endfacet
  facet normal -0.368389 -0.929672 -0
    outer loop
      vertex -111.223 2.71448 3
      vertex -111.573 2.85317 0
      vertex -111.223 2.71448 0
    endloop
  endfacet
  facet normal -0.587515 -0.809213 0
    outer loop
      vertex -110.893 2.53298 0
      vertex -110.588 2.31154 3
      vertex -110.893 2.53298 3
    endloop
  endfacet
  facet normal -0.587515 -0.809213 -0
    outer loop
      vertex -110.588 2.31154 3
      vertex -110.893 2.53298 0
      vertex -110.588 2.31154 0
    endloop
  endfacet
  facet normal 0.905247 -0.424886 0
    outer loop
      vertex -115.289 1.10437 3
      vertex -115.129 1.44526 0
      vertex -115.129 1.44526 3
    endloop
  endfacet
  facet normal 0.905247 -0.424886 0
    outer loop
      vertex -115.129 1.44526 0
      vertex -115.289 1.10437 3
      vertex -115.289 1.10437 0
    endloop
  endfacet
  facet normal 0.950603 -0.310411 0
    outer loop
      vertex -115.406 0.746069 3
      vertex -115.289 1.10437 0
      vertex -115.289 1.10437 3
    endloop
  endfacet
  facet normal 0.950603 -0.310411 0
    outer loop
      vertex -115.289 1.10437 0
      vertex -115.406 0.746069 3
      vertex -115.406 0.746069 0
    endloop
  endfacet
  facet normal 0.248625 -0.9686 0
    outer loop
      vertex -113.427 2.85317 0
      vertex -113.062 2.94686 3
      vertex -113.427 2.85317 3
    endloop
  endfacet
  facet normal 0.248625 -0.9686 0
    outer loop
      vertex -113.062 2.94686 3
      vertex -113.427 2.85317 0
      vertex -113.062 2.94686 0
    endloop
  endfacet
  facet normal -0.368389 0.929672 0
    outer loop
      vertex -111.223 -2.71448 0
      vertex -111.573 -2.85317 3
      vertex -111.223 -2.71448 3
    endloop
  endfacet
  facet normal -0.368389 0.929672 0
    outer loop
      vertex -111.573 -2.85317 3
      vertex -111.223 -2.71448 0
      vertex -111.573 -2.85317 0
    endloop
  endfacet
  facet normal -0.950603 -0.310411 0
    outer loop
      vertex -109.594 0.746069 0
      vertex -109.711 1.10437 3
      vertex -109.711 1.10437 0
    endloop
  endfacet
  facet normal -0.950603 -0.310411 0
    outer loop
      vertex -109.711 1.10437 3
      vertex -109.594 0.746069 0
      vertex -109.594 0.746069 3
    endloop
  endfacet
  facet normal -0.770696 -0.637202 0
    outer loop
      vertex -110.073 1.76336 0
      vertex -110.313 2.05364 3
      vertex -110.313 2.05364 0
    endloop
  endfacet
  facet normal -0.770696 -0.637202 0
    outer loop
      vertex -110.313 2.05364 3
      vertex -110.073 1.76336 0
      vertex -110.073 1.76336 3
    endloop
  endfacet
  facet normal -0.844175 -0.536068 0
    outer loop
      vertex -109.871 1.44526 0
      vertex -110.073 1.76336 3
      vertex -110.073 1.76336 0
    endloop
  endfacet
  facet normal -0.844175 -0.536068 0
    outer loop
      vertex -110.073 1.76336 3
      vertex -109.871 1.44526 0
      vertex -109.871 1.44526 3
    endloop
  endfacet
  facet normal -0.248625 -0.9686 0
    outer loop
      vertex -111.938 2.94686 0
      vertex -111.573 2.85317 3
      vertex -111.938 2.94686 3
    endloop
  endfacet
  facet normal -0.248625 -0.9686 -0
    outer loop
      vertex -111.573 2.85317 3
      vertex -111.938 2.94686 0
      vertex -111.573 2.85317 0
    endloop
  endfacet
  facet normal -0.125262 -0.992124 0
    outer loop
      vertex -112.312 2.99408 0
      vertex -111.938 2.94686 3
      vertex -112.312 2.99408 3
    endloop
  endfacet
  facet normal -0.125262 -0.992124 -0
    outer loop
      vertex -111.938 2.94686 3
      vertex -112.312 2.99408 0
      vertex -111.938 2.94686 0
    endloop
  endfacet
  facet normal -0.481919 -0.876216 0
    outer loop
      vertex -111.223 2.71448 0
      vertex -110.893 2.53298 3
      vertex -111.223 2.71448 3
    endloop
  endfacet
  facet normal -0.481919 -0.876216 -0
    outer loop
      vertex -110.893 2.53298 3
      vertex -111.223 2.71448 0
      vertex -110.893 2.53298 0
    endloop
  endfacet
  facet normal 0.844175 -0.536068 0
    outer loop
      vertex -115.129 1.44526 3
      vertex -114.927 1.76336 0
      vertex -114.927 1.76336 3
    endloop
  endfacet
  facet normal 0.844175 -0.536068 0
    outer loop
      vertex -114.927 1.76336 0
      vertex -115.129 1.44526 3
      vertex -115.129 1.44526 0
    endloop
  endfacet
  facet normal 0.770696 -0.637202 0
    outer loop
      vertex -114.927 1.76336 3
      vertex -114.687 2.05364 0
      vertex -114.687 2.05364 3
    endloop
  endfacet
  facet normal 0.770696 -0.637202 0
    outer loop
      vertex -114.687 2.05364 0
      vertex -114.927 1.76336 3
      vertex -114.927 1.76336 0
    endloop
  endfacet
  facet normal 0.982577 -0.185858 0
    outer loop
      vertex -115.476 0.375999 3
      vertex -115.406 0.746069 0
      vertex -115.406 0.746069 3
    endloop
  endfacet
  facet normal 0.982577 -0.185858 0
    outer loop
      vertex -115.406 0.746069 0
      vertex -115.476 0.375999 3
      vertex -115.476 0.375999 0
    endloop
  endfacet
  facet normal 0 0 1
    outer loop
      vertex 115.289 1.10437 3
      vertex 119.5 2 3
      vertex 119.461 2.62667 3
    endloop
  endfacet
  facet normal 0 0 1
    outer loop
      vertex 119.5 2 3
      vertex 115.5 0 3
      vertex 119.5 -2 3
    endloop
  endfacet
  facet normal 0 0 1
    outer loop
      vertex 115.129 1.44526 3
      vertex 119.461 2.62667 3
      vertex 119.343 3.24345 3
    endloop
  endfacet
  facet normal -0 0 1
    outer loop
      vertex 115.476 -0.375999 3
      vertex 119.5 -2 3
      vertex 115.5 0 3
    endloop
  endfacet
  facet normal 0 0 1
    outer loop
      vertex 115.129 1.44526 3
      vertex 119.343 3.24345 3
      vertex 119.149 3.84062 3
    endloop
  endfacet
  facet normal -0 0 1
    outer loop
      vertex 115.406 -0.746069 3
      vertex 119.5 -2 3
      vertex 115.476 -0.375999 3
    endloop
  endfacet
  facet normal 0 0 1
    outer loop
      vertex 114.927 1.76336 3
      vertex 119.149 3.84062 3
      vertex 118.882 4.40877 3
    endloop
  endfacet
  facet normal -0 0 1
    outer loop
      vertex 115.289 -1.10437 3
      vertex 119.5 -2 3
      vertex 115.406 -0.746069 3
    endloop
  endfacet
  facet normal 0 0 1
    outer loop
      vertex 114.927 1.76336 3
      vertex 118.882 4.40877 3
      vertex 118.545 4.93893 3
    endloop
  endfacet
  facet normal 0 0 1
    outer loop
      vertex 119.5 -2 3
      vertex 115.289 -1.10437 3
      vertex 119.461 -2.62667 3
    endloop
  endfacet
  facet normal 0 0 1
    outer loop
      vertex 114.687 2.05364 3
      vertex 118.545 4.93893 3
      vertex 118.145 5.42274 3
    endloop
  endfacet
  facet normal -0 0 1
    outer loop
      vertex 115.129 -1.44526 3
      vertex 119.461 -2.62667 3
      vertex 115.289 -1.10437 3
    endloop
  endfacet
  facet normal 0 0 1
    outer loop
      vertex 114.687 2.05364 3
      vertex 118.145 5.42274 3
      vertex 117.687 5.85257 3
    endloop
  endfacet
  facet normal 0 0 1
    outer loop
      vertex 119.461 -2.62667 3
      vertex 115.129 -1.44526 3
      vertex 119.343 -3.24345 3
    endloop
  endfacet
  facet normal 0 0 1
    outer loop
      vertex 114.412 2.31154 3
      vertex 117.687 5.85257 3
      vertex 117.179 6.22164 3
    endloop
  endfacet
  facet normal 0 0 1
    outer loop
      vertex 119.343 -3.24345 3
      vertex 115.129 -1.44526 3
      vertex 119.149 -3.84062 3
    endloop
  endfacet
  facet normal 0 0 1
    outer loop
      vertex 114.412 2.31154 3
      vertex 117.179 6.22164 3
      vertex 116.629 6.52413 3
    endloop
  endfacet
  facet normal -0 0 1
    outer loop
      vertex 114.927 -1.76336 3
      vertex 119.149 -3.84062 3
      vertex 115.129 -1.44526 3
    endloop
  endfacet
  facet normal 0 0 1
    outer loop
      vertex 114.107 2.53298 3
      vertex 116.629 6.52413 3
      vertex 116.045 6.75528 3
    endloop
  endfacet
  facet normal 0 0 1
    outer loop
      vertex 119.149 -3.84062 3
      vertex 114.927 -1.76336 3
      vertex 118.882 -4.40877 3
    endloop
  endfacet
  facet normal 0 0 1
    outer loop
      vertex 118.882 -4.40877 3
      vertex 114.927 -1.76336 3
      vertex 118.545 -4.93893 3
    endloop
  endfacet
  facet normal 0 0 1
    outer loop
      vertex 119.5 2 3
      vertex 115.476 0.375999 3
      vertex 115.5 0 3
    endloop
  endfacet
  facet normal 0 0 1
    outer loop
      vertex 114.107 2.53298 3
      vertex 116.045 6.75528 3
      vertex 115.437 6.91144 3
    endloop
  endfacet
  facet normal 0 0 1
    outer loop
      vertex 119.5 2 3
      vertex 115.406 0.746069 3
      vertex 115.476 0.375999 3
    endloop
  endfacet
  facet normal 0 0 1
    outer loop
      vertex 119.5 2 3
      vertex 115.289 1.10437 3
      vertex 115.406 0.746069 3
    endloop
  endfacet
  facet normal 0 0 1
    outer loop
      vertex 119.461 2.62667 3
      vertex 115.129 1.44526 3
      vertex 115.289 1.10437 3
    endloop
  endfacet
  facet normal 0 0 1
    outer loop
      vertex 119.149 3.84062 3
      vertex 114.927 1.76336 3
      vertex 115.129 1.44526 3
    endloop
  endfacet
  facet normal 0 0 1
    outer loop
      vertex 113.777 2.71448 3
      vertex 115.437 6.91144 3
      vertex 114.814 6.99013 3
    endloop
  endfacet
  facet normal 0 0 1
    outer loop
      vertex 118.545 4.93893 3
      vertex 114.687 2.05364 3
      vertex 114.927 1.76336 3
    endloop
  endfacet
  facet normal 0 0 1
    outer loop
      vertex 117.687 5.85257 3
      vertex 114.412 2.31154 3
      vertex 114.687 2.05364 3
    endloop
  endfacet
  facet normal 0 0 1
    outer loop
      vertex 116.629 6.52413 3
      vertex 114.107 2.53298 3
      vertex 114.412 2.31154 3
    endloop
  endfacet
  facet normal 0 0 1
    outer loop
      vertex 115.437 6.91144 3
      vertex 113.777 2.71448 3
      vertex 114.107 2.53298 3
    endloop
  endfacet
  facet normal 0 0 1
    outer loop
      vertex 114.814 6.99013 3
      vertex 113.427 2.85317 3
      vertex 113.777 2.71448 3
    endloop
  endfacet
  facet normal 0 0 1
    outer loop
      vertex 114.814 6.99013 3
      vertex 113.062 2.94686 3
      vertex 113.427 2.85317 3
    endloop
  endfacet
  facet normal 0 0 1
    outer loop
      vertex 114.814 6.99013 3
      vertex 112.688 2.99408 3
      vertex 113.062 2.94686 3
    endloop
  endfacet
  facet normal 0 0 1
    outer loop
      vertex 114.814 6.99013 3
      vertex 112.312 2.99408 3
      vertex 112.688 2.99408 3
    endloop
  endfacet
  facet normal 0 0 1
    outer loop
      vertex 114.814 6.99013 3
      vertex 111.938 2.94686 3
      vertex 112.312 2.99408 3
    endloop
  endfacet
  facet normal 0 0 1
    outer loop
      vertex 114.814 6.99013 3
      vertex 111.573 2.85317 3
      vertex 111.938 2.94686 3
    endloop
  endfacet
  facet normal 0 0 1
    outer loop
      vertex 114.814 6.99013 3
      vertex 111.223 2.71448 3
      vertex 111.573 2.85317 3
    endloop
  endfacet
  facet normal 0 0 1
    outer loop
      vertex 114.814 6.99013 3
      vertex 110.893 2.53298 3
      vertex 111.223 2.71448 3
    endloop
  endfacet
  facet normal 0 0 1
    outer loop
      vertex 114.814 6.99013 3
      vertex 110.588 2.31154 3
      vertex 110.893 2.53298 3
    endloop
  endfacet
  facet normal 0 0 1
    outer loop
      vertex 114.814 6.99013 3
      vertex 110.313 2.05364 3
      vertex 110.588 2.31154 3
    endloop
  endfacet
  facet normal 0 0 1
    outer loop
      vertex 109.524 0.375999 3
      vertex -109.5 0 3
      vertex 109.5 0 3
    endloop
  endfacet
  facet normal 0 0 1
    outer loop
      vertex -109.524 0.375999 3
      vertex 109.524 0.375999 3
      vertex 109.594 0.746069 3
    endloop
  endfacet
  facet normal 0 0 1
    outer loop
      vertex -109.594 0.746069 3
      vertex 109.594 0.746069 3
      vertex 109.711 1.10437 3
    endloop
  endfacet
  facet normal 0 0 1
    outer loop
      vertex -109.711 1.10437 3
      vertex 109.711 1.10437 3
      vertex 109.871 1.44526 3
    endloop
  endfacet
  facet normal 0 0 1
    outer loop
      vertex -109.871 1.44526 3
      vertex 109.871 1.44526 3
      vertex 110.073 1.76336 3
    endloop
  endfacet
  facet normal 0 0 1
    outer loop
      vertex -110.073 1.76336 3
      vertex 110.073 1.76336 3
      vertex 110.313 2.05364 3
    endloop
  endfacet
  facet normal 0 0 1
    outer loop
      vertex -110.313 2.05364 3
      vertex 110.313 2.05364 3
      vertex 114.814 6.99013 3
    endloop
  endfacet
  facet normal 0 0 1
    outer loop
      vertex 109.524 0.375999 3
      vertex -109.524 0.375999 3
      vertex -109.5 0 3
    endloop
  endfacet
  facet normal 0 0 1
    outer loop
      vertex 109.594 0.746069 3
      vertex -109.594 0.746069 3
      vertex -109.524 0.375999 3
    endloop
  endfacet
  facet normal 0 0 1
    outer loop
      vertex 109.711 1.10437 3
      vertex -109.711 1.10437 3
      vertex -109.594 0.746069 3
    endloop
  endfacet
  facet normal 0 0 1
    outer loop
      vertex 109.871 1.44526 3
      vertex -109.871 1.44526 3
      vertex -109.711 1.10437 3
    endloop
  endfacet
  facet normal 0 0 1
    outer loop
      vertex 110.073 1.76336 3
      vertex -110.073 1.76336 3
      vertex -109.871 1.44526 3
    endloop
  endfacet
  facet normal 0 0 1
    outer loop
      vertex 110.313 2.05364 3
      vertex -110.313 2.05364 3
      vertex -110.073 1.76336 3
    endloop
  endfacet
  facet normal -0 0 1
    outer loop
      vertex -114.814 6.99013 3
      vertex -110.313 2.05364 3
      vertex 114.814 6.99013 3
    endloop
  endfacet
  facet normal 0 0 1
    outer loop
      vertex -110.313 2.05364 3
      vertex -114.814 6.99013 3
      vertex -110.588 2.31154 3
    endloop
  endfacet
  facet normal 0 0 1
    outer loop
      vertex -110.588 2.31154 3
      vertex -114.814 6.99013 3
      vertex -110.893 2.53298 3
    endloop
  endfacet
  facet normal 0 0 1
    outer loop
      vertex -110.893 2.53298 3
      vertex -114.814 6.99013 3
      vertex -111.223 2.71448 3
    endloop
  endfacet
  facet normal 0 0 1
    outer loop
      vertex -111.223 2.71448 3
      vertex -114.814 6.99013 3
      vertex -111.573 2.85317 3
    endloop
  endfacet
  facet normal 0 0 1
    outer loop
      vertex -111.573 2.85317 3
      vertex -114.814 6.99013 3
      vertex -111.938 2.94686 3
    endloop
  endfacet
  facet normal 0 0 1
    outer loop
      vertex -111.938 2.94686 3
      vertex -114.814 6.99013 3
      vertex -112.312 2.99408 3
    endloop
  endfacet
  facet normal 0 0 1
    outer loop
      vertex -112.312 2.99408 3
      vertex -114.814 6.99013 3
      vertex -112.688 2.99408 3
    endloop
  endfacet
  facet normal 0 0 1
    outer loop
      vertex -114.814 6.99013 3
      vertex -113.062 2.94686 3
      vertex -112.688 2.99408 3
    endloop
  endfacet
  facet normal 0 0 1
    outer loop
      vertex -114.814 6.99013 3
      vertex -113.427 2.85317 3
      vertex -113.062 2.94686 3
    endloop
  endfacet
  facet normal 0 0 1
    outer loop
      vertex -114.814 6.99013 3
      vertex -113.777 2.71448 3
      vertex -113.427 2.85317 3
    endloop
  endfacet
  facet normal -0 0 1
    outer loop
      vertex -115.437 6.91144 3
      vertex -113.777 2.71448 3
      vertex -114.814 6.99013 3
    endloop
  endfacet
  facet normal 0 0 1
    outer loop
      vertex -113.777 2.71448 3
      vertex -115.437 6.91144 3
      vertex -114.107 2.53298 3
    endloop
  endfacet
  facet normal -0 0 1
    outer loop
      vertex -116.045 6.75528 3
      vertex -114.107 2.53298 3
      vertex -115.437 6.91144 3
    endloop
  endfacet
  facet normal -0 0 1
    outer loop
      vertex -116.629 6.52413 3
      vertex -114.107 2.53298 3
      vertex -116.045 6.75528 3
    endloop
  endfacet
  facet normal 0 0 1
    outer loop
      vertex -114.107 2.53298 3
      vertex -116.629 6.52413 3
      vertex -114.412 2.31154 3
    endloop
  endfacet
  facet normal -0 0 1
    outer loop
      vertex -117.179 6.22164 3
      vertex -114.412 2.31154 3
      vertex -116.629 6.52413 3
    endloop
  endfacet
  facet normal -0 0 1
    outer loop
      vertex -117.687 5.85257 3
      vertex -114.412 2.31154 3
      vertex -117.179 6.22164 3
    endloop
  endfacet
  facet normal 0 0 1
    outer loop
      vertex -114.412 2.31154 3
      vertex -117.687 5.85257 3
      vertex -114.687 2.05364 3
    endloop
  endfacet
  facet normal -0 0 1
    outer loop
      vertex -118.145 5.42274 3
      vertex -114.687 2.05364 3
      vertex -117.687 5.85257 3
    endloop
  endfacet
  facet normal -0 0 1
    outer loop
      vertex -118.545 4.93893 3
      vertex -114.687 2.05364 3
      vertex -118.145 5.42274 3
    endloop
  endfacet
  facet normal 0 0 1
    outer loop
      vertex -114.687 2.05364 3
      vertex -118.545 4.93893 3
      vertex -114.927 1.76336 3
    endloop
  endfacet
  facet normal -0 0 1
    outer loop
      vertex 114.687 -2.05364 3
      vertex 118.545 -4.93893 3
      vertex 114.927 -1.76336 3
    endloop
  endfacet
  facet normal 0 0 1
    outer loop
      vertex 118.545 -4.93893 3
      vertex 114.687 -2.05364 3
      vertex 118.145 -5.42274 3
    endloop
  endfacet
  facet normal 0 0 1
    outer loop
      vertex 118.145 -5.42274 3
      vertex 114.687 -2.05364 3
      vertex 117.687 -5.85257 3
    endloop
  endfacet
  facet normal -0 0 1
    outer loop
      vertex 114.412 -2.31154 3
      vertex 117.687 -5.85257 3
      vertex 114.687 -2.05364 3
    endloop
  endfacet
  facet normal 0 0 1
    outer loop
      vertex 117.687 -5.85257 3
      vertex 114.412 -2.31154 3
      vertex 117.179 -6.22164 3
    endloop
  endfacet
  facet normal 0 0 1
    outer loop
      vertex 117.179 -6.22164 3
      vertex 114.412 -2.31154 3
      vertex 116.629 -6.52413 3
    endloop
  endfacet
  facet normal -0 0 1
    outer loop
      vertex 114.107 -2.53298 3
      vertex 116.629 -6.52413 3
      vertex 114.412 -2.31154 3
    endloop
  endfacet
  facet normal 0 0 1
    outer loop
      vertex 116.629 -6.52413 3
      vertex 114.107 -2.53298 3
      vertex 116.045 -6.75528 3
    endloop
  endfacet
  facet normal 0 0 1
    outer loop
      vertex 116.045 -6.75528 3
      vertex 114.107 -2.53298 3
      vertex 115.437 -6.91144 3
    endloop
  endfacet
  facet normal -0 0 1
    outer loop
      vertex 113.777 -2.71448 3
      vertex 115.437 -6.91144 3
      vertex 114.107 -2.53298 3
    endloop
  endfacet
  facet normal 0 0 1
    outer loop
      vertex 115.437 -6.91144 3
      vertex 113.777 -2.71448 3
      vertex 114.814 -6.99013 3
    endloop
  endfacet
  facet normal -0 0 1
    outer loop
      vertex 113.427 -2.85317 3
      vertex 114.814 -6.99013 3
      vertex 113.777 -2.71448 3
    endloop
  endfacet
  facet normal -0 0 1
    outer loop
      vertex 113.062 -2.94686 3
      vertex 114.814 -6.99013 3
      vertex 113.427 -2.85317 3
    endloop
  endfacet
  facet normal -0 0 1
    outer loop
      vertex 112.688 -2.99408 3
      vertex 114.814 -6.99013 3
      vertex 113.062 -2.94686 3
    endloop
  endfacet
  facet normal -0 0 1
    outer loop
      vertex 112.312 -2.99408 3
      vertex 114.814 -6.99013 3
      vertex 112.688 -2.99408 3
    endloop
  endfacet
  facet normal 0 0 1
    outer loop
      vertex 111.938 -2.94686 3
      vertex 114.814 -6.99013 3
      vertex 112.312 -2.99408 3
    endloop
  endfacet
  facet normal 0 0 1
    outer loop
      vertex 111.573 -2.85317 3
      vertex 114.814 -6.99013 3
      vertex 111.938 -2.94686 3
    endloop
  endfacet
  facet normal 0 0 1
    outer loop
      vertex 111.223 -2.71448 3
      vertex 114.814 -6.99013 3
      vertex 111.573 -2.85317 3
    endloop
  endfacet
  facet normal 0 0 1
    outer loop
      vertex 110.893 -2.53298 3
      vertex 114.814 -6.99013 3
      vertex 111.223 -2.71448 3
    endloop
  endfacet
  facet normal 0 0 1
    outer loop
      vertex 110.588 -2.31154 3
      vertex 114.814 -6.99013 3
      vertex 110.893 -2.53298 3
    endloop
  endfacet
  facet normal 0 0 1
    outer loop
      vertex 110.313 -2.05364 3
      vertex 114.814 -6.99013 3
      vertex 110.588 -2.31154 3
    endloop
  endfacet
  facet normal -0 0 1
    outer loop
      vertex -109.5 0 3
      vertex 109.524 -0.375999 3
      vertex 109.5 0 3
    endloop
  endfacet
  facet normal 0 0 1
    outer loop
      vertex -109.524 -0.375999 3
      vertex 109.524 -0.375999 3
      vertex -109.5 0 3
    endloop
  endfacet
  facet normal 0 0 1
    outer loop
      vertex 109.524 -0.375999 3
      vertex -109.524 -0.375999 3
      vertex 109.594 -0.746069 3
    endloop
  endfacet
  facet normal 0 0 1
    outer loop
      vertex -109.594 -0.746069 3
      vertex 109.594 -0.746069 3
      vertex -109.524 -0.375999 3
    endloop
  endfacet
  facet normal 0 0 1
    outer loop
      vertex 109.594 -0.746069 3
      vertex -109.594 -0.746069 3
      vertex 109.711 -1.10437 3
    endloop
  endfacet
  facet normal 0 0 1
    outer loop
      vertex -109.711 -1.10437 3
      vertex 109.711 -1.10437 3
      vertex -109.594 -0.746069 3
    endloop
  endfacet
  facet normal 0 0 1
    outer loop
      vertex 109.711 -1.10437 3
      vertex -109.711 -1.10437 3
      vertex 109.871 -1.44526 3
    endloop
  endfacet
  facet normal 0 0 1
    outer loop
      vertex -109.871 -1.44526 3
      vertex 109.871 -1.44526 3
      vertex -109.711 -1.10437 3
    endloop
  endfacet
  facet normal 0 0 1
    outer loop
      vertex 109.871 -1.44526 3
      vertex -109.871 -1.44526 3
      vertex 110.073 -1.76336 3
    endloop
  endfacet
  facet normal 0 0 1
    outer loop
      vertex -110.073 -1.76336 3
      vertex 110.073 -1.76336 3
      vertex -109.871 -1.44526 3
    endloop
  endfacet
  facet normal 0 0 1
    outer loop
      vertex 110.073 -1.76336 3
      vertex -110.073 -1.76336 3
      vertex 110.313 -2.05364 3
    endloop
  endfacet
  facet normal 0 0 1
    outer loop
      vertex -110.313 -2.05364 3
      vertex 110.313 -2.05364 3
      vertex -110.073 -1.76336 3
    endloop
  endfacet
  facet normal 0 0 1
    outer loop
      vertex 110.313 -2.05364 3
      vertex -110.313 -2.05364 3
      vertex 114.814 -6.99013 3
    endloop
  endfacet
  facet normal 0 0 1
    outer loop
      vertex -114.814 -6.99013 3
      vertex -110.313 -2.05364 3
      vertex -110.588 -2.31154 3
    endloop
  endfacet
  facet normal 0 0 1
    outer loop
      vertex -114.814 -6.99013 3
      vertex -110.588 -2.31154 3
      vertex -110.893 -2.53298 3
    endloop
  endfacet
  facet normal 0 0 1
    outer loop
      vertex -114.814 -6.99013 3
      vertex -110.893 -2.53298 3
      vertex -111.223 -2.71448 3
    endloop
  endfacet
  facet normal 0 0 1
    outer loop
      vertex -114.814 -6.99013 3
      vertex -111.223 -2.71448 3
      vertex -111.573 -2.85317 3
    endloop
  endfacet
  facet normal 0 0 1
    outer loop
      vertex -114.814 -6.99013 3
      vertex -111.573 -2.85317 3
      vertex -111.938 -2.94686 3
    endloop
  endfacet
  facet normal 0 0 1
    outer loop
      vertex -114.814 -6.99013 3
      vertex -111.938 -2.94686 3
      vertex -112.312 -2.99408 3
    endloop
  endfacet
  facet normal 0 0 1
    outer loop
      vertex -114.814 -6.99013 3
      vertex -112.312 -2.99408 3
      vertex -112.688 -2.99408 3
    endloop
  endfacet
  facet normal 0 0 1
    outer loop
      vertex -110.313 -2.05364 3
      vertex -114.814 -6.99013 3
      vertex 114.814 -6.99013 3
    endloop
  endfacet
  facet normal 0 0 1
    outer loop
      vertex -113.062 -2.94686 3
      vertex -114.814 -6.99013 3
      vertex -112.688 -2.99408 3
    endloop
  endfacet
  facet normal 0 0 1
    outer loop
      vertex -113.427 -2.85317 3
      vertex -114.814 -6.99013 3
      vertex -113.062 -2.94686 3
    endloop
  endfacet
  facet normal 0 0 1
    outer loop
      vertex -113.777 -2.71448 3
      vertex -114.814 -6.99013 3
      vertex -113.427 -2.85317 3
    endloop
  endfacet
  facet normal 0 0 1
    outer loop
      vertex -115.437 -6.91144 3
      vertex -113.777 -2.71448 3
      vertex -114.107 -2.53298 3
    endloop
  endfacet
  facet normal 0 0 1
    outer loop
      vertex -116.629 -6.52413 3
      vertex -114.107 -2.53298 3
      vertex -114.412 -2.31154 3
    endloop
  endfacet
  facet normal 0 0 1
    outer loop
      vertex -117.687 -5.85257 3
      vertex -114.412 -2.31154 3
      vertex -114.687 -2.05364 3
    endloop
  endfacet
  facet normal 0 0 1
    outer loop
      vertex -118.545 -4.93893 3
      vertex -114.687 -2.05364 3
      vertex -114.927 -1.76336 3
    endloop
  endfacet
  facet normal 0 0 1
    outer loop
      vertex -119.149 -3.84062 3
      vertex -114.927 -1.76336 3
      vertex -115.129 -1.44526 3
    endloop
  endfacet
  facet normal 0 0 1
    outer loop
      vertex -119.461 -2.62667 3
      vertex -115.129 -1.44526 3
      vertex -115.289 -1.10437 3
    endloop
  endfacet
  facet normal 0 0 1
    outer loop
      vertex -119.5 -2 3
      vertex -115.289 -1.10437 3
      vertex -115.406 -0.746069 3
    endloop
  endfacet
  facet normal 0 0 1
    outer loop
      vertex -113.777 -2.71448 3
      vertex -115.437 -6.91144 3
      vertex -114.814 -6.99013 3
    endloop
  endfacet
  facet normal 0 0 1
    outer loop
      vertex -119.5 -2 3
      vertex -115.406 -0.746069 3
      vertex -115.476 -0.375999 3
    endloop
  endfacet
  facet normal 0 0 1
    outer loop
      vertex -119.5 -2 3
      vertex -115.476 -0.375999 3
      vertex -115.5 0 3
    endloop
  endfacet
  facet normal -0 0 1
    outer loop
      vertex -118.882 4.40877 3
      vertex -114.927 1.76336 3
      vertex -118.545 4.93893 3
    endloop
  endfacet
  facet normal 0 0 1
    outer loop
      vertex -119.5 -2 3
      vertex -115.5 0 3
      vertex -119.5 2 3
    endloop
  endfacet
  facet normal -0 0 1
    outer loop
      vertex -119.149 3.84062 3
      vertex -114.927 1.76336 3
      vertex -118.882 4.40877 3
    endloop
  endfacet
  facet normal 0 0 1
    outer loop
      vertex -115.289 -1.10437 3
      vertex -119.5 -2 3
      vertex -119.461 -2.62667 3
    endloop
  endfacet
  facet normal 0 0 1
    outer loop
      vertex -114.927 1.76336 3
      vertex -119.149 3.84062 3
      vertex -115.129 1.44526 3
    endloop
  endfacet
  facet normal 0 0 1
    outer loop
      vertex -114.107 -2.53298 3
      vertex -116.045 -6.75528 3
      vertex -115.437 -6.91144 3
    endloop
  endfacet
  facet normal -0 0 1
    outer loop
      vertex -119.343 3.24345 3
      vertex -115.129 1.44526 3
      vertex -119.149 3.84062 3
    endloop
  endfacet
  facet normal 0 0 1
    outer loop
      vertex -114.107 -2.53298 3
      vertex -116.629 -6.52413 3
      vertex -116.045 -6.75528 3
    endloop
  endfacet
  facet normal -0 0 1
    outer loop
      vertex -119.461 2.62667 3
      vertex -115.129 1.44526 3
      vertex -119.343 3.24345 3
    endloop
  endfacet
  facet normal 0 0 1
    outer loop
      vertex -114.412 -2.31154 3
      vertex -117.179 -6.22164 3
      vertex -116.629 -6.52413 3
    endloop
  endfacet
  facet normal 0 0 1
    outer loop
      vertex -115.129 1.44526 3
      vertex -119.461 2.62667 3
      vertex -115.289 1.10437 3
    endloop
  endfacet
  facet normal 0 0 1
    outer loop
      vertex -114.412 -2.31154 3
      vertex -117.687 -5.85257 3
      vertex -117.179 -6.22164 3
    endloop
  endfacet
  facet normal -0 0 1
    outer loop
      vertex -119.5 2 3
      vertex -115.289 1.10437 3
      vertex -119.461 2.62667 3
    endloop
  endfacet
  facet normal 0 0 1
    outer loop
      vertex -114.687 -2.05364 3
      vertex -118.145 -5.42274 3
      vertex -117.687 -5.85257 3
    endloop
  endfacet
  facet normal 0 0 1
    outer loop
      vertex -115.289 1.10437 3
      vertex -119.5 2 3
      vertex -115.406 0.746069 3
    endloop
  endfacet
  facet normal 0 0 1
    outer loop
      vertex -114.687 -2.05364 3
      vertex -118.545 -4.93893 3
      vertex -118.145 -5.42274 3
    endloop
  endfacet
  facet normal 0 0 1
    outer loop
      vertex -115.406 0.746069 3
      vertex -119.5 2 3
      vertex -115.476 0.375999 3
    endloop
  endfacet
  facet normal 0 0 1
    outer loop
      vertex -114.927 -1.76336 3
      vertex -118.882 -4.40877 3
      vertex -118.545 -4.93893 3
    endloop
  endfacet
  facet normal 0 0 1
    outer loop
      vertex -115.476 0.375999 3
      vertex -119.5 2 3
      vertex -115.5 0 3
    endloop
  endfacet
  facet normal 0 0 1
    outer loop
      vertex -114.927 -1.76336 3
      vertex -119.149 -3.84062 3
      vertex -118.882 -4.40877 3
    endloop
  endfacet
  facet normal 0 0 1
    outer loop
      vertex -115.129 -1.44526 3
      vertex -119.343 -3.24345 3
      vertex -119.149 -3.84062 3
    endloop
  endfacet
  facet normal 0 0 1
    outer loop
      vertex -115.129 -1.44526 3
      vertex -119.461 -2.62667 3
      vertex -119.343 -3.24345 3
    endloop
  endfacet
  facet normal 0.481919 -0.876216 0
    outer loop
      vertex -114.107 2.53298 0
      vertex -113.777 2.71448 3
      vertex -114.107 2.53298 3
    endloop
  endfacet
  facet normal 0.481919 -0.876216 0
    outer loop
      vertex -113.777 2.71448 3
      vertex -114.107 2.53298 0
      vertex -113.777 2.71448 0
    endloop
  endfacet
  facet normal 0.587515 -0.809213 0
    outer loop
      vertex -114.412 2.31154 0
      vertex -114.107 2.53298 3
      vertex -114.412 2.31154 3
    endloop
  endfacet
  facet normal 0.587515 -0.809213 0
    outer loop
      vertex -114.107 2.53298 3
      vertex -114.412 2.31154 0
      vertex -114.107 2.53298 0
    endloop
  endfacet
  facet normal 0.125262 -0.992124 0
    outer loop
      vertex -113.062 2.94686 0
      vertex -112.688 2.99408 3
      vertex -113.062 2.94686 3
    endloop
  endfacet
  facet normal 0.125262 -0.992124 0
    outer loop
      vertex -112.688 2.99408 3
      vertex -113.062 2.94686 0
      vertex -112.688 2.99408 0
    endloop
  endfacet
  facet normal -0.997969 0.0637003 0
    outer loop
      vertex -109.524 -0.375999 0
      vertex -109.5 0 3
      vertex -109.5 0 0
    endloop
  endfacet
  facet normal -0.997969 0.0637003 0
    outer loop
      vertex -109.5 0 3
      vertex -109.524 -0.375999 0
      vertex -109.524 -0.375999 3
    endloop
  endfacet
  facet normal -0.481919 0.876216 0
    outer loop
      vertex -110.893 -2.53298 0
      vertex -111.223 -2.71448 3
      vertex -110.893 -2.53298 3
    endloop
  endfacet
  facet normal -0.481919 0.876216 0
    outer loop
      vertex -111.223 -2.71448 3
      vertex -110.893 -2.53298 0
      vertex -111.223 -2.71448 0
    endloop
  endfacet
  facet normal -0.684065 0.729421 0
    outer loop
      vertex -110.313 -2.05364 0
      vertex -110.588 -2.31154 3
      vertex -110.313 -2.05364 3
    endloop
  endfacet
  facet normal -0.684065 0.729421 0
    outer loop
      vertex -110.588 -2.31154 3
      vertex -110.313 -2.05364 0
      vertex -110.588 -2.31154 0
    endloop
  endfacet
  facet normal -0.982577 0.185858 0
    outer loop
      vertex -109.594 -0.746069 0
      vertex -109.524 -0.375999 3
      vertex -109.524 -0.375999 0
    endloop
  endfacet
  facet normal -0.982577 0.185858 0
    outer loop
      vertex -109.524 -0.375999 3
      vertex -109.594 -0.746069 0
      vertex -109.594 -0.746069 3
    endloop
  endfacet
  facet normal 0 0 -1
    outer loop
      vertex 115.289 -1.10437 0
      vertex 119.5 -2 0
      vertex 119.461 -2.62667 0
    endloop
  endfacet
  facet normal 0 0 -1
    outer loop
      vertex 119.5 -2 0
      vertex 115.5 0 0
      vertex 119.5 2 0
    endloop
  endfacet
  facet normal 0 0 -1
    outer loop
      vertex 115.129 -1.44526 0
      vertex 119.461 -2.62667 0
      vertex 119.343 -3.24345 0
    endloop
  endfacet
  facet normal 0 0 -1
    outer loop
      vertex 115.476 0.375999 0
      vertex 119.5 2 0
      vertex 115.5 0 0
    endloop
  endfacet
  facet normal 0 0 -1
    outer loop
      vertex 115.129 -1.44526 0
      vertex 119.343 -3.24345 0
      vertex 119.149 -3.84062 0
    endloop
  endfacet
  facet normal 0 0 -1
    outer loop
      vertex 115.406 0.746069 0
      vertex 119.5 2 0
      vertex 115.476 0.375999 0
    endloop
  endfacet
  facet normal 0 0 -1
    outer loop
      vertex 114.927 -1.76336 0
      vertex 119.149 -3.84062 0
      vertex 118.882 -4.40877 0
    endloop
  endfacet
  facet normal 0 0 -1
    outer loop
      vertex 115.289 1.10437 0
      vertex 119.5 2 0
      vertex 115.406 0.746069 0
    endloop
  endfacet
  facet normal 0 0 -1
    outer loop
      vertex 114.927 -1.76336 0
      vertex 118.882 -4.40877 0
      vertex 118.545 -4.93893 0
    endloop
  endfacet
  facet normal -0 0 -1
    outer loop
      vertex 119.5 2 0
      vertex 115.289 1.10437 0
      vertex 119.461 2.62667 0
    endloop
  endfacet
  facet normal 0 0 -1
    outer loop
      vertex 114.687 -2.05364 0
      vertex 118.545 -4.93893 0
      vertex 118.145 -5.42274 0
    endloop
  endfacet
  facet normal 0 0 -1
    outer loop
      vertex 115.129 1.44526 0
      vertex 119.461 2.62667 0
      vertex 115.289 1.10437 0
    endloop
  endfacet
  facet normal 0 0 -1
    outer loop
      vertex 114.687 -2.05364 0
      vertex 118.145 -5.42274 0
      vertex 117.687 -5.85257 0
    endloop
  endfacet
  facet normal -0 0 -1
    outer loop
      vertex 119.461 2.62667 0
      vertex 115.129 1.44526 0
      vertex 119.343 3.24345 0
    endloop
  endfacet
  facet normal 0 0 -1
    outer loop
      vertex 114.412 -2.31154 0
      vertex 117.687 -5.85257 0
      vertex 117.179 -6.22164 0
    endloop
  endfacet
  facet normal -0 0 -1
    outer loop
      vertex 119.343 3.24345 0
      vertex 115.129 1.44526 0
      vertex 119.149 3.84062 0
    endloop
  endfacet
  facet normal 0 0 -1
    outer loop
      vertex 114.412 -2.31154 0
      vertex 117.179 -6.22164 0
      vertex 116.629 -6.52413 0
    endloop
  endfacet
  facet normal 0 0 -1
    outer loop
      vertex 114.927 1.76336 0
      vertex 119.149 3.84062 0
      vertex 115.129 1.44526 0
    endloop
  endfacet
  facet normal 0 0 -1
    outer loop
      vertex 114.107 -2.53298 0
      vertex 116.629 -6.52413 0
      vertex 116.045 -6.75528 0
    endloop
  endfacet
  facet normal -0 0 -1
    outer loop
      vertex 119.149 3.84062 0
      vertex 114.927 1.76336 0
      vertex 118.882 4.40877 0
    endloop
  endfacet
  facet normal -0 0 -1
    outer loop
      vertex 118.882 4.40877 0
      vertex 114.927 1.76336 0
      vertex 118.545 4.93893 0
    endloop
  endfacet
  facet normal 0 0 -1
    outer loop
      vertex 119.5 -2 0
      vertex 115.476 -0.375999 0
      vertex 115.5 0 0
    endloop
  endfacet
  facet normal 0 0 -1
    outer loop
      vertex 114.107 -2.53298 0
      vertex 116.045 -6.75528 0
      vertex 115.437 -6.91144 0
    endloop
  endfacet
  facet normal 0 0 -1
    outer loop
      vertex 119.5 -2 0
      vertex 115.406 -0.746069 0
      vertex 115.476 -0.375999 0
    endloop
  endfacet
  facet normal 0 0 -1
    outer loop
      vertex 119.5 -2 0
      vertex 115.289 -1.10437 0
      vertex 115.406 -0.746069 0
    endloop
  endfacet
  facet normal 0 0 -1
    outer loop
      vertex 119.461 -2.62667 0
      vertex 115.129 -1.44526 0
      vertex 115.289 -1.10437 0
    endloop
  endfacet
  facet normal 0 0 -1
    outer loop
      vertex 119.149 -3.84062 0
      vertex 114.927 -1.76336 0
      vertex 115.129 -1.44526 0
    endloop
  endfacet
  facet normal 0 0 -1
    outer loop
      vertex 113.777 -2.71448 0
      vertex 115.437 -6.91144 0
      vertex 114.814 -6.99013 0
    endloop
  endfacet
  facet normal 0 0 -1
    outer loop
      vertex 118.545 -4.93893 0
      vertex 114.687 -2.05364 0
      vertex 114.927 -1.76336 0
    endloop
  endfacet
  facet normal 0 0 -1
    outer loop
      vertex 117.687 -5.85257 0
      vertex 114.412 -2.31154 0
      vertex 114.687 -2.05364 0
    endloop
  endfacet
  facet normal 0 0 -1
    outer loop
      vertex 116.629 -6.52413 0
      vertex 114.107 -2.53298 0
      vertex 114.412 -2.31154 0
    endloop
  endfacet
  facet normal 0 0 -1
    outer loop
      vertex 115.437 -6.91144 0
      vertex 113.777 -2.71448 0
      vertex 114.107 -2.53298 0
    endloop
  endfacet
  facet normal 0 0 -1
    outer loop
      vertex 114.814 -6.99013 0
      vertex 113.427 -2.85317 0
      vertex 113.777 -2.71448 0
    endloop
  endfacet
  facet normal 0 0 -1
    outer loop
      vertex 114.814 -6.99013 0
      vertex 113.062 -2.94686 0
      vertex 113.427 -2.85317 0
    endloop
  endfacet
  facet normal 0 0 -1
    outer loop
      vertex 114.814 -6.99013 0
      vertex 112.688 -2.99408 0
      vertex 113.062 -2.94686 0
    endloop
  endfacet
  facet normal 0 0 -1
    outer loop
      vertex 114.814 -6.99013 0
      vertex 112.312 -2.99408 0
      vertex 112.688 -2.99408 0
    endloop
  endfacet
  facet normal 0 0 -1
    outer loop
      vertex 114.814 -6.99013 0
      vertex 111.938 -2.94686 0
      vertex 112.312 -2.99408 0
    endloop
  endfacet
  facet normal 0 0 -1
    outer loop
      vertex 114.814 -6.99013 0
      vertex 111.573 -2.85317 0
      vertex 111.938 -2.94686 0
    endloop
  endfacet
  facet normal 0 0 -1
    outer loop
      vertex 114.814 -6.99013 0
      vertex 111.223 -2.71448 0
      vertex 111.573 -2.85317 0
    endloop
  endfacet
  facet normal 0 0 -1
    outer loop
      vertex 114.814 -6.99013 0
      vertex 110.893 -2.53298 0
      vertex 111.223 -2.71448 0
    endloop
  endfacet
  facet normal 0 0 -1
    outer loop
      vertex 114.814 -6.99013 0
      vertex 110.588 -2.31154 0
      vertex 110.893 -2.53298 0
    endloop
  endfacet
  facet normal 0 0 -1
    outer loop
      vertex 114.814 -6.99013 0
      vertex 110.313 -2.05364 0
      vertex 110.588 -2.31154 0
    endloop
  endfacet
  facet normal 0 0 -1
    outer loop
      vertex 109.524 -0.375999 0
      vertex -109.5 0 0
      vertex 109.5 0 0
    endloop
  endfacet
  facet normal 0 0 -1
    outer loop
      vertex -109.524 -0.375999 0
      vertex 109.524 -0.375999 0
      vertex 109.594 -0.746069 0
    endloop
  endfacet
  facet normal 0 0 -1
    outer loop
      vertex -109.594 -0.746069 0
      vertex 109.594 -0.746069 0
      vertex 109.711 -1.10437 0
    endloop
  endfacet
  facet normal 0 0 -1
    outer loop
      vertex -109.711 -1.10437 0
      vertex 109.711 -1.10437 0
      vertex 109.871 -1.44526 0
    endloop
  endfacet
  facet normal 0 0 -1
    outer loop
      vertex -109.871 -1.44526 0
      vertex 109.871 -1.44526 0
      vertex 110.073 -1.76336 0
    endloop
  endfacet
  facet normal 0 0 -1
    outer loop
      vertex -110.073 -1.76336 0
      vertex 110.073 -1.76336 0
      vertex 110.313 -2.05364 0
    endloop
  endfacet
  facet normal 0 0 -1
    outer loop
      vertex -110.313 -2.05364 0
      vertex 110.313 -2.05364 0
      vertex 114.814 -6.99013 0
    endloop
  endfacet
  facet normal 0 0 -1
    outer loop
      vertex 109.524 -0.375999 0
      vertex -109.524 -0.375999 0
      vertex -109.5 0 0
    endloop
  endfacet
  facet normal 0 0 -1
    outer loop
      vertex 109.594 -0.746069 0
      vertex -109.594 -0.746069 0
      vertex -109.524 -0.375999 0
    endloop
  endfacet
  facet normal 0 0 -1
    outer loop
      vertex 109.711 -1.10437 0
      vertex -109.711 -1.10437 0
      vertex -109.594 -0.746069 0
    endloop
  endfacet
  facet normal 0 0 -1
    outer loop
      vertex 109.871 -1.44526 0
      vertex -109.871 -1.44526 0
      vertex -109.711 -1.10437 0
    endloop
  endfacet
  facet normal 0 0 -1
    outer loop
      vertex 110.073 -1.76336 0
      vertex -110.073 -1.76336 0
      vertex -109.871 -1.44526 0
    endloop
  endfacet
  facet normal 0 0 -1
    outer loop
      vertex 110.313 -2.05364 0
      vertex -110.313 -2.05364 0
      vertex -110.073 -1.76336 0
    endloop
  endfacet
  facet normal 0 0 -1
    outer loop
      vertex -114.814 -6.99013 0
      vertex -110.313 -2.05364 0
      vertex 114.814 -6.99013 0
    endloop
  endfacet
  facet normal 0 0 -1
    outer loop
      vertex -110.313 -2.05364 0
      vertex -114.814 -6.99013 0
      vertex -110.588 -2.31154 0
    endloop
  endfacet
  facet normal 0 0 -1
    outer loop
      vertex -110.588 -2.31154 0
      vertex -114.814 -6.99013 0
      vertex -110.893 -2.53298 0
    endloop
  endfacet
  facet normal 0 0 -1
    outer loop
      vertex -110.893 -2.53298 0
      vertex -114.814 -6.99013 0
      vertex -111.223 -2.71448 0
    endloop
  endfacet
  facet normal 0 0 -1
    outer loop
      vertex -111.223 -2.71448 0
      vertex -114.814 -6.99013 0
      vertex -111.573 -2.85317 0
    endloop
  endfacet
  facet normal 0 0 -1
    outer loop
      vertex -111.573 -2.85317 0
      vertex -114.814 -6.99013 0
      vertex -111.938 -2.94686 0
    endloop
  endfacet
  facet normal 0 0 -1
    outer loop
      vertex -111.938 -2.94686 0
      vertex -114.814 -6.99013 0
      vertex -112.312 -2.99408 0
    endloop
  endfacet
  facet normal -0 0 -1
    outer loop
      vertex -112.312 -2.99408 0
      vertex -114.814 -6.99013 0
      vertex -112.688 -2.99408 0
    endloop
  endfacet
  facet normal 0 0 -1
    outer loop
      vertex -114.814 -6.99013 0
      vertex -113.062 -2.94686 0
      vertex -112.688 -2.99408 0
    endloop
  endfacet
  facet normal 0 0 -1
    outer loop
      vertex -114.814 -6.99013 0
      vertex -113.427 -2.85317 0
      vertex -113.062 -2.94686 0
    endloop
  endfacet
  facet normal 0 0 -1
    outer loop
      vertex -114.814 -6.99013 0
      vertex -113.777 -2.71448 0
      vertex -113.427 -2.85317 0
    endloop
  endfacet
  facet normal 0 0 -1
    outer loop
      vertex -115.437 -6.91144 0
      vertex -113.777 -2.71448 0
      vertex -114.814 -6.99013 0
    endloop
  endfacet
  facet normal -0 0 -1
    outer loop
      vertex -113.777 -2.71448 0
      vertex -115.437 -6.91144 0
      vertex -114.107 -2.53298 0
    endloop
  endfacet
  facet normal 0 0 -1
    outer loop
      vertex -116.045 -6.75528 0
      vertex -114.107 -2.53298 0
      vertex -115.437 -6.91144 0
    endloop
  endfacet
  facet normal 0 0 -1
    outer loop
      vertex -116.629 -6.52413 0
      vertex -114.107 -2.53298 0
      vertex -116.045 -6.75528 0
    endloop
  endfacet
  facet normal -0 0 -1
    outer loop
      vertex -114.107 -2.53298 0
      vertex -116.629 -6.52413 0
      vertex -114.412 -2.31154 0
    endloop
  endfacet
  facet normal 0 0 -1
    outer loop
      vertex -117.179 -6.22164 0
      vertex -114.412 -2.31154 0
      vertex -116.629 -6.52413 0
    endloop
  endfacet
  facet normal 0 0 -1
    outer loop
      vertex -117.687 -5.85257 0
      vertex -114.412 -2.31154 0
      vertex -117.179 -6.22164 0
    endloop
  endfacet
  facet normal -0 0 -1
    outer loop
      vertex -114.412 -2.31154 0
      vertex -117.687 -5.85257 0
      vertex -114.687 -2.05364 0
    endloop
  endfacet
  facet normal 0 0 -1
    outer loop
      vertex -118.145 -5.42274 0
      vertex -114.687 -2.05364 0
      vertex -117.687 -5.85257 0
    endloop
  endfacet
  facet normal 0 0 -1
    outer loop
      vertex -118.545 -4.93893 0
      vertex -114.687 -2.05364 0
      vertex -118.145 -5.42274 0
    endloop
  endfacet
  facet normal -0 0 -1
    outer loop
      vertex -114.687 -2.05364 0
      vertex -118.545 -4.93893 0
      vertex -114.927 -1.76336 0
    endloop
  endfacet
  facet normal 0 0 -1
    outer loop
      vertex 114.687 2.05364 0
      vertex 118.545 4.93893 0
      vertex 114.927 1.76336 0
    endloop
  endfacet
  facet normal -0 0 -1
    outer loop
      vertex 118.545 4.93893 0
      vertex 114.687 2.05364 0
      vertex 118.145 5.42274 0
    endloop
  endfacet
  facet normal -0 0 -1
    outer loop
      vertex 118.145 5.42274 0
      vertex 114.687 2.05364 0
      vertex 117.687 5.85257 0
    endloop
  endfacet
  facet normal 0 0 -1
    outer loop
      vertex 114.412 2.31154 0
      vertex 117.687 5.85257 0
      vertex 114.687 2.05364 0
    endloop
  endfacet
  facet normal -0 0 -1
    outer loop
      vertex 117.687 5.85257 0
      vertex 114.412 2.31154 0
      vertex 117.179 6.22164 0
    endloop
  endfacet
  facet normal -0 0 -1
    outer loop
      vertex 117.179 6.22164 0
      vertex 114.412 2.31154 0
      vertex 116.629 6.52413 0
    endloop
  endfacet
  facet normal 0 0 -1
    outer loop
      vertex 114.107 2.53298 0
      vertex 116.629 6.52413 0
      vertex 114.412 2.31154 0
    endloop
  endfacet
  facet normal -0 0 -1
    outer loop
      vertex 116.629 6.52413 0
      vertex 114.107 2.53298 0
      vertex 116.045 6.75528 0
    endloop
  endfacet
  facet normal -0 0 -1
    outer loop
      vertex 116.045 6.75528 0
      vertex 114.107 2.53298 0
      vertex 115.437 6.91144 0
    endloop
  endfacet
  facet normal 0 0 -1
    outer loop
      vertex 113.777 2.71448 0
      vertex 115.437 6.91144 0
      vertex 114.107 2.53298 0
    endloop
  endfacet
  facet normal -0 0 -1
    outer loop
      vertex 115.437 6.91144 0
      vertex 113.777 2.71448 0
      vertex 114.814 6.99013 0
    endloop
  endfacet
  facet normal 0 0 -1
    outer loop
      vertex 113.427 2.85317 0
      vertex 114.814 6.99013 0
      vertex 113.777 2.71448 0
    endloop
  endfacet
  facet normal 0 0 -1
    outer loop
      vertex 113.062 2.94686 0
      vertex 114.814 6.99013 0
      vertex 113.427 2.85317 0
    endloop
  endfacet
  facet normal 0 0 -1
    outer loop
      vertex 112.688 2.99408 0
      vertex 114.814 6.99013 0
      vertex 113.062 2.94686 0
    endloop
  endfacet
  facet normal 0 0 -1
    outer loop
      vertex 112.312 2.99408 0
      vertex 114.814 6.99013 0
      vertex 112.688 2.99408 0
    endloop
  endfacet
  facet normal 0 0 -1
    outer loop
      vertex 111.938 2.94686 0
      vertex 114.814 6.99013 0
      vertex 112.312 2.99408 0
    endloop
  endfacet
  facet normal 0 0 -1
    outer loop
      vertex 111.573 2.85317 0
      vertex 114.814 6.99013 0
      vertex 111.938 2.94686 0
    endloop
  endfacet
  facet normal 0 0 -1
    outer loop
      vertex 111.223 2.71448 0
      vertex 114.814 6.99013 0
      vertex 111.573 2.85317 0
    endloop
  endfacet
  facet normal 0 0 -1
    outer loop
      vertex 110.893 2.53298 0
      vertex 114.814 6.99013 0
      vertex 111.223 2.71448 0
    endloop
  endfacet
  facet normal 0 0 -1
    outer loop
      vertex 110.588 2.31154 0
      vertex 114.814 6.99013 0
      vertex 110.893 2.53298 0
    endloop
  endfacet
  facet normal 0 0 -1
    outer loop
      vertex 110.313 2.05364 0
      vertex 114.814 6.99013 0
      vertex 110.588 2.31154 0
    endloop
  endfacet
  facet normal 0 0 -1
    outer loop
      vertex -109.5 0 0
      vertex 109.524 0.375999 0
      vertex 109.5 0 0
    endloop
  endfacet
  facet normal 0 0 -1
    outer loop
      vertex -109.524 0.375999 0
      vertex 109.524 0.375999 0
      vertex -109.5 0 0
    endloop
  endfacet
  facet normal 0 0 -1
    outer loop
      vertex 109.524 0.375999 0
      vertex -109.524 0.375999 0
      vertex 109.594 0.746069 0
    endloop
  endfacet
  facet normal 0 0 -1
    outer loop
      vertex -109.594 0.746069 0
      vertex 109.594 0.746069 0
      vertex -109.524 0.375999 0
    endloop
  endfacet
  facet normal 0 0 -1
    outer loop
      vertex 109.594 0.746069 0
      vertex -109.594 0.746069 0
      vertex 109.711 1.10437 0
    endloop
  endfacet
  facet normal 0 0 -1
    outer loop
      vertex -109.711 1.10437 0
      vertex 109.711 1.10437 0
      vertex -109.594 0.746069 0
    endloop
  endfacet
  facet normal 0 0 -1
    outer loop
      vertex 109.711 1.10437 0
      vertex -109.711 1.10437 0
      vertex 109.871 1.44526 0
    endloop
  endfacet
  facet normal 0 0 -1
    outer loop
      vertex -109.871 1.44526 0
      vertex 109.871 1.44526 0
      vertex -109.711 1.10437 0
    endloop
  endfacet
  facet normal 0 0 -1
    outer loop
      vertex 109.871 1.44526 0
      vertex -109.871 1.44526 0
      vertex 110.073 1.76336 0
    endloop
  endfacet
  facet normal 0 0 -1
    outer loop
      vertex -110.073 1.76336 0
      vertex 110.073 1.76336 0
      vertex -109.871 1.44526 0
    endloop
  endfacet
  facet normal 0 0 -1
    outer loop
      vertex 110.073 1.76336 0
      vertex -110.073 1.76336 0
      vertex 110.313 2.05364 0
    endloop
  endfacet
  facet normal 0 0 -1
    outer loop
      vertex -110.313 2.05364 0
      vertex 110.313 2.05364 0
      vertex -110.073 1.76336 0
    endloop
  endfacet
  facet normal 0 0 -1
    outer loop
      vertex 110.313 2.05364 0
      vertex -110.313 2.05364 0
      vertex 114.814 6.99013 0
    endloop
  endfacet
  facet normal 0 0 -1
    outer loop
      vertex -114.814 6.99013 0
      vertex -110.313 2.05364 0
      vertex -110.588 2.31154 0
    endloop
  endfacet
  facet normal 0 0 -1
    outer loop
      vertex -114.814 6.99013 0
      vertex -110.588 2.31154 0
      vertex -110.893 2.53298 0
    endloop
  endfacet
  facet normal 0 0 -1
    outer loop
      vertex -114.814 6.99013 0
      vertex -110.893 2.53298 0
      vertex -111.223 2.71448 0
    endloop
  endfacet
  facet normal 0 0 -1
    outer loop
      vertex -114.814 6.99013 0
      vertex -111.223 2.71448 0
      vertex -111.573 2.85317 0
    endloop
  endfacet
  facet normal 0 0 -1
    outer loop
      vertex -114.814 6.99013 0
      vertex -111.573 2.85317 0
      vertex -111.938 2.94686 0
    endloop
  endfacet
  facet normal 0 0 -1
    outer loop
      vertex -114.814 6.99013 0
      vertex -111.938 2.94686 0
      vertex -112.312 2.99408 0
    endloop
  endfacet
  facet normal 0 0 -1
    outer loop
      vertex -114.814 6.99013 0
      vertex -112.312 2.99408 0
      vertex -112.688 2.99408 0
    endloop
  endfacet
  facet normal 0 0 -1
    outer loop
      vertex -110.313 2.05364 0
      vertex -114.814 6.99013 0
      vertex 114.814 6.99013 0
    endloop
  endfacet
  facet normal 0 0 -1
    outer loop
      vertex -113.062 2.94686 0
      vertex -114.814 6.99013 0
      vertex -112.688 2.99408 0
    endloop
  endfacet
  facet normal 0 0 -1
    outer loop
      vertex -113.427 2.85317 0
      vertex -114.814 6.99013 0
      vertex -113.062 2.94686 0
    endloop
  endfacet
  facet normal 0 0 -1
    outer loop
      vertex -113.777 2.71448 0
      vertex -114.814 6.99013 0
      vertex -113.427 2.85317 0
    endloop
  endfacet
  facet normal 0 0 -1
    outer loop
      vertex -115.437 6.91144 0
      vertex -113.777 2.71448 0
      vertex -114.107 2.53298 0
    endloop
  endfacet
  facet normal 0 0 -1
    outer loop
      vertex -116.629 6.52413 0
      vertex -114.107 2.53298 0
      vertex -114.412 2.31154 0
    endloop
  endfacet
  facet normal 0 0 -1
    outer loop
      vertex -117.687 5.85257 0
      vertex -114.412 2.31154 0
      vertex -114.687 2.05364 0
    endloop
  endfacet
  facet normal 0 0 -1
    outer loop
      vertex -118.545 4.93893 0
      vertex -114.687 2.05364 0
      vertex -114.927 1.76336 0
    endloop
  endfacet
  facet normal 0 0 -1
    outer loop
      vertex -119.149 3.84062 0
      vertex -114.927 1.76336 0
      vertex -115.129 1.44526 0
    endloop
  endfacet
  facet normal 0 0 -1
    outer loop
      vertex -119.461 2.62667 0
      vertex -115.129 1.44526 0
      vertex -115.289 1.10437 0
    endloop
  endfacet
  facet normal 0 0 -1
    outer loop
      vertex -119.5 2 0
      vertex -115.289 1.10437 0
      vertex -115.406 0.746069 0
    endloop
  endfacet
  facet normal 0 0 -1
    outer loop
      vertex -113.777 2.71448 0
      vertex -115.437 6.91144 0
      vertex -114.814 6.99013 0
    endloop
  endfacet
  facet normal 0 0 -1
    outer loop
      vertex -119.5 2 0
      vertex -115.406 0.746069 0
      vertex -115.476 0.375999 0
    endloop
  endfacet
  facet normal 0 0 -1
    outer loop
      vertex -119.5 2 0
      vertex -115.476 0.375999 0
      vertex -115.5 0 0
    endloop
  endfacet
  facet normal 0 0 -1
    outer loop
      vertex -118.882 -4.40877 0
      vertex -114.927 -1.76336 0
      vertex -118.545 -4.93893 0
    endloop
  endfacet
  facet normal 0 0 -1
    outer loop
      vertex -119.5 2 0
      vertex -115.5 0 0
      vertex -119.5 -2 0
    endloop
  endfacet
  facet normal 0 0 -1
    outer loop
      vertex -119.149 -3.84062 0
      vertex -114.927 -1.76336 0
      vertex -118.882 -4.40877 0
    endloop
  endfacet
  facet normal 0 0 -1
    outer loop
      vertex -115.289 1.10437 0
      vertex -119.5 2 0
      vertex -119.461 2.62667 0
    endloop
  endfacet
  facet normal -0 0 -1
    outer loop
      vertex -114.927 -1.76336 0
      vertex -119.149 -3.84062 0
      vertex -115.129 -1.44526 0
    endloop
  endfacet
  facet normal 0 0 -1
    outer loop
      vertex -114.107 2.53298 0
      vertex -116.045 6.75528 0
      vertex -115.437 6.91144 0
    endloop
  endfacet
  facet normal 0 0 -1
    outer loop
      vertex -119.343 -3.24345 0
      vertex -115.129 -1.44526 0
      vertex -119.149 -3.84062 0
    endloop
  endfacet
  facet normal 0 0 -1
    outer loop
      vertex -114.107 2.53298 0
      vertex -116.629 6.52413 0
      vertex -116.045 6.75528 0
    endloop
  endfacet
  facet normal 0 0 -1
    outer loop
      vertex -119.461 -2.62667 0
      vertex -115.129 -1.44526 0
      vertex -119.343 -3.24345 0
    endloop
  endfacet
  facet normal 0 0 -1
    outer loop
      vertex -114.412 2.31154 0
      vertex -117.179 6.22164 0
      vertex -116.629 6.52413 0
    endloop
  endfacet
  facet normal -0 0 -1
    outer loop
      vertex -115.129 -1.44526 0
      vertex -119.461 -2.62667 0
      vertex -115.289 -1.10437 0
    endloop
  endfacet
  facet normal 0 0 -1
    outer loop
      vertex -114.412 2.31154 0
      vertex -117.687 5.85257 0
      vertex -117.179 6.22164 0
    endloop
  endfacet
  facet normal 0 0 -1
    outer loop
      vertex -119.5 -2 0
      vertex -115.289 -1.10437 0
      vertex -119.461 -2.62667 0
    endloop
  endfacet
  facet normal 0 0 -1
    outer loop
      vertex -114.687 2.05364 0
      vertex -118.145 5.42274 0
      vertex -117.687 5.85257 0
    endloop
  endfacet
  facet normal -0 0 -1
    outer loop
      vertex -115.289 -1.10437 0
      vertex -119.5 -2 0
      vertex -115.406 -0.746069 0
    endloop
  endfacet
  facet normal 0 0 -1
    outer loop
      vertex -114.687 2.05364 0
      vertex -118.545 4.93893 0
      vertex -118.145 5.42274 0
    endloop
  endfacet
  facet normal -0 0 -1
    outer loop
      vertex -115.406 -0.746069 0
      vertex -119.5 -2 0
      vertex -115.476 -0.375999 0
    endloop
  endfacet
  facet normal 0 0 -1
    outer loop
      vertex -114.927 1.76336 0
      vertex -118.882 4.40877 0
      vertex -118.545 4.93893 0
    endloop
  endfacet
  facet normal -0 0 -1
    outer loop
      vertex -115.476 -0.375999 0
      vertex -119.5 -2 0
      vertex -115.5 0 0
    endloop
  endfacet
  facet normal 0 0 -1
    outer loop
      vertex -114.927 1.76336 0
      vertex -119.149 3.84062 0
      vertex -118.882 4.40877 0
    endloop
  endfacet
  facet normal 0 0 -1
    outer loop
      vertex -115.129 1.44526 0
      vertex -119.343 3.24345 0
      vertex -119.149 3.84062 0
    endloop
  endfacet
  facet normal 0 0 -1
    outer loop
      vertex -115.129 1.44526 0
      vertex -119.461 2.62667 0
      vertex -119.343 3.24345 0
    endloop
  endfacet
  facet normal -0.905247 0.424886 0
    outer loop
      vertex -109.871 -1.44526 0
      vertex -109.711 -1.10437 3
      vertex -109.711 -1.10437 0
    endloop
  endfacet
  facet normal -0.905247 0.424886 0
    outer loop
      vertex -109.711 -1.10437 3
      vertex -109.871 -1.44526 0
      vertex -109.871 -1.44526 3
    endloop
  endfacet
  facet normal -0.770696 0.637202 0
    outer loop
      vertex -110.313 -2.05364 0
      vertex -110.073 -1.76336 3
      vertex -110.073 -1.76336 0
    endloop
  endfacet
  facet normal -0.770696 0.637202 0
    outer loop
      vertex -110.073 -1.76336 3
      vertex -110.313 -2.05364 0
      vertex -110.313 -2.05364 3
    endloop
  endfacet
  facet normal 0.684065 0.729421 -0
    outer loop
      vertex -114.412 -2.31154 0
      vertex -114.687 -2.05364 3
      vertex -114.412 -2.31154 3
    endloop
  endfacet
  facet normal 0.684065 0.729421 0
    outer loop
      vertex -114.687 -2.05364 3
      vertex -114.412 -2.31154 0
      vertex -114.687 -2.05364 0
    endloop
  endfacet
  facet normal 0.844175 0.536068 0
    outer loop
      vertex -114.927 -1.76336 3
      vertex -115.129 -1.44526 0
      vertex -115.129 -1.44526 3
    endloop
  endfacet
  facet normal 0.844175 0.536068 0
    outer loop
      vertex -115.129 -1.44526 0
      vertex -114.927 -1.76336 3
      vertex -114.927 -1.76336 0
    endloop
  endfacet
  facet normal 0.950603 0.310411 0
    outer loop
      vertex -115.289 -1.10437 3
      vertex -115.406 -0.746069 0
      vertex -115.406 -0.746069 3
    endloop
  endfacet
  facet normal 0.950603 0.310411 0
    outer loop
      vertex -115.406 -0.746069 0
      vertex -115.289 -1.10437 3
      vertex -115.289 -1.10437 0
    endloop
  endfacet
  facet normal -0.248625 0.9686 0
    outer loop
      vertex -111.573 -2.85317 0
      vertex -111.938 -2.94686 3
      vertex -111.573 -2.85317 3
    endloop
  endfacet
  facet normal -0.248625 0.9686 0
    outer loop
      vertex -111.938 -2.94686 3
      vertex -111.573 -2.85317 0
      vertex -111.938 -2.94686 0
    endloop
  endfacet
  facet normal -0.125262 0.992124 0
    outer loop
      vertex -111.938 -2.94686 0
      vertex -112.312 -2.99408 3
      vertex -111.938 -2.94686 3
    endloop
  endfacet
  facet normal -0.125262 0.992124 0
    outer loop
      vertex -112.312 -2.99408 3
      vertex -111.938 -2.94686 0
      vertex -112.312 -2.99408 0
    endloop
  endfacet
  facet normal -0.587515 0.809213 0
    outer loop
      vertex -110.588 -2.31154 0
      vertex -110.893 -2.53298 3
      vertex -110.588 -2.31154 3
    endloop
  endfacet
  facet normal -0.587515 0.809213 0
    outer loop
      vertex -110.893 -2.53298 3
      vertex -110.588 -2.31154 0
      vertex -110.893 -2.53298 0
    endloop
  endfacet
  facet normal -0.950603 0.310411 0
    outer loop
      vertex -109.711 -1.10437 0
      vertex -109.594 -0.746069 3
      vertex -109.594 -0.746069 0
    endloop
  endfacet
  facet normal -0.950603 0.310411 0
    outer loop
      vertex -109.594 -0.746069 3
      vertex -109.711 -1.10437 0
      vertex -109.711 -1.10437 3
    endloop
  endfacet
  facet normal -0.844175 0.536068 0
    outer loop
      vertex -110.073 -1.76336 0
      vertex -109.871 -1.44526 3
      vertex -109.871 -1.44526 0
    endloop
  endfacet
  facet normal -0.844175 0.536068 0
    outer loop
      vertex -109.871 -1.44526 3
      vertex -110.073 -1.76336 0
      vertex -110.073 -1.76336 3
    endloop
  endfacet
  facet normal 0.587515 0.809213 -0
    outer loop
      vertex -114.107 -2.53298 0
      vertex -114.412 -2.31154 3
      vertex -114.107 -2.53298 3
    endloop
  endfacet
  facet normal 0.587515 0.809213 0
    outer loop
      vertex -114.412 -2.31154 3
      vertex -114.107 -2.53298 0
      vertex -114.412 -2.31154 0
    endloop
  endfacet
  facet normal 0.248625 0.9686 -0
    outer loop
      vertex -113.062 -2.94686 0
      vertex -113.427 -2.85317 3
      vertex -113.062 -2.94686 3
    endloop
  endfacet
  facet normal 0.248625 0.9686 0
    outer loop
      vertex -113.427 -2.85317 3
      vertex -113.062 -2.94686 0
      vertex -113.427 -2.85317 0
    endloop
  endfacet
  facet normal 0.770696 0.637202 0
    outer loop
      vertex -114.687 -2.05364 3
      vertex -114.927 -1.76336 0
      vertex -114.927 -1.76336 3
    endloop
  endfacet
  facet normal 0.770696 0.637202 0
    outer loop
      vertex -114.927 -1.76336 0
      vertex -114.687 -2.05364 3
      vertex -114.687 -2.05364 0
    endloop
  endfacet
  facet normal 0.905247 0.424886 0
    outer loop
      vertex -115.129 -1.44526 3
      vertex -115.289 -1.10437 0
      vertex -115.289 -1.10437 3
    endloop
  endfacet
  facet normal 0.905247 0.424886 0
    outer loop
      vertex -115.289 -1.10437 0
      vertex -115.129 -1.44526 3
      vertex -115.129 -1.44526 0
    endloop
  endfacet
  facet normal 0.982577 0.185858 0
    outer loop
      vertex -115.406 -0.746069 3
      vertex -115.476 -0.375999 0
      vertex -115.476 -0.375999 3
    endloop
  endfacet
  facet normal 0.982577 0.185858 0
    outer loop
      vertex -115.476 -0.375999 0
      vertex -115.406 -0.746069 3
      vertex -115.406 -0.746069 0
    endloop
  endfacet
  facet normal 0.997969 0.0637003 0
    outer loop
      vertex -115.476 -0.375999 3
      vertex -115.5 0 0
      vertex -115.5 0 3
    endloop
  endfacet
  facet normal 0.997969 0.0637003 0
    outer loop
      vertex -115.5 0 0
      vertex -115.476 -0.375999 3
      vertex -115.476 -0.375999 0
    endloop
  endfacet
  facet normal 0.368389 0.929672 -0
    outer loop
      vertex -113.427 -2.85317 0
      vertex -113.777 -2.71448 3
      vertex -113.427 -2.85317 3
    endloop
  endfacet
  facet normal 0.368389 0.929672 0
    outer loop
      vertex -113.777 -2.71448 3
      vertex -113.427 -2.85317 0
      vertex -113.777 -2.71448 0
    endloop
  endfacet
  facet normal 0.481919 0.876216 -0
    outer loop
      vertex -113.777 -2.71448 0
      vertex -114.107 -2.53298 3
      vertex -113.777 -2.71448 3
    endloop
  endfacet
  facet normal 0.481919 0.876216 0
    outer loop
      vertex -114.107 -2.53298 3
      vertex -113.777 -2.71448 0
      vertex -114.107 -2.53298 0
    endloop
  endfacet
  facet normal 0.125262 0.992124 -0
    outer loop
      vertex -112.688 -2.99408 0
      vertex -113.062 -2.94686 3
      vertex -112.688 -2.99408 3
    endloop
  endfacet
  facet normal 0.125262 0.992124 0
    outer loop
      vertex -113.062 -2.94686 3
      vertex -112.688 -2.99408 0
      vertex -113.062 -2.94686 0
    endloop
  endfacet
  facet normal -0.997969 -0.0637003 0
    outer loop
      vertex 115.5 0 0
      vertex 115.476 0.375999 3
      vertex 115.476 0.375999 0
    endloop
  endfacet
  facet normal -0.997969 -0.0637003 0
    outer loop
      vertex 115.476 0.375999 3
      vertex 115.5 0 0
      vertex 115.5 0 3
    endloop
  endfacet
  facet normal 0.125262 -0.992124 0
    outer loop
      vertex 111.938 2.94686 0
      vertex 112.312 2.99408 3
      vertex 111.938 2.94686 3
    endloop
  endfacet
  facet normal 0.125262 -0.992124 0
    outer loop
      vertex 112.312 2.99408 3
      vertex 111.938 2.94686 0
      vertex 112.312 2.99408 0
    endloop
  endfacet
  facet normal -0.125262 0.992124 0
    outer loop
      vertex 113.062 -2.94686 0
      vertex 112.688 -2.99408 3
      vertex 113.062 -2.94686 3
    endloop
  endfacet
  facet normal -0.125262 0.992124 0
    outer loop
      vertex 112.688 -2.99408 3
      vertex 113.062 -2.94686 0
      vertex 112.688 -2.99408 0
    endloop
  endfacet
  facet normal -0.770696 0.637202 0
    outer loop
      vertex 114.687 -2.05364 0
      vertex 114.927 -1.76336 3
      vertex 114.927 -1.76336 0
    endloop
  endfacet
  facet normal -0.770696 0.637202 0
    outer loop
      vertex 114.927 -1.76336 3
      vertex 114.687 -2.05364 0
      vertex 114.687 -2.05364 3
    endloop
  endfacet
  facet normal -0.684065 -0.729421 0
    outer loop
      vertex 114.412 2.31154 0
      vertex 114.687 2.05364 3
      vertex 114.412 2.31154 3
    endloop
  endfacet
  facet normal -0.684065 -0.729421 -0
    outer loop
      vertex 114.687 2.05364 3
      vertex 114.412 2.31154 0
      vertex 114.687 2.05364 0
    endloop
  endfacet
  facet normal 0.770696 -0.637202 0
    outer loop
      vertex 110.073 1.76336 3
      vertex 110.313 2.05364 0
      vertex 110.313 2.05364 3
    endloop
  endfacet
  facet normal 0.770696 -0.637202 0
    outer loop
      vertex 110.313 2.05364 0
      vertex 110.073 1.76336 3
      vertex 110.073 1.76336 0
    endloop
  endfacet
  facet normal 0.481919 -0.876216 0
    outer loop
      vertex 110.893 2.53298 0
      vertex 111.223 2.71448 3
      vertex 110.893 2.53298 3
    endloop
  endfacet
  facet normal 0.481919 -0.876216 0
    outer loop
      vertex 111.223 2.71448 3
      vertex 110.893 2.53298 0
      vertex 111.223 2.71448 0
    endloop
  endfacet
  facet normal -0.950603 0.310411 0
    outer loop
      vertex 115.289 -1.10437 0
      vertex 115.406 -0.746069 3
      vertex 115.406 -0.746069 0
    endloop
  endfacet
  facet normal -0.950603 0.310411 0
    outer loop
      vertex 115.406 -0.746069 3
      vertex 115.289 -1.10437 0
      vertex 115.289 -1.10437 3
    endloop
  endfacet
  facet normal -0.905247 -0.424886 0
    outer loop
      vertex 115.289 1.10437 0
      vertex 115.129 1.44526 3
      vertex 115.129 1.44526 0
    endloop
  endfacet
  facet normal -0.905247 -0.424886 0
    outer loop
      vertex 115.129 1.44526 3
      vertex 115.289 1.10437 0
      vertex 115.289 1.10437 3
    endloop
  endfacet
  facet normal -0.982577 -0.185858 0
    outer loop
      vertex 115.476 0.375999 0
      vertex 115.406 0.746069 3
      vertex 115.406 0.746069 0
    endloop
  endfacet
  facet normal -0.982577 -0.185858 0
    outer loop
      vertex 115.406 0.746069 3
      vertex 115.476 0.375999 0
      vertex 115.476 0.375999 3
    endloop
  endfacet
  facet normal -0.368389 -0.929672 0
    outer loop
      vertex 113.427 2.85317 0
      vertex 113.777 2.71448 3
      vertex 113.427 2.85317 3
    endloop
  endfacet
  facet normal -0.368389 -0.929672 -0
    outer loop
      vertex 113.777 2.71448 3
      vertex 113.427 2.85317 0
      vertex 113.777 2.71448 0
    endloop
  endfacet
  facet normal -0.587515 -0.809213 0
    outer loop
      vertex 114.107 2.53298 0
      vertex 114.412 2.31154 3
      vertex 114.107 2.53298 3
    endloop
  endfacet
  facet normal -0.587515 -0.809213 -0
    outer loop
      vertex 114.412 2.31154 3
      vertex 114.107 2.53298 0
      vertex 114.412 2.31154 0
    endloop
  endfacet
  facet normal 0.950603 -0.310411 0
    outer loop
      vertex 109.594 0.746069 3
      vertex 109.711 1.10437 0
      vertex 109.711 1.10437 3
    endloop
  endfacet
  facet normal 0.950603 -0.310411 0
    outer loop
      vertex 109.711 1.10437 0
      vertex 109.594 0.746069 3
      vertex 109.594 0.746069 0
    endloop
  endfacet
  facet normal 0.844175 -0.536068 0
    outer loop
      vertex 109.871 1.44526 3
      vertex 110.073 1.76336 0
      vertex 110.073 1.76336 3
    endloop
  endfacet
  facet normal 0.844175 -0.536068 0
    outer loop
      vertex 110.073 1.76336 0
      vertex 109.871 1.44526 3
      vertex 109.871 1.44526 0
    endloop
  endfacet
  facet normal 0.587515 -0.809213 0
    outer loop
      vertex 110.588 2.31154 0
      vertex 110.893 2.53298 3
      vertex 110.588 2.31154 3
    endloop
  endfacet
  facet normal 0.587515 -0.809213 0
    outer loop
      vertex 110.893 2.53298 3
      vertex 110.588 2.31154 0
      vertex 110.893 2.53298 0
    endloop
  endfacet
  facet normal 0.248625 -0.9686 0
    outer loop
      vertex 111.573 2.85317 0
      vertex 111.938 2.94686 3
      vertex 111.573 2.85317 3
    endloop
  endfacet
  facet normal 0.248625 -0.9686 0
    outer loop
      vertex 111.938 2.94686 3
      vertex 111.573 2.85317 0
      vertex 111.938 2.94686 0
    endloop
  endfacet
  facet normal -0.248625 0.9686 0
    outer loop
      vertex 113.427 -2.85317 0
      vertex 113.062 -2.94686 3
      vertex 113.427 -2.85317 3
    endloop
  endfacet
  facet normal -0.248625 0.9686 0
    outer loop
      vertex 113.062 -2.94686 3
      vertex 113.427 -2.85317 0
      vertex 113.062 -2.94686 0
    endloop
  endfacet
  facet normal -0.481919 0.876216 0
    outer loop
      vertex 114.107 -2.53298 0
      vertex 113.777 -2.71448 3
      vertex 114.107 -2.53298 3
    endloop
  endfacet
  facet normal -0.481919 0.876216 0
    outer loop
      vertex 113.777 -2.71448 3
      vertex 114.107 -2.53298 0
      vertex 113.777 -2.71448 0
    endloop
  endfacet
  facet normal -0.950603 -0.310411 0
    outer loop
      vertex 115.406 0.746069 0
      vertex 115.289 1.10437 3
      vertex 115.289 1.10437 0
    endloop
  endfacet
  facet normal -0.950603 -0.310411 0
    outer loop
      vertex 115.289 1.10437 3
      vertex 115.406 0.746069 0
      vertex 115.406 0.746069 3
    endloop
  endfacet
  facet normal -0.770696 -0.637202 0
    outer loop
      vertex 114.927 1.76336 0
      vertex 114.687 2.05364 3
      vertex 114.687 2.05364 0
    endloop
  endfacet
  facet normal -0.770696 -0.637202 0
    outer loop
      vertex 114.687 2.05364 3
      vertex 114.927 1.76336 0
      vertex 114.927 1.76336 3
    endloop
  endfacet
  facet normal -0.844175 -0.536068 0
    outer loop
      vertex 115.129 1.44526 0
      vertex 114.927 1.76336 3
      vertex 114.927 1.76336 0
    endloop
  endfacet
  facet normal -0.844175 -0.536068 0
    outer loop
      vertex 114.927 1.76336 3
      vertex 115.129 1.44526 0
      vertex 115.129 1.44526 3
    endloop
  endfacet
  facet normal -0.125262 -0.992124 0
    outer loop
      vertex 112.688 2.99408 0
      vertex 113.062 2.94686 3
      vertex 112.688 2.99408 3
    endloop
  endfacet
  facet normal -0.125262 -0.992124 -0
    outer loop
      vertex 113.062 2.94686 3
      vertex 112.688 2.99408 0
      vertex 113.062 2.94686 0
    endloop
  endfacet
  facet normal -0.248625 -0.9686 0
    outer loop
      vertex 113.062 2.94686 0
      vertex 113.427 2.85317 3
      vertex 113.062 2.94686 3
    endloop
  endfacet
  facet normal -0.248625 -0.9686 -0
    outer loop
      vertex 113.427 2.85317 3
      vertex 113.062 2.94686 0
      vertex 113.427 2.85317 0
    endloop
  endfacet
  facet normal 0 -1 0
    outer loop
      vertex 112.312 2.99408 0
      vertex 112.688 2.99408 3
      vertex 112.312 2.99408 3
    endloop
  endfacet
  facet normal 0 -1 -0
    outer loop
      vertex 112.688 2.99408 3
      vertex 112.312 2.99408 0
      vertex 112.688 2.99408 0
    endloop
  endfacet
  facet normal -0.481919 -0.876216 0
    outer loop
      vertex 113.777 2.71448 0
      vertex 114.107 2.53298 3
      vertex 113.777 2.71448 3
    endloop
  endfacet
  facet normal -0.481919 -0.876216 -0
    outer loop
      vertex 114.107 2.53298 3
      vertex 113.777 2.71448 0
      vertex 114.107 2.53298 0
    endloop
  endfacet
  facet normal 0.905247 -0.424886 0
    outer loop
      vertex 109.711 1.10437 3
      vertex 109.871 1.44526 0
      vertex 109.871 1.44526 3
    endloop
  endfacet
  facet normal 0.905247 -0.424886 0
    outer loop
      vertex 109.871 1.44526 0
      vertex 109.711 1.10437 3
      vertex 109.711 1.10437 0
    endloop
  endfacet
  facet normal 0.982577 -0.185858 0
    outer loop
      vertex 109.524 0.375999 3
      vertex 109.594 0.746069 0
      vertex 109.594 0.746069 3
    endloop
  endfacet
  facet normal 0.982577 -0.185858 0
    outer loop
      vertex 109.594 0.746069 0
      vertex 109.524 0.375999 3
      vertex 109.524 0.375999 0
    endloop
  endfacet
  facet normal 0.997969 -0.0637003 0
    outer loop
      vertex 109.5 0 3
      vertex 109.524 0.375999 0
      vertex 109.524 0.375999 3
    endloop
  endfacet
  facet normal 0.997969 -0.0637003 0
    outer loop
      vertex 109.524 0.375999 0
      vertex 109.5 0 3
      vertex 109.5 0 0
    endloop
  endfacet
  facet normal 0.997969 0.0637003 0
    outer loop
      vertex 109.524 -0.375999 3
      vertex 109.5 0 0
      vertex 109.5 0 3
    endloop
  endfacet
  facet normal 0.997969 0.0637003 0
    outer loop
      vertex 109.5 0 0
      vertex 109.524 -0.375999 3
      vertex 109.524 -0.375999 0
    endloop
  endfacet
  facet normal 0.684065 -0.729421 0
    outer loop
      vertex 110.313 2.05364 0
      vertex 110.588 2.31154 3
      vertex 110.313 2.05364 3
    endloop
  endfacet
  facet normal 0.684065 -0.729421 0
    outer loop
      vertex 110.588 2.31154 3
      vertex 110.313 2.05364 0
      vertex 110.588 2.31154 0
    endloop
  endfacet
  facet normal 0.368389 -0.929672 0
    outer loop
      vertex 111.223 2.71448 0
      vertex 111.573 2.85317 3
      vertex 111.223 2.71448 3
    endloop
  endfacet
  facet normal 0.368389 -0.929672 0
    outer loop
      vertex 111.573 2.85317 3
      vertex 111.223 2.71448 0
      vertex 111.573 2.85317 0
    endloop
  endfacet
  facet normal -0.997969 0.0637003 0
    outer loop
      vertex 115.476 -0.375999 0
      vertex 115.5 0 3
      vertex 115.5 0 0
    endloop
  endfacet
  facet normal -0.997969 0.0637003 0
    outer loop
      vertex 115.5 0 3
      vertex 115.476 -0.375999 0
      vertex 115.476 -0.375999 3
    endloop
  endfacet
  facet normal -0.844175 0.536068 0
    outer loop
      vertex 114.927 -1.76336 0
      vertex 115.129 -1.44526 3
      vertex 115.129 -1.44526 0
    endloop
  endfacet
  facet normal -0.844175 0.536068 0
    outer loop
      vertex 115.129 -1.44526 3
      vertex 114.927 -1.76336 0
      vertex 114.927 -1.76336 3
    endloop
  endfacet
  facet normal -0.982577 0.185858 0
    outer loop
      vertex 115.406 -0.746069 0
      vertex 115.476 -0.375999 3
      vertex 115.476 -0.375999 0
    endloop
  endfacet
  facet normal -0.982577 0.185858 0
    outer loop
      vertex 115.476 -0.375999 3
      vertex 115.406 -0.746069 0
      vertex 115.406 -0.746069 3
    endloop
  endfacet
  facet normal 0.587515 0.809213 -0
    outer loop
      vertex 110.893 -2.53298 0
      vertex 110.588 -2.31154 3
      vertex 110.893 -2.53298 3
    endloop
  endfacet
  facet normal 0.587515 0.809213 0
    outer loop
      vertex 110.588 -2.31154 3
      vertex 110.893 -2.53298 0
      vertex 110.588 -2.31154 0
    endloop
  endfacet
  facet normal 0.844175 0.536068 0
    outer loop
      vertex 110.073 -1.76336 3
      vertex 109.871 -1.44526 0
      vertex 109.871 -1.44526 3
    endloop
  endfacet
  facet normal 0.844175 0.536068 0
    outer loop
      vertex 109.871 -1.44526 0
      vertex 110.073 -1.76336 3
      vertex 110.073 -1.76336 0
    endloop
  endfacet
  facet normal 0.684065 0.729421 -0
    outer loop
      vertex 110.588 -2.31154 0
      vertex 110.313 -2.05364 3
      vertex 110.588 -2.31154 3
    endloop
  endfacet
  facet normal 0.684065 0.729421 0
    outer loop
      vertex 110.313 -2.05364 3
      vertex 110.588 -2.31154 0
      vertex 110.313 -2.05364 0
    endloop
  endfacet
  facet normal 0.982577 0.185858 0
    outer loop
      vertex 109.594 -0.746069 3
      vertex 109.524 -0.375999 0
      vertex 109.524 -0.375999 3
    endloop
  endfacet
  facet normal 0.982577 0.185858 0
    outer loop
      vertex 109.524 -0.375999 0
      vertex 109.594 -0.746069 3
      vertex 109.594 -0.746069 0
    endloop
  endfacet
  facet normal -0.587515 0.809213 0
    outer loop
      vertex 114.412 -2.31154 0
      vertex 114.107 -2.53298 3
      vertex 114.412 -2.31154 3
    endloop
  endfacet
  facet normal -0.587515 0.809213 0
    outer loop
      vertex 114.107 -2.53298 3
      vertex 114.412 -2.31154 0
      vertex 114.107 -2.53298 0
    endloop
  endfacet
  facet normal -0.905247 0.424886 0
    outer loop
      vertex 115.129 -1.44526 0
      vertex 115.289 -1.10437 3
      vertex 115.289 -1.10437 0
    endloop
  endfacet
  facet normal -0.905247 0.424886 0
    outer loop
      vertex 115.289 -1.10437 3
      vertex 115.129 -1.44526 0
      vertex 115.129 -1.44526 3
    endloop
  endfacet
  facet normal 0.248625 0.9686 -0
    outer loop
      vertex 111.938 -2.94686 0
      vertex 111.573 -2.85317 3
      vertex 111.938 -2.94686 3
    endloop
  endfacet
  facet normal 0.248625 0.9686 0
    outer loop
      vertex 111.573 -2.85317 3
      vertex 111.938 -2.94686 0
      vertex 111.573 -2.85317 0
    endloop
  endfacet
  facet normal 0.368389 0.929672 -0
    outer loop
      vertex 111.573 -2.85317 0
      vertex 111.223 -2.71448 3
      vertex 111.573 -2.85317 3
    endloop
  endfacet
  facet normal 0.368389 0.929672 0
    outer loop
      vertex 111.223 -2.71448 3
      vertex 111.573 -2.85317 0
      vertex 111.223 -2.71448 0
    endloop
  endfacet
  facet normal 0.950603 0.310411 0
    outer loop
      vertex 109.711 -1.10437 3
      vertex 109.594 -0.746069 0
      vertex 109.594 -0.746069 3
    endloop
  endfacet
  facet normal 0.950603 0.310411 0
    outer loop
      vertex 109.594 -0.746069 0
      vertex 109.711 -1.10437 3
      vertex 109.711 -1.10437 0
    endloop
  endfacet
  facet normal 0.905247 0.424886 0
    outer loop
      vertex 109.871 -1.44526 3
      vertex 109.711 -1.10437 0
      vertex 109.711 -1.10437 3
    endloop
  endfacet
  facet normal 0.905247 0.424886 0
    outer loop
      vertex 109.711 -1.10437 0
      vertex 109.871 -1.44526 3
      vertex 109.871 -1.44526 0
    endloop
  endfacet
  facet normal -0.684065 0.729421 0
    outer loop
      vertex 114.687 -2.05364 0
      vertex 114.412 -2.31154 3
      vertex 114.687 -2.05364 3
    endloop
  endfacet
  facet normal -0.684065 0.729421 0
    outer loop
      vertex 114.412 -2.31154 3
      vertex 114.687 -2.05364 0
      vertex 114.412 -2.31154 0
    endloop
  endfacet
  facet normal -0.368389 0.929672 0
    outer loop
      vertex 113.777 -2.71448 0
      vertex 113.427 -2.85317 3
      vertex 113.777 -2.71448 3
    endloop
  endfacet
  facet normal -0.368389 0.929672 0
    outer loop
      vertex 113.427 -2.85317 3
      vertex 113.777 -2.71448 0
      vertex 113.427 -2.85317 0
    endloop
  endfacet
  facet normal 0 1 -0
    outer loop
      vertex 112.688 -2.99408 0
      vertex 112.312 -2.99408 3
      vertex 112.688 -2.99408 3
    endloop
  endfacet
  facet normal 0 1 0
    outer loop
      vertex 112.312 -2.99408 3
      vertex 112.688 -2.99408 0
      vertex 112.312 -2.99408 0
    endloop
  endfacet
  facet normal 0.481919 0.876216 -0
    outer loop
      vertex 111.223 -2.71448 0
      vertex 110.893 -2.53298 3
      vertex 111.223 -2.71448 3
    endloop
  endfacet
  facet normal 0.481919 0.876216 0
    outer loop
      vertex 110.893 -2.53298 3
      vertex 111.223 -2.71448 0
      vertex 110.893 -2.53298 0
    endloop
  endfacet
  facet normal 0.770696 0.637202 0
    outer loop
      vertex 110.313 -2.05364 3
      vertex 110.073 -1.76336 0
      vertex 110.073 -1.76336 3
    endloop
  endfacet
  facet normal 0.770696 0.637202 0
    outer loop
      vertex 110.073 -1.76336 0
      vertex 110.313 -2.05364 3
      vertex 110.313 -2.05364 0
    endloop
  endfacet
  facet normal 0.125262 0.992124 -0
    outer loop
      vertex 112.312 -2.99408 0
      vertex 111.938 -2.94686 3
      vertex 112.312 -2.99408 3
    endloop
  endfacet
  facet normal 0.125262 0.992124 0
    outer loop
      vertex 111.938 -2.94686 3
      vertex 112.312 -2.99408 0
      vertex 111.938 -2.94686 0
    endloop
  endfacet
  facet normal -1 0 0
    outer loop
      vertex -119.5 -2 0
      vertex -119.5 2 3
      vertex -119.5 2 0
    endloop
  endfacet
  facet normal -1 -0 0
    outer loop
      vertex -119.5 2 3
      vertex -119.5 -2 0
      vertex -119.5 -2 3
    endloop
  endfacet
  facet normal -0.998069 -0.0621135 0
    outer loop
      vertex -119.461 -2.62667 0
      vertex -119.5 -2 3
      vertex -119.5 -2 0
    endloop
  endfacet
  facet normal -0.998069 -0.0621135 0
    outer loop
      vertex -119.5 -2 3
      vertex -119.461 -2.62667 0
      vertex -119.461 -2.62667 3
    endloop
  endfacet
  facet normal 0 1 -0
    outer loop
      vertex 114.814 6.99013 0
      vertex -114.814 6.99013 3
      vertex 114.814 6.99013 3
    endloop
  endfacet
  facet normal 0 1 0
    outer loop
      vertex -114.814 6.99013 3
      vertex 114.814 6.99013 0
      vertex -114.814 6.99013 0
    endloop
  endfacet
  facet normal 0 -1 0
    outer loop
      vertex -114.814 -6.99013 0
      vertex 114.814 -6.99013 3
      vertex -114.814 -6.99013 3
    endloop
  endfacet
  facet normal 0 -1 -0
    outer loop
      vertex 114.814 -6.99013 3
      vertex -114.814 -6.99013 0
      vertex 114.814 -6.99013 0
    endloop
  endfacet
  facet normal -0.998069 0.0621135 0
    outer loop
      vertex -119.5 2 0
      vertex -119.461 2.62667 3
      vertex -119.461 2.62667 0
    endloop
  endfacet
  facet normal -0.998069 0.0621135 0
    outer loop
      vertex -119.461 2.62667 3
      vertex -119.5 2 0
      vertex -119.5 2 3
    endloop
  endfacet
  facet normal 0.905042 -0.425321 0
    outer loop
      vertex 118.882 -4.40877 3
      vertex 119.149 -3.84062 0
      vertex 119.149 -3.84062 3
    endloop
  endfacet
  facet normal 0.905042 -0.425321 0
    outer loop
      vertex 119.149 -3.84062 0
      vertex 118.882 -4.40877 3
      vertex 118.882 -4.40877 0
    endloop
  endfacet
  facet normal -0.481907 -0.876223 0
    outer loop
      vertex -117.179 -6.22164 0
      vertex -116.629 -6.52413 3
      vertex -117.179 -6.22164 3
    endloop
  endfacet
  facet normal -0.481907 -0.876223 -0
    outer loop
      vertex -116.629 -6.52413 3
      vertex -117.179 -6.22164 0
      vertex -116.629 -6.52413 0
    endloop
  endfacet
  facet normal -0.368026 -0.929816 0
    outer loop
      vertex -116.629 -6.52413 0
      vertex -116.045 -6.75528 3
      vertex -116.629 -6.52413 3
    endloop
  endfacet
  facet normal -0.368026 -0.929816 -0
    outer loop
      vertex -116.045 -6.75528 3
      vertex -116.629 -6.52413 0
      vertex -116.045 -6.75528 0
    endloop
  endfacet
  facet normal -0.684327 -0.729176 0
    outer loop
      vertex -118.145 -5.42274 0
      vertex -117.687 -5.85257 3
      vertex -118.145 -5.42274 3
    endloop
  endfacet
  facet normal -0.684327 -0.729176 -0
    outer loop
      vertex -117.687 -5.85257 3
      vertex -118.145 -5.42274 0
      vertex -117.687 -5.85257 0
    endloop
  endfacet
  facet normal 1 -0 0
    outer loop
      vertex 119.5 -2 3
      vertex 119.5 2 0
      vertex 119.5 2 3
    endloop
  endfacet
  facet normal 1 0 0
    outer loop
      vertex 119.5 2 0
      vertex 119.5 -2 3
      vertex 119.5 -2 0
    endloop
  endfacet
  facet normal 0.951072 -0.30897 0
    outer loop
      vertex 119.149 -3.84062 3
      vertex 119.343 -3.24345 0
      vertex 119.343 -3.24345 3
    endloop
  endfacet
  facet normal 0.951072 -0.30897 0
    outer loop
      vertex 119.343 -3.24345 0
      vertex 119.149 -3.84062 3
      vertex 119.149 -3.84062 0
    endloop
  endfacet
  facet normal 0.905042 0.425321 0
    outer loop
      vertex 119.149 3.84062 3
      vertex 118.882 4.40877 0
      vertex 118.882 4.40877 3
    endloop
  endfacet
  facet normal 0.905042 0.425321 0
    outer loop
      vertex 118.882 4.40877 0
      vertex 119.149 3.84062 3
      vertex 119.149 3.84062 0
    endloop
  endfacet
  facet normal 0.951072 0.30897 0
    outer loop
      vertex 119.343 3.24345 3
      vertex 119.149 3.84062 0
      vertex 119.149 3.84062 3
    endloop
  endfacet
  facet normal 0.951072 0.30897 0
    outer loop
      vertex 119.149 3.84062 0
      vertex 119.343 3.24345 3
      vertex 119.343 3.24345 0
    endloop
  endfacet
  facet normal 0.684327 0.729176 -0
    outer loop
      vertex 118.145 5.42274 0
      vertex 117.687 5.85257 3
      vertex 118.145 5.42274 3
    endloop
  endfacet
  facet normal 0.684327 0.729176 0
    outer loop
      vertex 117.687 5.85257 3
      vertex 118.145 5.42274 0
      vertex 117.687 5.85257 0
    endloop
  endfacet
  facet normal 0.368026 0.929816 -0
    outer loop
      vertex 116.629 6.52413 0
      vertex 116.045 6.75528 3
      vertex 116.629 6.52413 3
    endloop
  endfacet
  facet normal 0.368026 0.929816 0
    outer loop
      vertex 116.045 6.75528 3
      vertex 116.629 6.52413 0
      vertex 116.045 6.75528 0
    endloop
  endfacet
  facet normal 0.248768 0.968563 -0
    outer loop
      vertex 116.045 6.75528 0
      vertex 115.437 6.91144 3
      vertex 116.045 6.75528 3
    endloop
  endfacet
  facet normal 0.248768 0.968563 0
    outer loop
      vertex 115.437 6.91144 3
      vertex 116.045 6.75528 0
      vertex 115.437 6.91144 0
    endloop
  endfacet
  facet normal 0.125313 0.992117 -0
    outer loop
      vertex 115.437 6.91144 0
      vertex 114.814 6.99013 3
      vertex 115.437 6.91144 3
    endloop
  endfacet
  facet normal 0.125313 0.992117 0
    outer loop
      vertex 114.814 6.99013 3
      vertex 115.437 6.91144 0
      vertex 114.814 6.99013 0
    endloop
  endfacet
  facet normal -0.481907 0.876223 0
    outer loop
      vertex -116.629 6.52413 0
      vertex -117.179 6.22164 3
      vertex -116.629 6.52413 3
    endloop
  endfacet
  facet normal -0.481907 0.876223 0
    outer loop
      vertex -117.179 6.22164 3
      vertex -116.629 6.52413 0
      vertex -117.179 6.22164 0
    endloop
  endfacet
  facet normal -0.248768 0.968563 0
    outer loop
      vertex -115.437 6.91144 0
      vertex -116.045 6.75528 3
      vertex -115.437 6.91144 3
    endloop
  endfacet
  facet normal -0.248768 0.968563 0
    outer loop
      vertex -116.045 6.75528 3
      vertex -115.437 6.91144 0
      vertex -116.045 6.75528 0
    endloop
  endfacet
  facet normal -0.951072 -0.30897 0
    outer loop
      vertex -119.149 -3.84062 0
      vertex -119.343 -3.24345 3
      vertex -119.343 -3.24345 0
    endloop
  endfacet
  facet normal -0.951072 -0.30897 0
    outer loop
      vertex -119.343 -3.24345 3
      vertex -119.149 -3.84062 0
      vertex -119.149 -3.84062 3
    endloop
  endfacet
  facet normal -0.770703 -0.637195 0
    outer loop
      vertex -118.145 -5.42274 0
      vertex -118.545 -4.93893 3
      vertex -118.545 -4.93893 0
    endloop
  endfacet
  facet normal -0.770703 -0.637195 0
    outer loop
      vertex -118.545 -4.93893 3
      vertex -118.145 -5.42274 0
      vertex -118.145 -5.42274 3
    endloop
  endfacet
  facet normal -0.905042 -0.425321 0
    outer loop
      vertex -118.882 -4.40877 0
      vertex -119.149 -3.84062 3
      vertex -119.149 -3.84062 0
    endloop
  endfacet
  facet normal -0.905042 -0.425321 0
    outer loop
      vertex -119.149 -3.84062 3
      vertex -118.882 -4.40877 0
      vertex -118.882 -4.40877 3
    endloop
  endfacet
  facet normal -0.248768 -0.968563 0
    outer loop
      vertex -116.045 -6.75528 0
      vertex -115.437 -6.91144 3
      vertex -116.045 -6.75528 3
    endloop
  endfacet
  facet normal -0.248768 -0.968563 -0
    outer loop
      vertex -115.437 -6.91144 3
      vertex -116.045 -6.75528 0
      vertex -115.437 -6.91144 0
    endloop
  endfacet
  facet normal -0.587771 -0.809027 0
    outer loop
      vertex -117.687 -5.85257 0
      vertex -117.179 -6.22164 3
      vertex -117.687 -5.85257 3
    endloop
  endfacet
  facet normal -0.587771 -0.809027 -0
    outer loop
      vertex -117.179 -6.22164 3
      vertex -117.687 -5.85257 0
      vertex -117.179 -6.22164 0
    endloop
  endfacet
  facet normal 0.998069 -0.0621135 0
    outer loop
      vertex 119.461 -2.62667 3
      vertex 119.5 -2 0
      vertex 119.5 -2 3
    endloop
  endfacet
  facet normal 0.998069 -0.0621135 0
    outer loop
      vertex 119.5 -2 0
      vertex 119.461 -2.62667 3
      vertex 119.461 -2.62667 0
    endloop
  endfacet
  facet normal 0.587771 -0.809027 0
    outer loop
      vertex 117.179 -6.22164 0
      vertex 117.687 -5.85257 3
      vertex 117.179 -6.22164 3
    endloop
  endfacet
  facet normal 0.587771 -0.809027 0
    outer loop
      vertex 117.687 -5.85257 3
      vertex 117.179 -6.22164 0
      vertex 117.687 -5.85257 0
    endloop
  endfacet
  facet normal 0.770703 -0.637195 0
    outer loop
      vertex 118.145 -5.42274 3
      vertex 118.545 -4.93893 0
      vertex 118.545 -4.93893 3
    endloop
  endfacet
  facet normal 0.770703 -0.637195 0
    outer loop
      vertex 118.545 -4.93893 0
      vertex 118.145 -5.42274 3
      vertex 118.145 -5.42274 0
    endloop
  endfacet
  facet normal 0.368026 -0.929816 0
    outer loop
      vertex 116.045 -6.75528 0
      vertex 116.629 -6.52413 3
      vertex 116.045 -6.75528 3
    endloop
  endfacet
  facet normal 0.368026 -0.929816 0
    outer loop
      vertex 116.629 -6.52413 3
      vertex 116.045 -6.75528 0
      vertex 116.629 -6.52413 0
    endloop
  endfacet
  facet normal 0.125313 -0.992117 0
    outer loop
      vertex 114.814 -6.99013 0
      vertex 115.437 -6.91144 3
      vertex 114.814 -6.99013 3
    endloop
  endfacet
  facet normal 0.125313 -0.992117 0
    outer loop
      vertex 115.437 -6.91144 3
      vertex 114.814 -6.99013 0
      vertex 115.437 -6.91144 0
    endloop
  endfacet
  facet normal 0.770703 0.637195 0
    outer loop
      vertex 118.545 4.93893 3
      vertex 118.145 5.42274 0
      vertex 118.145 5.42274 3
    endloop
  endfacet
  facet normal 0.770703 0.637195 0
    outer loop
      vertex 118.145 5.42274 0
      vertex 118.545 4.93893 3
      vertex 118.545 4.93893 0
    endloop
  endfacet
  facet normal 0.843931 0.536451 0
    outer loop
      vertex 118.882 4.40877 3
      vertex 118.545 4.93893 0
      vertex 118.545 4.93893 3
    endloop
  endfacet
  facet normal 0.843931 0.536451 0
    outer loop
      vertex 118.545 4.93893 0
      vertex 118.882 4.40877 3
      vertex 118.882 4.40877 0
    endloop
  endfacet
  facet normal 0.587771 0.809027 -0
    outer loop
      vertex 117.687 5.85257 0
      vertex 117.179 6.22164 3
      vertex 117.687 5.85257 3
    endloop
  endfacet
  facet normal 0.587771 0.809027 0
    outer loop
      vertex 117.179 6.22164 3
      vertex 117.687 5.85257 0
      vertex 117.179 6.22164 0
    endloop
  endfacet
  facet normal 0.481907 0.876223 -0
    outer loop
      vertex 117.179 6.22164 0
      vertex 116.629 6.52413 3
      vertex 117.179 6.22164 3
    endloop
  endfacet
  facet normal 0.481907 0.876223 0
    outer loop
      vertex 116.629 6.52413 3
      vertex 117.179 6.22164 0
      vertex 116.629 6.52413 0
    endloop
  endfacet
  facet normal -0.125313 0.992117 0
    outer loop
      vertex -114.814 6.99013 0
      vertex -115.437 6.91144 3
      vertex -114.814 6.99013 3
    endloop
  endfacet
  facet normal -0.125313 0.992117 0
    outer loop
      vertex -115.437 6.91144 3
      vertex -114.814 6.99013 0
      vertex -115.437 6.91144 0
    endloop
  endfacet
  facet normal -0.368026 0.929816 0
    outer loop
      vertex -116.045 6.75528 0
      vertex -116.629 6.52413 3
      vertex -116.045 6.75528 3
    endloop
  endfacet
  facet normal -0.368026 0.929816 0
    outer loop
      vertex -116.629 6.52413 3
      vertex -116.045 6.75528 0
      vertex -116.629 6.52413 0
    endloop
  endfacet
  facet normal -0.982187 0.187908 0
    outer loop
      vertex -119.461 2.62667 0
      vertex -119.343 3.24345 3
      vertex -119.343 3.24345 0
    endloop
  endfacet
  facet normal -0.982187 0.187908 0
    outer loop
      vertex -119.343 3.24345 3
      vertex -119.461 2.62667 0
      vertex -119.461 2.62667 3
    endloop
  endfacet
  facet normal -0.951072 0.30897 0
    outer loop
      vertex -119.343 3.24345 0
      vertex -119.149 3.84062 3
      vertex -119.149 3.84062 0
    endloop
  endfacet
  facet normal -0.951072 0.30897 0
    outer loop
      vertex -119.149 3.84062 3
      vertex -119.343 3.24345 0
      vertex -119.343 3.24345 3
    endloop
  endfacet
  facet normal -0.982187 -0.187908 0
    outer loop
      vertex -119.343 -3.24345 0
      vertex -119.461 -2.62667 3
      vertex -119.461 -2.62667 0
    endloop
  endfacet
  facet normal -0.982187 -0.187908 0
    outer loop
      vertex -119.461 -2.62667 3
      vertex -119.343 -3.24345 0
      vertex -119.343 -3.24345 3
    endloop
  endfacet
  facet normal -0.843931 -0.536451 0
    outer loop
      vertex -118.545 -4.93893 0
      vertex -118.882 -4.40877 3
      vertex -118.882 -4.40877 0
    endloop
  endfacet
  facet normal -0.843931 -0.536451 0
    outer loop
      vertex -118.882 -4.40877 3
      vertex -118.545 -4.93893 0
      vertex -118.545 -4.93893 3
    endloop
  endfacet
  facet normal -0.125313 -0.992117 0
    outer loop
      vertex -115.437 -6.91144 0
      vertex -114.814 -6.99013 3
      vertex -115.437 -6.91144 3
    endloop
  endfacet
  facet normal -0.125313 -0.992117 -0
    outer loop
      vertex -114.814 -6.99013 3
      vertex -115.437 -6.91144 0
      vertex -114.814 -6.99013 0
    endloop
  endfacet
  facet normal 0.982187 -0.187908 0
    outer loop
      vertex 119.343 -3.24345 3
      vertex 119.461 -2.62667 0
      vertex 119.461 -2.62667 3
    endloop
  endfacet
  facet normal 0.982187 -0.187908 0
    outer loop
      vertex 119.461 -2.62667 0
      vertex 119.343 -3.24345 3
      vertex 119.343 -3.24345 0
    endloop
  endfacet
  facet normal 0.684327 -0.729176 0
    outer loop
      vertex 117.687 -5.85257 0
      vertex 118.145 -5.42274 3
      vertex 117.687 -5.85257 3
    endloop
  endfacet
  facet normal 0.684327 -0.729176 0
    outer loop
      vertex 118.145 -5.42274 3
      vertex 117.687 -5.85257 0
      vertex 118.145 -5.42274 0
    endloop
  endfacet
  facet normal 0.843931 -0.536451 0
    outer loop
      vertex 118.545 -4.93893 3
      vertex 118.882 -4.40877 0
      vertex 118.882 -4.40877 3
    endloop
  endfacet
  facet normal 0.843931 -0.536451 0
    outer loop
      vertex 118.882 -4.40877 0
      vertex 118.545 -4.93893 3
      vertex 118.545 -4.93893 0
    endloop
  endfacet
  facet normal 0.481907 -0.876223 0
    outer loop
      vertex 116.629 -6.52413 0
      vertex 117.179 -6.22164 3
      vertex 116.629 -6.52413 3
    endloop
  endfacet
  facet normal 0.481907 -0.876223 0
    outer loop
      vertex 117.179 -6.22164 3
      vertex 116.629 -6.52413 0
      vertex 117.179 -6.22164 0
    endloop
  endfacet
  facet normal 0.248768 -0.968563 0
    outer loop
      vertex 115.437 -6.91144 0
      vertex 116.045 -6.75528 3
      vertex 115.437 -6.91144 3
    endloop
  endfacet
  facet normal 0.248768 -0.968563 0
    outer loop
      vertex 116.045 -6.75528 3
      vertex 115.437 -6.91144 0
      vertex 116.045 -6.75528 0
    endloop
  endfacet
  facet normal -0.684327 0.729176 0
    outer loop
      vertex -117.687 5.85257 0
      vertex -118.145 5.42274 3
      vertex -117.687 5.85257 3
    endloop
  endfacet
  facet normal -0.684327 0.729176 0
    outer loop
      vertex -118.145 5.42274 3
      vertex -117.687 5.85257 0
      vertex -118.145 5.42274 0
    endloop
  endfacet
  facet normal -0.843931 0.536451 0
    outer loop
      vertex -118.882 4.40877 0
      vertex -118.545 4.93893 3
      vertex -118.545 4.93893 0
    endloop
  endfacet
  facet normal -0.843931 0.536451 0
    outer loop
      vertex -118.545 4.93893 3
      vertex -118.882 4.40877 0
      vertex -118.882 4.40877 3
    endloop
  endfacet
  facet normal -0.770703 0.637195 0
    outer loop
      vertex -118.545 4.93893 0
      vertex -118.145 5.42274 3
      vertex -118.145 5.42274 0
    endloop
  endfacet
  facet normal -0.770703 0.637195 0
    outer loop
      vertex -118.145 5.42274 3
      vertex -118.545 4.93893 0
      vertex -118.545 4.93893 3
    endloop
  endfacet
  facet normal -0.905042 0.425321 0
    outer loop
      vertex -119.149 3.84062 0
      vertex -118.882 4.40877 3
      vertex -118.882 4.40877 0
    endloop
  endfacet
  facet normal -0.905042 0.425321 0
    outer loop
      vertex -118.882 4.40877 3
      vertex -119.149 3.84062 0
      vertex -119.149 3.84062 3
    endloop
  endfacet
  facet normal 0.982187 0.187908 0
    outer loop
      vertex 119.461 2.62667 3
      vertex 119.343 3.24345 0
      vertex 119.343 3.24345 3
    endloop
  endfacet
  facet normal 0.982187 0.187908 0
    outer loop
      vertex 119.343 3.24345 0
      vertex 119.461 2.62667 3
      vertex 119.461 2.62667 0
    endloop
  endfacet
  facet normal 0.998069 0.0621135 0
    outer loop
      vertex 119.5 2 3
      vertex 119.461 2.62667 0
      vertex 119.461 2.62667 3
    endloop
  endfacet
  facet normal 0.998069 0.0621135 0
    outer loop
      vertex 119.461 2.62667 0
      vertex 119.5 2 3
      vertex 119.5 2 0
    endloop
  endfacet
  facet normal -0.587771 0.809027 0
    outer loop
      vertex -117.179 6.22164 0
      vertex -117.687 5.85257 3
      vertex -117.179 6.22164 3
    endloop
  endfacet
  facet normal -0.587771 0.809027 0
    outer loop
      vertex -117.687 5.85257 3
      vertex -117.179 6.22164 0
      vertex -117.687 5.85257 0
    endloop
  endfacet
endsolid OpenSCAD_Model
