<?xml version="1.0" standalone="no"?>
<!DOCTYPE svg PUBLIC "-//W3C//DTD SVG 1.1//EN" "http://www.w3.org/Graphics/SVG/1.1/DTD/svg11.dtd">
<svg width="60mm" height="86mm" viewBox="-30 -151 60 86" xmlns="http://www.w3.org/2000/svg" version="1.1">
<title>OpenSCAD Model</title>
<path d="
M 25.4369,-137.089 L 26.0451,-137.245 L 26.6289,-137.476 L 27.1791,-137.778 L 27.6871,-138.147 L 28.1448,-138.577
 L 28.5451,-139.061 L 28.8815,-139.591 L 29.1489,-140.159 L 29.3429,-140.757 L 29.4606,-141.373 L 29.5,-142
 L 29.5,-146 L 29.4606,-146.627 L 29.3429,-147.243 L 29.1489,-147.841 L 28.8815,-148.409 L 28.5451,-148.939
 L 28.1448,-149.423 L 27.6871,-149.853 L 27.1791,-150.222 L 26.6289,-150.524 L 26.0451,-150.755 L 25.4369,-150.911
 L 24.8139,-150.99 L -24.8139,-150.99 L -25.4369,-150.911 L -26.0451,-150.755 L -26.6289,-150.524 L -27.1791,-150.222
 L -27.6871,-149.853 L -28.1448,-149.423 L -28.5451,-148.939 L -28.8815,-148.409 L -29.1489,-147.841 L -29.3429,-147.243
 L -29.4606,-146.627 L -29.5,-146 L -29.5,-142 L -29.4606,-141.373 L -29.3429,-140.757 L -29.1489,-140.159
 L -28.8815,-139.591 L -28.5451,-139.061 L -28.1448,-138.577 L -27.6871,-138.147 L -27.1791,-137.778 L -26.6289,-137.476
 L -26.0451,-137.245 L -25.4369,-137.089 L -24.8139,-137.01 L 24.8139,-137.01 z
M -7.68837,-141.006 L -8.06213,-141.053 L -8.42705,-141.147 L -8.77733,-141.286 L -9.10747,-141.467 L -9.41226,-141.688
 L -9.6869,-141.946 L -9.92705,-142.237 L -10.1289,-142.555 L -10.2893,-142.896 L -10.4057,-143.254 L -10.4763,-143.624
 L -10.5,-144 L -10.4763,-144.376 L -10.4057,-144.746 L -10.2893,-145.104 L -10.1289,-145.445 L -9.92705,-145.763
 L -9.6869,-146.054 L -9.41226,-146.312 L -9.10747,-146.533 L -8.77733,-146.714 L -8.42705,-146.853 L -8.06213,-146.947
 L -7.68837,-146.994 L -7.31161,-146.994 L -6.93785,-146.947 L -6.57294,-146.853 L -6.22266,-146.714 L -5.89252,-146.533
 L -5.58772,-146.312 L -5.31308,-146.054 L -5.07294,-145.763 L -4.87108,-145.445 L -4.71066,-145.104 L -4.59424,-144.746
 L -4.52365,-144.376 L -4.5,-144 L -4.52365,-143.624 L -4.59424,-143.254 L -4.71066,-142.896 L -4.87108,-142.555
 L -5.07294,-142.237 L -5.31308,-141.946 L -5.58772,-141.688 L -5.89252,-141.467 L -6.22266,-141.286 L -6.57294,-141.147
 L -6.93785,-141.053 L -7.31161,-141.006 z
M 22.3116,-141.006 L 21.9379,-141.053 L 21.5729,-141.147 L 21.2227,-141.286 L 20.8925,-141.467 L 20.5877,-141.688
 L 20.3131,-141.946 L 20.0729,-142.237 L 19.8711,-142.555 L 19.7107,-142.896 L 19.5942,-143.254 L 19.5237,-143.624
 L 19.5,-144 L 19.5237,-144.376 L 19.5942,-144.746 L 19.7107,-145.104 L 19.8711,-145.445 L 20.0729,-145.763
 L 20.3131,-146.054 L 20.5877,-146.312 L 20.8925,-146.533 L 21.2227,-146.714 L 21.5729,-146.853 L 21.9379,-146.947
 L 22.3116,-146.994 L 22.6884,-146.994 L 23.0621,-146.947 L 23.427,-146.853 L 23.7773,-146.714 L 24.1075,-146.533
 L 24.4123,-146.312 L 24.6869,-146.054 L 24.927,-145.763 L 25.1289,-145.445 L 25.2893,-145.104 L 25.4057,-144.746
 L 25.4763,-144.376 L 25.5,-144 L 25.4763,-143.624 L 25.4057,-143.254 L 25.2893,-142.896 L 25.1289,-142.555
 L 24.927,-142.237 L 24.6869,-141.946 L 24.4123,-141.688 L 24.1075,-141.467 L 23.7773,-141.286 L 23.427,-141.147
 L 23.0621,-141.053 L 22.6884,-141.006 z
M 7.31161,-141.006 L 6.93785,-141.053 L 6.57294,-141.147 L 6.22266,-141.286 L 5.89252,-141.467 L 5.58772,-141.688
 L 5.31308,-141.946 L 5.07294,-142.237 L 4.87108,-142.555 L 4.71066,-142.896 L 4.59424,-143.254 L 4.52365,-143.624
 L 4.5,-144 L 4.52365,-144.376 L 4.59424,-144.746 L 4.71066,-145.104 L 4.87108,-145.445 L 5.07294,-145.763
 L 5.31308,-146.054 L 5.58772,-146.312 L 5.89252,-146.533 L 6.22266,-146.714 L 6.57294,-146.853 L 6.93785,-146.947
 L 7.31161,-146.994 L 7.68837,-146.994 L 8.06213,-146.947 L 8.42705,-146.853 L 8.77733,-146.714 L 9.10747,-146.533
 L 9.41226,-146.312 L 9.6869,-146.054 L 9.92705,-145.763 L 10.1289,-145.445 L 10.2893,-145.104 L 10.4057,-144.746
 L 10.4763,-144.376 L 10.5,-144 L 10.4763,-143.624 L 10.4057,-143.254 L 10.2893,-142.896 L 10.1289,-142.555
 L 9.92705,-142.237 L 9.6869,-141.946 L 9.41226,-141.688 L 9.10747,-141.467 L 8.77733,-141.286 L 8.42705,-141.147
 L 8.06213,-141.053 L 7.68837,-141.006 z
M -22.6884,-141.006 L -23.0621,-141.053 L -23.427,-141.147 L -23.7773,-141.286 L -24.1075,-141.467 L -24.4123,-141.688
 L -24.6869,-141.946 L -24.927,-142.237 L -25.1289,-142.555 L -25.2893,-142.896 L -25.4057,-143.254 L -25.4763,-143.624
 L -25.5,-144 L -25.4763,-144.376 L -25.4057,-144.746 L -25.2893,-145.104 L -25.1289,-145.445 L -24.927,-145.763
 L -24.6869,-146.054 L -24.4123,-146.312 L -24.1075,-146.533 L -23.7773,-146.714 L -23.427,-146.853 L -23.0621,-146.947
 L -22.6884,-146.994 L -22.3116,-146.994 L -21.9379,-146.947 L -21.5729,-146.853 L -21.2227,-146.714 L -20.8925,-146.533
 L -20.5877,-146.312 L -20.3131,-146.054 L -20.0729,-145.763 L -19.8711,-145.445 L -19.7107,-145.104 L -19.5942,-144.746
 L -19.5237,-144.376 L -19.5,-144 L -19.5237,-143.624 L -19.5942,-143.254 L -19.7107,-142.896 L -19.8711,-142.555
 L -20.0729,-142.237 L -20.3131,-141.946 L -20.5877,-141.688 L -20.8925,-141.467 L -21.2227,-141.286 L -21.5729,-141.147
 L -21.9379,-141.053 L -22.3116,-141.006 z
M 25.4369,-113.089 L 26.0451,-113.245 L 26.6289,-113.476 L 27.1791,-113.778 L 27.6871,-114.147 L 28.1448,-114.577
 L 28.5451,-115.061 L 28.8815,-115.591 L 29.1489,-116.159 L 29.3429,-116.757 L 29.4606,-117.373 L 29.5,-118
 L 29.5,-122 L 29.4606,-122.627 L 29.3429,-123.243 L 29.1489,-123.841 L 28.8815,-124.409 L 28.5451,-124.939
 L 28.1448,-125.423 L 27.6871,-125.853 L 27.1791,-126.222 L 26.6289,-126.524 L 26.0451,-126.755 L 25.4369,-126.911
 L 24.8139,-126.99 L -24.8139,-126.99 L -25.4369,-126.911 L -26.0451,-126.755 L -26.6289,-126.524 L -27.1791,-126.222
 L -27.6871,-125.853 L -28.1448,-125.423 L -28.5451,-124.939 L -28.8815,-124.409 L -29.1489,-123.841 L -29.3429,-123.243
 L -29.4606,-122.627 L -29.5,-122 L -29.5,-118 L -29.4606,-117.373 L -29.3429,-116.757 L -29.1489,-116.159
 L -28.8815,-115.591 L -28.5451,-115.061 L -28.1448,-114.577 L -27.6871,-114.147 L -27.1791,-113.778 L -26.6289,-113.476
 L -26.0451,-113.245 L -25.4369,-113.089 L -24.8139,-113.01 L 24.8139,-113.01 z
M -22.6884,-117.006 L -23.0621,-117.053 L -23.427,-117.147 L -23.7773,-117.286 L -24.1075,-117.467 L -24.4123,-117.688
 L -24.6869,-117.946 L -24.927,-118.237 L -25.1289,-118.555 L -25.2893,-118.896 L -25.4057,-119.254 L -25.4763,-119.624
 L -25.5,-120 L -25.4763,-120.376 L -25.4057,-120.746 L -25.2893,-121.104 L -25.1289,-121.445 L -24.927,-121.763
 L -24.6869,-122.054 L -24.4123,-122.312 L -24.1075,-122.533 L -23.7773,-122.714 L -23.427,-122.853 L -23.0621,-122.947
 L -22.6884,-122.994 L -22.3116,-122.994 L -21.9379,-122.947 L -21.5729,-122.853 L -21.2227,-122.714 L -20.8925,-122.533
 L -20.5877,-122.312 L -20.3131,-122.054 L -20.0729,-121.763 L -19.8711,-121.445 L -19.7107,-121.104 L -19.5942,-120.746
 L -19.5237,-120.376 L -19.5,-120 L -19.5237,-119.624 L -19.5942,-119.254 L -19.7107,-118.896 L -19.8711,-118.555
 L -20.0729,-118.237 L -20.3131,-117.946 L -20.5877,-117.688 L -20.8925,-117.467 L -21.2227,-117.286 L -21.5729,-117.147
 L -21.9379,-117.053 L -22.3116,-117.006 z
M 7.31161,-117.006 L 6.93785,-117.053 L 6.57294,-117.147 L 6.22266,-117.286 L 5.89252,-117.467 L 5.58772,-117.688
 L 5.31308,-117.946 L 5.07294,-118.237 L 4.87108,-118.555 L 4.71066,-118.896 L 4.59424,-119.254 L 4.52365,-119.624
 L 4.5,-120 L 4.52365,-120.376 L 4.59424,-120.746 L 4.71066,-121.104 L 4.87108,-121.445 L 5.07294,-121.763
 L 5.31308,-122.054 L 5.58772,-122.312 L 5.89252,-122.533 L 6.22266,-122.714 L 6.57294,-122.853 L 6.93785,-122.947
 L 7.31161,-122.994 L 7.68837,-122.994 L 8.06213,-122.947 L 8.42705,-122.853 L 8.77733,-122.714 L 9.10747,-122.533
 L 9.41226,-122.312 L 9.6869,-122.054 L 9.92705,-121.763 L 10.1289,-121.445 L 10.2893,-121.104 L 10.4057,-120.746
 L 10.4763,-120.376 L 10.5,-120 L 10.4763,-119.624 L 10.4057,-119.254 L 10.2893,-118.896 L 10.1289,-118.555
 L 9.92705,-118.237 L 9.6869,-117.946 L 9.41226,-117.688 L 9.10747,-117.467 L 8.77733,-117.286 L 8.42705,-117.147
 L 8.06213,-117.053 L 7.68837,-117.006 z
M 22.3116,-117.006 L 21.9379,-117.053 L 21.5729,-117.147 L 21.2227,-117.286 L 20.8925,-117.467 L 20.5877,-117.688
 L 20.3131,-117.946 L 20.0729,-118.237 L 19.8711,-118.555 L 19.7107,-118.896 L 19.5942,-119.254 L 19.5237,-119.624
 L 19.5,-120 L 19.5237,-120.376 L 19.5942,-120.746 L 19.7107,-121.104 L 19.8711,-121.445 L 20.0729,-121.763
 L 20.3131,-122.054 L 20.5877,-122.312 L 20.8925,-122.533 L 21.2227,-122.714 L 21.5729,-122.853 L 21.9379,-122.947
 L 22.3116,-122.994 L 22.6884,-122.994 L 23.0621,-122.947 L 23.427,-122.853 L 23.7773,-122.714 L 24.1075,-122.533
 L 24.4123,-122.312 L 24.6869,-122.054 L 24.927,-121.763 L 25.1289,-121.445 L 25.2893,-121.104 L 25.4057,-120.746
 L 25.4763,-120.376 L 25.5,-120 L 25.4763,-119.624 L 25.4057,-119.254 L 25.2893,-118.896 L 25.1289,-118.555
 L 24.927,-118.237 L 24.6869,-117.946 L 24.4123,-117.688 L 24.1075,-117.467 L 23.7773,-117.286 L 23.427,-117.147
 L 23.0621,-117.053 L 22.6884,-117.006 z
M -7.68837,-117.006 L -8.06213,-117.053 L -8.42705,-117.147 L -8.77733,-117.286 L -9.10747,-117.467 L -9.41226,-117.688
 L -9.6869,-117.946 L -9.92705,-118.237 L -10.1289,-118.555 L -10.2893,-118.896 L -10.4057,-119.254 L -10.4763,-119.624
 L -10.5,-120 L -10.4763,-120.376 L -10.4057,-120.746 L -10.2893,-121.104 L -10.1289,-121.445 L -9.92705,-121.763
 L -9.6869,-122.054 L -9.41226,-122.312 L -9.10747,-122.533 L -8.77733,-122.714 L -8.42705,-122.853 L -8.06213,-122.947
 L -7.68837,-122.994 L -7.31161,-122.994 L -6.93785,-122.947 L -6.57294,-122.853 L -6.22266,-122.714 L -5.89252,-122.533
 L -5.58772,-122.312 L -5.31308,-122.054 L -5.07294,-121.763 L -4.87108,-121.445 L -4.71066,-121.104 L -4.59424,-120.746
 L -4.52365,-120.376 L -4.5,-120 L -4.52365,-119.624 L -4.59424,-119.254 L -4.71066,-118.896 L -4.87108,-118.555
 L -5.07294,-118.237 L -5.31308,-117.946 L -5.58772,-117.688 L -5.89252,-117.467 L -6.22266,-117.286 L -6.57294,-117.147
 L -6.93785,-117.053 L -7.31161,-117.006 z
M 25.4369,-89.0886 L 26.0451,-89.2447 L 26.6289,-89.4759 L 27.1791,-89.7784 L 27.6871,-90.1474 L 28.1448,-90.5773
 L 28.5451,-91.0611 L 28.8815,-91.5912 L 29.1489,-92.1594 L 29.3429,-92.7566 L 29.4606,-93.3733 L 29.5,-94
 L 29.5,-98 L 29.4606,-98.6267 L 29.3429,-99.2434 L 29.1489,-99.8406 L 28.8815,-100.409 L 28.5451,-100.939
 L 28.1448,-101.423 L 27.6871,-101.853 L 27.1791,-102.222 L 26.6289,-102.524 L 26.0451,-102.755 L 25.4369,-102.911
 L 24.8139,-102.99 L -24.8139,-102.99 L -25.4369,-102.911 L -26.0451,-102.755 L -26.6289,-102.524 L -27.1791,-102.222
 L -27.6871,-101.853 L -28.1448,-101.423 L -28.5451,-100.939 L -28.8815,-100.409 L -29.1489,-99.8406 L -29.3429,-99.2434
 L -29.4606,-98.6267 L -29.5,-98 L -29.5,-94 L -29.4606,-93.3733 L -29.3429,-92.7566 L -29.1489,-92.1594
 L -28.8815,-91.5912 L -28.5451,-91.0611 L -28.1448,-90.5773 L -27.6871,-90.1474 L -27.1791,-89.7784 L -26.6289,-89.4759
 L -26.0451,-89.2447 L -25.4369,-89.0886 L -24.8139,-89.0099 L 24.8139,-89.0099 z
M -22.6884,-93.0059 L -23.0621,-93.0531 L -23.427,-93.1468 L -23.7773,-93.2855 L -24.1075,-93.467 L -24.4123,-93.6885
 L -24.6869,-93.9464 L -24.927,-94.2366 L -25.1289,-94.5547 L -25.2893,-94.8956 L -25.4057,-95.2539 L -25.4763,-95.624
 L -25.5,-96 L -25.4763,-96.376 L -25.4057,-96.7461 L -25.2893,-97.1044 L -25.1289,-97.4453 L -24.927,-97.7634
 L -24.6869,-98.0536 L -24.4123,-98.3115 L -24.1075,-98.533 L -23.7773,-98.7145 L -23.427,-98.8532 L -23.0621,-98.9469
 L -22.6884,-98.9941 L -22.3116,-98.9941 L -21.9379,-98.9469 L -21.5729,-98.8532 L -21.2227,-98.7145 L -20.8925,-98.533
 L -20.5877,-98.3115 L -20.3131,-98.0536 L -20.0729,-97.7634 L -19.8711,-97.4453 L -19.7107,-97.1044 L -19.5942,-96.7461
 L -19.5237,-96.376 L -19.5,-96 L -19.5237,-95.624 L -19.5942,-95.2539 L -19.7107,-94.8956 L -19.8711,-94.5547
 L -20.0729,-94.2366 L -20.3131,-93.9464 L -20.5877,-93.6885 L -20.8925,-93.467 L -21.2227,-93.2855 L -21.5729,-93.1468
 L -21.9379,-93.0531 L -22.3116,-93.0059 z
M 7.31161,-93.0059 L 6.93785,-93.0531 L 6.57294,-93.1468 L 6.22266,-93.2855 L 5.89252,-93.467 L 5.58772,-93.6885
 L 5.31308,-93.9464 L 5.07294,-94.2366 L 4.87108,-94.5547 L 4.71066,-94.8956 L 4.59424,-95.2539 L 4.52365,-95.624
 L 4.5,-96 L 4.52365,-96.376 L 4.59424,-96.7461 L 4.71066,-97.1044 L 4.87108,-97.4453 L 5.07294,-97.7634
 L 5.31308,-98.0536 L 5.58772,-98.3115 L 5.89252,-98.533 L 6.22266,-98.7145 L 6.57294,-98.8532 L 6.93785,-98.9469
 L 7.31161,-98.9941 L 7.68837,-98.9941 L 8.06213,-98.9469 L 8.42705,-98.8532 L 8.77733,-98.7145 L 9.10747,-98.533
 L 9.41226,-98.3115 L 9.6869,-98.0536 L 9.92705,-97.7634 L 10.1289,-97.4453 L 10.2893,-97.1044 L 10.4057,-96.7461
 L 10.4763,-96.376 L 10.5,-96 L 10.4763,-95.624 L 10.4057,-95.2539 L 10.2893,-94.8956 L 10.1289,-94.5547
 L 9.92705,-94.2366 L 9.6869,-93.9464 L 9.41226,-93.6885 L 9.10747,-93.467 L 8.77733,-93.2855 L 8.42705,-93.1468
 L 8.06213,-93.0531 L 7.68837,-93.0059 z
M 22.3116,-93.0059 L 21.9379,-93.0531 L 21.5729,-93.1468 L 21.2227,-93.2855 L 20.8925,-93.467 L 20.5877,-93.6885
 L 20.3131,-93.9464 L 20.0729,-94.2366 L 19.8711,-94.5547 L 19.7107,-94.8956 L 19.5942,-95.2539 L 19.5237,-95.624
 L 19.5,-96 L 19.5237,-96.376 L 19.5942,-96.7461 L 19.7107,-97.1044 L 19.8711,-97.4453 L 20.0729,-97.7634
 L 20.3131,-98.0536 L 20.5877,-98.3115 L 20.8925,-98.533 L 21.2227,-98.7145 L 21.5729,-98.8532 L 21.9379,-98.9469
 L 22.3116,-98.9941 L 22.6884,-98.9941 L 23.0621,-98.9469 L 23.427,-98.8532 L 23.7773,-98.7145 L 24.1075,-98.533
 L 24.4123,-98.3115 L 24.6869,-98.0536 L 24.927,-97.7634 L 25.1289,-97.4453 L 25.2893,-97.1044 L 25.4057,-96.7461
 L 25.4763,-96.376 L 25.5,-96 L 25.4763,-95.624 L 25.4057,-95.2539 L 25.2893,-94.8956 L 25.1289,-94.5547
 L 24.927,-94.2366 L 24.6869,-93.9464 L 24.4123,-93.6885 L 24.1075,-93.467 L 23.7773,-93.2855 L 23.427,-93.1468
 L 23.0621,-93.0531 L 22.6884,-93.0059 z
M -7.68837,-93.0059 L -8.06213,-93.0531 L -8.42705,-93.1468 L -8.77733,-93.2855 L -9.10747,-93.467 L -9.41226,-93.6885
 L -9.6869,-93.9464 L -9.92705,-94.2366 L -10.1289,-94.5547 L -10.2893,-94.8956 L -10.4057,-95.2539 L -10.4763,-95.624
 L -10.5,-96 L -10.4763,-96.376 L -10.4057,-96.7461 L -10.2893,-97.1044 L -10.1289,-97.4453 L -9.92705,-97.7634
 L -9.6869,-98.0536 L -9.41226,-98.3115 L -9.10747,-98.533 L -8.77733,-98.7145 L -8.42705,-98.8532 L -8.06213,-98.9469
 L -7.68837,-98.9941 L -7.31161,-98.9941 L -6.93785,-98.9469 L -6.57294,-98.8532 L -6.22266,-98.7145 L -5.89252,-98.533
 L -5.58772,-98.3115 L -5.31308,-98.0536 L -5.07294,-97.7634 L -4.87108,-97.4453 L -4.71066,-97.1044 L -4.59424,-96.7461
 L -4.52365,-96.376 L -4.5,-96 L -4.52365,-95.624 L -4.59424,-95.2539 L -4.71066,-94.8956 L -4.87108,-94.5547
 L -5.07294,-94.2366 L -5.31308,-93.9464 L -5.58772,-93.6885 L -5.89252,-93.467 L -6.22266,-93.2855 L -6.57294,-93.1468
 L -6.93785,-93.0531 L -7.31161,-93.0059 z
M 25.4369,-65.0886 L 26.0451,-65.2447 L 26.6289,-65.4759 L 27.1791,-65.7784 L 27.6871,-66.1474 L 28.1448,-66.5773
 L 28.5451,-67.0611 L 28.8815,-67.5912 L 29.1489,-68.1594 L 29.3429,-68.7566 L 29.4606,-69.3733 L 29.5,-70
 L 29.5,-74 L 29.4606,-74.6267 L 29.3429,-75.2434 L 29.1489,-75.8406 L 28.8815,-76.4088 L 28.5451,-76.9389
 L 28.1448,-77.4227 L 27.6871,-77.8526 L 27.1791,-78.2216 L 26.6289,-78.5241 L 26.0451,-78.7553 L 25.4369,-78.9114
 L 24.8139,-78.9901 L -24.8139,-78.9901 L -25.4369,-78.9114 L -26.0451,-78.7553 L -26.6289,-78.5241 L -27.1791,-78.2216
 L -27.6871,-77.8526 L -28.1448,-77.4227 L -28.5451,-76.9389 L -28.8815,-76.4088 L -29.1489,-75.8406 L -29.3429,-75.2434
 L -29.4606,-74.6267 L -29.5,-74 L -29.5,-70 L -29.4606,-69.3733 L -29.3429,-68.7566 L -29.1489,-68.1594
 L -28.8815,-67.5912 L -28.5451,-67.0611 L -28.1448,-66.5773 L -27.6871,-66.1474 L -27.1791,-65.7784 L -26.6289,-65.4759
 L -26.0451,-65.2447 L -25.4369,-65.0886 L -24.8139,-65.0099 L 24.8139,-65.0099 z
M -7.68837,-69.0059 L -8.06213,-69.0531 L -8.42705,-69.1468 L -8.77733,-69.2855 L -9.10747,-69.467 L -9.41226,-69.6885
 L -9.6869,-69.9464 L -9.92705,-70.2366 L -10.1289,-70.5547 L -10.2893,-70.8956 L -10.4057,-71.2539 L -10.4763,-71.624
 L -10.5,-72 L -10.4763,-72.376 L -10.4057,-72.7461 L -10.2893,-73.1044 L -10.1289,-73.4453 L -9.92705,-73.7634
 L -9.6869,-74.0536 L -9.41226,-74.3115 L -9.10747,-74.533 L -8.77733,-74.7145 L -8.42705,-74.8532 L -8.06213,-74.9469
 L -7.68837,-74.9941 L -7.31161,-74.9941 L -6.93785,-74.9469 L -6.57294,-74.8532 L -6.22266,-74.7145 L -5.89252,-74.533
 L -5.58772,-74.3115 L -5.31308,-74.0536 L -5.07294,-73.7634 L -4.87108,-73.4453 L -4.71066,-73.1044 L -4.59424,-72.7461
 L -4.52365,-72.376 L -4.5,-72 L -4.52365,-71.624 L -4.59424,-71.2539 L -4.71066,-70.8956 L -4.87108,-70.5547
 L -5.07294,-70.2366 L -5.31308,-69.9464 L -5.58772,-69.6885 L -5.89252,-69.467 L -6.22266,-69.2855 L -6.57294,-69.1468
 L -6.93785,-69.0531 L -7.31161,-69.0059 z
M -22.6884,-69.0059 L -23.0621,-69.0531 L -23.427,-69.1468 L -23.7773,-69.2855 L -24.1075,-69.467 L -24.4123,-69.6885
 L -24.6869,-69.9464 L -24.927,-70.2366 L -25.1289,-70.5547 L -25.2893,-70.8956 L -25.4057,-71.2539 L -25.4763,-71.624
 L -25.5,-72 L -25.4763,-72.376 L -25.4057,-72.7461 L -25.2893,-73.1044 L -25.1289,-73.4453 L -24.927,-73.7634
 L -24.6869,-74.0536 L -24.4123,-74.3115 L -24.1075,-74.533 L -23.7773,-74.7145 L -23.427,-74.8532 L -23.0621,-74.9469
 L -22.6884,-74.9941 L -22.3116,-74.9941 L -21.9379,-74.9469 L -21.5729,-74.8532 L -21.2227,-74.7145 L -20.8925,-74.533
 L -20.5877,-74.3115 L -20.3131,-74.0536 L -20.0729,-73.7634 L -19.8711,-73.4453 L -19.7107,-73.1044 L -19.5942,-72.7461
 L -19.5237,-72.376 L -19.5,-72 L -19.5237,-71.624 L -19.5942,-71.2539 L -19.7107,-70.8956 L -19.8711,-70.5547
 L -20.0729,-70.2366 L -20.3131,-69.9464 L -20.5877,-69.6885 L -20.8925,-69.467 L -21.2227,-69.2855 L -21.5729,-69.1468
 L -21.9379,-69.0531 L -22.3116,-69.0059 z
M 22.3116,-69.0059 L 21.9379,-69.0531 L 21.5729,-69.1468 L 21.2227,-69.2855 L 20.8925,-69.467 L 20.5877,-69.6885
 L 20.3131,-69.9464 L 20.0729,-70.2366 L 19.8711,-70.5547 L 19.7107,-70.8956 L 19.5942,-71.2539 L 19.5237,-71.624
 L 19.5,-72 L 19.5237,-72.376 L 19.5942,-72.7461 L 19.7107,-73.1044 L 19.8711,-73.4453 L 20.0729,-73.7634
 L 20.3131,-74.0536 L 20.5877,-74.3115 L 20.8925,-74.533 L 21.2227,-74.7145 L 21.5729,-74.8532 L 21.9379,-74.9469
 L 22.3116,-74.9941 L 22.6884,-74.9941 L 23.0621,-74.9469 L 23.427,-74.8532 L 23.7773,-74.7145 L 24.1075,-74.533
 L 24.4123,-74.3115 L 24.6869,-74.0536 L 24.927,-73.7634 L 25.1289,-73.4453 L 25.2893,-73.1044 L 25.4057,-72.7461
 L 25.4763,-72.376 L 25.5,-72 L 25.4763,-71.624 L 25.4057,-71.2539 L 25.2893,-70.8956 L 25.1289,-70.5547
 L 24.927,-70.2366 L 24.6869,-69.9464 L 24.4123,-69.6885 L 24.1075,-69.467 L 23.7773,-69.2855 L 23.427,-69.1468
 L 23.0621,-69.0531 L 22.6884,-69.0059 z
M 7.31161,-69.0059 L 6.93785,-69.0531 L 6.57294,-69.1468 L 6.22266,-69.2855 L 5.89252,-69.467 L 5.58772,-69.6885
 L 5.31308,-69.9464 L 5.07294,-70.2366 L 4.87108,-70.5547 L 4.71066,-70.8956 L 4.59424,-71.2539 L 4.52365,-71.624
 L 4.5,-72 L 4.52365,-72.376 L 4.59424,-72.7461 L 4.71066,-73.1044 L 4.87108,-73.4453 L 5.07294,-73.7634
 L 5.31308,-74.0536 L 5.58772,-74.3115 L 5.89252,-74.533 L 6.22266,-74.7145 L 6.57294,-74.8532 L 6.93785,-74.9469
 L 7.31161,-74.9941 L 7.68837,-74.9941 L 8.06213,-74.9469 L 8.42705,-74.8532 L 8.77733,-74.7145 L 9.10747,-74.533
 L 9.41226,-74.3115 L 9.6869,-74.0536 L 9.92705,-73.7634 L 10.1289,-73.4453 L 10.2893,-73.1044 L 10.4057,-72.7461
 L 10.4763,-72.376 L 10.5,-72 L 10.4763,-71.624 L 10.4057,-71.2539 L 10.2893,-70.8956 L 10.1289,-70.5547
 L 9.92705,-70.2366 L 9.6869,-69.9464 L 9.41226,-69.6885 L 9.10747,-69.467 L 8.77733,-69.2855 L 8.42705,-69.1468
 L 8.06213,-69.0531 L 7.68837,-69.0059 z
" stroke="black" fill="lightgray" stroke-width="0.5"/>
</svg>
