  0
SECTION
  2
BLOCKS
  0
ENDSEC
  0
SECTION
  2
ENTITIES
  0
LINE
  8
0
 10
107.937
 20
-59.4114
 11
108.545
 21
-59.2553
  0
LINE
  8
0
 10
108.545
 20
-59.2553
 11
109.129
 21
-59.0241
  0
LINE
  8
0
 10
109.129
 20
-59.0241
 11
109.679
 21
-58.7216
  0
LINE
  8
0
 10
109.679
 20
-58.7216
 11
110.187
 21
-58.3526
  0
LINE
  8
0
 10
110.187
 20
-58.3526
 11
110.645
 21
-57.9227
  0
LINE
  8
0
 10
110.645
 20
-57.9227
 11
111.045
 21
-57.4389
  0
LINE
  8
0
 10
111.045
 20
-57.4389
 11
111.382
 21
-56.9088
  0
LINE
  8
0
 10
111.382
 20
-56.9088
 11
111.649
 21
-56.3406
  0
LINE
  8
0
 10
111.649
 20
-56.3406
 11
111.843
 21
-55.7434
  0
LINE
  8
0
 10
111.843
 20
-55.7434
 11
111.961
 21
-55.1267
  0
LINE
  8
0
 10
111.961
 20
-55.1267
 11
112
 21
-54.5
  0
LINE
  8
0
 10
112
 20
-54.5
 11
112
 21
54.5
  0
LINE
  8
0
 10
112
 20
54.5
 11
111.961
 21
55.1267
  0
LINE
  8
0
 10
111.961
 20
55.1267
 11
111.843
 21
55.7434
  0
LINE
  8
0
 10
111.843
 20
55.7434
 11
111.649
 21
56.3406
  0
LINE
  8
0
 10
111.649
 20
56.3406
 11
111.382
 21
56.9088
  0
LINE
  8
0
 10
111.382
 20
56.9088
 11
111.045
 21
57.4389
  0
LINE
  8
0
 10
111.045
 20
57.4389
 11
110.645
 21
57.9227
  0
LINE
  8
0
 10
110.645
 20
57.9227
 11
110.187
 21
58.3526
  0
LINE
  8
0
 10
110.187
 20
58.3526
 11
109.679
 21
58.7216
  0
LINE
  8
0
 10
109.679
 20
58.7216
 11
109.129
 21
59.0241
  0
LINE
  8
0
 10
109.129
 20
59.0241
 11
108.545
 21
59.2553
  0
LINE
  8
0
 10
108.545
 20
59.2553
 11
107.937
 21
59.4114
  0
LINE
  8
0
 10
107.937
 20
59.4114
 11
107.314
 21
59.4901
  0
LINE
  8
0
 10
107.314
 20
59.4901
 11
-107.314
 21
59.4901
  0
LINE
  8
0
 10
-107.314
 20
59.4901
 11
-107.937
 21
59.4114
  0
LINE
  8
0
 10
-107.937
 20
59.4114
 11
-108.545
 21
59.2553
  0
LINE
  8
0
 10
-108.545
 20
59.2553
 11
-109.129
 21
59.0241
  0
LINE
  8
0
 10
-109.129
 20
59.0241
 11
-109.679
 21
58.7216
  0
LINE
  8
0
 10
-109.679
 20
58.7216
 11
-110.187
 21
58.3526
  0
LINE
  8
0
 10
-110.187
 20
58.3526
 11
-110.645
 21
57.9227
  0
LINE
  8
0
 10
-110.645
 20
57.9227
 11
-111.045
 21
57.4389
  0
LINE
  8
0
 10
-111.045
 20
57.4389
 11
-111.382
 21
56.9088
  0
LINE
  8
0
 10
-111.382
 20
56.9088
 11
-111.649
 21
56.3406
  0
LINE
  8
0
 10
-111.649
 20
56.3406
 11
-111.843
 21
55.7434
  0
LINE
  8
0
 10
-111.843
 20
55.7434
 11
-111.961
 21
55.1267
  0
LINE
  8
0
 10
-111.961
 20
55.1267
 11
-112
 21
54.5
  0
LINE
  8
0
 10
-112
 20
54.5
 11
-112
 21
-54.5
  0
LINE
  8
0
 10
-112
 20
-54.5
 11
-111.961
 21
-55.1267
  0
LINE
  8
0
 10
-111.961
 20
-55.1267
 11
-111.843
 21
-55.7434
  0
LINE
  8
0
 10
-111.843
 20
-55.7434
 11
-111.649
 21
-56.3406
  0
LINE
  8
0
 10
-111.649
 20
-56.3406
 11
-111.382
 21
-56.9088
  0
LINE
  8
0
 10
-111.382
 20
-56.9088
 11
-111.045
 21
-57.4389
  0
LINE
  8
0
 10
-111.045
 20
-57.4389
 11
-110.645
 21
-57.9227
  0
LINE
  8
0
 10
-110.645
 20
-57.9227
 11
-110.187
 21
-58.3526
  0
LINE
  8
0
 10
-110.187
 20
-58.3526
 11
-109.679
 21
-58.7216
  0
LINE
  8
0
 10
-109.679
 20
-58.7216
 11
-109.129
 21
-59.0241
  0
LINE
  8
0
 10
-109.129
 20
-59.0241
 11
-108.545
 21
-59.2553
  0
LINE
  8
0
 10
-108.545
 20
-59.2553
 11
-107.937
 21
-59.4114
  0
LINE
  8
0
 10
-107.937
 20
-59.4114
 11
-107.314
 21
-59.4901
  0
LINE
  8
0
 10
-107.314
 20
-59.4901
 11
107.314
 21
-59.4901
  0
LINE
  8
0
 10
107.314
 20
-59.4901
 11
107.937
 21
-59.4114
  0
LINE
  8
0
 10
-105.188
 20
49.5059
 11
-105.562
 21
49.5531
  0
LINE
  8
0
 10
-105.562
 20
49.5531
 11
-105.927
 21
49.6468
  0
LINE
  8
0
 10
-105.927
 20
49.6468
 11
-106.277
 21
49.7855
  0
LINE
  8
0
 10
-106.277
 20
49.7855
 11
-106.607
 21
49.967
  0
LINE
  8
0
 10
-106.607
 20
49.967
 11
-106.912
 21
50.1885
  0
LINE
  8
0
 10
-106.912
 20
50.1885
 11
-107.187
 21
50.4464
  0
LINE
  8
0
 10
-107.187
 20
50.4464
 11
-107.427
 21
50.7366
  0
LINE
  8
0
 10
-107.427
 20
50.7366
 11
-107.629
 21
51.0547
  0
LINE
  8
0
 10
-107.629
 20
51.0547
 11
-107.789
 21
51.3956
  0
LINE
  8
0
 10
-107.789
 20
51.3956
 11
-107.906
 21
51.7539
  0
LINE
  8
0
 10
-107.906
 20
51.7539
 11
-107.976
 21
52.124
  0
LINE
  8
0
 10
-107.976
 20
52.124
 11
-108
 21
52.5
  0
LINE
  8
0
 10
-108
 20
52.5
 11
-107.976
 21
52.876
  0
LINE
  8
0
 10
-107.976
 20
52.876
 11
-107.906
 21
53.2461
  0
LINE
  8
0
 10
-107.906
 20
53.2461
 11
-107.789
 21
53.6044
  0
LINE
  8
0
 10
-107.789
 20
53.6044
 11
-107.629
 21
53.9453
  0
LINE
  8
0
 10
-107.629
 20
53.9453
 11
-107.427
 21
54.2634
  0
LINE
  8
0
 10
-107.427
 20
54.2634
 11
-107.187
 21
54.5536
  0
LINE
  8
0
 10
-107.187
 20
54.5536
 11
-106.912
 21
54.8115
  0
LINE
  8
0
 10
-106.912
 20
54.8115
 11
-106.607
 21
55.033
  0
LINE
  8
0
 10
-106.607
 20
55.033
 11
-106.277
 21
55.2145
  0
LINE
  8
0
 10
-106.277
 20
55.2145
 11
-105.927
 21
55.3532
  0
LINE
  8
0
 10
-105.927
 20
55.3532
 11
-105.562
 21
55.4469
  0
LINE
  8
0
 10
-105.562
 20
55.4469
 11
-105.188
 21
55.4941
  0
LINE
  8
0
 10
-105.188
 20
55.4941
 11
-104.812
 21
55.4941
  0
LINE
  8
0
 10
-104.812
 20
55.4941
 11
-104.438
 21
55.4469
  0
LINE
  8
0
 10
-104.438
 20
55.4469
 11
-104.073
 21
55.3532
  0
LINE
  8
0
 10
-104.073
 20
55.3532
 11
-103.723
 21
55.2145
  0
LINE
  8
0
 10
-103.723
 20
55.2145
 11
-103.393
 21
55.033
  0
LINE
  8
0
 10
-103.393
 20
55.033
 11
-103.088
 21
54.8115
  0
LINE
  8
0
 10
-103.088
 20
54.8115
 11
-102.813
 21
54.5536
  0
LINE
  8
0
 10
-102.813
 20
54.5536
 11
-102.573
 21
54.2634
  0
LINE
  8
0
 10
-102.573
 20
54.2634
 11
-102.371
 21
53.9453
  0
LINE
  8
0
 10
-102.371
 20
53.9453
 11
-102.211
 21
53.6044
  0
LINE
  8
0
 10
-102.211
 20
53.6044
 11
-102.094
 21
53.2461
  0
LINE
  8
0
 10
-102.094
 20
53.2461
 11
-102.024
 21
52.876
  0
LINE
  8
0
 10
-102.024
 20
52.876
 11
-102
 21
52.5
  0
LINE
  8
0
 10
-102
 20
52.5
 11
-102.024
 21
52.124
  0
LINE
  8
0
 10
-102.024
 20
52.124
 11
-102.094
 21
51.7539
  0
LINE
  8
0
 10
-102.094
 20
51.7539
 11
-102.211
 21
51.3956
  0
LINE
  8
0
 10
-102.211
 20
51.3956
 11
-102.371
 21
51.0547
  0
LINE
  8
0
 10
-102.371
 20
51.0547
 11
-102.573
 21
50.7366
  0
LINE
  8
0
 10
-102.573
 20
50.7366
 11
-102.813
 21
50.4464
  0
LINE
  8
0
 10
-102.813
 20
50.4464
 11
-103.088
 21
50.1885
  0
LINE
  8
0
 10
-103.088
 20
50.1885
 11
-103.393
 21
49.967
  0
LINE
  8
0
 10
-103.393
 20
49.967
 11
-103.723
 21
49.7855
  0
LINE
  8
0
 10
-103.723
 20
49.7855
 11
-104.073
 21
49.6468
  0
LINE
  8
0
 10
-104.073
 20
49.6468
 11
-104.438
 21
49.5531
  0
LINE
  8
0
 10
-104.438
 20
49.5531
 11
-104.812
 21
49.5059
  0
LINE
  8
0
 10
-104.812
 20
49.5059
 11
-105.188
 21
49.5059
  0
LINE
  8
0
 10
104.812
 20
49.5059
 11
104.438
 21
49.5531
  0
LINE
  8
0
 10
104.438
 20
49.5531
 11
104.073
 21
49.6468
  0
LINE
  8
0
 10
104.073
 20
49.6468
 11
103.723
 21
49.7855
  0
LINE
  8
0
 10
103.723
 20
49.7855
 11
103.393
 21
49.967
  0
LINE
  8
0
 10
103.393
 20
49.967
 11
103.088
 21
50.1885
  0
LINE
  8
0
 10
103.088
 20
50.1885
 11
102.813
 21
50.4464
  0
LINE
  8
0
 10
102.813
 20
50.4464
 11
102.573
 21
50.7366
  0
LINE
  8
0
 10
102.573
 20
50.7366
 11
102.371
 21
51.0547
  0
LINE
  8
0
 10
102.371
 20
51.0547
 11
102.211
 21
51.3956
  0
LINE
  8
0
 10
102.211
 20
51.3956
 11
102.094
 21
51.7539
  0
LINE
  8
0
 10
102.094
 20
51.7539
 11
102.024
 21
52.124
  0
LINE
  8
0
 10
102.024
 20
52.124
 11
102
 21
52.5
  0
LINE
  8
0
 10
102
 20
52.5
 11
102.024
 21
52.876
  0
LINE
  8
0
 10
102.024
 20
52.876
 11
102.094
 21
53.2461
  0
LINE
  8
0
 10
102.094
 20
53.2461
 11
102.211
 21
53.6044
  0
LINE
  8
0
 10
102.211
 20
53.6044
 11
102.371
 21
53.9453
  0
LINE
  8
0
 10
102.371
 20
53.9453
 11
102.573
 21
54.2634
  0
LINE
  8
0
 10
102.573
 20
54.2634
 11
102.813
 21
54.5536
  0
LINE
  8
0
 10
102.813
 20
54.5536
 11
103.088
 21
54.8115
  0
LINE
  8
0
 10
103.088
 20
54.8115
 11
103.393
 21
55.033
  0
LINE
  8
0
 10
103.393
 20
55.033
 11
103.723
 21
55.2145
  0
LINE
  8
0
 10
103.723
 20
55.2145
 11
104.073
 21
55.3532
  0
LINE
  8
0
 10
104.073
 20
55.3532
 11
104.438
 21
55.4469
  0
LINE
  8
0
 10
104.438
 20
55.4469
 11
104.812
 21
55.4941
  0
LINE
  8
0
 10
104.812
 20
55.4941
 11
105.188
 21
55.4941
  0
LINE
  8
0
 10
105.188
 20
55.4941
 11
105.562
 21
55.4469
  0
LINE
  8
0
 10
105.562
 20
55.4469
 11
105.927
 21
55.3532
  0
LINE
  8
0
 10
105.927
 20
55.3532
 11
106.277
 21
55.2145
  0
LINE
  8
0
 10
106.277
 20
55.2145
 11
106.607
 21
55.033
  0
LINE
  8
0
 10
106.607
 20
55.033
 11
106.912
 21
54.8115
  0
LINE
  8
0
 10
106.912
 20
54.8115
 11
107.187
 21
54.5536
  0
LINE
  8
0
 10
107.187
 20
54.5536
 11
107.427
 21
54.2634
  0
LINE
  8
0
 10
107.427
 20
54.2634
 11
107.629
 21
53.9453
  0
LINE
  8
0
 10
107.629
 20
53.9453
 11
107.789
 21
53.6044
  0
LINE
  8
0
 10
107.789
 20
53.6044
 11
107.906
 21
53.2461
  0
LINE
  8
0
 10
107.906
 20
53.2461
 11
107.976
 21
52.876
  0
LINE
  8
0
 10
107.976
 20
52.876
 11
108
 21
52.5
  0
LINE
  8
0
 10
108
 20
52.5
 11
107.976
 21
52.124
  0
LINE
  8
0
 10
107.976
 20
52.124
 11
107.906
 21
51.7539
  0
LINE
  8
0
 10
107.906
 20
51.7539
 11
107.789
 21
51.3956
  0
LINE
  8
0
 10
107.789
 20
51.3956
 11
107.629
 21
51.0547
  0
LINE
  8
0
 10
107.629
 20
51.0547
 11
107.427
 21
50.7366
  0
LINE
  8
0
 10
107.427
 20
50.7366
 11
107.187
 21
50.4464
  0
LINE
  8
0
 10
107.187
 20
50.4464
 11
106.912
 21
50.1885
  0
LINE
  8
0
 10
106.912
 20
50.1885
 11
106.607
 21
49.967
  0
LINE
  8
0
 10
106.607
 20
49.967
 11
106.277
 21
49.7855
  0
LINE
  8
0
 10
106.277
 20
49.7855
 11
105.927
 21
49.6468
  0
LINE
  8
0
 10
105.927
 20
49.6468
 11
105.562
 21
49.5531
  0
LINE
  8
0
 10
105.562
 20
49.5531
 11
105.188
 21
49.5059
  0
LINE
  8
0
 10
105.188
 20
49.5059
 11
104.812
 21
49.5059
  0
LINE
  8
0
 10
104.812
 20
-55.4941
 11
104.438
 21
-55.4469
  0
LINE
  8
0
 10
104.438
 20
-55.4469
 11
104.073
 21
-55.3532
  0
LINE
  8
0
 10
104.073
 20
-55.3532
 11
103.723
 21
-55.2145
  0
LINE
  8
0
 10
103.723
 20
-55.2145
 11
103.393
 21
-55.033
  0
LINE
  8
0
 10
103.393
 20
-55.033
 11
103.088
 21
-54.8115
  0
LINE
  8
0
 10
103.088
 20
-54.8115
 11
102.813
 21
-54.5536
  0
LINE
  8
0
 10
102.813
 20
-54.5536
 11
102.573
 21
-54.2634
  0
LINE
  8
0
 10
102.573
 20
-54.2634
 11
102.371
 21
-53.9453
  0
LINE
  8
0
 10
102.371
 20
-53.9453
 11
102.211
 21
-53.6044
  0
LINE
  8
0
 10
102.211
 20
-53.6044
 11
102.094
 21
-53.2461
  0
LINE
  8
0
 10
102.094
 20
-53.2461
 11
102.024
 21
-52.876
  0
LINE
  8
0
 10
102.024
 20
-52.876
 11
102
 21
-52.5
  0
LINE
  8
0
 10
102
 20
-52.5
 11
102.024
 21
-52.124
  0
LINE
  8
0
 10
102.024
 20
-52.124
 11
102.094
 21
-51.7539
  0
LINE
  8
0
 10
102.094
 20
-51.7539
 11
102.211
 21
-51.3956
  0
LINE
  8
0
 10
102.211
 20
-51.3956
 11
102.371
 21
-51.0547
  0
LINE
  8
0
 10
102.371
 20
-51.0547
 11
102.573
 21
-50.7366
  0
LINE
  8
0
 10
102.573
 20
-50.7366
 11
102.813
 21
-50.4464
  0
LINE
  8
0
 10
102.813
 20
-50.4464
 11
103.088
 21
-50.1885
  0
LINE
  8
0
 10
103.088
 20
-50.1885
 11
103.393
 21
-49.967
  0
LINE
  8
0
 10
103.393
 20
-49.967
 11
103.723
 21
-49.7855
  0
LINE
  8
0
 10
103.723
 20
-49.7855
 11
104.073
 21
-49.6468
  0
LINE
  8
0
 10
104.073
 20
-49.6468
 11
104.438
 21
-49.5531
  0
LINE
  8
0
 10
104.438
 20
-49.5531
 11
104.812
 21
-49.5059
  0
LINE
  8
0
 10
104.812
 20
-49.5059
 11
105.188
 21
-49.5059
  0
LINE
  8
0
 10
105.188
 20
-49.5059
 11
105.562
 21
-49.5531
  0
LINE
  8
0
 10
105.562
 20
-49.5531
 11
105.927
 21
-49.6468
  0
LINE
  8
0
 10
105.927
 20
-49.6468
 11
106.277
 21
-49.7855
  0
LINE
  8
0
 10
106.277
 20
-49.7855
 11
106.607
 21
-49.967
  0
LINE
  8
0
 10
106.607
 20
-49.967
 11
106.912
 21
-50.1885
  0
LINE
  8
0
 10
106.912
 20
-50.1885
 11
107.187
 21
-50.4464
  0
LINE
  8
0
 10
107.187
 20
-50.4464
 11
107.427
 21
-50.7366
  0
LINE
  8
0
 10
107.427
 20
-50.7366
 11
107.629
 21
-51.0547
  0
LINE
  8
0
 10
107.629
 20
-51.0547
 11
107.789
 21
-51.3956
  0
LINE
  8
0
 10
107.789
 20
-51.3956
 11
107.906
 21
-51.7539
  0
LINE
  8
0
 10
107.906
 20
-51.7539
 11
107.976
 21
-52.124
  0
LINE
  8
0
 10
107.976
 20
-52.124
 11
108
 21
-52.5
  0
LINE
  8
0
 10
108
 20
-52.5
 11
107.976
 21
-52.876
  0
LINE
  8
0
 10
107.976
 20
-52.876
 11
107.906
 21
-53.2461
  0
LINE
  8
0
 10
107.906
 20
-53.2461
 11
107.789
 21
-53.6044
  0
LINE
  8
0
 10
107.789
 20
-53.6044
 11
107.629
 21
-53.9453
  0
LINE
  8
0
 10
107.629
 20
-53.9453
 11
107.427
 21
-54.2634
  0
LINE
  8
0
 10
107.427
 20
-54.2634
 11
107.187
 21
-54.5536
  0
LINE
  8
0
 10
107.187
 20
-54.5536
 11
106.912
 21
-54.8115
  0
LINE
  8
0
 10
106.912
 20
-54.8115
 11
106.607
 21
-55.033
  0
LINE
  8
0
 10
106.607
 20
-55.033
 11
106.277
 21
-55.2145
  0
LINE
  8
0
 10
106.277
 20
-55.2145
 11
105.927
 21
-55.3532
  0
LINE
  8
0
 10
105.927
 20
-55.3532
 11
105.562
 21
-55.4469
  0
LINE
  8
0
 10
105.562
 20
-55.4469
 11
105.188
 21
-55.4941
  0
LINE
  8
0
 10
105.188
 20
-55.4941
 11
104.812
 21
-55.4941
  0
LINE
  8
0
 10
-105.188
 20
-55.4941
 11
-105.562
 21
-55.4469
  0
LINE
  8
0
 10
-105.562
 20
-55.4469
 11
-105.927
 21
-55.3532
  0
LINE
  8
0
 10
-105.927
 20
-55.3532
 11
-106.277
 21
-55.2145
  0
LINE
  8
0
 10
-106.277
 20
-55.2145
 11
-106.607
 21
-55.033
  0
LINE
  8
0
 10
-106.607
 20
-55.033
 11
-106.912
 21
-54.8115
  0
LINE
  8
0
 10
-106.912
 20
-54.8115
 11
-107.187
 21
-54.5536
  0
LINE
  8
0
 10
-107.187
 20
-54.5536
 11
-107.427
 21
-54.2634
  0
LINE
  8
0
 10
-107.427
 20
-54.2634
 11
-107.629
 21
-53.9453
  0
LINE
  8
0
 10
-107.629
 20
-53.9453
 11
-107.789
 21
-53.6044
  0
LINE
  8
0
 10
-107.789
 20
-53.6044
 11
-107.906
 21
-53.2461
  0
LINE
  8
0
 10
-107.906
 20
-53.2461
 11
-107.976
 21
-52.876
  0
LINE
  8
0
 10
-107.976
 20
-52.876
 11
-108
 21
-52.5
  0
LINE
  8
0
 10
-108
 20
-52.5
 11
-107.976
 21
-52.124
  0
LINE
  8
0
 10
-107.976
 20
-52.124
 11
-107.906
 21
-51.7539
  0
LINE
  8
0
 10
-107.906
 20
-51.7539
 11
-107.789
 21
-51.3956
  0
LINE
  8
0
 10
-107.789
 20
-51.3956
 11
-107.629
 21
-51.0547
  0
LINE
  8
0
 10
-107.629
 20
-51.0547
 11
-107.427
 21
-50.7366
  0
LINE
  8
0
 10
-107.427
 20
-50.7366
 11
-107.187
 21
-50.4464
  0
LINE
  8
0
 10
-107.187
 20
-50.4464
 11
-106.912
 21
-50.1885
  0
LINE
  8
0
 10
-106.912
 20
-50.1885
 11
-106.607
 21
-49.967
  0
LINE
  8
0
 10
-106.607
 20
-49.967
 11
-106.277
 21
-49.7855
  0
LINE
  8
0
 10
-106.277
 20
-49.7855
 11
-105.927
 21
-49.6468
  0
LINE
  8
0
 10
-105.927
 20
-49.6468
 11
-105.562
 21
-49.5531
  0
LINE
  8
0
 10
-105.562
 20
-49.5531
 11
-105.188
 21
-49.5059
  0
LINE
  8
0
 10
-105.188
 20
-49.5059
 11
-104.812
 21
-49.5059
  0
LINE
  8
0
 10
-104.812
 20
-49.5059
 11
-104.438
 21
-49.5531
  0
LINE
  8
0
 10
-104.438
 20
-49.5531
 11
-104.073
 21
-49.6468
  0
LINE
  8
0
 10
-104.073
 20
-49.6468
 11
-103.723
 21
-49.7855
  0
LINE
  8
0
 10
-103.723
 20
-49.7855
 11
-103.393
 21
-49.967
  0
LINE
  8
0
 10
-103.393
 20
-49.967
 11
-103.088
 21
-50.1885
  0
LINE
  8
0
 10
-103.088
 20
-50.1885
 11
-102.813
 21
-50.4464
  0
LINE
  8
0
 10
-102.813
 20
-50.4464
 11
-102.573
 21
-50.7366
  0
LINE
  8
0
 10
-102.573
 20
-50.7366
 11
-102.371
 21
-51.0547
  0
LINE
  8
0
 10
-102.371
 20
-51.0547
 11
-102.211
 21
-51.3956
  0
LINE
  8
0
 10
-102.211
 20
-51.3956
 11
-102.094
 21
-51.7539
  0
LINE
  8
0
 10
-102.094
 20
-51.7539
 11
-102.024
 21
-52.124
  0
LINE
  8
0
 10
-102.024
 20
-52.124
 11
-102
 21
-52.5
  0
LINE
  8
0
 10
-102
 20
-52.5
 11
-102.024
 21
-52.876
  0
LINE
  8
0
 10
-102.024
 20
-52.876
 11
-102.094
 21
-53.2461
  0
LINE
  8
0
 10
-102.094
 20
-53.2461
 11
-102.211
 21
-53.6044
  0
LINE
  8
0
 10
-102.211
 20
-53.6044
 11
-102.371
 21
-53.9453
  0
LINE
  8
0
 10
-102.371
 20
-53.9453
 11
-102.573
 21
-54.2634
  0
LINE
  8
0
 10
-102.573
 20
-54.2634
 11
-102.813
 21
-54.5536
  0
LINE
  8
0
 10
-102.813
 20
-54.5536
 11
-103.088
 21
-54.8115
  0
LINE
  8
0
 10
-103.088
 20
-54.8115
 11
-103.393
 21
-55.033
  0
LINE
  8
0
 10
-103.393
 20
-55.033
 11
-103.723
 21
-55.2145
  0
LINE
  8
0
 10
-103.723
 20
-55.2145
 11
-104.073
 21
-55.3532
  0
LINE
  8
0
 10
-104.073
 20
-55.3532
 11
-104.438
 21
-55.4469
  0
LINE
  8
0
 10
-104.438
 20
-55.4469
 11
-104.812
 21
-55.4941
  0
LINE
  8
0
 10
-104.812
 20
-55.4941
 11
-105.188
 21
-55.4941
  0
ENDSEC
  0
SECTION
  2
OBJECTS
  0
DICTIONARY
  0
ENDSEC
  0
EOF
