  0
SECTION
  2
BLOCKS
  0
ENDSEC
  0
SECTION
  2
ENTITIES
  0
LINE
  8
0
 10
107.937
 20
-44.4114
 11
108.545
 21
-44.2553
  0
LINE
  8
0
 10
108.545
 20
-44.2553
 11
109.129
 21
-44.0241
  0
LINE
  8
0
 10
109.129
 20
-44.0241
 11
109.679
 21
-43.7216
  0
LINE
  8
0
 10
109.679
 20
-43.7216
 11
110.187
 21
-43.3526
  0
LINE
  8
0
 10
110.187
 20
-43.3526
 11
110.645
 21
-42.9227
  0
LINE
  8
0
 10
110.645
 20
-42.9227
 11
111.045
 21
-42.4389
  0
LINE
  8
0
 10
111.045
 20
-42.4389
 11
111.382
 21
-41.9088
  0
LINE
  8
0
 10
111.382
 20
-41.9088
 11
111.649
 21
-41.3406
  0
LINE
  8
0
 10
111.649
 20
-41.3406
 11
111.843
 21
-40.7434
  0
LINE
  8
0
 10
111.843
 20
-40.7434
 11
111.961
 21
-40.1267
  0
LINE
  8
0
 10
111.961
 20
-40.1267
 11
112
 21
-39.5
  0
LINE
  8
0
 10
112
 20
-39.5
 11
112
 21
39.5
  0
LINE
  8
0
 10
112
 20
39.5
 11
111.961
 21
40.1267
  0
LINE
  8
0
 10
111.961
 20
40.1267
 11
111.843
 21
40.7434
  0
LINE
  8
0
 10
111.843
 20
40.7434
 11
111.649
 21
41.3406
  0
LINE
  8
0
 10
111.649
 20
41.3406
 11
111.382
 21
41.9088
  0
LINE
  8
0
 10
111.382
 20
41.9088
 11
111.045
 21
42.4389
  0
LINE
  8
0
 10
111.045
 20
42.4389
 11
110.645
 21
42.9227
  0
LINE
  8
0
 10
110.645
 20
42.9227
 11
110.187
 21
43.3526
  0
LINE
  8
0
 10
110.187
 20
43.3526
 11
109.679
 21
43.7216
  0
LINE
  8
0
 10
109.679
 20
43.7216
 11
109.129
 21
44.0241
  0
LINE
  8
0
 10
109.129
 20
44.0241
 11
108.545
 21
44.2553
  0
LINE
  8
0
 10
108.545
 20
44.2553
 11
107.937
 21
44.4114
  0
LINE
  8
0
 10
107.937
 20
44.4114
 11
107.314
 21
44.4901
  0
LINE
  8
0
 10
107.314
 20
44.4901
 11
-107.314
 21
44.4901
  0
LINE
  8
0
 10
-107.314
 20
44.4901
 11
-107.937
 21
44.4114
  0
LINE
  8
0
 10
-107.937
 20
44.4114
 11
-108.545
 21
44.2553
  0
LINE
  8
0
 10
-108.545
 20
44.2553
 11
-109.129
 21
44.0241
  0
LINE
  8
0
 10
-109.129
 20
44.0241
 11
-109.679
 21
43.7216
  0
LINE
  8
0
 10
-109.679
 20
43.7216
 11
-110.187
 21
43.3526
  0
LINE
  8
0
 10
-110.187
 20
43.3526
 11
-110.645
 21
42.9227
  0
LINE
  8
0
 10
-110.645
 20
42.9227
 11
-111.045
 21
42.4389
  0
LINE
  8
0
 10
-111.045
 20
42.4389
 11
-111.382
 21
41.9088
  0
LINE
  8
0
 10
-111.382
 20
41.9088
 11
-111.649
 21
41.3406
  0
LINE
  8
0
 10
-111.649
 20
41.3406
 11
-111.843
 21
40.7434
  0
LINE
  8
0
 10
-111.843
 20
40.7434
 11
-111.961
 21
40.1267
  0
LINE
  8
0
 10
-111.961
 20
40.1267
 11
-112
 21
39.5
  0
LINE
  8
0
 10
-112
 20
39.5
 11
-112
 21
-39.5
  0
LINE
  8
0
 10
-112
 20
-39.5
 11
-111.961
 21
-40.1267
  0
LINE
  8
0
 10
-111.961
 20
-40.1267
 11
-111.843
 21
-40.7434
  0
LINE
  8
0
 10
-111.843
 20
-40.7434
 11
-111.649
 21
-41.3406
  0
LINE
  8
0
 10
-111.649
 20
-41.3406
 11
-111.382
 21
-41.9088
  0
LINE
  8
0
 10
-111.382
 20
-41.9088
 11
-111.045
 21
-42.4389
  0
LINE
  8
0
 10
-111.045
 20
-42.4389
 11
-110.645
 21
-42.9227
  0
LINE
  8
0
 10
-110.645
 20
-42.9227
 11
-110.187
 21
-43.3526
  0
LINE
  8
0
 10
-110.187
 20
-43.3526
 11
-109.679
 21
-43.7216
  0
LINE
  8
0
 10
-109.679
 20
-43.7216
 11
-109.129
 21
-44.0241
  0
LINE
  8
0
 10
-109.129
 20
-44.0241
 11
-108.545
 21
-44.2553
  0
LINE
  8
0
 10
-108.545
 20
-44.2553
 11
-107.937
 21
-44.4114
  0
LINE
  8
0
 10
-107.937
 20
-44.4114
 11
-107.314
 21
-44.4901
  0
LINE
  8
0
 10
-107.314
 20
-44.4901
 11
107.314
 21
-44.4901
  0
LINE
  8
0
 10
107.314
 20
-44.4901
 11
107.937
 21
-44.4114
  0
LINE
  8
0
 10
-105.188
 20
34.5059
 11
-105.562
 21
34.5531
  0
LINE
  8
0
 10
-105.562
 20
34.5531
 11
-105.927
 21
34.6468
  0
LINE
  8
0
 10
-105.927
 20
34.6468
 11
-106.277
 21
34.7855
  0
LINE
  8
0
 10
-106.277
 20
34.7855
 11
-106.607
 21
34.967
  0
LINE
  8
0
 10
-106.607
 20
34.967
 11
-106.912
 21
35.1885
  0
LINE
  8
0
 10
-106.912
 20
35.1885
 11
-107.187
 21
35.4464
  0
LINE
  8
0
 10
-107.187
 20
35.4464
 11
-107.427
 21
35.7366
  0
LINE
  8
0
 10
-107.427
 20
35.7366
 11
-107.629
 21
36.0547
  0
LINE
  8
0
 10
-107.629
 20
36.0547
 11
-107.789
 21
36.3956
  0
LINE
  8
0
 10
-107.789
 20
36.3956
 11
-107.906
 21
36.7539
  0
LINE
  8
0
 10
-107.906
 20
36.7539
 11
-107.976
 21
37.124
  0
LINE
  8
0
 10
-107.976
 20
37.124
 11
-108
 21
37.5
  0
LINE
  8
0
 10
-108
 20
37.5
 11
-107.976
 21
37.876
  0
LINE
  8
0
 10
-107.976
 20
37.876
 11
-107.906
 21
38.2461
  0
LINE
  8
0
 10
-107.906
 20
38.2461
 11
-107.789
 21
38.6044
  0
LINE
  8
0
 10
-107.789
 20
38.6044
 11
-107.629
 21
38.9453
  0
LINE
  8
0
 10
-107.629
 20
38.9453
 11
-107.427
 21
39.2634
  0
LINE
  8
0
 10
-107.427
 20
39.2634
 11
-107.187
 21
39.5536
  0
LINE
  8
0
 10
-107.187
 20
39.5536
 11
-106.912
 21
39.8115
  0
LINE
  8
0
 10
-106.912
 20
39.8115
 11
-106.607
 21
40.033
  0
LINE
  8
0
 10
-106.607
 20
40.033
 11
-106.277
 21
40.2145
  0
LINE
  8
0
 10
-106.277
 20
40.2145
 11
-105.927
 21
40.3532
  0
LINE
  8
0
 10
-105.927
 20
40.3532
 11
-105.562
 21
40.4469
  0
LINE
  8
0
 10
-105.562
 20
40.4469
 11
-105.188
 21
40.4941
  0
LINE
  8
0
 10
-105.188
 20
40.4941
 11
-104.812
 21
40.4941
  0
LINE
  8
0
 10
-104.812
 20
40.4941
 11
-104.438
 21
40.4469
  0
LINE
  8
0
 10
-104.438
 20
40.4469
 11
-104.073
 21
40.3532
  0
LINE
  8
0
 10
-104.073
 20
40.3532
 11
-103.723
 21
40.2145
  0
LINE
  8
0
 10
-103.723
 20
40.2145
 11
-103.393
 21
40.033
  0
LINE
  8
0
 10
-103.393
 20
40.033
 11
-103.088
 21
39.8115
  0
LINE
  8
0
 10
-103.088
 20
39.8115
 11
-102.813
 21
39.5536
  0
LINE
  8
0
 10
-102.813
 20
39.5536
 11
-102.573
 21
39.2634
  0
LINE
  8
0
 10
-102.573
 20
39.2634
 11
-102.371
 21
38.9453
  0
LINE
  8
0
 10
-102.371
 20
38.9453
 11
-102.211
 21
38.6044
  0
LINE
  8
0
 10
-102.211
 20
38.6044
 11
-102.094
 21
38.2461
  0
LINE
  8
0
 10
-102.094
 20
38.2461
 11
-102.024
 21
37.876
  0
LINE
  8
0
 10
-102.024
 20
37.876
 11
-102
 21
37.5
  0
LINE
  8
0
 10
-102
 20
37.5
 11
-102.024
 21
37.124
  0
LINE
  8
0
 10
-102.024
 20
37.124
 11
-102.094
 21
36.7539
  0
LINE
  8
0
 10
-102.094
 20
36.7539
 11
-102.211
 21
36.3956
  0
LINE
  8
0
 10
-102.211
 20
36.3956
 11
-102.371
 21
36.0547
  0
LINE
  8
0
 10
-102.371
 20
36.0547
 11
-102.573
 21
35.7366
  0
LINE
  8
0
 10
-102.573
 20
35.7366
 11
-102.813
 21
35.4464
  0
LINE
  8
0
 10
-102.813
 20
35.4464
 11
-103.088
 21
35.1885
  0
LINE
  8
0
 10
-103.088
 20
35.1885
 11
-103.393
 21
34.967
  0
LINE
  8
0
 10
-103.393
 20
34.967
 11
-103.723
 21
34.7855
  0
LINE
  8
0
 10
-103.723
 20
34.7855
 11
-104.073
 21
34.6468
  0
LINE
  8
0
 10
-104.073
 20
34.6468
 11
-104.438
 21
34.5531
  0
LINE
  8
0
 10
-104.438
 20
34.5531
 11
-104.812
 21
34.5059
  0
LINE
  8
0
 10
-104.812
 20
34.5059
 11
-105.188
 21
34.5059
  0
LINE
  8
0
 10
104.812
 20
34.5059
 11
104.438
 21
34.5531
  0
LINE
  8
0
 10
104.438
 20
34.5531
 11
104.073
 21
34.6468
  0
LINE
  8
0
 10
104.073
 20
34.6468
 11
103.723
 21
34.7855
  0
LINE
  8
0
 10
103.723
 20
34.7855
 11
103.393
 21
34.967
  0
LINE
  8
0
 10
103.393
 20
34.967
 11
103.088
 21
35.1885
  0
LINE
  8
0
 10
103.088
 20
35.1885
 11
102.813
 21
35.4464
  0
LINE
  8
0
 10
102.813
 20
35.4464
 11
102.573
 21
35.7366
  0
LINE
  8
0
 10
102.573
 20
35.7366
 11
102.371
 21
36.0547
  0
LINE
  8
0
 10
102.371
 20
36.0547
 11
102.211
 21
36.3956
  0
LINE
  8
0
 10
102.211
 20
36.3956
 11
102.094
 21
36.7539
  0
LINE
  8
0
 10
102.094
 20
36.7539
 11
102.024
 21
37.124
  0
LINE
  8
0
 10
102.024
 20
37.124
 11
102
 21
37.5
  0
LINE
  8
0
 10
102
 20
37.5
 11
102.024
 21
37.876
  0
LINE
  8
0
 10
102.024
 20
37.876
 11
102.094
 21
38.2461
  0
LINE
  8
0
 10
102.094
 20
38.2461
 11
102.211
 21
38.6044
  0
LINE
  8
0
 10
102.211
 20
38.6044
 11
102.371
 21
38.9453
  0
LINE
  8
0
 10
102.371
 20
38.9453
 11
102.573
 21
39.2634
  0
LINE
  8
0
 10
102.573
 20
39.2634
 11
102.813
 21
39.5536
  0
LINE
  8
0
 10
102.813
 20
39.5536
 11
103.088
 21
39.8115
  0
LINE
  8
0
 10
103.088
 20
39.8115
 11
103.393
 21
40.033
  0
LINE
  8
0
 10
103.393
 20
40.033
 11
103.723
 21
40.2145
  0
LINE
  8
0
 10
103.723
 20
40.2145
 11
104.073
 21
40.3532
  0
LINE
  8
0
 10
104.073
 20
40.3532
 11
104.438
 21
40.4469
  0
LINE
  8
0
 10
104.438
 20
40.4469
 11
104.812
 21
40.4941
  0
LINE
  8
0
 10
104.812
 20
40.4941
 11
105.188
 21
40.4941
  0
LINE
  8
0
 10
105.188
 20
40.4941
 11
105.562
 21
40.4469
  0
LINE
  8
0
 10
105.562
 20
40.4469
 11
105.927
 21
40.3532
  0
LINE
  8
0
 10
105.927
 20
40.3532
 11
106.277
 21
40.2145
  0
LINE
  8
0
 10
106.277
 20
40.2145
 11
106.607
 21
40.033
  0
LINE
  8
0
 10
106.607
 20
40.033
 11
106.912
 21
39.8115
  0
LINE
  8
0
 10
106.912
 20
39.8115
 11
107.187
 21
39.5536
  0
LINE
  8
0
 10
107.187
 20
39.5536
 11
107.427
 21
39.2634
  0
LINE
  8
0
 10
107.427
 20
39.2634
 11
107.629
 21
38.9453
  0
LINE
  8
0
 10
107.629
 20
38.9453
 11
107.789
 21
38.6044
  0
LINE
  8
0
 10
107.789
 20
38.6044
 11
107.906
 21
38.2461
  0
LINE
  8
0
 10
107.906
 20
38.2461
 11
107.976
 21
37.876
  0
LINE
  8
0
 10
107.976
 20
37.876
 11
108
 21
37.5
  0
LINE
  8
0
 10
108
 20
37.5
 11
107.976
 21
37.124
  0
LINE
  8
0
 10
107.976
 20
37.124
 11
107.906
 21
36.7539
  0
LINE
  8
0
 10
107.906
 20
36.7539
 11
107.789
 21
36.3956
  0
LINE
  8
0
 10
107.789
 20
36.3956
 11
107.629
 21
36.0547
  0
LINE
  8
0
 10
107.629
 20
36.0547
 11
107.427
 21
35.7366
  0
LINE
  8
0
 10
107.427
 20
35.7366
 11
107.187
 21
35.4464
  0
LINE
  8
0
 10
107.187
 20
35.4464
 11
106.912
 21
35.1885
  0
LINE
  8
0
 10
106.912
 20
35.1885
 11
106.607
 21
34.967
  0
LINE
  8
0
 10
106.607
 20
34.967
 11
106.277
 21
34.7855
  0
LINE
  8
0
 10
106.277
 20
34.7855
 11
105.927
 21
34.6468
  0
LINE
  8
0
 10
105.927
 20
34.6468
 11
105.562
 21
34.5531
  0
LINE
  8
0
 10
105.562
 20
34.5531
 11
105.188
 21
34.5059
  0
LINE
  8
0
 10
105.188
 20
34.5059
 11
104.812
 21
34.5059
  0
LINE
  8
0
 10
-105.188
 20
-40.4941
 11
-105.562
 21
-40.4469
  0
LINE
  8
0
 10
-105.562
 20
-40.4469
 11
-105.927
 21
-40.3532
  0
LINE
  8
0
 10
-105.927
 20
-40.3532
 11
-106.277
 21
-40.2145
  0
LINE
  8
0
 10
-106.277
 20
-40.2145
 11
-106.607
 21
-40.033
  0
LINE
  8
0
 10
-106.607
 20
-40.033
 11
-106.912
 21
-39.8115
  0
LINE
  8
0
 10
-106.912
 20
-39.8115
 11
-107.187
 21
-39.5536
  0
LINE
  8
0
 10
-107.187
 20
-39.5536
 11
-107.427
 21
-39.2634
  0
LINE
  8
0
 10
-107.427
 20
-39.2634
 11
-107.629
 21
-38.9453
  0
LINE
  8
0
 10
-107.629
 20
-38.9453
 11
-107.789
 21
-38.6044
  0
LINE
  8
0
 10
-107.789
 20
-38.6044
 11
-107.906
 21
-38.2461
  0
LINE
  8
0
 10
-107.906
 20
-38.2461
 11
-107.976
 21
-37.876
  0
LINE
  8
0
 10
-107.976
 20
-37.876
 11
-108
 21
-37.5
  0
LINE
  8
0
 10
-108
 20
-37.5
 11
-107.976
 21
-37.124
  0
LINE
  8
0
 10
-107.976
 20
-37.124
 11
-107.906
 21
-36.7539
  0
LINE
  8
0
 10
-107.906
 20
-36.7539
 11
-107.789
 21
-36.3956
  0
LINE
  8
0
 10
-107.789
 20
-36.3956
 11
-107.629
 21
-36.0547
  0
LINE
  8
0
 10
-107.629
 20
-36.0547
 11
-107.427
 21
-35.7366
  0
LINE
  8
0
 10
-107.427
 20
-35.7366
 11
-107.187
 21
-35.4464
  0
LINE
  8
0
 10
-107.187
 20
-35.4464
 11
-106.912
 21
-35.1885
  0
LINE
  8
0
 10
-106.912
 20
-35.1885
 11
-106.607
 21
-34.967
  0
LINE
  8
0
 10
-106.607
 20
-34.967
 11
-106.277
 21
-34.7855
  0
LINE
  8
0
 10
-106.277
 20
-34.7855
 11
-105.927
 21
-34.6468
  0
LINE
  8
0
 10
-105.927
 20
-34.6468
 11
-105.562
 21
-34.5531
  0
LINE
  8
0
 10
-105.562
 20
-34.5531
 11
-105.188
 21
-34.5059
  0
LINE
  8
0
 10
-105.188
 20
-34.5059
 11
-104.812
 21
-34.5059
  0
LINE
  8
0
 10
-104.812
 20
-34.5059
 11
-104.438
 21
-34.5531
  0
LINE
  8
0
 10
-104.438
 20
-34.5531
 11
-104.073
 21
-34.6468
  0
LINE
  8
0
 10
-104.073
 20
-34.6468
 11
-103.723
 21
-34.7855
  0
LINE
  8
0
 10
-103.723
 20
-34.7855
 11
-103.393
 21
-34.967
  0
LINE
  8
0
 10
-103.393
 20
-34.967
 11
-103.088
 21
-35.1885
  0
LINE
  8
0
 10
-103.088
 20
-35.1885
 11
-102.813
 21
-35.4464
  0
LINE
  8
0
 10
-102.813
 20
-35.4464
 11
-102.573
 21
-35.7366
  0
LINE
  8
0
 10
-102.573
 20
-35.7366
 11
-102.371
 21
-36.0547
  0
LINE
  8
0
 10
-102.371
 20
-36.0547
 11
-102.211
 21
-36.3956
  0
LINE
  8
0
 10
-102.211
 20
-36.3956
 11
-102.094
 21
-36.7539
  0
LINE
  8
0
 10
-102.094
 20
-36.7539
 11
-102.024
 21
-37.124
  0
LINE
  8
0
 10
-102.024
 20
-37.124
 11
-102
 21
-37.5
  0
LINE
  8
0
 10
-102
 20
-37.5
 11
-102.024
 21
-37.876
  0
LINE
  8
0
 10
-102.024
 20
-37.876
 11
-102.094
 21
-38.2461
  0
LINE
  8
0
 10
-102.094
 20
-38.2461
 11
-102.211
 21
-38.6044
  0
LINE
  8
0
 10
-102.211
 20
-38.6044
 11
-102.371
 21
-38.9453
  0
LINE
  8
0
 10
-102.371
 20
-38.9453
 11
-102.573
 21
-39.2634
  0
LINE
  8
0
 10
-102.573
 20
-39.2634
 11
-102.813
 21
-39.5536
  0
LINE
  8
0
 10
-102.813
 20
-39.5536
 11
-103.088
 21
-39.8115
  0
LINE
  8
0
 10
-103.088
 20
-39.8115
 11
-103.393
 21
-40.033
  0
LINE
  8
0
 10
-103.393
 20
-40.033
 11
-103.723
 21
-40.2145
  0
LINE
  8
0
 10
-103.723
 20
-40.2145
 11
-104.073
 21
-40.3532
  0
LINE
  8
0
 10
-104.073
 20
-40.3532
 11
-104.438
 21
-40.4469
  0
LINE
  8
0
 10
-104.438
 20
-40.4469
 11
-104.812
 21
-40.4941
  0
LINE
  8
0
 10
-104.812
 20
-40.4941
 11
-105.188
 21
-40.4941
  0
LINE
  8
0
 10
104.812
 20
-40.4941
 11
104.438
 21
-40.4469
  0
LINE
  8
0
 10
104.438
 20
-40.4469
 11
104.073
 21
-40.3532
  0
LINE
  8
0
 10
104.073
 20
-40.3532
 11
103.723
 21
-40.2145
  0
LINE
  8
0
 10
103.723
 20
-40.2145
 11
103.393
 21
-40.033
  0
LINE
  8
0
 10
103.393
 20
-40.033
 11
103.088
 21
-39.8115
  0
LINE
  8
0
 10
103.088
 20
-39.8115
 11
102.813
 21
-39.5536
  0
LINE
  8
0
 10
102.813
 20
-39.5536
 11
102.573
 21
-39.2634
  0
LINE
  8
0
 10
102.573
 20
-39.2634
 11
102.371
 21
-38.9453
  0
LINE
  8
0
 10
102.371
 20
-38.9453
 11
102.211
 21
-38.6044
  0
LINE
  8
0
 10
102.211
 20
-38.6044
 11
102.094
 21
-38.2461
  0
LINE
  8
0
 10
102.094
 20
-38.2461
 11
102.024
 21
-37.876
  0
LINE
  8
0
 10
102.024
 20
-37.876
 11
102
 21
-37.5
  0
LINE
  8
0
 10
102
 20
-37.5
 11
102.024
 21
-37.124
  0
LINE
  8
0
 10
102.024
 20
-37.124
 11
102.094
 21
-36.7539
  0
LINE
  8
0
 10
102.094
 20
-36.7539
 11
102.211
 21
-36.3956
  0
LINE
  8
0
 10
102.211
 20
-36.3956
 11
102.371
 21
-36.0547
  0
LINE
  8
0
 10
102.371
 20
-36.0547
 11
102.573
 21
-35.7366
  0
LINE
  8
0
 10
102.573
 20
-35.7366
 11
102.813
 21
-35.4464
  0
LINE
  8
0
 10
102.813
 20
-35.4464
 11
103.088
 21
-35.1885
  0
LINE
  8
0
 10
103.088
 20
-35.1885
 11
103.393
 21
-34.967
  0
LINE
  8
0
 10
103.393
 20
-34.967
 11
103.723
 21
-34.7855
  0
LINE
  8
0
 10
103.723
 20
-34.7855
 11
104.073
 21
-34.6468
  0
LINE
  8
0
 10
104.073
 20
-34.6468
 11
104.438
 21
-34.5531
  0
LINE
  8
0
 10
104.438
 20
-34.5531
 11
104.812
 21
-34.5059
  0
LINE
  8
0
 10
104.812
 20
-34.5059
 11
105.188
 21
-34.5059
  0
LINE
  8
0
 10
105.188
 20
-34.5059
 11
105.562
 21
-34.5531
  0
LINE
  8
0
 10
105.562
 20
-34.5531
 11
105.927
 21
-34.6468
  0
LINE
  8
0
 10
105.927
 20
-34.6468
 11
106.277
 21
-34.7855
  0
LINE
  8
0
 10
106.277
 20
-34.7855
 11
106.607
 21
-34.967
  0
LINE
  8
0
 10
106.607
 20
-34.967
 11
106.912
 21
-35.1885
  0
LINE
  8
0
 10
106.912
 20
-35.1885
 11
107.187
 21
-35.4464
  0
LINE
  8
0
 10
107.187
 20
-35.4464
 11
107.427
 21
-35.7366
  0
LINE
  8
0
 10
107.427
 20
-35.7366
 11
107.629
 21
-36.0547
  0
LINE
  8
0
 10
107.629
 20
-36.0547
 11
107.789
 21
-36.3956
  0
LINE
  8
0
 10
107.789
 20
-36.3956
 11
107.906
 21
-36.7539
  0
LINE
  8
0
 10
107.906
 20
-36.7539
 11
107.976
 21
-37.124
  0
LINE
  8
0
 10
107.976
 20
-37.124
 11
108
 21
-37.5
  0
LINE
  8
0
 10
108
 20
-37.5
 11
107.976
 21
-37.876
  0
LINE
  8
0
 10
107.976
 20
-37.876
 11
107.906
 21
-38.2461
  0
LINE
  8
0
 10
107.906
 20
-38.2461
 11
107.789
 21
-38.6044
  0
LINE
  8
0
 10
107.789
 20
-38.6044
 11
107.629
 21
-38.9453
  0
LINE
  8
0
 10
107.629
 20
-38.9453
 11
107.427
 21
-39.2634
  0
LINE
  8
0
 10
107.427
 20
-39.2634
 11
107.187
 21
-39.5536
  0
LINE
  8
0
 10
107.187
 20
-39.5536
 11
106.912
 21
-39.8115
  0
LINE
  8
0
 10
106.912
 20
-39.8115
 11
106.607
 21
-40.033
  0
LINE
  8
0
 10
106.607
 20
-40.033
 11
106.277
 21
-40.2145
  0
LINE
  8
0
 10
106.277
 20
-40.2145
 11
105.927
 21
-40.3532
  0
LINE
  8
0
 10
105.927
 20
-40.3532
 11
105.562
 21
-40.4469
  0
LINE
  8
0
 10
105.562
 20
-40.4469
 11
105.188
 21
-40.4941
  0
LINE
  8
0
 10
105.188
 20
-40.4941
 11
104.812
 21
-40.4941
  0
ENDSEC
  0
SECTION
  2
OBJECTS
  0
DICTIONARY
  0
ENDSEC
  0
EOF
