  0
SECTION
  2
BLOCKS
  0
ENDSEC
  0
SECTION
  2
ENTITIES
  0
LINE
  8
0
 10
32.9369
 20
194.089
 11
33.5451
 21
194.245
  0
LINE
  8
0
 10
33.5451
 20
194.245
 11
34.1289
 21
194.476
  0
LINE
  8
0
 10
34.1289
 20
194.476
 11
34.6791
 21
194.778
  0
LINE
  8
0
 10
34.6791
 20
194.778
 11
35.1871
 21
195.147
  0
LINE
  8
0
 10
35.1871
 20
195.147
 11
35.6448
 21
195.577
  0
LINE
  8
0
 10
35.6448
 20
195.577
 11
36.0451
 21
196.061
  0
LINE
  8
0
 10
36.0451
 20
196.061
 11
36.3815
 21
196.591
  0
LINE
  8
0
 10
36.3815
 20
196.591
 11
36.6489
 21
197.159
  0
LINE
  8
0
 10
36.6489
 20
197.159
 11
36.8429
 21
197.757
  0
LINE
  8
0
 10
36.8429
 20
197.757
 11
36.9606
 21
198.373
  0
LINE
  8
0
 10
36.9606
 20
198.373
 11
37
 21
199
  0
LINE
  8
0
 10
37
 20
199
 11
37
 21
233
  0
LINE
  8
0
 10
37
 20
233
 11
36.9606
 21
233.627
  0
LINE
  8
0
 10
36.9606
 20
233.627
 11
36.8429
 21
234.243
  0
LINE
  8
0
 10
36.8429
 20
234.243
 11
36.6489
 21
234.841
  0
LINE
  8
0
 10
36.6489
 20
234.841
 11
36.3815
 21
235.409
  0
LINE
  8
0
 10
36.3815
 20
235.409
 11
36.0451
 21
235.939
  0
LINE
  8
0
 10
36.0451
 20
235.939
 11
35.6448
 21
236.423
  0
LINE
  8
0
 10
35.6448
 20
236.423
 11
35.1871
 21
236.853
  0
LINE
  8
0
 10
35.1871
 20
236.853
 11
34.6791
 21
237.222
  0
LINE
  8
0
 10
34.6791
 20
237.222
 11
34.1289
 21
237.524
  0
LINE
  8
0
 10
34.1289
 20
237.524
 11
33.5451
 21
237.755
  0
LINE
  8
0
 10
33.5451
 20
237.755
 11
32.9369
 21
237.911
  0
LINE
  8
0
 10
32.9369
 20
237.911
 11
32.3139
 21
237.99
  0
LINE
  8
0
 10
32.3139
 20
237.99
 11
-32.3139
 21
237.99
  0
LINE
  8
0
 10
-32.3139
 20
237.99
 11
-32.9369
 21
237.911
  0
LINE
  8
0
 10
-32.9369
 20
237.911
 11
-33.5451
 21
237.755
  0
LINE
  8
0
 10
-33.5451
 20
237.755
 11
-34.1289
 21
237.524
  0
LINE
  8
0
 10
-34.1289
 20
237.524
 11
-34.6791
 21
237.222
  0
LINE
  8
0
 10
-34.6791
 20
237.222
 11
-35.1871
 21
236.853
  0
LINE
  8
0
 10
-35.1871
 20
236.853
 11
-35.6448
 21
236.423
  0
LINE
  8
0
 10
-35.6448
 20
236.423
 11
-36.0451
 21
235.939
  0
LINE
  8
0
 10
-36.0451
 20
235.939
 11
-36.3815
 21
235.409
  0
LINE
  8
0
 10
-36.3815
 20
235.409
 11
-36.6489
 21
234.841
  0
LINE
  8
0
 10
-36.6489
 20
234.841
 11
-36.8429
 21
234.243
  0
LINE
  8
0
 10
-36.8429
 20
234.243
 11
-36.9606
 21
233.627
  0
LINE
  8
0
 10
-36.9606
 20
233.627
 11
-37
 21
233
  0
LINE
  8
0
 10
-37
 20
233
 11
-37
 21
199
  0
LINE
  8
0
 10
-37
 20
199
 11
-36.9606
 21
198.373
  0
LINE
  8
0
 10
-36.9606
 20
198.373
 11
-36.8429
 21
197.757
  0
LINE
  8
0
 10
-36.8429
 20
197.757
 11
-36.6489
 21
197.159
  0
LINE
  8
0
 10
-36.6489
 20
197.159
 11
-36.3815
 21
196.591
  0
LINE
  8
0
 10
-36.3815
 20
196.591
 11
-36.0451
 21
196.061
  0
LINE
  8
0
 10
-36.0451
 20
196.061
 11
-35.6448
 21
195.577
  0
LINE
  8
0
 10
-35.6448
 20
195.577
 11
-35.1871
 21
195.147
  0
LINE
  8
0
 10
-35.1871
 20
195.147
 11
-34.6791
 21
194.778
  0
LINE
  8
0
 10
-34.6791
 20
194.778
 11
-34.1289
 21
194.476
  0
LINE
  8
0
 10
-34.1289
 20
194.476
 11
-33.5451
 21
194.245
  0
LINE
  8
0
 10
-33.5451
 20
194.245
 11
-32.9369
 21
194.089
  0
LINE
  8
0
 10
-32.9369
 20
194.089
 11
-32.3139
 21
194.01
  0
LINE
  8
0
 10
-32.3139
 20
194.01
 11
32.3139
 21
194.01
  0
LINE
  8
0
 10
32.3139
 20
194.01
 11
32.9369
 21
194.089
  0
LINE
  8
0
 10
-0.18837
 20
228.006
 11
-0.562134
 21
228.053
  0
LINE
  8
0
 10
-0.562134
 20
228.053
 11
-0.927048
 21
228.147
  0
LINE
  8
0
 10
-0.927048
 20
228.147
 11
-1.27733
 21
228.286
  0
LINE
  8
0
 10
-1.27733
 20
228.286
 11
-1.60747
 21
228.467
  0
LINE
  8
0
 10
-1.60747
 20
228.467
 11
-1.91226
 21
228.688
  0
LINE
  8
0
 10
-1.91226
 20
228.688
 11
-2.1869
 21
228.946
  0
LINE
  8
0
 10
-2.1869
 20
228.946
 11
-2.42705
 21
229.237
  0
LINE
  8
0
 10
-2.42705
 20
229.237
 11
-2.62891
 21
229.555
  0
LINE
  8
0
 10
-2.62891
 20
229.555
 11
-2.78932
 21
229.896
  0
LINE
  8
0
 10
-2.78932
 20
229.896
 11
-2.90575
 21
230.254
  0
LINE
  8
0
 10
-2.90575
 20
230.254
 11
-2.97633
 21
230.624
  0
LINE
  8
0
 10
-2.97633
 20
230.624
 11
-3
 21
231
  0
LINE
  8
0
 10
-3
 20
231
 11
-2.97633
 21
231.376
  0
LINE
  8
0
 10
-2.97633
 20
231.376
 11
-2.90575
 21
231.746
  0
LINE
  8
0
 10
-2.90575
 20
231.746
 11
-2.78932
 21
232.104
  0
LINE
  8
0
 10
-2.78932
 20
232.104
 11
-2.62891
 21
232.445
  0
LINE
  8
0
 10
-2.62891
 20
232.445
 11
-2.42705
 21
232.763
  0
LINE
  8
0
 10
-2.42705
 20
232.763
 11
-2.1869
 21
233.054
  0
LINE
  8
0
 10
-2.1869
 20
233.054
 11
-1.91226
 21
233.312
  0
LINE
  8
0
 10
-1.91226
 20
233.312
 11
-1.60747
 21
233.533
  0
LINE
  8
0
 10
-1.60747
 20
233.533
 11
-1.27733
 21
233.714
  0
LINE
  8
0
 10
-1.27733
 20
233.714
 11
-0.927048
 21
233.853
  0
LINE
  8
0
 10
-0.927048
 20
233.853
 11
-0.562134
 21
233.947
  0
LINE
  8
0
 10
-0.562134
 20
233.947
 11
-0.18837
 21
233.994
  0
LINE
  8
0
 10
-0.18837
 20
233.994
 11
0.18837
 21
233.994
  0
LINE
  8
0
 10
0.18837
 20
233.994
 11
0.562134
 21
233.947
  0
LINE
  8
0
 10
0.562134
 20
233.947
 11
0.927048
 21
233.853
  0
LINE
  8
0
 10
0.927048
 20
233.853
 11
1.27733
 21
233.714
  0
LINE
  8
0
 10
1.27733
 20
233.714
 11
1.60747
 21
233.533
  0
LINE
  8
0
 10
1.60747
 20
233.533
 11
1.91226
 21
233.312
  0
LINE
  8
0
 10
1.91226
 20
233.312
 11
2.1869
 21
233.054
  0
LINE
  8
0
 10
2.1869
 20
233.054
 11
2.42705
 21
232.763
  0
LINE
  8
0
 10
2.42705
 20
232.763
 11
2.62891
 21
232.445
  0
LINE
  8
0
 10
2.62891
 20
232.445
 11
2.78932
 21
232.104
  0
LINE
  8
0
 10
2.78932
 20
232.104
 11
2.90575
 21
231.746
  0
LINE
  8
0
 10
2.90575
 20
231.746
 11
2.97633
 21
231.376
  0
LINE
  8
0
 10
2.97633
 20
231.376
 11
3
 21
231
  0
LINE
  8
0
 10
3
 20
231
 11
2.97633
 21
230.624
  0
LINE
  8
0
 10
2.97633
 20
230.624
 11
2.90575
 21
230.254
  0
LINE
  8
0
 10
2.90575
 20
230.254
 11
2.78932
 21
229.896
  0
LINE
  8
0
 10
2.78932
 20
229.896
 11
2.62891
 21
229.555
  0
LINE
  8
0
 10
2.62891
 20
229.555
 11
2.42705
 21
229.237
  0
LINE
  8
0
 10
2.42705
 20
229.237
 11
2.1869
 21
228.946
  0
LINE
  8
0
 10
2.1869
 20
228.946
 11
1.91226
 21
228.688
  0
LINE
  8
0
 10
1.91226
 20
228.688
 11
1.60747
 21
228.467
  0
LINE
  8
0
 10
1.60747
 20
228.467
 11
1.27733
 21
228.286
  0
LINE
  8
0
 10
1.27733
 20
228.286
 11
0.927048
 21
228.147
  0
LINE
  8
0
 10
0.927048
 20
228.147
 11
0.562134
 21
228.053
  0
LINE
  8
0
 10
0.562134
 20
228.053
 11
0.18837
 21
228.006
  0
LINE
  8
0
 10
0.18837
 20
228.006
 11
-0.18837
 21
228.006
  0
LINE
  8
0
 10
29.8116
 20
228.006
 11
29.4379
 21
228.053
  0
LINE
  8
0
 10
29.4379
 20
228.053
 11
29.0729
 21
228.147
  0
LINE
  8
0
 10
29.0729
 20
228.147
 11
28.7227
 21
228.286
  0
LINE
  8
0
 10
28.7227
 20
228.286
 11
28.3925
 21
228.467
  0
LINE
  8
0
 10
28.3925
 20
228.467
 11
28.0877
 21
228.688
  0
LINE
  8
0
 10
28.0877
 20
228.688
 11
27.8131
 21
228.946
  0
LINE
  8
0
 10
27.8131
 20
228.946
 11
27.5729
 21
229.237
  0
LINE
  8
0
 10
27.5729
 20
229.237
 11
27.3711
 21
229.555
  0
LINE
  8
0
 10
27.3711
 20
229.555
 11
27.2107
 21
229.896
  0
LINE
  8
0
 10
27.2107
 20
229.896
 11
27.0942
 21
230.254
  0
LINE
  8
0
 10
27.0942
 20
230.254
 11
27.0237
 21
230.624
  0
LINE
  8
0
 10
27.0237
 20
230.624
 11
27
 21
231
  0
LINE
  8
0
 10
27
 20
231
 11
27.0237
 21
231.376
  0
LINE
  8
0
 10
27.0237
 20
231.376
 11
27.0942
 21
231.746
  0
LINE
  8
0
 10
27.0942
 20
231.746
 11
27.2107
 21
232.104
  0
LINE
  8
0
 10
27.2107
 20
232.104
 11
27.3711
 21
232.445
  0
LINE
  8
0
 10
27.3711
 20
232.445
 11
27.5729
 21
232.763
  0
LINE
  8
0
 10
27.5729
 20
232.763
 11
27.8131
 21
233.054
  0
LINE
  8
0
 10
27.8131
 20
233.054
 11
28.0877
 21
233.312
  0
LINE
  8
0
 10
28.0877
 20
233.312
 11
28.3925
 21
233.533
  0
LINE
  8
0
 10
28.3925
 20
233.533
 11
28.7227
 21
233.714
  0
LINE
  8
0
 10
28.7227
 20
233.714
 11
29.0729
 21
233.853
  0
LINE
  8
0
 10
29.0729
 20
233.853
 11
29.4379
 21
233.947
  0
LINE
  8
0
 10
29.4379
 20
233.947
 11
29.8116
 21
233.994
  0
LINE
  8
0
 10
29.8116
 20
233.994
 11
30.1884
 21
233.994
  0
LINE
  8
0
 10
30.1884
 20
233.994
 11
30.5621
 21
233.947
  0
LINE
  8
0
 10
30.5621
 20
233.947
 11
30.927
 21
233.853
  0
LINE
  8
0
 10
30.927
 20
233.853
 11
31.2773
 21
233.714
  0
LINE
  8
0
 10
31.2773
 20
233.714
 11
31.6075
 21
233.533
  0
LINE
  8
0
 10
31.6075
 20
233.533
 11
31.9123
 21
233.312
  0
LINE
  8
0
 10
31.9123
 20
233.312
 11
32.1869
 21
233.054
  0
LINE
  8
0
 10
32.1869
 20
233.054
 11
32.427
 21
232.763
  0
LINE
  8
0
 10
32.427
 20
232.763
 11
32.6289
 21
232.445
  0
LINE
  8
0
 10
32.6289
 20
232.445
 11
32.7893
 21
232.104
  0
LINE
  8
0
 10
32.7893
 20
232.104
 11
32.9057
 21
231.746
  0
LINE
  8
0
 10
32.9057
 20
231.746
 11
32.9763
 21
231.376
  0
LINE
  8
0
 10
32.9763
 20
231.376
 11
33
 21
231
  0
LINE
  8
0
 10
33
 20
231
 11
32.9763
 21
230.624
  0
LINE
  8
0
 10
32.9763
 20
230.624
 11
32.9057
 21
230.254
  0
LINE
  8
0
 10
32.9057
 20
230.254
 11
32.7893
 21
229.896
  0
LINE
  8
0
 10
32.7893
 20
229.896
 11
32.6289
 21
229.555
  0
LINE
  8
0
 10
32.6289
 20
229.555
 11
32.427
 21
229.237
  0
LINE
  8
0
 10
32.427
 20
229.237
 11
32.1869
 21
228.946
  0
LINE
  8
0
 10
32.1869
 20
228.946
 11
31.9123
 21
228.688
  0
LINE
  8
0
 10
31.9123
 20
228.688
 11
31.6075
 21
228.467
  0
LINE
  8
0
 10
31.6075
 20
228.467
 11
31.2773
 21
228.286
  0
LINE
  8
0
 10
31.2773
 20
228.286
 11
30.927
 21
228.147
  0
LINE
  8
0
 10
30.927
 20
228.147
 11
30.5621
 21
228.053
  0
LINE
  8
0
 10
30.5621
 20
228.053
 11
30.1884
 21
228.006
  0
LINE
  8
0
 10
30.1884
 20
228.006
 11
29.8116
 21
228.006
  0
LINE
  8
0
 10
-15.1884
 20
228.006
 11
-15.5621
 21
228.053
  0
LINE
  8
0
 10
-15.5621
 20
228.053
 11
-15.927
 21
228.147
  0
LINE
  8
0
 10
-15.927
 20
228.147
 11
-16.2773
 21
228.286
  0
LINE
  8
0
 10
-16.2773
 20
228.286
 11
-16.6075
 21
228.467
  0
LINE
  8
0
 10
-16.6075
 20
228.467
 11
-16.9123
 21
228.688
  0
LINE
  8
0
 10
-16.9123
 20
228.688
 11
-17.1869
 21
228.946
  0
LINE
  8
0
 10
-17.1869
 20
228.946
 11
-17.427
 21
229.237
  0
LINE
  8
0
 10
-17.427
 20
229.237
 11
-17.6289
 21
229.555
  0
LINE
  8
0
 10
-17.6289
 20
229.555
 11
-17.7893
 21
229.896
  0
LINE
  8
0
 10
-17.7893
 20
229.896
 11
-17.9057
 21
230.254
  0
LINE
  8
0
 10
-17.9057
 20
230.254
 11
-17.9763
 21
230.624
  0
LINE
  8
0
 10
-17.9763
 20
230.624
 11
-18
 21
231
  0
LINE
  8
0
 10
-18
 20
231
 11
-17.9763
 21
231.376
  0
LINE
  8
0
 10
-17.9763
 20
231.376
 11
-17.9057
 21
231.746
  0
LINE
  8
0
 10
-17.9057
 20
231.746
 11
-17.7893
 21
232.104
  0
LINE
  8
0
 10
-17.7893
 20
232.104
 11
-17.6289
 21
232.445
  0
LINE
  8
0
 10
-17.6289
 20
232.445
 11
-17.427
 21
232.763
  0
LINE
  8
0
 10
-17.427
 20
232.763
 11
-17.1869
 21
233.054
  0
LINE
  8
0
 10
-17.1869
 20
233.054
 11
-16.9123
 21
233.312
  0
LINE
  8
0
 10
-16.9123
 20
233.312
 11
-16.6075
 21
233.533
  0
LINE
  8
0
 10
-16.6075
 20
233.533
 11
-16.2773
 21
233.714
  0
LINE
  8
0
 10
-16.2773
 20
233.714
 11
-15.927
 21
233.853
  0
LINE
  8
0
 10
-15.927
 20
233.853
 11
-15.5621
 21
233.947
  0
LINE
  8
0
 10
-15.5621
 20
233.947
 11
-15.1884
 21
233.994
  0
LINE
  8
0
 10
-15.1884
 20
233.994
 11
-14.8116
 21
233.994
  0
LINE
  8
0
 10
-14.8116
 20
233.994
 11
-14.4379
 21
233.947
  0
LINE
  8
0
 10
-14.4379
 20
233.947
 11
-14.0729
 21
233.853
  0
LINE
  8
0
 10
-14.0729
 20
233.853
 11
-13.7227
 21
233.714
  0
LINE
  8
0
 10
-13.7227
 20
233.714
 11
-13.3925
 21
233.533
  0
LINE
  8
0
 10
-13.3925
 20
233.533
 11
-13.0877
 21
233.312
  0
LINE
  8
0
 10
-13.0877
 20
233.312
 11
-12.8131
 21
233.054
  0
LINE
  8
0
 10
-12.8131
 20
233.054
 11
-12.5729
 21
232.763
  0
LINE
  8
0
 10
-12.5729
 20
232.763
 11
-12.3711
 21
232.445
  0
LINE
  8
0
 10
-12.3711
 20
232.445
 11
-12.2107
 21
232.104
  0
LINE
  8
0
 10
-12.2107
 20
232.104
 11
-12.0942
 21
231.746
  0
LINE
  8
0
 10
-12.0942
 20
231.746
 11
-12.0237
 21
231.376
  0
LINE
  8
0
 10
-12.0237
 20
231.376
 11
-12
 21
231
  0
LINE
  8
0
 10
-12
 20
231
 11
-12.0237
 21
230.624
  0
LINE
  8
0
 10
-12.0237
 20
230.624
 11
-12.0942
 21
230.254
  0
LINE
  8
0
 10
-12.0942
 20
230.254
 11
-12.2107
 21
229.896
  0
LINE
  8
0
 10
-12.2107
 20
229.896
 11
-12.3711
 21
229.555
  0
LINE
  8
0
 10
-12.3711
 20
229.555
 11
-12.5729
 21
229.237
  0
LINE
  8
0
 10
-12.5729
 20
229.237
 11
-12.8131
 21
228.946
  0
LINE
  8
0
 10
-12.8131
 20
228.946
 11
-13.0877
 21
228.688
  0
LINE
  8
0
 10
-13.0877
 20
228.688
 11
-13.3925
 21
228.467
  0
LINE
  8
0
 10
-13.3925
 20
228.467
 11
-13.7227
 21
228.286
  0
LINE
  8
0
 10
-13.7227
 20
228.286
 11
-14.0729
 21
228.147
  0
LINE
  8
0
 10
-14.0729
 20
228.147
 11
-14.4379
 21
228.053
  0
LINE
  8
0
 10
-14.4379
 20
228.053
 11
-14.8116
 21
228.006
  0
LINE
  8
0
 10
-14.8116
 20
228.006
 11
-15.1884
 21
228.006
  0
LINE
  8
0
 10
14.8116
 20
228.006
 11
14.4379
 21
228.053
  0
LINE
  8
0
 10
14.4379
 20
228.053
 11
14.0729
 21
228.147
  0
LINE
  8
0
 10
14.0729
 20
228.147
 11
13.7227
 21
228.286
  0
LINE
  8
0
 10
13.7227
 20
228.286
 11
13.3925
 21
228.467
  0
LINE
  8
0
 10
13.3925
 20
228.467
 11
13.0877
 21
228.688
  0
LINE
  8
0
 10
13.0877
 20
228.688
 11
12.8131
 21
228.946
  0
LINE
  8
0
 10
12.8131
 20
228.946
 11
12.5729
 21
229.237
  0
LINE
  8
0
 10
12.5729
 20
229.237
 11
12.3711
 21
229.555
  0
LINE
  8
0
 10
12.3711
 20
229.555
 11
12.2107
 21
229.896
  0
LINE
  8
0
 10
12.2107
 20
229.896
 11
12.0942
 21
230.254
  0
LINE
  8
0
 10
12.0942
 20
230.254
 11
12.0237
 21
230.624
  0
LINE
  8
0
 10
12.0237
 20
230.624
 11
12
 21
231
  0
LINE
  8
0
 10
12
 20
231
 11
12.0237
 21
231.376
  0
LINE
  8
0
 10
12.0237
 20
231.376
 11
12.0942
 21
231.746
  0
LINE
  8
0
 10
12.0942
 20
231.746
 11
12.2107
 21
232.104
  0
LINE
  8
0
 10
12.2107
 20
232.104
 11
12.3711
 21
232.445
  0
LINE
  8
0
 10
12.3711
 20
232.445
 11
12.5729
 21
232.763
  0
LINE
  8
0
 10
12.5729
 20
232.763
 11
12.8131
 21
233.054
  0
LINE
  8
0
 10
12.8131
 20
233.054
 11
13.0877
 21
233.312
  0
LINE
  8
0
 10
13.0877
 20
233.312
 11
13.3925
 21
233.533
  0
LINE
  8
0
 10
13.3925
 20
233.533
 11
13.7227
 21
233.714
  0
LINE
  8
0
 10
13.7227
 20
233.714
 11
14.0729
 21
233.853
  0
LINE
  8
0
 10
14.0729
 20
233.853
 11
14.4379
 21
233.947
  0
LINE
  8
0
 10
14.4379
 20
233.947
 11
14.8116
 21
233.994
  0
LINE
  8
0
 10
14.8116
 20
233.994
 11
15.1884
 21
233.994
  0
LINE
  8
0
 10
15.1884
 20
233.994
 11
15.5621
 21
233.947
  0
LINE
  8
0
 10
15.5621
 20
233.947
 11
15.927
 21
233.853
  0
LINE
  8
0
 10
15.927
 20
233.853
 11
16.2773
 21
233.714
  0
LINE
  8
0
 10
16.2773
 20
233.714
 11
16.6075
 21
233.533
  0
LINE
  8
0
 10
16.6075
 20
233.533
 11
16.9123
 21
233.312
  0
LINE
  8
0
 10
16.9123
 20
233.312
 11
17.1869
 21
233.054
  0
LINE
  8
0
 10
17.1869
 20
233.054
 11
17.427
 21
232.763
  0
LINE
  8
0
 10
17.427
 20
232.763
 11
17.6289
 21
232.445
  0
LINE
  8
0
 10
17.6289
 20
232.445
 11
17.7893
 21
232.104
  0
LINE
  8
0
 10
17.7893
 20
232.104
 11
17.9057
 21
231.746
  0
LINE
  8
0
 10
17.9057
 20
231.746
 11
17.9763
 21
231.376
  0
LINE
  8
0
 10
17.9763
 20
231.376
 11
18
 21
231
  0
LINE
  8
0
 10
18
 20
231
 11
17.9763
 21
230.624
  0
LINE
  8
0
 10
17.9763
 20
230.624
 11
17.9057
 21
230.254
  0
LINE
  8
0
 10
17.9057
 20
230.254
 11
17.7893
 21
229.896
  0
LINE
  8
0
 10
17.7893
 20
229.896
 11
17.6289
 21
229.555
  0
LINE
  8
0
 10
17.6289
 20
229.555
 11
17.427
 21
229.237
  0
LINE
  8
0
 10
17.427
 20
229.237
 11
17.1869
 21
228.946
  0
LINE
  8
0
 10
17.1869
 20
228.946
 11
16.9123
 21
228.688
  0
LINE
  8
0
 10
16.9123
 20
228.688
 11
16.6075
 21
228.467
  0
LINE
  8
0
 10
16.6075
 20
228.467
 11
16.2773
 21
228.286
  0
LINE
  8
0
 10
16.2773
 20
228.286
 11
15.927
 21
228.147
  0
LINE
  8
0
 10
15.927
 20
228.147
 11
15.5621
 21
228.053
  0
LINE
  8
0
 10
15.5621
 20
228.053
 11
15.1884
 21
228.006
  0
LINE
  8
0
 10
15.1884
 20
228.006
 11
14.8116
 21
228.006
  0
LINE
  8
0
 10
-30.1884
 20
228.006
 11
-30.5621
 21
228.053
  0
LINE
  8
0
 10
-30.5621
 20
228.053
 11
-30.927
 21
228.147
  0
LINE
  8
0
 10
-30.927
 20
228.147
 11
-31.2773
 21
228.286
  0
LINE
  8
0
 10
-31.2773
 20
228.286
 11
-31.6075
 21
228.467
  0
LINE
  8
0
 10
-31.6075
 20
228.467
 11
-31.9123
 21
228.688
  0
LINE
  8
0
 10
-31.9123
 20
228.688
 11
-32.1869
 21
228.946
  0
LINE
  8
0
 10
-32.1869
 20
228.946
 11
-32.427
 21
229.237
  0
LINE
  8
0
 10
-32.427
 20
229.237
 11
-32.6289
 21
229.555
  0
LINE
  8
0
 10
-32.6289
 20
229.555
 11
-32.7893
 21
229.896
  0
LINE
  8
0
 10
-32.7893
 20
229.896
 11
-32.9057
 21
230.254
  0
LINE
  8
0
 10
-32.9057
 20
230.254
 11
-32.9763
 21
230.624
  0
LINE
  8
0
 10
-32.9763
 20
230.624
 11
-33
 21
231
  0
LINE
  8
0
 10
-33
 20
231
 11
-32.9763
 21
231.376
  0
LINE
  8
0
 10
-32.9763
 20
231.376
 11
-32.9057
 21
231.746
  0
LINE
  8
0
 10
-32.9057
 20
231.746
 11
-32.7893
 21
232.104
  0
LINE
  8
0
 10
-32.7893
 20
232.104
 11
-32.6289
 21
232.445
  0
LINE
  8
0
 10
-32.6289
 20
232.445
 11
-32.427
 21
232.763
  0
LINE
  8
0
 10
-32.427
 20
232.763
 11
-32.1869
 21
233.054
  0
LINE
  8
0
 10
-32.1869
 20
233.054
 11
-31.9123
 21
233.312
  0
LINE
  8
0
 10
-31.9123
 20
233.312
 11
-31.6075
 21
233.533
  0
LINE
  8
0
 10
-31.6075
 20
233.533
 11
-31.2773
 21
233.714
  0
LINE
  8
0
 10
-31.2773
 20
233.714
 11
-30.927
 21
233.853
  0
LINE
  8
0
 10
-30.927
 20
233.853
 11
-30.5621
 21
233.947
  0
LINE
  8
0
 10
-30.5621
 20
233.947
 11
-30.1884
 21
233.994
  0
LINE
  8
0
 10
-30.1884
 20
233.994
 11
-29.8116
 21
233.994
  0
LINE
  8
0
 10
-29.8116
 20
233.994
 11
-29.4379
 21
233.947
  0
LINE
  8
0
 10
-29.4379
 20
233.947
 11
-29.0729
 21
233.853
  0
LINE
  8
0
 10
-29.0729
 20
233.853
 11
-28.7227
 21
233.714
  0
LINE
  8
0
 10
-28.7227
 20
233.714
 11
-28.3925
 21
233.533
  0
LINE
  8
0
 10
-28.3925
 20
233.533
 11
-28.0877
 21
233.312
  0
LINE
  8
0
 10
-28.0877
 20
233.312
 11
-27.8131
 21
233.054
  0
LINE
  8
0
 10
-27.8131
 20
233.054
 11
-27.5729
 21
232.763
  0
LINE
  8
0
 10
-27.5729
 20
232.763
 11
-27.3711
 21
232.445
  0
LINE
  8
0
 10
-27.3711
 20
232.445
 11
-27.2107
 21
232.104
  0
LINE
  8
0
 10
-27.2107
 20
232.104
 11
-27.0942
 21
231.746
  0
LINE
  8
0
 10
-27.0942
 20
231.746
 11
-27.0237
 21
231.376
  0
LINE
  8
0
 10
-27.0237
 20
231.376
 11
-27
 21
231
  0
LINE
  8
0
 10
-27
 20
231
 11
-27.0237
 21
230.624
  0
LINE
  8
0
 10
-27.0237
 20
230.624
 11
-27.0942
 21
230.254
  0
LINE
  8
0
 10
-27.0942
 20
230.254
 11
-27.2107
 21
229.896
  0
LINE
  8
0
 10
-27.2107
 20
229.896
 11
-27.3711
 21
229.555
  0
LINE
  8
0
 10
-27.3711
 20
229.555
 11
-27.5729
 21
229.237
  0
LINE
  8
0
 10
-27.5729
 20
229.237
 11
-27.8131
 21
228.946
  0
LINE
  8
0
 10
-27.8131
 20
228.946
 11
-28.0877
 21
228.688
  0
LINE
  8
0
 10
-28.0877
 20
228.688
 11
-28.3925
 21
228.467
  0
LINE
  8
0
 10
-28.3925
 20
228.467
 11
-28.7227
 21
228.286
  0
LINE
  8
0
 10
-28.7227
 20
228.286
 11
-29.0729
 21
228.147
  0
LINE
  8
0
 10
-29.0729
 20
228.147
 11
-29.4379
 21
228.053
  0
LINE
  8
0
 10
-29.4379
 20
228.053
 11
-29.8116
 21
228.006
  0
LINE
  8
0
 10
-29.8116
 20
228.006
 11
-30.1884
 21
228.006
  0
LINE
  8
0
 10
-30.1884
 20
213.006
 11
-30.5621
 21
213.053
  0
LINE
  8
0
 10
-30.5621
 20
213.053
 11
-30.927
 21
213.147
  0
LINE
  8
0
 10
-30.927
 20
213.147
 11
-31.2773
 21
213.286
  0
LINE
  8
0
 10
-31.2773
 20
213.286
 11
-31.6075
 21
213.467
  0
LINE
  8
0
 10
-31.6075
 20
213.467
 11
-31.9123
 21
213.688
  0
LINE
  8
0
 10
-31.9123
 20
213.688
 11
-32.1869
 21
213.946
  0
LINE
  8
0
 10
-32.1869
 20
213.946
 11
-32.427
 21
214.237
  0
LINE
  8
0
 10
-32.427
 20
214.237
 11
-32.6289
 21
214.555
  0
LINE
  8
0
 10
-32.6289
 20
214.555
 11
-32.7893
 21
214.896
  0
LINE
  8
0
 10
-32.7893
 20
214.896
 11
-32.9057
 21
215.254
  0
LINE
  8
0
 10
-32.9057
 20
215.254
 11
-32.9763
 21
215.624
  0
LINE
  8
0
 10
-32.9763
 20
215.624
 11
-33
 21
216
  0
LINE
  8
0
 10
-33
 20
216
 11
-32.9763
 21
216.376
  0
LINE
  8
0
 10
-32.9763
 20
216.376
 11
-32.9057
 21
216.746
  0
LINE
  8
0
 10
-32.9057
 20
216.746
 11
-32.7893
 21
217.104
  0
LINE
  8
0
 10
-32.7893
 20
217.104
 11
-32.6289
 21
217.445
  0
LINE
  8
0
 10
-32.6289
 20
217.445
 11
-32.427
 21
217.763
  0
LINE
  8
0
 10
-32.427
 20
217.763
 11
-32.1869
 21
218.054
  0
LINE
  8
0
 10
-32.1869
 20
218.054
 11
-31.9123
 21
218.312
  0
LINE
  8
0
 10
-31.9123
 20
218.312
 11
-31.6075
 21
218.533
  0
LINE
  8
0
 10
-31.6075
 20
218.533
 11
-31.2773
 21
218.714
  0
LINE
  8
0
 10
-31.2773
 20
218.714
 11
-30.927
 21
218.853
  0
LINE
  8
0
 10
-30.927
 20
218.853
 11
-30.5621
 21
218.947
  0
LINE
  8
0
 10
-30.5621
 20
218.947
 11
-30.1884
 21
218.994
  0
LINE
  8
0
 10
-30.1884
 20
218.994
 11
-29.8116
 21
218.994
  0
LINE
  8
0
 10
-29.8116
 20
218.994
 11
-29.4379
 21
218.947
  0
LINE
  8
0
 10
-29.4379
 20
218.947
 11
-29.0729
 21
218.853
  0
LINE
  8
0
 10
-29.0729
 20
218.853
 11
-28.7227
 21
218.714
  0
LINE
  8
0
 10
-28.7227
 20
218.714
 11
-28.3925
 21
218.533
  0
LINE
  8
0
 10
-28.3925
 20
218.533
 11
-28.0877
 21
218.312
  0
LINE
  8
0
 10
-28.0877
 20
218.312
 11
-27.8131
 21
218.054
  0
LINE
  8
0
 10
-27.8131
 20
218.054
 11
-27.5729
 21
217.763
  0
LINE
  8
0
 10
-27.5729
 20
217.763
 11
-27.3711
 21
217.445
  0
LINE
  8
0
 10
-27.3711
 20
217.445
 11
-27.2107
 21
217.104
  0
LINE
  8
0
 10
-27.2107
 20
217.104
 11
-27.0942
 21
216.746
  0
LINE
  8
0
 10
-27.0942
 20
216.746
 11
-27.0237
 21
216.376
  0
LINE
  8
0
 10
-27.0237
 20
216.376
 11
-27
 21
216
  0
LINE
  8
0
 10
-27
 20
216
 11
-27.0237
 21
215.624
  0
LINE
  8
0
 10
-27.0237
 20
215.624
 11
-27.0942
 21
215.254
  0
LINE
  8
0
 10
-27.0942
 20
215.254
 11
-27.2107
 21
214.896
  0
LINE
  8
0
 10
-27.2107
 20
214.896
 11
-27.3711
 21
214.555
  0
LINE
  8
0
 10
-27.3711
 20
214.555
 11
-27.5729
 21
214.237
  0
LINE
  8
0
 10
-27.5729
 20
214.237
 11
-27.8131
 21
213.946
  0
LINE
  8
0
 10
-27.8131
 20
213.946
 11
-28.0877
 21
213.688
  0
LINE
  8
0
 10
-28.0877
 20
213.688
 11
-28.3925
 21
213.467
  0
LINE
  8
0
 10
-28.3925
 20
213.467
 11
-28.7227
 21
213.286
  0
LINE
  8
0
 10
-28.7227
 20
213.286
 11
-29.0729
 21
213.147
  0
LINE
  8
0
 10
-29.0729
 20
213.147
 11
-29.4379
 21
213.053
  0
LINE
  8
0
 10
-29.4379
 20
213.053
 11
-29.8116
 21
213.006
  0
LINE
  8
0
 10
-29.8116
 20
213.006
 11
-30.1884
 21
213.006
  0
LINE
  8
0
 10
29.8116
 20
213.006
 11
29.4379
 21
213.053
  0
LINE
  8
0
 10
29.4379
 20
213.053
 11
29.0729
 21
213.147
  0
LINE
  8
0
 10
29.0729
 20
213.147
 11
28.7227
 21
213.286
  0
LINE
  8
0
 10
28.7227
 20
213.286
 11
28.3925
 21
213.467
  0
LINE
  8
0
 10
28.3925
 20
213.467
 11
28.0877
 21
213.688
  0
LINE
  8
0
 10
28.0877
 20
213.688
 11
27.8131
 21
213.946
  0
LINE
  8
0
 10
27.8131
 20
213.946
 11
27.5729
 21
214.237
  0
LINE
  8
0
 10
27.5729
 20
214.237
 11
27.3711
 21
214.555
  0
LINE
  8
0
 10
27.3711
 20
214.555
 11
27.2107
 21
214.896
  0
LINE
  8
0
 10
27.2107
 20
214.896
 11
27.0942
 21
215.254
  0
LINE
  8
0
 10
27.0942
 20
215.254
 11
27.0237
 21
215.624
  0
LINE
  8
0
 10
27.0237
 20
215.624
 11
27
 21
216
  0
LINE
  8
0
 10
27
 20
216
 11
27.0237
 21
216.376
  0
LINE
  8
0
 10
27.0237
 20
216.376
 11
27.0942
 21
216.746
  0
LINE
  8
0
 10
27.0942
 20
216.746
 11
27.2107
 21
217.104
  0
LINE
  8
0
 10
27.2107
 20
217.104
 11
27.3711
 21
217.445
  0
LINE
  8
0
 10
27.3711
 20
217.445
 11
27.5729
 21
217.763
  0
LINE
  8
0
 10
27.5729
 20
217.763
 11
27.8131
 21
218.054
  0
LINE
  8
0
 10
27.8131
 20
218.054
 11
28.0877
 21
218.312
  0
LINE
  8
0
 10
28.0877
 20
218.312
 11
28.3925
 21
218.533
  0
LINE
  8
0
 10
28.3925
 20
218.533
 11
28.7227
 21
218.714
  0
LINE
  8
0
 10
28.7227
 20
218.714
 11
29.0729
 21
218.853
  0
LINE
  8
0
 10
29.0729
 20
218.853
 11
29.4379
 21
218.947
  0
LINE
  8
0
 10
29.4379
 20
218.947
 11
29.8116
 21
218.994
  0
LINE
  8
0
 10
29.8116
 20
218.994
 11
30.1884
 21
218.994
  0
LINE
  8
0
 10
30.1884
 20
218.994
 11
30.5621
 21
218.947
  0
LINE
  8
0
 10
30.5621
 20
218.947
 11
30.927
 21
218.853
  0
LINE
  8
0
 10
30.927
 20
218.853
 11
31.2773
 21
218.714
  0
LINE
  8
0
 10
31.2773
 20
218.714
 11
31.6075
 21
218.533
  0
LINE
  8
0
 10
31.6075
 20
218.533
 11
31.9123
 21
218.312
  0
LINE
  8
0
 10
31.9123
 20
218.312
 11
32.1869
 21
218.054
  0
LINE
  8
0
 10
32.1869
 20
218.054
 11
32.427
 21
217.763
  0
LINE
  8
0
 10
32.427
 20
217.763
 11
32.6289
 21
217.445
  0
LINE
  8
0
 10
32.6289
 20
217.445
 11
32.7893
 21
217.104
  0
LINE
  8
0
 10
32.7893
 20
217.104
 11
32.9057
 21
216.746
  0
LINE
  8
0
 10
32.9057
 20
216.746
 11
32.9763
 21
216.376
  0
LINE
  8
0
 10
32.9763
 20
216.376
 11
33
 21
216
  0
LINE
  8
0
 10
33
 20
216
 11
32.9763
 21
215.624
  0
LINE
  8
0
 10
32.9763
 20
215.624
 11
32.9057
 21
215.254
  0
LINE
  8
0
 10
32.9057
 20
215.254
 11
32.7893
 21
214.896
  0
LINE
  8
0
 10
32.7893
 20
214.896
 11
32.6289
 21
214.555
  0
LINE
  8
0
 10
32.6289
 20
214.555
 11
32.427
 21
214.237
  0
LINE
  8
0
 10
32.427
 20
214.237
 11
32.1869
 21
213.946
  0
LINE
  8
0
 10
32.1869
 20
213.946
 11
31.9123
 21
213.688
  0
LINE
  8
0
 10
31.9123
 20
213.688
 11
31.6075
 21
213.467
  0
LINE
  8
0
 10
31.6075
 20
213.467
 11
31.2773
 21
213.286
  0
LINE
  8
0
 10
31.2773
 20
213.286
 11
30.927
 21
213.147
  0
LINE
  8
0
 10
30.927
 20
213.147
 11
30.5621
 21
213.053
  0
LINE
  8
0
 10
30.5621
 20
213.053
 11
30.1884
 21
213.006
  0
LINE
  8
0
 10
30.1884
 20
213.006
 11
29.8116
 21
213.006
  0
LINE
  8
0
 10
-0.18837
 20
213.006
 11
-0.562134
 21
213.053
  0
LINE
  8
0
 10
-0.562134
 20
213.053
 11
-0.927048
 21
213.147
  0
LINE
  8
0
 10
-0.927048
 20
213.147
 11
-1.27733
 21
213.286
  0
LINE
  8
0
 10
-1.27733
 20
213.286
 11
-1.60747
 21
213.467
  0
LINE
  8
0
 10
-1.60747
 20
213.467
 11
-1.91226
 21
213.688
  0
LINE
  8
0
 10
-1.91226
 20
213.688
 11
-2.1869
 21
213.946
  0
LINE
  8
0
 10
-2.1869
 20
213.946
 11
-2.42705
 21
214.237
  0
LINE
  8
0
 10
-2.42705
 20
214.237
 11
-2.62891
 21
214.555
  0
LINE
  8
0
 10
-2.62891
 20
214.555
 11
-2.78932
 21
214.896
  0
LINE
  8
0
 10
-2.78932
 20
214.896
 11
-2.90575
 21
215.254
  0
LINE
  8
0
 10
-2.90575
 20
215.254
 11
-2.97633
 21
215.624
  0
LINE
  8
0
 10
-2.97633
 20
215.624
 11
-3
 21
216
  0
LINE
  8
0
 10
-3
 20
216
 11
-2.97633
 21
216.376
  0
LINE
  8
0
 10
-2.97633
 20
216.376
 11
-2.90575
 21
216.746
  0
LINE
  8
0
 10
-2.90575
 20
216.746
 11
-2.78932
 21
217.104
  0
LINE
  8
0
 10
-2.78932
 20
217.104
 11
-2.62891
 21
217.445
  0
LINE
  8
0
 10
-2.62891
 20
217.445
 11
-2.42705
 21
217.763
  0
LINE
  8
0
 10
-2.42705
 20
217.763
 11
-2.1869
 21
218.054
  0
LINE
  8
0
 10
-2.1869
 20
218.054
 11
-1.91226
 21
218.312
  0
LINE
  8
0
 10
-1.91226
 20
218.312
 11
-1.60747
 21
218.533
  0
LINE
  8
0
 10
-1.60747
 20
218.533
 11
-1.27733
 21
218.714
  0
LINE
  8
0
 10
-1.27733
 20
218.714
 11
-0.927048
 21
218.853
  0
LINE
  8
0
 10
-0.927048
 20
218.853
 11
-0.562134
 21
218.947
  0
LINE
  8
0
 10
-0.562134
 20
218.947
 11
-0.18837
 21
218.994
  0
LINE
  8
0
 10
-0.18837
 20
218.994
 11
0.18837
 21
218.994
  0
LINE
  8
0
 10
0.18837
 20
218.994
 11
0.562134
 21
218.947
  0
LINE
  8
0
 10
0.562134
 20
218.947
 11
0.927048
 21
218.853
  0
LINE
  8
0
 10
0.927048
 20
218.853
 11
1.27733
 21
218.714
  0
LINE
  8
0
 10
1.27733
 20
218.714
 11
1.60747
 21
218.533
  0
LINE
  8
0
 10
1.60747
 20
218.533
 11
1.91226
 21
218.312
  0
LINE
  8
0
 10
1.91226
 20
218.312
 11
2.1869
 21
218.054
  0
LINE
  8
0
 10
2.1869
 20
218.054
 11
2.42705
 21
217.763
  0
LINE
  8
0
 10
2.42705
 20
217.763
 11
2.62891
 21
217.445
  0
LINE
  8
0
 10
2.62891
 20
217.445
 11
2.78932
 21
217.104
  0
LINE
  8
0
 10
2.78932
 20
217.104
 11
2.90575
 21
216.746
  0
LINE
  8
0
 10
2.90575
 20
216.746
 11
2.97633
 21
216.376
  0
LINE
  8
0
 10
2.97633
 20
216.376
 11
3
 21
216
  0
LINE
  8
0
 10
3
 20
216
 11
2.97633
 21
215.624
  0
LINE
  8
0
 10
2.97633
 20
215.624
 11
2.90575
 21
215.254
  0
LINE
  8
0
 10
2.90575
 20
215.254
 11
2.78932
 21
214.896
  0
LINE
  8
0
 10
2.78932
 20
214.896
 11
2.62891
 21
214.555
  0
LINE
  8
0
 10
2.62891
 20
214.555
 11
2.42705
 21
214.237
  0
LINE
  8
0
 10
2.42705
 20
214.237
 11
2.1869
 21
213.946
  0
LINE
  8
0
 10
2.1869
 20
213.946
 11
1.91226
 21
213.688
  0
LINE
  8
0
 10
1.91226
 20
213.688
 11
1.60747
 21
213.467
  0
LINE
  8
0
 10
1.60747
 20
213.467
 11
1.27733
 21
213.286
  0
LINE
  8
0
 10
1.27733
 20
213.286
 11
0.927048
 21
213.147
  0
LINE
  8
0
 10
0.927048
 20
213.147
 11
0.562134
 21
213.053
  0
LINE
  8
0
 10
0.562134
 20
213.053
 11
0.18837
 21
213.006
  0
LINE
  8
0
 10
0.18837
 20
213.006
 11
-0.18837
 21
213.006
  0
LINE
  8
0
 10
14.8116
 20
213.006
 11
14.4379
 21
213.053
  0
LINE
  8
0
 10
14.4379
 20
213.053
 11
14.0729
 21
213.147
  0
LINE
  8
0
 10
14.0729
 20
213.147
 11
13.7227
 21
213.286
  0
LINE
  8
0
 10
13.7227
 20
213.286
 11
13.3925
 21
213.467
  0
LINE
  8
0
 10
13.3925
 20
213.467
 11
13.0877
 21
213.688
  0
LINE
  8
0
 10
13.0877
 20
213.688
 11
12.8131
 21
213.946
  0
LINE
  8
0
 10
12.8131
 20
213.946
 11
12.5729
 21
214.237
  0
LINE
  8
0
 10
12.5729
 20
214.237
 11
12.3711
 21
214.555
  0
LINE
  8
0
 10
12.3711
 20
214.555
 11
12.2107
 21
214.896
  0
LINE
  8
0
 10
12.2107
 20
214.896
 11
12.0942
 21
215.254
  0
LINE
  8
0
 10
12.0942
 20
215.254
 11
12.0237
 21
215.624
  0
LINE
  8
0
 10
12.0237
 20
215.624
 11
12
 21
216
  0
LINE
  8
0
 10
12
 20
216
 11
12.0237
 21
216.376
  0
LINE
  8
0
 10
12.0237
 20
216.376
 11
12.0942
 21
216.746
  0
LINE
  8
0
 10
12.0942
 20
216.746
 11
12.2107
 21
217.104
  0
LINE
  8
0
 10
12.2107
 20
217.104
 11
12.3711
 21
217.445
  0
LINE
  8
0
 10
12.3711
 20
217.445
 11
12.5729
 21
217.763
  0
LINE
  8
0
 10
12.5729
 20
217.763
 11
12.8131
 21
218.054
  0
LINE
  8
0
 10
12.8131
 20
218.054
 11
13.0877
 21
218.312
  0
LINE
  8
0
 10
13.0877
 20
218.312
 11
13.3925
 21
218.533
  0
LINE
  8
0
 10
13.3925
 20
218.533
 11
13.7227
 21
218.714
  0
LINE
  8
0
 10
13.7227
 20
218.714
 11
14.0729
 21
218.853
  0
LINE
  8
0
 10
14.0729
 20
218.853
 11
14.4379
 21
218.947
  0
LINE
  8
0
 10
14.4379
 20
218.947
 11
14.8116
 21
218.994
  0
LINE
  8
0
 10
14.8116
 20
218.994
 11
15.1884
 21
218.994
  0
LINE
  8
0
 10
15.1884
 20
218.994
 11
15.5621
 21
218.947
  0
LINE
  8
0
 10
15.5621
 20
218.947
 11
15.927
 21
218.853
  0
LINE
  8
0
 10
15.927
 20
218.853
 11
16.2773
 21
218.714
  0
LINE
  8
0
 10
16.2773
 20
218.714
 11
16.6075
 21
218.533
  0
LINE
  8
0
 10
16.6075
 20
218.533
 11
16.9123
 21
218.312
  0
LINE
  8
0
 10
16.9123
 20
218.312
 11
17.1869
 21
218.054
  0
LINE
  8
0
 10
17.1869
 20
218.054
 11
17.427
 21
217.763
  0
LINE
  8
0
 10
17.427
 20
217.763
 11
17.6289
 21
217.445
  0
LINE
  8
0
 10
17.6289
 20
217.445
 11
17.7893
 21
217.104
  0
LINE
  8
0
 10
17.7893
 20
217.104
 11
17.9057
 21
216.746
  0
LINE
  8
0
 10
17.9057
 20
216.746
 11
17.9763
 21
216.376
  0
LINE
  8
0
 10
17.9763
 20
216.376
 11
18
 21
216
  0
LINE
  8
0
 10
18
 20
216
 11
17.9763
 21
215.624
  0
LINE
  8
0
 10
17.9763
 20
215.624
 11
17.9057
 21
215.254
  0
LINE
  8
0
 10
17.9057
 20
215.254
 11
17.7893
 21
214.896
  0
LINE
  8
0
 10
17.7893
 20
214.896
 11
17.6289
 21
214.555
  0
LINE
  8
0
 10
17.6289
 20
214.555
 11
17.427
 21
214.237
  0
LINE
  8
0
 10
17.427
 20
214.237
 11
17.1869
 21
213.946
  0
LINE
  8
0
 10
17.1869
 20
213.946
 11
16.9123
 21
213.688
  0
LINE
  8
0
 10
16.9123
 20
213.688
 11
16.6075
 21
213.467
  0
LINE
  8
0
 10
16.6075
 20
213.467
 11
16.2773
 21
213.286
  0
LINE
  8
0
 10
16.2773
 20
213.286
 11
15.927
 21
213.147
  0
LINE
  8
0
 10
15.927
 20
213.147
 11
15.5621
 21
213.053
  0
LINE
  8
0
 10
15.5621
 20
213.053
 11
15.1884
 21
213.006
  0
LINE
  8
0
 10
15.1884
 20
213.006
 11
14.8116
 21
213.006
  0
LINE
  8
0
 10
-15.1884
 20
213.006
 11
-15.5621
 21
213.053
  0
LINE
  8
0
 10
-15.5621
 20
213.053
 11
-15.927
 21
213.147
  0
LINE
  8
0
 10
-15.927
 20
213.147
 11
-16.2773
 21
213.286
  0
LINE
  8
0
 10
-16.2773
 20
213.286
 11
-16.6075
 21
213.467
  0
LINE
  8
0
 10
-16.6075
 20
213.467
 11
-16.9123
 21
213.688
  0
LINE
  8
0
 10
-16.9123
 20
213.688
 11
-17.1869
 21
213.946
  0
LINE
  8
0
 10
-17.1869
 20
213.946
 11
-17.427
 21
214.237
  0
LINE
  8
0
 10
-17.427
 20
214.237
 11
-17.6289
 21
214.555
  0
LINE
  8
0
 10
-17.6289
 20
214.555
 11
-17.7893
 21
214.896
  0
LINE
  8
0
 10
-17.7893
 20
214.896
 11
-17.9057
 21
215.254
  0
LINE
  8
0
 10
-17.9057
 20
215.254
 11
-17.9763
 21
215.624
  0
LINE
  8
0
 10
-17.9763
 20
215.624
 11
-18
 21
216
  0
LINE
  8
0
 10
-18
 20
216
 11
-17.9763
 21
216.376
  0
LINE
  8
0
 10
-17.9763
 20
216.376
 11
-17.9057
 21
216.746
  0
LINE
  8
0
 10
-17.9057
 20
216.746
 11
-17.7893
 21
217.104
  0
LINE
  8
0
 10
-17.7893
 20
217.104
 11
-17.6289
 21
217.445
  0
LINE
  8
0
 10
-17.6289
 20
217.445
 11
-17.427
 21
217.763
  0
LINE
  8
0
 10
-17.427
 20
217.763
 11
-17.1869
 21
218.054
  0
LINE
  8
0
 10
-17.1869
 20
218.054
 11
-16.9123
 21
218.312
  0
LINE
  8
0
 10
-16.9123
 20
218.312
 11
-16.6075
 21
218.533
  0
LINE
  8
0
 10
-16.6075
 20
218.533
 11
-16.2773
 21
218.714
  0
LINE
  8
0
 10
-16.2773
 20
218.714
 11
-15.927
 21
218.853
  0
LINE
  8
0
 10
-15.927
 20
218.853
 11
-15.5621
 21
218.947
  0
LINE
  8
0
 10
-15.5621
 20
218.947
 11
-15.1884
 21
218.994
  0
LINE
  8
0
 10
-15.1884
 20
218.994
 11
-14.8116
 21
218.994
  0
LINE
  8
0
 10
-14.8116
 20
218.994
 11
-14.4379
 21
218.947
  0
LINE
  8
0
 10
-14.4379
 20
218.947
 11
-14.0729
 21
218.853
  0
LINE
  8
0
 10
-14.0729
 20
218.853
 11
-13.7227
 21
218.714
  0
LINE
  8
0
 10
-13.7227
 20
218.714
 11
-13.3925
 21
218.533
  0
LINE
  8
0
 10
-13.3925
 20
218.533
 11
-13.0877
 21
218.312
  0
LINE
  8
0
 10
-13.0877
 20
218.312
 11
-12.8131
 21
218.054
  0
LINE
  8
0
 10
-12.8131
 20
218.054
 11
-12.5729
 21
217.763
  0
LINE
  8
0
 10
-12.5729
 20
217.763
 11
-12.3711
 21
217.445
  0
LINE
  8
0
 10
-12.3711
 20
217.445
 11
-12.2107
 21
217.104
  0
LINE
  8
0
 10
-12.2107
 20
217.104
 11
-12.0942
 21
216.746
  0
LINE
  8
0
 10
-12.0942
 20
216.746
 11
-12.0237
 21
216.376
  0
LINE
  8
0
 10
-12.0237
 20
216.376
 11
-12
 21
216
  0
LINE
  8
0
 10
-12
 20
216
 11
-12.0237
 21
215.624
  0
LINE
  8
0
 10
-12.0237
 20
215.624
 11
-12.0942
 21
215.254
  0
LINE
  8
0
 10
-12.0942
 20
215.254
 11
-12.2107
 21
214.896
  0
LINE
  8
0
 10
-12.2107
 20
214.896
 11
-12.3711
 21
214.555
  0
LINE
  8
0
 10
-12.3711
 20
214.555
 11
-12.5729
 21
214.237
  0
LINE
  8
0
 10
-12.5729
 20
214.237
 11
-12.8131
 21
213.946
  0
LINE
  8
0
 10
-12.8131
 20
213.946
 11
-13.0877
 21
213.688
  0
LINE
  8
0
 10
-13.0877
 20
213.688
 11
-13.3925
 21
213.467
  0
LINE
  8
0
 10
-13.3925
 20
213.467
 11
-13.7227
 21
213.286
  0
LINE
  8
0
 10
-13.7227
 20
213.286
 11
-14.0729
 21
213.147
  0
LINE
  8
0
 10
-14.0729
 20
213.147
 11
-14.4379
 21
213.053
  0
LINE
  8
0
 10
-14.4379
 20
213.053
 11
-14.8116
 21
213.006
  0
LINE
  8
0
 10
-14.8116
 20
213.006
 11
-15.1884
 21
213.006
  0
LINE
  8
0
 10
-0.18837
 20
198.006
 11
-0.562134
 21
198.053
  0
LINE
  8
0
 10
-0.562134
 20
198.053
 11
-0.927048
 21
198.147
  0
LINE
  8
0
 10
-0.927048
 20
198.147
 11
-1.27733
 21
198.286
  0
LINE
  8
0
 10
-1.27733
 20
198.286
 11
-1.60747
 21
198.467
  0
LINE
  8
0
 10
-1.60747
 20
198.467
 11
-1.91226
 21
198.688
  0
LINE
  8
0
 10
-1.91226
 20
198.688
 11
-2.1869
 21
198.946
  0
LINE
  8
0
 10
-2.1869
 20
198.946
 11
-2.42705
 21
199.237
  0
LINE
  8
0
 10
-2.42705
 20
199.237
 11
-2.62891
 21
199.555
  0
LINE
  8
0
 10
-2.62891
 20
199.555
 11
-2.78932
 21
199.896
  0
LINE
  8
0
 10
-2.78932
 20
199.896
 11
-2.90575
 21
200.254
  0
LINE
  8
0
 10
-2.90575
 20
200.254
 11
-2.97633
 21
200.624
  0
LINE
  8
0
 10
-2.97633
 20
200.624
 11
-3
 21
201
  0
LINE
  8
0
 10
-3
 20
201
 11
-2.97633
 21
201.376
  0
LINE
  8
0
 10
-2.97633
 20
201.376
 11
-2.90575
 21
201.746
  0
LINE
  8
0
 10
-2.90575
 20
201.746
 11
-2.78932
 21
202.104
  0
LINE
  8
0
 10
-2.78932
 20
202.104
 11
-2.62891
 21
202.445
  0
LINE
  8
0
 10
-2.62891
 20
202.445
 11
-2.42705
 21
202.763
  0
LINE
  8
0
 10
-2.42705
 20
202.763
 11
-2.1869
 21
203.054
  0
LINE
  8
0
 10
-2.1869
 20
203.054
 11
-1.91226
 21
203.312
  0
LINE
  8
0
 10
-1.91226
 20
203.312
 11
-1.60747
 21
203.533
  0
LINE
  8
0
 10
-1.60747
 20
203.533
 11
-1.27733
 21
203.714
  0
LINE
  8
0
 10
-1.27733
 20
203.714
 11
-0.927048
 21
203.853
  0
LINE
  8
0
 10
-0.927048
 20
203.853
 11
-0.562134
 21
203.947
  0
LINE
  8
0
 10
-0.562134
 20
203.947
 11
-0.18837
 21
203.994
  0
LINE
  8
0
 10
-0.18837
 20
203.994
 11
0.18837
 21
203.994
  0
LINE
  8
0
 10
0.18837
 20
203.994
 11
0.562134
 21
203.947
  0
LINE
  8
0
 10
0.562134
 20
203.947
 11
0.927048
 21
203.853
  0
LINE
  8
0
 10
0.927048
 20
203.853
 11
1.27733
 21
203.714
  0
LINE
  8
0
 10
1.27733
 20
203.714
 11
1.60747
 21
203.533
  0
LINE
  8
0
 10
1.60747
 20
203.533
 11
1.91226
 21
203.312
  0
LINE
  8
0
 10
1.91226
 20
203.312
 11
2.1869
 21
203.054
  0
LINE
  8
0
 10
2.1869
 20
203.054
 11
2.42705
 21
202.763
  0
LINE
  8
0
 10
2.42705
 20
202.763
 11
2.62891
 21
202.445
  0
LINE
  8
0
 10
2.62891
 20
202.445
 11
2.78932
 21
202.104
  0
LINE
  8
0
 10
2.78932
 20
202.104
 11
2.90575
 21
201.746
  0
LINE
  8
0
 10
2.90575
 20
201.746
 11
2.97633
 21
201.376
  0
LINE
  8
0
 10
2.97633
 20
201.376
 11
3
 21
201
  0
LINE
  8
0
 10
3
 20
201
 11
2.97633
 21
200.624
  0
LINE
  8
0
 10
2.97633
 20
200.624
 11
2.90575
 21
200.254
  0
LINE
  8
0
 10
2.90575
 20
200.254
 11
2.78932
 21
199.896
  0
LINE
  8
0
 10
2.78932
 20
199.896
 11
2.62891
 21
199.555
  0
LINE
  8
0
 10
2.62891
 20
199.555
 11
2.42705
 21
199.237
  0
LINE
  8
0
 10
2.42705
 20
199.237
 11
2.1869
 21
198.946
  0
LINE
  8
0
 10
2.1869
 20
198.946
 11
1.91226
 21
198.688
  0
LINE
  8
0
 10
1.91226
 20
198.688
 11
1.60747
 21
198.467
  0
LINE
  8
0
 10
1.60747
 20
198.467
 11
1.27733
 21
198.286
  0
LINE
  8
0
 10
1.27733
 20
198.286
 11
0.927048
 21
198.147
  0
LINE
  8
0
 10
0.927048
 20
198.147
 11
0.562134
 21
198.053
  0
LINE
  8
0
 10
0.562134
 20
198.053
 11
0.18837
 21
198.006
  0
LINE
  8
0
 10
0.18837
 20
198.006
 11
-0.18837
 21
198.006
  0
LINE
  8
0
 10
14.8116
 20
198.006
 11
14.4379
 21
198.053
  0
LINE
  8
0
 10
14.4379
 20
198.053
 11
14.0729
 21
198.147
  0
LINE
  8
0
 10
14.0729
 20
198.147
 11
13.7227
 21
198.286
  0
LINE
  8
0
 10
13.7227
 20
198.286
 11
13.3925
 21
198.467
  0
LINE
  8
0
 10
13.3925
 20
198.467
 11
13.0877
 21
198.688
  0
LINE
  8
0
 10
13.0877
 20
198.688
 11
12.8131
 21
198.946
  0
LINE
  8
0
 10
12.8131
 20
198.946
 11
12.5729
 21
199.237
  0
LINE
  8
0
 10
12.5729
 20
199.237
 11
12.3711
 21
199.555
  0
LINE
  8
0
 10
12.3711
 20
199.555
 11
12.2107
 21
199.896
  0
LINE
  8
0
 10
12.2107
 20
199.896
 11
12.0942
 21
200.254
  0
LINE
  8
0
 10
12.0942
 20
200.254
 11
12.0237
 21
200.624
  0
LINE
  8
0
 10
12.0237
 20
200.624
 11
12
 21
201
  0
LINE
  8
0
 10
12
 20
201
 11
12.0237
 21
201.376
  0
LINE
  8
0
 10
12.0237
 20
201.376
 11
12.0942
 21
201.746
  0
LINE
  8
0
 10
12.0942
 20
201.746
 11
12.2107
 21
202.104
  0
LINE
  8
0
 10
12.2107
 20
202.104
 11
12.3711
 21
202.445
  0
LINE
  8
0
 10
12.3711
 20
202.445
 11
12.5729
 21
202.763
  0
LINE
  8
0
 10
12.5729
 20
202.763
 11
12.8131
 21
203.054
  0
LINE
  8
0
 10
12.8131
 20
203.054
 11
13.0877
 21
203.312
  0
LINE
  8
0
 10
13.0877
 20
203.312
 11
13.3925
 21
203.533
  0
LINE
  8
0
 10
13.3925
 20
203.533
 11
13.7227
 21
203.714
  0
LINE
  8
0
 10
13.7227
 20
203.714
 11
14.0729
 21
203.853
  0
LINE
  8
0
 10
14.0729
 20
203.853
 11
14.4379
 21
203.947
  0
LINE
  8
0
 10
14.4379
 20
203.947
 11
14.8116
 21
203.994
  0
LINE
  8
0
 10
14.8116
 20
203.994
 11
15.1884
 21
203.994
  0
LINE
  8
0
 10
15.1884
 20
203.994
 11
15.5621
 21
203.947
  0
LINE
  8
0
 10
15.5621
 20
203.947
 11
15.927
 21
203.853
  0
LINE
  8
0
 10
15.927
 20
203.853
 11
16.2773
 21
203.714
  0
LINE
  8
0
 10
16.2773
 20
203.714
 11
16.6075
 21
203.533
  0
LINE
  8
0
 10
16.6075
 20
203.533
 11
16.9123
 21
203.312
  0
LINE
  8
0
 10
16.9123
 20
203.312
 11
17.1869
 21
203.054
  0
LINE
  8
0
 10
17.1869
 20
203.054
 11
17.427
 21
202.763
  0
LINE
  8
0
 10
17.427
 20
202.763
 11
17.6289
 21
202.445
  0
LINE
  8
0
 10
17.6289
 20
202.445
 11
17.7893
 21
202.104
  0
LINE
  8
0
 10
17.7893
 20
202.104
 11
17.9057
 21
201.746
  0
LINE
  8
0
 10
17.9057
 20
201.746
 11
17.9763
 21
201.376
  0
LINE
  8
0
 10
17.9763
 20
201.376
 11
18
 21
201
  0
LINE
  8
0
 10
18
 20
201
 11
17.9763
 21
200.624
  0
LINE
  8
0
 10
17.9763
 20
200.624
 11
17.9057
 21
200.254
  0
LINE
  8
0
 10
17.9057
 20
200.254
 11
17.7893
 21
199.896
  0
LINE
  8
0
 10
17.7893
 20
199.896
 11
17.6289
 21
199.555
  0
LINE
  8
0
 10
17.6289
 20
199.555
 11
17.427
 21
199.237
  0
LINE
  8
0
 10
17.427
 20
199.237
 11
17.1869
 21
198.946
  0
LINE
  8
0
 10
17.1869
 20
198.946
 11
16.9123
 21
198.688
  0
LINE
  8
0
 10
16.9123
 20
198.688
 11
16.6075
 21
198.467
  0
LINE
  8
0
 10
16.6075
 20
198.467
 11
16.2773
 21
198.286
  0
LINE
  8
0
 10
16.2773
 20
198.286
 11
15.927
 21
198.147
  0
LINE
  8
0
 10
15.927
 20
198.147
 11
15.5621
 21
198.053
  0
LINE
  8
0
 10
15.5621
 20
198.053
 11
15.1884
 21
198.006
  0
LINE
  8
0
 10
15.1884
 20
198.006
 11
14.8116
 21
198.006
  0
LINE
  8
0
 10
-30.1884
 20
198.006
 11
-30.5621
 21
198.053
  0
LINE
  8
0
 10
-30.5621
 20
198.053
 11
-30.927
 21
198.147
  0
LINE
  8
0
 10
-30.927
 20
198.147
 11
-31.2773
 21
198.286
  0
LINE
  8
0
 10
-31.2773
 20
198.286
 11
-31.6075
 21
198.467
  0
LINE
  8
0
 10
-31.6075
 20
198.467
 11
-31.9123
 21
198.688
  0
LINE
  8
0
 10
-31.9123
 20
198.688
 11
-32.1869
 21
198.946
  0
LINE
  8
0
 10
-32.1869
 20
198.946
 11
-32.427
 21
199.237
  0
LINE
  8
0
 10
-32.427
 20
199.237
 11
-32.6289
 21
199.555
  0
LINE
  8
0
 10
-32.6289
 20
199.555
 11
-32.7893
 21
199.896
  0
LINE
  8
0
 10
-32.7893
 20
199.896
 11
-32.9057
 21
200.254
  0
LINE
  8
0
 10
-32.9057
 20
200.254
 11
-32.9763
 21
200.624
  0
LINE
  8
0
 10
-32.9763
 20
200.624
 11
-33
 21
201
  0
LINE
  8
0
 10
-33
 20
201
 11
-32.9763
 21
201.376
  0
LINE
  8
0
 10
-32.9763
 20
201.376
 11
-32.9057
 21
201.746
  0
LINE
  8
0
 10
-32.9057
 20
201.746
 11
-32.7893
 21
202.104
  0
LINE
  8
0
 10
-32.7893
 20
202.104
 11
-32.6289
 21
202.445
  0
LINE
  8
0
 10
-32.6289
 20
202.445
 11
-32.427
 21
202.763
  0
LINE
  8
0
 10
-32.427
 20
202.763
 11
-32.1869
 21
203.054
  0
LINE
  8
0
 10
-32.1869
 20
203.054
 11
-31.9123
 21
203.312
  0
LINE
  8
0
 10
-31.9123
 20
203.312
 11
-31.6075
 21
203.533
  0
LINE
  8
0
 10
-31.6075
 20
203.533
 11
-31.2773
 21
203.714
  0
LINE
  8
0
 10
-31.2773
 20
203.714
 11
-30.927
 21
203.853
  0
LINE
  8
0
 10
-30.927
 20
203.853
 11
-30.5621
 21
203.947
  0
LINE
  8
0
 10
-30.5621
 20
203.947
 11
-30.1884
 21
203.994
  0
LINE
  8
0
 10
-30.1884
 20
203.994
 11
-29.8116
 21
203.994
  0
LINE
  8
0
 10
-29.8116
 20
203.994
 11
-29.4379
 21
203.947
  0
LINE
  8
0
 10
-29.4379
 20
203.947
 11
-29.0729
 21
203.853
  0
LINE
  8
0
 10
-29.0729
 20
203.853
 11
-28.7227
 21
203.714
  0
LINE
  8
0
 10
-28.7227
 20
203.714
 11
-28.3925
 21
203.533
  0
LINE
  8
0
 10
-28.3925
 20
203.533
 11
-28.0877
 21
203.312
  0
LINE
  8
0
 10
-28.0877
 20
203.312
 11
-27.8131
 21
203.054
  0
LINE
  8
0
 10
-27.8131
 20
203.054
 11
-27.5729
 21
202.763
  0
LINE
  8
0
 10
-27.5729
 20
202.763
 11
-27.3711
 21
202.445
  0
LINE
  8
0
 10
-27.3711
 20
202.445
 11
-27.2107
 21
202.104
  0
LINE
  8
0
 10
-27.2107
 20
202.104
 11
-27.0942
 21
201.746
  0
LINE
  8
0
 10
-27.0942
 20
201.746
 11
-27.0237
 21
201.376
  0
LINE
  8
0
 10
-27.0237
 20
201.376
 11
-27
 21
201
  0
LINE
  8
0
 10
-27
 20
201
 11
-27.0237
 21
200.624
  0
LINE
  8
0
 10
-27.0237
 20
200.624
 11
-27.0942
 21
200.254
  0
LINE
  8
0
 10
-27.0942
 20
200.254
 11
-27.2107
 21
199.896
  0
LINE
  8
0
 10
-27.2107
 20
199.896
 11
-27.3711
 21
199.555
  0
LINE
  8
0
 10
-27.3711
 20
199.555
 11
-27.5729
 21
199.237
  0
LINE
  8
0
 10
-27.5729
 20
199.237
 11
-27.8131
 21
198.946
  0
LINE
  8
0
 10
-27.8131
 20
198.946
 11
-28.0877
 21
198.688
  0
LINE
  8
0
 10
-28.0877
 20
198.688
 11
-28.3925
 21
198.467
  0
LINE
  8
0
 10
-28.3925
 20
198.467
 11
-28.7227
 21
198.286
  0
LINE
  8
0
 10
-28.7227
 20
198.286
 11
-29.0729
 21
198.147
  0
LINE
  8
0
 10
-29.0729
 20
198.147
 11
-29.4379
 21
198.053
  0
LINE
  8
0
 10
-29.4379
 20
198.053
 11
-29.8116
 21
198.006
  0
LINE
  8
0
 10
-29.8116
 20
198.006
 11
-30.1884
 21
198.006
  0
LINE
  8
0
 10
-15.1884
 20
198.006
 11
-15.5621
 21
198.053
  0
LINE
  8
0
 10
-15.5621
 20
198.053
 11
-15.927
 21
198.147
  0
LINE
  8
0
 10
-15.927
 20
198.147
 11
-16.2773
 21
198.286
  0
LINE
  8
0
 10
-16.2773
 20
198.286
 11
-16.6075
 21
198.467
  0
LINE
  8
0
 10
-16.6075
 20
198.467
 11
-16.9123
 21
198.688
  0
LINE
  8
0
 10
-16.9123
 20
198.688
 11
-17.1869
 21
198.946
  0
LINE
  8
0
 10
-17.1869
 20
198.946
 11
-17.427
 21
199.237
  0
LINE
  8
0
 10
-17.427
 20
199.237
 11
-17.6289
 21
199.555
  0
LINE
  8
0
 10
-17.6289
 20
199.555
 11
-17.7893
 21
199.896
  0
LINE
  8
0
 10
-17.7893
 20
199.896
 11
-17.9057
 21
200.254
  0
LINE
  8
0
 10
-17.9057
 20
200.254
 11
-17.9763
 21
200.624
  0
LINE
  8
0
 10
-17.9763
 20
200.624
 11
-18
 21
201
  0
LINE
  8
0
 10
-18
 20
201
 11
-17.9763
 21
201.376
  0
LINE
  8
0
 10
-17.9763
 20
201.376
 11
-17.9057
 21
201.746
  0
LINE
  8
0
 10
-17.9057
 20
201.746
 11
-17.7893
 21
202.104
  0
LINE
  8
0
 10
-17.7893
 20
202.104
 11
-17.6289
 21
202.445
  0
LINE
  8
0
 10
-17.6289
 20
202.445
 11
-17.427
 21
202.763
  0
LINE
  8
0
 10
-17.427
 20
202.763
 11
-17.1869
 21
203.054
  0
LINE
  8
0
 10
-17.1869
 20
203.054
 11
-16.9123
 21
203.312
  0
LINE
  8
0
 10
-16.9123
 20
203.312
 11
-16.6075
 21
203.533
  0
LINE
  8
0
 10
-16.6075
 20
203.533
 11
-16.2773
 21
203.714
  0
LINE
  8
0
 10
-16.2773
 20
203.714
 11
-15.927
 21
203.853
  0
LINE
  8
0
 10
-15.927
 20
203.853
 11
-15.5621
 21
203.947
  0
LINE
  8
0
 10
-15.5621
 20
203.947
 11
-15.1884
 21
203.994
  0
LINE
  8
0
 10
-15.1884
 20
203.994
 11
-14.8116
 21
203.994
  0
LINE
  8
0
 10
-14.8116
 20
203.994
 11
-14.4379
 21
203.947
  0
LINE
  8
0
 10
-14.4379
 20
203.947
 11
-14.0729
 21
203.853
  0
LINE
  8
0
 10
-14.0729
 20
203.853
 11
-13.7227
 21
203.714
  0
LINE
  8
0
 10
-13.7227
 20
203.714
 11
-13.3925
 21
203.533
  0
LINE
  8
0
 10
-13.3925
 20
203.533
 11
-13.0877
 21
203.312
  0
LINE
  8
0
 10
-13.0877
 20
203.312
 11
-12.8131
 21
203.054
  0
LINE
  8
0
 10
-12.8131
 20
203.054
 11
-12.5729
 21
202.763
  0
LINE
  8
0
 10
-12.5729
 20
202.763
 11
-12.3711
 21
202.445
  0
LINE
  8
0
 10
-12.3711
 20
202.445
 11
-12.2107
 21
202.104
  0
LINE
  8
0
 10
-12.2107
 20
202.104
 11
-12.0942
 21
201.746
  0
LINE
  8
0
 10
-12.0942
 20
201.746
 11
-12.0237
 21
201.376
  0
LINE
  8
0
 10
-12.0237
 20
201.376
 11
-12
 21
201
  0
LINE
  8
0
 10
-12
 20
201
 11
-12.0237
 21
200.624
  0
LINE
  8
0
 10
-12.0237
 20
200.624
 11
-12.0942
 21
200.254
  0
LINE
  8
0
 10
-12.0942
 20
200.254
 11
-12.2107
 21
199.896
  0
LINE
  8
0
 10
-12.2107
 20
199.896
 11
-12.3711
 21
199.555
  0
LINE
  8
0
 10
-12.3711
 20
199.555
 11
-12.5729
 21
199.237
  0
LINE
  8
0
 10
-12.5729
 20
199.237
 11
-12.8131
 21
198.946
  0
LINE
  8
0
 10
-12.8131
 20
198.946
 11
-13.0877
 21
198.688
  0
LINE
  8
0
 10
-13.0877
 20
198.688
 11
-13.3925
 21
198.467
  0
LINE
  8
0
 10
-13.3925
 20
198.467
 11
-13.7227
 21
198.286
  0
LINE
  8
0
 10
-13.7227
 20
198.286
 11
-14.0729
 21
198.147
  0
LINE
  8
0
 10
-14.0729
 20
198.147
 11
-14.4379
 21
198.053
  0
LINE
  8
0
 10
-14.4379
 20
198.053
 11
-14.8116
 21
198.006
  0
LINE
  8
0
 10
-14.8116
 20
198.006
 11
-15.1884
 21
198.006
  0
LINE
  8
0
 10
29.8116
 20
198.006
 11
29.4379
 21
198.053
  0
LINE
  8
0
 10
29.4379
 20
198.053
 11
29.0729
 21
198.147
  0
LINE
  8
0
 10
29.0729
 20
198.147
 11
28.7227
 21
198.286
  0
LINE
  8
0
 10
28.7227
 20
198.286
 11
28.3925
 21
198.467
  0
LINE
  8
0
 10
28.3925
 20
198.467
 11
28.0877
 21
198.688
  0
LINE
  8
0
 10
28.0877
 20
198.688
 11
27.8131
 21
198.946
  0
LINE
  8
0
 10
27.8131
 20
198.946
 11
27.5729
 21
199.237
  0
LINE
  8
0
 10
27.5729
 20
199.237
 11
27.3711
 21
199.555
  0
LINE
  8
0
 10
27.3711
 20
199.555
 11
27.2107
 21
199.896
  0
LINE
  8
0
 10
27.2107
 20
199.896
 11
27.0942
 21
200.254
  0
LINE
  8
0
 10
27.0942
 20
200.254
 11
27.0237
 21
200.624
  0
LINE
  8
0
 10
27.0237
 20
200.624
 11
27
 21
201
  0
LINE
  8
0
 10
27
 20
201
 11
27.0237
 21
201.376
  0
LINE
  8
0
 10
27.0237
 20
201.376
 11
27.0942
 21
201.746
  0
LINE
  8
0
 10
27.0942
 20
201.746
 11
27.2107
 21
202.104
  0
LINE
  8
0
 10
27.2107
 20
202.104
 11
27.3711
 21
202.445
  0
LINE
  8
0
 10
27.3711
 20
202.445
 11
27.5729
 21
202.763
  0
LINE
  8
0
 10
27.5729
 20
202.763
 11
27.8131
 21
203.054
  0
LINE
  8
0
 10
27.8131
 20
203.054
 11
28.0877
 21
203.312
  0
LINE
  8
0
 10
28.0877
 20
203.312
 11
28.3925
 21
203.533
  0
LINE
  8
0
 10
28.3925
 20
203.533
 11
28.7227
 21
203.714
  0
LINE
  8
0
 10
28.7227
 20
203.714
 11
29.0729
 21
203.853
  0
LINE
  8
0
 10
29.0729
 20
203.853
 11
29.4379
 21
203.947
  0
LINE
  8
0
 10
29.4379
 20
203.947
 11
29.8116
 21
203.994
  0
LINE
  8
0
 10
29.8116
 20
203.994
 11
30.1884
 21
203.994
  0
LINE
  8
0
 10
30.1884
 20
203.994
 11
30.5621
 21
203.947
  0
LINE
  8
0
 10
30.5621
 20
203.947
 11
30.927
 21
203.853
  0
LINE
  8
0
 10
30.927
 20
203.853
 11
31.2773
 21
203.714
  0
LINE
  8
0
 10
31.2773
 20
203.714
 11
31.6075
 21
203.533
  0
LINE
  8
0
 10
31.6075
 20
203.533
 11
31.9123
 21
203.312
  0
LINE
  8
0
 10
31.9123
 20
203.312
 11
32.1869
 21
203.054
  0
LINE
  8
0
 10
32.1869
 20
203.054
 11
32.427
 21
202.763
  0
LINE
  8
0
 10
32.427
 20
202.763
 11
32.6289
 21
202.445
  0
LINE
  8
0
 10
32.6289
 20
202.445
 11
32.7893
 21
202.104
  0
LINE
  8
0
 10
32.7893
 20
202.104
 11
32.9057
 21
201.746
  0
LINE
  8
0
 10
32.9057
 20
201.746
 11
32.9763
 21
201.376
  0
LINE
  8
0
 10
32.9763
 20
201.376
 11
33
 21
201
  0
LINE
  8
0
 10
33
 20
201
 11
32.9763
 21
200.624
  0
LINE
  8
0
 10
32.9763
 20
200.624
 11
32.9057
 21
200.254
  0
LINE
  8
0
 10
32.9057
 20
200.254
 11
32.7893
 21
199.896
  0
LINE
  8
0
 10
32.7893
 20
199.896
 11
32.6289
 21
199.555
  0
LINE
  8
0
 10
32.6289
 20
199.555
 11
32.427
 21
199.237
  0
LINE
  8
0
 10
32.427
 20
199.237
 11
32.1869
 21
198.946
  0
LINE
  8
0
 10
32.1869
 20
198.946
 11
31.9123
 21
198.688
  0
LINE
  8
0
 10
31.9123
 20
198.688
 11
31.6075
 21
198.467
  0
LINE
  8
0
 10
31.6075
 20
198.467
 11
31.2773
 21
198.286
  0
LINE
  8
0
 10
31.2773
 20
198.286
 11
30.927
 21
198.147
  0
LINE
  8
0
 10
30.927
 20
198.147
 11
30.5621
 21
198.053
  0
LINE
  8
0
 10
30.5621
 20
198.053
 11
30.1884
 21
198.006
  0
LINE
  8
0
 10
30.1884
 20
198.006
 11
29.8116
 21
198.006
  0
LINE
  8
0
 10
32.9369
 20
140.089
 11
33.5451
 21
140.245
  0
LINE
  8
0
 10
33.5451
 20
140.245
 11
34.1289
 21
140.476
  0
LINE
  8
0
 10
34.1289
 20
140.476
 11
34.6791
 21
140.778
  0
LINE
  8
0
 10
34.6791
 20
140.778
 11
35.1871
 21
141.147
  0
LINE
  8
0
 10
35.1871
 20
141.147
 11
35.6448
 21
141.577
  0
LINE
  8
0
 10
35.6448
 20
141.577
 11
36.0451
 21
142.061
  0
LINE
  8
0
 10
36.0451
 20
142.061
 11
36.3815
 21
142.591
  0
LINE
  8
0
 10
36.3815
 20
142.591
 11
36.6489
 21
143.159
  0
LINE
  8
0
 10
36.6489
 20
143.159
 11
36.8429
 21
143.757
  0
LINE
  8
0
 10
36.8429
 20
143.757
 11
36.9606
 21
144.373
  0
LINE
  8
0
 10
36.9606
 20
144.373
 11
37
 21
145
  0
LINE
  8
0
 10
37
 20
145
 11
37
 21
179
  0
LINE
  8
0
 10
37
 20
179
 11
36.9606
 21
179.627
  0
LINE
  8
0
 10
36.9606
 20
179.627
 11
36.8429
 21
180.243
  0
LINE
  8
0
 10
36.8429
 20
180.243
 11
36.6489
 21
180.841
  0
LINE
  8
0
 10
36.6489
 20
180.841
 11
36.3815
 21
181.409
  0
LINE
  8
0
 10
36.3815
 20
181.409
 11
36.0451
 21
181.939
  0
LINE
  8
0
 10
36.0451
 20
181.939
 11
35.6448
 21
182.423
  0
LINE
  8
0
 10
35.6448
 20
182.423
 11
35.1871
 21
182.853
  0
LINE
  8
0
 10
35.1871
 20
182.853
 11
34.6791
 21
183.222
  0
LINE
  8
0
 10
34.6791
 20
183.222
 11
34.1289
 21
183.524
  0
LINE
  8
0
 10
34.1289
 20
183.524
 11
33.5451
 21
183.755
  0
LINE
  8
0
 10
33.5451
 20
183.755
 11
32.9369
 21
183.911
  0
LINE
  8
0
 10
32.9369
 20
183.911
 11
32.3139
 21
183.99
  0
LINE
  8
0
 10
32.3139
 20
183.99
 11
-32.3139
 21
183.99
  0
LINE
  8
0
 10
-32.3139
 20
183.99
 11
-32.9369
 21
183.911
  0
LINE
  8
0
 10
-32.9369
 20
183.911
 11
-33.5451
 21
183.755
  0
LINE
  8
0
 10
-33.5451
 20
183.755
 11
-34.1289
 21
183.524
  0
LINE
  8
0
 10
-34.1289
 20
183.524
 11
-34.6791
 21
183.222
  0
LINE
  8
0
 10
-34.6791
 20
183.222
 11
-35.1871
 21
182.853
  0
LINE
  8
0
 10
-35.1871
 20
182.853
 11
-35.6448
 21
182.423
  0
LINE
  8
0
 10
-35.6448
 20
182.423
 11
-36.0451
 21
181.939
  0
LINE
  8
0
 10
-36.0451
 20
181.939
 11
-36.3815
 21
181.409
  0
LINE
  8
0
 10
-36.3815
 20
181.409
 11
-36.6489
 21
180.841
  0
LINE
  8
0
 10
-36.6489
 20
180.841
 11
-36.8429
 21
180.243
  0
LINE
  8
0
 10
-36.8429
 20
180.243
 11
-36.9606
 21
179.627
  0
LINE
  8
0
 10
-36.9606
 20
179.627
 11
-37
 21
179
  0
LINE
  8
0
 10
-37
 20
179
 11
-37
 21
145
  0
LINE
  8
0
 10
-37
 20
145
 11
-36.9606
 21
144.373
  0
LINE
  8
0
 10
-36.9606
 20
144.373
 11
-36.8429
 21
143.757
  0
LINE
  8
0
 10
-36.8429
 20
143.757
 11
-36.6489
 21
143.159
  0
LINE
  8
0
 10
-36.6489
 20
143.159
 11
-36.3815
 21
142.591
  0
LINE
  8
0
 10
-36.3815
 20
142.591
 11
-36.0451
 21
142.061
  0
LINE
  8
0
 10
-36.0451
 20
142.061
 11
-35.6448
 21
141.577
  0
LINE
  8
0
 10
-35.6448
 20
141.577
 11
-35.1871
 21
141.147
  0
LINE
  8
0
 10
-35.1871
 20
141.147
 11
-34.6791
 21
140.778
  0
LINE
  8
0
 10
-34.6791
 20
140.778
 11
-34.1289
 21
140.476
  0
LINE
  8
0
 10
-34.1289
 20
140.476
 11
-33.5451
 21
140.245
  0
LINE
  8
0
 10
-33.5451
 20
140.245
 11
-32.9369
 21
140.089
  0
LINE
  8
0
 10
-32.9369
 20
140.089
 11
-32.3139
 21
140.01
  0
LINE
  8
0
 10
-32.3139
 20
140.01
 11
32.3139
 21
140.01
  0
LINE
  8
0
 10
32.3139
 20
140.01
 11
32.9369
 21
140.089
  0
LINE
  8
0
 10
-0.18837
 20
174.006
 11
-0.562134
 21
174.053
  0
LINE
  8
0
 10
-0.562134
 20
174.053
 11
-0.927048
 21
174.147
  0
LINE
  8
0
 10
-0.927048
 20
174.147
 11
-1.27733
 21
174.286
  0
LINE
  8
0
 10
-1.27733
 20
174.286
 11
-1.60747
 21
174.467
  0
LINE
  8
0
 10
-1.60747
 20
174.467
 11
-1.91226
 21
174.688
  0
LINE
  8
0
 10
-1.91226
 20
174.688
 11
-2.1869
 21
174.946
  0
LINE
  8
0
 10
-2.1869
 20
174.946
 11
-2.42705
 21
175.237
  0
LINE
  8
0
 10
-2.42705
 20
175.237
 11
-2.62891
 21
175.555
  0
LINE
  8
0
 10
-2.62891
 20
175.555
 11
-2.78932
 21
175.896
  0
LINE
  8
0
 10
-2.78932
 20
175.896
 11
-2.90575
 21
176.254
  0
LINE
  8
0
 10
-2.90575
 20
176.254
 11
-2.97633
 21
176.624
  0
LINE
  8
0
 10
-2.97633
 20
176.624
 11
-3
 21
177
  0
LINE
  8
0
 10
-3
 20
177
 11
-2.97633
 21
177.376
  0
LINE
  8
0
 10
-2.97633
 20
177.376
 11
-2.90575
 21
177.746
  0
LINE
  8
0
 10
-2.90575
 20
177.746
 11
-2.78932
 21
178.104
  0
LINE
  8
0
 10
-2.78932
 20
178.104
 11
-2.62891
 21
178.445
  0
LINE
  8
0
 10
-2.62891
 20
178.445
 11
-2.42705
 21
178.763
  0
LINE
  8
0
 10
-2.42705
 20
178.763
 11
-2.1869
 21
179.054
  0
LINE
  8
0
 10
-2.1869
 20
179.054
 11
-1.91226
 21
179.312
  0
LINE
  8
0
 10
-1.91226
 20
179.312
 11
-1.60747
 21
179.533
  0
LINE
  8
0
 10
-1.60747
 20
179.533
 11
-1.27733
 21
179.714
  0
LINE
  8
0
 10
-1.27733
 20
179.714
 11
-0.927048
 21
179.853
  0
LINE
  8
0
 10
-0.927048
 20
179.853
 11
-0.562134
 21
179.947
  0
LINE
  8
0
 10
-0.562134
 20
179.947
 11
-0.18837
 21
179.994
  0
LINE
  8
0
 10
-0.18837
 20
179.994
 11
0.18837
 21
179.994
  0
LINE
  8
0
 10
0.18837
 20
179.994
 11
0.562134
 21
179.947
  0
LINE
  8
0
 10
0.562134
 20
179.947
 11
0.927048
 21
179.853
  0
LINE
  8
0
 10
0.927048
 20
179.853
 11
1.27733
 21
179.714
  0
LINE
  8
0
 10
1.27733
 20
179.714
 11
1.60747
 21
179.533
  0
LINE
  8
0
 10
1.60747
 20
179.533
 11
1.91226
 21
179.312
  0
LINE
  8
0
 10
1.91226
 20
179.312
 11
2.1869
 21
179.054
  0
LINE
  8
0
 10
2.1869
 20
179.054
 11
2.42705
 21
178.763
  0
LINE
  8
0
 10
2.42705
 20
178.763
 11
2.62891
 21
178.445
  0
LINE
  8
0
 10
2.62891
 20
178.445
 11
2.78932
 21
178.104
  0
LINE
  8
0
 10
2.78932
 20
178.104
 11
2.90575
 21
177.746
  0
LINE
  8
0
 10
2.90575
 20
177.746
 11
2.97633
 21
177.376
  0
LINE
  8
0
 10
2.97633
 20
177.376
 11
3
 21
177
  0
LINE
  8
0
 10
3
 20
177
 11
2.97633
 21
176.624
  0
LINE
  8
0
 10
2.97633
 20
176.624
 11
2.90575
 21
176.254
  0
LINE
  8
0
 10
2.90575
 20
176.254
 11
2.78932
 21
175.896
  0
LINE
  8
0
 10
2.78932
 20
175.896
 11
2.62891
 21
175.555
  0
LINE
  8
0
 10
2.62891
 20
175.555
 11
2.42705
 21
175.237
  0
LINE
  8
0
 10
2.42705
 20
175.237
 11
2.1869
 21
174.946
  0
LINE
  8
0
 10
2.1869
 20
174.946
 11
1.91226
 21
174.688
  0
LINE
  8
0
 10
1.91226
 20
174.688
 11
1.60747
 21
174.467
  0
LINE
  8
0
 10
1.60747
 20
174.467
 11
1.27733
 21
174.286
  0
LINE
  8
0
 10
1.27733
 20
174.286
 11
0.927048
 21
174.147
  0
LINE
  8
0
 10
0.927048
 20
174.147
 11
0.562134
 21
174.053
  0
LINE
  8
0
 10
0.562134
 20
174.053
 11
0.18837
 21
174.006
  0
LINE
  8
0
 10
0.18837
 20
174.006
 11
-0.18837
 21
174.006
  0
LINE
  8
0
 10
29.8116
 20
174.006
 11
29.4379
 21
174.053
  0
LINE
  8
0
 10
29.4379
 20
174.053
 11
29.0729
 21
174.147
  0
LINE
  8
0
 10
29.0729
 20
174.147
 11
28.7227
 21
174.286
  0
LINE
  8
0
 10
28.7227
 20
174.286
 11
28.3925
 21
174.467
  0
LINE
  8
0
 10
28.3925
 20
174.467
 11
28.0877
 21
174.688
  0
LINE
  8
0
 10
28.0877
 20
174.688
 11
27.8131
 21
174.946
  0
LINE
  8
0
 10
27.8131
 20
174.946
 11
27.5729
 21
175.237
  0
LINE
  8
0
 10
27.5729
 20
175.237
 11
27.3711
 21
175.555
  0
LINE
  8
0
 10
27.3711
 20
175.555
 11
27.2107
 21
175.896
  0
LINE
  8
0
 10
27.2107
 20
175.896
 11
27.0942
 21
176.254
  0
LINE
  8
0
 10
27.0942
 20
176.254
 11
27.0237
 21
176.624
  0
LINE
  8
0
 10
27.0237
 20
176.624
 11
27
 21
177
  0
LINE
  8
0
 10
27
 20
177
 11
27.0237
 21
177.376
  0
LINE
  8
0
 10
27.0237
 20
177.376
 11
27.0942
 21
177.746
  0
LINE
  8
0
 10
27.0942
 20
177.746
 11
27.2107
 21
178.104
  0
LINE
  8
0
 10
27.2107
 20
178.104
 11
27.3711
 21
178.445
  0
LINE
  8
0
 10
27.3711
 20
178.445
 11
27.5729
 21
178.763
  0
LINE
  8
0
 10
27.5729
 20
178.763
 11
27.8131
 21
179.054
  0
LINE
  8
0
 10
27.8131
 20
179.054
 11
28.0877
 21
179.312
  0
LINE
  8
0
 10
28.0877
 20
179.312
 11
28.3925
 21
179.533
  0
LINE
  8
0
 10
28.3925
 20
179.533
 11
28.7227
 21
179.714
  0
LINE
  8
0
 10
28.7227
 20
179.714
 11
29.0729
 21
179.853
  0
LINE
  8
0
 10
29.0729
 20
179.853
 11
29.4379
 21
179.947
  0
LINE
  8
0
 10
29.4379
 20
179.947
 11
29.8116
 21
179.994
  0
LINE
  8
0
 10
29.8116
 20
179.994
 11
30.1884
 21
179.994
  0
LINE
  8
0
 10
30.1884
 20
179.994
 11
30.5621
 21
179.947
  0
LINE
  8
0
 10
30.5621
 20
179.947
 11
30.927
 21
179.853
  0
LINE
  8
0
 10
30.927
 20
179.853
 11
31.2773
 21
179.714
  0
LINE
  8
0
 10
31.2773
 20
179.714
 11
31.6075
 21
179.533
  0
LINE
  8
0
 10
31.6075
 20
179.533
 11
31.9123
 21
179.312
  0
LINE
  8
0
 10
31.9123
 20
179.312
 11
32.1869
 21
179.054
  0
LINE
  8
0
 10
32.1869
 20
179.054
 11
32.427
 21
178.763
  0
LINE
  8
0
 10
32.427
 20
178.763
 11
32.6289
 21
178.445
  0
LINE
  8
0
 10
32.6289
 20
178.445
 11
32.7893
 21
178.104
  0
LINE
  8
0
 10
32.7893
 20
178.104
 11
32.9057
 21
177.746
  0
LINE
  8
0
 10
32.9057
 20
177.746
 11
32.9763
 21
177.376
  0
LINE
  8
0
 10
32.9763
 20
177.376
 11
33
 21
177
  0
LINE
  8
0
 10
33
 20
177
 11
32.9763
 21
176.624
  0
LINE
  8
0
 10
32.9763
 20
176.624
 11
32.9057
 21
176.254
  0
LINE
  8
0
 10
32.9057
 20
176.254
 11
32.7893
 21
175.896
  0
LINE
  8
0
 10
32.7893
 20
175.896
 11
32.6289
 21
175.555
  0
LINE
  8
0
 10
32.6289
 20
175.555
 11
32.427
 21
175.237
  0
LINE
  8
0
 10
32.427
 20
175.237
 11
32.1869
 21
174.946
  0
LINE
  8
0
 10
32.1869
 20
174.946
 11
31.9123
 21
174.688
  0
LINE
  8
0
 10
31.9123
 20
174.688
 11
31.6075
 21
174.467
  0
LINE
  8
0
 10
31.6075
 20
174.467
 11
31.2773
 21
174.286
  0
LINE
  8
0
 10
31.2773
 20
174.286
 11
30.927
 21
174.147
  0
LINE
  8
0
 10
30.927
 20
174.147
 11
30.5621
 21
174.053
  0
LINE
  8
0
 10
30.5621
 20
174.053
 11
30.1884
 21
174.006
  0
LINE
  8
0
 10
30.1884
 20
174.006
 11
29.8116
 21
174.006
  0
LINE
  8
0
 10
-15.1884
 20
174.006
 11
-15.5621
 21
174.053
  0
LINE
  8
0
 10
-15.5621
 20
174.053
 11
-15.927
 21
174.147
  0
LINE
  8
0
 10
-15.927
 20
174.147
 11
-16.2773
 21
174.286
  0
LINE
  8
0
 10
-16.2773
 20
174.286
 11
-16.6075
 21
174.467
  0
LINE
  8
0
 10
-16.6075
 20
174.467
 11
-16.9123
 21
174.688
  0
LINE
  8
0
 10
-16.9123
 20
174.688
 11
-17.1869
 21
174.946
  0
LINE
  8
0
 10
-17.1869
 20
174.946
 11
-17.427
 21
175.237
  0
LINE
  8
0
 10
-17.427
 20
175.237
 11
-17.6289
 21
175.555
  0
LINE
  8
0
 10
-17.6289
 20
175.555
 11
-17.7893
 21
175.896
  0
LINE
  8
0
 10
-17.7893
 20
175.896
 11
-17.9057
 21
176.254
  0
LINE
  8
0
 10
-17.9057
 20
176.254
 11
-17.9763
 21
176.624
  0
LINE
  8
0
 10
-17.9763
 20
176.624
 11
-18
 21
177
  0
LINE
  8
0
 10
-18
 20
177
 11
-17.9763
 21
177.376
  0
LINE
  8
0
 10
-17.9763
 20
177.376
 11
-17.9057
 21
177.746
  0
LINE
  8
0
 10
-17.9057
 20
177.746
 11
-17.7893
 21
178.104
  0
LINE
  8
0
 10
-17.7893
 20
178.104
 11
-17.6289
 21
178.445
  0
LINE
  8
0
 10
-17.6289
 20
178.445
 11
-17.427
 21
178.763
  0
LINE
  8
0
 10
-17.427
 20
178.763
 11
-17.1869
 21
179.054
  0
LINE
  8
0
 10
-17.1869
 20
179.054
 11
-16.9123
 21
179.312
  0
LINE
  8
0
 10
-16.9123
 20
179.312
 11
-16.6075
 21
179.533
  0
LINE
  8
0
 10
-16.6075
 20
179.533
 11
-16.2773
 21
179.714
  0
LINE
  8
0
 10
-16.2773
 20
179.714
 11
-15.927
 21
179.853
  0
LINE
  8
0
 10
-15.927
 20
179.853
 11
-15.5621
 21
179.947
  0
LINE
  8
0
 10
-15.5621
 20
179.947
 11
-15.1884
 21
179.994
  0
LINE
  8
0
 10
-15.1884
 20
179.994
 11
-14.8116
 21
179.994
  0
LINE
  8
0
 10
-14.8116
 20
179.994
 11
-14.4379
 21
179.947
  0
LINE
  8
0
 10
-14.4379
 20
179.947
 11
-14.0729
 21
179.853
  0
LINE
  8
0
 10
-14.0729
 20
179.853
 11
-13.7227
 21
179.714
  0
LINE
  8
0
 10
-13.7227
 20
179.714
 11
-13.3925
 21
179.533
  0
LINE
  8
0
 10
-13.3925
 20
179.533
 11
-13.0877
 21
179.312
  0
LINE
  8
0
 10
-13.0877
 20
179.312
 11
-12.8131
 21
179.054
  0
LINE
  8
0
 10
-12.8131
 20
179.054
 11
-12.5729
 21
178.763
  0
LINE
  8
0
 10
-12.5729
 20
178.763
 11
-12.3711
 21
178.445
  0
LINE
  8
0
 10
-12.3711
 20
178.445
 11
-12.2107
 21
178.104
  0
LINE
  8
0
 10
-12.2107
 20
178.104
 11
-12.0942
 21
177.746
  0
LINE
  8
0
 10
-12.0942
 20
177.746
 11
-12.0237
 21
177.376
  0
LINE
  8
0
 10
-12.0237
 20
177.376
 11
-12
 21
177
  0
LINE
  8
0
 10
-12
 20
177
 11
-12.0237
 21
176.624
  0
LINE
  8
0
 10
-12.0237
 20
176.624
 11
-12.0942
 21
176.254
  0
LINE
  8
0
 10
-12.0942
 20
176.254
 11
-12.2107
 21
175.896
  0
LINE
  8
0
 10
-12.2107
 20
175.896
 11
-12.3711
 21
175.555
  0
LINE
  8
0
 10
-12.3711
 20
175.555
 11
-12.5729
 21
175.237
  0
LINE
  8
0
 10
-12.5729
 20
175.237
 11
-12.8131
 21
174.946
  0
LINE
  8
0
 10
-12.8131
 20
174.946
 11
-13.0877
 21
174.688
  0
LINE
  8
0
 10
-13.0877
 20
174.688
 11
-13.3925
 21
174.467
  0
LINE
  8
0
 10
-13.3925
 20
174.467
 11
-13.7227
 21
174.286
  0
LINE
  8
0
 10
-13.7227
 20
174.286
 11
-14.0729
 21
174.147
  0
LINE
  8
0
 10
-14.0729
 20
174.147
 11
-14.4379
 21
174.053
  0
LINE
  8
0
 10
-14.4379
 20
174.053
 11
-14.8116
 21
174.006
  0
LINE
  8
0
 10
-14.8116
 20
174.006
 11
-15.1884
 21
174.006
  0
LINE
  8
0
 10
14.8116
 20
174.006
 11
14.4379
 21
174.053
  0
LINE
  8
0
 10
14.4379
 20
174.053
 11
14.0729
 21
174.147
  0
LINE
  8
0
 10
14.0729
 20
174.147
 11
13.7227
 21
174.286
  0
LINE
  8
0
 10
13.7227
 20
174.286
 11
13.3925
 21
174.467
  0
LINE
  8
0
 10
13.3925
 20
174.467
 11
13.0877
 21
174.688
  0
LINE
  8
0
 10
13.0877
 20
174.688
 11
12.8131
 21
174.946
  0
LINE
  8
0
 10
12.8131
 20
174.946
 11
12.5729
 21
175.237
  0
LINE
  8
0
 10
12.5729
 20
175.237
 11
12.3711
 21
175.555
  0
LINE
  8
0
 10
12.3711
 20
175.555
 11
12.2107
 21
175.896
  0
LINE
  8
0
 10
12.2107
 20
175.896
 11
12.0942
 21
176.254
  0
LINE
  8
0
 10
12.0942
 20
176.254
 11
12.0237
 21
176.624
  0
LINE
  8
0
 10
12.0237
 20
176.624
 11
12
 21
177
  0
LINE
  8
0
 10
12
 20
177
 11
12.0237
 21
177.376
  0
LINE
  8
0
 10
12.0237
 20
177.376
 11
12.0942
 21
177.746
  0
LINE
  8
0
 10
12.0942
 20
177.746
 11
12.2107
 21
178.104
  0
LINE
  8
0
 10
12.2107
 20
178.104
 11
12.3711
 21
178.445
  0
LINE
  8
0
 10
12.3711
 20
178.445
 11
12.5729
 21
178.763
  0
LINE
  8
0
 10
12.5729
 20
178.763
 11
12.8131
 21
179.054
  0
LINE
  8
0
 10
12.8131
 20
179.054
 11
13.0877
 21
179.312
  0
LINE
  8
0
 10
13.0877
 20
179.312
 11
13.3925
 21
179.533
  0
LINE
  8
0
 10
13.3925
 20
179.533
 11
13.7227
 21
179.714
  0
LINE
  8
0
 10
13.7227
 20
179.714
 11
14.0729
 21
179.853
  0
LINE
  8
0
 10
14.0729
 20
179.853
 11
14.4379
 21
179.947
  0
LINE
  8
0
 10
14.4379
 20
179.947
 11
14.8116
 21
179.994
  0
LINE
  8
0
 10
14.8116
 20
179.994
 11
15.1884
 21
179.994
  0
LINE
  8
0
 10
15.1884
 20
179.994
 11
15.5621
 21
179.947
  0
LINE
  8
0
 10
15.5621
 20
179.947
 11
15.927
 21
179.853
  0
LINE
  8
0
 10
15.927
 20
179.853
 11
16.2773
 21
179.714
  0
LINE
  8
0
 10
16.2773
 20
179.714
 11
16.6075
 21
179.533
  0
LINE
  8
0
 10
16.6075
 20
179.533
 11
16.9123
 21
179.312
  0
LINE
  8
0
 10
16.9123
 20
179.312
 11
17.1869
 21
179.054
  0
LINE
  8
0
 10
17.1869
 20
179.054
 11
17.427
 21
178.763
  0
LINE
  8
0
 10
17.427
 20
178.763
 11
17.6289
 21
178.445
  0
LINE
  8
0
 10
17.6289
 20
178.445
 11
17.7893
 21
178.104
  0
LINE
  8
0
 10
17.7893
 20
178.104
 11
17.9057
 21
177.746
  0
LINE
  8
0
 10
17.9057
 20
177.746
 11
17.9763
 21
177.376
  0
LINE
  8
0
 10
17.9763
 20
177.376
 11
18
 21
177
  0
LINE
  8
0
 10
18
 20
177
 11
17.9763
 21
176.624
  0
LINE
  8
0
 10
17.9763
 20
176.624
 11
17.9057
 21
176.254
  0
LINE
  8
0
 10
17.9057
 20
176.254
 11
17.7893
 21
175.896
  0
LINE
  8
0
 10
17.7893
 20
175.896
 11
17.6289
 21
175.555
  0
LINE
  8
0
 10
17.6289
 20
175.555
 11
17.427
 21
175.237
  0
LINE
  8
0
 10
17.427
 20
175.237
 11
17.1869
 21
174.946
  0
LINE
  8
0
 10
17.1869
 20
174.946
 11
16.9123
 21
174.688
  0
LINE
  8
0
 10
16.9123
 20
174.688
 11
16.6075
 21
174.467
  0
LINE
  8
0
 10
16.6075
 20
174.467
 11
16.2773
 21
174.286
  0
LINE
  8
0
 10
16.2773
 20
174.286
 11
15.927
 21
174.147
  0
LINE
  8
0
 10
15.927
 20
174.147
 11
15.5621
 21
174.053
  0
LINE
  8
0
 10
15.5621
 20
174.053
 11
15.1884
 21
174.006
  0
LINE
  8
0
 10
15.1884
 20
174.006
 11
14.8116
 21
174.006
  0
LINE
  8
0
 10
-30.1884
 20
174.006
 11
-30.5621
 21
174.053
  0
LINE
  8
0
 10
-30.5621
 20
174.053
 11
-30.927
 21
174.147
  0
LINE
  8
0
 10
-30.927
 20
174.147
 11
-31.2773
 21
174.286
  0
LINE
  8
0
 10
-31.2773
 20
174.286
 11
-31.6075
 21
174.467
  0
LINE
  8
0
 10
-31.6075
 20
174.467
 11
-31.9123
 21
174.688
  0
LINE
  8
0
 10
-31.9123
 20
174.688
 11
-32.1869
 21
174.946
  0
LINE
  8
0
 10
-32.1869
 20
174.946
 11
-32.427
 21
175.237
  0
LINE
  8
0
 10
-32.427
 20
175.237
 11
-32.6289
 21
175.555
  0
LINE
  8
0
 10
-32.6289
 20
175.555
 11
-32.7893
 21
175.896
  0
LINE
  8
0
 10
-32.7893
 20
175.896
 11
-32.9057
 21
176.254
  0
LINE
  8
0
 10
-32.9057
 20
176.254
 11
-32.9763
 21
176.624
  0
LINE
  8
0
 10
-32.9763
 20
176.624
 11
-33
 21
177
  0
LINE
  8
0
 10
-33
 20
177
 11
-32.9763
 21
177.376
  0
LINE
  8
0
 10
-32.9763
 20
177.376
 11
-32.9057
 21
177.746
  0
LINE
  8
0
 10
-32.9057
 20
177.746
 11
-32.7893
 21
178.104
  0
LINE
  8
0
 10
-32.7893
 20
178.104
 11
-32.6289
 21
178.445
  0
LINE
  8
0
 10
-32.6289
 20
178.445
 11
-32.427
 21
178.763
  0
LINE
  8
0
 10
-32.427
 20
178.763
 11
-32.1869
 21
179.054
  0
LINE
  8
0
 10
-32.1869
 20
179.054
 11
-31.9123
 21
179.312
  0
LINE
  8
0
 10
-31.9123
 20
179.312
 11
-31.6075
 21
179.533
  0
LINE
  8
0
 10
-31.6075
 20
179.533
 11
-31.2773
 21
179.714
  0
LINE
  8
0
 10
-31.2773
 20
179.714
 11
-30.927
 21
179.853
  0
LINE
  8
0
 10
-30.927
 20
179.853
 11
-30.5621
 21
179.947
  0
LINE
  8
0
 10
-30.5621
 20
179.947
 11
-30.1884
 21
179.994
  0
LINE
  8
0
 10
-30.1884
 20
179.994
 11
-29.8116
 21
179.994
  0
LINE
  8
0
 10
-29.8116
 20
179.994
 11
-29.4379
 21
179.947
  0
LINE
  8
0
 10
-29.4379
 20
179.947
 11
-29.0729
 21
179.853
  0
LINE
  8
0
 10
-29.0729
 20
179.853
 11
-28.7227
 21
179.714
  0
LINE
  8
0
 10
-28.7227
 20
179.714
 11
-28.3925
 21
179.533
  0
LINE
  8
0
 10
-28.3925
 20
179.533
 11
-28.0877
 21
179.312
  0
LINE
  8
0
 10
-28.0877
 20
179.312
 11
-27.8131
 21
179.054
  0
LINE
  8
0
 10
-27.8131
 20
179.054
 11
-27.5729
 21
178.763
  0
LINE
  8
0
 10
-27.5729
 20
178.763
 11
-27.3711
 21
178.445
  0
LINE
  8
0
 10
-27.3711
 20
178.445
 11
-27.2107
 21
178.104
  0
LINE
  8
0
 10
-27.2107
 20
178.104
 11
-27.0942
 21
177.746
  0
LINE
  8
0
 10
-27.0942
 20
177.746
 11
-27.0237
 21
177.376
  0
LINE
  8
0
 10
-27.0237
 20
177.376
 11
-27
 21
177
  0
LINE
  8
0
 10
-27
 20
177
 11
-27.0237
 21
176.624
  0
LINE
  8
0
 10
-27.0237
 20
176.624
 11
-27.0942
 21
176.254
  0
LINE
  8
0
 10
-27.0942
 20
176.254
 11
-27.2107
 21
175.896
  0
LINE
  8
0
 10
-27.2107
 20
175.896
 11
-27.3711
 21
175.555
  0
LINE
  8
0
 10
-27.3711
 20
175.555
 11
-27.5729
 21
175.237
  0
LINE
  8
0
 10
-27.5729
 20
175.237
 11
-27.8131
 21
174.946
  0
LINE
  8
0
 10
-27.8131
 20
174.946
 11
-28.0877
 21
174.688
  0
LINE
  8
0
 10
-28.0877
 20
174.688
 11
-28.3925
 21
174.467
  0
LINE
  8
0
 10
-28.3925
 20
174.467
 11
-28.7227
 21
174.286
  0
LINE
  8
0
 10
-28.7227
 20
174.286
 11
-29.0729
 21
174.147
  0
LINE
  8
0
 10
-29.0729
 20
174.147
 11
-29.4379
 21
174.053
  0
LINE
  8
0
 10
-29.4379
 20
174.053
 11
-29.8116
 21
174.006
  0
LINE
  8
0
 10
-29.8116
 20
174.006
 11
-30.1884
 21
174.006
  0
LINE
  8
0
 10
-0.18837
 20
159.006
 11
-0.562134
 21
159.053
  0
LINE
  8
0
 10
-0.562134
 20
159.053
 11
-0.927048
 21
159.147
  0
LINE
  8
0
 10
-0.927048
 20
159.147
 11
-1.27733
 21
159.286
  0
LINE
  8
0
 10
-1.27733
 20
159.286
 11
-1.60747
 21
159.467
  0
LINE
  8
0
 10
-1.60747
 20
159.467
 11
-1.91226
 21
159.688
  0
LINE
  8
0
 10
-1.91226
 20
159.688
 11
-2.1869
 21
159.946
  0
LINE
  8
0
 10
-2.1869
 20
159.946
 11
-2.42705
 21
160.237
  0
LINE
  8
0
 10
-2.42705
 20
160.237
 11
-2.62891
 21
160.555
  0
LINE
  8
0
 10
-2.62891
 20
160.555
 11
-2.78932
 21
160.896
  0
LINE
  8
0
 10
-2.78932
 20
160.896
 11
-2.90575
 21
161.254
  0
LINE
  8
0
 10
-2.90575
 20
161.254
 11
-2.97633
 21
161.624
  0
LINE
  8
0
 10
-2.97633
 20
161.624
 11
-3
 21
162
  0
LINE
  8
0
 10
-3
 20
162
 11
-2.97633
 21
162.376
  0
LINE
  8
0
 10
-2.97633
 20
162.376
 11
-2.90575
 21
162.746
  0
LINE
  8
0
 10
-2.90575
 20
162.746
 11
-2.78932
 21
163.104
  0
LINE
  8
0
 10
-2.78932
 20
163.104
 11
-2.62891
 21
163.445
  0
LINE
  8
0
 10
-2.62891
 20
163.445
 11
-2.42705
 21
163.763
  0
LINE
  8
0
 10
-2.42705
 20
163.763
 11
-2.1869
 21
164.054
  0
LINE
  8
0
 10
-2.1869
 20
164.054
 11
-1.91226
 21
164.312
  0
LINE
  8
0
 10
-1.91226
 20
164.312
 11
-1.60747
 21
164.533
  0
LINE
  8
0
 10
-1.60747
 20
164.533
 11
-1.27733
 21
164.714
  0
LINE
  8
0
 10
-1.27733
 20
164.714
 11
-0.927048
 21
164.853
  0
LINE
  8
0
 10
-0.927048
 20
164.853
 11
-0.562134
 21
164.947
  0
LINE
  8
0
 10
-0.562134
 20
164.947
 11
-0.18837
 21
164.994
  0
LINE
  8
0
 10
-0.18837
 20
164.994
 11
0.18837
 21
164.994
  0
LINE
  8
0
 10
0.18837
 20
164.994
 11
0.562134
 21
164.947
  0
LINE
  8
0
 10
0.562134
 20
164.947
 11
0.927048
 21
164.853
  0
LINE
  8
0
 10
0.927048
 20
164.853
 11
1.27733
 21
164.714
  0
LINE
  8
0
 10
1.27733
 20
164.714
 11
1.60747
 21
164.533
  0
LINE
  8
0
 10
1.60747
 20
164.533
 11
1.91226
 21
164.312
  0
LINE
  8
0
 10
1.91226
 20
164.312
 11
2.1869
 21
164.054
  0
LINE
  8
0
 10
2.1869
 20
164.054
 11
2.42705
 21
163.763
  0
LINE
  8
0
 10
2.42705
 20
163.763
 11
2.62891
 21
163.445
  0
LINE
  8
0
 10
2.62891
 20
163.445
 11
2.78932
 21
163.104
  0
LINE
  8
0
 10
2.78932
 20
163.104
 11
2.90575
 21
162.746
  0
LINE
  8
0
 10
2.90575
 20
162.746
 11
2.97633
 21
162.376
  0
LINE
  8
0
 10
2.97633
 20
162.376
 11
3
 21
162
  0
LINE
  8
0
 10
3
 20
162
 11
2.97633
 21
161.624
  0
LINE
  8
0
 10
2.97633
 20
161.624
 11
2.90575
 21
161.254
  0
LINE
  8
0
 10
2.90575
 20
161.254
 11
2.78932
 21
160.896
  0
LINE
  8
0
 10
2.78932
 20
160.896
 11
2.62891
 21
160.555
  0
LINE
  8
0
 10
2.62891
 20
160.555
 11
2.42705
 21
160.237
  0
LINE
  8
0
 10
2.42705
 20
160.237
 11
2.1869
 21
159.946
  0
LINE
  8
0
 10
2.1869
 20
159.946
 11
1.91226
 21
159.688
  0
LINE
  8
0
 10
1.91226
 20
159.688
 11
1.60747
 21
159.467
  0
LINE
  8
0
 10
1.60747
 20
159.467
 11
1.27733
 21
159.286
  0
LINE
  8
0
 10
1.27733
 20
159.286
 11
0.927048
 21
159.147
  0
LINE
  8
0
 10
0.927048
 20
159.147
 11
0.562134
 21
159.053
  0
LINE
  8
0
 10
0.562134
 20
159.053
 11
0.18837
 21
159.006
  0
LINE
  8
0
 10
0.18837
 20
159.006
 11
-0.18837
 21
159.006
  0
LINE
  8
0
 10
-30.1884
 20
159.006
 11
-30.5621
 21
159.053
  0
LINE
  8
0
 10
-30.5621
 20
159.053
 11
-30.927
 21
159.147
  0
LINE
  8
0
 10
-30.927
 20
159.147
 11
-31.2773
 21
159.286
  0
LINE
  8
0
 10
-31.2773
 20
159.286
 11
-31.6075
 21
159.467
  0
LINE
  8
0
 10
-31.6075
 20
159.467
 11
-31.9123
 21
159.688
  0
LINE
  8
0
 10
-31.9123
 20
159.688
 11
-32.1869
 21
159.946
  0
LINE
  8
0
 10
-32.1869
 20
159.946
 11
-32.427
 21
160.237
  0
LINE
  8
0
 10
-32.427
 20
160.237
 11
-32.6289
 21
160.555
  0
LINE
  8
0
 10
-32.6289
 20
160.555
 11
-32.7893
 21
160.896
  0
LINE
  8
0
 10
-32.7893
 20
160.896
 11
-32.9057
 21
161.254
  0
LINE
  8
0
 10
-32.9057
 20
161.254
 11
-32.9763
 21
161.624
  0
LINE
  8
0
 10
-32.9763
 20
161.624
 11
-33
 21
162
  0
LINE
  8
0
 10
-33
 20
162
 11
-32.9763
 21
162.376
  0
LINE
  8
0
 10
-32.9763
 20
162.376
 11
-32.9057
 21
162.746
  0
LINE
  8
0
 10
-32.9057
 20
162.746
 11
-32.7893
 21
163.104
  0
LINE
  8
0
 10
-32.7893
 20
163.104
 11
-32.6289
 21
163.445
  0
LINE
  8
0
 10
-32.6289
 20
163.445
 11
-32.427
 21
163.763
  0
LINE
  8
0
 10
-32.427
 20
163.763
 11
-32.1869
 21
164.054
  0
LINE
  8
0
 10
-32.1869
 20
164.054
 11
-31.9123
 21
164.312
  0
LINE
  8
0
 10
-31.9123
 20
164.312
 11
-31.6075
 21
164.533
  0
LINE
  8
0
 10
-31.6075
 20
164.533
 11
-31.2773
 21
164.714
  0
LINE
  8
0
 10
-31.2773
 20
164.714
 11
-30.927
 21
164.853
  0
LINE
  8
0
 10
-30.927
 20
164.853
 11
-30.5621
 21
164.947
  0
LINE
  8
0
 10
-30.5621
 20
164.947
 11
-30.1884
 21
164.994
  0
LINE
  8
0
 10
-30.1884
 20
164.994
 11
-29.8116
 21
164.994
  0
LINE
  8
0
 10
-29.8116
 20
164.994
 11
-29.4379
 21
164.947
  0
LINE
  8
0
 10
-29.4379
 20
164.947
 11
-29.0729
 21
164.853
  0
LINE
  8
0
 10
-29.0729
 20
164.853
 11
-28.7227
 21
164.714
  0
LINE
  8
0
 10
-28.7227
 20
164.714
 11
-28.3925
 21
164.533
  0
LINE
  8
0
 10
-28.3925
 20
164.533
 11
-28.0877
 21
164.312
  0
LINE
  8
0
 10
-28.0877
 20
164.312
 11
-27.8131
 21
164.054
  0
LINE
  8
0
 10
-27.8131
 20
164.054
 11
-27.5729
 21
163.763
  0
LINE
  8
0
 10
-27.5729
 20
163.763
 11
-27.3711
 21
163.445
  0
LINE
  8
0
 10
-27.3711
 20
163.445
 11
-27.2107
 21
163.104
  0
LINE
  8
0
 10
-27.2107
 20
163.104
 11
-27.0942
 21
162.746
  0
LINE
  8
0
 10
-27.0942
 20
162.746
 11
-27.0237
 21
162.376
  0
LINE
  8
0
 10
-27.0237
 20
162.376
 11
-27
 21
162
  0
LINE
  8
0
 10
-27
 20
162
 11
-27.0237
 21
161.624
  0
LINE
  8
0
 10
-27.0237
 20
161.624
 11
-27.0942
 21
161.254
  0
LINE
  8
0
 10
-27.0942
 20
161.254
 11
-27.2107
 21
160.896
  0
LINE
  8
0
 10
-27.2107
 20
160.896
 11
-27.3711
 21
160.555
  0
LINE
  8
0
 10
-27.3711
 20
160.555
 11
-27.5729
 21
160.237
  0
LINE
  8
0
 10
-27.5729
 20
160.237
 11
-27.8131
 21
159.946
  0
LINE
  8
0
 10
-27.8131
 20
159.946
 11
-28.0877
 21
159.688
  0
LINE
  8
0
 10
-28.0877
 20
159.688
 11
-28.3925
 21
159.467
  0
LINE
  8
0
 10
-28.3925
 20
159.467
 11
-28.7227
 21
159.286
  0
LINE
  8
0
 10
-28.7227
 20
159.286
 11
-29.0729
 21
159.147
  0
LINE
  8
0
 10
-29.0729
 20
159.147
 11
-29.4379
 21
159.053
  0
LINE
  8
0
 10
-29.4379
 20
159.053
 11
-29.8116
 21
159.006
  0
LINE
  8
0
 10
-29.8116
 20
159.006
 11
-30.1884
 21
159.006
  0
LINE
  8
0
 10
29.8116
 20
159.006
 11
29.4379
 21
159.053
  0
LINE
  8
0
 10
29.4379
 20
159.053
 11
29.0729
 21
159.147
  0
LINE
  8
0
 10
29.0729
 20
159.147
 11
28.7227
 21
159.286
  0
LINE
  8
0
 10
28.7227
 20
159.286
 11
28.3925
 21
159.467
  0
LINE
  8
0
 10
28.3925
 20
159.467
 11
28.0877
 21
159.688
  0
LINE
  8
0
 10
28.0877
 20
159.688
 11
27.8131
 21
159.946
  0
LINE
  8
0
 10
27.8131
 20
159.946
 11
27.5729
 21
160.237
  0
LINE
  8
0
 10
27.5729
 20
160.237
 11
27.3711
 21
160.555
  0
LINE
  8
0
 10
27.3711
 20
160.555
 11
27.2107
 21
160.896
  0
LINE
  8
0
 10
27.2107
 20
160.896
 11
27.0942
 21
161.254
  0
LINE
  8
0
 10
27.0942
 20
161.254
 11
27.0237
 21
161.624
  0
LINE
  8
0
 10
27.0237
 20
161.624
 11
27
 21
162
  0
LINE
  8
0
 10
27
 20
162
 11
27.0237
 21
162.376
  0
LINE
  8
0
 10
27.0237
 20
162.376
 11
27.0942
 21
162.746
  0
LINE
  8
0
 10
27.0942
 20
162.746
 11
27.2107
 21
163.104
  0
LINE
  8
0
 10
27.2107
 20
163.104
 11
27.3711
 21
163.445
  0
LINE
  8
0
 10
27.3711
 20
163.445
 11
27.5729
 21
163.763
  0
LINE
  8
0
 10
27.5729
 20
163.763
 11
27.8131
 21
164.054
  0
LINE
  8
0
 10
27.8131
 20
164.054
 11
28.0877
 21
164.312
  0
LINE
  8
0
 10
28.0877
 20
164.312
 11
28.3925
 21
164.533
  0
LINE
  8
0
 10
28.3925
 20
164.533
 11
28.7227
 21
164.714
  0
LINE
  8
0
 10
28.7227
 20
164.714
 11
29.0729
 21
164.853
  0
LINE
  8
0
 10
29.0729
 20
164.853
 11
29.4379
 21
164.947
  0
LINE
  8
0
 10
29.4379
 20
164.947
 11
29.8116
 21
164.994
  0
LINE
  8
0
 10
29.8116
 20
164.994
 11
30.1884
 21
164.994
  0
LINE
  8
0
 10
30.1884
 20
164.994
 11
30.5621
 21
164.947
  0
LINE
  8
0
 10
30.5621
 20
164.947
 11
30.927
 21
164.853
  0
LINE
  8
0
 10
30.927
 20
164.853
 11
31.2773
 21
164.714
  0
LINE
  8
0
 10
31.2773
 20
164.714
 11
31.6075
 21
164.533
  0
LINE
  8
0
 10
31.6075
 20
164.533
 11
31.9123
 21
164.312
  0
LINE
  8
0
 10
31.9123
 20
164.312
 11
32.1869
 21
164.054
  0
LINE
  8
0
 10
32.1869
 20
164.054
 11
32.427
 21
163.763
  0
LINE
  8
0
 10
32.427
 20
163.763
 11
32.6289
 21
163.445
  0
LINE
  8
0
 10
32.6289
 20
163.445
 11
32.7893
 21
163.104
  0
LINE
  8
0
 10
32.7893
 20
163.104
 11
32.9057
 21
162.746
  0
LINE
  8
0
 10
32.9057
 20
162.746
 11
32.9763
 21
162.376
  0
LINE
  8
0
 10
32.9763
 20
162.376
 11
33
 21
162
  0
LINE
  8
0
 10
33
 20
162
 11
32.9763
 21
161.624
  0
LINE
  8
0
 10
32.9763
 20
161.624
 11
32.9057
 21
161.254
  0
LINE
  8
0
 10
32.9057
 20
161.254
 11
32.7893
 21
160.896
  0
LINE
  8
0
 10
32.7893
 20
160.896
 11
32.6289
 21
160.555
  0
LINE
  8
0
 10
32.6289
 20
160.555
 11
32.427
 21
160.237
  0
LINE
  8
0
 10
32.427
 20
160.237
 11
32.1869
 21
159.946
  0
LINE
  8
0
 10
32.1869
 20
159.946
 11
31.9123
 21
159.688
  0
LINE
  8
0
 10
31.9123
 20
159.688
 11
31.6075
 21
159.467
  0
LINE
  8
0
 10
31.6075
 20
159.467
 11
31.2773
 21
159.286
  0
LINE
  8
0
 10
31.2773
 20
159.286
 11
30.927
 21
159.147
  0
LINE
  8
0
 10
30.927
 20
159.147
 11
30.5621
 21
159.053
  0
LINE
  8
0
 10
30.5621
 20
159.053
 11
30.1884
 21
159.006
  0
LINE
  8
0
 10
30.1884
 20
159.006
 11
29.8116
 21
159.006
  0
LINE
  8
0
 10
14.8116
 20
159.006
 11
14.4379
 21
159.053
  0
LINE
  8
0
 10
14.4379
 20
159.053
 11
14.0729
 21
159.147
  0
LINE
  8
0
 10
14.0729
 20
159.147
 11
13.7227
 21
159.286
  0
LINE
  8
0
 10
13.7227
 20
159.286
 11
13.3925
 21
159.467
  0
LINE
  8
0
 10
13.3925
 20
159.467
 11
13.0877
 21
159.688
  0
LINE
  8
0
 10
13.0877
 20
159.688
 11
12.8131
 21
159.946
  0
LINE
  8
0
 10
12.8131
 20
159.946
 11
12.5729
 21
160.237
  0
LINE
  8
0
 10
12.5729
 20
160.237
 11
12.3711
 21
160.555
  0
LINE
  8
0
 10
12.3711
 20
160.555
 11
12.2107
 21
160.896
  0
LINE
  8
0
 10
12.2107
 20
160.896
 11
12.0942
 21
161.254
  0
LINE
  8
0
 10
12.0942
 20
161.254
 11
12.0237
 21
161.624
  0
LINE
  8
0
 10
12.0237
 20
161.624
 11
12
 21
162
  0
LINE
  8
0
 10
12
 20
162
 11
12.0237
 21
162.376
  0
LINE
  8
0
 10
12.0237
 20
162.376
 11
12.0942
 21
162.746
  0
LINE
  8
0
 10
12.0942
 20
162.746
 11
12.2107
 21
163.104
  0
LINE
  8
0
 10
12.2107
 20
163.104
 11
12.3711
 21
163.445
  0
LINE
  8
0
 10
12.3711
 20
163.445
 11
12.5729
 21
163.763
  0
LINE
  8
0
 10
12.5729
 20
163.763
 11
12.8131
 21
164.054
  0
LINE
  8
0
 10
12.8131
 20
164.054
 11
13.0877
 21
164.312
  0
LINE
  8
0
 10
13.0877
 20
164.312
 11
13.3925
 21
164.533
  0
LINE
  8
0
 10
13.3925
 20
164.533
 11
13.7227
 21
164.714
  0
LINE
  8
0
 10
13.7227
 20
164.714
 11
14.0729
 21
164.853
  0
LINE
  8
0
 10
14.0729
 20
164.853
 11
14.4379
 21
164.947
  0
LINE
  8
0
 10
14.4379
 20
164.947
 11
14.8116
 21
164.994
  0
LINE
  8
0
 10
14.8116
 20
164.994
 11
15.1884
 21
164.994
  0
LINE
  8
0
 10
15.1884
 20
164.994
 11
15.5621
 21
164.947
  0
LINE
  8
0
 10
15.5621
 20
164.947
 11
15.927
 21
164.853
  0
LINE
  8
0
 10
15.927
 20
164.853
 11
16.2773
 21
164.714
  0
LINE
  8
0
 10
16.2773
 20
164.714
 11
16.6075
 21
164.533
  0
LINE
  8
0
 10
16.6075
 20
164.533
 11
16.9123
 21
164.312
  0
LINE
  8
0
 10
16.9123
 20
164.312
 11
17.1869
 21
164.054
  0
LINE
  8
0
 10
17.1869
 20
164.054
 11
17.427
 21
163.763
  0
LINE
  8
0
 10
17.427
 20
163.763
 11
17.6289
 21
163.445
  0
LINE
  8
0
 10
17.6289
 20
163.445
 11
17.7893
 21
163.104
  0
LINE
  8
0
 10
17.7893
 20
163.104
 11
17.9057
 21
162.746
  0
LINE
  8
0
 10
17.9057
 20
162.746
 11
17.9763
 21
162.376
  0
LINE
  8
0
 10
17.9763
 20
162.376
 11
18
 21
162
  0
LINE
  8
0
 10
18
 20
162
 11
17.9763
 21
161.624
  0
LINE
  8
0
 10
17.9763
 20
161.624
 11
17.9057
 21
161.254
  0
LINE
  8
0
 10
17.9057
 20
161.254
 11
17.7893
 21
160.896
  0
LINE
  8
0
 10
17.7893
 20
160.896
 11
17.6289
 21
160.555
  0
LINE
  8
0
 10
17.6289
 20
160.555
 11
17.427
 21
160.237
  0
LINE
  8
0
 10
17.427
 20
160.237
 11
17.1869
 21
159.946
  0
LINE
  8
0
 10
17.1869
 20
159.946
 11
16.9123
 21
159.688
  0
LINE
  8
0
 10
16.9123
 20
159.688
 11
16.6075
 21
159.467
  0
LINE
  8
0
 10
16.6075
 20
159.467
 11
16.2773
 21
159.286
  0
LINE
  8
0
 10
16.2773
 20
159.286
 11
15.927
 21
159.147
  0
LINE
  8
0
 10
15.927
 20
159.147
 11
15.5621
 21
159.053
  0
LINE
  8
0
 10
15.5621
 20
159.053
 11
15.1884
 21
159.006
  0
LINE
  8
0
 10
15.1884
 20
159.006
 11
14.8116
 21
159.006
  0
LINE
  8
0
 10
-15.1884
 20
159.006
 11
-15.5621
 21
159.053
  0
LINE
  8
0
 10
-15.5621
 20
159.053
 11
-15.927
 21
159.147
  0
LINE
  8
0
 10
-15.927
 20
159.147
 11
-16.2773
 21
159.286
  0
LINE
  8
0
 10
-16.2773
 20
159.286
 11
-16.6075
 21
159.467
  0
LINE
  8
0
 10
-16.6075
 20
159.467
 11
-16.9123
 21
159.688
  0
LINE
  8
0
 10
-16.9123
 20
159.688
 11
-17.1869
 21
159.946
  0
LINE
  8
0
 10
-17.1869
 20
159.946
 11
-17.427
 21
160.237
  0
LINE
  8
0
 10
-17.427
 20
160.237
 11
-17.6289
 21
160.555
  0
LINE
  8
0
 10
-17.6289
 20
160.555
 11
-17.7893
 21
160.896
  0
LINE
  8
0
 10
-17.7893
 20
160.896
 11
-17.9057
 21
161.254
  0
LINE
  8
0
 10
-17.9057
 20
161.254
 11
-17.9763
 21
161.624
  0
LINE
  8
0
 10
-17.9763
 20
161.624
 11
-18
 21
162
  0
LINE
  8
0
 10
-18
 20
162
 11
-17.9763
 21
162.376
  0
LINE
  8
0
 10
-17.9763
 20
162.376
 11
-17.9057
 21
162.746
  0
LINE
  8
0
 10
-17.9057
 20
162.746
 11
-17.7893
 21
163.104
  0
LINE
  8
0
 10
-17.7893
 20
163.104
 11
-17.6289
 21
163.445
  0
LINE
  8
0
 10
-17.6289
 20
163.445
 11
-17.427
 21
163.763
  0
LINE
  8
0
 10
-17.427
 20
163.763
 11
-17.1869
 21
164.054
  0
LINE
  8
0
 10
-17.1869
 20
164.054
 11
-16.9123
 21
164.312
  0
LINE
  8
0
 10
-16.9123
 20
164.312
 11
-16.6075
 21
164.533
  0
LINE
  8
0
 10
-16.6075
 20
164.533
 11
-16.2773
 21
164.714
  0
LINE
  8
0
 10
-16.2773
 20
164.714
 11
-15.927
 21
164.853
  0
LINE
  8
0
 10
-15.927
 20
164.853
 11
-15.5621
 21
164.947
  0
LINE
  8
0
 10
-15.5621
 20
164.947
 11
-15.1884
 21
164.994
  0
LINE
  8
0
 10
-15.1884
 20
164.994
 11
-14.8116
 21
164.994
  0
LINE
  8
0
 10
-14.8116
 20
164.994
 11
-14.4379
 21
164.947
  0
LINE
  8
0
 10
-14.4379
 20
164.947
 11
-14.0729
 21
164.853
  0
LINE
  8
0
 10
-14.0729
 20
164.853
 11
-13.7227
 21
164.714
  0
LINE
  8
0
 10
-13.7227
 20
164.714
 11
-13.3925
 21
164.533
  0
LINE
  8
0
 10
-13.3925
 20
164.533
 11
-13.0877
 21
164.312
  0
LINE
  8
0
 10
-13.0877
 20
164.312
 11
-12.8131
 21
164.054
  0
LINE
  8
0
 10
-12.8131
 20
164.054
 11
-12.5729
 21
163.763
  0
LINE
  8
0
 10
-12.5729
 20
163.763
 11
-12.3711
 21
163.445
  0
LINE
  8
0
 10
-12.3711
 20
163.445
 11
-12.2107
 21
163.104
  0
LINE
  8
0
 10
-12.2107
 20
163.104
 11
-12.0942
 21
162.746
  0
LINE
  8
0
 10
-12.0942
 20
162.746
 11
-12.0237
 21
162.376
  0
LINE
  8
0
 10
-12.0237
 20
162.376
 11
-12
 21
162
  0
LINE
  8
0
 10
-12
 20
162
 11
-12.0237
 21
161.624
  0
LINE
  8
0
 10
-12.0237
 20
161.624
 11
-12.0942
 21
161.254
  0
LINE
  8
0
 10
-12.0942
 20
161.254
 11
-12.2107
 21
160.896
  0
LINE
  8
0
 10
-12.2107
 20
160.896
 11
-12.3711
 21
160.555
  0
LINE
  8
0
 10
-12.3711
 20
160.555
 11
-12.5729
 21
160.237
  0
LINE
  8
0
 10
-12.5729
 20
160.237
 11
-12.8131
 21
159.946
  0
LINE
  8
0
 10
-12.8131
 20
159.946
 11
-13.0877
 21
159.688
  0
LINE
  8
0
 10
-13.0877
 20
159.688
 11
-13.3925
 21
159.467
  0
LINE
  8
0
 10
-13.3925
 20
159.467
 11
-13.7227
 21
159.286
  0
LINE
  8
0
 10
-13.7227
 20
159.286
 11
-14.0729
 21
159.147
  0
LINE
  8
0
 10
-14.0729
 20
159.147
 11
-14.4379
 21
159.053
  0
LINE
  8
0
 10
-14.4379
 20
159.053
 11
-14.8116
 21
159.006
  0
LINE
  8
0
 10
-14.8116
 20
159.006
 11
-15.1884
 21
159.006
  0
LINE
  8
0
 10
14.8116
 20
144.006
 11
14.4379
 21
144.053
  0
LINE
  8
0
 10
14.4379
 20
144.053
 11
14.0729
 21
144.147
  0
LINE
  8
0
 10
14.0729
 20
144.147
 11
13.7227
 21
144.286
  0
LINE
  8
0
 10
13.7227
 20
144.286
 11
13.3925
 21
144.467
  0
LINE
  8
0
 10
13.3925
 20
144.467
 11
13.0877
 21
144.688
  0
LINE
  8
0
 10
13.0877
 20
144.688
 11
12.8131
 21
144.946
  0
LINE
  8
0
 10
12.8131
 20
144.946
 11
12.5729
 21
145.237
  0
LINE
  8
0
 10
12.5729
 20
145.237
 11
12.3711
 21
145.555
  0
LINE
  8
0
 10
12.3711
 20
145.555
 11
12.2107
 21
145.896
  0
LINE
  8
0
 10
12.2107
 20
145.896
 11
12.0942
 21
146.254
  0
LINE
  8
0
 10
12.0942
 20
146.254
 11
12.0237
 21
146.624
  0
LINE
  8
0
 10
12.0237
 20
146.624
 11
12
 21
147
  0
LINE
  8
0
 10
12
 20
147
 11
12.0237
 21
147.376
  0
LINE
  8
0
 10
12.0237
 20
147.376
 11
12.0942
 21
147.746
  0
LINE
  8
0
 10
12.0942
 20
147.746
 11
12.2107
 21
148.104
  0
LINE
  8
0
 10
12.2107
 20
148.104
 11
12.3711
 21
148.445
  0
LINE
  8
0
 10
12.3711
 20
148.445
 11
12.5729
 21
148.763
  0
LINE
  8
0
 10
12.5729
 20
148.763
 11
12.8131
 21
149.054
  0
LINE
  8
0
 10
12.8131
 20
149.054
 11
13.0877
 21
149.312
  0
LINE
  8
0
 10
13.0877
 20
149.312
 11
13.3925
 21
149.533
  0
LINE
  8
0
 10
13.3925
 20
149.533
 11
13.7227
 21
149.714
  0
LINE
  8
0
 10
13.7227
 20
149.714
 11
14.0729
 21
149.853
  0
LINE
  8
0
 10
14.0729
 20
149.853
 11
14.4379
 21
149.947
  0
LINE
  8
0
 10
14.4379
 20
149.947
 11
14.8116
 21
149.994
  0
LINE
  8
0
 10
14.8116
 20
149.994
 11
15.1884
 21
149.994
  0
LINE
  8
0
 10
15.1884
 20
149.994
 11
15.5621
 21
149.947
  0
LINE
  8
0
 10
15.5621
 20
149.947
 11
15.927
 21
149.853
  0
LINE
  8
0
 10
15.927
 20
149.853
 11
16.2773
 21
149.714
  0
LINE
  8
0
 10
16.2773
 20
149.714
 11
16.6075
 21
149.533
  0
LINE
  8
0
 10
16.6075
 20
149.533
 11
16.9123
 21
149.312
  0
LINE
  8
0
 10
16.9123
 20
149.312
 11
17.1869
 21
149.054
  0
LINE
  8
0
 10
17.1869
 20
149.054
 11
17.427
 21
148.763
  0
LINE
  8
0
 10
17.427
 20
148.763
 11
17.6289
 21
148.445
  0
LINE
  8
0
 10
17.6289
 20
148.445
 11
17.7893
 21
148.104
  0
LINE
  8
0
 10
17.7893
 20
148.104
 11
17.9057
 21
147.746
  0
LINE
  8
0
 10
17.9057
 20
147.746
 11
17.9763
 21
147.376
  0
LINE
  8
0
 10
17.9763
 20
147.376
 11
18
 21
147
  0
LINE
  8
0
 10
18
 20
147
 11
17.9763
 21
146.624
  0
LINE
  8
0
 10
17.9763
 20
146.624
 11
17.9057
 21
146.254
  0
LINE
  8
0
 10
17.9057
 20
146.254
 11
17.7893
 21
145.896
  0
LINE
  8
0
 10
17.7893
 20
145.896
 11
17.6289
 21
145.555
  0
LINE
  8
0
 10
17.6289
 20
145.555
 11
17.427
 21
145.237
  0
LINE
  8
0
 10
17.427
 20
145.237
 11
17.1869
 21
144.946
  0
LINE
  8
0
 10
17.1869
 20
144.946
 11
16.9123
 21
144.688
  0
LINE
  8
0
 10
16.9123
 20
144.688
 11
16.6075
 21
144.467
  0
LINE
  8
0
 10
16.6075
 20
144.467
 11
16.2773
 21
144.286
  0
LINE
  8
0
 10
16.2773
 20
144.286
 11
15.927
 21
144.147
  0
LINE
  8
0
 10
15.927
 20
144.147
 11
15.5621
 21
144.053
  0
LINE
  8
0
 10
15.5621
 20
144.053
 11
15.1884
 21
144.006
  0
LINE
  8
0
 10
15.1884
 20
144.006
 11
14.8116
 21
144.006
  0
LINE
  8
0
 10
-30.1884
 20
144.006
 11
-30.5621
 21
144.053
  0
LINE
  8
0
 10
-30.5621
 20
144.053
 11
-30.927
 21
144.147
  0
LINE
  8
0
 10
-30.927
 20
144.147
 11
-31.2773
 21
144.286
  0
LINE
  8
0
 10
-31.2773
 20
144.286
 11
-31.6075
 21
144.467
  0
LINE
  8
0
 10
-31.6075
 20
144.467
 11
-31.9123
 21
144.688
  0
LINE
  8
0
 10
-31.9123
 20
144.688
 11
-32.1869
 21
144.946
  0
LINE
  8
0
 10
-32.1869
 20
144.946
 11
-32.427
 21
145.237
  0
LINE
  8
0
 10
-32.427
 20
145.237
 11
-32.6289
 21
145.555
  0
LINE
  8
0
 10
-32.6289
 20
145.555
 11
-32.7893
 21
145.896
  0
LINE
  8
0
 10
-32.7893
 20
145.896
 11
-32.9057
 21
146.254
  0
LINE
  8
0
 10
-32.9057
 20
146.254
 11
-32.9763
 21
146.624
  0
LINE
  8
0
 10
-32.9763
 20
146.624
 11
-33
 21
147
  0
LINE
  8
0
 10
-33
 20
147
 11
-32.9763
 21
147.376
  0
LINE
  8
0
 10
-32.9763
 20
147.376
 11
-32.9057
 21
147.746
  0
LINE
  8
0
 10
-32.9057
 20
147.746
 11
-32.7893
 21
148.104
  0
LINE
  8
0
 10
-32.7893
 20
148.104
 11
-32.6289
 21
148.445
  0
LINE
  8
0
 10
-32.6289
 20
148.445
 11
-32.427
 21
148.763
  0
LINE
  8
0
 10
-32.427
 20
148.763
 11
-32.1869
 21
149.054
  0
LINE
  8
0
 10
-32.1869
 20
149.054
 11
-31.9123
 21
149.312
  0
LINE
  8
0
 10
-31.9123
 20
149.312
 11
-31.6075
 21
149.533
  0
LINE
  8
0
 10
-31.6075
 20
149.533
 11
-31.2773
 21
149.714
  0
LINE
  8
0
 10
-31.2773
 20
149.714
 11
-30.927
 21
149.853
  0
LINE
  8
0
 10
-30.927
 20
149.853
 11
-30.5621
 21
149.947
  0
LINE
  8
0
 10
-30.5621
 20
149.947
 11
-30.1884
 21
149.994
  0
LINE
  8
0
 10
-30.1884
 20
149.994
 11
-29.8116
 21
149.994
  0
LINE
  8
0
 10
-29.8116
 20
149.994
 11
-29.4379
 21
149.947
  0
LINE
  8
0
 10
-29.4379
 20
149.947
 11
-29.0729
 21
149.853
  0
LINE
  8
0
 10
-29.0729
 20
149.853
 11
-28.7227
 21
149.714
  0
LINE
  8
0
 10
-28.7227
 20
149.714
 11
-28.3925
 21
149.533
  0
LINE
  8
0
 10
-28.3925
 20
149.533
 11
-28.0877
 21
149.312
  0
LINE
  8
0
 10
-28.0877
 20
149.312
 11
-27.8131
 21
149.054
  0
LINE
  8
0
 10
-27.8131
 20
149.054
 11
-27.5729
 21
148.763
  0
LINE
  8
0
 10
-27.5729
 20
148.763
 11
-27.3711
 21
148.445
  0
LINE
  8
0
 10
-27.3711
 20
148.445
 11
-27.2107
 21
148.104
  0
LINE
  8
0
 10
-27.2107
 20
148.104
 11
-27.0942
 21
147.746
  0
LINE
  8
0
 10
-27.0942
 20
147.746
 11
-27.0237
 21
147.376
  0
LINE
  8
0
 10
-27.0237
 20
147.376
 11
-27
 21
147
  0
LINE
  8
0
 10
-27
 20
147
 11
-27.0237
 21
146.624
  0
LINE
  8
0
 10
-27.0237
 20
146.624
 11
-27.0942
 21
146.254
  0
LINE
  8
0
 10
-27.0942
 20
146.254
 11
-27.2107
 21
145.896
  0
LINE
  8
0
 10
-27.2107
 20
145.896
 11
-27.3711
 21
145.555
  0
LINE
  8
0
 10
-27.3711
 20
145.555
 11
-27.5729
 21
145.237
  0
LINE
  8
0
 10
-27.5729
 20
145.237
 11
-27.8131
 21
144.946
  0
LINE
  8
0
 10
-27.8131
 20
144.946
 11
-28.0877
 21
144.688
  0
LINE
  8
0
 10
-28.0877
 20
144.688
 11
-28.3925
 21
144.467
  0
LINE
  8
0
 10
-28.3925
 20
144.467
 11
-28.7227
 21
144.286
  0
LINE
  8
0
 10
-28.7227
 20
144.286
 11
-29.0729
 21
144.147
  0
LINE
  8
0
 10
-29.0729
 20
144.147
 11
-29.4379
 21
144.053
  0
LINE
  8
0
 10
-29.4379
 20
144.053
 11
-29.8116
 21
144.006
  0
LINE
  8
0
 10
-29.8116
 20
144.006
 11
-30.1884
 21
144.006
  0
LINE
  8
0
 10
-15.1884
 20
144.006
 11
-15.5621
 21
144.053
  0
LINE
  8
0
 10
-15.5621
 20
144.053
 11
-15.927
 21
144.147
  0
LINE
  8
0
 10
-15.927
 20
144.147
 11
-16.2773
 21
144.286
  0
LINE
  8
0
 10
-16.2773
 20
144.286
 11
-16.6075
 21
144.467
  0
LINE
  8
0
 10
-16.6075
 20
144.467
 11
-16.9123
 21
144.688
  0
LINE
  8
0
 10
-16.9123
 20
144.688
 11
-17.1869
 21
144.946
  0
LINE
  8
0
 10
-17.1869
 20
144.946
 11
-17.427
 21
145.237
  0
LINE
  8
0
 10
-17.427
 20
145.237
 11
-17.6289
 21
145.555
  0
LINE
  8
0
 10
-17.6289
 20
145.555
 11
-17.7893
 21
145.896
  0
LINE
  8
0
 10
-17.7893
 20
145.896
 11
-17.9057
 21
146.254
  0
LINE
  8
0
 10
-17.9057
 20
146.254
 11
-17.9763
 21
146.624
  0
LINE
  8
0
 10
-17.9763
 20
146.624
 11
-18
 21
147
  0
LINE
  8
0
 10
-18
 20
147
 11
-17.9763
 21
147.376
  0
LINE
  8
0
 10
-17.9763
 20
147.376
 11
-17.9057
 21
147.746
  0
LINE
  8
0
 10
-17.9057
 20
147.746
 11
-17.7893
 21
148.104
  0
LINE
  8
0
 10
-17.7893
 20
148.104
 11
-17.6289
 21
148.445
  0
LINE
  8
0
 10
-17.6289
 20
148.445
 11
-17.427
 21
148.763
  0
LINE
  8
0
 10
-17.427
 20
148.763
 11
-17.1869
 21
149.054
  0
LINE
  8
0
 10
-17.1869
 20
149.054
 11
-16.9123
 21
149.312
  0
LINE
  8
0
 10
-16.9123
 20
149.312
 11
-16.6075
 21
149.533
  0
LINE
  8
0
 10
-16.6075
 20
149.533
 11
-16.2773
 21
149.714
  0
LINE
  8
0
 10
-16.2773
 20
149.714
 11
-15.927
 21
149.853
  0
LINE
  8
0
 10
-15.927
 20
149.853
 11
-15.5621
 21
149.947
  0
LINE
  8
0
 10
-15.5621
 20
149.947
 11
-15.1884
 21
149.994
  0
LINE
  8
0
 10
-15.1884
 20
149.994
 11
-14.8116
 21
149.994
  0
LINE
  8
0
 10
-14.8116
 20
149.994
 11
-14.4379
 21
149.947
  0
LINE
  8
0
 10
-14.4379
 20
149.947
 11
-14.0729
 21
149.853
  0
LINE
  8
0
 10
-14.0729
 20
149.853
 11
-13.7227
 21
149.714
  0
LINE
  8
0
 10
-13.7227
 20
149.714
 11
-13.3925
 21
149.533
  0
LINE
  8
0
 10
-13.3925
 20
149.533
 11
-13.0877
 21
149.312
  0
LINE
  8
0
 10
-13.0877
 20
149.312
 11
-12.8131
 21
149.054
  0
LINE
  8
0
 10
-12.8131
 20
149.054
 11
-12.5729
 21
148.763
  0
LINE
  8
0
 10
-12.5729
 20
148.763
 11
-12.3711
 21
148.445
  0
LINE
  8
0
 10
-12.3711
 20
148.445
 11
-12.2107
 21
148.104
  0
LINE
  8
0
 10
-12.2107
 20
148.104
 11
-12.0942
 21
147.746
  0
LINE
  8
0
 10
-12.0942
 20
147.746
 11
-12.0237
 21
147.376
  0
LINE
  8
0
 10
-12.0237
 20
147.376
 11
-12
 21
147
  0
LINE
  8
0
 10
-12
 20
147
 11
-12.0237
 21
146.624
  0
LINE
  8
0
 10
-12.0237
 20
146.624
 11
-12.0942
 21
146.254
  0
LINE
  8
0
 10
-12.0942
 20
146.254
 11
-12.2107
 21
145.896
  0
LINE
  8
0
 10
-12.2107
 20
145.896
 11
-12.3711
 21
145.555
  0
LINE
  8
0
 10
-12.3711
 20
145.555
 11
-12.5729
 21
145.237
  0
LINE
  8
0
 10
-12.5729
 20
145.237
 11
-12.8131
 21
144.946
  0
LINE
  8
0
 10
-12.8131
 20
144.946
 11
-13.0877
 21
144.688
  0
LINE
  8
0
 10
-13.0877
 20
144.688
 11
-13.3925
 21
144.467
  0
LINE
  8
0
 10
-13.3925
 20
144.467
 11
-13.7227
 21
144.286
  0
LINE
  8
0
 10
-13.7227
 20
144.286
 11
-14.0729
 21
144.147
  0
LINE
  8
0
 10
-14.0729
 20
144.147
 11
-14.4379
 21
144.053
  0
LINE
  8
0
 10
-14.4379
 20
144.053
 11
-14.8116
 21
144.006
  0
LINE
  8
0
 10
-14.8116
 20
144.006
 11
-15.1884
 21
144.006
  0
LINE
  8
0
 10
29.8116
 20
144.006
 11
29.4379
 21
144.053
  0
LINE
  8
0
 10
29.4379
 20
144.053
 11
29.0729
 21
144.147
  0
LINE
  8
0
 10
29.0729
 20
144.147
 11
28.7227
 21
144.286
  0
LINE
  8
0
 10
28.7227
 20
144.286
 11
28.3925
 21
144.467
  0
LINE
  8
0
 10
28.3925
 20
144.467
 11
28.0877
 21
144.688
  0
LINE
  8
0
 10
28.0877
 20
144.688
 11
27.8131
 21
144.946
  0
LINE
  8
0
 10
27.8131
 20
144.946
 11
27.5729
 21
145.237
  0
LINE
  8
0
 10
27.5729
 20
145.237
 11
27.3711
 21
145.555
  0
LINE
  8
0
 10
27.3711
 20
145.555
 11
27.2107
 21
145.896
  0
LINE
  8
0
 10
27.2107
 20
145.896
 11
27.0942
 21
146.254
  0
LINE
  8
0
 10
27.0942
 20
146.254
 11
27.0237
 21
146.624
  0
LINE
  8
0
 10
27.0237
 20
146.624
 11
27
 21
147
  0
LINE
  8
0
 10
27
 20
147
 11
27.0237
 21
147.376
  0
LINE
  8
0
 10
27.0237
 20
147.376
 11
27.0942
 21
147.746
  0
LINE
  8
0
 10
27.0942
 20
147.746
 11
27.2107
 21
148.104
  0
LINE
  8
0
 10
27.2107
 20
148.104
 11
27.3711
 21
148.445
  0
LINE
  8
0
 10
27.3711
 20
148.445
 11
27.5729
 21
148.763
  0
LINE
  8
0
 10
27.5729
 20
148.763
 11
27.8131
 21
149.054
  0
LINE
  8
0
 10
27.8131
 20
149.054
 11
28.0877
 21
149.312
  0
LINE
  8
0
 10
28.0877
 20
149.312
 11
28.3925
 21
149.533
  0
LINE
  8
0
 10
28.3925
 20
149.533
 11
28.7227
 21
149.714
  0
LINE
  8
0
 10
28.7227
 20
149.714
 11
29.0729
 21
149.853
  0
LINE
  8
0
 10
29.0729
 20
149.853
 11
29.4379
 21
149.947
  0
LINE
  8
0
 10
29.4379
 20
149.947
 11
29.8116
 21
149.994
  0
LINE
  8
0
 10
29.8116
 20
149.994
 11
30.1884
 21
149.994
  0
LINE
  8
0
 10
30.1884
 20
149.994
 11
30.5621
 21
149.947
  0
LINE
  8
0
 10
30.5621
 20
149.947
 11
30.927
 21
149.853
  0
LINE
  8
0
 10
30.927
 20
149.853
 11
31.2773
 21
149.714
  0
LINE
  8
0
 10
31.2773
 20
149.714
 11
31.6075
 21
149.533
  0
LINE
  8
0
 10
31.6075
 20
149.533
 11
31.9123
 21
149.312
  0
LINE
  8
0
 10
31.9123
 20
149.312
 11
32.1869
 21
149.054
  0
LINE
  8
0
 10
32.1869
 20
149.054
 11
32.427
 21
148.763
  0
LINE
  8
0
 10
32.427
 20
148.763
 11
32.6289
 21
148.445
  0
LINE
  8
0
 10
32.6289
 20
148.445
 11
32.7893
 21
148.104
  0
LINE
  8
0
 10
32.7893
 20
148.104
 11
32.9057
 21
147.746
  0
LINE
  8
0
 10
32.9057
 20
147.746
 11
32.9763
 21
147.376
  0
LINE
  8
0
 10
32.9763
 20
147.376
 11
33
 21
147
  0
LINE
  8
0
 10
33
 20
147
 11
32.9763
 21
146.624
  0
LINE
  8
0
 10
32.9763
 20
146.624
 11
32.9057
 21
146.254
  0
LINE
  8
0
 10
32.9057
 20
146.254
 11
32.7893
 21
145.896
  0
LINE
  8
0
 10
32.7893
 20
145.896
 11
32.6289
 21
145.555
  0
LINE
  8
0
 10
32.6289
 20
145.555
 11
32.427
 21
145.237
  0
LINE
  8
0
 10
32.427
 20
145.237
 11
32.1869
 21
144.946
  0
LINE
  8
0
 10
32.1869
 20
144.946
 11
31.9123
 21
144.688
  0
LINE
  8
0
 10
31.9123
 20
144.688
 11
31.6075
 21
144.467
  0
LINE
  8
0
 10
31.6075
 20
144.467
 11
31.2773
 21
144.286
  0
LINE
  8
0
 10
31.2773
 20
144.286
 11
30.927
 21
144.147
  0
LINE
  8
0
 10
30.927
 20
144.147
 11
30.5621
 21
144.053
  0
LINE
  8
0
 10
30.5621
 20
144.053
 11
30.1884
 21
144.006
  0
LINE
  8
0
 10
30.1884
 20
144.006
 11
29.8116
 21
144.006
  0
LINE
  8
0
 10
-0.18837
 20
144.006
 11
-0.562134
 21
144.053
  0
LINE
  8
0
 10
-0.562134
 20
144.053
 11
-0.927048
 21
144.147
  0
LINE
  8
0
 10
-0.927048
 20
144.147
 11
-1.27733
 21
144.286
  0
LINE
  8
0
 10
-1.27733
 20
144.286
 11
-1.60747
 21
144.467
  0
LINE
  8
0
 10
-1.60747
 20
144.467
 11
-1.91226
 21
144.688
  0
LINE
  8
0
 10
-1.91226
 20
144.688
 11
-2.1869
 21
144.946
  0
LINE
  8
0
 10
-2.1869
 20
144.946
 11
-2.42705
 21
145.237
  0
LINE
  8
0
 10
-2.42705
 20
145.237
 11
-2.62891
 21
145.555
  0
LINE
  8
0
 10
-2.62891
 20
145.555
 11
-2.78932
 21
145.896
  0
LINE
  8
0
 10
-2.78932
 20
145.896
 11
-2.90575
 21
146.254
  0
LINE
  8
0
 10
-2.90575
 20
146.254
 11
-2.97633
 21
146.624
  0
LINE
  8
0
 10
-2.97633
 20
146.624
 11
-3
 21
147
  0
LINE
  8
0
 10
-3
 20
147
 11
-2.97633
 21
147.376
  0
LINE
  8
0
 10
-2.97633
 20
147.376
 11
-2.90575
 21
147.746
  0
LINE
  8
0
 10
-2.90575
 20
147.746
 11
-2.78932
 21
148.104
  0
LINE
  8
0
 10
-2.78932
 20
148.104
 11
-2.62891
 21
148.445
  0
LINE
  8
0
 10
-2.62891
 20
148.445
 11
-2.42705
 21
148.763
  0
LINE
  8
0
 10
-2.42705
 20
148.763
 11
-2.1869
 21
149.054
  0
LINE
  8
0
 10
-2.1869
 20
149.054
 11
-1.91226
 21
149.312
  0
LINE
  8
0
 10
-1.91226
 20
149.312
 11
-1.60747
 21
149.533
  0
LINE
  8
0
 10
-1.60747
 20
149.533
 11
-1.27733
 21
149.714
  0
LINE
  8
0
 10
-1.27733
 20
149.714
 11
-0.927048
 21
149.853
  0
LINE
  8
0
 10
-0.927048
 20
149.853
 11
-0.562134
 21
149.947
  0
LINE
  8
0
 10
-0.562134
 20
149.947
 11
-0.18837
 21
149.994
  0
LINE
  8
0
 10
-0.18837
 20
149.994
 11
0.18837
 21
149.994
  0
LINE
  8
0
 10
0.18837
 20
149.994
 11
0.562134
 21
149.947
  0
LINE
  8
0
 10
0.562134
 20
149.947
 11
0.927048
 21
149.853
  0
LINE
  8
0
 10
0.927048
 20
149.853
 11
1.27733
 21
149.714
  0
LINE
  8
0
 10
1.27733
 20
149.714
 11
1.60747
 21
149.533
  0
LINE
  8
0
 10
1.60747
 20
149.533
 11
1.91226
 21
149.312
  0
LINE
  8
0
 10
1.91226
 20
149.312
 11
2.1869
 21
149.054
  0
LINE
  8
0
 10
2.1869
 20
149.054
 11
2.42705
 21
148.763
  0
LINE
  8
0
 10
2.42705
 20
148.763
 11
2.62891
 21
148.445
  0
LINE
  8
0
 10
2.62891
 20
148.445
 11
2.78932
 21
148.104
  0
LINE
  8
0
 10
2.78932
 20
148.104
 11
2.90575
 21
147.746
  0
LINE
  8
0
 10
2.90575
 20
147.746
 11
2.97633
 21
147.376
  0
LINE
  8
0
 10
2.97633
 20
147.376
 11
3
 21
147
  0
LINE
  8
0
 10
3
 20
147
 11
2.97633
 21
146.624
  0
LINE
  8
0
 10
2.97633
 20
146.624
 11
2.90575
 21
146.254
  0
LINE
  8
0
 10
2.90575
 20
146.254
 11
2.78932
 21
145.896
  0
LINE
  8
0
 10
2.78932
 20
145.896
 11
2.62891
 21
145.555
  0
LINE
  8
0
 10
2.62891
 20
145.555
 11
2.42705
 21
145.237
  0
LINE
  8
0
 10
2.42705
 20
145.237
 11
2.1869
 21
144.946
  0
LINE
  8
0
 10
2.1869
 20
144.946
 11
1.91226
 21
144.688
  0
LINE
  8
0
 10
1.91226
 20
144.688
 11
1.60747
 21
144.467
  0
LINE
  8
0
 10
1.60747
 20
144.467
 11
1.27733
 21
144.286
  0
LINE
  8
0
 10
1.27733
 20
144.286
 11
0.927048
 21
144.147
  0
LINE
  8
0
 10
0.927048
 20
144.147
 11
0.562134
 21
144.053
  0
LINE
  8
0
 10
0.562134
 20
144.053
 11
0.18837
 21
144.006
  0
LINE
  8
0
 10
0.18837
 20
144.006
 11
-0.18837
 21
144.006
  0
LINE
  8
0
 10
32.9369
 20
86.0886
 11
33.5451
 21
86.2447
  0
LINE
  8
0
 10
33.5451
 20
86.2447
 11
34.1289
 21
86.4759
  0
LINE
  8
0
 10
34.1289
 20
86.4759
 11
34.6791
 21
86.7784
  0
LINE
  8
0
 10
34.6791
 20
86.7784
 11
35.1871
 21
87.1474
  0
LINE
  8
0
 10
35.1871
 20
87.1474
 11
35.6448
 21
87.5773
  0
LINE
  8
0
 10
35.6448
 20
87.5773
 11
36.0451
 21
88.0611
  0
LINE
  8
0
 10
36.0451
 20
88.0611
 11
36.3815
 21
88.5912
  0
LINE
  8
0
 10
36.3815
 20
88.5912
 11
36.6489
 21
89.1594
  0
LINE
  8
0
 10
36.6489
 20
89.1594
 11
36.8429
 21
89.7566
  0
LINE
  8
0
 10
36.8429
 20
89.7566
 11
36.9606
 21
90.3733
  0
LINE
  8
0
 10
36.9606
 20
90.3733
 11
37
 21
91
  0
LINE
  8
0
 10
37
 20
91
 11
37
 21
125
  0
LINE
  8
0
 10
37
 20
125
 11
36.9606
 21
125.627
  0
LINE
  8
0
 10
36.9606
 20
125.627
 11
36.8429
 21
126.243
  0
LINE
  8
0
 10
36.8429
 20
126.243
 11
36.6489
 21
126.841
  0
LINE
  8
0
 10
36.6489
 20
126.841
 11
36.3815
 21
127.409
  0
LINE
  8
0
 10
36.3815
 20
127.409
 11
36.0451
 21
127.939
  0
LINE
  8
0
 10
36.0451
 20
127.939
 11
35.6448
 21
128.423
  0
LINE
  8
0
 10
35.6448
 20
128.423
 11
35.1871
 21
128.853
  0
LINE
  8
0
 10
35.1871
 20
128.853
 11
34.6791
 21
129.222
  0
LINE
  8
0
 10
34.6791
 20
129.222
 11
34.1289
 21
129.524
  0
LINE
  8
0
 10
34.1289
 20
129.524
 11
33.5451
 21
129.755
  0
LINE
  8
0
 10
33.5451
 20
129.755
 11
32.9369
 21
129.911
  0
LINE
  8
0
 10
32.9369
 20
129.911
 11
32.3139
 21
129.99
  0
LINE
  8
0
 10
32.3139
 20
129.99
 11
-32.3139
 21
129.99
  0
LINE
  8
0
 10
-32.3139
 20
129.99
 11
-32.9369
 21
129.911
  0
LINE
  8
0
 10
-32.9369
 20
129.911
 11
-33.5451
 21
129.755
  0
LINE
  8
0
 10
-33.5451
 20
129.755
 11
-34.1289
 21
129.524
  0
LINE
  8
0
 10
-34.1289
 20
129.524
 11
-34.6791
 21
129.222
  0
LINE
  8
0
 10
-34.6791
 20
129.222
 11
-35.1871
 21
128.853
  0
LINE
  8
0
 10
-35.1871
 20
128.853
 11
-35.6448
 21
128.423
  0
LINE
  8
0
 10
-35.6448
 20
128.423
 11
-36.0451
 21
127.939
  0
LINE
  8
0
 10
-36.0451
 20
127.939
 11
-36.3815
 21
127.409
  0
LINE
  8
0
 10
-36.3815
 20
127.409
 11
-36.6489
 21
126.841
  0
LINE
  8
0
 10
-36.6489
 20
126.841
 11
-36.8429
 21
126.243
  0
LINE
  8
0
 10
-36.8429
 20
126.243
 11
-36.9606
 21
125.627
  0
LINE
  8
0
 10
-36.9606
 20
125.627
 11
-37
 21
125
  0
LINE
  8
0
 10
-37
 20
125
 11
-37
 21
91
  0
LINE
  8
0
 10
-37
 20
91
 11
-36.9606
 21
90.3733
  0
LINE
  8
0
 10
-36.9606
 20
90.3733
 11
-36.8429
 21
89.7566
  0
LINE
  8
0
 10
-36.8429
 20
89.7566
 11
-36.6489
 21
89.1594
  0
LINE
  8
0
 10
-36.6489
 20
89.1594
 11
-36.3815
 21
88.5912
  0
LINE
  8
0
 10
-36.3815
 20
88.5912
 11
-36.0451
 21
88.0611
  0
LINE
  8
0
 10
-36.0451
 20
88.0611
 11
-35.6448
 21
87.5773
  0
LINE
  8
0
 10
-35.6448
 20
87.5773
 11
-35.1871
 21
87.1474
  0
LINE
  8
0
 10
-35.1871
 20
87.1474
 11
-34.6791
 21
86.7784
  0
LINE
  8
0
 10
-34.6791
 20
86.7784
 11
-34.1289
 21
86.4759
  0
LINE
  8
0
 10
-34.1289
 20
86.4759
 11
-33.5451
 21
86.2447
  0
LINE
  8
0
 10
-33.5451
 20
86.2447
 11
-32.9369
 21
86.0886
  0
LINE
  8
0
 10
-32.9369
 20
86.0886
 11
-32.3139
 21
86.0099
  0
LINE
  8
0
 10
-32.3139
 20
86.0099
 11
32.3139
 21
86.0099
  0
LINE
  8
0
 10
32.3139
 20
86.0099
 11
32.9369
 21
86.0886
  0
LINE
  8
0
 10
14.8116
 20
120.006
 11
14.4379
 21
120.053
  0
LINE
  8
0
 10
14.4379
 20
120.053
 11
14.0729
 21
120.147
  0
LINE
  8
0
 10
14.0729
 20
120.147
 11
13.7227
 21
120.286
  0
LINE
  8
0
 10
13.7227
 20
120.286
 11
13.3925
 21
120.467
  0
LINE
  8
0
 10
13.3925
 20
120.467
 11
13.0877
 21
120.688
  0
LINE
  8
0
 10
13.0877
 20
120.688
 11
12.8131
 21
120.946
  0
LINE
  8
0
 10
12.8131
 20
120.946
 11
12.5729
 21
121.237
  0
LINE
  8
0
 10
12.5729
 20
121.237
 11
12.3711
 21
121.555
  0
LINE
  8
0
 10
12.3711
 20
121.555
 11
12.2107
 21
121.896
  0
LINE
  8
0
 10
12.2107
 20
121.896
 11
12.0942
 21
122.254
  0
LINE
  8
0
 10
12.0942
 20
122.254
 11
12.0237
 21
122.624
  0
LINE
  8
0
 10
12.0237
 20
122.624
 11
12
 21
123
  0
LINE
  8
0
 10
12
 20
123
 11
12.0237
 21
123.376
  0
LINE
  8
0
 10
12.0237
 20
123.376
 11
12.0942
 21
123.746
  0
LINE
  8
0
 10
12.0942
 20
123.746
 11
12.2107
 21
124.104
  0
LINE
  8
0
 10
12.2107
 20
124.104
 11
12.3711
 21
124.445
  0
LINE
  8
0
 10
12.3711
 20
124.445
 11
12.5729
 21
124.763
  0
LINE
  8
0
 10
12.5729
 20
124.763
 11
12.8131
 21
125.054
  0
LINE
  8
0
 10
12.8131
 20
125.054
 11
13.0877
 21
125.312
  0
LINE
  8
0
 10
13.0877
 20
125.312
 11
13.3925
 21
125.533
  0
LINE
  8
0
 10
13.3925
 20
125.533
 11
13.7227
 21
125.714
  0
LINE
  8
0
 10
13.7227
 20
125.714
 11
14.0729
 21
125.853
  0
LINE
  8
0
 10
14.0729
 20
125.853
 11
14.4379
 21
125.947
  0
LINE
  8
0
 10
14.4379
 20
125.947
 11
14.8116
 21
125.994
  0
LINE
  8
0
 10
14.8116
 20
125.994
 11
15.1884
 21
125.994
  0
LINE
  8
0
 10
15.1884
 20
125.994
 11
15.5621
 21
125.947
  0
LINE
  8
0
 10
15.5621
 20
125.947
 11
15.927
 21
125.853
  0
LINE
  8
0
 10
15.927
 20
125.853
 11
16.2773
 21
125.714
  0
LINE
  8
0
 10
16.2773
 20
125.714
 11
16.6075
 21
125.533
  0
LINE
  8
0
 10
16.6075
 20
125.533
 11
16.9123
 21
125.312
  0
LINE
  8
0
 10
16.9123
 20
125.312
 11
17.1869
 21
125.054
  0
LINE
  8
0
 10
17.1869
 20
125.054
 11
17.427
 21
124.763
  0
LINE
  8
0
 10
17.427
 20
124.763
 11
17.6289
 21
124.445
  0
LINE
  8
0
 10
17.6289
 20
124.445
 11
17.7893
 21
124.104
  0
LINE
  8
0
 10
17.7893
 20
124.104
 11
17.9057
 21
123.746
  0
LINE
  8
0
 10
17.9057
 20
123.746
 11
17.9763
 21
123.376
  0
LINE
  8
0
 10
17.9763
 20
123.376
 11
18
 21
123
  0
LINE
  8
0
 10
18
 20
123
 11
17.9763
 21
122.624
  0
LINE
  8
0
 10
17.9763
 20
122.624
 11
17.9057
 21
122.254
  0
LINE
  8
0
 10
17.9057
 20
122.254
 11
17.7893
 21
121.896
  0
LINE
  8
0
 10
17.7893
 20
121.896
 11
17.6289
 21
121.555
  0
LINE
  8
0
 10
17.6289
 20
121.555
 11
17.427
 21
121.237
  0
LINE
  8
0
 10
17.427
 20
121.237
 11
17.1869
 21
120.946
  0
LINE
  8
0
 10
17.1869
 20
120.946
 11
16.9123
 21
120.688
  0
LINE
  8
0
 10
16.9123
 20
120.688
 11
16.6075
 21
120.467
  0
LINE
  8
0
 10
16.6075
 20
120.467
 11
16.2773
 21
120.286
  0
LINE
  8
0
 10
16.2773
 20
120.286
 11
15.927
 21
120.147
  0
LINE
  8
0
 10
15.927
 20
120.147
 11
15.5621
 21
120.053
  0
LINE
  8
0
 10
15.5621
 20
120.053
 11
15.1884
 21
120.006
  0
LINE
  8
0
 10
15.1884
 20
120.006
 11
14.8116
 21
120.006
  0
LINE
  8
0
 10
29.8116
 20
120.006
 11
29.4379
 21
120.053
  0
LINE
  8
0
 10
29.4379
 20
120.053
 11
29.0729
 21
120.147
  0
LINE
  8
0
 10
29.0729
 20
120.147
 11
28.7227
 21
120.286
  0
LINE
  8
0
 10
28.7227
 20
120.286
 11
28.3925
 21
120.467
  0
LINE
  8
0
 10
28.3925
 20
120.467
 11
28.0877
 21
120.688
  0
LINE
  8
0
 10
28.0877
 20
120.688
 11
27.8131
 21
120.946
  0
LINE
  8
0
 10
27.8131
 20
120.946
 11
27.5729
 21
121.237
  0
LINE
  8
0
 10
27.5729
 20
121.237
 11
27.3711
 21
121.555
  0
LINE
  8
0
 10
27.3711
 20
121.555
 11
27.2107
 21
121.896
  0
LINE
  8
0
 10
27.2107
 20
121.896
 11
27.0942
 21
122.254
  0
LINE
  8
0
 10
27.0942
 20
122.254
 11
27.0237
 21
122.624
  0
LINE
  8
0
 10
27.0237
 20
122.624
 11
27
 21
123
  0
LINE
  8
0
 10
27
 20
123
 11
27.0237
 21
123.376
  0
LINE
  8
0
 10
27.0237
 20
123.376
 11
27.0942
 21
123.746
  0
LINE
  8
0
 10
27.0942
 20
123.746
 11
27.2107
 21
124.104
  0
LINE
  8
0
 10
27.2107
 20
124.104
 11
27.3711
 21
124.445
  0
LINE
  8
0
 10
27.3711
 20
124.445
 11
27.5729
 21
124.763
  0
LINE
  8
0
 10
27.5729
 20
124.763
 11
27.8131
 21
125.054
  0
LINE
  8
0
 10
27.8131
 20
125.054
 11
28.0877
 21
125.312
  0
LINE
  8
0
 10
28.0877
 20
125.312
 11
28.3925
 21
125.533
  0
LINE
  8
0
 10
28.3925
 20
125.533
 11
28.7227
 21
125.714
  0
LINE
  8
0
 10
28.7227
 20
125.714
 11
29.0729
 21
125.853
  0
LINE
  8
0
 10
29.0729
 20
125.853
 11
29.4379
 21
125.947
  0
LINE
  8
0
 10
29.4379
 20
125.947
 11
29.8116
 21
125.994
  0
LINE
  8
0
 10
29.8116
 20
125.994
 11
30.1884
 21
125.994
  0
LINE
  8
0
 10
30.1884
 20
125.994
 11
30.5621
 21
125.947
  0
LINE
  8
0
 10
30.5621
 20
125.947
 11
30.927
 21
125.853
  0
LINE
  8
0
 10
30.927
 20
125.853
 11
31.2773
 21
125.714
  0
LINE
  8
0
 10
31.2773
 20
125.714
 11
31.6075
 21
125.533
  0
LINE
  8
0
 10
31.6075
 20
125.533
 11
31.9123
 21
125.312
  0
LINE
  8
0
 10
31.9123
 20
125.312
 11
32.1869
 21
125.054
  0
LINE
  8
0
 10
32.1869
 20
125.054
 11
32.427
 21
124.763
  0
LINE
  8
0
 10
32.427
 20
124.763
 11
32.6289
 21
124.445
  0
LINE
  8
0
 10
32.6289
 20
124.445
 11
32.7893
 21
124.104
  0
LINE
  8
0
 10
32.7893
 20
124.104
 11
32.9057
 21
123.746
  0
LINE
  8
0
 10
32.9057
 20
123.746
 11
32.9763
 21
123.376
  0
LINE
  8
0
 10
32.9763
 20
123.376
 11
33
 21
123
  0
LINE
  8
0
 10
33
 20
123
 11
32.9763
 21
122.624
  0
LINE
  8
0
 10
32.9763
 20
122.624
 11
32.9057
 21
122.254
  0
LINE
  8
0
 10
32.9057
 20
122.254
 11
32.7893
 21
121.896
  0
LINE
  8
0
 10
32.7893
 20
121.896
 11
32.6289
 21
121.555
  0
LINE
  8
0
 10
32.6289
 20
121.555
 11
32.427
 21
121.237
  0
LINE
  8
0
 10
32.427
 20
121.237
 11
32.1869
 21
120.946
  0
LINE
  8
0
 10
32.1869
 20
120.946
 11
31.9123
 21
120.688
  0
LINE
  8
0
 10
31.9123
 20
120.688
 11
31.6075
 21
120.467
  0
LINE
  8
0
 10
31.6075
 20
120.467
 11
31.2773
 21
120.286
  0
LINE
  8
0
 10
31.2773
 20
120.286
 11
30.927
 21
120.147
  0
LINE
  8
0
 10
30.927
 20
120.147
 11
30.5621
 21
120.053
  0
LINE
  8
0
 10
30.5621
 20
120.053
 11
30.1884
 21
120.006
  0
LINE
  8
0
 10
30.1884
 20
120.006
 11
29.8116
 21
120.006
  0
LINE
  8
0
 10
-30.1884
 20
120.006
 11
-30.5621
 21
120.053
  0
LINE
  8
0
 10
-30.5621
 20
120.053
 11
-30.927
 21
120.147
  0
LINE
  8
0
 10
-30.927
 20
120.147
 11
-31.2773
 21
120.286
  0
LINE
  8
0
 10
-31.2773
 20
120.286
 11
-31.6075
 21
120.467
  0
LINE
  8
0
 10
-31.6075
 20
120.467
 11
-31.9123
 21
120.688
  0
LINE
  8
0
 10
-31.9123
 20
120.688
 11
-32.1869
 21
120.946
  0
LINE
  8
0
 10
-32.1869
 20
120.946
 11
-32.427
 21
121.237
  0
LINE
  8
0
 10
-32.427
 20
121.237
 11
-32.6289
 21
121.555
  0
LINE
  8
0
 10
-32.6289
 20
121.555
 11
-32.7893
 21
121.896
  0
LINE
  8
0
 10
-32.7893
 20
121.896
 11
-32.9057
 21
122.254
  0
LINE
  8
0
 10
-32.9057
 20
122.254
 11
-32.9763
 21
122.624
  0
LINE
  8
0
 10
-32.9763
 20
122.624
 11
-33
 21
123
  0
LINE
  8
0
 10
-33
 20
123
 11
-32.9763
 21
123.376
  0
LINE
  8
0
 10
-32.9763
 20
123.376
 11
-32.9057
 21
123.746
  0
LINE
  8
0
 10
-32.9057
 20
123.746
 11
-32.7893
 21
124.104
  0
LINE
  8
0
 10
-32.7893
 20
124.104
 11
-32.6289
 21
124.445
  0
LINE
  8
0
 10
-32.6289
 20
124.445
 11
-32.427
 21
124.763
  0
LINE
  8
0
 10
-32.427
 20
124.763
 11
-32.1869
 21
125.054
  0
LINE
  8
0
 10
-32.1869
 20
125.054
 11
-31.9123
 21
125.312
  0
LINE
  8
0
 10
-31.9123
 20
125.312
 11
-31.6075
 21
125.533
  0
LINE
  8
0
 10
-31.6075
 20
125.533
 11
-31.2773
 21
125.714
  0
LINE
  8
0
 10
-31.2773
 20
125.714
 11
-30.927
 21
125.853
  0
LINE
  8
0
 10
-30.927
 20
125.853
 11
-30.5621
 21
125.947
  0
LINE
  8
0
 10
-30.5621
 20
125.947
 11
-30.1884
 21
125.994
  0
LINE
  8
0
 10
-30.1884
 20
125.994
 11
-29.8116
 21
125.994
  0
LINE
  8
0
 10
-29.8116
 20
125.994
 11
-29.4379
 21
125.947
  0
LINE
  8
0
 10
-29.4379
 20
125.947
 11
-29.0729
 21
125.853
  0
LINE
  8
0
 10
-29.0729
 20
125.853
 11
-28.7227
 21
125.714
  0
LINE
  8
0
 10
-28.7227
 20
125.714
 11
-28.3925
 21
125.533
  0
LINE
  8
0
 10
-28.3925
 20
125.533
 11
-28.0877
 21
125.312
  0
LINE
  8
0
 10
-28.0877
 20
125.312
 11
-27.8131
 21
125.054
  0
LINE
  8
0
 10
-27.8131
 20
125.054
 11
-27.5729
 21
124.763
  0
LINE
  8
0
 10
-27.5729
 20
124.763
 11
-27.3711
 21
124.445
  0
LINE
  8
0
 10
-27.3711
 20
124.445
 11
-27.2107
 21
124.104
  0
LINE
  8
0
 10
-27.2107
 20
124.104
 11
-27.0942
 21
123.746
  0
LINE
  8
0
 10
-27.0942
 20
123.746
 11
-27.0237
 21
123.376
  0
LINE
  8
0
 10
-27.0237
 20
123.376
 11
-27
 21
123
  0
LINE
  8
0
 10
-27
 20
123
 11
-27.0237
 21
122.624
  0
LINE
  8
0
 10
-27.0237
 20
122.624
 11
-27.0942
 21
122.254
  0
LINE
  8
0
 10
-27.0942
 20
122.254
 11
-27.2107
 21
121.896
  0
LINE
  8
0
 10
-27.2107
 20
121.896
 11
-27.3711
 21
121.555
  0
LINE
  8
0
 10
-27.3711
 20
121.555
 11
-27.5729
 21
121.237
  0
LINE
  8
0
 10
-27.5729
 20
121.237
 11
-27.8131
 21
120.946
  0
LINE
  8
0
 10
-27.8131
 20
120.946
 11
-28.0877
 21
120.688
  0
LINE
  8
0
 10
-28.0877
 20
120.688
 11
-28.3925
 21
120.467
  0
LINE
  8
0
 10
-28.3925
 20
120.467
 11
-28.7227
 21
120.286
  0
LINE
  8
0
 10
-28.7227
 20
120.286
 11
-29.0729
 21
120.147
  0
LINE
  8
0
 10
-29.0729
 20
120.147
 11
-29.4379
 21
120.053
  0
LINE
  8
0
 10
-29.4379
 20
120.053
 11
-29.8116
 21
120.006
  0
LINE
  8
0
 10
-29.8116
 20
120.006
 11
-30.1884
 21
120.006
  0
LINE
  8
0
 10
-15.1884
 20
120.006
 11
-15.5621
 21
120.053
  0
LINE
  8
0
 10
-15.5621
 20
120.053
 11
-15.927
 21
120.147
  0
LINE
  8
0
 10
-15.927
 20
120.147
 11
-16.2773
 21
120.286
  0
LINE
  8
0
 10
-16.2773
 20
120.286
 11
-16.6075
 21
120.467
  0
LINE
  8
0
 10
-16.6075
 20
120.467
 11
-16.9123
 21
120.688
  0
LINE
  8
0
 10
-16.9123
 20
120.688
 11
-17.1869
 21
120.946
  0
LINE
  8
0
 10
-17.1869
 20
120.946
 11
-17.427
 21
121.237
  0
LINE
  8
0
 10
-17.427
 20
121.237
 11
-17.6289
 21
121.555
  0
LINE
  8
0
 10
-17.6289
 20
121.555
 11
-17.7893
 21
121.896
  0
LINE
  8
0
 10
-17.7893
 20
121.896
 11
-17.9057
 21
122.254
  0
LINE
  8
0
 10
-17.9057
 20
122.254
 11
-17.9763
 21
122.624
  0
LINE
  8
0
 10
-17.9763
 20
122.624
 11
-18
 21
123
  0
LINE
  8
0
 10
-18
 20
123
 11
-17.9763
 21
123.376
  0
LINE
  8
0
 10
-17.9763
 20
123.376
 11
-17.9057
 21
123.746
  0
LINE
  8
0
 10
-17.9057
 20
123.746
 11
-17.7893
 21
124.104
  0
LINE
  8
0
 10
-17.7893
 20
124.104
 11
-17.6289
 21
124.445
  0
LINE
  8
0
 10
-17.6289
 20
124.445
 11
-17.427
 21
124.763
  0
LINE
  8
0
 10
-17.427
 20
124.763
 11
-17.1869
 21
125.054
  0
LINE
  8
0
 10
-17.1869
 20
125.054
 11
-16.9123
 21
125.312
  0
LINE
  8
0
 10
-16.9123
 20
125.312
 11
-16.6075
 21
125.533
  0
LINE
  8
0
 10
-16.6075
 20
125.533
 11
-16.2773
 21
125.714
  0
LINE
  8
0
 10
-16.2773
 20
125.714
 11
-15.927
 21
125.853
  0
LINE
  8
0
 10
-15.927
 20
125.853
 11
-15.5621
 21
125.947
  0
LINE
  8
0
 10
-15.5621
 20
125.947
 11
-15.1884
 21
125.994
  0
LINE
  8
0
 10
-15.1884
 20
125.994
 11
-14.8116
 21
125.994
  0
LINE
  8
0
 10
-14.8116
 20
125.994
 11
-14.4379
 21
125.947
  0
LINE
  8
0
 10
-14.4379
 20
125.947
 11
-14.0729
 21
125.853
  0
LINE
  8
0
 10
-14.0729
 20
125.853
 11
-13.7227
 21
125.714
  0
LINE
  8
0
 10
-13.7227
 20
125.714
 11
-13.3925
 21
125.533
  0
LINE
  8
0
 10
-13.3925
 20
125.533
 11
-13.0877
 21
125.312
  0
LINE
  8
0
 10
-13.0877
 20
125.312
 11
-12.8131
 21
125.054
  0
LINE
  8
0
 10
-12.8131
 20
125.054
 11
-12.5729
 21
124.763
  0
LINE
  8
0
 10
-12.5729
 20
124.763
 11
-12.3711
 21
124.445
  0
LINE
  8
0
 10
-12.3711
 20
124.445
 11
-12.2107
 21
124.104
  0
LINE
  8
0
 10
-12.2107
 20
124.104
 11
-12.0942
 21
123.746
  0
LINE
  8
0
 10
-12.0942
 20
123.746
 11
-12.0237
 21
123.376
  0
LINE
  8
0
 10
-12.0237
 20
123.376
 11
-12
 21
123
  0
LINE
  8
0
 10
-12
 20
123
 11
-12.0237
 21
122.624
  0
LINE
  8
0
 10
-12.0237
 20
122.624
 11
-12.0942
 21
122.254
  0
LINE
  8
0
 10
-12.0942
 20
122.254
 11
-12.2107
 21
121.896
  0
LINE
  8
0
 10
-12.2107
 20
121.896
 11
-12.3711
 21
121.555
  0
LINE
  8
0
 10
-12.3711
 20
121.555
 11
-12.5729
 21
121.237
  0
LINE
  8
0
 10
-12.5729
 20
121.237
 11
-12.8131
 21
120.946
  0
LINE
  8
0
 10
-12.8131
 20
120.946
 11
-13.0877
 21
120.688
  0
LINE
  8
0
 10
-13.0877
 20
120.688
 11
-13.3925
 21
120.467
  0
LINE
  8
0
 10
-13.3925
 20
120.467
 11
-13.7227
 21
120.286
  0
LINE
  8
0
 10
-13.7227
 20
120.286
 11
-14.0729
 21
120.147
  0
LINE
  8
0
 10
-14.0729
 20
120.147
 11
-14.4379
 21
120.053
  0
LINE
  8
0
 10
-14.4379
 20
120.053
 11
-14.8116
 21
120.006
  0
LINE
  8
0
 10
-14.8116
 20
120.006
 11
-15.1884
 21
120.006
  0
LINE
  8
0
 10
-0.18837
 20
120.006
 11
-0.562134
 21
120.053
  0
LINE
  8
0
 10
-0.562134
 20
120.053
 11
-0.927048
 21
120.147
  0
LINE
  8
0
 10
-0.927048
 20
120.147
 11
-1.27733
 21
120.286
  0
LINE
  8
0
 10
-1.27733
 20
120.286
 11
-1.60747
 21
120.467
  0
LINE
  8
0
 10
-1.60747
 20
120.467
 11
-1.91226
 21
120.688
  0
LINE
  8
0
 10
-1.91226
 20
120.688
 11
-2.1869
 21
120.946
  0
LINE
  8
0
 10
-2.1869
 20
120.946
 11
-2.42705
 21
121.237
  0
LINE
  8
0
 10
-2.42705
 20
121.237
 11
-2.62891
 21
121.555
  0
LINE
  8
0
 10
-2.62891
 20
121.555
 11
-2.78932
 21
121.896
  0
LINE
  8
0
 10
-2.78932
 20
121.896
 11
-2.90575
 21
122.254
  0
LINE
  8
0
 10
-2.90575
 20
122.254
 11
-2.97633
 21
122.624
  0
LINE
  8
0
 10
-2.97633
 20
122.624
 11
-3
 21
123
  0
LINE
  8
0
 10
-3
 20
123
 11
-2.97633
 21
123.376
  0
LINE
  8
0
 10
-2.97633
 20
123.376
 11
-2.90575
 21
123.746
  0
LINE
  8
0
 10
-2.90575
 20
123.746
 11
-2.78932
 21
124.104
  0
LINE
  8
0
 10
-2.78932
 20
124.104
 11
-2.62891
 21
124.445
  0
LINE
  8
0
 10
-2.62891
 20
124.445
 11
-2.42705
 21
124.763
  0
LINE
  8
0
 10
-2.42705
 20
124.763
 11
-2.1869
 21
125.054
  0
LINE
  8
0
 10
-2.1869
 20
125.054
 11
-1.91226
 21
125.312
  0
LINE
  8
0
 10
-1.91226
 20
125.312
 11
-1.60747
 21
125.533
  0
LINE
  8
0
 10
-1.60747
 20
125.533
 11
-1.27733
 21
125.714
  0
LINE
  8
0
 10
-1.27733
 20
125.714
 11
-0.927048
 21
125.853
  0
LINE
  8
0
 10
-0.927048
 20
125.853
 11
-0.562134
 21
125.947
  0
LINE
  8
0
 10
-0.562134
 20
125.947
 11
-0.18837
 21
125.994
  0
LINE
  8
0
 10
-0.18837
 20
125.994
 11
0.18837
 21
125.994
  0
LINE
  8
0
 10
0.18837
 20
125.994
 11
0.562134
 21
125.947
  0
LINE
  8
0
 10
0.562134
 20
125.947
 11
0.927048
 21
125.853
  0
LINE
  8
0
 10
0.927048
 20
125.853
 11
1.27733
 21
125.714
  0
LINE
  8
0
 10
1.27733
 20
125.714
 11
1.60747
 21
125.533
  0
LINE
  8
0
 10
1.60747
 20
125.533
 11
1.91226
 21
125.312
  0
LINE
  8
0
 10
1.91226
 20
125.312
 11
2.1869
 21
125.054
  0
LINE
  8
0
 10
2.1869
 20
125.054
 11
2.42705
 21
124.763
  0
LINE
  8
0
 10
2.42705
 20
124.763
 11
2.62891
 21
124.445
  0
LINE
  8
0
 10
2.62891
 20
124.445
 11
2.78932
 21
124.104
  0
LINE
  8
0
 10
2.78932
 20
124.104
 11
2.90575
 21
123.746
  0
LINE
  8
0
 10
2.90575
 20
123.746
 11
2.97633
 21
123.376
  0
LINE
  8
0
 10
2.97633
 20
123.376
 11
3
 21
123
  0
LINE
  8
0
 10
3
 20
123
 11
2.97633
 21
122.624
  0
LINE
  8
0
 10
2.97633
 20
122.624
 11
2.90575
 21
122.254
  0
LINE
  8
0
 10
2.90575
 20
122.254
 11
2.78932
 21
121.896
  0
LINE
  8
0
 10
2.78932
 20
121.896
 11
2.62891
 21
121.555
  0
LINE
  8
0
 10
2.62891
 20
121.555
 11
2.42705
 21
121.237
  0
LINE
  8
0
 10
2.42705
 20
121.237
 11
2.1869
 21
120.946
  0
LINE
  8
0
 10
2.1869
 20
120.946
 11
1.91226
 21
120.688
  0
LINE
  8
0
 10
1.91226
 20
120.688
 11
1.60747
 21
120.467
  0
LINE
  8
0
 10
1.60747
 20
120.467
 11
1.27733
 21
120.286
  0
LINE
  8
0
 10
1.27733
 20
120.286
 11
0.927048
 21
120.147
  0
LINE
  8
0
 10
0.927048
 20
120.147
 11
0.562134
 21
120.053
  0
LINE
  8
0
 10
0.562134
 20
120.053
 11
0.18837
 21
120.006
  0
LINE
  8
0
 10
0.18837
 20
120.006
 11
-0.18837
 21
120.006
  0
LINE
  8
0
 10
14.8116
 20
105.006
 11
14.4379
 21
105.053
  0
LINE
  8
0
 10
14.4379
 20
105.053
 11
14.0729
 21
105.147
  0
LINE
  8
0
 10
14.0729
 20
105.147
 11
13.7227
 21
105.286
  0
LINE
  8
0
 10
13.7227
 20
105.286
 11
13.3925
 21
105.467
  0
LINE
  8
0
 10
13.3925
 20
105.467
 11
13.0877
 21
105.688
  0
LINE
  8
0
 10
13.0877
 20
105.688
 11
12.8131
 21
105.946
  0
LINE
  8
0
 10
12.8131
 20
105.946
 11
12.5729
 21
106.237
  0
LINE
  8
0
 10
12.5729
 20
106.237
 11
12.3711
 21
106.555
  0
LINE
  8
0
 10
12.3711
 20
106.555
 11
12.2107
 21
106.896
  0
LINE
  8
0
 10
12.2107
 20
106.896
 11
12.0942
 21
107.254
  0
LINE
  8
0
 10
12.0942
 20
107.254
 11
12.0237
 21
107.624
  0
LINE
  8
0
 10
12.0237
 20
107.624
 11
12
 21
108
  0
LINE
  8
0
 10
12
 20
108
 11
12.0237
 21
108.376
  0
LINE
  8
0
 10
12.0237
 20
108.376
 11
12.0942
 21
108.746
  0
LINE
  8
0
 10
12.0942
 20
108.746
 11
12.2107
 21
109.104
  0
LINE
  8
0
 10
12.2107
 20
109.104
 11
12.3711
 21
109.445
  0
LINE
  8
0
 10
12.3711
 20
109.445
 11
12.5729
 21
109.763
  0
LINE
  8
0
 10
12.5729
 20
109.763
 11
12.8131
 21
110.054
  0
LINE
  8
0
 10
12.8131
 20
110.054
 11
13.0877
 21
110.312
  0
LINE
  8
0
 10
13.0877
 20
110.312
 11
13.3925
 21
110.533
  0
LINE
  8
0
 10
13.3925
 20
110.533
 11
13.7227
 21
110.714
  0
LINE
  8
0
 10
13.7227
 20
110.714
 11
14.0729
 21
110.853
  0
LINE
  8
0
 10
14.0729
 20
110.853
 11
14.4379
 21
110.947
  0
LINE
  8
0
 10
14.4379
 20
110.947
 11
14.8116
 21
110.994
  0
LINE
  8
0
 10
14.8116
 20
110.994
 11
15.1884
 21
110.994
  0
LINE
  8
0
 10
15.1884
 20
110.994
 11
15.5621
 21
110.947
  0
LINE
  8
0
 10
15.5621
 20
110.947
 11
15.927
 21
110.853
  0
LINE
  8
0
 10
15.927
 20
110.853
 11
16.2773
 21
110.714
  0
LINE
  8
0
 10
16.2773
 20
110.714
 11
16.6075
 21
110.533
  0
LINE
  8
0
 10
16.6075
 20
110.533
 11
16.9123
 21
110.312
  0
LINE
  8
0
 10
16.9123
 20
110.312
 11
17.1869
 21
110.054
  0
LINE
  8
0
 10
17.1869
 20
110.054
 11
17.427
 21
109.763
  0
LINE
  8
0
 10
17.427
 20
109.763
 11
17.6289
 21
109.445
  0
LINE
  8
0
 10
17.6289
 20
109.445
 11
17.7893
 21
109.104
  0
LINE
  8
0
 10
17.7893
 20
109.104
 11
17.9057
 21
108.746
  0
LINE
  8
0
 10
17.9057
 20
108.746
 11
17.9763
 21
108.376
  0
LINE
  8
0
 10
17.9763
 20
108.376
 11
18
 21
108
  0
LINE
  8
0
 10
18
 20
108
 11
17.9763
 21
107.624
  0
LINE
  8
0
 10
17.9763
 20
107.624
 11
17.9057
 21
107.254
  0
LINE
  8
0
 10
17.9057
 20
107.254
 11
17.7893
 21
106.896
  0
LINE
  8
0
 10
17.7893
 20
106.896
 11
17.6289
 21
106.555
  0
LINE
  8
0
 10
17.6289
 20
106.555
 11
17.427
 21
106.237
  0
LINE
  8
0
 10
17.427
 20
106.237
 11
17.1869
 21
105.946
  0
LINE
  8
0
 10
17.1869
 20
105.946
 11
16.9123
 21
105.688
  0
LINE
  8
0
 10
16.9123
 20
105.688
 11
16.6075
 21
105.467
  0
LINE
  8
0
 10
16.6075
 20
105.467
 11
16.2773
 21
105.286
  0
LINE
  8
0
 10
16.2773
 20
105.286
 11
15.927
 21
105.147
  0
LINE
  8
0
 10
15.927
 20
105.147
 11
15.5621
 21
105.053
  0
LINE
  8
0
 10
15.5621
 20
105.053
 11
15.1884
 21
105.006
  0
LINE
  8
0
 10
15.1884
 20
105.006
 11
14.8116
 21
105.006
  0
LINE
  8
0
 10
-30.1884
 20
105.006
 11
-30.5621
 21
105.053
  0
LINE
  8
0
 10
-30.5621
 20
105.053
 11
-30.927
 21
105.147
  0
LINE
  8
0
 10
-30.927
 20
105.147
 11
-31.2773
 21
105.286
  0
LINE
  8
0
 10
-31.2773
 20
105.286
 11
-31.6075
 21
105.467
  0
LINE
  8
0
 10
-31.6075
 20
105.467
 11
-31.9123
 21
105.688
  0
LINE
  8
0
 10
-31.9123
 20
105.688
 11
-32.1869
 21
105.946
  0
LINE
  8
0
 10
-32.1869
 20
105.946
 11
-32.427
 21
106.237
  0
LINE
  8
0
 10
-32.427
 20
106.237
 11
-32.6289
 21
106.555
  0
LINE
  8
0
 10
-32.6289
 20
106.555
 11
-32.7893
 21
106.896
  0
LINE
  8
0
 10
-32.7893
 20
106.896
 11
-32.9057
 21
107.254
  0
LINE
  8
0
 10
-32.9057
 20
107.254
 11
-32.9763
 21
107.624
  0
LINE
  8
0
 10
-32.9763
 20
107.624
 11
-33
 21
108
  0
LINE
  8
0
 10
-33
 20
108
 11
-32.9763
 21
108.376
  0
LINE
  8
0
 10
-32.9763
 20
108.376
 11
-32.9057
 21
108.746
  0
LINE
  8
0
 10
-32.9057
 20
108.746
 11
-32.7893
 21
109.104
  0
LINE
  8
0
 10
-32.7893
 20
109.104
 11
-32.6289
 21
109.445
  0
LINE
  8
0
 10
-32.6289
 20
109.445
 11
-32.427
 21
109.763
  0
LINE
  8
0
 10
-32.427
 20
109.763
 11
-32.1869
 21
110.054
  0
LINE
  8
0
 10
-32.1869
 20
110.054
 11
-31.9123
 21
110.312
  0
LINE
  8
0
 10
-31.9123
 20
110.312
 11
-31.6075
 21
110.533
  0
LINE
  8
0
 10
-31.6075
 20
110.533
 11
-31.2773
 21
110.714
  0
LINE
  8
0
 10
-31.2773
 20
110.714
 11
-30.927
 21
110.853
  0
LINE
  8
0
 10
-30.927
 20
110.853
 11
-30.5621
 21
110.947
  0
LINE
  8
0
 10
-30.5621
 20
110.947
 11
-30.1884
 21
110.994
  0
LINE
  8
0
 10
-30.1884
 20
110.994
 11
-29.8116
 21
110.994
  0
LINE
  8
0
 10
-29.8116
 20
110.994
 11
-29.4379
 21
110.947
  0
LINE
  8
0
 10
-29.4379
 20
110.947
 11
-29.0729
 21
110.853
  0
LINE
  8
0
 10
-29.0729
 20
110.853
 11
-28.7227
 21
110.714
  0
LINE
  8
0
 10
-28.7227
 20
110.714
 11
-28.3925
 21
110.533
  0
LINE
  8
0
 10
-28.3925
 20
110.533
 11
-28.0877
 21
110.312
  0
LINE
  8
0
 10
-28.0877
 20
110.312
 11
-27.8131
 21
110.054
  0
LINE
  8
0
 10
-27.8131
 20
110.054
 11
-27.5729
 21
109.763
  0
LINE
  8
0
 10
-27.5729
 20
109.763
 11
-27.3711
 21
109.445
  0
LINE
  8
0
 10
-27.3711
 20
109.445
 11
-27.2107
 21
109.104
  0
LINE
  8
0
 10
-27.2107
 20
109.104
 11
-27.0942
 21
108.746
  0
LINE
  8
0
 10
-27.0942
 20
108.746
 11
-27.0237
 21
108.376
  0
LINE
  8
0
 10
-27.0237
 20
108.376
 11
-27
 21
108
  0
LINE
  8
0
 10
-27
 20
108
 11
-27.0237
 21
107.624
  0
LINE
  8
0
 10
-27.0237
 20
107.624
 11
-27.0942
 21
107.254
  0
LINE
  8
0
 10
-27.0942
 20
107.254
 11
-27.2107
 21
106.896
  0
LINE
  8
0
 10
-27.2107
 20
106.896
 11
-27.3711
 21
106.555
  0
LINE
  8
0
 10
-27.3711
 20
106.555
 11
-27.5729
 21
106.237
  0
LINE
  8
0
 10
-27.5729
 20
106.237
 11
-27.8131
 21
105.946
  0
LINE
  8
0
 10
-27.8131
 20
105.946
 11
-28.0877
 21
105.688
  0
LINE
  8
0
 10
-28.0877
 20
105.688
 11
-28.3925
 21
105.467
  0
LINE
  8
0
 10
-28.3925
 20
105.467
 11
-28.7227
 21
105.286
  0
LINE
  8
0
 10
-28.7227
 20
105.286
 11
-29.0729
 21
105.147
  0
LINE
  8
0
 10
-29.0729
 20
105.147
 11
-29.4379
 21
105.053
  0
LINE
  8
0
 10
-29.4379
 20
105.053
 11
-29.8116
 21
105.006
  0
LINE
  8
0
 10
-29.8116
 20
105.006
 11
-30.1884
 21
105.006
  0
LINE
  8
0
 10
-15.1884
 20
105.006
 11
-15.5621
 21
105.053
  0
LINE
  8
0
 10
-15.5621
 20
105.053
 11
-15.927
 21
105.147
  0
LINE
  8
0
 10
-15.927
 20
105.147
 11
-16.2773
 21
105.286
  0
LINE
  8
0
 10
-16.2773
 20
105.286
 11
-16.6075
 21
105.467
  0
LINE
  8
0
 10
-16.6075
 20
105.467
 11
-16.9123
 21
105.688
  0
LINE
  8
0
 10
-16.9123
 20
105.688
 11
-17.1869
 21
105.946
  0
LINE
  8
0
 10
-17.1869
 20
105.946
 11
-17.427
 21
106.237
  0
LINE
  8
0
 10
-17.427
 20
106.237
 11
-17.6289
 21
106.555
  0
LINE
  8
0
 10
-17.6289
 20
106.555
 11
-17.7893
 21
106.896
  0
LINE
  8
0
 10
-17.7893
 20
106.896
 11
-17.9057
 21
107.254
  0
LINE
  8
0
 10
-17.9057
 20
107.254
 11
-17.9763
 21
107.624
  0
LINE
  8
0
 10
-17.9763
 20
107.624
 11
-18
 21
108
  0
LINE
  8
0
 10
-18
 20
108
 11
-17.9763
 21
108.376
  0
LINE
  8
0
 10
-17.9763
 20
108.376
 11
-17.9057
 21
108.746
  0
LINE
  8
0
 10
-17.9057
 20
108.746
 11
-17.7893
 21
109.104
  0
LINE
  8
0
 10
-17.7893
 20
109.104
 11
-17.6289
 21
109.445
  0
LINE
  8
0
 10
-17.6289
 20
109.445
 11
-17.427
 21
109.763
  0
LINE
  8
0
 10
-17.427
 20
109.763
 11
-17.1869
 21
110.054
  0
LINE
  8
0
 10
-17.1869
 20
110.054
 11
-16.9123
 21
110.312
  0
LINE
  8
0
 10
-16.9123
 20
110.312
 11
-16.6075
 21
110.533
  0
LINE
  8
0
 10
-16.6075
 20
110.533
 11
-16.2773
 21
110.714
  0
LINE
  8
0
 10
-16.2773
 20
110.714
 11
-15.927
 21
110.853
  0
LINE
  8
0
 10
-15.927
 20
110.853
 11
-15.5621
 21
110.947
  0
LINE
  8
0
 10
-15.5621
 20
110.947
 11
-15.1884
 21
110.994
  0
LINE
  8
0
 10
-15.1884
 20
110.994
 11
-14.8116
 21
110.994
  0
LINE
  8
0
 10
-14.8116
 20
110.994
 11
-14.4379
 21
110.947
  0
LINE
  8
0
 10
-14.4379
 20
110.947
 11
-14.0729
 21
110.853
  0
LINE
  8
0
 10
-14.0729
 20
110.853
 11
-13.7227
 21
110.714
  0
LINE
  8
0
 10
-13.7227
 20
110.714
 11
-13.3925
 21
110.533
  0
LINE
  8
0
 10
-13.3925
 20
110.533
 11
-13.0877
 21
110.312
  0
LINE
  8
0
 10
-13.0877
 20
110.312
 11
-12.8131
 21
110.054
  0
LINE
  8
0
 10
-12.8131
 20
110.054
 11
-12.5729
 21
109.763
  0
LINE
  8
0
 10
-12.5729
 20
109.763
 11
-12.3711
 21
109.445
  0
LINE
  8
0
 10
-12.3711
 20
109.445
 11
-12.2107
 21
109.104
  0
LINE
  8
0
 10
-12.2107
 20
109.104
 11
-12.0942
 21
108.746
  0
LINE
  8
0
 10
-12.0942
 20
108.746
 11
-12.0237
 21
108.376
  0
LINE
  8
0
 10
-12.0237
 20
108.376
 11
-12
 21
108
  0
LINE
  8
0
 10
-12
 20
108
 11
-12.0237
 21
107.624
  0
LINE
  8
0
 10
-12.0237
 20
107.624
 11
-12.0942
 21
107.254
  0
LINE
  8
0
 10
-12.0942
 20
107.254
 11
-12.2107
 21
106.896
  0
LINE
  8
0
 10
-12.2107
 20
106.896
 11
-12.3711
 21
106.555
  0
LINE
  8
0
 10
-12.3711
 20
106.555
 11
-12.5729
 21
106.237
  0
LINE
  8
0
 10
-12.5729
 20
106.237
 11
-12.8131
 21
105.946
  0
LINE
  8
0
 10
-12.8131
 20
105.946
 11
-13.0877
 21
105.688
  0
LINE
  8
0
 10
-13.0877
 20
105.688
 11
-13.3925
 21
105.467
  0
LINE
  8
0
 10
-13.3925
 20
105.467
 11
-13.7227
 21
105.286
  0
LINE
  8
0
 10
-13.7227
 20
105.286
 11
-14.0729
 21
105.147
  0
LINE
  8
0
 10
-14.0729
 20
105.147
 11
-14.4379
 21
105.053
  0
LINE
  8
0
 10
-14.4379
 20
105.053
 11
-14.8116
 21
105.006
  0
LINE
  8
0
 10
-14.8116
 20
105.006
 11
-15.1884
 21
105.006
  0
LINE
  8
0
 10
-0.18837
 20
105.006
 11
-0.562134
 21
105.053
  0
LINE
  8
0
 10
-0.562134
 20
105.053
 11
-0.927048
 21
105.147
  0
LINE
  8
0
 10
-0.927048
 20
105.147
 11
-1.27733
 21
105.286
  0
LINE
  8
0
 10
-1.27733
 20
105.286
 11
-1.60747
 21
105.467
  0
LINE
  8
0
 10
-1.60747
 20
105.467
 11
-1.91226
 21
105.688
  0
LINE
  8
0
 10
-1.91226
 20
105.688
 11
-2.1869
 21
105.946
  0
LINE
  8
0
 10
-2.1869
 20
105.946
 11
-2.42705
 21
106.237
  0
LINE
  8
0
 10
-2.42705
 20
106.237
 11
-2.62891
 21
106.555
  0
LINE
  8
0
 10
-2.62891
 20
106.555
 11
-2.78932
 21
106.896
  0
LINE
  8
0
 10
-2.78932
 20
106.896
 11
-2.90575
 21
107.254
  0
LINE
  8
0
 10
-2.90575
 20
107.254
 11
-2.97633
 21
107.624
  0
LINE
  8
0
 10
-2.97633
 20
107.624
 11
-3
 21
108
  0
LINE
  8
0
 10
-3
 20
108
 11
-2.97633
 21
108.376
  0
LINE
  8
0
 10
-2.97633
 20
108.376
 11
-2.90575
 21
108.746
  0
LINE
  8
0
 10
-2.90575
 20
108.746
 11
-2.78932
 21
109.104
  0
LINE
  8
0
 10
-2.78932
 20
109.104
 11
-2.62891
 21
109.445
  0
LINE
  8
0
 10
-2.62891
 20
109.445
 11
-2.42705
 21
109.763
  0
LINE
  8
0
 10
-2.42705
 20
109.763
 11
-2.1869
 21
110.054
  0
LINE
  8
0
 10
-2.1869
 20
110.054
 11
-1.91226
 21
110.312
  0
LINE
  8
0
 10
-1.91226
 20
110.312
 11
-1.60747
 21
110.533
  0
LINE
  8
0
 10
-1.60747
 20
110.533
 11
-1.27733
 21
110.714
  0
LINE
  8
0
 10
-1.27733
 20
110.714
 11
-0.927048
 21
110.853
  0
LINE
  8
0
 10
-0.927048
 20
110.853
 11
-0.562134
 21
110.947
  0
LINE
  8
0
 10
-0.562134
 20
110.947
 11
-0.18837
 21
110.994
  0
LINE
  8
0
 10
-0.18837
 20
110.994
 11
0.18837
 21
110.994
  0
LINE
  8
0
 10
0.18837
 20
110.994
 11
0.562134
 21
110.947
  0
LINE
  8
0
 10
0.562134
 20
110.947
 11
0.927048
 21
110.853
  0
LINE
  8
0
 10
0.927048
 20
110.853
 11
1.27733
 21
110.714
  0
LINE
  8
0
 10
1.27733
 20
110.714
 11
1.60747
 21
110.533
  0
LINE
  8
0
 10
1.60747
 20
110.533
 11
1.91226
 21
110.312
  0
LINE
  8
0
 10
1.91226
 20
110.312
 11
2.1869
 21
110.054
  0
LINE
  8
0
 10
2.1869
 20
110.054
 11
2.42705
 21
109.763
  0
LINE
  8
0
 10
2.42705
 20
109.763
 11
2.62891
 21
109.445
  0
LINE
  8
0
 10
2.62891
 20
109.445
 11
2.78932
 21
109.104
  0
LINE
  8
0
 10
2.78932
 20
109.104
 11
2.90575
 21
108.746
  0
LINE
  8
0
 10
2.90575
 20
108.746
 11
2.97633
 21
108.376
  0
LINE
  8
0
 10
2.97633
 20
108.376
 11
3
 21
108
  0
LINE
  8
0
 10
3
 20
108
 11
2.97633
 21
107.624
  0
LINE
  8
0
 10
2.97633
 20
107.624
 11
2.90575
 21
107.254
  0
LINE
  8
0
 10
2.90575
 20
107.254
 11
2.78932
 21
106.896
  0
LINE
  8
0
 10
2.78932
 20
106.896
 11
2.62891
 21
106.555
  0
LINE
  8
0
 10
2.62891
 20
106.555
 11
2.42705
 21
106.237
  0
LINE
  8
0
 10
2.42705
 20
106.237
 11
2.1869
 21
105.946
  0
LINE
  8
0
 10
2.1869
 20
105.946
 11
1.91226
 21
105.688
  0
LINE
  8
0
 10
1.91226
 20
105.688
 11
1.60747
 21
105.467
  0
LINE
  8
0
 10
1.60747
 20
105.467
 11
1.27733
 21
105.286
  0
LINE
  8
0
 10
1.27733
 20
105.286
 11
0.927048
 21
105.147
  0
LINE
  8
0
 10
0.927048
 20
105.147
 11
0.562134
 21
105.053
  0
LINE
  8
0
 10
0.562134
 20
105.053
 11
0.18837
 21
105.006
  0
LINE
  8
0
 10
0.18837
 20
105.006
 11
-0.18837
 21
105.006
  0
LINE
  8
0
 10
29.8116
 20
105.006
 11
29.4379
 21
105.053
  0
LINE
  8
0
 10
29.4379
 20
105.053
 11
29.0729
 21
105.147
  0
LINE
  8
0
 10
29.0729
 20
105.147
 11
28.7227
 21
105.286
  0
LINE
  8
0
 10
28.7227
 20
105.286
 11
28.3925
 21
105.467
  0
LINE
  8
0
 10
28.3925
 20
105.467
 11
28.0877
 21
105.688
  0
LINE
  8
0
 10
28.0877
 20
105.688
 11
27.8131
 21
105.946
  0
LINE
  8
0
 10
27.8131
 20
105.946
 11
27.5729
 21
106.237
  0
LINE
  8
0
 10
27.5729
 20
106.237
 11
27.3711
 21
106.555
  0
LINE
  8
0
 10
27.3711
 20
106.555
 11
27.2107
 21
106.896
  0
LINE
  8
0
 10
27.2107
 20
106.896
 11
27.0942
 21
107.254
  0
LINE
  8
0
 10
27.0942
 20
107.254
 11
27.0237
 21
107.624
  0
LINE
  8
0
 10
27.0237
 20
107.624
 11
27
 21
108
  0
LINE
  8
0
 10
27
 20
108
 11
27.0237
 21
108.376
  0
LINE
  8
0
 10
27.0237
 20
108.376
 11
27.0942
 21
108.746
  0
LINE
  8
0
 10
27.0942
 20
108.746
 11
27.2107
 21
109.104
  0
LINE
  8
0
 10
27.2107
 20
109.104
 11
27.3711
 21
109.445
  0
LINE
  8
0
 10
27.3711
 20
109.445
 11
27.5729
 21
109.763
  0
LINE
  8
0
 10
27.5729
 20
109.763
 11
27.8131
 21
110.054
  0
LINE
  8
0
 10
27.8131
 20
110.054
 11
28.0877
 21
110.312
  0
LINE
  8
0
 10
28.0877
 20
110.312
 11
28.3925
 21
110.533
  0
LINE
  8
0
 10
28.3925
 20
110.533
 11
28.7227
 21
110.714
  0
LINE
  8
0
 10
28.7227
 20
110.714
 11
29.0729
 21
110.853
  0
LINE
  8
0
 10
29.0729
 20
110.853
 11
29.4379
 21
110.947
  0
LINE
  8
0
 10
29.4379
 20
110.947
 11
29.8116
 21
110.994
  0
LINE
  8
0
 10
29.8116
 20
110.994
 11
30.1884
 21
110.994
  0
LINE
  8
0
 10
30.1884
 20
110.994
 11
30.5621
 21
110.947
  0
LINE
  8
0
 10
30.5621
 20
110.947
 11
30.927
 21
110.853
  0
LINE
  8
0
 10
30.927
 20
110.853
 11
31.2773
 21
110.714
  0
LINE
  8
0
 10
31.2773
 20
110.714
 11
31.6075
 21
110.533
  0
LINE
  8
0
 10
31.6075
 20
110.533
 11
31.9123
 21
110.312
  0
LINE
  8
0
 10
31.9123
 20
110.312
 11
32.1869
 21
110.054
  0
LINE
  8
0
 10
32.1869
 20
110.054
 11
32.427
 21
109.763
  0
LINE
  8
0
 10
32.427
 20
109.763
 11
32.6289
 21
109.445
  0
LINE
  8
0
 10
32.6289
 20
109.445
 11
32.7893
 21
109.104
  0
LINE
  8
0
 10
32.7893
 20
109.104
 11
32.9057
 21
108.746
  0
LINE
  8
0
 10
32.9057
 20
108.746
 11
32.9763
 21
108.376
  0
LINE
  8
0
 10
32.9763
 20
108.376
 11
33
 21
108
  0
LINE
  8
0
 10
33
 20
108
 11
32.9763
 21
107.624
  0
LINE
  8
0
 10
32.9763
 20
107.624
 11
32.9057
 21
107.254
  0
LINE
  8
0
 10
32.9057
 20
107.254
 11
32.7893
 21
106.896
  0
LINE
  8
0
 10
32.7893
 20
106.896
 11
32.6289
 21
106.555
  0
LINE
  8
0
 10
32.6289
 20
106.555
 11
32.427
 21
106.237
  0
LINE
  8
0
 10
32.427
 20
106.237
 11
32.1869
 21
105.946
  0
LINE
  8
0
 10
32.1869
 20
105.946
 11
31.9123
 21
105.688
  0
LINE
  8
0
 10
31.9123
 20
105.688
 11
31.6075
 21
105.467
  0
LINE
  8
0
 10
31.6075
 20
105.467
 11
31.2773
 21
105.286
  0
LINE
  8
0
 10
31.2773
 20
105.286
 11
30.927
 21
105.147
  0
LINE
  8
0
 10
30.927
 20
105.147
 11
30.5621
 21
105.053
  0
LINE
  8
0
 10
30.5621
 20
105.053
 11
30.1884
 21
105.006
  0
LINE
  8
0
 10
30.1884
 20
105.006
 11
29.8116
 21
105.006
  0
LINE
  8
0
 10
14.8116
 20
90.0059
 11
14.4379
 21
90.0531
  0
LINE
  8
0
 10
14.4379
 20
90.0531
 11
14.0729
 21
90.1468
  0
LINE
  8
0
 10
14.0729
 20
90.1468
 11
13.7227
 21
90.2855
  0
LINE
  8
0
 10
13.7227
 20
90.2855
 11
13.3925
 21
90.467
  0
LINE
  8
0
 10
13.3925
 20
90.467
 11
13.0877
 21
90.6885
  0
LINE
  8
0
 10
13.0877
 20
90.6885
 11
12.8131
 21
90.9464
  0
LINE
  8
0
 10
12.8131
 20
90.9464
 11
12.5729
 21
91.2366
  0
LINE
  8
0
 10
12.5729
 20
91.2366
 11
12.3711
 21
91.5547
  0
LINE
  8
0
 10
12.3711
 20
91.5547
 11
12.2107
 21
91.8956
  0
LINE
  8
0
 10
12.2107
 20
91.8956
 11
12.0942
 21
92.2539
  0
LINE
  8
0
 10
12.0942
 20
92.2539
 11
12.0237
 21
92.624
  0
LINE
  8
0
 10
12.0237
 20
92.624
 11
12
 21
93
  0
LINE
  8
0
 10
12
 20
93
 11
12.0237
 21
93.376
  0
LINE
  8
0
 10
12.0237
 20
93.376
 11
12.0942
 21
93.7461
  0
LINE
  8
0
 10
12.0942
 20
93.7461
 11
12.2107
 21
94.1044
  0
LINE
  8
0
 10
12.2107
 20
94.1044
 11
12.3711
 21
94.4453
  0
LINE
  8
0
 10
12.3711
 20
94.4453
 11
12.5729
 21
94.7634
  0
LINE
  8
0
 10
12.5729
 20
94.7634
 11
12.8131
 21
95.0536
  0
LINE
  8
0
 10
12.8131
 20
95.0536
 11
13.0877
 21
95.3116
  0
LINE
  8
0
 10
13.0877
 20
95.3116
 11
13.3925
 21
95.533
  0
LINE
  8
0
 10
13.3925
 20
95.533
 11
13.7227
 21
95.7145
  0
LINE
  8
0
 10
13.7227
 20
95.7145
 11
14.0729
 21
95.8532
  0
LINE
  8
0
 10
14.0729
 20
95.8532
 11
14.4379
 21
95.9469
  0
LINE
  8
0
 10
14.4379
 20
95.9469
 11
14.8116
 21
95.9941
  0
LINE
  8
0
 10
14.8116
 20
95.9941
 11
15.1884
 21
95.9941
  0
LINE
  8
0
 10
15.1884
 20
95.9941
 11
15.5621
 21
95.9469
  0
LINE
  8
0
 10
15.5621
 20
95.9469
 11
15.927
 21
95.8532
  0
LINE
  8
0
 10
15.927
 20
95.8532
 11
16.2773
 21
95.7145
  0
LINE
  8
0
 10
16.2773
 20
95.7145
 11
16.6075
 21
95.533
  0
LINE
  8
0
 10
16.6075
 20
95.533
 11
16.9123
 21
95.3116
  0
LINE
  8
0
 10
16.9123
 20
95.3116
 11
17.1869
 21
95.0536
  0
LINE
  8
0
 10
17.1869
 20
95.0536
 11
17.427
 21
94.7634
  0
LINE
  8
0
 10
17.427
 20
94.7634
 11
17.6289
 21
94.4453
  0
LINE
  8
0
 10
17.6289
 20
94.4453
 11
17.7893
 21
94.1044
  0
LINE
  8
0
 10
17.7893
 20
94.1044
 11
17.9057
 21
93.7461
  0
LINE
  8
0
 10
17.9057
 20
93.7461
 11
17.9763
 21
93.376
  0
LINE
  8
0
 10
17.9763
 20
93.376
 11
18
 21
93
  0
LINE
  8
0
 10
18
 20
93
 11
17.9763
 21
92.624
  0
LINE
  8
0
 10
17.9763
 20
92.624
 11
17.9057
 21
92.2539
  0
LINE
  8
0
 10
17.9057
 20
92.2539
 11
17.7893
 21
91.8956
  0
LINE
  8
0
 10
17.7893
 20
91.8956
 11
17.6289
 21
91.5547
  0
LINE
  8
0
 10
17.6289
 20
91.5547
 11
17.427
 21
91.2366
  0
LINE
  8
0
 10
17.427
 20
91.2366
 11
17.1869
 21
90.9464
  0
LINE
  8
0
 10
17.1869
 20
90.9464
 11
16.9123
 21
90.6885
  0
LINE
  8
0
 10
16.9123
 20
90.6885
 11
16.6075
 21
90.467
  0
LINE
  8
0
 10
16.6075
 20
90.467
 11
16.2773
 21
90.2855
  0
LINE
  8
0
 10
16.2773
 20
90.2855
 11
15.927
 21
90.1468
  0
LINE
  8
0
 10
15.927
 20
90.1468
 11
15.5621
 21
90.0531
  0
LINE
  8
0
 10
15.5621
 20
90.0531
 11
15.1884
 21
90.0059
  0
LINE
  8
0
 10
15.1884
 20
90.0059
 11
14.8116
 21
90.0059
  0
LINE
  8
0
 10
29.8116
 20
90.0059
 11
29.4379
 21
90.0531
  0
LINE
  8
0
 10
29.4379
 20
90.0531
 11
29.0729
 21
90.1468
  0
LINE
  8
0
 10
29.0729
 20
90.1468
 11
28.7227
 21
90.2855
  0
LINE
  8
0
 10
28.7227
 20
90.2855
 11
28.3925
 21
90.467
  0
LINE
  8
0
 10
28.3925
 20
90.467
 11
28.0877
 21
90.6885
  0
LINE
  8
0
 10
28.0877
 20
90.6885
 11
27.8131
 21
90.9464
  0
LINE
  8
0
 10
27.8131
 20
90.9464
 11
27.5729
 21
91.2366
  0
LINE
  8
0
 10
27.5729
 20
91.2366
 11
27.3711
 21
91.5547
  0
LINE
  8
0
 10
27.3711
 20
91.5547
 11
27.2107
 21
91.8956
  0
LINE
  8
0
 10
27.2107
 20
91.8956
 11
27.0942
 21
92.2539
  0
LINE
  8
0
 10
27.0942
 20
92.2539
 11
27.0237
 21
92.624
  0
LINE
  8
0
 10
27.0237
 20
92.624
 11
27
 21
93
  0
LINE
  8
0
 10
27
 20
93
 11
27.0237
 21
93.376
  0
LINE
  8
0
 10
27.0237
 20
93.376
 11
27.0942
 21
93.7461
  0
LINE
  8
0
 10
27.0942
 20
93.7461
 11
27.2107
 21
94.1044
  0
LINE
  8
0
 10
27.2107
 20
94.1044
 11
27.3711
 21
94.4453
  0
LINE
  8
0
 10
27.3711
 20
94.4453
 11
27.5729
 21
94.7634
  0
LINE
  8
0
 10
27.5729
 20
94.7634
 11
27.8131
 21
95.0536
  0
LINE
  8
0
 10
27.8131
 20
95.0536
 11
28.0877
 21
95.3116
  0
LINE
  8
0
 10
28.0877
 20
95.3116
 11
28.3925
 21
95.533
  0
LINE
  8
0
 10
28.3925
 20
95.533
 11
28.7227
 21
95.7145
  0
LINE
  8
0
 10
28.7227
 20
95.7145
 11
29.0729
 21
95.8532
  0
LINE
  8
0
 10
29.0729
 20
95.8532
 11
29.4379
 21
95.9469
  0
LINE
  8
0
 10
29.4379
 20
95.9469
 11
29.8116
 21
95.9941
  0
LINE
  8
0
 10
29.8116
 20
95.9941
 11
30.1884
 21
95.9941
  0
LINE
  8
0
 10
30.1884
 20
95.9941
 11
30.5621
 21
95.9469
  0
LINE
  8
0
 10
30.5621
 20
95.9469
 11
30.927
 21
95.8532
  0
LINE
  8
0
 10
30.927
 20
95.8532
 11
31.2773
 21
95.7145
  0
LINE
  8
0
 10
31.2773
 20
95.7145
 11
31.6075
 21
95.533
  0
LINE
  8
0
 10
31.6075
 20
95.533
 11
31.9123
 21
95.3116
  0
LINE
  8
0
 10
31.9123
 20
95.3116
 11
32.1869
 21
95.0536
  0
LINE
  8
0
 10
32.1869
 20
95.0536
 11
32.427
 21
94.7634
  0
LINE
  8
0
 10
32.427
 20
94.7634
 11
32.6289
 21
94.4453
  0
LINE
  8
0
 10
32.6289
 20
94.4453
 11
32.7893
 21
94.1044
  0
LINE
  8
0
 10
32.7893
 20
94.1044
 11
32.9057
 21
93.7461
  0
LINE
  8
0
 10
32.9057
 20
93.7461
 11
32.9763
 21
93.376
  0
LINE
  8
0
 10
32.9763
 20
93.376
 11
33
 21
93
  0
LINE
  8
0
 10
33
 20
93
 11
32.9763
 21
92.624
  0
LINE
  8
0
 10
32.9763
 20
92.624
 11
32.9057
 21
92.2539
  0
LINE
  8
0
 10
32.9057
 20
92.2539
 11
32.7893
 21
91.8956
  0
LINE
  8
0
 10
32.7893
 20
91.8956
 11
32.6289
 21
91.5547
  0
LINE
  8
0
 10
32.6289
 20
91.5547
 11
32.427
 21
91.2366
  0
LINE
  8
0
 10
32.427
 20
91.2366
 11
32.1869
 21
90.9464
  0
LINE
  8
0
 10
32.1869
 20
90.9464
 11
31.9123
 21
90.6885
  0
LINE
  8
0
 10
31.9123
 20
90.6885
 11
31.6075
 21
90.467
  0
LINE
  8
0
 10
31.6075
 20
90.467
 11
31.2773
 21
90.2855
  0
LINE
  8
0
 10
31.2773
 20
90.2855
 11
30.927
 21
90.1468
  0
LINE
  8
0
 10
30.927
 20
90.1468
 11
30.5621
 21
90.0531
  0
LINE
  8
0
 10
30.5621
 20
90.0531
 11
30.1884
 21
90.0059
  0
LINE
  8
0
 10
30.1884
 20
90.0059
 11
29.8116
 21
90.0059
  0
LINE
  8
0
 10
-15.1884
 20
90.0059
 11
-15.5621
 21
90.0531
  0
LINE
  8
0
 10
-15.5621
 20
90.0531
 11
-15.927
 21
90.1468
  0
LINE
  8
0
 10
-15.927
 20
90.1468
 11
-16.2773
 21
90.2855
  0
LINE
  8
0
 10
-16.2773
 20
90.2855
 11
-16.6075
 21
90.467
  0
LINE
  8
0
 10
-16.6075
 20
90.467
 11
-16.9123
 21
90.6885
  0
LINE
  8
0
 10
-16.9123
 20
90.6885
 11
-17.1869
 21
90.9464
  0
LINE
  8
0
 10
-17.1869
 20
90.9464
 11
-17.427
 21
91.2366
  0
LINE
  8
0
 10
-17.427
 20
91.2366
 11
-17.6289
 21
91.5547
  0
LINE
  8
0
 10
-17.6289
 20
91.5547
 11
-17.7893
 21
91.8956
  0
LINE
  8
0
 10
-17.7893
 20
91.8956
 11
-17.9057
 21
92.2539
  0
LINE
  8
0
 10
-17.9057
 20
92.2539
 11
-17.9763
 21
92.624
  0
LINE
  8
0
 10
-17.9763
 20
92.624
 11
-18
 21
93
  0
LINE
  8
0
 10
-18
 20
93
 11
-17.9763
 21
93.376
  0
LINE
  8
0
 10
-17.9763
 20
93.376
 11
-17.9057
 21
93.7461
  0
LINE
  8
0
 10
-17.9057
 20
93.7461
 11
-17.7893
 21
94.1044
  0
LINE
  8
0
 10
-17.7893
 20
94.1044
 11
-17.6289
 21
94.4453
  0
LINE
  8
0
 10
-17.6289
 20
94.4453
 11
-17.427
 21
94.7634
  0
LINE
  8
0
 10
-17.427
 20
94.7634
 11
-17.1869
 21
95.0536
  0
LINE
  8
0
 10
-17.1869
 20
95.0536
 11
-16.9123
 21
95.3116
  0
LINE
  8
0
 10
-16.9123
 20
95.3116
 11
-16.6075
 21
95.533
  0
LINE
  8
0
 10
-16.6075
 20
95.533
 11
-16.2773
 21
95.7145
  0
LINE
  8
0
 10
-16.2773
 20
95.7145
 11
-15.927
 21
95.8532
  0
LINE
  8
0
 10
-15.927
 20
95.8532
 11
-15.5621
 21
95.9469
  0
LINE
  8
0
 10
-15.5621
 20
95.9469
 11
-15.1884
 21
95.9941
  0
LINE
  8
0
 10
-15.1884
 20
95.9941
 11
-14.8116
 21
95.9941
  0
LINE
  8
0
 10
-14.8116
 20
95.9941
 11
-14.4379
 21
95.9469
  0
LINE
  8
0
 10
-14.4379
 20
95.9469
 11
-14.0729
 21
95.8532
  0
LINE
  8
0
 10
-14.0729
 20
95.8532
 11
-13.7227
 21
95.7145
  0
LINE
  8
0
 10
-13.7227
 20
95.7145
 11
-13.3925
 21
95.533
  0
LINE
  8
0
 10
-13.3925
 20
95.533
 11
-13.0877
 21
95.3116
  0
LINE
  8
0
 10
-13.0877
 20
95.3116
 11
-12.8131
 21
95.0536
  0
LINE
  8
0
 10
-12.8131
 20
95.0536
 11
-12.5729
 21
94.7634
  0
LINE
  8
0
 10
-12.5729
 20
94.7634
 11
-12.3711
 21
94.4453
  0
LINE
  8
0
 10
-12.3711
 20
94.4453
 11
-12.2107
 21
94.1044
  0
LINE
  8
0
 10
-12.2107
 20
94.1044
 11
-12.0942
 21
93.7461
  0
LINE
  8
0
 10
-12.0942
 20
93.7461
 11
-12.0237
 21
93.376
  0
LINE
  8
0
 10
-12.0237
 20
93.376
 11
-12
 21
93
  0
LINE
  8
0
 10
-12
 20
93
 11
-12.0237
 21
92.624
  0
LINE
  8
0
 10
-12.0237
 20
92.624
 11
-12.0942
 21
92.2539
  0
LINE
  8
0
 10
-12.0942
 20
92.2539
 11
-12.2107
 21
91.8956
  0
LINE
  8
0
 10
-12.2107
 20
91.8956
 11
-12.3711
 21
91.5547
  0
LINE
  8
0
 10
-12.3711
 20
91.5547
 11
-12.5729
 21
91.2366
  0
LINE
  8
0
 10
-12.5729
 20
91.2366
 11
-12.8131
 21
90.9464
  0
LINE
  8
0
 10
-12.8131
 20
90.9464
 11
-13.0877
 21
90.6885
  0
LINE
  8
0
 10
-13.0877
 20
90.6885
 11
-13.3925
 21
90.467
  0
LINE
  8
0
 10
-13.3925
 20
90.467
 11
-13.7227
 21
90.2855
  0
LINE
  8
0
 10
-13.7227
 20
90.2855
 11
-14.0729
 21
90.1468
  0
LINE
  8
0
 10
-14.0729
 20
90.1468
 11
-14.4379
 21
90.0531
  0
LINE
  8
0
 10
-14.4379
 20
90.0531
 11
-14.8116
 21
90.0059
  0
LINE
  8
0
 10
-14.8116
 20
90.0059
 11
-15.1884
 21
90.0059
  0
LINE
  8
0
 10
-0.18837
 20
90.0059
 11
-0.562134
 21
90.0531
  0
LINE
  8
0
 10
-0.562134
 20
90.0531
 11
-0.927048
 21
90.1468
  0
LINE
  8
0
 10
-0.927048
 20
90.1468
 11
-1.27733
 21
90.2855
  0
LINE
  8
0
 10
-1.27733
 20
90.2855
 11
-1.60747
 21
90.467
  0
LINE
  8
0
 10
-1.60747
 20
90.467
 11
-1.91226
 21
90.6885
  0
LINE
  8
0
 10
-1.91226
 20
90.6885
 11
-2.1869
 21
90.9464
  0
LINE
  8
0
 10
-2.1869
 20
90.9464
 11
-2.42705
 21
91.2366
  0
LINE
  8
0
 10
-2.42705
 20
91.2366
 11
-2.62891
 21
91.5547
  0
LINE
  8
0
 10
-2.62891
 20
91.5547
 11
-2.78932
 21
91.8956
  0
LINE
  8
0
 10
-2.78932
 20
91.8956
 11
-2.90575
 21
92.2539
  0
LINE
  8
0
 10
-2.90575
 20
92.2539
 11
-2.97633
 21
92.624
  0
LINE
  8
0
 10
-2.97633
 20
92.624
 11
-3
 21
93
  0
LINE
  8
0
 10
-3
 20
93
 11
-2.97633
 21
93.376
  0
LINE
  8
0
 10
-2.97633
 20
93.376
 11
-2.90575
 21
93.7461
  0
LINE
  8
0
 10
-2.90575
 20
93.7461
 11
-2.78932
 21
94.1044
  0
LINE
  8
0
 10
-2.78932
 20
94.1044
 11
-2.62891
 21
94.4453
  0
LINE
  8
0
 10
-2.62891
 20
94.4453
 11
-2.42705
 21
94.7634
  0
LINE
  8
0
 10
-2.42705
 20
94.7634
 11
-2.1869
 21
95.0536
  0
LINE
  8
0
 10
-2.1869
 20
95.0536
 11
-1.91226
 21
95.3116
  0
LINE
  8
0
 10
-1.91226
 20
95.3116
 11
-1.60747
 21
95.533
  0
LINE
  8
0
 10
-1.60747
 20
95.533
 11
-1.27733
 21
95.7145
  0
LINE
  8
0
 10
-1.27733
 20
95.7145
 11
-0.927048
 21
95.8532
  0
LINE
  8
0
 10
-0.927048
 20
95.8532
 11
-0.562134
 21
95.9469
  0
LINE
  8
0
 10
-0.562134
 20
95.9469
 11
-0.18837
 21
95.9941
  0
LINE
  8
0
 10
-0.18837
 20
95.9941
 11
0.18837
 21
95.9941
  0
LINE
  8
0
 10
0.18837
 20
95.9941
 11
0.562134
 21
95.9469
  0
LINE
  8
0
 10
0.562134
 20
95.9469
 11
0.927048
 21
95.8532
  0
LINE
  8
0
 10
0.927048
 20
95.8532
 11
1.27733
 21
95.7145
  0
LINE
  8
0
 10
1.27733
 20
95.7145
 11
1.60747
 21
95.533
  0
LINE
  8
0
 10
1.60747
 20
95.533
 11
1.91226
 21
95.3116
  0
LINE
  8
0
 10
1.91226
 20
95.3116
 11
2.1869
 21
95.0536
  0
LINE
  8
0
 10
2.1869
 20
95.0536
 11
2.42705
 21
94.7634
  0
LINE
  8
0
 10
2.42705
 20
94.7634
 11
2.62891
 21
94.4453
  0
LINE
  8
0
 10
2.62891
 20
94.4453
 11
2.78932
 21
94.1044
  0
LINE
  8
0
 10
2.78932
 20
94.1044
 11
2.90575
 21
93.7461
  0
LINE
  8
0
 10
2.90575
 20
93.7461
 11
2.97633
 21
93.376
  0
LINE
  8
0
 10
2.97633
 20
93.376
 11
3
 21
93
  0
LINE
  8
0
 10
3
 20
93
 11
2.97633
 21
92.624
  0
LINE
  8
0
 10
2.97633
 20
92.624
 11
2.90575
 21
92.2539
  0
LINE
  8
0
 10
2.90575
 20
92.2539
 11
2.78932
 21
91.8956
  0
LINE
  8
0
 10
2.78932
 20
91.8956
 11
2.62891
 21
91.5547
  0
LINE
  8
0
 10
2.62891
 20
91.5547
 11
2.42705
 21
91.2366
  0
LINE
  8
0
 10
2.42705
 20
91.2366
 11
2.1869
 21
90.9464
  0
LINE
  8
0
 10
2.1869
 20
90.9464
 11
1.91226
 21
90.6885
  0
LINE
  8
0
 10
1.91226
 20
90.6885
 11
1.60747
 21
90.467
  0
LINE
  8
0
 10
1.60747
 20
90.467
 11
1.27733
 21
90.2855
  0
LINE
  8
0
 10
1.27733
 20
90.2855
 11
0.927048
 21
90.1468
  0
LINE
  8
0
 10
0.927048
 20
90.1468
 11
0.562134
 21
90.0531
  0
LINE
  8
0
 10
0.562134
 20
90.0531
 11
0.18837
 21
90.0059
  0
LINE
  8
0
 10
0.18837
 20
90.0059
 11
-0.18837
 21
90.0059
  0
LINE
  8
0
 10
-30.1884
 20
90.0059
 11
-30.5621
 21
90.0531
  0
LINE
  8
0
 10
-30.5621
 20
90.0531
 11
-30.927
 21
90.1468
  0
LINE
  8
0
 10
-30.927
 20
90.1468
 11
-31.2773
 21
90.2855
  0
LINE
  8
0
 10
-31.2773
 20
90.2855
 11
-31.6075
 21
90.467
  0
LINE
  8
0
 10
-31.6075
 20
90.467
 11
-31.9123
 21
90.6885
  0
LINE
  8
0
 10
-31.9123
 20
90.6885
 11
-32.1869
 21
90.9464
  0
LINE
  8
0
 10
-32.1869
 20
90.9464
 11
-32.427
 21
91.2366
  0
LINE
  8
0
 10
-32.427
 20
91.2366
 11
-32.6289
 21
91.5547
  0
LINE
  8
0
 10
-32.6289
 20
91.5547
 11
-32.7893
 21
91.8956
  0
LINE
  8
0
 10
-32.7893
 20
91.8956
 11
-32.9057
 21
92.2539
  0
LINE
  8
0
 10
-32.9057
 20
92.2539
 11
-32.9763
 21
92.624
  0
LINE
  8
0
 10
-32.9763
 20
92.624
 11
-33
 21
93
  0
LINE
  8
0
 10
-33
 20
93
 11
-32.9763
 21
93.376
  0
LINE
  8
0
 10
-32.9763
 20
93.376
 11
-32.9057
 21
93.7461
  0
LINE
  8
0
 10
-32.9057
 20
93.7461
 11
-32.7893
 21
94.1044
  0
LINE
  8
0
 10
-32.7893
 20
94.1044
 11
-32.6289
 21
94.4453
  0
LINE
  8
0
 10
-32.6289
 20
94.4453
 11
-32.427
 21
94.7634
  0
LINE
  8
0
 10
-32.427
 20
94.7634
 11
-32.1869
 21
95.0536
  0
LINE
  8
0
 10
-32.1869
 20
95.0536
 11
-31.9123
 21
95.3116
  0
LINE
  8
0
 10
-31.9123
 20
95.3116
 11
-31.6075
 21
95.533
  0
LINE
  8
0
 10
-31.6075
 20
95.533
 11
-31.2773
 21
95.7145
  0
LINE
  8
0
 10
-31.2773
 20
95.7145
 11
-30.927
 21
95.8532
  0
LINE
  8
0
 10
-30.927
 20
95.8532
 11
-30.5621
 21
95.9469
  0
LINE
  8
0
 10
-30.5621
 20
95.9469
 11
-30.1884
 21
95.9941
  0
LINE
  8
0
 10
-30.1884
 20
95.9941
 11
-29.8116
 21
95.9941
  0
LINE
  8
0
 10
-29.8116
 20
95.9941
 11
-29.4379
 21
95.9469
  0
LINE
  8
0
 10
-29.4379
 20
95.9469
 11
-29.0729
 21
95.8532
  0
LINE
  8
0
 10
-29.0729
 20
95.8532
 11
-28.7227
 21
95.7145
  0
LINE
  8
0
 10
-28.7227
 20
95.7145
 11
-28.3925
 21
95.533
  0
LINE
  8
0
 10
-28.3925
 20
95.533
 11
-28.0877
 21
95.3116
  0
LINE
  8
0
 10
-28.0877
 20
95.3116
 11
-27.8131
 21
95.0536
  0
LINE
  8
0
 10
-27.8131
 20
95.0536
 11
-27.5729
 21
94.7634
  0
LINE
  8
0
 10
-27.5729
 20
94.7634
 11
-27.3711
 21
94.4453
  0
LINE
  8
0
 10
-27.3711
 20
94.4453
 11
-27.2107
 21
94.1044
  0
LINE
  8
0
 10
-27.2107
 20
94.1044
 11
-27.0942
 21
93.7461
  0
LINE
  8
0
 10
-27.0942
 20
93.7461
 11
-27.0237
 21
93.376
  0
LINE
  8
0
 10
-27.0237
 20
93.376
 11
-27
 21
93
  0
LINE
  8
0
 10
-27
 20
93
 11
-27.0237
 21
92.624
  0
LINE
  8
0
 10
-27.0237
 20
92.624
 11
-27.0942
 21
92.2539
  0
LINE
  8
0
 10
-27.0942
 20
92.2539
 11
-27.2107
 21
91.8956
  0
LINE
  8
0
 10
-27.2107
 20
91.8956
 11
-27.3711
 21
91.5547
  0
LINE
  8
0
 10
-27.3711
 20
91.5547
 11
-27.5729
 21
91.2366
  0
LINE
  8
0
 10
-27.5729
 20
91.2366
 11
-27.8131
 21
90.9464
  0
LINE
  8
0
 10
-27.8131
 20
90.9464
 11
-28.0877
 21
90.6885
  0
LINE
  8
0
 10
-28.0877
 20
90.6885
 11
-28.3925
 21
90.467
  0
LINE
  8
0
 10
-28.3925
 20
90.467
 11
-28.7227
 21
90.2855
  0
LINE
  8
0
 10
-28.7227
 20
90.2855
 11
-29.0729
 21
90.1468
  0
LINE
  8
0
 10
-29.0729
 20
90.1468
 11
-29.4379
 21
90.0531
  0
LINE
  8
0
 10
-29.4379
 20
90.0531
 11
-29.8116
 21
90.0059
  0
LINE
  8
0
 10
-29.8116
 20
90.0059
 11
-30.1884
 21
90.0059
  0
ENDSEC
  0
SECTION
  2
OBJECTS
  0
DICTIONARY
  0
ENDSEC
  0
EOF
