  0
SECTION
  2
BLOCKS
  0
ENDSEC
  0
SECTION
  2
ENTITIES
  0
LINE
  8
0
 10
115.437
 20
-119.411
 11
116.045
 21
-119.255
  0
LINE
  8
0
 10
116.045
 20
-119.255
 11
116.629
 21
-119.024
  0
LINE
  8
0
 10
116.629
 20
-119.024
 11
117.179
 21
-118.722
  0
LINE
  8
0
 10
117.179
 20
-118.722
 11
117.687
 21
-118.353
  0
LINE
  8
0
 10
117.687
 20
-118.353
 11
118.145
 21
-117.923
  0
LINE
  8
0
 10
118.145
 20
-117.923
 11
118.545
 21
-117.439
  0
LINE
  8
0
 10
118.545
 20
-117.439
 11
118.882
 21
-116.909
  0
LINE
  8
0
 10
118.882
 20
-116.909
 11
119.149
 21
-116.341
  0
LINE
  8
0
 10
119.149
 20
-116.341
 11
119.343
 21
-115.743
  0
LINE
  8
0
 10
119.343
 20
-115.743
 11
119.461
 21
-115.127
  0
LINE
  8
0
 10
119.461
 20
-115.127
 11
119.5
 21
-114.5
  0
LINE
  8
0
 10
119.5
 20
-114.5
 11
119.5
 21
114.5
  0
LINE
  8
0
 10
119.5
 20
114.5
 11
119.461
 21
115.127
  0
LINE
  8
0
 10
119.461
 20
115.127
 11
119.343
 21
115.743
  0
LINE
  8
0
 10
119.343
 20
115.743
 11
119.149
 21
116.341
  0
LINE
  8
0
 10
119.149
 20
116.341
 11
118.882
 21
116.909
  0
LINE
  8
0
 10
118.882
 20
116.909
 11
118.545
 21
117.439
  0
LINE
  8
0
 10
118.545
 20
117.439
 11
118.145
 21
117.923
  0
LINE
  8
0
 10
118.145
 20
117.923
 11
117.687
 21
118.353
  0
LINE
  8
0
 10
117.687
 20
118.353
 11
117.179
 21
118.722
  0
LINE
  8
0
 10
117.179
 20
118.722
 11
116.629
 21
119.024
  0
LINE
  8
0
 10
116.629
 20
119.024
 11
116.045
 21
119.255
  0
LINE
  8
0
 10
116.045
 20
119.255
 11
115.437
 21
119.411
  0
LINE
  8
0
 10
115.437
 20
119.411
 11
114.814
 21
119.49
  0
LINE
  8
0
 10
114.814
 20
119.49
 11
-114.814
 21
119.49
  0
LINE
  8
0
 10
-114.814
 20
119.49
 11
-115.437
 21
119.411
  0
LINE
  8
0
 10
-115.437
 20
119.411
 11
-116.045
 21
119.255
  0
LINE
  8
0
 10
-116.045
 20
119.255
 11
-116.629
 21
119.024
  0
LINE
  8
0
 10
-116.629
 20
119.024
 11
-117.179
 21
118.722
  0
LINE
  8
0
 10
-117.179
 20
118.722
 11
-117.687
 21
118.353
  0
LINE
  8
0
 10
-117.687
 20
118.353
 11
-118.145
 21
117.923
  0
LINE
  8
0
 10
-118.145
 20
117.923
 11
-118.545
 21
117.439
  0
LINE
  8
0
 10
-118.545
 20
117.439
 11
-118.882
 21
116.909
  0
LINE
  8
0
 10
-118.882
 20
116.909
 11
-119.149
 21
116.341
  0
LINE
  8
0
 10
-119.149
 20
116.341
 11
-119.343
 21
115.743
  0
LINE
  8
0
 10
-119.343
 20
115.743
 11
-119.461
 21
115.127
  0
LINE
  8
0
 10
-119.461
 20
115.127
 11
-119.5
 21
114.5
  0
LINE
  8
0
 10
-119.5
 20
114.5
 11
-119.5
 21
-114.5
  0
LINE
  8
0
 10
-119.5
 20
-114.5
 11
-119.461
 21
-115.127
  0
LINE
  8
0
 10
-119.461
 20
-115.127
 11
-119.343
 21
-115.743
  0
LINE
  8
0
 10
-119.343
 20
-115.743
 11
-119.149
 21
-116.341
  0
LINE
  8
0
 10
-119.149
 20
-116.341
 11
-118.882
 21
-116.909
  0
LINE
  8
0
 10
-118.882
 20
-116.909
 11
-118.545
 21
-117.439
  0
LINE
  8
0
 10
-118.545
 20
-117.439
 11
-118.145
 21
-117.923
  0
LINE
  8
0
 10
-118.145
 20
-117.923
 11
-117.687
 21
-118.353
  0
LINE
  8
0
 10
-117.687
 20
-118.353
 11
-117.179
 21
-118.722
  0
LINE
  8
0
 10
-117.179
 20
-118.722
 11
-116.629
 21
-119.024
  0
LINE
  8
0
 10
-116.629
 20
-119.024
 11
-116.045
 21
-119.255
  0
LINE
  8
0
 10
-116.045
 20
-119.255
 11
-115.437
 21
-119.411
  0
LINE
  8
0
 10
-115.437
 20
-119.411
 11
-114.814
 21
-119.49
  0
LINE
  8
0
 10
-114.814
 20
-119.49
 11
114.814
 21
-119.49
  0
LINE
  8
0
 10
114.814
 20
-119.49
 11
115.437
 21
-119.411
  0
LINE
  8
0
 10
112.312
 20
109.506
 11
111.938
 21
109.553
  0
LINE
  8
0
 10
111.938
 20
109.553
 11
111.573
 21
109.647
  0
LINE
  8
0
 10
111.573
 20
109.647
 11
111.223
 21
109.786
  0
LINE
  8
0
 10
111.223
 20
109.786
 11
110.893
 21
109.967
  0
LINE
  8
0
 10
110.893
 20
109.967
 11
110.588
 21
110.188
  0
LINE
  8
0
 10
110.588
 20
110.188
 11
110.313
 21
110.446
  0
LINE
  8
0
 10
110.313
 20
110.446
 11
110.073
 21
110.737
  0
LINE
  8
0
 10
110.073
 20
110.737
 11
109.871
 21
111.055
  0
LINE
  8
0
 10
109.871
 20
111.055
 11
109.711
 21
111.396
  0
LINE
  8
0
 10
109.711
 20
111.396
 11
109.594
 21
111.754
  0
LINE
  8
0
 10
109.594
 20
111.754
 11
109.524
 21
112.124
  0
LINE
  8
0
 10
109.524
 20
112.124
 11
109.5
 21
112.5
  0
LINE
  8
0
 10
109.5
 20
112.5
 11
109.524
 21
112.876
  0
LINE
  8
0
 10
109.524
 20
112.876
 11
109.594
 21
113.246
  0
LINE
  8
0
 10
109.594
 20
113.246
 11
109.711
 21
113.604
  0
LINE
  8
0
 10
109.711
 20
113.604
 11
109.871
 21
113.945
  0
LINE
  8
0
 10
109.871
 20
113.945
 11
110.073
 21
114.263
  0
LINE
  8
0
 10
110.073
 20
114.263
 11
110.313
 21
114.554
  0
LINE
  8
0
 10
110.313
 20
114.554
 11
110.588
 21
114.812
  0
LINE
  8
0
 10
110.588
 20
114.812
 11
110.893
 21
115.033
  0
LINE
  8
0
 10
110.893
 20
115.033
 11
111.223
 21
115.214
  0
LINE
  8
0
 10
111.223
 20
115.214
 11
111.573
 21
115.353
  0
LINE
  8
0
 10
111.573
 20
115.353
 11
111.938
 21
115.447
  0
LINE
  8
0
 10
111.938
 20
115.447
 11
112.312
 21
115.494
  0
LINE
  8
0
 10
112.312
 20
115.494
 11
112.688
 21
115.494
  0
LINE
  8
0
 10
112.688
 20
115.494
 11
113.062
 21
115.447
  0
LINE
  8
0
 10
113.062
 20
115.447
 11
113.427
 21
115.353
  0
LINE
  8
0
 10
113.427
 20
115.353
 11
113.777
 21
115.214
  0
LINE
  8
0
 10
113.777
 20
115.214
 11
114.107
 21
115.033
  0
LINE
  8
0
 10
114.107
 20
115.033
 11
114.412
 21
114.812
  0
LINE
  8
0
 10
114.412
 20
114.812
 11
114.687
 21
114.554
  0
LINE
  8
0
 10
114.687
 20
114.554
 11
114.927
 21
114.263
  0
LINE
  8
0
 10
114.927
 20
114.263
 11
115.129
 21
113.945
  0
LINE
  8
0
 10
115.129
 20
113.945
 11
115.289
 21
113.604
  0
LINE
  8
0
 10
115.289
 20
113.604
 11
115.406
 21
113.246
  0
LINE
  8
0
 10
115.406
 20
113.246
 11
115.476
 21
112.876
  0
LINE
  8
0
 10
115.476
 20
112.876
 11
115.5
 21
112.5
  0
LINE
  8
0
 10
115.5
 20
112.5
 11
115.476
 21
112.124
  0
LINE
  8
0
 10
115.476
 20
112.124
 11
115.406
 21
111.754
  0
LINE
  8
0
 10
115.406
 20
111.754
 11
115.289
 21
111.396
  0
LINE
  8
0
 10
115.289
 20
111.396
 11
115.129
 21
111.055
  0
LINE
  8
0
 10
115.129
 20
111.055
 11
114.927
 21
110.737
  0
LINE
  8
0
 10
114.927
 20
110.737
 11
114.687
 21
110.446
  0
LINE
  8
0
 10
114.687
 20
110.446
 11
114.412
 21
110.188
  0
LINE
  8
0
 10
114.412
 20
110.188
 11
114.107
 21
109.967
  0
LINE
  8
0
 10
114.107
 20
109.967
 11
113.777
 21
109.786
  0
LINE
  8
0
 10
113.777
 20
109.786
 11
113.427
 21
109.647
  0
LINE
  8
0
 10
113.427
 20
109.647
 11
113.062
 21
109.553
  0
LINE
  8
0
 10
113.062
 20
109.553
 11
112.688
 21
109.506
  0
LINE
  8
0
 10
112.688
 20
109.506
 11
112.312
 21
109.506
  0
LINE
  8
0
 10
-112.688
 20
109.506
 11
-113.062
 21
109.553
  0
LINE
  8
0
 10
-113.062
 20
109.553
 11
-113.427
 21
109.647
  0
LINE
  8
0
 10
-113.427
 20
109.647
 11
-113.777
 21
109.786
  0
LINE
  8
0
 10
-113.777
 20
109.786
 11
-114.107
 21
109.967
  0
LINE
  8
0
 10
-114.107
 20
109.967
 11
-114.412
 21
110.188
  0
LINE
  8
0
 10
-114.412
 20
110.188
 11
-114.687
 21
110.446
  0
LINE
  8
0
 10
-114.687
 20
110.446
 11
-114.927
 21
110.737
  0
LINE
  8
0
 10
-114.927
 20
110.737
 11
-115.129
 21
111.055
  0
LINE
  8
0
 10
-115.129
 20
111.055
 11
-115.289
 21
111.396
  0
LINE
  8
0
 10
-115.289
 20
111.396
 11
-115.406
 21
111.754
  0
LINE
  8
0
 10
-115.406
 20
111.754
 11
-115.476
 21
112.124
  0
LINE
  8
0
 10
-115.476
 20
112.124
 11
-115.5
 21
112.5
  0
LINE
  8
0
 10
-115.5
 20
112.5
 11
-115.476
 21
112.876
  0
LINE
  8
0
 10
-115.476
 20
112.876
 11
-115.406
 21
113.246
  0
LINE
  8
0
 10
-115.406
 20
113.246
 11
-115.289
 21
113.604
  0
LINE
  8
0
 10
-115.289
 20
113.604
 11
-115.129
 21
113.945
  0
LINE
  8
0
 10
-115.129
 20
113.945
 11
-114.927
 21
114.263
  0
LINE
  8
0
 10
-114.927
 20
114.263
 11
-114.687
 21
114.554
  0
LINE
  8
0
 10
-114.687
 20
114.554
 11
-114.412
 21
114.812
  0
LINE
  8
0
 10
-114.412
 20
114.812
 11
-114.107
 21
115.033
  0
LINE
  8
0
 10
-114.107
 20
115.033
 11
-113.777
 21
115.214
  0
LINE
  8
0
 10
-113.777
 20
115.214
 11
-113.427
 21
115.353
  0
LINE
  8
0
 10
-113.427
 20
115.353
 11
-113.062
 21
115.447
  0
LINE
  8
0
 10
-113.062
 20
115.447
 11
-112.688
 21
115.494
  0
LINE
  8
0
 10
-112.688
 20
115.494
 11
-112.312
 21
115.494
  0
LINE
  8
0
 10
-112.312
 20
115.494
 11
-111.938
 21
115.447
  0
LINE
  8
0
 10
-111.938
 20
115.447
 11
-111.573
 21
115.353
  0
LINE
  8
0
 10
-111.573
 20
115.353
 11
-111.223
 21
115.214
  0
LINE
  8
0
 10
-111.223
 20
115.214
 11
-110.893
 21
115.033
  0
LINE
  8
0
 10
-110.893
 20
115.033
 11
-110.588
 21
114.812
  0
LINE
  8
0
 10
-110.588
 20
114.812
 11
-110.313
 21
114.554
  0
LINE
  8
0
 10
-110.313
 20
114.554
 11
-110.073
 21
114.263
  0
LINE
  8
0
 10
-110.073
 20
114.263
 11
-109.871
 21
113.945
  0
LINE
  8
0
 10
-109.871
 20
113.945
 11
-109.711
 21
113.604
  0
LINE
  8
0
 10
-109.711
 20
113.604
 11
-109.594
 21
113.246
  0
LINE
  8
0
 10
-109.594
 20
113.246
 11
-109.524
 21
112.876
  0
LINE
  8
0
 10
-109.524
 20
112.876
 11
-109.5
 21
112.5
  0
LINE
  8
0
 10
-109.5
 20
112.5
 11
-109.524
 21
112.124
  0
LINE
  8
0
 10
-109.524
 20
112.124
 11
-109.594
 21
111.754
  0
LINE
  8
0
 10
-109.594
 20
111.754
 11
-109.711
 21
111.396
  0
LINE
  8
0
 10
-109.711
 20
111.396
 11
-109.871
 21
111.055
  0
LINE
  8
0
 10
-109.871
 20
111.055
 11
-110.073
 21
110.737
  0
LINE
  8
0
 10
-110.073
 20
110.737
 11
-110.313
 21
110.446
  0
LINE
  8
0
 10
-110.313
 20
110.446
 11
-110.588
 21
110.188
  0
LINE
  8
0
 10
-110.588
 20
110.188
 11
-110.893
 21
109.967
  0
LINE
  8
0
 10
-110.893
 20
109.967
 11
-111.223
 21
109.786
  0
LINE
  8
0
 10
-111.223
 20
109.786
 11
-111.573
 21
109.647
  0
LINE
  8
0
 10
-111.573
 20
109.647
 11
-111.938
 21
109.553
  0
LINE
  8
0
 10
-111.938
 20
109.553
 11
-112.312
 21
109.506
  0
LINE
  8
0
 10
-112.312
 20
109.506
 11
-112.688
 21
109.506
  0
LINE
  8
0
 10
112.312
 20
-115.494
 11
111.938
 21
-115.447
  0
LINE
  8
0
 10
111.938
 20
-115.447
 11
111.573
 21
-115.353
  0
LINE
  8
0
 10
111.573
 20
-115.353
 11
111.223
 21
-115.214
  0
LINE
  8
0
 10
111.223
 20
-115.214
 11
110.893
 21
-115.033
  0
LINE
  8
0
 10
110.893
 20
-115.033
 11
110.588
 21
-114.812
  0
LINE
  8
0
 10
110.588
 20
-114.812
 11
110.313
 21
-114.554
  0
LINE
  8
0
 10
110.313
 20
-114.554
 11
110.073
 21
-114.263
  0
LINE
  8
0
 10
110.073
 20
-114.263
 11
109.871
 21
-113.945
  0
LINE
  8
0
 10
109.871
 20
-113.945
 11
109.711
 21
-113.604
  0
LINE
  8
0
 10
109.711
 20
-113.604
 11
109.594
 21
-113.246
  0
LINE
  8
0
 10
109.594
 20
-113.246
 11
109.524
 21
-112.876
  0
LINE
  8
0
 10
109.524
 20
-112.876
 11
109.5
 21
-112.5
  0
LINE
  8
0
 10
109.5
 20
-112.5
 11
109.524
 21
-112.124
  0
LINE
  8
0
 10
109.524
 20
-112.124
 11
109.594
 21
-111.754
  0
LINE
  8
0
 10
109.594
 20
-111.754
 11
109.711
 21
-111.396
  0
LINE
  8
0
 10
109.711
 20
-111.396
 11
109.871
 21
-111.055
  0
LINE
  8
0
 10
109.871
 20
-111.055
 11
110.073
 21
-110.737
  0
LINE
  8
0
 10
110.073
 20
-110.737
 11
110.313
 21
-110.446
  0
LINE
  8
0
 10
110.313
 20
-110.446
 11
110.588
 21
-110.188
  0
LINE
  8
0
 10
110.588
 20
-110.188
 11
110.893
 21
-109.967
  0
LINE
  8
0
 10
110.893
 20
-109.967
 11
111.223
 21
-109.786
  0
LINE
  8
0
 10
111.223
 20
-109.786
 11
111.573
 21
-109.647
  0
LINE
  8
0
 10
111.573
 20
-109.647
 11
111.938
 21
-109.553
  0
LINE
  8
0
 10
111.938
 20
-109.553
 11
112.312
 21
-109.506
  0
LINE
  8
0
 10
112.312
 20
-109.506
 11
112.688
 21
-109.506
  0
LINE
  8
0
 10
112.688
 20
-109.506
 11
113.062
 21
-109.553
  0
LINE
  8
0
 10
113.062
 20
-109.553
 11
113.427
 21
-109.647
  0
LINE
  8
0
 10
113.427
 20
-109.647
 11
113.777
 21
-109.786
  0
LINE
  8
0
 10
113.777
 20
-109.786
 11
114.107
 21
-109.967
  0
LINE
  8
0
 10
114.107
 20
-109.967
 11
114.412
 21
-110.188
  0
LINE
  8
0
 10
114.412
 20
-110.188
 11
114.687
 21
-110.446
  0
LINE
  8
0
 10
114.687
 20
-110.446
 11
114.927
 21
-110.737
  0
LINE
  8
0
 10
114.927
 20
-110.737
 11
115.129
 21
-111.055
  0
LINE
  8
0
 10
115.129
 20
-111.055
 11
115.289
 21
-111.396
  0
LINE
  8
0
 10
115.289
 20
-111.396
 11
115.406
 21
-111.754
  0
LINE
  8
0
 10
115.406
 20
-111.754
 11
115.476
 21
-112.124
  0
LINE
  8
0
 10
115.476
 20
-112.124
 11
115.5
 21
-112.5
  0
LINE
  8
0
 10
115.5
 20
-112.5
 11
115.476
 21
-112.876
  0
LINE
  8
0
 10
115.476
 20
-112.876
 11
115.406
 21
-113.246
  0
LINE
  8
0
 10
115.406
 20
-113.246
 11
115.289
 21
-113.604
  0
LINE
  8
0
 10
115.289
 20
-113.604
 11
115.129
 21
-113.945
  0
LINE
  8
0
 10
115.129
 20
-113.945
 11
114.927
 21
-114.263
  0
LINE
  8
0
 10
114.927
 20
-114.263
 11
114.687
 21
-114.554
  0
LINE
  8
0
 10
114.687
 20
-114.554
 11
114.412
 21
-114.812
  0
LINE
  8
0
 10
114.412
 20
-114.812
 11
114.107
 21
-115.033
  0
LINE
  8
0
 10
114.107
 20
-115.033
 11
113.777
 21
-115.214
  0
LINE
  8
0
 10
113.777
 20
-115.214
 11
113.427
 21
-115.353
  0
LINE
  8
0
 10
113.427
 20
-115.353
 11
113.062
 21
-115.447
  0
LINE
  8
0
 10
113.062
 20
-115.447
 11
112.688
 21
-115.494
  0
LINE
  8
0
 10
112.688
 20
-115.494
 11
112.312
 21
-115.494
  0
LINE
  8
0
 10
-112.688
 20
-115.494
 11
-113.062
 21
-115.447
  0
LINE
  8
0
 10
-113.062
 20
-115.447
 11
-113.427
 21
-115.353
  0
LINE
  8
0
 10
-113.427
 20
-115.353
 11
-113.777
 21
-115.214
  0
LINE
  8
0
 10
-113.777
 20
-115.214
 11
-114.107
 21
-115.033
  0
LINE
  8
0
 10
-114.107
 20
-115.033
 11
-114.412
 21
-114.812
  0
LINE
  8
0
 10
-114.412
 20
-114.812
 11
-114.687
 21
-114.554
  0
LINE
  8
0
 10
-114.687
 20
-114.554
 11
-114.927
 21
-114.263
  0
LINE
  8
0
 10
-114.927
 20
-114.263
 11
-115.129
 21
-113.945
  0
LINE
  8
0
 10
-115.129
 20
-113.945
 11
-115.289
 21
-113.604
  0
LINE
  8
0
 10
-115.289
 20
-113.604
 11
-115.406
 21
-113.246
  0
LINE
  8
0
 10
-115.406
 20
-113.246
 11
-115.476
 21
-112.876
  0
LINE
  8
0
 10
-115.476
 20
-112.876
 11
-115.5
 21
-112.5
  0
LINE
  8
0
 10
-115.5
 20
-112.5
 11
-115.476
 21
-112.124
  0
LINE
  8
0
 10
-115.476
 20
-112.124
 11
-115.406
 21
-111.754
  0
LINE
  8
0
 10
-115.406
 20
-111.754
 11
-115.289
 21
-111.396
  0
LINE
  8
0
 10
-115.289
 20
-111.396
 11
-115.129
 21
-111.055
  0
LINE
  8
0
 10
-115.129
 20
-111.055
 11
-114.927
 21
-110.737
  0
LINE
  8
0
 10
-114.927
 20
-110.737
 11
-114.687
 21
-110.446
  0
LINE
  8
0
 10
-114.687
 20
-110.446
 11
-114.412
 21
-110.188
  0
LINE
  8
0
 10
-114.412
 20
-110.188
 11
-114.107
 21
-109.967
  0
LINE
  8
0
 10
-114.107
 20
-109.967
 11
-113.777
 21
-109.786
  0
LINE
  8
0
 10
-113.777
 20
-109.786
 11
-113.427
 21
-109.647
  0
LINE
  8
0
 10
-113.427
 20
-109.647
 11
-113.062
 21
-109.553
  0
LINE
  8
0
 10
-113.062
 20
-109.553
 11
-112.688
 21
-109.506
  0
LINE
  8
0
 10
-112.688
 20
-109.506
 11
-112.312
 21
-109.506
  0
LINE
  8
0
 10
-112.312
 20
-109.506
 11
-111.938
 21
-109.553
  0
LINE
  8
0
 10
-111.938
 20
-109.553
 11
-111.573
 21
-109.647
  0
LINE
  8
0
 10
-111.573
 20
-109.647
 11
-111.223
 21
-109.786
  0
LINE
  8
0
 10
-111.223
 20
-109.786
 11
-110.893
 21
-109.967
  0
LINE
  8
0
 10
-110.893
 20
-109.967
 11
-110.588
 21
-110.188
  0
LINE
  8
0
 10
-110.588
 20
-110.188
 11
-110.313
 21
-110.446
  0
LINE
  8
0
 10
-110.313
 20
-110.446
 11
-110.073
 21
-110.737
  0
LINE
  8
0
 10
-110.073
 20
-110.737
 11
-109.871
 21
-111.055
  0
LINE
  8
0
 10
-109.871
 20
-111.055
 11
-109.711
 21
-111.396
  0
LINE
  8
0
 10
-109.711
 20
-111.396
 11
-109.594
 21
-111.754
  0
LINE
  8
0
 10
-109.594
 20
-111.754
 11
-109.524
 21
-112.124
  0
LINE
  8
0
 10
-109.524
 20
-112.124
 11
-109.5
 21
-112.5
  0
LINE
  8
0
 10
-109.5
 20
-112.5
 11
-109.524
 21
-112.876
  0
LINE
  8
0
 10
-109.524
 20
-112.876
 11
-109.594
 21
-113.246
  0
LINE
  8
0
 10
-109.594
 20
-113.246
 11
-109.711
 21
-113.604
  0
LINE
  8
0
 10
-109.711
 20
-113.604
 11
-109.871
 21
-113.945
  0
LINE
  8
0
 10
-109.871
 20
-113.945
 11
-110.073
 21
-114.263
  0
LINE
  8
0
 10
-110.073
 20
-114.263
 11
-110.313
 21
-114.554
  0
LINE
  8
0
 10
-110.313
 20
-114.554
 11
-110.588
 21
-114.812
  0
LINE
  8
0
 10
-110.588
 20
-114.812
 11
-110.893
 21
-115.033
  0
LINE
  8
0
 10
-110.893
 20
-115.033
 11
-111.223
 21
-115.214
  0
LINE
  8
0
 10
-111.223
 20
-115.214
 11
-111.573
 21
-115.353
  0
LINE
  8
0
 10
-111.573
 20
-115.353
 11
-111.938
 21
-115.447
  0
LINE
  8
0
 10
-111.938
 20
-115.447
 11
-112.312
 21
-115.494
  0
LINE
  8
0
 10
-112.312
 20
-115.494
 11
-112.688
 21
-115.494
  0
ENDSEC
  0
SECTION
  2
OBJECTS
  0
DICTIONARY
  0
ENDSEC
  0
EOF
