  0
SECTION
  2
BLOCKS
  0
ENDSEC
  0
SECTION
  2
ENTITIES
  0
LINE
  8
0
 10
137.937
 20
-6.91142
 11
138.545
 21
-6.75528
  0
LINE
  8
0
 10
138.545
 20
-6.75528
 11
139.129
 21
-6.52412
  0
LINE
  8
0
 10
139.129
 20
-6.52412
 11
139.679
 21
-6.22163
  0
LINE
  8
0
 10
139.679
 20
-6.22163
 11
140.187
 21
-5.85255
  0
LINE
  8
0
 10
140.187
 20
-5.85255
 11
140.645
 21
-5.42273
  0
LINE
  8
0
 10
140.645
 20
-5.42273
 11
141.045
 21
-4.93892
  0
LINE
  8
0
 10
141.045
 20
-4.93892
 11
141.382
 21
-4.40877
  0
LINE
  8
0
 10
141.382
 20
-4.40877
 11
141.649
 21
-3.84062
  0
LINE
  8
0
 10
141.649
 20
-3.84062
 11
141.843
 21
-3.24344
  0
LINE
  8
0
 10
141.843
 20
-3.24344
 11
141.961
 21
-2.62666
  0
LINE
  8
0
 10
141.961
 20
-2.62666
 11
142
 21
-2
  0
LINE
  8
0
 10
142
 20
-2
 11
142
 21
2
  0
LINE
  8
0
 10
142
 20
2
 11
141.961
 21
2.62666
  0
LINE
  8
0
 10
141.961
 20
2.62666
 11
141.843
 21
3.24344
  0
LINE
  8
0
 10
141.843
 20
3.24344
 11
141.649
 21
3.84062
  0
LINE
  8
0
 10
141.649
 20
3.84062
 11
141.382
 21
4.40877
  0
LINE
  8
0
 10
141.382
 20
4.40877
 11
141.045
 21
4.93892
  0
LINE
  8
0
 10
141.045
 20
4.93892
 11
140.645
 21
5.42273
  0
LINE
  8
0
 10
140.645
 20
5.42273
 11
140.187
 21
5.85255
  0
LINE
  8
0
 10
140.187
 20
5.85255
 11
139.679
 21
6.22163
  0
LINE
  8
0
 10
139.679
 20
6.22163
 11
139.129
 21
6.52412
  0
LINE
  8
0
 10
139.129
 20
6.52412
 11
138.545
 21
6.75528
  0
LINE
  8
0
 10
138.545
 20
6.75528
 11
137.937
 21
6.91142
  0
LINE
  8
0
 10
137.937
 20
6.91142
 11
137.314
 21
6.99013
  0
LINE
  8
0
 10
137.314
 20
6.99013
 11
-137.314
 21
6.99013
  0
LINE
  8
0
 10
-137.314
 20
6.99013
 11
-137.937
 21
6.91142
  0
LINE
  8
0
 10
-137.937
 20
6.91142
 11
-138.545
 21
6.75528
  0
LINE
  8
0
 10
-138.545
 20
6.75528
 11
-139.129
 21
6.52412
  0
LINE
  8
0
 10
-139.129
 20
6.52412
 11
-139.679
 21
6.22163
  0
LINE
  8
0
 10
-139.679
 20
6.22163
 11
-140.187
 21
5.85255
  0
LINE
  8
0
 10
-140.187
 20
5.85255
 11
-140.645
 21
5.42273
  0
LINE
  8
0
 10
-140.645
 20
5.42273
 11
-141.045
 21
4.93892
  0
LINE
  8
0
 10
-141.045
 20
4.93892
 11
-141.382
 21
4.40877
  0
LINE
  8
0
 10
-141.382
 20
4.40877
 11
-141.649
 21
3.84062
  0
LINE
  8
0
 10
-141.649
 20
3.84062
 11
-141.843
 21
3.24344
  0
LINE
  8
0
 10
-141.843
 20
3.24344
 11
-141.961
 21
2.62666
  0
LINE
  8
0
 10
-141.961
 20
2.62666
 11
-142
 21
2
  0
LINE
  8
0
 10
-142
 20
2
 11
-142
 21
-2
  0
LINE
  8
0
 10
-142
 20
-2
 11
-141.961
 21
-2.62666
  0
LINE
  8
0
 10
-141.961
 20
-2.62666
 11
-141.843
 21
-3.24344
  0
LINE
  8
0
 10
-141.843
 20
-3.24344
 11
-141.649
 21
-3.84062
  0
LINE
  8
0
 10
-141.649
 20
-3.84062
 11
-141.382
 21
-4.40877
  0
LINE
  8
0
 10
-141.382
 20
-4.40877
 11
-141.045
 21
-4.93892
  0
LINE
  8
0
 10
-141.045
 20
-4.93892
 11
-140.645
 21
-5.42273
  0
LINE
  8
0
 10
-140.645
 20
-5.42273
 11
-140.187
 21
-5.85255
  0
LINE
  8
0
 10
-140.187
 20
-5.85255
 11
-139.679
 21
-6.22163
  0
LINE
  8
0
 10
-139.679
 20
-6.22163
 11
-139.129
 21
-6.52412
  0
LINE
  8
0
 10
-139.129
 20
-6.52412
 11
-138.545
 21
-6.75528
  0
LINE
  8
0
 10
-138.545
 20
-6.75528
 11
-137.937
 21
-6.91142
  0
LINE
  8
0
 10
-137.937
 20
-6.91142
 11
-137.314
 21
-6.99013
  0
LINE
  8
0
 10
-137.314
 20
-6.99013
 11
137.314
 21
-6.99013
  0
LINE
  8
0
 10
137.314
 20
-6.99013
 11
137.937
 21
-6.91142
  0
LINE
  8
0
 10
134.812
 20
-2.99408
 11
134.438
 21
-2.94685
  0
LINE
  8
0
 10
134.438
 20
-2.94685
 11
134.073
 21
-2.85316
  0
LINE
  8
0
 10
134.073
 20
-2.85316
 11
133.723
 21
-2.71448
  0
LINE
  8
0
 10
133.723
 20
-2.71448
 11
133.393
 21
-2.53297
  0
LINE
  8
0
 10
133.393
 20
-2.53297
 11
133.088
 21
-2.31154
  0
LINE
  8
0
 10
133.088
 20
-2.31154
 11
132.813
 21
-2.05363
  0
LINE
  8
0
 10
132.813
 20
-2.05363
 11
132.573
 21
-1.76335
  0
LINE
  8
0
 10
132.573
 20
-1.76335
 11
132.371
 21
-1.44525
  0
LINE
  8
0
 10
132.371
 20
-1.44525
 11
132.211
 21
-1.10437
  0
LINE
  8
0
 10
132.211
 20
-1.10437
 11
132.094
 21
-0.746063
  0
LINE
  8
0
 10
132.094
 20
-0.746063
 11
132.024
 21
-0.375992
  0
LINE
  8
0
 10
132.024
 20
-0.375992
 11
132
 21
0
  0
LINE
  8
0
 10
132
 20
0
 11
132.024
 21
0.375992
  0
LINE
  8
0
 10
132.024
 20
0.375992
 11
132.094
 21
0.746063
  0
LINE
  8
0
 10
132.094
 20
0.746063
 11
132.211
 21
1.10437
  0
LINE
  8
0
 10
132.211
 20
1.10437
 11
132.371
 21
1.44525
  0
LINE
  8
0
 10
132.371
 20
1.44525
 11
132.573
 21
1.76335
  0
LINE
  8
0
 10
132.573
 20
1.76335
 11
132.813
 21
2.05363
  0
LINE
  8
0
 10
132.813
 20
2.05363
 11
133.088
 21
2.31154
  0
LINE
  8
0
 10
133.088
 20
2.31154
 11
133.393
 21
2.53297
  0
LINE
  8
0
 10
133.393
 20
2.53297
 11
133.723
 21
2.71448
  0
LINE
  8
0
 10
133.723
 20
2.71448
 11
134.073
 21
2.85316
  0
LINE
  8
0
 10
134.073
 20
2.85316
 11
134.438
 21
2.94685
  0
LINE
  8
0
 10
134.438
 20
2.94685
 11
134.812
 21
2.99408
  0
LINE
  8
0
 10
134.812
 20
2.99408
 11
135.188
 21
2.99408
  0
LINE
  8
0
 10
135.188
 20
2.99408
 11
135.562
 21
2.94685
  0
LINE
  8
0
 10
135.562
 20
2.94685
 11
135.927
 21
2.85316
  0
LINE
  8
0
 10
135.927
 20
2.85316
 11
136.277
 21
2.71448
  0
LINE
  8
0
 10
136.277
 20
2.71448
 11
136.607
 21
2.53297
  0
LINE
  8
0
 10
136.607
 20
2.53297
 11
136.912
 21
2.31154
  0
LINE
  8
0
 10
136.912
 20
2.31154
 11
137.187
 21
2.05363
  0
LINE
  8
0
 10
137.187
 20
2.05363
 11
137.427
 21
1.76335
  0
LINE
  8
0
 10
137.427
 20
1.76335
 11
137.629
 21
1.44525
  0
LINE
  8
0
 10
137.629
 20
1.44525
 11
137.789
 21
1.10437
  0
LINE
  8
0
 10
137.789
 20
1.10437
 11
137.906
 21
0.746063
  0
LINE
  8
0
 10
137.906
 20
0.746063
 11
137.976
 21
0.375992
  0
LINE
  8
0
 10
137.976
 20
0.375992
 11
138
 21
0
  0
LINE
  8
0
 10
138
 20
0
 11
137.976
 21
-0.375992
  0
LINE
  8
0
 10
137.976
 20
-0.375992
 11
137.906
 21
-0.746063
  0
LINE
  8
0
 10
137.906
 20
-0.746063
 11
137.789
 21
-1.10437
  0
LINE
  8
0
 10
137.789
 20
-1.10437
 11
137.629
 21
-1.44525
  0
LINE
  8
0
 10
137.629
 20
-1.44525
 11
137.427
 21
-1.76335
  0
LINE
  8
0
 10
137.427
 20
-1.76335
 11
137.187
 21
-2.05363
  0
LINE
  8
0
 10
137.187
 20
-2.05363
 11
136.912
 21
-2.31154
  0
LINE
  8
0
 10
136.912
 20
-2.31154
 11
136.607
 21
-2.53297
  0
LINE
  8
0
 10
136.607
 20
-2.53297
 11
136.277
 21
-2.71448
  0
LINE
  8
0
 10
136.277
 20
-2.71448
 11
135.927
 21
-2.85316
  0
LINE
  8
0
 10
135.927
 20
-2.85316
 11
135.562
 21
-2.94685
  0
LINE
  8
0
 10
135.562
 20
-2.94685
 11
135.188
 21
-2.99408
  0
LINE
  8
0
 10
135.188
 20
-2.99408
 11
134.812
 21
-2.99408
  0
LINE
  8
0
 10
-135.188
 20
-2.99408
 11
-135.562
 21
-2.94685
  0
LINE
  8
0
 10
-135.562
 20
-2.94685
 11
-135.927
 21
-2.85316
  0
LINE
  8
0
 10
-135.927
 20
-2.85316
 11
-136.277
 21
-2.71448
  0
LINE
  8
0
 10
-136.277
 20
-2.71448
 11
-136.607
 21
-2.53297
  0
LINE
  8
0
 10
-136.607
 20
-2.53297
 11
-136.912
 21
-2.31154
  0
LINE
  8
0
 10
-136.912
 20
-2.31154
 11
-137.187
 21
-2.05363
  0
LINE
  8
0
 10
-137.187
 20
-2.05363
 11
-137.427
 21
-1.76335
  0
LINE
  8
0
 10
-137.427
 20
-1.76335
 11
-137.629
 21
-1.44525
  0
LINE
  8
0
 10
-137.629
 20
-1.44525
 11
-137.789
 21
-1.10437
  0
LINE
  8
0
 10
-137.789
 20
-1.10437
 11
-137.906
 21
-0.746063
  0
LINE
  8
0
 10
-137.906
 20
-0.746063
 11
-137.976
 21
-0.375992
  0
LINE
  8
0
 10
-137.976
 20
-0.375992
 11
-138
 21
0
  0
LINE
  8
0
 10
-138
 20
0
 11
-137.976
 21
0.375992
  0
LINE
  8
0
 10
-137.976
 20
0.375992
 11
-137.906
 21
0.746063
  0
LINE
  8
0
 10
-137.906
 20
0.746063
 11
-137.789
 21
1.10437
  0
LINE
  8
0
 10
-137.789
 20
1.10437
 11
-137.629
 21
1.44525
  0
LINE
  8
0
 10
-137.629
 20
1.44525
 11
-137.427
 21
1.76335
  0
LINE
  8
0
 10
-137.427
 20
1.76335
 11
-137.187
 21
2.05363
  0
LINE
  8
0
 10
-137.187
 20
2.05363
 11
-136.912
 21
2.31154
  0
LINE
  8
0
 10
-136.912
 20
2.31154
 11
-136.607
 21
2.53297
  0
LINE
  8
0
 10
-136.607
 20
2.53297
 11
-136.277
 21
2.71448
  0
LINE
  8
0
 10
-136.277
 20
2.71448
 11
-135.927
 21
2.85316
  0
LINE
  8
0
 10
-135.927
 20
2.85316
 11
-135.562
 21
2.94685
  0
LINE
  8
0
 10
-135.562
 20
2.94685
 11
-135.188
 21
2.99408
  0
LINE
  8
0
 10
-135.188
 20
2.99408
 11
-134.812
 21
2.99408
  0
LINE
  8
0
 10
-134.812
 20
2.99408
 11
-134.438
 21
2.94685
  0
LINE
  8
0
 10
-134.438
 20
2.94685
 11
-134.073
 21
2.85316
  0
LINE
  8
0
 10
-134.073
 20
2.85316
 11
-133.723
 21
2.71448
  0
LINE
  8
0
 10
-133.723
 20
2.71448
 11
-133.393
 21
2.53297
  0
LINE
  8
0
 10
-133.393
 20
2.53297
 11
-133.088
 21
2.31154
  0
LINE
  8
0
 10
-133.088
 20
2.31154
 11
-132.813
 21
2.05363
  0
LINE
  8
0
 10
-132.813
 20
2.05363
 11
-132.573
 21
1.76335
  0
LINE
  8
0
 10
-132.573
 20
1.76335
 11
-132.371
 21
1.44525
  0
LINE
  8
0
 10
-132.371
 20
1.44525
 11
-132.211
 21
1.10437
  0
LINE
  8
0
 10
-132.211
 20
1.10437
 11
-132.094
 21
0.746063
  0
LINE
  8
0
 10
-132.094
 20
0.746063
 11
-132.024
 21
0.375992
  0
LINE
  8
0
 10
-132.024
 20
0.375992
 11
-132
 21
0
  0
LINE
  8
0
 10
-132
 20
0
 11
-132.024
 21
-0.375992
  0
LINE
  8
0
 10
-132.024
 20
-0.375992
 11
-132.094
 21
-0.746063
  0
LINE
  8
0
 10
-132.094
 20
-0.746063
 11
-132.211
 21
-1.10437
  0
LINE
  8
0
 10
-132.211
 20
-1.10437
 11
-132.371
 21
-1.44525
  0
LINE
  8
0
 10
-132.371
 20
-1.44525
 11
-132.573
 21
-1.76335
  0
LINE
  8
0
 10
-132.573
 20
-1.76335
 11
-132.813
 21
-2.05363
  0
LINE
  8
0
 10
-132.813
 20
-2.05363
 11
-133.088
 21
-2.31154
  0
LINE
  8
0
 10
-133.088
 20
-2.31154
 11
-133.393
 21
-2.53297
  0
LINE
  8
0
 10
-133.393
 20
-2.53297
 11
-133.723
 21
-2.71448
  0
LINE
  8
0
 10
-133.723
 20
-2.71448
 11
-134.073
 21
-2.85316
  0
LINE
  8
0
 10
-134.073
 20
-2.85316
 11
-134.438
 21
-2.94685
  0
LINE
  8
0
 10
-134.438
 20
-2.94685
 11
-134.812
 21
-2.99408
  0
LINE
  8
0
 10
-134.812
 20
-2.99408
 11
-135.188
 21
-2.99408
  0
ENDSEC
  0
SECTION
  2
OBJECTS
  0
DICTIONARY
  0
ENDSEC
  0
EOF
