  0
SECTION
  2
BLOCKS
  0
ENDSEC
  0
SECTION
  2
ENTITIES
  0
LINE
  8
0
 10
242.937
 20
17.0886
 11
243.545
 21
17.2447
  0
LINE
  8
0
 10
243.545
 20
17.2447
 11
244.129
 21
17.4759
  0
LINE
  8
0
 10
244.129
 20
17.4759
 11
244.679
 21
17.7784
  0
LINE
  8
0
 10
244.679
 20
17.7784
 11
245.187
 21
18.1474
  0
LINE
  8
0
 10
245.187
 20
18.1474
 11
245.645
 21
18.5773
  0
LINE
  8
0
 10
245.645
 20
18.5773
 11
246.045
 21
19.0611
  0
LINE
  8
0
 10
246.045
 20
19.0611
 11
246.382
 21
19.5912
  0
LINE
  8
0
 10
246.382
 20
19.5912
 11
246.649
 21
20.1594
  0
LINE
  8
0
 10
246.649
 20
20.1594
 11
246.843
 21
20.7566
  0
LINE
  8
0
 10
246.843
 20
20.7566
 11
246.961
 21
21.3733
  0
LINE
  8
0
 10
246.961
 20
21.3733
 11
247
 21
22
  0
LINE
  8
0
 10
247
 20
22
 11
247
 21
26
  0
LINE
  8
0
 10
247
 20
26
 11
246.961
 21
26.6267
  0
LINE
  8
0
 10
246.961
 20
26.6267
 11
246.843
 21
27.2434
  0
LINE
  8
0
 10
246.843
 20
27.2434
 11
246.649
 21
27.8406
  0
LINE
  8
0
 10
246.649
 20
27.8406
 11
246.382
 21
28.4088
  0
LINE
  8
0
 10
246.382
 20
28.4088
 11
246.045
 21
28.9389
  0
LINE
  8
0
 10
246.045
 20
28.9389
 11
245.645
 21
29.4227
  0
LINE
  8
0
 10
245.645
 20
29.4227
 11
245.187
 21
29.8526
  0
LINE
  8
0
 10
245.187
 20
29.8526
 11
244.679
 21
30.2216
  0
LINE
  8
0
 10
244.679
 20
30.2216
 11
244.129
 21
30.5241
  0
LINE
  8
0
 10
244.129
 20
30.5241
 11
243.545
 21
30.7553
  0
LINE
  8
0
 10
243.545
 20
30.7553
 11
242.937
 21
30.9114
  0
LINE
  8
0
 10
242.937
 20
30.9114
 11
242.314
 21
30.9901
  0
LINE
  8
0
 10
242.314
 20
30.9901
 11
-242.314
 21
30.9901
  0
LINE
  8
0
 10
-242.314
 20
30.9901
 11
-242.937
 21
30.9114
  0
LINE
  8
0
 10
-242.937
 20
30.9114
 11
-243.545
 21
30.7553
  0
LINE
  8
0
 10
-243.545
 20
30.7553
 11
-244.129
 21
30.5241
  0
LINE
  8
0
 10
-244.129
 20
30.5241
 11
-244.679
 21
30.2216
  0
LINE
  8
0
 10
-244.679
 20
30.2216
 11
-245.187
 21
29.8526
  0
LINE
  8
0
 10
-245.187
 20
29.8526
 11
-245.645
 21
29.4227
  0
LINE
  8
0
 10
-245.645
 20
29.4227
 11
-246.045
 21
28.9389
  0
LINE
  8
0
 10
-246.045
 20
28.9389
 11
-246.382
 21
28.4088
  0
LINE
  8
0
 10
-246.382
 20
28.4088
 11
-246.649
 21
27.8406
  0
LINE
  8
0
 10
-246.649
 20
27.8406
 11
-246.843
 21
27.2434
  0
LINE
  8
0
 10
-246.843
 20
27.2434
 11
-246.961
 21
26.6267
  0
LINE
  8
0
 10
-246.961
 20
26.6267
 11
-247
 21
26
  0
LINE
  8
0
 10
-247
 20
26
 11
-247
 21
22
  0
LINE
  8
0
 10
-247
 20
22
 11
-246.961
 21
21.3733
  0
LINE
  8
0
 10
-246.961
 20
21.3733
 11
-246.843
 21
20.7566
  0
LINE
  8
0
 10
-246.843
 20
20.7566
 11
-246.649
 21
20.1594
  0
LINE
  8
0
 10
-246.649
 20
20.1594
 11
-246.382
 21
19.5912
  0
LINE
  8
0
 10
-246.382
 20
19.5912
 11
-246.045
 21
19.0611
  0
LINE
  8
0
 10
-246.045
 20
19.0611
 11
-245.645
 21
18.5773
  0
LINE
  8
0
 10
-245.645
 20
18.5773
 11
-245.187
 21
18.1474
  0
LINE
  8
0
 10
-245.187
 20
18.1474
 11
-244.679
 21
17.7784
  0
LINE
  8
0
 10
-244.679
 20
17.7784
 11
-244.129
 21
17.4759
  0
LINE
  8
0
 10
-244.129
 20
17.4759
 11
-243.545
 21
17.2447
  0
LINE
  8
0
 10
-243.545
 20
17.2447
 11
-242.937
 21
17.0886
  0
LINE
  8
0
 10
-242.937
 20
17.0886
 11
-242.314
 21
17.0099
  0
LINE
  8
0
 10
-242.314
 20
17.0099
 11
242.314
 21
17.0099
  0
LINE
  8
0
 10
242.314
 20
17.0099
 11
242.937
 21
17.0886
  0
LINE
  8
0
 10
-240.188
 20
21.0059
 11
-240.562
 21
21.0531
  0
LINE
  8
0
 10
-240.562
 20
21.0531
 11
-240.927
 21
21.1468
  0
LINE
  8
0
 10
-240.927
 20
21.1468
 11
-241.277
 21
21.2855
  0
LINE
  8
0
 10
-241.277
 20
21.2855
 11
-241.607
 21
21.467
  0
LINE
  8
0
 10
-241.607
 20
21.467
 11
-241.912
 21
21.6885
  0
LINE
  8
0
 10
-241.912
 20
21.6885
 11
-242.187
 21
21.9464
  0
LINE
  8
0
 10
-242.187
 20
21.9464
 11
-242.427
 21
22.2366
  0
LINE
  8
0
 10
-242.427
 20
22.2366
 11
-242.629
 21
22.5547
  0
LINE
  8
0
 10
-242.629
 20
22.5547
 11
-242.789
 21
22.8956
  0
LINE
  8
0
 10
-242.789
 20
22.8956
 11
-242.906
 21
23.2539
  0
LINE
  8
0
 10
-242.906
 20
23.2539
 11
-242.976
 21
23.624
  0
LINE
  8
0
 10
-242.976
 20
23.624
 11
-243
 21
24
  0
LINE
  8
0
 10
-243
 20
24
 11
-242.976
 21
24.376
  0
LINE
  8
0
 10
-242.976
 20
24.376
 11
-242.906
 21
24.7461
  0
LINE
  8
0
 10
-242.906
 20
24.7461
 11
-242.789
 21
25.1044
  0
LINE
  8
0
 10
-242.789
 20
25.1044
 11
-242.629
 21
25.4453
  0
LINE
  8
0
 10
-242.629
 20
25.4453
 11
-242.427
 21
25.7634
  0
LINE
  8
0
 10
-242.427
 20
25.7634
 11
-242.187
 21
26.0536
  0
LINE
  8
0
 10
-242.187
 20
26.0536
 11
-241.912
 21
26.3115
  0
LINE
  8
0
 10
-241.912
 20
26.3115
 11
-241.607
 21
26.533
  0
LINE
  8
0
 10
-241.607
 20
26.533
 11
-241.277
 21
26.7145
  0
LINE
  8
0
 10
-241.277
 20
26.7145
 11
-240.927
 21
26.8532
  0
LINE
  8
0
 10
-240.927
 20
26.8532
 11
-240.562
 21
26.9469
  0
LINE
  8
0
 10
-240.562
 20
26.9469
 11
-240.188
 21
26.9941
  0
LINE
  8
0
 10
-240.188
 20
26.9941
 11
-239.812
 21
26.9941
  0
LINE
  8
0
 10
-239.812
 20
26.9941
 11
-239.438
 21
26.9469
  0
LINE
  8
0
 10
-239.438
 20
26.9469
 11
-239.073
 21
26.8532
  0
LINE
  8
0
 10
-239.073
 20
26.8532
 11
-238.723
 21
26.7145
  0
LINE
  8
0
 10
-238.723
 20
26.7145
 11
-238.393
 21
26.533
  0
LINE
  8
0
 10
-238.393
 20
26.533
 11
-238.088
 21
26.3115
  0
LINE
  8
0
 10
-238.088
 20
26.3115
 11
-237.813
 21
26.0536
  0
LINE
  8
0
 10
-237.813
 20
26.0536
 11
-237.573
 21
25.7634
  0
LINE
  8
0
 10
-237.573
 20
25.7634
 11
-237.371
 21
25.4453
  0
LINE
  8
0
 10
-237.371
 20
25.4453
 11
-237.211
 21
25.1044
  0
LINE
  8
0
 10
-237.211
 20
25.1044
 11
-237.094
 21
24.7461
  0
LINE
  8
0
 10
-237.094
 20
24.7461
 11
-237.024
 21
24.376
  0
LINE
  8
0
 10
-237.024
 20
24.376
 11
-237
 21
24
  0
LINE
  8
0
 10
-237
 20
24
 11
-237.024
 21
23.624
  0
LINE
  8
0
 10
-237.024
 20
23.624
 11
-237.094
 21
23.2539
  0
LINE
  8
0
 10
-237.094
 20
23.2539
 11
-237.211
 21
22.8956
  0
LINE
  8
0
 10
-237.211
 20
22.8956
 11
-237.371
 21
22.5547
  0
LINE
  8
0
 10
-237.371
 20
22.5547
 11
-237.573
 21
22.2366
  0
LINE
  8
0
 10
-237.573
 20
22.2366
 11
-237.813
 21
21.9464
  0
LINE
  8
0
 10
-237.813
 20
21.9464
 11
-238.088
 21
21.6885
  0
LINE
  8
0
 10
-238.088
 20
21.6885
 11
-238.393
 21
21.467
  0
LINE
  8
0
 10
-238.393
 20
21.467
 11
-238.723
 21
21.2855
  0
LINE
  8
0
 10
-238.723
 20
21.2855
 11
-239.073
 21
21.1468
  0
LINE
  8
0
 10
-239.073
 20
21.1468
 11
-239.438
 21
21.0531
  0
LINE
  8
0
 10
-239.438
 20
21.0531
 11
-239.812
 21
21.0059
  0
LINE
  8
0
 10
-239.812
 20
21.0059
 11
-240.188
 21
21.0059
  0
ENDSEC
  0
SECTION
  2
OBJECTS
  0
DICTIONARY
  0
ENDSEC
  0
EOF
