solid OpenSCAD_Model
  facet normal -0.904808 -0.425821 0
    outer loop
      vertex -79.4782 1.1964 0
      vertex -79.652 1.5657 21
      vertex -79.652 1.5657 0
    endloop
  endfacet
  facet normal -0.904808 -0.425821 0
    outer loop
      vertex -79.652 1.5657 21
      vertex -79.4782 1.1964 0
      vertex -79.4782 1.1964 21
    endloop
  endfacet
  facet normal -0.844317 -0.535845 0
    outer loop
      vertex -79.652 1.5657 0
      vertex -79.8707 1.9103 21
      vertex -79.8707 1.9103 0
    endloop
  endfacet
  facet normal -0.844317 -0.535845 0
    outer loop
      vertex -79.8707 1.9103 21
      vertex -79.652 1.5657 0
      vertex -79.652 1.5657 21
    endloop
  endfacet
  facet normal -0.368093 -0.929789 0
    outer loop
      vertex -81.4957 3.09093 0
      vertex -81.1162 2.94069 21
      vertex -81.4957 3.09093 21
    endloop
  endfacet
  facet normal -0.368093 -0.929789 -0
    outer loop
      vertex -81.1162 2.94069 21
      vertex -81.4957 3.09093 0
      vertex -81.1162 2.94069 0
    endloop
  endfacet
  facet normal 0.368093 -0.929789 0
    outer loop
      vertex -83.8838 2.94069 0
      vertex -83.5043 3.09093 21
      vertex -83.8838 2.94069 21
    endloop
  endfacet
  facet normal 0.368093 -0.929789 0
    outer loop
      vertex -83.5043 3.09093 21
      vertex -83.8838 2.94069 0
      vertex -83.5043 3.09093 0
    endloop
  endfacet
  facet normal 0.904808 -0.425821 0
    outer loop
      vertex -85.5218 1.1964 21
      vertex -85.348 1.5657 0
      vertex -85.348 1.5657 21
    endloop
  endfacet
  facet normal 0.904808 -0.425821 0
    outer loop
      vertex -85.348 1.5657 0
      vertex -85.5218 1.1964 21
      vertex -85.5218 1.1964 0
    endloop
  endfacet
  facet normal -0.982277 0.187434 0
    outer loop
      vertex -79.3521 -0.808242 0
      vertex -79.2756 -0.407332 21
      vertex -79.2756 -0.407332 0
    endloop
  endfacet
  facet normal -0.982277 0.187434 0
    outer loop
      vertex -79.2756 -0.407332 21
      vertex -79.3521 -0.808242 0
      vertex -79.3521 -0.808242 21
    endloop
  endfacet
  facet normal -0.125356 -0.992112 0
    outer loop
      vertex -82.2959 3.24359 0
      vertex -81.891 3.19243 21
      vertex -82.2959 3.24359 21
    endloop
  endfacet
  facet normal -0.125356 -0.992112 -0
    outer loop
      vertex -81.891 3.19243 21
      vertex -82.2959 3.24359 0
      vertex -81.891 3.19243 0
    endloop
  endfacet
  facet normal -0.587778 -0.809022 0
    outer loop
      vertex -80.7586 2.74407 0
      vertex -80.4284 2.50417 21
      vertex -80.7586 2.74407 21
    endloop
  endfacet
  facet normal -0.587778 -0.809022 -0
    outer loop
      vertex -80.4284 2.50417 21
      vertex -80.7586 2.74407 0
      vertex -80.4284 2.50417 0
    endloop
  endfacet
  facet normal 0.982277 -0.187434 0
    outer loop
      vertex -85.7244 0.407332 21
      vertex -85.6479 0.808242 0
      vertex -85.6479 0.808242 21
    endloop
  endfacet
  facet normal 0.982277 -0.187434 0
    outer loop
      vertex -85.6479 0.808242 0
      vertex -85.7244 0.407332 21
      vertex -85.7244 0.407332 0
    endloop
  endfacet
  facet normal 0.770466 -0.637481 0
    outer loop
      vertex -85.1293 1.9103 21
      vertex -84.8691 2.22478 0
      vertex -84.8691 2.22478 21
    endloop
  endfacet
  facet normal 0.770466 -0.637481 0
    outer loop
      vertex -84.8691 2.22478 0
      vertex -85.1293 1.9103 21
      vertex -85.1293 1.9103 0
    endloop
  endfacet
  facet normal 0.481806 -0.876278 0
    outer loop
      vertex -84.2414 2.74407 0
      vertex -83.8838 2.94069 21
      vertex -84.2414 2.74407 21
    endloop
  endfacet
  facet normal 0.481806 -0.876278 0
    outer loop
      vertex -83.8838 2.94069 21
      vertex -84.2414 2.74407 0
      vertex -83.8838 2.94069 0
    endloop
  endfacet
  facet normal 0.125356 -0.992112 0
    outer loop
      vertex -83.109 3.19243 0
      vertex -82.7041 3.24359 21
      vertex -83.109 3.19243 21
    endloop
  endfacet
  facet normal 0.125356 -0.992112 0
    outer loop
      vertex -82.7041 3.24359 21
      vertex -83.109 3.19243 0
      vertex -82.7041 3.24359 0
    endloop
  endfacet
  facet normal -0.998031 -0.0627242 0
    outer loop
      vertex -79.25 0 0
      vertex -79.2756 0.407332 21
      vertex -79.2756 0.407332 0
    endloop
  endfacet
  facet normal -0.998031 -0.0627242 0
    outer loop
      vertex -79.2756 0.407332 21
      vertex -79.25 0 0
      vertex -79.25 0 21
    endloop
  endfacet
  facet normal -0.951071 0.308972 0
    outer loop
      vertex -79.4782 -1.1964 0
      vertex -79.3521 -0.808242 21
      vertex -79.3521 -0.808242 0
    endloop
  endfacet
  facet normal -0.951071 0.308972 0
    outer loop
      vertex -79.3521 -0.808242 21
      vertex -79.4782 -1.1964 0
      vertex -79.4782 -1.1964 21
    endloop
  endfacet
  facet normal -0.587778 0.809022 0
    outer loop
      vertex -80.4284 -2.50417 0
      vertex -80.7586 -2.74407 21
      vertex -80.4284 -2.50417 21
    endloop
  endfacet
  facet normal -0.587778 0.809022 0
    outer loop
      vertex -80.7586 -2.74407 21
      vertex -80.4284 -2.50417 0
      vertex -80.7586 -2.74407 0
    endloop
  endfacet
  facet normal -0.951071 -0.308972 0
    outer loop
      vertex -79.3521 0.808242 0
      vertex -79.4782 1.1964 21
      vertex -79.4782 1.1964 0
    endloop
  endfacet
  facet normal -0.951071 -0.308972 0
    outer loop
      vertex -79.4782 1.1964 21
      vertex -79.3521 0.808242 0
      vertex -79.3521 0.808242 21
    endloop
  endfacet
  facet normal -0.684572 -0.728946 0
    outer loop
      vertex -80.4284 2.50417 0
      vertex -80.1309 2.22478 21
      vertex -80.4284 2.50417 21
    endloop
  endfacet
  facet normal -0.684572 -0.728946 -0
    outer loop
      vertex -80.1309 2.22478 21
      vertex -80.4284 2.50417 0
      vertex -80.1309 2.22478 0
    endloop
  endfacet
  facet normal 0 -1 0
    outer loop
      vertex -82.7041 3.24359 0
      vertex -82.2959 3.24359 21
      vertex -82.7041 3.24359 21
    endloop
  endfacet
  facet normal 0 -1 -0
    outer loop
      vertex -82.2959 3.24359 21
      vertex -82.7041 3.24359 0
      vertex -82.2959 3.24359 0
    endloop
  endfacet
  facet normal -0.2487 -0.968581 0
    outer loop
      vertex -81.891 3.19243 0
      vertex -81.4957 3.09093 21
      vertex -81.891 3.19243 21
    endloop
  endfacet
  facet normal -0.2487 -0.968581 -0
    outer loop
      vertex -81.4957 3.09093 21
      vertex -81.891 3.19243 0
      vertex -81.4957 3.09093 0
    endloop
  endfacet
  facet normal -0.481806 -0.876278 0
    outer loop
      vertex -81.1162 2.94069 0
      vertex -80.7586 2.74407 21
      vertex -81.1162 2.94069 21
    endloop
  endfacet
  facet normal -0.481806 -0.876278 -0
    outer loop
      vertex -80.7586 2.74407 21
      vertex -81.1162 2.94069 0
      vertex -80.7586 2.74407 0
    endloop
  endfacet
  facet normal 0.998031 -0.0627242 0
    outer loop
      vertex -85.75 0 21
      vertex -85.7244 0.407332 0
      vertex -85.7244 0.407332 21
    endloop
  endfacet
  facet normal 0.998031 -0.0627242 0
    outer loop
      vertex -85.7244 0.407332 0
      vertex -85.75 0 21
      vertex -85.75 0 0
    endloop
  endfacet
  facet normal 0 0 1
    outer loop
      vertex 85.5218 1.1964 21
      vertex 89.5 2 21
      vertex 89.4606 2.62667 21
    endloop
  endfacet
  facet normal 0 0 1
    outer loop
      vertex 89.5 2 21
      vertex 85.75 0 21
      vertex 89.5 -2 21
    endloop
  endfacet
  facet normal 0 0 1
    outer loop
      vertex 85.348 1.5657 21
      vertex 89.4606 2.62667 21
      vertex 89.3429 3.24345 21
    endloop
  endfacet
  facet normal -0 0 1
    outer loop
      vertex 85.7244 -0.407332 21
      vertex 89.5 -2 21
      vertex 85.75 0 21
    endloop
  endfacet
  facet normal 0 0 1
    outer loop
      vertex 85.348 1.5657 21
      vertex 89.3429 3.24345 21
      vertex 89.1489 3.84062 21
    endloop
  endfacet
  facet normal -0 0 1
    outer loop
      vertex 85.6479 -0.808242 21
      vertex 89.5 -2 21
      vertex 85.7244 -0.407332 21
    endloop
  endfacet
  facet normal 0 0 1
    outer loop
      vertex 85.1293 1.9103 21
      vertex 89.1489 3.84062 21
      vertex 88.8815 4.40877 21
    endloop
  endfacet
  facet normal -0 0 1
    outer loop
      vertex 85.5218 -1.1964 21
      vertex 89.5 -2 21
      vertex 85.6479 -0.808242 21
    endloop
  endfacet
  facet normal 0 0 1
    outer loop
      vertex 85.1293 1.9103 21
      vertex 88.8815 4.40877 21
      vertex 88.5451 4.93893 21
    endloop
  endfacet
  facet normal 0 0 1
    outer loop
      vertex 89.5 -2 21
      vertex 85.5218 -1.1964 21
      vertex 89.4606 -2.62667 21
    endloop
  endfacet
  facet normal 0 0 1
    outer loop
      vertex 84.8691 2.22478 21
      vertex 88.5451 4.93893 21
      vertex 88.1448 5.42274 21
    endloop
  endfacet
  facet normal -0 0 1
    outer loop
      vertex 85.348 -1.5657 21
      vertex 89.4606 -2.62667 21
      vertex 85.5218 -1.1964 21
    endloop
  endfacet
  facet normal 0 0 1
    outer loop
      vertex 84.8691 2.22478 21
      vertex 88.1448 5.42274 21
      vertex 87.6871 5.85257 21
    endloop
  endfacet
  facet normal 0 0 1
    outer loop
      vertex 89.4606 -2.62667 21
      vertex 85.348 -1.5657 21
      vertex 89.3429 -3.24345 21
    endloop
  endfacet
  facet normal 0 0 1
    outer loop
      vertex 84.5716 2.50417 21
      vertex 87.6871 5.85257 21
      vertex 87.1791 6.22164 21
    endloop
  endfacet
  facet normal 0 0 1
    outer loop
      vertex 89.3429 -3.24345 21
      vertex 85.348 -1.5657 21
      vertex 89.1489 -3.84062 21
    endloop
  endfacet
  facet normal 0 0 1
    outer loop
      vertex 84.5716 2.50417 21
      vertex 87.1791 6.22164 21
      vertex 86.6289 6.52413 21
    endloop
  endfacet
  facet normal -0 0 1
    outer loop
      vertex 85.1293 -1.9103 21
      vertex 89.1489 -3.84062 21
      vertex 85.348 -1.5657 21
    endloop
  endfacet
  facet normal 0 0 1
    outer loop
      vertex 84.2414 2.74407 21
      vertex 86.6289 6.52413 21
      vertex 86.0451 6.75528 21
    endloop
  endfacet
  facet normal 0 0 1
    outer loop
      vertex 89.1489 -3.84062 21
      vertex 85.1293 -1.9103 21
      vertex 88.8815 -4.40877 21
    endloop
  endfacet
  facet normal 0 0 1
    outer loop
      vertex 88.8815 -4.40877 21
      vertex 85.1293 -1.9103 21
      vertex 88.5451 -4.93893 21
    endloop
  endfacet
  facet normal 0 0 1
    outer loop
      vertex 89.5 2 21
      vertex 85.7244 0.407332 21
      vertex 85.75 0 21
    endloop
  endfacet
  facet normal 0 0 1
    outer loop
      vertex 89.5 2 21
      vertex 85.6479 0.808242 21
      vertex 85.7244 0.407332 21
    endloop
  endfacet
  facet normal 0 0 1
    outer loop
      vertex 89.5 2 21
      vertex 85.5218 1.1964 21
      vertex 85.6479 0.808242 21
    endloop
  endfacet
  facet normal 0 0 1
    outer loop
      vertex 84.2414 2.74407 21
      vertex 86.0451 6.75528 21
      vertex 85.4369 6.91144 21
    endloop
  endfacet
  facet normal 0 0 1
    outer loop
      vertex 89.4606 2.62667 21
      vertex 85.348 1.5657 21
      vertex 85.5218 1.1964 21
    endloop
  endfacet
  facet normal 0 0 1
    outer loop
      vertex 89.1489 3.84062 21
      vertex 85.1293 1.9103 21
      vertex 85.348 1.5657 21
    endloop
  endfacet
  facet normal 0 0 1
    outer loop
      vertex 88.5451 4.93893 21
      vertex 84.8691 2.22478 21
      vertex 85.1293 1.9103 21
    endloop
  endfacet
  facet normal 0 0 1
    outer loop
      vertex 83.8838 2.94069 21
      vertex 85.4369 6.91144 21
      vertex 84.8139 6.99013 21
    endloop
  endfacet
  facet normal 0 0 1
    outer loop
      vertex 87.6871 5.85257 21
      vertex 84.5716 2.50417 21
      vertex 84.8691 2.22478 21
    endloop
  endfacet
  facet normal 0 0 1
    outer loop
      vertex 86.6289 6.52413 21
      vertex 84.2414 2.74407 21
      vertex 84.5716 2.50417 21
    endloop
  endfacet
  facet normal 0 0 1
    outer loop
      vertex 85.4369 6.91144 21
      vertex 83.8838 2.94069 21
      vertex 84.2414 2.74407 21
    endloop
  endfacet
  facet normal 0 0 1
    outer loop
      vertex 84.8139 6.99013 21
      vertex 83.5043 3.09093 21
      vertex 83.8838 2.94069 21
    endloop
  endfacet
  facet normal 0 0 1
    outer loop
      vertex 84.8139 6.99013 21
      vertex 83.109 3.19243 21
      vertex 83.5043 3.09093 21
    endloop
  endfacet
  facet normal 0 0 1
    outer loop
      vertex 84.8139 6.99013 21
      vertex 82.7041 3.24359 21
      vertex 83.109 3.19243 21
    endloop
  endfacet
  facet normal 0 0 1
    outer loop
      vertex 84.8139 6.99013 21
      vertex 82.2959 3.24359 21
      vertex 82.7041 3.24359 21
    endloop
  endfacet
  facet normal 0 0 1
    outer loop
      vertex 84.8139 6.99013 21
      vertex 81.891 3.19243 21
      vertex 82.2959 3.24359 21
    endloop
  endfacet
  facet normal 0 0 1
    outer loop
      vertex 84.8139 6.99013 21
      vertex 81.4957 3.09093 21
      vertex 81.891 3.19243 21
    endloop
  endfacet
  facet normal 0 0 1
    outer loop
      vertex 84.8139 6.99013 21
      vertex 81.1162 2.94069 21
      vertex 81.4957 3.09093 21
    endloop
  endfacet
  facet normal 0 0 1
    outer loop
      vertex 84.8139 6.99013 21
      vertex 80.7586 2.74407 21
      vertex 81.1162 2.94069 21
    endloop
  endfacet
  facet normal 0 0 1
    outer loop
      vertex 84.8139 6.99013 21
      vertex 80.4284 2.50417 21
      vertex 80.7586 2.74407 21
    endloop
  endfacet
  facet normal 0 0 1
    outer loop
      vertex 84.8139 6.99013 21
      vertex 80.1309 2.22478 21
      vertex 80.4284 2.50417 21
    endloop
  endfacet
  facet normal 0 0 1
    outer loop
      vertex 79.2756 0.407332 21
      vertex -79.25 0 21
      vertex 79.25 0 21
    endloop
  endfacet
  facet normal 0 0 1
    outer loop
      vertex -79.2756 0.407332 21
      vertex 79.2756 0.407332 21
      vertex 79.3521 0.808242 21
    endloop
  endfacet
  facet normal 0 0 1
    outer loop
      vertex -79.3521 0.808242 21
      vertex 79.3521 0.808242 21
      vertex 79.4782 1.1964 21
    endloop
  endfacet
  facet normal 0 0 1
    outer loop
      vertex -79.4782 1.1964 21
      vertex 79.4782 1.1964 21
      vertex 79.652 1.5657 21
    endloop
  endfacet
  facet normal 0 0 1
    outer loop
      vertex -79.652 1.5657 21
      vertex 79.652 1.5657 21
      vertex 79.8707 1.9103 21
    endloop
  endfacet
  facet normal 0 0 1
    outer loop
      vertex -79.8707 1.9103 21
      vertex 79.8707 1.9103 21
      vertex 80.1309 2.22478 21
    endloop
  endfacet
  facet normal 0 0 1
    outer loop
      vertex -80.1309 2.22478 21
      vertex 80.1309 2.22478 21
      vertex 84.8139 6.99013 21
    endloop
  endfacet
  facet normal 0 0 1
    outer loop
      vertex 79.2756 0.407332 21
      vertex -79.2756 0.407332 21
      vertex -79.25 0 21
    endloop
  endfacet
  facet normal 0 0 1
    outer loop
      vertex 79.3521 0.808242 21
      vertex -79.3521 0.808242 21
      vertex -79.2756 0.407332 21
    endloop
  endfacet
  facet normal 0 0 1
    outer loop
      vertex 79.4782 1.1964 21
      vertex -79.4782 1.1964 21
      vertex -79.3521 0.808242 21
    endloop
  endfacet
  facet normal 0 0 1
    outer loop
      vertex 79.652 1.5657 21
      vertex -79.652 1.5657 21
      vertex -79.4782 1.1964 21
    endloop
  endfacet
  facet normal 0 0 1
    outer loop
      vertex 79.8707 1.9103 21
      vertex -79.8707 1.9103 21
      vertex -79.652 1.5657 21
    endloop
  endfacet
  facet normal 0 0 1
    outer loop
      vertex 80.1309 2.22478 21
      vertex -80.1309 2.22478 21
      vertex -79.8707 1.9103 21
    endloop
  endfacet
  facet normal -0 0 1
    outer loop
      vertex -84.8139 6.99013 21
      vertex -80.1309 2.22478 21
      vertex 84.8139 6.99013 21
    endloop
  endfacet
  facet normal 0 0 1
    outer loop
      vertex -80.1309 2.22478 21
      vertex -84.8139 6.99013 21
      vertex -80.4284 2.50417 21
    endloop
  endfacet
  facet normal 0 0 1
    outer loop
      vertex -80.4284 2.50417 21
      vertex -84.8139 6.99013 21
      vertex -80.7586 2.74407 21
    endloop
  endfacet
  facet normal 0 0 1
    outer loop
      vertex -80.7586 2.74407 21
      vertex -84.8139 6.99013 21
      vertex -81.1162 2.94069 21
    endloop
  endfacet
  facet normal 0 0 1
    outer loop
      vertex -81.1162 2.94069 21
      vertex -84.8139 6.99013 21
      vertex -81.4957 3.09093 21
    endloop
  endfacet
  facet normal 0 0 1
    outer loop
      vertex -81.4957 3.09093 21
      vertex -84.8139 6.99013 21
      vertex -81.891 3.19243 21
    endloop
  endfacet
  facet normal 0 0 1
    outer loop
      vertex -81.891 3.19243 21
      vertex -84.8139 6.99013 21
      vertex -82.2959 3.24359 21
    endloop
  endfacet
  facet normal 0 0 1
    outer loop
      vertex -82.2959 3.24359 21
      vertex -84.8139 6.99013 21
      vertex -82.7041 3.24359 21
    endloop
  endfacet
  facet normal 0 0 1
    outer loop
      vertex -84.8139 6.99013 21
      vertex -83.109 3.19243 21
      vertex -82.7041 3.24359 21
    endloop
  endfacet
  facet normal 0 0 1
    outer loop
      vertex -84.8139 6.99013 21
      vertex -83.5043 3.09093 21
      vertex -83.109 3.19243 21
    endloop
  endfacet
  facet normal 0 0 1
    outer loop
      vertex -84.8139 6.99013 21
      vertex -83.8838 2.94069 21
      vertex -83.5043 3.09093 21
    endloop
  endfacet
  facet normal -0 0 1
    outer loop
      vertex -85.4369 6.91144 21
      vertex -83.8838 2.94069 21
      vertex -84.8139 6.99013 21
    endloop
  endfacet
  facet normal 0 0 1
    outer loop
      vertex -83.8838 2.94069 21
      vertex -85.4369 6.91144 21
      vertex -84.2414 2.74407 21
    endloop
  endfacet
  facet normal -0 0 1
    outer loop
      vertex -86.0451 6.75528 21
      vertex -84.2414 2.74407 21
      vertex -85.4369 6.91144 21
    endloop
  endfacet
  facet normal -0 0 1
    outer loop
      vertex -86.6289 6.52413 21
      vertex -84.2414 2.74407 21
      vertex -86.0451 6.75528 21
    endloop
  endfacet
  facet normal 0 0 1
    outer loop
      vertex -84.2414 2.74407 21
      vertex -86.6289 6.52413 21
      vertex -84.5716 2.50417 21
    endloop
  endfacet
  facet normal -0 0 1
    outer loop
      vertex -87.1791 6.22164 21
      vertex -84.5716 2.50417 21
      vertex -86.6289 6.52413 21
    endloop
  endfacet
  facet normal -0 0 1
    outer loop
      vertex -87.6871 5.85257 21
      vertex -84.5716 2.50417 21
      vertex -87.1791 6.22164 21
    endloop
  endfacet
  facet normal 0 0 1
    outer loop
      vertex -84.5716 2.50417 21
      vertex -87.6871 5.85257 21
      vertex -84.8691 2.22478 21
    endloop
  endfacet
  facet normal -0 0 1
    outer loop
      vertex -88.1448 5.42274 21
      vertex -84.8691 2.22478 21
      vertex -87.6871 5.85257 21
    endloop
  endfacet
  facet normal -0 0 1
    outer loop
      vertex -88.5451 4.93893 21
      vertex -84.8691 2.22478 21
      vertex -88.1448 5.42274 21
    endloop
  endfacet
  facet normal 0 0 1
    outer loop
      vertex -84.8691 2.22478 21
      vertex -88.5451 4.93893 21
      vertex -85.1293 1.9103 21
    endloop
  endfacet
  facet normal -0 0 1
    outer loop
      vertex 84.8691 -2.22478 21
      vertex 88.5451 -4.93893 21
      vertex 85.1293 -1.9103 21
    endloop
  endfacet
  facet normal 0 0 1
    outer loop
      vertex 88.5451 -4.93893 21
      vertex 84.8691 -2.22478 21
      vertex 88.1448 -5.42274 21
    endloop
  endfacet
  facet normal 0 0 1
    outer loop
      vertex 88.1448 -5.42274 21
      vertex 84.8691 -2.22478 21
      vertex 87.6871 -5.85257 21
    endloop
  endfacet
  facet normal -0 0 1
    outer loop
      vertex 84.5716 -2.50417 21
      vertex 87.6871 -5.85257 21
      vertex 84.8691 -2.22478 21
    endloop
  endfacet
  facet normal 0 0 1
    outer loop
      vertex 87.6871 -5.85257 21
      vertex 84.5716 -2.50417 21
      vertex 87.1791 -6.22164 21
    endloop
  endfacet
  facet normal 0 0 1
    outer loop
      vertex 87.1791 -6.22164 21
      vertex 84.5716 -2.50417 21
      vertex 86.6289 -6.52413 21
    endloop
  endfacet
  facet normal -0 0 1
    outer loop
      vertex 84.2414 -2.74407 21
      vertex 86.6289 -6.52413 21
      vertex 84.5716 -2.50417 21
    endloop
  endfacet
  facet normal 0 0 1
    outer loop
      vertex 86.6289 -6.52413 21
      vertex 84.2414 -2.74407 21
      vertex 86.0451 -6.75528 21
    endloop
  endfacet
  facet normal 0 0 1
    outer loop
      vertex 86.0451 -6.75528 21
      vertex 84.2414 -2.74407 21
      vertex 85.4369 -6.91144 21
    endloop
  endfacet
  facet normal -0 0 1
    outer loop
      vertex 83.8838 -2.94069 21
      vertex 85.4369 -6.91144 21
      vertex 84.2414 -2.74407 21
    endloop
  endfacet
  facet normal 0 0 1
    outer loop
      vertex 85.4369 -6.91144 21
      vertex 83.8838 -2.94069 21
      vertex 84.8139 -6.99013 21
    endloop
  endfacet
  facet normal -0 0 1
    outer loop
      vertex 83.5043 -3.09093 21
      vertex 84.8139 -6.99013 21
      vertex 83.8838 -2.94069 21
    endloop
  endfacet
  facet normal -0 0 1
    outer loop
      vertex 83.109 -3.19243 21
      vertex 84.8139 -6.99013 21
      vertex 83.5043 -3.09093 21
    endloop
  endfacet
  facet normal -0 0 1
    outer loop
      vertex 82.7041 -3.24359 21
      vertex 84.8139 -6.99013 21
      vertex 83.109 -3.19243 21
    endloop
  endfacet
  facet normal -0 0 1
    outer loop
      vertex 82.2959 -3.24359 21
      vertex 84.8139 -6.99013 21
      vertex 82.7041 -3.24359 21
    endloop
  endfacet
  facet normal 0 0 1
    outer loop
      vertex 81.891 -3.19243 21
      vertex 84.8139 -6.99013 21
      vertex 82.2959 -3.24359 21
    endloop
  endfacet
  facet normal 0 0 1
    outer loop
      vertex 81.4957 -3.09093 21
      vertex 84.8139 -6.99013 21
      vertex 81.891 -3.19243 21
    endloop
  endfacet
  facet normal 0 0 1
    outer loop
      vertex 81.1162 -2.94069 21
      vertex 84.8139 -6.99013 21
      vertex 81.4957 -3.09093 21
    endloop
  endfacet
  facet normal 0 0 1
    outer loop
      vertex 80.7586 -2.74407 21
      vertex 84.8139 -6.99013 21
      vertex 81.1162 -2.94069 21
    endloop
  endfacet
  facet normal 0 0 1
    outer loop
      vertex 80.4284 -2.50417 21
      vertex 84.8139 -6.99013 21
      vertex 80.7586 -2.74407 21
    endloop
  endfacet
  facet normal 0 0 1
    outer loop
      vertex 80.1309 -2.22478 21
      vertex 84.8139 -6.99013 21
      vertex 80.4284 -2.50417 21
    endloop
  endfacet
  facet normal -0 0 1
    outer loop
      vertex -79.25 0 21
      vertex 79.2756 -0.407332 21
      vertex 79.25 0 21
    endloop
  endfacet
  facet normal 0 0 1
    outer loop
      vertex -79.2756 -0.407332 21
      vertex 79.2756 -0.407332 21
      vertex -79.25 0 21
    endloop
  endfacet
  facet normal 0 0 1
    outer loop
      vertex 79.2756 -0.407332 21
      vertex -79.2756 -0.407332 21
      vertex 79.3521 -0.808242 21
    endloop
  endfacet
  facet normal 0 0 1
    outer loop
      vertex -79.3521 -0.808242 21
      vertex 79.3521 -0.808242 21
      vertex -79.2756 -0.407332 21
    endloop
  endfacet
  facet normal 0 0 1
    outer loop
      vertex 79.3521 -0.808242 21
      vertex -79.3521 -0.808242 21
      vertex 79.4782 -1.1964 21
    endloop
  endfacet
  facet normal 0 0 1
    outer loop
      vertex -79.4782 -1.1964 21
      vertex 79.4782 -1.1964 21
      vertex -79.3521 -0.808242 21
    endloop
  endfacet
  facet normal 0 0 1
    outer loop
      vertex 79.4782 -1.1964 21
      vertex -79.4782 -1.1964 21
      vertex 79.652 -1.5657 21
    endloop
  endfacet
  facet normal 0 0 1
    outer loop
      vertex -79.652 -1.5657 21
      vertex 79.652 -1.5657 21
      vertex -79.4782 -1.1964 21
    endloop
  endfacet
  facet normal 0 0 1
    outer loop
      vertex 79.652 -1.5657 21
      vertex -79.652 -1.5657 21
      vertex 79.8707 -1.9103 21
    endloop
  endfacet
  facet normal 0 0 1
    outer loop
      vertex -79.8707 -1.9103 21
      vertex 79.8707 -1.9103 21
      vertex -79.652 -1.5657 21
    endloop
  endfacet
  facet normal 0 0 1
    outer loop
      vertex 79.8707 -1.9103 21
      vertex -79.8707 -1.9103 21
      vertex 80.1309 -2.22478 21
    endloop
  endfacet
  facet normal 0 0 1
    outer loop
      vertex -80.1309 -2.22478 21
      vertex 80.1309 -2.22478 21
      vertex -79.8707 -1.9103 21
    endloop
  endfacet
  facet normal 0 0 1
    outer loop
      vertex 80.1309 -2.22478 21
      vertex -80.1309 -2.22478 21
      vertex 84.8139 -6.99013 21
    endloop
  endfacet
  facet normal 0 0 1
    outer loop
      vertex -84.8139 -6.99013 21
      vertex -80.1309 -2.22478 21
      vertex -80.4284 -2.50417 21
    endloop
  endfacet
  facet normal 0 0 1
    outer loop
      vertex -84.8139 -6.99013 21
      vertex -80.4284 -2.50417 21
      vertex -80.7586 -2.74407 21
    endloop
  endfacet
  facet normal 0 0 1
    outer loop
      vertex -84.8139 -6.99013 21
      vertex -80.7586 -2.74407 21
      vertex -81.1162 -2.94069 21
    endloop
  endfacet
  facet normal 0 0 1
    outer loop
      vertex -84.8139 -6.99013 21
      vertex -81.1162 -2.94069 21
      vertex -81.4957 -3.09093 21
    endloop
  endfacet
  facet normal 0 0 1
    outer loop
      vertex -84.8139 -6.99013 21
      vertex -81.4957 -3.09093 21
      vertex -81.891 -3.19243 21
    endloop
  endfacet
  facet normal 0 0 1
    outer loop
      vertex -84.8139 -6.99013 21
      vertex -81.891 -3.19243 21
      vertex -82.2959 -3.24359 21
    endloop
  endfacet
  facet normal 0 0 1
    outer loop
      vertex -84.8139 -6.99013 21
      vertex -82.2959 -3.24359 21
      vertex -82.7041 -3.24359 21
    endloop
  endfacet
  facet normal 0 0 1
    outer loop
      vertex -80.1309 -2.22478 21
      vertex -84.8139 -6.99013 21
      vertex 84.8139 -6.99013 21
    endloop
  endfacet
  facet normal 0 0 1
    outer loop
      vertex -83.109 -3.19243 21
      vertex -84.8139 -6.99013 21
      vertex -82.7041 -3.24359 21
    endloop
  endfacet
  facet normal 0 0 1
    outer loop
      vertex -83.5043 -3.09093 21
      vertex -84.8139 -6.99013 21
      vertex -83.109 -3.19243 21
    endloop
  endfacet
  facet normal 0 0 1
    outer loop
      vertex -83.8838 -2.94069 21
      vertex -84.8139 -6.99013 21
      vertex -83.5043 -3.09093 21
    endloop
  endfacet
  facet normal 0 0 1
    outer loop
      vertex -85.4369 -6.91144 21
      vertex -83.8838 -2.94069 21
      vertex -84.2414 -2.74407 21
    endloop
  endfacet
  facet normal 0 0 1
    outer loop
      vertex -86.6289 -6.52413 21
      vertex -84.2414 -2.74407 21
      vertex -84.5716 -2.50417 21
    endloop
  endfacet
  facet normal 0 0 1
    outer loop
      vertex -87.6871 -5.85257 21
      vertex -84.5716 -2.50417 21
      vertex -84.8691 -2.22478 21
    endloop
  endfacet
  facet normal 0 0 1
    outer loop
      vertex -88.5451 -4.93893 21
      vertex -84.8691 -2.22478 21
      vertex -85.1293 -1.9103 21
    endloop
  endfacet
  facet normal 0 0 1
    outer loop
      vertex -89.1489 -3.84062 21
      vertex -85.1293 -1.9103 21
      vertex -85.348 -1.5657 21
    endloop
  endfacet
  facet normal 0 0 1
    outer loop
      vertex -83.8838 -2.94069 21
      vertex -85.4369 -6.91144 21
      vertex -84.8139 -6.99013 21
    endloop
  endfacet
  facet normal 0 0 1
    outer loop
      vertex -89.4606 -2.62667 21
      vertex -85.348 -1.5657 21
      vertex -85.5218 -1.1964 21
    endloop
  endfacet
  facet normal 0 0 1
    outer loop
      vertex -89.5 -2 21
      vertex -85.5218 -1.1964 21
      vertex -85.6479 -0.808242 21
    endloop
  endfacet
  facet normal 0 0 1
    outer loop
      vertex -89.5 -2 21
      vertex -85.6479 -0.808242 21
      vertex -85.7244 -0.407332 21
    endloop
  endfacet
  facet normal 0 0 1
    outer loop
      vertex -89.5 -2 21
      vertex -85.7244 -0.407332 21
      vertex -85.75 0 21
    endloop
  endfacet
  facet normal 0 0 1
    outer loop
      vertex -84.2414 -2.74407 21
      vertex -86.0451 -6.75528 21
      vertex -85.4369 -6.91144 21
    endloop
  endfacet
  facet normal -0 0 1
    outer loop
      vertex -88.8815 4.40877 21
      vertex -85.1293 1.9103 21
      vertex -88.5451 4.93893 21
    endloop
  endfacet
  facet normal -0 0 1
    outer loop
      vertex -89.1489 3.84062 21
      vertex -85.1293 1.9103 21
      vertex -88.8815 4.40877 21
    endloop
  endfacet
  facet normal 0 0 1
    outer loop
      vertex -89.5 -2 21
      vertex -85.75 0 21
      vertex -89.5 2 21
    endloop
  endfacet
  facet normal 0 0 1
    outer loop
      vertex -85.1293 1.9103 21
      vertex -89.1489 3.84062 21
      vertex -85.348 1.5657 21
    endloop
  endfacet
  facet normal 0 0 1
    outer loop
      vertex -85.5218 -1.1964 21
      vertex -89.5 -2 21
      vertex -89.4606 -2.62667 21
    endloop
  endfacet
  facet normal -0 0 1
    outer loop
      vertex -89.3429 3.24345 21
      vertex -85.348 1.5657 21
      vertex -89.1489 3.84062 21
    endloop
  endfacet
  facet normal 0 0 1
    outer loop
      vertex -84.2414 -2.74407 21
      vertex -86.6289 -6.52413 21
      vertex -86.0451 -6.75528 21
    endloop
  endfacet
  facet normal -0 0 1
    outer loop
      vertex -89.4606 2.62667 21
      vertex -85.348 1.5657 21
      vertex -89.3429 3.24345 21
    endloop
  endfacet
  facet normal 0 0 1
    outer loop
      vertex -84.5716 -2.50417 21
      vertex -87.1791 -6.22164 21
      vertex -86.6289 -6.52413 21
    endloop
  endfacet
  facet normal 0 0 1
    outer loop
      vertex -85.348 1.5657 21
      vertex -89.4606 2.62667 21
      vertex -85.5218 1.1964 21
    endloop
  endfacet
  facet normal 0 0 1
    outer loop
      vertex -84.5716 -2.50417 21
      vertex -87.6871 -5.85257 21
      vertex -87.1791 -6.22164 21
    endloop
  endfacet
  facet normal -0 0 1
    outer loop
      vertex -89.5 2 21
      vertex -85.5218 1.1964 21
      vertex -89.4606 2.62667 21
    endloop
  endfacet
  facet normal 0 0 1
    outer loop
      vertex -84.8691 -2.22478 21
      vertex -88.1448 -5.42274 21
      vertex -87.6871 -5.85257 21
    endloop
  endfacet
  facet normal 0 0 1
    outer loop
      vertex -85.5218 1.1964 21
      vertex -89.5 2 21
      vertex -85.6479 0.808242 21
    endloop
  endfacet
  facet normal 0 0 1
    outer loop
      vertex -84.8691 -2.22478 21
      vertex -88.5451 -4.93893 21
      vertex -88.1448 -5.42274 21
    endloop
  endfacet
  facet normal 0 0 1
    outer loop
      vertex -85.6479 0.808242 21
      vertex -89.5 2 21
      vertex -85.7244 0.407332 21
    endloop
  endfacet
  facet normal 0 0 1
    outer loop
      vertex -85.1293 -1.9103 21
      vertex -88.8815 -4.40877 21
      vertex -88.5451 -4.93893 21
    endloop
  endfacet
  facet normal 0 0 1
    outer loop
      vertex -85.7244 0.407332 21
      vertex -89.5 2 21
      vertex -85.75 0 21
    endloop
  endfacet
  facet normal 0 0 1
    outer loop
      vertex -85.1293 -1.9103 21
      vertex -89.1489 -3.84062 21
      vertex -88.8815 -4.40877 21
    endloop
  endfacet
  facet normal 0 0 1
    outer loop
      vertex -85.348 -1.5657 21
      vertex -89.3429 -3.24345 21
      vertex -89.1489 -3.84062 21
    endloop
  endfacet
  facet normal 0 0 1
    outer loop
      vertex -85.348 -1.5657 21
      vertex -89.4606 -2.62667 21
      vertex -89.3429 -3.24345 21
    endloop
  endfacet
  facet normal 0.951071 -0.308972 0
    outer loop
      vertex -85.6479 0.808242 21
      vertex -85.5218 1.1964 0
      vertex -85.5218 1.1964 21
    endloop
  endfacet
  facet normal 0.951071 -0.308972 0
    outer loop
      vertex -85.5218 1.1964 0
      vertex -85.6479 0.808242 21
      vertex -85.6479 0.808242 0
    endloop
  endfacet
  facet normal 0.844317 -0.535845 0
    outer loop
      vertex -85.348 1.5657 21
      vertex -85.1293 1.9103 0
      vertex -85.1293 1.9103 21
    endloop
  endfacet
  facet normal 0.844317 -0.535845 0
    outer loop
      vertex -85.1293 1.9103 0
      vertex -85.348 1.5657 21
      vertex -85.348 1.5657 0
    endloop
  endfacet
  facet normal 0.2487 -0.968581 0
    outer loop
      vertex -83.5043 3.09093 0
      vertex -83.109 3.19243 21
      vertex -83.5043 3.09093 21
    endloop
  endfacet
  facet normal 0.2487 -0.968581 0
    outer loop
      vertex -83.109 3.19243 21
      vertex -83.5043 3.09093 0
      vertex -83.109 3.19243 0
    endloop
  endfacet
  facet normal 0.587778 -0.809022 0
    outer loop
      vertex -84.5716 2.50417 0
      vertex -84.2414 2.74407 21
      vertex -84.5716 2.50417 21
    endloop
  endfacet
  facet normal 0.587778 -0.809022 0
    outer loop
      vertex -84.2414 2.74407 21
      vertex -84.5716 2.50417 0
      vertex -84.2414 2.74407 0
    endloop
  endfacet
  facet normal 0.684572 -0.728946 0
    outer loop
      vertex -84.8691 2.22478 0
      vertex -84.5716 2.50417 21
      vertex -84.8691 2.22478 21
    endloop
  endfacet
  facet normal 0.684572 -0.728946 0
    outer loop
      vertex -84.5716 2.50417 21
      vertex -84.8691 2.22478 0
      vertex -84.5716 2.50417 0
    endloop
  endfacet
  facet normal -0.844317 0.535845 0
    outer loop
      vertex -79.8707 -1.9103 0
      vertex -79.652 -1.5657 21
      vertex -79.652 -1.5657 0
    endloop
  endfacet
  facet normal -0.844317 0.535845 0
    outer loop
      vertex -79.652 -1.5657 21
      vertex -79.8707 -1.9103 0
      vertex -79.8707 -1.9103 21
    endloop
  endfacet
  facet normal 0 1 -0
    outer loop
      vertex -82.2959 -3.24359 0
      vertex -82.7041 -3.24359 21
      vertex -82.2959 -3.24359 21
    endloop
  endfacet
  facet normal 0 1 0
    outer loop
      vertex -82.7041 -3.24359 21
      vertex -82.2959 -3.24359 0
      vertex -82.7041 -3.24359 0
    endloop
  endfacet
  facet normal 0.951071 0.308972 0
    outer loop
      vertex -85.5218 -1.1964 21
      vertex -85.6479 -0.808242 0
      vertex -85.6479 -0.808242 21
    endloop
  endfacet
  facet normal 0.951071 0.308972 0
    outer loop
      vertex -85.6479 -0.808242 0
      vertex -85.5218 -1.1964 21
      vertex -85.5218 -1.1964 0
    endloop
  endfacet
  facet normal 0.904808 0.425821 0
    outer loop
      vertex -85.348 -1.5657 21
      vertex -85.5218 -1.1964 0
      vertex -85.5218 -1.1964 21
    endloop
  endfacet
  facet normal 0.904808 0.425821 0
    outer loop
      vertex -85.5218 -1.1964 0
      vertex -85.348 -1.5657 21
      vertex -85.348 -1.5657 0
    endloop
  endfacet
  facet normal -0.125356 0.992112 0
    outer loop
      vertex -81.891 -3.19243 0
      vertex -82.2959 -3.24359 21
      vertex -81.891 -3.19243 21
    endloop
  endfacet
  facet normal -0.125356 0.992112 0
    outer loop
      vertex -82.2959 -3.24359 21
      vertex -81.891 -3.19243 0
      vertex -82.2959 -3.24359 0
    endloop
  endfacet
  facet normal -0.982277 -0.187434 0
    outer loop
      vertex -79.2756 0.407332 0
      vertex -79.3521 0.808242 21
      vertex -79.3521 0.808242 0
    endloop
  endfacet
  facet normal -0.982277 -0.187434 0
    outer loop
      vertex -79.3521 0.808242 21
      vertex -79.2756 0.407332 0
      vertex -79.2756 0.407332 21
    endloop
  endfacet
  facet normal -0.770466 -0.637481 0
    outer loop
      vertex -79.8707 1.9103 0
      vertex -80.1309 2.22478 21
      vertex -80.1309 2.22478 0
    endloop
  endfacet
  facet normal -0.770466 -0.637481 0
    outer loop
      vertex -80.1309 2.22478 21
      vertex -79.8707 1.9103 0
      vertex -79.8707 1.9103 21
    endloop
  endfacet
  facet normal -0.998031 0.0627242 0
    outer loop
      vertex -79.2756 -0.407332 0
      vertex -79.25 0 21
      vertex -79.25 0 0
    endloop
  endfacet
  facet normal -0.998031 0.0627242 0
    outer loop
      vertex -79.25 0 21
      vertex -79.2756 -0.407332 0
      vertex -79.2756 -0.407332 21
    endloop
  endfacet
  facet normal 0.368093 0.929789 -0
    outer loop
      vertex -83.5043 -3.09093 0
      vertex -83.8838 -2.94069 21
      vertex -83.5043 -3.09093 21
    endloop
  endfacet
  facet normal 0.368093 0.929789 0
    outer loop
      vertex -83.8838 -2.94069 21
      vertex -83.5043 -3.09093 0
      vertex -83.8838 -2.94069 0
    endloop
  endfacet
  facet normal 0 0 -1
    outer loop
      vertex 85.5218 -1.1964 0
      vertex 89.5 -2 0
      vertex 89.4606 -2.62667 0
    endloop
  endfacet
  facet normal 0 0 -1
    outer loop
      vertex 89.5 -2 0
      vertex 85.75 0 0
      vertex 89.5 2 0
    endloop
  endfacet
  facet normal 0 0 -1
    outer loop
      vertex 85.348 -1.5657 0
      vertex 89.4606 -2.62667 0
      vertex 89.3429 -3.24345 0
    endloop
  endfacet
  facet normal 0 0 -1
    outer loop
      vertex 85.7244 0.407332 0
      vertex 89.5 2 0
      vertex 85.75 0 0
    endloop
  endfacet
  facet normal 0 0 -1
    outer loop
      vertex 85.348 -1.5657 0
      vertex 89.3429 -3.24345 0
      vertex 89.1489 -3.84062 0
    endloop
  endfacet
  facet normal 0 0 -1
    outer loop
      vertex 85.6479 0.808242 0
      vertex 89.5 2 0
      vertex 85.7244 0.407332 0
    endloop
  endfacet
  facet normal 0 0 -1
    outer loop
      vertex 85.1293 -1.9103 0
      vertex 89.1489 -3.84062 0
      vertex 88.8815 -4.40877 0
    endloop
  endfacet
  facet normal 0 0 -1
    outer loop
      vertex 85.5218 1.1964 0
      vertex 89.5 2 0
      vertex 85.6479 0.808242 0
    endloop
  endfacet
  facet normal 0 0 -1
    outer loop
      vertex 85.1293 -1.9103 0
      vertex 88.8815 -4.40877 0
      vertex 88.5451 -4.93893 0
    endloop
  endfacet
  facet normal -0 0 -1
    outer loop
      vertex 89.5 2 0
      vertex 85.5218 1.1964 0
      vertex 89.4606 2.62667 0
    endloop
  endfacet
  facet normal 0 0 -1
    outer loop
      vertex 84.8691 -2.22478 0
      vertex 88.5451 -4.93893 0
      vertex 88.1448 -5.42274 0
    endloop
  endfacet
  facet normal 0 0 -1
    outer loop
      vertex 85.348 1.5657 0
      vertex 89.4606 2.62667 0
      vertex 85.5218 1.1964 0
    endloop
  endfacet
  facet normal 0 0 -1
    outer loop
      vertex 84.8691 -2.22478 0
      vertex 88.1448 -5.42274 0
      vertex 87.6871 -5.85257 0
    endloop
  endfacet
  facet normal -0 0 -1
    outer loop
      vertex 89.4606 2.62667 0
      vertex 85.348 1.5657 0
      vertex 89.3429 3.24345 0
    endloop
  endfacet
  facet normal 0 0 -1
    outer loop
      vertex 84.5716 -2.50417 0
      vertex 87.6871 -5.85257 0
      vertex 87.1791 -6.22164 0
    endloop
  endfacet
  facet normal -0 0 -1
    outer loop
      vertex 89.3429 3.24345 0
      vertex 85.348 1.5657 0
      vertex 89.1489 3.84062 0
    endloop
  endfacet
  facet normal 0 0 -1
    outer loop
      vertex 84.5716 -2.50417 0
      vertex 87.1791 -6.22164 0
      vertex 86.6289 -6.52413 0
    endloop
  endfacet
  facet normal 0 0 -1
    outer loop
      vertex 85.1293 1.9103 0
      vertex 89.1489 3.84062 0
      vertex 85.348 1.5657 0
    endloop
  endfacet
  facet normal 0 0 -1
    outer loop
      vertex 84.2414 -2.74407 0
      vertex 86.6289 -6.52413 0
      vertex 86.0451 -6.75528 0
    endloop
  endfacet
  facet normal -0 0 -1
    outer loop
      vertex 89.1489 3.84062 0
      vertex 85.1293 1.9103 0
      vertex 88.8815 4.40877 0
    endloop
  endfacet
  facet normal -0 0 -1
    outer loop
      vertex 88.8815 4.40877 0
      vertex 85.1293 1.9103 0
      vertex 88.5451 4.93893 0
    endloop
  endfacet
  facet normal 0 0 -1
    outer loop
      vertex 89.5 -2 0
      vertex 85.7244 -0.407332 0
      vertex 85.75 0 0
    endloop
  endfacet
  facet normal 0 0 -1
    outer loop
      vertex 89.5 -2 0
      vertex 85.6479 -0.808242 0
      vertex 85.7244 -0.407332 0
    endloop
  endfacet
  facet normal 0 0 -1
    outer loop
      vertex 89.5 -2 0
      vertex 85.5218 -1.1964 0
      vertex 85.6479 -0.808242 0
    endloop
  endfacet
  facet normal 0 0 -1
    outer loop
      vertex 84.2414 -2.74407 0
      vertex 86.0451 -6.75528 0
      vertex 85.4369 -6.91144 0
    endloop
  endfacet
  facet normal 0 0 -1
    outer loop
      vertex 89.4606 -2.62667 0
      vertex 85.348 -1.5657 0
      vertex 85.5218 -1.1964 0
    endloop
  endfacet
  facet normal 0 0 -1
    outer loop
      vertex 89.1489 -3.84062 0
      vertex 85.1293 -1.9103 0
      vertex 85.348 -1.5657 0
    endloop
  endfacet
  facet normal 0 0 -1
    outer loop
      vertex 88.5451 -4.93893 0
      vertex 84.8691 -2.22478 0
      vertex 85.1293 -1.9103 0
    endloop
  endfacet
  facet normal 0 0 -1
    outer loop
      vertex 83.8838 -2.94069 0
      vertex 85.4369 -6.91144 0
      vertex 84.8139 -6.99013 0
    endloop
  endfacet
  facet normal 0 0 -1
    outer loop
      vertex 87.6871 -5.85257 0
      vertex 84.5716 -2.50417 0
      vertex 84.8691 -2.22478 0
    endloop
  endfacet
  facet normal 0 0 -1
    outer loop
      vertex 86.6289 -6.52413 0
      vertex 84.2414 -2.74407 0
      vertex 84.5716 -2.50417 0
    endloop
  endfacet
  facet normal 0 0 -1
    outer loop
      vertex 85.4369 -6.91144 0
      vertex 83.8838 -2.94069 0
      vertex 84.2414 -2.74407 0
    endloop
  endfacet
  facet normal 0 0 -1
    outer loop
      vertex 84.8139 -6.99013 0
      vertex 83.5043 -3.09093 0
      vertex 83.8838 -2.94069 0
    endloop
  endfacet
  facet normal 0 0 -1
    outer loop
      vertex 84.8139 -6.99013 0
      vertex 83.109 -3.19243 0
      vertex 83.5043 -3.09093 0
    endloop
  endfacet
  facet normal 0 0 -1
    outer loop
      vertex 84.8139 -6.99013 0
      vertex 82.7041 -3.24359 0
      vertex 83.109 -3.19243 0
    endloop
  endfacet
  facet normal 0 0 -1
    outer loop
      vertex 84.8139 -6.99013 0
      vertex 82.2959 -3.24359 0
      vertex 82.7041 -3.24359 0
    endloop
  endfacet
  facet normal 0 0 -1
    outer loop
      vertex 84.8139 -6.99013 0
      vertex 81.891 -3.19243 0
      vertex 82.2959 -3.24359 0
    endloop
  endfacet
  facet normal 0 0 -1
    outer loop
      vertex 84.8139 -6.99013 0
      vertex 81.4957 -3.09093 0
      vertex 81.891 -3.19243 0
    endloop
  endfacet
  facet normal 0 0 -1
    outer loop
      vertex 84.8139 -6.99013 0
      vertex 81.1162 -2.94069 0
      vertex 81.4957 -3.09093 0
    endloop
  endfacet
  facet normal 0 0 -1
    outer loop
      vertex 84.8139 -6.99013 0
      vertex 80.7586 -2.74407 0
      vertex 81.1162 -2.94069 0
    endloop
  endfacet
  facet normal 0 0 -1
    outer loop
      vertex 84.8139 -6.99013 0
      vertex 80.4284 -2.50417 0
      vertex 80.7586 -2.74407 0
    endloop
  endfacet
  facet normal 0 0 -1
    outer loop
      vertex 84.8139 -6.99013 0
      vertex 80.1309 -2.22478 0
      vertex 80.4284 -2.50417 0
    endloop
  endfacet
  facet normal 0 0 -1
    outer loop
      vertex 79.2756 -0.407332 0
      vertex -79.25 0 0
      vertex 79.25 0 0
    endloop
  endfacet
  facet normal 0 0 -1
    outer loop
      vertex -79.2756 -0.407332 0
      vertex 79.2756 -0.407332 0
      vertex 79.3521 -0.808242 0
    endloop
  endfacet
  facet normal 0 0 -1
    outer loop
      vertex -79.3521 -0.808242 0
      vertex 79.3521 -0.808242 0
      vertex 79.4782 -1.1964 0
    endloop
  endfacet
  facet normal 0 0 -1
    outer loop
      vertex -79.4782 -1.1964 0
      vertex 79.4782 -1.1964 0
      vertex 79.652 -1.5657 0
    endloop
  endfacet
  facet normal 0 0 -1
    outer loop
      vertex -79.652 -1.5657 0
      vertex 79.652 -1.5657 0
      vertex 79.8707 -1.9103 0
    endloop
  endfacet
  facet normal 0 0 -1
    outer loop
      vertex -79.8707 -1.9103 0
      vertex 79.8707 -1.9103 0
      vertex 80.1309 -2.22478 0
    endloop
  endfacet
  facet normal 0 0 -1
    outer loop
      vertex -80.1309 -2.22478 0
      vertex 80.1309 -2.22478 0
      vertex 84.8139 -6.99013 0
    endloop
  endfacet
  facet normal 0 0 -1
    outer loop
      vertex 79.2756 -0.407332 0
      vertex -79.2756 -0.407332 0
      vertex -79.25 0 0
    endloop
  endfacet
  facet normal 0 0 -1
    outer loop
      vertex 79.3521 -0.808242 0
      vertex -79.3521 -0.808242 0
      vertex -79.2756 -0.407332 0
    endloop
  endfacet
  facet normal 0 0 -1
    outer loop
      vertex 79.4782 -1.1964 0
      vertex -79.4782 -1.1964 0
      vertex -79.3521 -0.808242 0
    endloop
  endfacet
  facet normal 0 0 -1
    outer loop
      vertex 79.652 -1.5657 0
      vertex -79.652 -1.5657 0
      vertex -79.4782 -1.1964 0
    endloop
  endfacet
  facet normal 0 0 -1
    outer loop
      vertex 79.8707 -1.9103 0
      vertex -79.8707 -1.9103 0
      vertex -79.652 -1.5657 0
    endloop
  endfacet
  facet normal 0 0 -1
    outer loop
      vertex 80.1309 -2.22478 0
      vertex -80.1309 -2.22478 0
      vertex -79.8707 -1.9103 0
    endloop
  endfacet
  facet normal 0 0 -1
    outer loop
      vertex -84.8139 -6.99013 0
      vertex -80.1309 -2.22478 0
      vertex 84.8139 -6.99013 0
    endloop
  endfacet
  facet normal 0 0 -1
    outer loop
      vertex -80.1309 -2.22478 0
      vertex -84.8139 -6.99013 0
      vertex -80.4284 -2.50417 0
    endloop
  endfacet
  facet normal 0 0 -1
    outer loop
      vertex -80.4284 -2.50417 0
      vertex -84.8139 -6.99013 0
      vertex -80.7586 -2.74407 0
    endloop
  endfacet
  facet normal 0 0 -1
    outer loop
      vertex -80.7586 -2.74407 0
      vertex -84.8139 -6.99013 0
      vertex -81.1162 -2.94069 0
    endloop
  endfacet
  facet normal 0 0 -1
    outer loop
      vertex -81.1162 -2.94069 0
      vertex -84.8139 -6.99013 0
      vertex -81.4957 -3.09093 0
    endloop
  endfacet
  facet normal 0 0 -1
    outer loop
      vertex -81.4957 -3.09093 0
      vertex -84.8139 -6.99013 0
      vertex -81.891 -3.19243 0
    endloop
  endfacet
  facet normal 0 0 -1
    outer loop
      vertex -81.891 -3.19243 0
      vertex -84.8139 -6.99013 0
      vertex -82.2959 -3.24359 0
    endloop
  endfacet
  facet normal -0 0 -1
    outer loop
      vertex -82.2959 -3.24359 0
      vertex -84.8139 -6.99013 0
      vertex -82.7041 -3.24359 0
    endloop
  endfacet
  facet normal 0 0 -1
    outer loop
      vertex -84.8139 -6.99013 0
      vertex -83.109 -3.19243 0
      vertex -82.7041 -3.24359 0
    endloop
  endfacet
  facet normal 0 0 -1
    outer loop
      vertex -84.8139 -6.99013 0
      vertex -83.5043 -3.09093 0
      vertex -83.109 -3.19243 0
    endloop
  endfacet
  facet normal 0 0 -1
    outer loop
      vertex -84.8139 -6.99013 0
      vertex -83.8838 -2.94069 0
      vertex -83.5043 -3.09093 0
    endloop
  endfacet
  facet normal 0 0 -1
    outer loop
      vertex -85.4369 -6.91144 0
      vertex -83.8838 -2.94069 0
      vertex -84.8139 -6.99013 0
    endloop
  endfacet
  facet normal -0 0 -1
    outer loop
      vertex -83.8838 -2.94069 0
      vertex -85.4369 -6.91144 0
      vertex -84.2414 -2.74407 0
    endloop
  endfacet
  facet normal 0 0 -1
    outer loop
      vertex -86.0451 -6.75528 0
      vertex -84.2414 -2.74407 0
      vertex -85.4369 -6.91144 0
    endloop
  endfacet
  facet normal 0 0 -1
    outer loop
      vertex -86.6289 -6.52413 0
      vertex -84.2414 -2.74407 0
      vertex -86.0451 -6.75528 0
    endloop
  endfacet
  facet normal -0 0 -1
    outer loop
      vertex -84.2414 -2.74407 0
      vertex -86.6289 -6.52413 0
      vertex -84.5716 -2.50417 0
    endloop
  endfacet
  facet normal 0 0 -1
    outer loop
      vertex -87.1791 -6.22164 0
      vertex -84.5716 -2.50417 0
      vertex -86.6289 -6.52413 0
    endloop
  endfacet
  facet normal 0 0 -1
    outer loop
      vertex -87.6871 -5.85257 0
      vertex -84.5716 -2.50417 0
      vertex -87.1791 -6.22164 0
    endloop
  endfacet
  facet normal -0 0 -1
    outer loop
      vertex -84.5716 -2.50417 0
      vertex -87.6871 -5.85257 0
      vertex -84.8691 -2.22478 0
    endloop
  endfacet
  facet normal 0 0 -1
    outer loop
      vertex -88.1448 -5.42274 0
      vertex -84.8691 -2.22478 0
      vertex -87.6871 -5.85257 0
    endloop
  endfacet
  facet normal 0 0 -1
    outer loop
      vertex -88.5451 -4.93893 0
      vertex -84.8691 -2.22478 0
      vertex -88.1448 -5.42274 0
    endloop
  endfacet
  facet normal -0 0 -1
    outer loop
      vertex -84.8691 -2.22478 0
      vertex -88.5451 -4.93893 0
      vertex -85.1293 -1.9103 0
    endloop
  endfacet
  facet normal 0 0 -1
    outer loop
      vertex 84.8691 2.22478 0
      vertex 88.5451 4.93893 0
      vertex 85.1293 1.9103 0
    endloop
  endfacet
  facet normal -0 0 -1
    outer loop
      vertex 88.5451 4.93893 0
      vertex 84.8691 2.22478 0
      vertex 88.1448 5.42274 0
    endloop
  endfacet
  facet normal -0 0 -1
    outer loop
      vertex 88.1448 5.42274 0
      vertex 84.8691 2.22478 0
      vertex 87.6871 5.85257 0
    endloop
  endfacet
  facet normal 0 0 -1
    outer loop
      vertex 84.5716 2.50417 0
      vertex 87.6871 5.85257 0
      vertex 84.8691 2.22478 0
    endloop
  endfacet
  facet normal -0 0 -1
    outer loop
      vertex 87.6871 5.85257 0
      vertex 84.5716 2.50417 0
      vertex 87.1791 6.22164 0
    endloop
  endfacet
  facet normal -0 0 -1
    outer loop
      vertex 87.1791 6.22164 0
      vertex 84.5716 2.50417 0
      vertex 86.6289 6.52413 0
    endloop
  endfacet
  facet normal 0 0 -1
    outer loop
      vertex 84.2414 2.74407 0
      vertex 86.6289 6.52413 0
      vertex 84.5716 2.50417 0
    endloop
  endfacet
  facet normal -0 0 -1
    outer loop
      vertex 86.6289 6.52413 0
      vertex 84.2414 2.74407 0
      vertex 86.0451 6.75528 0
    endloop
  endfacet
  facet normal -0 0 -1
    outer loop
      vertex 86.0451 6.75528 0
      vertex 84.2414 2.74407 0
      vertex 85.4369 6.91144 0
    endloop
  endfacet
  facet normal 0 0 -1
    outer loop
      vertex 83.8838 2.94069 0
      vertex 85.4369 6.91144 0
      vertex 84.2414 2.74407 0
    endloop
  endfacet
  facet normal -0 0 -1
    outer loop
      vertex 85.4369 6.91144 0
      vertex 83.8838 2.94069 0
      vertex 84.8139 6.99013 0
    endloop
  endfacet
  facet normal 0 0 -1
    outer loop
      vertex 83.5043 3.09093 0
      vertex 84.8139 6.99013 0
      vertex 83.8838 2.94069 0
    endloop
  endfacet
  facet normal 0 0 -1
    outer loop
      vertex 83.109 3.19243 0
      vertex 84.8139 6.99013 0
      vertex 83.5043 3.09093 0
    endloop
  endfacet
  facet normal 0 0 -1
    outer loop
      vertex 82.7041 3.24359 0
      vertex 84.8139 6.99013 0
      vertex 83.109 3.19243 0
    endloop
  endfacet
  facet normal 0 0 -1
    outer loop
      vertex 82.2959 3.24359 0
      vertex 84.8139 6.99013 0
      vertex 82.7041 3.24359 0
    endloop
  endfacet
  facet normal 0 0 -1
    outer loop
      vertex 81.891 3.19243 0
      vertex 84.8139 6.99013 0
      vertex 82.2959 3.24359 0
    endloop
  endfacet
  facet normal 0 0 -1
    outer loop
      vertex 81.4957 3.09093 0
      vertex 84.8139 6.99013 0
      vertex 81.891 3.19243 0
    endloop
  endfacet
  facet normal 0 0 -1
    outer loop
      vertex 81.1162 2.94069 0
      vertex 84.8139 6.99013 0
      vertex 81.4957 3.09093 0
    endloop
  endfacet
  facet normal 0 0 -1
    outer loop
      vertex 80.7586 2.74407 0
      vertex 84.8139 6.99013 0
      vertex 81.1162 2.94069 0
    endloop
  endfacet
  facet normal 0 0 -1
    outer loop
      vertex 80.4284 2.50417 0
      vertex 84.8139 6.99013 0
      vertex 80.7586 2.74407 0
    endloop
  endfacet
  facet normal 0 0 -1
    outer loop
      vertex 80.1309 2.22478 0
      vertex 84.8139 6.99013 0
      vertex 80.4284 2.50417 0
    endloop
  endfacet
  facet normal 0 0 -1
    outer loop
      vertex -79.25 0 0
      vertex 79.2756 0.407332 0
      vertex 79.25 0 0
    endloop
  endfacet
  facet normal 0 0 -1
    outer loop
      vertex -79.2756 0.407332 0
      vertex 79.2756 0.407332 0
      vertex -79.25 0 0
    endloop
  endfacet
  facet normal 0 0 -1
    outer loop
      vertex 79.2756 0.407332 0
      vertex -79.2756 0.407332 0
      vertex 79.3521 0.808242 0
    endloop
  endfacet
  facet normal 0 0 -1
    outer loop
      vertex -79.3521 0.808242 0
      vertex 79.3521 0.808242 0
      vertex -79.2756 0.407332 0
    endloop
  endfacet
  facet normal 0 0 -1
    outer loop
      vertex 79.3521 0.808242 0
      vertex -79.3521 0.808242 0
      vertex 79.4782 1.1964 0
    endloop
  endfacet
  facet normal 0 0 -1
    outer loop
      vertex -79.4782 1.1964 0
      vertex 79.4782 1.1964 0
      vertex -79.3521 0.808242 0
    endloop
  endfacet
  facet normal 0 0 -1
    outer loop
      vertex 79.4782 1.1964 0
      vertex -79.4782 1.1964 0
      vertex 79.652 1.5657 0
    endloop
  endfacet
  facet normal 0 0 -1
    outer loop
      vertex -79.652 1.5657 0
      vertex 79.652 1.5657 0
      vertex -79.4782 1.1964 0
    endloop
  endfacet
  facet normal 0 0 -1
    outer loop
      vertex 79.652 1.5657 0
      vertex -79.652 1.5657 0
      vertex 79.8707 1.9103 0
    endloop
  endfacet
  facet normal 0 0 -1
    outer loop
      vertex -79.8707 1.9103 0
      vertex 79.8707 1.9103 0
      vertex -79.652 1.5657 0
    endloop
  endfacet
  facet normal 0 0 -1
    outer loop
      vertex 79.8707 1.9103 0
      vertex -79.8707 1.9103 0
      vertex 80.1309 2.22478 0
    endloop
  endfacet
  facet normal 0 0 -1
    outer loop
      vertex -80.1309 2.22478 0
      vertex 80.1309 2.22478 0
      vertex -79.8707 1.9103 0
    endloop
  endfacet
  facet normal 0 0 -1
    outer loop
      vertex 80.1309 2.22478 0
      vertex -80.1309 2.22478 0
      vertex 84.8139 6.99013 0
    endloop
  endfacet
  facet normal 0 0 -1
    outer loop
      vertex -84.8139 6.99013 0
      vertex -80.1309 2.22478 0
      vertex -80.4284 2.50417 0
    endloop
  endfacet
  facet normal 0 0 -1
    outer loop
      vertex -84.8139 6.99013 0
      vertex -80.4284 2.50417 0
      vertex -80.7586 2.74407 0
    endloop
  endfacet
  facet normal 0 0 -1
    outer loop
      vertex -84.8139 6.99013 0
      vertex -80.7586 2.74407 0
      vertex -81.1162 2.94069 0
    endloop
  endfacet
  facet normal 0 0 -1
    outer loop
      vertex -84.8139 6.99013 0
      vertex -81.1162 2.94069 0
      vertex -81.4957 3.09093 0
    endloop
  endfacet
  facet normal 0 0 -1
    outer loop
      vertex -84.8139 6.99013 0
      vertex -81.4957 3.09093 0
      vertex -81.891 3.19243 0
    endloop
  endfacet
  facet normal 0 0 -1
    outer loop
      vertex -84.8139 6.99013 0
      vertex -81.891 3.19243 0
      vertex -82.2959 3.24359 0
    endloop
  endfacet
  facet normal 0 0 -1
    outer loop
      vertex -84.8139 6.99013 0
      vertex -82.2959 3.24359 0
      vertex -82.7041 3.24359 0
    endloop
  endfacet
  facet normal 0 0 -1
    outer loop
      vertex -80.1309 2.22478 0
      vertex -84.8139 6.99013 0
      vertex 84.8139 6.99013 0
    endloop
  endfacet
  facet normal 0 0 -1
    outer loop
      vertex -83.109 3.19243 0
      vertex -84.8139 6.99013 0
      vertex -82.7041 3.24359 0
    endloop
  endfacet
  facet normal 0 0 -1
    outer loop
      vertex -83.5043 3.09093 0
      vertex -84.8139 6.99013 0
      vertex -83.109 3.19243 0
    endloop
  endfacet
  facet normal 0 0 -1
    outer loop
      vertex -83.8838 2.94069 0
      vertex -84.8139 6.99013 0
      vertex -83.5043 3.09093 0
    endloop
  endfacet
  facet normal 0 0 -1
    outer loop
      vertex -85.4369 6.91144 0
      vertex -83.8838 2.94069 0
      vertex -84.2414 2.74407 0
    endloop
  endfacet
  facet normal 0 0 -1
    outer loop
      vertex -86.6289 6.52413 0
      vertex -84.2414 2.74407 0
      vertex -84.5716 2.50417 0
    endloop
  endfacet
  facet normal 0 0 -1
    outer loop
      vertex -87.6871 5.85257 0
      vertex -84.5716 2.50417 0
      vertex -84.8691 2.22478 0
    endloop
  endfacet
  facet normal 0 0 -1
    outer loop
      vertex -88.5451 4.93893 0
      vertex -84.8691 2.22478 0
      vertex -85.1293 1.9103 0
    endloop
  endfacet
  facet normal 0 0 -1
    outer loop
      vertex -89.1489 3.84062 0
      vertex -85.1293 1.9103 0
      vertex -85.348 1.5657 0
    endloop
  endfacet
  facet normal 0 0 -1
    outer loop
      vertex -83.8838 2.94069 0
      vertex -85.4369 6.91144 0
      vertex -84.8139 6.99013 0
    endloop
  endfacet
  facet normal 0 0 -1
    outer loop
      vertex -89.4606 2.62667 0
      vertex -85.348 1.5657 0
      vertex -85.5218 1.1964 0
    endloop
  endfacet
  facet normal 0 0 -1
    outer loop
      vertex -89.5 2 0
      vertex -85.5218 1.1964 0
      vertex -85.6479 0.808242 0
    endloop
  endfacet
  facet normal 0 0 -1
    outer loop
      vertex -89.5 2 0
      vertex -85.6479 0.808242 0
      vertex -85.7244 0.407332 0
    endloop
  endfacet
  facet normal 0 0 -1
    outer loop
      vertex -89.5 2 0
      vertex -85.7244 0.407332 0
      vertex -85.75 0 0
    endloop
  endfacet
  facet normal 0 0 -1
    outer loop
      vertex -84.2414 2.74407 0
      vertex -86.0451 6.75528 0
      vertex -85.4369 6.91144 0
    endloop
  endfacet
  facet normal 0 0 -1
    outer loop
      vertex -88.8815 -4.40877 0
      vertex -85.1293 -1.9103 0
      vertex -88.5451 -4.93893 0
    endloop
  endfacet
  facet normal 0 0 -1
    outer loop
      vertex -89.1489 -3.84062 0
      vertex -85.1293 -1.9103 0
      vertex -88.8815 -4.40877 0
    endloop
  endfacet
  facet normal 0 0 -1
    outer loop
      vertex -89.5 2 0
      vertex -85.75 0 0
      vertex -89.5 -2 0
    endloop
  endfacet
  facet normal -0 0 -1
    outer loop
      vertex -85.1293 -1.9103 0
      vertex -89.1489 -3.84062 0
      vertex -85.348 -1.5657 0
    endloop
  endfacet
  facet normal 0 0 -1
    outer loop
      vertex -85.5218 1.1964 0
      vertex -89.5 2 0
      vertex -89.4606 2.62667 0
    endloop
  endfacet
  facet normal 0 0 -1
    outer loop
      vertex -89.3429 -3.24345 0
      vertex -85.348 -1.5657 0
      vertex -89.1489 -3.84062 0
    endloop
  endfacet
  facet normal 0 0 -1
    outer loop
      vertex -84.2414 2.74407 0
      vertex -86.6289 6.52413 0
      vertex -86.0451 6.75528 0
    endloop
  endfacet
  facet normal 0 0 -1
    outer loop
      vertex -89.4606 -2.62667 0
      vertex -85.348 -1.5657 0
      vertex -89.3429 -3.24345 0
    endloop
  endfacet
  facet normal 0 0 -1
    outer loop
      vertex -84.5716 2.50417 0
      vertex -87.1791 6.22164 0
      vertex -86.6289 6.52413 0
    endloop
  endfacet
  facet normal -0 0 -1
    outer loop
      vertex -85.348 -1.5657 0
      vertex -89.4606 -2.62667 0
      vertex -85.5218 -1.1964 0
    endloop
  endfacet
  facet normal 0 0 -1
    outer loop
      vertex -84.5716 2.50417 0
      vertex -87.6871 5.85257 0
      vertex -87.1791 6.22164 0
    endloop
  endfacet
  facet normal 0 0 -1
    outer loop
      vertex -89.5 -2 0
      vertex -85.5218 -1.1964 0
      vertex -89.4606 -2.62667 0
    endloop
  endfacet
  facet normal 0 0 -1
    outer loop
      vertex -84.8691 2.22478 0
      vertex -88.1448 5.42274 0
      vertex -87.6871 5.85257 0
    endloop
  endfacet
  facet normal -0 0 -1
    outer loop
      vertex -85.5218 -1.1964 0
      vertex -89.5 -2 0
      vertex -85.6479 -0.808242 0
    endloop
  endfacet
  facet normal 0 0 -1
    outer loop
      vertex -84.8691 2.22478 0
      vertex -88.5451 4.93893 0
      vertex -88.1448 5.42274 0
    endloop
  endfacet
  facet normal -0 0 -1
    outer loop
      vertex -85.6479 -0.808242 0
      vertex -89.5 -2 0
      vertex -85.7244 -0.407332 0
    endloop
  endfacet
  facet normal 0 0 -1
    outer loop
      vertex -85.1293 1.9103 0
      vertex -88.8815 4.40877 0
      vertex -88.5451 4.93893 0
    endloop
  endfacet
  facet normal -0 0 -1
    outer loop
      vertex -85.7244 -0.407332 0
      vertex -89.5 -2 0
      vertex -85.75 0 0
    endloop
  endfacet
  facet normal 0 0 -1
    outer loop
      vertex -85.1293 1.9103 0
      vertex -89.1489 3.84062 0
      vertex -88.8815 4.40877 0
    endloop
  endfacet
  facet normal 0 0 -1
    outer loop
      vertex -85.348 1.5657 0
      vertex -89.3429 3.24345 0
      vertex -89.1489 3.84062 0
    endloop
  endfacet
  facet normal 0 0 -1
    outer loop
      vertex -85.348 1.5657 0
      vertex -89.4606 2.62667 0
      vertex -89.3429 3.24345 0
    endloop
  endfacet
  facet normal -0.2487 0.968581 0
    outer loop
      vertex -81.4957 -3.09093 0
      vertex -81.891 -3.19243 21
      vertex -81.4957 -3.09093 21
    endloop
  endfacet
  facet normal -0.2487 0.968581 0
    outer loop
      vertex -81.891 -3.19243 21
      vertex -81.4957 -3.09093 0
      vertex -81.891 -3.19243 0
    endloop
  endfacet
  facet normal -0.481806 0.876278 0
    outer loop
      vertex -80.7586 -2.74407 0
      vertex -81.1162 -2.94069 21
      vertex -80.7586 -2.74407 21
    endloop
  endfacet
  facet normal -0.481806 0.876278 0
    outer loop
      vertex -81.1162 -2.94069 21
      vertex -80.7586 -2.74407 0
      vertex -81.1162 -2.94069 0
    endloop
  endfacet
  facet normal -0.684572 0.728946 0
    outer loop
      vertex -80.1309 -2.22478 0
      vertex -80.4284 -2.50417 21
      vertex -80.1309 -2.22478 21
    endloop
  endfacet
  facet normal -0.684572 0.728946 0
    outer loop
      vertex -80.4284 -2.50417 21
      vertex -80.1309 -2.22478 0
      vertex -80.4284 -2.50417 0
    endloop
  endfacet
  facet normal -0.904808 0.425821 0
    outer loop
      vertex -79.652 -1.5657 0
      vertex -79.4782 -1.1964 21
      vertex -79.4782 -1.1964 0
    endloop
  endfacet
  facet normal -0.904808 0.425821 0
    outer loop
      vertex -79.4782 -1.1964 21
      vertex -79.652 -1.5657 0
      vertex -79.652 -1.5657 21
    endloop
  endfacet
  facet normal 0.587778 0.809022 -0
    outer loop
      vertex -84.2414 -2.74407 0
      vertex -84.5716 -2.50417 21
      vertex -84.2414 -2.74407 21
    endloop
  endfacet
  facet normal 0.587778 0.809022 0
    outer loop
      vertex -84.5716 -2.50417 21
      vertex -84.2414 -2.74407 0
      vertex -84.5716 -2.50417 0
    endloop
  endfacet
  facet normal 0.2487 0.968581 -0
    outer loop
      vertex -83.109 -3.19243 0
      vertex -83.5043 -3.09093 21
      vertex -83.109 -3.19243 21
    endloop
  endfacet
  facet normal 0.2487 0.968581 0
    outer loop
      vertex -83.5043 -3.09093 21
      vertex -83.109 -3.19243 0
      vertex -83.5043 -3.09093 0
    endloop
  endfacet
  facet normal 0.125356 0.992112 -0
    outer loop
      vertex -82.7041 -3.24359 0
      vertex -83.109 -3.19243 21
      vertex -82.7041 -3.24359 21
    endloop
  endfacet
  facet normal 0.125356 0.992112 0
    outer loop
      vertex -83.109 -3.19243 21
      vertex -82.7041 -3.24359 0
      vertex -83.109 -3.19243 0
    endloop
  endfacet
  facet normal 0.770466 0.637481 0
    outer loop
      vertex -84.8691 -2.22478 21
      vertex -85.1293 -1.9103 0
      vertex -85.1293 -1.9103 21
    endloop
  endfacet
  facet normal 0.770466 0.637481 0
    outer loop
      vertex -85.1293 -1.9103 0
      vertex -84.8691 -2.22478 21
      vertex -84.8691 -2.22478 0
    endloop
  endfacet
  facet normal 0.684572 0.728946 -0
    outer loop
      vertex -84.5716 -2.50417 0
      vertex -84.8691 -2.22478 21
      vertex -84.5716 -2.50417 21
    endloop
  endfacet
  facet normal 0.684572 0.728946 0
    outer loop
      vertex -84.8691 -2.22478 21
      vertex -84.5716 -2.50417 0
      vertex -84.8691 -2.22478 0
    endloop
  endfacet
  facet normal 0.982277 0.187434 0
    outer loop
      vertex -85.6479 -0.808242 21
      vertex -85.7244 -0.407332 0
      vertex -85.7244 -0.407332 21
    endloop
  endfacet
  facet normal 0.982277 0.187434 0
    outer loop
      vertex -85.7244 -0.407332 0
      vertex -85.6479 -0.808242 21
      vertex -85.6479 -0.808242 0
    endloop
  endfacet
  facet normal 0.998031 0.0627242 0
    outer loop
      vertex -85.7244 -0.407332 21
      vertex -85.75 0 0
      vertex -85.75 0 21
    endloop
  endfacet
  facet normal 0.998031 0.0627242 0
    outer loop
      vertex -85.75 0 0
      vertex -85.7244 -0.407332 21
      vertex -85.7244 -0.407332 0
    endloop
  endfacet
  facet normal -0.770466 0.637481 0
    outer loop
      vertex -80.1309 -2.22478 0
      vertex -79.8707 -1.9103 21
      vertex -79.8707 -1.9103 0
    endloop
  endfacet
  facet normal -0.770466 0.637481 0
    outer loop
      vertex -79.8707 -1.9103 21
      vertex -80.1309 -2.22478 0
      vertex -80.1309 -2.22478 21
    endloop
  endfacet
  facet normal 0.481806 0.876278 -0
    outer loop
      vertex -83.8838 -2.94069 0
      vertex -84.2414 -2.74407 21
      vertex -83.8838 -2.94069 21
    endloop
  endfacet
  facet normal 0.481806 0.876278 0
    outer loop
      vertex -84.2414 -2.74407 21
      vertex -83.8838 -2.94069 0
      vertex -84.2414 -2.74407 0
    endloop
  endfacet
  facet normal 0.844317 0.535845 0
    outer loop
      vertex -85.1293 -1.9103 21
      vertex -85.348 -1.5657 0
      vertex -85.348 -1.5657 21
    endloop
  endfacet
  facet normal 0.844317 0.535845 0
    outer loop
      vertex -85.348 -1.5657 0
      vertex -85.1293 -1.9103 21
      vertex -85.1293 -1.9103 0
    endloop
  endfacet
  facet normal -0.368093 0.929789 0
    outer loop
      vertex -81.1162 -2.94069 0
      vertex -81.4957 -3.09093 21
      vertex -81.1162 -2.94069 21
    endloop
  endfacet
  facet normal -0.368093 0.929789 0
    outer loop
      vertex -81.4957 -3.09093 21
      vertex -81.1162 -2.94069 0
      vertex -81.4957 -3.09093 0
    endloop
  endfacet
  facet normal -0.951071 -0.308972 0
    outer loop
      vertex 85.6479 0.808242 0
      vertex 85.5218 1.1964 21
      vertex 85.5218 1.1964 0
    endloop
  endfacet
  facet normal -0.951071 -0.308972 0
    outer loop
      vertex 85.5218 1.1964 21
      vertex 85.6479 0.808242 0
      vertex 85.6479 0.808242 21
    endloop
  endfacet
  facet normal -0.998031 -0.0627242 0
    outer loop
      vertex 85.75 0 0
      vertex 85.7244 0.407332 21
      vertex 85.7244 0.407332 0
    endloop
  endfacet
  facet normal -0.998031 -0.0627242 0
    outer loop
      vertex 85.7244 0.407332 21
      vertex 85.75 0 0
      vertex 85.75 0 21
    endloop
  endfacet
  facet normal 0 -1 0
    outer loop
      vertex 82.2959 3.24359 0
      vertex 82.7041 3.24359 21
      vertex 82.2959 3.24359 21
    endloop
  endfacet
  facet normal 0 -1 -0
    outer loop
      vertex 82.7041 3.24359 21
      vertex 82.2959 3.24359 0
      vertex 82.7041 3.24359 0
    endloop
  endfacet
  facet normal -0.684572 -0.728946 0
    outer loop
      vertex 84.5716 2.50417 0
      vertex 84.8691 2.22478 21
      vertex 84.5716 2.50417 21
    endloop
  endfacet
  facet normal -0.684572 -0.728946 -0
    outer loop
      vertex 84.8691 2.22478 21
      vertex 84.5716 2.50417 0
      vertex 84.8691 2.22478 0
    endloop
  endfacet
  facet normal 0.770466 -0.637481 0
    outer loop
      vertex 79.8707 1.9103 21
      vertex 80.1309 2.22478 0
      vertex 80.1309 2.22478 21
    endloop
  endfacet
  facet normal 0.770466 -0.637481 0
    outer loop
      vertex 80.1309 2.22478 0
      vertex 79.8707 1.9103 21
      vertex 79.8707 1.9103 0
    endloop
  endfacet
  facet normal 0.481806 -0.876278 0
    outer loop
      vertex 80.7586 2.74407 0
      vertex 81.1162 2.94069 21
      vertex 80.7586 2.74407 21
    endloop
  endfacet
  facet normal 0.481806 -0.876278 0
    outer loop
      vertex 81.1162 2.94069 21
      vertex 80.7586 2.74407 0
      vertex 81.1162 2.94069 0
    endloop
  endfacet
  facet normal 0.770466 0.637481 0
    outer loop
      vertex 80.1309 -2.22478 21
      vertex 79.8707 -1.9103 0
      vertex 79.8707 -1.9103 21
    endloop
  endfacet
  facet normal 0.770466 0.637481 0
    outer loop
      vertex 79.8707 -1.9103 0
      vertex 80.1309 -2.22478 21
      vertex 80.1309 -2.22478 0
    endloop
  endfacet
  facet normal -0.904808 -0.425821 0
    outer loop
      vertex 85.5218 1.1964 0
      vertex 85.348 1.5657 21
      vertex 85.348 1.5657 0
    endloop
  endfacet
  facet normal -0.904808 -0.425821 0
    outer loop
      vertex 85.348 1.5657 21
      vertex 85.5218 1.1964 0
      vertex 85.5218 1.1964 21
    endloop
  endfacet
  facet normal -0.844317 -0.535845 0
    outer loop
      vertex 85.348 1.5657 0
      vertex 85.1293 1.9103 21
      vertex 85.1293 1.9103 0
    endloop
  endfacet
  facet normal -0.844317 -0.535845 0
    outer loop
      vertex 85.1293 1.9103 21
      vertex 85.348 1.5657 0
      vertex 85.348 1.5657 21
    endloop
  endfacet
  facet normal -0.368093 -0.929789 0
    outer loop
      vertex 83.5043 3.09093 0
      vertex 83.8838 2.94069 21
      vertex 83.5043 3.09093 21
    endloop
  endfacet
  facet normal -0.368093 -0.929789 -0
    outer loop
      vertex 83.8838 2.94069 21
      vertex 83.5043 3.09093 0
      vertex 83.8838 2.94069 0
    endloop
  endfacet
  facet normal -0.2487 -0.968581 0
    outer loop
      vertex 83.109 3.19243 0
      vertex 83.5043 3.09093 21
      vertex 83.109 3.19243 21
    endloop
  endfacet
  facet normal -0.2487 -0.968581 -0
    outer loop
      vertex 83.5043 3.09093 21
      vertex 83.109 3.19243 0
      vertex 83.5043 3.09093 0
    endloop
  endfacet
  facet normal -0.587778 -0.809022 0
    outer loop
      vertex 84.2414 2.74407 0
      vertex 84.5716 2.50417 21
      vertex 84.2414 2.74407 21
    endloop
  endfacet
  facet normal -0.587778 -0.809022 -0
    outer loop
      vertex 84.5716 2.50417 21
      vertex 84.2414 2.74407 0
      vertex 84.5716 2.50417 0
    endloop
  endfacet
  facet normal 0.951071 -0.308972 0
    outer loop
      vertex 79.3521 0.808242 21
      vertex 79.4782 1.1964 0
      vertex 79.4782 1.1964 21
    endloop
  endfacet
  facet normal 0.951071 -0.308972 0
    outer loop
      vertex 79.4782 1.1964 0
      vertex 79.3521 0.808242 21
      vertex 79.3521 0.808242 0
    endloop
  endfacet
  facet normal 0.904808 -0.425821 0
    outer loop
      vertex 79.4782 1.1964 21
      vertex 79.652 1.5657 0
      vertex 79.652 1.5657 21
    endloop
  endfacet
  facet normal 0.904808 -0.425821 0
    outer loop
      vertex 79.652 1.5657 0
      vertex 79.4782 1.1964 21
      vertex 79.4782 1.1964 0
    endloop
  endfacet
  facet normal 0.998031 -0.0627242 0
    outer loop
      vertex 79.25 0 21
      vertex 79.2756 0.407332 0
      vertex 79.2756 0.407332 21
    endloop
  endfacet
  facet normal 0.998031 -0.0627242 0
    outer loop
      vertex 79.2756 0.407332 0
      vertex 79.25 0 21
      vertex 79.25 0 0
    endloop
  endfacet
  facet normal 0.587778 -0.809022 0
    outer loop
      vertex 80.4284 2.50417 0
      vertex 80.7586 2.74407 21
      vertex 80.4284 2.50417 21
    endloop
  endfacet
  facet normal 0.587778 -0.809022 0
    outer loop
      vertex 80.7586 2.74407 21
      vertex 80.4284 2.50417 0
      vertex 80.7586 2.74407 0
    endloop
  endfacet
  facet normal -0.368093 0.929789 0
    outer loop
      vertex 83.8838 -2.94069 0
      vertex 83.5043 -3.09093 21
      vertex 83.8838 -2.94069 21
    endloop
  endfacet
  facet normal -0.368093 0.929789 0
    outer loop
      vertex 83.5043 -3.09093 21
      vertex 83.8838 -2.94069 0
      vertex 83.5043 -3.09093 0
    endloop
  endfacet
  facet normal -0.770466 0.637481 0
    outer loop
      vertex 84.8691 -2.22478 0
      vertex 85.1293 -1.9103 21
      vertex 85.1293 -1.9103 0
    endloop
  endfacet
  facet normal -0.770466 0.637481 0
    outer loop
      vertex 85.1293 -1.9103 21
      vertex 84.8691 -2.22478 0
      vertex 84.8691 -2.22478 21
    endloop
  endfacet
  facet normal -0.587778 0.809022 0
    outer loop
      vertex 84.5716 -2.50417 0
      vertex 84.2414 -2.74407 21
      vertex 84.5716 -2.50417 21
    endloop
  endfacet
  facet normal -0.587778 0.809022 0
    outer loop
      vertex 84.2414 -2.74407 21
      vertex 84.5716 -2.50417 0
      vertex 84.2414 -2.74407 0
    endloop
  endfacet
  facet normal -0.844317 0.535845 0
    outer loop
      vertex 85.1293 -1.9103 0
      vertex 85.348 -1.5657 21
      vertex 85.348 -1.5657 0
    endloop
  endfacet
  facet normal -0.844317 0.535845 0
    outer loop
      vertex 85.348 -1.5657 21
      vertex 85.1293 -1.9103 0
      vertex 85.1293 -1.9103 21
    endloop
  endfacet
  facet normal 0.587778 0.809022 -0
    outer loop
      vertex 80.7586 -2.74407 0
      vertex 80.4284 -2.50417 21
      vertex 80.7586 -2.74407 21
    endloop
  endfacet
  facet normal 0.587778 0.809022 0
    outer loop
      vertex 80.4284 -2.50417 21
      vertex 80.7586 -2.74407 0
      vertex 80.4284 -2.50417 0
    endloop
  endfacet
  facet normal 0.2487 0.968581 -0
    outer loop
      vertex 81.891 -3.19243 0
      vertex 81.4957 -3.09093 21
      vertex 81.891 -3.19243 21
    endloop
  endfacet
  facet normal 0.2487 0.968581 0
    outer loop
      vertex 81.4957 -3.09093 21
      vertex 81.891 -3.19243 0
      vertex 81.4957 -3.09093 0
    endloop
  endfacet
  facet normal 0.844317 0.535845 0
    outer loop
      vertex 79.8707 -1.9103 21
      vertex 79.652 -1.5657 0
      vertex 79.652 -1.5657 21
    endloop
  endfacet
  facet normal 0.844317 0.535845 0
    outer loop
      vertex 79.652 -1.5657 0
      vertex 79.8707 -1.9103 21
      vertex 79.8707 -1.9103 0
    endloop
  endfacet
  facet normal 0.998031 0.0627242 0
    outer loop
      vertex 79.2756 -0.407332 21
      vertex 79.25 0 0
      vertex 79.25 0 21
    endloop
  endfacet
  facet normal 0.998031 0.0627242 0
    outer loop
      vertex 79.25 0 0
      vertex 79.2756 -0.407332 21
      vertex 79.2756 -0.407332 0
    endloop
  endfacet
  facet normal 0.125356 -0.992112 0
    outer loop
      vertex 81.891 3.19243 0
      vertex 82.2959 3.24359 21
      vertex 81.891 3.19243 21
    endloop
  endfacet
  facet normal 0.125356 -0.992112 0
    outer loop
      vertex 82.2959 3.24359 21
      vertex 81.891 3.19243 0
      vertex 82.2959 3.24359 0
    endloop
  endfacet
  facet normal 0.368093 -0.929789 0
    outer loop
      vertex 81.1162 2.94069 0
      vertex 81.4957 3.09093 21
      vertex 81.1162 2.94069 21
    endloop
  endfacet
  facet normal 0.368093 -0.929789 0
    outer loop
      vertex 81.4957 3.09093 21
      vertex 81.1162 2.94069 0
      vertex 81.4957 3.09093 0
    endloop
  endfacet
  facet normal 0.2487 -0.968581 0
    outer loop
      vertex 81.4957 3.09093 0
      vertex 81.891 3.19243 21
      vertex 81.4957 3.09093 21
    endloop
  endfacet
  facet normal 0.2487 -0.968581 0
    outer loop
      vertex 81.891 3.19243 21
      vertex 81.4957 3.09093 0
      vertex 81.891 3.19243 0
    endloop
  endfacet
  facet normal -0.125356 0.992112 0
    outer loop
      vertex 83.109 -3.19243 0
      vertex 82.7041 -3.24359 21
      vertex 83.109 -3.19243 21
    endloop
  endfacet
  facet normal -0.125356 0.992112 0
    outer loop
      vertex 82.7041 -3.24359 21
      vertex 83.109 -3.19243 0
      vertex 82.7041 -3.24359 0
    endloop
  endfacet
  facet normal -0.2487 0.968581 0
    outer loop
      vertex 83.5043 -3.09093 0
      vertex 83.109 -3.19243 21
      vertex 83.5043 -3.09093 21
    endloop
  endfacet
  facet normal -0.2487 0.968581 0
    outer loop
      vertex 83.109 -3.19243 21
      vertex 83.5043 -3.09093 0
      vertex 83.109 -3.19243 0
    endloop
  endfacet
  facet normal -0.684572 0.728946 0
    outer loop
      vertex 84.8691 -2.22478 0
      vertex 84.5716 -2.50417 21
      vertex 84.8691 -2.22478 21
    endloop
  endfacet
  facet normal -0.684572 0.728946 0
    outer loop
      vertex 84.5716 -2.50417 21
      vertex 84.8691 -2.22478 0
      vertex 84.5716 -2.50417 0
    endloop
  endfacet
  facet normal -0.951071 0.308972 0
    outer loop
      vertex 85.5218 -1.1964 0
      vertex 85.6479 -0.808242 21
      vertex 85.6479 -0.808242 0
    endloop
  endfacet
  facet normal -0.951071 0.308972 0
    outer loop
      vertex 85.6479 -0.808242 21
      vertex 85.5218 -1.1964 0
      vertex 85.5218 -1.1964 21
    endloop
  endfacet
  facet normal -0.998031 0.0627242 0
    outer loop
      vertex 85.7244 -0.407332 0
      vertex 85.75 0 21
      vertex 85.75 0 0
    endloop
  endfacet
  facet normal -0.998031 0.0627242 0
    outer loop
      vertex 85.75 0 21
      vertex 85.7244 -0.407332 0
      vertex 85.7244 -0.407332 21
    endloop
  endfacet
  facet normal 0.125356 0.992112 -0
    outer loop
      vertex 82.2959 -3.24359 0
      vertex 81.891 -3.19243 21
      vertex 82.2959 -3.24359 21
    endloop
  endfacet
  facet normal 0.125356 0.992112 0
    outer loop
      vertex 81.891 -3.19243 21
      vertex 82.2959 -3.24359 0
      vertex 81.891 -3.19243 0
    endloop
  endfacet
  facet normal 0.481806 0.876278 -0
    outer loop
      vertex 81.1162 -2.94069 0
      vertex 80.7586 -2.74407 21
      vertex 81.1162 -2.94069 21
    endloop
  endfacet
  facet normal 0.481806 0.876278 0
    outer loop
      vertex 80.7586 -2.74407 21
      vertex 81.1162 -2.94069 0
      vertex 80.7586 -2.74407 0
    endloop
  endfacet
  facet normal 0 1 -0
    outer loop
      vertex 82.7041 -3.24359 0
      vertex 82.2959 -3.24359 21
      vertex 82.7041 -3.24359 21
    endloop
  endfacet
  facet normal 0 1 0
    outer loop
      vertex 82.2959 -3.24359 21
      vertex 82.7041 -3.24359 0
      vertex 82.2959 -3.24359 0
    endloop
  endfacet
  facet normal 0.684572 0.728946 -0
    outer loop
      vertex 80.4284 -2.50417 0
      vertex 80.1309 -2.22478 21
      vertex 80.4284 -2.50417 21
    endloop
  endfacet
  facet normal 0.684572 0.728946 0
    outer loop
      vertex 80.1309 -2.22478 21
      vertex 80.4284 -2.50417 0
      vertex 80.1309 -2.22478 0
    endloop
  endfacet
  facet normal 0.904808 0.425821 0
    outer loop
      vertex 79.652 -1.5657 21
      vertex 79.4782 -1.1964 0
      vertex 79.4782 -1.1964 21
    endloop
  endfacet
  facet normal 0.904808 0.425821 0
    outer loop
      vertex 79.4782 -1.1964 0
      vertex 79.652 -1.5657 21
      vertex 79.652 -1.5657 0
    endloop
  endfacet
  facet normal 0.982277 0.187434 0
    outer loop
      vertex 79.3521 -0.808242 21
      vertex 79.2756 -0.407332 0
      vertex 79.2756 -0.407332 21
    endloop
  endfacet
  facet normal 0.982277 0.187434 0
    outer loop
      vertex 79.2756 -0.407332 0
      vertex 79.3521 -0.808242 21
      vertex 79.3521 -0.808242 0
    endloop
  endfacet
  facet normal -0.982277 -0.187434 0
    outer loop
      vertex 85.7244 0.407332 0
      vertex 85.6479 0.808242 21
      vertex 85.6479 0.808242 0
    endloop
  endfacet
  facet normal -0.982277 -0.187434 0
    outer loop
      vertex 85.6479 0.808242 21
      vertex 85.7244 0.407332 0
      vertex 85.7244 0.407332 21
    endloop
  endfacet
  facet normal -0.770466 -0.637481 0
    outer loop
      vertex 85.1293 1.9103 0
      vertex 84.8691 2.22478 21
      vertex 84.8691 2.22478 0
    endloop
  endfacet
  facet normal -0.770466 -0.637481 0
    outer loop
      vertex 84.8691 2.22478 21
      vertex 85.1293 1.9103 0
      vertex 85.1293 1.9103 21
    endloop
  endfacet
  facet normal -0.125356 -0.992112 0
    outer loop
      vertex 82.7041 3.24359 0
      vertex 83.109 3.19243 21
      vertex 82.7041 3.24359 21
    endloop
  endfacet
  facet normal -0.125356 -0.992112 -0
    outer loop
      vertex 83.109 3.19243 21
      vertex 82.7041 3.24359 0
      vertex 83.109 3.19243 0
    endloop
  endfacet
  facet normal -0.481806 -0.876278 0
    outer loop
      vertex 83.8838 2.94069 0
      vertex 84.2414 2.74407 21
      vertex 83.8838 2.94069 21
    endloop
  endfacet
  facet normal -0.481806 -0.876278 -0
    outer loop
      vertex 84.2414 2.74407 21
      vertex 83.8838 2.94069 0
      vertex 84.2414 2.74407 0
    endloop
  endfacet
  facet normal 0.844317 -0.535845 0
    outer loop
      vertex 79.652 1.5657 21
      vertex 79.8707 1.9103 0
      vertex 79.8707 1.9103 21
    endloop
  endfacet
  facet normal 0.844317 -0.535845 0
    outer loop
      vertex 79.8707 1.9103 0
      vertex 79.652 1.5657 21
      vertex 79.652 1.5657 0
    endloop
  endfacet
  facet normal 0.982277 -0.187434 0
    outer loop
      vertex 79.2756 0.407332 21
      vertex 79.3521 0.808242 0
      vertex 79.3521 0.808242 21
    endloop
  endfacet
  facet normal 0.982277 -0.187434 0
    outer loop
      vertex 79.3521 0.808242 0
      vertex 79.2756 0.407332 21
      vertex 79.2756 0.407332 0
    endloop
  endfacet
  facet normal 0.684572 -0.728946 0
    outer loop
      vertex 80.1309 2.22478 0
      vertex 80.4284 2.50417 21
      vertex 80.1309 2.22478 21
    endloop
  endfacet
  facet normal 0.684572 -0.728946 0
    outer loop
      vertex 80.4284 2.50417 21
      vertex 80.1309 2.22478 0
      vertex 80.4284 2.50417 0
    endloop
  endfacet
  facet normal -0.481806 0.876278 0
    outer loop
      vertex 84.2414 -2.74407 0
      vertex 83.8838 -2.94069 21
      vertex 84.2414 -2.74407 21
    endloop
  endfacet
  facet normal -0.481806 0.876278 0
    outer loop
      vertex 83.8838 -2.94069 21
      vertex 84.2414 -2.74407 0
      vertex 83.8838 -2.94069 0
    endloop
  endfacet
  facet normal -0.982277 0.187434 0
    outer loop
      vertex 85.6479 -0.808242 0
      vertex 85.7244 -0.407332 21
      vertex 85.7244 -0.407332 0
    endloop
  endfacet
  facet normal -0.982277 0.187434 0
    outer loop
      vertex 85.7244 -0.407332 21
      vertex 85.6479 -0.808242 0
      vertex 85.6479 -0.808242 21
    endloop
  endfacet
  facet normal -0.904808 0.425821 0
    outer loop
      vertex 85.348 -1.5657 0
      vertex 85.5218 -1.1964 21
      vertex 85.5218 -1.1964 0
    endloop
  endfacet
  facet normal -0.904808 0.425821 0
    outer loop
      vertex 85.5218 -1.1964 21
      vertex 85.348 -1.5657 0
      vertex 85.348 -1.5657 21
    endloop
  endfacet
  facet normal 0.368093 0.929789 -0
    outer loop
      vertex 81.4957 -3.09093 0
      vertex 81.1162 -2.94069 21
      vertex 81.4957 -3.09093 21
    endloop
  endfacet
  facet normal 0.368093 0.929789 0
    outer loop
      vertex 81.1162 -2.94069 21
      vertex 81.4957 -3.09093 0
      vertex 81.1162 -2.94069 0
    endloop
  endfacet
  facet normal 0.951071 0.308972 0
    outer loop
      vertex 79.4782 -1.1964 21
      vertex 79.3521 -0.808242 0
      vertex 79.3521 -0.808242 21
    endloop
  endfacet
  facet normal 0.951071 0.308972 0
    outer loop
      vertex 79.3521 -0.808242 0
      vertex 79.4782 -1.1964 21
      vertex 79.4782 -1.1964 0
    endloop
  endfacet
  facet normal -1 0 0
    outer loop
      vertex -89.5 -2 0
      vertex -89.5 2 21
      vertex -89.5 2 0
    endloop
  endfacet
  facet normal -1 -0 0
    outer loop
      vertex -89.5 2 21
      vertex -89.5 -2 0
      vertex -89.5 -2 21
    endloop
  endfacet
  facet normal -0.998029 -0.0627481 0
    outer loop
      vertex -89.4606 -2.62667 0
      vertex -89.5 -2 21
      vertex -89.5 -2 0
    endloop
  endfacet
  facet normal -0.998029 -0.0627481 0
    outer loop
      vertex -89.5 -2 21
      vertex -89.4606 -2.62667 0
      vertex -89.4606 -2.62667 21
    endloop
  endfacet
  facet normal -0.125313 -0.992117 0
    outer loop
      vertex -85.4369 -6.91144 0
      vertex -84.8139 -6.99013 21
      vertex -85.4369 -6.91144 21
    endloop
  endfacet
  facet normal -0.125313 -0.992117 -0
    outer loop
      vertex -84.8139 -6.99013 21
      vertex -85.4369 -6.91144 0
      vertex -84.8139 -6.99013 0
    endloop
  endfacet
  facet normal 0 1 -0
    outer loop
      vertex 84.8139 6.99013 0
      vertex -84.8139 6.99013 21
      vertex 84.8139 6.99013 21
    endloop
  endfacet
  facet normal 0 1 0
    outer loop
      vertex -84.8139 6.99013 21
      vertex 84.8139 6.99013 0
      vertex -84.8139 6.99013 0
    endloop
  endfacet
  facet normal 0 -1 0
    outer loop
      vertex -84.8139 -6.99013 0
      vertex 84.8139 -6.99013 21
      vertex -84.8139 -6.99013 21
    endloop
  endfacet
  facet normal 0 -1 -0
    outer loop
      vertex 84.8139 -6.99013 21
      vertex -84.8139 -6.99013 0
      vertex 84.8139 -6.99013 0
    endloop
  endfacet
  facet normal 0.481772 -0.876297 0
    outer loop
      vertex 86.6289 -6.52413 0
      vertex 87.1791 -6.22164 21
      vertex 86.6289 -6.52413 21
    endloop
  endfacet
  facet normal 0.481772 -0.876297 0
    outer loop
      vertex 87.1791 -6.22164 21
      vertex 86.6289 -6.52413 0
      vertex 87.1791 -6.22164 0
    endloop
  endfacet
  facet normal -0.998029 0.0627481 0
    outer loop
      vertex -89.5 2 0
      vertex -89.4606 2.62667 21
      vertex -89.4606 2.62667 0
    endloop
  endfacet
  facet normal -0.998029 0.0627481 0
    outer loop
      vertex -89.4606 2.62667 21
      vertex -89.5 2 0
      vertex -89.5 2 21
    endloop
  endfacet
  facet normal 0.904797 -0.425843 0
    outer loop
      vertex 88.8815 -4.40877 21
      vertex 89.1489 -3.84062 0
      vertex 89.1489 -3.84062 21
    endloop
  endfacet
  facet normal 0.904797 -0.425843 0
    outer loop
      vertex 89.1489 -3.84062 0
      vertex 88.8815 -4.40877 21
      vertex 88.8815 -4.40877 0
    endloop
  endfacet
  facet normal -0.481772 -0.876297 0
    outer loop
      vertex -87.1791 -6.22164 0
      vertex -86.6289 -6.52413 21
      vertex -87.1791 -6.22164 21
    endloop
  endfacet
  facet normal -0.481772 -0.876297 -0
    outer loop
      vertex -86.6289 -6.52413 21
      vertex -87.1791 -6.22164 0
      vertex -86.6289 -6.52413 0
    endloop
  endfacet
  facet normal -0.368135 -0.929773 0
    outer loop
      vertex -86.6289 -6.52413 0
      vertex -86.0451 -6.75528 21
      vertex -86.6289 -6.52413 21
    endloop
  endfacet
  facet normal -0.368135 -0.929773 -0
    outer loop
      vertex -86.0451 -6.75528 21
      vertex -86.6289 -6.52413 0
      vertex -86.0451 -6.75528 0
    endloop
  endfacet
  facet normal -0.684565 -0.728952 0
    outer loop
      vertex -88.1448 -5.42274 0
      vertex -87.6871 -5.85257 21
      vertex -88.1448 -5.42274 21
    endloop
  endfacet
  facet normal -0.684565 -0.728952 -0
    outer loop
      vertex -87.6871 -5.85257 21
      vertex -88.1448 -5.42274 0
      vertex -87.6871 -5.85257 0
    endloop
  endfacet
  facet normal 1 -0 0
    outer loop
      vertex 89.5 -2 21
      vertex 89.5 2 0
      vertex 89.5 2 21
    endloop
  endfacet
  facet normal 1 0 0
    outer loop
      vertex 89.5 2 0
      vertex 89.5 -2 21
      vertex 89.5 -2 0
    endloop
  endfacet
  facet normal 0.951072 -0.30897 0
    outer loop
      vertex 89.1489 -3.84062 21
      vertex 89.3429 -3.24345 0
      vertex 89.3429 -3.24345 21
    endloop
  endfacet
  facet normal 0.951072 -0.30897 0
    outer loop
      vertex 89.3429 -3.24345 0
      vertex 89.1489 -3.84062 21
      vertex 89.1489 -3.84062 0
    endloop
  endfacet
  facet normal 0.904797 0.425843 0
    outer loop
      vertex 89.1489 3.84062 21
      vertex 88.8815 4.40877 0
      vertex 88.8815 4.40877 21
    endloop
  endfacet
  facet normal 0.904797 0.425843 0
    outer loop
      vertex 88.8815 4.40877 0
      vertex 89.1489 3.84062 21
      vertex 89.1489 3.84062 0
    endloop
  endfacet
  facet normal 0.951072 0.30897 0
    outer loop
      vertex 89.3429 3.24345 21
      vertex 89.1489 3.84062 0
      vertex 89.1489 3.84062 21
    endloop
  endfacet
  facet normal 0.951072 0.30897 0
    outer loop
      vertex 89.1489 3.84062 0
      vertex 89.3429 3.24345 21
      vertex 89.3429 3.24345 0
    endloop
  endfacet
  facet normal 0.684565 0.728952 -0
    outer loop
      vertex 88.1448 5.42274 0
      vertex 87.6871 5.85257 21
      vertex 88.1448 5.42274 21
    endloop
  endfacet
  facet normal 0.684565 0.728952 0
    outer loop
      vertex 87.6871 5.85257 21
      vertex 88.1448 5.42274 0
      vertex 87.6871 5.85257 0
    endloop
  endfacet
  facet normal 0.368135 0.929773 -0
    outer loop
      vertex 86.6289 6.52413 0
      vertex 86.0451 6.75528 21
      vertex 86.6289 6.52413 21
    endloop
  endfacet
  facet normal 0.368135 0.929773 0
    outer loop
      vertex 86.0451 6.75528 21
      vertex 86.6289 6.52413 0
      vertex 86.0451 6.75528 0
    endloop
  endfacet
  facet normal 0.248691 0.968583 -0
    outer loop
      vertex 86.0451 6.75528 0
      vertex 85.4369 6.91144 21
      vertex 86.0451 6.75528 21
    endloop
  endfacet
  facet normal 0.248691 0.968583 0
    outer loop
      vertex 85.4369 6.91144 21
      vertex 86.0451 6.75528 0
      vertex 85.4369 6.91144 0
    endloop
  endfacet
  facet normal 0.125313 0.992117 -0
    outer loop
      vertex 85.4369 6.91144 0
      vertex 84.8139 6.99013 21
      vertex 85.4369 6.91144 21
    endloop
  endfacet
  facet normal 0.125313 0.992117 0
    outer loop
      vertex 84.8139 6.99013 21
      vertex 85.4369 6.91144 0
      vertex 84.8139 6.99013 0
    endloop
  endfacet
  facet normal -0.587771 0.809027 0
    outer loop
      vertex -87.1791 6.22164 0
      vertex -87.6871 5.85257 21
      vertex -87.1791 6.22164 21
    endloop
  endfacet
  facet normal -0.587771 0.809027 0
    outer loop
      vertex -87.6871 5.85257 21
      vertex -87.1791 6.22164 0
      vertex -87.6871 5.85257 0
    endloop
  endfacet
  facet normal -0.248691 0.968583 0
    outer loop
      vertex -85.4369 6.91144 0
      vertex -86.0451 6.75528 21
      vertex -85.4369 6.91144 21
    endloop
  endfacet
  facet normal -0.248691 0.968583 0
    outer loop
      vertex -86.0451 6.75528 21
      vertex -85.4369 6.91144 0
      vertex -86.0451 6.75528 0
    endloop
  endfacet
  facet normal -0.951072 -0.30897 0
    outer loop
      vertex -89.1489 -3.84062 0
      vertex -89.3429 -3.24345 21
      vertex -89.3429 -3.24345 0
    endloop
  endfacet
  facet normal -0.951072 -0.30897 0
    outer loop
      vertex -89.3429 -3.24345 21
      vertex -89.1489 -3.84062 0
      vertex -89.1489 -3.84062 21
    endloop
  endfacet
  facet normal -0.770468 -0.637478 0
    outer loop
      vertex -88.1448 -5.42274 0
      vertex -88.5451 -4.93893 21
      vertex -88.5451 -4.93893 0
    endloop
  endfacet
  facet normal -0.770468 -0.637478 0
    outer loop
      vertex -88.5451 -4.93893 21
      vertex -88.1448 -5.42274 0
      vertex -88.1448 -5.42274 21
    endloop
  endfacet
  facet normal -0.904797 -0.425843 0
    outer loop
      vertex -88.8815 -4.40877 0
      vertex -89.1489 -3.84062 21
      vertex -89.1489 -3.84062 0
    endloop
  endfacet
  facet normal -0.904797 -0.425843 0
    outer loop
      vertex -89.1489 -3.84062 21
      vertex -88.8815 -4.40877 0
      vertex -88.8815 -4.40877 21
    endloop
  endfacet
  facet normal -0.248691 -0.968583 0
    outer loop
      vertex -86.0451 -6.75528 0
      vertex -85.4369 -6.91144 21
      vertex -86.0451 -6.75528 21
    endloop
  endfacet
  facet normal -0.248691 -0.968583 -0
    outer loop
      vertex -85.4369 -6.91144 21
      vertex -86.0451 -6.75528 0
      vertex -85.4369 -6.91144 0
    endloop
  endfacet
  facet normal -0.587771 -0.809027 0
    outer loop
      vertex -87.6871 -5.85257 0
      vertex -87.1791 -6.22164 21
      vertex -87.6871 -5.85257 21
    endloop
  endfacet
  facet normal -0.587771 -0.809027 -0
    outer loop
      vertex -87.1791 -6.22164 21
      vertex -87.6871 -5.85257 0
      vertex -87.1791 -6.22164 0
    endloop
  endfacet
  facet normal 0.998029 -0.0627481 0
    outer loop
      vertex 89.4606 -2.62667 21
      vertex 89.5 -2 0
      vertex 89.5 -2 21
    endloop
  endfacet
  facet normal 0.998029 -0.0627481 0
    outer loop
      vertex 89.5 -2 0
      vertex 89.4606 -2.62667 21
      vertex 89.4606 -2.62667 0
    endloop
  endfacet
  facet normal 0.844364 -0.53577 0
    outer loop
      vertex 88.5451 -4.93893 21
      vertex 88.8815 -4.40877 0
      vertex 88.8815 -4.40877 21
    endloop
  endfacet
  facet normal 0.844364 -0.53577 0
    outer loop
      vertex 88.8815 -4.40877 0
      vertex 88.5451 -4.93893 21
      vertex 88.5451 -4.93893 0
    endloop
  endfacet
  facet normal 0.587771 -0.809027 0
    outer loop
      vertex 87.1791 -6.22164 0
      vertex 87.6871 -5.85257 21
      vertex 87.1791 -6.22164 21
    endloop
  endfacet
  facet normal 0.587771 -0.809027 0
    outer loop
      vertex 87.6871 -5.85257 21
      vertex 87.1791 -6.22164 0
      vertex 87.6871 -5.85257 0
    endloop
  endfacet
  facet normal 0.770468 -0.637478 0
    outer loop
      vertex 88.1448 -5.42274 21
      vertex 88.5451 -4.93893 0
      vertex 88.5451 -4.93893 21
    endloop
  endfacet
  facet normal 0.770468 -0.637478 0
    outer loop
      vertex 88.5451 -4.93893 0
      vertex 88.1448 -5.42274 21
      vertex 88.1448 -5.42274 0
    endloop
  endfacet
  facet normal 0.368135 -0.929773 0
    outer loop
      vertex 86.0451 -6.75528 0
      vertex 86.6289 -6.52413 21
      vertex 86.0451 -6.75528 21
    endloop
  endfacet
  facet normal 0.368135 -0.929773 0
    outer loop
      vertex 86.6289 -6.52413 21
      vertex 86.0451 -6.75528 0
      vertex 86.6289 -6.52413 0
    endloop
  endfacet
  facet normal 0.125313 -0.992117 0
    outer loop
      vertex 84.8139 -6.99013 0
      vertex 85.4369 -6.91144 21
      vertex 84.8139 -6.99013 21
    endloop
  endfacet
  facet normal 0.125313 -0.992117 0
    outer loop
      vertex 85.4369 -6.91144 21
      vertex 84.8139 -6.99013 0
      vertex 85.4369 -6.91144 0
    endloop
  endfacet
  facet normal 0.770468 0.637478 0
    outer loop
      vertex 88.5451 4.93893 21
      vertex 88.1448 5.42274 0
      vertex 88.1448 5.42274 21
    endloop
  endfacet
  facet normal 0.770468 0.637478 0
    outer loop
      vertex 88.1448 5.42274 0
      vertex 88.5451 4.93893 21
      vertex 88.5451 4.93893 0
    endloop
  endfacet
  facet normal 0.844364 0.53577 0
    outer loop
      vertex 88.8815 4.40877 21
      vertex 88.5451 4.93893 0
      vertex 88.5451 4.93893 21
    endloop
  endfacet
  facet normal 0.844364 0.53577 0
    outer loop
      vertex 88.5451 4.93893 0
      vertex 88.8815 4.40877 21
      vertex 88.8815 4.40877 0
    endloop
  endfacet
  facet normal 0.587771 0.809027 -0
    outer loop
      vertex 87.6871 5.85257 0
      vertex 87.1791 6.22164 21
      vertex 87.6871 5.85257 21
    endloop
  endfacet
  facet normal 0.587771 0.809027 0
    outer loop
      vertex 87.1791 6.22164 21
      vertex 87.6871 5.85257 0
      vertex 87.1791 6.22164 0
    endloop
  endfacet
  facet normal 0.481772 0.876297 -0
    outer loop
      vertex 87.1791 6.22164 0
      vertex 86.6289 6.52413 21
      vertex 87.1791 6.22164 21
    endloop
  endfacet
  facet normal 0.481772 0.876297 0
    outer loop
      vertex 86.6289 6.52413 21
      vertex 87.1791 6.22164 0
      vertex 86.6289 6.52413 0
    endloop
  endfacet
  facet normal -0.125313 0.992117 0
    outer loop
      vertex -84.8139 6.99013 0
      vertex -85.4369 6.91144 21
      vertex -84.8139 6.99013 21
    endloop
  endfacet
  facet normal -0.125313 0.992117 0
    outer loop
      vertex -85.4369 6.91144 21
      vertex -84.8139 6.99013 0
      vertex -85.4369 6.91144 0
    endloop
  endfacet
  facet normal -0.368135 0.929773 0
    outer loop
      vertex -86.0451 6.75528 0
      vertex -86.6289 6.52413 21
      vertex -86.0451 6.75528 21
    endloop
  endfacet
  facet normal -0.368135 0.929773 0
    outer loop
      vertex -86.6289 6.52413 21
      vertex -86.0451 6.75528 0
      vertex -86.6289 6.52413 0
    endloop
  endfacet
  facet normal -0.982275 0.187447 0
    outer loop
      vertex -89.4606 2.62667 0
      vertex -89.3429 3.24345 21
      vertex -89.3429 3.24345 0
    endloop
  endfacet
  facet normal -0.982275 0.187447 0
    outer loop
      vertex -89.3429 3.24345 21
      vertex -89.4606 2.62667 0
      vertex -89.4606 2.62667 21
    endloop
  endfacet
  facet normal -0.951072 0.30897 0
    outer loop
      vertex -89.3429 3.24345 0
      vertex -89.1489 3.84062 21
      vertex -89.1489 3.84062 0
    endloop
  endfacet
  facet normal -0.951072 0.30897 0
    outer loop
      vertex -89.1489 3.84062 21
      vertex -89.3429 3.24345 0
      vertex -89.3429 3.24345 21
    endloop
  endfacet
  facet normal -0.982275 -0.187447 0
    outer loop
      vertex -89.3429 -3.24345 0
      vertex -89.4606 -2.62667 21
      vertex -89.4606 -2.62667 0
    endloop
  endfacet
  facet normal -0.982275 -0.187447 0
    outer loop
      vertex -89.4606 -2.62667 21
      vertex -89.3429 -3.24345 0
      vertex -89.3429 -3.24345 21
    endloop
  endfacet
  facet normal -0.844364 -0.53577 0
    outer loop
      vertex -88.5451 -4.93893 0
      vertex -88.8815 -4.40877 21
      vertex -88.8815 -4.40877 0
    endloop
  endfacet
  facet normal -0.844364 -0.53577 0
    outer loop
      vertex -88.8815 -4.40877 21
      vertex -88.5451 -4.93893 0
      vertex -88.5451 -4.93893 21
    endloop
  endfacet
  facet normal 0.982275 -0.187447 0
    outer loop
      vertex 89.3429 -3.24345 21
      vertex 89.4606 -2.62667 0
      vertex 89.4606 -2.62667 21
    endloop
  endfacet
  facet normal 0.982275 -0.187447 0
    outer loop
      vertex 89.4606 -2.62667 0
      vertex 89.3429 -3.24345 21
      vertex 89.3429 -3.24345 0
    endloop
  endfacet
  facet normal 0.684565 -0.728952 0
    outer loop
      vertex 87.6871 -5.85257 0
      vertex 88.1448 -5.42274 21
      vertex 87.6871 -5.85257 21
    endloop
  endfacet
  facet normal 0.684565 -0.728952 0
    outer loop
      vertex 88.1448 -5.42274 21
      vertex 87.6871 -5.85257 0
      vertex 88.1448 -5.42274 0
    endloop
  endfacet
  facet normal 0.248691 -0.968583 0
    outer loop
      vertex 85.4369 -6.91144 0
      vertex 86.0451 -6.75528 21
      vertex 85.4369 -6.91144 21
    endloop
  endfacet
  facet normal 0.248691 -0.968583 0
    outer loop
      vertex 86.0451 -6.75528 21
      vertex 85.4369 -6.91144 0
      vertex 86.0451 -6.75528 0
    endloop
  endfacet
  facet normal -0.684565 0.728952 0
    outer loop
      vertex -87.6871 5.85257 0
      vertex -88.1448 5.42274 21
      vertex -87.6871 5.85257 21
    endloop
  endfacet
  facet normal -0.684565 0.728952 0
    outer loop
      vertex -88.1448 5.42274 21
      vertex -87.6871 5.85257 0
      vertex -88.1448 5.42274 0
    endloop
  endfacet
  facet normal -0.844364 0.53577 0
    outer loop
      vertex -88.8815 4.40877 0
      vertex -88.5451 4.93893 21
      vertex -88.5451 4.93893 0
    endloop
  endfacet
  facet normal -0.844364 0.53577 0
    outer loop
      vertex -88.5451 4.93893 21
      vertex -88.8815 4.40877 0
      vertex -88.8815 4.40877 21
    endloop
  endfacet
  facet normal -0.770468 0.637478 0
    outer loop
      vertex -88.5451 4.93893 0
      vertex -88.1448 5.42274 21
      vertex -88.1448 5.42274 0
    endloop
  endfacet
  facet normal -0.770468 0.637478 0
    outer loop
      vertex -88.1448 5.42274 21
      vertex -88.5451 4.93893 0
      vertex -88.5451 4.93893 21
    endloop
  endfacet
  facet normal -0.904797 0.425843 0
    outer loop
      vertex -89.1489 3.84062 0
      vertex -88.8815 4.40877 21
      vertex -88.8815 4.40877 0
    endloop
  endfacet
  facet normal -0.904797 0.425843 0
    outer loop
      vertex -88.8815 4.40877 21
      vertex -89.1489 3.84062 0
      vertex -89.1489 3.84062 21
    endloop
  endfacet
  facet normal 0.982275 0.187447 0
    outer loop
      vertex 89.4606 2.62667 21
      vertex 89.3429 3.24345 0
      vertex 89.3429 3.24345 21
    endloop
  endfacet
  facet normal 0.982275 0.187447 0
    outer loop
      vertex 89.3429 3.24345 0
      vertex 89.4606 2.62667 21
      vertex 89.4606 2.62667 0
    endloop
  endfacet
  facet normal 0.998029 0.0627481 0
    outer loop
      vertex 89.5 2 21
      vertex 89.4606 2.62667 0
      vertex 89.4606 2.62667 21
    endloop
  endfacet
  facet normal 0.998029 0.0627481 0
    outer loop
      vertex 89.4606 2.62667 0
      vertex 89.5 2 21
      vertex 89.5 2 0
    endloop
  endfacet
  facet normal -0.481772 0.876297 0
    outer loop
      vertex -86.6289 6.52413 0
      vertex -87.1791 6.22164 21
      vertex -86.6289 6.52413 21
    endloop
  endfacet
  facet normal -0.481772 0.876297 0
    outer loop
      vertex -87.1791 6.22164 21
      vertex -86.6289 6.52413 0
      vertex -87.1791 6.22164 0
    endloop
  endfacet
endsolid OpenSCAD_Model
