  0
SECTION
  2
BLOCKS
  0
ENDSEC
  0
SECTION
  2
ENTITIES
  0
LINE
  8
0
 10
235.437
 20
-6.91142
 11
236.045
 21
-6.75528
  0
LINE
  8
0
 10
236.045
 20
-6.75528
 11
236.629
 21
-6.52412
  0
LINE
  8
0
 10
236.629
 20
-6.52412
 11
237.179
 21
-6.22163
  0
LINE
  8
0
 10
237.179
 20
-6.22163
 11
237.687
 21
-5.85255
  0
LINE
  8
0
 10
237.687
 20
-5.85255
 11
238.145
 21
-5.42273
  0
LINE
  8
0
 10
238.145
 20
-5.42273
 11
238.545
 21
-4.93892
  0
LINE
  8
0
 10
238.545
 20
-4.93892
 11
238.882
 21
-4.40877
  0
LINE
  8
0
 10
238.882
 20
-4.40877
 11
239.149
 21
-3.84062
  0
LINE
  8
0
 10
239.149
 20
-3.84062
 11
239.343
 21
-3.24344
  0
LINE
  8
0
 10
239.343
 20
-3.24344
 11
239.461
 21
-2.62666
  0
LINE
  8
0
 10
239.461
 20
-2.62666
 11
239.5
 21
-2
  0
LINE
  8
0
 10
239.5
 20
-2
 11
239.5
 21
2
  0
LINE
  8
0
 10
239.5
 20
2
 11
239.461
 21
2.62666
  0
LINE
  8
0
 10
239.461
 20
2.62666
 11
239.343
 21
3.24344
  0
LINE
  8
0
 10
239.343
 20
3.24344
 11
239.149
 21
3.84062
  0
LINE
  8
0
 10
239.149
 20
3.84062
 11
238.882
 21
4.40877
  0
LINE
  8
0
 10
238.882
 20
4.40877
 11
238.545
 21
4.93892
  0
LINE
  8
0
 10
238.545
 20
4.93892
 11
238.145
 21
5.42273
  0
LINE
  8
0
 10
238.145
 20
5.42273
 11
237.687
 21
5.85255
  0
LINE
  8
0
 10
237.687
 20
5.85255
 11
237.179
 21
6.22163
  0
LINE
  8
0
 10
237.179
 20
6.22163
 11
236.629
 21
6.52412
  0
LINE
  8
0
 10
236.629
 20
6.52412
 11
236.045
 21
6.75528
  0
LINE
  8
0
 10
236.045
 20
6.75528
 11
235.437
 21
6.91142
  0
LINE
  8
0
 10
235.437
 20
6.91142
 11
234.814
 21
6.99013
  0
LINE
  8
0
 10
234.814
 20
6.99013
 11
-234.814
 21
6.99013
  0
LINE
  8
0
 10
-234.814
 20
6.99013
 11
-235.437
 21
6.91142
  0
LINE
  8
0
 10
-235.437
 20
6.91142
 11
-236.045
 21
6.75528
  0
LINE
  8
0
 10
-236.045
 20
6.75528
 11
-236.629
 21
6.52412
  0
LINE
  8
0
 10
-236.629
 20
6.52412
 11
-237.179
 21
6.22163
  0
LINE
  8
0
 10
-237.179
 20
6.22163
 11
-237.687
 21
5.85255
  0
LINE
  8
0
 10
-237.687
 20
5.85255
 11
-238.145
 21
5.42273
  0
LINE
  8
0
 10
-238.145
 20
5.42273
 11
-238.545
 21
4.93892
  0
LINE
  8
0
 10
-238.545
 20
4.93892
 11
-238.882
 21
4.40877
  0
LINE
  8
0
 10
-238.882
 20
4.40877
 11
-239.149
 21
3.84062
  0
LINE
  8
0
 10
-239.149
 20
3.84062
 11
-239.343
 21
3.24344
  0
LINE
  8
0
 10
-239.343
 20
3.24344
 11
-239.461
 21
2.62666
  0
LINE
  8
0
 10
-239.461
 20
2.62666
 11
-239.5
 21
2
  0
LINE
  8
0
 10
-239.5
 20
2
 11
-239.5
 21
-2
  0
LINE
  8
0
 10
-239.5
 20
-2
 11
-239.461
 21
-2.62666
  0
LINE
  8
0
 10
-239.461
 20
-2.62666
 11
-239.343
 21
-3.24344
  0
LINE
  8
0
 10
-239.343
 20
-3.24344
 11
-239.149
 21
-3.84062
  0
LINE
  8
0
 10
-239.149
 20
-3.84062
 11
-238.882
 21
-4.40877
  0
LINE
  8
0
 10
-238.882
 20
-4.40877
 11
-238.545
 21
-4.93892
  0
LINE
  8
0
 10
-238.545
 20
-4.93892
 11
-238.145
 21
-5.42273
  0
LINE
  8
0
 10
-238.145
 20
-5.42273
 11
-237.687
 21
-5.85255
  0
LINE
  8
0
 10
-237.687
 20
-5.85255
 11
-237.179
 21
-6.22163
  0
LINE
  8
0
 10
-237.179
 20
-6.22163
 11
-236.629
 21
-6.52412
  0
LINE
  8
0
 10
-236.629
 20
-6.52412
 11
-236.045
 21
-6.75528
  0
LINE
  8
0
 10
-236.045
 20
-6.75528
 11
-235.437
 21
-6.91142
  0
LINE
  8
0
 10
-235.437
 20
-6.91142
 11
-234.814
 21
-6.99013
  0
LINE
  8
0
 10
-234.814
 20
-6.99013
 11
234.814
 21
-6.99013
  0
LINE
  8
0
 10
234.814
 20
-6.99013
 11
235.437
 21
-6.91142
  0
LINE
  8
0
 10
-232.688
 20
-2.99408
 11
-233.062
 21
-2.94685
  0
LINE
  8
0
 10
-233.062
 20
-2.94685
 11
-233.427
 21
-2.85316
  0
LINE
  8
0
 10
-233.427
 20
-2.85316
 11
-233.777
 21
-2.71448
  0
LINE
  8
0
 10
-233.777
 20
-2.71448
 11
-234.107
 21
-2.53297
  0
LINE
  8
0
 10
-234.107
 20
-2.53297
 11
-234.412
 21
-2.31154
  0
LINE
  8
0
 10
-234.412
 20
-2.31154
 11
-234.687
 21
-2.05363
  0
LINE
  8
0
 10
-234.687
 20
-2.05363
 11
-234.927
 21
-1.76335
  0
LINE
  8
0
 10
-234.927
 20
-1.76335
 11
-235.129
 21
-1.44525
  0
LINE
  8
0
 10
-235.129
 20
-1.44525
 11
-235.289
 21
-1.10437
  0
LINE
  8
0
 10
-235.289
 20
-1.10437
 11
-235.406
 21
-0.746063
  0
LINE
  8
0
 10
-235.406
 20
-0.746063
 11
-235.476
 21
-0.375992
  0
LINE
  8
0
 10
-235.476
 20
-0.375992
 11
-235.5
 21
0
  0
LINE
  8
0
 10
-235.5
 20
0
 11
-235.476
 21
0.375992
  0
LINE
  8
0
 10
-235.476
 20
0.375992
 11
-235.406
 21
0.746063
  0
LINE
  8
0
 10
-235.406
 20
0.746063
 11
-235.289
 21
1.10437
  0
LINE
  8
0
 10
-235.289
 20
1.10437
 11
-235.129
 21
1.44525
  0
LINE
  8
0
 10
-235.129
 20
1.44525
 11
-234.927
 21
1.76335
  0
LINE
  8
0
 10
-234.927
 20
1.76335
 11
-234.687
 21
2.05363
  0
LINE
  8
0
 10
-234.687
 20
2.05363
 11
-234.412
 21
2.31154
  0
LINE
  8
0
 10
-234.412
 20
2.31154
 11
-234.107
 21
2.53297
  0
LINE
  8
0
 10
-234.107
 20
2.53297
 11
-233.777
 21
2.71448
  0
LINE
  8
0
 10
-233.777
 20
2.71448
 11
-233.427
 21
2.85316
  0
LINE
  8
0
 10
-233.427
 20
2.85316
 11
-233.062
 21
2.94685
  0
LINE
  8
0
 10
-233.062
 20
2.94685
 11
-232.688
 21
2.99408
  0
LINE
  8
0
 10
-232.688
 20
2.99408
 11
-232.312
 21
2.99408
  0
LINE
  8
0
 10
-232.312
 20
2.99408
 11
-231.938
 21
2.94685
  0
LINE
  8
0
 10
-231.938
 20
2.94685
 11
-231.573
 21
2.85316
  0
LINE
  8
0
 10
-231.573
 20
2.85316
 11
-231.223
 21
2.71448
  0
LINE
  8
0
 10
-231.223
 20
2.71448
 11
-230.893
 21
2.53297
  0
LINE
  8
0
 10
-230.893
 20
2.53297
 11
-230.588
 21
2.31154
  0
LINE
  8
0
 10
-230.588
 20
2.31154
 11
-230.313
 21
2.05363
  0
LINE
  8
0
 10
-230.313
 20
2.05363
 11
-230.073
 21
1.76335
  0
LINE
  8
0
 10
-230.073
 20
1.76335
 11
-229.871
 21
1.44525
  0
LINE
  8
0
 10
-229.871
 20
1.44525
 11
-229.711
 21
1.10437
  0
LINE
  8
0
 10
-229.711
 20
1.10437
 11
-229.594
 21
0.746063
  0
LINE
  8
0
 10
-229.594
 20
0.746063
 11
-229.524
 21
0.375992
  0
LINE
  8
0
 10
-229.524
 20
0.375992
 11
-229.5
 21
0
  0
LINE
  8
0
 10
-229.5
 20
0
 11
-229.524
 21
-0.375992
  0
LINE
  8
0
 10
-229.524
 20
-0.375992
 11
-229.594
 21
-0.746063
  0
LINE
  8
0
 10
-229.594
 20
-0.746063
 11
-229.711
 21
-1.10437
  0
LINE
  8
0
 10
-229.711
 20
-1.10437
 11
-229.871
 21
-1.44525
  0
LINE
  8
0
 10
-229.871
 20
-1.44525
 11
-230.073
 21
-1.76335
  0
LINE
  8
0
 10
-230.073
 20
-1.76335
 11
-230.313
 21
-2.05363
  0
LINE
  8
0
 10
-230.313
 20
-2.05363
 11
-230.588
 21
-2.31154
  0
LINE
  8
0
 10
-230.588
 20
-2.31154
 11
-230.893
 21
-2.53297
  0
LINE
  8
0
 10
-230.893
 20
-2.53297
 11
-231.223
 21
-2.71448
  0
LINE
  8
0
 10
-231.223
 20
-2.71448
 11
-231.573
 21
-2.85316
  0
LINE
  8
0
 10
-231.573
 20
-2.85316
 11
-231.938
 21
-2.94685
  0
LINE
  8
0
 10
-231.938
 20
-2.94685
 11
-232.312
 21
-2.99408
  0
LINE
  8
0
 10
-232.312
 20
-2.99408
 11
-232.688
 21
-2.99408
  0
ENDSEC
  0
SECTION
  2
OBJECTS
  0
DICTIONARY
  0
ENDSEC
  0
EOF
