solid OpenSCAD_Model
  facet normal -0.904619 -0.426222 0
    outer loop
      vertex -116.978 1.1964 0
      vertex -117.152 1.5657 12
      vertex -117.152 1.5657 0
    endloop
  endfacet
  facet normal -0.904619 -0.426222 0
    outer loop
      vertex -117.152 1.5657 12
      vertex -116.978 1.1964 0
      vertex -116.978 1.1964 12
    endloop
  endfacet
  facet normal -0.843984 -0.536368 0
    outer loop
      vertex -117.152 1.5657 0
      vertex -117.371 1.9103 12
      vertex -117.371 1.9103 0
    endloop
  endfacet
  facet normal -0.843984 -0.536368 0
    outer loop
      vertex -117.371 1.9103 12
      vertex -117.152 1.5657 0
      vertex -117.152 1.5657 12
    endloop
  endfacet
  facet normal -0.367675 -0.929954 0
    outer loop
      vertex -118.996 3.09093 0
      vertex -118.616 2.94069 12
      vertex -118.996 3.09093 12
    endloop
  endfacet
  facet normal -0.367675 -0.929954 -0
    outer loop
      vertex -118.616 2.94069 12
      vertex -118.996 3.09093 0
      vertex -118.616 2.94069 0
    endloop
  endfacet
  facet normal 0.367675 -0.929954 0
    outer loop
      vertex -121.384 2.94069 0
      vertex -121.004 3.09093 12
      vertex -121.384 2.94069 12
    endloop
  endfacet
  facet normal 0.367675 -0.929954 0
    outer loop
      vertex -121.004 3.09093 12
      vertex -121.384 2.94069 0
      vertex -121.004 3.09093 0
    endloop
  endfacet
  facet normal 0.904619 -0.426222 0
    outer loop
      vertex -123.022 1.1964 12
      vertex -122.848 1.5657 0
      vertex -122.848 1.5657 12
    endloop
  endfacet
  facet normal 0.904619 -0.426222 0
    outer loop
      vertex -122.848 1.5657 0
      vertex -123.022 1.1964 12
      vertex -123.022 1.1964 0
    endloop
  endfacet
  facet normal -0.982502 0.186252 0
    outer loop
      vertex -116.852 -0.808242 0
      vertex -116.776 -0.407332 12
      vertex -116.776 -0.407332 0
    endloop
  endfacet
  facet normal -0.982502 0.186252 0
    outer loop
      vertex -116.776 -0.407332 12
      vertex -116.852 -0.808242 0
      vertex -116.852 -0.808242 12
    endloop
  endfacet
  facet normal -0.125325 -0.992116 0
    outer loop
      vertex -119.796 3.24359 0
      vertex -119.391 3.19243 12
      vertex -119.796 3.24359 12
    endloop
  endfacet
  facet normal -0.125325 -0.992116 -0
    outer loop
      vertex -119.391 3.19243 12
      vertex -119.796 3.24359 0
      vertex -119.391 3.19243 0
    endloop
  endfacet
  facet normal -0.586847 -0.809698 0
    outer loop
      vertex -118.259 2.74407 0
      vertex -117.928 2.50417 12
      vertex -118.259 2.74407 12
    endloop
  endfacet
  facet normal -0.586847 -0.809698 -0
    outer loop
      vertex -117.928 2.50417 12
      vertex -118.259 2.74407 0
      vertex -117.928 2.50417 0
    endloop
  endfacet
  facet normal 0.982502 -0.186252 0
    outer loop
      vertex -123.224 0.407332 12
      vertex -123.148 0.808242 0
      vertex -123.148 0.808242 12
    endloop
  endfacet
  facet normal 0.982502 -0.186252 0
    outer loop
      vertex -123.148 0.808242 0
      vertex -123.224 0.407332 12
      vertex -123.224 0.407332 0
    endloop
  endfacet
  facet normal 0.770706 -0.63719 0
    outer loop
      vertex -122.629 1.9103 12
      vertex -122.369 2.22478 0
      vertex -122.369 2.22478 12
    endloop
  endfacet
  facet normal 0.770706 -0.63719 0
    outer loop
      vertex -122.369 2.22478 0
      vertex -122.629 1.9103 12
      vertex -122.629 1.9103 0
    endloop
  endfacet
  facet normal 0.482427 -0.875936 0
    outer loop
      vertex -121.741 2.74407 0
      vertex -121.384 2.94069 12
      vertex -121.741 2.74407 12
    endloop
  endfacet
  facet normal 0.482427 -0.875936 0
    outer loop
      vertex -121.384 2.94069 12
      vertex -121.741 2.74407 0
      vertex -121.384 2.94069 0
    endloop
  endfacet
  facet normal 0.125325 -0.992116 0
    outer loop
      vertex -120.609 3.19243 0
      vertex -120.204 3.24359 12
      vertex -120.609 3.19243 12
    endloop
  endfacet
  facet normal 0.125325 -0.992116 0
    outer loop
      vertex -120.204 3.24359 12
      vertex -120.609 3.19243 0
      vertex -120.204 3.24359 0
    endloop
  endfacet
  facet normal -0.997969 -0.0637004 0
    outer loop
      vertex -116.75 0 0
      vertex -116.776 0.407332 12
      vertex -116.776 0.407332 0
    endloop
  endfacet
  facet normal -0.997969 -0.0637004 0
    outer loop
      vertex -116.776 0.407332 12
      vertex -116.75 0 0
      vertex -116.75 0 12
    endloop
  endfacet
  facet normal -0.951143 0.308751 0
    outer loop
      vertex -116.978 -1.1964 0
      vertex -116.852 -0.808242 12
      vertex -116.852 -0.808242 0
    endloop
  endfacet
  facet normal -0.951143 0.308751 0
    outer loop
      vertex -116.852 -0.808242 12
      vertex -116.978 -1.1964 0
      vertex -116.978 -1.1964 12
    endloop
  endfacet
  facet normal -0.586847 0.809698 0
    outer loop
      vertex -117.928 -2.50417 0
      vertex -118.259 -2.74407 12
      vertex -117.928 -2.50417 12
    endloop
  endfacet
  facet normal -0.586847 0.809698 0
    outer loop
      vertex -118.259 -2.74407 12
      vertex -117.928 -2.50417 0
      vertex -118.259 -2.74407 0
    endloop
  endfacet
  facet normal -0.982502 -0.186252 0
    outer loop
      vertex -116.776 0.407332 0
      vertex -116.852 0.808242 12
      vertex -116.852 0.808242 0
    endloop
  endfacet
  facet normal -0.982502 -0.186252 0
    outer loop
      vertex -116.852 0.808242 12
      vertex -116.776 0.407332 0
      vertex -116.776 0.407332 12
    endloop
  endfacet
  facet normal -0.951143 -0.308751 0
    outer loop
      vertex -116.852 0.808242 0
      vertex -116.978 1.1964 12
      vertex -116.978 1.1964 0
    endloop
  endfacet
  facet normal -0.951143 -0.308751 0
    outer loop
      vertex -116.978 1.1964 12
      vertex -116.852 0.808242 0
      vertex -116.852 0.808242 12
    endloop
  endfacet
  facet normal -0.685183 -0.728371 0
    outer loop
      vertex -117.928 2.50417 0
      vertex -117.631 2.22478 12
      vertex -117.928 2.50417 12
    endloop
  endfacet
  facet normal -0.685183 -0.728371 -0
    outer loop
      vertex -117.631 2.22478 12
      vertex -117.928 2.50417 0
      vertex -117.631 2.22478 0
    endloop
  endfacet
  facet normal -0.770706 -0.63719 0
    outer loop
      vertex -117.371 1.9103 0
      vertex -117.631 2.22478 12
      vertex -117.631 2.22478 0
    endloop
  endfacet
  facet normal -0.770706 -0.63719 0
    outer loop
      vertex -117.631 2.22478 12
      vertex -117.371 1.9103 0
      vertex -117.371 1.9103 12
    endloop
  endfacet
  facet normal 0 -1 0
    outer loop
      vertex -120.204 3.24359 0
      vertex -119.796 3.24359 12
      vertex -120.204 3.24359 12
    endloop
  endfacet
  facet normal 0 -1 -0
    outer loop
      vertex -119.796 3.24359 12
      vertex -120.204 3.24359 0
      vertex -119.796 3.24359 0
    endloop
  endfacet
  facet normal -0.248877 -0.968535 0
    outer loop
      vertex -119.391 3.19243 0
      vertex -118.996 3.09093 12
      vertex -119.391 3.19243 12
    endloop
  endfacet
  facet normal -0.248877 -0.968535 -0
    outer loop
      vertex -118.996 3.09093 12
      vertex -119.391 3.19243 0
      vertex -118.996 3.09093 0
    endloop
  endfacet
  facet normal -0.482427 -0.875936 0
    outer loop
      vertex -118.616 2.94069 0
      vertex -118.259 2.74407 12
      vertex -118.616 2.94069 12
    endloop
  endfacet
  facet normal -0.482427 -0.875936 -0
    outer loop
      vertex -118.259 2.74407 12
      vertex -118.616 2.94069 0
      vertex -118.259 2.74407 0
    endloop
  endfacet
  facet normal 0.997969 -0.0637004 0
    outer loop
      vertex -123.25 0 12
      vertex -123.224 0.407332 0
      vertex -123.224 0.407332 12
    endloop
  endfacet
  facet normal 0.997969 -0.0637004 0
    outer loop
      vertex -123.224 0.407332 0
      vertex -123.25 0 12
      vertex -123.25 0 0
    endloop
  endfacet
  facet normal 0 0 1
    outer loop
      vertex 122.314 6.99013 12
      vertex 127 2 12
      vertex 126.961 2.62667 12
    endloop
  endfacet
  facet normal 0 0 1
    outer loop
      vertex 127 2 12
      vertex 122.314 6.99013 12
      vertex 127 -2 12
    endloop
  endfacet
  facet normal 0 0 1
    outer loop
      vertex 122.314 6.99013 12
      vertex 126.961 2.62667 12
      vertex 126.843 3.24345 12
    endloop
  endfacet
  facet normal 0 0 1
    outer loop
      vertex 122.314 -6.99013 12
      vertex 127 -2 12
      vertex 122.314 6.99013 12
    endloop
  endfacet
  facet normal 0 0 1
    outer loop
      vertex 122.314 6.99013 12
      vertex 126.843 3.24345 12
      vertex 126.649 3.84062 12
    endloop
  endfacet
  facet normal 0 0 1
    outer loop
      vertex 127 -2 12
      vertex 122.314 -6.99013 12
      vertex 126.961 -2.62667 12
    endloop
  endfacet
  facet normal 0 0 1
    outer loop
      vertex 122.314 6.99013 12
      vertex 126.649 3.84062 12
      vertex 126.382 4.40877 12
    endloop
  endfacet
  facet normal 0 0 1
    outer loop
      vertex 126.961 -2.62667 12
      vertex 122.314 -6.99013 12
      vertex 126.843 -3.24345 12
    endloop
  endfacet
  facet normal 0 0 1
    outer loop
      vertex 122.314 6.99013 12
      vertex 126.382 4.40877 12
      vertex 126.045 4.93893 12
    endloop
  endfacet
  facet normal 0 0 1
    outer loop
      vertex 126.843 -3.24345 12
      vertex 122.314 -6.99013 12
      vertex 126.649 -3.84062 12
    endloop
  endfacet
  facet normal 0 0 1
    outer loop
      vertex 122.314 6.99013 12
      vertex 126.045 4.93893 12
      vertex 125.645 5.42274 12
    endloop
  endfacet
  facet normal 0 0 1
    outer loop
      vertex 126.649 -3.84062 12
      vertex 122.314 -6.99013 12
      vertex 126.382 -4.40877 12
    endloop
  endfacet
  facet normal 0 0 1
    outer loop
      vertex 122.314 6.99013 12
      vertex 125.645 5.42274 12
      vertex 125.187 5.85257 12
    endloop
  endfacet
  facet normal 0 0 1
    outer loop
      vertex 126.382 -4.40877 12
      vertex 122.314 -6.99013 12
      vertex 126.045 -4.93893 12
    endloop
  endfacet
  facet normal 0 0 1
    outer loop
      vertex 122.314 6.99013 12
      vertex 125.187 5.85257 12
      vertex 124.679 6.22164 12
    endloop
  endfacet
  facet normal 0 0 1
    outer loop
      vertex 126.045 -4.93893 12
      vertex 122.314 -6.99013 12
      vertex 125.645 -5.42274 12
    endloop
  endfacet
  facet normal 0 0 1
    outer loop
      vertex 122.314 6.99013 12
      vertex 124.679 6.22164 12
      vertex 124.129 6.52413 12
    endloop
  endfacet
  facet normal 0 0 1
    outer loop
      vertex 125.645 -5.42274 12
      vertex 122.314 -6.99013 12
      vertex 125.187 -5.85257 12
    endloop
  endfacet
  facet normal 0 0 1
    outer loop
      vertex 122.314 6.99013 12
      vertex 124.129 6.52413 12
      vertex 123.545 6.75528 12
    endloop
  endfacet
  facet normal 0 0 1
    outer loop
      vertex 125.187 -5.85257 12
      vertex 122.314 -6.99013 12
      vertex 124.679 -6.22164 12
    endloop
  endfacet
  facet normal 0 0 1
    outer loop
      vertex 122.314 6.99013 12
      vertex 123.545 6.75528 12
      vertex 122.937 6.91144 12
    endloop
  endfacet
  facet normal 0 0 1
    outer loop
      vertex 124.679 -6.22164 12
      vertex 122.314 -6.99013 12
      vertex 124.129 -6.52413 12
    endloop
  endfacet
  facet normal 0 0 1
    outer loop
      vertex 124.129 -6.52413 12
      vertex 122.314 -6.99013 12
      vertex 123.545 -6.75528 12
    endloop
  endfacet
  facet normal 0 0 1
    outer loop
      vertex 123.545 -6.75528 12
      vertex 122.314 -6.99013 12
      vertex 122.937 -6.91144 12
    endloop
  endfacet
  facet normal 0 0 1
    outer loop
      vertex 122.314 6.99013 12
      vertex -116.75 0 12
      vertex 122.314 -6.99013 12
    endloop
  endfacet
  facet normal 0 0 1
    outer loop
      vertex 122.314 6.99013 12
      vertex -116.776 0.407332 12
      vertex -116.75 0 12
    endloop
  endfacet
  facet normal 0 0 1
    outer loop
      vertex 122.314 6.99013 12
      vertex -116.852 0.808242 12
      vertex -116.776 0.407332 12
    endloop
  endfacet
  facet normal 0 0 1
    outer loop
      vertex 122.314 6.99013 12
      vertex -116.978 1.1964 12
      vertex -116.852 0.808242 12
    endloop
  endfacet
  facet normal 0 0 1
    outer loop
      vertex 122.314 6.99013 12
      vertex -117.152 1.5657 12
      vertex -116.978 1.1964 12
    endloop
  endfacet
  facet normal 0 0 1
    outer loop
      vertex 122.314 6.99013 12
      vertex -117.371 1.9103 12
      vertex -117.152 1.5657 12
    endloop
  endfacet
  facet normal 0 0 1
    outer loop
      vertex 122.314 6.99013 12
      vertex -117.631 2.22478 12
      vertex -117.371 1.9103 12
    endloop
  endfacet
  facet normal -0 0 1
    outer loop
      vertex -122.314 6.99013 12
      vertex -117.631 2.22478 12
      vertex 122.314 6.99013 12
    endloop
  endfacet
  facet normal 0 0 1
    outer loop
      vertex -117.631 2.22478 12
      vertex -122.314 6.99013 12
      vertex -117.928 2.50417 12
    endloop
  endfacet
  facet normal 0 0 1
    outer loop
      vertex -117.928 2.50417 12
      vertex -122.314 6.99013 12
      vertex -118.259 2.74407 12
    endloop
  endfacet
  facet normal 0 0 1
    outer loop
      vertex -118.259 2.74407 12
      vertex -122.314 6.99013 12
      vertex -118.616 2.94069 12
    endloop
  endfacet
  facet normal 0 0 1
    outer loop
      vertex -118.616 2.94069 12
      vertex -122.314 6.99013 12
      vertex -118.996 3.09093 12
    endloop
  endfacet
  facet normal 0 0 1
    outer loop
      vertex -118.996 3.09093 12
      vertex -122.314 6.99013 12
      vertex -119.391 3.19243 12
    endloop
  endfacet
  facet normal 0 0 1
    outer loop
      vertex -119.391 3.19243 12
      vertex -122.314 6.99013 12
      vertex -119.796 3.24359 12
    endloop
  endfacet
  facet normal 0 0 1
    outer loop
      vertex -119.796 3.24359 12
      vertex -122.314 6.99013 12
      vertex -120.204 3.24359 12
    endloop
  endfacet
  facet normal 0 0 1
    outer loop
      vertex -122.314 6.99013 12
      vertex -120.609 3.19243 12
      vertex -120.204 3.24359 12
    endloop
  endfacet
  facet normal 0 0 1
    outer loop
      vertex -122.314 6.99013 12
      vertex -121.004 3.09093 12
      vertex -120.609 3.19243 12
    endloop
  endfacet
  facet normal 0 0 1
    outer loop
      vertex -122.314 6.99013 12
      vertex -121.384 2.94069 12
      vertex -121.004 3.09093 12
    endloop
  endfacet
  facet normal -0 0 1
    outer loop
      vertex -122.937 6.91144 12
      vertex -121.384 2.94069 12
      vertex -122.314 6.99013 12
    endloop
  endfacet
  facet normal 0 0 1
    outer loop
      vertex -121.384 2.94069 12
      vertex -122.937 6.91144 12
      vertex -121.741 2.74407 12
    endloop
  endfacet
  facet normal -0 0 1
    outer loop
      vertex -123.545 6.75528 12
      vertex -121.741 2.74407 12
      vertex -122.937 6.91144 12
    endloop
  endfacet
  facet normal -0 0 1
    outer loop
      vertex -124.129 6.52413 12
      vertex -121.741 2.74407 12
      vertex -123.545 6.75528 12
    endloop
  endfacet
  facet normal 0 0 1
    outer loop
      vertex -121.741 2.74407 12
      vertex -124.129 6.52413 12
      vertex -122.072 2.50417 12
    endloop
  endfacet
  facet normal -0 0 1
    outer loop
      vertex -124.679 6.22164 12
      vertex -122.072 2.50417 12
      vertex -124.129 6.52413 12
    endloop
  endfacet
  facet normal -0 0 1
    outer loop
      vertex -125.187 5.85257 12
      vertex -122.072 2.50417 12
      vertex -124.679 6.22164 12
    endloop
  endfacet
  facet normal 0 0 1
    outer loop
      vertex -122.072 2.50417 12
      vertex -125.187 5.85257 12
      vertex -122.369 2.22478 12
    endloop
  endfacet
  facet normal -0 0 1
    outer loop
      vertex -125.645 5.42274 12
      vertex -122.369 2.22478 12
      vertex -125.187 5.85257 12
    endloop
  endfacet
  facet normal -0 0 1
    outer loop
      vertex -126.045 4.93893 12
      vertex -122.369 2.22478 12
      vertex -125.645 5.42274 12
    endloop
  endfacet
  facet normal 0 0 1
    outer loop
      vertex -122.369 2.22478 12
      vertex -126.045 4.93893 12
      vertex -122.629 1.9103 12
    endloop
  endfacet
  facet normal -0 0 1
    outer loop
      vertex -116.776 -0.407332 12
      vertex 122.314 -6.99013 12
      vertex -116.75 0 12
    endloop
  endfacet
  facet normal -0 0 1
    outer loop
      vertex -116.852 -0.808242 12
      vertex 122.314 -6.99013 12
      vertex -116.776 -0.407332 12
    endloop
  endfacet
  facet normal -0 0 1
    outer loop
      vertex -116.978 -1.1964 12
      vertex 122.314 -6.99013 12
      vertex -116.852 -0.808242 12
    endloop
  endfacet
  facet normal -0 0 1
    outer loop
      vertex -117.152 -1.5657 12
      vertex 122.314 -6.99013 12
      vertex -116.978 -1.1964 12
    endloop
  endfacet
  facet normal -0 0 1
    outer loop
      vertex -117.371 -1.9103 12
      vertex 122.314 -6.99013 12
      vertex -117.152 -1.5657 12
    endloop
  endfacet
  facet normal -0 0 1
    outer loop
      vertex -117.631 -2.22478 12
      vertex 122.314 -6.99013 12
      vertex -117.371 -1.9103 12
    endloop
  endfacet
  facet normal 0 0 1
    outer loop
      vertex -122.314 -6.99013 12
      vertex -117.631 -2.22478 12
      vertex -117.928 -2.50417 12
    endloop
  endfacet
  facet normal 0 0 1
    outer loop
      vertex -122.314 -6.99013 12
      vertex -117.928 -2.50417 12
      vertex -118.259 -2.74407 12
    endloop
  endfacet
  facet normal 0 0 1
    outer loop
      vertex -122.314 -6.99013 12
      vertex -118.259 -2.74407 12
      vertex -118.616 -2.94069 12
    endloop
  endfacet
  facet normal 0 0 1
    outer loop
      vertex -122.314 -6.99013 12
      vertex -118.616 -2.94069 12
      vertex -118.996 -3.09093 12
    endloop
  endfacet
  facet normal 0 0 1
    outer loop
      vertex -122.314 -6.99013 12
      vertex -118.996 -3.09093 12
      vertex -119.391 -3.19243 12
    endloop
  endfacet
  facet normal 0 0 1
    outer loop
      vertex -122.314 -6.99013 12
      vertex -119.391 -3.19243 12
      vertex -119.796 -3.24359 12
    endloop
  endfacet
  facet normal 0 0 1
    outer loop
      vertex -122.314 -6.99013 12
      vertex -119.796 -3.24359 12
      vertex -120.204 -3.24359 12
    endloop
  endfacet
  facet normal 0 0 1
    outer loop
      vertex -117.631 -2.22478 12
      vertex -122.314 -6.99013 12
      vertex 122.314 -6.99013 12
    endloop
  endfacet
  facet normal 0 0 1
    outer loop
      vertex -120.609 -3.19243 12
      vertex -122.314 -6.99013 12
      vertex -120.204 -3.24359 12
    endloop
  endfacet
  facet normal 0 0 1
    outer loop
      vertex -121.004 -3.09093 12
      vertex -122.314 -6.99013 12
      vertex -120.609 -3.19243 12
    endloop
  endfacet
  facet normal 0 0 1
    outer loop
      vertex -121.384 -2.94069 12
      vertex -122.314 -6.99013 12
      vertex -121.004 -3.09093 12
    endloop
  endfacet
  facet normal 0 0 1
    outer loop
      vertex -122.937 -6.91144 12
      vertex -121.384 -2.94069 12
      vertex -121.741 -2.74407 12
    endloop
  endfacet
  facet normal 0 0 1
    outer loop
      vertex -124.129 -6.52413 12
      vertex -121.741 -2.74407 12
      vertex -122.072 -2.50417 12
    endloop
  endfacet
  facet normal 0 0 1
    outer loop
      vertex -125.187 -5.85257 12
      vertex -122.072 -2.50417 12
      vertex -122.369 -2.22478 12
    endloop
  endfacet
  facet normal 0 0 1
    outer loop
      vertex -126.045 -4.93893 12
      vertex -122.369 -2.22478 12
      vertex -122.629 -1.9103 12
    endloop
  endfacet
  facet normal 0 0 1
    outer loop
      vertex -126.649 -3.84062 12
      vertex -122.629 -1.9103 12
      vertex -122.848 -1.5657 12
    endloop
  endfacet
  facet normal 0 0 1
    outer loop
      vertex -121.384 -2.94069 12
      vertex -122.937 -6.91144 12
      vertex -122.314 -6.99013 12
    endloop
  endfacet
  facet normal 0 0 1
    outer loop
      vertex -126.961 -2.62667 12
      vertex -122.848 -1.5657 12
      vertex -123.022 -1.1964 12
    endloop
  endfacet
  facet normal 0 0 1
    outer loop
      vertex -127 -2 12
      vertex -123.022 -1.1964 12
      vertex -123.148 -0.808242 12
    endloop
  endfacet
  facet normal 0 0 1
    outer loop
      vertex -127 -2 12
      vertex -123.148 -0.808242 12
      vertex -123.224 -0.407332 12
    endloop
  endfacet
  facet normal 0 0 1
    outer loop
      vertex -127 -2 12
      vertex -123.224 -0.407332 12
      vertex -123.25 0 12
    endloop
  endfacet
  facet normal 0 0 1
    outer loop
      vertex -121.741 -2.74407 12
      vertex -123.545 -6.75528 12
      vertex -122.937 -6.91144 12
    endloop
  endfacet
  facet normal -0 0 1
    outer loop
      vertex -126.382 4.40877 12
      vertex -122.629 1.9103 12
      vertex -126.045 4.93893 12
    endloop
  endfacet
  facet normal -0 0 1
    outer loop
      vertex -126.649 3.84062 12
      vertex -122.629 1.9103 12
      vertex -126.382 4.40877 12
    endloop
  endfacet
  facet normal 0 0 1
    outer loop
      vertex -127 -2 12
      vertex -123.25 0 12
      vertex -127 2 12
    endloop
  endfacet
  facet normal 0 0 1
    outer loop
      vertex -122.629 1.9103 12
      vertex -126.649 3.84062 12
      vertex -122.848 1.5657 12
    endloop
  endfacet
  facet normal 0 0 1
    outer loop
      vertex -123.022 -1.1964 12
      vertex -127 -2 12
      vertex -126.961 -2.62667 12
    endloop
  endfacet
  facet normal -0 0 1
    outer loop
      vertex -126.843 3.24345 12
      vertex -122.848 1.5657 12
      vertex -126.649 3.84062 12
    endloop
  endfacet
  facet normal 0 0 1
    outer loop
      vertex -121.741 -2.74407 12
      vertex -124.129 -6.52413 12
      vertex -123.545 -6.75528 12
    endloop
  endfacet
  facet normal -0 0 1
    outer loop
      vertex -126.961 2.62667 12
      vertex -122.848 1.5657 12
      vertex -126.843 3.24345 12
    endloop
  endfacet
  facet normal 0 0 1
    outer loop
      vertex -122.072 -2.50417 12
      vertex -124.679 -6.22164 12
      vertex -124.129 -6.52413 12
    endloop
  endfacet
  facet normal 0 0 1
    outer loop
      vertex -122.848 1.5657 12
      vertex -126.961 2.62667 12
      vertex -123.022 1.1964 12
    endloop
  endfacet
  facet normal 0 0 1
    outer loop
      vertex -122.072 -2.50417 12
      vertex -125.187 -5.85257 12
      vertex -124.679 -6.22164 12
    endloop
  endfacet
  facet normal -0 0 1
    outer loop
      vertex -127 2 12
      vertex -123.022 1.1964 12
      vertex -126.961 2.62667 12
    endloop
  endfacet
  facet normal 0 0 1
    outer loop
      vertex -122.369 -2.22478 12
      vertex -125.645 -5.42274 12
      vertex -125.187 -5.85257 12
    endloop
  endfacet
  facet normal 0 0 1
    outer loop
      vertex -123.022 1.1964 12
      vertex -127 2 12
      vertex -123.148 0.808242 12
    endloop
  endfacet
  facet normal 0 0 1
    outer loop
      vertex -122.369 -2.22478 12
      vertex -126.045 -4.93893 12
      vertex -125.645 -5.42274 12
    endloop
  endfacet
  facet normal 0 0 1
    outer loop
      vertex -123.148 0.808242 12
      vertex -127 2 12
      vertex -123.224 0.407332 12
    endloop
  endfacet
  facet normal 0 0 1
    outer loop
      vertex -122.629 -1.9103 12
      vertex -126.382 -4.40877 12
      vertex -126.045 -4.93893 12
    endloop
  endfacet
  facet normal 0 0 1
    outer loop
      vertex -123.224 0.407332 12
      vertex -127 2 12
      vertex -123.25 0 12
    endloop
  endfacet
  facet normal 0 0 1
    outer loop
      vertex -122.629 -1.9103 12
      vertex -126.649 -3.84062 12
      vertex -126.382 -4.40877 12
    endloop
  endfacet
  facet normal 0 0 1
    outer loop
      vertex -122.848 -1.5657 12
      vertex -126.843 -3.24345 12
      vertex -126.649 -3.84062 12
    endloop
  endfacet
  facet normal 0 0 1
    outer loop
      vertex -122.848 -1.5657 12
      vertex -126.961 -2.62667 12
      vertex -126.843 -3.24345 12
    endloop
  endfacet
  facet normal 0.951143 -0.308751 0
    outer loop
      vertex -123.148 0.808242 12
      vertex -123.022 1.1964 0
      vertex -123.022 1.1964 12
    endloop
  endfacet
  facet normal 0.951143 -0.308751 0
    outer loop
      vertex -123.022 1.1964 0
      vertex -123.148 0.808242 12
      vertex -123.148 0.808242 0
    endloop
  endfacet
  facet normal 0.843984 -0.536368 0
    outer loop
      vertex -122.848 1.5657 12
      vertex -122.629 1.9103 0
      vertex -122.629 1.9103 12
    endloop
  endfacet
  facet normal 0.843984 -0.536368 0
    outer loop
      vertex -122.629 1.9103 0
      vertex -122.848 1.5657 12
      vertex -122.848 1.5657 0
    endloop
  endfacet
  facet normal 0.248877 -0.968535 0
    outer loop
      vertex -121.004 3.09093 0
      vertex -120.609 3.19243 12
      vertex -121.004 3.09093 12
    endloop
  endfacet
  facet normal 0.248877 -0.968535 0
    outer loop
      vertex -120.609 3.19243 12
      vertex -121.004 3.09093 0
      vertex -120.609 3.19243 0
    endloop
  endfacet
  facet normal 0.586847 -0.809698 0
    outer loop
      vertex -122.072 2.50417 0
      vertex -121.741 2.74407 12
      vertex -122.072 2.50417 12
    endloop
  endfacet
  facet normal 0.586847 -0.809698 0
    outer loop
      vertex -121.741 2.74407 12
      vertex -122.072 2.50417 0
      vertex -121.741 2.74407 0
    endloop
  endfacet
  facet normal 0.685183 -0.728371 0
    outer loop
      vertex -122.369 2.22478 0
      vertex -122.072 2.50417 12
      vertex -122.369 2.22478 12
    endloop
  endfacet
  facet normal 0.685183 -0.728371 0
    outer loop
      vertex -122.072 2.50417 12
      vertex -122.369 2.22478 0
      vertex -122.072 2.50417 0
    endloop
  endfacet
  facet normal -0.843984 0.536368 0
    outer loop
      vertex -117.371 -1.9103 0
      vertex -117.152 -1.5657 12
      vertex -117.152 -1.5657 0
    endloop
  endfacet
  facet normal -0.843984 0.536368 0
    outer loop
      vertex -117.152 -1.5657 12
      vertex -117.371 -1.9103 0
      vertex -117.371 -1.9103 12
    endloop
  endfacet
  facet normal 0 1 -0
    outer loop
      vertex -119.796 -3.24359 0
      vertex -120.204 -3.24359 12
      vertex -119.796 -3.24359 12
    endloop
  endfacet
  facet normal 0 1 0
    outer loop
      vertex -120.204 -3.24359 12
      vertex -119.796 -3.24359 0
      vertex -120.204 -3.24359 0
    endloop
  endfacet
  facet normal 0.951143 0.308751 0
    outer loop
      vertex -123.022 -1.1964 12
      vertex -123.148 -0.808242 0
      vertex -123.148 -0.808242 12
    endloop
  endfacet
  facet normal 0.951143 0.308751 0
    outer loop
      vertex -123.148 -0.808242 0
      vertex -123.022 -1.1964 12
      vertex -123.022 -1.1964 0
    endloop
  endfacet
  facet normal 0.904619 0.426222 0
    outer loop
      vertex -122.848 -1.5657 12
      vertex -123.022 -1.1964 0
      vertex -123.022 -1.1964 12
    endloop
  endfacet
  facet normal 0.904619 0.426222 0
    outer loop
      vertex -123.022 -1.1964 0
      vertex -122.848 -1.5657 12
      vertex -122.848 -1.5657 0
    endloop
  endfacet
  facet normal -0.125325 0.992116 0
    outer loop
      vertex -119.391 -3.19243 0
      vertex -119.796 -3.24359 12
      vertex -119.391 -3.19243 12
    endloop
  endfacet
  facet normal -0.125325 0.992116 0
    outer loop
      vertex -119.796 -3.24359 12
      vertex -119.391 -3.19243 0
      vertex -119.796 -3.24359 0
    endloop
  endfacet
  facet normal -0.997969 0.0637004 0
    outer loop
      vertex -116.776 -0.407332 0
      vertex -116.75 0 12
      vertex -116.75 0 0
    endloop
  endfacet
  facet normal -0.997969 0.0637004 0
    outer loop
      vertex -116.75 0 12
      vertex -116.776 -0.407332 0
      vertex -116.776 -0.407332 12
    endloop
  endfacet
  facet normal 0 0 -1
    outer loop
      vertex 122.314 -6.99013 0
      vertex 127 -2 0
      vertex 126.961 -2.62667 0
    endloop
  endfacet
  facet normal -0 0 -1
    outer loop
      vertex 127 -2 0
      vertex 122.314 -6.99013 0
      vertex 127 2 0
    endloop
  endfacet
  facet normal 0 0 -1
    outer loop
      vertex 122.314 -6.99013 0
      vertex 126.961 -2.62667 0
      vertex 126.843 -3.24345 0
    endloop
  endfacet
  facet normal 0 0 -1
    outer loop
      vertex 122.314 6.99013 0
      vertex 127 2 0
      vertex 122.314 -6.99013 0
    endloop
  endfacet
  facet normal 0 0 -1
    outer loop
      vertex 122.314 -6.99013 0
      vertex 126.843 -3.24345 0
      vertex 126.649 -3.84062 0
    endloop
  endfacet
  facet normal 0 0 -1
    outer loop
      vertex 127 2 0
      vertex 122.314 6.99013 0
      vertex 126.961 2.62667 0
    endloop
  endfacet
  facet normal 0 0 -1
    outer loop
      vertex 122.314 -6.99013 0
      vertex 126.649 -3.84062 0
      vertex 126.382 -4.40877 0
    endloop
  endfacet
  facet normal 0 0 -1
    outer loop
      vertex 126.961 2.62667 0
      vertex 122.314 6.99013 0
      vertex 126.843 3.24345 0
    endloop
  endfacet
  facet normal 0 0 -1
    outer loop
      vertex 122.314 -6.99013 0
      vertex 126.382 -4.40877 0
      vertex 126.045 -4.93893 0
    endloop
  endfacet
  facet normal 0 0 -1
    outer loop
      vertex 126.843 3.24345 0
      vertex 122.314 6.99013 0
      vertex 126.649 3.84062 0
    endloop
  endfacet
  facet normal 0 0 -1
    outer loop
      vertex 122.314 -6.99013 0
      vertex 126.045 -4.93893 0
      vertex 125.645 -5.42274 0
    endloop
  endfacet
  facet normal 0 0 -1
    outer loop
      vertex 126.649 3.84062 0
      vertex 122.314 6.99013 0
      vertex 126.382 4.40877 0
    endloop
  endfacet
  facet normal 0 0 -1
    outer loop
      vertex 122.314 -6.99013 0
      vertex 125.645 -5.42274 0
      vertex 125.187 -5.85257 0
    endloop
  endfacet
  facet normal 0 0 -1
    outer loop
      vertex 126.382 4.40877 0
      vertex 122.314 6.99013 0
      vertex 126.045 4.93893 0
    endloop
  endfacet
  facet normal 0 0 -1
    outer loop
      vertex 122.314 -6.99013 0
      vertex 125.187 -5.85257 0
      vertex 124.679 -6.22164 0
    endloop
  endfacet
  facet normal 0 0 -1
    outer loop
      vertex 126.045 4.93893 0
      vertex 122.314 6.99013 0
      vertex 125.645 5.42274 0
    endloop
  endfacet
  facet normal 0 0 -1
    outer loop
      vertex 122.314 -6.99013 0
      vertex 124.679 -6.22164 0
      vertex 124.129 -6.52413 0
    endloop
  endfacet
  facet normal 0 0 -1
    outer loop
      vertex 125.645 5.42274 0
      vertex 122.314 6.99013 0
      vertex 125.187 5.85257 0
    endloop
  endfacet
  facet normal 0 0 -1
    outer loop
      vertex 122.314 -6.99013 0
      vertex 124.129 -6.52413 0
      vertex 123.545 -6.75528 0
    endloop
  endfacet
  facet normal 0 0 -1
    outer loop
      vertex 125.187 5.85257 0
      vertex 122.314 6.99013 0
      vertex 124.679 6.22164 0
    endloop
  endfacet
  facet normal 0 0 -1
    outer loop
      vertex 122.314 -6.99013 0
      vertex 123.545 -6.75528 0
      vertex 122.937 -6.91144 0
    endloop
  endfacet
  facet normal 0 0 -1
    outer loop
      vertex 124.679 6.22164 0
      vertex 122.314 6.99013 0
      vertex 124.129 6.52413 0
    endloop
  endfacet
  facet normal 0 0 -1
    outer loop
      vertex 124.129 6.52413 0
      vertex 122.314 6.99013 0
      vertex 123.545 6.75528 0
    endloop
  endfacet
  facet normal 0 0 -1
    outer loop
      vertex 123.545 6.75528 0
      vertex 122.314 6.99013 0
      vertex 122.937 6.91144 0
    endloop
  endfacet
  facet normal 0 0 -1
    outer loop
      vertex 122.314 -6.99013 0
      vertex -116.75 0 0
      vertex 122.314 6.99013 0
    endloop
  endfacet
  facet normal 0 0 -1
    outer loop
      vertex 122.314 -6.99013 0
      vertex -116.776 -0.407332 0
      vertex -116.75 0 0
    endloop
  endfacet
  facet normal 0 0 -1
    outer loop
      vertex 122.314 -6.99013 0
      vertex -116.852 -0.808242 0
      vertex -116.776 -0.407332 0
    endloop
  endfacet
  facet normal 0 0 -1
    outer loop
      vertex 122.314 -6.99013 0
      vertex -116.978 -1.1964 0
      vertex -116.852 -0.808242 0
    endloop
  endfacet
  facet normal 0 0 -1
    outer loop
      vertex 122.314 -6.99013 0
      vertex -117.152 -1.5657 0
      vertex -116.978 -1.1964 0
    endloop
  endfacet
  facet normal 0 0 -1
    outer loop
      vertex 122.314 -6.99013 0
      vertex -117.371 -1.9103 0
      vertex -117.152 -1.5657 0
    endloop
  endfacet
  facet normal 0 0 -1
    outer loop
      vertex 122.314 -6.99013 0
      vertex -117.631 -2.22478 0
      vertex -117.371 -1.9103 0
    endloop
  endfacet
  facet normal 0 0 -1
    outer loop
      vertex -122.314 -6.99013 0
      vertex -117.631 -2.22478 0
      vertex 122.314 -6.99013 0
    endloop
  endfacet
  facet normal 0 0 -1
    outer loop
      vertex -117.631 -2.22478 0
      vertex -122.314 -6.99013 0
      vertex -117.928 -2.50417 0
    endloop
  endfacet
  facet normal 0 0 -1
    outer loop
      vertex -117.928 -2.50417 0
      vertex -122.314 -6.99013 0
      vertex -118.259 -2.74407 0
    endloop
  endfacet
  facet normal 0 0 -1
    outer loop
      vertex -118.259 -2.74407 0
      vertex -122.314 -6.99013 0
      vertex -118.616 -2.94069 0
    endloop
  endfacet
  facet normal 0 0 -1
    outer loop
      vertex -118.616 -2.94069 0
      vertex -122.314 -6.99013 0
      vertex -118.996 -3.09093 0
    endloop
  endfacet
  facet normal 0 0 -1
    outer loop
      vertex -118.996 -3.09093 0
      vertex -122.314 -6.99013 0
      vertex -119.391 -3.19243 0
    endloop
  endfacet
  facet normal 0 0 -1
    outer loop
      vertex -119.391 -3.19243 0
      vertex -122.314 -6.99013 0
      vertex -119.796 -3.24359 0
    endloop
  endfacet
  facet normal -0 0 -1
    outer loop
      vertex -119.796 -3.24359 0
      vertex -122.314 -6.99013 0
      vertex -120.204 -3.24359 0
    endloop
  endfacet
  facet normal 0 0 -1
    outer loop
      vertex -122.314 -6.99013 0
      vertex -120.609 -3.19243 0
      vertex -120.204 -3.24359 0
    endloop
  endfacet
  facet normal 0 0 -1
    outer loop
      vertex -122.314 -6.99013 0
      vertex -121.004 -3.09093 0
      vertex -120.609 -3.19243 0
    endloop
  endfacet
  facet normal 0 0 -1
    outer loop
      vertex -122.314 -6.99013 0
      vertex -121.384 -2.94069 0
      vertex -121.004 -3.09093 0
    endloop
  endfacet
  facet normal 0 0 -1
    outer loop
      vertex -122.937 -6.91144 0
      vertex -121.384 -2.94069 0
      vertex -122.314 -6.99013 0
    endloop
  endfacet
  facet normal -0 0 -1
    outer loop
      vertex -121.384 -2.94069 0
      vertex -122.937 -6.91144 0
      vertex -121.741 -2.74407 0
    endloop
  endfacet
  facet normal 0 0 -1
    outer loop
      vertex -123.545 -6.75528 0
      vertex -121.741 -2.74407 0
      vertex -122.937 -6.91144 0
    endloop
  endfacet
  facet normal 0 0 -1
    outer loop
      vertex -124.129 -6.52413 0
      vertex -121.741 -2.74407 0
      vertex -123.545 -6.75528 0
    endloop
  endfacet
  facet normal -0 0 -1
    outer loop
      vertex -121.741 -2.74407 0
      vertex -124.129 -6.52413 0
      vertex -122.072 -2.50417 0
    endloop
  endfacet
  facet normal 0 0 -1
    outer loop
      vertex -124.679 -6.22164 0
      vertex -122.072 -2.50417 0
      vertex -124.129 -6.52413 0
    endloop
  endfacet
  facet normal 0 0 -1
    outer loop
      vertex -125.187 -5.85257 0
      vertex -122.072 -2.50417 0
      vertex -124.679 -6.22164 0
    endloop
  endfacet
  facet normal -0 0 -1
    outer loop
      vertex -122.072 -2.50417 0
      vertex -125.187 -5.85257 0
      vertex -122.369 -2.22478 0
    endloop
  endfacet
  facet normal 0 0 -1
    outer loop
      vertex -125.645 -5.42274 0
      vertex -122.369 -2.22478 0
      vertex -125.187 -5.85257 0
    endloop
  endfacet
  facet normal 0 0 -1
    outer loop
      vertex -126.045 -4.93893 0
      vertex -122.369 -2.22478 0
      vertex -125.645 -5.42274 0
    endloop
  endfacet
  facet normal -0 0 -1
    outer loop
      vertex -122.369 -2.22478 0
      vertex -126.045 -4.93893 0
      vertex -122.629 -1.9103 0
    endloop
  endfacet
  facet normal 0 0 -1
    outer loop
      vertex -116.776 0.407332 0
      vertex 122.314 6.99013 0
      vertex -116.75 0 0
    endloop
  endfacet
  facet normal 0 0 -1
    outer loop
      vertex -116.852 0.808242 0
      vertex 122.314 6.99013 0
      vertex -116.776 0.407332 0
    endloop
  endfacet
  facet normal 0 0 -1
    outer loop
      vertex -116.978 1.1964 0
      vertex 122.314 6.99013 0
      vertex -116.852 0.808242 0
    endloop
  endfacet
  facet normal 0 0 -1
    outer loop
      vertex -117.152 1.5657 0
      vertex 122.314 6.99013 0
      vertex -116.978 1.1964 0
    endloop
  endfacet
  facet normal 0 0 -1
    outer loop
      vertex -117.371 1.9103 0
      vertex 122.314 6.99013 0
      vertex -117.152 1.5657 0
    endloop
  endfacet
  facet normal 0 0 -1
    outer loop
      vertex -117.631 2.22478 0
      vertex 122.314 6.99013 0
      vertex -117.371 1.9103 0
    endloop
  endfacet
  facet normal 0 0 -1
    outer loop
      vertex -122.314 6.99013 0
      vertex -117.631 2.22478 0
      vertex -117.928 2.50417 0
    endloop
  endfacet
  facet normal 0 0 -1
    outer loop
      vertex -122.314 6.99013 0
      vertex -117.928 2.50417 0
      vertex -118.259 2.74407 0
    endloop
  endfacet
  facet normal 0 0 -1
    outer loop
      vertex -122.314 6.99013 0
      vertex -118.259 2.74407 0
      vertex -118.616 2.94069 0
    endloop
  endfacet
  facet normal 0 0 -1
    outer loop
      vertex -122.314 6.99013 0
      vertex -118.616 2.94069 0
      vertex -118.996 3.09093 0
    endloop
  endfacet
  facet normal 0 0 -1
    outer loop
      vertex -122.314 6.99013 0
      vertex -118.996 3.09093 0
      vertex -119.391 3.19243 0
    endloop
  endfacet
  facet normal 0 0 -1
    outer loop
      vertex -122.314 6.99013 0
      vertex -119.391 3.19243 0
      vertex -119.796 3.24359 0
    endloop
  endfacet
  facet normal 0 0 -1
    outer loop
      vertex -122.314 6.99013 0
      vertex -119.796 3.24359 0
      vertex -120.204 3.24359 0
    endloop
  endfacet
  facet normal 0 0 -1
    outer loop
      vertex -117.631 2.22478 0
      vertex -122.314 6.99013 0
      vertex 122.314 6.99013 0
    endloop
  endfacet
  facet normal 0 0 -1
    outer loop
      vertex -120.609 3.19243 0
      vertex -122.314 6.99013 0
      vertex -120.204 3.24359 0
    endloop
  endfacet
  facet normal 0 0 -1
    outer loop
      vertex -121.004 3.09093 0
      vertex -122.314 6.99013 0
      vertex -120.609 3.19243 0
    endloop
  endfacet
  facet normal 0 0 -1
    outer loop
      vertex -121.384 2.94069 0
      vertex -122.314 6.99013 0
      vertex -121.004 3.09093 0
    endloop
  endfacet
  facet normal 0 0 -1
    outer loop
      vertex -122.937 6.91144 0
      vertex -121.384 2.94069 0
      vertex -121.741 2.74407 0
    endloop
  endfacet
  facet normal 0 0 -1
    outer loop
      vertex -124.129 6.52413 0
      vertex -121.741 2.74407 0
      vertex -122.072 2.50417 0
    endloop
  endfacet
  facet normal 0 0 -1
    outer loop
      vertex -125.187 5.85257 0
      vertex -122.072 2.50417 0
      vertex -122.369 2.22478 0
    endloop
  endfacet
  facet normal 0 0 -1
    outer loop
      vertex -126.045 4.93893 0
      vertex -122.369 2.22478 0
      vertex -122.629 1.9103 0
    endloop
  endfacet
  facet normal 0 0 -1
    outer loop
      vertex -126.649 3.84062 0
      vertex -122.629 1.9103 0
      vertex -122.848 1.5657 0
    endloop
  endfacet
  facet normal 0 0 -1
    outer loop
      vertex -121.384 2.94069 0
      vertex -122.937 6.91144 0
      vertex -122.314 6.99013 0
    endloop
  endfacet
  facet normal 0 0 -1
    outer loop
      vertex -126.961 2.62667 0
      vertex -122.848 1.5657 0
      vertex -123.022 1.1964 0
    endloop
  endfacet
  facet normal 0 0 -1
    outer loop
      vertex -127 2 0
      vertex -123.022 1.1964 0
      vertex -123.148 0.808242 0
    endloop
  endfacet
  facet normal 0 0 -1
    outer loop
      vertex -127 2 0
      vertex -123.148 0.808242 0
      vertex -123.224 0.407332 0
    endloop
  endfacet
  facet normal 0 0 -1
    outer loop
      vertex -127 2 0
      vertex -123.224 0.407332 0
      vertex -123.25 0 0
    endloop
  endfacet
  facet normal 0 0 -1
    outer loop
      vertex -121.741 2.74407 0
      vertex -123.545 6.75528 0
      vertex -122.937 6.91144 0
    endloop
  endfacet
  facet normal 0 0 -1
    outer loop
      vertex -126.382 -4.40877 0
      vertex -122.629 -1.9103 0
      vertex -126.045 -4.93893 0
    endloop
  endfacet
  facet normal 0 0 -1
    outer loop
      vertex -126.649 -3.84062 0
      vertex -122.629 -1.9103 0
      vertex -126.382 -4.40877 0
    endloop
  endfacet
  facet normal 0 0 -1
    outer loop
      vertex -127 2 0
      vertex -123.25 0 0
      vertex -127 -2 0
    endloop
  endfacet
  facet normal -0 0 -1
    outer loop
      vertex -122.629 -1.9103 0
      vertex -126.649 -3.84062 0
      vertex -122.848 -1.5657 0
    endloop
  endfacet
  facet normal 0 0 -1
    outer loop
      vertex -123.022 1.1964 0
      vertex -127 2 0
      vertex -126.961 2.62667 0
    endloop
  endfacet
  facet normal 0 0 -1
    outer loop
      vertex -126.843 -3.24345 0
      vertex -122.848 -1.5657 0
      vertex -126.649 -3.84062 0
    endloop
  endfacet
  facet normal 0 0 -1
    outer loop
      vertex -121.741 2.74407 0
      vertex -124.129 6.52413 0
      vertex -123.545 6.75528 0
    endloop
  endfacet
  facet normal 0 0 -1
    outer loop
      vertex -126.961 -2.62667 0
      vertex -122.848 -1.5657 0
      vertex -126.843 -3.24345 0
    endloop
  endfacet
  facet normal 0 0 -1
    outer loop
      vertex -122.072 2.50417 0
      vertex -124.679 6.22164 0
      vertex -124.129 6.52413 0
    endloop
  endfacet
  facet normal -0 0 -1
    outer loop
      vertex -122.848 -1.5657 0
      vertex -126.961 -2.62667 0
      vertex -123.022 -1.1964 0
    endloop
  endfacet
  facet normal 0 0 -1
    outer loop
      vertex -122.072 2.50417 0
      vertex -125.187 5.85257 0
      vertex -124.679 6.22164 0
    endloop
  endfacet
  facet normal 0 0 -1
    outer loop
      vertex -127 -2 0
      vertex -123.022 -1.1964 0
      vertex -126.961 -2.62667 0
    endloop
  endfacet
  facet normal 0 0 -1
    outer loop
      vertex -122.369 2.22478 0
      vertex -125.645 5.42274 0
      vertex -125.187 5.85257 0
    endloop
  endfacet
  facet normal -0 0 -1
    outer loop
      vertex -123.022 -1.1964 0
      vertex -127 -2 0
      vertex -123.148 -0.808242 0
    endloop
  endfacet
  facet normal 0 0 -1
    outer loop
      vertex -122.369 2.22478 0
      vertex -126.045 4.93893 0
      vertex -125.645 5.42274 0
    endloop
  endfacet
  facet normal -0 0 -1
    outer loop
      vertex -123.148 -0.808242 0
      vertex -127 -2 0
      vertex -123.224 -0.407332 0
    endloop
  endfacet
  facet normal 0 0 -1
    outer loop
      vertex -122.629 1.9103 0
      vertex -126.382 4.40877 0
      vertex -126.045 4.93893 0
    endloop
  endfacet
  facet normal -0 0 -1
    outer loop
      vertex -123.224 -0.407332 0
      vertex -127 -2 0
      vertex -123.25 0 0
    endloop
  endfacet
  facet normal 0 0 -1
    outer loop
      vertex -122.629 1.9103 0
      vertex -126.649 3.84062 0
      vertex -126.382 4.40877 0
    endloop
  endfacet
  facet normal 0 0 -1
    outer loop
      vertex -122.848 1.5657 0
      vertex -126.843 3.24345 0
      vertex -126.649 3.84062 0
    endloop
  endfacet
  facet normal 0 0 -1
    outer loop
      vertex -122.848 1.5657 0
      vertex -126.961 2.62667 0
      vertex -126.843 3.24345 0
    endloop
  endfacet
  facet normal -0.248877 0.968535 0
    outer loop
      vertex -118.996 -3.09093 0
      vertex -119.391 -3.19243 12
      vertex -118.996 -3.09093 12
    endloop
  endfacet
  facet normal -0.248877 0.968535 0
    outer loop
      vertex -119.391 -3.19243 12
      vertex -118.996 -3.09093 0
      vertex -119.391 -3.19243 0
    endloop
  endfacet
  facet normal -0.482427 0.875936 0
    outer loop
      vertex -118.259 -2.74407 0
      vertex -118.616 -2.94069 12
      vertex -118.259 -2.74407 12
    endloop
  endfacet
  facet normal -0.482427 0.875936 0
    outer loop
      vertex -118.616 -2.94069 12
      vertex -118.259 -2.74407 0
      vertex -118.616 -2.94069 0
    endloop
  endfacet
  facet normal -0.367675 0.929954 0
    outer loop
      vertex -118.616 -2.94069 0
      vertex -118.996 -3.09093 12
      vertex -118.616 -2.94069 12
    endloop
  endfacet
  facet normal -0.367675 0.929954 0
    outer loop
      vertex -118.996 -3.09093 12
      vertex -118.616 -2.94069 0
      vertex -118.996 -3.09093 0
    endloop
  endfacet
  facet normal -0.685183 0.728371 0
    outer loop
      vertex -117.631 -2.22478 0
      vertex -117.928 -2.50417 12
      vertex -117.631 -2.22478 12
    endloop
  endfacet
  facet normal -0.685183 0.728371 0
    outer loop
      vertex -117.928 -2.50417 12
      vertex -117.631 -2.22478 0
      vertex -117.928 -2.50417 0
    endloop
  endfacet
  facet normal -0.904619 0.426222 0
    outer loop
      vertex -117.152 -1.5657 0
      vertex -116.978 -1.1964 12
      vertex -116.978 -1.1964 0
    endloop
  endfacet
  facet normal -0.904619 0.426222 0
    outer loop
      vertex -116.978 -1.1964 12
      vertex -117.152 -1.5657 0
      vertex -117.152 -1.5657 12
    endloop
  endfacet
  facet normal 0.586847 0.809698 -0
    outer loop
      vertex -121.741 -2.74407 0
      vertex -122.072 -2.50417 12
      vertex -121.741 -2.74407 12
    endloop
  endfacet
  facet normal 0.586847 0.809698 0
    outer loop
      vertex -122.072 -2.50417 12
      vertex -121.741 -2.74407 0
      vertex -122.072 -2.50417 0
    endloop
  endfacet
  facet normal 0.248877 0.968535 -0
    outer loop
      vertex -120.609 -3.19243 0
      vertex -121.004 -3.09093 12
      vertex -120.609 -3.19243 12
    endloop
  endfacet
  facet normal 0.248877 0.968535 0
    outer loop
      vertex -121.004 -3.09093 12
      vertex -120.609 -3.19243 0
      vertex -121.004 -3.09093 0
    endloop
  endfacet
  facet normal 0.125325 0.992116 -0
    outer loop
      vertex -120.204 -3.24359 0
      vertex -120.609 -3.19243 12
      vertex -120.204 -3.24359 12
    endloop
  endfacet
  facet normal 0.125325 0.992116 0
    outer loop
      vertex -120.609 -3.19243 12
      vertex -120.204 -3.24359 0
      vertex -120.609 -3.19243 0
    endloop
  endfacet
  facet normal 0.770706 0.63719 0
    outer loop
      vertex -122.369 -2.22478 12
      vertex -122.629 -1.9103 0
      vertex -122.629 -1.9103 12
    endloop
  endfacet
  facet normal 0.770706 0.63719 0
    outer loop
      vertex -122.629 -1.9103 0
      vertex -122.369 -2.22478 12
      vertex -122.369 -2.22478 0
    endloop
  endfacet
  facet normal 0.685183 0.728371 -0
    outer loop
      vertex -122.072 -2.50417 0
      vertex -122.369 -2.22478 12
      vertex -122.072 -2.50417 12
    endloop
  endfacet
  facet normal 0.685183 0.728371 0
    outer loop
      vertex -122.369 -2.22478 12
      vertex -122.072 -2.50417 0
      vertex -122.369 -2.22478 0
    endloop
  endfacet
  facet normal 0.982502 0.186252 0
    outer loop
      vertex -123.148 -0.808242 12
      vertex -123.224 -0.407332 0
      vertex -123.224 -0.407332 12
    endloop
  endfacet
  facet normal 0.982502 0.186252 0
    outer loop
      vertex -123.224 -0.407332 0
      vertex -123.148 -0.808242 12
      vertex -123.148 -0.808242 0
    endloop
  endfacet
  facet normal 0.997969 0.0637004 0
    outer loop
      vertex -123.224 -0.407332 12
      vertex -123.25 0 0
      vertex -123.25 0 12
    endloop
  endfacet
  facet normal 0.997969 0.0637004 0
    outer loop
      vertex -123.25 0 0
      vertex -123.224 -0.407332 12
      vertex -123.224 -0.407332 0
    endloop
  endfacet
  facet normal -0.770706 0.63719 0
    outer loop
      vertex -117.631 -2.22478 0
      vertex -117.371 -1.9103 12
      vertex -117.371 -1.9103 0
    endloop
  endfacet
  facet normal -0.770706 0.63719 0
    outer loop
      vertex -117.371 -1.9103 12
      vertex -117.631 -2.22478 0
      vertex -117.631 -2.22478 12
    endloop
  endfacet
  facet normal 0.482427 0.875936 -0
    outer loop
      vertex -121.384 -2.94069 0
      vertex -121.741 -2.74407 12
      vertex -121.384 -2.94069 12
    endloop
  endfacet
  facet normal 0.482427 0.875936 0
    outer loop
      vertex -121.741 -2.74407 12
      vertex -121.384 -2.94069 0
      vertex -121.741 -2.74407 0
    endloop
  endfacet
  facet normal 0.843984 0.536368 0
    outer loop
      vertex -122.629 -1.9103 12
      vertex -122.848 -1.5657 0
      vertex -122.848 -1.5657 12
    endloop
  endfacet
  facet normal 0.843984 0.536368 0
    outer loop
      vertex -122.848 -1.5657 0
      vertex -122.629 -1.9103 12
      vertex -122.629 -1.9103 0
    endloop
  endfacet
  facet normal 0.367675 0.929954 -0
    outer loop
      vertex -121.004 -3.09093 0
      vertex -121.384 -2.94069 12
      vertex -121.004 -3.09093 12
    endloop
  endfacet
  facet normal 0.367675 0.929954 0
    outer loop
      vertex -121.384 -2.94069 12
      vertex -121.004 -3.09093 0
      vertex -121.384 -2.94069 0
    endloop
  endfacet
  facet normal -1 0 0
    outer loop
      vertex -127 -2 0
      vertex -127 2 12
      vertex -127 2 0
    endloop
  endfacet
  facet normal -1 -0 0
    outer loop
      vertex -127 2 12
      vertex -127 -2 0
      vertex -127 -2 12
    endloop
  endfacet
  facet normal 0 1 -0
    outer loop
      vertex 122.314 6.99013 0
      vertex -122.314 6.99013 12
      vertex 122.314 6.99013 12
    endloop
  endfacet
  facet normal 0 1 0
    outer loop
      vertex -122.314 6.99013 12
      vertex 122.314 6.99013 0
      vertex -122.314 6.99013 0
    endloop
  endfacet
  facet normal 0 -1 0
    outer loop
      vertex -122.314 -6.99013 0
      vertex 122.314 -6.99013 12
      vertex -122.314 -6.99013 12
    endloop
  endfacet
  facet normal 0 -1 -0
    outer loop
      vertex 122.314 -6.99013 12
      vertex -122.314 -6.99013 0
      vertex 122.314 -6.99013 0
    endloop
  endfacet
  facet normal -0.684327 -0.729176 0
    outer loop
      vertex -125.645 -5.42274 0
      vertex -125.187 -5.85257 12
      vertex -125.645 -5.42274 12
    endloop
  endfacet
  facet normal -0.684327 -0.729176 -0
    outer loop
      vertex -125.187 -5.85257 12
      vertex -125.645 -5.42274 0
      vertex -125.187 -5.85257 0
    endloop
  endfacet
  facet normal 0.998069 -0.0621135 0
    outer loop
      vertex 126.961 -2.62667 12
      vertex 127 -2 0
      vertex 127 -2 12
    endloop
  endfacet
  facet normal 0.998069 -0.0621135 0
    outer loop
      vertex 127 -2 0
      vertex 126.961 -2.62667 12
      vertex 126.961 -2.62667 0
    endloop
  endfacet
  facet normal 0.125313 -0.992117 0
    outer loop
      vertex 122.314 -6.99013 0
      vertex 122.937 -6.91144 12
      vertex 122.314 -6.99013 12
    endloop
  endfacet
  facet normal 0.125313 -0.992117 0
    outer loop
      vertex 122.937 -6.91144 12
      vertex 122.314 -6.99013 0
      vertex 122.937 -6.91144 0
    endloop
  endfacet
  facet normal -0.951072 -0.30897 0
    outer loop
      vertex -126.649 -3.84062 0
      vertex -126.843 -3.24345 12
      vertex -126.843 -3.24345 0
    endloop
  endfacet
  facet normal -0.951072 -0.30897 0
    outer loop
      vertex -126.843 -3.24345 12
      vertex -126.649 -3.84062 0
      vertex -126.649 -3.84062 12
    endloop
  endfacet
  facet normal -0.368026 -0.929816 0
    outer loop
      vertex -124.129 -6.52413 0
      vertex -123.545 -6.75528 12
      vertex -124.129 -6.52413 12
    endloop
  endfacet
  facet normal -0.368026 -0.929816 -0
    outer loop
      vertex -123.545 -6.75528 12
      vertex -124.129 -6.52413 0
      vertex -123.545 -6.75528 0
    endloop
  endfacet
  facet normal -0.481907 -0.876223 0
    outer loop
      vertex -124.679 -6.22164 0
      vertex -124.129 -6.52413 12
      vertex -124.679 -6.22164 12
    endloop
  endfacet
  facet normal -0.481907 -0.876223 -0
    outer loop
      vertex -124.129 -6.52413 12
      vertex -124.679 -6.22164 0
      vertex -124.129 -6.52413 0
    endloop
  endfacet
  facet normal -0.248768 -0.968563 0
    outer loop
      vertex -123.545 -6.75528 0
      vertex -122.937 -6.91144 12
      vertex -123.545 -6.75528 12
    endloop
  endfacet
  facet normal -0.248768 -0.968563 -0
    outer loop
      vertex -122.937 -6.91144 12
      vertex -123.545 -6.75528 0
      vertex -122.937 -6.91144 0
    endloop
  endfacet
  facet normal 0.843931 -0.536451 0
    outer loop
      vertex 126.045 -4.93893 12
      vertex 126.382 -4.40877 0
      vertex 126.382 -4.40877 12
    endloop
  endfacet
  facet normal 0.843931 -0.536451 0
    outer loop
      vertex 126.382 -4.40877 0
      vertex 126.045 -4.93893 12
      vertex 126.045 -4.93893 0
    endloop
  endfacet
  facet normal 0.951072 0.30897 0
    outer loop
      vertex 126.843 3.24345 12
      vertex 126.649 3.84062 0
      vertex 126.649 3.84062 12
    endloop
  endfacet
  facet normal 0.951072 0.30897 0
    outer loop
      vertex 126.649 3.84062 0
      vertex 126.843 3.24345 12
      vertex 126.843 3.24345 0
    endloop
  endfacet
  facet normal 0.770703 0.637195 0
    outer loop
      vertex 126.045 4.93893 12
      vertex 125.645 5.42274 0
      vertex 125.645 5.42274 12
    endloop
  endfacet
  facet normal 0.770703 0.637195 0
    outer loop
      vertex 125.645 5.42274 0
      vertex 126.045 4.93893 12
      vertex 126.045 4.93893 0
    endloop
  endfacet
  facet normal 0.684327 0.729176 -0
    outer loop
      vertex 125.645 5.42274 0
      vertex 125.187 5.85257 12
      vertex 125.645 5.42274 12
    endloop
  endfacet
  facet normal 0.684327 0.729176 0
    outer loop
      vertex 125.187 5.85257 12
      vertex 125.645 5.42274 0
      vertex 125.187 5.85257 0
    endloop
  endfacet
  facet normal 0.125313 0.992117 -0
    outer loop
      vertex 122.937 6.91144 0
      vertex 122.314 6.99013 12
      vertex 122.937 6.91144 12
    endloop
  endfacet
  facet normal 0.125313 0.992117 0
    outer loop
      vertex 122.314 6.99013 12
      vertex 122.937 6.91144 0
      vertex 122.314 6.99013 0
    endloop
  endfacet
  facet normal 0.368026 0.929816 -0
    outer loop
      vertex 124.129 6.52413 0
      vertex 123.545 6.75528 12
      vertex 124.129 6.52413 12
    endloop
  endfacet
  facet normal 0.368026 0.929816 0
    outer loop
      vertex 123.545 6.75528 12
      vertex 124.129 6.52413 0
      vertex 123.545 6.75528 0
    endloop
  endfacet
  facet normal -0.125313 0.992117 0
    outer loop
      vertex -122.314 6.99013 0
      vertex -122.937 6.91144 12
      vertex -122.314 6.99013 12
    endloop
  endfacet
  facet normal -0.125313 0.992117 0
    outer loop
      vertex -122.937 6.91144 12
      vertex -122.314 6.99013 0
      vertex -122.937 6.91144 0
    endloop
  endfacet
  facet normal -0.905042 0.425321 0
    outer loop
      vertex -126.649 3.84062 0
      vertex -126.382 4.40877 12
      vertex -126.382 4.40877 0
    endloop
  endfacet
  facet normal -0.905042 0.425321 0
    outer loop
      vertex -126.382 4.40877 12
      vertex -126.649 3.84062 0
      vertex -126.649 3.84062 12
    endloop
  endfacet
  facet normal -0.998069 -0.0621135 0
    outer loop
      vertex -126.961 -2.62667 0
      vertex -127 -2 12
      vertex -127 -2 0
    endloop
  endfacet
  facet normal -0.998069 -0.0621135 0
    outer loop
      vertex -127 -2 12
      vertex -126.961 -2.62667 0
      vertex -126.961 -2.62667 12
    endloop
  endfacet
  facet normal -0.982187 -0.187908 0
    outer loop
      vertex -126.843 -3.24345 0
      vertex -126.961 -2.62667 12
      vertex -126.961 -2.62667 0
    endloop
  endfacet
  facet normal -0.982187 -0.187908 0
    outer loop
      vertex -126.961 -2.62667 12
      vertex -126.843 -3.24345 0
      vertex -126.843 -3.24345 12
    endloop
  endfacet
  facet normal -0.905042 -0.425321 0
    outer loop
      vertex -126.382 -4.40877 0
      vertex -126.649 -3.84062 12
      vertex -126.649 -3.84062 0
    endloop
  endfacet
  facet normal -0.905042 -0.425321 0
    outer loop
      vertex -126.649 -3.84062 12
      vertex -126.382 -4.40877 0
      vertex -126.382 -4.40877 12
    endloop
  endfacet
  facet normal -0.770703 -0.637195 0
    outer loop
      vertex -125.645 -5.42274 0
      vertex -126.045 -4.93893 12
      vertex -126.045 -4.93893 0
    endloop
  endfacet
  facet normal -0.770703 -0.637195 0
    outer loop
      vertex -126.045 -4.93893 12
      vertex -125.645 -5.42274 0
      vertex -125.645 -5.42274 12
    endloop
  endfacet
  facet normal -0.843931 -0.536451 0
    outer loop
      vertex -126.045 -4.93893 0
      vertex -126.382 -4.40877 12
      vertex -126.382 -4.40877 0
    endloop
  endfacet
  facet normal -0.843931 -0.536451 0
    outer loop
      vertex -126.382 -4.40877 12
      vertex -126.045 -4.93893 0
      vertex -126.045 -4.93893 12
    endloop
  endfacet
  facet normal -0.587771 -0.809027 0
    outer loop
      vertex -125.187 -5.85257 0
      vertex -124.679 -6.22164 12
      vertex -125.187 -5.85257 12
    endloop
  endfacet
  facet normal -0.587771 -0.809027 -0
    outer loop
      vertex -124.679 -6.22164 12
      vertex -125.187 -5.85257 0
      vertex -124.679 -6.22164 0
    endloop
  endfacet
  facet normal 1 -0 0
    outer loop
      vertex 127 -2 12
      vertex 127 2 0
      vertex 127 2 12
    endloop
  endfacet
  facet normal 1 0 0
    outer loop
      vertex 127 2 0
      vertex 127 -2 12
      vertex 127 -2 0
    endloop
  endfacet
  facet normal 0.982187 0.187908 0
    outer loop
      vertex 126.961 2.62667 12
      vertex 126.843 3.24345 0
      vertex 126.843 3.24345 12
    endloop
  endfacet
  facet normal 0.982187 0.187908 0
    outer loop
      vertex 126.843 3.24345 0
      vertex 126.961 2.62667 12
      vertex 126.961 2.62667 0
    endloop
  endfacet
  facet normal 0.982187 -0.187908 0
    outer loop
      vertex 126.843 -3.24345 12
      vertex 126.961 -2.62667 0
      vertex 126.961 -2.62667 12
    endloop
  endfacet
  facet normal 0.982187 -0.187908 0
    outer loop
      vertex 126.961 -2.62667 0
      vertex 126.843 -3.24345 12
      vertex 126.843 -3.24345 0
    endloop
  endfacet
  facet normal 0.951072 -0.30897 0
    outer loop
      vertex 126.649 -3.84062 12
      vertex 126.843 -3.24345 0
      vertex 126.843 -3.24345 12
    endloop
  endfacet
  facet normal 0.951072 -0.30897 0
    outer loop
      vertex 126.843 -3.24345 0
      vertex 126.649 -3.84062 12
      vertex 126.649 -3.84062 0
    endloop
  endfacet
  facet normal 0.905042 -0.425321 0
    outer loop
      vertex 126.382 -4.40877 12
      vertex 126.649 -3.84062 0
      vertex 126.649 -3.84062 12
    endloop
  endfacet
  facet normal 0.905042 -0.425321 0
    outer loop
      vertex 126.649 -3.84062 0
      vertex 126.382 -4.40877 12
      vertex 126.382 -4.40877 0
    endloop
  endfacet
  facet normal 0.684327 -0.729176 0
    outer loop
      vertex 125.187 -5.85257 0
      vertex 125.645 -5.42274 12
      vertex 125.187 -5.85257 12
    endloop
  endfacet
  facet normal 0.684327 -0.729176 0
    outer loop
      vertex 125.645 -5.42274 12
      vertex 125.187 -5.85257 0
      vertex 125.645 -5.42274 0
    endloop
  endfacet
  facet normal 0.587771 -0.809027 0
    outer loop
      vertex 124.679 -6.22164 0
      vertex 125.187 -5.85257 12
      vertex 124.679 -6.22164 12
    endloop
  endfacet
  facet normal 0.587771 -0.809027 0
    outer loop
      vertex 125.187 -5.85257 12
      vertex 124.679 -6.22164 0
      vertex 125.187 -5.85257 0
    endloop
  endfacet
  facet normal 0.770703 -0.637195 0
    outer loop
      vertex 125.645 -5.42274 12
      vertex 126.045 -4.93893 0
      vertex 126.045 -4.93893 12
    endloop
  endfacet
  facet normal 0.770703 -0.637195 0
    outer loop
      vertex 126.045 -4.93893 0
      vertex 125.645 -5.42274 12
      vertex 125.645 -5.42274 0
    endloop
  endfacet
  facet normal 0.368026 -0.929816 0
    outer loop
      vertex 123.545 -6.75528 0
      vertex 124.129 -6.52413 12
      vertex 123.545 -6.75528 12
    endloop
  endfacet
  facet normal 0.368026 -0.929816 0
    outer loop
      vertex 124.129 -6.52413 12
      vertex 123.545 -6.75528 0
      vertex 124.129 -6.52413 0
    endloop
  endfacet
  facet normal 0.481907 -0.876223 0
    outer loop
      vertex 124.129 -6.52413 0
      vertex 124.679 -6.22164 12
      vertex 124.129 -6.52413 12
    endloop
  endfacet
  facet normal 0.481907 -0.876223 0
    outer loop
      vertex 124.679 -6.22164 12
      vertex 124.129 -6.52413 0
      vertex 124.679 -6.22164 0
    endloop
  endfacet
  facet normal 0.248768 -0.968563 0
    outer loop
      vertex 122.937 -6.91144 0
      vertex 123.545 -6.75528 12
      vertex 122.937 -6.91144 12
    endloop
  endfacet
  facet normal 0.248768 -0.968563 0
    outer loop
      vertex 123.545 -6.75528 12
      vertex 122.937 -6.91144 0
      vertex 123.545 -6.75528 0
    endloop
  endfacet
  facet normal 0.905042 0.425321 0
    outer loop
      vertex 126.649 3.84062 12
      vertex 126.382 4.40877 0
      vertex 126.382 4.40877 12
    endloop
  endfacet
  facet normal 0.905042 0.425321 0
    outer loop
      vertex 126.382 4.40877 0
      vertex 126.649 3.84062 12
      vertex 126.649 3.84062 0
    endloop
  endfacet
  facet normal 0.248768 0.968563 -0
    outer loop
      vertex 123.545 6.75528 0
      vertex 122.937 6.91144 12
      vertex 123.545 6.75528 12
    endloop
  endfacet
  facet normal 0.248768 0.968563 0
    outer loop
      vertex 122.937 6.91144 12
      vertex 123.545 6.75528 0
      vertex 122.937 6.91144 0
    endloop
  endfacet
  facet normal 0.481907 0.876223 -0
    outer loop
      vertex 124.679 6.22164 0
      vertex 124.129 6.52413 12
      vertex 124.679 6.22164 12
    endloop
  endfacet
  facet normal 0.481907 0.876223 0
    outer loop
      vertex 124.129 6.52413 12
      vertex 124.679 6.22164 0
      vertex 124.129 6.52413 0
    endloop
  endfacet
  facet normal -0.684327 0.729176 0
    outer loop
      vertex -125.187 5.85257 0
      vertex -125.645 5.42274 12
      vertex -125.187 5.85257 12
    endloop
  endfacet
  facet normal -0.684327 0.729176 0
    outer loop
      vertex -125.645 5.42274 12
      vertex -125.187 5.85257 0
      vertex -125.645 5.42274 0
    endloop
  endfacet
  facet normal -0.368026 0.929816 0
    outer loop
      vertex -123.545 6.75528 0
      vertex -124.129 6.52413 12
      vertex -123.545 6.75528 12
    endloop
  endfacet
  facet normal -0.368026 0.929816 0
    outer loop
      vertex -124.129 6.52413 12
      vertex -123.545 6.75528 0
      vertex -124.129 6.52413 0
    endloop
  endfacet
  facet normal -0.951072 0.30897 0
    outer loop
      vertex -126.843 3.24345 0
      vertex -126.649 3.84062 12
      vertex -126.649 3.84062 0
    endloop
  endfacet
  facet normal -0.951072 0.30897 0
    outer loop
      vertex -126.649 3.84062 12
      vertex -126.843 3.24345 0
      vertex -126.843 3.24345 12
    endloop
  endfacet
  facet normal -0.125313 -0.992117 0
    outer loop
      vertex -122.937 -6.91144 0
      vertex -122.314 -6.99013 12
      vertex -122.937 -6.91144 12
    endloop
  endfacet
  facet normal -0.125313 -0.992117 -0
    outer loop
      vertex -122.314 -6.99013 12
      vertex -122.937 -6.91144 0
      vertex -122.314 -6.99013 0
    endloop
  endfacet
  facet normal 0.998069 0.0621135 0
    outer loop
      vertex 127 2 12
      vertex 126.961 2.62667 0
      vertex 126.961 2.62667 12
    endloop
  endfacet
  facet normal 0.998069 0.0621135 0
    outer loop
      vertex 126.961 2.62667 0
      vertex 127 2 12
      vertex 127 2 0
    endloop
  endfacet
  facet normal 0.843931 0.536451 0
    outer loop
      vertex 126.382 4.40877 12
      vertex 126.045 4.93893 0
      vertex 126.045 4.93893 12
    endloop
  endfacet
  facet normal 0.843931 0.536451 0
    outer loop
      vertex 126.045 4.93893 0
      vertex 126.382 4.40877 12
      vertex 126.382 4.40877 0
    endloop
  endfacet
  facet normal 0.587771 0.809027 -0
    outer loop
      vertex 125.187 5.85257 0
      vertex 124.679 6.22164 12
      vertex 125.187 5.85257 12
    endloop
  endfacet
  facet normal 0.587771 0.809027 0
    outer loop
      vertex 124.679 6.22164 12
      vertex 125.187 5.85257 0
      vertex 124.679 6.22164 0
    endloop
  endfacet
  facet normal -0.770703 0.637195 0
    outer loop
      vertex -126.045 4.93893 0
      vertex -125.645 5.42274 12
      vertex -125.645 5.42274 0
    endloop
  endfacet
  facet normal -0.770703 0.637195 0
    outer loop
      vertex -125.645 5.42274 12
      vertex -126.045 4.93893 0
      vertex -126.045 4.93893 12
    endloop
  endfacet
  facet normal -0.248768 0.968563 0
    outer loop
      vertex -122.937 6.91144 0
      vertex -123.545 6.75528 12
      vertex -122.937 6.91144 12
    endloop
  endfacet
  facet normal -0.248768 0.968563 0
    outer loop
      vertex -123.545 6.75528 12
      vertex -122.937 6.91144 0
      vertex -123.545 6.75528 0
    endloop
  endfacet
  facet normal -0.998069 0.0621135 0
    outer loop
      vertex -127 2 0
      vertex -126.961 2.62667 12
      vertex -126.961 2.62667 0
    endloop
  endfacet
  facet normal -0.998069 0.0621135 0
    outer loop
      vertex -126.961 2.62667 12
      vertex -127 2 0
      vertex -127 2 12
    endloop
  endfacet
  facet normal -0.982187 0.187908 0
    outer loop
      vertex -126.961 2.62667 0
      vertex -126.843 3.24345 12
      vertex -126.843 3.24345 0
    endloop
  endfacet
  facet normal -0.982187 0.187908 0
    outer loop
      vertex -126.843 3.24345 12
      vertex -126.961 2.62667 0
      vertex -126.961 2.62667 12
    endloop
  endfacet
  facet normal -0.587771 0.809027 0
    outer loop
      vertex -124.679 6.22164 0
      vertex -125.187 5.85257 12
      vertex -124.679 6.22164 12
    endloop
  endfacet
  facet normal -0.587771 0.809027 0
    outer loop
      vertex -125.187 5.85257 12
      vertex -124.679 6.22164 0
      vertex -125.187 5.85257 0
    endloop
  endfacet
  facet normal -0.481907 0.876223 0
    outer loop
      vertex -124.129 6.52413 0
      vertex -124.679 6.22164 12
      vertex -124.129 6.52413 12
    endloop
  endfacet
  facet normal -0.481907 0.876223 0
    outer loop
      vertex -124.679 6.22164 12
      vertex -124.129 6.52413 0
      vertex -124.679 6.22164 0
    endloop
  endfacet
  facet normal -0.843931 0.536451 0
    outer loop
      vertex -126.382 4.40877 0
      vertex -126.045 4.93893 12
      vertex -126.045 4.93893 0
    endloop
  endfacet
  facet normal -0.843931 0.536451 0
    outer loop
      vertex -126.045 4.93893 12
      vertex -126.382 4.40877 0
      vertex -126.382 4.40877 12
    endloop
  endfacet
endsolid OpenSCAD_Model
