  0
SECTION
  2
BLOCKS
  0
ENDSEC
  0
SECTION
  2
ENTITIES
  0
LINE
  8
0
 10
122.937
 20
-36.9114
 11
123.545
 21
-36.7553
  0
LINE
  8
0
 10
123.545
 20
-36.7553
 11
124.129
 21
-36.5241
  0
LINE
  8
0
 10
124.129
 20
-36.5241
 11
124.679
 21
-36.2216
  0
LINE
  8
0
 10
124.679
 20
-36.2216
 11
125.187
 21
-35.8526
  0
LINE
  8
0
 10
125.187
 20
-35.8526
 11
125.645
 21
-35.4227
  0
LINE
  8
0
 10
125.645
 20
-35.4227
 11
126.045
 21
-34.9389
  0
LINE
  8
0
 10
126.045
 20
-34.9389
 11
126.382
 21
-34.4088
  0
LINE
  8
0
 10
126.382
 20
-34.4088
 11
126.649
 21
-33.8406
  0
LINE
  8
0
 10
126.649
 20
-33.8406
 11
126.843
 21
-33.2434
  0
LINE
  8
0
 10
126.843
 20
-33.2434
 11
126.961
 21
-32.6267
  0
LINE
  8
0
 10
126.961
 20
-32.6267
 11
127
 21
-32
  0
LINE
  8
0
 10
127
 20
-32
 11
127
 21
32
  0
LINE
  8
0
 10
127
 20
32
 11
126.961
 21
32.6267
  0
LINE
  8
0
 10
126.961
 20
32.6267
 11
126.843
 21
33.2434
  0
LINE
  8
0
 10
126.843
 20
33.2434
 11
126.649
 21
33.8406
  0
LINE
  8
0
 10
126.649
 20
33.8406
 11
126.382
 21
34.4088
  0
LINE
  8
0
 10
126.382
 20
34.4088
 11
126.045
 21
34.9389
  0
LINE
  8
0
 10
126.045
 20
34.9389
 11
125.645
 21
35.4227
  0
LINE
  8
0
 10
125.645
 20
35.4227
 11
125.187
 21
35.8526
  0
LINE
  8
0
 10
125.187
 20
35.8526
 11
124.679
 21
36.2216
  0
LINE
  8
0
 10
124.679
 20
36.2216
 11
124.129
 21
36.5241
  0
LINE
  8
0
 10
124.129
 20
36.5241
 11
123.545
 21
36.7553
  0
LINE
  8
0
 10
123.545
 20
36.7553
 11
122.937
 21
36.9114
  0
LINE
  8
0
 10
122.937
 20
36.9114
 11
122.314
 21
36.9901
  0
LINE
  8
0
 10
122.314
 20
36.9901
 11
-122.314
 21
36.9901
  0
LINE
  8
0
 10
-122.314
 20
36.9901
 11
-122.937
 21
36.9114
  0
LINE
  8
0
 10
-122.937
 20
36.9114
 11
-123.545
 21
36.7553
  0
LINE
  8
0
 10
-123.545
 20
36.7553
 11
-124.129
 21
36.5241
  0
LINE
  8
0
 10
-124.129
 20
36.5241
 11
-124.679
 21
36.2216
  0
LINE
  8
0
 10
-124.679
 20
36.2216
 11
-125.187
 21
35.8526
  0
LINE
  8
0
 10
-125.187
 20
35.8526
 11
-125.645
 21
35.4227
  0
LINE
  8
0
 10
-125.645
 20
35.4227
 11
-126.045
 21
34.9389
  0
LINE
  8
0
 10
-126.045
 20
34.9389
 11
-126.382
 21
34.4088
  0
LINE
  8
0
 10
-126.382
 20
34.4088
 11
-126.649
 21
33.8406
  0
LINE
  8
0
 10
-126.649
 20
33.8406
 11
-126.843
 21
33.2434
  0
LINE
  8
0
 10
-126.843
 20
33.2434
 11
-126.961
 21
32.6267
  0
LINE
  8
0
 10
-126.961
 20
32.6267
 11
-127
 21
32
  0
LINE
  8
0
 10
-127
 20
32
 11
-127
 21
-32
  0
LINE
  8
0
 10
-127
 20
-32
 11
-126.961
 21
-32.6267
  0
LINE
  8
0
 10
-126.961
 20
-32.6267
 11
-126.843
 21
-33.2434
  0
LINE
  8
0
 10
-126.843
 20
-33.2434
 11
-126.649
 21
-33.8406
  0
LINE
  8
0
 10
-126.649
 20
-33.8406
 11
-126.382
 21
-34.4088
  0
LINE
  8
0
 10
-126.382
 20
-34.4088
 11
-126.045
 21
-34.9389
  0
LINE
  8
0
 10
-126.045
 20
-34.9389
 11
-125.645
 21
-35.4227
  0
LINE
  8
0
 10
-125.645
 20
-35.4227
 11
-125.187
 21
-35.8526
  0
LINE
  8
0
 10
-125.187
 20
-35.8526
 11
-124.679
 21
-36.2216
  0
LINE
  8
0
 10
-124.679
 20
-36.2216
 11
-124.129
 21
-36.5241
  0
LINE
  8
0
 10
-124.129
 20
-36.5241
 11
-123.545
 21
-36.7553
  0
LINE
  8
0
 10
-123.545
 20
-36.7553
 11
-122.937
 21
-36.9114
  0
LINE
  8
0
 10
-122.937
 20
-36.9114
 11
-122.314
 21
-36.9901
  0
LINE
  8
0
 10
-122.314
 20
-36.9901
 11
122.314
 21
-36.9901
  0
LINE
  8
0
 10
122.314
 20
-36.9901
 11
122.937
 21
-36.9114
  0
LINE
  8
0
 10
119.812
 20
27.0059
 11
119.438
 21
27.0531
  0
LINE
  8
0
 10
119.438
 20
27.0531
 11
119.073
 21
27.1468
  0
LINE
  8
0
 10
119.073
 20
27.1468
 11
118.723
 21
27.2855
  0
LINE
  8
0
 10
118.723
 20
27.2855
 11
118.393
 21
27.467
  0
LINE
  8
0
 10
118.393
 20
27.467
 11
118.088
 21
27.6884
  0
LINE
  8
0
 10
118.088
 20
27.6884
 11
117.813
 21
27.9464
  0
LINE
  8
0
 10
117.813
 20
27.9464
 11
117.573
 21
28.2366
  0
LINE
  8
0
 10
117.573
 20
28.2366
 11
117.371
 21
28.5547
  0
LINE
  8
0
 10
117.371
 20
28.5547
 11
117.211
 21
28.8956
  0
LINE
  8
0
 10
117.211
 20
28.8956
 11
117.094
 21
29.2539
  0
LINE
  8
0
 10
117.094
 20
29.2539
 11
117.024
 21
29.624
  0
LINE
  8
0
 10
117.024
 20
29.624
 11
117
 21
30
  0
LINE
  8
0
 10
117
 20
30
 11
117.024
 21
30.376
  0
LINE
  8
0
 10
117.024
 20
30.376
 11
117.094
 21
30.7461
  0
LINE
  8
0
 10
117.094
 20
30.7461
 11
117.211
 21
31.1044
  0
LINE
  8
0
 10
117.211
 20
31.1044
 11
117.371
 21
31.4453
  0
LINE
  8
0
 10
117.371
 20
31.4453
 11
117.573
 21
31.7634
  0
LINE
  8
0
 10
117.573
 20
31.7634
 11
117.813
 21
32.0536
  0
LINE
  8
0
 10
117.813
 20
32.0536
 11
118.088
 21
32.3115
  0
LINE
  8
0
 10
118.088
 20
32.3115
 11
118.393
 21
32.533
  0
LINE
  8
0
 10
118.393
 20
32.533
 11
118.723
 21
32.7145
  0
LINE
  8
0
 10
118.723
 20
32.7145
 11
119.073
 21
32.8532
  0
LINE
  8
0
 10
119.073
 20
32.8532
 11
119.438
 21
32.9469
  0
LINE
  8
0
 10
119.438
 20
32.9469
 11
119.812
 21
32.9941
  0
LINE
  8
0
 10
119.812
 20
32.9941
 11
120.188
 21
32.9941
  0
LINE
  8
0
 10
120.188
 20
32.9941
 11
120.562
 21
32.9469
  0
LINE
  8
0
 10
120.562
 20
32.9469
 11
120.927
 21
32.8532
  0
LINE
  8
0
 10
120.927
 20
32.8532
 11
121.277
 21
32.7145
  0
LINE
  8
0
 10
121.277
 20
32.7145
 11
121.607
 21
32.533
  0
LINE
  8
0
 10
121.607
 20
32.533
 11
121.912
 21
32.3115
  0
LINE
  8
0
 10
121.912
 20
32.3115
 11
122.187
 21
32.0536
  0
LINE
  8
0
 10
122.187
 20
32.0536
 11
122.427
 21
31.7634
  0
LINE
  8
0
 10
122.427
 20
31.7634
 11
122.629
 21
31.4453
  0
LINE
  8
0
 10
122.629
 20
31.4453
 11
122.789
 21
31.1044
  0
LINE
  8
0
 10
122.789
 20
31.1044
 11
122.906
 21
30.7461
  0
LINE
  8
0
 10
122.906
 20
30.7461
 11
122.976
 21
30.376
  0
LINE
  8
0
 10
122.976
 20
30.376
 11
123
 21
30
  0
LINE
  8
0
 10
123
 20
30
 11
122.976
 21
29.624
  0
LINE
  8
0
 10
122.976
 20
29.624
 11
122.906
 21
29.2539
  0
LINE
  8
0
 10
122.906
 20
29.2539
 11
122.789
 21
28.8956
  0
LINE
  8
0
 10
122.789
 20
28.8956
 11
122.629
 21
28.5547
  0
LINE
  8
0
 10
122.629
 20
28.5547
 11
122.427
 21
28.2366
  0
LINE
  8
0
 10
122.427
 20
28.2366
 11
122.187
 21
27.9464
  0
LINE
  8
0
 10
122.187
 20
27.9464
 11
121.912
 21
27.6884
  0
LINE
  8
0
 10
121.912
 20
27.6884
 11
121.607
 21
27.467
  0
LINE
  8
0
 10
121.607
 20
27.467
 11
121.277
 21
27.2855
  0
LINE
  8
0
 10
121.277
 20
27.2855
 11
120.927
 21
27.1468
  0
LINE
  8
0
 10
120.927
 20
27.1468
 11
120.562
 21
27.0531
  0
LINE
  8
0
 10
120.562
 20
27.0531
 11
120.188
 21
27.0059
  0
LINE
  8
0
 10
120.188
 20
27.0059
 11
119.812
 21
27.0059
  0
LINE
  8
0
 10
-120.188
 20
27.0059
 11
-120.562
 21
27.0531
  0
LINE
  8
0
 10
-120.562
 20
27.0531
 11
-120.927
 21
27.1468
  0
LINE
  8
0
 10
-120.927
 20
27.1468
 11
-121.277
 21
27.2855
  0
LINE
  8
0
 10
-121.277
 20
27.2855
 11
-121.607
 21
27.467
  0
LINE
  8
0
 10
-121.607
 20
27.467
 11
-121.912
 21
27.6884
  0
LINE
  8
0
 10
-121.912
 20
27.6884
 11
-122.187
 21
27.9464
  0
LINE
  8
0
 10
-122.187
 20
27.9464
 11
-122.427
 21
28.2366
  0
LINE
  8
0
 10
-122.427
 20
28.2366
 11
-122.629
 21
28.5547
  0
LINE
  8
0
 10
-122.629
 20
28.5547
 11
-122.789
 21
28.8956
  0
LINE
  8
0
 10
-122.789
 20
28.8956
 11
-122.906
 21
29.2539
  0
LINE
  8
0
 10
-122.906
 20
29.2539
 11
-122.976
 21
29.624
  0
LINE
  8
0
 10
-122.976
 20
29.624
 11
-123
 21
30
  0
LINE
  8
0
 10
-123
 20
30
 11
-122.976
 21
30.376
  0
LINE
  8
0
 10
-122.976
 20
30.376
 11
-122.906
 21
30.7461
  0
LINE
  8
0
 10
-122.906
 20
30.7461
 11
-122.789
 21
31.1044
  0
LINE
  8
0
 10
-122.789
 20
31.1044
 11
-122.629
 21
31.4453
  0
LINE
  8
0
 10
-122.629
 20
31.4453
 11
-122.427
 21
31.7634
  0
LINE
  8
0
 10
-122.427
 20
31.7634
 11
-122.187
 21
32.0536
  0
LINE
  8
0
 10
-122.187
 20
32.0536
 11
-121.912
 21
32.3115
  0
LINE
  8
0
 10
-121.912
 20
32.3115
 11
-121.607
 21
32.533
  0
LINE
  8
0
 10
-121.607
 20
32.533
 11
-121.277
 21
32.7145
  0
LINE
  8
0
 10
-121.277
 20
32.7145
 11
-120.927
 21
32.8532
  0
LINE
  8
0
 10
-120.927
 20
32.8532
 11
-120.562
 21
32.9469
  0
LINE
  8
0
 10
-120.562
 20
32.9469
 11
-120.188
 21
32.9941
  0
LINE
  8
0
 10
-120.188
 20
32.9941
 11
-119.812
 21
32.9941
  0
LINE
  8
0
 10
-119.812
 20
32.9941
 11
-119.438
 21
32.9469
  0
LINE
  8
0
 10
-119.438
 20
32.9469
 11
-119.073
 21
32.8532
  0
LINE
  8
0
 10
-119.073
 20
32.8532
 11
-118.723
 21
32.7145
  0
LINE
  8
0
 10
-118.723
 20
32.7145
 11
-118.393
 21
32.533
  0
LINE
  8
0
 10
-118.393
 20
32.533
 11
-118.088
 21
32.3115
  0
LINE
  8
0
 10
-118.088
 20
32.3115
 11
-117.813
 21
32.0536
  0
LINE
  8
0
 10
-117.813
 20
32.0536
 11
-117.573
 21
31.7634
  0
LINE
  8
0
 10
-117.573
 20
31.7634
 11
-117.371
 21
31.4453
  0
LINE
  8
0
 10
-117.371
 20
31.4453
 11
-117.211
 21
31.1044
  0
LINE
  8
0
 10
-117.211
 20
31.1044
 11
-117.094
 21
30.7461
  0
LINE
  8
0
 10
-117.094
 20
30.7461
 11
-117.024
 21
30.376
  0
LINE
  8
0
 10
-117.024
 20
30.376
 11
-117
 21
30
  0
LINE
  8
0
 10
-117
 20
30
 11
-117.024
 21
29.624
  0
LINE
  8
0
 10
-117.024
 20
29.624
 11
-117.094
 21
29.2539
  0
LINE
  8
0
 10
-117.094
 20
29.2539
 11
-117.211
 21
28.8956
  0
LINE
  8
0
 10
-117.211
 20
28.8956
 11
-117.371
 21
28.5547
  0
LINE
  8
0
 10
-117.371
 20
28.5547
 11
-117.573
 21
28.2366
  0
LINE
  8
0
 10
-117.573
 20
28.2366
 11
-117.813
 21
27.9464
  0
LINE
  8
0
 10
-117.813
 20
27.9464
 11
-118.088
 21
27.6884
  0
LINE
  8
0
 10
-118.088
 20
27.6884
 11
-118.393
 21
27.467
  0
LINE
  8
0
 10
-118.393
 20
27.467
 11
-118.723
 21
27.2855
  0
LINE
  8
0
 10
-118.723
 20
27.2855
 11
-119.073
 21
27.1468
  0
LINE
  8
0
 10
-119.073
 20
27.1468
 11
-119.438
 21
27.0531
  0
LINE
  8
0
 10
-119.438
 20
27.0531
 11
-119.812
 21
27.0059
  0
LINE
  8
0
 10
-119.812
 20
27.0059
 11
-120.188
 21
27.0059
  0
LINE
  8
0
 10
119.812
 20
-32.9941
 11
119.438
 21
-32.9469
  0
LINE
  8
0
 10
119.438
 20
-32.9469
 11
119.073
 21
-32.8532
  0
LINE
  8
0
 10
119.073
 20
-32.8532
 11
118.723
 21
-32.7145
  0
LINE
  8
0
 10
118.723
 20
-32.7145
 11
118.393
 21
-32.533
  0
LINE
  8
0
 10
118.393
 20
-32.533
 11
118.088
 21
-32.3115
  0
LINE
  8
0
 10
118.088
 20
-32.3115
 11
117.813
 21
-32.0536
  0
LINE
  8
0
 10
117.813
 20
-32.0536
 11
117.573
 21
-31.7634
  0
LINE
  8
0
 10
117.573
 20
-31.7634
 11
117.371
 21
-31.4453
  0
LINE
  8
0
 10
117.371
 20
-31.4453
 11
117.211
 21
-31.1044
  0
LINE
  8
0
 10
117.211
 20
-31.1044
 11
117.094
 21
-30.7461
  0
LINE
  8
0
 10
117.094
 20
-30.7461
 11
117.024
 21
-30.376
  0
LINE
  8
0
 10
117.024
 20
-30.376
 11
117
 21
-30
  0
LINE
  8
0
 10
117
 20
-30
 11
117.024
 21
-29.624
  0
LINE
  8
0
 10
117.024
 20
-29.624
 11
117.094
 21
-29.2539
  0
LINE
  8
0
 10
117.094
 20
-29.2539
 11
117.211
 21
-28.8956
  0
LINE
  8
0
 10
117.211
 20
-28.8956
 11
117.371
 21
-28.5547
  0
LINE
  8
0
 10
117.371
 20
-28.5547
 11
117.573
 21
-28.2366
  0
LINE
  8
0
 10
117.573
 20
-28.2366
 11
117.813
 21
-27.9464
  0
LINE
  8
0
 10
117.813
 20
-27.9464
 11
118.088
 21
-27.6884
  0
LINE
  8
0
 10
118.088
 20
-27.6884
 11
118.393
 21
-27.467
  0
LINE
  8
0
 10
118.393
 20
-27.467
 11
118.723
 21
-27.2855
  0
LINE
  8
0
 10
118.723
 20
-27.2855
 11
119.073
 21
-27.1468
  0
LINE
  8
0
 10
119.073
 20
-27.1468
 11
119.438
 21
-27.0531
  0
LINE
  8
0
 10
119.438
 20
-27.0531
 11
119.812
 21
-27.0059
  0
LINE
  8
0
 10
119.812
 20
-27.0059
 11
120.188
 21
-27.0059
  0
LINE
  8
0
 10
120.188
 20
-27.0059
 11
120.562
 21
-27.0531
  0
LINE
  8
0
 10
120.562
 20
-27.0531
 11
120.927
 21
-27.1468
  0
LINE
  8
0
 10
120.927
 20
-27.1468
 11
121.277
 21
-27.2855
  0
LINE
  8
0
 10
121.277
 20
-27.2855
 11
121.607
 21
-27.467
  0
LINE
  8
0
 10
121.607
 20
-27.467
 11
121.912
 21
-27.6884
  0
LINE
  8
0
 10
121.912
 20
-27.6884
 11
122.187
 21
-27.9464
  0
LINE
  8
0
 10
122.187
 20
-27.9464
 11
122.427
 21
-28.2366
  0
LINE
  8
0
 10
122.427
 20
-28.2366
 11
122.629
 21
-28.5547
  0
LINE
  8
0
 10
122.629
 20
-28.5547
 11
122.789
 21
-28.8956
  0
LINE
  8
0
 10
122.789
 20
-28.8956
 11
122.906
 21
-29.2539
  0
LINE
  8
0
 10
122.906
 20
-29.2539
 11
122.976
 21
-29.624
  0
LINE
  8
0
 10
122.976
 20
-29.624
 11
123
 21
-30
  0
LINE
  8
0
 10
123
 20
-30
 11
122.976
 21
-30.376
  0
LINE
  8
0
 10
122.976
 20
-30.376
 11
122.906
 21
-30.7461
  0
LINE
  8
0
 10
122.906
 20
-30.7461
 11
122.789
 21
-31.1044
  0
LINE
  8
0
 10
122.789
 20
-31.1044
 11
122.629
 21
-31.4453
  0
LINE
  8
0
 10
122.629
 20
-31.4453
 11
122.427
 21
-31.7634
  0
LINE
  8
0
 10
122.427
 20
-31.7634
 11
122.187
 21
-32.0536
  0
LINE
  8
0
 10
122.187
 20
-32.0536
 11
121.912
 21
-32.3115
  0
LINE
  8
0
 10
121.912
 20
-32.3115
 11
121.607
 21
-32.533
  0
LINE
  8
0
 10
121.607
 20
-32.533
 11
121.277
 21
-32.7145
  0
LINE
  8
0
 10
121.277
 20
-32.7145
 11
120.927
 21
-32.8532
  0
LINE
  8
0
 10
120.927
 20
-32.8532
 11
120.562
 21
-32.9469
  0
LINE
  8
0
 10
120.562
 20
-32.9469
 11
120.188
 21
-32.9941
  0
LINE
  8
0
 10
120.188
 20
-32.9941
 11
119.812
 21
-32.9941
  0
LINE
  8
0
 10
-120.188
 20
-32.9941
 11
-120.562
 21
-32.9469
  0
LINE
  8
0
 10
-120.562
 20
-32.9469
 11
-120.927
 21
-32.8532
  0
LINE
  8
0
 10
-120.927
 20
-32.8532
 11
-121.277
 21
-32.7145
  0
LINE
  8
0
 10
-121.277
 20
-32.7145
 11
-121.607
 21
-32.533
  0
LINE
  8
0
 10
-121.607
 20
-32.533
 11
-121.912
 21
-32.3115
  0
LINE
  8
0
 10
-121.912
 20
-32.3115
 11
-122.187
 21
-32.0536
  0
LINE
  8
0
 10
-122.187
 20
-32.0536
 11
-122.427
 21
-31.7634
  0
LINE
  8
0
 10
-122.427
 20
-31.7634
 11
-122.629
 21
-31.4453
  0
LINE
  8
0
 10
-122.629
 20
-31.4453
 11
-122.789
 21
-31.1044
  0
LINE
  8
0
 10
-122.789
 20
-31.1044
 11
-122.906
 21
-30.7461
  0
LINE
  8
0
 10
-122.906
 20
-30.7461
 11
-122.976
 21
-30.376
  0
LINE
  8
0
 10
-122.976
 20
-30.376
 11
-123
 21
-30
  0
LINE
  8
0
 10
-123
 20
-30
 11
-122.976
 21
-29.624
  0
LINE
  8
0
 10
-122.976
 20
-29.624
 11
-122.906
 21
-29.2539
  0
LINE
  8
0
 10
-122.906
 20
-29.2539
 11
-122.789
 21
-28.8956
  0
LINE
  8
0
 10
-122.789
 20
-28.8956
 11
-122.629
 21
-28.5547
  0
LINE
  8
0
 10
-122.629
 20
-28.5547
 11
-122.427
 21
-28.2366
  0
LINE
  8
0
 10
-122.427
 20
-28.2366
 11
-122.187
 21
-27.9464
  0
LINE
  8
0
 10
-122.187
 20
-27.9464
 11
-121.912
 21
-27.6884
  0
LINE
  8
0
 10
-121.912
 20
-27.6884
 11
-121.607
 21
-27.467
  0
LINE
  8
0
 10
-121.607
 20
-27.467
 11
-121.277
 21
-27.2855
  0
LINE
  8
0
 10
-121.277
 20
-27.2855
 11
-120.927
 21
-27.1468
  0
LINE
  8
0
 10
-120.927
 20
-27.1468
 11
-120.562
 21
-27.0531
  0
LINE
  8
0
 10
-120.562
 20
-27.0531
 11
-120.188
 21
-27.0059
  0
LINE
  8
0
 10
-120.188
 20
-27.0059
 11
-119.812
 21
-27.0059
  0
LINE
  8
0
 10
-119.812
 20
-27.0059
 11
-119.438
 21
-27.0531
  0
LINE
  8
0
 10
-119.438
 20
-27.0531
 11
-119.073
 21
-27.1468
  0
LINE
  8
0
 10
-119.073
 20
-27.1468
 11
-118.723
 21
-27.2855
  0
LINE
  8
0
 10
-118.723
 20
-27.2855
 11
-118.393
 21
-27.467
  0
LINE
  8
0
 10
-118.393
 20
-27.467
 11
-118.088
 21
-27.6884
  0
LINE
  8
0
 10
-118.088
 20
-27.6884
 11
-117.813
 21
-27.9464
  0
LINE
  8
0
 10
-117.813
 20
-27.9464
 11
-117.573
 21
-28.2366
  0
LINE
  8
0
 10
-117.573
 20
-28.2366
 11
-117.371
 21
-28.5547
  0
LINE
  8
0
 10
-117.371
 20
-28.5547
 11
-117.211
 21
-28.8956
  0
LINE
  8
0
 10
-117.211
 20
-28.8956
 11
-117.094
 21
-29.2539
  0
LINE
  8
0
 10
-117.094
 20
-29.2539
 11
-117.024
 21
-29.624
  0
LINE
  8
0
 10
-117.024
 20
-29.624
 11
-117
 21
-30
  0
LINE
  8
0
 10
-117
 20
-30
 11
-117.024
 21
-30.376
  0
LINE
  8
0
 10
-117.024
 20
-30.376
 11
-117.094
 21
-30.7461
  0
LINE
  8
0
 10
-117.094
 20
-30.7461
 11
-117.211
 21
-31.1044
  0
LINE
  8
0
 10
-117.211
 20
-31.1044
 11
-117.371
 21
-31.4453
  0
LINE
  8
0
 10
-117.371
 20
-31.4453
 11
-117.573
 21
-31.7634
  0
LINE
  8
0
 10
-117.573
 20
-31.7634
 11
-117.813
 21
-32.0536
  0
LINE
  8
0
 10
-117.813
 20
-32.0536
 11
-118.088
 21
-32.3115
  0
LINE
  8
0
 10
-118.088
 20
-32.3115
 11
-118.393
 21
-32.533
  0
LINE
  8
0
 10
-118.393
 20
-32.533
 11
-118.723
 21
-32.7145
  0
LINE
  8
0
 10
-118.723
 20
-32.7145
 11
-119.073
 21
-32.8532
  0
LINE
  8
0
 10
-119.073
 20
-32.8532
 11
-119.438
 21
-32.9469
  0
LINE
  8
0
 10
-119.438
 20
-32.9469
 11
-119.812
 21
-32.9941
  0
LINE
  8
0
 10
-119.812
 20
-32.9941
 11
-120.188
 21
-32.9941
  0
ENDSEC
  0
SECTION
  2
OBJECTS
  0
DICTIONARY
  0
ENDSEC
  0
EOF
