solid OpenSCAD_Model
  facet normal -0.904808 -0.425821 0
    outer loop
      vertex -56.9782 1.1964 0
      vertex -57.152 1.5657 15
      vertex -57.152 1.5657 0
    endloop
  endfacet
  facet normal -0.904808 -0.425821 0
    outer loop
      vertex -57.152 1.5657 15
      vertex -56.9782 1.1964 0
      vertex -56.9782 1.1964 15
    endloop
  endfacet
  facet normal -0.844317 -0.535845 0
    outer loop
      vertex -57.152 1.5657 0
      vertex -57.3707 1.9103 15
      vertex -57.3707 1.9103 0
    endloop
  endfacet
  facet normal -0.844317 -0.535845 0
    outer loop
      vertex -57.3707 1.9103 15
      vertex -57.152 1.5657 0
      vertex -57.152 1.5657 15
    endloop
  endfacet
  facet normal -0.368093 -0.929789 0
    outer loop
      vertex -58.9957 3.09093 0
      vertex -58.6162 2.94069 15
      vertex -58.9957 3.09093 15
    endloop
  endfacet
  facet normal -0.368093 -0.929789 -0
    outer loop
      vertex -58.6162 2.94069 15
      vertex -58.9957 3.09093 0
      vertex -58.6162 2.94069 0
    endloop
  endfacet
  facet normal 0.368093 -0.929789 0
    outer loop
      vertex -61.3838 2.94069 0
      vertex -61.0043 3.09093 15
      vertex -61.3838 2.94069 15
    endloop
  endfacet
  facet normal 0.368093 -0.929789 0
    outer loop
      vertex -61.0043 3.09093 15
      vertex -61.3838 2.94069 0
      vertex -61.0043 3.09093 0
    endloop
  endfacet
  facet normal 0.904808 -0.425821 0
    outer loop
      vertex -63.0218 1.1964 15
      vertex -62.848 1.5657 0
      vertex -62.848 1.5657 15
    endloop
  endfacet
  facet normal 0.904808 -0.425821 0
    outer loop
      vertex -62.848 1.5657 0
      vertex -63.0218 1.1964 15
      vertex -63.0218 1.1964 0
    endloop
  endfacet
  facet normal -0.982277 0.187434 0
    outer loop
      vertex -56.8521 -0.808242 0
      vertex -56.7756 -0.407332 15
      vertex -56.7756 -0.407332 0
    endloop
  endfacet
  facet normal -0.982277 0.187434 0
    outer loop
      vertex -56.7756 -0.407332 15
      vertex -56.8521 -0.808242 0
      vertex -56.8521 -0.808242 15
    endloop
  endfacet
  facet normal -0.125356 -0.992112 0
    outer loop
      vertex -59.7959 3.24359 0
      vertex -59.391 3.19243 15
      vertex -59.7959 3.24359 15
    endloop
  endfacet
  facet normal -0.125356 -0.992112 -0
    outer loop
      vertex -59.391 3.19243 15
      vertex -59.7959 3.24359 0
      vertex -59.391 3.19243 0
    endloop
  endfacet
  facet normal -0.587778 -0.809022 0
    outer loop
      vertex -58.2586 2.74407 0
      vertex -57.9284 2.50417 15
      vertex -58.2586 2.74407 15
    endloop
  endfacet
  facet normal -0.587778 -0.809022 -0
    outer loop
      vertex -57.9284 2.50417 15
      vertex -58.2586 2.74407 0
      vertex -57.9284 2.50417 0
    endloop
  endfacet
  facet normal 0.982277 -0.187434 0
    outer loop
      vertex -63.2244 0.407332 15
      vertex -63.1479 0.808242 0
      vertex -63.1479 0.808242 15
    endloop
  endfacet
  facet normal 0.982277 -0.187434 0
    outer loop
      vertex -63.1479 0.808242 0
      vertex -63.2244 0.407332 15
      vertex -63.2244 0.407332 0
    endloop
  endfacet
  facet normal 0.770466 -0.637481 0
    outer loop
      vertex -62.6293 1.9103 15
      vertex -62.3691 2.22478 0
      vertex -62.3691 2.22478 15
    endloop
  endfacet
  facet normal 0.770466 -0.637481 0
    outer loop
      vertex -62.3691 2.22478 0
      vertex -62.6293 1.9103 15
      vertex -62.6293 1.9103 0
    endloop
  endfacet
  facet normal 0.481806 -0.876278 0
    outer loop
      vertex -61.7414 2.74407 0
      vertex -61.3838 2.94069 15
      vertex -61.7414 2.74407 15
    endloop
  endfacet
  facet normal 0.481806 -0.876278 0
    outer loop
      vertex -61.3838 2.94069 15
      vertex -61.7414 2.74407 0
      vertex -61.3838 2.94069 0
    endloop
  endfacet
  facet normal 0.125356 -0.992112 0
    outer loop
      vertex -60.609 3.19243 0
      vertex -60.2041 3.24359 15
      vertex -60.609 3.19243 15
    endloop
  endfacet
  facet normal 0.125356 -0.992112 0
    outer loop
      vertex -60.2041 3.24359 15
      vertex -60.609 3.19243 0
      vertex -60.2041 3.24359 0
    endloop
  endfacet
  facet normal -0.998031 -0.0627242 0
    outer loop
      vertex -56.75 0 0
      vertex -56.7756 0.407332 15
      vertex -56.7756 0.407332 0
    endloop
  endfacet
  facet normal -0.998031 -0.0627242 0
    outer loop
      vertex -56.7756 0.407332 15
      vertex -56.75 0 0
      vertex -56.75 0 15
    endloop
  endfacet
  facet normal -0.951071 0.308972 0
    outer loop
      vertex -56.9782 -1.1964 0
      vertex -56.8521 -0.808242 15
      vertex -56.8521 -0.808242 0
    endloop
  endfacet
  facet normal -0.951071 0.308972 0
    outer loop
      vertex -56.8521 -0.808242 15
      vertex -56.9782 -1.1964 0
      vertex -56.9782 -1.1964 15
    endloop
  endfacet
  facet normal -0.587778 0.809022 0
    outer loop
      vertex -57.9284 -2.50417 0
      vertex -58.2586 -2.74407 15
      vertex -57.9284 -2.50417 15
    endloop
  endfacet
  facet normal -0.587778 0.809022 0
    outer loop
      vertex -58.2586 -2.74407 15
      vertex -57.9284 -2.50417 0
      vertex -58.2586 -2.74407 0
    endloop
  endfacet
  facet normal -0.982277 -0.187434 0
    outer loop
      vertex -56.7756 0.407332 0
      vertex -56.8521 0.808242 15
      vertex -56.8521 0.808242 0
    endloop
  endfacet
  facet normal -0.982277 -0.187434 0
    outer loop
      vertex -56.8521 0.808242 15
      vertex -56.7756 0.407332 0
      vertex -56.7756 0.407332 15
    endloop
  endfacet
  facet normal -0.951071 -0.308972 0
    outer loop
      vertex -56.8521 0.808242 0
      vertex -56.9782 1.1964 15
      vertex -56.9782 1.1964 0
    endloop
  endfacet
  facet normal -0.951071 -0.308972 0
    outer loop
      vertex -56.9782 1.1964 15
      vertex -56.8521 0.808242 0
      vertex -56.8521 0.808242 15
    endloop
  endfacet
  facet normal -0.684572 -0.728946 0
    outer loop
      vertex -57.9284 2.50417 0
      vertex -57.6309 2.22478 15
      vertex -57.9284 2.50417 15
    endloop
  endfacet
  facet normal -0.684572 -0.728946 -0
    outer loop
      vertex -57.6309 2.22478 15
      vertex -57.9284 2.50417 0
      vertex -57.6309 2.22478 0
    endloop
  endfacet
  facet normal 0 -1 0
    outer loop
      vertex -60.2041 3.24359 0
      vertex -59.7959 3.24359 15
      vertex -60.2041 3.24359 15
    endloop
  endfacet
  facet normal 0 -1 -0
    outer loop
      vertex -59.7959 3.24359 15
      vertex -60.2041 3.24359 0
      vertex -59.7959 3.24359 0
    endloop
  endfacet
  facet normal -0.2487 -0.968581 0
    outer loop
      vertex -59.391 3.19243 0
      vertex -58.9957 3.09093 15
      vertex -59.391 3.19243 15
    endloop
  endfacet
  facet normal -0.2487 -0.968581 -0
    outer loop
      vertex -58.9957 3.09093 15
      vertex -59.391 3.19243 0
      vertex -58.9957 3.09093 0
    endloop
  endfacet
  facet normal -0.481806 -0.876278 0
    outer loop
      vertex -58.6162 2.94069 0
      vertex -58.2586 2.74407 15
      vertex -58.6162 2.94069 15
    endloop
  endfacet
  facet normal -0.481806 -0.876278 -0
    outer loop
      vertex -58.2586 2.74407 15
      vertex -58.6162 2.94069 0
      vertex -58.2586 2.74407 0
    endloop
  endfacet
  facet normal 0.998031 -0.0627242 0
    outer loop
      vertex -63.25 0 15
      vertex -63.2244 0.407332 0
      vertex -63.2244 0.407332 15
    endloop
  endfacet
  facet normal 0.998031 -0.0627242 0
    outer loop
      vertex -63.2244 0.407332 0
      vertex -63.25 0 15
      vertex -63.25 0 0
    endloop
  endfacet
  facet normal 0.951071 -0.308972 0
    outer loop
      vertex -63.1479 0.808242 15
      vertex -63.0218 1.1964 0
      vertex -63.0218 1.1964 15
    endloop
  endfacet
  facet normal 0.951071 -0.308972 0
    outer loop
      vertex -63.0218 1.1964 0
      vertex -63.1479 0.808242 15
      vertex -63.1479 0.808242 0
    endloop
  endfacet
  facet normal 0.844317 -0.535845 0
    outer loop
      vertex -62.848 1.5657 15
      vertex -62.6293 1.9103 0
      vertex -62.6293 1.9103 15
    endloop
  endfacet
  facet normal 0.844317 -0.535845 0
    outer loop
      vertex -62.6293 1.9103 0
      vertex -62.848 1.5657 15
      vertex -62.848 1.5657 0
    endloop
  endfacet
  facet normal 0.2487 -0.968581 0
    outer loop
      vertex -61.0043 3.09093 0
      vertex -60.609 3.19243 15
      vertex -61.0043 3.09093 15
    endloop
  endfacet
  facet normal 0.2487 -0.968581 0
    outer loop
      vertex -60.609 3.19243 15
      vertex -61.0043 3.09093 0
      vertex -60.609 3.19243 0
    endloop
  endfacet
  facet normal 0.587778 -0.809022 0
    outer loop
      vertex -62.0716 2.50417 0
      vertex -61.7414 2.74407 15
      vertex -62.0716 2.50417 15
    endloop
  endfacet
  facet normal 0.587778 -0.809022 0
    outer loop
      vertex -61.7414 2.74407 15
      vertex -62.0716 2.50417 0
      vertex -61.7414 2.74407 0
    endloop
  endfacet
  facet normal 0.684572 -0.728946 0
    outer loop
      vertex -62.3691 2.22478 0
      vertex -62.0716 2.50417 15
      vertex -62.3691 2.22478 15
    endloop
  endfacet
  facet normal 0.684572 -0.728946 0
    outer loop
      vertex -62.0716 2.50417 15
      vertex -62.3691 2.22478 0
      vertex -62.0716 2.50417 0
    endloop
  endfacet
  facet normal -0.998031 0.0627242 0
    outer loop
      vertex -56.7756 -0.407332 0
      vertex -56.75 0 15
      vertex -56.75 0 0
    endloop
  endfacet
  facet normal -0.998031 0.0627242 0
    outer loop
      vertex -56.75 0 15
      vertex -56.7756 -0.407332 0
      vertex -56.7756 -0.407332 15
    endloop
  endfacet
  facet normal -0.844317 0.535845 0
    outer loop
      vertex -57.3707 -1.9103 0
      vertex -57.152 -1.5657 15
      vertex -57.152 -1.5657 0
    endloop
  endfacet
  facet normal -0.844317 0.535845 0
    outer loop
      vertex -57.152 -1.5657 15
      vertex -57.3707 -1.9103 0
      vertex -57.3707 -1.9103 15
    endloop
  endfacet
  facet normal 0 1 -0
    outer loop
      vertex -59.7959 -3.24359 0
      vertex -60.2041 -3.24359 15
      vertex -59.7959 -3.24359 15
    endloop
  endfacet
  facet normal 0 1 0
    outer loop
      vertex -60.2041 -3.24359 15
      vertex -59.7959 -3.24359 0
      vertex -60.2041 -3.24359 0
    endloop
  endfacet
  facet normal 0.951071 0.308972 0
    outer loop
      vertex -63.0218 -1.1964 15
      vertex -63.1479 -0.808242 0
      vertex -63.1479 -0.808242 15
    endloop
  endfacet
  facet normal 0.951071 0.308972 0
    outer loop
      vertex -63.1479 -0.808242 0
      vertex -63.0218 -1.1964 15
      vertex -63.0218 -1.1964 0
    endloop
  endfacet
  facet normal 0.904808 0.425821 0
    outer loop
      vertex -62.848 -1.5657 15
      vertex -63.0218 -1.1964 0
      vertex -63.0218 -1.1964 15
    endloop
  endfacet
  facet normal 0.904808 0.425821 0
    outer loop
      vertex -63.0218 -1.1964 0
      vertex -62.848 -1.5657 15
      vertex -62.848 -1.5657 0
    endloop
  endfacet
  facet normal -0.125356 0.992112 0
    outer loop
      vertex -59.391 -3.19243 0
      vertex -59.7959 -3.24359 15
      vertex -59.391 -3.19243 15
    endloop
  endfacet
  facet normal -0.125356 0.992112 0
    outer loop
      vertex -59.7959 -3.24359 15
      vertex -59.391 -3.19243 0
      vertex -59.7959 -3.24359 0
    endloop
  endfacet
  facet normal -0.770466 -0.637481 0
    outer loop
      vertex -57.3707 1.9103 0
      vertex -57.6309 2.22478 15
      vertex -57.6309 2.22478 0
    endloop
  endfacet
  facet normal -0.770466 -0.637481 0
    outer loop
      vertex -57.6309 2.22478 15
      vertex -57.3707 1.9103 0
      vertex -57.3707 1.9103 15
    endloop
  endfacet
  facet normal -0.2487 0.968581 0
    outer loop
      vertex -58.9957 -3.09093 0
      vertex -59.391 -3.19243 15
      vertex -58.9957 -3.09093 15
    endloop
  endfacet
  facet normal -0.2487 0.968581 0
    outer loop
      vertex -59.391 -3.19243 15
      vertex -58.9957 -3.09093 0
      vertex -59.391 -3.19243 0
    endloop
  endfacet
  facet normal -0.481806 0.876278 0
    outer loop
      vertex -58.2586 -2.74407 0
      vertex -58.6162 -2.94069 15
      vertex -58.2586 -2.74407 15
    endloop
  endfacet
  facet normal -0.481806 0.876278 0
    outer loop
      vertex -58.6162 -2.94069 15
      vertex -58.2586 -2.74407 0
      vertex -58.6162 -2.94069 0
    endloop
  endfacet
  facet normal -0.368093 0.929789 0
    outer loop
      vertex -58.6162 -2.94069 0
      vertex -58.9957 -3.09093 15
      vertex -58.6162 -2.94069 15
    endloop
  endfacet
  facet normal -0.368093 0.929789 0
    outer loop
      vertex -58.9957 -3.09093 15
      vertex -58.6162 -2.94069 0
      vertex -58.9957 -3.09093 0
    endloop
  endfacet
  facet normal -0.684572 0.728946 0
    outer loop
      vertex -57.6309 -2.22478 0
      vertex -57.9284 -2.50417 15
      vertex -57.6309 -2.22478 15
    endloop
  endfacet
  facet normal -0.684572 0.728946 0
    outer loop
      vertex -57.9284 -2.50417 15
      vertex -57.6309 -2.22478 0
      vertex -57.9284 -2.50417 0
    endloop
  endfacet
  facet normal -0.904808 0.425821 0
    outer loop
      vertex -57.152 -1.5657 0
      vertex -56.9782 -1.1964 15
      vertex -56.9782 -1.1964 0
    endloop
  endfacet
  facet normal -0.904808 0.425821 0
    outer loop
      vertex -56.9782 -1.1964 15
      vertex -57.152 -1.5657 0
      vertex -57.152 -1.5657 15
    endloop
  endfacet
  facet normal 0.587778 0.809022 -0
    outer loop
      vertex -61.7414 -2.74407 0
      vertex -62.0716 -2.50417 15
      vertex -61.7414 -2.74407 15
    endloop
  endfacet
  facet normal 0.587778 0.809022 0
    outer loop
      vertex -62.0716 -2.50417 15
      vertex -61.7414 -2.74407 0
      vertex -62.0716 -2.50417 0
    endloop
  endfacet
  facet normal 0.2487 0.968581 -0
    outer loop
      vertex -60.609 -3.19243 0
      vertex -61.0043 -3.09093 15
      vertex -60.609 -3.19243 15
    endloop
  endfacet
  facet normal 0.2487 0.968581 0
    outer loop
      vertex -61.0043 -3.09093 15
      vertex -60.609 -3.19243 0
      vertex -61.0043 -3.09093 0
    endloop
  endfacet
  facet normal 0.125356 0.992112 -0
    outer loop
      vertex -60.2041 -3.24359 0
      vertex -60.609 -3.19243 15
      vertex -60.2041 -3.24359 15
    endloop
  endfacet
  facet normal 0.125356 0.992112 0
    outer loop
      vertex -60.609 -3.19243 15
      vertex -60.2041 -3.24359 0
      vertex -60.609 -3.19243 0
    endloop
  endfacet
  facet normal 0.770466 0.637481 0
    outer loop
      vertex -62.3691 -2.22478 15
      vertex -62.6293 -1.9103 0
      vertex -62.6293 -1.9103 15
    endloop
  endfacet
  facet normal 0.770466 0.637481 0
    outer loop
      vertex -62.6293 -1.9103 0
      vertex -62.3691 -2.22478 15
      vertex -62.3691 -2.22478 0
    endloop
  endfacet
  facet normal 0.684572 0.728946 -0
    outer loop
      vertex -62.0716 -2.50417 0
      vertex -62.3691 -2.22478 15
      vertex -62.0716 -2.50417 15
    endloop
  endfacet
  facet normal 0.684572 0.728946 0
    outer loop
      vertex -62.3691 -2.22478 15
      vertex -62.0716 -2.50417 0
      vertex -62.3691 -2.22478 0
    endloop
  endfacet
  facet normal 0.982277 0.187434 0
    outer loop
      vertex -63.1479 -0.808242 15
      vertex -63.2244 -0.407332 0
      vertex -63.2244 -0.407332 15
    endloop
  endfacet
  facet normal 0.982277 0.187434 0
    outer loop
      vertex -63.2244 -0.407332 0
      vertex -63.1479 -0.808242 15
      vertex -63.1479 -0.808242 0
    endloop
  endfacet
  facet normal 0.998031 0.0627242 0
    outer loop
      vertex -63.2244 -0.407332 15
      vertex -63.25 0 0
      vertex -63.25 0 15
    endloop
  endfacet
  facet normal 0.998031 0.0627242 0
    outer loop
      vertex -63.25 0 0
      vertex -63.2244 -0.407332 15
      vertex -63.2244 -0.407332 0
    endloop
  endfacet
  facet normal -0.770466 0.637481 0
    outer loop
      vertex -57.6309 -2.22478 0
      vertex -57.3707 -1.9103 15
      vertex -57.3707 -1.9103 0
    endloop
  endfacet
  facet normal -0.770466 0.637481 0
    outer loop
      vertex -57.3707 -1.9103 15
      vertex -57.6309 -2.22478 0
      vertex -57.6309 -2.22478 15
    endloop
  endfacet
  facet normal 0.481806 0.876278 -0
    outer loop
      vertex -61.3838 -2.94069 0
      vertex -61.7414 -2.74407 15
      vertex -61.3838 -2.94069 15
    endloop
  endfacet
  facet normal 0.481806 0.876278 0
    outer loop
      vertex -61.7414 -2.74407 15
      vertex -61.3838 -2.94069 0
      vertex -61.7414 -2.74407 0
    endloop
  endfacet
  facet normal 0.844317 0.535845 0
    outer loop
      vertex -62.6293 -1.9103 15
      vertex -62.848 -1.5657 0
      vertex -62.848 -1.5657 15
    endloop
  endfacet
  facet normal 0.844317 0.535845 0
    outer loop
      vertex -62.848 -1.5657 0
      vertex -62.6293 -1.9103 15
      vertex -62.6293 -1.9103 0
    endloop
  endfacet
  facet normal 0.368093 0.929789 -0
    outer loop
      vertex -61.0043 -3.09093 0
      vertex -61.3838 -2.94069 15
      vertex -61.0043 -3.09093 15
    endloop
  endfacet
  facet normal 0.368093 0.929789 0
    outer loop
      vertex -61.3838 -2.94069 15
      vertex -61.0043 -3.09093 0
      vertex -61.3838 -2.94069 0
    endloop
  endfacet
  facet normal -0.587778 -0.809022 0
    outer loop
      vertex 61.7414 2.74407 0
      vertex 62.0716 2.50417 15
      vertex 61.7414 2.74407 15
    endloop
  endfacet
  facet normal -0.587778 -0.809022 -0
    outer loop
      vertex 62.0716 2.50417 15
      vertex 61.7414 2.74407 0
      vertex 62.0716 2.50417 0
    endloop
  endfacet
  facet normal -0.982277 0.187434 0
    outer loop
      vertex 63.1479 -0.808242 0
      vertex 63.2244 -0.407332 15
      vertex 63.2244 -0.407332 0
    endloop
  endfacet
  facet normal -0.982277 0.187434 0
    outer loop
      vertex 63.2244 -0.407332 15
      vertex 63.1479 -0.808242 0
      vertex 63.1479 -0.808242 15
    endloop
  endfacet
  facet normal 0.2487 0.968581 -0
    outer loop
      vertex 59.391 -3.19243 0
      vertex 58.9957 -3.09093 15
      vertex 59.391 -3.19243 15
    endloop
  endfacet
  facet normal 0.2487 0.968581 0
    outer loop
      vertex 58.9957 -3.09093 15
      vertex 59.391 -3.19243 0
      vertex 58.9957 -3.09093 0
    endloop
  endfacet
  facet normal 0.481806 -0.876278 0
    outer loop
      vertex 58.2586 2.74407 0
      vertex 58.6162 2.94069 15
      vertex 58.2586 2.74407 15
    endloop
  endfacet
  facet normal 0.481806 -0.876278 0
    outer loop
      vertex 58.6162 2.94069 15
      vertex 58.2586 2.74407 0
      vertex 58.6162 2.94069 0
    endloop
  endfacet
  facet normal 0.951071 -0.308972 0
    outer loop
      vertex 56.8521 0.808242 15
      vertex 56.9782 1.1964 0
      vertex 56.9782 1.1964 15
    endloop
  endfacet
  facet normal 0.951071 -0.308972 0
    outer loop
      vertex 56.9782 1.1964 0
      vertex 56.8521 0.808242 15
      vertex 56.8521 0.808242 0
    endloop
  endfacet
  facet normal 0.368093 0.929789 -0
    outer loop
      vertex 58.9957 -3.09093 0
      vertex 58.6162 -2.94069 15
      vertex 58.9957 -3.09093 15
    endloop
  endfacet
  facet normal 0.368093 0.929789 0
    outer loop
      vertex 58.6162 -2.94069 15
      vertex 58.9957 -3.09093 0
      vertex 58.6162 -2.94069 0
    endloop
  endfacet
  facet normal -0.904808 -0.425821 0
    outer loop
      vertex 63.0218 1.1964 0
      vertex 62.848 1.5657 15
      vertex 62.848 1.5657 0
    endloop
  endfacet
  facet normal -0.904808 -0.425821 0
    outer loop
      vertex 62.848 1.5657 15
      vertex 63.0218 1.1964 0
      vertex 63.0218 1.1964 15
    endloop
  endfacet
  facet normal -0.844317 -0.535845 0
    outer loop
      vertex 62.848 1.5657 0
      vertex 62.6293 1.9103 15
      vertex 62.6293 1.9103 0
    endloop
  endfacet
  facet normal -0.844317 -0.535845 0
    outer loop
      vertex 62.6293 1.9103 15
      vertex 62.848 1.5657 0
      vertex 62.848 1.5657 15
    endloop
  endfacet
  facet normal -0.368093 -0.929789 0
    outer loop
      vertex 61.0043 3.09093 0
      vertex 61.3838 2.94069 15
      vertex 61.0043 3.09093 15
    endloop
  endfacet
  facet normal -0.368093 -0.929789 -0
    outer loop
      vertex 61.3838 2.94069 15
      vertex 61.0043 3.09093 0
      vertex 61.3838 2.94069 0
    endloop
  endfacet
  facet normal -0.125356 -0.992112 0
    outer loop
      vertex 60.2041 3.24359 0
      vertex 60.609 3.19243 15
      vertex 60.2041 3.24359 15
    endloop
  endfacet
  facet normal -0.125356 -0.992112 -0
    outer loop
      vertex 60.609 3.19243 15
      vertex 60.2041 3.24359 0
      vertex 60.609 3.19243 0
    endloop
  endfacet
  facet normal 0.998031 0.0627242 0
    outer loop
      vertex 56.7756 -0.407332 15
      vertex 56.75 0 0
      vertex 56.75 0 15
    endloop
  endfacet
  facet normal 0.998031 0.0627242 0
    outer loop
      vertex 56.75 0 0
      vertex 56.7756 -0.407332 15
      vertex 56.7756 -0.407332 0
    endloop
  endfacet
  facet normal 0.844317 -0.535845 0
    outer loop
      vertex 57.152 1.5657 15
      vertex 57.3707 1.9103 0
      vertex 57.3707 1.9103 15
    endloop
  endfacet
  facet normal 0.844317 -0.535845 0
    outer loop
      vertex 57.3707 1.9103 0
      vertex 57.152 1.5657 15
      vertex 57.152 1.5657 0
    endloop
  endfacet
  facet normal 0.587778 -0.809022 0
    outer loop
      vertex 57.9284 2.50417 0
      vertex 58.2586 2.74407 15
      vertex 57.9284 2.50417 15
    endloop
  endfacet
  facet normal 0.587778 -0.809022 0
    outer loop
      vertex 58.2586 2.74407 15
      vertex 57.9284 2.50417 0
      vertex 58.2586 2.74407 0
    endloop
  endfacet
  facet normal 0.2487 -0.968581 0
    outer loop
      vertex 58.9957 3.09093 0
      vertex 59.391 3.19243 15
      vertex 58.9957 3.09093 15
    endloop
  endfacet
  facet normal 0.2487 -0.968581 0
    outer loop
      vertex 59.391 3.19243 15
      vertex 58.9957 3.09093 0
      vertex 59.391 3.19243 0
    endloop
  endfacet
  facet normal -0.998031 -0.0627242 0
    outer loop
      vertex 63.25 0 0
      vertex 63.2244 0.407332 15
      vertex 63.2244 0.407332 0
    endloop
  endfacet
  facet normal -0.998031 -0.0627242 0
    outer loop
      vertex 63.2244 0.407332 15
      vertex 63.25 0 0
      vertex 63.25 0 15
    endloop
  endfacet
  facet normal -0.844317 0.535845 0
    outer loop
      vertex 62.6293 -1.9103 0
      vertex 62.848 -1.5657 15
      vertex 62.848 -1.5657 0
    endloop
  endfacet
  facet normal -0.844317 0.535845 0
    outer loop
      vertex 62.848 -1.5657 15
      vertex 62.6293 -1.9103 0
      vertex 62.6293 -1.9103 15
    endloop
  endfacet
  facet normal -0.951071 0.308972 0
    outer loop
      vertex 63.0218 -1.1964 0
      vertex 63.1479 -0.808242 15
      vertex 63.1479 -0.808242 0
    endloop
  endfacet
  facet normal -0.951071 0.308972 0
    outer loop
      vertex 63.1479 -0.808242 15
      vertex 63.0218 -1.1964 0
      vertex 63.0218 -1.1964 15
    endloop
  endfacet
  facet normal -0.481806 0.876278 0
    outer loop
      vertex 61.7414 -2.74407 0
      vertex 61.3838 -2.94069 15
      vertex 61.7414 -2.74407 15
    endloop
  endfacet
  facet normal -0.481806 0.876278 0
    outer loop
      vertex 61.3838 -2.94069 15
      vertex 61.7414 -2.74407 0
      vertex 61.3838 -2.94069 0
    endloop
  endfacet
  facet normal -0.587778 0.809022 0
    outer loop
      vertex 62.0716 -2.50417 0
      vertex 61.7414 -2.74407 15
      vertex 62.0716 -2.50417 15
    endloop
  endfacet
  facet normal -0.587778 0.809022 0
    outer loop
      vertex 61.7414 -2.74407 15
      vertex 62.0716 -2.50417 0
      vertex 61.7414 -2.74407 0
    endloop
  endfacet
  facet normal 0.125356 0.992112 -0
    outer loop
      vertex 59.7959 -3.24359 0
      vertex 59.391 -3.19243 15
      vertex 59.7959 -3.24359 15
    endloop
  endfacet
  facet normal 0.125356 0.992112 0
    outer loop
      vertex 59.391 -3.19243 15
      vertex 59.7959 -3.24359 0
      vertex 59.391 -3.19243 0
    endloop
  endfacet
  facet normal 0.587778 0.809022 -0
    outer loop
      vertex 58.2586 -2.74407 0
      vertex 57.9284 -2.50417 15
      vertex 58.2586 -2.74407 15
    endloop
  endfacet
  facet normal 0.587778 0.809022 0
    outer loop
      vertex 57.9284 -2.50417 15
      vertex 58.2586 -2.74407 0
      vertex 57.9284 -2.50417 0
    endloop
  endfacet
  facet normal 0.844317 0.535845 0
    outer loop
      vertex 57.3707 -1.9103 15
      vertex 57.152 -1.5657 0
      vertex 57.152 -1.5657 15
    endloop
  endfacet
  facet normal 0.844317 0.535845 0
    outer loop
      vertex 57.152 -1.5657 0
      vertex 57.3707 -1.9103 15
      vertex 57.3707 -1.9103 0
    endloop
  endfacet
  facet normal -0.982277 -0.187434 0
    outer loop
      vertex 63.2244 0.407332 0
      vertex 63.1479 0.808242 15
      vertex 63.1479 0.808242 0
    endloop
  endfacet
  facet normal -0.982277 -0.187434 0
    outer loop
      vertex 63.1479 0.808242 15
      vertex 63.2244 0.407332 0
      vertex 63.2244 0.407332 15
    endloop
  endfacet
  facet normal -0.951071 -0.308972 0
    outer loop
      vertex 63.1479 0.808242 0
      vertex 63.0218 1.1964 15
      vertex 63.0218 1.1964 0
    endloop
  endfacet
  facet normal -0.951071 -0.308972 0
    outer loop
      vertex 63.0218 1.1964 15
      vertex 63.1479 0.808242 0
      vertex 63.1479 0.808242 15
    endloop
  endfacet
  facet normal -0.770466 -0.637481 0
    outer loop
      vertex 62.6293 1.9103 0
      vertex 62.3691 2.22478 15
      vertex 62.3691 2.22478 0
    endloop
  endfacet
  facet normal -0.770466 -0.637481 0
    outer loop
      vertex 62.3691 2.22478 15
      vertex 62.6293 1.9103 0
      vertex 62.6293 1.9103 15
    endloop
  endfacet
  facet normal -0.684572 -0.728946 0
    outer loop
      vertex 62.0716 2.50417 0
      vertex 62.3691 2.22478 15
      vertex 62.0716 2.50417 15
    endloop
  endfacet
  facet normal -0.684572 -0.728946 -0
    outer loop
      vertex 62.3691 2.22478 15
      vertex 62.0716 2.50417 0
      vertex 62.3691 2.22478 0
    endloop
  endfacet
  facet normal 0 -1 0
    outer loop
      vertex 59.7959 3.24359 0
      vertex 60.2041 3.24359 15
      vertex 59.7959 3.24359 15
    endloop
  endfacet
  facet normal 0 -1 -0
    outer loop
      vertex 60.2041 3.24359 15
      vertex 59.7959 3.24359 0
      vertex 60.2041 3.24359 0
    endloop
  endfacet
  facet normal -0.481806 -0.876278 0
    outer loop
      vertex 61.3838 2.94069 0
      vertex 61.7414 2.74407 15
      vertex 61.3838 2.94069 15
    endloop
  endfacet
  facet normal -0.481806 -0.876278 -0
    outer loop
      vertex 61.7414 2.74407 15
      vertex 61.3838 2.94069 0
      vertex 61.7414 2.74407 0
    endloop
  endfacet
  facet normal -0.2487 -0.968581 0
    outer loop
      vertex 60.609 3.19243 0
      vertex 61.0043 3.09093 15
      vertex 60.609 3.19243 15
    endloop
  endfacet
  facet normal -0.2487 -0.968581 -0
    outer loop
      vertex 61.0043 3.09093 15
      vertex 60.609 3.19243 0
      vertex 61.0043 3.09093 0
    endloop
  endfacet
  facet normal 0.982277 -0.187434 0
    outer loop
      vertex 56.7756 0.407332 15
      vertex 56.8521 0.808242 0
      vertex 56.8521 0.808242 15
    endloop
  endfacet
  facet normal 0.982277 -0.187434 0
    outer loop
      vertex 56.8521 0.808242 0
      vertex 56.7756 0.407332 15
      vertex 56.7756 0.407332 0
    endloop
  endfacet
  facet normal 0.998031 -0.0627242 0
    outer loop
      vertex 56.75 0 15
      vertex 56.7756 0.407332 0
      vertex 56.7756 0.407332 15
    endloop
  endfacet
  facet normal 0.998031 -0.0627242 0
    outer loop
      vertex 56.7756 0.407332 0
      vertex 56.75 0 15
      vertex 56.75 0 0
    endloop
  endfacet
  facet normal 0.904808 -0.425821 0
    outer loop
      vertex 56.9782 1.1964 15
      vertex 57.152 1.5657 0
      vertex 57.152 1.5657 15
    endloop
  endfacet
  facet normal 0.904808 -0.425821 0
    outer loop
      vertex 57.152 1.5657 0
      vertex 56.9782 1.1964 15
      vertex 56.9782 1.1964 0
    endloop
  endfacet
  facet normal 0.368093 -0.929789 0
    outer loop
      vertex 58.6162 2.94069 0
      vertex 58.9957 3.09093 15
      vertex 58.6162 2.94069 15
    endloop
  endfacet
  facet normal 0.368093 -0.929789 0
    outer loop
      vertex 58.9957 3.09093 15
      vertex 58.6162 2.94069 0
      vertex 58.9957 3.09093 0
    endloop
  endfacet
  facet normal 0.125356 -0.992112 0
    outer loop
      vertex 59.391 3.19243 0
      vertex 59.7959 3.24359 15
      vertex 59.391 3.19243 15
    endloop
  endfacet
  facet normal 0.125356 -0.992112 0
    outer loop
      vertex 59.7959 3.24359 15
      vertex 59.391 3.19243 0
      vertex 59.7959 3.24359 0
    endloop
  endfacet
  facet normal 0.684572 -0.728946 0
    outer loop
      vertex 57.6309 2.22478 0
      vertex 57.9284 2.50417 15
      vertex 57.6309 2.22478 15
    endloop
  endfacet
  facet normal 0.684572 -0.728946 0
    outer loop
      vertex 57.9284 2.50417 15
      vertex 57.6309 2.22478 0
      vertex 57.9284 2.50417 0
    endloop
  endfacet
  facet normal 0.770466 -0.637481 0
    outer loop
      vertex 57.3707 1.9103 15
      vertex 57.6309 2.22478 0
      vertex 57.6309 2.22478 15
    endloop
  endfacet
  facet normal 0.770466 -0.637481 0
    outer loop
      vertex 57.6309 2.22478 0
      vertex 57.3707 1.9103 15
      vertex 57.3707 1.9103 0
    endloop
  endfacet
  facet normal -0.125356 0.992112 0
    outer loop
      vertex 60.609 -3.19243 0
      vertex 60.2041 -3.24359 15
      vertex 60.609 -3.19243 15
    endloop
  endfacet
  facet normal -0.125356 0.992112 0
    outer loop
      vertex 60.2041 -3.24359 15
      vertex 60.609 -3.19243 0
      vertex 60.2041 -3.24359 0
    endloop
  endfacet
  facet normal -0.368093 0.929789 0
    outer loop
      vertex 61.3838 -2.94069 0
      vertex 61.0043 -3.09093 15
      vertex 61.3838 -2.94069 15
    endloop
  endfacet
  facet normal -0.368093 0.929789 0
    outer loop
      vertex 61.0043 -3.09093 15
      vertex 61.3838 -2.94069 0
      vertex 61.0043 -3.09093 0
    endloop
  endfacet
  facet normal -0.684572 0.728946 0
    outer loop
      vertex 62.3691 -2.22478 0
      vertex 62.0716 -2.50417 15
      vertex 62.3691 -2.22478 15
    endloop
  endfacet
  facet normal -0.684572 0.728946 0
    outer loop
      vertex 62.0716 -2.50417 15
      vertex 62.3691 -2.22478 0
      vertex 62.0716 -2.50417 0
    endloop
  endfacet
  facet normal 0.481806 0.876278 -0
    outer loop
      vertex 58.6162 -2.94069 0
      vertex 58.2586 -2.74407 15
      vertex 58.6162 -2.94069 15
    endloop
  endfacet
  facet normal 0.481806 0.876278 0
    outer loop
      vertex 58.2586 -2.74407 15
      vertex 58.6162 -2.94069 0
      vertex 58.2586 -2.74407 0
    endloop
  endfacet
  facet normal 0.904808 0.425821 0
    outer loop
      vertex 57.152 -1.5657 15
      vertex 56.9782 -1.1964 0
      vertex 56.9782 -1.1964 15
    endloop
  endfacet
  facet normal 0.904808 0.425821 0
    outer loop
      vertex 56.9782 -1.1964 0
      vertex 57.152 -1.5657 15
      vertex 57.152 -1.5657 0
    endloop
  endfacet
  facet normal 0.982277 0.187434 0
    outer loop
      vertex 56.8521 -0.808242 15
      vertex 56.7756 -0.407332 0
      vertex 56.7756 -0.407332 15
    endloop
  endfacet
  facet normal 0.982277 0.187434 0
    outer loop
      vertex 56.7756 -0.407332 0
      vertex 56.8521 -0.808242 15
      vertex 56.8521 -0.808242 0
    endloop
  endfacet
  facet normal 0.770466 0.637481 0
    outer loop
      vertex 57.6309 -2.22478 15
      vertex 57.3707 -1.9103 0
      vertex 57.3707 -1.9103 15
    endloop
  endfacet
  facet normal 0.770466 0.637481 0
    outer loop
      vertex 57.3707 -1.9103 0
      vertex 57.6309 -2.22478 15
      vertex 57.6309 -2.22478 0
    endloop
  endfacet
  facet normal 0.684572 0.728946 -0
    outer loop
      vertex 57.9284 -2.50417 0
      vertex 57.6309 -2.22478 15
      vertex 57.9284 -2.50417 15
    endloop
  endfacet
  facet normal 0.684572 0.728946 0
    outer loop
      vertex 57.6309 -2.22478 15
      vertex 57.9284 -2.50417 0
      vertex 57.6309 -2.22478 0
    endloop
  endfacet
  facet normal -0.998031 0.0627242 0
    outer loop
      vertex 63.2244 -0.407332 0
      vertex 63.25 0 15
      vertex 63.25 0 0
    endloop
  endfacet
  facet normal -0.998031 0.0627242 0
    outer loop
      vertex 63.25 0 15
      vertex 63.2244 -0.407332 0
      vertex 63.2244 -0.407332 15
    endloop
  endfacet
  facet normal -0.904808 0.425821 0
    outer loop
      vertex 62.848 -1.5657 0
      vertex 63.0218 -1.1964 15
      vertex 63.0218 -1.1964 0
    endloop
  endfacet
  facet normal -0.904808 0.425821 0
    outer loop
      vertex 63.0218 -1.1964 15
      vertex 62.848 -1.5657 0
      vertex 62.848 -1.5657 15
    endloop
  endfacet
  facet normal -0.2487 0.968581 0
    outer loop
      vertex 61.0043 -3.09093 0
      vertex 60.609 -3.19243 15
      vertex 61.0043 -3.09093 15
    endloop
  endfacet
  facet normal -0.2487 0.968581 0
    outer loop
      vertex 60.609 -3.19243 15
      vertex 61.0043 -3.09093 0
      vertex 60.609 -3.19243 0
    endloop
  endfacet
  facet normal -0.770466 0.637481 0
    outer loop
      vertex 62.3691 -2.22478 0
      vertex 62.6293 -1.9103 15
      vertex 62.6293 -1.9103 0
    endloop
  endfacet
  facet normal -0.770466 0.637481 0
    outer loop
      vertex 62.6293 -1.9103 15
      vertex 62.3691 -2.22478 0
      vertex 62.3691 -2.22478 15
    endloop
  endfacet
  facet normal 0 1 -0
    outer loop
      vertex 60.2041 -3.24359 0
      vertex 59.7959 -3.24359 15
      vertex 60.2041 -3.24359 15
    endloop
  endfacet
  facet normal 0 1 0
    outer loop
      vertex 59.7959 -3.24359 15
      vertex 60.2041 -3.24359 0
      vertex 59.7959 -3.24359 0
    endloop
  endfacet
  facet normal 0.951071 0.308972 0
    outer loop
      vertex 56.9782 -1.1964 15
      vertex 56.8521 -0.808242 0
      vertex 56.8521 -0.808242 15
    endloop
  endfacet
  facet normal 0.951071 0.308972 0
    outer loop
      vertex 56.8521 -0.808242 0
      vertex 56.9782 -1.1964 15
      vertex 56.9782 -1.1964 0
    endloop
  endfacet
  facet normal -1 0 0
    outer loop
      vertex -67 -2 0
      vertex -67 2 15
      vertex -67 2 0
    endloop
  endfacet
  facet normal -1 -0 0
    outer loop
      vertex -67 2 15
      vertex -67 -2 0
      vertex -67 -2 15
    endloop
  endfacet
  facet normal -0.998029 -0.0627481 0
    outer loop
      vertex -66.9606 -2.62667 0
      vertex -67 -2 15
      vertex -67 -2 0
    endloop
  endfacet
  facet normal -0.998029 -0.0627481 0
    outer loop
      vertex -67 -2 15
      vertex -66.9606 -2.62667 0
      vertex -66.9606 -2.62667 15
    endloop
  endfacet
  facet normal 0 1 -0
    outer loop
      vertex 62.314 6.99013 0
      vertex -62.314 6.99013 15
      vertex 62.314 6.99013 15
    endloop
  endfacet
  facet normal 0 1 0
    outer loop
      vertex -62.314 6.99013 15
      vertex 62.314 6.99013 0
      vertex -62.314 6.99013 0
    endloop
  endfacet
  facet normal 0 -1 0
    outer loop
      vertex -62.314 -6.99013 0
      vertex 62.314 -6.99013 15
      vertex -62.314 -6.99013 15
    endloop
  endfacet
  facet normal 0 -1 -0
    outer loop
      vertex 62.314 -6.99013 15
      vertex -62.314 -6.99013 0
      vertex 62.314 -6.99013 0
    endloop
  endfacet
  facet normal 0 0 1
    outer loop
      vertex 63.0218 1.1964 15
      vertex 67 2 15
      vertex 66.9606 2.62667 15
    endloop
  endfacet
  facet normal 0 0 1
    outer loop
      vertex 67 2 15
      vertex 63.25 0 15
      vertex 67 -2 15
    endloop
  endfacet
  facet normal 0 0 1
    outer loop
      vertex 62.848 1.5657 15
      vertex 66.9606 2.62667 15
      vertex 66.8429 3.24345 15
    endloop
  endfacet
  facet normal -0 0 1
    outer loop
      vertex 63.2244 -0.407332 15
      vertex 67 -2 15
      vertex 63.25 0 15
    endloop
  endfacet
  facet normal 0 0 1
    outer loop
      vertex 62.848 1.5657 15
      vertex 66.8429 3.24345 15
      vertex 66.6489 3.84062 15
    endloop
  endfacet
  facet normal -0 0 1
    outer loop
      vertex 63.1479 -0.808242 15
      vertex 67 -2 15
      vertex 63.2244 -0.407332 15
    endloop
  endfacet
  facet normal 0 0 1
    outer loop
      vertex 62.6293 1.9103 15
      vertex 66.6489 3.84062 15
      vertex 66.3815 4.40877 15
    endloop
  endfacet
  facet normal -0 0 1
    outer loop
      vertex 63.0218 -1.1964 15
      vertex 67 -2 15
      vertex 63.1479 -0.808242 15
    endloop
  endfacet
  facet normal 0 0 1
    outer loop
      vertex 62.6293 1.9103 15
      vertex 66.3815 4.40877 15
      vertex 66.0451 4.93893 15
    endloop
  endfacet
  facet normal 0 0 1
    outer loop
      vertex 67 -2 15
      vertex 63.0218 -1.1964 15
      vertex 66.9606 -2.62667 15
    endloop
  endfacet
  facet normal 0 0 1
    outer loop
      vertex 62.3691 2.22478 15
      vertex 66.0451 4.93893 15
      vertex 65.6448 5.42274 15
    endloop
  endfacet
  facet normal -0 0 1
    outer loop
      vertex 62.848 -1.5657 15
      vertex 66.9606 -2.62667 15
      vertex 63.0218 -1.1964 15
    endloop
  endfacet
  facet normal 0 0 1
    outer loop
      vertex 62.3691 2.22478 15
      vertex 65.6448 5.42274 15
      vertex 65.1871 5.85257 15
    endloop
  endfacet
  facet normal 0 0 1
    outer loop
      vertex 66.9606 -2.62667 15
      vertex 62.848 -1.5657 15
      vertex 66.8429 -3.24345 15
    endloop
  endfacet
  facet normal 0 0 1
    outer loop
      vertex 62.0716 2.50417 15
      vertex 65.1871 5.85257 15
      vertex 64.6791 6.22164 15
    endloop
  endfacet
  facet normal 0 0 1
    outer loop
      vertex 66.8429 -3.24345 15
      vertex 62.848 -1.5657 15
      vertex 66.6489 -3.84062 15
    endloop
  endfacet
  facet normal 0 0 1
    outer loop
      vertex 62.0716 2.50417 15
      vertex 64.6791 6.22164 15
      vertex 64.1289 6.52413 15
    endloop
  endfacet
  facet normal -0 0 1
    outer loop
      vertex 62.6293 -1.9103 15
      vertex 66.6489 -3.84062 15
      vertex 62.848 -1.5657 15
    endloop
  endfacet
  facet normal 0 0 1
    outer loop
      vertex 61.7414 2.74407 15
      vertex 64.1289 6.52413 15
      vertex 63.5451 6.75528 15
    endloop
  endfacet
  facet normal 0 0 1
    outer loop
      vertex 66.6489 -3.84062 15
      vertex 62.6293 -1.9103 15
      vertex 66.3815 -4.40877 15
    endloop
  endfacet
  facet normal 0 0 1
    outer loop
      vertex 66.3815 -4.40877 15
      vertex 62.6293 -1.9103 15
      vertex 66.0451 -4.93893 15
    endloop
  endfacet
  facet normal 0 0 1
    outer loop
      vertex 67 2 15
      vertex 63.2244 0.407332 15
      vertex 63.25 0 15
    endloop
  endfacet
  facet normal 0 0 1
    outer loop
      vertex 67 2 15
      vertex 63.1479 0.808242 15
      vertex 63.2244 0.407332 15
    endloop
  endfacet
  facet normal 0 0 1
    outer loop
      vertex 67 2 15
      vertex 63.0218 1.1964 15
      vertex 63.1479 0.808242 15
    endloop
  endfacet
  facet normal 0 0 1
    outer loop
      vertex 61.7414 2.74407 15
      vertex 63.5451 6.75528 15
      vertex 62.9369 6.91144 15
    endloop
  endfacet
  facet normal 0 0 1
    outer loop
      vertex 66.9606 2.62667 15
      vertex 62.848 1.5657 15
      vertex 63.0218 1.1964 15
    endloop
  endfacet
  facet normal 0 0 1
    outer loop
      vertex 66.6489 3.84062 15
      vertex 62.6293 1.9103 15
      vertex 62.848 1.5657 15
    endloop
  endfacet
  facet normal 0 0 1
    outer loop
      vertex 66.0451 4.93893 15
      vertex 62.3691 2.22478 15
      vertex 62.6293 1.9103 15
    endloop
  endfacet
  facet normal 0 0 1
    outer loop
      vertex 61.3838 2.94069 15
      vertex 62.9369 6.91144 15
      vertex 62.314 6.99013 15
    endloop
  endfacet
  facet normal 0 0 1
    outer loop
      vertex 65.1871 5.85257 15
      vertex 62.0716 2.50417 15
      vertex 62.3691 2.22478 15
    endloop
  endfacet
  facet normal 0 0 1
    outer loop
      vertex 64.1289 6.52413 15
      vertex 61.7414 2.74407 15
      vertex 62.0716 2.50417 15
    endloop
  endfacet
  facet normal 0 0 1
    outer loop
      vertex 62.9369 6.91144 15
      vertex 61.3838 2.94069 15
      vertex 61.7414 2.74407 15
    endloop
  endfacet
  facet normal 0 0 1
    outer loop
      vertex 62.314 6.99013 15
      vertex 61.0043 3.09093 15
      vertex 61.3838 2.94069 15
    endloop
  endfacet
  facet normal 0 0 1
    outer loop
      vertex 62.314 6.99013 15
      vertex 60.609 3.19243 15
      vertex 61.0043 3.09093 15
    endloop
  endfacet
  facet normal 0 0 1
    outer loop
      vertex 62.314 6.99013 15
      vertex 60.2041 3.24359 15
      vertex 60.609 3.19243 15
    endloop
  endfacet
  facet normal 0 0 1
    outer loop
      vertex 62.314 6.99013 15
      vertex 59.7959 3.24359 15
      vertex 60.2041 3.24359 15
    endloop
  endfacet
  facet normal 0 0 1
    outer loop
      vertex 62.314 6.99013 15
      vertex 59.391 3.19243 15
      vertex 59.7959 3.24359 15
    endloop
  endfacet
  facet normal 0 0 1
    outer loop
      vertex 62.314 6.99013 15
      vertex 58.9957 3.09093 15
      vertex 59.391 3.19243 15
    endloop
  endfacet
  facet normal 0 0 1
    outer loop
      vertex 62.314 6.99013 15
      vertex 58.6162 2.94069 15
      vertex 58.9957 3.09093 15
    endloop
  endfacet
  facet normal 0 0 1
    outer loop
      vertex 62.314 6.99013 15
      vertex 58.2586 2.74407 15
      vertex 58.6162 2.94069 15
    endloop
  endfacet
  facet normal 0 0 1
    outer loop
      vertex 62.314 6.99013 15
      vertex 57.9284 2.50417 15
      vertex 58.2586 2.74407 15
    endloop
  endfacet
  facet normal 0 0 1
    outer loop
      vertex 62.314 6.99013 15
      vertex 57.6309 2.22478 15
      vertex 57.9284 2.50417 15
    endloop
  endfacet
  facet normal 0 0 1
    outer loop
      vertex 56.7756 0.407332 15
      vertex -56.75 0 15
      vertex 56.75 0 15
    endloop
  endfacet
  facet normal 0 0 1
    outer loop
      vertex -56.7756 0.407332 15
      vertex 56.7756 0.407332 15
      vertex 56.8521 0.808242 15
    endloop
  endfacet
  facet normal 0 0 1
    outer loop
      vertex -56.8521 0.808242 15
      vertex 56.8521 0.808242 15
      vertex 56.9782 1.1964 15
    endloop
  endfacet
  facet normal 0 0 1
    outer loop
      vertex -56.9782 1.1964 15
      vertex 56.9782 1.1964 15
      vertex 57.152 1.5657 15
    endloop
  endfacet
  facet normal 0 0 1
    outer loop
      vertex -57.152 1.5657 15
      vertex 57.152 1.5657 15
      vertex 57.3707 1.9103 15
    endloop
  endfacet
  facet normal 0 0 1
    outer loop
      vertex -57.3707 1.9103 15
      vertex 57.3707 1.9103 15
      vertex 57.6309 2.22478 15
    endloop
  endfacet
  facet normal 0 0 1
    outer loop
      vertex -57.6309 2.22478 15
      vertex 57.6309 2.22478 15
      vertex 62.314 6.99013 15
    endloop
  endfacet
  facet normal 0 0 1
    outer loop
      vertex 56.7756 0.407332 15
      vertex -56.7756 0.407332 15
      vertex -56.75 0 15
    endloop
  endfacet
  facet normal 0 0 1
    outer loop
      vertex 56.8521 0.808242 15
      vertex -56.8521 0.808242 15
      vertex -56.7756 0.407332 15
    endloop
  endfacet
  facet normal 0 0 1
    outer loop
      vertex 56.9782 1.1964 15
      vertex -56.9782 1.1964 15
      vertex -56.8521 0.808242 15
    endloop
  endfacet
  facet normal 0 0 1
    outer loop
      vertex 57.152 1.5657 15
      vertex -57.152 1.5657 15
      vertex -56.9782 1.1964 15
    endloop
  endfacet
  facet normal 0 0 1
    outer loop
      vertex 57.3707 1.9103 15
      vertex -57.3707 1.9103 15
      vertex -57.152 1.5657 15
    endloop
  endfacet
  facet normal 0 0 1
    outer loop
      vertex 57.6309 2.22478 15
      vertex -57.6309 2.22478 15
      vertex -57.3707 1.9103 15
    endloop
  endfacet
  facet normal 0 0 1
    outer loop
      vertex 62.314 6.99013 15
      vertex -57.9284 2.50417 15
      vertex -57.6309 2.22478 15
    endloop
  endfacet
  facet normal -0 0 1
    outer loop
      vertex -62.314 6.99013 15
      vertex -57.9284 2.50417 15
      vertex 62.314 6.99013 15
    endloop
  endfacet
  facet normal 0 0 1
    outer loop
      vertex -57.9284 2.50417 15
      vertex -62.314 6.99013 15
      vertex -58.2586 2.74407 15
    endloop
  endfacet
  facet normal 0 0 1
    outer loop
      vertex -58.2586 2.74407 15
      vertex -62.314 6.99013 15
      vertex -58.6162 2.94069 15
    endloop
  endfacet
  facet normal 0 0 1
    outer loop
      vertex -58.6162 2.94069 15
      vertex -62.314 6.99013 15
      vertex -58.9957 3.09093 15
    endloop
  endfacet
  facet normal 0 0 1
    outer loop
      vertex -58.9957 3.09093 15
      vertex -62.314 6.99013 15
      vertex -59.391 3.19243 15
    endloop
  endfacet
  facet normal 0 0 1
    outer loop
      vertex -59.391 3.19243 15
      vertex -62.314 6.99013 15
      vertex -59.7959 3.24359 15
    endloop
  endfacet
  facet normal 0 0 1
    outer loop
      vertex -59.7959 3.24359 15
      vertex -62.314 6.99013 15
      vertex -60.2041 3.24359 15
    endloop
  endfacet
  facet normal 0 0 1
    outer loop
      vertex -62.314 6.99013 15
      vertex -60.609 3.19243 15
      vertex -60.2041 3.24359 15
    endloop
  endfacet
  facet normal 0 0 1
    outer loop
      vertex -62.314 6.99013 15
      vertex -61.0043 3.09093 15
      vertex -60.609 3.19243 15
    endloop
  endfacet
  facet normal 0 0 1
    outer loop
      vertex -62.314 6.99013 15
      vertex -61.3838 2.94069 15
      vertex -61.0043 3.09093 15
    endloop
  endfacet
  facet normal -0 0 1
    outer loop
      vertex -62.9369 6.91144 15
      vertex -61.3838 2.94069 15
      vertex -62.314 6.99013 15
    endloop
  endfacet
  facet normal 0 0 1
    outer loop
      vertex -61.3838 2.94069 15
      vertex -62.9369 6.91144 15
      vertex -61.7414 2.74407 15
    endloop
  endfacet
  facet normal -0 0 1
    outer loop
      vertex -63.5451 6.75528 15
      vertex -61.7414 2.74407 15
      vertex -62.9369 6.91144 15
    endloop
  endfacet
  facet normal -0 0 1
    outer loop
      vertex -64.1289 6.52413 15
      vertex -61.7414 2.74407 15
      vertex -63.5451 6.75528 15
    endloop
  endfacet
  facet normal 0 0 1
    outer loop
      vertex -61.7414 2.74407 15
      vertex -64.1289 6.52413 15
      vertex -62.0716 2.50417 15
    endloop
  endfacet
  facet normal -0 0 1
    outer loop
      vertex -64.6791 6.22164 15
      vertex -62.0716 2.50417 15
      vertex -64.1289 6.52413 15
    endloop
  endfacet
  facet normal -0 0 1
    outer loop
      vertex -65.1871 5.85257 15
      vertex -62.0716 2.50417 15
      vertex -64.6791 6.22164 15
    endloop
  endfacet
  facet normal 0 0 1
    outer loop
      vertex -62.0716 2.50417 15
      vertex -65.1871 5.85257 15
      vertex -62.3691 2.22478 15
    endloop
  endfacet
  facet normal -0 0 1
    outer loop
      vertex -65.6448 5.42274 15
      vertex -62.3691 2.22478 15
      vertex -65.1871 5.85257 15
    endloop
  endfacet
  facet normal -0 0 1
    outer loop
      vertex -66.0451 4.93893 15
      vertex -62.3691 2.22478 15
      vertex -65.6448 5.42274 15
    endloop
  endfacet
  facet normal 0 0 1
    outer loop
      vertex -62.3691 2.22478 15
      vertex -66.0451 4.93893 15
      vertex -62.6293 1.9103 15
    endloop
  endfacet
  facet normal -0 0 1
    outer loop
      vertex 62.3691 -2.22478 15
      vertex 66.0451 -4.93893 15
      vertex 62.6293 -1.9103 15
    endloop
  endfacet
  facet normal 0 0 1
    outer loop
      vertex 66.0451 -4.93893 15
      vertex 62.3691 -2.22478 15
      vertex 65.6448 -5.42274 15
    endloop
  endfacet
  facet normal 0 0 1
    outer loop
      vertex 65.6448 -5.42274 15
      vertex 62.3691 -2.22478 15
      vertex 65.1871 -5.85257 15
    endloop
  endfacet
  facet normal -0 0 1
    outer loop
      vertex 62.0716 -2.50417 15
      vertex 65.1871 -5.85257 15
      vertex 62.3691 -2.22478 15
    endloop
  endfacet
  facet normal 0 0 1
    outer loop
      vertex 65.1871 -5.85257 15
      vertex 62.0716 -2.50417 15
      vertex 64.6791 -6.22164 15
    endloop
  endfacet
  facet normal 0 0 1
    outer loop
      vertex 64.6791 -6.22164 15
      vertex 62.0716 -2.50417 15
      vertex 64.1289 -6.52413 15
    endloop
  endfacet
  facet normal -0 0 1
    outer loop
      vertex 61.7414 -2.74407 15
      vertex 64.1289 -6.52413 15
      vertex 62.0716 -2.50417 15
    endloop
  endfacet
  facet normal 0 0 1
    outer loop
      vertex 64.1289 -6.52413 15
      vertex 61.7414 -2.74407 15
      vertex 63.5451 -6.75528 15
    endloop
  endfacet
  facet normal 0 0 1
    outer loop
      vertex 63.5451 -6.75528 15
      vertex 61.7414 -2.74407 15
      vertex 62.9369 -6.91144 15
    endloop
  endfacet
  facet normal -0 0 1
    outer loop
      vertex 61.3838 -2.94069 15
      vertex 62.9369 -6.91144 15
      vertex 61.7414 -2.74407 15
    endloop
  endfacet
  facet normal 0 0 1
    outer loop
      vertex 62.9369 -6.91144 15
      vertex 61.3838 -2.94069 15
      vertex 62.314 -6.99013 15
    endloop
  endfacet
  facet normal -0 0 1
    outer loop
      vertex 61.0043 -3.09093 15
      vertex 62.314 -6.99013 15
      vertex 61.3838 -2.94069 15
    endloop
  endfacet
  facet normal -0 0 1
    outer loop
      vertex 60.609 -3.19243 15
      vertex 62.314 -6.99013 15
      vertex 61.0043 -3.09093 15
    endloop
  endfacet
  facet normal -0 0 1
    outer loop
      vertex 60.2041 -3.24359 15
      vertex 62.314 -6.99013 15
      vertex 60.609 -3.19243 15
    endloop
  endfacet
  facet normal -0 0 1
    outer loop
      vertex 59.7959 -3.24359 15
      vertex 62.314 -6.99013 15
      vertex 60.2041 -3.24359 15
    endloop
  endfacet
  facet normal 0 0 1
    outer loop
      vertex 59.391 -3.19243 15
      vertex 62.314 -6.99013 15
      vertex 59.7959 -3.24359 15
    endloop
  endfacet
  facet normal 0 0 1
    outer loop
      vertex 58.9957 -3.09093 15
      vertex 62.314 -6.99013 15
      vertex 59.391 -3.19243 15
    endloop
  endfacet
  facet normal 0 0 1
    outer loop
      vertex 58.6162 -2.94069 15
      vertex 62.314 -6.99013 15
      vertex 58.9957 -3.09093 15
    endloop
  endfacet
  facet normal 0 0 1
    outer loop
      vertex 58.2586 -2.74407 15
      vertex 62.314 -6.99013 15
      vertex 58.6162 -2.94069 15
    endloop
  endfacet
  facet normal 0 0 1
    outer loop
      vertex 57.9284 -2.50417 15
      vertex 62.314 -6.99013 15
      vertex 58.2586 -2.74407 15
    endloop
  endfacet
  facet normal 0 0 1
    outer loop
      vertex 57.6309 -2.22478 15
      vertex 62.314 -6.99013 15
      vertex 57.9284 -2.50417 15
    endloop
  endfacet
  facet normal -0 0 1
    outer loop
      vertex -56.75 0 15
      vertex 56.7756 -0.407332 15
      vertex 56.75 0 15
    endloop
  endfacet
  facet normal 0 0 1
    outer loop
      vertex -56.7756 -0.407332 15
      vertex 56.7756 -0.407332 15
      vertex -56.75 0 15
    endloop
  endfacet
  facet normal 0 0 1
    outer loop
      vertex 56.7756 -0.407332 15
      vertex -56.7756 -0.407332 15
      vertex 56.8521 -0.808242 15
    endloop
  endfacet
  facet normal 0 0 1
    outer loop
      vertex -56.8521 -0.808242 15
      vertex 56.8521 -0.808242 15
      vertex -56.7756 -0.407332 15
    endloop
  endfacet
  facet normal 0 0 1
    outer loop
      vertex 56.8521 -0.808242 15
      vertex -56.8521 -0.808242 15
      vertex 56.9782 -1.1964 15
    endloop
  endfacet
  facet normal 0 0 1
    outer loop
      vertex -56.9782 -1.1964 15
      vertex 56.9782 -1.1964 15
      vertex -56.8521 -0.808242 15
    endloop
  endfacet
  facet normal 0 0 1
    outer loop
      vertex 56.9782 -1.1964 15
      vertex -56.9782 -1.1964 15
      vertex 57.152 -1.5657 15
    endloop
  endfacet
  facet normal 0 0 1
    outer loop
      vertex -57.152 -1.5657 15
      vertex 57.152 -1.5657 15
      vertex -56.9782 -1.1964 15
    endloop
  endfacet
  facet normal 0 0 1
    outer loop
      vertex 57.152 -1.5657 15
      vertex -57.152 -1.5657 15
      vertex 57.3707 -1.9103 15
    endloop
  endfacet
  facet normal 0 0 1
    outer loop
      vertex -57.3707 -1.9103 15
      vertex 57.3707 -1.9103 15
      vertex -57.152 -1.5657 15
    endloop
  endfacet
  facet normal 0 0 1
    outer loop
      vertex 57.3707 -1.9103 15
      vertex -57.3707 -1.9103 15
      vertex 57.6309 -2.22478 15
    endloop
  endfacet
  facet normal 0 0 1
    outer loop
      vertex -57.6309 -2.22478 15
      vertex 57.6309 -2.22478 15
      vertex -57.3707 -1.9103 15
    endloop
  endfacet
  facet normal 0 0 1
    outer loop
      vertex 57.6309 -2.22478 15
      vertex -57.6309 -2.22478 15
      vertex 62.314 -6.99013 15
    endloop
  endfacet
  facet normal -0 0 1
    outer loop
      vertex -57.9284 -2.50417 15
      vertex 62.314 -6.99013 15
      vertex -57.6309 -2.22478 15
    endloop
  endfacet
  facet normal 0 0 1
    outer loop
      vertex -62.314 -6.99013 15
      vertex -57.9284 -2.50417 15
      vertex -58.2586 -2.74407 15
    endloop
  endfacet
  facet normal 0 0 1
    outer loop
      vertex -62.314 -6.99013 15
      vertex -58.2586 -2.74407 15
      vertex -58.6162 -2.94069 15
    endloop
  endfacet
  facet normal 0 0 1
    outer loop
      vertex -62.314 -6.99013 15
      vertex -58.6162 -2.94069 15
      vertex -58.9957 -3.09093 15
    endloop
  endfacet
  facet normal 0 0 1
    outer loop
      vertex -62.314 -6.99013 15
      vertex -58.9957 -3.09093 15
      vertex -59.391 -3.19243 15
    endloop
  endfacet
  facet normal 0 0 1
    outer loop
      vertex -62.314 -6.99013 15
      vertex -59.391 -3.19243 15
      vertex -59.7959 -3.24359 15
    endloop
  endfacet
  facet normal 0 0 1
    outer loop
      vertex -62.314 -6.99013 15
      vertex -59.7959 -3.24359 15
      vertex -60.2041 -3.24359 15
    endloop
  endfacet
  facet normal 0 0 1
    outer loop
      vertex -57.9284 -2.50417 15
      vertex -62.314 -6.99013 15
      vertex 62.314 -6.99013 15
    endloop
  endfacet
  facet normal 0 0 1
    outer loop
      vertex -60.609 -3.19243 15
      vertex -62.314 -6.99013 15
      vertex -60.2041 -3.24359 15
    endloop
  endfacet
  facet normal 0 0 1
    outer loop
      vertex -61.0043 -3.09093 15
      vertex -62.314 -6.99013 15
      vertex -60.609 -3.19243 15
    endloop
  endfacet
  facet normal 0 0 1
    outer loop
      vertex -61.3838 -2.94069 15
      vertex -62.314 -6.99013 15
      vertex -61.0043 -3.09093 15
    endloop
  endfacet
  facet normal 0 0 1
    outer loop
      vertex -62.9369 -6.91144 15
      vertex -61.3838 -2.94069 15
      vertex -61.7414 -2.74407 15
    endloop
  endfacet
  facet normal 0 0 1
    outer loop
      vertex -64.1289 -6.52413 15
      vertex -61.7414 -2.74407 15
      vertex -62.0716 -2.50417 15
    endloop
  endfacet
  facet normal 0 0 1
    outer loop
      vertex -65.1871 -5.85257 15
      vertex -62.0716 -2.50417 15
      vertex -62.3691 -2.22478 15
    endloop
  endfacet
  facet normal 0 0 1
    outer loop
      vertex -66.0451 -4.93893 15
      vertex -62.3691 -2.22478 15
      vertex -62.6293 -1.9103 15
    endloop
  endfacet
  facet normal 0 0 1
    outer loop
      vertex -66.6489 -3.84062 15
      vertex -62.6293 -1.9103 15
      vertex -62.848 -1.5657 15
    endloop
  endfacet
  facet normal 0 0 1
    outer loop
      vertex -61.3838 -2.94069 15
      vertex -62.9369 -6.91144 15
      vertex -62.314 -6.99013 15
    endloop
  endfacet
  facet normal 0 0 1
    outer loop
      vertex -66.9606 -2.62667 15
      vertex -62.848 -1.5657 15
      vertex -63.0218 -1.1964 15
    endloop
  endfacet
  facet normal 0 0 1
    outer loop
      vertex -67 -2 15
      vertex -63.0218 -1.1964 15
      vertex -63.1479 -0.808242 15
    endloop
  endfacet
  facet normal 0 0 1
    outer loop
      vertex -67 -2 15
      vertex -63.1479 -0.808242 15
      vertex -63.2244 -0.407332 15
    endloop
  endfacet
  facet normal 0 0 1
    outer loop
      vertex -67 -2 15
      vertex -63.2244 -0.407332 15
      vertex -63.25 0 15
    endloop
  endfacet
  facet normal 0 0 1
    outer loop
      vertex -61.7414 -2.74407 15
      vertex -63.5451 -6.75528 15
      vertex -62.9369 -6.91144 15
    endloop
  endfacet
  facet normal -0 0 1
    outer loop
      vertex -66.3815 4.40877 15
      vertex -62.6293 1.9103 15
      vertex -66.0451 4.93893 15
    endloop
  endfacet
  facet normal -0 0 1
    outer loop
      vertex -66.6489 3.84062 15
      vertex -62.6293 1.9103 15
      vertex -66.3815 4.40877 15
    endloop
  endfacet
  facet normal 0 0 1
    outer loop
      vertex -67 -2 15
      vertex -63.25 0 15
      vertex -67 2 15
    endloop
  endfacet
  facet normal 0 0 1
    outer loop
      vertex -62.6293 1.9103 15
      vertex -66.6489 3.84062 15
      vertex -62.848 1.5657 15
    endloop
  endfacet
  facet normal 0 0 1
    outer loop
      vertex -63.0218 -1.1964 15
      vertex -67 -2 15
      vertex -66.9606 -2.62667 15
    endloop
  endfacet
  facet normal -0 0 1
    outer loop
      vertex -66.8429 3.24345 15
      vertex -62.848 1.5657 15
      vertex -66.6489 3.84062 15
    endloop
  endfacet
  facet normal 0 0 1
    outer loop
      vertex -61.7414 -2.74407 15
      vertex -64.1289 -6.52413 15
      vertex -63.5451 -6.75528 15
    endloop
  endfacet
  facet normal -0 0 1
    outer loop
      vertex -66.9606 2.62667 15
      vertex -62.848 1.5657 15
      vertex -66.8429 3.24345 15
    endloop
  endfacet
  facet normal 0 0 1
    outer loop
      vertex -62.0716 -2.50417 15
      vertex -64.6791 -6.22164 15
      vertex -64.1289 -6.52413 15
    endloop
  endfacet
  facet normal 0 0 1
    outer loop
      vertex -62.848 1.5657 15
      vertex -66.9606 2.62667 15
      vertex -63.0218 1.1964 15
    endloop
  endfacet
  facet normal 0 0 1
    outer loop
      vertex -62.0716 -2.50417 15
      vertex -65.1871 -5.85257 15
      vertex -64.6791 -6.22164 15
    endloop
  endfacet
  facet normal -0 0 1
    outer loop
      vertex -67 2 15
      vertex -63.0218 1.1964 15
      vertex -66.9606 2.62667 15
    endloop
  endfacet
  facet normal 0 0 1
    outer loop
      vertex -62.3691 -2.22478 15
      vertex -65.6448 -5.42274 15
      vertex -65.1871 -5.85257 15
    endloop
  endfacet
  facet normal 0 0 1
    outer loop
      vertex -63.0218 1.1964 15
      vertex -67 2 15
      vertex -63.1479 0.808242 15
    endloop
  endfacet
  facet normal 0 0 1
    outer loop
      vertex -62.3691 -2.22478 15
      vertex -66.0451 -4.93893 15
      vertex -65.6448 -5.42274 15
    endloop
  endfacet
  facet normal 0 0 1
    outer loop
      vertex -63.1479 0.808242 15
      vertex -67 2 15
      vertex -63.2244 0.407332 15
    endloop
  endfacet
  facet normal 0 0 1
    outer loop
      vertex -62.6293 -1.9103 15
      vertex -66.3815 -4.40877 15
      vertex -66.0451 -4.93893 15
    endloop
  endfacet
  facet normal 0 0 1
    outer loop
      vertex -63.2244 0.407332 15
      vertex -67 2 15
      vertex -63.25 0 15
    endloop
  endfacet
  facet normal 0 0 1
    outer loop
      vertex -62.6293 -1.9103 15
      vertex -66.6489 -3.84062 15
      vertex -66.3815 -4.40877 15
    endloop
  endfacet
  facet normal 0 0 1
    outer loop
      vertex -62.848 -1.5657 15
      vertex -66.8429 -3.24345 15
      vertex -66.6489 -3.84062 15
    endloop
  endfacet
  facet normal 0 0 1
    outer loop
      vertex -62.848 -1.5657 15
      vertex -66.9606 -2.62667 15
      vertex -66.8429 -3.24345 15
    endloop
  endfacet
  facet normal 0.904797 -0.425843 0
    outer loop
      vertex 66.3815 -4.40877 15
      vertex 66.6489 -3.84062 0
      vertex 66.6489 -3.84062 15
    endloop
  endfacet
  facet normal 0.904797 -0.425843 0
    outer loop
      vertex 66.6489 -3.84062 0
      vertex 66.3815 -4.40877 15
      vertex 66.3815 -4.40877 0
    endloop
  endfacet
  facet normal 0.770468 0.637478 0
    outer loop
      vertex 66.0451 4.93893 15
      vertex 65.6448 5.42274 0
      vertex 65.6448 5.42274 15
    endloop
  endfacet
  facet normal 0.770468 0.637478 0
    outer loop
      vertex 65.6448 5.42274 0
      vertex 66.0451 4.93893 15
      vertex 66.0451 4.93893 0
    endloop
  endfacet
  facet normal 0.248691 0.968583 -0
    outer loop
      vertex 63.5451 6.75528 0
      vertex 62.9369 6.91144 15
      vertex 63.5451 6.75528 15
    endloop
  endfacet
  facet normal 0.248691 0.968583 0
    outer loop
      vertex 62.9369 6.91144 15
      vertex 63.5451 6.75528 0
      vertex 62.9369 6.91144 0
    endloop
  endfacet
  facet normal -0.368135 -0.929773 0
    outer loop
      vertex -64.1289 -6.52413 0
      vertex -63.5451 -6.75528 15
      vertex -64.1289 -6.52413 15
    endloop
  endfacet
  facet normal -0.368135 -0.929773 -0
    outer loop
      vertex -63.5451 -6.75528 15
      vertex -64.1289 -6.52413 0
      vertex -63.5451 -6.75528 0
    endloop
  endfacet
  facet normal -0.125332 -0.992115 0
    outer loop
      vertex -62.9369 -6.91144 0
      vertex -62.314 -6.99013 15
      vertex -62.9369 -6.91144 15
    endloop
  endfacet
  facet normal -0.125332 -0.992115 -0
    outer loop
      vertex -62.314 -6.99013 15
      vertex -62.9369 -6.91144 0
      vertex -62.314 -6.99013 0
    endloop
  endfacet
  facet normal -0.481772 -0.876297 0
    outer loop
      vertex -64.6791 -6.22164 0
      vertex -64.1289 -6.52413 15
      vertex -64.6791 -6.22164 15
    endloop
  endfacet
  facet normal -0.481772 -0.876297 -0
    outer loop
      vertex -64.1289 -6.52413 15
      vertex -64.6791 -6.22164 0
      vertex -64.1289 -6.52413 0
    endloop
  endfacet
  facet normal -0.684565 -0.728952 0
    outer loop
      vertex -65.6448 -5.42274 0
      vertex -65.1871 -5.85257 15
      vertex -65.6448 -5.42274 15
    endloop
  endfacet
  facet normal -0.684565 -0.728952 -0
    outer loop
      vertex -65.1871 -5.85257 15
      vertex -65.6448 -5.42274 0
      vertex -65.1871 -5.85257 0
    endloop
  endfacet
  facet normal 1 -0 0
    outer loop
      vertex 67 -2 15
      vertex 67 2 0
      vertex 67 2 15
    endloop
  endfacet
  facet normal 1 0 0
    outer loop
      vertex 67 2 0
      vertex 67 -2 15
      vertex 67 -2 0
    endloop
  endfacet
  facet normal 0.684565 -0.728952 0
    outer loop
      vertex 65.1871 -5.85257 0
      vertex 65.6448 -5.42274 15
      vertex 65.1871 -5.85257 15
    endloop
  endfacet
  facet normal 0.684565 -0.728952 0
    outer loop
      vertex 65.6448 -5.42274 15
      vertex 65.1871 -5.85257 0
      vertex 65.6448 -5.42274 0
    endloop
  endfacet
  facet normal 0.844364 -0.53577 0
    outer loop
      vertex 66.0451 -4.93893 15
      vertex 66.3815 -4.40877 0
      vertex 66.3815 -4.40877 15
    endloop
  endfacet
  facet normal 0.844364 -0.53577 0
    outer loop
      vertex 66.3815 -4.40877 0
      vertex 66.0451 -4.93893 15
      vertex 66.0451 -4.93893 0
    endloop
  endfacet
  facet normal 0.481772 -0.876297 0
    outer loop
      vertex 64.1289 -6.52413 0
      vertex 64.6791 -6.22164 15
      vertex 64.1289 -6.52413 15
    endloop
  endfacet
  facet normal 0.481772 -0.876297 0
    outer loop
      vertex 64.6791 -6.22164 15
      vertex 64.1289 -6.52413 0
      vertex 64.6791 -6.22164 0
    endloop
  endfacet
  facet normal 0.951072 0.30897 0
    outer loop
      vertex 66.8429 3.24345 15
      vertex 66.6489 3.84062 0
      vertex 66.6489 3.84062 15
    endloop
  endfacet
  facet normal 0.951072 0.30897 0
    outer loop
      vertex 66.6489 3.84062 0
      vertex 66.8429 3.24345 15
      vertex 66.8429 3.24345 0
    endloop
  endfacet
  facet normal 0.684565 0.728952 -0
    outer loop
      vertex 65.6448 5.42274 0
      vertex 65.1871 5.85257 15
      vertex 65.6448 5.42274 15
    endloop
  endfacet
  facet normal 0.684565 0.728952 0
    outer loop
      vertex 65.1871 5.85257 15
      vertex 65.6448 5.42274 0
      vertex 65.1871 5.85257 0
    endloop
  endfacet
  facet normal 0.368135 0.929773 -0
    outer loop
      vertex 64.1289 6.52413 0
      vertex 63.5451 6.75528 15
      vertex 64.1289 6.52413 15
    endloop
  endfacet
  facet normal 0.368135 0.929773 0
    outer loop
      vertex 63.5451 6.75528 15
      vertex 64.1289 6.52413 0
      vertex 63.5451 6.75528 0
    endloop
  endfacet
  facet normal 0.125332 0.992115 -0
    outer loop
      vertex 62.9369 6.91144 0
      vertex 62.314 6.99013 15
      vertex 62.9369 6.91144 15
    endloop
  endfacet
  facet normal 0.125332 0.992115 0
    outer loop
      vertex 62.314 6.99013 15
      vertex 62.9369 6.91144 0
      vertex 62.314 6.99013 0
    endloop
  endfacet
  facet normal -0.125332 0.992115 0
    outer loop
      vertex -62.314 6.99013 0
      vertex -62.9369 6.91144 15
      vertex -62.314 6.99013 15
    endloop
  endfacet
  facet normal -0.125332 0.992115 0
    outer loop
      vertex -62.9369 6.91144 15
      vertex -62.314 6.99013 0
      vertex -62.9369 6.91144 0
    endloop
  endfacet
  facet normal -0.951072 0.30897 0
    outer loop
      vertex -66.8429 3.24345 0
      vertex -66.6489 3.84062 15
      vertex -66.6489 3.84062 0
    endloop
  endfacet
  facet normal -0.951072 0.30897 0
    outer loop
      vertex -66.6489 3.84062 15
      vertex -66.8429 3.24345 0
      vertex -66.8429 3.24345 15
    endloop
  endfacet
  facet normal 0 0 -1
    outer loop
      vertex 63.0218 -1.1964 0
      vertex 67 -2 0
      vertex 66.9606 -2.62667 0
    endloop
  endfacet
  facet normal 0 0 -1
    outer loop
      vertex 67 -2 0
      vertex 63.25 0 0
      vertex 67 2 0
    endloop
  endfacet
  facet normal 0 0 -1
    outer loop
      vertex 62.848 -1.5657 0
      vertex 66.9606 -2.62667 0
      vertex 66.8429 -3.24345 0
    endloop
  endfacet
  facet normal 0 0 -1
    outer loop
      vertex 63.2244 0.407332 0
      vertex 67 2 0
      vertex 63.25 0 0
    endloop
  endfacet
  facet normal 0 0 -1
    outer loop
      vertex 62.848 -1.5657 0
      vertex 66.8429 -3.24345 0
      vertex 66.6489 -3.84062 0
    endloop
  endfacet
  facet normal 0 0 -1
    outer loop
      vertex 63.1479 0.808242 0
      vertex 67 2 0
      vertex 63.2244 0.407332 0
    endloop
  endfacet
  facet normal 0 0 -1
    outer loop
      vertex 62.6293 -1.9103 0
      vertex 66.6489 -3.84062 0
      vertex 66.3815 -4.40877 0
    endloop
  endfacet
  facet normal 0 0 -1
    outer loop
      vertex 63.0218 1.1964 0
      vertex 67 2 0
      vertex 63.1479 0.808242 0
    endloop
  endfacet
  facet normal 0 0 -1
    outer loop
      vertex 62.6293 -1.9103 0
      vertex 66.3815 -4.40877 0
      vertex 66.0451 -4.93893 0
    endloop
  endfacet
  facet normal -0 0 -1
    outer loop
      vertex 67 2 0
      vertex 63.0218 1.1964 0
      vertex 66.9606 2.62667 0
    endloop
  endfacet
  facet normal 0 0 -1
    outer loop
      vertex 62.3691 -2.22478 0
      vertex 66.0451 -4.93893 0
      vertex 65.6448 -5.42274 0
    endloop
  endfacet
  facet normal 0 0 -1
    outer loop
      vertex 62.848 1.5657 0
      vertex 66.9606 2.62667 0
      vertex 63.0218 1.1964 0
    endloop
  endfacet
  facet normal 0 0 -1
    outer loop
      vertex 62.3691 -2.22478 0
      vertex 65.6448 -5.42274 0
      vertex 65.1871 -5.85257 0
    endloop
  endfacet
  facet normal -0 0 -1
    outer loop
      vertex 66.9606 2.62667 0
      vertex 62.848 1.5657 0
      vertex 66.8429 3.24345 0
    endloop
  endfacet
  facet normal 0 0 -1
    outer loop
      vertex 62.0716 -2.50417 0
      vertex 65.1871 -5.85257 0
      vertex 64.6791 -6.22164 0
    endloop
  endfacet
  facet normal -0 0 -1
    outer loop
      vertex 66.8429 3.24345 0
      vertex 62.848 1.5657 0
      vertex 66.6489 3.84062 0
    endloop
  endfacet
  facet normal 0 0 -1
    outer loop
      vertex 62.0716 -2.50417 0
      vertex 64.6791 -6.22164 0
      vertex 64.1289 -6.52413 0
    endloop
  endfacet
  facet normal 0 0 -1
    outer loop
      vertex 62.6293 1.9103 0
      vertex 66.6489 3.84062 0
      vertex 62.848 1.5657 0
    endloop
  endfacet
  facet normal 0 0 -1
    outer loop
      vertex 61.7414 -2.74407 0
      vertex 64.1289 -6.52413 0
      vertex 63.5451 -6.75528 0
    endloop
  endfacet
  facet normal -0 0 -1
    outer loop
      vertex 66.6489 3.84062 0
      vertex 62.6293 1.9103 0
      vertex 66.3815 4.40877 0
    endloop
  endfacet
  facet normal -0 0 -1
    outer loop
      vertex 66.3815 4.40877 0
      vertex 62.6293 1.9103 0
      vertex 66.0451 4.93893 0
    endloop
  endfacet
  facet normal 0 0 -1
    outer loop
      vertex 67 -2 0
      vertex 63.2244 -0.407332 0
      vertex 63.25 0 0
    endloop
  endfacet
  facet normal 0 0 -1
    outer loop
      vertex 67 -2 0
      vertex 63.1479 -0.808242 0
      vertex 63.2244 -0.407332 0
    endloop
  endfacet
  facet normal 0 0 -1
    outer loop
      vertex 67 -2 0
      vertex 63.0218 -1.1964 0
      vertex 63.1479 -0.808242 0
    endloop
  endfacet
  facet normal 0 0 -1
    outer loop
      vertex 61.7414 -2.74407 0
      vertex 63.5451 -6.75528 0
      vertex 62.9369 -6.91144 0
    endloop
  endfacet
  facet normal 0 0 -1
    outer loop
      vertex 66.9606 -2.62667 0
      vertex 62.848 -1.5657 0
      vertex 63.0218 -1.1964 0
    endloop
  endfacet
  facet normal 0 0 -1
    outer loop
      vertex 66.6489 -3.84062 0
      vertex 62.6293 -1.9103 0
      vertex 62.848 -1.5657 0
    endloop
  endfacet
  facet normal 0 0 -1
    outer loop
      vertex 66.0451 -4.93893 0
      vertex 62.3691 -2.22478 0
      vertex 62.6293 -1.9103 0
    endloop
  endfacet
  facet normal 0 0 -1
    outer loop
      vertex 61.3838 -2.94069 0
      vertex 62.9369 -6.91144 0
      vertex 62.314 -6.99013 0
    endloop
  endfacet
  facet normal 0 0 -1
    outer loop
      vertex 65.1871 -5.85257 0
      vertex 62.0716 -2.50417 0
      vertex 62.3691 -2.22478 0
    endloop
  endfacet
  facet normal 0 0 -1
    outer loop
      vertex 64.1289 -6.52413 0
      vertex 61.7414 -2.74407 0
      vertex 62.0716 -2.50417 0
    endloop
  endfacet
  facet normal 0 0 -1
    outer loop
      vertex 62.9369 -6.91144 0
      vertex 61.3838 -2.94069 0
      vertex 61.7414 -2.74407 0
    endloop
  endfacet
  facet normal 0 0 -1
    outer loop
      vertex 62.314 -6.99013 0
      vertex 61.0043 -3.09093 0
      vertex 61.3838 -2.94069 0
    endloop
  endfacet
  facet normal 0 0 -1
    outer loop
      vertex 62.314 -6.99013 0
      vertex 60.609 -3.19243 0
      vertex 61.0043 -3.09093 0
    endloop
  endfacet
  facet normal 0 0 -1
    outer loop
      vertex 62.314 -6.99013 0
      vertex 60.2041 -3.24359 0
      vertex 60.609 -3.19243 0
    endloop
  endfacet
  facet normal 0 0 -1
    outer loop
      vertex 62.314 -6.99013 0
      vertex 59.7959 -3.24359 0
      vertex 60.2041 -3.24359 0
    endloop
  endfacet
  facet normal 0 0 -1
    outer loop
      vertex 62.314 -6.99013 0
      vertex 59.391 -3.19243 0
      vertex 59.7959 -3.24359 0
    endloop
  endfacet
  facet normal 0 0 -1
    outer loop
      vertex 62.314 -6.99013 0
      vertex 58.9957 -3.09093 0
      vertex 59.391 -3.19243 0
    endloop
  endfacet
  facet normal 0 0 -1
    outer loop
      vertex 62.314 -6.99013 0
      vertex 58.6162 -2.94069 0
      vertex 58.9957 -3.09093 0
    endloop
  endfacet
  facet normal 0 0 -1
    outer loop
      vertex 62.314 -6.99013 0
      vertex 58.2586 -2.74407 0
      vertex 58.6162 -2.94069 0
    endloop
  endfacet
  facet normal 0 0 -1
    outer loop
      vertex 62.314 -6.99013 0
      vertex 57.9284 -2.50417 0
      vertex 58.2586 -2.74407 0
    endloop
  endfacet
  facet normal 0 0 -1
    outer loop
      vertex 62.314 -6.99013 0
      vertex 57.6309 -2.22478 0
      vertex 57.9284 -2.50417 0
    endloop
  endfacet
  facet normal 0 0 -1
    outer loop
      vertex 56.7756 -0.407332 0
      vertex -56.75 0 0
      vertex 56.75 0 0
    endloop
  endfacet
  facet normal 0 0 -1
    outer loop
      vertex -56.7756 -0.407332 0
      vertex 56.7756 -0.407332 0
      vertex 56.8521 -0.808242 0
    endloop
  endfacet
  facet normal 0 0 -1
    outer loop
      vertex -56.8521 -0.808242 0
      vertex 56.8521 -0.808242 0
      vertex 56.9782 -1.1964 0
    endloop
  endfacet
  facet normal 0 0 -1
    outer loop
      vertex -56.9782 -1.1964 0
      vertex 56.9782 -1.1964 0
      vertex 57.152 -1.5657 0
    endloop
  endfacet
  facet normal 0 0 -1
    outer loop
      vertex -57.152 -1.5657 0
      vertex 57.152 -1.5657 0
      vertex 57.3707 -1.9103 0
    endloop
  endfacet
  facet normal 0 0 -1
    outer loop
      vertex -57.3707 -1.9103 0
      vertex 57.3707 -1.9103 0
      vertex 57.6309 -2.22478 0
    endloop
  endfacet
  facet normal 0 0 -1
    outer loop
      vertex -57.6309 -2.22478 0
      vertex 57.6309 -2.22478 0
      vertex 62.314 -6.99013 0
    endloop
  endfacet
  facet normal 0 0 -1
    outer loop
      vertex 56.7756 -0.407332 0
      vertex -56.7756 -0.407332 0
      vertex -56.75 0 0
    endloop
  endfacet
  facet normal 0 0 -1
    outer loop
      vertex 56.8521 -0.808242 0
      vertex -56.8521 -0.808242 0
      vertex -56.7756 -0.407332 0
    endloop
  endfacet
  facet normal 0 0 -1
    outer loop
      vertex 56.9782 -1.1964 0
      vertex -56.9782 -1.1964 0
      vertex -56.8521 -0.808242 0
    endloop
  endfacet
  facet normal 0 0 -1
    outer loop
      vertex 57.152 -1.5657 0
      vertex -57.152 -1.5657 0
      vertex -56.9782 -1.1964 0
    endloop
  endfacet
  facet normal 0 0 -1
    outer loop
      vertex 57.3707 -1.9103 0
      vertex -57.3707 -1.9103 0
      vertex -57.152 -1.5657 0
    endloop
  endfacet
  facet normal 0 0 -1
    outer loop
      vertex 57.6309 -2.22478 0
      vertex -57.6309 -2.22478 0
      vertex -57.3707 -1.9103 0
    endloop
  endfacet
  facet normal 0 0 -1
    outer loop
      vertex 62.314 -6.99013 0
      vertex -57.9284 -2.50417 0
      vertex -57.6309 -2.22478 0
    endloop
  endfacet
  facet normal 0 0 -1
    outer loop
      vertex -62.314 -6.99013 0
      vertex -57.9284 -2.50417 0
      vertex 62.314 -6.99013 0
    endloop
  endfacet
  facet normal 0 0 -1
    outer loop
      vertex -57.9284 -2.50417 0
      vertex -62.314 -6.99013 0
      vertex -58.2586 -2.74407 0
    endloop
  endfacet
  facet normal 0 0 -1
    outer loop
      vertex -58.2586 -2.74407 0
      vertex -62.314 -6.99013 0
      vertex -58.6162 -2.94069 0
    endloop
  endfacet
  facet normal 0 0 -1
    outer loop
      vertex -58.6162 -2.94069 0
      vertex -62.314 -6.99013 0
      vertex -58.9957 -3.09093 0
    endloop
  endfacet
  facet normal 0 0 -1
    outer loop
      vertex -58.9957 -3.09093 0
      vertex -62.314 -6.99013 0
      vertex -59.391 -3.19243 0
    endloop
  endfacet
  facet normal 0 0 -1
    outer loop
      vertex -59.391 -3.19243 0
      vertex -62.314 -6.99013 0
      vertex -59.7959 -3.24359 0
    endloop
  endfacet
  facet normal -0 0 -1
    outer loop
      vertex -59.7959 -3.24359 0
      vertex -62.314 -6.99013 0
      vertex -60.2041 -3.24359 0
    endloop
  endfacet
  facet normal 0 0 -1
    outer loop
      vertex -62.314 -6.99013 0
      vertex -60.609 -3.19243 0
      vertex -60.2041 -3.24359 0
    endloop
  endfacet
  facet normal 0 0 -1
    outer loop
      vertex -62.314 -6.99013 0
      vertex -61.0043 -3.09093 0
      vertex -60.609 -3.19243 0
    endloop
  endfacet
  facet normal 0 0 -1
    outer loop
      vertex -62.314 -6.99013 0
      vertex -61.3838 -2.94069 0
      vertex -61.0043 -3.09093 0
    endloop
  endfacet
  facet normal 0 0 -1
    outer loop
      vertex -62.9369 -6.91144 0
      vertex -61.3838 -2.94069 0
      vertex -62.314 -6.99013 0
    endloop
  endfacet
  facet normal -0 0 -1
    outer loop
      vertex -61.3838 -2.94069 0
      vertex -62.9369 -6.91144 0
      vertex -61.7414 -2.74407 0
    endloop
  endfacet
  facet normal 0 0 -1
    outer loop
      vertex -63.5451 -6.75528 0
      vertex -61.7414 -2.74407 0
      vertex -62.9369 -6.91144 0
    endloop
  endfacet
  facet normal 0 0 -1
    outer loop
      vertex -64.1289 -6.52413 0
      vertex -61.7414 -2.74407 0
      vertex -63.5451 -6.75528 0
    endloop
  endfacet
  facet normal -0 0 -1
    outer loop
      vertex -61.7414 -2.74407 0
      vertex -64.1289 -6.52413 0
      vertex -62.0716 -2.50417 0
    endloop
  endfacet
  facet normal 0 0 -1
    outer loop
      vertex -64.6791 -6.22164 0
      vertex -62.0716 -2.50417 0
      vertex -64.1289 -6.52413 0
    endloop
  endfacet
  facet normal 0 0 -1
    outer loop
      vertex -65.1871 -5.85257 0
      vertex -62.0716 -2.50417 0
      vertex -64.6791 -6.22164 0
    endloop
  endfacet
  facet normal -0 0 -1
    outer loop
      vertex -62.0716 -2.50417 0
      vertex -65.1871 -5.85257 0
      vertex -62.3691 -2.22478 0
    endloop
  endfacet
  facet normal 0 0 -1
    outer loop
      vertex -65.6448 -5.42274 0
      vertex -62.3691 -2.22478 0
      vertex -65.1871 -5.85257 0
    endloop
  endfacet
  facet normal 0 0 -1
    outer loop
      vertex -66.0451 -4.93893 0
      vertex -62.3691 -2.22478 0
      vertex -65.6448 -5.42274 0
    endloop
  endfacet
  facet normal -0 0 -1
    outer loop
      vertex -62.3691 -2.22478 0
      vertex -66.0451 -4.93893 0
      vertex -62.6293 -1.9103 0
    endloop
  endfacet
  facet normal 0 0 -1
    outer loop
      vertex 62.3691 2.22478 0
      vertex 66.0451 4.93893 0
      vertex 62.6293 1.9103 0
    endloop
  endfacet
  facet normal -0 0 -1
    outer loop
      vertex 66.0451 4.93893 0
      vertex 62.3691 2.22478 0
      vertex 65.6448 5.42274 0
    endloop
  endfacet
  facet normal -0 0 -1
    outer loop
      vertex 65.6448 5.42274 0
      vertex 62.3691 2.22478 0
      vertex 65.1871 5.85257 0
    endloop
  endfacet
  facet normal 0 0 -1
    outer loop
      vertex 62.0716 2.50417 0
      vertex 65.1871 5.85257 0
      vertex 62.3691 2.22478 0
    endloop
  endfacet
  facet normal -0 0 -1
    outer loop
      vertex 65.1871 5.85257 0
      vertex 62.0716 2.50417 0
      vertex 64.6791 6.22164 0
    endloop
  endfacet
  facet normal -0 0 -1
    outer loop
      vertex 64.6791 6.22164 0
      vertex 62.0716 2.50417 0
      vertex 64.1289 6.52413 0
    endloop
  endfacet
  facet normal 0 0 -1
    outer loop
      vertex 61.7414 2.74407 0
      vertex 64.1289 6.52413 0
      vertex 62.0716 2.50417 0
    endloop
  endfacet
  facet normal -0 0 -1
    outer loop
      vertex 64.1289 6.52413 0
      vertex 61.7414 2.74407 0
      vertex 63.5451 6.75528 0
    endloop
  endfacet
  facet normal -0 0 -1
    outer loop
      vertex 63.5451 6.75528 0
      vertex 61.7414 2.74407 0
      vertex 62.9369 6.91144 0
    endloop
  endfacet
  facet normal 0 0 -1
    outer loop
      vertex 61.3838 2.94069 0
      vertex 62.9369 6.91144 0
      vertex 61.7414 2.74407 0
    endloop
  endfacet
  facet normal -0 0 -1
    outer loop
      vertex 62.9369 6.91144 0
      vertex 61.3838 2.94069 0
      vertex 62.314 6.99013 0
    endloop
  endfacet
  facet normal 0 0 -1
    outer loop
      vertex 61.0043 3.09093 0
      vertex 62.314 6.99013 0
      vertex 61.3838 2.94069 0
    endloop
  endfacet
  facet normal 0 0 -1
    outer loop
      vertex 60.609 3.19243 0
      vertex 62.314 6.99013 0
      vertex 61.0043 3.09093 0
    endloop
  endfacet
  facet normal 0 0 -1
    outer loop
      vertex 60.2041 3.24359 0
      vertex 62.314 6.99013 0
      vertex 60.609 3.19243 0
    endloop
  endfacet
  facet normal 0 0 -1
    outer loop
      vertex 59.7959 3.24359 0
      vertex 62.314 6.99013 0
      vertex 60.2041 3.24359 0
    endloop
  endfacet
  facet normal 0 0 -1
    outer loop
      vertex 59.391 3.19243 0
      vertex 62.314 6.99013 0
      vertex 59.7959 3.24359 0
    endloop
  endfacet
  facet normal 0 0 -1
    outer loop
      vertex 58.9957 3.09093 0
      vertex 62.314 6.99013 0
      vertex 59.391 3.19243 0
    endloop
  endfacet
  facet normal 0 0 -1
    outer loop
      vertex 58.6162 2.94069 0
      vertex 62.314 6.99013 0
      vertex 58.9957 3.09093 0
    endloop
  endfacet
  facet normal 0 0 -1
    outer loop
      vertex 58.2586 2.74407 0
      vertex 62.314 6.99013 0
      vertex 58.6162 2.94069 0
    endloop
  endfacet
  facet normal 0 0 -1
    outer loop
      vertex 57.9284 2.50417 0
      vertex 62.314 6.99013 0
      vertex 58.2586 2.74407 0
    endloop
  endfacet
  facet normal 0 0 -1
    outer loop
      vertex 57.6309 2.22478 0
      vertex 62.314 6.99013 0
      vertex 57.9284 2.50417 0
    endloop
  endfacet
  facet normal 0 0 -1
    outer loop
      vertex -56.75 0 0
      vertex 56.7756 0.407332 0
      vertex 56.75 0 0
    endloop
  endfacet
  facet normal 0 0 -1
    outer loop
      vertex -56.7756 0.407332 0
      vertex 56.7756 0.407332 0
      vertex -56.75 0 0
    endloop
  endfacet
  facet normal 0 0 -1
    outer loop
      vertex 56.7756 0.407332 0
      vertex -56.7756 0.407332 0
      vertex 56.8521 0.808242 0
    endloop
  endfacet
  facet normal 0 0 -1
    outer loop
      vertex -56.8521 0.808242 0
      vertex 56.8521 0.808242 0
      vertex -56.7756 0.407332 0
    endloop
  endfacet
  facet normal 0 0 -1
    outer loop
      vertex 56.8521 0.808242 0
      vertex -56.8521 0.808242 0
      vertex 56.9782 1.1964 0
    endloop
  endfacet
  facet normal 0 0 -1
    outer loop
      vertex -56.9782 1.1964 0
      vertex 56.9782 1.1964 0
      vertex -56.8521 0.808242 0
    endloop
  endfacet
  facet normal 0 0 -1
    outer loop
      vertex 56.9782 1.1964 0
      vertex -56.9782 1.1964 0
      vertex 57.152 1.5657 0
    endloop
  endfacet
  facet normal 0 0 -1
    outer loop
      vertex -57.152 1.5657 0
      vertex 57.152 1.5657 0
      vertex -56.9782 1.1964 0
    endloop
  endfacet
  facet normal 0 0 -1
    outer loop
      vertex 57.152 1.5657 0
      vertex -57.152 1.5657 0
      vertex 57.3707 1.9103 0
    endloop
  endfacet
  facet normal 0 0 -1
    outer loop
      vertex -57.3707 1.9103 0
      vertex 57.3707 1.9103 0
      vertex -57.152 1.5657 0
    endloop
  endfacet
  facet normal 0 0 -1
    outer loop
      vertex 57.3707 1.9103 0
      vertex -57.3707 1.9103 0
      vertex 57.6309 2.22478 0
    endloop
  endfacet
  facet normal 0 0 -1
    outer loop
      vertex -57.6309 2.22478 0
      vertex 57.6309 2.22478 0
      vertex -57.3707 1.9103 0
    endloop
  endfacet
  facet normal 0 0 -1
    outer loop
      vertex 57.6309 2.22478 0
      vertex -57.6309 2.22478 0
      vertex 62.314 6.99013 0
    endloop
  endfacet
  facet normal 0 0 -1
    outer loop
      vertex -57.9284 2.50417 0
      vertex 62.314 6.99013 0
      vertex -57.6309 2.22478 0
    endloop
  endfacet
  facet normal 0 0 -1
    outer loop
      vertex -62.314 6.99013 0
      vertex -57.9284 2.50417 0
      vertex -58.2586 2.74407 0
    endloop
  endfacet
  facet normal 0 0 -1
    outer loop
      vertex -62.314 6.99013 0
      vertex -58.2586 2.74407 0
      vertex -58.6162 2.94069 0
    endloop
  endfacet
  facet normal 0 0 -1
    outer loop
      vertex -62.314 6.99013 0
      vertex -58.6162 2.94069 0
      vertex -58.9957 3.09093 0
    endloop
  endfacet
  facet normal 0 0 -1
    outer loop
      vertex -62.314 6.99013 0
      vertex -58.9957 3.09093 0
      vertex -59.391 3.19243 0
    endloop
  endfacet
  facet normal 0 0 -1
    outer loop
      vertex -62.314 6.99013 0
      vertex -59.391 3.19243 0
      vertex -59.7959 3.24359 0
    endloop
  endfacet
  facet normal 0 0 -1
    outer loop
      vertex -62.314 6.99013 0
      vertex -59.7959 3.24359 0
      vertex -60.2041 3.24359 0
    endloop
  endfacet
  facet normal 0 0 -1
    outer loop
      vertex -57.9284 2.50417 0
      vertex -62.314 6.99013 0
      vertex 62.314 6.99013 0
    endloop
  endfacet
  facet normal 0 0 -1
    outer loop
      vertex -60.609 3.19243 0
      vertex -62.314 6.99013 0
      vertex -60.2041 3.24359 0
    endloop
  endfacet
  facet normal 0 0 -1
    outer loop
      vertex -61.0043 3.09093 0
      vertex -62.314 6.99013 0
      vertex -60.609 3.19243 0
    endloop
  endfacet
  facet normal 0 0 -1
    outer loop
      vertex -61.3838 2.94069 0
      vertex -62.314 6.99013 0
      vertex -61.0043 3.09093 0
    endloop
  endfacet
  facet normal 0 0 -1
    outer loop
      vertex -62.9369 6.91144 0
      vertex -61.3838 2.94069 0
      vertex -61.7414 2.74407 0
    endloop
  endfacet
  facet normal 0 0 -1
    outer loop
      vertex -64.1289 6.52413 0
      vertex -61.7414 2.74407 0
      vertex -62.0716 2.50417 0
    endloop
  endfacet
  facet normal 0 0 -1
    outer loop
      vertex -65.1871 5.85257 0
      vertex -62.0716 2.50417 0
      vertex -62.3691 2.22478 0
    endloop
  endfacet
  facet normal 0 0 -1
    outer loop
      vertex -66.0451 4.93893 0
      vertex -62.3691 2.22478 0
      vertex -62.6293 1.9103 0
    endloop
  endfacet
  facet normal 0 0 -1
    outer loop
      vertex -66.6489 3.84062 0
      vertex -62.6293 1.9103 0
      vertex -62.848 1.5657 0
    endloop
  endfacet
  facet normal 0 0 -1
    outer loop
      vertex -61.3838 2.94069 0
      vertex -62.9369 6.91144 0
      vertex -62.314 6.99013 0
    endloop
  endfacet
  facet normal 0 0 -1
    outer loop
      vertex -66.9606 2.62667 0
      vertex -62.848 1.5657 0
      vertex -63.0218 1.1964 0
    endloop
  endfacet
  facet normal 0 0 -1
    outer loop
      vertex -67 2 0
      vertex -63.0218 1.1964 0
      vertex -63.1479 0.808242 0
    endloop
  endfacet
  facet normal 0 0 -1
    outer loop
      vertex -67 2 0
      vertex -63.1479 0.808242 0
      vertex -63.2244 0.407332 0
    endloop
  endfacet
  facet normal 0 0 -1
    outer loop
      vertex -67 2 0
      vertex -63.2244 0.407332 0
      vertex -63.25 0 0
    endloop
  endfacet
  facet normal 0 0 -1
    outer loop
      vertex -61.7414 2.74407 0
      vertex -63.5451 6.75528 0
      vertex -62.9369 6.91144 0
    endloop
  endfacet
  facet normal 0 0 -1
    outer loop
      vertex -66.3815 -4.40877 0
      vertex -62.6293 -1.9103 0
      vertex -66.0451 -4.93893 0
    endloop
  endfacet
  facet normal 0 0 -1
    outer loop
      vertex -66.6489 -3.84062 0
      vertex -62.6293 -1.9103 0
      vertex -66.3815 -4.40877 0
    endloop
  endfacet
  facet normal 0 0 -1
    outer loop
      vertex -67 2 0
      vertex -63.25 0 0
      vertex -67 -2 0
    endloop
  endfacet
  facet normal -0 0 -1
    outer loop
      vertex -62.6293 -1.9103 0
      vertex -66.6489 -3.84062 0
      vertex -62.848 -1.5657 0
    endloop
  endfacet
  facet normal 0 0 -1
    outer loop
      vertex -63.0218 1.1964 0
      vertex -67 2 0
      vertex -66.9606 2.62667 0
    endloop
  endfacet
  facet normal 0 0 -1
    outer loop
      vertex -66.8429 -3.24345 0
      vertex -62.848 -1.5657 0
      vertex -66.6489 -3.84062 0
    endloop
  endfacet
  facet normal 0 0 -1
    outer loop
      vertex -61.7414 2.74407 0
      vertex -64.1289 6.52413 0
      vertex -63.5451 6.75528 0
    endloop
  endfacet
  facet normal 0 0 -1
    outer loop
      vertex -66.9606 -2.62667 0
      vertex -62.848 -1.5657 0
      vertex -66.8429 -3.24345 0
    endloop
  endfacet
  facet normal 0 0 -1
    outer loop
      vertex -62.0716 2.50417 0
      vertex -64.6791 6.22164 0
      vertex -64.1289 6.52413 0
    endloop
  endfacet
  facet normal -0 0 -1
    outer loop
      vertex -62.848 -1.5657 0
      vertex -66.9606 -2.62667 0
      vertex -63.0218 -1.1964 0
    endloop
  endfacet
  facet normal 0 0 -1
    outer loop
      vertex -62.0716 2.50417 0
      vertex -65.1871 5.85257 0
      vertex -64.6791 6.22164 0
    endloop
  endfacet
  facet normal 0 0 -1
    outer loop
      vertex -67 -2 0
      vertex -63.0218 -1.1964 0
      vertex -66.9606 -2.62667 0
    endloop
  endfacet
  facet normal 0 0 -1
    outer loop
      vertex -62.3691 2.22478 0
      vertex -65.6448 5.42274 0
      vertex -65.1871 5.85257 0
    endloop
  endfacet
  facet normal -0 0 -1
    outer loop
      vertex -63.0218 -1.1964 0
      vertex -67 -2 0
      vertex -63.1479 -0.808242 0
    endloop
  endfacet
  facet normal 0 0 -1
    outer loop
      vertex -62.3691 2.22478 0
      vertex -66.0451 4.93893 0
      vertex -65.6448 5.42274 0
    endloop
  endfacet
  facet normal -0 0 -1
    outer loop
      vertex -63.1479 -0.808242 0
      vertex -67 -2 0
      vertex -63.2244 -0.407332 0
    endloop
  endfacet
  facet normal 0 0 -1
    outer loop
      vertex -62.6293 1.9103 0
      vertex -66.3815 4.40877 0
      vertex -66.0451 4.93893 0
    endloop
  endfacet
  facet normal -0 0 -1
    outer loop
      vertex -63.2244 -0.407332 0
      vertex -67 -2 0
      vertex -63.25 0 0
    endloop
  endfacet
  facet normal 0 0 -1
    outer loop
      vertex -62.6293 1.9103 0
      vertex -66.6489 3.84062 0
      vertex -66.3815 4.40877 0
    endloop
  endfacet
  facet normal 0 0 -1
    outer loop
      vertex -62.848 1.5657 0
      vertex -66.8429 3.24345 0
      vertex -66.6489 3.84062 0
    endloop
  endfacet
  facet normal 0 0 -1
    outer loop
      vertex -62.848 1.5657 0
      vertex -66.9606 2.62667 0
      vertex -66.8429 3.24345 0
    endloop
  endfacet
  facet normal -0.951072 -0.30897 0
    outer loop
      vertex -66.6489 -3.84062 0
      vertex -66.8429 -3.24345 15
      vertex -66.8429 -3.24345 0
    endloop
  endfacet
  facet normal -0.951072 -0.30897 0
    outer loop
      vertex -66.8429 -3.24345 15
      vertex -66.6489 -3.84062 0
      vertex -66.6489 -3.84062 15
    endloop
  endfacet
  facet normal -0.982275 -0.187447 0
    outer loop
      vertex -66.8429 -3.24345 0
      vertex -66.9606 -2.62667 15
      vertex -66.9606 -2.62667 0
    endloop
  endfacet
  facet normal -0.982275 -0.187447 0
    outer loop
      vertex -66.9606 -2.62667 15
      vertex -66.8429 -3.24345 0
      vertex -66.8429 -3.24345 15
    endloop
  endfacet
  facet normal -0.904797 -0.425843 0
    outer loop
      vertex -66.3815 -4.40877 0
      vertex -66.6489 -3.84062 15
      vertex -66.6489 -3.84062 0
    endloop
  endfacet
  facet normal -0.904797 -0.425843 0
    outer loop
      vertex -66.6489 -3.84062 15
      vertex -66.3815 -4.40877 0
      vertex -66.3815 -4.40877 15
    endloop
  endfacet
  facet normal -0.770468 -0.637478 0
    outer loop
      vertex -65.6448 -5.42274 0
      vertex -66.0451 -4.93893 15
      vertex -66.0451 -4.93893 0
    endloop
  endfacet
  facet normal -0.770468 -0.637478 0
    outer loop
      vertex -66.0451 -4.93893 15
      vertex -65.6448 -5.42274 0
      vertex -65.6448 -5.42274 15
    endloop
  endfacet
  facet normal -0.248691 -0.968583 0
    outer loop
      vertex -63.5451 -6.75528 0
      vertex -62.9369 -6.91144 15
      vertex -63.5451 -6.75528 15
    endloop
  endfacet
  facet normal -0.248691 -0.968583 -0
    outer loop
      vertex -62.9369 -6.91144 15
      vertex -63.5451 -6.75528 0
      vertex -62.9369 -6.91144 0
    endloop
  endfacet
  facet normal -0.587771 -0.809027 0
    outer loop
      vertex -65.1871 -5.85257 0
      vertex -64.6791 -6.22164 15
      vertex -65.1871 -5.85257 15
    endloop
  endfacet
  facet normal -0.587771 -0.809027 -0
    outer loop
      vertex -64.6791 -6.22164 15
      vertex -65.1871 -5.85257 0
      vertex -64.6791 -6.22164 0
    endloop
  endfacet
  facet normal 0.982275 0.187447 0
    outer loop
      vertex 66.9606 2.62667 15
      vertex 66.8429 3.24345 0
      vertex 66.8429 3.24345 15
    endloop
  endfacet
  facet normal 0.982275 0.187447 0
    outer loop
      vertex 66.8429 3.24345 0
      vertex 66.9606 2.62667 15
      vertex 66.9606 2.62667 0
    endloop
  endfacet
  facet normal 0.951072 -0.30897 0
    outer loop
      vertex 66.6489 -3.84062 15
      vertex 66.8429 -3.24345 0
      vertex 66.8429 -3.24345 15
    endloop
  endfacet
  facet normal 0.951072 -0.30897 0
    outer loop
      vertex 66.8429 -3.24345 0
      vertex 66.6489 -3.84062 15
      vertex 66.6489 -3.84062 0
    endloop
  endfacet
  facet normal 0.998029 -0.0627481 0
    outer loop
      vertex 66.9606 -2.62667 15
      vertex 67 -2 0
      vertex 67 -2 15
    endloop
  endfacet
  facet normal 0.998029 -0.0627481 0
    outer loop
      vertex 67 -2 0
      vertex 66.9606 -2.62667 15
      vertex 66.9606 -2.62667 0
    endloop
  endfacet
  facet normal 0.587771 -0.809027 0
    outer loop
      vertex 64.6791 -6.22164 0
      vertex 65.1871 -5.85257 15
      vertex 64.6791 -6.22164 15
    endloop
  endfacet
  facet normal 0.587771 -0.809027 0
    outer loop
      vertex 65.1871 -5.85257 15
      vertex 64.6791 -6.22164 0
      vertex 65.1871 -5.85257 0
    endloop
  endfacet
  facet normal 0.770468 -0.637478 0
    outer loop
      vertex 65.6448 -5.42274 15
      vertex 66.0451 -4.93893 0
      vertex 66.0451 -4.93893 15
    endloop
  endfacet
  facet normal 0.770468 -0.637478 0
    outer loop
      vertex 66.0451 -4.93893 0
      vertex 65.6448 -5.42274 15
      vertex 65.6448 -5.42274 0
    endloop
  endfacet
  facet normal 0.125332 -0.992115 0
    outer loop
      vertex 62.314 -6.99013 0
      vertex 62.9369 -6.91144 15
      vertex 62.314 -6.99013 15
    endloop
  endfacet
  facet normal 0.125332 -0.992115 0
    outer loop
      vertex 62.9369 -6.91144 15
      vertex 62.314 -6.99013 0
      vertex 62.9369 -6.91144 0
    endloop
  endfacet
  facet normal 0.368135 -0.929773 0
    outer loop
      vertex 63.5451 -6.75528 0
      vertex 64.1289 -6.52413 15
      vertex 63.5451 -6.75528 15
    endloop
  endfacet
  facet normal 0.368135 -0.929773 0
    outer loop
      vertex 64.1289 -6.52413 15
      vertex 63.5451 -6.75528 0
      vertex 64.1289 -6.52413 0
    endloop
  endfacet
  facet normal 0.587771 0.809027 -0
    outer loop
      vertex 65.1871 5.85257 0
      vertex 64.6791 6.22164 15
      vertex 65.1871 5.85257 15
    endloop
  endfacet
  facet normal 0.587771 0.809027 0
    outer loop
      vertex 64.6791 6.22164 15
      vertex 65.1871 5.85257 0
      vertex 64.6791 6.22164 0
    endloop
  endfacet
  facet normal 0.481772 0.876297 -0
    outer loop
      vertex 64.6791 6.22164 0
      vertex 64.1289 6.52413 15
      vertex 64.6791 6.22164 15
    endloop
  endfacet
  facet normal 0.481772 0.876297 0
    outer loop
      vertex 64.1289 6.52413 15
      vertex 64.6791 6.22164 0
      vertex 64.1289 6.52413 0
    endloop
  endfacet
  facet normal -0.684565 0.728952 0
    outer loop
      vertex -65.1871 5.85257 0
      vertex -65.6448 5.42274 15
      vertex -65.1871 5.85257 15
    endloop
  endfacet
  facet normal -0.684565 0.728952 0
    outer loop
      vertex -65.6448 5.42274 15
      vertex -65.1871 5.85257 0
      vertex -65.6448 5.42274 0
    endloop
  endfacet
  facet normal -0.368135 0.929773 0
    outer loop
      vertex -63.5451 6.75528 0
      vertex -64.1289 6.52413 15
      vertex -63.5451 6.75528 15
    endloop
  endfacet
  facet normal -0.368135 0.929773 0
    outer loop
      vertex -64.1289 6.52413 15
      vertex -63.5451 6.75528 0
      vertex -64.1289 6.52413 0
    endloop
  endfacet
  facet normal -0.998029 0.0627481 0
    outer loop
      vertex -67 2 0
      vertex -66.9606 2.62667 15
      vertex -66.9606 2.62667 0
    endloop
  endfacet
  facet normal -0.998029 0.0627481 0
    outer loop
      vertex -66.9606 2.62667 15
      vertex -67 2 0
      vertex -67 2 15
    endloop
  endfacet
  facet normal -0.982275 0.187447 0
    outer loop
      vertex -66.9606 2.62667 0
      vertex -66.8429 3.24345 15
      vertex -66.8429 3.24345 0
    endloop
  endfacet
  facet normal -0.982275 0.187447 0
    outer loop
      vertex -66.8429 3.24345 15
      vertex -66.9606 2.62667 0
      vertex -66.9606 2.62667 15
    endloop
  endfacet
  facet normal -0.770468 0.637478 0
    outer loop
      vertex -66.0451 4.93893 0
      vertex -65.6448 5.42274 15
      vertex -65.6448 5.42274 0
    endloop
  endfacet
  facet normal -0.770468 0.637478 0
    outer loop
      vertex -65.6448 5.42274 15
      vertex -66.0451 4.93893 0
      vertex -66.0451 4.93893 15
    endloop
  endfacet
  facet normal -0.844364 -0.53577 0
    outer loop
      vertex -66.0451 -4.93893 0
      vertex -66.3815 -4.40877 15
      vertex -66.3815 -4.40877 0
    endloop
  endfacet
  facet normal -0.844364 -0.53577 0
    outer loop
      vertex -66.3815 -4.40877 15
      vertex -66.0451 -4.93893 0
      vertex -66.0451 -4.93893 15
    endloop
  endfacet
  facet normal 0.998029 0.0627481 0
    outer loop
      vertex 67 2 15
      vertex 66.9606 2.62667 0
      vertex 66.9606 2.62667 15
    endloop
  endfacet
  facet normal 0.998029 0.0627481 0
    outer loop
      vertex 66.9606 2.62667 0
      vertex 67 2 15
      vertex 67 2 0
    endloop
  endfacet
  facet normal 0.248691 -0.968583 0
    outer loop
      vertex 62.9369 -6.91144 0
      vertex 63.5451 -6.75528 15
      vertex 62.9369 -6.91144 15
    endloop
  endfacet
  facet normal 0.248691 -0.968583 0
    outer loop
      vertex 63.5451 -6.75528 15
      vertex 62.9369 -6.91144 0
      vertex 63.5451 -6.75528 0
    endloop
  endfacet
  facet normal 0.844364 0.53577 0
    outer loop
      vertex 66.3815 4.40877 15
      vertex 66.0451 4.93893 0
      vertex 66.0451 4.93893 15
    endloop
  endfacet
  facet normal 0.844364 0.53577 0
    outer loop
      vertex 66.0451 4.93893 0
      vertex 66.3815 4.40877 15
      vertex 66.3815 4.40877 0
    endloop
  endfacet
  facet normal -0.248691 0.968583 0
    outer loop
      vertex -62.9369 6.91144 0
      vertex -63.5451 6.75528 15
      vertex -62.9369 6.91144 15
    endloop
  endfacet
  facet normal -0.248691 0.968583 0
    outer loop
      vertex -63.5451 6.75528 15
      vertex -62.9369 6.91144 0
      vertex -63.5451 6.75528 0
    endloop
  endfacet
  facet normal -0.904797 0.425843 0
    outer loop
      vertex -66.6489 3.84062 0
      vertex -66.3815 4.40877 15
      vertex -66.3815 4.40877 0
    endloop
  endfacet
  facet normal -0.904797 0.425843 0
    outer loop
      vertex -66.3815 4.40877 15
      vertex -66.6489 3.84062 0
      vertex -66.6489 3.84062 15
    endloop
  endfacet
  facet normal -0.844364 0.53577 0
    outer loop
      vertex -66.3815 4.40877 0
      vertex -66.0451 4.93893 15
      vertex -66.0451 4.93893 0
    endloop
  endfacet
  facet normal -0.844364 0.53577 0
    outer loop
      vertex -66.0451 4.93893 15
      vertex -66.3815 4.40877 0
      vertex -66.3815 4.40877 15
    endloop
  endfacet
  facet normal 0.982275 -0.187447 0
    outer loop
      vertex 66.8429 -3.24345 15
      vertex 66.9606 -2.62667 0
      vertex 66.9606 -2.62667 15
    endloop
  endfacet
  facet normal 0.982275 -0.187447 0
    outer loop
      vertex 66.9606 -2.62667 0
      vertex 66.8429 -3.24345 15
      vertex 66.8429 -3.24345 0
    endloop
  endfacet
  facet normal 0.904797 0.425843 0
    outer loop
      vertex 66.6489 3.84062 15
      vertex 66.3815 4.40877 0
      vertex 66.3815 4.40877 15
    endloop
  endfacet
  facet normal 0.904797 0.425843 0
    outer loop
      vertex 66.3815 4.40877 0
      vertex 66.6489 3.84062 15
      vertex 66.6489 3.84062 0
    endloop
  endfacet
  facet normal -0.587771 0.809027 0
    outer loop
      vertex -64.6791 6.22164 0
      vertex -65.1871 5.85257 15
      vertex -64.6791 6.22164 15
    endloop
  endfacet
  facet normal -0.587771 0.809027 0
    outer loop
      vertex -65.1871 5.85257 15
      vertex -64.6791 6.22164 0
      vertex -65.1871 5.85257 0
    endloop
  endfacet
  facet normal -0.481772 0.876297 0
    outer loop
      vertex -64.1289 6.52413 0
      vertex -64.6791 6.22164 15
      vertex -64.1289 6.52413 15
    endloop
  endfacet
  facet normal -0.481772 0.876297 0
    outer loop
      vertex -64.6791 6.22164 15
      vertex -64.1289 6.52413 0
      vertex -64.6791 6.22164 0
    endloop
  endfacet
endsolid OpenSCAD_Model
