  0
SECTION
  2
BLOCKS
  0
ENDSEC
  0
SECTION
  2
ENTITIES
  0
LINE
  8
0
 10
40.4369
 20
464.089
 11
41.0451
 21
464.245
  0
LINE
  8
0
 10
41.0451
 20
464.245
 11
41.6289
 21
464.476
  0
LINE
  8
0
 10
41.6289
 20
464.476
 11
42.1791
 21
464.778
  0
LINE
  8
0
 10
42.1791
 20
464.778
 11
42.6871
 21
465.147
  0
LINE
  8
0
 10
42.6871
 20
465.147
 11
43.1448
 21
465.577
  0
LINE
  8
0
 10
43.1448
 20
465.577
 11
43.5451
 21
466.061
  0
LINE
  8
0
 10
43.5451
 20
466.061
 11
43.8815
 21
466.591
  0
LINE
  8
0
 10
43.8815
 20
466.591
 11
44.1489
 21
467.159
  0
LINE
  8
0
 10
44.1489
 20
467.159
 11
44.3429
 21
467.757
  0
LINE
  8
0
 10
44.3429
 20
467.757
 11
44.4606
 21
468.373
  0
LINE
  8
0
 10
44.4606
 20
468.373
 11
44.5
 21
469
  0
LINE
  8
0
 10
44.5
 20
469
 11
44.5
 21
503
  0
LINE
  8
0
 10
44.5
 20
503
 11
44.4606
 21
503.627
  0
LINE
  8
0
 10
44.4606
 20
503.627
 11
44.3429
 21
504.243
  0
LINE
  8
0
 10
44.3429
 20
504.243
 11
44.1489
 21
504.841
  0
LINE
  8
0
 10
44.1489
 20
504.841
 11
43.8815
 21
505.409
  0
LINE
  8
0
 10
43.8815
 20
505.409
 11
43.5451
 21
505.939
  0
LINE
  8
0
 10
43.5451
 20
505.939
 11
43.1448
 21
506.423
  0
LINE
  8
0
 10
43.1448
 20
506.423
 11
42.6871
 21
506.853
  0
LINE
  8
0
 10
42.6871
 20
506.853
 11
42.1791
 21
507.222
  0
LINE
  8
0
 10
42.1791
 20
507.222
 11
41.6289
 21
507.524
  0
LINE
  8
0
 10
41.6289
 20
507.524
 11
41.0451
 21
507.755
  0
LINE
  8
0
 10
41.0451
 20
507.755
 11
40.4369
 21
507.911
  0
LINE
  8
0
 10
40.4369
 20
507.911
 11
39.8139
 21
507.99
  0
LINE
  8
0
 10
39.8139
 20
507.99
 11
-39.8139
 21
507.99
  0
LINE
  8
0
 10
-39.8139
 20
507.99
 11
-40.4369
 21
507.911
  0
LINE
  8
0
 10
-40.4369
 20
507.911
 11
-41.0451
 21
507.755
  0
LINE
  8
0
 10
-41.0451
 20
507.755
 11
-41.6289
 21
507.524
  0
LINE
  8
0
 10
-41.6289
 20
507.524
 11
-42.1791
 21
507.222
  0
LINE
  8
0
 10
-42.1791
 20
507.222
 11
-42.6871
 21
506.853
  0
LINE
  8
0
 10
-42.6871
 20
506.853
 11
-43.1448
 21
506.423
  0
LINE
  8
0
 10
-43.1448
 20
506.423
 11
-43.5451
 21
505.939
  0
LINE
  8
0
 10
-43.5451
 20
505.939
 11
-43.8815
 21
505.409
  0
LINE
  8
0
 10
-43.8815
 20
505.409
 11
-44.1489
 21
504.841
  0
LINE
  8
0
 10
-44.1489
 20
504.841
 11
-44.3429
 21
504.243
  0
LINE
  8
0
 10
-44.3429
 20
504.243
 11
-44.4606
 21
503.627
  0
LINE
  8
0
 10
-44.4606
 20
503.627
 11
-44.5
 21
503
  0
LINE
  8
0
 10
-44.5
 20
503
 11
-44.5
 21
469
  0
LINE
  8
0
 10
-44.5
 20
469
 11
-44.4606
 21
468.373
  0
LINE
  8
0
 10
-44.4606
 20
468.373
 11
-44.3429
 21
467.757
  0
LINE
  8
0
 10
-44.3429
 20
467.757
 11
-44.1489
 21
467.159
  0
LINE
  8
0
 10
-44.1489
 20
467.159
 11
-43.8815
 21
466.591
  0
LINE
  8
0
 10
-43.8815
 20
466.591
 11
-43.5451
 21
466.061
  0
LINE
  8
0
 10
-43.5451
 20
466.061
 11
-43.1448
 21
465.577
  0
LINE
  8
0
 10
-43.1448
 20
465.577
 11
-42.6871
 21
465.147
  0
LINE
  8
0
 10
-42.6871
 20
465.147
 11
-42.1791
 21
464.778
  0
LINE
  8
0
 10
-42.1791
 20
464.778
 11
-41.6289
 21
464.476
  0
LINE
  8
0
 10
-41.6289
 20
464.476
 11
-41.0451
 21
464.245
  0
LINE
  8
0
 10
-41.0451
 20
464.245
 11
-40.4369
 21
464.089
  0
LINE
  8
0
 10
-40.4369
 20
464.089
 11
-39.8139
 21
464.01
  0
LINE
  8
0
 10
-39.8139
 20
464.01
 11
39.8139
 21
464.01
  0
LINE
  8
0
 10
39.8139
 20
464.01
 11
40.4369
 21
464.089
  0
LINE
  8
0
 10
37.3116
 20
498.006
 11
36.9379
 21
498.053
  0
LINE
  8
0
 10
36.9379
 20
498.053
 11
36.5729
 21
498.147
  0
LINE
  8
0
 10
36.5729
 20
498.147
 11
36.2227
 21
498.286
  0
LINE
  8
0
 10
36.2227
 20
498.286
 11
35.8925
 21
498.467
  0
LINE
  8
0
 10
35.8925
 20
498.467
 11
35.5877
 21
498.688
  0
LINE
  8
0
 10
35.5877
 20
498.688
 11
35.3131
 21
498.946
  0
LINE
  8
0
 10
35.3131
 20
498.946
 11
35.0729
 21
499.237
  0
LINE
  8
0
 10
35.0729
 20
499.237
 11
34.8711
 21
499.555
  0
LINE
  8
0
 10
34.8711
 20
499.555
 11
34.7107
 21
499.896
  0
LINE
  8
0
 10
34.7107
 20
499.896
 11
34.5942
 21
500.254
  0
LINE
  8
0
 10
34.5942
 20
500.254
 11
34.5237
 21
500.624
  0
LINE
  8
0
 10
34.5237
 20
500.624
 11
34.5
 21
501
  0
LINE
  8
0
 10
34.5
 20
501
 11
34.5237
 21
501.376
  0
LINE
  8
0
 10
34.5237
 20
501.376
 11
34.5942
 21
501.746
  0
LINE
  8
0
 10
34.5942
 20
501.746
 11
34.7107
 21
502.104
  0
LINE
  8
0
 10
34.7107
 20
502.104
 11
34.8711
 21
502.445
  0
LINE
  8
0
 10
34.8711
 20
502.445
 11
35.0729
 21
502.763
  0
LINE
  8
0
 10
35.0729
 20
502.763
 11
35.3131
 21
503.054
  0
LINE
  8
0
 10
35.3131
 20
503.054
 11
35.5877
 21
503.312
  0
LINE
  8
0
 10
35.5877
 20
503.312
 11
35.8925
 21
503.533
  0
LINE
  8
0
 10
35.8925
 20
503.533
 11
36.2227
 21
503.714
  0
LINE
  8
0
 10
36.2227
 20
503.714
 11
36.5729
 21
503.853
  0
LINE
  8
0
 10
36.5729
 20
503.853
 11
36.9379
 21
503.947
  0
LINE
  8
0
 10
36.9379
 20
503.947
 11
37.3116
 21
503.994
  0
LINE
  8
0
 10
37.3116
 20
503.994
 11
37.6884
 21
503.994
  0
LINE
  8
0
 10
37.6884
 20
503.994
 11
38.0621
 21
503.947
  0
LINE
  8
0
 10
38.0621
 20
503.947
 11
38.427
 21
503.853
  0
LINE
  8
0
 10
38.427
 20
503.853
 11
38.7773
 21
503.714
  0
LINE
  8
0
 10
38.7773
 20
503.714
 11
39.1075
 21
503.533
  0
LINE
  8
0
 10
39.1075
 20
503.533
 11
39.4123
 21
503.312
  0
LINE
  8
0
 10
39.4123
 20
503.312
 11
39.6869
 21
503.054
  0
LINE
  8
0
 10
39.6869
 20
503.054
 11
39.927
 21
502.763
  0
LINE
  8
0
 10
39.927
 20
502.763
 11
40.1289
 21
502.445
  0
LINE
  8
0
 10
40.1289
 20
502.445
 11
40.2893
 21
502.104
  0
LINE
  8
0
 10
40.2893
 20
502.104
 11
40.4057
 21
501.746
  0
LINE
  8
0
 10
40.4057
 20
501.746
 11
40.4763
 21
501.376
  0
LINE
  8
0
 10
40.4763
 20
501.376
 11
40.5
 21
501
  0
LINE
  8
0
 10
40.5
 20
501
 11
40.4763
 21
500.624
  0
LINE
  8
0
 10
40.4763
 20
500.624
 11
40.4057
 21
500.254
  0
LINE
  8
0
 10
40.4057
 20
500.254
 11
40.2893
 21
499.896
  0
LINE
  8
0
 10
40.2893
 20
499.896
 11
40.1289
 21
499.555
  0
LINE
  8
0
 10
40.1289
 20
499.555
 11
39.927
 21
499.237
  0
LINE
  8
0
 10
39.927
 20
499.237
 11
39.6869
 21
498.946
  0
LINE
  8
0
 10
39.6869
 20
498.946
 11
39.4123
 21
498.688
  0
LINE
  8
0
 10
39.4123
 20
498.688
 11
39.1075
 21
498.467
  0
LINE
  8
0
 10
39.1075
 20
498.467
 11
38.7773
 21
498.286
  0
LINE
  8
0
 10
38.7773
 20
498.286
 11
38.427
 21
498.147
  0
LINE
  8
0
 10
38.427
 20
498.147
 11
38.0621
 21
498.053
  0
LINE
  8
0
 10
38.0621
 20
498.053
 11
37.6884
 21
498.006
  0
LINE
  8
0
 10
37.6884
 20
498.006
 11
37.3116
 21
498.006
  0
LINE
  8
0
 10
-37.6884
 20
498.006
 11
-38.0621
 21
498.053
  0
LINE
  8
0
 10
-38.0621
 20
498.053
 11
-38.427
 21
498.147
  0
LINE
  8
0
 10
-38.427
 20
498.147
 11
-38.7773
 21
498.286
  0
LINE
  8
0
 10
-38.7773
 20
498.286
 11
-39.1075
 21
498.467
  0
LINE
  8
0
 10
-39.1075
 20
498.467
 11
-39.4123
 21
498.688
  0
LINE
  8
0
 10
-39.4123
 20
498.688
 11
-39.6869
 21
498.946
  0
LINE
  8
0
 10
-39.6869
 20
498.946
 11
-39.927
 21
499.237
  0
LINE
  8
0
 10
-39.927
 20
499.237
 11
-40.1289
 21
499.555
  0
LINE
  8
0
 10
-40.1289
 20
499.555
 11
-40.2893
 21
499.896
  0
LINE
  8
0
 10
-40.2893
 20
499.896
 11
-40.4057
 21
500.254
  0
LINE
  8
0
 10
-40.4057
 20
500.254
 11
-40.4763
 21
500.624
  0
LINE
  8
0
 10
-40.4763
 20
500.624
 11
-40.5
 21
501
  0
LINE
  8
0
 10
-40.5
 20
501
 11
-40.4763
 21
501.376
  0
LINE
  8
0
 10
-40.4763
 20
501.376
 11
-40.4057
 21
501.746
  0
LINE
  8
0
 10
-40.4057
 20
501.746
 11
-40.2893
 21
502.104
  0
LINE
  8
0
 10
-40.2893
 20
502.104
 11
-40.1289
 21
502.445
  0
LINE
  8
0
 10
-40.1289
 20
502.445
 11
-39.927
 21
502.763
  0
LINE
  8
0
 10
-39.927
 20
502.763
 11
-39.6869
 21
503.054
  0
LINE
  8
0
 10
-39.6869
 20
503.054
 11
-39.4123
 21
503.312
  0
LINE
  8
0
 10
-39.4123
 20
503.312
 11
-39.1075
 21
503.533
  0
LINE
  8
0
 10
-39.1075
 20
503.533
 11
-38.7773
 21
503.714
  0
LINE
  8
0
 10
-38.7773
 20
503.714
 11
-38.427
 21
503.853
  0
LINE
  8
0
 10
-38.427
 20
503.853
 11
-38.0621
 21
503.947
  0
LINE
  8
0
 10
-38.0621
 20
503.947
 11
-37.6884
 21
503.994
  0
LINE
  8
0
 10
-37.6884
 20
503.994
 11
-37.3116
 21
503.994
  0
LINE
  8
0
 10
-37.3116
 20
503.994
 11
-36.9379
 21
503.947
  0
LINE
  8
0
 10
-36.9379
 20
503.947
 11
-36.5729
 21
503.853
  0
LINE
  8
0
 10
-36.5729
 20
503.853
 11
-36.2227
 21
503.714
  0
LINE
  8
0
 10
-36.2227
 20
503.714
 11
-35.8925
 21
503.533
  0
LINE
  8
0
 10
-35.8925
 20
503.533
 11
-35.5877
 21
503.312
  0
LINE
  8
0
 10
-35.5877
 20
503.312
 11
-35.3131
 21
503.054
  0
LINE
  8
0
 10
-35.3131
 20
503.054
 11
-35.0729
 21
502.763
  0
LINE
  8
0
 10
-35.0729
 20
502.763
 11
-34.8711
 21
502.445
  0
LINE
  8
0
 10
-34.8711
 20
502.445
 11
-34.7107
 21
502.104
  0
LINE
  8
0
 10
-34.7107
 20
502.104
 11
-34.5942
 21
501.746
  0
LINE
  8
0
 10
-34.5942
 20
501.746
 11
-34.5237
 21
501.376
  0
LINE
  8
0
 10
-34.5237
 20
501.376
 11
-34.5
 21
501
  0
LINE
  8
0
 10
-34.5
 20
501
 11
-34.5237
 21
500.624
  0
LINE
  8
0
 10
-34.5237
 20
500.624
 11
-34.5942
 21
500.254
  0
LINE
  8
0
 10
-34.5942
 20
500.254
 11
-34.7107
 21
499.896
  0
LINE
  8
0
 10
-34.7107
 20
499.896
 11
-34.8711
 21
499.555
  0
LINE
  8
0
 10
-34.8711
 20
499.555
 11
-35.0729
 21
499.237
  0
LINE
  8
0
 10
-35.0729
 20
499.237
 11
-35.3131
 21
498.946
  0
LINE
  8
0
 10
-35.3131
 20
498.946
 11
-35.5877
 21
498.688
  0
LINE
  8
0
 10
-35.5877
 20
498.688
 11
-35.8925
 21
498.467
  0
LINE
  8
0
 10
-35.8925
 20
498.467
 11
-36.2227
 21
498.286
  0
LINE
  8
0
 10
-36.2227
 20
498.286
 11
-36.5729
 21
498.147
  0
LINE
  8
0
 10
-36.5729
 20
498.147
 11
-36.9379
 21
498.053
  0
LINE
  8
0
 10
-36.9379
 20
498.053
 11
-37.3116
 21
498.006
  0
LINE
  8
0
 10
-37.3116
 20
498.006
 11
-37.6884
 21
498.006
  0
LINE
  8
0
 10
37.3116
 20
468.006
 11
36.9379
 21
468.053
  0
LINE
  8
0
 10
36.9379
 20
468.053
 11
36.5729
 21
468.147
  0
LINE
  8
0
 10
36.5729
 20
468.147
 11
36.2227
 21
468.286
  0
LINE
  8
0
 10
36.2227
 20
468.286
 11
35.8925
 21
468.467
  0
LINE
  8
0
 10
35.8925
 20
468.467
 11
35.5877
 21
468.688
  0
LINE
  8
0
 10
35.5877
 20
468.688
 11
35.3131
 21
468.946
  0
LINE
  8
0
 10
35.3131
 20
468.946
 11
35.0729
 21
469.237
  0
LINE
  8
0
 10
35.0729
 20
469.237
 11
34.8711
 21
469.555
  0
LINE
  8
0
 10
34.8711
 20
469.555
 11
34.7107
 21
469.896
  0
LINE
  8
0
 10
34.7107
 20
469.896
 11
34.5942
 21
470.254
  0
LINE
  8
0
 10
34.5942
 20
470.254
 11
34.5237
 21
470.624
  0
LINE
  8
0
 10
34.5237
 20
470.624
 11
34.5
 21
471
  0
LINE
  8
0
 10
34.5
 20
471
 11
34.5237
 21
471.376
  0
LINE
  8
0
 10
34.5237
 20
471.376
 11
34.5942
 21
471.746
  0
LINE
  8
0
 10
34.5942
 20
471.746
 11
34.7107
 21
472.104
  0
LINE
  8
0
 10
34.7107
 20
472.104
 11
34.8711
 21
472.445
  0
LINE
  8
0
 10
34.8711
 20
472.445
 11
35.0729
 21
472.763
  0
LINE
  8
0
 10
35.0729
 20
472.763
 11
35.3131
 21
473.054
  0
LINE
  8
0
 10
35.3131
 20
473.054
 11
35.5877
 21
473.312
  0
LINE
  8
0
 10
35.5877
 20
473.312
 11
35.8925
 21
473.533
  0
LINE
  8
0
 10
35.8925
 20
473.533
 11
36.2227
 21
473.714
  0
LINE
  8
0
 10
36.2227
 20
473.714
 11
36.5729
 21
473.853
  0
LINE
  8
0
 10
36.5729
 20
473.853
 11
36.9379
 21
473.947
  0
LINE
  8
0
 10
36.9379
 20
473.947
 11
37.3116
 21
473.994
  0
LINE
  8
0
 10
37.3116
 20
473.994
 11
37.6884
 21
473.994
  0
LINE
  8
0
 10
37.6884
 20
473.994
 11
38.0621
 21
473.947
  0
LINE
  8
0
 10
38.0621
 20
473.947
 11
38.427
 21
473.853
  0
LINE
  8
0
 10
38.427
 20
473.853
 11
38.7773
 21
473.714
  0
LINE
  8
0
 10
38.7773
 20
473.714
 11
39.1075
 21
473.533
  0
LINE
  8
0
 10
39.1075
 20
473.533
 11
39.4123
 21
473.312
  0
LINE
  8
0
 10
39.4123
 20
473.312
 11
39.6869
 21
473.054
  0
LINE
  8
0
 10
39.6869
 20
473.054
 11
39.927
 21
472.763
  0
LINE
  8
0
 10
39.927
 20
472.763
 11
40.1289
 21
472.445
  0
LINE
  8
0
 10
40.1289
 20
472.445
 11
40.2893
 21
472.104
  0
LINE
  8
0
 10
40.2893
 20
472.104
 11
40.4057
 21
471.746
  0
LINE
  8
0
 10
40.4057
 20
471.746
 11
40.4763
 21
471.376
  0
LINE
  8
0
 10
40.4763
 20
471.376
 11
40.5
 21
471
  0
LINE
  8
0
 10
40.5
 20
471
 11
40.4763
 21
470.624
  0
LINE
  8
0
 10
40.4763
 20
470.624
 11
40.4057
 21
470.254
  0
LINE
  8
0
 10
40.4057
 20
470.254
 11
40.2893
 21
469.896
  0
LINE
  8
0
 10
40.2893
 20
469.896
 11
40.1289
 21
469.555
  0
LINE
  8
0
 10
40.1289
 20
469.555
 11
39.927
 21
469.237
  0
LINE
  8
0
 10
39.927
 20
469.237
 11
39.6869
 21
468.946
  0
LINE
  8
0
 10
39.6869
 20
468.946
 11
39.4123
 21
468.688
  0
LINE
  8
0
 10
39.4123
 20
468.688
 11
39.1075
 21
468.467
  0
LINE
  8
0
 10
39.1075
 20
468.467
 11
38.7773
 21
468.286
  0
LINE
  8
0
 10
38.7773
 20
468.286
 11
38.427
 21
468.147
  0
LINE
  8
0
 10
38.427
 20
468.147
 11
38.0621
 21
468.053
  0
LINE
  8
0
 10
38.0621
 20
468.053
 11
37.6884
 21
468.006
  0
LINE
  8
0
 10
37.6884
 20
468.006
 11
37.3116
 21
468.006
  0
LINE
  8
0
 10
-37.6884
 20
468.006
 11
-38.0621
 21
468.053
  0
LINE
  8
0
 10
-38.0621
 20
468.053
 11
-38.427
 21
468.147
  0
LINE
  8
0
 10
-38.427
 20
468.147
 11
-38.7773
 21
468.286
  0
LINE
  8
0
 10
-38.7773
 20
468.286
 11
-39.1075
 21
468.467
  0
LINE
  8
0
 10
-39.1075
 20
468.467
 11
-39.4123
 21
468.688
  0
LINE
  8
0
 10
-39.4123
 20
468.688
 11
-39.6869
 21
468.946
  0
LINE
  8
0
 10
-39.6869
 20
468.946
 11
-39.927
 21
469.237
  0
LINE
  8
0
 10
-39.927
 20
469.237
 11
-40.1289
 21
469.555
  0
LINE
  8
0
 10
-40.1289
 20
469.555
 11
-40.2893
 21
469.896
  0
LINE
  8
0
 10
-40.2893
 20
469.896
 11
-40.4057
 21
470.254
  0
LINE
  8
0
 10
-40.4057
 20
470.254
 11
-40.4763
 21
470.624
  0
LINE
  8
0
 10
-40.4763
 20
470.624
 11
-40.5
 21
471
  0
LINE
  8
0
 10
-40.5
 20
471
 11
-40.4763
 21
471.376
  0
LINE
  8
0
 10
-40.4763
 20
471.376
 11
-40.4057
 21
471.746
  0
LINE
  8
0
 10
-40.4057
 20
471.746
 11
-40.2893
 21
472.104
  0
LINE
  8
0
 10
-40.2893
 20
472.104
 11
-40.1289
 21
472.445
  0
LINE
  8
0
 10
-40.1289
 20
472.445
 11
-39.927
 21
472.763
  0
LINE
  8
0
 10
-39.927
 20
472.763
 11
-39.6869
 21
473.054
  0
LINE
  8
0
 10
-39.6869
 20
473.054
 11
-39.4123
 21
473.312
  0
LINE
  8
0
 10
-39.4123
 20
473.312
 11
-39.1075
 21
473.533
  0
LINE
  8
0
 10
-39.1075
 20
473.533
 11
-38.7773
 21
473.714
  0
LINE
  8
0
 10
-38.7773
 20
473.714
 11
-38.427
 21
473.853
  0
LINE
  8
0
 10
-38.427
 20
473.853
 11
-38.0621
 21
473.947
  0
LINE
  8
0
 10
-38.0621
 20
473.947
 11
-37.6884
 21
473.994
  0
LINE
  8
0
 10
-37.6884
 20
473.994
 11
-37.3116
 21
473.994
  0
LINE
  8
0
 10
-37.3116
 20
473.994
 11
-36.9379
 21
473.947
  0
LINE
  8
0
 10
-36.9379
 20
473.947
 11
-36.5729
 21
473.853
  0
LINE
  8
0
 10
-36.5729
 20
473.853
 11
-36.2227
 21
473.714
  0
LINE
  8
0
 10
-36.2227
 20
473.714
 11
-35.8925
 21
473.533
  0
LINE
  8
0
 10
-35.8925
 20
473.533
 11
-35.5877
 21
473.312
  0
LINE
  8
0
 10
-35.5877
 20
473.312
 11
-35.3131
 21
473.054
  0
LINE
  8
0
 10
-35.3131
 20
473.054
 11
-35.0729
 21
472.763
  0
LINE
  8
0
 10
-35.0729
 20
472.763
 11
-34.8711
 21
472.445
  0
LINE
  8
0
 10
-34.8711
 20
472.445
 11
-34.7107
 21
472.104
  0
LINE
  8
0
 10
-34.7107
 20
472.104
 11
-34.5942
 21
471.746
  0
LINE
  8
0
 10
-34.5942
 20
471.746
 11
-34.5237
 21
471.376
  0
LINE
  8
0
 10
-34.5237
 20
471.376
 11
-34.5
 21
471
  0
LINE
  8
0
 10
-34.5
 20
471
 11
-34.5237
 21
470.624
  0
LINE
  8
0
 10
-34.5237
 20
470.624
 11
-34.5942
 21
470.254
  0
LINE
  8
0
 10
-34.5942
 20
470.254
 11
-34.7107
 21
469.896
  0
LINE
  8
0
 10
-34.7107
 20
469.896
 11
-34.8711
 21
469.555
  0
LINE
  8
0
 10
-34.8711
 20
469.555
 11
-35.0729
 21
469.237
  0
LINE
  8
0
 10
-35.0729
 20
469.237
 11
-35.3131
 21
468.946
  0
LINE
  8
0
 10
-35.3131
 20
468.946
 11
-35.5877
 21
468.688
  0
LINE
  8
0
 10
-35.5877
 20
468.688
 11
-35.8925
 21
468.467
  0
LINE
  8
0
 10
-35.8925
 20
468.467
 11
-36.2227
 21
468.286
  0
LINE
  8
0
 10
-36.2227
 20
468.286
 11
-36.5729
 21
468.147
  0
LINE
  8
0
 10
-36.5729
 20
468.147
 11
-36.9379
 21
468.053
  0
LINE
  8
0
 10
-36.9379
 20
468.053
 11
-37.3116
 21
468.006
  0
LINE
  8
0
 10
-37.3116
 20
468.006
 11
-37.6884
 21
468.006
  0
LINE
  8
0
 10
40.4369
 20
410.089
 11
41.0451
 21
410.245
  0
LINE
  8
0
 10
41.0451
 20
410.245
 11
41.6289
 21
410.476
  0
LINE
  8
0
 10
41.6289
 20
410.476
 11
42.1791
 21
410.778
  0
LINE
  8
0
 10
42.1791
 20
410.778
 11
42.6871
 21
411.147
  0
LINE
  8
0
 10
42.6871
 20
411.147
 11
43.1448
 21
411.577
  0
LINE
  8
0
 10
43.1448
 20
411.577
 11
43.5451
 21
412.061
  0
LINE
  8
0
 10
43.5451
 20
412.061
 11
43.8815
 21
412.591
  0
LINE
  8
0
 10
43.8815
 20
412.591
 11
44.1489
 21
413.159
  0
LINE
  8
0
 10
44.1489
 20
413.159
 11
44.3429
 21
413.757
  0
LINE
  8
0
 10
44.3429
 20
413.757
 11
44.4606
 21
414.373
  0
LINE
  8
0
 10
44.4606
 20
414.373
 11
44.5
 21
415
  0
LINE
  8
0
 10
44.5
 20
415
 11
44.5
 21
449
  0
LINE
  8
0
 10
44.5
 20
449
 11
44.4606
 21
449.627
  0
LINE
  8
0
 10
44.4606
 20
449.627
 11
44.3429
 21
450.243
  0
LINE
  8
0
 10
44.3429
 20
450.243
 11
44.1489
 21
450.841
  0
LINE
  8
0
 10
44.1489
 20
450.841
 11
43.8815
 21
451.409
  0
LINE
  8
0
 10
43.8815
 20
451.409
 11
43.5451
 21
451.939
  0
LINE
  8
0
 10
43.5451
 20
451.939
 11
43.1448
 21
452.423
  0
LINE
  8
0
 10
43.1448
 20
452.423
 11
42.6871
 21
452.853
  0
LINE
  8
0
 10
42.6871
 20
452.853
 11
42.1791
 21
453.222
  0
LINE
  8
0
 10
42.1791
 20
453.222
 11
41.6289
 21
453.524
  0
LINE
  8
0
 10
41.6289
 20
453.524
 11
41.0451
 21
453.755
  0
LINE
  8
0
 10
41.0451
 20
453.755
 11
40.4369
 21
453.911
  0
LINE
  8
0
 10
40.4369
 20
453.911
 11
39.8139
 21
453.99
  0
LINE
  8
0
 10
39.8139
 20
453.99
 11
-39.8139
 21
453.99
  0
LINE
  8
0
 10
-39.8139
 20
453.99
 11
-40.4369
 21
453.911
  0
LINE
  8
0
 10
-40.4369
 20
453.911
 11
-41.0451
 21
453.755
  0
LINE
  8
0
 10
-41.0451
 20
453.755
 11
-41.6289
 21
453.524
  0
LINE
  8
0
 10
-41.6289
 20
453.524
 11
-42.1791
 21
453.222
  0
LINE
  8
0
 10
-42.1791
 20
453.222
 11
-42.6871
 21
452.853
  0
LINE
  8
0
 10
-42.6871
 20
452.853
 11
-43.1448
 21
452.423
  0
LINE
  8
0
 10
-43.1448
 20
452.423
 11
-43.5451
 21
451.939
  0
LINE
  8
0
 10
-43.5451
 20
451.939
 11
-43.8815
 21
451.409
  0
LINE
  8
0
 10
-43.8815
 20
451.409
 11
-44.1489
 21
450.841
  0
LINE
  8
0
 10
-44.1489
 20
450.841
 11
-44.3429
 21
450.243
  0
LINE
  8
0
 10
-44.3429
 20
450.243
 11
-44.4606
 21
449.627
  0
LINE
  8
0
 10
-44.4606
 20
449.627
 11
-44.5
 21
449
  0
LINE
  8
0
 10
-44.5
 20
449
 11
-44.5
 21
415
  0
LINE
  8
0
 10
-44.5
 20
415
 11
-44.4606
 21
414.373
  0
LINE
  8
0
 10
-44.4606
 20
414.373
 11
-44.3429
 21
413.757
  0
LINE
  8
0
 10
-44.3429
 20
413.757
 11
-44.1489
 21
413.159
  0
LINE
  8
0
 10
-44.1489
 20
413.159
 11
-43.8815
 21
412.591
  0
LINE
  8
0
 10
-43.8815
 20
412.591
 11
-43.5451
 21
412.061
  0
LINE
  8
0
 10
-43.5451
 20
412.061
 11
-43.1448
 21
411.577
  0
LINE
  8
0
 10
-43.1448
 20
411.577
 11
-42.6871
 21
411.147
  0
LINE
  8
0
 10
-42.6871
 20
411.147
 11
-42.1791
 21
410.778
  0
LINE
  8
0
 10
-42.1791
 20
410.778
 11
-41.6289
 21
410.476
  0
LINE
  8
0
 10
-41.6289
 20
410.476
 11
-41.0451
 21
410.245
  0
LINE
  8
0
 10
-41.0451
 20
410.245
 11
-40.4369
 21
410.089
  0
LINE
  8
0
 10
-40.4369
 20
410.089
 11
-39.8139
 21
410.01
  0
LINE
  8
0
 10
-39.8139
 20
410.01
 11
39.8139
 21
410.01
  0
LINE
  8
0
 10
39.8139
 20
410.01
 11
40.4369
 21
410.089
  0
LINE
  8
0
 10
37.3116
 20
444.006
 11
36.9379
 21
444.053
  0
LINE
  8
0
 10
36.9379
 20
444.053
 11
36.5729
 21
444.147
  0
LINE
  8
0
 10
36.5729
 20
444.147
 11
36.2227
 21
444.286
  0
LINE
  8
0
 10
36.2227
 20
444.286
 11
35.8925
 21
444.467
  0
LINE
  8
0
 10
35.8925
 20
444.467
 11
35.5877
 21
444.688
  0
LINE
  8
0
 10
35.5877
 20
444.688
 11
35.3131
 21
444.946
  0
LINE
  8
0
 10
35.3131
 20
444.946
 11
35.0729
 21
445.237
  0
LINE
  8
0
 10
35.0729
 20
445.237
 11
34.8711
 21
445.555
  0
LINE
  8
0
 10
34.8711
 20
445.555
 11
34.7107
 21
445.896
  0
LINE
  8
0
 10
34.7107
 20
445.896
 11
34.5942
 21
446.254
  0
LINE
  8
0
 10
34.5942
 20
446.254
 11
34.5237
 21
446.624
  0
LINE
  8
0
 10
34.5237
 20
446.624
 11
34.5
 21
447
  0
LINE
  8
0
 10
34.5
 20
447
 11
34.5237
 21
447.376
  0
LINE
  8
0
 10
34.5237
 20
447.376
 11
34.5942
 21
447.746
  0
LINE
  8
0
 10
34.5942
 20
447.746
 11
34.7107
 21
448.104
  0
LINE
  8
0
 10
34.7107
 20
448.104
 11
34.8711
 21
448.445
  0
LINE
  8
0
 10
34.8711
 20
448.445
 11
35.0729
 21
448.763
  0
LINE
  8
0
 10
35.0729
 20
448.763
 11
35.3131
 21
449.054
  0
LINE
  8
0
 10
35.3131
 20
449.054
 11
35.5877
 21
449.312
  0
LINE
  8
0
 10
35.5877
 20
449.312
 11
35.8925
 21
449.533
  0
LINE
  8
0
 10
35.8925
 20
449.533
 11
36.2227
 21
449.714
  0
LINE
  8
0
 10
36.2227
 20
449.714
 11
36.5729
 21
449.853
  0
LINE
  8
0
 10
36.5729
 20
449.853
 11
36.9379
 21
449.947
  0
LINE
  8
0
 10
36.9379
 20
449.947
 11
37.3116
 21
449.994
  0
LINE
  8
0
 10
37.3116
 20
449.994
 11
37.6884
 21
449.994
  0
LINE
  8
0
 10
37.6884
 20
449.994
 11
38.0621
 21
449.947
  0
LINE
  8
0
 10
38.0621
 20
449.947
 11
38.427
 21
449.853
  0
LINE
  8
0
 10
38.427
 20
449.853
 11
38.7773
 21
449.714
  0
LINE
  8
0
 10
38.7773
 20
449.714
 11
39.1075
 21
449.533
  0
LINE
  8
0
 10
39.1075
 20
449.533
 11
39.4123
 21
449.312
  0
LINE
  8
0
 10
39.4123
 20
449.312
 11
39.6869
 21
449.054
  0
LINE
  8
0
 10
39.6869
 20
449.054
 11
39.927
 21
448.763
  0
LINE
  8
0
 10
39.927
 20
448.763
 11
40.1289
 21
448.445
  0
LINE
  8
0
 10
40.1289
 20
448.445
 11
40.2893
 21
448.104
  0
LINE
  8
0
 10
40.2893
 20
448.104
 11
40.4057
 21
447.746
  0
LINE
  8
0
 10
40.4057
 20
447.746
 11
40.4763
 21
447.376
  0
LINE
  8
0
 10
40.4763
 20
447.376
 11
40.5
 21
447
  0
LINE
  8
0
 10
40.5
 20
447
 11
40.4763
 21
446.624
  0
LINE
  8
0
 10
40.4763
 20
446.624
 11
40.4057
 21
446.254
  0
LINE
  8
0
 10
40.4057
 20
446.254
 11
40.2893
 21
445.896
  0
LINE
  8
0
 10
40.2893
 20
445.896
 11
40.1289
 21
445.555
  0
LINE
  8
0
 10
40.1289
 20
445.555
 11
39.927
 21
445.237
  0
LINE
  8
0
 10
39.927
 20
445.237
 11
39.6869
 21
444.946
  0
LINE
  8
0
 10
39.6869
 20
444.946
 11
39.4123
 21
444.688
  0
LINE
  8
0
 10
39.4123
 20
444.688
 11
39.1075
 21
444.467
  0
LINE
  8
0
 10
39.1075
 20
444.467
 11
38.7773
 21
444.286
  0
LINE
  8
0
 10
38.7773
 20
444.286
 11
38.427
 21
444.147
  0
LINE
  8
0
 10
38.427
 20
444.147
 11
38.0621
 21
444.053
  0
LINE
  8
0
 10
38.0621
 20
444.053
 11
37.6884
 21
444.006
  0
LINE
  8
0
 10
37.6884
 20
444.006
 11
37.3116
 21
444.006
  0
LINE
  8
0
 10
-37.6884
 20
444.006
 11
-38.0621
 21
444.053
  0
LINE
  8
0
 10
-38.0621
 20
444.053
 11
-38.427
 21
444.147
  0
LINE
  8
0
 10
-38.427
 20
444.147
 11
-38.7773
 21
444.286
  0
LINE
  8
0
 10
-38.7773
 20
444.286
 11
-39.1075
 21
444.467
  0
LINE
  8
0
 10
-39.1075
 20
444.467
 11
-39.4123
 21
444.688
  0
LINE
  8
0
 10
-39.4123
 20
444.688
 11
-39.6869
 21
444.946
  0
LINE
  8
0
 10
-39.6869
 20
444.946
 11
-39.927
 21
445.237
  0
LINE
  8
0
 10
-39.927
 20
445.237
 11
-40.1289
 21
445.555
  0
LINE
  8
0
 10
-40.1289
 20
445.555
 11
-40.2893
 21
445.896
  0
LINE
  8
0
 10
-40.2893
 20
445.896
 11
-40.4057
 21
446.254
  0
LINE
  8
0
 10
-40.4057
 20
446.254
 11
-40.4763
 21
446.624
  0
LINE
  8
0
 10
-40.4763
 20
446.624
 11
-40.5
 21
447
  0
LINE
  8
0
 10
-40.5
 20
447
 11
-40.4763
 21
447.376
  0
LINE
  8
0
 10
-40.4763
 20
447.376
 11
-40.4057
 21
447.746
  0
LINE
  8
0
 10
-40.4057
 20
447.746
 11
-40.2893
 21
448.104
  0
LINE
  8
0
 10
-40.2893
 20
448.104
 11
-40.1289
 21
448.445
  0
LINE
  8
0
 10
-40.1289
 20
448.445
 11
-39.927
 21
448.763
  0
LINE
  8
0
 10
-39.927
 20
448.763
 11
-39.6869
 21
449.054
  0
LINE
  8
0
 10
-39.6869
 20
449.054
 11
-39.4123
 21
449.312
  0
LINE
  8
0
 10
-39.4123
 20
449.312
 11
-39.1075
 21
449.533
  0
LINE
  8
0
 10
-39.1075
 20
449.533
 11
-38.7773
 21
449.714
  0
LINE
  8
0
 10
-38.7773
 20
449.714
 11
-38.427
 21
449.853
  0
LINE
  8
0
 10
-38.427
 20
449.853
 11
-38.0621
 21
449.947
  0
LINE
  8
0
 10
-38.0621
 20
449.947
 11
-37.6884
 21
449.994
  0
LINE
  8
0
 10
-37.6884
 20
449.994
 11
-37.3116
 21
449.994
  0
LINE
  8
0
 10
-37.3116
 20
449.994
 11
-36.9379
 21
449.947
  0
LINE
  8
0
 10
-36.9379
 20
449.947
 11
-36.5729
 21
449.853
  0
LINE
  8
0
 10
-36.5729
 20
449.853
 11
-36.2227
 21
449.714
  0
LINE
  8
0
 10
-36.2227
 20
449.714
 11
-35.8925
 21
449.533
  0
LINE
  8
0
 10
-35.8925
 20
449.533
 11
-35.5877
 21
449.312
  0
LINE
  8
0
 10
-35.5877
 20
449.312
 11
-35.3131
 21
449.054
  0
LINE
  8
0
 10
-35.3131
 20
449.054
 11
-35.0729
 21
448.763
  0
LINE
  8
0
 10
-35.0729
 20
448.763
 11
-34.8711
 21
448.445
  0
LINE
  8
0
 10
-34.8711
 20
448.445
 11
-34.7107
 21
448.104
  0
LINE
  8
0
 10
-34.7107
 20
448.104
 11
-34.5942
 21
447.746
  0
LINE
  8
0
 10
-34.5942
 20
447.746
 11
-34.5237
 21
447.376
  0
LINE
  8
0
 10
-34.5237
 20
447.376
 11
-34.5
 21
447
  0
LINE
  8
0
 10
-34.5
 20
447
 11
-34.5237
 21
446.624
  0
LINE
  8
0
 10
-34.5237
 20
446.624
 11
-34.5942
 21
446.254
  0
LINE
  8
0
 10
-34.5942
 20
446.254
 11
-34.7107
 21
445.896
  0
LINE
  8
0
 10
-34.7107
 20
445.896
 11
-34.8711
 21
445.555
  0
LINE
  8
0
 10
-34.8711
 20
445.555
 11
-35.0729
 21
445.237
  0
LINE
  8
0
 10
-35.0729
 20
445.237
 11
-35.3131
 21
444.946
  0
LINE
  8
0
 10
-35.3131
 20
444.946
 11
-35.5877
 21
444.688
  0
LINE
  8
0
 10
-35.5877
 20
444.688
 11
-35.8925
 21
444.467
  0
LINE
  8
0
 10
-35.8925
 20
444.467
 11
-36.2227
 21
444.286
  0
LINE
  8
0
 10
-36.2227
 20
444.286
 11
-36.5729
 21
444.147
  0
LINE
  8
0
 10
-36.5729
 20
444.147
 11
-36.9379
 21
444.053
  0
LINE
  8
0
 10
-36.9379
 20
444.053
 11
-37.3116
 21
444.006
  0
LINE
  8
0
 10
-37.3116
 20
444.006
 11
-37.6884
 21
444.006
  0
LINE
  8
0
 10
37.3116
 20
414.006
 11
36.9379
 21
414.053
  0
LINE
  8
0
 10
36.9379
 20
414.053
 11
36.5729
 21
414.147
  0
LINE
  8
0
 10
36.5729
 20
414.147
 11
36.2227
 21
414.286
  0
LINE
  8
0
 10
36.2227
 20
414.286
 11
35.8925
 21
414.467
  0
LINE
  8
0
 10
35.8925
 20
414.467
 11
35.5877
 21
414.688
  0
LINE
  8
0
 10
35.5877
 20
414.688
 11
35.3131
 21
414.946
  0
LINE
  8
0
 10
35.3131
 20
414.946
 11
35.0729
 21
415.237
  0
LINE
  8
0
 10
35.0729
 20
415.237
 11
34.8711
 21
415.555
  0
LINE
  8
0
 10
34.8711
 20
415.555
 11
34.7107
 21
415.896
  0
LINE
  8
0
 10
34.7107
 20
415.896
 11
34.5942
 21
416.254
  0
LINE
  8
0
 10
34.5942
 20
416.254
 11
34.5237
 21
416.624
  0
LINE
  8
0
 10
34.5237
 20
416.624
 11
34.5
 21
417
  0
LINE
  8
0
 10
34.5
 20
417
 11
34.5237
 21
417.376
  0
LINE
  8
0
 10
34.5237
 20
417.376
 11
34.5942
 21
417.746
  0
LINE
  8
0
 10
34.5942
 20
417.746
 11
34.7107
 21
418.104
  0
LINE
  8
0
 10
34.7107
 20
418.104
 11
34.8711
 21
418.445
  0
LINE
  8
0
 10
34.8711
 20
418.445
 11
35.0729
 21
418.763
  0
LINE
  8
0
 10
35.0729
 20
418.763
 11
35.3131
 21
419.054
  0
LINE
  8
0
 10
35.3131
 20
419.054
 11
35.5877
 21
419.312
  0
LINE
  8
0
 10
35.5877
 20
419.312
 11
35.8925
 21
419.533
  0
LINE
  8
0
 10
35.8925
 20
419.533
 11
36.2227
 21
419.714
  0
LINE
  8
0
 10
36.2227
 20
419.714
 11
36.5729
 21
419.853
  0
LINE
  8
0
 10
36.5729
 20
419.853
 11
36.9379
 21
419.947
  0
LINE
  8
0
 10
36.9379
 20
419.947
 11
37.3116
 21
419.994
  0
LINE
  8
0
 10
37.3116
 20
419.994
 11
37.6884
 21
419.994
  0
LINE
  8
0
 10
37.6884
 20
419.994
 11
38.0621
 21
419.947
  0
LINE
  8
0
 10
38.0621
 20
419.947
 11
38.427
 21
419.853
  0
LINE
  8
0
 10
38.427
 20
419.853
 11
38.7773
 21
419.714
  0
LINE
  8
0
 10
38.7773
 20
419.714
 11
39.1075
 21
419.533
  0
LINE
  8
0
 10
39.1075
 20
419.533
 11
39.4123
 21
419.312
  0
LINE
  8
0
 10
39.4123
 20
419.312
 11
39.6869
 21
419.054
  0
LINE
  8
0
 10
39.6869
 20
419.054
 11
39.927
 21
418.763
  0
LINE
  8
0
 10
39.927
 20
418.763
 11
40.1289
 21
418.445
  0
LINE
  8
0
 10
40.1289
 20
418.445
 11
40.2893
 21
418.104
  0
LINE
  8
0
 10
40.2893
 20
418.104
 11
40.4057
 21
417.746
  0
LINE
  8
0
 10
40.4057
 20
417.746
 11
40.4763
 21
417.376
  0
LINE
  8
0
 10
40.4763
 20
417.376
 11
40.5
 21
417
  0
LINE
  8
0
 10
40.5
 20
417
 11
40.4763
 21
416.624
  0
LINE
  8
0
 10
40.4763
 20
416.624
 11
40.4057
 21
416.254
  0
LINE
  8
0
 10
40.4057
 20
416.254
 11
40.2893
 21
415.896
  0
LINE
  8
0
 10
40.2893
 20
415.896
 11
40.1289
 21
415.555
  0
LINE
  8
0
 10
40.1289
 20
415.555
 11
39.927
 21
415.237
  0
LINE
  8
0
 10
39.927
 20
415.237
 11
39.6869
 21
414.946
  0
LINE
  8
0
 10
39.6869
 20
414.946
 11
39.4123
 21
414.688
  0
LINE
  8
0
 10
39.4123
 20
414.688
 11
39.1075
 21
414.467
  0
LINE
  8
0
 10
39.1075
 20
414.467
 11
38.7773
 21
414.286
  0
LINE
  8
0
 10
38.7773
 20
414.286
 11
38.427
 21
414.147
  0
LINE
  8
0
 10
38.427
 20
414.147
 11
38.0621
 21
414.053
  0
LINE
  8
0
 10
38.0621
 20
414.053
 11
37.6884
 21
414.006
  0
LINE
  8
0
 10
37.6884
 20
414.006
 11
37.3116
 21
414.006
  0
LINE
  8
0
 10
-37.6884
 20
414.006
 11
-38.0621
 21
414.053
  0
LINE
  8
0
 10
-38.0621
 20
414.053
 11
-38.427
 21
414.147
  0
LINE
  8
0
 10
-38.427
 20
414.147
 11
-38.7773
 21
414.286
  0
LINE
  8
0
 10
-38.7773
 20
414.286
 11
-39.1075
 21
414.467
  0
LINE
  8
0
 10
-39.1075
 20
414.467
 11
-39.4123
 21
414.688
  0
LINE
  8
0
 10
-39.4123
 20
414.688
 11
-39.6869
 21
414.946
  0
LINE
  8
0
 10
-39.6869
 20
414.946
 11
-39.927
 21
415.237
  0
LINE
  8
0
 10
-39.927
 20
415.237
 11
-40.1289
 21
415.555
  0
LINE
  8
0
 10
-40.1289
 20
415.555
 11
-40.2893
 21
415.896
  0
LINE
  8
0
 10
-40.2893
 20
415.896
 11
-40.4057
 21
416.254
  0
LINE
  8
0
 10
-40.4057
 20
416.254
 11
-40.4763
 21
416.624
  0
LINE
  8
0
 10
-40.4763
 20
416.624
 11
-40.5
 21
417
  0
LINE
  8
0
 10
-40.5
 20
417
 11
-40.4763
 21
417.376
  0
LINE
  8
0
 10
-40.4763
 20
417.376
 11
-40.4057
 21
417.746
  0
LINE
  8
0
 10
-40.4057
 20
417.746
 11
-40.2893
 21
418.104
  0
LINE
  8
0
 10
-40.2893
 20
418.104
 11
-40.1289
 21
418.445
  0
LINE
  8
0
 10
-40.1289
 20
418.445
 11
-39.927
 21
418.763
  0
LINE
  8
0
 10
-39.927
 20
418.763
 11
-39.6869
 21
419.054
  0
LINE
  8
0
 10
-39.6869
 20
419.054
 11
-39.4123
 21
419.312
  0
LINE
  8
0
 10
-39.4123
 20
419.312
 11
-39.1075
 21
419.533
  0
LINE
  8
0
 10
-39.1075
 20
419.533
 11
-38.7773
 21
419.714
  0
LINE
  8
0
 10
-38.7773
 20
419.714
 11
-38.427
 21
419.853
  0
LINE
  8
0
 10
-38.427
 20
419.853
 11
-38.0621
 21
419.947
  0
LINE
  8
0
 10
-38.0621
 20
419.947
 11
-37.6884
 21
419.994
  0
LINE
  8
0
 10
-37.6884
 20
419.994
 11
-37.3116
 21
419.994
  0
LINE
  8
0
 10
-37.3116
 20
419.994
 11
-36.9379
 21
419.947
  0
LINE
  8
0
 10
-36.9379
 20
419.947
 11
-36.5729
 21
419.853
  0
LINE
  8
0
 10
-36.5729
 20
419.853
 11
-36.2227
 21
419.714
  0
LINE
  8
0
 10
-36.2227
 20
419.714
 11
-35.8925
 21
419.533
  0
LINE
  8
0
 10
-35.8925
 20
419.533
 11
-35.5877
 21
419.312
  0
LINE
  8
0
 10
-35.5877
 20
419.312
 11
-35.3131
 21
419.054
  0
LINE
  8
0
 10
-35.3131
 20
419.054
 11
-35.0729
 21
418.763
  0
LINE
  8
0
 10
-35.0729
 20
418.763
 11
-34.8711
 21
418.445
  0
LINE
  8
0
 10
-34.8711
 20
418.445
 11
-34.7107
 21
418.104
  0
LINE
  8
0
 10
-34.7107
 20
418.104
 11
-34.5942
 21
417.746
  0
LINE
  8
0
 10
-34.5942
 20
417.746
 11
-34.5237
 21
417.376
  0
LINE
  8
0
 10
-34.5237
 20
417.376
 11
-34.5
 21
417
  0
LINE
  8
0
 10
-34.5
 20
417
 11
-34.5237
 21
416.624
  0
LINE
  8
0
 10
-34.5237
 20
416.624
 11
-34.5942
 21
416.254
  0
LINE
  8
0
 10
-34.5942
 20
416.254
 11
-34.7107
 21
415.896
  0
LINE
  8
0
 10
-34.7107
 20
415.896
 11
-34.8711
 21
415.555
  0
LINE
  8
0
 10
-34.8711
 20
415.555
 11
-35.0729
 21
415.237
  0
LINE
  8
0
 10
-35.0729
 20
415.237
 11
-35.3131
 21
414.946
  0
LINE
  8
0
 10
-35.3131
 20
414.946
 11
-35.5877
 21
414.688
  0
LINE
  8
0
 10
-35.5877
 20
414.688
 11
-35.8925
 21
414.467
  0
LINE
  8
0
 10
-35.8925
 20
414.467
 11
-36.2227
 21
414.286
  0
LINE
  8
0
 10
-36.2227
 20
414.286
 11
-36.5729
 21
414.147
  0
LINE
  8
0
 10
-36.5729
 20
414.147
 11
-36.9379
 21
414.053
  0
LINE
  8
0
 10
-36.9379
 20
414.053
 11
-37.3116
 21
414.006
  0
LINE
  8
0
 10
-37.3116
 20
414.006
 11
-37.6884
 21
414.006
  0
LINE
  8
0
 10
40.4369
 20
356.089
 11
41.0451
 21
356.245
  0
LINE
  8
0
 10
41.0451
 20
356.245
 11
41.6289
 21
356.476
  0
LINE
  8
0
 10
41.6289
 20
356.476
 11
42.1791
 21
356.778
  0
LINE
  8
0
 10
42.1791
 20
356.778
 11
42.6871
 21
357.147
  0
LINE
  8
0
 10
42.6871
 20
357.147
 11
43.1448
 21
357.577
  0
LINE
  8
0
 10
43.1448
 20
357.577
 11
43.5451
 21
358.061
  0
LINE
  8
0
 10
43.5451
 20
358.061
 11
43.8815
 21
358.591
  0
LINE
  8
0
 10
43.8815
 20
358.591
 11
44.1489
 21
359.159
  0
LINE
  8
0
 10
44.1489
 20
359.159
 11
44.3429
 21
359.757
  0
LINE
  8
0
 10
44.3429
 20
359.757
 11
44.4606
 21
360.373
  0
LINE
  8
0
 10
44.4606
 20
360.373
 11
44.5
 21
361
  0
LINE
  8
0
 10
44.5
 20
361
 11
44.5
 21
395
  0
LINE
  8
0
 10
44.5
 20
395
 11
44.4606
 21
395.627
  0
LINE
  8
0
 10
44.4606
 20
395.627
 11
44.3429
 21
396.243
  0
LINE
  8
0
 10
44.3429
 20
396.243
 11
44.1489
 21
396.841
  0
LINE
  8
0
 10
44.1489
 20
396.841
 11
43.8815
 21
397.409
  0
LINE
  8
0
 10
43.8815
 20
397.409
 11
43.5451
 21
397.939
  0
LINE
  8
0
 10
43.5451
 20
397.939
 11
43.1448
 21
398.423
  0
LINE
  8
0
 10
43.1448
 20
398.423
 11
42.6871
 21
398.853
  0
LINE
  8
0
 10
42.6871
 20
398.853
 11
42.1791
 21
399.222
  0
LINE
  8
0
 10
42.1791
 20
399.222
 11
41.6289
 21
399.524
  0
LINE
  8
0
 10
41.6289
 20
399.524
 11
41.0451
 21
399.755
  0
LINE
  8
0
 10
41.0451
 20
399.755
 11
40.4369
 21
399.911
  0
LINE
  8
0
 10
40.4369
 20
399.911
 11
39.8139
 21
399.99
  0
LINE
  8
0
 10
39.8139
 20
399.99
 11
-39.8139
 21
399.99
  0
LINE
  8
0
 10
-39.8139
 20
399.99
 11
-40.4369
 21
399.911
  0
LINE
  8
0
 10
-40.4369
 20
399.911
 11
-41.0451
 21
399.755
  0
LINE
  8
0
 10
-41.0451
 20
399.755
 11
-41.6289
 21
399.524
  0
LINE
  8
0
 10
-41.6289
 20
399.524
 11
-42.1791
 21
399.222
  0
LINE
  8
0
 10
-42.1791
 20
399.222
 11
-42.6871
 21
398.853
  0
LINE
  8
0
 10
-42.6871
 20
398.853
 11
-43.1448
 21
398.423
  0
LINE
  8
0
 10
-43.1448
 20
398.423
 11
-43.5451
 21
397.939
  0
LINE
  8
0
 10
-43.5451
 20
397.939
 11
-43.8815
 21
397.409
  0
LINE
  8
0
 10
-43.8815
 20
397.409
 11
-44.1489
 21
396.841
  0
LINE
  8
0
 10
-44.1489
 20
396.841
 11
-44.3429
 21
396.243
  0
LINE
  8
0
 10
-44.3429
 20
396.243
 11
-44.4606
 21
395.627
  0
LINE
  8
0
 10
-44.4606
 20
395.627
 11
-44.5
 21
395
  0
LINE
  8
0
 10
-44.5
 20
395
 11
-44.5
 21
361
  0
LINE
  8
0
 10
-44.5
 20
361
 11
-44.4606
 21
360.373
  0
LINE
  8
0
 10
-44.4606
 20
360.373
 11
-44.3429
 21
359.757
  0
LINE
  8
0
 10
-44.3429
 20
359.757
 11
-44.1489
 21
359.159
  0
LINE
  8
0
 10
-44.1489
 20
359.159
 11
-43.8815
 21
358.591
  0
LINE
  8
0
 10
-43.8815
 20
358.591
 11
-43.5451
 21
358.061
  0
LINE
  8
0
 10
-43.5451
 20
358.061
 11
-43.1448
 21
357.577
  0
LINE
  8
0
 10
-43.1448
 20
357.577
 11
-42.6871
 21
357.147
  0
LINE
  8
0
 10
-42.6871
 20
357.147
 11
-42.1791
 21
356.778
  0
LINE
  8
0
 10
-42.1791
 20
356.778
 11
-41.6289
 21
356.476
  0
LINE
  8
0
 10
-41.6289
 20
356.476
 11
-41.0451
 21
356.245
  0
LINE
  8
0
 10
-41.0451
 20
356.245
 11
-40.4369
 21
356.089
  0
LINE
  8
0
 10
-40.4369
 20
356.089
 11
-39.8139
 21
356.01
  0
LINE
  8
0
 10
-39.8139
 20
356.01
 11
39.8139
 21
356.01
  0
LINE
  8
0
 10
39.8139
 20
356.01
 11
40.4369
 21
356.089
  0
LINE
  8
0
 10
37.3116
 20
390.006
 11
36.9379
 21
390.053
  0
LINE
  8
0
 10
36.9379
 20
390.053
 11
36.5729
 21
390.147
  0
LINE
  8
0
 10
36.5729
 20
390.147
 11
36.2227
 21
390.286
  0
LINE
  8
0
 10
36.2227
 20
390.286
 11
35.8925
 21
390.467
  0
LINE
  8
0
 10
35.8925
 20
390.467
 11
35.5877
 21
390.688
  0
LINE
  8
0
 10
35.5877
 20
390.688
 11
35.3131
 21
390.946
  0
LINE
  8
0
 10
35.3131
 20
390.946
 11
35.0729
 21
391.237
  0
LINE
  8
0
 10
35.0729
 20
391.237
 11
34.8711
 21
391.555
  0
LINE
  8
0
 10
34.8711
 20
391.555
 11
34.7107
 21
391.896
  0
LINE
  8
0
 10
34.7107
 20
391.896
 11
34.5942
 21
392.254
  0
LINE
  8
0
 10
34.5942
 20
392.254
 11
34.5237
 21
392.624
  0
LINE
  8
0
 10
34.5237
 20
392.624
 11
34.5
 21
393
  0
LINE
  8
0
 10
34.5
 20
393
 11
34.5237
 21
393.376
  0
LINE
  8
0
 10
34.5237
 20
393.376
 11
34.5942
 21
393.746
  0
LINE
  8
0
 10
34.5942
 20
393.746
 11
34.7107
 21
394.104
  0
LINE
  8
0
 10
34.7107
 20
394.104
 11
34.8711
 21
394.445
  0
LINE
  8
0
 10
34.8711
 20
394.445
 11
35.0729
 21
394.763
  0
LINE
  8
0
 10
35.0729
 20
394.763
 11
35.3131
 21
395.054
  0
LINE
  8
0
 10
35.3131
 20
395.054
 11
35.5877
 21
395.312
  0
LINE
  8
0
 10
35.5877
 20
395.312
 11
35.8925
 21
395.533
  0
LINE
  8
0
 10
35.8925
 20
395.533
 11
36.2227
 21
395.714
  0
LINE
  8
0
 10
36.2227
 20
395.714
 11
36.5729
 21
395.853
  0
LINE
  8
0
 10
36.5729
 20
395.853
 11
36.9379
 21
395.947
  0
LINE
  8
0
 10
36.9379
 20
395.947
 11
37.3116
 21
395.994
  0
LINE
  8
0
 10
37.3116
 20
395.994
 11
37.6884
 21
395.994
  0
LINE
  8
0
 10
37.6884
 20
395.994
 11
38.0621
 21
395.947
  0
LINE
  8
0
 10
38.0621
 20
395.947
 11
38.427
 21
395.853
  0
LINE
  8
0
 10
38.427
 20
395.853
 11
38.7773
 21
395.714
  0
LINE
  8
0
 10
38.7773
 20
395.714
 11
39.1075
 21
395.533
  0
LINE
  8
0
 10
39.1075
 20
395.533
 11
39.4123
 21
395.312
  0
LINE
  8
0
 10
39.4123
 20
395.312
 11
39.6869
 21
395.054
  0
LINE
  8
0
 10
39.6869
 20
395.054
 11
39.927
 21
394.763
  0
LINE
  8
0
 10
39.927
 20
394.763
 11
40.1289
 21
394.445
  0
LINE
  8
0
 10
40.1289
 20
394.445
 11
40.2893
 21
394.104
  0
LINE
  8
0
 10
40.2893
 20
394.104
 11
40.4057
 21
393.746
  0
LINE
  8
0
 10
40.4057
 20
393.746
 11
40.4763
 21
393.376
  0
LINE
  8
0
 10
40.4763
 20
393.376
 11
40.5
 21
393
  0
LINE
  8
0
 10
40.5
 20
393
 11
40.4763
 21
392.624
  0
LINE
  8
0
 10
40.4763
 20
392.624
 11
40.4057
 21
392.254
  0
LINE
  8
0
 10
40.4057
 20
392.254
 11
40.2893
 21
391.896
  0
LINE
  8
0
 10
40.2893
 20
391.896
 11
40.1289
 21
391.555
  0
LINE
  8
0
 10
40.1289
 20
391.555
 11
39.927
 21
391.237
  0
LINE
  8
0
 10
39.927
 20
391.237
 11
39.6869
 21
390.946
  0
LINE
  8
0
 10
39.6869
 20
390.946
 11
39.4123
 21
390.688
  0
LINE
  8
0
 10
39.4123
 20
390.688
 11
39.1075
 21
390.467
  0
LINE
  8
0
 10
39.1075
 20
390.467
 11
38.7773
 21
390.286
  0
LINE
  8
0
 10
38.7773
 20
390.286
 11
38.427
 21
390.147
  0
LINE
  8
0
 10
38.427
 20
390.147
 11
38.0621
 21
390.053
  0
LINE
  8
0
 10
38.0621
 20
390.053
 11
37.6884
 21
390.006
  0
LINE
  8
0
 10
37.6884
 20
390.006
 11
37.3116
 21
390.006
  0
LINE
  8
0
 10
-37.6884
 20
390.006
 11
-38.0621
 21
390.053
  0
LINE
  8
0
 10
-38.0621
 20
390.053
 11
-38.427
 21
390.147
  0
LINE
  8
0
 10
-38.427
 20
390.147
 11
-38.7773
 21
390.286
  0
LINE
  8
0
 10
-38.7773
 20
390.286
 11
-39.1075
 21
390.467
  0
LINE
  8
0
 10
-39.1075
 20
390.467
 11
-39.4123
 21
390.688
  0
LINE
  8
0
 10
-39.4123
 20
390.688
 11
-39.6869
 21
390.946
  0
LINE
  8
0
 10
-39.6869
 20
390.946
 11
-39.927
 21
391.237
  0
LINE
  8
0
 10
-39.927
 20
391.237
 11
-40.1289
 21
391.555
  0
LINE
  8
0
 10
-40.1289
 20
391.555
 11
-40.2893
 21
391.896
  0
LINE
  8
0
 10
-40.2893
 20
391.896
 11
-40.4057
 21
392.254
  0
LINE
  8
0
 10
-40.4057
 20
392.254
 11
-40.4763
 21
392.624
  0
LINE
  8
0
 10
-40.4763
 20
392.624
 11
-40.5
 21
393
  0
LINE
  8
0
 10
-40.5
 20
393
 11
-40.4763
 21
393.376
  0
LINE
  8
0
 10
-40.4763
 20
393.376
 11
-40.4057
 21
393.746
  0
LINE
  8
0
 10
-40.4057
 20
393.746
 11
-40.2893
 21
394.104
  0
LINE
  8
0
 10
-40.2893
 20
394.104
 11
-40.1289
 21
394.445
  0
LINE
  8
0
 10
-40.1289
 20
394.445
 11
-39.927
 21
394.763
  0
LINE
  8
0
 10
-39.927
 20
394.763
 11
-39.6869
 21
395.054
  0
LINE
  8
0
 10
-39.6869
 20
395.054
 11
-39.4123
 21
395.312
  0
LINE
  8
0
 10
-39.4123
 20
395.312
 11
-39.1075
 21
395.533
  0
LINE
  8
0
 10
-39.1075
 20
395.533
 11
-38.7773
 21
395.714
  0
LINE
  8
0
 10
-38.7773
 20
395.714
 11
-38.427
 21
395.853
  0
LINE
  8
0
 10
-38.427
 20
395.853
 11
-38.0621
 21
395.947
  0
LINE
  8
0
 10
-38.0621
 20
395.947
 11
-37.6884
 21
395.994
  0
LINE
  8
0
 10
-37.6884
 20
395.994
 11
-37.3116
 21
395.994
  0
LINE
  8
0
 10
-37.3116
 20
395.994
 11
-36.9379
 21
395.947
  0
LINE
  8
0
 10
-36.9379
 20
395.947
 11
-36.5729
 21
395.853
  0
LINE
  8
0
 10
-36.5729
 20
395.853
 11
-36.2227
 21
395.714
  0
LINE
  8
0
 10
-36.2227
 20
395.714
 11
-35.8925
 21
395.533
  0
LINE
  8
0
 10
-35.8925
 20
395.533
 11
-35.5877
 21
395.312
  0
LINE
  8
0
 10
-35.5877
 20
395.312
 11
-35.3131
 21
395.054
  0
LINE
  8
0
 10
-35.3131
 20
395.054
 11
-35.0729
 21
394.763
  0
LINE
  8
0
 10
-35.0729
 20
394.763
 11
-34.8711
 21
394.445
  0
LINE
  8
0
 10
-34.8711
 20
394.445
 11
-34.7107
 21
394.104
  0
LINE
  8
0
 10
-34.7107
 20
394.104
 11
-34.5942
 21
393.746
  0
LINE
  8
0
 10
-34.5942
 20
393.746
 11
-34.5237
 21
393.376
  0
LINE
  8
0
 10
-34.5237
 20
393.376
 11
-34.5
 21
393
  0
LINE
  8
0
 10
-34.5
 20
393
 11
-34.5237
 21
392.624
  0
LINE
  8
0
 10
-34.5237
 20
392.624
 11
-34.5942
 21
392.254
  0
LINE
  8
0
 10
-34.5942
 20
392.254
 11
-34.7107
 21
391.896
  0
LINE
  8
0
 10
-34.7107
 20
391.896
 11
-34.8711
 21
391.555
  0
LINE
  8
0
 10
-34.8711
 20
391.555
 11
-35.0729
 21
391.237
  0
LINE
  8
0
 10
-35.0729
 20
391.237
 11
-35.3131
 21
390.946
  0
LINE
  8
0
 10
-35.3131
 20
390.946
 11
-35.5877
 21
390.688
  0
LINE
  8
0
 10
-35.5877
 20
390.688
 11
-35.8925
 21
390.467
  0
LINE
  8
0
 10
-35.8925
 20
390.467
 11
-36.2227
 21
390.286
  0
LINE
  8
0
 10
-36.2227
 20
390.286
 11
-36.5729
 21
390.147
  0
LINE
  8
0
 10
-36.5729
 20
390.147
 11
-36.9379
 21
390.053
  0
LINE
  8
0
 10
-36.9379
 20
390.053
 11
-37.3116
 21
390.006
  0
LINE
  8
0
 10
-37.3116
 20
390.006
 11
-37.6884
 21
390.006
  0
LINE
  8
0
 10
-37.6884
 20
360.006
 11
-38.0621
 21
360.053
  0
LINE
  8
0
 10
-38.0621
 20
360.053
 11
-38.427
 21
360.147
  0
LINE
  8
0
 10
-38.427
 20
360.147
 11
-38.7773
 21
360.286
  0
LINE
  8
0
 10
-38.7773
 20
360.286
 11
-39.1075
 21
360.467
  0
LINE
  8
0
 10
-39.1075
 20
360.467
 11
-39.4123
 21
360.688
  0
LINE
  8
0
 10
-39.4123
 20
360.688
 11
-39.6869
 21
360.946
  0
LINE
  8
0
 10
-39.6869
 20
360.946
 11
-39.927
 21
361.237
  0
LINE
  8
0
 10
-39.927
 20
361.237
 11
-40.1289
 21
361.555
  0
LINE
  8
0
 10
-40.1289
 20
361.555
 11
-40.2893
 21
361.896
  0
LINE
  8
0
 10
-40.2893
 20
361.896
 11
-40.4057
 21
362.254
  0
LINE
  8
0
 10
-40.4057
 20
362.254
 11
-40.4763
 21
362.624
  0
LINE
  8
0
 10
-40.4763
 20
362.624
 11
-40.5
 21
363
  0
LINE
  8
0
 10
-40.5
 20
363
 11
-40.4763
 21
363.376
  0
LINE
  8
0
 10
-40.4763
 20
363.376
 11
-40.4057
 21
363.746
  0
LINE
  8
0
 10
-40.4057
 20
363.746
 11
-40.2893
 21
364.104
  0
LINE
  8
0
 10
-40.2893
 20
364.104
 11
-40.1289
 21
364.445
  0
LINE
  8
0
 10
-40.1289
 20
364.445
 11
-39.927
 21
364.763
  0
LINE
  8
0
 10
-39.927
 20
364.763
 11
-39.6869
 21
365.054
  0
LINE
  8
0
 10
-39.6869
 20
365.054
 11
-39.4123
 21
365.312
  0
LINE
  8
0
 10
-39.4123
 20
365.312
 11
-39.1075
 21
365.533
  0
LINE
  8
0
 10
-39.1075
 20
365.533
 11
-38.7773
 21
365.714
  0
LINE
  8
0
 10
-38.7773
 20
365.714
 11
-38.427
 21
365.853
  0
LINE
  8
0
 10
-38.427
 20
365.853
 11
-38.0621
 21
365.947
  0
LINE
  8
0
 10
-38.0621
 20
365.947
 11
-37.6884
 21
365.994
  0
LINE
  8
0
 10
-37.6884
 20
365.994
 11
-37.3116
 21
365.994
  0
LINE
  8
0
 10
-37.3116
 20
365.994
 11
-36.9379
 21
365.947
  0
LINE
  8
0
 10
-36.9379
 20
365.947
 11
-36.5729
 21
365.853
  0
LINE
  8
0
 10
-36.5729
 20
365.853
 11
-36.2227
 21
365.714
  0
LINE
  8
0
 10
-36.2227
 20
365.714
 11
-35.8925
 21
365.533
  0
LINE
  8
0
 10
-35.8925
 20
365.533
 11
-35.5877
 21
365.312
  0
LINE
  8
0
 10
-35.5877
 20
365.312
 11
-35.3131
 21
365.054
  0
LINE
  8
0
 10
-35.3131
 20
365.054
 11
-35.0729
 21
364.763
  0
LINE
  8
0
 10
-35.0729
 20
364.763
 11
-34.8711
 21
364.445
  0
LINE
  8
0
 10
-34.8711
 20
364.445
 11
-34.7107
 21
364.104
  0
LINE
  8
0
 10
-34.7107
 20
364.104
 11
-34.5942
 21
363.746
  0
LINE
  8
0
 10
-34.5942
 20
363.746
 11
-34.5237
 21
363.376
  0
LINE
  8
0
 10
-34.5237
 20
363.376
 11
-34.5
 21
363
  0
LINE
  8
0
 10
-34.5
 20
363
 11
-34.5237
 21
362.624
  0
LINE
  8
0
 10
-34.5237
 20
362.624
 11
-34.5942
 21
362.254
  0
LINE
  8
0
 10
-34.5942
 20
362.254
 11
-34.7107
 21
361.896
  0
LINE
  8
0
 10
-34.7107
 20
361.896
 11
-34.8711
 21
361.555
  0
LINE
  8
0
 10
-34.8711
 20
361.555
 11
-35.0729
 21
361.237
  0
LINE
  8
0
 10
-35.0729
 20
361.237
 11
-35.3131
 21
360.946
  0
LINE
  8
0
 10
-35.3131
 20
360.946
 11
-35.5877
 21
360.688
  0
LINE
  8
0
 10
-35.5877
 20
360.688
 11
-35.8925
 21
360.467
  0
LINE
  8
0
 10
-35.8925
 20
360.467
 11
-36.2227
 21
360.286
  0
LINE
  8
0
 10
-36.2227
 20
360.286
 11
-36.5729
 21
360.147
  0
LINE
  8
0
 10
-36.5729
 20
360.147
 11
-36.9379
 21
360.053
  0
LINE
  8
0
 10
-36.9379
 20
360.053
 11
-37.3116
 21
360.006
  0
LINE
  8
0
 10
-37.3116
 20
360.006
 11
-37.6884
 21
360.006
  0
LINE
  8
0
 10
37.3116
 20
360.006
 11
36.9379
 21
360.053
  0
LINE
  8
0
 10
36.9379
 20
360.053
 11
36.5729
 21
360.147
  0
LINE
  8
0
 10
36.5729
 20
360.147
 11
36.2227
 21
360.286
  0
LINE
  8
0
 10
36.2227
 20
360.286
 11
35.8925
 21
360.467
  0
LINE
  8
0
 10
35.8925
 20
360.467
 11
35.5877
 21
360.688
  0
LINE
  8
0
 10
35.5877
 20
360.688
 11
35.3131
 21
360.946
  0
LINE
  8
0
 10
35.3131
 20
360.946
 11
35.0729
 21
361.237
  0
LINE
  8
0
 10
35.0729
 20
361.237
 11
34.8711
 21
361.555
  0
LINE
  8
0
 10
34.8711
 20
361.555
 11
34.7107
 21
361.896
  0
LINE
  8
0
 10
34.7107
 20
361.896
 11
34.5942
 21
362.254
  0
LINE
  8
0
 10
34.5942
 20
362.254
 11
34.5237
 21
362.624
  0
LINE
  8
0
 10
34.5237
 20
362.624
 11
34.5
 21
363
  0
LINE
  8
0
 10
34.5
 20
363
 11
34.5237
 21
363.376
  0
LINE
  8
0
 10
34.5237
 20
363.376
 11
34.5942
 21
363.746
  0
LINE
  8
0
 10
34.5942
 20
363.746
 11
34.7107
 21
364.104
  0
LINE
  8
0
 10
34.7107
 20
364.104
 11
34.8711
 21
364.445
  0
LINE
  8
0
 10
34.8711
 20
364.445
 11
35.0729
 21
364.763
  0
LINE
  8
0
 10
35.0729
 20
364.763
 11
35.3131
 21
365.054
  0
LINE
  8
0
 10
35.3131
 20
365.054
 11
35.5877
 21
365.312
  0
LINE
  8
0
 10
35.5877
 20
365.312
 11
35.8925
 21
365.533
  0
LINE
  8
0
 10
35.8925
 20
365.533
 11
36.2227
 21
365.714
  0
LINE
  8
0
 10
36.2227
 20
365.714
 11
36.5729
 21
365.853
  0
LINE
  8
0
 10
36.5729
 20
365.853
 11
36.9379
 21
365.947
  0
LINE
  8
0
 10
36.9379
 20
365.947
 11
37.3116
 21
365.994
  0
LINE
  8
0
 10
37.3116
 20
365.994
 11
37.6884
 21
365.994
  0
LINE
  8
0
 10
37.6884
 20
365.994
 11
38.0621
 21
365.947
  0
LINE
  8
0
 10
38.0621
 20
365.947
 11
38.427
 21
365.853
  0
LINE
  8
0
 10
38.427
 20
365.853
 11
38.7773
 21
365.714
  0
LINE
  8
0
 10
38.7773
 20
365.714
 11
39.1075
 21
365.533
  0
LINE
  8
0
 10
39.1075
 20
365.533
 11
39.4123
 21
365.312
  0
LINE
  8
0
 10
39.4123
 20
365.312
 11
39.6869
 21
365.054
  0
LINE
  8
0
 10
39.6869
 20
365.054
 11
39.927
 21
364.763
  0
LINE
  8
0
 10
39.927
 20
364.763
 11
40.1289
 21
364.445
  0
LINE
  8
0
 10
40.1289
 20
364.445
 11
40.2893
 21
364.104
  0
LINE
  8
0
 10
40.2893
 20
364.104
 11
40.4057
 21
363.746
  0
LINE
  8
0
 10
40.4057
 20
363.746
 11
40.4763
 21
363.376
  0
LINE
  8
0
 10
40.4763
 20
363.376
 11
40.5
 21
363
  0
LINE
  8
0
 10
40.5
 20
363
 11
40.4763
 21
362.624
  0
LINE
  8
0
 10
40.4763
 20
362.624
 11
40.4057
 21
362.254
  0
LINE
  8
0
 10
40.4057
 20
362.254
 11
40.2893
 21
361.896
  0
LINE
  8
0
 10
40.2893
 20
361.896
 11
40.1289
 21
361.555
  0
LINE
  8
0
 10
40.1289
 20
361.555
 11
39.927
 21
361.237
  0
LINE
  8
0
 10
39.927
 20
361.237
 11
39.6869
 21
360.946
  0
LINE
  8
0
 10
39.6869
 20
360.946
 11
39.4123
 21
360.688
  0
LINE
  8
0
 10
39.4123
 20
360.688
 11
39.1075
 21
360.467
  0
LINE
  8
0
 10
39.1075
 20
360.467
 11
38.7773
 21
360.286
  0
LINE
  8
0
 10
38.7773
 20
360.286
 11
38.427
 21
360.147
  0
LINE
  8
0
 10
38.427
 20
360.147
 11
38.0621
 21
360.053
  0
LINE
  8
0
 10
38.0621
 20
360.053
 11
37.6884
 21
360.006
  0
LINE
  8
0
 10
37.6884
 20
360.006
 11
37.3116
 21
360.006
  0
LINE
  8
0
 10
40.4369
 20
302.089
 11
41.0451
 21
302.245
  0
LINE
  8
0
 10
41.0451
 20
302.245
 11
41.6289
 21
302.476
  0
LINE
  8
0
 10
41.6289
 20
302.476
 11
42.1791
 21
302.778
  0
LINE
  8
0
 10
42.1791
 20
302.778
 11
42.6871
 21
303.147
  0
LINE
  8
0
 10
42.6871
 20
303.147
 11
43.1448
 21
303.577
  0
LINE
  8
0
 10
43.1448
 20
303.577
 11
43.5451
 21
304.061
  0
LINE
  8
0
 10
43.5451
 20
304.061
 11
43.8815
 21
304.591
  0
LINE
  8
0
 10
43.8815
 20
304.591
 11
44.1489
 21
305.159
  0
LINE
  8
0
 10
44.1489
 20
305.159
 11
44.3429
 21
305.757
  0
LINE
  8
0
 10
44.3429
 20
305.757
 11
44.4606
 21
306.373
  0
LINE
  8
0
 10
44.4606
 20
306.373
 11
44.5
 21
307
  0
LINE
  8
0
 10
44.5
 20
307
 11
44.5
 21
341
  0
LINE
  8
0
 10
44.5
 20
341
 11
44.4606
 21
341.627
  0
LINE
  8
0
 10
44.4606
 20
341.627
 11
44.3429
 21
342.243
  0
LINE
  8
0
 10
44.3429
 20
342.243
 11
44.1489
 21
342.841
  0
LINE
  8
0
 10
44.1489
 20
342.841
 11
43.8815
 21
343.409
  0
LINE
  8
0
 10
43.8815
 20
343.409
 11
43.5451
 21
343.939
  0
LINE
  8
0
 10
43.5451
 20
343.939
 11
43.1448
 21
344.423
  0
LINE
  8
0
 10
43.1448
 20
344.423
 11
42.6871
 21
344.853
  0
LINE
  8
0
 10
42.6871
 20
344.853
 11
42.1791
 21
345.222
  0
LINE
  8
0
 10
42.1791
 20
345.222
 11
41.6289
 21
345.524
  0
LINE
  8
0
 10
41.6289
 20
345.524
 11
41.0451
 21
345.755
  0
LINE
  8
0
 10
41.0451
 20
345.755
 11
40.4369
 21
345.911
  0
LINE
  8
0
 10
40.4369
 20
345.911
 11
39.8139
 21
345.99
  0
LINE
  8
0
 10
39.8139
 20
345.99
 11
-39.8139
 21
345.99
  0
LINE
  8
0
 10
-39.8139
 20
345.99
 11
-40.4369
 21
345.911
  0
LINE
  8
0
 10
-40.4369
 20
345.911
 11
-41.0451
 21
345.755
  0
LINE
  8
0
 10
-41.0451
 20
345.755
 11
-41.6289
 21
345.524
  0
LINE
  8
0
 10
-41.6289
 20
345.524
 11
-42.1791
 21
345.222
  0
LINE
  8
0
 10
-42.1791
 20
345.222
 11
-42.6871
 21
344.853
  0
LINE
  8
0
 10
-42.6871
 20
344.853
 11
-43.1448
 21
344.423
  0
LINE
  8
0
 10
-43.1448
 20
344.423
 11
-43.5451
 21
343.939
  0
LINE
  8
0
 10
-43.5451
 20
343.939
 11
-43.8815
 21
343.409
  0
LINE
  8
0
 10
-43.8815
 20
343.409
 11
-44.1489
 21
342.841
  0
LINE
  8
0
 10
-44.1489
 20
342.841
 11
-44.3429
 21
342.243
  0
LINE
  8
0
 10
-44.3429
 20
342.243
 11
-44.4606
 21
341.627
  0
LINE
  8
0
 10
-44.4606
 20
341.627
 11
-44.5
 21
341
  0
LINE
  8
0
 10
-44.5
 20
341
 11
-44.5
 21
307
  0
LINE
  8
0
 10
-44.5
 20
307
 11
-44.4606
 21
306.373
  0
LINE
  8
0
 10
-44.4606
 20
306.373
 11
-44.3429
 21
305.757
  0
LINE
  8
0
 10
-44.3429
 20
305.757
 11
-44.1489
 21
305.159
  0
LINE
  8
0
 10
-44.1489
 20
305.159
 11
-43.8815
 21
304.591
  0
LINE
  8
0
 10
-43.8815
 20
304.591
 11
-43.5451
 21
304.061
  0
LINE
  8
0
 10
-43.5451
 20
304.061
 11
-43.1448
 21
303.577
  0
LINE
  8
0
 10
-43.1448
 20
303.577
 11
-42.6871
 21
303.147
  0
LINE
  8
0
 10
-42.6871
 20
303.147
 11
-42.1791
 21
302.778
  0
LINE
  8
0
 10
-42.1791
 20
302.778
 11
-41.6289
 21
302.476
  0
LINE
  8
0
 10
-41.6289
 20
302.476
 11
-41.0451
 21
302.245
  0
LINE
  8
0
 10
-41.0451
 20
302.245
 11
-40.4369
 21
302.089
  0
LINE
  8
0
 10
-40.4369
 20
302.089
 11
-39.8139
 21
302.01
  0
LINE
  8
0
 10
-39.8139
 20
302.01
 11
39.8139
 21
302.01
  0
LINE
  8
0
 10
39.8139
 20
302.01
 11
40.4369
 21
302.089
  0
LINE
  8
0
 10
37.3116
 20
336.006
 11
36.9379
 21
336.053
  0
LINE
  8
0
 10
36.9379
 20
336.053
 11
36.5729
 21
336.147
  0
LINE
  8
0
 10
36.5729
 20
336.147
 11
36.2227
 21
336.286
  0
LINE
  8
0
 10
36.2227
 20
336.286
 11
35.8925
 21
336.467
  0
LINE
  8
0
 10
35.8925
 20
336.467
 11
35.5877
 21
336.688
  0
LINE
  8
0
 10
35.5877
 20
336.688
 11
35.3131
 21
336.946
  0
LINE
  8
0
 10
35.3131
 20
336.946
 11
35.0729
 21
337.237
  0
LINE
  8
0
 10
35.0729
 20
337.237
 11
34.8711
 21
337.555
  0
LINE
  8
0
 10
34.8711
 20
337.555
 11
34.7107
 21
337.896
  0
LINE
  8
0
 10
34.7107
 20
337.896
 11
34.5942
 21
338.254
  0
LINE
  8
0
 10
34.5942
 20
338.254
 11
34.5237
 21
338.624
  0
LINE
  8
0
 10
34.5237
 20
338.624
 11
34.5
 21
339
  0
LINE
  8
0
 10
34.5
 20
339
 11
34.5237
 21
339.376
  0
LINE
  8
0
 10
34.5237
 20
339.376
 11
34.5942
 21
339.746
  0
LINE
  8
0
 10
34.5942
 20
339.746
 11
34.7107
 21
340.104
  0
LINE
  8
0
 10
34.7107
 20
340.104
 11
34.8711
 21
340.445
  0
LINE
  8
0
 10
34.8711
 20
340.445
 11
35.0729
 21
340.763
  0
LINE
  8
0
 10
35.0729
 20
340.763
 11
35.3131
 21
341.054
  0
LINE
  8
0
 10
35.3131
 20
341.054
 11
35.5877
 21
341.312
  0
LINE
  8
0
 10
35.5877
 20
341.312
 11
35.8925
 21
341.533
  0
LINE
  8
0
 10
35.8925
 20
341.533
 11
36.2227
 21
341.714
  0
LINE
  8
0
 10
36.2227
 20
341.714
 11
36.5729
 21
341.853
  0
LINE
  8
0
 10
36.5729
 20
341.853
 11
36.9379
 21
341.947
  0
LINE
  8
0
 10
36.9379
 20
341.947
 11
37.3116
 21
341.994
  0
LINE
  8
0
 10
37.3116
 20
341.994
 11
37.6884
 21
341.994
  0
LINE
  8
0
 10
37.6884
 20
341.994
 11
38.0621
 21
341.947
  0
LINE
  8
0
 10
38.0621
 20
341.947
 11
38.427
 21
341.853
  0
LINE
  8
0
 10
38.427
 20
341.853
 11
38.7773
 21
341.714
  0
LINE
  8
0
 10
38.7773
 20
341.714
 11
39.1075
 21
341.533
  0
LINE
  8
0
 10
39.1075
 20
341.533
 11
39.4123
 21
341.312
  0
LINE
  8
0
 10
39.4123
 20
341.312
 11
39.6869
 21
341.054
  0
LINE
  8
0
 10
39.6869
 20
341.054
 11
39.927
 21
340.763
  0
LINE
  8
0
 10
39.927
 20
340.763
 11
40.1289
 21
340.445
  0
LINE
  8
0
 10
40.1289
 20
340.445
 11
40.2893
 21
340.104
  0
LINE
  8
0
 10
40.2893
 20
340.104
 11
40.4057
 21
339.746
  0
LINE
  8
0
 10
40.4057
 20
339.746
 11
40.4763
 21
339.376
  0
LINE
  8
0
 10
40.4763
 20
339.376
 11
40.5
 21
339
  0
LINE
  8
0
 10
40.5
 20
339
 11
40.4763
 21
338.624
  0
LINE
  8
0
 10
40.4763
 20
338.624
 11
40.4057
 21
338.254
  0
LINE
  8
0
 10
40.4057
 20
338.254
 11
40.2893
 21
337.896
  0
LINE
  8
0
 10
40.2893
 20
337.896
 11
40.1289
 21
337.555
  0
LINE
  8
0
 10
40.1289
 20
337.555
 11
39.927
 21
337.237
  0
LINE
  8
0
 10
39.927
 20
337.237
 11
39.6869
 21
336.946
  0
LINE
  8
0
 10
39.6869
 20
336.946
 11
39.4123
 21
336.688
  0
LINE
  8
0
 10
39.4123
 20
336.688
 11
39.1075
 21
336.467
  0
LINE
  8
0
 10
39.1075
 20
336.467
 11
38.7773
 21
336.286
  0
LINE
  8
0
 10
38.7773
 20
336.286
 11
38.427
 21
336.147
  0
LINE
  8
0
 10
38.427
 20
336.147
 11
38.0621
 21
336.053
  0
LINE
  8
0
 10
38.0621
 20
336.053
 11
37.6884
 21
336.006
  0
LINE
  8
0
 10
37.6884
 20
336.006
 11
37.3116
 21
336.006
  0
LINE
  8
0
 10
-37.6884
 20
336.006
 11
-38.0621
 21
336.053
  0
LINE
  8
0
 10
-38.0621
 20
336.053
 11
-38.427
 21
336.147
  0
LINE
  8
0
 10
-38.427
 20
336.147
 11
-38.7773
 21
336.286
  0
LINE
  8
0
 10
-38.7773
 20
336.286
 11
-39.1075
 21
336.467
  0
LINE
  8
0
 10
-39.1075
 20
336.467
 11
-39.4123
 21
336.688
  0
LINE
  8
0
 10
-39.4123
 20
336.688
 11
-39.6869
 21
336.946
  0
LINE
  8
0
 10
-39.6869
 20
336.946
 11
-39.927
 21
337.237
  0
LINE
  8
0
 10
-39.927
 20
337.237
 11
-40.1289
 21
337.555
  0
LINE
  8
0
 10
-40.1289
 20
337.555
 11
-40.2893
 21
337.896
  0
LINE
  8
0
 10
-40.2893
 20
337.896
 11
-40.4057
 21
338.254
  0
LINE
  8
0
 10
-40.4057
 20
338.254
 11
-40.4763
 21
338.624
  0
LINE
  8
0
 10
-40.4763
 20
338.624
 11
-40.5
 21
339
  0
LINE
  8
0
 10
-40.5
 20
339
 11
-40.4763
 21
339.376
  0
LINE
  8
0
 10
-40.4763
 20
339.376
 11
-40.4057
 21
339.746
  0
LINE
  8
0
 10
-40.4057
 20
339.746
 11
-40.2893
 21
340.104
  0
LINE
  8
0
 10
-40.2893
 20
340.104
 11
-40.1289
 21
340.445
  0
LINE
  8
0
 10
-40.1289
 20
340.445
 11
-39.927
 21
340.763
  0
LINE
  8
0
 10
-39.927
 20
340.763
 11
-39.6869
 21
341.054
  0
LINE
  8
0
 10
-39.6869
 20
341.054
 11
-39.4123
 21
341.312
  0
LINE
  8
0
 10
-39.4123
 20
341.312
 11
-39.1075
 21
341.533
  0
LINE
  8
0
 10
-39.1075
 20
341.533
 11
-38.7773
 21
341.714
  0
LINE
  8
0
 10
-38.7773
 20
341.714
 11
-38.427
 21
341.853
  0
LINE
  8
0
 10
-38.427
 20
341.853
 11
-38.0621
 21
341.947
  0
LINE
  8
0
 10
-38.0621
 20
341.947
 11
-37.6884
 21
341.994
  0
LINE
  8
0
 10
-37.6884
 20
341.994
 11
-37.3116
 21
341.994
  0
LINE
  8
0
 10
-37.3116
 20
341.994
 11
-36.9379
 21
341.947
  0
LINE
  8
0
 10
-36.9379
 20
341.947
 11
-36.5729
 21
341.853
  0
LINE
  8
0
 10
-36.5729
 20
341.853
 11
-36.2227
 21
341.714
  0
LINE
  8
0
 10
-36.2227
 20
341.714
 11
-35.8925
 21
341.533
  0
LINE
  8
0
 10
-35.8925
 20
341.533
 11
-35.5877
 21
341.312
  0
LINE
  8
0
 10
-35.5877
 20
341.312
 11
-35.3131
 21
341.054
  0
LINE
  8
0
 10
-35.3131
 20
341.054
 11
-35.0729
 21
340.763
  0
LINE
  8
0
 10
-35.0729
 20
340.763
 11
-34.8711
 21
340.445
  0
LINE
  8
0
 10
-34.8711
 20
340.445
 11
-34.7107
 21
340.104
  0
LINE
  8
0
 10
-34.7107
 20
340.104
 11
-34.5942
 21
339.746
  0
LINE
  8
0
 10
-34.5942
 20
339.746
 11
-34.5237
 21
339.376
  0
LINE
  8
0
 10
-34.5237
 20
339.376
 11
-34.5
 21
339
  0
LINE
  8
0
 10
-34.5
 20
339
 11
-34.5237
 21
338.624
  0
LINE
  8
0
 10
-34.5237
 20
338.624
 11
-34.5942
 21
338.254
  0
LINE
  8
0
 10
-34.5942
 20
338.254
 11
-34.7107
 21
337.896
  0
LINE
  8
0
 10
-34.7107
 20
337.896
 11
-34.8711
 21
337.555
  0
LINE
  8
0
 10
-34.8711
 20
337.555
 11
-35.0729
 21
337.237
  0
LINE
  8
0
 10
-35.0729
 20
337.237
 11
-35.3131
 21
336.946
  0
LINE
  8
0
 10
-35.3131
 20
336.946
 11
-35.5877
 21
336.688
  0
LINE
  8
0
 10
-35.5877
 20
336.688
 11
-35.8925
 21
336.467
  0
LINE
  8
0
 10
-35.8925
 20
336.467
 11
-36.2227
 21
336.286
  0
LINE
  8
0
 10
-36.2227
 20
336.286
 11
-36.5729
 21
336.147
  0
LINE
  8
0
 10
-36.5729
 20
336.147
 11
-36.9379
 21
336.053
  0
LINE
  8
0
 10
-36.9379
 20
336.053
 11
-37.3116
 21
336.006
  0
LINE
  8
0
 10
-37.3116
 20
336.006
 11
-37.6884
 21
336.006
  0
LINE
  8
0
 10
37.3116
 20
306.006
 11
36.9379
 21
306.053
  0
LINE
  8
0
 10
36.9379
 20
306.053
 11
36.5729
 21
306.147
  0
LINE
  8
0
 10
36.5729
 20
306.147
 11
36.2227
 21
306.286
  0
LINE
  8
0
 10
36.2227
 20
306.286
 11
35.8925
 21
306.467
  0
LINE
  8
0
 10
35.8925
 20
306.467
 11
35.5877
 21
306.688
  0
LINE
  8
0
 10
35.5877
 20
306.688
 11
35.3131
 21
306.946
  0
LINE
  8
0
 10
35.3131
 20
306.946
 11
35.0729
 21
307.237
  0
LINE
  8
0
 10
35.0729
 20
307.237
 11
34.8711
 21
307.555
  0
LINE
  8
0
 10
34.8711
 20
307.555
 11
34.7107
 21
307.896
  0
LINE
  8
0
 10
34.7107
 20
307.896
 11
34.5942
 21
308.254
  0
LINE
  8
0
 10
34.5942
 20
308.254
 11
34.5237
 21
308.624
  0
LINE
  8
0
 10
34.5237
 20
308.624
 11
34.5
 21
309
  0
LINE
  8
0
 10
34.5
 20
309
 11
34.5237
 21
309.376
  0
LINE
  8
0
 10
34.5237
 20
309.376
 11
34.5942
 21
309.746
  0
LINE
  8
0
 10
34.5942
 20
309.746
 11
34.7107
 21
310.104
  0
LINE
  8
0
 10
34.7107
 20
310.104
 11
34.8711
 21
310.445
  0
LINE
  8
0
 10
34.8711
 20
310.445
 11
35.0729
 21
310.763
  0
LINE
  8
0
 10
35.0729
 20
310.763
 11
35.3131
 21
311.054
  0
LINE
  8
0
 10
35.3131
 20
311.054
 11
35.5877
 21
311.312
  0
LINE
  8
0
 10
35.5877
 20
311.312
 11
35.8925
 21
311.533
  0
LINE
  8
0
 10
35.8925
 20
311.533
 11
36.2227
 21
311.714
  0
LINE
  8
0
 10
36.2227
 20
311.714
 11
36.5729
 21
311.853
  0
LINE
  8
0
 10
36.5729
 20
311.853
 11
36.9379
 21
311.947
  0
LINE
  8
0
 10
36.9379
 20
311.947
 11
37.3116
 21
311.994
  0
LINE
  8
0
 10
37.3116
 20
311.994
 11
37.6884
 21
311.994
  0
LINE
  8
0
 10
37.6884
 20
311.994
 11
38.0621
 21
311.947
  0
LINE
  8
0
 10
38.0621
 20
311.947
 11
38.427
 21
311.853
  0
LINE
  8
0
 10
38.427
 20
311.853
 11
38.7773
 21
311.714
  0
LINE
  8
0
 10
38.7773
 20
311.714
 11
39.1075
 21
311.533
  0
LINE
  8
0
 10
39.1075
 20
311.533
 11
39.4123
 21
311.312
  0
LINE
  8
0
 10
39.4123
 20
311.312
 11
39.6869
 21
311.054
  0
LINE
  8
0
 10
39.6869
 20
311.054
 11
39.927
 21
310.763
  0
LINE
  8
0
 10
39.927
 20
310.763
 11
40.1289
 21
310.445
  0
LINE
  8
0
 10
40.1289
 20
310.445
 11
40.2893
 21
310.104
  0
LINE
  8
0
 10
40.2893
 20
310.104
 11
40.4057
 21
309.746
  0
LINE
  8
0
 10
40.4057
 20
309.746
 11
40.4763
 21
309.376
  0
LINE
  8
0
 10
40.4763
 20
309.376
 11
40.5
 21
309
  0
LINE
  8
0
 10
40.5
 20
309
 11
40.4763
 21
308.624
  0
LINE
  8
0
 10
40.4763
 20
308.624
 11
40.4057
 21
308.254
  0
LINE
  8
0
 10
40.4057
 20
308.254
 11
40.2893
 21
307.896
  0
LINE
  8
0
 10
40.2893
 20
307.896
 11
40.1289
 21
307.555
  0
LINE
  8
0
 10
40.1289
 20
307.555
 11
39.927
 21
307.237
  0
LINE
  8
0
 10
39.927
 20
307.237
 11
39.6869
 21
306.946
  0
LINE
  8
0
 10
39.6869
 20
306.946
 11
39.4123
 21
306.688
  0
LINE
  8
0
 10
39.4123
 20
306.688
 11
39.1075
 21
306.467
  0
LINE
  8
0
 10
39.1075
 20
306.467
 11
38.7773
 21
306.286
  0
LINE
  8
0
 10
38.7773
 20
306.286
 11
38.427
 21
306.147
  0
LINE
  8
0
 10
38.427
 20
306.147
 11
38.0621
 21
306.053
  0
LINE
  8
0
 10
38.0621
 20
306.053
 11
37.6884
 21
306.006
  0
LINE
  8
0
 10
37.6884
 20
306.006
 11
37.3116
 21
306.006
  0
LINE
  8
0
 10
-37.6884
 20
306.006
 11
-38.0621
 21
306.053
  0
LINE
  8
0
 10
-38.0621
 20
306.053
 11
-38.427
 21
306.147
  0
LINE
  8
0
 10
-38.427
 20
306.147
 11
-38.7773
 21
306.286
  0
LINE
  8
0
 10
-38.7773
 20
306.286
 11
-39.1075
 21
306.467
  0
LINE
  8
0
 10
-39.1075
 20
306.467
 11
-39.4123
 21
306.688
  0
LINE
  8
0
 10
-39.4123
 20
306.688
 11
-39.6869
 21
306.946
  0
LINE
  8
0
 10
-39.6869
 20
306.946
 11
-39.927
 21
307.237
  0
LINE
  8
0
 10
-39.927
 20
307.237
 11
-40.1289
 21
307.555
  0
LINE
  8
0
 10
-40.1289
 20
307.555
 11
-40.2893
 21
307.896
  0
LINE
  8
0
 10
-40.2893
 20
307.896
 11
-40.4057
 21
308.254
  0
LINE
  8
0
 10
-40.4057
 20
308.254
 11
-40.4763
 21
308.624
  0
LINE
  8
0
 10
-40.4763
 20
308.624
 11
-40.5
 21
309
  0
LINE
  8
0
 10
-40.5
 20
309
 11
-40.4763
 21
309.376
  0
LINE
  8
0
 10
-40.4763
 20
309.376
 11
-40.4057
 21
309.746
  0
LINE
  8
0
 10
-40.4057
 20
309.746
 11
-40.2893
 21
310.104
  0
LINE
  8
0
 10
-40.2893
 20
310.104
 11
-40.1289
 21
310.445
  0
LINE
  8
0
 10
-40.1289
 20
310.445
 11
-39.927
 21
310.763
  0
LINE
  8
0
 10
-39.927
 20
310.763
 11
-39.6869
 21
311.054
  0
LINE
  8
0
 10
-39.6869
 20
311.054
 11
-39.4123
 21
311.312
  0
LINE
  8
0
 10
-39.4123
 20
311.312
 11
-39.1075
 21
311.533
  0
LINE
  8
0
 10
-39.1075
 20
311.533
 11
-38.7773
 21
311.714
  0
LINE
  8
0
 10
-38.7773
 20
311.714
 11
-38.427
 21
311.853
  0
LINE
  8
0
 10
-38.427
 20
311.853
 11
-38.0621
 21
311.947
  0
LINE
  8
0
 10
-38.0621
 20
311.947
 11
-37.6884
 21
311.994
  0
LINE
  8
0
 10
-37.6884
 20
311.994
 11
-37.3116
 21
311.994
  0
LINE
  8
0
 10
-37.3116
 20
311.994
 11
-36.9379
 21
311.947
  0
LINE
  8
0
 10
-36.9379
 20
311.947
 11
-36.5729
 21
311.853
  0
LINE
  8
0
 10
-36.5729
 20
311.853
 11
-36.2227
 21
311.714
  0
LINE
  8
0
 10
-36.2227
 20
311.714
 11
-35.8925
 21
311.533
  0
LINE
  8
0
 10
-35.8925
 20
311.533
 11
-35.5877
 21
311.312
  0
LINE
  8
0
 10
-35.5877
 20
311.312
 11
-35.3131
 21
311.054
  0
LINE
  8
0
 10
-35.3131
 20
311.054
 11
-35.0729
 21
310.763
  0
LINE
  8
0
 10
-35.0729
 20
310.763
 11
-34.8711
 21
310.445
  0
LINE
  8
0
 10
-34.8711
 20
310.445
 11
-34.7107
 21
310.104
  0
LINE
  8
0
 10
-34.7107
 20
310.104
 11
-34.5942
 21
309.746
  0
LINE
  8
0
 10
-34.5942
 20
309.746
 11
-34.5237
 21
309.376
  0
LINE
  8
0
 10
-34.5237
 20
309.376
 11
-34.5
 21
309
  0
LINE
  8
0
 10
-34.5
 20
309
 11
-34.5237
 21
308.624
  0
LINE
  8
0
 10
-34.5237
 20
308.624
 11
-34.5942
 21
308.254
  0
LINE
  8
0
 10
-34.5942
 20
308.254
 11
-34.7107
 21
307.896
  0
LINE
  8
0
 10
-34.7107
 20
307.896
 11
-34.8711
 21
307.555
  0
LINE
  8
0
 10
-34.8711
 20
307.555
 11
-35.0729
 21
307.237
  0
LINE
  8
0
 10
-35.0729
 20
307.237
 11
-35.3131
 21
306.946
  0
LINE
  8
0
 10
-35.3131
 20
306.946
 11
-35.5877
 21
306.688
  0
LINE
  8
0
 10
-35.5877
 20
306.688
 11
-35.8925
 21
306.467
  0
LINE
  8
0
 10
-35.8925
 20
306.467
 11
-36.2227
 21
306.286
  0
LINE
  8
0
 10
-36.2227
 20
306.286
 11
-36.5729
 21
306.147
  0
LINE
  8
0
 10
-36.5729
 20
306.147
 11
-36.9379
 21
306.053
  0
LINE
  8
0
 10
-36.9379
 20
306.053
 11
-37.3116
 21
306.006
  0
LINE
  8
0
 10
-37.3116
 20
306.006
 11
-37.6884
 21
306.006
  0
LINE
  8
0
 10
40.4369
 20
248.089
 11
41.0451
 21
248.245
  0
LINE
  8
0
 10
41.0451
 20
248.245
 11
41.6289
 21
248.476
  0
LINE
  8
0
 10
41.6289
 20
248.476
 11
42.1791
 21
248.778
  0
LINE
  8
0
 10
42.1791
 20
248.778
 11
42.6871
 21
249.147
  0
LINE
  8
0
 10
42.6871
 20
249.147
 11
43.1448
 21
249.577
  0
LINE
  8
0
 10
43.1448
 20
249.577
 11
43.5451
 21
250.061
  0
LINE
  8
0
 10
43.5451
 20
250.061
 11
43.8815
 21
250.591
  0
LINE
  8
0
 10
43.8815
 20
250.591
 11
44.1489
 21
251.159
  0
LINE
  8
0
 10
44.1489
 20
251.159
 11
44.3429
 21
251.757
  0
LINE
  8
0
 10
44.3429
 20
251.757
 11
44.4606
 21
252.373
  0
LINE
  8
0
 10
44.4606
 20
252.373
 11
44.5
 21
253
  0
LINE
  8
0
 10
44.5
 20
253
 11
44.5
 21
287
  0
LINE
  8
0
 10
44.5
 20
287
 11
44.4606
 21
287.627
  0
LINE
  8
0
 10
44.4606
 20
287.627
 11
44.3429
 21
288.243
  0
LINE
  8
0
 10
44.3429
 20
288.243
 11
44.1489
 21
288.841
  0
LINE
  8
0
 10
44.1489
 20
288.841
 11
43.8815
 21
289.409
  0
LINE
  8
0
 10
43.8815
 20
289.409
 11
43.5451
 21
289.939
  0
LINE
  8
0
 10
43.5451
 20
289.939
 11
43.1448
 21
290.423
  0
LINE
  8
0
 10
43.1448
 20
290.423
 11
42.6871
 21
290.853
  0
LINE
  8
0
 10
42.6871
 20
290.853
 11
42.1791
 21
291.222
  0
LINE
  8
0
 10
42.1791
 20
291.222
 11
41.6289
 21
291.524
  0
LINE
  8
0
 10
41.6289
 20
291.524
 11
41.0451
 21
291.755
  0
LINE
  8
0
 10
41.0451
 20
291.755
 11
40.4369
 21
291.911
  0
LINE
  8
0
 10
40.4369
 20
291.911
 11
39.8139
 21
291.99
  0
LINE
  8
0
 10
39.8139
 20
291.99
 11
-39.8139
 21
291.99
  0
LINE
  8
0
 10
-39.8139
 20
291.99
 11
-40.4369
 21
291.911
  0
LINE
  8
0
 10
-40.4369
 20
291.911
 11
-41.0451
 21
291.755
  0
LINE
  8
0
 10
-41.0451
 20
291.755
 11
-41.6289
 21
291.524
  0
LINE
  8
0
 10
-41.6289
 20
291.524
 11
-42.1791
 21
291.222
  0
LINE
  8
0
 10
-42.1791
 20
291.222
 11
-42.6871
 21
290.853
  0
LINE
  8
0
 10
-42.6871
 20
290.853
 11
-43.1448
 21
290.423
  0
LINE
  8
0
 10
-43.1448
 20
290.423
 11
-43.5451
 21
289.939
  0
LINE
  8
0
 10
-43.5451
 20
289.939
 11
-43.8815
 21
289.409
  0
LINE
  8
0
 10
-43.8815
 20
289.409
 11
-44.1489
 21
288.841
  0
LINE
  8
0
 10
-44.1489
 20
288.841
 11
-44.3429
 21
288.243
  0
LINE
  8
0
 10
-44.3429
 20
288.243
 11
-44.4606
 21
287.627
  0
LINE
  8
0
 10
-44.4606
 20
287.627
 11
-44.5
 21
287
  0
LINE
  8
0
 10
-44.5
 20
287
 11
-44.5
 21
253
  0
LINE
  8
0
 10
-44.5
 20
253
 11
-44.4606
 21
252.373
  0
LINE
  8
0
 10
-44.4606
 20
252.373
 11
-44.3429
 21
251.757
  0
LINE
  8
0
 10
-44.3429
 20
251.757
 11
-44.1489
 21
251.159
  0
LINE
  8
0
 10
-44.1489
 20
251.159
 11
-43.8815
 21
250.591
  0
LINE
  8
0
 10
-43.8815
 20
250.591
 11
-43.5451
 21
250.061
  0
LINE
  8
0
 10
-43.5451
 20
250.061
 11
-43.1448
 21
249.577
  0
LINE
  8
0
 10
-43.1448
 20
249.577
 11
-42.6871
 21
249.147
  0
LINE
  8
0
 10
-42.6871
 20
249.147
 11
-42.1791
 21
248.778
  0
LINE
  8
0
 10
-42.1791
 20
248.778
 11
-41.6289
 21
248.476
  0
LINE
  8
0
 10
-41.6289
 20
248.476
 11
-41.0451
 21
248.245
  0
LINE
  8
0
 10
-41.0451
 20
248.245
 11
-40.4369
 21
248.089
  0
LINE
  8
0
 10
-40.4369
 20
248.089
 11
-39.8139
 21
248.01
  0
LINE
  8
0
 10
-39.8139
 20
248.01
 11
39.8139
 21
248.01
  0
LINE
  8
0
 10
39.8139
 20
248.01
 11
40.4369
 21
248.089
  0
LINE
  8
0
 10
37.3116
 20
282.006
 11
36.9379
 21
282.053
  0
LINE
  8
0
 10
36.9379
 20
282.053
 11
36.5729
 21
282.147
  0
LINE
  8
0
 10
36.5729
 20
282.147
 11
36.2227
 21
282.286
  0
LINE
  8
0
 10
36.2227
 20
282.286
 11
35.8925
 21
282.467
  0
LINE
  8
0
 10
35.8925
 20
282.467
 11
35.5877
 21
282.688
  0
LINE
  8
0
 10
35.5877
 20
282.688
 11
35.3131
 21
282.946
  0
LINE
  8
0
 10
35.3131
 20
282.946
 11
35.0729
 21
283.237
  0
LINE
  8
0
 10
35.0729
 20
283.237
 11
34.8711
 21
283.555
  0
LINE
  8
0
 10
34.8711
 20
283.555
 11
34.7107
 21
283.896
  0
LINE
  8
0
 10
34.7107
 20
283.896
 11
34.5942
 21
284.254
  0
LINE
  8
0
 10
34.5942
 20
284.254
 11
34.5237
 21
284.624
  0
LINE
  8
0
 10
34.5237
 20
284.624
 11
34.5
 21
285
  0
LINE
  8
0
 10
34.5
 20
285
 11
34.5237
 21
285.376
  0
LINE
  8
0
 10
34.5237
 20
285.376
 11
34.5942
 21
285.746
  0
LINE
  8
0
 10
34.5942
 20
285.746
 11
34.7107
 21
286.104
  0
LINE
  8
0
 10
34.7107
 20
286.104
 11
34.8711
 21
286.445
  0
LINE
  8
0
 10
34.8711
 20
286.445
 11
35.0729
 21
286.763
  0
LINE
  8
0
 10
35.0729
 20
286.763
 11
35.3131
 21
287.054
  0
LINE
  8
0
 10
35.3131
 20
287.054
 11
35.5877
 21
287.312
  0
LINE
  8
0
 10
35.5877
 20
287.312
 11
35.8925
 21
287.533
  0
LINE
  8
0
 10
35.8925
 20
287.533
 11
36.2227
 21
287.714
  0
LINE
  8
0
 10
36.2227
 20
287.714
 11
36.5729
 21
287.853
  0
LINE
  8
0
 10
36.5729
 20
287.853
 11
36.9379
 21
287.947
  0
LINE
  8
0
 10
36.9379
 20
287.947
 11
37.3116
 21
287.994
  0
LINE
  8
0
 10
37.3116
 20
287.994
 11
37.6884
 21
287.994
  0
LINE
  8
0
 10
37.6884
 20
287.994
 11
38.0621
 21
287.947
  0
LINE
  8
0
 10
38.0621
 20
287.947
 11
38.427
 21
287.853
  0
LINE
  8
0
 10
38.427
 20
287.853
 11
38.7773
 21
287.714
  0
LINE
  8
0
 10
38.7773
 20
287.714
 11
39.1075
 21
287.533
  0
LINE
  8
0
 10
39.1075
 20
287.533
 11
39.4123
 21
287.312
  0
LINE
  8
0
 10
39.4123
 20
287.312
 11
39.6869
 21
287.054
  0
LINE
  8
0
 10
39.6869
 20
287.054
 11
39.927
 21
286.763
  0
LINE
  8
0
 10
39.927
 20
286.763
 11
40.1289
 21
286.445
  0
LINE
  8
0
 10
40.1289
 20
286.445
 11
40.2893
 21
286.104
  0
LINE
  8
0
 10
40.2893
 20
286.104
 11
40.4057
 21
285.746
  0
LINE
  8
0
 10
40.4057
 20
285.746
 11
40.4763
 21
285.376
  0
LINE
  8
0
 10
40.4763
 20
285.376
 11
40.5
 21
285
  0
LINE
  8
0
 10
40.5
 20
285
 11
40.4763
 21
284.624
  0
LINE
  8
0
 10
40.4763
 20
284.624
 11
40.4057
 21
284.254
  0
LINE
  8
0
 10
40.4057
 20
284.254
 11
40.2893
 21
283.896
  0
LINE
  8
0
 10
40.2893
 20
283.896
 11
40.1289
 21
283.555
  0
LINE
  8
0
 10
40.1289
 20
283.555
 11
39.927
 21
283.237
  0
LINE
  8
0
 10
39.927
 20
283.237
 11
39.6869
 21
282.946
  0
LINE
  8
0
 10
39.6869
 20
282.946
 11
39.4123
 21
282.688
  0
LINE
  8
0
 10
39.4123
 20
282.688
 11
39.1075
 21
282.467
  0
LINE
  8
0
 10
39.1075
 20
282.467
 11
38.7773
 21
282.286
  0
LINE
  8
0
 10
38.7773
 20
282.286
 11
38.427
 21
282.147
  0
LINE
  8
0
 10
38.427
 20
282.147
 11
38.0621
 21
282.053
  0
LINE
  8
0
 10
38.0621
 20
282.053
 11
37.6884
 21
282.006
  0
LINE
  8
0
 10
37.6884
 20
282.006
 11
37.3116
 21
282.006
  0
LINE
  8
0
 10
-37.6884
 20
282.006
 11
-38.0621
 21
282.053
  0
LINE
  8
0
 10
-38.0621
 20
282.053
 11
-38.427
 21
282.147
  0
LINE
  8
0
 10
-38.427
 20
282.147
 11
-38.7773
 21
282.286
  0
LINE
  8
0
 10
-38.7773
 20
282.286
 11
-39.1075
 21
282.467
  0
LINE
  8
0
 10
-39.1075
 20
282.467
 11
-39.4123
 21
282.688
  0
LINE
  8
0
 10
-39.4123
 20
282.688
 11
-39.6869
 21
282.946
  0
LINE
  8
0
 10
-39.6869
 20
282.946
 11
-39.927
 21
283.237
  0
LINE
  8
0
 10
-39.927
 20
283.237
 11
-40.1289
 21
283.555
  0
LINE
  8
0
 10
-40.1289
 20
283.555
 11
-40.2893
 21
283.896
  0
LINE
  8
0
 10
-40.2893
 20
283.896
 11
-40.4057
 21
284.254
  0
LINE
  8
0
 10
-40.4057
 20
284.254
 11
-40.4763
 21
284.624
  0
LINE
  8
0
 10
-40.4763
 20
284.624
 11
-40.5
 21
285
  0
LINE
  8
0
 10
-40.5
 20
285
 11
-40.4763
 21
285.376
  0
LINE
  8
0
 10
-40.4763
 20
285.376
 11
-40.4057
 21
285.746
  0
LINE
  8
0
 10
-40.4057
 20
285.746
 11
-40.2893
 21
286.104
  0
LINE
  8
0
 10
-40.2893
 20
286.104
 11
-40.1289
 21
286.445
  0
LINE
  8
0
 10
-40.1289
 20
286.445
 11
-39.927
 21
286.763
  0
LINE
  8
0
 10
-39.927
 20
286.763
 11
-39.6869
 21
287.054
  0
LINE
  8
0
 10
-39.6869
 20
287.054
 11
-39.4123
 21
287.312
  0
LINE
  8
0
 10
-39.4123
 20
287.312
 11
-39.1075
 21
287.533
  0
LINE
  8
0
 10
-39.1075
 20
287.533
 11
-38.7773
 21
287.714
  0
LINE
  8
0
 10
-38.7773
 20
287.714
 11
-38.427
 21
287.853
  0
LINE
  8
0
 10
-38.427
 20
287.853
 11
-38.0621
 21
287.947
  0
LINE
  8
0
 10
-38.0621
 20
287.947
 11
-37.6884
 21
287.994
  0
LINE
  8
0
 10
-37.6884
 20
287.994
 11
-37.3116
 21
287.994
  0
LINE
  8
0
 10
-37.3116
 20
287.994
 11
-36.9379
 21
287.947
  0
LINE
  8
0
 10
-36.9379
 20
287.947
 11
-36.5729
 21
287.853
  0
LINE
  8
0
 10
-36.5729
 20
287.853
 11
-36.2227
 21
287.714
  0
LINE
  8
0
 10
-36.2227
 20
287.714
 11
-35.8925
 21
287.533
  0
LINE
  8
0
 10
-35.8925
 20
287.533
 11
-35.5877
 21
287.312
  0
LINE
  8
0
 10
-35.5877
 20
287.312
 11
-35.3131
 21
287.054
  0
LINE
  8
0
 10
-35.3131
 20
287.054
 11
-35.0729
 21
286.763
  0
LINE
  8
0
 10
-35.0729
 20
286.763
 11
-34.8711
 21
286.445
  0
LINE
  8
0
 10
-34.8711
 20
286.445
 11
-34.7107
 21
286.104
  0
LINE
  8
0
 10
-34.7107
 20
286.104
 11
-34.5942
 21
285.746
  0
LINE
  8
0
 10
-34.5942
 20
285.746
 11
-34.5237
 21
285.376
  0
LINE
  8
0
 10
-34.5237
 20
285.376
 11
-34.5
 21
285
  0
LINE
  8
0
 10
-34.5
 20
285
 11
-34.5237
 21
284.624
  0
LINE
  8
0
 10
-34.5237
 20
284.624
 11
-34.5942
 21
284.254
  0
LINE
  8
0
 10
-34.5942
 20
284.254
 11
-34.7107
 21
283.896
  0
LINE
  8
0
 10
-34.7107
 20
283.896
 11
-34.8711
 21
283.555
  0
LINE
  8
0
 10
-34.8711
 20
283.555
 11
-35.0729
 21
283.237
  0
LINE
  8
0
 10
-35.0729
 20
283.237
 11
-35.3131
 21
282.946
  0
LINE
  8
0
 10
-35.3131
 20
282.946
 11
-35.5877
 21
282.688
  0
LINE
  8
0
 10
-35.5877
 20
282.688
 11
-35.8925
 21
282.467
  0
LINE
  8
0
 10
-35.8925
 20
282.467
 11
-36.2227
 21
282.286
  0
LINE
  8
0
 10
-36.2227
 20
282.286
 11
-36.5729
 21
282.147
  0
LINE
  8
0
 10
-36.5729
 20
282.147
 11
-36.9379
 21
282.053
  0
LINE
  8
0
 10
-36.9379
 20
282.053
 11
-37.3116
 21
282.006
  0
LINE
  8
0
 10
-37.3116
 20
282.006
 11
-37.6884
 21
282.006
  0
LINE
  8
0
 10
37.3116
 20
252.006
 11
36.9379
 21
252.053
  0
LINE
  8
0
 10
36.9379
 20
252.053
 11
36.5729
 21
252.147
  0
LINE
  8
0
 10
36.5729
 20
252.147
 11
36.2227
 21
252.286
  0
LINE
  8
0
 10
36.2227
 20
252.286
 11
35.8925
 21
252.467
  0
LINE
  8
0
 10
35.8925
 20
252.467
 11
35.5877
 21
252.688
  0
LINE
  8
0
 10
35.5877
 20
252.688
 11
35.3131
 21
252.946
  0
LINE
  8
0
 10
35.3131
 20
252.946
 11
35.0729
 21
253.237
  0
LINE
  8
0
 10
35.0729
 20
253.237
 11
34.8711
 21
253.555
  0
LINE
  8
0
 10
34.8711
 20
253.555
 11
34.7107
 21
253.896
  0
LINE
  8
0
 10
34.7107
 20
253.896
 11
34.5942
 21
254.254
  0
LINE
  8
0
 10
34.5942
 20
254.254
 11
34.5237
 21
254.624
  0
LINE
  8
0
 10
34.5237
 20
254.624
 11
34.5
 21
255
  0
LINE
  8
0
 10
34.5
 20
255
 11
34.5237
 21
255.376
  0
LINE
  8
0
 10
34.5237
 20
255.376
 11
34.5942
 21
255.746
  0
LINE
  8
0
 10
34.5942
 20
255.746
 11
34.7107
 21
256.104
  0
LINE
  8
0
 10
34.7107
 20
256.104
 11
34.8711
 21
256.445
  0
LINE
  8
0
 10
34.8711
 20
256.445
 11
35.0729
 21
256.763
  0
LINE
  8
0
 10
35.0729
 20
256.763
 11
35.3131
 21
257.054
  0
LINE
  8
0
 10
35.3131
 20
257.054
 11
35.5877
 21
257.312
  0
LINE
  8
0
 10
35.5877
 20
257.312
 11
35.8925
 21
257.533
  0
LINE
  8
0
 10
35.8925
 20
257.533
 11
36.2227
 21
257.714
  0
LINE
  8
0
 10
36.2227
 20
257.714
 11
36.5729
 21
257.853
  0
LINE
  8
0
 10
36.5729
 20
257.853
 11
36.9379
 21
257.947
  0
LINE
  8
0
 10
36.9379
 20
257.947
 11
37.3116
 21
257.994
  0
LINE
  8
0
 10
37.3116
 20
257.994
 11
37.6884
 21
257.994
  0
LINE
  8
0
 10
37.6884
 20
257.994
 11
38.0621
 21
257.947
  0
LINE
  8
0
 10
38.0621
 20
257.947
 11
38.427
 21
257.853
  0
LINE
  8
0
 10
38.427
 20
257.853
 11
38.7773
 21
257.714
  0
LINE
  8
0
 10
38.7773
 20
257.714
 11
39.1075
 21
257.533
  0
LINE
  8
0
 10
39.1075
 20
257.533
 11
39.4123
 21
257.312
  0
LINE
  8
0
 10
39.4123
 20
257.312
 11
39.6869
 21
257.054
  0
LINE
  8
0
 10
39.6869
 20
257.054
 11
39.927
 21
256.763
  0
LINE
  8
0
 10
39.927
 20
256.763
 11
40.1289
 21
256.445
  0
LINE
  8
0
 10
40.1289
 20
256.445
 11
40.2893
 21
256.104
  0
LINE
  8
0
 10
40.2893
 20
256.104
 11
40.4057
 21
255.746
  0
LINE
  8
0
 10
40.4057
 20
255.746
 11
40.4763
 21
255.376
  0
LINE
  8
0
 10
40.4763
 20
255.376
 11
40.5
 21
255
  0
LINE
  8
0
 10
40.5
 20
255
 11
40.4763
 21
254.624
  0
LINE
  8
0
 10
40.4763
 20
254.624
 11
40.4057
 21
254.254
  0
LINE
  8
0
 10
40.4057
 20
254.254
 11
40.2893
 21
253.896
  0
LINE
  8
0
 10
40.2893
 20
253.896
 11
40.1289
 21
253.555
  0
LINE
  8
0
 10
40.1289
 20
253.555
 11
39.927
 21
253.237
  0
LINE
  8
0
 10
39.927
 20
253.237
 11
39.6869
 21
252.946
  0
LINE
  8
0
 10
39.6869
 20
252.946
 11
39.4123
 21
252.688
  0
LINE
  8
0
 10
39.4123
 20
252.688
 11
39.1075
 21
252.467
  0
LINE
  8
0
 10
39.1075
 20
252.467
 11
38.7773
 21
252.286
  0
LINE
  8
0
 10
38.7773
 20
252.286
 11
38.427
 21
252.147
  0
LINE
  8
0
 10
38.427
 20
252.147
 11
38.0621
 21
252.053
  0
LINE
  8
0
 10
38.0621
 20
252.053
 11
37.6884
 21
252.006
  0
LINE
  8
0
 10
37.6884
 20
252.006
 11
37.3116
 21
252.006
  0
LINE
  8
0
 10
-37.6884
 20
252.006
 11
-38.0621
 21
252.053
  0
LINE
  8
0
 10
-38.0621
 20
252.053
 11
-38.427
 21
252.147
  0
LINE
  8
0
 10
-38.427
 20
252.147
 11
-38.7773
 21
252.286
  0
LINE
  8
0
 10
-38.7773
 20
252.286
 11
-39.1075
 21
252.467
  0
LINE
  8
0
 10
-39.1075
 20
252.467
 11
-39.4123
 21
252.688
  0
LINE
  8
0
 10
-39.4123
 20
252.688
 11
-39.6869
 21
252.946
  0
LINE
  8
0
 10
-39.6869
 20
252.946
 11
-39.927
 21
253.237
  0
LINE
  8
0
 10
-39.927
 20
253.237
 11
-40.1289
 21
253.555
  0
LINE
  8
0
 10
-40.1289
 20
253.555
 11
-40.2893
 21
253.896
  0
LINE
  8
0
 10
-40.2893
 20
253.896
 11
-40.4057
 21
254.254
  0
LINE
  8
0
 10
-40.4057
 20
254.254
 11
-40.4763
 21
254.624
  0
LINE
  8
0
 10
-40.4763
 20
254.624
 11
-40.5
 21
255
  0
LINE
  8
0
 10
-40.5
 20
255
 11
-40.4763
 21
255.376
  0
LINE
  8
0
 10
-40.4763
 20
255.376
 11
-40.4057
 21
255.746
  0
LINE
  8
0
 10
-40.4057
 20
255.746
 11
-40.2893
 21
256.104
  0
LINE
  8
0
 10
-40.2893
 20
256.104
 11
-40.1289
 21
256.445
  0
LINE
  8
0
 10
-40.1289
 20
256.445
 11
-39.927
 21
256.763
  0
LINE
  8
0
 10
-39.927
 20
256.763
 11
-39.6869
 21
257.054
  0
LINE
  8
0
 10
-39.6869
 20
257.054
 11
-39.4123
 21
257.312
  0
LINE
  8
0
 10
-39.4123
 20
257.312
 11
-39.1075
 21
257.533
  0
LINE
  8
0
 10
-39.1075
 20
257.533
 11
-38.7773
 21
257.714
  0
LINE
  8
0
 10
-38.7773
 20
257.714
 11
-38.427
 21
257.853
  0
LINE
  8
0
 10
-38.427
 20
257.853
 11
-38.0621
 21
257.947
  0
LINE
  8
0
 10
-38.0621
 20
257.947
 11
-37.6884
 21
257.994
  0
LINE
  8
0
 10
-37.6884
 20
257.994
 11
-37.3116
 21
257.994
  0
LINE
  8
0
 10
-37.3116
 20
257.994
 11
-36.9379
 21
257.947
  0
LINE
  8
0
 10
-36.9379
 20
257.947
 11
-36.5729
 21
257.853
  0
LINE
  8
0
 10
-36.5729
 20
257.853
 11
-36.2227
 21
257.714
  0
LINE
  8
0
 10
-36.2227
 20
257.714
 11
-35.8925
 21
257.533
  0
LINE
  8
0
 10
-35.8925
 20
257.533
 11
-35.5877
 21
257.312
  0
LINE
  8
0
 10
-35.5877
 20
257.312
 11
-35.3131
 21
257.054
  0
LINE
  8
0
 10
-35.3131
 20
257.054
 11
-35.0729
 21
256.763
  0
LINE
  8
0
 10
-35.0729
 20
256.763
 11
-34.8711
 21
256.445
  0
LINE
  8
0
 10
-34.8711
 20
256.445
 11
-34.7107
 21
256.104
  0
LINE
  8
0
 10
-34.7107
 20
256.104
 11
-34.5942
 21
255.746
  0
LINE
  8
0
 10
-34.5942
 20
255.746
 11
-34.5237
 21
255.376
  0
LINE
  8
0
 10
-34.5237
 20
255.376
 11
-34.5
 21
255
  0
LINE
  8
0
 10
-34.5
 20
255
 11
-34.5237
 21
254.624
  0
LINE
  8
0
 10
-34.5237
 20
254.624
 11
-34.5942
 21
254.254
  0
LINE
  8
0
 10
-34.5942
 20
254.254
 11
-34.7107
 21
253.896
  0
LINE
  8
0
 10
-34.7107
 20
253.896
 11
-34.8711
 21
253.555
  0
LINE
  8
0
 10
-34.8711
 20
253.555
 11
-35.0729
 21
253.237
  0
LINE
  8
0
 10
-35.0729
 20
253.237
 11
-35.3131
 21
252.946
  0
LINE
  8
0
 10
-35.3131
 20
252.946
 11
-35.5877
 21
252.688
  0
LINE
  8
0
 10
-35.5877
 20
252.688
 11
-35.8925
 21
252.467
  0
LINE
  8
0
 10
-35.8925
 20
252.467
 11
-36.2227
 21
252.286
  0
LINE
  8
0
 10
-36.2227
 20
252.286
 11
-36.5729
 21
252.147
  0
LINE
  8
0
 10
-36.5729
 20
252.147
 11
-36.9379
 21
252.053
  0
LINE
  8
0
 10
-36.9379
 20
252.053
 11
-37.3116
 21
252.006
  0
LINE
  8
0
 10
-37.3116
 20
252.006
 11
-37.6884
 21
252.006
  0
ENDSEC
  0
SECTION
  2
OBJECTS
  0
DICTIONARY
  0
ENDSEC
  0
EOF
