<?xml version="1.0" standalone="no"?>
<!DOCTYPE svg PUBLIC "-//W3C//DTD SVG 1.1//EN" "http://www.w3.org/Graphics/SVG/1.1/DTD/svg11.dtd">
<svg width="74mm" height="38mm" viewBox="-37 -79 74 38" xmlns="http://www.w3.org/2000/svg" version="1.1">
<title>OpenSCAD Model</title>
<path d="
M 32.9369,-65.0886 L 33.5451,-65.2447 L 34.1289,-65.4759 L 34.6791,-65.7784 L 35.1871,-66.1474 L 35.6448,-66.5773
 L 36.0451,-67.0611 L 36.3815,-67.5912 L 36.6489,-68.1594 L 36.8429,-68.7566 L 36.9606,-69.3733 L 37,-70
 L 37,-74 L 36.9606,-74.6267 L 36.8429,-75.2434 L 36.6489,-75.8406 L 36.3815,-76.4088 L 36.0451,-76.9389
 L 35.6448,-77.4227 L 35.1871,-77.8526 L 34.6791,-78.2216 L 34.1289,-78.5241 L 33.5451,-78.7553 L 32.9369,-78.9114
 L 32.3139,-78.9901 L -32.3139,-78.9901 L -32.9369,-78.9114 L -33.5451,-78.7553 L -34.1289,-78.5241 L -34.6791,-78.2216
 L -35.1871,-77.8526 L -35.6448,-77.4227 L -36.0451,-76.9389 L -36.3815,-76.4088 L -36.6489,-75.8406 L -36.8429,-75.2434
 L -36.9606,-74.6267 L -37,-74 L -37,-70 L -36.9606,-69.3733 L -36.8429,-68.7566 L -36.6489,-68.1594
 L -36.3815,-67.5912 L -36.0451,-67.0611 L -35.6448,-66.5773 L -35.1871,-66.1474 L -34.6791,-65.7784 L -34.1289,-65.4759
 L -33.5451,-65.2447 L -32.9369,-65.0886 L -32.3139,-65.0099 L 32.3139,-65.0099 z
M -30.1884,-69.0059 L -30.5621,-69.0531 L -30.927,-69.1468 L -31.2773,-69.2855 L -31.6075,-69.467 L -31.9123,-69.6885
 L -32.1869,-69.9464 L -32.427,-70.2366 L -32.6289,-70.5547 L -32.7893,-70.8956 L -32.9057,-71.2539 L -32.9763,-71.624
 L -33,-72 L -32.9763,-72.376 L -32.9057,-72.7461 L -32.7893,-73.1044 L -32.6289,-73.4453 L -32.427,-73.7634
 L -32.1869,-74.0536 L -31.9123,-74.3115 L -31.6075,-74.533 L -31.2773,-74.7145 L -30.927,-74.8532 L -30.5621,-74.9469
 L -30.1884,-74.9941 L -29.8116,-74.9941 L -29.4379,-74.9469 L -29.0729,-74.8532 L -28.7227,-74.7145 L -28.3925,-74.533
 L -28.0877,-74.3115 L -27.8131,-74.0536 L -27.5729,-73.7634 L -27.3711,-73.4453 L -27.2107,-73.1044 L -27.0942,-72.7461
 L -27.0237,-72.376 L -27,-72 L -27.0237,-71.624 L -27.0942,-71.2539 L -27.2107,-70.8956 L -27.3711,-70.5547
 L -27.5729,-70.2366 L -27.8131,-69.9464 L -28.0877,-69.6885 L -28.3925,-69.467 L -28.7227,-69.2855 L -29.0729,-69.1468
 L -29.4379,-69.0531 L -29.8116,-69.0059 z
M 29.8116,-69.0059 L 29.4379,-69.0531 L 29.0729,-69.1468 L 28.7227,-69.2855 L 28.3925,-69.467 L 28.0877,-69.6885
 L 27.8131,-69.9464 L 27.5729,-70.2366 L 27.3711,-70.5547 L 27.2107,-70.8956 L 27.0942,-71.2539 L 27.0237,-71.624
 L 27,-72 L 27.0237,-72.376 L 27.0942,-72.7461 L 27.2107,-73.1044 L 27.3711,-73.4453 L 27.5729,-73.7634
 L 27.8131,-74.0536 L 28.0877,-74.3115 L 28.3925,-74.533 L 28.7227,-74.7145 L 29.0729,-74.8532 L 29.4379,-74.9469
 L 29.8116,-74.9941 L 30.1884,-74.9941 L 30.5621,-74.9469 L 30.927,-74.8532 L 31.2773,-74.7145 L 31.6075,-74.533
 L 31.9123,-74.3115 L 32.1869,-74.0536 L 32.427,-73.7634 L 32.6289,-73.4453 L 32.7893,-73.1044 L 32.9057,-72.7461
 L 32.9763,-72.376 L 33,-72 L 32.9763,-71.624 L 32.9057,-71.2539 L 32.7893,-70.8956 L 32.6289,-70.5547
 L 32.427,-70.2366 L 32.1869,-69.9464 L 31.9123,-69.6885 L 31.6075,-69.467 L 31.2773,-69.2855 L 30.927,-69.1468
 L 30.5621,-69.0531 L 30.1884,-69.0059 z
M 14.8116,-69.0059 L 14.4379,-69.0531 L 14.0729,-69.1468 L 13.7227,-69.2855 L 13.3925,-69.467 L 13.0877,-69.6885
 L 12.8131,-69.9464 L 12.5729,-70.2366 L 12.3711,-70.5547 L 12.2107,-70.8956 L 12.0942,-71.2539 L 12.0237,-71.624
 L 12,-72 L 12.0237,-72.376 L 12.0942,-72.7461 L 12.2107,-73.1044 L 12.3711,-73.4453 L 12.5729,-73.7634
 L 12.8131,-74.0536 L 13.0877,-74.3115 L 13.3925,-74.533 L 13.7227,-74.7145 L 14.0729,-74.8532 L 14.4379,-74.9469
 L 14.8116,-74.9941 L 15.1884,-74.9941 L 15.5621,-74.9469 L 15.927,-74.8532 L 16.2773,-74.7145 L 16.6075,-74.533
 L 16.9123,-74.3115 L 17.1869,-74.0536 L 17.427,-73.7634 L 17.6289,-73.4453 L 17.7893,-73.1044 L 17.9057,-72.7461
 L 17.9763,-72.376 L 18,-72 L 17.9763,-71.624 L 17.9057,-71.2539 L 17.7893,-70.8956 L 17.6289,-70.5547
 L 17.427,-70.2366 L 17.1869,-69.9464 L 16.9123,-69.6885 L 16.6075,-69.467 L 16.2773,-69.2855 L 15.927,-69.1468
 L 15.5621,-69.0531 L 15.1884,-69.0059 z
M -15.1884,-69.0059 L -15.5621,-69.0531 L -15.927,-69.1468 L -16.2773,-69.2855 L -16.6075,-69.467 L -16.9123,-69.6885
 L -17.1869,-69.9464 L -17.427,-70.2366 L -17.6289,-70.5547 L -17.7893,-70.8956 L -17.9057,-71.2539 L -17.9763,-71.624
 L -18,-72 L -17.9763,-72.376 L -17.9057,-72.7461 L -17.7893,-73.1044 L -17.6289,-73.4453 L -17.427,-73.7634
 L -17.1869,-74.0536 L -16.9123,-74.3115 L -16.6075,-74.533 L -16.2773,-74.7145 L -15.927,-74.8532 L -15.5621,-74.9469
 L -15.1884,-74.9941 L -14.8116,-74.9941 L -14.4379,-74.9469 L -14.0729,-74.8532 L -13.7227,-74.7145 L -13.3925,-74.533
 L -13.0877,-74.3115 L -12.8131,-74.0536 L -12.5729,-73.7634 L -12.3711,-73.4453 L -12.2107,-73.1044 L -12.0942,-72.7461
 L -12.0237,-72.376 L -12,-72 L -12.0237,-71.624 L -12.0942,-71.2539 L -12.2107,-70.8956 L -12.3711,-70.5547
 L -12.5729,-70.2366 L -12.8131,-69.9464 L -13.0877,-69.6885 L -13.3925,-69.467 L -13.7227,-69.2855 L -14.0729,-69.1468
 L -14.4379,-69.0531 L -14.8116,-69.0059 z
M -0.18837,-69.0059 L -0.562134,-69.0531 L -0.927048,-69.1468 L -1.27733,-69.2855 L -1.60747,-69.467 L -1.91226,-69.6885
 L -2.1869,-69.9464 L -2.42705,-70.2366 L -2.62891,-70.5547 L -2.78932,-70.8956 L -2.90575,-71.2539 L -2.97633,-71.624
 L -3,-72 L -2.97633,-72.376 L -2.90575,-72.7461 L -2.78932,-73.1044 L -2.62891,-73.4453 L -2.42705,-73.7634
 L -2.1869,-74.0536 L -1.91226,-74.3115 L -1.60747,-74.533 L -1.27733,-74.7145 L -0.927048,-74.8532 L -0.562134,-74.9469
 L -0.18837,-74.9941 L 0.18837,-74.9941 L 0.562134,-74.9469 L 0.927048,-74.8532 L 1.27733,-74.7145 L 1.60747,-74.533
 L 1.91226,-74.3115 L 2.1869,-74.0536 L 2.42705,-73.7634 L 2.62891,-73.4453 L 2.78932,-73.1044 L 2.90575,-72.7461
 L 2.97633,-72.376 L 3,-72 L 2.97633,-71.624 L 2.90575,-71.2539 L 2.78932,-70.8956 L 2.62891,-70.5547
 L 2.42705,-70.2366 L 2.1869,-69.9464 L 1.91226,-69.6885 L 1.60747,-69.467 L 1.27733,-69.2855 L 0.927048,-69.1468
 L 0.562134,-69.0531 L 0.18837,-69.0059 z
M 32.9369,-41.0886 L 33.5451,-41.2447 L 34.1289,-41.4759 L 34.6791,-41.7784 L 35.1871,-42.1474 L 35.6448,-42.5773
 L 36.0451,-43.0611 L 36.3815,-43.5912 L 36.6489,-44.1594 L 36.8429,-44.7566 L 36.9606,-45.3733 L 37,-46
 L 37,-50 L 36.9606,-50.6267 L 36.8429,-51.2434 L 36.6489,-51.8406 L 36.3815,-52.4088 L 36.0451,-52.9389
 L 35.6448,-53.4227 L 35.1871,-53.8526 L 34.6791,-54.2216 L 34.1289,-54.5241 L 33.5451,-54.7553 L 32.9369,-54.9114
 L 32.3139,-54.9901 L -32.3139,-54.9901 L -32.9369,-54.9114 L -33.5451,-54.7553 L -34.1289,-54.5241 L -34.6791,-54.2216
 L -35.1871,-53.8526 L -35.6448,-53.4227 L -36.0451,-52.9389 L -36.3815,-52.4088 L -36.6489,-51.8406 L -36.8429,-51.2434
 L -36.9606,-50.6267 L -37,-50 L -37,-46 L -36.9606,-45.3733 L -36.8429,-44.7566 L -36.6489,-44.1594
 L -36.3815,-43.5912 L -36.0451,-43.0611 L -35.6448,-42.5773 L -35.1871,-42.1474 L -34.6791,-41.7784 L -34.1289,-41.4759
 L -33.5451,-41.2447 L -32.9369,-41.0886 L -32.3139,-41.0099 L 32.3139,-41.0099 z
M -30.1884,-45.0059 L -30.5621,-45.0531 L -30.927,-45.1468 L -31.2773,-45.2855 L -31.6075,-45.467 L -31.9123,-45.6885
 L -32.1869,-45.9464 L -32.427,-46.2366 L -32.6289,-46.5547 L -32.7893,-46.8956 L -32.9057,-47.2539 L -32.9763,-47.624
 L -33,-48 L -32.9763,-48.376 L -32.9057,-48.7461 L -32.7893,-49.1044 L -32.6289,-49.4453 L -32.427,-49.7634
 L -32.1869,-50.0536 L -31.9123,-50.3115 L -31.6075,-50.533 L -31.2773,-50.7145 L -30.927,-50.8532 L -30.5621,-50.9469
 L -30.1884,-50.9941 L -29.8116,-50.9941 L -29.4379,-50.9469 L -29.0729,-50.8532 L -28.7227,-50.7145 L -28.3925,-50.533
 L -28.0877,-50.3115 L -27.8131,-50.0536 L -27.5729,-49.7634 L -27.3711,-49.4453 L -27.2107,-49.1044 L -27.0942,-48.7461
 L -27.0237,-48.376 L -27,-48 L -27.0237,-47.624 L -27.0942,-47.2539 L -27.2107,-46.8956 L -27.3711,-46.5547
 L -27.5729,-46.2366 L -27.8131,-45.9464 L -28.0877,-45.6885 L -28.3925,-45.467 L -28.7227,-45.2855 L -29.0729,-45.1468
 L -29.4379,-45.0531 L -29.8116,-45.0059 z
M 29.8116,-45.0059 L 29.4379,-45.0531 L 29.0729,-45.1468 L 28.7227,-45.2855 L 28.3925,-45.467 L 28.0877,-45.6885
 L 27.8131,-45.9464 L 27.5729,-46.2366 L 27.3711,-46.5547 L 27.2107,-46.8956 L 27.0942,-47.2539 L 27.0237,-47.624
 L 27,-48 L 27.0237,-48.376 L 27.0942,-48.7461 L 27.2107,-49.1044 L 27.3711,-49.4453 L 27.5729,-49.7634
 L 27.8131,-50.0536 L 28.0877,-50.3115 L 28.3925,-50.533 L 28.7227,-50.7145 L 29.0729,-50.8532 L 29.4379,-50.9469
 L 29.8116,-50.9941 L 30.1884,-50.9941 L 30.5621,-50.9469 L 30.927,-50.8532 L 31.2773,-50.7145 L 31.6075,-50.533
 L 31.9123,-50.3115 L 32.1869,-50.0536 L 32.427,-49.7634 L 32.6289,-49.4453 L 32.7893,-49.1044 L 32.9057,-48.7461
 L 32.9763,-48.376 L 33,-48 L 32.9763,-47.624 L 32.9057,-47.2539 L 32.7893,-46.8956 L 32.6289,-46.5547
 L 32.427,-46.2366 L 32.1869,-45.9464 L 31.9123,-45.6885 L 31.6075,-45.467 L 31.2773,-45.2855 L 30.927,-45.1468
 L 30.5621,-45.0531 L 30.1884,-45.0059 z
M 14.8116,-45.0059 L 14.4379,-45.0531 L 14.0729,-45.1468 L 13.7227,-45.2855 L 13.3925,-45.467 L 13.0877,-45.6885
 L 12.8131,-45.9464 L 12.5729,-46.2366 L 12.3711,-46.5547 L 12.2107,-46.8956 L 12.0942,-47.2539 L 12.0237,-47.624
 L 12,-48 L 12.0237,-48.376 L 12.0942,-48.7461 L 12.2107,-49.1044 L 12.3711,-49.4453 L 12.5729,-49.7634
 L 12.8131,-50.0536 L 13.0877,-50.3115 L 13.3925,-50.533 L 13.7227,-50.7145 L 14.0729,-50.8532 L 14.4379,-50.9469
 L 14.8116,-50.9941 L 15.1884,-50.9941 L 15.5621,-50.9469 L 15.927,-50.8532 L 16.2773,-50.7145 L 16.6075,-50.533
 L 16.9123,-50.3115 L 17.1869,-50.0536 L 17.427,-49.7634 L 17.6289,-49.4453 L 17.7893,-49.1044 L 17.9057,-48.7461
 L 17.9763,-48.376 L 18,-48 L 17.9763,-47.624 L 17.9057,-47.2539 L 17.7893,-46.8956 L 17.6289,-46.5547
 L 17.427,-46.2366 L 17.1869,-45.9464 L 16.9123,-45.6885 L 16.6075,-45.467 L 16.2773,-45.2855 L 15.927,-45.1468
 L 15.5621,-45.0531 L 15.1884,-45.0059 z
M -15.1884,-45.0059 L -15.5621,-45.0531 L -15.927,-45.1468 L -16.2773,-45.2855 L -16.6075,-45.467 L -16.9123,-45.6885
 L -17.1869,-45.9464 L -17.427,-46.2366 L -17.6289,-46.5547 L -17.7893,-46.8956 L -17.9057,-47.2539 L -17.9763,-47.624
 L -18,-48 L -17.9763,-48.376 L -17.9057,-48.7461 L -17.7893,-49.1044 L -17.6289,-49.4453 L -17.427,-49.7634
 L -17.1869,-50.0536 L -16.9123,-50.3115 L -16.6075,-50.533 L -16.2773,-50.7145 L -15.927,-50.8532 L -15.5621,-50.9469
 L -15.1884,-50.9941 L -14.8116,-50.9941 L -14.4379,-50.9469 L -14.0729,-50.8532 L -13.7227,-50.7145 L -13.3925,-50.533
 L -13.0877,-50.3115 L -12.8131,-50.0536 L -12.5729,-49.7634 L -12.3711,-49.4453 L -12.2107,-49.1044 L -12.0942,-48.7461
 L -12.0237,-48.376 L -12,-48 L -12.0237,-47.624 L -12.0942,-47.2539 L -12.2107,-46.8956 L -12.3711,-46.5547
 L -12.5729,-46.2366 L -12.8131,-45.9464 L -13.0877,-45.6885 L -13.3925,-45.467 L -13.7227,-45.2855 L -14.0729,-45.1468
 L -14.4379,-45.0531 L -14.8116,-45.0059 z
M -0.18837,-45.0059 L -0.562134,-45.0531 L -0.927048,-45.1468 L -1.27733,-45.2855 L -1.60747,-45.467 L -1.91226,-45.6885
 L -2.1869,-45.9464 L -2.42705,-46.2366 L -2.62891,-46.5547 L -2.78932,-46.8956 L -2.90575,-47.2539 L -2.97633,-47.624
 L -3,-48 L -2.97633,-48.376 L -2.90575,-48.7461 L -2.78932,-49.1044 L -2.62891,-49.4453 L -2.42705,-49.7634
 L -2.1869,-50.0536 L -1.91226,-50.3115 L -1.60747,-50.533 L -1.27733,-50.7145 L -0.927048,-50.8532 L -0.562134,-50.9469
 L -0.18837,-50.9941 L 0.18837,-50.9941 L 0.562134,-50.9469 L 0.927048,-50.8532 L 1.27733,-50.7145 L 1.60747,-50.533
 L 1.91226,-50.3115 L 2.1869,-50.0536 L 2.42705,-49.7634 L 2.62891,-49.4453 L 2.78932,-49.1044 L 2.90575,-48.7461
 L 2.97633,-48.376 L 3,-48 L 2.97633,-47.624 L 2.90575,-47.2539 L 2.78932,-46.8956 L 2.62891,-46.5547
 L 2.42705,-46.2366 L 2.1869,-45.9464 L 1.91226,-45.6885 L 1.60747,-45.467 L 1.27733,-45.2855 L 0.927048,-45.1468
 L 0.562134,-45.0531 L 0.18837,-45.0059 z
" stroke="black" fill="lightgray" stroke-width="0.5"/>
</svg>
