  0
SECTION
  2
BLOCKS
  0
ENDSEC
  0
SECTION
  2
ENTITIES
  0
LINE
  8
0
 10
77.9369
 20
-36.9114
 11
78.5451
 21
-36.7553
  0
LINE
  8
0
 10
78.5451
 20
-36.7553
 11
79.1289
 21
-36.5241
  0
LINE
  8
0
 10
79.1289
 20
-36.5241
 11
79.6791
 21
-36.2216
  0
LINE
  8
0
 10
79.6791
 20
-36.2216
 11
80.1871
 21
-35.8526
  0
LINE
  8
0
 10
80.1871
 20
-35.8526
 11
80.6448
 21
-35.4227
  0
LINE
  8
0
 10
80.6448
 20
-35.4227
 11
81.0451
 21
-34.9389
  0
LINE
  8
0
 10
81.0451
 20
-34.9389
 11
81.3815
 21
-34.4088
  0
LINE
  8
0
 10
81.3815
 20
-34.4088
 11
81.6489
 21
-33.8406
  0
LINE
  8
0
 10
81.6489
 20
-33.8406
 11
81.8429
 21
-33.2434
  0
LINE
  8
0
 10
81.8429
 20
-33.2434
 11
81.9606
 21
-32.6267
  0
LINE
  8
0
 10
81.9606
 20
-32.6267
 11
82
 21
-32
  0
LINE
  8
0
 10
82
 20
-32
 11
82
 21
32
  0
LINE
  8
0
 10
82
 20
32
 11
81.9606
 21
32.6267
  0
LINE
  8
0
 10
81.9606
 20
32.6267
 11
81.8429
 21
33.2434
  0
LINE
  8
0
 10
81.8429
 20
33.2434
 11
81.6489
 21
33.8406
  0
LINE
  8
0
 10
81.6489
 20
33.8406
 11
81.3815
 21
34.4088
  0
LINE
  8
0
 10
81.3815
 20
34.4088
 11
81.0451
 21
34.9389
  0
LINE
  8
0
 10
81.0451
 20
34.9389
 11
80.6448
 21
35.4227
  0
LINE
  8
0
 10
80.6448
 20
35.4227
 11
80.1871
 21
35.8526
  0
LINE
  8
0
 10
80.1871
 20
35.8526
 11
79.6791
 21
36.2216
  0
LINE
  8
0
 10
79.6791
 20
36.2216
 11
79.1289
 21
36.5241
  0
LINE
  8
0
 10
79.1289
 20
36.5241
 11
78.5451
 21
36.7553
  0
LINE
  8
0
 10
78.5451
 20
36.7553
 11
77.9369
 21
36.9114
  0
LINE
  8
0
 10
77.9369
 20
36.9114
 11
77.3139
 21
36.9901
  0
LINE
  8
0
 10
77.3139
 20
36.9901
 11
-77.3139
 21
36.9901
  0
LINE
  8
0
 10
-77.3139
 20
36.9901
 11
-77.9369
 21
36.9114
  0
LINE
  8
0
 10
-77.9369
 20
36.9114
 11
-78.5451
 21
36.7553
  0
LINE
  8
0
 10
-78.5451
 20
36.7553
 11
-79.1289
 21
36.5241
  0
LINE
  8
0
 10
-79.1289
 20
36.5241
 11
-79.6791
 21
36.2216
  0
LINE
  8
0
 10
-79.6791
 20
36.2216
 11
-80.1871
 21
35.8526
  0
LINE
  8
0
 10
-80.1871
 20
35.8526
 11
-80.6448
 21
35.4227
  0
LINE
  8
0
 10
-80.6448
 20
35.4227
 11
-81.0451
 21
34.9389
  0
LINE
  8
0
 10
-81.0451
 20
34.9389
 11
-81.3815
 21
34.4088
  0
LINE
  8
0
 10
-81.3815
 20
34.4088
 11
-81.6489
 21
33.8406
  0
LINE
  8
0
 10
-81.6489
 20
33.8406
 11
-81.8429
 21
33.2434
  0
LINE
  8
0
 10
-81.8429
 20
33.2434
 11
-81.9606
 21
32.6267
  0
LINE
  8
0
 10
-81.9606
 20
32.6267
 11
-82
 21
32
  0
LINE
  8
0
 10
-82
 20
32
 11
-82
 21
-32
  0
LINE
  8
0
 10
-82
 20
-32
 11
-81.9606
 21
-32.6267
  0
LINE
  8
0
 10
-81.9606
 20
-32.6267
 11
-81.8429
 21
-33.2434
  0
LINE
  8
0
 10
-81.8429
 20
-33.2434
 11
-81.6489
 21
-33.8406
  0
LINE
  8
0
 10
-81.6489
 20
-33.8406
 11
-81.3815
 21
-34.4088
  0
LINE
  8
0
 10
-81.3815
 20
-34.4088
 11
-81.0451
 21
-34.9389
  0
LINE
  8
0
 10
-81.0451
 20
-34.9389
 11
-80.6448
 21
-35.4227
  0
LINE
  8
0
 10
-80.6448
 20
-35.4227
 11
-80.1871
 21
-35.8526
  0
LINE
  8
0
 10
-80.1871
 20
-35.8526
 11
-79.6791
 21
-36.2216
  0
LINE
  8
0
 10
-79.6791
 20
-36.2216
 11
-79.1289
 21
-36.5241
  0
LINE
  8
0
 10
-79.1289
 20
-36.5241
 11
-78.5451
 21
-36.7553
  0
LINE
  8
0
 10
-78.5451
 20
-36.7553
 11
-77.9369
 21
-36.9114
  0
LINE
  8
0
 10
-77.9369
 20
-36.9114
 11
-77.3139
 21
-36.9901
  0
LINE
  8
0
 10
-77.3139
 20
-36.9901
 11
77.3139
 21
-36.9901
  0
LINE
  8
0
 10
77.3139
 20
-36.9901
 11
77.9369
 21
-36.9114
  0
LINE
  8
0
 10
-75.1884
 20
27.0059
 11
-75.5621
 21
27.0531
  0
LINE
  8
0
 10
-75.5621
 20
27.0531
 11
-75.927
 21
27.1468
  0
LINE
  8
0
 10
-75.927
 20
27.1468
 11
-76.2773
 21
27.2855
  0
LINE
  8
0
 10
-76.2773
 20
27.2855
 11
-76.6075
 21
27.467
  0
LINE
  8
0
 10
-76.6075
 20
27.467
 11
-76.9123
 21
27.6884
  0
LINE
  8
0
 10
-76.9123
 20
27.6884
 11
-77.1869
 21
27.9464
  0
LINE
  8
0
 10
-77.1869
 20
27.9464
 11
-77.427
 21
28.2366
  0
LINE
  8
0
 10
-77.427
 20
28.2366
 11
-77.6289
 21
28.5547
  0
LINE
  8
0
 10
-77.6289
 20
28.5547
 11
-77.7893
 21
28.8956
  0
LINE
  8
0
 10
-77.7893
 20
28.8956
 11
-77.9057
 21
29.2539
  0
LINE
  8
0
 10
-77.9057
 20
29.2539
 11
-77.9763
 21
29.624
  0
LINE
  8
0
 10
-77.9763
 20
29.624
 11
-78
 21
30
  0
LINE
  8
0
 10
-78
 20
30
 11
-77.9763
 21
30.376
  0
LINE
  8
0
 10
-77.9763
 20
30.376
 11
-77.9057
 21
30.7461
  0
LINE
  8
0
 10
-77.9057
 20
30.7461
 11
-77.7893
 21
31.1044
  0
LINE
  8
0
 10
-77.7893
 20
31.1044
 11
-77.6289
 21
31.4453
  0
LINE
  8
0
 10
-77.6289
 20
31.4453
 11
-77.427
 21
31.7634
  0
LINE
  8
0
 10
-77.427
 20
31.7634
 11
-77.1869
 21
32.0536
  0
LINE
  8
0
 10
-77.1869
 20
32.0536
 11
-76.9123
 21
32.3115
  0
LINE
  8
0
 10
-76.9123
 20
32.3115
 11
-76.6075
 21
32.533
  0
LINE
  8
0
 10
-76.6075
 20
32.533
 11
-76.2773
 21
32.7145
  0
LINE
  8
0
 10
-76.2773
 20
32.7145
 11
-75.927
 21
32.8532
  0
LINE
  8
0
 10
-75.927
 20
32.8532
 11
-75.5621
 21
32.9469
  0
LINE
  8
0
 10
-75.5621
 20
32.9469
 11
-75.1884
 21
32.9941
  0
LINE
  8
0
 10
-75.1884
 20
32.9941
 11
-74.8116
 21
32.9941
  0
LINE
  8
0
 10
-74.8116
 20
32.9941
 11
-74.4379
 21
32.9469
  0
LINE
  8
0
 10
-74.4379
 20
32.9469
 11
-74.073
 21
32.8532
  0
LINE
  8
0
 10
-74.073
 20
32.8532
 11
-73.7227
 21
32.7145
  0
LINE
  8
0
 10
-73.7227
 20
32.7145
 11
-73.3925
 21
32.533
  0
LINE
  8
0
 10
-73.3925
 20
32.533
 11
-73.0877
 21
32.3115
  0
LINE
  8
0
 10
-73.0877
 20
32.3115
 11
-72.8131
 21
32.0536
  0
LINE
  8
0
 10
-72.8131
 20
32.0536
 11
-72.573
 21
31.7634
  0
LINE
  8
0
 10
-72.573
 20
31.7634
 11
-72.3711
 21
31.4453
  0
LINE
  8
0
 10
-72.3711
 20
31.4453
 11
-72.2107
 21
31.1044
  0
LINE
  8
0
 10
-72.2107
 20
31.1044
 11
-72.0943
 21
30.7461
  0
LINE
  8
0
 10
-72.0943
 20
30.7461
 11
-72.0237
 21
30.376
  0
LINE
  8
0
 10
-72.0237
 20
30.376
 11
-72
 21
30
  0
LINE
  8
0
 10
-72
 20
30
 11
-72.0237
 21
29.624
  0
LINE
  8
0
 10
-72.0237
 20
29.624
 11
-72.0943
 21
29.2539
  0
LINE
  8
0
 10
-72.0943
 20
29.2539
 11
-72.2107
 21
28.8956
  0
LINE
  8
0
 10
-72.2107
 20
28.8956
 11
-72.3711
 21
28.5547
  0
LINE
  8
0
 10
-72.3711
 20
28.5547
 11
-72.573
 21
28.2366
  0
LINE
  8
0
 10
-72.573
 20
28.2366
 11
-72.8131
 21
27.9464
  0
LINE
  8
0
 10
-72.8131
 20
27.9464
 11
-73.0877
 21
27.6884
  0
LINE
  8
0
 10
-73.0877
 20
27.6884
 11
-73.3925
 21
27.467
  0
LINE
  8
0
 10
-73.3925
 20
27.467
 11
-73.7227
 21
27.2855
  0
LINE
  8
0
 10
-73.7227
 20
27.2855
 11
-74.073
 21
27.1468
  0
LINE
  8
0
 10
-74.073
 20
27.1468
 11
-74.4379
 21
27.0531
  0
LINE
  8
0
 10
-74.4379
 20
27.0531
 11
-74.8116
 21
27.0059
  0
LINE
  8
0
 10
-74.8116
 20
27.0059
 11
-75.1884
 21
27.0059
  0
LINE
  8
0
 10
74.8116
 20
27.0059
 11
74.4379
 21
27.0531
  0
LINE
  8
0
 10
74.4379
 20
27.0531
 11
74.073
 21
27.1468
  0
LINE
  8
0
 10
74.073
 20
27.1468
 11
73.7227
 21
27.2855
  0
LINE
  8
0
 10
73.7227
 20
27.2855
 11
73.3925
 21
27.467
  0
LINE
  8
0
 10
73.3925
 20
27.467
 11
73.0877
 21
27.6884
  0
LINE
  8
0
 10
73.0877
 20
27.6884
 11
72.8131
 21
27.9464
  0
LINE
  8
0
 10
72.8131
 20
27.9464
 11
72.573
 21
28.2366
  0
LINE
  8
0
 10
72.573
 20
28.2366
 11
72.3711
 21
28.5547
  0
LINE
  8
0
 10
72.3711
 20
28.5547
 11
72.2107
 21
28.8956
  0
LINE
  8
0
 10
72.2107
 20
28.8956
 11
72.0943
 21
29.2539
  0
LINE
  8
0
 10
72.0943
 20
29.2539
 11
72.0237
 21
29.624
  0
LINE
  8
0
 10
72.0237
 20
29.624
 11
72
 21
30
  0
LINE
  8
0
 10
72
 20
30
 11
72.0237
 21
30.376
  0
LINE
  8
0
 10
72.0237
 20
30.376
 11
72.0943
 21
30.7461
  0
LINE
  8
0
 10
72.0943
 20
30.7461
 11
72.2107
 21
31.1044
  0
LINE
  8
0
 10
72.2107
 20
31.1044
 11
72.3711
 21
31.4453
  0
LINE
  8
0
 10
72.3711
 20
31.4453
 11
72.573
 21
31.7634
  0
LINE
  8
0
 10
72.573
 20
31.7634
 11
72.8131
 21
32.0536
  0
LINE
  8
0
 10
72.8131
 20
32.0536
 11
73.0877
 21
32.3115
  0
LINE
  8
0
 10
73.0877
 20
32.3115
 11
73.3925
 21
32.533
  0
LINE
  8
0
 10
73.3925
 20
32.533
 11
73.7227
 21
32.7145
  0
LINE
  8
0
 10
73.7227
 20
32.7145
 11
74.073
 21
32.8532
  0
LINE
  8
0
 10
74.073
 20
32.8532
 11
74.4379
 21
32.9469
  0
LINE
  8
0
 10
74.4379
 20
32.9469
 11
74.8116
 21
32.9941
  0
LINE
  8
0
 10
74.8116
 20
32.9941
 11
75.1884
 21
32.9941
  0
LINE
  8
0
 10
75.1884
 20
32.9941
 11
75.5621
 21
32.9469
  0
LINE
  8
0
 10
75.5621
 20
32.9469
 11
75.927
 21
32.8532
  0
LINE
  8
0
 10
75.927
 20
32.8532
 11
76.2773
 21
32.7145
  0
LINE
  8
0
 10
76.2773
 20
32.7145
 11
76.6075
 21
32.533
  0
LINE
  8
0
 10
76.6075
 20
32.533
 11
76.9123
 21
32.3115
  0
LINE
  8
0
 10
76.9123
 20
32.3115
 11
77.1869
 21
32.0536
  0
LINE
  8
0
 10
77.1869
 20
32.0536
 11
77.427
 21
31.7634
  0
LINE
  8
0
 10
77.427
 20
31.7634
 11
77.6289
 21
31.4453
  0
LINE
  8
0
 10
77.6289
 20
31.4453
 11
77.7893
 21
31.1044
  0
LINE
  8
0
 10
77.7893
 20
31.1044
 11
77.9057
 21
30.7461
  0
LINE
  8
0
 10
77.9057
 20
30.7461
 11
77.9763
 21
30.376
  0
LINE
  8
0
 10
77.9763
 20
30.376
 11
78
 21
30
  0
LINE
  8
0
 10
78
 20
30
 11
77.9763
 21
29.624
  0
LINE
  8
0
 10
77.9763
 20
29.624
 11
77.9057
 21
29.2539
  0
LINE
  8
0
 10
77.9057
 20
29.2539
 11
77.7893
 21
28.8956
  0
LINE
  8
0
 10
77.7893
 20
28.8956
 11
77.6289
 21
28.5547
  0
LINE
  8
0
 10
77.6289
 20
28.5547
 11
77.427
 21
28.2366
  0
LINE
  8
0
 10
77.427
 20
28.2366
 11
77.1869
 21
27.9464
  0
LINE
  8
0
 10
77.1869
 20
27.9464
 11
76.9123
 21
27.6884
  0
LINE
  8
0
 10
76.9123
 20
27.6884
 11
76.6075
 21
27.467
  0
LINE
  8
0
 10
76.6075
 20
27.467
 11
76.2773
 21
27.2855
  0
LINE
  8
0
 10
76.2773
 20
27.2855
 11
75.927
 21
27.1468
  0
LINE
  8
0
 10
75.927
 20
27.1468
 11
75.5621
 21
27.0531
  0
LINE
  8
0
 10
75.5621
 20
27.0531
 11
75.1884
 21
27.0059
  0
LINE
  8
0
 10
75.1884
 20
27.0059
 11
74.8116
 21
27.0059
  0
LINE
  8
0
 10
-75.1884
 20
-32.9941
 11
-75.5621
 21
-32.9469
  0
LINE
  8
0
 10
-75.5621
 20
-32.9469
 11
-75.927
 21
-32.8532
  0
LINE
  8
0
 10
-75.927
 20
-32.8532
 11
-76.2773
 21
-32.7145
  0
LINE
  8
0
 10
-76.2773
 20
-32.7145
 11
-76.6075
 21
-32.533
  0
LINE
  8
0
 10
-76.6075
 20
-32.533
 11
-76.9123
 21
-32.3115
  0
LINE
  8
0
 10
-76.9123
 20
-32.3115
 11
-77.1869
 21
-32.0536
  0
LINE
  8
0
 10
-77.1869
 20
-32.0536
 11
-77.427
 21
-31.7634
  0
LINE
  8
0
 10
-77.427
 20
-31.7634
 11
-77.6289
 21
-31.4453
  0
LINE
  8
0
 10
-77.6289
 20
-31.4453
 11
-77.7893
 21
-31.1044
  0
LINE
  8
0
 10
-77.7893
 20
-31.1044
 11
-77.9057
 21
-30.7461
  0
LINE
  8
0
 10
-77.9057
 20
-30.7461
 11
-77.9763
 21
-30.376
  0
LINE
  8
0
 10
-77.9763
 20
-30.376
 11
-78
 21
-30
  0
LINE
  8
0
 10
-78
 20
-30
 11
-77.9763
 21
-29.624
  0
LINE
  8
0
 10
-77.9763
 20
-29.624
 11
-77.9057
 21
-29.2539
  0
LINE
  8
0
 10
-77.9057
 20
-29.2539
 11
-77.7893
 21
-28.8956
  0
LINE
  8
0
 10
-77.7893
 20
-28.8956
 11
-77.6289
 21
-28.5547
  0
LINE
  8
0
 10
-77.6289
 20
-28.5547
 11
-77.427
 21
-28.2366
  0
LINE
  8
0
 10
-77.427
 20
-28.2366
 11
-77.1869
 21
-27.9464
  0
LINE
  8
0
 10
-77.1869
 20
-27.9464
 11
-76.9123
 21
-27.6884
  0
LINE
  8
0
 10
-76.9123
 20
-27.6884
 11
-76.6075
 21
-27.467
  0
LINE
  8
0
 10
-76.6075
 20
-27.467
 11
-76.2773
 21
-27.2855
  0
LINE
  8
0
 10
-76.2773
 20
-27.2855
 11
-75.927
 21
-27.1468
  0
LINE
  8
0
 10
-75.927
 20
-27.1468
 11
-75.5621
 21
-27.0531
  0
LINE
  8
0
 10
-75.5621
 20
-27.0531
 11
-75.1884
 21
-27.0059
  0
LINE
  8
0
 10
-75.1884
 20
-27.0059
 11
-74.8116
 21
-27.0059
  0
LINE
  8
0
 10
-74.8116
 20
-27.0059
 11
-74.4379
 21
-27.0531
  0
LINE
  8
0
 10
-74.4379
 20
-27.0531
 11
-74.073
 21
-27.1468
  0
LINE
  8
0
 10
-74.073
 20
-27.1468
 11
-73.7227
 21
-27.2855
  0
LINE
  8
0
 10
-73.7227
 20
-27.2855
 11
-73.3925
 21
-27.467
  0
LINE
  8
0
 10
-73.3925
 20
-27.467
 11
-73.0877
 21
-27.6884
  0
LINE
  8
0
 10
-73.0877
 20
-27.6884
 11
-72.8131
 21
-27.9464
  0
LINE
  8
0
 10
-72.8131
 20
-27.9464
 11
-72.573
 21
-28.2366
  0
LINE
  8
0
 10
-72.573
 20
-28.2366
 11
-72.3711
 21
-28.5547
  0
LINE
  8
0
 10
-72.3711
 20
-28.5547
 11
-72.2107
 21
-28.8956
  0
LINE
  8
0
 10
-72.2107
 20
-28.8956
 11
-72.0943
 21
-29.2539
  0
LINE
  8
0
 10
-72.0943
 20
-29.2539
 11
-72.0237
 21
-29.624
  0
LINE
  8
0
 10
-72.0237
 20
-29.624
 11
-72
 21
-30
  0
LINE
  8
0
 10
-72
 20
-30
 11
-72.0237
 21
-30.376
  0
LINE
  8
0
 10
-72.0237
 20
-30.376
 11
-72.0943
 21
-30.7461
  0
LINE
  8
0
 10
-72.0943
 20
-30.7461
 11
-72.2107
 21
-31.1044
  0
LINE
  8
0
 10
-72.2107
 20
-31.1044
 11
-72.3711
 21
-31.4453
  0
LINE
  8
0
 10
-72.3711
 20
-31.4453
 11
-72.573
 21
-31.7634
  0
LINE
  8
0
 10
-72.573
 20
-31.7634
 11
-72.8131
 21
-32.0536
  0
LINE
  8
0
 10
-72.8131
 20
-32.0536
 11
-73.0877
 21
-32.3115
  0
LINE
  8
0
 10
-73.0877
 20
-32.3115
 11
-73.3925
 21
-32.533
  0
LINE
  8
0
 10
-73.3925
 20
-32.533
 11
-73.7227
 21
-32.7145
  0
LINE
  8
0
 10
-73.7227
 20
-32.7145
 11
-74.073
 21
-32.8532
  0
LINE
  8
0
 10
-74.073
 20
-32.8532
 11
-74.4379
 21
-32.9469
  0
LINE
  8
0
 10
-74.4379
 20
-32.9469
 11
-74.8116
 21
-32.9941
  0
LINE
  8
0
 10
-74.8116
 20
-32.9941
 11
-75.1884
 21
-32.9941
  0
LINE
  8
0
 10
74.8116
 20
-32.9941
 11
74.4379
 21
-32.9469
  0
LINE
  8
0
 10
74.4379
 20
-32.9469
 11
74.073
 21
-32.8532
  0
LINE
  8
0
 10
74.073
 20
-32.8532
 11
73.7227
 21
-32.7145
  0
LINE
  8
0
 10
73.7227
 20
-32.7145
 11
73.3925
 21
-32.533
  0
LINE
  8
0
 10
73.3925
 20
-32.533
 11
73.0877
 21
-32.3115
  0
LINE
  8
0
 10
73.0877
 20
-32.3115
 11
72.8131
 21
-32.0536
  0
LINE
  8
0
 10
72.8131
 20
-32.0536
 11
72.573
 21
-31.7634
  0
LINE
  8
0
 10
72.573
 20
-31.7634
 11
72.3711
 21
-31.4453
  0
LINE
  8
0
 10
72.3711
 20
-31.4453
 11
72.2107
 21
-31.1044
  0
LINE
  8
0
 10
72.2107
 20
-31.1044
 11
72.0943
 21
-30.7461
  0
LINE
  8
0
 10
72.0943
 20
-30.7461
 11
72.0237
 21
-30.376
  0
LINE
  8
0
 10
72.0237
 20
-30.376
 11
72
 21
-30
  0
LINE
  8
0
 10
72
 20
-30
 11
72.0237
 21
-29.624
  0
LINE
  8
0
 10
72.0237
 20
-29.624
 11
72.0943
 21
-29.2539
  0
LINE
  8
0
 10
72.0943
 20
-29.2539
 11
72.2107
 21
-28.8956
  0
LINE
  8
0
 10
72.2107
 20
-28.8956
 11
72.3711
 21
-28.5547
  0
LINE
  8
0
 10
72.3711
 20
-28.5547
 11
72.573
 21
-28.2366
  0
LINE
  8
0
 10
72.573
 20
-28.2366
 11
72.8131
 21
-27.9464
  0
LINE
  8
0
 10
72.8131
 20
-27.9464
 11
73.0877
 21
-27.6884
  0
LINE
  8
0
 10
73.0877
 20
-27.6884
 11
73.3925
 21
-27.467
  0
LINE
  8
0
 10
73.3925
 20
-27.467
 11
73.7227
 21
-27.2855
  0
LINE
  8
0
 10
73.7227
 20
-27.2855
 11
74.073
 21
-27.1468
  0
LINE
  8
0
 10
74.073
 20
-27.1468
 11
74.4379
 21
-27.0531
  0
LINE
  8
0
 10
74.4379
 20
-27.0531
 11
74.8116
 21
-27.0059
  0
LINE
  8
0
 10
74.8116
 20
-27.0059
 11
75.1884
 21
-27.0059
  0
LINE
  8
0
 10
75.1884
 20
-27.0059
 11
75.5621
 21
-27.0531
  0
LINE
  8
0
 10
75.5621
 20
-27.0531
 11
75.927
 21
-27.1468
  0
LINE
  8
0
 10
75.927
 20
-27.1468
 11
76.2773
 21
-27.2855
  0
LINE
  8
0
 10
76.2773
 20
-27.2855
 11
76.6075
 21
-27.467
  0
LINE
  8
0
 10
76.6075
 20
-27.467
 11
76.9123
 21
-27.6884
  0
LINE
  8
0
 10
76.9123
 20
-27.6884
 11
77.1869
 21
-27.9464
  0
LINE
  8
0
 10
77.1869
 20
-27.9464
 11
77.427
 21
-28.2366
  0
LINE
  8
0
 10
77.427
 20
-28.2366
 11
77.6289
 21
-28.5547
  0
LINE
  8
0
 10
77.6289
 20
-28.5547
 11
77.7893
 21
-28.8956
  0
LINE
  8
0
 10
77.7893
 20
-28.8956
 11
77.9057
 21
-29.2539
  0
LINE
  8
0
 10
77.9057
 20
-29.2539
 11
77.9763
 21
-29.624
  0
LINE
  8
0
 10
77.9763
 20
-29.624
 11
78
 21
-30
  0
LINE
  8
0
 10
78
 20
-30
 11
77.9763
 21
-30.376
  0
LINE
  8
0
 10
77.9763
 20
-30.376
 11
77.9057
 21
-30.7461
  0
LINE
  8
0
 10
77.9057
 20
-30.7461
 11
77.7893
 21
-31.1044
  0
LINE
  8
0
 10
77.7893
 20
-31.1044
 11
77.6289
 21
-31.4453
  0
LINE
  8
0
 10
77.6289
 20
-31.4453
 11
77.427
 21
-31.7634
  0
LINE
  8
0
 10
77.427
 20
-31.7634
 11
77.1869
 21
-32.0536
  0
LINE
  8
0
 10
77.1869
 20
-32.0536
 11
76.9123
 21
-32.3115
  0
LINE
  8
0
 10
76.9123
 20
-32.3115
 11
76.6075
 21
-32.533
  0
LINE
  8
0
 10
76.6075
 20
-32.533
 11
76.2773
 21
-32.7145
  0
LINE
  8
0
 10
76.2773
 20
-32.7145
 11
75.927
 21
-32.8532
  0
LINE
  8
0
 10
75.927
 20
-32.8532
 11
75.5621
 21
-32.9469
  0
LINE
  8
0
 10
75.5621
 20
-32.9469
 11
75.1884
 21
-32.9941
  0
LINE
  8
0
 10
75.1884
 20
-32.9941
 11
74.8116
 21
-32.9941
  0
ENDSEC
  0
SECTION
  2
OBJECTS
  0
DICTIONARY
  0
ENDSEC
  0
EOF
