  0
SECTION
  2
BLOCKS
  0
ENDSEC
  0
SECTION
  2
ENTITIES
  0
LINE
  8
0
 10
107.937
 20
-104.411
 11
108.545
 21
-104.255
  0
LINE
  8
0
 10
108.545
 20
-104.255
 11
109.129
 21
-104.024
  0
LINE
  8
0
 10
109.129
 20
-104.024
 11
109.679
 21
-103.722
  0
LINE
  8
0
 10
109.679
 20
-103.722
 11
110.187
 21
-103.353
  0
LINE
  8
0
 10
110.187
 20
-103.353
 11
110.645
 21
-102.923
  0
LINE
  8
0
 10
110.645
 20
-102.923
 11
111.045
 21
-102.439
  0
LINE
  8
0
 10
111.045
 20
-102.439
 11
111.382
 21
-101.909
  0
LINE
  8
0
 10
111.382
 20
-101.909
 11
111.649
 21
-101.341
  0
LINE
  8
0
 10
111.649
 20
-101.341
 11
111.843
 21
-100.743
  0
LINE
  8
0
 10
111.843
 20
-100.743
 11
111.961
 21
-100.127
  0
LINE
  8
0
 10
111.961
 20
-100.127
 11
112
 21
-99.5
  0
LINE
  8
0
 10
112
 20
-99.5
 11
112
 21
99.5
  0
LINE
  8
0
 10
112
 20
99.5
 11
111.961
 21
100.127
  0
LINE
  8
0
 10
111.961
 20
100.127
 11
111.843
 21
100.743
  0
LINE
  8
0
 10
111.843
 20
100.743
 11
111.649
 21
101.341
  0
LINE
  8
0
 10
111.649
 20
101.341
 11
111.382
 21
101.909
  0
LINE
  8
0
 10
111.382
 20
101.909
 11
111.045
 21
102.439
  0
LINE
  8
0
 10
111.045
 20
102.439
 11
110.645
 21
102.923
  0
LINE
  8
0
 10
110.645
 20
102.923
 11
110.187
 21
103.353
  0
LINE
  8
0
 10
110.187
 20
103.353
 11
109.679
 21
103.722
  0
LINE
  8
0
 10
109.679
 20
103.722
 11
109.129
 21
104.024
  0
LINE
  8
0
 10
109.129
 20
104.024
 11
108.545
 21
104.255
  0
LINE
  8
0
 10
108.545
 20
104.255
 11
107.937
 21
104.411
  0
LINE
  8
0
 10
107.937
 20
104.411
 11
107.314
 21
104.49
  0
LINE
  8
0
 10
107.314
 20
104.49
 11
-107.314
 21
104.49
  0
LINE
  8
0
 10
-107.314
 20
104.49
 11
-107.937
 21
104.411
  0
LINE
  8
0
 10
-107.937
 20
104.411
 11
-108.545
 21
104.255
  0
LINE
  8
0
 10
-108.545
 20
104.255
 11
-109.129
 21
104.024
  0
LINE
  8
0
 10
-109.129
 20
104.024
 11
-109.679
 21
103.722
  0
LINE
  8
0
 10
-109.679
 20
103.722
 11
-110.187
 21
103.353
  0
LINE
  8
0
 10
-110.187
 20
103.353
 11
-110.645
 21
102.923
  0
LINE
  8
0
 10
-110.645
 20
102.923
 11
-111.045
 21
102.439
  0
LINE
  8
0
 10
-111.045
 20
102.439
 11
-111.382
 21
101.909
  0
LINE
  8
0
 10
-111.382
 20
101.909
 11
-111.649
 21
101.341
  0
LINE
  8
0
 10
-111.649
 20
101.341
 11
-111.843
 21
100.743
  0
LINE
  8
0
 10
-111.843
 20
100.743
 11
-111.961
 21
100.127
  0
LINE
  8
0
 10
-111.961
 20
100.127
 11
-112
 21
99.5
  0
LINE
  8
0
 10
-112
 20
99.5
 11
-112
 21
-99.5
  0
LINE
  8
0
 10
-112
 20
-99.5
 11
-111.961
 21
-100.127
  0
LINE
  8
0
 10
-111.961
 20
-100.127
 11
-111.843
 21
-100.743
  0
LINE
  8
0
 10
-111.843
 20
-100.743
 11
-111.649
 21
-101.341
  0
LINE
  8
0
 10
-111.649
 20
-101.341
 11
-111.382
 21
-101.909
  0
LINE
  8
0
 10
-111.382
 20
-101.909
 11
-111.045
 21
-102.439
  0
LINE
  8
0
 10
-111.045
 20
-102.439
 11
-110.645
 21
-102.923
  0
LINE
  8
0
 10
-110.645
 20
-102.923
 11
-110.187
 21
-103.353
  0
LINE
  8
0
 10
-110.187
 20
-103.353
 11
-109.679
 21
-103.722
  0
LINE
  8
0
 10
-109.679
 20
-103.722
 11
-109.129
 21
-104.024
  0
LINE
  8
0
 10
-109.129
 20
-104.024
 11
-108.545
 21
-104.255
  0
LINE
  8
0
 10
-108.545
 20
-104.255
 11
-107.937
 21
-104.411
  0
LINE
  8
0
 10
-107.937
 20
-104.411
 11
-107.314
 21
-104.49
  0
LINE
  8
0
 10
-107.314
 20
-104.49
 11
107.314
 21
-104.49
  0
LINE
  8
0
 10
107.314
 20
-104.49
 11
107.937
 21
-104.411
  0
LINE
  8
0
 10
104.812
 20
94.5059
 11
104.438
 21
94.5531
  0
LINE
  8
0
 10
104.438
 20
94.5531
 11
104.073
 21
94.6468
  0
LINE
  8
0
 10
104.073
 20
94.6468
 11
103.723
 21
94.7855
  0
LINE
  8
0
 10
103.723
 20
94.7855
 11
103.393
 21
94.967
  0
LINE
  8
0
 10
103.393
 20
94.967
 11
103.088
 21
95.1885
  0
LINE
  8
0
 10
103.088
 20
95.1885
 11
102.813
 21
95.4464
  0
LINE
  8
0
 10
102.813
 20
95.4464
 11
102.573
 21
95.7366
  0
LINE
  8
0
 10
102.573
 20
95.7366
 11
102.371
 21
96.0547
  0
LINE
  8
0
 10
102.371
 20
96.0547
 11
102.211
 21
96.3956
  0
LINE
  8
0
 10
102.211
 20
96.3956
 11
102.094
 21
96.7539
  0
LINE
  8
0
 10
102.094
 20
96.7539
 11
102.024
 21
97.124
  0
LINE
  8
0
 10
102.024
 20
97.124
 11
102
 21
97.5
  0
LINE
  8
0
 10
102
 20
97.5
 11
102.024
 21
97.876
  0
LINE
  8
0
 10
102.024
 20
97.876
 11
102.094
 21
98.2461
  0
LINE
  8
0
 10
102.094
 20
98.2461
 11
102.211
 21
98.6044
  0
LINE
  8
0
 10
102.211
 20
98.6044
 11
102.371
 21
98.9453
  0
LINE
  8
0
 10
102.371
 20
98.9453
 11
102.573
 21
99.2634
  0
LINE
  8
0
 10
102.573
 20
99.2634
 11
102.813
 21
99.5536
  0
LINE
  8
0
 10
102.813
 20
99.5536
 11
103.088
 21
99.8115
  0
LINE
  8
0
 10
103.088
 20
99.8115
 11
103.393
 21
100.033
  0
LINE
  8
0
 10
103.393
 20
100.033
 11
103.723
 21
100.214
  0
LINE
  8
0
 10
103.723
 20
100.214
 11
104.073
 21
100.353
  0
LINE
  8
0
 10
104.073
 20
100.353
 11
104.438
 21
100.447
  0
LINE
  8
0
 10
104.438
 20
100.447
 11
104.812
 21
100.494
  0
LINE
  8
0
 10
104.812
 20
100.494
 11
105.188
 21
100.494
  0
LINE
  8
0
 10
105.188
 20
100.494
 11
105.562
 21
100.447
  0
LINE
  8
0
 10
105.562
 20
100.447
 11
105.927
 21
100.353
  0
LINE
  8
0
 10
105.927
 20
100.353
 11
106.277
 21
100.214
  0
LINE
  8
0
 10
106.277
 20
100.214
 11
106.607
 21
100.033
  0
LINE
  8
0
 10
106.607
 20
100.033
 11
106.912
 21
99.8115
  0
LINE
  8
0
 10
106.912
 20
99.8115
 11
107.187
 21
99.5536
  0
LINE
  8
0
 10
107.187
 20
99.5536
 11
107.427
 21
99.2634
  0
LINE
  8
0
 10
107.427
 20
99.2634
 11
107.629
 21
98.9453
  0
LINE
  8
0
 10
107.629
 20
98.9453
 11
107.789
 21
98.6044
  0
LINE
  8
0
 10
107.789
 20
98.6044
 11
107.906
 21
98.2461
  0
LINE
  8
0
 10
107.906
 20
98.2461
 11
107.976
 21
97.876
  0
LINE
  8
0
 10
107.976
 20
97.876
 11
108
 21
97.5
  0
LINE
  8
0
 10
108
 20
97.5
 11
107.976
 21
97.124
  0
LINE
  8
0
 10
107.976
 20
97.124
 11
107.906
 21
96.7539
  0
LINE
  8
0
 10
107.906
 20
96.7539
 11
107.789
 21
96.3956
  0
LINE
  8
0
 10
107.789
 20
96.3956
 11
107.629
 21
96.0547
  0
LINE
  8
0
 10
107.629
 20
96.0547
 11
107.427
 21
95.7366
  0
LINE
  8
0
 10
107.427
 20
95.7366
 11
107.187
 21
95.4464
  0
LINE
  8
0
 10
107.187
 20
95.4464
 11
106.912
 21
95.1885
  0
LINE
  8
0
 10
106.912
 20
95.1885
 11
106.607
 21
94.967
  0
LINE
  8
0
 10
106.607
 20
94.967
 11
106.277
 21
94.7855
  0
LINE
  8
0
 10
106.277
 20
94.7855
 11
105.927
 21
94.6468
  0
LINE
  8
0
 10
105.927
 20
94.6468
 11
105.562
 21
94.5531
  0
LINE
  8
0
 10
105.562
 20
94.5531
 11
105.188
 21
94.5059
  0
LINE
  8
0
 10
105.188
 20
94.5059
 11
104.812
 21
94.5059
  0
LINE
  8
0
 10
-105.188
 20
94.5059
 11
-105.562
 21
94.5531
  0
LINE
  8
0
 10
-105.562
 20
94.5531
 11
-105.927
 21
94.6468
  0
LINE
  8
0
 10
-105.927
 20
94.6468
 11
-106.277
 21
94.7855
  0
LINE
  8
0
 10
-106.277
 20
94.7855
 11
-106.607
 21
94.967
  0
LINE
  8
0
 10
-106.607
 20
94.967
 11
-106.912
 21
95.1885
  0
LINE
  8
0
 10
-106.912
 20
95.1885
 11
-107.187
 21
95.4464
  0
LINE
  8
0
 10
-107.187
 20
95.4464
 11
-107.427
 21
95.7366
  0
LINE
  8
0
 10
-107.427
 20
95.7366
 11
-107.629
 21
96.0547
  0
LINE
  8
0
 10
-107.629
 20
96.0547
 11
-107.789
 21
96.3956
  0
LINE
  8
0
 10
-107.789
 20
96.3956
 11
-107.906
 21
96.7539
  0
LINE
  8
0
 10
-107.906
 20
96.7539
 11
-107.976
 21
97.124
  0
LINE
  8
0
 10
-107.976
 20
97.124
 11
-108
 21
97.5
  0
LINE
  8
0
 10
-108
 20
97.5
 11
-107.976
 21
97.876
  0
LINE
  8
0
 10
-107.976
 20
97.876
 11
-107.906
 21
98.2461
  0
LINE
  8
0
 10
-107.906
 20
98.2461
 11
-107.789
 21
98.6044
  0
LINE
  8
0
 10
-107.789
 20
98.6044
 11
-107.629
 21
98.9453
  0
LINE
  8
0
 10
-107.629
 20
98.9453
 11
-107.427
 21
99.2634
  0
LINE
  8
0
 10
-107.427
 20
99.2634
 11
-107.187
 21
99.5536
  0
LINE
  8
0
 10
-107.187
 20
99.5536
 11
-106.912
 21
99.8115
  0
LINE
  8
0
 10
-106.912
 20
99.8115
 11
-106.607
 21
100.033
  0
LINE
  8
0
 10
-106.607
 20
100.033
 11
-106.277
 21
100.214
  0
LINE
  8
0
 10
-106.277
 20
100.214
 11
-105.927
 21
100.353
  0
LINE
  8
0
 10
-105.927
 20
100.353
 11
-105.562
 21
100.447
  0
LINE
  8
0
 10
-105.562
 20
100.447
 11
-105.188
 21
100.494
  0
LINE
  8
0
 10
-105.188
 20
100.494
 11
-104.812
 21
100.494
  0
LINE
  8
0
 10
-104.812
 20
100.494
 11
-104.438
 21
100.447
  0
LINE
  8
0
 10
-104.438
 20
100.447
 11
-104.073
 21
100.353
  0
LINE
  8
0
 10
-104.073
 20
100.353
 11
-103.723
 21
100.214
  0
LINE
  8
0
 10
-103.723
 20
100.214
 11
-103.393
 21
100.033
  0
LINE
  8
0
 10
-103.393
 20
100.033
 11
-103.088
 21
99.8115
  0
LINE
  8
0
 10
-103.088
 20
99.8115
 11
-102.813
 21
99.5536
  0
LINE
  8
0
 10
-102.813
 20
99.5536
 11
-102.573
 21
99.2634
  0
LINE
  8
0
 10
-102.573
 20
99.2634
 11
-102.371
 21
98.9453
  0
LINE
  8
0
 10
-102.371
 20
98.9453
 11
-102.211
 21
98.6044
  0
LINE
  8
0
 10
-102.211
 20
98.6044
 11
-102.094
 21
98.2461
  0
LINE
  8
0
 10
-102.094
 20
98.2461
 11
-102.024
 21
97.876
  0
LINE
  8
0
 10
-102.024
 20
97.876
 11
-102
 21
97.5
  0
LINE
  8
0
 10
-102
 20
97.5
 11
-102.024
 21
97.124
  0
LINE
  8
0
 10
-102.024
 20
97.124
 11
-102.094
 21
96.7539
  0
LINE
  8
0
 10
-102.094
 20
96.7539
 11
-102.211
 21
96.3956
  0
LINE
  8
0
 10
-102.211
 20
96.3956
 11
-102.371
 21
96.0547
  0
LINE
  8
0
 10
-102.371
 20
96.0547
 11
-102.573
 21
95.7366
  0
LINE
  8
0
 10
-102.573
 20
95.7366
 11
-102.813
 21
95.4464
  0
LINE
  8
0
 10
-102.813
 20
95.4464
 11
-103.088
 21
95.1885
  0
LINE
  8
0
 10
-103.088
 20
95.1885
 11
-103.393
 21
94.967
  0
LINE
  8
0
 10
-103.393
 20
94.967
 11
-103.723
 21
94.7855
  0
LINE
  8
0
 10
-103.723
 20
94.7855
 11
-104.073
 21
94.6468
  0
LINE
  8
0
 10
-104.073
 20
94.6468
 11
-104.438
 21
94.5531
  0
LINE
  8
0
 10
-104.438
 20
94.5531
 11
-104.812
 21
94.5059
  0
LINE
  8
0
 10
-104.812
 20
94.5059
 11
-105.188
 21
94.5059
  0
LINE
  8
0
 10
104.812
 20
-100.494
 11
104.438
 21
-100.447
  0
LINE
  8
0
 10
104.438
 20
-100.447
 11
104.073
 21
-100.353
  0
LINE
  8
0
 10
104.073
 20
-100.353
 11
103.723
 21
-100.214
  0
LINE
  8
0
 10
103.723
 20
-100.214
 11
103.393
 21
-100.033
  0
LINE
  8
0
 10
103.393
 20
-100.033
 11
103.088
 21
-99.8115
  0
LINE
  8
0
 10
103.088
 20
-99.8115
 11
102.813
 21
-99.5536
  0
LINE
  8
0
 10
102.813
 20
-99.5536
 11
102.573
 21
-99.2634
  0
LINE
  8
0
 10
102.573
 20
-99.2634
 11
102.371
 21
-98.9453
  0
LINE
  8
0
 10
102.371
 20
-98.9453
 11
102.211
 21
-98.6044
  0
LINE
  8
0
 10
102.211
 20
-98.6044
 11
102.094
 21
-98.2461
  0
LINE
  8
0
 10
102.094
 20
-98.2461
 11
102.024
 21
-97.876
  0
LINE
  8
0
 10
102.024
 20
-97.876
 11
102
 21
-97.5
  0
LINE
  8
0
 10
102
 20
-97.5
 11
102.024
 21
-97.124
  0
LINE
  8
0
 10
102.024
 20
-97.124
 11
102.094
 21
-96.7539
  0
LINE
  8
0
 10
102.094
 20
-96.7539
 11
102.211
 21
-96.3956
  0
LINE
  8
0
 10
102.211
 20
-96.3956
 11
102.371
 21
-96.0547
  0
LINE
  8
0
 10
102.371
 20
-96.0547
 11
102.573
 21
-95.7366
  0
LINE
  8
0
 10
102.573
 20
-95.7366
 11
102.813
 21
-95.4464
  0
LINE
  8
0
 10
102.813
 20
-95.4464
 11
103.088
 21
-95.1885
  0
LINE
  8
0
 10
103.088
 20
-95.1885
 11
103.393
 21
-94.967
  0
LINE
  8
0
 10
103.393
 20
-94.967
 11
103.723
 21
-94.7855
  0
LINE
  8
0
 10
103.723
 20
-94.7855
 11
104.073
 21
-94.6468
  0
LINE
  8
0
 10
104.073
 20
-94.6468
 11
104.438
 21
-94.5531
  0
LINE
  8
0
 10
104.438
 20
-94.5531
 11
104.812
 21
-94.5059
  0
LINE
  8
0
 10
104.812
 20
-94.5059
 11
105.188
 21
-94.5059
  0
LINE
  8
0
 10
105.188
 20
-94.5059
 11
105.562
 21
-94.5531
  0
LINE
  8
0
 10
105.562
 20
-94.5531
 11
105.927
 21
-94.6468
  0
LINE
  8
0
 10
105.927
 20
-94.6468
 11
106.277
 21
-94.7855
  0
LINE
  8
0
 10
106.277
 20
-94.7855
 11
106.607
 21
-94.967
  0
LINE
  8
0
 10
106.607
 20
-94.967
 11
106.912
 21
-95.1885
  0
LINE
  8
0
 10
106.912
 20
-95.1885
 11
107.187
 21
-95.4464
  0
LINE
  8
0
 10
107.187
 20
-95.4464
 11
107.427
 21
-95.7366
  0
LINE
  8
0
 10
107.427
 20
-95.7366
 11
107.629
 21
-96.0547
  0
LINE
  8
0
 10
107.629
 20
-96.0547
 11
107.789
 21
-96.3956
  0
LINE
  8
0
 10
107.789
 20
-96.3956
 11
107.906
 21
-96.7539
  0
LINE
  8
0
 10
107.906
 20
-96.7539
 11
107.976
 21
-97.124
  0
LINE
  8
0
 10
107.976
 20
-97.124
 11
108
 21
-97.5
  0
LINE
  8
0
 10
108
 20
-97.5
 11
107.976
 21
-97.876
  0
LINE
  8
0
 10
107.976
 20
-97.876
 11
107.906
 21
-98.2461
  0
LINE
  8
0
 10
107.906
 20
-98.2461
 11
107.789
 21
-98.6044
  0
LINE
  8
0
 10
107.789
 20
-98.6044
 11
107.629
 21
-98.9453
  0
LINE
  8
0
 10
107.629
 20
-98.9453
 11
107.427
 21
-99.2634
  0
LINE
  8
0
 10
107.427
 20
-99.2634
 11
107.187
 21
-99.5536
  0
LINE
  8
0
 10
107.187
 20
-99.5536
 11
106.912
 21
-99.8115
  0
LINE
  8
0
 10
106.912
 20
-99.8115
 11
106.607
 21
-100.033
  0
LINE
  8
0
 10
106.607
 20
-100.033
 11
106.277
 21
-100.214
  0
LINE
  8
0
 10
106.277
 20
-100.214
 11
105.927
 21
-100.353
  0
LINE
  8
0
 10
105.927
 20
-100.353
 11
105.562
 21
-100.447
  0
LINE
  8
0
 10
105.562
 20
-100.447
 11
105.188
 21
-100.494
  0
LINE
  8
0
 10
105.188
 20
-100.494
 11
104.812
 21
-100.494
  0
LINE
  8
0
 10
-105.188
 20
-100.494
 11
-105.562
 21
-100.447
  0
LINE
  8
0
 10
-105.562
 20
-100.447
 11
-105.927
 21
-100.353
  0
LINE
  8
0
 10
-105.927
 20
-100.353
 11
-106.277
 21
-100.214
  0
LINE
  8
0
 10
-106.277
 20
-100.214
 11
-106.607
 21
-100.033
  0
LINE
  8
0
 10
-106.607
 20
-100.033
 11
-106.912
 21
-99.8115
  0
LINE
  8
0
 10
-106.912
 20
-99.8115
 11
-107.187
 21
-99.5536
  0
LINE
  8
0
 10
-107.187
 20
-99.5536
 11
-107.427
 21
-99.2634
  0
LINE
  8
0
 10
-107.427
 20
-99.2634
 11
-107.629
 21
-98.9453
  0
LINE
  8
0
 10
-107.629
 20
-98.9453
 11
-107.789
 21
-98.6044
  0
LINE
  8
0
 10
-107.789
 20
-98.6044
 11
-107.906
 21
-98.2461
  0
LINE
  8
0
 10
-107.906
 20
-98.2461
 11
-107.976
 21
-97.876
  0
LINE
  8
0
 10
-107.976
 20
-97.876
 11
-108
 21
-97.5
  0
LINE
  8
0
 10
-108
 20
-97.5
 11
-107.976
 21
-97.124
  0
LINE
  8
0
 10
-107.976
 20
-97.124
 11
-107.906
 21
-96.7539
  0
LINE
  8
0
 10
-107.906
 20
-96.7539
 11
-107.789
 21
-96.3956
  0
LINE
  8
0
 10
-107.789
 20
-96.3956
 11
-107.629
 21
-96.0547
  0
LINE
  8
0
 10
-107.629
 20
-96.0547
 11
-107.427
 21
-95.7366
  0
LINE
  8
0
 10
-107.427
 20
-95.7366
 11
-107.187
 21
-95.4464
  0
LINE
  8
0
 10
-107.187
 20
-95.4464
 11
-106.912
 21
-95.1885
  0
LINE
  8
0
 10
-106.912
 20
-95.1885
 11
-106.607
 21
-94.967
  0
LINE
  8
0
 10
-106.607
 20
-94.967
 11
-106.277
 21
-94.7855
  0
LINE
  8
0
 10
-106.277
 20
-94.7855
 11
-105.927
 21
-94.6468
  0
LINE
  8
0
 10
-105.927
 20
-94.6468
 11
-105.562
 21
-94.5531
  0
LINE
  8
0
 10
-105.562
 20
-94.5531
 11
-105.188
 21
-94.5059
  0
LINE
  8
0
 10
-105.188
 20
-94.5059
 11
-104.812
 21
-94.5059
  0
LINE
  8
0
 10
-104.812
 20
-94.5059
 11
-104.438
 21
-94.5531
  0
LINE
  8
0
 10
-104.438
 20
-94.5531
 11
-104.073
 21
-94.6468
  0
LINE
  8
0
 10
-104.073
 20
-94.6468
 11
-103.723
 21
-94.7855
  0
LINE
  8
0
 10
-103.723
 20
-94.7855
 11
-103.393
 21
-94.967
  0
LINE
  8
0
 10
-103.393
 20
-94.967
 11
-103.088
 21
-95.1885
  0
LINE
  8
0
 10
-103.088
 20
-95.1885
 11
-102.813
 21
-95.4464
  0
LINE
  8
0
 10
-102.813
 20
-95.4464
 11
-102.573
 21
-95.7366
  0
LINE
  8
0
 10
-102.573
 20
-95.7366
 11
-102.371
 21
-96.0547
  0
LINE
  8
0
 10
-102.371
 20
-96.0547
 11
-102.211
 21
-96.3956
  0
LINE
  8
0
 10
-102.211
 20
-96.3956
 11
-102.094
 21
-96.7539
  0
LINE
  8
0
 10
-102.094
 20
-96.7539
 11
-102.024
 21
-97.124
  0
LINE
  8
0
 10
-102.024
 20
-97.124
 11
-102
 21
-97.5
  0
LINE
  8
0
 10
-102
 20
-97.5
 11
-102.024
 21
-97.876
  0
LINE
  8
0
 10
-102.024
 20
-97.876
 11
-102.094
 21
-98.2461
  0
LINE
  8
0
 10
-102.094
 20
-98.2461
 11
-102.211
 21
-98.6044
  0
LINE
  8
0
 10
-102.211
 20
-98.6044
 11
-102.371
 21
-98.9453
  0
LINE
  8
0
 10
-102.371
 20
-98.9453
 11
-102.573
 21
-99.2634
  0
LINE
  8
0
 10
-102.573
 20
-99.2634
 11
-102.813
 21
-99.5536
  0
LINE
  8
0
 10
-102.813
 20
-99.5536
 11
-103.088
 21
-99.8115
  0
LINE
  8
0
 10
-103.088
 20
-99.8115
 11
-103.393
 21
-100.033
  0
LINE
  8
0
 10
-103.393
 20
-100.033
 11
-103.723
 21
-100.214
  0
LINE
  8
0
 10
-103.723
 20
-100.214
 11
-104.073
 21
-100.353
  0
LINE
  8
0
 10
-104.073
 20
-100.353
 11
-104.438
 21
-100.447
  0
LINE
  8
0
 10
-104.438
 20
-100.447
 11
-104.812
 21
-100.494
  0
LINE
  8
0
 10
-104.812
 20
-100.494
 11
-105.188
 21
-100.494
  0
ENDSEC
  0
SECTION
  2
OBJECTS
  0
DICTIONARY
  0
ENDSEC
  0
EOF
