  0
SECTION
  2
BLOCKS
  0
ENDSEC
  0
SECTION
  2
ENTITIES
  0
LINE
  8
0
 10
32.9369
 20
215.089
 11
33.5451
 21
215.245
  0
LINE
  8
0
 10
33.5451
 20
215.245
 11
34.1289
 21
215.476
  0
LINE
  8
0
 10
34.1289
 20
215.476
 11
34.6791
 21
215.778
  0
LINE
  8
0
 10
34.6791
 20
215.778
 11
35.1871
 21
216.147
  0
LINE
  8
0
 10
35.1871
 20
216.147
 11
35.6448
 21
216.577
  0
LINE
  8
0
 10
35.6448
 20
216.577
 11
36.0451
 21
217.061
  0
LINE
  8
0
 10
36.0451
 20
217.061
 11
36.3815
 21
217.591
  0
LINE
  8
0
 10
36.3815
 20
217.591
 11
36.6489
 21
218.159
  0
LINE
  8
0
 10
36.6489
 20
218.159
 11
36.8429
 21
218.757
  0
LINE
  8
0
 10
36.8429
 20
218.757
 11
36.9606
 21
219.373
  0
LINE
  8
0
 10
36.9606
 20
219.373
 11
37
 21
220
  0
LINE
  8
0
 10
37
 20
220
 11
37
 21
284
  0
LINE
  8
0
 10
37
 20
284
 11
36.9606
 21
284.627
  0
LINE
  8
0
 10
36.9606
 20
284.627
 11
36.8429
 21
285.243
  0
LINE
  8
0
 10
36.8429
 20
285.243
 11
36.6489
 21
285.841
  0
LINE
  8
0
 10
36.6489
 20
285.841
 11
36.3815
 21
286.409
  0
LINE
  8
0
 10
36.3815
 20
286.409
 11
36.0451
 21
286.939
  0
LINE
  8
0
 10
36.0451
 20
286.939
 11
35.6448
 21
287.423
  0
LINE
  8
0
 10
35.6448
 20
287.423
 11
35.1871
 21
287.853
  0
LINE
  8
0
 10
35.1871
 20
287.853
 11
34.6791
 21
288.222
  0
LINE
  8
0
 10
34.6791
 20
288.222
 11
34.1289
 21
288.524
  0
LINE
  8
0
 10
34.1289
 20
288.524
 11
33.5451
 21
288.755
  0
LINE
  8
0
 10
33.5451
 20
288.755
 11
32.9369
 21
288.911
  0
LINE
  8
0
 10
32.9369
 20
288.911
 11
32.3139
 21
288.99
  0
LINE
  8
0
 10
32.3139
 20
288.99
 11
-32.3139
 21
288.99
  0
LINE
  8
0
 10
-32.3139
 20
288.99
 11
-32.9369
 21
288.911
  0
LINE
  8
0
 10
-32.9369
 20
288.911
 11
-33.5451
 21
288.755
  0
LINE
  8
0
 10
-33.5451
 20
288.755
 11
-34.1289
 21
288.524
  0
LINE
  8
0
 10
-34.1289
 20
288.524
 11
-34.6791
 21
288.222
  0
LINE
  8
0
 10
-34.6791
 20
288.222
 11
-35.1871
 21
287.853
  0
LINE
  8
0
 10
-35.1871
 20
287.853
 11
-35.6448
 21
287.423
  0
LINE
  8
0
 10
-35.6448
 20
287.423
 11
-36.0451
 21
286.939
  0
LINE
  8
0
 10
-36.0451
 20
286.939
 11
-36.3815
 21
286.409
  0
LINE
  8
0
 10
-36.3815
 20
286.409
 11
-36.6489
 21
285.841
  0
LINE
  8
0
 10
-36.6489
 20
285.841
 11
-36.8429
 21
285.243
  0
LINE
  8
0
 10
-36.8429
 20
285.243
 11
-36.9606
 21
284.627
  0
LINE
  8
0
 10
-36.9606
 20
284.627
 11
-37
 21
284
  0
LINE
  8
0
 10
-37
 20
284
 11
-37
 21
220
  0
LINE
  8
0
 10
-37
 20
220
 11
-36.9606
 21
219.373
  0
LINE
  8
0
 10
-36.9606
 20
219.373
 11
-36.8429
 21
218.757
  0
LINE
  8
0
 10
-36.8429
 20
218.757
 11
-36.6489
 21
218.159
  0
LINE
  8
0
 10
-36.6489
 20
218.159
 11
-36.3815
 21
217.591
  0
LINE
  8
0
 10
-36.3815
 20
217.591
 11
-36.0451
 21
217.061
  0
LINE
  8
0
 10
-36.0451
 20
217.061
 11
-35.6448
 21
216.577
  0
LINE
  8
0
 10
-35.6448
 20
216.577
 11
-35.1871
 21
216.147
  0
LINE
  8
0
 10
-35.1871
 20
216.147
 11
-34.6791
 21
215.778
  0
LINE
  8
0
 10
-34.6791
 20
215.778
 11
-34.1289
 21
215.476
  0
LINE
  8
0
 10
-34.1289
 20
215.476
 11
-33.5451
 21
215.245
  0
LINE
  8
0
 10
-33.5451
 20
215.245
 11
-32.9369
 21
215.089
  0
LINE
  8
0
 10
-32.9369
 20
215.089
 11
-32.3139
 21
215.01
  0
LINE
  8
0
 10
-32.3139
 20
215.01
 11
32.3139
 21
215.01
  0
LINE
  8
0
 10
32.3139
 20
215.01
 11
32.9369
 21
215.089
  0
LINE
  8
0
 10
-15.1884
 20
279.006
 11
-15.5621
 21
279.053
  0
LINE
  8
0
 10
-15.5621
 20
279.053
 11
-15.927
 21
279.147
  0
LINE
  8
0
 10
-15.927
 20
279.147
 11
-16.2773
 21
279.286
  0
LINE
  8
0
 10
-16.2773
 20
279.286
 11
-16.6075
 21
279.467
  0
LINE
  8
0
 10
-16.6075
 20
279.467
 11
-16.9123
 21
279.688
  0
LINE
  8
0
 10
-16.9123
 20
279.688
 11
-17.1869
 21
279.946
  0
LINE
  8
0
 10
-17.1869
 20
279.946
 11
-17.427
 21
280.237
  0
LINE
  8
0
 10
-17.427
 20
280.237
 11
-17.6289
 21
280.555
  0
LINE
  8
0
 10
-17.6289
 20
280.555
 11
-17.7893
 21
280.896
  0
LINE
  8
0
 10
-17.7893
 20
280.896
 11
-17.9057
 21
281.254
  0
LINE
  8
0
 10
-17.9057
 20
281.254
 11
-17.9763
 21
281.624
  0
LINE
  8
0
 10
-17.9763
 20
281.624
 11
-18
 21
282
  0
LINE
  8
0
 10
-18
 20
282
 11
-17.9763
 21
282.376
  0
LINE
  8
0
 10
-17.9763
 20
282.376
 11
-17.9057
 21
282.746
  0
LINE
  8
0
 10
-17.9057
 20
282.746
 11
-17.7893
 21
283.104
  0
LINE
  8
0
 10
-17.7893
 20
283.104
 11
-17.6289
 21
283.445
  0
LINE
  8
0
 10
-17.6289
 20
283.445
 11
-17.427
 21
283.763
  0
LINE
  8
0
 10
-17.427
 20
283.763
 11
-17.1869
 21
284.054
  0
LINE
  8
0
 10
-17.1869
 20
284.054
 11
-16.9123
 21
284.312
  0
LINE
  8
0
 10
-16.9123
 20
284.312
 11
-16.6075
 21
284.533
  0
LINE
  8
0
 10
-16.6075
 20
284.533
 11
-16.2773
 21
284.714
  0
LINE
  8
0
 10
-16.2773
 20
284.714
 11
-15.927
 21
284.853
  0
LINE
  8
0
 10
-15.927
 20
284.853
 11
-15.5621
 21
284.947
  0
LINE
  8
0
 10
-15.5621
 20
284.947
 11
-15.1884
 21
284.994
  0
LINE
  8
0
 10
-15.1884
 20
284.994
 11
-14.8116
 21
284.994
  0
LINE
  8
0
 10
-14.8116
 20
284.994
 11
-14.4379
 21
284.947
  0
LINE
  8
0
 10
-14.4379
 20
284.947
 11
-14.0729
 21
284.853
  0
LINE
  8
0
 10
-14.0729
 20
284.853
 11
-13.7227
 21
284.714
  0
LINE
  8
0
 10
-13.7227
 20
284.714
 11
-13.3925
 21
284.533
  0
LINE
  8
0
 10
-13.3925
 20
284.533
 11
-13.0877
 21
284.312
  0
LINE
  8
0
 10
-13.0877
 20
284.312
 11
-12.8131
 21
284.054
  0
LINE
  8
0
 10
-12.8131
 20
284.054
 11
-12.5729
 21
283.763
  0
LINE
  8
0
 10
-12.5729
 20
283.763
 11
-12.3711
 21
283.445
  0
LINE
  8
0
 10
-12.3711
 20
283.445
 11
-12.2107
 21
283.104
  0
LINE
  8
0
 10
-12.2107
 20
283.104
 11
-12.0942
 21
282.746
  0
LINE
  8
0
 10
-12.0942
 20
282.746
 11
-12.0237
 21
282.376
  0
LINE
  8
0
 10
-12.0237
 20
282.376
 11
-12
 21
282
  0
LINE
  8
0
 10
-12
 20
282
 11
-12.0237
 21
281.624
  0
LINE
  8
0
 10
-12.0237
 20
281.624
 11
-12.0942
 21
281.254
  0
LINE
  8
0
 10
-12.0942
 20
281.254
 11
-12.2107
 21
280.896
  0
LINE
  8
0
 10
-12.2107
 20
280.896
 11
-12.3711
 21
280.555
  0
LINE
  8
0
 10
-12.3711
 20
280.555
 11
-12.5729
 21
280.237
  0
LINE
  8
0
 10
-12.5729
 20
280.237
 11
-12.8131
 21
279.946
  0
LINE
  8
0
 10
-12.8131
 20
279.946
 11
-13.0877
 21
279.688
  0
LINE
  8
0
 10
-13.0877
 20
279.688
 11
-13.3925
 21
279.467
  0
LINE
  8
0
 10
-13.3925
 20
279.467
 11
-13.7227
 21
279.286
  0
LINE
  8
0
 10
-13.7227
 20
279.286
 11
-14.0729
 21
279.147
  0
LINE
  8
0
 10
-14.0729
 20
279.147
 11
-14.4379
 21
279.053
  0
LINE
  8
0
 10
-14.4379
 20
279.053
 11
-14.8116
 21
279.006
  0
LINE
  8
0
 10
-14.8116
 20
279.006
 11
-15.1884
 21
279.006
  0
LINE
  8
0
 10
-0.18837
 20
279.006
 11
-0.562134
 21
279.053
  0
LINE
  8
0
 10
-0.562134
 20
279.053
 11
-0.927048
 21
279.147
  0
LINE
  8
0
 10
-0.927048
 20
279.147
 11
-1.27733
 21
279.286
  0
LINE
  8
0
 10
-1.27733
 20
279.286
 11
-1.60747
 21
279.467
  0
LINE
  8
0
 10
-1.60747
 20
279.467
 11
-1.91226
 21
279.688
  0
LINE
  8
0
 10
-1.91226
 20
279.688
 11
-2.1869
 21
279.946
  0
LINE
  8
0
 10
-2.1869
 20
279.946
 11
-2.42705
 21
280.237
  0
LINE
  8
0
 10
-2.42705
 20
280.237
 11
-2.62891
 21
280.555
  0
LINE
  8
0
 10
-2.62891
 20
280.555
 11
-2.78932
 21
280.896
  0
LINE
  8
0
 10
-2.78932
 20
280.896
 11
-2.90575
 21
281.254
  0
LINE
  8
0
 10
-2.90575
 20
281.254
 11
-2.97633
 21
281.624
  0
LINE
  8
0
 10
-2.97633
 20
281.624
 11
-3
 21
282
  0
LINE
  8
0
 10
-3
 20
282
 11
-2.97633
 21
282.376
  0
LINE
  8
0
 10
-2.97633
 20
282.376
 11
-2.90575
 21
282.746
  0
LINE
  8
0
 10
-2.90575
 20
282.746
 11
-2.78932
 21
283.104
  0
LINE
  8
0
 10
-2.78932
 20
283.104
 11
-2.62891
 21
283.445
  0
LINE
  8
0
 10
-2.62891
 20
283.445
 11
-2.42705
 21
283.763
  0
LINE
  8
0
 10
-2.42705
 20
283.763
 11
-2.1869
 21
284.054
  0
LINE
  8
0
 10
-2.1869
 20
284.054
 11
-1.91226
 21
284.312
  0
LINE
  8
0
 10
-1.91226
 20
284.312
 11
-1.60747
 21
284.533
  0
LINE
  8
0
 10
-1.60747
 20
284.533
 11
-1.27733
 21
284.714
  0
LINE
  8
0
 10
-1.27733
 20
284.714
 11
-0.927048
 21
284.853
  0
LINE
  8
0
 10
-0.927048
 20
284.853
 11
-0.562134
 21
284.947
  0
LINE
  8
0
 10
-0.562134
 20
284.947
 11
-0.18837
 21
284.994
  0
LINE
  8
0
 10
-0.18837
 20
284.994
 11
0.18837
 21
284.994
  0
LINE
  8
0
 10
0.18837
 20
284.994
 11
0.562134
 21
284.947
  0
LINE
  8
0
 10
0.562134
 20
284.947
 11
0.927048
 21
284.853
  0
LINE
  8
0
 10
0.927048
 20
284.853
 11
1.27733
 21
284.714
  0
LINE
  8
0
 10
1.27733
 20
284.714
 11
1.60747
 21
284.533
  0
LINE
  8
0
 10
1.60747
 20
284.533
 11
1.91226
 21
284.312
  0
LINE
  8
0
 10
1.91226
 20
284.312
 11
2.1869
 21
284.054
  0
LINE
  8
0
 10
2.1869
 20
284.054
 11
2.42705
 21
283.763
  0
LINE
  8
0
 10
2.42705
 20
283.763
 11
2.62891
 21
283.445
  0
LINE
  8
0
 10
2.62891
 20
283.445
 11
2.78932
 21
283.104
  0
LINE
  8
0
 10
2.78932
 20
283.104
 11
2.90575
 21
282.746
  0
LINE
  8
0
 10
2.90575
 20
282.746
 11
2.97633
 21
282.376
  0
LINE
  8
0
 10
2.97633
 20
282.376
 11
3
 21
282
  0
LINE
  8
0
 10
3
 20
282
 11
2.97633
 21
281.624
  0
LINE
  8
0
 10
2.97633
 20
281.624
 11
2.90575
 21
281.254
  0
LINE
  8
0
 10
2.90575
 20
281.254
 11
2.78932
 21
280.896
  0
LINE
  8
0
 10
2.78932
 20
280.896
 11
2.62891
 21
280.555
  0
LINE
  8
0
 10
2.62891
 20
280.555
 11
2.42705
 21
280.237
  0
LINE
  8
0
 10
2.42705
 20
280.237
 11
2.1869
 21
279.946
  0
LINE
  8
0
 10
2.1869
 20
279.946
 11
1.91226
 21
279.688
  0
LINE
  8
0
 10
1.91226
 20
279.688
 11
1.60747
 21
279.467
  0
LINE
  8
0
 10
1.60747
 20
279.467
 11
1.27733
 21
279.286
  0
LINE
  8
0
 10
1.27733
 20
279.286
 11
0.927048
 21
279.147
  0
LINE
  8
0
 10
0.927048
 20
279.147
 11
0.562134
 21
279.053
  0
LINE
  8
0
 10
0.562134
 20
279.053
 11
0.18837
 21
279.006
  0
LINE
  8
0
 10
0.18837
 20
279.006
 11
-0.18837
 21
279.006
  0
LINE
  8
0
 10
29.8116
 20
279.006
 11
29.4379
 21
279.053
  0
LINE
  8
0
 10
29.4379
 20
279.053
 11
29.0729
 21
279.147
  0
LINE
  8
0
 10
29.0729
 20
279.147
 11
28.7227
 21
279.286
  0
LINE
  8
0
 10
28.7227
 20
279.286
 11
28.3925
 21
279.467
  0
LINE
  8
0
 10
28.3925
 20
279.467
 11
28.0877
 21
279.688
  0
LINE
  8
0
 10
28.0877
 20
279.688
 11
27.8131
 21
279.946
  0
LINE
  8
0
 10
27.8131
 20
279.946
 11
27.5729
 21
280.237
  0
LINE
  8
0
 10
27.5729
 20
280.237
 11
27.3711
 21
280.555
  0
LINE
  8
0
 10
27.3711
 20
280.555
 11
27.2107
 21
280.896
  0
LINE
  8
0
 10
27.2107
 20
280.896
 11
27.0942
 21
281.254
  0
LINE
  8
0
 10
27.0942
 20
281.254
 11
27.0237
 21
281.624
  0
LINE
  8
0
 10
27.0237
 20
281.624
 11
27
 21
282
  0
LINE
  8
0
 10
27
 20
282
 11
27.0237
 21
282.376
  0
LINE
  8
0
 10
27.0237
 20
282.376
 11
27.0942
 21
282.746
  0
LINE
  8
0
 10
27.0942
 20
282.746
 11
27.2107
 21
283.104
  0
LINE
  8
0
 10
27.2107
 20
283.104
 11
27.3711
 21
283.445
  0
LINE
  8
0
 10
27.3711
 20
283.445
 11
27.5729
 21
283.763
  0
LINE
  8
0
 10
27.5729
 20
283.763
 11
27.8131
 21
284.054
  0
LINE
  8
0
 10
27.8131
 20
284.054
 11
28.0877
 21
284.312
  0
LINE
  8
0
 10
28.0877
 20
284.312
 11
28.3925
 21
284.533
  0
LINE
  8
0
 10
28.3925
 20
284.533
 11
28.7227
 21
284.714
  0
LINE
  8
0
 10
28.7227
 20
284.714
 11
29.0729
 21
284.853
  0
LINE
  8
0
 10
29.0729
 20
284.853
 11
29.4379
 21
284.947
  0
LINE
  8
0
 10
29.4379
 20
284.947
 11
29.8116
 21
284.994
  0
LINE
  8
0
 10
29.8116
 20
284.994
 11
30.1884
 21
284.994
  0
LINE
  8
0
 10
30.1884
 20
284.994
 11
30.5621
 21
284.947
  0
LINE
  8
0
 10
30.5621
 20
284.947
 11
30.927
 21
284.853
  0
LINE
  8
0
 10
30.927
 20
284.853
 11
31.2773
 21
284.714
  0
LINE
  8
0
 10
31.2773
 20
284.714
 11
31.6075
 21
284.533
  0
LINE
  8
0
 10
31.6075
 20
284.533
 11
31.9123
 21
284.312
  0
LINE
  8
0
 10
31.9123
 20
284.312
 11
32.1869
 21
284.054
  0
LINE
  8
0
 10
32.1869
 20
284.054
 11
32.427
 21
283.763
  0
LINE
  8
0
 10
32.427
 20
283.763
 11
32.6289
 21
283.445
  0
LINE
  8
0
 10
32.6289
 20
283.445
 11
32.7893
 21
283.104
  0
LINE
  8
0
 10
32.7893
 20
283.104
 11
32.9057
 21
282.746
  0
LINE
  8
0
 10
32.9057
 20
282.746
 11
32.9763
 21
282.376
  0
LINE
  8
0
 10
32.9763
 20
282.376
 11
33
 21
282
  0
LINE
  8
0
 10
33
 20
282
 11
32.9763
 21
281.624
  0
LINE
  8
0
 10
32.9763
 20
281.624
 11
32.9057
 21
281.254
  0
LINE
  8
0
 10
32.9057
 20
281.254
 11
32.7893
 21
280.896
  0
LINE
  8
0
 10
32.7893
 20
280.896
 11
32.6289
 21
280.555
  0
LINE
  8
0
 10
32.6289
 20
280.555
 11
32.427
 21
280.237
  0
LINE
  8
0
 10
32.427
 20
280.237
 11
32.1869
 21
279.946
  0
LINE
  8
0
 10
32.1869
 20
279.946
 11
31.9123
 21
279.688
  0
LINE
  8
0
 10
31.9123
 20
279.688
 11
31.6075
 21
279.467
  0
LINE
  8
0
 10
31.6075
 20
279.467
 11
31.2773
 21
279.286
  0
LINE
  8
0
 10
31.2773
 20
279.286
 11
30.927
 21
279.147
  0
LINE
  8
0
 10
30.927
 20
279.147
 11
30.5621
 21
279.053
  0
LINE
  8
0
 10
30.5621
 20
279.053
 11
30.1884
 21
279.006
  0
LINE
  8
0
 10
30.1884
 20
279.006
 11
29.8116
 21
279.006
  0
LINE
  8
0
 10
14.8116
 20
279.006
 11
14.4379
 21
279.053
  0
LINE
  8
0
 10
14.4379
 20
279.053
 11
14.0729
 21
279.147
  0
LINE
  8
0
 10
14.0729
 20
279.147
 11
13.7227
 21
279.286
  0
LINE
  8
0
 10
13.7227
 20
279.286
 11
13.3925
 21
279.467
  0
LINE
  8
0
 10
13.3925
 20
279.467
 11
13.0877
 21
279.688
  0
LINE
  8
0
 10
13.0877
 20
279.688
 11
12.8131
 21
279.946
  0
LINE
  8
0
 10
12.8131
 20
279.946
 11
12.5729
 21
280.237
  0
LINE
  8
0
 10
12.5729
 20
280.237
 11
12.3711
 21
280.555
  0
LINE
  8
0
 10
12.3711
 20
280.555
 11
12.2107
 21
280.896
  0
LINE
  8
0
 10
12.2107
 20
280.896
 11
12.0942
 21
281.254
  0
LINE
  8
0
 10
12.0942
 20
281.254
 11
12.0237
 21
281.624
  0
LINE
  8
0
 10
12.0237
 20
281.624
 11
12
 21
282
  0
LINE
  8
0
 10
12
 20
282
 11
12.0237
 21
282.376
  0
LINE
  8
0
 10
12.0237
 20
282.376
 11
12.0942
 21
282.746
  0
LINE
  8
0
 10
12.0942
 20
282.746
 11
12.2107
 21
283.104
  0
LINE
  8
0
 10
12.2107
 20
283.104
 11
12.3711
 21
283.445
  0
LINE
  8
0
 10
12.3711
 20
283.445
 11
12.5729
 21
283.763
  0
LINE
  8
0
 10
12.5729
 20
283.763
 11
12.8131
 21
284.054
  0
LINE
  8
0
 10
12.8131
 20
284.054
 11
13.0877
 21
284.312
  0
LINE
  8
0
 10
13.0877
 20
284.312
 11
13.3925
 21
284.533
  0
LINE
  8
0
 10
13.3925
 20
284.533
 11
13.7227
 21
284.714
  0
LINE
  8
0
 10
13.7227
 20
284.714
 11
14.0729
 21
284.853
  0
LINE
  8
0
 10
14.0729
 20
284.853
 11
14.4379
 21
284.947
  0
LINE
  8
0
 10
14.4379
 20
284.947
 11
14.8116
 21
284.994
  0
LINE
  8
0
 10
14.8116
 20
284.994
 11
15.1884
 21
284.994
  0
LINE
  8
0
 10
15.1884
 20
284.994
 11
15.5621
 21
284.947
  0
LINE
  8
0
 10
15.5621
 20
284.947
 11
15.927
 21
284.853
  0
LINE
  8
0
 10
15.927
 20
284.853
 11
16.2773
 21
284.714
  0
LINE
  8
0
 10
16.2773
 20
284.714
 11
16.6075
 21
284.533
  0
LINE
  8
0
 10
16.6075
 20
284.533
 11
16.9123
 21
284.312
  0
LINE
  8
0
 10
16.9123
 20
284.312
 11
17.1869
 21
284.054
  0
LINE
  8
0
 10
17.1869
 20
284.054
 11
17.427
 21
283.763
  0
LINE
  8
0
 10
17.427
 20
283.763
 11
17.6289
 21
283.445
  0
LINE
  8
0
 10
17.6289
 20
283.445
 11
17.7893
 21
283.104
  0
LINE
  8
0
 10
17.7893
 20
283.104
 11
17.9057
 21
282.746
  0
LINE
  8
0
 10
17.9057
 20
282.746
 11
17.9763
 21
282.376
  0
LINE
  8
0
 10
17.9763
 20
282.376
 11
18
 21
282
  0
LINE
  8
0
 10
18
 20
282
 11
17.9763
 21
281.624
  0
LINE
  8
0
 10
17.9763
 20
281.624
 11
17.9057
 21
281.254
  0
LINE
  8
0
 10
17.9057
 20
281.254
 11
17.7893
 21
280.896
  0
LINE
  8
0
 10
17.7893
 20
280.896
 11
17.6289
 21
280.555
  0
LINE
  8
0
 10
17.6289
 20
280.555
 11
17.427
 21
280.237
  0
LINE
  8
0
 10
17.427
 20
280.237
 11
17.1869
 21
279.946
  0
LINE
  8
0
 10
17.1869
 20
279.946
 11
16.9123
 21
279.688
  0
LINE
  8
0
 10
16.9123
 20
279.688
 11
16.6075
 21
279.467
  0
LINE
  8
0
 10
16.6075
 20
279.467
 11
16.2773
 21
279.286
  0
LINE
  8
0
 10
16.2773
 20
279.286
 11
15.927
 21
279.147
  0
LINE
  8
0
 10
15.927
 20
279.147
 11
15.5621
 21
279.053
  0
LINE
  8
0
 10
15.5621
 20
279.053
 11
15.1884
 21
279.006
  0
LINE
  8
0
 10
15.1884
 20
279.006
 11
14.8116
 21
279.006
  0
LINE
  8
0
 10
-30.1884
 20
279.006
 11
-30.5621
 21
279.053
  0
LINE
  8
0
 10
-30.5621
 20
279.053
 11
-30.927
 21
279.147
  0
LINE
  8
0
 10
-30.927
 20
279.147
 11
-31.2773
 21
279.286
  0
LINE
  8
0
 10
-31.2773
 20
279.286
 11
-31.6075
 21
279.467
  0
LINE
  8
0
 10
-31.6075
 20
279.467
 11
-31.9123
 21
279.688
  0
LINE
  8
0
 10
-31.9123
 20
279.688
 11
-32.1869
 21
279.946
  0
LINE
  8
0
 10
-32.1869
 20
279.946
 11
-32.427
 21
280.237
  0
LINE
  8
0
 10
-32.427
 20
280.237
 11
-32.6289
 21
280.555
  0
LINE
  8
0
 10
-32.6289
 20
280.555
 11
-32.7893
 21
280.896
  0
LINE
  8
0
 10
-32.7893
 20
280.896
 11
-32.9057
 21
281.254
  0
LINE
  8
0
 10
-32.9057
 20
281.254
 11
-32.9763
 21
281.624
  0
LINE
  8
0
 10
-32.9763
 20
281.624
 11
-33
 21
282
  0
LINE
  8
0
 10
-33
 20
282
 11
-32.9763
 21
282.376
  0
LINE
  8
0
 10
-32.9763
 20
282.376
 11
-32.9057
 21
282.746
  0
LINE
  8
0
 10
-32.9057
 20
282.746
 11
-32.7893
 21
283.104
  0
LINE
  8
0
 10
-32.7893
 20
283.104
 11
-32.6289
 21
283.445
  0
LINE
  8
0
 10
-32.6289
 20
283.445
 11
-32.427
 21
283.763
  0
LINE
  8
0
 10
-32.427
 20
283.763
 11
-32.1869
 21
284.054
  0
LINE
  8
0
 10
-32.1869
 20
284.054
 11
-31.9123
 21
284.312
  0
LINE
  8
0
 10
-31.9123
 20
284.312
 11
-31.6075
 21
284.533
  0
LINE
  8
0
 10
-31.6075
 20
284.533
 11
-31.2773
 21
284.714
  0
LINE
  8
0
 10
-31.2773
 20
284.714
 11
-30.927
 21
284.853
  0
LINE
  8
0
 10
-30.927
 20
284.853
 11
-30.5621
 21
284.947
  0
LINE
  8
0
 10
-30.5621
 20
284.947
 11
-30.1884
 21
284.994
  0
LINE
  8
0
 10
-30.1884
 20
284.994
 11
-29.8116
 21
284.994
  0
LINE
  8
0
 10
-29.8116
 20
284.994
 11
-29.4379
 21
284.947
  0
LINE
  8
0
 10
-29.4379
 20
284.947
 11
-29.0729
 21
284.853
  0
LINE
  8
0
 10
-29.0729
 20
284.853
 11
-28.7227
 21
284.714
  0
LINE
  8
0
 10
-28.7227
 20
284.714
 11
-28.3925
 21
284.533
  0
LINE
  8
0
 10
-28.3925
 20
284.533
 11
-28.0877
 21
284.312
  0
LINE
  8
0
 10
-28.0877
 20
284.312
 11
-27.8131
 21
284.054
  0
LINE
  8
0
 10
-27.8131
 20
284.054
 11
-27.5729
 21
283.763
  0
LINE
  8
0
 10
-27.5729
 20
283.763
 11
-27.3711
 21
283.445
  0
LINE
  8
0
 10
-27.3711
 20
283.445
 11
-27.2107
 21
283.104
  0
LINE
  8
0
 10
-27.2107
 20
283.104
 11
-27.0942
 21
282.746
  0
LINE
  8
0
 10
-27.0942
 20
282.746
 11
-27.0237
 21
282.376
  0
LINE
  8
0
 10
-27.0237
 20
282.376
 11
-27
 21
282
  0
LINE
  8
0
 10
-27
 20
282
 11
-27.0237
 21
281.624
  0
LINE
  8
0
 10
-27.0237
 20
281.624
 11
-27.0942
 21
281.254
  0
LINE
  8
0
 10
-27.0942
 20
281.254
 11
-27.2107
 21
280.896
  0
LINE
  8
0
 10
-27.2107
 20
280.896
 11
-27.3711
 21
280.555
  0
LINE
  8
0
 10
-27.3711
 20
280.555
 11
-27.5729
 21
280.237
  0
LINE
  8
0
 10
-27.5729
 20
280.237
 11
-27.8131
 21
279.946
  0
LINE
  8
0
 10
-27.8131
 20
279.946
 11
-28.0877
 21
279.688
  0
LINE
  8
0
 10
-28.0877
 20
279.688
 11
-28.3925
 21
279.467
  0
LINE
  8
0
 10
-28.3925
 20
279.467
 11
-28.7227
 21
279.286
  0
LINE
  8
0
 10
-28.7227
 20
279.286
 11
-29.0729
 21
279.147
  0
LINE
  8
0
 10
-29.0729
 20
279.147
 11
-29.4379
 21
279.053
  0
LINE
  8
0
 10
-29.4379
 20
279.053
 11
-29.8116
 21
279.006
  0
LINE
  8
0
 10
-29.8116
 20
279.006
 11
-30.1884
 21
279.006
  0
LINE
  8
0
 10
14.8116
 20
264.006
 11
14.4379
 21
264.053
  0
LINE
  8
0
 10
14.4379
 20
264.053
 11
14.0729
 21
264.147
  0
LINE
  8
0
 10
14.0729
 20
264.147
 11
13.7227
 21
264.286
  0
LINE
  8
0
 10
13.7227
 20
264.286
 11
13.3925
 21
264.467
  0
LINE
  8
0
 10
13.3925
 20
264.467
 11
13.0877
 21
264.688
  0
LINE
  8
0
 10
13.0877
 20
264.688
 11
12.8131
 21
264.946
  0
LINE
  8
0
 10
12.8131
 20
264.946
 11
12.5729
 21
265.237
  0
LINE
  8
0
 10
12.5729
 20
265.237
 11
12.3711
 21
265.555
  0
LINE
  8
0
 10
12.3711
 20
265.555
 11
12.2107
 21
265.896
  0
LINE
  8
0
 10
12.2107
 20
265.896
 11
12.0942
 21
266.254
  0
LINE
  8
0
 10
12.0942
 20
266.254
 11
12.0237
 21
266.624
  0
LINE
  8
0
 10
12.0237
 20
266.624
 11
12
 21
267
  0
LINE
  8
0
 10
12
 20
267
 11
12.0237
 21
267.376
  0
LINE
  8
0
 10
12.0237
 20
267.376
 11
12.0942
 21
267.746
  0
LINE
  8
0
 10
12.0942
 20
267.746
 11
12.2107
 21
268.104
  0
LINE
  8
0
 10
12.2107
 20
268.104
 11
12.3711
 21
268.445
  0
LINE
  8
0
 10
12.3711
 20
268.445
 11
12.5729
 21
268.763
  0
LINE
  8
0
 10
12.5729
 20
268.763
 11
12.8131
 21
269.054
  0
LINE
  8
0
 10
12.8131
 20
269.054
 11
13.0877
 21
269.312
  0
LINE
  8
0
 10
13.0877
 20
269.312
 11
13.3925
 21
269.533
  0
LINE
  8
0
 10
13.3925
 20
269.533
 11
13.7227
 21
269.714
  0
LINE
  8
0
 10
13.7227
 20
269.714
 11
14.0729
 21
269.853
  0
LINE
  8
0
 10
14.0729
 20
269.853
 11
14.4379
 21
269.947
  0
LINE
  8
0
 10
14.4379
 20
269.947
 11
14.8116
 21
269.994
  0
LINE
  8
0
 10
14.8116
 20
269.994
 11
15.1884
 21
269.994
  0
LINE
  8
0
 10
15.1884
 20
269.994
 11
15.5621
 21
269.947
  0
LINE
  8
0
 10
15.5621
 20
269.947
 11
15.927
 21
269.853
  0
LINE
  8
0
 10
15.927
 20
269.853
 11
16.2773
 21
269.714
  0
LINE
  8
0
 10
16.2773
 20
269.714
 11
16.6075
 21
269.533
  0
LINE
  8
0
 10
16.6075
 20
269.533
 11
16.9123
 21
269.312
  0
LINE
  8
0
 10
16.9123
 20
269.312
 11
17.1869
 21
269.054
  0
LINE
  8
0
 10
17.1869
 20
269.054
 11
17.427
 21
268.763
  0
LINE
  8
0
 10
17.427
 20
268.763
 11
17.6289
 21
268.445
  0
LINE
  8
0
 10
17.6289
 20
268.445
 11
17.7893
 21
268.104
  0
LINE
  8
0
 10
17.7893
 20
268.104
 11
17.9057
 21
267.746
  0
LINE
  8
0
 10
17.9057
 20
267.746
 11
17.9763
 21
267.376
  0
LINE
  8
0
 10
17.9763
 20
267.376
 11
18
 21
267
  0
LINE
  8
0
 10
18
 20
267
 11
17.9763
 21
266.624
  0
LINE
  8
0
 10
17.9763
 20
266.624
 11
17.9057
 21
266.254
  0
LINE
  8
0
 10
17.9057
 20
266.254
 11
17.7893
 21
265.896
  0
LINE
  8
0
 10
17.7893
 20
265.896
 11
17.6289
 21
265.555
  0
LINE
  8
0
 10
17.6289
 20
265.555
 11
17.427
 21
265.237
  0
LINE
  8
0
 10
17.427
 20
265.237
 11
17.1869
 21
264.946
  0
LINE
  8
0
 10
17.1869
 20
264.946
 11
16.9123
 21
264.688
  0
LINE
  8
0
 10
16.9123
 20
264.688
 11
16.6075
 21
264.467
  0
LINE
  8
0
 10
16.6075
 20
264.467
 11
16.2773
 21
264.286
  0
LINE
  8
0
 10
16.2773
 20
264.286
 11
15.927
 21
264.147
  0
LINE
  8
0
 10
15.927
 20
264.147
 11
15.5621
 21
264.053
  0
LINE
  8
0
 10
15.5621
 20
264.053
 11
15.1884
 21
264.006
  0
LINE
  8
0
 10
15.1884
 20
264.006
 11
14.8116
 21
264.006
  0
LINE
  8
0
 10
-0.18837
 20
264.006
 11
-0.562134
 21
264.053
  0
LINE
  8
0
 10
-0.562134
 20
264.053
 11
-0.927048
 21
264.147
  0
LINE
  8
0
 10
-0.927048
 20
264.147
 11
-1.27733
 21
264.286
  0
LINE
  8
0
 10
-1.27733
 20
264.286
 11
-1.60747
 21
264.467
  0
LINE
  8
0
 10
-1.60747
 20
264.467
 11
-1.91226
 21
264.688
  0
LINE
  8
0
 10
-1.91226
 20
264.688
 11
-2.1869
 21
264.946
  0
LINE
  8
0
 10
-2.1869
 20
264.946
 11
-2.42705
 21
265.237
  0
LINE
  8
0
 10
-2.42705
 20
265.237
 11
-2.62891
 21
265.555
  0
LINE
  8
0
 10
-2.62891
 20
265.555
 11
-2.78932
 21
265.896
  0
LINE
  8
0
 10
-2.78932
 20
265.896
 11
-2.90575
 21
266.254
  0
LINE
  8
0
 10
-2.90575
 20
266.254
 11
-2.97633
 21
266.624
  0
LINE
  8
0
 10
-2.97633
 20
266.624
 11
-3
 21
267
  0
LINE
  8
0
 10
-3
 20
267
 11
-2.97633
 21
267.376
  0
LINE
  8
0
 10
-2.97633
 20
267.376
 11
-2.90575
 21
267.746
  0
LINE
  8
0
 10
-2.90575
 20
267.746
 11
-2.78932
 21
268.104
  0
LINE
  8
0
 10
-2.78932
 20
268.104
 11
-2.62891
 21
268.445
  0
LINE
  8
0
 10
-2.62891
 20
268.445
 11
-2.42705
 21
268.763
  0
LINE
  8
0
 10
-2.42705
 20
268.763
 11
-2.1869
 21
269.054
  0
LINE
  8
0
 10
-2.1869
 20
269.054
 11
-1.91226
 21
269.312
  0
LINE
  8
0
 10
-1.91226
 20
269.312
 11
-1.60747
 21
269.533
  0
LINE
  8
0
 10
-1.60747
 20
269.533
 11
-1.27733
 21
269.714
  0
LINE
  8
0
 10
-1.27733
 20
269.714
 11
-0.927048
 21
269.853
  0
LINE
  8
0
 10
-0.927048
 20
269.853
 11
-0.562134
 21
269.947
  0
LINE
  8
0
 10
-0.562134
 20
269.947
 11
-0.18837
 21
269.994
  0
LINE
  8
0
 10
-0.18837
 20
269.994
 11
0.18837
 21
269.994
  0
LINE
  8
0
 10
0.18837
 20
269.994
 11
0.562134
 21
269.947
  0
LINE
  8
0
 10
0.562134
 20
269.947
 11
0.927048
 21
269.853
  0
LINE
  8
0
 10
0.927048
 20
269.853
 11
1.27733
 21
269.714
  0
LINE
  8
0
 10
1.27733
 20
269.714
 11
1.60747
 21
269.533
  0
LINE
  8
0
 10
1.60747
 20
269.533
 11
1.91226
 21
269.312
  0
LINE
  8
0
 10
1.91226
 20
269.312
 11
2.1869
 21
269.054
  0
LINE
  8
0
 10
2.1869
 20
269.054
 11
2.42705
 21
268.763
  0
LINE
  8
0
 10
2.42705
 20
268.763
 11
2.62891
 21
268.445
  0
LINE
  8
0
 10
2.62891
 20
268.445
 11
2.78932
 21
268.104
  0
LINE
  8
0
 10
2.78932
 20
268.104
 11
2.90575
 21
267.746
  0
LINE
  8
0
 10
2.90575
 20
267.746
 11
2.97633
 21
267.376
  0
LINE
  8
0
 10
2.97633
 20
267.376
 11
3
 21
267
  0
LINE
  8
0
 10
3
 20
267
 11
2.97633
 21
266.624
  0
LINE
  8
0
 10
2.97633
 20
266.624
 11
2.90575
 21
266.254
  0
LINE
  8
0
 10
2.90575
 20
266.254
 11
2.78932
 21
265.896
  0
LINE
  8
0
 10
2.78932
 20
265.896
 11
2.62891
 21
265.555
  0
LINE
  8
0
 10
2.62891
 20
265.555
 11
2.42705
 21
265.237
  0
LINE
  8
0
 10
2.42705
 20
265.237
 11
2.1869
 21
264.946
  0
LINE
  8
0
 10
2.1869
 20
264.946
 11
1.91226
 21
264.688
  0
LINE
  8
0
 10
1.91226
 20
264.688
 11
1.60747
 21
264.467
  0
LINE
  8
0
 10
1.60747
 20
264.467
 11
1.27733
 21
264.286
  0
LINE
  8
0
 10
1.27733
 20
264.286
 11
0.927048
 21
264.147
  0
LINE
  8
0
 10
0.927048
 20
264.147
 11
0.562134
 21
264.053
  0
LINE
  8
0
 10
0.562134
 20
264.053
 11
0.18837
 21
264.006
  0
LINE
  8
0
 10
0.18837
 20
264.006
 11
-0.18837
 21
264.006
  0
LINE
  8
0
 10
-30.1884
 20
264.006
 11
-30.5621
 21
264.053
  0
LINE
  8
0
 10
-30.5621
 20
264.053
 11
-30.927
 21
264.147
  0
LINE
  8
0
 10
-30.927
 20
264.147
 11
-31.2773
 21
264.286
  0
LINE
  8
0
 10
-31.2773
 20
264.286
 11
-31.6075
 21
264.467
  0
LINE
  8
0
 10
-31.6075
 20
264.467
 11
-31.9123
 21
264.688
  0
LINE
  8
0
 10
-31.9123
 20
264.688
 11
-32.1869
 21
264.946
  0
LINE
  8
0
 10
-32.1869
 20
264.946
 11
-32.427
 21
265.237
  0
LINE
  8
0
 10
-32.427
 20
265.237
 11
-32.6289
 21
265.555
  0
LINE
  8
0
 10
-32.6289
 20
265.555
 11
-32.7893
 21
265.896
  0
LINE
  8
0
 10
-32.7893
 20
265.896
 11
-32.9057
 21
266.254
  0
LINE
  8
0
 10
-32.9057
 20
266.254
 11
-32.9763
 21
266.624
  0
LINE
  8
0
 10
-32.9763
 20
266.624
 11
-33
 21
267
  0
LINE
  8
0
 10
-33
 20
267
 11
-32.9763
 21
267.376
  0
LINE
  8
0
 10
-32.9763
 20
267.376
 11
-32.9057
 21
267.746
  0
LINE
  8
0
 10
-32.9057
 20
267.746
 11
-32.7893
 21
268.104
  0
LINE
  8
0
 10
-32.7893
 20
268.104
 11
-32.6289
 21
268.445
  0
LINE
  8
0
 10
-32.6289
 20
268.445
 11
-32.427
 21
268.763
  0
LINE
  8
0
 10
-32.427
 20
268.763
 11
-32.1869
 21
269.054
  0
LINE
  8
0
 10
-32.1869
 20
269.054
 11
-31.9123
 21
269.312
  0
LINE
  8
0
 10
-31.9123
 20
269.312
 11
-31.6075
 21
269.533
  0
LINE
  8
0
 10
-31.6075
 20
269.533
 11
-31.2773
 21
269.714
  0
LINE
  8
0
 10
-31.2773
 20
269.714
 11
-30.927
 21
269.853
  0
LINE
  8
0
 10
-30.927
 20
269.853
 11
-30.5621
 21
269.947
  0
LINE
  8
0
 10
-30.5621
 20
269.947
 11
-30.1884
 21
269.994
  0
LINE
  8
0
 10
-30.1884
 20
269.994
 11
-29.8116
 21
269.994
  0
LINE
  8
0
 10
-29.8116
 20
269.994
 11
-29.4379
 21
269.947
  0
LINE
  8
0
 10
-29.4379
 20
269.947
 11
-29.0729
 21
269.853
  0
LINE
  8
0
 10
-29.0729
 20
269.853
 11
-28.7227
 21
269.714
  0
LINE
  8
0
 10
-28.7227
 20
269.714
 11
-28.3925
 21
269.533
  0
LINE
  8
0
 10
-28.3925
 20
269.533
 11
-28.0877
 21
269.312
  0
LINE
  8
0
 10
-28.0877
 20
269.312
 11
-27.8131
 21
269.054
  0
LINE
  8
0
 10
-27.8131
 20
269.054
 11
-27.5729
 21
268.763
  0
LINE
  8
0
 10
-27.5729
 20
268.763
 11
-27.3711
 21
268.445
  0
LINE
  8
0
 10
-27.3711
 20
268.445
 11
-27.2107
 21
268.104
  0
LINE
  8
0
 10
-27.2107
 20
268.104
 11
-27.0942
 21
267.746
  0
LINE
  8
0
 10
-27.0942
 20
267.746
 11
-27.0237
 21
267.376
  0
LINE
  8
0
 10
-27.0237
 20
267.376
 11
-27
 21
267
  0
LINE
  8
0
 10
-27
 20
267
 11
-27.0237
 21
266.624
  0
LINE
  8
0
 10
-27.0237
 20
266.624
 11
-27.0942
 21
266.254
  0
LINE
  8
0
 10
-27.0942
 20
266.254
 11
-27.2107
 21
265.896
  0
LINE
  8
0
 10
-27.2107
 20
265.896
 11
-27.3711
 21
265.555
  0
LINE
  8
0
 10
-27.3711
 20
265.555
 11
-27.5729
 21
265.237
  0
LINE
  8
0
 10
-27.5729
 20
265.237
 11
-27.8131
 21
264.946
  0
LINE
  8
0
 10
-27.8131
 20
264.946
 11
-28.0877
 21
264.688
  0
LINE
  8
0
 10
-28.0877
 20
264.688
 11
-28.3925
 21
264.467
  0
LINE
  8
0
 10
-28.3925
 20
264.467
 11
-28.7227
 21
264.286
  0
LINE
  8
0
 10
-28.7227
 20
264.286
 11
-29.0729
 21
264.147
  0
LINE
  8
0
 10
-29.0729
 20
264.147
 11
-29.4379
 21
264.053
  0
LINE
  8
0
 10
-29.4379
 20
264.053
 11
-29.8116
 21
264.006
  0
LINE
  8
0
 10
-29.8116
 20
264.006
 11
-30.1884
 21
264.006
  0
LINE
  8
0
 10
-15.1884
 20
264.006
 11
-15.5621
 21
264.053
  0
LINE
  8
0
 10
-15.5621
 20
264.053
 11
-15.927
 21
264.147
  0
LINE
  8
0
 10
-15.927
 20
264.147
 11
-16.2773
 21
264.286
  0
LINE
  8
0
 10
-16.2773
 20
264.286
 11
-16.6075
 21
264.467
  0
LINE
  8
0
 10
-16.6075
 20
264.467
 11
-16.9123
 21
264.688
  0
LINE
  8
0
 10
-16.9123
 20
264.688
 11
-17.1869
 21
264.946
  0
LINE
  8
0
 10
-17.1869
 20
264.946
 11
-17.427
 21
265.237
  0
LINE
  8
0
 10
-17.427
 20
265.237
 11
-17.6289
 21
265.555
  0
LINE
  8
0
 10
-17.6289
 20
265.555
 11
-17.7893
 21
265.896
  0
LINE
  8
0
 10
-17.7893
 20
265.896
 11
-17.9057
 21
266.254
  0
LINE
  8
0
 10
-17.9057
 20
266.254
 11
-17.9763
 21
266.624
  0
LINE
  8
0
 10
-17.9763
 20
266.624
 11
-18
 21
267
  0
LINE
  8
0
 10
-18
 20
267
 11
-17.9763
 21
267.376
  0
LINE
  8
0
 10
-17.9763
 20
267.376
 11
-17.9057
 21
267.746
  0
LINE
  8
0
 10
-17.9057
 20
267.746
 11
-17.7893
 21
268.104
  0
LINE
  8
0
 10
-17.7893
 20
268.104
 11
-17.6289
 21
268.445
  0
LINE
  8
0
 10
-17.6289
 20
268.445
 11
-17.427
 21
268.763
  0
LINE
  8
0
 10
-17.427
 20
268.763
 11
-17.1869
 21
269.054
  0
LINE
  8
0
 10
-17.1869
 20
269.054
 11
-16.9123
 21
269.312
  0
LINE
  8
0
 10
-16.9123
 20
269.312
 11
-16.6075
 21
269.533
  0
LINE
  8
0
 10
-16.6075
 20
269.533
 11
-16.2773
 21
269.714
  0
LINE
  8
0
 10
-16.2773
 20
269.714
 11
-15.927
 21
269.853
  0
LINE
  8
0
 10
-15.927
 20
269.853
 11
-15.5621
 21
269.947
  0
LINE
  8
0
 10
-15.5621
 20
269.947
 11
-15.1884
 21
269.994
  0
LINE
  8
0
 10
-15.1884
 20
269.994
 11
-14.8116
 21
269.994
  0
LINE
  8
0
 10
-14.8116
 20
269.994
 11
-14.4379
 21
269.947
  0
LINE
  8
0
 10
-14.4379
 20
269.947
 11
-14.0729
 21
269.853
  0
LINE
  8
0
 10
-14.0729
 20
269.853
 11
-13.7227
 21
269.714
  0
LINE
  8
0
 10
-13.7227
 20
269.714
 11
-13.3925
 21
269.533
  0
LINE
  8
0
 10
-13.3925
 20
269.533
 11
-13.0877
 21
269.312
  0
LINE
  8
0
 10
-13.0877
 20
269.312
 11
-12.8131
 21
269.054
  0
LINE
  8
0
 10
-12.8131
 20
269.054
 11
-12.5729
 21
268.763
  0
LINE
  8
0
 10
-12.5729
 20
268.763
 11
-12.3711
 21
268.445
  0
LINE
  8
0
 10
-12.3711
 20
268.445
 11
-12.2107
 21
268.104
  0
LINE
  8
0
 10
-12.2107
 20
268.104
 11
-12.0942
 21
267.746
  0
LINE
  8
0
 10
-12.0942
 20
267.746
 11
-12.0237
 21
267.376
  0
LINE
  8
0
 10
-12.0237
 20
267.376
 11
-12
 21
267
  0
LINE
  8
0
 10
-12
 20
267
 11
-12.0237
 21
266.624
  0
LINE
  8
0
 10
-12.0237
 20
266.624
 11
-12.0942
 21
266.254
  0
LINE
  8
0
 10
-12.0942
 20
266.254
 11
-12.2107
 21
265.896
  0
LINE
  8
0
 10
-12.2107
 20
265.896
 11
-12.3711
 21
265.555
  0
LINE
  8
0
 10
-12.3711
 20
265.555
 11
-12.5729
 21
265.237
  0
LINE
  8
0
 10
-12.5729
 20
265.237
 11
-12.8131
 21
264.946
  0
LINE
  8
0
 10
-12.8131
 20
264.946
 11
-13.0877
 21
264.688
  0
LINE
  8
0
 10
-13.0877
 20
264.688
 11
-13.3925
 21
264.467
  0
LINE
  8
0
 10
-13.3925
 20
264.467
 11
-13.7227
 21
264.286
  0
LINE
  8
0
 10
-13.7227
 20
264.286
 11
-14.0729
 21
264.147
  0
LINE
  8
0
 10
-14.0729
 20
264.147
 11
-14.4379
 21
264.053
  0
LINE
  8
0
 10
-14.4379
 20
264.053
 11
-14.8116
 21
264.006
  0
LINE
  8
0
 10
-14.8116
 20
264.006
 11
-15.1884
 21
264.006
  0
LINE
  8
0
 10
29.8116
 20
264.006
 11
29.4379
 21
264.053
  0
LINE
  8
0
 10
29.4379
 20
264.053
 11
29.0729
 21
264.147
  0
LINE
  8
0
 10
29.0729
 20
264.147
 11
28.7227
 21
264.286
  0
LINE
  8
0
 10
28.7227
 20
264.286
 11
28.3925
 21
264.467
  0
LINE
  8
0
 10
28.3925
 20
264.467
 11
28.0877
 21
264.688
  0
LINE
  8
0
 10
28.0877
 20
264.688
 11
27.8131
 21
264.946
  0
LINE
  8
0
 10
27.8131
 20
264.946
 11
27.5729
 21
265.237
  0
LINE
  8
0
 10
27.5729
 20
265.237
 11
27.3711
 21
265.555
  0
LINE
  8
0
 10
27.3711
 20
265.555
 11
27.2107
 21
265.896
  0
LINE
  8
0
 10
27.2107
 20
265.896
 11
27.0942
 21
266.254
  0
LINE
  8
0
 10
27.0942
 20
266.254
 11
27.0237
 21
266.624
  0
LINE
  8
0
 10
27.0237
 20
266.624
 11
27
 21
267
  0
LINE
  8
0
 10
27
 20
267
 11
27.0237
 21
267.376
  0
LINE
  8
0
 10
27.0237
 20
267.376
 11
27.0942
 21
267.746
  0
LINE
  8
0
 10
27.0942
 20
267.746
 11
27.2107
 21
268.104
  0
LINE
  8
0
 10
27.2107
 20
268.104
 11
27.3711
 21
268.445
  0
LINE
  8
0
 10
27.3711
 20
268.445
 11
27.5729
 21
268.763
  0
LINE
  8
0
 10
27.5729
 20
268.763
 11
27.8131
 21
269.054
  0
LINE
  8
0
 10
27.8131
 20
269.054
 11
28.0877
 21
269.312
  0
LINE
  8
0
 10
28.0877
 20
269.312
 11
28.3925
 21
269.533
  0
LINE
  8
0
 10
28.3925
 20
269.533
 11
28.7227
 21
269.714
  0
LINE
  8
0
 10
28.7227
 20
269.714
 11
29.0729
 21
269.853
  0
LINE
  8
0
 10
29.0729
 20
269.853
 11
29.4379
 21
269.947
  0
LINE
  8
0
 10
29.4379
 20
269.947
 11
29.8116
 21
269.994
  0
LINE
  8
0
 10
29.8116
 20
269.994
 11
30.1884
 21
269.994
  0
LINE
  8
0
 10
30.1884
 20
269.994
 11
30.5621
 21
269.947
  0
LINE
  8
0
 10
30.5621
 20
269.947
 11
30.927
 21
269.853
  0
LINE
  8
0
 10
30.927
 20
269.853
 11
31.2773
 21
269.714
  0
LINE
  8
0
 10
31.2773
 20
269.714
 11
31.6075
 21
269.533
  0
LINE
  8
0
 10
31.6075
 20
269.533
 11
31.9123
 21
269.312
  0
LINE
  8
0
 10
31.9123
 20
269.312
 11
32.1869
 21
269.054
  0
LINE
  8
0
 10
32.1869
 20
269.054
 11
32.427
 21
268.763
  0
LINE
  8
0
 10
32.427
 20
268.763
 11
32.6289
 21
268.445
  0
LINE
  8
0
 10
32.6289
 20
268.445
 11
32.7893
 21
268.104
  0
LINE
  8
0
 10
32.7893
 20
268.104
 11
32.9057
 21
267.746
  0
LINE
  8
0
 10
32.9057
 20
267.746
 11
32.9763
 21
267.376
  0
LINE
  8
0
 10
32.9763
 20
267.376
 11
33
 21
267
  0
LINE
  8
0
 10
33
 20
267
 11
32.9763
 21
266.624
  0
LINE
  8
0
 10
32.9763
 20
266.624
 11
32.9057
 21
266.254
  0
LINE
  8
0
 10
32.9057
 20
266.254
 11
32.7893
 21
265.896
  0
LINE
  8
0
 10
32.7893
 20
265.896
 11
32.6289
 21
265.555
  0
LINE
  8
0
 10
32.6289
 20
265.555
 11
32.427
 21
265.237
  0
LINE
  8
0
 10
32.427
 20
265.237
 11
32.1869
 21
264.946
  0
LINE
  8
0
 10
32.1869
 20
264.946
 11
31.9123
 21
264.688
  0
LINE
  8
0
 10
31.9123
 20
264.688
 11
31.6075
 21
264.467
  0
LINE
  8
0
 10
31.6075
 20
264.467
 11
31.2773
 21
264.286
  0
LINE
  8
0
 10
31.2773
 20
264.286
 11
30.927
 21
264.147
  0
LINE
  8
0
 10
30.927
 20
264.147
 11
30.5621
 21
264.053
  0
LINE
  8
0
 10
30.5621
 20
264.053
 11
30.1884
 21
264.006
  0
LINE
  8
0
 10
30.1884
 20
264.006
 11
29.8116
 21
264.006
  0
LINE
  8
0
 10
29.8116
 20
249.006
 11
29.4379
 21
249.053
  0
LINE
  8
0
 10
29.4379
 20
249.053
 11
29.0729
 21
249.147
  0
LINE
  8
0
 10
29.0729
 20
249.147
 11
28.7227
 21
249.286
  0
LINE
  8
0
 10
28.7227
 20
249.286
 11
28.3925
 21
249.467
  0
LINE
  8
0
 10
28.3925
 20
249.467
 11
28.0877
 21
249.688
  0
LINE
  8
0
 10
28.0877
 20
249.688
 11
27.8131
 21
249.946
  0
LINE
  8
0
 10
27.8131
 20
249.946
 11
27.5729
 21
250.237
  0
LINE
  8
0
 10
27.5729
 20
250.237
 11
27.3711
 21
250.555
  0
LINE
  8
0
 10
27.3711
 20
250.555
 11
27.2107
 21
250.896
  0
LINE
  8
0
 10
27.2107
 20
250.896
 11
27.0942
 21
251.254
  0
LINE
  8
0
 10
27.0942
 20
251.254
 11
27.0237
 21
251.624
  0
LINE
  8
0
 10
27.0237
 20
251.624
 11
27
 21
252
  0
LINE
  8
0
 10
27
 20
252
 11
27.0237
 21
252.376
  0
LINE
  8
0
 10
27.0237
 20
252.376
 11
27.0942
 21
252.746
  0
LINE
  8
0
 10
27.0942
 20
252.746
 11
27.2107
 21
253.104
  0
LINE
  8
0
 10
27.2107
 20
253.104
 11
27.3711
 21
253.445
  0
LINE
  8
0
 10
27.3711
 20
253.445
 11
27.5729
 21
253.763
  0
LINE
  8
0
 10
27.5729
 20
253.763
 11
27.8131
 21
254.054
  0
LINE
  8
0
 10
27.8131
 20
254.054
 11
28.0877
 21
254.312
  0
LINE
  8
0
 10
28.0877
 20
254.312
 11
28.3925
 21
254.533
  0
LINE
  8
0
 10
28.3925
 20
254.533
 11
28.7227
 21
254.714
  0
LINE
  8
0
 10
28.7227
 20
254.714
 11
29.0729
 21
254.853
  0
LINE
  8
0
 10
29.0729
 20
254.853
 11
29.4379
 21
254.947
  0
LINE
  8
0
 10
29.4379
 20
254.947
 11
29.8116
 21
254.994
  0
LINE
  8
0
 10
29.8116
 20
254.994
 11
30.1884
 21
254.994
  0
LINE
  8
0
 10
30.1884
 20
254.994
 11
30.5621
 21
254.947
  0
LINE
  8
0
 10
30.5621
 20
254.947
 11
30.927
 21
254.853
  0
LINE
  8
0
 10
30.927
 20
254.853
 11
31.2773
 21
254.714
  0
LINE
  8
0
 10
31.2773
 20
254.714
 11
31.6075
 21
254.533
  0
LINE
  8
0
 10
31.6075
 20
254.533
 11
31.9123
 21
254.312
  0
LINE
  8
0
 10
31.9123
 20
254.312
 11
32.1869
 21
254.054
  0
LINE
  8
0
 10
32.1869
 20
254.054
 11
32.427
 21
253.763
  0
LINE
  8
0
 10
32.427
 20
253.763
 11
32.6289
 21
253.445
  0
LINE
  8
0
 10
32.6289
 20
253.445
 11
32.7893
 21
253.104
  0
LINE
  8
0
 10
32.7893
 20
253.104
 11
32.9057
 21
252.746
  0
LINE
  8
0
 10
32.9057
 20
252.746
 11
32.9763
 21
252.376
  0
LINE
  8
0
 10
32.9763
 20
252.376
 11
33
 21
252
  0
LINE
  8
0
 10
33
 20
252
 11
32.9763
 21
251.624
  0
LINE
  8
0
 10
32.9763
 20
251.624
 11
32.9057
 21
251.254
  0
LINE
  8
0
 10
32.9057
 20
251.254
 11
32.7893
 21
250.896
  0
LINE
  8
0
 10
32.7893
 20
250.896
 11
32.6289
 21
250.555
  0
LINE
  8
0
 10
32.6289
 20
250.555
 11
32.427
 21
250.237
  0
LINE
  8
0
 10
32.427
 20
250.237
 11
32.1869
 21
249.946
  0
LINE
  8
0
 10
32.1869
 20
249.946
 11
31.9123
 21
249.688
  0
LINE
  8
0
 10
31.9123
 20
249.688
 11
31.6075
 21
249.467
  0
LINE
  8
0
 10
31.6075
 20
249.467
 11
31.2773
 21
249.286
  0
LINE
  8
0
 10
31.2773
 20
249.286
 11
30.927
 21
249.147
  0
LINE
  8
0
 10
30.927
 20
249.147
 11
30.5621
 21
249.053
  0
LINE
  8
0
 10
30.5621
 20
249.053
 11
30.1884
 21
249.006
  0
LINE
  8
0
 10
30.1884
 20
249.006
 11
29.8116
 21
249.006
  0
LINE
  8
0
 10
-30.1884
 20
249.006
 11
-30.5621
 21
249.053
  0
LINE
  8
0
 10
-30.5621
 20
249.053
 11
-30.927
 21
249.147
  0
LINE
  8
0
 10
-30.927
 20
249.147
 11
-31.2773
 21
249.286
  0
LINE
  8
0
 10
-31.2773
 20
249.286
 11
-31.6075
 21
249.467
  0
LINE
  8
0
 10
-31.6075
 20
249.467
 11
-31.9123
 21
249.688
  0
LINE
  8
0
 10
-31.9123
 20
249.688
 11
-32.1869
 21
249.946
  0
LINE
  8
0
 10
-32.1869
 20
249.946
 11
-32.427
 21
250.237
  0
LINE
  8
0
 10
-32.427
 20
250.237
 11
-32.6289
 21
250.555
  0
LINE
  8
0
 10
-32.6289
 20
250.555
 11
-32.7893
 21
250.896
  0
LINE
  8
0
 10
-32.7893
 20
250.896
 11
-32.9057
 21
251.254
  0
LINE
  8
0
 10
-32.9057
 20
251.254
 11
-32.9763
 21
251.624
  0
LINE
  8
0
 10
-32.9763
 20
251.624
 11
-33
 21
252
  0
LINE
  8
0
 10
-33
 20
252
 11
-32.9763
 21
252.376
  0
LINE
  8
0
 10
-32.9763
 20
252.376
 11
-32.9057
 21
252.746
  0
LINE
  8
0
 10
-32.9057
 20
252.746
 11
-32.7893
 21
253.104
  0
LINE
  8
0
 10
-32.7893
 20
253.104
 11
-32.6289
 21
253.445
  0
LINE
  8
0
 10
-32.6289
 20
253.445
 11
-32.427
 21
253.763
  0
LINE
  8
0
 10
-32.427
 20
253.763
 11
-32.1869
 21
254.054
  0
LINE
  8
0
 10
-32.1869
 20
254.054
 11
-31.9123
 21
254.312
  0
LINE
  8
0
 10
-31.9123
 20
254.312
 11
-31.6075
 21
254.533
  0
LINE
  8
0
 10
-31.6075
 20
254.533
 11
-31.2773
 21
254.714
  0
LINE
  8
0
 10
-31.2773
 20
254.714
 11
-30.927
 21
254.853
  0
LINE
  8
0
 10
-30.927
 20
254.853
 11
-30.5621
 21
254.947
  0
LINE
  8
0
 10
-30.5621
 20
254.947
 11
-30.1884
 21
254.994
  0
LINE
  8
0
 10
-30.1884
 20
254.994
 11
-29.8116
 21
254.994
  0
LINE
  8
0
 10
-29.8116
 20
254.994
 11
-29.4379
 21
254.947
  0
LINE
  8
0
 10
-29.4379
 20
254.947
 11
-29.0729
 21
254.853
  0
LINE
  8
0
 10
-29.0729
 20
254.853
 11
-28.7227
 21
254.714
  0
LINE
  8
0
 10
-28.7227
 20
254.714
 11
-28.3925
 21
254.533
  0
LINE
  8
0
 10
-28.3925
 20
254.533
 11
-28.0877
 21
254.312
  0
LINE
  8
0
 10
-28.0877
 20
254.312
 11
-27.8131
 21
254.054
  0
LINE
  8
0
 10
-27.8131
 20
254.054
 11
-27.5729
 21
253.763
  0
LINE
  8
0
 10
-27.5729
 20
253.763
 11
-27.3711
 21
253.445
  0
LINE
  8
0
 10
-27.3711
 20
253.445
 11
-27.2107
 21
253.104
  0
LINE
  8
0
 10
-27.2107
 20
253.104
 11
-27.0942
 21
252.746
  0
LINE
  8
0
 10
-27.0942
 20
252.746
 11
-27.0237
 21
252.376
  0
LINE
  8
0
 10
-27.0237
 20
252.376
 11
-27
 21
252
  0
LINE
  8
0
 10
-27
 20
252
 11
-27.0237
 21
251.624
  0
LINE
  8
0
 10
-27.0237
 20
251.624
 11
-27.0942
 21
251.254
  0
LINE
  8
0
 10
-27.0942
 20
251.254
 11
-27.2107
 21
250.896
  0
LINE
  8
0
 10
-27.2107
 20
250.896
 11
-27.3711
 21
250.555
  0
LINE
  8
0
 10
-27.3711
 20
250.555
 11
-27.5729
 21
250.237
  0
LINE
  8
0
 10
-27.5729
 20
250.237
 11
-27.8131
 21
249.946
  0
LINE
  8
0
 10
-27.8131
 20
249.946
 11
-28.0877
 21
249.688
  0
LINE
  8
0
 10
-28.0877
 20
249.688
 11
-28.3925
 21
249.467
  0
LINE
  8
0
 10
-28.3925
 20
249.467
 11
-28.7227
 21
249.286
  0
LINE
  8
0
 10
-28.7227
 20
249.286
 11
-29.0729
 21
249.147
  0
LINE
  8
0
 10
-29.0729
 20
249.147
 11
-29.4379
 21
249.053
  0
LINE
  8
0
 10
-29.4379
 20
249.053
 11
-29.8116
 21
249.006
  0
LINE
  8
0
 10
-29.8116
 20
249.006
 11
-30.1884
 21
249.006
  0
LINE
  8
0
 10
-15.1884
 20
249.006
 11
-15.5621
 21
249.053
  0
LINE
  8
0
 10
-15.5621
 20
249.053
 11
-15.927
 21
249.147
  0
LINE
  8
0
 10
-15.927
 20
249.147
 11
-16.2773
 21
249.286
  0
LINE
  8
0
 10
-16.2773
 20
249.286
 11
-16.6075
 21
249.467
  0
LINE
  8
0
 10
-16.6075
 20
249.467
 11
-16.9123
 21
249.688
  0
LINE
  8
0
 10
-16.9123
 20
249.688
 11
-17.1869
 21
249.946
  0
LINE
  8
0
 10
-17.1869
 20
249.946
 11
-17.427
 21
250.237
  0
LINE
  8
0
 10
-17.427
 20
250.237
 11
-17.6289
 21
250.555
  0
LINE
  8
0
 10
-17.6289
 20
250.555
 11
-17.7893
 21
250.896
  0
LINE
  8
0
 10
-17.7893
 20
250.896
 11
-17.9057
 21
251.254
  0
LINE
  8
0
 10
-17.9057
 20
251.254
 11
-17.9763
 21
251.624
  0
LINE
  8
0
 10
-17.9763
 20
251.624
 11
-18
 21
252
  0
LINE
  8
0
 10
-18
 20
252
 11
-17.9763
 21
252.376
  0
LINE
  8
0
 10
-17.9763
 20
252.376
 11
-17.9057
 21
252.746
  0
LINE
  8
0
 10
-17.9057
 20
252.746
 11
-17.7893
 21
253.104
  0
LINE
  8
0
 10
-17.7893
 20
253.104
 11
-17.6289
 21
253.445
  0
LINE
  8
0
 10
-17.6289
 20
253.445
 11
-17.427
 21
253.763
  0
LINE
  8
0
 10
-17.427
 20
253.763
 11
-17.1869
 21
254.054
  0
LINE
  8
0
 10
-17.1869
 20
254.054
 11
-16.9123
 21
254.312
  0
LINE
  8
0
 10
-16.9123
 20
254.312
 11
-16.6075
 21
254.533
  0
LINE
  8
0
 10
-16.6075
 20
254.533
 11
-16.2773
 21
254.714
  0
LINE
  8
0
 10
-16.2773
 20
254.714
 11
-15.927
 21
254.853
  0
LINE
  8
0
 10
-15.927
 20
254.853
 11
-15.5621
 21
254.947
  0
LINE
  8
0
 10
-15.5621
 20
254.947
 11
-15.1884
 21
254.994
  0
LINE
  8
0
 10
-15.1884
 20
254.994
 11
-14.8116
 21
254.994
  0
LINE
  8
0
 10
-14.8116
 20
254.994
 11
-14.4379
 21
254.947
  0
LINE
  8
0
 10
-14.4379
 20
254.947
 11
-14.0729
 21
254.853
  0
LINE
  8
0
 10
-14.0729
 20
254.853
 11
-13.7227
 21
254.714
  0
LINE
  8
0
 10
-13.7227
 20
254.714
 11
-13.3925
 21
254.533
  0
LINE
  8
0
 10
-13.3925
 20
254.533
 11
-13.0877
 21
254.312
  0
LINE
  8
0
 10
-13.0877
 20
254.312
 11
-12.8131
 21
254.054
  0
LINE
  8
0
 10
-12.8131
 20
254.054
 11
-12.5729
 21
253.763
  0
LINE
  8
0
 10
-12.5729
 20
253.763
 11
-12.3711
 21
253.445
  0
LINE
  8
0
 10
-12.3711
 20
253.445
 11
-12.2107
 21
253.104
  0
LINE
  8
0
 10
-12.2107
 20
253.104
 11
-12.0942
 21
252.746
  0
LINE
  8
0
 10
-12.0942
 20
252.746
 11
-12.0237
 21
252.376
  0
LINE
  8
0
 10
-12.0237
 20
252.376
 11
-12
 21
252
  0
LINE
  8
0
 10
-12
 20
252
 11
-12.0237
 21
251.624
  0
LINE
  8
0
 10
-12.0237
 20
251.624
 11
-12.0942
 21
251.254
  0
LINE
  8
0
 10
-12.0942
 20
251.254
 11
-12.2107
 21
250.896
  0
LINE
  8
0
 10
-12.2107
 20
250.896
 11
-12.3711
 21
250.555
  0
LINE
  8
0
 10
-12.3711
 20
250.555
 11
-12.5729
 21
250.237
  0
LINE
  8
0
 10
-12.5729
 20
250.237
 11
-12.8131
 21
249.946
  0
LINE
  8
0
 10
-12.8131
 20
249.946
 11
-13.0877
 21
249.688
  0
LINE
  8
0
 10
-13.0877
 20
249.688
 11
-13.3925
 21
249.467
  0
LINE
  8
0
 10
-13.3925
 20
249.467
 11
-13.7227
 21
249.286
  0
LINE
  8
0
 10
-13.7227
 20
249.286
 11
-14.0729
 21
249.147
  0
LINE
  8
0
 10
-14.0729
 20
249.147
 11
-14.4379
 21
249.053
  0
LINE
  8
0
 10
-14.4379
 20
249.053
 11
-14.8116
 21
249.006
  0
LINE
  8
0
 10
-14.8116
 20
249.006
 11
-15.1884
 21
249.006
  0
LINE
  8
0
 10
14.8116
 20
249.006
 11
14.4379
 21
249.053
  0
LINE
  8
0
 10
14.4379
 20
249.053
 11
14.0729
 21
249.147
  0
LINE
  8
0
 10
14.0729
 20
249.147
 11
13.7227
 21
249.286
  0
LINE
  8
0
 10
13.7227
 20
249.286
 11
13.3925
 21
249.467
  0
LINE
  8
0
 10
13.3925
 20
249.467
 11
13.0877
 21
249.688
  0
LINE
  8
0
 10
13.0877
 20
249.688
 11
12.8131
 21
249.946
  0
LINE
  8
0
 10
12.8131
 20
249.946
 11
12.5729
 21
250.237
  0
LINE
  8
0
 10
12.5729
 20
250.237
 11
12.3711
 21
250.555
  0
LINE
  8
0
 10
12.3711
 20
250.555
 11
12.2107
 21
250.896
  0
LINE
  8
0
 10
12.2107
 20
250.896
 11
12.0942
 21
251.254
  0
LINE
  8
0
 10
12.0942
 20
251.254
 11
12.0237
 21
251.624
  0
LINE
  8
0
 10
12.0237
 20
251.624
 11
12
 21
252
  0
LINE
  8
0
 10
12
 20
252
 11
12.0237
 21
252.376
  0
LINE
  8
0
 10
12.0237
 20
252.376
 11
12.0942
 21
252.746
  0
LINE
  8
0
 10
12.0942
 20
252.746
 11
12.2107
 21
253.104
  0
LINE
  8
0
 10
12.2107
 20
253.104
 11
12.3711
 21
253.445
  0
LINE
  8
0
 10
12.3711
 20
253.445
 11
12.5729
 21
253.763
  0
LINE
  8
0
 10
12.5729
 20
253.763
 11
12.8131
 21
254.054
  0
LINE
  8
0
 10
12.8131
 20
254.054
 11
13.0877
 21
254.312
  0
LINE
  8
0
 10
13.0877
 20
254.312
 11
13.3925
 21
254.533
  0
LINE
  8
0
 10
13.3925
 20
254.533
 11
13.7227
 21
254.714
  0
LINE
  8
0
 10
13.7227
 20
254.714
 11
14.0729
 21
254.853
  0
LINE
  8
0
 10
14.0729
 20
254.853
 11
14.4379
 21
254.947
  0
LINE
  8
0
 10
14.4379
 20
254.947
 11
14.8116
 21
254.994
  0
LINE
  8
0
 10
14.8116
 20
254.994
 11
15.1884
 21
254.994
  0
LINE
  8
0
 10
15.1884
 20
254.994
 11
15.5621
 21
254.947
  0
LINE
  8
0
 10
15.5621
 20
254.947
 11
15.927
 21
254.853
  0
LINE
  8
0
 10
15.927
 20
254.853
 11
16.2773
 21
254.714
  0
LINE
  8
0
 10
16.2773
 20
254.714
 11
16.6075
 21
254.533
  0
LINE
  8
0
 10
16.6075
 20
254.533
 11
16.9123
 21
254.312
  0
LINE
  8
0
 10
16.9123
 20
254.312
 11
17.1869
 21
254.054
  0
LINE
  8
0
 10
17.1869
 20
254.054
 11
17.427
 21
253.763
  0
LINE
  8
0
 10
17.427
 20
253.763
 11
17.6289
 21
253.445
  0
LINE
  8
0
 10
17.6289
 20
253.445
 11
17.7893
 21
253.104
  0
LINE
  8
0
 10
17.7893
 20
253.104
 11
17.9057
 21
252.746
  0
LINE
  8
0
 10
17.9057
 20
252.746
 11
17.9763
 21
252.376
  0
LINE
  8
0
 10
17.9763
 20
252.376
 11
18
 21
252
  0
LINE
  8
0
 10
18
 20
252
 11
17.9763
 21
251.624
  0
LINE
  8
0
 10
17.9763
 20
251.624
 11
17.9057
 21
251.254
  0
LINE
  8
0
 10
17.9057
 20
251.254
 11
17.7893
 21
250.896
  0
LINE
  8
0
 10
17.7893
 20
250.896
 11
17.6289
 21
250.555
  0
LINE
  8
0
 10
17.6289
 20
250.555
 11
17.427
 21
250.237
  0
LINE
  8
0
 10
17.427
 20
250.237
 11
17.1869
 21
249.946
  0
LINE
  8
0
 10
17.1869
 20
249.946
 11
16.9123
 21
249.688
  0
LINE
  8
0
 10
16.9123
 20
249.688
 11
16.6075
 21
249.467
  0
LINE
  8
0
 10
16.6075
 20
249.467
 11
16.2773
 21
249.286
  0
LINE
  8
0
 10
16.2773
 20
249.286
 11
15.927
 21
249.147
  0
LINE
  8
0
 10
15.927
 20
249.147
 11
15.5621
 21
249.053
  0
LINE
  8
0
 10
15.5621
 20
249.053
 11
15.1884
 21
249.006
  0
LINE
  8
0
 10
15.1884
 20
249.006
 11
14.8116
 21
249.006
  0
LINE
  8
0
 10
-0.18837
 20
249.006
 11
-0.562134
 21
249.053
  0
LINE
  8
0
 10
-0.562134
 20
249.053
 11
-0.927048
 21
249.147
  0
LINE
  8
0
 10
-0.927048
 20
249.147
 11
-1.27733
 21
249.286
  0
LINE
  8
0
 10
-1.27733
 20
249.286
 11
-1.60747
 21
249.467
  0
LINE
  8
0
 10
-1.60747
 20
249.467
 11
-1.91226
 21
249.688
  0
LINE
  8
0
 10
-1.91226
 20
249.688
 11
-2.1869
 21
249.946
  0
LINE
  8
0
 10
-2.1869
 20
249.946
 11
-2.42705
 21
250.237
  0
LINE
  8
0
 10
-2.42705
 20
250.237
 11
-2.62891
 21
250.555
  0
LINE
  8
0
 10
-2.62891
 20
250.555
 11
-2.78932
 21
250.896
  0
LINE
  8
0
 10
-2.78932
 20
250.896
 11
-2.90575
 21
251.254
  0
LINE
  8
0
 10
-2.90575
 20
251.254
 11
-2.97633
 21
251.624
  0
LINE
  8
0
 10
-2.97633
 20
251.624
 11
-3
 21
252
  0
LINE
  8
0
 10
-3
 20
252
 11
-2.97633
 21
252.376
  0
LINE
  8
0
 10
-2.97633
 20
252.376
 11
-2.90575
 21
252.746
  0
LINE
  8
0
 10
-2.90575
 20
252.746
 11
-2.78932
 21
253.104
  0
LINE
  8
0
 10
-2.78932
 20
253.104
 11
-2.62891
 21
253.445
  0
LINE
  8
0
 10
-2.62891
 20
253.445
 11
-2.42705
 21
253.763
  0
LINE
  8
0
 10
-2.42705
 20
253.763
 11
-2.1869
 21
254.054
  0
LINE
  8
0
 10
-2.1869
 20
254.054
 11
-1.91226
 21
254.312
  0
LINE
  8
0
 10
-1.91226
 20
254.312
 11
-1.60747
 21
254.533
  0
LINE
  8
0
 10
-1.60747
 20
254.533
 11
-1.27733
 21
254.714
  0
LINE
  8
0
 10
-1.27733
 20
254.714
 11
-0.927048
 21
254.853
  0
LINE
  8
0
 10
-0.927048
 20
254.853
 11
-0.562134
 21
254.947
  0
LINE
  8
0
 10
-0.562134
 20
254.947
 11
-0.18837
 21
254.994
  0
LINE
  8
0
 10
-0.18837
 20
254.994
 11
0.18837
 21
254.994
  0
LINE
  8
0
 10
0.18837
 20
254.994
 11
0.562134
 21
254.947
  0
LINE
  8
0
 10
0.562134
 20
254.947
 11
0.927048
 21
254.853
  0
LINE
  8
0
 10
0.927048
 20
254.853
 11
1.27733
 21
254.714
  0
LINE
  8
0
 10
1.27733
 20
254.714
 11
1.60747
 21
254.533
  0
LINE
  8
0
 10
1.60747
 20
254.533
 11
1.91226
 21
254.312
  0
LINE
  8
0
 10
1.91226
 20
254.312
 11
2.1869
 21
254.054
  0
LINE
  8
0
 10
2.1869
 20
254.054
 11
2.42705
 21
253.763
  0
LINE
  8
0
 10
2.42705
 20
253.763
 11
2.62891
 21
253.445
  0
LINE
  8
0
 10
2.62891
 20
253.445
 11
2.78932
 21
253.104
  0
LINE
  8
0
 10
2.78932
 20
253.104
 11
2.90575
 21
252.746
  0
LINE
  8
0
 10
2.90575
 20
252.746
 11
2.97633
 21
252.376
  0
LINE
  8
0
 10
2.97633
 20
252.376
 11
3
 21
252
  0
LINE
  8
0
 10
3
 20
252
 11
2.97633
 21
251.624
  0
LINE
  8
0
 10
2.97633
 20
251.624
 11
2.90575
 21
251.254
  0
LINE
  8
0
 10
2.90575
 20
251.254
 11
2.78932
 21
250.896
  0
LINE
  8
0
 10
2.78932
 20
250.896
 11
2.62891
 21
250.555
  0
LINE
  8
0
 10
2.62891
 20
250.555
 11
2.42705
 21
250.237
  0
LINE
  8
0
 10
2.42705
 20
250.237
 11
2.1869
 21
249.946
  0
LINE
  8
0
 10
2.1869
 20
249.946
 11
1.91226
 21
249.688
  0
LINE
  8
0
 10
1.91226
 20
249.688
 11
1.60747
 21
249.467
  0
LINE
  8
0
 10
1.60747
 20
249.467
 11
1.27733
 21
249.286
  0
LINE
  8
0
 10
1.27733
 20
249.286
 11
0.927048
 21
249.147
  0
LINE
  8
0
 10
0.927048
 20
249.147
 11
0.562134
 21
249.053
  0
LINE
  8
0
 10
0.562134
 20
249.053
 11
0.18837
 21
249.006
  0
LINE
  8
0
 10
0.18837
 20
249.006
 11
-0.18837
 21
249.006
  0
LINE
  8
0
 10
14.8116
 20
234.006
 11
14.4379
 21
234.053
  0
LINE
  8
0
 10
14.4379
 20
234.053
 11
14.0729
 21
234.147
  0
LINE
  8
0
 10
14.0729
 20
234.147
 11
13.7227
 21
234.286
  0
LINE
  8
0
 10
13.7227
 20
234.286
 11
13.3925
 21
234.467
  0
LINE
  8
0
 10
13.3925
 20
234.467
 11
13.0877
 21
234.688
  0
LINE
  8
0
 10
13.0877
 20
234.688
 11
12.8131
 21
234.946
  0
LINE
  8
0
 10
12.8131
 20
234.946
 11
12.5729
 21
235.237
  0
LINE
  8
0
 10
12.5729
 20
235.237
 11
12.3711
 21
235.555
  0
LINE
  8
0
 10
12.3711
 20
235.555
 11
12.2107
 21
235.896
  0
LINE
  8
0
 10
12.2107
 20
235.896
 11
12.0942
 21
236.254
  0
LINE
  8
0
 10
12.0942
 20
236.254
 11
12.0237
 21
236.624
  0
LINE
  8
0
 10
12.0237
 20
236.624
 11
12
 21
237
  0
LINE
  8
0
 10
12
 20
237
 11
12.0237
 21
237.376
  0
LINE
  8
0
 10
12.0237
 20
237.376
 11
12.0942
 21
237.746
  0
LINE
  8
0
 10
12.0942
 20
237.746
 11
12.2107
 21
238.104
  0
LINE
  8
0
 10
12.2107
 20
238.104
 11
12.3711
 21
238.445
  0
LINE
  8
0
 10
12.3711
 20
238.445
 11
12.5729
 21
238.763
  0
LINE
  8
0
 10
12.5729
 20
238.763
 11
12.8131
 21
239.054
  0
LINE
  8
0
 10
12.8131
 20
239.054
 11
13.0877
 21
239.312
  0
LINE
  8
0
 10
13.0877
 20
239.312
 11
13.3925
 21
239.533
  0
LINE
  8
0
 10
13.3925
 20
239.533
 11
13.7227
 21
239.714
  0
LINE
  8
0
 10
13.7227
 20
239.714
 11
14.0729
 21
239.853
  0
LINE
  8
0
 10
14.0729
 20
239.853
 11
14.4379
 21
239.947
  0
LINE
  8
0
 10
14.4379
 20
239.947
 11
14.8116
 21
239.994
  0
LINE
  8
0
 10
14.8116
 20
239.994
 11
15.1884
 21
239.994
  0
LINE
  8
0
 10
15.1884
 20
239.994
 11
15.5621
 21
239.947
  0
LINE
  8
0
 10
15.5621
 20
239.947
 11
15.927
 21
239.853
  0
LINE
  8
0
 10
15.927
 20
239.853
 11
16.2773
 21
239.714
  0
LINE
  8
0
 10
16.2773
 20
239.714
 11
16.6075
 21
239.533
  0
LINE
  8
0
 10
16.6075
 20
239.533
 11
16.9123
 21
239.312
  0
LINE
  8
0
 10
16.9123
 20
239.312
 11
17.1869
 21
239.054
  0
LINE
  8
0
 10
17.1869
 20
239.054
 11
17.427
 21
238.763
  0
LINE
  8
0
 10
17.427
 20
238.763
 11
17.6289
 21
238.445
  0
LINE
  8
0
 10
17.6289
 20
238.445
 11
17.7893
 21
238.104
  0
LINE
  8
0
 10
17.7893
 20
238.104
 11
17.9057
 21
237.746
  0
LINE
  8
0
 10
17.9057
 20
237.746
 11
17.9763
 21
237.376
  0
LINE
  8
0
 10
17.9763
 20
237.376
 11
18
 21
237
  0
LINE
  8
0
 10
18
 20
237
 11
17.9763
 21
236.624
  0
LINE
  8
0
 10
17.9763
 20
236.624
 11
17.9057
 21
236.254
  0
LINE
  8
0
 10
17.9057
 20
236.254
 11
17.7893
 21
235.896
  0
LINE
  8
0
 10
17.7893
 20
235.896
 11
17.6289
 21
235.555
  0
LINE
  8
0
 10
17.6289
 20
235.555
 11
17.427
 21
235.237
  0
LINE
  8
0
 10
17.427
 20
235.237
 11
17.1869
 21
234.946
  0
LINE
  8
0
 10
17.1869
 20
234.946
 11
16.9123
 21
234.688
  0
LINE
  8
0
 10
16.9123
 20
234.688
 11
16.6075
 21
234.467
  0
LINE
  8
0
 10
16.6075
 20
234.467
 11
16.2773
 21
234.286
  0
LINE
  8
0
 10
16.2773
 20
234.286
 11
15.927
 21
234.147
  0
LINE
  8
0
 10
15.927
 20
234.147
 11
15.5621
 21
234.053
  0
LINE
  8
0
 10
15.5621
 20
234.053
 11
15.1884
 21
234.006
  0
LINE
  8
0
 10
15.1884
 20
234.006
 11
14.8116
 21
234.006
  0
LINE
  8
0
 10
-0.18837
 20
234.006
 11
-0.562134
 21
234.053
  0
LINE
  8
0
 10
-0.562134
 20
234.053
 11
-0.927048
 21
234.147
  0
LINE
  8
0
 10
-0.927048
 20
234.147
 11
-1.27733
 21
234.286
  0
LINE
  8
0
 10
-1.27733
 20
234.286
 11
-1.60747
 21
234.467
  0
LINE
  8
0
 10
-1.60747
 20
234.467
 11
-1.91226
 21
234.688
  0
LINE
  8
0
 10
-1.91226
 20
234.688
 11
-2.1869
 21
234.946
  0
LINE
  8
0
 10
-2.1869
 20
234.946
 11
-2.42705
 21
235.237
  0
LINE
  8
0
 10
-2.42705
 20
235.237
 11
-2.62891
 21
235.555
  0
LINE
  8
0
 10
-2.62891
 20
235.555
 11
-2.78932
 21
235.896
  0
LINE
  8
0
 10
-2.78932
 20
235.896
 11
-2.90575
 21
236.254
  0
LINE
  8
0
 10
-2.90575
 20
236.254
 11
-2.97633
 21
236.624
  0
LINE
  8
0
 10
-2.97633
 20
236.624
 11
-3
 21
237
  0
LINE
  8
0
 10
-3
 20
237
 11
-2.97633
 21
237.376
  0
LINE
  8
0
 10
-2.97633
 20
237.376
 11
-2.90575
 21
237.746
  0
LINE
  8
0
 10
-2.90575
 20
237.746
 11
-2.78932
 21
238.104
  0
LINE
  8
0
 10
-2.78932
 20
238.104
 11
-2.62891
 21
238.445
  0
LINE
  8
0
 10
-2.62891
 20
238.445
 11
-2.42705
 21
238.763
  0
LINE
  8
0
 10
-2.42705
 20
238.763
 11
-2.1869
 21
239.054
  0
LINE
  8
0
 10
-2.1869
 20
239.054
 11
-1.91226
 21
239.312
  0
LINE
  8
0
 10
-1.91226
 20
239.312
 11
-1.60747
 21
239.533
  0
LINE
  8
0
 10
-1.60747
 20
239.533
 11
-1.27733
 21
239.714
  0
LINE
  8
0
 10
-1.27733
 20
239.714
 11
-0.927048
 21
239.853
  0
LINE
  8
0
 10
-0.927048
 20
239.853
 11
-0.562134
 21
239.947
  0
LINE
  8
0
 10
-0.562134
 20
239.947
 11
-0.18837
 21
239.994
  0
LINE
  8
0
 10
-0.18837
 20
239.994
 11
0.18837
 21
239.994
  0
LINE
  8
0
 10
0.18837
 20
239.994
 11
0.562134
 21
239.947
  0
LINE
  8
0
 10
0.562134
 20
239.947
 11
0.927048
 21
239.853
  0
LINE
  8
0
 10
0.927048
 20
239.853
 11
1.27733
 21
239.714
  0
LINE
  8
0
 10
1.27733
 20
239.714
 11
1.60747
 21
239.533
  0
LINE
  8
0
 10
1.60747
 20
239.533
 11
1.91226
 21
239.312
  0
LINE
  8
0
 10
1.91226
 20
239.312
 11
2.1869
 21
239.054
  0
LINE
  8
0
 10
2.1869
 20
239.054
 11
2.42705
 21
238.763
  0
LINE
  8
0
 10
2.42705
 20
238.763
 11
2.62891
 21
238.445
  0
LINE
  8
0
 10
2.62891
 20
238.445
 11
2.78932
 21
238.104
  0
LINE
  8
0
 10
2.78932
 20
238.104
 11
2.90575
 21
237.746
  0
LINE
  8
0
 10
2.90575
 20
237.746
 11
2.97633
 21
237.376
  0
LINE
  8
0
 10
2.97633
 20
237.376
 11
3
 21
237
  0
LINE
  8
0
 10
3
 20
237
 11
2.97633
 21
236.624
  0
LINE
  8
0
 10
2.97633
 20
236.624
 11
2.90575
 21
236.254
  0
LINE
  8
0
 10
2.90575
 20
236.254
 11
2.78932
 21
235.896
  0
LINE
  8
0
 10
2.78932
 20
235.896
 11
2.62891
 21
235.555
  0
LINE
  8
0
 10
2.62891
 20
235.555
 11
2.42705
 21
235.237
  0
LINE
  8
0
 10
2.42705
 20
235.237
 11
2.1869
 21
234.946
  0
LINE
  8
0
 10
2.1869
 20
234.946
 11
1.91226
 21
234.688
  0
LINE
  8
0
 10
1.91226
 20
234.688
 11
1.60747
 21
234.467
  0
LINE
  8
0
 10
1.60747
 20
234.467
 11
1.27733
 21
234.286
  0
LINE
  8
0
 10
1.27733
 20
234.286
 11
0.927048
 21
234.147
  0
LINE
  8
0
 10
0.927048
 20
234.147
 11
0.562134
 21
234.053
  0
LINE
  8
0
 10
0.562134
 20
234.053
 11
0.18837
 21
234.006
  0
LINE
  8
0
 10
0.18837
 20
234.006
 11
-0.18837
 21
234.006
  0
LINE
  8
0
 10
29.8116
 20
234.006
 11
29.4379
 21
234.053
  0
LINE
  8
0
 10
29.4379
 20
234.053
 11
29.0729
 21
234.147
  0
LINE
  8
0
 10
29.0729
 20
234.147
 11
28.7227
 21
234.286
  0
LINE
  8
0
 10
28.7227
 20
234.286
 11
28.3925
 21
234.467
  0
LINE
  8
0
 10
28.3925
 20
234.467
 11
28.0877
 21
234.688
  0
LINE
  8
0
 10
28.0877
 20
234.688
 11
27.8131
 21
234.946
  0
LINE
  8
0
 10
27.8131
 20
234.946
 11
27.5729
 21
235.237
  0
LINE
  8
0
 10
27.5729
 20
235.237
 11
27.3711
 21
235.555
  0
LINE
  8
0
 10
27.3711
 20
235.555
 11
27.2107
 21
235.896
  0
LINE
  8
0
 10
27.2107
 20
235.896
 11
27.0942
 21
236.254
  0
LINE
  8
0
 10
27.0942
 20
236.254
 11
27.0237
 21
236.624
  0
LINE
  8
0
 10
27.0237
 20
236.624
 11
27
 21
237
  0
LINE
  8
0
 10
27
 20
237
 11
27.0237
 21
237.376
  0
LINE
  8
0
 10
27.0237
 20
237.376
 11
27.0942
 21
237.746
  0
LINE
  8
0
 10
27.0942
 20
237.746
 11
27.2107
 21
238.104
  0
LINE
  8
0
 10
27.2107
 20
238.104
 11
27.3711
 21
238.445
  0
LINE
  8
0
 10
27.3711
 20
238.445
 11
27.5729
 21
238.763
  0
LINE
  8
0
 10
27.5729
 20
238.763
 11
27.8131
 21
239.054
  0
LINE
  8
0
 10
27.8131
 20
239.054
 11
28.0877
 21
239.312
  0
LINE
  8
0
 10
28.0877
 20
239.312
 11
28.3925
 21
239.533
  0
LINE
  8
0
 10
28.3925
 20
239.533
 11
28.7227
 21
239.714
  0
LINE
  8
0
 10
28.7227
 20
239.714
 11
29.0729
 21
239.853
  0
LINE
  8
0
 10
29.0729
 20
239.853
 11
29.4379
 21
239.947
  0
LINE
  8
0
 10
29.4379
 20
239.947
 11
29.8116
 21
239.994
  0
LINE
  8
0
 10
29.8116
 20
239.994
 11
30.1884
 21
239.994
  0
LINE
  8
0
 10
30.1884
 20
239.994
 11
30.5621
 21
239.947
  0
LINE
  8
0
 10
30.5621
 20
239.947
 11
30.927
 21
239.853
  0
LINE
  8
0
 10
30.927
 20
239.853
 11
31.2773
 21
239.714
  0
LINE
  8
0
 10
31.2773
 20
239.714
 11
31.6075
 21
239.533
  0
LINE
  8
0
 10
31.6075
 20
239.533
 11
31.9123
 21
239.312
  0
LINE
  8
0
 10
31.9123
 20
239.312
 11
32.1869
 21
239.054
  0
LINE
  8
0
 10
32.1869
 20
239.054
 11
32.427
 21
238.763
  0
LINE
  8
0
 10
32.427
 20
238.763
 11
32.6289
 21
238.445
  0
LINE
  8
0
 10
32.6289
 20
238.445
 11
32.7893
 21
238.104
  0
LINE
  8
0
 10
32.7893
 20
238.104
 11
32.9057
 21
237.746
  0
LINE
  8
0
 10
32.9057
 20
237.746
 11
32.9763
 21
237.376
  0
LINE
  8
0
 10
32.9763
 20
237.376
 11
33
 21
237
  0
LINE
  8
0
 10
33
 20
237
 11
32.9763
 21
236.624
  0
LINE
  8
0
 10
32.9763
 20
236.624
 11
32.9057
 21
236.254
  0
LINE
  8
0
 10
32.9057
 20
236.254
 11
32.7893
 21
235.896
  0
LINE
  8
0
 10
32.7893
 20
235.896
 11
32.6289
 21
235.555
  0
LINE
  8
0
 10
32.6289
 20
235.555
 11
32.427
 21
235.237
  0
LINE
  8
0
 10
32.427
 20
235.237
 11
32.1869
 21
234.946
  0
LINE
  8
0
 10
32.1869
 20
234.946
 11
31.9123
 21
234.688
  0
LINE
  8
0
 10
31.9123
 20
234.688
 11
31.6075
 21
234.467
  0
LINE
  8
0
 10
31.6075
 20
234.467
 11
31.2773
 21
234.286
  0
LINE
  8
0
 10
31.2773
 20
234.286
 11
30.927
 21
234.147
  0
LINE
  8
0
 10
30.927
 20
234.147
 11
30.5621
 21
234.053
  0
LINE
  8
0
 10
30.5621
 20
234.053
 11
30.1884
 21
234.006
  0
LINE
  8
0
 10
30.1884
 20
234.006
 11
29.8116
 21
234.006
  0
LINE
  8
0
 10
-15.1884
 20
234.006
 11
-15.5621
 21
234.053
  0
LINE
  8
0
 10
-15.5621
 20
234.053
 11
-15.927
 21
234.147
  0
LINE
  8
0
 10
-15.927
 20
234.147
 11
-16.2773
 21
234.286
  0
LINE
  8
0
 10
-16.2773
 20
234.286
 11
-16.6075
 21
234.467
  0
LINE
  8
0
 10
-16.6075
 20
234.467
 11
-16.9123
 21
234.688
  0
LINE
  8
0
 10
-16.9123
 20
234.688
 11
-17.1869
 21
234.946
  0
LINE
  8
0
 10
-17.1869
 20
234.946
 11
-17.427
 21
235.237
  0
LINE
  8
0
 10
-17.427
 20
235.237
 11
-17.6289
 21
235.555
  0
LINE
  8
0
 10
-17.6289
 20
235.555
 11
-17.7893
 21
235.896
  0
LINE
  8
0
 10
-17.7893
 20
235.896
 11
-17.9057
 21
236.254
  0
LINE
  8
0
 10
-17.9057
 20
236.254
 11
-17.9763
 21
236.624
  0
LINE
  8
0
 10
-17.9763
 20
236.624
 11
-18
 21
237
  0
LINE
  8
0
 10
-18
 20
237
 11
-17.9763
 21
237.376
  0
LINE
  8
0
 10
-17.9763
 20
237.376
 11
-17.9057
 21
237.746
  0
LINE
  8
0
 10
-17.9057
 20
237.746
 11
-17.7893
 21
238.104
  0
LINE
  8
0
 10
-17.7893
 20
238.104
 11
-17.6289
 21
238.445
  0
LINE
  8
0
 10
-17.6289
 20
238.445
 11
-17.427
 21
238.763
  0
LINE
  8
0
 10
-17.427
 20
238.763
 11
-17.1869
 21
239.054
  0
LINE
  8
0
 10
-17.1869
 20
239.054
 11
-16.9123
 21
239.312
  0
LINE
  8
0
 10
-16.9123
 20
239.312
 11
-16.6075
 21
239.533
  0
LINE
  8
0
 10
-16.6075
 20
239.533
 11
-16.2773
 21
239.714
  0
LINE
  8
0
 10
-16.2773
 20
239.714
 11
-15.927
 21
239.853
  0
LINE
  8
0
 10
-15.927
 20
239.853
 11
-15.5621
 21
239.947
  0
LINE
  8
0
 10
-15.5621
 20
239.947
 11
-15.1884
 21
239.994
  0
LINE
  8
0
 10
-15.1884
 20
239.994
 11
-14.8116
 21
239.994
  0
LINE
  8
0
 10
-14.8116
 20
239.994
 11
-14.4379
 21
239.947
  0
LINE
  8
0
 10
-14.4379
 20
239.947
 11
-14.0729
 21
239.853
  0
LINE
  8
0
 10
-14.0729
 20
239.853
 11
-13.7227
 21
239.714
  0
LINE
  8
0
 10
-13.7227
 20
239.714
 11
-13.3925
 21
239.533
  0
LINE
  8
0
 10
-13.3925
 20
239.533
 11
-13.0877
 21
239.312
  0
LINE
  8
0
 10
-13.0877
 20
239.312
 11
-12.8131
 21
239.054
  0
LINE
  8
0
 10
-12.8131
 20
239.054
 11
-12.5729
 21
238.763
  0
LINE
  8
0
 10
-12.5729
 20
238.763
 11
-12.3711
 21
238.445
  0
LINE
  8
0
 10
-12.3711
 20
238.445
 11
-12.2107
 21
238.104
  0
LINE
  8
0
 10
-12.2107
 20
238.104
 11
-12.0942
 21
237.746
  0
LINE
  8
0
 10
-12.0942
 20
237.746
 11
-12.0237
 21
237.376
  0
LINE
  8
0
 10
-12.0237
 20
237.376
 11
-12
 21
237
  0
LINE
  8
0
 10
-12
 20
237
 11
-12.0237
 21
236.624
  0
LINE
  8
0
 10
-12.0237
 20
236.624
 11
-12.0942
 21
236.254
  0
LINE
  8
0
 10
-12.0942
 20
236.254
 11
-12.2107
 21
235.896
  0
LINE
  8
0
 10
-12.2107
 20
235.896
 11
-12.3711
 21
235.555
  0
LINE
  8
0
 10
-12.3711
 20
235.555
 11
-12.5729
 21
235.237
  0
LINE
  8
0
 10
-12.5729
 20
235.237
 11
-12.8131
 21
234.946
  0
LINE
  8
0
 10
-12.8131
 20
234.946
 11
-13.0877
 21
234.688
  0
LINE
  8
0
 10
-13.0877
 20
234.688
 11
-13.3925
 21
234.467
  0
LINE
  8
0
 10
-13.3925
 20
234.467
 11
-13.7227
 21
234.286
  0
LINE
  8
0
 10
-13.7227
 20
234.286
 11
-14.0729
 21
234.147
  0
LINE
  8
0
 10
-14.0729
 20
234.147
 11
-14.4379
 21
234.053
  0
LINE
  8
0
 10
-14.4379
 20
234.053
 11
-14.8116
 21
234.006
  0
LINE
  8
0
 10
-14.8116
 20
234.006
 11
-15.1884
 21
234.006
  0
LINE
  8
0
 10
-30.1884
 20
234.006
 11
-30.5621
 21
234.053
  0
LINE
  8
0
 10
-30.5621
 20
234.053
 11
-30.927
 21
234.147
  0
LINE
  8
0
 10
-30.927
 20
234.147
 11
-31.2773
 21
234.286
  0
LINE
  8
0
 10
-31.2773
 20
234.286
 11
-31.6075
 21
234.467
  0
LINE
  8
0
 10
-31.6075
 20
234.467
 11
-31.9123
 21
234.688
  0
LINE
  8
0
 10
-31.9123
 20
234.688
 11
-32.1869
 21
234.946
  0
LINE
  8
0
 10
-32.1869
 20
234.946
 11
-32.427
 21
235.237
  0
LINE
  8
0
 10
-32.427
 20
235.237
 11
-32.6289
 21
235.555
  0
LINE
  8
0
 10
-32.6289
 20
235.555
 11
-32.7893
 21
235.896
  0
LINE
  8
0
 10
-32.7893
 20
235.896
 11
-32.9057
 21
236.254
  0
LINE
  8
0
 10
-32.9057
 20
236.254
 11
-32.9763
 21
236.624
  0
LINE
  8
0
 10
-32.9763
 20
236.624
 11
-33
 21
237
  0
LINE
  8
0
 10
-33
 20
237
 11
-32.9763
 21
237.376
  0
LINE
  8
0
 10
-32.9763
 20
237.376
 11
-32.9057
 21
237.746
  0
LINE
  8
0
 10
-32.9057
 20
237.746
 11
-32.7893
 21
238.104
  0
LINE
  8
0
 10
-32.7893
 20
238.104
 11
-32.6289
 21
238.445
  0
LINE
  8
0
 10
-32.6289
 20
238.445
 11
-32.427
 21
238.763
  0
LINE
  8
0
 10
-32.427
 20
238.763
 11
-32.1869
 21
239.054
  0
LINE
  8
0
 10
-32.1869
 20
239.054
 11
-31.9123
 21
239.312
  0
LINE
  8
0
 10
-31.9123
 20
239.312
 11
-31.6075
 21
239.533
  0
LINE
  8
0
 10
-31.6075
 20
239.533
 11
-31.2773
 21
239.714
  0
LINE
  8
0
 10
-31.2773
 20
239.714
 11
-30.927
 21
239.853
  0
LINE
  8
0
 10
-30.927
 20
239.853
 11
-30.5621
 21
239.947
  0
LINE
  8
0
 10
-30.5621
 20
239.947
 11
-30.1884
 21
239.994
  0
LINE
  8
0
 10
-30.1884
 20
239.994
 11
-29.8116
 21
239.994
  0
LINE
  8
0
 10
-29.8116
 20
239.994
 11
-29.4379
 21
239.947
  0
LINE
  8
0
 10
-29.4379
 20
239.947
 11
-29.0729
 21
239.853
  0
LINE
  8
0
 10
-29.0729
 20
239.853
 11
-28.7227
 21
239.714
  0
LINE
  8
0
 10
-28.7227
 20
239.714
 11
-28.3925
 21
239.533
  0
LINE
  8
0
 10
-28.3925
 20
239.533
 11
-28.0877
 21
239.312
  0
LINE
  8
0
 10
-28.0877
 20
239.312
 11
-27.8131
 21
239.054
  0
LINE
  8
0
 10
-27.8131
 20
239.054
 11
-27.5729
 21
238.763
  0
LINE
  8
0
 10
-27.5729
 20
238.763
 11
-27.3711
 21
238.445
  0
LINE
  8
0
 10
-27.3711
 20
238.445
 11
-27.2107
 21
238.104
  0
LINE
  8
0
 10
-27.2107
 20
238.104
 11
-27.0942
 21
237.746
  0
LINE
  8
0
 10
-27.0942
 20
237.746
 11
-27.0237
 21
237.376
  0
LINE
  8
0
 10
-27.0237
 20
237.376
 11
-27
 21
237
  0
LINE
  8
0
 10
-27
 20
237
 11
-27.0237
 21
236.624
  0
LINE
  8
0
 10
-27.0237
 20
236.624
 11
-27.0942
 21
236.254
  0
LINE
  8
0
 10
-27.0942
 20
236.254
 11
-27.2107
 21
235.896
  0
LINE
  8
0
 10
-27.2107
 20
235.896
 11
-27.3711
 21
235.555
  0
LINE
  8
0
 10
-27.3711
 20
235.555
 11
-27.5729
 21
235.237
  0
LINE
  8
0
 10
-27.5729
 20
235.237
 11
-27.8131
 21
234.946
  0
LINE
  8
0
 10
-27.8131
 20
234.946
 11
-28.0877
 21
234.688
  0
LINE
  8
0
 10
-28.0877
 20
234.688
 11
-28.3925
 21
234.467
  0
LINE
  8
0
 10
-28.3925
 20
234.467
 11
-28.7227
 21
234.286
  0
LINE
  8
0
 10
-28.7227
 20
234.286
 11
-29.0729
 21
234.147
  0
LINE
  8
0
 10
-29.0729
 20
234.147
 11
-29.4379
 21
234.053
  0
LINE
  8
0
 10
-29.4379
 20
234.053
 11
-29.8116
 21
234.006
  0
LINE
  8
0
 10
-29.8116
 20
234.006
 11
-30.1884
 21
234.006
  0
LINE
  8
0
 10
-15.1884
 20
219.006
 11
-15.5621
 21
219.053
  0
LINE
  8
0
 10
-15.5621
 20
219.053
 11
-15.927
 21
219.147
  0
LINE
  8
0
 10
-15.927
 20
219.147
 11
-16.2773
 21
219.286
  0
LINE
  8
0
 10
-16.2773
 20
219.286
 11
-16.6075
 21
219.467
  0
LINE
  8
0
 10
-16.6075
 20
219.467
 11
-16.9123
 21
219.688
  0
LINE
  8
0
 10
-16.9123
 20
219.688
 11
-17.1869
 21
219.946
  0
LINE
  8
0
 10
-17.1869
 20
219.946
 11
-17.427
 21
220.237
  0
LINE
  8
0
 10
-17.427
 20
220.237
 11
-17.6289
 21
220.555
  0
LINE
  8
0
 10
-17.6289
 20
220.555
 11
-17.7893
 21
220.896
  0
LINE
  8
0
 10
-17.7893
 20
220.896
 11
-17.9057
 21
221.254
  0
LINE
  8
0
 10
-17.9057
 20
221.254
 11
-17.9763
 21
221.624
  0
LINE
  8
0
 10
-17.9763
 20
221.624
 11
-18
 21
222
  0
LINE
  8
0
 10
-18
 20
222
 11
-17.9763
 21
222.376
  0
LINE
  8
0
 10
-17.9763
 20
222.376
 11
-17.9057
 21
222.746
  0
LINE
  8
0
 10
-17.9057
 20
222.746
 11
-17.7893
 21
223.104
  0
LINE
  8
0
 10
-17.7893
 20
223.104
 11
-17.6289
 21
223.445
  0
LINE
  8
0
 10
-17.6289
 20
223.445
 11
-17.427
 21
223.763
  0
LINE
  8
0
 10
-17.427
 20
223.763
 11
-17.1869
 21
224.054
  0
LINE
  8
0
 10
-17.1869
 20
224.054
 11
-16.9123
 21
224.312
  0
LINE
  8
0
 10
-16.9123
 20
224.312
 11
-16.6075
 21
224.533
  0
LINE
  8
0
 10
-16.6075
 20
224.533
 11
-16.2773
 21
224.714
  0
LINE
  8
0
 10
-16.2773
 20
224.714
 11
-15.927
 21
224.853
  0
LINE
  8
0
 10
-15.927
 20
224.853
 11
-15.5621
 21
224.947
  0
LINE
  8
0
 10
-15.5621
 20
224.947
 11
-15.1884
 21
224.994
  0
LINE
  8
0
 10
-15.1884
 20
224.994
 11
-14.8116
 21
224.994
  0
LINE
  8
0
 10
-14.8116
 20
224.994
 11
-14.4379
 21
224.947
  0
LINE
  8
0
 10
-14.4379
 20
224.947
 11
-14.0729
 21
224.853
  0
LINE
  8
0
 10
-14.0729
 20
224.853
 11
-13.7227
 21
224.714
  0
LINE
  8
0
 10
-13.7227
 20
224.714
 11
-13.3925
 21
224.533
  0
LINE
  8
0
 10
-13.3925
 20
224.533
 11
-13.0877
 21
224.312
  0
LINE
  8
0
 10
-13.0877
 20
224.312
 11
-12.8131
 21
224.054
  0
LINE
  8
0
 10
-12.8131
 20
224.054
 11
-12.5729
 21
223.763
  0
LINE
  8
0
 10
-12.5729
 20
223.763
 11
-12.3711
 21
223.445
  0
LINE
  8
0
 10
-12.3711
 20
223.445
 11
-12.2107
 21
223.104
  0
LINE
  8
0
 10
-12.2107
 20
223.104
 11
-12.0942
 21
222.746
  0
LINE
  8
0
 10
-12.0942
 20
222.746
 11
-12.0237
 21
222.376
  0
LINE
  8
0
 10
-12.0237
 20
222.376
 11
-12
 21
222
  0
LINE
  8
0
 10
-12
 20
222
 11
-12.0237
 21
221.624
  0
LINE
  8
0
 10
-12.0237
 20
221.624
 11
-12.0942
 21
221.254
  0
LINE
  8
0
 10
-12.0942
 20
221.254
 11
-12.2107
 21
220.896
  0
LINE
  8
0
 10
-12.2107
 20
220.896
 11
-12.3711
 21
220.555
  0
LINE
  8
0
 10
-12.3711
 20
220.555
 11
-12.5729
 21
220.237
  0
LINE
  8
0
 10
-12.5729
 20
220.237
 11
-12.8131
 21
219.946
  0
LINE
  8
0
 10
-12.8131
 20
219.946
 11
-13.0877
 21
219.688
  0
LINE
  8
0
 10
-13.0877
 20
219.688
 11
-13.3925
 21
219.467
  0
LINE
  8
0
 10
-13.3925
 20
219.467
 11
-13.7227
 21
219.286
  0
LINE
  8
0
 10
-13.7227
 20
219.286
 11
-14.0729
 21
219.147
  0
LINE
  8
0
 10
-14.0729
 20
219.147
 11
-14.4379
 21
219.053
  0
LINE
  8
0
 10
-14.4379
 20
219.053
 11
-14.8116
 21
219.006
  0
LINE
  8
0
 10
-14.8116
 20
219.006
 11
-15.1884
 21
219.006
  0
LINE
  8
0
 10
14.8116
 20
219.006
 11
14.4379
 21
219.053
  0
LINE
  8
0
 10
14.4379
 20
219.053
 11
14.0729
 21
219.147
  0
LINE
  8
0
 10
14.0729
 20
219.147
 11
13.7227
 21
219.286
  0
LINE
  8
0
 10
13.7227
 20
219.286
 11
13.3925
 21
219.467
  0
LINE
  8
0
 10
13.3925
 20
219.467
 11
13.0877
 21
219.688
  0
LINE
  8
0
 10
13.0877
 20
219.688
 11
12.8131
 21
219.946
  0
LINE
  8
0
 10
12.8131
 20
219.946
 11
12.5729
 21
220.237
  0
LINE
  8
0
 10
12.5729
 20
220.237
 11
12.3711
 21
220.555
  0
LINE
  8
0
 10
12.3711
 20
220.555
 11
12.2107
 21
220.896
  0
LINE
  8
0
 10
12.2107
 20
220.896
 11
12.0942
 21
221.254
  0
LINE
  8
0
 10
12.0942
 20
221.254
 11
12.0237
 21
221.624
  0
LINE
  8
0
 10
12.0237
 20
221.624
 11
12
 21
222
  0
LINE
  8
0
 10
12
 20
222
 11
12.0237
 21
222.376
  0
LINE
  8
0
 10
12.0237
 20
222.376
 11
12.0942
 21
222.746
  0
LINE
  8
0
 10
12.0942
 20
222.746
 11
12.2107
 21
223.104
  0
LINE
  8
0
 10
12.2107
 20
223.104
 11
12.3711
 21
223.445
  0
LINE
  8
0
 10
12.3711
 20
223.445
 11
12.5729
 21
223.763
  0
LINE
  8
0
 10
12.5729
 20
223.763
 11
12.8131
 21
224.054
  0
LINE
  8
0
 10
12.8131
 20
224.054
 11
13.0877
 21
224.312
  0
LINE
  8
0
 10
13.0877
 20
224.312
 11
13.3925
 21
224.533
  0
LINE
  8
0
 10
13.3925
 20
224.533
 11
13.7227
 21
224.714
  0
LINE
  8
0
 10
13.7227
 20
224.714
 11
14.0729
 21
224.853
  0
LINE
  8
0
 10
14.0729
 20
224.853
 11
14.4379
 21
224.947
  0
LINE
  8
0
 10
14.4379
 20
224.947
 11
14.8116
 21
224.994
  0
LINE
  8
0
 10
14.8116
 20
224.994
 11
15.1884
 21
224.994
  0
LINE
  8
0
 10
15.1884
 20
224.994
 11
15.5621
 21
224.947
  0
LINE
  8
0
 10
15.5621
 20
224.947
 11
15.927
 21
224.853
  0
LINE
  8
0
 10
15.927
 20
224.853
 11
16.2773
 21
224.714
  0
LINE
  8
0
 10
16.2773
 20
224.714
 11
16.6075
 21
224.533
  0
LINE
  8
0
 10
16.6075
 20
224.533
 11
16.9123
 21
224.312
  0
LINE
  8
0
 10
16.9123
 20
224.312
 11
17.1869
 21
224.054
  0
LINE
  8
0
 10
17.1869
 20
224.054
 11
17.427
 21
223.763
  0
LINE
  8
0
 10
17.427
 20
223.763
 11
17.6289
 21
223.445
  0
LINE
  8
0
 10
17.6289
 20
223.445
 11
17.7893
 21
223.104
  0
LINE
  8
0
 10
17.7893
 20
223.104
 11
17.9057
 21
222.746
  0
LINE
  8
0
 10
17.9057
 20
222.746
 11
17.9763
 21
222.376
  0
LINE
  8
0
 10
17.9763
 20
222.376
 11
18
 21
222
  0
LINE
  8
0
 10
18
 20
222
 11
17.9763
 21
221.624
  0
LINE
  8
0
 10
17.9763
 20
221.624
 11
17.9057
 21
221.254
  0
LINE
  8
0
 10
17.9057
 20
221.254
 11
17.7893
 21
220.896
  0
LINE
  8
0
 10
17.7893
 20
220.896
 11
17.6289
 21
220.555
  0
LINE
  8
0
 10
17.6289
 20
220.555
 11
17.427
 21
220.237
  0
LINE
  8
0
 10
17.427
 20
220.237
 11
17.1869
 21
219.946
  0
LINE
  8
0
 10
17.1869
 20
219.946
 11
16.9123
 21
219.688
  0
LINE
  8
0
 10
16.9123
 20
219.688
 11
16.6075
 21
219.467
  0
LINE
  8
0
 10
16.6075
 20
219.467
 11
16.2773
 21
219.286
  0
LINE
  8
0
 10
16.2773
 20
219.286
 11
15.927
 21
219.147
  0
LINE
  8
0
 10
15.927
 20
219.147
 11
15.5621
 21
219.053
  0
LINE
  8
0
 10
15.5621
 20
219.053
 11
15.1884
 21
219.006
  0
LINE
  8
0
 10
15.1884
 20
219.006
 11
14.8116
 21
219.006
  0
LINE
  8
0
 10
-30.1884
 20
219.006
 11
-30.5621
 21
219.053
  0
LINE
  8
0
 10
-30.5621
 20
219.053
 11
-30.927
 21
219.147
  0
LINE
  8
0
 10
-30.927
 20
219.147
 11
-31.2773
 21
219.286
  0
LINE
  8
0
 10
-31.2773
 20
219.286
 11
-31.6075
 21
219.467
  0
LINE
  8
0
 10
-31.6075
 20
219.467
 11
-31.9123
 21
219.688
  0
LINE
  8
0
 10
-31.9123
 20
219.688
 11
-32.1869
 21
219.946
  0
LINE
  8
0
 10
-32.1869
 20
219.946
 11
-32.427
 21
220.237
  0
LINE
  8
0
 10
-32.427
 20
220.237
 11
-32.6289
 21
220.555
  0
LINE
  8
0
 10
-32.6289
 20
220.555
 11
-32.7893
 21
220.896
  0
LINE
  8
0
 10
-32.7893
 20
220.896
 11
-32.9057
 21
221.254
  0
LINE
  8
0
 10
-32.9057
 20
221.254
 11
-32.9763
 21
221.624
  0
LINE
  8
0
 10
-32.9763
 20
221.624
 11
-33
 21
222
  0
LINE
  8
0
 10
-33
 20
222
 11
-32.9763
 21
222.376
  0
LINE
  8
0
 10
-32.9763
 20
222.376
 11
-32.9057
 21
222.746
  0
LINE
  8
0
 10
-32.9057
 20
222.746
 11
-32.7893
 21
223.104
  0
LINE
  8
0
 10
-32.7893
 20
223.104
 11
-32.6289
 21
223.445
  0
LINE
  8
0
 10
-32.6289
 20
223.445
 11
-32.427
 21
223.763
  0
LINE
  8
0
 10
-32.427
 20
223.763
 11
-32.1869
 21
224.054
  0
LINE
  8
0
 10
-32.1869
 20
224.054
 11
-31.9123
 21
224.312
  0
LINE
  8
0
 10
-31.9123
 20
224.312
 11
-31.6075
 21
224.533
  0
LINE
  8
0
 10
-31.6075
 20
224.533
 11
-31.2773
 21
224.714
  0
LINE
  8
0
 10
-31.2773
 20
224.714
 11
-30.927
 21
224.853
  0
LINE
  8
0
 10
-30.927
 20
224.853
 11
-30.5621
 21
224.947
  0
LINE
  8
0
 10
-30.5621
 20
224.947
 11
-30.1884
 21
224.994
  0
LINE
  8
0
 10
-30.1884
 20
224.994
 11
-29.8116
 21
224.994
  0
LINE
  8
0
 10
-29.8116
 20
224.994
 11
-29.4379
 21
224.947
  0
LINE
  8
0
 10
-29.4379
 20
224.947
 11
-29.0729
 21
224.853
  0
LINE
  8
0
 10
-29.0729
 20
224.853
 11
-28.7227
 21
224.714
  0
LINE
  8
0
 10
-28.7227
 20
224.714
 11
-28.3925
 21
224.533
  0
LINE
  8
0
 10
-28.3925
 20
224.533
 11
-28.0877
 21
224.312
  0
LINE
  8
0
 10
-28.0877
 20
224.312
 11
-27.8131
 21
224.054
  0
LINE
  8
0
 10
-27.8131
 20
224.054
 11
-27.5729
 21
223.763
  0
LINE
  8
0
 10
-27.5729
 20
223.763
 11
-27.3711
 21
223.445
  0
LINE
  8
0
 10
-27.3711
 20
223.445
 11
-27.2107
 21
223.104
  0
LINE
  8
0
 10
-27.2107
 20
223.104
 11
-27.0942
 21
222.746
  0
LINE
  8
0
 10
-27.0942
 20
222.746
 11
-27.0237
 21
222.376
  0
LINE
  8
0
 10
-27.0237
 20
222.376
 11
-27
 21
222
  0
LINE
  8
0
 10
-27
 20
222
 11
-27.0237
 21
221.624
  0
LINE
  8
0
 10
-27.0237
 20
221.624
 11
-27.0942
 21
221.254
  0
LINE
  8
0
 10
-27.0942
 20
221.254
 11
-27.2107
 21
220.896
  0
LINE
  8
0
 10
-27.2107
 20
220.896
 11
-27.3711
 21
220.555
  0
LINE
  8
0
 10
-27.3711
 20
220.555
 11
-27.5729
 21
220.237
  0
LINE
  8
0
 10
-27.5729
 20
220.237
 11
-27.8131
 21
219.946
  0
LINE
  8
0
 10
-27.8131
 20
219.946
 11
-28.0877
 21
219.688
  0
LINE
  8
0
 10
-28.0877
 20
219.688
 11
-28.3925
 21
219.467
  0
LINE
  8
0
 10
-28.3925
 20
219.467
 11
-28.7227
 21
219.286
  0
LINE
  8
0
 10
-28.7227
 20
219.286
 11
-29.0729
 21
219.147
  0
LINE
  8
0
 10
-29.0729
 20
219.147
 11
-29.4379
 21
219.053
  0
LINE
  8
0
 10
-29.4379
 20
219.053
 11
-29.8116
 21
219.006
  0
LINE
  8
0
 10
-29.8116
 20
219.006
 11
-30.1884
 21
219.006
  0
LINE
  8
0
 10
-0.18837
 20
219.006
 11
-0.562134
 21
219.053
  0
LINE
  8
0
 10
-0.562134
 20
219.053
 11
-0.927048
 21
219.147
  0
LINE
  8
0
 10
-0.927048
 20
219.147
 11
-1.27733
 21
219.286
  0
LINE
  8
0
 10
-1.27733
 20
219.286
 11
-1.60747
 21
219.467
  0
LINE
  8
0
 10
-1.60747
 20
219.467
 11
-1.91226
 21
219.688
  0
LINE
  8
0
 10
-1.91226
 20
219.688
 11
-2.1869
 21
219.946
  0
LINE
  8
0
 10
-2.1869
 20
219.946
 11
-2.42705
 21
220.237
  0
LINE
  8
0
 10
-2.42705
 20
220.237
 11
-2.62891
 21
220.555
  0
LINE
  8
0
 10
-2.62891
 20
220.555
 11
-2.78932
 21
220.896
  0
LINE
  8
0
 10
-2.78932
 20
220.896
 11
-2.90575
 21
221.254
  0
LINE
  8
0
 10
-2.90575
 20
221.254
 11
-2.97633
 21
221.624
  0
LINE
  8
0
 10
-2.97633
 20
221.624
 11
-3
 21
222
  0
LINE
  8
0
 10
-3
 20
222
 11
-2.97633
 21
222.376
  0
LINE
  8
0
 10
-2.97633
 20
222.376
 11
-2.90575
 21
222.746
  0
LINE
  8
0
 10
-2.90575
 20
222.746
 11
-2.78932
 21
223.104
  0
LINE
  8
0
 10
-2.78932
 20
223.104
 11
-2.62891
 21
223.445
  0
LINE
  8
0
 10
-2.62891
 20
223.445
 11
-2.42705
 21
223.763
  0
LINE
  8
0
 10
-2.42705
 20
223.763
 11
-2.1869
 21
224.054
  0
LINE
  8
0
 10
-2.1869
 20
224.054
 11
-1.91226
 21
224.312
  0
LINE
  8
0
 10
-1.91226
 20
224.312
 11
-1.60747
 21
224.533
  0
LINE
  8
0
 10
-1.60747
 20
224.533
 11
-1.27733
 21
224.714
  0
LINE
  8
0
 10
-1.27733
 20
224.714
 11
-0.927048
 21
224.853
  0
LINE
  8
0
 10
-0.927048
 20
224.853
 11
-0.562134
 21
224.947
  0
LINE
  8
0
 10
-0.562134
 20
224.947
 11
-0.18837
 21
224.994
  0
LINE
  8
0
 10
-0.18837
 20
224.994
 11
0.18837
 21
224.994
  0
LINE
  8
0
 10
0.18837
 20
224.994
 11
0.562134
 21
224.947
  0
LINE
  8
0
 10
0.562134
 20
224.947
 11
0.927048
 21
224.853
  0
LINE
  8
0
 10
0.927048
 20
224.853
 11
1.27733
 21
224.714
  0
LINE
  8
0
 10
1.27733
 20
224.714
 11
1.60747
 21
224.533
  0
LINE
  8
0
 10
1.60747
 20
224.533
 11
1.91226
 21
224.312
  0
LINE
  8
0
 10
1.91226
 20
224.312
 11
2.1869
 21
224.054
  0
LINE
  8
0
 10
2.1869
 20
224.054
 11
2.42705
 21
223.763
  0
LINE
  8
0
 10
2.42705
 20
223.763
 11
2.62891
 21
223.445
  0
LINE
  8
0
 10
2.62891
 20
223.445
 11
2.78932
 21
223.104
  0
LINE
  8
0
 10
2.78932
 20
223.104
 11
2.90575
 21
222.746
  0
LINE
  8
0
 10
2.90575
 20
222.746
 11
2.97633
 21
222.376
  0
LINE
  8
0
 10
2.97633
 20
222.376
 11
3
 21
222
  0
LINE
  8
0
 10
3
 20
222
 11
2.97633
 21
221.624
  0
LINE
  8
0
 10
2.97633
 20
221.624
 11
2.90575
 21
221.254
  0
LINE
  8
0
 10
2.90575
 20
221.254
 11
2.78932
 21
220.896
  0
LINE
  8
0
 10
2.78932
 20
220.896
 11
2.62891
 21
220.555
  0
LINE
  8
0
 10
2.62891
 20
220.555
 11
2.42705
 21
220.237
  0
LINE
  8
0
 10
2.42705
 20
220.237
 11
2.1869
 21
219.946
  0
LINE
  8
0
 10
2.1869
 20
219.946
 11
1.91226
 21
219.688
  0
LINE
  8
0
 10
1.91226
 20
219.688
 11
1.60747
 21
219.467
  0
LINE
  8
0
 10
1.60747
 20
219.467
 11
1.27733
 21
219.286
  0
LINE
  8
0
 10
1.27733
 20
219.286
 11
0.927048
 21
219.147
  0
LINE
  8
0
 10
0.927048
 20
219.147
 11
0.562134
 21
219.053
  0
LINE
  8
0
 10
0.562134
 20
219.053
 11
0.18837
 21
219.006
  0
LINE
  8
0
 10
0.18837
 20
219.006
 11
-0.18837
 21
219.006
  0
LINE
  8
0
 10
29.8116
 20
219.006
 11
29.4379
 21
219.053
  0
LINE
  8
0
 10
29.4379
 20
219.053
 11
29.0729
 21
219.147
  0
LINE
  8
0
 10
29.0729
 20
219.147
 11
28.7227
 21
219.286
  0
LINE
  8
0
 10
28.7227
 20
219.286
 11
28.3925
 21
219.467
  0
LINE
  8
0
 10
28.3925
 20
219.467
 11
28.0877
 21
219.688
  0
LINE
  8
0
 10
28.0877
 20
219.688
 11
27.8131
 21
219.946
  0
LINE
  8
0
 10
27.8131
 20
219.946
 11
27.5729
 21
220.237
  0
LINE
  8
0
 10
27.5729
 20
220.237
 11
27.3711
 21
220.555
  0
LINE
  8
0
 10
27.3711
 20
220.555
 11
27.2107
 21
220.896
  0
LINE
  8
0
 10
27.2107
 20
220.896
 11
27.0942
 21
221.254
  0
LINE
  8
0
 10
27.0942
 20
221.254
 11
27.0237
 21
221.624
  0
LINE
  8
0
 10
27.0237
 20
221.624
 11
27
 21
222
  0
LINE
  8
0
 10
27
 20
222
 11
27.0237
 21
222.376
  0
LINE
  8
0
 10
27.0237
 20
222.376
 11
27.0942
 21
222.746
  0
LINE
  8
0
 10
27.0942
 20
222.746
 11
27.2107
 21
223.104
  0
LINE
  8
0
 10
27.2107
 20
223.104
 11
27.3711
 21
223.445
  0
LINE
  8
0
 10
27.3711
 20
223.445
 11
27.5729
 21
223.763
  0
LINE
  8
0
 10
27.5729
 20
223.763
 11
27.8131
 21
224.054
  0
LINE
  8
0
 10
27.8131
 20
224.054
 11
28.0877
 21
224.312
  0
LINE
  8
0
 10
28.0877
 20
224.312
 11
28.3925
 21
224.533
  0
LINE
  8
0
 10
28.3925
 20
224.533
 11
28.7227
 21
224.714
  0
LINE
  8
0
 10
28.7227
 20
224.714
 11
29.0729
 21
224.853
  0
LINE
  8
0
 10
29.0729
 20
224.853
 11
29.4379
 21
224.947
  0
LINE
  8
0
 10
29.4379
 20
224.947
 11
29.8116
 21
224.994
  0
LINE
  8
0
 10
29.8116
 20
224.994
 11
30.1884
 21
224.994
  0
LINE
  8
0
 10
30.1884
 20
224.994
 11
30.5621
 21
224.947
  0
LINE
  8
0
 10
30.5621
 20
224.947
 11
30.927
 21
224.853
  0
LINE
  8
0
 10
30.927
 20
224.853
 11
31.2773
 21
224.714
  0
LINE
  8
0
 10
31.2773
 20
224.714
 11
31.6075
 21
224.533
  0
LINE
  8
0
 10
31.6075
 20
224.533
 11
31.9123
 21
224.312
  0
LINE
  8
0
 10
31.9123
 20
224.312
 11
32.1869
 21
224.054
  0
LINE
  8
0
 10
32.1869
 20
224.054
 11
32.427
 21
223.763
  0
LINE
  8
0
 10
32.427
 20
223.763
 11
32.6289
 21
223.445
  0
LINE
  8
0
 10
32.6289
 20
223.445
 11
32.7893
 21
223.104
  0
LINE
  8
0
 10
32.7893
 20
223.104
 11
32.9057
 21
222.746
  0
LINE
  8
0
 10
32.9057
 20
222.746
 11
32.9763
 21
222.376
  0
LINE
  8
0
 10
32.9763
 20
222.376
 11
33
 21
222
  0
LINE
  8
0
 10
33
 20
222
 11
32.9763
 21
221.624
  0
LINE
  8
0
 10
32.9763
 20
221.624
 11
32.9057
 21
221.254
  0
LINE
  8
0
 10
32.9057
 20
221.254
 11
32.7893
 21
220.896
  0
LINE
  8
0
 10
32.7893
 20
220.896
 11
32.6289
 21
220.555
  0
LINE
  8
0
 10
32.6289
 20
220.555
 11
32.427
 21
220.237
  0
LINE
  8
0
 10
32.427
 20
220.237
 11
32.1869
 21
219.946
  0
LINE
  8
0
 10
32.1869
 20
219.946
 11
31.9123
 21
219.688
  0
LINE
  8
0
 10
31.9123
 20
219.688
 11
31.6075
 21
219.467
  0
LINE
  8
0
 10
31.6075
 20
219.467
 11
31.2773
 21
219.286
  0
LINE
  8
0
 10
31.2773
 20
219.286
 11
30.927
 21
219.147
  0
LINE
  8
0
 10
30.927
 20
219.147
 11
30.5621
 21
219.053
  0
LINE
  8
0
 10
30.5621
 20
219.053
 11
30.1884
 21
219.006
  0
LINE
  8
0
 10
30.1884
 20
219.006
 11
29.8116
 21
219.006
  0
LINE
  8
0
 10
32.9369
 20
131.089
 11
33.5451
 21
131.245
  0
LINE
  8
0
 10
33.5451
 20
131.245
 11
34.1289
 21
131.476
  0
LINE
  8
0
 10
34.1289
 20
131.476
 11
34.6791
 21
131.778
  0
LINE
  8
0
 10
34.6791
 20
131.778
 11
35.1871
 21
132.147
  0
LINE
  8
0
 10
35.1871
 20
132.147
 11
35.6448
 21
132.577
  0
LINE
  8
0
 10
35.6448
 20
132.577
 11
36.0451
 21
133.061
  0
LINE
  8
0
 10
36.0451
 20
133.061
 11
36.3815
 21
133.591
  0
LINE
  8
0
 10
36.3815
 20
133.591
 11
36.6489
 21
134.159
  0
LINE
  8
0
 10
36.6489
 20
134.159
 11
36.8429
 21
134.757
  0
LINE
  8
0
 10
36.8429
 20
134.757
 11
36.9606
 21
135.373
  0
LINE
  8
0
 10
36.9606
 20
135.373
 11
37
 21
136
  0
LINE
  8
0
 10
37
 20
136
 11
37
 21
200
  0
LINE
  8
0
 10
37
 20
200
 11
36.9606
 21
200.627
  0
LINE
  8
0
 10
36.9606
 20
200.627
 11
36.8429
 21
201.243
  0
LINE
  8
0
 10
36.8429
 20
201.243
 11
36.6489
 21
201.841
  0
LINE
  8
0
 10
36.6489
 20
201.841
 11
36.3815
 21
202.409
  0
LINE
  8
0
 10
36.3815
 20
202.409
 11
36.0451
 21
202.939
  0
LINE
  8
0
 10
36.0451
 20
202.939
 11
35.6448
 21
203.423
  0
LINE
  8
0
 10
35.6448
 20
203.423
 11
35.1871
 21
203.853
  0
LINE
  8
0
 10
35.1871
 20
203.853
 11
34.6791
 21
204.222
  0
LINE
  8
0
 10
34.6791
 20
204.222
 11
34.1289
 21
204.524
  0
LINE
  8
0
 10
34.1289
 20
204.524
 11
33.5451
 21
204.755
  0
LINE
  8
0
 10
33.5451
 20
204.755
 11
32.9369
 21
204.911
  0
LINE
  8
0
 10
32.9369
 20
204.911
 11
32.3139
 21
204.99
  0
LINE
  8
0
 10
32.3139
 20
204.99
 11
-32.3139
 21
204.99
  0
LINE
  8
0
 10
-32.3139
 20
204.99
 11
-32.9369
 21
204.911
  0
LINE
  8
0
 10
-32.9369
 20
204.911
 11
-33.5451
 21
204.755
  0
LINE
  8
0
 10
-33.5451
 20
204.755
 11
-34.1289
 21
204.524
  0
LINE
  8
0
 10
-34.1289
 20
204.524
 11
-34.6791
 21
204.222
  0
LINE
  8
0
 10
-34.6791
 20
204.222
 11
-35.1871
 21
203.853
  0
LINE
  8
0
 10
-35.1871
 20
203.853
 11
-35.6448
 21
203.423
  0
LINE
  8
0
 10
-35.6448
 20
203.423
 11
-36.0451
 21
202.939
  0
LINE
  8
0
 10
-36.0451
 20
202.939
 11
-36.3815
 21
202.409
  0
LINE
  8
0
 10
-36.3815
 20
202.409
 11
-36.6489
 21
201.841
  0
LINE
  8
0
 10
-36.6489
 20
201.841
 11
-36.8429
 21
201.243
  0
LINE
  8
0
 10
-36.8429
 20
201.243
 11
-36.9606
 21
200.627
  0
LINE
  8
0
 10
-36.9606
 20
200.627
 11
-37
 21
200
  0
LINE
  8
0
 10
-37
 20
200
 11
-37
 21
136
  0
LINE
  8
0
 10
-37
 20
136
 11
-36.9606
 21
135.373
  0
LINE
  8
0
 10
-36.9606
 20
135.373
 11
-36.8429
 21
134.757
  0
LINE
  8
0
 10
-36.8429
 20
134.757
 11
-36.6489
 21
134.159
  0
LINE
  8
0
 10
-36.6489
 20
134.159
 11
-36.3815
 21
133.591
  0
LINE
  8
0
 10
-36.3815
 20
133.591
 11
-36.0451
 21
133.061
  0
LINE
  8
0
 10
-36.0451
 20
133.061
 11
-35.6448
 21
132.577
  0
LINE
  8
0
 10
-35.6448
 20
132.577
 11
-35.1871
 21
132.147
  0
LINE
  8
0
 10
-35.1871
 20
132.147
 11
-34.6791
 21
131.778
  0
LINE
  8
0
 10
-34.6791
 20
131.778
 11
-34.1289
 21
131.476
  0
LINE
  8
0
 10
-34.1289
 20
131.476
 11
-33.5451
 21
131.245
  0
LINE
  8
0
 10
-33.5451
 20
131.245
 11
-32.9369
 21
131.089
  0
LINE
  8
0
 10
-32.9369
 20
131.089
 11
-32.3139
 21
131.01
  0
LINE
  8
0
 10
-32.3139
 20
131.01
 11
32.3139
 21
131.01
  0
LINE
  8
0
 10
32.3139
 20
131.01
 11
32.9369
 21
131.089
  0
LINE
  8
0
 10
-15.1884
 20
195.006
 11
-15.5621
 21
195.053
  0
LINE
  8
0
 10
-15.5621
 20
195.053
 11
-15.927
 21
195.147
  0
LINE
  8
0
 10
-15.927
 20
195.147
 11
-16.2773
 21
195.286
  0
LINE
  8
0
 10
-16.2773
 20
195.286
 11
-16.6075
 21
195.467
  0
LINE
  8
0
 10
-16.6075
 20
195.467
 11
-16.9123
 21
195.688
  0
LINE
  8
0
 10
-16.9123
 20
195.688
 11
-17.1869
 21
195.946
  0
LINE
  8
0
 10
-17.1869
 20
195.946
 11
-17.427
 21
196.237
  0
LINE
  8
0
 10
-17.427
 20
196.237
 11
-17.6289
 21
196.555
  0
LINE
  8
0
 10
-17.6289
 20
196.555
 11
-17.7893
 21
196.896
  0
LINE
  8
0
 10
-17.7893
 20
196.896
 11
-17.9057
 21
197.254
  0
LINE
  8
0
 10
-17.9057
 20
197.254
 11
-17.9763
 21
197.624
  0
LINE
  8
0
 10
-17.9763
 20
197.624
 11
-18
 21
198
  0
LINE
  8
0
 10
-18
 20
198
 11
-17.9763
 21
198.376
  0
LINE
  8
0
 10
-17.9763
 20
198.376
 11
-17.9057
 21
198.746
  0
LINE
  8
0
 10
-17.9057
 20
198.746
 11
-17.7893
 21
199.104
  0
LINE
  8
0
 10
-17.7893
 20
199.104
 11
-17.6289
 21
199.445
  0
LINE
  8
0
 10
-17.6289
 20
199.445
 11
-17.427
 21
199.763
  0
LINE
  8
0
 10
-17.427
 20
199.763
 11
-17.1869
 21
200.054
  0
LINE
  8
0
 10
-17.1869
 20
200.054
 11
-16.9123
 21
200.312
  0
LINE
  8
0
 10
-16.9123
 20
200.312
 11
-16.6075
 21
200.533
  0
LINE
  8
0
 10
-16.6075
 20
200.533
 11
-16.2773
 21
200.714
  0
LINE
  8
0
 10
-16.2773
 20
200.714
 11
-15.927
 21
200.853
  0
LINE
  8
0
 10
-15.927
 20
200.853
 11
-15.5621
 21
200.947
  0
LINE
  8
0
 10
-15.5621
 20
200.947
 11
-15.1884
 21
200.994
  0
LINE
  8
0
 10
-15.1884
 20
200.994
 11
-14.8116
 21
200.994
  0
LINE
  8
0
 10
-14.8116
 20
200.994
 11
-14.4379
 21
200.947
  0
LINE
  8
0
 10
-14.4379
 20
200.947
 11
-14.0729
 21
200.853
  0
LINE
  8
0
 10
-14.0729
 20
200.853
 11
-13.7227
 21
200.714
  0
LINE
  8
0
 10
-13.7227
 20
200.714
 11
-13.3925
 21
200.533
  0
LINE
  8
0
 10
-13.3925
 20
200.533
 11
-13.0877
 21
200.312
  0
LINE
  8
0
 10
-13.0877
 20
200.312
 11
-12.8131
 21
200.054
  0
LINE
  8
0
 10
-12.8131
 20
200.054
 11
-12.5729
 21
199.763
  0
LINE
  8
0
 10
-12.5729
 20
199.763
 11
-12.3711
 21
199.445
  0
LINE
  8
0
 10
-12.3711
 20
199.445
 11
-12.2107
 21
199.104
  0
LINE
  8
0
 10
-12.2107
 20
199.104
 11
-12.0942
 21
198.746
  0
LINE
  8
0
 10
-12.0942
 20
198.746
 11
-12.0237
 21
198.376
  0
LINE
  8
0
 10
-12.0237
 20
198.376
 11
-12
 21
198
  0
LINE
  8
0
 10
-12
 20
198
 11
-12.0237
 21
197.624
  0
LINE
  8
0
 10
-12.0237
 20
197.624
 11
-12.0942
 21
197.254
  0
LINE
  8
0
 10
-12.0942
 20
197.254
 11
-12.2107
 21
196.896
  0
LINE
  8
0
 10
-12.2107
 20
196.896
 11
-12.3711
 21
196.555
  0
LINE
  8
0
 10
-12.3711
 20
196.555
 11
-12.5729
 21
196.237
  0
LINE
  8
0
 10
-12.5729
 20
196.237
 11
-12.8131
 21
195.946
  0
LINE
  8
0
 10
-12.8131
 20
195.946
 11
-13.0877
 21
195.688
  0
LINE
  8
0
 10
-13.0877
 20
195.688
 11
-13.3925
 21
195.467
  0
LINE
  8
0
 10
-13.3925
 20
195.467
 11
-13.7227
 21
195.286
  0
LINE
  8
0
 10
-13.7227
 20
195.286
 11
-14.0729
 21
195.147
  0
LINE
  8
0
 10
-14.0729
 20
195.147
 11
-14.4379
 21
195.053
  0
LINE
  8
0
 10
-14.4379
 20
195.053
 11
-14.8116
 21
195.006
  0
LINE
  8
0
 10
-14.8116
 20
195.006
 11
-15.1884
 21
195.006
  0
LINE
  8
0
 10
-0.18837
 20
195.006
 11
-0.562134
 21
195.053
  0
LINE
  8
0
 10
-0.562134
 20
195.053
 11
-0.927048
 21
195.147
  0
LINE
  8
0
 10
-0.927048
 20
195.147
 11
-1.27733
 21
195.286
  0
LINE
  8
0
 10
-1.27733
 20
195.286
 11
-1.60747
 21
195.467
  0
LINE
  8
0
 10
-1.60747
 20
195.467
 11
-1.91226
 21
195.688
  0
LINE
  8
0
 10
-1.91226
 20
195.688
 11
-2.1869
 21
195.946
  0
LINE
  8
0
 10
-2.1869
 20
195.946
 11
-2.42705
 21
196.237
  0
LINE
  8
0
 10
-2.42705
 20
196.237
 11
-2.62891
 21
196.555
  0
LINE
  8
0
 10
-2.62891
 20
196.555
 11
-2.78932
 21
196.896
  0
LINE
  8
0
 10
-2.78932
 20
196.896
 11
-2.90575
 21
197.254
  0
LINE
  8
0
 10
-2.90575
 20
197.254
 11
-2.97633
 21
197.624
  0
LINE
  8
0
 10
-2.97633
 20
197.624
 11
-3
 21
198
  0
LINE
  8
0
 10
-3
 20
198
 11
-2.97633
 21
198.376
  0
LINE
  8
0
 10
-2.97633
 20
198.376
 11
-2.90575
 21
198.746
  0
LINE
  8
0
 10
-2.90575
 20
198.746
 11
-2.78932
 21
199.104
  0
LINE
  8
0
 10
-2.78932
 20
199.104
 11
-2.62891
 21
199.445
  0
LINE
  8
0
 10
-2.62891
 20
199.445
 11
-2.42705
 21
199.763
  0
LINE
  8
0
 10
-2.42705
 20
199.763
 11
-2.1869
 21
200.054
  0
LINE
  8
0
 10
-2.1869
 20
200.054
 11
-1.91226
 21
200.312
  0
LINE
  8
0
 10
-1.91226
 20
200.312
 11
-1.60747
 21
200.533
  0
LINE
  8
0
 10
-1.60747
 20
200.533
 11
-1.27733
 21
200.714
  0
LINE
  8
0
 10
-1.27733
 20
200.714
 11
-0.927048
 21
200.853
  0
LINE
  8
0
 10
-0.927048
 20
200.853
 11
-0.562134
 21
200.947
  0
LINE
  8
0
 10
-0.562134
 20
200.947
 11
-0.18837
 21
200.994
  0
LINE
  8
0
 10
-0.18837
 20
200.994
 11
0.18837
 21
200.994
  0
LINE
  8
0
 10
0.18837
 20
200.994
 11
0.562134
 21
200.947
  0
LINE
  8
0
 10
0.562134
 20
200.947
 11
0.927048
 21
200.853
  0
LINE
  8
0
 10
0.927048
 20
200.853
 11
1.27733
 21
200.714
  0
LINE
  8
0
 10
1.27733
 20
200.714
 11
1.60747
 21
200.533
  0
LINE
  8
0
 10
1.60747
 20
200.533
 11
1.91226
 21
200.312
  0
LINE
  8
0
 10
1.91226
 20
200.312
 11
2.1869
 21
200.054
  0
LINE
  8
0
 10
2.1869
 20
200.054
 11
2.42705
 21
199.763
  0
LINE
  8
0
 10
2.42705
 20
199.763
 11
2.62891
 21
199.445
  0
LINE
  8
0
 10
2.62891
 20
199.445
 11
2.78932
 21
199.104
  0
LINE
  8
0
 10
2.78932
 20
199.104
 11
2.90575
 21
198.746
  0
LINE
  8
0
 10
2.90575
 20
198.746
 11
2.97633
 21
198.376
  0
LINE
  8
0
 10
2.97633
 20
198.376
 11
3
 21
198
  0
LINE
  8
0
 10
3
 20
198
 11
2.97633
 21
197.624
  0
LINE
  8
0
 10
2.97633
 20
197.624
 11
2.90575
 21
197.254
  0
LINE
  8
0
 10
2.90575
 20
197.254
 11
2.78932
 21
196.896
  0
LINE
  8
0
 10
2.78932
 20
196.896
 11
2.62891
 21
196.555
  0
LINE
  8
0
 10
2.62891
 20
196.555
 11
2.42705
 21
196.237
  0
LINE
  8
0
 10
2.42705
 20
196.237
 11
2.1869
 21
195.946
  0
LINE
  8
0
 10
2.1869
 20
195.946
 11
1.91226
 21
195.688
  0
LINE
  8
0
 10
1.91226
 20
195.688
 11
1.60747
 21
195.467
  0
LINE
  8
0
 10
1.60747
 20
195.467
 11
1.27733
 21
195.286
  0
LINE
  8
0
 10
1.27733
 20
195.286
 11
0.927048
 21
195.147
  0
LINE
  8
0
 10
0.927048
 20
195.147
 11
0.562134
 21
195.053
  0
LINE
  8
0
 10
0.562134
 20
195.053
 11
0.18837
 21
195.006
  0
LINE
  8
0
 10
0.18837
 20
195.006
 11
-0.18837
 21
195.006
  0
LINE
  8
0
 10
29.8116
 20
195.006
 11
29.4379
 21
195.053
  0
LINE
  8
0
 10
29.4379
 20
195.053
 11
29.0729
 21
195.147
  0
LINE
  8
0
 10
29.0729
 20
195.147
 11
28.7227
 21
195.286
  0
LINE
  8
0
 10
28.7227
 20
195.286
 11
28.3925
 21
195.467
  0
LINE
  8
0
 10
28.3925
 20
195.467
 11
28.0877
 21
195.688
  0
LINE
  8
0
 10
28.0877
 20
195.688
 11
27.8131
 21
195.946
  0
LINE
  8
0
 10
27.8131
 20
195.946
 11
27.5729
 21
196.237
  0
LINE
  8
0
 10
27.5729
 20
196.237
 11
27.3711
 21
196.555
  0
LINE
  8
0
 10
27.3711
 20
196.555
 11
27.2107
 21
196.896
  0
LINE
  8
0
 10
27.2107
 20
196.896
 11
27.0942
 21
197.254
  0
LINE
  8
0
 10
27.0942
 20
197.254
 11
27.0237
 21
197.624
  0
LINE
  8
0
 10
27.0237
 20
197.624
 11
27
 21
198
  0
LINE
  8
0
 10
27
 20
198
 11
27.0237
 21
198.376
  0
LINE
  8
0
 10
27.0237
 20
198.376
 11
27.0942
 21
198.746
  0
LINE
  8
0
 10
27.0942
 20
198.746
 11
27.2107
 21
199.104
  0
LINE
  8
0
 10
27.2107
 20
199.104
 11
27.3711
 21
199.445
  0
LINE
  8
0
 10
27.3711
 20
199.445
 11
27.5729
 21
199.763
  0
LINE
  8
0
 10
27.5729
 20
199.763
 11
27.8131
 21
200.054
  0
LINE
  8
0
 10
27.8131
 20
200.054
 11
28.0877
 21
200.312
  0
LINE
  8
0
 10
28.0877
 20
200.312
 11
28.3925
 21
200.533
  0
LINE
  8
0
 10
28.3925
 20
200.533
 11
28.7227
 21
200.714
  0
LINE
  8
0
 10
28.7227
 20
200.714
 11
29.0729
 21
200.853
  0
LINE
  8
0
 10
29.0729
 20
200.853
 11
29.4379
 21
200.947
  0
LINE
  8
0
 10
29.4379
 20
200.947
 11
29.8116
 21
200.994
  0
LINE
  8
0
 10
29.8116
 20
200.994
 11
30.1884
 21
200.994
  0
LINE
  8
0
 10
30.1884
 20
200.994
 11
30.5621
 21
200.947
  0
LINE
  8
0
 10
30.5621
 20
200.947
 11
30.927
 21
200.853
  0
LINE
  8
0
 10
30.927
 20
200.853
 11
31.2773
 21
200.714
  0
LINE
  8
0
 10
31.2773
 20
200.714
 11
31.6075
 21
200.533
  0
LINE
  8
0
 10
31.6075
 20
200.533
 11
31.9123
 21
200.312
  0
LINE
  8
0
 10
31.9123
 20
200.312
 11
32.1869
 21
200.054
  0
LINE
  8
0
 10
32.1869
 20
200.054
 11
32.427
 21
199.763
  0
LINE
  8
0
 10
32.427
 20
199.763
 11
32.6289
 21
199.445
  0
LINE
  8
0
 10
32.6289
 20
199.445
 11
32.7893
 21
199.104
  0
LINE
  8
0
 10
32.7893
 20
199.104
 11
32.9057
 21
198.746
  0
LINE
  8
0
 10
32.9057
 20
198.746
 11
32.9763
 21
198.376
  0
LINE
  8
0
 10
32.9763
 20
198.376
 11
33
 21
198
  0
LINE
  8
0
 10
33
 20
198
 11
32.9763
 21
197.624
  0
LINE
  8
0
 10
32.9763
 20
197.624
 11
32.9057
 21
197.254
  0
LINE
  8
0
 10
32.9057
 20
197.254
 11
32.7893
 21
196.896
  0
LINE
  8
0
 10
32.7893
 20
196.896
 11
32.6289
 21
196.555
  0
LINE
  8
0
 10
32.6289
 20
196.555
 11
32.427
 21
196.237
  0
LINE
  8
0
 10
32.427
 20
196.237
 11
32.1869
 21
195.946
  0
LINE
  8
0
 10
32.1869
 20
195.946
 11
31.9123
 21
195.688
  0
LINE
  8
0
 10
31.9123
 20
195.688
 11
31.6075
 21
195.467
  0
LINE
  8
0
 10
31.6075
 20
195.467
 11
31.2773
 21
195.286
  0
LINE
  8
0
 10
31.2773
 20
195.286
 11
30.927
 21
195.147
  0
LINE
  8
0
 10
30.927
 20
195.147
 11
30.5621
 21
195.053
  0
LINE
  8
0
 10
30.5621
 20
195.053
 11
30.1884
 21
195.006
  0
LINE
  8
0
 10
30.1884
 20
195.006
 11
29.8116
 21
195.006
  0
LINE
  8
0
 10
14.8116
 20
195.006
 11
14.4379
 21
195.053
  0
LINE
  8
0
 10
14.4379
 20
195.053
 11
14.0729
 21
195.147
  0
LINE
  8
0
 10
14.0729
 20
195.147
 11
13.7227
 21
195.286
  0
LINE
  8
0
 10
13.7227
 20
195.286
 11
13.3925
 21
195.467
  0
LINE
  8
0
 10
13.3925
 20
195.467
 11
13.0877
 21
195.688
  0
LINE
  8
0
 10
13.0877
 20
195.688
 11
12.8131
 21
195.946
  0
LINE
  8
0
 10
12.8131
 20
195.946
 11
12.5729
 21
196.237
  0
LINE
  8
0
 10
12.5729
 20
196.237
 11
12.3711
 21
196.555
  0
LINE
  8
0
 10
12.3711
 20
196.555
 11
12.2107
 21
196.896
  0
LINE
  8
0
 10
12.2107
 20
196.896
 11
12.0942
 21
197.254
  0
LINE
  8
0
 10
12.0942
 20
197.254
 11
12.0237
 21
197.624
  0
LINE
  8
0
 10
12.0237
 20
197.624
 11
12
 21
198
  0
LINE
  8
0
 10
12
 20
198
 11
12.0237
 21
198.376
  0
LINE
  8
0
 10
12.0237
 20
198.376
 11
12.0942
 21
198.746
  0
LINE
  8
0
 10
12.0942
 20
198.746
 11
12.2107
 21
199.104
  0
LINE
  8
0
 10
12.2107
 20
199.104
 11
12.3711
 21
199.445
  0
LINE
  8
0
 10
12.3711
 20
199.445
 11
12.5729
 21
199.763
  0
LINE
  8
0
 10
12.5729
 20
199.763
 11
12.8131
 21
200.054
  0
LINE
  8
0
 10
12.8131
 20
200.054
 11
13.0877
 21
200.312
  0
LINE
  8
0
 10
13.0877
 20
200.312
 11
13.3925
 21
200.533
  0
LINE
  8
0
 10
13.3925
 20
200.533
 11
13.7227
 21
200.714
  0
LINE
  8
0
 10
13.7227
 20
200.714
 11
14.0729
 21
200.853
  0
LINE
  8
0
 10
14.0729
 20
200.853
 11
14.4379
 21
200.947
  0
LINE
  8
0
 10
14.4379
 20
200.947
 11
14.8116
 21
200.994
  0
LINE
  8
0
 10
14.8116
 20
200.994
 11
15.1884
 21
200.994
  0
LINE
  8
0
 10
15.1884
 20
200.994
 11
15.5621
 21
200.947
  0
LINE
  8
0
 10
15.5621
 20
200.947
 11
15.927
 21
200.853
  0
LINE
  8
0
 10
15.927
 20
200.853
 11
16.2773
 21
200.714
  0
LINE
  8
0
 10
16.2773
 20
200.714
 11
16.6075
 21
200.533
  0
LINE
  8
0
 10
16.6075
 20
200.533
 11
16.9123
 21
200.312
  0
LINE
  8
0
 10
16.9123
 20
200.312
 11
17.1869
 21
200.054
  0
LINE
  8
0
 10
17.1869
 20
200.054
 11
17.427
 21
199.763
  0
LINE
  8
0
 10
17.427
 20
199.763
 11
17.6289
 21
199.445
  0
LINE
  8
0
 10
17.6289
 20
199.445
 11
17.7893
 21
199.104
  0
LINE
  8
0
 10
17.7893
 20
199.104
 11
17.9057
 21
198.746
  0
LINE
  8
0
 10
17.9057
 20
198.746
 11
17.9763
 21
198.376
  0
LINE
  8
0
 10
17.9763
 20
198.376
 11
18
 21
198
  0
LINE
  8
0
 10
18
 20
198
 11
17.9763
 21
197.624
  0
LINE
  8
0
 10
17.9763
 20
197.624
 11
17.9057
 21
197.254
  0
LINE
  8
0
 10
17.9057
 20
197.254
 11
17.7893
 21
196.896
  0
LINE
  8
0
 10
17.7893
 20
196.896
 11
17.6289
 21
196.555
  0
LINE
  8
0
 10
17.6289
 20
196.555
 11
17.427
 21
196.237
  0
LINE
  8
0
 10
17.427
 20
196.237
 11
17.1869
 21
195.946
  0
LINE
  8
0
 10
17.1869
 20
195.946
 11
16.9123
 21
195.688
  0
LINE
  8
0
 10
16.9123
 20
195.688
 11
16.6075
 21
195.467
  0
LINE
  8
0
 10
16.6075
 20
195.467
 11
16.2773
 21
195.286
  0
LINE
  8
0
 10
16.2773
 20
195.286
 11
15.927
 21
195.147
  0
LINE
  8
0
 10
15.927
 20
195.147
 11
15.5621
 21
195.053
  0
LINE
  8
0
 10
15.5621
 20
195.053
 11
15.1884
 21
195.006
  0
LINE
  8
0
 10
15.1884
 20
195.006
 11
14.8116
 21
195.006
  0
LINE
  8
0
 10
-30.1884
 20
195.006
 11
-30.5621
 21
195.053
  0
LINE
  8
0
 10
-30.5621
 20
195.053
 11
-30.927
 21
195.147
  0
LINE
  8
0
 10
-30.927
 20
195.147
 11
-31.2773
 21
195.286
  0
LINE
  8
0
 10
-31.2773
 20
195.286
 11
-31.6075
 21
195.467
  0
LINE
  8
0
 10
-31.6075
 20
195.467
 11
-31.9123
 21
195.688
  0
LINE
  8
0
 10
-31.9123
 20
195.688
 11
-32.1869
 21
195.946
  0
LINE
  8
0
 10
-32.1869
 20
195.946
 11
-32.427
 21
196.237
  0
LINE
  8
0
 10
-32.427
 20
196.237
 11
-32.6289
 21
196.555
  0
LINE
  8
0
 10
-32.6289
 20
196.555
 11
-32.7893
 21
196.896
  0
LINE
  8
0
 10
-32.7893
 20
196.896
 11
-32.9057
 21
197.254
  0
LINE
  8
0
 10
-32.9057
 20
197.254
 11
-32.9763
 21
197.624
  0
LINE
  8
0
 10
-32.9763
 20
197.624
 11
-33
 21
198
  0
LINE
  8
0
 10
-33
 20
198
 11
-32.9763
 21
198.376
  0
LINE
  8
0
 10
-32.9763
 20
198.376
 11
-32.9057
 21
198.746
  0
LINE
  8
0
 10
-32.9057
 20
198.746
 11
-32.7893
 21
199.104
  0
LINE
  8
0
 10
-32.7893
 20
199.104
 11
-32.6289
 21
199.445
  0
LINE
  8
0
 10
-32.6289
 20
199.445
 11
-32.427
 21
199.763
  0
LINE
  8
0
 10
-32.427
 20
199.763
 11
-32.1869
 21
200.054
  0
LINE
  8
0
 10
-32.1869
 20
200.054
 11
-31.9123
 21
200.312
  0
LINE
  8
0
 10
-31.9123
 20
200.312
 11
-31.6075
 21
200.533
  0
LINE
  8
0
 10
-31.6075
 20
200.533
 11
-31.2773
 21
200.714
  0
LINE
  8
0
 10
-31.2773
 20
200.714
 11
-30.927
 21
200.853
  0
LINE
  8
0
 10
-30.927
 20
200.853
 11
-30.5621
 21
200.947
  0
LINE
  8
0
 10
-30.5621
 20
200.947
 11
-30.1884
 21
200.994
  0
LINE
  8
0
 10
-30.1884
 20
200.994
 11
-29.8116
 21
200.994
  0
LINE
  8
0
 10
-29.8116
 20
200.994
 11
-29.4379
 21
200.947
  0
LINE
  8
0
 10
-29.4379
 20
200.947
 11
-29.0729
 21
200.853
  0
LINE
  8
0
 10
-29.0729
 20
200.853
 11
-28.7227
 21
200.714
  0
LINE
  8
0
 10
-28.7227
 20
200.714
 11
-28.3925
 21
200.533
  0
LINE
  8
0
 10
-28.3925
 20
200.533
 11
-28.0877
 21
200.312
  0
LINE
  8
0
 10
-28.0877
 20
200.312
 11
-27.8131
 21
200.054
  0
LINE
  8
0
 10
-27.8131
 20
200.054
 11
-27.5729
 21
199.763
  0
LINE
  8
0
 10
-27.5729
 20
199.763
 11
-27.3711
 21
199.445
  0
LINE
  8
0
 10
-27.3711
 20
199.445
 11
-27.2107
 21
199.104
  0
LINE
  8
0
 10
-27.2107
 20
199.104
 11
-27.0942
 21
198.746
  0
LINE
  8
0
 10
-27.0942
 20
198.746
 11
-27.0237
 21
198.376
  0
LINE
  8
0
 10
-27.0237
 20
198.376
 11
-27
 21
198
  0
LINE
  8
0
 10
-27
 20
198
 11
-27.0237
 21
197.624
  0
LINE
  8
0
 10
-27.0237
 20
197.624
 11
-27.0942
 21
197.254
  0
LINE
  8
0
 10
-27.0942
 20
197.254
 11
-27.2107
 21
196.896
  0
LINE
  8
0
 10
-27.2107
 20
196.896
 11
-27.3711
 21
196.555
  0
LINE
  8
0
 10
-27.3711
 20
196.555
 11
-27.5729
 21
196.237
  0
LINE
  8
0
 10
-27.5729
 20
196.237
 11
-27.8131
 21
195.946
  0
LINE
  8
0
 10
-27.8131
 20
195.946
 11
-28.0877
 21
195.688
  0
LINE
  8
0
 10
-28.0877
 20
195.688
 11
-28.3925
 21
195.467
  0
LINE
  8
0
 10
-28.3925
 20
195.467
 11
-28.7227
 21
195.286
  0
LINE
  8
0
 10
-28.7227
 20
195.286
 11
-29.0729
 21
195.147
  0
LINE
  8
0
 10
-29.0729
 20
195.147
 11
-29.4379
 21
195.053
  0
LINE
  8
0
 10
-29.4379
 20
195.053
 11
-29.8116
 21
195.006
  0
LINE
  8
0
 10
-29.8116
 20
195.006
 11
-30.1884
 21
195.006
  0
LINE
  8
0
 10
14.8116
 20
180.006
 11
14.4379
 21
180.053
  0
LINE
  8
0
 10
14.4379
 20
180.053
 11
14.0729
 21
180.147
  0
LINE
  8
0
 10
14.0729
 20
180.147
 11
13.7227
 21
180.286
  0
LINE
  8
0
 10
13.7227
 20
180.286
 11
13.3925
 21
180.467
  0
LINE
  8
0
 10
13.3925
 20
180.467
 11
13.0877
 21
180.688
  0
LINE
  8
0
 10
13.0877
 20
180.688
 11
12.8131
 21
180.946
  0
LINE
  8
0
 10
12.8131
 20
180.946
 11
12.5729
 21
181.237
  0
LINE
  8
0
 10
12.5729
 20
181.237
 11
12.3711
 21
181.555
  0
LINE
  8
0
 10
12.3711
 20
181.555
 11
12.2107
 21
181.896
  0
LINE
  8
0
 10
12.2107
 20
181.896
 11
12.0942
 21
182.254
  0
LINE
  8
0
 10
12.0942
 20
182.254
 11
12.0237
 21
182.624
  0
LINE
  8
0
 10
12.0237
 20
182.624
 11
12
 21
183
  0
LINE
  8
0
 10
12
 20
183
 11
12.0237
 21
183.376
  0
LINE
  8
0
 10
12.0237
 20
183.376
 11
12.0942
 21
183.746
  0
LINE
  8
0
 10
12.0942
 20
183.746
 11
12.2107
 21
184.104
  0
LINE
  8
0
 10
12.2107
 20
184.104
 11
12.3711
 21
184.445
  0
LINE
  8
0
 10
12.3711
 20
184.445
 11
12.5729
 21
184.763
  0
LINE
  8
0
 10
12.5729
 20
184.763
 11
12.8131
 21
185.054
  0
LINE
  8
0
 10
12.8131
 20
185.054
 11
13.0877
 21
185.312
  0
LINE
  8
0
 10
13.0877
 20
185.312
 11
13.3925
 21
185.533
  0
LINE
  8
0
 10
13.3925
 20
185.533
 11
13.7227
 21
185.714
  0
LINE
  8
0
 10
13.7227
 20
185.714
 11
14.0729
 21
185.853
  0
LINE
  8
0
 10
14.0729
 20
185.853
 11
14.4379
 21
185.947
  0
LINE
  8
0
 10
14.4379
 20
185.947
 11
14.8116
 21
185.994
  0
LINE
  8
0
 10
14.8116
 20
185.994
 11
15.1884
 21
185.994
  0
LINE
  8
0
 10
15.1884
 20
185.994
 11
15.5621
 21
185.947
  0
LINE
  8
0
 10
15.5621
 20
185.947
 11
15.927
 21
185.853
  0
LINE
  8
0
 10
15.927
 20
185.853
 11
16.2773
 21
185.714
  0
LINE
  8
0
 10
16.2773
 20
185.714
 11
16.6075
 21
185.533
  0
LINE
  8
0
 10
16.6075
 20
185.533
 11
16.9123
 21
185.312
  0
LINE
  8
0
 10
16.9123
 20
185.312
 11
17.1869
 21
185.054
  0
LINE
  8
0
 10
17.1869
 20
185.054
 11
17.427
 21
184.763
  0
LINE
  8
0
 10
17.427
 20
184.763
 11
17.6289
 21
184.445
  0
LINE
  8
0
 10
17.6289
 20
184.445
 11
17.7893
 21
184.104
  0
LINE
  8
0
 10
17.7893
 20
184.104
 11
17.9057
 21
183.746
  0
LINE
  8
0
 10
17.9057
 20
183.746
 11
17.9763
 21
183.376
  0
LINE
  8
0
 10
17.9763
 20
183.376
 11
18
 21
183
  0
LINE
  8
0
 10
18
 20
183
 11
17.9763
 21
182.624
  0
LINE
  8
0
 10
17.9763
 20
182.624
 11
17.9057
 21
182.254
  0
LINE
  8
0
 10
17.9057
 20
182.254
 11
17.7893
 21
181.896
  0
LINE
  8
0
 10
17.7893
 20
181.896
 11
17.6289
 21
181.555
  0
LINE
  8
0
 10
17.6289
 20
181.555
 11
17.427
 21
181.237
  0
LINE
  8
0
 10
17.427
 20
181.237
 11
17.1869
 21
180.946
  0
LINE
  8
0
 10
17.1869
 20
180.946
 11
16.9123
 21
180.688
  0
LINE
  8
0
 10
16.9123
 20
180.688
 11
16.6075
 21
180.467
  0
LINE
  8
0
 10
16.6075
 20
180.467
 11
16.2773
 21
180.286
  0
LINE
  8
0
 10
16.2773
 20
180.286
 11
15.927
 21
180.147
  0
LINE
  8
0
 10
15.927
 20
180.147
 11
15.5621
 21
180.053
  0
LINE
  8
0
 10
15.5621
 20
180.053
 11
15.1884
 21
180.006
  0
LINE
  8
0
 10
15.1884
 20
180.006
 11
14.8116
 21
180.006
  0
LINE
  8
0
 10
-0.18837
 20
180.006
 11
-0.562134
 21
180.053
  0
LINE
  8
0
 10
-0.562134
 20
180.053
 11
-0.927048
 21
180.147
  0
LINE
  8
0
 10
-0.927048
 20
180.147
 11
-1.27733
 21
180.286
  0
LINE
  8
0
 10
-1.27733
 20
180.286
 11
-1.60747
 21
180.467
  0
LINE
  8
0
 10
-1.60747
 20
180.467
 11
-1.91226
 21
180.688
  0
LINE
  8
0
 10
-1.91226
 20
180.688
 11
-2.1869
 21
180.946
  0
LINE
  8
0
 10
-2.1869
 20
180.946
 11
-2.42705
 21
181.237
  0
LINE
  8
0
 10
-2.42705
 20
181.237
 11
-2.62891
 21
181.555
  0
LINE
  8
0
 10
-2.62891
 20
181.555
 11
-2.78932
 21
181.896
  0
LINE
  8
0
 10
-2.78932
 20
181.896
 11
-2.90575
 21
182.254
  0
LINE
  8
0
 10
-2.90575
 20
182.254
 11
-2.97633
 21
182.624
  0
LINE
  8
0
 10
-2.97633
 20
182.624
 11
-3
 21
183
  0
LINE
  8
0
 10
-3
 20
183
 11
-2.97633
 21
183.376
  0
LINE
  8
0
 10
-2.97633
 20
183.376
 11
-2.90575
 21
183.746
  0
LINE
  8
0
 10
-2.90575
 20
183.746
 11
-2.78932
 21
184.104
  0
LINE
  8
0
 10
-2.78932
 20
184.104
 11
-2.62891
 21
184.445
  0
LINE
  8
0
 10
-2.62891
 20
184.445
 11
-2.42705
 21
184.763
  0
LINE
  8
0
 10
-2.42705
 20
184.763
 11
-2.1869
 21
185.054
  0
LINE
  8
0
 10
-2.1869
 20
185.054
 11
-1.91226
 21
185.312
  0
LINE
  8
0
 10
-1.91226
 20
185.312
 11
-1.60747
 21
185.533
  0
LINE
  8
0
 10
-1.60747
 20
185.533
 11
-1.27733
 21
185.714
  0
LINE
  8
0
 10
-1.27733
 20
185.714
 11
-0.927048
 21
185.853
  0
LINE
  8
0
 10
-0.927048
 20
185.853
 11
-0.562134
 21
185.947
  0
LINE
  8
0
 10
-0.562134
 20
185.947
 11
-0.18837
 21
185.994
  0
LINE
  8
0
 10
-0.18837
 20
185.994
 11
0.18837
 21
185.994
  0
LINE
  8
0
 10
0.18837
 20
185.994
 11
0.562134
 21
185.947
  0
LINE
  8
0
 10
0.562134
 20
185.947
 11
0.927048
 21
185.853
  0
LINE
  8
0
 10
0.927048
 20
185.853
 11
1.27733
 21
185.714
  0
LINE
  8
0
 10
1.27733
 20
185.714
 11
1.60747
 21
185.533
  0
LINE
  8
0
 10
1.60747
 20
185.533
 11
1.91226
 21
185.312
  0
LINE
  8
0
 10
1.91226
 20
185.312
 11
2.1869
 21
185.054
  0
LINE
  8
0
 10
2.1869
 20
185.054
 11
2.42705
 21
184.763
  0
LINE
  8
0
 10
2.42705
 20
184.763
 11
2.62891
 21
184.445
  0
LINE
  8
0
 10
2.62891
 20
184.445
 11
2.78932
 21
184.104
  0
LINE
  8
0
 10
2.78932
 20
184.104
 11
2.90575
 21
183.746
  0
LINE
  8
0
 10
2.90575
 20
183.746
 11
2.97633
 21
183.376
  0
LINE
  8
0
 10
2.97633
 20
183.376
 11
3
 21
183
  0
LINE
  8
0
 10
3
 20
183
 11
2.97633
 21
182.624
  0
LINE
  8
0
 10
2.97633
 20
182.624
 11
2.90575
 21
182.254
  0
LINE
  8
0
 10
2.90575
 20
182.254
 11
2.78932
 21
181.896
  0
LINE
  8
0
 10
2.78932
 20
181.896
 11
2.62891
 21
181.555
  0
LINE
  8
0
 10
2.62891
 20
181.555
 11
2.42705
 21
181.237
  0
LINE
  8
0
 10
2.42705
 20
181.237
 11
2.1869
 21
180.946
  0
LINE
  8
0
 10
2.1869
 20
180.946
 11
1.91226
 21
180.688
  0
LINE
  8
0
 10
1.91226
 20
180.688
 11
1.60747
 21
180.467
  0
LINE
  8
0
 10
1.60747
 20
180.467
 11
1.27733
 21
180.286
  0
LINE
  8
0
 10
1.27733
 20
180.286
 11
0.927048
 21
180.147
  0
LINE
  8
0
 10
0.927048
 20
180.147
 11
0.562134
 21
180.053
  0
LINE
  8
0
 10
0.562134
 20
180.053
 11
0.18837
 21
180.006
  0
LINE
  8
0
 10
0.18837
 20
180.006
 11
-0.18837
 21
180.006
  0
LINE
  8
0
 10
-30.1884
 20
180.006
 11
-30.5621
 21
180.053
  0
LINE
  8
0
 10
-30.5621
 20
180.053
 11
-30.927
 21
180.147
  0
LINE
  8
0
 10
-30.927
 20
180.147
 11
-31.2773
 21
180.286
  0
LINE
  8
0
 10
-31.2773
 20
180.286
 11
-31.6075
 21
180.467
  0
LINE
  8
0
 10
-31.6075
 20
180.467
 11
-31.9123
 21
180.688
  0
LINE
  8
0
 10
-31.9123
 20
180.688
 11
-32.1869
 21
180.946
  0
LINE
  8
0
 10
-32.1869
 20
180.946
 11
-32.427
 21
181.237
  0
LINE
  8
0
 10
-32.427
 20
181.237
 11
-32.6289
 21
181.555
  0
LINE
  8
0
 10
-32.6289
 20
181.555
 11
-32.7893
 21
181.896
  0
LINE
  8
0
 10
-32.7893
 20
181.896
 11
-32.9057
 21
182.254
  0
LINE
  8
0
 10
-32.9057
 20
182.254
 11
-32.9763
 21
182.624
  0
LINE
  8
0
 10
-32.9763
 20
182.624
 11
-33
 21
183
  0
LINE
  8
0
 10
-33
 20
183
 11
-32.9763
 21
183.376
  0
LINE
  8
0
 10
-32.9763
 20
183.376
 11
-32.9057
 21
183.746
  0
LINE
  8
0
 10
-32.9057
 20
183.746
 11
-32.7893
 21
184.104
  0
LINE
  8
0
 10
-32.7893
 20
184.104
 11
-32.6289
 21
184.445
  0
LINE
  8
0
 10
-32.6289
 20
184.445
 11
-32.427
 21
184.763
  0
LINE
  8
0
 10
-32.427
 20
184.763
 11
-32.1869
 21
185.054
  0
LINE
  8
0
 10
-32.1869
 20
185.054
 11
-31.9123
 21
185.312
  0
LINE
  8
0
 10
-31.9123
 20
185.312
 11
-31.6075
 21
185.533
  0
LINE
  8
0
 10
-31.6075
 20
185.533
 11
-31.2773
 21
185.714
  0
LINE
  8
0
 10
-31.2773
 20
185.714
 11
-30.927
 21
185.853
  0
LINE
  8
0
 10
-30.927
 20
185.853
 11
-30.5621
 21
185.947
  0
LINE
  8
0
 10
-30.5621
 20
185.947
 11
-30.1884
 21
185.994
  0
LINE
  8
0
 10
-30.1884
 20
185.994
 11
-29.8116
 21
185.994
  0
LINE
  8
0
 10
-29.8116
 20
185.994
 11
-29.4379
 21
185.947
  0
LINE
  8
0
 10
-29.4379
 20
185.947
 11
-29.0729
 21
185.853
  0
LINE
  8
0
 10
-29.0729
 20
185.853
 11
-28.7227
 21
185.714
  0
LINE
  8
0
 10
-28.7227
 20
185.714
 11
-28.3925
 21
185.533
  0
LINE
  8
0
 10
-28.3925
 20
185.533
 11
-28.0877
 21
185.312
  0
LINE
  8
0
 10
-28.0877
 20
185.312
 11
-27.8131
 21
185.054
  0
LINE
  8
0
 10
-27.8131
 20
185.054
 11
-27.5729
 21
184.763
  0
LINE
  8
0
 10
-27.5729
 20
184.763
 11
-27.3711
 21
184.445
  0
LINE
  8
0
 10
-27.3711
 20
184.445
 11
-27.2107
 21
184.104
  0
LINE
  8
0
 10
-27.2107
 20
184.104
 11
-27.0942
 21
183.746
  0
LINE
  8
0
 10
-27.0942
 20
183.746
 11
-27.0237
 21
183.376
  0
LINE
  8
0
 10
-27.0237
 20
183.376
 11
-27
 21
183
  0
LINE
  8
0
 10
-27
 20
183
 11
-27.0237
 21
182.624
  0
LINE
  8
0
 10
-27.0237
 20
182.624
 11
-27.0942
 21
182.254
  0
LINE
  8
0
 10
-27.0942
 20
182.254
 11
-27.2107
 21
181.896
  0
LINE
  8
0
 10
-27.2107
 20
181.896
 11
-27.3711
 21
181.555
  0
LINE
  8
0
 10
-27.3711
 20
181.555
 11
-27.5729
 21
181.237
  0
LINE
  8
0
 10
-27.5729
 20
181.237
 11
-27.8131
 21
180.946
  0
LINE
  8
0
 10
-27.8131
 20
180.946
 11
-28.0877
 21
180.688
  0
LINE
  8
0
 10
-28.0877
 20
180.688
 11
-28.3925
 21
180.467
  0
LINE
  8
0
 10
-28.3925
 20
180.467
 11
-28.7227
 21
180.286
  0
LINE
  8
0
 10
-28.7227
 20
180.286
 11
-29.0729
 21
180.147
  0
LINE
  8
0
 10
-29.0729
 20
180.147
 11
-29.4379
 21
180.053
  0
LINE
  8
0
 10
-29.4379
 20
180.053
 11
-29.8116
 21
180.006
  0
LINE
  8
0
 10
-29.8116
 20
180.006
 11
-30.1884
 21
180.006
  0
LINE
  8
0
 10
-15.1884
 20
180.006
 11
-15.5621
 21
180.053
  0
LINE
  8
0
 10
-15.5621
 20
180.053
 11
-15.927
 21
180.147
  0
LINE
  8
0
 10
-15.927
 20
180.147
 11
-16.2773
 21
180.286
  0
LINE
  8
0
 10
-16.2773
 20
180.286
 11
-16.6075
 21
180.467
  0
LINE
  8
0
 10
-16.6075
 20
180.467
 11
-16.9123
 21
180.688
  0
LINE
  8
0
 10
-16.9123
 20
180.688
 11
-17.1869
 21
180.946
  0
LINE
  8
0
 10
-17.1869
 20
180.946
 11
-17.427
 21
181.237
  0
LINE
  8
0
 10
-17.427
 20
181.237
 11
-17.6289
 21
181.555
  0
LINE
  8
0
 10
-17.6289
 20
181.555
 11
-17.7893
 21
181.896
  0
LINE
  8
0
 10
-17.7893
 20
181.896
 11
-17.9057
 21
182.254
  0
LINE
  8
0
 10
-17.9057
 20
182.254
 11
-17.9763
 21
182.624
  0
LINE
  8
0
 10
-17.9763
 20
182.624
 11
-18
 21
183
  0
LINE
  8
0
 10
-18
 20
183
 11
-17.9763
 21
183.376
  0
LINE
  8
0
 10
-17.9763
 20
183.376
 11
-17.9057
 21
183.746
  0
LINE
  8
0
 10
-17.9057
 20
183.746
 11
-17.7893
 21
184.104
  0
LINE
  8
0
 10
-17.7893
 20
184.104
 11
-17.6289
 21
184.445
  0
LINE
  8
0
 10
-17.6289
 20
184.445
 11
-17.427
 21
184.763
  0
LINE
  8
0
 10
-17.427
 20
184.763
 11
-17.1869
 21
185.054
  0
LINE
  8
0
 10
-17.1869
 20
185.054
 11
-16.9123
 21
185.312
  0
LINE
  8
0
 10
-16.9123
 20
185.312
 11
-16.6075
 21
185.533
  0
LINE
  8
0
 10
-16.6075
 20
185.533
 11
-16.2773
 21
185.714
  0
LINE
  8
0
 10
-16.2773
 20
185.714
 11
-15.927
 21
185.853
  0
LINE
  8
0
 10
-15.927
 20
185.853
 11
-15.5621
 21
185.947
  0
LINE
  8
0
 10
-15.5621
 20
185.947
 11
-15.1884
 21
185.994
  0
LINE
  8
0
 10
-15.1884
 20
185.994
 11
-14.8116
 21
185.994
  0
LINE
  8
0
 10
-14.8116
 20
185.994
 11
-14.4379
 21
185.947
  0
LINE
  8
0
 10
-14.4379
 20
185.947
 11
-14.0729
 21
185.853
  0
LINE
  8
0
 10
-14.0729
 20
185.853
 11
-13.7227
 21
185.714
  0
LINE
  8
0
 10
-13.7227
 20
185.714
 11
-13.3925
 21
185.533
  0
LINE
  8
0
 10
-13.3925
 20
185.533
 11
-13.0877
 21
185.312
  0
LINE
  8
0
 10
-13.0877
 20
185.312
 11
-12.8131
 21
185.054
  0
LINE
  8
0
 10
-12.8131
 20
185.054
 11
-12.5729
 21
184.763
  0
LINE
  8
0
 10
-12.5729
 20
184.763
 11
-12.3711
 21
184.445
  0
LINE
  8
0
 10
-12.3711
 20
184.445
 11
-12.2107
 21
184.104
  0
LINE
  8
0
 10
-12.2107
 20
184.104
 11
-12.0942
 21
183.746
  0
LINE
  8
0
 10
-12.0942
 20
183.746
 11
-12.0237
 21
183.376
  0
LINE
  8
0
 10
-12.0237
 20
183.376
 11
-12
 21
183
  0
LINE
  8
0
 10
-12
 20
183
 11
-12.0237
 21
182.624
  0
LINE
  8
0
 10
-12.0237
 20
182.624
 11
-12.0942
 21
182.254
  0
LINE
  8
0
 10
-12.0942
 20
182.254
 11
-12.2107
 21
181.896
  0
LINE
  8
0
 10
-12.2107
 20
181.896
 11
-12.3711
 21
181.555
  0
LINE
  8
0
 10
-12.3711
 20
181.555
 11
-12.5729
 21
181.237
  0
LINE
  8
0
 10
-12.5729
 20
181.237
 11
-12.8131
 21
180.946
  0
LINE
  8
0
 10
-12.8131
 20
180.946
 11
-13.0877
 21
180.688
  0
LINE
  8
0
 10
-13.0877
 20
180.688
 11
-13.3925
 21
180.467
  0
LINE
  8
0
 10
-13.3925
 20
180.467
 11
-13.7227
 21
180.286
  0
LINE
  8
0
 10
-13.7227
 20
180.286
 11
-14.0729
 21
180.147
  0
LINE
  8
0
 10
-14.0729
 20
180.147
 11
-14.4379
 21
180.053
  0
LINE
  8
0
 10
-14.4379
 20
180.053
 11
-14.8116
 21
180.006
  0
LINE
  8
0
 10
-14.8116
 20
180.006
 11
-15.1884
 21
180.006
  0
LINE
  8
0
 10
29.8116
 20
180.006
 11
29.4379
 21
180.053
  0
LINE
  8
0
 10
29.4379
 20
180.053
 11
29.0729
 21
180.147
  0
LINE
  8
0
 10
29.0729
 20
180.147
 11
28.7227
 21
180.286
  0
LINE
  8
0
 10
28.7227
 20
180.286
 11
28.3925
 21
180.467
  0
LINE
  8
0
 10
28.3925
 20
180.467
 11
28.0877
 21
180.688
  0
LINE
  8
0
 10
28.0877
 20
180.688
 11
27.8131
 21
180.946
  0
LINE
  8
0
 10
27.8131
 20
180.946
 11
27.5729
 21
181.237
  0
LINE
  8
0
 10
27.5729
 20
181.237
 11
27.3711
 21
181.555
  0
LINE
  8
0
 10
27.3711
 20
181.555
 11
27.2107
 21
181.896
  0
LINE
  8
0
 10
27.2107
 20
181.896
 11
27.0942
 21
182.254
  0
LINE
  8
0
 10
27.0942
 20
182.254
 11
27.0237
 21
182.624
  0
LINE
  8
0
 10
27.0237
 20
182.624
 11
27
 21
183
  0
LINE
  8
0
 10
27
 20
183
 11
27.0237
 21
183.376
  0
LINE
  8
0
 10
27.0237
 20
183.376
 11
27.0942
 21
183.746
  0
LINE
  8
0
 10
27.0942
 20
183.746
 11
27.2107
 21
184.104
  0
LINE
  8
0
 10
27.2107
 20
184.104
 11
27.3711
 21
184.445
  0
LINE
  8
0
 10
27.3711
 20
184.445
 11
27.5729
 21
184.763
  0
LINE
  8
0
 10
27.5729
 20
184.763
 11
27.8131
 21
185.054
  0
LINE
  8
0
 10
27.8131
 20
185.054
 11
28.0877
 21
185.312
  0
LINE
  8
0
 10
28.0877
 20
185.312
 11
28.3925
 21
185.533
  0
LINE
  8
0
 10
28.3925
 20
185.533
 11
28.7227
 21
185.714
  0
LINE
  8
0
 10
28.7227
 20
185.714
 11
29.0729
 21
185.853
  0
LINE
  8
0
 10
29.0729
 20
185.853
 11
29.4379
 21
185.947
  0
LINE
  8
0
 10
29.4379
 20
185.947
 11
29.8116
 21
185.994
  0
LINE
  8
0
 10
29.8116
 20
185.994
 11
30.1884
 21
185.994
  0
LINE
  8
0
 10
30.1884
 20
185.994
 11
30.5621
 21
185.947
  0
LINE
  8
0
 10
30.5621
 20
185.947
 11
30.927
 21
185.853
  0
LINE
  8
0
 10
30.927
 20
185.853
 11
31.2773
 21
185.714
  0
LINE
  8
0
 10
31.2773
 20
185.714
 11
31.6075
 21
185.533
  0
LINE
  8
0
 10
31.6075
 20
185.533
 11
31.9123
 21
185.312
  0
LINE
  8
0
 10
31.9123
 20
185.312
 11
32.1869
 21
185.054
  0
LINE
  8
0
 10
32.1869
 20
185.054
 11
32.427
 21
184.763
  0
LINE
  8
0
 10
32.427
 20
184.763
 11
32.6289
 21
184.445
  0
LINE
  8
0
 10
32.6289
 20
184.445
 11
32.7893
 21
184.104
  0
LINE
  8
0
 10
32.7893
 20
184.104
 11
32.9057
 21
183.746
  0
LINE
  8
0
 10
32.9057
 20
183.746
 11
32.9763
 21
183.376
  0
LINE
  8
0
 10
32.9763
 20
183.376
 11
33
 21
183
  0
LINE
  8
0
 10
33
 20
183
 11
32.9763
 21
182.624
  0
LINE
  8
0
 10
32.9763
 20
182.624
 11
32.9057
 21
182.254
  0
LINE
  8
0
 10
32.9057
 20
182.254
 11
32.7893
 21
181.896
  0
LINE
  8
0
 10
32.7893
 20
181.896
 11
32.6289
 21
181.555
  0
LINE
  8
0
 10
32.6289
 20
181.555
 11
32.427
 21
181.237
  0
LINE
  8
0
 10
32.427
 20
181.237
 11
32.1869
 21
180.946
  0
LINE
  8
0
 10
32.1869
 20
180.946
 11
31.9123
 21
180.688
  0
LINE
  8
0
 10
31.9123
 20
180.688
 11
31.6075
 21
180.467
  0
LINE
  8
0
 10
31.6075
 20
180.467
 11
31.2773
 21
180.286
  0
LINE
  8
0
 10
31.2773
 20
180.286
 11
30.927
 21
180.147
  0
LINE
  8
0
 10
30.927
 20
180.147
 11
30.5621
 21
180.053
  0
LINE
  8
0
 10
30.5621
 20
180.053
 11
30.1884
 21
180.006
  0
LINE
  8
0
 10
30.1884
 20
180.006
 11
29.8116
 21
180.006
  0
LINE
  8
0
 10
29.8116
 20
165.006
 11
29.4379
 21
165.053
  0
LINE
  8
0
 10
29.4379
 20
165.053
 11
29.0729
 21
165.147
  0
LINE
  8
0
 10
29.0729
 20
165.147
 11
28.7227
 21
165.286
  0
LINE
  8
0
 10
28.7227
 20
165.286
 11
28.3925
 21
165.467
  0
LINE
  8
0
 10
28.3925
 20
165.467
 11
28.0877
 21
165.688
  0
LINE
  8
0
 10
28.0877
 20
165.688
 11
27.8131
 21
165.946
  0
LINE
  8
0
 10
27.8131
 20
165.946
 11
27.5729
 21
166.237
  0
LINE
  8
0
 10
27.5729
 20
166.237
 11
27.3711
 21
166.555
  0
LINE
  8
0
 10
27.3711
 20
166.555
 11
27.2107
 21
166.896
  0
LINE
  8
0
 10
27.2107
 20
166.896
 11
27.0942
 21
167.254
  0
LINE
  8
0
 10
27.0942
 20
167.254
 11
27.0237
 21
167.624
  0
LINE
  8
0
 10
27.0237
 20
167.624
 11
27
 21
168
  0
LINE
  8
0
 10
27
 20
168
 11
27.0237
 21
168.376
  0
LINE
  8
0
 10
27.0237
 20
168.376
 11
27.0942
 21
168.746
  0
LINE
  8
0
 10
27.0942
 20
168.746
 11
27.2107
 21
169.104
  0
LINE
  8
0
 10
27.2107
 20
169.104
 11
27.3711
 21
169.445
  0
LINE
  8
0
 10
27.3711
 20
169.445
 11
27.5729
 21
169.763
  0
LINE
  8
0
 10
27.5729
 20
169.763
 11
27.8131
 21
170.054
  0
LINE
  8
0
 10
27.8131
 20
170.054
 11
28.0877
 21
170.312
  0
LINE
  8
0
 10
28.0877
 20
170.312
 11
28.3925
 21
170.533
  0
LINE
  8
0
 10
28.3925
 20
170.533
 11
28.7227
 21
170.714
  0
LINE
  8
0
 10
28.7227
 20
170.714
 11
29.0729
 21
170.853
  0
LINE
  8
0
 10
29.0729
 20
170.853
 11
29.4379
 21
170.947
  0
LINE
  8
0
 10
29.4379
 20
170.947
 11
29.8116
 21
170.994
  0
LINE
  8
0
 10
29.8116
 20
170.994
 11
30.1884
 21
170.994
  0
LINE
  8
0
 10
30.1884
 20
170.994
 11
30.5621
 21
170.947
  0
LINE
  8
0
 10
30.5621
 20
170.947
 11
30.927
 21
170.853
  0
LINE
  8
0
 10
30.927
 20
170.853
 11
31.2773
 21
170.714
  0
LINE
  8
0
 10
31.2773
 20
170.714
 11
31.6075
 21
170.533
  0
LINE
  8
0
 10
31.6075
 20
170.533
 11
31.9123
 21
170.312
  0
LINE
  8
0
 10
31.9123
 20
170.312
 11
32.1869
 21
170.054
  0
LINE
  8
0
 10
32.1869
 20
170.054
 11
32.427
 21
169.763
  0
LINE
  8
0
 10
32.427
 20
169.763
 11
32.6289
 21
169.445
  0
LINE
  8
0
 10
32.6289
 20
169.445
 11
32.7893
 21
169.104
  0
LINE
  8
0
 10
32.7893
 20
169.104
 11
32.9057
 21
168.746
  0
LINE
  8
0
 10
32.9057
 20
168.746
 11
32.9763
 21
168.376
  0
LINE
  8
0
 10
32.9763
 20
168.376
 11
33
 21
168
  0
LINE
  8
0
 10
33
 20
168
 11
32.9763
 21
167.624
  0
LINE
  8
0
 10
32.9763
 20
167.624
 11
32.9057
 21
167.254
  0
LINE
  8
0
 10
32.9057
 20
167.254
 11
32.7893
 21
166.896
  0
LINE
  8
0
 10
32.7893
 20
166.896
 11
32.6289
 21
166.555
  0
LINE
  8
0
 10
32.6289
 20
166.555
 11
32.427
 21
166.237
  0
LINE
  8
0
 10
32.427
 20
166.237
 11
32.1869
 21
165.946
  0
LINE
  8
0
 10
32.1869
 20
165.946
 11
31.9123
 21
165.688
  0
LINE
  8
0
 10
31.9123
 20
165.688
 11
31.6075
 21
165.467
  0
LINE
  8
0
 10
31.6075
 20
165.467
 11
31.2773
 21
165.286
  0
LINE
  8
0
 10
31.2773
 20
165.286
 11
30.927
 21
165.147
  0
LINE
  8
0
 10
30.927
 20
165.147
 11
30.5621
 21
165.053
  0
LINE
  8
0
 10
30.5621
 20
165.053
 11
30.1884
 21
165.006
  0
LINE
  8
0
 10
30.1884
 20
165.006
 11
29.8116
 21
165.006
  0
LINE
  8
0
 10
-30.1884
 20
165.006
 11
-30.5621
 21
165.053
  0
LINE
  8
0
 10
-30.5621
 20
165.053
 11
-30.927
 21
165.147
  0
LINE
  8
0
 10
-30.927
 20
165.147
 11
-31.2773
 21
165.286
  0
LINE
  8
0
 10
-31.2773
 20
165.286
 11
-31.6075
 21
165.467
  0
LINE
  8
0
 10
-31.6075
 20
165.467
 11
-31.9123
 21
165.688
  0
LINE
  8
0
 10
-31.9123
 20
165.688
 11
-32.1869
 21
165.946
  0
LINE
  8
0
 10
-32.1869
 20
165.946
 11
-32.427
 21
166.237
  0
LINE
  8
0
 10
-32.427
 20
166.237
 11
-32.6289
 21
166.555
  0
LINE
  8
0
 10
-32.6289
 20
166.555
 11
-32.7893
 21
166.896
  0
LINE
  8
0
 10
-32.7893
 20
166.896
 11
-32.9057
 21
167.254
  0
LINE
  8
0
 10
-32.9057
 20
167.254
 11
-32.9763
 21
167.624
  0
LINE
  8
0
 10
-32.9763
 20
167.624
 11
-33
 21
168
  0
LINE
  8
0
 10
-33
 20
168
 11
-32.9763
 21
168.376
  0
LINE
  8
0
 10
-32.9763
 20
168.376
 11
-32.9057
 21
168.746
  0
LINE
  8
0
 10
-32.9057
 20
168.746
 11
-32.7893
 21
169.104
  0
LINE
  8
0
 10
-32.7893
 20
169.104
 11
-32.6289
 21
169.445
  0
LINE
  8
0
 10
-32.6289
 20
169.445
 11
-32.427
 21
169.763
  0
LINE
  8
0
 10
-32.427
 20
169.763
 11
-32.1869
 21
170.054
  0
LINE
  8
0
 10
-32.1869
 20
170.054
 11
-31.9123
 21
170.312
  0
LINE
  8
0
 10
-31.9123
 20
170.312
 11
-31.6075
 21
170.533
  0
LINE
  8
0
 10
-31.6075
 20
170.533
 11
-31.2773
 21
170.714
  0
LINE
  8
0
 10
-31.2773
 20
170.714
 11
-30.927
 21
170.853
  0
LINE
  8
0
 10
-30.927
 20
170.853
 11
-30.5621
 21
170.947
  0
LINE
  8
0
 10
-30.5621
 20
170.947
 11
-30.1884
 21
170.994
  0
LINE
  8
0
 10
-30.1884
 20
170.994
 11
-29.8116
 21
170.994
  0
LINE
  8
0
 10
-29.8116
 20
170.994
 11
-29.4379
 21
170.947
  0
LINE
  8
0
 10
-29.4379
 20
170.947
 11
-29.0729
 21
170.853
  0
LINE
  8
0
 10
-29.0729
 20
170.853
 11
-28.7227
 21
170.714
  0
LINE
  8
0
 10
-28.7227
 20
170.714
 11
-28.3925
 21
170.533
  0
LINE
  8
0
 10
-28.3925
 20
170.533
 11
-28.0877
 21
170.312
  0
LINE
  8
0
 10
-28.0877
 20
170.312
 11
-27.8131
 21
170.054
  0
LINE
  8
0
 10
-27.8131
 20
170.054
 11
-27.5729
 21
169.763
  0
LINE
  8
0
 10
-27.5729
 20
169.763
 11
-27.3711
 21
169.445
  0
LINE
  8
0
 10
-27.3711
 20
169.445
 11
-27.2107
 21
169.104
  0
LINE
  8
0
 10
-27.2107
 20
169.104
 11
-27.0942
 21
168.746
  0
LINE
  8
0
 10
-27.0942
 20
168.746
 11
-27.0237
 21
168.376
  0
LINE
  8
0
 10
-27.0237
 20
168.376
 11
-27
 21
168
  0
LINE
  8
0
 10
-27
 20
168
 11
-27.0237
 21
167.624
  0
LINE
  8
0
 10
-27.0237
 20
167.624
 11
-27.0942
 21
167.254
  0
LINE
  8
0
 10
-27.0942
 20
167.254
 11
-27.2107
 21
166.896
  0
LINE
  8
0
 10
-27.2107
 20
166.896
 11
-27.3711
 21
166.555
  0
LINE
  8
0
 10
-27.3711
 20
166.555
 11
-27.5729
 21
166.237
  0
LINE
  8
0
 10
-27.5729
 20
166.237
 11
-27.8131
 21
165.946
  0
LINE
  8
0
 10
-27.8131
 20
165.946
 11
-28.0877
 21
165.688
  0
LINE
  8
0
 10
-28.0877
 20
165.688
 11
-28.3925
 21
165.467
  0
LINE
  8
0
 10
-28.3925
 20
165.467
 11
-28.7227
 21
165.286
  0
LINE
  8
0
 10
-28.7227
 20
165.286
 11
-29.0729
 21
165.147
  0
LINE
  8
0
 10
-29.0729
 20
165.147
 11
-29.4379
 21
165.053
  0
LINE
  8
0
 10
-29.4379
 20
165.053
 11
-29.8116
 21
165.006
  0
LINE
  8
0
 10
-29.8116
 20
165.006
 11
-30.1884
 21
165.006
  0
LINE
  8
0
 10
-15.1884
 20
165.006
 11
-15.5621
 21
165.053
  0
LINE
  8
0
 10
-15.5621
 20
165.053
 11
-15.927
 21
165.147
  0
LINE
  8
0
 10
-15.927
 20
165.147
 11
-16.2773
 21
165.286
  0
LINE
  8
0
 10
-16.2773
 20
165.286
 11
-16.6075
 21
165.467
  0
LINE
  8
0
 10
-16.6075
 20
165.467
 11
-16.9123
 21
165.688
  0
LINE
  8
0
 10
-16.9123
 20
165.688
 11
-17.1869
 21
165.946
  0
LINE
  8
0
 10
-17.1869
 20
165.946
 11
-17.427
 21
166.237
  0
LINE
  8
0
 10
-17.427
 20
166.237
 11
-17.6289
 21
166.555
  0
LINE
  8
0
 10
-17.6289
 20
166.555
 11
-17.7893
 21
166.896
  0
LINE
  8
0
 10
-17.7893
 20
166.896
 11
-17.9057
 21
167.254
  0
LINE
  8
0
 10
-17.9057
 20
167.254
 11
-17.9763
 21
167.624
  0
LINE
  8
0
 10
-17.9763
 20
167.624
 11
-18
 21
168
  0
LINE
  8
0
 10
-18
 20
168
 11
-17.9763
 21
168.376
  0
LINE
  8
0
 10
-17.9763
 20
168.376
 11
-17.9057
 21
168.746
  0
LINE
  8
0
 10
-17.9057
 20
168.746
 11
-17.7893
 21
169.104
  0
LINE
  8
0
 10
-17.7893
 20
169.104
 11
-17.6289
 21
169.445
  0
LINE
  8
0
 10
-17.6289
 20
169.445
 11
-17.427
 21
169.763
  0
LINE
  8
0
 10
-17.427
 20
169.763
 11
-17.1869
 21
170.054
  0
LINE
  8
0
 10
-17.1869
 20
170.054
 11
-16.9123
 21
170.312
  0
LINE
  8
0
 10
-16.9123
 20
170.312
 11
-16.6075
 21
170.533
  0
LINE
  8
0
 10
-16.6075
 20
170.533
 11
-16.2773
 21
170.714
  0
LINE
  8
0
 10
-16.2773
 20
170.714
 11
-15.927
 21
170.853
  0
LINE
  8
0
 10
-15.927
 20
170.853
 11
-15.5621
 21
170.947
  0
LINE
  8
0
 10
-15.5621
 20
170.947
 11
-15.1884
 21
170.994
  0
LINE
  8
0
 10
-15.1884
 20
170.994
 11
-14.8116
 21
170.994
  0
LINE
  8
0
 10
-14.8116
 20
170.994
 11
-14.4379
 21
170.947
  0
LINE
  8
0
 10
-14.4379
 20
170.947
 11
-14.0729
 21
170.853
  0
LINE
  8
0
 10
-14.0729
 20
170.853
 11
-13.7227
 21
170.714
  0
LINE
  8
0
 10
-13.7227
 20
170.714
 11
-13.3925
 21
170.533
  0
LINE
  8
0
 10
-13.3925
 20
170.533
 11
-13.0877
 21
170.312
  0
LINE
  8
0
 10
-13.0877
 20
170.312
 11
-12.8131
 21
170.054
  0
LINE
  8
0
 10
-12.8131
 20
170.054
 11
-12.5729
 21
169.763
  0
LINE
  8
0
 10
-12.5729
 20
169.763
 11
-12.3711
 21
169.445
  0
LINE
  8
0
 10
-12.3711
 20
169.445
 11
-12.2107
 21
169.104
  0
LINE
  8
0
 10
-12.2107
 20
169.104
 11
-12.0942
 21
168.746
  0
LINE
  8
0
 10
-12.0942
 20
168.746
 11
-12.0237
 21
168.376
  0
LINE
  8
0
 10
-12.0237
 20
168.376
 11
-12
 21
168
  0
LINE
  8
0
 10
-12
 20
168
 11
-12.0237
 21
167.624
  0
LINE
  8
0
 10
-12.0237
 20
167.624
 11
-12.0942
 21
167.254
  0
LINE
  8
0
 10
-12.0942
 20
167.254
 11
-12.2107
 21
166.896
  0
LINE
  8
0
 10
-12.2107
 20
166.896
 11
-12.3711
 21
166.555
  0
LINE
  8
0
 10
-12.3711
 20
166.555
 11
-12.5729
 21
166.237
  0
LINE
  8
0
 10
-12.5729
 20
166.237
 11
-12.8131
 21
165.946
  0
LINE
  8
0
 10
-12.8131
 20
165.946
 11
-13.0877
 21
165.688
  0
LINE
  8
0
 10
-13.0877
 20
165.688
 11
-13.3925
 21
165.467
  0
LINE
  8
0
 10
-13.3925
 20
165.467
 11
-13.7227
 21
165.286
  0
LINE
  8
0
 10
-13.7227
 20
165.286
 11
-14.0729
 21
165.147
  0
LINE
  8
0
 10
-14.0729
 20
165.147
 11
-14.4379
 21
165.053
  0
LINE
  8
0
 10
-14.4379
 20
165.053
 11
-14.8116
 21
165.006
  0
LINE
  8
0
 10
-14.8116
 20
165.006
 11
-15.1884
 21
165.006
  0
LINE
  8
0
 10
14.8116
 20
165.006
 11
14.4379
 21
165.053
  0
LINE
  8
0
 10
14.4379
 20
165.053
 11
14.0729
 21
165.147
  0
LINE
  8
0
 10
14.0729
 20
165.147
 11
13.7227
 21
165.286
  0
LINE
  8
0
 10
13.7227
 20
165.286
 11
13.3925
 21
165.467
  0
LINE
  8
0
 10
13.3925
 20
165.467
 11
13.0877
 21
165.688
  0
LINE
  8
0
 10
13.0877
 20
165.688
 11
12.8131
 21
165.946
  0
LINE
  8
0
 10
12.8131
 20
165.946
 11
12.5729
 21
166.237
  0
LINE
  8
0
 10
12.5729
 20
166.237
 11
12.3711
 21
166.555
  0
LINE
  8
0
 10
12.3711
 20
166.555
 11
12.2107
 21
166.896
  0
LINE
  8
0
 10
12.2107
 20
166.896
 11
12.0942
 21
167.254
  0
LINE
  8
0
 10
12.0942
 20
167.254
 11
12.0237
 21
167.624
  0
LINE
  8
0
 10
12.0237
 20
167.624
 11
12
 21
168
  0
LINE
  8
0
 10
12
 20
168
 11
12.0237
 21
168.376
  0
LINE
  8
0
 10
12.0237
 20
168.376
 11
12.0942
 21
168.746
  0
LINE
  8
0
 10
12.0942
 20
168.746
 11
12.2107
 21
169.104
  0
LINE
  8
0
 10
12.2107
 20
169.104
 11
12.3711
 21
169.445
  0
LINE
  8
0
 10
12.3711
 20
169.445
 11
12.5729
 21
169.763
  0
LINE
  8
0
 10
12.5729
 20
169.763
 11
12.8131
 21
170.054
  0
LINE
  8
0
 10
12.8131
 20
170.054
 11
13.0877
 21
170.312
  0
LINE
  8
0
 10
13.0877
 20
170.312
 11
13.3925
 21
170.533
  0
LINE
  8
0
 10
13.3925
 20
170.533
 11
13.7227
 21
170.714
  0
LINE
  8
0
 10
13.7227
 20
170.714
 11
14.0729
 21
170.853
  0
LINE
  8
0
 10
14.0729
 20
170.853
 11
14.4379
 21
170.947
  0
LINE
  8
0
 10
14.4379
 20
170.947
 11
14.8116
 21
170.994
  0
LINE
  8
0
 10
14.8116
 20
170.994
 11
15.1884
 21
170.994
  0
LINE
  8
0
 10
15.1884
 20
170.994
 11
15.5621
 21
170.947
  0
LINE
  8
0
 10
15.5621
 20
170.947
 11
15.927
 21
170.853
  0
LINE
  8
0
 10
15.927
 20
170.853
 11
16.2773
 21
170.714
  0
LINE
  8
0
 10
16.2773
 20
170.714
 11
16.6075
 21
170.533
  0
LINE
  8
0
 10
16.6075
 20
170.533
 11
16.9123
 21
170.312
  0
LINE
  8
0
 10
16.9123
 20
170.312
 11
17.1869
 21
170.054
  0
LINE
  8
0
 10
17.1869
 20
170.054
 11
17.427
 21
169.763
  0
LINE
  8
0
 10
17.427
 20
169.763
 11
17.6289
 21
169.445
  0
LINE
  8
0
 10
17.6289
 20
169.445
 11
17.7893
 21
169.104
  0
LINE
  8
0
 10
17.7893
 20
169.104
 11
17.9057
 21
168.746
  0
LINE
  8
0
 10
17.9057
 20
168.746
 11
17.9763
 21
168.376
  0
LINE
  8
0
 10
17.9763
 20
168.376
 11
18
 21
168
  0
LINE
  8
0
 10
18
 20
168
 11
17.9763
 21
167.624
  0
LINE
  8
0
 10
17.9763
 20
167.624
 11
17.9057
 21
167.254
  0
LINE
  8
0
 10
17.9057
 20
167.254
 11
17.7893
 21
166.896
  0
LINE
  8
0
 10
17.7893
 20
166.896
 11
17.6289
 21
166.555
  0
LINE
  8
0
 10
17.6289
 20
166.555
 11
17.427
 21
166.237
  0
LINE
  8
0
 10
17.427
 20
166.237
 11
17.1869
 21
165.946
  0
LINE
  8
0
 10
17.1869
 20
165.946
 11
16.9123
 21
165.688
  0
LINE
  8
0
 10
16.9123
 20
165.688
 11
16.6075
 21
165.467
  0
LINE
  8
0
 10
16.6075
 20
165.467
 11
16.2773
 21
165.286
  0
LINE
  8
0
 10
16.2773
 20
165.286
 11
15.927
 21
165.147
  0
LINE
  8
0
 10
15.927
 20
165.147
 11
15.5621
 21
165.053
  0
LINE
  8
0
 10
15.5621
 20
165.053
 11
15.1884
 21
165.006
  0
LINE
  8
0
 10
15.1884
 20
165.006
 11
14.8116
 21
165.006
  0
LINE
  8
0
 10
-0.18837
 20
165.006
 11
-0.562134
 21
165.053
  0
LINE
  8
0
 10
-0.562134
 20
165.053
 11
-0.927048
 21
165.147
  0
LINE
  8
0
 10
-0.927048
 20
165.147
 11
-1.27733
 21
165.286
  0
LINE
  8
0
 10
-1.27733
 20
165.286
 11
-1.60747
 21
165.467
  0
LINE
  8
0
 10
-1.60747
 20
165.467
 11
-1.91226
 21
165.688
  0
LINE
  8
0
 10
-1.91226
 20
165.688
 11
-2.1869
 21
165.946
  0
LINE
  8
0
 10
-2.1869
 20
165.946
 11
-2.42705
 21
166.237
  0
LINE
  8
0
 10
-2.42705
 20
166.237
 11
-2.62891
 21
166.555
  0
LINE
  8
0
 10
-2.62891
 20
166.555
 11
-2.78932
 21
166.896
  0
LINE
  8
0
 10
-2.78932
 20
166.896
 11
-2.90575
 21
167.254
  0
LINE
  8
0
 10
-2.90575
 20
167.254
 11
-2.97633
 21
167.624
  0
LINE
  8
0
 10
-2.97633
 20
167.624
 11
-3
 21
168
  0
LINE
  8
0
 10
-3
 20
168
 11
-2.97633
 21
168.376
  0
LINE
  8
0
 10
-2.97633
 20
168.376
 11
-2.90575
 21
168.746
  0
LINE
  8
0
 10
-2.90575
 20
168.746
 11
-2.78932
 21
169.104
  0
LINE
  8
0
 10
-2.78932
 20
169.104
 11
-2.62891
 21
169.445
  0
LINE
  8
0
 10
-2.62891
 20
169.445
 11
-2.42705
 21
169.763
  0
LINE
  8
0
 10
-2.42705
 20
169.763
 11
-2.1869
 21
170.054
  0
LINE
  8
0
 10
-2.1869
 20
170.054
 11
-1.91226
 21
170.312
  0
LINE
  8
0
 10
-1.91226
 20
170.312
 11
-1.60747
 21
170.533
  0
LINE
  8
0
 10
-1.60747
 20
170.533
 11
-1.27733
 21
170.714
  0
LINE
  8
0
 10
-1.27733
 20
170.714
 11
-0.927048
 21
170.853
  0
LINE
  8
0
 10
-0.927048
 20
170.853
 11
-0.562134
 21
170.947
  0
LINE
  8
0
 10
-0.562134
 20
170.947
 11
-0.18837
 21
170.994
  0
LINE
  8
0
 10
-0.18837
 20
170.994
 11
0.18837
 21
170.994
  0
LINE
  8
0
 10
0.18837
 20
170.994
 11
0.562134
 21
170.947
  0
LINE
  8
0
 10
0.562134
 20
170.947
 11
0.927048
 21
170.853
  0
LINE
  8
0
 10
0.927048
 20
170.853
 11
1.27733
 21
170.714
  0
LINE
  8
0
 10
1.27733
 20
170.714
 11
1.60747
 21
170.533
  0
LINE
  8
0
 10
1.60747
 20
170.533
 11
1.91226
 21
170.312
  0
LINE
  8
0
 10
1.91226
 20
170.312
 11
2.1869
 21
170.054
  0
LINE
  8
0
 10
2.1869
 20
170.054
 11
2.42705
 21
169.763
  0
LINE
  8
0
 10
2.42705
 20
169.763
 11
2.62891
 21
169.445
  0
LINE
  8
0
 10
2.62891
 20
169.445
 11
2.78932
 21
169.104
  0
LINE
  8
0
 10
2.78932
 20
169.104
 11
2.90575
 21
168.746
  0
LINE
  8
0
 10
2.90575
 20
168.746
 11
2.97633
 21
168.376
  0
LINE
  8
0
 10
2.97633
 20
168.376
 11
3
 21
168
  0
LINE
  8
0
 10
3
 20
168
 11
2.97633
 21
167.624
  0
LINE
  8
0
 10
2.97633
 20
167.624
 11
2.90575
 21
167.254
  0
LINE
  8
0
 10
2.90575
 20
167.254
 11
2.78932
 21
166.896
  0
LINE
  8
0
 10
2.78932
 20
166.896
 11
2.62891
 21
166.555
  0
LINE
  8
0
 10
2.62891
 20
166.555
 11
2.42705
 21
166.237
  0
LINE
  8
0
 10
2.42705
 20
166.237
 11
2.1869
 21
165.946
  0
LINE
  8
0
 10
2.1869
 20
165.946
 11
1.91226
 21
165.688
  0
LINE
  8
0
 10
1.91226
 20
165.688
 11
1.60747
 21
165.467
  0
LINE
  8
0
 10
1.60747
 20
165.467
 11
1.27733
 21
165.286
  0
LINE
  8
0
 10
1.27733
 20
165.286
 11
0.927048
 21
165.147
  0
LINE
  8
0
 10
0.927048
 20
165.147
 11
0.562134
 21
165.053
  0
LINE
  8
0
 10
0.562134
 20
165.053
 11
0.18837
 21
165.006
  0
LINE
  8
0
 10
0.18837
 20
165.006
 11
-0.18837
 21
165.006
  0
LINE
  8
0
 10
-0.18837
 20
150.006
 11
-0.562134
 21
150.053
  0
LINE
  8
0
 10
-0.562134
 20
150.053
 11
-0.927048
 21
150.147
  0
LINE
  8
0
 10
-0.927048
 20
150.147
 11
-1.27733
 21
150.286
  0
LINE
  8
0
 10
-1.27733
 20
150.286
 11
-1.60747
 21
150.467
  0
LINE
  8
0
 10
-1.60747
 20
150.467
 11
-1.91226
 21
150.688
  0
LINE
  8
0
 10
-1.91226
 20
150.688
 11
-2.1869
 21
150.946
  0
LINE
  8
0
 10
-2.1869
 20
150.946
 11
-2.42705
 21
151.237
  0
LINE
  8
0
 10
-2.42705
 20
151.237
 11
-2.62891
 21
151.555
  0
LINE
  8
0
 10
-2.62891
 20
151.555
 11
-2.78932
 21
151.896
  0
LINE
  8
0
 10
-2.78932
 20
151.896
 11
-2.90575
 21
152.254
  0
LINE
  8
0
 10
-2.90575
 20
152.254
 11
-2.97633
 21
152.624
  0
LINE
  8
0
 10
-2.97633
 20
152.624
 11
-3
 21
153
  0
LINE
  8
0
 10
-3
 20
153
 11
-2.97633
 21
153.376
  0
LINE
  8
0
 10
-2.97633
 20
153.376
 11
-2.90575
 21
153.746
  0
LINE
  8
0
 10
-2.90575
 20
153.746
 11
-2.78932
 21
154.104
  0
LINE
  8
0
 10
-2.78932
 20
154.104
 11
-2.62891
 21
154.445
  0
LINE
  8
0
 10
-2.62891
 20
154.445
 11
-2.42705
 21
154.763
  0
LINE
  8
0
 10
-2.42705
 20
154.763
 11
-2.1869
 21
155.054
  0
LINE
  8
0
 10
-2.1869
 20
155.054
 11
-1.91226
 21
155.312
  0
LINE
  8
0
 10
-1.91226
 20
155.312
 11
-1.60747
 21
155.533
  0
LINE
  8
0
 10
-1.60747
 20
155.533
 11
-1.27733
 21
155.714
  0
LINE
  8
0
 10
-1.27733
 20
155.714
 11
-0.927048
 21
155.853
  0
LINE
  8
0
 10
-0.927048
 20
155.853
 11
-0.562134
 21
155.947
  0
LINE
  8
0
 10
-0.562134
 20
155.947
 11
-0.18837
 21
155.994
  0
LINE
  8
0
 10
-0.18837
 20
155.994
 11
0.18837
 21
155.994
  0
LINE
  8
0
 10
0.18837
 20
155.994
 11
0.562134
 21
155.947
  0
LINE
  8
0
 10
0.562134
 20
155.947
 11
0.927048
 21
155.853
  0
LINE
  8
0
 10
0.927048
 20
155.853
 11
1.27733
 21
155.714
  0
LINE
  8
0
 10
1.27733
 20
155.714
 11
1.60747
 21
155.533
  0
LINE
  8
0
 10
1.60747
 20
155.533
 11
1.91226
 21
155.312
  0
LINE
  8
0
 10
1.91226
 20
155.312
 11
2.1869
 21
155.054
  0
LINE
  8
0
 10
2.1869
 20
155.054
 11
2.42705
 21
154.763
  0
LINE
  8
0
 10
2.42705
 20
154.763
 11
2.62891
 21
154.445
  0
LINE
  8
0
 10
2.62891
 20
154.445
 11
2.78932
 21
154.104
  0
LINE
  8
0
 10
2.78932
 20
154.104
 11
2.90575
 21
153.746
  0
LINE
  8
0
 10
2.90575
 20
153.746
 11
2.97633
 21
153.376
  0
LINE
  8
0
 10
2.97633
 20
153.376
 11
3
 21
153
  0
LINE
  8
0
 10
3
 20
153
 11
2.97633
 21
152.624
  0
LINE
  8
0
 10
2.97633
 20
152.624
 11
2.90575
 21
152.254
  0
LINE
  8
0
 10
2.90575
 20
152.254
 11
2.78932
 21
151.896
  0
LINE
  8
0
 10
2.78932
 20
151.896
 11
2.62891
 21
151.555
  0
LINE
  8
0
 10
2.62891
 20
151.555
 11
2.42705
 21
151.237
  0
LINE
  8
0
 10
2.42705
 20
151.237
 11
2.1869
 21
150.946
  0
LINE
  8
0
 10
2.1869
 20
150.946
 11
1.91226
 21
150.688
  0
LINE
  8
0
 10
1.91226
 20
150.688
 11
1.60747
 21
150.467
  0
LINE
  8
0
 10
1.60747
 20
150.467
 11
1.27733
 21
150.286
  0
LINE
  8
0
 10
1.27733
 20
150.286
 11
0.927048
 21
150.147
  0
LINE
  8
0
 10
0.927048
 20
150.147
 11
0.562134
 21
150.053
  0
LINE
  8
0
 10
0.562134
 20
150.053
 11
0.18837
 21
150.006
  0
LINE
  8
0
 10
0.18837
 20
150.006
 11
-0.18837
 21
150.006
  0
LINE
  8
0
 10
29.8116
 20
150.006
 11
29.4379
 21
150.053
  0
LINE
  8
0
 10
29.4379
 20
150.053
 11
29.0729
 21
150.147
  0
LINE
  8
0
 10
29.0729
 20
150.147
 11
28.7227
 21
150.286
  0
LINE
  8
0
 10
28.7227
 20
150.286
 11
28.3925
 21
150.467
  0
LINE
  8
0
 10
28.3925
 20
150.467
 11
28.0877
 21
150.688
  0
LINE
  8
0
 10
28.0877
 20
150.688
 11
27.8131
 21
150.946
  0
LINE
  8
0
 10
27.8131
 20
150.946
 11
27.5729
 21
151.237
  0
LINE
  8
0
 10
27.5729
 20
151.237
 11
27.3711
 21
151.555
  0
LINE
  8
0
 10
27.3711
 20
151.555
 11
27.2107
 21
151.896
  0
LINE
  8
0
 10
27.2107
 20
151.896
 11
27.0942
 21
152.254
  0
LINE
  8
0
 10
27.0942
 20
152.254
 11
27.0237
 21
152.624
  0
LINE
  8
0
 10
27.0237
 20
152.624
 11
27
 21
153
  0
LINE
  8
0
 10
27
 20
153
 11
27.0237
 21
153.376
  0
LINE
  8
0
 10
27.0237
 20
153.376
 11
27.0942
 21
153.746
  0
LINE
  8
0
 10
27.0942
 20
153.746
 11
27.2107
 21
154.104
  0
LINE
  8
0
 10
27.2107
 20
154.104
 11
27.3711
 21
154.445
  0
LINE
  8
0
 10
27.3711
 20
154.445
 11
27.5729
 21
154.763
  0
LINE
  8
0
 10
27.5729
 20
154.763
 11
27.8131
 21
155.054
  0
LINE
  8
0
 10
27.8131
 20
155.054
 11
28.0877
 21
155.312
  0
LINE
  8
0
 10
28.0877
 20
155.312
 11
28.3925
 21
155.533
  0
LINE
  8
0
 10
28.3925
 20
155.533
 11
28.7227
 21
155.714
  0
LINE
  8
0
 10
28.7227
 20
155.714
 11
29.0729
 21
155.853
  0
LINE
  8
0
 10
29.0729
 20
155.853
 11
29.4379
 21
155.947
  0
LINE
  8
0
 10
29.4379
 20
155.947
 11
29.8116
 21
155.994
  0
LINE
  8
0
 10
29.8116
 20
155.994
 11
30.1884
 21
155.994
  0
LINE
  8
0
 10
30.1884
 20
155.994
 11
30.5621
 21
155.947
  0
LINE
  8
0
 10
30.5621
 20
155.947
 11
30.927
 21
155.853
  0
LINE
  8
0
 10
30.927
 20
155.853
 11
31.2773
 21
155.714
  0
LINE
  8
0
 10
31.2773
 20
155.714
 11
31.6075
 21
155.533
  0
LINE
  8
0
 10
31.6075
 20
155.533
 11
31.9123
 21
155.312
  0
LINE
  8
0
 10
31.9123
 20
155.312
 11
32.1869
 21
155.054
  0
LINE
  8
0
 10
32.1869
 20
155.054
 11
32.427
 21
154.763
  0
LINE
  8
0
 10
32.427
 20
154.763
 11
32.6289
 21
154.445
  0
LINE
  8
0
 10
32.6289
 20
154.445
 11
32.7893
 21
154.104
  0
LINE
  8
0
 10
32.7893
 20
154.104
 11
32.9057
 21
153.746
  0
LINE
  8
0
 10
32.9057
 20
153.746
 11
32.9763
 21
153.376
  0
LINE
  8
0
 10
32.9763
 20
153.376
 11
33
 21
153
  0
LINE
  8
0
 10
33
 20
153
 11
32.9763
 21
152.624
  0
LINE
  8
0
 10
32.9763
 20
152.624
 11
32.9057
 21
152.254
  0
LINE
  8
0
 10
32.9057
 20
152.254
 11
32.7893
 21
151.896
  0
LINE
  8
0
 10
32.7893
 20
151.896
 11
32.6289
 21
151.555
  0
LINE
  8
0
 10
32.6289
 20
151.555
 11
32.427
 21
151.237
  0
LINE
  8
0
 10
32.427
 20
151.237
 11
32.1869
 21
150.946
  0
LINE
  8
0
 10
32.1869
 20
150.946
 11
31.9123
 21
150.688
  0
LINE
  8
0
 10
31.9123
 20
150.688
 11
31.6075
 21
150.467
  0
LINE
  8
0
 10
31.6075
 20
150.467
 11
31.2773
 21
150.286
  0
LINE
  8
0
 10
31.2773
 20
150.286
 11
30.927
 21
150.147
  0
LINE
  8
0
 10
30.927
 20
150.147
 11
30.5621
 21
150.053
  0
LINE
  8
0
 10
30.5621
 20
150.053
 11
30.1884
 21
150.006
  0
LINE
  8
0
 10
30.1884
 20
150.006
 11
29.8116
 21
150.006
  0
LINE
  8
0
 10
-15.1884
 20
150.006
 11
-15.5621
 21
150.053
  0
LINE
  8
0
 10
-15.5621
 20
150.053
 11
-15.927
 21
150.147
  0
LINE
  8
0
 10
-15.927
 20
150.147
 11
-16.2773
 21
150.286
  0
LINE
  8
0
 10
-16.2773
 20
150.286
 11
-16.6075
 21
150.467
  0
LINE
  8
0
 10
-16.6075
 20
150.467
 11
-16.9123
 21
150.688
  0
LINE
  8
0
 10
-16.9123
 20
150.688
 11
-17.1869
 21
150.946
  0
LINE
  8
0
 10
-17.1869
 20
150.946
 11
-17.427
 21
151.237
  0
LINE
  8
0
 10
-17.427
 20
151.237
 11
-17.6289
 21
151.555
  0
LINE
  8
0
 10
-17.6289
 20
151.555
 11
-17.7893
 21
151.896
  0
LINE
  8
0
 10
-17.7893
 20
151.896
 11
-17.9057
 21
152.254
  0
LINE
  8
0
 10
-17.9057
 20
152.254
 11
-17.9763
 21
152.624
  0
LINE
  8
0
 10
-17.9763
 20
152.624
 11
-18
 21
153
  0
LINE
  8
0
 10
-18
 20
153
 11
-17.9763
 21
153.376
  0
LINE
  8
0
 10
-17.9763
 20
153.376
 11
-17.9057
 21
153.746
  0
LINE
  8
0
 10
-17.9057
 20
153.746
 11
-17.7893
 21
154.104
  0
LINE
  8
0
 10
-17.7893
 20
154.104
 11
-17.6289
 21
154.445
  0
LINE
  8
0
 10
-17.6289
 20
154.445
 11
-17.427
 21
154.763
  0
LINE
  8
0
 10
-17.427
 20
154.763
 11
-17.1869
 21
155.054
  0
LINE
  8
0
 10
-17.1869
 20
155.054
 11
-16.9123
 21
155.312
  0
LINE
  8
0
 10
-16.9123
 20
155.312
 11
-16.6075
 21
155.533
  0
LINE
  8
0
 10
-16.6075
 20
155.533
 11
-16.2773
 21
155.714
  0
LINE
  8
0
 10
-16.2773
 20
155.714
 11
-15.927
 21
155.853
  0
LINE
  8
0
 10
-15.927
 20
155.853
 11
-15.5621
 21
155.947
  0
LINE
  8
0
 10
-15.5621
 20
155.947
 11
-15.1884
 21
155.994
  0
LINE
  8
0
 10
-15.1884
 20
155.994
 11
-14.8116
 21
155.994
  0
LINE
  8
0
 10
-14.8116
 20
155.994
 11
-14.4379
 21
155.947
  0
LINE
  8
0
 10
-14.4379
 20
155.947
 11
-14.0729
 21
155.853
  0
LINE
  8
0
 10
-14.0729
 20
155.853
 11
-13.7227
 21
155.714
  0
LINE
  8
0
 10
-13.7227
 20
155.714
 11
-13.3925
 21
155.533
  0
LINE
  8
0
 10
-13.3925
 20
155.533
 11
-13.0877
 21
155.312
  0
LINE
  8
0
 10
-13.0877
 20
155.312
 11
-12.8131
 21
155.054
  0
LINE
  8
0
 10
-12.8131
 20
155.054
 11
-12.5729
 21
154.763
  0
LINE
  8
0
 10
-12.5729
 20
154.763
 11
-12.3711
 21
154.445
  0
LINE
  8
0
 10
-12.3711
 20
154.445
 11
-12.2107
 21
154.104
  0
LINE
  8
0
 10
-12.2107
 20
154.104
 11
-12.0942
 21
153.746
  0
LINE
  8
0
 10
-12.0942
 20
153.746
 11
-12.0237
 21
153.376
  0
LINE
  8
0
 10
-12.0237
 20
153.376
 11
-12
 21
153
  0
LINE
  8
0
 10
-12
 20
153
 11
-12.0237
 21
152.624
  0
LINE
  8
0
 10
-12.0237
 20
152.624
 11
-12.0942
 21
152.254
  0
LINE
  8
0
 10
-12.0942
 20
152.254
 11
-12.2107
 21
151.896
  0
LINE
  8
0
 10
-12.2107
 20
151.896
 11
-12.3711
 21
151.555
  0
LINE
  8
0
 10
-12.3711
 20
151.555
 11
-12.5729
 21
151.237
  0
LINE
  8
0
 10
-12.5729
 20
151.237
 11
-12.8131
 21
150.946
  0
LINE
  8
0
 10
-12.8131
 20
150.946
 11
-13.0877
 21
150.688
  0
LINE
  8
0
 10
-13.0877
 20
150.688
 11
-13.3925
 21
150.467
  0
LINE
  8
0
 10
-13.3925
 20
150.467
 11
-13.7227
 21
150.286
  0
LINE
  8
0
 10
-13.7227
 20
150.286
 11
-14.0729
 21
150.147
  0
LINE
  8
0
 10
-14.0729
 20
150.147
 11
-14.4379
 21
150.053
  0
LINE
  8
0
 10
-14.4379
 20
150.053
 11
-14.8116
 21
150.006
  0
LINE
  8
0
 10
-14.8116
 20
150.006
 11
-15.1884
 21
150.006
  0
LINE
  8
0
 10
-30.1884
 20
150.006
 11
-30.5621
 21
150.053
  0
LINE
  8
0
 10
-30.5621
 20
150.053
 11
-30.927
 21
150.147
  0
LINE
  8
0
 10
-30.927
 20
150.147
 11
-31.2773
 21
150.286
  0
LINE
  8
0
 10
-31.2773
 20
150.286
 11
-31.6075
 21
150.467
  0
LINE
  8
0
 10
-31.6075
 20
150.467
 11
-31.9123
 21
150.688
  0
LINE
  8
0
 10
-31.9123
 20
150.688
 11
-32.1869
 21
150.946
  0
LINE
  8
0
 10
-32.1869
 20
150.946
 11
-32.427
 21
151.237
  0
LINE
  8
0
 10
-32.427
 20
151.237
 11
-32.6289
 21
151.555
  0
LINE
  8
0
 10
-32.6289
 20
151.555
 11
-32.7893
 21
151.896
  0
LINE
  8
0
 10
-32.7893
 20
151.896
 11
-32.9057
 21
152.254
  0
LINE
  8
0
 10
-32.9057
 20
152.254
 11
-32.9763
 21
152.624
  0
LINE
  8
0
 10
-32.9763
 20
152.624
 11
-33
 21
153
  0
LINE
  8
0
 10
-33
 20
153
 11
-32.9763
 21
153.376
  0
LINE
  8
0
 10
-32.9763
 20
153.376
 11
-32.9057
 21
153.746
  0
LINE
  8
0
 10
-32.9057
 20
153.746
 11
-32.7893
 21
154.104
  0
LINE
  8
0
 10
-32.7893
 20
154.104
 11
-32.6289
 21
154.445
  0
LINE
  8
0
 10
-32.6289
 20
154.445
 11
-32.427
 21
154.763
  0
LINE
  8
0
 10
-32.427
 20
154.763
 11
-32.1869
 21
155.054
  0
LINE
  8
0
 10
-32.1869
 20
155.054
 11
-31.9123
 21
155.312
  0
LINE
  8
0
 10
-31.9123
 20
155.312
 11
-31.6075
 21
155.533
  0
LINE
  8
0
 10
-31.6075
 20
155.533
 11
-31.2773
 21
155.714
  0
LINE
  8
0
 10
-31.2773
 20
155.714
 11
-30.927
 21
155.853
  0
LINE
  8
0
 10
-30.927
 20
155.853
 11
-30.5621
 21
155.947
  0
LINE
  8
0
 10
-30.5621
 20
155.947
 11
-30.1884
 21
155.994
  0
LINE
  8
0
 10
-30.1884
 20
155.994
 11
-29.8116
 21
155.994
  0
LINE
  8
0
 10
-29.8116
 20
155.994
 11
-29.4379
 21
155.947
  0
LINE
  8
0
 10
-29.4379
 20
155.947
 11
-29.0729
 21
155.853
  0
LINE
  8
0
 10
-29.0729
 20
155.853
 11
-28.7227
 21
155.714
  0
LINE
  8
0
 10
-28.7227
 20
155.714
 11
-28.3925
 21
155.533
  0
LINE
  8
0
 10
-28.3925
 20
155.533
 11
-28.0877
 21
155.312
  0
LINE
  8
0
 10
-28.0877
 20
155.312
 11
-27.8131
 21
155.054
  0
LINE
  8
0
 10
-27.8131
 20
155.054
 11
-27.5729
 21
154.763
  0
LINE
  8
0
 10
-27.5729
 20
154.763
 11
-27.3711
 21
154.445
  0
LINE
  8
0
 10
-27.3711
 20
154.445
 11
-27.2107
 21
154.104
  0
LINE
  8
0
 10
-27.2107
 20
154.104
 11
-27.0942
 21
153.746
  0
LINE
  8
0
 10
-27.0942
 20
153.746
 11
-27.0237
 21
153.376
  0
LINE
  8
0
 10
-27.0237
 20
153.376
 11
-27
 21
153
  0
LINE
  8
0
 10
-27
 20
153
 11
-27.0237
 21
152.624
  0
LINE
  8
0
 10
-27.0237
 20
152.624
 11
-27.0942
 21
152.254
  0
LINE
  8
0
 10
-27.0942
 20
152.254
 11
-27.2107
 21
151.896
  0
LINE
  8
0
 10
-27.2107
 20
151.896
 11
-27.3711
 21
151.555
  0
LINE
  8
0
 10
-27.3711
 20
151.555
 11
-27.5729
 21
151.237
  0
LINE
  8
0
 10
-27.5729
 20
151.237
 11
-27.8131
 21
150.946
  0
LINE
  8
0
 10
-27.8131
 20
150.946
 11
-28.0877
 21
150.688
  0
LINE
  8
0
 10
-28.0877
 20
150.688
 11
-28.3925
 21
150.467
  0
LINE
  8
0
 10
-28.3925
 20
150.467
 11
-28.7227
 21
150.286
  0
LINE
  8
0
 10
-28.7227
 20
150.286
 11
-29.0729
 21
150.147
  0
LINE
  8
0
 10
-29.0729
 20
150.147
 11
-29.4379
 21
150.053
  0
LINE
  8
0
 10
-29.4379
 20
150.053
 11
-29.8116
 21
150.006
  0
LINE
  8
0
 10
-29.8116
 20
150.006
 11
-30.1884
 21
150.006
  0
LINE
  8
0
 10
14.8116
 20
150.006
 11
14.4379
 21
150.053
  0
LINE
  8
0
 10
14.4379
 20
150.053
 11
14.0729
 21
150.147
  0
LINE
  8
0
 10
14.0729
 20
150.147
 11
13.7227
 21
150.286
  0
LINE
  8
0
 10
13.7227
 20
150.286
 11
13.3925
 21
150.467
  0
LINE
  8
0
 10
13.3925
 20
150.467
 11
13.0877
 21
150.688
  0
LINE
  8
0
 10
13.0877
 20
150.688
 11
12.8131
 21
150.946
  0
LINE
  8
0
 10
12.8131
 20
150.946
 11
12.5729
 21
151.237
  0
LINE
  8
0
 10
12.5729
 20
151.237
 11
12.3711
 21
151.555
  0
LINE
  8
0
 10
12.3711
 20
151.555
 11
12.2107
 21
151.896
  0
LINE
  8
0
 10
12.2107
 20
151.896
 11
12.0942
 21
152.254
  0
LINE
  8
0
 10
12.0942
 20
152.254
 11
12.0237
 21
152.624
  0
LINE
  8
0
 10
12.0237
 20
152.624
 11
12
 21
153
  0
LINE
  8
0
 10
12
 20
153
 11
12.0237
 21
153.376
  0
LINE
  8
0
 10
12.0237
 20
153.376
 11
12.0942
 21
153.746
  0
LINE
  8
0
 10
12.0942
 20
153.746
 11
12.2107
 21
154.104
  0
LINE
  8
0
 10
12.2107
 20
154.104
 11
12.3711
 21
154.445
  0
LINE
  8
0
 10
12.3711
 20
154.445
 11
12.5729
 21
154.763
  0
LINE
  8
0
 10
12.5729
 20
154.763
 11
12.8131
 21
155.054
  0
LINE
  8
0
 10
12.8131
 20
155.054
 11
13.0877
 21
155.312
  0
LINE
  8
0
 10
13.0877
 20
155.312
 11
13.3925
 21
155.533
  0
LINE
  8
0
 10
13.3925
 20
155.533
 11
13.7227
 21
155.714
  0
LINE
  8
0
 10
13.7227
 20
155.714
 11
14.0729
 21
155.853
  0
LINE
  8
0
 10
14.0729
 20
155.853
 11
14.4379
 21
155.947
  0
LINE
  8
0
 10
14.4379
 20
155.947
 11
14.8116
 21
155.994
  0
LINE
  8
0
 10
14.8116
 20
155.994
 11
15.1884
 21
155.994
  0
LINE
  8
0
 10
15.1884
 20
155.994
 11
15.5621
 21
155.947
  0
LINE
  8
0
 10
15.5621
 20
155.947
 11
15.927
 21
155.853
  0
LINE
  8
0
 10
15.927
 20
155.853
 11
16.2773
 21
155.714
  0
LINE
  8
0
 10
16.2773
 20
155.714
 11
16.6075
 21
155.533
  0
LINE
  8
0
 10
16.6075
 20
155.533
 11
16.9123
 21
155.312
  0
LINE
  8
0
 10
16.9123
 20
155.312
 11
17.1869
 21
155.054
  0
LINE
  8
0
 10
17.1869
 20
155.054
 11
17.427
 21
154.763
  0
LINE
  8
0
 10
17.427
 20
154.763
 11
17.6289
 21
154.445
  0
LINE
  8
0
 10
17.6289
 20
154.445
 11
17.7893
 21
154.104
  0
LINE
  8
0
 10
17.7893
 20
154.104
 11
17.9057
 21
153.746
  0
LINE
  8
0
 10
17.9057
 20
153.746
 11
17.9763
 21
153.376
  0
LINE
  8
0
 10
17.9763
 20
153.376
 11
18
 21
153
  0
LINE
  8
0
 10
18
 20
153
 11
17.9763
 21
152.624
  0
LINE
  8
0
 10
17.9763
 20
152.624
 11
17.9057
 21
152.254
  0
LINE
  8
0
 10
17.9057
 20
152.254
 11
17.7893
 21
151.896
  0
LINE
  8
0
 10
17.7893
 20
151.896
 11
17.6289
 21
151.555
  0
LINE
  8
0
 10
17.6289
 20
151.555
 11
17.427
 21
151.237
  0
LINE
  8
0
 10
17.427
 20
151.237
 11
17.1869
 21
150.946
  0
LINE
  8
0
 10
17.1869
 20
150.946
 11
16.9123
 21
150.688
  0
LINE
  8
0
 10
16.9123
 20
150.688
 11
16.6075
 21
150.467
  0
LINE
  8
0
 10
16.6075
 20
150.467
 11
16.2773
 21
150.286
  0
LINE
  8
0
 10
16.2773
 20
150.286
 11
15.927
 21
150.147
  0
LINE
  8
0
 10
15.927
 20
150.147
 11
15.5621
 21
150.053
  0
LINE
  8
0
 10
15.5621
 20
150.053
 11
15.1884
 21
150.006
  0
LINE
  8
0
 10
15.1884
 20
150.006
 11
14.8116
 21
150.006
  0
LINE
  8
0
 10
-0.18837
 20
135.006
 11
-0.562134
 21
135.053
  0
LINE
  8
0
 10
-0.562134
 20
135.053
 11
-0.927048
 21
135.147
  0
LINE
  8
0
 10
-0.927048
 20
135.147
 11
-1.27733
 21
135.286
  0
LINE
  8
0
 10
-1.27733
 20
135.286
 11
-1.60747
 21
135.467
  0
LINE
  8
0
 10
-1.60747
 20
135.467
 11
-1.91226
 21
135.688
  0
LINE
  8
0
 10
-1.91226
 20
135.688
 11
-2.1869
 21
135.946
  0
LINE
  8
0
 10
-2.1869
 20
135.946
 11
-2.42705
 21
136.237
  0
LINE
  8
0
 10
-2.42705
 20
136.237
 11
-2.62891
 21
136.555
  0
LINE
  8
0
 10
-2.62891
 20
136.555
 11
-2.78932
 21
136.896
  0
LINE
  8
0
 10
-2.78932
 20
136.896
 11
-2.90575
 21
137.254
  0
LINE
  8
0
 10
-2.90575
 20
137.254
 11
-2.97633
 21
137.624
  0
LINE
  8
0
 10
-2.97633
 20
137.624
 11
-3
 21
138
  0
LINE
  8
0
 10
-3
 20
138
 11
-2.97633
 21
138.376
  0
LINE
  8
0
 10
-2.97633
 20
138.376
 11
-2.90575
 21
138.746
  0
LINE
  8
0
 10
-2.90575
 20
138.746
 11
-2.78932
 21
139.104
  0
LINE
  8
0
 10
-2.78932
 20
139.104
 11
-2.62891
 21
139.445
  0
LINE
  8
0
 10
-2.62891
 20
139.445
 11
-2.42705
 21
139.763
  0
LINE
  8
0
 10
-2.42705
 20
139.763
 11
-2.1869
 21
140.054
  0
LINE
  8
0
 10
-2.1869
 20
140.054
 11
-1.91226
 21
140.312
  0
LINE
  8
0
 10
-1.91226
 20
140.312
 11
-1.60747
 21
140.533
  0
LINE
  8
0
 10
-1.60747
 20
140.533
 11
-1.27733
 21
140.714
  0
LINE
  8
0
 10
-1.27733
 20
140.714
 11
-0.927048
 21
140.853
  0
LINE
  8
0
 10
-0.927048
 20
140.853
 11
-0.562134
 21
140.947
  0
LINE
  8
0
 10
-0.562134
 20
140.947
 11
-0.18837
 21
140.994
  0
LINE
  8
0
 10
-0.18837
 20
140.994
 11
0.18837
 21
140.994
  0
LINE
  8
0
 10
0.18837
 20
140.994
 11
0.562134
 21
140.947
  0
LINE
  8
0
 10
0.562134
 20
140.947
 11
0.927048
 21
140.853
  0
LINE
  8
0
 10
0.927048
 20
140.853
 11
1.27733
 21
140.714
  0
LINE
  8
0
 10
1.27733
 20
140.714
 11
1.60747
 21
140.533
  0
LINE
  8
0
 10
1.60747
 20
140.533
 11
1.91226
 21
140.312
  0
LINE
  8
0
 10
1.91226
 20
140.312
 11
2.1869
 21
140.054
  0
LINE
  8
0
 10
2.1869
 20
140.054
 11
2.42705
 21
139.763
  0
LINE
  8
0
 10
2.42705
 20
139.763
 11
2.62891
 21
139.445
  0
LINE
  8
0
 10
2.62891
 20
139.445
 11
2.78932
 21
139.104
  0
LINE
  8
0
 10
2.78932
 20
139.104
 11
2.90575
 21
138.746
  0
LINE
  8
0
 10
2.90575
 20
138.746
 11
2.97633
 21
138.376
  0
LINE
  8
0
 10
2.97633
 20
138.376
 11
3
 21
138
  0
LINE
  8
0
 10
3
 20
138
 11
2.97633
 21
137.624
  0
LINE
  8
0
 10
2.97633
 20
137.624
 11
2.90575
 21
137.254
  0
LINE
  8
0
 10
2.90575
 20
137.254
 11
2.78932
 21
136.896
  0
LINE
  8
0
 10
2.78932
 20
136.896
 11
2.62891
 21
136.555
  0
LINE
  8
0
 10
2.62891
 20
136.555
 11
2.42705
 21
136.237
  0
LINE
  8
0
 10
2.42705
 20
136.237
 11
2.1869
 21
135.946
  0
LINE
  8
0
 10
2.1869
 20
135.946
 11
1.91226
 21
135.688
  0
LINE
  8
0
 10
1.91226
 20
135.688
 11
1.60747
 21
135.467
  0
LINE
  8
0
 10
1.60747
 20
135.467
 11
1.27733
 21
135.286
  0
LINE
  8
0
 10
1.27733
 20
135.286
 11
0.927048
 21
135.147
  0
LINE
  8
0
 10
0.927048
 20
135.147
 11
0.562134
 21
135.053
  0
LINE
  8
0
 10
0.562134
 20
135.053
 11
0.18837
 21
135.006
  0
LINE
  8
0
 10
0.18837
 20
135.006
 11
-0.18837
 21
135.006
  0
LINE
  8
0
 10
29.8116
 20
135.006
 11
29.4379
 21
135.053
  0
LINE
  8
0
 10
29.4379
 20
135.053
 11
29.0729
 21
135.147
  0
LINE
  8
0
 10
29.0729
 20
135.147
 11
28.7227
 21
135.286
  0
LINE
  8
0
 10
28.7227
 20
135.286
 11
28.3925
 21
135.467
  0
LINE
  8
0
 10
28.3925
 20
135.467
 11
28.0877
 21
135.688
  0
LINE
  8
0
 10
28.0877
 20
135.688
 11
27.8131
 21
135.946
  0
LINE
  8
0
 10
27.8131
 20
135.946
 11
27.5729
 21
136.237
  0
LINE
  8
0
 10
27.5729
 20
136.237
 11
27.3711
 21
136.555
  0
LINE
  8
0
 10
27.3711
 20
136.555
 11
27.2107
 21
136.896
  0
LINE
  8
0
 10
27.2107
 20
136.896
 11
27.0942
 21
137.254
  0
LINE
  8
0
 10
27.0942
 20
137.254
 11
27.0237
 21
137.624
  0
LINE
  8
0
 10
27.0237
 20
137.624
 11
27
 21
138
  0
LINE
  8
0
 10
27
 20
138
 11
27.0237
 21
138.376
  0
LINE
  8
0
 10
27.0237
 20
138.376
 11
27.0942
 21
138.746
  0
LINE
  8
0
 10
27.0942
 20
138.746
 11
27.2107
 21
139.104
  0
LINE
  8
0
 10
27.2107
 20
139.104
 11
27.3711
 21
139.445
  0
LINE
  8
0
 10
27.3711
 20
139.445
 11
27.5729
 21
139.763
  0
LINE
  8
0
 10
27.5729
 20
139.763
 11
27.8131
 21
140.054
  0
LINE
  8
0
 10
27.8131
 20
140.054
 11
28.0877
 21
140.312
  0
LINE
  8
0
 10
28.0877
 20
140.312
 11
28.3925
 21
140.533
  0
LINE
  8
0
 10
28.3925
 20
140.533
 11
28.7227
 21
140.714
  0
LINE
  8
0
 10
28.7227
 20
140.714
 11
29.0729
 21
140.853
  0
LINE
  8
0
 10
29.0729
 20
140.853
 11
29.4379
 21
140.947
  0
LINE
  8
0
 10
29.4379
 20
140.947
 11
29.8116
 21
140.994
  0
LINE
  8
0
 10
29.8116
 20
140.994
 11
30.1884
 21
140.994
  0
LINE
  8
0
 10
30.1884
 20
140.994
 11
30.5621
 21
140.947
  0
LINE
  8
0
 10
30.5621
 20
140.947
 11
30.927
 21
140.853
  0
LINE
  8
0
 10
30.927
 20
140.853
 11
31.2773
 21
140.714
  0
LINE
  8
0
 10
31.2773
 20
140.714
 11
31.6075
 21
140.533
  0
LINE
  8
0
 10
31.6075
 20
140.533
 11
31.9123
 21
140.312
  0
LINE
  8
0
 10
31.9123
 20
140.312
 11
32.1869
 21
140.054
  0
LINE
  8
0
 10
32.1869
 20
140.054
 11
32.427
 21
139.763
  0
LINE
  8
0
 10
32.427
 20
139.763
 11
32.6289
 21
139.445
  0
LINE
  8
0
 10
32.6289
 20
139.445
 11
32.7893
 21
139.104
  0
LINE
  8
0
 10
32.7893
 20
139.104
 11
32.9057
 21
138.746
  0
LINE
  8
0
 10
32.9057
 20
138.746
 11
32.9763
 21
138.376
  0
LINE
  8
0
 10
32.9763
 20
138.376
 11
33
 21
138
  0
LINE
  8
0
 10
33
 20
138
 11
32.9763
 21
137.624
  0
LINE
  8
0
 10
32.9763
 20
137.624
 11
32.9057
 21
137.254
  0
LINE
  8
0
 10
32.9057
 20
137.254
 11
32.7893
 21
136.896
  0
LINE
  8
0
 10
32.7893
 20
136.896
 11
32.6289
 21
136.555
  0
LINE
  8
0
 10
32.6289
 20
136.555
 11
32.427
 21
136.237
  0
LINE
  8
0
 10
32.427
 20
136.237
 11
32.1869
 21
135.946
  0
LINE
  8
0
 10
32.1869
 20
135.946
 11
31.9123
 21
135.688
  0
LINE
  8
0
 10
31.9123
 20
135.688
 11
31.6075
 21
135.467
  0
LINE
  8
0
 10
31.6075
 20
135.467
 11
31.2773
 21
135.286
  0
LINE
  8
0
 10
31.2773
 20
135.286
 11
30.927
 21
135.147
  0
LINE
  8
0
 10
30.927
 20
135.147
 11
30.5621
 21
135.053
  0
LINE
  8
0
 10
30.5621
 20
135.053
 11
30.1884
 21
135.006
  0
LINE
  8
0
 10
30.1884
 20
135.006
 11
29.8116
 21
135.006
  0
LINE
  8
0
 10
-15.1884
 20
135.006
 11
-15.5621
 21
135.053
  0
LINE
  8
0
 10
-15.5621
 20
135.053
 11
-15.927
 21
135.147
  0
LINE
  8
0
 10
-15.927
 20
135.147
 11
-16.2773
 21
135.286
  0
LINE
  8
0
 10
-16.2773
 20
135.286
 11
-16.6075
 21
135.467
  0
LINE
  8
0
 10
-16.6075
 20
135.467
 11
-16.9123
 21
135.688
  0
LINE
  8
0
 10
-16.9123
 20
135.688
 11
-17.1869
 21
135.946
  0
LINE
  8
0
 10
-17.1869
 20
135.946
 11
-17.427
 21
136.237
  0
LINE
  8
0
 10
-17.427
 20
136.237
 11
-17.6289
 21
136.555
  0
LINE
  8
0
 10
-17.6289
 20
136.555
 11
-17.7893
 21
136.896
  0
LINE
  8
0
 10
-17.7893
 20
136.896
 11
-17.9057
 21
137.254
  0
LINE
  8
0
 10
-17.9057
 20
137.254
 11
-17.9763
 21
137.624
  0
LINE
  8
0
 10
-17.9763
 20
137.624
 11
-18
 21
138
  0
LINE
  8
0
 10
-18
 20
138
 11
-17.9763
 21
138.376
  0
LINE
  8
0
 10
-17.9763
 20
138.376
 11
-17.9057
 21
138.746
  0
LINE
  8
0
 10
-17.9057
 20
138.746
 11
-17.7893
 21
139.104
  0
LINE
  8
0
 10
-17.7893
 20
139.104
 11
-17.6289
 21
139.445
  0
LINE
  8
0
 10
-17.6289
 20
139.445
 11
-17.427
 21
139.763
  0
LINE
  8
0
 10
-17.427
 20
139.763
 11
-17.1869
 21
140.054
  0
LINE
  8
0
 10
-17.1869
 20
140.054
 11
-16.9123
 21
140.312
  0
LINE
  8
0
 10
-16.9123
 20
140.312
 11
-16.6075
 21
140.533
  0
LINE
  8
0
 10
-16.6075
 20
140.533
 11
-16.2773
 21
140.714
  0
LINE
  8
0
 10
-16.2773
 20
140.714
 11
-15.927
 21
140.853
  0
LINE
  8
0
 10
-15.927
 20
140.853
 11
-15.5621
 21
140.947
  0
LINE
  8
0
 10
-15.5621
 20
140.947
 11
-15.1884
 21
140.994
  0
LINE
  8
0
 10
-15.1884
 20
140.994
 11
-14.8116
 21
140.994
  0
LINE
  8
0
 10
-14.8116
 20
140.994
 11
-14.4379
 21
140.947
  0
LINE
  8
0
 10
-14.4379
 20
140.947
 11
-14.0729
 21
140.853
  0
LINE
  8
0
 10
-14.0729
 20
140.853
 11
-13.7227
 21
140.714
  0
LINE
  8
0
 10
-13.7227
 20
140.714
 11
-13.3925
 21
140.533
  0
LINE
  8
0
 10
-13.3925
 20
140.533
 11
-13.0877
 21
140.312
  0
LINE
  8
0
 10
-13.0877
 20
140.312
 11
-12.8131
 21
140.054
  0
LINE
  8
0
 10
-12.8131
 20
140.054
 11
-12.5729
 21
139.763
  0
LINE
  8
0
 10
-12.5729
 20
139.763
 11
-12.3711
 21
139.445
  0
LINE
  8
0
 10
-12.3711
 20
139.445
 11
-12.2107
 21
139.104
  0
LINE
  8
0
 10
-12.2107
 20
139.104
 11
-12.0942
 21
138.746
  0
LINE
  8
0
 10
-12.0942
 20
138.746
 11
-12.0237
 21
138.376
  0
LINE
  8
0
 10
-12.0237
 20
138.376
 11
-12
 21
138
  0
LINE
  8
0
 10
-12
 20
138
 11
-12.0237
 21
137.624
  0
LINE
  8
0
 10
-12.0237
 20
137.624
 11
-12.0942
 21
137.254
  0
LINE
  8
0
 10
-12.0942
 20
137.254
 11
-12.2107
 21
136.896
  0
LINE
  8
0
 10
-12.2107
 20
136.896
 11
-12.3711
 21
136.555
  0
LINE
  8
0
 10
-12.3711
 20
136.555
 11
-12.5729
 21
136.237
  0
LINE
  8
0
 10
-12.5729
 20
136.237
 11
-12.8131
 21
135.946
  0
LINE
  8
0
 10
-12.8131
 20
135.946
 11
-13.0877
 21
135.688
  0
LINE
  8
0
 10
-13.0877
 20
135.688
 11
-13.3925
 21
135.467
  0
LINE
  8
0
 10
-13.3925
 20
135.467
 11
-13.7227
 21
135.286
  0
LINE
  8
0
 10
-13.7227
 20
135.286
 11
-14.0729
 21
135.147
  0
LINE
  8
0
 10
-14.0729
 20
135.147
 11
-14.4379
 21
135.053
  0
LINE
  8
0
 10
-14.4379
 20
135.053
 11
-14.8116
 21
135.006
  0
LINE
  8
0
 10
-14.8116
 20
135.006
 11
-15.1884
 21
135.006
  0
LINE
  8
0
 10
14.8116
 20
135.006
 11
14.4379
 21
135.053
  0
LINE
  8
0
 10
14.4379
 20
135.053
 11
14.0729
 21
135.147
  0
LINE
  8
0
 10
14.0729
 20
135.147
 11
13.7227
 21
135.286
  0
LINE
  8
0
 10
13.7227
 20
135.286
 11
13.3925
 21
135.467
  0
LINE
  8
0
 10
13.3925
 20
135.467
 11
13.0877
 21
135.688
  0
LINE
  8
0
 10
13.0877
 20
135.688
 11
12.8131
 21
135.946
  0
LINE
  8
0
 10
12.8131
 20
135.946
 11
12.5729
 21
136.237
  0
LINE
  8
0
 10
12.5729
 20
136.237
 11
12.3711
 21
136.555
  0
LINE
  8
0
 10
12.3711
 20
136.555
 11
12.2107
 21
136.896
  0
LINE
  8
0
 10
12.2107
 20
136.896
 11
12.0942
 21
137.254
  0
LINE
  8
0
 10
12.0942
 20
137.254
 11
12.0237
 21
137.624
  0
LINE
  8
0
 10
12.0237
 20
137.624
 11
12
 21
138
  0
LINE
  8
0
 10
12
 20
138
 11
12.0237
 21
138.376
  0
LINE
  8
0
 10
12.0237
 20
138.376
 11
12.0942
 21
138.746
  0
LINE
  8
0
 10
12.0942
 20
138.746
 11
12.2107
 21
139.104
  0
LINE
  8
0
 10
12.2107
 20
139.104
 11
12.3711
 21
139.445
  0
LINE
  8
0
 10
12.3711
 20
139.445
 11
12.5729
 21
139.763
  0
LINE
  8
0
 10
12.5729
 20
139.763
 11
12.8131
 21
140.054
  0
LINE
  8
0
 10
12.8131
 20
140.054
 11
13.0877
 21
140.312
  0
LINE
  8
0
 10
13.0877
 20
140.312
 11
13.3925
 21
140.533
  0
LINE
  8
0
 10
13.3925
 20
140.533
 11
13.7227
 21
140.714
  0
LINE
  8
0
 10
13.7227
 20
140.714
 11
14.0729
 21
140.853
  0
LINE
  8
0
 10
14.0729
 20
140.853
 11
14.4379
 21
140.947
  0
LINE
  8
0
 10
14.4379
 20
140.947
 11
14.8116
 21
140.994
  0
LINE
  8
0
 10
14.8116
 20
140.994
 11
15.1884
 21
140.994
  0
LINE
  8
0
 10
15.1884
 20
140.994
 11
15.5621
 21
140.947
  0
LINE
  8
0
 10
15.5621
 20
140.947
 11
15.927
 21
140.853
  0
LINE
  8
0
 10
15.927
 20
140.853
 11
16.2773
 21
140.714
  0
LINE
  8
0
 10
16.2773
 20
140.714
 11
16.6075
 21
140.533
  0
LINE
  8
0
 10
16.6075
 20
140.533
 11
16.9123
 21
140.312
  0
LINE
  8
0
 10
16.9123
 20
140.312
 11
17.1869
 21
140.054
  0
LINE
  8
0
 10
17.1869
 20
140.054
 11
17.427
 21
139.763
  0
LINE
  8
0
 10
17.427
 20
139.763
 11
17.6289
 21
139.445
  0
LINE
  8
0
 10
17.6289
 20
139.445
 11
17.7893
 21
139.104
  0
LINE
  8
0
 10
17.7893
 20
139.104
 11
17.9057
 21
138.746
  0
LINE
  8
0
 10
17.9057
 20
138.746
 11
17.9763
 21
138.376
  0
LINE
  8
0
 10
17.9763
 20
138.376
 11
18
 21
138
  0
LINE
  8
0
 10
18
 20
138
 11
17.9763
 21
137.624
  0
LINE
  8
0
 10
17.9763
 20
137.624
 11
17.9057
 21
137.254
  0
LINE
  8
0
 10
17.9057
 20
137.254
 11
17.7893
 21
136.896
  0
LINE
  8
0
 10
17.7893
 20
136.896
 11
17.6289
 21
136.555
  0
LINE
  8
0
 10
17.6289
 20
136.555
 11
17.427
 21
136.237
  0
LINE
  8
0
 10
17.427
 20
136.237
 11
17.1869
 21
135.946
  0
LINE
  8
0
 10
17.1869
 20
135.946
 11
16.9123
 21
135.688
  0
LINE
  8
0
 10
16.9123
 20
135.688
 11
16.6075
 21
135.467
  0
LINE
  8
0
 10
16.6075
 20
135.467
 11
16.2773
 21
135.286
  0
LINE
  8
0
 10
16.2773
 20
135.286
 11
15.927
 21
135.147
  0
LINE
  8
0
 10
15.927
 20
135.147
 11
15.5621
 21
135.053
  0
LINE
  8
0
 10
15.5621
 20
135.053
 11
15.1884
 21
135.006
  0
LINE
  8
0
 10
15.1884
 20
135.006
 11
14.8116
 21
135.006
  0
LINE
  8
0
 10
-30.1884
 20
135.006
 11
-30.5621
 21
135.053
  0
LINE
  8
0
 10
-30.5621
 20
135.053
 11
-30.927
 21
135.147
  0
LINE
  8
0
 10
-30.927
 20
135.147
 11
-31.2773
 21
135.286
  0
LINE
  8
0
 10
-31.2773
 20
135.286
 11
-31.6075
 21
135.467
  0
LINE
  8
0
 10
-31.6075
 20
135.467
 11
-31.9123
 21
135.688
  0
LINE
  8
0
 10
-31.9123
 20
135.688
 11
-32.1869
 21
135.946
  0
LINE
  8
0
 10
-32.1869
 20
135.946
 11
-32.427
 21
136.237
  0
LINE
  8
0
 10
-32.427
 20
136.237
 11
-32.6289
 21
136.555
  0
LINE
  8
0
 10
-32.6289
 20
136.555
 11
-32.7893
 21
136.896
  0
LINE
  8
0
 10
-32.7893
 20
136.896
 11
-32.9057
 21
137.254
  0
LINE
  8
0
 10
-32.9057
 20
137.254
 11
-32.9763
 21
137.624
  0
LINE
  8
0
 10
-32.9763
 20
137.624
 11
-33
 21
138
  0
LINE
  8
0
 10
-33
 20
138
 11
-32.9763
 21
138.376
  0
LINE
  8
0
 10
-32.9763
 20
138.376
 11
-32.9057
 21
138.746
  0
LINE
  8
0
 10
-32.9057
 20
138.746
 11
-32.7893
 21
139.104
  0
LINE
  8
0
 10
-32.7893
 20
139.104
 11
-32.6289
 21
139.445
  0
LINE
  8
0
 10
-32.6289
 20
139.445
 11
-32.427
 21
139.763
  0
LINE
  8
0
 10
-32.427
 20
139.763
 11
-32.1869
 21
140.054
  0
LINE
  8
0
 10
-32.1869
 20
140.054
 11
-31.9123
 21
140.312
  0
LINE
  8
0
 10
-31.9123
 20
140.312
 11
-31.6075
 21
140.533
  0
LINE
  8
0
 10
-31.6075
 20
140.533
 11
-31.2773
 21
140.714
  0
LINE
  8
0
 10
-31.2773
 20
140.714
 11
-30.927
 21
140.853
  0
LINE
  8
0
 10
-30.927
 20
140.853
 11
-30.5621
 21
140.947
  0
LINE
  8
0
 10
-30.5621
 20
140.947
 11
-30.1884
 21
140.994
  0
LINE
  8
0
 10
-30.1884
 20
140.994
 11
-29.8116
 21
140.994
  0
LINE
  8
0
 10
-29.8116
 20
140.994
 11
-29.4379
 21
140.947
  0
LINE
  8
0
 10
-29.4379
 20
140.947
 11
-29.0729
 21
140.853
  0
LINE
  8
0
 10
-29.0729
 20
140.853
 11
-28.7227
 21
140.714
  0
LINE
  8
0
 10
-28.7227
 20
140.714
 11
-28.3925
 21
140.533
  0
LINE
  8
0
 10
-28.3925
 20
140.533
 11
-28.0877
 21
140.312
  0
LINE
  8
0
 10
-28.0877
 20
140.312
 11
-27.8131
 21
140.054
  0
LINE
  8
0
 10
-27.8131
 20
140.054
 11
-27.5729
 21
139.763
  0
LINE
  8
0
 10
-27.5729
 20
139.763
 11
-27.3711
 21
139.445
  0
LINE
  8
0
 10
-27.3711
 20
139.445
 11
-27.2107
 21
139.104
  0
LINE
  8
0
 10
-27.2107
 20
139.104
 11
-27.0942
 21
138.746
  0
LINE
  8
0
 10
-27.0942
 20
138.746
 11
-27.0237
 21
138.376
  0
LINE
  8
0
 10
-27.0237
 20
138.376
 11
-27
 21
138
  0
LINE
  8
0
 10
-27
 20
138
 11
-27.0237
 21
137.624
  0
LINE
  8
0
 10
-27.0237
 20
137.624
 11
-27.0942
 21
137.254
  0
LINE
  8
0
 10
-27.0942
 20
137.254
 11
-27.2107
 21
136.896
  0
LINE
  8
0
 10
-27.2107
 20
136.896
 11
-27.3711
 21
136.555
  0
LINE
  8
0
 10
-27.3711
 20
136.555
 11
-27.5729
 21
136.237
  0
LINE
  8
0
 10
-27.5729
 20
136.237
 11
-27.8131
 21
135.946
  0
LINE
  8
0
 10
-27.8131
 20
135.946
 11
-28.0877
 21
135.688
  0
LINE
  8
0
 10
-28.0877
 20
135.688
 11
-28.3925
 21
135.467
  0
LINE
  8
0
 10
-28.3925
 20
135.467
 11
-28.7227
 21
135.286
  0
LINE
  8
0
 10
-28.7227
 20
135.286
 11
-29.0729
 21
135.147
  0
LINE
  8
0
 10
-29.0729
 20
135.147
 11
-29.4379
 21
135.053
  0
LINE
  8
0
 10
-29.4379
 20
135.053
 11
-29.8116
 21
135.006
  0
LINE
  8
0
 10
-29.8116
 20
135.006
 11
-30.1884
 21
135.006
  0
ENDSEC
  0
SECTION
  2
OBJECTS
  0
DICTIONARY
  0
ENDSEC
  0
EOF
