  0
SECTION
  2
BLOCKS
  0
ENDSEC
  0
SECTION
  2
ENTITIES
  0
LINE
  8
0
 10
167.937
 20
-21.9114
 11
168.545
 21
-21.7553
  0
LINE
  8
0
 10
168.545
 20
-21.7553
 11
169.129
 21
-21.5241
  0
LINE
  8
0
 10
169.129
 20
-21.5241
 11
169.679
 21
-21.2216
  0
LINE
  8
0
 10
169.679
 20
-21.2216
 11
170.187
 21
-20.8526
  0
LINE
  8
0
 10
170.187
 20
-20.8526
 11
170.645
 21
-20.4227
  0
LINE
  8
0
 10
170.645
 20
-20.4227
 11
171.045
 21
-19.9389
  0
LINE
  8
0
 10
171.045
 20
-19.9389
 11
171.382
 21
-19.4088
  0
LINE
  8
0
 10
171.382
 20
-19.4088
 11
171.649
 21
-18.8406
  0
LINE
  8
0
 10
171.649
 20
-18.8406
 11
171.843
 21
-18.2434
  0
LINE
  8
0
 10
171.843
 20
-18.2434
 11
171.961
 21
-17.6267
  0
LINE
  8
0
 10
171.961
 20
-17.6267
 11
172
 21
-17
  0
LINE
  8
0
 10
172
 20
-17
 11
172
 21
17
  0
LINE
  8
0
 10
172
 20
17
 11
171.961
 21
17.6267
  0
LINE
  8
0
 10
171.961
 20
17.6267
 11
171.843
 21
18.2434
  0
LINE
  8
0
 10
171.843
 20
18.2434
 11
171.649
 21
18.8406
  0
LINE
  8
0
 10
171.649
 20
18.8406
 11
171.382
 21
19.4088
  0
LINE
  8
0
 10
171.382
 20
19.4088
 11
171.045
 21
19.9389
  0
LINE
  8
0
 10
171.045
 20
19.9389
 11
170.645
 21
20.4227
  0
LINE
  8
0
 10
170.645
 20
20.4227
 11
170.187
 21
20.8526
  0
LINE
  8
0
 10
170.187
 20
20.8526
 11
169.679
 21
21.2216
  0
LINE
  8
0
 10
169.679
 20
21.2216
 11
169.129
 21
21.5241
  0
LINE
  8
0
 10
169.129
 20
21.5241
 11
168.545
 21
21.7553
  0
LINE
  8
0
 10
168.545
 20
21.7553
 11
167.937
 21
21.9114
  0
LINE
  8
0
 10
167.937
 20
21.9114
 11
167.314
 21
21.9901
  0
LINE
  8
0
 10
167.314
 20
21.9901
 11
-167.314
 21
21.9901
  0
LINE
  8
0
 10
-167.314
 20
21.9901
 11
-167.937
 21
21.9114
  0
LINE
  8
0
 10
-167.937
 20
21.9114
 11
-168.545
 21
21.7553
  0
LINE
  8
0
 10
-168.545
 20
21.7553
 11
-169.129
 21
21.5241
  0
LINE
  8
0
 10
-169.129
 20
21.5241
 11
-169.679
 21
21.2216
  0
LINE
  8
0
 10
-169.679
 20
21.2216
 11
-170.187
 21
20.8526
  0
LINE
  8
0
 10
-170.187
 20
20.8526
 11
-170.645
 21
20.4227
  0
LINE
  8
0
 10
-170.645
 20
20.4227
 11
-171.045
 21
19.9389
  0
LINE
  8
0
 10
-171.045
 20
19.9389
 11
-171.382
 21
19.4088
  0
LINE
  8
0
 10
-171.382
 20
19.4088
 11
-171.649
 21
18.8406
  0
LINE
  8
0
 10
-171.649
 20
18.8406
 11
-171.843
 21
18.2434
  0
LINE
  8
0
 10
-171.843
 20
18.2434
 11
-171.961
 21
17.6267
  0
LINE
  8
0
 10
-171.961
 20
17.6267
 11
-172
 21
17
  0
LINE
  8
0
 10
-172
 20
17
 11
-172
 21
-17
  0
LINE
  8
0
 10
-172
 20
-17
 11
-171.961
 21
-17.6267
  0
LINE
  8
0
 10
-171.961
 20
-17.6267
 11
-171.843
 21
-18.2434
  0
LINE
  8
0
 10
-171.843
 20
-18.2434
 11
-171.649
 21
-18.8406
  0
LINE
  8
0
 10
-171.649
 20
-18.8406
 11
-171.382
 21
-19.4088
  0
LINE
  8
0
 10
-171.382
 20
-19.4088
 11
-171.045
 21
-19.9389
  0
LINE
  8
0
 10
-171.045
 20
-19.9389
 11
-170.645
 21
-20.4227
  0
LINE
  8
0
 10
-170.645
 20
-20.4227
 11
-170.187
 21
-20.8526
  0
LINE
  8
0
 10
-170.187
 20
-20.8526
 11
-169.679
 21
-21.2216
  0
LINE
  8
0
 10
-169.679
 20
-21.2216
 11
-169.129
 21
-21.5241
  0
LINE
  8
0
 10
-169.129
 20
-21.5241
 11
-168.545
 21
-21.7553
  0
LINE
  8
0
 10
-168.545
 20
-21.7553
 11
-167.937
 21
-21.9114
  0
LINE
  8
0
 10
-167.937
 20
-21.9114
 11
-167.314
 21
-21.9901
  0
LINE
  8
0
 10
-167.314
 20
-21.9901
 11
167.314
 21
-21.9901
  0
LINE
  8
0
 10
167.314
 20
-21.9901
 11
167.937
 21
-21.9114
  0
LINE
  8
0
 10
162.024
 20
15.376
 11
162.094
 21
15.7461
  0
LINE
  8
0
 10
162.094
 20
15.7461
 11
162.211
 21
16.1044
  0
LINE
  8
0
 10
162.211
 20
16.1044
 11
162.371
 21
16.4453
  0
LINE
  8
0
 10
162.371
 20
16.4453
 11
162.573
 21
16.7634
  0
LINE
  8
0
 10
162.573
 20
16.7634
 11
162.813
 21
17.0536
  0
LINE
  8
0
 10
162.813
 20
17.0536
 11
163.088
 21
17.3115
  0
LINE
  8
0
 10
163.088
 20
17.3115
 11
163.393
 21
17.533
  0
LINE
  8
0
 10
163.393
 20
17.533
 11
163.723
 21
17.7145
  0
LINE
  8
0
 10
163.723
 20
17.7145
 11
164.073
 21
17.8532
  0
LINE
  8
0
 10
164.073
 20
17.8532
 11
164.438
 21
17.9469
  0
LINE
  8
0
 10
164.438
 20
17.9469
 11
164.812
 21
17.9941
  0
LINE
  8
0
 10
164.812
 20
17.9941
 11
165.188
 21
17.9941
  0
LINE
  8
0
 10
165.188
 20
17.9941
 11
165.562
 21
17.9469
  0
LINE
  8
0
 10
165.562
 20
17.9469
 11
165.927
 21
17.8532
  0
LINE
  8
0
 10
165.927
 20
17.8532
 11
166.277
 21
17.7145
  0
LINE
  8
0
 10
166.277
 20
17.7145
 11
166.607
 21
17.533
  0
LINE
  8
0
 10
166.607
 20
17.533
 11
166.912
 21
17.3115
  0
LINE
  8
0
 10
166.912
 20
17.3115
 11
167.187
 21
17.0536
  0
LINE
  8
0
 10
167.187
 20
17.0536
 11
167.427
 21
16.7634
  0
LINE
  8
0
 10
167.427
 20
16.7634
 11
167.629
 21
16.4453
  0
LINE
  8
0
 10
167.629
 20
16.4453
 11
167.789
 21
16.1044
  0
LINE
  8
0
 10
167.789
 20
16.1044
 11
167.906
 21
15.7461
  0
LINE
  8
0
 10
167.906
 20
15.7461
 11
167.976
 21
15.376
  0
LINE
  8
0
 10
167.976
 20
15.376
 11
168
 21
15
  0
LINE
  8
0
 10
168
 20
15
 11
167.976
 21
14.624
  0
LINE
  8
0
 10
167.976
 20
14.624
 11
167.906
 21
14.2539
  0
LINE
  8
0
 10
167.906
 20
14.2539
 11
167.789
 21
13.8956
  0
LINE
  8
0
 10
167.789
 20
13.8956
 11
167.629
 21
13.5547
  0
LINE
  8
0
 10
167.629
 20
13.5547
 11
167.427
 21
13.2366
  0
LINE
  8
0
 10
167.427
 20
13.2366
 11
167.187
 21
12.9464
  0
LINE
  8
0
 10
167.187
 20
12.9464
 11
166.912
 21
12.6884
  0
LINE
  8
0
 10
166.912
 20
12.6884
 11
166.607
 21
12.467
  0
LINE
  8
0
 10
166.607
 20
12.467
 11
166.277
 21
12.2855
  0
LINE
  8
0
 10
166.277
 20
12.2855
 11
165.927
 21
12.1468
  0
LINE
  8
0
 10
165.927
 20
12.1468
 11
165.562
 21
12.0531
  0
LINE
  8
0
 10
165.562
 20
12.0531
 11
165.188
 21
12.0059
  0
LINE
  8
0
 10
165.188
 20
12.0059
 11
164.812
 21
12.0059
  0
LINE
  8
0
 10
164.812
 20
12.0059
 11
164.438
 21
12.0531
  0
LINE
  8
0
 10
164.438
 20
12.0531
 11
164.073
 21
12.1468
  0
LINE
  8
0
 10
164.073
 20
12.1468
 11
163.723
 21
12.2855
  0
LINE
  8
0
 10
163.723
 20
12.2855
 11
163.393
 21
12.467
  0
LINE
  8
0
 10
163.393
 20
12.467
 11
163.088
 21
12.6884
  0
LINE
  8
0
 10
163.088
 20
12.6884
 11
162.813
 21
12.9464
  0
LINE
  8
0
 10
162.813
 20
12.9464
 11
162.573
 21
13.2366
  0
LINE
  8
0
 10
162.573
 20
13.2366
 11
162.371
 21
13.5547
  0
LINE
  8
0
 10
162.371
 20
13.5547
 11
162.211
 21
13.8956
  0
LINE
  8
0
 10
162.211
 20
13.8956
 11
162.094
 21
14.2539
  0
LINE
  8
0
 10
162.094
 20
14.2539
 11
162.024
 21
14.624
  0
LINE
  8
0
 10
162.024
 20
14.624
 11
162
 21
15
  0
LINE
  8
0
 10
162
 20
15
 11
162.024
 21
15.376
  0
LINE
  8
0
 10
-165.188
 20
-17.9941
 11
-165.562
 21
-17.9469
  0
LINE
  8
0
 10
-165.562
 20
-17.9469
 11
-165.927
 21
-17.8532
  0
LINE
  8
0
 10
-165.927
 20
-17.8532
 11
-166.277
 21
-17.7145
  0
LINE
  8
0
 10
-166.277
 20
-17.7145
 11
-166.607
 21
-17.533
  0
LINE
  8
0
 10
-166.607
 20
-17.533
 11
-166.912
 21
-17.3115
  0
LINE
  8
0
 10
-166.912
 20
-17.3115
 11
-167.187
 21
-17.0536
  0
LINE
  8
0
 10
-167.187
 20
-17.0536
 11
-167.427
 21
-16.7634
  0
LINE
  8
0
 10
-167.427
 20
-16.7634
 11
-167.629
 21
-16.4453
  0
LINE
  8
0
 10
-167.629
 20
-16.4453
 11
-167.789
 21
-16.1044
  0
LINE
  8
0
 10
-167.789
 20
-16.1044
 11
-167.906
 21
-15.7461
  0
LINE
  8
0
 10
-167.906
 20
-15.7461
 11
-167.976
 21
-15.376
  0
LINE
  8
0
 10
-167.976
 20
-15.376
 11
-168
 21
-15
  0
LINE
  8
0
 10
-168
 20
-15
 11
-167.976
 21
-14.624
  0
LINE
  8
0
 10
-167.976
 20
-14.624
 11
-167.906
 21
-14.2539
  0
LINE
  8
0
 10
-167.906
 20
-14.2539
 11
-167.789
 21
-13.8956
  0
LINE
  8
0
 10
-167.789
 20
-13.8956
 11
-167.629
 21
-13.5547
  0
LINE
  8
0
 10
-167.629
 20
-13.5547
 11
-167.427
 21
-13.2366
  0
LINE
  8
0
 10
-167.427
 20
-13.2366
 11
-167.187
 21
-12.9464
  0
LINE
  8
0
 10
-167.187
 20
-12.9464
 11
-166.912
 21
-12.6884
  0
LINE
  8
0
 10
-166.912
 20
-12.6884
 11
-166.607
 21
-12.467
  0
LINE
  8
0
 10
-166.607
 20
-12.467
 11
-166.277
 21
-12.2855
  0
LINE
  8
0
 10
-166.277
 20
-12.2855
 11
-165.927
 21
-12.1468
  0
LINE
  8
0
 10
-165.927
 20
-12.1468
 11
-165.562
 21
-12.0531
  0
LINE
  8
0
 10
-165.562
 20
-12.0531
 11
-165.188
 21
-12.0059
  0
LINE
  8
0
 10
-165.188
 20
-12.0059
 11
-164.812
 21
-12.0059
  0
LINE
  8
0
 10
-164.812
 20
-12.0059
 11
-164.438
 21
-12.0531
  0
LINE
  8
0
 10
-164.438
 20
-12.0531
 11
-164.073
 21
-12.1468
  0
LINE
  8
0
 10
-164.073
 20
-12.1468
 11
-163.723
 21
-12.2855
  0
LINE
  8
0
 10
-163.723
 20
-12.2855
 11
-163.393
 21
-12.467
  0
LINE
  8
0
 10
-163.393
 20
-12.467
 11
-163.088
 21
-12.6884
  0
LINE
  8
0
 10
-163.088
 20
-12.6884
 11
-162.813
 21
-12.9464
  0
LINE
  8
0
 10
-162.813
 20
-12.9464
 11
-162.573
 21
-13.2366
  0
LINE
  8
0
 10
-162.573
 20
-13.2366
 11
-162.371
 21
-13.5547
  0
LINE
  8
0
 10
-162.371
 20
-13.5547
 11
-162.211
 21
-13.8956
  0
LINE
  8
0
 10
-162.211
 20
-13.8956
 11
-162.094
 21
-14.2539
  0
LINE
  8
0
 10
-162.094
 20
-14.2539
 11
-162.024
 21
-14.624
  0
LINE
  8
0
 10
-162.024
 20
-14.624
 11
-162
 21
-15
  0
LINE
  8
0
 10
-162
 20
-15
 11
-162.024
 21
-15.376
  0
LINE
  8
0
 10
-162.024
 20
-15.376
 11
-162.094
 21
-15.7461
  0
LINE
  8
0
 10
-162.094
 20
-15.7461
 11
-162.211
 21
-16.1044
  0
LINE
  8
0
 10
-162.211
 20
-16.1044
 11
-162.371
 21
-16.4453
  0
LINE
  8
0
 10
-162.371
 20
-16.4453
 11
-162.573
 21
-16.7634
  0
LINE
  8
0
 10
-162.573
 20
-16.7634
 11
-162.813
 21
-17.0536
  0
LINE
  8
0
 10
-162.813
 20
-17.0536
 11
-163.088
 21
-17.3115
  0
LINE
  8
0
 10
-163.088
 20
-17.3115
 11
-163.393
 21
-17.533
  0
LINE
  8
0
 10
-163.393
 20
-17.533
 11
-163.723
 21
-17.7145
  0
LINE
  8
0
 10
-163.723
 20
-17.7145
 11
-164.073
 21
-17.8532
  0
LINE
  8
0
 10
-164.073
 20
-17.8532
 11
-164.438
 21
-17.9469
  0
LINE
  8
0
 10
-164.438
 20
-17.9469
 11
-164.812
 21
-17.9941
  0
LINE
  8
0
 10
-164.812
 20
-17.9941
 11
-165.188
 21
-17.9941
  0
LINE
  8
0
 10
164.812
 20
-17.9941
 11
164.438
 21
-17.9469
  0
LINE
  8
0
 10
164.438
 20
-17.9469
 11
164.073
 21
-17.8532
  0
LINE
  8
0
 10
164.073
 20
-17.8532
 11
163.723
 21
-17.7145
  0
LINE
  8
0
 10
163.723
 20
-17.7145
 11
163.393
 21
-17.533
  0
LINE
  8
0
 10
163.393
 20
-17.533
 11
163.088
 21
-17.3115
  0
LINE
  8
0
 10
163.088
 20
-17.3115
 11
162.813
 21
-17.0536
  0
LINE
  8
0
 10
162.813
 20
-17.0536
 11
162.573
 21
-16.7634
  0
LINE
  8
0
 10
162.573
 20
-16.7634
 11
162.371
 21
-16.4453
  0
LINE
  8
0
 10
162.371
 20
-16.4453
 11
162.211
 21
-16.1044
  0
LINE
  8
0
 10
162.211
 20
-16.1044
 11
162.094
 21
-15.7461
  0
LINE
  8
0
 10
162.094
 20
-15.7461
 11
162.024
 21
-15.376
  0
LINE
  8
0
 10
162.024
 20
-15.376
 11
162
 21
-15
  0
LINE
  8
0
 10
162
 20
-15
 11
162.024
 21
-14.624
  0
LINE
  8
0
 10
162.024
 20
-14.624
 11
162.094
 21
-14.2539
  0
LINE
  8
0
 10
162.094
 20
-14.2539
 11
162.211
 21
-13.8956
  0
LINE
  8
0
 10
162.211
 20
-13.8956
 11
162.371
 21
-13.5547
  0
LINE
  8
0
 10
162.371
 20
-13.5547
 11
162.573
 21
-13.2366
  0
LINE
  8
0
 10
162.573
 20
-13.2366
 11
162.813
 21
-12.9464
  0
LINE
  8
0
 10
162.813
 20
-12.9464
 11
163.088
 21
-12.6884
  0
LINE
  8
0
 10
163.088
 20
-12.6884
 11
163.393
 21
-12.467
  0
LINE
  8
0
 10
163.393
 20
-12.467
 11
163.723
 21
-12.2855
  0
LINE
  8
0
 10
163.723
 20
-12.2855
 11
164.073
 21
-12.1468
  0
LINE
  8
0
 10
164.073
 20
-12.1468
 11
164.438
 21
-12.0531
  0
LINE
  8
0
 10
164.438
 20
-12.0531
 11
164.812
 21
-12.0059
  0
LINE
  8
0
 10
164.812
 20
-12.0059
 11
165.188
 21
-12.0059
  0
LINE
  8
0
 10
165.188
 20
-12.0059
 11
165.562
 21
-12.0531
  0
LINE
  8
0
 10
165.562
 20
-12.0531
 11
165.927
 21
-12.1468
  0
LINE
  8
0
 10
165.927
 20
-12.1468
 11
166.277
 21
-12.2855
  0
LINE
  8
0
 10
166.277
 20
-12.2855
 11
166.607
 21
-12.467
  0
LINE
  8
0
 10
166.607
 20
-12.467
 11
166.912
 21
-12.6884
  0
LINE
  8
0
 10
166.912
 20
-12.6884
 11
167.187
 21
-12.9464
  0
LINE
  8
0
 10
167.187
 20
-12.9464
 11
167.427
 21
-13.2366
  0
LINE
  8
0
 10
167.427
 20
-13.2366
 11
167.629
 21
-13.5547
  0
LINE
  8
0
 10
167.629
 20
-13.5547
 11
167.789
 21
-13.8956
  0
LINE
  8
0
 10
167.789
 20
-13.8956
 11
167.906
 21
-14.2539
  0
LINE
  8
0
 10
167.906
 20
-14.2539
 11
167.976
 21
-14.624
  0
LINE
  8
0
 10
167.976
 20
-14.624
 11
168
 21
-15
  0
LINE
  8
0
 10
168
 20
-15
 11
167.976
 21
-15.376
  0
LINE
  8
0
 10
167.976
 20
-15.376
 11
167.906
 21
-15.7461
  0
LINE
  8
0
 10
167.906
 20
-15.7461
 11
167.789
 21
-16.1044
  0
LINE
  8
0
 10
167.789
 20
-16.1044
 11
167.629
 21
-16.4453
  0
LINE
  8
0
 10
167.629
 20
-16.4453
 11
167.427
 21
-16.7634
  0
LINE
  8
0
 10
167.427
 20
-16.7634
 11
167.187
 21
-17.0536
  0
LINE
  8
0
 10
167.187
 20
-17.0536
 11
166.912
 21
-17.3115
  0
LINE
  8
0
 10
166.912
 20
-17.3115
 11
166.607
 21
-17.533
  0
LINE
  8
0
 10
166.607
 20
-17.533
 11
166.277
 21
-17.7145
  0
LINE
  8
0
 10
166.277
 20
-17.7145
 11
165.927
 21
-17.8532
  0
LINE
  8
0
 10
165.927
 20
-17.8532
 11
165.562
 21
-17.9469
  0
LINE
  8
0
 10
165.562
 20
-17.9469
 11
165.188
 21
-17.9941
  0
LINE
  8
0
 10
165.188
 20
-17.9941
 11
164.812
 21
-17.9941
  0
LINE
  8
0
 10
-162.211
 20
13.8956
 11
-162.371
 21
13.5547
  0
LINE
  8
0
 10
-162.371
 20
13.5547
 11
-162.573
 21
13.2366
  0
LINE
  8
0
 10
-162.573
 20
13.2366
 11
-162.813
 21
12.9464
  0
LINE
  8
0
 10
-162.813
 20
12.9464
 11
-163.088
 21
12.6884
  0
LINE
  8
0
 10
-163.088
 20
12.6884
 11
-163.393
 21
12.467
  0
LINE
  8
0
 10
-163.393
 20
12.467
 11
-163.723
 21
12.2855
  0
LINE
  8
0
 10
-163.723
 20
12.2855
 11
-164.073
 21
12.1468
  0
LINE
  8
0
 10
-164.073
 20
12.1468
 11
-164.438
 21
12.0531
  0
LINE
  8
0
 10
-164.438
 20
12.0531
 11
-164.812
 21
12.0059
  0
LINE
  8
0
 10
-164.812
 20
12.0059
 11
-165.188
 21
12.0059
  0
LINE
  8
0
 10
-165.188
 20
12.0059
 11
-165.562
 21
12.0531
  0
LINE
  8
0
 10
-165.562
 20
12.0531
 11
-165.927
 21
12.1468
  0
LINE
  8
0
 10
-165.927
 20
12.1468
 11
-166.277
 21
12.2855
  0
LINE
  8
0
 10
-166.277
 20
12.2855
 11
-166.607
 21
12.467
  0
LINE
  8
0
 10
-166.607
 20
12.467
 11
-166.912
 21
12.6884
  0
LINE
  8
0
 10
-166.912
 20
12.6884
 11
-167.187
 21
12.9464
  0
LINE
  8
0
 10
-167.187
 20
12.9464
 11
-167.427
 21
13.2366
  0
LINE
  8
0
 10
-167.427
 20
13.2366
 11
-167.629
 21
13.5547
  0
LINE
  8
0
 10
-167.629
 20
13.5547
 11
-167.789
 21
13.8956
  0
LINE
  8
0
 10
-167.789
 20
13.8956
 11
-167.906
 21
14.2539
  0
LINE
  8
0
 10
-167.906
 20
14.2539
 11
-167.976
 21
14.624
  0
LINE
  8
0
 10
-167.976
 20
14.624
 11
-168
 21
15
  0
LINE
  8
0
 10
-168
 20
15
 11
-167.976
 21
15.376
  0
LINE
  8
0
 10
-167.976
 20
15.376
 11
-167.906
 21
15.7461
  0
LINE
  8
0
 10
-167.906
 20
15.7461
 11
-167.789
 21
16.1044
  0
LINE
  8
0
 10
-167.789
 20
16.1044
 11
-167.629
 21
16.4453
  0
LINE
  8
0
 10
-167.629
 20
16.4453
 11
-167.427
 21
16.7634
  0
LINE
  8
0
 10
-167.427
 20
16.7634
 11
-167.187
 21
17.0536
  0
LINE
  8
0
 10
-167.187
 20
17.0536
 11
-166.912
 21
17.3115
  0
LINE
  8
0
 10
-166.912
 20
17.3115
 11
-166.607
 21
17.533
  0
LINE
  8
0
 10
-166.607
 20
17.533
 11
-166.277
 21
17.7145
  0
LINE
  8
0
 10
-166.277
 20
17.7145
 11
-165.927
 21
17.8532
  0
LINE
  8
0
 10
-165.927
 20
17.8532
 11
-165.562
 21
17.9469
  0
LINE
  8
0
 10
-165.562
 20
17.9469
 11
-165.188
 21
17.9941
  0
LINE
  8
0
 10
-165.188
 20
17.9941
 11
-164.812
 21
17.9941
  0
LINE
  8
0
 10
-164.812
 20
17.9941
 11
-164.438
 21
17.9469
  0
LINE
  8
0
 10
-164.438
 20
17.9469
 11
-164.073
 21
17.8532
  0
LINE
  8
0
 10
-164.073
 20
17.8532
 11
-163.723
 21
17.7145
  0
LINE
  8
0
 10
-163.723
 20
17.7145
 11
-163.393
 21
17.533
  0
LINE
  8
0
 10
-163.393
 20
17.533
 11
-163.088
 21
17.3115
  0
LINE
  8
0
 10
-163.088
 20
17.3115
 11
-162.813
 21
17.0536
  0
LINE
  8
0
 10
-162.813
 20
17.0536
 11
-162.573
 21
16.7634
  0
LINE
  8
0
 10
-162.573
 20
16.7634
 11
-162.371
 21
16.4453
  0
LINE
  8
0
 10
-162.371
 20
16.4453
 11
-162.211
 21
16.1044
  0
LINE
  8
0
 10
-162.211
 20
16.1044
 11
-162.094
 21
15.7461
  0
LINE
  8
0
 10
-162.094
 20
15.7461
 11
-162.024
 21
15.376
  0
LINE
  8
0
 10
-162.024
 20
15.376
 11
-162
 21
15
  0
LINE
  8
0
 10
-162
 20
15
 11
-162.024
 21
14.624
  0
LINE
  8
0
 10
-162.024
 20
14.624
 11
-162.094
 21
14.2539
  0
LINE
  8
0
 10
-162.094
 20
14.2539
 11
-162.211
 21
13.8956
  0
ENDSEC
  0
SECTION
  2
OBJECTS
  0
DICTIONARY
  0
ENDSEC
  0
EOF
