  0
SECTION
  2
BLOCKS
  0
ENDSEC
  0
SECTION
  2
ENTITIES
  0
LINE
  8
0
 10
182.937
 20
-36.9114
 11
183.545
 21
-36.7553
  0
LINE
  8
0
 10
183.545
 20
-36.7553
 11
184.129
 21
-36.5241
  0
LINE
  8
0
 10
184.129
 20
-36.5241
 11
184.679
 21
-36.2216
  0
LINE
  8
0
 10
184.679
 20
-36.2216
 11
185.187
 21
-35.8526
  0
LINE
  8
0
 10
185.187
 20
-35.8526
 11
185.645
 21
-35.4227
  0
LINE
  8
0
 10
185.645
 20
-35.4227
 11
186.045
 21
-34.9389
  0
LINE
  8
0
 10
186.045
 20
-34.9389
 11
186.382
 21
-34.4088
  0
LINE
  8
0
 10
186.382
 20
-34.4088
 11
186.649
 21
-33.8406
  0
LINE
  8
0
 10
186.649
 20
-33.8406
 11
186.843
 21
-33.2434
  0
LINE
  8
0
 10
186.843
 20
-33.2434
 11
186.961
 21
-32.6267
  0
LINE
  8
0
 10
186.961
 20
-32.6267
 11
187
 21
-32
  0
LINE
  8
0
 10
187
 20
-32
 11
187
 21
32
  0
LINE
  8
0
 10
187
 20
32
 11
186.961
 21
32.6267
  0
LINE
  8
0
 10
186.961
 20
32.6267
 11
186.843
 21
33.2434
  0
LINE
  8
0
 10
186.843
 20
33.2434
 11
186.649
 21
33.8406
  0
LINE
  8
0
 10
186.649
 20
33.8406
 11
186.382
 21
34.4088
  0
LINE
  8
0
 10
186.382
 20
34.4088
 11
186.045
 21
34.9389
  0
LINE
  8
0
 10
186.045
 20
34.9389
 11
185.645
 21
35.4227
  0
LINE
  8
0
 10
185.645
 20
35.4227
 11
185.187
 21
35.8526
  0
LINE
  8
0
 10
185.187
 20
35.8526
 11
184.679
 21
36.2216
  0
LINE
  8
0
 10
184.679
 20
36.2216
 11
184.129
 21
36.5241
  0
LINE
  8
0
 10
184.129
 20
36.5241
 11
183.545
 21
36.7553
  0
LINE
  8
0
 10
183.545
 20
36.7553
 11
182.937
 21
36.9114
  0
LINE
  8
0
 10
182.937
 20
36.9114
 11
182.314
 21
36.9901
  0
LINE
  8
0
 10
182.314
 20
36.9901
 11
-182.314
 21
36.9901
  0
LINE
  8
0
 10
-182.314
 20
36.9901
 11
-182.937
 21
36.9114
  0
LINE
  8
0
 10
-182.937
 20
36.9114
 11
-183.545
 21
36.7553
  0
LINE
  8
0
 10
-183.545
 20
36.7553
 11
-184.129
 21
36.5241
  0
LINE
  8
0
 10
-184.129
 20
36.5241
 11
-184.679
 21
36.2216
  0
LINE
  8
0
 10
-184.679
 20
36.2216
 11
-185.187
 21
35.8526
  0
LINE
  8
0
 10
-185.187
 20
35.8526
 11
-185.645
 21
35.4227
  0
LINE
  8
0
 10
-185.645
 20
35.4227
 11
-186.045
 21
34.9389
  0
LINE
  8
0
 10
-186.045
 20
34.9389
 11
-186.382
 21
34.4088
  0
LINE
  8
0
 10
-186.382
 20
34.4088
 11
-186.649
 21
33.8406
  0
LINE
  8
0
 10
-186.649
 20
33.8406
 11
-186.843
 21
33.2434
  0
LINE
  8
0
 10
-186.843
 20
33.2434
 11
-186.961
 21
32.6267
  0
LINE
  8
0
 10
-186.961
 20
32.6267
 11
-187
 21
32
  0
LINE
  8
0
 10
-187
 20
32
 11
-187
 21
-32
  0
LINE
  8
0
 10
-187
 20
-32
 11
-186.961
 21
-32.6267
  0
LINE
  8
0
 10
-186.961
 20
-32.6267
 11
-186.843
 21
-33.2434
  0
LINE
  8
0
 10
-186.843
 20
-33.2434
 11
-186.649
 21
-33.8406
  0
LINE
  8
0
 10
-186.649
 20
-33.8406
 11
-186.382
 21
-34.4088
  0
LINE
  8
0
 10
-186.382
 20
-34.4088
 11
-186.045
 21
-34.9389
  0
LINE
  8
0
 10
-186.045
 20
-34.9389
 11
-185.645
 21
-35.4227
  0
LINE
  8
0
 10
-185.645
 20
-35.4227
 11
-185.187
 21
-35.8526
  0
LINE
  8
0
 10
-185.187
 20
-35.8526
 11
-184.679
 21
-36.2216
  0
LINE
  8
0
 10
-184.679
 20
-36.2216
 11
-184.129
 21
-36.5241
  0
LINE
  8
0
 10
-184.129
 20
-36.5241
 11
-183.545
 21
-36.7553
  0
LINE
  8
0
 10
-183.545
 20
-36.7553
 11
-182.937
 21
-36.9114
  0
LINE
  8
0
 10
-182.937
 20
-36.9114
 11
-182.314
 21
-36.9901
  0
LINE
  8
0
 10
-182.314
 20
-36.9901
 11
182.314
 21
-36.9901
  0
LINE
  8
0
 10
182.314
 20
-36.9901
 11
182.937
 21
-36.9114
  0
LINE
  8
0
 10
177.024
 20
30.376
 11
177.094
 21
30.7461
  0
LINE
  8
0
 10
177.094
 20
30.7461
 11
177.211
 21
31.1044
  0
LINE
  8
0
 10
177.211
 20
31.1044
 11
177.371
 21
31.4453
  0
LINE
  8
0
 10
177.371
 20
31.4453
 11
177.573
 21
31.7634
  0
LINE
  8
0
 10
177.573
 20
31.7634
 11
177.813
 21
32.0536
  0
LINE
  8
0
 10
177.813
 20
32.0536
 11
178.088
 21
32.3115
  0
LINE
  8
0
 10
178.088
 20
32.3115
 11
178.393
 21
32.533
  0
LINE
  8
0
 10
178.393
 20
32.533
 11
178.723
 21
32.7145
  0
LINE
  8
0
 10
178.723
 20
32.7145
 11
179.073
 21
32.8532
  0
LINE
  8
0
 10
179.073
 20
32.8532
 11
179.438
 21
32.9469
  0
LINE
  8
0
 10
179.438
 20
32.9469
 11
179.812
 21
32.9941
  0
LINE
  8
0
 10
179.812
 20
32.9941
 11
180.188
 21
32.9941
  0
LINE
  8
0
 10
180.188
 20
32.9941
 11
180.562
 21
32.9469
  0
LINE
  8
0
 10
180.562
 20
32.9469
 11
180.927
 21
32.8532
  0
LINE
  8
0
 10
180.927
 20
32.8532
 11
181.277
 21
32.7145
  0
LINE
  8
0
 10
181.277
 20
32.7145
 11
181.607
 21
32.533
  0
LINE
  8
0
 10
181.607
 20
32.533
 11
181.912
 21
32.3115
  0
LINE
  8
0
 10
181.912
 20
32.3115
 11
182.187
 21
32.0536
  0
LINE
  8
0
 10
182.187
 20
32.0536
 11
182.427
 21
31.7634
  0
LINE
  8
0
 10
182.427
 20
31.7634
 11
182.629
 21
31.4453
  0
LINE
  8
0
 10
182.629
 20
31.4453
 11
182.789
 21
31.1044
  0
LINE
  8
0
 10
182.789
 20
31.1044
 11
182.906
 21
30.7461
  0
LINE
  8
0
 10
182.906
 20
30.7461
 11
182.976
 21
30.376
  0
LINE
  8
0
 10
182.976
 20
30.376
 11
183
 21
30
  0
LINE
  8
0
 10
183
 20
30
 11
182.976
 21
29.624
  0
LINE
  8
0
 10
182.976
 20
29.624
 11
182.906
 21
29.2539
  0
LINE
  8
0
 10
182.906
 20
29.2539
 11
182.789
 21
28.8956
  0
LINE
  8
0
 10
182.789
 20
28.8956
 11
182.629
 21
28.5547
  0
LINE
  8
0
 10
182.629
 20
28.5547
 11
182.427
 21
28.2366
  0
LINE
  8
0
 10
182.427
 20
28.2366
 11
182.187
 21
27.9464
  0
LINE
  8
0
 10
182.187
 20
27.9464
 11
181.912
 21
27.6884
  0
LINE
  8
0
 10
181.912
 20
27.6884
 11
181.607
 21
27.467
  0
LINE
  8
0
 10
181.607
 20
27.467
 11
181.277
 21
27.2855
  0
LINE
  8
0
 10
181.277
 20
27.2855
 11
180.927
 21
27.1468
  0
LINE
  8
0
 10
180.927
 20
27.1468
 11
180.562
 21
27.0531
  0
LINE
  8
0
 10
180.562
 20
27.0531
 11
180.188
 21
27.0059
  0
LINE
  8
0
 10
180.188
 20
27.0059
 11
179.812
 21
27.0059
  0
LINE
  8
0
 10
179.812
 20
27.0059
 11
179.438
 21
27.0531
  0
LINE
  8
0
 10
179.438
 20
27.0531
 11
179.073
 21
27.1468
  0
LINE
  8
0
 10
179.073
 20
27.1468
 11
178.723
 21
27.2855
  0
LINE
  8
0
 10
178.723
 20
27.2855
 11
178.393
 21
27.467
  0
LINE
  8
0
 10
178.393
 20
27.467
 11
178.088
 21
27.6884
  0
LINE
  8
0
 10
178.088
 20
27.6884
 11
177.813
 21
27.9464
  0
LINE
  8
0
 10
177.813
 20
27.9464
 11
177.573
 21
28.2366
  0
LINE
  8
0
 10
177.573
 20
28.2366
 11
177.371
 21
28.5547
  0
LINE
  8
0
 10
177.371
 20
28.5547
 11
177.211
 21
28.8956
  0
LINE
  8
0
 10
177.211
 20
28.8956
 11
177.094
 21
29.2539
  0
LINE
  8
0
 10
177.094
 20
29.2539
 11
177.024
 21
29.624
  0
LINE
  8
0
 10
177.024
 20
29.624
 11
177
 21
30
  0
LINE
  8
0
 10
177
 20
30
 11
177.024
 21
30.376
  0
LINE
  8
0
 10
-180.188
 20
-32.9941
 11
-180.562
 21
-32.9469
  0
LINE
  8
0
 10
-180.562
 20
-32.9469
 11
-180.927
 21
-32.8532
  0
LINE
  8
0
 10
-180.927
 20
-32.8532
 11
-181.277
 21
-32.7145
  0
LINE
  8
0
 10
-181.277
 20
-32.7145
 11
-181.607
 21
-32.533
  0
LINE
  8
0
 10
-181.607
 20
-32.533
 11
-181.912
 21
-32.3115
  0
LINE
  8
0
 10
-181.912
 20
-32.3115
 11
-182.187
 21
-32.0536
  0
LINE
  8
0
 10
-182.187
 20
-32.0536
 11
-182.427
 21
-31.7634
  0
LINE
  8
0
 10
-182.427
 20
-31.7634
 11
-182.629
 21
-31.4453
  0
LINE
  8
0
 10
-182.629
 20
-31.4453
 11
-182.789
 21
-31.1044
  0
LINE
  8
0
 10
-182.789
 20
-31.1044
 11
-182.906
 21
-30.7461
  0
LINE
  8
0
 10
-182.906
 20
-30.7461
 11
-182.976
 21
-30.376
  0
LINE
  8
0
 10
-182.976
 20
-30.376
 11
-183
 21
-30
  0
LINE
  8
0
 10
-183
 20
-30
 11
-182.976
 21
-29.624
  0
LINE
  8
0
 10
-182.976
 20
-29.624
 11
-182.906
 21
-29.2539
  0
LINE
  8
0
 10
-182.906
 20
-29.2539
 11
-182.789
 21
-28.8956
  0
LINE
  8
0
 10
-182.789
 20
-28.8956
 11
-182.629
 21
-28.5547
  0
LINE
  8
0
 10
-182.629
 20
-28.5547
 11
-182.427
 21
-28.2366
  0
LINE
  8
0
 10
-182.427
 20
-28.2366
 11
-182.187
 21
-27.9464
  0
LINE
  8
0
 10
-182.187
 20
-27.9464
 11
-181.912
 21
-27.6884
  0
LINE
  8
0
 10
-181.912
 20
-27.6884
 11
-181.607
 21
-27.467
  0
LINE
  8
0
 10
-181.607
 20
-27.467
 11
-181.277
 21
-27.2855
  0
LINE
  8
0
 10
-181.277
 20
-27.2855
 11
-180.927
 21
-27.1468
  0
LINE
  8
0
 10
-180.927
 20
-27.1468
 11
-180.562
 21
-27.0531
  0
LINE
  8
0
 10
-180.562
 20
-27.0531
 11
-180.188
 21
-27.0059
  0
LINE
  8
0
 10
-180.188
 20
-27.0059
 11
-179.812
 21
-27.0059
  0
LINE
  8
0
 10
-179.812
 20
-27.0059
 11
-179.438
 21
-27.0531
  0
LINE
  8
0
 10
-179.438
 20
-27.0531
 11
-179.073
 21
-27.1468
  0
LINE
  8
0
 10
-179.073
 20
-27.1468
 11
-178.723
 21
-27.2855
  0
LINE
  8
0
 10
-178.723
 20
-27.2855
 11
-178.393
 21
-27.467
  0
LINE
  8
0
 10
-178.393
 20
-27.467
 11
-178.088
 21
-27.6884
  0
LINE
  8
0
 10
-178.088
 20
-27.6884
 11
-177.813
 21
-27.9464
  0
LINE
  8
0
 10
-177.813
 20
-27.9464
 11
-177.573
 21
-28.2366
  0
LINE
  8
0
 10
-177.573
 20
-28.2366
 11
-177.371
 21
-28.5547
  0
LINE
  8
0
 10
-177.371
 20
-28.5547
 11
-177.211
 21
-28.8956
  0
LINE
  8
0
 10
-177.211
 20
-28.8956
 11
-177.094
 21
-29.2539
  0
LINE
  8
0
 10
-177.094
 20
-29.2539
 11
-177.024
 21
-29.624
  0
LINE
  8
0
 10
-177.024
 20
-29.624
 11
-177
 21
-30
  0
LINE
  8
0
 10
-177
 20
-30
 11
-177.024
 21
-30.376
  0
LINE
  8
0
 10
-177.024
 20
-30.376
 11
-177.094
 21
-30.7461
  0
LINE
  8
0
 10
-177.094
 20
-30.7461
 11
-177.211
 21
-31.1044
  0
LINE
  8
0
 10
-177.211
 20
-31.1044
 11
-177.371
 21
-31.4453
  0
LINE
  8
0
 10
-177.371
 20
-31.4453
 11
-177.573
 21
-31.7634
  0
LINE
  8
0
 10
-177.573
 20
-31.7634
 11
-177.813
 21
-32.0536
  0
LINE
  8
0
 10
-177.813
 20
-32.0536
 11
-178.088
 21
-32.3115
  0
LINE
  8
0
 10
-178.088
 20
-32.3115
 11
-178.393
 21
-32.533
  0
LINE
  8
0
 10
-178.393
 20
-32.533
 11
-178.723
 21
-32.7145
  0
LINE
  8
0
 10
-178.723
 20
-32.7145
 11
-179.073
 21
-32.8532
  0
LINE
  8
0
 10
-179.073
 20
-32.8532
 11
-179.438
 21
-32.9469
  0
LINE
  8
0
 10
-179.438
 20
-32.9469
 11
-179.812
 21
-32.9941
  0
LINE
  8
0
 10
-179.812
 20
-32.9941
 11
-180.188
 21
-32.9941
  0
LINE
  8
0
 10
179.812
 20
-32.9941
 11
179.438
 21
-32.9469
  0
LINE
  8
0
 10
179.438
 20
-32.9469
 11
179.073
 21
-32.8532
  0
LINE
  8
0
 10
179.073
 20
-32.8532
 11
178.723
 21
-32.7145
  0
LINE
  8
0
 10
178.723
 20
-32.7145
 11
178.393
 21
-32.533
  0
LINE
  8
0
 10
178.393
 20
-32.533
 11
178.088
 21
-32.3115
  0
LINE
  8
0
 10
178.088
 20
-32.3115
 11
177.813
 21
-32.0536
  0
LINE
  8
0
 10
177.813
 20
-32.0536
 11
177.573
 21
-31.7634
  0
LINE
  8
0
 10
177.573
 20
-31.7634
 11
177.371
 21
-31.4453
  0
LINE
  8
0
 10
177.371
 20
-31.4453
 11
177.211
 21
-31.1044
  0
LINE
  8
0
 10
177.211
 20
-31.1044
 11
177.094
 21
-30.7461
  0
LINE
  8
0
 10
177.094
 20
-30.7461
 11
177.024
 21
-30.376
  0
LINE
  8
0
 10
177.024
 20
-30.376
 11
177
 21
-30
  0
LINE
  8
0
 10
177
 20
-30
 11
177.024
 21
-29.624
  0
LINE
  8
0
 10
177.024
 20
-29.624
 11
177.094
 21
-29.2539
  0
LINE
  8
0
 10
177.094
 20
-29.2539
 11
177.211
 21
-28.8956
  0
LINE
  8
0
 10
177.211
 20
-28.8956
 11
177.371
 21
-28.5547
  0
LINE
  8
0
 10
177.371
 20
-28.5547
 11
177.573
 21
-28.2366
  0
LINE
  8
0
 10
177.573
 20
-28.2366
 11
177.813
 21
-27.9464
  0
LINE
  8
0
 10
177.813
 20
-27.9464
 11
178.088
 21
-27.6884
  0
LINE
  8
0
 10
178.088
 20
-27.6884
 11
178.393
 21
-27.467
  0
LINE
  8
0
 10
178.393
 20
-27.467
 11
178.723
 21
-27.2855
  0
LINE
  8
0
 10
178.723
 20
-27.2855
 11
179.073
 21
-27.1468
  0
LINE
  8
0
 10
179.073
 20
-27.1468
 11
179.438
 21
-27.0531
  0
LINE
  8
0
 10
179.438
 20
-27.0531
 11
179.812
 21
-27.0059
  0
LINE
  8
0
 10
179.812
 20
-27.0059
 11
180.188
 21
-27.0059
  0
LINE
  8
0
 10
180.188
 20
-27.0059
 11
180.562
 21
-27.0531
  0
LINE
  8
0
 10
180.562
 20
-27.0531
 11
180.927
 21
-27.1468
  0
LINE
  8
0
 10
180.927
 20
-27.1468
 11
181.277
 21
-27.2855
  0
LINE
  8
0
 10
181.277
 20
-27.2855
 11
181.607
 21
-27.467
  0
LINE
  8
0
 10
181.607
 20
-27.467
 11
181.912
 21
-27.6884
  0
LINE
  8
0
 10
181.912
 20
-27.6884
 11
182.187
 21
-27.9464
  0
LINE
  8
0
 10
182.187
 20
-27.9464
 11
182.427
 21
-28.2366
  0
LINE
  8
0
 10
182.427
 20
-28.2366
 11
182.629
 21
-28.5547
  0
LINE
  8
0
 10
182.629
 20
-28.5547
 11
182.789
 21
-28.8956
  0
LINE
  8
0
 10
182.789
 20
-28.8956
 11
182.906
 21
-29.2539
  0
LINE
  8
0
 10
182.906
 20
-29.2539
 11
182.976
 21
-29.624
  0
LINE
  8
0
 10
182.976
 20
-29.624
 11
183
 21
-30
  0
LINE
  8
0
 10
183
 20
-30
 11
182.976
 21
-30.376
  0
LINE
  8
0
 10
182.976
 20
-30.376
 11
182.906
 21
-30.7461
  0
LINE
  8
0
 10
182.906
 20
-30.7461
 11
182.789
 21
-31.1044
  0
LINE
  8
0
 10
182.789
 20
-31.1044
 11
182.629
 21
-31.4453
  0
LINE
  8
0
 10
182.629
 20
-31.4453
 11
182.427
 21
-31.7634
  0
LINE
  8
0
 10
182.427
 20
-31.7634
 11
182.187
 21
-32.0536
  0
LINE
  8
0
 10
182.187
 20
-32.0536
 11
181.912
 21
-32.3115
  0
LINE
  8
0
 10
181.912
 20
-32.3115
 11
181.607
 21
-32.533
  0
LINE
  8
0
 10
181.607
 20
-32.533
 11
181.277
 21
-32.7145
  0
LINE
  8
0
 10
181.277
 20
-32.7145
 11
180.927
 21
-32.8532
  0
LINE
  8
0
 10
180.927
 20
-32.8532
 11
180.562
 21
-32.9469
  0
LINE
  8
0
 10
180.562
 20
-32.9469
 11
180.188
 21
-32.9941
  0
LINE
  8
0
 10
180.188
 20
-32.9941
 11
179.812
 21
-32.9941
  0
LINE
  8
0
 10
-177.211
 20
28.8956
 11
-177.371
 21
28.5547
  0
LINE
  8
0
 10
-177.371
 20
28.5547
 11
-177.573
 21
28.2366
  0
LINE
  8
0
 10
-177.573
 20
28.2366
 11
-177.813
 21
27.9464
  0
LINE
  8
0
 10
-177.813
 20
27.9464
 11
-178.088
 21
27.6884
  0
LINE
  8
0
 10
-178.088
 20
27.6884
 11
-178.393
 21
27.467
  0
LINE
  8
0
 10
-178.393
 20
27.467
 11
-178.723
 21
27.2855
  0
LINE
  8
0
 10
-178.723
 20
27.2855
 11
-179.073
 21
27.1468
  0
LINE
  8
0
 10
-179.073
 20
27.1468
 11
-179.438
 21
27.0531
  0
LINE
  8
0
 10
-179.438
 20
27.0531
 11
-179.812
 21
27.0059
  0
LINE
  8
0
 10
-179.812
 20
27.0059
 11
-180.188
 21
27.0059
  0
LINE
  8
0
 10
-180.188
 20
27.0059
 11
-180.562
 21
27.0531
  0
LINE
  8
0
 10
-180.562
 20
27.0531
 11
-180.927
 21
27.1468
  0
LINE
  8
0
 10
-180.927
 20
27.1468
 11
-181.277
 21
27.2855
  0
LINE
  8
0
 10
-181.277
 20
27.2855
 11
-181.607
 21
27.467
  0
LINE
  8
0
 10
-181.607
 20
27.467
 11
-181.912
 21
27.6884
  0
LINE
  8
0
 10
-181.912
 20
27.6884
 11
-182.187
 21
27.9464
  0
LINE
  8
0
 10
-182.187
 20
27.9464
 11
-182.427
 21
28.2366
  0
LINE
  8
0
 10
-182.427
 20
28.2366
 11
-182.629
 21
28.5547
  0
LINE
  8
0
 10
-182.629
 20
28.5547
 11
-182.789
 21
28.8956
  0
LINE
  8
0
 10
-182.789
 20
28.8956
 11
-182.906
 21
29.2539
  0
LINE
  8
0
 10
-182.906
 20
29.2539
 11
-182.976
 21
29.624
  0
LINE
  8
0
 10
-182.976
 20
29.624
 11
-183
 21
30
  0
LINE
  8
0
 10
-183
 20
30
 11
-182.976
 21
30.376
  0
LINE
  8
0
 10
-182.976
 20
30.376
 11
-182.906
 21
30.7461
  0
LINE
  8
0
 10
-182.906
 20
30.7461
 11
-182.789
 21
31.1044
  0
LINE
  8
0
 10
-182.789
 20
31.1044
 11
-182.629
 21
31.4453
  0
LINE
  8
0
 10
-182.629
 20
31.4453
 11
-182.427
 21
31.7634
  0
LINE
  8
0
 10
-182.427
 20
31.7634
 11
-182.187
 21
32.0536
  0
LINE
  8
0
 10
-182.187
 20
32.0536
 11
-181.912
 21
32.3115
  0
LINE
  8
0
 10
-181.912
 20
32.3115
 11
-181.607
 21
32.533
  0
LINE
  8
0
 10
-181.607
 20
32.533
 11
-181.277
 21
32.7145
  0
LINE
  8
0
 10
-181.277
 20
32.7145
 11
-180.927
 21
32.8532
  0
LINE
  8
0
 10
-180.927
 20
32.8532
 11
-180.562
 21
32.9469
  0
LINE
  8
0
 10
-180.562
 20
32.9469
 11
-180.188
 21
32.9941
  0
LINE
  8
0
 10
-180.188
 20
32.9941
 11
-179.812
 21
32.9941
  0
LINE
  8
0
 10
-179.812
 20
32.9941
 11
-179.438
 21
32.9469
  0
LINE
  8
0
 10
-179.438
 20
32.9469
 11
-179.073
 21
32.8532
  0
LINE
  8
0
 10
-179.073
 20
32.8532
 11
-178.723
 21
32.7145
  0
LINE
  8
0
 10
-178.723
 20
32.7145
 11
-178.393
 21
32.533
  0
LINE
  8
0
 10
-178.393
 20
32.533
 11
-178.088
 21
32.3115
  0
LINE
  8
0
 10
-178.088
 20
32.3115
 11
-177.813
 21
32.0536
  0
LINE
  8
0
 10
-177.813
 20
32.0536
 11
-177.573
 21
31.7634
  0
LINE
  8
0
 10
-177.573
 20
31.7634
 11
-177.371
 21
31.4453
  0
LINE
  8
0
 10
-177.371
 20
31.4453
 11
-177.211
 21
31.1044
  0
LINE
  8
0
 10
-177.211
 20
31.1044
 11
-177.094
 21
30.7461
  0
LINE
  8
0
 10
-177.094
 20
30.7461
 11
-177.024
 21
30.376
  0
LINE
  8
0
 10
-177.024
 20
30.376
 11
-177
 21
30
  0
LINE
  8
0
 10
-177
 20
30
 11
-177.024
 21
29.624
  0
LINE
  8
0
 10
-177.024
 20
29.624
 11
-177.094
 21
29.2539
  0
LINE
  8
0
 10
-177.094
 20
29.2539
 11
-177.211
 21
28.8956
  0
ENDSEC
  0
SECTION
  2
OBJECTS
  0
DICTIONARY
  0
ENDSEC
  0
EOF
