<?xml version="1.0" standalone="no"?>
<!DOCTYPE svg PUBLIC "-//W3C//DTD SVG 1.1//EN" "http://www.w3.org/Graphics/SVG/1.1/DTD/svg11.dtd">
<svg width="284mm" height="44mm" viewBox="-142 -22 284 44" xmlns="http://www.w3.org/2000/svg" version="1.1">
<title>OpenSCAD Model</title>
<path d="
M 137.937,21.9114 L 138.545,21.7553 L 139.129,21.5241 L 139.679,21.2216 L 140.187,20.8526 L 140.645,20.4227
 L 141.045,19.9389 L 141.382,19.4088 L 141.649,18.8406 L 141.843,18.2434 L 141.961,17.6267 L 142,17
 L 142,-17 L 141.961,-17.6267 L 141.843,-18.2434 L 141.649,-18.8406 L 141.382,-19.4088 L 141.045,-19.9389
 L 140.645,-20.4227 L 140.187,-20.8526 L 139.679,-21.2216 L 139.129,-21.5241 L 138.545,-21.7553 L 137.937,-21.9114
 L 137.314,-21.9901 L -137.314,-21.9901 L -137.937,-21.9114 L -138.545,-21.7553 L -139.129,-21.5241 L -139.679,-21.2216
 L -140.187,-20.8526 L -140.645,-20.4227 L -141.045,-19.9389 L -141.382,-19.4088 L -141.649,-18.8406 L -141.843,-18.2434
 L -141.961,-17.6267 L -142,-17 L -142,17 L -141.961,17.6267 L -141.843,18.2434 L -141.649,18.8406
 L -141.382,19.4088 L -141.045,19.9389 L -140.645,20.4227 L -140.187,20.8526 L -139.679,21.2216 L -139.129,21.5241
 L -138.545,21.7553 L -137.937,21.9114 L -137.314,21.9901 L 137.314,21.9901 z
M 132.024,-15.376 L 132.094,-15.7461 L 132.211,-16.1044 L 132.371,-16.4453 L 132.573,-16.7634 L 132.813,-17.0536
 L 133.088,-17.3115 L 133.393,-17.533 L 133.723,-17.7145 L 134.073,-17.8532 L 134.438,-17.9469 L 134.812,-17.9941
 L 135.188,-17.9941 L 135.562,-17.9469 L 135.927,-17.8532 L 136.277,-17.7145 L 136.607,-17.533 L 136.912,-17.3115
 L 137.187,-17.0536 L 137.427,-16.7634 L 137.629,-16.4453 L 137.789,-16.1044 L 137.906,-15.7461 L 137.976,-15.376
 L 138,-15 L 137.976,-14.624 L 137.906,-14.2539 L 137.789,-13.8956 L 137.629,-13.5547 L 137.427,-13.2366
 L 137.187,-12.9464 L 136.912,-12.6884 L 136.607,-12.467 L 136.277,-12.2855 L 135.927,-12.1468 L 135.562,-12.0531
 L 135.188,-12.0059 L 134.812,-12.0059 L 134.438,-12.0531 L 134.073,-12.1468 L 133.723,-12.2855 L 133.393,-12.467
 L 133.088,-12.6884 L 132.813,-12.9464 L 132.573,-13.2366 L 132.371,-13.5547 L 132.211,-13.8956 L 132.094,-14.2539
 L 132.024,-14.624 L 132,-15 z
M -135.188,17.9941 L -135.562,17.9469 L -135.927,17.8532 L -136.277,17.7145 L -136.607,17.533 L -136.912,17.3115
 L -137.187,17.0536 L -137.427,16.7634 L -137.629,16.4453 L -137.789,16.1044 L -137.906,15.7461 L -137.976,15.376
 L -138,15 L -137.976,14.624 L -137.906,14.2539 L -137.789,13.8956 L -137.629,13.5547 L -137.427,13.2366
 L -137.187,12.9464 L -136.912,12.6884 L -136.607,12.467 L -136.277,12.2855 L -135.927,12.1468 L -135.562,12.0531
 L -135.188,12.0059 L -134.812,12.0059 L -134.438,12.0531 L -134.073,12.1468 L -133.723,12.2855 L -133.393,12.467
 L -133.088,12.6884 L -132.813,12.9464 L -132.573,13.2366 L -132.371,13.5547 L -132.211,13.8956 L -132.094,14.2539
 L -132.024,14.624 L -132,15 L -132.024,15.376 L -132.094,15.7461 L -132.211,16.1044 L -132.371,16.4453
 L -132.573,16.7634 L -132.813,17.0536 L -133.088,17.3115 L -133.393,17.533 L -133.723,17.7145 L -134.073,17.8532
 L -134.438,17.9469 L -134.812,17.9941 z
M 134.812,17.9941 L 134.438,17.9469 L 134.073,17.8532 L 133.723,17.7145 L 133.393,17.533 L 133.088,17.3115
 L 132.813,17.0536 L 132.573,16.7634 L 132.371,16.4453 L 132.211,16.1044 L 132.094,15.7461 L 132.024,15.376
 L 132,15 L 132.024,14.624 L 132.094,14.2539 L 132.211,13.8956 L 132.371,13.5547 L 132.573,13.2366
 L 132.813,12.9464 L 133.088,12.6884 L 133.393,12.467 L 133.723,12.2855 L 134.073,12.1468 L 134.438,12.0531
 L 134.812,12.0059 L 135.188,12.0059 L 135.562,12.0531 L 135.927,12.1468 L 136.277,12.2855 L 136.607,12.467
 L 136.912,12.6884 L 137.187,12.9464 L 137.427,13.2366 L 137.629,13.5547 L 137.789,13.8956 L 137.906,14.2539
 L 137.976,14.624 L 138,15 L 137.976,15.376 L 137.906,15.7461 L 137.789,16.1044 L 137.629,16.4453
 L 137.427,16.7634 L 137.187,17.0536 L 136.912,17.3115 L 136.607,17.533 L 136.277,17.7145 L 135.927,17.8532
 L 135.562,17.9469 L 135.188,17.9941 z
M -132.211,-13.8956 L -132.371,-13.5547 L -132.573,-13.2366 L -132.813,-12.9464 L -133.088,-12.6884 L -133.393,-12.467
 L -133.723,-12.2855 L -134.073,-12.1468 L -134.438,-12.0531 L -134.812,-12.0059 L -135.188,-12.0059 L -135.562,-12.0531
 L -135.927,-12.1468 L -136.277,-12.2855 L -136.607,-12.467 L -136.912,-12.6884 L -137.187,-12.9464 L -137.427,-13.2366
 L -137.629,-13.5547 L -137.789,-13.8956 L -137.906,-14.2539 L -137.976,-14.624 L -138,-15 L -137.976,-15.376
 L -137.906,-15.7461 L -137.789,-16.1044 L -137.629,-16.4453 L -137.427,-16.7634 L -137.187,-17.0536 L -136.912,-17.3115
 L -136.607,-17.533 L -136.277,-17.7145 L -135.927,-17.8532 L -135.562,-17.9469 L -135.188,-17.9941 L -134.812,-17.9941
 L -134.438,-17.9469 L -134.073,-17.8532 L -133.723,-17.7145 L -133.393,-17.533 L -133.088,-17.3115 L -132.813,-17.0536
 L -132.573,-16.7634 L -132.371,-16.4453 L -132.211,-16.1044 L -132.094,-15.7461 L -132.024,-15.376 L -132,-15
 L -132.024,-14.624 L -132.094,-14.2539 z
" stroke="black" fill="lightgray" stroke-width="0.5"/>
</svg>
