solid OpenSCAD_Model
  facet normal -0.904808 -0.425821 0
    outer loop
      vertex -64.4782 1.1964 0
      vertex -64.652 1.5657 6
      vertex -64.652 1.5657 0
    endloop
  endfacet
  facet normal -0.904808 -0.425821 0
    outer loop
      vertex -64.652 1.5657 6
      vertex -64.4782 1.1964 0
      vertex -64.4782 1.1964 6
    endloop
  endfacet
  facet normal -0.844317 -0.535845 0
    outer loop
      vertex -64.652 1.5657 0
      vertex -64.8707 1.9103 6
      vertex -64.8707 1.9103 0
    endloop
  endfacet
  facet normal -0.844317 -0.535845 0
    outer loop
      vertex -64.8707 1.9103 6
      vertex -64.652 1.5657 0
      vertex -64.652 1.5657 6
    endloop
  endfacet
  facet normal -0.368093 -0.929789 0
    outer loop
      vertex -66.4957 3.09093 0
      vertex -66.1162 2.94069 6
      vertex -66.4957 3.09093 6
    endloop
  endfacet
  facet normal -0.368093 -0.929789 -0
    outer loop
      vertex -66.1162 2.94069 6
      vertex -66.4957 3.09093 0
      vertex -66.1162 2.94069 0
    endloop
  endfacet
  facet normal 0.368093 -0.929789 0
    outer loop
      vertex -68.8838 2.94069 0
      vertex -68.5043 3.09093 6
      vertex -68.8838 2.94069 6
    endloop
  endfacet
  facet normal 0.368093 -0.929789 0
    outer loop
      vertex -68.5043 3.09093 6
      vertex -68.8838 2.94069 0
      vertex -68.5043 3.09093 0
    endloop
  endfacet
  facet normal 0.904808 -0.425821 0
    outer loop
      vertex -70.5218 1.1964 6
      vertex -70.348 1.5657 0
      vertex -70.348 1.5657 6
    endloop
  endfacet
  facet normal 0.904808 -0.425821 0
    outer loop
      vertex -70.348 1.5657 0
      vertex -70.5218 1.1964 6
      vertex -70.5218 1.1964 0
    endloop
  endfacet
  facet normal -0.982277 0.187434 0
    outer loop
      vertex -64.3521 -0.808242 0
      vertex -64.2756 -0.407332 6
      vertex -64.2756 -0.407332 0
    endloop
  endfacet
  facet normal -0.982277 0.187434 0
    outer loop
      vertex -64.2756 -0.407332 6
      vertex -64.3521 -0.808242 0
      vertex -64.3521 -0.808242 6
    endloop
  endfacet
  facet normal -0.125356 -0.992112 0
    outer loop
      vertex -67.2959 3.24359 0
      vertex -66.891 3.19243 6
      vertex -67.2959 3.24359 6
    endloop
  endfacet
  facet normal -0.125356 -0.992112 -0
    outer loop
      vertex -66.891 3.19243 6
      vertex -67.2959 3.24359 0
      vertex -66.891 3.19243 0
    endloop
  endfacet
  facet normal -0.587778 -0.809022 0
    outer loop
      vertex -65.7586 2.74407 0
      vertex -65.4284 2.50417 6
      vertex -65.7586 2.74407 6
    endloop
  endfacet
  facet normal -0.587778 -0.809022 -0
    outer loop
      vertex -65.4284 2.50417 6
      vertex -65.7586 2.74407 0
      vertex -65.4284 2.50417 0
    endloop
  endfacet
  facet normal 0.982277 -0.187434 0
    outer loop
      vertex -70.7244 0.407332 6
      vertex -70.6479 0.808242 0
      vertex -70.6479 0.808242 6
    endloop
  endfacet
  facet normal 0.982277 -0.187434 0
    outer loop
      vertex -70.6479 0.808242 0
      vertex -70.7244 0.407332 6
      vertex -70.7244 0.407332 0
    endloop
  endfacet
  facet normal 0.770466 -0.637481 0
    outer loop
      vertex -70.1293 1.9103 6
      vertex -69.8691 2.22478 0
      vertex -69.8691 2.22478 6
    endloop
  endfacet
  facet normal 0.770466 -0.637481 0
    outer loop
      vertex -69.8691 2.22478 0
      vertex -70.1293 1.9103 6
      vertex -70.1293 1.9103 0
    endloop
  endfacet
  facet normal 0.481806 -0.876278 0
    outer loop
      vertex -69.2414 2.74407 0
      vertex -68.8838 2.94069 6
      vertex -69.2414 2.74407 6
    endloop
  endfacet
  facet normal 0.481806 -0.876278 0
    outer loop
      vertex -68.8838 2.94069 6
      vertex -69.2414 2.74407 0
      vertex -68.8838 2.94069 0
    endloop
  endfacet
  facet normal 0.125356 -0.992112 0
    outer loop
      vertex -68.109 3.19243 0
      vertex -67.7041 3.24359 6
      vertex -68.109 3.19243 6
    endloop
  endfacet
  facet normal 0.125356 -0.992112 0
    outer loop
      vertex -67.7041 3.24359 6
      vertex -68.109 3.19243 0
      vertex -67.7041 3.24359 0
    endloop
  endfacet
  facet normal -0.998031 -0.0627242 0
    outer loop
      vertex -64.25 0 0
      vertex -64.2756 0.407332 6
      vertex -64.2756 0.407332 0
    endloop
  endfacet
  facet normal -0.998031 -0.0627242 0
    outer loop
      vertex -64.2756 0.407332 6
      vertex -64.25 0 0
      vertex -64.25 0 6
    endloop
  endfacet
  facet normal -0.951071 0.308972 0
    outer loop
      vertex -64.4782 -1.1964 0
      vertex -64.3521 -0.808242 6
      vertex -64.3521 -0.808242 0
    endloop
  endfacet
  facet normal -0.951071 0.308972 0
    outer loop
      vertex -64.3521 -0.808242 6
      vertex -64.4782 -1.1964 0
      vertex -64.4782 -1.1964 6
    endloop
  endfacet
  facet normal -0.587778 0.809022 0
    outer loop
      vertex -65.4284 -2.50417 0
      vertex -65.7586 -2.74407 6
      vertex -65.4284 -2.50417 6
    endloop
  endfacet
  facet normal -0.587778 0.809022 0
    outer loop
      vertex -65.7586 -2.74407 6
      vertex -65.4284 -2.50417 0
      vertex -65.7586 -2.74407 0
    endloop
  endfacet
  facet normal -0.982277 -0.187434 0
    outer loop
      vertex -64.2756 0.407332 0
      vertex -64.3521 0.808242 6
      vertex -64.3521 0.808242 0
    endloop
  endfacet
  facet normal -0.982277 -0.187434 0
    outer loop
      vertex -64.3521 0.808242 6
      vertex -64.2756 0.407332 0
      vertex -64.2756 0.407332 6
    endloop
  endfacet
  facet normal -0.951071 -0.308972 0
    outer loop
      vertex -64.3521 0.808242 0
      vertex -64.4782 1.1964 6
      vertex -64.4782 1.1964 0
    endloop
  endfacet
  facet normal -0.951071 -0.308972 0
    outer loop
      vertex -64.4782 1.1964 6
      vertex -64.3521 0.808242 0
      vertex -64.3521 0.808242 6
    endloop
  endfacet
  facet normal -0.684572 -0.728946 0
    outer loop
      vertex -65.4284 2.50417 0
      vertex -65.1309 2.22478 6
      vertex -65.4284 2.50417 6
    endloop
  endfacet
  facet normal -0.684572 -0.728946 -0
    outer loop
      vertex -65.1309 2.22478 6
      vertex -65.4284 2.50417 0
      vertex -65.1309 2.22478 0
    endloop
  endfacet
  facet normal -0.770466 -0.637481 0
    outer loop
      vertex -64.8707 1.9103 0
      vertex -65.1309 2.22478 6
      vertex -65.1309 2.22478 0
    endloop
  endfacet
  facet normal -0.770466 -0.637481 0
    outer loop
      vertex -65.1309 2.22478 6
      vertex -64.8707 1.9103 0
      vertex -64.8707 1.9103 6
    endloop
  endfacet
  facet normal 0 -1 0
    outer loop
      vertex -67.7041 3.24359 0
      vertex -67.2959 3.24359 6
      vertex -67.7041 3.24359 6
    endloop
  endfacet
  facet normal 0 -1 -0
    outer loop
      vertex -67.2959 3.24359 6
      vertex -67.7041 3.24359 0
      vertex -67.2959 3.24359 0
    endloop
  endfacet
  facet normal -0.2487 -0.968581 0
    outer loop
      vertex -66.891 3.19243 0
      vertex -66.4957 3.09093 6
      vertex -66.891 3.19243 6
    endloop
  endfacet
  facet normal -0.2487 -0.968581 -0
    outer loop
      vertex -66.4957 3.09093 6
      vertex -66.891 3.19243 0
      vertex -66.4957 3.09093 0
    endloop
  endfacet
  facet normal -0.481806 -0.876278 0
    outer loop
      vertex -66.1162 2.94069 0
      vertex -65.7586 2.74407 6
      vertex -66.1162 2.94069 6
    endloop
  endfacet
  facet normal -0.481806 -0.876278 -0
    outer loop
      vertex -65.7586 2.74407 6
      vertex -66.1162 2.94069 0
      vertex -65.7586 2.74407 0
    endloop
  endfacet
  facet normal 0.998031 -0.0627242 0
    outer loop
      vertex -70.75 0 6
      vertex -70.7244 0.407332 0
      vertex -70.7244 0.407332 6
    endloop
  endfacet
  facet normal 0.998031 -0.0627242 0
    outer loop
      vertex -70.7244 0.407332 0
      vertex -70.75 0 6
      vertex -70.75 0 0
    endloop
  endfacet
  facet normal 0.951071 -0.308972 0
    outer loop
      vertex -70.6479 0.808242 6
      vertex -70.5218 1.1964 0
      vertex -70.5218 1.1964 6
    endloop
  endfacet
  facet normal 0.951071 -0.308972 0
    outer loop
      vertex -70.5218 1.1964 0
      vertex -70.6479 0.808242 6
      vertex -70.6479 0.808242 0
    endloop
  endfacet
  facet normal 0.844317 -0.535845 0
    outer loop
      vertex -70.348 1.5657 6
      vertex -70.1293 1.9103 0
      vertex -70.1293 1.9103 6
    endloop
  endfacet
  facet normal 0.844317 -0.535845 0
    outer loop
      vertex -70.1293 1.9103 0
      vertex -70.348 1.5657 6
      vertex -70.348 1.5657 0
    endloop
  endfacet
  facet normal 0.2487 -0.968581 0
    outer loop
      vertex -68.5043 3.09093 0
      vertex -68.109 3.19243 6
      vertex -68.5043 3.09093 6
    endloop
  endfacet
  facet normal 0.2487 -0.968581 0
    outer loop
      vertex -68.109 3.19243 6
      vertex -68.5043 3.09093 0
      vertex -68.109 3.19243 0
    endloop
  endfacet
  facet normal 0.587778 -0.809022 0
    outer loop
      vertex -69.5716 2.50417 0
      vertex -69.2414 2.74407 6
      vertex -69.5716 2.50417 6
    endloop
  endfacet
  facet normal 0.587778 -0.809022 0
    outer loop
      vertex -69.2414 2.74407 6
      vertex -69.5716 2.50417 0
      vertex -69.2414 2.74407 0
    endloop
  endfacet
  facet normal 0.684572 -0.728946 0
    outer loop
      vertex -69.8691 2.22478 0
      vertex -69.5716 2.50417 6
      vertex -69.8691 2.22478 6
    endloop
  endfacet
  facet normal 0.684572 -0.728946 0
    outer loop
      vertex -69.5716 2.50417 6
      vertex -69.8691 2.22478 0
      vertex -69.5716 2.50417 0
    endloop
  endfacet
  facet normal 0 1 -0
    outer loop
      vertex -67.2959 -3.24359 0
      vertex -67.7041 -3.24359 6
      vertex -67.2959 -3.24359 6
    endloop
  endfacet
  facet normal 0 1 0
    outer loop
      vertex -67.7041 -3.24359 6
      vertex -67.2959 -3.24359 0
      vertex -67.7041 -3.24359 0
    endloop
  endfacet
  facet normal 0.951071 0.308972 0
    outer loop
      vertex -70.5218 -1.1964 6
      vertex -70.6479 -0.808242 0
      vertex -70.6479 -0.808242 6
    endloop
  endfacet
  facet normal 0.951071 0.308972 0
    outer loop
      vertex -70.6479 -0.808242 0
      vertex -70.5218 -1.1964 6
      vertex -70.5218 -1.1964 0
    endloop
  endfacet
  facet normal 0.904808 0.425821 0
    outer loop
      vertex -70.348 -1.5657 6
      vertex -70.5218 -1.1964 0
      vertex -70.5218 -1.1964 6
    endloop
  endfacet
  facet normal 0.904808 0.425821 0
    outer loop
      vertex -70.5218 -1.1964 0
      vertex -70.348 -1.5657 6
      vertex -70.348 -1.5657 0
    endloop
  endfacet
  facet normal -0.125356 0.992112 0
    outer loop
      vertex -66.891 -3.19243 0
      vertex -67.2959 -3.24359 6
      vertex -66.891 -3.19243 6
    endloop
  endfacet
  facet normal -0.125356 0.992112 0
    outer loop
      vertex -67.2959 -3.24359 6
      vertex -66.891 -3.19243 0
      vertex -67.2959 -3.24359 0
    endloop
  endfacet
  facet normal -0.770466 0.637481 0
    outer loop
      vertex -65.1309 -2.22478 0
      vertex -64.8707 -1.9103 6
      vertex -64.8707 -1.9103 0
    endloop
  endfacet
  facet normal -0.770466 0.637481 0
    outer loop
      vertex -64.8707 -1.9103 6
      vertex -65.1309 -2.22478 0
      vertex -65.1309 -2.22478 6
    endloop
  endfacet
  facet normal -0.998031 0.0627242 0
    outer loop
      vertex -64.2756 -0.407332 0
      vertex -64.25 0 6
      vertex -64.25 0 0
    endloop
  endfacet
  facet normal -0.998031 0.0627242 0
    outer loop
      vertex -64.25 0 6
      vertex -64.2756 -0.407332 0
      vertex -64.2756 -0.407332 6
    endloop
  endfacet
  facet normal -0.2487 0.968581 0
    outer loop
      vertex -66.4957 -3.09093 0
      vertex -66.891 -3.19243 6
      vertex -66.4957 -3.09093 6
    endloop
  endfacet
  facet normal -0.2487 0.968581 0
    outer loop
      vertex -66.891 -3.19243 6
      vertex -66.4957 -3.09093 0
      vertex -66.891 -3.19243 0
    endloop
  endfacet
  facet normal -0.481806 0.876278 0
    outer loop
      vertex -65.7586 -2.74407 0
      vertex -66.1162 -2.94069 6
      vertex -65.7586 -2.74407 6
    endloop
  endfacet
  facet normal -0.481806 0.876278 0
    outer loop
      vertex -66.1162 -2.94069 6
      vertex -65.7586 -2.74407 0
      vertex -66.1162 -2.94069 0
    endloop
  endfacet
  facet normal -0.368093 0.929789 0
    outer loop
      vertex -66.1162 -2.94069 0
      vertex -66.4957 -3.09093 6
      vertex -66.1162 -2.94069 6
    endloop
  endfacet
  facet normal -0.368093 0.929789 0
    outer loop
      vertex -66.4957 -3.09093 6
      vertex -66.1162 -2.94069 0
      vertex -66.4957 -3.09093 0
    endloop
  endfacet
  facet normal -0.684572 0.728946 0
    outer loop
      vertex -65.1309 -2.22478 0
      vertex -65.4284 -2.50417 6
      vertex -65.1309 -2.22478 6
    endloop
  endfacet
  facet normal -0.684572 0.728946 0
    outer loop
      vertex -65.4284 -2.50417 6
      vertex -65.1309 -2.22478 0
      vertex -65.4284 -2.50417 0
    endloop
  endfacet
  facet normal -0.904808 0.425821 0
    outer loop
      vertex -64.652 -1.5657 0
      vertex -64.4782 -1.1964 6
      vertex -64.4782 -1.1964 0
    endloop
  endfacet
  facet normal -0.904808 0.425821 0
    outer loop
      vertex -64.4782 -1.1964 6
      vertex -64.652 -1.5657 0
      vertex -64.652 -1.5657 6
    endloop
  endfacet
  facet normal -0.844317 0.535845 0
    outer loop
      vertex -64.8707 -1.9103 0
      vertex -64.652 -1.5657 6
      vertex -64.652 -1.5657 0
    endloop
  endfacet
  facet normal -0.844317 0.535845 0
    outer loop
      vertex -64.652 -1.5657 6
      vertex -64.8707 -1.9103 0
      vertex -64.8707 -1.9103 6
    endloop
  endfacet
  facet normal 0.587778 0.809022 -0
    outer loop
      vertex -69.2414 -2.74407 0
      vertex -69.5716 -2.50417 6
      vertex -69.2414 -2.74407 6
    endloop
  endfacet
  facet normal 0.587778 0.809022 0
    outer loop
      vertex -69.5716 -2.50417 6
      vertex -69.2414 -2.74407 0
      vertex -69.5716 -2.50417 0
    endloop
  endfacet
  facet normal 0.2487 0.968581 -0
    outer loop
      vertex -68.109 -3.19243 0
      vertex -68.5043 -3.09093 6
      vertex -68.109 -3.19243 6
    endloop
  endfacet
  facet normal 0.2487 0.968581 0
    outer loop
      vertex -68.5043 -3.09093 6
      vertex -68.109 -3.19243 0
      vertex -68.5043 -3.09093 0
    endloop
  endfacet
  facet normal 0.125356 0.992112 -0
    outer loop
      vertex -67.7041 -3.24359 0
      vertex -68.109 -3.19243 6
      vertex -67.7041 -3.24359 6
    endloop
  endfacet
  facet normal 0.125356 0.992112 0
    outer loop
      vertex -68.109 -3.19243 6
      vertex -67.7041 -3.24359 0
      vertex -68.109 -3.19243 0
    endloop
  endfacet
  facet normal 0.770466 0.637481 0
    outer loop
      vertex -69.8691 -2.22478 6
      vertex -70.1293 -1.9103 0
      vertex -70.1293 -1.9103 6
    endloop
  endfacet
  facet normal 0.770466 0.637481 0
    outer loop
      vertex -70.1293 -1.9103 0
      vertex -69.8691 -2.22478 6
      vertex -69.8691 -2.22478 0
    endloop
  endfacet
  facet normal 0.684572 0.728946 -0
    outer loop
      vertex -69.5716 -2.50417 0
      vertex -69.8691 -2.22478 6
      vertex -69.5716 -2.50417 6
    endloop
  endfacet
  facet normal 0.684572 0.728946 0
    outer loop
      vertex -69.8691 -2.22478 6
      vertex -69.5716 -2.50417 0
      vertex -69.8691 -2.22478 0
    endloop
  endfacet
  facet normal 0.982277 0.187434 0
    outer loop
      vertex -70.6479 -0.808242 6
      vertex -70.7244 -0.407332 0
      vertex -70.7244 -0.407332 6
    endloop
  endfacet
  facet normal 0.982277 0.187434 0
    outer loop
      vertex -70.7244 -0.407332 0
      vertex -70.6479 -0.808242 6
      vertex -70.6479 -0.808242 0
    endloop
  endfacet
  facet normal 0.998031 0.0627242 0
    outer loop
      vertex -70.7244 -0.407332 6
      vertex -70.75 0 0
      vertex -70.75 0 6
    endloop
  endfacet
  facet normal 0.998031 0.0627242 0
    outer loop
      vertex -70.75 0 0
      vertex -70.7244 -0.407332 6
      vertex -70.7244 -0.407332 0
    endloop
  endfacet
  facet normal 0.481806 0.876278 -0
    outer loop
      vertex -68.8838 -2.94069 0
      vertex -69.2414 -2.74407 6
      vertex -68.8838 -2.94069 6
    endloop
  endfacet
  facet normal 0.481806 0.876278 0
    outer loop
      vertex -69.2414 -2.74407 6
      vertex -68.8838 -2.94069 0
      vertex -69.2414 -2.74407 0
    endloop
  endfacet
  facet normal 0.844317 0.535845 0
    outer loop
      vertex -70.1293 -1.9103 6
      vertex -70.348 -1.5657 0
      vertex -70.348 -1.5657 6
    endloop
  endfacet
  facet normal 0.844317 0.535845 0
    outer loop
      vertex -70.348 -1.5657 0
      vertex -70.1293 -1.9103 6
      vertex -70.1293 -1.9103 0
    endloop
  endfacet
  facet normal 0.368093 0.929789 -0
    outer loop
      vertex -68.5043 -3.09093 0
      vertex -68.8838 -2.94069 6
      vertex -68.5043 -3.09093 6
    endloop
  endfacet
  facet normal 0.368093 0.929789 0
    outer loop
      vertex -68.8838 -2.94069 6
      vertex -68.5043 -3.09093 0
      vertex -68.8838 -2.94069 0
    endloop
  endfacet
  facet normal -0.587778 -0.809022 0
    outer loop
      vertex 69.2414 2.74407 0
      vertex 69.5716 2.50417 6
      vertex 69.2414 2.74407 6
    endloop
  endfacet
  facet normal -0.587778 -0.809022 -0
    outer loop
      vertex 69.5716 2.50417 6
      vertex 69.2414 2.74407 0
      vertex 69.5716 2.50417 0
    endloop
  endfacet
  facet normal -0.998031 0.0627242 0
    outer loop
      vertex 70.7244 -0.407332 0
      vertex 70.75 0 6
      vertex 70.75 0 0
    endloop
  endfacet
  facet normal -0.998031 0.0627242 0
    outer loop
      vertex 70.75 0 6
      vertex 70.7244 -0.407332 0
      vertex 70.7244 -0.407332 6
    endloop
  endfacet
  facet normal 0.2487 0.968581 -0
    outer loop
      vertex 66.891 -3.19243 0
      vertex 66.4957 -3.09093 6
      vertex 66.891 -3.19243 6
    endloop
  endfacet
  facet normal 0.2487 0.968581 0
    outer loop
      vertex 66.4957 -3.09093 6
      vertex 66.891 -3.19243 0
      vertex 66.4957 -3.09093 0
    endloop
  endfacet
  facet normal 0.481806 -0.876278 0
    outer loop
      vertex 65.7586 2.74407 0
      vertex 66.1162 2.94069 6
      vertex 65.7586 2.74407 6
    endloop
  endfacet
  facet normal 0.481806 -0.876278 0
    outer loop
      vertex 66.1162 2.94069 6
      vertex 65.7586 2.74407 0
      vertex 66.1162 2.94069 0
    endloop
  endfacet
  facet normal 0.951071 -0.308972 0
    outer loop
      vertex 64.3521 0.808242 6
      vertex 64.4782 1.1964 0
      vertex 64.4782 1.1964 6
    endloop
  endfacet
  facet normal 0.951071 -0.308972 0
    outer loop
      vertex 64.4782 1.1964 0
      vertex 64.3521 0.808242 6
      vertex 64.3521 0.808242 0
    endloop
  endfacet
  facet normal 0.844317 0.535845 0
    outer loop
      vertex 64.8707 -1.9103 6
      vertex 64.652 -1.5657 0
      vertex 64.652 -1.5657 6
    endloop
  endfacet
  facet normal 0.844317 0.535845 0
    outer loop
      vertex 64.652 -1.5657 0
      vertex 64.8707 -1.9103 6
      vertex 64.8707 -1.9103 0
    endloop
  endfacet
  facet normal -0.951071 -0.308972 0
    outer loop
      vertex 70.6479 0.808242 0
      vertex 70.5218 1.1964 6
      vertex 70.5218 1.1964 0
    endloop
  endfacet
  facet normal -0.951071 -0.308972 0
    outer loop
      vertex 70.5218 1.1964 6
      vertex 70.6479 0.808242 0
      vertex 70.6479 0.808242 6
    endloop
  endfacet
  facet normal -0.904808 -0.425821 0
    outer loop
      vertex 70.5218 1.1964 0
      vertex 70.348 1.5657 6
      vertex 70.348 1.5657 0
    endloop
  endfacet
  facet normal -0.904808 -0.425821 0
    outer loop
      vertex 70.348 1.5657 6
      vertex 70.5218 1.1964 0
      vertex 70.5218 1.1964 6
    endloop
  endfacet
  facet normal -0.844317 -0.535845 0
    outer loop
      vertex 70.348 1.5657 0
      vertex 70.1293 1.9103 6
      vertex 70.1293 1.9103 0
    endloop
  endfacet
  facet normal -0.844317 -0.535845 0
    outer loop
      vertex 70.1293 1.9103 6
      vertex 70.348 1.5657 0
      vertex 70.348 1.5657 6
    endloop
  endfacet
  facet normal -0.770466 -0.637481 0
    outer loop
      vertex 70.1293 1.9103 0
      vertex 69.8691 2.22478 6
      vertex 69.8691 2.22478 0
    endloop
  endfacet
  facet normal -0.770466 -0.637481 0
    outer loop
      vertex 69.8691 2.22478 6
      vertex 70.1293 1.9103 0
      vertex 70.1293 1.9103 6
    endloop
  endfacet
  facet normal -0.481806 -0.876278 0
    outer loop
      vertex 68.8838 2.94069 0
      vertex 69.2414 2.74407 6
      vertex 68.8838 2.94069 6
    endloop
  endfacet
  facet normal -0.481806 -0.876278 -0
    outer loop
      vertex 69.2414 2.74407 6
      vertex 68.8838 2.94069 0
      vertex 69.2414 2.74407 0
    endloop
  endfacet
  facet normal -0.2487 -0.968581 0
    outer loop
      vertex 68.109 3.19243 0
      vertex 68.5043 3.09093 6
      vertex 68.109 3.19243 6
    endloop
  endfacet
  facet normal -0.2487 -0.968581 -0
    outer loop
      vertex 68.5043 3.09093 6
      vertex 68.109 3.19243 0
      vertex 68.5043 3.09093 0
    endloop
  endfacet
  facet normal 0.998031 -0.0627242 0
    outer loop
      vertex 64.25 0 6
      vertex 64.2756 0.407332 0
      vertex 64.2756 0.407332 6
    endloop
  endfacet
  facet normal 0.998031 -0.0627242 0
    outer loop
      vertex 64.2756 0.407332 0
      vertex 64.25 0 6
      vertex 64.25 0 0
    endloop
  endfacet
  facet normal 0.844317 -0.535845 0
    outer loop
      vertex 64.652 1.5657 6
      vertex 64.8707 1.9103 0
      vertex 64.8707 1.9103 6
    endloop
  endfacet
  facet normal 0.844317 -0.535845 0
    outer loop
      vertex 64.8707 1.9103 0
      vertex 64.652 1.5657 6
      vertex 64.652 1.5657 0
    endloop
  endfacet
  facet normal 0.587778 -0.809022 0
    outer loop
      vertex 65.4284 2.50417 0
      vertex 65.7586 2.74407 6
      vertex 65.4284 2.50417 6
    endloop
  endfacet
  facet normal 0.587778 -0.809022 0
    outer loop
      vertex 65.7586 2.74407 6
      vertex 65.4284 2.50417 0
      vertex 65.7586 2.74407 0
    endloop
  endfacet
  facet normal 0.684572 -0.728946 0
    outer loop
      vertex 65.1309 2.22478 0
      vertex 65.4284 2.50417 6
      vertex 65.1309 2.22478 6
    endloop
  endfacet
  facet normal 0.684572 -0.728946 0
    outer loop
      vertex 65.4284 2.50417 6
      vertex 65.1309 2.22478 0
      vertex 65.4284 2.50417 0
    endloop
  endfacet
  facet normal -0.998031 -0.0627242 0
    outer loop
      vertex 70.75 0 0
      vertex 70.7244 0.407332 6
      vertex 70.7244 0.407332 0
    endloop
  endfacet
  facet normal -0.998031 -0.0627242 0
    outer loop
      vertex 70.7244 0.407332 6
      vertex 70.75 0 0
      vertex 70.75 0 6
    endloop
  endfacet
  facet normal -0.844317 0.535845 0
    outer loop
      vertex 70.1293 -1.9103 0
      vertex 70.348 -1.5657 6
      vertex 70.348 -1.5657 0
    endloop
  endfacet
  facet normal -0.844317 0.535845 0
    outer loop
      vertex 70.348 -1.5657 6
      vertex 70.1293 -1.9103 0
      vertex 70.1293 -1.9103 6
    endloop
  endfacet
  facet normal -0.368093 0.929789 0
    outer loop
      vertex 68.8838 -2.94069 0
      vertex 68.5043 -3.09093 6
      vertex 68.8838 -2.94069 6
    endloop
  endfacet
  facet normal -0.368093 0.929789 0
    outer loop
      vertex 68.5043 -3.09093 6
      vertex 68.8838 -2.94069 0
      vertex 68.5043 -3.09093 0
    endloop
  endfacet
  facet normal -0.770466 0.637481 0
    outer loop
      vertex 69.8691 -2.22478 0
      vertex 70.1293 -1.9103 6
      vertex 70.1293 -1.9103 0
    endloop
  endfacet
  facet normal -0.770466 0.637481 0
    outer loop
      vertex 70.1293 -1.9103 6
      vertex 69.8691 -2.22478 0
      vertex 69.8691 -2.22478 6
    endloop
  endfacet
  facet normal -0.587778 0.809022 0
    outer loop
      vertex 69.5716 -2.50417 0
      vertex 69.2414 -2.74407 6
      vertex 69.5716 -2.50417 6
    endloop
  endfacet
  facet normal -0.587778 0.809022 0
    outer loop
      vertex 69.2414 -2.74407 6
      vertex 69.5716 -2.50417 0
      vertex 69.2414 -2.74407 0
    endloop
  endfacet
  facet normal 0 1 -0
    outer loop
      vertex 67.7041 -3.24359 0
      vertex 67.2959 -3.24359 6
      vertex 67.7041 -3.24359 6
    endloop
  endfacet
  facet normal 0 1 0
    outer loop
      vertex 67.2959 -3.24359 6
      vertex 67.7041 -3.24359 0
      vertex 67.2959 -3.24359 0
    endloop
  endfacet
  facet normal 0.481806 0.876278 -0
    outer loop
      vertex 66.1162 -2.94069 0
      vertex 65.7586 -2.74407 6
      vertex 66.1162 -2.94069 6
    endloop
  endfacet
  facet normal 0.481806 0.876278 0
    outer loop
      vertex 65.7586 -2.74407 6
      vertex 66.1162 -2.94069 0
      vertex 65.7586 -2.74407 0
    endloop
  endfacet
  facet normal 0.587778 0.809022 -0
    outer loop
      vertex 65.7586 -2.74407 0
      vertex 65.4284 -2.50417 6
      vertex 65.7586 -2.74407 6
    endloop
  endfacet
  facet normal 0.587778 0.809022 0
    outer loop
      vertex 65.4284 -2.50417 6
      vertex 65.7586 -2.74407 0
      vertex 65.4284 -2.50417 0
    endloop
  endfacet
  facet normal 0.951071 0.308972 0
    outer loop
      vertex 64.4782 -1.1964 6
      vertex 64.3521 -0.808242 0
      vertex 64.3521 -0.808242 6
    endloop
  endfacet
  facet normal 0.951071 0.308972 0
    outer loop
      vertex 64.3521 -0.808242 0
      vertex 64.4782 -1.1964 6
      vertex 64.4782 -1.1964 0
    endloop
  endfacet
  facet normal -0.684572 -0.728946 0
    outer loop
      vertex 69.5716 2.50417 0
      vertex 69.8691 2.22478 6
      vertex 69.5716 2.50417 6
    endloop
  endfacet
  facet normal -0.684572 -0.728946 -0
    outer loop
      vertex 69.8691 2.22478 6
      vertex 69.5716 2.50417 0
      vertex 69.8691 2.22478 0
    endloop
  endfacet
  facet normal 0 -1 0
    outer loop
      vertex 67.2959 3.24359 0
      vertex 67.7041 3.24359 6
      vertex 67.2959 3.24359 6
    endloop
  endfacet
  facet normal 0 -1 -0
    outer loop
      vertex 67.7041 3.24359 6
      vertex 67.2959 3.24359 0
      vertex 67.7041 3.24359 0
    endloop
  endfacet
  facet normal -0.368093 -0.929789 0
    outer loop
      vertex 68.5043 3.09093 0
      vertex 68.8838 2.94069 6
      vertex 68.5043 3.09093 6
    endloop
  endfacet
  facet normal -0.368093 -0.929789 -0
    outer loop
      vertex 68.8838 2.94069 6
      vertex 68.5043 3.09093 0
      vertex 68.8838 2.94069 0
    endloop
  endfacet
  facet normal 0.998031 0.0627242 0
    outer loop
      vertex 64.2756 -0.407332 6
      vertex 64.25 0 0
      vertex 64.25 0 6
    endloop
  endfacet
  facet normal 0.998031 0.0627242 0
    outer loop
      vertex 64.25 0 0
      vertex 64.2756 -0.407332 6
      vertex 64.2756 -0.407332 0
    endloop
  endfacet
  facet normal 0.982277 -0.187434 0
    outer loop
      vertex 64.2756 0.407332 6
      vertex 64.3521 0.808242 0
      vertex 64.3521 0.808242 6
    endloop
  endfacet
  facet normal 0.982277 -0.187434 0
    outer loop
      vertex 64.3521 0.808242 0
      vertex 64.2756 0.407332 6
      vertex 64.2756 0.407332 0
    endloop
  endfacet
  facet normal 0.904808 -0.425821 0
    outer loop
      vertex 64.4782 1.1964 6
      vertex 64.652 1.5657 0
      vertex 64.652 1.5657 6
    endloop
  endfacet
  facet normal 0.904808 -0.425821 0
    outer loop
      vertex 64.652 1.5657 0
      vertex 64.4782 1.1964 6
      vertex 64.4782 1.1964 0
    endloop
  endfacet
  facet normal 0.125356 -0.992112 0
    outer loop
      vertex 66.891 3.19243 0
      vertex 67.2959 3.24359 6
      vertex 66.891 3.19243 6
    endloop
  endfacet
  facet normal 0.125356 -0.992112 0
    outer loop
      vertex 67.2959 3.24359 6
      vertex 66.891 3.19243 0
      vertex 67.2959 3.24359 0
    endloop
  endfacet
  facet normal 0.368093 -0.929789 0
    outer loop
      vertex 66.1162 2.94069 0
      vertex 66.4957 3.09093 6
      vertex 66.1162 2.94069 6
    endloop
  endfacet
  facet normal 0.368093 -0.929789 0
    outer loop
      vertex 66.4957 3.09093 6
      vertex 66.1162 2.94069 0
      vertex 66.4957 3.09093 0
    endloop
  endfacet
  facet normal 0.2487 -0.968581 0
    outer loop
      vertex 66.4957 3.09093 0
      vertex 66.891 3.19243 6
      vertex 66.4957 3.09093 6
    endloop
  endfacet
  facet normal 0.2487 -0.968581 0
    outer loop
      vertex 66.891 3.19243 6
      vertex 66.4957 3.09093 0
      vertex 66.891 3.19243 0
    endloop
  endfacet
  facet normal 0.770466 -0.637481 0
    outer loop
      vertex 64.8707 1.9103 6
      vertex 65.1309 2.22478 0
      vertex 65.1309 2.22478 6
    endloop
  endfacet
  facet normal 0.770466 -0.637481 0
    outer loop
      vertex 65.1309 2.22478 0
      vertex 64.8707 1.9103 6
      vertex 64.8707 1.9103 0
    endloop
  endfacet
  facet normal -0.125356 0.992112 0
    outer loop
      vertex 68.109 -3.19243 0
      vertex 67.7041 -3.24359 6
      vertex 68.109 -3.19243 6
    endloop
  endfacet
  facet normal -0.125356 0.992112 0
    outer loop
      vertex 67.7041 -3.24359 6
      vertex 68.109 -3.19243 0
      vertex 67.7041 -3.24359 0
    endloop
  endfacet
  facet normal -0.982277 0.187434 0
    outer loop
      vertex 70.6479 -0.808242 0
      vertex 70.7244 -0.407332 6
      vertex 70.7244 -0.407332 0
    endloop
  endfacet
  facet normal -0.982277 0.187434 0
    outer loop
      vertex 70.7244 -0.407332 6
      vertex 70.6479 -0.808242 0
      vertex 70.6479 -0.808242 6
    endloop
  endfacet
  facet normal -0.951071 0.308972 0
    outer loop
      vertex 70.5218 -1.1964 0
      vertex 70.6479 -0.808242 6
      vertex 70.6479 -0.808242 0
    endloop
  endfacet
  facet normal -0.951071 0.308972 0
    outer loop
      vertex 70.6479 -0.808242 6
      vertex 70.5218 -1.1964 0
      vertex 70.5218 -1.1964 6
    endloop
  endfacet
  facet normal -0.2487 0.968581 0
    outer loop
      vertex 68.5043 -3.09093 0
      vertex 68.109 -3.19243 6
      vertex 68.5043 -3.09093 6
    endloop
  endfacet
  facet normal -0.2487 0.968581 0
    outer loop
      vertex 68.109 -3.19243 6
      vertex 68.5043 -3.09093 0
      vertex 68.109 -3.19243 0
    endloop
  endfacet
  facet normal -0.684572 0.728946 0
    outer loop
      vertex 69.8691 -2.22478 0
      vertex 69.5716 -2.50417 6
      vertex 69.8691 -2.22478 6
    endloop
  endfacet
  facet normal -0.684572 0.728946 0
    outer loop
      vertex 69.5716 -2.50417 6
      vertex 69.8691 -2.22478 0
      vertex 69.5716 -2.50417 0
    endloop
  endfacet
  facet normal 0.125356 0.992112 -0
    outer loop
      vertex 67.2959 -3.24359 0
      vertex 66.891 -3.19243 6
      vertex 67.2959 -3.24359 6
    endloop
  endfacet
  facet normal 0.125356 0.992112 0
    outer loop
      vertex 66.891 -3.19243 6
      vertex 67.2959 -3.24359 0
      vertex 66.891 -3.19243 0
    endloop
  endfacet
  facet normal 0.368093 0.929789 -0
    outer loop
      vertex 66.4957 -3.09093 0
      vertex 66.1162 -2.94069 6
      vertex 66.4957 -3.09093 6
    endloop
  endfacet
  facet normal 0.368093 0.929789 0
    outer loop
      vertex 66.1162 -2.94069 6
      vertex 66.4957 -3.09093 0
      vertex 66.1162 -2.94069 0
    endloop
  endfacet
  facet normal 0.904808 0.425821 0
    outer loop
      vertex 64.652 -1.5657 6
      vertex 64.4782 -1.1964 0
      vertex 64.4782 -1.1964 6
    endloop
  endfacet
  facet normal 0.904808 0.425821 0
    outer loop
      vertex 64.4782 -1.1964 0
      vertex 64.652 -1.5657 6
      vertex 64.652 -1.5657 0
    endloop
  endfacet
  facet normal 0.982277 0.187434 0
    outer loop
      vertex 64.3521 -0.808242 6
      vertex 64.2756 -0.407332 0
      vertex 64.2756 -0.407332 6
    endloop
  endfacet
  facet normal 0.982277 0.187434 0
    outer loop
      vertex 64.2756 -0.407332 0
      vertex 64.3521 -0.808242 6
      vertex 64.3521 -0.808242 0
    endloop
  endfacet
  facet normal 0.770466 0.637481 0
    outer loop
      vertex 65.1309 -2.22478 6
      vertex 64.8707 -1.9103 0
      vertex 64.8707 -1.9103 6
    endloop
  endfacet
  facet normal 0.770466 0.637481 0
    outer loop
      vertex 64.8707 -1.9103 0
      vertex 65.1309 -2.22478 6
      vertex 65.1309 -2.22478 0
    endloop
  endfacet
  facet normal 0.684572 0.728946 -0
    outer loop
      vertex 65.4284 -2.50417 0
      vertex 65.1309 -2.22478 6
      vertex 65.4284 -2.50417 6
    endloop
  endfacet
  facet normal 0.684572 0.728946 0
    outer loop
      vertex 65.1309 -2.22478 6
      vertex 65.4284 -2.50417 0
      vertex 65.1309 -2.22478 0
    endloop
  endfacet
  facet normal -0.982277 -0.187434 0
    outer loop
      vertex 70.7244 0.407332 0
      vertex 70.6479 0.808242 6
      vertex 70.6479 0.808242 0
    endloop
  endfacet
  facet normal -0.982277 -0.187434 0
    outer loop
      vertex 70.6479 0.808242 6
      vertex 70.7244 0.407332 0
      vertex 70.7244 0.407332 6
    endloop
  endfacet
  facet normal -0.125356 -0.992112 0
    outer loop
      vertex 67.7041 3.24359 0
      vertex 68.109 3.19243 6
      vertex 67.7041 3.24359 6
    endloop
  endfacet
  facet normal -0.125356 -0.992112 -0
    outer loop
      vertex 68.109 3.19243 6
      vertex 67.7041 3.24359 0
      vertex 68.109 3.19243 0
    endloop
  endfacet
  facet normal -0.904808 0.425821 0
    outer loop
      vertex 70.348 -1.5657 0
      vertex 70.5218 -1.1964 6
      vertex 70.5218 -1.1964 0
    endloop
  endfacet
  facet normal -0.904808 0.425821 0
    outer loop
      vertex 70.5218 -1.1964 6
      vertex 70.348 -1.5657 0
      vertex 70.348 -1.5657 6
    endloop
  endfacet
  facet normal -0.481806 0.876278 0
    outer loop
      vertex 69.2414 -2.74407 0
      vertex 68.8838 -2.94069 6
      vertex 69.2414 -2.74407 6
    endloop
  endfacet
  facet normal -0.481806 0.876278 0
    outer loop
      vertex 68.8838 -2.94069 6
      vertex 69.2414 -2.74407 0
      vertex 68.8838 -2.94069 0
    endloop
  endfacet
  facet normal -1 0 0
    outer loop
      vertex -74.5 -2 0
      vertex -74.5 2 6
      vertex -74.5 2 0
    endloop
  endfacet
  facet normal -1 -0 0
    outer loop
      vertex -74.5 2 6
      vertex -74.5 -2 0
      vertex -74.5 -2 6
    endloop
  endfacet
  facet normal -0.998029 -0.0627481 0
    outer loop
      vertex -74.4606 -2.62667 0
      vertex -74.5 -2 6
      vertex -74.5 -2 0
    endloop
  endfacet
  facet normal -0.998029 -0.0627481 0
    outer loop
      vertex -74.5 -2 6
      vertex -74.4606 -2.62667 0
      vertex -74.4606 -2.62667 6
    endloop
  endfacet
  facet normal 0 1 -0
    outer loop
      vertex 69.8139 6.99013 0
      vertex -69.8139 6.99013 6
      vertex 69.8139 6.99013 6
    endloop
  endfacet
  facet normal 0 1 0
    outer loop
      vertex -69.8139 6.99013 6
      vertex 69.8139 6.99013 0
      vertex -69.8139 6.99013 0
    endloop
  endfacet
  facet normal 0 -1 0
    outer loop
      vertex -69.8139 -6.99013 0
      vertex 69.8139 -6.99013 6
      vertex -69.8139 -6.99013 6
    endloop
  endfacet
  facet normal 0 -1 -0
    outer loop
      vertex 69.8139 -6.99013 6
      vertex -69.8139 -6.99013 0
      vertex 69.8139 -6.99013 0
    endloop
  endfacet
  facet normal 0 0 1
    outer loop
      vertex 70.5218 1.1964 6
      vertex 74.5 2 6
      vertex 74.4606 2.62667 6
    endloop
  endfacet
  facet normal 0 0 1
    outer loop
      vertex 74.5 2 6
      vertex 70.75 0 6
      vertex 74.5 -2 6
    endloop
  endfacet
  facet normal 0 0 1
    outer loop
      vertex 70.348 1.5657 6
      vertex 74.4606 2.62667 6
      vertex 74.3429 3.24345 6
    endloop
  endfacet
  facet normal -0 0 1
    outer loop
      vertex 70.7244 -0.407332 6
      vertex 74.5 -2 6
      vertex 70.75 0 6
    endloop
  endfacet
  facet normal 0 0 1
    outer loop
      vertex 70.348 1.5657 6
      vertex 74.3429 3.24345 6
      vertex 74.1489 3.84062 6
    endloop
  endfacet
  facet normal -0 0 1
    outer loop
      vertex 70.6479 -0.808242 6
      vertex 74.5 -2 6
      vertex 70.7244 -0.407332 6
    endloop
  endfacet
  facet normal 0 0 1
    outer loop
      vertex 70.1293 1.9103 6
      vertex 74.1489 3.84062 6
      vertex 73.8815 4.40877 6
    endloop
  endfacet
  facet normal -0 0 1
    outer loop
      vertex 70.5218 -1.1964 6
      vertex 74.5 -2 6
      vertex 70.6479 -0.808242 6
    endloop
  endfacet
  facet normal 0 0 1
    outer loop
      vertex 70.1293 1.9103 6
      vertex 73.8815 4.40877 6
      vertex 73.5451 4.93893 6
    endloop
  endfacet
  facet normal 0 0 1
    outer loop
      vertex 74.5 -2 6
      vertex 70.5218 -1.1964 6
      vertex 74.4606 -2.62667 6
    endloop
  endfacet
  facet normal 0 0 1
    outer loop
      vertex 69.8691 2.22478 6
      vertex 73.5451 4.93893 6
      vertex 73.1448 5.42274 6
    endloop
  endfacet
  facet normal -0 0 1
    outer loop
      vertex 70.348 -1.5657 6
      vertex 74.4606 -2.62667 6
      vertex 70.5218 -1.1964 6
    endloop
  endfacet
  facet normal 0 0 1
    outer loop
      vertex 69.8691 2.22478 6
      vertex 73.1448 5.42274 6
      vertex 72.6871 5.85257 6
    endloop
  endfacet
  facet normal 0 0 1
    outer loop
      vertex 74.4606 -2.62667 6
      vertex 70.348 -1.5657 6
      vertex 74.3429 -3.24345 6
    endloop
  endfacet
  facet normal 0 0 1
    outer loop
      vertex 69.5716 2.50417 6
      vertex 72.6871 5.85257 6
      vertex 72.1791 6.22164 6
    endloop
  endfacet
  facet normal 0 0 1
    outer loop
      vertex 74.3429 -3.24345 6
      vertex 70.348 -1.5657 6
      vertex 74.1489 -3.84062 6
    endloop
  endfacet
  facet normal 0 0 1
    outer loop
      vertex 69.5716 2.50417 6
      vertex 72.1791 6.22164 6
      vertex 71.6289 6.52413 6
    endloop
  endfacet
  facet normal -0 0 1
    outer loop
      vertex 70.1293 -1.9103 6
      vertex 74.1489 -3.84062 6
      vertex 70.348 -1.5657 6
    endloop
  endfacet
  facet normal 0 0 1
    outer loop
      vertex 69.2414 2.74407 6
      vertex 71.6289 6.52413 6
      vertex 71.0451 6.75528 6
    endloop
  endfacet
  facet normal 0 0 1
    outer loop
      vertex 74.1489 -3.84062 6
      vertex 70.1293 -1.9103 6
      vertex 73.8815 -4.40877 6
    endloop
  endfacet
  facet normal 0 0 1
    outer loop
      vertex 73.8815 -4.40877 6
      vertex 70.1293 -1.9103 6
      vertex 73.5451 -4.93893 6
    endloop
  endfacet
  facet normal 0 0 1
    outer loop
      vertex 74.5 2 6
      vertex 70.7244 0.407332 6
      vertex 70.75 0 6
    endloop
  endfacet
  facet normal 0 0 1
    outer loop
      vertex 74.5 2 6
      vertex 70.6479 0.808242 6
      vertex 70.7244 0.407332 6
    endloop
  endfacet
  facet normal 0 0 1
    outer loop
      vertex 74.5 2 6
      vertex 70.5218 1.1964 6
      vertex 70.6479 0.808242 6
    endloop
  endfacet
  facet normal 0 0 1
    outer loop
      vertex 69.2414 2.74407 6
      vertex 71.0451 6.75528 6
      vertex 70.4369 6.91144 6
    endloop
  endfacet
  facet normal 0 0 1
    outer loop
      vertex 74.4606 2.62667 6
      vertex 70.348 1.5657 6
      vertex 70.5218 1.1964 6
    endloop
  endfacet
  facet normal 0 0 1
    outer loop
      vertex 74.1489 3.84062 6
      vertex 70.1293 1.9103 6
      vertex 70.348 1.5657 6
    endloop
  endfacet
  facet normal 0 0 1
    outer loop
      vertex 73.5451 4.93893 6
      vertex 69.8691 2.22478 6
      vertex 70.1293 1.9103 6
    endloop
  endfacet
  facet normal 0 0 1
    outer loop
      vertex 68.8838 2.94069 6
      vertex 70.4369 6.91144 6
      vertex 69.8139 6.99013 6
    endloop
  endfacet
  facet normal 0 0 1
    outer loop
      vertex 72.6871 5.85257 6
      vertex 69.5716 2.50417 6
      vertex 69.8691 2.22478 6
    endloop
  endfacet
  facet normal 0 0 1
    outer loop
      vertex 71.6289 6.52413 6
      vertex 69.2414 2.74407 6
      vertex 69.5716 2.50417 6
    endloop
  endfacet
  facet normal 0 0 1
    outer loop
      vertex 70.4369 6.91144 6
      vertex 68.8838 2.94069 6
      vertex 69.2414 2.74407 6
    endloop
  endfacet
  facet normal 0 0 1
    outer loop
      vertex 69.8139 6.99013 6
      vertex 68.5043 3.09093 6
      vertex 68.8838 2.94069 6
    endloop
  endfacet
  facet normal 0 0 1
    outer loop
      vertex 69.8139 6.99013 6
      vertex 68.109 3.19243 6
      vertex 68.5043 3.09093 6
    endloop
  endfacet
  facet normal 0 0 1
    outer loop
      vertex 69.8139 6.99013 6
      vertex 67.7041 3.24359 6
      vertex 68.109 3.19243 6
    endloop
  endfacet
  facet normal 0 0 1
    outer loop
      vertex 69.8139 6.99013 6
      vertex 67.2959 3.24359 6
      vertex 67.7041 3.24359 6
    endloop
  endfacet
  facet normal 0 0 1
    outer loop
      vertex 69.8139 6.99013 6
      vertex 66.891 3.19243 6
      vertex 67.2959 3.24359 6
    endloop
  endfacet
  facet normal 0 0 1
    outer loop
      vertex 69.8139 6.99013 6
      vertex 66.4957 3.09093 6
      vertex 66.891 3.19243 6
    endloop
  endfacet
  facet normal 0 0 1
    outer loop
      vertex 69.8139 6.99013 6
      vertex 66.1162 2.94069 6
      vertex 66.4957 3.09093 6
    endloop
  endfacet
  facet normal 0 0 1
    outer loop
      vertex 69.8139 6.99013 6
      vertex 65.7586 2.74407 6
      vertex 66.1162 2.94069 6
    endloop
  endfacet
  facet normal 0 0 1
    outer loop
      vertex 69.8139 6.99013 6
      vertex 65.4284 2.50417 6
      vertex 65.7586 2.74407 6
    endloop
  endfacet
  facet normal 0 0 1
    outer loop
      vertex 69.8139 6.99013 6
      vertex 65.1309 2.22478 6
      vertex 65.4284 2.50417 6
    endloop
  endfacet
  facet normal 0 0 1
    outer loop
      vertex 64.2756 0.407332 6
      vertex -64.25 0 6
      vertex 64.25 0 6
    endloop
  endfacet
  facet normal 0 0 1
    outer loop
      vertex -64.2756 0.407332 6
      vertex 64.2756 0.407332 6
      vertex 64.3521 0.808242 6
    endloop
  endfacet
  facet normal 0 0 1
    outer loop
      vertex -64.3521 0.808242 6
      vertex 64.3521 0.808242 6
      vertex 64.4782 1.1964 6
    endloop
  endfacet
  facet normal 0 0 1
    outer loop
      vertex -64.4782 1.1964 6
      vertex 64.4782 1.1964 6
      vertex 64.652 1.5657 6
    endloop
  endfacet
  facet normal 0 0 1
    outer loop
      vertex -64.652 1.5657 6
      vertex 64.652 1.5657 6
      vertex 64.8707 1.9103 6
    endloop
  endfacet
  facet normal 0 0 1
    outer loop
      vertex -64.8707 1.9103 6
      vertex 64.8707 1.9103 6
      vertex 65.1309 2.22478 6
    endloop
  endfacet
  facet normal 0 0 1
    outer loop
      vertex -65.1309 2.22478 6
      vertex 65.1309 2.22478 6
      vertex 69.8139 6.99013 6
    endloop
  endfacet
  facet normal 0 0 1
    outer loop
      vertex 64.2756 0.407332 6
      vertex -64.2756 0.407332 6
      vertex -64.25 0 6
    endloop
  endfacet
  facet normal 0 0 1
    outer loop
      vertex 64.3521 0.808242 6
      vertex -64.3521 0.808242 6
      vertex -64.2756 0.407332 6
    endloop
  endfacet
  facet normal 0 0 1
    outer loop
      vertex 64.4782 1.1964 6
      vertex -64.4782 1.1964 6
      vertex -64.3521 0.808242 6
    endloop
  endfacet
  facet normal 0 0 1
    outer loop
      vertex 64.652 1.5657 6
      vertex -64.652 1.5657 6
      vertex -64.4782 1.1964 6
    endloop
  endfacet
  facet normal 0 0 1
    outer loop
      vertex 64.8707 1.9103 6
      vertex -64.8707 1.9103 6
      vertex -64.652 1.5657 6
    endloop
  endfacet
  facet normal 0 0 1
    outer loop
      vertex 65.1309 2.22478 6
      vertex -65.1309 2.22478 6
      vertex -64.8707 1.9103 6
    endloop
  endfacet
  facet normal 0 0 1
    outer loop
      vertex 69.8139 6.99013 6
      vertex -65.4284 2.50417 6
      vertex -65.1309 2.22478 6
    endloop
  endfacet
  facet normal -0 0 1
    outer loop
      vertex -69.8139 6.99013 6
      vertex -65.4284 2.50417 6
      vertex 69.8139 6.99013 6
    endloop
  endfacet
  facet normal 0 0 1
    outer loop
      vertex -65.4284 2.50417 6
      vertex -69.8139 6.99013 6
      vertex -65.7586 2.74407 6
    endloop
  endfacet
  facet normal 0 0 1
    outer loop
      vertex -65.7586 2.74407 6
      vertex -69.8139 6.99013 6
      vertex -66.1162 2.94069 6
    endloop
  endfacet
  facet normal 0 0 1
    outer loop
      vertex -66.1162 2.94069 6
      vertex -69.8139 6.99013 6
      vertex -66.4957 3.09093 6
    endloop
  endfacet
  facet normal 0 0 1
    outer loop
      vertex -66.4957 3.09093 6
      vertex -69.8139 6.99013 6
      vertex -66.891 3.19243 6
    endloop
  endfacet
  facet normal 0 0 1
    outer loop
      vertex -66.891 3.19243 6
      vertex -69.8139 6.99013 6
      vertex -67.2959 3.24359 6
    endloop
  endfacet
  facet normal 0 0 1
    outer loop
      vertex -67.2959 3.24359 6
      vertex -69.8139 6.99013 6
      vertex -67.7041 3.24359 6
    endloop
  endfacet
  facet normal 0 0 1
    outer loop
      vertex -69.8139 6.99013 6
      vertex -68.109 3.19243 6
      vertex -67.7041 3.24359 6
    endloop
  endfacet
  facet normal 0 0 1
    outer loop
      vertex -69.8139 6.99013 6
      vertex -68.5043 3.09093 6
      vertex -68.109 3.19243 6
    endloop
  endfacet
  facet normal 0 0 1
    outer loop
      vertex -69.8139 6.99013 6
      vertex -68.8838 2.94069 6
      vertex -68.5043 3.09093 6
    endloop
  endfacet
  facet normal -0 0 1
    outer loop
      vertex -70.4369 6.91144 6
      vertex -68.8838 2.94069 6
      vertex -69.8139 6.99013 6
    endloop
  endfacet
  facet normal 0 0 1
    outer loop
      vertex -68.8838 2.94069 6
      vertex -70.4369 6.91144 6
      vertex -69.2414 2.74407 6
    endloop
  endfacet
  facet normal -0 0 1
    outer loop
      vertex -71.0451 6.75528 6
      vertex -69.2414 2.74407 6
      vertex -70.4369 6.91144 6
    endloop
  endfacet
  facet normal -0 0 1
    outer loop
      vertex -71.6289 6.52413 6
      vertex -69.2414 2.74407 6
      vertex -71.0451 6.75528 6
    endloop
  endfacet
  facet normal 0 0 1
    outer loop
      vertex -69.2414 2.74407 6
      vertex -71.6289 6.52413 6
      vertex -69.5716 2.50417 6
    endloop
  endfacet
  facet normal -0 0 1
    outer loop
      vertex -72.1791 6.22164 6
      vertex -69.5716 2.50417 6
      vertex -71.6289 6.52413 6
    endloop
  endfacet
  facet normal -0 0 1
    outer loop
      vertex -72.6871 5.85257 6
      vertex -69.5716 2.50417 6
      vertex -72.1791 6.22164 6
    endloop
  endfacet
  facet normal 0 0 1
    outer loop
      vertex -69.5716 2.50417 6
      vertex -72.6871 5.85257 6
      vertex -69.8691 2.22478 6
    endloop
  endfacet
  facet normal -0 0 1
    outer loop
      vertex -73.1448 5.42274 6
      vertex -69.8691 2.22478 6
      vertex -72.6871 5.85257 6
    endloop
  endfacet
  facet normal -0 0 1
    outer loop
      vertex -73.5451 4.93893 6
      vertex -69.8691 2.22478 6
      vertex -73.1448 5.42274 6
    endloop
  endfacet
  facet normal 0 0 1
    outer loop
      vertex -69.8691 2.22478 6
      vertex -73.5451 4.93893 6
      vertex -70.1293 1.9103 6
    endloop
  endfacet
  facet normal -0 0 1
    outer loop
      vertex 69.8691 -2.22478 6
      vertex 73.5451 -4.93893 6
      vertex 70.1293 -1.9103 6
    endloop
  endfacet
  facet normal 0 0 1
    outer loop
      vertex 73.5451 -4.93893 6
      vertex 69.8691 -2.22478 6
      vertex 73.1448 -5.42274 6
    endloop
  endfacet
  facet normal 0 0 1
    outer loop
      vertex 73.1448 -5.42274 6
      vertex 69.8691 -2.22478 6
      vertex 72.6871 -5.85257 6
    endloop
  endfacet
  facet normal -0 0 1
    outer loop
      vertex 69.5716 -2.50417 6
      vertex 72.6871 -5.85257 6
      vertex 69.8691 -2.22478 6
    endloop
  endfacet
  facet normal 0 0 1
    outer loop
      vertex 72.6871 -5.85257 6
      vertex 69.5716 -2.50417 6
      vertex 72.1791 -6.22164 6
    endloop
  endfacet
  facet normal 0 0 1
    outer loop
      vertex 72.1791 -6.22164 6
      vertex 69.5716 -2.50417 6
      vertex 71.6289 -6.52413 6
    endloop
  endfacet
  facet normal -0 0 1
    outer loop
      vertex 69.2414 -2.74407 6
      vertex 71.6289 -6.52413 6
      vertex 69.5716 -2.50417 6
    endloop
  endfacet
  facet normal 0 0 1
    outer loop
      vertex 71.6289 -6.52413 6
      vertex 69.2414 -2.74407 6
      vertex 71.0451 -6.75528 6
    endloop
  endfacet
  facet normal 0 0 1
    outer loop
      vertex 71.0451 -6.75528 6
      vertex 69.2414 -2.74407 6
      vertex 70.4369 -6.91144 6
    endloop
  endfacet
  facet normal -0 0 1
    outer loop
      vertex 68.8838 -2.94069 6
      vertex 70.4369 -6.91144 6
      vertex 69.2414 -2.74407 6
    endloop
  endfacet
  facet normal 0 0 1
    outer loop
      vertex 70.4369 -6.91144 6
      vertex 68.8838 -2.94069 6
      vertex 69.8139 -6.99013 6
    endloop
  endfacet
  facet normal -0 0 1
    outer loop
      vertex 68.5043 -3.09093 6
      vertex 69.8139 -6.99013 6
      vertex 68.8838 -2.94069 6
    endloop
  endfacet
  facet normal -0 0 1
    outer loop
      vertex 68.109 -3.19243 6
      vertex 69.8139 -6.99013 6
      vertex 68.5043 -3.09093 6
    endloop
  endfacet
  facet normal -0 0 1
    outer loop
      vertex 67.7041 -3.24359 6
      vertex 69.8139 -6.99013 6
      vertex 68.109 -3.19243 6
    endloop
  endfacet
  facet normal -0 0 1
    outer loop
      vertex 67.2959 -3.24359 6
      vertex 69.8139 -6.99013 6
      vertex 67.7041 -3.24359 6
    endloop
  endfacet
  facet normal 0 0 1
    outer loop
      vertex 66.891 -3.19243 6
      vertex 69.8139 -6.99013 6
      vertex 67.2959 -3.24359 6
    endloop
  endfacet
  facet normal 0 0 1
    outer loop
      vertex 66.4957 -3.09093 6
      vertex 69.8139 -6.99013 6
      vertex 66.891 -3.19243 6
    endloop
  endfacet
  facet normal 0 0 1
    outer loop
      vertex 66.1162 -2.94069 6
      vertex 69.8139 -6.99013 6
      vertex 66.4957 -3.09093 6
    endloop
  endfacet
  facet normal 0 0 1
    outer loop
      vertex 65.7586 -2.74407 6
      vertex 69.8139 -6.99013 6
      vertex 66.1162 -2.94069 6
    endloop
  endfacet
  facet normal 0 0 1
    outer loop
      vertex 65.4284 -2.50417 6
      vertex 69.8139 -6.99013 6
      vertex 65.7586 -2.74407 6
    endloop
  endfacet
  facet normal 0 0 1
    outer loop
      vertex 65.1309 -2.22478 6
      vertex 69.8139 -6.99013 6
      vertex 65.4284 -2.50417 6
    endloop
  endfacet
  facet normal -0 0 1
    outer loop
      vertex -64.25 0 6
      vertex 64.2756 -0.407332 6
      vertex 64.25 0 6
    endloop
  endfacet
  facet normal 0 0 1
    outer loop
      vertex -64.2756 -0.407332 6
      vertex 64.2756 -0.407332 6
      vertex -64.25 0 6
    endloop
  endfacet
  facet normal 0 0 1
    outer loop
      vertex 64.2756 -0.407332 6
      vertex -64.2756 -0.407332 6
      vertex 64.3521 -0.808242 6
    endloop
  endfacet
  facet normal 0 0 1
    outer loop
      vertex -64.3521 -0.808242 6
      vertex 64.3521 -0.808242 6
      vertex -64.2756 -0.407332 6
    endloop
  endfacet
  facet normal 0 0 1
    outer loop
      vertex 64.3521 -0.808242 6
      vertex -64.3521 -0.808242 6
      vertex 64.4782 -1.1964 6
    endloop
  endfacet
  facet normal 0 0 1
    outer loop
      vertex -64.4782 -1.1964 6
      vertex 64.4782 -1.1964 6
      vertex -64.3521 -0.808242 6
    endloop
  endfacet
  facet normal 0 0 1
    outer loop
      vertex 64.4782 -1.1964 6
      vertex -64.4782 -1.1964 6
      vertex 64.652 -1.5657 6
    endloop
  endfacet
  facet normal 0 0 1
    outer loop
      vertex -64.652 -1.5657 6
      vertex 64.652 -1.5657 6
      vertex -64.4782 -1.1964 6
    endloop
  endfacet
  facet normal 0 0 1
    outer loop
      vertex 64.652 -1.5657 6
      vertex -64.652 -1.5657 6
      vertex 64.8707 -1.9103 6
    endloop
  endfacet
  facet normal 0 0 1
    outer loop
      vertex -64.8707 -1.9103 6
      vertex 64.8707 -1.9103 6
      vertex -64.652 -1.5657 6
    endloop
  endfacet
  facet normal 0 0 1
    outer loop
      vertex 64.8707 -1.9103 6
      vertex -64.8707 -1.9103 6
      vertex 65.1309 -2.22478 6
    endloop
  endfacet
  facet normal 0 0 1
    outer loop
      vertex -65.1309 -2.22478 6
      vertex 65.1309 -2.22478 6
      vertex -64.8707 -1.9103 6
    endloop
  endfacet
  facet normal 0 0 1
    outer loop
      vertex 65.1309 -2.22478 6
      vertex -65.1309 -2.22478 6
      vertex 69.8139 -6.99013 6
    endloop
  endfacet
  facet normal -0 0 1
    outer loop
      vertex -65.4284 -2.50417 6
      vertex 69.8139 -6.99013 6
      vertex -65.1309 -2.22478 6
    endloop
  endfacet
  facet normal 0 0 1
    outer loop
      vertex -69.8139 -6.99013 6
      vertex -65.4284 -2.50417 6
      vertex -65.7586 -2.74407 6
    endloop
  endfacet
  facet normal 0 0 1
    outer loop
      vertex -69.8139 -6.99013 6
      vertex -65.7586 -2.74407 6
      vertex -66.1162 -2.94069 6
    endloop
  endfacet
  facet normal 0 0 1
    outer loop
      vertex -69.8139 -6.99013 6
      vertex -66.1162 -2.94069 6
      vertex -66.4957 -3.09093 6
    endloop
  endfacet
  facet normal 0 0 1
    outer loop
      vertex -69.8139 -6.99013 6
      vertex -66.4957 -3.09093 6
      vertex -66.891 -3.19243 6
    endloop
  endfacet
  facet normal 0 0 1
    outer loop
      vertex -69.8139 -6.99013 6
      vertex -66.891 -3.19243 6
      vertex -67.2959 -3.24359 6
    endloop
  endfacet
  facet normal 0 0 1
    outer loop
      vertex -69.8139 -6.99013 6
      vertex -67.2959 -3.24359 6
      vertex -67.7041 -3.24359 6
    endloop
  endfacet
  facet normal 0 0 1
    outer loop
      vertex -65.4284 -2.50417 6
      vertex -69.8139 -6.99013 6
      vertex 69.8139 -6.99013 6
    endloop
  endfacet
  facet normal 0 0 1
    outer loop
      vertex -68.109 -3.19243 6
      vertex -69.8139 -6.99013 6
      vertex -67.7041 -3.24359 6
    endloop
  endfacet
  facet normal 0 0 1
    outer loop
      vertex -68.5043 -3.09093 6
      vertex -69.8139 -6.99013 6
      vertex -68.109 -3.19243 6
    endloop
  endfacet
  facet normal 0 0 1
    outer loop
      vertex -68.8838 -2.94069 6
      vertex -69.8139 -6.99013 6
      vertex -68.5043 -3.09093 6
    endloop
  endfacet
  facet normal 0 0 1
    outer loop
      vertex -70.4369 -6.91144 6
      vertex -68.8838 -2.94069 6
      vertex -69.2414 -2.74407 6
    endloop
  endfacet
  facet normal 0 0 1
    outer loop
      vertex -71.6289 -6.52413 6
      vertex -69.2414 -2.74407 6
      vertex -69.5716 -2.50417 6
    endloop
  endfacet
  facet normal 0 0 1
    outer loop
      vertex -72.6871 -5.85257 6
      vertex -69.5716 -2.50417 6
      vertex -69.8691 -2.22478 6
    endloop
  endfacet
  facet normal 0 0 1
    outer loop
      vertex -73.5451 -4.93893 6
      vertex -69.8691 -2.22478 6
      vertex -70.1293 -1.9103 6
    endloop
  endfacet
  facet normal 0 0 1
    outer loop
      vertex -74.1489 -3.84062 6
      vertex -70.1293 -1.9103 6
      vertex -70.348 -1.5657 6
    endloop
  endfacet
  facet normal 0 0 1
    outer loop
      vertex -68.8838 -2.94069 6
      vertex -70.4369 -6.91144 6
      vertex -69.8139 -6.99013 6
    endloop
  endfacet
  facet normal 0 0 1
    outer loop
      vertex -74.4606 -2.62667 6
      vertex -70.348 -1.5657 6
      vertex -70.5218 -1.1964 6
    endloop
  endfacet
  facet normal 0 0 1
    outer loop
      vertex -74.5 -2 6
      vertex -70.5218 -1.1964 6
      vertex -70.6479 -0.808242 6
    endloop
  endfacet
  facet normal 0 0 1
    outer loop
      vertex -74.5 -2 6
      vertex -70.6479 -0.808242 6
      vertex -70.7244 -0.407332 6
    endloop
  endfacet
  facet normal 0 0 1
    outer loop
      vertex -74.5 -2 6
      vertex -70.7244 -0.407332 6
      vertex -70.75 0 6
    endloop
  endfacet
  facet normal 0 0 1
    outer loop
      vertex -69.2414 -2.74407 6
      vertex -71.0451 -6.75528 6
      vertex -70.4369 -6.91144 6
    endloop
  endfacet
  facet normal -0 0 1
    outer loop
      vertex -73.8815 4.40877 6
      vertex -70.1293 1.9103 6
      vertex -73.5451 4.93893 6
    endloop
  endfacet
  facet normal -0 0 1
    outer loop
      vertex -74.1489 3.84062 6
      vertex -70.1293 1.9103 6
      vertex -73.8815 4.40877 6
    endloop
  endfacet
  facet normal 0 0 1
    outer loop
      vertex -74.5 -2 6
      vertex -70.75 0 6
      vertex -74.5 2 6
    endloop
  endfacet
  facet normal 0 0 1
    outer loop
      vertex -70.1293 1.9103 6
      vertex -74.1489 3.84062 6
      vertex -70.348 1.5657 6
    endloop
  endfacet
  facet normal 0 0 1
    outer loop
      vertex -70.5218 -1.1964 6
      vertex -74.5 -2 6
      vertex -74.4606 -2.62667 6
    endloop
  endfacet
  facet normal -0 0 1
    outer loop
      vertex -74.3429 3.24345 6
      vertex -70.348 1.5657 6
      vertex -74.1489 3.84062 6
    endloop
  endfacet
  facet normal 0 0 1
    outer loop
      vertex -69.2414 -2.74407 6
      vertex -71.6289 -6.52413 6
      vertex -71.0451 -6.75528 6
    endloop
  endfacet
  facet normal -0 0 1
    outer loop
      vertex -74.4606 2.62667 6
      vertex -70.348 1.5657 6
      vertex -74.3429 3.24345 6
    endloop
  endfacet
  facet normal 0 0 1
    outer loop
      vertex -69.5716 -2.50417 6
      vertex -72.1791 -6.22164 6
      vertex -71.6289 -6.52413 6
    endloop
  endfacet
  facet normal 0 0 1
    outer loop
      vertex -70.348 1.5657 6
      vertex -74.4606 2.62667 6
      vertex -70.5218 1.1964 6
    endloop
  endfacet
  facet normal 0 0 1
    outer loop
      vertex -69.5716 -2.50417 6
      vertex -72.6871 -5.85257 6
      vertex -72.1791 -6.22164 6
    endloop
  endfacet
  facet normal -0 0 1
    outer loop
      vertex -74.5 2 6
      vertex -70.5218 1.1964 6
      vertex -74.4606 2.62667 6
    endloop
  endfacet
  facet normal 0 0 1
    outer loop
      vertex -69.8691 -2.22478 6
      vertex -73.1448 -5.42274 6
      vertex -72.6871 -5.85257 6
    endloop
  endfacet
  facet normal 0 0 1
    outer loop
      vertex -70.5218 1.1964 6
      vertex -74.5 2 6
      vertex -70.6479 0.808242 6
    endloop
  endfacet
  facet normal 0 0 1
    outer loop
      vertex -69.8691 -2.22478 6
      vertex -73.5451 -4.93893 6
      vertex -73.1448 -5.42274 6
    endloop
  endfacet
  facet normal 0 0 1
    outer loop
      vertex -70.6479 0.808242 6
      vertex -74.5 2 6
      vertex -70.7244 0.407332 6
    endloop
  endfacet
  facet normal 0 0 1
    outer loop
      vertex -70.1293 -1.9103 6
      vertex -73.8815 -4.40877 6
      vertex -73.5451 -4.93893 6
    endloop
  endfacet
  facet normal 0 0 1
    outer loop
      vertex -70.7244 0.407332 6
      vertex -74.5 2 6
      vertex -70.75 0 6
    endloop
  endfacet
  facet normal 0 0 1
    outer loop
      vertex -70.1293 -1.9103 6
      vertex -74.1489 -3.84062 6
      vertex -73.8815 -4.40877 6
    endloop
  endfacet
  facet normal 0 0 1
    outer loop
      vertex -70.348 -1.5657 6
      vertex -74.3429 -3.24345 6
      vertex -74.1489 -3.84062 6
    endloop
  endfacet
  facet normal 0 0 1
    outer loop
      vertex -70.348 -1.5657 6
      vertex -74.4606 -2.62667 6
      vertex -74.3429 -3.24345 6
    endloop
  endfacet
  facet normal 0.904797 -0.425843 0
    outer loop
      vertex 73.8815 -4.40877 6
      vertex 74.1489 -3.84062 0
      vertex 74.1489 -3.84062 6
    endloop
  endfacet
  facet normal 0.904797 -0.425843 0
    outer loop
      vertex 74.1489 -3.84062 0
      vertex 73.8815 -4.40877 6
      vertex 73.8815 -4.40877 0
    endloop
  endfacet
  facet normal 0.770468 0.637478 0
    outer loop
      vertex 73.5451 4.93893 6
      vertex 73.1448 5.42274 0
      vertex 73.1448 5.42274 6
    endloop
  endfacet
  facet normal 0.770468 0.637478 0
    outer loop
      vertex 73.1448 5.42274 0
      vertex 73.5451 4.93893 6
      vertex 73.5451 4.93893 0
    endloop
  endfacet
  facet normal 0.248691 0.968583 -0
    outer loop
      vertex 71.0451 6.75528 0
      vertex 70.4369 6.91144 6
      vertex 71.0451 6.75528 6
    endloop
  endfacet
  facet normal 0.248691 0.968583 0
    outer loop
      vertex 70.4369 6.91144 6
      vertex 71.0451 6.75528 0
      vertex 70.4369 6.91144 0
    endloop
  endfacet
  facet normal -0.368135 -0.929773 0
    outer loop
      vertex -71.6289 -6.52413 0
      vertex -71.0451 -6.75528 6
      vertex -71.6289 -6.52413 6
    endloop
  endfacet
  facet normal -0.368135 -0.929773 -0
    outer loop
      vertex -71.0451 -6.75528 6
      vertex -71.6289 -6.52413 0
      vertex -71.0451 -6.75528 0
    endloop
  endfacet
  facet normal -0.125313 -0.992117 0
    outer loop
      vertex -70.4369 -6.91144 0
      vertex -69.8139 -6.99013 6
      vertex -70.4369 -6.91144 6
    endloop
  endfacet
  facet normal -0.125313 -0.992117 -0
    outer loop
      vertex -69.8139 -6.99013 6
      vertex -70.4369 -6.91144 0
      vertex -69.8139 -6.99013 0
    endloop
  endfacet
  facet normal -0.481772 -0.876297 0
    outer loop
      vertex -72.1791 -6.22164 0
      vertex -71.6289 -6.52413 6
      vertex -72.1791 -6.22164 6
    endloop
  endfacet
  facet normal -0.481772 -0.876297 -0
    outer loop
      vertex -71.6289 -6.52413 6
      vertex -72.1791 -6.22164 0
      vertex -71.6289 -6.52413 0
    endloop
  endfacet
  facet normal -0.684565 -0.728952 0
    outer loop
      vertex -73.1448 -5.42274 0
      vertex -72.6871 -5.85257 6
      vertex -73.1448 -5.42274 6
    endloop
  endfacet
  facet normal -0.684565 -0.728952 -0
    outer loop
      vertex -72.6871 -5.85257 6
      vertex -73.1448 -5.42274 0
      vertex -72.6871 -5.85257 0
    endloop
  endfacet
  facet normal 1 -0 0
    outer loop
      vertex 74.5 -2 6
      vertex 74.5 2 0
      vertex 74.5 2 6
    endloop
  endfacet
  facet normal 1 0 0
    outer loop
      vertex 74.5 2 0
      vertex 74.5 -2 6
      vertex 74.5 -2 0
    endloop
  endfacet
  facet normal 0.982275 -0.187447 0
    outer loop
      vertex 74.3429 -3.24345 6
      vertex 74.4606 -2.62667 0
      vertex 74.4606 -2.62667 6
    endloop
  endfacet
  facet normal 0.982275 -0.187447 0
    outer loop
      vertex 74.4606 -2.62667 0
      vertex 74.3429 -3.24345 6
      vertex 74.3429 -3.24345 0
    endloop
  endfacet
  facet normal 0.684565 -0.728952 0
    outer loop
      vertex 72.6871 -5.85257 0
      vertex 73.1448 -5.42274 6
      vertex 72.6871 -5.85257 6
    endloop
  endfacet
  facet normal 0.684565 -0.728952 0
    outer loop
      vertex 73.1448 -5.42274 6
      vertex 72.6871 -5.85257 0
      vertex 73.1448 -5.42274 0
    endloop
  endfacet
  facet normal 0.844364 -0.53577 0
    outer loop
      vertex 73.5451 -4.93893 6
      vertex 73.8815 -4.40877 0
      vertex 73.8815 -4.40877 6
    endloop
  endfacet
  facet normal 0.844364 -0.53577 0
    outer loop
      vertex 73.8815 -4.40877 0
      vertex 73.5451 -4.93893 6
      vertex 73.5451 -4.93893 0
    endloop
  endfacet
  facet normal 0.481772 -0.876297 0
    outer loop
      vertex 71.6289 -6.52413 0
      vertex 72.1791 -6.22164 6
      vertex 71.6289 -6.52413 6
    endloop
  endfacet
  facet normal 0.481772 -0.876297 0
    outer loop
      vertex 72.1791 -6.22164 6
      vertex 71.6289 -6.52413 0
      vertex 72.1791 -6.22164 0
    endloop
  endfacet
  facet normal 0.951072 0.30897 0
    outer loop
      vertex 74.3429 3.24345 6
      vertex 74.1489 3.84062 0
      vertex 74.1489 3.84062 6
    endloop
  endfacet
  facet normal 0.951072 0.30897 0
    outer loop
      vertex 74.1489 3.84062 0
      vertex 74.3429 3.24345 6
      vertex 74.3429 3.24345 0
    endloop
  endfacet
  facet normal 0.684565 0.728952 -0
    outer loop
      vertex 73.1448 5.42274 0
      vertex 72.6871 5.85257 6
      vertex 73.1448 5.42274 6
    endloop
  endfacet
  facet normal 0.684565 0.728952 0
    outer loop
      vertex 72.6871 5.85257 6
      vertex 73.1448 5.42274 0
      vertex 72.6871 5.85257 0
    endloop
  endfacet
  facet normal 0.368135 0.929773 -0
    outer loop
      vertex 71.6289 6.52413 0
      vertex 71.0451 6.75528 6
      vertex 71.6289 6.52413 6
    endloop
  endfacet
  facet normal 0.368135 0.929773 0
    outer loop
      vertex 71.0451 6.75528 6
      vertex 71.6289 6.52413 0
      vertex 71.0451 6.75528 0
    endloop
  endfacet
  facet normal 0.125313 0.992117 -0
    outer loop
      vertex 70.4369 6.91144 0
      vertex 69.8139 6.99013 6
      vertex 70.4369 6.91144 6
    endloop
  endfacet
  facet normal 0.125313 0.992117 0
    outer loop
      vertex 69.8139 6.99013 6
      vertex 70.4369 6.91144 0
      vertex 69.8139 6.99013 0
    endloop
  endfacet
  facet normal -0.125313 0.992117 0
    outer loop
      vertex -69.8139 6.99013 0
      vertex -70.4369 6.91144 6
      vertex -69.8139 6.99013 6
    endloop
  endfacet
  facet normal -0.125313 0.992117 0
    outer loop
      vertex -70.4369 6.91144 6
      vertex -69.8139 6.99013 0
      vertex -70.4369 6.91144 0
    endloop
  endfacet
  facet normal -0.951072 0.30897 0
    outer loop
      vertex -74.3429 3.24345 0
      vertex -74.1489 3.84062 6
      vertex -74.1489 3.84062 0
    endloop
  endfacet
  facet normal -0.951072 0.30897 0
    outer loop
      vertex -74.1489 3.84062 6
      vertex -74.3429 3.24345 0
      vertex -74.3429 3.24345 6
    endloop
  endfacet
  facet normal 0 0 -1
    outer loop
      vertex 70.5218 -1.1964 0
      vertex 74.5 -2 0
      vertex 74.4606 -2.62667 0
    endloop
  endfacet
  facet normal 0 0 -1
    outer loop
      vertex 74.5 -2 0
      vertex 70.75 0 0
      vertex 74.5 2 0
    endloop
  endfacet
  facet normal 0 0 -1
    outer loop
      vertex 70.348 -1.5657 0
      vertex 74.4606 -2.62667 0
      vertex 74.3429 -3.24345 0
    endloop
  endfacet
  facet normal 0 0 -1
    outer loop
      vertex 70.7244 0.407332 0
      vertex 74.5 2 0
      vertex 70.75 0 0
    endloop
  endfacet
  facet normal 0 0 -1
    outer loop
      vertex 70.348 -1.5657 0
      vertex 74.3429 -3.24345 0
      vertex 74.1489 -3.84062 0
    endloop
  endfacet
  facet normal 0 0 -1
    outer loop
      vertex 70.6479 0.808242 0
      vertex 74.5 2 0
      vertex 70.7244 0.407332 0
    endloop
  endfacet
  facet normal 0 0 -1
    outer loop
      vertex 70.1293 -1.9103 0
      vertex 74.1489 -3.84062 0
      vertex 73.8815 -4.40877 0
    endloop
  endfacet
  facet normal 0 0 -1
    outer loop
      vertex 70.5218 1.1964 0
      vertex 74.5 2 0
      vertex 70.6479 0.808242 0
    endloop
  endfacet
  facet normal 0 0 -1
    outer loop
      vertex 70.1293 -1.9103 0
      vertex 73.8815 -4.40877 0
      vertex 73.5451 -4.93893 0
    endloop
  endfacet
  facet normal -0 0 -1
    outer loop
      vertex 74.5 2 0
      vertex 70.5218 1.1964 0
      vertex 74.4606 2.62667 0
    endloop
  endfacet
  facet normal 0 0 -1
    outer loop
      vertex 69.8691 -2.22478 0
      vertex 73.5451 -4.93893 0
      vertex 73.1448 -5.42274 0
    endloop
  endfacet
  facet normal 0 0 -1
    outer loop
      vertex 70.348 1.5657 0
      vertex 74.4606 2.62667 0
      vertex 70.5218 1.1964 0
    endloop
  endfacet
  facet normal 0 0 -1
    outer loop
      vertex 69.8691 -2.22478 0
      vertex 73.1448 -5.42274 0
      vertex 72.6871 -5.85257 0
    endloop
  endfacet
  facet normal -0 0 -1
    outer loop
      vertex 74.4606 2.62667 0
      vertex 70.348 1.5657 0
      vertex 74.3429 3.24345 0
    endloop
  endfacet
  facet normal 0 0 -1
    outer loop
      vertex 69.5716 -2.50417 0
      vertex 72.6871 -5.85257 0
      vertex 72.1791 -6.22164 0
    endloop
  endfacet
  facet normal -0 0 -1
    outer loop
      vertex 74.3429 3.24345 0
      vertex 70.348 1.5657 0
      vertex 74.1489 3.84062 0
    endloop
  endfacet
  facet normal 0 0 -1
    outer loop
      vertex 69.5716 -2.50417 0
      vertex 72.1791 -6.22164 0
      vertex 71.6289 -6.52413 0
    endloop
  endfacet
  facet normal 0 0 -1
    outer loop
      vertex 70.1293 1.9103 0
      vertex 74.1489 3.84062 0
      vertex 70.348 1.5657 0
    endloop
  endfacet
  facet normal 0 0 -1
    outer loop
      vertex 69.2414 -2.74407 0
      vertex 71.6289 -6.52413 0
      vertex 71.0451 -6.75528 0
    endloop
  endfacet
  facet normal -0 0 -1
    outer loop
      vertex 74.1489 3.84062 0
      vertex 70.1293 1.9103 0
      vertex 73.8815 4.40877 0
    endloop
  endfacet
  facet normal -0 0 -1
    outer loop
      vertex 73.8815 4.40877 0
      vertex 70.1293 1.9103 0
      vertex 73.5451 4.93893 0
    endloop
  endfacet
  facet normal 0 0 -1
    outer loop
      vertex 74.5 -2 0
      vertex 70.7244 -0.407332 0
      vertex 70.75 0 0
    endloop
  endfacet
  facet normal 0 0 -1
    outer loop
      vertex 74.5 -2 0
      vertex 70.6479 -0.808242 0
      vertex 70.7244 -0.407332 0
    endloop
  endfacet
  facet normal 0 0 -1
    outer loop
      vertex 74.5 -2 0
      vertex 70.5218 -1.1964 0
      vertex 70.6479 -0.808242 0
    endloop
  endfacet
  facet normal 0 0 -1
    outer loop
      vertex 69.2414 -2.74407 0
      vertex 71.0451 -6.75528 0
      vertex 70.4369 -6.91144 0
    endloop
  endfacet
  facet normal 0 0 -1
    outer loop
      vertex 74.4606 -2.62667 0
      vertex 70.348 -1.5657 0
      vertex 70.5218 -1.1964 0
    endloop
  endfacet
  facet normal 0 0 -1
    outer loop
      vertex 74.1489 -3.84062 0
      vertex 70.1293 -1.9103 0
      vertex 70.348 -1.5657 0
    endloop
  endfacet
  facet normal 0 0 -1
    outer loop
      vertex 73.5451 -4.93893 0
      vertex 69.8691 -2.22478 0
      vertex 70.1293 -1.9103 0
    endloop
  endfacet
  facet normal 0 0 -1
    outer loop
      vertex 68.8838 -2.94069 0
      vertex 70.4369 -6.91144 0
      vertex 69.8139 -6.99013 0
    endloop
  endfacet
  facet normal 0 0 -1
    outer loop
      vertex 72.6871 -5.85257 0
      vertex 69.5716 -2.50417 0
      vertex 69.8691 -2.22478 0
    endloop
  endfacet
  facet normal 0 0 -1
    outer loop
      vertex 71.6289 -6.52413 0
      vertex 69.2414 -2.74407 0
      vertex 69.5716 -2.50417 0
    endloop
  endfacet
  facet normal 0 0 -1
    outer loop
      vertex 70.4369 -6.91144 0
      vertex 68.8838 -2.94069 0
      vertex 69.2414 -2.74407 0
    endloop
  endfacet
  facet normal 0 0 -1
    outer loop
      vertex 69.8139 -6.99013 0
      vertex 68.5043 -3.09093 0
      vertex 68.8838 -2.94069 0
    endloop
  endfacet
  facet normal 0 0 -1
    outer loop
      vertex 69.8139 -6.99013 0
      vertex 68.109 -3.19243 0
      vertex 68.5043 -3.09093 0
    endloop
  endfacet
  facet normal 0 0 -1
    outer loop
      vertex 69.8139 -6.99013 0
      vertex 67.7041 -3.24359 0
      vertex 68.109 -3.19243 0
    endloop
  endfacet
  facet normal 0 0 -1
    outer loop
      vertex 69.8139 -6.99013 0
      vertex 67.2959 -3.24359 0
      vertex 67.7041 -3.24359 0
    endloop
  endfacet
  facet normal 0 0 -1
    outer loop
      vertex 69.8139 -6.99013 0
      vertex 66.891 -3.19243 0
      vertex 67.2959 -3.24359 0
    endloop
  endfacet
  facet normal 0 0 -1
    outer loop
      vertex 69.8139 -6.99013 0
      vertex 66.4957 -3.09093 0
      vertex 66.891 -3.19243 0
    endloop
  endfacet
  facet normal 0 0 -1
    outer loop
      vertex 69.8139 -6.99013 0
      vertex 66.1162 -2.94069 0
      vertex 66.4957 -3.09093 0
    endloop
  endfacet
  facet normal 0 0 -1
    outer loop
      vertex 69.8139 -6.99013 0
      vertex 65.7586 -2.74407 0
      vertex 66.1162 -2.94069 0
    endloop
  endfacet
  facet normal 0 0 -1
    outer loop
      vertex 69.8139 -6.99013 0
      vertex 65.4284 -2.50417 0
      vertex 65.7586 -2.74407 0
    endloop
  endfacet
  facet normal 0 0 -1
    outer loop
      vertex 69.8139 -6.99013 0
      vertex 65.1309 -2.22478 0
      vertex 65.4284 -2.50417 0
    endloop
  endfacet
  facet normal 0 0 -1
    outer loop
      vertex 64.2756 -0.407332 0
      vertex -64.25 0 0
      vertex 64.25 0 0
    endloop
  endfacet
  facet normal 0 0 -1
    outer loop
      vertex -64.2756 -0.407332 0
      vertex 64.2756 -0.407332 0
      vertex 64.3521 -0.808242 0
    endloop
  endfacet
  facet normal 0 0 -1
    outer loop
      vertex -64.3521 -0.808242 0
      vertex 64.3521 -0.808242 0
      vertex 64.4782 -1.1964 0
    endloop
  endfacet
  facet normal 0 0 -1
    outer loop
      vertex -64.4782 -1.1964 0
      vertex 64.4782 -1.1964 0
      vertex 64.652 -1.5657 0
    endloop
  endfacet
  facet normal 0 0 -1
    outer loop
      vertex -64.652 -1.5657 0
      vertex 64.652 -1.5657 0
      vertex 64.8707 -1.9103 0
    endloop
  endfacet
  facet normal 0 0 -1
    outer loop
      vertex -64.8707 -1.9103 0
      vertex 64.8707 -1.9103 0
      vertex 65.1309 -2.22478 0
    endloop
  endfacet
  facet normal 0 0 -1
    outer loop
      vertex -65.1309 -2.22478 0
      vertex 65.1309 -2.22478 0
      vertex 69.8139 -6.99013 0
    endloop
  endfacet
  facet normal 0 0 -1
    outer loop
      vertex 64.2756 -0.407332 0
      vertex -64.2756 -0.407332 0
      vertex -64.25 0 0
    endloop
  endfacet
  facet normal 0 0 -1
    outer loop
      vertex 64.3521 -0.808242 0
      vertex -64.3521 -0.808242 0
      vertex -64.2756 -0.407332 0
    endloop
  endfacet
  facet normal 0 0 -1
    outer loop
      vertex 64.4782 -1.1964 0
      vertex -64.4782 -1.1964 0
      vertex -64.3521 -0.808242 0
    endloop
  endfacet
  facet normal 0 0 -1
    outer loop
      vertex 64.652 -1.5657 0
      vertex -64.652 -1.5657 0
      vertex -64.4782 -1.1964 0
    endloop
  endfacet
  facet normal 0 0 -1
    outer loop
      vertex 64.8707 -1.9103 0
      vertex -64.8707 -1.9103 0
      vertex -64.652 -1.5657 0
    endloop
  endfacet
  facet normal 0 0 -1
    outer loop
      vertex 65.1309 -2.22478 0
      vertex -65.1309 -2.22478 0
      vertex -64.8707 -1.9103 0
    endloop
  endfacet
  facet normal 0 0 -1
    outer loop
      vertex 69.8139 -6.99013 0
      vertex -65.4284 -2.50417 0
      vertex -65.1309 -2.22478 0
    endloop
  endfacet
  facet normal 0 0 -1
    outer loop
      vertex -69.8139 -6.99013 0
      vertex -65.4284 -2.50417 0
      vertex 69.8139 -6.99013 0
    endloop
  endfacet
  facet normal 0 0 -1
    outer loop
      vertex -65.4284 -2.50417 0
      vertex -69.8139 -6.99013 0
      vertex -65.7586 -2.74407 0
    endloop
  endfacet
  facet normal 0 0 -1
    outer loop
      vertex -65.7586 -2.74407 0
      vertex -69.8139 -6.99013 0
      vertex -66.1162 -2.94069 0
    endloop
  endfacet
  facet normal 0 0 -1
    outer loop
      vertex -66.1162 -2.94069 0
      vertex -69.8139 -6.99013 0
      vertex -66.4957 -3.09093 0
    endloop
  endfacet
  facet normal 0 0 -1
    outer loop
      vertex -66.4957 -3.09093 0
      vertex -69.8139 -6.99013 0
      vertex -66.891 -3.19243 0
    endloop
  endfacet
  facet normal 0 0 -1
    outer loop
      vertex -66.891 -3.19243 0
      vertex -69.8139 -6.99013 0
      vertex -67.2959 -3.24359 0
    endloop
  endfacet
  facet normal -0 0 -1
    outer loop
      vertex -67.2959 -3.24359 0
      vertex -69.8139 -6.99013 0
      vertex -67.7041 -3.24359 0
    endloop
  endfacet
  facet normal 0 0 -1
    outer loop
      vertex -69.8139 -6.99013 0
      vertex -68.109 -3.19243 0
      vertex -67.7041 -3.24359 0
    endloop
  endfacet
  facet normal 0 0 -1
    outer loop
      vertex -69.8139 -6.99013 0
      vertex -68.5043 -3.09093 0
      vertex -68.109 -3.19243 0
    endloop
  endfacet
  facet normal 0 0 -1
    outer loop
      vertex -69.8139 -6.99013 0
      vertex -68.8838 -2.94069 0
      vertex -68.5043 -3.09093 0
    endloop
  endfacet
  facet normal 0 0 -1
    outer loop
      vertex -70.4369 -6.91144 0
      vertex -68.8838 -2.94069 0
      vertex -69.8139 -6.99013 0
    endloop
  endfacet
  facet normal -0 0 -1
    outer loop
      vertex -68.8838 -2.94069 0
      vertex -70.4369 -6.91144 0
      vertex -69.2414 -2.74407 0
    endloop
  endfacet
  facet normal 0 0 -1
    outer loop
      vertex -71.0451 -6.75528 0
      vertex -69.2414 -2.74407 0
      vertex -70.4369 -6.91144 0
    endloop
  endfacet
  facet normal 0 0 -1
    outer loop
      vertex -71.6289 -6.52413 0
      vertex -69.2414 -2.74407 0
      vertex -71.0451 -6.75528 0
    endloop
  endfacet
  facet normal -0 0 -1
    outer loop
      vertex -69.2414 -2.74407 0
      vertex -71.6289 -6.52413 0
      vertex -69.5716 -2.50417 0
    endloop
  endfacet
  facet normal 0 0 -1
    outer loop
      vertex -72.1791 -6.22164 0
      vertex -69.5716 -2.50417 0
      vertex -71.6289 -6.52413 0
    endloop
  endfacet
  facet normal 0 0 -1
    outer loop
      vertex -72.6871 -5.85257 0
      vertex -69.5716 -2.50417 0
      vertex -72.1791 -6.22164 0
    endloop
  endfacet
  facet normal -0 0 -1
    outer loop
      vertex -69.5716 -2.50417 0
      vertex -72.6871 -5.85257 0
      vertex -69.8691 -2.22478 0
    endloop
  endfacet
  facet normal 0 0 -1
    outer loop
      vertex -73.1448 -5.42274 0
      vertex -69.8691 -2.22478 0
      vertex -72.6871 -5.85257 0
    endloop
  endfacet
  facet normal 0 0 -1
    outer loop
      vertex -73.5451 -4.93893 0
      vertex -69.8691 -2.22478 0
      vertex -73.1448 -5.42274 0
    endloop
  endfacet
  facet normal -0 0 -1
    outer loop
      vertex -69.8691 -2.22478 0
      vertex -73.5451 -4.93893 0
      vertex -70.1293 -1.9103 0
    endloop
  endfacet
  facet normal 0 0 -1
    outer loop
      vertex 69.8691 2.22478 0
      vertex 73.5451 4.93893 0
      vertex 70.1293 1.9103 0
    endloop
  endfacet
  facet normal -0 0 -1
    outer loop
      vertex 73.5451 4.93893 0
      vertex 69.8691 2.22478 0
      vertex 73.1448 5.42274 0
    endloop
  endfacet
  facet normal -0 0 -1
    outer loop
      vertex 73.1448 5.42274 0
      vertex 69.8691 2.22478 0
      vertex 72.6871 5.85257 0
    endloop
  endfacet
  facet normal 0 0 -1
    outer loop
      vertex 69.5716 2.50417 0
      vertex 72.6871 5.85257 0
      vertex 69.8691 2.22478 0
    endloop
  endfacet
  facet normal -0 0 -1
    outer loop
      vertex 72.6871 5.85257 0
      vertex 69.5716 2.50417 0
      vertex 72.1791 6.22164 0
    endloop
  endfacet
  facet normal -0 0 -1
    outer loop
      vertex 72.1791 6.22164 0
      vertex 69.5716 2.50417 0
      vertex 71.6289 6.52413 0
    endloop
  endfacet
  facet normal 0 0 -1
    outer loop
      vertex 69.2414 2.74407 0
      vertex 71.6289 6.52413 0
      vertex 69.5716 2.50417 0
    endloop
  endfacet
  facet normal -0 0 -1
    outer loop
      vertex 71.6289 6.52413 0
      vertex 69.2414 2.74407 0
      vertex 71.0451 6.75528 0
    endloop
  endfacet
  facet normal -0 0 -1
    outer loop
      vertex 71.0451 6.75528 0
      vertex 69.2414 2.74407 0
      vertex 70.4369 6.91144 0
    endloop
  endfacet
  facet normal 0 0 -1
    outer loop
      vertex 68.8838 2.94069 0
      vertex 70.4369 6.91144 0
      vertex 69.2414 2.74407 0
    endloop
  endfacet
  facet normal -0 0 -1
    outer loop
      vertex 70.4369 6.91144 0
      vertex 68.8838 2.94069 0
      vertex 69.8139 6.99013 0
    endloop
  endfacet
  facet normal 0 0 -1
    outer loop
      vertex 68.5043 3.09093 0
      vertex 69.8139 6.99013 0
      vertex 68.8838 2.94069 0
    endloop
  endfacet
  facet normal 0 0 -1
    outer loop
      vertex 68.109 3.19243 0
      vertex 69.8139 6.99013 0
      vertex 68.5043 3.09093 0
    endloop
  endfacet
  facet normal 0 0 -1
    outer loop
      vertex 67.7041 3.24359 0
      vertex 69.8139 6.99013 0
      vertex 68.109 3.19243 0
    endloop
  endfacet
  facet normal 0 0 -1
    outer loop
      vertex 67.2959 3.24359 0
      vertex 69.8139 6.99013 0
      vertex 67.7041 3.24359 0
    endloop
  endfacet
  facet normal 0 0 -1
    outer loop
      vertex 66.891 3.19243 0
      vertex 69.8139 6.99013 0
      vertex 67.2959 3.24359 0
    endloop
  endfacet
  facet normal 0 0 -1
    outer loop
      vertex 66.4957 3.09093 0
      vertex 69.8139 6.99013 0
      vertex 66.891 3.19243 0
    endloop
  endfacet
  facet normal 0 0 -1
    outer loop
      vertex 66.1162 2.94069 0
      vertex 69.8139 6.99013 0
      vertex 66.4957 3.09093 0
    endloop
  endfacet
  facet normal 0 0 -1
    outer loop
      vertex 65.7586 2.74407 0
      vertex 69.8139 6.99013 0
      vertex 66.1162 2.94069 0
    endloop
  endfacet
  facet normal 0 0 -1
    outer loop
      vertex 65.4284 2.50417 0
      vertex 69.8139 6.99013 0
      vertex 65.7586 2.74407 0
    endloop
  endfacet
  facet normal 0 0 -1
    outer loop
      vertex 65.1309 2.22478 0
      vertex 69.8139 6.99013 0
      vertex 65.4284 2.50417 0
    endloop
  endfacet
  facet normal 0 0 -1
    outer loop
      vertex -64.25 0 0
      vertex 64.2756 0.407332 0
      vertex 64.25 0 0
    endloop
  endfacet
  facet normal 0 0 -1
    outer loop
      vertex -64.2756 0.407332 0
      vertex 64.2756 0.407332 0
      vertex -64.25 0 0
    endloop
  endfacet
  facet normal 0 0 -1
    outer loop
      vertex 64.2756 0.407332 0
      vertex -64.2756 0.407332 0
      vertex 64.3521 0.808242 0
    endloop
  endfacet
  facet normal 0 0 -1
    outer loop
      vertex -64.3521 0.808242 0
      vertex 64.3521 0.808242 0
      vertex -64.2756 0.407332 0
    endloop
  endfacet
  facet normal 0 0 -1
    outer loop
      vertex 64.3521 0.808242 0
      vertex -64.3521 0.808242 0
      vertex 64.4782 1.1964 0
    endloop
  endfacet
  facet normal 0 0 -1
    outer loop
      vertex -64.4782 1.1964 0
      vertex 64.4782 1.1964 0
      vertex -64.3521 0.808242 0
    endloop
  endfacet
  facet normal 0 0 -1
    outer loop
      vertex 64.4782 1.1964 0
      vertex -64.4782 1.1964 0
      vertex 64.652 1.5657 0
    endloop
  endfacet
  facet normal 0 0 -1
    outer loop
      vertex -64.652 1.5657 0
      vertex 64.652 1.5657 0
      vertex -64.4782 1.1964 0
    endloop
  endfacet
  facet normal 0 0 -1
    outer loop
      vertex 64.652 1.5657 0
      vertex -64.652 1.5657 0
      vertex 64.8707 1.9103 0
    endloop
  endfacet
  facet normal 0 0 -1
    outer loop
      vertex -64.8707 1.9103 0
      vertex 64.8707 1.9103 0
      vertex -64.652 1.5657 0
    endloop
  endfacet
  facet normal 0 0 -1
    outer loop
      vertex 64.8707 1.9103 0
      vertex -64.8707 1.9103 0
      vertex 65.1309 2.22478 0
    endloop
  endfacet
  facet normal 0 0 -1
    outer loop
      vertex -65.1309 2.22478 0
      vertex 65.1309 2.22478 0
      vertex -64.8707 1.9103 0
    endloop
  endfacet
  facet normal 0 0 -1
    outer loop
      vertex 65.1309 2.22478 0
      vertex -65.1309 2.22478 0
      vertex 69.8139 6.99013 0
    endloop
  endfacet
  facet normal 0 0 -1
    outer loop
      vertex -65.4284 2.50417 0
      vertex 69.8139 6.99013 0
      vertex -65.1309 2.22478 0
    endloop
  endfacet
  facet normal 0 0 -1
    outer loop
      vertex -69.8139 6.99013 0
      vertex -65.4284 2.50417 0
      vertex -65.7586 2.74407 0
    endloop
  endfacet
  facet normal 0 0 -1
    outer loop
      vertex -69.8139 6.99013 0
      vertex -65.7586 2.74407 0
      vertex -66.1162 2.94069 0
    endloop
  endfacet
  facet normal 0 0 -1
    outer loop
      vertex -69.8139 6.99013 0
      vertex -66.1162 2.94069 0
      vertex -66.4957 3.09093 0
    endloop
  endfacet
  facet normal 0 0 -1
    outer loop
      vertex -69.8139 6.99013 0
      vertex -66.4957 3.09093 0
      vertex -66.891 3.19243 0
    endloop
  endfacet
  facet normal 0 0 -1
    outer loop
      vertex -69.8139 6.99013 0
      vertex -66.891 3.19243 0
      vertex -67.2959 3.24359 0
    endloop
  endfacet
  facet normal 0 0 -1
    outer loop
      vertex -69.8139 6.99013 0
      vertex -67.2959 3.24359 0
      vertex -67.7041 3.24359 0
    endloop
  endfacet
  facet normal 0 0 -1
    outer loop
      vertex -65.4284 2.50417 0
      vertex -69.8139 6.99013 0
      vertex 69.8139 6.99013 0
    endloop
  endfacet
  facet normal 0 0 -1
    outer loop
      vertex -68.109 3.19243 0
      vertex -69.8139 6.99013 0
      vertex -67.7041 3.24359 0
    endloop
  endfacet
  facet normal 0 0 -1
    outer loop
      vertex -68.5043 3.09093 0
      vertex -69.8139 6.99013 0
      vertex -68.109 3.19243 0
    endloop
  endfacet
  facet normal 0 0 -1
    outer loop
      vertex -68.8838 2.94069 0
      vertex -69.8139 6.99013 0
      vertex -68.5043 3.09093 0
    endloop
  endfacet
  facet normal 0 0 -1
    outer loop
      vertex -70.4369 6.91144 0
      vertex -68.8838 2.94069 0
      vertex -69.2414 2.74407 0
    endloop
  endfacet
  facet normal 0 0 -1
    outer loop
      vertex -71.6289 6.52413 0
      vertex -69.2414 2.74407 0
      vertex -69.5716 2.50417 0
    endloop
  endfacet
  facet normal 0 0 -1
    outer loop
      vertex -72.6871 5.85257 0
      vertex -69.5716 2.50417 0
      vertex -69.8691 2.22478 0
    endloop
  endfacet
  facet normal 0 0 -1
    outer loop
      vertex -73.5451 4.93893 0
      vertex -69.8691 2.22478 0
      vertex -70.1293 1.9103 0
    endloop
  endfacet
  facet normal 0 0 -1
    outer loop
      vertex -74.1489 3.84062 0
      vertex -70.1293 1.9103 0
      vertex -70.348 1.5657 0
    endloop
  endfacet
  facet normal 0 0 -1
    outer loop
      vertex -68.8838 2.94069 0
      vertex -70.4369 6.91144 0
      vertex -69.8139 6.99013 0
    endloop
  endfacet
  facet normal 0 0 -1
    outer loop
      vertex -74.4606 2.62667 0
      vertex -70.348 1.5657 0
      vertex -70.5218 1.1964 0
    endloop
  endfacet
  facet normal 0 0 -1
    outer loop
      vertex -74.5 2 0
      vertex -70.5218 1.1964 0
      vertex -70.6479 0.808242 0
    endloop
  endfacet
  facet normal 0 0 -1
    outer loop
      vertex -74.5 2 0
      vertex -70.6479 0.808242 0
      vertex -70.7244 0.407332 0
    endloop
  endfacet
  facet normal 0 0 -1
    outer loop
      vertex -74.5 2 0
      vertex -70.7244 0.407332 0
      vertex -70.75 0 0
    endloop
  endfacet
  facet normal 0 0 -1
    outer loop
      vertex -69.2414 2.74407 0
      vertex -71.0451 6.75528 0
      vertex -70.4369 6.91144 0
    endloop
  endfacet
  facet normal 0 0 -1
    outer loop
      vertex -73.8815 -4.40877 0
      vertex -70.1293 -1.9103 0
      vertex -73.5451 -4.93893 0
    endloop
  endfacet
  facet normal 0 0 -1
    outer loop
      vertex -74.1489 -3.84062 0
      vertex -70.1293 -1.9103 0
      vertex -73.8815 -4.40877 0
    endloop
  endfacet
  facet normal 0 0 -1
    outer loop
      vertex -74.5 2 0
      vertex -70.75 0 0
      vertex -74.5 -2 0
    endloop
  endfacet
  facet normal -0 0 -1
    outer loop
      vertex -70.1293 -1.9103 0
      vertex -74.1489 -3.84062 0
      vertex -70.348 -1.5657 0
    endloop
  endfacet
  facet normal 0 0 -1
    outer loop
      vertex -70.5218 1.1964 0
      vertex -74.5 2 0
      vertex -74.4606 2.62667 0
    endloop
  endfacet
  facet normal 0 0 -1
    outer loop
      vertex -74.3429 -3.24345 0
      vertex -70.348 -1.5657 0
      vertex -74.1489 -3.84062 0
    endloop
  endfacet
  facet normal 0 0 -1
    outer loop
      vertex -69.2414 2.74407 0
      vertex -71.6289 6.52413 0
      vertex -71.0451 6.75528 0
    endloop
  endfacet
  facet normal 0 0 -1
    outer loop
      vertex -74.4606 -2.62667 0
      vertex -70.348 -1.5657 0
      vertex -74.3429 -3.24345 0
    endloop
  endfacet
  facet normal 0 0 -1
    outer loop
      vertex -69.5716 2.50417 0
      vertex -72.1791 6.22164 0
      vertex -71.6289 6.52413 0
    endloop
  endfacet
  facet normal -0 0 -1
    outer loop
      vertex -70.348 -1.5657 0
      vertex -74.4606 -2.62667 0
      vertex -70.5218 -1.1964 0
    endloop
  endfacet
  facet normal 0 0 -1
    outer loop
      vertex -69.5716 2.50417 0
      vertex -72.6871 5.85257 0
      vertex -72.1791 6.22164 0
    endloop
  endfacet
  facet normal 0 0 -1
    outer loop
      vertex -74.5 -2 0
      vertex -70.5218 -1.1964 0
      vertex -74.4606 -2.62667 0
    endloop
  endfacet
  facet normal 0 0 -1
    outer loop
      vertex -69.8691 2.22478 0
      vertex -73.1448 5.42274 0
      vertex -72.6871 5.85257 0
    endloop
  endfacet
  facet normal -0 0 -1
    outer loop
      vertex -70.5218 -1.1964 0
      vertex -74.5 -2 0
      vertex -70.6479 -0.808242 0
    endloop
  endfacet
  facet normal 0 0 -1
    outer loop
      vertex -69.8691 2.22478 0
      vertex -73.5451 4.93893 0
      vertex -73.1448 5.42274 0
    endloop
  endfacet
  facet normal -0 0 -1
    outer loop
      vertex -70.6479 -0.808242 0
      vertex -74.5 -2 0
      vertex -70.7244 -0.407332 0
    endloop
  endfacet
  facet normal 0 0 -1
    outer loop
      vertex -70.1293 1.9103 0
      vertex -73.8815 4.40877 0
      vertex -73.5451 4.93893 0
    endloop
  endfacet
  facet normal -0 0 -1
    outer loop
      vertex -70.7244 -0.407332 0
      vertex -74.5 -2 0
      vertex -70.75 0 0
    endloop
  endfacet
  facet normal 0 0 -1
    outer loop
      vertex -70.1293 1.9103 0
      vertex -74.1489 3.84062 0
      vertex -73.8815 4.40877 0
    endloop
  endfacet
  facet normal 0 0 -1
    outer loop
      vertex -70.348 1.5657 0
      vertex -74.3429 3.24345 0
      vertex -74.1489 3.84062 0
    endloop
  endfacet
  facet normal 0 0 -1
    outer loop
      vertex -70.348 1.5657 0
      vertex -74.4606 2.62667 0
      vertex -74.3429 3.24345 0
    endloop
  endfacet
  facet normal -0.951072 -0.30897 0
    outer loop
      vertex -74.1489 -3.84062 0
      vertex -74.3429 -3.24345 6
      vertex -74.3429 -3.24345 0
    endloop
  endfacet
  facet normal -0.951072 -0.30897 0
    outer loop
      vertex -74.3429 -3.24345 6
      vertex -74.1489 -3.84062 0
      vertex -74.1489 -3.84062 6
    endloop
  endfacet
  facet normal -0.982275 -0.187447 0
    outer loop
      vertex -74.3429 -3.24345 0
      vertex -74.4606 -2.62667 6
      vertex -74.4606 -2.62667 0
    endloop
  endfacet
  facet normal -0.982275 -0.187447 0
    outer loop
      vertex -74.4606 -2.62667 6
      vertex -74.3429 -3.24345 0
      vertex -74.3429 -3.24345 6
    endloop
  endfacet
  facet normal -0.904797 -0.425843 0
    outer loop
      vertex -73.8815 -4.40877 0
      vertex -74.1489 -3.84062 6
      vertex -74.1489 -3.84062 0
    endloop
  endfacet
  facet normal -0.904797 -0.425843 0
    outer loop
      vertex -74.1489 -3.84062 6
      vertex -73.8815 -4.40877 0
      vertex -73.8815 -4.40877 6
    endloop
  endfacet
  facet normal -0.770468 -0.637478 0
    outer loop
      vertex -73.1448 -5.42274 0
      vertex -73.5451 -4.93893 6
      vertex -73.5451 -4.93893 0
    endloop
  endfacet
  facet normal -0.770468 -0.637478 0
    outer loop
      vertex -73.5451 -4.93893 6
      vertex -73.1448 -5.42274 0
      vertex -73.1448 -5.42274 6
    endloop
  endfacet
  facet normal -0.248691 -0.968583 0
    outer loop
      vertex -71.0451 -6.75528 0
      vertex -70.4369 -6.91144 6
      vertex -71.0451 -6.75528 6
    endloop
  endfacet
  facet normal -0.248691 -0.968583 -0
    outer loop
      vertex -70.4369 -6.91144 6
      vertex -71.0451 -6.75528 0
      vertex -70.4369 -6.91144 0
    endloop
  endfacet
  facet normal -0.587771 -0.809027 0
    outer loop
      vertex -72.6871 -5.85257 0
      vertex -72.1791 -6.22164 6
      vertex -72.6871 -5.85257 6
    endloop
  endfacet
  facet normal -0.587771 -0.809027 -0
    outer loop
      vertex -72.1791 -6.22164 6
      vertex -72.6871 -5.85257 0
      vertex -72.1791 -6.22164 0
    endloop
  endfacet
  facet normal 0.982275 0.187447 0
    outer loop
      vertex 74.4606 2.62667 6
      vertex 74.3429 3.24345 0
      vertex 74.3429 3.24345 6
    endloop
  endfacet
  facet normal 0.982275 0.187447 0
    outer loop
      vertex 74.3429 3.24345 0
      vertex 74.4606 2.62667 6
      vertex 74.4606 2.62667 0
    endloop
  endfacet
  facet normal 0.951072 -0.30897 0
    outer loop
      vertex 74.1489 -3.84062 6
      vertex 74.3429 -3.24345 0
      vertex 74.3429 -3.24345 6
    endloop
  endfacet
  facet normal 0.951072 -0.30897 0
    outer loop
      vertex 74.3429 -3.24345 0
      vertex 74.1489 -3.84062 6
      vertex 74.1489 -3.84062 0
    endloop
  endfacet
  facet normal 0.998029 -0.0627481 0
    outer loop
      vertex 74.4606 -2.62667 6
      vertex 74.5 -2 0
      vertex 74.5 -2 6
    endloop
  endfacet
  facet normal 0.998029 -0.0627481 0
    outer loop
      vertex 74.5 -2 0
      vertex 74.4606 -2.62667 6
      vertex 74.4606 -2.62667 0
    endloop
  endfacet
  facet normal 0.587771 -0.809027 0
    outer loop
      vertex 72.1791 -6.22164 0
      vertex 72.6871 -5.85257 6
      vertex 72.1791 -6.22164 6
    endloop
  endfacet
  facet normal 0.587771 -0.809027 0
    outer loop
      vertex 72.6871 -5.85257 6
      vertex 72.1791 -6.22164 0
      vertex 72.6871 -5.85257 0
    endloop
  endfacet
  facet normal 0.770468 -0.637478 0
    outer loop
      vertex 73.1448 -5.42274 6
      vertex 73.5451 -4.93893 0
      vertex 73.5451 -4.93893 6
    endloop
  endfacet
  facet normal 0.770468 -0.637478 0
    outer loop
      vertex 73.5451 -4.93893 0
      vertex 73.1448 -5.42274 6
      vertex 73.1448 -5.42274 0
    endloop
  endfacet
  facet normal 0.125313 -0.992117 0
    outer loop
      vertex 69.8139 -6.99013 0
      vertex 70.4369 -6.91144 6
      vertex 69.8139 -6.99013 6
    endloop
  endfacet
  facet normal 0.125313 -0.992117 0
    outer loop
      vertex 70.4369 -6.91144 6
      vertex 69.8139 -6.99013 0
      vertex 70.4369 -6.91144 0
    endloop
  endfacet
  facet normal 0.368135 -0.929773 0
    outer loop
      vertex 71.0451 -6.75528 0
      vertex 71.6289 -6.52413 6
      vertex 71.0451 -6.75528 6
    endloop
  endfacet
  facet normal 0.368135 -0.929773 0
    outer loop
      vertex 71.6289 -6.52413 6
      vertex 71.0451 -6.75528 0
      vertex 71.6289 -6.52413 0
    endloop
  endfacet
  facet normal 0.904797 0.425843 0
    outer loop
      vertex 74.1489 3.84062 6
      vertex 73.8815 4.40877 0
      vertex 73.8815 4.40877 6
    endloop
  endfacet
  facet normal 0.904797 0.425843 0
    outer loop
      vertex 73.8815 4.40877 0
      vertex 74.1489 3.84062 6
      vertex 74.1489 3.84062 0
    endloop
  endfacet
  facet normal 0.481772 0.876297 -0
    outer loop
      vertex 72.1791 6.22164 0
      vertex 71.6289 6.52413 6
      vertex 72.1791 6.22164 6
    endloop
  endfacet
  facet normal 0.481772 0.876297 0
    outer loop
      vertex 71.6289 6.52413 6
      vertex 72.1791 6.22164 0
      vertex 71.6289 6.52413 0
    endloop
  endfacet
  facet normal -0.684565 0.728952 0
    outer loop
      vertex -72.6871 5.85257 0
      vertex -73.1448 5.42274 6
      vertex -72.6871 5.85257 6
    endloop
  endfacet
  facet normal -0.684565 0.728952 0
    outer loop
      vertex -73.1448 5.42274 6
      vertex -72.6871 5.85257 0
      vertex -73.1448 5.42274 0
    endloop
  endfacet
  facet normal -0.844364 0.53577 0
    outer loop
      vertex -73.8815 4.40877 0
      vertex -73.5451 4.93893 6
      vertex -73.5451 4.93893 0
    endloop
  endfacet
  facet normal -0.844364 0.53577 0
    outer loop
      vertex -73.5451 4.93893 6
      vertex -73.8815 4.40877 0
      vertex -73.8815 4.40877 6
    endloop
  endfacet
  facet normal -0.368135 0.929773 0
    outer loop
      vertex -71.0451 6.75528 0
      vertex -71.6289 6.52413 6
      vertex -71.0451 6.75528 6
    endloop
  endfacet
  facet normal -0.368135 0.929773 0
    outer loop
      vertex -71.6289 6.52413 6
      vertex -71.0451 6.75528 0
      vertex -71.6289 6.52413 0
    endloop
  endfacet
  facet normal -0.998029 0.0627481 0
    outer loop
      vertex -74.5 2 0
      vertex -74.4606 2.62667 6
      vertex -74.4606 2.62667 0
    endloop
  endfacet
  facet normal -0.998029 0.0627481 0
    outer loop
      vertex -74.4606 2.62667 6
      vertex -74.5 2 0
      vertex -74.5 2 6
    endloop
  endfacet
  facet normal -0.982275 0.187447 0
    outer loop
      vertex -74.4606 2.62667 0
      vertex -74.3429 3.24345 6
      vertex -74.3429 3.24345 0
    endloop
  endfacet
  facet normal -0.982275 0.187447 0
    outer loop
      vertex -74.3429 3.24345 6
      vertex -74.4606 2.62667 0
      vertex -74.4606 2.62667 6
    endloop
  endfacet
  facet normal -0.770468 0.637478 0
    outer loop
      vertex -73.5451 4.93893 0
      vertex -73.1448 5.42274 6
      vertex -73.1448 5.42274 0
    endloop
  endfacet
  facet normal -0.770468 0.637478 0
    outer loop
      vertex -73.1448 5.42274 6
      vertex -73.5451 4.93893 0
      vertex -73.5451 4.93893 6
    endloop
  endfacet
  facet normal -0.844364 -0.53577 0
    outer loop
      vertex -73.5451 -4.93893 0
      vertex -73.8815 -4.40877 6
      vertex -73.8815 -4.40877 0
    endloop
  endfacet
  facet normal -0.844364 -0.53577 0
    outer loop
      vertex -73.8815 -4.40877 6
      vertex -73.5451 -4.93893 0
      vertex -73.5451 -4.93893 6
    endloop
  endfacet
  facet normal 0.998029 0.0627481 0
    outer loop
      vertex 74.5 2 6
      vertex 74.4606 2.62667 0
      vertex 74.4606 2.62667 6
    endloop
  endfacet
  facet normal 0.998029 0.0627481 0
    outer loop
      vertex 74.4606 2.62667 0
      vertex 74.5 2 6
      vertex 74.5 2 0
    endloop
  endfacet
  facet normal 0.248691 -0.968583 0
    outer loop
      vertex 70.4369 -6.91144 0
      vertex 71.0451 -6.75528 6
      vertex 70.4369 -6.91144 6
    endloop
  endfacet
  facet normal 0.248691 -0.968583 0
    outer loop
      vertex 71.0451 -6.75528 6
      vertex 70.4369 -6.91144 0
      vertex 71.0451 -6.75528 0
    endloop
  endfacet
  facet normal 0.844364 0.53577 0
    outer loop
      vertex 73.8815 4.40877 6
      vertex 73.5451 4.93893 0
      vertex 73.5451 4.93893 6
    endloop
  endfacet
  facet normal 0.844364 0.53577 0
    outer loop
      vertex 73.5451 4.93893 0
      vertex 73.8815 4.40877 6
      vertex 73.8815 4.40877 0
    endloop
  endfacet
  facet normal 0.587771 0.809027 -0
    outer loop
      vertex 72.6871 5.85257 0
      vertex 72.1791 6.22164 6
      vertex 72.6871 5.85257 6
    endloop
  endfacet
  facet normal 0.587771 0.809027 0
    outer loop
      vertex 72.1791 6.22164 6
      vertex 72.6871 5.85257 0
      vertex 72.1791 6.22164 0
    endloop
  endfacet
  facet normal -0.248691 0.968583 0
    outer loop
      vertex -70.4369 6.91144 0
      vertex -71.0451 6.75528 6
      vertex -70.4369 6.91144 6
    endloop
  endfacet
  facet normal -0.248691 0.968583 0
    outer loop
      vertex -71.0451 6.75528 6
      vertex -70.4369 6.91144 0
      vertex -71.0451 6.75528 0
    endloop
  endfacet
  facet normal -0.904797 0.425843 0
    outer loop
      vertex -74.1489 3.84062 0
      vertex -73.8815 4.40877 6
      vertex -73.8815 4.40877 0
    endloop
  endfacet
  facet normal -0.904797 0.425843 0
    outer loop
      vertex -73.8815 4.40877 6
      vertex -74.1489 3.84062 0
      vertex -74.1489 3.84062 6
    endloop
  endfacet
  facet normal -0.587771 0.809027 0
    outer loop
      vertex -72.1791 6.22164 0
      vertex -72.6871 5.85257 6
      vertex -72.1791 6.22164 6
    endloop
  endfacet
  facet normal -0.587771 0.809027 0
    outer loop
      vertex -72.6871 5.85257 6
      vertex -72.1791 6.22164 0
      vertex -72.6871 5.85257 0
    endloop
  endfacet
  facet normal -0.481772 0.876297 0
    outer loop
      vertex -71.6289 6.52413 0
      vertex -72.1791 6.22164 6
      vertex -71.6289 6.52413 6
    endloop
  endfacet
  facet normal -0.481772 0.876297 0
    outer loop
      vertex -72.1791 6.22164 6
      vertex -71.6289 6.52413 0
      vertex -72.1791 6.22164 0
    endloop
  endfacet
endsolid OpenSCAD_Model
