solid OpenSCAD_Model
  facet normal 0.951071 -0.308971 0
    outer loop
      vertex -70.4057 0.746069 9
      vertex -70.2893 1.10437 0
      vertex -70.2893 1.10437 9
    endloop
  endfacet
  facet normal 0.951071 -0.308971 0
    outer loop
      vertex -70.2893 1.10437 0
      vertex -70.4057 0.746069 9
      vertex -70.4057 0.746069 0
    endloop
  endfacet
  facet normal -0.844295 -0.535879 0
    outer loop
      vertex -64.8711 1.44526 0
      vertex -65.073 1.76336 9
      vertex -65.073 1.76336 0
    endloop
  endfacet
  facet normal -0.844295 -0.535879 0
    outer loop
      vertex -65.073 1.76336 9
      vertex -64.8711 1.44526 0
      vertex -64.8711 1.44526 9
    endloop
  endfacet
  facet normal -0.368116 -0.92978 0
    outer loop
      vertex -66.573 2.85317 0
      vertex -66.2227 2.71448 9
      vertex -66.573 2.85317 9
    endloop
  endfacet
  facet normal -0.368116 -0.92978 -0
    outer loop
      vertex -66.2227 2.71448 9
      vertex -66.573 2.85317 0
      vertex -66.2227 2.71448 0
    endloop
  endfacet
  facet normal 0.368116 -0.92978 0
    outer loop
      vertex -68.7773 2.71448 0
      vertex -68.427 2.85317 9
      vertex -68.7773 2.71448 9
    endloop
  endfacet
  facet normal 0.368116 -0.92978 0
    outer loop
      vertex -68.427 2.85317 9
      vertex -68.7773 2.71448 0
      vertex -68.427 2.85317 0
    endloop
  endfacet
  facet normal 0.904838 -0.425756 0
    outer loop
      vertex -70.2893 1.10437 9
      vertex -70.1289 1.44526 0
      vertex -70.1289 1.44526 9
    endloop
  endfacet
  facet normal 0.904838 -0.425756 0
    outer loop
      vertex -70.1289 1.44526 0
      vertex -70.2893 1.10437 9
      vertex -70.2893 1.10437 0
    endloop
  endfacet
  facet normal -0.982285 0.187395 0
    outer loop
      vertex -64.5943 -0.746069 0
      vertex -64.5237 -0.375999 9
      vertex -64.5237 -0.375999 0
    endloop
  endfacet
  facet normal -0.982285 0.187395 0
    outer loop
      vertex -64.5237 -0.375999 9
      vertex -64.5943 -0.746069 0
      vertex -64.5943 -0.746069 9
    endloop
  endfacet
  facet normal -0.684594 -0.728924 0
    outer loop
      vertex -65.5877 2.31154 0
      vertex -65.3131 2.05364 9
      vertex -65.5877 2.31154 9
    endloop
  endfacet
  facet normal -0.684594 -0.728924 -0
    outer loop
      vertex -65.3131 2.05364 9
      vertex -65.5877 2.31154 0
      vertex -65.3131 2.05364 0
    endloop
  endfacet
  facet normal 0 -1 0
    outer loop
      vertex -67.6884 2.99408 0
      vertex -67.3116 2.99408 9
      vertex -67.6884 2.99408 9
    endloop
  endfacet
  facet normal 0 -1 -0
    outer loop
      vertex -67.3116 2.99408 9
      vertex -67.6884 2.99408 0
      vertex -67.3116 2.99408 0
    endloop
  endfacet
  facet normal -0.587768 -0.80903 0
    outer loop
      vertex -65.8925 2.53298 0
      vertex -65.5877 2.31154 9
      vertex -65.8925 2.53298 9
    endloop
  endfacet
  facet normal -0.587768 -0.80903 -0
    outer loop
      vertex -65.5877 2.31154 9
      vertex -65.8925 2.53298 0
      vertex -65.5877 2.31154 0
    endloop
  endfacet
  facet normal 0.982285 -0.187395 0
    outer loop
      vertex -70.4763 0.375999 9
      vertex -70.4057 0.746069 0
      vertex -70.4057 0.746069 9
    endloop
  endfacet
  facet normal 0.982285 -0.187395 0
    outer loop
      vertex -70.4057 0.746069 0
      vertex -70.4763 0.375999 9
      vertex -70.4763 0.375999 0
    endloop
  endfacet
  facet normal 0.770566 -0.63736 0
    outer loop
      vertex -69.927 1.76336 9
      vertex -69.6869 2.05364 0
      vertex -69.6869 2.05364 9
    endloop
  endfacet
  facet normal 0.770566 -0.63736 0
    outer loop
      vertex -69.6869 2.05364 0
      vertex -69.927 1.76336 9
      vertex -69.927 1.76336 0
    endloop
  endfacet
  facet normal 0.248689 -0.968583 0
    outer loop
      vertex -68.427 2.85317 0
      vertex -68.0621 2.94686 9
      vertex -68.427 2.85317 9
    endloop
  endfacet
  facet normal 0.248689 -0.968583 0
    outer loop
      vertex -68.0621 2.94686 9
      vertex -68.427 2.85317 0
      vertex -68.0621 2.94686 0
    endloop
  endfacet
  facet normal 0.684594 -0.728924 0
    outer loop
      vertex -69.6869 2.05364 0
      vertex -69.4123 2.31154 9
      vertex -69.6869 2.05364 9
    endloop
  endfacet
  facet normal 0.684594 -0.728924 0
    outer loop
      vertex -69.4123 2.31154 9
      vertex -69.6869 2.05364 0
      vertex -69.4123 2.31154 0
    endloop
  endfacet
  facet normal -0.998019 -0.0629072 0
    outer loop
      vertex -64.5 0 0
      vertex -64.5237 0.375999 9
      vertex -64.5237 0.375999 0
    endloop
  endfacet
  facet normal -0.998019 -0.0629072 0
    outer loop
      vertex -64.5237 0.375999 9
      vertex -64.5 0 0
      vertex -64.5 0 9
    endloop
  endfacet
  facet normal -0.481695 0.876339 0
    outer loop
      vertex -65.8925 -2.53298 0
      vertex -66.2227 -2.71448 9
      vertex -65.8925 -2.53298 9
    endloop
  endfacet
  facet normal -0.481695 0.876339 0
    outer loop
      vertex -66.2227 -2.71448 9
      vertex -65.8925 -2.53298 0
      vertex -66.2227 -2.71448 0
    endloop
  endfacet
  facet normal -0.770566 -0.63736 0
    outer loop
      vertex -65.073 1.76336 0
      vertex -65.3131 2.05364 9
      vertex -65.3131 2.05364 0
    endloop
  endfacet
  facet normal -0.770566 -0.63736 0
    outer loop
      vertex -65.3131 2.05364 9
      vertex -65.073 1.76336 0
      vertex -65.073 1.76336 9
    endloop
  endfacet
  facet normal -0.248689 -0.968583 0
    outer loop
      vertex -66.9379 2.94686 0
      vertex -66.573 2.85317 9
      vertex -66.9379 2.94686 9
    endloop
  endfacet
  facet normal -0.248689 -0.968583 -0
    outer loop
      vertex -66.573 2.85317 9
      vertex -66.9379 2.94686 0
      vertex -66.573 2.85317 0
    endloop
  endfacet
  facet normal -0.125361 -0.992111 0
    outer loop
      vertex -67.3116 2.99408 0
      vertex -66.9379 2.94686 9
      vertex -67.3116 2.99408 9
    endloop
  endfacet
  facet normal -0.125361 -0.992111 -0
    outer loop
      vertex -66.9379 2.94686 9
      vertex -67.3116 2.99408 0
      vertex -66.9379 2.94686 0
    endloop
  endfacet
  facet normal -0.481695 -0.876339 0
    outer loop
      vertex -66.2227 2.71448 0
      vertex -65.8925 2.53298 9
      vertex -66.2227 2.71448 9
    endloop
  endfacet
  facet normal -0.481695 -0.876339 -0
    outer loop
      vertex -65.8925 2.53298 9
      vertex -66.2227 2.71448 0
      vertex -65.8925 2.53298 0
    endloop
  endfacet
  facet normal 0.998019 -0.0629072 0
    outer loop
      vertex -70.5 0 9
      vertex -70.4763 0.375999 0
      vertex -70.4763 0.375999 9
    endloop
  endfacet
  facet normal 0.998019 -0.0629072 0
    outer loop
      vertex -70.4763 0.375999 0
      vertex -70.5 0 9
      vertex -70.5 0 0
    endloop
  endfacet
  facet normal 0 0 1
    outer loop
      vertex 69.8139 6.99013 9
      vertex 74.5 2 9
      vertex 74.4606 2.62667 9
    endloop
  endfacet
  facet normal 0 0 1
    outer loop
      vertex 74.5 2 9
      vertex 69.8139 6.99013 9
      vertex 74.5 -2 9
    endloop
  endfacet
  facet normal 0 0 1
    outer loop
      vertex 69.8139 6.99013 9
      vertex 74.4606 2.62667 9
      vertex 74.3429 3.24345 9
    endloop
  endfacet
  facet normal 0 0 1
    outer loop
      vertex 69.8139 -6.99013 9
      vertex 74.5 -2 9
      vertex 69.8139 6.99013 9
    endloop
  endfacet
  facet normal 0 0 1
    outer loop
      vertex 69.8139 6.99013 9
      vertex 74.3429 3.24345 9
      vertex 74.1489 3.84062 9
    endloop
  endfacet
  facet normal 0 0 1
    outer loop
      vertex 74.5 -2 9
      vertex 69.8139 -6.99013 9
      vertex 74.4606 -2.62667 9
    endloop
  endfacet
  facet normal 0 0 1
    outer loop
      vertex 69.8139 6.99013 9
      vertex 74.1489 3.84062 9
      vertex 73.8815 4.40877 9
    endloop
  endfacet
  facet normal 0 0 1
    outer loop
      vertex 74.4606 -2.62667 9
      vertex 69.8139 -6.99013 9
      vertex 74.3429 -3.24345 9
    endloop
  endfacet
  facet normal 0 0 1
    outer loop
      vertex 69.8139 6.99013 9
      vertex 73.8815 4.40877 9
      vertex 73.5451 4.93893 9
    endloop
  endfacet
  facet normal 0 0 1
    outer loop
      vertex 74.3429 -3.24345 9
      vertex 69.8139 -6.99013 9
      vertex 74.1489 -3.84062 9
    endloop
  endfacet
  facet normal 0 0 1
    outer loop
      vertex 69.8139 6.99013 9
      vertex 73.5451 4.93893 9
      vertex 73.1448 5.42274 9
    endloop
  endfacet
  facet normal 0 0 1
    outer loop
      vertex 74.1489 -3.84062 9
      vertex 69.8139 -6.99013 9
      vertex 73.8815 -4.40877 9
    endloop
  endfacet
  facet normal 0 0 1
    outer loop
      vertex 69.8139 6.99013 9
      vertex 73.1448 5.42274 9
      vertex 72.6871 5.85257 9
    endloop
  endfacet
  facet normal 0 0 1
    outer loop
      vertex 73.8815 -4.40877 9
      vertex 69.8139 -6.99013 9
      vertex 73.5451 -4.93893 9
    endloop
  endfacet
  facet normal 0 0 1
    outer loop
      vertex 69.8139 6.99013 9
      vertex 72.6871 5.85257 9
      vertex 72.1791 6.22164 9
    endloop
  endfacet
  facet normal 0 0 1
    outer loop
      vertex 73.5451 -4.93893 9
      vertex 69.8139 -6.99013 9
      vertex 73.1448 -5.42274 9
    endloop
  endfacet
  facet normal 0 0 1
    outer loop
      vertex 69.8139 6.99013 9
      vertex 72.1791 6.22164 9
      vertex 71.6289 6.52413 9
    endloop
  endfacet
  facet normal 0 0 1
    outer loop
      vertex 73.1448 -5.42274 9
      vertex 69.8139 -6.99013 9
      vertex 72.6871 -5.85257 9
    endloop
  endfacet
  facet normal 0 0 1
    outer loop
      vertex 69.8139 6.99013 9
      vertex 71.6289 6.52413 9
      vertex 71.0451 6.75528 9
    endloop
  endfacet
  facet normal 0 0 1
    outer loop
      vertex 72.6871 -5.85257 9
      vertex 69.8139 -6.99013 9
      vertex 72.1791 -6.22164 9
    endloop
  endfacet
  facet normal 0 0 1
    outer loop
      vertex 69.8139 6.99013 9
      vertex 71.0451 6.75528 9
      vertex 70.4369 6.91144 9
    endloop
  endfacet
  facet normal 0 0 1
    outer loop
      vertex 72.1791 -6.22164 9
      vertex 69.8139 -6.99013 9
      vertex 71.6289 -6.52413 9
    endloop
  endfacet
  facet normal 0 0 1
    outer loop
      vertex 71.6289 -6.52413 9
      vertex 69.8139 -6.99013 9
      vertex 71.0451 -6.75528 9
    endloop
  endfacet
  facet normal 0 0 1
    outer loop
      vertex 71.0451 -6.75528 9
      vertex 69.8139 -6.99013 9
      vertex 70.4369 -6.91144 9
    endloop
  endfacet
  facet normal 0 0 1
    outer loop
      vertex 69.8139 6.99013 9
      vertex -64.5 0 9
      vertex 69.8139 -6.99013 9
    endloop
  endfacet
  facet normal 0 0 1
    outer loop
      vertex 69.8139 6.99013 9
      vertex -64.5237 0.375999 9
      vertex -64.5 0 9
    endloop
  endfacet
  facet normal 0 0 1
    outer loop
      vertex 69.8139 6.99013 9
      vertex -64.5943 0.746069 9
      vertex -64.5237 0.375999 9
    endloop
  endfacet
  facet normal 0 0 1
    outer loop
      vertex 69.8139 6.99013 9
      vertex -64.7107 1.10437 9
      vertex -64.5943 0.746069 9
    endloop
  endfacet
  facet normal 0 0 1
    outer loop
      vertex 69.8139 6.99013 9
      vertex -64.8711 1.44526 9
      vertex -64.7107 1.10437 9
    endloop
  endfacet
  facet normal 0 0 1
    outer loop
      vertex 69.8139 6.99013 9
      vertex -65.073 1.76336 9
      vertex -64.8711 1.44526 9
    endloop
  endfacet
  facet normal 0 0 1
    outer loop
      vertex 69.8139 6.99013 9
      vertex -65.3131 2.05364 9
      vertex -65.073 1.76336 9
    endloop
  endfacet
  facet normal -0 0 1
    outer loop
      vertex -69.8139 6.99013 9
      vertex -65.3131 2.05364 9
      vertex 69.8139 6.99013 9
    endloop
  endfacet
  facet normal 0 0 1
    outer loop
      vertex -65.3131 2.05364 9
      vertex -69.8139 6.99013 9
      vertex -65.5877 2.31154 9
    endloop
  endfacet
  facet normal 0 0 1
    outer loop
      vertex -65.5877 2.31154 9
      vertex -69.8139 6.99013 9
      vertex -65.8925 2.53298 9
    endloop
  endfacet
  facet normal 0 0 1
    outer loop
      vertex -65.8925 2.53298 9
      vertex -69.8139 6.99013 9
      vertex -66.2227 2.71448 9
    endloop
  endfacet
  facet normal 0 0 1
    outer loop
      vertex -66.2227 2.71448 9
      vertex -69.8139 6.99013 9
      vertex -66.573 2.85317 9
    endloop
  endfacet
  facet normal 0 0 1
    outer loop
      vertex -66.573 2.85317 9
      vertex -69.8139 6.99013 9
      vertex -66.9379 2.94686 9
    endloop
  endfacet
  facet normal 0 0 1
    outer loop
      vertex -66.9379 2.94686 9
      vertex -69.8139 6.99013 9
      vertex -67.3116 2.99408 9
    endloop
  endfacet
  facet normal 0 0 1
    outer loop
      vertex -67.3116 2.99408 9
      vertex -69.8139 6.99013 9
      vertex -67.6884 2.99408 9
    endloop
  endfacet
  facet normal 0 0 1
    outer loop
      vertex -69.8139 6.99013 9
      vertex -68.0621 2.94686 9
      vertex -67.6884 2.99408 9
    endloop
  endfacet
  facet normal 0 0 1
    outer loop
      vertex -69.8139 6.99013 9
      vertex -68.427 2.85317 9
      vertex -68.0621 2.94686 9
    endloop
  endfacet
  facet normal 0 0 1
    outer loop
      vertex -69.8139 6.99013 9
      vertex -68.7773 2.71448 9
      vertex -68.427 2.85317 9
    endloop
  endfacet
  facet normal -0 0 1
    outer loop
      vertex -70.4369 6.91144 9
      vertex -68.7773 2.71448 9
      vertex -69.8139 6.99013 9
    endloop
  endfacet
  facet normal 0 0 1
    outer loop
      vertex -68.7773 2.71448 9
      vertex -70.4369 6.91144 9
      vertex -69.1075 2.53298 9
    endloop
  endfacet
  facet normal -0 0 1
    outer loop
      vertex -71.0451 6.75528 9
      vertex -69.1075 2.53298 9
      vertex -70.4369 6.91144 9
    endloop
  endfacet
  facet normal -0 0 1
    outer loop
      vertex -71.6289 6.52413 9
      vertex -69.1075 2.53298 9
      vertex -71.0451 6.75528 9
    endloop
  endfacet
  facet normal 0 0 1
    outer loop
      vertex -69.1075 2.53298 9
      vertex -71.6289 6.52413 9
      vertex -69.4123 2.31154 9
    endloop
  endfacet
  facet normal -0 0 1
    outer loop
      vertex -72.1791 6.22164 9
      vertex -69.4123 2.31154 9
      vertex -71.6289 6.52413 9
    endloop
  endfacet
  facet normal -0 0 1
    outer loop
      vertex -72.6871 5.85257 9
      vertex -69.4123 2.31154 9
      vertex -72.1791 6.22164 9
    endloop
  endfacet
  facet normal 0 0 1
    outer loop
      vertex -69.4123 2.31154 9
      vertex -72.6871 5.85257 9
      vertex -69.6869 2.05364 9
    endloop
  endfacet
  facet normal -0 0 1
    outer loop
      vertex -73.1448 5.42274 9
      vertex -69.6869 2.05364 9
      vertex -72.6871 5.85257 9
    endloop
  endfacet
  facet normal -0 0 1
    outer loop
      vertex -73.5451 4.93893 9
      vertex -69.6869 2.05364 9
      vertex -73.1448 5.42274 9
    endloop
  endfacet
  facet normal 0 0 1
    outer loop
      vertex -69.6869 2.05364 9
      vertex -73.5451 4.93893 9
      vertex -69.927 1.76336 9
    endloop
  endfacet
  facet normal -0 0 1
    outer loop
      vertex -64.5237 -0.375999 9
      vertex 69.8139 -6.99013 9
      vertex -64.5 0 9
    endloop
  endfacet
  facet normal -0 0 1
    outer loop
      vertex -64.5943 -0.746069 9
      vertex 69.8139 -6.99013 9
      vertex -64.5237 -0.375999 9
    endloop
  endfacet
  facet normal -0 0 1
    outer loop
      vertex -64.7107 -1.10437 9
      vertex 69.8139 -6.99013 9
      vertex -64.5943 -0.746069 9
    endloop
  endfacet
  facet normal -0 0 1
    outer loop
      vertex -64.8711 -1.44526 9
      vertex 69.8139 -6.99013 9
      vertex -64.7107 -1.10437 9
    endloop
  endfacet
  facet normal -0 0 1
    outer loop
      vertex -65.073 -1.76336 9
      vertex 69.8139 -6.99013 9
      vertex -64.8711 -1.44526 9
    endloop
  endfacet
  facet normal -0 0 1
    outer loop
      vertex -65.3131 -2.05364 9
      vertex 69.8139 -6.99013 9
      vertex -65.073 -1.76336 9
    endloop
  endfacet
  facet normal 0 0 1
    outer loop
      vertex -69.8139 -6.99013 9
      vertex -65.3131 -2.05364 9
      vertex -65.5877 -2.31154 9
    endloop
  endfacet
  facet normal 0 0 1
    outer loop
      vertex -69.8139 -6.99013 9
      vertex -65.5877 -2.31154 9
      vertex -65.8925 -2.53298 9
    endloop
  endfacet
  facet normal 0 0 1
    outer loop
      vertex -69.8139 -6.99013 9
      vertex -65.8925 -2.53298 9
      vertex -66.2227 -2.71448 9
    endloop
  endfacet
  facet normal 0 0 1
    outer loop
      vertex -69.8139 -6.99013 9
      vertex -66.2227 -2.71448 9
      vertex -66.573 -2.85317 9
    endloop
  endfacet
  facet normal 0 0 1
    outer loop
      vertex -69.8139 -6.99013 9
      vertex -66.573 -2.85317 9
      vertex -66.9379 -2.94686 9
    endloop
  endfacet
  facet normal 0 0 1
    outer loop
      vertex -69.8139 -6.99013 9
      vertex -66.9379 -2.94686 9
      vertex -67.3116 -2.99408 9
    endloop
  endfacet
  facet normal 0 0 1
    outer loop
      vertex -69.8139 -6.99013 9
      vertex -67.3116 -2.99408 9
      vertex -67.6884 -2.99408 9
    endloop
  endfacet
  facet normal 0 0 1
    outer loop
      vertex -65.3131 -2.05364 9
      vertex -69.8139 -6.99013 9
      vertex 69.8139 -6.99013 9
    endloop
  endfacet
  facet normal 0 0 1
    outer loop
      vertex -68.0621 -2.94686 9
      vertex -69.8139 -6.99013 9
      vertex -67.6884 -2.99408 9
    endloop
  endfacet
  facet normal 0 0 1
    outer loop
      vertex -68.427 -2.85317 9
      vertex -69.8139 -6.99013 9
      vertex -68.0621 -2.94686 9
    endloop
  endfacet
  facet normal 0 0 1
    outer loop
      vertex -68.7773 -2.71448 9
      vertex -69.8139 -6.99013 9
      vertex -68.427 -2.85317 9
    endloop
  endfacet
  facet normal 0 0 1
    outer loop
      vertex -70.4369 -6.91144 9
      vertex -68.7773 -2.71448 9
      vertex -69.1075 -2.53298 9
    endloop
  endfacet
  facet normal 0 0 1
    outer loop
      vertex -71.6289 -6.52413 9
      vertex -69.1075 -2.53298 9
      vertex -69.4123 -2.31154 9
    endloop
  endfacet
  facet normal 0 0 1
    outer loop
      vertex -72.6871 -5.85257 9
      vertex -69.4123 -2.31154 9
      vertex -69.6869 -2.05364 9
    endloop
  endfacet
  facet normal 0 0 1
    outer loop
      vertex -73.5451 -4.93893 9
      vertex -69.6869 -2.05364 9
      vertex -69.927 -1.76336 9
    endloop
  endfacet
  facet normal 0 0 1
    outer loop
      vertex -74.1489 -3.84062 9
      vertex -69.927 -1.76336 9
      vertex -70.1289 -1.44526 9
    endloop
  endfacet
  facet normal 0 0 1
    outer loop
      vertex -74.4606 -2.62667 9
      vertex -70.1289 -1.44526 9
      vertex -70.2893 -1.10437 9
    endloop
  endfacet
  facet normal 0 0 1
    outer loop
      vertex -74.5 -2 9
      vertex -70.2893 -1.10437 9
      vertex -70.4057 -0.746069 9
    endloop
  endfacet
  facet normal 0 0 1
    outer loop
      vertex -68.7773 -2.71448 9
      vertex -70.4369 -6.91144 9
      vertex -69.8139 -6.99013 9
    endloop
  endfacet
  facet normal 0 0 1
    outer loop
      vertex -74.5 -2 9
      vertex -70.4057 -0.746069 9
      vertex -70.4763 -0.375999 9
    endloop
  endfacet
  facet normal 0 0 1
    outer loop
      vertex -74.5 -2 9
      vertex -70.4763 -0.375999 9
      vertex -70.5 0 9
    endloop
  endfacet
  facet normal -0 0 1
    outer loop
      vertex -73.8815 4.40877 9
      vertex -69.927 1.76336 9
      vertex -73.5451 4.93893 9
    endloop
  endfacet
  facet normal 0 0 1
    outer loop
      vertex -74.5 -2 9
      vertex -70.5 0 9
      vertex -74.5 2 9
    endloop
  endfacet
  facet normal -0 0 1
    outer loop
      vertex -74.1489 3.84062 9
      vertex -69.927 1.76336 9
      vertex -73.8815 4.40877 9
    endloop
  endfacet
  facet normal 0 0 1
    outer loop
      vertex -70.2893 -1.10437 9
      vertex -74.5 -2 9
      vertex -74.4606 -2.62667 9
    endloop
  endfacet
  facet normal 0 0 1
    outer loop
      vertex -69.927 1.76336 9
      vertex -74.1489 3.84062 9
      vertex -70.1289 1.44526 9
    endloop
  endfacet
  facet normal 0 0 1
    outer loop
      vertex -69.1075 -2.53298 9
      vertex -71.0451 -6.75528 9
      vertex -70.4369 -6.91144 9
    endloop
  endfacet
  facet normal -0 0 1
    outer loop
      vertex -74.3429 3.24345 9
      vertex -70.1289 1.44526 9
      vertex -74.1489 3.84062 9
    endloop
  endfacet
  facet normal 0 0 1
    outer loop
      vertex -69.1075 -2.53298 9
      vertex -71.6289 -6.52413 9
      vertex -71.0451 -6.75528 9
    endloop
  endfacet
  facet normal -0 0 1
    outer loop
      vertex -74.4606 2.62667 9
      vertex -70.1289 1.44526 9
      vertex -74.3429 3.24345 9
    endloop
  endfacet
  facet normal 0 0 1
    outer loop
      vertex -69.4123 -2.31154 9
      vertex -72.1791 -6.22164 9
      vertex -71.6289 -6.52413 9
    endloop
  endfacet
  facet normal 0 0 1
    outer loop
      vertex -70.1289 1.44526 9
      vertex -74.4606 2.62667 9
      vertex -70.2893 1.10437 9
    endloop
  endfacet
  facet normal 0 0 1
    outer loop
      vertex -69.4123 -2.31154 9
      vertex -72.6871 -5.85257 9
      vertex -72.1791 -6.22164 9
    endloop
  endfacet
  facet normal -0 0 1
    outer loop
      vertex -74.5 2 9
      vertex -70.2893 1.10437 9
      vertex -74.4606 2.62667 9
    endloop
  endfacet
  facet normal 0 0 1
    outer loop
      vertex -69.6869 -2.05364 9
      vertex -73.1448 -5.42274 9
      vertex -72.6871 -5.85257 9
    endloop
  endfacet
  facet normal 0 0 1
    outer loop
      vertex -70.2893 1.10437 9
      vertex -74.5 2 9
      vertex -70.4057 0.746069 9
    endloop
  endfacet
  facet normal 0 0 1
    outer loop
      vertex -69.6869 -2.05364 9
      vertex -73.5451 -4.93893 9
      vertex -73.1448 -5.42274 9
    endloop
  endfacet
  facet normal 0 0 1
    outer loop
      vertex -70.4057 0.746069 9
      vertex -74.5 2 9
      vertex -70.4763 0.375999 9
    endloop
  endfacet
  facet normal 0 0 1
    outer loop
      vertex -69.927 -1.76336 9
      vertex -73.8815 -4.40877 9
      vertex -73.5451 -4.93893 9
    endloop
  endfacet
  facet normal 0 0 1
    outer loop
      vertex -70.4763 0.375999 9
      vertex -74.5 2 9
      vertex -70.5 0 9
    endloop
  endfacet
  facet normal 0 0 1
    outer loop
      vertex -69.927 -1.76336 9
      vertex -74.1489 -3.84062 9
      vertex -73.8815 -4.40877 9
    endloop
  endfacet
  facet normal 0 0 1
    outer loop
      vertex -70.1289 -1.44526 9
      vertex -74.3429 -3.24345 9
      vertex -74.1489 -3.84062 9
    endloop
  endfacet
  facet normal 0 0 1
    outer loop
      vertex -70.1289 -1.44526 9
      vertex -74.4606 -2.62667 9
      vertex -74.3429 -3.24345 9
    endloop
  endfacet
  facet normal 0.844295 -0.535879 0
    outer loop
      vertex -70.1289 1.44526 9
      vertex -69.927 1.76336 0
      vertex -69.927 1.76336 9
    endloop
  endfacet
  facet normal 0.844295 -0.535879 0
    outer loop
      vertex -69.927 1.76336 0
      vertex -70.1289 1.44526 9
      vertex -70.1289 1.44526 0
    endloop
  endfacet
  facet normal 0.125361 -0.992111 0
    outer loop
      vertex -68.0621 2.94686 0
      vertex -67.6884 2.99408 9
      vertex -68.0621 2.94686 9
    endloop
  endfacet
  facet normal 0.125361 -0.992111 0
    outer loop
      vertex -67.6884 2.99408 9
      vertex -68.0621 2.94686 0
      vertex -67.6884 2.99408 0
    endloop
  endfacet
  facet normal 0.587768 -0.80903 0
    outer loop
      vertex -69.4123 2.31154 0
      vertex -69.1075 2.53298 9
      vertex -69.4123 2.31154 9
    endloop
  endfacet
  facet normal 0.587768 -0.80903 0
    outer loop
      vertex -69.1075 2.53298 9
      vertex -69.4123 2.31154 0
      vertex -69.1075 2.53298 0
    endloop
  endfacet
  facet normal 0.481695 -0.876339 0
    outer loop
      vertex -69.1075 2.53298 0
      vertex -68.7773 2.71448 9
      vertex -69.1075 2.53298 9
    endloop
  endfacet
  facet normal 0.481695 -0.876339 0
    outer loop
      vertex -68.7773 2.71448 9
      vertex -69.1075 2.53298 0
      vertex -68.7773 2.71448 0
    endloop
  endfacet
  facet normal 0 1 -0
    outer loop
      vertex -67.3116 -2.99408 0
      vertex -67.6884 -2.99408 9
      vertex -67.3116 -2.99408 9
    endloop
  endfacet
  facet normal 0 1 0
    outer loop
      vertex -67.6884 -2.99408 9
      vertex -67.3116 -2.99408 0
      vertex -67.6884 -2.99408 0
    endloop
  endfacet
  facet normal 0 0 -1
    outer loop
      vertex 69.8139 -6.99013 0
      vertex 74.5 -2 0
      vertex 74.4606 -2.62667 0
    endloop
  endfacet
  facet normal -0 0 -1
    outer loop
      vertex 74.5 -2 0
      vertex 69.8139 -6.99013 0
      vertex 74.5 2 0
    endloop
  endfacet
  facet normal 0 0 -1
    outer loop
      vertex 69.8139 -6.99013 0
      vertex 74.4606 -2.62667 0
      vertex 74.3429 -3.24345 0
    endloop
  endfacet
  facet normal 0 0 -1
    outer loop
      vertex 69.8139 6.99013 0
      vertex 74.5 2 0
      vertex 69.8139 -6.99013 0
    endloop
  endfacet
  facet normal 0 0 -1
    outer loop
      vertex 69.8139 -6.99013 0
      vertex 74.3429 -3.24345 0
      vertex 74.1489 -3.84062 0
    endloop
  endfacet
  facet normal 0 0 -1
    outer loop
      vertex 74.5 2 0
      vertex 69.8139 6.99013 0
      vertex 74.4606 2.62667 0
    endloop
  endfacet
  facet normal 0 0 -1
    outer loop
      vertex 69.8139 -6.99013 0
      vertex 74.1489 -3.84062 0
      vertex 73.8815 -4.40877 0
    endloop
  endfacet
  facet normal 0 0 -1
    outer loop
      vertex 74.4606 2.62667 0
      vertex 69.8139 6.99013 0
      vertex 74.3429 3.24345 0
    endloop
  endfacet
  facet normal 0 0 -1
    outer loop
      vertex 69.8139 -6.99013 0
      vertex 73.8815 -4.40877 0
      vertex 73.5451 -4.93893 0
    endloop
  endfacet
  facet normal 0 0 -1
    outer loop
      vertex 74.3429 3.24345 0
      vertex 69.8139 6.99013 0
      vertex 74.1489 3.84062 0
    endloop
  endfacet
  facet normal 0 0 -1
    outer loop
      vertex 69.8139 -6.99013 0
      vertex 73.5451 -4.93893 0
      vertex 73.1448 -5.42274 0
    endloop
  endfacet
  facet normal 0 0 -1
    outer loop
      vertex 74.1489 3.84062 0
      vertex 69.8139 6.99013 0
      vertex 73.8815 4.40877 0
    endloop
  endfacet
  facet normal 0 0 -1
    outer loop
      vertex 69.8139 -6.99013 0
      vertex 73.1448 -5.42274 0
      vertex 72.6871 -5.85257 0
    endloop
  endfacet
  facet normal 0 0 -1
    outer loop
      vertex 73.8815 4.40877 0
      vertex 69.8139 6.99013 0
      vertex 73.5451 4.93893 0
    endloop
  endfacet
  facet normal 0 0 -1
    outer loop
      vertex 69.8139 -6.99013 0
      vertex 72.6871 -5.85257 0
      vertex 72.1791 -6.22164 0
    endloop
  endfacet
  facet normal 0 0 -1
    outer loop
      vertex 73.5451 4.93893 0
      vertex 69.8139 6.99013 0
      vertex 73.1448 5.42274 0
    endloop
  endfacet
  facet normal 0 0 -1
    outer loop
      vertex 69.8139 -6.99013 0
      vertex 72.1791 -6.22164 0
      vertex 71.6289 -6.52413 0
    endloop
  endfacet
  facet normal 0 0 -1
    outer loop
      vertex 73.1448 5.42274 0
      vertex 69.8139 6.99013 0
      vertex 72.6871 5.85257 0
    endloop
  endfacet
  facet normal 0 0 -1
    outer loop
      vertex 69.8139 -6.99013 0
      vertex 71.6289 -6.52413 0
      vertex 71.0451 -6.75528 0
    endloop
  endfacet
  facet normal 0 0 -1
    outer loop
      vertex 72.6871 5.85257 0
      vertex 69.8139 6.99013 0
      vertex 72.1791 6.22164 0
    endloop
  endfacet
  facet normal 0 0 -1
    outer loop
      vertex 69.8139 -6.99013 0
      vertex 71.0451 -6.75528 0
      vertex 70.4369 -6.91144 0
    endloop
  endfacet
  facet normal 0 0 -1
    outer loop
      vertex 72.1791 6.22164 0
      vertex 69.8139 6.99013 0
      vertex 71.6289 6.52413 0
    endloop
  endfacet
  facet normal 0 0 -1
    outer loop
      vertex 71.6289 6.52413 0
      vertex 69.8139 6.99013 0
      vertex 71.0451 6.75528 0
    endloop
  endfacet
  facet normal 0 0 -1
    outer loop
      vertex 71.0451 6.75528 0
      vertex 69.8139 6.99013 0
      vertex 70.4369 6.91144 0
    endloop
  endfacet
  facet normal 0 0 -1
    outer loop
      vertex 69.8139 -6.99013 0
      vertex -64.5 0 0
      vertex 69.8139 6.99013 0
    endloop
  endfacet
  facet normal 0 0 -1
    outer loop
      vertex 69.8139 -6.99013 0
      vertex -64.5237 -0.375999 0
      vertex -64.5 0 0
    endloop
  endfacet
  facet normal 0 0 -1
    outer loop
      vertex 69.8139 -6.99013 0
      vertex -64.5943 -0.746069 0
      vertex -64.5237 -0.375999 0
    endloop
  endfacet
  facet normal 0 0 -1
    outer loop
      vertex 69.8139 -6.99013 0
      vertex -64.7107 -1.10437 0
      vertex -64.5943 -0.746069 0
    endloop
  endfacet
  facet normal 0 0 -1
    outer loop
      vertex 69.8139 -6.99013 0
      vertex -64.8711 -1.44526 0
      vertex -64.7107 -1.10437 0
    endloop
  endfacet
  facet normal 0 0 -1
    outer loop
      vertex 69.8139 -6.99013 0
      vertex -65.073 -1.76336 0
      vertex -64.8711 -1.44526 0
    endloop
  endfacet
  facet normal 0 0 -1
    outer loop
      vertex 69.8139 -6.99013 0
      vertex -65.3131 -2.05364 0
      vertex -65.073 -1.76336 0
    endloop
  endfacet
  facet normal 0 0 -1
    outer loop
      vertex -69.8139 -6.99013 0
      vertex -65.3131 -2.05364 0
      vertex 69.8139 -6.99013 0
    endloop
  endfacet
  facet normal 0 0 -1
    outer loop
      vertex -65.3131 -2.05364 0
      vertex -69.8139 -6.99013 0
      vertex -65.5877 -2.31154 0
    endloop
  endfacet
  facet normal 0 0 -1
    outer loop
      vertex -65.5877 -2.31154 0
      vertex -69.8139 -6.99013 0
      vertex -65.8925 -2.53298 0
    endloop
  endfacet
  facet normal 0 0 -1
    outer loop
      vertex -65.8925 -2.53298 0
      vertex -69.8139 -6.99013 0
      vertex -66.2227 -2.71448 0
    endloop
  endfacet
  facet normal 0 0 -1
    outer loop
      vertex -66.2227 -2.71448 0
      vertex -69.8139 -6.99013 0
      vertex -66.573 -2.85317 0
    endloop
  endfacet
  facet normal 0 0 -1
    outer loop
      vertex -66.573 -2.85317 0
      vertex -69.8139 -6.99013 0
      vertex -66.9379 -2.94686 0
    endloop
  endfacet
  facet normal 0 0 -1
    outer loop
      vertex -66.9379 -2.94686 0
      vertex -69.8139 -6.99013 0
      vertex -67.3116 -2.99408 0
    endloop
  endfacet
  facet normal -0 0 -1
    outer loop
      vertex -67.3116 -2.99408 0
      vertex -69.8139 -6.99013 0
      vertex -67.6884 -2.99408 0
    endloop
  endfacet
  facet normal 0 0 -1
    outer loop
      vertex -69.8139 -6.99013 0
      vertex -68.0621 -2.94686 0
      vertex -67.6884 -2.99408 0
    endloop
  endfacet
  facet normal 0 0 -1
    outer loop
      vertex -69.8139 -6.99013 0
      vertex -68.427 -2.85317 0
      vertex -68.0621 -2.94686 0
    endloop
  endfacet
  facet normal 0 0 -1
    outer loop
      vertex -69.8139 -6.99013 0
      vertex -68.7773 -2.71448 0
      vertex -68.427 -2.85317 0
    endloop
  endfacet
  facet normal 0 0 -1
    outer loop
      vertex -70.4369 -6.91144 0
      vertex -68.7773 -2.71448 0
      vertex -69.8139 -6.99013 0
    endloop
  endfacet
  facet normal -0 0 -1
    outer loop
      vertex -68.7773 -2.71448 0
      vertex -70.4369 -6.91144 0
      vertex -69.1075 -2.53298 0
    endloop
  endfacet
  facet normal 0 0 -1
    outer loop
      vertex -71.0451 -6.75528 0
      vertex -69.1075 -2.53298 0
      vertex -70.4369 -6.91144 0
    endloop
  endfacet
  facet normal 0 0 -1
    outer loop
      vertex -71.6289 -6.52413 0
      vertex -69.1075 -2.53298 0
      vertex -71.0451 -6.75528 0
    endloop
  endfacet
  facet normal -0 0 -1
    outer loop
      vertex -69.1075 -2.53298 0
      vertex -71.6289 -6.52413 0
      vertex -69.4123 -2.31154 0
    endloop
  endfacet
  facet normal 0 0 -1
    outer loop
      vertex -72.1791 -6.22164 0
      vertex -69.4123 -2.31154 0
      vertex -71.6289 -6.52413 0
    endloop
  endfacet
  facet normal 0 0 -1
    outer loop
      vertex -72.6871 -5.85257 0
      vertex -69.4123 -2.31154 0
      vertex -72.1791 -6.22164 0
    endloop
  endfacet
  facet normal -0 0 -1
    outer loop
      vertex -69.4123 -2.31154 0
      vertex -72.6871 -5.85257 0
      vertex -69.6869 -2.05364 0
    endloop
  endfacet
  facet normal 0 0 -1
    outer loop
      vertex -73.1448 -5.42274 0
      vertex -69.6869 -2.05364 0
      vertex -72.6871 -5.85257 0
    endloop
  endfacet
  facet normal 0 0 -1
    outer loop
      vertex -73.5451 -4.93893 0
      vertex -69.6869 -2.05364 0
      vertex -73.1448 -5.42274 0
    endloop
  endfacet
  facet normal -0 0 -1
    outer loop
      vertex -69.6869 -2.05364 0
      vertex -73.5451 -4.93893 0
      vertex -69.927 -1.76336 0
    endloop
  endfacet
  facet normal 0 0 -1
    outer loop
      vertex -64.5237 0.375999 0
      vertex 69.8139 6.99013 0
      vertex -64.5 0 0
    endloop
  endfacet
  facet normal 0 0 -1
    outer loop
      vertex -64.5943 0.746069 0
      vertex 69.8139 6.99013 0
      vertex -64.5237 0.375999 0
    endloop
  endfacet
  facet normal 0 0 -1
    outer loop
      vertex -64.7107 1.10437 0
      vertex 69.8139 6.99013 0
      vertex -64.5943 0.746069 0
    endloop
  endfacet
  facet normal 0 0 -1
    outer loop
      vertex -64.8711 1.44526 0
      vertex 69.8139 6.99013 0
      vertex -64.7107 1.10437 0
    endloop
  endfacet
  facet normal 0 0 -1
    outer loop
      vertex -65.073 1.76336 0
      vertex 69.8139 6.99013 0
      vertex -64.8711 1.44526 0
    endloop
  endfacet
  facet normal 0 0 -1
    outer loop
      vertex -65.3131 2.05364 0
      vertex 69.8139 6.99013 0
      vertex -65.073 1.76336 0
    endloop
  endfacet
  facet normal 0 0 -1
    outer loop
      vertex -69.8139 6.99013 0
      vertex -65.3131 2.05364 0
      vertex -65.5877 2.31154 0
    endloop
  endfacet
  facet normal 0 0 -1
    outer loop
      vertex -69.8139 6.99013 0
      vertex -65.5877 2.31154 0
      vertex -65.8925 2.53298 0
    endloop
  endfacet
  facet normal 0 0 -1
    outer loop
      vertex -69.8139 6.99013 0
      vertex -65.8925 2.53298 0
      vertex -66.2227 2.71448 0
    endloop
  endfacet
  facet normal 0 0 -1
    outer loop
      vertex -69.8139 6.99013 0
      vertex -66.2227 2.71448 0
      vertex -66.573 2.85317 0
    endloop
  endfacet
  facet normal 0 0 -1
    outer loop
      vertex -69.8139 6.99013 0
      vertex -66.573 2.85317 0
      vertex -66.9379 2.94686 0
    endloop
  endfacet
  facet normal 0 0 -1
    outer loop
      vertex -69.8139 6.99013 0
      vertex -66.9379 2.94686 0
      vertex -67.3116 2.99408 0
    endloop
  endfacet
  facet normal 0 0 -1
    outer loop
      vertex -69.8139 6.99013 0
      vertex -67.3116 2.99408 0
      vertex -67.6884 2.99408 0
    endloop
  endfacet
  facet normal 0 0 -1
    outer loop
      vertex -65.3131 2.05364 0
      vertex -69.8139 6.99013 0
      vertex 69.8139 6.99013 0
    endloop
  endfacet
  facet normal 0 0 -1
    outer loop
      vertex -68.0621 2.94686 0
      vertex -69.8139 6.99013 0
      vertex -67.6884 2.99408 0
    endloop
  endfacet
  facet normal 0 0 -1
    outer loop
      vertex -68.427 2.85317 0
      vertex -69.8139 6.99013 0
      vertex -68.0621 2.94686 0
    endloop
  endfacet
  facet normal 0 0 -1
    outer loop
      vertex -68.7773 2.71448 0
      vertex -69.8139 6.99013 0
      vertex -68.427 2.85317 0
    endloop
  endfacet
  facet normal 0 0 -1
    outer loop
      vertex -70.4369 6.91144 0
      vertex -68.7773 2.71448 0
      vertex -69.1075 2.53298 0
    endloop
  endfacet
  facet normal 0 0 -1
    outer loop
      vertex -71.6289 6.52413 0
      vertex -69.1075 2.53298 0
      vertex -69.4123 2.31154 0
    endloop
  endfacet
  facet normal 0 0 -1
    outer loop
      vertex -72.6871 5.85257 0
      vertex -69.4123 2.31154 0
      vertex -69.6869 2.05364 0
    endloop
  endfacet
  facet normal 0 0 -1
    outer loop
      vertex -73.5451 4.93893 0
      vertex -69.6869 2.05364 0
      vertex -69.927 1.76336 0
    endloop
  endfacet
  facet normal 0 0 -1
    outer loop
      vertex -74.1489 3.84062 0
      vertex -69.927 1.76336 0
      vertex -70.1289 1.44526 0
    endloop
  endfacet
  facet normal 0 0 -1
    outer loop
      vertex -74.4606 2.62667 0
      vertex -70.1289 1.44526 0
      vertex -70.2893 1.10437 0
    endloop
  endfacet
  facet normal 0 0 -1
    outer loop
      vertex -74.5 2 0
      vertex -70.2893 1.10437 0
      vertex -70.4057 0.746069 0
    endloop
  endfacet
  facet normal 0 0 -1
    outer loop
      vertex -68.7773 2.71448 0
      vertex -70.4369 6.91144 0
      vertex -69.8139 6.99013 0
    endloop
  endfacet
  facet normal 0 0 -1
    outer loop
      vertex -74.5 2 0
      vertex -70.4057 0.746069 0
      vertex -70.4763 0.375999 0
    endloop
  endfacet
  facet normal 0 0 -1
    outer loop
      vertex -74.5 2 0
      vertex -70.4763 0.375999 0
      vertex -70.5 0 0
    endloop
  endfacet
  facet normal 0 0 -1
    outer loop
      vertex -73.8815 -4.40877 0
      vertex -69.927 -1.76336 0
      vertex -73.5451 -4.93893 0
    endloop
  endfacet
  facet normal 0 0 -1
    outer loop
      vertex -74.5 2 0
      vertex -70.5 0 0
      vertex -74.5 -2 0
    endloop
  endfacet
  facet normal 0 0 -1
    outer loop
      vertex -74.1489 -3.84062 0
      vertex -69.927 -1.76336 0
      vertex -73.8815 -4.40877 0
    endloop
  endfacet
  facet normal 0 0 -1
    outer loop
      vertex -70.2893 1.10437 0
      vertex -74.5 2 0
      vertex -74.4606 2.62667 0
    endloop
  endfacet
  facet normal -0 0 -1
    outer loop
      vertex -69.927 -1.76336 0
      vertex -74.1489 -3.84062 0
      vertex -70.1289 -1.44526 0
    endloop
  endfacet
  facet normal 0 0 -1
    outer loop
      vertex -69.1075 2.53298 0
      vertex -71.0451 6.75528 0
      vertex -70.4369 6.91144 0
    endloop
  endfacet
  facet normal 0 0 -1
    outer loop
      vertex -74.3429 -3.24345 0
      vertex -70.1289 -1.44526 0
      vertex -74.1489 -3.84062 0
    endloop
  endfacet
  facet normal 0 0 -1
    outer loop
      vertex -69.1075 2.53298 0
      vertex -71.6289 6.52413 0
      vertex -71.0451 6.75528 0
    endloop
  endfacet
  facet normal 0 0 -1
    outer loop
      vertex -74.4606 -2.62667 0
      vertex -70.1289 -1.44526 0
      vertex -74.3429 -3.24345 0
    endloop
  endfacet
  facet normal 0 0 -1
    outer loop
      vertex -69.4123 2.31154 0
      vertex -72.1791 6.22164 0
      vertex -71.6289 6.52413 0
    endloop
  endfacet
  facet normal -0 0 -1
    outer loop
      vertex -70.1289 -1.44526 0
      vertex -74.4606 -2.62667 0
      vertex -70.2893 -1.10437 0
    endloop
  endfacet
  facet normal 0 0 -1
    outer loop
      vertex -69.4123 2.31154 0
      vertex -72.6871 5.85257 0
      vertex -72.1791 6.22164 0
    endloop
  endfacet
  facet normal 0 0 -1
    outer loop
      vertex -74.5 -2 0
      vertex -70.2893 -1.10437 0
      vertex -74.4606 -2.62667 0
    endloop
  endfacet
  facet normal 0 0 -1
    outer loop
      vertex -69.6869 2.05364 0
      vertex -73.1448 5.42274 0
      vertex -72.6871 5.85257 0
    endloop
  endfacet
  facet normal -0 0 -1
    outer loop
      vertex -70.2893 -1.10437 0
      vertex -74.5 -2 0
      vertex -70.4057 -0.746069 0
    endloop
  endfacet
  facet normal 0 0 -1
    outer loop
      vertex -69.6869 2.05364 0
      vertex -73.5451 4.93893 0
      vertex -73.1448 5.42274 0
    endloop
  endfacet
  facet normal -0 0 -1
    outer loop
      vertex -70.4057 -0.746069 0
      vertex -74.5 -2 0
      vertex -70.4763 -0.375999 0
    endloop
  endfacet
  facet normal 0 0 -1
    outer loop
      vertex -69.927 1.76336 0
      vertex -73.8815 4.40877 0
      vertex -73.5451 4.93893 0
    endloop
  endfacet
  facet normal -0 0 -1
    outer loop
      vertex -70.4763 -0.375999 0
      vertex -74.5 -2 0
      vertex -70.5 0 0
    endloop
  endfacet
  facet normal 0 0 -1
    outer loop
      vertex -69.927 1.76336 0
      vertex -74.1489 3.84062 0
      vertex -73.8815 4.40877 0
    endloop
  endfacet
  facet normal 0 0 -1
    outer loop
      vertex -70.1289 1.44526 0
      vertex -74.3429 3.24345 0
      vertex -74.1489 3.84062 0
    endloop
  endfacet
  facet normal 0 0 -1
    outer loop
      vertex -70.1289 1.44526 0
      vertex -74.4606 2.62667 0
      vertex -74.3429 3.24345 0
    endloop
  endfacet
  facet normal 0.844295 0.535879 0
    outer loop
      vertex -69.927 -1.76336 9
      vertex -70.1289 -1.44526 0
      vertex -70.1289 -1.44526 9
    endloop
  endfacet
  facet normal 0.844295 0.535879 0
    outer loop
      vertex -70.1289 -1.44526 0
      vertex -69.927 -1.76336 9
      vertex -69.927 -1.76336 0
    endloop
  endfacet
  facet normal -0.125361 0.992111 0
    outer loop
      vertex -66.9379 -2.94686 0
      vertex -67.3116 -2.99408 9
      vertex -66.9379 -2.94686 9
    endloop
  endfacet
  facet normal -0.125361 0.992111 0
    outer loop
      vertex -67.3116 -2.99408 9
      vertex -66.9379 -2.94686 0
      vertex -67.3116 -2.99408 0
    endloop
  endfacet
  facet normal -0.368116 0.92978 0
    outer loop
      vertex -66.2227 -2.71448 0
      vertex -66.573 -2.85317 9
      vertex -66.2227 -2.71448 9
    endloop
  endfacet
  facet normal -0.368116 0.92978 0
    outer loop
      vertex -66.573 -2.85317 9
      vertex -66.2227 -2.71448 0
      vertex -66.573 -2.85317 0
    endloop
  endfacet
  facet normal -0.904838 -0.425756 0
    outer loop
      vertex -64.7107 1.10437 0
      vertex -64.8711 1.44526 9
      vertex -64.8711 1.44526 0
    endloop
  endfacet
  facet normal -0.904838 -0.425756 0
    outer loop
      vertex -64.8711 1.44526 9
      vertex -64.7107 1.10437 0
      vertex -64.7107 1.10437 9
    endloop
  endfacet
  facet normal -0.951071 -0.308971 0
    outer loop
      vertex -64.5943 0.746069 0
      vertex -64.7107 1.10437 9
      vertex -64.7107 1.10437 0
    endloop
  endfacet
  facet normal -0.951071 -0.308971 0
    outer loop
      vertex -64.7107 1.10437 9
      vertex -64.5943 0.746069 0
      vertex -64.5943 0.746069 9
    endloop
  endfacet
  facet normal -0.982285 -0.187395 0
    outer loop
      vertex -64.5237 0.375999 0
      vertex -64.5943 0.746069 9
      vertex -64.5943 0.746069 0
    endloop
  endfacet
  facet normal -0.982285 -0.187395 0
    outer loop
      vertex -64.5943 0.746069 9
      vertex -64.5237 0.375999 0
      vertex -64.5237 0.375999 9
    endloop
  endfacet
  facet normal -0.998019 0.0629072 0
    outer loop
      vertex -64.5237 -0.375999 0
      vertex -64.5 0 9
      vertex -64.5 0 0
    endloop
  endfacet
  facet normal -0.998019 0.0629072 0
    outer loop
      vertex -64.5 0 9
      vertex -64.5237 -0.375999 0
      vertex -64.5237 -0.375999 9
    endloop
  endfacet
  facet normal -0.904838 0.425756 0
    outer loop
      vertex -64.8711 -1.44526 0
      vertex -64.7107 -1.10437 9
      vertex -64.7107 -1.10437 0
    endloop
  endfacet
  facet normal -0.904838 0.425756 0
    outer loop
      vertex -64.7107 -1.10437 9
      vertex -64.8711 -1.44526 0
      vertex -64.8711 -1.44526 9
    endloop
  endfacet
  facet normal -0.951071 0.308971 0
    outer loop
      vertex -64.7107 -1.10437 0
      vertex -64.5943 -0.746069 9
      vertex -64.5943 -0.746069 0
    endloop
  endfacet
  facet normal -0.951071 0.308971 0
    outer loop
      vertex -64.5943 -0.746069 9
      vertex -64.7107 -1.10437 0
      vertex -64.7107 -1.10437 9
    endloop
  endfacet
  facet normal -0.684594 0.728924 0
    outer loop
      vertex -65.3131 -2.05364 0
      vertex -65.5877 -2.31154 9
      vertex -65.3131 -2.05364 9
    endloop
  endfacet
  facet normal -0.684594 0.728924 0
    outer loop
      vertex -65.5877 -2.31154 9
      vertex -65.3131 -2.05364 0
      vertex -65.5877 -2.31154 0
    endloop
  endfacet
  facet normal -0.770566 0.63736 0
    outer loop
      vertex -65.3131 -2.05364 0
      vertex -65.073 -1.76336 9
      vertex -65.073 -1.76336 0
    endloop
  endfacet
  facet normal -0.770566 0.63736 0
    outer loop
      vertex -65.073 -1.76336 9
      vertex -65.3131 -2.05364 0
      vertex -65.3131 -2.05364 9
    endloop
  endfacet
  facet normal -0.844295 0.535879 0
    outer loop
      vertex -65.073 -1.76336 0
      vertex -64.8711 -1.44526 9
      vertex -64.8711 -1.44526 0
    endloop
  endfacet
  facet normal -0.844295 0.535879 0
    outer loop
      vertex -64.8711 -1.44526 9
      vertex -65.073 -1.76336 0
      vertex -65.073 -1.76336 9
    endloop
  endfacet
  facet normal 0.904838 0.425756 0
    outer loop
      vertex -70.1289 -1.44526 9
      vertex -70.2893 -1.10437 0
      vertex -70.2893 -1.10437 9
    endloop
  endfacet
  facet normal 0.904838 0.425756 0
    outer loop
      vertex -70.2893 -1.10437 0
      vertex -70.1289 -1.44526 9
      vertex -70.1289 -1.44526 0
    endloop
  endfacet
  facet normal 0.684594 0.728924 -0
    outer loop
      vertex -69.4123 -2.31154 0
      vertex -69.6869 -2.05364 9
      vertex -69.4123 -2.31154 9
    endloop
  endfacet
  facet normal 0.684594 0.728924 0
    outer loop
      vertex -69.6869 -2.05364 9
      vertex -69.4123 -2.31154 0
      vertex -69.6869 -2.05364 0
    endloop
  endfacet
  facet normal -0.248689 0.968583 0
    outer loop
      vertex -66.573 -2.85317 0
      vertex -66.9379 -2.94686 9
      vertex -66.573 -2.85317 9
    endloop
  endfacet
  facet normal -0.248689 0.968583 0
    outer loop
      vertex -66.9379 -2.94686 9
      vertex -66.573 -2.85317 0
      vertex -66.9379 -2.94686 0
    endloop
  endfacet
  facet normal -0.587768 0.80903 0
    outer loop
      vertex -65.5877 -2.31154 0
      vertex -65.8925 -2.53298 9
      vertex -65.5877 -2.31154 9
    endloop
  endfacet
  facet normal -0.587768 0.80903 0
    outer loop
      vertex -65.8925 -2.53298 9
      vertex -65.5877 -2.31154 0
      vertex -65.8925 -2.53298 0
    endloop
  endfacet
  facet normal 0.587768 0.80903 -0
    outer loop
      vertex -69.1075 -2.53298 0
      vertex -69.4123 -2.31154 9
      vertex -69.1075 -2.53298 9
    endloop
  endfacet
  facet normal 0.587768 0.80903 0
    outer loop
      vertex -69.4123 -2.31154 9
      vertex -69.1075 -2.53298 0
      vertex -69.4123 -2.31154 0
    endloop
  endfacet
  facet normal 0.248689 0.968583 -0
    outer loop
      vertex -68.0621 -2.94686 0
      vertex -68.427 -2.85317 9
      vertex -68.0621 -2.94686 9
    endloop
  endfacet
  facet normal 0.248689 0.968583 0
    outer loop
      vertex -68.427 -2.85317 9
      vertex -68.0621 -2.94686 0
      vertex -68.427 -2.85317 0
    endloop
  endfacet
  facet normal 0.125361 0.992111 -0
    outer loop
      vertex -67.6884 -2.99408 0
      vertex -68.0621 -2.94686 9
      vertex -67.6884 -2.99408 9
    endloop
  endfacet
  facet normal 0.125361 0.992111 0
    outer loop
      vertex -68.0621 -2.94686 9
      vertex -67.6884 -2.99408 0
      vertex -68.0621 -2.94686 0
    endloop
  endfacet
  facet normal 0.982285 0.187395 0
    outer loop
      vertex -70.4057 -0.746069 9
      vertex -70.4763 -0.375999 0
      vertex -70.4763 -0.375999 9
    endloop
  endfacet
  facet normal 0.982285 0.187395 0
    outer loop
      vertex -70.4763 -0.375999 0
      vertex -70.4057 -0.746069 9
      vertex -70.4057 -0.746069 0
    endloop
  endfacet
  facet normal 0.998019 0.0629072 0
    outer loop
      vertex -70.4763 -0.375999 9
      vertex -70.5 0 0
      vertex -70.5 0 9
    endloop
  endfacet
  facet normal 0.998019 0.0629072 0
    outer loop
      vertex -70.5 0 0
      vertex -70.4763 -0.375999 9
      vertex -70.4763 -0.375999 0
    endloop
  endfacet
  facet normal 0.481695 0.876339 -0
    outer loop
      vertex -68.7773 -2.71448 0
      vertex -69.1075 -2.53298 9
      vertex -68.7773 -2.71448 9
    endloop
  endfacet
  facet normal 0.481695 0.876339 0
    outer loop
      vertex -69.1075 -2.53298 9
      vertex -68.7773 -2.71448 0
      vertex -69.1075 -2.53298 0
    endloop
  endfacet
  facet normal 0.951071 0.308971 0
    outer loop
      vertex -70.2893 -1.10437 9
      vertex -70.4057 -0.746069 0
      vertex -70.4057 -0.746069 9
    endloop
  endfacet
  facet normal 0.951071 0.308971 0
    outer loop
      vertex -70.4057 -0.746069 0
      vertex -70.2893 -1.10437 9
      vertex -70.2893 -1.10437 0
    endloop
  endfacet
  facet normal 0.770566 0.63736 0
    outer loop
      vertex -69.6869 -2.05364 9
      vertex -69.927 -1.76336 0
      vertex -69.927 -1.76336 9
    endloop
  endfacet
  facet normal 0.770566 0.63736 0
    outer loop
      vertex -69.927 -1.76336 0
      vertex -69.6869 -2.05364 9
      vertex -69.6869 -2.05364 0
    endloop
  endfacet
  facet normal 0.368116 0.92978 -0
    outer loop
      vertex -68.427 -2.85317 0
      vertex -68.7773 -2.71448 9
      vertex -68.427 -2.85317 9
    endloop
  endfacet
  facet normal 0.368116 0.92978 0
    outer loop
      vertex -68.7773 -2.71448 9
      vertex -68.427 -2.85317 0
      vertex -68.7773 -2.71448 0
    endloop
  endfacet
  facet normal -1 0 0
    outer loop
      vertex -74.5 -2 0
      vertex -74.5 2 9
      vertex -74.5 2 0
    endloop
  endfacet
  facet normal -1 -0 0
    outer loop
      vertex -74.5 2 9
      vertex -74.5 -2 0
      vertex -74.5 -2 9
    endloop
  endfacet
  facet normal -0.998029 -0.0627481 0
    outer loop
      vertex -74.4606 -2.62667 0
      vertex -74.5 -2 9
      vertex -74.5 -2 0
    endloop
  endfacet
  facet normal -0.998029 -0.0627481 0
    outer loop
      vertex -74.5 -2 9
      vertex -74.4606 -2.62667 0
      vertex -74.4606 -2.62667 9
    endloop
  endfacet
  facet normal -0.125313 -0.992117 0
    outer loop
      vertex -70.4369 -6.91144 0
      vertex -69.8139 -6.99013 9
      vertex -70.4369 -6.91144 9
    endloop
  endfacet
  facet normal -0.125313 -0.992117 -0
    outer loop
      vertex -69.8139 -6.99013 9
      vertex -70.4369 -6.91144 0
      vertex -69.8139 -6.99013 0
    endloop
  endfacet
  facet normal 0 1 -0
    outer loop
      vertex 69.8139 6.99013 0
      vertex -69.8139 6.99013 9
      vertex 69.8139 6.99013 9
    endloop
  endfacet
  facet normal 0 1 0
    outer loop
      vertex -69.8139 6.99013 9
      vertex 69.8139 6.99013 0
      vertex -69.8139 6.99013 0
    endloop
  endfacet
  facet normal 0 -1 0
    outer loop
      vertex -69.8139 -6.99013 0
      vertex 69.8139 -6.99013 9
      vertex -69.8139 -6.99013 9
    endloop
  endfacet
  facet normal 0 -1 -0
    outer loop
      vertex 69.8139 -6.99013 9
      vertex -69.8139 -6.99013 0
      vertex 69.8139 -6.99013 0
    endloop
  endfacet
  facet normal -0.998029 0.0627481 0
    outer loop
      vertex -74.5 2 0
      vertex -74.4606 2.62667 9
      vertex -74.4606 2.62667 0
    endloop
  endfacet
  facet normal -0.998029 0.0627481 0
    outer loop
      vertex -74.4606 2.62667 9
      vertex -74.5 2 0
      vertex -74.5 2 9
    endloop
  endfacet
  facet normal 0.904797 -0.425843 0
    outer loop
      vertex 73.8815 -4.40877 9
      vertex 74.1489 -3.84062 0
      vertex 74.1489 -3.84062 9
    endloop
  endfacet
  facet normal 0.904797 -0.425843 0
    outer loop
      vertex 74.1489 -3.84062 0
      vertex 73.8815 -4.40877 9
      vertex 73.8815 -4.40877 0
    endloop
  endfacet
  facet normal -0.368135 -0.929773 0
    outer loop
      vertex -71.6289 -6.52413 0
      vertex -71.0451 -6.75528 9
      vertex -71.6289 -6.52413 9
    endloop
  endfacet
  facet normal -0.368135 -0.929773 -0
    outer loop
      vertex -71.0451 -6.75528 9
      vertex -71.6289 -6.52413 0
      vertex -71.0451 -6.75528 0
    endloop
  endfacet
  facet normal -0.684565 -0.728952 0
    outer loop
      vertex -73.1448 -5.42274 0
      vertex -72.6871 -5.85257 9
      vertex -73.1448 -5.42274 9
    endloop
  endfacet
  facet normal -0.684565 -0.728952 -0
    outer loop
      vertex -72.6871 -5.85257 9
      vertex -73.1448 -5.42274 0
      vertex -72.6871 -5.85257 0
    endloop
  endfacet
  facet normal 1 -0 0
    outer loop
      vertex 74.5 -2 9
      vertex 74.5 2 0
      vertex 74.5 2 9
    endloop
  endfacet
  facet normal 1 0 0
    outer loop
      vertex 74.5 2 0
      vertex 74.5 -2 9
      vertex 74.5 -2 0
    endloop
  endfacet
  facet normal 0.951072 -0.30897 0
    outer loop
      vertex 74.1489 -3.84062 9
      vertex 74.3429 -3.24345 0
      vertex 74.3429 -3.24345 9
    endloop
  endfacet
  facet normal 0.951072 -0.30897 0
    outer loop
      vertex 74.3429 -3.24345 0
      vertex 74.1489 -3.84062 9
      vertex 74.1489 -3.84062 0
    endloop
  endfacet
  facet normal 0.904797 0.425843 0
    outer loop
      vertex 74.1489 3.84062 9
      vertex 73.8815 4.40877 0
      vertex 73.8815 4.40877 9
    endloop
  endfacet
  facet normal 0.904797 0.425843 0
    outer loop
      vertex 73.8815 4.40877 0
      vertex 74.1489 3.84062 9
      vertex 74.1489 3.84062 0
    endloop
  endfacet
  facet normal 0.951072 0.30897 0
    outer loop
      vertex 74.3429 3.24345 9
      vertex 74.1489 3.84062 0
      vertex 74.1489 3.84062 9
    endloop
  endfacet
  facet normal 0.951072 0.30897 0
    outer loop
      vertex 74.1489 3.84062 0
      vertex 74.3429 3.24345 9
      vertex 74.3429 3.24345 0
    endloop
  endfacet
  facet normal 0.684565 0.728952 -0
    outer loop
      vertex 73.1448 5.42274 0
      vertex 72.6871 5.85257 9
      vertex 73.1448 5.42274 9
    endloop
  endfacet
  facet normal 0.684565 0.728952 0
    outer loop
      vertex 72.6871 5.85257 9
      vertex 73.1448 5.42274 0
      vertex 72.6871 5.85257 0
    endloop
  endfacet
  facet normal 0.368135 0.929773 -0
    outer loop
      vertex 71.6289 6.52413 0
      vertex 71.0451 6.75528 9
      vertex 71.6289 6.52413 9
    endloop
  endfacet
  facet normal 0.368135 0.929773 0
    outer loop
      vertex 71.0451 6.75528 9
      vertex 71.6289 6.52413 0
      vertex 71.0451 6.75528 0
    endloop
  endfacet
  facet normal 0.248691 0.968583 -0
    outer loop
      vertex 71.0451 6.75528 0
      vertex 70.4369 6.91144 9
      vertex 71.0451 6.75528 9
    endloop
  endfacet
  facet normal 0.248691 0.968583 0
    outer loop
      vertex 70.4369 6.91144 9
      vertex 71.0451 6.75528 0
      vertex 70.4369 6.91144 0
    endloop
  endfacet
  facet normal 0.125313 0.992117 -0
    outer loop
      vertex 70.4369 6.91144 0
      vertex 69.8139 6.99013 9
      vertex 70.4369 6.91144 9
    endloop
  endfacet
  facet normal 0.125313 0.992117 0
    outer loop
      vertex 69.8139 6.99013 9
      vertex 70.4369 6.91144 0
      vertex 69.8139 6.99013 0
    endloop
  endfacet
  facet normal -0.481772 0.876297 0
    outer loop
      vertex -71.6289 6.52413 0
      vertex -72.1791 6.22164 9
      vertex -71.6289 6.52413 9
    endloop
  endfacet
  facet normal -0.481772 0.876297 0
    outer loop
      vertex -72.1791 6.22164 9
      vertex -71.6289 6.52413 0
      vertex -72.1791 6.22164 0
    endloop
  endfacet
  facet normal -0.248691 0.968583 0
    outer loop
      vertex -70.4369 6.91144 0
      vertex -71.0451 6.75528 9
      vertex -70.4369 6.91144 9
    endloop
  endfacet
  facet normal -0.248691 0.968583 0
    outer loop
      vertex -71.0451 6.75528 9
      vertex -70.4369 6.91144 0
      vertex -71.0451 6.75528 0
    endloop
  endfacet
  facet normal -0.951072 -0.30897 0
    outer loop
      vertex -74.1489 -3.84062 0
      vertex -74.3429 -3.24345 9
      vertex -74.3429 -3.24345 0
    endloop
  endfacet
  facet normal -0.951072 -0.30897 0
    outer loop
      vertex -74.3429 -3.24345 9
      vertex -74.1489 -3.84062 0
      vertex -74.1489 -3.84062 9
    endloop
  endfacet
  facet normal -0.770468 -0.637478 0
    outer loop
      vertex -73.1448 -5.42274 0
      vertex -73.5451 -4.93893 9
      vertex -73.5451 -4.93893 0
    endloop
  endfacet
  facet normal -0.770468 -0.637478 0
    outer loop
      vertex -73.5451 -4.93893 9
      vertex -73.1448 -5.42274 0
      vertex -73.1448 -5.42274 9
    endloop
  endfacet
  facet normal -0.904797 -0.425843 0
    outer loop
      vertex -73.8815 -4.40877 0
      vertex -74.1489 -3.84062 9
      vertex -74.1489 -3.84062 0
    endloop
  endfacet
  facet normal -0.904797 -0.425843 0
    outer loop
      vertex -74.1489 -3.84062 9
      vertex -73.8815 -4.40877 0
      vertex -73.8815 -4.40877 9
    endloop
  endfacet
  facet normal -0.248691 -0.968583 0
    outer loop
      vertex -71.0451 -6.75528 0
      vertex -70.4369 -6.91144 9
      vertex -71.0451 -6.75528 9
    endloop
  endfacet
  facet normal -0.248691 -0.968583 -0
    outer loop
      vertex -70.4369 -6.91144 9
      vertex -71.0451 -6.75528 0
      vertex -70.4369 -6.91144 0
    endloop
  endfacet
  facet normal -0.587771 -0.809027 0
    outer loop
      vertex -72.6871 -5.85257 0
      vertex -72.1791 -6.22164 9
      vertex -72.6871 -5.85257 9
    endloop
  endfacet
  facet normal -0.587771 -0.809027 -0
    outer loop
      vertex -72.1791 -6.22164 9
      vertex -72.6871 -5.85257 0
      vertex -72.1791 -6.22164 0
    endloop
  endfacet
  facet normal 0.998029 -0.0627481 0
    outer loop
      vertex 74.4606 -2.62667 9
      vertex 74.5 -2 0
      vertex 74.5 -2 9
    endloop
  endfacet
  facet normal 0.998029 -0.0627481 0
    outer loop
      vertex 74.5 -2 0
      vertex 74.4606 -2.62667 9
      vertex 74.4606 -2.62667 0
    endloop
  endfacet
  facet normal 0.587771 -0.809027 0
    outer loop
      vertex 72.1791 -6.22164 0
      vertex 72.6871 -5.85257 9
      vertex 72.1791 -6.22164 9
    endloop
  endfacet
  facet normal 0.587771 -0.809027 0
    outer loop
      vertex 72.6871 -5.85257 9
      vertex 72.1791 -6.22164 0
      vertex 72.6871 -5.85257 0
    endloop
  endfacet
  facet normal 0.770468 -0.637478 0
    outer loop
      vertex 73.1448 -5.42274 9
      vertex 73.5451 -4.93893 0
      vertex 73.5451 -4.93893 9
    endloop
  endfacet
  facet normal 0.770468 -0.637478 0
    outer loop
      vertex 73.5451 -4.93893 0
      vertex 73.1448 -5.42274 9
      vertex 73.1448 -5.42274 0
    endloop
  endfacet
  facet normal 0.368135 -0.929773 0
    outer loop
      vertex 71.0451 -6.75528 0
      vertex 71.6289 -6.52413 9
      vertex 71.0451 -6.75528 9
    endloop
  endfacet
  facet normal 0.368135 -0.929773 0
    outer loop
      vertex 71.6289 -6.52413 9
      vertex 71.0451 -6.75528 0
      vertex 71.6289 -6.52413 0
    endloop
  endfacet
  facet normal 0.125313 -0.992117 0
    outer loop
      vertex 69.8139 -6.99013 0
      vertex 70.4369 -6.91144 9
      vertex 69.8139 -6.99013 9
    endloop
  endfacet
  facet normal 0.125313 -0.992117 0
    outer loop
      vertex 70.4369 -6.91144 9
      vertex 69.8139 -6.99013 0
      vertex 70.4369 -6.91144 0
    endloop
  endfacet
  facet normal 0.770468 0.637478 0
    outer loop
      vertex 73.5451 4.93893 9
      vertex 73.1448 5.42274 0
      vertex 73.1448 5.42274 9
    endloop
  endfacet
  facet normal 0.770468 0.637478 0
    outer loop
      vertex 73.1448 5.42274 0
      vertex 73.5451 4.93893 9
      vertex 73.5451 4.93893 0
    endloop
  endfacet
  facet normal 0.844364 0.53577 0
    outer loop
      vertex 73.8815 4.40877 9
      vertex 73.5451 4.93893 0
      vertex 73.5451 4.93893 9
    endloop
  endfacet
  facet normal 0.844364 0.53577 0
    outer loop
      vertex 73.5451 4.93893 0
      vertex 73.8815 4.40877 9
      vertex 73.8815 4.40877 0
    endloop
  endfacet
  facet normal 0.587771 0.809027 -0
    outer loop
      vertex 72.6871 5.85257 0
      vertex 72.1791 6.22164 9
      vertex 72.6871 5.85257 9
    endloop
  endfacet
  facet normal 0.587771 0.809027 0
    outer loop
      vertex 72.1791 6.22164 9
      vertex 72.6871 5.85257 0
      vertex 72.1791 6.22164 0
    endloop
  endfacet
  facet normal 0.481772 0.876297 -0
    outer loop
      vertex 72.1791 6.22164 0
      vertex 71.6289 6.52413 9
      vertex 72.1791 6.22164 9
    endloop
  endfacet
  facet normal 0.481772 0.876297 0
    outer loop
      vertex 71.6289 6.52413 9
      vertex 72.1791 6.22164 0
      vertex 71.6289 6.52413 0
    endloop
  endfacet
  facet normal -0.125313 0.992117 0
    outer loop
      vertex -69.8139 6.99013 0
      vertex -70.4369 6.91144 9
      vertex -69.8139 6.99013 9
    endloop
  endfacet
  facet normal -0.125313 0.992117 0
    outer loop
      vertex -70.4369 6.91144 9
      vertex -69.8139 6.99013 0
      vertex -70.4369 6.91144 0
    endloop
  endfacet
  facet normal -0.368135 0.929773 0
    outer loop
      vertex -71.0451 6.75528 0
      vertex -71.6289 6.52413 9
      vertex -71.0451 6.75528 9
    endloop
  endfacet
  facet normal -0.368135 0.929773 0
    outer loop
      vertex -71.6289 6.52413 9
      vertex -71.0451 6.75528 0
      vertex -71.6289 6.52413 0
    endloop
  endfacet
  facet normal -0.982275 0.187447 0
    outer loop
      vertex -74.4606 2.62667 0
      vertex -74.3429 3.24345 9
      vertex -74.3429 3.24345 0
    endloop
  endfacet
  facet normal -0.982275 0.187447 0
    outer loop
      vertex -74.3429 3.24345 9
      vertex -74.4606 2.62667 0
      vertex -74.4606 2.62667 9
    endloop
  endfacet
  facet normal -0.951072 0.30897 0
    outer loop
      vertex -74.3429 3.24345 0
      vertex -74.1489 3.84062 9
      vertex -74.1489 3.84062 0
    endloop
  endfacet
  facet normal -0.951072 0.30897 0
    outer loop
      vertex -74.1489 3.84062 9
      vertex -74.3429 3.24345 0
      vertex -74.3429 3.24345 9
    endloop
  endfacet
  facet normal -0.982275 -0.187447 0
    outer loop
      vertex -74.3429 -3.24345 0
      vertex -74.4606 -2.62667 9
      vertex -74.4606 -2.62667 0
    endloop
  endfacet
  facet normal -0.982275 -0.187447 0
    outer loop
      vertex -74.4606 -2.62667 9
      vertex -74.3429 -3.24345 0
      vertex -74.3429 -3.24345 9
    endloop
  endfacet
  facet normal -0.844364 -0.53577 0
    outer loop
      vertex -73.5451 -4.93893 0
      vertex -73.8815 -4.40877 9
      vertex -73.8815 -4.40877 0
    endloop
  endfacet
  facet normal -0.844364 -0.53577 0
    outer loop
      vertex -73.8815 -4.40877 9
      vertex -73.5451 -4.93893 0
      vertex -73.5451 -4.93893 9
    endloop
  endfacet
  facet normal -0.481772 -0.876297 0
    outer loop
      vertex -72.1791 -6.22164 0
      vertex -71.6289 -6.52413 9
      vertex -72.1791 -6.22164 9
    endloop
  endfacet
  facet normal -0.481772 -0.876297 -0
    outer loop
      vertex -71.6289 -6.52413 9
      vertex -72.1791 -6.22164 0
      vertex -71.6289 -6.52413 0
    endloop
  endfacet
  facet normal 0.982275 -0.187447 0
    outer loop
      vertex 74.3429 -3.24345 9
      vertex 74.4606 -2.62667 0
      vertex 74.4606 -2.62667 9
    endloop
  endfacet
  facet normal 0.982275 -0.187447 0
    outer loop
      vertex 74.4606 -2.62667 0
      vertex 74.3429 -3.24345 9
      vertex 74.3429 -3.24345 0
    endloop
  endfacet
  facet normal 0.684565 -0.728952 0
    outer loop
      vertex 72.6871 -5.85257 0
      vertex 73.1448 -5.42274 9
      vertex 72.6871 -5.85257 9
    endloop
  endfacet
  facet normal 0.684565 -0.728952 0
    outer loop
      vertex 73.1448 -5.42274 9
      vertex 72.6871 -5.85257 0
      vertex 73.1448 -5.42274 0
    endloop
  endfacet
  facet normal 0.844364 -0.53577 0
    outer loop
      vertex 73.5451 -4.93893 9
      vertex 73.8815 -4.40877 0
      vertex 73.8815 -4.40877 9
    endloop
  endfacet
  facet normal 0.844364 -0.53577 0
    outer loop
      vertex 73.8815 -4.40877 0
      vertex 73.5451 -4.93893 9
      vertex 73.5451 -4.93893 0
    endloop
  endfacet
  facet normal 0.481772 -0.876297 0
    outer loop
      vertex 71.6289 -6.52413 0
      vertex 72.1791 -6.22164 9
      vertex 71.6289 -6.52413 9
    endloop
  endfacet
  facet normal 0.481772 -0.876297 0
    outer loop
      vertex 72.1791 -6.22164 9
      vertex 71.6289 -6.52413 0
      vertex 72.1791 -6.22164 0
    endloop
  endfacet
  facet normal 0.248691 -0.968583 0
    outer loop
      vertex 70.4369 -6.91144 0
      vertex 71.0451 -6.75528 9
      vertex 70.4369 -6.91144 9
    endloop
  endfacet
  facet normal 0.248691 -0.968583 0
    outer loop
      vertex 71.0451 -6.75528 9
      vertex 70.4369 -6.91144 0
      vertex 71.0451 -6.75528 0
    endloop
  endfacet
  facet normal -0.684565 0.728952 0
    outer loop
      vertex -72.6871 5.85257 0
      vertex -73.1448 5.42274 9
      vertex -72.6871 5.85257 9
    endloop
  endfacet
  facet normal -0.684565 0.728952 0
    outer loop
      vertex -73.1448 5.42274 9
      vertex -72.6871 5.85257 0
      vertex -73.1448 5.42274 0
    endloop
  endfacet
  facet normal -0.587771 0.809027 0
    outer loop
      vertex -72.1791 6.22164 0
      vertex -72.6871 5.85257 9
      vertex -72.1791 6.22164 9
    endloop
  endfacet
  facet normal -0.587771 0.809027 0
    outer loop
      vertex -72.6871 5.85257 9
      vertex -72.1791 6.22164 0
      vertex -72.6871 5.85257 0
    endloop
  endfacet
  facet normal -0.844364 0.53577 0
    outer loop
      vertex -73.8815 4.40877 0
      vertex -73.5451 4.93893 9
      vertex -73.5451 4.93893 0
    endloop
  endfacet
  facet normal -0.844364 0.53577 0
    outer loop
      vertex -73.5451 4.93893 9
      vertex -73.8815 4.40877 0
      vertex -73.8815 4.40877 9
    endloop
  endfacet
  facet normal -0.770468 0.637478 0
    outer loop
      vertex -73.5451 4.93893 0
      vertex -73.1448 5.42274 9
      vertex -73.1448 5.42274 0
    endloop
  endfacet
  facet normal -0.770468 0.637478 0
    outer loop
      vertex -73.1448 5.42274 9
      vertex -73.5451 4.93893 0
      vertex -73.5451 4.93893 9
    endloop
  endfacet
  facet normal -0.904797 0.425843 0
    outer loop
      vertex -74.1489 3.84062 0
      vertex -73.8815 4.40877 9
      vertex -73.8815 4.40877 0
    endloop
  endfacet
  facet normal -0.904797 0.425843 0
    outer loop
      vertex -73.8815 4.40877 9
      vertex -74.1489 3.84062 0
      vertex -74.1489 3.84062 9
    endloop
  endfacet
  facet normal 0.982275 0.187447 0
    outer loop
      vertex 74.4606 2.62667 9
      vertex 74.3429 3.24345 0
      vertex 74.3429 3.24345 9
    endloop
  endfacet
  facet normal 0.982275 0.187447 0
    outer loop
      vertex 74.3429 3.24345 0
      vertex 74.4606 2.62667 9
      vertex 74.4606 2.62667 0
    endloop
  endfacet
  facet normal 0.998029 0.0627481 0
    outer loop
      vertex 74.5 2 9
      vertex 74.4606 2.62667 0
      vertex 74.4606 2.62667 9
    endloop
  endfacet
  facet normal 0.998029 0.0627481 0
    outer loop
      vertex 74.4606 2.62667 0
      vertex 74.5 2 9
      vertex 74.5 2 0
    endloop
  endfacet
endsolid OpenSCAD_Model
