  0
SECTION
  2
BLOCKS
  0
ENDSEC
  0
SECTION
  2
ENTITIES
  0
LINE
  8
0
 10
32.9369
 20
215.089
 11
33.5451
 21
215.245
  0
LINE
  8
0
 10
33.5451
 20
215.245
 11
34.1289
 21
215.476
  0
LINE
  8
0
 10
34.1289
 20
215.476
 11
34.6791
 21
215.778
  0
LINE
  8
0
 10
34.6791
 20
215.778
 11
35.1871
 21
216.147
  0
LINE
  8
0
 10
35.1871
 20
216.147
 11
35.6448
 21
216.577
  0
LINE
  8
0
 10
35.6448
 20
216.577
 11
36.0451
 21
217.061
  0
LINE
  8
0
 10
36.0451
 20
217.061
 11
36.3815
 21
217.591
  0
LINE
  8
0
 10
36.3815
 20
217.591
 11
36.6489
 21
218.159
  0
LINE
  8
0
 10
36.6489
 20
218.159
 11
36.8429
 21
218.757
  0
LINE
  8
0
 10
36.8429
 20
218.757
 11
36.9606
 21
219.373
  0
LINE
  8
0
 10
36.9606
 20
219.373
 11
37
 21
220
  0
LINE
  8
0
 10
37
 20
220
 11
37
 21
284
  0
LINE
  8
0
 10
37
 20
284
 11
36.9606
 21
284.627
  0
LINE
  8
0
 10
36.9606
 20
284.627
 11
36.8429
 21
285.243
  0
LINE
  8
0
 10
36.8429
 20
285.243
 11
36.6489
 21
285.841
  0
LINE
  8
0
 10
36.6489
 20
285.841
 11
36.3815
 21
286.409
  0
LINE
  8
0
 10
36.3815
 20
286.409
 11
36.0451
 21
286.939
  0
LINE
  8
0
 10
36.0451
 20
286.939
 11
35.6448
 21
287.423
  0
LINE
  8
0
 10
35.6448
 20
287.423
 11
35.1871
 21
287.853
  0
LINE
  8
0
 10
35.1871
 20
287.853
 11
34.6791
 21
288.222
  0
LINE
  8
0
 10
34.6791
 20
288.222
 11
34.1289
 21
288.524
  0
LINE
  8
0
 10
34.1289
 20
288.524
 11
33.5451
 21
288.755
  0
LINE
  8
0
 10
33.5451
 20
288.755
 11
32.9369
 21
288.911
  0
LINE
  8
0
 10
32.9369
 20
288.911
 11
32.3139
 21
288.99
  0
LINE
  8
0
 10
32.3139
 20
288.99
 11
-32.3139
 21
288.99
  0
LINE
  8
0
 10
-32.3139
 20
288.99
 11
-32.9369
 21
288.911
  0
LINE
  8
0
 10
-32.9369
 20
288.911
 11
-33.5451
 21
288.755
  0
LINE
  8
0
 10
-33.5451
 20
288.755
 11
-34.1289
 21
288.524
  0
LINE
  8
0
 10
-34.1289
 20
288.524
 11
-34.6791
 21
288.222
  0
LINE
  8
0
 10
-34.6791
 20
288.222
 11
-35.1871
 21
287.853
  0
LINE
  8
0
 10
-35.1871
 20
287.853
 11
-35.6448
 21
287.423
  0
LINE
  8
0
 10
-35.6448
 20
287.423
 11
-36.0451
 21
286.939
  0
LINE
  8
0
 10
-36.0451
 20
286.939
 11
-36.3815
 21
286.409
  0
LINE
  8
0
 10
-36.3815
 20
286.409
 11
-36.6489
 21
285.841
  0
LINE
  8
0
 10
-36.6489
 20
285.841
 11
-36.8429
 21
285.243
  0
LINE
  8
0
 10
-36.8429
 20
285.243
 11
-36.9606
 21
284.627
  0
LINE
  8
0
 10
-36.9606
 20
284.627
 11
-37
 21
284
  0
LINE
  8
0
 10
-37
 20
284
 11
-37
 21
220
  0
LINE
  8
0
 10
-37
 20
220
 11
-36.9606
 21
219.373
  0
LINE
  8
0
 10
-36.9606
 20
219.373
 11
-36.8429
 21
218.757
  0
LINE
  8
0
 10
-36.8429
 20
218.757
 11
-36.6489
 21
218.159
  0
LINE
  8
0
 10
-36.6489
 20
218.159
 11
-36.3815
 21
217.591
  0
LINE
  8
0
 10
-36.3815
 20
217.591
 11
-36.0451
 21
217.061
  0
LINE
  8
0
 10
-36.0451
 20
217.061
 11
-35.6448
 21
216.577
  0
LINE
  8
0
 10
-35.6448
 20
216.577
 11
-35.1871
 21
216.147
  0
LINE
  8
0
 10
-35.1871
 20
216.147
 11
-34.6791
 21
215.778
  0
LINE
  8
0
 10
-34.6791
 20
215.778
 11
-34.1289
 21
215.476
  0
LINE
  8
0
 10
-34.1289
 20
215.476
 11
-33.5451
 21
215.245
  0
LINE
  8
0
 10
-33.5451
 20
215.245
 11
-32.9369
 21
215.089
  0
LINE
  8
0
 10
-32.9369
 20
215.089
 11
-32.3139
 21
215.01
  0
LINE
  8
0
 10
-32.3139
 20
215.01
 11
32.3139
 21
215.01
  0
LINE
  8
0
 10
32.3139
 20
215.01
 11
32.9369
 21
215.089
  0
LINE
  8
0
 10
29.8116
 20
279.006
 11
29.4379
 21
279.053
  0
LINE
  8
0
 10
29.4379
 20
279.053
 11
29.0729
 21
279.147
  0
LINE
  8
0
 10
29.0729
 20
279.147
 11
28.7227
 21
279.286
  0
LINE
  8
0
 10
28.7227
 20
279.286
 11
28.3925
 21
279.467
  0
LINE
  8
0
 10
28.3925
 20
279.467
 11
28.0877
 21
279.688
  0
LINE
  8
0
 10
28.0877
 20
279.688
 11
27.8131
 21
279.946
  0
LINE
  8
0
 10
27.8131
 20
279.946
 11
27.5729
 21
280.237
  0
LINE
  8
0
 10
27.5729
 20
280.237
 11
27.3711
 21
280.555
  0
LINE
  8
0
 10
27.3711
 20
280.555
 11
27.2107
 21
280.896
  0
LINE
  8
0
 10
27.2107
 20
280.896
 11
27.0942
 21
281.254
  0
LINE
  8
0
 10
27.0942
 20
281.254
 11
27.0237
 21
281.624
  0
LINE
  8
0
 10
27.0237
 20
281.624
 11
27
 21
282
  0
LINE
  8
0
 10
27
 20
282
 11
27.0237
 21
282.376
  0
LINE
  8
0
 10
27.0237
 20
282.376
 11
27.0942
 21
282.746
  0
LINE
  8
0
 10
27.0942
 20
282.746
 11
27.2107
 21
283.104
  0
LINE
  8
0
 10
27.2107
 20
283.104
 11
27.3711
 21
283.445
  0
LINE
  8
0
 10
27.3711
 20
283.445
 11
27.5729
 21
283.763
  0
LINE
  8
0
 10
27.5729
 20
283.763
 11
27.8131
 21
284.054
  0
LINE
  8
0
 10
27.8131
 20
284.054
 11
28.0877
 21
284.312
  0
LINE
  8
0
 10
28.0877
 20
284.312
 11
28.3925
 21
284.533
  0
LINE
  8
0
 10
28.3925
 20
284.533
 11
28.7227
 21
284.714
  0
LINE
  8
0
 10
28.7227
 20
284.714
 11
29.0729
 21
284.853
  0
LINE
  8
0
 10
29.0729
 20
284.853
 11
29.4379
 21
284.947
  0
LINE
  8
0
 10
29.4379
 20
284.947
 11
29.8116
 21
284.994
  0
LINE
  8
0
 10
29.8116
 20
284.994
 11
30.1884
 21
284.994
  0
LINE
  8
0
 10
30.1884
 20
284.994
 11
30.5621
 21
284.947
  0
LINE
  8
0
 10
30.5621
 20
284.947
 11
30.927
 21
284.853
  0
LINE
  8
0
 10
30.927
 20
284.853
 11
31.2773
 21
284.714
  0
LINE
  8
0
 10
31.2773
 20
284.714
 11
31.6075
 21
284.533
  0
LINE
  8
0
 10
31.6075
 20
284.533
 11
31.9123
 21
284.312
  0
LINE
  8
0
 10
31.9123
 20
284.312
 11
32.1869
 21
284.054
  0
LINE
  8
0
 10
32.1869
 20
284.054
 11
32.427
 21
283.763
  0
LINE
  8
0
 10
32.427
 20
283.763
 11
32.6289
 21
283.445
  0
LINE
  8
0
 10
32.6289
 20
283.445
 11
32.7893
 21
283.104
  0
LINE
  8
0
 10
32.7893
 20
283.104
 11
32.9057
 21
282.746
  0
LINE
  8
0
 10
32.9057
 20
282.746
 11
32.9763
 21
282.376
  0
LINE
  8
0
 10
32.9763
 20
282.376
 11
33
 21
282
  0
LINE
  8
0
 10
33
 20
282
 11
32.9763
 21
281.624
  0
LINE
  8
0
 10
32.9763
 20
281.624
 11
32.9057
 21
281.254
  0
LINE
  8
0
 10
32.9057
 20
281.254
 11
32.7893
 21
280.896
  0
LINE
  8
0
 10
32.7893
 20
280.896
 11
32.6289
 21
280.555
  0
LINE
  8
0
 10
32.6289
 20
280.555
 11
32.427
 21
280.237
  0
LINE
  8
0
 10
32.427
 20
280.237
 11
32.1869
 21
279.946
  0
LINE
  8
0
 10
32.1869
 20
279.946
 11
31.9123
 21
279.688
  0
LINE
  8
0
 10
31.9123
 20
279.688
 11
31.6075
 21
279.467
  0
LINE
  8
0
 10
31.6075
 20
279.467
 11
31.2773
 21
279.286
  0
LINE
  8
0
 10
31.2773
 20
279.286
 11
30.927
 21
279.147
  0
LINE
  8
0
 10
30.927
 20
279.147
 11
30.5621
 21
279.053
  0
LINE
  8
0
 10
30.5621
 20
279.053
 11
30.1884
 21
279.006
  0
LINE
  8
0
 10
30.1884
 20
279.006
 11
29.8116
 21
279.006
  0
LINE
  8
0
 10
-30.1884
 20
279.006
 11
-30.5621
 21
279.053
  0
LINE
  8
0
 10
-30.5621
 20
279.053
 11
-30.927
 21
279.147
  0
LINE
  8
0
 10
-30.927
 20
279.147
 11
-31.2773
 21
279.286
  0
LINE
  8
0
 10
-31.2773
 20
279.286
 11
-31.6075
 21
279.467
  0
LINE
  8
0
 10
-31.6075
 20
279.467
 11
-31.9123
 21
279.688
  0
LINE
  8
0
 10
-31.9123
 20
279.688
 11
-32.1869
 21
279.946
  0
LINE
  8
0
 10
-32.1869
 20
279.946
 11
-32.427
 21
280.237
  0
LINE
  8
0
 10
-32.427
 20
280.237
 11
-32.6289
 21
280.555
  0
LINE
  8
0
 10
-32.6289
 20
280.555
 11
-32.7893
 21
280.896
  0
LINE
  8
0
 10
-32.7893
 20
280.896
 11
-32.9057
 21
281.254
  0
LINE
  8
0
 10
-32.9057
 20
281.254
 11
-32.9763
 21
281.624
  0
LINE
  8
0
 10
-32.9763
 20
281.624
 11
-33
 21
282
  0
LINE
  8
0
 10
-33
 20
282
 11
-32.9763
 21
282.376
  0
LINE
  8
0
 10
-32.9763
 20
282.376
 11
-32.9057
 21
282.746
  0
LINE
  8
0
 10
-32.9057
 20
282.746
 11
-32.7893
 21
283.104
  0
LINE
  8
0
 10
-32.7893
 20
283.104
 11
-32.6289
 21
283.445
  0
LINE
  8
0
 10
-32.6289
 20
283.445
 11
-32.427
 21
283.763
  0
LINE
  8
0
 10
-32.427
 20
283.763
 11
-32.1869
 21
284.054
  0
LINE
  8
0
 10
-32.1869
 20
284.054
 11
-31.9123
 21
284.312
  0
LINE
  8
0
 10
-31.9123
 20
284.312
 11
-31.6075
 21
284.533
  0
LINE
  8
0
 10
-31.6075
 20
284.533
 11
-31.2773
 21
284.714
  0
LINE
  8
0
 10
-31.2773
 20
284.714
 11
-30.927
 21
284.853
  0
LINE
  8
0
 10
-30.927
 20
284.853
 11
-30.5621
 21
284.947
  0
LINE
  8
0
 10
-30.5621
 20
284.947
 11
-30.1884
 21
284.994
  0
LINE
  8
0
 10
-30.1884
 20
284.994
 11
-29.8116
 21
284.994
  0
LINE
  8
0
 10
-29.8116
 20
284.994
 11
-29.4379
 21
284.947
  0
LINE
  8
0
 10
-29.4379
 20
284.947
 11
-29.0729
 21
284.853
  0
LINE
  8
0
 10
-29.0729
 20
284.853
 11
-28.7227
 21
284.714
  0
LINE
  8
0
 10
-28.7227
 20
284.714
 11
-28.3925
 21
284.533
  0
LINE
  8
0
 10
-28.3925
 20
284.533
 11
-28.0877
 21
284.312
  0
LINE
  8
0
 10
-28.0877
 20
284.312
 11
-27.8131
 21
284.054
  0
LINE
  8
0
 10
-27.8131
 20
284.054
 11
-27.5729
 21
283.763
  0
LINE
  8
0
 10
-27.5729
 20
283.763
 11
-27.3711
 21
283.445
  0
LINE
  8
0
 10
-27.3711
 20
283.445
 11
-27.2107
 21
283.104
  0
LINE
  8
0
 10
-27.2107
 20
283.104
 11
-27.0942
 21
282.746
  0
LINE
  8
0
 10
-27.0942
 20
282.746
 11
-27.0237
 21
282.376
  0
LINE
  8
0
 10
-27.0237
 20
282.376
 11
-27
 21
282
  0
LINE
  8
0
 10
-27
 20
282
 11
-27.0237
 21
281.624
  0
LINE
  8
0
 10
-27.0237
 20
281.624
 11
-27.0942
 21
281.254
  0
LINE
  8
0
 10
-27.0942
 20
281.254
 11
-27.2107
 21
280.896
  0
LINE
  8
0
 10
-27.2107
 20
280.896
 11
-27.3711
 21
280.555
  0
LINE
  8
0
 10
-27.3711
 20
280.555
 11
-27.5729
 21
280.237
  0
LINE
  8
0
 10
-27.5729
 20
280.237
 11
-27.8131
 21
279.946
  0
LINE
  8
0
 10
-27.8131
 20
279.946
 11
-28.0877
 21
279.688
  0
LINE
  8
0
 10
-28.0877
 20
279.688
 11
-28.3925
 21
279.467
  0
LINE
  8
0
 10
-28.3925
 20
279.467
 11
-28.7227
 21
279.286
  0
LINE
  8
0
 10
-28.7227
 20
279.286
 11
-29.0729
 21
279.147
  0
LINE
  8
0
 10
-29.0729
 20
279.147
 11
-29.4379
 21
279.053
  0
LINE
  8
0
 10
-29.4379
 20
279.053
 11
-29.8116
 21
279.006
  0
LINE
  8
0
 10
-29.8116
 20
279.006
 11
-30.1884
 21
279.006
  0
LINE
  8
0
 10
29.8116
 20
219.006
 11
29.4379
 21
219.053
  0
LINE
  8
0
 10
29.4379
 20
219.053
 11
29.0729
 21
219.147
  0
LINE
  8
0
 10
29.0729
 20
219.147
 11
28.7227
 21
219.286
  0
LINE
  8
0
 10
28.7227
 20
219.286
 11
28.3925
 21
219.467
  0
LINE
  8
0
 10
28.3925
 20
219.467
 11
28.0877
 21
219.688
  0
LINE
  8
0
 10
28.0877
 20
219.688
 11
27.8131
 21
219.946
  0
LINE
  8
0
 10
27.8131
 20
219.946
 11
27.5729
 21
220.237
  0
LINE
  8
0
 10
27.5729
 20
220.237
 11
27.3711
 21
220.555
  0
LINE
  8
0
 10
27.3711
 20
220.555
 11
27.2107
 21
220.896
  0
LINE
  8
0
 10
27.2107
 20
220.896
 11
27.0942
 21
221.254
  0
LINE
  8
0
 10
27.0942
 20
221.254
 11
27.0237
 21
221.624
  0
LINE
  8
0
 10
27.0237
 20
221.624
 11
27
 21
222
  0
LINE
  8
0
 10
27
 20
222
 11
27.0237
 21
222.376
  0
LINE
  8
0
 10
27.0237
 20
222.376
 11
27.0942
 21
222.746
  0
LINE
  8
0
 10
27.0942
 20
222.746
 11
27.2107
 21
223.104
  0
LINE
  8
0
 10
27.2107
 20
223.104
 11
27.3711
 21
223.445
  0
LINE
  8
0
 10
27.3711
 20
223.445
 11
27.5729
 21
223.763
  0
LINE
  8
0
 10
27.5729
 20
223.763
 11
27.8131
 21
224.054
  0
LINE
  8
0
 10
27.8131
 20
224.054
 11
28.0877
 21
224.312
  0
LINE
  8
0
 10
28.0877
 20
224.312
 11
28.3925
 21
224.533
  0
LINE
  8
0
 10
28.3925
 20
224.533
 11
28.7227
 21
224.714
  0
LINE
  8
0
 10
28.7227
 20
224.714
 11
29.0729
 21
224.853
  0
LINE
  8
0
 10
29.0729
 20
224.853
 11
29.4379
 21
224.947
  0
LINE
  8
0
 10
29.4379
 20
224.947
 11
29.8116
 21
224.994
  0
LINE
  8
0
 10
29.8116
 20
224.994
 11
30.1884
 21
224.994
  0
LINE
  8
0
 10
30.1884
 20
224.994
 11
30.5621
 21
224.947
  0
LINE
  8
0
 10
30.5621
 20
224.947
 11
30.927
 21
224.853
  0
LINE
  8
0
 10
30.927
 20
224.853
 11
31.2773
 21
224.714
  0
LINE
  8
0
 10
31.2773
 20
224.714
 11
31.6075
 21
224.533
  0
LINE
  8
0
 10
31.6075
 20
224.533
 11
31.9123
 21
224.312
  0
LINE
  8
0
 10
31.9123
 20
224.312
 11
32.1869
 21
224.054
  0
LINE
  8
0
 10
32.1869
 20
224.054
 11
32.427
 21
223.763
  0
LINE
  8
0
 10
32.427
 20
223.763
 11
32.6289
 21
223.445
  0
LINE
  8
0
 10
32.6289
 20
223.445
 11
32.7893
 21
223.104
  0
LINE
  8
0
 10
32.7893
 20
223.104
 11
32.9057
 21
222.746
  0
LINE
  8
0
 10
32.9057
 20
222.746
 11
32.9763
 21
222.376
  0
LINE
  8
0
 10
32.9763
 20
222.376
 11
33
 21
222
  0
LINE
  8
0
 10
33
 20
222
 11
32.9763
 21
221.624
  0
LINE
  8
0
 10
32.9763
 20
221.624
 11
32.9057
 21
221.254
  0
LINE
  8
0
 10
32.9057
 20
221.254
 11
32.7893
 21
220.896
  0
LINE
  8
0
 10
32.7893
 20
220.896
 11
32.6289
 21
220.555
  0
LINE
  8
0
 10
32.6289
 20
220.555
 11
32.427
 21
220.237
  0
LINE
  8
0
 10
32.427
 20
220.237
 11
32.1869
 21
219.946
  0
LINE
  8
0
 10
32.1869
 20
219.946
 11
31.9123
 21
219.688
  0
LINE
  8
0
 10
31.9123
 20
219.688
 11
31.6075
 21
219.467
  0
LINE
  8
0
 10
31.6075
 20
219.467
 11
31.2773
 21
219.286
  0
LINE
  8
0
 10
31.2773
 20
219.286
 11
30.927
 21
219.147
  0
LINE
  8
0
 10
30.927
 20
219.147
 11
30.5621
 21
219.053
  0
LINE
  8
0
 10
30.5621
 20
219.053
 11
30.1884
 21
219.006
  0
LINE
  8
0
 10
30.1884
 20
219.006
 11
29.8116
 21
219.006
  0
LINE
  8
0
 10
-30.1884
 20
219.006
 11
-30.5621
 21
219.053
  0
LINE
  8
0
 10
-30.5621
 20
219.053
 11
-30.927
 21
219.147
  0
LINE
  8
0
 10
-30.927
 20
219.147
 11
-31.2773
 21
219.286
  0
LINE
  8
0
 10
-31.2773
 20
219.286
 11
-31.6075
 21
219.467
  0
LINE
  8
0
 10
-31.6075
 20
219.467
 11
-31.9123
 21
219.688
  0
LINE
  8
0
 10
-31.9123
 20
219.688
 11
-32.1869
 21
219.946
  0
LINE
  8
0
 10
-32.1869
 20
219.946
 11
-32.427
 21
220.237
  0
LINE
  8
0
 10
-32.427
 20
220.237
 11
-32.6289
 21
220.555
  0
LINE
  8
0
 10
-32.6289
 20
220.555
 11
-32.7893
 21
220.896
  0
LINE
  8
0
 10
-32.7893
 20
220.896
 11
-32.9057
 21
221.254
  0
LINE
  8
0
 10
-32.9057
 20
221.254
 11
-32.9763
 21
221.624
  0
LINE
  8
0
 10
-32.9763
 20
221.624
 11
-33
 21
222
  0
LINE
  8
0
 10
-33
 20
222
 11
-32.9763
 21
222.376
  0
LINE
  8
0
 10
-32.9763
 20
222.376
 11
-32.9057
 21
222.746
  0
LINE
  8
0
 10
-32.9057
 20
222.746
 11
-32.7893
 21
223.104
  0
LINE
  8
0
 10
-32.7893
 20
223.104
 11
-32.6289
 21
223.445
  0
LINE
  8
0
 10
-32.6289
 20
223.445
 11
-32.427
 21
223.763
  0
LINE
  8
0
 10
-32.427
 20
223.763
 11
-32.1869
 21
224.054
  0
LINE
  8
0
 10
-32.1869
 20
224.054
 11
-31.9123
 21
224.312
  0
LINE
  8
0
 10
-31.9123
 20
224.312
 11
-31.6075
 21
224.533
  0
LINE
  8
0
 10
-31.6075
 20
224.533
 11
-31.2773
 21
224.714
  0
LINE
  8
0
 10
-31.2773
 20
224.714
 11
-30.927
 21
224.853
  0
LINE
  8
0
 10
-30.927
 20
224.853
 11
-30.5621
 21
224.947
  0
LINE
  8
0
 10
-30.5621
 20
224.947
 11
-30.1884
 21
224.994
  0
LINE
  8
0
 10
-30.1884
 20
224.994
 11
-29.8116
 21
224.994
  0
LINE
  8
0
 10
-29.8116
 20
224.994
 11
-29.4379
 21
224.947
  0
LINE
  8
0
 10
-29.4379
 20
224.947
 11
-29.0729
 21
224.853
  0
LINE
  8
0
 10
-29.0729
 20
224.853
 11
-28.7227
 21
224.714
  0
LINE
  8
0
 10
-28.7227
 20
224.714
 11
-28.3925
 21
224.533
  0
LINE
  8
0
 10
-28.3925
 20
224.533
 11
-28.0877
 21
224.312
  0
LINE
  8
0
 10
-28.0877
 20
224.312
 11
-27.8131
 21
224.054
  0
LINE
  8
0
 10
-27.8131
 20
224.054
 11
-27.5729
 21
223.763
  0
LINE
  8
0
 10
-27.5729
 20
223.763
 11
-27.3711
 21
223.445
  0
LINE
  8
0
 10
-27.3711
 20
223.445
 11
-27.2107
 21
223.104
  0
LINE
  8
0
 10
-27.2107
 20
223.104
 11
-27.0942
 21
222.746
  0
LINE
  8
0
 10
-27.0942
 20
222.746
 11
-27.0237
 21
222.376
  0
LINE
  8
0
 10
-27.0237
 20
222.376
 11
-27
 21
222
  0
LINE
  8
0
 10
-27
 20
222
 11
-27.0237
 21
221.624
  0
LINE
  8
0
 10
-27.0237
 20
221.624
 11
-27.0942
 21
221.254
  0
LINE
  8
0
 10
-27.0942
 20
221.254
 11
-27.2107
 21
220.896
  0
LINE
  8
0
 10
-27.2107
 20
220.896
 11
-27.3711
 21
220.555
  0
LINE
  8
0
 10
-27.3711
 20
220.555
 11
-27.5729
 21
220.237
  0
LINE
  8
0
 10
-27.5729
 20
220.237
 11
-27.8131
 21
219.946
  0
LINE
  8
0
 10
-27.8131
 20
219.946
 11
-28.0877
 21
219.688
  0
LINE
  8
0
 10
-28.0877
 20
219.688
 11
-28.3925
 21
219.467
  0
LINE
  8
0
 10
-28.3925
 20
219.467
 11
-28.7227
 21
219.286
  0
LINE
  8
0
 10
-28.7227
 20
219.286
 11
-29.0729
 21
219.147
  0
LINE
  8
0
 10
-29.0729
 20
219.147
 11
-29.4379
 21
219.053
  0
LINE
  8
0
 10
-29.4379
 20
219.053
 11
-29.8116
 21
219.006
  0
LINE
  8
0
 10
-29.8116
 20
219.006
 11
-30.1884
 21
219.006
  0
LINE
  8
0
 10
32.9369
 20
131.089
 11
33.5451
 21
131.245
  0
LINE
  8
0
 10
33.5451
 20
131.245
 11
34.1289
 21
131.476
  0
LINE
  8
0
 10
34.1289
 20
131.476
 11
34.6791
 21
131.778
  0
LINE
  8
0
 10
34.6791
 20
131.778
 11
35.1871
 21
132.147
  0
LINE
  8
0
 10
35.1871
 20
132.147
 11
35.6448
 21
132.577
  0
LINE
  8
0
 10
35.6448
 20
132.577
 11
36.0451
 21
133.061
  0
LINE
  8
0
 10
36.0451
 20
133.061
 11
36.3815
 21
133.591
  0
LINE
  8
0
 10
36.3815
 20
133.591
 11
36.6489
 21
134.159
  0
LINE
  8
0
 10
36.6489
 20
134.159
 11
36.8429
 21
134.757
  0
LINE
  8
0
 10
36.8429
 20
134.757
 11
36.9606
 21
135.373
  0
LINE
  8
0
 10
36.9606
 20
135.373
 11
37
 21
136
  0
LINE
  8
0
 10
37
 20
136
 11
37
 21
200
  0
LINE
  8
0
 10
37
 20
200
 11
36.9606
 21
200.627
  0
LINE
  8
0
 10
36.9606
 20
200.627
 11
36.8429
 21
201.243
  0
LINE
  8
0
 10
36.8429
 20
201.243
 11
36.6489
 21
201.841
  0
LINE
  8
0
 10
36.6489
 20
201.841
 11
36.3815
 21
202.409
  0
LINE
  8
0
 10
36.3815
 20
202.409
 11
36.0451
 21
202.939
  0
LINE
  8
0
 10
36.0451
 20
202.939
 11
35.6448
 21
203.423
  0
LINE
  8
0
 10
35.6448
 20
203.423
 11
35.1871
 21
203.853
  0
LINE
  8
0
 10
35.1871
 20
203.853
 11
34.6791
 21
204.222
  0
LINE
  8
0
 10
34.6791
 20
204.222
 11
34.1289
 21
204.524
  0
LINE
  8
0
 10
34.1289
 20
204.524
 11
33.5451
 21
204.755
  0
LINE
  8
0
 10
33.5451
 20
204.755
 11
32.9369
 21
204.911
  0
LINE
  8
0
 10
32.9369
 20
204.911
 11
32.3139
 21
204.99
  0
LINE
  8
0
 10
32.3139
 20
204.99
 11
-32.3139
 21
204.99
  0
LINE
  8
0
 10
-32.3139
 20
204.99
 11
-32.9369
 21
204.911
  0
LINE
  8
0
 10
-32.9369
 20
204.911
 11
-33.5451
 21
204.755
  0
LINE
  8
0
 10
-33.5451
 20
204.755
 11
-34.1289
 21
204.524
  0
LINE
  8
0
 10
-34.1289
 20
204.524
 11
-34.6791
 21
204.222
  0
LINE
  8
0
 10
-34.6791
 20
204.222
 11
-35.1871
 21
203.853
  0
LINE
  8
0
 10
-35.1871
 20
203.853
 11
-35.6448
 21
203.423
  0
LINE
  8
0
 10
-35.6448
 20
203.423
 11
-36.0451
 21
202.939
  0
LINE
  8
0
 10
-36.0451
 20
202.939
 11
-36.3815
 21
202.409
  0
LINE
  8
0
 10
-36.3815
 20
202.409
 11
-36.6489
 21
201.841
  0
LINE
  8
0
 10
-36.6489
 20
201.841
 11
-36.8429
 21
201.243
  0
LINE
  8
0
 10
-36.8429
 20
201.243
 11
-36.9606
 21
200.627
  0
LINE
  8
0
 10
-36.9606
 20
200.627
 11
-37
 21
200
  0
LINE
  8
0
 10
-37
 20
200
 11
-37
 21
136
  0
LINE
  8
0
 10
-37
 20
136
 11
-36.9606
 21
135.373
  0
LINE
  8
0
 10
-36.9606
 20
135.373
 11
-36.8429
 21
134.757
  0
LINE
  8
0
 10
-36.8429
 20
134.757
 11
-36.6489
 21
134.159
  0
LINE
  8
0
 10
-36.6489
 20
134.159
 11
-36.3815
 21
133.591
  0
LINE
  8
0
 10
-36.3815
 20
133.591
 11
-36.0451
 21
133.061
  0
LINE
  8
0
 10
-36.0451
 20
133.061
 11
-35.6448
 21
132.577
  0
LINE
  8
0
 10
-35.6448
 20
132.577
 11
-35.1871
 21
132.147
  0
LINE
  8
0
 10
-35.1871
 20
132.147
 11
-34.6791
 21
131.778
  0
LINE
  8
0
 10
-34.6791
 20
131.778
 11
-34.1289
 21
131.476
  0
LINE
  8
0
 10
-34.1289
 20
131.476
 11
-33.5451
 21
131.245
  0
LINE
  8
0
 10
-33.5451
 20
131.245
 11
-32.9369
 21
131.089
  0
LINE
  8
0
 10
-32.9369
 20
131.089
 11
-32.3139
 21
131.01
  0
LINE
  8
0
 10
-32.3139
 20
131.01
 11
32.3139
 21
131.01
  0
LINE
  8
0
 10
32.3139
 20
131.01
 11
32.9369
 21
131.089
  0
LINE
  8
0
 10
29.8116
 20
195.006
 11
29.4379
 21
195.053
  0
LINE
  8
0
 10
29.4379
 20
195.053
 11
29.0729
 21
195.147
  0
LINE
  8
0
 10
29.0729
 20
195.147
 11
28.7227
 21
195.286
  0
LINE
  8
0
 10
28.7227
 20
195.286
 11
28.3925
 21
195.467
  0
LINE
  8
0
 10
28.3925
 20
195.467
 11
28.0877
 21
195.688
  0
LINE
  8
0
 10
28.0877
 20
195.688
 11
27.8131
 21
195.946
  0
LINE
  8
0
 10
27.8131
 20
195.946
 11
27.5729
 21
196.237
  0
LINE
  8
0
 10
27.5729
 20
196.237
 11
27.3711
 21
196.555
  0
LINE
  8
0
 10
27.3711
 20
196.555
 11
27.2107
 21
196.896
  0
LINE
  8
0
 10
27.2107
 20
196.896
 11
27.0942
 21
197.254
  0
LINE
  8
0
 10
27.0942
 20
197.254
 11
27.0237
 21
197.624
  0
LINE
  8
0
 10
27.0237
 20
197.624
 11
27
 21
198
  0
LINE
  8
0
 10
27
 20
198
 11
27.0237
 21
198.376
  0
LINE
  8
0
 10
27.0237
 20
198.376
 11
27.0942
 21
198.746
  0
LINE
  8
0
 10
27.0942
 20
198.746
 11
27.2107
 21
199.104
  0
LINE
  8
0
 10
27.2107
 20
199.104
 11
27.3711
 21
199.445
  0
LINE
  8
0
 10
27.3711
 20
199.445
 11
27.5729
 21
199.763
  0
LINE
  8
0
 10
27.5729
 20
199.763
 11
27.8131
 21
200.054
  0
LINE
  8
0
 10
27.8131
 20
200.054
 11
28.0877
 21
200.312
  0
LINE
  8
0
 10
28.0877
 20
200.312
 11
28.3925
 21
200.533
  0
LINE
  8
0
 10
28.3925
 20
200.533
 11
28.7227
 21
200.714
  0
LINE
  8
0
 10
28.7227
 20
200.714
 11
29.0729
 21
200.853
  0
LINE
  8
0
 10
29.0729
 20
200.853
 11
29.4379
 21
200.947
  0
LINE
  8
0
 10
29.4379
 20
200.947
 11
29.8116
 21
200.994
  0
LINE
  8
0
 10
29.8116
 20
200.994
 11
30.1884
 21
200.994
  0
LINE
  8
0
 10
30.1884
 20
200.994
 11
30.5621
 21
200.947
  0
LINE
  8
0
 10
30.5621
 20
200.947
 11
30.927
 21
200.853
  0
LINE
  8
0
 10
30.927
 20
200.853
 11
31.2773
 21
200.714
  0
LINE
  8
0
 10
31.2773
 20
200.714
 11
31.6075
 21
200.533
  0
LINE
  8
0
 10
31.6075
 20
200.533
 11
31.9123
 21
200.312
  0
LINE
  8
0
 10
31.9123
 20
200.312
 11
32.1869
 21
200.054
  0
LINE
  8
0
 10
32.1869
 20
200.054
 11
32.427
 21
199.763
  0
LINE
  8
0
 10
32.427
 20
199.763
 11
32.6289
 21
199.445
  0
LINE
  8
0
 10
32.6289
 20
199.445
 11
32.7893
 21
199.104
  0
LINE
  8
0
 10
32.7893
 20
199.104
 11
32.9057
 21
198.746
  0
LINE
  8
0
 10
32.9057
 20
198.746
 11
32.9763
 21
198.376
  0
LINE
  8
0
 10
32.9763
 20
198.376
 11
33
 21
198
  0
LINE
  8
0
 10
33
 20
198
 11
32.9763
 21
197.624
  0
LINE
  8
0
 10
32.9763
 20
197.624
 11
32.9057
 21
197.254
  0
LINE
  8
0
 10
32.9057
 20
197.254
 11
32.7893
 21
196.896
  0
LINE
  8
0
 10
32.7893
 20
196.896
 11
32.6289
 21
196.555
  0
LINE
  8
0
 10
32.6289
 20
196.555
 11
32.427
 21
196.237
  0
LINE
  8
0
 10
32.427
 20
196.237
 11
32.1869
 21
195.946
  0
LINE
  8
0
 10
32.1869
 20
195.946
 11
31.9123
 21
195.688
  0
LINE
  8
0
 10
31.9123
 20
195.688
 11
31.6075
 21
195.467
  0
LINE
  8
0
 10
31.6075
 20
195.467
 11
31.2773
 21
195.286
  0
LINE
  8
0
 10
31.2773
 20
195.286
 11
30.927
 21
195.147
  0
LINE
  8
0
 10
30.927
 20
195.147
 11
30.5621
 21
195.053
  0
LINE
  8
0
 10
30.5621
 20
195.053
 11
30.1884
 21
195.006
  0
LINE
  8
0
 10
30.1884
 20
195.006
 11
29.8116
 21
195.006
  0
LINE
  8
0
 10
-30.1884
 20
195.006
 11
-30.5621
 21
195.053
  0
LINE
  8
0
 10
-30.5621
 20
195.053
 11
-30.927
 21
195.147
  0
LINE
  8
0
 10
-30.927
 20
195.147
 11
-31.2773
 21
195.286
  0
LINE
  8
0
 10
-31.2773
 20
195.286
 11
-31.6075
 21
195.467
  0
LINE
  8
0
 10
-31.6075
 20
195.467
 11
-31.9123
 21
195.688
  0
LINE
  8
0
 10
-31.9123
 20
195.688
 11
-32.1869
 21
195.946
  0
LINE
  8
0
 10
-32.1869
 20
195.946
 11
-32.427
 21
196.237
  0
LINE
  8
0
 10
-32.427
 20
196.237
 11
-32.6289
 21
196.555
  0
LINE
  8
0
 10
-32.6289
 20
196.555
 11
-32.7893
 21
196.896
  0
LINE
  8
0
 10
-32.7893
 20
196.896
 11
-32.9057
 21
197.254
  0
LINE
  8
0
 10
-32.9057
 20
197.254
 11
-32.9763
 21
197.624
  0
LINE
  8
0
 10
-32.9763
 20
197.624
 11
-33
 21
198
  0
LINE
  8
0
 10
-33
 20
198
 11
-32.9763
 21
198.376
  0
LINE
  8
0
 10
-32.9763
 20
198.376
 11
-32.9057
 21
198.746
  0
LINE
  8
0
 10
-32.9057
 20
198.746
 11
-32.7893
 21
199.104
  0
LINE
  8
0
 10
-32.7893
 20
199.104
 11
-32.6289
 21
199.445
  0
LINE
  8
0
 10
-32.6289
 20
199.445
 11
-32.427
 21
199.763
  0
LINE
  8
0
 10
-32.427
 20
199.763
 11
-32.1869
 21
200.054
  0
LINE
  8
0
 10
-32.1869
 20
200.054
 11
-31.9123
 21
200.312
  0
LINE
  8
0
 10
-31.9123
 20
200.312
 11
-31.6075
 21
200.533
  0
LINE
  8
0
 10
-31.6075
 20
200.533
 11
-31.2773
 21
200.714
  0
LINE
  8
0
 10
-31.2773
 20
200.714
 11
-30.927
 21
200.853
  0
LINE
  8
0
 10
-30.927
 20
200.853
 11
-30.5621
 21
200.947
  0
LINE
  8
0
 10
-30.5621
 20
200.947
 11
-30.1884
 21
200.994
  0
LINE
  8
0
 10
-30.1884
 20
200.994
 11
-29.8116
 21
200.994
  0
LINE
  8
0
 10
-29.8116
 20
200.994
 11
-29.4379
 21
200.947
  0
LINE
  8
0
 10
-29.4379
 20
200.947
 11
-29.0729
 21
200.853
  0
LINE
  8
0
 10
-29.0729
 20
200.853
 11
-28.7227
 21
200.714
  0
LINE
  8
0
 10
-28.7227
 20
200.714
 11
-28.3925
 21
200.533
  0
LINE
  8
0
 10
-28.3925
 20
200.533
 11
-28.0877
 21
200.312
  0
LINE
  8
0
 10
-28.0877
 20
200.312
 11
-27.8131
 21
200.054
  0
LINE
  8
0
 10
-27.8131
 20
200.054
 11
-27.5729
 21
199.763
  0
LINE
  8
0
 10
-27.5729
 20
199.763
 11
-27.3711
 21
199.445
  0
LINE
  8
0
 10
-27.3711
 20
199.445
 11
-27.2107
 21
199.104
  0
LINE
  8
0
 10
-27.2107
 20
199.104
 11
-27.0942
 21
198.746
  0
LINE
  8
0
 10
-27.0942
 20
198.746
 11
-27.0237
 21
198.376
  0
LINE
  8
0
 10
-27.0237
 20
198.376
 11
-27
 21
198
  0
LINE
  8
0
 10
-27
 20
198
 11
-27.0237
 21
197.624
  0
LINE
  8
0
 10
-27.0237
 20
197.624
 11
-27.0942
 21
197.254
  0
LINE
  8
0
 10
-27.0942
 20
197.254
 11
-27.2107
 21
196.896
  0
LINE
  8
0
 10
-27.2107
 20
196.896
 11
-27.3711
 21
196.555
  0
LINE
  8
0
 10
-27.3711
 20
196.555
 11
-27.5729
 21
196.237
  0
LINE
  8
0
 10
-27.5729
 20
196.237
 11
-27.8131
 21
195.946
  0
LINE
  8
0
 10
-27.8131
 20
195.946
 11
-28.0877
 21
195.688
  0
LINE
  8
0
 10
-28.0877
 20
195.688
 11
-28.3925
 21
195.467
  0
LINE
  8
0
 10
-28.3925
 20
195.467
 11
-28.7227
 21
195.286
  0
LINE
  8
0
 10
-28.7227
 20
195.286
 11
-29.0729
 21
195.147
  0
LINE
  8
0
 10
-29.0729
 20
195.147
 11
-29.4379
 21
195.053
  0
LINE
  8
0
 10
-29.4379
 20
195.053
 11
-29.8116
 21
195.006
  0
LINE
  8
0
 10
-29.8116
 20
195.006
 11
-30.1884
 21
195.006
  0
LINE
  8
0
 10
29.8116
 20
135.006
 11
29.4379
 21
135.053
  0
LINE
  8
0
 10
29.4379
 20
135.053
 11
29.0729
 21
135.147
  0
LINE
  8
0
 10
29.0729
 20
135.147
 11
28.7227
 21
135.286
  0
LINE
  8
0
 10
28.7227
 20
135.286
 11
28.3925
 21
135.467
  0
LINE
  8
0
 10
28.3925
 20
135.467
 11
28.0877
 21
135.688
  0
LINE
  8
0
 10
28.0877
 20
135.688
 11
27.8131
 21
135.946
  0
LINE
  8
0
 10
27.8131
 20
135.946
 11
27.5729
 21
136.237
  0
LINE
  8
0
 10
27.5729
 20
136.237
 11
27.3711
 21
136.555
  0
LINE
  8
0
 10
27.3711
 20
136.555
 11
27.2107
 21
136.896
  0
LINE
  8
0
 10
27.2107
 20
136.896
 11
27.0942
 21
137.254
  0
LINE
  8
0
 10
27.0942
 20
137.254
 11
27.0237
 21
137.624
  0
LINE
  8
0
 10
27.0237
 20
137.624
 11
27
 21
138
  0
LINE
  8
0
 10
27
 20
138
 11
27.0237
 21
138.376
  0
LINE
  8
0
 10
27.0237
 20
138.376
 11
27.0942
 21
138.746
  0
LINE
  8
0
 10
27.0942
 20
138.746
 11
27.2107
 21
139.104
  0
LINE
  8
0
 10
27.2107
 20
139.104
 11
27.3711
 21
139.445
  0
LINE
  8
0
 10
27.3711
 20
139.445
 11
27.5729
 21
139.763
  0
LINE
  8
0
 10
27.5729
 20
139.763
 11
27.8131
 21
140.054
  0
LINE
  8
0
 10
27.8131
 20
140.054
 11
28.0877
 21
140.312
  0
LINE
  8
0
 10
28.0877
 20
140.312
 11
28.3925
 21
140.533
  0
LINE
  8
0
 10
28.3925
 20
140.533
 11
28.7227
 21
140.714
  0
LINE
  8
0
 10
28.7227
 20
140.714
 11
29.0729
 21
140.853
  0
LINE
  8
0
 10
29.0729
 20
140.853
 11
29.4379
 21
140.947
  0
LINE
  8
0
 10
29.4379
 20
140.947
 11
29.8116
 21
140.994
  0
LINE
  8
0
 10
29.8116
 20
140.994
 11
30.1884
 21
140.994
  0
LINE
  8
0
 10
30.1884
 20
140.994
 11
30.5621
 21
140.947
  0
LINE
  8
0
 10
30.5621
 20
140.947
 11
30.927
 21
140.853
  0
LINE
  8
0
 10
30.927
 20
140.853
 11
31.2773
 21
140.714
  0
LINE
  8
0
 10
31.2773
 20
140.714
 11
31.6075
 21
140.533
  0
LINE
  8
0
 10
31.6075
 20
140.533
 11
31.9123
 21
140.312
  0
LINE
  8
0
 10
31.9123
 20
140.312
 11
32.1869
 21
140.054
  0
LINE
  8
0
 10
32.1869
 20
140.054
 11
32.427
 21
139.763
  0
LINE
  8
0
 10
32.427
 20
139.763
 11
32.6289
 21
139.445
  0
LINE
  8
0
 10
32.6289
 20
139.445
 11
32.7893
 21
139.104
  0
LINE
  8
0
 10
32.7893
 20
139.104
 11
32.9057
 21
138.746
  0
LINE
  8
0
 10
32.9057
 20
138.746
 11
32.9763
 21
138.376
  0
LINE
  8
0
 10
32.9763
 20
138.376
 11
33
 21
138
  0
LINE
  8
0
 10
33
 20
138
 11
32.9763
 21
137.624
  0
LINE
  8
0
 10
32.9763
 20
137.624
 11
32.9057
 21
137.254
  0
LINE
  8
0
 10
32.9057
 20
137.254
 11
32.7893
 21
136.896
  0
LINE
  8
0
 10
32.7893
 20
136.896
 11
32.6289
 21
136.555
  0
LINE
  8
0
 10
32.6289
 20
136.555
 11
32.427
 21
136.237
  0
LINE
  8
0
 10
32.427
 20
136.237
 11
32.1869
 21
135.946
  0
LINE
  8
0
 10
32.1869
 20
135.946
 11
31.9123
 21
135.688
  0
LINE
  8
0
 10
31.9123
 20
135.688
 11
31.6075
 21
135.467
  0
LINE
  8
0
 10
31.6075
 20
135.467
 11
31.2773
 21
135.286
  0
LINE
  8
0
 10
31.2773
 20
135.286
 11
30.927
 21
135.147
  0
LINE
  8
0
 10
30.927
 20
135.147
 11
30.5621
 21
135.053
  0
LINE
  8
0
 10
30.5621
 20
135.053
 11
30.1884
 21
135.006
  0
LINE
  8
0
 10
30.1884
 20
135.006
 11
29.8116
 21
135.006
  0
LINE
  8
0
 10
-30.1884
 20
135.006
 11
-30.5621
 21
135.053
  0
LINE
  8
0
 10
-30.5621
 20
135.053
 11
-30.927
 21
135.147
  0
LINE
  8
0
 10
-30.927
 20
135.147
 11
-31.2773
 21
135.286
  0
LINE
  8
0
 10
-31.2773
 20
135.286
 11
-31.6075
 21
135.467
  0
LINE
  8
0
 10
-31.6075
 20
135.467
 11
-31.9123
 21
135.688
  0
LINE
  8
0
 10
-31.9123
 20
135.688
 11
-32.1869
 21
135.946
  0
LINE
  8
0
 10
-32.1869
 20
135.946
 11
-32.427
 21
136.237
  0
LINE
  8
0
 10
-32.427
 20
136.237
 11
-32.6289
 21
136.555
  0
LINE
  8
0
 10
-32.6289
 20
136.555
 11
-32.7893
 21
136.896
  0
LINE
  8
0
 10
-32.7893
 20
136.896
 11
-32.9057
 21
137.254
  0
LINE
  8
0
 10
-32.9057
 20
137.254
 11
-32.9763
 21
137.624
  0
LINE
  8
0
 10
-32.9763
 20
137.624
 11
-33
 21
138
  0
LINE
  8
0
 10
-33
 20
138
 11
-32.9763
 21
138.376
  0
LINE
  8
0
 10
-32.9763
 20
138.376
 11
-32.9057
 21
138.746
  0
LINE
  8
0
 10
-32.9057
 20
138.746
 11
-32.7893
 21
139.104
  0
LINE
  8
0
 10
-32.7893
 20
139.104
 11
-32.6289
 21
139.445
  0
LINE
  8
0
 10
-32.6289
 20
139.445
 11
-32.427
 21
139.763
  0
LINE
  8
0
 10
-32.427
 20
139.763
 11
-32.1869
 21
140.054
  0
LINE
  8
0
 10
-32.1869
 20
140.054
 11
-31.9123
 21
140.312
  0
LINE
  8
0
 10
-31.9123
 20
140.312
 11
-31.6075
 21
140.533
  0
LINE
  8
0
 10
-31.6075
 20
140.533
 11
-31.2773
 21
140.714
  0
LINE
  8
0
 10
-31.2773
 20
140.714
 11
-30.927
 21
140.853
  0
LINE
  8
0
 10
-30.927
 20
140.853
 11
-30.5621
 21
140.947
  0
LINE
  8
0
 10
-30.5621
 20
140.947
 11
-30.1884
 21
140.994
  0
LINE
  8
0
 10
-30.1884
 20
140.994
 11
-29.8116
 21
140.994
  0
LINE
  8
0
 10
-29.8116
 20
140.994
 11
-29.4379
 21
140.947
  0
LINE
  8
0
 10
-29.4379
 20
140.947
 11
-29.0729
 21
140.853
  0
LINE
  8
0
 10
-29.0729
 20
140.853
 11
-28.7227
 21
140.714
  0
LINE
  8
0
 10
-28.7227
 20
140.714
 11
-28.3925
 21
140.533
  0
LINE
  8
0
 10
-28.3925
 20
140.533
 11
-28.0877
 21
140.312
  0
LINE
  8
0
 10
-28.0877
 20
140.312
 11
-27.8131
 21
140.054
  0
LINE
  8
0
 10
-27.8131
 20
140.054
 11
-27.5729
 21
139.763
  0
LINE
  8
0
 10
-27.5729
 20
139.763
 11
-27.3711
 21
139.445
  0
LINE
  8
0
 10
-27.3711
 20
139.445
 11
-27.2107
 21
139.104
  0
LINE
  8
0
 10
-27.2107
 20
139.104
 11
-27.0942
 21
138.746
  0
LINE
  8
0
 10
-27.0942
 20
138.746
 11
-27.0237
 21
138.376
  0
LINE
  8
0
 10
-27.0237
 20
138.376
 11
-27
 21
138
  0
LINE
  8
0
 10
-27
 20
138
 11
-27.0237
 21
137.624
  0
LINE
  8
0
 10
-27.0237
 20
137.624
 11
-27.0942
 21
137.254
  0
LINE
  8
0
 10
-27.0942
 20
137.254
 11
-27.2107
 21
136.896
  0
LINE
  8
0
 10
-27.2107
 20
136.896
 11
-27.3711
 21
136.555
  0
LINE
  8
0
 10
-27.3711
 20
136.555
 11
-27.5729
 21
136.237
  0
LINE
  8
0
 10
-27.5729
 20
136.237
 11
-27.8131
 21
135.946
  0
LINE
  8
0
 10
-27.8131
 20
135.946
 11
-28.0877
 21
135.688
  0
LINE
  8
0
 10
-28.0877
 20
135.688
 11
-28.3925
 21
135.467
  0
LINE
  8
0
 10
-28.3925
 20
135.467
 11
-28.7227
 21
135.286
  0
LINE
  8
0
 10
-28.7227
 20
135.286
 11
-29.0729
 21
135.147
  0
LINE
  8
0
 10
-29.0729
 20
135.147
 11
-29.4379
 21
135.053
  0
LINE
  8
0
 10
-29.4379
 20
135.053
 11
-29.8116
 21
135.006
  0
LINE
  8
0
 10
-29.8116
 20
135.006
 11
-30.1884
 21
135.006
  0
ENDSEC
  0
SECTION
  2
OBJECTS
  0
DICTIONARY
  0
ENDSEC
  0
EOF
