  0
SECTION
  2
BLOCKS
  0
ENDSEC
  0
SECTION
  2
ENTITIES
  0
LINE
  8
0
 10
167.937
 20
-21.9114
 11
168.545
 21
-21.7553
  0
LINE
  8
0
 10
168.545
 20
-21.7553
 11
169.129
 21
-21.5241
  0
LINE
  8
0
 10
169.129
 20
-21.5241
 11
169.679
 21
-21.2216
  0
LINE
  8
0
 10
169.679
 20
-21.2216
 11
170.187
 21
-20.8526
  0
LINE
  8
0
 10
170.187
 20
-20.8526
 11
170.645
 21
-20.4227
  0
LINE
  8
0
 10
170.645
 20
-20.4227
 11
171.045
 21
-19.9389
  0
LINE
  8
0
 10
171.045
 20
-19.9389
 11
171.382
 21
-19.4088
  0
LINE
  8
0
 10
171.382
 20
-19.4088
 11
171.649
 21
-18.8406
  0
LINE
  8
0
 10
171.649
 20
-18.8406
 11
171.843
 21
-18.2434
  0
LINE
  8
0
 10
171.843
 20
-18.2434
 11
171.961
 21
-17.6267
  0
LINE
  8
0
 10
171.961
 20
-17.6267
 11
172
 21
-17
  0
LINE
  8
0
 10
172
 20
-17
 11
172
 21
17
  0
LINE
  8
0
 10
172
 20
17
 11
171.961
 21
17.6267
  0
LINE
  8
0
 10
171.961
 20
17.6267
 11
171.843
 21
18.2434
  0
LINE
  8
0
 10
171.843
 20
18.2434
 11
171.649
 21
18.8406
  0
LINE
  8
0
 10
171.649
 20
18.8406
 11
171.382
 21
19.4088
  0
LINE
  8
0
 10
171.382
 20
19.4088
 11
171.045
 21
19.9389
  0
LINE
  8
0
 10
171.045
 20
19.9389
 11
170.645
 21
20.4227
  0
LINE
  8
0
 10
170.645
 20
20.4227
 11
170.187
 21
20.8526
  0
LINE
  8
0
 10
170.187
 20
20.8526
 11
169.679
 21
21.2216
  0
LINE
  8
0
 10
169.679
 20
21.2216
 11
169.129
 21
21.5241
  0
LINE
  8
0
 10
169.129
 20
21.5241
 11
168.545
 21
21.7553
  0
LINE
  8
0
 10
168.545
 20
21.7553
 11
167.937
 21
21.9114
  0
LINE
  8
0
 10
167.937
 20
21.9114
 11
167.314
 21
21.9901
  0
LINE
  8
0
 10
167.314
 20
21.9901
 11
-167.314
 21
21.9901
  0
LINE
  8
0
 10
-167.314
 20
21.9901
 11
-167.937
 21
21.9114
  0
LINE
  8
0
 10
-167.937
 20
21.9114
 11
-168.545
 21
21.7553
  0
LINE
  8
0
 10
-168.545
 20
21.7553
 11
-169.129
 21
21.5241
  0
LINE
  8
0
 10
-169.129
 20
21.5241
 11
-169.679
 21
21.2216
  0
LINE
  8
0
 10
-169.679
 20
21.2216
 11
-170.187
 21
20.8526
  0
LINE
  8
0
 10
-170.187
 20
20.8526
 11
-170.645
 21
20.4227
  0
LINE
  8
0
 10
-170.645
 20
20.4227
 11
-171.045
 21
19.9389
  0
LINE
  8
0
 10
-171.045
 20
19.9389
 11
-171.382
 21
19.4088
  0
LINE
  8
0
 10
-171.382
 20
19.4088
 11
-171.649
 21
18.8406
  0
LINE
  8
0
 10
-171.649
 20
18.8406
 11
-171.843
 21
18.2434
  0
LINE
  8
0
 10
-171.843
 20
18.2434
 11
-171.961
 21
17.6267
  0
LINE
  8
0
 10
-171.961
 20
17.6267
 11
-172
 21
17
  0
LINE
  8
0
 10
-172
 20
17
 11
-172
 21
-17
  0
LINE
  8
0
 10
-172
 20
-17
 11
-171.961
 21
-17.6267
  0
LINE
  8
0
 10
-171.961
 20
-17.6267
 11
-171.843
 21
-18.2434
  0
LINE
  8
0
 10
-171.843
 20
-18.2434
 11
-171.649
 21
-18.8406
  0
LINE
  8
0
 10
-171.649
 20
-18.8406
 11
-171.382
 21
-19.4088
  0
LINE
  8
0
 10
-171.382
 20
-19.4088
 11
-171.045
 21
-19.9389
  0
LINE
  8
0
 10
-171.045
 20
-19.9389
 11
-170.645
 21
-20.4227
  0
LINE
  8
0
 10
-170.645
 20
-20.4227
 11
-170.187
 21
-20.8526
  0
LINE
  8
0
 10
-170.187
 20
-20.8526
 11
-169.679
 21
-21.2216
  0
LINE
  8
0
 10
-169.679
 20
-21.2216
 11
-169.129
 21
-21.5241
  0
LINE
  8
0
 10
-169.129
 20
-21.5241
 11
-168.545
 21
-21.7553
  0
LINE
  8
0
 10
-168.545
 20
-21.7553
 11
-167.937
 21
-21.9114
  0
LINE
  8
0
 10
-167.937
 20
-21.9114
 11
-167.314
 21
-21.9901
  0
LINE
  8
0
 10
-167.314
 20
-21.9901
 11
167.314
 21
-21.9901
  0
LINE
  8
0
 10
167.314
 20
-21.9901
 11
167.937
 21
-21.9114
  0
LINE
  8
0
 10
-165.188
 20
12.0059
 11
-165.562
 21
12.0531
  0
LINE
  8
0
 10
-165.562
 20
12.0531
 11
-165.927
 21
12.1468
  0
LINE
  8
0
 10
-165.927
 20
12.1468
 11
-166.277
 21
12.2855
  0
LINE
  8
0
 10
-166.277
 20
12.2855
 11
-166.607
 21
12.467
  0
LINE
  8
0
 10
-166.607
 20
12.467
 11
-166.912
 21
12.6884
  0
LINE
  8
0
 10
-166.912
 20
12.6884
 11
-167.187
 21
12.9464
  0
LINE
  8
0
 10
-167.187
 20
12.9464
 11
-167.427
 21
13.2366
  0
LINE
  8
0
 10
-167.427
 20
13.2366
 11
-167.629
 21
13.5547
  0
LINE
  8
0
 10
-167.629
 20
13.5547
 11
-167.789
 21
13.8956
  0
LINE
  8
0
 10
-167.789
 20
13.8956
 11
-167.906
 21
14.2539
  0
LINE
  8
0
 10
-167.906
 20
14.2539
 11
-167.976
 21
14.624
  0
LINE
  8
0
 10
-167.976
 20
14.624
 11
-168
 21
15
  0
LINE
  8
0
 10
-168
 20
15
 11
-167.976
 21
15.376
  0
LINE
  8
0
 10
-167.976
 20
15.376
 11
-167.906
 21
15.7461
  0
LINE
  8
0
 10
-167.906
 20
15.7461
 11
-167.789
 21
16.1044
  0
LINE
  8
0
 10
-167.789
 20
16.1044
 11
-167.629
 21
16.4453
  0
LINE
  8
0
 10
-167.629
 20
16.4453
 11
-167.427
 21
16.7634
  0
LINE
  8
0
 10
-167.427
 20
16.7634
 11
-167.187
 21
17.0536
  0
LINE
  8
0
 10
-167.187
 20
17.0536
 11
-166.912
 21
17.3115
  0
LINE
  8
0
 10
-166.912
 20
17.3115
 11
-166.607
 21
17.533
  0
LINE
  8
0
 10
-166.607
 20
17.533
 11
-166.277
 21
17.7145
  0
LINE
  8
0
 10
-166.277
 20
17.7145
 11
-165.927
 21
17.8532
  0
LINE
  8
0
 10
-165.927
 20
17.8532
 11
-165.562
 21
17.9469
  0
LINE
  8
0
 10
-165.562
 20
17.9469
 11
-165.188
 21
17.9941
  0
LINE
  8
0
 10
-165.188
 20
17.9941
 11
-164.812
 21
17.9941
  0
LINE
  8
0
 10
-164.812
 20
17.9941
 11
-164.438
 21
17.9469
  0
LINE
  8
0
 10
-164.438
 20
17.9469
 11
-164.073
 21
17.8532
  0
LINE
  8
0
 10
-164.073
 20
17.8532
 11
-163.723
 21
17.7145
  0
LINE
  8
0
 10
-163.723
 20
17.7145
 11
-163.393
 21
17.533
  0
LINE
  8
0
 10
-163.393
 20
17.533
 11
-163.088
 21
17.3115
  0
LINE
  8
0
 10
-163.088
 20
17.3115
 11
-162.813
 21
17.0536
  0
LINE
  8
0
 10
-162.813
 20
17.0536
 11
-162.573
 21
16.7634
  0
LINE
  8
0
 10
-162.573
 20
16.7634
 11
-162.371
 21
16.4453
  0
LINE
  8
0
 10
-162.371
 20
16.4453
 11
-162.211
 21
16.1044
  0
LINE
  8
0
 10
-162.211
 20
16.1044
 11
-162.094
 21
15.7461
  0
LINE
  8
0
 10
-162.094
 20
15.7461
 11
-162.024
 21
15.376
  0
LINE
  8
0
 10
-162.024
 20
15.376
 11
-162
 21
15
  0
LINE
  8
0
 10
-162
 20
15
 11
-162.024
 21
14.624
  0
LINE
  8
0
 10
-162.024
 20
14.624
 11
-162.094
 21
14.2539
  0
LINE
  8
0
 10
-162.094
 20
14.2539
 11
-162.211
 21
13.8956
  0
LINE
  8
0
 10
-162.211
 20
13.8956
 11
-162.371
 21
13.5547
  0
LINE
  8
0
 10
-162.371
 20
13.5547
 11
-162.573
 21
13.2366
  0
LINE
  8
0
 10
-162.573
 20
13.2366
 11
-162.813
 21
12.9464
  0
LINE
  8
0
 10
-162.813
 20
12.9464
 11
-163.088
 21
12.6884
  0
LINE
  8
0
 10
-163.088
 20
12.6884
 11
-163.393
 21
12.467
  0
LINE
  8
0
 10
-163.393
 20
12.467
 11
-163.723
 21
12.2855
  0
LINE
  8
0
 10
-163.723
 20
12.2855
 11
-164.073
 21
12.1468
  0
LINE
  8
0
 10
-164.073
 20
12.1468
 11
-164.438
 21
12.0531
  0
LINE
  8
0
 10
-164.438
 20
12.0531
 11
-164.812
 21
12.0059
  0
LINE
  8
0
 10
-164.812
 20
12.0059
 11
-165.188
 21
12.0059
  0
LINE
  8
0
 10
-165.094
 20
6.00294
 11
-165.281
 21
6.02657
  0
LINE
  8
0
 10
-165.281
 20
6.02657
 11
-165.464
 21
6.07341
  0
LINE
  8
0
 10
-165.464
 20
6.07341
 11
-165.639
 21
6.14275
  0
LINE
  8
0
 10
-165.639
 20
6.14275
 11
-165.804
 21
6.23351
  0
LINE
  8
0
 10
-165.804
 20
6.23351
 11
-165.956
 21
6.34422
  0
LINE
  8
0
 10
-165.956
 20
6.34422
 11
-166.093
 21
6.47318
  0
LINE
  8
0
 10
-166.093
 20
6.47318
 11
-166.214
 21
6.61832
  0
LINE
  8
0
 10
-166.214
 20
6.61832
 11
-166.314
 21
6.77736
  0
LINE
  8
0
 10
-166.314
 20
6.77736
 11
-166.395
 21
6.9478
  0
LINE
  8
0
 10
-166.395
 20
6.9478
 11
-166.453
 21
7.12695
  0
LINE
  8
0
 10
-166.453
 20
7.12695
 11
-166.488
 21
7.312
  0
LINE
  8
0
 10
-166.488
 20
7.312
 11
-166.5
 21
7.5
  0
LINE
  8
0
 10
-166.5
 20
7.5
 11
-166.488
 21
7.68799
  0
LINE
  8
0
 10
-166.488
 20
7.68799
 11
-166.453
 21
7.87303
  0
LINE
  8
0
 10
-166.453
 20
7.87303
 11
-166.395
 21
8.05219
  0
LINE
  8
0
 10
-166.395
 20
8.05219
 11
-166.314
 21
8.22263
  0
LINE
  8
0
 10
-166.314
 20
8.22263
 11
-166.214
 21
8.38167
  0
LINE
  8
0
 10
-166.214
 20
8.38167
 11
-166.093
 21
8.52681
  0
LINE
  8
0
 10
-166.093
 20
8.52681
 11
-165.956
 21
8.65576
  0
LINE
  8
0
 10
-165.956
 20
8.65576
 11
-165.804
 21
8.76648
  0
LINE
  8
0
 10
-165.804
 20
8.76648
 11
-165.639
 21
8.85724
  0
LINE
  8
0
 10
-165.639
 20
8.85724
 11
-165.464
 21
8.92657
  0
LINE
  8
0
 10
-165.464
 20
8.92657
 11
-165.281
 21
8.97342
  0
LINE
  8
0
 10
-165.281
 20
8.97342
 11
-165.094
 21
8.99704
  0
LINE
  8
0
 10
-165.094
 20
8.99704
 11
-164.906
 21
8.99704
  0
LINE
  8
0
 10
-164.906
 20
8.99704
 11
-164.719
 21
8.97342
  0
LINE
  8
0
 10
-164.719
 20
8.97342
 11
-164.536
 21
8.92657
  0
LINE
  8
0
 10
-164.536
 20
8.92657
 11
-164.361
 21
8.85724
  0
LINE
  8
0
 10
-164.361
 20
8.85724
 11
-164.196
 21
8.76648
  0
LINE
  8
0
 10
-164.196
 20
8.76648
 11
-164.044
 21
8.65576
  0
LINE
  8
0
 10
-164.044
 20
8.65576
 11
-163.907
 21
8.52681
  0
LINE
  8
0
 10
-163.907
 20
8.52681
 11
-163.786
 21
8.38167
  0
LINE
  8
0
 10
-163.786
 20
8.38167
 11
-163.686
 21
8.22263
  0
LINE
  8
0
 10
-163.686
 20
8.22263
 11
-163.605
 21
8.05219
  0
LINE
  8
0
 10
-163.605
 20
8.05219
 11
-163.547
 21
7.87303
  0
LINE
  8
0
 10
-163.547
 20
7.87303
 11
-163.512
 21
7.68799
  0
LINE
  8
0
 10
-163.512
 20
7.68799
 11
-163.5
 21
7.5
  0
LINE
  8
0
 10
-163.5
 20
7.5
 11
-163.512
 21
7.312
  0
LINE
  8
0
 10
-163.512
 20
7.312
 11
-163.547
 21
7.12695
  0
LINE
  8
0
 10
-163.547
 20
7.12695
 11
-163.605
 21
6.9478
  0
LINE
  8
0
 10
-163.605
 20
6.9478
 11
-163.686
 21
6.77736
  0
LINE
  8
0
 10
-163.686
 20
6.77736
 11
-163.786
 21
6.61832
  0
LINE
  8
0
 10
-163.786
 20
6.61832
 11
-163.907
 21
6.47318
  0
LINE
  8
0
 10
-163.907
 20
6.47318
 11
-164.044
 21
6.34422
  0
LINE
  8
0
 10
-164.044
 20
6.34422
 11
-164.196
 21
6.23351
  0
LINE
  8
0
 10
-164.196
 20
6.23351
 11
-164.361
 21
6.14275
  0
LINE
  8
0
 10
-164.361
 20
6.14275
 11
-164.536
 21
6.07341
  0
LINE
  8
0
 10
-164.536
 20
6.07341
 11
-164.719
 21
6.02657
  0
LINE
  8
0
 10
-164.719
 20
6.02657
 11
-164.906
 21
6.00294
  0
LINE
  8
0
 10
-164.906
 20
6.00294
 11
-165.094
 21
6.00294
  0
LINE
  8
0
 10
-165.188
 20
-2.99408
 11
-165.562
 21
-2.94685
  0
LINE
  8
0
 10
-165.562
 20
-2.94685
 11
-165.927
 21
-2.85316
  0
LINE
  8
0
 10
-165.927
 20
-2.85316
 11
-166.277
 21
-2.71448
  0
LINE
  8
0
 10
-166.277
 20
-2.71448
 11
-166.607
 21
-2.53297
  0
LINE
  8
0
 10
-166.607
 20
-2.53297
 11
-166.912
 21
-2.31154
  0
LINE
  8
0
 10
-166.912
 20
-2.31154
 11
-167.187
 21
-2.05363
  0
LINE
  8
0
 10
-167.187
 20
-2.05363
 11
-167.427
 21
-1.76335
  0
LINE
  8
0
 10
-167.427
 20
-1.76335
 11
-167.629
 21
-1.44525
  0
LINE
  8
0
 10
-167.629
 20
-1.44525
 11
-167.789
 21
-1.10437
  0
LINE
  8
0
 10
-167.789
 20
-1.10437
 11
-167.906
 21
-0.746063
  0
LINE
  8
0
 10
-167.906
 20
-0.746063
 11
-167.976
 21
-0.375992
  0
LINE
  8
0
 10
-167.976
 20
-0.375992
 11
-168
 21
0
  0
LINE
  8
0
 10
-168
 20
0
 11
-167.976
 21
0.375992
  0
LINE
  8
0
 10
-167.976
 20
0.375992
 11
-167.906
 21
0.746063
  0
LINE
  8
0
 10
-167.906
 20
0.746063
 11
-167.789
 21
1.10437
  0
LINE
  8
0
 10
-167.789
 20
1.10437
 11
-167.629
 21
1.44525
  0
LINE
  8
0
 10
-167.629
 20
1.44525
 11
-167.427
 21
1.76335
  0
LINE
  8
0
 10
-167.427
 20
1.76335
 11
-167.187
 21
2.05363
  0
LINE
  8
0
 10
-167.187
 20
2.05363
 11
-166.912
 21
2.31154
  0
LINE
  8
0
 10
-166.912
 20
2.31154
 11
-166.607
 21
2.53297
  0
LINE
  8
0
 10
-166.607
 20
2.53297
 11
-166.277
 21
2.71448
  0
LINE
  8
0
 10
-166.277
 20
2.71448
 11
-165.927
 21
2.85316
  0
LINE
  8
0
 10
-165.927
 20
2.85316
 11
-165.562
 21
2.94685
  0
LINE
  8
0
 10
-165.562
 20
2.94685
 11
-165.188
 21
2.99408
  0
LINE
  8
0
 10
-165.188
 20
2.99408
 11
-164.812
 21
2.99408
  0
LINE
  8
0
 10
-164.812
 20
2.99408
 11
-164.438
 21
2.94685
  0
LINE
  8
0
 10
-164.438
 20
2.94685
 11
-164.073
 21
2.85316
  0
LINE
  8
0
 10
-164.073
 20
2.85316
 11
-163.723
 21
2.71448
  0
LINE
  8
0
 10
-163.723
 20
2.71448
 11
-163.393
 21
2.53297
  0
LINE
  8
0
 10
-163.393
 20
2.53297
 11
-163.088
 21
2.31154
  0
LINE
  8
0
 10
-163.088
 20
2.31154
 11
-162.813
 21
2.05363
  0
LINE
  8
0
 10
-162.813
 20
2.05363
 11
-162.573
 21
1.76335
  0
LINE
  8
0
 10
-162.573
 20
1.76335
 11
-162.371
 21
1.44525
  0
LINE
  8
0
 10
-162.371
 20
1.44525
 11
-162.211
 21
1.10437
  0
LINE
  8
0
 10
-162.211
 20
1.10437
 11
-162.094
 21
0.746063
  0
LINE
  8
0
 10
-162.094
 20
0.746063
 11
-162.024
 21
0.375992
  0
LINE
  8
0
 10
-162.024
 20
0.375992
 11
-162
 21
0
  0
LINE
  8
0
 10
-162
 20
0
 11
-162.024
 21
-0.375992
  0
LINE
  8
0
 10
-162.024
 20
-0.375992
 11
-162.094
 21
-0.746063
  0
LINE
  8
0
 10
-162.094
 20
-0.746063
 11
-162.211
 21
-1.10437
  0
LINE
  8
0
 10
-162.211
 20
-1.10437
 11
-162.371
 21
-1.44525
  0
LINE
  8
0
 10
-162.371
 20
-1.44525
 11
-162.573
 21
-1.76335
  0
LINE
  8
0
 10
-162.573
 20
-1.76335
 11
-162.813
 21
-2.05363
  0
LINE
  8
0
 10
-162.813
 20
-2.05363
 11
-163.088
 21
-2.31154
  0
LINE
  8
0
 10
-163.088
 20
-2.31154
 11
-163.393
 21
-2.53297
  0
LINE
  8
0
 10
-163.393
 20
-2.53297
 11
-163.723
 21
-2.71448
  0
LINE
  8
0
 10
-163.723
 20
-2.71448
 11
-164.073
 21
-2.85316
  0
LINE
  8
0
 10
-164.073
 20
-2.85316
 11
-164.438
 21
-2.94685
  0
LINE
  8
0
 10
-164.438
 20
-2.94685
 11
-164.812
 21
-2.99408
  0
LINE
  8
0
 10
-164.812
 20
-2.99408
 11
-165.188
 21
-2.99408
  0
LINE
  8
0
 10
-165.094
 20
-8.99704
 11
-165.281
 21
-8.97342
  0
LINE
  8
0
 10
-165.281
 20
-8.97342
 11
-165.464
 21
-8.92657
  0
LINE
  8
0
 10
-165.464
 20
-8.92657
 11
-165.639
 21
-8.85724
  0
LINE
  8
0
 10
-165.639
 20
-8.85724
 11
-165.804
 21
-8.76648
  0
LINE
  8
0
 10
-165.804
 20
-8.76648
 11
-165.956
 21
-8.65576
  0
LINE
  8
0
 10
-165.956
 20
-8.65576
 11
-166.093
 21
-8.52681
  0
LINE
  8
0
 10
-166.093
 20
-8.52681
 11
-166.214
 21
-8.38167
  0
LINE
  8
0
 10
-166.214
 20
-8.38167
 11
-166.314
 21
-8.22263
  0
LINE
  8
0
 10
-166.314
 20
-8.22263
 11
-166.395
 21
-8.05219
  0
LINE
  8
0
 10
-166.395
 20
-8.05219
 11
-166.453
 21
-7.87303
  0
LINE
  8
0
 10
-166.453
 20
-7.87303
 11
-166.488
 21
-7.68799
  0
LINE
  8
0
 10
-166.488
 20
-7.68799
 11
-166.5
 21
-7.5
  0
LINE
  8
0
 10
-166.5
 20
-7.5
 11
-166.488
 21
-7.312
  0
LINE
  8
0
 10
-166.488
 20
-7.312
 11
-166.453
 21
-7.12695
  0
LINE
  8
0
 10
-166.453
 20
-7.12695
 11
-166.395
 21
-6.9478
  0
LINE
  8
0
 10
-166.395
 20
-6.9478
 11
-166.314
 21
-6.77736
  0
LINE
  8
0
 10
-166.314
 20
-6.77736
 11
-166.214
 21
-6.61832
  0
LINE
  8
0
 10
-166.214
 20
-6.61832
 11
-166.093
 21
-6.47318
  0
LINE
  8
0
 10
-166.093
 20
-6.47318
 11
-165.956
 21
-6.34422
  0
LINE
  8
0
 10
-165.956
 20
-6.34422
 11
-165.804
 21
-6.23351
  0
LINE
  8
0
 10
-165.804
 20
-6.23351
 11
-165.639
 21
-6.14275
  0
LINE
  8
0
 10
-165.639
 20
-6.14275
 11
-165.464
 21
-6.07341
  0
LINE
  8
0
 10
-165.464
 20
-6.07341
 11
-165.281
 21
-6.02657
  0
LINE
  8
0
 10
-165.281
 20
-6.02657
 11
-165.094
 21
-6.00294
  0
LINE
  8
0
 10
-165.094
 20
-6.00294
 11
-164.906
 21
-6.00294
  0
LINE
  8
0
 10
-164.906
 20
-6.00294
 11
-164.719
 21
-6.02657
  0
LINE
  8
0
 10
-164.719
 20
-6.02657
 11
-164.536
 21
-6.07341
  0
LINE
  8
0
 10
-164.536
 20
-6.07341
 11
-164.361
 21
-6.14275
  0
LINE
  8
0
 10
-164.361
 20
-6.14275
 11
-164.196
 21
-6.23351
  0
LINE
  8
0
 10
-164.196
 20
-6.23351
 11
-164.044
 21
-6.34422
  0
LINE
  8
0
 10
-164.044
 20
-6.34422
 11
-163.907
 21
-6.47318
  0
LINE
  8
0
 10
-163.907
 20
-6.47318
 11
-163.786
 21
-6.61832
  0
LINE
  8
0
 10
-163.786
 20
-6.61832
 11
-163.686
 21
-6.77736
  0
LINE
  8
0
 10
-163.686
 20
-6.77736
 11
-163.605
 21
-6.9478
  0
LINE
  8
0
 10
-163.605
 20
-6.9478
 11
-163.547
 21
-7.12695
  0
LINE
  8
0
 10
-163.547
 20
-7.12695
 11
-163.512
 21
-7.312
  0
LINE
  8
0
 10
-163.512
 20
-7.312
 11
-163.5
 21
-7.5
  0
LINE
  8
0
 10
-163.5
 20
-7.5
 11
-163.512
 21
-7.68799
  0
LINE
  8
0
 10
-163.512
 20
-7.68799
 11
-163.547
 21
-7.87303
  0
LINE
  8
0
 10
-163.547
 20
-7.87303
 11
-163.605
 21
-8.05219
  0
LINE
  8
0
 10
-163.605
 20
-8.05219
 11
-163.686
 21
-8.22263
  0
LINE
  8
0
 10
-163.686
 20
-8.22263
 11
-163.786
 21
-8.38167
  0
LINE
  8
0
 10
-163.786
 20
-8.38167
 11
-163.907
 21
-8.52681
  0
LINE
  8
0
 10
-163.907
 20
-8.52681
 11
-164.044
 21
-8.65576
  0
LINE
  8
0
 10
-164.044
 20
-8.65576
 11
-164.196
 21
-8.76648
  0
LINE
  8
0
 10
-164.196
 20
-8.76648
 11
-164.361
 21
-8.85724
  0
LINE
  8
0
 10
-164.361
 20
-8.85724
 11
-164.536
 21
-8.92657
  0
LINE
  8
0
 10
-164.536
 20
-8.92657
 11
-164.719
 21
-8.97342
  0
LINE
  8
0
 10
-164.719
 20
-8.97342
 11
-164.906
 21
-8.99704
  0
LINE
  8
0
 10
-164.906
 20
-8.99704
 11
-165.094
 21
-8.99704
  0
LINE
  8
0
 10
-165.188
 20
-17.9941
 11
-165.562
 21
-17.9469
  0
LINE
  8
0
 10
-165.562
 20
-17.9469
 11
-165.927
 21
-17.8532
  0
LINE
  8
0
 10
-165.927
 20
-17.8532
 11
-166.277
 21
-17.7145
  0
LINE
  8
0
 10
-166.277
 20
-17.7145
 11
-166.607
 21
-17.533
  0
LINE
  8
0
 10
-166.607
 20
-17.533
 11
-166.912
 21
-17.3115
  0
LINE
  8
0
 10
-166.912
 20
-17.3115
 11
-167.187
 21
-17.0536
  0
LINE
  8
0
 10
-167.187
 20
-17.0536
 11
-167.427
 21
-16.7634
  0
LINE
  8
0
 10
-167.427
 20
-16.7634
 11
-167.629
 21
-16.4453
  0
LINE
  8
0
 10
-167.629
 20
-16.4453
 11
-167.789
 21
-16.1044
  0
LINE
  8
0
 10
-167.789
 20
-16.1044
 11
-167.906
 21
-15.7461
  0
LINE
  8
0
 10
-167.906
 20
-15.7461
 11
-167.976
 21
-15.376
  0
LINE
  8
0
 10
-167.976
 20
-15.376
 11
-168
 21
-15
  0
LINE
  8
0
 10
-168
 20
-15
 11
-167.976
 21
-14.624
  0
LINE
  8
0
 10
-167.976
 20
-14.624
 11
-167.906
 21
-14.2539
  0
LINE
  8
0
 10
-167.906
 20
-14.2539
 11
-167.789
 21
-13.8956
  0
LINE
  8
0
 10
-167.789
 20
-13.8956
 11
-167.629
 21
-13.5547
  0
LINE
  8
0
 10
-167.629
 20
-13.5547
 11
-167.427
 21
-13.2366
  0
LINE
  8
0
 10
-167.427
 20
-13.2366
 11
-167.187
 21
-12.9464
  0
LINE
  8
0
 10
-167.187
 20
-12.9464
 11
-166.912
 21
-12.6884
  0
LINE
  8
0
 10
-166.912
 20
-12.6884
 11
-166.607
 21
-12.467
  0
LINE
  8
0
 10
-166.607
 20
-12.467
 11
-166.277
 21
-12.2855
  0
LINE
  8
0
 10
-166.277
 20
-12.2855
 11
-165.927
 21
-12.1468
  0
LINE
  8
0
 10
-165.927
 20
-12.1468
 11
-165.562
 21
-12.0531
  0
LINE
  8
0
 10
-165.562
 20
-12.0531
 11
-165.188
 21
-12.0059
  0
LINE
  8
0
 10
-165.188
 20
-12.0059
 11
-164.812
 21
-12.0059
  0
LINE
  8
0
 10
-164.812
 20
-12.0059
 11
-164.438
 21
-12.0531
  0
LINE
  8
0
 10
-164.438
 20
-12.0531
 11
-164.073
 21
-12.1468
  0
LINE
  8
0
 10
-164.073
 20
-12.1468
 11
-163.723
 21
-12.2855
  0
LINE
  8
0
 10
-163.723
 20
-12.2855
 11
-163.393
 21
-12.467
  0
LINE
  8
0
 10
-163.393
 20
-12.467
 11
-163.088
 21
-12.6884
  0
LINE
  8
0
 10
-163.088
 20
-12.6884
 11
-162.813
 21
-12.9464
  0
LINE
  8
0
 10
-162.813
 20
-12.9464
 11
-162.573
 21
-13.2366
  0
LINE
  8
0
 10
-162.573
 20
-13.2366
 11
-162.371
 21
-13.5547
  0
LINE
  8
0
 10
-162.371
 20
-13.5547
 11
-162.211
 21
-13.8956
  0
LINE
  8
0
 10
-162.211
 20
-13.8956
 11
-162.094
 21
-14.2539
  0
LINE
  8
0
 10
-162.094
 20
-14.2539
 11
-162.024
 21
-14.624
  0
LINE
  8
0
 10
-162.024
 20
-14.624
 11
-162
 21
-15
  0
LINE
  8
0
 10
-162
 20
-15
 11
-162.024
 21
-15.376
  0
LINE
  8
0
 10
-162.024
 20
-15.376
 11
-162.094
 21
-15.7461
  0
LINE
  8
0
 10
-162.094
 20
-15.7461
 11
-162.211
 21
-16.1044
  0
LINE
  8
0
 10
-162.211
 20
-16.1044
 11
-162.371
 21
-16.4453
  0
LINE
  8
0
 10
-162.371
 20
-16.4453
 11
-162.573
 21
-16.7634
  0
LINE
  8
0
 10
-162.573
 20
-16.7634
 11
-162.813
 21
-17.0536
  0
LINE
  8
0
 10
-162.813
 20
-17.0536
 11
-163.088
 21
-17.3115
  0
LINE
  8
0
 10
-163.088
 20
-17.3115
 11
-163.393
 21
-17.533
  0
LINE
  8
0
 10
-163.393
 20
-17.533
 11
-163.723
 21
-17.7145
  0
LINE
  8
0
 10
-163.723
 20
-17.7145
 11
-164.073
 21
-17.8532
  0
LINE
  8
0
 10
-164.073
 20
-17.8532
 11
-164.438
 21
-17.9469
  0
LINE
  8
0
 10
-164.438
 20
-17.9469
 11
-164.812
 21
-17.9941
  0
LINE
  8
0
 10
-164.812
 20
-17.9941
 11
-165.188
 21
-17.9941
  0
ENDSEC
  0
SECTION
  2
OBJECTS
  0
DICTIONARY
  0
ENDSEC
  0
EOF
