  0
SECTION
  2
BLOCKS
  0
ENDSEC
  0
SECTION
  2
ENTITIES
  0
LINE
  8
0
 10
85.4369
 20
89.0886
 11
86.0451
 21
89.2447
  0
LINE
  8
0
 10
86.0451
 20
89.2447
 11
86.6289
 21
89.4759
  0
LINE
  8
0
 10
86.6289
 20
89.4759
 11
87.1791
 21
89.7784
  0
LINE
  8
0
 10
87.1791
 20
89.7784
 11
87.6871
 21
90.1474
  0
LINE
  8
0
 10
87.6871
 20
90.1474
 11
88.1448
 21
90.5773
  0
LINE
  8
0
 10
88.1448
 20
90.5773
 11
88.5451
 21
91.0611
  0
LINE
  8
0
 10
88.5451
 20
91.0611
 11
88.8815
 21
91.5912
  0
LINE
  8
0
 10
88.8815
 20
91.5912
 11
89.1489
 21
92.1594
  0
LINE
  8
0
 10
89.1489
 20
92.1594
 11
89.3429
 21
92.7566
  0
LINE
  8
0
 10
89.3429
 20
92.7566
 11
89.4606
 21
93.3733
  0
LINE
  8
0
 10
89.4606
 20
93.3733
 11
89.5
 21
94
  0
LINE
  8
0
 10
89.5
 20
94
 11
89.5
 21
98
  0
LINE
  8
0
 10
89.5
 20
98
 11
89.4606
 21
98.6267
  0
LINE
  8
0
 10
89.4606
 20
98.6267
 11
89.3429
 21
99.2434
  0
LINE
  8
0
 10
89.3429
 20
99.2434
 11
89.1489
 21
99.8406
  0
LINE
  8
0
 10
89.1489
 20
99.8406
 11
88.8815
 21
100.409
  0
LINE
  8
0
 10
88.8815
 20
100.409
 11
88.5451
 21
100.939
  0
LINE
  8
0
 10
88.5451
 20
100.939
 11
88.1448
 21
101.423
  0
LINE
  8
0
 10
88.1448
 20
101.423
 11
87.6871
 21
101.853
  0
LINE
  8
0
 10
87.6871
 20
101.853
 11
87.1791
 21
102.222
  0
LINE
  8
0
 10
87.1791
 20
102.222
 11
86.6289
 21
102.524
  0
LINE
  8
0
 10
86.6289
 20
102.524
 11
86.0451
 21
102.755
  0
LINE
  8
0
 10
86.0451
 20
102.755
 11
85.4369
 21
102.911
  0
LINE
  8
0
 10
85.4369
 20
102.911
 11
84.8139
 21
102.99
  0
LINE
  8
0
 10
84.8139
 20
102.99
 11
-84.8139
 21
102.99
  0
LINE
  8
0
 10
-84.8139
 20
102.99
 11
-85.4369
 21
102.911
  0
LINE
  8
0
 10
-85.4369
 20
102.911
 11
-86.0451
 21
102.755
  0
LINE
  8
0
 10
-86.0451
 20
102.755
 11
-86.6289
 21
102.524
  0
LINE
  8
0
 10
-86.6289
 20
102.524
 11
-87.1791
 21
102.222
  0
LINE
  8
0
 10
-87.1791
 20
102.222
 11
-87.6871
 21
101.853
  0
LINE
  8
0
 10
-87.6871
 20
101.853
 11
-88.1448
 21
101.423
  0
LINE
  8
0
 10
-88.1448
 20
101.423
 11
-88.5451
 21
100.939
  0
LINE
  8
0
 10
-88.5451
 20
100.939
 11
-88.8815
 21
100.409
  0
LINE
  8
0
 10
-88.8815
 20
100.409
 11
-89.1489
 21
99.8406
  0
LINE
  8
0
 10
-89.1489
 20
99.8406
 11
-89.3429
 21
99.2434
  0
LINE
  8
0
 10
-89.3429
 20
99.2434
 11
-89.4606
 21
98.6267
  0
LINE
  8
0
 10
-89.4606
 20
98.6267
 11
-89.5
 21
98
  0
LINE
  8
0
 10
-89.5
 20
98
 11
-89.5
 21
94
  0
LINE
  8
0
 10
-89.5
 20
94
 11
-89.4606
 21
93.3733
  0
LINE
  8
0
 10
-89.4606
 20
93.3733
 11
-89.3429
 21
92.7566
  0
LINE
  8
0
 10
-89.3429
 20
92.7566
 11
-89.1489
 21
92.1594
  0
LINE
  8
0
 10
-89.1489
 20
92.1594
 11
-88.8815
 21
91.5912
  0
LINE
  8
0
 10
-88.8815
 20
91.5912
 11
-88.5451
 21
91.0611
  0
LINE
  8
0
 10
-88.5451
 20
91.0611
 11
-88.1448
 21
90.5773
  0
LINE
  8
0
 10
-88.1448
 20
90.5773
 11
-87.6871
 21
90.1474
  0
LINE
  8
0
 10
-87.6871
 20
90.1474
 11
-87.1791
 21
89.7784
  0
LINE
  8
0
 10
-87.1791
 20
89.7784
 11
-86.6289
 21
89.4759
  0
LINE
  8
0
 10
-86.6289
 20
89.4759
 11
-86.0451
 21
89.2447
  0
LINE
  8
0
 10
-86.0451
 20
89.2447
 11
-85.4369
 21
89.0886
  0
LINE
  8
0
 10
-85.4369
 20
89.0886
 11
-84.8139
 21
89.0099
  0
LINE
  8
0
 10
-84.8139
 20
89.0099
 11
84.8139
 21
89.0099
  0
LINE
  8
0
 10
84.8139
 20
89.0099
 11
85.4369
 21
89.0886
  0
LINE
  8
0
 10
-82.6884
 20
93.0059
 11
-83.0621
 21
93.0531
  0
LINE
  8
0
 10
-83.0621
 20
93.0531
 11
-83.427
 21
93.1468
  0
LINE
  8
0
 10
-83.427
 20
93.1468
 11
-83.7773
 21
93.2855
  0
LINE
  8
0
 10
-83.7773
 20
93.2855
 11
-84.1075
 21
93.467
  0
LINE
  8
0
 10
-84.1075
 20
93.467
 11
-84.4123
 21
93.6885
  0
LINE
  8
0
 10
-84.4123
 20
93.6885
 11
-84.6869
 21
93.9464
  0
LINE
  8
0
 10
-84.6869
 20
93.9464
 11
-84.927
 21
94.2366
  0
LINE
  8
0
 10
-84.927
 20
94.2366
 11
-85.1289
 21
94.5547
  0
LINE
  8
0
 10
-85.1289
 20
94.5547
 11
-85.2893
 21
94.8956
  0
LINE
  8
0
 10
-85.2893
 20
94.8956
 11
-85.4057
 21
95.2539
  0
LINE
  8
0
 10
-85.4057
 20
95.2539
 11
-85.4763
 21
95.624
  0
LINE
  8
0
 10
-85.4763
 20
95.624
 11
-85.5
 21
96
  0
LINE
  8
0
 10
-85.5
 20
96
 11
-85.4763
 21
96.376
  0
LINE
  8
0
 10
-85.4763
 20
96.376
 11
-85.4057
 21
96.7461
  0
LINE
  8
0
 10
-85.4057
 20
96.7461
 11
-85.2893
 21
97.1044
  0
LINE
  8
0
 10
-85.2893
 20
97.1044
 11
-85.1289
 21
97.4453
  0
LINE
  8
0
 10
-85.1289
 20
97.4453
 11
-84.927
 21
97.7634
  0
LINE
  8
0
 10
-84.927
 20
97.7634
 11
-84.6869
 21
98.0536
  0
LINE
  8
0
 10
-84.6869
 20
98.0536
 11
-84.4123
 21
98.3115
  0
LINE
  8
0
 10
-84.4123
 20
98.3115
 11
-84.1075
 21
98.533
  0
LINE
  8
0
 10
-84.1075
 20
98.533
 11
-83.7773
 21
98.7145
  0
LINE
  8
0
 10
-83.7773
 20
98.7145
 11
-83.427
 21
98.8532
  0
LINE
  8
0
 10
-83.427
 20
98.8532
 11
-83.0621
 21
98.9469
  0
LINE
  8
0
 10
-83.0621
 20
98.9469
 11
-82.6884
 21
98.9941
  0
LINE
  8
0
 10
-82.6884
 20
98.9941
 11
-82.3116
 21
98.9941
  0
LINE
  8
0
 10
-82.3116
 20
98.9941
 11
-81.9379
 21
98.9469
  0
LINE
  8
0
 10
-81.9379
 20
98.9469
 11
-81.573
 21
98.8532
  0
LINE
  8
0
 10
-81.573
 20
98.8532
 11
-81.2227
 21
98.7145
  0
LINE
  8
0
 10
-81.2227
 20
98.7145
 11
-80.8925
 21
98.533
  0
LINE
  8
0
 10
-80.8925
 20
98.533
 11
-80.5877
 21
98.3115
  0
LINE
  8
0
 10
-80.5877
 20
98.3115
 11
-80.3131
 21
98.0536
  0
LINE
  8
0
 10
-80.3131
 20
98.0536
 11
-80.073
 21
97.7634
  0
LINE
  8
0
 10
-80.073
 20
97.7634
 11
-79.8711
 21
97.4453
  0
LINE
  8
0
 10
-79.8711
 20
97.4453
 11
-79.7107
 21
97.1044
  0
LINE
  8
0
 10
-79.7107
 20
97.1044
 11
-79.5943
 21
96.7461
  0
LINE
  8
0
 10
-79.5943
 20
96.7461
 11
-79.5237
 21
96.376
  0
LINE
  8
0
 10
-79.5237
 20
96.376
 11
-79.5
 21
96
  0
LINE
  8
0
 10
-79.5
 20
96
 11
-79.5237
 21
95.624
  0
LINE
  8
0
 10
-79.5237
 20
95.624
 11
-79.5943
 21
95.2539
  0
LINE
  8
0
 10
-79.5943
 20
95.2539
 11
-79.7107
 21
94.8956
  0
LINE
  8
0
 10
-79.7107
 20
94.8956
 11
-79.8711
 21
94.5547
  0
LINE
  8
0
 10
-79.8711
 20
94.5547
 11
-80.073
 21
94.2366
  0
LINE
  8
0
 10
-80.073
 20
94.2366
 11
-80.3131
 21
93.9464
  0
LINE
  8
0
 10
-80.3131
 20
93.9464
 11
-80.5877
 21
93.6885
  0
LINE
  8
0
 10
-80.5877
 20
93.6885
 11
-80.8925
 21
93.467
  0
LINE
  8
0
 10
-80.8925
 20
93.467
 11
-81.2227
 21
93.2855
  0
LINE
  8
0
 10
-81.2227
 20
93.2855
 11
-81.573
 21
93.1468
  0
LINE
  8
0
 10
-81.573
 20
93.1468
 11
-81.9379
 21
93.0531
  0
LINE
  8
0
 10
-81.9379
 20
93.0531
 11
-82.3116
 21
93.0059
  0
LINE
  8
0
 10
-82.3116
 20
93.0059
 11
-82.6884
 21
93.0059
  0
LINE
  8
0
 10
85.4369
 20
65.0886
 11
86.0451
 21
65.2447
  0
LINE
  8
0
 10
86.0451
 20
65.2447
 11
86.6289
 21
65.4759
  0
LINE
  8
0
 10
86.6289
 20
65.4759
 11
87.1791
 21
65.7784
  0
LINE
  8
0
 10
87.1791
 20
65.7784
 11
87.6871
 21
66.1474
  0
LINE
  8
0
 10
87.6871
 20
66.1474
 11
88.1448
 21
66.5773
  0
LINE
  8
0
 10
88.1448
 20
66.5773
 11
88.5451
 21
67.0611
  0
LINE
  8
0
 10
88.5451
 20
67.0611
 11
88.8815
 21
67.5912
  0
LINE
  8
0
 10
88.8815
 20
67.5912
 11
89.1489
 21
68.1594
  0
LINE
  8
0
 10
89.1489
 20
68.1594
 11
89.3429
 21
68.7566
  0
LINE
  8
0
 10
89.3429
 20
68.7566
 11
89.4606
 21
69.3733
  0
LINE
  8
0
 10
89.4606
 20
69.3733
 11
89.5
 21
70
  0
LINE
  8
0
 10
89.5
 20
70
 11
89.5
 21
74
  0
LINE
  8
0
 10
89.5
 20
74
 11
89.4606
 21
74.6267
  0
LINE
  8
0
 10
89.4606
 20
74.6267
 11
89.3429
 21
75.2434
  0
LINE
  8
0
 10
89.3429
 20
75.2434
 11
89.1489
 21
75.8406
  0
LINE
  8
0
 10
89.1489
 20
75.8406
 11
88.8815
 21
76.4088
  0
LINE
  8
0
 10
88.8815
 20
76.4088
 11
88.5451
 21
76.9389
  0
LINE
  8
0
 10
88.5451
 20
76.9389
 11
88.1448
 21
77.4227
  0
LINE
  8
0
 10
88.1448
 20
77.4227
 11
87.6871
 21
77.8526
  0
LINE
  8
0
 10
87.6871
 20
77.8526
 11
87.1791
 21
78.2216
  0
LINE
  8
0
 10
87.1791
 20
78.2216
 11
86.6289
 21
78.5241
  0
LINE
  8
0
 10
86.6289
 20
78.5241
 11
86.0451
 21
78.7553
  0
LINE
  8
0
 10
86.0451
 20
78.7553
 11
85.4369
 21
78.9114
  0
LINE
  8
0
 10
85.4369
 20
78.9114
 11
84.8139
 21
78.9901
  0
LINE
  8
0
 10
84.8139
 20
78.9901
 11
-84.8139
 21
78.9901
  0
LINE
  8
0
 10
-84.8139
 20
78.9901
 11
-85.4369
 21
78.9114
  0
LINE
  8
0
 10
-85.4369
 20
78.9114
 11
-86.0451
 21
78.7553
  0
LINE
  8
0
 10
-86.0451
 20
78.7553
 11
-86.6289
 21
78.5241
  0
LINE
  8
0
 10
-86.6289
 20
78.5241
 11
-87.1791
 21
78.2216
  0
LINE
  8
0
 10
-87.1791
 20
78.2216
 11
-87.6871
 21
77.8526
  0
LINE
  8
0
 10
-87.6871
 20
77.8526
 11
-88.1448
 21
77.4227
  0
LINE
  8
0
 10
-88.1448
 20
77.4227
 11
-88.5451
 21
76.9389
  0
LINE
  8
0
 10
-88.5451
 20
76.9389
 11
-88.8815
 21
76.4088
  0
LINE
  8
0
 10
-88.8815
 20
76.4088
 11
-89.1489
 21
75.8406
  0
LINE
  8
0
 10
-89.1489
 20
75.8406
 11
-89.3429
 21
75.2434
  0
LINE
  8
0
 10
-89.3429
 20
75.2434
 11
-89.4606
 21
74.6267
  0
LINE
  8
0
 10
-89.4606
 20
74.6267
 11
-89.5
 21
74
  0
LINE
  8
0
 10
-89.5
 20
74
 11
-89.5
 21
70
  0
LINE
  8
0
 10
-89.5
 20
70
 11
-89.4606
 21
69.3733
  0
LINE
  8
0
 10
-89.4606
 20
69.3733
 11
-89.3429
 21
68.7566
  0
LINE
  8
0
 10
-89.3429
 20
68.7566
 11
-89.1489
 21
68.1594
  0
LINE
  8
0
 10
-89.1489
 20
68.1594
 11
-88.8815
 21
67.5912
  0
LINE
  8
0
 10
-88.8815
 20
67.5912
 11
-88.5451
 21
67.0611
  0
LINE
  8
0
 10
-88.5451
 20
67.0611
 11
-88.1448
 21
66.5773
  0
LINE
  8
0
 10
-88.1448
 20
66.5773
 11
-87.6871
 21
66.1474
  0
LINE
  8
0
 10
-87.6871
 20
66.1474
 11
-87.1791
 21
65.7784
  0
LINE
  8
0
 10
-87.1791
 20
65.7784
 11
-86.6289
 21
65.4759
  0
LINE
  8
0
 10
-86.6289
 20
65.4759
 11
-86.0451
 21
65.2447
  0
LINE
  8
0
 10
-86.0451
 20
65.2447
 11
-85.4369
 21
65.0886
  0
LINE
  8
0
 10
-85.4369
 20
65.0886
 11
-84.8139
 21
65.0099
  0
LINE
  8
0
 10
-84.8139
 20
65.0099
 11
84.8139
 21
65.0099
  0
LINE
  8
0
 10
84.8139
 20
65.0099
 11
85.4369
 21
65.0886
  0
LINE
  8
0
 10
-82.6884
 20
69.0059
 11
-83.0621
 21
69.0531
  0
LINE
  8
0
 10
-83.0621
 20
69.0531
 11
-83.427
 21
69.1468
  0
LINE
  8
0
 10
-83.427
 20
69.1468
 11
-83.7773
 21
69.2855
  0
LINE
  8
0
 10
-83.7773
 20
69.2855
 11
-84.1075
 21
69.467
  0
LINE
  8
0
 10
-84.1075
 20
69.467
 11
-84.4123
 21
69.6885
  0
LINE
  8
0
 10
-84.4123
 20
69.6885
 11
-84.6869
 21
69.9464
  0
LINE
  8
0
 10
-84.6869
 20
69.9464
 11
-84.927
 21
70.2366
  0
LINE
  8
0
 10
-84.927
 20
70.2366
 11
-85.1289
 21
70.5547
  0
LINE
  8
0
 10
-85.1289
 20
70.5547
 11
-85.2893
 21
70.8956
  0
LINE
  8
0
 10
-85.2893
 20
70.8956
 11
-85.4057
 21
71.2539
  0
LINE
  8
0
 10
-85.4057
 20
71.2539
 11
-85.4763
 21
71.624
  0
LINE
  8
0
 10
-85.4763
 20
71.624
 11
-85.5
 21
72
  0
LINE
  8
0
 10
-85.5
 20
72
 11
-85.4763
 21
72.376
  0
LINE
  8
0
 10
-85.4763
 20
72.376
 11
-85.4057
 21
72.7461
  0
LINE
  8
0
 10
-85.4057
 20
72.7461
 11
-85.2893
 21
73.1044
  0
LINE
  8
0
 10
-85.2893
 20
73.1044
 11
-85.1289
 21
73.4453
  0
LINE
  8
0
 10
-85.1289
 20
73.4453
 11
-84.927
 21
73.7634
  0
LINE
  8
0
 10
-84.927
 20
73.7634
 11
-84.6869
 21
74.0536
  0
LINE
  8
0
 10
-84.6869
 20
74.0536
 11
-84.4123
 21
74.3115
  0
LINE
  8
0
 10
-84.4123
 20
74.3115
 11
-84.1075
 21
74.533
  0
LINE
  8
0
 10
-84.1075
 20
74.533
 11
-83.7773
 21
74.7145
  0
LINE
  8
0
 10
-83.7773
 20
74.7145
 11
-83.427
 21
74.8532
  0
LINE
  8
0
 10
-83.427
 20
74.8532
 11
-83.0621
 21
74.9469
  0
LINE
  8
0
 10
-83.0621
 20
74.9469
 11
-82.6884
 21
74.9941
  0
LINE
  8
0
 10
-82.6884
 20
74.9941
 11
-82.3116
 21
74.9941
  0
LINE
  8
0
 10
-82.3116
 20
74.9941
 11
-81.9379
 21
74.9469
  0
LINE
  8
0
 10
-81.9379
 20
74.9469
 11
-81.573
 21
74.8532
  0
LINE
  8
0
 10
-81.573
 20
74.8532
 11
-81.2227
 21
74.7145
  0
LINE
  8
0
 10
-81.2227
 20
74.7145
 11
-80.8925
 21
74.533
  0
LINE
  8
0
 10
-80.8925
 20
74.533
 11
-80.5877
 21
74.3115
  0
LINE
  8
0
 10
-80.5877
 20
74.3115
 11
-80.3131
 21
74.0536
  0
LINE
  8
0
 10
-80.3131
 20
74.0536
 11
-80.073
 21
73.7634
  0
LINE
  8
0
 10
-80.073
 20
73.7634
 11
-79.8711
 21
73.4453
  0
LINE
  8
0
 10
-79.8711
 20
73.4453
 11
-79.7107
 21
73.1044
  0
LINE
  8
0
 10
-79.7107
 20
73.1044
 11
-79.5943
 21
72.7461
  0
LINE
  8
0
 10
-79.5943
 20
72.7461
 11
-79.5237
 21
72.376
  0
LINE
  8
0
 10
-79.5237
 20
72.376
 11
-79.5
 21
72
  0
LINE
  8
0
 10
-79.5
 20
72
 11
-79.5237
 21
71.624
  0
LINE
  8
0
 10
-79.5237
 20
71.624
 11
-79.5943
 21
71.2539
  0
LINE
  8
0
 10
-79.5943
 20
71.2539
 11
-79.7107
 21
70.8956
  0
LINE
  8
0
 10
-79.7107
 20
70.8956
 11
-79.8711
 21
70.5547
  0
LINE
  8
0
 10
-79.8711
 20
70.5547
 11
-80.073
 21
70.2366
  0
LINE
  8
0
 10
-80.073
 20
70.2366
 11
-80.3131
 21
69.9464
  0
LINE
  8
0
 10
-80.3131
 20
69.9464
 11
-80.5877
 21
69.6885
  0
LINE
  8
0
 10
-80.5877
 20
69.6885
 11
-80.8925
 21
69.467
  0
LINE
  8
0
 10
-80.8925
 20
69.467
 11
-81.2227
 21
69.2855
  0
LINE
  8
0
 10
-81.2227
 20
69.2855
 11
-81.573
 21
69.1468
  0
LINE
  8
0
 10
-81.573
 20
69.1468
 11
-81.9379
 21
69.0531
  0
LINE
  8
0
 10
-81.9379
 20
69.0531
 11
-82.3116
 21
69.0059
  0
LINE
  8
0
 10
-82.3116
 20
69.0059
 11
-82.6884
 21
69.0059
  0
LINE
  8
0
 10
85.4369
 20
41.0886
 11
86.0451
 21
41.2447
  0
LINE
  8
0
 10
86.0451
 20
41.2447
 11
86.6289
 21
41.4759
  0
LINE
  8
0
 10
86.6289
 20
41.4759
 11
87.1791
 21
41.7784
  0
LINE
  8
0
 10
87.1791
 20
41.7784
 11
87.6871
 21
42.1474
  0
LINE
  8
0
 10
87.6871
 20
42.1474
 11
88.1448
 21
42.5773
  0
LINE
  8
0
 10
88.1448
 20
42.5773
 11
88.5451
 21
43.0611
  0
LINE
  8
0
 10
88.5451
 20
43.0611
 11
88.8815
 21
43.5912
  0
LINE
  8
0
 10
88.8815
 20
43.5912
 11
89.1489
 21
44.1594
  0
LINE
  8
0
 10
89.1489
 20
44.1594
 11
89.3429
 21
44.7566
  0
LINE
  8
0
 10
89.3429
 20
44.7566
 11
89.4606
 21
45.3733
  0
LINE
  8
0
 10
89.4606
 20
45.3733
 11
89.5
 21
46
  0
LINE
  8
0
 10
89.5
 20
46
 11
89.5
 21
50
  0
LINE
  8
0
 10
89.5
 20
50
 11
89.4606
 21
50.6267
  0
LINE
  8
0
 10
89.4606
 20
50.6267
 11
89.3429
 21
51.2434
  0
LINE
  8
0
 10
89.3429
 20
51.2434
 11
89.1489
 21
51.8406
  0
LINE
  8
0
 10
89.1489
 20
51.8406
 11
88.8815
 21
52.4088
  0
LINE
  8
0
 10
88.8815
 20
52.4088
 11
88.5451
 21
52.9389
  0
LINE
  8
0
 10
88.5451
 20
52.9389
 11
88.1448
 21
53.4227
  0
LINE
  8
0
 10
88.1448
 20
53.4227
 11
87.6871
 21
53.8526
  0
LINE
  8
0
 10
87.6871
 20
53.8526
 11
87.1791
 21
54.2216
  0
LINE
  8
0
 10
87.1791
 20
54.2216
 11
86.6289
 21
54.5241
  0
LINE
  8
0
 10
86.6289
 20
54.5241
 11
86.0451
 21
54.7553
  0
LINE
  8
0
 10
86.0451
 20
54.7553
 11
85.4369
 21
54.9114
  0
LINE
  8
0
 10
85.4369
 20
54.9114
 11
84.8139
 21
54.9901
  0
LINE
  8
0
 10
84.8139
 20
54.9901
 11
-84.8139
 21
54.9901
  0
LINE
  8
0
 10
-84.8139
 20
54.9901
 11
-85.4369
 21
54.9114
  0
LINE
  8
0
 10
-85.4369
 20
54.9114
 11
-86.0451
 21
54.7553
  0
LINE
  8
0
 10
-86.0451
 20
54.7553
 11
-86.6289
 21
54.5241
  0
LINE
  8
0
 10
-86.6289
 20
54.5241
 11
-87.1791
 21
54.2216
  0
LINE
  8
0
 10
-87.1791
 20
54.2216
 11
-87.6871
 21
53.8526
  0
LINE
  8
0
 10
-87.6871
 20
53.8526
 11
-88.1448
 21
53.4227
  0
LINE
  8
0
 10
-88.1448
 20
53.4227
 11
-88.5451
 21
52.9389
  0
LINE
  8
0
 10
-88.5451
 20
52.9389
 11
-88.8815
 21
52.4088
  0
LINE
  8
0
 10
-88.8815
 20
52.4088
 11
-89.1489
 21
51.8406
  0
LINE
  8
0
 10
-89.1489
 20
51.8406
 11
-89.3429
 21
51.2434
  0
LINE
  8
0
 10
-89.3429
 20
51.2434
 11
-89.4606
 21
50.6267
  0
LINE
  8
0
 10
-89.4606
 20
50.6267
 11
-89.5
 21
50
  0
LINE
  8
0
 10
-89.5
 20
50
 11
-89.5
 21
46
  0
LINE
  8
0
 10
-89.5
 20
46
 11
-89.4606
 21
45.3733
  0
LINE
  8
0
 10
-89.4606
 20
45.3733
 11
-89.3429
 21
44.7566
  0
LINE
  8
0
 10
-89.3429
 20
44.7566
 11
-89.1489
 21
44.1594
  0
LINE
  8
0
 10
-89.1489
 20
44.1594
 11
-88.8815
 21
43.5912
  0
LINE
  8
0
 10
-88.8815
 20
43.5912
 11
-88.5451
 21
43.0611
  0
LINE
  8
0
 10
-88.5451
 20
43.0611
 11
-88.1448
 21
42.5773
  0
LINE
  8
0
 10
-88.1448
 20
42.5773
 11
-87.6871
 21
42.1474
  0
LINE
  8
0
 10
-87.6871
 20
42.1474
 11
-87.1791
 21
41.7784
  0
LINE
  8
0
 10
-87.1791
 20
41.7784
 11
-86.6289
 21
41.4759
  0
LINE
  8
0
 10
-86.6289
 20
41.4759
 11
-86.0451
 21
41.2447
  0
LINE
  8
0
 10
-86.0451
 20
41.2447
 11
-85.4369
 21
41.0886
  0
LINE
  8
0
 10
-85.4369
 20
41.0886
 11
-84.8139
 21
41.0099
  0
LINE
  8
0
 10
-84.8139
 20
41.0099
 11
84.8139
 21
41.0099
  0
LINE
  8
0
 10
84.8139
 20
41.0099
 11
85.4369
 21
41.0886
  0
LINE
  8
0
 10
-82.6884
 20
45.0059
 11
-83.0621
 21
45.0531
  0
LINE
  8
0
 10
-83.0621
 20
45.0531
 11
-83.427
 21
45.1468
  0
LINE
  8
0
 10
-83.427
 20
45.1468
 11
-83.7773
 21
45.2855
  0
LINE
  8
0
 10
-83.7773
 20
45.2855
 11
-84.1075
 21
45.467
  0
LINE
  8
0
 10
-84.1075
 20
45.467
 11
-84.4123
 21
45.6885
  0
LINE
  8
0
 10
-84.4123
 20
45.6885
 11
-84.6869
 21
45.9464
  0
LINE
  8
0
 10
-84.6869
 20
45.9464
 11
-84.927
 21
46.2366
  0
LINE
  8
0
 10
-84.927
 20
46.2366
 11
-85.1289
 21
46.5547
  0
LINE
  8
0
 10
-85.1289
 20
46.5547
 11
-85.2893
 21
46.8956
  0
LINE
  8
0
 10
-85.2893
 20
46.8956
 11
-85.4057
 21
47.2539
  0
LINE
  8
0
 10
-85.4057
 20
47.2539
 11
-85.4763
 21
47.624
  0
LINE
  8
0
 10
-85.4763
 20
47.624
 11
-85.5
 21
48
  0
LINE
  8
0
 10
-85.5
 20
48
 11
-85.4763
 21
48.376
  0
LINE
  8
0
 10
-85.4763
 20
48.376
 11
-85.4057
 21
48.7461
  0
LINE
  8
0
 10
-85.4057
 20
48.7461
 11
-85.2893
 21
49.1044
  0
LINE
  8
0
 10
-85.2893
 20
49.1044
 11
-85.1289
 21
49.4453
  0
LINE
  8
0
 10
-85.1289
 20
49.4453
 11
-84.927
 21
49.7634
  0
LINE
  8
0
 10
-84.927
 20
49.7634
 11
-84.6869
 21
50.0536
  0
LINE
  8
0
 10
-84.6869
 20
50.0536
 11
-84.4123
 21
50.3115
  0
LINE
  8
0
 10
-84.4123
 20
50.3115
 11
-84.1075
 21
50.533
  0
LINE
  8
0
 10
-84.1075
 20
50.533
 11
-83.7773
 21
50.7145
  0
LINE
  8
0
 10
-83.7773
 20
50.7145
 11
-83.427
 21
50.8532
  0
LINE
  8
0
 10
-83.427
 20
50.8532
 11
-83.0621
 21
50.9469
  0
LINE
  8
0
 10
-83.0621
 20
50.9469
 11
-82.6884
 21
50.9941
  0
LINE
  8
0
 10
-82.6884
 20
50.9941
 11
-82.3116
 21
50.9941
  0
LINE
  8
0
 10
-82.3116
 20
50.9941
 11
-81.9379
 21
50.9469
  0
LINE
  8
0
 10
-81.9379
 20
50.9469
 11
-81.573
 21
50.8532
  0
LINE
  8
0
 10
-81.573
 20
50.8532
 11
-81.2227
 21
50.7145
  0
LINE
  8
0
 10
-81.2227
 20
50.7145
 11
-80.8925
 21
50.533
  0
LINE
  8
0
 10
-80.8925
 20
50.533
 11
-80.5877
 21
50.3115
  0
LINE
  8
0
 10
-80.5877
 20
50.3115
 11
-80.3131
 21
50.0536
  0
LINE
  8
0
 10
-80.3131
 20
50.0536
 11
-80.073
 21
49.7634
  0
LINE
  8
0
 10
-80.073
 20
49.7634
 11
-79.8711
 21
49.4453
  0
LINE
  8
0
 10
-79.8711
 20
49.4453
 11
-79.7107
 21
49.1044
  0
LINE
  8
0
 10
-79.7107
 20
49.1044
 11
-79.5943
 21
48.7461
  0
LINE
  8
0
 10
-79.5943
 20
48.7461
 11
-79.5237
 21
48.376
  0
LINE
  8
0
 10
-79.5237
 20
48.376
 11
-79.5
 21
48
  0
LINE
  8
0
 10
-79.5
 20
48
 11
-79.5237
 21
47.624
  0
LINE
  8
0
 10
-79.5237
 20
47.624
 11
-79.5943
 21
47.2539
  0
LINE
  8
0
 10
-79.5943
 20
47.2539
 11
-79.7107
 21
46.8956
  0
LINE
  8
0
 10
-79.7107
 20
46.8956
 11
-79.8711
 21
46.5547
  0
LINE
  8
0
 10
-79.8711
 20
46.5547
 11
-80.073
 21
46.2366
  0
LINE
  8
0
 10
-80.073
 20
46.2366
 11
-80.3131
 21
45.9464
  0
LINE
  8
0
 10
-80.3131
 20
45.9464
 11
-80.5877
 21
45.6885
  0
LINE
  8
0
 10
-80.5877
 20
45.6885
 11
-80.8925
 21
45.467
  0
LINE
  8
0
 10
-80.8925
 20
45.467
 11
-81.2227
 21
45.2855
  0
LINE
  8
0
 10
-81.2227
 20
45.2855
 11
-81.573
 21
45.1468
  0
LINE
  8
0
 10
-81.573
 20
45.1468
 11
-81.9379
 21
45.0531
  0
LINE
  8
0
 10
-81.9379
 20
45.0531
 11
-82.3116
 21
45.0059
  0
LINE
  8
0
 10
-82.3116
 20
45.0059
 11
-82.6884
 21
45.0059
  0
ENDSEC
  0
SECTION
  2
OBJECTS
  0
DICTIONARY
  0
ENDSEC
  0
EOF
