solid OpenSCAD_Model
  facet normal -0.904619 -0.426222 0
    outer loop
      vertex -124.478 1.1964 0
      vertex -124.652 1.5657 9
      vertex -124.652 1.5657 0
    endloop
  endfacet
  facet normal -0.904619 -0.426222 0
    outer loop
      vertex -124.652 1.5657 9
      vertex -124.478 1.1964 0
      vertex -124.478 1.1964 9
    endloop
  endfacet
  facet normal -0.843984 -0.536368 0
    outer loop
      vertex -124.652 1.5657 0
      vertex -124.871 1.9103 9
      vertex -124.871 1.9103 0
    endloop
  endfacet
  facet normal -0.843984 -0.536368 0
    outer loop
      vertex -124.871 1.9103 9
      vertex -124.652 1.5657 0
      vertex -124.652 1.5657 9
    endloop
  endfacet
  facet normal -0.367675 -0.929954 0
    outer loop
      vertex -126.496 3.09093 0
      vertex -126.116 2.94069 9
      vertex -126.496 3.09093 9
    endloop
  endfacet
  facet normal -0.367675 -0.929954 -0
    outer loop
      vertex -126.116 2.94069 9
      vertex -126.496 3.09093 0
      vertex -126.116 2.94069 0
    endloop
  endfacet
  facet normal 0.367675 -0.929954 0
    outer loop
      vertex -128.884 2.94069 0
      vertex -128.504 3.09093 9
      vertex -128.884 2.94069 9
    endloop
  endfacet
  facet normal 0.367675 -0.929954 0
    outer loop
      vertex -128.504 3.09093 9
      vertex -128.884 2.94069 0
      vertex -128.504 3.09093 0
    endloop
  endfacet
  facet normal 0.904619 -0.426222 0
    outer loop
      vertex -130.522 1.1964 9
      vertex -130.348 1.5657 0
      vertex -130.348 1.5657 9
    endloop
  endfacet
  facet normal 0.904619 -0.426222 0
    outer loop
      vertex -130.348 1.5657 0
      vertex -130.522 1.1964 9
      vertex -130.522 1.1964 0
    endloop
  endfacet
  facet normal -0.982502 0.186252 0
    outer loop
      vertex -124.352 -0.808242 0
      vertex -124.276 -0.407332 9
      vertex -124.276 -0.407332 0
    endloop
  endfacet
  facet normal -0.982502 0.186252 0
    outer loop
      vertex -124.276 -0.407332 9
      vertex -124.352 -0.808242 0
      vertex -124.352 -0.808242 9
    endloop
  endfacet
  facet normal -0.125325 -0.992116 0
    outer loop
      vertex -127.296 3.24359 0
      vertex -126.891 3.19243 9
      vertex -127.296 3.24359 9
    endloop
  endfacet
  facet normal -0.125325 -0.992116 -0
    outer loop
      vertex -126.891 3.19243 9
      vertex -127.296 3.24359 0
      vertex -126.891 3.19243 0
    endloop
  endfacet
  facet normal -0.586847 -0.809698 0
    outer loop
      vertex -125.759 2.74407 0
      vertex -125.428 2.50417 9
      vertex -125.759 2.74407 9
    endloop
  endfacet
  facet normal -0.586847 -0.809698 -0
    outer loop
      vertex -125.428 2.50417 9
      vertex -125.759 2.74407 0
      vertex -125.428 2.50417 0
    endloop
  endfacet
  facet normal 0.982502 -0.186252 0
    outer loop
      vertex -130.724 0.407332 9
      vertex -130.648 0.808242 0
      vertex -130.648 0.808242 9
    endloop
  endfacet
  facet normal 0.982502 -0.186252 0
    outer loop
      vertex -130.648 0.808242 0
      vertex -130.724 0.407332 9
      vertex -130.724 0.407332 0
    endloop
  endfacet
  facet normal 0.770706 -0.63719 0
    outer loop
      vertex -130.129 1.9103 9
      vertex -129.869 2.22478 0
      vertex -129.869 2.22478 9
    endloop
  endfacet
  facet normal 0.770706 -0.63719 0
    outer loop
      vertex -129.869 2.22478 0
      vertex -130.129 1.9103 9
      vertex -130.129 1.9103 0
    endloop
  endfacet
  facet normal 0.482427 -0.875936 0
    outer loop
      vertex -129.241 2.74407 0
      vertex -128.884 2.94069 9
      vertex -129.241 2.74407 9
    endloop
  endfacet
  facet normal 0.482427 -0.875936 0
    outer loop
      vertex -128.884 2.94069 9
      vertex -129.241 2.74407 0
      vertex -128.884 2.94069 0
    endloop
  endfacet
  facet normal 0.125325 -0.992116 0
    outer loop
      vertex -128.109 3.19243 0
      vertex -127.704 3.24359 9
      vertex -128.109 3.19243 9
    endloop
  endfacet
  facet normal 0.125325 -0.992116 0
    outer loop
      vertex -127.704 3.24359 9
      vertex -128.109 3.19243 0
      vertex -127.704 3.24359 0
    endloop
  endfacet
  facet normal -0.997969 -0.0637004 0
    outer loop
      vertex -124.25 0 0
      vertex -124.276 0.407332 9
      vertex -124.276 0.407332 0
    endloop
  endfacet
  facet normal -0.997969 -0.0637004 0
    outer loop
      vertex -124.276 0.407332 9
      vertex -124.25 0 0
      vertex -124.25 0 9
    endloop
  endfacet
  facet normal -0.951143 0.308751 0
    outer loop
      vertex -124.478 -1.1964 0
      vertex -124.352 -0.808242 9
      vertex -124.352 -0.808242 0
    endloop
  endfacet
  facet normal -0.951143 0.308751 0
    outer loop
      vertex -124.352 -0.808242 9
      vertex -124.478 -1.1964 0
      vertex -124.478 -1.1964 9
    endloop
  endfacet
  facet normal -0.586847 0.809698 0
    outer loop
      vertex -125.428 -2.50417 0
      vertex -125.759 -2.74407 9
      vertex -125.428 -2.50417 9
    endloop
  endfacet
  facet normal -0.586847 0.809698 0
    outer loop
      vertex -125.759 -2.74407 9
      vertex -125.428 -2.50417 0
      vertex -125.759 -2.74407 0
    endloop
  endfacet
  facet normal -0.982502 -0.186252 0
    outer loop
      vertex -124.276 0.407332 0
      vertex -124.352 0.808242 9
      vertex -124.352 0.808242 0
    endloop
  endfacet
  facet normal -0.982502 -0.186252 0
    outer loop
      vertex -124.352 0.808242 9
      vertex -124.276 0.407332 0
      vertex -124.276 0.407332 9
    endloop
  endfacet
  facet normal -0.951143 -0.308751 0
    outer loop
      vertex -124.352 0.808242 0
      vertex -124.478 1.1964 9
      vertex -124.478 1.1964 0
    endloop
  endfacet
  facet normal -0.951143 -0.308751 0
    outer loop
      vertex -124.478 1.1964 9
      vertex -124.352 0.808242 0
      vertex -124.352 0.808242 9
    endloop
  endfacet
  facet normal -0.685183 -0.728371 0
    outer loop
      vertex -125.428 2.50417 0
      vertex -125.131 2.22478 9
      vertex -125.428 2.50417 9
    endloop
  endfacet
  facet normal -0.685183 -0.728371 -0
    outer loop
      vertex -125.131 2.22478 9
      vertex -125.428 2.50417 0
      vertex -125.131 2.22478 0
    endloop
  endfacet
  facet normal 0 -1 0
    outer loop
      vertex -127.704 3.24359 0
      vertex -127.296 3.24359 9
      vertex -127.704 3.24359 9
    endloop
  endfacet
  facet normal 0 -1 -0
    outer loop
      vertex -127.296 3.24359 9
      vertex -127.704 3.24359 0
      vertex -127.296 3.24359 0
    endloop
  endfacet
  facet normal -0.248877 -0.968535 0
    outer loop
      vertex -126.891 3.19243 0
      vertex -126.496 3.09093 9
      vertex -126.891 3.19243 9
    endloop
  endfacet
  facet normal -0.248877 -0.968535 -0
    outer loop
      vertex -126.496 3.09093 9
      vertex -126.891 3.19243 0
      vertex -126.496 3.09093 0
    endloop
  endfacet
  facet normal -0.482427 -0.875936 0
    outer loop
      vertex -126.116 2.94069 0
      vertex -125.759 2.74407 9
      vertex -126.116 2.94069 9
    endloop
  endfacet
  facet normal -0.482427 -0.875936 -0
    outer loop
      vertex -125.759 2.74407 9
      vertex -126.116 2.94069 0
      vertex -125.759 2.74407 0
    endloop
  endfacet
  facet normal 0.997969 -0.0637004 0
    outer loop
      vertex -130.75 0 9
      vertex -130.724 0.407332 0
      vertex -130.724 0.407332 9
    endloop
  endfacet
  facet normal 0.997969 -0.0637004 0
    outer loop
      vertex -130.724 0.407332 0
      vertex -130.75 0 9
      vertex -130.75 0 0
    endloop
  endfacet
  facet normal 0 0 1
    outer loop
      vertex 130.522 1.1964 9
      vertex 134.5 2 9
      vertex 134.461 2.62667 9
    endloop
  endfacet
  facet normal 0 0 1
    outer loop
      vertex 134.5 2 9
      vertex 130.75 0 9
      vertex 134.5 -2 9
    endloop
  endfacet
  facet normal 0 0 1
    outer loop
      vertex 130.348 1.5657 9
      vertex 134.461 2.62667 9
      vertex 134.343 3.24345 9
    endloop
  endfacet
  facet normal -0 0 1
    outer loop
      vertex 130.724 -0.407332 9
      vertex 134.5 -2 9
      vertex 130.75 0 9
    endloop
  endfacet
  facet normal 0 0 1
    outer loop
      vertex 130.348 1.5657 9
      vertex 134.343 3.24345 9
      vertex 134.149 3.84062 9
    endloop
  endfacet
  facet normal -0 0 1
    outer loop
      vertex 130.648 -0.808242 9
      vertex 134.5 -2 9
      vertex 130.724 -0.407332 9
    endloop
  endfacet
  facet normal 0 0 1
    outer loop
      vertex 130.129 1.9103 9
      vertex 134.149 3.84062 9
      vertex 133.882 4.40877 9
    endloop
  endfacet
  facet normal -0 0 1
    outer loop
      vertex 130.522 -1.1964 9
      vertex 134.5 -2 9
      vertex 130.648 -0.808242 9
    endloop
  endfacet
  facet normal 0 0 1
    outer loop
      vertex 130.129 1.9103 9
      vertex 133.882 4.40877 9
      vertex 133.545 4.93893 9
    endloop
  endfacet
  facet normal 0 0 1
    outer loop
      vertex 134.5 -2 9
      vertex 130.522 -1.1964 9
      vertex 134.461 -2.62667 9
    endloop
  endfacet
  facet normal 0 0 1
    outer loop
      vertex 129.869 2.22478 9
      vertex 133.545 4.93893 9
      vertex 133.145 5.42274 9
    endloop
  endfacet
  facet normal -0 0 1
    outer loop
      vertex 130.348 -1.5657 9
      vertex 134.461 -2.62667 9
      vertex 130.522 -1.1964 9
    endloop
  endfacet
  facet normal 0 0 1
    outer loop
      vertex 129.869 2.22478 9
      vertex 133.145 5.42274 9
      vertex 132.687 5.85257 9
    endloop
  endfacet
  facet normal 0 0 1
    outer loop
      vertex 134.461 -2.62667 9
      vertex 130.348 -1.5657 9
      vertex 134.343 -3.24345 9
    endloop
  endfacet
  facet normal 0 0 1
    outer loop
      vertex 129.572 2.50417 9
      vertex 132.687 5.85257 9
      vertex 132.179 6.22164 9
    endloop
  endfacet
  facet normal 0 0 1
    outer loop
      vertex 134.343 -3.24345 9
      vertex 130.348 -1.5657 9
      vertex 134.149 -3.84062 9
    endloop
  endfacet
  facet normal 0 0 1
    outer loop
      vertex 129.572 2.50417 9
      vertex 132.179 6.22164 9
      vertex 131.629 6.52413 9
    endloop
  endfacet
  facet normal -0 0 1
    outer loop
      vertex 130.129 -1.9103 9
      vertex 134.149 -3.84062 9
      vertex 130.348 -1.5657 9
    endloop
  endfacet
  facet normal 0 0 1
    outer loop
      vertex 129.241 2.74407 9
      vertex 131.629 6.52413 9
      vertex 131.045 6.75528 9
    endloop
  endfacet
  facet normal 0 0 1
    outer loop
      vertex 134.149 -3.84062 9
      vertex 130.129 -1.9103 9
      vertex 133.882 -4.40877 9
    endloop
  endfacet
  facet normal 0 0 1
    outer loop
      vertex 133.882 -4.40877 9
      vertex 130.129 -1.9103 9
      vertex 133.545 -4.93893 9
    endloop
  endfacet
  facet normal 0 0 1
    outer loop
      vertex 134.5 2 9
      vertex 130.724 0.407332 9
      vertex 130.75 0 9
    endloop
  endfacet
  facet normal 0 0 1
    outer loop
      vertex 134.5 2 9
      vertex 130.648 0.808242 9
      vertex 130.724 0.407332 9
    endloop
  endfacet
  facet normal 0 0 1
    outer loop
      vertex 134.5 2 9
      vertex 130.522 1.1964 9
      vertex 130.648 0.808242 9
    endloop
  endfacet
  facet normal 0 0 1
    outer loop
      vertex 129.241 2.74407 9
      vertex 131.045 6.75528 9
      vertex 130.437 6.91144 9
    endloop
  endfacet
  facet normal 0 0 1
    outer loop
      vertex 134.461 2.62667 9
      vertex 130.348 1.5657 9
      vertex 130.522 1.1964 9
    endloop
  endfacet
  facet normal 0 0 1
    outer loop
      vertex 134.149 3.84062 9
      vertex 130.129 1.9103 9
      vertex 130.348 1.5657 9
    endloop
  endfacet
  facet normal 0 0 1
    outer loop
      vertex 133.545 4.93893 9
      vertex 129.869 2.22478 9
      vertex 130.129 1.9103 9
    endloop
  endfacet
  facet normal 0 0 1
    outer loop
      vertex 128.884 2.94069 9
      vertex 130.437 6.91144 9
      vertex 129.814 6.99013 9
    endloop
  endfacet
  facet normal 0 0 1
    outer loop
      vertex 132.687 5.85257 9
      vertex 129.572 2.50417 9
      vertex 129.869 2.22478 9
    endloop
  endfacet
  facet normal 0 0 1
    outer loop
      vertex 131.629 6.52413 9
      vertex 129.241 2.74407 9
      vertex 129.572 2.50417 9
    endloop
  endfacet
  facet normal 0 0 1
    outer loop
      vertex 130.437 6.91144 9
      vertex 128.884 2.94069 9
      vertex 129.241 2.74407 9
    endloop
  endfacet
  facet normal 0 0 1
    outer loop
      vertex 129.814 6.99013 9
      vertex 128.504 3.09093 9
      vertex 128.884 2.94069 9
    endloop
  endfacet
  facet normal 0 0 1
    outer loop
      vertex 129.814 6.99013 9
      vertex 128.109 3.19243 9
      vertex 128.504 3.09093 9
    endloop
  endfacet
  facet normal 0 0 1
    outer loop
      vertex 129.814 6.99013 9
      vertex 127.704 3.24359 9
      vertex 128.109 3.19243 9
    endloop
  endfacet
  facet normal 0 0 1
    outer loop
      vertex 129.814 6.99013 9
      vertex 127.296 3.24359 9
      vertex 127.704 3.24359 9
    endloop
  endfacet
  facet normal 0 0 1
    outer loop
      vertex 129.814 6.99013 9
      vertex 126.891 3.19243 9
      vertex 127.296 3.24359 9
    endloop
  endfacet
  facet normal 0 0 1
    outer loop
      vertex 129.814 6.99013 9
      vertex 126.496 3.09093 9
      vertex 126.891 3.19243 9
    endloop
  endfacet
  facet normal 0 0 1
    outer loop
      vertex 129.814 6.99013 9
      vertex 126.116 2.94069 9
      vertex 126.496 3.09093 9
    endloop
  endfacet
  facet normal 0 0 1
    outer loop
      vertex 129.814 6.99013 9
      vertex 125.759 2.74407 9
      vertex 126.116 2.94069 9
    endloop
  endfacet
  facet normal 0 0 1
    outer loop
      vertex 129.814 6.99013 9
      vertex 125.428 2.50417 9
      vertex 125.759 2.74407 9
    endloop
  endfacet
  facet normal 0 0 1
    outer loop
      vertex 129.814 6.99013 9
      vertex 125.131 2.22478 9
      vertex 125.428 2.50417 9
    endloop
  endfacet
  facet normal 0 0 1
    outer loop
      vertex 124.276 0.407332 9
      vertex -124.25 0 9
      vertex 124.25 0 9
    endloop
  endfacet
  facet normal 0 0 1
    outer loop
      vertex -124.276 0.407332 9
      vertex 124.276 0.407332 9
      vertex 124.352 0.808242 9
    endloop
  endfacet
  facet normal 0 0 1
    outer loop
      vertex -124.352 0.808242 9
      vertex 124.352 0.808242 9
      vertex 124.478 1.1964 9
    endloop
  endfacet
  facet normal 0 0 1
    outer loop
      vertex -124.478 1.1964 9
      vertex 124.478 1.1964 9
      vertex 124.652 1.5657 9
    endloop
  endfacet
  facet normal 0 0 1
    outer loop
      vertex -124.652 1.5657 9
      vertex 124.652 1.5657 9
      vertex 124.871 1.9103 9
    endloop
  endfacet
  facet normal 0 0 1
    outer loop
      vertex -124.871 1.9103 9
      vertex 124.871 1.9103 9
      vertex 125.131 2.22478 9
    endloop
  endfacet
  facet normal 0 0 1
    outer loop
      vertex -125.131 2.22478 9
      vertex 125.131 2.22478 9
      vertex 129.814 6.99013 9
    endloop
  endfacet
  facet normal 0 0 1
    outer loop
      vertex 124.276 0.407332 9
      vertex -124.276 0.407332 9
      vertex -124.25 0 9
    endloop
  endfacet
  facet normal 0 0 1
    outer loop
      vertex 124.352 0.808242 9
      vertex -124.352 0.808242 9
      vertex -124.276 0.407332 9
    endloop
  endfacet
  facet normal 0 0 1
    outer loop
      vertex 124.478 1.1964 9
      vertex -124.478 1.1964 9
      vertex -124.352 0.808242 9
    endloop
  endfacet
  facet normal 0 0 1
    outer loop
      vertex 124.652 1.5657 9
      vertex -124.652 1.5657 9
      vertex -124.478 1.1964 9
    endloop
  endfacet
  facet normal 0 0 1
    outer loop
      vertex 124.871 1.9103 9
      vertex -124.871 1.9103 9
      vertex -124.652 1.5657 9
    endloop
  endfacet
  facet normal 0 0 1
    outer loop
      vertex 125.131 2.22478 9
      vertex -125.131 2.22478 9
      vertex -124.871 1.9103 9
    endloop
  endfacet
  facet normal -0 0 1
    outer loop
      vertex -129.814 6.99013 9
      vertex -125.131 2.22478 9
      vertex 129.814 6.99013 9
    endloop
  endfacet
  facet normal 0 0 1
    outer loop
      vertex -125.131 2.22478 9
      vertex -129.814 6.99013 9
      vertex -125.428 2.50417 9
    endloop
  endfacet
  facet normal 0 0 1
    outer loop
      vertex -125.428 2.50417 9
      vertex -129.814 6.99013 9
      vertex -125.759 2.74407 9
    endloop
  endfacet
  facet normal 0 0 1
    outer loop
      vertex -125.759 2.74407 9
      vertex -129.814 6.99013 9
      vertex -126.116 2.94069 9
    endloop
  endfacet
  facet normal 0 0 1
    outer loop
      vertex -126.116 2.94069 9
      vertex -129.814 6.99013 9
      vertex -126.496 3.09093 9
    endloop
  endfacet
  facet normal 0 0 1
    outer loop
      vertex -126.496 3.09093 9
      vertex -129.814 6.99013 9
      vertex -126.891 3.19243 9
    endloop
  endfacet
  facet normal 0 0 1
    outer loop
      vertex -126.891 3.19243 9
      vertex -129.814 6.99013 9
      vertex -127.296 3.24359 9
    endloop
  endfacet
  facet normal 0 0 1
    outer loop
      vertex -127.296 3.24359 9
      vertex -129.814 6.99013 9
      vertex -127.704 3.24359 9
    endloop
  endfacet
  facet normal 0 0 1
    outer loop
      vertex -129.814 6.99013 9
      vertex -128.109 3.19243 9
      vertex -127.704 3.24359 9
    endloop
  endfacet
  facet normal 0 0 1
    outer loop
      vertex -129.814 6.99013 9
      vertex -128.504 3.09093 9
      vertex -128.109 3.19243 9
    endloop
  endfacet
  facet normal 0 0 1
    outer loop
      vertex -129.814 6.99013 9
      vertex -128.884 2.94069 9
      vertex -128.504 3.09093 9
    endloop
  endfacet
  facet normal -0 0 1
    outer loop
      vertex -130.437 6.91144 9
      vertex -128.884 2.94069 9
      vertex -129.814 6.99013 9
    endloop
  endfacet
  facet normal 0 0 1
    outer loop
      vertex -128.884 2.94069 9
      vertex -130.437 6.91144 9
      vertex -129.241 2.74407 9
    endloop
  endfacet
  facet normal -0 0 1
    outer loop
      vertex -131.045 6.75528 9
      vertex -129.241 2.74407 9
      vertex -130.437 6.91144 9
    endloop
  endfacet
  facet normal -0 0 1
    outer loop
      vertex -131.629 6.52413 9
      vertex -129.241 2.74407 9
      vertex -131.045 6.75528 9
    endloop
  endfacet
  facet normal 0 0 1
    outer loop
      vertex -129.241 2.74407 9
      vertex -131.629 6.52413 9
      vertex -129.572 2.50417 9
    endloop
  endfacet
  facet normal -0 0 1
    outer loop
      vertex -132.179 6.22164 9
      vertex -129.572 2.50417 9
      vertex -131.629 6.52413 9
    endloop
  endfacet
  facet normal -0 0 1
    outer loop
      vertex -132.687 5.85257 9
      vertex -129.572 2.50417 9
      vertex -132.179 6.22164 9
    endloop
  endfacet
  facet normal 0 0 1
    outer loop
      vertex -129.572 2.50417 9
      vertex -132.687 5.85257 9
      vertex -129.869 2.22478 9
    endloop
  endfacet
  facet normal -0 0 1
    outer loop
      vertex -133.145 5.42274 9
      vertex -129.869 2.22478 9
      vertex -132.687 5.85257 9
    endloop
  endfacet
  facet normal -0 0 1
    outer loop
      vertex -133.545 4.93893 9
      vertex -129.869 2.22478 9
      vertex -133.145 5.42274 9
    endloop
  endfacet
  facet normal 0 0 1
    outer loop
      vertex -129.869 2.22478 9
      vertex -133.545 4.93893 9
      vertex -130.129 1.9103 9
    endloop
  endfacet
  facet normal -0 0 1
    outer loop
      vertex 129.869 -2.22478 9
      vertex 133.545 -4.93893 9
      vertex 130.129 -1.9103 9
    endloop
  endfacet
  facet normal 0 0 1
    outer loop
      vertex 133.545 -4.93893 9
      vertex 129.869 -2.22478 9
      vertex 133.145 -5.42274 9
    endloop
  endfacet
  facet normal 0 0 1
    outer loop
      vertex 133.145 -5.42274 9
      vertex 129.869 -2.22478 9
      vertex 132.687 -5.85257 9
    endloop
  endfacet
  facet normal -0 0 1
    outer loop
      vertex 129.572 -2.50417 9
      vertex 132.687 -5.85257 9
      vertex 129.869 -2.22478 9
    endloop
  endfacet
  facet normal 0 0 1
    outer loop
      vertex 132.687 -5.85257 9
      vertex 129.572 -2.50417 9
      vertex 132.179 -6.22164 9
    endloop
  endfacet
  facet normal 0 0 1
    outer loop
      vertex 132.179 -6.22164 9
      vertex 129.572 -2.50417 9
      vertex 131.629 -6.52413 9
    endloop
  endfacet
  facet normal -0 0 1
    outer loop
      vertex 129.241 -2.74407 9
      vertex 131.629 -6.52413 9
      vertex 129.572 -2.50417 9
    endloop
  endfacet
  facet normal 0 0 1
    outer loop
      vertex 131.629 -6.52413 9
      vertex 129.241 -2.74407 9
      vertex 131.045 -6.75528 9
    endloop
  endfacet
  facet normal 0 0 1
    outer loop
      vertex 131.045 -6.75528 9
      vertex 129.241 -2.74407 9
      vertex 130.437 -6.91144 9
    endloop
  endfacet
  facet normal -0 0 1
    outer loop
      vertex 128.884 -2.94069 9
      vertex 130.437 -6.91144 9
      vertex 129.241 -2.74407 9
    endloop
  endfacet
  facet normal 0 0 1
    outer loop
      vertex 130.437 -6.91144 9
      vertex 128.884 -2.94069 9
      vertex 129.814 -6.99013 9
    endloop
  endfacet
  facet normal -0 0 1
    outer loop
      vertex 128.504 -3.09093 9
      vertex 129.814 -6.99013 9
      vertex 128.884 -2.94069 9
    endloop
  endfacet
  facet normal -0 0 1
    outer loop
      vertex 128.109 -3.19243 9
      vertex 129.814 -6.99013 9
      vertex 128.504 -3.09093 9
    endloop
  endfacet
  facet normal -0 0 1
    outer loop
      vertex 127.704 -3.24359 9
      vertex 129.814 -6.99013 9
      vertex 128.109 -3.19243 9
    endloop
  endfacet
  facet normal -0 0 1
    outer loop
      vertex 127.296 -3.24359 9
      vertex 129.814 -6.99013 9
      vertex 127.704 -3.24359 9
    endloop
  endfacet
  facet normal 0 0 1
    outer loop
      vertex 126.891 -3.19243 9
      vertex 129.814 -6.99013 9
      vertex 127.296 -3.24359 9
    endloop
  endfacet
  facet normal 0 0 1
    outer loop
      vertex 126.496 -3.09093 9
      vertex 129.814 -6.99013 9
      vertex 126.891 -3.19243 9
    endloop
  endfacet
  facet normal 0 0 1
    outer loop
      vertex 126.116 -2.94069 9
      vertex 129.814 -6.99013 9
      vertex 126.496 -3.09093 9
    endloop
  endfacet
  facet normal 0 0 1
    outer loop
      vertex 125.759 -2.74407 9
      vertex 129.814 -6.99013 9
      vertex 126.116 -2.94069 9
    endloop
  endfacet
  facet normal 0 0 1
    outer loop
      vertex 125.428 -2.50417 9
      vertex 129.814 -6.99013 9
      vertex 125.759 -2.74407 9
    endloop
  endfacet
  facet normal 0 0 1
    outer loop
      vertex 125.131 -2.22478 9
      vertex 129.814 -6.99013 9
      vertex 125.428 -2.50417 9
    endloop
  endfacet
  facet normal -0 0 1
    outer loop
      vertex -124.25 0 9
      vertex 124.276 -0.407332 9
      vertex 124.25 0 9
    endloop
  endfacet
  facet normal 0 0 1
    outer loop
      vertex -124.276 -0.407332 9
      vertex 124.276 -0.407332 9
      vertex -124.25 0 9
    endloop
  endfacet
  facet normal 0 0 1
    outer loop
      vertex 124.276 -0.407332 9
      vertex -124.276 -0.407332 9
      vertex 124.352 -0.808242 9
    endloop
  endfacet
  facet normal 0 0 1
    outer loop
      vertex -124.352 -0.808242 9
      vertex 124.352 -0.808242 9
      vertex -124.276 -0.407332 9
    endloop
  endfacet
  facet normal 0 0 1
    outer loop
      vertex 124.352 -0.808242 9
      vertex -124.352 -0.808242 9
      vertex 124.478 -1.1964 9
    endloop
  endfacet
  facet normal 0 0 1
    outer loop
      vertex -124.478 -1.1964 9
      vertex 124.478 -1.1964 9
      vertex -124.352 -0.808242 9
    endloop
  endfacet
  facet normal 0 0 1
    outer loop
      vertex 124.478 -1.1964 9
      vertex -124.478 -1.1964 9
      vertex 124.652 -1.5657 9
    endloop
  endfacet
  facet normal 0 0 1
    outer loop
      vertex -124.652 -1.5657 9
      vertex 124.652 -1.5657 9
      vertex -124.478 -1.1964 9
    endloop
  endfacet
  facet normal 0 0 1
    outer loop
      vertex 124.652 -1.5657 9
      vertex -124.652 -1.5657 9
      vertex 124.871 -1.9103 9
    endloop
  endfacet
  facet normal 0 0 1
    outer loop
      vertex -124.871 -1.9103 9
      vertex 124.871 -1.9103 9
      vertex -124.652 -1.5657 9
    endloop
  endfacet
  facet normal 0 0 1
    outer loop
      vertex 124.871 -1.9103 9
      vertex -124.871 -1.9103 9
      vertex 125.131 -2.22478 9
    endloop
  endfacet
  facet normal 0 0 1
    outer loop
      vertex -125.131 -2.22478 9
      vertex 125.131 -2.22478 9
      vertex -124.871 -1.9103 9
    endloop
  endfacet
  facet normal 0 0 1
    outer loop
      vertex 125.131 -2.22478 9
      vertex -125.131 -2.22478 9
      vertex 129.814 -6.99013 9
    endloop
  endfacet
  facet normal 0 0 1
    outer loop
      vertex -129.814 -6.99013 9
      vertex -125.131 -2.22478 9
      vertex -125.428 -2.50417 9
    endloop
  endfacet
  facet normal 0 0 1
    outer loop
      vertex -129.814 -6.99013 9
      vertex -125.428 -2.50417 9
      vertex -125.759 -2.74407 9
    endloop
  endfacet
  facet normal 0 0 1
    outer loop
      vertex -129.814 -6.99013 9
      vertex -125.759 -2.74407 9
      vertex -126.116 -2.94069 9
    endloop
  endfacet
  facet normal 0 0 1
    outer loop
      vertex -129.814 -6.99013 9
      vertex -126.116 -2.94069 9
      vertex -126.496 -3.09093 9
    endloop
  endfacet
  facet normal 0 0 1
    outer loop
      vertex -129.814 -6.99013 9
      vertex -126.496 -3.09093 9
      vertex -126.891 -3.19243 9
    endloop
  endfacet
  facet normal 0 0 1
    outer loop
      vertex -129.814 -6.99013 9
      vertex -126.891 -3.19243 9
      vertex -127.296 -3.24359 9
    endloop
  endfacet
  facet normal 0 0 1
    outer loop
      vertex -129.814 -6.99013 9
      vertex -127.296 -3.24359 9
      vertex -127.704 -3.24359 9
    endloop
  endfacet
  facet normal 0 0 1
    outer loop
      vertex -125.131 -2.22478 9
      vertex -129.814 -6.99013 9
      vertex 129.814 -6.99013 9
    endloop
  endfacet
  facet normal 0 0 1
    outer loop
      vertex -128.109 -3.19243 9
      vertex -129.814 -6.99013 9
      vertex -127.704 -3.24359 9
    endloop
  endfacet
  facet normal 0 0 1
    outer loop
      vertex -128.504 -3.09093 9
      vertex -129.814 -6.99013 9
      vertex -128.109 -3.19243 9
    endloop
  endfacet
  facet normal 0 0 1
    outer loop
      vertex -128.884 -2.94069 9
      vertex -129.814 -6.99013 9
      vertex -128.504 -3.09093 9
    endloop
  endfacet
  facet normal 0 0 1
    outer loop
      vertex -130.437 -6.91144 9
      vertex -128.884 -2.94069 9
      vertex -129.241 -2.74407 9
    endloop
  endfacet
  facet normal 0 0 1
    outer loop
      vertex -131.629 -6.52413 9
      vertex -129.241 -2.74407 9
      vertex -129.572 -2.50417 9
    endloop
  endfacet
  facet normal 0 0 1
    outer loop
      vertex -132.687 -5.85257 9
      vertex -129.572 -2.50417 9
      vertex -129.869 -2.22478 9
    endloop
  endfacet
  facet normal 0 0 1
    outer loop
      vertex -133.545 -4.93893 9
      vertex -129.869 -2.22478 9
      vertex -130.129 -1.9103 9
    endloop
  endfacet
  facet normal 0 0 1
    outer loop
      vertex -134.149 -3.84062 9
      vertex -130.129 -1.9103 9
      vertex -130.348 -1.5657 9
    endloop
  endfacet
  facet normal 0 0 1
    outer loop
      vertex -128.884 -2.94069 9
      vertex -130.437 -6.91144 9
      vertex -129.814 -6.99013 9
    endloop
  endfacet
  facet normal 0 0 1
    outer loop
      vertex -134.461 -2.62667 9
      vertex -130.348 -1.5657 9
      vertex -130.522 -1.1964 9
    endloop
  endfacet
  facet normal 0 0 1
    outer loop
      vertex -134.5 -2 9
      vertex -130.522 -1.1964 9
      vertex -130.648 -0.808242 9
    endloop
  endfacet
  facet normal 0 0 1
    outer loop
      vertex -134.5 -2 9
      vertex -130.648 -0.808242 9
      vertex -130.724 -0.407332 9
    endloop
  endfacet
  facet normal 0 0 1
    outer loop
      vertex -134.5 -2 9
      vertex -130.724 -0.407332 9
      vertex -130.75 0 9
    endloop
  endfacet
  facet normal 0 0 1
    outer loop
      vertex -129.241 -2.74407 9
      vertex -131.045 -6.75528 9
      vertex -130.437 -6.91144 9
    endloop
  endfacet
  facet normal -0 0 1
    outer loop
      vertex -133.882 4.40877 9
      vertex -130.129 1.9103 9
      vertex -133.545 4.93893 9
    endloop
  endfacet
  facet normal -0 0 1
    outer loop
      vertex -134.149 3.84062 9
      vertex -130.129 1.9103 9
      vertex -133.882 4.40877 9
    endloop
  endfacet
  facet normal 0 0 1
    outer loop
      vertex -134.5 -2 9
      vertex -130.75 0 9
      vertex -134.5 2 9
    endloop
  endfacet
  facet normal 0 0 1
    outer loop
      vertex -130.129 1.9103 9
      vertex -134.149 3.84062 9
      vertex -130.348 1.5657 9
    endloop
  endfacet
  facet normal 0 0 1
    outer loop
      vertex -130.522 -1.1964 9
      vertex -134.5 -2 9
      vertex -134.461 -2.62667 9
    endloop
  endfacet
  facet normal -0 0 1
    outer loop
      vertex -134.343 3.24345 9
      vertex -130.348 1.5657 9
      vertex -134.149 3.84062 9
    endloop
  endfacet
  facet normal 0 0 1
    outer loop
      vertex -129.241 -2.74407 9
      vertex -131.629 -6.52413 9
      vertex -131.045 -6.75528 9
    endloop
  endfacet
  facet normal -0 0 1
    outer loop
      vertex -134.461 2.62667 9
      vertex -130.348 1.5657 9
      vertex -134.343 3.24345 9
    endloop
  endfacet
  facet normal 0 0 1
    outer loop
      vertex -129.572 -2.50417 9
      vertex -132.179 -6.22164 9
      vertex -131.629 -6.52413 9
    endloop
  endfacet
  facet normal 0 0 1
    outer loop
      vertex -130.348 1.5657 9
      vertex -134.461 2.62667 9
      vertex -130.522 1.1964 9
    endloop
  endfacet
  facet normal 0 0 1
    outer loop
      vertex -129.572 -2.50417 9
      vertex -132.687 -5.85257 9
      vertex -132.179 -6.22164 9
    endloop
  endfacet
  facet normal -0 0 1
    outer loop
      vertex -134.5 2 9
      vertex -130.522 1.1964 9
      vertex -134.461 2.62667 9
    endloop
  endfacet
  facet normal 0 0 1
    outer loop
      vertex -129.869 -2.22478 9
      vertex -133.145 -5.42274 9
      vertex -132.687 -5.85257 9
    endloop
  endfacet
  facet normal 0 0 1
    outer loop
      vertex -130.522 1.1964 9
      vertex -134.5 2 9
      vertex -130.648 0.808242 9
    endloop
  endfacet
  facet normal 0 0 1
    outer loop
      vertex -129.869 -2.22478 9
      vertex -133.545 -4.93893 9
      vertex -133.145 -5.42274 9
    endloop
  endfacet
  facet normal 0 0 1
    outer loop
      vertex -130.648 0.808242 9
      vertex -134.5 2 9
      vertex -130.724 0.407332 9
    endloop
  endfacet
  facet normal 0 0 1
    outer loop
      vertex -130.129 -1.9103 9
      vertex -133.882 -4.40877 9
      vertex -133.545 -4.93893 9
    endloop
  endfacet
  facet normal 0 0 1
    outer loop
      vertex -130.724 0.407332 9
      vertex -134.5 2 9
      vertex -130.75 0 9
    endloop
  endfacet
  facet normal 0 0 1
    outer loop
      vertex -130.129 -1.9103 9
      vertex -134.149 -3.84062 9
      vertex -133.882 -4.40877 9
    endloop
  endfacet
  facet normal 0 0 1
    outer loop
      vertex -130.348 -1.5657 9
      vertex -134.343 -3.24345 9
      vertex -134.149 -3.84062 9
    endloop
  endfacet
  facet normal 0 0 1
    outer loop
      vertex -130.348 -1.5657 9
      vertex -134.461 -2.62667 9
      vertex -134.343 -3.24345 9
    endloop
  endfacet
  facet normal 0.951143 -0.308751 0
    outer loop
      vertex -130.648 0.808242 9
      vertex -130.522 1.1964 0
      vertex -130.522 1.1964 9
    endloop
  endfacet
  facet normal 0.951143 -0.308751 0
    outer loop
      vertex -130.522 1.1964 0
      vertex -130.648 0.808242 9
      vertex -130.648 0.808242 0
    endloop
  endfacet
  facet normal 0.843984 -0.536368 0
    outer loop
      vertex -130.348 1.5657 9
      vertex -130.129 1.9103 0
      vertex -130.129 1.9103 9
    endloop
  endfacet
  facet normal 0.843984 -0.536368 0
    outer loop
      vertex -130.129 1.9103 0
      vertex -130.348 1.5657 9
      vertex -130.348 1.5657 0
    endloop
  endfacet
  facet normal 0.248877 -0.968535 0
    outer loop
      vertex -128.504 3.09093 0
      vertex -128.109 3.19243 9
      vertex -128.504 3.09093 9
    endloop
  endfacet
  facet normal 0.248877 -0.968535 0
    outer loop
      vertex -128.109 3.19243 9
      vertex -128.504 3.09093 0
      vertex -128.109 3.19243 0
    endloop
  endfacet
  facet normal 0.586847 -0.809698 0
    outer loop
      vertex -129.572 2.50417 0
      vertex -129.241 2.74407 9
      vertex -129.572 2.50417 9
    endloop
  endfacet
  facet normal 0.586847 -0.809698 0
    outer loop
      vertex -129.241 2.74407 9
      vertex -129.572 2.50417 0
      vertex -129.241 2.74407 0
    endloop
  endfacet
  facet normal 0.685183 -0.728371 0
    outer loop
      vertex -129.869 2.22478 0
      vertex -129.572 2.50417 9
      vertex -129.869 2.22478 9
    endloop
  endfacet
  facet normal 0.685183 -0.728371 0
    outer loop
      vertex -129.572 2.50417 9
      vertex -129.869 2.22478 0
      vertex -129.572 2.50417 0
    endloop
  endfacet
  facet normal -0.997969 0.0637004 0
    outer loop
      vertex -124.276 -0.407332 0
      vertex -124.25 0 9
      vertex -124.25 0 0
    endloop
  endfacet
  facet normal -0.997969 0.0637004 0
    outer loop
      vertex -124.25 0 9
      vertex -124.276 -0.407332 0
      vertex -124.276 -0.407332 9
    endloop
  endfacet
  facet normal -0.843984 0.536368 0
    outer loop
      vertex -124.871 -1.9103 0
      vertex -124.652 -1.5657 9
      vertex -124.652 -1.5657 0
    endloop
  endfacet
  facet normal -0.843984 0.536368 0
    outer loop
      vertex -124.652 -1.5657 9
      vertex -124.871 -1.9103 0
      vertex -124.871 -1.9103 9
    endloop
  endfacet
  facet normal 0 1 -0
    outer loop
      vertex -127.296 -3.24359 0
      vertex -127.704 -3.24359 9
      vertex -127.296 -3.24359 9
    endloop
  endfacet
  facet normal 0 1 0
    outer loop
      vertex -127.704 -3.24359 9
      vertex -127.296 -3.24359 0
      vertex -127.704 -3.24359 0
    endloop
  endfacet
  facet normal 0.951143 0.308751 0
    outer loop
      vertex -130.522 -1.1964 9
      vertex -130.648 -0.808242 0
      vertex -130.648 -0.808242 9
    endloop
  endfacet
  facet normal 0.951143 0.308751 0
    outer loop
      vertex -130.648 -0.808242 0
      vertex -130.522 -1.1964 9
      vertex -130.522 -1.1964 0
    endloop
  endfacet
  facet normal 0.904619 0.426222 0
    outer loop
      vertex -130.348 -1.5657 9
      vertex -130.522 -1.1964 0
      vertex -130.522 -1.1964 9
    endloop
  endfacet
  facet normal 0.904619 0.426222 0
    outer loop
      vertex -130.522 -1.1964 0
      vertex -130.348 -1.5657 9
      vertex -130.348 -1.5657 0
    endloop
  endfacet
  facet normal -0.125325 0.992116 0
    outer loop
      vertex -126.891 -3.19243 0
      vertex -127.296 -3.24359 9
      vertex -126.891 -3.19243 9
    endloop
  endfacet
  facet normal -0.125325 0.992116 0
    outer loop
      vertex -127.296 -3.24359 9
      vertex -126.891 -3.19243 0
      vertex -127.296 -3.24359 0
    endloop
  endfacet
  facet normal -0.770706 -0.63719 0
    outer loop
      vertex -124.871 1.9103 0
      vertex -125.131 2.22478 9
      vertex -125.131 2.22478 0
    endloop
  endfacet
  facet normal -0.770706 -0.63719 0
    outer loop
      vertex -125.131 2.22478 9
      vertex -124.871 1.9103 0
      vertex -124.871 1.9103 9
    endloop
  endfacet
  facet normal 0.367675 0.929954 -0
    outer loop
      vertex -128.504 -3.09093 0
      vertex -128.884 -2.94069 9
      vertex -128.504 -3.09093 9
    endloop
  endfacet
  facet normal 0.367675 0.929954 0
    outer loop
      vertex -128.884 -2.94069 9
      vertex -128.504 -3.09093 0
      vertex -128.884 -2.94069 0
    endloop
  endfacet
  facet normal 0 0 -1
    outer loop
      vertex 130.522 -1.1964 0
      vertex 134.5 -2 0
      vertex 134.461 -2.62667 0
    endloop
  endfacet
  facet normal 0 0 -1
    outer loop
      vertex 134.5 -2 0
      vertex 130.75 0 0
      vertex 134.5 2 0
    endloop
  endfacet
  facet normal 0 0 -1
    outer loop
      vertex 130.348 -1.5657 0
      vertex 134.461 -2.62667 0
      vertex 134.343 -3.24345 0
    endloop
  endfacet
  facet normal 0 0 -1
    outer loop
      vertex 130.724 0.407332 0
      vertex 134.5 2 0
      vertex 130.75 0 0
    endloop
  endfacet
  facet normal 0 0 -1
    outer loop
      vertex 130.348 -1.5657 0
      vertex 134.343 -3.24345 0
      vertex 134.149 -3.84062 0
    endloop
  endfacet
  facet normal 0 0 -1
    outer loop
      vertex 130.648 0.808242 0
      vertex 134.5 2 0
      vertex 130.724 0.407332 0
    endloop
  endfacet
  facet normal 0 0 -1
    outer loop
      vertex 130.129 -1.9103 0
      vertex 134.149 -3.84062 0
      vertex 133.882 -4.40877 0
    endloop
  endfacet
  facet normal 0 0 -1
    outer loop
      vertex 130.522 1.1964 0
      vertex 134.5 2 0
      vertex 130.648 0.808242 0
    endloop
  endfacet
  facet normal 0 0 -1
    outer loop
      vertex 130.129 -1.9103 0
      vertex 133.882 -4.40877 0
      vertex 133.545 -4.93893 0
    endloop
  endfacet
  facet normal -0 0 -1
    outer loop
      vertex 134.5 2 0
      vertex 130.522 1.1964 0
      vertex 134.461 2.62667 0
    endloop
  endfacet
  facet normal 0 0 -1
    outer loop
      vertex 129.869 -2.22478 0
      vertex 133.545 -4.93893 0
      vertex 133.145 -5.42274 0
    endloop
  endfacet
  facet normal 0 0 -1
    outer loop
      vertex 130.348 1.5657 0
      vertex 134.461 2.62667 0
      vertex 130.522 1.1964 0
    endloop
  endfacet
  facet normal 0 0 -1
    outer loop
      vertex 129.869 -2.22478 0
      vertex 133.145 -5.42274 0
      vertex 132.687 -5.85257 0
    endloop
  endfacet
  facet normal -0 0 -1
    outer loop
      vertex 134.461 2.62667 0
      vertex 130.348 1.5657 0
      vertex 134.343 3.24345 0
    endloop
  endfacet
  facet normal 0 0 -1
    outer loop
      vertex 129.572 -2.50417 0
      vertex 132.687 -5.85257 0
      vertex 132.179 -6.22164 0
    endloop
  endfacet
  facet normal -0 0 -1
    outer loop
      vertex 134.343 3.24345 0
      vertex 130.348 1.5657 0
      vertex 134.149 3.84062 0
    endloop
  endfacet
  facet normal 0 0 -1
    outer loop
      vertex 129.572 -2.50417 0
      vertex 132.179 -6.22164 0
      vertex 131.629 -6.52413 0
    endloop
  endfacet
  facet normal 0 0 -1
    outer loop
      vertex 130.129 1.9103 0
      vertex 134.149 3.84062 0
      vertex 130.348 1.5657 0
    endloop
  endfacet
  facet normal 0 0 -1
    outer loop
      vertex 129.241 -2.74407 0
      vertex 131.629 -6.52413 0
      vertex 131.045 -6.75528 0
    endloop
  endfacet
  facet normal -0 0 -1
    outer loop
      vertex 134.149 3.84062 0
      vertex 130.129 1.9103 0
      vertex 133.882 4.40877 0
    endloop
  endfacet
  facet normal -0 0 -1
    outer loop
      vertex 133.882 4.40877 0
      vertex 130.129 1.9103 0
      vertex 133.545 4.93893 0
    endloop
  endfacet
  facet normal 0 0 -1
    outer loop
      vertex 134.5 -2 0
      vertex 130.724 -0.407332 0
      vertex 130.75 0 0
    endloop
  endfacet
  facet normal 0 0 -1
    outer loop
      vertex 134.5 -2 0
      vertex 130.648 -0.808242 0
      vertex 130.724 -0.407332 0
    endloop
  endfacet
  facet normal 0 0 -1
    outer loop
      vertex 134.5 -2 0
      vertex 130.522 -1.1964 0
      vertex 130.648 -0.808242 0
    endloop
  endfacet
  facet normal 0 0 -1
    outer loop
      vertex 129.241 -2.74407 0
      vertex 131.045 -6.75528 0
      vertex 130.437 -6.91144 0
    endloop
  endfacet
  facet normal 0 0 -1
    outer loop
      vertex 134.461 -2.62667 0
      vertex 130.348 -1.5657 0
      vertex 130.522 -1.1964 0
    endloop
  endfacet
  facet normal 0 0 -1
    outer loop
      vertex 134.149 -3.84062 0
      vertex 130.129 -1.9103 0
      vertex 130.348 -1.5657 0
    endloop
  endfacet
  facet normal 0 0 -1
    outer loop
      vertex 133.545 -4.93893 0
      vertex 129.869 -2.22478 0
      vertex 130.129 -1.9103 0
    endloop
  endfacet
  facet normal 0 0 -1
    outer loop
      vertex 128.884 -2.94069 0
      vertex 130.437 -6.91144 0
      vertex 129.814 -6.99013 0
    endloop
  endfacet
  facet normal 0 0 -1
    outer loop
      vertex 132.687 -5.85257 0
      vertex 129.572 -2.50417 0
      vertex 129.869 -2.22478 0
    endloop
  endfacet
  facet normal 0 0 -1
    outer loop
      vertex 131.629 -6.52413 0
      vertex 129.241 -2.74407 0
      vertex 129.572 -2.50417 0
    endloop
  endfacet
  facet normal 0 0 -1
    outer loop
      vertex 130.437 -6.91144 0
      vertex 128.884 -2.94069 0
      vertex 129.241 -2.74407 0
    endloop
  endfacet
  facet normal 0 0 -1
    outer loop
      vertex 129.814 -6.99013 0
      vertex 128.504 -3.09093 0
      vertex 128.884 -2.94069 0
    endloop
  endfacet
  facet normal 0 0 -1
    outer loop
      vertex 129.814 -6.99013 0
      vertex 128.109 -3.19243 0
      vertex 128.504 -3.09093 0
    endloop
  endfacet
  facet normal 0 0 -1
    outer loop
      vertex 129.814 -6.99013 0
      vertex 127.704 -3.24359 0
      vertex 128.109 -3.19243 0
    endloop
  endfacet
  facet normal 0 0 -1
    outer loop
      vertex 129.814 -6.99013 0
      vertex 127.296 -3.24359 0
      vertex 127.704 -3.24359 0
    endloop
  endfacet
  facet normal 0 0 -1
    outer loop
      vertex 129.814 -6.99013 0
      vertex 126.891 -3.19243 0
      vertex 127.296 -3.24359 0
    endloop
  endfacet
  facet normal 0 0 -1
    outer loop
      vertex 129.814 -6.99013 0
      vertex 126.496 -3.09093 0
      vertex 126.891 -3.19243 0
    endloop
  endfacet
  facet normal 0 0 -1
    outer loop
      vertex 129.814 -6.99013 0
      vertex 126.116 -2.94069 0
      vertex 126.496 -3.09093 0
    endloop
  endfacet
  facet normal 0 0 -1
    outer loop
      vertex 129.814 -6.99013 0
      vertex 125.759 -2.74407 0
      vertex 126.116 -2.94069 0
    endloop
  endfacet
  facet normal 0 0 -1
    outer loop
      vertex 129.814 -6.99013 0
      vertex 125.428 -2.50417 0
      vertex 125.759 -2.74407 0
    endloop
  endfacet
  facet normal 0 0 -1
    outer loop
      vertex 129.814 -6.99013 0
      vertex 125.131 -2.22478 0
      vertex 125.428 -2.50417 0
    endloop
  endfacet
  facet normal 0 0 -1
    outer loop
      vertex 124.276 -0.407332 0
      vertex -124.25 0 0
      vertex 124.25 0 0
    endloop
  endfacet
  facet normal 0 0 -1
    outer loop
      vertex -124.276 -0.407332 0
      vertex 124.276 -0.407332 0
      vertex 124.352 -0.808242 0
    endloop
  endfacet
  facet normal 0 0 -1
    outer loop
      vertex -124.352 -0.808242 0
      vertex 124.352 -0.808242 0
      vertex 124.478 -1.1964 0
    endloop
  endfacet
  facet normal 0 0 -1
    outer loop
      vertex -124.478 -1.1964 0
      vertex 124.478 -1.1964 0
      vertex 124.652 -1.5657 0
    endloop
  endfacet
  facet normal 0 0 -1
    outer loop
      vertex -124.652 -1.5657 0
      vertex 124.652 -1.5657 0
      vertex 124.871 -1.9103 0
    endloop
  endfacet
  facet normal 0 0 -1
    outer loop
      vertex -124.871 -1.9103 0
      vertex 124.871 -1.9103 0
      vertex 125.131 -2.22478 0
    endloop
  endfacet
  facet normal 0 0 -1
    outer loop
      vertex -125.131 -2.22478 0
      vertex 125.131 -2.22478 0
      vertex 129.814 -6.99013 0
    endloop
  endfacet
  facet normal 0 0 -1
    outer loop
      vertex 124.276 -0.407332 0
      vertex -124.276 -0.407332 0
      vertex -124.25 0 0
    endloop
  endfacet
  facet normal 0 0 -1
    outer loop
      vertex 124.352 -0.808242 0
      vertex -124.352 -0.808242 0
      vertex -124.276 -0.407332 0
    endloop
  endfacet
  facet normal 0 0 -1
    outer loop
      vertex 124.478 -1.1964 0
      vertex -124.478 -1.1964 0
      vertex -124.352 -0.808242 0
    endloop
  endfacet
  facet normal 0 0 -1
    outer loop
      vertex 124.652 -1.5657 0
      vertex -124.652 -1.5657 0
      vertex -124.478 -1.1964 0
    endloop
  endfacet
  facet normal 0 0 -1
    outer loop
      vertex 124.871 -1.9103 0
      vertex -124.871 -1.9103 0
      vertex -124.652 -1.5657 0
    endloop
  endfacet
  facet normal 0 0 -1
    outer loop
      vertex 125.131 -2.22478 0
      vertex -125.131 -2.22478 0
      vertex -124.871 -1.9103 0
    endloop
  endfacet
  facet normal 0 0 -1
    outer loop
      vertex -129.814 -6.99013 0
      vertex -125.131 -2.22478 0
      vertex 129.814 -6.99013 0
    endloop
  endfacet
  facet normal 0 0 -1
    outer loop
      vertex -125.131 -2.22478 0
      vertex -129.814 -6.99013 0
      vertex -125.428 -2.50417 0
    endloop
  endfacet
  facet normal 0 0 -1
    outer loop
      vertex -125.428 -2.50417 0
      vertex -129.814 -6.99013 0
      vertex -125.759 -2.74407 0
    endloop
  endfacet
  facet normal 0 0 -1
    outer loop
      vertex -125.759 -2.74407 0
      vertex -129.814 -6.99013 0
      vertex -126.116 -2.94069 0
    endloop
  endfacet
  facet normal 0 0 -1
    outer loop
      vertex -126.116 -2.94069 0
      vertex -129.814 -6.99013 0
      vertex -126.496 -3.09093 0
    endloop
  endfacet
  facet normal 0 0 -1
    outer loop
      vertex -126.496 -3.09093 0
      vertex -129.814 -6.99013 0
      vertex -126.891 -3.19243 0
    endloop
  endfacet
  facet normal 0 0 -1
    outer loop
      vertex -126.891 -3.19243 0
      vertex -129.814 -6.99013 0
      vertex -127.296 -3.24359 0
    endloop
  endfacet
  facet normal -0 0 -1
    outer loop
      vertex -127.296 -3.24359 0
      vertex -129.814 -6.99013 0
      vertex -127.704 -3.24359 0
    endloop
  endfacet
  facet normal 0 0 -1
    outer loop
      vertex -129.814 -6.99013 0
      vertex -128.109 -3.19243 0
      vertex -127.704 -3.24359 0
    endloop
  endfacet
  facet normal 0 0 -1
    outer loop
      vertex -129.814 -6.99013 0
      vertex -128.504 -3.09093 0
      vertex -128.109 -3.19243 0
    endloop
  endfacet
  facet normal 0 0 -1
    outer loop
      vertex -129.814 -6.99013 0
      vertex -128.884 -2.94069 0
      vertex -128.504 -3.09093 0
    endloop
  endfacet
  facet normal 0 0 -1
    outer loop
      vertex -130.437 -6.91144 0
      vertex -128.884 -2.94069 0
      vertex -129.814 -6.99013 0
    endloop
  endfacet
  facet normal -0 0 -1
    outer loop
      vertex -128.884 -2.94069 0
      vertex -130.437 -6.91144 0
      vertex -129.241 -2.74407 0
    endloop
  endfacet
  facet normal 0 0 -1
    outer loop
      vertex -131.045 -6.75528 0
      vertex -129.241 -2.74407 0
      vertex -130.437 -6.91144 0
    endloop
  endfacet
  facet normal 0 0 -1
    outer loop
      vertex -131.629 -6.52413 0
      vertex -129.241 -2.74407 0
      vertex -131.045 -6.75528 0
    endloop
  endfacet
  facet normal -0 0 -1
    outer loop
      vertex -129.241 -2.74407 0
      vertex -131.629 -6.52413 0
      vertex -129.572 -2.50417 0
    endloop
  endfacet
  facet normal 0 0 -1
    outer loop
      vertex -132.179 -6.22164 0
      vertex -129.572 -2.50417 0
      vertex -131.629 -6.52413 0
    endloop
  endfacet
  facet normal 0 0 -1
    outer loop
      vertex -132.687 -5.85257 0
      vertex -129.572 -2.50417 0
      vertex -132.179 -6.22164 0
    endloop
  endfacet
  facet normal -0 0 -1
    outer loop
      vertex -129.572 -2.50417 0
      vertex -132.687 -5.85257 0
      vertex -129.869 -2.22478 0
    endloop
  endfacet
  facet normal 0 0 -1
    outer loop
      vertex -133.145 -5.42274 0
      vertex -129.869 -2.22478 0
      vertex -132.687 -5.85257 0
    endloop
  endfacet
  facet normal 0 0 -1
    outer loop
      vertex -133.545 -4.93893 0
      vertex -129.869 -2.22478 0
      vertex -133.145 -5.42274 0
    endloop
  endfacet
  facet normal -0 0 -1
    outer loop
      vertex -129.869 -2.22478 0
      vertex -133.545 -4.93893 0
      vertex -130.129 -1.9103 0
    endloop
  endfacet
  facet normal 0 0 -1
    outer loop
      vertex 129.869 2.22478 0
      vertex 133.545 4.93893 0
      vertex 130.129 1.9103 0
    endloop
  endfacet
  facet normal -0 0 -1
    outer loop
      vertex 133.545 4.93893 0
      vertex 129.869 2.22478 0
      vertex 133.145 5.42274 0
    endloop
  endfacet
  facet normal -0 0 -1
    outer loop
      vertex 133.145 5.42274 0
      vertex 129.869 2.22478 0
      vertex 132.687 5.85257 0
    endloop
  endfacet
  facet normal 0 0 -1
    outer loop
      vertex 129.572 2.50417 0
      vertex 132.687 5.85257 0
      vertex 129.869 2.22478 0
    endloop
  endfacet
  facet normal -0 0 -1
    outer loop
      vertex 132.687 5.85257 0
      vertex 129.572 2.50417 0
      vertex 132.179 6.22164 0
    endloop
  endfacet
  facet normal -0 0 -1
    outer loop
      vertex 132.179 6.22164 0
      vertex 129.572 2.50417 0
      vertex 131.629 6.52413 0
    endloop
  endfacet
  facet normal 0 0 -1
    outer loop
      vertex 129.241 2.74407 0
      vertex 131.629 6.52413 0
      vertex 129.572 2.50417 0
    endloop
  endfacet
  facet normal -0 0 -1
    outer loop
      vertex 131.629 6.52413 0
      vertex 129.241 2.74407 0
      vertex 131.045 6.75528 0
    endloop
  endfacet
  facet normal -0 0 -1
    outer loop
      vertex 131.045 6.75528 0
      vertex 129.241 2.74407 0
      vertex 130.437 6.91144 0
    endloop
  endfacet
  facet normal 0 0 -1
    outer loop
      vertex 128.884 2.94069 0
      vertex 130.437 6.91144 0
      vertex 129.241 2.74407 0
    endloop
  endfacet
  facet normal -0 0 -1
    outer loop
      vertex 130.437 6.91144 0
      vertex 128.884 2.94069 0
      vertex 129.814 6.99013 0
    endloop
  endfacet
  facet normal 0 0 -1
    outer loop
      vertex 128.504 3.09093 0
      vertex 129.814 6.99013 0
      vertex 128.884 2.94069 0
    endloop
  endfacet
  facet normal 0 0 -1
    outer loop
      vertex 128.109 3.19243 0
      vertex 129.814 6.99013 0
      vertex 128.504 3.09093 0
    endloop
  endfacet
  facet normal 0 0 -1
    outer loop
      vertex 127.704 3.24359 0
      vertex 129.814 6.99013 0
      vertex 128.109 3.19243 0
    endloop
  endfacet
  facet normal 0 0 -1
    outer loop
      vertex 127.296 3.24359 0
      vertex 129.814 6.99013 0
      vertex 127.704 3.24359 0
    endloop
  endfacet
  facet normal 0 0 -1
    outer loop
      vertex 126.891 3.19243 0
      vertex 129.814 6.99013 0
      vertex 127.296 3.24359 0
    endloop
  endfacet
  facet normal 0 0 -1
    outer loop
      vertex 126.496 3.09093 0
      vertex 129.814 6.99013 0
      vertex 126.891 3.19243 0
    endloop
  endfacet
  facet normal 0 0 -1
    outer loop
      vertex 126.116 2.94069 0
      vertex 129.814 6.99013 0
      vertex 126.496 3.09093 0
    endloop
  endfacet
  facet normal 0 0 -1
    outer loop
      vertex 125.759 2.74407 0
      vertex 129.814 6.99013 0
      vertex 126.116 2.94069 0
    endloop
  endfacet
  facet normal 0 0 -1
    outer loop
      vertex 125.428 2.50417 0
      vertex 129.814 6.99013 0
      vertex 125.759 2.74407 0
    endloop
  endfacet
  facet normal 0 0 -1
    outer loop
      vertex 125.131 2.22478 0
      vertex 129.814 6.99013 0
      vertex 125.428 2.50417 0
    endloop
  endfacet
  facet normal 0 0 -1
    outer loop
      vertex -124.25 0 0
      vertex 124.276 0.407332 0
      vertex 124.25 0 0
    endloop
  endfacet
  facet normal 0 0 -1
    outer loop
      vertex -124.276 0.407332 0
      vertex 124.276 0.407332 0
      vertex -124.25 0 0
    endloop
  endfacet
  facet normal 0 0 -1
    outer loop
      vertex 124.276 0.407332 0
      vertex -124.276 0.407332 0
      vertex 124.352 0.808242 0
    endloop
  endfacet
  facet normal 0 0 -1
    outer loop
      vertex -124.352 0.808242 0
      vertex 124.352 0.808242 0
      vertex -124.276 0.407332 0
    endloop
  endfacet
  facet normal 0 0 -1
    outer loop
      vertex 124.352 0.808242 0
      vertex -124.352 0.808242 0
      vertex 124.478 1.1964 0
    endloop
  endfacet
  facet normal 0 0 -1
    outer loop
      vertex -124.478 1.1964 0
      vertex 124.478 1.1964 0
      vertex -124.352 0.808242 0
    endloop
  endfacet
  facet normal 0 0 -1
    outer loop
      vertex 124.478 1.1964 0
      vertex -124.478 1.1964 0
      vertex 124.652 1.5657 0
    endloop
  endfacet
  facet normal 0 0 -1
    outer loop
      vertex -124.652 1.5657 0
      vertex 124.652 1.5657 0
      vertex -124.478 1.1964 0
    endloop
  endfacet
  facet normal 0 0 -1
    outer loop
      vertex 124.652 1.5657 0
      vertex -124.652 1.5657 0
      vertex 124.871 1.9103 0
    endloop
  endfacet
  facet normal 0 0 -1
    outer loop
      vertex -124.871 1.9103 0
      vertex 124.871 1.9103 0
      vertex -124.652 1.5657 0
    endloop
  endfacet
  facet normal 0 0 -1
    outer loop
      vertex 124.871 1.9103 0
      vertex -124.871 1.9103 0
      vertex 125.131 2.22478 0
    endloop
  endfacet
  facet normal 0 0 -1
    outer loop
      vertex -125.131 2.22478 0
      vertex 125.131 2.22478 0
      vertex -124.871 1.9103 0
    endloop
  endfacet
  facet normal 0 0 -1
    outer loop
      vertex 125.131 2.22478 0
      vertex -125.131 2.22478 0
      vertex 129.814 6.99013 0
    endloop
  endfacet
  facet normal 0 0 -1
    outer loop
      vertex -129.814 6.99013 0
      vertex -125.131 2.22478 0
      vertex -125.428 2.50417 0
    endloop
  endfacet
  facet normal 0 0 -1
    outer loop
      vertex -129.814 6.99013 0
      vertex -125.428 2.50417 0
      vertex -125.759 2.74407 0
    endloop
  endfacet
  facet normal 0 0 -1
    outer loop
      vertex -129.814 6.99013 0
      vertex -125.759 2.74407 0
      vertex -126.116 2.94069 0
    endloop
  endfacet
  facet normal 0 0 -1
    outer loop
      vertex -129.814 6.99013 0
      vertex -126.116 2.94069 0
      vertex -126.496 3.09093 0
    endloop
  endfacet
  facet normal 0 0 -1
    outer loop
      vertex -129.814 6.99013 0
      vertex -126.496 3.09093 0
      vertex -126.891 3.19243 0
    endloop
  endfacet
  facet normal 0 0 -1
    outer loop
      vertex -129.814 6.99013 0
      vertex -126.891 3.19243 0
      vertex -127.296 3.24359 0
    endloop
  endfacet
  facet normal 0 0 -1
    outer loop
      vertex -129.814 6.99013 0
      vertex -127.296 3.24359 0
      vertex -127.704 3.24359 0
    endloop
  endfacet
  facet normal 0 0 -1
    outer loop
      vertex -125.131 2.22478 0
      vertex -129.814 6.99013 0
      vertex 129.814 6.99013 0
    endloop
  endfacet
  facet normal 0 0 -1
    outer loop
      vertex -128.109 3.19243 0
      vertex -129.814 6.99013 0
      vertex -127.704 3.24359 0
    endloop
  endfacet
  facet normal 0 0 -1
    outer loop
      vertex -128.504 3.09093 0
      vertex -129.814 6.99013 0
      vertex -128.109 3.19243 0
    endloop
  endfacet
  facet normal 0 0 -1
    outer loop
      vertex -128.884 2.94069 0
      vertex -129.814 6.99013 0
      vertex -128.504 3.09093 0
    endloop
  endfacet
  facet normal 0 0 -1
    outer loop
      vertex -130.437 6.91144 0
      vertex -128.884 2.94069 0
      vertex -129.241 2.74407 0
    endloop
  endfacet
  facet normal 0 0 -1
    outer loop
      vertex -131.629 6.52413 0
      vertex -129.241 2.74407 0
      vertex -129.572 2.50417 0
    endloop
  endfacet
  facet normal 0 0 -1
    outer loop
      vertex -132.687 5.85257 0
      vertex -129.572 2.50417 0
      vertex -129.869 2.22478 0
    endloop
  endfacet
  facet normal 0 0 -1
    outer loop
      vertex -133.545 4.93893 0
      vertex -129.869 2.22478 0
      vertex -130.129 1.9103 0
    endloop
  endfacet
  facet normal 0 0 -1
    outer loop
      vertex -134.149 3.84062 0
      vertex -130.129 1.9103 0
      vertex -130.348 1.5657 0
    endloop
  endfacet
  facet normal 0 0 -1
    outer loop
      vertex -128.884 2.94069 0
      vertex -130.437 6.91144 0
      vertex -129.814 6.99013 0
    endloop
  endfacet
  facet normal 0 0 -1
    outer loop
      vertex -134.461 2.62667 0
      vertex -130.348 1.5657 0
      vertex -130.522 1.1964 0
    endloop
  endfacet
  facet normal 0 0 -1
    outer loop
      vertex -134.5 2 0
      vertex -130.522 1.1964 0
      vertex -130.648 0.808242 0
    endloop
  endfacet
  facet normal 0 0 -1
    outer loop
      vertex -134.5 2 0
      vertex -130.648 0.808242 0
      vertex -130.724 0.407332 0
    endloop
  endfacet
  facet normal 0 0 -1
    outer loop
      vertex -134.5 2 0
      vertex -130.724 0.407332 0
      vertex -130.75 0 0
    endloop
  endfacet
  facet normal 0 0 -1
    outer loop
      vertex -129.241 2.74407 0
      vertex -131.045 6.75528 0
      vertex -130.437 6.91144 0
    endloop
  endfacet
  facet normal 0 0 -1
    outer loop
      vertex -133.882 -4.40877 0
      vertex -130.129 -1.9103 0
      vertex -133.545 -4.93893 0
    endloop
  endfacet
  facet normal 0 0 -1
    outer loop
      vertex -134.149 -3.84062 0
      vertex -130.129 -1.9103 0
      vertex -133.882 -4.40877 0
    endloop
  endfacet
  facet normal 0 0 -1
    outer loop
      vertex -134.5 2 0
      vertex -130.75 0 0
      vertex -134.5 -2 0
    endloop
  endfacet
  facet normal -0 0 -1
    outer loop
      vertex -130.129 -1.9103 0
      vertex -134.149 -3.84062 0
      vertex -130.348 -1.5657 0
    endloop
  endfacet
  facet normal 0 0 -1
    outer loop
      vertex -130.522 1.1964 0
      vertex -134.5 2 0
      vertex -134.461 2.62667 0
    endloop
  endfacet
  facet normal 0 0 -1
    outer loop
      vertex -134.343 -3.24345 0
      vertex -130.348 -1.5657 0
      vertex -134.149 -3.84062 0
    endloop
  endfacet
  facet normal 0 0 -1
    outer loop
      vertex -129.241 2.74407 0
      vertex -131.629 6.52413 0
      vertex -131.045 6.75528 0
    endloop
  endfacet
  facet normal 0 0 -1
    outer loop
      vertex -134.461 -2.62667 0
      vertex -130.348 -1.5657 0
      vertex -134.343 -3.24345 0
    endloop
  endfacet
  facet normal 0 0 -1
    outer loop
      vertex -129.572 2.50417 0
      vertex -132.179 6.22164 0
      vertex -131.629 6.52413 0
    endloop
  endfacet
  facet normal -0 0 -1
    outer loop
      vertex -130.348 -1.5657 0
      vertex -134.461 -2.62667 0
      vertex -130.522 -1.1964 0
    endloop
  endfacet
  facet normal 0 0 -1
    outer loop
      vertex -129.572 2.50417 0
      vertex -132.687 5.85257 0
      vertex -132.179 6.22164 0
    endloop
  endfacet
  facet normal 0 0 -1
    outer loop
      vertex -134.5 -2 0
      vertex -130.522 -1.1964 0
      vertex -134.461 -2.62667 0
    endloop
  endfacet
  facet normal 0 0 -1
    outer loop
      vertex -129.869 2.22478 0
      vertex -133.145 5.42274 0
      vertex -132.687 5.85257 0
    endloop
  endfacet
  facet normal -0 0 -1
    outer loop
      vertex -130.522 -1.1964 0
      vertex -134.5 -2 0
      vertex -130.648 -0.808242 0
    endloop
  endfacet
  facet normal 0 0 -1
    outer loop
      vertex -129.869 2.22478 0
      vertex -133.545 4.93893 0
      vertex -133.145 5.42274 0
    endloop
  endfacet
  facet normal -0 0 -1
    outer loop
      vertex -130.648 -0.808242 0
      vertex -134.5 -2 0
      vertex -130.724 -0.407332 0
    endloop
  endfacet
  facet normal 0 0 -1
    outer loop
      vertex -130.129 1.9103 0
      vertex -133.882 4.40877 0
      vertex -133.545 4.93893 0
    endloop
  endfacet
  facet normal -0 0 -1
    outer loop
      vertex -130.724 -0.407332 0
      vertex -134.5 -2 0
      vertex -130.75 0 0
    endloop
  endfacet
  facet normal 0 0 -1
    outer loop
      vertex -130.129 1.9103 0
      vertex -134.149 3.84062 0
      vertex -133.882 4.40877 0
    endloop
  endfacet
  facet normal 0 0 -1
    outer loop
      vertex -130.348 1.5657 0
      vertex -134.343 3.24345 0
      vertex -134.149 3.84062 0
    endloop
  endfacet
  facet normal 0 0 -1
    outer loop
      vertex -130.348 1.5657 0
      vertex -134.461 2.62667 0
      vertex -134.343 3.24345 0
    endloop
  endfacet
  facet normal -0.248877 0.968535 0
    outer loop
      vertex -126.496 -3.09093 0
      vertex -126.891 -3.19243 9
      vertex -126.496 -3.09093 9
    endloop
  endfacet
  facet normal -0.248877 0.968535 0
    outer loop
      vertex -126.891 -3.19243 9
      vertex -126.496 -3.09093 0
      vertex -126.891 -3.19243 0
    endloop
  endfacet
  facet normal -0.482427 0.875936 0
    outer loop
      vertex -125.759 -2.74407 0
      vertex -126.116 -2.94069 9
      vertex -125.759 -2.74407 9
    endloop
  endfacet
  facet normal -0.482427 0.875936 0
    outer loop
      vertex -126.116 -2.94069 9
      vertex -125.759 -2.74407 0
      vertex -126.116 -2.94069 0
    endloop
  endfacet
  facet normal -0.685183 0.728371 0
    outer loop
      vertex -125.131 -2.22478 0
      vertex -125.428 -2.50417 9
      vertex -125.131 -2.22478 9
    endloop
  endfacet
  facet normal -0.685183 0.728371 0
    outer loop
      vertex -125.428 -2.50417 9
      vertex -125.131 -2.22478 0
      vertex -125.428 -2.50417 0
    endloop
  endfacet
  facet normal -0.904619 0.426222 0
    outer loop
      vertex -124.652 -1.5657 0
      vertex -124.478 -1.1964 9
      vertex -124.478 -1.1964 0
    endloop
  endfacet
  facet normal -0.904619 0.426222 0
    outer loop
      vertex -124.478 -1.1964 9
      vertex -124.652 -1.5657 0
      vertex -124.652 -1.5657 9
    endloop
  endfacet
  facet normal 0.586847 0.809698 -0
    outer loop
      vertex -129.241 -2.74407 0
      vertex -129.572 -2.50417 9
      vertex -129.241 -2.74407 9
    endloop
  endfacet
  facet normal 0.586847 0.809698 0
    outer loop
      vertex -129.572 -2.50417 9
      vertex -129.241 -2.74407 0
      vertex -129.572 -2.50417 0
    endloop
  endfacet
  facet normal 0.248877 0.968535 -0
    outer loop
      vertex -128.109 -3.19243 0
      vertex -128.504 -3.09093 9
      vertex -128.109 -3.19243 9
    endloop
  endfacet
  facet normal 0.248877 0.968535 0
    outer loop
      vertex -128.504 -3.09093 9
      vertex -128.109 -3.19243 0
      vertex -128.504 -3.09093 0
    endloop
  endfacet
  facet normal 0.125325 0.992116 -0
    outer loop
      vertex -127.704 -3.24359 0
      vertex -128.109 -3.19243 9
      vertex -127.704 -3.24359 9
    endloop
  endfacet
  facet normal 0.125325 0.992116 0
    outer loop
      vertex -128.109 -3.19243 9
      vertex -127.704 -3.24359 0
      vertex -128.109 -3.19243 0
    endloop
  endfacet
  facet normal 0.770706 0.63719 0
    outer loop
      vertex -129.869 -2.22478 9
      vertex -130.129 -1.9103 0
      vertex -130.129 -1.9103 9
    endloop
  endfacet
  facet normal 0.770706 0.63719 0
    outer loop
      vertex -130.129 -1.9103 0
      vertex -129.869 -2.22478 9
      vertex -129.869 -2.22478 0
    endloop
  endfacet
  facet normal 0.685183 0.728371 -0
    outer loop
      vertex -129.572 -2.50417 0
      vertex -129.869 -2.22478 9
      vertex -129.572 -2.50417 9
    endloop
  endfacet
  facet normal 0.685183 0.728371 0
    outer loop
      vertex -129.869 -2.22478 9
      vertex -129.572 -2.50417 0
      vertex -129.869 -2.22478 0
    endloop
  endfacet
  facet normal 0.982502 0.186252 0
    outer loop
      vertex -130.648 -0.808242 9
      vertex -130.724 -0.407332 0
      vertex -130.724 -0.407332 9
    endloop
  endfacet
  facet normal 0.982502 0.186252 0
    outer loop
      vertex -130.724 -0.407332 0
      vertex -130.648 -0.808242 9
      vertex -130.648 -0.808242 0
    endloop
  endfacet
  facet normal 0.997969 0.0637004 0
    outer loop
      vertex -130.724 -0.407332 9
      vertex -130.75 0 0
      vertex -130.75 0 9
    endloop
  endfacet
  facet normal 0.997969 0.0637004 0
    outer loop
      vertex -130.75 0 0
      vertex -130.724 -0.407332 9
      vertex -130.724 -0.407332 0
    endloop
  endfacet
  facet normal -0.770706 0.63719 0
    outer loop
      vertex -125.131 -2.22478 0
      vertex -124.871 -1.9103 9
      vertex -124.871 -1.9103 0
    endloop
  endfacet
  facet normal -0.770706 0.63719 0
    outer loop
      vertex -124.871 -1.9103 9
      vertex -125.131 -2.22478 0
      vertex -125.131 -2.22478 9
    endloop
  endfacet
  facet normal 0.482427 0.875936 -0
    outer loop
      vertex -128.884 -2.94069 0
      vertex -129.241 -2.74407 9
      vertex -128.884 -2.94069 9
    endloop
  endfacet
  facet normal 0.482427 0.875936 0
    outer loop
      vertex -129.241 -2.74407 9
      vertex -128.884 -2.94069 0
      vertex -129.241 -2.74407 0
    endloop
  endfacet
  facet normal 0.843984 0.536368 0
    outer loop
      vertex -130.129 -1.9103 9
      vertex -130.348 -1.5657 0
      vertex -130.348 -1.5657 9
    endloop
  endfacet
  facet normal 0.843984 0.536368 0
    outer loop
      vertex -130.348 -1.5657 0
      vertex -130.129 -1.9103 9
      vertex -130.129 -1.9103 0
    endloop
  endfacet
  facet normal -0.367675 0.929954 0
    outer loop
      vertex -126.116 -2.94069 0
      vertex -126.496 -3.09093 9
      vertex -126.116 -2.94069 9
    endloop
  endfacet
  facet normal -0.367675 0.929954 0
    outer loop
      vertex -126.496 -3.09093 9
      vertex -126.116 -2.94069 0
      vertex -126.496 -3.09093 0
    endloop
  endfacet
  facet normal -0.951143 -0.308751 0
    outer loop
      vertex 130.648 0.808242 0
      vertex 130.522 1.1964 9
      vertex 130.522 1.1964 0
    endloop
  endfacet
  facet normal -0.951143 -0.308751 0
    outer loop
      vertex 130.522 1.1964 9
      vertex 130.648 0.808242 0
      vertex 130.648 0.808242 9
    endloop
  endfacet
  facet normal -0.997969 -0.0637004 0
    outer loop
      vertex 130.75 0 0
      vertex 130.724 0.407332 9
      vertex 130.724 0.407332 0
    endloop
  endfacet
  facet normal -0.997969 -0.0637004 0
    outer loop
      vertex 130.724 0.407332 9
      vertex 130.75 0 0
      vertex 130.75 0 9
    endloop
  endfacet
  facet normal 0 -1 0
    outer loop
      vertex 127.296 3.24359 0
      vertex 127.704 3.24359 9
      vertex 127.296 3.24359 9
    endloop
  endfacet
  facet normal 0 -1 -0
    outer loop
      vertex 127.704 3.24359 9
      vertex 127.296 3.24359 0
      vertex 127.704 3.24359 0
    endloop
  endfacet
  facet normal -0.685183 -0.728371 0
    outer loop
      vertex 129.572 2.50417 0
      vertex 129.869 2.22478 9
      vertex 129.572 2.50417 9
    endloop
  endfacet
  facet normal -0.685183 -0.728371 -0
    outer loop
      vertex 129.869 2.22478 9
      vertex 129.572 2.50417 0
      vertex 129.869 2.22478 0
    endloop
  endfacet
  facet normal 0.770706 -0.63719 0
    outer loop
      vertex 124.871 1.9103 9
      vertex 125.131 2.22478 0
      vertex 125.131 2.22478 9
    endloop
  endfacet
  facet normal 0.770706 -0.63719 0
    outer loop
      vertex 125.131 2.22478 0
      vertex 124.871 1.9103 9
      vertex 124.871 1.9103 0
    endloop
  endfacet
  facet normal 0.482427 -0.875936 0
    outer loop
      vertex 125.759 2.74407 0
      vertex 126.116 2.94069 9
      vertex 125.759 2.74407 9
    endloop
  endfacet
  facet normal 0.482427 -0.875936 0
    outer loop
      vertex 126.116 2.94069 9
      vertex 125.759 2.74407 0
      vertex 126.116 2.94069 0
    endloop
  endfacet
  facet normal 0.770706 0.63719 0
    outer loop
      vertex 125.131 -2.22478 9
      vertex 124.871 -1.9103 0
      vertex 124.871 -1.9103 9
    endloop
  endfacet
  facet normal 0.770706 0.63719 0
    outer loop
      vertex 124.871 -1.9103 0
      vertex 125.131 -2.22478 9
      vertex 125.131 -2.22478 0
    endloop
  endfacet
  facet normal -0.904619 -0.426222 0
    outer loop
      vertex 130.522 1.1964 0
      vertex 130.348 1.5657 9
      vertex 130.348 1.5657 0
    endloop
  endfacet
  facet normal -0.904619 -0.426222 0
    outer loop
      vertex 130.348 1.5657 9
      vertex 130.522 1.1964 0
      vertex 130.522 1.1964 9
    endloop
  endfacet
  facet normal -0.843984 -0.536368 0
    outer loop
      vertex 130.348 1.5657 0
      vertex 130.129 1.9103 9
      vertex 130.129 1.9103 0
    endloop
  endfacet
  facet normal -0.843984 -0.536368 0
    outer loop
      vertex 130.129 1.9103 9
      vertex 130.348 1.5657 0
      vertex 130.348 1.5657 9
    endloop
  endfacet
  facet normal -0.367675 -0.929954 0
    outer loop
      vertex 128.504 3.09093 0
      vertex 128.884 2.94069 9
      vertex 128.504 3.09093 9
    endloop
  endfacet
  facet normal -0.367675 -0.929954 -0
    outer loop
      vertex 128.884 2.94069 9
      vertex 128.504 3.09093 0
      vertex 128.884 2.94069 0
    endloop
  endfacet
  facet normal -0.248877 -0.968535 0
    outer loop
      vertex 128.109 3.19243 0
      vertex 128.504 3.09093 9
      vertex 128.109 3.19243 9
    endloop
  endfacet
  facet normal -0.248877 -0.968535 -0
    outer loop
      vertex 128.504 3.09093 9
      vertex 128.109 3.19243 0
      vertex 128.504 3.09093 0
    endloop
  endfacet
  facet normal -0.586847 -0.809698 0
    outer loop
      vertex 129.241 2.74407 0
      vertex 129.572 2.50417 9
      vertex 129.241 2.74407 9
    endloop
  endfacet
  facet normal -0.586847 -0.809698 -0
    outer loop
      vertex 129.572 2.50417 9
      vertex 129.241 2.74407 0
      vertex 129.572 2.50417 0
    endloop
  endfacet
  facet normal 0.951143 -0.308751 0
    outer loop
      vertex 124.352 0.808242 9
      vertex 124.478 1.1964 0
      vertex 124.478 1.1964 9
    endloop
  endfacet
  facet normal 0.951143 -0.308751 0
    outer loop
      vertex 124.478 1.1964 0
      vertex 124.352 0.808242 9
      vertex 124.352 0.808242 0
    endloop
  endfacet
  facet normal 0.904619 -0.426222 0
    outer loop
      vertex 124.478 1.1964 9
      vertex 124.652 1.5657 0
      vertex 124.652 1.5657 9
    endloop
  endfacet
  facet normal 0.904619 -0.426222 0
    outer loop
      vertex 124.652 1.5657 0
      vertex 124.478 1.1964 9
      vertex 124.478 1.1964 0
    endloop
  endfacet
  facet normal 0.997969 -0.0637004 0
    outer loop
      vertex 124.25 0 9
      vertex 124.276 0.407332 0
      vertex 124.276 0.407332 9
    endloop
  endfacet
  facet normal 0.997969 -0.0637004 0
    outer loop
      vertex 124.276 0.407332 0
      vertex 124.25 0 9
      vertex 124.25 0 0
    endloop
  endfacet
  facet normal 0.586847 -0.809698 0
    outer loop
      vertex 125.428 2.50417 0
      vertex 125.759 2.74407 9
      vertex 125.428 2.50417 9
    endloop
  endfacet
  facet normal 0.586847 -0.809698 0
    outer loop
      vertex 125.759 2.74407 9
      vertex 125.428 2.50417 0
      vertex 125.759 2.74407 0
    endloop
  endfacet
  facet normal -0.367675 0.929954 0
    outer loop
      vertex 128.884 -2.94069 0
      vertex 128.504 -3.09093 9
      vertex 128.884 -2.94069 9
    endloop
  endfacet
  facet normal -0.367675 0.929954 0
    outer loop
      vertex 128.504 -3.09093 9
      vertex 128.884 -2.94069 0
      vertex 128.504 -3.09093 0
    endloop
  endfacet
  facet normal -0.770706 0.63719 0
    outer loop
      vertex 129.869 -2.22478 0
      vertex 130.129 -1.9103 9
      vertex 130.129 -1.9103 0
    endloop
  endfacet
  facet normal -0.770706 0.63719 0
    outer loop
      vertex 130.129 -1.9103 9
      vertex 129.869 -2.22478 0
      vertex 129.869 -2.22478 9
    endloop
  endfacet
  facet normal -0.586847 0.809698 0
    outer loop
      vertex 129.572 -2.50417 0
      vertex 129.241 -2.74407 9
      vertex 129.572 -2.50417 9
    endloop
  endfacet
  facet normal -0.586847 0.809698 0
    outer loop
      vertex 129.241 -2.74407 9
      vertex 129.572 -2.50417 0
      vertex 129.241 -2.74407 0
    endloop
  endfacet
  facet normal -0.843984 0.536368 0
    outer loop
      vertex 130.129 -1.9103 0
      vertex 130.348 -1.5657 9
      vertex 130.348 -1.5657 0
    endloop
  endfacet
  facet normal -0.843984 0.536368 0
    outer loop
      vertex 130.348 -1.5657 9
      vertex 130.129 -1.9103 0
      vertex 130.129 -1.9103 9
    endloop
  endfacet
  facet normal 0.586847 0.809698 -0
    outer loop
      vertex 125.759 -2.74407 0
      vertex 125.428 -2.50417 9
      vertex 125.759 -2.74407 9
    endloop
  endfacet
  facet normal 0.586847 0.809698 0
    outer loop
      vertex 125.428 -2.50417 9
      vertex 125.759 -2.74407 0
      vertex 125.428 -2.50417 0
    endloop
  endfacet
  facet normal 0.248877 0.968535 -0
    outer loop
      vertex 126.891 -3.19243 0
      vertex 126.496 -3.09093 9
      vertex 126.891 -3.19243 9
    endloop
  endfacet
  facet normal 0.248877 0.968535 0
    outer loop
      vertex 126.496 -3.09093 9
      vertex 126.891 -3.19243 0
      vertex 126.496 -3.09093 0
    endloop
  endfacet
  facet normal 0.843984 0.536368 0
    outer loop
      vertex 124.871 -1.9103 9
      vertex 124.652 -1.5657 0
      vertex 124.652 -1.5657 9
    endloop
  endfacet
  facet normal 0.843984 0.536368 0
    outer loop
      vertex 124.652 -1.5657 0
      vertex 124.871 -1.9103 9
      vertex 124.871 -1.9103 0
    endloop
  endfacet
  facet normal 0.997969 0.0637004 0
    outer loop
      vertex 124.276 -0.407332 9
      vertex 124.25 0 0
      vertex 124.25 0 9
    endloop
  endfacet
  facet normal 0.997969 0.0637004 0
    outer loop
      vertex 124.25 0 0
      vertex 124.276 -0.407332 9
      vertex 124.276 -0.407332 0
    endloop
  endfacet
  facet normal 0.125325 -0.992116 0
    outer loop
      vertex 126.891 3.19243 0
      vertex 127.296 3.24359 9
      vertex 126.891 3.19243 9
    endloop
  endfacet
  facet normal 0.125325 -0.992116 0
    outer loop
      vertex 127.296 3.24359 9
      vertex 126.891 3.19243 0
      vertex 127.296 3.24359 0
    endloop
  endfacet
  facet normal 0.367675 -0.929954 0
    outer loop
      vertex 126.116 2.94069 0
      vertex 126.496 3.09093 9
      vertex 126.116 2.94069 9
    endloop
  endfacet
  facet normal 0.367675 -0.929954 0
    outer loop
      vertex 126.496 3.09093 9
      vertex 126.116 2.94069 0
      vertex 126.496 3.09093 0
    endloop
  endfacet
  facet normal 0.248877 -0.968535 0
    outer loop
      vertex 126.496 3.09093 0
      vertex 126.891 3.19243 9
      vertex 126.496 3.09093 9
    endloop
  endfacet
  facet normal 0.248877 -0.968535 0
    outer loop
      vertex 126.891 3.19243 9
      vertex 126.496 3.09093 0
      vertex 126.891 3.19243 0
    endloop
  endfacet
  facet normal -0.125325 0.992116 0
    outer loop
      vertex 128.109 -3.19243 0
      vertex 127.704 -3.24359 9
      vertex 128.109 -3.19243 9
    endloop
  endfacet
  facet normal -0.125325 0.992116 0
    outer loop
      vertex 127.704 -3.24359 9
      vertex 128.109 -3.19243 0
      vertex 127.704 -3.24359 0
    endloop
  endfacet
  facet normal -0.248877 0.968535 0
    outer loop
      vertex 128.504 -3.09093 0
      vertex 128.109 -3.19243 9
      vertex 128.504 -3.09093 9
    endloop
  endfacet
  facet normal -0.248877 0.968535 0
    outer loop
      vertex 128.109 -3.19243 9
      vertex 128.504 -3.09093 0
      vertex 128.109 -3.19243 0
    endloop
  endfacet
  facet normal -0.685183 0.728371 0
    outer loop
      vertex 129.869 -2.22478 0
      vertex 129.572 -2.50417 9
      vertex 129.869 -2.22478 9
    endloop
  endfacet
  facet normal -0.685183 0.728371 0
    outer loop
      vertex 129.572 -2.50417 9
      vertex 129.869 -2.22478 0
      vertex 129.572 -2.50417 0
    endloop
  endfacet
  facet normal -0.951143 0.308751 0
    outer loop
      vertex 130.522 -1.1964 0
      vertex 130.648 -0.808242 9
      vertex 130.648 -0.808242 0
    endloop
  endfacet
  facet normal -0.951143 0.308751 0
    outer loop
      vertex 130.648 -0.808242 9
      vertex 130.522 -1.1964 0
      vertex 130.522 -1.1964 9
    endloop
  endfacet
  facet normal -0.997969 0.0637004 0
    outer loop
      vertex 130.724 -0.407332 0
      vertex 130.75 0 9
      vertex 130.75 0 0
    endloop
  endfacet
  facet normal -0.997969 0.0637004 0
    outer loop
      vertex 130.75 0 9
      vertex 130.724 -0.407332 0
      vertex 130.724 -0.407332 9
    endloop
  endfacet
  facet normal 0.125325 0.992116 -0
    outer loop
      vertex 127.296 -3.24359 0
      vertex 126.891 -3.19243 9
      vertex 127.296 -3.24359 9
    endloop
  endfacet
  facet normal 0.125325 0.992116 0
    outer loop
      vertex 126.891 -3.19243 9
      vertex 127.296 -3.24359 0
      vertex 126.891 -3.19243 0
    endloop
  endfacet
  facet normal 0.482427 0.875936 -0
    outer loop
      vertex 126.116 -2.94069 0
      vertex 125.759 -2.74407 9
      vertex 126.116 -2.94069 9
    endloop
  endfacet
  facet normal 0.482427 0.875936 0
    outer loop
      vertex 125.759 -2.74407 9
      vertex 126.116 -2.94069 0
      vertex 125.759 -2.74407 0
    endloop
  endfacet
  facet normal 0 1 -0
    outer loop
      vertex 127.704 -3.24359 0
      vertex 127.296 -3.24359 9
      vertex 127.704 -3.24359 9
    endloop
  endfacet
  facet normal 0 1 0
    outer loop
      vertex 127.296 -3.24359 9
      vertex 127.704 -3.24359 0
      vertex 127.296 -3.24359 0
    endloop
  endfacet
  facet normal 0.685183 0.728371 -0
    outer loop
      vertex 125.428 -2.50417 0
      vertex 125.131 -2.22478 9
      vertex 125.428 -2.50417 9
    endloop
  endfacet
  facet normal 0.685183 0.728371 0
    outer loop
      vertex 125.131 -2.22478 9
      vertex 125.428 -2.50417 0
      vertex 125.131 -2.22478 0
    endloop
  endfacet
  facet normal 0.904619 0.426222 0
    outer loop
      vertex 124.652 -1.5657 9
      vertex 124.478 -1.1964 0
      vertex 124.478 -1.1964 9
    endloop
  endfacet
  facet normal 0.904619 0.426222 0
    outer loop
      vertex 124.478 -1.1964 0
      vertex 124.652 -1.5657 9
      vertex 124.652 -1.5657 0
    endloop
  endfacet
  facet normal 0.982502 0.186252 0
    outer loop
      vertex 124.352 -0.808242 9
      vertex 124.276 -0.407332 0
      vertex 124.276 -0.407332 9
    endloop
  endfacet
  facet normal 0.982502 0.186252 0
    outer loop
      vertex 124.276 -0.407332 0
      vertex 124.352 -0.808242 9
      vertex 124.352 -0.808242 0
    endloop
  endfacet
  facet normal -0.982502 -0.186252 0
    outer loop
      vertex 130.724 0.407332 0
      vertex 130.648 0.808242 9
      vertex 130.648 0.808242 0
    endloop
  endfacet
  facet normal -0.982502 -0.186252 0
    outer loop
      vertex 130.648 0.808242 9
      vertex 130.724 0.407332 0
      vertex 130.724 0.407332 9
    endloop
  endfacet
  facet normal -0.770706 -0.63719 0
    outer loop
      vertex 130.129 1.9103 0
      vertex 129.869 2.22478 9
      vertex 129.869 2.22478 0
    endloop
  endfacet
  facet normal -0.770706 -0.63719 0
    outer loop
      vertex 129.869 2.22478 9
      vertex 130.129 1.9103 0
      vertex 130.129 1.9103 9
    endloop
  endfacet
  facet normal -0.125325 -0.992116 0
    outer loop
      vertex 127.704 3.24359 0
      vertex 128.109 3.19243 9
      vertex 127.704 3.24359 9
    endloop
  endfacet
  facet normal -0.125325 -0.992116 -0
    outer loop
      vertex 128.109 3.19243 9
      vertex 127.704 3.24359 0
      vertex 128.109 3.19243 0
    endloop
  endfacet
  facet normal -0.482427 -0.875936 0
    outer loop
      vertex 128.884 2.94069 0
      vertex 129.241 2.74407 9
      vertex 128.884 2.94069 9
    endloop
  endfacet
  facet normal -0.482427 -0.875936 -0
    outer loop
      vertex 129.241 2.74407 9
      vertex 128.884 2.94069 0
      vertex 129.241 2.74407 0
    endloop
  endfacet
  facet normal 0.843984 -0.536368 0
    outer loop
      vertex 124.652 1.5657 9
      vertex 124.871 1.9103 0
      vertex 124.871 1.9103 9
    endloop
  endfacet
  facet normal 0.843984 -0.536368 0
    outer loop
      vertex 124.871 1.9103 0
      vertex 124.652 1.5657 9
      vertex 124.652 1.5657 0
    endloop
  endfacet
  facet normal 0.982502 -0.186252 0
    outer loop
      vertex 124.276 0.407332 9
      vertex 124.352 0.808242 0
      vertex 124.352 0.808242 9
    endloop
  endfacet
  facet normal 0.982502 -0.186252 0
    outer loop
      vertex 124.352 0.808242 0
      vertex 124.276 0.407332 9
      vertex 124.276 0.407332 0
    endloop
  endfacet
  facet normal 0.685183 -0.728371 0
    outer loop
      vertex 125.131 2.22478 0
      vertex 125.428 2.50417 9
      vertex 125.131 2.22478 9
    endloop
  endfacet
  facet normal 0.685183 -0.728371 0
    outer loop
      vertex 125.428 2.50417 9
      vertex 125.131 2.22478 0
      vertex 125.428 2.50417 0
    endloop
  endfacet
  facet normal -0.482427 0.875936 0
    outer loop
      vertex 129.241 -2.74407 0
      vertex 128.884 -2.94069 9
      vertex 129.241 -2.74407 9
    endloop
  endfacet
  facet normal -0.482427 0.875936 0
    outer loop
      vertex 128.884 -2.94069 9
      vertex 129.241 -2.74407 0
      vertex 128.884 -2.94069 0
    endloop
  endfacet
  facet normal -0.982502 0.186252 0
    outer loop
      vertex 130.648 -0.808242 0
      vertex 130.724 -0.407332 9
      vertex 130.724 -0.407332 0
    endloop
  endfacet
  facet normal -0.982502 0.186252 0
    outer loop
      vertex 130.724 -0.407332 9
      vertex 130.648 -0.808242 0
      vertex 130.648 -0.808242 9
    endloop
  endfacet
  facet normal -0.904619 0.426222 0
    outer loop
      vertex 130.348 -1.5657 0
      vertex 130.522 -1.1964 9
      vertex 130.522 -1.1964 0
    endloop
  endfacet
  facet normal -0.904619 0.426222 0
    outer loop
      vertex 130.522 -1.1964 9
      vertex 130.348 -1.5657 0
      vertex 130.348 -1.5657 9
    endloop
  endfacet
  facet normal 0.367675 0.929954 -0
    outer loop
      vertex 126.496 -3.09093 0
      vertex 126.116 -2.94069 9
      vertex 126.496 -3.09093 9
    endloop
  endfacet
  facet normal 0.367675 0.929954 0
    outer loop
      vertex 126.116 -2.94069 9
      vertex 126.496 -3.09093 0
      vertex 126.116 -2.94069 0
    endloop
  endfacet
  facet normal 0.951143 0.308751 0
    outer loop
      vertex 124.478 -1.1964 9
      vertex 124.352 -0.808242 0
      vertex 124.352 -0.808242 9
    endloop
  endfacet
  facet normal 0.951143 0.308751 0
    outer loop
      vertex 124.352 -0.808242 0
      vertex 124.478 -1.1964 9
      vertex 124.478 -1.1964 0
    endloop
  endfacet
  facet normal -1 0 0
    outer loop
      vertex -134.5 -2 0
      vertex -134.5 2 9
      vertex -134.5 2 0
    endloop
  endfacet
  facet normal -1 -0 0
    outer loop
      vertex -134.5 2 9
      vertex -134.5 -2 0
      vertex -134.5 -2 9
    endloop
  endfacet
  facet normal -0.998069 -0.0621135 0
    outer loop
      vertex -134.461 -2.62667 0
      vertex -134.5 -2 9
      vertex -134.5 -2 0
    endloop
  endfacet
  facet normal -0.998069 -0.0621135 0
    outer loop
      vertex -134.5 -2 9
      vertex -134.461 -2.62667 0
      vertex -134.461 -2.62667 9
    endloop
  endfacet
  facet normal -0.125313 -0.992117 0
    outer loop
      vertex -130.437 -6.91144 0
      vertex -129.814 -6.99013 9
      vertex -130.437 -6.91144 9
    endloop
  endfacet
  facet normal -0.125313 -0.992117 -0
    outer loop
      vertex -129.814 -6.99013 9
      vertex -130.437 -6.91144 0
      vertex -129.814 -6.99013 0
    endloop
  endfacet
  facet normal 0 1 -0
    outer loop
      vertex 129.814 6.99013 0
      vertex -129.814 6.99013 9
      vertex 129.814 6.99013 9
    endloop
  endfacet
  facet normal 0 1 0
    outer loop
      vertex -129.814 6.99013 9
      vertex 129.814 6.99013 0
      vertex -129.814 6.99013 0
    endloop
  endfacet
  facet normal 0 -1 0
    outer loop
      vertex -129.814 -6.99013 0
      vertex 129.814 -6.99013 9
      vertex -129.814 -6.99013 9
    endloop
  endfacet
  facet normal 0 -1 -0
    outer loop
      vertex 129.814 -6.99013 9
      vertex -129.814 -6.99013 0
      vertex 129.814 -6.99013 0
    endloop
  endfacet
  facet normal 0.481907 -0.876223 0
    outer loop
      vertex 131.629 -6.52413 0
      vertex 132.179 -6.22164 9
      vertex 131.629 -6.52413 9
    endloop
  endfacet
  facet normal 0.481907 -0.876223 0
    outer loop
      vertex 132.179 -6.22164 9
      vertex 131.629 -6.52413 0
      vertex 132.179 -6.22164 0
    endloop
  endfacet
  facet normal -0.998069 0.0621135 0
    outer loop
      vertex -134.5 2 0
      vertex -134.461 2.62667 9
      vertex -134.461 2.62667 0
    endloop
  endfacet
  facet normal -0.998069 0.0621135 0
    outer loop
      vertex -134.461 2.62667 9
      vertex -134.5 2 0
      vertex -134.5 2 9
    endloop
  endfacet
  facet normal 0.905042 -0.425321 0
    outer loop
      vertex 133.882 -4.40877 9
      vertex 134.149 -3.84062 0
      vertex 134.149 -3.84062 9
    endloop
  endfacet
  facet normal 0.905042 -0.425321 0
    outer loop
      vertex 134.149 -3.84062 0
      vertex 133.882 -4.40877 9
      vertex 133.882 -4.40877 0
    endloop
  endfacet
  facet normal -0.368026 -0.929816 0
    outer loop
      vertex -131.629 -6.52413 0
      vertex -131.045 -6.75528 9
      vertex -131.629 -6.52413 9
    endloop
  endfacet
  facet normal -0.368026 -0.929816 -0
    outer loop
      vertex -131.045 -6.75528 9
      vertex -131.629 -6.52413 0
      vertex -131.045 -6.75528 0
    endloop
  endfacet
  facet normal -0.684327 -0.729176 0
    outer loop
      vertex -133.145 -5.42274 0
      vertex -132.687 -5.85257 9
      vertex -133.145 -5.42274 9
    endloop
  endfacet
  facet normal -0.684327 -0.729176 -0
    outer loop
      vertex -132.687 -5.85257 9
      vertex -133.145 -5.42274 0
      vertex -132.687 -5.85257 0
    endloop
  endfacet
  facet normal 1 -0 0
    outer loop
      vertex 134.5 -2 9
      vertex 134.5 2 0
      vertex 134.5 2 9
    endloop
  endfacet
  facet normal 1 0 0
    outer loop
      vertex 134.5 2 0
      vertex 134.5 -2 9
      vertex 134.5 -2 0
    endloop
  endfacet
  facet normal 0.951072 -0.30897 0
    outer loop
      vertex 134.149 -3.84062 9
      vertex 134.343 -3.24345 0
      vertex 134.343 -3.24345 9
    endloop
  endfacet
  facet normal 0.951072 -0.30897 0
    outer loop
      vertex 134.343 -3.24345 0
      vertex 134.149 -3.84062 9
      vertex 134.149 -3.84062 0
    endloop
  endfacet
  facet normal 0.905042 0.425321 0
    outer loop
      vertex 134.149 3.84062 9
      vertex 133.882 4.40877 0
      vertex 133.882 4.40877 9
    endloop
  endfacet
  facet normal 0.905042 0.425321 0
    outer loop
      vertex 133.882 4.40877 0
      vertex 134.149 3.84062 9
      vertex 134.149 3.84062 0
    endloop
  endfacet
  facet normal 0.951072 0.30897 0
    outer loop
      vertex 134.343 3.24345 9
      vertex 134.149 3.84062 0
      vertex 134.149 3.84062 9
    endloop
  endfacet
  facet normal 0.951072 0.30897 0
    outer loop
      vertex 134.149 3.84062 0
      vertex 134.343 3.24345 9
      vertex 134.343 3.24345 0
    endloop
  endfacet
  facet normal 0.684327 0.729176 -0
    outer loop
      vertex 133.145 5.42274 0
      vertex 132.687 5.85257 9
      vertex 133.145 5.42274 9
    endloop
  endfacet
  facet normal 0.684327 0.729176 0
    outer loop
      vertex 132.687 5.85257 9
      vertex 133.145 5.42274 0
      vertex 132.687 5.85257 0
    endloop
  endfacet
  facet normal 0.368026 0.929816 -0
    outer loop
      vertex 131.629 6.52413 0
      vertex 131.045 6.75528 9
      vertex 131.629 6.52413 9
    endloop
  endfacet
  facet normal 0.368026 0.929816 0
    outer loop
      vertex 131.045 6.75528 9
      vertex 131.629 6.52413 0
      vertex 131.045 6.75528 0
    endloop
  endfacet
  facet normal 0.248768 0.968563 -0
    outer loop
      vertex 131.045 6.75528 0
      vertex 130.437 6.91144 9
      vertex 131.045 6.75528 9
    endloop
  endfacet
  facet normal 0.248768 0.968563 0
    outer loop
      vertex 130.437 6.91144 9
      vertex 131.045 6.75528 0
      vertex 130.437 6.91144 0
    endloop
  endfacet
  facet normal 0.125313 0.992117 -0
    outer loop
      vertex 130.437 6.91144 0
      vertex 129.814 6.99013 9
      vertex 130.437 6.91144 9
    endloop
  endfacet
  facet normal 0.125313 0.992117 0
    outer loop
      vertex 129.814 6.99013 9
      vertex 130.437 6.91144 0
      vertex 129.814 6.99013 0
    endloop
  endfacet
  facet normal -0.587771 0.809027 0
    outer loop
      vertex -132.179 6.22164 0
      vertex -132.687 5.85257 9
      vertex -132.179 6.22164 9
    endloop
  endfacet
  facet normal -0.587771 0.809027 0
    outer loop
      vertex -132.687 5.85257 9
      vertex -132.179 6.22164 0
      vertex -132.687 5.85257 0
    endloop
  endfacet
  facet normal -0.248768 0.968563 0
    outer loop
      vertex -130.437 6.91144 0
      vertex -131.045 6.75528 9
      vertex -130.437 6.91144 9
    endloop
  endfacet
  facet normal -0.248768 0.968563 0
    outer loop
      vertex -131.045 6.75528 9
      vertex -130.437 6.91144 0
      vertex -131.045 6.75528 0
    endloop
  endfacet
  facet normal -0.770703 0.637195 0
    outer loop
      vertex -133.545 4.93893 0
      vertex -133.145 5.42274 9
      vertex -133.145 5.42274 0
    endloop
  endfacet
  facet normal -0.770703 0.637195 0
    outer loop
      vertex -133.145 5.42274 9
      vertex -133.545 4.93893 0
      vertex -133.545 4.93893 9
    endloop
  endfacet
  facet normal -0.951072 -0.30897 0
    outer loop
      vertex -134.149 -3.84062 0
      vertex -134.343 -3.24345 9
      vertex -134.343 -3.24345 0
    endloop
  endfacet
  facet normal -0.951072 -0.30897 0
    outer loop
      vertex -134.343 -3.24345 9
      vertex -134.149 -3.84062 0
      vertex -134.149 -3.84062 9
    endloop
  endfacet
  facet normal -0.770703 -0.637195 0
    outer loop
      vertex -133.145 -5.42274 0
      vertex -133.545 -4.93893 9
      vertex -133.545 -4.93893 0
    endloop
  endfacet
  facet normal -0.770703 -0.637195 0
    outer loop
      vertex -133.545 -4.93893 9
      vertex -133.145 -5.42274 0
      vertex -133.145 -5.42274 9
    endloop
  endfacet
  facet normal -0.905042 -0.425321 0
    outer loop
      vertex -133.882 -4.40877 0
      vertex -134.149 -3.84062 9
      vertex -134.149 -3.84062 0
    endloop
  endfacet
  facet normal -0.905042 -0.425321 0
    outer loop
      vertex -134.149 -3.84062 9
      vertex -133.882 -4.40877 0
      vertex -133.882 -4.40877 9
    endloop
  endfacet
  facet normal -0.248768 -0.968563 0
    outer loop
      vertex -131.045 -6.75528 0
      vertex -130.437 -6.91144 9
      vertex -131.045 -6.75528 9
    endloop
  endfacet
  facet normal -0.248768 -0.968563 -0
    outer loop
      vertex -130.437 -6.91144 9
      vertex -131.045 -6.75528 0
      vertex -130.437 -6.91144 0
    endloop
  endfacet
  facet normal -0.587771 -0.809027 0
    outer loop
      vertex -132.687 -5.85257 0
      vertex -132.179 -6.22164 9
      vertex -132.687 -5.85257 9
    endloop
  endfacet
  facet normal -0.587771 -0.809027 -0
    outer loop
      vertex -132.179 -6.22164 9
      vertex -132.687 -5.85257 0
      vertex -132.179 -6.22164 0
    endloop
  endfacet
  facet normal 0.998069 -0.0621135 0
    outer loop
      vertex 134.461 -2.62667 9
      vertex 134.5 -2 0
      vertex 134.5 -2 9
    endloop
  endfacet
  facet normal 0.998069 -0.0621135 0
    outer loop
      vertex 134.5 -2 0
      vertex 134.461 -2.62667 9
      vertex 134.461 -2.62667 0
    endloop
  endfacet
  facet normal 0.843931 -0.536451 0
    outer loop
      vertex 133.545 -4.93893 9
      vertex 133.882 -4.40877 0
      vertex 133.882 -4.40877 9
    endloop
  endfacet
  facet normal 0.843931 -0.536451 0
    outer loop
      vertex 133.882 -4.40877 0
      vertex 133.545 -4.93893 9
      vertex 133.545 -4.93893 0
    endloop
  endfacet
  facet normal 0.587771 -0.809027 0
    outer loop
      vertex 132.179 -6.22164 0
      vertex 132.687 -5.85257 9
      vertex 132.179 -6.22164 9
    endloop
  endfacet
  facet normal 0.587771 -0.809027 0
    outer loop
      vertex 132.687 -5.85257 9
      vertex 132.179 -6.22164 0
      vertex 132.687 -5.85257 0
    endloop
  endfacet
  facet normal 0.770703 -0.637195 0
    outer loop
      vertex 133.145 -5.42274 9
      vertex 133.545 -4.93893 0
      vertex 133.545 -4.93893 9
    endloop
  endfacet
  facet normal 0.770703 -0.637195 0
    outer loop
      vertex 133.545 -4.93893 0
      vertex 133.145 -5.42274 9
      vertex 133.145 -5.42274 0
    endloop
  endfacet
  facet normal 0.368026 -0.929816 0
    outer loop
      vertex 131.045 -6.75528 0
      vertex 131.629 -6.52413 9
      vertex 131.045 -6.75528 9
    endloop
  endfacet
  facet normal 0.368026 -0.929816 0
    outer loop
      vertex 131.629 -6.52413 9
      vertex 131.045 -6.75528 0
      vertex 131.629 -6.52413 0
    endloop
  endfacet
  facet normal 0.125313 -0.992117 0
    outer loop
      vertex 129.814 -6.99013 0
      vertex 130.437 -6.91144 9
      vertex 129.814 -6.99013 9
    endloop
  endfacet
  facet normal 0.125313 -0.992117 0
    outer loop
      vertex 130.437 -6.91144 9
      vertex 129.814 -6.99013 0
      vertex 130.437 -6.91144 0
    endloop
  endfacet
  facet normal 0.770703 0.637195 0
    outer loop
      vertex 133.545 4.93893 9
      vertex 133.145 5.42274 0
      vertex 133.145 5.42274 9
    endloop
  endfacet
  facet normal 0.770703 0.637195 0
    outer loop
      vertex 133.145 5.42274 0
      vertex 133.545 4.93893 9
      vertex 133.545 4.93893 0
    endloop
  endfacet
  facet normal 0.843931 0.536451 0
    outer loop
      vertex 133.882 4.40877 9
      vertex 133.545 4.93893 0
      vertex 133.545 4.93893 9
    endloop
  endfacet
  facet normal 0.843931 0.536451 0
    outer loop
      vertex 133.545 4.93893 0
      vertex 133.882 4.40877 9
      vertex 133.882 4.40877 0
    endloop
  endfacet
  facet normal 0.587771 0.809027 -0
    outer loop
      vertex 132.687 5.85257 0
      vertex 132.179 6.22164 9
      vertex 132.687 5.85257 9
    endloop
  endfacet
  facet normal 0.587771 0.809027 0
    outer loop
      vertex 132.179 6.22164 9
      vertex 132.687 5.85257 0
      vertex 132.179 6.22164 0
    endloop
  endfacet
  facet normal 0.481907 0.876223 -0
    outer loop
      vertex 132.179 6.22164 0
      vertex 131.629 6.52413 9
      vertex 132.179 6.22164 9
    endloop
  endfacet
  facet normal 0.481907 0.876223 0
    outer loop
      vertex 131.629 6.52413 9
      vertex 132.179 6.22164 0
      vertex 131.629 6.52413 0
    endloop
  endfacet
  facet normal -0.125313 0.992117 0
    outer loop
      vertex -129.814 6.99013 0
      vertex -130.437 6.91144 9
      vertex -129.814 6.99013 9
    endloop
  endfacet
  facet normal -0.125313 0.992117 0
    outer loop
      vertex -130.437 6.91144 9
      vertex -129.814 6.99013 0
      vertex -130.437 6.91144 0
    endloop
  endfacet
  facet normal -0.368026 0.929816 0
    outer loop
      vertex -131.045 6.75528 0
      vertex -131.629 6.52413 9
      vertex -131.045 6.75528 9
    endloop
  endfacet
  facet normal -0.368026 0.929816 0
    outer loop
      vertex -131.629 6.52413 9
      vertex -131.045 6.75528 0
      vertex -131.629 6.52413 0
    endloop
  endfacet
  facet normal -0.951072 0.30897 0
    outer loop
      vertex -134.343 3.24345 0
      vertex -134.149 3.84062 9
      vertex -134.149 3.84062 0
    endloop
  endfacet
  facet normal -0.951072 0.30897 0
    outer loop
      vertex -134.149 3.84062 9
      vertex -134.343 3.24345 0
      vertex -134.343 3.24345 9
    endloop
  endfacet
  facet normal -0.982187 -0.187908 0
    outer loop
      vertex -134.343 -3.24345 0
      vertex -134.461 -2.62667 9
      vertex -134.461 -2.62667 0
    endloop
  endfacet
  facet normal -0.982187 -0.187908 0
    outer loop
      vertex -134.461 -2.62667 9
      vertex -134.343 -3.24345 0
      vertex -134.343 -3.24345 9
    endloop
  endfacet
  facet normal -0.843931 -0.536451 0
    outer loop
      vertex -133.545 -4.93893 0
      vertex -133.882 -4.40877 9
      vertex -133.882 -4.40877 0
    endloop
  endfacet
  facet normal -0.843931 -0.536451 0
    outer loop
      vertex -133.882 -4.40877 9
      vertex -133.545 -4.93893 0
      vertex -133.545 -4.93893 9
    endloop
  endfacet
  facet normal -0.481907 -0.876223 0
    outer loop
      vertex -132.179 -6.22164 0
      vertex -131.629 -6.52413 9
      vertex -132.179 -6.22164 9
    endloop
  endfacet
  facet normal -0.481907 -0.876223 -0
    outer loop
      vertex -131.629 -6.52413 9
      vertex -132.179 -6.22164 0
      vertex -131.629 -6.52413 0
    endloop
  endfacet
  facet normal 0.982187 -0.187908 0
    outer loop
      vertex 134.343 -3.24345 9
      vertex 134.461 -2.62667 0
      vertex 134.461 -2.62667 9
    endloop
  endfacet
  facet normal 0.982187 -0.187908 0
    outer loop
      vertex 134.461 -2.62667 0
      vertex 134.343 -3.24345 9
      vertex 134.343 -3.24345 0
    endloop
  endfacet
  facet normal 0.684327 -0.729176 0
    outer loop
      vertex 132.687 -5.85257 0
      vertex 133.145 -5.42274 9
      vertex 132.687 -5.85257 9
    endloop
  endfacet
  facet normal 0.684327 -0.729176 0
    outer loop
      vertex 133.145 -5.42274 9
      vertex 132.687 -5.85257 0
      vertex 133.145 -5.42274 0
    endloop
  endfacet
  facet normal 0.248768 -0.968563 0
    outer loop
      vertex 130.437 -6.91144 0
      vertex 131.045 -6.75528 9
      vertex 130.437 -6.91144 9
    endloop
  endfacet
  facet normal 0.248768 -0.968563 0
    outer loop
      vertex 131.045 -6.75528 9
      vertex 130.437 -6.91144 0
      vertex 131.045 -6.75528 0
    endloop
  endfacet
  facet normal -0.684327 0.729176 0
    outer loop
      vertex -132.687 5.85257 0
      vertex -133.145 5.42274 9
      vertex -132.687 5.85257 9
    endloop
  endfacet
  facet normal -0.684327 0.729176 0
    outer loop
      vertex -133.145 5.42274 9
      vertex -132.687 5.85257 0
      vertex -133.145 5.42274 0
    endloop
  endfacet
  facet normal -0.843931 0.536451 0
    outer loop
      vertex -133.882 4.40877 0
      vertex -133.545 4.93893 9
      vertex -133.545 4.93893 0
    endloop
  endfacet
  facet normal -0.843931 0.536451 0
    outer loop
      vertex -133.545 4.93893 9
      vertex -133.882 4.40877 0
      vertex -133.882 4.40877 9
    endloop
  endfacet
  facet normal -0.982187 0.187908 0
    outer loop
      vertex -134.461 2.62667 0
      vertex -134.343 3.24345 9
      vertex -134.343 3.24345 0
    endloop
  endfacet
  facet normal -0.982187 0.187908 0
    outer loop
      vertex -134.343 3.24345 9
      vertex -134.461 2.62667 0
      vertex -134.461 2.62667 9
    endloop
  endfacet
  facet normal 0.982187 0.187908 0
    outer loop
      vertex 134.461 2.62667 9
      vertex 134.343 3.24345 0
      vertex 134.343 3.24345 9
    endloop
  endfacet
  facet normal 0.982187 0.187908 0
    outer loop
      vertex 134.343 3.24345 0
      vertex 134.461 2.62667 9
      vertex 134.461 2.62667 0
    endloop
  endfacet
  facet normal 0.998069 0.0621135 0
    outer loop
      vertex 134.5 2 9
      vertex 134.461 2.62667 0
      vertex 134.461 2.62667 9
    endloop
  endfacet
  facet normal 0.998069 0.0621135 0
    outer loop
      vertex 134.461 2.62667 0
      vertex 134.5 2 9
      vertex 134.5 2 0
    endloop
  endfacet
  facet normal -0.481907 0.876223 0
    outer loop
      vertex -131.629 6.52413 0
      vertex -132.179 6.22164 9
      vertex -131.629 6.52413 9
    endloop
  endfacet
  facet normal -0.481907 0.876223 0
    outer loop
      vertex -132.179 6.22164 9
      vertex -131.629 6.52413 0
      vertex -132.179 6.22164 0
    endloop
  endfacet
  facet normal -0.905042 0.425321 0
    outer loop
      vertex -134.149 3.84062 0
      vertex -133.882 4.40877 9
      vertex -133.882 4.40877 0
    endloop
  endfacet
  facet normal -0.905042 0.425321 0
    outer loop
      vertex -133.882 4.40877 9
      vertex -134.149 3.84062 0
      vertex -134.149 3.84062 9
    endloop
  endfacet
endsolid OpenSCAD_Model
