  0
SECTION
  2
BLOCKS
  0
ENDSEC
  0
SECTION
  2
ENTITIES
  0
LINE
  8
0
 10
47.9369
 20
-6.91142
 11
48.5451
 21
-6.75528
  0
LINE
  8
0
 10
48.5451
 20
-6.75528
 11
49.1289
 21
-6.52412
  0
LINE
  8
0
 10
49.1289
 20
-6.52412
 11
49.6791
 21
-6.22163
  0
LINE
  8
0
 10
49.6791
 20
-6.22163
 11
50.1871
 21
-5.85255
  0
LINE
  8
0
 10
50.1871
 20
-5.85255
 11
50.6448
 21
-5.42273
  0
LINE
  8
0
 10
50.6448
 20
-5.42273
 11
51.0451
 21
-4.93892
  0
LINE
  8
0
 10
51.0451
 20
-4.93892
 11
51.3815
 21
-4.40877
  0
LINE
  8
0
 10
51.3815
 20
-4.40877
 11
51.6489
 21
-3.84062
  0
LINE
  8
0
 10
51.6489
 20
-3.84062
 11
51.8429
 21
-3.24344
  0
LINE
  8
0
 10
51.8429
 20
-3.24344
 11
51.9606
 21
-2.62666
  0
LINE
  8
0
 10
51.9606
 20
-2.62666
 11
52
 21
-2
  0
LINE
  8
0
 10
52
 20
-2
 11
52
 21
2
  0
LINE
  8
0
 10
52
 20
2
 11
51.9606
 21
2.62666
  0
LINE
  8
0
 10
51.9606
 20
2.62666
 11
51.8429
 21
3.24344
  0
LINE
  8
0
 10
51.8429
 20
3.24344
 11
51.6489
 21
3.84062
  0
LINE
  8
0
 10
51.6489
 20
3.84062
 11
51.3815
 21
4.40877
  0
LINE
  8
0
 10
51.3815
 20
4.40877
 11
51.0451
 21
4.93892
  0
LINE
  8
0
 10
51.0451
 20
4.93892
 11
50.6448
 21
5.42273
  0
LINE
  8
0
 10
50.6448
 20
5.42273
 11
50.1871
 21
5.85255
  0
LINE
  8
0
 10
50.1871
 20
5.85255
 11
49.6791
 21
6.22163
  0
LINE
  8
0
 10
49.6791
 20
6.22163
 11
49.1289
 21
6.52412
  0
LINE
  8
0
 10
49.1289
 20
6.52412
 11
48.5451
 21
6.75528
  0
LINE
  8
0
 10
48.5451
 20
6.75528
 11
47.9369
 21
6.91142
  0
LINE
  8
0
 10
47.9369
 20
6.91142
 11
47.3139
 21
6.99013
  0
LINE
  8
0
 10
47.3139
 20
6.99013
 11
-47.3139
 21
6.99013
  0
LINE
  8
0
 10
-47.3139
 20
6.99013
 11
-47.9369
 21
6.91142
  0
LINE
  8
0
 10
-47.9369
 20
6.91142
 11
-48.5451
 21
6.75528
  0
LINE
  8
0
 10
-48.5451
 20
6.75528
 11
-49.1289
 21
6.52412
  0
LINE
  8
0
 10
-49.1289
 20
6.52412
 11
-49.6791
 21
6.22163
  0
LINE
  8
0
 10
-49.6791
 20
6.22163
 11
-50.1871
 21
5.85255
  0
LINE
  8
0
 10
-50.1871
 20
5.85255
 11
-50.6448
 21
5.42273
  0
LINE
  8
0
 10
-50.6448
 20
5.42273
 11
-51.0451
 21
4.93892
  0
LINE
  8
0
 10
-51.0451
 20
4.93892
 11
-51.3815
 21
4.40877
  0
LINE
  8
0
 10
-51.3815
 20
4.40877
 11
-51.6489
 21
3.84062
  0
LINE
  8
0
 10
-51.6489
 20
3.84062
 11
-51.8429
 21
3.24344
  0
LINE
  8
0
 10
-51.8429
 20
3.24344
 11
-51.9606
 21
2.62666
  0
LINE
  8
0
 10
-51.9606
 20
2.62666
 11
-52
 21
2
  0
LINE
  8
0
 10
-52
 20
2
 11
-52
 21
-2
  0
LINE
  8
0
 10
-52
 20
-2
 11
-51.9606
 21
-2.62666
  0
LINE
  8
0
 10
-51.9606
 20
-2.62666
 11
-51.8429
 21
-3.24344
  0
LINE
  8
0
 10
-51.8429
 20
-3.24344
 11
-51.6489
 21
-3.84062
  0
LINE
  8
0
 10
-51.6489
 20
-3.84062
 11
-51.3815
 21
-4.40877
  0
LINE
  8
0
 10
-51.3815
 20
-4.40877
 11
-51.0451
 21
-4.93892
  0
LINE
  8
0
 10
-51.0451
 20
-4.93892
 11
-50.6448
 21
-5.42273
  0
LINE
  8
0
 10
-50.6448
 20
-5.42273
 11
-50.1871
 21
-5.85255
  0
LINE
  8
0
 10
-50.1871
 20
-5.85255
 11
-49.6791
 21
-6.22163
  0
LINE
  8
0
 10
-49.6791
 20
-6.22163
 11
-49.1289
 21
-6.52412
  0
LINE
  8
0
 10
-49.1289
 20
-6.52412
 11
-48.5451
 21
-6.75528
  0
LINE
  8
0
 10
-48.5451
 20
-6.75528
 11
-47.9369
 21
-6.91142
  0
LINE
  8
0
 10
-47.9369
 20
-6.91142
 11
-47.3139
 21
-6.99013
  0
LINE
  8
0
 10
-47.3139
 20
-6.99013
 11
47.3139
 21
-6.99013
  0
LINE
  8
0
 10
47.3139
 20
-6.99013
 11
47.9369
 21
-6.91142
  0
LINE
  8
0
 10
-45.1884
 20
-2.99408
 11
-45.5621
 21
-2.94685
  0
LINE
  8
0
 10
-45.5621
 20
-2.94685
 11
-45.927
 21
-2.85316
  0
LINE
  8
0
 10
-45.927
 20
-2.85316
 11
-46.2773
 21
-2.71448
  0
LINE
  8
0
 10
-46.2773
 20
-2.71448
 11
-46.6075
 21
-2.53297
  0
LINE
  8
0
 10
-46.6075
 20
-2.53297
 11
-46.9123
 21
-2.31154
  0
LINE
  8
0
 10
-46.9123
 20
-2.31154
 11
-47.1869
 21
-2.05363
  0
LINE
  8
0
 10
-47.1869
 20
-2.05363
 11
-47.427
 21
-1.76335
  0
LINE
  8
0
 10
-47.427
 20
-1.76335
 11
-47.6289
 21
-1.44525
  0
LINE
  8
0
 10
-47.6289
 20
-1.44525
 11
-47.7893
 21
-1.10437
  0
LINE
  8
0
 10
-47.7893
 20
-1.10437
 11
-47.9057
 21
-0.746063
  0
LINE
  8
0
 10
-47.9057
 20
-0.746063
 11
-47.9763
 21
-0.375992
  0
LINE
  8
0
 10
-47.9763
 20
-0.375992
 11
-48
 21
0
  0
LINE
  8
0
 10
-48
 20
0
 11
-47.9763
 21
0.375992
  0
LINE
  8
0
 10
-47.9763
 20
0.375992
 11
-47.9057
 21
0.746063
  0
LINE
  8
0
 10
-47.9057
 20
0.746063
 11
-47.7893
 21
1.10437
  0
LINE
  8
0
 10
-47.7893
 20
1.10437
 11
-47.6289
 21
1.44525
  0
LINE
  8
0
 10
-47.6289
 20
1.44525
 11
-47.427
 21
1.76335
  0
LINE
  8
0
 10
-47.427
 20
1.76335
 11
-47.1869
 21
2.05363
  0
LINE
  8
0
 10
-47.1869
 20
2.05363
 11
-46.9123
 21
2.31154
  0
LINE
  8
0
 10
-46.9123
 20
2.31154
 11
-46.6075
 21
2.53297
  0
LINE
  8
0
 10
-46.6075
 20
2.53297
 11
-46.2773
 21
2.71448
  0
LINE
  8
0
 10
-46.2773
 20
2.71448
 11
-45.927
 21
2.85316
  0
LINE
  8
0
 10
-45.927
 20
2.85316
 11
-45.5621
 21
2.94685
  0
LINE
  8
0
 10
-45.5621
 20
2.94685
 11
-45.1884
 21
2.99408
  0
LINE
  8
0
 10
-45.1884
 20
2.99408
 11
-44.8116
 21
2.99408
  0
LINE
  8
0
 10
-44.8116
 20
2.99408
 11
-44.4379
 21
2.94685
  0
LINE
  8
0
 10
-44.4379
 20
2.94685
 11
-44.0729
 21
2.85316
  0
LINE
  8
0
 10
-44.0729
 20
2.85316
 11
-43.7227
 21
2.71448
  0
LINE
  8
0
 10
-43.7227
 20
2.71448
 11
-43.3925
 21
2.53297
  0
LINE
  8
0
 10
-43.3925
 20
2.53297
 11
-43.0877
 21
2.31154
  0
LINE
  8
0
 10
-43.0877
 20
2.31154
 11
-42.8131
 21
2.05363
  0
LINE
  8
0
 10
-42.8131
 20
2.05363
 11
-42.5729
 21
1.76335
  0
LINE
  8
0
 10
-42.5729
 20
1.76335
 11
-42.3711
 21
1.44525
  0
LINE
  8
0
 10
-42.3711
 20
1.44525
 11
-42.2107
 21
1.10437
  0
LINE
  8
0
 10
-42.2107
 20
1.10437
 11
-42.0942
 21
0.746063
  0
LINE
  8
0
 10
-42.0942
 20
0.746063
 11
-42.0237
 21
0.375992
  0
LINE
  8
0
 10
-42.0237
 20
0.375992
 11
-42
 21
0
  0
LINE
  8
0
 10
-42
 20
0
 11
-42.0237
 21
-0.375992
  0
LINE
  8
0
 10
-42.0237
 20
-0.375992
 11
-42.0942
 21
-0.746063
  0
LINE
  8
0
 10
-42.0942
 20
-0.746063
 11
-42.2107
 21
-1.10437
  0
LINE
  8
0
 10
-42.2107
 20
-1.10437
 11
-42.3711
 21
-1.44525
  0
LINE
  8
0
 10
-42.3711
 20
-1.44525
 11
-42.5729
 21
-1.76335
  0
LINE
  8
0
 10
-42.5729
 20
-1.76335
 11
-42.8131
 21
-2.05363
  0
LINE
  8
0
 10
-42.8131
 20
-2.05363
 11
-43.0877
 21
-2.31154
  0
LINE
  8
0
 10
-43.0877
 20
-2.31154
 11
-43.3925
 21
-2.53297
  0
LINE
  8
0
 10
-43.3925
 20
-2.53297
 11
-43.7227
 21
-2.71448
  0
LINE
  8
0
 10
-43.7227
 20
-2.71448
 11
-44.0729
 21
-2.85316
  0
LINE
  8
0
 10
-44.0729
 20
-2.85316
 11
-44.4379
 21
-2.94685
  0
LINE
  8
0
 10
-44.4379
 20
-2.94685
 11
-44.8116
 21
-2.99408
  0
LINE
  8
0
 10
-44.8116
 20
-2.99408
 11
-45.1884
 21
-2.99408
  0
ENDSEC
  0
SECTION
  2
OBJECTS
  0
DICTIONARY
  0
ENDSEC
  0
EOF
