  0
SECTION
  2
BLOCKS
  0
ENDSEC
  0
SECTION
  2
ENTITIES
  0
LINE
  8
0
 10
227.937
 20
-6.91142
 11
228.545
 21
-6.75528
  0
LINE
  8
0
 10
228.545
 20
-6.75528
 11
229.129
 21
-6.52412
  0
LINE
  8
0
 10
229.129
 20
-6.52412
 11
229.679
 21
-6.22163
  0
LINE
  8
0
 10
229.679
 20
-6.22163
 11
230.187
 21
-5.85255
  0
LINE
  8
0
 10
230.187
 20
-5.85255
 11
230.645
 21
-5.42273
  0
LINE
  8
0
 10
230.645
 20
-5.42273
 11
231.045
 21
-4.93892
  0
LINE
  8
0
 10
231.045
 20
-4.93892
 11
231.382
 21
-4.40877
  0
LINE
  8
0
 10
231.382
 20
-4.40877
 11
231.649
 21
-3.84062
  0
LINE
  8
0
 10
231.649
 20
-3.84062
 11
231.843
 21
-3.24344
  0
LINE
  8
0
 10
231.843
 20
-3.24344
 11
231.961
 21
-2.62666
  0
LINE
  8
0
 10
231.961
 20
-2.62666
 11
232
 21
-2
  0
LINE
  8
0
 10
232
 20
-2
 11
232
 21
2
  0
LINE
  8
0
 10
232
 20
2
 11
231.961
 21
2.62666
  0
LINE
  8
0
 10
231.961
 20
2.62666
 11
231.843
 21
3.24344
  0
LINE
  8
0
 10
231.843
 20
3.24344
 11
231.649
 21
3.84062
  0
LINE
  8
0
 10
231.649
 20
3.84062
 11
231.382
 21
4.40877
  0
LINE
  8
0
 10
231.382
 20
4.40877
 11
231.045
 21
4.93892
  0
LINE
  8
0
 10
231.045
 20
4.93892
 11
230.645
 21
5.42273
  0
LINE
  8
0
 10
230.645
 20
5.42273
 11
230.187
 21
5.85255
  0
LINE
  8
0
 10
230.187
 20
5.85255
 11
229.679
 21
6.22163
  0
LINE
  8
0
 10
229.679
 20
6.22163
 11
229.129
 21
6.52412
  0
LINE
  8
0
 10
229.129
 20
6.52412
 11
228.545
 21
6.75528
  0
LINE
  8
0
 10
228.545
 20
6.75528
 11
227.937
 21
6.91142
  0
LINE
  8
0
 10
227.937
 20
6.91142
 11
227.314
 21
6.99013
  0
LINE
  8
0
 10
227.314
 20
6.99013
 11
-227.314
 21
6.99013
  0
LINE
  8
0
 10
-227.314
 20
6.99013
 11
-227.937
 21
6.91142
  0
LINE
  8
0
 10
-227.937
 20
6.91142
 11
-228.545
 21
6.75528
  0
LINE
  8
0
 10
-228.545
 20
6.75528
 11
-229.129
 21
6.52412
  0
LINE
  8
0
 10
-229.129
 20
6.52412
 11
-229.679
 21
6.22163
  0
LINE
  8
0
 10
-229.679
 20
6.22163
 11
-230.187
 21
5.85255
  0
LINE
  8
0
 10
-230.187
 20
5.85255
 11
-230.645
 21
5.42273
  0
LINE
  8
0
 10
-230.645
 20
5.42273
 11
-231.045
 21
4.93892
  0
LINE
  8
0
 10
-231.045
 20
4.93892
 11
-231.382
 21
4.40877
  0
LINE
  8
0
 10
-231.382
 20
4.40877
 11
-231.649
 21
3.84062
  0
LINE
  8
0
 10
-231.649
 20
3.84062
 11
-231.843
 21
3.24344
  0
LINE
  8
0
 10
-231.843
 20
3.24344
 11
-231.961
 21
2.62666
  0
LINE
  8
0
 10
-231.961
 20
2.62666
 11
-232
 21
2
  0
LINE
  8
0
 10
-232
 20
2
 11
-232
 21
-2
  0
LINE
  8
0
 10
-232
 20
-2
 11
-231.961
 21
-2.62666
  0
LINE
  8
0
 10
-231.961
 20
-2.62666
 11
-231.843
 21
-3.24344
  0
LINE
  8
0
 10
-231.843
 20
-3.24344
 11
-231.649
 21
-3.84062
  0
LINE
  8
0
 10
-231.649
 20
-3.84062
 11
-231.382
 21
-4.40877
  0
LINE
  8
0
 10
-231.382
 20
-4.40877
 11
-231.045
 21
-4.93892
  0
LINE
  8
0
 10
-231.045
 20
-4.93892
 11
-230.645
 21
-5.42273
  0
LINE
  8
0
 10
-230.645
 20
-5.42273
 11
-230.187
 21
-5.85255
  0
LINE
  8
0
 10
-230.187
 20
-5.85255
 11
-229.679
 21
-6.22163
  0
LINE
  8
0
 10
-229.679
 20
-6.22163
 11
-229.129
 21
-6.52412
  0
LINE
  8
0
 10
-229.129
 20
-6.52412
 11
-228.545
 21
-6.75528
  0
LINE
  8
0
 10
-228.545
 20
-6.75528
 11
-227.937
 21
-6.91142
  0
LINE
  8
0
 10
-227.937
 20
-6.91142
 11
-227.314
 21
-6.99013
  0
LINE
  8
0
 10
-227.314
 20
-6.99013
 11
227.314
 21
-6.99013
  0
LINE
  8
0
 10
227.314
 20
-6.99013
 11
227.937
 21
-6.91142
  0
LINE
  8
0
 10
-225.188
 20
-2.99408
 11
-225.562
 21
-2.94685
  0
LINE
  8
0
 10
-225.562
 20
-2.94685
 11
-225.927
 21
-2.85316
  0
LINE
  8
0
 10
-225.927
 20
-2.85316
 11
-226.277
 21
-2.71448
  0
LINE
  8
0
 10
-226.277
 20
-2.71448
 11
-226.607
 21
-2.53297
  0
LINE
  8
0
 10
-226.607
 20
-2.53297
 11
-226.912
 21
-2.31154
  0
LINE
  8
0
 10
-226.912
 20
-2.31154
 11
-227.187
 21
-2.05363
  0
LINE
  8
0
 10
-227.187
 20
-2.05363
 11
-227.427
 21
-1.76335
  0
LINE
  8
0
 10
-227.427
 20
-1.76335
 11
-227.629
 21
-1.44525
  0
LINE
  8
0
 10
-227.629
 20
-1.44525
 11
-227.789
 21
-1.10437
  0
LINE
  8
0
 10
-227.789
 20
-1.10437
 11
-227.906
 21
-0.746063
  0
LINE
  8
0
 10
-227.906
 20
-0.746063
 11
-227.976
 21
-0.375992
  0
LINE
  8
0
 10
-227.976
 20
-0.375992
 11
-228
 21
0
  0
LINE
  8
0
 10
-228
 20
0
 11
-227.976
 21
0.375992
  0
LINE
  8
0
 10
-227.976
 20
0.375992
 11
-227.906
 21
0.746063
  0
LINE
  8
0
 10
-227.906
 20
0.746063
 11
-227.789
 21
1.10437
  0
LINE
  8
0
 10
-227.789
 20
1.10437
 11
-227.629
 21
1.44525
  0
LINE
  8
0
 10
-227.629
 20
1.44525
 11
-227.427
 21
1.76335
  0
LINE
  8
0
 10
-227.427
 20
1.76335
 11
-227.187
 21
2.05363
  0
LINE
  8
0
 10
-227.187
 20
2.05363
 11
-226.912
 21
2.31154
  0
LINE
  8
0
 10
-226.912
 20
2.31154
 11
-226.607
 21
2.53297
  0
LINE
  8
0
 10
-226.607
 20
2.53297
 11
-226.277
 21
2.71448
  0
LINE
  8
0
 10
-226.277
 20
2.71448
 11
-225.927
 21
2.85316
  0
LINE
  8
0
 10
-225.927
 20
2.85316
 11
-225.562
 21
2.94685
  0
LINE
  8
0
 10
-225.562
 20
2.94685
 11
-225.188
 21
2.99408
  0
LINE
  8
0
 10
-225.188
 20
2.99408
 11
-224.812
 21
2.99408
  0
LINE
  8
0
 10
-224.812
 20
2.99408
 11
-224.438
 21
2.94685
  0
LINE
  8
0
 10
-224.438
 20
2.94685
 11
-224.073
 21
2.85316
  0
LINE
  8
0
 10
-224.073
 20
2.85316
 11
-223.723
 21
2.71448
  0
LINE
  8
0
 10
-223.723
 20
2.71448
 11
-223.393
 21
2.53297
  0
LINE
  8
0
 10
-223.393
 20
2.53297
 11
-223.088
 21
2.31154
  0
LINE
  8
0
 10
-223.088
 20
2.31154
 11
-222.813
 21
2.05363
  0
LINE
  8
0
 10
-222.813
 20
2.05363
 11
-222.573
 21
1.76335
  0
LINE
  8
0
 10
-222.573
 20
1.76335
 11
-222.371
 21
1.44525
  0
LINE
  8
0
 10
-222.371
 20
1.44525
 11
-222.211
 21
1.10437
  0
LINE
  8
0
 10
-222.211
 20
1.10437
 11
-222.094
 21
0.746063
  0
LINE
  8
0
 10
-222.094
 20
0.746063
 11
-222.024
 21
0.375992
  0
LINE
  8
0
 10
-222.024
 20
0.375992
 11
-222
 21
0
  0
LINE
  8
0
 10
-222
 20
0
 11
-222.024
 21
-0.375992
  0
LINE
  8
0
 10
-222.024
 20
-0.375992
 11
-222.094
 21
-0.746063
  0
LINE
  8
0
 10
-222.094
 20
-0.746063
 11
-222.211
 21
-1.10437
  0
LINE
  8
0
 10
-222.211
 20
-1.10437
 11
-222.371
 21
-1.44525
  0
LINE
  8
0
 10
-222.371
 20
-1.44525
 11
-222.573
 21
-1.76335
  0
LINE
  8
0
 10
-222.573
 20
-1.76335
 11
-222.813
 21
-2.05363
  0
LINE
  8
0
 10
-222.813
 20
-2.05363
 11
-223.088
 21
-2.31154
  0
LINE
  8
0
 10
-223.088
 20
-2.31154
 11
-223.393
 21
-2.53297
  0
LINE
  8
0
 10
-223.393
 20
-2.53297
 11
-223.723
 21
-2.71448
  0
LINE
  8
0
 10
-223.723
 20
-2.71448
 11
-224.073
 21
-2.85316
  0
LINE
  8
0
 10
-224.073
 20
-2.85316
 11
-224.438
 21
-2.94685
  0
LINE
  8
0
 10
-224.438
 20
-2.94685
 11
-224.812
 21
-2.99408
  0
LINE
  8
0
 10
-224.812
 20
-2.99408
 11
-225.188
 21
-2.99408
  0
ENDSEC
  0
SECTION
  2
OBJECTS
  0
DICTIONARY
  0
ENDSEC
  0
EOF
