  0
SECTION
  2
BLOCKS
  0
ENDSEC
  0
SECTION
  2
ENTITIES
  0
LINE
  8
0
 10
92.9369
 20
-6.91142
 11
93.5451
 21
-6.75528
  0
LINE
  8
0
 10
93.5451
 20
-6.75528
 11
94.1289
 21
-6.52412
  0
LINE
  8
0
 10
94.1289
 20
-6.52412
 11
94.6791
 21
-6.22163
  0
LINE
  8
0
 10
94.6791
 20
-6.22163
 11
95.1871
 21
-5.85255
  0
LINE
  8
0
 10
95.1871
 20
-5.85255
 11
95.6448
 21
-5.42273
  0
LINE
  8
0
 10
95.6448
 20
-5.42273
 11
96.0451
 21
-4.93892
  0
LINE
  8
0
 10
96.0451
 20
-4.93892
 11
96.3815
 21
-4.40877
  0
LINE
  8
0
 10
96.3815
 20
-4.40877
 11
96.6489
 21
-3.84062
  0
LINE
  8
0
 10
96.6489
 20
-3.84062
 11
96.8429
 21
-3.24344
  0
LINE
  8
0
 10
96.8429
 20
-3.24344
 11
96.9606
 21
-2.62666
  0
LINE
  8
0
 10
96.9606
 20
-2.62666
 11
97
 21
-2
  0
LINE
  8
0
 10
97
 20
-2
 11
97
 21
2
  0
LINE
  8
0
 10
97
 20
2
 11
96.9606
 21
2.62666
  0
LINE
  8
0
 10
96.9606
 20
2.62666
 11
96.8429
 21
3.24344
  0
LINE
  8
0
 10
96.8429
 20
3.24344
 11
96.6489
 21
3.84062
  0
LINE
  8
0
 10
96.6489
 20
3.84062
 11
96.3815
 21
4.40877
  0
LINE
  8
0
 10
96.3815
 20
4.40877
 11
96.0451
 21
4.93892
  0
LINE
  8
0
 10
96.0451
 20
4.93892
 11
95.6448
 21
5.42273
  0
LINE
  8
0
 10
95.6448
 20
5.42273
 11
95.1871
 21
5.85255
  0
LINE
  8
0
 10
95.1871
 20
5.85255
 11
94.6791
 21
6.22163
  0
LINE
  8
0
 10
94.6791
 20
6.22163
 11
94.1289
 21
6.52412
  0
LINE
  8
0
 10
94.1289
 20
6.52412
 11
93.5451
 21
6.75528
  0
LINE
  8
0
 10
93.5451
 20
6.75528
 11
92.9369
 21
6.91142
  0
LINE
  8
0
 10
92.9369
 20
6.91142
 11
92.3139
 21
6.99013
  0
LINE
  8
0
 10
92.3139
 20
6.99013
 11
-92.3139
 21
6.99013
  0
LINE
  8
0
 10
-92.3139
 20
6.99013
 11
-92.9369
 21
6.91142
  0
LINE
  8
0
 10
-92.9369
 20
6.91142
 11
-93.5451
 21
6.75528
  0
LINE
  8
0
 10
-93.5451
 20
6.75528
 11
-94.1289
 21
6.52412
  0
LINE
  8
0
 10
-94.1289
 20
6.52412
 11
-94.6791
 21
6.22163
  0
LINE
  8
0
 10
-94.6791
 20
6.22163
 11
-95.1871
 21
5.85255
  0
LINE
  8
0
 10
-95.1871
 20
5.85255
 11
-95.6448
 21
5.42273
  0
LINE
  8
0
 10
-95.6448
 20
5.42273
 11
-96.0451
 21
4.93892
  0
LINE
  8
0
 10
-96.0451
 20
4.93892
 11
-96.3815
 21
4.40877
  0
LINE
  8
0
 10
-96.3815
 20
4.40877
 11
-96.6489
 21
3.84062
  0
LINE
  8
0
 10
-96.6489
 20
3.84062
 11
-96.8429
 21
3.24344
  0
LINE
  8
0
 10
-96.8429
 20
3.24344
 11
-96.9606
 21
2.62666
  0
LINE
  8
0
 10
-96.9606
 20
2.62666
 11
-97
 21
2
  0
LINE
  8
0
 10
-97
 20
2
 11
-97
 21
-2
  0
LINE
  8
0
 10
-97
 20
-2
 11
-96.9606
 21
-2.62666
  0
LINE
  8
0
 10
-96.9606
 20
-2.62666
 11
-96.8429
 21
-3.24344
  0
LINE
  8
0
 10
-96.8429
 20
-3.24344
 11
-96.6489
 21
-3.84062
  0
LINE
  8
0
 10
-96.6489
 20
-3.84062
 11
-96.3815
 21
-4.40877
  0
LINE
  8
0
 10
-96.3815
 20
-4.40877
 11
-96.0451
 21
-4.93892
  0
LINE
  8
0
 10
-96.0451
 20
-4.93892
 11
-95.6448
 21
-5.42273
  0
LINE
  8
0
 10
-95.6448
 20
-5.42273
 11
-95.1871
 21
-5.85255
  0
LINE
  8
0
 10
-95.1871
 20
-5.85255
 11
-94.6791
 21
-6.22163
  0
LINE
  8
0
 10
-94.6791
 20
-6.22163
 11
-94.1289
 21
-6.52412
  0
LINE
  8
0
 10
-94.1289
 20
-6.52412
 11
-93.5451
 21
-6.75528
  0
LINE
  8
0
 10
-93.5451
 20
-6.75528
 11
-92.9369
 21
-6.91142
  0
LINE
  8
0
 10
-92.9369
 20
-6.91142
 11
-92.3139
 21
-6.99013
  0
LINE
  8
0
 10
-92.3139
 20
-6.99013
 11
92.3139
 21
-6.99013
  0
LINE
  8
0
 10
92.3139
 20
-6.99013
 11
92.9369
 21
-6.91142
  0
LINE
  8
0
 10
-90.1884
 20
-2.99408
 11
-90.5621
 21
-2.94685
  0
LINE
  8
0
 10
-90.5621
 20
-2.94685
 11
-90.927
 21
-2.85316
  0
LINE
  8
0
 10
-90.927
 20
-2.85316
 11
-91.2773
 21
-2.71448
  0
LINE
  8
0
 10
-91.2773
 20
-2.71448
 11
-91.6075
 21
-2.53297
  0
LINE
  8
0
 10
-91.6075
 20
-2.53297
 11
-91.9123
 21
-2.31154
  0
LINE
  8
0
 10
-91.9123
 20
-2.31154
 11
-92.1869
 21
-2.05363
  0
LINE
  8
0
 10
-92.1869
 20
-2.05363
 11
-92.427
 21
-1.76335
  0
LINE
  8
0
 10
-92.427
 20
-1.76335
 11
-92.6289
 21
-1.44525
  0
LINE
  8
0
 10
-92.6289
 20
-1.44525
 11
-92.7893
 21
-1.10437
  0
LINE
  8
0
 10
-92.7893
 20
-1.10437
 11
-92.9057
 21
-0.746063
  0
LINE
  8
0
 10
-92.9057
 20
-0.746063
 11
-92.9763
 21
-0.375992
  0
LINE
  8
0
 10
-92.9763
 20
-0.375992
 11
-93
 21
0
  0
LINE
  8
0
 10
-93
 20
0
 11
-92.9763
 21
0.375992
  0
LINE
  8
0
 10
-92.9763
 20
0.375992
 11
-92.9057
 21
0.746063
  0
LINE
  8
0
 10
-92.9057
 20
0.746063
 11
-92.7893
 21
1.10437
  0
LINE
  8
0
 10
-92.7893
 20
1.10437
 11
-92.6289
 21
1.44525
  0
LINE
  8
0
 10
-92.6289
 20
1.44525
 11
-92.427
 21
1.76335
  0
LINE
  8
0
 10
-92.427
 20
1.76335
 11
-92.1869
 21
2.05363
  0
LINE
  8
0
 10
-92.1869
 20
2.05363
 11
-91.9123
 21
2.31154
  0
LINE
  8
0
 10
-91.9123
 20
2.31154
 11
-91.6075
 21
2.53297
  0
LINE
  8
0
 10
-91.6075
 20
2.53297
 11
-91.2773
 21
2.71448
  0
LINE
  8
0
 10
-91.2773
 20
2.71448
 11
-90.927
 21
2.85316
  0
LINE
  8
0
 10
-90.927
 20
2.85316
 11
-90.5621
 21
2.94685
  0
LINE
  8
0
 10
-90.5621
 20
2.94685
 11
-90.1884
 21
2.99408
  0
LINE
  8
0
 10
-90.1884
 20
2.99408
 11
-89.8116
 21
2.99408
  0
LINE
  8
0
 10
-89.8116
 20
2.99408
 11
-89.4379
 21
2.94685
  0
LINE
  8
0
 10
-89.4379
 20
2.94685
 11
-89.073
 21
2.85316
  0
LINE
  8
0
 10
-89.073
 20
2.85316
 11
-88.7227
 21
2.71448
  0
LINE
  8
0
 10
-88.7227
 20
2.71448
 11
-88.3925
 21
2.53297
  0
LINE
  8
0
 10
-88.3925
 20
2.53297
 11
-88.0877
 21
2.31154
  0
LINE
  8
0
 10
-88.0877
 20
2.31154
 11
-87.8131
 21
2.05363
  0
LINE
  8
0
 10
-87.8131
 20
2.05363
 11
-87.573
 21
1.76335
  0
LINE
  8
0
 10
-87.573
 20
1.76335
 11
-87.3711
 21
1.44525
  0
LINE
  8
0
 10
-87.3711
 20
1.44525
 11
-87.2107
 21
1.10437
  0
LINE
  8
0
 10
-87.2107
 20
1.10437
 11
-87.0943
 21
0.746063
  0
LINE
  8
0
 10
-87.0943
 20
0.746063
 11
-87.0237
 21
0.375992
  0
LINE
  8
0
 10
-87.0237
 20
0.375992
 11
-87
 21
0
  0
LINE
  8
0
 10
-87
 20
0
 11
-87.0237
 21
-0.375992
  0
LINE
  8
0
 10
-87.0237
 20
-0.375992
 11
-87.0943
 21
-0.746063
  0
LINE
  8
0
 10
-87.0943
 20
-0.746063
 11
-87.2107
 21
-1.10437
  0
LINE
  8
0
 10
-87.2107
 20
-1.10437
 11
-87.3711
 21
-1.44525
  0
LINE
  8
0
 10
-87.3711
 20
-1.44525
 11
-87.573
 21
-1.76335
  0
LINE
  8
0
 10
-87.573
 20
-1.76335
 11
-87.8131
 21
-2.05363
  0
LINE
  8
0
 10
-87.8131
 20
-2.05363
 11
-88.0877
 21
-2.31154
  0
LINE
  8
0
 10
-88.0877
 20
-2.31154
 11
-88.3925
 21
-2.53297
  0
LINE
  8
0
 10
-88.3925
 20
-2.53297
 11
-88.7227
 21
-2.71448
  0
LINE
  8
0
 10
-88.7227
 20
-2.71448
 11
-89.073
 21
-2.85316
  0
LINE
  8
0
 10
-89.073
 20
-2.85316
 11
-89.4379
 21
-2.94685
  0
LINE
  8
0
 10
-89.4379
 20
-2.94685
 11
-89.8116
 21
-2.99408
  0
LINE
  8
0
 10
-89.8116
 20
-2.99408
 11
-90.1884
 21
-2.99408
  0
ENDSEC
  0
SECTION
  2
OBJECTS
  0
DICTIONARY
  0
ENDSEC
  0
EOF
