  0
SECTION
  2
BLOCKS
  0
ENDSEC
  0
SECTION
  2
ENTITIES
  0
LINE
  8
0
 10
152.937
 20
17.0886
 11
153.545
 21
17.2447
  0
LINE
  8
0
 10
153.545
 20
17.2447
 11
154.129
 21
17.4759
  0
LINE
  8
0
 10
154.129
 20
17.4759
 11
154.679
 21
17.7784
  0
LINE
  8
0
 10
154.679
 20
17.7784
 11
155.187
 21
18.1474
  0
LINE
  8
0
 10
155.187
 20
18.1474
 11
155.645
 21
18.5773
  0
LINE
  8
0
 10
155.645
 20
18.5773
 11
156.045
 21
19.0611
  0
LINE
  8
0
 10
156.045
 20
19.0611
 11
156.382
 21
19.5912
  0
LINE
  8
0
 10
156.382
 20
19.5912
 11
156.649
 21
20.1594
  0
LINE
  8
0
 10
156.649
 20
20.1594
 11
156.843
 21
20.7566
  0
LINE
  8
0
 10
156.843
 20
20.7566
 11
156.961
 21
21.3733
  0
LINE
  8
0
 10
156.961
 20
21.3733
 11
157
 21
22
  0
LINE
  8
0
 10
157
 20
22
 11
157
 21
26
  0
LINE
  8
0
 10
157
 20
26
 11
156.961
 21
26.6267
  0
LINE
  8
0
 10
156.961
 20
26.6267
 11
156.843
 21
27.2434
  0
LINE
  8
0
 10
156.843
 20
27.2434
 11
156.649
 21
27.8406
  0
LINE
  8
0
 10
156.649
 20
27.8406
 11
156.382
 21
28.4088
  0
LINE
  8
0
 10
156.382
 20
28.4088
 11
156.045
 21
28.9389
  0
LINE
  8
0
 10
156.045
 20
28.9389
 11
155.645
 21
29.4227
  0
LINE
  8
0
 10
155.645
 20
29.4227
 11
155.187
 21
29.8526
  0
LINE
  8
0
 10
155.187
 20
29.8526
 11
154.679
 21
30.2216
  0
LINE
  8
0
 10
154.679
 20
30.2216
 11
154.129
 21
30.5241
  0
LINE
  8
0
 10
154.129
 20
30.5241
 11
153.545
 21
30.7553
  0
LINE
  8
0
 10
153.545
 20
30.7553
 11
152.937
 21
30.9114
  0
LINE
  8
0
 10
152.937
 20
30.9114
 11
152.314
 21
30.9901
  0
LINE
  8
0
 10
152.314
 20
30.9901
 11
-152.314
 21
30.9901
  0
LINE
  8
0
 10
-152.314
 20
30.9901
 11
-152.937
 21
30.9114
  0
LINE
  8
0
 10
-152.937
 20
30.9114
 11
-153.545
 21
30.7553
  0
LINE
  8
0
 10
-153.545
 20
30.7553
 11
-154.129
 21
30.5241
  0
LINE
  8
0
 10
-154.129
 20
30.5241
 11
-154.679
 21
30.2216
  0
LINE
  8
0
 10
-154.679
 20
30.2216
 11
-155.187
 21
29.8526
  0
LINE
  8
0
 10
-155.187
 20
29.8526
 11
-155.645
 21
29.4227
  0
LINE
  8
0
 10
-155.645
 20
29.4227
 11
-156.045
 21
28.9389
  0
LINE
  8
0
 10
-156.045
 20
28.9389
 11
-156.382
 21
28.4088
  0
LINE
  8
0
 10
-156.382
 20
28.4088
 11
-156.649
 21
27.8406
  0
LINE
  8
0
 10
-156.649
 20
27.8406
 11
-156.843
 21
27.2434
  0
LINE
  8
0
 10
-156.843
 20
27.2434
 11
-156.961
 21
26.6267
  0
LINE
  8
0
 10
-156.961
 20
26.6267
 11
-157
 21
26
  0
LINE
  8
0
 10
-157
 20
26
 11
-157
 21
22
  0
LINE
  8
0
 10
-157
 20
22
 11
-156.961
 21
21.3733
  0
LINE
  8
0
 10
-156.961
 20
21.3733
 11
-156.843
 21
20.7566
  0
LINE
  8
0
 10
-156.843
 20
20.7566
 11
-156.649
 21
20.1594
  0
LINE
  8
0
 10
-156.649
 20
20.1594
 11
-156.382
 21
19.5912
  0
LINE
  8
0
 10
-156.382
 20
19.5912
 11
-156.045
 21
19.0611
  0
LINE
  8
0
 10
-156.045
 20
19.0611
 11
-155.645
 21
18.5773
  0
LINE
  8
0
 10
-155.645
 20
18.5773
 11
-155.187
 21
18.1474
  0
LINE
  8
0
 10
-155.187
 20
18.1474
 11
-154.679
 21
17.7784
  0
LINE
  8
0
 10
-154.679
 20
17.7784
 11
-154.129
 21
17.4759
  0
LINE
  8
0
 10
-154.129
 20
17.4759
 11
-153.545
 21
17.2447
  0
LINE
  8
0
 10
-153.545
 20
17.2447
 11
-152.937
 21
17.0886
  0
LINE
  8
0
 10
-152.937
 20
17.0886
 11
-152.314
 21
17.0099
  0
LINE
  8
0
 10
-152.314
 20
17.0099
 11
152.314
 21
17.0099
  0
LINE
  8
0
 10
152.314
 20
17.0099
 11
152.937
 21
17.0886
  0
LINE
  8
0
 10
149.812
 20
21.0059
 11
149.438
 21
21.0531
  0
LINE
  8
0
 10
149.438
 20
21.0531
 11
149.073
 21
21.1468
  0
LINE
  8
0
 10
149.073
 20
21.1468
 11
148.723
 21
21.2855
  0
LINE
  8
0
 10
148.723
 20
21.2855
 11
148.393
 21
21.467
  0
LINE
  8
0
 10
148.393
 20
21.467
 11
148.088
 21
21.6885
  0
LINE
  8
0
 10
148.088
 20
21.6885
 11
147.813
 21
21.9464
  0
LINE
  8
0
 10
147.813
 20
21.9464
 11
147.573
 21
22.2366
  0
LINE
  8
0
 10
147.573
 20
22.2366
 11
147.371
 21
22.5547
  0
LINE
  8
0
 10
147.371
 20
22.5547
 11
147.211
 21
22.8956
  0
LINE
  8
0
 10
147.211
 20
22.8956
 11
147.094
 21
23.2539
  0
LINE
  8
0
 10
147.094
 20
23.2539
 11
147.024
 21
23.624
  0
LINE
  8
0
 10
147.024
 20
23.624
 11
147
 21
24
  0
LINE
  8
0
 10
147
 20
24
 11
147.024
 21
24.376
  0
LINE
  8
0
 10
147.024
 20
24.376
 11
147.094
 21
24.7461
  0
LINE
  8
0
 10
147.094
 20
24.7461
 11
147.211
 21
25.1044
  0
LINE
  8
0
 10
147.211
 20
25.1044
 11
147.371
 21
25.4453
  0
LINE
  8
0
 10
147.371
 20
25.4453
 11
147.573
 21
25.7634
  0
LINE
  8
0
 10
147.573
 20
25.7634
 11
147.813
 21
26.0536
  0
LINE
  8
0
 10
147.813
 20
26.0536
 11
148.088
 21
26.3115
  0
LINE
  8
0
 10
148.088
 20
26.3115
 11
148.393
 21
26.533
  0
LINE
  8
0
 10
148.393
 20
26.533
 11
148.723
 21
26.7145
  0
LINE
  8
0
 10
148.723
 20
26.7145
 11
149.073
 21
26.8532
  0
LINE
  8
0
 10
149.073
 20
26.8532
 11
149.438
 21
26.9469
  0
LINE
  8
0
 10
149.438
 20
26.9469
 11
149.812
 21
26.9941
  0
LINE
  8
0
 10
149.812
 20
26.9941
 11
150.188
 21
26.9941
  0
LINE
  8
0
 10
150.188
 20
26.9941
 11
150.562
 21
26.9469
  0
LINE
  8
0
 10
150.562
 20
26.9469
 11
150.927
 21
26.8532
  0
LINE
  8
0
 10
150.927
 20
26.8532
 11
151.277
 21
26.7145
  0
LINE
  8
0
 10
151.277
 20
26.7145
 11
151.607
 21
26.533
  0
LINE
  8
0
 10
151.607
 20
26.533
 11
151.912
 21
26.3115
  0
LINE
  8
0
 10
151.912
 20
26.3115
 11
152.187
 21
26.0536
  0
LINE
  8
0
 10
152.187
 20
26.0536
 11
152.427
 21
25.7634
  0
LINE
  8
0
 10
152.427
 20
25.7634
 11
152.629
 21
25.4453
  0
LINE
  8
0
 10
152.629
 20
25.4453
 11
152.789
 21
25.1044
  0
LINE
  8
0
 10
152.789
 20
25.1044
 11
152.906
 21
24.7461
  0
LINE
  8
0
 10
152.906
 20
24.7461
 11
152.976
 21
24.376
  0
LINE
  8
0
 10
152.976
 20
24.376
 11
153
 21
24
  0
LINE
  8
0
 10
153
 20
24
 11
152.976
 21
23.624
  0
LINE
  8
0
 10
152.976
 20
23.624
 11
152.906
 21
23.2539
  0
LINE
  8
0
 10
152.906
 20
23.2539
 11
152.789
 21
22.8956
  0
LINE
  8
0
 10
152.789
 20
22.8956
 11
152.629
 21
22.5547
  0
LINE
  8
0
 10
152.629
 20
22.5547
 11
152.427
 21
22.2366
  0
LINE
  8
0
 10
152.427
 20
22.2366
 11
152.187
 21
21.9464
  0
LINE
  8
0
 10
152.187
 20
21.9464
 11
151.912
 21
21.6885
  0
LINE
  8
0
 10
151.912
 20
21.6885
 11
151.607
 21
21.467
  0
LINE
  8
0
 10
151.607
 20
21.467
 11
151.277
 21
21.2855
  0
LINE
  8
0
 10
151.277
 20
21.2855
 11
150.927
 21
21.1468
  0
LINE
  8
0
 10
150.927
 20
21.1468
 11
150.562
 21
21.0531
  0
LINE
  8
0
 10
150.562
 20
21.0531
 11
150.188
 21
21.0059
  0
LINE
  8
0
 10
150.188
 20
21.0059
 11
149.812
 21
21.0059
  0
LINE
  8
0
 10
-150.188
 20
21.0059
 11
-150.562
 21
21.0531
  0
LINE
  8
0
 10
-150.562
 20
21.0531
 11
-150.927
 21
21.1468
  0
LINE
  8
0
 10
-150.927
 20
21.1468
 11
-151.277
 21
21.2855
  0
LINE
  8
0
 10
-151.277
 20
21.2855
 11
-151.607
 21
21.467
  0
LINE
  8
0
 10
-151.607
 20
21.467
 11
-151.912
 21
21.6885
  0
LINE
  8
0
 10
-151.912
 20
21.6885
 11
-152.187
 21
21.9464
  0
LINE
  8
0
 10
-152.187
 20
21.9464
 11
-152.427
 21
22.2366
  0
LINE
  8
0
 10
-152.427
 20
22.2366
 11
-152.629
 21
22.5547
  0
LINE
  8
0
 10
-152.629
 20
22.5547
 11
-152.789
 21
22.8956
  0
LINE
  8
0
 10
-152.789
 20
22.8956
 11
-152.906
 21
23.2539
  0
LINE
  8
0
 10
-152.906
 20
23.2539
 11
-152.976
 21
23.624
  0
LINE
  8
0
 10
-152.976
 20
23.624
 11
-153
 21
24
  0
LINE
  8
0
 10
-153
 20
24
 11
-152.976
 21
24.376
  0
LINE
  8
0
 10
-152.976
 20
24.376
 11
-152.906
 21
24.7461
  0
LINE
  8
0
 10
-152.906
 20
24.7461
 11
-152.789
 21
25.1044
  0
LINE
  8
0
 10
-152.789
 20
25.1044
 11
-152.629
 21
25.4453
  0
LINE
  8
0
 10
-152.629
 20
25.4453
 11
-152.427
 21
25.7634
  0
LINE
  8
0
 10
-152.427
 20
25.7634
 11
-152.187
 21
26.0536
  0
LINE
  8
0
 10
-152.187
 20
26.0536
 11
-151.912
 21
26.3115
  0
LINE
  8
0
 10
-151.912
 20
26.3115
 11
-151.607
 21
26.533
  0
LINE
  8
0
 10
-151.607
 20
26.533
 11
-151.277
 21
26.7145
  0
LINE
  8
0
 10
-151.277
 20
26.7145
 11
-150.927
 21
26.8532
  0
LINE
  8
0
 10
-150.927
 20
26.8532
 11
-150.562
 21
26.9469
  0
LINE
  8
0
 10
-150.562
 20
26.9469
 11
-150.188
 21
26.9941
  0
LINE
  8
0
 10
-150.188
 20
26.9941
 11
-149.812
 21
26.9941
  0
LINE
  8
0
 10
-149.812
 20
26.9941
 11
-149.438
 21
26.9469
  0
LINE
  8
0
 10
-149.438
 20
26.9469
 11
-149.073
 21
26.8532
  0
LINE
  8
0
 10
-149.073
 20
26.8532
 11
-148.723
 21
26.7145
  0
LINE
  8
0
 10
-148.723
 20
26.7145
 11
-148.393
 21
26.533
  0
LINE
  8
0
 10
-148.393
 20
26.533
 11
-148.088
 21
26.3115
  0
LINE
  8
0
 10
-148.088
 20
26.3115
 11
-147.813
 21
26.0536
  0
LINE
  8
0
 10
-147.813
 20
26.0536
 11
-147.573
 21
25.7634
  0
LINE
  8
0
 10
-147.573
 20
25.7634
 11
-147.371
 21
25.4453
  0
LINE
  8
0
 10
-147.371
 20
25.4453
 11
-147.211
 21
25.1044
  0
LINE
  8
0
 10
-147.211
 20
25.1044
 11
-147.094
 21
24.7461
  0
LINE
  8
0
 10
-147.094
 20
24.7461
 11
-147.024
 21
24.376
  0
LINE
  8
0
 10
-147.024
 20
24.376
 11
-147
 21
24
  0
LINE
  8
0
 10
-147
 20
24
 11
-147.024
 21
23.624
  0
LINE
  8
0
 10
-147.024
 20
23.624
 11
-147.094
 21
23.2539
  0
LINE
  8
0
 10
-147.094
 20
23.2539
 11
-147.211
 21
22.8956
  0
LINE
  8
0
 10
-147.211
 20
22.8956
 11
-147.371
 21
22.5547
  0
LINE
  8
0
 10
-147.371
 20
22.5547
 11
-147.573
 21
22.2366
  0
LINE
  8
0
 10
-147.573
 20
22.2366
 11
-147.813
 21
21.9464
  0
LINE
  8
0
 10
-147.813
 20
21.9464
 11
-148.088
 21
21.6885
  0
LINE
  8
0
 10
-148.088
 20
21.6885
 11
-148.393
 21
21.467
  0
LINE
  8
0
 10
-148.393
 20
21.467
 11
-148.723
 21
21.2855
  0
LINE
  8
0
 10
-148.723
 20
21.2855
 11
-149.073
 21
21.1468
  0
LINE
  8
0
 10
-149.073
 20
21.1468
 11
-149.438
 21
21.0531
  0
LINE
  8
0
 10
-149.438
 20
21.0531
 11
-149.812
 21
21.0059
  0
LINE
  8
0
 10
-149.812
 20
21.0059
 11
-150.188
 21
21.0059
  0
ENDSEC
  0
SECTION
  2
OBJECTS
  0
DICTIONARY
  0
ENDSEC
  0
EOF
