  0
SECTION
  2
BLOCKS
  0
ENDSEC
  0
SECTION
  2
ENTITIES
  0
LINE
  8
0
 10
62.9369
 20
-44.4114
 11
63.5451
 21
-44.2553
  0
LINE
  8
0
 10
63.5451
 20
-44.2553
 11
64.1289
 21
-44.0241
  0
LINE
  8
0
 10
64.1289
 20
-44.0241
 11
64.6791
 21
-43.7216
  0
LINE
  8
0
 10
64.6791
 20
-43.7216
 11
65.1871
 21
-43.3526
  0
LINE
  8
0
 10
65.1871
 20
-43.3526
 11
65.6448
 21
-42.9227
  0
LINE
  8
0
 10
65.6448
 20
-42.9227
 11
66.0451
 21
-42.4389
  0
LINE
  8
0
 10
66.0451
 20
-42.4389
 11
66.3815
 21
-41.9088
  0
LINE
  8
0
 10
66.3815
 20
-41.9088
 11
66.6489
 21
-41.3406
  0
LINE
  8
0
 10
66.6489
 20
-41.3406
 11
66.8429
 21
-40.7434
  0
LINE
  8
0
 10
66.8429
 20
-40.7434
 11
66.9606
 21
-40.1267
  0
LINE
  8
0
 10
66.9606
 20
-40.1267
 11
67
 21
-39.5
  0
LINE
  8
0
 10
67
 20
-39.5
 11
67
 21
39.5
  0
LINE
  8
0
 10
67
 20
39.5
 11
66.9606
 21
40.1267
  0
LINE
  8
0
 10
66.9606
 20
40.1267
 11
66.8429
 21
40.7434
  0
LINE
  8
0
 10
66.8429
 20
40.7434
 11
66.6489
 21
41.3406
  0
LINE
  8
0
 10
66.6489
 20
41.3406
 11
66.3815
 21
41.9088
  0
LINE
  8
0
 10
66.3815
 20
41.9088
 11
66.0451
 21
42.4389
  0
LINE
  8
0
 10
66.0451
 20
42.4389
 11
65.6448
 21
42.9227
  0
LINE
  8
0
 10
65.6448
 20
42.9227
 11
65.1871
 21
43.3526
  0
LINE
  8
0
 10
65.1871
 20
43.3526
 11
64.6791
 21
43.7216
  0
LINE
  8
0
 10
64.6791
 20
43.7216
 11
64.1289
 21
44.0241
  0
LINE
  8
0
 10
64.1289
 20
44.0241
 11
63.5451
 21
44.2553
  0
LINE
  8
0
 10
63.5451
 20
44.2553
 11
62.9369
 21
44.4114
  0
LINE
  8
0
 10
62.9369
 20
44.4114
 11
62.3139
 21
44.4901
  0
LINE
  8
0
 10
62.3139
 20
44.4901
 11
-62.3139
 21
44.4901
  0
LINE
  8
0
 10
-62.3139
 20
44.4901
 11
-62.9369
 21
44.4114
  0
LINE
  8
0
 10
-62.9369
 20
44.4114
 11
-63.5451
 21
44.2553
  0
LINE
  8
0
 10
-63.5451
 20
44.2553
 11
-64.1289
 21
44.0241
  0
LINE
  8
0
 10
-64.1289
 20
44.0241
 11
-64.6791
 21
43.7216
  0
LINE
  8
0
 10
-64.6791
 20
43.7216
 11
-65.1871
 21
43.3526
  0
LINE
  8
0
 10
-65.1871
 20
43.3526
 11
-65.6448
 21
42.9227
  0
LINE
  8
0
 10
-65.6448
 20
42.9227
 11
-66.0451
 21
42.4389
  0
LINE
  8
0
 10
-66.0451
 20
42.4389
 11
-66.3815
 21
41.9088
  0
LINE
  8
0
 10
-66.3815
 20
41.9088
 11
-66.6489
 21
41.3406
  0
LINE
  8
0
 10
-66.6489
 20
41.3406
 11
-66.8429
 21
40.7434
  0
LINE
  8
0
 10
-66.8429
 20
40.7434
 11
-66.9606
 21
40.1267
  0
LINE
  8
0
 10
-66.9606
 20
40.1267
 11
-67
 21
39.5
  0
LINE
  8
0
 10
-67
 20
39.5
 11
-67
 21
-39.5
  0
LINE
  8
0
 10
-67
 20
-39.5
 11
-66.9606
 21
-40.1267
  0
LINE
  8
0
 10
-66.9606
 20
-40.1267
 11
-66.8429
 21
-40.7434
  0
LINE
  8
0
 10
-66.8429
 20
-40.7434
 11
-66.6489
 21
-41.3406
  0
LINE
  8
0
 10
-66.6489
 20
-41.3406
 11
-66.3815
 21
-41.9088
  0
LINE
  8
0
 10
-66.3815
 20
-41.9088
 11
-66.0451
 21
-42.4389
  0
LINE
  8
0
 10
-66.0451
 20
-42.4389
 11
-65.6448
 21
-42.9227
  0
LINE
  8
0
 10
-65.6448
 20
-42.9227
 11
-65.1871
 21
-43.3526
  0
LINE
  8
0
 10
-65.1871
 20
-43.3526
 11
-64.6791
 21
-43.7216
  0
LINE
  8
0
 10
-64.6791
 20
-43.7216
 11
-64.1289
 21
-44.0241
  0
LINE
  8
0
 10
-64.1289
 20
-44.0241
 11
-63.5451
 21
-44.2553
  0
LINE
  8
0
 10
-63.5451
 20
-44.2553
 11
-62.9369
 21
-44.4114
  0
LINE
  8
0
 10
-62.9369
 20
-44.4114
 11
-62.3139
 21
-44.4901
  0
LINE
  8
0
 10
-62.3139
 20
-44.4901
 11
62.3139
 21
-44.4901
  0
LINE
  8
0
 10
62.3139
 20
-44.4901
 11
62.9369
 21
-44.4114
  0
LINE
  8
0
 10
-60.1884
 20
34.5059
 11
-60.5621
 21
34.5531
  0
LINE
  8
0
 10
-60.5621
 20
34.5531
 11
-60.927
 21
34.6468
  0
LINE
  8
0
 10
-60.927
 20
34.6468
 11
-61.2773
 21
34.7855
  0
LINE
  8
0
 10
-61.2773
 20
34.7855
 11
-61.6075
 21
34.967
  0
LINE
  8
0
 10
-61.6075
 20
34.967
 11
-61.9123
 21
35.1885
  0
LINE
  8
0
 10
-61.9123
 20
35.1885
 11
-62.1869
 21
35.4464
  0
LINE
  8
0
 10
-62.1869
 20
35.4464
 11
-62.427
 21
35.7366
  0
LINE
  8
0
 10
-62.427
 20
35.7366
 11
-62.6289
 21
36.0547
  0
LINE
  8
0
 10
-62.6289
 20
36.0547
 11
-62.7893
 21
36.3956
  0
LINE
  8
0
 10
-62.7893
 20
36.3956
 11
-62.9057
 21
36.7539
  0
LINE
  8
0
 10
-62.9057
 20
36.7539
 11
-62.9763
 21
37.124
  0
LINE
  8
0
 10
-62.9763
 20
37.124
 11
-63
 21
37.5
  0
LINE
  8
0
 10
-63
 20
37.5
 11
-62.9763
 21
37.876
  0
LINE
  8
0
 10
-62.9763
 20
37.876
 11
-62.9057
 21
38.2461
  0
LINE
  8
0
 10
-62.9057
 20
38.2461
 11
-62.7893
 21
38.6044
  0
LINE
  8
0
 10
-62.7893
 20
38.6044
 11
-62.6289
 21
38.9453
  0
LINE
  8
0
 10
-62.6289
 20
38.9453
 11
-62.427
 21
39.2634
  0
LINE
  8
0
 10
-62.427
 20
39.2634
 11
-62.1869
 21
39.5536
  0
LINE
  8
0
 10
-62.1869
 20
39.5536
 11
-61.9123
 21
39.8115
  0
LINE
  8
0
 10
-61.9123
 20
39.8115
 11
-61.6075
 21
40.033
  0
LINE
  8
0
 10
-61.6075
 20
40.033
 11
-61.2773
 21
40.2145
  0
LINE
  8
0
 10
-61.2773
 20
40.2145
 11
-60.927
 21
40.3532
  0
LINE
  8
0
 10
-60.927
 20
40.3532
 11
-60.5621
 21
40.4469
  0
LINE
  8
0
 10
-60.5621
 20
40.4469
 11
-60.1884
 21
40.4941
  0
LINE
  8
0
 10
-60.1884
 20
40.4941
 11
-59.8116
 21
40.4941
  0
LINE
  8
0
 10
-59.8116
 20
40.4941
 11
-59.4379
 21
40.4469
  0
LINE
  8
0
 10
-59.4379
 20
40.4469
 11
-59.0729
 21
40.3532
  0
LINE
  8
0
 10
-59.0729
 20
40.3532
 11
-58.7227
 21
40.2145
  0
LINE
  8
0
 10
-58.7227
 20
40.2145
 11
-58.3925
 21
40.033
  0
LINE
  8
0
 10
-58.3925
 20
40.033
 11
-58.0877
 21
39.8115
  0
LINE
  8
0
 10
-58.0877
 20
39.8115
 11
-57.8131
 21
39.5536
  0
LINE
  8
0
 10
-57.8131
 20
39.5536
 11
-57.5729
 21
39.2634
  0
LINE
  8
0
 10
-57.5729
 20
39.2634
 11
-57.3711
 21
38.9453
  0
LINE
  8
0
 10
-57.3711
 20
38.9453
 11
-57.2107
 21
38.6044
  0
LINE
  8
0
 10
-57.2107
 20
38.6044
 11
-57.0942
 21
38.2461
  0
LINE
  8
0
 10
-57.0942
 20
38.2461
 11
-57.0237
 21
37.876
  0
LINE
  8
0
 10
-57.0237
 20
37.876
 11
-57
 21
37.5
  0
LINE
  8
0
 10
-57
 20
37.5
 11
-57.0237
 21
37.124
  0
LINE
  8
0
 10
-57.0237
 20
37.124
 11
-57.0942
 21
36.7539
  0
LINE
  8
0
 10
-57.0942
 20
36.7539
 11
-57.2107
 21
36.3956
  0
LINE
  8
0
 10
-57.2107
 20
36.3956
 11
-57.3711
 21
36.0547
  0
LINE
  8
0
 10
-57.3711
 20
36.0547
 11
-57.5729
 21
35.7366
  0
LINE
  8
0
 10
-57.5729
 20
35.7366
 11
-57.8131
 21
35.4464
  0
LINE
  8
0
 10
-57.8131
 20
35.4464
 11
-58.0877
 21
35.1885
  0
LINE
  8
0
 10
-58.0877
 20
35.1885
 11
-58.3925
 21
34.967
  0
LINE
  8
0
 10
-58.3925
 20
34.967
 11
-58.7227
 21
34.7855
  0
LINE
  8
0
 10
-58.7227
 20
34.7855
 11
-59.0729
 21
34.6468
  0
LINE
  8
0
 10
-59.0729
 20
34.6468
 11
-59.4379
 21
34.5531
  0
LINE
  8
0
 10
-59.4379
 20
34.5531
 11
-59.8116
 21
34.5059
  0
LINE
  8
0
 10
-59.8116
 20
34.5059
 11
-60.1884
 21
34.5059
  0
LINE
  8
0
 10
59.8116
 20
34.5059
 11
59.4379
 21
34.5531
  0
LINE
  8
0
 10
59.4379
 20
34.5531
 11
59.0729
 21
34.6468
  0
LINE
  8
0
 10
59.0729
 20
34.6468
 11
58.7227
 21
34.7855
  0
LINE
  8
0
 10
58.7227
 20
34.7855
 11
58.3925
 21
34.967
  0
LINE
  8
0
 10
58.3925
 20
34.967
 11
58.0877
 21
35.1885
  0
LINE
  8
0
 10
58.0877
 20
35.1885
 11
57.8131
 21
35.4464
  0
LINE
  8
0
 10
57.8131
 20
35.4464
 11
57.5729
 21
35.7366
  0
LINE
  8
0
 10
57.5729
 20
35.7366
 11
57.3711
 21
36.0547
  0
LINE
  8
0
 10
57.3711
 20
36.0547
 11
57.2107
 21
36.3956
  0
LINE
  8
0
 10
57.2107
 20
36.3956
 11
57.0942
 21
36.7539
  0
LINE
  8
0
 10
57.0942
 20
36.7539
 11
57.0237
 21
37.124
  0
LINE
  8
0
 10
57.0237
 20
37.124
 11
57
 21
37.5
  0
LINE
  8
0
 10
57
 20
37.5
 11
57.0237
 21
37.876
  0
LINE
  8
0
 10
57.0237
 20
37.876
 11
57.0942
 21
38.2461
  0
LINE
  8
0
 10
57.0942
 20
38.2461
 11
57.2107
 21
38.6044
  0
LINE
  8
0
 10
57.2107
 20
38.6044
 11
57.3711
 21
38.9453
  0
LINE
  8
0
 10
57.3711
 20
38.9453
 11
57.5729
 21
39.2634
  0
LINE
  8
0
 10
57.5729
 20
39.2634
 11
57.8131
 21
39.5536
  0
LINE
  8
0
 10
57.8131
 20
39.5536
 11
58.0877
 21
39.8115
  0
LINE
  8
0
 10
58.0877
 20
39.8115
 11
58.3925
 21
40.033
  0
LINE
  8
0
 10
58.3925
 20
40.033
 11
58.7227
 21
40.2145
  0
LINE
  8
0
 10
58.7227
 20
40.2145
 11
59.0729
 21
40.3532
  0
LINE
  8
0
 10
59.0729
 20
40.3532
 11
59.4379
 21
40.4469
  0
LINE
  8
0
 10
59.4379
 20
40.4469
 11
59.8116
 21
40.4941
  0
LINE
  8
0
 10
59.8116
 20
40.4941
 11
60.1884
 21
40.4941
  0
LINE
  8
0
 10
60.1884
 20
40.4941
 11
60.5621
 21
40.4469
  0
LINE
  8
0
 10
60.5621
 20
40.4469
 11
60.927
 21
40.3532
  0
LINE
  8
0
 10
60.927
 20
40.3532
 11
61.2773
 21
40.2145
  0
LINE
  8
0
 10
61.2773
 20
40.2145
 11
61.6075
 21
40.033
  0
LINE
  8
0
 10
61.6075
 20
40.033
 11
61.9123
 21
39.8115
  0
LINE
  8
0
 10
61.9123
 20
39.8115
 11
62.1869
 21
39.5536
  0
LINE
  8
0
 10
62.1869
 20
39.5536
 11
62.427
 21
39.2634
  0
LINE
  8
0
 10
62.427
 20
39.2634
 11
62.6289
 21
38.9453
  0
LINE
  8
0
 10
62.6289
 20
38.9453
 11
62.7893
 21
38.6044
  0
LINE
  8
0
 10
62.7893
 20
38.6044
 11
62.9057
 21
38.2461
  0
LINE
  8
0
 10
62.9057
 20
38.2461
 11
62.9763
 21
37.876
  0
LINE
  8
0
 10
62.9763
 20
37.876
 11
63
 21
37.5
  0
LINE
  8
0
 10
63
 20
37.5
 11
62.9763
 21
37.124
  0
LINE
  8
0
 10
62.9763
 20
37.124
 11
62.9057
 21
36.7539
  0
LINE
  8
0
 10
62.9057
 20
36.7539
 11
62.7893
 21
36.3956
  0
LINE
  8
0
 10
62.7893
 20
36.3956
 11
62.6289
 21
36.0547
  0
LINE
  8
0
 10
62.6289
 20
36.0547
 11
62.427
 21
35.7366
  0
LINE
  8
0
 10
62.427
 20
35.7366
 11
62.1869
 21
35.4464
  0
LINE
  8
0
 10
62.1869
 20
35.4464
 11
61.9123
 21
35.1885
  0
LINE
  8
0
 10
61.9123
 20
35.1885
 11
61.6075
 21
34.967
  0
LINE
  8
0
 10
61.6075
 20
34.967
 11
61.2773
 21
34.7855
  0
LINE
  8
0
 10
61.2773
 20
34.7855
 11
60.927
 21
34.6468
  0
LINE
  8
0
 10
60.927
 20
34.6468
 11
60.5621
 21
34.5531
  0
LINE
  8
0
 10
60.5621
 20
34.5531
 11
60.1884
 21
34.5059
  0
LINE
  8
0
 10
60.1884
 20
34.5059
 11
59.8116
 21
34.5059
  0
LINE
  8
0
 10
59.8116
 20
-40.4941
 11
59.4379
 21
-40.4469
  0
LINE
  8
0
 10
59.4379
 20
-40.4469
 11
59.0729
 21
-40.3532
  0
LINE
  8
0
 10
59.0729
 20
-40.3532
 11
58.7227
 21
-40.2145
  0
LINE
  8
0
 10
58.7227
 20
-40.2145
 11
58.3925
 21
-40.033
  0
LINE
  8
0
 10
58.3925
 20
-40.033
 11
58.0877
 21
-39.8115
  0
LINE
  8
0
 10
58.0877
 20
-39.8115
 11
57.8131
 21
-39.5536
  0
LINE
  8
0
 10
57.8131
 20
-39.5536
 11
57.5729
 21
-39.2634
  0
LINE
  8
0
 10
57.5729
 20
-39.2634
 11
57.3711
 21
-38.9453
  0
LINE
  8
0
 10
57.3711
 20
-38.9453
 11
57.2107
 21
-38.6044
  0
LINE
  8
0
 10
57.2107
 20
-38.6044
 11
57.0942
 21
-38.2461
  0
LINE
  8
0
 10
57.0942
 20
-38.2461
 11
57.0237
 21
-37.876
  0
LINE
  8
0
 10
57.0237
 20
-37.876
 11
57
 21
-37.5
  0
LINE
  8
0
 10
57
 20
-37.5
 11
57.0237
 21
-37.124
  0
LINE
  8
0
 10
57.0237
 20
-37.124
 11
57.0942
 21
-36.7539
  0
LINE
  8
0
 10
57.0942
 20
-36.7539
 11
57.2107
 21
-36.3956
  0
LINE
  8
0
 10
57.2107
 20
-36.3956
 11
57.3711
 21
-36.0547
  0
LINE
  8
0
 10
57.3711
 20
-36.0547
 11
57.5729
 21
-35.7366
  0
LINE
  8
0
 10
57.5729
 20
-35.7366
 11
57.8131
 21
-35.4464
  0
LINE
  8
0
 10
57.8131
 20
-35.4464
 11
58.0877
 21
-35.1885
  0
LINE
  8
0
 10
58.0877
 20
-35.1885
 11
58.3925
 21
-34.967
  0
LINE
  8
0
 10
58.3925
 20
-34.967
 11
58.7227
 21
-34.7855
  0
LINE
  8
0
 10
58.7227
 20
-34.7855
 11
59.0729
 21
-34.6468
  0
LINE
  8
0
 10
59.0729
 20
-34.6468
 11
59.4379
 21
-34.5531
  0
LINE
  8
0
 10
59.4379
 20
-34.5531
 11
59.8116
 21
-34.5059
  0
LINE
  8
0
 10
59.8116
 20
-34.5059
 11
60.1884
 21
-34.5059
  0
LINE
  8
0
 10
60.1884
 20
-34.5059
 11
60.5621
 21
-34.5531
  0
LINE
  8
0
 10
60.5621
 20
-34.5531
 11
60.927
 21
-34.6468
  0
LINE
  8
0
 10
60.927
 20
-34.6468
 11
61.2773
 21
-34.7855
  0
LINE
  8
0
 10
61.2773
 20
-34.7855
 11
61.6075
 21
-34.967
  0
LINE
  8
0
 10
61.6075
 20
-34.967
 11
61.9123
 21
-35.1885
  0
LINE
  8
0
 10
61.9123
 20
-35.1885
 11
62.1869
 21
-35.4464
  0
LINE
  8
0
 10
62.1869
 20
-35.4464
 11
62.427
 21
-35.7366
  0
LINE
  8
0
 10
62.427
 20
-35.7366
 11
62.6289
 21
-36.0547
  0
LINE
  8
0
 10
62.6289
 20
-36.0547
 11
62.7893
 21
-36.3956
  0
LINE
  8
0
 10
62.7893
 20
-36.3956
 11
62.9057
 21
-36.7539
  0
LINE
  8
0
 10
62.9057
 20
-36.7539
 11
62.9763
 21
-37.124
  0
LINE
  8
0
 10
62.9763
 20
-37.124
 11
63
 21
-37.5
  0
LINE
  8
0
 10
63
 20
-37.5
 11
62.9763
 21
-37.876
  0
LINE
  8
0
 10
62.9763
 20
-37.876
 11
62.9057
 21
-38.2461
  0
LINE
  8
0
 10
62.9057
 20
-38.2461
 11
62.7893
 21
-38.6044
  0
LINE
  8
0
 10
62.7893
 20
-38.6044
 11
62.6289
 21
-38.9453
  0
LINE
  8
0
 10
62.6289
 20
-38.9453
 11
62.427
 21
-39.2634
  0
LINE
  8
0
 10
62.427
 20
-39.2634
 11
62.1869
 21
-39.5536
  0
LINE
  8
0
 10
62.1869
 20
-39.5536
 11
61.9123
 21
-39.8115
  0
LINE
  8
0
 10
61.9123
 20
-39.8115
 11
61.6075
 21
-40.033
  0
LINE
  8
0
 10
61.6075
 20
-40.033
 11
61.2773
 21
-40.2145
  0
LINE
  8
0
 10
61.2773
 20
-40.2145
 11
60.927
 21
-40.3532
  0
LINE
  8
0
 10
60.927
 20
-40.3532
 11
60.5621
 21
-40.4469
  0
LINE
  8
0
 10
60.5621
 20
-40.4469
 11
60.1884
 21
-40.4941
  0
LINE
  8
0
 10
60.1884
 20
-40.4941
 11
59.8116
 21
-40.4941
  0
LINE
  8
0
 10
-60.1884
 20
-40.4941
 11
-60.5621
 21
-40.4469
  0
LINE
  8
0
 10
-60.5621
 20
-40.4469
 11
-60.927
 21
-40.3532
  0
LINE
  8
0
 10
-60.927
 20
-40.3532
 11
-61.2773
 21
-40.2145
  0
LINE
  8
0
 10
-61.2773
 20
-40.2145
 11
-61.6075
 21
-40.033
  0
LINE
  8
0
 10
-61.6075
 20
-40.033
 11
-61.9123
 21
-39.8115
  0
LINE
  8
0
 10
-61.9123
 20
-39.8115
 11
-62.1869
 21
-39.5536
  0
LINE
  8
0
 10
-62.1869
 20
-39.5536
 11
-62.427
 21
-39.2634
  0
LINE
  8
0
 10
-62.427
 20
-39.2634
 11
-62.6289
 21
-38.9453
  0
LINE
  8
0
 10
-62.6289
 20
-38.9453
 11
-62.7893
 21
-38.6044
  0
LINE
  8
0
 10
-62.7893
 20
-38.6044
 11
-62.9057
 21
-38.2461
  0
LINE
  8
0
 10
-62.9057
 20
-38.2461
 11
-62.9763
 21
-37.876
  0
LINE
  8
0
 10
-62.9763
 20
-37.876
 11
-63
 21
-37.5
  0
LINE
  8
0
 10
-63
 20
-37.5
 11
-62.9763
 21
-37.124
  0
LINE
  8
0
 10
-62.9763
 20
-37.124
 11
-62.9057
 21
-36.7539
  0
LINE
  8
0
 10
-62.9057
 20
-36.7539
 11
-62.7893
 21
-36.3956
  0
LINE
  8
0
 10
-62.7893
 20
-36.3956
 11
-62.6289
 21
-36.0547
  0
LINE
  8
0
 10
-62.6289
 20
-36.0547
 11
-62.427
 21
-35.7366
  0
LINE
  8
0
 10
-62.427
 20
-35.7366
 11
-62.1869
 21
-35.4464
  0
LINE
  8
0
 10
-62.1869
 20
-35.4464
 11
-61.9123
 21
-35.1885
  0
LINE
  8
0
 10
-61.9123
 20
-35.1885
 11
-61.6075
 21
-34.967
  0
LINE
  8
0
 10
-61.6075
 20
-34.967
 11
-61.2773
 21
-34.7855
  0
LINE
  8
0
 10
-61.2773
 20
-34.7855
 11
-60.927
 21
-34.6468
  0
LINE
  8
0
 10
-60.927
 20
-34.6468
 11
-60.5621
 21
-34.5531
  0
LINE
  8
0
 10
-60.5621
 20
-34.5531
 11
-60.1884
 21
-34.5059
  0
LINE
  8
0
 10
-60.1884
 20
-34.5059
 11
-59.8116
 21
-34.5059
  0
LINE
  8
0
 10
-59.8116
 20
-34.5059
 11
-59.4379
 21
-34.5531
  0
LINE
  8
0
 10
-59.4379
 20
-34.5531
 11
-59.0729
 21
-34.6468
  0
LINE
  8
0
 10
-59.0729
 20
-34.6468
 11
-58.7227
 21
-34.7855
  0
LINE
  8
0
 10
-58.7227
 20
-34.7855
 11
-58.3925
 21
-34.967
  0
LINE
  8
0
 10
-58.3925
 20
-34.967
 11
-58.0877
 21
-35.1885
  0
LINE
  8
0
 10
-58.0877
 20
-35.1885
 11
-57.8131
 21
-35.4464
  0
LINE
  8
0
 10
-57.8131
 20
-35.4464
 11
-57.5729
 21
-35.7366
  0
LINE
  8
0
 10
-57.5729
 20
-35.7366
 11
-57.3711
 21
-36.0547
  0
LINE
  8
0
 10
-57.3711
 20
-36.0547
 11
-57.2107
 21
-36.3956
  0
LINE
  8
0
 10
-57.2107
 20
-36.3956
 11
-57.0942
 21
-36.7539
  0
LINE
  8
0
 10
-57.0942
 20
-36.7539
 11
-57.0237
 21
-37.124
  0
LINE
  8
0
 10
-57.0237
 20
-37.124
 11
-57
 21
-37.5
  0
LINE
  8
0
 10
-57
 20
-37.5
 11
-57.0237
 21
-37.876
  0
LINE
  8
0
 10
-57.0237
 20
-37.876
 11
-57.0942
 21
-38.2461
  0
LINE
  8
0
 10
-57.0942
 20
-38.2461
 11
-57.2107
 21
-38.6044
  0
LINE
  8
0
 10
-57.2107
 20
-38.6044
 11
-57.3711
 21
-38.9453
  0
LINE
  8
0
 10
-57.3711
 20
-38.9453
 11
-57.5729
 21
-39.2634
  0
LINE
  8
0
 10
-57.5729
 20
-39.2634
 11
-57.8131
 21
-39.5536
  0
LINE
  8
0
 10
-57.8131
 20
-39.5536
 11
-58.0877
 21
-39.8115
  0
LINE
  8
0
 10
-58.0877
 20
-39.8115
 11
-58.3925
 21
-40.033
  0
LINE
  8
0
 10
-58.3925
 20
-40.033
 11
-58.7227
 21
-40.2145
  0
LINE
  8
0
 10
-58.7227
 20
-40.2145
 11
-59.0729
 21
-40.3532
  0
LINE
  8
0
 10
-59.0729
 20
-40.3532
 11
-59.4379
 21
-40.4469
  0
LINE
  8
0
 10
-59.4379
 20
-40.4469
 11
-59.8116
 21
-40.4941
  0
LINE
  8
0
 10
-59.8116
 20
-40.4941
 11
-60.1884
 21
-40.4941
  0
ENDSEC
  0
SECTION
  2
OBJECTS
  0
DICTIONARY
  0
ENDSEC
  0
EOF
