  0
SECTION
  2
BLOCKS
  0
ENDSEC
  0
SECTION
  2
ENTITIES
  0
LINE
  8
0
 10
107.937
 20
-51.9114
 11
108.545
 21
-51.7553
  0
LINE
  8
0
 10
108.545
 20
-51.7553
 11
109.129
 21
-51.5241
  0
LINE
  8
0
 10
109.129
 20
-51.5241
 11
109.679
 21
-51.2216
  0
LINE
  8
0
 10
109.679
 20
-51.2216
 11
110.187
 21
-50.8526
  0
LINE
  8
0
 10
110.187
 20
-50.8526
 11
110.645
 21
-50.4227
  0
LINE
  8
0
 10
110.645
 20
-50.4227
 11
111.045
 21
-49.9389
  0
LINE
  8
0
 10
111.045
 20
-49.9389
 11
111.382
 21
-49.4088
  0
LINE
  8
0
 10
111.382
 20
-49.4088
 11
111.649
 21
-48.8406
  0
LINE
  8
0
 10
111.649
 20
-48.8406
 11
111.843
 21
-48.2434
  0
LINE
  8
0
 10
111.843
 20
-48.2434
 11
111.961
 21
-47.6267
  0
LINE
  8
0
 10
111.961
 20
-47.6267
 11
112
 21
-47
  0
LINE
  8
0
 10
112
 20
-47
 11
112
 21
47
  0
LINE
  8
0
 10
112
 20
47
 11
111.961
 21
47.6267
  0
LINE
  8
0
 10
111.961
 20
47.6267
 11
111.843
 21
48.2434
  0
LINE
  8
0
 10
111.843
 20
48.2434
 11
111.649
 21
48.8406
  0
LINE
  8
0
 10
111.649
 20
48.8406
 11
111.382
 21
49.4088
  0
LINE
  8
0
 10
111.382
 20
49.4088
 11
111.045
 21
49.9389
  0
LINE
  8
0
 10
111.045
 20
49.9389
 11
110.645
 21
50.4227
  0
LINE
  8
0
 10
110.645
 20
50.4227
 11
110.187
 21
50.8526
  0
LINE
  8
0
 10
110.187
 20
50.8526
 11
109.679
 21
51.2216
  0
LINE
  8
0
 10
109.679
 20
51.2216
 11
109.129
 21
51.5241
  0
LINE
  8
0
 10
109.129
 20
51.5241
 11
108.545
 21
51.7553
  0
LINE
  8
0
 10
108.545
 20
51.7553
 11
107.937
 21
51.9114
  0
LINE
  8
0
 10
107.937
 20
51.9114
 11
107.314
 21
51.9901
  0
LINE
  8
0
 10
107.314
 20
51.9901
 11
-107.314
 21
51.9901
  0
LINE
  8
0
 10
-107.314
 20
51.9901
 11
-107.937
 21
51.9114
  0
LINE
  8
0
 10
-107.937
 20
51.9114
 11
-108.545
 21
51.7553
  0
LINE
  8
0
 10
-108.545
 20
51.7553
 11
-109.129
 21
51.5241
  0
LINE
  8
0
 10
-109.129
 20
51.5241
 11
-109.679
 21
51.2216
  0
LINE
  8
0
 10
-109.679
 20
51.2216
 11
-110.187
 21
50.8526
  0
LINE
  8
0
 10
-110.187
 20
50.8526
 11
-110.645
 21
50.4227
  0
LINE
  8
0
 10
-110.645
 20
50.4227
 11
-111.045
 21
49.9389
  0
LINE
  8
0
 10
-111.045
 20
49.9389
 11
-111.382
 21
49.4088
  0
LINE
  8
0
 10
-111.382
 20
49.4088
 11
-111.649
 21
48.8406
  0
LINE
  8
0
 10
-111.649
 20
48.8406
 11
-111.843
 21
48.2434
  0
LINE
  8
0
 10
-111.843
 20
48.2434
 11
-111.961
 21
47.6267
  0
LINE
  8
0
 10
-111.961
 20
47.6267
 11
-112
 21
47
  0
LINE
  8
0
 10
-112
 20
47
 11
-112
 21
-47
  0
LINE
  8
0
 10
-112
 20
-47
 11
-111.961
 21
-47.6267
  0
LINE
  8
0
 10
-111.961
 20
-47.6267
 11
-111.843
 21
-48.2434
  0
LINE
  8
0
 10
-111.843
 20
-48.2434
 11
-111.649
 21
-48.8406
  0
LINE
  8
0
 10
-111.649
 20
-48.8406
 11
-111.382
 21
-49.4088
  0
LINE
  8
0
 10
-111.382
 20
-49.4088
 11
-111.045
 21
-49.9389
  0
LINE
  8
0
 10
-111.045
 20
-49.9389
 11
-110.645
 21
-50.4227
  0
LINE
  8
0
 10
-110.645
 20
-50.4227
 11
-110.187
 21
-50.8526
  0
LINE
  8
0
 10
-110.187
 20
-50.8526
 11
-109.679
 21
-51.2216
  0
LINE
  8
0
 10
-109.679
 20
-51.2216
 11
-109.129
 21
-51.5241
  0
LINE
  8
0
 10
-109.129
 20
-51.5241
 11
-108.545
 21
-51.7553
  0
LINE
  8
0
 10
-108.545
 20
-51.7553
 11
-107.937
 21
-51.9114
  0
LINE
  8
0
 10
-107.937
 20
-51.9114
 11
-107.314
 21
-51.9901
  0
LINE
  8
0
 10
-107.314
 20
-51.9901
 11
107.314
 21
-51.9901
  0
LINE
  8
0
 10
107.314
 20
-51.9901
 11
107.937
 21
-51.9114
  0
LINE
  8
0
 10
-105.188
 20
42.0059
 11
-105.562
 21
42.0531
  0
LINE
  8
0
 10
-105.562
 20
42.0531
 11
-105.927
 21
42.1468
  0
LINE
  8
0
 10
-105.927
 20
42.1468
 11
-106.277
 21
42.2855
  0
LINE
  8
0
 10
-106.277
 20
42.2855
 11
-106.607
 21
42.467
  0
LINE
  8
0
 10
-106.607
 20
42.467
 11
-106.912
 21
42.6885
  0
LINE
  8
0
 10
-106.912
 20
42.6885
 11
-107.187
 21
42.9464
  0
LINE
  8
0
 10
-107.187
 20
42.9464
 11
-107.427
 21
43.2366
  0
LINE
  8
0
 10
-107.427
 20
43.2366
 11
-107.629
 21
43.5547
  0
LINE
  8
0
 10
-107.629
 20
43.5547
 11
-107.789
 21
43.8956
  0
LINE
  8
0
 10
-107.789
 20
43.8956
 11
-107.906
 21
44.2539
  0
LINE
  8
0
 10
-107.906
 20
44.2539
 11
-107.976
 21
44.624
  0
LINE
  8
0
 10
-107.976
 20
44.624
 11
-108
 21
45
  0
LINE
  8
0
 10
-108
 20
45
 11
-107.976
 21
45.376
  0
LINE
  8
0
 10
-107.976
 20
45.376
 11
-107.906
 21
45.7461
  0
LINE
  8
0
 10
-107.906
 20
45.7461
 11
-107.789
 21
46.1044
  0
LINE
  8
0
 10
-107.789
 20
46.1044
 11
-107.629
 21
46.4453
  0
LINE
  8
0
 10
-107.629
 20
46.4453
 11
-107.427
 21
46.7634
  0
LINE
  8
0
 10
-107.427
 20
46.7634
 11
-107.187
 21
47.0536
  0
LINE
  8
0
 10
-107.187
 20
47.0536
 11
-106.912
 21
47.3115
  0
LINE
  8
0
 10
-106.912
 20
47.3115
 11
-106.607
 21
47.533
  0
LINE
  8
0
 10
-106.607
 20
47.533
 11
-106.277
 21
47.7145
  0
LINE
  8
0
 10
-106.277
 20
47.7145
 11
-105.927
 21
47.8532
  0
LINE
  8
0
 10
-105.927
 20
47.8532
 11
-105.562
 21
47.9469
  0
LINE
  8
0
 10
-105.562
 20
47.9469
 11
-105.188
 21
47.9941
  0
LINE
  8
0
 10
-105.188
 20
47.9941
 11
-104.812
 21
47.9941
  0
LINE
  8
0
 10
-104.812
 20
47.9941
 11
-104.438
 21
47.9469
  0
LINE
  8
0
 10
-104.438
 20
47.9469
 11
-104.073
 21
47.8532
  0
LINE
  8
0
 10
-104.073
 20
47.8532
 11
-103.723
 21
47.7145
  0
LINE
  8
0
 10
-103.723
 20
47.7145
 11
-103.393
 21
47.533
  0
LINE
  8
0
 10
-103.393
 20
47.533
 11
-103.088
 21
47.3115
  0
LINE
  8
0
 10
-103.088
 20
47.3115
 11
-102.813
 21
47.0536
  0
LINE
  8
0
 10
-102.813
 20
47.0536
 11
-102.573
 21
46.7634
  0
LINE
  8
0
 10
-102.573
 20
46.7634
 11
-102.371
 21
46.4453
  0
LINE
  8
0
 10
-102.371
 20
46.4453
 11
-102.211
 21
46.1044
  0
LINE
  8
0
 10
-102.211
 20
46.1044
 11
-102.094
 21
45.7461
  0
LINE
  8
0
 10
-102.094
 20
45.7461
 11
-102.024
 21
45.376
  0
LINE
  8
0
 10
-102.024
 20
45.376
 11
-102
 21
45
  0
LINE
  8
0
 10
-102
 20
45
 11
-102.024
 21
44.624
  0
LINE
  8
0
 10
-102.024
 20
44.624
 11
-102.094
 21
44.2539
  0
LINE
  8
0
 10
-102.094
 20
44.2539
 11
-102.211
 21
43.8956
  0
LINE
  8
0
 10
-102.211
 20
43.8956
 11
-102.371
 21
43.5547
  0
LINE
  8
0
 10
-102.371
 20
43.5547
 11
-102.573
 21
43.2366
  0
LINE
  8
0
 10
-102.573
 20
43.2366
 11
-102.813
 21
42.9464
  0
LINE
  8
0
 10
-102.813
 20
42.9464
 11
-103.088
 21
42.6885
  0
LINE
  8
0
 10
-103.088
 20
42.6885
 11
-103.393
 21
42.467
  0
LINE
  8
0
 10
-103.393
 20
42.467
 11
-103.723
 21
42.2855
  0
LINE
  8
0
 10
-103.723
 20
42.2855
 11
-104.073
 21
42.1468
  0
LINE
  8
0
 10
-104.073
 20
42.1468
 11
-104.438
 21
42.0531
  0
LINE
  8
0
 10
-104.438
 20
42.0531
 11
-104.812
 21
42.0059
  0
LINE
  8
0
 10
-104.812
 20
42.0059
 11
-105.188
 21
42.0059
  0
LINE
  8
0
 10
104.812
 20
42.0059
 11
104.438
 21
42.0531
  0
LINE
  8
0
 10
104.438
 20
42.0531
 11
104.073
 21
42.1468
  0
LINE
  8
0
 10
104.073
 20
42.1468
 11
103.723
 21
42.2855
  0
LINE
  8
0
 10
103.723
 20
42.2855
 11
103.393
 21
42.467
  0
LINE
  8
0
 10
103.393
 20
42.467
 11
103.088
 21
42.6885
  0
LINE
  8
0
 10
103.088
 20
42.6885
 11
102.813
 21
42.9464
  0
LINE
  8
0
 10
102.813
 20
42.9464
 11
102.573
 21
43.2366
  0
LINE
  8
0
 10
102.573
 20
43.2366
 11
102.371
 21
43.5547
  0
LINE
  8
0
 10
102.371
 20
43.5547
 11
102.211
 21
43.8956
  0
LINE
  8
0
 10
102.211
 20
43.8956
 11
102.094
 21
44.2539
  0
LINE
  8
0
 10
102.094
 20
44.2539
 11
102.024
 21
44.624
  0
LINE
  8
0
 10
102.024
 20
44.624
 11
102
 21
45
  0
LINE
  8
0
 10
102
 20
45
 11
102.024
 21
45.376
  0
LINE
  8
0
 10
102.024
 20
45.376
 11
102.094
 21
45.7461
  0
LINE
  8
0
 10
102.094
 20
45.7461
 11
102.211
 21
46.1044
  0
LINE
  8
0
 10
102.211
 20
46.1044
 11
102.371
 21
46.4453
  0
LINE
  8
0
 10
102.371
 20
46.4453
 11
102.573
 21
46.7634
  0
LINE
  8
0
 10
102.573
 20
46.7634
 11
102.813
 21
47.0536
  0
LINE
  8
0
 10
102.813
 20
47.0536
 11
103.088
 21
47.3115
  0
LINE
  8
0
 10
103.088
 20
47.3115
 11
103.393
 21
47.533
  0
LINE
  8
0
 10
103.393
 20
47.533
 11
103.723
 21
47.7145
  0
LINE
  8
0
 10
103.723
 20
47.7145
 11
104.073
 21
47.8532
  0
LINE
  8
0
 10
104.073
 20
47.8532
 11
104.438
 21
47.9469
  0
LINE
  8
0
 10
104.438
 20
47.9469
 11
104.812
 21
47.9941
  0
LINE
  8
0
 10
104.812
 20
47.9941
 11
105.188
 21
47.9941
  0
LINE
  8
0
 10
105.188
 20
47.9941
 11
105.562
 21
47.9469
  0
LINE
  8
0
 10
105.562
 20
47.9469
 11
105.927
 21
47.8532
  0
LINE
  8
0
 10
105.927
 20
47.8532
 11
106.277
 21
47.7145
  0
LINE
  8
0
 10
106.277
 20
47.7145
 11
106.607
 21
47.533
  0
LINE
  8
0
 10
106.607
 20
47.533
 11
106.912
 21
47.3115
  0
LINE
  8
0
 10
106.912
 20
47.3115
 11
107.187
 21
47.0536
  0
LINE
  8
0
 10
107.187
 20
47.0536
 11
107.427
 21
46.7634
  0
LINE
  8
0
 10
107.427
 20
46.7634
 11
107.629
 21
46.4453
  0
LINE
  8
0
 10
107.629
 20
46.4453
 11
107.789
 21
46.1044
  0
LINE
  8
0
 10
107.789
 20
46.1044
 11
107.906
 21
45.7461
  0
LINE
  8
0
 10
107.906
 20
45.7461
 11
107.976
 21
45.376
  0
LINE
  8
0
 10
107.976
 20
45.376
 11
108
 21
45
  0
LINE
  8
0
 10
108
 20
45
 11
107.976
 21
44.624
  0
LINE
  8
0
 10
107.976
 20
44.624
 11
107.906
 21
44.2539
  0
LINE
  8
0
 10
107.906
 20
44.2539
 11
107.789
 21
43.8956
  0
LINE
  8
0
 10
107.789
 20
43.8956
 11
107.629
 21
43.5547
  0
LINE
  8
0
 10
107.629
 20
43.5547
 11
107.427
 21
43.2366
  0
LINE
  8
0
 10
107.427
 20
43.2366
 11
107.187
 21
42.9464
  0
LINE
  8
0
 10
107.187
 20
42.9464
 11
106.912
 21
42.6885
  0
LINE
  8
0
 10
106.912
 20
42.6885
 11
106.607
 21
42.467
  0
LINE
  8
0
 10
106.607
 20
42.467
 11
106.277
 21
42.2855
  0
LINE
  8
0
 10
106.277
 20
42.2855
 11
105.927
 21
42.1468
  0
LINE
  8
0
 10
105.927
 20
42.1468
 11
105.562
 21
42.0531
  0
LINE
  8
0
 10
105.562
 20
42.0531
 11
105.188
 21
42.0059
  0
LINE
  8
0
 10
105.188
 20
42.0059
 11
104.812
 21
42.0059
  0
LINE
  8
0
 10
-105.188
 20
-47.9941
 11
-105.562
 21
-47.9469
  0
LINE
  8
0
 10
-105.562
 20
-47.9469
 11
-105.927
 21
-47.8532
  0
LINE
  8
0
 10
-105.927
 20
-47.8532
 11
-106.277
 21
-47.7145
  0
LINE
  8
0
 10
-106.277
 20
-47.7145
 11
-106.607
 21
-47.533
  0
LINE
  8
0
 10
-106.607
 20
-47.533
 11
-106.912
 21
-47.3115
  0
LINE
  8
0
 10
-106.912
 20
-47.3115
 11
-107.187
 21
-47.0536
  0
LINE
  8
0
 10
-107.187
 20
-47.0536
 11
-107.427
 21
-46.7634
  0
LINE
  8
0
 10
-107.427
 20
-46.7634
 11
-107.629
 21
-46.4453
  0
LINE
  8
0
 10
-107.629
 20
-46.4453
 11
-107.789
 21
-46.1044
  0
LINE
  8
0
 10
-107.789
 20
-46.1044
 11
-107.906
 21
-45.7461
  0
LINE
  8
0
 10
-107.906
 20
-45.7461
 11
-107.976
 21
-45.376
  0
LINE
  8
0
 10
-107.976
 20
-45.376
 11
-108
 21
-45
  0
LINE
  8
0
 10
-108
 20
-45
 11
-107.976
 21
-44.624
  0
LINE
  8
0
 10
-107.976
 20
-44.624
 11
-107.906
 21
-44.2539
  0
LINE
  8
0
 10
-107.906
 20
-44.2539
 11
-107.789
 21
-43.8956
  0
LINE
  8
0
 10
-107.789
 20
-43.8956
 11
-107.629
 21
-43.5547
  0
LINE
  8
0
 10
-107.629
 20
-43.5547
 11
-107.427
 21
-43.2366
  0
LINE
  8
0
 10
-107.427
 20
-43.2366
 11
-107.187
 21
-42.9464
  0
LINE
  8
0
 10
-107.187
 20
-42.9464
 11
-106.912
 21
-42.6885
  0
LINE
  8
0
 10
-106.912
 20
-42.6885
 11
-106.607
 21
-42.467
  0
LINE
  8
0
 10
-106.607
 20
-42.467
 11
-106.277
 21
-42.2855
  0
LINE
  8
0
 10
-106.277
 20
-42.2855
 11
-105.927
 21
-42.1468
  0
LINE
  8
0
 10
-105.927
 20
-42.1468
 11
-105.562
 21
-42.0531
  0
LINE
  8
0
 10
-105.562
 20
-42.0531
 11
-105.188
 21
-42.0059
  0
LINE
  8
0
 10
-105.188
 20
-42.0059
 11
-104.812
 21
-42.0059
  0
LINE
  8
0
 10
-104.812
 20
-42.0059
 11
-104.438
 21
-42.0531
  0
LINE
  8
0
 10
-104.438
 20
-42.0531
 11
-104.073
 21
-42.1468
  0
LINE
  8
0
 10
-104.073
 20
-42.1468
 11
-103.723
 21
-42.2855
  0
LINE
  8
0
 10
-103.723
 20
-42.2855
 11
-103.393
 21
-42.467
  0
LINE
  8
0
 10
-103.393
 20
-42.467
 11
-103.088
 21
-42.6885
  0
LINE
  8
0
 10
-103.088
 20
-42.6885
 11
-102.813
 21
-42.9464
  0
LINE
  8
0
 10
-102.813
 20
-42.9464
 11
-102.573
 21
-43.2366
  0
LINE
  8
0
 10
-102.573
 20
-43.2366
 11
-102.371
 21
-43.5547
  0
LINE
  8
0
 10
-102.371
 20
-43.5547
 11
-102.211
 21
-43.8956
  0
LINE
  8
0
 10
-102.211
 20
-43.8956
 11
-102.094
 21
-44.2539
  0
LINE
  8
0
 10
-102.094
 20
-44.2539
 11
-102.024
 21
-44.624
  0
LINE
  8
0
 10
-102.024
 20
-44.624
 11
-102
 21
-45
  0
LINE
  8
0
 10
-102
 20
-45
 11
-102.024
 21
-45.376
  0
LINE
  8
0
 10
-102.024
 20
-45.376
 11
-102.094
 21
-45.7461
  0
LINE
  8
0
 10
-102.094
 20
-45.7461
 11
-102.211
 21
-46.1044
  0
LINE
  8
0
 10
-102.211
 20
-46.1044
 11
-102.371
 21
-46.4453
  0
LINE
  8
0
 10
-102.371
 20
-46.4453
 11
-102.573
 21
-46.7634
  0
LINE
  8
0
 10
-102.573
 20
-46.7634
 11
-102.813
 21
-47.0536
  0
LINE
  8
0
 10
-102.813
 20
-47.0536
 11
-103.088
 21
-47.3115
  0
LINE
  8
0
 10
-103.088
 20
-47.3115
 11
-103.393
 21
-47.533
  0
LINE
  8
0
 10
-103.393
 20
-47.533
 11
-103.723
 21
-47.7145
  0
LINE
  8
0
 10
-103.723
 20
-47.7145
 11
-104.073
 21
-47.8532
  0
LINE
  8
0
 10
-104.073
 20
-47.8532
 11
-104.438
 21
-47.9469
  0
LINE
  8
0
 10
-104.438
 20
-47.9469
 11
-104.812
 21
-47.9941
  0
LINE
  8
0
 10
-104.812
 20
-47.9941
 11
-105.188
 21
-47.9941
  0
LINE
  8
0
 10
104.812
 20
-47.9941
 11
104.438
 21
-47.9469
  0
LINE
  8
0
 10
104.438
 20
-47.9469
 11
104.073
 21
-47.8532
  0
LINE
  8
0
 10
104.073
 20
-47.8532
 11
103.723
 21
-47.7145
  0
LINE
  8
0
 10
103.723
 20
-47.7145
 11
103.393
 21
-47.533
  0
LINE
  8
0
 10
103.393
 20
-47.533
 11
103.088
 21
-47.3115
  0
LINE
  8
0
 10
103.088
 20
-47.3115
 11
102.813
 21
-47.0536
  0
LINE
  8
0
 10
102.813
 20
-47.0536
 11
102.573
 21
-46.7634
  0
LINE
  8
0
 10
102.573
 20
-46.7634
 11
102.371
 21
-46.4453
  0
LINE
  8
0
 10
102.371
 20
-46.4453
 11
102.211
 21
-46.1044
  0
LINE
  8
0
 10
102.211
 20
-46.1044
 11
102.094
 21
-45.7461
  0
LINE
  8
0
 10
102.094
 20
-45.7461
 11
102.024
 21
-45.376
  0
LINE
  8
0
 10
102.024
 20
-45.376
 11
102
 21
-45
  0
LINE
  8
0
 10
102
 20
-45
 11
102.024
 21
-44.624
  0
LINE
  8
0
 10
102.024
 20
-44.624
 11
102.094
 21
-44.2539
  0
LINE
  8
0
 10
102.094
 20
-44.2539
 11
102.211
 21
-43.8956
  0
LINE
  8
0
 10
102.211
 20
-43.8956
 11
102.371
 21
-43.5547
  0
LINE
  8
0
 10
102.371
 20
-43.5547
 11
102.573
 21
-43.2366
  0
LINE
  8
0
 10
102.573
 20
-43.2366
 11
102.813
 21
-42.9464
  0
LINE
  8
0
 10
102.813
 20
-42.9464
 11
103.088
 21
-42.6885
  0
LINE
  8
0
 10
103.088
 20
-42.6885
 11
103.393
 21
-42.467
  0
LINE
  8
0
 10
103.393
 20
-42.467
 11
103.723
 21
-42.2855
  0
LINE
  8
0
 10
103.723
 20
-42.2855
 11
104.073
 21
-42.1468
  0
LINE
  8
0
 10
104.073
 20
-42.1468
 11
104.438
 21
-42.0531
  0
LINE
  8
0
 10
104.438
 20
-42.0531
 11
104.812
 21
-42.0059
  0
LINE
  8
0
 10
104.812
 20
-42.0059
 11
105.188
 21
-42.0059
  0
LINE
  8
0
 10
105.188
 20
-42.0059
 11
105.562
 21
-42.0531
  0
LINE
  8
0
 10
105.562
 20
-42.0531
 11
105.927
 21
-42.1468
  0
LINE
  8
0
 10
105.927
 20
-42.1468
 11
106.277
 21
-42.2855
  0
LINE
  8
0
 10
106.277
 20
-42.2855
 11
106.607
 21
-42.467
  0
LINE
  8
0
 10
106.607
 20
-42.467
 11
106.912
 21
-42.6885
  0
LINE
  8
0
 10
106.912
 20
-42.6885
 11
107.187
 21
-42.9464
  0
LINE
  8
0
 10
107.187
 20
-42.9464
 11
107.427
 21
-43.2366
  0
LINE
  8
0
 10
107.427
 20
-43.2366
 11
107.629
 21
-43.5547
  0
LINE
  8
0
 10
107.629
 20
-43.5547
 11
107.789
 21
-43.8956
  0
LINE
  8
0
 10
107.789
 20
-43.8956
 11
107.906
 21
-44.2539
  0
LINE
  8
0
 10
107.906
 20
-44.2539
 11
107.976
 21
-44.624
  0
LINE
  8
0
 10
107.976
 20
-44.624
 11
108
 21
-45
  0
LINE
  8
0
 10
108
 20
-45
 11
107.976
 21
-45.376
  0
LINE
  8
0
 10
107.976
 20
-45.376
 11
107.906
 21
-45.7461
  0
LINE
  8
0
 10
107.906
 20
-45.7461
 11
107.789
 21
-46.1044
  0
LINE
  8
0
 10
107.789
 20
-46.1044
 11
107.629
 21
-46.4453
  0
LINE
  8
0
 10
107.629
 20
-46.4453
 11
107.427
 21
-46.7634
  0
LINE
  8
0
 10
107.427
 20
-46.7634
 11
107.187
 21
-47.0536
  0
LINE
  8
0
 10
107.187
 20
-47.0536
 11
106.912
 21
-47.3115
  0
LINE
  8
0
 10
106.912
 20
-47.3115
 11
106.607
 21
-47.533
  0
LINE
  8
0
 10
106.607
 20
-47.533
 11
106.277
 21
-47.7145
  0
LINE
  8
0
 10
106.277
 20
-47.7145
 11
105.927
 21
-47.8532
  0
LINE
  8
0
 10
105.927
 20
-47.8532
 11
105.562
 21
-47.9469
  0
LINE
  8
0
 10
105.562
 20
-47.9469
 11
105.188
 21
-47.9941
  0
LINE
  8
0
 10
105.188
 20
-47.9941
 11
104.812
 21
-47.9941
  0
ENDSEC
  0
SECTION
  2
OBJECTS
  0
DICTIONARY
  0
ENDSEC
  0
EOF
