  0
SECTION
  2
BLOCKS
  0
ENDSEC
  0
SECTION
  2
ENTITIES
  0
LINE
  8
0
 10
107.937
 20
-81.9114
 11
108.545
 21
-81.7553
  0
LINE
  8
0
 10
108.545
 20
-81.7553
 11
109.129
 21
-81.5241
  0
LINE
  8
0
 10
109.129
 20
-81.5241
 11
109.679
 21
-81.2216
  0
LINE
  8
0
 10
109.679
 20
-81.2216
 11
110.187
 21
-80.8526
  0
LINE
  8
0
 10
110.187
 20
-80.8526
 11
110.645
 21
-80.4227
  0
LINE
  8
0
 10
110.645
 20
-80.4227
 11
111.045
 21
-79.9389
  0
LINE
  8
0
 10
111.045
 20
-79.9389
 11
111.382
 21
-79.4088
  0
LINE
  8
0
 10
111.382
 20
-79.4088
 11
111.649
 21
-78.8406
  0
LINE
  8
0
 10
111.649
 20
-78.8406
 11
111.843
 21
-78.2434
  0
LINE
  8
0
 10
111.843
 20
-78.2434
 11
111.961
 21
-77.6267
  0
LINE
  8
0
 10
111.961
 20
-77.6267
 11
112
 21
-77
  0
LINE
  8
0
 10
112
 20
-77
 11
112
 21
77
  0
LINE
  8
0
 10
112
 20
77
 11
111.961
 21
77.6267
  0
LINE
  8
0
 10
111.961
 20
77.6267
 11
111.843
 21
78.2434
  0
LINE
  8
0
 10
111.843
 20
78.2434
 11
111.649
 21
78.8406
  0
LINE
  8
0
 10
111.649
 20
78.8406
 11
111.382
 21
79.4088
  0
LINE
  8
0
 10
111.382
 20
79.4088
 11
111.045
 21
79.9389
  0
LINE
  8
0
 10
111.045
 20
79.9389
 11
110.645
 21
80.4227
  0
LINE
  8
0
 10
110.645
 20
80.4227
 11
110.187
 21
80.8526
  0
LINE
  8
0
 10
110.187
 20
80.8526
 11
109.679
 21
81.2216
  0
LINE
  8
0
 10
109.679
 20
81.2216
 11
109.129
 21
81.5241
  0
LINE
  8
0
 10
109.129
 20
81.5241
 11
108.545
 21
81.7553
  0
LINE
  8
0
 10
108.545
 20
81.7553
 11
107.937
 21
81.9114
  0
LINE
  8
0
 10
107.937
 20
81.9114
 11
107.314
 21
81.9901
  0
LINE
  8
0
 10
107.314
 20
81.9901
 11
-107.314
 21
81.9901
  0
LINE
  8
0
 10
-107.314
 20
81.9901
 11
-107.937
 21
81.9114
  0
LINE
  8
0
 10
-107.937
 20
81.9114
 11
-108.545
 21
81.7553
  0
LINE
  8
0
 10
-108.545
 20
81.7553
 11
-109.129
 21
81.5241
  0
LINE
  8
0
 10
-109.129
 20
81.5241
 11
-109.679
 21
81.2216
  0
LINE
  8
0
 10
-109.679
 20
81.2216
 11
-110.187
 21
80.8526
  0
LINE
  8
0
 10
-110.187
 20
80.8526
 11
-110.645
 21
80.4227
  0
LINE
  8
0
 10
-110.645
 20
80.4227
 11
-111.045
 21
79.9389
  0
LINE
  8
0
 10
-111.045
 20
79.9389
 11
-111.382
 21
79.4088
  0
LINE
  8
0
 10
-111.382
 20
79.4088
 11
-111.649
 21
78.8406
  0
LINE
  8
0
 10
-111.649
 20
78.8406
 11
-111.843
 21
78.2434
  0
LINE
  8
0
 10
-111.843
 20
78.2434
 11
-111.961
 21
77.6267
  0
LINE
  8
0
 10
-111.961
 20
77.6267
 11
-112
 21
77
  0
LINE
  8
0
 10
-112
 20
77
 11
-112
 21
-77
  0
LINE
  8
0
 10
-112
 20
-77
 11
-111.961
 21
-77.6267
  0
LINE
  8
0
 10
-111.961
 20
-77.6267
 11
-111.843
 21
-78.2434
  0
LINE
  8
0
 10
-111.843
 20
-78.2434
 11
-111.649
 21
-78.8406
  0
LINE
  8
0
 10
-111.649
 20
-78.8406
 11
-111.382
 21
-79.4088
  0
LINE
  8
0
 10
-111.382
 20
-79.4088
 11
-111.045
 21
-79.9389
  0
LINE
  8
0
 10
-111.045
 20
-79.9389
 11
-110.645
 21
-80.4227
  0
LINE
  8
0
 10
-110.645
 20
-80.4227
 11
-110.187
 21
-80.8526
  0
LINE
  8
0
 10
-110.187
 20
-80.8526
 11
-109.679
 21
-81.2216
  0
LINE
  8
0
 10
-109.679
 20
-81.2216
 11
-109.129
 21
-81.5241
  0
LINE
  8
0
 10
-109.129
 20
-81.5241
 11
-108.545
 21
-81.7553
  0
LINE
  8
0
 10
-108.545
 20
-81.7553
 11
-107.937
 21
-81.9114
  0
LINE
  8
0
 10
-107.937
 20
-81.9114
 11
-107.314
 21
-81.9901
  0
LINE
  8
0
 10
-107.314
 20
-81.9901
 11
107.314
 21
-81.9901
  0
LINE
  8
0
 10
107.314
 20
-81.9901
 11
107.937
 21
-81.9114
  0
LINE
  8
0
 10
104.812
 20
72.0059
 11
104.438
 21
72.0531
  0
LINE
  8
0
 10
104.438
 20
72.0531
 11
104.073
 21
72.1468
  0
LINE
  8
0
 10
104.073
 20
72.1468
 11
103.723
 21
72.2855
  0
LINE
  8
0
 10
103.723
 20
72.2855
 11
103.393
 21
72.467
  0
LINE
  8
0
 10
103.393
 20
72.467
 11
103.088
 21
72.6885
  0
LINE
  8
0
 10
103.088
 20
72.6885
 11
102.813
 21
72.9464
  0
LINE
  8
0
 10
102.813
 20
72.9464
 11
102.573
 21
73.2366
  0
LINE
  8
0
 10
102.573
 20
73.2366
 11
102.371
 21
73.5547
  0
LINE
  8
0
 10
102.371
 20
73.5547
 11
102.211
 21
73.8956
  0
LINE
  8
0
 10
102.211
 20
73.8956
 11
102.094
 21
74.2539
  0
LINE
  8
0
 10
102.094
 20
74.2539
 11
102.024
 21
74.624
  0
LINE
  8
0
 10
102.024
 20
74.624
 11
102
 21
75
  0
LINE
  8
0
 10
102
 20
75
 11
102.024
 21
75.376
  0
LINE
  8
0
 10
102.024
 20
75.376
 11
102.094
 21
75.7461
  0
LINE
  8
0
 10
102.094
 20
75.7461
 11
102.211
 21
76.1044
  0
LINE
  8
0
 10
102.211
 20
76.1044
 11
102.371
 21
76.4453
  0
LINE
  8
0
 10
102.371
 20
76.4453
 11
102.573
 21
76.7634
  0
LINE
  8
0
 10
102.573
 20
76.7634
 11
102.813
 21
77.0536
  0
LINE
  8
0
 10
102.813
 20
77.0536
 11
103.088
 21
77.3115
  0
LINE
  8
0
 10
103.088
 20
77.3115
 11
103.393
 21
77.533
  0
LINE
  8
0
 10
103.393
 20
77.533
 11
103.723
 21
77.7145
  0
LINE
  8
0
 10
103.723
 20
77.7145
 11
104.073
 21
77.8532
  0
LINE
  8
0
 10
104.073
 20
77.8532
 11
104.438
 21
77.9469
  0
LINE
  8
0
 10
104.438
 20
77.9469
 11
104.812
 21
77.9941
  0
LINE
  8
0
 10
104.812
 20
77.9941
 11
105.188
 21
77.9941
  0
LINE
  8
0
 10
105.188
 20
77.9941
 11
105.562
 21
77.9469
  0
LINE
  8
0
 10
105.562
 20
77.9469
 11
105.927
 21
77.8532
  0
LINE
  8
0
 10
105.927
 20
77.8532
 11
106.277
 21
77.7145
  0
LINE
  8
0
 10
106.277
 20
77.7145
 11
106.607
 21
77.533
  0
LINE
  8
0
 10
106.607
 20
77.533
 11
106.912
 21
77.3115
  0
LINE
  8
0
 10
106.912
 20
77.3115
 11
107.187
 21
77.0536
  0
LINE
  8
0
 10
107.187
 20
77.0536
 11
107.427
 21
76.7634
  0
LINE
  8
0
 10
107.427
 20
76.7634
 11
107.629
 21
76.4453
  0
LINE
  8
0
 10
107.629
 20
76.4453
 11
107.789
 21
76.1044
  0
LINE
  8
0
 10
107.789
 20
76.1044
 11
107.906
 21
75.7461
  0
LINE
  8
0
 10
107.906
 20
75.7461
 11
107.976
 21
75.376
  0
LINE
  8
0
 10
107.976
 20
75.376
 11
108
 21
75
  0
LINE
  8
0
 10
108
 20
75
 11
107.976
 21
74.624
  0
LINE
  8
0
 10
107.976
 20
74.624
 11
107.906
 21
74.2539
  0
LINE
  8
0
 10
107.906
 20
74.2539
 11
107.789
 21
73.8956
  0
LINE
  8
0
 10
107.789
 20
73.8956
 11
107.629
 21
73.5547
  0
LINE
  8
0
 10
107.629
 20
73.5547
 11
107.427
 21
73.2366
  0
LINE
  8
0
 10
107.427
 20
73.2366
 11
107.187
 21
72.9464
  0
LINE
  8
0
 10
107.187
 20
72.9464
 11
106.912
 21
72.6885
  0
LINE
  8
0
 10
106.912
 20
72.6885
 11
106.607
 21
72.467
  0
LINE
  8
0
 10
106.607
 20
72.467
 11
106.277
 21
72.2855
  0
LINE
  8
0
 10
106.277
 20
72.2855
 11
105.927
 21
72.1468
  0
LINE
  8
0
 10
105.927
 20
72.1468
 11
105.562
 21
72.0531
  0
LINE
  8
0
 10
105.562
 20
72.0531
 11
105.188
 21
72.0059
  0
LINE
  8
0
 10
105.188
 20
72.0059
 11
104.812
 21
72.0059
  0
LINE
  8
0
 10
-105.188
 20
72.0059
 11
-105.562
 21
72.0531
  0
LINE
  8
0
 10
-105.562
 20
72.0531
 11
-105.927
 21
72.1468
  0
LINE
  8
0
 10
-105.927
 20
72.1468
 11
-106.277
 21
72.2855
  0
LINE
  8
0
 10
-106.277
 20
72.2855
 11
-106.607
 21
72.467
  0
LINE
  8
0
 10
-106.607
 20
72.467
 11
-106.912
 21
72.6885
  0
LINE
  8
0
 10
-106.912
 20
72.6885
 11
-107.187
 21
72.9464
  0
LINE
  8
0
 10
-107.187
 20
72.9464
 11
-107.427
 21
73.2366
  0
LINE
  8
0
 10
-107.427
 20
73.2366
 11
-107.629
 21
73.5547
  0
LINE
  8
0
 10
-107.629
 20
73.5547
 11
-107.789
 21
73.8956
  0
LINE
  8
0
 10
-107.789
 20
73.8956
 11
-107.906
 21
74.2539
  0
LINE
  8
0
 10
-107.906
 20
74.2539
 11
-107.976
 21
74.624
  0
LINE
  8
0
 10
-107.976
 20
74.624
 11
-108
 21
75
  0
LINE
  8
0
 10
-108
 20
75
 11
-107.976
 21
75.376
  0
LINE
  8
0
 10
-107.976
 20
75.376
 11
-107.906
 21
75.7461
  0
LINE
  8
0
 10
-107.906
 20
75.7461
 11
-107.789
 21
76.1044
  0
LINE
  8
0
 10
-107.789
 20
76.1044
 11
-107.629
 21
76.4453
  0
LINE
  8
0
 10
-107.629
 20
76.4453
 11
-107.427
 21
76.7634
  0
LINE
  8
0
 10
-107.427
 20
76.7634
 11
-107.187
 21
77.0536
  0
LINE
  8
0
 10
-107.187
 20
77.0536
 11
-106.912
 21
77.3115
  0
LINE
  8
0
 10
-106.912
 20
77.3115
 11
-106.607
 21
77.533
  0
LINE
  8
0
 10
-106.607
 20
77.533
 11
-106.277
 21
77.7145
  0
LINE
  8
0
 10
-106.277
 20
77.7145
 11
-105.927
 21
77.8532
  0
LINE
  8
0
 10
-105.927
 20
77.8532
 11
-105.562
 21
77.9469
  0
LINE
  8
0
 10
-105.562
 20
77.9469
 11
-105.188
 21
77.9941
  0
LINE
  8
0
 10
-105.188
 20
77.9941
 11
-104.812
 21
77.9941
  0
LINE
  8
0
 10
-104.812
 20
77.9941
 11
-104.438
 21
77.9469
  0
LINE
  8
0
 10
-104.438
 20
77.9469
 11
-104.073
 21
77.8532
  0
LINE
  8
0
 10
-104.073
 20
77.8532
 11
-103.723
 21
77.7145
  0
LINE
  8
0
 10
-103.723
 20
77.7145
 11
-103.393
 21
77.533
  0
LINE
  8
0
 10
-103.393
 20
77.533
 11
-103.088
 21
77.3115
  0
LINE
  8
0
 10
-103.088
 20
77.3115
 11
-102.813
 21
77.0536
  0
LINE
  8
0
 10
-102.813
 20
77.0536
 11
-102.573
 21
76.7634
  0
LINE
  8
0
 10
-102.573
 20
76.7634
 11
-102.371
 21
76.4453
  0
LINE
  8
0
 10
-102.371
 20
76.4453
 11
-102.211
 21
76.1044
  0
LINE
  8
0
 10
-102.211
 20
76.1044
 11
-102.094
 21
75.7461
  0
LINE
  8
0
 10
-102.094
 20
75.7461
 11
-102.024
 21
75.376
  0
LINE
  8
0
 10
-102.024
 20
75.376
 11
-102
 21
75
  0
LINE
  8
0
 10
-102
 20
75
 11
-102.024
 21
74.624
  0
LINE
  8
0
 10
-102.024
 20
74.624
 11
-102.094
 21
74.2539
  0
LINE
  8
0
 10
-102.094
 20
74.2539
 11
-102.211
 21
73.8956
  0
LINE
  8
0
 10
-102.211
 20
73.8956
 11
-102.371
 21
73.5547
  0
LINE
  8
0
 10
-102.371
 20
73.5547
 11
-102.573
 21
73.2366
  0
LINE
  8
0
 10
-102.573
 20
73.2366
 11
-102.813
 21
72.9464
  0
LINE
  8
0
 10
-102.813
 20
72.9464
 11
-103.088
 21
72.6885
  0
LINE
  8
0
 10
-103.088
 20
72.6885
 11
-103.393
 21
72.467
  0
LINE
  8
0
 10
-103.393
 20
72.467
 11
-103.723
 21
72.2855
  0
LINE
  8
0
 10
-103.723
 20
72.2855
 11
-104.073
 21
72.1468
  0
LINE
  8
0
 10
-104.073
 20
72.1468
 11
-104.438
 21
72.0531
  0
LINE
  8
0
 10
-104.438
 20
72.0531
 11
-104.812
 21
72.0059
  0
LINE
  8
0
 10
-104.812
 20
72.0059
 11
-105.188
 21
72.0059
  0
LINE
  8
0
 10
104.812
 20
-77.9941
 11
104.438
 21
-77.9469
  0
LINE
  8
0
 10
104.438
 20
-77.9469
 11
104.073
 21
-77.8532
  0
LINE
  8
0
 10
104.073
 20
-77.8532
 11
103.723
 21
-77.7145
  0
LINE
  8
0
 10
103.723
 20
-77.7145
 11
103.393
 21
-77.533
  0
LINE
  8
0
 10
103.393
 20
-77.533
 11
103.088
 21
-77.3115
  0
LINE
  8
0
 10
103.088
 20
-77.3115
 11
102.813
 21
-77.0536
  0
LINE
  8
0
 10
102.813
 20
-77.0536
 11
102.573
 21
-76.7634
  0
LINE
  8
0
 10
102.573
 20
-76.7634
 11
102.371
 21
-76.4453
  0
LINE
  8
0
 10
102.371
 20
-76.4453
 11
102.211
 21
-76.1044
  0
LINE
  8
0
 10
102.211
 20
-76.1044
 11
102.094
 21
-75.7461
  0
LINE
  8
0
 10
102.094
 20
-75.7461
 11
102.024
 21
-75.376
  0
LINE
  8
0
 10
102.024
 20
-75.376
 11
102
 21
-75
  0
LINE
  8
0
 10
102
 20
-75
 11
102.024
 21
-74.624
  0
LINE
  8
0
 10
102.024
 20
-74.624
 11
102.094
 21
-74.2539
  0
LINE
  8
0
 10
102.094
 20
-74.2539
 11
102.211
 21
-73.8956
  0
LINE
  8
0
 10
102.211
 20
-73.8956
 11
102.371
 21
-73.5547
  0
LINE
  8
0
 10
102.371
 20
-73.5547
 11
102.573
 21
-73.2366
  0
LINE
  8
0
 10
102.573
 20
-73.2366
 11
102.813
 21
-72.9464
  0
LINE
  8
0
 10
102.813
 20
-72.9464
 11
103.088
 21
-72.6885
  0
LINE
  8
0
 10
103.088
 20
-72.6885
 11
103.393
 21
-72.467
  0
LINE
  8
0
 10
103.393
 20
-72.467
 11
103.723
 21
-72.2855
  0
LINE
  8
0
 10
103.723
 20
-72.2855
 11
104.073
 21
-72.1468
  0
LINE
  8
0
 10
104.073
 20
-72.1468
 11
104.438
 21
-72.0531
  0
LINE
  8
0
 10
104.438
 20
-72.0531
 11
104.812
 21
-72.0059
  0
LINE
  8
0
 10
104.812
 20
-72.0059
 11
105.188
 21
-72.0059
  0
LINE
  8
0
 10
105.188
 20
-72.0059
 11
105.562
 21
-72.0531
  0
LINE
  8
0
 10
105.562
 20
-72.0531
 11
105.927
 21
-72.1468
  0
LINE
  8
0
 10
105.927
 20
-72.1468
 11
106.277
 21
-72.2855
  0
LINE
  8
0
 10
106.277
 20
-72.2855
 11
106.607
 21
-72.467
  0
LINE
  8
0
 10
106.607
 20
-72.467
 11
106.912
 21
-72.6885
  0
LINE
  8
0
 10
106.912
 20
-72.6885
 11
107.187
 21
-72.9464
  0
LINE
  8
0
 10
107.187
 20
-72.9464
 11
107.427
 21
-73.2366
  0
LINE
  8
0
 10
107.427
 20
-73.2366
 11
107.629
 21
-73.5547
  0
LINE
  8
0
 10
107.629
 20
-73.5547
 11
107.789
 21
-73.8956
  0
LINE
  8
0
 10
107.789
 20
-73.8956
 11
107.906
 21
-74.2539
  0
LINE
  8
0
 10
107.906
 20
-74.2539
 11
107.976
 21
-74.624
  0
LINE
  8
0
 10
107.976
 20
-74.624
 11
108
 21
-75
  0
LINE
  8
0
 10
108
 20
-75
 11
107.976
 21
-75.376
  0
LINE
  8
0
 10
107.976
 20
-75.376
 11
107.906
 21
-75.7461
  0
LINE
  8
0
 10
107.906
 20
-75.7461
 11
107.789
 21
-76.1044
  0
LINE
  8
0
 10
107.789
 20
-76.1044
 11
107.629
 21
-76.4453
  0
LINE
  8
0
 10
107.629
 20
-76.4453
 11
107.427
 21
-76.7634
  0
LINE
  8
0
 10
107.427
 20
-76.7634
 11
107.187
 21
-77.0536
  0
LINE
  8
0
 10
107.187
 20
-77.0536
 11
106.912
 21
-77.3115
  0
LINE
  8
0
 10
106.912
 20
-77.3115
 11
106.607
 21
-77.533
  0
LINE
  8
0
 10
106.607
 20
-77.533
 11
106.277
 21
-77.7145
  0
LINE
  8
0
 10
106.277
 20
-77.7145
 11
105.927
 21
-77.8532
  0
LINE
  8
0
 10
105.927
 20
-77.8532
 11
105.562
 21
-77.9469
  0
LINE
  8
0
 10
105.562
 20
-77.9469
 11
105.188
 21
-77.9941
  0
LINE
  8
0
 10
105.188
 20
-77.9941
 11
104.812
 21
-77.9941
  0
LINE
  8
0
 10
-105.188
 20
-77.9941
 11
-105.562
 21
-77.9469
  0
LINE
  8
0
 10
-105.562
 20
-77.9469
 11
-105.927
 21
-77.8532
  0
LINE
  8
0
 10
-105.927
 20
-77.8532
 11
-106.277
 21
-77.7145
  0
LINE
  8
0
 10
-106.277
 20
-77.7145
 11
-106.607
 21
-77.533
  0
LINE
  8
0
 10
-106.607
 20
-77.533
 11
-106.912
 21
-77.3115
  0
LINE
  8
0
 10
-106.912
 20
-77.3115
 11
-107.187
 21
-77.0536
  0
LINE
  8
0
 10
-107.187
 20
-77.0536
 11
-107.427
 21
-76.7634
  0
LINE
  8
0
 10
-107.427
 20
-76.7634
 11
-107.629
 21
-76.4453
  0
LINE
  8
0
 10
-107.629
 20
-76.4453
 11
-107.789
 21
-76.1044
  0
LINE
  8
0
 10
-107.789
 20
-76.1044
 11
-107.906
 21
-75.7461
  0
LINE
  8
0
 10
-107.906
 20
-75.7461
 11
-107.976
 21
-75.376
  0
LINE
  8
0
 10
-107.976
 20
-75.376
 11
-108
 21
-75
  0
LINE
  8
0
 10
-108
 20
-75
 11
-107.976
 21
-74.624
  0
LINE
  8
0
 10
-107.976
 20
-74.624
 11
-107.906
 21
-74.2539
  0
LINE
  8
0
 10
-107.906
 20
-74.2539
 11
-107.789
 21
-73.8956
  0
LINE
  8
0
 10
-107.789
 20
-73.8956
 11
-107.629
 21
-73.5547
  0
LINE
  8
0
 10
-107.629
 20
-73.5547
 11
-107.427
 21
-73.2366
  0
LINE
  8
0
 10
-107.427
 20
-73.2366
 11
-107.187
 21
-72.9464
  0
LINE
  8
0
 10
-107.187
 20
-72.9464
 11
-106.912
 21
-72.6885
  0
LINE
  8
0
 10
-106.912
 20
-72.6885
 11
-106.607
 21
-72.467
  0
LINE
  8
0
 10
-106.607
 20
-72.467
 11
-106.277
 21
-72.2855
  0
LINE
  8
0
 10
-106.277
 20
-72.2855
 11
-105.927
 21
-72.1468
  0
LINE
  8
0
 10
-105.927
 20
-72.1468
 11
-105.562
 21
-72.0531
  0
LINE
  8
0
 10
-105.562
 20
-72.0531
 11
-105.188
 21
-72.0059
  0
LINE
  8
0
 10
-105.188
 20
-72.0059
 11
-104.812
 21
-72.0059
  0
LINE
  8
0
 10
-104.812
 20
-72.0059
 11
-104.438
 21
-72.0531
  0
LINE
  8
0
 10
-104.438
 20
-72.0531
 11
-104.073
 21
-72.1468
  0
LINE
  8
0
 10
-104.073
 20
-72.1468
 11
-103.723
 21
-72.2855
  0
LINE
  8
0
 10
-103.723
 20
-72.2855
 11
-103.393
 21
-72.467
  0
LINE
  8
0
 10
-103.393
 20
-72.467
 11
-103.088
 21
-72.6885
  0
LINE
  8
0
 10
-103.088
 20
-72.6885
 11
-102.813
 21
-72.9464
  0
LINE
  8
0
 10
-102.813
 20
-72.9464
 11
-102.573
 21
-73.2366
  0
LINE
  8
0
 10
-102.573
 20
-73.2366
 11
-102.371
 21
-73.5547
  0
LINE
  8
0
 10
-102.371
 20
-73.5547
 11
-102.211
 21
-73.8956
  0
LINE
  8
0
 10
-102.211
 20
-73.8956
 11
-102.094
 21
-74.2539
  0
LINE
  8
0
 10
-102.094
 20
-74.2539
 11
-102.024
 21
-74.624
  0
LINE
  8
0
 10
-102.024
 20
-74.624
 11
-102
 21
-75
  0
LINE
  8
0
 10
-102
 20
-75
 11
-102.024
 21
-75.376
  0
LINE
  8
0
 10
-102.024
 20
-75.376
 11
-102.094
 21
-75.7461
  0
LINE
  8
0
 10
-102.094
 20
-75.7461
 11
-102.211
 21
-76.1044
  0
LINE
  8
0
 10
-102.211
 20
-76.1044
 11
-102.371
 21
-76.4453
  0
LINE
  8
0
 10
-102.371
 20
-76.4453
 11
-102.573
 21
-76.7634
  0
LINE
  8
0
 10
-102.573
 20
-76.7634
 11
-102.813
 21
-77.0536
  0
LINE
  8
0
 10
-102.813
 20
-77.0536
 11
-103.088
 21
-77.3115
  0
LINE
  8
0
 10
-103.088
 20
-77.3115
 11
-103.393
 21
-77.533
  0
LINE
  8
0
 10
-103.393
 20
-77.533
 11
-103.723
 21
-77.7145
  0
LINE
  8
0
 10
-103.723
 20
-77.7145
 11
-104.073
 21
-77.8532
  0
LINE
  8
0
 10
-104.073
 20
-77.8532
 11
-104.438
 21
-77.9469
  0
LINE
  8
0
 10
-104.438
 20
-77.9469
 11
-104.812
 21
-77.9941
  0
LINE
  8
0
 10
-104.812
 20
-77.9941
 11
-105.188
 21
-77.9941
  0
ENDSEC
  0
SECTION
  2
OBJECTS
  0
DICTIONARY
  0
ENDSEC
  0
EOF
