<?xml version="1.0" standalone="no"?>
<!DOCTYPE svg PUBLIC "-//W3C//DTD SVG 1.1//EN" "http://www.w3.org/Graphics/SVG/1.1/DTD/svg11.dtd">
<svg width="224mm" height="86mm" viewBox="-112 -151 224 86" xmlns="http://www.w3.org/2000/svg" version="1.1">
<title>OpenSCAD Model</title>
<path d="
M 107.937,-137.089 L 108.545,-137.245 L 109.129,-137.476 L 109.679,-137.778 L 110.187,-138.147 L 110.645,-138.577
 L 111.045,-139.061 L 111.382,-139.591 L 111.649,-140.159 L 111.843,-140.757 L 111.961,-141.373 L 112,-142
 L 112,-146 L 111.961,-146.627 L 111.843,-147.243 L 111.649,-147.841 L 111.382,-148.409 L 111.045,-148.939
 L 110.645,-149.423 L 110.187,-149.853 L 109.679,-150.222 L 109.129,-150.524 L 108.545,-150.755 L 107.937,-150.911
 L 107.314,-150.99 L -107.314,-150.99 L -107.937,-150.911 L -108.545,-150.755 L -109.129,-150.524 L -109.679,-150.222
 L -110.187,-149.853 L -110.645,-149.423 L -111.045,-148.939 L -111.382,-148.409 L -111.649,-147.841 L -111.843,-147.243
 L -111.961,-146.627 L -112,-146 L -112,-142 L -111.961,-141.373 L -111.843,-140.757 L -111.649,-140.159
 L -111.382,-139.591 L -111.045,-139.061 L -110.645,-138.577 L -110.187,-138.147 L -109.679,-137.778 L -109.129,-137.476
 L -108.545,-137.245 L -107.937,-137.089 L -107.314,-137.01 L 107.314,-137.01 z
M 74.8116,-141.006 L 74.4379,-141.053 L 74.073,-141.147 L 73.7227,-141.286 L 73.3925,-141.467 L 73.0877,-141.688
 L 72.8131,-141.946 L 72.573,-142.237 L 72.3711,-142.555 L 72.2107,-142.896 L 72.0943,-143.254 L 72.0237,-143.624
 L 72,-144 L 72.0237,-144.376 L 72.0943,-144.746 L 72.2107,-145.104 L 72.3711,-145.445 L 72.573,-145.763
 L 72.8131,-146.054 L 73.0877,-146.312 L 73.3925,-146.533 L 73.7227,-146.714 L 74.073,-146.853 L 74.4379,-146.947
 L 74.8116,-146.994 L 75.1884,-146.994 L 75.5621,-146.947 L 75.927,-146.853 L 76.2773,-146.714 L 76.6075,-146.533
 L 76.9123,-146.312 L 77.1869,-146.054 L 77.427,-145.763 L 77.6289,-145.445 L 77.7893,-145.104 L 77.9057,-144.746
 L 77.9763,-144.376 L 78,-144 L 77.9763,-143.624 L 77.9057,-143.254 L 77.7893,-142.896 L 77.6289,-142.555
 L 77.427,-142.237 L 77.1869,-141.946 L 76.9123,-141.688 L 76.6075,-141.467 L 76.2773,-141.286 L 75.927,-141.147
 L 75.5621,-141.053 L 75.1884,-141.006 z
M -30.1884,-141.006 L -30.5621,-141.053 L -30.927,-141.147 L -31.2773,-141.286 L -31.6075,-141.467 L -31.9123,-141.688
 L -32.1869,-141.946 L -32.427,-142.237 L -32.6289,-142.555 L -32.7893,-142.896 L -32.9057,-143.254 L -32.9763,-143.624
 L -33,-144 L -32.9763,-144.376 L -32.9057,-144.746 L -32.7893,-145.104 L -32.6289,-145.445 L -32.427,-145.763
 L -32.1869,-146.054 L -31.9123,-146.312 L -31.6075,-146.533 L -31.2773,-146.714 L -30.927,-146.853 L -30.5621,-146.947
 L -30.1884,-146.994 L -29.8116,-146.994 L -29.4379,-146.947 L -29.0729,-146.853 L -28.7227,-146.714 L -28.3925,-146.533
 L -28.0877,-146.312 L -27.8131,-146.054 L -27.5729,-145.763 L -27.3711,-145.445 L -27.2107,-145.104 L -27.0942,-144.746
 L -27.0237,-144.376 L -27,-144 L -27.0237,-143.624 L -27.0942,-143.254 L -27.2107,-142.896 L -27.3711,-142.555
 L -27.5729,-142.237 L -27.8131,-141.946 L -28.0877,-141.688 L -28.3925,-141.467 L -28.7227,-141.286 L -29.0729,-141.147
 L -29.4379,-141.053 L -29.8116,-141.006 z
M 89.8116,-141.006 L 89.4379,-141.053 L 89.073,-141.147 L 88.7227,-141.286 L 88.3925,-141.467 L 88.0877,-141.688
 L 87.8131,-141.946 L 87.573,-142.237 L 87.3711,-142.555 L 87.2107,-142.896 L 87.0943,-143.254 L 87.0237,-143.624
 L 87,-144 L 87.0237,-144.376 L 87.0943,-144.746 L 87.2107,-145.104 L 87.3711,-145.445 L 87.573,-145.763
 L 87.8131,-146.054 L 88.0877,-146.312 L 88.3925,-146.533 L 88.7227,-146.714 L 89.073,-146.853 L 89.4379,-146.947
 L 89.8116,-146.994 L 90.1884,-146.994 L 90.5621,-146.947 L 90.927,-146.853 L 91.2773,-146.714 L 91.6075,-146.533
 L 91.9123,-146.312 L 92.1869,-146.054 L 92.427,-145.763 L 92.6289,-145.445 L 92.7893,-145.104 L 92.9057,-144.746
 L 92.9763,-144.376 L 93,-144 L 92.9763,-143.624 L 92.9057,-143.254 L 92.7893,-142.896 L 92.6289,-142.555
 L 92.427,-142.237 L 92.1869,-141.946 L 91.9123,-141.688 L 91.6075,-141.467 L 91.2773,-141.286 L 90.927,-141.147
 L 90.5621,-141.053 L 90.1884,-141.006 z
M -45.1884,-141.006 L -45.5621,-141.053 L -45.927,-141.147 L -46.2773,-141.286 L -46.6075,-141.467 L -46.9123,-141.688
 L -47.1869,-141.946 L -47.427,-142.237 L -47.6289,-142.555 L -47.7893,-142.896 L -47.9057,-143.254 L -47.9763,-143.624
 L -48,-144 L -47.9763,-144.376 L -47.9057,-144.746 L -47.7893,-145.104 L -47.6289,-145.445 L -47.427,-145.763
 L -47.1869,-146.054 L -46.9123,-146.312 L -46.6075,-146.533 L -46.2773,-146.714 L -45.927,-146.853 L -45.5621,-146.947
 L -45.1884,-146.994 L -44.8116,-146.994 L -44.4379,-146.947 L -44.0729,-146.853 L -43.7227,-146.714 L -43.3925,-146.533
 L -43.0877,-146.312 L -42.8131,-146.054 L -42.5729,-145.763 L -42.3711,-145.445 L -42.2107,-145.104 L -42.0942,-144.746
 L -42.0237,-144.376 L -42,-144 L -42.0237,-143.624 L -42.0942,-143.254 L -42.2107,-142.896 L -42.3711,-142.555
 L -42.5729,-142.237 L -42.8131,-141.946 L -43.0877,-141.688 L -43.3925,-141.467 L -43.7227,-141.286 L -44.0729,-141.147
 L -44.4379,-141.053 L -44.8116,-141.006 z
M 29.8116,-141.006 L 29.4379,-141.053 L 29.0729,-141.147 L 28.7227,-141.286 L 28.3925,-141.467 L 28.0877,-141.688
 L 27.8131,-141.946 L 27.5729,-142.237 L 27.3711,-142.555 L 27.2107,-142.896 L 27.0942,-143.254 L 27.0237,-143.624
 L 27,-144 L 27.0237,-144.376 L 27.0942,-144.746 L 27.2107,-145.104 L 27.3711,-145.445 L 27.5729,-145.763
 L 27.8131,-146.054 L 28.0877,-146.312 L 28.3925,-146.533 L 28.7227,-146.714 L 29.0729,-146.853 L 29.4379,-146.947
 L 29.8116,-146.994 L 30.1884,-146.994 L 30.5621,-146.947 L 30.927,-146.853 L 31.2773,-146.714 L 31.6075,-146.533
 L 31.9123,-146.312 L 32.1869,-146.054 L 32.427,-145.763 L 32.6289,-145.445 L 32.7893,-145.104 L 32.9057,-144.746
 L 32.9763,-144.376 L 33,-144 L 32.9763,-143.624 L 32.9057,-143.254 L 32.7893,-142.896 L 32.6289,-142.555
 L 32.427,-142.237 L 32.1869,-141.946 L 31.9123,-141.688 L 31.6075,-141.467 L 31.2773,-141.286 L 30.927,-141.147
 L 30.5621,-141.053 L 30.1884,-141.006 z
M -105.188,-141.006 L -105.562,-141.053 L -105.927,-141.147 L -106.277,-141.286 L -106.607,-141.467 L -106.912,-141.688
 L -107.187,-141.946 L -107.427,-142.237 L -107.629,-142.555 L -107.789,-142.896 L -107.906,-143.254 L -107.976,-143.624
 L -108,-144 L -107.976,-144.376 L -107.906,-144.746 L -107.789,-145.104 L -107.629,-145.445 L -107.427,-145.763
 L -107.187,-146.054 L -106.912,-146.312 L -106.607,-146.533 L -106.277,-146.714 L -105.927,-146.853 L -105.562,-146.947
 L -105.188,-146.994 L -104.812,-146.994 L -104.438,-146.947 L -104.073,-146.853 L -103.723,-146.714 L -103.393,-146.533
 L -103.088,-146.312 L -102.813,-146.054 L -102.573,-145.763 L -102.371,-145.445 L -102.211,-145.104 L -102.094,-144.746
 L -102.024,-144.376 L -102,-144 L -102.024,-143.624 L -102.094,-143.254 L -102.211,-142.896 L -102.371,-142.555
 L -102.573,-142.237 L -102.813,-141.946 L -103.088,-141.688 L -103.393,-141.467 L -103.723,-141.286 L -104.073,-141.147
 L -104.438,-141.053 L -104.812,-141.006 z
M 104.812,-141.006 L 104.438,-141.053 L 104.073,-141.147 L 103.723,-141.286 L 103.393,-141.467 L 103.088,-141.688
 L 102.813,-141.946 L 102.573,-142.237 L 102.371,-142.555 L 102.211,-142.896 L 102.094,-143.254 L 102.024,-143.624
 L 102,-144 L 102.024,-144.376 L 102.094,-144.746 L 102.211,-145.104 L 102.371,-145.445 L 102.573,-145.763
 L 102.813,-146.054 L 103.088,-146.312 L 103.393,-146.533 L 103.723,-146.714 L 104.073,-146.853 L 104.438,-146.947
 L 104.812,-146.994 L 105.188,-146.994 L 105.562,-146.947 L 105.927,-146.853 L 106.277,-146.714 L 106.607,-146.533
 L 106.912,-146.312 L 107.187,-146.054 L 107.427,-145.763 L 107.629,-145.445 L 107.789,-145.104 L 107.906,-144.746
 L 107.976,-144.376 L 108,-144 L 107.976,-143.624 L 107.906,-143.254 L 107.789,-142.896 L 107.629,-142.555
 L 107.427,-142.237 L 107.187,-141.946 L 106.912,-141.688 L 106.607,-141.467 L 106.277,-141.286 L 105.927,-141.147
 L 105.562,-141.053 L 105.188,-141.006 z
M 59.8116,-141.006 L 59.4379,-141.053 L 59.0729,-141.147 L 58.7227,-141.286 L 58.3925,-141.467 L 58.0877,-141.688
 L 57.8131,-141.946 L 57.5729,-142.237 L 57.3711,-142.555 L 57.2107,-142.896 L 57.0942,-143.254 L 57.0237,-143.624
 L 57,-144 L 57.0237,-144.376 L 57.0942,-144.746 L 57.2107,-145.104 L 57.3711,-145.445 L 57.5729,-145.763
 L 57.8131,-146.054 L 58.0877,-146.312 L 58.3925,-146.533 L 58.7227,-146.714 L 59.0729,-146.853 L 59.4379,-146.947
 L 59.8116,-146.994 L 60.1884,-146.994 L 60.5621,-146.947 L 60.927,-146.853 L 61.2773,-146.714 L 61.6075,-146.533
 L 61.9123,-146.312 L 62.1869,-146.054 L 62.427,-145.763 L 62.6289,-145.445 L 62.7893,-145.104 L 62.9057,-144.746
 L 62.9763,-144.376 L 63,-144 L 62.9763,-143.624 L 62.9057,-143.254 L 62.7893,-142.896 L 62.6289,-142.555
 L 62.427,-142.237 L 62.1869,-141.946 L 61.9123,-141.688 L 61.6075,-141.467 L 61.2773,-141.286 L 60.927,-141.147
 L 60.5621,-141.053 L 60.1884,-141.006 z
M -90.1884,-141.006 L -90.5621,-141.053 L -90.927,-141.147 L -91.2773,-141.286 L -91.6075,-141.467 L -91.9123,-141.688
 L -92.1869,-141.946 L -92.427,-142.237 L -92.6289,-142.555 L -92.7893,-142.896 L -92.9057,-143.254 L -92.9763,-143.624
 L -93,-144 L -92.9763,-144.376 L -92.9057,-144.746 L -92.7893,-145.104 L -92.6289,-145.445 L -92.427,-145.763
 L -92.1869,-146.054 L -91.9123,-146.312 L -91.6075,-146.533 L -91.2773,-146.714 L -90.927,-146.853 L -90.5621,-146.947
 L -90.1884,-146.994 L -89.8116,-146.994 L -89.4379,-146.947 L -89.073,-146.853 L -88.7227,-146.714 L -88.3925,-146.533
 L -88.0877,-146.312 L -87.8131,-146.054 L -87.573,-145.763 L -87.3711,-145.445 L -87.2107,-145.104 L -87.0943,-144.746
 L -87.0237,-144.376 L -87,-144 L -87.0237,-143.624 L -87.0943,-143.254 L -87.2107,-142.896 L -87.3711,-142.555
 L -87.573,-142.237 L -87.8131,-141.946 L -88.0877,-141.688 L -88.3925,-141.467 L -88.7227,-141.286 L -89.073,-141.147
 L -89.4379,-141.053 L -89.8116,-141.006 z
M 44.8116,-141.006 L 44.4379,-141.053 L 44.0729,-141.147 L 43.7227,-141.286 L 43.3925,-141.467 L 43.0877,-141.688
 L 42.8131,-141.946 L 42.5729,-142.237 L 42.3711,-142.555 L 42.2107,-142.896 L 42.0942,-143.254 L 42.0237,-143.624
 L 42,-144 L 42.0237,-144.376 L 42.0942,-144.746 L 42.2107,-145.104 L 42.3711,-145.445 L 42.5729,-145.763
 L 42.8131,-146.054 L 43.0877,-146.312 L 43.3925,-146.533 L 43.7227,-146.714 L 44.0729,-146.853 L 44.4379,-146.947
 L 44.8116,-146.994 L 45.1884,-146.994 L 45.5621,-146.947 L 45.927,-146.853 L 46.2773,-146.714 L 46.6075,-146.533
 L 46.9123,-146.312 L 47.1869,-146.054 L 47.427,-145.763 L 47.6289,-145.445 L 47.7893,-145.104 L 47.9057,-144.746
 L 47.9763,-144.376 L 48,-144 L 47.9763,-143.624 L 47.9057,-143.254 L 47.7893,-142.896 L 47.6289,-142.555
 L 47.427,-142.237 L 47.1869,-141.946 L 46.9123,-141.688 L 46.6075,-141.467 L 46.2773,-141.286 L 45.927,-141.147
 L 45.5621,-141.053 L 45.1884,-141.006 z
M 14.8116,-141.006 L 14.4379,-141.053 L 14.0729,-141.147 L 13.7227,-141.286 L 13.3925,-141.467 L 13.0877,-141.688
 L 12.8131,-141.946 L 12.5729,-142.237 L 12.3711,-142.555 L 12.2107,-142.896 L 12.0942,-143.254 L 12.0237,-143.624
 L 12,-144 L 12.0237,-144.376 L 12.0942,-144.746 L 12.2107,-145.104 L 12.3711,-145.445 L 12.5729,-145.763
 L 12.8131,-146.054 L 13.0877,-146.312 L 13.3925,-146.533 L 13.7227,-146.714 L 14.0729,-146.853 L 14.4379,-146.947
 L 14.8116,-146.994 L 15.1884,-146.994 L 15.5621,-146.947 L 15.927,-146.853 L 16.2773,-146.714 L 16.6075,-146.533
 L 16.9123,-146.312 L 17.1869,-146.054 L 17.427,-145.763 L 17.6289,-145.445 L 17.7893,-145.104 L 17.9057,-144.746
 L 17.9763,-144.376 L 18,-144 L 17.9763,-143.624 L 17.9057,-143.254 L 17.7893,-142.896 L 17.6289,-142.555
 L 17.427,-142.237 L 17.1869,-141.946 L 16.9123,-141.688 L 16.6075,-141.467 L 16.2773,-141.286 L 15.927,-141.147
 L 15.5621,-141.053 L 15.1884,-141.006 z
M -60.1884,-141.006 L -60.5621,-141.053 L -60.927,-141.147 L -61.2773,-141.286 L -61.6075,-141.467 L -61.9123,-141.688
 L -62.1869,-141.946 L -62.427,-142.237 L -62.6289,-142.555 L -62.7893,-142.896 L -62.9057,-143.254 L -62.9763,-143.624
 L -63,-144 L -62.9763,-144.376 L -62.9057,-144.746 L -62.7893,-145.104 L -62.6289,-145.445 L -62.427,-145.763
 L -62.1869,-146.054 L -61.9123,-146.312 L -61.6075,-146.533 L -61.2773,-146.714 L -60.927,-146.853 L -60.5621,-146.947
 L -60.1884,-146.994 L -59.8116,-146.994 L -59.4379,-146.947 L -59.0729,-146.853 L -58.7227,-146.714 L -58.3925,-146.533
 L -58.0877,-146.312 L -57.8131,-146.054 L -57.5729,-145.763 L -57.3711,-145.445 L -57.2107,-145.104 L -57.0942,-144.746
 L -57.0237,-144.376 L -57,-144 L -57.0237,-143.624 L -57.0942,-143.254 L -57.2107,-142.896 L -57.3711,-142.555
 L -57.5729,-142.237 L -57.8131,-141.946 L -58.0877,-141.688 L -58.3925,-141.467 L -58.7227,-141.286 L -59.0729,-141.147
 L -59.4379,-141.053 L -59.8116,-141.006 z
M -15.1884,-141.006 L -15.5621,-141.053 L -15.927,-141.147 L -16.2773,-141.286 L -16.6075,-141.467 L -16.9123,-141.688
 L -17.1869,-141.946 L -17.427,-142.237 L -17.6289,-142.555 L -17.7893,-142.896 L -17.9057,-143.254 L -17.9763,-143.624
 L -18,-144 L -17.9763,-144.376 L -17.9057,-144.746 L -17.7893,-145.104 L -17.6289,-145.445 L -17.427,-145.763
 L -17.1869,-146.054 L -16.9123,-146.312 L -16.6075,-146.533 L -16.2773,-146.714 L -15.927,-146.853 L -15.5621,-146.947
 L -15.1884,-146.994 L -14.8116,-146.994 L -14.4379,-146.947 L -14.0729,-146.853 L -13.7227,-146.714 L -13.3925,-146.533
 L -13.0877,-146.312 L -12.8131,-146.054 L -12.5729,-145.763 L -12.3711,-145.445 L -12.2107,-145.104 L -12.0942,-144.746
 L -12.0237,-144.376 L -12,-144 L -12.0237,-143.624 L -12.0942,-143.254 L -12.2107,-142.896 L -12.3711,-142.555
 L -12.5729,-142.237 L -12.8131,-141.946 L -13.0877,-141.688 L -13.3925,-141.467 L -13.7227,-141.286 L -14.0729,-141.147
 L -14.4379,-141.053 L -14.8116,-141.006 z
M -75.1884,-141.006 L -75.5621,-141.053 L -75.927,-141.147 L -76.2773,-141.286 L -76.6075,-141.467 L -76.9123,-141.688
 L -77.1869,-141.946 L -77.427,-142.237 L -77.6289,-142.555 L -77.7893,-142.896 L -77.9057,-143.254 L -77.9763,-143.624
 L -78,-144 L -77.9763,-144.376 L -77.9057,-144.746 L -77.7893,-145.104 L -77.6289,-145.445 L -77.427,-145.763
 L -77.1869,-146.054 L -76.9123,-146.312 L -76.6075,-146.533 L -76.2773,-146.714 L -75.927,-146.853 L -75.5621,-146.947
 L -75.1884,-146.994 L -74.8116,-146.994 L -74.4379,-146.947 L -74.073,-146.853 L -73.7227,-146.714 L -73.3925,-146.533
 L -73.0877,-146.312 L -72.8131,-146.054 L -72.573,-145.763 L -72.3711,-145.445 L -72.2107,-145.104 L -72.0943,-144.746
 L -72.0237,-144.376 L -72,-144 L -72.0237,-143.624 L -72.0943,-143.254 L -72.2107,-142.896 L -72.3711,-142.555
 L -72.573,-142.237 L -72.8131,-141.946 L -73.0877,-141.688 L -73.3925,-141.467 L -73.7227,-141.286 L -74.073,-141.147
 L -74.4379,-141.053 L -74.8116,-141.006 z
M -0.18837,-141.006 L -0.562134,-141.053 L -0.927048,-141.147 L -1.27733,-141.286 L -1.60747,-141.467 L -1.91226,-141.688
 L -2.1869,-141.946 L -2.42705,-142.237 L -2.62891,-142.555 L -2.78932,-142.896 L -2.90575,-143.254 L -2.97633,-143.624
 L -3,-144 L -2.97633,-144.376 L -2.90575,-144.746 L -2.78932,-145.104 L -2.62891,-145.445 L -2.42705,-145.763
 L -2.1869,-146.054 L -1.91226,-146.312 L -1.60747,-146.533 L -1.27733,-146.714 L -0.927048,-146.853 L -0.562134,-146.947
 L -0.18837,-146.994 L 0.18837,-146.994 L 0.562134,-146.947 L 0.927048,-146.853 L 1.27733,-146.714 L 1.60747,-146.533
 L 1.91226,-146.312 L 2.1869,-146.054 L 2.42705,-145.763 L 2.62891,-145.445 L 2.78932,-145.104 L 2.90575,-144.746
 L 2.97633,-144.376 L 3,-144 L 2.97633,-143.624 L 2.90575,-143.254 L 2.78932,-142.896 L 2.62891,-142.555
 L 2.42705,-142.237 L 2.1869,-141.946 L 1.91226,-141.688 L 1.60747,-141.467 L 1.27733,-141.286 L 0.927048,-141.147
 L 0.562134,-141.053 L 0.18837,-141.006 z
M 107.937,-113.089 L 108.545,-113.245 L 109.129,-113.476 L 109.679,-113.778 L 110.187,-114.147 L 110.645,-114.577
 L 111.045,-115.061 L 111.382,-115.591 L 111.649,-116.159 L 111.843,-116.757 L 111.961,-117.373 L 112,-118
 L 112,-122 L 111.961,-122.627 L 111.843,-123.243 L 111.649,-123.841 L 111.382,-124.409 L 111.045,-124.939
 L 110.645,-125.423 L 110.187,-125.853 L 109.679,-126.222 L 109.129,-126.524 L 108.545,-126.755 L 107.937,-126.911
 L 107.314,-126.99 L -107.314,-126.99 L -107.937,-126.911 L -108.545,-126.755 L -109.129,-126.524 L -109.679,-126.222
 L -110.187,-125.853 L -110.645,-125.423 L -111.045,-124.939 L -111.382,-124.409 L -111.649,-123.841 L -111.843,-123.243
 L -111.961,-122.627 L -112,-122 L -112,-118 L -111.961,-117.373 L -111.843,-116.757 L -111.649,-116.159
 L -111.382,-115.591 L -111.045,-115.061 L -110.645,-114.577 L -110.187,-114.147 L -109.679,-113.778 L -109.129,-113.476
 L -108.545,-113.245 L -107.937,-113.089 L -107.314,-113.01 L 107.314,-113.01 z
M -90.1884,-117.006 L -90.5621,-117.053 L -90.927,-117.147 L -91.2773,-117.286 L -91.6075,-117.467 L -91.9123,-117.688
 L -92.1869,-117.946 L -92.427,-118.237 L -92.6289,-118.555 L -92.7893,-118.896 L -92.9057,-119.254 L -92.9763,-119.624
 L -93,-120 L -92.9763,-120.376 L -92.9057,-120.746 L -92.7893,-121.104 L -92.6289,-121.445 L -92.427,-121.763
 L -92.1869,-122.054 L -91.9123,-122.312 L -91.6075,-122.533 L -91.2773,-122.714 L -90.927,-122.853 L -90.5621,-122.947
 L -90.1884,-122.994 L -89.8116,-122.994 L -89.4379,-122.947 L -89.073,-122.853 L -88.7227,-122.714 L -88.3925,-122.533
 L -88.0877,-122.312 L -87.8131,-122.054 L -87.573,-121.763 L -87.3711,-121.445 L -87.2107,-121.104 L -87.0943,-120.746
 L -87.0237,-120.376 L -87,-120 L -87.0237,-119.624 L -87.0943,-119.254 L -87.2107,-118.896 L -87.3711,-118.555
 L -87.573,-118.237 L -87.8131,-117.946 L -88.0877,-117.688 L -88.3925,-117.467 L -88.7227,-117.286 L -89.073,-117.147
 L -89.4379,-117.053 L -89.8116,-117.006 z
M -30.1884,-117.006 L -30.5621,-117.053 L -30.927,-117.147 L -31.2773,-117.286 L -31.6075,-117.467 L -31.9123,-117.688
 L -32.1869,-117.946 L -32.427,-118.237 L -32.6289,-118.555 L -32.7893,-118.896 L -32.9057,-119.254 L -32.9763,-119.624
 L -33,-120 L -32.9763,-120.376 L -32.9057,-120.746 L -32.7893,-121.104 L -32.6289,-121.445 L -32.427,-121.763
 L -32.1869,-122.054 L -31.9123,-122.312 L -31.6075,-122.533 L -31.2773,-122.714 L -30.927,-122.853 L -30.5621,-122.947
 L -30.1884,-122.994 L -29.8116,-122.994 L -29.4379,-122.947 L -29.0729,-122.853 L -28.7227,-122.714 L -28.3925,-122.533
 L -28.0877,-122.312 L -27.8131,-122.054 L -27.5729,-121.763 L -27.3711,-121.445 L -27.2107,-121.104 L -27.0942,-120.746
 L -27.0237,-120.376 L -27,-120 L -27.0237,-119.624 L -27.0942,-119.254 L -27.2107,-118.896 L -27.3711,-118.555
 L -27.5729,-118.237 L -27.8131,-117.946 L -28.0877,-117.688 L -28.3925,-117.467 L -28.7227,-117.286 L -29.0729,-117.147
 L -29.4379,-117.053 L -29.8116,-117.006 z
M 89.8116,-117.006 L 89.4379,-117.053 L 89.073,-117.147 L 88.7227,-117.286 L 88.3925,-117.467 L 88.0877,-117.688
 L 87.8131,-117.946 L 87.573,-118.237 L 87.3711,-118.555 L 87.2107,-118.896 L 87.0943,-119.254 L 87.0237,-119.624
 L 87,-120 L 87.0237,-120.376 L 87.0943,-120.746 L 87.2107,-121.104 L 87.3711,-121.445 L 87.573,-121.763
 L 87.8131,-122.054 L 88.0877,-122.312 L 88.3925,-122.533 L 88.7227,-122.714 L 89.073,-122.853 L 89.4379,-122.947
 L 89.8116,-122.994 L 90.1884,-122.994 L 90.5621,-122.947 L 90.927,-122.853 L 91.2773,-122.714 L 91.6075,-122.533
 L 91.9123,-122.312 L 92.1869,-122.054 L 92.427,-121.763 L 92.6289,-121.445 L 92.7893,-121.104 L 92.9057,-120.746
 L 92.9763,-120.376 L 93,-120 L 92.9763,-119.624 L 92.9057,-119.254 L 92.7893,-118.896 L 92.6289,-118.555
 L 92.427,-118.237 L 92.1869,-117.946 L 91.9123,-117.688 L 91.6075,-117.467 L 91.2773,-117.286 L 90.927,-117.147
 L 90.5621,-117.053 L 90.1884,-117.006 z
M -45.1884,-117.006 L -45.5621,-117.053 L -45.927,-117.147 L -46.2773,-117.286 L -46.6075,-117.467 L -46.9123,-117.688
 L -47.1869,-117.946 L -47.427,-118.237 L -47.6289,-118.555 L -47.7893,-118.896 L -47.9057,-119.254 L -47.9763,-119.624
 L -48,-120 L -47.9763,-120.376 L -47.9057,-120.746 L -47.7893,-121.104 L -47.6289,-121.445 L -47.427,-121.763
 L -47.1869,-122.054 L -46.9123,-122.312 L -46.6075,-122.533 L -46.2773,-122.714 L -45.927,-122.853 L -45.5621,-122.947
 L -45.1884,-122.994 L -44.8116,-122.994 L -44.4379,-122.947 L -44.0729,-122.853 L -43.7227,-122.714 L -43.3925,-122.533
 L -43.0877,-122.312 L -42.8131,-122.054 L -42.5729,-121.763 L -42.3711,-121.445 L -42.2107,-121.104 L -42.0942,-120.746
 L -42.0237,-120.376 L -42,-120 L -42.0237,-119.624 L -42.0942,-119.254 L -42.2107,-118.896 L -42.3711,-118.555
 L -42.5729,-118.237 L -42.8131,-117.946 L -43.0877,-117.688 L -43.3925,-117.467 L -43.7227,-117.286 L -44.0729,-117.147
 L -44.4379,-117.053 L -44.8116,-117.006 z
M 29.8116,-117.006 L 29.4379,-117.053 L 29.0729,-117.147 L 28.7227,-117.286 L 28.3925,-117.467 L 28.0877,-117.688
 L 27.8131,-117.946 L 27.5729,-118.237 L 27.3711,-118.555 L 27.2107,-118.896 L 27.0942,-119.254 L 27.0237,-119.624
 L 27,-120 L 27.0237,-120.376 L 27.0942,-120.746 L 27.2107,-121.104 L 27.3711,-121.445 L 27.5729,-121.763
 L 27.8131,-122.054 L 28.0877,-122.312 L 28.3925,-122.533 L 28.7227,-122.714 L 29.0729,-122.853 L 29.4379,-122.947
 L 29.8116,-122.994 L 30.1884,-122.994 L 30.5621,-122.947 L 30.927,-122.853 L 31.2773,-122.714 L 31.6075,-122.533
 L 31.9123,-122.312 L 32.1869,-122.054 L 32.427,-121.763 L 32.6289,-121.445 L 32.7893,-121.104 L 32.9057,-120.746
 L 32.9763,-120.376 L 33,-120 L 32.9763,-119.624 L 32.9057,-119.254 L 32.7893,-118.896 L 32.6289,-118.555
 L 32.427,-118.237 L 32.1869,-117.946 L 31.9123,-117.688 L 31.6075,-117.467 L 31.2773,-117.286 L 30.927,-117.147
 L 30.5621,-117.053 L 30.1884,-117.006 z
M -105.188,-117.006 L -105.562,-117.053 L -105.927,-117.147 L -106.277,-117.286 L -106.607,-117.467 L -106.912,-117.688
 L -107.187,-117.946 L -107.427,-118.237 L -107.629,-118.555 L -107.789,-118.896 L -107.906,-119.254 L -107.976,-119.624
 L -108,-120 L -107.976,-120.376 L -107.906,-120.746 L -107.789,-121.104 L -107.629,-121.445 L -107.427,-121.763
 L -107.187,-122.054 L -106.912,-122.312 L -106.607,-122.533 L -106.277,-122.714 L -105.927,-122.853 L -105.562,-122.947
 L -105.188,-122.994 L -104.812,-122.994 L -104.438,-122.947 L -104.073,-122.853 L -103.723,-122.714 L -103.393,-122.533
 L -103.088,-122.312 L -102.813,-122.054 L -102.573,-121.763 L -102.371,-121.445 L -102.211,-121.104 L -102.094,-120.746
 L -102.024,-120.376 L -102,-120 L -102.024,-119.624 L -102.094,-119.254 L -102.211,-118.896 L -102.371,-118.555
 L -102.573,-118.237 L -102.813,-117.946 L -103.088,-117.688 L -103.393,-117.467 L -103.723,-117.286 L -104.073,-117.147
 L -104.438,-117.053 L -104.812,-117.006 z
M 104.812,-117.006 L 104.438,-117.053 L 104.073,-117.147 L 103.723,-117.286 L 103.393,-117.467 L 103.088,-117.688
 L 102.813,-117.946 L 102.573,-118.237 L 102.371,-118.555 L 102.211,-118.896 L 102.094,-119.254 L 102.024,-119.624
 L 102,-120 L 102.024,-120.376 L 102.094,-120.746 L 102.211,-121.104 L 102.371,-121.445 L 102.573,-121.763
 L 102.813,-122.054 L 103.088,-122.312 L 103.393,-122.533 L 103.723,-122.714 L 104.073,-122.853 L 104.438,-122.947
 L 104.812,-122.994 L 105.188,-122.994 L 105.562,-122.947 L 105.927,-122.853 L 106.277,-122.714 L 106.607,-122.533
 L 106.912,-122.312 L 107.187,-122.054 L 107.427,-121.763 L 107.629,-121.445 L 107.789,-121.104 L 107.906,-120.746
 L 107.976,-120.376 L 108,-120 L 107.976,-119.624 L 107.906,-119.254 L 107.789,-118.896 L 107.629,-118.555
 L 107.427,-118.237 L 107.187,-117.946 L 106.912,-117.688 L 106.607,-117.467 L 106.277,-117.286 L 105.927,-117.147
 L 105.562,-117.053 L 105.188,-117.006 z
M 59.8116,-117.006 L 59.4379,-117.053 L 59.0729,-117.147 L 58.7227,-117.286 L 58.3925,-117.467 L 58.0877,-117.688
 L 57.8131,-117.946 L 57.5729,-118.237 L 57.3711,-118.555 L 57.2107,-118.896 L 57.0942,-119.254 L 57.0237,-119.624
 L 57,-120 L 57.0237,-120.376 L 57.0942,-120.746 L 57.2107,-121.104 L 57.3711,-121.445 L 57.5729,-121.763
 L 57.8131,-122.054 L 58.0877,-122.312 L 58.3925,-122.533 L 58.7227,-122.714 L 59.0729,-122.853 L 59.4379,-122.947
 L 59.8116,-122.994 L 60.1884,-122.994 L 60.5621,-122.947 L 60.927,-122.853 L 61.2773,-122.714 L 61.6075,-122.533
 L 61.9123,-122.312 L 62.1869,-122.054 L 62.427,-121.763 L 62.6289,-121.445 L 62.7893,-121.104 L 62.9057,-120.746
 L 62.9763,-120.376 L 63,-120 L 62.9763,-119.624 L 62.9057,-119.254 L 62.7893,-118.896 L 62.6289,-118.555
 L 62.427,-118.237 L 62.1869,-117.946 L 61.9123,-117.688 L 61.6075,-117.467 L 61.2773,-117.286 L 60.927,-117.147
 L 60.5621,-117.053 L 60.1884,-117.006 z
M 74.8116,-117.006 L 74.4379,-117.053 L 74.073,-117.147 L 73.7227,-117.286 L 73.3925,-117.467 L 73.0877,-117.688
 L 72.8131,-117.946 L 72.573,-118.237 L 72.3711,-118.555 L 72.2107,-118.896 L 72.0943,-119.254 L 72.0237,-119.624
 L 72,-120 L 72.0237,-120.376 L 72.0943,-120.746 L 72.2107,-121.104 L 72.3711,-121.445 L 72.573,-121.763
 L 72.8131,-122.054 L 73.0877,-122.312 L 73.3925,-122.533 L 73.7227,-122.714 L 74.073,-122.853 L 74.4379,-122.947
 L 74.8116,-122.994 L 75.1884,-122.994 L 75.5621,-122.947 L 75.927,-122.853 L 76.2773,-122.714 L 76.6075,-122.533
 L 76.9123,-122.312 L 77.1869,-122.054 L 77.427,-121.763 L 77.6289,-121.445 L 77.7893,-121.104 L 77.9057,-120.746
 L 77.9763,-120.376 L 78,-120 L 77.9763,-119.624 L 77.9057,-119.254 L 77.7893,-118.896 L 77.6289,-118.555
 L 77.427,-118.237 L 77.1869,-117.946 L 76.9123,-117.688 L 76.6075,-117.467 L 76.2773,-117.286 L 75.927,-117.147
 L 75.5621,-117.053 L 75.1884,-117.006 z
M 44.8116,-117.006 L 44.4379,-117.053 L 44.0729,-117.147 L 43.7227,-117.286 L 43.3925,-117.467 L 43.0877,-117.688
 L 42.8131,-117.946 L 42.5729,-118.237 L 42.3711,-118.555 L 42.2107,-118.896 L 42.0942,-119.254 L 42.0237,-119.624
 L 42,-120 L 42.0237,-120.376 L 42.0942,-120.746 L 42.2107,-121.104 L 42.3711,-121.445 L 42.5729,-121.763
 L 42.8131,-122.054 L 43.0877,-122.312 L 43.3925,-122.533 L 43.7227,-122.714 L 44.0729,-122.853 L 44.4379,-122.947
 L 44.8116,-122.994 L 45.1884,-122.994 L 45.5621,-122.947 L 45.927,-122.853 L 46.2773,-122.714 L 46.6075,-122.533
 L 46.9123,-122.312 L 47.1869,-122.054 L 47.427,-121.763 L 47.6289,-121.445 L 47.7893,-121.104 L 47.9057,-120.746
 L 47.9763,-120.376 L 48,-120 L 47.9763,-119.624 L 47.9057,-119.254 L 47.7893,-118.896 L 47.6289,-118.555
 L 47.427,-118.237 L 47.1869,-117.946 L 46.9123,-117.688 L 46.6075,-117.467 L 46.2773,-117.286 L 45.927,-117.147
 L 45.5621,-117.053 L 45.1884,-117.006 z
M 14.8116,-117.006 L 14.4379,-117.053 L 14.0729,-117.147 L 13.7227,-117.286 L 13.3925,-117.467 L 13.0877,-117.688
 L 12.8131,-117.946 L 12.5729,-118.237 L 12.3711,-118.555 L 12.2107,-118.896 L 12.0942,-119.254 L 12.0237,-119.624
 L 12,-120 L 12.0237,-120.376 L 12.0942,-120.746 L 12.2107,-121.104 L 12.3711,-121.445 L 12.5729,-121.763
 L 12.8131,-122.054 L 13.0877,-122.312 L 13.3925,-122.533 L 13.7227,-122.714 L 14.0729,-122.853 L 14.4379,-122.947
 L 14.8116,-122.994 L 15.1884,-122.994 L 15.5621,-122.947 L 15.927,-122.853 L 16.2773,-122.714 L 16.6075,-122.533
 L 16.9123,-122.312 L 17.1869,-122.054 L 17.427,-121.763 L 17.6289,-121.445 L 17.7893,-121.104 L 17.9057,-120.746
 L 17.9763,-120.376 L 18,-120 L 17.9763,-119.624 L 17.9057,-119.254 L 17.7893,-118.896 L 17.6289,-118.555
 L 17.427,-118.237 L 17.1869,-117.946 L 16.9123,-117.688 L 16.6075,-117.467 L 16.2773,-117.286 L 15.927,-117.147
 L 15.5621,-117.053 L 15.1884,-117.006 z
M -60.1884,-117.006 L -60.5621,-117.053 L -60.927,-117.147 L -61.2773,-117.286 L -61.6075,-117.467 L -61.9123,-117.688
 L -62.1869,-117.946 L -62.427,-118.237 L -62.6289,-118.555 L -62.7893,-118.896 L -62.9057,-119.254 L -62.9763,-119.624
 L -63,-120 L -62.9763,-120.376 L -62.9057,-120.746 L -62.7893,-121.104 L -62.6289,-121.445 L -62.427,-121.763
 L -62.1869,-122.054 L -61.9123,-122.312 L -61.6075,-122.533 L -61.2773,-122.714 L -60.927,-122.853 L -60.5621,-122.947
 L -60.1884,-122.994 L -59.8116,-122.994 L -59.4379,-122.947 L -59.0729,-122.853 L -58.7227,-122.714 L -58.3925,-122.533
 L -58.0877,-122.312 L -57.8131,-122.054 L -57.5729,-121.763 L -57.3711,-121.445 L -57.2107,-121.104 L -57.0942,-120.746
 L -57.0237,-120.376 L -57,-120 L -57.0237,-119.624 L -57.0942,-119.254 L -57.2107,-118.896 L -57.3711,-118.555
 L -57.5729,-118.237 L -57.8131,-117.946 L -58.0877,-117.688 L -58.3925,-117.467 L -58.7227,-117.286 L -59.0729,-117.147
 L -59.4379,-117.053 L -59.8116,-117.006 z
M -15.1884,-117.006 L -15.5621,-117.053 L -15.927,-117.147 L -16.2773,-117.286 L -16.6075,-117.467 L -16.9123,-117.688
 L -17.1869,-117.946 L -17.427,-118.237 L -17.6289,-118.555 L -17.7893,-118.896 L -17.9057,-119.254 L -17.9763,-119.624
 L -18,-120 L -17.9763,-120.376 L -17.9057,-120.746 L -17.7893,-121.104 L -17.6289,-121.445 L -17.427,-121.763
 L -17.1869,-122.054 L -16.9123,-122.312 L -16.6075,-122.533 L -16.2773,-122.714 L -15.927,-122.853 L -15.5621,-122.947
 L -15.1884,-122.994 L -14.8116,-122.994 L -14.4379,-122.947 L -14.0729,-122.853 L -13.7227,-122.714 L -13.3925,-122.533
 L -13.0877,-122.312 L -12.8131,-122.054 L -12.5729,-121.763 L -12.3711,-121.445 L -12.2107,-121.104 L -12.0942,-120.746
 L -12.0237,-120.376 L -12,-120 L -12.0237,-119.624 L -12.0942,-119.254 L -12.2107,-118.896 L -12.3711,-118.555
 L -12.5729,-118.237 L -12.8131,-117.946 L -13.0877,-117.688 L -13.3925,-117.467 L -13.7227,-117.286 L -14.0729,-117.147
 L -14.4379,-117.053 L -14.8116,-117.006 z
M -75.1884,-117.006 L -75.5621,-117.053 L -75.927,-117.147 L -76.2773,-117.286 L -76.6075,-117.467 L -76.9123,-117.688
 L -77.1869,-117.946 L -77.427,-118.237 L -77.6289,-118.555 L -77.7893,-118.896 L -77.9057,-119.254 L -77.9763,-119.624
 L -78,-120 L -77.9763,-120.376 L -77.9057,-120.746 L -77.7893,-121.104 L -77.6289,-121.445 L -77.427,-121.763
 L -77.1869,-122.054 L -76.9123,-122.312 L -76.6075,-122.533 L -76.2773,-122.714 L -75.927,-122.853 L -75.5621,-122.947
 L -75.1884,-122.994 L -74.8116,-122.994 L -74.4379,-122.947 L -74.073,-122.853 L -73.7227,-122.714 L -73.3925,-122.533
 L -73.0877,-122.312 L -72.8131,-122.054 L -72.573,-121.763 L -72.3711,-121.445 L -72.2107,-121.104 L -72.0943,-120.746
 L -72.0237,-120.376 L -72,-120 L -72.0237,-119.624 L -72.0943,-119.254 L -72.2107,-118.896 L -72.3711,-118.555
 L -72.573,-118.237 L -72.8131,-117.946 L -73.0877,-117.688 L -73.3925,-117.467 L -73.7227,-117.286 L -74.073,-117.147
 L -74.4379,-117.053 L -74.8116,-117.006 z
M -0.18837,-117.006 L -0.562134,-117.053 L -0.927048,-117.147 L -1.27733,-117.286 L -1.60747,-117.467 L -1.91226,-117.688
 L -2.1869,-117.946 L -2.42705,-118.237 L -2.62891,-118.555 L -2.78932,-118.896 L -2.90575,-119.254 L -2.97633,-119.624
 L -3,-120 L -2.97633,-120.376 L -2.90575,-120.746 L -2.78932,-121.104 L -2.62891,-121.445 L -2.42705,-121.763
 L -2.1869,-122.054 L -1.91226,-122.312 L -1.60747,-122.533 L -1.27733,-122.714 L -0.927048,-122.853 L -0.562134,-122.947
 L -0.18837,-122.994 L 0.18837,-122.994 L 0.562134,-122.947 L 0.927048,-122.853 L 1.27733,-122.714 L 1.60747,-122.533
 L 1.91226,-122.312 L 2.1869,-122.054 L 2.42705,-121.763 L 2.62891,-121.445 L 2.78932,-121.104 L 2.90575,-120.746
 L 2.97633,-120.376 L 3,-120 L 2.97633,-119.624 L 2.90575,-119.254 L 2.78932,-118.896 L 2.62891,-118.555
 L 2.42705,-118.237 L 2.1869,-117.946 L 1.91226,-117.688 L 1.60747,-117.467 L 1.27733,-117.286 L 0.927048,-117.147
 L 0.562134,-117.053 L 0.18837,-117.006 z
M 107.937,-89.0886 L 108.545,-89.2447 L 109.129,-89.4759 L 109.679,-89.7784 L 110.187,-90.1474 L 110.645,-90.5773
 L 111.045,-91.0611 L 111.382,-91.5912 L 111.649,-92.1594 L 111.843,-92.7566 L 111.961,-93.3733 L 112,-94
 L 112,-98 L 111.961,-98.6267 L 111.843,-99.2434 L 111.649,-99.8406 L 111.382,-100.409 L 111.045,-100.939
 L 110.645,-101.423 L 110.187,-101.853 L 109.679,-102.222 L 109.129,-102.524 L 108.545,-102.755 L 107.937,-102.911
 L 107.314,-102.99 L -107.314,-102.99 L -107.937,-102.911 L -108.545,-102.755 L -109.129,-102.524 L -109.679,-102.222
 L -110.187,-101.853 L -110.645,-101.423 L -111.045,-100.939 L -111.382,-100.409 L -111.649,-99.8406 L -111.843,-99.2434
 L -111.961,-98.6267 L -112,-98 L -112,-94 L -111.961,-93.3733 L -111.843,-92.7566 L -111.649,-92.1594
 L -111.382,-91.5912 L -111.045,-91.0611 L -110.645,-90.5773 L -110.187,-90.1474 L -109.679,-89.7784 L -109.129,-89.4759
 L -108.545,-89.2447 L -107.937,-89.0886 L -107.314,-89.0099 L 107.314,-89.0099 z
M 89.8116,-93.0059 L 89.4379,-93.0531 L 89.073,-93.1468 L 88.7227,-93.2855 L 88.3925,-93.467 L 88.0877,-93.6885
 L 87.8131,-93.9464 L 87.573,-94.2366 L 87.3711,-94.5547 L 87.2107,-94.8956 L 87.0943,-95.2539 L 87.0237,-95.624
 L 87,-96 L 87.0237,-96.376 L 87.0943,-96.7461 L 87.2107,-97.1044 L 87.3711,-97.4453 L 87.573,-97.7634
 L 87.8131,-98.0536 L 88.0877,-98.3115 L 88.3925,-98.533 L 88.7227,-98.7145 L 89.073,-98.8532 L 89.4379,-98.9469
 L 89.8116,-98.9941 L 90.1884,-98.9941 L 90.5621,-98.9469 L 90.927,-98.8532 L 91.2773,-98.7145 L 91.6075,-98.533
 L 91.9123,-98.3115 L 92.1869,-98.0536 L 92.427,-97.7634 L 92.6289,-97.4453 L 92.7893,-97.1044 L 92.9057,-96.7461
 L 92.9763,-96.376 L 93,-96 L 92.9763,-95.624 L 92.9057,-95.2539 L 92.7893,-94.8956 L 92.6289,-94.5547
 L 92.427,-94.2366 L 92.1869,-93.9464 L 91.9123,-93.6885 L 91.6075,-93.467 L 91.2773,-93.2855 L 90.927,-93.1468
 L 90.5621,-93.0531 L 90.1884,-93.0059 z
M -0.18837,-93.0059 L -0.562134,-93.0531 L -0.927048,-93.1468 L -1.27733,-93.2855 L -1.60747,-93.467 L -1.91226,-93.6885
 L -2.1869,-93.9464 L -2.42705,-94.2366 L -2.62891,-94.5547 L -2.78932,-94.8956 L -2.90575,-95.2539 L -2.97633,-95.624
 L -3,-96 L -2.97633,-96.376 L -2.90575,-96.7461 L -2.78932,-97.1044 L -2.62891,-97.4453 L -2.42705,-97.7634
 L -2.1869,-98.0536 L -1.91226,-98.3115 L -1.60747,-98.533 L -1.27733,-98.7145 L -0.927048,-98.8532 L -0.562134,-98.9469
 L -0.18837,-98.9941 L 0.18837,-98.9941 L 0.562134,-98.9469 L 0.927048,-98.8532 L 1.27733,-98.7145 L 1.60747,-98.533
 L 1.91226,-98.3115 L 2.1869,-98.0536 L 2.42705,-97.7634 L 2.62891,-97.4453 L 2.78932,-97.1044 L 2.90575,-96.7461
 L 2.97633,-96.376 L 3,-96 L 2.97633,-95.624 L 2.90575,-95.2539 L 2.78932,-94.8956 L 2.62891,-94.5547
 L 2.42705,-94.2366 L 2.1869,-93.9464 L 1.91226,-93.6885 L 1.60747,-93.467 L 1.27733,-93.2855 L 0.927048,-93.1468
 L 0.562134,-93.0531 L 0.18837,-93.0059 z
M -30.1884,-93.0059 L -30.5621,-93.0531 L -30.927,-93.1468 L -31.2773,-93.2855 L -31.6075,-93.467 L -31.9123,-93.6885
 L -32.1869,-93.9464 L -32.427,-94.2366 L -32.6289,-94.5547 L -32.7893,-94.8956 L -32.9057,-95.2539 L -32.9763,-95.624
 L -33,-96 L -32.9763,-96.376 L -32.9057,-96.7461 L -32.7893,-97.1044 L -32.6289,-97.4453 L -32.427,-97.7634
 L -32.1869,-98.0536 L -31.9123,-98.3115 L -31.6075,-98.533 L -31.2773,-98.7145 L -30.927,-98.8532 L -30.5621,-98.9469
 L -30.1884,-98.9941 L -29.8116,-98.9941 L -29.4379,-98.9469 L -29.0729,-98.8532 L -28.7227,-98.7145 L -28.3925,-98.533
 L -28.0877,-98.3115 L -27.8131,-98.0536 L -27.5729,-97.7634 L -27.3711,-97.4453 L -27.2107,-97.1044 L -27.0942,-96.7461
 L -27.0237,-96.376 L -27,-96 L -27.0237,-95.624 L -27.0942,-95.2539 L -27.2107,-94.8956 L -27.3711,-94.5547
 L -27.5729,-94.2366 L -27.8131,-93.9464 L -28.0877,-93.6885 L -28.3925,-93.467 L -28.7227,-93.2855 L -29.0729,-93.1468
 L -29.4379,-93.0531 L -29.8116,-93.0059 z
M -45.1884,-93.0059 L -45.5621,-93.0531 L -45.927,-93.1468 L -46.2773,-93.2855 L -46.6075,-93.467 L -46.9123,-93.6885
 L -47.1869,-93.9464 L -47.427,-94.2366 L -47.6289,-94.5547 L -47.7893,-94.8956 L -47.9057,-95.2539 L -47.9763,-95.624
 L -48,-96 L -47.9763,-96.376 L -47.9057,-96.7461 L -47.7893,-97.1044 L -47.6289,-97.4453 L -47.427,-97.7634
 L -47.1869,-98.0536 L -46.9123,-98.3115 L -46.6075,-98.533 L -46.2773,-98.7145 L -45.927,-98.8532 L -45.5621,-98.9469
 L -45.1884,-98.9941 L -44.8116,-98.9941 L -44.4379,-98.9469 L -44.0729,-98.8532 L -43.7227,-98.7145 L -43.3925,-98.533
 L -43.0877,-98.3115 L -42.8131,-98.0536 L -42.5729,-97.7634 L -42.3711,-97.4453 L -42.2107,-97.1044 L -42.0942,-96.7461
 L -42.0237,-96.376 L -42,-96 L -42.0237,-95.624 L -42.0942,-95.2539 L -42.2107,-94.8956 L -42.3711,-94.5547
 L -42.5729,-94.2366 L -42.8131,-93.9464 L -43.0877,-93.6885 L -43.3925,-93.467 L -43.7227,-93.2855 L -44.0729,-93.1468
 L -44.4379,-93.0531 L -44.8116,-93.0059 z
M 29.8116,-93.0059 L 29.4379,-93.0531 L 29.0729,-93.1468 L 28.7227,-93.2855 L 28.3925,-93.467 L 28.0877,-93.6885
 L 27.8131,-93.9464 L 27.5729,-94.2366 L 27.3711,-94.5547 L 27.2107,-94.8956 L 27.0942,-95.2539 L 27.0237,-95.624
 L 27,-96 L 27.0237,-96.376 L 27.0942,-96.7461 L 27.2107,-97.1044 L 27.3711,-97.4453 L 27.5729,-97.7634
 L 27.8131,-98.0536 L 28.0877,-98.3115 L 28.3925,-98.533 L 28.7227,-98.7145 L 29.0729,-98.8532 L 29.4379,-98.9469
 L 29.8116,-98.9941 L 30.1884,-98.9941 L 30.5621,-98.9469 L 30.927,-98.8532 L 31.2773,-98.7145 L 31.6075,-98.533
 L 31.9123,-98.3115 L 32.1869,-98.0536 L 32.427,-97.7634 L 32.6289,-97.4453 L 32.7893,-97.1044 L 32.9057,-96.7461
 L 32.9763,-96.376 L 33,-96 L 32.9763,-95.624 L 32.9057,-95.2539 L 32.7893,-94.8956 L 32.6289,-94.5547
 L 32.427,-94.2366 L 32.1869,-93.9464 L 31.9123,-93.6885 L 31.6075,-93.467 L 31.2773,-93.2855 L 30.927,-93.1468
 L 30.5621,-93.0531 L 30.1884,-93.0059 z
M -105.188,-93.0059 L -105.562,-93.0531 L -105.927,-93.1468 L -106.277,-93.2855 L -106.607,-93.467 L -106.912,-93.6885
 L -107.187,-93.9464 L -107.427,-94.2366 L -107.629,-94.5547 L -107.789,-94.8956 L -107.906,-95.2539 L -107.976,-95.624
 L -108,-96 L -107.976,-96.376 L -107.906,-96.7461 L -107.789,-97.1044 L -107.629,-97.4453 L -107.427,-97.7634
 L -107.187,-98.0536 L -106.912,-98.3115 L -106.607,-98.533 L -106.277,-98.7145 L -105.927,-98.8532 L -105.562,-98.9469
 L -105.188,-98.9941 L -104.812,-98.9941 L -104.438,-98.9469 L -104.073,-98.8532 L -103.723,-98.7145 L -103.393,-98.533
 L -103.088,-98.3115 L -102.813,-98.0536 L -102.573,-97.7634 L -102.371,-97.4453 L -102.211,-97.1044 L -102.094,-96.7461
 L -102.024,-96.376 L -102,-96 L -102.024,-95.624 L -102.094,-95.2539 L -102.211,-94.8956 L -102.371,-94.5547
 L -102.573,-94.2366 L -102.813,-93.9464 L -103.088,-93.6885 L -103.393,-93.467 L -103.723,-93.2855 L -104.073,-93.1468
 L -104.438,-93.0531 L -104.812,-93.0059 z
M 104.812,-93.0059 L 104.438,-93.0531 L 104.073,-93.1468 L 103.723,-93.2855 L 103.393,-93.467 L 103.088,-93.6885
 L 102.813,-93.9464 L 102.573,-94.2366 L 102.371,-94.5547 L 102.211,-94.8956 L 102.094,-95.2539 L 102.024,-95.624
 L 102,-96 L 102.024,-96.376 L 102.094,-96.7461 L 102.211,-97.1044 L 102.371,-97.4453 L 102.573,-97.7634
 L 102.813,-98.0536 L 103.088,-98.3115 L 103.393,-98.533 L 103.723,-98.7145 L 104.073,-98.8532 L 104.438,-98.9469
 L 104.812,-98.9941 L 105.188,-98.9941 L 105.562,-98.9469 L 105.927,-98.8532 L 106.277,-98.7145 L 106.607,-98.533
 L 106.912,-98.3115 L 107.187,-98.0536 L 107.427,-97.7634 L 107.629,-97.4453 L 107.789,-97.1044 L 107.906,-96.7461
 L 107.976,-96.376 L 108,-96 L 107.976,-95.624 L 107.906,-95.2539 L 107.789,-94.8956 L 107.629,-94.5547
 L 107.427,-94.2366 L 107.187,-93.9464 L 106.912,-93.6885 L 106.607,-93.467 L 106.277,-93.2855 L 105.927,-93.1468
 L 105.562,-93.0531 L 105.188,-93.0059 z
M 59.8116,-93.0059 L 59.4379,-93.0531 L 59.0729,-93.1468 L 58.7227,-93.2855 L 58.3925,-93.467 L 58.0877,-93.6885
 L 57.8131,-93.9464 L 57.5729,-94.2366 L 57.3711,-94.5547 L 57.2107,-94.8956 L 57.0942,-95.2539 L 57.0237,-95.624
 L 57,-96 L 57.0237,-96.376 L 57.0942,-96.7461 L 57.2107,-97.1044 L 57.3711,-97.4453 L 57.5729,-97.7634
 L 57.8131,-98.0536 L 58.0877,-98.3115 L 58.3925,-98.533 L 58.7227,-98.7145 L 59.0729,-98.8532 L 59.4379,-98.9469
 L 59.8116,-98.9941 L 60.1884,-98.9941 L 60.5621,-98.9469 L 60.927,-98.8532 L 61.2773,-98.7145 L 61.6075,-98.533
 L 61.9123,-98.3115 L 62.1869,-98.0536 L 62.427,-97.7634 L 62.6289,-97.4453 L 62.7893,-97.1044 L 62.9057,-96.7461
 L 62.9763,-96.376 L 63,-96 L 62.9763,-95.624 L 62.9057,-95.2539 L 62.7893,-94.8956 L 62.6289,-94.5547
 L 62.427,-94.2366 L 62.1869,-93.9464 L 61.9123,-93.6885 L 61.6075,-93.467 L 61.2773,-93.2855 L 60.927,-93.1468
 L 60.5621,-93.0531 L 60.1884,-93.0059 z
M 74.8116,-93.0059 L 74.4379,-93.0531 L 74.073,-93.1468 L 73.7227,-93.2855 L 73.3925,-93.467 L 73.0877,-93.6885
 L 72.8131,-93.9464 L 72.573,-94.2366 L 72.3711,-94.5547 L 72.2107,-94.8956 L 72.0943,-95.2539 L 72.0237,-95.624
 L 72,-96 L 72.0237,-96.376 L 72.0943,-96.7461 L 72.2107,-97.1044 L 72.3711,-97.4453 L 72.573,-97.7634
 L 72.8131,-98.0536 L 73.0877,-98.3115 L 73.3925,-98.533 L 73.7227,-98.7145 L 74.073,-98.8532 L 74.4379,-98.9469
 L 74.8116,-98.9941 L 75.1884,-98.9941 L 75.5621,-98.9469 L 75.927,-98.8532 L 76.2773,-98.7145 L 76.6075,-98.533
 L 76.9123,-98.3115 L 77.1869,-98.0536 L 77.427,-97.7634 L 77.6289,-97.4453 L 77.7893,-97.1044 L 77.9057,-96.7461
 L 77.9763,-96.376 L 78,-96 L 77.9763,-95.624 L 77.9057,-95.2539 L 77.7893,-94.8956 L 77.6289,-94.5547
 L 77.427,-94.2366 L 77.1869,-93.9464 L 76.9123,-93.6885 L 76.6075,-93.467 L 76.2773,-93.2855 L 75.927,-93.1468
 L 75.5621,-93.0531 L 75.1884,-93.0059 z
M -90.1884,-93.0059 L -90.5621,-93.0531 L -90.927,-93.1468 L -91.2773,-93.2855 L -91.6075,-93.467 L -91.9123,-93.6885
 L -92.1869,-93.9464 L -92.427,-94.2366 L -92.6289,-94.5547 L -92.7893,-94.8956 L -92.9057,-95.2539 L -92.9763,-95.624
 L -93,-96 L -92.9763,-96.376 L -92.9057,-96.7461 L -92.7893,-97.1044 L -92.6289,-97.4453 L -92.427,-97.7634
 L -92.1869,-98.0536 L -91.9123,-98.3115 L -91.6075,-98.533 L -91.2773,-98.7145 L -90.927,-98.8532 L -90.5621,-98.9469
 L -90.1884,-98.9941 L -89.8116,-98.9941 L -89.4379,-98.9469 L -89.073,-98.8532 L -88.7227,-98.7145 L -88.3925,-98.533
 L -88.0877,-98.3115 L -87.8131,-98.0536 L -87.573,-97.7634 L -87.3711,-97.4453 L -87.2107,-97.1044 L -87.0943,-96.7461
 L -87.0237,-96.376 L -87,-96 L -87.0237,-95.624 L -87.0943,-95.2539 L -87.2107,-94.8956 L -87.3711,-94.5547
 L -87.573,-94.2366 L -87.8131,-93.9464 L -88.0877,-93.6885 L -88.3925,-93.467 L -88.7227,-93.2855 L -89.073,-93.1468
 L -89.4379,-93.0531 L -89.8116,-93.0059 z
M 44.8116,-93.0059 L 44.4379,-93.0531 L 44.0729,-93.1468 L 43.7227,-93.2855 L 43.3925,-93.467 L 43.0877,-93.6885
 L 42.8131,-93.9464 L 42.5729,-94.2366 L 42.3711,-94.5547 L 42.2107,-94.8956 L 42.0942,-95.2539 L 42.0237,-95.624
 L 42,-96 L 42.0237,-96.376 L 42.0942,-96.7461 L 42.2107,-97.1044 L 42.3711,-97.4453 L 42.5729,-97.7634
 L 42.8131,-98.0536 L 43.0877,-98.3115 L 43.3925,-98.533 L 43.7227,-98.7145 L 44.0729,-98.8532 L 44.4379,-98.9469
 L 44.8116,-98.9941 L 45.1884,-98.9941 L 45.5621,-98.9469 L 45.927,-98.8532 L 46.2773,-98.7145 L 46.6075,-98.533
 L 46.9123,-98.3115 L 47.1869,-98.0536 L 47.427,-97.7634 L 47.6289,-97.4453 L 47.7893,-97.1044 L 47.9057,-96.7461
 L 47.9763,-96.376 L 48,-96 L 47.9763,-95.624 L 47.9057,-95.2539 L 47.7893,-94.8956 L 47.6289,-94.5547
 L 47.427,-94.2366 L 47.1869,-93.9464 L 46.9123,-93.6885 L 46.6075,-93.467 L 46.2773,-93.2855 L 45.927,-93.1468
 L 45.5621,-93.0531 L 45.1884,-93.0059 z
M 14.8116,-93.0059 L 14.4379,-93.0531 L 14.0729,-93.1468 L 13.7227,-93.2855 L 13.3925,-93.467 L 13.0877,-93.6885
 L 12.8131,-93.9464 L 12.5729,-94.2366 L 12.3711,-94.5547 L 12.2107,-94.8956 L 12.0942,-95.2539 L 12.0237,-95.624
 L 12,-96 L 12.0237,-96.376 L 12.0942,-96.7461 L 12.2107,-97.1044 L 12.3711,-97.4453 L 12.5729,-97.7634
 L 12.8131,-98.0536 L 13.0877,-98.3115 L 13.3925,-98.533 L 13.7227,-98.7145 L 14.0729,-98.8532 L 14.4379,-98.9469
 L 14.8116,-98.9941 L 15.1884,-98.9941 L 15.5621,-98.9469 L 15.927,-98.8532 L 16.2773,-98.7145 L 16.6075,-98.533
 L 16.9123,-98.3115 L 17.1869,-98.0536 L 17.427,-97.7634 L 17.6289,-97.4453 L 17.7893,-97.1044 L 17.9057,-96.7461
 L 17.9763,-96.376 L 18,-96 L 17.9763,-95.624 L 17.9057,-95.2539 L 17.7893,-94.8956 L 17.6289,-94.5547
 L 17.427,-94.2366 L 17.1869,-93.9464 L 16.9123,-93.6885 L 16.6075,-93.467 L 16.2773,-93.2855 L 15.927,-93.1468
 L 15.5621,-93.0531 L 15.1884,-93.0059 z
M -60.1884,-93.0059 L -60.5621,-93.0531 L -60.927,-93.1468 L -61.2773,-93.2855 L -61.6075,-93.467 L -61.9123,-93.6885
 L -62.1869,-93.9464 L -62.427,-94.2366 L -62.6289,-94.5547 L -62.7893,-94.8956 L -62.9057,-95.2539 L -62.9763,-95.624
 L -63,-96 L -62.9763,-96.376 L -62.9057,-96.7461 L -62.7893,-97.1044 L -62.6289,-97.4453 L -62.427,-97.7634
 L -62.1869,-98.0536 L -61.9123,-98.3115 L -61.6075,-98.533 L -61.2773,-98.7145 L -60.927,-98.8532 L -60.5621,-98.9469
 L -60.1884,-98.9941 L -59.8116,-98.9941 L -59.4379,-98.9469 L -59.0729,-98.8532 L -58.7227,-98.7145 L -58.3925,-98.533
 L -58.0877,-98.3115 L -57.8131,-98.0536 L -57.5729,-97.7634 L -57.3711,-97.4453 L -57.2107,-97.1044 L -57.0942,-96.7461
 L -57.0237,-96.376 L -57,-96 L -57.0237,-95.624 L -57.0942,-95.2539 L -57.2107,-94.8956 L -57.3711,-94.5547
 L -57.5729,-94.2366 L -57.8131,-93.9464 L -58.0877,-93.6885 L -58.3925,-93.467 L -58.7227,-93.2855 L -59.0729,-93.1468
 L -59.4379,-93.0531 L -59.8116,-93.0059 z
M -15.1884,-93.0059 L -15.5621,-93.0531 L -15.927,-93.1468 L -16.2773,-93.2855 L -16.6075,-93.467 L -16.9123,-93.6885
 L -17.1869,-93.9464 L -17.427,-94.2366 L -17.6289,-94.5547 L -17.7893,-94.8956 L -17.9057,-95.2539 L -17.9763,-95.624
 L -18,-96 L -17.9763,-96.376 L -17.9057,-96.7461 L -17.7893,-97.1044 L -17.6289,-97.4453 L -17.427,-97.7634
 L -17.1869,-98.0536 L -16.9123,-98.3115 L -16.6075,-98.533 L -16.2773,-98.7145 L -15.927,-98.8532 L -15.5621,-98.9469
 L -15.1884,-98.9941 L -14.8116,-98.9941 L -14.4379,-98.9469 L -14.0729,-98.8532 L -13.7227,-98.7145 L -13.3925,-98.533
 L -13.0877,-98.3115 L -12.8131,-98.0536 L -12.5729,-97.7634 L -12.3711,-97.4453 L -12.2107,-97.1044 L -12.0942,-96.7461
 L -12.0237,-96.376 L -12,-96 L -12.0237,-95.624 L -12.0942,-95.2539 L -12.2107,-94.8956 L -12.3711,-94.5547
 L -12.5729,-94.2366 L -12.8131,-93.9464 L -13.0877,-93.6885 L -13.3925,-93.467 L -13.7227,-93.2855 L -14.0729,-93.1468
 L -14.4379,-93.0531 L -14.8116,-93.0059 z
M -75.1884,-93.0059 L -75.5621,-93.0531 L -75.927,-93.1468 L -76.2773,-93.2855 L -76.6075,-93.467 L -76.9123,-93.6885
 L -77.1869,-93.9464 L -77.427,-94.2366 L -77.6289,-94.5547 L -77.7893,-94.8956 L -77.9057,-95.2539 L -77.9763,-95.624
 L -78,-96 L -77.9763,-96.376 L -77.9057,-96.7461 L -77.7893,-97.1044 L -77.6289,-97.4453 L -77.427,-97.7634
 L -77.1869,-98.0536 L -76.9123,-98.3115 L -76.6075,-98.533 L -76.2773,-98.7145 L -75.927,-98.8532 L -75.5621,-98.9469
 L -75.1884,-98.9941 L -74.8116,-98.9941 L -74.4379,-98.9469 L -74.073,-98.8532 L -73.7227,-98.7145 L -73.3925,-98.533
 L -73.0877,-98.3115 L -72.8131,-98.0536 L -72.573,-97.7634 L -72.3711,-97.4453 L -72.2107,-97.1044 L -72.0943,-96.7461
 L -72.0237,-96.376 L -72,-96 L -72.0237,-95.624 L -72.0943,-95.2539 L -72.2107,-94.8956 L -72.3711,-94.5547
 L -72.573,-94.2366 L -72.8131,-93.9464 L -73.0877,-93.6885 L -73.3925,-93.467 L -73.7227,-93.2855 L -74.073,-93.1468
 L -74.4379,-93.0531 L -74.8116,-93.0059 z
M 107.937,-65.0886 L 108.545,-65.2447 L 109.129,-65.4759 L 109.679,-65.7784 L 110.187,-66.1474 L 110.645,-66.5773
 L 111.045,-67.0611 L 111.382,-67.5912 L 111.649,-68.1594 L 111.843,-68.7566 L 111.961,-69.3733 L 112,-70
 L 112,-74 L 111.961,-74.6267 L 111.843,-75.2434 L 111.649,-75.8406 L 111.382,-76.4088 L 111.045,-76.9389
 L 110.645,-77.4227 L 110.187,-77.8526 L 109.679,-78.2216 L 109.129,-78.5241 L 108.545,-78.7553 L 107.937,-78.9114
 L 107.314,-78.9901 L -107.314,-78.9901 L -107.937,-78.9114 L -108.545,-78.7553 L -109.129,-78.5241 L -109.679,-78.2216
 L -110.187,-77.8526 L -110.645,-77.4227 L -111.045,-76.9389 L -111.382,-76.4088 L -111.649,-75.8406 L -111.843,-75.2434
 L -111.961,-74.6267 L -112,-74 L -112,-70 L -111.961,-69.3733 L -111.843,-68.7566 L -111.649,-68.1594
 L -111.382,-67.5912 L -111.045,-67.0611 L -110.645,-66.5773 L -110.187,-66.1474 L -109.679,-65.7784 L -109.129,-65.4759
 L -108.545,-65.2447 L -107.937,-65.0886 L -107.314,-65.0099 L 107.314,-65.0099 z
M 89.8116,-69.0059 L 89.4379,-69.0531 L 89.073,-69.1468 L 88.7227,-69.2855 L 88.3925,-69.467 L 88.0877,-69.6885
 L 87.8131,-69.9464 L 87.573,-70.2366 L 87.3711,-70.5547 L 87.2107,-70.8956 L 87.0943,-71.2539 L 87.0237,-71.624
 L 87,-72 L 87.0237,-72.376 L 87.0943,-72.7461 L 87.2107,-73.1044 L 87.3711,-73.4453 L 87.573,-73.7634
 L 87.8131,-74.0536 L 88.0877,-74.3115 L 88.3925,-74.533 L 88.7227,-74.7145 L 89.073,-74.8532 L 89.4379,-74.9469
 L 89.8116,-74.9941 L 90.1884,-74.9941 L 90.5621,-74.9469 L 90.927,-74.8532 L 91.2773,-74.7145 L 91.6075,-74.533
 L 91.9123,-74.3115 L 92.1869,-74.0536 L 92.427,-73.7634 L 92.6289,-73.4453 L 92.7893,-73.1044 L 92.9057,-72.7461
 L 92.9763,-72.376 L 93,-72 L 92.9763,-71.624 L 92.9057,-71.2539 L 92.7893,-70.8956 L 92.6289,-70.5547
 L 92.427,-70.2366 L 92.1869,-69.9464 L 91.9123,-69.6885 L 91.6075,-69.467 L 91.2773,-69.2855 L 90.927,-69.1468
 L 90.5621,-69.0531 L 90.1884,-69.0059 z
M -105.188,-69.0059 L -105.562,-69.0531 L -105.927,-69.1468 L -106.277,-69.2855 L -106.607,-69.467 L -106.912,-69.6885
 L -107.187,-69.9464 L -107.427,-70.2366 L -107.629,-70.5547 L -107.789,-70.8956 L -107.906,-71.2539 L -107.976,-71.624
 L -108,-72 L -107.976,-72.376 L -107.906,-72.7461 L -107.789,-73.1044 L -107.629,-73.4453 L -107.427,-73.7634
 L -107.187,-74.0536 L -106.912,-74.3115 L -106.607,-74.533 L -106.277,-74.7145 L -105.927,-74.8532 L -105.562,-74.9469
 L -105.188,-74.9941 L -104.812,-74.9941 L -104.438,-74.9469 L -104.073,-74.8532 L -103.723,-74.7145 L -103.393,-74.533
 L -103.088,-74.3115 L -102.813,-74.0536 L -102.573,-73.7634 L -102.371,-73.4453 L -102.211,-73.1044 L -102.094,-72.7461
 L -102.024,-72.376 L -102,-72 L -102.024,-71.624 L -102.094,-71.2539 L -102.211,-70.8956 L -102.371,-70.5547
 L -102.573,-70.2366 L -102.813,-69.9464 L -103.088,-69.6885 L -103.393,-69.467 L -103.723,-69.2855 L -104.073,-69.1468
 L -104.438,-69.0531 L -104.812,-69.0059 z
M 104.812,-69.0059 L 104.438,-69.0531 L 104.073,-69.1468 L 103.723,-69.2855 L 103.393,-69.467 L 103.088,-69.6885
 L 102.813,-69.9464 L 102.573,-70.2366 L 102.371,-70.5547 L 102.211,-70.8956 L 102.094,-71.2539 L 102.024,-71.624
 L 102,-72 L 102.024,-72.376 L 102.094,-72.7461 L 102.211,-73.1044 L 102.371,-73.4453 L 102.573,-73.7634
 L 102.813,-74.0536 L 103.088,-74.3115 L 103.393,-74.533 L 103.723,-74.7145 L 104.073,-74.8532 L 104.438,-74.9469
 L 104.812,-74.9941 L 105.188,-74.9941 L 105.562,-74.9469 L 105.927,-74.8532 L 106.277,-74.7145 L 106.607,-74.533
 L 106.912,-74.3115 L 107.187,-74.0536 L 107.427,-73.7634 L 107.629,-73.4453 L 107.789,-73.1044 L 107.906,-72.7461
 L 107.976,-72.376 L 108,-72 L 107.976,-71.624 L 107.906,-71.2539 L 107.789,-70.8956 L 107.629,-70.5547
 L 107.427,-70.2366 L 107.187,-69.9464 L 106.912,-69.6885 L 106.607,-69.467 L 106.277,-69.2855 L 105.927,-69.1468
 L 105.562,-69.0531 L 105.188,-69.0059 z
M 59.8116,-69.0059 L 59.4379,-69.0531 L 59.0729,-69.1468 L 58.7227,-69.2855 L 58.3925,-69.467 L 58.0877,-69.6885
 L 57.8131,-69.9464 L 57.5729,-70.2366 L 57.3711,-70.5547 L 57.2107,-70.8956 L 57.0942,-71.2539 L 57.0237,-71.624
 L 57,-72 L 57.0237,-72.376 L 57.0942,-72.7461 L 57.2107,-73.1044 L 57.3711,-73.4453 L 57.5729,-73.7634
 L 57.8131,-74.0536 L 58.0877,-74.3115 L 58.3925,-74.533 L 58.7227,-74.7145 L 59.0729,-74.8532 L 59.4379,-74.9469
 L 59.8116,-74.9941 L 60.1884,-74.9941 L 60.5621,-74.9469 L 60.927,-74.8532 L 61.2773,-74.7145 L 61.6075,-74.533
 L 61.9123,-74.3115 L 62.1869,-74.0536 L 62.427,-73.7634 L 62.6289,-73.4453 L 62.7893,-73.1044 L 62.9057,-72.7461
 L 62.9763,-72.376 L 63,-72 L 62.9763,-71.624 L 62.9057,-71.2539 L 62.7893,-70.8956 L 62.6289,-70.5547
 L 62.427,-70.2366 L 62.1869,-69.9464 L 61.9123,-69.6885 L 61.6075,-69.467 L 61.2773,-69.2855 L 60.927,-69.1468
 L 60.5621,-69.0531 L 60.1884,-69.0059 z
M 29.8116,-69.0059 L 29.4379,-69.0531 L 29.0729,-69.1468 L 28.7227,-69.2855 L 28.3925,-69.467 L 28.0877,-69.6885
 L 27.8131,-69.9464 L 27.5729,-70.2366 L 27.3711,-70.5547 L 27.2107,-70.8956 L 27.0942,-71.2539 L 27.0237,-71.624
 L 27,-72 L 27.0237,-72.376 L 27.0942,-72.7461 L 27.2107,-73.1044 L 27.3711,-73.4453 L 27.5729,-73.7634
 L 27.8131,-74.0536 L 28.0877,-74.3115 L 28.3925,-74.533 L 28.7227,-74.7145 L 29.0729,-74.8532 L 29.4379,-74.9469
 L 29.8116,-74.9941 L 30.1884,-74.9941 L 30.5621,-74.9469 L 30.927,-74.8532 L 31.2773,-74.7145 L 31.6075,-74.533
 L 31.9123,-74.3115 L 32.1869,-74.0536 L 32.427,-73.7634 L 32.6289,-73.4453 L 32.7893,-73.1044 L 32.9057,-72.7461
 L 32.9763,-72.376 L 33,-72 L 32.9763,-71.624 L 32.9057,-71.2539 L 32.7893,-70.8956 L 32.6289,-70.5547
 L 32.427,-70.2366 L 32.1869,-69.9464 L 31.9123,-69.6885 L 31.6075,-69.467 L 31.2773,-69.2855 L 30.927,-69.1468
 L 30.5621,-69.0531 L 30.1884,-69.0059 z
M 44.8116,-69.0059 L 44.4379,-69.0531 L 44.0729,-69.1468 L 43.7227,-69.2855 L 43.3925,-69.467 L 43.0877,-69.6885
 L 42.8131,-69.9464 L 42.5729,-70.2366 L 42.3711,-70.5547 L 42.2107,-70.8956 L 42.0942,-71.2539 L 42.0237,-71.624
 L 42,-72 L 42.0237,-72.376 L 42.0942,-72.7461 L 42.2107,-73.1044 L 42.3711,-73.4453 L 42.5729,-73.7634
 L 42.8131,-74.0536 L 43.0877,-74.3115 L 43.3925,-74.533 L 43.7227,-74.7145 L 44.0729,-74.8532 L 44.4379,-74.9469
 L 44.8116,-74.9941 L 45.1884,-74.9941 L 45.5621,-74.9469 L 45.927,-74.8532 L 46.2773,-74.7145 L 46.6075,-74.533
 L 46.9123,-74.3115 L 47.1869,-74.0536 L 47.427,-73.7634 L 47.6289,-73.4453 L 47.7893,-73.1044 L 47.9057,-72.7461
 L 47.9763,-72.376 L 48,-72 L 47.9763,-71.624 L 47.9057,-71.2539 L 47.7893,-70.8956 L 47.6289,-70.5547
 L 47.427,-70.2366 L 47.1869,-69.9464 L 46.9123,-69.6885 L 46.6075,-69.467 L 46.2773,-69.2855 L 45.927,-69.1468
 L 45.5621,-69.0531 L 45.1884,-69.0059 z
M 74.8116,-69.0059 L 74.4379,-69.0531 L 74.073,-69.1468 L 73.7227,-69.2855 L 73.3925,-69.467 L 73.0877,-69.6885
 L 72.8131,-69.9464 L 72.573,-70.2366 L 72.3711,-70.5547 L 72.2107,-70.8956 L 72.0943,-71.2539 L 72.0237,-71.624
 L 72,-72 L 72.0237,-72.376 L 72.0943,-72.7461 L 72.2107,-73.1044 L 72.3711,-73.4453 L 72.573,-73.7634
 L 72.8131,-74.0536 L 73.0877,-74.3115 L 73.3925,-74.533 L 73.7227,-74.7145 L 74.073,-74.8532 L 74.4379,-74.9469
 L 74.8116,-74.9941 L 75.1884,-74.9941 L 75.5621,-74.9469 L 75.927,-74.8532 L 76.2773,-74.7145 L 76.6075,-74.533
 L 76.9123,-74.3115 L 77.1869,-74.0536 L 77.427,-73.7634 L 77.6289,-73.4453 L 77.7893,-73.1044 L 77.9057,-72.7461
 L 77.9763,-72.376 L 78,-72 L 77.9763,-71.624 L 77.9057,-71.2539 L 77.7893,-70.8956 L 77.6289,-70.5547
 L 77.427,-70.2366 L 77.1869,-69.9464 L 76.9123,-69.6885 L 76.6075,-69.467 L 76.2773,-69.2855 L 75.927,-69.1468
 L 75.5621,-69.0531 L 75.1884,-69.0059 z
M -90.1884,-69.0059 L -90.5621,-69.0531 L -90.927,-69.1468 L -91.2773,-69.2855 L -91.6075,-69.467 L -91.9123,-69.6885
 L -92.1869,-69.9464 L -92.427,-70.2366 L -92.6289,-70.5547 L -92.7893,-70.8956 L -92.9057,-71.2539 L -92.9763,-71.624
 L -93,-72 L -92.9763,-72.376 L -92.9057,-72.7461 L -92.7893,-73.1044 L -92.6289,-73.4453 L -92.427,-73.7634
 L -92.1869,-74.0536 L -91.9123,-74.3115 L -91.6075,-74.533 L -91.2773,-74.7145 L -90.927,-74.8532 L -90.5621,-74.9469
 L -90.1884,-74.9941 L -89.8116,-74.9941 L -89.4379,-74.9469 L -89.073,-74.8532 L -88.7227,-74.7145 L -88.3925,-74.533
 L -88.0877,-74.3115 L -87.8131,-74.0536 L -87.573,-73.7634 L -87.3711,-73.4453 L -87.2107,-73.1044 L -87.0943,-72.7461
 L -87.0237,-72.376 L -87,-72 L -87.0237,-71.624 L -87.0943,-71.2539 L -87.2107,-70.8956 L -87.3711,-70.5547
 L -87.573,-70.2366 L -87.8131,-69.9464 L -88.0877,-69.6885 L -88.3925,-69.467 L -88.7227,-69.2855 L -89.073,-69.1468
 L -89.4379,-69.0531 L -89.8116,-69.0059 z
M -45.1884,-69.0059 L -45.5621,-69.0531 L -45.927,-69.1468 L -46.2773,-69.2855 L -46.6075,-69.467 L -46.9123,-69.6885
 L -47.1869,-69.9464 L -47.427,-70.2366 L -47.6289,-70.5547 L -47.7893,-70.8956 L -47.9057,-71.2539 L -47.9763,-71.624
 L -48,-72 L -47.9763,-72.376 L -47.9057,-72.7461 L -47.7893,-73.1044 L -47.6289,-73.4453 L -47.427,-73.7634
 L -47.1869,-74.0536 L -46.9123,-74.3115 L -46.6075,-74.533 L -46.2773,-74.7145 L -45.927,-74.8532 L -45.5621,-74.9469
 L -45.1884,-74.9941 L -44.8116,-74.9941 L -44.4379,-74.9469 L -44.0729,-74.8532 L -43.7227,-74.7145 L -43.3925,-74.533
 L -43.0877,-74.3115 L -42.8131,-74.0536 L -42.5729,-73.7634 L -42.3711,-73.4453 L -42.2107,-73.1044 L -42.0942,-72.7461
 L -42.0237,-72.376 L -42,-72 L -42.0237,-71.624 L -42.0942,-71.2539 L -42.2107,-70.8956 L -42.3711,-70.5547
 L -42.5729,-70.2366 L -42.8131,-69.9464 L -43.0877,-69.6885 L -43.3925,-69.467 L -43.7227,-69.2855 L -44.0729,-69.1468
 L -44.4379,-69.0531 L -44.8116,-69.0059 z
M -60.1884,-69.0059 L -60.5621,-69.0531 L -60.927,-69.1468 L -61.2773,-69.2855 L -61.6075,-69.467 L -61.9123,-69.6885
 L -62.1869,-69.9464 L -62.427,-70.2366 L -62.6289,-70.5547 L -62.7893,-70.8956 L -62.9057,-71.2539 L -62.9763,-71.624
 L -63,-72 L -62.9763,-72.376 L -62.9057,-72.7461 L -62.7893,-73.1044 L -62.6289,-73.4453 L -62.427,-73.7634
 L -62.1869,-74.0536 L -61.9123,-74.3115 L -61.6075,-74.533 L -61.2773,-74.7145 L -60.927,-74.8532 L -60.5621,-74.9469
 L -60.1884,-74.9941 L -59.8116,-74.9941 L -59.4379,-74.9469 L -59.0729,-74.8532 L -58.7227,-74.7145 L -58.3925,-74.533
 L -58.0877,-74.3115 L -57.8131,-74.0536 L -57.5729,-73.7634 L -57.3711,-73.4453 L -57.2107,-73.1044 L -57.0942,-72.7461
 L -57.0237,-72.376 L -57,-72 L -57.0237,-71.624 L -57.0942,-71.2539 L -57.2107,-70.8956 L -57.3711,-70.5547
 L -57.5729,-70.2366 L -57.8131,-69.9464 L -58.0877,-69.6885 L -58.3925,-69.467 L -58.7227,-69.2855 L -59.0729,-69.1468
 L -59.4379,-69.0531 L -59.8116,-69.0059 z
M -30.1884,-69.0059 L -30.5621,-69.0531 L -30.927,-69.1468 L -31.2773,-69.2855 L -31.6075,-69.467 L -31.9123,-69.6885
 L -32.1869,-69.9464 L -32.427,-70.2366 L -32.6289,-70.5547 L -32.7893,-70.8956 L -32.9057,-71.2539 L -32.9763,-71.624
 L -33,-72 L -32.9763,-72.376 L -32.9057,-72.7461 L -32.7893,-73.1044 L -32.6289,-73.4453 L -32.427,-73.7634
 L -32.1869,-74.0536 L -31.9123,-74.3115 L -31.6075,-74.533 L -31.2773,-74.7145 L -30.927,-74.8532 L -30.5621,-74.9469
 L -30.1884,-74.9941 L -29.8116,-74.9941 L -29.4379,-74.9469 L -29.0729,-74.8532 L -28.7227,-74.7145 L -28.3925,-74.533
 L -28.0877,-74.3115 L -27.8131,-74.0536 L -27.5729,-73.7634 L -27.3711,-73.4453 L -27.2107,-73.1044 L -27.0942,-72.7461
 L -27.0237,-72.376 L -27,-72 L -27.0237,-71.624 L -27.0942,-71.2539 L -27.2107,-70.8956 L -27.3711,-70.5547
 L -27.5729,-70.2366 L -27.8131,-69.9464 L -28.0877,-69.6885 L -28.3925,-69.467 L -28.7227,-69.2855 L -29.0729,-69.1468
 L -29.4379,-69.0531 L -29.8116,-69.0059 z
M -15.1884,-69.0059 L -15.5621,-69.0531 L -15.927,-69.1468 L -16.2773,-69.2855 L -16.6075,-69.467 L -16.9123,-69.6885
 L -17.1869,-69.9464 L -17.427,-70.2366 L -17.6289,-70.5547 L -17.7893,-70.8956 L -17.9057,-71.2539 L -17.9763,-71.624
 L -18,-72 L -17.9763,-72.376 L -17.9057,-72.7461 L -17.7893,-73.1044 L -17.6289,-73.4453 L -17.427,-73.7634
 L -17.1869,-74.0536 L -16.9123,-74.3115 L -16.6075,-74.533 L -16.2773,-74.7145 L -15.927,-74.8532 L -15.5621,-74.9469
 L -15.1884,-74.9941 L -14.8116,-74.9941 L -14.4379,-74.9469 L -14.0729,-74.8532 L -13.7227,-74.7145 L -13.3925,-74.533
 L -13.0877,-74.3115 L -12.8131,-74.0536 L -12.5729,-73.7634 L -12.3711,-73.4453 L -12.2107,-73.1044 L -12.0942,-72.7461
 L -12.0237,-72.376 L -12,-72 L -12.0237,-71.624 L -12.0942,-71.2539 L -12.2107,-70.8956 L -12.3711,-70.5547
 L -12.5729,-70.2366 L -12.8131,-69.9464 L -13.0877,-69.6885 L -13.3925,-69.467 L -13.7227,-69.2855 L -14.0729,-69.1468
 L -14.4379,-69.0531 L -14.8116,-69.0059 z
M -0.18837,-69.0059 L -0.562134,-69.0531 L -0.927048,-69.1468 L -1.27733,-69.2855 L -1.60747,-69.467 L -1.91226,-69.6885
 L -2.1869,-69.9464 L -2.42705,-70.2366 L -2.62891,-70.5547 L -2.78932,-70.8956 L -2.90575,-71.2539 L -2.97633,-71.624
 L -3,-72 L -2.97633,-72.376 L -2.90575,-72.7461 L -2.78932,-73.1044 L -2.62891,-73.4453 L -2.42705,-73.7634
 L -2.1869,-74.0536 L -1.91226,-74.3115 L -1.60747,-74.533 L -1.27733,-74.7145 L -0.927048,-74.8532 L -0.562134,-74.9469
 L -0.18837,-74.9941 L 0.18837,-74.9941 L 0.562134,-74.9469 L 0.927048,-74.8532 L 1.27733,-74.7145 L 1.60747,-74.533
 L 1.91226,-74.3115 L 2.1869,-74.0536 L 2.42705,-73.7634 L 2.62891,-73.4453 L 2.78932,-73.1044 L 2.90575,-72.7461
 L 2.97633,-72.376 L 3,-72 L 2.97633,-71.624 L 2.90575,-71.2539 L 2.78932,-70.8956 L 2.62891,-70.5547
 L 2.42705,-70.2366 L 2.1869,-69.9464 L 1.91226,-69.6885 L 1.60747,-69.467 L 1.27733,-69.2855 L 0.927048,-69.1468
 L 0.562134,-69.0531 L 0.18837,-69.0059 z
M -75.1884,-69.0059 L -75.5621,-69.0531 L -75.927,-69.1468 L -76.2773,-69.2855 L -76.6075,-69.467 L -76.9123,-69.6885
 L -77.1869,-69.9464 L -77.427,-70.2366 L -77.6289,-70.5547 L -77.7893,-70.8956 L -77.9057,-71.2539 L -77.9763,-71.624
 L -78,-72 L -77.9763,-72.376 L -77.9057,-72.7461 L -77.7893,-73.1044 L -77.6289,-73.4453 L -77.427,-73.7634
 L -77.1869,-74.0536 L -76.9123,-74.3115 L -76.6075,-74.533 L -76.2773,-74.7145 L -75.927,-74.8532 L -75.5621,-74.9469
 L -75.1884,-74.9941 L -74.8116,-74.9941 L -74.4379,-74.9469 L -74.073,-74.8532 L -73.7227,-74.7145 L -73.3925,-74.533
 L -73.0877,-74.3115 L -72.8131,-74.0536 L -72.573,-73.7634 L -72.3711,-73.4453 L -72.2107,-73.1044 L -72.0943,-72.7461
 L -72.0237,-72.376 L -72,-72 L -72.0237,-71.624 L -72.0943,-71.2539 L -72.2107,-70.8956 L -72.3711,-70.5547
 L -72.573,-70.2366 L -72.8131,-69.9464 L -73.0877,-69.6885 L -73.3925,-69.467 L -73.7227,-69.2855 L -74.073,-69.1468
 L -74.4379,-69.0531 L -74.8116,-69.0059 z
M 14.8116,-69.0059 L 14.4379,-69.0531 L 14.0729,-69.1468 L 13.7227,-69.2855 L 13.3925,-69.467 L 13.0877,-69.6885
 L 12.8131,-69.9464 L 12.5729,-70.2366 L 12.3711,-70.5547 L 12.2107,-70.8956 L 12.0942,-71.2539 L 12.0237,-71.624
 L 12,-72 L 12.0237,-72.376 L 12.0942,-72.7461 L 12.2107,-73.1044 L 12.3711,-73.4453 L 12.5729,-73.7634
 L 12.8131,-74.0536 L 13.0877,-74.3115 L 13.3925,-74.533 L 13.7227,-74.7145 L 14.0729,-74.8532 L 14.4379,-74.9469
 L 14.8116,-74.9941 L 15.1884,-74.9941 L 15.5621,-74.9469 L 15.927,-74.8532 L 16.2773,-74.7145 L 16.6075,-74.533
 L 16.9123,-74.3115 L 17.1869,-74.0536 L 17.427,-73.7634 L 17.6289,-73.4453 L 17.7893,-73.1044 L 17.9057,-72.7461
 L 17.9763,-72.376 L 18,-72 L 17.9763,-71.624 L 17.9057,-71.2539 L 17.7893,-70.8956 L 17.6289,-70.5547
 L 17.427,-70.2366 L 17.1869,-69.9464 L 16.9123,-69.6885 L 16.6075,-69.467 L 16.2773,-69.2855 L 15.927,-69.1468
 L 15.5621,-69.0531 L 15.1884,-69.0059 z
" stroke="black" fill="lightgray" stroke-width="0.5"/>
</svg>
