  0
SECTION
  2
BLOCKS
  0
ENDSEC
  0
SECTION
  2
ENTITIES
  0
LINE
  8
0
 10
175.437
 20
-36.9114
 11
176.045
 21
-36.7553
  0
LINE
  8
0
 10
176.045
 20
-36.7553
 11
176.629
 21
-36.5241
  0
LINE
  8
0
 10
176.629
 20
-36.5241
 11
177.179
 21
-36.2216
  0
LINE
  8
0
 10
177.179
 20
-36.2216
 11
177.687
 21
-35.8526
  0
LINE
  8
0
 10
177.687
 20
-35.8526
 11
178.145
 21
-35.4227
  0
LINE
  8
0
 10
178.145
 20
-35.4227
 11
178.545
 21
-34.9389
  0
LINE
  8
0
 10
178.545
 20
-34.9389
 11
178.882
 21
-34.4088
  0
LINE
  8
0
 10
178.882
 20
-34.4088
 11
179.149
 21
-33.8406
  0
LINE
  8
0
 10
179.149
 20
-33.8406
 11
179.343
 21
-33.2434
  0
LINE
  8
0
 10
179.343
 20
-33.2434
 11
179.461
 21
-32.6267
  0
LINE
  8
0
 10
179.461
 20
-32.6267
 11
179.5
 21
-32
  0
LINE
  8
0
 10
179.5
 20
-32
 11
179.5
 21
32
  0
LINE
  8
0
 10
179.5
 20
32
 11
179.461
 21
32.6267
  0
LINE
  8
0
 10
179.461
 20
32.6267
 11
179.343
 21
33.2434
  0
LINE
  8
0
 10
179.343
 20
33.2434
 11
179.149
 21
33.8406
  0
LINE
  8
0
 10
179.149
 20
33.8406
 11
178.882
 21
34.4088
  0
LINE
  8
0
 10
178.882
 20
34.4088
 11
178.545
 21
34.9389
  0
LINE
  8
0
 10
178.545
 20
34.9389
 11
178.145
 21
35.4227
  0
LINE
  8
0
 10
178.145
 20
35.4227
 11
177.687
 21
35.8526
  0
LINE
  8
0
 10
177.687
 20
35.8526
 11
177.179
 21
36.2216
  0
LINE
  8
0
 10
177.179
 20
36.2216
 11
176.629
 21
36.5241
  0
LINE
  8
0
 10
176.629
 20
36.5241
 11
176.045
 21
36.7553
  0
LINE
  8
0
 10
176.045
 20
36.7553
 11
175.437
 21
36.9114
  0
LINE
  8
0
 10
175.437
 20
36.9114
 11
174.814
 21
36.9901
  0
LINE
  8
0
 10
174.814
 20
36.9901
 11
-174.814
 21
36.9901
  0
LINE
  8
0
 10
-174.814
 20
36.9901
 11
-175.437
 21
36.9114
  0
LINE
  8
0
 10
-175.437
 20
36.9114
 11
-176.045
 21
36.7553
  0
LINE
  8
0
 10
-176.045
 20
36.7553
 11
-176.629
 21
36.5241
  0
LINE
  8
0
 10
-176.629
 20
36.5241
 11
-177.179
 21
36.2216
  0
LINE
  8
0
 10
-177.179
 20
36.2216
 11
-177.687
 21
35.8526
  0
LINE
  8
0
 10
-177.687
 20
35.8526
 11
-178.145
 21
35.4227
  0
LINE
  8
0
 10
-178.145
 20
35.4227
 11
-178.545
 21
34.9389
  0
LINE
  8
0
 10
-178.545
 20
34.9389
 11
-178.882
 21
34.4088
  0
LINE
  8
0
 10
-178.882
 20
34.4088
 11
-179.149
 21
33.8406
  0
LINE
  8
0
 10
-179.149
 20
33.8406
 11
-179.343
 21
33.2434
  0
LINE
  8
0
 10
-179.343
 20
33.2434
 11
-179.461
 21
32.6267
  0
LINE
  8
0
 10
-179.461
 20
32.6267
 11
-179.5
 21
32
  0
LINE
  8
0
 10
-179.5
 20
32
 11
-179.5
 21
-32
  0
LINE
  8
0
 10
-179.5
 20
-32
 11
-179.461
 21
-32.6267
  0
LINE
  8
0
 10
-179.461
 20
-32.6267
 11
-179.343
 21
-33.2434
  0
LINE
  8
0
 10
-179.343
 20
-33.2434
 11
-179.149
 21
-33.8406
  0
LINE
  8
0
 10
-179.149
 20
-33.8406
 11
-178.882
 21
-34.4088
  0
LINE
  8
0
 10
-178.882
 20
-34.4088
 11
-178.545
 21
-34.9389
  0
LINE
  8
0
 10
-178.545
 20
-34.9389
 11
-178.145
 21
-35.4227
  0
LINE
  8
0
 10
-178.145
 20
-35.4227
 11
-177.687
 21
-35.8526
  0
LINE
  8
0
 10
-177.687
 20
-35.8526
 11
-177.179
 21
-36.2216
  0
LINE
  8
0
 10
-177.179
 20
-36.2216
 11
-176.629
 21
-36.5241
  0
LINE
  8
0
 10
-176.629
 20
-36.5241
 11
-176.045
 21
-36.7553
  0
LINE
  8
0
 10
-176.045
 20
-36.7553
 11
-175.437
 21
-36.9114
  0
LINE
  8
0
 10
-175.437
 20
-36.9114
 11
-174.814
 21
-36.9901
  0
LINE
  8
0
 10
-174.814
 20
-36.9901
 11
174.814
 21
-36.9901
  0
LINE
  8
0
 10
174.814
 20
-36.9901
 11
175.437
 21
-36.9114
  0
LINE
  8
0
 10
169.524
 20
30.376
 11
169.594
 21
30.7461
  0
LINE
  8
0
 10
169.594
 20
30.7461
 11
169.711
 21
31.1044
  0
LINE
  8
0
 10
169.711
 20
31.1044
 11
169.871
 21
31.4453
  0
LINE
  8
0
 10
169.871
 20
31.4453
 11
170.073
 21
31.7634
  0
LINE
  8
0
 10
170.073
 20
31.7634
 11
170.313
 21
32.0536
  0
LINE
  8
0
 10
170.313
 20
32.0536
 11
170.588
 21
32.3115
  0
LINE
  8
0
 10
170.588
 20
32.3115
 11
170.893
 21
32.533
  0
LINE
  8
0
 10
170.893
 20
32.533
 11
171.223
 21
32.7145
  0
LINE
  8
0
 10
171.223
 20
32.7145
 11
171.573
 21
32.8532
  0
LINE
  8
0
 10
171.573
 20
32.8532
 11
171.938
 21
32.9469
  0
LINE
  8
0
 10
171.938
 20
32.9469
 11
172.312
 21
32.9941
  0
LINE
  8
0
 10
172.312
 20
32.9941
 11
172.688
 21
32.9941
  0
LINE
  8
0
 10
172.688
 20
32.9941
 11
173.062
 21
32.9469
  0
LINE
  8
0
 10
173.062
 20
32.9469
 11
173.427
 21
32.8532
  0
LINE
  8
0
 10
173.427
 20
32.8532
 11
173.777
 21
32.7145
  0
LINE
  8
0
 10
173.777
 20
32.7145
 11
174.107
 21
32.533
  0
LINE
  8
0
 10
174.107
 20
32.533
 11
174.412
 21
32.3115
  0
LINE
  8
0
 10
174.412
 20
32.3115
 11
174.687
 21
32.0536
  0
LINE
  8
0
 10
174.687
 20
32.0536
 11
174.927
 21
31.7634
  0
LINE
  8
0
 10
174.927
 20
31.7634
 11
175.129
 21
31.4453
  0
LINE
  8
0
 10
175.129
 20
31.4453
 11
175.289
 21
31.1044
  0
LINE
  8
0
 10
175.289
 20
31.1044
 11
175.406
 21
30.7461
  0
LINE
  8
0
 10
175.406
 20
30.7461
 11
175.476
 21
30.376
  0
LINE
  8
0
 10
175.476
 20
30.376
 11
175.5
 21
30
  0
LINE
  8
0
 10
175.5
 20
30
 11
175.476
 21
29.624
  0
LINE
  8
0
 10
175.476
 20
29.624
 11
175.406
 21
29.2539
  0
LINE
  8
0
 10
175.406
 20
29.2539
 11
175.289
 21
28.8956
  0
LINE
  8
0
 10
175.289
 20
28.8956
 11
175.129
 21
28.5547
  0
LINE
  8
0
 10
175.129
 20
28.5547
 11
174.927
 21
28.2366
  0
LINE
  8
0
 10
174.927
 20
28.2366
 11
174.687
 21
27.9464
  0
LINE
  8
0
 10
174.687
 20
27.9464
 11
174.412
 21
27.6884
  0
LINE
  8
0
 10
174.412
 20
27.6884
 11
174.107
 21
27.467
  0
LINE
  8
0
 10
174.107
 20
27.467
 11
173.777
 21
27.2855
  0
LINE
  8
0
 10
173.777
 20
27.2855
 11
173.427
 21
27.1468
  0
LINE
  8
0
 10
173.427
 20
27.1468
 11
173.062
 21
27.0531
  0
LINE
  8
0
 10
173.062
 20
27.0531
 11
172.688
 21
27.0059
  0
LINE
  8
0
 10
172.688
 20
27.0059
 11
172.312
 21
27.0059
  0
LINE
  8
0
 10
172.312
 20
27.0059
 11
171.938
 21
27.0531
  0
LINE
  8
0
 10
171.938
 20
27.0531
 11
171.573
 21
27.1468
  0
LINE
  8
0
 10
171.573
 20
27.1468
 11
171.223
 21
27.2855
  0
LINE
  8
0
 10
171.223
 20
27.2855
 11
170.893
 21
27.467
  0
LINE
  8
0
 10
170.893
 20
27.467
 11
170.588
 21
27.6884
  0
LINE
  8
0
 10
170.588
 20
27.6884
 11
170.313
 21
27.9464
  0
LINE
  8
0
 10
170.313
 20
27.9464
 11
170.073
 21
28.2366
  0
LINE
  8
0
 10
170.073
 20
28.2366
 11
169.871
 21
28.5547
  0
LINE
  8
0
 10
169.871
 20
28.5547
 11
169.711
 21
28.8956
  0
LINE
  8
0
 10
169.711
 20
28.8956
 11
169.594
 21
29.2539
  0
LINE
  8
0
 10
169.594
 20
29.2539
 11
169.524
 21
29.624
  0
LINE
  8
0
 10
169.524
 20
29.624
 11
169.5
 21
30
  0
LINE
  8
0
 10
169.5
 20
30
 11
169.524
 21
30.376
  0
LINE
  8
0
 10
-172.688
 20
-32.9941
 11
-173.062
 21
-32.9469
  0
LINE
  8
0
 10
-173.062
 20
-32.9469
 11
-173.427
 21
-32.8532
  0
LINE
  8
0
 10
-173.427
 20
-32.8532
 11
-173.777
 21
-32.7145
  0
LINE
  8
0
 10
-173.777
 20
-32.7145
 11
-174.107
 21
-32.533
  0
LINE
  8
0
 10
-174.107
 20
-32.533
 11
-174.412
 21
-32.3115
  0
LINE
  8
0
 10
-174.412
 20
-32.3115
 11
-174.687
 21
-32.0536
  0
LINE
  8
0
 10
-174.687
 20
-32.0536
 11
-174.927
 21
-31.7634
  0
LINE
  8
0
 10
-174.927
 20
-31.7634
 11
-175.129
 21
-31.4453
  0
LINE
  8
0
 10
-175.129
 20
-31.4453
 11
-175.289
 21
-31.1044
  0
LINE
  8
0
 10
-175.289
 20
-31.1044
 11
-175.406
 21
-30.7461
  0
LINE
  8
0
 10
-175.406
 20
-30.7461
 11
-175.476
 21
-30.376
  0
LINE
  8
0
 10
-175.476
 20
-30.376
 11
-175.5
 21
-30
  0
LINE
  8
0
 10
-175.5
 20
-30
 11
-175.476
 21
-29.624
  0
LINE
  8
0
 10
-175.476
 20
-29.624
 11
-175.406
 21
-29.2539
  0
LINE
  8
0
 10
-175.406
 20
-29.2539
 11
-175.289
 21
-28.8956
  0
LINE
  8
0
 10
-175.289
 20
-28.8956
 11
-175.129
 21
-28.5547
  0
LINE
  8
0
 10
-175.129
 20
-28.5547
 11
-174.927
 21
-28.2366
  0
LINE
  8
0
 10
-174.927
 20
-28.2366
 11
-174.687
 21
-27.9464
  0
LINE
  8
0
 10
-174.687
 20
-27.9464
 11
-174.412
 21
-27.6884
  0
LINE
  8
0
 10
-174.412
 20
-27.6884
 11
-174.107
 21
-27.467
  0
LINE
  8
0
 10
-174.107
 20
-27.467
 11
-173.777
 21
-27.2855
  0
LINE
  8
0
 10
-173.777
 20
-27.2855
 11
-173.427
 21
-27.1468
  0
LINE
  8
0
 10
-173.427
 20
-27.1468
 11
-173.062
 21
-27.0531
  0
LINE
  8
0
 10
-173.062
 20
-27.0531
 11
-172.688
 21
-27.0059
  0
LINE
  8
0
 10
-172.688
 20
-27.0059
 11
-172.312
 21
-27.0059
  0
LINE
  8
0
 10
-172.312
 20
-27.0059
 11
-171.938
 21
-27.0531
  0
LINE
  8
0
 10
-171.938
 20
-27.0531
 11
-171.573
 21
-27.1468
  0
LINE
  8
0
 10
-171.573
 20
-27.1468
 11
-171.223
 21
-27.2855
  0
LINE
  8
0
 10
-171.223
 20
-27.2855
 11
-170.893
 21
-27.467
  0
LINE
  8
0
 10
-170.893
 20
-27.467
 11
-170.588
 21
-27.6884
  0
LINE
  8
0
 10
-170.588
 20
-27.6884
 11
-170.313
 21
-27.9464
  0
LINE
  8
0
 10
-170.313
 20
-27.9464
 11
-170.073
 21
-28.2366
  0
LINE
  8
0
 10
-170.073
 20
-28.2366
 11
-169.871
 21
-28.5547
  0
LINE
  8
0
 10
-169.871
 20
-28.5547
 11
-169.711
 21
-28.8956
  0
LINE
  8
0
 10
-169.711
 20
-28.8956
 11
-169.594
 21
-29.2539
  0
LINE
  8
0
 10
-169.594
 20
-29.2539
 11
-169.524
 21
-29.624
  0
LINE
  8
0
 10
-169.524
 20
-29.624
 11
-169.5
 21
-30
  0
LINE
  8
0
 10
-169.5
 20
-30
 11
-169.524
 21
-30.376
  0
LINE
  8
0
 10
-169.524
 20
-30.376
 11
-169.594
 21
-30.7461
  0
LINE
  8
0
 10
-169.594
 20
-30.7461
 11
-169.711
 21
-31.1044
  0
LINE
  8
0
 10
-169.711
 20
-31.1044
 11
-169.871
 21
-31.4453
  0
LINE
  8
0
 10
-169.871
 20
-31.4453
 11
-170.073
 21
-31.7634
  0
LINE
  8
0
 10
-170.073
 20
-31.7634
 11
-170.313
 21
-32.0536
  0
LINE
  8
0
 10
-170.313
 20
-32.0536
 11
-170.588
 21
-32.3115
  0
LINE
  8
0
 10
-170.588
 20
-32.3115
 11
-170.893
 21
-32.533
  0
LINE
  8
0
 10
-170.893
 20
-32.533
 11
-171.223
 21
-32.7145
  0
LINE
  8
0
 10
-171.223
 20
-32.7145
 11
-171.573
 21
-32.8532
  0
LINE
  8
0
 10
-171.573
 20
-32.8532
 11
-171.938
 21
-32.9469
  0
LINE
  8
0
 10
-171.938
 20
-32.9469
 11
-172.312
 21
-32.9941
  0
LINE
  8
0
 10
-172.312
 20
-32.9941
 11
-172.688
 21
-32.9941
  0
LINE
  8
0
 10
172.312
 20
-32.9941
 11
171.938
 21
-32.9469
  0
LINE
  8
0
 10
171.938
 20
-32.9469
 11
171.573
 21
-32.8532
  0
LINE
  8
0
 10
171.573
 20
-32.8532
 11
171.223
 21
-32.7145
  0
LINE
  8
0
 10
171.223
 20
-32.7145
 11
170.893
 21
-32.533
  0
LINE
  8
0
 10
170.893
 20
-32.533
 11
170.588
 21
-32.3115
  0
LINE
  8
0
 10
170.588
 20
-32.3115
 11
170.313
 21
-32.0536
  0
LINE
  8
0
 10
170.313
 20
-32.0536
 11
170.073
 21
-31.7634
  0
LINE
  8
0
 10
170.073
 20
-31.7634
 11
169.871
 21
-31.4453
  0
LINE
  8
0
 10
169.871
 20
-31.4453
 11
169.711
 21
-31.1044
  0
LINE
  8
0
 10
169.711
 20
-31.1044
 11
169.594
 21
-30.7461
  0
LINE
  8
0
 10
169.594
 20
-30.7461
 11
169.524
 21
-30.376
  0
LINE
  8
0
 10
169.524
 20
-30.376
 11
169.5
 21
-30
  0
LINE
  8
0
 10
169.5
 20
-30
 11
169.524
 21
-29.624
  0
LINE
  8
0
 10
169.524
 20
-29.624
 11
169.594
 21
-29.2539
  0
LINE
  8
0
 10
169.594
 20
-29.2539
 11
169.711
 21
-28.8956
  0
LINE
  8
0
 10
169.711
 20
-28.8956
 11
169.871
 21
-28.5547
  0
LINE
  8
0
 10
169.871
 20
-28.5547
 11
170.073
 21
-28.2366
  0
LINE
  8
0
 10
170.073
 20
-28.2366
 11
170.313
 21
-27.9464
  0
LINE
  8
0
 10
170.313
 20
-27.9464
 11
170.588
 21
-27.6884
  0
LINE
  8
0
 10
170.588
 20
-27.6884
 11
170.893
 21
-27.467
  0
LINE
  8
0
 10
170.893
 20
-27.467
 11
171.223
 21
-27.2855
  0
LINE
  8
0
 10
171.223
 20
-27.2855
 11
171.573
 21
-27.1468
  0
LINE
  8
0
 10
171.573
 20
-27.1468
 11
171.938
 21
-27.0531
  0
LINE
  8
0
 10
171.938
 20
-27.0531
 11
172.312
 21
-27.0059
  0
LINE
  8
0
 10
172.312
 20
-27.0059
 11
172.688
 21
-27.0059
  0
LINE
  8
0
 10
172.688
 20
-27.0059
 11
173.062
 21
-27.0531
  0
LINE
  8
0
 10
173.062
 20
-27.0531
 11
173.427
 21
-27.1468
  0
LINE
  8
0
 10
173.427
 20
-27.1468
 11
173.777
 21
-27.2855
  0
LINE
  8
0
 10
173.777
 20
-27.2855
 11
174.107
 21
-27.467
  0
LINE
  8
0
 10
174.107
 20
-27.467
 11
174.412
 21
-27.6884
  0
LINE
  8
0
 10
174.412
 20
-27.6884
 11
174.687
 21
-27.9464
  0
LINE
  8
0
 10
174.687
 20
-27.9464
 11
174.927
 21
-28.2366
  0
LINE
  8
0
 10
174.927
 20
-28.2366
 11
175.129
 21
-28.5547
  0
LINE
  8
0
 10
175.129
 20
-28.5547
 11
175.289
 21
-28.8956
  0
LINE
  8
0
 10
175.289
 20
-28.8956
 11
175.406
 21
-29.2539
  0
LINE
  8
0
 10
175.406
 20
-29.2539
 11
175.476
 21
-29.624
  0
LINE
  8
0
 10
175.476
 20
-29.624
 11
175.5
 21
-30
  0
LINE
  8
0
 10
175.5
 20
-30
 11
175.476
 21
-30.376
  0
LINE
  8
0
 10
175.476
 20
-30.376
 11
175.406
 21
-30.7461
  0
LINE
  8
0
 10
175.406
 20
-30.7461
 11
175.289
 21
-31.1044
  0
LINE
  8
0
 10
175.289
 20
-31.1044
 11
175.129
 21
-31.4453
  0
LINE
  8
0
 10
175.129
 20
-31.4453
 11
174.927
 21
-31.7634
  0
LINE
  8
0
 10
174.927
 20
-31.7634
 11
174.687
 21
-32.0536
  0
LINE
  8
0
 10
174.687
 20
-32.0536
 11
174.412
 21
-32.3115
  0
LINE
  8
0
 10
174.412
 20
-32.3115
 11
174.107
 21
-32.533
  0
LINE
  8
0
 10
174.107
 20
-32.533
 11
173.777
 21
-32.7145
  0
LINE
  8
0
 10
173.777
 20
-32.7145
 11
173.427
 21
-32.8532
  0
LINE
  8
0
 10
173.427
 20
-32.8532
 11
173.062
 21
-32.9469
  0
LINE
  8
0
 10
173.062
 20
-32.9469
 11
172.688
 21
-32.9941
  0
LINE
  8
0
 10
172.688
 20
-32.9941
 11
172.312
 21
-32.9941
  0
LINE
  8
0
 10
-169.711
 20
28.8956
 11
-169.871
 21
28.5547
  0
LINE
  8
0
 10
-169.871
 20
28.5547
 11
-170.073
 21
28.2366
  0
LINE
  8
0
 10
-170.073
 20
28.2366
 11
-170.313
 21
27.9464
  0
LINE
  8
0
 10
-170.313
 20
27.9464
 11
-170.588
 21
27.6884
  0
LINE
  8
0
 10
-170.588
 20
27.6884
 11
-170.893
 21
27.467
  0
LINE
  8
0
 10
-170.893
 20
27.467
 11
-171.223
 21
27.2855
  0
LINE
  8
0
 10
-171.223
 20
27.2855
 11
-171.573
 21
27.1468
  0
LINE
  8
0
 10
-171.573
 20
27.1468
 11
-171.938
 21
27.0531
  0
LINE
  8
0
 10
-171.938
 20
27.0531
 11
-172.312
 21
27.0059
  0
LINE
  8
0
 10
-172.312
 20
27.0059
 11
-172.688
 21
27.0059
  0
LINE
  8
0
 10
-172.688
 20
27.0059
 11
-173.062
 21
27.0531
  0
LINE
  8
0
 10
-173.062
 20
27.0531
 11
-173.427
 21
27.1468
  0
LINE
  8
0
 10
-173.427
 20
27.1468
 11
-173.777
 21
27.2855
  0
LINE
  8
0
 10
-173.777
 20
27.2855
 11
-174.107
 21
27.467
  0
LINE
  8
0
 10
-174.107
 20
27.467
 11
-174.412
 21
27.6884
  0
LINE
  8
0
 10
-174.412
 20
27.6884
 11
-174.687
 21
27.9464
  0
LINE
  8
0
 10
-174.687
 20
27.9464
 11
-174.927
 21
28.2366
  0
LINE
  8
0
 10
-174.927
 20
28.2366
 11
-175.129
 21
28.5547
  0
LINE
  8
0
 10
-175.129
 20
28.5547
 11
-175.289
 21
28.8956
  0
LINE
  8
0
 10
-175.289
 20
28.8956
 11
-175.406
 21
29.2539
  0
LINE
  8
0
 10
-175.406
 20
29.2539
 11
-175.476
 21
29.624
  0
LINE
  8
0
 10
-175.476
 20
29.624
 11
-175.5
 21
30
  0
LINE
  8
0
 10
-175.5
 20
30
 11
-175.476
 21
30.376
  0
LINE
  8
0
 10
-175.476
 20
30.376
 11
-175.406
 21
30.7461
  0
LINE
  8
0
 10
-175.406
 20
30.7461
 11
-175.289
 21
31.1044
  0
LINE
  8
0
 10
-175.289
 20
31.1044
 11
-175.129
 21
31.4453
  0
LINE
  8
0
 10
-175.129
 20
31.4453
 11
-174.927
 21
31.7634
  0
LINE
  8
0
 10
-174.927
 20
31.7634
 11
-174.687
 21
32.0536
  0
LINE
  8
0
 10
-174.687
 20
32.0536
 11
-174.412
 21
32.3115
  0
LINE
  8
0
 10
-174.412
 20
32.3115
 11
-174.107
 21
32.533
  0
LINE
  8
0
 10
-174.107
 20
32.533
 11
-173.777
 21
32.7145
  0
LINE
  8
0
 10
-173.777
 20
32.7145
 11
-173.427
 21
32.8532
  0
LINE
  8
0
 10
-173.427
 20
32.8532
 11
-173.062
 21
32.9469
  0
LINE
  8
0
 10
-173.062
 20
32.9469
 11
-172.688
 21
32.9941
  0
LINE
  8
0
 10
-172.688
 20
32.9941
 11
-172.312
 21
32.9941
  0
LINE
  8
0
 10
-172.312
 20
32.9941
 11
-171.938
 21
32.9469
  0
LINE
  8
0
 10
-171.938
 20
32.9469
 11
-171.573
 21
32.8532
  0
LINE
  8
0
 10
-171.573
 20
32.8532
 11
-171.223
 21
32.7145
  0
LINE
  8
0
 10
-171.223
 20
32.7145
 11
-170.893
 21
32.533
  0
LINE
  8
0
 10
-170.893
 20
32.533
 11
-170.588
 21
32.3115
  0
LINE
  8
0
 10
-170.588
 20
32.3115
 11
-170.313
 21
32.0536
  0
LINE
  8
0
 10
-170.313
 20
32.0536
 11
-170.073
 21
31.7634
  0
LINE
  8
0
 10
-170.073
 20
31.7634
 11
-169.871
 21
31.4453
  0
LINE
  8
0
 10
-169.871
 20
31.4453
 11
-169.711
 21
31.1044
  0
LINE
  8
0
 10
-169.711
 20
31.1044
 11
-169.594
 21
30.7461
  0
LINE
  8
0
 10
-169.594
 20
30.7461
 11
-169.524
 21
30.376
  0
LINE
  8
0
 10
-169.524
 20
30.376
 11
-169.5
 21
30
  0
LINE
  8
0
 10
-169.5
 20
30
 11
-169.524
 21
29.624
  0
LINE
  8
0
 10
-169.524
 20
29.624
 11
-169.594
 21
29.2539
  0
LINE
  8
0
 10
-169.594
 20
29.2539
 11
-169.711
 21
28.8956
  0
ENDSEC
  0
SECTION
  2
OBJECTS
  0
DICTIONARY
  0
ENDSEC
  0
EOF
