  0
SECTION
  2
BLOCKS
  0
ENDSEC
  0
SECTION
  2
ENTITIES
  0
LINE
  8
0
 10
130.437
 20
-111.911
 11
131.045
 21
-111.755
  0
LINE
  8
0
 10
131.045
 20
-111.755
 11
131.629
 21
-111.524
  0
LINE
  8
0
 10
131.629
 20
-111.524
 11
132.179
 21
-111.222
  0
LINE
  8
0
 10
132.179
 20
-111.222
 11
132.687
 21
-110.853
  0
LINE
  8
0
 10
132.687
 20
-110.853
 11
133.145
 21
-110.423
  0
LINE
  8
0
 10
133.145
 20
-110.423
 11
133.545
 21
-109.939
  0
LINE
  8
0
 10
133.545
 20
-109.939
 11
133.882
 21
-109.409
  0
LINE
  8
0
 10
133.882
 20
-109.409
 11
134.149
 21
-108.841
  0
LINE
  8
0
 10
134.149
 20
-108.841
 11
134.343
 21
-108.243
  0
LINE
  8
0
 10
134.343
 20
-108.243
 11
134.461
 21
-107.627
  0
LINE
  8
0
 10
134.461
 20
-107.627
 11
134.5
 21
-107
  0
LINE
  8
0
 10
134.5
 20
-107
 11
134.5
 21
107
  0
LINE
  8
0
 10
134.5
 20
107
 11
134.461
 21
107.627
  0
LINE
  8
0
 10
134.461
 20
107.627
 11
134.343
 21
108.243
  0
LINE
  8
0
 10
134.343
 20
108.243
 11
134.149
 21
108.841
  0
LINE
  8
0
 10
134.149
 20
108.841
 11
133.882
 21
109.409
  0
LINE
  8
0
 10
133.882
 20
109.409
 11
133.545
 21
109.939
  0
LINE
  8
0
 10
133.545
 20
109.939
 11
133.145
 21
110.423
  0
LINE
  8
0
 10
133.145
 20
110.423
 11
132.687
 21
110.853
  0
LINE
  8
0
 10
132.687
 20
110.853
 11
132.179
 21
111.222
  0
LINE
  8
0
 10
132.179
 20
111.222
 11
131.629
 21
111.524
  0
LINE
  8
0
 10
131.629
 20
111.524
 11
131.045
 21
111.755
  0
LINE
  8
0
 10
131.045
 20
111.755
 11
130.437
 21
111.911
  0
LINE
  8
0
 10
130.437
 20
111.911
 11
129.814
 21
111.99
  0
LINE
  8
0
 10
129.814
 20
111.99
 11
-129.814
 21
111.99
  0
LINE
  8
0
 10
-129.814
 20
111.99
 11
-130.437
 21
111.911
  0
LINE
  8
0
 10
-130.437
 20
111.911
 11
-131.045
 21
111.755
  0
LINE
  8
0
 10
-131.045
 20
111.755
 11
-131.629
 21
111.524
  0
LINE
  8
0
 10
-131.629
 20
111.524
 11
-132.179
 21
111.222
  0
LINE
  8
0
 10
-132.179
 20
111.222
 11
-132.687
 21
110.853
  0
LINE
  8
0
 10
-132.687
 20
110.853
 11
-133.145
 21
110.423
  0
LINE
  8
0
 10
-133.145
 20
110.423
 11
-133.545
 21
109.939
  0
LINE
  8
0
 10
-133.545
 20
109.939
 11
-133.882
 21
109.409
  0
LINE
  8
0
 10
-133.882
 20
109.409
 11
-134.149
 21
108.841
  0
LINE
  8
0
 10
-134.149
 20
108.841
 11
-134.343
 21
108.243
  0
LINE
  8
0
 10
-134.343
 20
108.243
 11
-134.461
 21
107.627
  0
LINE
  8
0
 10
-134.461
 20
107.627
 11
-134.5
 21
107
  0
LINE
  8
0
 10
-134.5
 20
107
 11
-134.5
 21
-107
  0
LINE
  8
0
 10
-134.5
 20
-107
 11
-134.461
 21
-107.627
  0
LINE
  8
0
 10
-134.461
 20
-107.627
 11
-134.343
 21
-108.243
  0
LINE
  8
0
 10
-134.343
 20
-108.243
 11
-134.149
 21
-108.841
  0
LINE
  8
0
 10
-134.149
 20
-108.841
 11
-133.882
 21
-109.409
  0
LINE
  8
0
 10
-133.882
 20
-109.409
 11
-133.545
 21
-109.939
  0
LINE
  8
0
 10
-133.545
 20
-109.939
 11
-133.145
 21
-110.423
  0
LINE
  8
0
 10
-133.145
 20
-110.423
 11
-132.687
 21
-110.853
  0
LINE
  8
0
 10
-132.687
 20
-110.853
 11
-132.179
 21
-111.222
  0
LINE
  8
0
 10
-132.179
 20
-111.222
 11
-131.629
 21
-111.524
  0
LINE
  8
0
 10
-131.629
 20
-111.524
 11
-131.045
 21
-111.755
  0
LINE
  8
0
 10
-131.045
 20
-111.755
 11
-130.437
 21
-111.911
  0
LINE
  8
0
 10
-130.437
 20
-111.911
 11
-129.814
 21
-111.99
  0
LINE
  8
0
 10
-129.814
 20
-111.99
 11
129.814
 21
-111.99
  0
LINE
  8
0
 10
129.814
 20
-111.99
 11
130.437
 21
-111.911
  0
LINE
  8
0
 10
127.312
 20
102.006
 11
126.938
 21
102.053
  0
LINE
  8
0
 10
126.938
 20
102.053
 11
126.573
 21
102.147
  0
LINE
  8
0
 10
126.573
 20
102.147
 11
126.223
 21
102.286
  0
LINE
  8
0
 10
126.223
 20
102.286
 11
125.893
 21
102.467
  0
LINE
  8
0
 10
125.893
 20
102.467
 11
125.588
 21
102.688
  0
LINE
  8
0
 10
125.588
 20
102.688
 11
125.313
 21
102.946
  0
LINE
  8
0
 10
125.313
 20
102.946
 11
125.073
 21
103.237
  0
LINE
  8
0
 10
125.073
 20
103.237
 11
124.871
 21
103.555
  0
LINE
  8
0
 10
124.871
 20
103.555
 11
124.711
 21
103.896
  0
LINE
  8
0
 10
124.711
 20
103.896
 11
124.594
 21
104.254
  0
LINE
  8
0
 10
124.594
 20
104.254
 11
124.524
 21
104.624
  0
LINE
  8
0
 10
124.524
 20
104.624
 11
124.5
 21
105
  0
LINE
  8
0
 10
124.5
 20
105
 11
124.524
 21
105.376
  0
LINE
  8
0
 10
124.524
 20
105.376
 11
124.594
 21
105.746
  0
LINE
  8
0
 10
124.594
 20
105.746
 11
124.711
 21
106.104
  0
LINE
  8
0
 10
124.711
 20
106.104
 11
124.871
 21
106.445
  0
LINE
  8
0
 10
124.871
 20
106.445
 11
125.073
 21
106.763
  0
LINE
  8
0
 10
125.073
 20
106.763
 11
125.313
 21
107.054
  0
LINE
  8
0
 10
125.313
 20
107.054
 11
125.588
 21
107.312
  0
LINE
  8
0
 10
125.588
 20
107.312
 11
125.893
 21
107.533
  0
LINE
  8
0
 10
125.893
 20
107.533
 11
126.223
 21
107.714
  0
LINE
  8
0
 10
126.223
 20
107.714
 11
126.573
 21
107.853
  0
LINE
  8
0
 10
126.573
 20
107.853
 11
126.938
 21
107.947
  0
LINE
  8
0
 10
126.938
 20
107.947
 11
127.312
 21
107.994
  0
LINE
  8
0
 10
127.312
 20
107.994
 11
127.688
 21
107.994
  0
LINE
  8
0
 10
127.688
 20
107.994
 11
128.062
 21
107.947
  0
LINE
  8
0
 10
128.062
 20
107.947
 11
128.427
 21
107.853
  0
LINE
  8
0
 10
128.427
 20
107.853
 11
128.777
 21
107.714
  0
LINE
  8
0
 10
128.777
 20
107.714
 11
129.107
 21
107.533
  0
LINE
  8
0
 10
129.107
 20
107.533
 11
129.412
 21
107.312
  0
LINE
  8
0
 10
129.412
 20
107.312
 11
129.687
 21
107.054
  0
LINE
  8
0
 10
129.687
 20
107.054
 11
129.927
 21
106.763
  0
LINE
  8
0
 10
129.927
 20
106.763
 11
130.129
 21
106.445
  0
LINE
  8
0
 10
130.129
 20
106.445
 11
130.289
 21
106.104
  0
LINE
  8
0
 10
130.289
 20
106.104
 11
130.406
 21
105.746
  0
LINE
  8
0
 10
130.406
 20
105.746
 11
130.476
 21
105.376
  0
LINE
  8
0
 10
130.476
 20
105.376
 11
130.5
 21
105
  0
LINE
  8
0
 10
130.5
 20
105
 11
130.476
 21
104.624
  0
LINE
  8
0
 10
130.476
 20
104.624
 11
130.406
 21
104.254
  0
LINE
  8
0
 10
130.406
 20
104.254
 11
130.289
 21
103.896
  0
LINE
  8
0
 10
130.289
 20
103.896
 11
130.129
 21
103.555
  0
LINE
  8
0
 10
130.129
 20
103.555
 11
129.927
 21
103.237
  0
LINE
  8
0
 10
129.927
 20
103.237
 11
129.687
 21
102.946
  0
LINE
  8
0
 10
129.687
 20
102.946
 11
129.412
 21
102.688
  0
LINE
  8
0
 10
129.412
 20
102.688
 11
129.107
 21
102.467
  0
LINE
  8
0
 10
129.107
 20
102.467
 11
128.777
 21
102.286
  0
LINE
  8
0
 10
128.777
 20
102.286
 11
128.427
 21
102.147
  0
LINE
  8
0
 10
128.427
 20
102.147
 11
128.062
 21
102.053
  0
LINE
  8
0
 10
128.062
 20
102.053
 11
127.688
 21
102.006
  0
LINE
  8
0
 10
127.688
 20
102.006
 11
127.312
 21
102.006
  0
LINE
  8
0
 10
-127.688
 20
102.006
 11
-128.062
 21
102.053
  0
LINE
  8
0
 10
-128.062
 20
102.053
 11
-128.427
 21
102.147
  0
LINE
  8
0
 10
-128.427
 20
102.147
 11
-128.777
 21
102.286
  0
LINE
  8
0
 10
-128.777
 20
102.286
 11
-129.107
 21
102.467
  0
LINE
  8
0
 10
-129.107
 20
102.467
 11
-129.412
 21
102.688
  0
LINE
  8
0
 10
-129.412
 20
102.688
 11
-129.687
 21
102.946
  0
LINE
  8
0
 10
-129.687
 20
102.946
 11
-129.927
 21
103.237
  0
LINE
  8
0
 10
-129.927
 20
103.237
 11
-130.129
 21
103.555
  0
LINE
  8
0
 10
-130.129
 20
103.555
 11
-130.289
 21
103.896
  0
LINE
  8
0
 10
-130.289
 20
103.896
 11
-130.406
 21
104.254
  0
LINE
  8
0
 10
-130.406
 20
104.254
 11
-130.476
 21
104.624
  0
LINE
  8
0
 10
-130.476
 20
104.624
 11
-130.5
 21
105
  0
LINE
  8
0
 10
-130.5
 20
105
 11
-130.476
 21
105.376
  0
LINE
  8
0
 10
-130.476
 20
105.376
 11
-130.406
 21
105.746
  0
LINE
  8
0
 10
-130.406
 20
105.746
 11
-130.289
 21
106.104
  0
LINE
  8
0
 10
-130.289
 20
106.104
 11
-130.129
 21
106.445
  0
LINE
  8
0
 10
-130.129
 20
106.445
 11
-129.927
 21
106.763
  0
LINE
  8
0
 10
-129.927
 20
106.763
 11
-129.687
 21
107.054
  0
LINE
  8
0
 10
-129.687
 20
107.054
 11
-129.412
 21
107.312
  0
LINE
  8
0
 10
-129.412
 20
107.312
 11
-129.107
 21
107.533
  0
LINE
  8
0
 10
-129.107
 20
107.533
 11
-128.777
 21
107.714
  0
LINE
  8
0
 10
-128.777
 20
107.714
 11
-128.427
 21
107.853
  0
LINE
  8
0
 10
-128.427
 20
107.853
 11
-128.062
 21
107.947
  0
LINE
  8
0
 10
-128.062
 20
107.947
 11
-127.688
 21
107.994
  0
LINE
  8
0
 10
-127.688
 20
107.994
 11
-127.312
 21
107.994
  0
LINE
  8
0
 10
-127.312
 20
107.994
 11
-126.938
 21
107.947
  0
LINE
  8
0
 10
-126.938
 20
107.947
 11
-126.573
 21
107.853
  0
LINE
  8
0
 10
-126.573
 20
107.853
 11
-126.223
 21
107.714
  0
LINE
  8
0
 10
-126.223
 20
107.714
 11
-125.893
 21
107.533
  0
LINE
  8
0
 10
-125.893
 20
107.533
 11
-125.588
 21
107.312
  0
LINE
  8
0
 10
-125.588
 20
107.312
 11
-125.313
 21
107.054
  0
LINE
  8
0
 10
-125.313
 20
107.054
 11
-125.073
 21
106.763
  0
LINE
  8
0
 10
-125.073
 20
106.763
 11
-124.871
 21
106.445
  0
LINE
  8
0
 10
-124.871
 20
106.445
 11
-124.711
 21
106.104
  0
LINE
  8
0
 10
-124.711
 20
106.104
 11
-124.594
 21
105.746
  0
LINE
  8
0
 10
-124.594
 20
105.746
 11
-124.524
 21
105.376
  0
LINE
  8
0
 10
-124.524
 20
105.376
 11
-124.5
 21
105
  0
LINE
  8
0
 10
-124.5
 20
105
 11
-124.524
 21
104.624
  0
LINE
  8
0
 10
-124.524
 20
104.624
 11
-124.594
 21
104.254
  0
LINE
  8
0
 10
-124.594
 20
104.254
 11
-124.711
 21
103.896
  0
LINE
  8
0
 10
-124.711
 20
103.896
 11
-124.871
 21
103.555
  0
LINE
  8
0
 10
-124.871
 20
103.555
 11
-125.073
 21
103.237
  0
LINE
  8
0
 10
-125.073
 20
103.237
 11
-125.313
 21
102.946
  0
LINE
  8
0
 10
-125.313
 20
102.946
 11
-125.588
 21
102.688
  0
LINE
  8
0
 10
-125.588
 20
102.688
 11
-125.893
 21
102.467
  0
LINE
  8
0
 10
-125.893
 20
102.467
 11
-126.223
 21
102.286
  0
LINE
  8
0
 10
-126.223
 20
102.286
 11
-126.573
 21
102.147
  0
LINE
  8
0
 10
-126.573
 20
102.147
 11
-126.938
 21
102.053
  0
LINE
  8
0
 10
-126.938
 20
102.053
 11
-127.312
 21
102.006
  0
LINE
  8
0
 10
-127.312
 20
102.006
 11
-127.688
 21
102.006
  0
LINE
  8
0
 10
127.312
 20
-107.994
 11
126.938
 21
-107.947
  0
LINE
  8
0
 10
126.938
 20
-107.947
 11
126.573
 21
-107.853
  0
LINE
  8
0
 10
126.573
 20
-107.853
 11
126.223
 21
-107.714
  0
LINE
  8
0
 10
126.223
 20
-107.714
 11
125.893
 21
-107.533
  0
LINE
  8
0
 10
125.893
 20
-107.533
 11
125.588
 21
-107.312
  0
LINE
  8
0
 10
125.588
 20
-107.312
 11
125.313
 21
-107.054
  0
LINE
  8
0
 10
125.313
 20
-107.054
 11
125.073
 21
-106.763
  0
LINE
  8
0
 10
125.073
 20
-106.763
 11
124.871
 21
-106.445
  0
LINE
  8
0
 10
124.871
 20
-106.445
 11
124.711
 21
-106.104
  0
LINE
  8
0
 10
124.711
 20
-106.104
 11
124.594
 21
-105.746
  0
LINE
  8
0
 10
124.594
 20
-105.746
 11
124.524
 21
-105.376
  0
LINE
  8
0
 10
124.524
 20
-105.376
 11
124.5
 21
-105
  0
LINE
  8
0
 10
124.5
 20
-105
 11
124.524
 21
-104.624
  0
LINE
  8
0
 10
124.524
 20
-104.624
 11
124.594
 21
-104.254
  0
LINE
  8
0
 10
124.594
 20
-104.254
 11
124.711
 21
-103.896
  0
LINE
  8
0
 10
124.711
 20
-103.896
 11
124.871
 21
-103.555
  0
LINE
  8
0
 10
124.871
 20
-103.555
 11
125.073
 21
-103.237
  0
LINE
  8
0
 10
125.073
 20
-103.237
 11
125.313
 21
-102.946
  0
LINE
  8
0
 10
125.313
 20
-102.946
 11
125.588
 21
-102.688
  0
LINE
  8
0
 10
125.588
 20
-102.688
 11
125.893
 21
-102.467
  0
LINE
  8
0
 10
125.893
 20
-102.467
 11
126.223
 21
-102.286
  0
LINE
  8
0
 10
126.223
 20
-102.286
 11
126.573
 21
-102.147
  0
LINE
  8
0
 10
126.573
 20
-102.147
 11
126.938
 21
-102.053
  0
LINE
  8
0
 10
126.938
 20
-102.053
 11
127.312
 21
-102.006
  0
LINE
  8
0
 10
127.312
 20
-102.006
 11
127.688
 21
-102.006
  0
LINE
  8
0
 10
127.688
 20
-102.006
 11
128.062
 21
-102.053
  0
LINE
  8
0
 10
128.062
 20
-102.053
 11
128.427
 21
-102.147
  0
LINE
  8
0
 10
128.427
 20
-102.147
 11
128.777
 21
-102.286
  0
LINE
  8
0
 10
128.777
 20
-102.286
 11
129.107
 21
-102.467
  0
LINE
  8
0
 10
129.107
 20
-102.467
 11
129.412
 21
-102.688
  0
LINE
  8
0
 10
129.412
 20
-102.688
 11
129.687
 21
-102.946
  0
LINE
  8
0
 10
129.687
 20
-102.946
 11
129.927
 21
-103.237
  0
LINE
  8
0
 10
129.927
 20
-103.237
 11
130.129
 21
-103.555
  0
LINE
  8
0
 10
130.129
 20
-103.555
 11
130.289
 21
-103.896
  0
LINE
  8
0
 10
130.289
 20
-103.896
 11
130.406
 21
-104.254
  0
LINE
  8
0
 10
130.406
 20
-104.254
 11
130.476
 21
-104.624
  0
LINE
  8
0
 10
130.476
 20
-104.624
 11
130.5
 21
-105
  0
LINE
  8
0
 10
130.5
 20
-105
 11
130.476
 21
-105.376
  0
LINE
  8
0
 10
130.476
 20
-105.376
 11
130.406
 21
-105.746
  0
LINE
  8
0
 10
130.406
 20
-105.746
 11
130.289
 21
-106.104
  0
LINE
  8
0
 10
130.289
 20
-106.104
 11
130.129
 21
-106.445
  0
LINE
  8
0
 10
130.129
 20
-106.445
 11
129.927
 21
-106.763
  0
LINE
  8
0
 10
129.927
 20
-106.763
 11
129.687
 21
-107.054
  0
LINE
  8
0
 10
129.687
 20
-107.054
 11
129.412
 21
-107.312
  0
LINE
  8
0
 10
129.412
 20
-107.312
 11
129.107
 21
-107.533
  0
LINE
  8
0
 10
129.107
 20
-107.533
 11
128.777
 21
-107.714
  0
LINE
  8
0
 10
128.777
 20
-107.714
 11
128.427
 21
-107.853
  0
LINE
  8
0
 10
128.427
 20
-107.853
 11
128.062
 21
-107.947
  0
LINE
  8
0
 10
128.062
 20
-107.947
 11
127.688
 21
-107.994
  0
LINE
  8
0
 10
127.688
 20
-107.994
 11
127.312
 21
-107.994
  0
LINE
  8
0
 10
-127.688
 20
-107.994
 11
-128.062
 21
-107.947
  0
LINE
  8
0
 10
-128.062
 20
-107.947
 11
-128.427
 21
-107.853
  0
LINE
  8
0
 10
-128.427
 20
-107.853
 11
-128.777
 21
-107.714
  0
LINE
  8
0
 10
-128.777
 20
-107.714
 11
-129.107
 21
-107.533
  0
LINE
  8
0
 10
-129.107
 20
-107.533
 11
-129.412
 21
-107.312
  0
LINE
  8
0
 10
-129.412
 20
-107.312
 11
-129.687
 21
-107.054
  0
LINE
  8
0
 10
-129.687
 20
-107.054
 11
-129.927
 21
-106.763
  0
LINE
  8
0
 10
-129.927
 20
-106.763
 11
-130.129
 21
-106.445
  0
LINE
  8
0
 10
-130.129
 20
-106.445
 11
-130.289
 21
-106.104
  0
LINE
  8
0
 10
-130.289
 20
-106.104
 11
-130.406
 21
-105.746
  0
LINE
  8
0
 10
-130.406
 20
-105.746
 11
-130.476
 21
-105.376
  0
LINE
  8
0
 10
-130.476
 20
-105.376
 11
-130.5
 21
-105
  0
LINE
  8
0
 10
-130.5
 20
-105
 11
-130.476
 21
-104.624
  0
LINE
  8
0
 10
-130.476
 20
-104.624
 11
-130.406
 21
-104.254
  0
LINE
  8
0
 10
-130.406
 20
-104.254
 11
-130.289
 21
-103.896
  0
LINE
  8
0
 10
-130.289
 20
-103.896
 11
-130.129
 21
-103.555
  0
LINE
  8
0
 10
-130.129
 20
-103.555
 11
-129.927
 21
-103.237
  0
LINE
  8
0
 10
-129.927
 20
-103.237
 11
-129.687
 21
-102.946
  0
LINE
  8
0
 10
-129.687
 20
-102.946
 11
-129.412
 21
-102.688
  0
LINE
  8
0
 10
-129.412
 20
-102.688
 11
-129.107
 21
-102.467
  0
LINE
  8
0
 10
-129.107
 20
-102.467
 11
-128.777
 21
-102.286
  0
LINE
  8
0
 10
-128.777
 20
-102.286
 11
-128.427
 21
-102.147
  0
LINE
  8
0
 10
-128.427
 20
-102.147
 11
-128.062
 21
-102.053
  0
LINE
  8
0
 10
-128.062
 20
-102.053
 11
-127.688
 21
-102.006
  0
LINE
  8
0
 10
-127.688
 20
-102.006
 11
-127.312
 21
-102.006
  0
LINE
  8
0
 10
-127.312
 20
-102.006
 11
-126.938
 21
-102.053
  0
LINE
  8
0
 10
-126.938
 20
-102.053
 11
-126.573
 21
-102.147
  0
LINE
  8
0
 10
-126.573
 20
-102.147
 11
-126.223
 21
-102.286
  0
LINE
  8
0
 10
-126.223
 20
-102.286
 11
-125.893
 21
-102.467
  0
LINE
  8
0
 10
-125.893
 20
-102.467
 11
-125.588
 21
-102.688
  0
LINE
  8
0
 10
-125.588
 20
-102.688
 11
-125.313
 21
-102.946
  0
LINE
  8
0
 10
-125.313
 20
-102.946
 11
-125.073
 21
-103.237
  0
LINE
  8
0
 10
-125.073
 20
-103.237
 11
-124.871
 21
-103.555
  0
LINE
  8
0
 10
-124.871
 20
-103.555
 11
-124.711
 21
-103.896
  0
LINE
  8
0
 10
-124.711
 20
-103.896
 11
-124.594
 21
-104.254
  0
LINE
  8
0
 10
-124.594
 20
-104.254
 11
-124.524
 21
-104.624
  0
LINE
  8
0
 10
-124.524
 20
-104.624
 11
-124.5
 21
-105
  0
LINE
  8
0
 10
-124.5
 20
-105
 11
-124.524
 21
-105.376
  0
LINE
  8
0
 10
-124.524
 20
-105.376
 11
-124.594
 21
-105.746
  0
LINE
  8
0
 10
-124.594
 20
-105.746
 11
-124.711
 21
-106.104
  0
LINE
  8
0
 10
-124.711
 20
-106.104
 11
-124.871
 21
-106.445
  0
LINE
  8
0
 10
-124.871
 20
-106.445
 11
-125.073
 21
-106.763
  0
LINE
  8
0
 10
-125.073
 20
-106.763
 11
-125.313
 21
-107.054
  0
LINE
  8
0
 10
-125.313
 20
-107.054
 11
-125.588
 21
-107.312
  0
LINE
  8
0
 10
-125.588
 20
-107.312
 11
-125.893
 21
-107.533
  0
LINE
  8
0
 10
-125.893
 20
-107.533
 11
-126.223
 21
-107.714
  0
LINE
  8
0
 10
-126.223
 20
-107.714
 11
-126.573
 21
-107.853
  0
LINE
  8
0
 10
-126.573
 20
-107.853
 11
-126.938
 21
-107.947
  0
LINE
  8
0
 10
-126.938
 20
-107.947
 11
-127.312
 21
-107.994
  0
LINE
  8
0
 10
-127.312
 20
-107.994
 11
-127.688
 21
-107.994
  0
ENDSEC
  0
SECTION
  2
OBJECTS
  0
DICTIONARY
  0
ENDSEC
  0
EOF
