  0
SECTION
  2
BLOCKS
  0
ENDSEC
  0
SECTION
  2
ENTITIES
  0
LINE
  8
0
 10
100.437
 20
-21.9114
 11
101.045
 21
-21.7553
  0
LINE
  8
0
 10
101.045
 20
-21.7553
 11
101.629
 21
-21.5241
  0
LINE
  8
0
 10
101.629
 20
-21.5241
 11
102.179
 21
-21.2216
  0
LINE
  8
0
 10
102.179
 20
-21.2216
 11
102.687
 21
-20.8526
  0
LINE
  8
0
 10
102.687
 20
-20.8526
 11
103.145
 21
-20.4227
  0
LINE
  8
0
 10
103.145
 20
-20.4227
 11
103.545
 21
-19.9389
  0
LINE
  8
0
 10
103.545
 20
-19.9389
 11
103.882
 21
-19.4088
  0
LINE
  8
0
 10
103.882
 20
-19.4088
 11
104.149
 21
-18.8406
  0
LINE
  8
0
 10
104.149
 20
-18.8406
 11
104.343
 21
-18.2434
  0
LINE
  8
0
 10
104.343
 20
-18.2434
 11
104.461
 21
-17.6267
  0
LINE
  8
0
 10
104.461
 20
-17.6267
 11
104.5
 21
-17
  0
LINE
  8
0
 10
104.5
 20
-17
 11
104.5
 21
17
  0
LINE
  8
0
 10
104.5
 20
17
 11
104.461
 21
17.6267
  0
LINE
  8
0
 10
104.461
 20
17.6267
 11
104.343
 21
18.2434
  0
LINE
  8
0
 10
104.343
 20
18.2434
 11
104.149
 21
18.8406
  0
LINE
  8
0
 10
104.149
 20
18.8406
 11
103.882
 21
19.4088
  0
LINE
  8
0
 10
103.882
 20
19.4088
 11
103.545
 21
19.9389
  0
LINE
  8
0
 10
103.545
 20
19.9389
 11
103.145
 21
20.4227
  0
LINE
  8
0
 10
103.145
 20
20.4227
 11
102.687
 21
20.8526
  0
LINE
  8
0
 10
102.687
 20
20.8526
 11
102.179
 21
21.2216
  0
LINE
  8
0
 10
102.179
 20
21.2216
 11
101.629
 21
21.5241
  0
LINE
  8
0
 10
101.629
 20
21.5241
 11
101.045
 21
21.7553
  0
LINE
  8
0
 10
101.045
 20
21.7553
 11
100.437
 21
21.9114
  0
LINE
  8
0
 10
100.437
 20
21.9114
 11
99.8139
 21
21.9901
  0
LINE
  8
0
 10
99.8139
 20
21.9901
 11
-99.8139
 21
21.9901
  0
LINE
  8
0
 10
-99.8139
 20
21.9901
 11
-100.437
 21
21.9114
  0
LINE
  8
0
 10
-100.437
 20
21.9114
 11
-101.045
 21
21.7553
  0
LINE
  8
0
 10
-101.045
 20
21.7553
 11
-101.629
 21
21.5241
  0
LINE
  8
0
 10
-101.629
 20
21.5241
 11
-102.179
 21
21.2216
  0
LINE
  8
0
 10
-102.179
 20
21.2216
 11
-102.687
 21
20.8526
  0
LINE
  8
0
 10
-102.687
 20
20.8526
 11
-103.145
 21
20.4227
  0
LINE
  8
0
 10
-103.145
 20
20.4227
 11
-103.545
 21
19.9389
  0
LINE
  8
0
 10
-103.545
 20
19.9389
 11
-103.882
 21
19.4088
  0
LINE
  8
0
 10
-103.882
 20
19.4088
 11
-104.149
 21
18.8406
  0
LINE
  8
0
 10
-104.149
 20
18.8406
 11
-104.343
 21
18.2434
  0
LINE
  8
0
 10
-104.343
 20
18.2434
 11
-104.461
 21
17.6267
  0
LINE
  8
0
 10
-104.461
 20
17.6267
 11
-104.5
 21
17
  0
LINE
  8
0
 10
-104.5
 20
17
 11
-104.5
 21
-17
  0
LINE
  8
0
 10
-104.5
 20
-17
 11
-104.461
 21
-17.6267
  0
LINE
  8
0
 10
-104.461
 20
-17.6267
 11
-104.343
 21
-18.2434
  0
LINE
  8
0
 10
-104.343
 20
-18.2434
 11
-104.149
 21
-18.8406
  0
LINE
  8
0
 10
-104.149
 20
-18.8406
 11
-103.882
 21
-19.4088
  0
LINE
  8
0
 10
-103.882
 20
-19.4088
 11
-103.545
 21
-19.9389
  0
LINE
  8
0
 10
-103.545
 20
-19.9389
 11
-103.145
 21
-20.4227
  0
LINE
  8
0
 10
-103.145
 20
-20.4227
 11
-102.687
 21
-20.8526
  0
LINE
  8
0
 10
-102.687
 20
-20.8526
 11
-102.179
 21
-21.2216
  0
LINE
  8
0
 10
-102.179
 20
-21.2216
 11
-101.629
 21
-21.5241
  0
LINE
  8
0
 10
-101.629
 20
-21.5241
 11
-101.045
 21
-21.7553
  0
LINE
  8
0
 10
-101.045
 20
-21.7553
 11
-100.437
 21
-21.9114
  0
LINE
  8
0
 10
-100.437
 20
-21.9114
 11
-99.8139
 21
-21.9901
  0
LINE
  8
0
 10
-99.8139
 20
-21.9901
 11
99.8139
 21
-21.9901
  0
LINE
  8
0
 10
99.8139
 20
-21.9901
 11
100.437
 21
-21.9114
  0
LINE
  8
0
 10
94.5237
 20
15.376
 11
94.5943
 21
15.7461
  0
LINE
  8
0
 10
94.5943
 20
15.7461
 11
94.7107
 21
16.1044
  0
LINE
  8
0
 10
94.7107
 20
16.1044
 11
94.8711
 21
16.4453
  0
LINE
  8
0
 10
94.8711
 20
16.4453
 11
95.073
 21
16.7634
  0
LINE
  8
0
 10
95.073
 20
16.7634
 11
95.3131
 21
17.0536
  0
LINE
  8
0
 10
95.3131
 20
17.0536
 11
95.5877
 21
17.3115
  0
LINE
  8
0
 10
95.5877
 20
17.3115
 11
95.8925
 21
17.533
  0
LINE
  8
0
 10
95.8925
 20
17.533
 11
96.2227
 21
17.7145
  0
LINE
  8
0
 10
96.2227
 20
17.7145
 11
96.573
 21
17.8532
  0
LINE
  8
0
 10
96.573
 20
17.8532
 11
96.9379
 21
17.9469
  0
LINE
  8
0
 10
96.9379
 20
17.9469
 11
97.3116
 21
17.9941
  0
LINE
  8
0
 10
97.3116
 20
17.9941
 11
97.6884
 21
17.9941
  0
LINE
  8
0
 10
97.6884
 20
17.9941
 11
98.0621
 21
17.9469
  0
LINE
  8
0
 10
98.0621
 20
17.9469
 11
98.427
 21
17.8532
  0
LINE
  8
0
 10
98.427
 20
17.8532
 11
98.7773
 21
17.7145
  0
LINE
  8
0
 10
98.7773
 20
17.7145
 11
99.1075
 21
17.533
  0
LINE
  8
0
 10
99.1075
 20
17.533
 11
99.4123
 21
17.3115
  0
LINE
  8
0
 10
99.4123
 20
17.3115
 11
99.6869
 21
17.0536
  0
LINE
  8
0
 10
99.6869
 20
17.0536
 11
99.927
 21
16.7634
  0
LINE
  8
0
 10
99.927
 20
16.7634
 11
100.129
 21
16.4453
  0
LINE
  8
0
 10
100.129
 20
16.4453
 11
100.289
 21
16.1044
  0
LINE
  8
0
 10
100.289
 20
16.1044
 11
100.406
 21
15.7461
  0
LINE
  8
0
 10
100.406
 20
15.7461
 11
100.476
 21
15.376
  0
LINE
  8
0
 10
100.476
 20
15.376
 11
100.5
 21
15
  0
LINE
  8
0
 10
100.5
 20
15
 11
100.476
 21
14.624
  0
LINE
  8
0
 10
100.476
 20
14.624
 11
100.406
 21
14.2539
  0
LINE
  8
0
 10
100.406
 20
14.2539
 11
100.289
 21
13.8956
  0
LINE
  8
0
 10
100.289
 20
13.8956
 11
100.129
 21
13.5547
  0
LINE
  8
0
 10
100.129
 20
13.5547
 11
99.927
 21
13.2366
  0
LINE
  8
0
 10
99.927
 20
13.2366
 11
99.6869
 21
12.9464
  0
LINE
  8
0
 10
99.6869
 20
12.9464
 11
99.4123
 21
12.6884
  0
LINE
  8
0
 10
99.4123
 20
12.6884
 11
99.1075
 21
12.467
  0
LINE
  8
0
 10
99.1075
 20
12.467
 11
98.7773
 21
12.2855
  0
LINE
  8
0
 10
98.7773
 20
12.2855
 11
98.427
 21
12.1468
  0
LINE
  8
0
 10
98.427
 20
12.1468
 11
98.0621
 21
12.0531
  0
LINE
  8
0
 10
98.0621
 20
12.0531
 11
97.6884
 21
12.0059
  0
LINE
  8
0
 10
97.6884
 20
12.0059
 11
97.3116
 21
12.0059
  0
LINE
  8
0
 10
97.3116
 20
12.0059
 11
96.9379
 21
12.0531
  0
LINE
  8
0
 10
96.9379
 20
12.0531
 11
96.573
 21
12.1468
  0
LINE
  8
0
 10
96.573
 20
12.1468
 11
96.2227
 21
12.2855
  0
LINE
  8
0
 10
96.2227
 20
12.2855
 11
95.8925
 21
12.467
  0
LINE
  8
0
 10
95.8925
 20
12.467
 11
95.5877
 21
12.6884
  0
LINE
  8
0
 10
95.5877
 20
12.6884
 11
95.3131
 21
12.9464
  0
LINE
  8
0
 10
95.3131
 20
12.9464
 11
95.073
 21
13.2366
  0
LINE
  8
0
 10
95.073
 20
13.2366
 11
94.8711
 21
13.5547
  0
LINE
  8
0
 10
94.8711
 20
13.5547
 11
94.7107
 21
13.8956
  0
LINE
  8
0
 10
94.7107
 20
13.8956
 11
94.5943
 21
14.2539
  0
LINE
  8
0
 10
94.5943
 20
14.2539
 11
94.5237
 21
14.624
  0
LINE
  8
0
 10
94.5237
 20
14.624
 11
94.5
 21
15
  0
LINE
  8
0
 10
94.5
 20
15
 11
94.5237
 21
15.376
  0
LINE
  8
0
 10
-97.6884
 20
-17.9941
 11
-98.0621
 21
-17.9469
  0
LINE
  8
0
 10
-98.0621
 20
-17.9469
 11
-98.427
 21
-17.8532
  0
LINE
  8
0
 10
-98.427
 20
-17.8532
 11
-98.7773
 21
-17.7145
  0
LINE
  8
0
 10
-98.7773
 20
-17.7145
 11
-99.1075
 21
-17.533
  0
LINE
  8
0
 10
-99.1075
 20
-17.533
 11
-99.4123
 21
-17.3115
  0
LINE
  8
0
 10
-99.4123
 20
-17.3115
 11
-99.6869
 21
-17.0536
  0
LINE
  8
0
 10
-99.6869
 20
-17.0536
 11
-99.927
 21
-16.7634
  0
LINE
  8
0
 10
-99.927
 20
-16.7634
 11
-100.129
 21
-16.4453
  0
LINE
  8
0
 10
-100.129
 20
-16.4453
 11
-100.289
 21
-16.1044
  0
LINE
  8
0
 10
-100.289
 20
-16.1044
 11
-100.406
 21
-15.7461
  0
LINE
  8
0
 10
-100.406
 20
-15.7461
 11
-100.476
 21
-15.376
  0
LINE
  8
0
 10
-100.476
 20
-15.376
 11
-100.5
 21
-15
  0
LINE
  8
0
 10
-100.5
 20
-15
 11
-100.476
 21
-14.624
  0
LINE
  8
0
 10
-100.476
 20
-14.624
 11
-100.406
 21
-14.2539
  0
LINE
  8
0
 10
-100.406
 20
-14.2539
 11
-100.289
 21
-13.8956
  0
LINE
  8
0
 10
-100.289
 20
-13.8956
 11
-100.129
 21
-13.5547
  0
LINE
  8
0
 10
-100.129
 20
-13.5547
 11
-99.927
 21
-13.2366
  0
LINE
  8
0
 10
-99.927
 20
-13.2366
 11
-99.6869
 21
-12.9464
  0
LINE
  8
0
 10
-99.6869
 20
-12.9464
 11
-99.4123
 21
-12.6884
  0
LINE
  8
0
 10
-99.4123
 20
-12.6884
 11
-99.1075
 21
-12.467
  0
LINE
  8
0
 10
-99.1075
 20
-12.467
 11
-98.7773
 21
-12.2855
  0
LINE
  8
0
 10
-98.7773
 20
-12.2855
 11
-98.427
 21
-12.1468
  0
LINE
  8
0
 10
-98.427
 20
-12.1468
 11
-98.0621
 21
-12.0531
  0
LINE
  8
0
 10
-98.0621
 20
-12.0531
 11
-97.6884
 21
-12.0059
  0
LINE
  8
0
 10
-97.6884
 20
-12.0059
 11
-97.3116
 21
-12.0059
  0
LINE
  8
0
 10
-97.3116
 20
-12.0059
 11
-96.9379
 21
-12.0531
  0
LINE
  8
0
 10
-96.9379
 20
-12.0531
 11
-96.573
 21
-12.1468
  0
LINE
  8
0
 10
-96.573
 20
-12.1468
 11
-96.2227
 21
-12.2855
  0
LINE
  8
0
 10
-96.2227
 20
-12.2855
 11
-95.8925
 21
-12.467
  0
LINE
  8
0
 10
-95.8925
 20
-12.467
 11
-95.5877
 21
-12.6884
  0
LINE
  8
0
 10
-95.5877
 20
-12.6884
 11
-95.3131
 21
-12.9464
  0
LINE
  8
0
 10
-95.3131
 20
-12.9464
 11
-95.073
 21
-13.2366
  0
LINE
  8
0
 10
-95.073
 20
-13.2366
 11
-94.8711
 21
-13.5547
  0
LINE
  8
0
 10
-94.8711
 20
-13.5547
 11
-94.7107
 21
-13.8956
  0
LINE
  8
0
 10
-94.7107
 20
-13.8956
 11
-94.5943
 21
-14.2539
  0
LINE
  8
0
 10
-94.5943
 20
-14.2539
 11
-94.5237
 21
-14.624
  0
LINE
  8
0
 10
-94.5237
 20
-14.624
 11
-94.5
 21
-15
  0
LINE
  8
0
 10
-94.5
 20
-15
 11
-94.5237
 21
-15.376
  0
LINE
  8
0
 10
-94.5237
 20
-15.376
 11
-94.5943
 21
-15.7461
  0
LINE
  8
0
 10
-94.5943
 20
-15.7461
 11
-94.7107
 21
-16.1044
  0
LINE
  8
0
 10
-94.7107
 20
-16.1044
 11
-94.8711
 21
-16.4453
  0
LINE
  8
0
 10
-94.8711
 20
-16.4453
 11
-95.073
 21
-16.7634
  0
LINE
  8
0
 10
-95.073
 20
-16.7634
 11
-95.3131
 21
-17.0536
  0
LINE
  8
0
 10
-95.3131
 20
-17.0536
 11
-95.5877
 21
-17.3115
  0
LINE
  8
0
 10
-95.5877
 20
-17.3115
 11
-95.8925
 21
-17.533
  0
LINE
  8
0
 10
-95.8925
 20
-17.533
 11
-96.2227
 21
-17.7145
  0
LINE
  8
0
 10
-96.2227
 20
-17.7145
 11
-96.573
 21
-17.8532
  0
LINE
  8
0
 10
-96.573
 20
-17.8532
 11
-96.9379
 21
-17.9469
  0
LINE
  8
0
 10
-96.9379
 20
-17.9469
 11
-97.3116
 21
-17.9941
  0
LINE
  8
0
 10
-97.3116
 20
-17.9941
 11
-97.6884
 21
-17.9941
  0
LINE
  8
0
 10
97.3116
 20
-17.9941
 11
96.9379
 21
-17.9469
  0
LINE
  8
0
 10
96.9379
 20
-17.9469
 11
96.573
 21
-17.8532
  0
LINE
  8
0
 10
96.573
 20
-17.8532
 11
96.2227
 21
-17.7145
  0
LINE
  8
0
 10
96.2227
 20
-17.7145
 11
95.8925
 21
-17.533
  0
LINE
  8
0
 10
95.8925
 20
-17.533
 11
95.5877
 21
-17.3115
  0
LINE
  8
0
 10
95.5877
 20
-17.3115
 11
95.3131
 21
-17.0536
  0
LINE
  8
0
 10
95.3131
 20
-17.0536
 11
95.073
 21
-16.7634
  0
LINE
  8
0
 10
95.073
 20
-16.7634
 11
94.8711
 21
-16.4453
  0
LINE
  8
0
 10
94.8711
 20
-16.4453
 11
94.7107
 21
-16.1044
  0
LINE
  8
0
 10
94.7107
 20
-16.1044
 11
94.5943
 21
-15.7461
  0
LINE
  8
0
 10
94.5943
 20
-15.7461
 11
94.5237
 21
-15.376
  0
LINE
  8
0
 10
94.5237
 20
-15.376
 11
94.5
 21
-15
  0
LINE
  8
0
 10
94.5
 20
-15
 11
94.5237
 21
-14.624
  0
LINE
  8
0
 10
94.5237
 20
-14.624
 11
94.5943
 21
-14.2539
  0
LINE
  8
0
 10
94.5943
 20
-14.2539
 11
94.7107
 21
-13.8956
  0
LINE
  8
0
 10
94.7107
 20
-13.8956
 11
94.8711
 21
-13.5547
  0
LINE
  8
0
 10
94.8711
 20
-13.5547
 11
95.073
 21
-13.2366
  0
LINE
  8
0
 10
95.073
 20
-13.2366
 11
95.3131
 21
-12.9464
  0
LINE
  8
0
 10
95.3131
 20
-12.9464
 11
95.5877
 21
-12.6884
  0
LINE
  8
0
 10
95.5877
 20
-12.6884
 11
95.8925
 21
-12.467
  0
LINE
  8
0
 10
95.8925
 20
-12.467
 11
96.2227
 21
-12.2855
  0
LINE
  8
0
 10
96.2227
 20
-12.2855
 11
96.573
 21
-12.1468
  0
LINE
  8
0
 10
96.573
 20
-12.1468
 11
96.9379
 21
-12.0531
  0
LINE
  8
0
 10
96.9379
 20
-12.0531
 11
97.3116
 21
-12.0059
  0
LINE
  8
0
 10
97.3116
 20
-12.0059
 11
97.6884
 21
-12.0059
  0
LINE
  8
0
 10
97.6884
 20
-12.0059
 11
98.0621
 21
-12.0531
  0
LINE
  8
0
 10
98.0621
 20
-12.0531
 11
98.427
 21
-12.1468
  0
LINE
  8
0
 10
98.427
 20
-12.1468
 11
98.7773
 21
-12.2855
  0
LINE
  8
0
 10
98.7773
 20
-12.2855
 11
99.1075
 21
-12.467
  0
LINE
  8
0
 10
99.1075
 20
-12.467
 11
99.4123
 21
-12.6884
  0
LINE
  8
0
 10
99.4123
 20
-12.6884
 11
99.6869
 21
-12.9464
  0
LINE
  8
0
 10
99.6869
 20
-12.9464
 11
99.927
 21
-13.2366
  0
LINE
  8
0
 10
99.927
 20
-13.2366
 11
100.129
 21
-13.5547
  0
LINE
  8
0
 10
100.129
 20
-13.5547
 11
100.289
 21
-13.8956
  0
LINE
  8
0
 10
100.289
 20
-13.8956
 11
100.406
 21
-14.2539
  0
LINE
  8
0
 10
100.406
 20
-14.2539
 11
100.476
 21
-14.624
  0
LINE
  8
0
 10
100.476
 20
-14.624
 11
100.5
 21
-15
  0
LINE
  8
0
 10
100.5
 20
-15
 11
100.476
 21
-15.376
  0
LINE
  8
0
 10
100.476
 20
-15.376
 11
100.406
 21
-15.7461
  0
LINE
  8
0
 10
100.406
 20
-15.7461
 11
100.289
 21
-16.1044
  0
LINE
  8
0
 10
100.289
 20
-16.1044
 11
100.129
 21
-16.4453
  0
LINE
  8
0
 10
100.129
 20
-16.4453
 11
99.927
 21
-16.7634
  0
LINE
  8
0
 10
99.927
 20
-16.7634
 11
99.6869
 21
-17.0536
  0
LINE
  8
0
 10
99.6869
 20
-17.0536
 11
99.4123
 21
-17.3115
  0
LINE
  8
0
 10
99.4123
 20
-17.3115
 11
99.1075
 21
-17.533
  0
LINE
  8
0
 10
99.1075
 20
-17.533
 11
98.7773
 21
-17.7145
  0
LINE
  8
0
 10
98.7773
 20
-17.7145
 11
98.427
 21
-17.8532
  0
LINE
  8
0
 10
98.427
 20
-17.8532
 11
98.0621
 21
-17.9469
  0
LINE
  8
0
 10
98.0621
 20
-17.9469
 11
97.6884
 21
-17.9941
  0
LINE
  8
0
 10
97.6884
 20
-17.9941
 11
97.3116
 21
-17.9941
  0
LINE
  8
0
 10
-94.7107
 20
13.8956
 11
-94.8711
 21
13.5547
  0
LINE
  8
0
 10
-94.8711
 20
13.5547
 11
-95.073
 21
13.2366
  0
LINE
  8
0
 10
-95.073
 20
13.2366
 11
-95.3131
 21
12.9464
  0
LINE
  8
0
 10
-95.3131
 20
12.9464
 11
-95.5877
 21
12.6884
  0
LINE
  8
0
 10
-95.5877
 20
12.6884
 11
-95.8925
 21
12.467
  0
LINE
  8
0
 10
-95.8925
 20
12.467
 11
-96.2227
 21
12.2855
  0
LINE
  8
0
 10
-96.2227
 20
12.2855
 11
-96.573
 21
12.1468
  0
LINE
  8
0
 10
-96.573
 20
12.1468
 11
-96.9379
 21
12.0531
  0
LINE
  8
0
 10
-96.9379
 20
12.0531
 11
-97.3116
 21
12.0059
  0
LINE
  8
0
 10
-97.3116
 20
12.0059
 11
-97.6884
 21
12.0059
  0
LINE
  8
0
 10
-97.6884
 20
12.0059
 11
-98.0621
 21
12.0531
  0
LINE
  8
0
 10
-98.0621
 20
12.0531
 11
-98.427
 21
12.1468
  0
LINE
  8
0
 10
-98.427
 20
12.1468
 11
-98.7773
 21
12.2855
  0
LINE
  8
0
 10
-98.7773
 20
12.2855
 11
-99.1075
 21
12.467
  0
LINE
  8
0
 10
-99.1075
 20
12.467
 11
-99.4123
 21
12.6884
  0
LINE
  8
0
 10
-99.4123
 20
12.6884
 11
-99.6869
 21
12.9464
  0
LINE
  8
0
 10
-99.6869
 20
12.9464
 11
-99.927
 21
13.2366
  0
LINE
  8
0
 10
-99.927
 20
13.2366
 11
-100.129
 21
13.5547
  0
LINE
  8
0
 10
-100.129
 20
13.5547
 11
-100.289
 21
13.8956
  0
LINE
  8
0
 10
-100.289
 20
13.8956
 11
-100.406
 21
14.2539
  0
LINE
  8
0
 10
-100.406
 20
14.2539
 11
-100.476
 21
14.624
  0
LINE
  8
0
 10
-100.476
 20
14.624
 11
-100.5
 21
15
  0
LINE
  8
0
 10
-100.5
 20
15
 11
-100.476
 21
15.376
  0
LINE
  8
0
 10
-100.476
 20
15.376
 11
-100.406
 21
15.7461
  0
LINE
  8
0
 10
-100.406
 20
15.7461
 11
-100.289
 21
16.1044
  0
LINE
  8
0
 10
-100.289
 20
16.1044
 11
-100.129
 21
16.4453
  0
LINE
  8
0
 10
-100.129
 20
16.4453
 11
-99.927
 21
16.7634
  0
LINE
  8
0
 10
-99.927
 20
16.7634
 11
-99.6869
 21
17.0536
  0
LINE
  8
0
 10
-99.6869
 20
17.0536
 11
-99.4123
 21
17.3115
  0
LINE
  8
0
 10
-99.4123
 20
17.3115
 11
-99.1075
 21
17.533
  0
LINE
  8
0
 10
-99.1075
 20
17.533
 11
-98.7773
 21
17.7145
  0
LINE
  8
0
 10
-98.7773
 20
17.7145
 11
-98.427
 21
17.8532
  0
LINE
  8
0
 10
-98.427
 20
17.8532
 11
-98.0621
 21
17.9469
  0
LINE
  8
0
 10
-98.0621
 20
17.9469
 11
-97.6884
 21
17.9941
  0
LINE
  8
0
 10
-97.6884
 20
17.9941
 11
-97.3116
 21
17.9941
  0
LINE
  8
0
 10
-97.3116
 20
17.9941
 11
-96.9379
 21
17.9469
  0
LINE
  8
0
 10
-96.9379
 20
17.9469
 11
-96.573
 21
17.8532
  0
LINE
  8
0
 10
-96.573
 20
17.8532
 11
-96.2227
 21
17.7145
  0
LINE
  8
0
 10
-96.2227
 20
17.7145
 11
-95.8925
 21
17.533
  0
LINE
  8
0
 10
-95.8925
 20
17.533
 11
-95.5877
 21
17.3115
  0
LINE
  8
0
 10
-95.5877
 20
17.3115
 11
-95.3131
 21
17.0536
  0
LINE
  8
0
 10
-95.3131
 20
17.0536
 11
-95.073
 21
16.7634
  0
LINE
  8
0
 10
-95.073
 20
16.7634
 11
-94.8711
 21
16.4453
  0
LINE
  8
0
 10
-94.8711
 20
16.4453
 11
-94.7107
 21
16.1044
  0
LINE
  8
0
 10
-94.7107
 20
16.1044
 11
-94.5943
 21
15.7461
  0
LINE
  8
0
 10
-94.5943
 20
15.7461
 11
-94.5237
 21
15.376
  0
LINE
  8
0
 10
-94.5237
 20
15.376
 11
-94.5
 21
15
  0
LINE
  8
0
 10
-94.5
 20
15
 11
-94.5237
 21
14.624
  0
LINE
  8
0
 10
-94.5237
 20
14.624
 11
-94.5943
 21
14.2539
  0
LINE
  8
0
 10
-94.5943
 20
14.2539
 11
-94.7107
 21
13.8956
  0
ENDSEC
  0
SECTION
  2
OBJECTS
  0
DICTIONARY
  0
ENDSEC
  0
EOF
