  0
SECTION
  2
BLOCKS
  0
ENDSEC
  0
SECTION
  2
ENTITIES
  0
LINE
  8
0
 10
130.437
 20
404.089
 11
131.045
 21
404.245
  0
LINE
  8
0
 10
131.045
 20
404.245
 11
131.629
 21
404.476
  0
LINE
  8
0
 10
131.629
 20
404.476
 11
132.179
 21
404.778
  0
LINE
  8
0
 10
132.179
 20
404.778
 11
132.687
 21
405.147
  0
LINE
  8
0
 10
132.687
 20
405.147
 11
133.145
 21
405.577
  0
LINE
  8
0
 10
133.145
 20
405.577
 11
133.545
 21
406.061
  0
LINE
  8
0
 10
133.545
 20
406.061
 11
133.882
 21
406.591
  0
LINE
  8
0
 10
133.882
 20
406.591
 11
134.149
 21
407.159
  0
LINE
  8
0
 10
134.149
 20
407.159
 11
134.343
 21
407.757
  0
LINE
  8
0
 10
134.343
 20
407.757
 11
134.461
 21
408.373
  0
LINE
  8
0
 10
134.461
 20
408.373
 11
134.5
 21
409
  0
LINE
  8
0
 10
134.5
 20
409
 11
134.5
 21
503
  0
LINE
  8
0
 10
134.5
 20
503
 11
134.461
 21
503.627
  0
LINE
  8
0
 10
134.461
 20
503.627
 11
134.343
 21
504.243
  0
LINE
  8
0
 10
134.343
 20
504.243
 11
134.149
 21
504.841
  0
LINE
  8
0
 10
134.149
 20
504.841
 11
133.882
 21
505.409
  0
LINE
  8
0
 10
133.882
 20
505.409
 11
133.545
 21
505.939
  0
LINE
  8
0
 10
133.545
 20
505.939
 11
133.145
 21
506.423
  0
LINE
  8
0
 10
133.145
 20
506.423
 11
132.687
 21
506.853
  0
LINE
  8
0
 10
132.687
 20
506.853
 11
132.179
 21
507.222
  0
LINE
  8
0
 10
132.179
 20
507.222
 11
131.629
 21
507.524
  0
LINE
  8
0
 10
131.629
 20
507.524
 11
131.045
 21
507.755
  0
LINE
  8
0
 10
131.045
 20
507.755
 11
130.437
 21
507.911
  0
LINE
  8
0
 10
130.437
 20
507.911
 11
129.814
 21
507.99
  0
LINE
  8
0
 10
129.814
 20
507.99
 11
-129.814
 21
507.99
  0
LINE
  8
0
 10
-129.814
 20
507.99
 11
-130.437
 21
507.911
  0
LINE
  8
0
 10
-130.437
 20
507.911
 11
-131.045
 21
507.755
  0
LINE
  8
0
 10
-131.045
 20
507.755
 11
-131.629
 21
507.524
  0
LINE
  8
0
 10
-131.629
 20
507.524
 11
-132.179
 21
507.222
  0
LINE
  8
0
 10
-132.179
 20
507.222
 11
-132.687
 21
506.853
  0
LINE
  8
0
 10
-132.687
 20
506.853
 11
-133.145
 21
506.423
  0
LINE
  8
0
 10
-133.145
 20
506.423
 11
-133.545
 21
505.939
  0
LINE
  8
0
 10
-133.545
 20
505.939
 11
-133.882
 21
505.409
  0
LINE
  8
0
 10
-133.882
 20
505.409
 11
-134.149
 21
504.841
  0
LINE
  8
0
 10
-134.149
 20
504.841
 11
-134.343
 21
504.243
  0
LINE
  8
0
 10
-134.343
 20
504.243
 11
-134.461
 21
503.627
  0
LINE
  8
0
 10
-134.461
 20
503.627
 11
-134.5
 21
503
  0
LINE
  8
0
 10
-134.5
 20
503
 11
-134.5
 21
409
  0
LINE
  8
0
 10
-134.5
 20
409
 11
-134.461
 21
408.373
  0
LINE
  8
0
 10
-134.461
 20
408.373
 11
-134.343
 21
407.757
  0
LINE
  8
0
 10
-134.343
 20
407.757
 11
-134.149
 21
407.159
  0
LINE
  8
0
 10
-134.149
 20
407.159
 11
-133.882
 21
406.591
  0
LINE
  8
0
 10
-133.882
 20
406.591
 11
-133.545
 21
406.061
  0
LINE
  8
0
 10
-133.545
 20
406.061
 11
-133.145
 21
405.577
  0
LINE
  8
0
 10
-133.145
 20
405.577
 11
-132.687
 21
405.147
  0
LINE
  8
0
 10
-132.687
 20
405.147
 11
-132.179
 21
404.778
  0
LINE
  8
0
 10
-132.179
 20
404.778
 11
-131.629
 21
404.476
  0
LINE
  8
0
 10
-131.629
 20
404.476
 11
-131.045
 21
404.245
  0
LINE
  8
0
 10
-131.045
 20
404.245
 11
-130.437
 21
404.089
  0
LINE
  8
0
 10
-130.437
 20
404.089
 11
-129.814
 21
404.01
  0
LINE
  8
0
 10
-129.814
 20
404.01
 11
129.814
 21
404.01
  0
LINE
  8
0
 10
129.814
 20
404.01
 11
130.437
 21
404.089
  0
LINE
  8
0
 10
-127.688
 20
498.006
 11
-128.062
 21
498.053
  0
LINE
  8
0
 10
-128.062
 20
498.053
 11
-128.427
 21
498.147
  0
LINE
  8
0
 10
-128.427
 20
498.147
 11
-128.777
 21
498.286
  0
LINE
  8
0
 10
-128.777
 20
498.286
 11
-129.107
 21
498.467
  0
LINE
  8
0
 10
-129.107
 20
498.467
 11
-129.412
 21
498.688
  0
LINE
  8
0
 10
-129.412
 20
498.688
 11
-129.687
 21
498.946
  0
LINE
  8
0
 10
-129.687
 20
498.946
 11
-129.927
 21
499.237
  0
LINE
  8
0
 10
-129.927
 20
499.237
 11
-130.129
 21
499.555
  0
LINE
  8
0
 10
-130.129
 20
499.555
 11
-130.289
 21
499.896
  0
LINE
  8
0
 10
-130.289
 20
499.896
 11
-130.406
 21
500.254
  0
LINE
  8
0
 10
-130.406
 20
500.254
 11
-130.476
 21
500.624
  0
LINE
  8
0
 10
-130.476
 20
500.624
 11
-130.5
 21
501
  0
LINE
  8
0
 10
-130.5
 20
501
 11
-130.476
 21
501.376
  0
LINE
  8
0
 10
-130.476
 20
501.376
 11
-130.406
 21
501.746
  0
LINE
  8
0
 10
-130.406
 20
501.746
 11
-130.289
 21
502.104
  0
LINE
  8
0
 10
-130.289
 20
502.104
 11
-130.129
 21
502.445
  0
LINE
  8
0
 10
-130.129
 20
502.445
 11
-129.927
 21
502.763
  0
LINE
  8
0
 10
-129.927
 20
502.763
 11
-129.687
 21
503.054
  0
LINE
  8
0
 10
-129.687
 20
503.054
 11
-129.412
 21
503.312
  0
LINE
  8
0
 10
-129.412
 20
503.312
 11
-129.107
 21
503.533
  0
LINE
  8
0
 10
-129.107
 20
503.533
 11
-128.777
 21
503.714
  0
LINE
  8
0
 10
-128.777
 20
503.714
 11
-128.427
 21
503.853
  0
LINE
  8
0
 10
-128.427
 20
503.853
 11
-128.062
 21
503.947
  0
LINE
  8
0
 10
-128.062
 20
503.947
 11
-127.688
 21
503.994
  0
LINE
  8
0
 10
-127.688
 20
503.994
 11
-127.312
 21
503.994
  0
LINE
  8
0
 10
-127.312
 20
503.994
 11
-126.938
 21
503.947
  0
LINE
  8
0
 10
-126.938
 20
503.947
 11
-126.573
 21
503.853
  0
LINE
  8
0
 10
-126.573
 20
503.853
 11
-126.223
 21
503.714
  0
LINE
  8
0
 10
-126.223
 20
503.714
 11
-125.893
 21
503.533
  0
LINE
  8
0
 10
-125.893
 20
503.533
 11
-125.588
 21
503.312
  0
LINE
  8
0
 10
-125.588
 20
503.312
 11
-125.313
 21
503.054
  0
LINE
  8
0
 10
-125.313
 20
503.054
 11
-125.073
 21
502.763
  0
LINE
  8
0
 10
-125.073
 20
502.763
 11
-124.871
 21
502.445
  0
LINE
  8
0
 10
-124.871
 20
502.445
 11
-124.711
 21
502.104
  0
LINE
  8
0
 10
-124.711
 20
502.104
 11
-124.594
 21
501.746
  0
LINE
  8
0
 10
-124.594
 20
501.746
 11
-124.524
 21
501.376
  0
LINE
  8
0
 10
-124.524
 20
501.376
 11
-124.5
 21
501
  0
LINE
  8
0
 10
-124.5
 20
501
 11
-124.524
 21
500.624
  0
LINE
  8
0
 10
-124.524
 20
500.624
 11
-124.594
 21
500.254
  0
LINE
  8
0
 10
-124.594
 20
500.254
 11
-124.711
 21
499.896
  0
LINE
  8
0
 10
-124.711
 20
499.896
 11
-124.871
 21
499.555
  0
LINE
  8
0
 10
-124.871
 20
499.555
 11
-125.073
 21
499.237
  0
LINE
  8
0
 10
-125.073
 20
499.237
 11
-125.313
 21
498.946
  0
LINE
  8
0
 10
-125.313
 20
498.946
 11
-125.588
 21
498.688
  0
LINE
  8
0
 10
-125.588
 20
498.688
 11
-125.893
 21
498.467
  0
LINE
  8
0
 10
-125.893
 20
498.467
 11
-126.223
 21
498.286
  0
LINE
  8
0
 10
-126.223
 20
498.286
 11
-126.573
 21
498.147
  0
LINE
  8
0
 10
-126.573
 20
498.147
 11
-126.938
 21
498.053
  0
LINE
  8
0
 10
-126.938
 20
498.053
 11
-127.312
 21
498.006
  0
LINE
  8
0
 10
-127.312
 20
498.006
 11
-127.688
 21
498.006
  0
LINE
  8
0
 10
127.312
 20
498.006
 11
126.938
 21
498.053
  0
LINE
  8
0
 10
126.938
 20
498.053
 11
126.573
 21
498.147
  0
LINE
  8
0
 10
126.573
 20
498.147
 11
126.223
 21
498.286
  0
LINE
  8
0
 10
126.223
 20
498.286
 11
125.893
 21
498.467
  0
LINE
  8
0
 10
125.893
 20
498.467
 11
125.588
 21
498.688
  0
LINE
  8
0
 10
125.588
 20
498.688
 11
125.313
 21
498.946
  0
LINE
  8
0
 10
125.313
 20
498.946
 11
125.073
 21
499.237
  0
LINE
  8
0
 10
125.073
 20
499.237
 11
124.871
 21
499.555
  0
LINE
  8
0
 10
124.871
 20
499.555
 11
124.711
 21
499.896
  0
LINE
  8
0
 10
124.711
 20
499.896
 11
124.594
 21
500.254
  0
LINE
  8
0
 10
124.594
 20
500.254
 11
124.524
 21
500.624
  0
LINE
  8
0
 10
124.524
 20
500.624
 11
124.5
 21
501
  0
LINE
  8
0
 10
124.5
 20
501
 11
124.524
 21
501.376
  0
LINE
  8
0
 10
124.524
 20
501.376
 11
124.594
 21
501.746
  0
LINE
  8
0
 10
124.594
 20
501.746
 11
124.711
 21
502.104
  0
LINE
  8
0
 10
124.711
 20
502.104
 11
124.871
 21
502.445
  0
LINE
  8
0
 10
124.871
 20
502.445
 11
125.073
 21
502.763
  0
LINE
  8
0
 10
125.073
 20
502.763
 11
125.313
 21
503.054
  0
LINE
  8
0
 10
125.313
 20
503.054
 11
125.588
 21
503.312
  0
LINE
  8
0
 10
125.588
 20
503.312
 11
125.893
 21
503.533
  0
LINE
  8
0
 10
125.893
 20
503.533
 11
126.223
 21
503.714
  0
LINE
  8
0
 10
126.223
 20
503.714
 11
126.573
 21
503.853
  0
LINE
  8
0
 10
126.573
 20
503.853
 11
126.938
 21
503.947
  0
LINE
  8
0
 10
126.938
 20
503.947
 11
127.312
 21
503.994
  0
LINE
  8
0
 10
127.312
 20
503.994
 11
127.688
 21
503.994
  0
LINE
  8
0
 10
127.688
 20
503.994
 11
128.062
 21
503.947
  0
LINE
  8
0
 10
128.062
 20
503.947
 11
128.427
 21
503.853
  0
LINE
  8
0
 10
128.427
 20
503.853
 11
128.777
 21
503.714
  0
LINE
  8
0
 10
128.777
 20
503.714
 11
129.107
 21
503.533
  0
LINE
  8
0
 10
129.107
 20
503.533
 11
129.412
 21
503.312
  0
LINE
  8
0
 10
129.412
 20
503.312
 11
129.687
 21
503.054
  0
LINE
  8
0
 10
129.687
 20
503.054
 11
129.927
 21
502.763
  0
LINE
  8
0
 10
129.927
 20
502.763
 11
130.129
 21
502.445
  0
LINE
  8
0
 10
130.129
 20
502.445
 11
130.289
 21
502.104
  0
LINE
  8
0
 10
130.289
 20
502.104
 11
130.406
 21
501.746
  0
LINE
  8
0
 10
130.406
 20
501.746
 11
130.476
 21
501.376
  0
LINE
  8
0
 10
130.476
 20
501.376
 11
130.5
 21
501
  0
LINE
  8
0
 10
130.5
 20
501
 11
130.476
 21
500.624
  0
LINE
  8
0
 10
130.476
 20
500.624
 11
130.406
 21
500.254
  0
LINE
  8
0
 10
130.406
 20
500.254
 11
130.289
 21
499.896
  0
LINE
  8
0
 10
130.289
 20
499.896
 11
130.129
 21
499.555
  0
LINE
  8
0
 10
130.129
 20
499.555
 11
129.927
 21
499.237
  0
LINE
  8
0
 10
129.927
 20
499.237
 11
129.687
 21
498.946
  0
LINE
  8
0
 10
129.687
 20
498.946
 11
129.412
 21
498.688
  0
LINE
  8
0
 10
129.412
 20
498.688
 11
129.107
 21
498.467
  0
LINE
  8
0
 10
129.107
 20
498.467
 11
128.777
 21
498.286
  0
LINE
  8
0
 10
128.777
 20
498.286
 11
128.427
 21
498.147
  0
LINE
  8
0
 10
128.427
 20
498.147
 11
128.062
 21
498.053
  0
LINE
  8
0
 10
128.062
 20
498.053
 11
127.688
 21
498.006
  0
LINE
  8
0
 10
127.688
 20
498.006
 11
127.312
 21
498.006
  0
LINE
  8
0
 10
-127.688
 20
408.006
 11
-128.062
 21
408.053
  0
LINE
  8
0
 10
-128.062
 20
408.053
 11
-128.427
 21
408.147
  0
LINE
  8
0
 10
-128.427
 20
408.147
 11
-128.777
 21
408.286
  0
LINE
  8
0
 10
-128.777
 20
408.286
 11
-129.107
 21
408.467
  0
LINE
  8
0
 10
-129.107
 20
408.467
 11
-129.412
 21
408.688
  0
LINE
  8
0
 10
-129.412
 20
408.688
 11
-129.687
 21
408.946
  0
LINE
  8
0
 10
-129.687
 20
408.946
 11
-129.927
 21
409.237
  0
LINE
  8
0
 10
-129.927
 20
409.237
 11
-130.129
 21
409.555
  0
LINE
  8
0
 10
-130.129
 20
409.555
 11
-130.289
 21
409.896
  0
LINE
  8
0
 10
-130.289
 20
409.896
 11
-130.406
 21
410.254
  0
LINE
  8
0
 10
-130.406
 20
410.254
 11
-130.476
 21
410.624
  0
LINE
  8
0
 10
-130.476
 20
410.624
 11
-130.5
 21
411
  0
LINE
  8
0
 10
-130.5
 20
411
 11
-130.476
 21
411.376
  0
LINE
  8
0
 10
-130.476
 20
411.376
 11
-130.406
 21
411.746
  0
LINE
  8
0
 10
-130.406
 20
411.746
 11
-130.289
 21
412.104
  0
LINE
  8
0
 10
-130.289
 20
412.104
 11
-130.129
 21
412.445
  0
LINE
  8
0
 10
-130.129
 20
412.445
 11
-129.927
 21
412.763
  0
LINE
  8
0
 10
-129.927
 20
412.763
 11
-129.687
 21
413.054
  0
LINE
  8
0
 10
-129.687
 20
413.054
 11
-129.412
 21
413.312
  0
LINE
  8
0
 10
-129.412
 20
413.312
 11
-129.107
 21
413.533
  0
LINE
  8
0
 10
-129.107
 20
413.533
 11
-128.777
 21
413.714
  0
LINE
  8
0
 10
-128.777
 20
413.714
 11
-128.427
 21
413.853
  0
LINE
  8
0
 10
-128.427
 20
413.853
 11
-128.062
 21
413.947
  0
LINE
  8
0
 10
-128.062
 20
413.947
 11
-127.688
 21
413.994
  0
LINE
  8
0
 10
-127.688
 20
413.994
 11
-127.312
 21
413.994
  0
LINE
  8
0
 10
-127.312
 20
413.994
 11
-126.938
 21
413.947
  0
LINE
  8
0
 10
-126.938
 20
413.947
 11
-126.573
 21
413.853
  0
LINE
  8
0
 10
-126.573
 20
413.853
 11
-126.223
 21
413.714
  0
LINE
  8
0
 10
-126.223
 20
413.714
 11
-125.893
 21
413.533
  0
LINE
  8
0
 10
-125.893
 20
413.533
 11
-125.588
 21
413.312
  0
LINE
  8
0
 10
-125.588
 20
413.312
 11
-125.313
 21
413.054
  0
LINE
  8
0
 10
-125.313
 20
413.054
 11
-125.073
 21
412.763
  0
LINE
  8
0
 10
-125.073
 20
412.763
 11
-124.871
 21
412.445
  0
LINE
  8
0
 10
-124.871
 20
412.445
 11
-124.711
 21
412.104
  0
LINE
  8
0
 10
-124.711
 20
412.104
 11
-124.594
 21
411.746
  0
LINE
  8
0
 10
-124.594
 20
411.746
 11
-124.524
 21
411.376
  0
LINE
  8
0
 10
-124.524
 20
411.376
 11
-124.5
 21
411
  0
LINE
  8
0
 10
-124.5
 20
411
 11
-124.524
 21
410.624
  0
LINE
  8
0
 10
-124.524
 20
410.624
 11
-124.594
 21
410.254
  0
LINE
  8
0
 10
-124.594
 20
410.254
 11
-124.711
 21
409.896
  0
LINE
  8
0
 10
-124.711
 20
409.896
 11
-124.871
 21
409.555
  0
LINE
  8
0
 10
-124.871
 20
409.555
 11
-125.073
 21
409.237
  0
LINE
  8
0
 10
-125.073
 20
409.237
 11
-125.313
 21
408.946
  0
LINE
  8
0
 10
-125.313
 20
408.946
 11
-125.588
 21
408.688
  0
LINE
  8
0
 10
-125.588
 20
408.688
 11
-125.893
 21
408.467
  0
LINE
  8
0
 10
-125.893
 20
408.467
 11
-126.223
 21
408.286
  0
LINE
  8
0
 10
-126.223
 20
408.286
 11
-126.573
 21
408.147
  0
LINE
  8
0
 10
-126.573
 20
408.147
 11
-126.938
 21
408.053
  0
LINE
  8
0
 10
-126.938
 20
408.053
 11
-127.312
 21
408.006
  0
LINE
  8
0
 10
-127.312
 20
408.006
 11
-127.688
 21
408.006
  0
LINE
  8
0
 10
127.312
 20
408.006
 11
126.938
 21
408.053
  0
LINE
  8
0
 10
126.938
 20
408.053
 11
126.573
 21
408.147
  0
LINE
  8
0
 10
126.573
 20
408.147
 11
126.223
 21
408.286
  0
LINE
  8
0
 10
126.223
 20
408.286
 11
125.893
 21
408.467
  0
LINE
  8
0
 10
125.893
 20
408.467
 11
125.588
 21
408.688
  0
LINE
  8
0
 10
125.588
 20
408.688
 11
125.313
 21
408.946
  0
LINE
  8
0
 10
125.313
 20
408.946
 11
125.073
 21
409.237
  0
LINE
  8
0
 10
125.073
 20
409.237
 11
124.871
 21
409.555
  0
LINE
  8
0
 10
124.871
 20
409.555
 11
124.711
 21
409.896
  0
LINE
  8
0
 10
124.711
 20
409.896
 11
124.594
 21
410.254
  0
LINE
  8
0
 10
124.594
 20
410.254
 11
124.524
 21
410.624
  0
LINE
  8
0
 10
124.524
 20
410.624
 11
124.5
 21
411
  0
LINE
  8
0
 10
124.5
 20
411
 11
124.524
 21
411.376
  0
LINE
  8
0
 10
124.524
 20
411.376
 11
124.594
 21
411.746
  0
LINE
  8
0
 10
124.594
 20
411.746
 11
124.711
 21
412.104
  0
LINE
  8
0
 10
124.711
 20
412.104
 11
124.871
 21
412.445
  0
LINE
  8
0
 10
124.871
 20
412.445
 11
125.073
 21
412.763
  0
LINE
  8
0
 10
125.073
 20
412.763
 11
125.313
 21
413.054
  0
LINE
  8
0
 10
125.313
 20
413.054
 11
125.588
 21
413.312
  0
LINE
  8
0
 10
125.588
 20
413.312
 11
125.893
 21
413.533
  0
LINE
  8
0
 10
125.893
 20
413.533
 11
126.223
 21
413.714
  0
LINE
  8
0
 10
126.223
 20
413.714
 11
126.573
 21
413.853
  0
LINE
  8
0
 10
126.573
 20
413.853
 11
126.938
 21
413.947
  0
LINE
  8
0
 10
126.938
 20
413.947
 11
127.312
 21
413.994
  0
LINE
  8
0
 10
127.312
 20
413.994
 11
127.688
 21
413.994
  0
LINE
  8
0
 10
127.688
 20
413.994
 11
128.062
 21
413.947
  0
LINE
  8
0
 10
128.062
 20
413.947
 11
128.427
 21
413.853
  0
LINE
  8
0
 10
128.427
 20
413.853
 11
128.777
 21
413.714
  0
LINE
  8
0
 10
128.777
 20
413.714
 11
129.107
 21
413.533
  0
LINE
  8
0
 10
129.107
 20
413.533
 11
129.412
 21
413.312
  0
LINE
  8
0
 10
129.412
 20
413.312
 11
129.687
 21
413.054
  0
LINE
  8
0
 10
129.687
 20
413.054
 11
129.927
 21
412.763
  0
LINE
  8
0
 10
129.927
 20
412.763
 11
130.129
 21
412.445
  0
LINE
  8
0
 10
130.129
 20
412.445
 11
130.289
 21
412.104
  0
LINE
  8
0
 10
130.289
 20
412.104
 11
130.406
 21
411.746
  0
LINE
  8
0
 10
130.406
 20
411.746
 11
130.476
 21
411.376
  0
LINE
  8
0
 10
130.476
 20
411.376
 11
130.5
 21
411
  0
LINE
  8
0
 10
130.5
 20
411
 11
130.476
 21
410.624
  0
LINE
  8
0
 10
130.476
 20
410.624
 11
130.406
 21
410.254
  0
LINE
  8
0
 10
130.406
 20
410.254
 11
130.289
 21
409.896
  0
LINE
  8
0
 10
130.289
 20
409.896
 11
130.129
 21
409.555
  0
LINE
  8
0
 10
130.129
 20
409.555
 11
129.927
 21
409.237
  0
LINE
  8
0
 10
129.927
 20
409.237
 11
129.687
 21
408.946
  0
LINE
  8
0
 10
129.687
 20
408.946
 11
129.412
 21
408.688
  0
LINE
  8
0
 10
129.412
 20
408.688
 11
129.107
 21
408.467
  0
LINE
  8
0
 10
129.107
 20
408.467
 11
128.777
 21
408.286
  0
LINE
  8
0
 10
128.777
 20
408.286
 11
128.427
 21
408.147
  0
LINE
  8
0
 10
128.427
 20
408.147
 11
128.062
 21
408.053
  0
LINE
  8
0
 10
128.062
 20
408.053
 11
127.688
 21
408.006
  0
LINE
  8
0
 10
127.688
 20
408.006
 11
127.312
 21
408.006
  0
LINE
  8
0
 10
130.437
 20
290.089
 11
131.045
 21
290.245
  0
LINE
  8
0
 10
131.045
 20
290.245
 11
131.629
 21
290.476
  0
LINE
  8
0
 10
131.629
 20
290.476
 11
132.179
 21
290.778
  0
LINE
  8
0
 10
132.179
 20
290.778
 11
132.687
 21
291.147
  0
LINE
  8
0
 10
132.687
 20
291.147
 11
133.145
 21
291.577
  0
LINE
  8
0
 10
133.145
 20
291.577
 11
133.545
 21
292.061
  0
LINE
  8
0
 10
133.545
 20
292.061
 11
133.882
 21
292.591
  0
LINE
  8
0
 10
133.882
 20
292.591
 11
134.149
 21
293.159
  0
LINE
  8
0
 10
134.149
 20
293.159
 11
134.343
 21
293.757
  0
LINE
  8
0
 10
134.343
 20
293.757
 11
134.461
 21
294.373
  0
LINE
  8
0
 10
134.461
 20
294.373
 11
134.5
 21
295
  0
LINE
  8
0
 10
134.5
 20
295
 11
134.5
 21
389
  0
LINE
  8
0
 10
134.5
 20
389
 11
134.461
 21
389.627
  0
LINE
  8
0
 10
134.461
 20
389.627
 11
134.343
 21
390.243
  0
LINE
  8
0
 10
134.343
 20
390.243
 11
134.149
 21
390.841
  0
LINE
  8
0
 10
134.149
 20
390.841
 11
133.882
 21
391.409
  0
LINE
  8
0
 10
133.882
 20
391.409
 11
133.545
 21
391.939
  0
LINE
  8
0
 10
133.545
 20
391.939
 11
133.145
 21
392.423
  0
LINE
  8
0
 10
133.145
 20
392.423
 11
132.687
 21
392.853
  0
LINE
  8
0
 10
132.687
 20
392.853
 11
132.179
 21
393.222
  0
LINE
  8
0
 10
132.179
 20
393.222
 11
131.629
 21
393.524
  0
LINE
  8
0
 10
131.629
 20
393.524
 11
131.045
 21
393.755
  0
LINE
  8
0
 10
131.045
 20
393.755
 11
130.437
 21
393.911
  0
LINE
  8
0
 10
130.437
 20
393.911
 11
129.814
 21
393.99
  0
LINE
  8
0
 10
129.814
 20
393.99
 11
-129.814
 21
393.99
  0
LINE
  8
0
 10
-129.814
 20
393.99
 11
-130.437
 21
393.911
  0
LINE
  8
0
 10
-130.437
 20
393.911
 11
-131.045
 21
393.755
  0
LINE
  8
0
 10
-131.045
 20
393.755
 11
-131.629
 21
393.524
  0
LINE
  8
0
 10
-131.629
 20
393.524
 11
-132.179
 21
393.222
  0
LINE
  8
0
 10
-132.179
 20
393.222
 11
-132.687
 21
392.853
  0
LINE
  8
0
 10
-132.687
 20
392.853
 11
-133.145
 21
392.423
  0
LINE
  8
0
 10
-133.145
 20
392.423
 11
-133.545
 21
391.939
  0
LINE
  8
0
 10
-133.545
 20
391.939
 11
-133.882
 21
391.409
  0
LINE
  8
0
 10
-133.882
 20
391.409
 11
-134.149
 21
390.841
  0
LINE
  8
0
 10
-134.149
 20
390.841
 11
-134.343
 21
390.243
  0
LINE
  8
0
 10
-134.343
 20
390.243
 11
-134.461
 21
389.627
  0
LINE
  8
0
 10
-134.461
 20
389.627
 11
-134.5
 21
389
  0
LINE
  8
0
 10
-134.5
 20
389
 11
-134.5
 21
295
  0
LINE
  8
0
 10
-134.5
 20
295
 11
-134.461
 21
294.373
  0
LINE
  8
0
 10
-134.461
 20
294.373
 11
-134.343
 21
293.757
  0
LINE
  8
0
 10
-134.343
 20
293.757
 11
-134.149
 21
293.159
  0
LINE
  8
0
 10
-134.149
 20
293.159
 11
-133.882
 21
292.591
  0
LINE
  8
0
 10
-133.882
 20
292.591
 11
-133.545
 21
292.061
  0
LINE
  8
0
 10
-133.545
 20
292.061
 11
-133.145
 21
291.577
  0
LINE
  8
0
 10
-133.145
 20
291.577
 11
-132.687
 21
291.147
  0
LINE
  8
0
 10
-132.687
 20
291.147
 11
-132.179
 21
290.778
  0
LINE
  8
0
 10
-132.179
 20
290.778
 11
-131.629
 21
290.476
  0
LINE
  8
0
 10
-131.629
 20
290.476
 11
-131.045
 21
290.245
  0
LINE
  8
0
 10
-131.045
 20
290.245
 11
-130.437
 21
290.089
  0
LINE
  8
0
 10
-130.437
 20
290.089
 11
-129.814
 21
290.01
  0
LINE
  8
0
 10
-129.814
 20
290.01
 11
129.814
 21
290.01
  0
LINE
  8
0
 10
129.814
 20
290.01
 11
130.437
 21
290.089
  0
LINE
  8
0
 10
-127.688
 20
384.006
 11
-128.062
 21
384.053
  0
LINE
  8
0
 10
-128.062
 20
384.053
 11
-128.427
 21
384.147
  0
LINE
  8
0
 10
-128.427
 20
384.147
 11
-128.777
 21
384.286
  0
LINE
  8
0
 10
-128.777
 20
384.286
 11
-129.107
 21
384.467
  0
LINE
  8
0
 10
-129.107
 20
384.467
 11
-129.412
 21
384.688
  0
LINE
  8
0
 10
-129.412
 20
384.688
 11
-129.687
 21
384.946
  0
LINE
  8
0
 10
-129.687
 20
384.946
 11
-129.927
 21
385.237
  0
LINE
  8
0
 10
-129.927
 20
385.237
 11
-130.129
 21
385.555
  0
LINE
  8
0
 10
-130.129
 20
385.555
 11
-130.289
 21
385.896
  0
LINE
  8
0
 10
-130.289
 20
385.896
 11
-130.406
 21
386.254
  0
LINE
  8
0
 10
-130.406
 20
386.254
 11
-130.476
 21
386.624
  0
LINE
  8
0
 10
-130.476
 20
386.624
 11
-130.5
 21
387
  0
LINE
  8
0
 10
-130.5
 20
387
 11
-130.476
 21
387.376
  0
LINE
  8
0
 10
-130.476
 20
387.376
 11
-130.406
 21
387.746
  0
LINE
  8
0
 10
-130.406
 20
387.746
 11
-130.289
 21
388.104
  0
LINE
  8
0
 10
-130.289
 20
388.104
 11
-130.129
 21
388.445
  0
LINE
  8
0
 10
-130.129
 20
388.445
 11
-129.927
 21
388.763
  0
LINE
  8
0
 10
-129.927
 20
388.763
 11
-129.687
 21
389.054
  0
LINE
  8
0
 10
-129.687
 20
389.054
 11
-129.412
 21
389.312
  0
LINE
  8
0
 10
-129.412
 20
389.312
 11
-129.107
 21
389.533
  0
LINE
  8
0
 10
-129.107
 20
389.533
 11
-128.777
 21
389.714
  0
LINE
  8
0
 10
-128.777
 20
389.714
 11
-128.427
 21
389.853
  0
LINE
  8
0
 10
-128.427
 20
389.853
 11
-128.062
 21
389.947
  0
LINE
  8
0
 10
-128.062
 20
389.947
 11
-127.688
 21
389.994
  0
LINE
  8
0
 10
-127.688
 20
389.994
 11
-127.312
 21
389.994
  0
LINE
  8
0
 10
-127.312
 20
389.994
 11
-126.938
 21
389.947
  0
LINE
  8
0
 10
-126.938
 20
389.947
 11
-126.573
 21
389.853
  0
LINE
  8
0
 10
-126.573
 20
389.853
 11
-126.223
 21
389.714
  0
LINE
  8
0
 10
-126.223
 20
389.714
 11
-125.893
 21
389.533
  0
LINE
  8
0
 10
-125.893
 20
389.533
 11
-125.588
 21
389.312
  0
LINE
  8
0
 10
-125.588
 20
389.312
 11
-125.313
 21
389.054
  0
LINE
  8
0
 10
-125.313
 20
389.054
 11
-125.073
 21
388.763
  0
LINE
  8
0
 10
-125.073
 20
388.763
 11
-124.871
 21
388.445
  0
LINE
  8
0
 10
-124.871
 20
388.445
 11
-124.711
 21
388.104
  0
LINE
  8
0
 10
-124.711
 20
388.104
 11
-124.594
 21
387.746
  0
LINE
  8
0
 10
-124.594
 20
387.746
 11
-124.524
 21
387.376
  0
LINE
  8
0
 10
-124.524
 20
387.376
 11
-124.5
 21
387
  0
LINE
  8
0
 10
-124.5
 20
387
 11
-124.524
 21
386.624
  0
LINE
  8
0
 10
-124.524
 20
386.624
 11
-124.594
 21
386.254
  0
LINE
  8
0
 10
-124.594
 20
386.254
 11
-124.711
 21
385.896
  0
LINE
  8
0
 10
-124.711
 20
385.896
 11
-124.871
 21
385.555
  0
LINE
  8
0
 10
-124.871
 20
385.555
 11
-125.073
 21
385.237
  0
LINE
  8
0
 10
-125.073
 20
385.237
 11
-125.313
 21
384.946
  0
LINE
  8
0
 10
-125.313
 20
384.946
 11
-125.588
 21
384.688
  0
LINE
  8
0
 10
-125.588
 20
384.688
 11
-125.893
 21
384.467
  0
LINE
  8
0
 10
-125.893
 20
384.467
 11
-126.223
 21
384.286
  0
LINE
  8
0
 10
-126.223
 20
384.286
 11
-126.573
 21
384.147
  0
LINE
  8
0
 10
-126.573
 20
384.147
 11
-126.938
 21
384.053
  0
LINE
  8
0
 10
-126.938
 20
384.053
 11
-127.312
 21
384.006
  0
LINE
  8
0
 10
-127.312
 20
384.006
 11
-127.688
 21
384.006
  0
LINE
  8
0
 10
127.312
 20
384.006
 11
126.938
 21
384.053
  0
LINE
  8
0
 10
126.938
 20
384.053
 11
126.573
 21
384.147
  0
LINE
  8
0
 10
126.573
 20
384.147
 11
126.223
 21
384.286
  0
LINE
  8
0
 10
126.223
 20
384.286
 11
125.893
 21
384.467
  0
LINE
  8
0
 10
125.893
 20
384.467
 11
125.588
 21
384.688
  0
LINE
  8
0
 10
125.588
 20
384.688
 11
125.313
 21
384.946
  0
LINE
  8
0
 10
125.313
 20
384.946
 11
125.073
 21
385.237
  0
LINE
  8
0
 10
125.073
 20
385.237
 11
124.871
 21
385.555
  0
LINE
  8
0
 10
124.871
 20
385.555
 11
124.711
 21
385.896
  0
LINE
  8
0
 10
124.711
 20
385.896
 11
124.594
 21
386.254
  0
LINE
  8
0
 10
124.594
 20
386.254
 11
124.524
 21
386.624
  0
LINE
  8
0
 10
124.524
 20
386.624
 11
124.5
 21
387
  0
LINE
  8
0
 10
124.5
 20
387
 11
124.524
 21
387.376
  0
LINE
  8
0
 10
124.524
 20
387.376
 11
124.594
 21
387.746
  0
LINE
  8
0
 10
124.594
 20
387.746
 11
124.711
 21
388.104
  0
LINE
  8
0
 10
124.711
 20
388.104
 11
124.871
 21
388.445
  0
LINE
  8
0
 10
124.871
 20
388.445
 11
125.073
 21
388.763
  0
LINE
  8
0
 10
125.073
 20
388.763
 11
125.313
 21
389.054
  0
LINE
  8
0
 10
125.313
 20
389.054
 11
125.588
 21
389.312
  0
LINE
  8
0
 10
125.588
 20
389.312
 11
125.893
 21
389.533
  0
LINE
  8
0
 10
125.893
 20
389.533
 11
126.223
 21
389.714
  0
LINE
  8
0
 10
126.223
 20
389.714
 11
126.573
 21
389.853
  0
LINE
  8
0
 10
126.573
 20
389.853
 11
126.938
 21
389.947
  0
LINE
  8
0
 10
126.938
 20
389.947
 11
127.312
 21
389.994
  0
LINE
  8
0
 10
127.312
 20
389.994
 11
127.688
 21
389.994
  0
LINE
  8
0
 10
127.688
 20
389.994
 11
128.062
 21
389.947
  0
LINE
  8
0
 10
128.062
 20
389.947
 11
128.427
 21
389.853
  0
LINE
  8
0
 10
128.427
 20
389.853
 11
128.777
 21
389.714
  0
LINE
  8
0
 10
128.777
 20
389.714
 11
129.107
 21
389.533
  0
LINE
  8
0
 10
129.107
 20
389.533
 11
129.412
 21
389.312
  0
LINE
  8
0
 10
129.412
 20
389.312
 11
129.687
 21
389.054
  0
LINE
  8
0
 10
129.687
 20
389.054
 11
129.927
 21
388.763
  0
LINE
  8
0
 10
129.927
 20
388.763
 11
130.129
 21
388.445
  0
LINE
  8
0
 10
130.129
 20
388.445
 11
130.289
 21
388.104
  0
LINE
  8
0
 10
130.289
 20
388.104
 11
130.406
 21
387.746
  0
LINE
  8
0
 10
130.406
 20
387.746
 11
130.476
 21
387.376
  0
LINE
  8
0
 10
130.476
 20
387.376
 11
130.5
 21
387
  0
LINE
  8
0
 10
130.5
 20
387
 11
130.476
 21
386.624
  0
LINE
  8
0
 10
130.476
 20
386.624
 11
130.406
 21
386.254
  0
LINE
  8
0
 10
130.406
 20
386.254
 11
130.289
 21
385.896
  0
LINE
  8
0
 10
130.289
 20
385.896
 11
130.129
 21
385.555
  0
LINE
  8
0
 10
130.129
 20
385.555
 11
129.927
 21
385.237
  0
LINE
  8
0
 10
129.927
 20
385.237
 11
129.687
 21
384.946
  0
LINE
  8
0
 10
129.687
 20
384.946
 11
129.412
 21
384.688
  0
LINE
  8
0
 10
129.412
 20
384.688
 11
129.107
 21
384.467
  0
LINE
  8
0
 10
129.107
 20
384.467
 11
128.777
 21
384.286
  0
LINE
  8
0
 10
128.777
 20
384.286
 11
128.427
 21
384.147
  0
LINE
  8
0
 10
128.427
 20
384.147
 11
128.062
 21
384.053
  0
LINE
  8
0
 10
128.062
 20
384.053
 11
127.688
 21
384.006
  0
LINE
  8
0
 10
127.688
 20
384.006
 11
127.312
 21
384.006
  0
LINE
  8
0
 10
-127.688
 20
294.006
 11
-128.062
 21
294.053
  0
LINE
  8
0
 10
-128.062
 20
294.053
 11
-128.427
 21
294.147
  0
LINE
  8
0
 10
-128.427
 20
294.147
 11
-128.777
 21
294.286
  0
LINE
  8
0
 10
-128.777
 20
294.286
 11
-129.107
 21
294.467
  0
LINE
  8
0
 10
-129.107
 20
294.467
 11
-129.412
 21
294.688
  0
LINE
  8
0
 10
-129.412
 20
294.688
 11
-129.687
 21
294.946
  0
LINE
  8
0
 10
-129.687
 20
294.946
 11
-129.927
 21
295.237
  0
LINE
  8
0
 10
-129.927
 20
295.237
 11
-130.129
 21
295.555
  0
LINE
  8
0
 10
-130.129
 20
295.555
 11
-130.289
 21
295.896
  0
LINE
  8
0
 10
-130.289
 20
295.896
 11
-130.406
 21
296.254
  0
LINE
  8
0
 10
-130.406
 20
296.254
 11
-130.476
 21
296.624
  0
LINE
  8
0
 10
-130.476
 20
296.624
 11
-130.5
 21
297
  0
LINE
  8
0
 10
-130.5
 20
297
 11
-130.476
 21
297.376
  0
LINE
  8
0
 10
-130.476
 20
297.376
 11
-130.406
 21
297.746
  0
LINE
  8
0
 10
-130.406
 20
297.746
 11
-130.289
 21
298.104
  0
LINE
  8
0
 10
-130.289
 20
298.104
 11
-130.129
 21
298.445
  0
LINE
  8
0
 10
-130.129
 20
298.445
 11
-129.927
 21
298.763
  0
LINE
  8
0
 10
-129.927
 20
298.763
 11
-129.687
 21
299.054
  0
LINE
  8
0
 10
-129.687
 20
299.054
 11
-129.412
 21
299.312
  0
LINE
  8
0
 10
-129.412
 20
299.312
 11
-129.107
 21
299.533
  0
LINE
  8
0
 10
-129.107
 20
299.533
 11
-128.777
 21
299.714
  0
LINE
  8
0
 10
-128.777
 20
299.714
 11
-128.427
 21
299.853
  0
LINE
  8
0
 10
-128.427
 20
299.853
 11
-128.062
 21
299.947
  0
LINE
  8
0
 10
-128.062
 20
299.947
 11
-127.688
 21
299.994
  0
LINE
  8
0
 10
-127.688
 20
299.994
 11
-127.312
 21
299.994
  0
LINE
  8
0
 10
-127.312
 20
299.994
 11
-126.938
 21
299.947
  0
LINE
  8
0
 10
-126.938
 20
299.947
 11
-126.573
 21
299.853
  0
LINE
  8
0
 10
-126.573
 20
299.853
 11
-126.223
 21
299.714
  0
LINE
  8
0
 10
-126.223
 20
299.714
 11
-125.893
 21
299.533
  0
LINE
  8
0
 10
-125.893
 20
299.533
 11
-125.588
 21
299.312
  0
LINE
  8
0
 10
-125.588
 20
299.312
 11
-125.313
 21
299.054
  0
LINE
  8
0
 10
-125.313
 20
299.054
 11
-125.073
 21
298.763
  0
LINE
  8
0
 10
-125.073
 20
298.763
 11
-124.871
 21
298.445
  0
LINE
  8
0
 10
-124.871
 20
298.445
 11
-124.711
 21
298.104
  0
LINE
  8
0
 10
-124.711
 20
298.104
 11
-124.594
 21
297.746
  0
LINE
  8
0
 10
-124.594
 20
297.746
 11
-124.524
 21
297.376
  0
LINE
  8
0
 10
-124.524
 20
297.376
 11
-124.5
 21
297
  0
LINE
  8
0
 10
-124.5
 20
297
 11
-124.524
 21
296.624
  0
LINE
  8
0
 10
-124.524
 20
296.624
 11
-124.594
 21
296.254
  0
LINE
  8
0
 10
-124.594
 20
296.254
 11
-124.711
 21
295.896
  0
LINE
  8
0
 10
-124.711
 20
295.896
 11
-124.871
 21
295.555
  0
LINE
  8
0
 10
-124.871
 20
295.555
 11
-125.073
 21
295.237
  0
LINE
  8
0
 10
-125.073
 20
295.237
 11
-125.313
 21
294.946
  0
LINE
  8
0
 10
-125.313
 20
294.946
 11
-125.588
 21
294.688
  0
LINE
  8
0
 10
-125.588
 20
294.688
 11
-125.893
 21
294.467
  0
LINE
  8
0
 10
-125.893
 20
294.467
 11
-126.223
 21
294.286
  0
LINE
  8
0
 10
-126.223
 20
294.286
 11
-126.573
 21
294.147
  0
LINE
  8
0
 10
-126.573
 20
294.147
 11
-126.938
 21
294.053
  0
LINE
  8
0
 10
-126.938
 20
294.053
 11
-127.312
 21
294.006
  0
LINE
  8
0
 10
-127.312
 20
294.006
 11
-127.688
 21
294.006
  0
LINE
  8
0
 10
127.312
 20
294.006
 11
126.938
 21
294.053
  0
LINE
  8
0
 10
126.938
 20
294.053
 11
126.573
 21
294.147
  0
LINE
  8
0
 10
126.573
 20
294.147
 11
126.223
 21
294.286
  0
LINE
  8
0
 10
126.223
 20
294.286
 11
125.893
 21
294.467
  0
LINE
  8
0
 10
125.893
 20
294.467
 11
125.588
 21
294.688
  0
LINE
  8
0
 10
125.588
 20
294.688
 11
125.313
 21
294.946
  0
LINE
  8
0
 10
125.313
 20
294.946
 11
125.073
 21
295.237
  0
LINE
  8
0
 10
125.073
 20
295.237
 11
124.871
 21
295.555
  0
LINE
  8
0
 10
124.871
 20
295.555
 11
124.711
 21
295.896
  0
LINE
  8
0
 10
124.711
 20
295.896
 11
124.594
 21
296.254
  0
LINE
  8
0
 10
124.594
 20
296.254
 11
124.524
 21
296.624
  0
LINE
  8
0
 10
124.524
 20
296.624
 11
124.5
 21
297
  0
LINE
  8
0
 10
124.5
 20
297
 11
124.524
 21
297.376
  0
LINE
  8
0
 10
124.524
 20
297.376
 11
124.594
 21
297.746
  0
LINE
  8
0
 10
124.594
 20
297.746
 11
124.711
 21
298.104
  0
LINE
  8
0
 10
124.711
 20
298.104
 11
124.871
 21
298.445
  0
LINE
  8
0
 10
124.871
 20
298.445
 11
125.073
 21
298.763
  0
LINE
  8
0
 10
125.073
 20
298.763
 11
125.313
 21
299.054
  0
LINE
  8
0
 10
125.313
 20
299.054
 11
125.588
 21
299.312
  0
LINE
  8
0
 10
125.588
 20
299.312
 11
125.893
 21
299.533
  0
LINE
  8
0
 10
125.893
 20
299.533
 11
126.223
 21
299.714
  0
LINE
  8
0
 10
126.223
 20
299.714
 11
126.573
 21
299.853
  0
LINE
  8
0
 10
126.573
 20
299.853
 11
126.938
 21
299.947
  0
LINE
  8
0
 10
126.938
 20
299.947
 11
127.312
 21
299.994
  0
LINE
  8
0
 10
127.312
 20
299.994
 11
127.688
 21
299.994
  0
LINE
  8
0
 10
127.688
 20
299.994
 11
128.062
 21
299.947
  0
LINE
  8
0
 10
128.062
 20
299.947
 11
128.427
 21
299.853
  0
LINE
  8
0
 10
128.427
 20
299.853
 11
128.777
 21
299.714
  0
LINE
  8
0
 10
128.777
 20
299.714
 11
129.107
 21
299.533
  0
LINE
  8
0
 10
129.107
 20
299.533
 11
129.412
 21
299.312
  0
LINE
  8
0
 10
129.412
 20
299.312
 11
129.687
 21
299.054
  0
LINE
  8
0
 10
129.687
 20
299.054
 11
129.927
 21
298.763
  0
LINE
  8
0
 10
129.927
 20
298.763
 11
130.129
 21
298.445
  0
LINE
  8
0
 10
130.129
 20
298.445
 11
130.289
 21
298.104
  0
LINE
  8
0
 10
130.289
 20
298.104
 11
130.406
 21
297.746
  0
LINE
  8
0
 10
130.406
 20
297.746
 11
130.476
 21
297.376
  0
LINE
  8
0
 10
130.476
 20
297.376
 11
130.5
 21
297
  0
LINE
  8
0
 10
130.5
 20
297
 11
130.476
 21
296.624
  0
LINE
  8
0
 10
130.476
 20
296.624
 11
130.406
 21
296.254
  0
LINE
  8
0
 10
130.406
 20
296.254
 11
130.289
 21
295.896
  0
LINE
  8
0
 10
130.289
 20
295.896
 11
130.129
 21
295.555
  0
LINE
  8
0
 10
130.129
 20
295.555
 11
129.927
 21
295.237
  0
LINE
  8
0
 10
129.927
 20
295.237
 11
129.687
 21
294.946
  0
LINE
  8
0
 10
129.687
 20
294.946
 11
129.412
 21
294.688
  0
LINE
  8
0
 10
129.412
 20
294.688
 11
129.107
 21
294.467
  0
LINE
  8
0
 10
129.107
 20
294.467
 11
128.777
 21
294.286
  0
LINE
  8
0
 10
128.777
 20
294.286
 11
128.427
 21
294.147
  0
LINE
  8
0
 10
128.427
 20
294.147
 11
128.062
 21
294.053
  0
LINE
  8
0
 10
128.062
 20
294.053
 11
127.688
 21
294.006
  0
LINE
  8
0
 10
127.688
 20
294.006
 11
127.312
 21
294.006
  0
LINE
  8
0
 10
130.437
 20
176.089
 11
131.045
 21
176.245
  0
LINE
  8
0
 10
131.045
 20
176.245
 11
131.629
 21
176.476
  0
LINE
  8
0
 10
131.629
 20
176.476
 11
132.179
 21
176.778
  0
LINE
  8
0
 10
132.179
 20
176.778
 11
132.687
 21
177.147
  0
LINE
  8
0
 10
132.687
 20
177.147
 11
133.145
 21
177.577
  0
LINE
  8
0
 10
133.145
 20
177.577
 11
133.545
 21
178.061
  0
LINE
  8
0
 10
133.545
 20
178.061
 11
133.882
 21
178.591
  0
LINE
  8
0
 10
133.882
 20
178.591
 11
134.149
 21
179.159
  0
LINE
  8
0
 10
134.149
 20
179.159
 11
134.343
 21
179.757
  0
LINE
  8
0
 10
134.343
 20
179.757
 11
134.461
 21
180.373
  0
LINE
  8
0
 10
134.461
 20
180.373
 11
134.5
 21
181
  0
LINE
  8
0
 10
134.5
 20
181
 11
134.5
 21
275
  0
LINE
  8
0
 10
134.5
 20
275
 11
134.461
 21
275.627
  0
LINE
  8
0
 10
134.461
 20
275.627
 11
134.343
 21
276.243
  0
LINE
  8
0
 10
134.343
 20
276.243
 11
134.149
 21
276.841
  0
LINE
  8
0
 10
134.149
 20
276.841
 11
133.882
 21
277.409
  0
LINE
  8
0
 10
133.882
 20
277.409
 11
133.545
 21
277.939
  0
LINE
  8
0
 10
133.545
 20
277.939
 11
133.145
 21
278.423
  0
LINE
  8
0
 10
133.145
 20
278.423
 11
132.687
 21
278.853
  0
LINE
  8
0
 10
132.687
 20
278.853
 11
132.179
 21
279.222
  0
LINE
  8
0
 10
132.179
 20
279.222
 11
131.629
 21
279.524
  0
LINE
  8
0
 10
131.629
 20
279.524
 11
131.045
 21
279.755
  0
LINE
  8
0
 10
131.045
 20
279.755
 11
130.437
 21
279.911
  0
LINE
  8
0
 10
130.437
 20
279.911
 11
129.814
 21
279.99
  0
LINE
  8
0
 10
129.814
 20
279.99
 11
-129.814
 21
279.99
  0
LINE
  8
0
 10
-129.814
 20
279.99
 11
-130.437
 21
279.911
  0
LINE
  8
0
 10
-130.437
 20
279.911
 11
-131.045
 21
279.755
  0
LINE
  8
0
 10
-131.045
 20
279.755
 11
-131.629
 21
279.524
  0
LINE
  8
0
 10
-131.629
 20
279.524
 11
-132.179
 21
279.222
  0
LINE
  8
0
 10
-132.179
 20
279.222
 11
-132.687
 21
278.853
  0
LINE
  8
0
 10
-132.687
 20
278.853
 11
-133.145
 21
278.423
  0
LINE
  8
0
 10
-133.145
 20
278.423
 11
-133.545
 21
277.939
  0
LINE
  8
0
 10
-133.545
 20
277.939
 11
-133.882
 21
277.409
  0
LINE
  8
0
 10
-133.882
 20
277.409
 11
-134.149
 21
276.841
  0
LINE
  8
0
 10
-134.149
 20
276.841
 11
-134.343
 21
276.243
  0
LINE
  8
0
 10
-134.343
 20
276.243
 11
-134.461
 21
275.627
  0
LINE
  8
0
 10
-134.461
 20
275.627
 11
-134.5
 21
275
  0
LINE
  8
0
 10
-134.5
 20
275
 11
-134.5
 21
181
  0
LINE
  8
0
 10
-134.5
 20
181
 11
-134.461
 21
180.373
  0
LINE
  8
0
 10
-134.461
 20
180.373
 11
-134.343
 21
179.757
  0
LINE
  8
0
 10
-134.343
 20
179.757
 11
-134.149
 21
179.159
  0
LINE
  8
0
 10
-134.149
 20
179.159
 11
-133.882
 21
178.591
  0
LINE
  8
0
 10
-133.882
 20
178.591
 11
-133.545
 21
178.061
  0
LINE
  8
0
 10
-133.545
 20
178.061
 11
-133.145
 21
177.577
  0
LINE
  8
0
 10
-133.145
 20
177.577
 11
-132.687
 21
177.147
  0
LINE
  8
0
 10
-132.687
 20
177.147
 11
-132.179
 21
176.778
  0
LINE
  8
0
 10
-132.179
 20
176.778
 11
-131.629
 21
176.476
  0
LINE
  8
0
 10
-131.629
 20
176.476
 11
-131.045
 21
176.245
  0
LINE
  8
0
 10
-131.045
 20
176.245
 11
-130.437
 21
176.089
  0
LINE
  8
0
 10
-130.437
 20
176.089
 11
-129.814
 21
176.01
  0
LINE
  8
0
 10
-129.814
 20
176.01
 11
129.814
 21
176.01
  0
LINE
  8
0
 10
129.814
 20
176.01
 11
130.437
 21
176.089
  0
LINE
  8
0
 10
127.312
 20
270.006
 11
126.938
 21
270.053
  0
LINE
  8
0
 10
126.938
 20
270.053
 11
126.573
 21
270.147
  0
LINE
  8
0
 10
126.573
 20
270.147
 11
126.223
 21
270.286
  0
LINE
  8
0
 10
126.223
 20
270.286
 11
125.893
 21
270.467
  0
LINE
  8
0
 10
125.893
 20
270.467
 11
125.588
 21
270.688
  0
LINE
  8
0
 10
125.588
 20
270.688
 11
125.313
 21
270.946
  0
LINE
  8
0
 10
125.313
 20
270.946
 11
125.073
 21
271.237
  0
LINE
  8
0
 10
125.073
 20
271.237
 11
124.871
 21
271.555
  0
LINE
  8
0
 10
124.871
 20
271.555
 11
124.711
 21
271.896
  0
LINE
  8
0
 10
124.711
 20
271.896
 11
124.594
 21
272.254
  0
LINE
  8
0
 10
124.594
 20
272.254
 11
124.524
 21
272.624
  0
LINE
  8
0
 10
124.524
 20
272.624
 11
124.5
 21
273
  0
LINE
  8
0
 10
124.5
 20
273
 11
124.524
 21
273.376
  0
LINE
  8
0
 10
124.524
 20
273.376
 11
124.594
 21
273.746
  0
LINE
  8
0
 10
124.594
 20
273.746
 11
124.711
 21
274.104
  0
LINE
  8
0
 10
124.711
 20
274.104
 11
124.871
 21
274.445
  0
LINE
  8
0
 10
124.871
 20
274.445
 11
125.073
 21
274.763
  0
LINE
  8
0
 10
125.073
 20
274.763
 11
125.313
 21
275.054
  0
LINE
  8
0
 10
125.313
 20
275.054
 11
125.588
 21
275.312
  0
LINE
  8
0
 10
125.588
 20
275.312
 11
125.893
 21
275.533
  0
LINE
  8
0
 10
125.893
 20
275.533
 11
126.223
 21
275.714
  0
LINE
  8
0
 10
126.223
 20
275.714
 11
126.573
 21
275.853
  0
LINE
  8
0
 10
126.573
 20
275.853
 11
126.938
 21
275.947
  0
LINE
  8
0
 10
126.938
 20
275.947
 11
127.312
 21
275.994
  0
LINE
  8
0
 10
127.312
 20
275.994
 11
127.688
 21
275.994
  0
LINE
  8
0
 10
127.688
 20
275.994
 11
128.062
 21
275.947
  0
LINE
  8
0
 10
128.062
 20
275.947
 11
128.427
 21
275.853
  0
LINE
  8
0
 10
128.427
 20
275.853
 11
128.777
 21
275.714
  0
LINE
  8
0
 10
128.777
 20
275.714
 11
129.107
 21
275.533
  0
LINE
  8
0
 10
129.107
 20
275.533
 11
129.412
 21
275.312
  0
LINE
  8
0
 10
129.412
 20
275.312
 11
129.687
 21
275.054
  0
LINE
  8
0
 10
129.687
 20
275.054
 11
129.927
 21
274.763
  0
LINE
  8
0
 10
129.927
 20
274.763
 11
130.129
 21
274.445
  0
LINE
  8
0
 10
130.129
 20
274.445
 11
130.289
 21
274.104
  0
LINE
  8
0
 10
130.289
 20
274.104
 11
130.406
 21
273.746
  0
LINE
  8
0
 10
130.406
 20
273.746
 11
130.476
 21
273.376
  0
LINE
  8
0
 10
130.476
 20
273.376
 11
130.5
 21
273
  0
LINE
  8
0
 10
130.5
 20
273
 11
130.476
 21
272.624
  0
LINE
  8
0
 10
130.476
 20
272.624
 11
130.406
 21
272.254
  0
LINE
  8
0
 10
130.406
 20
272.254
 11
130.289
 21
271.896
  0
LINE
  8
0
 10
130.289
 20
271.896
 11
130.129
 21
271.555
  0
LINE
  8
0
 10
130.129
 20
271.555
 11
129.927
 21
271.237
  0
LINE
  8
0
 10
129.927
 20
271.237
 11
129.687
 21
270.946
  0
LINE
  8
0
 10
129.687
 20
270.946
 11
129.412
 21
270.688
  0
LINE
  8
0
 10
129.412
 20
270.688
 11
129.107
 21
270.467
  0
LINE
  8
0
 10
129.107
 20
270.467
 11
128.777
 21
270.286
  0
LINE
  8
0
 10
128.777
 20
270.286
 11
128.427
 21
270.147
  0
LINE
  8
0
 10
128.427
 20
270.147
 11
128.062
 21
270.053
  0
LINE
  8
0
 10
128.062
 20
270.053
 11
127.688
 21
270.006
  0
LINE
  8
0
 10
127.688
 20
270.006
 11
127.312
 21
270.006
  0
LINE
  8
0
 10
-127.688
 20
270.006
 11
-128.062
 21
270.053
  0
LINE
  8
0
 10
-128.062
 20
270.053
 11
-128.427
 21
270.147
  0
LINE
  8
0
 10
-128.427
 20
270.147
 11
-128.777
 21
270.286
  0
LINE
  8
0
 10
-128.777
 20
270.286
 11
-129.107
 21
270.467
  0
LINE
  8
0
 10
-129.107
 20
270.467
 11
-129.412
 21
270.688
  0
LINE
  8
0
 10
-129.412
 20
270.688
 11
-129.687
 21
270.946
  0
LINE
  8
0
 10
-129.687
 20
270.946
 11
-129.927
 21
271.237
  0
LINE
  8
0
 10
-129.927
 20
271.237
 11
-130.129
 21
271.555
  0
LINE
  8
0
 10
-130.129
 20
271.555
 11
-130.289
 21
271.896
  0
LINE
  8
0
 10
-130.289
 20
271.896
 11
-130.406
 21
272.254
  0
LINE
  8
0
 10
-130.406
 20
272.254
 11
-130.476
 21
272.624
  0
LINE
  8
0
 10
-130.476
 20
272.624
 11
-130.5
 21
273
  0
LINE
  8
0
 10
-130.5
 20
273
 11
-130.476
 21
273.376
  0
LINE
  8
0
 10
-130.476
 20
273.376
 11
-130.406
 21
273.746
  0
LINE
  8
0
 10
-130.406
 20
273.746
 11
-130.289
 21
274.104
  0
LINE
  8
0
 10
-130.289
 20
274.104
 11
-130.129
 21
274.445
  0
LINE
  8
0
 10
-130.129
 20
274.445
 11
-129.927
 21
274.763
  0
LINE
  8
0
 10
-129.927
 20
274.763
 11
-129.687
 21
275.054
  0
LINE
  8
0
 10
-129.687
 20
275.054
 11
-129.412
 21
275.312
  0
LINE
  8
0
 10
-129.412
 20
275.312
 11
-129.107
 21
275.533
  0
LINE
  8
0
 10
-129.107
 20
275.533
 11
-128.777
 21
275.714
  0
LINE
  8
0
 10
-128.777
 20
275.714
 11
-128.427
 21
275.853
  0
LINE
  8
0
 10
-128.427
 20
275.853
 11
-128.062
 21
275.947
  0
LINE
  8
0
 10
-128.062
 20
275.947
 11
-127.688
 21
275.994
  0
LINE
  8
0
 10
-127.688
 20
275.994
 11
-127.312
 21
275.994
  0
LINE
  8
0
 10
-127.312
 20
275.994
 11
-126.938
 21
275.947
  0
LINE
  8
0
 10
-126.938
 20
275.947
 11
-126.573
 21
275.853
  0
LINE
  8
0
 10
-126.573
 20
275.853
 11
-126.223
 21
275.714
  0
LINE
  8
0
 10
-126.223
 20
275.714
 11
-125.893
 21
275.533
  0
LINE
  8
0
 10
-125.893
 20
275.533
 11
-125.588
 21
275.312
  0
LINE
  8
0
 10
-125.588
 20
275.312
 11
-125.313
 21
275.054
  0
LINE
  8
0
 10
-125.313
 20
275.054
 11
-125.073
 21
274.763
  0
LINE
  8
0
 10
-125.073
 20
274.763
 11
-124.871
 21
274.445
  0
LINE
  8
0
 10
-124.871
 20
274.445
 11
-124.711
 21
274.104
  0
LINE
  8
0
 10
-124.711
 20
274.104
 11
-124.594
 21
273.746
  0
LINE
  8
0
 10
-124.594
 20
273.746
 11
-124.524
 21
273.376
  0
LINE
  8
0
 10
-124.524
 20
273.376
 11
-124.5
 21
273
  0
LINE
  8
0
 10
-124.5
 20
273
 11
-124.524
 21
272.624
  0
LINE
  8
0
 10
-124.524
 20
272.624
 11
-124.594
 21
272.254
  0
LINE
  8
0
 10
-124.594
 20
272.254
 11
-124.711
 21
271.896
  0
LINE
  8
0
 10
-124.711
 20
271.896
 11
-124.871
 21
271.555
  0
LINE
  8
0
 10
-124.871
 20
271.555
 11
-125.073
 21
271.237
  0
LINE
  8
0
 10
-125.073
 20
271.237
 11
-125.313
 21
270.946
  0
LINE
  8
0
 10
-125.313
 20
270.946
 11
-125.588
 21
270.688
  0
LINE
  8
0
 10
-125.588
 20
270.688
 11
-125.893
 21
270.467
  0
LINE
  8
0
 10
-125.893
 20
270.467
 11
-126.223
 21
270.286
  0
LINE
  8
0
 10
-126.223
 20
270.286
 11
-126.573
 21
270.147
  0
LINE
  8
0
 10
-126.573
 20
270.147
 11
-126.938
 21
270.053
  0
LINE
  8
0
 10
-126.938
 20
270.053
 11
-127.312
 21
270.006
  0
LINE
  8
0
 10
-127.312
 20
270.006
 11
-127.688
 21
270.006
  0
LINE
  8
0
 10
-127.688
 20
180.006
 11
-128.062
 21
180.053
  0
LINE
  8
0
 10
-128.062
 20
180.053
 11
-128.427
 21
180.147
  0
LINE
  8
0
 10
-128.427
 20
180.147
 11
-128.777
 21
180.286
  0
LINE
  8
0
 10
-128.777
 20
180.286
 11
-129.107
 21
180.467
  0
LINE
  8
0
 10
-129.107
 20
180.467
 11
-129.412
 21
180.688
  0
LINE
  8
0
 10
-129.412
 20
180.688
 11
-129.687
 21
180.946
  0
LINE
  8
0
 10
-129.687
 20
180.946
 11
-129.927
 21
181.237
  0
LINE
  8
0
 10
-129.927
 20
181.237
 11
-130.129
 21
181.555
  0
LINE
  8
0
 10
-130.129
 20
181.555
 11
-130.289
 21
181.896
  0
LINE
  8
0
 10
-130.289
 20
181.896
 11
-130.406
 21
182.254
  0
LINE
  8
0
 10
-130.406
 20
182.254
 11
-130.476
 21
182.624
  0
LINE
  8
0
 10
-130.476
 20
182.624
 11
-130.5
 21
183
  0
LINE
  8
0
 10
-130.5
 20
183
 11
-130.476
 21
183.376
  0
LINE
  8
0
 10
-130.476
 20
183.376
 11
-130.406
 21
183.746
  0
LINE
  8
0
 10
-130.406
 20
183.746
 11
-130.289
 21
184.104
  0
LINE
  8
0
 10
-130.289
 20
184.104
 11
-130.129
 21
184.445
  0
LINE
  8
0
 10
-130.129
 20
184.445
 11
-129.927
 21
184.763
  0
LINE
  8
0
 10
-129.927
 20
184.763
 11
-129.687
 21
185.054
  0
LINE
  8
0
 10
-129.687
 20
185.054
 11
-129.412
 21
185.312
  0
LINE
  8
0
 10
-129.412
 20
185.312
 11
-129.107
 21
185.533
  0
LINE
  8
0
 10
-129.107
 20
185.533
 11
-128.777
 21
185.714
  0
LINE
  8
0
 10
-128.777
 20
185.714
 11
-128.427
 21
185.853
  0
LINE
  8
0
 10
-128.427
 20
185.853
 11
-128.062
 21
185.947
  0
LINE
  8
0
 10
-128.062
 20
185.947
 11
-127.688
 21
185.994
  0
LINE
  8
0
 10
-127.688
 20
185.994
 11
-127.312
 21
185.994
  0
LINE
  8
0
 10
-127.312
 20
185.994
 11
-126.938
 21
185.947
  0
LINE
  8
0
 10
-126.938
 20
185.947
 11
-126.573
 21
185.853
  0
LINE
  8
0
 10
-126.573
 20
185.853
 11
-126.223
 21
185.714
  0
LINE
  8
0
 10
-126.223
 20
185.714
 11
-125.893
 21
185.533
  0
LINE
  8
0
 10
-125.893
 20
185.533
 11
-125.588
 21
185.312
  0
LINE
  8
0
 10
-125.588
 20
185.312
 11
-125.313
 21
185.054
  0
LINE
  8
0
 10
-125.313
 20
185.054
 11
-125.073
 21
184.763
  0
LINE
  8
0
 10
-125.073
 20
184.763
 11
-124.871
 21
184.445
  0
LINE
  8
0
 10
-124.871
 20
184.445
 11
-124.711
 21
184.104
  0
LINE
  8
0
 10
-124.711
 20
184.104
 11
-124.594
 21
183.746
  0
LINE
  8
0
 10
-124.594
 20
183.746
 11
-124.524
 21
183.376
  0
LINE
  8
0
 10
-124.524
 20
183.376
 11
-124.5
 21
183
  0
LINE
  8
0
 10
-124.5
 20
183
 11
-124.524
 21
182.624
  0
LINE
  8
0
 10
-124.524
 20
182.624
 11
-124.594
 21
182.254
  0
LINE
  8
0
 10
-124.594
 20
182.254
 11
-124.711
 21
181.896
  0
LINE
  8
0
 10
-124.711
 20
181.896
 11
-124.871
 21
181.555
  0
LINE
  8
0
 10
-124.871
 20
181.555
 11
-125.073
 21
181.237
  0
LINE
  8
0
 10
-125.073
 20
181.237
 11
-125.313
 21
180.946
  0
LINE
  8
0
 10
-125.313
 20
180.946
 11
-125.588
 21
180.688
  0
LINE
  8
0
 10
-125.588
 20
180.688
 11
-125.893
 21
180.467
  0
LINE
  8
0
 10
-125.893
 20
180.467
 11
-126.223
 21
180.286
  0
LINE
  8
0
 10
-126.223
 20
180.286
 11
-126.573
 21
180.147
  0
LINE
  8
0
 10
-126.573
 20
180.147
 11
-126.938
 21
180.053
  0
LINE
  8
0
 10
-126.938
 20
180.053
 11
-127.312
 21
180.006
  0
LINE
  8
0
 10
-127.312
 20
180.006
 11
-127.688
 21
180.006
  0
LINE
  8
0
 10
127.312
 20
180.006
 11
126.938
 21
180.053
  0
LINE
  8
0
 10
126.938
 20
180.053
 11
126.573
 21
180.147
  0
LINE
  8
0
 10
126.573
 20
180.147
 11
126.223
 21
180.286
  0
LINE
  8
0
 10
126.223
 20
180.286
 11
125.893
 21
180.467
  0
LINE
  8
0
 10
125.893
 20
180.467
 11
125.588
 21
180.688
  0
LINE
  8
0
 10
125.588
 20
180.688
 11
125.313
 21
180.946
  0
LINE
  8
0
 10
125.313
 20
180.946
 11
125.073
 21
181.237
  0
LINE
  8
0
 10
125.073
 20
181.237
 11
124.871
 21
181.555
  0
LINE
  8
0
 10
124.871
 20
181.555
 11
124.711
 21
181.896
  0
LINE
  8
0
 10
124.711
 20
181.896
 11
124.594
 21
182.254
  0
LINE
  8
0
 10
124.594
 20
182.254
 11
124.524
 21
182.624
  0
LINE
  8
0
 10
124.524
 20
182.624
 11
124.5
 21
183
  0
LINE
  8
0
 10
124.5
 20
183
 11
124.524
 21
183.376
  0
LINE
  8
0
 10
124.524
 20
183.376
 11
124.594
 21
183.746
  0
LINE
  8
0
 10
124.594
 20
183.746
 11
124.711
 21
184.104
  0
LINE
  8
0
 10
124.711
 20
184.104
 11
124.871
 21
184.445
  0
LINE
  8
0
 10
124.871
 20
184.445
 11
125.073
 21
184.763
  0
LINE
  8
0
 10
125.073
 20
184.763
 11
125.313
 21
185.054
  0
LINE
  8
0
 10
125.313
 20
185.054
 11
125.588
 21
185.312
  0
LINE
  8
0
 10
125.588
 20
185.312
 11
125.893
 21
185.533
  0
LINE
  8
0
 10
125.893
 20
185.533
 11
126.223
 21
185.714
  0
LINE
  8
0
 10
126.223
 20
185.714
 11
126.573
 21
185.853
  0
LINE
  8
0
 10
126.573
 20
185.853
 11
126.938
 21
185.947
  0
LINE
  8
0
 10
126.938
 20
185.947
 11
127.312
 21
185.994
  0
LINE
  8
0
 10
127.312
 20
185.994
 11
127.688
 21
185.994
  0
LINE
  8
0
 10
127.688
 20
185.994
 11
128.062
 21
185.947
  0
LINE
  8
0
 10
128.062
 20
185.947
 11
128.427
 21
185.853
  0
LINE
  8
0
 10
128.427
 20
185.853
 11
128.777
 21
185.714
  0
LINE
  8
0
 10
128.777
 20
185.714
 11
129.107
 21
185.533
  0
LINE
  8
0
 10
129.107
 20
185.533
 11
129.412
 21
185.312
  0
LINE
  8
0
 10
129.412
 20
185.312
 11
129.687
 21
185.054
  0
LINE
  8
0
 10
129.687
 20
185.054
 11
129.927
 21
184.763
  0
LINE
  8
0
 10
129.927
 20
184.763
 11
130.129
 21
184.445
  0
LINE
  8
0
 10
130.129
 20
184.445
 11
130.289
 21
184.104
  0
LINE
  8
0
 10
130.289
 20
184.104
 11
130.406
 21
183.746
  0
LINE
  8
0
 10
130.406
 20
183.746
 11
130.476
 21
183.376
  0
LINE
  8
0
 10
130.476
 20
183.376
 11
130.5
 21
183
  0
LINE
  8
0
 10
130.5
 20
183
 11
130.476
 21
182.624
  0
LINE
  8
0
 10
130.476
 20
182.624
 11
130.406
 21
182.254
  0
LINE
  8
0
 10
130.406
 20
182.254
 11
130.289
 21
181.896
  0
LINE
  8
0
 10
130.289
 20
181.896
 11
130.129
 21
181.555
  0
LINE
  8
0
 10
130.129
 20
181.555
 11
129.927
 21
181.237
  0
LINE
  8
0
 10
129.927
 20
181.237
 11
129.687
 21
180.946
  0
LINE
  8
0
 10
129.687
 20
180.946
 11
129.412
 21
180.688
  0
LINE
  8
0
 10
129.412
 20
180.688
 11
129.107
 21
180.467
  0
LINE
  8
0
 10
129.107
 20
180.467
 11
128.777
 21
180.286
  0
LINE
  8
0
 10
128.777
 20
180.286
 11
128.427
 21
180.147
  0
LINE
  8
0
 10
128.427
 20
180.147
 11
128.062
 21
180.053
  0
LINE
  8
0
 10
128.062
 20
180.053
 11
127.688
 21
180.006
  0
LINE
  8
0
 10
127.688
 20
180.006
 11
127.312
 21
180.006
  0
ENDSEC
  0
SECTION
  2
OBJECTS
  0
DICTIONARY
  0
ENDSEC
  0
EOF
