  0
SECTION
  2
BLOCKS
  0
ENDSEC
  0
SECTION
  2
ENTITIES
  0
LINE
  8
0
 10
107.937
 20
-6.91142
 11
108.545
 21
-6.75528
  0
LINE
  8
0
 10
108.545
 20
-6.75528
 11
109.129
 21
-6.52412
  0
LINE
  8
0
 10
109.129
 20
-6.52412
 11
109.679
 21
-6.22163
  0
LINE
  8
0
 10
109.679
 20
-6.22163
 11
110.187
 21
-5.85255
  0
LINE
  8
0
 10
110.187
 20
-5.85255
 11
110.645
 21
-5.42273
  0
LINE
  8
0
 10
110.645
 20
-5.42273
 11
111.045
 21
-4.93892
  0
LINE
  8
0
 10
111.045
 20
-4.93892
 11
111.382
 21
-4.40877
  0
LINE
  8
0
 10
111.382
 20
-4.40877
 11
111.649
 21
-3.84062
  0
LINE
  8
0
 10
111.649
 20
-3.84062
 11
111.843
 21
-3.24344
  0
LINE
  8
0
 10
111.843
 20
-3.24344
 11
111.961
 21
-2.62666
  0
LINE
  8
0
 10
111.961
 20
-2.62666
 11
112
 21
-2
  0
LINE
  8
0
 10
112
 20
-2
 11
112
 21
2
  0
LINE
  8
0
 10
112
 20
2
 11
111.961
 21
2.62666
  0
LINE
  8
0
 10
111.961
 20
2.62666
 11
111.843
 21
3.24344
  0
LINE
  8
0
 10
111.843
 20
3.24344
 11
111.649
 21
3.84062
  0
LINE
  8
0
 10
111.649
 20
3.84062
 11
111.382
 21
4.40877
  0
LINE
  8
0
 10
111.382
 20
4.40877
 11
111.045
 21
4.93892
  0
LINE
  8
0
 10
111.045
 20
4.93892
 11
110.645
 21
5.42273
  0
LINE
  8
0
 10
110.645
 20
5.42273
 11
110.187
 21
5.85255
  0
LINE
  8
0
 10
110.187
 20
5.85255
 11
109.679
 21
6.22163
  0
LINE
  8
0
 10
109.679
 20
6.22163
 11
109.129
 21
6.52412
  0
LINE
  8
0
 10
109.129
 20
6.52412
 11
108.545
 21
6.75528
  0
LINE
  8
0
 10
108.545
 20
6.75528
 11
107.937
 21
6.91142
  0
LINE
  8
0
 10
107.937
 20
6.91142
 11
107.314
 21
6.99013
  0
LINE
  8
0
 10
107.314
 20
6.99013
 11
-107.314
 21
6.99013
  0
LINE
  8
0
 10
-107.314
 20
6.99013
 11
-107.937
 21
6.91142
  0
LINE
  8
0
 10
-107.937
 20
6.91142
 11
-108.545
 21
6.75528
  0
LINE
  8
0
 10
-108.545
 20
6.75528
 11
-109.129
 21
6.52412
  0
LINE
  8
0
 10
-109.129
 20
6.52412
 11
-109.679
 21
6.22163
  0
LINE
  8
0
 10
-109.679
 20
6.22163
 11
-110.187
 21
5.85255
  0
LINE
  8
0
 10
-110.187
 20
5.85255
 11
-110.645
 21
5.42273
  0
LINE
  8
0
 10
-110.645
 20
5.42273
 11
-111.045
 21
4.93892
  0
LINE
  8
0
 10
-111.045
 20
4.93892
 11
-111.382
 21
4.40877
  0
LINE
  8
0
 10
-111.382
 20
4.40877
 11
-111.649
 21
3.84062
  0
LINE
  8
0
 10
-111.649
 20
3.84062
 11
-111.843
 21
3.24344
  0
LINE
  8
0
 10
-111.843
 20
3.24344
 11
-111.961
 21
2.62666
  0
LINE
  8
0
 10
-111.961
 20
2.62666
 11
-112
 21
2
  0
LINE
  8
0
 10
-112
 20
2
 11
-112
 21
-2
  0
LINE
  8
0
 10
-112
 20
-2
 11
-111.961
 21
-2.62666
  0
LINE
  8
0
 10
-111.961
 20
-2.62666
 11
-111.843
 21
-3.24344
  0
LINE
  8
0
 10
-111.843
 20
-3.24344
 11
-111.649
 21
-3.84062
  0
LINE
  8
0
 10
-111.649
 20
-3.84062
 11
-111.382
 21
-4.40877
  0
LINE
  8
0
 10
-111.382
 20
-4.40877
 11
-111.045
 21
-4.93892
  0
LINE
  8
0
 10
-111.045
 20
-4.93892
 11
-110.645
 21
-5.42273
  0
LINE
  8
0
 10
-110.645
 20
-5.42273
 11
-110.187
 21
-5.85255
  0
LINE
  8
0
 10
-110.187
 20
-5.85255
 11
-109.679
 21
-6.22163
  0
LINE
  8
0
 10
-109.679
 20
-6.22163
 11
-109.129
 21
-6.52412
  0
LINE
  8
0
 10
-109.129
 20
-6.52412
 11
-108.545
 21
-6.75528
  0
LINE
  8
0
 10
-108.545
 20
-6.75528
 11
-107.937
 21
-6.91142
  0
LINE
  8
0
 10
-107.937
 20
-6.91142
 11
-107.314
 21
-6.99013
  0
LINE
  8
0
 10
-107.314
 20
-6.99013
 11
107.314
 21
-6.99013
  0
LINE
  8
0
 10
107.314
 20
-6.99013
 11
107.937
 21
-6.91142
  0
LINE
  8
0
 10
-105.188
 20
-2.99408
 11
-105.562
 21
-2.94685
  0
LINE
  8
0
 10
-105.562
 20
-2.94685
 11
-105.927
 21
-2.85316
  0
LINE
  8
0
 10
-105.927
 20
-2.85316
 11
-106.277
 21
-2.71448
  0
LINE
  8
0
 10
-106.277
 20
-2.71448
 11
-106.607
 21
-2.53297
  0
LINE
  8
0
 10
-106.607
 20
-2.53297
 11
-106.912
 21
-2.31154
  0
LINE
  8
0
 10
-106.912
 20
-2.31154
 11
-107.187
 21
-2.05363
  0
LINE
  8
0
 10
-107.187
 20
-2.05363
 11
-107.427
 21
-1.76335
  0
LINE
  8
0
 10
-107.427
 20
-1.76335
 11
-107.629
 21
-1.44525
  0
LINE
  8
0
 10
-107.629
 20
-1.44525
 11
-107.789
 21
-1.10437
  0
LINE
  8
0
 10
-107.789
 20
-1.10437
 11
-107.906
 21
-0.746063
  0
LINE
  8
0
 10
-107.906
 20
-0.746063
 11
-107.976
 21
-0.375992
  0
LINE
  8
0
 10
-107.976
 20
-0.375992
 11
-108
 21
0
  0
LINE
  8
0
 10
-108
 20
0
 11
-107.976
 21
0.375992
  0
LINE
  8
0
 10
-107.976
 20
0.375992
 11
-107.906
 21
0.746063
  0
LINE
  8
0
 10
-107.906
 20
0.746063
 11
-107.789
 21
1.10437
  0
LINE
  8
0
 10
-107.789
 20
1.10437
 11
-107.629
 21
1.44525
  0
LINE
  8
0
 10
-107.629
 20
1.44525
 11
-107.427
 21
1.76335
  0
LINE
  8
0
 10
-107.427
 20
1.76335
 11
-107.187
 21
2.05363
  0
LINE
  8
0
 10
-107.187
 20
2.05363
 11
-106.912
 21
2.31154
  0
LINE
  8
0
 10
-106.912
 20
2.31154
 11
-106.607
 21
2.53297
  0
LINE
  8
0
 10
-106.607
 20
2.53297
 11
-106.277
 21
2.71448
  0
LINE
  8
0
 10
-106.277
 20
2.71448
 11
-105.927
 21
2.85316
  0
LINE
  8
0
 10
-105.927
 20
2.85316
 11
-105.562
 21
2.94685
  0
LINE
  8
0
 10
-105.562
 20
2.94685
 11
-105.188
 21
2.99408
  0
LINE
  8
0
 10
-105.188
 20
2.99408
 11
-104.812
 21
2.99408
  0
LINE
  8
0
 10
-104.812
 20
2.99408
 11
-104.438
 21
2.94685
  0
LINE
  8
0
 10
-104.438
 20
2.94685
 11
-104.073
 21
2.85316
  0
LINE
  8
0
 10
-104.073
 20
2.85316
 11
-103.723
 21
2.71448
  0
LINE
  8
0
 10
-103.723
 20
2.71448
 11
-103.393
 21
2.53297
  0
LINE
  8
0
 10
-103.393
 20
2.53297
 11
-103.088
 21
2.31154
  0
LINE
  8
0
 10
-103.088
 20
2.31154
 11
-102.813
 21
2.05363
  0
LINE
  8
0
 10
-102.813
 20
2.05363
 11
-102.573
 21
1.76335
  0
LINE
  8
0
 10
-102.573
 20
1.76335
 11
-102.371
 21
1.44525
  0
LINE
  8
0
 10
-102.371
 20
1.44525
 11
-102.211
 21
1.10437
  0
LINE
  8
0
 10
-102.211
 20
1.10437
 11
-102.094
 21
0.746063
  0
LINE
  8
0
 10
-102.094
 20
0.746063
 11
-102.024
 21
0.375992
  0
LINE
  8
0
 10
-102.024
 20
0.375992
 11
-102
 21
0
  0
LINE
  8
0
 10
-102
 20
0
 11
-102.024
 21
-0.375992
  0
LINE
  8
0
 10
-102.024
 20
-0.375992
 11
-102.094
 21
-0.746063
  0
LINE
  8
0
 10
-102.094
 20
-0.746063
 11
-102.211
 21
-1.10437
  0
LINE
  8
0
 10
-102.211
 20
-1.10437
 11
-102.371
 21
-1.44525
  0
LINE
  8
0
 10
-102.371
 20
-1.44525
 11
-102.573
 21
-1.76335
  0
LINE
  8
0
 10
-102.573
 20
-1.76335
 11
-102.813
 21
-2.05363
  0
LINE
  8
0
 10
-102.813
 20
-2.05363
 11
-103.088
 21
-2.31154
  0
LINE
  8
0
 10
-103.088
 20
-2.31154
 11
-103.393
 21
-2.53297
  0
LINE
  8
0
 10
-103.393
 20
-2.53297
 11
-103.723
 21
-2.71448
  0
LINE
  8
0
 10
-103.723
 20
-2.71448
 11
-104.073
 21
-2.85316
  0
LINE
  8
0
 10
-104.073
 20
-2.85316
 11
-104.438
 21
-2.94685
  0
LINE
  8
0
 10
-104.438
 20
-2.94685
 11
-104.812
 21
-2.99408
  0
LINE
  8
0
 10
-104.812
 20
-2.99408
 11
-105.188
 21
-2.99408
  0
ENDSEC
  0
SECTION
  2
OBJECTS
  0
DICTIONARY
  0
ENDSEC
  0
EOF
