  0
SECTION
  2
BLOCKS
  0
ENDSEC
  0
SECTION
  2
ENTITIES
  0
LINE
  8
0
 10
32.9369
 20
719.089
 11
33.5451
 21
719.245
  0
LINE
  8
0
 10
33.5451
 20
719.245
 11
34.1289
 21
719.476
  0
LINE
  8
0
 10
34.1289
 20
719.476
 11
34.6791
 21
719.778
  0
LINE
  8
0
 10
34.6791
 20
719.778
 11
35.1871
 21
720.147
  0
LINE
  8
0
 10
35.1871
 20
720.147
 11
35.6448
 21
720.577
  0
LINE
  8
0
 10
35.6448
 20
720.577
 11
36.0451
 21
721.061
  0
LINE
  8
0
 10
36.0451
 20
721.061
 11
36.3815
 21
721.591
  0
LINE
  8
0
 10
36.3815
 20
721.591
 11
36.6489
 21
722.159
  0
LINE
  8
0
 10
36.6489
 20
722.159
 11
36.8429
 21
722.757
  0
LINE
  8
0
 10
36.8429
 20
722.757
 11
36.9606
 21
723.373
  0
LINE
  8
0
 10
36.9606
 20
723.373
 11
37
 21
724
  0
LINE
  8
0
 10
37
 20
724
 11
37
 21
788
  0
LINE
  8
0
 10
37
 20
788
 11
36.9606
 21
788.627
  0
LINE
  8
0
 10
36.9606
 20
788.627
 11
36.8429
 21
789.243
  0
LINE
  8
0
 10
36.8429
 20
789.243
 11
36.6489
 21
789.841
  0
LINE
  8
0
 10
36.6489
 20
789.841
 11
36.3815
 21
790.409
  0
LINE
  8
0
 10
36.3815
 20
790.409
 11
36.0451
 21
790.939
  0
LINE
  8
0
 10
36.0451
 20
790.939
 11
35.6448
 21
791.423
  0
LINE
  8
0
 10
35.6448
 20
791.423
 11
35.1871
 21
791.853
  0
LINE
  8
0
 10
35.1871
 20
791.853
 11
34.6791
 21
792.222
  0
LINE
  8
0
 10
34.6791
 20
792.222
 11
34.1289
 21
792.524
  0
LINE
  8
0
 10
34.1289
 20
792.524
 11
33.5451
 21
792.755
  0
LINE
  8
0
 10
33.5451
 20
792.755
 11
32.9369
 21
792.911
  0
LINE
  8
0
 10
32.9369
 20
792.911
 11
32.3139
 21
792.99
  0
LINE
  8
0
 10
32.3139
 20
792.99
 11
-32.3139
 21
792.99
  0
LINE
  8
0
 10
-32.3139
 20
792.99
 11
-32.9369
 21
792.911
  0
LINE
  8
0
 10
-32.9369
 20
792.911
 11
-33.5451
 21
792.755
  0
LINE
  8
0
 10
-33.5451
 20
792.755
 11
-34.1289
 21
792.524
  0
LINE
  8
0
 10
-34.1289
 20
792.524
 11
-34.6791
 21
792.222
  0
LINE
  8
0
 10
-34.6791
 20
792.222
 11
-35.1871
 21
791.853
  0
LINE
  8
0
 10
-35.1871
 20
791.853
 11
-35.6448
 21
791.423
  0
LINE
  8
0
 10
-35.6448
 20
791.423
 11
-36.0451
 21
790.939
  0
LINE
  8
0
 10
-36.0451
 20
790.939
 11
-36.3815
 21
790.409
  0
LINE
  8
0
 10
-36.3815
 20
790.409
 11
-36.6489
 21
789.841
  0
LINE
  8
0
 10
-36.6489
 20
789.841
 11
-36.8429
 21
789.243
  0
LINE
  8
0
 10
-36.8429
 20
789.243
 11
-36.9606
 21
788.627
  0
LINE
  8
0
 10
-36.9606
 20
788.627
 11
-37
 21
788
  0
LINE
  8
0
 10
-37
 20
788
 11
-37
 21
724
  0
LINE
  8
0
 10
-37
 20
724
 11
-36.9606
 21
723.373
  0
LINE
  8
0
 10
-36.9606
 20
723.373
 11
-36.8429
 21
722.757
  0
LINE
  8
0
 10
-36.8429
 20
722.757
 11
-36.6489
 21
722.159
  0
LINE
  8
0
 10
-36.6489
 20
722.159
 11
-36.3815
 21
721.591
  0
LINE
  8
0
 10
-36.3815
 20
721.591
 11
-36.0451
 21
721.061
  0
LINE
  8
0
 10
-36.0451
 20
721.061
 11
-35.6448
 21
720.577
  0
LINE
  8
0
 10
-35.6448
 20
720.577
 11
-35.1871
 21
720.147
  0
LINE
  8
0
 10
-35.1871
 20
720.147
 11
-34.6791
 21
719.778
  0
LINE
  8
0
 10
-34.6791
 20
719.778
 11
-34.1289
 21
719.476
  0
LINE
  8
0
 10
-34.1289
 20
719.476
 11
-33.5451
 21
719.245
  0
LINE
  8
0
 10
-33.5451
 20
719.245
 11
-32.9369
 21
719.089
  0
LINE
  8
0
 10
-32.9369
 20
719.089
 11
-32.3139
 21
719.01
  0
LINE
  8
0
 10
-32.3139
 20
719.01
 11
32.3139
 21
719.01
  0
LINE
  8
0
 10
32.3139
 20
719.01
 11
32.9369
 21
719.089
  0
LINE
  8
0
 10
-30.1884
 20
783.006
 11
-30.5621
 21
783.053
  0
LINE
  8
0
 10
-30.5621
 20
783.053
 11
-30.927
 21
783.147
  0
LINE
  8
0
 10
-30.927
 20
783.147
 11
-31.2773
 21
783.286
  0
LINE
  8
0
 10
-31.2773
 20
783.286
 11
-31.6075
 21
783.467
  0
LINE
  8
0
 10
-31.6075
 20
783.467
 11
-31.9123
 21
783.688
  0
LINE
  8
0
 10
-31.9123
 20
783.688
 11
-32.1869
 21
783.946
  0
LINE
  8
0
 10
-32.1869
 20
783.946
 11
-32.427
 21
784.237
  0
LINE
  8
0
 10
-32.427
 20
784.237
 11
-32.6289
 21
784.555
  0
LINE
  8
0
 10
-32.6289
 20
784.555
 11
-32.7893
 21
784.896
  0
LINE
  8
0
 10
-32.7893
 20
784.896
 11
-32.9057
 21
785.254
  0
LINE
  8
0
 10
-32.9057
 20
785.254
 11
-32.9763
 21
785.624
  0
LINE
  8
0
 10
-32.9763
 20
785.624
 11
-33
 21
786
  0
LINE
  8
0
 10
-33
 20
786
 11
-32.9763
 21
786.376
  0
LINE
  8
0
 10
-32.9763
 20
786.376
 11
-32.9057
 21
786.746
  0
LINE
  8
0
 10
-32.9057
 20
786.746
 11
-32.7893
 21
787.104
  0
LINE
  8
0
 10
-32.7893
 20
787.104
 11
-32.6289
 21
787.445
  0
LINE
  8
0
 10
-32.6289
 20
787.445
 11
-32.427
 21
787.763
  0
LINE
  8
0
 10
-32.427
 20
787.763
 11
-32.1869
 21
788.054
  0
LINE
  8
0
 10
-32.1869
 20
788.054
 11
-31.9123
 21
788.312
  0
LINE
  8
0
 10
-31.9123
 20
788.312
 11
-31.6075
 21
788.533
  0
LINE
  8
0
 10
-31.6075
 20
788.533
 11
-31.2773
 21
788.714
  0
LINE
  8
0
 10
-31.2773
 20
788.714
 11
-30.927
 21
788.853
  0
LINE
  8
0
 10
-30.927
 20
788.853
 11
-30.5621
 21
788.947
  0
LINE
  8
0
 10
-30.5621
 20
788.947
 11
-30.1884
 21
788.994
  0
LINE
  8
0
 10
-30.1884
 20
788.994
 11
-29.8116
 21
788.994
  0
LINE
  8
0
 10
-29.8116
 20
788.994
 11
-29.4379
 21
788.947
  0
LINE
  8
0
 10
-29.4379
 20
788.947
 11
-29.0729
 21
788.853
  0
LINE
  8
0
 10
-29.0729
 20
788.853
 11
-28.7227
 21
788.714
  0
LINE
  8
0
 10
-28.7227
 20
788.714
 11
-28.3925
 21
788.533
  0
LINE
  8
0
 10
-28.3925
 20
788.533
 11
-28.0877
 21
788.312
  0
LINE
  8
0
 10
-28.0877
 20
788.312
 11
-27.8131
 21
788.054
  0
LINE
  8
0
 10
-27.8131
 20
788.054
 11
-27.5729
 21
787.763
  0
LINE
  8
0
 10
-27.5729
 20
787.763
 11
-27.3711
 21
787.445
  0
LINE
  8
0
 10
-27.3711
 20
787.445
 11
-27.2107
 21
787.104
  0
LINE
  8
0
 10
-27.2107
 20
787.104
 11
-27.0942
 21
786.746
  0
LINE
  8
0
 10
-27.0942
 20
786.746
 11
-27.0237
 21
786.376
  0
LINE
  8
0
 10
-27.0237
 20
786.376
 11
-27
 21
786
  0
LINE
  8
0
 10
-27
 20
786
 11
-27.0237
 21
785.624
  0
LINE
  8
0
 10
-27.0237
 20
785.624
 11
-27.0942
 21
785.254
  0
LINE
  8
0
 10
-27.0942
 20
785.254
 11
-27.2107
 21
784.896
  0
LINE
  8
0
 10
-27.2107
 20
784.896
 11
-27.3711
 21
784.555
  0
LINE
  8
0
 10
-27.3711
 20
784.555
 11
-27.5729
 21
784.237
  0
LINE
  8
0
 10
-27.5729
 20
784.237
 11
-27.8131
 21
783.946
  0
LINE
  8
0
 10
-27.8131
 20
783.946
 11
-28.0877
 21
783.688
  0
LINE
  8
0
 10
-28.0877
 20
783.688
 11
-28.3925
 21
783.467
  0
LINE
  8
0
 10
-28.3925
 20
783.467
 11
-28.7227
 21
783.286
  0
LINE
  8
0
 10
-28.7227
 20
783.286
 11
-29.0729
 21
783.147
  0
LINE
  8
0
 10
-29.0729
 20
783.147
 11
-29.4379
 21
783.053
  0
LINE
  8
0
 10
-29.4379
 20
783.053
 11
-29.8116
 21
783.006
  0
LINE
  8
0
 10
-29.8116
 20
783.006
 11
-30.1884
 21
783.006
  0
LINE
  8
0
 10
29.8116
 20
783.006
 11
29.4379
 21
783.053
  0
LINE
  8
0
 10
29.4379
 20
783.053
 11
29.0729
 21
783.147
  0
LINE
  8
0
 10
29.0729
 20
783.147
 11
28.7227
 21
783.286
  0
LINE
  8
0
 10
28.7227
 20
783.286
 11
28.3925
 21
783.467
  0
LINE
  8
0
 10
28.3925
 20
783.467
 11
28.0877
 21
783.688
  0
LINE
  8
0
 10
28.0877
 20
783.688
 11
27.8131
 21
783.946
  0
LINE
  8
0
 10
27.8131
 20
783.946
 11
27.5729
 21
784.237
  0
LINE
  8
0
 10
27.5729
 20
784.237
 11
27.3711
 21
784.555
  0
LINE
  8
0
 10
27.3711
 20
784.555
 11
27.2107
 21
784.896
  0
LINE
  8
0
 10
27.2107
 20
784.896
 11
27.0942
 21
785.254
  0
LINE
  8
0
 10
27.0942
 20
785.254
 11
27.0237
 21
785.624
  0
LINE
  8
0
 10
27.0237
 20
785.624
 11
27
 21
786
  0
LINE
  8
0
 10
27
 20
786
 11
27.0237
 21
786.376
  0
LINE
  8
0
 10
27.0237
 20
786.376
 11
27.0942
 21
786.746
  0
LINE
  8
0
 10
27.0942
 20
786.746
 11
27.2107
 21
787.104
  0
LINE
  8
0
 10
27.2107
 20
787.104
 11
27.3711
 21
787.445
  0
LINE
  8
0
 10
27.3711
 20
787.445
 11
27.5729
 21
787.763
  0
LINE
  8
0
 10
27.5729
 20
787.763
 11
27.8131
 21
788.054
  0
LINE
  8
0
 10
27.8131
 20
788.054
 11
28.0877
 21
788.312
  0
LINE
  8
0
 10
28.0877
 20
788.312
 11
28.3925
 21
788.533
  0
LINE
  8
0
 10
28.3925
 20
788.533
 11
28.7227
 21
788.714
  0
LINE
  8
0
 10
28.7227
 20
788.714
 11
29.0729
 21
788.853
  0
LINE
  8
0
 10
29.0729
 20
788.853
 11
29.4379
 21
788.947
  0
LINE
  8
0
 10
29.4379
 20
788.947
 11
29.8116
 21
788.994
  0
LINE
  8
0
 10
29.8116
 20
788.994
 11
30.1884
 21
788.994
  0
LINE
  8
0
 10
30.1884
 20
788.994
 11
30.5621
 21
788.947
  0
LINE
  8
0
 10
30.5621
 20
788.947
 11
30.927
 21
788.853
  0
LINE
  8
0
 10
30.927
 20
788.853
 11
31.2773
 21
788.714
  0
LINE
  8
0
 10
31.2773
 20
788.714
 11
31.6075
 21
788.533
  0
LINE
  8
0
 10
31.6075
 20
788.533
 11
31.9123
 21
788.312
  0
LINE
  8
0
 10
31.9123
 20
788.312
 11
32.1869
 21
788.054
  0
LINE
  8
0
 10
32.1869
 20
788.054
 11
32.427
 21
787.763
  0
LINE
  8
0
 10
32.427
 20
787.763
 11
32.6289
 21
787.445
  0
LINE
  8
0
 10
32.6289
 20
787.445
 11
32.7893
 21
787.104
  0
LINE
  8
0
 10
32.7893
 20
787.104
 11
32.9057
 21
786.746
  0
LINE
  8
0
 10
32.9057
 20
786.746
 11
32.9763
 21
786.376
  0
LINE
  8
0
 10
32.9763
 20
786.376
 11
33
 21
786
  0
LINE
  8
0
 10
33
 20
786
 11
32.9763
 21
785.624
  0
LINE
  8
0
 10
32.9763
 20
785.624
 11
32.9057
 21
785.254
  0
LINE
  8
0
 10
32.9057
 20
785.254
 11
32.7893
 21
784.896
  0
LINE
  8
0
 10
32.7893
 20
784.896
 11
32.6289
 21
784.555
  0
LINE
  8
0
 10
32.6289
 20
784.555
 11
32.427
 21
784.237
  0
LINE
  8
0
 10
32.427
 20
784.237
 11
32.1869
 21
783.946
  0
LINE
  8
0
 10
32.1869
 20
783.946
 11
31.9123
 21
783.688
  0
LINE
  8
0
 10
31.9123
 20
783.688
 11
31.6075
 21
783.467
  0
LINE
  8
0
 10
31.6075
 20
783.467
 11
31.2773
 21
783.286
  0
LINE
  8
0
 10
31.2773
 20
783.286
 11
30.927
 21
783.147
  0
LINE
  8
0
 10
30.927
 20
783.147
 11
30.5621
 21
783.053
  0
LINE
  8
0
 10
30.5621
 20
783.053
 11
30.1884
 21
783.006
  0
LINE
  8
0
 10
30.1884
 20
783.006
 11
29.8116
 21
783.006
  0
LINE
  8
0
 10
-30.1884
 20
723.006
 11
-30.5621
 21
723.053
  0
LINE
  8
0
 10
-30.5621
 20
723.053
 11
-30.927
 21
723.147
  0
LINE
  8
0
 10
-30.927
 20
723.147
 11
-31.2773
 21
723.286
  0
LINE
  8
0
 10
-31.2773
 20
723.286
 11
-31.6075
 21
723.467
  0
LINE
  8
0
 10
-31.6075
 20
723.467
 11
-31.9123
 21
723.688
  0
LINE
  8
0
 10
-31.9123
 20
723.688
 11
-32.1869
 21
723.946
  0
LINE
  8
0
 10
-32.1869
 20
723.946
 11
-32.427
 21
724.237
  0
LINE
  8
0
 10
-32.427
 20
724.237
 11
-32.6289
 21
724.555
  0
LINE
  8
0
 10
-32.6289
 20
724.555
 11
-32.7893
 21
724.896
  0
LINE
  8
0
 10
-32.7893
 20
724.896
 11
-32.9057
 21
725.254
  0
LINE
  8
0
 10
-32.9057
 20
725.254
 11
-32.9763
 21
725.624
  0
LINE
  8
0
 10
-32.9763
 20
725.624
 11
-33
 21
726
  0
LINE
  8
0
 10
-33
 20
726
 11
-32.9763
 21
726.376
  0
LINE
  8
0
 10
-32.9763
 20
726.376
 11
-32.9057
 21
726.746
  0
LINE
  8
0
 10
-32.9057
 20
726.746
 11
-32.7893
 21
727.104
  0
LINE
  8
0
 10
-32.7893
 20
727.104
 11
-32.6289
 21
727.445
  0
LINE
  8
0
 10
-32.6289
 20
727.445
 11
-32.427
 21
727.763
  0
LINE
  8
0
 10
-32.427
 20
727.763
 11
-32.1869
 21
728.054
  0
LINE
  8
0
 10
-32.1869
 20
728.054
 11
-31.9123
 21
728.312
  0
LINE
  8
0
 10
-31.9123
 20
728.312
 11
-31.6075
 21
728.533
  0
LINE
  8
0
 10
-31.6075
 20
728.533
 11
-31.2773
 21
728.714
  0
LINE
  8
0
 10
-31.2773
 20
728.714
 11
-30.927
 21
728.853
  0
LINE
  8
0
 10
-30.927
 20
728.853
 11
-30.5621
 21
728.947
  0
LINE
  8
0
 10
-30.5621
 20
728.947
 11
-30.1884
 21
728.994
  0
LINE
  8
0
 10
-30.1884
 20
728.994
 11
-29.8116
 21
728.994
  0
LINE
  8
0
 10
-29.8116
 20
728.994
 11
-29.4379
 21
728.947
  0
LINE
  8
0
 10
-29.4379
 20
728.947
 11
-29.0729
 21
728.853
  0
LINE
  8
0
 10
-29.0729
 20
728.853
 11
-28.7227
 21
728.714
  0
LINE
  8
0
 10
-28.7227
 20
728.714
 11
-28.3925
 21
728.533
  0
LINE
  8
0
 10
-28.3925
 20
728.533
 11
-28.0877
 21
728.312
  0
LINE
  8
0
 10
-28.0877
 20
728.312
 11
-27.8131
 21
728.054
  0
LINE
  8
0
 10
-27.8131
 20
728.054
 11
-27.5729
 21
727.763
  0
LINE
  8
0
 10
-27.5729
 20
727.763
 11
-27.3711
 21
727.445
  0
LINE
  8
0
 10
-27.3711
 20
727.445
 11
-27.2107
 21
727.104
  0
LINE
  8
0
 10
-27.2107
 20
727.104
 11
-27.0942
 21
726.746
  0
LINE
  8
0
 10
-27.0942
 20
726.746
 11
-27.0237
 21
726.376
  0
LINE
  8
0
 10
-27.0237
 20
726.376
 11
-27
 21
726
  0
LINE
  8
0
 10
-27
 20
726
 11
-27.0237
 21
725.624
  0
LINE
  8
0
 10
-27.0237
 20
725.624
 11
-27.0942
 21
725.254
  0
LINE
  8
0
 10
-27.0942
 20
725.254
 11
-27.2107
 21
724.896
  0
LINE
  8
0
 10
-27.2107
 20
724.896
 11
-27.3711
 21
724.555
  0
LINE
  8
0
 10
-27.3711
 20
724.555
 11
-27.5729
 21
724.237
  0
LINE
  8
0
 10
-27.5729
 20
724.237
 11
-27.8131
 21
723.946
  0
LINE
  8
0
 10
-27.8131
 20
723.946
 11
-28.0877
 21
723.688
  0
LINE
  8
0
 10
-28.0877
 20
723.688
 11
-28.3925
 21
723.467
  0
LINE
  8
0
 10
-28.3925
 20
723.467
 11
-28.7227
 21
723.286
  0
LINE
  8
0
 10
-28.7227
 20
723.286
 11
-29.0729
 21
723.147
  0
LINE
  8
0
 10
-29.0729
 20
723.147
 11
-29.4379
 21
723.053
  0
LINE
  8
0
 10
-29.4379
 20
723.053
 11
-29.8116
 21
723.006
  0
LINE
  8
0
 10
-29.8116
 20
723.006
 11
-30.1884
 21
723.006
  0
LINE
  8
0
 10
29.8116
 20
723.006
 11
29.4379
 21
723.053
  0
LINE
  8
0
 10
29.4379
 20
723.053
 11
29.0729
 21
723.147
  0
LINE
  8
0
 10
29.0729
 20
723.147
 11
28.7227
 21
723.286
  0
LINE
  8
0
 10
28.7227
 20
723.286
 11
28.3925
 21
723.467
  0
LINE
  8
0
 10
28.3925
 20
723.467
 11
28.0877
 21
723.688
  0
LINE
  8
0
 10
28.0877
 20
723.688
 11
27.8131
 21
723.946
  0
LINE
  8
0
 10
27.8131
 20
723.946
 11
27.5729
 21
724.237
  0
LINE
  8
0
 10
27.5729
 20
724.237
 11
27.3711
 21
724.555
  0
LINE
  8
0
 10
27.3711
 20
724.555
 11
27.2107
 21
724.896
  0
LINE
  8
0
 10
27.2107
 20
724.896
 11
27.0942
 21
725.254
  0
LINE
  8
0
 10
27.0942
 20
725.254
 11
27.0237
 21
725.624
  0
LINE
  8
0
 10
27.0237
 20
725.624
 11
27
 21
726
  0
LINE
  8
0
 10
27
 20
726
 11
27.0237
 21
726.376
  0
LINE
  8
0
 10
27.0237
 20
726.376
 11
27.0942
 21
726.746
  0
LINE
  8
0
 10
27.0942
 20
726.746
 11
27.2107
 21
727.104
  0
LINE
  8
0
 10
27.2107
 20
727.104
 11
27.3711
 21
727.445
  0
LINE
  8
0
 10
27.3711
 20
727.445
 11
27.5729
 21
727.763
  0
LINE
  8
0
 10
27.5729
 20
727.763
 11
27.8131
 21
728.054
  0
LINE
  8
0
 10
27.8131
 20
728.054
 11
28.0877
 21
728.312
  0
LINE
  8
0
 10
28.0877
 20
728.312
 11
28.3925
 21
728.533
  0
LINE
  8
0
 10
28.3925
 20
728.533
 11
28.7227
 21
728.714
  0
LINE
  8
0
 10
28.7227
 20
728.714
 11
29.0729
 21
728.853
  0
LINE
  8
0
 10
29.0729
 20
728.853
 11
29.4379
 21
728.947
  0
LINE
  8
0
 10
29.4379
 20
728.947
 11
29.8116
 21
728.994
  0
LINE
  8
0
 10
29.8116
 20
728.994
 11
30.1884
 21
728.994
  0
LINE
  8
0
 10
30.1884
 20
728.994
 11
30.5621
 21
728.947
  0
LINE
  8
0
 10
30.5621
 20
728.947
 11
30.927
 21
728.853
  0
LINE
  8
0
 10
30.927
 20
728.853
 11
31.2773
 21
728.714
  0
LINE
  8
0
 10
31.2773
 20
728.714
 11
31.6075
 21
728.533
  0
LINE
  8
0
 10
31.6075
 20
728.533
 11
31.9123
 21
728.312
  0
LINE
  8
0
 10
31.9123
 20
728.312
 11
32.1869
 21
728.054
  0
LINE
  8
0
 10
32.1869
 20
728.054
 11
32.427
 21
727.763
  0
LINE
  8
0
 10
32.427
 20
727.763
 11
32.6289
 21
727.445
  0
LINE
  8
0
 10
32.6289
 20
727.445
 11
32.7893
 21
727.104
  0
LINE
  8
0
 10
32.7893
 20
727.104
 11
32.9057
 21
726.746
  0
LINE
  8
0
 10
32.9057
 20
726.746
 11
32.9763
 21
726.376
  0
LINE
  8
0
 10
32.9763
 20
726.376
 11
33
 21
726
  0
LINE
  8
0
 10
33
 20
726
 11
32.9763
 21
725.624
  0
LINE
  8
0
 10
32.9763
 20
725.624
 11
32.9057
 21
725.254
  0
LINE
  8
0
 10
32.9057
 20
725.254
 11
32.7893
 21
724.896
  0
LINE
  8
0
 10
32.7893
 20
724.896
 11
32.6289
 21
724.555
  0
LINE
  8
0
 10
32.6289
 20
724.555
 11
32.427
 21
724.237
  0
LINE
  8
0
 10
32.427
 20
724.237
 11
32.1869
 21
723.946
  0
LINE
  8
0
 10
32.1869
 20
723.946
 11
31.9123
 21
723.688
  0
LINE
  8
0
 10
31.9123
 20
723.688
 11
31.6075
 21
723.467
  0
LINE
  8
0
 10
31.6075
 20
723.467
 11
31.2773
 21
723.286
  0
LINE
  8
0
 10
31.2773
 20
723.286
 11
30.927
 21
723.147
  0
LINE
  8
0
 10
30.927
 20
723.147
 11
30.5621
 21
723.053
  0
LINE
  8
0
 10
30.5621
 20
723.053
 11
30.1884
 21
723.006
  0
LINE
  8
0
 10
30.1884
 20
723.006
 11
29.8116
 21
723.006
  0
LINE
  8
0
 10
32.9369
 20
635.089
 11
33.5451
 21
635.245
  0
LINE
  8
0
 10
33.5451
 20
635.245
 11
34.1289
 21
635.476
  0
LINE
  8
0
 10
34.1289
 20
635.476
 11
34.6791
 21
635.778
  0
LINE
  8
0
 10
34.6791
 20
635.778
 11
35.1871
 21
636.147
  0
LINE
  8
0
 10
35.1871
 20
636.147
 11
35.6448
 21
636.577
  0
LINE
  8
0
 10
35.6448
 20
636.577
 11
36.0451
 21
637.061
  0
LINE
  8
0
 10
36.0451
 20
637.061
 11
36.3815
 21
637.591
  0
LINE
  8
0
 10
36.3815
 20
637.591
 11
36.6489
 21
638.159
  0
LINE
  8
0
 10
36.6489
 20
638.159
 11
36.8429
 21
638.757
  0
LINE
  8
0
 10
36.8429
 20
638.757
 11
36.9606
 21
639.373
  0
LINE
  8
0
 10
36.9606
 20
639.373
 11
37
 21
640
  0
LINE
  8
0
 10
37
 20
640
 11
37
 21
704
  0
LINE
  8
0
 10
37
 20
704
 11
36.9606
 21
704.627
  0
LINE
  8
0
 10
36.9606
 20
704.627
 11
36.8429
 21
705.243
  0
LINE
  8
0
 10
36.8429
 20
705.243
 11
36.6489
 21
705.841
  0
LINE
  8
0
 10
36.6489
 20
705.841
 11
36.3815
 21
706.409
  0
LINE
  8
0
 10
36.3815
 20
706.409
 11
36.0451
 21
706.939
  0
LINE
  8
0
 10
36.0451
 20
706.939
 11
35.6448
 21
707.423
  0
LINE
  8
0
 10
35.6448
 20
707.423
 11
35.1871
 21
707.853
  0
LINE
  8
0
 10
35.1871
 20
707.853
 11
34.6791
 21
708.222
  0
LINE
  8
0
 10
34.6791
 20
708.222
 11
34.1289
 21
708.524
  0
LINE
  8
0
 10
34.1289
 20
708.524
 11
33.5451
 21
708.755
  0
LINE
  8
0
 10
33.5451
 20
708.755
 11
32.9369
 21
708.911
  0
LINE
  8
0
 10
32.9369
 20
708.911
 11
32.3139
 21
708.99
  0
LINE
  8
0
 10
32.3139
 20
708.99
 11
-32.3139
 21
708.99
  0
LINE
  8
0
 10
-32.3139
 20
708.99
 11
-32.9369
 21
708.911
  0
LINE
  8
0
 10
-32.9369
 20
708.911
 11
-33.5451
 21
708.755
  0
LINE
  8
0
 10
-33.5451
 20
708.755
 11
-34.1289
 21
708.524
  0
LINE
  8
0
 10
-34.1289
 20
708.524
 11
-34.6791
 21
708.222
  0
LINE
  8
0
 10
-34.6791
 20
708.222
 11
-35.1871
 21
707.853
  0
LINE
  8
0
 10
-35.1871
 20
707.853
 11
-35.6448
 21
707.423
  0
LINE
  8
0
 10
-35.6448
 20
707.423
 11
-36.0451
 21
706.939
  0
LINE
  8
0
 10
-36.0451
 20
706.939
 11
-36.3815
 21
706.409
  0
LINE
  8
0
 10
-36.3815
 20
706.409
 11
-36.6489
 21
705.841
  0
LINE
  8
0
 10
-36.6489
 20
705.841
 11
-36.8429
 21
705.243
  0
LINE
  8
0
 10
-36.8429
 20
705.243
 11
-36.9606
 21
704.627
  0
LINE
  8
0
 10
-36.9606
 20
704.627
 11
-37
 21
704
  0
LINE
  8
0
 10
-37
 20
704
 11
-37
 21
640
  0
LINE
  8
0
 10
-37
 20
640
 11
-36.9606
 21
639.373
  0
LINE
  8
0
 10
-36.9606
 20
639.373
 11
-36.8429
 21
638.757
  0
LINE
  8
0
 10
-36.8429
 20
638.757
 11
-36.6489
 21
638.159
  0
LINE
  8
0
 10
-36.6489
 20
638.159
 11
-36.3815
 21
637.591
  0
LINE
  8
0
 10
-36.3815
 20
637.591
 11
-36.0451
 21
637.061
  0
LINE
  8
0
 10
-36.0451
 20
637.061
 11
-35.6448
 21
636.577
  0
LINE
  8
0
 10
-35.6448
 20
636.577
 11
-35.1871
 21
636.147
  0
LINE
  8
0
 10
-35.1871
 20
636.147
 11
-34.6791
 21
635.778
  0
LINE
  8
0
 10
-34.6791
 20
635.778
 11
-34.1289
 21
635.476
  0
LINE
  8
0
 10
-34.1289
 20
635.476
 11
-33.5451
 21
635.245
  0
LINE
  8
0
 10
-33.5451
 20
635.245
 11
-32.9369
 21
635.089
  0
LINE
  8
0
 10
-32.9369
 20
635.089
 11
-32.3139
 21
635.01
  0
LINE
  8
0
 10
-32.3139
 20
635.01
 11
32.3139
 21
635.01
  0
LINE
  8
0
 10
32.3139
 20
635.01
 11
32.9369
 21
635.089
  0
LINE
  8
0
 10
-30.1884
 20
699.006
 11
-30.5621
 21
699.053
  0
LINE
  8
0
 10
-30.5621
 20
699.053
 11
-30.927
 21
699.147
  0
LINE
  8
0
 10
-30.927
 20
699.147
 11
-31.2773
 21
699.286
  0
LINE
  8
0
 10
-31.2773
 20
699.286
 11
-31.6075
 21
699.467
  0
LINE
  8
0
 10
-31.6075
 20
699.467
 11
-31.9123
 21
699.688
  0
LINE
  8
0
 10
-31.9123
 20
699.688
 11
-32.1869
 21
699.946
  0
LINE
  8
0
 10
-32.1869
 20
699.946
 11
-32.427
 21
700.237
  0
LINE
  8
0
 10
-32.427
 20
700.237
 11
-32.6289
 21
700.555
  0
LINE
  8
0
 10
-32.6289
 20
700.555
 11
-32.7893
 21
700.896
  0
LINE
  8
0
 10
-32.7893
 20
700.896
 11
-32.9057
 21
701.254
  0
LINE
  8
0
 10
-32.9057
 20
701.254
 11
-32.9763
 21
701.624
  0
LINE
  8
0
 10
-32.9763
 20
701.624
 11
-33
 21
702
  0
LINE
  8
0
 10
-33
 20
702
 11
-32.9763
 21
702.376
  0
LINE
  8
0
 10
-32.9763
 20
702.376
 11
-32.9057
 21
702.746
  0
LINE
  8
0
 10
-32.9057
 20
702.746
 11
-32.7893
 21
703.104
  0
LINE
  8
0
 10
-32.7893
 20
703.104
 11
-32.6289
 21
703.445
  0
LINE
  8
0
 10
-32.6289
 20
703.445
 11
-32.427
 21
703.763
  0
LINE
  8
0
 10
-32.427
 20
703.763
 11
-32.1869
 21
704.054
  0
LINE
  8
0
 10
-32.1869
 20
704.054
 11
-31.9123
 21
704.312
  0
LINE
  8
0
 10
-31.9123
 20
704.312
 11
-31.6075
 21
704.533
  0
LINE
  8
0
 10
-31.6075
 20
704.533
 11
-31.2773
 21
704.714
  0
LINE
  8
0
 10
-31.2773
 20
704.714
 11
-30.927
 21
704.853
  0
LINE
  8
0
 10
-30.927
 20
704.853
 11
-30.5621
 21
704.947
  0
LINE
  8
0
 10
-30.5621
 20
704.947
 11
-30.1884
 21
704.994
  0
LINE
  8
0
 10
-30.1884
 20
704.994
 11
-29.8116
 21
704.994
  0
LINE
  8
0
 10
-29.8116
 20
704.994
 11
-29.4379
 21
704.947
  0
LINE
  8
0
 10
-29.4379
 20
704.947
 11
-29.0729
 21
704.853
  0
LINE
  8
0
 10
-29.0729
 20
704.853
 11
-28.7227
 21
704.714
  0
LINE
  8
0
 10
-28.7227
 20
704.714
 11
-28.3925
 21
704.533
  0
LINE
  8
0
 10
-28.3925
 20
704.533
 11
-28.0877
 21
704.312
  0
LINE
  8
0
 10
-28.0877
 20
704.312
 11
-27.8131
 21
704.054
  0
LINE
  8
0
 10
-27.8131
 20
704.054
 11
-27.5729
 21
703.763
  0
LINE
  8
0
 10
-27.5729
 20
703.763
 11
-27.3711
 21
703.445
  0
LINE
  8
0
 10
-27.3711
 20
703.445
 11
-27.2107
 21
703.104
  0
LINE
  8
0
 10
-27.2107
 20
703.104
 11
-27.0942
 21
702.746
  0
LINE
  8
0
 10
-27.0942
 20
702.746
 11
-27.0237
 21
702.376
  0
LINE
  8
0
 10
-27.0237
 20
702.376
 11
-27
 21
702
  0
LINE
  8
0
 10
-27
 20
702
 11
-27.0237
 21
701.624
  0
LINE
  8
0
 10
-27.0237
 20
701.624
 11
-27.0942
 21
701.254
  0
LINE
  8
0
 10
-27.0942
 20
701.254
 11
-27.2107
 21
700.896
  0
LINE
  8
0
 10
-27.2107
 20
700.896
 11
-27.3711
 21
700.555
  0
LINE
  8
0
 10
-27.3711
 20
700.555
 11
-27.5729
 21
700.237
  0
LINE
  8
0
 10
-27.5729
 20
700.237
 11
-27.8131
 21
699.946
  0
LINE
  8
0
 10
-27.8131
 20
699.946
 11
-28.0877
 21
699.688
  0
LINE
  8
0
 10
-28.0877
 20
699.688
 11
-28.3925
 21
699.467
  0
LINE
  8
0
 10
-28.3925
 20
699.467
 11
-28.7227
 21
699.286
  0
LINE
  8
0
 10
-28.7227
 20
699.286
 11
-29.0729
 21
699.147
  0
LINE
  8
0
 10
-29.0729
 20
699.147
 11
-29.4379
 21
699.053
  0
LINE
  8
0
 10
-29.4379
 20
699.053
 11
-29.8116
 21
699.006
  0
LINE
  8
0
 10
-29.8116
 20
699.006
 11
-30.1884
 21
699.006
  0
LINE
  8
0
 10
29.8116
 20
699.006
 11
29.4379
 21
699.053
  0
LINE
  8
0
 10
29.4379
 20
699.053
 11
29.0729
 21
699.147
  0
LINE
  8
0
 10
29.0729
 20
699.147
 11
28.7227
 21
699.286
  0
LINE
  8
0
 10
28.7227
 20
699.286
 11
28.3925
 21
699.467
  0
LINE
  8
0
 10
28.3925
 20
699.467
 11
28.0877
 21
699.688
  0
LINE
  8
0
 10
28.0877
 20
699.688
 11
27.8131
 21
699.946
  0
LINE
  8
0
 10
27.8131
 20
699.946
 11
27.5729
 21
700.237
  0
LINE
  8
0
 10
27.5729
 20
700.237
 11
27.3711
 21
700.555
  0
LINE
  8
0
 10
27.3711
 20
700.555
 11
27.2107
 21
700.896
  0
LINE
  8
0
 10
27.2107
 20
700.896
 11
27.0942
 21
701.254
  0
LINE
  8
0
 10
27.0942
 20
701.254
 11
27.0237
 21
701.624
  0
LINE
  8
0
 10
27.0237
 20
701.624
 11
27
 21
702
  0
LINE
  8
0
 10
27
 20
702
 11
27.0237
 21
702.376
  0
LINE
  8
0
 10
27.0237
 20
702.376
 11
27.0942
 21
702.746
  0
LINE
  8
0
 10
27.0942
 20
702.746
 11
27.2107
 21
703.104
  0
LINE
  8
0
 10
27.2107
 20
703.104
 11
27.3711
 21
703.445
  0
LINE
  8
0
 10
27.3711
 20
703.445
 11
27.5729
 21
703.763
  0
LINE
  8
0
 10
27.5729
 20
703.763
 11
27.8131
 21
704.054
  0
LINE
  8
0
 10
27.8131
 20
704.054
 11
28.0877
 21
704.312
  0
LINE
  8
0
 10
28.0877
 20
704.312
 11
28.3925
 21
704.533
  0
LINE
  8
0
 10
28.3925
 20
704.533
 11
28.7227
 21
704.714
  0
LINE
  8
0
 10
28.7227
 20
704.714
 11
29.0729
 21
704.853
  0
LINE
  8
0
 10
29.0729
 20
704.853
 11
29.4379
 21
704.947
  0
LINE
  8
0
 10
29.4379
 20
704.947
 11
29.8116
 21
704.994
  0
LINE
  8
0
 10
29.8116
 20
704.994
 11
30.1884
 21
704.994
  0
LINE
  8
0
 10
30.1884
 20
704.994
 11
30.5621
 21
704.947
  0
LINE
  8
0
 10
30.5621
 20
704.947
 11
30.927
 21
704.853
  0
LINE
  8
0
 10
30.927
 20
704.853
 11
31.2773
 21
704.714
  0
LINE
  8
0
 10
31.2773
 20
704.714
 11
31.6075
 21
704.533
  0
LINE
  8
0
 10
31.6075
 20
704.533
 11
31.9123
 21
704.312
  0
LINE
  8
0
 10
31.9123
 20
704.312
 11
32.1869
 21
704.054
  0
LINE
  8
0
 10
32.1869
 20
704.054
 11
32.427
 21
703.763
  0
LINE
  8
0
 10
32.427
 20
703.763
 11
32.6289
 21
703.445
  0
LINE
  8
0
 10
32.6289
 20
703.445
 11
32.7893
 21
703.104
  0
LINE
  8
0
 10
32.7893
 20
703.104
 11
32.9057
 21
702.746
  0
LINE
  8
0
 10
32.9057
 20
702.746
 11
32.9763
 21
702.376
  0
LINE
  8
0
 10
32.9763
 20
702.376
 11
33
 21
702
  0
LINE
  8
0
 10
33
 20
702
 11
32.9763
 21
701.624
  0
LINE
  8
0
 10
32.9763
 20
701.624
 11
32.9057
 21
701.254
  0
LINE
  8
0
 10
32.9057
 20
701.254
 11
32.7893
 21
700.896
  0
LINE
  8
0
 10
32.7893
 20
700.896
 11
32.6289
 21
700.555
  0
LINE
  8
0
 10
32.6289
 20
700.555
 11
32.427
 21
700.237
  0
LINE
  8
0
 10
32.427
 20
700.237
 11
32.1869
 21
699.946
  0
LINE
  8
0
 10
32.1869
 20
699.946
 11
31.9123
 21
699.688
  0
LINE
  8
0
 10
31.9123
 20
699.688
 11
31.6075
 21
699.467
  0
LINE
  8
0
 10
31.6075
 20
699.467
 11
31.2773
 21
699.286
  0
LINE
  8
0
 10
31.2773
 20
699.286
 11
30.927
 21
699.147
  0
LINE
  8
0
 10
30.927
 20
699.147
 11
30.5621
 21
699.053
  0
LINE
  8
0
 10
30.5621
 20
699.053
 11
30.1884
 21
699.006
  0
LINE
  8
0
 10
30.1884
 20
699.006
 11
29.8116
 21
699.006
  0
LINE
  8
0
 10
-30.1884
 20
639.006
 11
-30.5621
 21
639.053
  0
LINE
  8
0
 10
-30.5621
 20
639.053
 11
-30.927
 21
639.147
  0
LINE
  8
0
 10
-30.927
 20
639.147
 11
-31.2773
 21
639.286
  0
LINE
  8
0
 10
-31.2773
 20
639.286
 11
-31.6075
 21
639.467
  0
LINE
  8
0
 10
-31.6075
 20
639.467
 11
-31.9123
 21
639.688
  0
LINE
  8
0
 10
-31.9123
 20
639.688
 11
-32.1869
 21
639.946
  0
LINE
  8
0
 10
-32.1869
 20
639.946
 11
-32.427
 21
640.237
  0
LINE
  8
0
 10
-32.427
 20
640.237
 11
-32.6289
 21
640.555
  0
LINE
  8
0
 10
-32.6289
 20
640.555
 11
-32.7893
 21
640.896
  0
LINE
  8
0
 10
-32.7893
 20
640.896
 11
-32.9057
 21
641.254
  0
LINE
  8
0
 10
-32.9057
 20
641.254
 11
-32.9763
 21
641.624
  0
LINE
  8
0
 10
-32.9763
 20
641.624
 11
-33
 21
642
  0
LINE
  8
0
 10
-33
 20
642
 11
-32.9763
 21
642.376
  0
LINE
  8
0
 10
-32.9763
 20
642.376
 11
-32.9057
 21
642.746
  0
LINE
  8
0
 10
-32.9057
 20
642.746
 11
-32.7893
 21
643.104
  0
LINE
  8
0
 10
-32.7893
 20
643.104
 11
-32.6289
 21
643.445
  0
LINE
  8
0
 10
-32.6289
 20
643.445
 11
-32.427
 21
643.763
  0
LINE
  8
0
 10
-32.427
 20
643.763
 11
-32.1869
 21
644.054
  0
LINE
  8
0
 10
-32.1869
 20
644.054
 11
-31.9123
 21
644.312
  0
LINE
  8
0
 10
-31.9123
 20
644.312
 11
-31.6075
 21
644.533
  0
LINE
  8
0
 10
-31.6075
 20
644.533
 11
-31.2773
 21
644.714
  0
LINE
  8
0
 10
-31.2773
 20
644.714
 11
-30.927
 21
644.853
  0
LINE
  8
0
 10
-30.927
 20
644.853
 11
-30.5621
 21
644.947
  0
LINE
  8
0
 10
-30.5621
 20
644.947
 11
-30.1884
 21
644.994
  0
LINE
  8
0
 10
-30.1884
 20
644.994
 11
-29.8116
 21
644.994
  0
LINE
  8
0
 10
-29.8116
 20
644.994
 11
-29.4379
 21
644.947
  0
LINE
  8
0
 10
-29.4379
 20
644.947
 11
-29.0729
 21
644.853
  0
LINE
  8
0
 10
-29.0729
 20
644.853
 11
-28.7227
 21
644.714
  0
LINE
  8
0
 10
-28.7227
 20
644.714
 11
-28.3925
 21
644.533
  0
LINE
  8
0
 10
-28.3925
 20
644.533
 11
-28.0877
 21
644.312
  0
LINE
  8
0
 10
-28.0877
 20
644.312
 11
-27.8131
 21
644.054
  0
LINE
  8
0
 10
-27.8131
 20
644.054
 11
-27.5729
 21
643.763
  0
LINE
  8
0
 10
-27.5729
 20
643.763
 11
-27.3711
 21
643.445
  0
LINE
  8
0
 10
-27.3711
 20
643.445
 11
-27.2107
 21
643.104
  0
LINE
  8
0
 10
-27.2107
 20
643.104
 11
-27.0942
 21
642.746
  0
LINE
  8
0
 10
-27.0942
 20
642.746
 11
-27.0237
 21
642.376
  0
LINE
  8
0
 10
-27.0237
 20
642.376
 11
-27
 21
642
  0
LINE
  8
0
 10
-27
 20
642
 11
-27.0237
 21
641.624
  0
LINE
  8
0
 10
-27.0237
 20
641.624
 11
-27.0942
 21
641.254
  0
LINE
  8
0
 10
-27.0942
 20
641.254
 11
-27.2107
 21
640.896
  0
LINE
  8
0
 10
-27.2107
 20
640.896
 11
-27.3711
 21
640.555
  0
LINE
  8
0
 10
-27.3711
 20
640.555
 11
-27.5729
 21
640.237
  0
LINE
  8
0
 10
-27.5729
 20
640.237
 11
-27.8131
 21
639.946
  0
LINE
  8
0
 10
-27.8131
 20
639.946
 11
-28.0877
 21
639.688
  0
LINE
  8
0
 10
-28.0877
 20
639.688
 11
-28.3925
 21
639.467
  0
LINE
  8
0
 10
-28.3925
 20
639.467
 11
-28.7227
 21
639.286
  0
LINE
  8
0
 10
-28.7227
 20
639.286
 11
-29.0729
 21
639.147
  0
LINE
  8
0
 10
-29.0729
 20
639.147
 11
-29.4379
 21
639.053
  0
LINE
  8
0
 10
-29.4379
 20
639.053
 11
-29.8116
 21
639.006
  0
LINE
  8
0
 10
-29.8116
 20
639.006
 11
-30.1884
 21
639.006
  0
LINE
  8
0
 10
29.8116
 20
639.006
 11
29.4379
 21
639.053
  0
LINE
  8
0
 10
29.4379
 20
639.053
 11
29.0729
 21
639.147
  0
LINE
  8
0
 10
29.0729
 20
639.147
 11
28.7227
 21
639.286
  0
LINE
  8
0
 10
28.7227
 20
639.286
 11
28.3925
 21
639.467
  0
LINE
  8
0
 10
28.3925
 20
639.467
 11
28.0877
 21
639.688
  0
LINE
  8
0
 10
28.0877
 20
639.688
 11
27.8131
 21
639.946
  0
LINE
  8
0
 10
27.8131
 20
639.946
 11
27.5729
 21
640.237
  0
LINE
  8
0
 10
27.5729
 20
640.237
 11
27.3711
 21
640.555
  0
LINE
  8
0
 10
27.3711
 20
640.555
 11
27.2107
 21
640.896
  0
LINE
  8
0
 10
27.2107
 20
640.896
 11
27.0942
 21
641.254
  0
LINE
  8
0
 10
27.0942
 20
641.254
 11
27.0237
 21
641.624
  0
LINE
  8
0
 10
27.0237
 20
641.624
 11
27
 21
642
  0
LINE
  8
0
 10
27
 20
642
 11
27.0237
 21
642.376
  0
LINE
  8
0
 10
27.0237
 20
642.376
 11
27.0942
 21
642.746
  0
LINE
  8
0
 10
27.0942
 20
642.746
 11
27.2107
 21
643.104
  0
LINE
  8
0
 10
27.2107
 20
643.104
 11
27.3711
 21
643.445
  0
LINE
  8
0
 10
27.3711
 20
643.445
 11
27.5729
 21
643.763
  0
LINE
  8
0
 10
27.5729
 20
643.763
 11
27.8131
 21
644.054
  0
LINE
  8
0
 10
27.8131
 20
644.054
 11
28.0877
 21
644.312
  0
LINE
  8
0
 10
28.0877
 20
644.312
 11
28.3925
 21
644.533
  0
LINE
  8
0
 10
28.3925
 20
644.533
 11
28.7227
 21
644.714
  0
LINE
  8
0
 10
28.7227
 20
644.714
 11
29.0729
 21
644.853
  0
LINE
  8
0
 10
29.0729
 20
644.853
 11
29.4379
 21
644.947
  0
LINE
  8
0
 10
29.4379
 20
644.947
 11
29.8116
 21
644.994
  0
LINE
  8
0
 10
29.8116
 20
644.994
 11
30.1884
 21
644.994
  0
LINE
  8
0
 10
30.1884
 20
644.994
 11
30.5621
 21
644.947
  0
LINE
  8
0
 10
30.5621
 20
644.947
 11
30.927
 21
644.853
  0
LINE
  8
0
 10
30.927
 20
644.853
 11
31.2773
 21
644.714
  0
LINE
  8
0
 10
31.2773
 20
644.714
 11
31.6075
 21
644.533
  0
LINE
  8
0
 10
31.6075
 20
644.533
 11
31.9123
 21
644.312
  0
LINE
  8
0
 10
31.9123
 20
644.312
 11
32.1869
 21
644.054
  0
LINE
  8
0
 10
32.1869
 20
644.054
 11
32.427
 21
643.763
  0
LINE
  8
0
 10
32.427
 20
643.763
 11
32.6289
 21
643.445
  0
LINE
  8
0
 10
32.6289
 20
643.445
 11
32.7893
 21
643.104
  0
LINE
  8
0
 10
32.7893
 20
643.104
 11
32.9057
 21
642.746
  0
LINE
  8
0
 10
32.9057
 20
642.746
 11
32.9763
 21
642.376
  0
LINE
  8
0
 10
32.9763
 20
642.376
 11
33
 21
642
  0
LINE
  8
0
 10
33
 20
642
 11
32.9763
 21
641.624
  0
LINE
  8
0
 10
32.9763
 20
641.624
 11
32.9057
 21
641.254
  0
LINE
  8
0
 10
32.9057
 20
641.254
 11
32.7893
 21
640.896
  0
LINE
  8
0
 10
32.7893
 20
640.896
 11
32.6289
 21
640.555
  0
LINE
  8
0
 10
32.6289
 20
640.555
 11
32.427
 21
640.237
  0
LINE
  8
0
 10
32.427
 20
640.237
 11
32.1869
 21
639.946
  0
LINE
  8
0
 10
32.1869
 20
639.946
 11
31.9123
 21
639.688
  0
LINE
  8
0
 10
31.9123
 20
639.688
 11
31.6075
 21
639.467
  0
LINE
  8
0
 10
31.6075
 20
639.467
 11
31.2773
 21
639.286
  0
LINE
  8
0
 10
31.2773
 20
639.286
 11
30.927
 21
639.147
  0
LINE
  8
0
 10
30.927
 20
639.147
 11
30.5621
 21
639.053
  0
LINE
  8
0
 10
30.5621
 20
639.053
 11
30.1884
 21
639.006
  0
LINE
  8
0
 10
30.1884
 20
639.006
 11
29.8116
 21
639.006
  0
LINE
  8
0
 10
32.9369
 20
551.089
 11
33.5451
 21
551.245
  0
LINE
  8
0
 10
33.5451
 20
551.245
 11
34.1289
 21
551.476
  0
LINE
  8
0
 10
34.1289
 20
551.476
 11
34.6791
 21
551.778
  0
LINE
  8
0
 10
34.6791
 20
551.778
 11
35.1871
 21
552.147
  0
LINE
  8
0
 10
35.1871
 20
552.147
 11
35.6448
 21
552.577
  0
LINE
  8
0
 10
35.6448
 20
552.577
 11
36.0451
 21
553.061
  0
LINE
  8
0
 10
36.0451
 20
553.061
 11
36.3815
 21
553.591
  0
LINE
  8
0
 10
36.3815
 20
553.591
 11
36.6489
 21
554.159
  0
LINE
  8
0
 10
36.6489
 20
554.159
 11
36.8429
 21
554.757
  0
LINE
  8
0
 10
36.8429
 20
554.757
 11
36.9606
 21
555.373
  0
LINE
  8
0
 10
36.9606
 20
555.373
 11
37
 21
556
  0
LINE
  8
0
 10
37
 20
556
 11
37
 21
620
  0
LINE
  8
0
 10
37
 20
620
 11
36.9606
 21
620.627
  0
LINE
  8
0
 10
36.9606
 20
620.627
 11
36.8429
 21
621.243
  0
LINE
  8
0
 10
36.8429
 20
621.243
 11
36.6489
 21
621.841
  0
LINE
  8
0
 10
36.6489
 20
621.841
 11
36.3815
 21
622.409
  0
LINE
  8
0
 10
36.3815
 20
622.409
 11
36.0451
 21
622.939
  0
LINE
  8
0
 10
36.0451
 20
622.939
 11
35.6448
 21
623.423
  0
LINE
  8
0
 10
35.6448
 20
623.423
 11
35.1871
 21
623.853
  0
LINE
  8
0
 10
35.1871
 20
623.853
 11
34.6791
 21
624.222
  0
LINE
  8
0
 10
34.6791
 20
624.222
 11
34.1289
 21
624.524
  0
LINE
  8
0
 10
34.1289
 20
624.524
 11
33.5451
 21
624.755
  0
LINE
  8
0
 10
33.5451
 20
624.755
 11
32.9369
 21
624.911
  0
LINE
  8
0
 10
32.9369
 20
624.911
 11
32.3139
 21
624.99
  0
LINE
  8
0
 10
32.3139
 20
624.99
 11
-32.3139
 21
624.99
  0
LINE
  8
0
 10
-32.3139
 20
624.99
 11
-32.9369
 21
624.911
  0
LINE
  8
0
 10
-32.9369
 20
624.911
 11
-33.5451
 21
624.755
  0
LINE
  8
0
 10
-33.5451
 20
624.755
 11
-34.1289
 21
624.524
  0
LINE
  8
0
 10
-34.1289
 20
624.524
 11
-34.6791
 21
624.222
  0
LINE
  8
0
 10
-34.6791
 20
624.222
 11
-35.1871
 21
623.853
  0
LINE
  8
0
 10
-35.1871
 20
623.853
 11
-35.6448
 21
623.423
  0
LINE
  8
0
 10
-35.6448
 20
623.423
 11
-36.0451
 21
622.939
  0
LINE
  8
0
 10
-36.0451
 20
622.939
 11
-36.3815
 21
622.409
  0
LINE
  8
0
 10
-36.3815
 20
622.409
 11
-36.6489
 21
621.841
  0
LINE
  8
0
 10
-36.6489
 20
621.841
 11
-36.8429
 21
621.243
  0
LINE
  8
0
 10
-36.8429
 20
621.243
 11
-36.9606
 21
620.627
  0
LINE
  8
0
 10
-36.9606
 20
620.627
 11
-37
 21
620
  0
LINE
  8
0
 10
-37
 20
620
 11
-37
 21
556
  0
LINE
  8
0
 10
-37
 20
556
 11
-36.9606
 21
555.373
  0
LINE
  8
0
 10
-36.9606
 20
555.373
 11
-36.8429
 21
554.757
  0
LINE
  8
0
 10
-36.8429
 20
554.757
 11
-36.6489
 21
554.159
  0
LINE
  8
0
 10
-36.6489
 20
554.159
 11
-36.3815
 21
553.591
  0
LINE
  8
0
 10
-36.3815
 20
553.591
 11
-36.0451
 21
553.061
  0
LINE
  8
0
 10
-36.0451
 20
553.061
 11
-35.6448
 21
552.577
  0
LINE
  8
0
 10
-35.6448
 20
552.577
 11
-35.1871
 21
552.147
  0
LINE
  8
0
 10
-35.1871
 20
552.147
 11
-34.6791
 21
551.778
  0
LINE
  8
0
 10
-34.6791
 20
551.778
 11
-34.1289
 21
551.476
  0
LINE
  8
0
 10
-34.1289
 20
551.476
 11
-33.5451
 21
551.245
  0
LINE
  8
0
 10
-33.5451
 20
551.245
 11
-32.9369
 21
551.089
  0
LINE
  8
0
 10
-32.9369
 20
551.089
 11
-32.3139
 21
551.01
  0
LINE
  8
0
 10
-32.3139
 20
551.01
 11
32.3139
 21
551.01
  0
LINE
  8
0
 10
32.3139
 20
551.01
 11
32.9369
 21
551.089
  0
LINE
  8
0
 10
29.8116
 20
615.006
 11
29.4379
 21
615.053
  0
LINE
  8
0
 10
29.4379
 20
615.053
 11
29.0729
 21
615.147
  0
LINE
  8
0
 10
29.0729
 20
615.147
 11
28.7227
 21
615.286
  0
LINE
  8
0
 10
28.7227
 20
615.286
 11
28.3925
 21
615.467
  0
LINE
  8
0
 10
28.3925
 20
615.467
 11
28.0877
 21
615.688
  0
LINE
  8
0
 10
28.0877
 20
615.688
 11
27.8131
 21
615.946
  0
LINE
  8
0
 10
27.8131
 20
615.946
 11
27.5729
 21
616.237
  0
LINE
  8
0
 10
27.5729
 20
616.237
 11
27.3711
 21
616.555
  0
LINE
  8
0
 10
27.3711
 20
616.555
 11
27.2107
 21
616.896
  0
LINE
  8
0
 10
27.2107
 20
616.896
 11
27.0942
 21
617.254
  0
LINE
  8
0
 10
27.0942
 20
617.254
 11
27.0237
 21
617.624
  0
LINE
  8
0
 10
27.0237
 20
617.624
 11
27
 21
618
  0
LINE
  8
0
 10
27
 20
618
 11
27.0237
 21
618.376
  0
LINE
  8
0
 10
27.0237
 20
618.376
 11
27.0942
 21
618.746
  0
LINE
  8
0
 10
27.0942
 20
618.746
 11
27.2107
 21
619.104
  0
LINE
  8
0
 10
27.2107
 20
619.104
 11
27.3711
 21
619.445
  0
LINE
  8
0
 10
27.3711
 20
619.445
 11
27.5729
 21
619.763
  0
LINE
  8
0
 10
27.5729
 20
619.763
 11
27.8131
 21
620.054
  0
LINE
  8
0
 10
27.8131
 20
620.054
 11
28.0877
 21
620.312
  0
LINE
  8
0
 10
28.0877
 20
620.312
 11
28.3925
 21
620.533
  0
LINE
  8
0
 10
28.3925
 20
620.533
 11
28.7227
 21
620.714
  0
LINE
  8
0
 10
28.7227
 20
620.714
 11
29.0729
 21
620.853
  0
LINE
  8
0
 10
29.0729
 20
620.853
 11
29.4379
 21
620.947
  0
LINE
  8
0
 10
29.4379
 20
620.947
 11
29.8116
 21
620.994
  0
LINE
  8
0
 10
29.8116
 20
620.994
 11
30.1884
 21
620.994
  0
LINE
  8
0
 10
30.1884
 20
620.994
 11
30.5621
 21
620.947
  0
LINE
  8
0
 10
30.5621
 20
620.947
 11
30.927
 21
620.853
  0
LINE
  8
0
 10
30.927
 20
620.853
 11
31.2773
 21
620.714
  0
LINE
  8
0
 10
31.2773
 20
620.714
 11
31.6075
 21
620.533
  0
LINE
  8
0
 10
31.6075
 20
620.533
 11
31.9123
 21
620.312
  0
LINE
  8
0
 10
31.9123
 20
620.312
 11
32.1869
 21
620.054
  0
LINE
  8
0
 10
32.1869
 20
620.054
 11
32.427
 21
619.763
  0
LINE
  8
0
 10
32.427
 20
619.763
 11
32.6289
 21
619.445
  0
LINE
  8
0
 10
32.6289
 20
619.445
 11
32.7893
 21
619.104
  0
LINE
  8
0
 10
32.7893
 20
619.104
 11
32.9057
 21
618.746
  0
LINE
  8
0
 10
32.9057
 20
618.746
 11
32.9763
 21
618.376
  0
LINE
  8
0
 10
32.9763
 20
618.376
 11
33
 21
618
  0
LINE
  8
0
 10
33
 20
618
 11
32.9763
 21
617.624
  0
LINE
  8
0
 10
32.9763
 20
617.624
 11
32.9057
 21
617.254
  0
LINE
  8
0
 10
32.9057
 20
617.254
 11
32.7893
 21
616.896
  0
LINE
  8
0
 10
32.7893
 20
616.896
 11
32.6289
 21
616.555
  0
LINE
  8
0
 10
32.6289
 20
616.555
 11
32.427
 21
616.237
  0
LINE
  8
0
 10
32.427
 20
616.237
 11
32.1869
 21
615.946
  0
LINE
  8
0
 10
32.1869
 20
615.946
 11
31.9123
 21
615.688
  0
LINE
  8
0
 10
31.9123
 20
615.688
 11
31.6075
 21
615.467
  0
LINE
  8
0
 10
31.6075
 20
615.467
 11
31.2773
 21
615.286
  0
LINE
  8
0
 10
31.2773
 20
615.286
 11
30.927
 21
615.147
  0
LINE
  8
0
 10
30.927
 20
615.147
 11
30.5621
 21
615.053
  0
LINE
  8
0
 10
30.5621
 20
615.053
 11
30.1884
 21
615.006
  0
LINE
  8
0
 10
30.1884
 20
615.006
 11
29.8116
 21
615.006
  0
LINE
  8
0
 10
-30.1884
 20
615.006
 11
-30.5621
 21
615.053
  0
LINE
  8
0
 10
-30.5621
 20
615.053
 11
-30.927
 21
615.147
  0
LINE
  8
0
 10
-30.927
 20
615.147
 11
-31.2773
 21
615.286
  0
LINE
  8
0
 10
-31.2773
 20
615.286
 11
-31.6075
 21
615.467
  0
LINE
  8
0
 10
-31.6075
 20
615.467
 11
-31.9123
 21
615.688
  0
LINE
  8
0
 10
-31.9123
 20
615.688
 11
-32.1869
 21
615.946
  0
LINE
  8
0
 10
-32.1869
 20
615.946
 11
-32.427
 21
616.237
  0
LINE
  8
0
 10
-32.427
 20
616.237
 11
-32.6289
 21
616.555
  0
LINE
  8
0
 10
-32.6289
 20
616.555
 11
-32.7893
 21
616.896
  0
LINE
  8
0
 10
-32.7893
 20
616.896
 11
-32.9057
 21
617.254
  0
LINE
  8
0
 10
-32.9057
 20
617.254
 11
-32.9763
 21
617.624
  0
LINE
  8
0
 10
-32.9763
 20
617.624
 11
-33
 21
618
  0
LINE
  8
0
 10
-33
 20
618
 11
-32.9763
 21
618.376
  0
LINE
  8
0
 10
-32.9763
 20
618.376
 11
-32.9057
 21
618.746
  0
LINE
  8
0
 10
-32.9057
 20
618.746
 11
-32.7893
 21
619.104
  0
LINE
  8
0
 10
-32.7893
 20
619.104
 11
-32.6289
 21
619.445
  0
LINE
  8
0
 10
-32.6289
 20
619.445
 11
-32.427
 21
619.763
  0
LINE
  8
0
 10
-32.427
 20
619.763
 11
-32.1869
 21
620.054
  0
LINE
  8
0
 10
-32.1869
 20
620.054
 11
-31.9123
 21
620.312
  0
LINE
  8
0
 10
-31.9123
 20
620.312
 11
-31.6075
 21
620.533
  0
LINE
  8
0
 10
-31.6075
 20
620.533
 11
-31.2773
 21
620.714
  0
LINE
  8
0
 10
-31.2773
 20
620.714
 11
-30.927
 21
620.853
  0
LINE
  8
0
 10
-30.927
 20
620.853
 11
-30.5621
 21
620.947
  0
LINE
  8
0
 10
-30.5621
 20
620.947
 11
-30.1884
 21
620.994
  0
LINE
  8
0
 10
-30.1884
 20
620.994
 11
-29.8116
 21
620.994
  0
LINE
  8
0
 10
-29.8116
 20
620.994
 11
-29.4379
 21
620.947
  0
LINE
  8
0
 10
-29.4379
 20
620.947
 11
-29.0729
 21
620.853
  0
LINE
  8
0
 10
-29.0729
 20
620.853
 11
-28.7227
 21
620.714
  0
LINE
  8
0
 10
-28.7227
 20
620.714
 11
-28.3925
 21
620.533
  0
LINE
  8
0
 10
-28.3925
 20
620.533
 11
-28.0877
 21
620.312
  0
LINE
  8
0
 10
-28.0877
 20
620.312
 11
-27.8131
 21
620.054
  0
LINE
  8
0
 10
-27.8131
 20
620.054
 11
-27.5729
 21
619.763
  0
LINE
  8
0
 10
-27.5729
 20
619.763
 11
-27.3711
 21
619.445
  0
LINE
  8
0
 10
-27.3711
 20
619.445
 11
-27.2107
 21
619.104
  0
LINE
  8
0
 10
-27.2107
 20
619.104
 11
-27.0942
 21
618.746
  0
LINE
  8
0
 10
-27.0942
 20
618.746
 11
-27.0237
 21
618.376
  0
LINE
  8
0
 10
-27.0237
 20
618.376
 11
-27
 21
618
  0
LINE
  8
0
 10
-27
 20
618
 11
-27.0237
 21
617.624
  0
LINE
  8
0
 10
-27.0237
 20
617.624
 11
-27.0942
 21
617.254
  0
LINE
  8
0
 10
-27.0942
 20
617.254
 11
-27.2107
 21
616.896
  0
LINE
  8
0
 10
-27.2107
 20
616.896
 11
-27.3711
 21
616.555
  0
LINE
  8
0
 10
-27.3711
 20
616.555
 11
-27.5729
 21
616.237
  0
LINE
  8
0
 10
-27.5729
 20
616.237
 11
-27.8131
 21
615.946
  0
LINE
  8
0
 10
-27.8131
 20
615.946
 11
-28.0877
 21
615.688
  0
LINE
  8
0
 10
-28.0877
 20
615.688
 11
-28.3925
 21
615.467
  0
LINE
  8
0
 10
-28.3925
 20
615.467
 11
-28.7227
 21
615.286
  0
LINE
  8
0
 10
-28.7227
 20
615.286
 11
-29.0729
 21
615.147
  0
LINE
  8
0
 10
-29.0729
 20
615.147
 11
-29.4379
 21
615.053
  0
LINE
  8
0
 10
-29.4379
 20
615.053
 11
-29.8116
 21
615.006
  0
LINE
  8
0
 10
-29.8116
 20
615.006
 11
-30.1884
 21
615.006
  0
LINE
  8
0
 10
29.8116
 20
555.006
 11
29.4379
 21
555.053
  0
LINE
  8
0
 10
29.4379
 20
555.053
 11
29.0729
 21
555.147
  0
LINE
  8
0
 10
29.0729
 20
555.147
 11
28.7227
 21
555.286
  0
LINE
  8
0
 10
28.7227
 20
555.286
 11
28.3925
 21
555.467
  0
LINE
  8
0
 10
28.3925
 20
555.467
 11
28.0877
 21
555.688
  0
LINE
  8
0
 10
28.0877
 20
555.688
 11
27.8131
 21
555.946
  0
LINE
  8
0
 10
27.8131
 20
555.946
 11
27.5729
 21
556.237
  0
LINE
  8
0
 10
27.5729
 20
556.237
 11
27.3711
 21
556.555
  0
LINE
  8
0
 10
27.3711
 20
556.555
 11
27.2107
 21
556.896
  0
LINE
  8
0
 10
27.2107
 20
556.896
 11
27.0942
 21
557.254
  0
LINE
  8
0
 10
27.0942
 20
557.254
 11
27.0237
 21
557.624
  0
LINE
  8
0
 10
27.0237
 20
557.624
 11
27
 21
558
  0
LINE
  8
0
 10
27
 20
558
 11
27.0237
 21
558.376
  0
LINE
  8
0
 10
27.0237
 20
558.376
 11
27.0942
 21
558.746
  0
LINE
  8
0
 10
27.0942
 20
558.746
 11
27.2107
 21
559.104
  0
LINE
  8
0
 10
27.2107
 20
559.104
 11
27.3711
 21
559.445
  0
LINE
  8
0
 10
27.3711
 20
559.445
 11
27.5729
 21
559.763
  0
LINE
  8
0
 10
27.5729
 20
559.763
 11
27.8131
 21
560.054
  0
LINE
  8
0
 10
27.8131
 20
560.054
 11
28.0877
 21
560.312
  0
LINE
  8
0
 10
28.0877
 20
560.312
 11
28.3925
 21
560.533
  0
LINE
  8
0
 10
28.3925
 20
560.533
 11
28.7227
 21
560.714
  0
LINE
  8
0
 10
28.7227
 20
560.714
 11
29.0729
 21
560.853
  0
LINE
  8
0
 10
29.0729
 20
560.853
 11
29.4379
 21
560.947
  0
LINE
  8
0
 10
29.4379
 20
560.947
 11
29.8116
 21
560.994
  0
LINE
  8
0
 10
29.8116
 20
560.994
 11
30.1884
 21
560.994
  0
LINE
  8
0
 10
30.1884
 20
560.994
 11
30.5621
 21
560.947
  0
LINE
  8
0
 10
30.5621
 20
560.947
 11
30.927
 21
560.853
  0
LINE
  8
0
 10
30.927
 20
560.853
 11
31.2773
 21
560.714
  0
LINE
  8
0
 10
31.2773
 20
560.714
 11
31.6075
 21
560.533
  0
LINE
  8
0
 10
31.6075
 20
560.533
 11
31.9123
 21
560.312
  0
LINE
  8
0
 10
31.9123
 20
560.312
 11
32.1869
 21
560.054
  0
LINE
  8
0
 10
32.1869
 20
560.054
 11
32.427
 21
559.763
  0
LINE
  8
0
 10
32.427
 20
559.763
 11
32.6289
 21
559.445
  0
LINE
  8
0
 10
32.6289
 20
559.445
 11
32.7893
 21
559.104
  0
LINE
  8
0
 10
32.7893
 20
559.104
 11
32.9057
 21
558.746
  0
LINE
  8
0
 10
32.9057
 20
558.746
 11
32.9763
 21
558.376
  0
LINE
  8
0
 10
32.9763
 20
558.376
 11
33
 21
558
  0
LINE
  8
0
 10
33
 20
558
 11
32.9763
 21
557.624
  0
LINE
  8
0
 10
32.9763
 20
557.624
 11
32.9057
 21
557.254
  0
LINE
  8
0
 10
32.9057
 20
557.254
 11
32.7893
 21
556.896
  0
LINE
  8
0
 10
32.7893
 20
556.896
 11
32.6289
 21
556.555
  0
LINE
  8
0
 10
32.6289
 20
556.555
 11
32.427
 21
556.237
  0
LINE
  8
0
 10
32.427
 20
556.237
 11
32.1869
 21
555.946
  0
LINE
  8
0
 10
32.1869
 20
555.946
 11
31.9123
 21
555.688
  0
LINE
  8
0
 10
31.9123
 20
555.688
 11
31.6075
 21
555.467
  0
LINE
  8
0
 10
31.6075
 20
555.467
 11
31.2773
 21
555.286
  0
LINE
  8
0
 10
31.2773
 20
555.286
 11
30.927
 21
555.147
  0
LINE
  8
0
 10
30.927
 20
555.147
 11
30.5621
 21
555.053
  0
LINE
  8
0
 10
30.5621
 20
555.053
 11
30.1884
 21
555.006
  0
LINE
  8
0
 10
30.1884
 20
555.006
 11
29.8116
 21
555.006
  0
LINE
  8
0
 10
-30.1884
 20
555.006
 11
-30.5621
 21
555.053
  0
LINE
  8
0
 10
-30.5621
 20
555.053
 11
-30.927
 21
555.147
  0
LINE
  8
0
 10
-30.927
 20
555.147
 11
-31.2773
 21
555.286
  0
LINE
  8
0
 10
-31.2773
 20
555.286
 11
-31.6075
 21
555.467
  0
LINE
  8
0
 10
-31.6075
 20
555.467
 11
-31.9123
 21
555.688
  0
LINE
  8
0
 10
-31.9123
 20
555.688
 11
-32.1869
 21
555.946
  0
LINE
  8
0
 10
-32.1869
 20
555.946
 11
-32.427
 21
556.237
  0
LINE
  8
0
 10
-32.427
 20
556.237
 11
-32.6289
 21
556.555
  0
LINE
  8
0
 10
-32.6289
 20
556.555
 11
-32.7893
 21
556.896
  0
LINE
  8
0
 10
-32.7893
 20
556.896
 11
-32.9057
 21
557.254
  0
LINE
  8
0
 10
-32.9057
 20
557.254
 11
-32.9763
 21
557.624
  0
LINE
  8
0
 10
-32.9763
 20
557.624
 11
-33
 21
558
  0
LINE
  8
0
 10
-33
 20
558
 11
-32.9763
 21
558.376
  0
LINE
  8
0
 10
-32.9763
 20
558.376
 11
-32.9057
 21
558.746
  0
LINE
  8
0
 10
-32.9057
 20
558.746
 11
-32.7893
 21
559.104
  0
LINE
  8
0
 10
-32.7893
 20
559.104
 11
-32.6289
 21
559.445
  0
LINE
  8
0
 10
-32.6289
 20
559.445
 11
-32.427
 21
559.763
  0
LINE
  8
0
 10
-32.427
 20
559.763
 11
-32.1869
 21
560.054
  0
LINE
  8
0
 10
-32.1869
 20
560.054
 11
-31.9123
 21
560.312
  0
LINE
  8
0
 10
-31.9123
 20
560.312
 11
-31.6075
 21
560.533
  0
LINE
  8
0
 10
-31.6075
 20
560.533
 11
-31.2773
 21
560.714
  0
LINE
  8
0
 10
-31.2773
 20
560.714
 11
-30.927
 21
560.853
  0
LINE
  8
0
 10
-30.927
 20
560.853
 11
-30.5621
 21
560.947
  0
LINE
  8
0
 10
-30.5621
 20
560.947
 11
-30.1884
 21
560.994
  0
LINE
  8
0
 10
-30.1884
 20
560.994
 11
-29.8116
 21
560.994
  0
LINE
  8
0
 10
-29.8116
 20
560.994
 11
-29.4379
 21
560.947
  0
LINE
  8
0
 10
-29.4379
 20
560.947
 11
-29.0729
 21
560.853
  0
LINE
  8
0
 10
-29.0729
 20
560.853
 11
-28.7227
 21
560.714
  0
LINE
  8
0
 10
-28.7227
 20
560.714
 11
-28.3925
 21
560.533
  0
LINE
  8
0
 10
-28.3925
 20
560.533
 11
-28.0877
 21
560.312
  0
LINE
  8
0
 10
-28.0877
 20
560.312
 11
-27.8131
 21
560.054
  0
LINE
  8
0
 10
-27.8131
 20
560.054
 11
-27.5729
 21
559.763
  0
LINE
  8
0
 10
-27.5729
 20
559.763
 11
-27.3711
 21
559.445
  0
LINE
  8
0
 10
-27.3711
 20
559.445
 11
-27.2107
 21
559.104
  0
LINE
  8
0
 10
-27.2107
 20
559.104
 11
-27.0942
 21
558.746
  0
LINE
  8
0
 10
-27.0942
 20
558.746
 11
-27.0237
 21
558.376
  0
LINE
  8
0
 10
-27.0237
 20
558.376
 11
-27
 21
558
  0
LINE
  8
0
 10
-27
 20
558
 11
-27.0237
 21
557.624
  0
LINE
  8
0
 10
-27.0237
 20
557.624
 11
-27.0942
 21
557.254
  0
LINE
  8
0
 10
-27.0942
 20
557.254
 11
-27.2107
 21
556.896
  0
LINE
  8
0
 10
-27.2107
 20
556.896
 11
-27.3711
 21
556.555
  0
LINE
  8
0
 10
-27.3711
 20
556.555
 11
-27.5729
 21
556.237
  0
LINE
  8
0
 10
-27.5729
 20
556.237
 11
-27.8131
 21
555.946
  0
LINE
  8
0
 10
-27.8131
 20
555.946
 11
-28.0877
 21
555.688
  0
LINE
  8
0
 10
-28.0877
 20
555.688
 11
-28.3925
 21
555.467
  0
LINE
  8
0
 10
-28.3925
 20
555.467
 11
-28.7227
 21
555.286
  0
LINE
  8
0
 10
-28.7227
 20
555.286
 11
-29.0729
 21
555.147
  0
LINE
  8
0
 10
-29.0729
 20
555.147
 11
-29.4379
 21
555.053
  0
LINE
  8
0
 10
-29.4379
 20
555.053
 11
-29.8116
 21
555.006
  0
LINE
  8
0
 10
-29.8116
 20
555.006
 11
-30.1884
 21
555.006
  0
LINE
  8
0
 10
32.9369
 20
467.089
 11
33.5451
 21
467.245
  0
LINE
  8
0
 10
33.5451
 20
467.245
 11
34.1289
 21
467.476
  0
LINE
  8
0
 10
34.1289
 20
467.476
 11
34.6791
 21
467.778
  0
LINE
  8
0
 10
34.6791
 20
467.778
 11
35.1871
 21
468.147
  0
LINE
  8
0
 10
35.1871
 20
468.147
 11
35.6448
 21
468.577
  0
LINE
  8
0
 10
35.6448
 20
468.577
 11
36.0451
 21
469.061
  0
LINE
  8
0
 10
36.0451
 20
469.061
 11
36.3815
 21
469.591
  0
LINE
  8
0
 10
36.3815
 20
469.591
 11
36.6489
 21
470.159
  0
LINE
  8
0
 10
36.6489
 20
470.159
 11
36.8429
 21
470.757
  0
LINE
  8
0
 10
36.8429
 20
470.757
 11
36.9606
 21
471.373
  0
LINE
  8
0
 10
36.9606
 20
471.373
 11
37
 21
472
  0
LINE
  8
0
 10
37
 20
472
 11
37
 21
536
  0
LINE
  8
0
 10
37
 20
536
 11
36.9606
 21
536.627
  0
LINE
  8
0
 10
36.9606
 20
536.627
 11
36.8429
 21
537.243
  0
LINE
  8
0
 10
36.8429
 20
537.243
 11
36.6489
 21
537.841
  0
LINE
  8
0
 10
36.6489
 20
537.841
 11
36.3815
 21
538.409
  0
LINE
  8
0
 10
36.3815
 20
538.409
 11
36.0451
 21
538.939
  0
LINE
  8
0
 10
36.0451
 20
538.939
 11
35.6448
 21
539.423
  0
LINE
  8
0
 10
35.6448
 20
539.423
 11
35.1871
 21
539.853
  0
LINE
  8
0
 10
35.1871
 20
539.853
 11
34.6791
 21
540.222
  0
LINE
  8
0
 10
34.6791
 20
540.222
 11
34.1289
 21
540.524
  0
LINE
  8
0
 10
34.1289
 20
540.524
 11
33.5451
 21
540.755
  0
LINE
  8
0
 10
33.5451
 20
540.755
 11
32.9369
 21
540.911
  0
LINE
  8
0
 10
32.9369
 20
540.911
 11
32.3139
 21
540.99
  0
LINE
  8
0
 10
32.3139
 20
540.99
 11
-32.3139
 21
540.99
  0
LINE
  8
0
 10
-32.3139
 20
540.99
 11
-32.9369
 21
540.911
  0
LINE
  8
0
 10
-32.9369
 20
540.911
 11
-33.5451
 21
540.755
  0
LINE
  8
0
 10
-33.5451
 20
540.755
 11
-34.1289
 21
540.524
  0
LINE
  8
0
 10
-34.1289
 20
540.524
 11
-34.6791
 21
540.222
  0
LINE
  8
0
 10
-34.6791
 20
540.222
 11
-35.1871
 21
539.853
  0
LINE
  8
0
 10
-35.1871
 20
539.853
 11
-35.6448
 21
539.423
  0
LINE
  8
0
 10
-35.6448
 20
539.423
 11
-36.0451
 21
538.939
  0
LINE
  8
0
 10
-36.0451
 20
538.939
 11
-36.3815
 21
538.409
  0
LINE
  8
0
 10
-36.3815
 20
538.409
 11
-36.6489
 21
537.841
  0
LINE
  8
0
 10
-36.6489
 20
537.841
 11
-36.8429
 21
537.243
  0
LINE
  8
0
 10
-36.8429
 20
537.243
 11
-36.9606
 21
536.627
  0
LINE
  8
0
 10
-36.9606
 20
536.627
 11
-37
 21
536
  0
LINE
  8
0
 10
-37
 20
536
 11
-37
 21
472
  0
LINE
  8
0
 10
-37
 20
472
 11
-36.9606
 21
471.373
  0
LINE
  8
0
 10
-36.9606
 20
471.373
 11
-36.8429
 21
470.757
  0
LINE
  8
0
 10
-36.8429
 20
470.757
 11
-36.6489
 21
470.159
  0
LINE
  8
0
 10
-36.6489
 20
470.159
 11
-36.3815
 21
469.591
  0
LINE
  8
0
 10
-36.3815
 20
469.591
 11
-36.0451
 21
469.061
  0
LINE
  8
0
 10
-36.0451
 20
469.061
 11
-35.6448
 21
468.577
  0
LINE
  8
0
 10
-35.6448
 20
468.577
 11
-35.1871
 21
468.147
  0
LINE
  8
0
 10
-35.1871
 20
468.147
 11
-34.6791
 21
467.778
  0
LINE
  8
0
 10
-34.6791
 20
467.778
 11
-34.1289
 21
467.476
  0
LINE
  8
0
 10
-34.1289
 20
467.476
 11
-33.5451
 21
467.245
  0
LINE
  8
0
 10
-33.5451
 20
467.245
 11
-32.9369
 21
467.089
  0
LINE
  8
0
 10
-32.9369
 20
467.089
 11
-32.3139
 21
467.01
  0
LINE
  8
0
 10
-32.3139
 20
467.01
 11
32.3139
 21
467.01
  0
LINE
  8
0
 10
32.3139
 20
467.01
 11
32.9369
 21
467.089
  0
LINE
  8
0
 10
-30.1884
 20
531.006
 11
-30.5621
 21
531.053
  0
LINE
  8
0
 10
-30.5621
 20
531.053
 11
-30.927
 21
531.147
  0
LINE
  8
0
 10
-30.927
 20
531.147
 11
-31.2773
 21
531.286
  0
LINE
  8
0
 10
-31.2773
 20
531.286
 11
-31.6075
 21
531.467
  0
LINE
  8
0
 10
-31.6075
 20
531.467
 11
-31.9123
 21
531.688
  0
LINE
  8
0
 10
-31.9123
 20
531.688
 11
-32.1869
 21
531.946
  0
LINE
  8
0
 10
-32.1869
 20
531.946
 11
-32.427
 21
532.237
  0
LINE
  8
0
 10
-32.427
 20
532.237
 11
-32.6289
 21
532.555
  0
LINE
  8
0
 10
-32.6289
 20
532.555
 11
-32.7893
 21
532.896
  0
LINE
  8
0
 10
-32.7893
 20
532.896
 11
-32.9057
 21
533.254
  0
LINE
  8
0
 10
-32.9057
 20
533.254
 11
-32.9763
 21
533.624
  0
LINE
  8
0
 10
-32.9763
 20
533.624
 11
-33
 21
534
  0
LINE
  8
0
 10
-33
 20
534
 11
-32.9763
 21
534.376
  0
LINE
  8
0
 10
-32.9763
 20
534.376
 11
-32.9057
 21
534.746
  0
LINE
  8
0
 10
-32.9057
 20
534.746
 11
-32.7893
 21
535.104
  0
LINE
  8
0
 10
-32.7893
 20
535.104
 11
-32.6289
 21
535.445
  0
LINE
  8
0
 10
-32.6289
 20
535.445
 11
-32.427
 21
535.763
  0
LINE
  8
0
 10
-32.427
 20
535.763
 11
-32.1869
 21
536.054
  0
LINE
  8
0
 10
-32.1869
 20
536.054
 11
-31.9123
 21
536.312
  0
LINE
  8
0
 10
-31.9123
 20
536.312
 11
-31.6075
 21
536.533
  0
LINE
  8
0
 10
-31.6075
 20
536.533
 11
-31.2773
 21
536.714
  0
LINE
  8
0
 10
-31.2773
 20
536.714
 11
-30.927
 21
536.853
  0
LINE
  8
0
 10
-30.927
 20
536.853
 11
-30.5621
 21
536.947
  0
LINE
  8
0
 10
-30.5621
 20
536.947
 11
-30.1884
 21
536.994
  0
LINE
  8
0
 10
-30.1884
 20
536.994
 11
-29.8116
 21
536.994
  0
LINE
  8
0
 10
-29.8116
 20
536.994
 11
-29.4379
 21
536.947
  0
LINE
  8
0
 10
-29.4379
 20
536.947
 11
-29.0729
 21
536.853
  0
LINE
  8
0
 10
-29.0729
 20
536.853
 11
-28.7227
 21
536.714
  0
LINE
  8
0
 10
-28.7227
 20
536.714
 11
-28.3925
 21
536.533
  0
LINE
  8
0
 10
-28.3925
 20
536.533
 11
-28.0877
 21
536.312
  0
LINE
  8
0
 10
-28.0877
 20
536.312
 11
-27.8131
 21
536.054
  0
LINE
  8
0
 10
-27.8131
 20
536.054
 11
-27.5729
 21
535.763
  0
LINE
  8
0
 10
-27.5729
 20
535.763
 11
-27.3711
 21
535.445
  0
LINE
  8
0
 10
-27.3711
 20
535.445
 11
-27.2107
 21
535.104
  0
LINE
  8
0
 10
-27.2107
 20
535.104
 11
-27.0942
 21
534.746
  0
LINE
  8
0
 10
-27.0942
 20
534.746
 11
-27.0237
 21
534.376
  0
LINE
  8
0
 10
-27.0237
 20
534.376
 11
-27
 21
534
  0
LINE
  8
0
 10
-27
 20
534
 11
-27.0237
 21
533.624
  0
LINE
  8
0
 10
-27.0237
 20
533.624
 11
-27.0942
 21
533.254
  0
LINE
  8
0
 10
-27.0942
 20
533.254
 11
-27.2107
 21
532.896
  0
LINE
  8
0
 10
-27.2107
 20
532.896
 11
-27.3711
 21
532.555
  0
LINE
  8
0
 10
-27.3711
 20
532.555
 11
-27.5729
 21
532.237
  0
LINE
  8
0
 10
-27.5729
 20
532.237
 11
-27.8131
 21
531.946
  0
LINE
  8
0
 10
-27.8131
 20
531.946
 11
-28.0877
 21
531.688
  0
LINE
  8
0
 10
-28.0877
 20
531.688
 11
-28.3925
 21
531.467
  0
LINE
  8
0
 10
-28.3925
 20
531.467
 11
-28.7227
 21
531.286
  0
LINE
  8
0
 10
-28.7227
 20
531.286
 11
-29.0729
 21
531.147
  0
LINE
  8
0
 10
-29.0729
 20
531.147
 11
-29.4379
 21
531.053
  0
LINE
  8
0
 10
-29.4379
 20
531.053
 11
-29.8116
 21
531.006
  0
LINE
  8
0
 10
-29.8116
 20
531.006
 11
-30.1884
 21
531.006
  0
LINE
  8
0
 10
29.8116
 20
531.006
 11
29.4379
 21
531.053
  0
LINE
  8
0
 10
29.4379
 20
531.053
 11
29.0729
 21
531.147
  0
LINE
  8
0
 10
29.0729
 20
531.147
 11
28.7227
 21
531.286
  0
LINE
  8
0
 10
28.7227
 20
531.286
 11
28.3925
 21
531.467
  0
LINE
  8
0
 10
28.3925
 20
531.467
 11
28.0877
 21
531.688
  0
LINE
  8
0
 10
28.0877
 20
531.688
 11
27.8131
 21
531.946
  0
LINE
  8
0
 10
27.8131
 20
531.946
 11
27.5729
 21
532.237
  0
LINE
  8
0
 10
27.5729
 20
532.237
 11
27.3711
 21
532.555
  0
LINE
  8
0
 10
27.3711
 20
532.555
 11
27.2107
 21
532.896
  0
LINE
  8
0
 10
27.2107
 20
532.896
 11
27.0942
 21
533.254
  0
LINE
  8
0
 10
27.0942
 20
533.254
 11
27.0237
 21
533.624
  0
LINE
  8
0
 10
27.0237
 20
533.624
 11
27
 21
534
  0
LINE
  8
0
 10
27
 20
534
 11
27.0237
 21
534.376
  0
LINE
  8
0
 10
27.0237
 20
534.376
 11
27.0942
 21
534.746
  0
LINE
  8
0
 10
27.0942
 20
534.746
 11
27.2107
 21
535.104
  0
LINE
  8
0
 10
27.2107
 20
535.104
 11
27.3711
 21
535.445
  0
LINE
  8
0
 10
27.3711
 20
535.445
 11
27.5729
 21
535.763
  0
LINE
  8
0
 10
27.5729
 20
535.763
 11
27.8131
 21
536.054
  0
LINE
  8
0
 10
27.8131
 20
536.054
 11
28.0877
 21
536.312
  0
LINE
  8
0
 10
28.0877
 20
536.312
 11
28.3925
 21
536.533
  0
LINE
  8
0
 10
28.3925
 20
536.533
 11
28.7227
 21
536.714
  0
LINE
  8
0
 10
28.7227
 20
536.714
 11
29.0729
 21
536.853
  0
LINE
  8
0
 10
29.0729
 20
536.853
 11
29.4379
 21
536.947
  0
LINE
  8
0
 10
29.4379
 20
536.947
 11
29.8116
 21
536.994
  0
LINE
  8
0
 10
29.8116
 20
536.994
 11
30.1884
 21
536.994
  0
LINE
  8
0
 10
30.1884
 20
536.994
 11
30.5621
 21
536.947
  0
LINE
  8
0
 10
30.5621
 20
536.947
 11
30.927
 21
536.853
  0
LINE
  8
0
 10
30.927
 20
536.853
 11
31.2773
 21
536.714
  0
LINE
  8
0
 10
31.2773
 20
536.714
 11
31.6075
 21
536.533
  0
LINE
  8
0
 10
31.6075
 20
536.533
 11
31.9123
 21
536.312
  0
LINE
  8
0
 10
31.9123
 20
536.312
 11
32.1869
 21
536.054
  0
LINE
  8
0
 10
32.1869
 20
536.054
 11
32.427
 21
535.763
  0
LINE
  8
0
 10
32.427
 20
535.763
 11
32.6289
 21
535.445
  0
LINE
  8
0
 10
32.6289
 20
535.445
 11
32.7893
 21
535.104
  0
LINE
  8
0
 10
32.7893
 20
535.104
 11
32.9057
 21
534.746
  0
LINE
  8
0
 10
32.9057
 20
534.746
 11
32.9763
 21
534.376
  0
LINE
  8
0
 10
32.9763
 20
534.376
 11
33
 21
534
  0
LINE
  8
0
 10
33
 20
534
 11
32.9763
 21
533.624
  0
LINE
  8
0
 10
32.9763
 20
533.624
 11
32.9057
 21
533.254
  0
LINE
  8
0
 10
32.9057
 20
533.254
 11
32.7893
 21
532.896
  0
LINE
  8
0
 10
32.7893
 20
532.896
 11
32.6289
 21
532.555
  0
LINE
  8
0
 10
32.6289
 20
532.555
 11
32.427
 21
532.237
  0
LINE
  8
0
 10
32.427
 20
532.237
 11
32.1869
 21
531.946
  0
LINE
  8
0
 10
32.1869
 20
531.946
 11
31.9123
 21
531.688
  0
LINE
  8
0
 10
31.9123
 20
531.688
 11
31.6075
 21
531.467
  0
LINE
  8
0
 10
31.6075
 20
531.467
 11
31.2773
 21
531.286
  0
LINE
  8
0
 10
31.2773
 20
531.286
 11
30.927
 21
531.147
  0
LINE
  8
0
 10
30.927
 20
531.147
 11
30.5621
 21
531.053
  0
LINE
  8
0
 10
30.5621
 20
531.053
 11
30.1884
 21
531.006
  0
LINE
  8
0
 10
30.1884
 20
531.006
 11
29.8116
 21
531.006
  0
LINE
  8
0
 10
-30.1884
 20
471.006
 11
-30.5621
 21
471.053
  0
LINE
  8
0
 10
-30.5621
 20
471.053
 11
-30.927
 21
471.147
  0
LINE
  8
0
 10
-30.927
 20
471.147
 11
-31.2773
 21
471.286
  0
LINE
  8
0
 10
-31.2773
 20
471.286
 11
-31.6075
 21
471.467
  0
LINE
  8
0
 10
-31.6075
 20
471.467
 11
-31.9123
 21
471.688
  0
LINE
  8
0
 10
-31.9123
 20
471.688
 11
-32.1869
 21
471.946
  0
LINE
  8
0
 10
-32.1869
 20
471.946
 11
-32.427
 21
472.237
  0
LINE
  8
0
 10
-32.427
 20
472.237
 11
-32.6289
 21
472.555
  0
LINE
  8
0
 10
-32.6289
 20
472.555
 11
-32.7893
 21
472.896
  0
LINE
  8
0
 10
-32.7893
 20
472.896
 11
-32.9057
 21
473.254
  0
LINE
  8
0
 10
-32.9057
 20
473.254
 11
-32.9763
 21
473.624
  0
LINE
  8
0
 10
-32.9763
 20
473.624
 11
-33
 21
474
  0
LINE
  8
0
 10
-33
 20
474
 11
-32.9763
 21
474.376
  0
LINE
  8
0
 10
-32.9763
 20
474.376
 11
-32.9057
 21
474.746
  0
LINE
  8
0
 10
-32.9057
 20
474.746
 11
-32.7893
 21
475.104
  0
LINE
  8
0
 10
-32.7893
 20
475.104
 11
-32.6289
 21
475.445
  0
LINE
  8
0
 10
-32.6289
 20
475.445
 11
-32.427
 21
475.763
  0
LINE
  8
0
 10
-32.427
 20
475.763
 11
-32.1869
 21
476.054
  0
LINE
  8
0
 10
-32.1869
 20
476.054
 11
-31.9123
 21
476.312
  0
LINE
  8
0
 10
-31.9123
 20
476.312
 11
-31.6075
 21
476.533
  0
LINE
  8
0
 10
-31.6075
 20
476.533
 11
-31.2773
 21
476.714
  0
LINE
  8
0
 10
-31.2773
 20
476.714
 11
-30.927
 21
476.853
  0
LINE
  8
0
 10
-30.927
 20
476.853
 11
-30.5621
 21
476.947
  0
LINE
  8
0
 10
-30.5621
 20
476.947
 11
-30.1884
 21
476.994
  0
LINE
  8
0
 10
-30.1884
 20
476.994
 11
-29.8116
 21
476.994
  0
LINE
  8
0
 10
-29.8116
 20
476.994
 11
-29.4379
 21
476.947
  0
LINE
  8
0
 10
-29.4379
 20
476.947
 11
-29.0729
 21
476.853
  0
LINE
  8
0
 10
-29.0729
 20
476.853
 11
-28.7227
 21
476.714
  0
LINE
  8
0
 10
-28.7227
 20
476.714
 11
-28.3925
 21
476.533
  0
LINE
  8
0
 10
-28.3925
 20
476.533
 11
-28.0877
 21
476.312
  0
LINE
  8
0
 10
-28.0877
 20
476.312
 11
-27.8131
 21
476.054
  0
LINE
  8
0
 10
-27.8131
 20
476.054
 11
-27.5729
 21
475.763
  0
LINE
  8
0
 10
-27.5729
 20
475.763
 11
-27.3711
 21
475.445
  0
LINE
  8
0
 10
-27.3711
 20
475.445
 11
-27.2107
 21
475.104
  0
LINE
  8
0
 10
-27.2107
 20
475.104
 11
-27.0942
 21
474.746
  0
LINE
  8
0
 10
-27.0942
 20
474.746
 11
-27.0237
 21
474.376
  0
LINE
  8
0
 10
-27.0237
 20
474.376
 11
-27
 21
474
  0
LINE
  8
0
 10
-27
 20
474
 11
-27.0237
 21
473.624
  0
LINE
  8
0
 10
-27.0237
 20
473.624
 11
-27.0942
 21
473.254
  0
LINE
  8
0
 10
-27.0942
 20
473.254
 11
-27.2107
 21
472.896
  0
LINE
  8
0
 10
-27.2107
 20
472.896
 11
-27.3711
 21
472.555
  0
LINE
  8
0
 10
-27.3711
 20
472.555
 11
-27.5729
 21
472.237
  0
LINE
  8
0
 10
-27.5729
 20
472.237
 11
-27.8131
 21
471.946
  0
LINE
  8
0
 10
-27.8131
 20
471.946
 11
-28.0877
 21
471.688
  0
LINE
  8
0
 10
-28.0877
 20
471.688
 11
-28.3925
 21
471.467
  0
LINE
  8
0
 10
-28.3925
 20
471.467
 11
-28.7227
 21
471.286
  0
LINE
  8
0
 10
-28.7227
 20
471.286
 11
-29.0729
 21
471.147
  0
LINE
  8
0
 10
-29.0729
 20
471.147
 11
-29.4379
 21
471.053
  0
LINE
  8
0
 10
-29.4379
 20
471.053
 11
-29.8116
 21
471.006
  0
LINE
  8
0
 10
-29.8116
 20
471.006
 11
-30.1884
 21
471.006
  0
LINE
  8
0
 10
29.8116
 20
471.006
 11
29.4379
 21
471.053
  0
LINE
  8
0
 10
29.4379
 20
471.053
 11
29.0729
 21
471.147
  0
LINE
  8
0
 10
29.0729
 20
471.147
 11
28.7227
 21
471.286
  0
LINE
  8
0
 10
28.7227
 20
471.286
 11
28.3925
 21
471.467
  0
LINE
  8
0
 10
28.3925
 20
471.467
 11
28.0877
 21
471.688
  0
LINE
  8
0
 10
28.0877
 20
471.688
 11
27.8131
 21
471.946
  0
LINE
  8
0
 10
27.8131
 20
471.946
 11
27.5729
 21
472.237
  0
LINE
  8
0
 10
27.5729
 20
472.237
 11
27.3711
 21
472.555
  0
LINE
  8
0
 10
27.3711
 20
472.555
 11
27.2107
 21
472.896
  0
LINE
  8
0
 10
27.2107
 20
472.896
 11
27.0942
 21
473.254
  0
LINE
  8
0
 10
27.0942
 20
473.254
 11
27.0237
 21
473.624
  0
LINE
  8
0
 10
27.0237
 20
473.624
 11
27
 21
474
  0
LINE
  8
0
 10
27
 20
474
 11
27.0237
 21
474.376
  0
LINE
  8
0
 10
27.0237
 20
474.376
 11
27.0942
 21
474.746
  0
LINE
  8
0
 10
27.0942
 20
474.746
 11
27.2107
 21
475.104
  0
LINE
  8
0
 10
27.2107
 20
475.104
 11
27.3711
 21
475.445
  0
LINE
  8
0
 10
27.3711
 20
475.445
 11
27.5729
 21
475.763
  0
LINE
  8
0
 10
27.5729
 20
475.763
 11
27.8131
 21
476.054
  0
LINE
  8
0
 10
27.8131
 20
476.054
 11
28.0877
 21
476.312
  0
LINE
  8
0
 10
28.0877
 20
476.312
 11
28.3925
 21
476.533
  0
LINE
  8
0
 10
28.3925
 20
476.533
 11
28.7227
 21
476.714
  0
LINE
  8
0
 10
28.7227
 20
476.714
 11
29.0729
 21
476.853
  0
LINE
  8
0
 10
29.0729
 20
476.853
 11
29.4379
 21
476.947
  0
LINE
  8
0
 10
29.4379
 20
476.947
 11
29.8116
 21
476.994
  0
LINE
  8
0
 10
29.8116
 20
476.994
 11
30.1884
 21
476.994
  0
LINE
  8
0
 10
30.1884
 20
476.994
 11
30.5621
 21
476.947
  0
LINE
  8
0
 10
30.5621
 20
476.947
 11
30.927
 21
476.853
  0
LINE
  8
0
 10
30.927
 20
476.853
 11
31.2773
 21
476.714
  0
LINE
  8
0
 10
31.2773
 20
476.714
 11
31.6075
 21
476.533
  0
LINE
  8
0
 10
31.6075
 20
476.533
 11
31.9123
 21
476.312
  0
LINE
  8
0
 10
31.9123
 20
476.312
 11
32.1869
 21
476.054
  0
LINE
  8
0
 10
32.1869
 20
476.054
 11
32.427
 21
475.763
  0
LINE
  8
0
 10
32.427
 20
475.763
 11
32.6289
 21
475.445
  0
LINE
  8
0
 10
32.6289
 20
475.445
 11
32.7893
 21
475.104
  0
LINE
  8
0
 10
32.7893
 20
475.104
 11
32.9057
 21
474.746
  0
LINE
  8
0
 10
32.9057
 20
474.746
 11
32.9763
 21
474.376
  0
LINE
  8
0
 10
32.9763
 20
474.376
 11
33
 21
474
  0
LINE
  8
0
 10
33
 20
474
 11
32.9763
 21
473.624
  0
LINE
  8
0
 10
32.9763
 20
473.624
 11
32.9057
 21
473.254
  0
LINE
  8
0
 10
32.9057
 20
473.254
 11
32.7893
 21
472.896
  0
LINE
  8
0
 10
32.7893
 20
472.896
 11
32.6289
 21
472.555
  0
LINE
  8
0
 10
32.6289
 20
472.555
 11
32.427
 21
472.237
  0
LINE
  8
0
 10
32.427
 20
472.237
 11
32.1869
 21
471.946
  0
LINE
  8
0
 10
32.1869
 20
471.946
 11
31.9123
 21
471.688
  0
LINE
  8
0
 10
31.9123
 20
471.688
 11
31.6075
 21
471.467
  0
LINE
  8
0
 10
31.6075
 20
471.467
 11
31.2773
 21
471.286
  0
LINE
  8
0
 10
31.2773
 20
471.286
 11
30.927
 21
471.147
  0
LINE
  8
0
 10
30.927
 20
471.147
 11
30.5621
 21
471.053
  0
LINE
  8
0
 10
30.5621
 20
471.053
 11
30.1884
 21
471.006
  0
LINE
  8
0
 10
30.1884
 20
471.006
 11
29.8116
 21
471.006
  0
LINE
  8
0
 10
32.9369
 20
383.089
 11
33.5451
 21
383.245
  0
LINE
  8
0
 10
33.5451
 20
383.245
 11
34.1289
 21
383.476
  0
LINE
  8
0
 10
34.1289
 20
383.476
 11
34.6791
 21
383.778
  0
LINE
  8
0
 10
34.6791
 20
383.778
 11
35.1871
 21
384.147
  0
LINE
  8
0
 10
35.1871
 20
384.147
 11
35.6448
 21
384.577
  0
LINE
  8
0
 10
35.6448
 20
384.577
 11
36.0451
 21
385.061
  0
LINE
  8
0
 10
36.0451
 20
385.061
 11
36.3815
 21
385.591
  0
LINE
  8
0
 10
36.3815
 20
385.591
 11
36.6489
 21
386.159
  0
LINE
  8
0
 10
36.6489
 20
386.159
 11
36.8429
 21
386.757
  0
LINE
  8
0
 10
36.8429
 20
386.757
 11
36.9606
 21
387.373
  0
LINE
  8
0
 10
36.9606
 20
387.373
 11
37
 21
388
  0
LINE
  8
0
 10
37
 20
388
 11
37
 21
452
  0
LINE
  8
0
 10
37
 20
452
 11
36.9606
 21
452.627
  0
LINE
  8
0
 10
36.9606
 20
452.627
 11
36.8429
 21
453.243
  0
LINE
  8
0
 10
36.8429
 20
453.243
 11
36.6489
 21
453.841
  0
LINE
  8
0
 10
36.6489
 20
453.841
 11
36.3815
 21
454.409
  0
LINE
  8
0
 10
36.3815
 20
454.409
 11
36.0451
 21
454.939
  0
LINE
  8
0
 10
36.0451
 20
454.939
 11
35.6448
 21
455.423
  0
LINE
  8
0
 10
35.6448
 20
455.423
 11
35.1871
 21
455.853
  0
LINE
  8
0
 10
35.1871
 20
455.853
 11
34.6791
 21
456.222
  0
LINE
  8
0
 10
34.6791
 20
456.222
 11
34.1289
 21
456.524
  0
LINE
  8
0
 10
34.1289
 20
456.524
 11
33.5451
 21
456.755
  0
LINE
  8
0
 10
33.5451
 20
456.755
 11
32.9369
 21
456.911
  0
LINE
  8
0
 10
32.9369
 20
456.911
 11
32.3139
 21
456.99
  0
LINE
  8
0
 10
32.3139
 20
456.99
 11
-32.3139
 21
456.99
  0
LINE
  8
0
 10
-32.3139
 20
456.99
 11
-32.9369
 21
456.911
  0
LINE
  8
0
 10
-32.9369
 20
456.911
 11
-33.5451
 21
456.755
  0
LINE
  8
0
 10
-33.5451
 20
456.755
 11
-34.1289
 21
456.524
  0
LINE
  8
0
 10
-34.1289
 20
456.524
 11
-34.6791
 21
456.222
  0
LINE
  8
0
 10
-34.6791
 20
456.222
 11
-35.1871
 21
455.853
  0
LINE
  8
0
 10
-35.1871
 20
455.853
 11
-35.6448
 21
455.423
  0
LINE
  8
0
 10
-35.6448
 20
455.423
 11
-36.0451
 21
454.939
  0
LINE
  8
0
 10
-36.0451
 20
454.939
 11
-36.3815
 21
454.409
  0
LINE
  8
0
 10
-36.3815
 20
454.409
 11
-36.6489
 21
453.841
  0
LINE
  8
0
 10
-36.6489
 20
453.841
 11
-36.8429
 21
453.243
  0
LINE
  8
0
 10
-36.8429
 20
453.243
 11
-36.9606
 21
452.627
  0
LINE
  8
0
 10
-36.9606
 20
452.627
 11
-37
 21
452
  0
LINE
  8
0
 10
-37
 20
452
 11
-37
 21
388
  0
LINE
  8
0
 10
-37
 20
388
 11
-36.9606
 21
387.373
  0
LINE
  8
0
 10
-36.9606
 20
387.373
 11
-36.8429
 21
386.757
  0
LINE
  8
0
 10
-36.8429
 20
386.757
 11
-36.6489
 21
386.159
  0
LINE
  8
0
 10
-36.6489
 20
386.159
 11
-36.3815
 21
385.591
  0
LINE
  8
0
 10
-36.3815
 20
385.591
 11
-36.0451
 21
385.061
  0
LINE
  8
0
 10
-36.0451
 20
385.061
 11
-35.6448
 21
384.577
  0
LINE
  8
0
 10
-35.6448
 20
384.577
 11
-35.1871
 21
384.147
  0
LINE
  8
0
 10
-35.1871
 20
384.147
 11
-34.6791
 21
383.778
  0
LINE
  8
0
 10
-34.6791
 20
383.778
 11
-34.1289
 21
383.476
  0
LINE
  8
0
 10
-34.1289
 20
383.476
 11
-33.5451
 21
383.245
  0
LINE
  8
0
 10
-33.5451
 20
383.245
 11
-32.9369
 21
383.089
  0
LINE
  8
0
 10
-32.9369
 20
383.089
 11
-32.3139
 21
383.01
  0
LINE
  8
0
 10
-32.3139
 20
383.01
 11
32.3139
 21
383.01
  0
LINE
  8
0
 10
32.3139
 20
383.01
 11
32.9369
 21
383.089
  0
LINE
  8
0
 10
-30.1884
 20
447.006
 11
-30.5621
 21
447.053
  0
LINE
  8
0
 10
-30.5621
 20
447.053
 11
-30.927
 21
447.147
  0
LINE
  8
0
 10
-30.927
 20
447.147
 11
-31.2773
 21
447.286
  0
LINE
  8
0
 10
-31.2773
 20
447.286
 11
-31.6075
 21
447.467
  0
LINE
  8
0
 10
-31.6075
 20
447.467
 11
-31.9123
 21
447.688
  0
LINE
  8
0
 10
-31.9123
 20
447.688
 11
-32.1869
 21
447.946
  0
LINE
  8
0
 10
-32.1869
 20
447.946
 11
-32.427
 21
448.237
  0
LINE
  8
0
 10
-32.427
 20
448.237
 11
-32.6289
 21
448.555
  0
LINE
  8
0
 10
-32.6289
 20
448.555
 11
-32.7893
 21
448.896
  0
LINE
  8
0
 10
-32.7893
 20
448.896
 11
-32.9057
 21
449.254
  0
LINE
  8
0
 10
-32.9057
 20
449.254
 11
-32.9763
 21
449.624
  0
LINE
  8
0
 10
-32.9763
 20
449.624
 11
-33
 21
450
  0
LINE
  8
0
 10
-33
 20
450
 11
-32.9763
 21
450.376
  0
LINE
  8
0
 10
-32.9763
 20
450.376
 11
-32.9057
 21
450.746
  0
LINE
  8
0
 10
-32.9057
 20
450.746
 11
-32.7893
 21
451.104
  0
LINE
  8
0
 10
-32.7893
 20
451.104
 11
-32.6289
 21
451.445
  0
LINE
  8
0
 10
-32.6289
 20
451.445
 11
-32.427
 21
451.763
  0
LINE
  8
0
 10
-32.427
 20
451.763
 11
-32.1869
 21
452.054
  0
LINE
  8
0
 10
-32.1869
 20
452.054
 11
-31.9123
 21
452.312
  0
LINE
  8
0
 10
-31.9123
 20
452.312
 11
-31.6075
 21
452.533
  0
LINE
  8
0
 10
-31.6075
 20
452.533
 11
-31.2773
 21
452.714
  0
LINE
  8
0
 10
-31.2773
 20
452.714
 11
-30.927
 21
452.853
  0
LINE
  8
0
 10
-30.927
 20
452.853
 11
-30.5621
 21
452.947
  0
LINE
  8
0
 10
-30.5621
 20
452.947
 11
-30.1884
 21
452.994
  0
LINE
  8
0
 10
-30.1884
 20
452.994
 11
-29.8116
 21
452.994
  0
LINE
  8
0
 10
-29.8116
 20
452.994
 11
-29.4379
 21
452.947
  0
LINE
  8
0
 10
-29.4379
 20
452.947
 11
-29.0729
 21
452.853
  0
LINE
  8
0
 10
-29.0729
 20
452.853
 11
-28.7227
 21
452.714
  0
LINE
  8
0
 10
-28.7227
 20
452.714
 11
-28.3925
 21
452.533
  0
LINE
  8
0
 10
-28.3925
 20
452.533
 11
-28.0877
 21
452.312
  0
LINE
  8
0
 10
-28.0877
 20
452.312
 11
-27.8131
 21
452.054
  0
LINE
  8
0
 10
-27.8131
 20
452.054
 11
-27.5729
 21
451.763
  0
LINE
  8
0
 10
-27.5729
 20
451.763
 11
-27.3711
 21
451.445
  0
LINE
  8
0
 10
-27.3711
 20
451.445
 11
-27.2107
 21
451.104
  0
LINE
  8
0
 10
-27.2107
 20
451.104
 11
-27.0942
 21
450.746
  0
LINE
  8
0
 10
-27.0942
 20
450.746
 11
-27.0237
 21
450.376
  0
LINE
  8
0
 10
-27.0237
 20
450.376
 11
-27
 21
450
  0
LINE
  8
0
 10
-27
 20
450
 11
-27.0237
 21
449.624
  0
LINE
  8
0
 10
-27.0237
 20
449.624
 11
-27.0942
 21
449.254
  0
LINE
  8
0
 10
-27.0942
 20
449.254
 11
-27.2107
 21
448.896
  0
LINE
  8
0
 10
-27.2107
 20
448.896
 11
-27.3711
 21
448.555
  0
LINE
  8
0
 10
-27.3711
 20
448.555
 11
-27.5729
 21
448.237
  0
LINE
  8
0
 10
-27.5729
 20
448.237
 11
-27.8131
 21
447.946
  0
LINE
  8
0
 10
-27.8131
 20
447.946
 11
-28.0877
 21
447.688
  0
LINE
  8
0
 10
-28.0877
 20
447.688
 11
-28.3925
 21
447.467
  0
LINE
  8
0
 10
-28.3925
 20
447.467
 11
-28.7227
 21
447.286
  0
LINE
  8
0
 10
-28.7227
 20
447.286
 11
-29.0729
 21
447.147
  0
LINE
  8
0
 10
-29.0729
 20
447.147
 11
-29.4379
 21
447.053
  0
LINE
  8
0
 10
-29.4379
 20
447.053
 11
-29.8116
 21
447.006
  0
LINE
  8
0
 10
-29.8116
 20
447.006
 11
-30.1884
 21
447.006
  0
LINE
  8
0
 10
29.8116
 20
447.006
 11
29.4379
 21
447.053
  0
LINE
  8
0
 10
29.4379
 20
447.053
 11
29.0729
 21
447.147
  0
LINE
  8
0
 10
29.0729
 20
447.147
 11
28.7227
 21
447.286
  0
LINE
  8
0
 10
28.7227
 20
447.286
 11
28.3925
 21
447.467
  0
LINE
  8
0
 10
28.3925
 20
447.467
 11
28.0877
 21
447.688
  0
LINE
  8
0
 10
28.0877
 20
447.688
 11
27.8131
 21
447.946
  0
LINE
  8
0
 10
27.8131
 20
447.946
 11
27.5729
 21
448.237
  0
LINE
  8
0
 10
27.5729
 20
448.237
 11
27.3711
 21
448.555
  0
LINE
  8
0
 10
27.3711
 20
448.555
 11
27.2107
 21
448.896
  0
LINE
  8
0
 10
27.2107
 20
448.896
 11
27.0942
 21
449.254
  0
LINE
  8
0
 10
27.0942
 20
449.254
 11
27.0237
 21
449.624
  0
LINE
  8
0
 10
27.0237
 20
449.624
 11
27
 21
450
  0
LINE
  8
0
 10
27
 20
450
 11
27.0237
 21
450.376
  0
LINE
  8
0
 10
27.0237
 20
450.376
 11
27.0942
 21
450.746
  0
LINE
  8
0
 10
27.0942
 20
450.746
 11
27.2107
 21
451.104
  0
LINE
  8
0
 10
27.2107
 20
451.104
 11
27.3711
 21
451.445
  0
LINE
  8
0
 10
27.3711
 20
451.445
 11
27.5729
 21
451.763
  0
LINE
  8
0
 10
27.5729
 20
451.763
 11
27.8131
 21
452.054
  0
LINE
  8
0
 10
27.8131
 20
452.054
 11
28.0877
 21
452.312
  0
LINE
  8
0
 10
28.0877
 20
452.312
 11
28.3925
 21
452.533
  0
LINE
  8
0
 10
28.3925
 20
452.533
 11
28.7227
 21
452.714
  0
LINE
  8
0
 10
28.7227
 20
452.714
 11
29.0729
 21
452.853
  0
LINE
  8
0
 10
29.0729
 20
452.853
 11
29.4379
 21
452.947
  0
LINE
  8
0
 10
29.4379
 20
452.947
 11
29.8116
 21
452.994
  0
LINE
  8
0
 10
29.8116
 20
452.994
 11
30.1884
 21
452.994
  0
LINE
  8
0
 10
30.1884
 20
452.994
 11
30.5621
 21
452.947
  0
LINE
  8
0
 10
30.5621
 20
452.947
 11
30.927
 21
452.853
  0
LINE
  8
0
 10
30.927
 20
452.853
 11
31.2773
 21
452.714
  0
LINE
  8
0
 10
31.2773
 20
452.714
 11
31.6075
 21
452.533
  0
LINE
  8
0
 10
31.6075
 20
452.533
 11
31.9123
 21
452.312
  0
LINE
  8
0
 10
31.9123
 20
452.312
 11
32.1869
 21
452.054
  0
LINE
  8
0
 10
32.1869
 20
452.054
 11
32.427
 21
451.763
  0
LINE
  8
0
 10
32.427
 20
451.763
 11
32.6289
 21
451.445
  0
LINE
  8
0
 10
32.6289
 20
451.445
 11
32.7893
 21
451.104
  0
LINE
  8
0
 10
32.7893
 20
451.104
 11
32.9057
 21
450.746
  0
LINE
  8
0
 10
32.9057
 20
450.746
 11
32.9763
 21
450.376
  0
LINE
  8
0
 10
32.9763
 20
450.376
 11
33
 21
450
  0
LINE
  8
0
 10
33
 20
450
 11
32.9763
 21
449.624
  0
LINE
  8
0
 10
32.9763
 20
449.624
 11
32.9057
 21
449.254
  0
LINE
  8
0
 10
32.9057
 20
449.254
 11
32.7893
 21
448.896
  0
LINE
  8
0
 10
32.7893
 20
448.896
 11
32.6289
 21
448.555
  0
LINE
  8
0
 10
32.6289
 20
448.555
 11
32.427
 21
448.237
  0
LINE
  8
0
 10
32.427
 20
448.237
 11
32.1869
 21
447.946
  0
LINE
  8
0
 10
32.1869
 20
447.946
 11
31.9123
 21
447.688
  0
LINE
  8
0
 10
31.9123
 20
447.688
 11
31.6075
 21
447.467
  0
LINE
  8
0
 10
31.6075
 20
447.467
 11
31.2773
 21
447.286
  0
LINE
  8
0
 10
31.2773
 20
447.286
 11
30.927
 21
447.147
  0
LINE
  8
0
 10
30.927
 20
447.147
 11
30.5621
 21
447.053
  0
LINE
  8
0
 10
30.5621
 20
447.053
 11
30.1884
 21
447.006
  0
LINE
  8
0
 10
30.1884
 20
447.006
 11
29.8116
 21
447.006
  0
LINE
  8
0
 10
-30.1884
 20
387.006
 11
-30.5621
 21
387.053
  0
LINE
  8
0
 10
-30.5621
 20
387.053
 11
-30.927
 21
387.147
  0
LINE
  8
0
 10
-30.927
 20
387.147
 11
-31.2773
 21
387.286
  0
LINE
  8
0
 10
-31.2773
 20
387.286
 11
-31.6075
 21
387.467
  0
LINE
  8
0
 10
-31.6075
 20
387.467
 11
-31.9123
 21
387.688
  0
LINE
  8
0
 10
-31.9123
 20
387.688
 11
-32.1869
 21
387.946
  0
LINE
  8
0
 10
-32.1869
 20
387.946
 11
-32.427
 21
388.237
  0
LINE
  8
0
 10
-32.427
 20
388.237
 11
-32.6289
 21
388.555
  0
LINE
  8
0
 10
-32.6289
 20
388.555
 11
-32.7893
 21
388.896
  0
LINE
  8
0
 10
-32.7893
 20
388.896
 11
-32.9057
 21
389.254
  0
LINE
  8
0
 10
-32.9057
 20
389.254
 11
-32.9763
 21
389.624
  0
LINE
  8
0
 10
-32.9763
 20
389.624
 11
-33
 21
390
  0
LINE
  8
0
 10
-33
 20
390
 11
-32.9763
 21
390.376
  0
LINE
  8
0
 10
-32.9763
 20
390.376
 11
-32.9057
 21
390.746
  0
LINE
  8
0
 10
-32.9057
 20
390.746
 11
-32.7893
 21
391.104
  0
LINE
  8
0
 10
-32.7893
 20
391.104
 11
-32.6289
 21
391.445
  0
LINE
  8
0
 10
-32.6289
 20
391.445
 11
-32.427
 21
391.763
  0
LINE
  8
0
 10
-32.427
 20
391.763
 11
-32.1869
 21
392.054
  0
LINE
  8
0
 10
-32.1869
 20
392.054
 11
-31.9123
 21
392.312
  0
LINE
  8
0
 10
-31.9123
 20
392.312
 11
-31.6075
 21
392.533
  0
LINE
  8
0
 10
-31.6075
 20
392.533
 11
-31.2773
 21
392.714
  0
LINE
  8
0
 10
-31.2773
 20
392.714
 11
-30.927
 21
392.853
  0
LINE
  8
0
 10
-30.927
 20
392.853
 11
-30.5621
 21
392.947
  0
LINE
  8
0
 10
-30.5621
 20
392.947
 11
-30.1884
 21
392.994
  0
LINE
  8
0
 10
-30.1884
 20
392.994
 11
-29.8116
 21
392.994
  0
LINE
  8
0
 10
-29.8116
 20
392.994
 11
-29.4379
 21
392.947
  0
LINE
  8
0
 10
-29.4379
 20
392.947
 11
-29.0729
 21
392.853
  0
LINE
  8
0
 10
-29.0729
 20
392.853
 11
-28.7227
 21
392.714
  0
LINE
  8
0
 10
-28.7227
 20
392.714
 11
-28.3925
 21
392.533
  0
LINE
  8
0
 10
-28.3925
 20
392.533
 11
-28.0877
 21
392.312
  0
LINE
  8
0
 10
-28.0877
 20
392.312
 11
-27.8131
 21
392.054
  0
LINE
  8
0
 10
-27.8131
 20
392.054
 11
-27.5729
 21
391.763
  0
LINE
  8
0
 10
-27.5729
 20
391.763
 11
-27.3711
 21
391.445
  0
LINE
  8
0
 10
-27.3711
 20
391.445
 11
-27.2107
 21
391.104
  0
LINE
  8
0
 10
-27.2107
 20
391.104
 11
-27.0942
 21
390.746
  0
LINE
  8
0
 10
-27.0942
 20
390.746
 11
-27.0237
 21
390.376
  0
LINE
  8
0
 10
-27.0237
 20
390.376
 11
-27
 21
390
  0
LINE
  8
0
 10
-27
 20
390
 11
-27.0237
 21
389.624
  0
LINE
  8
0
 10
-27.0237
 20
389.624
 11
-27.0942
 21
389.254
  0
LINE
  8
0
 10
-27.0942
 20
389.254
 11
-27.2107
 21
388.896
  0
LINE
  8
0
 10
-27.2107
 20
388.896
 11
-27.3711
 21
388.555
  0
LINE
  8
0
 10
-27.3711
 20
388.555
 11
-27.5729
 21
388.237
  0
LINE
  8
0
 10
-27.5729
 20
388.237
 11
-27.8131
 21
387.946
  0
LINE
  8
0
 10
-27.8131
 20
387.946
 11
-28.0877
 21
387.688
  0
LINE
  8
0
 10
-28.0877
 20
387.688
 11
-28.3925
 21
387.467
  0
LINE
  8
0
 10
-28.3925
 20
387.467
 11
-28.7227
 21
387.286
  0
LINE
  8
0
 10
-28.7227
 20
387.286
 11
-29.0729
 21
387.147
  0
LINE
  8
0
 10
-29.0729
 20
387.147
 11
-29.4379
 21
387.053
  0
LINE
  8
0
 10
-29.4379
 20
387.053
 11
-29.8116
 21
387.006
  0
LINE
  8
0
 10
-29.8116
 20
387.006
 11
-30.1884
 21
387.006
  0
LINE
  8
0
 10
29.8116
 20
387.006
 11
29.4379
 21
387.053
  0
LINE
  8
0
 10
29.4379
 20
387.053
 11
29.0729
 21
387.147
  0
LINE
  8
0
 10
29.0729
 20
387.147
 11
28.7227
 21
387.286
  0
LINE
  8
0
 10
28.7227
 20
387.286
 11
28.3925
 21
387.467
  0
LINE
  8
0
 10
28.3925
 20
387.467
 11
28.0877
 21
387.688
  0
LINE
  8
0
 10
28.0877
 20
387.688
 11
27.8131
 21
387.946
  0
LINE
  8
0
 10
27.8131
 20
387.946
 11
27.5729
 21
388.237
  0
LINE
  8
0
 10
27.5729
 20
388.237
 11
27.3711
 21
388.555
  0
LINE
  8
0
 10
27.3711
 20
388.555
 11
27.2107
 21
388.896
  0
LINE
  8
0
 10
27.2107
 20
388.896
 11
27.0942
 21
389.254
  0
LINE
  8
0
 10
27.0942
 20
389.254
 11
27.0237
 21
389.624
  0
LINE
  8
0
 10
27.0237
 20
389.624
 11
27
 21
390
  0
LINE
  8
0
 10
27
 20
390
 11
27.0237
 21
390.376
  0
LINE
  8
0
 10
27.0237
 20
390.376
 11
27.0942
 21
390.746
  0
LINE
  8
0
 10
27.0942
 20
390.746
 11
27.2107
 21
391.104
  0
LINE
  8
0
 10
27.2107
 20
391.104
 11
27.3711
 21
391.445
  0
LINE
  8
0
 10
27.3711
 20
391.445
 11
27.5729
 21
391.763
  0
LINE
  8
0
 10
27.5729
 20
391.763
 11
27.8131
 21
392.054
  0
LINE
  8
0
 10
27.8131
 20
392.054
 11
28.0877
 21
392.312
  0
LINE
  8
0
 10
28.0877
 20
392.312
 11
28.3925
 21
392.533
  0
LINE
  8
0
 10
28.3925
 20
392.533
 11
28.7227
 21
392.714
  0
LINE
  8
0
 10
28.7227
 20
392.714
 11
29.0729
 21
392.853
  0
LINE
  8
0
 10
29.0729
 20
392.853
 11
29.4379
 21
392.947
  0
LINE
  8
0
 10
29.4379
 20
392.947
 11
29.8116
 21
392.994
  0
LINE
  8
0
 10
29.8116
 20
392.994
 11
30.1884
 21
392.994
  0
LINE
  8
0
 10
30.1884
 20
392.994
 11
30.5621
 21
392.947
  0
LINE
  8
0
 10
30.5621
 20
392.947
 11
30.927
 21
392.853
  0
LINE
  8
0
 10
30.927
 20
392.853
 11
31.2773
 21
392.714
  0
LINE
  8
0
 10
31.2773
 20
392.714
 11
31.6075
 21
392.533
  0
LINE
  8
0
 10
31.6075
 20
392.533
 11
31.9123
 21
392.312
  0
LINE
  8
0
 10
31.9123
 20
392.312
 11
32.1869
 21
392.054
  0
LINE
  8
0
 10
32.1869
 20
392.054
 11
32.427
 21
391.763
  0
LINE
  8
0
 10
32.427
 20
391.763
 11
32.6289
 21
391.445
  0
LINE
  8
0
 10
32.6289
 20
391.445
 11
32.7893
 21
391.104
  0
LINE
  8
0
 10
32.7893
 20
391.104
 11
32.9057
 21
390.746
  0
LINE
  8
0
 10
32.9057
 20
390.746
 11
32.9763
 21
390.376
  0
LINE
  8
0
 10
32.9763
 20
390.376
 11
33
 21
390
  0
LINE
  8
0
 10
33
 20
390
 11
32.9763
 21
389.624
  0
LINE
  8
0
 10
32.9763
 20
389.624
 11
32.9057
 21
389.254
  0
LINE
  8
0
 10
32.9057
 20
389.254
 11
32.7893
 21
388.896
  0
LINE
  8
0
 10
32.7893
 20
388.896
 11
32.6289
 21
388.555
  0
LINE
  8
0
 10
32.6289
 20
388.555
 11
32.427
 21
388.237
  0
LINE
  8
0
 10
32.427
 20
388.237
 11
32.1869
 21
387.946
  0
LINE
  8
0
 10
32.1869
 20
387.946
 11
31.9123
 21
387.688
  0
LINE
  8
0
 10
31.9123
 20
387.688
 11
31.6075
 21
387.467
  0
LINE
  8
0
 10
31.6075
 20
387.467
 11
31.2773
 21
387.286
  0
LINE
  8
0
 10
31.2773
 20
387.286
 11
30.927
 21
387.147
  0
LINE
  8
0
 10
30.927
 20
387.147
 11
30.5621
 21
387.053
  0
LINE
  8
0
 10
30.5621
 20
387.053
 11
30.1884
 21
387.006
  0
LINE
  8
0
 10
30.1884
 20
387.006
 11
29.8116
 21
387.006
  0
ENDSEC
  0
SECTION
  2
OBJECTS
  0
DICTIONARY
  0
ENDSEC
  0
EOF
