  0
SECTION
  2
BLOCKS
  0
ENDSEC
  0
SECTION
  2
ENTITIES
  0
LINE
  8
0
 10
115.437
 20
17.0886
 11
116.045
 21
17.2447
  0
LINE
  8
0
 10
116.045
 20
17.2447
 11
116.629
 21
17.4759
  0
LINE
  8
0
 10
116.629
 20
17.4759
 11
117.179
 21
17.7784
  0
LINE
  8
0
 10
117.179
 20
17.7784
 11
117.687
 21
18.1474
  0
LINE
  8
0
 10
117.687
 20
18.1474
 11
118.145
 21
18.5773
  0
LINE
  8
0
 10
118.145
 20
18.5773
 11
118.545
 21
19.0611
  0
LINE
  8
0
 10
118.545
 20
19.0611
 11
118.882
 21
19.5912
  0
LINE
  8
0
 10
118.882
 20
19.5912
 11
119.149
 21
20.1594
  0
LINE
  8
0
 10
119.149
 20
20.1594
 11
119.343
 21
20.7566
  0
LINE
  8
0
 10
119.343
 20
20.7566
 11
119.461
 21
21.3733
  0
LINE
  8
0
 10
119.461
 20
21.3733
 11
119.5
 21
22
  0
LINE
  8
0
 10
119.5
 20
22
 11
119.5
 21
26
  0
LINE
  8
0
 10
119.5
 20
26
 11
119.461
 21
26.6267
  0
LINE
  8
0
 10
119.461
 20
26.6267
 11
119.343
 21
27.2434
  0
LINE
  8
0
 10
119.343
 20
27.2434
 11
119.149
 21
27.8406
  0
LINE
  8
0
 10
119.149
 20
27.8406
 11
118.882
 21
28.4088
  0
LINE
  8
0
 10
118.882
 20
28.4088
 11
118.545
 21
28.9389
  0
LINE
  8
0
 10
118.545
 20
28.9389
 11
118.145
 21
29.4227
  0
LINE
  8
0
 10
118.145
 20
29.4227
 11
117.687
 21
29.8526
  0
LINE
  8
0
 10
117.687
 20
29.8526
 11
117.179
 21
30.2216
  0
LINE
  8
0
 10
117.179
 20
30.2216
 11
116.629
 21
30.5241
  0
LINE
  8
0
 10
116.629
 20
30.5241
 11
116.045
 21
30.7553
  0
LINE
  8
0
 10
116.045
 20
30.7553
 11
115.437
 21
30.9114
  0
LINE
  8
0
 10
115.437
 20
30.9114
 11
114.814
 21
30.9901
  0
LINE
  8
0
 10
114.814
 20
30.9901
 11
-114.814
 21
30.9901
  0
LINE
  8
0
 10
-114.814
 20
30.9901
 11
-115.437
 21
30.9114
  0
LINE
  8
0
 10
-115.437
 20
30.9114
 11
-116.045
 21
30.7553
  0
LINE
  8
0
 10
-116.045
 20
30.7553
 11
-116.629
 21
30.5241
  0
LINE
  8
0
 10
-116.629
 20
30.5241
 11
-117.179
 21
30.2216
  0
LINE
  8
0
 10
-117.179
 20
30.2216
 11
-117.687
 21
29.8526
  0
LINE
  8
0
 10
-117.687
 20
29.8526
 11
-118.145
 21
29.4227
  0
LINE
  8
0
 10
-118.145
 20
29.4227
 11
-118.545
 21
28.9389
  0
LINE
  8
0
 10
-118.545
 20
28.9389
 11
-118.882
 21
28.4088
  0
LINE
  8
0
 10
-118.882
 20
28.4088
 11
-119.149
 21
27.8406
  0
LINE
  8
0
 10
-119.149
 20
27.8406
 11
-119.343
 21
27.2434
  0
LINE
  8
0
 10
-119.343
 20
27.2434
 11
-119.461
 21
26.6267
  0
LINE
  8
0
 10
-119.461
 20
26.6267
 11
-119.5
 21
26
  0
LINE
  8
0
 10
-119.5
 20
26
 11
-119.5
 21
22
  0
LINE
  8
0
 10
-119.5
 20
22
 11
-119.461
 21
21.3733
  0
LINE
  8
0
 10
-119.461
 20
21.3733
 11
-119.343
 21
20.7566
  0
LINE
  8
0
 10
-119.343
 20
20.7566
 11
-119.149
 21
20.1594
  0
LINE
  8
0
 10
-119.149
 20
20.1594
 11
-118.882
 21
19.5912
  0
LINE
  8
0
 10
-118.882
 20
19.5912
 11
-118.545
 21
19.0611
  0
LINE
  8
0
 10
-118.545
 20
19.0611
 11
-118.145
 21
18.5773
  0
LINE
  8
0
 10
-118.145
 20
18.5773
 11
-117.687
 21
18.1474
  0
LINE
  8
0
 10
-117.687
 20
18.1474
 11
-117.179
 21
17.7784
  0
LINE
  8
0
 10
-117.179
 20
17.7784
 11
-116.629
 21
17.4759
  0
LINE
  8
0
 10
-116.629
 20
17.4759
 11
-116.045
 21
17.2447
  0
LINE
  8
0
 10
-116.045
 20
17.2447
 11
-115.437
 21
17.0886
  0
LINE
  8
0
 10
-115.437
 20
17.0886
 11
-114.814
 21
17.0099
  0
LINE
  8
0
 10
-114.814
 20
17.0099
 11
114.814
 21
17.0099
  0
LINE
  8
0
 10
114.814
 20
17.0099
 11
115.437
 21
17.0886
  0
LINE
  8
0
 10
112.312
 20
21.0059
 11
111.938
 21
21.0531
  0
LINE
  8
0
 10
111.938
 20
21.0531
 11
111.573
 21
21.1468
  0
LINE
  8
0
 10
111.573
 20
21.1468
 11
111.223
 21
21.2855
  0
LINE
  8
0
 10
111.223
 20
21.2855
 11
110.893
 21
21.467
  0
LINE
  8
0
 10
110.893
 20
21.467
 11
110.588
 21
21.6885
  0
LINE
  8
0
 10
110.588
 20
21.6885
 11
110.313
 21
21.9464
  0
LINE
  8
0
 10
110.313
 20
21.9464
 11
110.073
 21
22.2366
  0
LINE
  8
0
 10
110.073
 20
22.2366
 11
109.871
 21
22.5547
  0
LINE
  8
0
 10
109.871
 20
22.5547
 11
109.711
 21
22.8956
  0
LINE
  8
0
 10
109.711
 20
22.8956
 11
109.594
 21
23.2539
  0
LINE
  8
0
 10
109.594
 20
23.2539
 11
109.524
 21
23.624
  0
LINE
  8
0
 10
109.524
 20
23.624
 11
109.5
 21
24
  0
LINE
  8
0
 10
109.5
 20
24
 11
109.524
 21
24.376
  0
LINE
  8
0
 10
109.524
 20
24.376
 11
109.594
 21
24.7461
  0
LINE
  8
0
 10
109.594
 20
24.7461
 11
109.711
 21
25.1044
  0
LINE
  8
0
 10
109.711
 20
25.1044
 11
109.871
 21
25.4453
  0
LINE
  8
0
 10
109.871
 20
25.4453
 11
110.073
 21
25.7634
  0
LINE
  8
0
 10
110.073
 20
25.7634
 11
110.313
 21
26.0536
  0
LINE
  8
0
 10
110.313
 20
26.0536
 11
110.588
 21
26.3115
  0
LINE
  8
0
 10
110.588
 20
26.3115
 11
110.893
 21
26.533
  0
LINE
  8
0
 10
110.893
 20
26.533
 11
111.223
 21
26.7145
  0
LINE
  8
0
 10
111.223
 20
26.7145
 11
111.573
 21
26.8532
  0
LINE
  8
0
 10
111.573
 20
26.8532
 11
111.938
 21
26.9469
  0
LINE
  8
0
 10
111.938
 20
26.9469
 11
112.312
 21
26.9941
  0
LINE
  8
0
 10
112.312
 20
26.9941
 11
112.688
 21
26.9941
  0
LINE
  8
0
 10
112.688
 20
26.9941
 11
113.062
 21
26.9469
  0
LINE
  8
0
 10
113.062
 20
26.9469
 11
113.427
 21
26.8532
  0
LINE
  8
0
 10
113.427
 20
26.8532
 11
113.777
 21
26.7145
  0
LINE
  8
0
 10
113.777
 20
26.7145
 11
114.107
 21
26.533
  0
LINE
  8
0
 10
114.107
 20
26.533
 11
114.412
 21
26.3115
  0
LINE
  8
0
 10
114.412
 20
26.3115
 11
114.687
 21
26.0536
  0
LINE
  8
0
 10
114.687
 20
26.0536
 11
114.927
 21
25.7634
  0
LINE
  8
0
 10
114.927
 20
25.7634
 11
115.129
 21
25.4453
  0
LINE
  8
0
 10
115.129
 20
25.4453
 11
115.289
 21
25.1044
  0
LINE
  8
0
 10
115.289
 20
25.1044
 11
115.406
 21
24.7461
  0
LINE
  8
0
 10
115.406
 20
24.7461
 11
115.476
 21
24.376
  0
LINE
  8
0
 10
115.476
 20
24.376
 11
115.5
 21
24
  0
LINE
  8
0
 10
115.5
 20
24
 11
115.476
 21
23.624
  0
LINE
  8
0
 10
115.476
 20
23.624
 11
115.406
 21
23.2539
  0
LINE
  8
0
 10
115.406
 20
23.2539
 11
115.289
 21
22.8956
  0
LINE
  8
0
 10
115.289
 20
22.8956
 11
115.129
 21
22.5547
  0
LINE
  8
0
 10
115.129
 20
22.5547
 11
114.927
 21
22.2366
  0
LINE
  8
0
 10
114.927
 20
22.2366
 11
114.687
 21
21.9464
  0
LINE
  8
0
 10
114.687
 20
21.9464
 11
114.412
 21
21.6885
  0
LINE
  8
0
 10
114.412
 20
21.6885
 11
114.107
 21
21.467
  0
LINE
  8
0
 10
114.107
 20
21.467
 11
113.777
 21
21.2855
  0
LINE
  8
0
 10
113.777
 20
21.2855
 11
113.427
 21
21.1468
  0
LINE
  8
0
 10
113.427
 20
21.1468
 11
113.062
 21
21.0531
  0
LINE
  8
0
 10
113.062
 20
21.0531
 11
112.688
 21
21.0059
  0
LINE
  8
0
 10
112.688
 20
21.0059
 11
112.312
 21
21.0059
  0
LINE
  8
0
 10
-112.688
 20
21.0059
 11
-113.062
 21
21.0531
  0
LINE
  8
0
 10
-113.062
 20
21.0531
 11
-113.427
 21
21.1468
  0
LINE
  8
0
 10
-113.427
 20
21.1468
 11
-113.777
 21
21.2855
  0
LINE
  8
0
 10
-113.777
 20
21.2855
 11
-114.107
 21
21.467
  0
LINE
  8
0
 10
-114.107
 20
21.467
 11
-114.412
 21
21.6885
  0
LINE
  8
0
 10
-114.412
 20
21.6885
 11
-114.687
 21
21.9464
  0
LINE
  8
0
 10
-114.687
 20
21.9464
 11
-114.927
 21
22.2366
  0
LINE
  8
0
 10
-114.927
 20
22.2366
 11
-115.129
 21
22.5547
  0
LINE
  8
0
 10
-115.129
 20
22.5547
 11
-115.289
 21
22.8956
  0
LINE
  8
0
 10
-115.289
 20
22.8956
 11
-115.406
 21
23.2539
  0
LINE
  8
0
 10
-115.406
 20
23.2539
 11
-115.476
 21
23.624
  0
LINE
  8
0
 10
-115.476
 20
23.624
 11
-115.5
 21
24
  0
LINE
  8
0
 10
-115.5
 20
24
 11
-115.476
 21
24.376
  0
LINE
  8
0
 10
-115.476
 20
24.376
 11
-115.406
 21
24.7461
  0
LINE
  8
0
 10
-115.406
 20
24.7461
 11
-115.289
 21
25.1044
  0
LINE
  8
0
 10
-115.289
 20
25.1044
 11
-115.129
 21
25.4453
  0
LINE
  8
0
 10
-115.129
 20
25.4453
 11
-114.927
 21
25.7634
  0
LINE
  8
0
 10
-114.927
 20
25.7634
 11
-114.687
 21
26.0536
  0
LINE
  8
0
 10
-114.687
 20
26.0536
 11
-114.412
 21
26.3115
  0
LINE
  8
0
 10
-114.412
 20
26.3115
 11
-114.107
 21
26.533
  0
LINE
  8
0
 10
-114.107
 20
26.533
 11
-113.777
 21
26.7145
  0
LINE
  8
0
 10
-113.777
 20
26.7145
 11
-113.427
 21
26.8532
  0
LINE
  8
0
 10
-113.427
 20
26.8532
 11
-113.062
 21
26.9469
  0
LINE
  8
0
 10
-113.062
 20
26.9469
 11
-112.688
 21
26.9941
  0
LINE
  8
0
 10
-112.688
 20
26.9941
 11
-112.312
 21
26.9941
  0
LINE
  8
0
 10
-112.312
 20
26.9941
 11
-111.938
 21
26.9469
  0
LINE
  8
0
 10
-111.938
 20
26.9469
 11
-111.573
 21
26.8532
  0
LINE
  8
0
 10
-111.573
 20
26.8532
 11
-111.223
 21
26.7145
  0
LINE
  8
0
 10
-111.223
 20
26.7145
 11
-110.893
 21
26.533
  0
LINE
  8
0
 10
-110.893
 20
26.533
 11
-110.588
 21
26.3115
  0
LINE
  8
0
 10
-110.588
 20
26.3115
 11
-110.313
 21
26.0536
  0
LINE
  8
0
 10
-110.313
 20
26.0536
 11
-110.073
 21
25.7634
  0
LINE
  8
0
 10
-110.073
 20
25.7634
 11
-109.871
 21
25.4453
  0
LINE
  8
0
 10
-109.871
 20
25.4453
 11
-109.711
 21
25.1044
  0
LINE
  8
0
 10
-109.711
 20
25.1044
 11
-109.594
 21
24.7461
  0
LINE
  8
0
 10
-109.594
 20
24.7461
 11
-109.524
 21
24.376
  0
LINE
  8
0
 10
-109.524
 20
24.376
 11
-109.5
 21
24
  0
LINE
  8
0
 10
-109.5
 20
24
 11
-109.524
 21
23.624
  0
LINE
  8
0
 10
-109.524
 20
23.624
 11
-109.594
 21
23.2539
  0
LINE
  8
0
 10
-109.594
 20
23.2539
 11
-109.711
 21
22.8956
  0
LINE
  8
0
 10
-109.711
 20
22.8956
 11
-109.871
 21
22.5547
  0
LINE
  8
0
 10
-109.871
 20
22.5547
 11
-110.073
 21
22.2366
  0
LINE
  8
0
 10
-110.073
 20
22.2366
 11
-110.313
 21
21.9464
  0
LINE
  8
0
 10
-110.313
 20
21.9464
 11
-110.588
 21
21.6885
  0
LINE
  8
0
 10
-110.588
 20
21.6885
 11
-110.893
 21
21.467
  0
LINE
  8
0
 10
-110.893
 20
21.467
 11
-111.223
 21
21.2855
  0
LINE
  8
0
 10
-111.223
 20
21.2855
 11
-111.573
 21
21.1468
  0
LINE
  8
0
 10
-111.573
 20
21.1468
 11
-111.938
 21
21.0531
  0
LINE
  8
0
 10
-111.938
 20
21.0531
 11
-112.312
 21
21.0059
  0
LINE
  8
0
 10
-112.312
 20
21.0059
 11
-112.688
 21
21.0059
  0
ENDSEC
  0
SECTION
  2
OBJECTS
  0
DICTIONARY
  0
ENDSEC
  0
EOF
