  0
SECTION
  2
BLOCKS
  0
ENDSEC
  0
SECTION
  2
ENTITIES
  0
LINE
  8
0
 10
122.937
 20
-21.9114
 11
123.545
 21
-21.7553
  0
LINE
  8
0
 10
123.545
 20
-21.7553
 11
124.129
 21
-21.5241
  0
LINE
  8
0
 10
124.129
 20
-21.5241
 11
124.679
 21
-21.2216
  0
LINE
  8
0
 10
124.679
 20
-21.2216
 11
125.187
 21
-20.8526
  0
LINE
  8
0
 10
125.187
 20
-20.8526
 11
125.645
 21
-20.4227
  0
LINE
  8
0
 10
125.645
 20
-20.4227
 11
126.045
 21
-19.9389
  0
LINE
  8
0
 10
126.045
 20
-19.9389
 11
126.382
 21
-19.4088
  0
LINE
  8
0
 10
126.382
 20
-19.4088
 11
126.649
 21
-18.8406
  0
LINE
  8
0
 10
126.649
 20
-18.8406
 11
126.843
 21
-18.2434
  0
LINE
  8
0
 10
126.843
 20
-18.2434
 11
126.961
 21
-17.6267
  0
LINE
  8
0
 10
126.961
 20
-17.6267
 11
127
 21
-17
  0
LINE
  8
0
 10
127
 20
-17
 11
127
 21
17
  0
LINE
  8
0
 10
127
 20
17
 11
126.961
 21
17.6267
  0
LINE
  8
0
 10
126.961
 20
17.6267
 11
126.843
 21
18.2434
  0
LINE
  8
0
 10
126.843
 20
18.2434
 11
126.649
 21
18.8406
  0
LINE
  8
0
 10
126.649
 20
18.8406
 11
126.382
 21
19.4088
  0
LINE
  8
0
 10
126.382
 20
19.4088
 11
126.045
 21
19.9389
  0
LINE
  8
0
 10
126.045
 20
19.9389
 11
125.645
 21
20.4227
  0
LINE
  8
0
 10
125.645
 20
20.4227
 11
125.187
 21
20.8526
  0
LINE
  8
0
 10
125.187
 20
20.8526
 11
124.679
 21
21.2216
  0
LINE
  8
0
 10
124.679
 20
21.2216
 11
124.129
 21
21.5241
  0
LINE
  8
0
 10
124.129
 20
21.5241
 11
123.545
 21
21.7553
  0
LINE
  8
0
 10
123.545
 20
21.7553
 11
122.937
 21
21.9114
  0
LINE
  8
0
 10
122.937
 20
21.9114
 11
122.314
 21
21.9901
  0
LINE
  8
0
 10
122.314
 20
21.9901
 11
-122.314
 21
21.9901
  0
LINE
  8
0
 10
-122.314
 20
21.9901
 11
-122.937
 21
21.9114
  0
LINE
  8
0
 10
-122.937
 20
21.9114
 11
-123.545
 21
21.7553
  0
LINE
  8
0
 10
-123.545
 20
21.7553
 11
-124.129
 21
21.5241
  0
LINE
  8
0
 10
-124.129
 20
21.5241
 11
-124.679
 21
21.2216
  0
LINE
  8
0
 10
-124.679
 20
21.2216
 11
-125.187
 21
20.8526
  0
LINE
  8
0
 10
-125.187
 20
20.8526
 11
-125.645
 21
20.4227
  0
LINE
  8
0
 10
-125.645
 20
20.4227
 11
-126.045
 21
19.9389
  0
LINE
  8
0
 10
-126.045
 20
19.9389
 11
-126.382
 21
19.4088
  0
LINE
  8
0
 10
-126.382
 20
19.4088
 11
-126.649
 21
18.8406
  0
LINE
  8
0
 10
-126.649
 20
18.8406
 11
-126.843
 21
18.2434
  0
LINE
  8
0
 10
-126.843
 20
18.2434
 11
-126.961
 21
17.6267
  0
LINE
  8
0
 10
-126.961
 20
17.6267
 11
-127
 21
17
  0
LINE
  8
0
 10
-127
 20
17
 11
-127
 21
-17
  0
LINE
  8
0
 10
-127
 20
-17
 11
-126.961
 21
-17.6267
  0
LINE
  8
0
 10
-126.961
 20
-17.6267
 11
-126.843
 21
-18.2434
  0
LINE
  8
0
 10
-126.843
 20
-18.2434
 11
-126.649
 21
-18.8406
  0
LINE
  8
0
 10
-126.649
 20
-18.8406
 11
-126.382
 21
-19.4088
  0
LINE
  8
0
 10
-126.382
 20
-19.4088
 11
-126.045
 21
-19.9389
  0
LINE
  8
0
 10
-126.045
 20
-19.9389
 11
-125.645
 21
-20.4227
  0
LINE
  8
0
 10
-125.645
 20
-20.4227
 11
-125.187
 21
-20.8526
  0
LINE
  8
0
 10
-125.187
 20
-20.8526
 11
-124.679
 21
-21.2216
  0
LINE
  8
0
 10
-124.679
 20
-21.2216
 11
-124.129
 21
-21.5241
  0
LINE
  8
0
 10
-124.129
 20
-21.5241
 11
-123.545
 21
-21.7553
  0
LINE
  8
0
 10
-123.545
 20
-21.7553
 11
-122.937
 21
-21.9114
  0
LINE
  8
0
 10
-122.937
 20
-21.9114
 11
-122.314
 21
-21.9901
  0
LINE
  8
0
 10
-122.314
 20
-21.9901
 11
122.314
 21
-21.9901
  0
LINE
  8
0
 10
122.314
 20
-21.9901
 11
122.937
 21
-21.9114
  0
LINE
  8
0
 10
117.024
 20
15.376
 11
117.094
 21
15.7461
  0
LINE
  8
0
 10
117.094
 20
15.7461
 11
117.211
 21
16.1044
  0
LINE
  8
0
 10
117.211
 20
16.1044
 11
117.371
 21
16.4453
  0
LINE
  8
0
 10
117.371
 20
16.4453
 11
117.573
 21
16.7634
  0
LINE
  8
0
 10
117.573
 20
16.7634
 11
117.813
 21
17.0536
  0
LINE
  8
0
 10
117.813
 20
17.0536
 11
118.088
 21
17.3115
  0
LINE
  8
0
 10
118.088
 20
17.3115
 11
118.393
 21
17.533
  0
LINE
  8
0
 10
118.393
 20
17.533
 11
118.723
 21
17.7145
  0
LINE
  8
0
 10
118.723
 20
17.7145
 11
119.073
 21
17.8532
  0
LINE
  8
0
 10
119.073
 20
17.8532
 11
119.438
 21
17.9469
  0
LINE
  8
0
 10
119.438
 20
17.9469
 11
119.812
 21
17.9941
  0
LINE
  8
0
 10
119.812
 20
17.9941
 11
120.188
 21
17.9941
  0
LINE
  8
0
 10
120.188
 20
17.9941
 11
120.562
 21
17.9469
  0
LINE
  8
0
 10
120.562
 20
17.9469
 11
120.927
 21
17.8532
  0
LINE
  8
0
 10
120.927
 20
17.8532
 11
121.277
 21
17.7145
  0
LINE
  8
0
 10
121.277
 20
17.7145
 11
121.607
 21
17.533
  0
LINE
  8
0
 10
121.607
 20
17.533
 11
121.912
 21
17.3115
  0
LINE
  8
0
 10
121.912
 20
17.3115
 11
122.187
 21
17.0536
  0
LINE
  8
0
 10
122.187
 20
17.0536
 11
122.427
 21
16.7634
  0
LINE
  8
0
 10
122.427
 20
16.7634
 11
122.629
 21
16.4453
  0
LINE
  8
0
 10
122.629
 20
16.4453
 11
122.789
 21
16.1044
  0
LINE
  8
0
 10
122.789
 20
16.1044
 11
122.906
 21
15.7461
  0
LINE
  8
0
 10
122.906
 20
15.7461
 11
122.976
 21
15.376
  0
LINE
  8
0
 10
122.976
 20
15.376
 11
123
 21
15
  0
LINE
  8
0
 10
123
 20
15
 11
122.976
 21
14.624
  0
LINE
  8
0
 10
122.976
 20
14.624
 11
122.906
 21
14.2539
  0
LINE
  8
0
 10
122.906
 20
14.2539
 11
122.789
 21
13.8956
  0
LINE
  8
0
 10
122.789
 20
13.8956
 11
122.629
 21
13.5547
  0
LINE
  8
0
 10
122.629
 20
13.5547
 11
122.427
 21
13.2366
  0
LINE
  8
0
 10
122.427
 20
13.2366
 11
122.187
 21
12.9464
  0
LINE
  8
0
 10
122.187
 20
12.9464
 11
121.912
 21
12.6884
  0
LINE
  8
0
 10
121.912
 20
12.6884
 11
121.607
 21
12.467
  0
LINE
  8
0
 10
121.607
 20
12.467
 11
121.277
 21
12.2855
  0
LINE
  8
0
 10
121.277
 20
12.2855
 11
120.927
 21
12.1468
  0
LINE
  8
0
 10
120.927
 20
12.1468
 11
120.562
 21
12.0531
  0
LINE
  8
0
 10
120.562
 20
12.0531
 11
120.188
 21
12.0059
  0
LINE
  8
0
 10
120.188
 20
12.0059
 11
119.812
 21
12.0059
  0
LINE
  8
0
 10
119.812
 20
12.0059
 11
119.438
 21
12.0531
  0
LINE
  8
0
 10
119.438
 20
12.0531
 11
119.073
 21
12.1468
  0
LINE
  8
0
 10
119.073
 20
12.1468
 11
118.723
 21
12.2855
  0
LINE
  8
0
 10
118.723
 20
12.2855
 11
118.393
 21
12.467
  0
LINE
  8
0
 10
118.393
 20
12.467
 11
118.088
 21
12.6884
  0
LINE
  8
0
 10
118.088
 20
12.6884
 11
117.813
 21
12.9464
  0
LINE
  8
0
 10
117.813
 20
12.9464
 11
117.573
 21
13.2366
  0
LINE
  8
0
 10
117.573
 20
13.2366
 11
117.371
 21
13.5547
  0
LINE
  8
0
 10
117.371
 20
13.5547
 11
117.211
 21
13.8956
  0
LINE
  8
0
 10
117.211
 20
13.8956
 11
117.094
 21
14.2539
  0
LINE
  8
0
 10
117.094
 20
14.2539
 11
117.024
 21
14.624
  0
LINE
  8
0
 10
117.024
 20
14.624
 11
117
 21
15
  0
LINE
  8
0
 10
117
 20
15
 11
117.024
 21
15.376
  0
LINE
  8
0
 10
-120.188
 20
-17.9941
 11
-120.562
 21
-17.9469
  0
LINE
  8
0
 10
-120.562
 20
-17.9469
 11
-120.927
 21
-17.8532
  0
LINE
  8
0
 10
-120.927
 20
-17.8532
 11
-121.277
 21
-17.7145
  0
LINE
  8
0
 10
-121.277
 20
-17.7145
 11
-121.607
 21
-17.533
  0
LINE
  8
0
 10
-121.607
 20
-17.533
 11
-121.912
 21
-17.3115
  0
LINE
  8
0
 10
-121.912
 20
-17.3115
 11
-122.187
 21
-17.0536
  0
LINE
  8
0
 10
-122.187
 20
-17.0536
 11
-122.427
 21
-16.7634
  0
LINE
  8
0
 10
-122.427
 20
-16.7634
 11
-122.629
 21
-16.4453
  0
LINE
  8
0
 10
-122.629
 20
-16.4453
 11
-122.789
 21
-16.1044
  0
LINE
  8
0
 10
-122.789
 20
-16.1044
 11
-122.906
 21
-15.7461
  0
LINE
  8
0
 10
-122.906
 20
-15.7461
 11
-122.976
 21
-15.376
  0
LINE
  8
0
 10
-122.976
 20
-15.376
 11
-123
 21
-15
  0
LINE
  8
0
 10
-123
 20
-15
 11
-122.976
 21
-14.624
  0
LINE
  8
0
 10
-122.976
 20
-14.624
 11
-122.906
 21
-14.2539
  0
LINE
  8
0
 10
-122.906
 20
-14.2539
 11
-122.789
 21
-13.8956
  0
LINE
  8
0
 10
-122.789
 20
-13.8956
 11
-122.629
 21
-13.5547
  0
LINE
  8
0
 10
-122.629
 20
-13.5547
 11
-122.427
 21
-13.2366
  0
LINE
  8
0
 10
-122.427
 20
-13.2366
 11
-122.187
 21
-12.9464
  0
LINE
  8
0
 10
-122.187
 20
-12.9464
 11
-121.912
 21
-12.6884
  0
LINE
  8
0
 10
-121.912
 20
-12.6884
 11
-121.607
 21
-12.467
  0
LINE
  8
0
 10
-121.607
 20
-12.467
 11
-121.277
 21
-12.2855
  0
LINE
  8
0
 10
-121.277
 20
-12.2855
 11
-120.927
 21
-12.1468
  0
LINE
  8
0
 10
-120.927
 20
-12.1468
 11
-120.562
 21
-12.0531
  0
LINE
  8
0
 10
-120.562
 20
-12.0531
 11
-120.188
 21
-12.0059
  0
LINE
  8
0
 10
-120.188
 20
-12.0059
 11
-119.812
 21
-12.0059
  0
LINE
  8
0
 10
-119.812
 20
-12.0059
 11
-119.438
 21
-12.0531
  0
LINE
  8
0
 10
-119.438
 20
-12.0531
 11
-119.073
 21
-12.1468
  0
LINE
  8
0
 10
-119.073
 20
-12.1468
 11
-118.723
 21
-12.2855
  0
LINE
  8
0
 10
-118.723
 20
-12.2855
 11
-118.393
 21
-12.467
  0
LINE
  8
0
 10
-118.393
 20
-12.467
 11
-118.088
 21
-12.6884
  0
LINE
  8
0
 10
-118.088
 20
-12.6884
 11
-117.813
 21
-12.9464
  0
LINE
  8
0
 10
-117.813
 20
-12.9464
 11
-117.573
 21
-13.2366
  0
LINE
  8
0
 10
-117.573
 20
-13.2366
 11
-117.371
 21
-13.5547
  0
LINE
  8
0
 10
-117.371
 20
-13.5547
 11
-117.211
 21
-13.8956
  0
LINE
  8
0
 10
-117.211
 20
-13.8956
 11
-117.094
 21
-14.2539
  0
LINE
  8
0
 10
-117.094
 20
-14.2539
 11
-117.024
 21
-14.624
  0
LINE
  8
0
 10
-117.024
 20
-14.624
 11
-117
 21
-15
  0
LINE
  8
0
 10
-117
 20
-15
 11
-117.024
 21
-15.376
  0
LINE
  8
0
 10
-117.024
 20
-15.376
 11
-117.094
 21
-15.7461
  0
LINE
  8
0
 10
-117.094
 20
-15.7461
 11
-117.211
 21
-16.1044
  0
LINE
  8
0
 10
-117.211
 20
-16.1044
 11
-117.371
 21
-16.4453
  0
LINE
  8
0
 10
-117.371
 20
-16.4453
 11
-117.573
 21
-16.7634
  0
LINE
  8
0
 10
-117.573
 20
-16.7634
 11
-117.813
 21
-17.0536
  0
LINE
  8
0
 10
-117.813
 20
-17.0536
 11
-118.088
 21
-17.3115
  0
LINE
  8
0
 10
-118.088
 20
-17.3115
 11
-118.393
 21
-17.533
  0
LINE
  8
0
 10
-118.393
 20
-17.533
 11
-118.723
 21
-17.7145
  0
LINE
  8
0
 10
-118.723
 20
-17.7145
 11
-119.073
 21
-17.8532
  0
LINE
  8
0
 10
-119.073
 20
-17.8532
 11
-119.438
 21
-17.9469
  0
LINE
  8
0
 10
-119.438
 20
-17.9469
 11
-119.812
 21
-17.9941
  0
LINE
  8
0
 10
-119.812
 20
-17.9941
 11
-120.188
 21
-17.9941
  0
LINE
  8
0
 10
119.812
 20
-17.9941
 11
119.438
 21
-17.9469
  0
LINE
  8
0
 10
119.438
 20
-17.9469
 11
119.073
 21
-17.8532
  0
LINE
  8
0
 10
119.073
 20
-17.8532
 11
118.723
 21
-17.7145
  0
LINE
  8
0
 10
118.723
 20
-17.7145
 11
118.393
 21
-17.533
  0
LINE
  8
0
 10
118.393
 20
-17.533
 11
118.088
 21
-17.3115
  0
LINE
  8
0
 10
118.088
 20
-17.3115
 11
117.813
 21
-17.0536
  0
LINE
  8
0
 10
117.813
 20
-17.0536
 11
117.573
 21
-16.7634
  0
LINE
  8
0
 10
117.573
 20
-16.7634
 11
117.371
 21
-16.4453
  0
LINE
  8
0
 10
117.371
 20
-16.4453
 11
117.211
 21
-16.1044
  0
LINE
  8
0
 10
117.211
 20
-16.1044
 11
117.094
 21
-15.7461
  0
LINE
  8
0
 10
117.094
 20
-15.7461
 11
117.024
 21
-15.376
  0
LINE
  8
0
 10
117.024
 20
-15.376
 11
117
 21
-15
  0
LINE
  8
0
 10
117
 20
-15
 11
117.024
 21
-14.624
  0
LINE
  8
0
 10
117.024
 20
-14.624
 11
117.094
 21
-14.2539
  0
LINE
  8
0
 10
117.094
 20
-14.2539
 11
117.211
 21
-13.8956
  0
LINE
  8
0
 10
117.211
 20
-13.8956
 11
117.371
 21
-13.5547
  0
LINE
  8
0
 10
117.371
 20
-13.5547
 11
117.573
 21
-13.2366
  0
LINE
  8
0
 10
117.573
 20
-13.2366
 11
117.813
 21
-12.9464
  0
LINE
  8
0
 10
117.813
 20
-12.9464
 11
118.088
 21
-12.6884
  0
LINE
  8
0
 10
118.088
 20
-12.6884
 11
118.393
 21
-12.467
  0
LINE
  8
0
 10
118.393
 20
-12.467
 11
118.723
 21
-12.2855
  0
LINE
  8
0
 10
118.723
 20
-12.2855
 11
119.073
 21
-12.1468
  0
LINE
  8
0
 10
119.073
 20
-12.1468
 11
119.438
 21
-12.0531
  0
LINE
  8
0
 10
119.438
 20
-12.0531
 11
119.812
 21
-12.0059
  0
LINE
  8
0
 10
119.812
 20
-12.0059
 11
120.188
 21
-12.0059
  0
LINE
  8
0
 10
120.188
 20
-12.0059
 11
120.562
 21
-12.0531
  0
LINE
  8
0
 10
120.562
 20
-12.0531
 11
120.927
 21
-12.1468
  0
LINE
  8
0
 10
120.927
 20
-12.1468
 11
121.277
 21
-12.2855
  0
LINE
  8
0
 10
121.277
 20
-12.2855
 11
121.607
 21
-12.467
  0
LINE
  8
0
 10
121.607
 20
-12.467
 11
121.912
 21
-12.6884
  0
LINE
  8
0
 10
121.912
 20
-12.6884
 11
122.187
 21
-12.9464
  0
LINE
  8
0
 10
122.187
 20
-12.9464
 11
122.427
 21
-13.2366
  0
LINE
  8
0
 10
122.427
 20
-13.2366
 11
122.629
 21
-13.5547
  0
LINE
  8
0
 10
122.629
 20
-13.5547
 11
122.789
 21
-13.8956
  0
LINE
  8
0
 10
122.789
 20
-13.8956
 11
122.906
 21
-14.2539
  0
LINE
  8
0
 10
122.906
 20
-14.2539
 11
122.976
 21
-14.624
  0
LINE
  8
0
 10
122.976
 20
-14.624
 11
123
 21
-15
  0
LINE
  8
0
 10
123
 20
-15
 11
122.976
 21
-15.376
  0
LINE
  8
0
 10
122.976
 20
-15.376
 11
122.906
 21
-15.7461
  0
LINE
  8
0
 10
122.906
 20
-15.7461
 11
122.789
 21
-16.1044
  0
LINE
  8
0
 10
122.789
 20
-16.1044
 11
122.629
 21
-16.4453
  0
LINE
  8
0
 10
122.629
 20
-16.4453
 11
122.427
 21
-16.7634
  0
LINE
  8
0
 10
122.427
 20
-16.7634
 11
122.187
 21
-17.0536
  0
LINE
  8
0
 10
122.187
 20
-17.0536
 11
121.912
 21
-17.3115
  0
LINE
  8
0
 10
121.912
 20
-17.3115
 11
121.607
 21
-17.533
  0
LINE
  8
0
 10
121.607
 20
-17.533
 11
121.277
 21
-17.7145
  0
LINE
  8
0
 10
121.277
 20
-17.7145
 11
120.927
 21
-17.8532
  0
LINE
  8
0
 10
120.927
 20
-17.8532
 11
120.562
 21
-17.9469
  0
LINE
  8
0
 10
120.562
 20
-17.9469
 11
120.188
 21
-17.9941
  0
LINE
  8
0
 10
120.188
 20
-17.9941
 11
119.812
 21
-17.9941
  0
LINE
  8
0
 10
-117.211
 20
13.8956
 11
-117.371
 21
13.5547
  0
LINE
  8
0
 10
-117.371
 20
13.5547
 11
-117.573
 21
13.2366
  0
LINE
  8
0
 10
-117.573
 20
13.2366
 11
-117.813
 21
12.9464
  0
LINE
  8
0
 10
-117.813
 20
12.9464
 11
-118.088
 21
12.6884
  0
LINE
  8
0
 10
-118.088
 20
12.6884
 11
-118.393
 21
12.467
  0
LINE
  8
0
 10
-118.393
 20
12.467
 11
-118.723
 21
12.2855
  0
LINE
  8
0
 10
-118.723
 20
12.2855
 11
-119.073
 21
12.1468
  0
LINE
  8
0
 10
-119.073
 20
12.1468
 11
-119.438
 21
12.0531
  0
LINE
  8
0
 10
-119.438
 20
12.0531
 11
-119.812
 21
12.0059
  0
LINE
  8
0
 10
-119.812
 20
12.0059
 11
-120.188
 21
12.0059
  0
LINE
  8
0
 10
-120.188
 20
12.0059
 11
-120.562
 21
12.0531
  0
LINE
  8
0
 10
-120.562
 20
12.0531
 11
-120.927
 21
12.1468
  0
LINE
  8
0
 10
-120.927
 20
12.1468
 11
-121.277
 21
12.2855
  0
LINE
  8
0
 10
-121.277
 20
12.2855
 11
-121.607
 21
12.467
  0
LINE
  8
0
 10
-121.607
 20
12.467
 11
-121.912
 21
12.6884
  0
LINE
  8
0
 10
-121.912
 20
12.6884
 11
-122.187
 21
12.9464
  0
LINE
  8
0
 10
-122.187
 20
12.9464
 11
-122.427
 21
13.2366
  0
LINE
  8
0
 10
-122.427
 20
13.2366
 11
-122.629
 21
13.5547
  0
LINE
  8
0
 10
-122.629
 20
13.5547
 11
-122.789
 21
13.8956
  0
LINE
  8
0
 10
-122.789
 20
13.8956
 11
-122.906
 21
14.2539
  0
LINE
  8
0
 10
-122.906
 20
14.2539
 11
-122.976
 21
14.624
  0
LINE
  8
0
 10
-122.976
 20
14.624
 11
-123
 21
15
  0
LINE
  8
0
 10
-123
 20
15
 11
-122.976
 21
15.376
  0
LINE
  8
0
 10
-122.976
 20
15.376
 11
-122.906
 21
15.7461
  0
LINE
  8
0
 10
-122.906
 20
15.7461
 11
-122.789
 21
16.1044
  0
LINE
  8
0
 10
-122.789
 20
16.1044
 11
-122.629
 21
16.4453
  0
LINE
  8
0
 10
-122.629
 20
16.4453
 11
-122.427
 21
16.7634
  0
LINE
  8
0
 10
-122.427
 20
16.7634
 11
-122.187
 21
17.0536
  0
LINE
  8
0
 10
-122.187
 20
17.0536
 11
-121.912
 21
17.3115
  0
LINE
  8
0
 10
-121.912
 20
17.3115
 11
-121.607
 21
17.533
  0
LINE
  8
0
 10
-121.607
 20
17.533
 11
-121.277
 21
17.7145
  0
LINE
  8
0
 10
-121.277
 20
17.7145
 11
-120.927
 21
17.8532
  0
LINE
  8
0
 10
-120.927
 20
17.8532
 11
-120.562
 21
17.9469
  0
LINE
  8
0
 10
-120.562
 20
17.9469
 11
-120.188
 21
17.9941
  0
LINE
  8
0
 10
-120.188
 20
17.9941
 11
-119.812
 21
17.9941
  0
LINE
  8
0
 10
-119.812
 20
17.9941
 11
-119.438
 21
17.9469
  0
LINE
  8
0
 10
-119.438
 20
17.9469
 11
-119.073
 21
17.8532
  0
LINE
  8
0
 10
-119.073
 20
17.8532
 11
-118.723
 21
17.7145
  0
LINE
  8
0
 10
-118.723
 20
17.7145
 11
-118.393
 21
17.533
  0
LINE
  8
0
 10
-118.393
 20
17.533
 11
-118.088
 21
17.3115
  0
LINE
  8
0
 10
-118.088
 20
17.3115
 11
-117.813
 21
17.0536
  0
LINE
  8
0
 10
-117.813
 20
17.0536
 11
-117.573
 21
16.7634
  0
LINE
  8
0
 10
-117.573
 20
16.7634
 11
-117.371
 21
16.4453
  0
LINE
  8
0
 10
-117.371
 20
16.4453
 11
-117.211
 21
16.1044
  0
LINE
  8
0
 10
-117.211
 20
16.1044
 11
-117.094
 21
15.7461
  0
LINE
  8
0
 10
-117.094
 20
15.7461
 11
-117.024
 21
15.376
  0
LINE
  8
0
 10
-117.024
 20
15.376
 11
-117
 21
15
  0
LINE
  8
0
 10
-117
 20
15
 11
-117.024
 21
14.624
  0
LINE
  8
0
 10
-117.024
 20
14.624
 11
-117.094
 21
14.2539
  0
LINE
  8
0
 10
-117.094
 20
14.2539
 11
-117.211
 21
13.8956
  0
ENDSEC
  0
SECTION
  2
OBJECTS
  0
DICTIONARY
  0
ENDSEC
  0
EOF
