solid OpenSCAD_Model
  facet normal -0.904619 -0.426222 0
    outer loop
      vertex -184.478 1.1964 0
      vertex -184.652 1.5657 3
      vertex -184.652 1.5657 0
    endloop
  endfacet
  facet normal -0.904619 -0.426222 0
    outer loop
      vertex -184.652 1.5657 3
      vertex -184.478 1.1964 0
      vertex -184.478 1.1964 3
    endloop
  endfacet
  facet normal -0.843984 -0.536368 0
    outer loop
      vertex -184.652 1.5657 0
      vertex -184.871 1.9103 3
      vertex -184.871 1.9103 0
    endloop
  endfacet
  facet normal -0.843984 -0.536368 0
    outer loop
      vertex -184.871 1.9103 3
      vertex -184.652 1.5657 0
      vertex -184.652 1.5657 3
    endloop
  endfacet
  facet normal -0.367675 -0.929954 0
    outer loop
      vertex -186.496 3.09093 0
      vertex -186.116 2.94069 3
      vertex -186.496 3.09093 3
    endloop
  endfacet
  facet normal -0.367675 -0.929954 -0
    outer loop
      vertex -186.116 2.94069 3
      vertex -186.496 3.09093 0
      vertex -186.116 2.94069 0
    endloop
  endfacet
  facet normal 0.367675 -0.929954 0
    outer loop
      vertex -188.884 2.94069 0
      vertex -188.504 3.09093 3
      vertex -188.884 2.94069 3
    endloop
  endfacet
  facet normal 0.367675 -0.929954 0
    outer loop
      vertex -188.504 3.09093 3
      vertex -188.884 2.94069 0
      vertex -188.504 3.09093 0
    endloop
  endfacet
  facet normal 0.904619 -0.426222 0
    outer loop
      vertex -190.522 1.1964 3
      vertex -190.348 1.5657 0
      vertex -190.348 1.5657 3
    endloop
  endfacet
  facet normal 0.904619 -0.426222 0
    outer loop
      vertex -190.348 1.5657 0
      vertex -190.522 1.1964 3
      vertex -190.522 1.1964 0
    endloop
  endfacet
  facet normal -0.982502 0.186252 0
    outer loop
      vertex -184.352 -0.808242 0
      vertex -184.276 -0.407332 3
      vertex -184.276 -0.407332 0
    endloop
  endfacet
  facet normal -0.982502 0.186252 0
    outer loop
      vertex -184.276 -0.407332 3
      vertex -184.352 -0.808242 0
      vertex -184.352 -0.808242 3
    endloop
  endfacet
  facet normal -0.125325 -0.992116 0
    outer loop
      vertex -187.296 3.24359 0
      vertex -186.891 3.19243 3
      vertex -187.296 3.24359 3
    endloop
  endfacet
  facet normal -0.125325 -0.992116 -0
    outer loop
      vertex -186.891 3.19243 3
      vertex -187.296 3.24359 0
      vertex -186.891 3.19243 0
    endloop
  endfacet
  facet normal -0.586847 -0.809698 0
    outer loop
      vertex -185.759 2.74407 0
      vertex -185.428 2.50417 3
      vertex -185.759 2.74407 3
    endloop
  endfacet
  facet normal -0.586847 -0.809698 -0
    outer loop
      vertex -185.428 2.50417 3
      vertex -185.759 2.74407 0
      vertex -185.428 2.50417 0
    endloop
  endfacet
  facet normal 0.982502 -0.186252 0
    outer loop
      vertex -190.724 0.407332 3
      vertex -190.648 0.808242 0
      vertex -190.648 0.808242 3
    endloop
  endfacet
  facet normal 0.982502 -0.186252 0
    outer loop
      vertex -190.648 0.808242 0
      vertex -190.724 0.407332 3
      vertex -190.724 0.407332 0
    endloop
  endfacet
  facet normal 0.770706 -0.63719 0
    outer loop
      vertex -190.129 1.9103 3
      vertex -189.869 2.22478 0
      vertex -189.869 2.22478 3
    endloop
  endfacet
  facet normal 0.770706 -0.63719 0
    outer loop
      vertex -189.869 2.22478 0
      vertex -190.129 1.9103 3
      vertex -190.129 1.9103 0
    endloop
  endfacet
  facet normal 0.482427 -0.875936 0
    outer loop
      vertex -189.241 2.74407 0
      vertex -188.884 2.94069 3
      vertex -189.241 2.74407 3
    endloop
  endfacet
  facet normal 0.482427 -0.875936 0
    outer loop
      vertex -188.884 2.94069 3
      vertex -189.241 2.74407 0
      vertex -188.884 2.94069 0
    endloop
  endfacet
  facet normal 0.125325 -0.992116 0
    outer loop
      vertex -188.109 3.19243 0
      vertex -187.704 3.24359 3
      vertex -188.109 3.19243 3
    endloop
  endfacet
  facet normal 0.125325 -0.992116 0
    outer loop
      vertex -187.704 3.24359 3
      vertex -188.109 3.19243 0
      vertex -187.704 3.24359 0
    endloop
  endfacet
  facet normal -0.997969 -0.0637004 0
    outer loop
      vertex -184.25 0 0
      vertex -184.276 0.407332 3
      vertex -184.276 0.407332 0
    endloop
  endfacet
  facet normal -0.997969 -0.0637004 0
    outer loop
      vertex -184.276 0.407332 3
      vertex -184.25 0 0
      vertex -184.25 0 3
    endloop
  endfacet
  facet normal -0.951143 0.308751 0
    outer loop
      vertex -184.478 -1.1964 0
      vertex -184.352 -0.808242 3
      vertex -184.352 -0.808242 0
    endloop
  endfacet
  facet normal -0.951143 0.308751 0
    outer loop
      vertex -184.352 -0.808242 3
      vertex -184.478 -1.1964 0
      vertex -184.478 -1.1964 3
    endloop
  endfacet
  facet normal -0.586847 0.809698 0
    outer loop
      vertex -185.428 -2.50417 0
      vertex -185.759 -2.74407 3
      vertex -185.428 -2.50417 3
    endloop
  endfacet
  facet normal -0.586847 0.809698 0
    outer loop
      vertex -185.759 -2.74407 3
      vertex -185.428 -2.50417 0
      vertex -185.759 -2.74407 0
    endloop
  endfacet
  facet normal -0.951143 -0.308751 0
    outer loop
      vertex -184.352 0.808242 0
      vertex -184.478 1.1964 3
      vertex -184.478 1.1964 0
    endloop
  endfacet
  facet normal -0.951143 -0.308751 0
    outer loop
      vertex -184.478 1.1964 3
      vertex -184.352 0.808242 0
      vertex -184.352 0.808242 3
    endloop
  endfacet
  facet normal -0.685183 -0.728371 0
    outer loop
      vertex -185.428 2.50417 0
      vertex -185.131 2.22478 3
      vertex -185.428 2.50417 3
    endloop
  endfacet
  facet normal -0.685183 -0.728371 -0
    outer loop
      vertex -185.131 2.22478 3
      vertex -185.428 2.50417 0
      vertex -185.131 2.22478 0
    endloop
  endfacet
  facet normal 0 -1 0
    outer loop
      vertex -187.704 3.24359 0
      vertex -187.296 3.24359 3
      vertex -187.704 3.24359 3
    endloop
  endfacet
  facet normal 0 -1 -0
    outer loop
      vertex -187.296 3.24359 3
      vertex -187.704 3.24359 0
      vertex -187.296 3.24359 0
    endloop
  endfacet
  facet normal -0.248877 -0.968535 0
    outer loop
      vertex -186.891 3.19243 0
      vertex -186.496 3.09093 3
      vertex -186.891 3.19243 3
    endloop
  endfacet
  facet normal -0.248877 -0.968535 -0
    outer loop
      vertex -186.496 3.09093 3
      vertex -186.891 3.19243 0
      vertex -186.496 3.09093 0
    endloop
  endfacet
  facet normal -0.482427 -0.875936 0
    outer loop
      vertex -186.116 2.94069 0
      vertex -185.759 2.74407 3
      vertex -186.116 2.94069 3
    endloop
  endfacet
  facet normal -0.482427 -0.875936 -0
    outer loop
      vertex -185.759 2.74407 3
      vertex -186.116 2.94069 0
      vertex -185.759 2.74407 0
    endloop
  endfacet
  facet normal 0.997969 -0.0637004 0
    outer loop
      vertex -190.75 0 3
      vertex -190.724 0.407332 0
      vertex -190.724 0.407332 3
    endloop
  endfacet
  facet normal 0.997969 -0.0637004 0
    outer loop
      vertex -190.724 0.407332 0
      vertex -190.75 0 3
      vertex -190.75 0 0
    endloop
  endfacet
  facet normal 0 0 1
    outer loop
      vertex 190.522 1.1964 3
      vertex 194.5 2 3
      vertex 194.461 2.62667 3
    endloop
  endfacet
  facet normal 0 0 1
    outer loop
      vertex 194.5 2 3
      vertex 190.75 0 3
      vertex 194.5 -2 3
    endloop
  endfacet
  facet normal 0 0 1
    outer loop
      vertex 190.348 1.5657 3
      vertex 194.461 2.62667 3
      vertex 194.343 3.24345 3
    endloop
  endfacet
  facet normal -0 0 1
    outer loop
      vertex 190.724 -0.407332 3
      vertex 194.5 -2 3
      vertex 190.75 0 3
    endloop
  endfacet
  facet normal 0 0 1
    outer loop
      vertex 190.348 1.5657 3
      vertex 194.343 3.24345 3
      vertex 194.149 3.84062 3
    endloop
  endfacet
  facet normal -0 0 1
    outer loop
      vertex 190.648 -0.808242 3
      vertex 194.5 -2 3
      vertex 190.724 -0.407332 3
    endloop
  endfacet
  facet normal 0 0 1
    outer loop
      vertex 190.129 1.9103 3
      vertex 194.149 3.84062 3
      vertex 193.882 4.40877 3
    endloop
  endfacet
  facet normal -0 0 1
    outer loop
      vertex 190.522 -1.1964 3
      vertex 194.5 -2 3
      vertex 190.648 -0.808242 3
    endloop
  endfacet
  facet normal 0 0 1
    outer loop
      vertex 190.129 1.9103 3
      vertex 193.882 4.40877 3
      vertex 193.545 4.93893 3
    endloop
  endfacet
  facet normal 0 0 1
    outer loop
      vertex 194.5 -2 3
      vertex 190.522 -1.1964 3
      vertex 194.461 -2.62667 3
    endloop
  endfacet
  facet normal 0 0 1
    outer loop
      vertex 189.869 2.22478 3
      vertex 193.545 4.93893 3
      vertex 193.145 5.42274 3
    endloop
  endfacet
  facet normal -0 0 1
    outer loop
      vertex 190.348 -1.5657 3
      vertex 194.461 -2.62667 3
      vertex 190.522 -1.1964 3
    endloop
  endfacet
  facet normal 0 0 1
    outer loop
      vertex 189.869 2.22478 3
      vertex 193.145 5.42274 3
      vertex 192.687 5.85257 3
    endloop
  endfacet
  facet normal 0 0 1
    outer loop
      vertex 194.461 -2.62667 3
      vertex 190.348 -1.5657 3
      vertex 194.343 -3.24345 3
    endloop
  endfacet
  facet normal 0 0 1
    outer loop
      vertex 189.572 2.50417 3
      vertex 192.687 5.85257 3
      vertex 192.179 6.22164 3
    endloop
  endfacet
  facet normal 0 0 1
    outer loop
      vertex 194.343 -3.24345 3
      vertex 190.348 -1.5657 3
      vertex 194.149 -3.84062 3
    endloop
  endfacet
  facet normal 0 0 1
    outer loop
      vertex 189.572 2.50417 3
      vertex 192.179 6.22164 3
      vertex 191.629 6.52413 3
    endloop
  endfacet
  facet normal -0 0 1
    outer loop
      vertex 190.129 -1.9103 3
      vertex 194.149 -3.84062 3
      vertex 190.348 -1.5657 3
    endloop
  endfacet
  facet normal 0 0 1
    outer loop
      vertex 189.241 2.74407 3
      vertex 191.629 6.52413 3
      vertex 191.045 6.75528 3
    endloop
  endfacet
  facet normal 0 0 1
    outer loop
      vertex 194.149 -3.84062 3
      vertex 190.129 -1.9103 3
      vertex 193.882 -4.40877 3
    endloop
  endfacet
  facet normal 0 0 1
    outer loop
      vertex 193.882 -4.40877 3
      vertex 190.129 -1.9103 3
      vertex 193.545 -4.93893 3
    endloop
  endfacet
  facet normal 0 0 1
    outer loop
      vertex 194.5 2 3
      vertex 190.724 0.407332 3
      vertex 190.75 0 3
    endloop
  endfacet
  facet normal 0 0 1
    outer loop
      vertex 194.5 2 3
      vertex 190.648 0.808242 3
      vertex 190.724 0.407332 3
    endloop
  endfacet
  facet normal 0 0 1
    outer loop
      vertex 194.5 2 3
      vertex 190.522 1.1964 3
      vertex 190.648 0.808242 3
    endloop
  endfacet
  facet normal 0 0 1
    outer loop
      vertex 189.241 2.74407 3
      vertex 191.045 6.75528 3
      vertex 190.437 6.91144 3
    endloop
  endfacet
  facet normal 0 0 1
    outer loop
      vertex 194.461 2.62667 3
      vertex 190.348 1.5657 3
      vertex 190.522 1.1964 3
    endloop
  endfacet
  facet normal 0 0 1
    outer loop
      vertex 194.149 3.84062 3
      vertex 190.129 1.9103 3
      vertex 190.348 1.5657 3
    endloop
  endfacet
  facet normal 0 0 1
    outer loop
      vertex 193.545 4.93893 3
      vertex 189.869 2.22478 3
      vertex 190.129 1.9103 3
    endloop
  endfacet
  facet normal 0 0 1
    outer loop
      vertex 188.884 2.94069 3
      vertex 190.437 6.91144 3
      vertex 189.814 6.99013 3
    endloop
  endfacet
  facet normal 0 0 1
    outer loop
      vertex 192.687 5.85257 3
      vertex 189.572 2.50417 3
      vertex 189.869 2.22478 3
    endloop
  endfacet
  facet normal 0 0 1
    outer loop
      vertex 191.629 6.52413 3
      vertex 189.241 2.74407 3
      vertex 189.572 2.50417 3
    endloop
  endfacet
  facet normal 0 0 1
    outer loop
      vertex 190.437 6.91144 3
      vertex 188.884 2.94069 3
      vertex 189.241 2.74407 3
    endloop
  endfacet
  facet normal 0 0 1
    outer loop
      vertex 189.814 6.99013 3
      vertex 188.504 3.09093 3
      vertex 188.884 2.94069 3
    endloop
  endfacet
  facet normal 0 0 1
    outer loop
      vertex 189.814 6.99013 3
      vertex 188.109 3.19243 3
      vertex 188.504 3.09093 3
    endloop
  endfacet
  facet normal 0 0 1
    outer loop
      vertex 189.814 6.99013 3
      vertex 187.704 3.24359 3
      vertex 188.109 3.19243 3
    endloop
  endfacet
  facet normal 0 0 1
    outer loop
      vertex 189.814 6.99013 3
      vertex 187.296 3.24359 3
      vertex 187.704 3.24359 3
    endloop
  endfacet
  facet normal 0 0 1
    outer loop
      vertex 189.814 6.99013 3
      vertex 186.891 3.19243 3
      vertex 187.296 3.24359 3
    endloop
  endfacet
  facet normal 0 0 1
    outer loop
      vertex 189.814 6.99013 3
      vertex 186.496 3.09093 3
      vertex 186.891 3.19243 3
    endloop
  endfacet
  facet normal 0 0 1
    outer loop
      vertex 189.814 6.99013 3
      vertex 186.116 2.94069 3
      vertex 186.496 3.09093 3
    endloop
  endfacet
  facet normal 0 0 1
    outer loop
      vertex 189.814 6.99013 3
      vertex 185.759 2.74407 3
      vertex 186.116 2.94069 3
    endloop
  endfacet
  facet normal 0 0 1
    outer loop
      vertex 189.814 6.99013 3
      vertex 185.428 2.50417 3
      vertex 185.759 2.74407 3
    endloop
  endfacet
  facet normal 0 0 1
    outer loop
      vertex 189.814 6.99013 3
      vertex 185.131 2.22478 3
      vertex 185.428 2.50417 3
    endloop
  endfacet
  facet normal 0 0 1
    outer loop
      vertex 184.276 0.407332 3
      vertex -184.25 0 3
      vertex 184.25 0 3
    endloop
  endfacet
  facet normal 0 0 1
    outer loop
      vertex -184.276 0.407332 3
      vertex 184.276 0.407332 3
      vertex 184.352 0.808242 3
    endloop
  endfacet
  facet normal 0 0 1
    outer loop
      vertex -184.352 0.808242 3
      vertex 184.352 0.808242 3
      vertex 184.478 1.1964 3
    endloop
  endfacet
  facet normal 0 0 1
    outer loop
      vertex -184.478 1.1964 3
      vertex 184.478 1.1964 3
      vertex 184.652 1.5657 3
    endloop
  endfacet
  facet normal 0 0 1
    outer loop
      vertex -184.652 1.5657 3
      vertex 184.652 1.5657 3
      vertex 184.871 1.9103 3
    endloop
  endfacet
  facet normal 0 0 1
    outer loop
      vertex -184.871 1.9103 3
      vertex 184.871 1.9103 3
      vertex 185.131 2.22478 3
    endloop
  endfacet
  facet normal 0 0 1
    outer loop
      vertex -185.131 2.22478 3
      vertex 185.131 2.22478 3
      vertex 189.814 6.99013 3
    endloop
  endfacet
  facet normal 0 0 1
    outer loop
      vertex 184.276 0.407332 3
      vertex -184.276 0.407332 3
      vertex -184.25 0 3
    endloop
  endfacet
  facet normal 0 0 1
    outer loop
      vertex 184.352 0.808242 3
      vertex -184.352 0.808242 3
      vertex -184.276 0.407332 3
    endloop
  endfacet
  facet normal 0 0 1
    outer loop
      vertex 184.478 1.1964 3
      vertex -184.478 1.1964 3
      vertex -184.352 0.808242 3
    endloop
  endfacet
  facet normal 0 0 1
    outer loop
      vertex 184.652 1.5657 3
      vertex -184.652 1.5657 3
      vertex -184.478 1.1964 3
    endloop
  endfacet
  facet normal 0 0 1
    outer loop
      vertex 184.871 1.9103 3
      vertex -184.871 1.9103 3
      vertex -184.652 1.5657 3
    endloop
  endfacet
  facet normal 0 0 1
    outer loop
      vertex 185.131 2.22478 3
      vertex -185.131 2.22478 3
      vertex -184.871 1.9103 3
    endloop
  endfacet
  facet normal -0 0 1
    outer loop
      vertex -189.814 6.99013 3
      vertex -185.131 2.22478 3
      vertex 189.814 6.99013 3
    endloop
  endfacet
  facet normal 0 0 1
    outer loop
      vertex -185.131 2.22478 3
      vertex -189.814 6.99013 3
      vertex -185.428 2.50417 3
    endloop
  endfacet
  facet normal 0 0 1
    outer loop
      vertex -185.428 2.50417 3
      vertex -189.814 6.99013 3
      vertex -185.759 2.74407 3
    endloop
  endfacet
  facet normal 0 0 1
    outer loop
      vertex -185.759 2.74407 3
      vertex -189.814 6.99013 3
      vertex -186.116 2.94069 3
    endloop
  endfacet
  facet normal 0 0 1
    outer loop
      vertex -186.116 2.94069 3
      vertex -189.814 6.99013 3
      vertex -186.496 3.09093 3
    endloop
  endfacet
  facet normal 0 0 1
    outer loop
      vertex -186.496 3.09093 3
      vertex -189.814 6.99013 3
      vertex -186.891 3.19243 3
    endloop
  endfacet
  facet normal 0 0 1
    outer loop
      vertex -186.891 3.19243 3
      vertex -189.814 6.99013 3
      vertex -187.296 3.24359 3
    endloop
  endfacet
  facet normal 0 0 1
    outer loop
      vertex -187.296 3.24359 3
      vertex -189.814 6.99013 3
      vertex -187.704 3.24359 3
    endloop
  endfacet
  facet normal 0 0 1
    outer loop
      vertex -189.814 6.99013 3
      vertex -188.109 3.19243 3
      vertex -187.704 3.24359 3
    endloop
  endfacet
  facet normal 0 0 1
    outer loop
      vertex -189.814 6.99013 3
      vertex -188.504 3.09093 3
      vertex -188.109 3.19243 3
    endloop
  endfacet
  facet normal 0 0 1
    outer loop
      vertex -189.814 6.99013 3
      vertex -188.884 2.94069 3
      vertex -188.504 3.09093 3
    endloop
  endfacet
  facet normal -0 0 1
    outer loop
      vertex -190.437 6.91144 3
      vertex -188.884 2.94069 3
      vertex -189.814 6.99013 3
    endloop
  endfacet
  facet normal 0 0 1
    outer loop
      vertex -188.884 2.94069 3
      vertex -190.437 6.91144 3
      vertex -189.241 2.74407 3
    endloop
  endfacet
  facet normal -0 0 1
    outer loop
      vertex -191.045 6.75528 3
      vertex -189.241 2.74407 3
      vertex -190.437 6.91144 3
    endloop
  endfacet
  facet normal -0 0 1
    outer loop
      vertex -191.629 6.52413 3
      vertex -189.241 2.74407 3
      vertex -191.045 6.75528 3
    endloop
  endfacet
  facet normal 0 0 1
    outer loop
      vertex -189.241 2.74407 3
      vertex -191.629 6.52413 3
      vertex -189.572 2.50417 3
    endloop
  endfacet
  facet normal -0 0 1
    outer loop
      vertex -192.179 6.22164 3
      vertex -189.572 2.50417 3
      vertex -191.629 6.52413 3
    endloop
  endfacet
  facet normal -0 0 1
    outer loop
      vertex -192.687 5.85257 3
      vertex -189.572 2.50417 3
      vertex -192.179 6.22164 3
    endloop
  endfacet
  facet normal 0 0 1
    outer loop
      vertex -189.572 2.50417 3
      vertex -192.687 5.85257 3
      vertex -189.869 2.22478 3
    endloop
  endfacet
  facet normal -0 0 1
    outer loop
      vertex -193.145 5.42274 3
      vertex -189.869 2.22478 3
      vertex -192.687 5.85257 3
    endloop
  endfacet
  facet normal -0 0 1
    outer loop
      vertex -193.545 4.93893 3
      vertex -189.869 2.22478 3
      vertex -193.145 5.42274 3
    endloop
  endfacet
  facet normal 0 0 1
    outer loop
      vertex -189.869 2.22478 3
      vertex -193.545 4.93893 3
      vertex -190.129 1.9103 3
    endloop
  endfacet
  facet normal -0 0 1
    outer loop
      vertex 189.869 -2.22478 3
      vertex 193.545 -4.93893 3
      vertex 190.129 -1.9103 3
    endloop
  endfacet
  facet normal 0 0 1
    outer loop
      vertex 193.545 -4.93893 3
      vertex 189.869 -2.22478 3
      vertex 193.145 -5.42274 3
    endloop
  endfacet
  facet normal 0 0 1
    outer loop
      vertex 193.145 -5.42274 3
      vertex 189.869 -2.22478 3
      vertex 192.687 -5.85257 3
    endloop
  endfacet
  facet normal -0 0 1
    outer loop
      vertex 189.572 -2.50417 3
      vertex 192.687 -5.85257 3
      vertex 189.869 -2.22478 3
    endloop
  endfacet
  facet normal 0 0 1
    outer loop
      vertex 192.687 -5.85257 3
      vertex 189.572 -2.50417 3
      vertex 192.179 -6.22164 3
    endloop
  endfacet
  facet normal 0 0 1
    outer loop
      vertex 192.179 -6.22164 3
      vertex 189.572 -2.50417 3
      vertex 191.629 -6.52413 3
    endloop
  endfacet
  facet normal -0 0 1
    outer loop
      vertex 189.241 -2.74407 3
      vertex 191.629 -6.52413 3
      vertex 189.572 -2.50417 3
    endloop
  endfacet
  facet normal 0 0 1
    outer loop
      vertex 191.629 -6.52413 3
      vertex 189.241 -2.74407 3
      vertex 191.045 -6.75528 3
    endloop
  endfacet
  facet normal 0 0 1
    outer loop
      vertex 191.045 -6.75528 3
      vertex 189.241 -2.74407 3
      vertex 190.437 -6.91144 3
    endloop
  endfacet
  facet normal -0 0 1
    outer loop
      vertex 188.884 -2.94069 3
      vertex 190.437 -6.91144 3
      vertex 189.241 -2.74407 3
    endloop
  endfacet
  facet normal 0 0 1
    outer loop
      vertex 190.437 -6.91144 3
      vertex 188.884 -2.94069 3
      vertex 189.814 -6.99013 3
    endloop
  endfacet
  facet normal -0 0 1
    outer loop
      vertex 188.504 -3.09093 3
      vertex 189.814 -6.99013 3
      vertex 188.884 -2.94069 3
    endloop
  endfacet
  facet normal -0 0 1
    outer loop
      vertex 188.109 -3.19243 3
      vertex 189.814 -6.99013 3
      vertex 188.504 -3.09093 3
    endloop
  endfacet
  facet normal -0 0 1
    outer loop
      vertex 187.704 -3.24359 3
      vertex 189.814 -6.99013 3
      vertex 188.109 -3.19243 3
    endloop
  endfacet
  facet normal -0 0 1
    outer loop
      vertex 187.296 -3.24359 3
      vertex 189.814 -6.99013 3
      vertex 187.704 -3.24359 3
    endloop
  endfacet
  facet normal 0 0 1
    outer loop
      vertex 186.891 -3.19243 3
      vertex 189.814 -6.99013 3
      vertex 187.296 -3.24359 3
    endloop
  endfacet
  facet normal 0 0 1
    outer loop
      vertex 186.496 -3.09093 3
      vertex 189.814 -6.99013 3
      vertex 186.891 -3.19243 3
    endloop
  endfacet
  facet normal 0 0 1
    outer loop
      vertex 186.116 -2.94069 3
      vertex 189.814 -6.99013 3
      vertex 186.496 -3.09093 3
    endloop
  endfacet
  facet normal 0 0 1
    outer loop
      vertex 185.759 -2.74407 3
      vertex 189.814 -6.99013 3
      vertex 186.116 -2.94069 3
    endloop
  endfacet
  facet normal 0 0 1
    outer loop
      vertex 185.428 -2.50417 3
      vertex 189.814 -6.99013 3
      vertex 185.759 -2.74407 3
    endloop
  endfacet
  facet normal 0 0 1
    outer loop
      vertex 185.131 -2.22478 3
      vertex 189.814 -6.99013 3
      vertex 185.428 -2.50417 3
    endloop
  endfacet
  facet normal -0 0 1
    outer loop
      vertex -184.25 0 3
      vertex 184.276 -0.407332 3
      vertex 184.25 0 3
    endloop
  endfacet
  facet normal 0 0 1
    outer loop
      vertex -184.276 -0.407332 3
      vertex 184.276 -0.407332 3
      vertex -184.25 0 3
    endloop
  endfacet
  facet normal 0 0 1
    outer loop
      vertex 184.276 -0.407332 3
      vertex -184.276 -0.407332 3
      vertex 184.352 -0.808242 3
    endloop
  endfacet
  facet normal 0 0 1
    outer loop
      vertex -184.352 -0.808242 3
      vertex 184.352 -0.808242 3
      vertex -184.276 -0.407332 3
    endloop
  endfacet
  facet normal 0 0 1
    outer loop
      vertex 184.352 -0.808242 3
      vertex -184.352 -0.808242 3
      vertex 184.478 -1.1964 3
    endloop
  endfacet
  facet normal 0 0 1
    outer loop
      vertex -184.478 -1.1964 3
      vertex 184.478 -1.1964 3
      vertex -184.352 -0.808242 3
    endloop
  endfacet
  facet normal 0 0 1
    outer loop
      vertex 184.478 -1.1964 3
      vertex -184.478 -1.1964 3
      vertex 184.652 -1.5657 3
    endloop
  endfacet
  facet normal 0 0 1
    outer loop
      vertex -184.652 -1.5657 3
      vertex 184.652 -1.5657 3
      vertex -184.478 -1.1964 3
    endloop
  endfacet
  facet normal 0 0 1
    outer loop
      vertex 184.652 -1.5657 3
      vertex -184.652 -1.5657 3
      vertex 184.871 -1.9103 3
    endloop
  endfacet
  facet normal 0 0 1
    outer loop
      vertex -184.871 -1.9103 3
      vertex 184.871 -1.9103 3
      vertex -184.652 -1.5657 3
    endloop
  endfacet
  facet normal 0 0 1
    outer loop
      vertex 184.871 -1.9103 3
      vertex -184.871 -1.9103 3
      vertex 185.131 -2.22478 3
    endloop
  endfacet
  facet normal 0 0 1
    outer loop
      vertex -185.131 -2.22478 3
      vertex 185.131 -2.22478 3
      vertex -184.871 -1.9103 3
    endloop
  endfacet
  facet normal 0 0 1
    outer loop
      vertex 185.131 -2.22478 3
      vertex -185.131 -2.22478 3
      vertex 189.814 -6.99013 3
    endloop
  endfacet
  facet normal 0 0 1
    outer loop
      vertex -189.814 -6.99013 3
      vertex -185.131 -2.22478 3
      vertex -185.428 -2.50417 3
    endloop
  endfacet
  facet normal 0 0 1
    outer loop
      vertex -189.814 -6.99013 3
      vertex -185.428 -2.50417 3
      vertex -185.759 -2.74407 3
    endloop
  endfacet
  facet normal 0 0 1
    outer loop
      vertex -189.814 -6.99013 3
      vertex -185.759 -2.74407 3
      vertex -186.116 -2.94069 3
    endloop
  endfacet
  facet normal 0 0 1
    outer loop
      vertex -189.814 -6.99013 3
      vertex -186.116 -2.94069 3
      vertex -186.496 -3.09093 3
    endloop
  endfacet
  facet normal 0 0 1
    outer loop
      vertex -189.814 -6.99013 3
      vertex -186.496 -3.09093 3
      vertex -186.891 -3.19243 3
    endloop
  endfacet
  facet normal 0 0 1
    outer loop
      vertex -189.814 -6.99013 3
      vertex -186.891 -3.19243 3
      vertex -187.296 -3.24359 3
    endloop
  endfacet
  facet normal 0 0 1
    outer loop
      vertex -189.814 -6.99013 3
      vertex -187.296 -3.24359 3
      vertex -187.704 -3.24359 3
    endloop
  endfacet
  facet normal 0 0 1
    outer loop
      vertex -185.131 -2.22478 3
      vertex -189.814 -6.99013 3
      vertex 189.814 -6.99013 3
    endloop
  endfacet
  facet normal 0 0 1
    outer loop
      vertex -188.109 -3.19243 3
      vertex -189.814 -6.99013 3
      vertex -187.704 -3.24359 3
    endloop
  endfacet
  facet normal 0 0 1
    outer loop
      vertex -188.504 -3.09093 3
      vertex -189.814 -6.99013 3
      vertex -188.109 -3.19243 3
    endloop
  endfacet
  facet normal 0 0 1
    outer loop
      vertex -188.884 -2.94069 3
      vertex -189.814 -6.99013 3
      vertex -188.504 -3.09093 3
    endloop
  endfacet
  facet normal 0 0 1
    outer loop
      vertex -190.437 -6.91144 3
      vertex -188.884 -2.94069 3
      vertex -189.241 -2.74407 3
    endloop
  endfacet
  facet normal 0 0 1
    outer loop
      vertex -191.629 -6.52413 3
      vertex -189.241 -2.74407 3
      vertex -189.572 -2.50417 3
    endloop
  endfacet
  facet normal 0 0 1
    outer loop
      vertex -192.687 -5.85257 3
      vertex -189.572 -2.50417 3
      vertex -189.869 -2.22478 3
    endloop
  endfacet
  facet normal 0 0 1
    outer loop
      vertex -193.545 -4.93893 3
      vertex -189.869 -2.22478 3
      vertex -190.129 -1.9103 3
    endloop
  endfacet
  facet normal 0 0 1
    outer loop
      vertex -194.149 -3.84062 3
      vertex -190.129 -1.9103 3
      vertex -190.348 -1.5657 3
    endloop
  endfacet
  facet normal 0 0 1
    outer loop
      vertex -188.884 -2.94069 3
      vertex -190.437 -6.91144 3
      vertex -189.814 -6.99013 3
    endloop
  endfacet
  facet normal 0 0 1
    outer loop
      vertex -194.461 -2.62667 3
      vertex -190.348 -1.5657 3
      vertex -190.522 -1.1964 3
    endloop
  endfacet
  facet normal 0 0 1
    outer loop
      vertex -194.5 -2 3
      vertex -190.522 -1.1964 3
      vertex -190.648 -0.808242 3
    endloop
  endfacet
  facet normal 0 0 1
    outer loop
      vertex -194.5 -2 3
      vertex -190.648 -0.808242 3
      vertex -190.724 -0.407332 3
    endloop
  endfacet
  facet normal 0 0 1
    outer loop
      vertex -194.5 -2 3
      vertex -190.724 -0.407332 3
      vertex -190.75 0 3
    endloop
  endfacet
  facet normal 0 0 1
    outer loop
      vertex -189.241 -2.74407 3
      vertex -191.045 -6.75528 3
      vertex -190.437 -6.91144 3
    endloop
  endfacet
  facet normal -0 0 1
    outer loop
      vertex -193.882 4.40877 3
      vertex -190.129 1.9103 3
      vertex -193.545 4.93893 3
    endloop
  endfacet
  facet normal -0 0 1
    outer loop
      vertex -194.149 3.84062 3
      vertex -190.129 1.9103 3
      vertex -193.882 4.40877 3
    endloop
  endfacet
  facet normal 0 0 1
    outer loop
      vertex -194.5 -2 3
      vertex -190.75 0 3
      vertex -194.5 2 3
    endloop
  endfacet
  facet normal 0 0 1
    outer loop
      vertex -190.129 1.9103 3
      vertex -194.149 3.84062 3
      vertex -190.348 1.5657 3
    endloop
  endfacet
  facet normal 0 0 1
    outer loop
      vertex -190.522 -1.1964 3
      vertex -194.5 -2 3
      vertex -194.461 -2.62667 3
    endloop
  endfacet
  facet normal -0 0 1
    outer loop
      vertex -194.343 3.24345 3
      vertex -190.348 1.5657 3
      vertex -194.149 3.84062 3
    endloop
  endfacet
  facet normal 0 0 1
    outer loop
      vertex -189.241 -2.74407 3
      vertex -191.629 -6.52413 3
      vertex -191.045 -6.75528 3
    endloop
  endfacet
  facet normal -0 0 1
    outer loop
      vertex -194.461 2.62667 3
      vertex -190.348 1.5657 3
      vertex -194.343 3.24345 3
    endloop
  endfacet
  facet normal 0 0 1
    outer loop
      vertex -189.572 -2.50417 3
      vertex -192.179 -6.22164 3
      vertex -191.629 -6.52413 3
    endloop
  endfacet
  facet normal 0 0 1
    outer loop
      vertex -190.348 1.5657 3
      vertex -194.461 2.62667 3
      vertex -190.522 1.1964 3
    endloop
  endfacet
  facet normal 0 0 1
    outer loop
      vertex -189.572 -2.50417 3
      vertex -192.687 -5.85257 3
      vertex -192.179 -6.22164 3
    endloop
  endfacet
  facet normal -0 0 1
    outer loop
      vertex -194.5 2 3
      vertex -190.522 1.1964 3
      vertex -194.461 2.62667 3
    endloop
  endfacet
  facet normal 0 0 1
    outer loop
      vertex -189.869 -2.22478 3
      vertex -193.145 -5.42274 3
      vertex -192.687 -5.85257 3
    endloop
  endfacet
  facet normal 0 0 1
    outer loop
      vertex -190.522 1.1964 3
      vertex -194.5 2 3
      vertex -190.648 0.808242 3
    endloop
  endfacet
  facet normal 0 0 1
    outer loop
      vertex -189.869 -2.22478 3
      vertex -193.545 -4.93893 3
      vertex -193.145 -5.42274 3
    endloop
  endfacet
  facet normal 0 0 1
    outer loop
      vertex -190.648 0.808242 3
      vertex -194.5 2 3
      vertex -190.724 0.407332 3
    endloop
  endfacet
  facet normal 0 0 1
    outer loop
      vertex -190.129 -1.9103 3
      vertex -193.882 -4.40877 3
      vertex -193.545 -4.93893 3
    endloop
  endfacet
  facet normal 0 0 1
    outer loop
      vertex -190.724 0.407332 3
      vertex -194.5 2 3
      vertex -190.75 0 3
    endloop
  endfacet
  facet normal 0 0 1
    outer loop
      vertex -190.129 -1.9103 3
      vertex -194.149 -3.84062 3
      vertex -193.882 -4.40877 3
    endloop
  endfacet
  facet normal 0 0 1
    outer loop
      vertex -190.348 -1.5657 3
      vertex -194.343 -3.24345 3
      vertex -194.149 -3.84062 3
    endloop
  endfacet
  facet normal 0 0 1
    outer loop
      vertex -190.348 -1.5657 3
      vertex -194.461 -2.62667 3
      vertex -194.343 -3.24345 3
    endloop
  endfacet
  facet normal 0.951143 -0.308751 0
    outer loop
      vertex -190.648 0.808242 3
      vertex -190.522 1.1964 0
      vertex -190.522 1.1964 3
    endloop
  endfacet
  facet normal 0.951143 -0.308751 0
    outer loop
      vertex -190.522 1.1964 0
      vertex -190.648 0.808242 3
      vertex -190.648 0.808242 0
    endloop
  endfacet
  facet normal 0.843984 -0.536368 0
    outer loop
      vertex -190.348 1.5657 3
      vertex -190.129 1.9103 0
      vertex -190.129 1.9103 3
    endloop
  endfacet
  facet normal 0.843984 -0.536368 0
    outer loop
      vertex -190.129 1.9103 0
      vertex -190.348 1.5657 3
      vertex -190.348 1.5657 0
    endloop
  endfacet
  facet normal 0.248877 -0.968535 0
    outer loop
      vertex -188.504 3.09093 0
      vertex -188.109 3.19243 3
      vertex -188.504 3.09093 3
    endloop
  endfacet
  facet normal 0.248877 -0.968535 0
    outer loop
      vertex -188.109 3.19243 3
      vertex -188.504 3.09093 0
      vertex -188.109 3.19243 0
    endloop
  endfacet
  facet normal 0.586847 -0.809698 0
    outer loop
      vertex -189.572 2.50417 0
      vertex -189.241 2.74407 3
      vertex -189.572 2.50417 3
    endloop
  endfacet
  facet normal 0.586847 -0.809698 0
    outer loop
      vertex -189.241 2.74407 3
      vertex -189.572 2.50417 0
      vertex -189.241 2.74407 0
    endloop
  endfacet
  facet normal 0.685183 -0.728371 0
    outer loop
      vertex -189.869 2.22478 0
      vertex -189.572 2.50417 3
      vertex -189.869 2.22478 3
    endloop
  endfacet
  facet normal 0.685183 -0.728371 0
    outer loop
      vertex -189.572 2.50417 3
      vertex -189.869 2.22478 0
      vertex -189.572 2.50417 0
    endloop
  endfacet
  facet normal -0.843984 0.536368 0
    outer loop
      vertex -184.871 -1.9103 0
      vertex -184.652 -1.5657 3
      vertex -184.652 -1.5657 0
    endloop
  endfacet
  facet normal -0.843984 0.536368 0
    outer loop
      vertex -184.652 -1.5657 3
      vertex -184.871 -1.9103 0
      vertex -184.871 -1.9103 3
    endloop
  endfacet
  facet normal 0 1 -0
    outer loop
      vertex -187.296 -3.24359 0
      vertex -187.704 -3.24359 3
      vertex -187.296 -3.24359 3
    endloop
  endfacet
  facet normal 0 1 0
    outer loop
      vertex -187.704 -3.24359 3
      vertex -187.296 -3.24359 0
      vertex -187.704 -3.24359 0
    endloop
  endfacet
  facet normal 0.951143 0.308751 0
    outer loop
      vertex -190.522 -1.1964 3
      vertex -190.648 -0.808242 0
      vertex -190.648 -0.808242 3
    endloop
  endfacet
  facet normal 0.951143 0.308751 0
    outer loop
      vertex -190.648 -0.808242 0
      vertex -190.522 -1.1964 3
      vertex -190.522 -1.1964 0
    endloop
  endfacet
  facet normal 0.904619 0.426222 0
    outer loop
      vertex -190.348 -1.5657 3
      vertex -190.522 -1.1964 0
      vertex -190.522 -1.1964 3
    endloop
  endfacet
  facet normal 0.904619 0.426222 0
    outer loop
      vertex -190.522 -1.1964 0
      vertex -190.348 -1.5657 3
      vertex -190.348 -1.5657 0
    endloop
  endfacet
  facet normal -0.125325 0.992116 0
    outer loop
      vertex -186.891 -3.19243 0
      vertex -187.296 -3.24359 3
      vertex -186.891 -3.19243 3
    endloop
  endfacet
  facet normal -0.125325 0.992116 0
    outer loop
      vertex -187.296 -3.24359 3
      vertex -186.891 -3.19243 0
      vertex -187.296 -3.24359 0
    endloop
  endfacet
  facet normal -0.982502 -0.186252 0
    outer loop
      vertex -184.276 0.407332 0
      vertex -184.352 0.808242 3
      vertex -184.352 0.808242 0
    endloop
  endfacet
  facet normal -0.982502 -0.186252 0
    outer loop
      vertex -184.352 0.808242 3
      vertex -184.276 0.407332 0
      vertex -184.276 0.407332 3
    endloop
  endfacet
  facet normal -0.770706 -0.63719 0
    outer loop
      vertex -184.871 1.9103 0
      vertex -185.131 2.22478 3
      vertex -185.131 2.22478 0
    endloop
  endfacet
  facet normal -0.770706 -0.63719 0
    outer loop
      vertex -185.131 2.22478 3
      vertex -184.871 1.9103 0
      vertex -184.871 1.9103 3
    endloop
  endfacet
  facet normal -0.997969 0.0637004 0
    outer loop
      vertex -184.276 -0.407332 0
      vertex -184.25 0 3
      vertex -184.25 0 0
    endloop
  endfacet
  facet normal -0.997969 0.0637004 0
    outer loop
      vertex -184.25 0 3
      vertex -184.276 -0.407332 0
      vertex -184.276 -0.407332 3
    endloop
  endfacet
  facet normal 0.367675 0.929954 -0
    outer loop
      vertex -188.504 -3.09093 0
      vertex -188.884 -2.94069 3
      vertex -188.504 -3.09093 3
    endloop
  endfacet
  facet normal 0.367675 0.929954 0
    outer loop
      vertex -188.884 -2.94069 3
      vertex -188.504 -3.09093 0
      vertex -188.884 -2.94069 0
    endloop
  endfacet
  facet normal 0 0 -1
    outer loop
      vertex 190.522 -1.1964 0
      vertex 194.5 -2 0
      vertex 194.461 -2.62667 0
    endloop
  endfacet
  facet normal 0 0 -1
    outer loop
      vertex 194.5 -2 0
      vertex 190.75 0 0
      vertex 194.5 2 0
    endloop
  endfacet
  facet normal 0 0 -1
    outer loop
      vertex 190.348 -1.5657 0
      vertex 194.461 -2.62667 0
      vertex 194.343 -3.24345 0
    endloop
  endfacet
  facet normal 0 0 -1
    outer loop
      vertex 190.724 0.407332 0
      vertex 194.5 2 0
      vertex 190.75 0 0
    endloop
  endfacet
  facet normal 0 0 -1
    outer loop
      vertex 190.348 -1.5657 0
      vertex 194.343 -3.24345 0
      vertex 194.149 -3.84062 0
    endloop
  endfacet
  facet normal 0 0 -1
    outer loop
      vertex 190.648 0.808242 0
      vertex 194.5 2 0
      vertex 190.724 0.407332 0
    endloop
  endfacet
  facet normal 0 0 -1
    outer loop
      vertex 190.129 -1.9103 0
      vertex 194.149 -3.84062 0
      vertex 193.882 -4.40877 0
    endloop
  endfacet
  facet normal 0 0 -1
    outer loop
      vertex 190.522 1.1964 0
      vertex 194.5 2 0
      vertex 190.648 0.808242 0
    endloop
  endfacet
  facet normal 0 0 -1
    outer loop
      vertex 190.129 -1.9103 0
      vertex 193.882 -4.40877 0
      vertex 193.545 -4.93893 0
    endloop
  endfacet
  facet normal -0 0 -1
    outer loop
      vertex 194.5 2 0
      vertex 190.522 1.1964 0
      vertex 194.461 2.62667 0
    endloop
  endfacet
  facet normal 0 0 -1
    outer loop
      vertex 189.869 -2.22478 0
      vertex 193.545 -4.93893 0
      vertex 193.145 -5.42274 0
    endloop
  endfacet
  facet normal 0 0 -1
    outer loop
      vertex 190.348 1.5657 0
      vertex 194.461 2.62667 0
      vertex 190.522 1.1964 0
    endloop
  endfacet
  facet normal 0 0 -1
    outer loop
      vertex 189.869 -2.22478 0
      vertex 193.145 -5.42274 0
      vertex 192.687 -5.85257 0
    endloop
  endfacet
  facet normal -0 0 -1
    outer loop
      vertex 194.461 2.62667 0
      vertex 190.348 1.5657 0
      vertex 194.343 3.24345 0
    endloop
  endfacet
  facet normal 0 0 -1
    outer loop
      vertex 189.572 -2.50417 0
      vertex 192.687 -5.85257 0
      vertex 192.179 -6.22164 0
    endloop
  endfacet
  facet normal -0 0 -1
    outer loop
      vertex 194.343 3.24345 0
      vertex 190.348 1.5657 0
      vertex 194.149 3.84062 0
    endloop
  endfacet
  facet normal 0 0 -1
    outer loop
      vertex 189.572 -2.50417 0
      vertex 192.179 -6.22164 0
      vertex 191.629 -6.52413 0
    endloop
  endfacet
  facet normal 0 0 -1
    outer loop
      vertex 190.129 1.9103 0
      vertex 194.149 3.84062 0
      vertex 190.348 1.5657 0
    endloop
  endfacet
  facet normal 0 0 -1
    outer loop
      vertex 189.241 -2.74407 0
      vertex 191.629 -6.52413 0
      vertex 191.045 -6.75528 0
    endloop
  endfacet
  facet normal -0 0 -1
    outer loop
      vertex 194.149 3.84062 0
      vertex 190.129 1.9103 0
      vertex 193.882 4.40877 0
    endloop
  endfacet
  facet normal -0 0 -1
    outer loop
      vertex 193.882 4.40877 0
      vertex 190.129 1.9103 0
      vertex 193.545 4.93893 0
    endloop
  endfacet
  facet normal 0 0 -1
    outer loop
      vertex 194.5 -2 0
      vertex 190.724 -0.407332 0
      vertex 190.75 0 0
    endloop
  endfacet
  facet normal 0 0 -1
    outer loop
      vertex 194.5 -2 0
      vertex 190.648 -0.808242 0
      vertex 190.724 -0.407332 0
    endloop
  endfacet
  facet normal 0 0 -1
    outer loop
      vertex 194.5 -2 0
      vertex 190.522 -1.1964 0
      vertex 190.648 -0.808242 0
    endloop
  endfacet
  facet normal 0 0 -1
    outer loop
      vertex 189.241 -2.74407 0
      vertex 191.045 -6.75528 0
      vertex 190.437 -6.91144 0
    endloop
  endfacet
  facet normal 0 0 -1
    outer loop
      vertex 194.461 -2.62667 0
      vertex 190.348 -1.5657 0
      vertex 190.522 -1.1964 0
    endloop
  endfacet
  facet normal 0 0 -1
    outer loop
      vertex 194.149 -3.84062 0
      vertex 190.129 -1.9103 0
      vertex 190.348 -1.5657 0
    endloop
  endfacet
  facet normal 0 0 -1
    outer loop
      vertex 193.545 -4.93893 0
      vertex 189.869 -2.22478 0
      vertex 190.129 -1.9103 0
    endloop
  endfacet
  facet normal 0 0 -1
    outer loop
      vertex 188.884 -2.94069 0
      vertex 190.437 -6.91144 0
      vertex 189.814 -6.99013 0
    endloop
  endfacet
  facet normal 0 0 -1
    outer loop
      vertex 192.687 -5.85257 0
      vertex 189.572 -2.50417 0
      vertex 189.869 -2.22478 0
    endloop
  endfacet
  facet normal 0 0 -1
    outer loop
      vertex 191.629 -6.52413 0
      vertex 189.241 -2.74407 0
      vertex 189.572 -2.50417 0
    endloop
  endfacet
  facet normal 0 0 -1
    outer loop
      vertex 190.437 -6.91144 0
      vertex 188.884 -2.94069 0
      vertex 189.241 -2.74407 0
    endloop
  endfacet
  facet normal 0 0 -1
    outer loop
      vertex 189.814 -6.99013 0
      vertex 188.504 -3.09093 0
      vertex 188.884 -2.94069 0
    endloop
  endfacet
  facet normal 0 0 -1
    outer loop
      vertex 189.814 -6.99013 0
      vertex 188.109 -3.19243 0
      vertex 188.504 -3.09093 0
    endloop
  endfacet
  facet normal 0 0 -1
    outer loop
      vertex 189.814 -6.99013 0
      vertex 187.704 -3.24359 0
      vertex 188.109 -3.19243 0
    endloop
  endfacet
  facet normal 0 0 -1
    outer loop
      vertex 189.814 -6.99013 0
      vertex 187.296 -3.24359 0
      vertex 187.704 -3.24359 0
    endloop
  endfacet
  facet normal 0 0 -1
    outer loop
      vertex 189.814 -6.99013 0
      vertex 186.891 -3.19243 0
      vertex 187.296 -3.24359 0
    endloop
  endfacet
  facet normal 0 0 -1
    outer loop
      vertex 189.814 -6.99013 0
      vertex 186.496 -3.09093 0
      vertex 186.891 -3.19243 0
    endloop
  endfacet
  facet normal 0 0 -1
    outer loop
      vertex 189.814 -6.99013 0
      vertex 186.116 -2.94069 0
      vertex 186.496 -3.09093 0
    endloop
  endfacet
  facet normal 0 0 -1
    outer loop
      vertex 189.814 -6.99013 0
      vertex 185.759 -2.74407 0
      vertex 186.116 -2.94069 0
    endloop
  endfacet
  facet normal 0 0 -1
    outer loop
      vertex 189.814 -6.99013 0
      vertex 185.428 -2.50417 0
      vertex 185.759 -2.74407 0
    endloop
  endfacet
  facet normal 0 0 -1
    outer loop
      vertex 189.814 -6.99013 0
      vertex 185.131 -2.22478 0
      vertex 185.428 -2.50417 0
    endloop
  endfacet
  facet normal 0 0 -1
    outer loop
      vertex 184.276 -0.407332 0
      vertex -184.25 0 0
      vertex 184.25 0 0
    endloop
  endfacet
  facet normal 0 0 -1
    outer loop
      vertex -184.276 -0.407332 0
      vertex 184.276 -0.407332 0
      vertex 184.352 -0.808242 0
    endloop
  endfacet
  facet normal 0 0 -1
    outer loop
      vertex -184.352 -0.808242 0
      vertex 184.352 -0.808242 0
      vertex 184.478 -1.1964 0
    endloop
  endfacet
  facet normal 0 0 -1
    outer loop
      vertex -184.478 -1.1964 0
      vertex 184.478 -1.1964 0
      vertex 184.652 -1.5657 0
    endloop
  endfacet
  facet normal 0 0 -1
    outer loop
      vertex -184.652 -1.5657 0
      vertex 184.652 -1.5657 0
      vertex 184.871 -1.9103 0
    endloop
  endfacet
  facet normal 0 0 -1
    outer loop
      vertex -184.871 -1.9103 0
      vertex 184.871 -1.9103 0
      vertex 185.131 -2.22478 0
    endloop
  endfacet
  facet normal 0 0 -1
    outer loop
      vertex -185.131 -2.22478 0
      vertex 185.131 -2.22478 0
      vertex 189.814 -6.99013 0
    endloop
  endfacet
  facet normal 0 0 -1
    outer loop
      vertex 184.276 -0.407332 0
      vertex -184.276 -0.407332 0
      vertex -184.25 0 0
    endloop
  endfacet
  facet normal 0 0 -1
    outer loop
      vertex 184.352 -0.808242 0
      vertex -184.352 -0.808242 0
      vertex -184.276 -0.407332 0
    endloop
  endfacet
  facet normal 0 0 -1
    outer loop
      vertex 184.478 -1.1964 0
      vertex -184.478 -1.1964 0
      vertex -184.352 -0.808242 0
    endloop
  endfacet
  facet normal 0 0 -1
    outer loop
      vertex 184.652 -1.5657 0
      vertex -184.652 -1.5657 0
      vertex -184.478 -1.1964 0
    endloop
  endfacet
  facet normal 0 0 -1
    outer loop
      vertex 184.871 -1.9103 0
      vertex -184.871 -1.9103 0
      vertex -184.652 -1.5657 0
    endloop
  endfacet
  facet normal 0 0 -1
    outer loop
      vertex 185.131 -2.22478 0
      vertex -185.131 -2.22478 0
      vertex -184.871 -1.9103 0
    endloop
  endfacet
  facet normal 0 0 -1
    outer loop
      vertex -189.814 -6.99013 0
      vertex -185.131 -2.22478 0
      vertex 189.814 -6.99013 0
    endloop
  endfacet
  facet normal 0 0 -1
    outer loop
      vertex -185.131 -2.22478 0
      vertex -189.814 -6.99013 0
      vertex -185.428 -2.50417 0
    endloop
  endfacet
  facet normal 0 0 -1
    outer loop
      vertex -185.428 -2.50417 0
      vertex -189.814 -6.99013 0
      vertex -185.759 -2.74407 0
    endloop
  endfacet
  facet normal 0 0 -1
    outer loop
      vertex -185.759 -2.74407 0
      vertex -189.814 -6.99013 0
      vertex -186.116 -2.94069 0
    endloop
  endfacet
  facet normal 0 0 -1
    outer loop
      vertex -186.116 -2.94069 0
      vertex -189.814 -6.99013 0
      vertex -186.496 -3.09093 0
    endloop
  endfacet
  facet normal 0 0 -1
    outer loop
      vertex -186.496 -3.09093 0
      vertex -189.814 -6.99013 0
      vertex -186.891 -3.19243 0
    endloop
  endfacet
  facet normal 0 0 -1
    outer loop
      vertex -186.891 -3.19243 0
      vertex -189.814 -6.99013 0
      vertex -187.296 -3.24359 0
    endloop
  endfacet
  facet normal -0 0 -1
    outer loop
      vertex -187.296 -3.24359 0
      vertex -189.814 -6.99013 0
      vertex -187.704 -3.24359 0
    endloop
  endfacet
  facet normal 0 0 -1
    outer loop
      vertex -189.814 -6.99013 0
      vertex -188.109 -3.19243 0
      vertex -187.704 -3.24359 0
    endloop
  endfacet
  facet normal 0 0 -1
    outer loop
      vertex -189.814 -6.99013 0
      vertex -188.504 -3.09093 0
      vertex -188.109 -3.19243 0
    endloop
  endfacet
  facet normal 0 0 -1
    outer loop
      vertex -189.814 -6.99013 0
      vertex -188.884 -2.94069 0
      vertex -188.504 -3.09093 0
    endloop
  endfacet
  facet normal 0 0 -1
    outer loop
      vertex -190.437 -6.91144 0
      vertex -188.884 -2.94069 0
      vertex -189.814 -6.99013 0
    endloop
  endfacet
  facet normal -0 0 -1
    outer loop
      vertex -188.884 -2.94069 0
      vertex -190.437 -6.91144 0
      vertex -189.241 -2.74407 0
    endloop
  endfacet
  facet normal 0 0 -1
    outer loop
      vertex -191.045 -6.75528 0
      vertex -189.241 -2.74407 0
      vertex -190.437 -6.91144 0
    endloop
  endfacet
  facet normal 0 0 -1
    outer loop
      vertex -191.629 -6.52413 0
      vertex -189.241 -2.74407 0
      vertex -191.045 -6.75528 0
    endloop
  endfacet
  facet normal -0 0 -1
    outer loop
      vertex -189.241 -2.74407 0
      vertex -191.629 -6.52413 0
      vertex -189.572 -2.50417 0
    endloop
  endfacet
  facet normal 0 0 -1
    outer loop
      vertex -192.179 -6.22164 0
      vertex -189.572 -2.50417 0
      vertex -191.629 -6.52413 0
    endloop
  endfacet
  facet normal 0 0 -1
    outer loop
      vertex -192.687 -5.85257 0
      vertex -189.572 -2.50417 0
      vertex -192.179 -6.22164 0
    endloop
  endfacet
  facet normal -0 0 -1
    outer loop
      vertex -189.572 -2.50417 0
      vertex -192.687 -5.85257 0
      vertex -189.869 -2.22478 0
    endloop
  endfacet
  facet normal 0 0 -1
    outer loop
      vertex -193.145 -5.42274 0
      vertex -189.869 -2.22478 0
      vertex -192.687 -5.85257 0
    endloop
  endfacet
  facet normal 0 0 -1
    outer loop
      vertex -193.545 -4.93893 0
      vertex -189.869 -2.22478 0
      vertex -193.145 -5.42274 0
    endloop
  endfacet
  facet normal -0 0 -1
    outer loop
      vertex -189.869 -2.22478 0
      vertex -193.545 -4.93893 0
      vertex -190.129 -1.9103 0
    endloop
  endfacet
  facet normal 0 0 -1
    outer loop
      vertex 189.869 2.22478 0
      vertex 193.545 4.93893 0
      vertex 190.129 1.9103 0
    endloop
  endfacet
  facet normal -0 0 -1
    outer loop
      vertex 193.545 4.93893 0
      vertex 189.869 2.22478 0
      vertex 193.145 5.42274 0
    endloop
  endfacet
  facet normal -0 0 -1
    outer loop
      vertex 193.145 5.42274 0
      vertex 189.869 2.22478 0
      vertex 192.687 5.85257 0
    endloop
  endfacet
  facet normal 0 0 -1
    outer loop
      vertex 189.572 2.50417 0
      vertex 192.687 5.85257 0
      vertex 189.869 2.22478 0
    endloop
  endfacet
  facet normal -0 0 -1
    outer loop
      vertex 192.687 5.85257 0
      vertex 189.572 2.50417 0
      vertex 192.179 6.22164 0
    endloop
  endfacet
  facet normal -0 0 -1
    outer loop
      vertex 192.179 6.22164 0
      vertex 189.572 2.50417 0
      vertex 191.629 6.52413 0
    endloop
  endfacet
  facet normal 0 0 -1
    outer loop
      vertex 189.241 2.74407 0
      vertex 191.629 6.52413 0
      vertex 189.572 2.50417 0
    endloop
  endfacet
  facet normal -0 0 -1
    outer loop
      vertex 191.629 6.52413 0
      vertex 189.241 2.74407 0
      vertex 191.045 6.75528 0
    endloop
  endfacet
  facet normal -0 0 -1
    outer loop
      vertex 191.045 6.75528 0
      vertex 189.241 2.74407 0
      vertex 190.437 6.91144 0
    endloop
  endfacet
  facet normal 0 0 -1
    outer loop
      vertex 188.884 2.94069 0
      vertex 190.437 6.91144 0
      vertex 189.241 2.74407 0
    endloop
  endfacet
  facet normal -0 0 -1
    outer loop
      vertex 190.437 6.91144 0
      vertex 188.884 2.94069 0
      vertex 189.814 6.99013 0
    endloop
  endfacet
  facet normal 0 0 -1
    outer loop
      vertex 188.504 3.09093 0
      vertex 189.814 6.99013 0
      vertex 188.884 2.94069 0
    endloop
  endfacet
  facet normal 0 0 -1
    outer loop
      vertex 188.109 3.19243 0
      vertex 189.814 6.99013 0
      vertex 188.504 3.09093 0
    endloop
  endfacet
  facet normal 0 0 -1
    outer loop
      vertex 187.704 3.24359 0
      vertex 189.814 6.99013 0
      vertex 188.109 3.19243 0
    endloop
  endfacet
  facet normal 0 0 -1
    outer loop
      vertex 187.296 3.24359 0
      vertex 189.814 6.99013 0
      vertex 187.704 3.24359 0
    endloop
  endfacet
  facet normal 0 0 -1
    outer loop
      vertex 186.891 3.19243 0
      vertex 189.814 6.99013 0
      vertex 187.296 3.24359 0
    endloop
  endfacet
  facet normal 0 0 -1
    outer loop
      vertex 186.496 3.09093 0
      vertex 189.814 6.99013 0
      vertex 186.891 3.19243 0
    endloop
  endfacet
  facet normal 0 0 -1
    outer loop
      vertex 186.116 2.94069 0
      vertex 189.814 6.99013 0
      vertex 186.496 3.09093 0
    endloop
  endfacet
  facet normal 0 0 -1
    outer loop
      vertex 185.759 2.74407 0
      vertex 189.814 6.99013 0
      vertex 186.116 2.94069 0
    endloop
  endfacet
  facet normal 0 0 -1
    outer loop
      vertex 185.428 2.50417 0
      vertex 189.814 6.99013 0
      vertex 185.759 2.74407 0
    endloop
  endfacet
  facet normal 0 0 -1
    outer loop
      vertex 185.131 2.22478 0
      vertex 189.814 6.99013 0
      vertex 185.428 2.50417 0
    endloop
  endfacet
  facet normal 0 0 -1
    outer loop
      vertex -184.25 0 0
      vertex 184.276 0.407332 0
      vertex 184.25 0 0
    endloop
  endfacet
  facet normal 0 0 -1
    outer loop
      vertex -184.276 0.407332 0
      vertex 184.276 0.407332 0
      vertex -184.25 0 0
    endloop
  endfacet
  facet normal 0 0 -1
    outer loop
      vertex 184.276 0.407332 0
      vertex -184.276 0.407332 0
      vertex 184.352 0.808242 0
    endloop
  endfacet
  facet normal 0 0 -1
    outer loop
      vertex -184.352 0.808242 0
      vertex 184.352 0.808242 0
      vertex -184.276 0.407332 0
    endloop
  endfacet
  facet normal 0 0 -1
    outer loop
      vertex 184.352 0.808242 0
      vertex -184.352 0.808242 0
      vertex 184.478 1.1964 0
    endloop
  endfacet
  facet normal 0 0 -1
    outer loop
      vertex -184.478 1.1964 0
      vertex 184.478 1.1964 0
      vertex -184.352 0.808242 0
    endloop
  endfacet
  facet normal 0 0 -1
    outer loop
      vertex 184.478 1.1964 0
      vertex -184.478 1.1964 0
      vertex 184.652 1.5657 0
    endloop
  endfacet
  facet normal 0 0 -1
    outer loop
      vertex -184.652 1.5657 0
      vertex 184.652 1.5657 0
      vertex -184.478 1.1964 0
    endloop
  endfacet
  facet normal 0 0 -1
    outer loop
      vertex 184.652 1.5657 0
      vertex -184.652 1.5657 0
      vertex 184.871 1.9103 0
    endloop
  endfacet
  facet normal 0 0 -1
    outer loop
      vertex -184.871 1.9103 0
      vertex 184.871 1.9103 0
      vertex -184.652 1.5657 0
    endloop
  endfacet
  facet normal 0 0 -1
    outer loop
      vertex 184.871 1.9103 0
      vertex -184.871 1.9103 0
      vertex 185.131 2.22478 0
    endloop
  endfacet
  facet normal 0 0 -1
    outer loop
      vertex -185.131 2.22478 0
      vertex 185.131 2.22478 0
      vertex -184.871 1.9103 0
    endloop
  endfacet
  facet normal 0 0 -1
    outer loop
      vertex 185.131 2.22478 0
      vertex -185.131 2.22478 0
      vertex 189.814 6.99013 0
    endloop
  endfacet
  facet normal 0 0 -1
    outer loop
      vertex -189.814 6.99013 0
      vertex -185.131 2.22478 0
      vertex -185.428 2.50417 0
    endloop
  endfacet
  facet normal 0 0 -1
    outer loop
      vertex -189.814 6.99013 0
      vertex -185.428 2.50417 0
      vertex -185.759 2.74407 0
    endloop
  endfacet
  facet normal 0 0 -1
    outer loop
      vertex -189.814 6.99013 0
      vertex -185.759 2.74407 0
      vertex -186.116 2.94069 0
    endloop
  endfacet
  facet normal 0 0 -1
    outer loop
      vertex -189.814 6.99013 0
      vertex -186.116 2.94069 0
      vertex -186.496 3.09093 0
    endloop
  endfacet
  facet normal 0 0 -1
    outer loop
      vertex -189.814 6.99013 0
      vertex -186.496 3.09093 0
      vertex -186.891 3.19243 0
    endloop
  endfacet
  facet normal 0 0 -1
    outer loop
      vertex -189.814 6.99013 0
      vertex -186.891 3.19243 0
      vertex -187.296 3.24359 0
    endloop
  endfacet
  facet normal 0 0 -1
    outer loop
      vertex -189.814 6.99013 0
      vertex -187.296 3.24359 0
      vertex -187.704 3.24359 0
    endloop
  endfacet
  facet normal 0 0 -1
    outer loop
      vertex -185.131 2.22478 0
      vertex -189.814 6.99013 0
      vertex 189.814 6.99013 0
    endloop
  endfacet
  facet normal 0 0 -1
    outer loop
      vertex -188.109 3.19243 0
      vertex -189.814 6.99013 0
      vertex -187.704 3.24359 0
    endloop
  endfacet
  facet normal 0 0 -1
    outer loop
      vertex -188.504 3.09093 0
      vertex -189.814 6.99013 0
      vertex -188.109 3.19243 0
    endloop
  endfacet
  facet normal 0 0 -1
    outer loop
      vertex -188.884 2.94069 0
      vertex -189.814 6.99013 0
      vertex -188.504 3.09093 0
    endloop
  endfacet
  facet normal 0 0 -1
    outer loop
      vertex -190.437 6.91144 0
      vertex -188.884 2.94069 0
      vertex -189.241 2.74407 0
    endloop
  endfacet
  facet normal 0 0 -1
    outer loop
      vertex -191.629 6.52413 0
      vertex -189.241 2.74407 0
      vertex -189.572 2.50417 0
    endloop
  endfacet
  facet normal 0 0 -1
    outer loop
      vertex -192.687 5.85257 0
      vertex -189.572 2.50417 0
      vertex -189.869 2.22478 0
    endloop
  endfacet
  facet normal 0 0 -1
    outer loop
      vertex -193.545 4.93893 0
      vertex -189.869 2.22478 0
      vertex -190.129 1.9103 0
    endloop
  endfacet
  facet normal 0 0 -1
    outer loop
      vertex -194.149 3.84062 0
      vertex -190.129 1.9103 0
      vertex -190.348 1.5657 0
    endloop
  endfacet
  facet normal 0 0 -1
    outer loop
      vertex -188.884 2.94069 0
      vertex -190.437 6.91144 0
      vertex -189.814 6.99013 0
    endloop
  endfacet
  facet normal 0 0 -1
    outer loop
      vertex -194.461 2.62667 0
      vertex -190.348 1.5657 0
      vertex -190.522 1.1964 0
    endloop
  endfacet
  facet normal 0 0 -1
    outer loop
      vertex -194.5 2 0
      vertex -190.522 1.1964 0
      vertex -190.648 0.808242 0
    endloop
  endfacet
  facet normal 0 0 -1
    outer loop
      vertex -194.5 2 0
      vertex -190.648 0.808242 0
      vertex -190.724 0.407332 0
    endloop
  endfacet
  facet normal 0 0 -1
    outer loop
      vertex -194.5 2 0
      vertex -190.724 0.407332 0
      vertex -190.75 0 0
    endloop
  endfacet
  facet normal 0 0 -1
    outer loop
      vertex -189.241 2.74407 0
      vertex -191.045 6.75528 0
      vertex -190.437 6.91144 0
    endloop
  endfacet
  facet normal 0 0 -1
    outer loop
      vertex -193.882 -4.40877 0
      vertex -190.129 -1.9103 0
      vertex -193.545 -4.93893 0
    endloop
  endfacet
  facet normal 0 0 -1
    outer loop
      vertex -194.149 -3.84062 0
      vertex -190.129 -1.9103 0
      vertex -193.882 -4.40877 0
    endloop
  endfacet
  facet normal 0 0 -1
    outer loop
      vertex -194.5 2 0
      vertex -190.75 0 0
      vertex -194.5 -2 0
    endloop
  endfacet
  facet normal -0 0 -1
    outer loop
      vertex -190.129 -1.9103 0
      vertex -194.149 -3.84062 0
      vertex -190.348 -1.5657 0
    endloop
  endfacet
  facet normal 0 0 -1
    outer loop
      vertex -190.522 1.1964 0
      vertex -194.5 2 0
      vertex -194.461 2.62667 0
    endloop
  endfacet
  facet normal 0 0 -1
    outer loop
      vertex -194.343 -3.24345 0
      vertex -190.348 -1.5657 0
      vertex -194.149 -3.84062 0
    endloop
  endfacet
  facet normal 0 0 -1
    outer loop
      vertex -189.241 2.74407 0
      vertex -191.629 6.52413 0
      vertex -191.045 6.75528 0
    endloop
  endfacet
  facet normal 0 0 -1
    outer loop
      vertex -194.461 -2.62667 0
      vertex -190.348 -1.5657 0
      vertex -194.343 -3.24345 0
    endloop
  endfacet
  facet normal 0 0 -1
    outer loop
      vertex -189.572 2.50417 0
      vertex -192.179 6.22164 0
      vertex -191.629 6.52413 0
    endloop
  endfacet
  facet normal -0 0 -1
    outer loop
      vertex -190.348 -1.5657 0
      vertex -194.461 -2.62667 0
      vertex -190.522 -1.1964 0
    endloop
  endfacet
  facet normal 0 0 -1
    outer loop
      vertex -189.572 2.50417 0
      vertex -192.687 5.85257 0
      vertex -192.179 6.22164 0
    endloop
  endfacet
  facet normal 0 0 -1
    outer loop
      vertex -194.5 -2 0
      vertex -190.522 -1.1964 0
      vertex -194.461 -2.62667 0
    endloop
  endfacet
  facet normal 0 0 -1
    outer loop
      vertex -189.869 2.22478 0
      vertex -193.145 5.42274 0
      vertex -192.687 5.85257 0
    endloop
  endfacet
  facet normal -0 0 -1
    outer loop
      vertex -190.522 -1.1964 0
      vertex -194.5 -2 0
      vertex -190.648 -0.808242 0
    endloop
  endfacet
  facet normal 0 0 -1
    outer loop
      vertex -189.869 2.22478 0
      vertex -193.545 4.93893 0
      vertex -193.145 5.42274 0
    endloop
  endfacet
  facet normal -0 0 -1
    outer loop
      vertex -190.648 -0.808242 0
      vertex -194.5 -2 0
      vertex -190.724 -0.407332 0
    endloop
  endfacet
  facet normal 0 0 -1
    outer loop
      vertex -190.129 1.9103 0
      vertex -193.882 4.40877 0
      vertex -193.545 4.93893 0
    endloop
  endfacet
  facet normal -0 0 -1
    outer loop
      vertex -190.724 -0.407332 0
      vertex -194.5 -2 0
      vertex -190.75 0 0
    endloop
  endfacet
  facet normal 0 0 -1
    outer loop
      vertex -190.129 1.9103 0
      vertex -194.149 3.84062 0
      vertex -193.882 4.40877 0
    endloop
  endfacet
  facet normal 0 0 -1
    outer loop
      vertex -190.348 1.5657 0
      vertex -194.343 3.24345 0
      vertex -194.149 3.84062 0
    endloop
  endfacet
  facet normal 0 0 -1
    outer loop
      vertex -190.348 1.5657 0
      vertex -194.461 2.62667 0
      vertex -194.343 3.24345 0
    endloop
  endfacet
  facet normal -0.248877 0.968535 0
    outer loop
      vertex -186.496 -3.09093 0
      vertex -186.891 -3.19243 3
      vertex -186.496 -3.09093 3
    endloop
  endfacet
  facet normal -0.248877 0.968535 0
    outer loop
      vertex -186.891 -3.19243 3
      vertex -186.496 -3.09093 0
      vertex -186.891 -3.19243 0
    endloop
  endfacet
  facet normal -0.482427 0.875936 0
    outer loop
      vertex -185.759 -2.74407 0
      vertex -186.116 -2.94069 3
      vertex -185.759 -2.74407 3
    endloop
  endfacet
  facet normal -0.482427 0.875936 0
    outer loop
      vertex -186.116 -2.94069 3
      vertex -185.759 -2.74407 0
      vertex -186.116 -2.94069 0
    endloop
  endfacet
  facet normal -0.685183 0.728371 0
    outer loop
      vertex -185.131 -2.22478 0
      vertex -185.428 -2.50417 3
      vertex -185.131 -2.22478 3
    endloop
  endfacet
  facet normal -0.685183 0.728371 0
    outer loop
      vertex -185.428 -2.50417 3
      vertex -185.131 -2.22478 0
      vertex -185.428 -2.50417 0
    endloop
  endfacet
  facet normal -0.904619 0.426222 0
    outer loop
      vertex -184.652 -1.5657 0
      vertex -184.478 -1.1964 3
      vertex -184.478 -1.1964 0
    endloop
  endfacet
  facet normal -0.904619 0.426222 0
    outer loop
      vertex -184.478 -1.1964 3
      vertex -184.652 -1.5657 0
      vertex -184.652 -1.5657 3
    endloop
  endfacet
  facet normal 0.586847 0.809698 -0
    outer loop
      vertex -189.241 -2.74407 0
      vertex -189.572 -2.50417 3
      vertex -189.241 -2.74407 3
    endloop
  endfacet
  facet normal 0.586847 0.809698 0
    outer loop
      vertex -189.572 -2.50417 3
      vertex -189.241 -2.74407 0
      vertex -189.572 -2.50417 0
    endloop
  endfacet
  facet normal 0.248877 0.968535 -0
    outer loop
      vertex -188.109 -3.19243 0
      vertex -188.504 -3.09093 3
      vertex -188.109 -3.19243 3
    endloop
  endfacet
  facet normal 0.248877 0.968535 0
    outer loop
      vertex -188.504 -3.09093 3
      vertex -188.109 -3.19243 0
      vertex -188.504 -3.09093 0
    endloop
  endfacet
  facet normal 0.125325 0.992116 -0
    outer loop
      vertex -187.704 -3.24359 0
      vertex -188.109 -3.19243 3
      vertex -187.704 -3.24359 3
    endloop
  endfacet
  facet normal 0.125325 0.992116 0
    outer loop
      vertex -188.109 -3.19243 3
      vertex -187.704 -3.24359 0
      vertex -188.109 -3.19243 0
    endloop
  endfacet
  facet normal 0.770706 0.63719 0
    outer loop
      vertex -189.869 -2.22478 3
      vertex -190.129 -1.9103 0
      vertex -190.129 -1.9103 3
    endloop
  endfacet
  facet normal 0.770706 0.63719 0
    outer loop
      vertex -190.129 -1.9103 0
      vertex -189.869 -2.22478 3
      vertex -189.869 -2.22478 0
    endloop
  endfacet
  facet normal 0.685183 0.728371 -0
    outer loop
      vertex -189.572 -2.50417 0
      vertex -189.869 -2.22478 3
      vertex -189.572 -2.50417 3
    endloop
  endfacet
  facet normal 0.685183 0.728371 0
    outer loop
      vertex -189.869 -2.22478 3
      vertex -189.572 -2.50417 0
      vertex -189.869 -2.22478 0
    endloop
  endfacet
  facet normal 0.982502 0.186252 0
    outer loop
      vertex -190.648 -0.808242 3
      vertex -190.724 -0.407332 0
      vertex -190.724 -0.407332 3
    endloop
  endfacet
  facet normal 0.982502 0.186252 0
    outer loop
      vertex -190.724 -0.407332 0
      vertex -190.648 -0.808242 3
      vertex -190.648 -0.808242 0
    endloop
  endfacet
  facet normal 0.997969 0.0637004 0
    outer loop
      vertex -190.724 -0.407332 3
      vertex -190.75 0 0
      vertex -190.75 0 3
    endloop
  endfacet
  facet normal 0.997969 0.0637004 0
    outer loop
      vertex -190.75 0 0
      vertex -190.724 -0.407332 3
      vertex -190.724 -0.407332 0
    endloop
  endfacet
  facet normal -0.770706 0.63719 0
    outer loop
      vertex -185.131 -2.22478 0
      vertex -184.871 -1.9103 3
      vertex -184.871 -1.9103 0
    endloop
  endfacet
  facet normal -0.770706 0.63719 0
    outer loop
      vertex -184.871 -1.9103 3
      vertex -185.131 -2.22478 0
      vertex -185.131 -2.22478 3
    endloop
  endfacet
  facet normal 0.482427 0.875936 -0
    outer loop
      vertex -188.884 -2.94069 0
      vertex -189.241 -2.74407 3
      vertex -188.884 -2.94069 3
    endloop
  endfacet
  facet normal 0.482427 0.875936 0
    outer loop
      vertex -189.241 -2.74407 3
      vertex -188.884 -2.94069 0
      vertex -189.241 -2.74407 0
    endloop
  endfacet
  facet normal 0.843984 0.536368 0
    outer loop
      vertex -190.129 -1.9103 3
      vertex -190.348 -1.5657 0
      vertex -190.348 -1.5657 3
    endloop
  endfacet
  facet normal 0.843984 0.536368 0
    outer loop
      vertex -190.348 -1.5657 0
      vertex -190.129 -1.9103 3
      vertex -190.129 -1.9103 0
    endloop
  endfacet
  facet normal -0.367675 0.929954 0
    outer loop
      vertex -186.116 -2.94069 0
      vertex -186.496 -3.09093 3
      vertex -186.116 -2.94069 3
    endloop
  endfacet
  facet normal -0.367675 0.929954 0
    outer loop
      vertex -186.496 -3.09093 3
      vertex -186.116 -2.94069 0
      vertex -186.496 -3.09093 0
    endloop
  endfacet
  facet normal -0.951143 -0.308751 0
    outer loop
      vertex 190.648 0.808242 0
      vertex 190.522 1.1964 3
      vertex 190.522 1.1964 0
    endloop
  endfacet
  facet normal -0.951143 -0.308751 0
    outer loop
      vertex 190.522 1.1964 3
      vertex 190.648 0.808242 0
      vertex 190.648 0.808242 3
    endloop
  endfacet
  facet normal -0.997969 -0.0637004 0
    outer loop
      vertex 190.75 0 0
      vertex 190.724 0.407332 3
      vertex 190.724 0.407332 0
    endloop
  endfacet
  facet normal -0.997969 -0.0637004 0
    outer loop
      vertex 190.724 0.407332 3
      vertex 190.75 0 0
      vertex 190.75 0 3
    endloop
  endfacet
  facet normal 0 -1 0
    outer loop
      vertex 187.296 3.24359 0
      vertex 187.704 3.24359 3
      vertex 187.296 3.24359 3
    endloop
  endfacet
  facet normal 0 -1 -0
    outer loop
      vertex 187.704 3.24359 3
      vertex 187.296 3.24359 0
      vertex 187.704 3.24359 0
    endloop
  endfacet
  facet normal -0.685183 -0.728371 0
    outer loop
      vertex 189.572 2.50417 0
      vertex 189.869 2.22478 3
      vertex 189.572 2.50417 3
    endloop
  endfacet
  facet normal -0.685183 -0.728371 -0
    outer loop
      vertex 189.869 2.22478 3
      vertex 189.572 2.50417 0
      vertex 189.869 2.22478 0
    endloop
  endfacet
  facet normal 0.770706 -0.63719 0
    outer loop
      vertex 184.871 1.9103 3
      vertex 185.131 2.22478 0
      vertex 185.131 2.22478 3
    endloop
  endfacet
  facet normal 0.770706 -0.63719 0
    outer loop
      vertex 185.131 2.22478 0
      vertex 184.871 1.9103 3
      vertex 184.871 1.9103 0
    endloop
  endfacet
  facet normal 0.482427 -0.875936 0
    outer loop
      vertex 185.759 2.74407 0
      vertex 186.116 2.94069 3
      vertex 185.759 2.74407 3
    endloop
  endfacet
  facet normal 0.482427 -0.875936 0
    outer loop
      vertex 186.116 2.94069 3
      vertex 185.759 2.74407 0
      vertex 186.116 2.94069 0
    endloop
  endfacet
  facet normal 0.770706 0.63719 0
    outer loop
      vertex 185.131 -2.22478 3
      vertex 184.871 -1.9103 0
      vertex 184.871 -1.9103 3
    endloop
  endfacet
  facet normal 0.770706 0.63719 0
    outer loop
      vertex 184.871 -1.9103 0
      vertex 185.131 -2.22478 3
      vertex 185.131 -2.22478 0
    endloop
  endfacet
  facet normal -0.904619 -0.426222 0
    outer loop
      vertex 190.522 1.1964 0
      vertex 190.348 1.5657 3
      vertex 190.348 1.5657 0
    endloop
  endfacet
  facet normal -0.904619 -0.426222 0
    outer loop
      vertex 190.348 1.5657 3
      vertex 190.522 1.1964 0
      vertex 190.522 1.1964 3
    endloop
  endfacet
  facet normal -0.843984 -0.536368 0
    outer loop
      vertex 190.348 1.5657 0
      vertex 190.129 1.9103 3
      vertex 190.129 1.9103 0
    endloop
  endfacet
  facet normal -0.843984 -0.536368 0
    outer loop
      vertex 190.129 1.9103 3
      vertex 190.348 1.5657 0
      vertex 190.348 1.5657 3
    endloop
  endfacet
  facet normal -0.367675 -0.929954 0
    outer loop
      vertex 188.504 3.09093 0
      vertex 188.884 2.94069 3
      vertex 188.504 3.09093 3
    endloop
  endfacet
  facet normal -0.367675 -0.929954 -0
    outer loop
      vertex 188.884 2.94069 3
      vertex 188.504 3.09093 0
      vertex 188.884 2.94069 0
    endloop
  endfacet
  facet normal -0.248877 -0.968535 0
    outer loop
      vertex 188.109 3.19243 0
      vertex 188.504 3.09093 3
      vertex 188.109 3.19243 3
    endloop
  endfacet
  facet normal -0.248877 -0.968535 -0
    outer loop
      vertex 188.504 3.09093 3
      vertex 188.109 3.19243 0
      vertex 188.504 3.09093 0
    endloop
  endfacet
  facet normal -0.586847 -0.809698 0
    outer loop
      vertex 189.241 2.74407 0
      vertex 189.572 2.50417 3
      vertex 189.241 2.74407 3
    endloop
  endfacet
  facet normal -0.586847 -0.809698 -0
    outer loop
      vertex 189.572 2.50417 3
      vertex 189.241 2.74407 0
      vertex 189.572 2.50417 0
    endloop
  endfacet
  facet normal 0.951143 -0.308751 0
    outer loop
      vertex 184.352 0.808242 3
      vertex 184.478 1.1964 0
      vertex 184.478 1.1964 3
    endloop
  endfacet
  facet normal 0.951143 -0.308751 0
    outer loop
      vertex 184.478 1.1964 0
      vertex 184.352 0.808242 3
      vertex 184.352 0.808242 0
    endloop
  endfacet
  facet normal 0.904619 -0.426222 0
    outer loop
      vertex 184.478 1.1964 3
      vertex 184.652 1.5657 0
      vertex 184.652 1.5657 3
    endloop
  endfacet
  facet normal 0.904619 -0.426222 0
    outer loop
      vertex 184.652 1.5657 0
      vertex 184.478 1.1964 3
      vertex 184.478 1.1964 0
    endloop
  endfacet
  facet normal 0.997969 -0.0637004 0
    outer loop
      vertex 184.25 0 3
      vertex 184.276 0.407332 0
      vertex 184.276 0.407332 3
    endloop
  endfacet
  facet normal 0.997969 -0.0637004 0
    outer loop
      vertex 184.276 0.407332 0
      vertex 184.25 0 3
      vertex 184.25 0 0
    endloop
  endfacet
  facet normal 0.586847 -0.809698 0
    outer loop
      vertex 185.428 2.50417 0
      vertex 185.759 2.74407 3
      vertex 185.428 2.50417 3
    endloop
  endfacet
  facet normal 0.586847 -0.809698 0
    outer loop
      vertex 185.759 2.74407 3
      vertex 185.428 2.50417 0
      vertex 185.759 2.74407 0
    endloop
  endfacet
  facet normal -0.367675 0.929954 0
    outer loop
      vertex 188.884 -2.94069 0
      vertex 188.504 -3.09093 3
      vertex 188.884 -2.94069 3
    endloop
  endfacet
  facet normal -0.367675 0.929954 0
    outer loop
      vertex 188.504 -3.09093 3
      vertex 188.884 -2.94069 0
      vertex 188.504 -3.09093 0
    endloop
  endfacet
  facet normal -0.770706 0.63719 0
    outer loop
      vertex 189.869 -2.22478 0
      vertex 190.129 -1.9103 3
      vertex 190.129 -1.9103 0
    endloop
  endfacet
  facet normal -0.770706 0.63719 0
    outer loop
      vertex 190.129 -1.9103 3
      vertex 189.869 -2.22478 0
      vertex 189.869 -2.22478 3
    endloop
  endfacet
  facet normal -0.586847 0.809698 0
    outer loop
      vertex 189.572 -2.50417 0
      vertex 189.241 -2.74407 3
      vertex 189.572 -2.50417 3
    endloop
  endfacet
  facet normal -0.586847 0.809698 0
    outer loop
      vertex 189.241 -2.74407 3
      vertex 189.572 -2.50417 0
      vertex 189.241 -2.74407 0
    endloop
  endfacet
  facet normal -0.843984 0.536368 0
    outer loop
      vertex 190.129 -1.9103 0
      vertex 190.348 -1.5657 3
      vertex 190.348 -1.5657 0
    endloop
  endfacet
  facet normal -0.843984 0.536368 0
    outer loop
      vertex 190.348 -1.5657 3
      vertex 190.129 -1.9103 0
      vertex 190.129 -1.9103 3
    endloop
  endfacet
  facet normal 0.586847 0.809698 -0
    outer loop
      vertex 185.759 -2.74407 0
      vertex 185.428 -2.50417 3
      vertex 185.759 -2.74407 3
    endloop
  endfacet
  facet normal 0.586847 0.809698 0
    outer loop
      vertex 185.428 -2.50417 3
      vertex 185.759 -2.74407 0
      vertex 185.428 -2.50417 0
    endloop
  endfacet
  facet normal 0.248877 0.968535 -0
    outer loop
      vertex 186.891 -3.19243 0
      vertex 186.496 -3.09093 3
      vertex 186.891 -3.19243 3
    endloop
  endfacet
  facet normal 0.248877 0.968535 0
    outer loop
      vertex 186.496 -3.09093 3
      vertex 186.891 -3.19243 0
      vertex 186.496 -3.09093 0
    endloop
  endfacet
  facet normal 0.843984 0.536368 0
    outer loop
      vertex 184.871 -1.9103 3
      vertex 184.652 -1.5657 0
      vertex 184.652 -1.5657 3
    endloop
  endfacet
  facet normal 0.843984 0.536368 0
    outer loop
      vertex 184.652 -1.5657 0
      vertex 184.871 -1.9103 3
      vertex 184.871 -1.9103 0
    endloop
  endfacet
  facet normal 0.997969 0.0637004 0
    outer loop
      vertex 184.276 -0.407332 3
      vertex 184.25 0 0
      vertex 184.25 0 3
    endloop
  endfacet
  facet normal 0.997969 0.0637004 0
    outer loop
      vertex 184.25 0 0
      vertex 184.276 -0.407332 3
      vertex 184.276 -0.407332 0
    endloop
  endfacet
  facet normal 0.125325 -0.992116 0
    outer loop
      vertex 186.891 3.19243 0
      vertex 187.296 3.24359 3
      vertex 186.891 3.19243 3
    endloop
  endfacet
  facet normal 0.125325 -0.992116 0
    outer loop
      vertex 187.296 3.24359 3
      vertex 186.891 3.19243 0
      vertex 187.296 3.24359 0
    endloop
  endfacet
  facet normal 0.367675 -0.929954 0
    outer loop
      vertex 186.116 2.94069 0
      vertex 186.496 3.09093 3
      vertex 186.116 2.94069 3
    endloop
  endfacet
  facet normal 0.367675 -0.929954 0
    outer loop
      vertex 186.496 3.09093 3
      vertex 186.116 2.94069 0
      vertex 186.496 3.09093 0
    endloop
  endfacet
  facet normal 0.248877 -0.968535 0
    outer loop
      vertex 186.496 3.09093 0
      vertex 186.891 3.19243 3
      vertex 186.496 3.09093 3
    endloop
  endfacet
  facet normal 0.248877 -0.968535 0
    outer loop
      vertex 186.891 3.19243 3
      vertex 186.496 3.09093 0
      vertex 186.891 3.19243 0
    endloop
  endfacet
  facet normal -0.125325 0.992116 0
    outer loop
      vertex 188.109 -3.19243 0
      vertex 187.704 -3.24359 3
      vertex 188.109 -3.19243 3
    endloop
  endfacet
  facet normal -0.125325 0.992116 0
    outer loop
      vertex 187.704 -3.24359 3
      vertex 188.109 -3.19243 0
      vertex 187.704 -3.24359 0
    endloop
  endfacet
  facet normal -0.248877 0.968535 0
    outer loop
      vertex 188.504 -3.09093 0
      vertex 188.109 -3.19243 3
      vertex 188.504 -3.09093 3
    endloop
  endfacet
  facet normal -0.248877 0.968535 0
    outer loop
      vertex 188.109 -3.19243 3
      vertex 188.504 -3.09093 0
      vertex 188.109 -3.19243 0
    endloop
  endfacet
  facet normal -0.685183 0.728371 0
    outer loop
      vertex 189.869 -2.22478 0
      vertex 189.572 -2.50417 3
      vertex 189.869 -2.22478 3
    endloop
  endfacet
  facet normal -0.685183 0.728371 0
    outer loop
      vertex 189.572 -2.50417 3
      vertex 189.869 -2.22478 0
      vertex 189.572 -2.50417 0
    endloop
  endfacet
  facet normal -0.951143 0.308751 0
    outer loop
      vertex 190.522 -1.1964 0
      vertex 190.648 -0.808242 3
      vertex 190.648 -0.808242 0
    endloop
  endfacet
  facet normal -0.951143 0.308751 0
    outer loop
      vertex 190.648 -0.808242 3
      vertex 190.522 -1.1964 0
      vertex 190.522 -1.1964 3
    endloop
  endfacet
  facet normal -0.997969 0.0637004 0
    outer loop
      vertex 190.724 -0.407332 0
      vertex 190.75 0 3
      vertex 190.75 0 0
    endloop
  endfacet
  facet normal -0.997969 0.0637004 0
    outer loop
      vertex 190.75 0 3
      vertex 190.724 -0.407332 0
      vertex 190.724 -0.407332 3
    endloop
  endfacet
  facet normal 0.125325 0.992116 -0
    outer loop
      vertex 187.296 -3.24359 0
      vertex 186.891 -3.19243 3
      vertex 187.296 -3.24359 3
    endloop
  endfacet
  facet normal 0.125325 0.992116 0
    outer loop
      vertex 186.891 -3.19243 3
      vertex 187.296 -3.24359 0
      vertex 186.891 -3.19243 0
    endloop
  endfacet
  facet normal 0.482427 0.875936 -0
    outer loop
      vertex 186.116 -2.94069 0
      vertex 185.759 -2.74407 3
      vertex 186.116 -2.94069 3
    endloop
  endfacet
  facet normal 0.482427 0.875936 0
    outer loop
      vertex 185.759 -2.74407 3
      vertex 186.116 -2.94069 0
      vertex 185.759 -2.74407 0
    endloop
  endfacet
  facet normal 0 1 -0
    outer loop
      vertex 187.704 -3.24359 0
      vertex 187.296 -3.24359 3
      vertex 187.704 -3.24359 3
    endloop
  endfacet
  facet normal 0 1 0
    outer loop
      vertex 187.296 -3.24359 3
      vertex 187.704 -3.24359 0
      vertex 187.296 -3.24359 0
    endloop
  endfacet
  facet normal 0.685183 0.728371 -0
    outer loop
      vertex 185.428 -2.50417 0
      vertex 185.131 -2.22478 3
      vertex 185.428 -2.50417 3
    endloop
  endfacet
  facet normal 0.685183 0.728371 0
    outer loop
      vertex 185.131 -2.22478 3
      vertex 185.428 -2.50417 0
      vertex 185.131 -2.22478 0
    endloop
  endfacet
  facet normal 0.904619 0.426222 0
    outer loop
      vertex 184.652 -1.5657 3
      vertex 184.478 -1.1964 0
      vertex 184.478 -1.1964 3
    endloop
  endfacet
  facet normal 0.904619 0.426222 0
    outer loop
      vertex 184.478 -1.1964 0
      vertex 184.652 -1.5657 3
      vertex 184.652 -1.5657 0
    endloop
  endfacet
  facet normal 0.982502 0.186252 0
    outer loop
      vertex 184.352 -0.808242 3
      vertex 184.276 -0.407332 0
      vertex 184.276 -0.407332 3
    endloop
  endfacet
  facet normal 0.982502 0.186252 0
    outer loop
      vertex 184.276 -0.407332 0
      vertex 184.352 -0.808242 3
      vertex 184.352 -0.808242 0
    endloop
  endfacet
  facet normal -0.982502 -0.186252 0
    outer loop
      vertex 190.724 0.407332 0
      vertex 190.648 0.808242 3
      vertex 190.648 0.808242 0
    endloop
  endfacet
  facet normal -0.982502 -0.186252 0
    outer loop
      vertex 190.648 0.808242 3
      vertex 190.724 0.407332 0
      vertex 190.724 0.407332 3
    endloop
  endfacet
  facet normal -0.770706 -0.63719 0
    outer loop
      vertex 190.129 1.9103 0
      vertex 189.869 2.22478 3
      vertex 189.869 2.22478 0
    endloop
  endfacet
  facet normal -0.770706 -0.63719 0
    outer loop
      vertex 189.869 2.22478 3
      vertex 190.129 1.9103 0
      vertex 190.129 1.9103 3
    endloop
  endfacet
  facet normal -0.125325 -0.992116 0
    outer loop
      vertex 187.704 3.24359 0
      vertex 188.109 3.19243 3
      vertex 187.704 3.24359 3
    endloop
  endfacet
  facet normal -0.125325 -0.992116 -0
    outer loop
      vertex 188.109 3.19243 3
      vertex 187.704 3.24359 0
      vertex 188.109 3.19243 0
    endloop
  endfacet
  facet normal -0.482427 -0.875936 0
    outer loop
      vertex 188.884 2.94069 0
      vertex 189.241 2.74407 3
      vertex 188.884 2.94069 3
    endloop
  endfacet
  facet normal -0.482427 -0.875936 -0
    outer loop
      vertex 189.241 2.74407 3
      vertex 188.884 2.94069 0
      vertex 189.241 2.74407 0
    endloop
  endfacet
  facet normal 0.843984 -0.536368 0
    outer loop
      vertex 184.652 1.5657 3
      vertex 184.871 1.9103 0
      vertex 184.871 1.9103 3
    endloop
  endfacet
  facet normal 0.843984 -0.536368 0
    outer loop
      vertex 184.871 1.9103 0
      vertex 184.652 1.5657 3
      vertex 184.652 1.5657 0
    endloop
  endfacet
  facet normal 0.982502 -0.186252 0
    outer loop
      vertex 184.276 0.407332 3
      vertex 184.352 0.808242 0
      vertex 184.352 0.808242 3
    endloop
  endfacet
  facet normal 0.982502 -0.186252 0
    outer loop
      vertex 184.352 0.808242 0
      vertex 184.276 0.407332 3
      vertex 184.276 0.407332 0
    endloop
  endfacet
  facet normal 0.685183 -0.728371 0
    outer loop
      vertex 185.131 2.22478 0
      vertex 185.428 2.50417 3
      vertex 185.131 2.22478 3
    endloop
  endfacet
  facet normal 0.685183 -0.728371 0
    outer loop
      vertex 185.428 2.50417 3
      vertex 185.131 2.22478 0
      vertex 185.428 2.50417 0
    endloop
  endfacet
  facet normal -0.482427 0.875936 0
    outer loop
      vertex 189.241 -2.74407 0
      vertex 188.884 -2.94069 3
      vertex 189.241 -2.74407 3
    endloop
  endfacet
  facet normal -0.482427 0.875936 0
    outer loop
      vertex 188.884 -2.94069 3
      vertex 189.241 -2.74407 0
      vertex 188.884 -2.94069 0
    endloop
  endfacet
  facet normal -0.982502 0.186252 0
    outer loop
      vertex 190.648 -0.808242 0
      vertex 190.724 -0.407332 3
      vertex 190.724 -0.407332 0
    endloop
  endfacet
  facet normal -0.982502 0.186252 0
    outer loop
      vertex 190.724 -0.407332 3
      vertex 190.648 -0.808242 0
      vertex 190.648 -0.808242 3
    endloop
  endfacet
  facet normal -0.904619 0.426222 0
    outer loop
      vertex 190.348 -1.5657 0
      vertex 190.522 -1.1964 3
      vertex 190.522 -1.1964 0
    endloop
  endfacet
  facet normal -0.904619 0.426222 0
    outer loop
      vertex 190.522 -1.1964 3
      vertex 190.348 -1.5657 0
      vertex 190.348 -1.5657 3
    endloop
  endfacet
  facet normal 0.367675 0.929954 -0
    outer loop
      vertex 186.496 -3.09093 0
      vertex 186.116 -2.94069 3
      vertex 186.496 -3.09093 3
    endloop
  endfacet
  facet normal 0.367675 0.929954 0
    outer loop
      vertex 186.116 -2.94069 3
      vertex 186.496 -3.09093 0
      vertex 186.116 -2.94069 0
    endloop
  endfacet
  facet normal 0.951143 0.308751 0
    outer loop
      vertex 184.478 -1.1964 3
      vertex 184.352 -0.808242 0
      vertex 184.352 -0.808242 3
    endloop
  endfacet
  facet normal 0.951143 0.308751 0
    outer loop
      vertex 184.352 -0.808242 0
      vertex 184.478 -1.1964 3
      vertex 184.478 -1.1964 0
    endloop
  endfacet
  facet normal -1 0 0
    outer loop
      vertex -194.5 -2 0
      vertex -194.5 2 3
      vertex -194.5 2 0
    endloop
  endfacet
  facet normal -1 -0 0
    outer loop
      vertex -194.5 2 3
      vertex -194.5 -2 0
      vertex -194.5 -2 3
    endloop
  endfacet
  facet normal -0.998069 -0.0621135 0
    outer loop
      vertex -194.461 -2.62667 0
      vertex -194.5 -2 3
      vertex -194.5 -2 0
    endloop
  endfacet
  facet normal -0.998069 -0.0621135 0
    outer loop
      vertex -194.5 -2 3
      vertex -194.461 -2.62667 0
      vertex -194.461 -2.62667 3
    endloop
  endfacet
  facet normal -0.125313 -0.992117 0
    outer loop
      vertex -190.437 -6.91144 0
      vertex -189.814 -6.99013 3
      vertex -190.437 -6.91144 3
    endloop
  endfacet
  facet normal -0.125313 -0.992117 -0
    outer loop
      vertex -189.814 -6.99013 3
      vertex -190.437 -6.91144 0
      vertex -189.814 -6.99013 0
    endloop
  endfacet
  facet normal 0 1 -0
    outer loop
      vertex 189.814 6.99013 0
      vertex -189.814 6.99013 3
      vertex 189.814 6.99013 3
    endloop
  endfacet
  facet normal 0 1 0
    outer loop
      vertex -189.814 6.99013 3
      vertex 189.814 6.99013 0
      vertex -189.814 6.99013 0
    endloop
  endfacet
  facet normal 0 -1 0
    outer loop
      vertex -189.814 -6.99013 0
      vertex 189.814 -6.99013 3
      vertex -189.814 -6.99013 3
    endloop
  endfacet
  facet normal 0 -1 -0
    outer loop
      vertex 189.814 -6.99013 3
      vertex -189.814 -6.99013 0
      vertex 189.814 -6.99013 0
    endloop
  endfacet
  facet normal 0.481907 -0.876223 0
    outer loop
      vertex 191.629 -6.52413 0
      vertex 192.179 -6.22164 3
      vertex 191.629 -6.52413 3
    endloop
  endfacet
  facet normal 0.481907 -0.876223 0
    outer loop
      vertex 192.179 -6.22164 3
      vertex 191.629 -6.52413 0
      vertex 192.179 -6.22164 0
    endloop
  endfacet
  facet normal -0.998069 0.0621135 0
    outer loop
      vertex -194.5 2 0
      vertex -194.461 2.62667 3
      vertex -194.461 2.62667 0
    endloop
  endfacet
  facet normal -0.998069 0.0621135 0
    outer loop
      vertex -194.461 2.62667 3
      vertex -194.5 2 0
      vertex -194.5 2 3
    endloop
  endfacet
  facet normal 0.905042 -0.425321 0
    outer loop
      vertex 193.882 -4.40877 3
      vertex 194.149 -3.84062 0
      vertex 194.149 -3.84062 3
    endloop
  endfacet
  facet normal 0.905042 -0.425321 0
    outer loop
      vertex 194.149 -3.84062 0
      vertex 193.882 -4.40877 3
      vertex 193.882 -4.40877 0
    endloop
  endfacet
  facet normal -0.368026 -0.929816 0
    outer loop
      vertex -191.629 -6.52413 0
      vertex -191.045 -6.75528 3
      vertex -191.629 -6.52413 3
    endloop
  endfacet
  facet normal -0.368026 -0.929816 -0
    outer loop
      vertex -191.045 -6.75528 3
      vertex -191.629 -6.52413 0
      vertex -191.045 -6.75528 0
    endloop
  endfacet
  facet normal -0.684327 -0.729176 0
    outer loop
      vertex -193.145 -5.42274 0
      vertex -192.687 -5.85257 3
      vertex -193.145 -5.42274 3
    endloop
  endfacet
  facet normal -0.684327 -0.729176 -0
    outer loop
      vertex -192.687 -5.85257 3
      vertex -193.145 -5.42274 0
      vertex -192.687 -5.85257 0
    endloop
  endfacet
  facet normal 1 -0 0
    outer loop
      vertex 194.5 -2 3
      vertex 194.5 2 0
      vertex 194.5 2 3
    endloop
  endfacet
  facet normal 1 0 0
    outer loop
      vertex 194.5 2 0
      vertex 194.5 -2 3
      vertex 194.5 -2 0
    endloop
  endfacet
  facet normal 0.951072 -0.30897 0
    outer loop
      vertex 194.149 -3.84062 3
      vertex 194.343 -3.24345 0
      vertex 194.343 -3.24345 3
    endloop
  endfacet
  facet normal 0.951072 -0.30897 0
    outer loop
      vertex 194.343 -3.24345 0
      vertex 194.149 -3.84062 3
      vertex 194.149 -3.84062 0
    endloop
  endfacet
  facet normal 0.905042 0.425321 0
    outer loop
      vertex 194.149 3.84062 3
      vertex 193.882 4.40877 0
      vertex 193.882 4.40877 3
    endloop
  endfacet
  facet normal 0.905042 0.425321 0
    outer loop
      vertex 193.882 4.40877 0
      vertex 194.149 3.84062 3
      vertex 194.149 3.84062 0
    endloop
  endfacet
  facet normal 0.951072 0.30897 0
    outer loop
      vertex 194.343 3.24345 3
      vertex 194.149 3.84062 0
      vertex 194.149 3.84062 3
    endloop
  endfacet
  facet normal 0.951072 0.30897 0
    outer loop
      vertex 194.149 3.84062 0
      vertex 194.343 3.24345 3
      vertex 194.343 3.24345 0
    endloop
  endfacet
  facet normal 0.684327 0.729176 -0
    outer loop
      vertex 193.145 5.42274 0
      vertex 192.687 5.85257 3
      vertex 193.145 5.42274 3
    endloop
  endfacet
  facet normal 0.684327 0.729176 0
    outer loop
      vertex 192.687 5.85257 3
      vertex 193.145 5.42274 0
      vertex 192.687 5.85257 0
    endloop
  endfacet
  facet normal 0.368026 0.929816 -0
    outer loop
      vertex 191.629 6.52413 0
      vertex 191.045 6.75528 3
      vertex 191.629 6.52413 3
    endloop
  endfacet
  facet normal 0.368026 0.929816 0
    outer loop
      vertex 191.045 6.75528 3
      vertex 191.629 6.52413 0
      vertex 191.045 6.75528 0
    endloop
  endfacet
  facet normal 0.248768 0.968563 -0
    outer loop
      vertex 191.045 6.75528 0
      vertex 190.437 6.91144 3
      vertex 191.045 6.75528 3
    endloop
  endfacet
  facet normal 0.248768 0.968563 0
    outer loop
      vertex 190.437 6.91144 3
      vertex 191.045 6.75528 0
      vertex 190.437 6.91144 0
    endloop
  endfacet
  facet normal 0.125313 0.992117 -0
    outer loop
      vertex 190.437 6.91144 0
      vertex 189.814 6.99013 3
      vertex 190.437 6.91144 3
    endloop
  endfacet
  facet normal 0.125313 0.992117 0
    outer loop
      vertex 189.814 6.99013 3
      vertex 190.437 6.91144 0
      vertex 189.814 6.99013 0
    endloop
  endfacet
  facet normal -0.587771 0.809027 0
    outer loop
      vertex -192.179 6.22164 0
      vertex -192.687 5.85257 3
      vertex -192.179 6.22164 3
    endloop
  endfacet
  facet normal -0.587771 0.809027 0
    outer loop
      vertex -192.687 5.85257 3
      vertex -192.179 6.22164 0
      vertex -192.687 5.85257 0
    endloop
  endfacet
  facet normal -0.248768 0.968563 0
    outer loop
      vertex -190.437 6.91144 0
      vertex -191.045 6.75528 3
      vertex -190.437 6.91144 3
    endloop
  endfacet
  facet normal -0.248768 0.968563 0
    outer loop
      vertex -191.045 6.75528 3
      vertex -190.437 6.91144 0
      vertex -191.045 6.75528 0
    endloop
  endfacet
  facet normal -0.770703 0.637195 0
    outer loop
      vertex -193.545 4.93893 0
      vertex -193.145 5.42274 3
      vertex -193.145 5.42274 0
    endloop
  endfacet
  facet normal -0.770703 0.637195 0
    outer loop
      vertex -193.145 5.42274 3
      vertex -193.545 4.93893 0
      vertex -193.545 4.93893 3
    endloop
  endfacet
  facet normal -0.951072 -0.30897 0
    outer loop
      vertex -194.149 -3.84062 0
      vertex -194.343 -3.24345 3
      vertex -194.343 -3.24345 0
    endloop
  endfacet
  facet normal -0.951072 -0.30897 0
    outer loop
      vertex -194.343 -3.24345 3
      vertex -194.149 -3.84062 0
      vertex -194.149 -3.84062 3
    endloop
  endfacet
  facet normal -0.770703 -0.637195 0
    outer loop
      vertex -193.145 -5.42274 0
      vertex -193.545 -4.93893 3
      vertex -193.545 -4.93893 0
    endloop
  endfacet
  facet normal -0.770703 -0.637195 0
    outer loop
      vertex -193.545 -4.93893 3
      vertex -193.145 -5.42274 0
      vertex -193.145 -5.42274 3
    endloop
  endfacet
  facet normal -0.905042 -0.425321 0
    outer loop
      vertex -193.882 -4.40877 0
      vertex -194.149 -3.84062 3
      vertex -194.149 -3.84062 0
    endloop
  endfacet
  facet normal -0.905042 -0.425321 0
    outer loop
      vertex -194.149 -3.84062 3
      vertex -193.882 -4.40877 0
      vertex -193.882 -4.40877 3
    endloop
  endfacet
  facet normal -0.248768 -0.968563 0
    outer loop
      vertex -191.045 -6.75528 0
      vertex -190.437 -6.91144 3
      vertex -191.045 -6.75528 3
    endloop
  endfacet
  facet normal -0.248768 -0.968563 -0
    outer loop
      vertex -190.437 -6.91144 3
      vertex -191.045 -6.75528 0
      vertex -190.437 -6.91144 0
    endloop
  endfacet
  facet normal -0.587771 -0.809027 0
    outer loop
      vertex -192.687 -5.85257 0
      vertex -192.179 -6.22164 3
      vertex -192.687 -5.85257 3
    endloop
  endfacet
  facet normal -0.587771 -0.809027 -0
    outer loop
      vertex -192.179 -6.22164 3
      vertex -192.687 -5.85257 0
      vertex -192.179 -6.22164 0
    endloop
  endfacet
  facet normal 0.998069 -0.0621135 0
    outer loop
      vertex 194.461 -2.62667 3
      vertex 194.5 -2 0
      vertex 194.5 -2 3
    endloop
  endfacet
  facet normal 0.998069 -0.0621135 0
    outer loop
      vertex 194.5 -2 0
      vertex 194.461 -2.62667 3
      vertex 194.461 -2.62667 0
    endloop
  endfacet
  facet normal 0.587771 -0.809027 0
    outer loop
      vertex 192.179 -6.22164 0
      vertex 192.687 -5.85257 3
      vertex 192.179 -6.22164 3
    endloop
  endfacet
  facet normal 0.587771 -0.809027 0
    outer loop
      vertex 192.687 -5.85257 3
      vertex 192.179 -6.22164 0
      vertex 192.687 -5.85257 0
    endloop
  endfacet
  facet normal 0.770703 -0.637195 0
    outer loop
      vertex 193.145 -5.42274 3
      vertex 193.545 -4.93893 0
      vertex 193.545 -4.93893 3
    endloop
  endfacet
  facet normal 0.770703 -0.637195 0
    outer loop
      vertex 193.545 -4.93893 0
      vertex 193.145 -5.42274 3
      vertex 193.145 -5.42274 0
    endloop
  endfacet
  facet normal 0.368026 -0.929816 0
    outer loop
      vertex 191.045 -6.75528 0
      vertex 191.629 -6.52413 3
      vertex 191.045 -6.75528 3
    endloop
  endfacet
  facet normal 0.368026 -0.929816 0
    outer loop
      vertex 191.629 -6.52413 3
      vertex 191.045 -6.75528 0
      vertex 191.629 -6.52413 0
    endloop
  endfacet
  facet normal 0.125313 -0.992117 0
    outer loop
      vertex 189.814 -6.99013 0
      vertex 190.437 -6.91144 3
      vertex 189.814 -6.99013 3
    endloop
  endfacet
  facet normal 0.125313 -0.992117 0
    outer loop
      vertex 190.437 -6.91144 3
      vertex 189.814 -6.99013 0
      vertex 190.437 -6.91144 0
    endloop
  endfacet
  facet normal 0.770703 0.637195 0
    outer loop
      vertex 193.545 4.93893 3
      vertex 193.145 5.42274 0
      vertex 193.145 5.42274 3
    endloop
  endfacet
  facet normal 0.770703 0.637195 0
    outer loop
      vertex 193.145 5.42274 0
      vertex 193.545 4.93893 3
      vertex 193.545 4.93893 0
    endloop
  endfacet
  facet normal 0.843931 0.536451 0
    outer loop
      vertex 193.882 4.40877 3
      vertex 193.545 4.93893 0
      vertex 193.545 4.93893 3
    endloop
  endfacet
  facet normal 0.843931 0.536451 0
    outer loop
      vertex 193.545 4.93893 0
      vertex 193.882 4.40877 3
      vertex 193.882 4.40877 0
    endloop
  endfacet
  facet normal 0.587771 0.809027 -0
    outer loop
      vertex 192.687 5.85257 0
      vertex 192.179 6.22164 3
      vertex 192.687 5.85257 3
    endloop
  endfacet
  facet normal 0.587771 0.809027 0
    outer loop
      vertex 192.179 6.22164 3
      vertex 192.687 5.85257 0
      vertex 192.179 6.22164 0
    endloop
  endfacet
  facet normal 0.481907 0.876223 -0
    outer loop
      vertex 192.179 6.22164 0
      vertex 191.629 6.52413 3
      vertex 192.179 6.22164 3
    endloop
  endfacet
  facet normal 0.481907 0.876223 0
    outer loop
      vertex 191.629 6.52413 3
      vertex 192.179 6.22164 0
      vertex 191.629 6.52413 0
    endloop
  endfacet
  facet normal -0.125313 0.992117 0
    outer loop
      vertex -189.814 6.99013 0
      vertex -190.437 6.91144 3
      vertex -189.814 6.99013 3
    endloop
  endfacet
  facet normal -0.125313 0.992117 0
    outer loop
      vertex -190.437 6.91144 3
      vertex -189.814 6.99013 0
      vertex -190.437 6.91144 0
    endloop
  endfacet
  facet normal -0.951072 0.30897 0
    outer loop
      vertex -194.343 3.24345 0
      vertex -194.149 3.84062 3
      vertex -194.149 3.84062 0
    endloop
  endfacet
  facet normal -0.951072 0.30897 0
    outer loop
      vertex -194.149 3.84062 3
      vertex -194.343 3.24345 0
      vertex -194.343 3.24345 3
    endloop
  endfacet
  facet normal -0.982187 -0.187908 0
    outer loop
      vertex -194.343 -3.24345 0
      vertex -194.461 -2.62667 3
      vertex -194.461 -2.62667 0
    endloop
  endfacet
  facet normal -0.982187 -0.187908 0
    outer loop
      vertex -194.461 -2.62667 3
      vertex -194.343 -3.24345 0
      vertex -194.343 -3.24345 3
    endloop
  endfacet
  facet normal -0.843931 -0.536451 0
    outer loop
      vertex -193.545 -4.93893 0
      vertex -193.882 -4.40877 3
      vertex -193.882 -4.40877 0
    endloop
  endfacet
  facet normal -0.843931 -0.536451 0
    outer loop
      vertex -193.882 -4.40877 3
      vertex -193.545 -4.93893 0
      vertex -193.545 -4.93893 3
    endloop
  endfacet
  facet normal -0.481907 -0.876223 0
    outer loop
      vertex -192.179 -6.22164 0
      vertex -191.629 -6.52413 3
      vertex -192.179 -6.22164 3
    endloop
  endfacet
  facet normal -0.481907 -0.876223 -0
    outer loop
      vertex -191.629 -6.52413 3
      vertex -192.179 -6.22164 0
      vertex -191.629 -6.52413 0
    endloop
  endfacet
  facet normal 0.982187 -0.187908 0
    outer loop
      vertex 194.343 -3.24345 3
      vertex 194.461 -2.62667 0
      vertex 194.461 -2.62667 3
    endloop
  endfacet
  facet normal 0.982187 -0.187908 0
    outer loop
      vertex 194.461 -2.62667 0
      vertex 194.343 -3.24345 3
      vertex 194.343 -3.24345 0
    endloop
  endfacet
  facet normal 0.684327 -0.729176 0
    outer loop
      vertex 192.687 -5.85257 0
      vertex 193.145 -5.42274 3
      vertex 192.687 -5.85257 3
    endloop
  endfacet
  facet normal 0.684327 -0.729176 0
    outer loop
      vertex 193.145 -5.42274 3
      vertex 192.687 -5.85257 0
      vertex 193.145 -5.42274 0
    endloop
  endfacet
  facet normal 0.843931 -0.536451 0
    outer loop
      vertex 193.545 -4.93893 3
      vertex 193.882 -4.40877 0
      vertex 193.882 -4.40877 3
    endloop
  endfacet
  facet normal 0.843931 -0.536451 0
    outer loop
      vertex 193.882 -4.40877 0
      vertex 193.545 -4.93893 3
      vertex 193.545 -4.93893 0
    endloop
  endfacet
  facet normal 0.248768 -0.968563 0
    outer loop
      vertex 190.437 -6.91144 0
      vertex 191.045 -6.75528 3
      vertex 190.437 -6.91144 3
    endloop
  endfacet
  facet normal 0.248768 -0.968563 0
    outer loop
      vertex 191.045 -6.75528 3
      vertex 190.437 -6.91144 0
      vertex 191.045 -6.75528 0
    endloop
  endfacet
  facet normal -0.684327 0.729176 0
    outer loop
      vertex -192.687 5.85257 0
      vertex -193.145 5.42274 3
      vertex -192.687 5.85257 3
    endloop
  endfacet
  facet normal -0.684327 0.729176 0
    outer loop
      vertex -193.145 5.42274 3
      vertex -192.687 5.85257 0
      vertex -193.145 5.42274 0
    endloop
  endfacet
  facet normal -0.368026 0.929816 0
    outer loop
      vertex -191.045 6.75528 0
      vertex -191.629 6.52413 3
      vertex -191.045 6.75528 3
    endloop
  endfacet
  facet normal -0.368026 0.929816 0
    outer loop
      vertex -191.629 6.52413 3
      vertex -191.045 6.75528 0
      vertex -191.629 6.52413 0
    endloop
  endfacet
  facet normal -0.843931 0.536451 0
    outer loop
      vertex -193.882 4.40877 0
      vertex -193.545 4.93893 3
      vertex -193.545 4.93893 0
    endloop
  endfacet
  facet normal -0.843931 0.536451 0
    outer loop
      vertex -193.545 4.93893 3
      vertex -193.882 4.40877 0
      vertex -193.882 4.40877 3
    endloop
  endfacet
  facet normal -0.982187 0.187908 0
    outer loop
      vertex -194.461 2.62667 0
      vertex -194.343 3.24345 3
      vertex -194.343 3.24345 0
    endloop
  endfacet
  facet normal -0.982187 0.187908 0
    outer loop
      vertex -194.343 3.24345 3
      vertex -194.461 2.62667 0
      vertex -194.461 2.62667 3
    endloop
  endfacet
  facet normal 0.982187 0.187908 0
    outer loop
      vertex 194.461 2.62667 3
      vertex 194.343 3.24345 0
      vertex 194.343 3.24345 3
    endloop
  endfacet
  facet normal 0.982187 0.187908 0
    outer loop
      vertex 194.343 3.24345 0
      vertex 194.461 2.62667 3
      vertex 194.461 2.62667 0
    endloop
  endfacet
  facet normal 0.998069 0.0621135 0
    outer loop
      vertex 194.5 2 3
      vertex 194.461 2.62667 0
      vertex 194.461 2.62667 3
    endloop
  endfacet
  facet normal 0.998069 0.0621135 0
    outer loop
      vertex 194.461 2.62667 0
      vertex 194.5 2 3
      vertex 194.5 2 0
    endloop
  endfacet
  facet normal -0.481907 0.876223 0
    outer loop
      vertex -191.629 6.52413 0
      vertex -192.179 6.22164 3
      vertex -191.629 6.52413 3
    endloop
  endfacet
  facet normal -0.481907 0.876223 0
    outer loop
      vertex -192.179 6.22164 3
      vertex -191.629 6.52413 0
      vertex -192.179 6.22164 0
    endloop
  endfacet
  facet normal -0.905042 0.425321 0
    outer loop
      vertex -194.149 3.84062 0
      vertex -193.882 4.40877 3
      vertex -193.882 4.40877 0
    endloop
  endfacet
  facet normal -0.905042 0.425321 0
    outer loop
      vertex -193.882 4.40877 3
      vertex -194.149 3.84062 0
      vertex -194.149 3.84062 3
    endloop
  endfacet
endsolid OpenSCAD_Model
