solid OpenSCAD_Model
  facet normal -0.998019 -0.0629072 0
    outer loop
      vertex -94.5 0 0
      vertex -94.5237 0.375999 12
      vertex -94.5237 0.375999 0
    endloop
  endfacet
  facet normal -0.998019 -0.0629072 0
    outer loop
      vertex -94.5237 0.375999 12
      vertex -94.5 0 0
      vertex -94.5 0 12
    endloop
  endfacet
  facet normal 0.997969 -0.0637003 0
    outer loop
      vertex -100.5 0 12
      vertex -100.476 0.375999 0
      vertex -100.476 0.375999 12
    endloop
  endfacet
  facet normal 0.997969 -0.0637003 0
    outer loop
      vertex -100.476 0.375999 0
      vertex -100.5 0 12
      vertex -100.5 0 0
    endloop
  endfacet
  facet normal 0 -1 0
    outer loop
      vertex -97.6884 2.99408 0
      vertex -97.3116 2.99408 12
      vertex -97.6884 2.99408 12
    endloop
  endfacet
  facet normal 0 -1 -0
    outer loop
      vertex -97.3116 2.99408 12
      vertex -97.6884 2.99408 0
      vertex -97.3116 2.99408 0
    endloop
  endfacet
  facet normal 0 1 -0
    outer loop
      vertex -97.3116 -2.99408 0
      vertex -97.6884 -2.99408 12
      vertex -97.3116 -2.99408 12
    endloop
  endfacet
  facet normal 0 1 0
    outer loop
      vertex -97.6884 -2.99408 12
      vertex -97.3116 -2.99408 0
      vertex -97.6884 -2.99408 0
    endloop
  endfacet
  facet normal -0.684594 -0.728924 0
    outer loop
      vertex -95.5877 2.31154 0
      vertex -95.3131 2.05364 12
      vertex -95.5877 2.31154 12
    endloop
  endfacet
  facet normal -0.684594 -0.728924 -0
    outer loop
      vertex -95.3131 2.05364 12
      vertex -95.5877 2.31154 0
      vertex -95.3131 2.05364 0
    endloop
  endfacet
  facet normal 0.684594 -0.728924 0
    outer loop
      vertex -99.6869 2.05364 0
      vertex -99.4123 2.31154 12
      vertex -99.6869 2.05364 12
    endloop
  endfacet
  facet normal 0.684594 -0.728924 0
    outer loop
      vertex -99.4123 2.31154 12
      vertex -99.6869 2.05364 0
      vertex -99.4123 2.31154 0
    endloop
  endfacet
  facet normal 0.368116 -0.92978 0
    outer loop
      vertex -98.7773 2.71448 0
      vertex -98.427 2.85317 12
      vertex -98.7773 2.71448 12
    endloop
  endfacet
  facet normal 0.368116 -0.92978 0
    outer loop
      vertex -98.427 2.85317 12
      vertex -98.7773 2.71448 0
      vertex -98.427 2.85317 0
    endloop
  endfacet
  facet normal -0.844295 0.535879 0
    outer loop
      vertex -95.073 -1.76336 0
      vertex -94.8711 -1.44526 12
      vertex -94.8711 -1.44526 0
    endloop
  endfacet
  facet normal -0.844295 0.535879 0
    outer loop
      vertex -94.8711 -1.44526 12
      vertex -95.073 -1.76336 0
      vertex -95.073 -1.76336 12
    endloop
  endfacet
  facet normal -0.904838 -0.425756 0
    outer loop
      vertex -94.7107 1.10437 0
      vertex -94.8711 1.44526 12
      vertex -94.8711 1.44526 0
    endloop
  endfacet
  facet normal -0.904838 -0.425756 0
    outer loop
      vertex -94.8711 1.44526 12
      vertex -94.7107 1.10437 0
      vertex -94.7107 1.10437 12
    endloop
  endfacet
  facet normal -0.982285 -0.187395 0
    outer loop
      vertex -94.5237 0.375999 0
      vertex -94.5943 0.746069 12
      vertex -94.5943 0.746069 0
    endloop
  endfacet
  facet normal -0.982285 -0.187395 0
    outer loop
      vertex -94.5943 0.746069 12
      vertex -94.5237 0.375999 0
      vertex -94.5237 0.375999 12
    endloop
  endfacet
  facet normal -0.368116 -0.92978 0
    outer loop
      vertex -96.573 2.85317 0
      vertex -96.2227 2.71448 12
      vertex -96.573 2.85317 12
    endloop
  endfacet
  facet normal -0.368116 -0.92978 -0
    outer loop
      vertex -96.2227 2.71448 12
      vertex -96.573 2.85317 0
      vertex -96.2227 2.71448 0
    endloop
  endfacet
  facet normal -0.587768 -0.80903 0
    outer loop
      vertex -95.8925 2.53298 0
      vertex -95.5877 2.31154 12
      vertex -95.8925 2.53298 12
    endloop
  endfacet
  facet normal -0.587768 -0.80903 -0
    outer loop
      vertex -95.5877 2.31154 12
      vertex -95.8925 2.53298 0
      vertex -95.5877 2.31154 0
    endloop
  endfacet
  facet normal 0.905247 -0.424886 0
    outer loop
      vertex -100.289 1.10437 12
      vertex -100.129 1.44526 0
      vertex -100.129 1.44526 12
    endloop
  endfacet
  facet normal 0.905247 -0.424886 0
    outer loop
      vertex -100.129 1.44526 0
      vertex -100.289 1.10437 12
      vertex -100.289 1.10437 0
    endloop
  endfacet
  facet normal 0.950603 -0.310411 0
    outer loop
      vertex -100.406 0.746069 12
      vertex -100.289 1.10437 0
      vertex -100.289 1.10437 12
    endloop
  endfacet
  facet normal 0.950603 -0.310411 0
    outer loop
      vertex -100.289 1.10437 0
      vertex -100.406 0.746069 12
      vertex -100.406 0.746069 0
    endloop
  endfacet
  facet normal 0.248689 -0.968583 0
    outer loop
      vertex -98.427 2.85317 0
      vertex -98.0621 2.94686 12
      vertex -98.427 2.85317 12
    endloop
  endfacet
  facet normal 0.248689 -0.968583 0
    outer loop
      vertex -98.0621 2.94686 12
      vertex -98.427 2.85317 0
      vertex -98.0621 2.94686 0
    endloop
  endfacet
  facet normal -0.368116 0.92978 0
    outer loop
      vertex -96.2227 -2.71448 0
      vertex -96.573 -2.85317 12
      vertex -96.2227 -2.71448 12
    endloop
  endfacet
  facet normal -0.368116 0.92978 0
    outer loop
      vertex -96.573 -2.85317 12
      vertex -96.2227 -2.71448 0
      vertex -96.573 -2.85317 0
    endloop
  endfacet
  facet normal -0.951071 -0.308971 0
    outer loop
      vertex -94.5943 0.746069 0
      vertex -94.7107 1.10437 12
      vertex -94.7107 1.10437 0
    endloop
  endfacet
  facet normal -0.951071 -0.308971 0
    outer loop
      vertex -94.7107 1.10437 12
      vertex -94.5943 0.746069 0
      vertex -94.5943 0.746069 12
    endloop
  endfacet
  facet normal -0.770566 -0.63736 0
    outer loop
      vertex -95.073 1.76336 0
      vertex -95.3131 2.05364 12
      vertex -95.3131 2.05364 0
    endloop
  endfacet
  facet normal -0.770566 -0.63736 0
    outer loop
      vertex -95.3131 2.05364 12
      vertex -95.073 1.76336 0
      vertex -95.073 1.76336 12
    endloop
  endfacet
  facet normal -0.844295 -0.535879 0
    outer loop
      vertex -94.8711 1.44526 0
      vertex -95.073 1.76336 12
      vertex -95.073 1.76336 0
    endloop
  endfacet
  facet normal -0.844295 -0.535879 0
    outer loop
      vertex -95.073 1.76336 12
      vertex -94.8711 1.44526 0
      vertex -94.8711 1.44526 12
    endloop
  endfacet
  facet normal -0.248689 -0.968583 0
    outer loop
      vertex -96.9379 2.94686 0
      vertex -96.573 2.85317 12
      vertex -96.9379 2.94686 12
    endloop
  endfacet
  facet normal -0.248689 -0.968583 -0
    outer loop
      vertex -96.573 2.85317 12
      vertex -96.9379 2.94686 0
      vertex -96.573 2.85317 0
    endloop
  endfacet
  facet normal -0.125361 -0.992111 0
    outer loop
      vertex -97.3116 2.99408 0
      vertex -96.9379 2.94686 12
      vertex -97.3116 2.99408 12
    endloop
  endfacet
  facet normal -0.125361 -0.992111 -0
    outer loop
      vertex -96.9379 2.94686 12
      vertex -97.3116 2.99408 0
      vertex -96.9379 2.94686 0
    endloop
  endfacet
  facet normal -0.481695 -0.876339 0
    outer loop
      vertex -96.2227 2.71448 0
      vertex -95.8925 2.53298 12
      vertex -96.2227 2.71448 12
    endloop
  endfacet
  facet normal -0.481695 -0.876339 -0
    outer loop
      vertex -95.8925 2.53298 12
      vertex -96.2227 2.71448 0
      vertex -95.8925 2.53298 0
    endloop
  endfacet
  facet normal 0.844175 -0.536068 0
    outer loop
      vertex -100.129 1.44526 12
      vertex -99.927 1.76336 0
      vertex -99.927 1.76336 12
    endloop
  endfacet
  facet normal 0.844175 -0.536068 0
    outer loop
      vertex -99.927 1.76336 0
      vertex -100.129 1.44526 12
      vertex -100.129 1.44526 0
    endloop
  endfacet
  facet normal 0.770566 -0.63736 0
    outer loop
      vertex -99.927 1.76336 12
      vertex -99.6869 2.05364 0
      vertex -99.6869 2.05364 12
    endloop
  endfacet
  facet normal 0.770566 -0.63736 0
    outer loop
      vertex -99.6869 2.05364 0
      vertex -99.927 1.76336 12
      vertex -99.927 1.76336 0
    endloop
  endfacet
  facet normal 0.982577 -0.185858 0
    outer loop
      vertex -100.476 0.375999 12
      vertex -100.406 0.746069 0
      vertex -100.406 0.746069 12
    endloop
  endfacet
  facet normal 0.982577 -0.185858 0
    outer loop
      vertex -100.406 0.746069 0
      vertex -100.476 0.375999 12
      vertex -100.476 0.375999 0
    endloop
  endfacet
  facet normal 0 0 1
    outer loop
      vertex 100.289 1.10437 12
      vertex 104.5 2 12
      vertex 104.461 2.62667 12
    endloop
  endfacet
  facet normal 0 0 1
    outer loop
      vertex 104.5 2 12
      vertex 100.5 0 12
      vertex 104.5 -2 12
    endloop
  endfacet
  facet normal 0 0 1
    outer loop
      vertex 100.129 1.44526 12
      vertex 104.461 2.62667 12
      vertex 104.343 3.24345 12
    endloop
  endfacet
  facet normal -0 0 1
    outer loop
      vertex 100.476 -0.375999 12
      vertex 104.5 -2 12
      vertex 100.5 0 12
    endloop
  endfacet
  facet normal 0 0 1
    outer loop
      vertex 100.129 1.44526 12
      vertex 104.343 3.24345 12
      vertex 104.149 3.84062 12
    endloop
  endfacet
  facet normal -0 0 1
    outer loop
      vertex 100.406 -0.746069 12
      vertex 104.5 -2 12
      vertex 100.476 -0.375999 12
    endloop
  endfacet
  facet normal 0 0 1
    outer loop
      vertex 99.927 1.76336 12
      vertex 104.149 3.84062 12
      vertex 103.882 4.40877 12
    endloop
  endfacet
  facet normal -0 0 1
    outer loop
      vertex 100.289 -1.10437 12
      vertex 104.5 -2 12
      vertex 100.406 -0.746069 12
    endloop
  endfacet
  facet normal 0 0 1
    outer loop
      vertex 99.927 1.76336 12
      vertex 103.882 4.40877 12
      vertex 103.545 4.93893 12
    endloop
  endfacet
  facet normal 0 0 1
    outer loop
      vertex 104.5 -2 12
      vertex 100.289 -1.10437 12
      vertex 104.461 -2.62667 12
    endloop
  endfacet
  facet normal 0 0 1
    outer loop
      vertex 99.6869 2.05364 12
      vertex 103.545 4.93893 12
      vertex 103.145 5.42274 12
    endloop
  endfacet
  facet normal -0 0 1
    outer loop
      vertex 100.129 -1.44526 12
      vertex 104.461 -2.62667 12
      vertex 100.289 -1.10437 12
    endloop
  endfacet
  facet normal 0 0 1
    outer loop
      vertex 99.6869 2.05364 12
      vertex 103.145 5.42274 12
      vertex 102.687 5.85257 12
    endloop
  endfacet
  facet normal 0 0 1
    outer loop
      vertex 104.461 -2.62667 12
      vertex 100.129 -1.44526 12
      vertex 104.343 -3.24345 12
    endloop
  endfacet
  facet normal 0 0 1
    outer loop
      vertex 99.4123 2.31154 12
      vertex 102.687 5.85257 12
      vertex 102.179 6.22164 12
    endloop
  endfacet
  facet normal 0 0 1
    outer loop
      vertex 104.343 -3.24345 12
      vertex 100.129 -1.44526 12
      vertex 104.149 -3.84062 12
    endloop
  endfacet
  facet normal 0 0 1
    outer loop
      vertex 99.4123 2.31154 12
      vertex 102.179 6.22164 12
      vertex 101.629 6.52413 12
    endloop
  endfacet
  facet normal -0 0 1
    outer loop
      vertex 99.927 -1.76336 12
      vertex 104.149 -3.84062 12
      vertex 100.129 -1.44526 12
    endloop
  endfacet
  facet normal 0 0 1
    outer loop
      vertex 99.1075 2.53298 12
      vertex 101.629 6.52413 12
      vertex 101.045 6.75528 12
    endloop
  endfacet
  facet normal 0 0 1
    outer loop
      vertex 104.149 -3.84062 12
      vertex 99.927 -1.76336 12
      vertex 103.882 -4.40877 12
    endloop
  endfacet
  facet normal 0 0 1
    outer loop
      vertex 103.882 -4.40877 12
      vertex 99.927 -1.76336 12
      vertex 103.545 -4.93893 12
    endloop
  endfacet
  facet normal 0 0 1
    outer loop
      vertex 104.5 2 12
      vertex 100.476 0.375999 12
      vertex 100.5 0 12
    endloop
  endfacet
  facet normal 0 0 1
    outer loop
      vertex 99.1075 2.53298 12
      vertex 101.045 6.75528 12
      vertex 100.437 6.91144 12
    endloop
  endfacet
  facet normal 0 0 1
    outer loop
      vertex 104.5 2 12
      vertex 100.406 0.746069 12
      vertex 100.476 0.375999 12
    endloop
  endfacet
  facet normal 0 0 1
    outer loop
      vertex 104.5 2 12
      vertex 100.289 1.10437 12
      vertex 100.406 0.746069 12
    endloop
  endfacet
  facet normal 0 0 1
    outer loop
      vertex 104.461 2.62667 12
      vertex 100.129 1.44526 12
      vertex 100.289 1.10437 12
    endloop
  endfacet
  facet normal 0 0 1
    outer loop
      vertex 104.149 3.84062 12
      vertex 99.927 1.76336 12
      vertex 100.129 1.44526 12
    endloop
  endfacet
  facet normal 0 0 1
    outer loop
      vertex 98.7773 2.71448 12
      vertex 100.437 6.91144 12
      vertex 99.8139 6.99013 12
    endloop
  endfacet
  facet normal 0 0 1
    outer loop
      vertex 103.545 4.93893 12
      vertex 99.6869 2.05364 12
      vertex 99.927 1.76336 12
    endloop
  endfacet
  facet normal 0 0 1
    outer loop
      vertex 102.687 5.85257 12
      vertex 99.4123 2.31154 12
      vertex 99.6869 2.05364 12
    endloop
  endfacet
  facet normal 0 0 1
    outer loop
      vertex 101.629 6.52413 12
      vertex 99.1075 2.53298 12
      vertex 99.4123 2.31154 12
    endloop
  endfacet
  facet normal 0 0 1
    outer loop
      vertex 100.437 6.91144 12
      vertex 98.7773 2.71448 12
      vertex 99.1075 2.53298 12
    endloop
  endfacet
  facet normal 0 0 1
    outer loop
      vertex 99.8139 6.99013 12
      vertex 98.427 2.85317 12
      vertex 98.7773 2.71448 12
    endloop
  endfacet
  facet normal 0 0 1
    outer loop
      vertex 99.8139 6.99013 12
      vertex 98.0621 2.94686 12
      vertex 98.427 2.85317 12
    endloop
  endfacet
  facet normal 0 0 1
    outer loop
      vertex 99.8139 6.99013 12
      vertex 97.6884 2.99408 12
      vertex 98.0621 2.94686 12
    endloop
  endfacet
  facet normal 0 0 1
    outer loop
      vertex 99.8139 6.99013 12
      vertex 97.3116 2.99408 12
      vertex 97.6884 2.99408 12
    endloop
  endfacet
  facet normal 0 0 1
    outer loop
      vertex 99.8139 6.99013 12
      vertex 96.9379 2.94686 12
      vertex 97.3116 2.99408 12
    endloop
  endfacet
  facet normal 0 0 1
    outer loop
      vertex 99.8139 6.99013 12
      vertex 96.573 2.85317 12
      vertex 96.9379 2.94686 12
    endloop
  endfacet
  facet normal 0 0 1
    outer loop
      vertex 99.8139 6.99013 12
      vertex 96.2227 2.71448 12
      vertex 96.573 2.85317 12
    endloop
  endfacet
  facet normal 0 0 1
    outer loop
      vertex 99.8139 6.99013 12
      vertex 95.8925 2.53298 12
      vertex 96.2227 2.71448 12
    endloop
  endfacet
  facet normal 0 0 1
    outer loop
      vertex 99.8139 6.99013 12
      vertex 95.5877 2.31154 12
      vertex 95.8925 2.53298 12
    endloop
  endfacet
  facet normal 0 0 1
    outer loop
      vertex 99.8139 6.99013 12
      vertex 95.3131 2.05364 12
      vertex 95.5877 2.31154 12
    endloop
  endfacet
  facet normal 0 0 1
    outer loop
      vertex 94.5237 0.375999 12
      vertex -94.5 0 12
      vertex 94.5 0 12
    endloop
  endfacet
  facet normal 0 0 1
    outer loop
      vertex -94.5237 0.375999 12
      vertex 94.5237 0.375999 12
      vertex 94.5943 0.746069 12
    endloop
  endfacet
  facet normal 0 0 1
    outer loop
      vertex -94.5943 0.746069 12
      vertex 94.5943 0.746069 12
      vertex 94.7107 1.10437 12
    endloop
  endfacet
  facet normal 0 0 1
    outer loop
      vertex -94.7107 1.10437 12
      vertex 94.7107 1.10437 12
      vertex 94.8711 1.44526 12
    endloop
  endfacet
  facet normal 0 0 1
    outer loop
      vertex -94.8711 1.44526 12
      vertex 94.8711 1.44526 12
      vertex 95.073 1.76336 12
    endloop
  endfacet
  facet normal 0 0 1
    outer loop
      vertex -95.073 1.76336 12
      vertex 95.073 1.76336 12
      vertex 95.3131 2.05364 12
    endloop
  endfacet
  facet normal 0 0 1
    outer loop
      vertex -95.3131 2.05364 12
      vertex 95.3131 2.05364 12
      vertex 99.8139 6.99013 12
    endloop
  endfacet
  facet normal 0 0 1
    outer loop
      vertex 94.5237 0.375999 12
      vertex -94.5237 0.375999 12
      vertex -94.5 0 12
    endloop
  endfacet
  facet normal 0 0 1
    outer loop
      vertex 94.5943 0.746069 12
      vertex -94.5943 0.746069 12
      vertex -94.5237 0.375999 12
    endloop
  endfacet
  facet normal 0 0 1
    outer loop
      vertex 94.7107 1.10437 12
      vertex -94.7107 1.10437 12
      vertex -94.5943 0.746069 12
    endloop
  endfacet
  facet normal 0 0 1
    outer loop
      vertex 94.8711 1.44526 12
      vertex -94.8711 1.44526 12
      vertex -94.7107 1.10437 12
    endloop
  endfacet
  facet normal 0 0 1
    outer loop
      vertex 95.073 1.76336 12
      vertex -95.073 1.76336 12
      vertex -94.8711 1.44526 12
    endloop
  endfacet
  facet normal 0 0 1
    outer loop
      vertex 95.3131 2.05364 12
      vertex -95.3131 2.05364 12
      vertex -95.073 1.76336 12
    endloop
  endfacet
  facet normal -0 0 1
    outer loop
      vertex -99.8139 6.99013 12
      vertex -95.3131 2.05364 12
      vertex 99.8139 6.99013 12
    endloop
  endfacet
  facet normal 0 0 1
    outer loop
      vertex -95.3131 2.05364 12
      vertex -99.8139 6.99013 12
      vertex -95.5877 2.31154 12
    endloop
  endfacet
  facet normal 0 0 1
    outer loop
      vertex -95.5877 2.31154 12
      vertex -99.8139 6.99013 12
      vertex -95.8925 2.53298 12
    endloop
  endfacet
  facet normal 0 0 1
    outer loop
      vertex -95.8925 2.53298 12
      vertex -99.8139 6.99013 12
      vertex -96.2227 2.71448 12
    endloop
  endfacet
  facet normal 0 0 1
    outer loop
      vertex -96.2227 2.71448 12
      vertex -99.8139 6.99013 12
      vertex -96.573 2.85317 12
    endloop
  endfacet
  facet normal 0 0 1
    outer loop
      vertex -96.573 2.85317 12
      vertex -99.8139 6.99013 12
      vertex -96.9379 2.94686 12
    endloop
  endfacet
  facet normal 0 0 1
    outer loop
      vertex -96.9379 2.94686 12
      vertex -99.8139 6.99013 12
      vertex -97.3116 2.99408 12
    endloop
  endfacet
  facet normal 0 0 1
    outer loop
      vertex -97.3116 2.99408 12
      vertex -99.8139 6.99013 12
      vertex -97.6884 2.99408 12
    endloop
  endfacet
  facet normal 0 0 1
    outer loop
      vertex -99.8139 6.99013 12
      vertex -98.0621 2.94686 12
      vertex -97.6884 2.99408 12
    endloop
  endfacet
  facet normal 0 0 1
    outer loop
      vertex -99.8139 6.99013 12
      vertex -98.427 2.85317 12
      vertex -98.0621 2.94686 12
    endloop
  endfacet
  facet normal 0 0 1
    outer loop
      vertex -99.8139 6.99013 12
      vertex -98.7773 2.71448 12
      vertex -98.427 2.85317 12
    endloop
  endfacet
  facet normal -0 0 1
    outer loop
      vertex -100.437 6.91144 12
      vertex -98.7773 2.71448 12
      vertex -99.8139 6.99013 12
    endloop
  endfacet
  facet normal 0 0 1
    outer loop
      vertex -98.7773 2.71448 12
      vertex -100.437 6.91144 12
      vertex -99.1075 2.53298 12
    endloop
  endfacet
  facet normal -0 0 1
    outer loop
      vertex -101.045 6.75528 12
      vertex -99.1075 2.53298 12
      vertex -100.437 6.91144 12
    endloop
  endfacet
  facet normal -0 0 1
    outer loop
      vertex -101.629 6.52413 12
      vertex -99.1075 2.53298 12
      vertex -101.045 6.75528 12
    endloop
  endfacet
  facet normal 0 0 1
    outer loop
      vertex -99.1075 2.53298 12
      vertex -101.629 6.52413 12
      vertex -99.4123 2.31154 12
    endloop
  endfacet
  facet normal -0 0 1
    outer loop
      vertex -102.179 6.22164 12
      vertex -99.4123 2.31154 12
      vertex -101.629 6.52413 12
    endloop
  endfacet
  facet normal -0 0 1
    outer loop
      vertex -102.687 5.85257 12
      vertex -99.4123 2.31154 12
      vertex -102.179 6.22164 12
    endloop
  endfacet
  facet normal 0 0 1
    outer loop
      vertex -99.4123 2.31154 12
      vertex -102.687 5.85257 12
      vertex -99.6869 2.05364 12
    endloop
  endfacet
  facet normal -0 0 1
    outer loop
      vertex -103.145 5.42274 12
      vertex -99.6869 2.05364 12
      vertex -102.687 5.85257 12
    endloop
  endfacet
  facet normal -0 0 1
    outer loop
      vertex -103.545 4.93893 12
      vertex -99.6869 2.05364 12
      vertex -103.145 5.42274 12
    endloop
  endfacet
  facet normal 0 0 1
    outer loop
      vertex -99.6869 2.05364 12
      vertex -103.545 4.93893 12
      vertex -99.927 1.76336 12
    endloop
  endfacet
  facet normal -0 0 1
    outer loop
      vertex 99.6869 -2.05364 12
      vertex 103.545 -4.93893 12
      vertex 99.927 -1.76336 12
    endloop
  endfacet
  facet normal 0 0 1
    outer loop
      vertex 103.545 -4.93893 12
      vertex 99.6869 -2.05364 12
      vertex 103.145 -5.42274 12
    endloop
  endfacet
  facet normal 0 0 1
    outer loop
      vertex 103.145 -5.42274 12
      vertex 99.6869 -2.05364 12
      vertex 102.687 -5.85257 12
    endloop
  endfacet
  facet normal -0 0 1
    outer loop
      vertex 99.4123 -2.31154 12
      vertex 102.687 -5.85257 12
      vertex 99.6869 -2.05364 12
    endloop
  endfacet
  facet normal 0 0 1
    outer loop
      vertex 102.687 -5.85257 12
      vertex 99.4123 -2.31154 12
      vertex 102.179 -6.22164 12
    endloop
  endfacet
  facet normal 0 0 1
    outer loop
      vertex 102.179 -6.22164 12
      vertex 99.4123 -2.31154 12
      vertex 101.629 -6.52413 12
    endloop
  endfacet
  facet normal -0 0 1
    outer loop
      vertex 99.1075 -2.53298 12
      vertex 101.629 -6.52413 12
      vertex 99.4123 -2.31154 12
    endloop
  endfacet
  facet normal 0 0 1
    outer loop
      vertex 101.629 -6.52413 12
      vertex 99.1075 -2.53298 12
      vertex 101.045 -6.75528 12
    endloop
  endfacet
  facet normal 0 0 1
    outer loop
      vertex 101.045 -6.75528 12
      vertex 99.1075 -2.53298 12
      vertex 100.437 -6.91144 12
    endloop
  endfacet
  facet normal -0 0 1
    outer loop
      vertex 98.7773 -2.71448 12
      vertex 100.437 -6.91144 12
      vertex 99.1075 -2.53298 12
    endloop
  endfacet
  facet normal 0 0 1
    outer loop
      vertex 100.437 -6.91144 12
      vertex 98.7773 -2.71448 12
      vertex 99.8139 -6.99013 12
    endloop
  endfacet
  facet normal -0 0 1
    outer loop
      vertex 98.427 -2.85317 12
      vertex 99.8139 -6.99013 12
      vertex 98.7773 -2.71448 12
    endloop
  endfacet
  facet normal -0 0 1
    outer loop
      vertex 98.0621 -2.94686 12
      vertex 99.8139 -6.99013 12
      vertex 98.427 -2.85317 12
    endloop
  endfacet
  facet normal -0 0 1
    outer loop
      vertex 97.6884 -2.99408 12
      vertex 99.8139 -6.99013 12
      vertex 98.0621 -2.94686 12
    endloop
  endfacet
  facet normal -0 0 1
    outer loop
      vertex 97.3116 -2.99408 12
      vertex 99.8139 -6.99013 12
      vertex 97.6884 -2.99408 12
    endloop
  endfacet
  facet normal 0 0 1
    outer loop
      vertex 96.9379 -2.94686 12
      vertex 99.8139 -6.99013 12
      vertex 97.3116 -2.99408 12
    endloop
  endfacet
  facet normal 0 0 1
    outer loop
      vertex 96.573 -2.85317 12
      vertex 99.8139 -6.99013 12
      vertex 96.9379 -2.94686 12
    endloop
  endfacet
  facet normal 0 0 1
    outer loop
      vertex 96.2227 -2.71448 12
      vertex 99.8139 -6.99013 12
      vertex 96.573 -2.85317 12
    endloop
  endfacet
  facet normal 0 0 1
    outer loop
      vertex 95.8925 -2.53298 12
      vertex 99.8139 -6.99013 12
      vertex 96.2227 -2.71448 12
    endloop
  endfacet
  facet normal 0 0 1
    outer loop
      vertex 95.5877 -2.31154 12
      vertex 99.8139 -6.99013 12
      vertex 95.8925 -2.53298 12
    endloop
  endfacet
  facet normal 0 0 1
    outer loop
      vertex 95.3131 -2.05364 12
      vertex 99.8139 -6.99013 12
      vertex 95.5877 -2.31154 12
    endloop
  endfacet
  facet normal -0 0 1
    outer loop
      vertex -94.5 0 12
      vertex 94.5237 -0.375999 12
      vertex 94.5 0 12
    endloop
  endfacet
  facet normal 0 0 1
    outer loop
      vertex -94.5237 -0.375999 12
      vertex 94.5237 -0.375999 12
      vertex -94.5 0 12
    endloop
  endfacet
  facet normal 0 0 1
    outer loop
      vertex 94.5237 -0.375999 12
      vertex -94.5237 -0.375999 12
      vertex 94.5943 -0.746069 12
    endloop
  endfacet
  facet normal 0 0 1
    outer loop
      vertex -94.5943 -0.746069 12
      vertex 94.5943 -0.746069 12
      vertex -94.5237 -0.375999 12
    endloop
  endfacet
  facet normal 0 0 1
    outer loop
      vertex 94.5943 -0.746069 12
      vertex -94.5943 -0.746069 12
      vertex 94.7107 -1.10437 12
    endloop
  endfacet
  facet normal 0 0 1
    outer loop
      vertex -94.7107 -1.10437 12
      vertex 94.7107 -1.10437 12
      vertex -94.5943 -0.746069 12
    endloop
  endfacet
  facet normal 0 0 1
    outer loop
      vertex 94.7107 -1.10437 12
      vertex -94.7107 -1.10437 12
      vertex 94.8711 -1.44526 12
    endloop
  endfacet
  facet normal 0 0 1
    outer loop
      vertex -94.8711 -1.44526 12
      vertex 94.8711 -1.44526 12
      vertex -94.7107 -1.10437 12
    endloop
  endfacet
  facet normal 0 0 1
    outer loop
      vertex 94.8711 -1.44526 12
      vertex -94.8711 -1.44526 12
      vertex 95.073 -1.76336 12
    endloop
  endfacet
  facet normal 0 0 1
    outer loop
      vertex -95.073 -1.76336 12
      vertex 95.073 -1.76336 12
      vertex -94.8711 -1.44526 12
    endloop
  endfacet
  facet normal 0 0 1
    outer loop
      vertex 95.073 -1.76336 12
      vertex -95.073 -1.76336 12
      vertex 95.3131 -2.05364 12
    endloop
  endfacet
  facet normal 0 0 1
    outer loop
      vertex -95.3131 -2.05364 12
      vertex 95.3131 -2.05364 12
      vertex -95.073 -1.76336 12
    endloop
  endfacet
  facet normal 0 0 1
    outer loop
      vertex 95.3131 -2.05364 12
      vertex -95.3131 -2.05364 12
      vertex 99.8139 -6.99013 12
    endloop
  endfacet
  facet normal 0 0 1
    outer loop
      vertex -99.8139 -6.99013 12
      vertex -95.3131 -2.05364 12
      vertex -95.5877 -2.31154 12
    endloop
  endfacet
  facet normal 0 0 1
    outer loop
      vertex -99.8139 -6.99013 12
      vertex -95.5877 -2.31154 12
      vertex -95.8925 -2.53298 12
    endloop
  endfacet
  facet normal 0 0 1
    outer loop
      vertex -99.8139 -6.99013 12
      vertex -95.8925 -2.53298 12
      vertex -96.2227 -2.71448 12
    endloop
  endfacet
  facet normal 0 0 1
    outer loop
      vertex -99.8139 -6.99013 12
      vertex -96.2227 -2.71448 12
      vertex -96.573 -2.85317 12
    endloop
  endfacet
  facet normal 0 0 1
    outer loop
      vertex -99.8139 -6.99013 12
      vertex -96.573 -2.85317 12
      vertex -96.9379 -2.94686 12
    endloop
  endfacet
  facet normal 0 0 1
    outer loop
      vertex -99.8139 -6.99013 12
      vertex -96.9379 -2.94686 12
      vertex -97.3116 -2.99408 12
    endloop
  endfacet
  facet normal 0 0 1
    outer loop
      vertex -99.8139 -6.99013 12
      vertex -97.3116 -2.99408 12
      vertex -97.6884 -2.99408 12
    endloop
  endfacet
  facet normal 0 0 1
    outer loop
      vertex -95.3131 -2.05364 12
      vertex -99.8139 -6.99013 12
      vertex 99.8139 -6.99013 12
    endloop
  endfacet
  facet normal 0 0 1
    outer loop
      vertex -98.0621 -2.94686 12
      vertex -99.8139 -6.99013 12
      vertex -97.6884 -2.99408 12
    endloop
  endfacet
  facet normal 0 0 1
    outer loop
      vertex -98.427 -2.85317 12
      vertex -99.8139 -6.99013 12
      vertex -98.0621 -2.94686 12
    endloop
  endfacet
  facet normal 0 0 1
    outer loop
      vertex -98.7773 -2.71448 12
      vertex -99.8139 -6.99013 12
      vertex -98.427 -2.85317 12
    endloop
  endfacet
  facet normal 0 0 1
    outer loop
      vertex -100.437 -6.91144 12
      vertex -98.7773 -2.71448 12
      vertex -99.1075 -2.53298 12
    endloop
  endfacet
  facet normal 0 0 1
    outer loop
      vertex -101.629 -6.52413 12
      vertex -99.1075 -2.53298 12
      vertex -99.4123 -2.31154 12
    endloop
  endfacet
  facet normal 0 0 1
    outer loop
      vertex -102.687 -5.85257 12
      vertex -99.4123 -2.31154 12
      vertex -99.6869 -2.05364 12
    endloop
  endfacet
  facet normal 0 0 1
    outer loop
      vertex -103.545 -4.93893 12
      vertex -99.6869 -2.05364 12
      vertex -99.927 -1.76336 12
    endloop
  endfacet
  facet normal 0 0 1
    outer loop
      vertex -104.149 -3.84062 12
      vertex -99.927 -1.76336 12
      vertex -100.129 -1.44526 12
    endloop
  endfacet
  facet normal 0 0 1
    outer loop
      vertex -104.461 -2.62667 12
      vertex -100.129 -1.44526 12
      vertex -100.289 -1.10437 12
    endloop
  endfacet
  facet normal 0 0 1
    outer loop
      vertex -104.5 -2 12
      vertex -100.289 -1.10437 12
      vertex -100.406 -0.746069 12
    endloop
  endfacet
  facet normal 0 0 1
    outer loop
      vertex -98.7773 -2.71448 12
      vertex -100.437 -6.91144 12
      vertex -99.8139 -6.99013 12
    endloop
  endfacet
  facet normal 0 0 1
    outer loop
      vertex -104.5 -2 12
      vertex -100.406 -0.746069 12
      vertex -100.476 -0.375999 12
    endloop
  endfacet
  facet normal 0 0 1
    outer loop
      vertex -104.5 -2 12
      vertex -100.476 -0.375999 12
      vertex -100.5 0 12
    endloop
  endfacet
  facet normal -0 0 1
    outer loop
      vertex -103.882 4.40877 12
      vertex -99.927 1.76336 12
      vertex -103.545 4.93893 12
    endloop
  endfacet
  facet normal 0 0 1
    outer loop
      vertex -104.5 -2 12
      vertex -100.5 0 12
      vertex -104.5 2 12
    endloop
  endfacet
  facet normal -0 0 1
    outer loop
      vertex -104.149 3.84062 12
      vertex -99.927 1.76336 12
      vertex -103.882 4.40877 12
    endloop
  endfacet
  facet normal 0 0 1
    outer loop
      vertex -100.289 -1.10437 12
      vertex -104.5 -2 12
      vertex -104.461 -2.62667 12
    endloop
  endfacet
  facet normal 0 0 1
    outer loop
      vertex -99.927 1.76336 12
      vertex -104.149 3.84062 12
      vertex -100.129 1.44526 12
    endloop
  endfacet
  facet normal 0 0 1
    outer loop
      vertex -99.1075 -2.53298 12
      vertex -101.045 -6.75528 12
      vertex -100.437 -6.91144 12
    endloop
  endfacet
  facet normal -0 0 1
    outer loop
      vertex -104.343 3.24345 12
      vertex -100.129 1.44526 12
      vertex -104.149 3.84062 12
    endloop
  endfacet
  facet normal 0 0 1
    outer loop
      vertex -99.1075 -2.53298 12
      vertex -101.629 -6.52413 12
      vertex -101.045 -6.75528 12
    endloop
  endfacet
  facet normal -0 0 1
    outer loop
      vertex -104.461 2.62667 12
      vertex -100.129 1.44526 12
      vertex -104.343 3.24345 12
    endloop
  endfacet
  facet normal 0 0 1
    outer loop
      vertex -99.4123 -2.31154 12
      vertex -102.179 -6.22164 12
      vertex -101.629 -6.52413 12
    endloop
  endfacet
  facet normal 0 0 1
    outer loop
      vertex -100.129 1.44526 12
      vertex -104.461 2.62667 12
      vertex -100.289 1.10437 12
    endloop
  endfacet
  facet normal 0 0 1
    outer loop
      vertex -99.4123 -2.31154 12
      vertex -102.687 -5.85257 12
      vertex -102.179 -6.22164 12
    endloop
  endfacet
  facet normal -0 0 1
    outer loop
      vertex -104.5 2 12
      vertex -100.289 1.10437 12
      vertex -104.461 2.62667 12
    endloop
  endfacet
  facet normal 0 0 1
    outer loop
      vertex -99.6869 -2.05364 12
      vertex -103.145 -5.42274 12
      vertex -102.687 -5.85257 12
    endloop
  endfacet
  facet normal 0 0 1
    outer loop
      vertex -100.289 1.10437 12
      vertex -104.5 2 12
      vertex -100.406 0.746069 12
    endloop
  endfacet
  facet normal 0 0 1
    outer loop
      vertex -99.6869 -2.05364 12
      vertex -103.545 -4.93893 12
      vertex -103.145 -5.42274 12
    endloop
  endfacet
  facet normal 0 0 1
    outer loop
      vertex -100.406 0.746069 12
      vertex -104.5 2 12
      vertex -100.476 0.375999 12
    endloop
  endfacet
  facet normal 0 0 1
    outer loop
      vertex -99.927 -1.76336 12
      vertex -103.882 -4.40877 12
      vertex -103.545 -4.93893 12
    endloop
  endfacet
  facet normal 0 0 1
    outer loop
      vertex -100.476 0.375999 12
      vertex -104.5 2 12
      vertex -100.5 0 12
    endloop
  endfacet
  facet normal 0 0 1
    outer loop
      vertex -99.927 -1.76336 12
      vertex -104.149 -3.84062 12
      vertex -103.882 -4.40877 12
    endloop
  endfacet
  facet normal 0 0 1
    outer loop
      vertex -100.129 -1.44526 12
      vertex -104.343 -3.24345 12
      vertex -104.149 -3.84062 12
    endloop
  endfacet
  facet normal 0 0 1
    outer loop
      vertex -100.129 -1.44526 12
      vertex -104.461 -2.62667 12
      vertex -104.343 -3.24345 12
    endloop
  endfacet
  facet normal 0.481695 -0.876339 0
    outer loop
      vertex -99.1075 2.53298 0
      vertex -98.7773 2.71448 12
      vertex -99.1075 2.53298 12
    endloop
  endfacet
  facet normal 0.481695 -0.876339 0
    outer loop
      vertex -98.7773 2.71448 12
      vertex -99.1075 2.53298 0
      vertex -98.7773 2.71448 0
    endloop
  endfacet
  facet normal 0.587768 -0.80903 0
    outer loop
      vertex -99.4123 2.31154 0
      vertex -99.1075 2.53298 12
      vertex -99.4123 2.31154 12
    endloop
  endfacet
  facet normal 0.587768 -0.80903 0
    outer loop
      vertex -99.1075 2.53298 12
      vertex -99.4123 2.31154 0
      vertex -99.1075 2.53298 0
    endloop
  endfacet
  facet normal 0.125361 -0.992111 0
    outer loop
      vertex -98.0621 2.94686 0
      vertex -97.6884 2.99408 12
      vertex -98.0621 2.94686 12
    endloop
  endfacet
  facet normal 0.125361 -0.992111 0
    outer loop
      vertex -97.6884 2.99408 12
      vertex -98.0621 2.94686 0
      vertex -97.6884 2.99408 0
    endloop
  endfacet
  facet normal -0.998019 0.0629072 0
    outer loop
      vertex -94.5237 -0.375999 0
      vertex -94.5 0 12
      vertex -94.5 0 0
    endloop
  endfacet
  facet normal -0.998019 0.0629072 0
    outer loop
      vertex -94.5 0 12
      vertex -94.5237 -0.375999 0
      vertex -94.5237 -0.375999 12
    endloop
  endfacet
  facet normal -0.481695 0.876339 0
    outer loop
      vertex -95.8925 -2.53298 0
      vertex -96.2227 -2.71448 12
      vertex -95.8925 -2.53298 12
    endloop
  endfacet
  facet normal -0.481695 0.876339 0
    outer loop
      vertex -96.2227 -2.71448 12
      vertex -95.8925 -2.53298 0
      vertex -96.2227 -2.71448 0
    endloop
  endfacet
  facet normal -0.684594 0.728924 0
    outer loop
      vertex -95.3131 -2.05364 0
      vertex -95.5877 -2.31154 12
      vertex -95.3131 -2.05364 12
    endloop
  endfacet
  facet normal -0.684594 0.728924 0
    outer loop
      vertex -95.5877 -2.31154 12
      vertex -95.3131 -2.05364 0
      vertex -95.5877 -2.31154 0
    endloop
  endfacet
  facet normal -0.982285 0.187395 0
    outer loop
      vertex -94.5943 -0.746069 0
      vertex -94.5237 -0.375999 12
      vertex -94.5237 -0.375999 0
    endloop
  endfacet
  facet normal -0.982285 0.187395 0
    outer loop
      vertex -94.5237 -0.375999 12
      vertex -94.5943 -0.746069 0
      vertex -94.5943 -0.746069 12
    endloop
  endfacet
  facet normal 0 0 -1
    outer loop
      vertex 100.289 -1.10437 0
      vertex 104.5 -2 0
      vertex 104.461 -2.62667 0
    endloop
  endfacet
  facet normal 0 0 -1
    outer loop
      vertex 104.5 -2 0
      vertex 100.5 0 0
      vertex 104.5 2 0
    endloop
  endfacet
  facet normal 0 0 -1
    outer loop
      vertex 100.129 -1.44526 0
      vertex 104.461 -2.62667 0
      vertex 104.343 -3.24345 0
    endloop
  endfacet
  facet normal 0 0 -1
    outer loop
      vertex 100.476 0.375999 0
      vertex 104.5 2 0
      vertex 100.5 0 0
    endloop
  endfacet
  facet normal 0 0 -1
    outer loop
      vertex 100.129 -1.44526 0
      vertex 104.343 -3.24345 0
      vertex 104.149 -3.84062 0
    endloop
  endfacet
  facet normal 0 0 -1
    outer loop
      vertex 100.406 0.746069 0
      vertex 104.5 2 0
      vertex 100.476 0.375999 0
    endloop
  endfacet
  facet normal 0 0 -1
    outer loop
      vertex 99.927 -1.76336 0
      vertex 104.149 -3.84062 0
      vertex 103.882 -4.40877 0
    endloop
  endfacet
  facet normal 0 0 -1
    outer loop
      vertex 100.289 1.10437 0
      vertex 104.5 2 0
      vertex 100.406 0.746069 0
    endloop
  endfacet
  facet normal 0 0 -1
    outer loop
      vertex 99.927 -1.76336 0
      vertex 103.882 -4.40877 0
      vertex 103.545 -4.93893 0
    endloop
  endfacet
  facet normal -0 0 -1
    outer loop
      vertex 104.5 2 0
      vertex 100.289 1.10437 0
      vertex 104.461 2.62667 0
    endloop
  endfacet
  facet normal 0 0 -1
    outer loop
      vertex 99.6869 -2.05364 0
      vertex 103.545 -4.93893 0
      vertex 103.145 -5.42274 0
    endloop
  endfacet
  facet normal 0 0 -1
    outer loop
      vertex 100.129 1.44526 0
      vertex 104.461 2.62667 0
      vertex 100.289 1.10437 0
    endloop
  endfacet
  facet normal 0 0 -1
    outer loop
      vertex 99.6869 -2.05364 0
      vertex 103.145 -5.42274 0
      vertex 102.687 -5.85257 0
    endloop
  endfacet
  facet normal -0 0 -1
    outer loop
      vertex 104.461 2.62667 0
      vertex 100.129 1.44526 0
      vertex 104.343 3.24345 0
    endloop
  endfacet
  facet normal 0 0 -1
    outer loop
      vertex 99.4123 -2.31154 0
      vertex 102.687 -5.85257 0
      vertex 102.179 -6.22164 0
    endloop
  endfacet
  facet normal -0 0 -1
    outer loop
      vertex 104.343 3.24345 0
      vertex 100.129 1.44526 0
      vertex 104.149 3.84062 0
    endloop
  endfacet
  facet normal 0 0 -1
    outer loop
      vertex 99.4123 -2.31154 0
      vertex 102.179 -6.22164 0
      vertex 101.629 -6.52413 0
    endloop
  endfacet
  facet normal 0 0 -1
    outer loop
      vertex 99.927 1.76336 0
      vertex 104.149 3.84062 0
      vertex 100.129 1.44526 0
    endloop
  endfacet
  facet normal 0 0 -1
    outer loop
      vertex 99.1075 -2.53298 0
      vertex 101.629 -6.52413 0
      vertex 101.045 -6.75528 0
    endloop
  endfacet
  facet normal -0 0 -1
    outer loop
      vertex 104.149 3.84062 0
      vertex 99.927 1.76336 0
      vertex 103.882 4.40877 0
    endloop
  endfacet
  facet normal -0 0 -1
    outer loop
      vertex 103.882 4.40877 0
      vertex 99.927 1.76336 0
      vertex 103.545 4.93893 0
    endloop
  endfacet
  facet normal 0 0 -1
    outer loop
      vertex 104.5 -2 0
      vertex 100.476 -0.375999 0
      vertex 100.5 0 0
    endloop
  endfacet
  facet normal 0 0 -1
    outer loop
      vertex 99.1075 -2.53298 0
      vertex 101.045 -6.75528 0
      vertex 100.437 -6.91144 0
    endloop
  endfacet
  facet normal 0 0 -1
    outer loop
      vertex 104.5 -2 0
      vertex 100.406 -0.746069 0
      vertex 100.476 -0.375999 0
    endloop
  endfacet
  facet normal 0 0 -1
    outer loop
      vertex 104.5 -2 0
      vertex 100.289 -1.10437 0
      vertex 100.406 -0.746069 0
    endloop
  endfacet
  facet normal 0 0 -1
    outer loop
      vertex 104.461 -2.62667 0
      vertex 100.129 -1.44526 0
      vertex 100.289 -1.10437 0
    endloop
  endfacet
  facet normal 0 0 -1
    outer loop
      vertex 104.149 -3.84062 0
      vertex 99.927 -1.76336 0
      vertex 100.129 -1.44526 0
    endloop
  endfacet
  facet normal 0 0 -1
    outer loop
      vertex 98.7773 -2.71448 0
      vertex 100.437 -6.91144 0
      vertex 99.8139 -6.99013 0
    endloop
  endfacet
  facet normal 0 0 -1
    outer loop
      vertex 103.545 -4.93893 0
      vertex 99.6869 -2.05364 0
      vertex 99.927 -1.76336 0
    endloop
  endfacet
  facet normal 0 0 -1
    outer loop
      vertex 102.687 -5.85257 0
      vertex 99.4123 -2.31154 0
      vertex 99.6869 -2.05364 0
    endloop
  endfacet
  facet normal 0 0 -1
    outer loop
      vertex 101.629 -6.52413 0
      vertex 99.1075 -2.53298 0
      vertex 99.4123 -2.31154 0
    endloop
  endfacet
  facet normal 0 0 -1
    outer loop
      vertex 100.437 -6.91144 0
      vertex 98.7773 -2.71448 0
      vertex 99.1075 -2.53298 0
    endloop
  endfacet
  facet normal 0 0 -1
    outer loop
      vertex 99.8139 -6.99013 0
      vertex 98.427 -2.85317 0
      vertex 98.7773 -2.71448 0
    endloop
  endfacet
  facet normal 0 0 -1
    outer loop
      vertex 99.8139 -6.99013 0
      vertex 98.0621 -2.94686 0
      vertex 98.427 -2.85317 0
    endloop
  endfacet
  facet normal 0 0 -1
    outer loop
      vertex 99.8139 -6.99013 0
      vertex 97.6884 -2.99408 0
      vertex 98.0621 -2.94686 0
    endloop
  endfacet
  facet normal 0 0 -1
    outer loop
      vertex 99.8139 -6.99013 0
      vertex 97.3116 -2.99408 0
      vertex 97.6884 -2.99408 0
    endloop
  endfacet
  facet normal 0 0 -1
    outer loop
      vertex 99.8139 -6.99013 0
      vertex 96.9379 -2.94686 0
      vertex 97.3116 -2.99408 0
    endloop
  endfacet
  facet normal 0 0 -1
    outer loop
      vertex 99.8139 -6.99013 0
      vertex 96.573 -2.85317 0
      vertex 96.9379 -2.94686 0
    endloop
  endfacet
  facet normal 0 0 -1
    outer loop
      vertex 99.8139 -6.99013 0
      vertex 96.2227 -2.71448 0
      vertex 96.573 -2.85317 0
    endloop
  endfacet
  facet normal 0 0 -1
    outer loop
      vertex 99.8139 -6.99013 0
      vertex 95.8925 -2.53298 0
      vertex 96.2227 -2.71448 0
    endloop
  endfacet
  facet normal 0 0 -1
    outer loop
      vertex 99.8139 -6.99013 0
      vertex 95.5877 -2.31154 0
      vertex 95.8925 -2.53298 0
    endloop
  endfacet
  facet normal 0 0 -1
    outer loop
      vertex 99.8139 -6.99013 0
      vertex 95.3131 -2.05364 0
      vertex 95.5877 -2.31154 0
    endloop
  endfacet
  facet normal 0 0 -1
    outer loop
      vertex 94.5237 -0.375999 0
      vertex -94.5 0 0
      vertex 94.5 0 0
    endloop
  endfacet
  facet normal 0 0 -1
    outer loop
      vertex -94.5237 -0.375999 0
      vertex 94.5237 -0.375999 0
      vertex 94.5943 -0.746069 0
    endloop
  endfacet
  facet normal 0 0 -1
    outer loop
      vertex -94.5943 -0.746069 0
      vertex 94.5943 -0.746069 0
      vertex 94.7107 -1.10437 0
    endloop
  endfacet
  facet normal 0 0 -1
    outer loop
      vertex -94.7107 -1.10437 0
      vertex 94.7107 -1.10437 0
      vertex 94.8711 -1.44526 0
    endloop
  endfacet
  facet normal 0 0 -1
    outer loop
      vertex -94.8711 -1.44526 0
      vertex 94.8711 -1.44526 0
      vertex 95.073 -1.76336 0
    endloop
  endfacet
  facet normal 0 0 -1
    outer loop
      vertex -95.073 -1.76336 0
      vertex 95.073 -1.76336 0
      vertex 95.3131 -2.05364 0
    endloop
  endfacet
  facet normal 0 0 -1
    outer loop
      vertex -95.3131 -2.05364 0
      vertex 95.3131 -2.05364 0
      vertex 99.8139 -6.99013 0
    endloop
  endfacet
  facet normal 0 0 -1
    outer loop
      vertex 94.5237 -0.375999 0
      vertex -94.5237 -0.375999 0
      vertex -94.5 0 0
    endloop
  endfacet
  facet normal 0 0 -1
    outer loop
      vertex 94.5943 -0.746069 0
      vertex -94.5943 -0.746069 0
      vertex -94.5237 -0.375999 0
    endloop
  endfacet
  facet normal 0 0 -1
    outer loop
      vertex 94.7107 -1.10437 0
      vertex -94.7107 -1.10437 0
      vertex -94.5943 -0.746069 0
    endloop
  endfacet
  facet normal 0 0 -1
    outer loop
      vertex 94.8711 -1.44526 0
      vertex -94.8711 -1.44526 0
      vertex -94.7107 -1.10437 0
    endloop
  endfacet
  facet normal 0 0 -1
    outer loop
      vertex 95.073 -1.76336 0
      vertex -95.073 -1.76336 0
      vertex -94.8711 -1.44526 0
    endloop
  endfacet
  facet normal 0 0 -1
    outer loop
      vertex 95.3131 -2.05364 0
      vertex -95.3131 -2.05364 0
      vertex -95.073 -1.76336 0
    endloop
  endfacet
  facet normal 0 0 -1
    outer loop
      vertex -99.8139 -6.99013 0
      vertex -95.3131 -2.05364 0
      vertex 99.8139 -6.99013 0
    endloop
  endfacet
  facet normal 0 0 -1
    outer loop
      vertex -95.3131 -2.05364 0
      vertex -99.8139 -6.99013 0
      vertex -95.5877 -2.31154 0
    endloop
  endfacet
  facet normal 0 0 -1
    outer loop
      vertex -95.5877 -2.31154 0
      vertex -99.8139 -6.99013 0
      vertex -95.8925 -2.53298 0
    endloop
  endfacet
  facet normal 0 0 -1
    outer loop
      vertex -95.8925 -2.53298 0
      vertex -99.8139 -6.99013 0
      vertex -96.2227 -2.71448 0
    endloop
  endfacet
  facet normal 0 0 -1
    outer loop
      vertex -96.2227 -2.71448 0
      vertex -99.8139 -6.99013 0
      vertex -96.573 -2.85317 0
    endloop
  endfacet
  facet normal 0 0 -1
    outer loop
      vertex -96.573 -2.85317 0
      vertex -99.8139 -6.99013 0
      vertex -96.9379 -2.94686 0
    endloop
  endfacet
  facet normal 0 0 -1
    outer loop
      vertex -96.9379 -2.94686 0
      vertex -99.8139 -6.99013 0
      vertex -97.3116 -2.99408 0
    endloop
  endfacet
  facet normal -0 0 -1
    outer loop
      vertex -97.3116 -2.99408 0
      vertex -99.8139 -6.99013 0
      vertex -97.6884 -2.99408 0
    endloop
  endfacet
  facet normal 0 0 -1
    outer loop
      vertex -99.8139 -6.99013 0
      vertex -98.0621 -2.94686 0
      vertex -97.6884 -2.99408 0
    endloop
  endfacet
  facet normal 0 0 -1
    outer loop
      vertex -99.8139 -6.99013 0
      vertex -98.427 -2.85317 0
      vertex -98.0621 -2.94686 0
    endloop
  endfacet
  facet normal 0 0 -1
    outer loop
      vertex -99.8139 -6.99013 0
      vertex -98.7773 -2.71448 0
      vertex -98.427 -2.85317 0
    endloop
  endfacet
  facet normal 0 0 -1
    outer loop
      vertex -100.437 -6.91144 0
      vertex -98.7773 -2.71448 0
      vertex -99.8139 -6.99013 0
    endloop
  endfacet
  facet normal -0 0 -1
    outer loop
      vertex -98.7773 -2.71448 0
      vertex -100.437 -6.91144 0
      vertex -99.1075 -2.53298 0
    endloop
  endfacet
  facet normal 0 0 -1
    outer loop
      vertex -101.045 -6.75528 0
      vertex -99.1075 -2.53298 0
      vertex -100.437 -6.91144 0
    endloop
  endfacet
  facet normal 0 0 -1
    outer loop
      vertex -101.629 -6.52413 0
      vertex -99.1075 -2.53298 0
      vertex -101.045 -6.75528 0
    endloop
  endfacet
  facet normal -0 0 -1
    outer loop
      vertex -99.1075 -2.53298 0
      vertex -101.629 -6.52413 0
      vertex -99.4123 -2.31154 0
    endloop
  endfacet
  facet normal 0 0 -1
    outer loop
      vertex -102.179 -6.22164 0
      vertex -99.4123 -2.31154 0
      vertex -101.629 -6.52413 0
    endloop
  endfacet
  facet normal 0 0 -1
    outer loop
      vertex -102.687 -5.85257 0
      vertex -99.4123 -2.31154 0
      vertex -102.179 -6.22164 0
    endloop
  endfacet
  facet normal -0 0 -1
    outer loop
      vertex -99.4123 -2.31154 0
      vertex -102.687 -5.85257 0
      vertex -99.6869 -2.05364 0
    endloop
  endfacet
  facet normal 0 0 -1
    outer loop
      vertex -103.145 -5.42274 0
      vertex -99.6869 -2.05364 0
      vertex -102.687 -5.85257 0
    endloop
  endfacet
  facet normal 0 0 -1
    outer loop
      vertex -103.545 -4.93893 0
      vertex -99.6869 -2.05364 0
      vertex -103.145 -5.42274 0
    endloop
  endfacet
  facet normal -0 0 -1
    outer loop
      vertex -99.6869 -2.05364 0
      vertex -103.545 -4.93893 0
      vertex -99.927 -1.76336 0
    endloop
  endfacet
  facet normal 0 0 -1
    outer loop
      vertex 99.6869 2.05364 0
      vertex 103.545 4.93893 0
      vertex 99.927 1.76336 0
    endloop
  endfacet
  facet normal -0 0 -1
    outer loop
      vertex 103.545 4.93893 0
      vertex 99.6869 2.05364 0
      vertex 103.145 5.42274 0
    endloop
  endfacet
  facet normal -0 0 -1
    outer loop
      vertex 103.145 5.42274 0
      vertex 99.6869 2.05364 0
      vertex 102.687 5.85257 0
    endloop
  endfacet
  facet normal 0 0 -1
    outer loop
      vertex 99.4123 2.31154 0
      vertex 102.687 5.85257 0
      vertex 99.6869 2.05364 0
    endloop
  endfacet
  facet normal -0 0 -1
    outer loop
      vertex 102.687 5.85257 0
      vertex 99.4123 2.31154 0
      vertex 102.179 6.22164 0
    endloop
  endfacet
  facet normal -0 0 -1
    outer loop
      vertex 102.179 6.22164 0
      vertex 99.4123 2.31154 0
      vertex 101.629 6.52413 0
    endloop
  endfacet
  facet normal 0 0 -1
    outer loop
      vertex 99.1075 2.53298 0
      vertex 101.629 6.52413 0
      vertex 99.4123 2.31154 0
    endloop
  endfacet
  facet normal -0 0 -1
    outer loop
      vertex 101.629 6.52413 0
      vertex 99.1075 2.53298 0
      vertex 101.045 6.75528 0
    endloop
  endfacet
  facet normal -0 0 -1
    outer loop
      vertex 101.045 6.75528 0
      vertex 99.1075 2.53298 0
      vertex 100.437 6.91144 0
    endloop
  endfacet
  facet normal 0 0 -1
    outer loop
      vertex 98.7773 2.71448 0
      vertex 100.437 6.91144 0
      vertex 99.1075 2.53298 0
    endloop
  endfacet
  facet normal -0 0 -1
    outer loop
      vertex 100.437 6.91144 0
      vertex 98.7773 2.71448 0
      vertex 99.8139 6.99013 0
    endloop
  endfacet
  facet normal 0 0 -1
    outer loop
      vertex 98.427 2.85317 0
      vertex 99.8139 6.99013 0
      vertex 98.7773 2.71448 0
    endloop
  endfacet
  facet normal 0 0 -1
    outer loop
      vertex 98.0621 2.94686 0
      vertex 99.8139 6.99013 0
      vertex 98.427 2.85317 0
    endloop
  endfacet
  facet normal 0 0 -1
    outer loop
      vertex 97.6884 2.99408 0
      vertex 99.8139 6.99013 0
      vertex 98.0621 2.94686 0
    endloop
  endfacet
  facet normal 0 0 -1
    outer loop
      vertex 97.3116 2.99408 0
      vertex 99.8139 6.99013 0
      vertex 97.6884 2.99408 0
    endloop
  endfacet
  facet normal 0 0 -1
    outer loop
      vertex 96.9379 2.94686 0
      vertex 99.8139 6.99013 0
      vertex 97.3116 2.99408 0
    endloop
  endfacet
  facet normal 0 0 -1
    outer loop
      vertex 96.573 2.85317 0
      vertex 99.8139 6.99013 0
      vertex 96.9379 2.94686 0
    endloop
  endfacet
  facet normal 0 0 -1
    outer loop
      vertex 96.2227 2.71448 0
      vertex 99.8139 6.99013 0
      vertex 96.573 2.85317 0
    endloop
  endfacet
  facet normal 0 0 -1
    outer loop
      vertex 95.8925 2.53298 0
      vertex 99.8139 6.99013 0
      vertex 96.2227 2.71448 0
    endloop
  endfacet
  facet normal 0 0 -1
    outer loop
      vertex 95.5877 2.31154 0
      vertex 99.8139 6.99013 0
      vertex 95.8925 2.53298 0
    endloop
  endfacet
  facet normal 0 0 -1
    outer loop
      vertex 95.3131 2.05364 0
      vertex 99.8139 6.99013 0
      vertex 95.5877 2.31154 0
    endloop
  endfacet
  facet normal 0 0 -1
    outer loop
      vertex -94.5 0 0
      vertex 94.5237 0.375999 0
      vertex 94.5 0 0
    endloop
  endfacet
  facet normal 0 0 -1
    outer loop
      vertex -94.5237 0.375999 0
      vertex 94.5237 0.375999 0
      vertex -94.5 0 0
    endloop
  endfacet
  facet normal 0 0 -1
    outer loop
      vertex 94.5237 0.375999 0
      vertex -94.5237 0.375999 0
      vertex 94.5943 0.746069 0
    endloop
  endfacet
  facet normal 0 0 -1
    outer loop
      vertex -94.5943 0.746069 0
      vertex 94.5943 0.746069 0
      vertex -94.5237 0.375999 0
    endloop
  endfacet
  facet normal 0 0 -1
    outer loop
      vertex 94.5943 0.746069 0
      vertex -94.5943 0.746069 0
      vertex 94.7107 1.10437 0
    endloop
  endfacet
  facet normal 0 0 -1
    outer loop
      vertex -94.7107 1.10437 0
      vertex 94.7107 1.10437 0
      vertex -94.5943 0.746069 0
    endloop
  endfacet
  facet normal 0 0 -1
    outer loop
      vertex 94.7107 1.10437 0
      vertex -94.7107 1.10437 0
      vertex 94.8711 1.44526 0
    endloop
  endfacet
  facet normal 0 0 -1
    outer loop
      vertex -94.8711 1.44526 0
      vertex 94.8711 1.44526 0
      vertex -94.7107 1.10437 0
    endloop
  endfacet
  facet normal 0 0 -1
    outer loop
      vertex 94.8711 1.44526 0
      vertex -94.8711 1.44526 0
      vertex 95.073 1.76336 0
    endloop
  endfacet
  facet normal 0 0 -1
    outer loop
      vertex -95.073 1.76336 0
      vertex 95.073 1.76336 0
      vertex -94.8711 1.44526 0
    endloop
  endfacet
  facet normal 0 0 -1
    outer loop
      vertex 95.073 1.76336 0
      vertex -95.073 1.76336 0
      vertex 95.3131 2.05364 0
    endloop
  endfacet
  facet normal 0 0 -1
    outer loop
      vertex -95.3131 2.05364 0
      vertex 95.3131 2.05364 0
      vertex -95.073 1.76336 0
    endloop
  endfacet
  facet normal 0 0 -1
    outer loop
      vertex 95.3131 2.05364 0
      vertex -95.3131 2.05364 0
      vertex 99.8139 6.99013 0
    endloop
  endfacet
  facet normal 0 0 -1
    outer loop
      vertex -99.8139 6.99013 0
      vertex -95.3131 2.05364 0
      vertex -95.5877 2.31154 0
    endloop
  endfacet
  facet normal 0 0 -1
    outer loop
      vertex -99.8139 6.99013 0
      vertex -95.5877 2.31154 0
      vertex -95.8925 2.53298 0
    endloop
  endfacet
  facet normal 0 0 -1
    outer loop
      vertex -99.8139 6.99013 0
      vertex -95.8925 2.53298 0
      vertex -96.2227 2.71448 0
    endloop
  endfacet
  facet normal 0 0 -1
    outer loop
      vertex -99.8139 6.99013 0
      vertex -96.2227 2.71448 0
      vertex -96.573 2.85317 0
    endloop
  endfacet
  facet normal 0 0 -1
    outer loop
      vertex -99.8139 6.99013 0
      vertex -96.573 2.85317 0
      vertex -96.9379 2.94686 0
    endloop
  endfacet
  facet normal 0 0 -1
    outer loop
      vertex -99.8139 6.99013 0
      vertex -96.9379 2.94686 0
      vertex -97.3116 2.99408 0
    endloop
  endfacet
  facet normal 0 0 -1
    outer loop
      vertex -99.8139 6.99013 0
      vertex -97.3116 2.99408 0
      vertex -97.6884 2.99408 0
    endloop
  endfacet
  facet normal 0 0 -1
    outer loop
      vertex -95.3131 2.05364 0
      vertex -99.8139 6.99013 0
      vertex 99.8139 6.99013 0
    endloop
  endfacet
  facet normal 0 0 -1
    outer loop
      vertex -98.0621 2.94686 0
      vertex -99.8139 6.99013 0
      vertex -97.6884 2.99408 0
    endloop
  endfacet
  facet normal 0 0 -1
    outer loop
      vertex -98.427 2.85317 0
      vertex -99.8139 6.99013 0
      vertex -98.0621 2.94686 0
    endloop
  endfacet
  facet normal 0 0 -1
    outer loop
      vertex -98.7773 2.71448 0
      vertex -99.8139 6.99013 0
      vertex -98.427 2.85317 0
    endloop
  endfacet
  facet normal 0 0 -1
    outer loop
      vertex -100.437 6.91144 0
      vertex -98.7773 2.71448 0
      vertex -99.1075 2.53298 0
    endloop
  endfacet
  facet normal 0 0 -1
    outer loop
      vertex -101.629 6.52413 0
      vertex -99.1075 2.53298 0
      vertex -99.4123 2.31154 0
    endloop
  endfacet
  facet normal 0 0 -1
    outer loop
      vertex -102.687 5.85257 0
      vertex -99.4123 2.31154 0
      vertex -99.6869 2.05364 0
    endloop
  endfacet
  facet normal 0 0 -1
    outer loop
      vertex -103.545 4.93893 0
      vertex -99.6869 2.05364 0
      vertex -99.927 1.76336 0
    endloop
  endfacet
  facet normal 0 0 -1
    outer loop
      vertex -104.149 3.84062 0
      vertex -99.927 1.76336 0
      vertex -100.129 1.44526 0
    endloop
  endfacet
  facet normal 0 0 -1
    outer loop
      vertex -104.461 2.62667 0
      vertex -100.129 1.44526 0
      vertex -100.289 1.10437 0
    endloop
  endfacet
  facet normal 0 0 -1
    outer loop
      vertex -104.5 2 0
      vertex -100.289 1.10437 0
      vertex -100.406 0.746069 0
    endloop
  endfacet
  facet normal 0 0 -1
    outer loop
      vertex -98.7773 2.71448 0
      vertex -100.437 6.91144 0
      vertex -99.8139 6.99013 0
    endloop
  endfacet
  facet normal 0 0 -1
    outer loop
      vertex -104.5 2 0
      vertex -100.406 0.746069 0
      vertex -100.476 0.375999 0
    endloop
  endfacet
  facet normal 0 0 -1
    outer loop
      vertex -104.5 2 0
      vertex -100.476 0.375999 0
      vertex -100.5 0 0
    endloop
  endfacet
  facet normal 0 0 -1
    outer loop
      vertex -103.882 -4.40877 0
      vertex -99.927 -1.76336 0
      vertex -103.545 -4.93893 0
    endloop
  endfacet
  facet normal 0 0 -1
    outer loop
      vertex -104.5 2 0
      vertex -100.5 0 0
      vertex -104.5 -2 0
    endloop
  endfacet
  facet normal 0 0 -1
    outer loop
      vertex -104.149 -3.84062 0
      vertex -99.927 -1.76336 0
      vertex -103.882 -4.40877 0
    endloop
  endfacet
  facet normal 0 0 -1
    outer loop
      vertex -100.289 1.10437 0
      vertex -104.5 2 0
      vertex -104.461 2.62667 0
    endloop
  endfacet
  facet normal -0 0 -1
    outer loop
      vertex -99.927 -1.76336 0
      vertex -104.149 -3.84062 0
      vertex -100.129 -1.44526 0
    endloop
  endfacet
  facet normal 0 0 -1
    outer loop
      vertex -99.1075 2.53298 0
      vertex -101.045 6.75528 0
      vertex -100.437 6.91144 0
    endloop
  endfacet
  facet normal 0 0 -1
    outer loop
      vertex -104.343 -3.24345 0
      vertex -100.129 -1.44526 0
      vertex -104.149 -3.84062 0
    endloop
  endfacet
  facet normal 0 0 -1
    outer loop
      vertex -99.1075 2.53298 0
      vertex -101.629 6.52413 0
      vertex -101.045 6.75528 0
    endloop
  endfacet
  facet normal 0 0 -1
    outer loop
      vertex -104.461 -2.62667 0
      vertex -100.129 -1.44526 0
      vertex -104.343 -3.24345 0
    endloop
  endfacet
  facet normal 0 0 -1
    outer loop
      vertex -99.4123 2.31154 0
      vertex -102.179 6.22164 0
      vertex -101.629 6.52413 0
    endloop
  endfacet
  facet normal -0 0 -1
    outer loop
      vertex -100.129 -1.44526 0
      vertex -104.461 -2.62667 0
      vertex -100.289 -1.10437 0
    endloop
  endfacet
  facet normal 0 0 -1
    outer loop
      vertex -99.4123 2.31154 0
      vertex -102.687 5.85257 0
      vertex -102.179 6.22164 0
    endloop
  endfacet
  facet normal 0 0 -1
    outer loop
      vertex -104.5 -2 0
      vertex -100.289 -1.10437 0
      vertex -104.461 -2.62667 0
    endloop
  endfacet
  facet normal 0 0 -1
    outer loop
      vertex -99.6869 2.05364 0
      vertex -103.145 5.42274 0
      vertex -102.687 5.85257 0
    endloop
  endfacet
  facet normal -0 0 -1
    outer loop
      vertex -100.289 -1.10437 0
      vertex -104.5 -2 0
      vertex -100.406 -0.746069 0
    endloop
  endfacet
  facet normal 0 0 -1
    outer loop
      vertex -99.6869 2.05364 0
      vertex -103.545 4.93893 0
      vertex -103.145 5.42274 0
    endloop
  endfacet
  facet normal -0 0 -1
    outer loop
      vertex -100.406 -0.746069 0
      vertex -104.5 -2 0
      vertex -100.476 -0.375999 0
    endloop
  endfacet
  facet normal 0 0 -1
    outer loop
      vertex -99.927 1.76336 0
      vertex -103.882 4.40877 0
      vertex -103.545 4.93893 0
    endloop
  endfacet
  facet normal -0 0 -1
    outer loop
      vertex -100.476 -0.375999 0
      vertex -104.5 -2 0
      vertex -100.5 0 0
    endloop
  endfacet
  facet normal 0 0 -1
    outer loop
      vertex -99.927 1.76336 0
      vertex -104.149 3.84062 0
      vertex -103.882 4.40877 0
    endloop
  endfacet
  facet normal 0 0 -1
    outer loop
      vertex -100.129 1.44526 0
      vertex -104.343 3.24345 0
      vertex -104.149 3.84062 0
    endloop
  endfacet
  facet normal 0 0 -1
    outer loop
      vertex -100.129 1.44526 0
      vertex -104.461 2.62667 0
      vertex -104.343 3.24345 0
    endloop
  endfacet
  facet normal -0.904838 0.425756 0
    outer loop
      vertex -94.8711 -1.44526 0
      vertex -94.7107 -1.10437 12
      vertex -94.7107 -1.10437 0
    endloop
  endfacet
  facet normal -0.904838 0.425756 0
    outer loop
      vertex -94.7107 -1.10437 12
      vertex -94.8711 -1.44526 0
      vertex -94.8711 -1.44526 12
    endloop
  endfacet
  facet normal -0.770566 0.63736 0
    outer loop
      vertex -95.3131 -2.05364 0
      vertex -95.073 -1.76336 12
      vertex -95.073 -1.76336 0
    endloop
  endfacet
  facet normal -0.770566 0.63736 0
    outer loop
      vertex -95.073 -1.76336 12
      vertex -95.3131 -2.05364 0
      vertex -95.3131 -2.05364 12
    endloop
  endfacet
  facet normal 0.684594 0.728924 -0
    outer loop
      vertex -99.4123 -2.31154 0
      vertex -99.6869 -2.05364 12
      vertex -99.4123 -2.31154 12
    endloop
  endfacet
  facet normal 0.684594 0.728924 0
    outer loop
      vertex -99.6869 -2.05364 12
      vertex -99.4123 -2.31154 0
      vertex -99.6869 -2.05364 0
    endloop
  endfacet
  facet normal 0.844175 0.536068 0
    outer loop
      vertex -99.927 -1.76336 12
      vertex -100.129 -1.44526 0
      vertex -100.129 -1.44526 12
    endloop
  endfacet
  facet normal 0.844175 0.536068 0
    outer loop
      vertex -100.129 -1.44526 0
      vertex -99.927 -1.76336 12
      vertex -99.927 -1.76336 0
    endloop
  endfacet
  facet normal 0.950603 0.310411 0
    outer loop
      vertex -100.289 -1.10437 12
      vertex -100.406 -0.746069 0
      vertex -100.406 -0.746069 12
    endloop
  endfacet
  facet normal 0.950603 0.310411 0
    outer loop
      vertex -100.406 -0.746069 0
      vertex -100.289 -1.10437 12
      vertex -100.289 -1.10437 0
    endloop
  endfacet
  facet normal -0.248689 0.968583 0
    outer loop
      vertex -96.573 -2.85317 0
      vertex -96.9379 -2.94686 12
      vertex -96.573 -2.85317 12
    endloop
  endfacet
  facet normal -0.248689 0.968583 0
    outer loop
      vertex -96.9379 -2.94686 12
      vertex -96.573 -2.85317 0
      vertex -96.9379 -2.94686 0
    endloop
  endfacet
  facet normal -0.125361 0.992111 0
    outer loop
      vertex -96.9379 -2.94686 0
      vertex -97.3116 -2.99408 12
      vertex -96.9379 -2.94686 12
    endloop
  endfacet
  facet normal -0.125361 0.992111 0
    outer loop
      vertex -97.3116 -2.99408 12
      vertex -96.9379 -2.94686 0
      vertex -97.3116 -2.99408 0
    endloop
  endfacet
  facet normal -0.587768 0.80903 0
    outer loop
      vertex -95.5877 -2.31154 0
      vertex -95.8925 -2.53298 12
      vertex -95.5877 -2.31154 12
    endloop
  endfacet
  facet normal -0.587768 0.80903 0
    outer loop
      vertex -95.8925 -2.53298 12
      vertex -95.5877 -2.31154 0
      vertex -95.8925 -2.53298 0
    endloop
  endfacet
  facet normal -0.951071 0.308971 0
    outer loop
      vertex -94.7107 -1.10437 0
      vertex -94.5943 -0.746069 12
      vertex -94.5943 -0.746069 0
    endloop
  endfacet
  facet normal -0.951071 0.308971 0
    outer loop
      vertex -94.5943 -0.746069 12
      vertex -94.7107 -1.10437 0
      vertex -94.7107 -1.10437 12
    endloop
  endfacet
  facet normal 0.125361 0.992111 -0
    outer loop
      vertex -97.6884 -2.99408 0
      vertex -98.0621 -2.94686 12
      vertex -97.6884 -2.99408 12
    endloop
  endfacet
  facet normal 0.125361 0.992111 0
    outer loop
      vertex -98.0621 -2.94686 12
      vertex -97.6884 -2.99408 0
      vertex -98.0621 -2.94686 0
    endloop
  endfacet
  facet normal 0.587768 0.80903 -0
    outer loop
      vertex -99.1075 -2.53298 0
      vertex -99.4123 -2.31154 12
      vertex -99.1075 -2.53298 12
    endloop
  endfacet
  facet normal 0.587768 0.80903 0
    outer loop
      vertex -99.4123 -2.31154 12
      vertex -99.1075 -2.53298 0
      vertex -99.4123 -2.31154 0
    endloop
  endfacet
  facet normal 0.248689 0.968583 -0
    outer loop
      vertex -98.0621 -2.94686 0
      vertex -98.427 -2.85317 12
      vertex -98.0621 -2.94686 12
    endloop
  endfacet
  facet normal 0.248689 0.968583 0
    outer loop
      vertex -98.427 -2.85317 12
      vertex -98.0621 -2.94686 0
      vertex -98.427 -2.85317 0
    endloop
  endfacet
  facet normal 0.770566 0.63736 0
    outer loop
      vertex -99.6869 -2.05364 12
      vertex -99.927 -1.76336 0
      vertex -99.927 -1.76336 12
    endloop
  endfacet
  facet normal 0.770566 0.63736 0
    outer loop
      vertex -99.927 -1.76336 0
      vertex -99.6869 -2.05364 12
      vertex -99.6869 -2.05364 0
    endloop
  endfacet
  facet normal 0.905247 0.424886 0
    outer loop
      vertex -100.129 -1.44526 12
      vertex -100.289 -1.10437 0
      vertex -100.289 -1.10437 12
    endloop
  endfacet
  facet normal 0.905247 0.424886 0
    outer loop
      vertex -100.289 -1.10437 0
      vertex -100.129 -1.44526 12
      vertex -100.129 -1.44526 0
    endloop
  endfacet
  facet normal 0.982577 0.185858 0
    outer loop
      vertex -100.406 -0.746069 12
      vertex -100.476 -0.375999 0
      vertex -100.476 -0.375999 12
    endloop
  endfacet
  facet normal 0.982577 0.185858 0
    outer loop
      vertex -100.476 -0.375999 0
      vertex -100.406 -0.746069 12
      vertex -100.406 -0.746069 0
    endloop
  endfacet
  facet normal 0.997969 0.0637003 0
    outer loop
      vertex -100.476 -0.375999 12
      vertex -100.5 0 0
      vertex -100.5 0 12
    endloop
  endfacet
  facet normal 0.997969 0.0637003 0
    outer loop
      vertex -100.5 0 0
      vertex -100.476 -0.375999 12
      vertex -100.476 -0.375999 0
    endloop
  endfacet
  facet normal 0.368116 0.92978 -0
    outer loop
      vertex -98.427 -2.85317 0
      vertex -98.7773 -2.71448 12
      vertex -98.427 -2.85317 12
    endloop
  endfacet
  facet normal 0.368116 0.92978 0
    outer loop
      vertex -98.7773 -2.71448 12
      vertex -98.427 -2.85317 0
      vertex -98.7773 -2.71448 0
    endloop
  endfacet
  facet normal 0.481695 0.876339 -0
    outer loop
      vertex -98.7773 -2.71448 0
      vertex -99.1075 -2.53298 12
      vertex -98.7773 -2.71448 12
    endloop
  endfacet
  facet normal 0.481695 0.876339 0
    outer loop
      vertex -99.1075 -2.53298 12
      vertex -98.7773 -2.71448 0
      vertex -99.1075 -2.53298 0
    endloop
  endfacet
  facet normal -0.997969 -0.0637003 0
    outer loop
      vertex 100.5 0 0
      vertex 100.476 0.375999 12
      vertex 100.476 0.375999 0
    endloop
  endfacet
  facet normal -0.997969 -0.0637003 0
    outer loop
      vertex 100.476 0.375999 12
      vertex 100.5 0 0
      vertex 100.5 0 12
    endloop
  endfacet
  facet normal 0.125361 -0.992111 0
    outer loop
      vertex 96.9379 2.94686 0
      vertex 97.3116 2.99408 12
      vertex 96.9379 2.94686 12
    endloop
  endfacet
  facet normal 0.125361 -0.992111 0
    outer loop
      vertex 97.3116 2.99408 12
      vertex 96.9379 2.94686 0
      vertex 97.3116 2.99408 0
    endloop
  endfacet
  facet normal -0.125361 0.992111 0
    outer loop
      vertex 98.0621 -2.94686 0
      vertex 97.6884 -2.99408 12
      vertex 98.0621 -2.94686 12
    endloop
  endfacet
  facet normal -0.125361 0.992111 0
    outer loop
      vertex 97.6884 -2.99408 12
      vertex 98.0621 -2.94686 0
      vertex 97.6884 -2.99408 0
    endloop
  endfacet
  facet normal -0.684594 -0.728924 0
    outer loop
      vertex 99.4123 2.31154 0
      vertex 99.6869 2.05364 12
      vertex 99.4123 2.31154 12
    endloop
  endfacet
  facet normal -0.684594 -0.728924 -0
    outer loop
      vertex 99.6869 2.05364 12
      vertex 99.4123 2.31154 0
      vertex 99.6869 2.05364 0
    endloop
  endfacet
  facet normal 0.770566 -0.63736 0
    outer loop
      vertex 95.073 1.76336 12
      vertex 95.3131 2.05364 0
      vertex 95.3131 2.05364 12
    endloop
  endfacet
  facet normal 0.770566 -0.63736 0
    outer loop
      vertex 95.3131 2.05364 0
      vertex 95.073 1.76336 12
      vertex 95.073 1.76336 0
    endloop
  endfacet
  facet normal 0.481695 -0.876339 0
    outer loop
      vertex 95.8925 2.53298 0
      vertex 96.2227 2.71448 12
      vertex 95.8925 2.53298 12
    endloop
  endfacet
  facet normal 0.481695 -0.876339 0
    outer loop
      vertex 96.2227 2.71448 12
      vertex 95.8925 2.53298 0
      vertex 96.2227 2.71448 0
    endloop
  endfacet
  facet normal -0.905247 -0.424886 0
    outer loop
      vertex 100.289 1.10437 0
      vertex 100.129 1.44526 12
      vertex 100.129 1.44526 0
    endloop
  endfacet
  facet normal -0.905247 -0.424886 0
    outer loop
      vertex 100.129 1.44526 12
      vertex 100.289 1.10437 0
      vertex 100.289 1.10437 12
    endloop
  endfacet
  facet normal -0.982577 -0.185858 0
    outer loop
      vertex 100.476 0.375999 0
      vertex 100.406 0.746069 12
      vertex 100.406 0.746069 0
    endloop
  endfacet
  facet normal -0.982577 -0.185858 0
    outer loop
      vertex 100.406 0.746069 12
      vertex 100.476 0.375999 0
      vertex 100.476 0.375999 12
    endloop
  endfacet
  facet normal -0.368116 -0.92978 0
    outer loop
      vertex 98.427 2.85317 0
      vertex 98.7773 2.71448 12
      vertex 98.427 2.85317 12
    endloop
  endfacet
  facet normal -0.368116 -0.92978 -0
    outer loop
      vertex 98.7773 2.71448 12
      vertex 98.427 2.85317 0
      vertex 98.7773 2.71448 0
    endloop
  endfacet
  facet normal -0.587768 -0.80903 0
    outer loop
      vertex 99.1075 2.53298 0
      vertex 99.4123 2.31154 12
      vertex 99.1075 2.53298 12
    endloop
  endfacet
  facet normal -0.587768 -0.80903 -0
    outer loop
      vertex 99.4123 2.31154 12
      vertex 99.1075 2.53298 0
      vertex 99.4123 2.31154 0
    endloop
  endfacet
  facet normal 0.904838 -0.425756 0
    outer loop
      vertex 94.7107 1.10437 12
      vertex 94.8711 1.44526 0
      vertex 94.8711 1.44526 12
    endloop
  endfacet
  facet normal 0.904838 -0.425756 0
    outer loop
      vertex 94.8711 1.44526 0
      vertex 94.7107 1.10437 12
      vertex 94.7107 1.10437 0
    endloop
  endfacet
  facet normal 0.844295 -0.535879 0
    outer loop
      vertex 94.8711 1.44526 12
      vertex 95.073 1.76336 0
      vertex 95.073 1.76336 12
    endloop
  endfacet
  facet normal 0.844295 -0.535879 0
    outer loop
      vertex 95.073 1.76336 0
      vertex 94.8711 1.44526 12
      vertex 94.8711 1.44526 0
    endloop
  endfacet
  facet normal 0.587768 -0.80903 0
    outer loop
      vertex 95.5877 2.31154 0
      vertex 95.8925 2.53298 12
      vertex 95.5877 2.31154 12
    endloop
  endfacet
  facet normal 0.587768 -0.80903 0
    outer loop
      vertex 95.8925 2.53298 12
      vertex 95.5877 2.31154 0
      vertex 95.8925 2.53298 0
    endloop
  endfacet
  facet normal 0.248689 -0.968583 0
    outer loop
      vertex 96.573 2.85317 0
      vertex 96.9379 2.94686 12
      vertex 96.573 2.85317 12
    endloop
  endfacet
  facet normal 0.248689 -0.968583 0
    outer loop
      vertex 96.9379 2.94686 12
      vertex 96.573 2.85317 0
      vertex 96.9379 2.94686 0
    endloop
  endfacet
  facet normal -0.248689 0.968583 0
    outer loop
      vertex 98.427 -2.85317 0
      vertex 98.0621 -2.94686 12
      vertex 98.427 -2.85317 12
    endloop
  endfacet
  facet normal -0.248689 0.968583 0
    outer loop
      vertex 98.0621 -2.94686 12
      vertex 98.427 -2.85317 0
      vertex 98.0621 -2.94686 0
    endloop
  endfacet
  facet normal -0.950603 -0.310411 0
    outer loop
      vertex 100.406 0.746069 0
      vertex 100.289 1.10437 12
      vertex 100.289 1.10437 0
    endloop
  endfacet
  facet normal -0.950603 -0.310411 0
    outer loop
      vertex 100.289 1.10437 12
      vertex 100.406 0.746069 0
      vertex 100.406 0.746069 12
    endloop
  endfacet
  facet normal -0.770566 -0.63736 0
    outer loop
      vertex 99.927 1.76336 0
      vertex 99.6869 2.05364 12
      vertex 99.6869 2.05364 0
    endloop
  endfacet
  facet normal -0.770566 -0.63736 0
    outer loop
      vertex 99.6869 2.05364 12
      vertex 99.927 1.76336 0
      vertex 99.927 1.76336 12
    endloop
  endfacet
  facet normal -0.844175 -0.536068 0
    outer loop
      vertex 100.129 1.44526 0
      vertex 99.927 1.76336 12
      vertex 99.927 1.76336 0
    endloop
  endfacet
  facet normal -0.844175 -0.536068 0
    outer loop
      vertex 99.927 1.76336 12
      vertex 100.129 1.44526 0
      vertex 100.129 1.44526 12
    endloop
  endfacet
  facet normal -0.125361 -0.992111 0
    outer loop
      vertex 97.6884 2.99408 0
      vertex 98.0621 2.94686 12
      vertex 97.6884 2.99408 12
    endloop
  endfacet
  facet normal -0.125361 -0.992111 -0
    outer loop
      vertex 98.0621 2.94686 12
      vertex 97.6884 2.99408 0
      vertex 98.0621 2.94686 0
    endloop
  endfacet
  facet normal 0 -1 0
    outer loop
      vertex 97.3116 2.99408 0
      vertex 97.6884 2.99408 12
      vertex 97.3116 2.99408 12
    endloop
  endfacet
  facet normal 0 -1 -0
    outer loop
      vertex 97.6884 2.99408 12
      vertex 97.3116 2.99408 0
      vertex 97.6884 2.99408 0
    endloop
  endfacet
  facet normal -0.481695 -0.876339 0
    outer loop
      vertex 98.7773 2.71448 0
      vertex 99.1075 2.53298 12
      vertex 98.7773 2.71448 12
    endloop
  endfacet
  facet normal -0.481695 -0.876339 -0
    outer loop
      vertex 99.1075 2.53298 12
      vertex 98.7773 2.71448 0
      vertex 99.1075 2.53298 0
    endloop
  endfacet
  facet normal 0.951071 -0.308971 0
    outer loop
      vertex 94.5943 0.746069 12
      vertex 94.7107 1.10437 0
      vertex 94.7107 1.10437 12
    endloop
  endfacet
  facet normal 0.951071 -0.308971 0
    outer loop
      vertex 94.7107 1.10437 0
      vertex 94.5943 0.746069 12
      vertex 94.5943 0.746069 0
    endloop
  endfacet
  facet normal 0.982285 -0.187395 0
    outer loop
      vertex 94.5237 0.375999 12
      vertex 94.5943 0.746069 0
      vertex 94.5943 0.746069 12
    endloop
  endfacet
  facet normal 0.982285 -0.187395 0
    outer loop
      vertex 94.5943 0.746069 0
      vertex 94.5237 0.375999 12
      vertex 94.5237 0.375999 0
    endloop
  endfacet
  facet normal 0.998019 -0.0629072 0
    outer loop
      vertex 94.5 0 12
      vertex 94.5237 0.375999 0
      vertex 94.5237 0.375999 12
    endloop
  endfacet
  facet normal 0.998019 -0.0629072 0
    outer loop
      vertex 94.5237 0.375999 0
      vertex 94.5 0 12
      vertex 94.5 0 0
    endloop
  endfacet
  facet normal 0.998019 0.0629072 0
    outer loop
      vertex 94.5237 -0.375999 12
      vertex 94.5 0 0
      vertex 94.5 0 12
    endloop
  endfacet
  facet normal 0.998019 0.0629072 0
    outer loop
      vertex 94.5 0 0
      vertex 94.5237 -0.375999 12
      vertex 94.5237 -0.375999 0
    endloop
  endfacet
  facet normal -0.997969 0.0637003 0
    outer loop
      vertex 100.476 -0.375999 0
      vertex 100.5 0 12
      vertex 100.5 0 0
    endloop
  endfacet
  facet normal -0.997969 0.0637003 0
    outer loop
      vertex 100.5 0 12
      vertex 100.476 -0.375999 0
      vertex 100.476 -0.375999 12
    endloop
  endfacet
  facet normal -0.844175 0.536068 0
    outer loop
      vertex 99.927 -1.76336 0
      vertex 100.129 -1.44526 12
      vertex 100.129 -1.44526 0
    endloop
  endfacet
  facet normal -0.844175 0.536068 0
    outer loop
      vertex 100.129 -1.44526 12
      vertex 99.927 -1.76336 0
      vertex 99.927 -1.76336 12
    endloop
  endfacet
  facet normal -0.982577 0.185858 0
    outer loop
      vertex 100.406 -0.746069 0
      vertex 100.476 -0.375999 12
      vertex 100.476 -0.375999 0
    endloop
  endfacet
  facet normal -0.982577 0.185858 0
    outer loop
      vertex 100.476 -0.375999 12
      vertex 100.406 -0.746069 0
      vertex 100.406 -0.746069 12
    endloop
  endfacet
  facet normal -0.587768 0.80903 0
    outer loop
      vertex 99.4123 -2.31154 0
      vertex 99.1075 -2.53298 12
      vertex 99.4123 -2.31154 12
    endloop
  endfacet
  facet normal -0.587768 0.80903 0
    outer loop
      vertex 99.1075 -2.53298 12
      vertex 99.4123 -2.31154 0
      vertex 99.1075 -2.53298 0
    endloop
  endfacet
  facet normal -0.481695 0.876339 0
    outer loop
      vertex 99.1075 -2.53298 0
      vertex 98.7773 -2.71448 12
      vertex 99.1075 -2.53298 12
    endloop
  endfacet
  facet normal -0.481695 0.876339 0
    outer loop
      vertex 98.7773 -2.71448 12
      vertex 99.1075 -2.53298 0
      vertex 98.7773 -2.71448 0
    endloop
  endfacet
  facet normal -0.248689 -0.968583 0
    outer loop
      vertex 98.0621 2.94686 0
      vertex 98.427 2.85317 12
      vertex 98.0621 2.94686 12
    endloop
  endfacet
  facet normal -0.248689 -0.968583 -0
    outer loop
      vertex 98.427 2.85317 12
      vertex 98.0621 2.94686 0
      vertex 98.427 2.85317 0
    endloop
  endfacet
  facet normal 0.684594 -0.728924 0
    outer loop
      vertex 95.3131 2.05364 0
      vertex 95.5877 2.31154 12
      vertex 95.3131 2.05364 12
    endloop
  endfacet
  facet normal 0.684594 -0.728924 0
    outer loop
      vertex 95.5877 2.31154 12
      vertex 95.3131 2.05364 0
      vertex 95.5877 2.31154 0
    endloop
  endfacet
  facet normal 0.368116 -0.92978 0
    outer loop
      vertex 96.2227 2.71448 0
      vertex 96.573 2.85317 12
      vertex 96.2227 2.71448 12
    endloop
  endfacet
  facet normal 0.368116 -0.92978 0
    outer loop
      vertex 96.573 2.85317 12
      vertex 96.2227 2.71448 0
      vertex 96.573 2.85317 0
    endloop
  endfacet
  facet normal -0.950603 0.310411 0
    outer loop
      vertex 100.289 -1.10437 0
      vertex 100.406 -0.746069 12
      vertex 100.406 -0.746069 0
    endloop
  endfacet
  facet normal -0.950603 0.310411 0
    outer loop
      vertex 100.406 -0.746069 12
      vertex 100.289 -1.10437 0
      vertex 100.289 -1.10437 12
    endloop
  endfacet
  facet normal -0.905247 0.424886 0
    outer loop
      vertex 100.129 -1.44526 0
      vertex 100.289 -1.10437 12
      vertex 100.289 -1.10437 0
    endloop
  endfacet
  facet normal -0.905247 0.424886 0
    outer loop
      vertex 100.289 -1.10437 12
      vertex 100.129 -1.44526 0
      vertex 100.129 -1.44526 12
    endloop
  endfacet
  facet normal 0.248689 0.968583 -0
    outer loop
      vertex 96.9379 -2.94686 0
      vertex 96.573 -2.85317 12
      vertex 96.9379 -2.94686 12
    endloop
  endfacet
  facet normal 0.248689 0.968583 0
    outer loop
      vertex 96.573 -2.85317 12
      vertex 96.9379 -2.94686 0
      vertex 96.573 -2.85317 0
    endloop
  endfacet
  facet normal 0.587768 0.80903 -0
    outer loop
      vertex 95.8925 -2.53298 0
      vertex 95.5877 -2.31154 12
      vertex 95.8925 -2.53298 12
    endloop
  endfacet
  facet normal 0.587768 0.80903 0
    outer loop
      vertex 95.5877 -2.31154 12
      vertex 95.8925 -2.53298 0
      vertex 95.5877 -2.31154 0
    endloop
  endfacet
  facet normal 0.684594 0.728924 -0
    outer loop
      vertex 95.5877 -2.31154 0
      vertex 95.3131 -2.05364 12
      vertex 95.5877 -2.31154 12
    endloop
  endfacet
  facet normal 0.684594 0.728924 0
    outer loop
      vertex 95.3131 -2.05364 12
      vertex 95.5877 -2.31154 0
      vertex 95.3131 -2.05364 0
    endloop
  endfacet
  facet normal 0.844295 0.535879 0
    outer loop
      vertex 95.073 -1.76336 12
      vertex 94.8711 -1.44526 0
      vertex 94.8711 -1.44526 12
    endloop
  endfacet
  facet normal 0.844295 0.535879 0
    outer loop
      vertex 94.8711 -1.44526 0
      vertex 95.073 -1.76336 12
      vertex 95.073 -1.76336 0
    endloop
  endfacet
  facet normal 0.982285 0.187395 0
    outer loop
      vertex 94.5943 -0.746069 12
      vertex 94.5237 -0.375999 0
      vertex 94.5237 -0.375999 12
    endloop
  endfacet
  facet normal 0.982285 0.187395 0
    outer loop
      vertex 94.5237 -0.375999 0
      vertex 94.5943 -0.746069 12
      vertex 94.5943 -0.746069 0
    endloop
  endfacet
  facet normal 0.951071 0.308971 0
    outer loop
      vertex 94.7107 -1.10437 12
      vertex 94.5943 -0.746069 0
      vertex 94.5943 -0.746069 12
    endloop
  endfacet
  facet normal 0.951071 0.308971 0
    outer loop
      vertex 94.5943 -0.746069 0
      vertex 94.7107 -1.10437 12
      vertex 94.7107 -1.10437 0
    endloop
  endfacet
  facet normal 0.904838 0.425756 0
    outer loop
      vertex 94.8711 -1.44526 12
      vertex 94.7107 -1.10437 0
      vertex 94.7107 -1.10437 12
    endloop
  endfacet
  facet normal 0.904838 0.425756 0
    outer loop
      vertex 94.7107 -1.10437 0
      vertex 94.8711 -1.44526 12
      vertex 94.8711 -1.44526 0
    endloop
  endfacet
  facet normal -0.684594 0.728924 0
    outer loop
      vertex 99.6869 -2.05364 0
      vertex 99.4123 -2.31154 12
      vertex 99.6869 -2.05364 12
    endloop
  endfacet
  facet normal -0.684594 0.728924 0
    outer loop
      vertex 99.4123 -2.31154 12
      vertex 99.6869 -2.05364 0
      vertex 99.4123 -2.31154 0
    endloop
  endfacet
  facet normal -0.368116 0.92978 0
    outer loop
      vertex 98.7773 -2.71448 0
      vertex 98.427 -2.85317 12
      vertex 98.7773 -2.71448 12
    endloop
  endfacet
  facet normal -0.368116 0.92978 0
    outer loop
      vertex 98.427 -2.85317 12
      vertex 98.7773 -2.71448 0
      vertex 98.427 -2.85317 0
    endloop
  endfacet
  facet normal 0.481695 0.876339 -0
    outer loop
      vertex 96.2227 -2.71448 0
      vertex 95.8925 -2.53298 12
      vertex 96.2227 -2.71448 12
    endloop
  endfacet
  facet normal 0.481695 0.876339 0
    outer loop
      vertex 95.8925 -2.53298 12
      vertex 96.2227 -2.71448 0
      vertex 95.8925 -2.53298 0
    endloop
  endfacet
  facet normal 0.770566 0.63736 0
    outer loop
      vertex 95.3131 -2.05364 12
      vertex 95.073 -1.76336 0
      vertex 95.073 -1.76336 12
    endloop
  endfacet
  facet normal 0.770566 0.63736 0
    outer loop
      vertex 95.073 -1.76336 0
      vertex 95.3131 -2.05364 12
      vertex 95.3131 -2.05364 0
    endloop
  endfacet
  facet normal -0.770566 0.63736 0
    outer loop
      vertex 99.6869 -2.05364 0
      vertex 99.927 -1.76336 12
      vertex 99.927 -1.76336 0
    endloop
  endfacet
  facet normal -0.770566 0.63736 0
    outer loop
      vertex 99.927 -1.76336 12
      vertex 99.6869 -2.05364 0
      vertex 99.6869 -2.05364 12
    endloop
  endfacet
  facet normal 0.125361 0.992111 -0
    outer loop
      vertex 97.3116 -2.99408 0
      vertex 96.9379 -2.94686 12
      vertex 97.3116 -2.99408 12
    endloop
  endfacet
  facet normal 0.125361 0.992111 0
    outer loop
      vertex 96.9379 -2.94686 12
      vertex 97.3116 -2.99408 0
      vertex 96.9379 -2.94686 0
    endloop
  endfacet
  facet normal 0 1 -0
    outer loop
      vertex 97.6884 -2.99408 0
      vertex 97.3116 -2.99408 12
      vertex 97.6884 -2.99408 12
    endloop
  endfacet
  facet normal 0 1 0
    outer loop
      vertex 97.3116 -2.99408 12
      vertex 97.6884 -2.99408 0
      vertex 97.3116 -2.99408 0
    endloop
  endfacet
  facet normal 0.368116 0.92978 -0
    outer loop
      vertex 96.573 -2.85317 0
      vertex 96.2227 -2.71448 12
      vertex 96.573 -2.85317 12
    endloop
  endfacet
  facet normal 0.368116 0.92978 0
    outer loop
      vertex 96.2227 -2.71448 12
      vertex 96.573 -2.85317 0
      vertex 96.2227 -2.71448 0
    endloop
  endfacet
  facet normal -1 0 0
    outer loop
      vertex -104.5 -2 0
      vertex -104.5 2 12
      vertex -104.5 2 0
    endloop
  endfacet
  facet normal -1 -0 0
    outer loop
      vertex -104.5 2 12
      vertex -104.5 -2 0
      vertex -104.5 -2 12
    endloop
  endfacet
  facet normal -0.998069 -0.0621135 0
    outer loop
      vertex -104.461 -2.62667 0
      vertex -104.5 -2 12
      vertex -104.5 -2 0
    endloop
  endfacet
  facet normal -0.998069 -0.0621135 0
    outer loop
      vertex -104.5 -2 12
      vertex -104.461 -2.62667 0
      vertex -104.461 -2.62667 12
    endloop
  endfacet
  facet normal 0 1 -0
    outer loop
      vertex 99.8139 6.99013 0
      vertex -99.8139 6.99013 12
      vertex 99.8139 6.99013 12
    endloop
  endfacet
  facet normal 0 1 0
    outer loop
      vertex -99.8139 6.99013 12
      vertex 99.8139 6.99013 0
      vertex -99.8139 6.99013 0
    endloop
  endfacet
  facet normal 0 -1 0
    outer loop
      vertex -99.8139 -6.99013 0
      vertex 99.8139 -6.99013 12
      vertex -99.8139 -6.99013 12
    endloop
  endfacet
  facet normal 0 -1 -0
    outer loop
      vertex 99.8139 -6.99013 12
      vertex -99.8139 -6.99013 0
      vertex 99.8139 -6.99013 0
    endloop
  endfacet
  facet normal -0.998069 0.0621135 0
    outer loop
      vertex -104.5 2 0
      vertex -104.461 2.62667 12
      vertex -104.461 2.62667 0
    endloop
  endfacet
  facet normal -0.998069 0.0621135 0
    outer loop
      vertex -104.461 2.62667 12
      vertex -104.5 2 0
      vertex -104.5 2 12
    endloop
  endfacet
  facet normal 0.905042 -0.425321 0
    outer loop
      vertex 103.882 -4.40877 12
      vertex 104.149 -3.84062 0
      vertex 104.149 -3.84062 12
    endloop
  endfacet
  facet normal 0.905042 -0.425321 0
    outer loop
      vertex 104.149 -3.84062 0
      vertex 103.882 -4.40877 12
      vertex 103.882 -4.40877 0
    endloop
  endfacet
  facet normal -0.770703 0.637195 0
    outer loop
      vertex -103.545 4.93893 0
      vertex -103.145 5.42274 12
      vertex -103.145 5.42274 0
    endloop
  endfacet
  facet normal -0.770703 0.637195 0
    outer loop
      vertex -103.145 5.42274 12
      vertex -103.545 4.93893 0
      vertex -103.545 4.93893 12
    endloop
  endfacet
  facet normal -0.368026 -0.929816 0
    outer loop
      vertex -101.629 -6.52413 0
      vertex -101.045 -6.75528 12
      vertex -101.629 -6.52413 12
    endloop
  endfacet
  facet normal -0.368026 -0.929816 -0
    outer loop
      vertex -101.045 -6.75528 12
      vertex -101.629 -6.52413 0
      vertex -101.045 -6.75528 0
    endloop
  endfacet
  facet normal -0.125293 -0.99212 0
    outer loop
      vertex -100.437 -6.91144 0
      vertex -99.8139 -6.99013 12
      vertex -100.437 -6.91144 12
    endloop
  endfacet
  facet normal -0.125293 -0.99212 -0
    outer loop
      vertex -99.8139 -6.99013 12
      vertex -100.437 -6.91144 0
      vertex -99.8139 -6.99013 0
    endloop
  endfacet
  facet normal -0.481907 -0.876223 0
    outer loop
      vertex -102.179 -6.22164 0
      vertex -101.629 -6.52413 12
      vertex -102.179 -6.22164 12
    endloop
  endfacet
  facet normal -0.481907 -0.876223 -0
    outer loop
      vertex -101.629 -6.52413 12
      vertex -102.179 -6.22164 0
      vertex -101.629 -6.52413 0
    endloop
  endfacet
  facet normal -0.684327 -0.729176 0
    outer loop
      vertex -103.145 -5.42274 0
      vertex -102.687 -5.85257 12
      vertex -103.145 -5.42274 12
    endloop
  endfacet
  facet normal -0.684327 -0.729176 -0
    outer loop
      vertex -102.687 -5.85257 12
      vertex -103.145 -5.42274 0
      vertex -102.687 -5.85257 0
    endloop
  endfacet
  facet normal 1 -0 0
    outer loop
      vertex 104.5 -2 12
      vertex 104.5 2 0
      vertex 104.5 2 12
    endloop
  endfacet
  facet normal 1 0 0
    outer loop
      vertex 104.5 2 0
      vertex 104.5 -2 12
      vertex 104.5 -2 0
    endloop
  endfacet
  facet normal 0.951072 -0.30897 0
    outer loop
      vertex 104.149 -3.84062 12
      vertex 104.343 -3.24345 0
      vertex 104.343 -3.24345 12
    endloop
  endfacet
  facet normal 0.951072 -0.30897 0
    outer loop
      vertex 104.343 -3.24345 0
      vertex 104.149 -3.84062 12
      vertex 104.149 -3.84062 0
    endloop
  endfacet
  facet normal 0.982187 -0.187908 0
    outer loop
      vertex 104.343 -3.24345 12
      vertex 104.461 -2.62667 0
      vertex 104.461 -2.62667 12
    endloop
  endfacet
  facet normal 0.982187 -0.187908 0
    outer loop
      vertex 104.461 -2.62667 0
      vertex 104.343 -3.24345 12
      vertex 104.343 -3.24345 0
    endloop
  endfacet
  facet normal 0.481907 -0.876223 0
    outer loop
      vertex 101.629 -6.52413 0
      vertex 102.179 -6.22164 12
      vertex 101.629 -6.52413 12
    endloop
  endfacet
  facet normal 0.481907 -0.876223 0
    outer loop
      vertex 102.179 -6.22164 12
      vertex 101.629 -6.52413 0
      vertex 102.179 -6.22164 0
    endloop
  endfacet
  facet normal 0.951072 0.30897 0
    outer loop
      vertex 104.343 3.24345 12
      vertex 104.149 3.84062 0
      vertex 104.149 3.84062 12
    endloop
  endfacet
  facet normal 0.951072 0.30897 0
    outer loop
      vertex 104.149 3.84062 0
      vertex 104.343 3.24345 12
      vertex 104.343 3.24345 0
    endloop
  endfacet
  facet normal 0.684327 0.729176 -0
    outer loop
      vertex 103.145 5.42274 0
      vertex 102.687 5.85257 12
      vertex 103.145 5.42274 12
    endloop
  endfacet
  facet normal 0.684327 0.729176 0
    outer loop
      vertex 102.687 5.85257 12
      vertex 103.145 5.42274 0
      vertex 102.687 5.85257 0
    endloop
  endfacet
  facet normal 0.368026 0.929816 -0
    outer loop
      vertex 101.629 6.52413 0
      vertex 101.045 6.75528 12
      vertex 101.629 6.52413 12
    endloop
  endfacet
  facet normal 0.368026 0.929816 0
    outer loop
      vertex 101.045 6.75528 12
      vertex 101.629 6.52413 0
      vertex 101.045 6.75528 0
    endloop
  endfacet
  facet normal 0.248768 0.968563 -0
    outer loop
      vertex 101.045 6.75528 0
      vertex 100.437 6.91144 12
      vertex 101.045 6.75528 12
    endloop
  endfacet
  facet normal 0.248768 0.968563 0
    outer loop
      vertex 100.437 6.91144 12
      vertex 101.045 6.75528 0
      vertex 100.437 6.91144 0
    endloop
  endfacet
  facet normal 0.125293 0.99212 -0
    outer loop
      vertex 100.437 6.91144 0
      vertex 99.8139 6.99013 12
      vertex 100.437 6.91144 12
    endloop
  endfacet
  facet normal 0.125293 0.99212 0
    outer loop
      vertex 99.8139 6.99013 12
      vertex 100.437 6.91144 0
      vertex 99.8139 6.99013 0
    endloop
  endfacet
  facet normal -0.368026 0.929816 0
    outer loop
      vertex -101.045 6.75528 0
      vertex -101.629 6.52413 12
      vertex -101.045 6.75528 12
    endloop
  endfacet
  facet normal -0.368026 0.929816 0
    outer loop
      vertex -101.629 6.52413 12
      vertex -101.045 6.75528 0
      vertex -101.629 6.52413 0
    endloop
  endfacet
  facet normal -0.951072 -0.30897 0
    outer loop
      vertex -104.149 -3.84062 0
      vertex -104.343 -3.24345 12
      vertex -104.343 -3.24345 0
    endloop
  endfacet
  facet normal -0.951072 -0.30897 0
    outer loop
      vertex -104.343 -3.24345 12
      vertex -104.149 -3.84062 0
      vertex -104.149 -3.84062 12
    endloop
  endfacet
  facet normal -0.905042 -0.425321 0
    outer loop
      vertex -103.882 -4.40877 0
      vertex -104.149 -3.84062 12
      vertex -104.149 -3.84062 0
    endloop
  endfacet
  facet normal -0.905042 -0.425321 0
    outer loop
      vertex -104.149 -3.84062 12
      vertex -103.882 -4.40877 0
      vertex -103.882 -4.40877 12
    endloop
  endfacet
  facet normal -0.770703 -0.637195 0
    outer loop
      vertex -103.145 -5.42274 0
      vertex -103.545 -4.93893 12
      vertex -103.545 -4.93893 0
    endloop
  endfacet
  facet normal -0.770703 -0.637195 0
    outer loop
      vertex -103.545 -4.93893 12
      vertex -103.145 -5.42274 0
      vertex -103.145 -5.42274 12
    endloop
  endfacet
  facet normal -0.248768 -0.968563 0
    outer loop
      vertex -101.045 -6.75528 0
      vertex -100.437 -6.91144 12
      vertex -101.045 -6.75528 12
    endloop
  endfacet
  facet normal -0.248768 -0.968563 -0
    outer loop
      vertex -100.437 -6.91144 12
      vertex -101.045 -6.75528 0
      vertex -100.437 -6.91144 0
    endloop
  endfacet
  facet normal -0.587771 -0.809027 0
    outer loop
      vertex -102.687 -5.85257 0
      vertex -102.179 -6.22164 12
      vertex -102.687 -5.85257 12
    endloop
  endfacet
  facet normal -0.587771 -0.809027 -0
    outer loop
      vertex -102.179 -6.22164 12
      vertex -102.687 -5.85257 0
      vertex -102.179 -6.22164 0
    endloop
  endfacet
  facet normal 0.998069 -0.0621135 0
    outer loop
      vertex 104.461 -2.62667 12
      vertex 104.5 -2 0
      vertex 104.5 -2 12
    endloop
  endfacet
  facet normal 0.998069 -0.0621135 0
    outer loop
      vertex 104.5 -2 0
      vertex 104.461 -2.62667 12
      vertex 104.461 -2.62667 0
    endloop
  endfacet
  facet normal 0.684327 -0.729176 0
    outer loop
      vertex 102.687 -5.85257 0
      vertex 103.145 -5.42274 12
      vertex 102.687 -5.85257 12
    endloop
  endfacet
  facet normal 0.684327 -0.729176 0
    outer loop
      vertex 103.145 -5.42274 12
      vertex 102.687 -5.85257 0
      vertex 103.145 -5.42274 0
    endloop
  endfacet
  facet normal 0.587771 -0.809027 0
    outer loop
      vertex 102.179 -6.22164 0
      vertex 102.687 -5.85257 12
      vertex 102.179 -6.22164 12
    endloop
  endfacet
  facet normal 0.587771 -0.809027 0
    outer loop
      vertex 102.687 -5.85257 12
      vertex 102.179 -6.22164 0
      vertex 102.687 -5.85257 0
    endloop
  endfacet
  facet normal 0.770703 -0.637195 0
    outer loop
      vertex 103.145 -5.42274 12
      vertex 103.545 -4.93893 0
      vertex 103.545 -4.93893 12
    endloop
  endfacet
  facet normal 0.770703 -0.637195 0
    outer loop
      vertex 103.545 -4.93893 0
      vertex 103.145 -5.42274 12
      vertex 103.145 -5.42274 0
    endloop
  endfacet
  facet normal 0.368026 -0.929816 0
    outer loop
      vertex 101.045 -6.75528 0
      vertex 101.629 -6.52413 12
      vertex 101.045 -6.75528 12
    endloop
  endfacet
  facet normal 0.368026 -0.929816 0
    outer loop
      vertex 101.629 -6.52413 12
      vertex 101.045 -6.75528 0
      vertex 101.629 -6.52413 0
    endloop
  endfacet
  facet normal 0.125293 -0.99212 0
    outer loop
      vertex 99.8139 -6.99013 0
      vertex 100.437 -6.91144 12
      vertex 99.8139 -6.99013 12
    endloop
  endfacet
  facet normal 0.125293 -0.99212 0
    outer loop
      vertex 100.437 -6.91144 12
      vertex 99.8139 -6.99013 0
      vertex 100.437 -6.91144 0
    endloop
  endfacet
  facet normal 0.770703 0.637195 0
    outer loop
      vertex 103.545 4.93893 12
      vertex 103.145 5.42274 0
      vertex 103.145 5.42274 12
    endloop
  endfacet
  facet normal 0.770703 0.637195 0
    outer loop
      vertex 103.145 5.42274 0
      vertex 103.545 4.93893 12
      vertex 103.545 4.93893 0
    endloop
  endfacet
  facet normal 0.905042 0.425321 0
    outer loop
      vertex 104.149 3.84062 12
      vertex 103.882 4.40877 0
      vertex 103.882 4.40877 12
    endloop
  endfacet
  facet normal 0.905042 0.425321 0
    outer loop
      vertex 103.882 4.40877 0
      vertex 104.149 3.84062 12
      vertex 104.149 3.84062 0
    endloop
  endfacet
  facet normal 0.587771 0.809027 -0
    outer loop
      vertex 102.687 5.85257 0
      vertex 102.179 6.22164 12
      vertex 102.687 5.85257 12
    endloop
  endfacet
  facet normal 0.587771 0.809027 0
    outer loop
      vertex 102.179 6.22164 12
      vertex 102.687 5.85257 0
      vertex 102.179 6.22164 0
    endloop
  endfacet
  facet normal 0.481907 0.876223 -0
    outer loop
      vertex 102.179 6.22164 0
      vertex 101.629 6.52413 12
      vertex 102.179 6.22164 12
    endloop
  endfacet
  facet normal 0.481907 0.876223 0
    outer loop
      vertex 101.629 6.52413 12
      vertex 102.179 6.22164 0
      vertex 101.629 6.52413 0
    endloop
  endfacet
  facet normal -0.684327 0.729176 0
    outer loop
      vertex -102.687 5.85257 0
      vertex -103.145 5.42274 12
      vertex -102.687 5.85257 12
    endloop
  endfacet
  facet normal -0.684327 0.729176 0
    outer loop
      vertex -103.145 5.42274 12
      vertex -102.687 5.85257 0
      vertex -103.145 5.42274 0
    endloop
  endfacet
  facet normal -0.125293 0.99212 0
    outer loop
      vertex -99.8139 6.99013 0
      vertex -100.437 6.91144 12
      vertex -99.8139 6.99013 12
    endloop
  endfacet
  facet normal -0.125293 0.99212 0
    outer loop
      vertex -100.437 6.91144 12
      vertex -99.8139 6.99013 0
      vertex -100.437 6.91144 0
    endloop
  endfacet
  facet normal -0.982187 0.187908 0
    outer loop
      vertex -104.461 2.62667 0
      vertex -104.343 3.24345 12
      vertex -104.343 3.24345 0
    endloop
  endfacet
  facet normal -0.982187 0.187908 0
    outer loop
      vertex -104.343 3.24345 12
      vertex -104.461 2.62667 0
      vertex -104.461 2.62667 12
    endloop
  endfacet
  facet normal -0.951072 0.30897 0
    outer loop
      vertex -104.343 3.24345 0
      vertex -104.149 3.84062 12
      vertex -104.149 3.84062 0
    endloop
  endfacet
  facet normal -0.951072 0.30897 0
    outer loop
      vertex -104.149 3.84062 12
      vertex -104.343 3.24345 0
      vertex -104.343 3.24345 12
    endloop
  endfacet
  facet normal -0.982187 -0.187908 0
    outer loop
      vertex -104.343 -3.24345 0
      vertex -104.461 -2.62667 12
      vertex -104.461 -2.62667 0
    endloop
  endfacet
  facet normal -0.982187 -0.187908 0
    outer loop
      vertex -104.461 -2.62667 12
      vertex -104.343 -3.24345 0
      vertex -104.343 -3.24345 12
    endloop
  endfacet
  facet normal -0.843931 -0.536451 0
    outer loop
      vertex -103.545 -4.93893 0
      vertex -103.882 -4.40877 12
      vertex -103.882 -4.40877 0
    endloop
  endfacet
  facet normal -0.843931 -0.536451 0
    outer loop
      vertex -103.882 -4.40877 12
      vertex -103.545 -4.93893 0
      vertex -103.545 -4.93893 12
    endloop
  endfacet
  facet normal 0.843931 -0.536451 0
    outer loop
      vertex 103.545 -4.93893 12
      vertex 103.882 -4.40877 0
      vertex 103.882 -4.40877 12
    endloop
  endfacet
  facet normal 0.843931 -0.536451 0
    outer loop
      vertex 103.882 -4.40877 0
      vertex 103.545 -4.93893 12
      vertex 103.545 -4.93893 0
    endloop
  endfacet
  facet normal 0.248768 -0.968563 0
    outer loop
      vertex 100.437 -6.91144 0
      vertex 101.045 -6.75528 12
      vertex 100.437 -6.91144 12
    endloop
  endfacet
  facet normal 0.248768 -0.968563 0
    outer loop
      vertex 101.045 -6.75528 12
      vertex 100.437 -6.91144 0
      vertex 101.045 -6.75528 0
    endloop
  endfacet
  facet normal 0.843931 0.536451 0
    outer loop
      vertex 103.882 4.40877 12
      vertex 103.545 4.93893 0
      vertex 103.545 4.93893 12
    endloop
  endfacet
  facet normal 0.843931 0.536451 0
    outer loop
      vertex 103.545 4.93893 0
      vertex 103.882 4.40877 12
      vertex 103.882 4.40877 0
    endloop
  endfacet
  facet normal -0.248768 0.968563 0
    outer loop
      vertex -100.437 6.91144 0
      vertex -101.045 6.75528 12
      vertex -100.437 6.91144 12
    endloop
  endfacet
  facet normal -0.248768 0.968563 0
    outer loop
      vertex -101.045 6.75528 12
      vertex -100.437 6.91144 0
      vertex -101.045 6.75528 0
    endloop
  endfacet
  facet normal -0.843931 0.536451 0
    outer loop
      vertex -103.882 4.40877 0
      vertex -103.545 4.93893 12
      vertex -103.545 4.93893 0
    endloop
  endfacet
  facet normal -0.843931 0.536451 0
    outer loop
      vertex -103.545 4.93893 12
      vertex -103.882 4.40877 0
      vertex -103.882 4.40877 12
    endloop
  endfacet
  facet normal -0.905042 0.425321 0
    outer loop
      vertex -104.149 3.84062 0
      vertex -103.882 4.40877 12
      vertex -103.882 4.40877 0
    endloop
  endfacet
  facet normal -0.905042 0.425321 0
    outer loop
      vertex -103.882 4.40877 12
      vertex -104.149 3.84062 0
      vertex -104.149 3.84062 12
    endloop
  endfacet
  facet normal 0.998069 0.0621135 0
    outer loop
      vertex 104.5 2 12
      vertex 104.461 2.62667 0
      vertex 104.461 2.62667 12
    endloop
  endfacet
  facet normal 0.998069 0.0621135 0
    outer loop
      vertex 104.461 2.62667 0
      vertex 104.5 2 12
      vertex 104.5 2 0
    endloop
  endfacet
  facet normal 0.982187 0.187908 0
    outer loop
      vertex 104.461 2.62667 12
      vertex 104.343 3.24345 0
      vertex 104.343 3.24345 12
    endloop
  endfacet
  facet normal 0.982187 0.187908 0
    outer loop
      vertex 104.343 3.24345 0
      vertex 104.461 2.62667 12
      vertex 104.461 2.62667 0
    endloop
  endfacet
  facet normal -0.587771 0.809027 0
    outer loop
      vertex -102.179 6.22164 0
      vertex -102.687 5.85257 12
      vertex -102.179 6.22164 12
    endloop
  endfacet
  facet normal -0.587771 0.809027 0
    outer loop
      vertex -102.687 5.85257 12
      vertex -102.179 6.22164 0
      vertex -102.687 5.85257 0
    endloop
  endfacet
  facet normal -0.481907 0.876223 0
    outer loop
      vertex -101.629 6.52413 0
      vertex -102.179 6.22164 12
      vertex -101.629 6.52413 12
    endloop
  endfacet
  facet normal -0.481907 0.876223 0
    outer loop
      vertex -102.179 6.22164 12
      vertex -101.629 6.52413 0
      vertex -102.179 6.22164 0
    endloop
  endfacet
endsolid OpenSCAD_Model
