  0
SECTION
  2
BLOCKS
  0
ENDSEC
  0
SECTION
  2
ENTITIES
  0
LINE
  8
0
 10
145.437
 20
-149.411
 11
146.045
 21
-149.255
  0
LINE
  8
0
 10
146.045
 20
-149.255
 11
146.629
 21
-149.024
  0
LINE
  8
0
 10
146.629
 20
-149.024
 11
147.179
 21
-148.722
  0
LINE
  8
0
 10
147.179
 20
-148.722
 11
147.687
 21
-148.353
  0
LINE
  8
0
 10
147.687
 20
-148.353
 11
148.145
 21
-147.923
  0
LINE
  8
0
 10
148.145
 20
-147.923
 11
148.545
 21
-147.439
  0
LINE
  8
0
 10
148.545
 20
-147.439
 11
148.882
 21
-146.909
  0
LINE
  8
0
 10
148.882
 20
-146.909
 11
149.149
 21
-146.341
  0
LINE
  8
0
 10
149.149
 20
-146.341
 11
149.343
 21
-145.743
  0
LINE
  8
0
 10
149.343
 20
-145.743
 11
149.461
 21
-145.127
  0
LINE
  8
0
 10
149.461
 20
-145.127
 11
149.5
 21
-144.5
  0
LINE
  8
0
 10
149.5
 20
-144.5
 11
149.5
 21
144.5
  0
LINE
  8
0
 10
149.5
 20
144.5
 11
149.461
 21
145.127
  0
LINE
  8
0
 10
149.461
 20
145.127
 11
149.343
 21
145.743
  0
LINE
  8
0
 10
149.343
 20
145.743
 11
149.149
 21
146.341
  0
LINE
  8
0
 10
149.149
 20
146.341
 11
148.882
 21
146.909
  0
LINE
  8
0
 10
148.882
 20
146.909
 11
148.545
 21
147.439
  0
LINE
  8
0
 10
148.545
 20
147.439
 11
148.145
 21
147.923
  0
LINE
  8
0
 10
148.145
 20
147.923
 11
147.687
 21
148.353
  0
LINE
  8
0
 10
147.687
 20
148.353
 11
147.179
 21
148.722
  0
LINE
  8
0
 10
147.179
 20
148.722
 11
146.629
 21
149.024
  0
LINE
  8
0
 10
146.629
 20
149.024
 11
146.045
 21
149.255
  0
LINE
  8
0
 10
146.045
 20
149.255
 11
145.437
 21
149.411
  0
LINE
  8
0
 10
145.437
 20
149.411
 11
144.814
 21
149.49
  0
LINE
  8
0
 10
144.814
 20
149.49
 11
-144.814
 21
149.49
  0
LINE
  8
0
 10
-144.814
 20
149.49
 11
-145.437
 21
149.411
  0
LINE
  8
0
 10
-145.437
 20
149.411
 11
-146.045
 21
149.255
  0
LINE
  8
0
 10
-146.045
 20
149.255
 11
-146.629
 21
149.024
  0
LINE
  8
0
 10
-146.629
 20
149.024
 11
-147.179
 21
148.722
  0
LINE
  8
0
 10
-147.179
 20
148.722
 11
-147.687
 21
148.353
  0
LINE
  8
0
 10
-147.687
 20
148.353
 11
-148.145
 21
147.923
  0
LINE
  8
0
 10
-148.145
 20
147.923
 11
-148.545
 21
147.439
  0
LINE
  8
0
 10
-148.545
 20
147.439
 11
-148.882
 21
146.909
  0
LINE
  8
0
 10
-148.882
 20
146.909
 11
-149.149
 21
146.341
  0
LINE
  8
0
 10
-149.149
 20
146.341
 11
-149.343
 21
145.743
  0
LINE
  8
0
 10
-149.343
 20
145.743
 11
-149.461
 21
145.127
  0
LINE
  8
0
 10
-149.461
 20
145.127
 11
-149.5
 21
144.5
  0
LINE
  8
0
 10
-149.5
 20
144.5
 11
-149.5
 21
-144.5
  0
LINE
  8
0
 10
-149.5
 20
-144.5
 11
-149.461
 21
-145.127
  0
LINE
  8
0
 10
-149.461
 20
-145.127
 11
-149.343
 21
-145.743
  0
LINE
  8
0
 10
-149.343
 20
-145.743
 11
-149.149
 21
-146.341
  0
LINE
  8
0
 10
-149.149
 20
-146.341
 11
-148.882
 21
-146.909
  0
LINE
  8
0
 10
-148.882
 20
-146.909
 11
-148.545
 21
-147.439
  0
LINE
  8
0
 10
-148.545
 20
-147.439
 11
-148.145
 21
-147.923
  0
LINE
  8
0
 10
-148.145
 20
-147.923
 11
-147.687
 21
-148.353
  0
LINE
  8
0
 10
-147.687
 20
-148.353
 11
-147.179
 21
-148.722
  0
LINE
  8
0
 10
-147.179
 20
-148.722
 11
-146.629
 21
-149.024
  0
LINE
  8
0
 10
-146.629
 20
-149.024
 11
-146.045
 21
-149.255
  0
LINE
  8
0
 10
-146.045
 20
-149.255
 11
-145.437
 21
-149.411
  0
LINE
  8
0
 10
-145.437
 20
-149.411
 11
-144.814
 21
-149.49
  0
LINE
  8
0
 10
-144.814
 20
-149.49
 11
144.814
 21
-149.49
  0
LINE
  8
0
 10
144.814
 20
-149.49
 11
145.437
 21
-149.411
  0
LINE
  8
0
 10
142.312
 20
139.506
 11
141.938
 21
139.553
  0
LINE
  8
0
 10
141.938
 20
139.553
 11
141.573
 21
139.647
  0
LINE
  8
0
 10
141.573
 20
139.647
 11
141.223
 21
139.786
  0
LINE
  8
0
 10
141.223
 20
139.786
 11
140.893
 21
139.967
  0
LINE
  8
0
 10
140.893
 20
139.967
 11
140.588
 21
140.188
  0
LINE
  8
0
 10
140.588
 20
140.188
 11
140.313
 21
140.446
  0
LINE
  8
0
 10
140.313
 20
140.446
 11
140.073
 21
140.737
  0
LINE
  8
0
 10
140.073
 20
140.737
 11
139.871
 21
141.055
  0
LINE
  8
0
 10
139.871
 20
141.055
 11
139.711
 21
141.396
  0
LINE
  8
0
 10
139.711
 20
141.396
 11
139.594
 21
141.754
  0
LINE
  8
0
 10
139.594
 20
141.754
 11
139.524
 21
142.124
  0
LINE
  8
0
 10
139.524
 20
142.124
 11
139.5
 21
142.5
  0
LINE
  8
0
 10
139.5
 20
142.5
 11
139.524
 21
142.876
  0
LINE
  8
0
 10
139.524
 20
142.876
 11
139.594
 21
143.246
  0
LINE
  8
0
 10
139.594
 20
143.246
 11
139.711
 21
143.604
  0
LINE
  8
0
 10
139.711
 20
143.604
 11
139.871
 21
143.945
  0
LINE
  8
0
 10
139.871
 20
143.945
 11
140.073
 21
144.263
  0
LINE
  8
0
 10
140.073
 20
144.263
 11
140.313
 21
144.554
  0
LINE
  8
0
 10
140.313
 20
144.554
 11
140.588
 21
144.812
  0
LINE
  8
0
 10
140.588
 20
144.812
 11
140.893
 21
145.033
  0
LINE
  8
0
 10
140.893
 20
145.033
 11
141.223
 21
145.214
  0
LINE
  8
0
 10
141.223
 20
145.214
 11
141.573
 21
145.353
  0
LINE
  8
0
 10
141.573
 20
145.353
 11
141.938
 21
145.447
  0
LINE
  8
0
 10
141.938
 20
145.447
 11
142.312
 21
145.494
  0
LINE
  8
0
 10
142.312
 20
145.494
 11
142.688
 21
145.494
  0
LINE
  8
0
 10
142.688
 20
145.494
 11
143.062
 21
145.447
  0
LINE
  8
0
 10
143.062
 20
145.447
 11
143.427
 21
145.353
  0
LINE
  8
0
 10
143.427
 20
145.353
 11
143.777
 21
145.214
  0
LINE
  8
0
 10
143.777
 20
145.214
 11
144.107
 21
145.033
  0
LINE
  8
0
 10
144.107
 20
145.033
 11
144.412
 21
144.812
  0
LINE
  8
0
 10
144.412
 20
144.812
 11
144.687
 21
144.554
  0
LINE
  8
0
 10
144.687
 20
144.554
 11
144.927
 21
144.263
  0
LINE
  8
0
 10
144.927
 20
144.263
 11
145.129
 21
143.945
  0
LINE
  8
0
 10
145.129
 20
143.945
 11
145.289
 21
143.604
  0
LINE
  8
0
 10
145.289
 20
143.604
 11
145.406
 21
143.246
  0
LINE
  8
0
 10
145.406
 20
143.246
 11
145.476
 21
142.876
  0
LINE
  8
0
 10
145.476
 20
142.876
 11
145.5
 21
142.5
  0
LINE
  8
0
 10
145.5
 20
142.5
 11
145.476
 21
142.124
  0
LINE
  8
0
 10
145.476
 20
142.124
 11
145.406
 21
141.754
  0
LINE
  8
0
 10
145.406
 20
141.754
 11
145.289
 21
141.396
  0
LINE
  8
0
 10
145.289
 20
141.396
 11
145.129
 21
141.055
  0
LINE
  8
0
 10
145.129
 20
141.055
 11
144.927
 21
140.737
  0
LINE
  8
0
 10
144.927
 20
140.737
 11
144.687
 21
140.446
  0
LINE
  8
0
 10
144.687
 20
140.446
 11
144.412
 21
140.188
  0
LINE
  8
0
 10
144.412
 20
140.188
 11
144.107
 21
139.967
  0
LINE
  8
0
 10
144.107
 20
139.967
 11
143.777
 21
139.786
  0
LINE
  8
0
 10
143.777
 20
139.786
 11
143.427
 21
139.647
  0
LINE
  8
0
 10
143.427
 20
139.647
 11
143.062
 21
139.553
  0
LINE
  8
0
 10
143.062
 20
139.553
 11
142.688
 21
139.506
  0
LINE
  8
0
 10
142.688
 20
139.506
 11
142.312
 21
139.506
  0
LINE
  8
0
 10
-142.688
 20
139.506
 11
-143.062
 21
139.553
  0
LINE
  8
0
 10
-143.062
 20
139.553
 11
-143.427
 21
139.647
  0
LINE
  8
0
 10
-143.427
 20
139.647
 11
-143.777
 21
139.786
  0
LINE
  8
0
 10
-143.777
 20
139.786
 11
-144.107
 21
139.967
  0
LINE
  8
0
 10
-144.107
 20
139.967
 11
-144.412
 21
140.188
  0
LINE
  8
0
 10
-144.412
 20
140.188
 11
-144.687
 21
140.446
  0
LINE
  8
0
 10
-144.687
 20
140.446
 11
-144.927
 21
140.737
  0
LINE
  8
0
 10
-144.927
 20
140.737
 11
-145.129
 21
141.055
  0
LINE
  8
0
 10
-145.129
 20
141.055
 11
-145.289
 21
141.396
  0
LINE
  8
0
 10
-145.289
 20
141.396
 11
-145.406
 21
141.754
  0
LINE
  8
0
 10
-145.406
 20
141.754
 11
-145.476
 21
142.124
  0
LINE
  8
0
 10
-145.476
 20
142.124
 11
-145.5
 21
142.5
  0
LINE
  8
0
 10
-145.5
 20
142.5
 11
-145.476
 21
142.876
  0
LINE
  8
0
 10
-145.476
 20
142.876
 11
-145.406
 21
143.246
  0
LINE
  8
0
 10
-145.406
 20
143.246
 11
-145.289
 21
143.604
  0
LINE
  8
0
 10
-145.289
 20
143.604
 11
-145.129
 21
143.945
  0
LINE
  8
0
 10
-145.129
 20
143.945
 11
-144.927
 21
144.263
  0
LINE
  8
0
 10
-144.927
 20
144.263
 11
-144.687
 21
144.554
  0
LINE
  8
0
 10
-144.687
 20
144.554
 11
-144.412
 21
144.812
  0
LINE
  8
0
 10
-144.412
 20
144.812
 11
-144.107
 21
145.033
  0
LINE
  8
0
 10
-144.107
 20
145.033
 11
-143.777
 21
145.214
  0
LINE
  8
0
 10
-143.777
 20
145.214
 11
-143.427
 21
145.353
  0
LINE
  8
0
 10
-143.427
 20
145.353
 11
-143.062
 21
145.447
  0
LINE
  8
0
 10
-143.062
 20
145.447
 11
-142.688
 21
145.494
  0
LINE
  8
0
 10
-142.688
 20
145.494
 11
-142.312
 21
145.494
  0
LINE
  8
0
 10
-142.312
 20
145.494
 11
-141.938
 21
145.447
  0
LINE
  8
0
 10
-141.938
 20
145.447
 11
-141.573
 21
145.353
  0
LINE
  8
0
 10
-141.573
 20
145.353
 11
-141.223
 21
145.214
  0
LINE
  8
0
 10
-141.223
 20
145.214
 11
-140.893
 21
145.033
  0
LINE
  8
0
 10
-140.893
 20
145.033
 11
-140.588
 21
144.812
  0
LINE
  8
0
 10
-140.588
 20
144.812
 11
-140.313
 21
144.554
  0
LINE
  8
0
 10
-140.313
 20
144.554
 11
-140.073
 21
144.263
  0
LINE
  8
0
 10
-140.073
 20
144.263
 11
-139.871
 21
143.945
  0
LINE
  8
0
 10
-139.871
 20
143.945
 11
-139.711
 21
143.604
  0
LINE
  8
0
 10
-139.711
 20
143.604
 11
-139.594
 21
143.246
  0
LINE
  8
0
 10
-139.594
 20
143.246
 11
-139.524
 21
142.876
  0
LINE
  8
0
 10
-139.524
 20
142.876
 11
-139.5
 21
142.5
  0
LINE
  8
0
 10
-139.5
 20
142.5
 11
-139.524
 21
142.124
  0
LINE
  8
0
 10
-139.524
 20
142.124
 11
-139.594
 21
141.754
  0
LINE
  8
0
 10
-139.594
 20
141.754
 11
-139.711
 21
141.396
  0
LINE
  8
0
 10
-139.711
 20
141.396
 11
-139.871
 21
141.055
  0
LINE
  8
0
 10
-139.871
 20
141.055
 11
-140.073
 21
140.737
  0
LINE
  8
0
 10
-140.073
 20
140.737
 11
-140.313
 21
140.446
  0
LINE
  8
0
 10
-140.313
 20
140.446
 11
-140.588
 21
140.188
  0
LINE
  8
0
 10
-140.588
 20
140.188
 11
-140.893
 21
139.967
  0
LINE
  8
0
 10
-140.893
 20
139.967
 11
-141.223
 21
139.786
  0
LINE
  8
0
 10
-141.223
 20
139.786
 11
-141.573
 21
139.647
  0
LINE
  8
0
 10
-141.573
 20
139.647
 11
-141.938
 21
139.553
  0
LINE
  8
0
 10
-141.938
 20
139.553
 11
-142.312
 21
139.506
  0
LINE
  8
0
 10
-142.312
 20
139.506
 11
-142.688
 21
139.506
  0
LINE
  8
0
 10
142.312
 20
-145.494
 11
141.938
 21
-145.447
  0
LINE
  8
0
 10
141.938
 20
-145.447
 11
141.573
 21
-145.353
  0
LINE
  8
0
 10
141.573
 20
-145.353
 11
141.223
 21
-145.214
  0
LINE
  8
0
 10
141.223
 20
-145.214
 11
140.893
 21
-145.033
  0
LINE
  8
0
 10
140.893
 20
-145.033
 11
140.588
 21
-144.812
  0
LINE
  8
0
 10
140.588
 20
-144.812
 11
140.313
 21
-144.554
  0
LINE
  8
0
 10
140.313
 20
-144.554
 11
140.073
 21
-144.263
  0
LINE
  8
0
 10
140.073
 20
-144.263
 11
139.871
 21
-143.945
  0
LINE
  8
0
 10
139.871
 20
-143.945
 11
139.711
 21
-143.604
  0
LINE
  8
0
 10
139.711
 20
-143.604
 11
139.594
 21
-143.246
  0
LINE
  8
0
 10
139.594
 20
-143.246
 11
139.524
 21
-142.876
  0
LINE
  8
0
 10
139.524
 20
-142.876
 11
139.5
 21
-142.5
  0
LINE
  8
0
 10
139.5
 20
-142.5
 11
139.524
 21
-142.124
  0
LINE
  8
0
 10
139.524
 20
-142.124
 11
139.594
 21
-141.754
  0
LINE
  8
0
 10
139.594
 20
-141.754
 11
139.711
 21
-141.396
  0
LINE
  8
0
 10
139.711
 20
-141.396
 11
139.871
 21
-141.055
  0
LINE
  8
0
 10
139.871
 20
-141.055
 11
140.073
 21
-140.737
  0
LINE
  8
0
 10
140.073
 20
-140.737
 11
140.313
 21
-140.446
  0
LINE
  8
0
 10
140.313
 20
-140.446
 11
140.588
 21
-140.188
  0
LINE
  8
0
 10
140.588
 20
-140.188
 11
140.893
 21
-139.967
  0
LINE
  8
0
 10
140.893
 20
-139.967
 11
141.223
 21
-139.786
  0
LINE
  8
0
 10
141.223
 20
-139.786
 11
141.573
 21
-139.647
  0
LINE
  8
0
 10
141.573
 20
-139.647
 11
141.938
 21
-139.553
  0
LINE
  8
0
 10
141.938
 20
-139.553
 11
142.312
 21
-139.506
  0
LINE
  8
0
 10
142.312
 20
-139.506
 11
142.688
 21
-139.506
  0
LINE
  8
0
 10
142.688
 20
-139.506
 11
143.062
 21
-139.553
  0
LINE
  8
0
 10
143.062
 20
-139.553
 11
143.427
 21
-139.647
  0
LINE
  8
0
 10
143.427
 20
-139.647
 11
143.777
 21
-139.786
  0
LINE
  8
0
 10
143.777
 20
-139.786
 11
144.107
 21
-139.967
  0
LINE
  8
0
 10
144.107
 20
-139.967
 11
144.412
 21
-140.188
  0
LINE
  8
0
 10
144.412
 20
-140.188
 11
144.687
 21
-140.446
  0
LINE
  8
0
 10
144.687
 20
-140.446
 11
144.927
 21
-140.737
  0
LINE
  8
0
 10
144.927
 20
-140.737
 11
145.129
 21
-141.055
  0
LINE
  8
0
 10
145.129
 20
-141.055
 11
145.289
 21
-141.396
  0
LINE
  8
0
 10
145.289
 20
-141.396
 11
145.406
 21
-141.754
  0
LINE
  8
0
 10
145.406
 20
-141.754
 11
145.476
 21
-142.124
  0
LINE
  8
0
 10
145.476
 20
-142.124
 11
145.5
 21
-142.5
  0
LINE
  8
0
 10
145.5
 20
-142.5
 11
145.476
 21
-142.876
  0
LINE
  8
0
 10
145.476
 20
-142.876
 11
145.406
 21
-143.246
  0
LINE
  8
0
 10
145.406
 20
-143.246
 11
145.289
 21
-143.604
  0
LINE
  8
0
 10
145.289
 20
-143.604
 11
145.129
 21
-143.945
  0
LINE
  8
0
 10
145.129
 20
-143.945
 11
144.927
 21
-144.263
  0
LINE
  8
0
 10
144.927
 20
-144.263
 11
144.687
 21
-144.554
  0
LINE
  8
0
 10
144.687
 20
-144.554
 11
144.412
 21
-144.812
  0
LINE
  8
0
 10
144.412
 20
-144.812
 11
144.107
 21
-145.033
  0
LINE
  8
0
 10
144.107
 20
-145.033
 11
143.777
 21
-145.214
  0
LINE
  8
0
 10
143.777
 20
-145.214
 11
143.427
 21
-145.353
  0
LINE
  8
0
 10
143.427
 20
-145.353
 11
143.062
 21
-145.447
  0
LINE
  8
0
 10
143.062
 20
-145.447
 11
142.688
 21
-145.494
  0
LINE
  8
0
 10
142.688
 20
-145.494
 11
142.312
 21
-145.494
  0
LINE
  8
0
 10
-142.688
 20
-145.494
 11
-143.062
 21
-145.447
  0
LINE
  8
0
 10
-143.062
 20
-145.447
 11
-143.427
 21
-145.353
  0
LINE
  8
0
 10
-143.427
 20
-145.353
 11
-143.777
 21
-145.214
  0
LINE
  8
0
 10
-143.777
 20
-145.214
 11
-144.107
 21
-145.033
  0
LINE
  8
0
 10
-144.107
 20
-145.033
 11
-144.412
 21
-144.812
  0
LINE
  8
0
 10
-144.412
 20
-144.812
 11
-144.687
 21
-144.554
  0
LINE
  8
0
 10
-144.687
 20
-144.554
 11
-144.927
 21
-144.263
  0
LINE
  8
0
 10
-144.927
 20
-144.263
 11
-145.129
 21
-143.945
  0
LINE
  8
0
 10
-145.129
 20
-143.945
 11
-145.289
 21
-143.604
  0
LINE
  8
0
 10
-145.289
 20
-143.604
 11
-145.406
 21
-143.246
  0
LINE
  8
0
 10
-145.406
 20
-143.246
 11
-145.476
 21
-142.876
  0
LINE
  8
0
 10
-145.476
 20
-142.876
 11
-145.5
 21
-142.5
  0
LINE
  8
0
 10
-145.5
 20
-142.5
 11
-145.476
 21
-142.124
  0
LINE
  8
0
 10
-145.476
 20
-142.124
 11
-145.406
 21
-141.754
  0
LINE
  8
0
 10
-145.406
 20
-141.754
 11
-145.289
 21
-141.396
  0
LINE
  8
0
 10
-145.289
 20
-141.396
 11
-145.129
 21
-141.055
  0
LINE
  8
0
 10
-145.129
 20
-141.055
 11
-144.927
 21
-140.737
  0
LINE
  8
0
 10
-144.927
 20
-140.737
 11
-144.687
 21
-140.446
  0
LINE
  8
0
 10
-144.687
 20
-140.446
 11
-144.412
 21
-140.188
  0
LINE
  8
0
 10
-144.412
 20
-140.188
 11
-144.107
 21
-139.967
  0
LINE
  8
0
 10
-144.107
 20
-139.967
 11
-143.777
 21
-139.786
  0
LINE
  8
0
 10
-143.777
 20
-139.786
 11
-143.427
 21
-139.647
  0
LINE
  8
0
 10
-143.427
 20
-139.647
 11
-143.062
 21
-139.553
  0
LINE
  8
0
 10
-143.062
 20
-139.553
 11
-142.688
 21
-139.506
  0
LINE
  8
0
 10
-142.688
 20
-139.506
 11
-142.312
 21
-139.506
  0
LINE
  8
0
 10
-142.312
 20
-139.506
 11
-141.938
 21
-139.553
  0
LINE
  8
0
 10
-141.938
 20
-139.553
 11
-141.573
 21
-139.647
  0
LINE
  8
0
 10
-141.573
 20
-139.647
 11
-141.223
 21
-139.786
  0
LINE
  8
0
 10
-141.223
 20
-139.786
 11
-140.893
 21
-139.967
  0
LINE
  8
0
 10
-140.893
 20
-139.967
 11
-140.588
 21
-140.188
  0
LINE
  8
0
 10
-140.588
 20
-140.188
 11
-140.313
 21
-140.446
  0
LINE
  8
0
 10
-140.313
 20
-140.446
 11
-140.073
 21
-140.737
  0
LINE
  8
0
 10
-140.073
 20
-140.737
 11
-139.871
 21
-141.055
  0
LINE
  8
0
 10
-139.871
 20
-141.055
 11
-139.711
 21
-141.396
  0
LINE
  8
0
 10
-139.711
 20
-141.396
 11
-139.594
 21
-141.754
  0
LINE
  8
0
 10
-139.594
 20
-141.754
 11
-139.524
 21
-142.124
  0
LINE
  8
0
 10
-139.524
 20
-142.124
 11
-139.5
 21
-142.5
  0
LINE
  8
0
 10
-139.5
 20
-142.5
 11
-139.524
 21
-142.876
  0
LINE
  8
0
 10
-139.524
 20
-142.876
 11
-139.594
 21
-143.246
  0
LINE
  8
0
 10
-139.594
 20
-143.246
 11
-139.711
 21
-143.604
  0
LINE
  8
0
 10
-139.711
 20
-143.604
 11
-139.871
 21
-143.945
  0
LINE
  8
0
 10
-139.871
 20
-143.945
 11
-140.073
 21
-144.263
  0
LINE
  8
0
 10
-140.073
 20
-144.263
 11
-140.313
 21
-144.554
  0
LINE
  8
0
 10
-140.313
 20
-144.554
 11
-140.588
 21
-144.812
  0
LINE
  8
0
 10
-140.588
 20
-144.812
 11
-140.893
 21
-145.033
  0
LINE
  8
0
 10
-140.893
 20
-145.033
 11
-141.223
 21
-145.214
  0
LINE
  8
0
 10
-141.223
 20
-145.214
 11
-141.573
 21
-145.353
  0
LINE
  8
0
 10
-141.573
 20
-145.353
 11
-141.938
 21
-145.447
  0
LINE
  8
0
 10
-141.938
 20
-145.447
 11
-142.312
 21
-145.494
  0
LINE
  8
0
 10
-142.312
 20
-145.494
 11
-142.688
 21
-145.494
  0
ENDSEC
  0
SECTION
  2
OBJECTS
  0
DICTIONARY
  0
ENDSEC
  0
EOF
