solid OpenSCAD_Model
  facet normal -0.904619 -0.426222 0
    outer loop
      vertex -101.978 1.1964 0
      vertex -102.152 1.5657 21
      vertex -102.152 1.5657 0
    endloop
  endfacet
  facet normal -0.904619 -0.426222 0
    outer loop
      vertex -102.152 1.5657 21
      vertex -101.978 1.1964 0
      vertex -101.978 1.1964 21
    endloop
  endfacet
  facet normal -0.843984 -0.536368 0
    outer loop
      vertex -102.152 1.5657 0
      vertex -102.371 1.9103 21
      vertex -102.371 1.9103 0
    endloop
  endfacet
  facet normal -0.843984 -0.536368 0
    outer loop
      vertex -102.371 1.9103 21
      vertex -102.152 1.5657 0
      vertex -102.152 1.5657 21
    endloop
  endfacet
  facet normal -0.367675 -0.929954 0
    outer loop
      vertex -103.996 3.09093 0
      vertex -103.616 2.94069 21
      vertex -103.996 3.09093 21
    endloop
  endfacet
  facet normal -0.367675 -0.929954 -0
    outer loop
      vertex -103.616 2.94069 21
      vertex -103.996 3.09093 0
      vertex -103.616 2.94069 0
    endloop
  endfacet
  facet normal 0.367675 -0.929954 0
    outer loop
      vertex -106.384 2.94069 0
      vertex -106.004 3.09093 21
      vertex -106.384 2.94069 21
    endloop
  endfacet
  facet normal 0.367675 -0.929954 0
    outer loop
      vertex -106.004 3.09093 21
      vertex -106.384 2.94069 0
      vertex -106.004 3.09093 0
    endloop
  endfacet
  facet normal 0.904619 -0.426222 0
    outer loop
      vertex -108.022 1.1964 21
      vertex -107.848 1.5657 0
      vertex -107.848 1.5657 21
    endloop
  endfacet
  facet normal 0.904619 -0.426222 0
    outer loop
      vertex -107.848 1.5657 0
      vertex -108.022 1.1964 21
      vertex -108.022 1.1964 0
    endloop
  endfacet
  facet normal -0.982502 0.186252 0
    outer loop
      vertex -101.852 -0.808242 0
      vertex -101.776 -0.407332 21
      vertex -101.776 -0.407332 0
    endloop
  endfacet
  facet normal -0.982502 0.186252 0
    outer loop
      vertex -101.776 -0.407332 21
      vertex -101.852 -0.808242 0
      vertex -101.852 -0.808242 21
    endloop
  endfacet
  facet normal -0.125325 -0.992116 0
    outer loop
      vertex -104.796 3.24359 0
      vertex -104.391 3.19243 21
      vertex -104.796 3.24359 21
    endloop
  endfacet
  facet normal -0.125325 -0.992116 -0
    outer loop
      vertex -104.391 3.19243 21
      vertex -104.796 3.24359 0
      vertex -104.391 3.19243 0
    endloop
  endfacet
  facet normal -0.586847 -0.809698 0
    outer loop
      vertex -103.259 2.74407 0
      vertex -102.928 2.50417 21
      vertex -103.259 2.74407 21
    endloop
  endfacet
  facet normal -0.586847 -0.809698 -0
    outer loop
      vertex -102.928 2.50417 21
      vertex -103.259 2.74407 0
      vertex -102.928 2.50417 0
    endloop
  endfacet
  facet normal 0.982502 -0.186252 0
    outer loop
      vertex -108.224 0.407332 21
      vertex -108.148 0.808242 0
      vertex -108.148 0.808242 21
    endloop
  endfacet
  facet normal 0.982502 -0.186252 0
    outer loop
      vertex -108.148 0.808242 0
      vertex -108.224 0.407332 21
      vertex -108.224 0.407332 0
    endloop
  endfacet
  facet normal 0.770706 -0.63719 0
    outer loop
      vertex -107.629 1.9103 21
      vertex -107.369 2.22478 0
      vertex -107.369 2.22478 21
    endloop
  endfacet
  facet normal 0.770706 -0.63719 0
    outer loop
      vertex -107.369 2.22478 0
      vertex -107.629 1.9103 21
      vertex -107.629 1.9103 0
    endloop
  endfacet
  facet normal 0.482427 -0.875936 0
    outer loop
      vertex -106.741 2.74407 0
      vertex -106.384 2.94069 21
      vertex -106.741 2.74407 21
    endloop
  endfacet
  facet normal 0.482427 -0.875936 0
    outer loop
      vertex -106.384 2.94069 21
      vertex -106.741 2.74407 0
      vertex -106.384 2.94069 0
    endloop
  endfacet
  facet normal 0.125325 -0.992116 0
    outer loop
      vertex -105.609 3.19243 0
      vertex -105.204 3.24359 21
      vertex -105.609 3.19243 21
    endloop
  endfacet
  facet normal 0.125325 -0.992116 0
    outer loop
      vertex -105.204 3.24359 21
      vertex -105.609 3.19243 0
      vertex -105.204 3.24359 0
    endloop
  endfacet
  facet normal -0.997969 -0.0637004 0
    outer loop
      vertex -101.75 0 0
      vertex -101.776 0.407332 21
      vertex -101.776 0.407332 0
    endloop
  endfacet
  facet normal -0.997969 -0.0637004 0
    outer loop
      vertex -101.776 0.407332 21
      vertex -101.75 0 0
      vertex -101.75 0 21
    endloop
  endfacet
  facet normal -0.951143 0.308751 0
    outer loop
      vertex -101.978 -1.1964 0
      vertex -101.852 -0.808242 21
      vertex -101.852 -0.808242 0
    endloop
  endfacet
  facet normal -0.951143 0.308751 0
    outer loop
      vertex -101.852 -0.808242 21
      vertex -101.978 -1.1964 0
      vertex -101.978 -1.1964 21
    endloop
  endfacet
  facet normal -0.586847 0.809698 0
    outer loop
      vertex -102.928 -2.50417 0
      vertex -103.259 -2.74407 21
      vertex -102.928 -2.50417 21
    endloop
  endfacet
  facet normal -0.586847 0.809698 0
    outer loop
      vertex -103.259 -2.74407 21
      vertex -102.928 -2.50417 0
      vertex -103.259 -2.74407 0
    endloop
  endfacet
  facet normal -0.951143 -0.308751 0
    outer loop
      vertex -101.852 0.808242 0
      vertex -101.978 1.1964 21
      vertex -101.978 1.1964 0
    endloop
  endfacet
  facet normal -0.951143 -0.308751 0
    outer loop
      vertex -101.978 1.1964 21
      vertex -101.852 0.808242 0
      vertex -101.852 0.808242 21
    endloop
  endfacet
  facet normal -0.685183 -0.728371 0
    outer loop
      vertex -102.928 2.50417 0
      vertex -102.631 2.22478 21
      vertex -102.928 2.50417 21
    endloop
  endfacet
  facet normal -0.685183 -0.728371 -0
    outer loop
      vertex -102.631 2.22478 21
      vertex -102.928 2.50417 0
      vertex -102.631 2.22478 0
    endloop
  endfacet
  facet normal -0.770706 -0.63719 0
    outer loop
      vertex -102.371 1.9103 0
      vertex -102.631 2.22478 21
      vertex -102.631 2.22478 0
    endloop
  endfacet
  facet normal -0.770706 -0.63719 0
    outer loop
      vertex -102.631 2.22478 21
      vertex -102.371 1.9103 0
      vertex -102.371 1.9103 21
    endloop
  endfacet
  facet normal 0 -1 0
    outer loop
      vertex -105.204 3.24359 0
      vertex -104.796 3.24359 21
      vertex -105.204 3.24359 21
    endloop
  endfacet
  facet normal 0 -1 -0
    outer loop
      vertex -104.796 3.24359 21
      vertex -105.204 3.24359 0
      vertex -104.796 3.24359 0
    endloop
  endfacet
  facet normal -0.248877 -0.968535 0
    outer loop
      vertex -104.391 3.19243 0
      vertex -103.996 3.09093 21
      vertex -104.391 3.19243 21
    endloop
  endfacet
  facet normal -0.248877 -0.968535 -0
    outer loop
      vertex -103.996 3.09093 21
      vertex -104.391 3.19243 0
      vertex -103.996 3.09093 0
    endloop
  endfacet
  facet normal -0.482427 -0.875936 0
    outer loop
      vertex -103.616 2.94069 0
      vertex -103.259 2.74407 21
      vertex -103.616 2.94069 21
    endloop
  endfacet
  facet normal -0.482427 -0.875936 -0
    outer loop
      vertex -103.259 2.74407 21
      vertex -103.616 2.94069 0
      vertex -103.259 2.74407 0
    endloop
  endfacet
  facet normal 0.997969 -0.0637004 0
    outer loop
      vertex -108.25 0 21
      vertex -108.224 0.407332 0
      vertex -108.224 0.407332 21
    endloop
  endfacet
  facet normal 0.997969 -0.0637004 0
    outer loop
      vertex -108.224 0.407332 0
      vertex -108.25 0 21
      vertex -108.25 0 0
    endloop
  endfacet
  facet normal 0 0 1
    outer loop
      vertex 108.022 1.1964 21
      vertex 112 2 21
      vertex 111.961 2.62667 21
    endloop
  endfacet
  facet normal 0 0 1
    outer loop
      vertex 112 2 21
      vertex 108.25 0 21
      vertex 112 -2 21
    endloop
  endfacet
  facet normal 0 0 1
    outer loop
      vertex 107.848 1.5657 21
      vertex 111.961 2.62667 21
      vertex 111.843 3.24345 21
    endloop
  endfacet
  facet normal -0 0 1
    outer loop
      vertex 108.224 -0.407332 21
      vertex 112 -2 21
      vertex 108.25 0 21
    endloop
  endfacet
  facet normal 0 0 1
    outer loop
      vertex 107.848 1.5657 21
      vertex 111.843 3.24345 21
      vertex 111.649 3.84062 21
    endloop
  endfacet
  facet normal -0 0 1
    outer loop
      vertex 108.148 -0.808242 21
      vertex 112 -2 21
      vertex 108.224 -0.407332 21
    endloop
  endfacet
  facet normal 0 0 1
    outer loop
      vertex 107.629 1.9103 21
      vertex 111.649 3.84062 21
      vertex 111.382 4.40877 21
    endloop
  endfacet
  facet normal -0 0 1
    outer loop
      vertex 108.022 -1.1964 21
      vertex 112 -2 21
      vertex 108.148 -0.808242 21
    endloop
  endfacet
  facet normal 0 0 1
    outer loop
      vertex 107.629 1.9103 21
      vertex 111.382 4.40877 21
      vertex 111.045 4.93893 21
    endloop
  endfacet
  facet normal 0 0 1
    outer loop
      vertex 112 -2 21
      vertex 108.022 -1.1964 21
      vertex 111.961 -2.62667 21
    endloop
  endfacet
  facet normal 0 0 1
    outer loop
      vertex 107.369 2.22478 21
      vertex 111.045 4.93893 21
      vertex 110.645 5.42274 21
    endloop
  endfacet
  facet normal -0 0 1
    outer loop
      vertex 107.848 -1.5657 21
      vertex 111.961 -2.62667 21
      vertex 108.022 -1.1964 21
    endloop
  endfacet
  facet normal 0 0 1
    outer loop
      vertex 107.369 2.22478 21
      vertex 110.645 5.42274 21
      vertex 110.187 5.85257 21
    endloop
  endfacet
  facet normal 0 0 1
    outer loop
      vertex 111.961 -2.62667 21
      vertex 107.848 -1.5657 21
      vertex 111.843 -3.24345 21
    endloop
  endfacet
  facet normal 0 0 1
    outer loop
      vertex 107.072 2.50417 21
      vertex 110.187 5.85257 21
      vertex 109.679 6.22164 21
    endloop
  endfacet
  facet normal 0 0 1
    outer loop
      vertex 111.843 -3.24345 21
      vertex 107.848 -1.5657 21
      vertex 111.649 -3.84062 21
    endloop
  endfacet
  facet normal 0 0 1
    outer loop
      vertex 107.072 2.50417 21
      vertex 109.679 6.22164 21
      vertex 109.129 6.52413 21
    endloop
  endfacet
  facet normal -0 0 1
    outer loop
      vertex 107.629 -1.9103 21
      vertex 111.649 -3.84062 21
      vertex 107.848 -1.5657 21
    endloop
  endfacet
  facet normal 0 0 1
    outer loop
      vertex 106.741 2.74407 21
      vertex 109.129 6.52413 21
      vertex 108.545 6.75528 21
    endloop
  endfacet
  facet normal 0 0 1
    outer loop
      vertex 111.649 -3.84062 21
      vertex 107.629 -1.9103 21
      vertex 111.382 -4.40877 21
    endloop
  endfacet
  facet normal 0 0 1
    outer loop
      vertex 111.382 -4.40877 21
      vertex 107.629 -1.9103 21
      vertex 111.045 -4.93893 21
    endloop
  endfacet
  facet normal 0 0 1
    outer loop
      vertex 112 2 21
      vertex 108.224 0.407332 21
      vertex 108.25 0 21
    endloop
  endfacet
  facet normal 0 0 1
    outer loop
      vertex 112 2 21
      vertex 108.148 0.808242 21
      vertex 108.224 0.407332 21
    endloop
  endfacet
  facet normal 0 0 1
    outer loop
      vertex 112 2 21
      vertex 108.022 1.1964 21
      vertex 108.148 0.808242 21
    endloop
  endfacet
  facet normal 0 0 1
    outer loop
      vertex 106.741 2.74407 21
      vertex 108.545 6.75528 21
      vertex 107.937 6.91144 21
    endloop
  endfacet
  facet normal 0 0 1
    outer loop
      vertex 111.961 2.62667 21
      vertex 107.848 1.5657 21
      vertex 108.022 1.1964 21
    endloop
  endfacet
  facet normal 0 0 1
    outer loop
      vertex 111.649 3.84062 21
      vertex 107.629 1.9103 21
      vertex 107.848 1.5657 21
    endloop
  endfacet
  facet normal 0 0 1
    outer loop
      vertex 111.045 4.93893 21
      vertex 107.369 2.22478 21
      vertex 107.629 1.9103 21
    endloop
  endfacet
  facet normal 0 0 1
    outer loop
      vertex 106.384 2.94069 21
      vertex 107.937 6.91144 21
      vertex 107.314 6.99013 21
    endloop
  endfacet
  facet normal 0 0 1
    outer loop
      vertex 110.187 5.85257 21
      vertex 107.072 2.50417 21
      vertex 107.369 2.22478 21
    endloop
  endfacet
  facet normal 0 0 1
    outer loop
      vertex 109.129 6.52413 21
      vertex 106.741 2.74407 21
      vertex 107.072 2.50417 21
    endloop
  endfacet
  facet normal 0 0 1
    outer loop
      vertex 107.937 6.91144 21
      vertex 106.384 2.94069 21
      vertex 106.741 2.74407 21
    endloop
  endfacet
  facet normal 0 0 1
    outer loop
      vertex 107.314 6.99013 21
      vertex 106.004 3.09093 21
      vertex 106.384 2.94069 21
    endloop
  endfacet
  facet normal 0 0 1
    outer loop
      vertex 107.314 6.99013 21
      vertex 105.609 3.19243 21
      vertex 106.004 3.09093 21
    endloop
  endfacet
  facet normal 0 0 1
    outer loop
      vertex 107.314 6.99013 21
      vertex 105.204 3.24359 21
      vertex 105.609 3.19243 21
    endloop
  endfacet
  facet normal 0 0 1
    outer loop
      vertex 107.314 6.99013 21
      vertex 104.796 3.24359 21
      vertex 105.204 3.24359 21
    endloop
  endfacet
  facet normal 0 0 1
    outer loop
      vertex 107.314 6.99013 21
      vertex 104.391 3.19243 21
      vertex 104.796 3.24359 21
    endloop
  endfacet
  facet normal 0 0 1
    outer loop
      vertex 107.314 6.99013 21
      vertex 103.996 3.09093 21
      vertex 104.391 3.19243 21
    endloop
  endfacet
  facet normal 0 0 1
    outer loop
      vertex 107.314 6.99013 21
      vertex 103.616 2.94069 21
      vertex 103.996 3.09093 21
    endloop
  endfacet
  facet normal 0 0 1
    outer loop
      vertex 107.314 6.99013 21
      vertex 103.259 2.74407 21
      vertex 103.616 2.94069 21
    endloop
  endfacet
  facet normal 0 0 1
    outer loop
      vertex 107.314 6.99013 21
      vertex 102.928 2.50417 21
      vertex 103.259 2.74407 21
    endloop
  endfacet
  facet normal 0 0 1
    outer loop
      vertex 107.314 6.99013 21
      vertex 102.631 2.22478 21
      vertex 102.928 2.50417 21
    endloop
  endfacet
  facet normal 0 0 1
    outer loop
      vertex 101.776 0.407332 21
      vertex -101.75 0 21
      vertex 101.75 0 21
    endloop
  endfacet
  facet normal 0 0 1
    outer loop
      vertex -101.776 0.407332 21
      vertex 101.776 0.407332 21
      vertex 101.852 0.808242 21
    endloop
  endfacet
  facet normal 0 0 1
    outer loop
      vertex -101.852 0.808242 21
      vertex 101.852 0.808242 21
      vertex 101.978 1.1964 21
    endloop
  endfacet
  facet normal 0 0 1
    outer loop
      vertex -101.978 1.1964 21
      vertex 101.978 1.1964 21
      vertex 102.152 1.5657 21
    endloop
  endfacet
  facet normal 0 0 1
    outer loop
      vertex -102.152 1.5657 21
      vertex 102.152 1.5657 21
      vertex 102.371 1.9103 21
    endloop
  endfacet
  facet normal 0 0 1
    outer loop
      vertex -102.371 1.9103 21
      vertex 102.371 1.9103 21
      vertex 102.631 2.22478 21
    endloop
  endfacet
  facet normal 0 0 1
    outer loop
      vertex -102.631 2.22478 21
      vertex 102.631 2.22478 21
      vertex 107.314 6.99013 21
    endloop
  endfacet
  facet normal 0 0 1
    outer loop
      vertex 101.776 0.407332 21
      vertex -101.776 0.407332 21
      vertex -101.75 0 21
    endloop
  endfacet
  facet normal 0 0 1
    outer loop
      vertex 101.852 0.808242 21
      vertex -101.852 0.808242 21
      vertex -101.776 0.407332 21
    endloop
  endfacet
  facet normal 0 0 1
    outer loop
      vertex 101.978 1.1964 21
      vertex -101.978 1.1964 21
      vertex -101.852 0.808242 21
    endloop
  endfacet
  facet normal 0 0 1
    outer loop
      vertex 102.152 1.5657 21
      vertex -102.152 1.5657 21
      vertex -101.978 1.1964 21
    endloop
  endfacet
  facet normal 0 0 1
    outer loop
      vertex 102.371 1.9103 21
      vertex -102.371 1.9103 21
      vertex -102.152 1.5657 21
    endloop
  endfacet
  facet normal 0 0 1
    outer loop
      vertex 102.631 2.22478 21
      vertex -102.631 2.22478 21
      vertex -102.371 1.9103 21
    endloop
  endfacet
  facet normal -0 0 1
    outer loop
      vertex -107.314 6.99013 21
      vertex -102.631 2.22478 21
      vertex 107.314 6.99013 21
    endloop
  endfacet
  facet normal 0 0 1
    outer loop
      vertex -102.631 2.22478 21
      vertex -107.314 6.99013 21
      vertex -102.928 2.50417 21
    endloop
  endfacet
  facet normal 0 0 1
    outer loop
      vertex -102.928 2.50417 21
      vertex -107.314 6.99013 21
      vertex -103.259 2.74407 21
    endloop
  endfacet
  facet normal 0 0 1
    outer loop
      vertex -103.259 2.74407 21
      vertex -107.314 6.99013 21
      vertex -103.616 2.94069 21
    endloop
  endfacet
  facet normal 0 0 1
    outer loop
      vertex -103.616 2.94069 21
      vertex -107.314 6.99013 21
      vertex -103.996 3.09093 21
    endloop
  endfacet
  facet normal 0 0 1
    outer loop
      vertex -103.996 3.09093 21
      vertex -107.314 6.99013 21
      vertex -104.391 3.19243 21
    endloop
  endfacet
  facet normal 0 0 1
    outer loop
      vertex -104.391 3.19243 21
      vertex -107.314 6.99013 21
      vertex -104.796 3.24359 21
    endloop
  endfacet
  facet normal 0 0 1
    outer loop
      vertex -104.796 3.24359 21
      vertex -107.314 6.99013 21
      vertex -105.204 3.24359 21
    endloop
  endfacet
  facet normal 0 0 1
    outer loop
      vertex -107.314 6.99013 21
      vertex -105.609 3.19243 21
      vertex -105.204 3.24359 21
    endloop
  endfacet
  facet normal 0 0 1
    outer loop
      vertex -107.314 6.99013 21
      vertex -106.004 3.09093 21
      vertex -105.609 3.19243 21
    endloop
  endfacet
  facet normal 0 0 1
    outer loop
      vertex -107.314 6.99013 21
      vertex -106.384 2.94069 21
      vertex -106.004 3.09093 21
    endloop
  endfacet
  facet normal -0 0 1
    outer loop
      vertex -107.937 6.91144 21
      vertex -106.384 2.94069 21
      vertex -107.314 6.99013 21
    endloop
  endfacet
  facet normal 0 0 1
    outer loop
      vertex -106.384 2.94069 21
      vertex -107.937 6.91144 21
      vertex -106.741 2.74407 21
    endloop
  endfacet
  facet normal -0 0 1
    outer loop
      vertex -108.545 6.75528 21
      vertex -106.741 2.74407 21
      vertex -107.937 6.91144 21
    endloop
  endfacet
  facet normal -0 0 1
    outer loop
      vertex -109.129 6.52413 21
      vertex -106.741 2.74407 21
      vertex -108.545 6.75528 21
    endloop
  endfacet
  facet normal 0 0 1
    outer loop
      vertex -106.741 2.74407 21
      vertex -109.129 6.52413 21
      vertex -107.072 2.50417 21
    endloop
  endfacet
  facet normal -0 0 1
    outer loop
      vertex -109.679 6.22164 21
      vertex -107.072 2.50417 21
      vertex -109.129 6.52413 21
    endloop
  endfacet
  facet normal -0 0 1
    outer loop
      vertex -110.187 5.85257 21
      vertex -107.072 2.50417 21
      vertex -109.679 6.22164 21
    endloop
  endfacet
  facet normal 0 0 1
    outer loop
      vertex -107.072 2.50417 21
      vertex -110.187 5.85257 21
      vertex -107.369 2.22478 21
    endloop
  endfacet
  facet normal -0 0 1
    outer loop
      vertex -110.645 5.42274 21
      vertex -107.369 2.22478 21
      vertex -110.187 5.85257 21
    endloop
  endfacet
  facet normal -0 0 1
    outer loop
      vertex -111.045 4.93893 21
      vertex -107.369 2.22478 21
      vertex -110.645 5.42274 21
    endloop
  endfacet
  facet normal 0 0 1
    outer loop
      vertex -107.369 2.22478 21
      vertex -111.045 4.93893 21
      vertex -107.629 1.9103 21
    endloop
  endfacet
  facet normal -0 0 1
    outer loop
      vertex 107.369 -2.22478 21
      vertex 111.045 -4.93893 21
      vertex 107.629 -1.9103 21
    endloop
  endfacet
  facet normal 0 0 1
    outer loop
      vertex 111.045 -4.93893 21
      vertex 107.369 -2.22478 21
      vertex 110.645 -5.42274 21
    endloop
  endfacet
  facet normal 0 0 1
    outer loop
      vertex 110.645 -5.42274 21
      vertex 107.369 -2.22478 21
      vertex 110.187 -5.85257 21
    endloop
  endfacet
  facet normal -0 0 1
    outer loop
      vertex 107.072 -2.50417 21
      vertex 110.187 -5.85257 21
      vertex 107.369 -2.22478 21
    endloop
  endfacet
  facet normal 0 0 1
    outer loop
      vertex 110.187 -5.85257 21
      vertex 107.072 -2.50417 21
      vertex 109.679 -6.22164 21
    endloop
  endfacet
  facet normal 0 0 1
    outer loop
      vertex 109.679 -6.22164 21
      vertex 107.072 -2.50417 21
      vertex 109.129 -6.52413 21
    endloop
  endfacet
  facet normal -0 0 1
    outer loop
      vertex 106.741 -2.74407 21
      vertex 109.129 -6.52413 21
      vertex 107.072 -2.50417 21
    endloop
  endfacet
  facet normal 0 0 1
    outer loop
      vertex 109.129 -6.52413 21
      vertex 106.741 -2.74407 21
      vertex 108.545 -6.75528 21
    endloop
  endfacet
  facet normal 0 0 1
    outer loop
      vertex 108.545 -6.75528 21
      vertex 106.741 -2.74407 21
      vertex 107.937 -6.91144 21
    endloop
  endfacet
  facet normal -0 0 1
    outer loop
      vertex 106.384 -2.94069 21
      vertex 107.937 -6.91144 21
      vertex 106.741 -2.74407 21
    endloop
  endfacet
  facet normal 0 0 1
    outer loop
      vertex 107.937 -6.91144 21
      vertex 106.384 -2.94069 21
      vertex 107.314 -6.99013 21
    endloop
  endfacet
  facet normal -0 0 1
    outer loop
      vertex 106.004 -3.09093 21
      vertex 107.314 -6.99013 21
      vertex 106.384 -2.94069 21
    endloop
  endfacet
  facet normal -0 0 1
    outer loop
      vertex 105.609 -3.19243 21
      vertex 107.314 -6.99013 21
      vertex 106.004 -3.09093 21
    endloop
  endfacet
  facet normal -0 0 1
    outer loop
      vertex 105.204 -3.24359 21
      vertex 107.314 -6.99013 21
      vertex 105.609 -3.19243 21
    endloop
  endfacet
  facet normal -0 0 1
    outer loop
      vertex 104.796 -3.24359 21
      vertex 107.314 -6.99013 21
      vertex 105.204 -3.24359 21
    endloop
  endfacet
  facet normal 0 0 1
    outer loop
      vertex 104.391 -3.19243 21
      vertex 107.314 -6.99013 21
      vertex 104.796 -3.24359 21
    endloop
  endfacet
  facet normal 0 0 1
    outer loop
      vertex 103.996 -3.09093 21
      vertex 107.314 -6.99013 21
      vertex 104.391 -3.19243 21
    endloop
  endfacet
  facet normal 0 0 1
    outer loop
      vertex 103.616 -2.94069 21
      vertex 107.314 -6.99013 21
      vertex 103.996 -3.09093 21
    endloop
  endfacet
  facet normal 0 0 1
    outer loop
      vertex 103.259 -2.74407 21
      vertex 107.314 -6.99013 21
      vertex 103.616 -2.94069 21
    endloop
  endfacet
  facet normal 0 0 1
    outer loop
      vertex 102.928 -2.50417 21
      vertex 107.314 -6.99013 21
      vertex 103.259 -2.74407 21
    endloop
  endfacet
  facet normal 0 0 1
    outer loop
      vertex 102.631 -2.22478 21
      vertex 107.314 -6.99013 21
      vertex 102.928 -2.50417 21
    endloop
  endfacet
  facet normal -0 0 1
    outer loop
      vertex -101.75 0 21
      vertex 101.776 -0.407332 21
      vertex 101.75 0 21
    endloop
  endfacet
  facet normal 0 0 1
    outer loop
      vertex -101.776 -0.407332 21
      vertex 101.776 -0.407332 21
      vertex -101.75 0 21
    endloop
  endfacet
  facet normal 0 0 1
    outer loop
      vertex 101.776 -0.407332 21
      vertex -101.776 -0.407332 21
      vertex 101.852 -0.808242 21
    endloop
  endfacet
  facet normal 0 0 1
    outer loop
      vertex -101.852 -0.808242 21
      vertex 101.852 -0.808242 21
      vertex -101.776 -0.407332 21
    endloop
  endfacet
  facet normal 0 0 1
    outer loop
      vertex 101.852 -0.808242 21
      vertex -101.852 -0.808242 21
      vertex 101.978 -1.1964 21
    endloop
  endfacet
  facet normal 0 0 1
    outer loop
      vertex -101.978 -1.1964 21
      vertex 101.978 -1.1964 21
      vertex -101.852 -0.808242 21
    endloop
  endfacet
  facet normal 0 0 1
    outer loop
      vertex 101.978 -1.1964 21
      vertex -101.978 -1.1964 21
      vertex 102.152 -1.5657 21
    endloop
  endfacet
  facet normal 0 0 1
    outer loop
      vertex -102.152 -1.5657 21
      vertex 102.152 -1.5657 21
      vertex -101.978 -1.1964 21
    endloop
  endfacet
  facet normal 0 0 1
    outer loop
      vertex 102.152 -1.5657 21
      vertex -102.152 -1.5657 21
      vertex 102.371 -1.9103 21
    endloop
  endfacet
  facet normal 0 0 1
    outer loop
      vertex -102.371 -1.9103 21
      vertex 102.371 -1.9103 21
      vertex -102.152 -1.5657 21
    endloop
  endfacet
  facet normal 0 0 1
    outer loop
      vertex 102.371 -1.9103 21
      vertex -102.371 -1.9103 21
      vertex 102.631 -2.22478 21
    endloop
  endfacet
  facet normal 0 0 1
    outer loop
      vertex -102.631 -2.22478 21
      vertex 102.631 -2.22478 21
      vertex -102.371 -1.9103 21
    endloop
  endfacet
  facet normal 0 0 1
    outer loop
      vertex 102.631 -2.22478 21
      vertex -102.631 -2.22478 21
      vertex 107.314 -6.99013 21
    endloop
  endfacet
  facet normal 0 0 1
    outer loop
      vertex -107.314 -6.99013 21
      vertex -102.631 -2.22478 21
      vertex -102.928 -2.50417 21
    endloop
  endfacet
  facet normal 0 0 1
    outer loop
      vertex -107.314 -6.99013 21
      vertex -102.928 -2.50417 21
      vertex -103.259 -2.74407 21
    endloop
  endfacet
  facet normal 0 0 1
    outer loop
      vertex -107.314 -6.99013 21
      vertex -103.259 -2.74407 21
      vertex -103.616 -2.94069 21
    endloop
  endfacet
  facet normal 0 0 1
    outer loop
      vertex -107.314 -6.99013 21
      vertex -103.616 -2.94069 21
      vertex -103.996 -3.09093 21
    endloop
  endfacet
  facet normal 0 0 1
    outer loop
      vertex -107.314 -6.99013 21
      vertex -103.996 -3.09093 21
      vertex -104.391 -3.19243 21
    endloop
  endfacet
  facet normal 0 0 1
    outer loop
      vertex -107.314 -6.99013 21
      vertex -104.391 -3.19243 21
      vertex -104.796 -3.24359 21
    endloop
  endfacet
  facet normal 0 0 1
    outer loop
      vertex -107.314 -6.99013 21
      vertex -104.796 -3.24359 21
      vertex -105.204 -3.24359 21
    endloop
  endfacet
  facet normal 0 0 1
    outer loop
      vertex -102.631 -2.22478 21
      vertex -107.314 -6.99013 21
      vertex 107.314 -6.99013 21
    endloop
  endfacet
  facet normal 0 0 1
    outer loop
      vertex -105.609 -3.19243 21
      vertex -107.314 -6.99013 21
      vertex -105.204 -3.24359 21
    endloop
  endfacet
  facet normal 0 0 1
    outer loop
      vertex -106.004 -3.09093 21
      vertex -107.314 -6.99013 21
      vertex -105.609 -3.19243 21
    endloop
  endfacet
  facet normal 0 0 1
    outer loop
      vertex -106.384 -2.94069 21
      vertex -107.314 -6.99013 21
      vertex -106.004 -3.09093 21
    endloop
  endfacet
  facet normal 0 0 1
    outer loop
      vertex -107.937 -6.91144 21
      vertex -106.384 -2.94069 21
      vertex -106.741 -2.74407 21
    endloop
  endfacet
  facet normal 0 0 1
    outer loop
      vertex -109.129 -6.52413 21
      vertex -106.741 -2.74407 21
      vertex -107.072 -2.50417 21
    endloop
  endfacet
  facet normal 0 0 1
    outer loop
      vertex -110.187 -5.85257 21
      vertex -107.072 -2.50417 21
      vertex -107.369 -2.22478 21
    endloop
  endfacet
  facet normal 0 0 1
    outer loop
      vertex -111.045 -4.93893 21
      vertex -107.369 -2.22478 21
      vertex -107.629 -1.9103 21
    endloop
  endfacet
  facet normal 0 0 1
    outer loop
      vertex -111.649 -3.84062 21
      vertex -107.629 -1.9103 21
      vertex -107.848 -1.5657 21
    endloop
  endfacet
  facet normal 0 0 1
    outer loop
      vertex -106.384 -2.94069 21
      vertex -107.937 -6.91144 21
      vertex -107.314 -6.99013 21
    endloop
  endfacet
  facet normal 0 0 1
    outer loop
      vertex -111.961 -2.62667 21
      vertex -107.848 -1.5657 21
      vertex -108.022 -1.1964 21
    endloop
  endfacet
  facet normal 0 0 1
    outer loop
      vertex -112 -2 21
      vertex -108.022 -1.1964 21
      vertex -108.148 -0.808242 21
    endloop
  endfacet
  facet normal 0 0 1
    outer loop
      vertex -112 -2 21
      vertex -108.148 -0.808242 21
      vertex -108.224 -0.407332 21
    endloop
  endfacet
  facet normal 0 0 1
    outer loop
      vertex -112 -2 21
      vertex -108.224 -0.407332 21
      vertex -108.25 0 21
    endloop
  endfacet
  facet normal 0 0 1
    outer loop
      vertex -106.741 -2.74407 21
      vertex -108.545 -6.75528 21
      vertex -107.937 -6.91144 21
    endloop
  endfacet
  facet normal -0 0 1
    outer loop
      vertex -111.382 4.40877 21
      vertex -107.629 1.9103 21
      vertex -111.045 4.93893 21
    endloop
  endfacet
  facet normal -0 0 1
    outer loop
      vertex -111.649 3.84062 21
      vertex -107.629 1.9103 21
      vertex -111.382 4.40877 21
    endloop
  endfacet
  facet normal 0 0 1
    outer loop
      vertex -112 -2 21
      vertex -108.25 0 21
      vertex -112 2 21
    endloop
  endfacet
  facet normal 0 0 1
    outer loop
      vertex -107.629 1.9103 21
      vertex -111.649 3.84062 21
      vertex -107.848 1.5657 21
    endloop
  endfacet
  facet normal 0 0 1
    outer loop
      vertex -108.022 -1.1964 21
      vertex -112 -2 21
      vertex -111.961 -2.62667 21
    endloop
  endfacet
  facet normal -0 0 1
    outer loop
      vertex -111.843 3.24345 21
      vertex -107.848 1.5657 21
      vertex -111.649 3.84062 21
    endloop
  endfacet
  facet normal 0 0 1
    outer loop
      vertex -106.741 -2.74407 21
      vertex -109.129 -6.52413 21
      vertex -108.545 -6.75528 21
    endloop
  endfacet
  facet normal -0 0 1
    outer loop
      vertex -111.961 2.62667 21
      vertex -107.848 1.5657 21
      vertex -111.843 3.24345 21
    endloop
  endfacet
  facet normal 0 0 1
    outer loop
      vertex -107.072 -2.50417 21
      vertex -109.679 -6.22164 21
      vertex -109.129 -6.52413 21
    endloop
  endfacet
  facet normal 0 0 1
    outer loop
      vertex -107.848 1.5657 21
      vertex -111.961 2.62667 21
      vertex -108.022 1.1964 21
    endloop
  endfacet
  facet normal 0 0 1
    outer loop
      vertex -107.072 -2.50417 21
      vertex -110.187 -5.85257 21
      vertex -109.679 -6.22164 21
    endloop
  endfacet
  facet normal -0 0 1
    outer loop
      vertex -112 2 21
      vertex -108.022 1.1964 21
      vertex -111.961 2.62667 21
    endloop
  endfacet
  facet normal 0 0 1
    outer loop
      vertex -107.369 -2.22478 21
      vertex -110.645 -5.42274 21
      vertex -110.187 -5.85257 21
    endloop
  endfacet
  facet normal 0 0 1
    outer loop
      vertex -108.022 1.1964 21
      vertex -112 2 21
      vertex -108.148 0.808242 21
    endloop
  endfacet
  facet normal 0 0 1
    outer loop
      vertex -107.369 -2.22478 21
      vertex -111.045 -4.93893 21
      vertex -110.645 -5.42274 21
    endloop
  endfacet
  facet normal 0 0 1
    outer loop
      vertex -108.148 0.808242 21
      vertex -112 2 21
      vertex -108.224 0.407332 21
    endloop
  endfacet
  facet normal 0 0 1
    outer loop
      vertex -107.629 -1.9103 21
      vertex -111.382 -4.40877 21
      vertex -111.045 -4.93893 21
    endloop
  endfacet
  facet normal 0 0 1
    outer loop
      vertex -108.224 0.407332 21
      vertex -112 2 21
      vertex -108.25 0 21
    endloop
  endfacet
  facet normal 0 0 1
    outer loop
      vertex -107.629 -1.9103 21
      vertex -111.649 -3.84062 21
      vertex -111.382 -4.40877 21
    endloop
  endfacet
  facet normal 0 0 1
    outer loop
      vertex -107.848 -1.5657 21
      vertex -111.843 -3.24345 21
      vertex -111.649 -3.84062 21
    endloop
  endfacet
  facet normal 0 0 1
    outer loop
      vertex -107.848 -1.5657 21
      vertex -111.961 -2.62667 21
      vertex -111.843 -3.24345 21
    endloop
  endfacet
  facet normal 0.951143 -0.308751 0
    outer loop
      vertex -108.148 0.808242 21
      vertex -108.022 1.1964 0
      vertex -108.022 1.1964 21
    endloop
  endfacet
  facet normal 0.951143 -0.308751 0
    outer loop
      vertex -108.022 1.1964 0
      vertex -108.148 0.808242 21
      vertex -108.148 0.808242 0
    endloop
  endfacet
  facet normal 0.843984 -0.536368 0
    outer loop
      vertex -107.848 1.5657 21
      vertex -107.629 1.9103 0
      vertex -107.629 1.9103 21
    endloop
  endfacet
  facet normal 0.843984 -0.536368 0
    outer loop
      vertex -107.629 1.9103 0
      vertex -107.848 1.5657 21
      vertex -107.848 1.5657 0
    endloop
  endfacet
  facet normal 0.248877 -0.968535 0
    outer loop
      vertex -106.004 3.09093 0
      vertex -105.609 3.19243 21
      vertex -106.004 3.09093 21
    endloop
  endfacet
  facet normal 0.248877 -0.968535 0
    outer loop
      vertex -105.609 3.19243 21
      vertex -106.004 3.09093 0
      vertex -105.609 3.19243 0
    endloop
  endfacet
  facet normal 0.586847 -0.809698 0
    outer loop
      vertex -107.072 2.50417 0
      vertex -106.741 2.74407 21
      vertex -107.072 2.50417 21
    endloop
  endfacet
  facet normal 0.586847 -0.809698 0
    outer loop
      vertex -106.741 2.74407 21
      vertex -107.072 2.50417 0
      vertex -106.741 2.74407 0
    endloop
  endfacet
  facet normal 0.685183 -0.728371 0
    outer loop
      vertex -107.369 2.22478 0
      vertex -107.072 2.50417 21
      vertex -107.369 2.22478 21
    endloop
  endfacet
  facet normal 0.685183 -0.728371 0
    outer loop
      vertex -107.072 2.50417 21
      vertex -107.369 2.22478 0
      vertex -107.072 2.50417 0
    endloop
  endfacet
  facet normal -0.843984 0.536368 0
    outer loop
      vertex -102.371 -1.9103 0
      vertex -102.152 -1.5657 21
      vertex -102.152 -1.5657 0
    endloop
  endfacet
  facet normal -0.843984 0.536368 0
    outer loop
      vertex -102.152 -1.5657 21
      vertex -102.371 -1.9103 0
      vertex -102.371 -1.9103 21
    endloop
  endfacet
  facet normal 0 1 -0
    outer loop
      vertex -104.796 -3.24359 0
      vertex -105.204 -3.24359 21
      vertex -104.796 -3.24359 21
    endloop
  endfacet
  facet normal 0 1 0
    outer loop
      vertex -105.204 -3.24359 21
      vertex -104.796 -3.24359 0
      vertex -105.204 -3.24359 0
    endloop
  endfacet
  facet normal 0.951143 0.308751 0
    outer loop
      vertex -108.022 -1.1964 21
      vertex -108.148 -0.808242 0
      vertex -108.148 -0.808242 21
    endloop
  endfacet
  facet normal 0.951143 0.308751 0
    outer loop
      vertex -108.148 -0.808242 0
      vertex -108.022 -1.1964 21
      vertex -108.022 -1.1964 0
    endloop
  endfacet
  facet normal 0.904619 0.426222 0
    outer loop
      vertex -107.848 -1.5657 21
      vertex -108.022 -1.1964 0
      vertex -108.022 -1.1964 21
    endloop
  endfacet
  facet normal 0.904619 0.426222 0
    outer loop
      vertex -108.022 -1.1964 0
      vertex -107.848 -1.5657 21
      vertex -107.848 -1.5657 0
    endloop
  endfacet
  facet normal -0.125325 0.992116 0
    outer loop
      vertex -104.391 -3.19243 0
      vertex -104.796 -3.24359 21
      vertex -104.391 -3.19243 21
    endloop
  endfacet
  facet normal -0.125325 0.992116 0
    outer loop
      vertex -104.796 -3.24359 21
      vertex -104.391 -3.19243 0
      vertex -104.796 -3.24359 0
    endloop
  endfacet
  facet normal -0.982502 -0.186252 0
    outer loop
      vertex -101.776 0.407332 0
      vertex -101.852 0.808242 21
      vertex -101.852 0.808242 0
    endloop
  endfacet
  facet normal -0.982502 -0.186252 0
    outer loop
      vertex -101.852 0.808242 21
      vertex -101.776 0.407332 0
      vertex -101.776 0.407332 21
    endloop
  endfacet
  facet normal -0.997969 0.0637004 0
    outer loop
      vertex -101.776 -0.407332 0
      vertex -101.75 0 21
      vertex -101.75 0 0
    endloop
  endfacet
  facet normal -0.997969 0.0637004 0
    outer loop
      vertex -101.75 0 21
      vertex -101.776 -0.407332 0
      vertex -101.776 -0.407332 21
    endloop
  endfacet
  facet normal 0.367675 0.929954 -0
    outer loop
      vertex -106.004 -3.09093 0
      vertex -106.384 -2.94069 21
      vertex -106.004 -3.09093 21
    endloop
  endfacet
  facet normal 0.367675 0.929954 0
    outer loop
      vertex -106.384 -2.94069 21
      vertex -106.004 -3.09093 0
      vertex -106.384 -2.94069 0
    endloop
  endfacet
  facet normal 0 0 -1
    outer loop
      vertex 108.022 -1.1964 0
      vertex 112 -2 0
      vertex 111.961 -2.62667 0
    endloop
  endfacet
  facet normal 0 0 -1
    outer loop
      vertex 112 -2 0
      vertex 108.25 0 0
      vertex 112 2 0
    endloop
  endfacet
  facet normal 0 0 -1
    outer loop
      vertex 107.848 -1.5657 0
      vertex 111.961 -2.62667 0
      vertex 111.843 -3.24345 0
    endloop
  endfacet
  facet normal 0 0 -1
    outer loop
      vertex 108.224 0.407332 0
      vertex 112 2 0
      vertex 108.25 0 0
    endloop
  endfacet
  facet normal 0 0 -1
    outer loop
      vertex 107.848 -1.5657 0
      vertex 111.843 -3.24345 0
      vertex 111.649 -3.84062 0
    endloop
  endfacet
  facet normal 0 0 -1
    outer loop
      vertex 108.148 0.808242 0
      vertex 112 2 0
      vertex 108.224 0.407332 0
    endloop
  endfacet
  facet normal 0 0 -1
    outer loop
      vertex 107.629 -1.9103 0
      vertex 111.649 -3.84062 0
      vertex 111.382 -4.40877 0
    endloop
  endfacet
  facet normal 0 0 -1
    outer loop
      vertex 108.022 1.1964 0
      vertex 112 2 0
      vertex 108.148 0.808242 0
    endloop
  endfacet
  facet normal 0 0 -1
    outer loop
      vertex 107.629 -1.9103 0
      vertex 111.382 -4.40877 0
      vertex 111.045 -4.93893 0
    endloop
  endfacet
  facet normal -0 0 -1
    outer loop
      vertex 112 2 0
      vertex 108.022 1.1964 0
      vertex 111.961 2.62667 0
    endloop
  endfacet
  facet normal 0 0 -1
    outer loop
      vertex 107.369 -2.22478 0
      vertex 111.045 -4.93893 0
      vertex 110.645 -5.42274 0
    endloop
  endfacet
  facet normal 0 0 -1
    outer loop
      vertex 107.848 1.5657 0
      vertex 111.961 2.62667 0
      vertex 108.022 1.1964 0
    endloop
  endfacet
  facet normal 0 0 -1
    outer loop
      vertex 107.369 -2.22478 0
      vertex 110.645 -5.42274 0
      vertex 110.187 -5.85257 0
    endloop
  endfacet
  facet normal -0 0 -1
    outer loop
      vertex 111.961 2.62667 0
      vertex 107.848 1.5657 0
      vertex 111.843 3.24345 0
    endloop
  endfacet
  facet normal 0 0 -1
    outer loop
      vertex 107.072 -2.50417 0
      vertex 110.187 -5.85257 0
      vertex 109.679 -6.22164 0
    endloop
  endfacet
  facet normal -0 0 -1
    outer loop
      vertex 111.843 3.24345 0
      vertex 107.848 1.5657 0
      vertex 111.649 3.84062 0
    endloop
  endfacet
  facet normal 0 0 -1
    outer loop
      vertex 107.072 -2.50417 0
      vertex 109.679 -6.22164 0
      vertex 109.129 -6.52413 0
    endloop
  endfacet
  facet normal 0 0 -1
    outer loop
      vertex 107.629 1.9103 0
      vertex 111.649 3.84062 0
      vertex 107.848 1.5657 0
    endloop
  endfacet
  facet normal 0 0 -1
    outer loop
      vertex 106.741 -2.74407 0
      vertex 109.129 -6.52413 0
      vertex 108.545 -6.75528 0
    endloop
  endfacet
  facet normal -0 0 -1
    outer loop
      vertex 111.649 3.84062 0
      vertex 107.629 1.9103 0
      vertex 111.382 4.40877 0
    endloop
  endfacet
  facet normal -0 0 -1
    outer loop
      vertex 111.382 4.40877 0
      vertex 107.629 1.9103 0
      vertex 111.045 4.93893 0
    endloop
  endfacet
  facet normal 0 0 -1
    outer loop
      vertex 112 -2 0
      vertex 108.224 -0.407332 0
      vertex 108.25 0 0
    endloop
  endfacet
  facet normal 0 0 -1
    outer loop
      vertex 112 -2 0
      vertex 108.148 -0.808242 0
      vertex 108.224 -0.407332 0
    endloop
  endfacet
  facet normal 0 0 -1
    outer loop
      vertex 112 -2 0
      vertex 108.022 -1.1964 0
      vertex 108.148 -0.808242 0
    endloop
  endfacet
  facet normal 0 0 -1
    outer loop
      vertex 106.741 -2.74407 0
      vertex 108.545 -6.75528 0
      vertex 107.937 -6.91144 0
    endloop
  endfacet
  facet normal 0 0 -1
    outer loop
      vertex 111.961 -2.62667 0
      vertex 107.848 -1.5657 0
      vertex 108.022 -1.1964 0
    endloop
  endfacet
  facet normal 0 0 -1
    outer loop
      vertex 111.649 -3.84062 0
      vertex 107.629 -1.9103 0
      vertex 107.848 -1.5657 0
    endloop
  endfacet
  facet normal 0 0 -1
    outer loop
      vertex 111.045 -4.93893 0
      vertex 107.369 -2.22478 0
      vertex 107.629 -1.9103 0
    endloop
  endfacet
  facet normal 0 0 -1
    outer loop
      vertex 106.384 -2.94069 0
      vertex 107.937 -6.91144 0
      vertex 107.314 -6.99013 0
    endloop
  endfacet
  facet normal 0 0 -1
    outer loop
      vertex 110.187 -5.85257 0
      vertex 107.072 -2.50417 0
      vertex 107.369 -2.22478 0
    endloop
  endfacet
  facet normal 0 0 -1
    outer loop
      vertex 109.129 -6.52413 0
      vertex 106.741 -2.74407 0
      vertex 107.072 -2.50417 0
    endloop
  endfacet
  facet normal 0 0 -1
    outer loop
      vertex 107.937 -6.91144 0
      vertex 106.384 -2.94069 0
      vertex 106.741 -2.74407 0
    endloop
  endfacet
  facet normal 0 0 -1
    outer loop
      vertex 107.314 -6.99013 0
      vertex 106.004 -3.09093 0
      vertex 106.384 -2.94069 0
    endloop
  endfacet
  facet normal 0 0 -1
    outer loop
      vertex 107.314 -6.99013 0
      vertex 105.609 -3.19243 0
      vertex 106.004 -3.09093 0
    endloop
  endfacet
  facet normal 0 0 -1
    outer loop
      vertex 107.314 -6.99013 0
      vertex 105.204 -3.24359 0
      vertex 105.609 -3.19243 0
    endloop
  endfacet
  facet normal 0 0 -1
    outer loop
      vertex 107.314 -6.99013 0
      vertex 104.796 -3.24359 0
      vertex 105.204 -3.24359 0
    endloop
  endfacet
  facet normal 0 0 -1
    outer loop
      vertex 107.314 -6.99013 0
      vertex 104.391 -3.19243 0
      vertex 104.796 -3.24359 0
    endloop
  endfacet
  facet normal 0 0 -1
    outer loop
      vertex 107.314 -6.99013 0
      vertex 103.996 -3.09093 0
      vertex 104.391 -3.19243 0
    endloop
  endfacet
  facet normal 0 0 -1
    outer loop
      vertex 107.314 -6.99013 0
      vertex 103.616 -2.94069 0
      vertex 103.996 -3.09093 0
    endloop
  endfacet
  facet normal 0 0 -1
    outer loop
      vertex 107.314 -6.99013 0
      vertex 103.259 -2.74407 0
      vertex 103.616 -2.94069 0
    endloop
  endfacet
  facet normal 0 0 -1
    outer loop
      vertex 107.314 -6.99013 0
      vertex 102.928 -2.50417 0
      vertex 103.259 -2.74407 0
    endloop
  endfacet
  facet normal 0 0 -1
    outer loop
      vertex 107.314 -6.99013 0
      vertex 102.631 -2.22478 0
      vertex 102.928 -2.50417 0
    endloop
  endfacet
  facet normal 0 0 -1
    outer loop
      vertex 101.776 -0.407332 0
      vertex -101.75 0 0
      vertex 101.75 0 0
    endloop
  endfacet
  facet normal 0 0 -1
    outer loop
      vertex -101.776 -0.407332 0
      vertex 101.776 -0.407332 0
      vertex 101.852 -0.808242 0
    endloop
  endfacet
  facet normal 0 0 -1
    outer loop
      vertex -101.852 -0.808242 0
      vertex 101.852 -0.808242 0
      vertex 101.978 -1.1964 0
    endloop
  endfacet
  facet normal 0 0 -1
    outer loop
      vertex -101.978 -1.1964 0
      vertex 101.978 -1.1964 0
      vertex 102.152 -1.5657 0
    endloop
  endfacet
  facet normal 0 0 -1
    outer loop
      vertex -102.152 -1.5657 0
      vertex 102.152 -1.5657 0
      vertex 102.371 -1.9103 0
    endloop
  endfacet
  facet normal 0 0 -1
    outer loop
      vertex -102.371 -1.9103 0
      vertex 102.371 -1.9103 0
      vertex 102.631 -2.22478 0
    endloop
  endfacet
  facet normal 0 0 -1
    outer loop
      vertex -102.631 -2.22478 0
      vertex 102.631 -2.22478 0
      vertex 107.314 -6.99013 0
    endloop
  endfacet
  facet normal 0 0 -1
    outer loop
      vertex 101.776 -0.407332 0
      vertex -101.776 -0.407332 0
      vertex -101.75 0 0
    endloop
  endfacet
  facet normal 0 0 -1
    outer loop
      vertex 101.852 -0.808242 0
      vertex -101.852 -0.808242 0
      vertex -101.776 -0.407332 0
    endloop
  endfacet
  facet normal 0 0 -1
    outer loop
      vertex 101.978 -1.1964 0
      vertex -101.978 -1.1964 0
      vertex -101.852 -0.808242 0
    endloop
  endfacet
  facet normal 0 0 -1
    outer loop
      vertex 102.152 -1.5657 0
      vertex -102.152 -1.5657 0
      vertex -101.978 -1.1964 0
    endloop
  endfacet
  facet normal 0 0 -1
    outer loop
      vertex 102.371 -1.9103 0
      vertex -102.371 -1.9103 0
      vertex -102.152 -1.5657 0
    endloop
  endfacet
  facet normal 0 0 -1
    outer loop
      vertex 102.631 -2.22478 0
      vertex -102.631 -2.22478 0
      vertex -102.371 -1.9103 0
    endloop
  endfacet
  facet normal 0 0 -1
    outer loop
      vertex -107.314 -6.99013 0
      vertex -102.631 -2.22478 0
      vertex 107.314 -6.99013 0
    endloop
  endfacet
  facet normal 0 0 -1
    outer loop
      vertex -102.631 -2.22478 0
      vertex -107.314 -6.99013 0
      vertex -102.928 -2.50417 0
    endloop
  endfacet
  facet normal 0 0 -1
    outer loop
      vertex -102.928 -2.50417 0
      vertex -107.314 -6.99013 0
      vertex -103.259 -2.74407 0
    endloop
  endfacet
  facet normal 0 0 -1
    outer loop
      vertex -103.259 -2.74407 0
      vertex -107.314 -6.99013 0
      vertex -103.616 -2.94069 0
    endloop
  endfacet
  facet normal 0 0 -1
    outer loop
      vertex -103.616 -2.94069 0
      vertex -107.314 -6.99013 0
      vertex -103.996 -3.09093 0
    endloop
  endfacet
  facet normal 0 0 -1
    outer loop
      vertex -103.996 -3.09093 0
      vertex -107.314 -6.99013 0
      vertex -104.391 -3.19243 0
    endloop
  endfacet
  facet normal 0 0 -1
    outer loop
      vertex -104.391 -3.19243 0
      vertex -107.314 -6.99013 0
      vertex -104.796 -3.24359 0
    endloop
  endfacet
  facet normal -0 0 -1
    outer loop
      vertex -104.796 -3.24359 0
      vertex -107.314 -6.99013 0
      vertex -105.204 -3.24359 0
    endloop
  endfacet
  facet normal 0 0 -1
    outer loop
      vertex -107.314 -6.99013 0
      vertex -105.609 -3.19243 0
      vertex -105.204 -3.24359 0
    endloop
  endfacet
  facet normal 0 0 -1
    outer loop
      vertex -107.314 -6.99013 0
      vertex -106.004 -3.09093 0
      vertex -105.609 -3.19243 0
    endloop
  endfacet
  facet normal 0 0 -1
    outer loop
      vertex -107.314 -6.99013 0
      vertex -106.384 -2.94069 0
      vertex -106.004 -3.09093 0
    endloop
  endfacet
  facet normal 0 0 -1
    outer loop
      vertex -107.937 -6.91144 0
      vertex -106.384 -2.94069 0
      vertex -107.314 -6.99013 0
    endloop
  endfacet
  facet normal -0 0 -1
    outer loop
      vertex -106.384 -2.94069 0
      vertex -107.937 -6.91144 0
      vertex -106.741 -2.74407 0
    endloop
  endfacet
  facet normal 0 0 -1
    outer loop
      vertex -108.545 -6.75528 0
      vertex -106.741 -2.74407 0
      vertex -107.937 -6.91144 0
    endloop
  endfacet
  facet normal 0 0 -1
    outer loop
      vertex -109.129 -6.52413 0
      vertex -106.741 -2.74407 0
      vertex -108.545 -6.75528 0
    endloop
  endfacet
  facet normal -0 0 -1
    outer loop
      vertex -106.741 -2.74407 0
      vertex -109.129 -6.52413 0
      vertex -107.072 -2.50417 0
    endloop
  endfacet
  facet normal 0 0 -1
    outer loop
      vertex -109.679 -6.22164 0
      vertex -107.072 -2.50417 0
      vertex -109.129 -6.52413 0
    endloop
  endfacet
  facet normal 0 0 -1
    outer loop
      vertex -110.187 -5.85257 0
      vertex -107.072 -2.50417 0
      vertex -109.679 -6.22164 0
    endloop
  endfacet
  facet normal -0 0 -1
    outer loop
      vertex -107.072 -2.50417 0
      vertex -110.187 -5.85257 0
      vertex -107.369 -2.22478 0
    endloop
  endfacet
  facet normal 0 0 -1
    outer loop
      vertex -110.645 -5.42274 0
      vertex -107.369 -2.22478 0
      vertex -110.187 -5.85257 0
    endloop
  endfacet
  facet normal 0 0 -1
    outer loop
      vertex -111.045 -4.93893 0
      vertex -107.369 -2.22478 0
      vertex -110.645 -5.42274 0
    endloop
  endfacet
  facet normal -0 0 -1
    outer loop
      vertex -107.369 -2.22478 0
      vertex -111.045 -4.93893 0
      vertex -107.629 -1.9103 0
    endloop
  endfacet
  facet normal 0 0 -1
    outer loop
      vertex 107.369 2.22478 0
      vertex 111.045 4.93893 0
      vertex 107.629 1.9103 0
    endloop
  endfacet
  facet normal -0 0 -1
    outer loop
      vertex 111.045 4.93893 0
      vertex 107.369 2.22478 0
      vertex 110.645 5.42274 0
    endloop
  endfacet
  facet normal -0 0 -1
    outer loop
      vertex 110.645 5.42274 0
      vertex 107.369 2.22478 0
      vertex 110.187 5.85257 0
    endloop
  endfacet
  facet normal 0 0 -1
    outer loop
      vertex 107.072 2.50417 0
      vertex 110.187 5.85257 0
      vertex 107.369 2.22478 0
    endloop
  endfacet
  facet normal -0 0 -1
    outer loop
      vertex 110.187 5.85257 0
      vertex 107.072 2.50417 0
      vertex 109.679 6.22164 0
    endloop
  endfacet
  facet normal -0 0 -1
    outer loop
      vertex 109.679 6.22164 0
      vertex 107.072 2.50417 0
      vertex 109.129 6.52413 0
    endloop
  endfacet
  facet normal 0 0 -1
    outer loop
      vertex 106.741 2.74407 0
      vertex 109.129 6.52413 0
      vertex 107.072 2.50417 0
    endloop
  endfacet
  facet normal -0 0 -1
    outer loop
      vertex 109.129 6.52413 0
      vertex 106.741 2.74407 0
      vertex 108.545 6.75528 0
    endloop
  endfacet
  facet normal -0 0 -1
    outer loop
      vertex 108.545 6.75528 0
      vertex 106.741 2.74407 0
      vertex 107.937 6.91144 0
    endloop
  endfacet
  facet normal 0 0 -1
    outer loop
      vertex 106.384 2.94069 0
      vertex 107.937 6.91144 0
      vertex 106.741 2.74407 0
    endloop
  endfacet
  facet normal -0 0 -1
    outer loop
      vertex 107.937 6.91144 0
      vertex 106.384 2.94069 0
      vertex 107.314 6.99013 0
    endloop
  endfacet
  facet normal 0 0 -1
    outer loop
      vertex 106.004 3.09093 0
      vertex 107.314 6.99013 0
      vertex 106.384 2.94069 0
    endloop
  endfacet
  facet normal 0 0 -1
    outer loop
      vertex 105.609 3.19243 0
      vertex 107.314 6.99013 0
      vertex 106.004 3.09093 0
    endloop
  endfacet
  facet normal 0 0 -1
    outer loop
      vertex 105.204 3.24359 0
      vertex 107.314 6.99013 0
      vertex 105.609 3.19243 0
    endloop
  endfacet
  facet normal 0 0 -1
    outer loop
      vertex 104.796 3.24359 0
      vertex 107.314 6.99013 0
      vertex 105.204 3.24359 0
    endloop
  endfacet
  facet normal 0 0 -1
    outer loop
      vertex 104.391 3.19243 0
      vertex 107.314 6.99013 0
      vertex 104.796 3.24359 0
    endloop
  endfacet
  facet normal 0 0 -1
    outer loop
      vertex 103.996 3.09093 0
      vertex 107.314 6.99013 0
      vertex 104.391 3.19243 0
    endloop
  endfacet
  facet normal 0 0 -1
    outer loop
      vertex 103.616 2.94069 0
      vertex 107.314 6.99013 0
      vertex 103.996 3.09093 0
    endloop
  endfacet
  facet normal 0 0 -1
    outer loop
      vertex 103.259 2.74407 0
      vertex 107.314 6.99013 0
      vertex 103.616 2.94069 0
    endloop
  endfacet
  facet normal 0 0 -1
    outer loop
      vertex 102.928 2.50417 0
      vertex 107.314 6.99013 0
      vertex 103.259 2.74407 0
    endloop
  endfacet
  facet normal 0 0 -1
    outer loop
      vertex 102.631 2.22478 0
      vertex 107.314 6.99013 0
      vertex 102.928 2.50417 0
    endloop
  endfacet
  facet normal 0 0 -1
    outer loop
      vertex -101.75 0 0
      vertex 101.776 0.407332 0
      vertex 101.75 0 0
    endloop
  endfacet
  facet normal 0 0 -1
    outer loop
      vertex -101.776 0.407332 0
      vertex 101.776 0.407332 0
      vertex -101.75 0 0
    endloop
  endfacet
  facet normal 0 0 -1
    outer loop
      vertex 101.776 0.407332 0
      vertex -101.776 0.407332 0
      vertex 101.852 0.808242 0
    endloop
  endfacet
  facet normal 0 0 -1
    outer loop
      vertex -101.852 0.808242 0
      vertex 101.852 0.808242 0
      vertex -101.776 0.407332 0
    endloop
  endfacet
  facet normal 0 0 -1
    outer loop
      vertex 101.852 0.808242 0
      vertex -101.852 0.808242 0
      vertex 101.978 1.1964 0
    endloop
  endfacet
  facet normal 0 0 -1
    outer loop
      vertex -101.978 1.1964 0
      vertex 101.978 1.1964 0
      vertex -101.852 0.808242 0
    endloop
  endfacet
  facet normal 0 0 -1
    outer loop
      vertex 101.978 1.1964 0
      vertex -101.978 1.1964 0
      vertex 102.152 1.5657 0
    endloop
  endfacet
  facet normal 0 0 -1
    outer loop
      vertex -102.152 1.5657 0
      vertex 102.152 1.5657 0
      vertex -101.978 1.1964 0
    endloop
  endfacet
  facet normal 0 0 -1
    outer loop
      vertex 102.152 1.5657 0
      vertex -102.152 1.5657 0
      vertex 102.371 1.9103 0
    endloop
  endfacet
  facet normal 0 0 -1
    outer loop
      vertex -102.371 1.9103 0
      vertex 102.371 1.9103 0
      vertex -102.152 1.5657 0
    endloop
  endfacet
  facet normal 0 0 -1
    outer loop
      vertex 102.371 1.9103 0
      vertex -102.371 1.9103 0
      vertex 102.631 2.22478 0
    endloop
  endfacet
  facet normal 0 0 -1
    outer loop
      vertex -102.631 2.22478 0
      vertex 102.631 2.22478 0
      vertex -102.371 1.9103 0
    endloop
  endfacet
  facet normal 0 0 -1
    outer loop
      vertex 102.631 2.22478 0
      vertex -102.631 2.22478 0
      vertex 107.314 6.99013 0
    endloop
  endfacet
  facet normal 0 0 -1
    outer loop
      vertex -107.314 6.99013 0
      vertex -102.631 2.22478 0
      vertex -102.928 2.50417 0
    endloop
  endfacet
  facet normal 0 0 -1
    outer loop
      vertex -107.314 6.99013 0
      vertex -102.928 2.50417 0
      vertex -103.259 2.74407 0
    endloop
  endfacet
  facet normal 0 0 -1
    outer loop
      vertex -107.314 6.99013 0
      vertex -103.259 2.74407 0
      vertex -103.616 2.94069 0
    endloop
  endfacet
  facet normal 0 0 -1
    outer loop
      vertex -107.314 6.99013 0
      vertex -103.616 2.94069 0
      vertex -103.996 3.09093 0
    endloop
  endfacet
  facet normal 0 0 -1
    outer loop
      vertex -107.314 6.99013 0
      vertex -103.996 3.09093 0
      vertex -104.391 3.19243 0
    endloop
  endfacet
  facet normal 0 0 -1
    outer loop
      vertex -107.314 6.99013 0
      vertex -104.391 3.19243 0
      vertex -104.796 3.24359 0
    endloop
  endfacet
  facet normal 0 0 -1
    outer loop
      vertex -107.314 6.99013 0
      vertex -104.796 3.24359 0
      vertex -105.204 3.24359 0
    endloop
  endfacet
  facet normal 0 0 -1
    outer loop
      vertex -102.631 2.22478 0
      vertex -107.314 6.99013 0
      vertex 107.314 6.99013 0
    endloop
  endfacet
  facet normal 0 0 -1
    outer loop
      vertex -105.609 3.19243 0
      vertex -107.314 6.99013 0
      vertex -105.204 3.24359 0
    endloop
  endfacet
  facet normal 0 0 -1
    outer loop
      vertex -106.004 3.09093 0
      vertex -107.314 6.99013 0
      vertex -105.609 3.19243 0
    endloop
  endfacet
  facet normal 0 0 -1
    outer loop
      vertex -106.384 2.94069 0
      vertex -107.314 6.99013 0
      vertex -106.004 3.09093 0
    endloop
  endfacet
  facet normal 0 0 -1
    outer loop
      vertex -107.937 6.91144 0
      vertex -106.384 2.94069 0
      vertex -106.741 2.74407 0
    endloop
  endfacet
  facet normal 0 0 -1
    outer loop
      vertex -109.129 6.52413 0
      vertex -106.741 2.74407 0
      vertex -107.072 2.50417 0
    endloop
  endfacet
  facet normal 0 0 -1
    outer loop
      vertex -110.187 5.85257 0
      vertex -107.072 2.50417 0
      vertex -107.369 2.22478 0
    endloop
  endfacet
  facet normal 0 0 -1
    outer loop
      vertex -111.045 4.93893 0
      vertex -107.369 2.22478 0
      vertex -107.629 1.9103 0
    endloop
  endfacet
  facet normal 0 0 -1
    outer loop
      vertex -111.649 3.84062 0
      vertex -107.629 1.9103 0
      vertex -107.848 1.5657 0
    endloop
  endfacet
  facet normal 0 0 -1
    outer loop
      vertex -106.384 2.94069 0
      vertex -107.937 6.91144 0
      vertex -107.314 6.99013 0
    endloop
  endfacet
  facet normal 0 0 -1
    outer loop
      vertex -111.961 2.62667 0
      vertex -107.848 1.5657 0
      vertex -108.022 1.1964 0
    endloop
  endfacet
  facet normal 0 0 -1
    outer loop
      vertex -112 2 0
      vertex -108.022 1.1964 0
      vertex -108.148 0.808242 0
    endloop
  endfacet
  facet normal 0 0 -1
    outer loop
      vertex -112 2 0
      vertex -108.148 0.808242 0
      vertex -108.224 0.407332 0
    endloop
  endfacet
  facet normal 0 0 -1
    outer loop
      vertex -112 2 0
      vertex -108.224 0.407332 0
      vertex -108.25 0 0
    endloop
  endfacet
  facet normal 0 0 -1
    outer loop
      vertex -106.741 2.74407 0
      vertex -108.545 6.75528 0
      vertex -107.937 6.91144 0
    endloop
  endfacet
  facet normal 0 0 -1
    outer loop
      vertex -111.382 -4.40877 0
      vertex -107.629 -1.9103 0
      vertex -111.045 -4.93893 0
    endloop
  endfacet
  facet normal 0 0 -1
    outer loop
      vertex -111.649 -3.84062 0
      vertex -107.629 -1.9103 0
      vertex -111.382 -4.40877 0
    endloop
  endfacet
  facet normal 0 0 -1
    outer loop
      vertex -112 2 0
      vertex -108.25 0 0
      vertex -112 -2 0
    endloop
  endfacet
  facet normal -0 0 -1
    outer loop
      vertex -107.629 -1.9103 0
      vertex -111.649 -3.84062 0
      vertex -107.848 -1.5657 0
    endloop
  endfacet
  facet normal 0 0 -1
    outer loop
      vertex -108.022 1.1964 0
      vertex -112 2 0
      vertex -111.961 2.62667 0
    endloop
  endfacet
  facet normal 0 0 -1
    outer loop
      vertex -111.843 -3.24345 0
      vertex -107.848 -1.5657 0
      vertex -111.649 -3.84062 0
    endloop
  endfacet
  facet normal 0 0 -1
    outer loop
      vertex -106.741 2.74407 0
      vertex -109.129 6.52413 0
      vertex -108.545 6.75528 0
    endloop
  endfacet
  facet normal 0 0 -1
    outer loop
      vertex -111.961 -2.62667 0
      vertex -107.848 -1.5657 0
      vertex -111.843 -3.24345 0
    endloop
  endfacet
  facet normal 0 0 -1
    outer loop
      vertex -107.072 2.50417 0
      vertex -109.679 6.22164 0
      vertex -109.129 6.52413 0
    endloop
  endfacet
  facet normal -0 0 -1
    outer loop
      vertex -107.848 -1.5657 0
      vertex -111.961 -2.62667 0
      vertex -108.022 -1.1964 0
    endloop
  endfacet
  facet normal 0 0 -1
    outer loop
      vertex -107.072 2.50417 0
      vertex -110.187 5.85257 0
      vertex -109.679 6.22164 0
    endloop
  endfacet
  facet normal 0 0 -1
    outer loop
      vertex -112 -2 0
      vertex -108.022 -1.1964 0
      vertex -111.961 -2.62667 0
    endloop
  endfacet
  facet normal 0 0 -1
    outer loop
      vertex -107.369 2.22478 0
      vertex -110.645 5.42274 0
      vertex -110.187 5.85257 0
    endloop
  endfacet
  facet normal -0 0 -1
    outer loop
      vertex -108.022 -1.1964 0
      vertex -112 -2 0
      vertex -108.148 -0.808242 0
    endloop
  endfacet
  facet normal 0 0 -1
    outer loop
      vertex -107.369 2.22478 0
      vertex -111.045 4.93893 0
      vertex -110.645 5.42274 0
    endloop
  endfacet
  facet normal -0 0 -1
    outer loop
      vertex -108.148 -0.808242 0
      vertex -112 -2 0
      vertex -108.224 -0.407332 0
    endloop
  endfacet
  facet normal 0 0 -1
    outer loop
      vertex -107.629 1.9103 0
      vertex -111.382 4.40877 0
      vertex -111.045 4.93893 0
    endloop
  endfacet
  facet normal -0 0 -1
    outer loop
      vertex -108.224 -0.407332 0
      vertex -112 -2 0
      vertex -108.25 0 0
    endloop
  endfacet
  facet normal 0 0 -1
    outer loop
      vertex -107.629 1.9103 0
      vertex -111.649 3.84062 0
      vertex -111.382 4.40877 0
    endloop
  endfacet
  facet normal 0 0 -1
    outer loop
      vertex -107.848 1.5657 0
      vertex -111.843 3.24345 0
      vertex -111.649 3.84062 0
    endloop
  endfacet
  facet normal 0 0 -1
    outer loop
      vertex -107.848 1.5657 0
      vertex -111.961 2.62667 0
      vertex -111.843 3.24345 0
    endloop
  endfacet
  facet normal -0.248877 0.968535 0
    outer loop
      vertex -103.996 -3.09093 0
      vertex -104.391 -3.19243 21
      vertex -103.996 -3.09093 21
    endloop
  endfacet
  facet normal -0.248877 0.968535 0
    outer loop
      vertex -104.391 -3.19243 21
      vertex -103.996 -3.09093 0
      vertex -104.391 -3.19243 0
    endloop
  endfacet
  facet normal -0.482427 0.875936 0
    outer loop
      vertex -103.259 -2.74407 0
      vertex -103.616 -2.94069 21
      vertex -103.259 -2.74407 21
    endloop
  endfacet
  facet normal -0.482427 0.875936 0
    outer loop
      vertex -103.616 -2.94069 21
      vertex -103.259 -2.74407 0
      vertex -103.616 -2.94069 0
    endloop
  endfacet
  facet normal -0.685183 0.728371 0
    outer loop
      vertex -102.631 -2.22478 0
      vertex -102.928 -2.50417 21
      vertex -102.631 -2.22478 21
    endloop
  endfacet
  facet normal -0.685183 0.728371 0
    outer loop
      vertex -102.928 -2.50417 21
      vertex -102.631 -2.22478 0
      vertex -102.928 -2.50417 0
    endloop
  endfacet
  facet normal -0.904619 0.426222 0
    outer loop
      vertex -102.152 -1.5657 0
      vertex -101.978 -1.1964 21
      vertex -101.978 -1.1964 0
    endloop
  endfacet
  facet normal -0.904619 0.426222 0
    outer loop
      vertex -101.978 -1.1964 21
      vertex -102.152 -1.5657 0
      vertex -102.152 -1.5657 21
    endloop
  endfacet
  facet normal 0.586847 0.809698 -0
    outer loop
      vertex -106.741 -2.74407 0
      vertex -107.072 -2.50417 21
      vertex -106.741 -2.74407 21
    endloop
  endfacet
  facet normal 0.586847 0.809698 0
    outer loop
      vertex -107.072 -2.50417 21
      vertex -106.741 -2.74407 0
      vertex -107.072 -2.50417 0
    endloop
  endfacet
  facet normal 0.248877 0.968535 -0
    outer loop
      vertex -105.609 -3.19243 0
      vertex -106.004 -3.09093 21
      vertex -105.609 -3.19243 21
    endloop
  endfacet
  facet normal 0.248877 0.968535 0
    outer loop
      vertex -106.004 -3.09093 21
      vertex -105.609 -3.19243 0
      vertex -106.004 -3.09093 0
    endloop
  endfacet
  facet normal 0.125325 0.992116 -0
    outer loop
      vertex -105.204 -3.24359 0
      vertex -105.609 -3.19243 21
      vertex -105.204 -3.24359 21
    endloop
  endfacet
  facet normal 0.125325 0.992116 0
    outer loop
      vertex -105.609 -3.19243 21
      vertex -105.204 -3.24359 0
      vertex -105.609 -3.19243 0
    endloop
  endfacet
  facet normal 0.770706 0.63719 0
    outer loop
      vertex -107.369 -2.22478 21
      vertex -107.629 -1.9103 0
      vertex -107.629 -1.9103 21
    endloop
  endfacet
  facet normal 0.770706 0.63719 0
    outer loop
      vertex -107.629 -1.9103 0
      vertex -107.369 -2.22478 21
      vertex -107.369 -2.22478 0
    endloop
  endfacet
  facet normal 0.685183 0.728371 -0
    outer loop
      vertex -107.072 -2.50417 0
      vertex -107.369 -2.22478 21
      vertex -107.072 -2.50417 21
    endloop
  endfacet
  facet normal 0.685183 0.728371 0
    outer loop
      vertex -107.369 -2.22478 21
      vertex -107.072 -2.50417 0
      vertex -107.369 -2.22478 0
    endloop
  endfacet
  facet normal 0.982502 0.186252 0
    outer loop
      vertex -108.148 -0.808242 21
      vertex -108.224 -0.407332 0
      vertex -108.224 -0.407332 21
    endloop
  endfacet
  facet normal 0.982502 0.186252 0
    outer loop
      vertex -108.224 -0.407332 0
      vertex -108.148 -0.808242 21
      vertex -108.148 -0.808242 0
    endloop
  endfacet
  facet normal 0.997969 0.0637004 0
    outer loop
      vertex -108.224 -0.407332 21
      vertex -108.25 0 0
      vertex -108.25 0 21
    endloop
  endfacet
  facet normal 0.997969 0.0637004 0
    outer loop
      vertex -108.25 0 0
      vertex -108.224 -0.407332 21
      vertex -108.224 -0.407332 0
    endloop
  endfacet
  facet normal -0.770706 0.63719 0
    outer loop
      vertex -102.631 -2.22478 0
      vertex -102.371 -1.9103 21
      vertex -102.371 -1.9103 0
    endloop
  endfacet
  facet normal -0.770706 0.63719 0
    outer loop
      vertex -102.371 -1.9103 21
      vertex -102.631 -2.22478 0
      vertex -102.631 -2.22478 21
    endloop
  endfacet
  facet normal 0.482427 0.875936 -0
    outer loop
      vertex -106.384 -2.94069 0
      vertex -106.741 -2.74407 21
      vertex -106.384 -2.94069 21
    endloop
  endfacet
  facet normal 0.482427 0.875936 0
    outer loop
      vertex -106.741 -2.74407 21
      vertex -106.384 -2.94069 0
      vertex -106.741 -2.74407 0
    endloop
  endfacet
  facet normal 0.843984 0.536368 0
    outer loop
      vertex -107.629 -1.9103 21
      vertex -107.848 -1.5657 0
      vertex -107.848 -1.5657 21
    endloop
  endfacet
  facet normal 0.843984 0.536368 0
    outer loop
      vertex -107.848 -1.5657 0
      vertex -107.629 -1.9103 21
      vertex -107.629 -1.9103 0
    endloop
  endfacet
  facet normal -0.367675 0.929954 0
    outer loop
      vertex -103.616 -2.94069 0
      vertex -103.996 -3.09093 21
      vertex -103.616 -2.94069 21
    endloop
  endfacet
  facet normal -0.367675 0.929954 0
    outer loop
      vertex -103.996 -3.09093 21
      vertex -103.616 -2.94069 0
      vertex -103.996 -3.09093 0
    endloop
  endfacet
  facet normal -0.951143 -0.308751 0
    outer loop
      vertex 108.148 0.808242 0
      vertex 108.022 1.1964 21
      vertex 108.022 1.1964 0
    endloop
  endfacet
  facet normal -0.951143 -0.308751 0
    outer loop
      vertex 108.022 1.1964 21
      vertex 108.148 0.808242 0
      vertex 108.148 0.808242 21
    endloop
  endfacet
  facet normal -0.997969 -0.0637004 0
    outer loop
      vertex 108.25 0 0
      vertex 108.224 0.407332 21
      vertex 108.224 0.407332 0
    endloop
  endfacet
  facet normal -0.997969 -0.0637004 0
    outer loop
      vertex 108.224 0.407332 21
      vertex 108.25 0 0
      vertex 108.25 0 21
    endloop
  endfacet
  facet normal 0 -1 0
    outer loop
      vertex 104.796 3.24359 0
      vertex 105.204 3.24359 21
      vertex 104.796 3.24359 21
    endloop
  endfacet
  facet normal 0 -1 -0
    outer loop
      vertex 105.204 3.24359 21
      vertex 104.796 3.24359 0
      vertex 105.204 3.24359 0
    endloop
  endfacet
  facet normal -0.685183 -0.728371 0
    outer loop
      vertex 107.072 2.50417 0
      vertex 107.369 2.22478 21
      vertex 107.072 2.50417 21
    endloop
  endfacet
  facet normal -0.685183 -0.728371 -0
    outer loop
      vertex 107.369 2.22478 21
      vertex 107.072 2.50417 0
      vertex 107.369 2.22478 0
    endloop
  endfacet
  facet normal 0.770706 -0.63719 0
    outer loop
      vertex 102.371 1.9103 21
      vertex 102.631 2.22478 0
      vertex 102.631 2.22478 21
    endloop
  endfacet
  facet normal 0.770706 -0.63719 0
    outer loop
      vertex 102.631 2.22478 0
      vertex 102.371 1.9103 21
      vertex 102.371 1.9103 0
    endloop
  endfacet
  facet normal 0.482427 -0.875936 0
    outer loop
      vertex 103.259 2.74407 0
      vertex 103.616 2.94069 21
      vertex 103.259 2.74407 21
    endloop
  endfacet
  facet normal 0.482427 -0.875936 0
    outer loop
      vertex 103.616 2.94069 21
      vertex 103.259 2.74407 0
      vertex 103.616 2.94069 0
    endloop
  endfacet
  facet normal 0.770706 0.63719 0
    outer loop
      vertex 102.631 -2.22478 21
      vertex 102.371 -1.9103 0
      vertex 102.371 -1.9103 21
    endloop
  endfacet
  facet normal 0.770706 0.63719 0
    outer loop
      vertex 102.371 -1.9103 0
      vertex 102.631 -2.22478 21
      vertex 102.631 -2.22478 0
    endloop
  endfacet
  facet normal -0.904619 -0.426222 0
    outer loop
      vertex 108.022 1.1964 0
      vertex 107.848 1.5657 21
      vertex 107.848 1.5657 0
    endloop
  endfacet
  facet normal -0.904619 -0.426222 0
    outer loop
      vertex 107.848 1.5657 21
      vertex 108.022 1.1964 0
      vertex 108.022 1.1964 21
    endloop
  endfacet
  facet normal -0.843984 -0.536368 0
    outer loop
      vertex 107.848 1.5657 0
      vertex 107.629 1.9103 21
      vertex 107.629 1.9103 0
    endloop
  endfacet
  facet normal -0.843984 -0.536368 0
    outer loop
      vertex 107.629 1.9103 21
      vertex 107.848 1.5657 0
      vertex 107.848 1.5657 21
    endloop
  endfacet
  facet normal -0.367675 -0.929954 0
    outer loop
      vertex 106.004 3.09093 0
      vertex 106.384 2.94069 21
      vertex 106.004 3.09093 21
    endloop
  endfacet
  facet normal -0.367675 -0.929954 -0
    outer loop
      vertex 106.384 2.94069 21
      vertex 106.004 3.09093 0
      vertex 106.384 2.94069 0
    endloop
  endfacet
  facet normal -0.248877 -0.968535 0
    outer loop
      vertex 105.609 3.19243 0
      vertex 106.004 3.09093 21
      vertex 105.609 3.19243 21
    endloop
  endfacet
  facet normal -0.248877 -0.968535 -0
    outer loop
      vertex 106.004 3.09093 21
      vertex 105.609 3.19243 0
      vertex 106.004 3.09093 0
    endloop
  endfacet
  facet normal -0.586847 -0.809698 0
    outer loop
      vertex 106.741 2.74407 0
      vertex 107.072 2.50417 21
      vertex 106.741 2.74407 21
    endloop
  endfacet
  facet normal -0.586847 -0.809698 -0
    outer loop
      vertex 107.072 2.50417 21
      vertex 106.741 2.74407 0
      vertex 107.072 2.50417 0
    endloop
  endfacet
  facet normal 0.951143 -0.308751 0
    outer loop
      vertex 101.852 0.808242 21
      vertex 101.978 1.1964 0
      vertex 101.978 1.1964 21
    endloop
  endfacet
  facet normal 0.951143 -0.308751 0
    outer loop
      vertex 101.978 1.1964 0
      vertex 101.852 0.808242 21
      vertex 101.852 0.808242 0
    endloop
  endfacet
  facet normal 0.904619 -0.426222 0
    outer loop
      vertex 101.978 1.1964 21
      vertex 102.152 1.5657 0
      vertex 102.152 1.5657 21
    endloop
  endfacet
  facet normal 0.904619 -0.426222 0
    outer loop
      vertex 102.152 1.5657 0
      vertex 101.978 1.1964 21
      vertex 101.978 1.1964 0
    endloop
  endfacet
  facet normal 0.997969 -0.0637004 0
    outer loop
      vertex 101.75 0 21
      vertex 101.776 0.407332 0
      vertex 101.776 0.407332 21
    endloop
  endfacet
  facet normal 0.997969 -0.0637004 0
    outer loop
      vertex 101.776 0.407332 0
      vertex 101.75 0 21
      vertex 101.75 0 0
    endloop
  endfacet
  facet normal 0.586847 -0.809698 0
    outer loop
      vertex 102.928 2.50417 0
      vertex 103.259 2.74407 21
      vertex 102.928 2.50417 21
    endloop
  endfacet
  facet normal 0.586847 -0.809698 0
    outer loop
      vertex 103.259 2.74407 21
      vertex 102.928 2.50417 0
      vertex 103.259 2.74407 0
    endloop
  endfacet
  facet normal -0.367675 0.929954 0
    outer loop
      vertex 106.384 -2.94069 0
      vertex 106.004 -3.09093 21
      vertex 106.384 -2.94069 21
    endloop
  endfacet
  facet normal -0.367675 0.929954 0
    outer loop
      vertex 106.004 -3.09093 21
      vertex 106.384 -2.94069 0
      vertex 106.004 -3.09093 0
    endloop
  endfacet
  facet normal -0.770706 0.63719 0
    outer loop
      vertex 107.369 -2.22478 0
      vertex 107.629 -1.9103 21
      vertex 107.629 -1.9103 0
    endloop
  endfacet
  facet normal -0.770706 0.63719 0
    outer loop
      vertex 107.629 -1.9103 21
      vertex 107.369 -2.22478 0
      vertex 107.369 -2.22478 21
    endloop
  endfacet
  facet normal -0.586847 0.809698 0
    outer loop
      vertex 107.072 -2.50417 0
      vertex 106.741 -2.74407 21
      vertex 107.072 -2.50417 21
    endloop
  endfacet
  facet normal -0.586847 0.809698 0
    outer loop
      vertex 106.741 -2.74407 21
      vertex 107.072 -2.50417 0
      vertex 106.741 -2.74407 0
    endloop
  endfacet
  facet normal -0.843984 0.536368 0
    outer loop
      vertex 107.629 -1.9103 0
      vertex 107.848 -1.5657 21
      vertex 107.848 -1.5657 0
    endloop
  endfacet
  facet normal -0.843984 0.536368 0
    outer loop
      vertex 107.848 -1.5657 21
      vertex 107.629 -1.9103 0
      vertex 107.629 -1.9103 21
    endloop
  endfacet
  facet normal 0.586847 0.809698 -0
    outer loop
      vertex 103.259 -2.74407 0
      vertex 102.928 -2.50417 21
      vertex 103.259 -2.74407 21
    endloop
  endfacet
  facet normal 0.586847 0.809698 0
    outer loop
      vertex 102.928 -2.50417 21
      vertex 103.259 -2.74407 0
      vertex 102.928 -2.50417 0
    endloop
  endfacet
  facet normal 0.248877 0.968535 -0
    outer loop
      vertex 104.391 -3.19243 0
      vertex 103.996 -3.09093 21
      vertex 104.391 -3.19243 21
    endloop
  endfacet
  facet normal 0.248877 0.968535 0
    outer loop
      vertex 103.996 -3.09093 21
      vertex 104.391 -3.19243 0
      vertex 103.996 -3.09093 0
    endloop
  endfacet
  facet normal 0.843984 0.536368 0
    outer loop
      vertex 102.371 -1.9103 21
      vertex 102.152 -1.5657 0
      vertex 102.152 -1.5657 21
    endloop
  endfacet
  facet normal 0.843984 0.536368 0
    outer loop
      vertex 102.152 -1.5657 0
      vertex 102.371 -1.9103 21
      vertex 102.371 -1.9103 0
    endloop
  endfacet
  facet normal 0.997969 0.0637004 0
    outer loop
      vertex 101.776 -0.407332 21
      vertex 101.75 0 0
      vertex 101.75 0 21
    endloop
  endfacet
  facet normal 0.997969 0.0637004 0
    outer loop
      vertex 101.75 0 0
      vertex 101.776 -0.407332 21
      vertex 101.776 -0.407332 0
    endloop
  endfacet
  facet normal 0.125325 -0.992116 0
    outer loop
      vertex 104.391 3.19243 0
      vertex 104.796 3.24359 21
      vertex 104.391 3.19243 21
    endloop
  endfacet
  facet normal 0.125325 -0.992116 0
    outer loop
      vertex 104.796 3.24359 21
      vertex 104.391 3.19243 0
      vertex 104.796 3.24359 0
    endloop
  endfacet
  facet normal 0.367675 -0.929954 0
    outer loop
      vertex 103.616 2.94069 0
      vertex 103.996 3.09093 21
      vertex 103.616 2.94069 21
    endloop
  endfacet
  facet normal 0.367675 -0.929954 0
    outer loop
      vertex 103.996 3.09093 21
      vertex 103.616 2.94069 0
      vertex 103.996 3.09093 0
    endloop
  endfacet
  facet normal 0.248877 -0.968535 0
    outer loop
      vertex 103.996 3.09093 0
      vertex 104.391 3.19243 21
      vertex 103.996 3.09093 21
    endloop
  endfacet
  facet normal 0.248877 -0.968535 0
    outer loop
      vertex 104.391 3.19243 21
      vertex 103.996 3.09093 0
      vertex 104.391 3.19243 0
    endloop
  endfacet
  facet normal -0.125325 0.992116 0
    outer loop
      vertex 105.609 -3.19243 0
      vertex 105.204 -3.24359 21
      vertex 105.609 -3.19243 21
    endloop
  endfacet
  facet normal -0.125325 0.992116 0
    outer loop
      vertex 105.204 -3.24359 21
      vertex 105.609 -3.19243 0
      vertex 105.204 -3.24359 0
    endloop
  endfacet
  facet normal -0.248877 0.968535 0
    outer loop
      vertex 106.004 -3.09093 0
      vertex 105.609 -3.19243 21
      vertex 106.004 -3.09093 21
    endloop
  endfacet
  facet normal -0.248877 0.968535 0
    outer loop
      vertex 105.609 -3.19243 21
      vertex 106.004 -3.09093 0
      vertex 105.609 -3.19243 0
    endloop
  endfacet
  facet normal -0.685183 0.728371 0
    outer loop
      vertex 107.369 -2.22478 0
      vertex 107.072 -2.50417 21
      vertex 107.369 -2.22478 21
    endloop
  endfacet
  facet normal -0.685183 0.728371 0
    outer loop
      vertex 107.072 -2.50417 21
      vertex 107.369 -2.22478 0
      vertex 107.072 -2.50417 0
    endloop
  endfacet
  facet normal -0.951143 0.308751 0
    outer loop
      vertex 108.022 -1.1964 0
      vertex 108.148 -0.808242 21
      vertex 108.148 -0.808242 0
    endloop
  endfacet
  facet normal -0.951143 0.308751 0
    outer loop
      vertex 108.148 -0.808242 21
      vertex 108.022 -1.1964 0
      vertex 108.022 -1.1964 21
    endloop
  endfacet
  facet normal -0.997969 0.0637004 0
    outer loop
      vertex 108.224 -0.407332 0
      vertex 108.25 0 21
      vertex 108.25 0 0
    endloop
  endfacet
  facet normal -0.997969 0.0637004 0
    outer loop
      vertex 108.25 0 21
      vertex 108.224 -0.407332 0
      vertex 108.224 -0.407332 21
    endloop
  endfacet
  facet normal 0.125325 0.992116 -0
    outer loop
      vertex 104.796 -3.24359 0
      vertex 104.391 -3.19243 21
      vertex 104.796 -3.24359 21
    endloop
  endfacet
  facet normal 0.125325 0.992116 0
    outer loop
      vertex 104.391 -3.19243 21
      vertex 104.796 -3.24359 0
      vertex 104.391 -3.19243 0
    endloop
  endfacet
  facet normal 0.482427 0.875936 -0
    outer loop
      vertex 103.616 -2.94069 0
      vertex 103.259 -2.74407 21
      vertex 103.616 -2.94069 21
    endloop
  endfacet
  facet normal 0.482427 0.875936 0
    outer loop
      vertex 103.259 -2.74407 21
      vertex 103.616 -2.94069 0
      vertex 103.259 -2.74407 0
    endloop
  endfacet
  facet normal 0 1 -0
    outer loop
      vertex 105.204 -3.24359 0
      vertex 104.796 -3.24359 21
      vertex 105.204 -3.24359 21
    endloop
  endfacet
  facet normal 0 1 0
    outer loop
      vertex 104.796 -3.24359 21
      vertex 105.204 -3.24359 0
      vertex 104.796 -3.24359 0
    endloop
  endfacet
  facet normal 0.685183 0.728371 -0
    outer loop
      vertex 102.928 -2.50417 0
      vertex 102.631 -2.22478 21
      vertex 102.928 -2.50417 21
    endloop
  endfacet
  facet normal 0.685183 0.728371 0
    outer loop
      vertex 102.631 -2.22478 21
      vertex 102.928 -2.50417 0
      vertex 102.631 -2.22478 0
    endloop
  endfacet
  facet normal 0.904619 0.426222 0
    outer loop
      vertex 102.152 -1.5657 21
      vertex 101.978 -1.1964 0
      vertex 101.978 -1.1964 21
    endloop
  endfacet
  facet normal 0.904619 0.426222 0
    outer loop
      vertex 101.978 -1.1964 0
      vertex 102.152 -1.5657 21
      vertex 102.152 -1.5657 0
    endloop
  endfacet
  facet normal 0.982502 0.186252 0
    outer loop
      vertex 101.852 -0.808242 21
      vertex 101.776 -0.407332 0
      vertex 101.776 -0.407332 21
    endloop
  endfacet
  facet normal 0.982502 0.186252 0
    outer loop
      vertex 101.776 -0.407332 0
      vertex 101.852 -0.808242 21
      vertex 101.852 -0.808242 0
    endloop
  endfacet
  facet normal -0.982502 -0.186252 0
    outer loop
      vertex 108.224 0.407332 0
      vertex 108.148 0.808242 21
      vertex 108.148 0.808242 0
    endloop
  endfacet
  facet normal -0.982502 -0.186252 0
    outer loop
      vertex 108.148 0.808242 21
      vertex 108.224 0.407332 0
      vertex 108.224 0.407332 21
    endloop
  endfacet
  facet normal -0.770706 -0.63719 0
    outer loop
      vertex 107.629 1.9103 0
      vertex 107.369 2.22478 21
      vertex 107.369 2.22478 0
    endloop
  endfacet
  facet normal -0.770706 -0.63719 0
    outer loop
      vertex 107.369 2.22478 21
      vertex 107.629 1.9103 0
      vertex 107.629 1.9103 21
    endloop
  endfacet
  facet normal -0.125325 -0.992116 0
    outer loop
      vertex 105.204 3.24359 0
      vertex 105.609 3.19243 21
      vertex 105.204 3.24359 21
    endloop
  endfacet
  facet normal -0.125325 -0.992116 -0
    outer loop
      vertex 105.609 3.19243 21
      vertex 105.204 3.24359 0
      vertex 105.609 3.19243 0
    endloop
  endfacet
  facet normal -0.482427 -0.875936 0
    outer loop
      vertex 106.384 2.94069 0
      vertex 106.741 2.74407 21
      vertex 106.384 2.94069 21
    endloop
  endfacet
  facet normal -0.482427 -0.875936 -0
    outer loop
      vertex 106.741 2.74407 21
      vertex 106.384 2.94069 0
      vertex 106.741 2.74407 0
    endloop
  endfacet
  facet normal 0.843984 -0.536368 0
    outer loop
      vertex 102.152 1.5657 21
      vertex 102.371 1.9103 0
      vertex 102.371 1.9103 21
    endloop
  endfacet
  facet normal 0.843984 -0.536368 0
    outer loop
      vertex 102.371 1.9103 0
      vertex 102.152 1.5657 21
      vertex 102.152 1.5657 0
    endloop
  endfacet
  facet normal 0.982502 -0.186252 0
    outer loop
      vertex 101.776 0.407332 21
      vertex 101.852 0.808242 0
      vertex 101.852 0.808242 21
    endloop
  endfacet
  facet normal 0.982502 -0.186252 0
    outer loop
      vertex 101.852 0.808242 0
      vertex 101.776 0.407332 21
      vertex 101.776 0.407332 0
    endloop
  endfacet
  facet normal 0.685183 -0.728371 0
    outer loop
      vertex 102.631 2.22478 0
      vertex 102.928 2.50417 21
      vertex 102.631 2.22478 21
    endloop
  endfacet
  facet normal 0.685183 -0.728371 0
    outer loop
      vertex 102.928 2.50417 21
      vertex 102.631 2.22478 0
      vertex 102.928 2.50417 0
    endloop
  endfacet
  facet normal -0.482427 0.875936 0
    outer loop
      vertex 106.741 -2.74407 0
      vertex 106.384 -2.94069 21
      vertex 106.741 -2.74407 21
    endloop
  endfacet
  facet normal -0.482427 0.875936 0
    outer loop
      vertex 106.384 -2.94069 21
      vertex 106.741 -2.74407 0
      vertex 106.384 -2.94069 0
    endloop
  endfacet
  facet normal -0.982502 0.186252 0
    outer loop
      vertex 108.148 -0.808242 0
      vertex 108.224 -0.407332 21
      vertex 108.224 -0.407332 0
    endloop
  endfacet
  facet normal -0.982502 0.186252 0
    outer loop
      vertex 108.224 -0.407332 21
      vertex 108.148 -0.808242 0
      vertex 108.148 -0.808242 21
    endloop
  endfacet
  facet normal -0.904619 0.426222 0
    outer loop
      vertex 107.848 -1.5657 0
      vertex 108.022 -1.1964 21
      vertex 108.022 -1.1964 0
    endloop
  endfacet
  facet normal -0.904619 0.426222 0
    outer loop
      vertex 108.022 -1.1964 21
      vertex 107.848 -1.5657 0
      vertex 107.848 -1.5657 21
    endloop
  endfacet
  facet normal 0.367675 0.929954 -0
    outer loop
      vertex 103.996 -3.09093 0
      vertex 103.616 -2.94069 21
      vertex 103.996 -3.09093 21
    endloop
  endfacet
  facet normal 0.367675 0.929954 0
    outer loop
      vertex 103.616 -2.94069 21
      vertex 103.996 -3.09093 0
      vertex 103.616 -2.94069 0
    endloop
  endfacet
  facet normal 0.951143 0.308751 0
    outer loop
      vertex 101.978 -1.1964 21
      vertex 101.852 -0.808242 0
      vertex 101.852 -0.808242 21
    endloop
  endfacet
  facet normal 0.951143 0.308751 0
    outer loop
      vertex 101.852 -0.808242 0
      vertex 101.978 -1.1964 21
      vertex 101.978 -1.1964 0
    endloop
  endfacet
  facet normal -1 0 0
    outer loop
      vertex -112 -2 0
      vertex -112 2 21
      vertex -112 2 0
    endloop
  endfacet
  facet normal -1 -0 0
    outer loop
      vertex -112 2 21
      vertex -112 -2 0
      vertex -112 -2 21
    endloop
  endfacet
  facet normal -0.998069 -0.0621135 0
    outer loop
      vertex -111.961 -2.62667 0
      vertex -112 -2 21
      vertex -112 -2 0
    endloop
  endfacet
  facet normal -0.998069 -0.0621135 0
    outer loop
      vertex -112 -2 21
      vertex -111.961 -2.62667 0
      vertex -111.961 -2.62667 21
    endloop
  endfacet
  facet normal 0 1 -0
    outer loop
      vertex 107.314 6.99013 0
      vertex -107.314 6.99013 21
      vertex 107.314 6.99013 21
    endloop
  endfacet
  facet normal 0 1 0
    outer loop
      vertex -107.314 6.99013 21
      vertex 107.314 6.99013 0
      vertex -107.314 6.99013 0
    endloop
  endfacet
  facet normal 0 -1 0
    outer loop
      vertex -107.314 -6.99013 0
      vertex 107.314 -6.99013 21
      vertex -107.314 -6.99013 21
    endloop
  endfacet
  facet normal 0 -1 -0
    outer loop
      vertex 107.314 -6.99013 21
      vertex -107.314 -6.99013 0
      vertex 107.314 -6.99013 0
    endloop
  endfacet
  facet normal -0.998069 0.0621135 0
    outer loop
      vertex -112 2 0
      vertex -111.961 2.62667 21
      vertex -111.961 2.62667 0
    endloop
  endfacet
  facet normal -0.998069 0.0621135 0
    outer loop
      vertex -111.961 2.62667 21
      vertex -112 2 0
      vertex -112 2 21
    endloop
  endfacet
  facet normal 0.905042 -0.425321 0
    outer loop
      vertex 111.382 -4.40877 21
      vertex 111.649 -3.84062 0
      vertex 111.649 -3.84062 21
    endloop
  endfacet
  facet normal 0.905042 -0.425321 0
    outer loop
      vertex 111.649 -3.84062 0
      vertex 111.382 -4.40877 21
      vertex 111.382 -4.40877 0
    endloop
  endfacet
  facet normal -0.368026 -0.929816 0
    outer loop
      vertex -109.129 -6.52413 0
      vertex -108.545 -6.75528 21
      vertex -109.129 -6.52413 21
    endloop
  endfacet
  facet normal -0.368026 -0.929816 -0
    outer loop
      vertex -108.545 -6.75528 21
      vertex -109.129 -6.52413 0
      vertex -108.545 -6.75528 0
    endloop
  endfacet
  facet normal -0.684327 -0.729176 0
    outer loop
      vertex -110.645 -5.42274 0
      vertex -110.187 -5.85257 21
      vertex -110.645 -5.42274 21
    endloop
  endfacet
  facet normal -0.684327 -0.729176 -0
    outer loop
      vertex -110.187 -5.85257 21
      vertex -110.645 -5.42274 0
      vertex -110.187 -5.85257 0
    endloop
  endfacet
  facet normal 1 -0 0
    outer loop
      vertex 112 -2 21
      vertex 112 2 0
      vertex 112 2 21
    endloop
  endfacet
  facet normal 1 0 0
    outer loop
      vertex 112 2 0
      vertex 112 -2 21
      vertex 112 -2 0
    endloop
  endfacet
  facet normal 0.951072 -0.30897 0
    outer loop
      vertex 111.649 -3.84062 21
      vertex 111.843 -3.24345 0
      vertex 111.843 -3.24345 21
    endloop
  endfacet
  facet normal 0.951072 -0.30897 0
    outer loop
      vertex 111.843 -3.24345 0
      vertex 111.649 -3.84062 21
      vertex 111.649 -3.84062 0
    endloop
  endfacet
  facet normal 0.905042 0.425321 0
    outer loop
      vertex 111.649 3.84062 21
      vertex 111.382 4.40877 0
      vertex 111.382 4.40877 21
    endloop
  endfacet
  facet normal 0.905042 0.425321 0
    outer loop
      vertex 111.382 4.40877 0
      vertex 111.649 3.84062 21
      vertex 111.649 3.84062 0
    endloop
  endfacet
  facet normal 0.951072 0.30897 0
    outer loop
      vertex 111.843 3.24345 21
      vertex 111.649 3.84062 0
      vertex 111.649 3.84062 21
    endloop
  endfacet
  facet normal 0.951072 0.30897 0
    outer loop
      vertex 111.649 3.84062 0
      vertex 111.843 3.24345 21
      vertex 111.843 3.24345 0
    endloop
  endfacet
  facet normal 0.684327 0.729176 -0
    outer loop
      vertex 110.645 5.42274 0
      vertex 110.187 5.85257 21
      vertex 110.645 5.42274 21
    endloop
  endfacet
  facet normal 0.684327 0.729176 0
    outer loop
      vertex 110.187 5.85257 21
      vertex 110.645 5.42274 0
      vertex 110.187 5.85257 0
    endloop
  endfacet
  facet normal 0.368026 0.929816 -0
    outer loop
      vertex 109.129 6.52413 0
      vertex 108.545 6.75528 21
      vertex 109.129 6.52413 21
    endloop
  endfacet
  facet normal 0.368026 0.929816 0
    outer loop
      vertex 108.545 6.75528 21
      vertex 109.129 6.52413 0
      vertex 108.545 6.75528 0
    endloop
  endfacet
  facet normal 0.248768 0.968563 -0
    outer loop
      vertex 108.545 6.75528 0
      vertex 107.937 6.91144 21
      vertex 108.545 6.75528 21
    endloop
  endfacet
  facet normal 0.248768 0.968563 0
    outer loop
      vertex 107.937 6.91144 21
      vertex 108.545 6.75528 0
      vertex 107.937 6.91144 0
    endloop
  endfacet
  facet normal 0.125313 0.992117 -0
    outer loop
      vertex 107.937 6.91144 0
      vertex 107.314 6.99013 21
      vertex 107.937 6.91144 21
    endloop
  endfacet
  facet normal 0.125313 0.992117 0
    outer loop
      vertex 107.314 6.99013 21
      vertex 107.937 6.91144 0
      vertex 107.314 6.99013 0
    endloop
  endfacet
  facet normal -0.481907 0.876223 0
    outer loop
      vertex -109.129 6.52413 0
      vertex -109.679 6.22164 21
      vertex -109.129 6.52413 21
    endloop
  endfacet
  facet normal -0.481907 0.876223 0
    outer loop
      vertex -109.679 6.22164 21
      vertex -109.129 6.52413 0
      vertex -109.679 6.22164 0
    endloop
  endfacet
  facet normal -0.248768 0.968563 0
    outer loop
      vertex -107.937 6.91144 0
      vertex -108.545 6.75528 21
      vertex -107.937 6.91144 21
    endloop
  endfacet
  facet normal -0.248768 0.968563 0
    outer loop
      vertex -108.545 6.75528 21
      vertex -107.937 6.91144 0
      vertex -108.545 6.75528 0
    endloop
  endfacet
  facet normal -0.951072 -0.30897 0
    outer loop
      vertex -111.649 -3.84062 0
      vertex -111.843 -3.24345 21
      vertex -111.843 -3.24345 0
    endloop
  endfacet
  facet normal -0.951072 -0.30897 0
    outer loop
      vertex -111.843 -3.24345 21
      vertex -111.649 -3.84062 0
      vertex -111.649 -3.84062 21
    endloop
  endfacet
  facet normal -0.770703 -0.637195 0
    outer loop
      vertex -110.645 -5.42274 0
      vertex -111.045 -4.93893 21
      vertex -111.045 -4.93893 0
    endloop
  endfacet
  facet normal -0.770703 -0.637195 0
    outer loop
      vertex -111.045 -4.93893 21
      vertex -110.645 -5.42274 0
      vertex -110.645 -5.42274 21
    endloop
  endfacet
  facet normal -0.905042 -0.425321 0
    outer loop
      vertex -111.382 -4.40877 0
      vertex -111.649 -3.84062 21
      vertex -111.649 -3.84062 0
    endloop
  endfacet
  facet normal -0.905042 -0.425321 0
    outer loop
      vertex -111.649 -3.84062 21
      vertex -111.382 -4.40877 0
      vertex -111.382 -4.40877 21
    endloop
  endfacet
  facet normal -0.248768 -0.968563 0
    outer loop
      vertex -108.545 -6.75528 0
      vertex -107.937 -6.91144 21
      vertex -108.545 -6.75528 21
    endloop
  endfacet
  facet normal -0.248768 -0.968563 -0
    outer loop
      vertex -107.937 -6.91144 21
      vertex -108.545 -6.75528 0
      vertex -107.937 -6.91144 0
    endloop
  endfacet
  facet normal -0.587771 -0.809027 0
    outer loop
      vertex -110.187 -5.85257 0
      vertex -109.679 -6.22164 21
      vertex -110.187 -5.85257 21
    endloop
  endfacet
  facet normal -0.587771 -0.809027 -0
    outer loop
      vertex -109.679 -6.22164 21
      vertex -110.187 -5.85257 0
      vertex -109.679 -6.22164 0
    endloop
  endfacet
  facet normal 0.998069 -0.0621135 0
    outer loop
      vertex 111.961 -2.62667 21
      vertex 112 -2 0
      vertex 112 -2 21
    endloop
  endfacet
  facet normal 0.998069 -0.0621135 0
    outer loop
      vertex 112 -2 0
      vertex 111.961 -2.62667 21
      vertex 111.961 -2.62667 0
    endloop
  endfacet
  facet normal 0.587771 -0.809027 0
    outer loop
      vertex 109.679 -6.22164 0
      vertex 110.187 -5.85257 21
      vertex 109.679 -6.22164 21
    endloop
  endfacet
  facet normal 0.587771 -0.809027 0
    outer loop
      vertex 110.187 -5.85257 21
      vertex 109.679 -6.22164 0
      vertex 110.187 -5.85257 0
    endloop
  endfacet
  facet normal 0.770703 -0.637195 0
    outer loop
      vertex 110.645 -5.42274 21
      vertex 111.045 -4.93893 0
      vertex 111.045 -4.93893 21
    endloop
  endfacet
  facet normal 0.770703 -0.637195 0
    outer loop
      vertex 111.045 -4.93893 0
      vertex 110.645 -5.42274 21
      vertex 110.645 -5.42274 0
    endloop
  endfacet
  facet normal 0.368026 -0.929816 0
    outer loop
      vertex 108.545 -6.75528 0
      vertex 109.129 -6.52413 21
      vertex 108.545 -6.75528 21
    endloop
  endfacet
  facet normal 0.368026 -0.929816 0
    outer loop
      vertex 109.129 -6.52413 21
      vertex 108.545 -6.75528 0
      vertex 109.129 -6.52413 0
    endloop
  endfacet
  facet normal 0.125313 -0.992117 0
    outer loop
      vertex 107.314 -6.99013 0
      vertex 107.937 -6.91144 21
      vertex 107.314 -6.99013 21
    endloop
  endfacet
  facet normal 0.125313 -0.992117 0
    outer loop
      vertex 107.937 -6.91144 21
      vertex 107.314 -6.99013 0
      vertex 107.937 -6.91144 0
    endloop
  endfacet
  facet normal 0.770703 0.637195 0
    outer loop
      vertex 111.045 4.93893 21
      vertex 110.645 5.42274 0
      vertex 110.645 5.42274 21
    endloop
  endfacet
  facet normal 0.770703 0.637195 0
    outer loop
      vertex 110.645 5.42274 0
      vertex 111.045 4.93893 21
      vertex 111.045 4.93893 0
    endloop
  endfacet
  facet normal 0.843931 0.536451 0
    outer loop
      vertex 111.382 4.40877 21
      vertex 111.045 4.93893 0
      vertex 111.045 4.93893 21
    endloop
  endfacet
  facet normal 0.843931 0.536451 0
    outer loop
      vertex 111.045 4.93893 0
      vertex 111.382 4.40877 21
      vertex 111.382 4.40877 0
    endloop
  endfacet
  facet normal 0.587771 0.809027 -0
    outer loop
      vertex 110.187 5.85257 0
      vertex 109.679 6.22164 21
      vertex 110.187 5.85257 21
    endloop
  endfacet
  facet normal 0.587771 0.809027 0
    outer loop
      vertex 109.679 6.22164 21
      vertex 110.187 5.85257 0
      vertex 109.679 6.22164 0
    endloop
  endfacet
  facet normal 0.481907 0.876223 -0
    outer loop
      vertex 109.679 6.22164 0
      vertex 109.129 6.52413 21
      vertex 109.679 6.22164 21
    endloop
  endfacet
  facet normal 0.481907 0.876223 0
    outer loop
      vertex 109.129 6.52413 21
      vertex 109.679 6.22164 0
      vertex 109.129 6.52413 0
    endloop
  endfacet
  facet normal -0.125313 0.992117 0
    outer loop
      vertex -107.314 6.99013 0
      vertex -107.937 6.91144 21
      vertex -107.314 6.99013 21
    endloop
  endfacet
  facet normal -0.125313 0.992117 0
    outer loop
      vertex -107.937 6.91144 21
      vertex -107.314 6.99013 0
      vertex -107.937 6.91144 0
    endloop
  endfacet
  facet normal -0.982187 0.187908 0
    outer loop
      vertex -111.961 2.62667 0
      vertex -111.843 3.24345 21
      vertex -111.843 3.24345 0
    endloop
  endfacet
  facet normal -0.982187 0.187908 0
    outer loop
      vertex -111.843 3.24345 21
      vertex -111.961 2.62667 0
      vertex -111.961 2.62667 21
    endloop
  endfacet
  facet normal -0.951072 0.30897 0
    outer loop
      vertex -111.843 3.24345 0
      vertex -111.649 3.84062 21
      vertex -111.649 3.84062 0
    endloop
  endfacet
  facet normal -0.951072 0.30897 0
    outer loop
      vertex -111.649 3.84062 21
      vertex -111.843 3.24345 0
      vertex -111.843 3.24345 21
    endloop
  endfacet
  facet normal -0.982187 -0.187908 0
    outer loop
      vertex -111.843 -3.24345 0
      vertex -111.961 -2.62667 21
      vertex -111.961 -2.62667 0
    endloop
  endfacet
  facet normal -0.982187 -0.187908 0
    outer loop
      vertex -111.961 -2.62667 21
      vertex -111.843 -3.24345 0
      vertex -111.843 -3.24345 21
    endloop
  endfacet
  facet normal -0.843931 -0.536451 0
    outer loop
      vertex -111.045 -4.93893 0
      vertex -111.382 -4.40877 21
      vertex -111.382 -4.40877 0
    endloop
  endfacet
  facet normal -0.843931 -0.536451 0
    outer loop
      vertex -111.382 -4.40877 21
      vertex -111.045 -4.93893 0
      vertex -111.045 -4.93893 21
    endloop
  endfacet
  facet normal -0.125313 -0.992117 0
    outer loop
      vertex -107.937 -6.91144 0
      vertex -107.314 -6.99013 21
      vertex -107.937 -6.91144 21
    endloop
  endfacet
  facet normal -0.125313 -0.992117 -0
    outer loop
      vertex -107.314 -6.99013 21
      vertex -107.937 -6.91144 0
      vertex -107.314 -6.99013 0
    endloop
  endfacet
  facet normal -0.481907 -0.876223 0
    outer loop
      vertex -109.679 -6.22164 0
      vertex -109.129 -6.52413 21
      vertex -109.679 -6.22164 21
    endloop
  endfacet
  facet normal -0.481907 -0.876223 -0
    outer loop
      vertex -109.129 -6.52413 21
      vertex -109.679 -6.22164 0
      vertex -109.129 -6.52413 0
    endloop
  endfacet
  facet normal 0.982187 -0.187908 0
    outer loop
      vertex 111.843 -3.24345 21
      vertex 111.961 -2.62667 0
      vertex 111.961 -2.62667 21
    endloop
  endfacet
  facet normal 0.982187 -0.187908 0
    outer loop
      vertex 111.961 -2.62667 0
      vertex 111.843 -3.24345 21
      vertex 111.843 -3.24345 0
    endloop
  endfacet
  facet normal 0.684327 -0.729176 0
    outer loop
      vertex 110.187 -5.85257 0
      vertex 110.645 -5.42274 21
      vertex 110.187 -5.85257 21
    endloop
  endfacet
  facet normal 0.684327 -0.729176 0
    outer loop
      vertex 110.645 -5.42274 21
      vertex 110.187 -5.85257 0
      vertex 110.645 -5.42274 0
    endloop
  endfacet
  facet normal 0.843931 -0.536451 0
    outer loop
      vertex 111.045 -4.93893 21
      vertex 111.382 -4.40877 0
      vertex 111.382 -4.40877 21
    endloop
  endfacet
  facet normal 0.843931 -0.536451 0
    outer loop
      vertex 111.382 -4.40877 0
      vertex 111.045 -4.93893 21
      vertex 111.045 -4.93893 0
    endloop
  endfacet
  facet normal 0.481907 -0.876223 0
    outer loop
      vertex 109.129 -6.52413 0
      vertex 109.679 -6.22164 21
      vertex 109.129 -6.52413 21
    endloop
  endfacet
  facet normal 0.481907 -0.876223 0
    outer loop
      vertex 109.679 -6.22164 21
      vertex 109.129 -6.52413 0
      vertex 109.679 -6.22164 0
    endloop
  endfacet
  facet normal 0.248768 -0.968563 0
    outer loop
      vertex 107.937 -6.91144 0
      vertex 108.545 -6.75528 21
      vertex 107.937 -6.91144 21
    endloop
  endfacet
  facet normal 0.248768 -0.968563 0
    outer loop
      vertex 108.545 -6.75528 21
      vertex 107.937 -6.91144 0
      vertex 108.545 -6.75528 0
    endloop
  endfacet
  facet normal -0.684327 0.729176 0
    outer loop
      vertex -110.187 5.85257 0
      vertex -110.645 5.42274 21
      vertex -110.187 5.85257 21
    endloop
  endfacet
  facet normal -0.684327 0.729176 0
    outer loop
      vertex -110.645 5.42274 21
      vertex -110.187 5.85257 0
      vertex -110.645 5.42274 0
    endloop
  endfacet
  facet normal -0.368026 0.929816 0
    outer loop
      vertex -108.545 6.75528 0
      vertex -109.129 6.52413 21
      vertex -108.545 6.75528 21
    endloop
  endfacet
  facet normal -0.368026 0.929816 0
    outer loop
      vertex -109.129 6.52413 21
      vertex -108.545 6.75528 0
      vertex -109.129 6.52413 0
    endloop
  endfacet
  facet normal -0.843931 0.536451 0
    outer loop
      vertex -111.382 4.40877 0
      vertex -111.045 4.93893 21
      vertex -111.045 4.93893 0
    endloop
  endfacet
  facet normal -0.843931 0.536451 0
    outer loop
      vertex -111.045 4.93893 21
      vertex -111.382 4.40877 0
      vertex -111.382 4.40877 21
    endloop
  endfacet
  facet normal -0.770703 0.637195 0
    outer loop
      vertex -111.045 4.93893 0
      vertex -110.645 5.42274 21
      vertex -110.645 5.42274 0
    endloop
  endfacet
  facet normal -0.770703 0.637195 0
    outer loop
      vertex -110.645 5.42274 21
      vertex -111.045 4.93893 0
      vertex -111.045 4.93893 21
    endloop
  endfacet
  facet normal -0.905042 0.425321 0
    outer loop
      vertex -111.649 3.84062 0
      vertex -111.382 4.40877 21
      vertex -111.382 4.40877 0
    endloop
  endfacet
  facet normal -0.905042 0.425321 0
    outer loop
      vertex -111.382 4.40877 21
      vertex -111.649 3.84062 0
      vertex -111.649 3.84062 21
    endloop
  endfacet
  facet normal 0.982187 0.187908 0
    outer loop
      vertex 111.961 2.62667 21
      vertex 111.843 3.24345 0
      vertex 111.843 3.24345 21
    endloop
  endfacet
  facet normal 0.982187 0.187908 0
    outer loop
      vertex 111.843 3.24345 0
      vertex 111.961 2.62667 21
      vertex 111.961 2.62667 0
    endloop
  endfacet
  facet normal 0.998069 0.0621135 0
    outer loop
      vertex 112 2 21
      vertex 111.961 2.62667 0
      vertex 111.961 2.62667 21
    endloop
  endfacet
  facet normal 0.998069 0.0621135 0
    outer loop
      vertex 111.961 2.62667 0
      vertex 112 2 21
      vertex 112 2 0
    endloop
  endfacet
  facet normal -0.587771 0.809027 0
    outer loop
      vertex -109.679 6.22164 0
      vertex -110.187 5.85257 21
      vertex -109.679 6.22164 21
    endloop
  endfacet
  facet normal -0.587771 0.809027 0
    outer loop
      vertex -110.187 5.85257 21
      vertex -109.679 6.22164 0
      vertex -110.187 5.85257 0
    endloop
  endfacet
endsolid OpenSCAD_Model
