  0
SECTION
  2
BLOCKS
  0
ENDSEC
  0
SECTION
  2
ENTITIES
  0
LINE
  8
0
 10
197.937
 20
-6.91142
 11
198.545
 21
-6.75528
  0
LINE
  8
0
 10
198.545
 20
-6.75528
 11
199.129
 21
-6.52412
  0
LINE
  8
0
 10
199.129
 20
-6.52412
 11
199.679
 21
-6.22163
  0
LINE
  8
0
 10
199.679
 20
-6.22163
 11
200.187
 21
-5.85255
  0
LINE
  8
0
 10
200.187
 20
-5.85255
 11
200.645
 21
-5.42273
  0
LINE
  8
0
 10
200.645
 20
-5.42273
 11
201.045
 21
-4.93892
  0
LINE
  8
0
 10
201.045
 20
-4.93892
 11
201.382
 21
-4.40877
  0
LINE
  8
0
 10
201.382
 20
-4.40877
 11
201.649
 21
-3.84062
  0
LINE
  8
0
 10
201.649
 20
-3.84062
 11
201.843
 21
-3.24344
  0
LINE
  8
0
 10
201.843
 20
-3.24344
 11
201.961
 21
-2.62666
  0
LINE
  8
0
 10
201.961
 20
-2.62666
 11
202
 21
-2
  0
LINE
  8
0
 10
202
 20
-2
 11
202
 21
2
  0
LINE
  8
0
 10
202
 20
2
 11
201.961
 21
2.62666
  0
LINE
  8
0
 10
201.961
 20
2.62666
 11
201.843
 21
3.24344
  0
LINE
  8
0
 10
201.843
 20
3.24344
 11
201.649
 21
3.84062
  0
LINE
  8
0
 10
201.649
 20
3.84062
 11
201.382
 21
4.40877
  0
LINE
  8
0
 10
201.382
 20
4.40877
 11
201.045
 21
4.93892
  0
LINE
  8
0
 10
201.045
 20
4.93892
 11
200.645
 21
5.42273
  0
LINE
  8
0
 10
200.645
 20
5.42273
 11
200.187
 21
5.85255
  0
LINE
  8
0
 10
200.187
 20
5.85255
 11
199.679
 21
6.22163
  0
LINE
  8
0
 10
199.679
 20
6.22163
 11
199.129
 21
6.52412
  0
LINE
  8
0
 10
199.129
 20
6.52412
 11
198.545
 21
6.75528
  0
LINE
  8
0
 10
198.545
 20
6.75528
 11
197.937
 21
6.91142
  0
LINE
  8
0
 10
197.937
 20
6.91142
 11
197.314
 21
6.99013
  0
LINE
  8
0
 10
197.314
 20
6.99013
 11
-197.314
 21
6.99013
  0
LINE
  8
0
 10
-197.314
 20
6.99013
 11
-197.937
 21
6.91142
  0
LINE
  8
0
 10
-197.937
 20
6.91142
 11
-198.545
 21
6.75528
  0
LINE
  8
0
 10
-198.545
 20
6.75528
 11
-199.129
 21
6.52412
  0
LINE
  8
0
 10
-199.129
 20
6.52412
 11
-199.679
 21
6.22163
  0
LINE
  8
0
 10
-199.679
 20
6.22163
 11
-200.187
 21
5.85255
  0
LINE
  8
0
 10
-200.187
 20
5.85255
 11
-200.645
 21
5.42273
  0
LINE
  8
0
 10
-200.645
 20
5.42273
 11
-201.045
 21
4.93892
  0
LINE
  8
0
 10
-201.045
 20
4.93892
 11
-201.382
 21
4.40877
  0
LINE
  8
0
 10
-201.382
 20
4.40877
 11
-201.649
 21
3.84062
  0
LINE
  8
0
 10
-201.649
 20
3.84062
 11
-201.843
 21
3.24344
  0
LINE
  8
0
 10
-201.843
 20
3.24344
 11
-201.961
 21
2.62666
  0
LINE
  8
0
 10
-201.961
 20
2.62666
 11
-202
 21
2
  0
LINE
  8
0
 10
-202
 20
2
 11
-202
 21
-2
  0
LINE
  8
0
 10
-202
 20
-2
 11
-201.961
 21
-2.62666
  0
LINE
  8
0
 10
-201.961
 20
-2.62666
 11
-201.843
 21
-3.24344
  0
LINE
  8
0
 10
-201.843
 20
-3.24344
 11
-201.649
 21
-3.84062
  0
LINE
  8
0
 10
-201.649
 20
-3.84062
 11
-201.382
 21
-4.40877
  0
LINE
  8
0
 10
-201.382
 20
-4.40877
 11
-201.045
 21
-4.93892
  0
LINE
  8
0
 10
-201.045
 20
-4.93892
 11
-200.645
 21
-5.42273
  0
LINE
  8
0
 10
-200.645
 20
-5.42273
 11
-200.187
 21
-5.85255
  0
LINE
  8
0
 10
-200.187
 20
-5.85255
 11
-199.679
 21
-6.22163
  0
LINE
  8
0
 10
-199.679
 20
-6.22163
 11
-199.129
 21
-6.52412
  0
LINE
  8
0
 10
-199.129
 20
-6.52412
 11
-198.545
 21
-6.75528
  0
LINE
  8
0
 10
-198.545
 20
-6.75528
 11
-197.937
 21
-6.91142
  0
LINE
  8
0
 10
-197.937
 20
-6.91142
 11
-197.314
 21
-6.99013
  0
LINE
  8
0
 10
-197.314
 20
-6.99013
 11
197.314
 21
-6.99013
  0
LINE
  8
0
 10
197.314
 20
-6.99013
 11
197.937
 21
-6.91142
  0
LINE
  8
0
 10
-195.188
 20
-2.99408
 11
-195.562
 21
-2.94685
  0
LINE
  8
0
 10
-195.562
 20
-2.94685
 11
-195.927
 21
-2.85316
  0
LINE
  8
0
 10
-195.927
 20
-2.85316
 11
-196.277
 21
-2.71448
  0
LINE
  8
0
 10
-196.277
 20
-2.71448
 11
-196.607
 21
-2.53297
  0
LINE
  8
0
 10
-196.607
 20
-2.53297
 11
-196.912
 21
-2.31154
  0
LINE
  8
0
 10
-196.912
 20
-2.31154
 11
-197.187
 21
-2.05363
  0
LINE
  8
0
 10
-197.187
 20
-2.05363
 11
-197.427
 21
-1.76335
  0
LINE
  8
0
 10
-197.427
 20
-1.76335
 11
-197.629
 21
-1.44525
  0
LINE
  8
0
 10
-197.629
 20
-1.44525
 11
-197.789
 21
-1.10437
  0
LINE
  8
0
 10
-197.789
 20
-1.10437
 11
-197.906
 21
-0.746063
  0
LINE
  8
0
 10
-197.906
 20
-0.746063
 11
-197.976
 21
-0.375992
  0
LINE
  8
0
 10
-197.976
 20
-0.375992
 11
-198
 21
0
  0
LINE
  8
0
 10
-198
 20
0
 11
-197.976
 21
0.375992
  0
LINE
  8
0
 10
-197.976
 20
0.375992
 11
-197.906
 21
0.746063
  0
LINE
  8
0
 10
-197.906
 20
0.746063
 11
-197.789
 21
1.10437
  0
LINE
  8
0
 10
-197.789
 20
1.10437
 11
-197.629
 21
1.44525
  0
LINE
  8
0
 10
-197.629
 20
1.44525
 11
-197.427
 21
1.76335
  0
LINE
  8
0
 10
-197.427
 20
1.76335
 11
-197.187
 21
2.05363
  0
LINE
  8
0
 10
-197.187
 20
2.05363
 11
-196.912
 21
2.31154
  0
LINE
  8
0
 10
-196.912
 20
2.31154
 11
-196.607
 21
2.53297
  0
LINE
  8
0
 10
-196.607
 20
2.53297
 11
-196.277
 21
2.71448
  0
LINE
  8
0
 10
-196.277
 20
2.71448
 11
-195.927
 21
2.85316
  0
LINE
  8
0
 10
-195.927
 20
2.85316
 11
-195.562
 21
2.94685
  0
LINE
  8
0
 10
-195.562
 20
2.94685
 11
-195.188
 21
2.99408
  0
LINE
  8
0
 10
-195.188
 20
2.99408
 11
-194.812
 21
2.99408
  0
LINE
  8
0
 10
-194.812
 20
2.99408
 11
-194.438
 21
2.94685
  0
LINE
  8
0
 10
-194.438
 20
2.94685
 11
-194.073
 21
2.85316
  0
LINE
  8
0
 10
-194.073
 20
2.85316
 11
-193.723
 21
2.71448
  0
LINE
  8
0
 10
-193.723
 20
2.71448
 11
-193.393
 21
2.53297
  0
LINE
  8
0
 10
-193.393
 20
2.53297
 11
-193.088
 21
2.31154
  0
LINE
  8
0
 10
-193.088
 20
2.31154
 11
-192.813
 21
2.05363
  0
LINE
  8
0
 10
-192.813
 20
2.05363
 11
-192.573
 21
1.76335
  0
LINE
  8
0
 10
-192.573
 20
1.76335
 11
-192.371
 21
1.44525
  0
LINE
  8
0
 10
-192.371
 20
1.44525
 11
-192.211
 21
1.10437
  0
LINE
  8
0
 10
-192.211
 20
1.10437
 11
-192.094
 21
0.746063
  0
LINE
  8
0
 10
-192.094
 20
0.746063
 11
-192.024
 21
0.375992
  0
LINE
  8
0
 10
-192.024
 20
0.375992
 11
-192
 21
0
  0
LINE
  8
0
 10
-192
 20
0
 11
-192.024
 21
-0.375992
  0
LINE
  8
0
 10
-192.024
 20
-0.375992
 11
-192.094
 21
-0.746063
  0
LINE
  8
0
 10
-192.094
 20
-0.746063
 11
-192.211
 21
-1.10437
  0
LINE
  8
0
 10
-192.211
 20
-1.10437
 11
-192.371
 21
-1.44525
  0
LINE
  8
0
 10
-192.371
 20
-1.44525
 11
-192.573
 21
-1.76335
  0
LINE
  8
0
 10
-192.573
 20
-1.76335
 11
-192.813
 21
-2.05363
  0
LINE
  8
0
 10
-192.813
 20
-2.05363
 11
-193.088
 21
-2.31154
  0
LINE
  8
0
 10
-193.088
 20
-2.31154
 11
-193.393
 21
-2.53297
  0
LINE
  8
0
 10
-193.393
 20
-2.53297
 11
-193.723
 21
-2.71448
  0
LINE
  8
0
 10
-193.723
 20
-2.71448
 11
-194.073
 21
-2.85316
  0
LINE
  8
0
 10
-194.073
 20
-2.85316
 11
-194.438
 21
-2.94685
  0
LINE
  8
0
 10
-194.438
 20
-2.94685
 11
-194.812
 21
-2.99408
  0
LINE
  8
0
 10
-194.812
 20
-2.99408
 11
-195.188
 21
-2.99408
  0
ENDSEC
  0
SECTION
  2
OBJECTS
  0
DICTIONARY
  0
ENDSEC
  0
EOF
