  0
SECTION
  2
BLOCKS
  0
ENDSEC
  0
SECTION
  2
ENTITIES
  0
LINE
  8
0
 10
160.437
 20
-36.9114
 11
161.045
 21
-36.7553
  0
LINE
  8
0
 10
161.045
 20
-36.7553
 11
161.629
 21
-36.5241
  0
LINE
  8
0
 10
161.629
 20
-36.5241
 11
162.179
 21
-36.2216
  0
LINE
  8
0
 10
162.179
 20
-36.2216
 11
162.687
 21
-35.8526
  0
LINE
  8
0
 10
162.687
 20
-35.8526
 11
163.145
 21
-35.4227
  0
LINE
  8
0
 10
163.145
 20
-35.4227
 11
163.545
 21
-34.9389
  0
LINE
  8
0
 10
163.545
 20
-34.9389
 11
163.882
 21
-34.4088
  0
LINE
  8
0
 10
163.882
 20
-34.4088
 11
164.149
 21
-33.8406
  0
LINE
  8
0
 10
164.149
 20
-33.8406
 11
164.343
 21
-33.2434
  0
LINE
  8
0
 10
164.343
 20
-33.2434
 11
164.461
 21
-32.6267
  0
LINE
  8
0
 10
164.461
 20
-32.6267
 11
164.5
 21
-32
  0
LINE
  8
0
 10
164.5
 20
-32
 11
164.5
 21
32
  0
LINE
  8
0
 10
164.5
 20
32
 11
164.461
 21
32.6267
  0
LINE
  8
0
 10
164.461
 20
32.6267
 11
164.343
 21
33.2434
  0
LINE
  8
0
 10
164.343
 20
33.2434
 11
164.149
 21
33.8406
  0
LINE
  8
0
 10
164.149
 20
33.8406
 11
163.882
 21
34.4088
  0
LINE
  8
0
 10
163.882
 20
34.4088
 11
163.545
 21
34.9389
  0
LINE
  8
0
 10
163.545
 20
34.9389
 11
163.145
 21
35.4227
  0
LINE
  8
0
 10
163.145
 20
35.4227
 11
162.687
 21
35.8526
  0
LINE
  8
0
 10
162.687
 20
35.8526
 11
162.179
 21
36.2216
  0
LINE
  8
0
 10
162.179
 20
36.2216
 11
161.629
 21
36.5241
  0
LINE
  8
0
 10
161.629
 20
36.5241
 11
161.045
 21
36.7553
  0
LINE
  8
0
 10
161.045
 20
36.7553
 11
160.437
 21
36.9114
  0
LINE
  8
0
 10
160.437
 20
36.9114
 11
159.814
 21
36.9901
  0
LINE
  8
0
 10
159.814
 20
36.9901
 11
-159.814
 21
36.9901
  0
LINE
  8
0
 10
-159.814
 20
36.9901
 11
-160.437
 21
36.9114
  0
LINE
  8
0
 10
-160.437
 20
36.9114
 11
-161.045
 21
36.7553
  0
LINE
  8
0
 10
-161.045
 20
36.7553
 11
-161.629
 21
36.5241
  0
LINE
  8
0
 10
-161.629
 20
36.5241
 11
-162.179
 21
36.2216
  0
LINE
  8
0
 10
-162.179
 20
36.2216
 11
-162.687
 21
35.8526
  0
LINE
  8
0
 10
-162.687
 20
35.8526
 11
-163.145
 21
35.4227
  0
LINE
  8
0
 10
-163.145
 20
35.4227
 11
-163.545
 21
34.9389
  0
LINE
  8
0
 10
-163.545
 20
34.9389
 11
-163.882
 21
34.4088
  0
LINE
  8
0
 10
-163.882
 20
34.4088
 11
-164.149
 21
33.8406
  0
LINE
  8
0
 10
-164.149
 20
33.8406
 11
-164.343
 21
33.2434
  0
LINE
  8
0
 10
-164.343
 20
33.2434
 11
-164.461
 21
32.6267
  0
LINE
  8
0
 10
-164.461
 20
32.6267
 11
-164.5
 21
32
  0
LINE
  8
0
 10
-164.5
 20
32
 11
-164.5
 21
-32
  0
LINE
  8
0
 10
-164.5
 20
-32
 11
-164.461
 21
-32.6267
  0
LINE
  8
0
 10
-164.461
 20
-32.6267
 11
-164.343
 21
-33.2434
  0
LINE
  8
0
 10
-164.343
 20
-33.2434
 11
-164.149
 21
-33.8406
  0
LINE
  8
0
 10
-164.149
 20
-33.8406
 11
-163.882
 21
-34.4088
  0
LINE
  8
0
 10
-163.882
 20
-34.4088
 11
-163.545
 21
-34.9389
  0
LINE
  8
0
 10
-163.545
 20
-34.9389
 11
-163.145
 21
-35.4227
  0
LINE
  8
0
 10
-163.145
 20
-35.4227
 11
-162.687
 21
-35.8526
  0
LINE
  8
0
 10
-162.687
 20
-35.8526
 11
-162.179
 21
-36.2216
  0
LINE
  8
0
 10
-162.179
 20
-36.2216
 11
-161.629
 21
-36.5241
  0
LINE
  8
0
 10
-161.629
 20
-36.5241
 11
-161.045
 21
-36.7553
  0
LINE
  8
0
 10
-161.045
 20
-36.7553
 11
-160.437
 21
-36.9114
  0
LINE
  8
0
 10
-160.437
 20
-36.9114
 11
-159.814
 21
-36.9901
  0
LINE
  8
0
 10
-159.814
 20
-36.9901
 11
159.814
 21
-36.9901
  0
LINE
  8
0
 10
159.814
 20
-36.9901
 11
160.437
 21
-36.9114
  0
LINE
  8
0
 10
154.524
 20
30.376
 11
154.594
 21
30.7461
  0
LINE
  8
0
 10
154.594
 20
30.7461
 11
154.711
 21
31.1044
  0
LINE
  8
0
 10
154.711
 20
31.1044
 11
154.871
 21
31.4453
  0
LINE
  8
0
 10
154.871
 20
31.4453
 11
155.073
 21
31.7634
  0
LINE
  8
0
 10
155.073
 20
31.7634
 11
155.313
 21
32.0536
  0
LINE
  8
0
 10
155.313
 20
32.0536
 11
155.588
 21
32.3115
  0
LINE
  8
0
 10
155.588
 20
32.3115
 11
155.893
 21
32.533
  0
LINE
  8
0
 10
155.893
 20
32.533
 11
156.223
 21
32.7145
  0
LINE
  8
0
 10
156.223
 20
32.7145
 11
156.573
 21
32.8532
  0
LINE
  8
0
 10
156.573
 20
32.8532
 11
156.938
 21
32.9469
  0
LINE
  8
0
 10
156.938
 20
32.9469
 11
157.312
 21
32.9941
  0
LINE
  8
0
 10
157.312
 20
32.9941
 11
157.688
 21
32.9941
  0
LINE
  8
0
 10
157.688
 20
32.9941
 11
158.062
 21
32.9469
  0
LINE
  8
0
 10
158.062
 20
32.9469
 11
158.427
 21
32.8532
  0
LINE
  8
0
 10
158.427
 20
32.8532
 11
158.777
 21
32.7145
  0
LINE
  8
0
 10
158.777
 20
32.7145
 11
159.107
 21
32.533
  0
LINE
  8
0
 10
159.107
 20
32.533
 11
159.412
 21
32.3115
  0
LINE
  8
0
 10
159.412
 20
32.3115
 11
159.687
 21
32.0536
  0
LINE
  8
0
 10
159.687
 20
32.0536
 11
159.927
 21
31.7634
  0
LINE
  8
0
 10
159.927
 20
31.7634
 11
160.129
 21
31.4453
  0
LINE
  8
0
 10
160.129
 20
31.4453
 11
160.289
 21
31.1044
  0
LINE
  8
0
 10
160.289
 20
31.1044
 11
160.406
 21
30.7461
  0
LINE
  8
0
 10
160.406
 20
30.7461
 11
160.476
 21
30.376
  0
LINE
  8
0
 10
160.476
 20
30.376
 11
160.5
 21
30
  0
LINE
  8
0
 10
160.5
 20
30
 11
160.476
 21
29.624
  0
LINE
  8
0
 10
160.476
 20
29.624
 11
160.406
 21
29.2539
  0
LINE
  8
0
 10
160.406
 20
29.2539
 11
160.289
 21
28.8956
  0
LINE
  8
0
 10
160.289
 20
28.8956
 11
160.129
 21
28.5547
  0
LINE
  8
0
 10
160.129
 20
28.5547
 11
159.927
 21
28.2366
  0
LINE
  8
0
 10
159.927
 20
28.2366
 11
159.687
 21
27.9464
  0
LINE
  8
0
 10
159.687
 20
27.9464
 11
159.412
 21
27.6884
  0
LINE
  8
0
 10
159.412
 20
27.6884
 11
159.107
 21
27.467
  0
LINE
  8
0
 10
159.107
 20
27.467
 11
158.777
 21
27.2855
  0
LINE
  8
0
 10
158.777
 20
27.2855
 11
158.427
 21
27.1468
  0
LINE
  8
0
 10
158.427
 20
27.1468
 11
158.062
 21
27.0531
  0
LINE
  8
0
 10
158.062
 20
27.0531
 11
157.688
 21
27.0059
  0
LINE
  8
0
 10
157.688
 20
27.0059
 11
157.312
 21
27.0059
  0
LINE
  8
0
 10
157.312
 20
27.0059
 11
156.938
 21
27.0531
  0
LINE
  8
0
 10
156.938
 20
27.0531
 11
156.573
 21
27.1468
  0
LINE
  8
0
 10
156.573
 20
27.1468
 11
156.223
 21
27.2855
  0
LINE
  8
0
 10
156.223
 20
27.2855
 11
155.893
 21
27.467
  0
LINE
  8
0
 10
155.893
 20
27.467
 11
155.588
 21
27.6884
  0
LINE
  8
0
 10
155.588
 20
27.6884
 11
155.313
 21
27.9464
  0
LINE
  8
0
 10
155.313
 20
27.9464
 11
155.073
 21
28.2366
  0
LINE
  8
0
 10
155.073
 20
28.2366
 11
154.871
 21
28.5547
  0
LINE
  8
0
 10
154.871
 20
28.5547
 11
154.711
 21
28.8956
  0
LINE
  8
0
 10
154.711
 20
28.8956
 11
154.594
 21
29.2539
  0
LINE
  8
0
 10
154.594
 20
29.2539
 11
154.524
 21
29.624
  0
LINE
  8
0
 10
154.524
 20
29.624
 11
154.5
 21
30
  0
LINE
  8
0
 10
154.5
 20
30
 11
154.524
 21
30.376
  0
LINE
  8
0
 10
-157.688
 20
-32.9941
 11
-158.062
 21
-32.9469
  0
LINE
  8
0
 10
-158.062
 20
-32.9469
 11
-158.427
 21
-32.8532
  0
LINE
  8
0
 10
-158.427
 20
-32.8532
 11
-158.777
 21
-32.7145
  0
LINE
  8
0
 10
-158.777
 20
-32.7145
 11
-159.107
 21
-32.533
  0
LINE
  8
0
 10
-159.107
 20
-32.533
 11
-159.412
 21
-32.3115
  0
LINE
  8
0
 10
-159.412
 20
-32.3115
 11
-159.687
 21
-32.0536
  0
LINE
  8
0
 10
-159.687
 20
-32.0536
 11
-159.927
 21
-31.7634
  0
LINE
  8
0
 10
-159.927
 20
-31.7634
 11
-160.129
 21
-31.4453
  0
LINE
  8
0
 10
-160.129
 20
-31.4453
 11
-160.289
 21
-31.1044
  0
LINE
  8
0
 10
-160.289
 20
-31.1044
 11
-160.406
 21
-30.7461
  0
LINE
  8
0
 10
-160.406
 20
-30.7461
 11
-160.476
 21
-30.376
  0
LINE
  8
0
 10
-160.476
 20
-30.376
 11
-160.5
 21
-30
  0
LINE
  8
0
 10
-160.5
 20
-30
 11
-160.476
 21
-29.624
  0
LINE
  8
0
 10
-160.476
 20
-29.624
 11
-160.406
 21
-29.2539
  0
LINE
  8
0
 10
-160.406
 20
-29.2539
 11
-160.289
 21
-28.8956
  0
LINE
  8
0
 10
-160.289
 20
-28.8956
 11
-160.129
 21
-28.5547
  0
LINE
  8
0
 10
-160.129
 20
-28.5547
 11
-159.927
 21
-28.2366
  0
LINE
  8
0
 10
-159.927
 20
-28.2366
 11
-159.687
 21
-27.9464
  0
LINE
  8
0
 10
-159.687
 20
-27.9464
 11
-159.412
 21
-27.6884
  0
LINE
  8
0
 10
-159.412
 20
-27.6884
 11
-159.107
 21
-27.467
  0
LINE
  8
0
 10
-159.107
 20
-27.467
 11
-158.777
 21
-27.2855
  0
LINE
  8
0
 10
-158.777
 20
-27.2855
 11
-158.427
 21
-27.1468
  0
LINE
  8
0
 10
-158.427
 20
-27.1468
 11
-158.062
 21
-27.0531
  0
LINE
  8
0
 10
-158.062
 20
-27.0531
 11
-157.688
 21
-27.0059
  0
LINE
  8
0
 10
-157.688
 20
-27.0059
 11
-157.312
 21
-27.0059
  0
LINE
  8
0
 10
-157.312
 20
-27.0059
 11
-156.938
 21
-27.0531
  0
LINE
  8
0
 10
-156.938
 20
-27.0531
 11
-156.573
 21
-27.1468
  0
LINE
  8
0
 10
-156.573
 20
-27.1468
 11
-156.223
 21
-27.2855
  0
LINE
  8
0
 10
-156.223
 20
-27.2855
 11
-155.893
 21
-27.467
  0
LINE
  8
0
 10
-155.893
 20
-27.467
 11
-155.588
 21
-27.6884
  0
LINE
  8
0
 10
-155.588
 20
-27.6884
 11
-155.313
 21
-27.9464
  0
LINE
  8
0
 10
-155.313
 20
-27.9464
 11
-155.073
 21
-28.2366
  0
LINE
  8
0
 10
-155.073
 20
-28.2366
 11
-154.871
 21
-28.5547
  0
LINE
  8
0
 10
-154.871
 20
-28.5547
 11
-154.711
 21
-28.8956
  0
LINE
  8
0
 10
-154.711
 20
-28.8956
 11
-154.594
 21
-29.2539
  0
LINE
  8
0
 10
-154.594
 20
-29.2539
 11
-154.524
 21
-29.624
  0
LINE
  8
0
 10
-154.524
 20
-29.624
 11
-154.5
 21
-30
  0
LINE
  8
0
 10
-154.5
 20
-30
 11
-154.524
 21
-30.376
  0
LINE
  8
0
 10
-154.524
 20
-30.376
 11
-154.594
 21
-30.7461
  0
LINE
  8
0
 10
-154.594
 20
-30.7461
 11
-154.711
 21
-31.1044
  0
LINE
  8
0
 10
-154.711
 20
-31.1044
 11
-154.871
 21
-31.4453
  0
LINE
  8
0
 10
-154.871
 20
-31.4453
 11
-155.073
 21
-31.7634
  0
LINE
  8
0
 10
-155.073
 20
-31.7634
 11
-155.313
 21
-32.0536
  0
LINE
  8
0
 10
-155.313
 20
-32.0536
 11
-155.588
 21
-32.3115
  0
LINE
  8
0
 10
-155.588
 20
-32.3115
 11
-155.893
 21
-32.533
  0
LINE
  8
0
 10
-155.893
 20
-32.533
 11
-156.223
 21
-32.7145
  0
LINE
  8
0
 10
-156.223
 20
-32.7145
 11
-156.573
 21
-32.8532
  0
LINE
  8
0
 10
-156.573
 20
-32.8532
 11
-156.938
 21
-32.9469
  0
LINE
  8
0
 10
-156.938
 20
-32.9469
 11
-157.312
 21
-32.9941
  0
LINE
  8
0
 10
-157.312
 20
-32.9941
 11
-157.688
 21
-32.9941
  0
LINE
  8
0
 10
157.312
 20
-32.9941
 11
156.938
 21
-32.9469
  0
LINE
  8
0
 10
156.938
 20
-32.9469
 11
156.573
 21
-32.8532
  0
LINE
  8
0
 10
156.573
 20
-32.8532
 11
156.223
 21
-32.7145
  0
LINE
  8
0
 10
156.223
 20
-32.7145
 11
155.893
 21
-32.533
  0
LINE
  8
0
 10
155.893
 20
-32.533
 11
155.588
 21
-32.3115
  0
LINE
  8
0
 10
155.588
 20
-32.3115
 11
155.313
 21
-32.0536
  0
LINE
  8
0
 10
155.313
 20
-32.0536
 11
155.073
 21
-31.7634
  0
LINE
  8
0
 10
155.073
 20
-31.7634
 11
154.871
 21
-31.4453
  0
LINE
  8
0
 10
154.871
 20
-31.4453
 11
154.711
 21
-31.1044
  0
LINE
  8
0
 10
154.711
 20
-31.1044
 11
154.594
 21
-30.7461
  0
LINE
  8
0
 10
154.594
 20
-30.7461
 11
154.524
 21
-30.376
  0
LINE
  8
0
 10
154.524
 20
-30.376
 11
154.5
 21
-30
  0
LINE
  8
0
 10
154.5
 20
-30
 11
154.524
 21
-29.624
  0
LINE
  8
0
 10
154.524
 20
-29.624
 11
154.594
 21
-29.2539
  0
LINE
  8
0
 10
154.594
 20
-29.2539
 11
154.711
 21
-28.8956
  0
LINE
  8
0
 10
154.711
 20
-28.8956
 11
154.871
 21
-28.5547
  0
LINE
  8
0
 10
154.871
 20
-28.5547
 11
155.073
 21
-28.2366
  0
LINE
  8
0
 10
155.073
 20
-28.2366
 11
155.313
 21
-27.9464
  0
LINE
  8
0
 10
155.313
 20
-27.9464
 11
155.588
 21
-27.6884
  0
LINE
  8
0
 10
155.588
 20
-27.6884
 11
155.893
 21
-27.467
  0
LINE
  8
0
 10
155.893
 20
-27.467
 11
156.223
 21
-27.2855
  0
LINE
  8
0
 10
156.223
 20
-27.2855
 11
156.573
 21
-27.1468
  0
LINE
  8
0
 10
156.573
 20
-27.1468
 11
156.938
 21
-27.0531
  0
LINE
  8
0
 10
156.938
 20
-27.0531
 11
157.312
 21
-27.0059
  0
LINE
  8
0
 10
157.312
 20
-27.0059
 11
157.688
 21
-27.0059
  0
LINE
  8
0
 10
157.688
 20
-27.0059
 11
158.062
 21
-27.0531
  0
LINE
  8
0
 10
158.062
 20
-27.0531
 11
158.427
 21
-27.1468
  0
LINE
  8
0
 10
158.427
 20
-27.1468
 11
158.777
 21
-27.2855
  0
LINE
  8
0
 10
158.777
 20
-27.2855
 11
159.107
 21
-27.467
  0
LINE
  8
0
 10
159.107
 20
-27.467
 11
159.412
 21
-27.6884
  0
LINE
  8
0
 10
159.412
 20
-27.6884
 11
159.687
 21
-27.9464
  0
LINE
  8
0
 10
159.687
 20
-27.9464
 11
159.927
 21
-28.2366
  0
LINE
  8
0
 10
159.927
 20
-28.2366
 11
160.129
 21
-28.5547
  0
LINE
  8
0
 10
160.129
 20
-28.5547
 11
160.289
 21
-28.8956
  0
LINE
  8
0
 10
160.289
 20
-28.8956
 11
160.406
 21
-29.2539
  0
LINE
  8
0
 10
160.406
 20
-29.2539
 11
160.476
 21
-29.624
  0
LINE
  8
0
 10
160.476
 20
-29.624
 11
160.5
 21
-30
  0
LINE
  8
0
 10
160.5
 20
-30
 11
160.476
 21
-30.376
  0
LINE
  8
0
 10
160.476
 20
-30.376
 11
160.406
 21
-30.7461
  0
LINE
  8
0
 10
160.406
 20
-30.7461
 11
160.289
 21
-31.1044
  0
LINE
  8
0
 10
160.289
 20
-31.1044
 11
160.129
 21
-31.4453
  0
LINE
  8
0
 10
160.129
 20
-31.4453
 11
159.927
 21
-31.7634
  0
LINE
  8
0
 10
159.927
 20
-31.7634
 11
159.687
 21
-32.0536
  0
LINE
  8
0
 10
159.687
 20
-32.0536
 11
159.412
 21
-32.3115
  0
LINE
  8
0
 10
159.412
 20
-32.3115
 11
159.107
 21
-32.533
  0
LINE
  8
0
 10
159.107
 20
-32.533
 11
158.777
 21
-32.7145
  0
LINE
  8
0
 10
158.777
 20
-32.7145
 11
158.427
 21
-32.8532
  0
LINE
  8
0
 10
158.427
 20
-32.8532
 11
158.062
 21
-32.9469
  0
LINE
  8
0
 10
158.062
 20
-32.9469
 11
157.688
 21
-32.9941
  0
LINE
  8
0
 10
157.688
 20
-32.9941
 11
157.312
 21
-32.9941
  0
LINE
  8
0
 10
-154.711
 20
28.8956
 11
-154.871
 21
28.5547
  0
LINE
  8
0
 10
-154.871
 20
28.5547
 11
-155.073
 21
28.2366
  0
LINE
  8
0
 10
-155.073
 20
28.2366
 11
-155.313
 21
27.9464
  0
LINE
  8
0
 10
-155.313
 20
27.9464
 11
-155.588
 21
27.6884
  0
LINE
  8
0
 10
-155.588
 20
27.6884
 11
-155.893
 21
27.467
  0
LINE
  8
0
 10
-155.893
 20
27.467
 11
-156.223
 21
27.2855
  0
LINE
  8
0
 10
-156.223
 20
27.2855
 11
-156.573
 21
27.1468
  0
LINE
  8
0
 10
-156.573
 20
27.1468
 11
-156.938
 21
27.0531
  0
LINE
  8
0
 10
-156.938
 20
27.0531
 11
-157.312
 21
27.0059
  0
LINE
  8
0
 10
-157.312
 20
27.0059
 11
-157.688
 21
27.0059
  0
LINE
  8
0
 10
-157.688
 20
27.0059
 11
-158.062
 21
27.0531
  0
LINE
  8
0
 10
-158.062
 20
27.0531
 11
-158.427
 21
27.1468
  0
LINE
  8
0
 10
-158.427
 20
27.1468
 11
-158.777
 21
27.2855
  0
LINE
  8
0
 10
-158.777
 20
27.2855
 11
-159.107
 21
27.467
  0
LINE
  8
0
 10
-159.107
 20
27.467
 11
-159.412
 21
27.6884
  0
LINE
  8
0
 10
-159.412
 20
27.6884
 11
-159.687
 21
27.9464
  0
LINE
  8
0
 10
-159.687
 20
27.9464
 11
-159.927
 21
28.2366
  0
LINE
  8
0
 10
-159.927
 20
28.2366
 11
-160.129
 21
28.5547
  0
LINE
  8
0
 10
-160.129
 20
28.5547
 11
-160.289
 21
28.8956
  0
LINE
  8
0
 10
-160.289
 20
28.8956
 11
-160.406
 21
29.2539
  0
LINE
  8
0
 10
-160.406
 20
29.2539
 11
-160.476
 21
29.624
  0
LINE
  8
0
 10
-160.476
 20
29.624
 11
-160.5
 21
30
  0
LINE
  8
0
 10
-160.5
 20
30
 11
-160.476
 21
30.376
  0
LINE
  8
0
 10
-160.476
 20
30.376
 11
-160.406
 21
30.7461
  0
LINE
  8
0
 10
-160.406
 20
30.7461
 11
-160.289
 21
31.1044
  0
LINE
  8
0
 10
-160.289
 20
31.1044
 11
-160.129
 21
31.4453
  0
LINE
  8
0
 10
-160.129
 20
31.4453
 11
-159.927
 21
31.7634
  0
LINE
  8
0
 10
-159.927
 20
31.7634
 11
-159.687
 21
32.0536
  0
LINE
  8
0
 10
-159.687
 20
32.0536
 11
-159.412
 21
32.3115
  0
LINE
  8
0
 10
-159.412
 20
32.3115
 11
-159.107
 21
32.533
  0
LINE
  8
0
 10
-159.107
 20
32.533
 11
-158.777
 21
32.7145
  0
LINE
  8
0
 10
-158.777
 20
32.7145
 11
-158.427
 21
32.8532
  0
LINE
  8
0
 10
-158.427
 20
32.8532
 11
-158.062
 21
32.9469
  0
LINE
  8
0
 10
-158.062
 20
32.9469
 11
-157.688
 21
32.9941
  0
LINE
  8
0
 10
-157.688
 20
32.9941
 11
-157.312
 21
32.9941
  0
LINE
  8
0
 10
-157.312
 20
32.9941
 11
-156.938
 21
32.9469
  0
LINE
  8
0
 10
-156.938
 20
32.9469
 11
-156.573
 21
32.8532
  0
LINE
  8
0
 10
-156.573
 20
32.8532
 11
-156.223
 21
32.7145
  0
LINE
  8
0
 10
-156.223
 20
32.7145
 11
-155.893
 21
32.533
  0
LINE
  8
0
 10
-155.893
 20
32.533
 11
-155.588
 21
32.3115
  0
LINE
  8
0
 10
-155.588
 20
32.3115
 11
-155.313
 21
32.0536
  0
LINE
  8
0
 10
-155.313
 20
32.0536
 11
-155.073
 21
31.7634
  0
LINE
  8
0
 10
-155.073
 20
31.7634
 11
-154.871
 21
31.4453
  0
LINE
  8
0
 10
-154.871
 20
31.4453
 11
-154.711
 21
31.1044
  0
LINE
  8
0
 10
-154.711
 20
31.1044
 11
-154.594
 21
30.7461
  0
LINE
  8
0
 10
-154.594
 20
30.7461
 11
-154.524
 21
30.376
  0
LINE
  8
0
 10
-154.524
 20
30.376
 11
-154.5
 21
30
  0
LINE
  8
0
 10
-154.5
 20
30
 11
-154.524
 21
29.624
  0
LINE
  8
0
 10
-154.524
 20
29.624
 11
-154.594
 21
29.2539
  0
LINE
  8
0
 10
-154.594
 20
29.2539
 11
-154.711
 21
28.8956
  0
ENDSEC
  0
SECTION
  2
OBJECTS
  0
DICTIONARY
  0
ENDSEC
  0
EOF
