  0
SECTION
  2
BLOCKS
  0
ENDSEC
  0
SECTION
  2
ENTITIES
  0
LINE
  8
0
 10
70.4369
 20
-14.4114
 11
71.0451
 21
-14.2553
  0
LINE
  8
0
 10
71.0451
 20
-14.2553
 11
71.6289
 21
-14.0241
  0
LINE
  8
0
 10
71.6289
 20
-14.0241
 11
72.1791
 21
-13.7216
  0
LINE
  8
0
 10
72.1791
 20
-13.7216
 11
72.6871
 21
-13.3526
  0
LINE
  8
0
 10
72.6871
 20
-13.3526
 11
73.1448
 21
-12.9227
  0
LINE
  8
0
 10
73.1448
 20
-12.9227
 11
73.5451
 21
-12.4389
  0
LINE
  8
0
 10
73.5451
 20
-12.4389
 11
73.8815
 21
-11.9088
  0
LINE
  8
0
 10
73.8815
 20
-11.9088
 11
74.1489
 21
-11.3406
  0
LINE
  8
0
 10
74.1489
 20
-11.3406
 11
74.3429
 21
-10.7434
  0
LINE
  8
0
 10
74.3429
 20
-10.7434
 11
74.4606
 21
-10.1267
  0
LINE
  8
0
 10
74.4606
 20
-10.1267
 11
74.5
 21
-9.5
  0
LINE
  8
0
 10
74.5
 20
-9.5
 11
74.5
 21
9.5
  0
LINE
  8
0
 10
74.5
 20
9.5
 11
74.4606
 21
10.1267
  0
LINE
  8
0
 10
74.4606
 20
10.1267
 11
74.3429
 21
10.7434
  0
LINE
  8
0
 10
74.3429
 20
10.7434
 11
74.1489
 21
11.3406
  0
LINE
  8
0
 10
74.1489
 20
11.3406
 11
73.8815
 21
11.9088
  0
LINE
  8
0
 10
73.8815
 20
11.9088
 11
73.5451
 21
12.4389
  0
LINE
  8
0
 10
73.5451
 20
12.4389
 11
73.1448
 21
12.9227
  0
LINE
  8
0
 10
73.1448
 20
12.9227
 11
72.6871
 21
13.3526
  0
LINE
  8
0
 10
72.6871
 20
13.3526
 11
72.1791
 21
13.7216
  0
LINE
  8
0
 10
72.1791
 20
13.7216
 11
71.6289
 21
14.0241
  0
LINE
  8
0
 10
71.6289
 20
14.0241
 11
71.0451
 21
14.2553
  0
LINE
  8
0
 10
71.0451
 20
14.2553
 11
70.4369
 21
14.4114
  0
LINE
  8
0
 10
70.4369
 20
14.4114
 11
69.8139
 21
14.4901
  0
LINE
  8
0
 10
69.8139
 20
14.4901
 11
-69.8139
 21
14.4901
  0
LINE
  8
0
 10
-69.8139
 20
14.4901
 11
-70.4369
 21
14.4114
  0
LINE
  8
0
 10
-70.4369
 20
14.4114
 11
-71.0451
 21
14.2553
  0
LINE
  8
0
 10
-71.0451
 20
14.2553
 11
-71.6289
 21
14.0241
  0
LINE
  8
0
 10
-71.6289
 20
14.0241
 11
-72.1791
 21
13.7216
  0
LINE
  8
0
 10
-72.1791
 20
13.7216
 11
-72.6871
 21
13.3526
  0
LINE
  8
0
 10
-72.6871
 20
13.3526
 11
-73.1448
 21
12.9227
  0
LINE
  8
0
 10
-73.1448
 20
12.9227
 11
-73.5451
 21
12.4389
  0
LINE
  8
0
 10
-73.5451
 20
12.4389
 11
-73.8815
 21
11.9088
  0
LINE
  8
0
 10
-73.8815
 20
11.9088
 11
-74.1489
 21
11.3406
  0
LINE
  8
0
 10
-74.1489
 20
11.3406
 11
-74.3429
 21
10.7434
  0
LINE
  8
0
 10
-74.3429
 20
10.7434
 11
-74.4606
 21
10.1267
  0
LINE
  8
0
 10
-74.4606
 20
10.1267
 11
-74.5
 21
9.5
  0
LINE
  8
0
 10
-74.5
 20
9.5
 11
-74.5
 21
-9.5
  0
LINE
  8
0
 10
-74.5
 20
-9.5
 11
-74.4606
 21
-10.1267
  0
LINE
  8
0
 10
-74.4606
 20
-10.1267
 11
-74.3429
 21
-10.7434
  0
LINE
  8
0
 10
-74.3429
 20
-10.7434
 11
-74.1489
 21
-11.3406
  0
LINE
  8
0
 10
-74.1489
 20
-11.3406
 11
-73.8815
 21
-11.9088
  0
LINE
  8
0
 10
-73.8815
 20
-11.9088
 11
-73.5451
 21
-12.4389
  0
LINE
  8
0
 10
-73.5451
 20
-12.4389
 11
-73.1448
 21
-12.9227
  0
LINE
  8
0
 10
-73.1448
 20
-12.9227
 11
-72.6871
 21
-13.3526
  0
LINE
  8
0
 10
-72.6871
 20
-13.3526
 11
-72.1791
 21
-13.7216
  0
LINE
  8
0
 10
-72.1791
 20
-13.7216
 11
-71.6289
 21
-14.0241
  0
LINE
  8
0
 10
-71.6289
 20
-14.0241
 11
-71.0451
 21
-14.2553
  0
LINE
  8
0
 10
-71.0451
 20
-14.2553
 11
-70.4369
 21
-14.4114
  0
LINE
  8
0
 10
-70.4369
 20
-14.4114
 11
-69.8139
 21
-14.4901
  0
LINE
  8
0
 10
-69.8139
 20
-14.4901
 11
69.8139
 21
-14.4901
  0
LINE
  8
0
 10
69.8139
 20
-14.4901
 11
70.4369
 21
-14.4114
  0
LINE
  8
0
 10
64.5237
 20
7.87599
 11
64.5943
 21
8.24606
  0
LINE
  8
0
 10
64.5943
 20
8.24606
 11
64.7107
 21
8.60437
  0
LINE
  8
0
 10
64.7107
 20
8.60437
 11
64.8711
 21
8.94525
  0
LINE
  8
0
 10
64.8711
 20
8.94525
 11
65.073
 21
9.26335
  0
LINE
  8
0
 10
65.073
 20
9.26335
 11
65.3131
 21
9.55363
  0
LINE
  8
0
 10
65.3131
 20
9.55363
 11
65.5877
 21
9.81154
  0
LINE
  8
0
 10
65.5877
 20
9.81154
 11
65.8925
 21
10.033
  0
LINE
  8
0
 10
65.8925
 20
10.033
 11
66.2227
 21
10.2145
  0
LINE
  8
0
 10
66.2227
 20
10.2145
 11
66.573
 21
10.3532
  0
LINE
  8
0
 10
66.573
 20
10.3532
 11
66.9379
 21
10.4469
  0
LINE
  8
0
 10
66.9379
 20
10.4469
 11
67.3116
 21
10.4941
  0
LINE
  8
0
 10
67.3116
 20
10.4941
 11
67.6884
 21
10.4941
  0
LINE
  8
0
 10
67.6884
 20
10.4941
 11
68.0621
 21
10.4469
  0
LINE
  8
0
 10
68.0621
 20
10.4469
 11
68.427
 21
10.3532
  0
LINE
  8
0
 10
68.427
 20
10.3532
 11
68.7773
 21
10.2145
  0
LINE
  8
0
 10
68.7773
 20
10.2145
 11
69.1075
 21
10.033
  0
LINE
  8
0
 10
69.1075
 20
10.033
 11
69.4123
 21
9.81154
  0
LINE
  8
0
 10
69.4123
 20
9.81154
 11
69.6869
 21
9.55363
  0
LINE
  8
0
 10
69.6869
 20
9.55363
 11
69.927
 21
9.26335
  0
LINE
  8
0
 10
69.927
 20
9.26335
 11
70.1289
 21
8.94525
  0
LINE
  8
0
 10
70.1289
 20
8.94525
 11
70.2893
 21
8.60437
  0
LINE
  8
0
 10
70.2893
 20
8.60437
 11
70.4057
 21
8.24606
  0
LINE
  8
0
 10
70.4057
 20
8.24606
 11
70.4763
 21
7.87599
  0
LINE
  8
0
 10
70.4763
 20
7.87599
 11
70.5
 21
7.5
  0
LINE
  8
0
 10
70.5
 20
7.5
 11
70.4763
 21
7.12399
  0
LINE
  8
0
 10
70.4763
 20
7.12399
 11
70.4057
 21
6.75392
  0
LINE
  8
0
 10
70.4057
 20
6.75392
 11
70.2893
 21
6.39561
  0
LINE
  8
0
 10
70.2893
 20
6.39561
 11
70.1289
 21
6.05473
  0
LINE
  8
0
 10
70.1289
 20
6.05473
 11
69.927
 21
5.73663
  0
LINE
  8
0
 10
69.927
 20
5.73663
 11
69.6869
 21
5.44635
  0
LINE
  8
0
 10
69.6869
 20
5.44635
 11
69.4123
 21
5.18845
  0
LINE
  8
0
 10
69.4123
 20
5.18845
 11
69.1075
 21
4.96701
  0
LINE
  8
0
 10
69.1075
 20
4.96701
 11
68.7773
 21
4.78551
  0
LINE
  8
0
 10
68.7773
 20
4.78551
 11
68.427
 21
4.64682
  0
LINE
  8
0
 10
68.427
 20
4.64682
 11
68.0621
 21
4.55313
  0
LINE
  8
0
 10
68.0621
 20
4.55313
 11
67.6884
 21
4.50591
  0
LINE
  8
0
 10
67.6884
 20
4.50591
 11
67.3116
 21
4.50591
  0
LINE
  8
0
 10
67.3116
 20
4.50591
 11
66.9379
 21
4.55313
  0
LINE
  8
0
 10
66.9379
 20
4.55313
 11
66.573
 21
4.64682
  0
LINE
  8
0
 10
66.573
 20
4.64682
 11
66.2227
 21
4.78551
  0
LINE
  8
0
 10
66.2227
 20
4.78551
 11
65.8925
 21
4.96701
  0
LINE
  8
0
 10
65.8925
 20
4.96701
 11
65.5877
 21
5.18845
  0
LINE
  8
0
 10
65.5877
 20
5.18845
 11
65.3131
 21
5.44635
  0
LINE
  8
0
 10
65.3131
 20
5.44635
 11
65.073
 21
5.73663
  0
LINE
  8
0
 10
65.073
 20
5.73663
 11
64.8711
 21
6.05473
  0
LINE
  8
0
 10
64.8711
 20
6.05473
 11
64.7107
 21
6.39561
  0
LINE
  8
0
 10
64.7107
 20
6.39561
 11
64.5943
 21
6.75392
  0
LINE
  8
0
 10
64.5943
 20
6.75392
 11
64.5237
 21
7.12399
  0
LINE
  8
0
 10
64.5237
 20
7.12399
 11
64.5
 21
7.5
  0
LINE
  8
0
 10
64.5
 20
7.5
 11
64.5237
 21
7.87599
  0
LINE
  8
0
 10
-67.6884
 20
-10.4941
 11
-68.0621
 21
-10.4469
  0
LINE
  8
0
 10
-68.0621
 20
-10.4469
 11
-68.427
 21
-10.3532
  0
LINE
  8
0
 10
-68.427
 20
-10.3532
 11
-68.7773
 21
-10.2145
  0
LINE
  8
0
 10
-68.7773
 20
-10.2145
 11
-69.1075
 21
-10.033
  0
LINE
  8
0
 10
-69.1075
 20
-10.033
 11
-69.4123
 21
-9.81154
  0
LINE
  8
0
 10
-69.4123
 20
-9.81154
 11
-69.6869
 21
-9.55363
  0
LINE
  8
0
 10
-69.6869
 20
-9.55363
 11
-69.927
 21
-9.26335
  0
LINE
  8
0
 10
-69.927
 20
-9.26335
 11
-70.1289
 21
-8.94525
  0
LINE
  8
0
 10
-70.1289
 20
-8.94525
 11
-70.2893
 21
-8.60437
  0
LINE
  8
0
 10
-70.2893
 20
-8.60437
 11
-70.4057
 21
-8.24606
  0
LINE
  8
0
 10
-70.4057
 20
-8.24606
 11
-70.4763
 21
-7.87599
  0
LINE
  8
0
 10
-70.4763
 20
-7.87599
 11
-70.5
 21
-7.5
  0
LINE
  8
0
 10
-70.5
 20
-7.5
 11
-70.4763
 21
-7.12399
  0
LINE
  8
0
 10
-70.4763
 20
-7.12399
 11
-70.4057
 21
-6.75392
  0
LINE
  8
0
 10
-70.4057
 20
-6.75392
 11
-70.2893
 21
-6.39561
  0
LINE
  8
0
 10
-70.2893
 20
-6.39561
 11
-70.1289
 21
-6.05473
  0
LINE
  8
0
 10
-70.1289
 20
-6.05473
 11
-69.927
 21
-5.73663
  0
LINE
  8
0
 10
-69.927
 20
-5.73663
 11
-69.6869
 21
-5.44635
  0
LINE
  8
0
 10
-69.6869
 20
-5.44635
 11
-69.4123
 21
-5.18845
  0
LINE
  8
0
 10
-69.4123
 20
-5.18845
 11
-69.1075
 21
-4.96701
  0
LINE
  8
0
 10
-69.1075
 20
-4.96701
 11
-68.7773
 21
-4.78551
  0
LINE
  8
0
 10
-68.7773
 20
-4.78551
 11
-68.427
 21
-4.64682
  0
LINE
  8
0
 10
-68.427
 20
-4.64682
 11
-68.0621
 21
-4.55313
  0
LINE
  8
0
 10
-68.0621
 20
-4.55313
 11
-67.6884
 21
-4.50591
  0
LINE
  8
0
 10
-67.6884
 20
-4.50591
 11
-67.3116
 21
-4.50591
  0
LINE
  8
0
 10
-67.3116
 20
-4.50591
 11
-66.9379
 21
-4.55313
  0
LINE
  8
0
 10
-66.9379
 20
-4.55313
 11
-66.573
 21
-4.64682
  0
LINE
  8
0
 10
-66.573
 20
-4.64682
 11
-66.2227
 21
-4.78551
  0
LINE
  8
0
 10
-66.2227
 20
-4.78551
 11
-65.8925
 21
-4.96701
  0
LINE
  8
0
 10
-65.8925
 20
-4.96701
 11
-65.5877
 21
-5.18845
  0
LINE
  8
0
 10
-65.5877
 20
-5.18845
 11
-65.3131
 21
-5.44635
  0
LINE
  8
0
 10
-65.3131
 20
-5.44635
 11
-65.073
 21
-5.73663
  0
LINE
  8
0
 10
-65.073
 20
-5.73663
 11
-64.8711
 21
-6.05473
  0
LINE
  8
0
 10
-64.8711
 20
-6.05473
 11
-64.7107
 21
-6.39561
  0
LINE
  8
0
 10
-64.7107
 20
-6.39561
 11
-64.5943
 21
-6.75392
  0
LINE
  8
0
 10
-64.5943
 20
-6.75392
 11
-64.5237
 21
-7.12399
  0
LINE
  8
0
 10
-64.5237
 20
-7.12399
 11
-64.5
 21
-7.5
  0
LINE
  8
0
 10
-64.5
 20
-7.5
 11
-64.5237
 21
-7.87599
  0
LINE
  8
0
 10
-64.5237
 20
-7.87599
 11
-64.5943
 21
-8.24606
  0
LINE
  8
0
 10
-64.5943
 20
-8.24606
 11
-64.7107
 21
-8.60437
  0
LINE
  8
0
 10
-64.7107
 20
-8.60437
 11
-64.8711
 21
-8.94525
  0
LINE
  8
0
 10
-64.8711
 20
-8.94525
 11
-65.073
 21
-9.26335
  0
LINE
  8
0
 10
-65.073
 20
-9.26335
 11
-65.3131
 21
-9.55363
  0
LINE
  8
0
 10
-65.3131
 20
-9.55363
 11
-65.5877
 21
-9.81154
  0
LINE
  8
0
 10
-65.5877
 20
-9.81154
 11
-65.8925
 21
-10.033
  0
LINE
  8
0
 10
-65.8925
 20
-10.033
 11
-66.2227
 21
-10.2145
  0
LINE
  8
0
 10
-66.2227
 20
-10.2145
 11
-66.573
 21
-10.3532
  0
LINE
  8
0
 10
-66.573
 20
-10.3532
 11
-66.9379
 21
-10.4469
  0
LINE
  8
0
 10
-66.9379
 20
-10.4469
 11
-67.3116
 21
-10.4941
  0
LINE
  8
0
 10
-67.3116
 20
-10.4941
 11
-67.6884
 21
-10.4941
  0
LINE
  8
0
 10
67.3116
 20
-10.4941
 11
66.9379
 21
-10.4469
  0
LINE
  8
0
 10
66.9379
 20
-10.4469
 11
66.573
 21
-10.3532
  0
LINE
  8
0
 10
66.573
 20
-10.3532
 11
66.2227
 21
-10.2145
  0
LINE
  8
0
 10
66.2227
 20
-10.2145
 11
65.8925
 21
-10.033
  0
LINE
  8
0
 10
65.8925
 20
-10.033
 11
65.5877
 21
-9.81154
  0
LINE
  8
0
 10
65.5877
 20
-9.81154
 11
65.3131
 21
-9.55363
  0
LINE
  8
0
 10
65.3131
 20
-9.55363
 11
65.073
 21
-9.26335
  0
LINE
  8
0
 10
65.073
 20
-9.26335
 11
64.8711
 21
-8.94525
  0
LINE
  8
0
 10
64.8711
 20
-8.94525
 11
64.7107
 21
-8.60437
  0
LINE
  8
0
 10
64.7107
 20
-8.60437
 11
64.5943
 21
-8.24606
  0
LINE
  8
0
 10
64.5943
 20
-8.24606
 11
64.5237
 21
-7.87599
  0
LINE
  8
0
 10
64.5237
 20
-7.87599
 11
64.5
 21
-7.5
  0
LINE
  8
0
 10
64.5
 20
-7.5
 11
64.5237
 21
-7.12399
  0
LINE
  8
0
 10
64.5237
 20
-7.12399
 11
64.5943
 21
-6.75392
  0
LINE
  8
0
 10
64.5943
 20
-6.75392
 11
64.7107
 21
-6.39561
  0
LINE
  8
0
 10
64.7107
 20
-6.39561
 11
64.8711
 21
-6.05473
  0
LINE
  8
0
 10
64.8711
 20
-6.05473
 11
65.073
 21
-5.73663
  0
LINE
  8
0
 10
65.073
 20
-5.73663
 11
65.3131
 21
-5.44635
  0
LINE
  8
0
 10
65.3131
 20
-5.44635
 11
65.5877
 21
-5.18845
  0
LINE
  8
0
 10
65.5877
 20
-5.18845
 11
65.8925
 21
-4.96701
  0
LINE
  8
0
 10
65.8925
 20
-4.96701
 11
66.2227
 21
-4.78551
  0
LINE
  8
0
 10
66.2227
 20
-4.78551
 11
66.573
 21
-4.64682
  0
LINE
  8
0
 10
66.573
 20
-4.64682
 11
66.9379
 21
-4.55313
  0
LINE
  8
0
 10
66.9379
 20
-4.55313
 11
67.3116
 21
-4.50591
  0
LINE
  8
0
 10
67.3116
 20
-4.50591
 11
67.6884
 21
-4.50591
  0
LINE
  8
0
 10
67.6884
 20
-4.50591
 11
68.0621
 21
-4.55313
  0
LINE
  8
0
 10
68.0621
 20
-4.55313
 11
68.427
 21
-4.64682
  0
LINE
  8
0
 10
68.427
 20
-4.64682
 11
68.7773
 21
-4.78551
  0
LINE
  8
0
 10
68.7773
 20
-4.78551
 11
69.1075
 21
-4.96701
  0
LINE
  8
0
 10
69.1075
 20
-4.96701
 11
69.4123
 21
-5.18845
  0
LINE
  8
0
 10
69.4123
 20
-5.18845
 11
69.6869
 21
-5.44635
  0
LINE
  8
0
 10
69.6869
 20
-5.44635
 11
69.927
 21
-5.73663
  0
LINE
  8
0
 10
69.927
 20
-5.73663
 11
70.1289
 21
-6.05473
  0
LINE
  8
0
 10
70.1289
 20
-6.05473
 11
70.2893
 21
-6.39561
  0
LINE
  8
0
 10
70.2893
 20
-6.39561
 11
70.4057
 21
-6.75392
  0
LINE
  8
0
 10
70.4057
 20
-6.75392
 11
70.4763
 21
-7.12399
  0
LINE
  8
0
 10
70.4763
 20
-7.12399
 11
70.5
 21
-7.5
  0
LINE
  8
0
 10
70.5
 20
-7.5
 11
70.4763
 21
-7.87599
  0
LINE
  8
0
 10
70.4763
 20
-7.87599
 11
70.4057
 21
-8.24606
  0
LINE
  8
0
 10
70.4057
 20
-8.24606
 11
70.2893
 21
-8.60437
  0
LINE
  8
0
 10
70.2893
 20
-8.60437
 11
70.1289
 21
-8.94525
  0
LINE
  8
0
 10
70.1289
 20
-8.94525
 11
69.927
 21
-9.26335
  0
LINE
  8
0
 10
69.927
 20
-9.26335
 11
69.6869
 21
-9.55363
  0
LINE
  8
0
 10
69.6869
 20
-9.55363
 11
69.4123
 21
-9.81154
  0
LINE
  8
0
 10
69.4123
 20
-9.81154
 11
69.1075
 21
-10.033
  0
LINE
  8
0
 10
69.1075
 20
-10.033
 11
68.7773
 21
-10.2145
  0
LINE
  8
0
 10
68.7773
 20
-10.2145
 11
68.427
 21
-10.3532
  0
LINE
  8
0
 10
68.427
 20
-10.3532
 11
68.0621
 21
-10.4469
  0
LINE
  8
0
 10
68.0621
 20
-10.4469
 11
67.6884
 21
-10.4941
  0
LINE
  8
0
 10
67.6884
 20
-10.4941
 11
67.3116
 21
-10.4941
  0
LINE
  8
0
 10
-64.7107
 20
6.39561
 11
-64.8711
 21
6.05473
  0
LINE
  8
0
 10
-64.8711
 20
6.05473
 11
-65.073
 21
5.73663
  0
LINE
  8
0
 10
-65.073
 20
5.73663
 11
-65.3131
 21
5.44635
  0
LINE
  8
0
 10
-65.3131
 20
5.44635
 11
-65.5877
 21
5.18845
  0
LINE
  8
0
 10
-65.5877
 20
5.18845
 11
-65.8925
 21
4.96701
  0
LINE
  8
0
 10
-65.8925
 20
4.96701
 11
-66.2227
 21
4.78551
  0
LINE
  8
0
 10
-66.2227
 20
4.78551
 11
-66.573
 21
4.64682
  0
LINE
  8
0
 10
-66.573
 20
4.64682
 11
-66.9379
 21
4.55313
  0
LINE
  8
0
 10
-66.9379
 20
4.55313
 11
-67.3116
 21
4.50591
  0
LINE
  8
0
 10
-67.3116
 20
4.50591
 11
-67.6884
 21
4.50591
  0
LINE
  8
0
 10
-67.6884
 20
4.50591
 11
-68.0621
 21
4.55313
  0
LINE
  8
0
 10
-68.0621
 20
4.55313
 11
-68.427
 21
4.64682
  0
LINE
  8
0
 10
-68.427
 20
4.64682
 11
-68.7773
 21
4.78551
  0
LINE
  8
0
 10
-68.7773
 20
4.78551
 11
-69.1075
 21
4.96701
  0
LINE
  8
0
 10
-69.1075
 20
4.96701
 11
-69.4123
 21
5.18845
  0
LINE
  8
0
 10
-69.4123
 20
5.18845
 11
-69.6869
 21
5.44635
  0
LINE
  8
0
 10
-69.6869
 20
5.44635
 11
-69.927
 21
5.73663
  0
LINE
  8
0
 10
-69.927
 20
5.73663
 11
-70.1289
 21
6.05473
  0
LINE
  8
0
 10
-70.1289
 20
6.05473
 11
-70.2893
 21
6.39561
  0
LINE
  8
0
 10
-70.2893
 20
6.39561
 11
-70.4057
 21
6.75392
  0
LINE
  8
0
 10
-70.4057
 20
6.75392
 11
-70.4763
 21
7.12399
  0
LINE
  8
0
 10
-70.4763
 20
7.12399
 11
-70.5
 21
7.5
  0
LINE
  8
0
 10
-70.5
 20
7.5
 11
-70.4763
 21
7.87599
  0
LINE
  8
0
 10
-70.4763
 20
7.87599
 11
-70.4057
 21
8.24606
  0
LINE
  8
0
 10
-70.4057
 20
8.24606
 11
-70.2893
 21
8.60437
  0
LINE
  8
0
 10
-70.2893
 20
8.60437
 11
-70.1289
 21
8.94525
  0
LINE
  8
0
 10
-70.1289
 20
8.94525
 11
-69.927
 21
9.26335
  0
LINE
  8
0
 10
-69.927
 20
9.26335
 11
-69.6869
 21
9.55363
  0
LINE
  8
0
 10
-69.6869
 20
9.55363
 11
-69.4123
 21
9.81154
  0
LINE
  8
0
 10
-69.4123
 20
9.81154
 11
-69.1075
 21
10.033
  0
LINE
  8
0
 10
-69.1075
 20
10.033
 11
-68.7773
 21
10.2145
  0
LINE
  8
0
 10
-68.7773
 20
10.2145
 11
-68.427
 21
10.3532
  0
LINE
  8
0
 10
-68.427
 20
10.3532
 11
-68.0621
 21
10.4469
  0
LINE
  8
0
 10
-68.0621
 20
10.4469
 11
-67.6884
 21
10.4941
  0
LINE
  8
0
 10
-67.6884
 20
10.4941
 11
-67.3116
 21
10.4941
  0
LINE
  8
0
 10
-67.3116
 20
10.4941
 11
-66.9379
 21
10.4469
  0
LINE
  8
0
 10
-66.9379
 20
10.4469
 11
-66.573
 21
10.3532
  0
LINE
  8
0
 10
-66.573
 20
10.3532
 11
-66.2227
 21
10.2145
  0
LINE
  8
0
 10
-66.2227
 20
10.2145
 11
-65.8925
 21
10.033
  0
LINE
  8
0
 10
-65.8925
 20
10.033
 11
-65.5877
 21
9.81154
  0
LINE
  8
0
 10
-65.5877
 20
9.81154
 11
-65.3131
 21
9.55363
  0
LINE
  8
0
 10
-65.3131
 20
9.55363
 11
-65.073
 21
9.26335
  0
LINE
  8
0
 10
-65.073
 20
9.26335
 11
-64.8711
 21
8.94525
  0
LINE
  8
0
 10
-64.8711
 20
8.94525
 11
-64.7107
 21
8.60437
  0
LINE
  8
0
 10
-64.7107
 20
8.60437
 11
-64.5943
 21
8.24606
  0
LINE
  8
0
 10
-64.5943
 20
8.24606
 11
-64.5237
 21
7.87599
  0
LINE
  8
0
 10
-64.5237
 20
7.87599
 11
-64.5
 21
7.5
  0
LINE
  8
0
 10
-64.5
 20
7.5
 11
-64.5237
 21
7.12399
  0
LINE
  8
0
 10
-64.5237
 20
7.12399
 11
-64.5943
 21
6.75392
  0
LINE
  8
0
 10
-64.5943
 20
6.75392
 11
-64.7107
 21
6.39561
  0
ENDSEC
  0
SECTION
  2
OBJECTS
  0
DICTIONARY
  0
ENDSEC
  0
EOF
