<?xml version="1.0" standalone="no"?>
<!DOCTYPE svg PUBLIC "-//W3C//DTD SVG 1.1//EN" "http://www.w3.org/Graphics/SVG/1.1/DTD/svg11.dtd">
<svg width="44mm" height="98mm" viewBox="-22 -130 44 98" xmlns="http://www.w3.org/2000/svg" version="1.1">
<title>OpenSCAD Model</title>
<path d="
M 17.9369,-86.0886 L 18.5451,-86.2447 L 19.1289,-86.4759 L 19.6791,-86.7784 L 20.1871,-87.1474 L 20.6448,-87.5773
 L 21.0451,-88.0611 L 21.3815,-88.5912 L 21.6489,-89.1594 L 21.8429,-89.7566 L 21.9606,-90.3733 L 22,-91
 L 22,-125 L 21.9606,-125.627 L 21.8429,-126.243 L 21.6489,-126.841 L 21.3815,-127.409 L 21.0451,-127.939
 L 20.6448,-128.423 L 20.1871,-128.853 L 19.6791,-129.222 L 19.1289,-129.524 L 18.5451,-129.755 L 17.9369,-129.911
 L 17.3139,-129.99 L -17.3139,-129.99 L -17.9369,-129.911 L -18.5451,-129.755 L -19.1289,-129.524 L -19.6791,-129.222
 L -20.1871,-128.853 L -20.6448,-128.423 L -21.0451,-127.939 L -21.3815,-127.409 L -21.6489,-126.841 L -21.8429,-126.243
 L -21.9606,-125.627 L -22,-125 L -22,-91 L -21.9606,-90.3733 L -21.8429,-89.7566 L -21.6489,-89.1594
 L -21.3815,-88.5912 L -21.0451,-88.0611 L -20.6448,-87.5773 L -20.1871,-87.1474 L -19.6791,-86.7784 L -19.1289,-86.4759
 L -18.5451,-86.2447 L -17.9369,-86.0886 L -17.3139,-86.0099 L 17.3139,-86.0099 z
M 14.8116,-120.006 L 14.4379,-120.053 L 14.0729,-120.147 L 13.7227,-120.286 L 13.3925,-120.467 L 13.0877,-120.688
 L 12.8131,-120.946 L 12.5729,-121.237 L 12.3711,-121.555 L 12.2107,-121.896 L 12.0942,-122.254 L 12.0237,-122.624
 L 12,-123 L 12.0237,-123.376 L 12.0942,-123.746 L 12.2107,-124.104 L 12.3711,-124.445 L 12.5729,-124.763
 L 12.8131,-125.054 L 13.0877,-125.312 L 13.3925,-125.533 L 13.7227,-125.714 L 14.0729,-125.853 L 14.4379,-125.947
 L 14.8116,-125.994 L 15.1884,-125.994 L 15.5621,-125.947 L 15.927,-125.853 L 16.2773,-125.714 L 16.6075,-125.533
 L 16.9123,-125.312 L 17.1869,-125.054 L 17.427,-124.763 L 17.6289,-124.445 L 17.7893,-124.104 L 17.9057,-123.746
 L 17.9763,-123.376 L 18,-123 L 17.9763,-122.624 L 17.9057,-122.254 L 17.7893,-121.896 L 17.6289,-121.555
 L 17.427,-121.237 L 17.1869,-120.946 L 16.9123,-120.688 L 16.6075,-120.467 L 16.2773,-120.286 L 15.927,-120.147
 L 15.5621,-120.053 L 15.1884,-120.006 z
M -0.18837,-120.006 L -0.562134,-120.053 L -0.927048,-120.147 L -1.27733,-120.286 L -1.60747,-120.467 L -1.91226,-120.688
 L -2.1869,-120.946 L -2.42705,-121.237 L -2.62891,-121.555 L -2.78932,-121.896 L -2.90575,-122.254 L -2.97633,-122.624
 L -3,-123 L -2.97633,-123.376 L -2.90575,-123.746 L -2.78932,-124.104 L -2.62891,-124.445 L -2.42705,-124.763
 L -2.1869,-125.054 L -1.91226,-125.312 L -1.60747,-125.533 L -1.27733,-125.714 L -0.927048,-125.853 L -0.562134,-125.947
 L -0.18837,-125.994 L 0.18837,-125.994 L 0.562134,-125.947 L 0.927048,-125.853 L 1.27733,-125.714 L 1.60747,-125.533
 L 1.91226,-125.312 L 2.1869,-125.054 L 2.42705,-124.763 L 2.62891,-124.445 L 2.78932,-124.104 L 2.90575,-123.746
 L 2.97633,-123.376 L 3,-123 L 2.97633,-122.624 L 2.90575,-122.254 L 2.78932,-121.896 L 2.62891,-121.555
 L 2.42705,-121.237 L 2.1869,-120.946 L 1.91226,-120.688 L 1.60747,-120.467 L 1.27733,-120.286 L 0.927048,-120.147
 L 0.562134,-120.053 L 0.18837,-120.006 z
M -15.1884,-120.006 L -15.5621,-120.053 L -15.927,-120.147 L -16.2773,-120.286 L -16.6075,-120.467 L -16.9123,-120.688
 L -17.1869,-120.946 L -17.427,-121.237 L -17.6289,-121.555 L -17.7893,-121.896 L -17.9057,-122.254 L -17.9763,-122.624
 L -18,-123 L -17.9763,-123.376 L -17.9057,-123.746 L -17.7893,-124.104 L -17.6289,-124.445 L -17.427,-124.763
 L -17.1869,-125.054 L -16.9123,-125.312 L -16.6075,-125.533 L -16.2773,-125.714 L -15.927,-125.853 L -15.5621,-125.947
 L -15.1884,-125.994 L -14.8116,-125.994 L -14.4379,-125.947 L -14.0729,-125.853 L -13.7227,-125.714 L -13.3925,-125.533
 L -13.0877,-125.312 L -12.8131,-125.054 L -12.5729,-124.763 L -12.3711,-124.445 L -12.2107,-124.104 L -12.0942,-123.746
 L -12.0237,-123.376 L -12,-123 L -12.0237,-122.624 L -12.0942,-122.254 L -12.2107,-121.896 L -12.3711,-121.555
 L -12.5729,-121.237 L -12.8131,-120.946 L -13.0877,-120.688 L -13.3925,-120.467 L -13.7227,-120.286 L -14.0729,-120.147
 L -14.4379,-120.053 L -14.8116,-120.006 z
M -0.18837,-105.006 L -0.562134,-105.053 L -0.927048,-105.147 L -1.27733,-105.286 L -1.60747,-105.467 L -1.91226,-105.688
 L -2.1869,-105.946 L -2.42705,-106.237 L -2.62891,-106.555 L -2.78932,-106.896 L -2.90575,-107.254 L -2.97633,-107.624
 L -3,-108 L -2.97633,-108.376 L -2.90575,-108.746 L -2.78932,-109.104 L -2.62891,-109.445 L -2.42705,-109.763
 L -2.1869,-110.054 L -1.91226,-110.312 L -1.60747,-110.533 L -1.27733,-110.714 L -0.927048,-110.853 L -0.562134,-110.947
 L -0.18837,-110.994 L 0.18837,-110.994 L 0.562134,-110.947 L 0.927048,-110.853 L 1.27733,-110.714 L 1.60747,-110.533
 L 1.91226,-110.312 L 2.1869,-110.054 L 2.42705,-109.763 L 2.62891,-109.445 L 2.78932,-109.104 L 2.90575,-108.746
 L 2.97633,-108.376 L 3,-108 L 2.97633,-107.624 L 2.90575,-107.254 L 2.78932,-106.896 L 2.62891,-106.555
 L 2.42705,-106.237 L 2.1869,-105.946 L 1.91226,-105.688 L 1.60747,-105.467 L 1.27733,-105.286 L 0.927048,-105.147
 L 0.562134,-105.053 L 0.18837,-105.006 z
M -15.1884,-105.006 L -15.5621,-105.053 L -15.927,-105.147 L -16.2773,-105.286 L -16.6075,-105.467 L -16.9123,-105.688
 L -17.1869,-105.946 L -17.427,-106.237 L -17.6289,-106.555 L -17.7893,-106.896 L -17.9057,-107.254 L -17.9763,-107.624
 L -18,-108 L -17.9763,-108.376 L -17.9057,-108.746 L -17.7893,-109.104 L -17.6289,-109.445 L -17.427,-109.763
 L -17.1869,-110.054 L -16.9123,-110.312 L -16.6075,-110.533 L -16.2773,-110.714 L -15.927,-110.853 L -15.5621,-110.947
 L -15.1884,-110.994 L -14.8116,-110.994 L -14.4379,-110.947 L -14.0729,-110.853 L -13.7227,-110.714 L -13.3925,-110.533
 L -13.0877,-110.312 L -12.8131,-110.054 L -12.5729,-109.763 L -12.3711,-109.445 L -12.2107,-109.104 L -12.0942,-108.746
 L -12.0237,-108.376 L -12,-108 L -12.0237,-107.624 L -12.0942,-107.254 L -12.2107,-106.896 L -12.3711,-106.555
 L -12.5729,-106.237 L -12.8131,-105.946 L -13.0877,-105.688 L -13.3925,-105.467 L -13.7227,-105.286 L -14.0729,-105.147
 L -14.4379,-105.053 L -14.8116,-105.006 z
M 14.8116,-105.006 L 14.4379,-105.053 L 14.0729,-105.147 L 13.7227,-105.286 L 13.3925,-105.467 L 13.0877,-105.688
 L 12.8131,-105.946 L 12.5729,-106.237 L 12.3711,-106.555 L 12.2107,-106.896 L 12.0942,-107.254 L 12.0237,-107.624
 L 12,-108 L 12.0237,-108.376 L 12.0942,-108.746 L 12.2107,-109.104 L 12.3711,-109.445 L 12.5729,-109.763
 L 12.8131,-110.054 L 13.0877,-110.312 L 13.3925,-110.533 L 13.7227,-110.714 L 14.0729,-110.853 L 14.4379,-110.947
 L 14.8116,-110.994 L 15.1884,-110.994 L 15.5621,-110.947 L 15.927,-110.853 L 16.2773,-110.714 L 16.6075,-110.533
 L 16.9123,-110.312 L 17.1869,-110.054 L 17.427,-109.763 L 17.6289,-109.445 L 17.7893,-109.104 L 17.9057,-108.746
 L 17.9763,-108.376 L 18,-108 L 17.9763,-107.624 L 17.9057,-107.254 L 17.7893,-106.896 L 17.6289,-106.555
 L 17.427,-106.237 L 17.1869,-105.946 L 16.9123,-105.688 L 16.6075,-105.467 L 16.2773,-105.286 L 15.927,-105.147
 L 15.5621,-105.053 L 15.1884,-105.006 z
M -15.1884,-90.0059 L -15.5621,-90.0531 L -15.927,-90.1468 L -16.2773,-90.2855 L -16.6075,-90.467 L -16.9123,-90.6885
 L -17.1869,-90.9464 L -17.427,-91.2366 L -17.6289,-91.5547 L -17.7893,-91.8956 L -17.9057,-92.2539 L -17.9763,-92.624
 L -18,-93 L -17.9763,-93.376 L -17.9057,-93.7461 L -17.7893,-94.1044 L -17.6289,-94.4453 L -17.427,-94.7634
 L -17.1869,-95.0536 L -16.9123,-95.3116 L -16.6075,-95.533 L -16.2773,-95.7145 L -15.927,-95.8532 L -15.5621,-95.9469
 L -15.1884,-95.9941 L -14.8116,-95.9941 L -14.4379,-95.9469 L -14.0729,-95.8532 L -13.7227,-95.7145 L -13.3925,-95.533
 L -13.0877,-95.3116 L -12.8131,-95.0536 L -12.5729,-94.7634 L -12.3711,-94.4453 L -12.2107,-94.1044 L -12.0942,-93.7461
 L -12.0237,-93.376 L -12,-93 L -12.0237,-92.624 L -12.0942,-92.2539 L -12.2107,-91.8956 L -12.3711,-91.5547
 L -12.5729,-91.2366 L -12.8131,-90.9464 L -13.0877,-90.6885 L -13.3925,-90.467 L -13.7227,-90.2855 L -14.0729,-90.1468
 L -14.4379,-90.0531 L -14.8116,-90.0059 z
M -0.18837,-90.0059 L -0.562134,-90.0531 L -0.927048,-90.1468 L -1.27733,-90.2855 L -1.60747,-90.467 L -1.91226,-90.6885
 L -2.1869,-90.9464 L -2.42705,-91.2366 L -2.62891,-91.5547 L -2.78932,-91.8956 L -2.90575,-92.2539 L -2.97633,-92.624
 L -3,-93 L -2.97633,-93.376 L -2.90575,-93.7461 L -2.78932,-94.1044 L -2.62891,-94.4453 L -2.42705,-94.7634
 L -2.1869,-95.0536 L -1.91226,-95.3116 L -1.60747,-95.533 L -1.27733,-95.7145 L -0.927048,-95.8532 L -0.562134,-95.9469
 L -0.18837,-95.9941 L 0.18837,-95.9941 L 0.562134,-95.9469 L 0.927048,-95.8532 L 1.27733,-95.7145 L 1.60747,-95.533
 L 1.91226,-95.3116 L 2.1869,-95.0536 L 2.42705,-94.7634 L 2.62891,-94.4453 L 2.78932,-94.1044 L 2.90575,-93.7461
 L 2.97633,-93.376 L 3,-93 L 2.97633,-92.624 L 2.90575,-92.2539 L 2.78932,-91.8956 L 2.62891,-91.5547
 L 2.42705,-91.2366 L 2.1869,-90.9464 L 1.91226,-90.6885 L 1.60747,-90.467 L 1.27733,-90.2855 L 0.927048,-90.1468
 L 0.562134,-90.0531 L 0.18837,-90.0059 z
M 14.8116,-90.0059 L 14.4379,-90.0531 L 14.0729,-90.1468 L 13.7227,-90.2855 L 13.3925,-90.467 L 13.0877,-90.6885
 L 12.8131,-90.9464 L 12.5729,-91.2366 L 12.3711,-91.5547 L 12.2107,-91.8956 L 12.0942,-92.2539 L 12.0237,-92.624
 L 12,-93 L 12.0237,-93.376 L 12.0942,-93.7461 L 12.2107,-94.1044 L 12.3711,-94.4453 L 12.5729,-94.7634
 L 12.8131,-95.0536 L 13.0877,-95.3116 L 13.3925,-95.533 L 13.7227,-95.7145 L 14.0729,-95.8532 L 14.4379,-95.9469
 L 14.8116,-95.9941 L 15.1884,-95.9941 L 15.5621,-95.9469 L 15.927,-95.8532 L 16.2773,-95.7145 L 16.6075,-95.533
 L 16.9123,-95.3116 L 17.1869,-95.0536 L 17.427,-94.7634 L 17.6289,-94.4453 L 17.7893,-94.1044 L 17.9057,-93.7461
 L 17.9763,-93.376 L 18,-93 L 17.9763,-92.624 L 17.9057,-92.2539 L 17.7893,-91.8956 L 17.6289,-91.5547
 L 17.427,-91.2366 L 17.1869,-90.9464 L 16.9123,-90.6885 L 16.6075,-90.467 L 16.2773,-90.2855 L 15.927,-90.1468
 L 15.5621,-90.0531 L 15.1884,-90.0059 z
M 17.9369,-32.0886 L 18.5451,-32.2447 L 19.1289,-32.4759 L 19.6791,-32.7784 L 20.1871,-33.1474 L 20.6448,-33.5773
 L 21.0451,-34.0611 L 21.3815,-34.5912 L 21.6489,-35.1594 L 21.8429,-35.7566 L 21.9606,-36.3733 L 22,-37
 L 22,-71 L 21.9606,-71.6267 L 21.8429,-72.2434 L 21.6489,-72.8406 L 21.3815,-73.4088 L 21.0451,-73.9389
 L 20.6448,-74.4227 L 20.1871,-74.8526 L 19.6791,-75.2216 L 19.1289,-75.5241 L 18.5451,-75.7553 L 17.9369,-75.9114
 L 17.3139,-75.9901 L -17.3139,-75.9901 L -17.9369,-75.9114 L -18.5451,-75.7553 L -19.1289,-75.5241 L -19.6791,-75.2216
 L -20.1871,-74.8526 L -20.6448,-74.4227 L -21.0451,-73.9389 L -21.3815,-73.4088 L -21.6489,-72.8406 L -21.8429,-72.2434
 L -21.9606,-71.6267 L -22,-71 L -22,-37 L -21.9606,-36.3733 L -21.8429,-35.7566 L -21.6489,-35.1594
 L -21.3815,-34.5912 L -21.0451,-34.0611 L -20.6448,-33.5773 L -20.1871,-33.1474 L -19.6791,-32.7784 L -19.1289,-32.4759
 L -18.5451,-32.2447 L -17.9369,-32.0886 L -17.3139,-32.0099 L 17.3139,-32.0099 z
M -15.1884,-66.0059 L -15.5621,-66.0531 L -15.927,-66.1468 L -16.2773,-66.2855 L -16.6075,-66.467 L -16.9123,-66.6884
 L -17.1869,-66.9464 L -17.427,-67.2366 L -17.6289,-67.5547 L -17.7893,-67.8956 L -17.9057,-68.2539 L -17.9763,-68.624
 L -18,-69 L -17.9763,-69.376 L -17.9057,-69.7461 L -17.7893,-70.1044 L -17.6289,-70.4453 L -17.427,-70.7634
 L -17.1869,-71.0536 L -16.9123,-71.3115 L -16.6075,-71.533 L -16.2773,-71.7145 L -15.927,-71.8532 L -15.5621,-71.9469
 L -15.1884,-71.9941 L -14.8116,-71.9941 L -14.4379,-71.9469 L -14.0729,-71.8532 L -13.7227,-71.7145 L -13.3925,-71.533
 L -13.0877,-71.3115 L -12.8131,-71.0536 L -12.5729,-70.7634 L -12.3711,-70.4453 L -12.2107,-70.1044 L -12.0942,-69.7461
 L -12.0237,-69.376 L -12,-69 L -12.0237,-68.624 L -12.0942,-68.2539 L -12.2107,-67.8956 L -12.3711,-67.5547
 L -12.5729,-67.2366 L -12.8131,-66.9464 L -13.0877,-66.6884 L -13.3925,-66.467 L -13.7227,-66.2855 L -14.0729,-66.1468
 L -14.4379,-66.0531 L -14.8116,-66.0059 z
M -0.18837,-66.0059 L -0.562134,-66.0531 L -0.927048,-66.1468 L -1.27733,-66.2855 L -1.60747,-66.467 L -1.91226,-66.6884
 L -2.1869,-66.9464 L -2.42705,-67.2366 L -2.62891,-67.5547 L -2.78932,-67.8956 L -2.90575,-68.2539 L -2.97633,-68.624
 L -3,-69 L -2.97633,-69.376 L -2.90575,-69.7461 L -2.78932,-70.1044 L -2.62891,-70.4453 L -2.42705,-70.7634
 L -2.1869,-71.0536 L -1.91226,-71.3115 L -1.60747,-71.533 L -1.27733,-71.7145 L -0.927048,-71.8532 L -0.562134,-71.9469
 L -0.18837,-71.9941 L 0.18837,-71.9941 L 0.562134,-71.9469 L 0.927048,-71.8532 L 1.27733,-71.7145 L 1.60747,-71.533
 L 1.91226,-71.3115 L 2.1869,-71.0536 L 2.42705,-70.7634 L 2.62891,-70.4453 L 2.78932,-70.1044 L 2.90575,-69.7461
 L 2.97633,-69.376 L 3,-69 L 2.97633,-68.624 L 2.90575,-68.2539 L 2.78932,-67.8956 L 2.62891,-67.5547
 L 2.42705,-67.2366 L 2.1869,-66.9464 L 1.91226,-66.6884 L 1.60747,-66.467 L 1.27733,-66.2855 L 0.927048,-66.1468
 L 0.562134,-66.0531 L 0.18837,-66.0059 z
M 14.8116,-66.0059 L 14.4379,-66.0531 L 14.0729,-66.1468 L 13.7227,-66.2855 L 13.3925,-66.467 L 13.0877,-66.6884
 L 12.8131,-66.9464 L 12.5729,-67.2366 L 12.3711,-67.5547 L 12.2107,-67.8956 L 12.0942,-68.2539 L 12.0237,-68.624
 L 12,-69 L 12.0237,-69.376 L 12.0942,-69.7461 L 12.2107,-70.1044 L 12.3711,-70.4453 L 12.5729,-70.7634
 L 12.8131,-71.0536 L 13.0877,-71.3115 L 13.3925,-71.533 L 13.7227,-71.7145 L 14.0729,-71.8532 L 14.4379,-71.9469
 L 14.8116,-71.9941 L 15.1884,-71.9941 L 15.5621,-71.9469 L 15.927,-71.8532 L 16.2773,-71.7145 L 16.6075,-71.533
 L 16.9123,-71.3115 L 17.1869,-71.0536 L 17.427,-70.7634 L 17.6289,-70.4453 L 17.7893,-70.1044 L 17.9057,-69.7461
 L 17.9763,-69.376 L 18,-69 L 17.9763,-68.624 L 17.9057,-68.2539 L 17.7893,-67.8956 L 17.6289,-67.5547
 L 17.427,-67.2366 L 17.1869,-66.9464 L 16.9123,-66.6884 L 16.6075,-66.467 L 16.2773,-66.2855 L 15.927,-66.1468
 L 15.5621,-66.0531 L 15.1884,-66.0059 z
M -0.18837,-51.0059 L -0.562134,-51.0531 L -0.927048,-51.1468 L -1.27733,-51.2855 L -1.60747,-51.467 L -1.91226,-51.6885
 L -2.1869,-51.9464 L -2.42705,-52.2366 L -2.62891,-52.5547 L -2.78932,-52.8956 L -2.90575,-53.2539 L -2.97633,-53.624
 L -3,-54 L -2.97633,-54.376 L -2.90575,-54.7461 L -2.78932,-55.1044 L -2.62891,-55.4453 L -2.42705,-55.7634
 L -2.1869,-56.0536 L -1.91226,-56.3115 L -1.60747,-56.533 L -1.27733,-56.7145 L -0.927048,-56.8532 L -0.562134,-56.9469
 L -0.18837,-56.9941 L 0.18837,-56.9941 L 0.562134,-56.9469 L 0.927048,-56.8532 L 1.27733,-56.7145 L 1.60747,-56.533
 L 1.91226,-56.3115 L 2.1869,-56.0536 L 2.42705,-55.7634 L 2.62891,-55.4453 L 2.78932,-55.1044 L 2.90575,-54.7461
 L 2.97633,-54.376 L 3,-54 L 2.97633,-53.624 L 2.90575,-53.2539 L 2.78932,-52.8956 L 2.62891,-52.5547
 L 2.42705,-52.2366 L 2.1869,-51.9464 L 1.91226,-51.6885 L 1.60747,-51.467 L 1.27733,-51.2855 L 0.927048,-51.1468
 L 0.562134,-51.0531 L 0.18837,-51.0059 z
M -15.1884,-51.0059 L -15.5621,-51.0531 L -15.927,-51.1468 L -16.2773,-51.2855 L -16.6075,-51.467 L -16.9123,-51.6885
 L -17.1869,-51.9464 L -17.427,-52.2366 L -17.6289,-52.5547 L -17.7893,-52.8956 L -17.9057,-53.2539 L -17.9763,-53.624
 L -18,-54 L -17.9763,-54.376 L -17.9057,-54.7461 L -17.7893,-55.1044 L -17.6289,-55.4453 L -17.427,-55.7634
 L -17.1869,-56.0536 L -16.9123,-56.3115 L -16.6075,-56.533 L -16.2773,-56.7145 L -15.927,-56.8532 L -15.5621,-56.9469
 L -15.1884,-56.9941 L -14.8116,-56.9941 L -14.4379,-56.9469 L -14.0729,-56.8532 L -13.7227,-56.7145 L -13.3925,-56.533
 L -13.0877,-56.3115 L -12.8131,-56.0536 L -12.5729,-55.7634 L -12.3711,-55.4453 L -12.2107,-55.1044 L -12.0942,-54.7461
 L -12.0237,-54.376 L -12,-54 L -12.0237,-53.624 L -12.0942,-53.2539 L -12.2107,-52.8956 L -12.3711,-52.5547
 L -12.5729,-52.2366 L -12.8131,-51.9464 L -13.0877,-51.6885 L -13.3925,-51.467 L -13.7227,-51.2855 L -14.0729,-51.1468
 L -14.4379,-51.0531 L -14.8116,-51.0059 z
M 14.8116,-51.0059 L 14.4379,-51.0531 L 14.0729,-51.1468 L 13.7227,-51.2855 L 13.3925,-51.467 L 13.0877,-51.6885
 L 12.8131,-51.9464 L 12.5729,-52.2366 L 12.3711,-52.5547 L 12.2107,-52.8956 L 12.0942,-53.2539 L 12.0237,-53.624
 L 12,-54 L 12.0237,-54.376 L 12.0942,-54.7461 L 12.2107,-55.1044 L 12.3711,-55.4453 L 12.5729,-55.7634
 L 12.8131,-56.0536 L 13.0877,-56.3115 L 13.3925,-56.533 L 13.7227,-56.7145 L 14.0729,-56.8532 L 14.4379,-56.9469
 L 14.8116,-56.9941 L 15.1884,-56.9941 L 15.5621,-56.9469 L 15.927,-56.8532 L 16.2773,-56.7145 L 16.6075,-56.533
 L 16.9123,-56.3115 L 17.1869,-56.0536 L 17.427,-55.7634 L 17.6289,-55.4453 L 17.7893,-55.1044 L 17.9057,-54.7461
 L 17.9763,-54.376 L 18,-54 L 17.9763,-53.624 L 17.9057,-53.2539 L 17.7893,-52.8956 L 17.6289,-52.5547
 L 17.427,-52.2366 L 17.1869,-51.9464 L 16.9123,-51.6885 L 16.6075,-51.467 L 16.2773,-51.2855 L 15.927,-51.1468
 L 15.5621,-51.0531 L 15.1884,-51.0059 z
M -15.1884,-36.0059 L -15.5621,-36.0531 L -15.927,-36.1468 L -16.2773,-36.2855 L -16.6075,-36.467 L -16.9123,-36.6885
 L -17.1869,-36.9464 L -17.427,-37.2366 L -17.6289,-37.5547 L -17.7893,-37.8956 L -17.9057,-38.2539 L -17.9763,-38.624
 L -18,-39 L -17.9763,-39.376 L -17.9057,-39.7461 L -17.7893,-40.1044 L -17.6289,-40.4453 L -17.427,-40.7634
 L -17.1869,-41.0536 L -16.9123,-41.3116 L -16.6075,-41.533 L -16.2773,-41.7145 L -15.927,-41.8532 L -15.5621,-41.9469
 L -15.1884,-41.9941 L -14.8116,-41.9941 L -14.4379,-41.9469 L -14.0729,-41.8532 L -13.7227,-41.7145 L -13.3925,-41.533
 L -13.0877,-41.3116 L -12.8131,-41.0536 L -12.5729,-40.7634 L -12.3711,-40.4453 L -12.2107,-40.1044 L -12.0942,-39.7461
 L -12.0237,-39.376 L -12,-39 L -12.0237,-38.624 L -12.0942,-38.2539 L -12.2107,-37.8956 L -12.3711,-37.5547
 L -12.5729,-37.2366 L -12.8131,-36.9464 L -13.0877,-36.6885 L -13.3925,-36.467 L -13.7227,-36.2855 L -14.0729,-36.1468
 L -14.4379,-36.0531 L -14.8116,-36.0059 z
M -0.18837,-36.0059 L -0.562134,-36.0531 L -0.927048,-36.1468 L -1.27733,-36.2855 L -1.60747,-36.467 L -1.91226,-36.6885
 L -2.1869,-36.9464 L -2.42705,-37.2366 L -2.62891,-37.5547 L -2.78932,-37.8956 L -2.90575,-38.2539 L -2.97633,-38.624
 L -3,-39 L -2.97633,-39.376 L -2.90575,-39.7461 L -2.78932,-40.1044 L -2.62891,-40.4453 L -2.42705,-40.7634
 L -2.1869,-41.0536 L -1.91226,-41.3116 L -1.60747,-41.533 L -1.27733,-41.7145 L -0.927048,-41.8532 L -0.562134,-41.9469
 L -0.18837,-41.9941 L 0.18837,-41.9941 L 0.562134,-41.9469 L 0.927048,-41.8532 L 1.27733,-41.7145 L 1.60747,-41.533
 L 1.91226,-41.3116 L 2.1869,-41.0536 L 2.42705,-40.7634 L 2.62891,-40.4453 L 2.78932,-40.1044 L 2.90575,-39.7461
 L 2.97633,-39.376 L 3,-39 L 2.97633,-38.624 L 2.90575,-38.2539 L 2.78932,-37.8956 L 2.62891,-37.5547
 L 2.42705,-37.2366 L 2.1869,-36.9464 L 1.91226,-36.6885 L 1.60747,-36.467 L 1.27733,-36.2855 L 0.927048,-36.1468
 L 0.562134,-36.0531 L 0.18837,-36.0059 z
M 14.8116,-36.0059 L 14.4379,-36.0531 L 14.0729,-36.1468 L 13.7227,-36.2855 L 13.3925,-36.467 L 13.0877,-36.6885
 L 12.8131,-36.9464 L 12.5729,-37.2366 L 12.3711,-37.5547 L 12.2107,-37.8956 L 12.0942,-38.2539 L 12.0237,-38.624
 L 12,-39 L 12.0237,-39.376 L 12.0942,-39.7461 L 12.2107,-40.1044 L 12.3711,-40.4453 L 12.5729,-40.7634
 L 12.8131,-41.0536 L 13.0877,-41.3116 L 13.3925,-41.533 L 13.7227,-41.7145 L 14.0729,-41.8532 L 14.4379,-41.9469
 L 14.8116,-41.9941 L 15.1884,-41.9941 L 15.5621,-41.9469 L 15.927,-41.8532 L 16.2773,-41.7145 L 16.6075,-41.533
 L 16.9123,-41.3116 L 17.1869,-41.0536 L 17.427,-40.7634 L 17.6289,-40.4453 L 17.7893,-40.1044 L 17.9057,-39.7461
 L 17.9763,-39.376 L 18,-39 L 17.9763,-38.624 L 17.9057,-38.2539 L 17.7893,-37.8956 L 17.6289,-37.5547
 L 17.427,-37.2366 L 17.1869,-36.9464 L 16.9123,-36.6885 L 16.6075,-36.467 L 16.2773,-36.2855 L 15.927,-36.1468
 L 15.5621,-36.0531 L 15.1884,-36.0059 z
" stroke="black" fill="lightgray" stroke-width="0.5"/>
</svg>
