  0
SECTION
  2
BLOCKS
  0
ENDSEC
  0
SECTION
  2
ENTITIES
  0
LINE
  8
0
 10
107.937
 20
-96.9114
 11
108.545
 21
-96.7553
  0
LINE
  8
0
 10
108.545
 20
-96.7553
 11
109.129
 21
-96.5241
  0
LINE
  8
0
 10
109.129
 20
-96.5241
 11
109.679
 21
-96.2216
  0
LINE
  8
0
 10
109.679
 20
-96.2216
 11
110.187
 21
-95.8526
  0
LINE
  8
0
 10
110.187
 20
-95.8526
 11
110.645
 21
-95.4227
  0
LINE
  8
0
 10
110.645
 20
-95.4227
 11
111.045
 21
-94.9389
  0
LINE
  8
0
 10
111.045
 20
-94.9389
 11
111.382
 21
-94.4088
  0
LINE
  8
0
 10
111.382
 20
-94.4088
 11
111.649
 21
-93.8406
  0
LINE
  8
0
 10
111.649
 20
-93.8406
 11
111.843
 21
-93.2434
  0
LINE
  8
0
 10
111.843
 20
-93.2434
 11
111.961
 21
-92.6267
  0
LINE
  8
0
 10
111.961
 20
-92.6267
 11
112
 21
-92
  0
LINE
  8
0
 10
112
 20
-92
 11
112
 21
92
  0
LINE
  8
0
 10
112
 20
92
 11
111.961
 21
92.6267
  0
LINE
  8
0
 10
111.961
 20
92.6267
 11
111.843
 21
93.2434
  0
LINE
  8
0
 10
111.843
 20
93.2434
 11
111.649
 21
93.8406
  0
LINE
  8
0
 10
111.649
 20
93.8406
 11
111.382
 21
94.4088
  0
LINE
  8
0
 10
111.382
 20
94.4088
 11
111.045
 21
94.9389
  0
LINE
  8
0
 10
111.045
 20
94.9389
 11
110.645
 21
95.4227
  0
LINE
  8
0
 10
110.645
 20
95.4227
 11
110.187
 21
95.8526
  0
LINE
  8
0
 10
110.187
 20
95.8526
 11
109.679
 21
96.2216
  0
LINE
  8
0
 10
109.679
 20
96.2216
 11
109.129
 21
96.5241
  0
LINE
  8
0
 10
109.129
 20
96.5241
 11
108.545
 21
96.7553
  0
LINE
  8
0
 10
108.545
 20
96.7553
 11
107.937
 21
96.9114
  0
LINE
  8
0
 10
107.937
 20
96.9114
 11
107.314
 21
96.9901
  0
LINE
  8
0
 10
107.314
 20
96.9901
 11
-107.314
 21
96.9901
  0
LINE
  8
0
 10
-107.314
 20
96.9901
 11
-107.937
 21
96.9114
  0
LINE
  8
0
 10
-107.937
 20
96.9114
 11
-108.545
 21
96.7553
  0
LINE
  8
0
 10
-108.545
 20
96.7553
 11
-109.129
 21
96.5241
  0
LINE
  8
0
 10
-109.129
 20
96.5241
 11
-109.679
 21
96.2216
  0
LINE
  8
0
 10
-109.679
 20
96.2216
 11
-110.187
 21
95.8526
  0
LINE
  8
0
 10
-110.187
 20
95.8526
 11
-110.645
 21
95.4227
  0
LINE
  8
0
 10
-110.645
 20
95.4227
 11
-111.045
 21
94.9389
  0
LINE
  8
0
 10
-111.045
 20
94.9389
 11
-111.382
 21
94.4088
  0
LINE
  8
0
 10
-111.382
 20
94.4088
 11
-111.649
 21
93.8406
  0
LINE
  8
0
 10
-111.649
 20
93.8406
 11
-111.843
 21
93.2434
  0
LINE
  8
0
 10
-111.843
 20
93.2434
 11
-111.961
 21
92.6267
  0
LINE
  8
0
 10
-111.961
 20
92.6267
 11
-112
 21
92
  0
LINE
  8
0
 10
-112
 20
92
 11
-112
 21
-92
  0
LINE
  8
0
 10
-112
 20
-92
 11
-111.961
 21
-92.6267
  0
LINE
  8
0
 10
-111.961
 20
-92.6267
 11
-111.843
 21
-93.2434
  0
LINE
  8
0
 10
-111.843
 20
-93.2434
 11
-111.649
 21
-93.8406
  0
LINE
  8
0
 10
-111.649
 20
-93.8406
 11
-111.382
 21
-94.4088
  0
LINE
  8
0
 10
-111.382
 20
-94.4088
 11
-111.045
 21
-94.9389
  0
LINE
  8
0
 10
-111.045
 20
-94.9389
 11
-110.645
 21
-95.4227
  0
LINE
  8
0
 10
-110.645
 20
-95.4227
 11
-110.187
 21
-95.8526
  0
LINE
  8
0
 10
-110.187
 20
-95.8526
 11
-109.679
 21
-96.2216
  0
LINE
  8
0
 10
-109.679
 20
-96.2216
 11
-109.129
 21
-96.5241
  0
LINE
  8
0
 10
-109.129
 20
-96.5241
 11
-108.545
 21
-96.7553
  0
LINE
  8
0
 10
-108.545
 20
-96.7553
 11
-107.937
 21
-96.9114
  0
LINE
  8
0
 10
-107.937
 20
-96.9114
 11
-107.314
 21
-96.9901
  0
LINE
  8
0
 10
-107.314
 20
-96.9901
 11
107.314
 21
-96.9901
  0
LINE
  8
0
 10
107.314
 20
-96.9901
 11
107.937
 21
-96.9114
  0
LINE
  8
0
 10
104.812
 20
87.0059
 11
104.438
 21
87.0531
  0
LINE
  8
0
 10
104.438
 20
87.0531
 11
104.073
 21
87.1468
  0
LINE
  8
0
 10
104.073
 20
87.1468
 11
103.723
 21
87.2855
  0
LINE
  8
0
 10
103.723
 20
87.2855
 11
103.393
 21
87.467
  0
LINE
  8
0
 10
103.393
 20
87.467
 11
103.088
 21
87.6885
  0
LINE
  8
0
 10
103.088
 20
87.6885
 11
102.813
 21
87.9464
  0
LINE
  8
0
 10
102.813
 20
87.9464
 11
102.573
 21
88.2366
  0
LINE
  8
0
 10
102.573
 20
88.2366
 11
102.371
 21
88.5547
  0
LINE
  8
0
 10
102.371
 20
88.5547
 11
102.211
 21
88.8956
  0
LINE
  8
0
 10
102.211
 20
88.8956
 11
102.094
 21
89.2539
  0
LINE
  8
0
 10
102.094
 20
89.2539
 11
102.024
 21
89.624
  0
LINE
  8
0
 10
102.024
 20
89.624
 11
102
 21
90
  0
LINE
  8
0
 10
102
 20
90
 11
102.024
 21
90.376
  0
LINE
  8
0
 10
102.024
 20
90.376
 11
102.094
 21
90.7461
  0
LINE
  8
0
 10
102.094
 20
90.7461
 11
102.211
 21
91.1044
  0
LINE
  8
0
 10
102.211
 20
91.1044
 11
102.371
 21
91.4453
  0
LINE
  8
0
 10
102.371
 20
91.4453
 11
102.573
 21
91.7634
  0
LINE
  8
0
 10
102.573
 20
91.7634
 11
102.813
 21
92.0536
  0
LINE
  8
0
 10
102.813
 20
92.0536
 11
103.088
 21
92.3115
  0
LINE
  8
0
 10
103.088
 20
92.3115
 11
103.393
 21
92.533
  0
LINE
  8
0
 10
103.393
 20
92.533
 11
103.723
 21
92.7145
  0
LINE
  8
0
 10
103.723
 20
92.7145
 11
104.073
 21
92.8532
  0
LINE
  8
0
 10
104.073
 20
92.8532
 11
104.438
 21
92.9469
  0
LINE
  8
0
 10
104.438
 20
92.9469
 11
104.812
 21
92.9941
  0
LINE
  8
0
 10
104.812
 20
92.9941
 11
105.188
 21
92.9941
  0
LINE
  8
0
 10
105.188
 20
92.9941
 11
105.562
 21
92.9469
  0
LINE
  8
0
 10
105.562
 20
92.9469
 11
105.927
 21
92.8532
  0
LINE
  8
0
 10
105.927
 20
92.8532
 11
106.277
 21
92.7145
  0
LINE
  8
0
 10
106.277
 20
92.7145
 11
106.607
 21
92.533
  0
LINE
  8
0
 10
106.607
 20
92.533
 11
106.912
 21
92.3115
  0
LINE
  8
0
 10
106.912
 20
92.3115
 11
107.187
 21
92.0536
  0
LINE
  8
0
 10
107.187
 20
92.0536
 11
107.427
 21
91.7634
  0
LINE
  8
0
 10
107.427
 20
91.7634
 11
107.629
 21
91.4453
  0
LINE
  8
0
 10
107.629
 20
91.4453
 11
107.789
 21
91.1044
  0
LINE
  8
0
 10
107.789
 20
91.1044
 11
107.906
 21
90.7461
  0
LINE
  8
0
 10
107.906
 20
90.7461
 11
107.976
 21
90.376
  0
LINE
  8
0
 10
107.976
 20
90.376
 11
108
 21
90
  0
LINE
  8
0
 10
108
 20
90
 11
107.976
 21
89.624
  0
LINE
  8
0
 10
107.976
 20
89.624
 11
107.906
 21
89.2539
  0
LINE
  8
0
 10
107.906
 20
89.2539
 11
107.789
 21
88.8956
  0
LINE
  8
0
 10
107.789
 20
88.8956
 11
107.629
 21
88.5547
  0
LINE
  8
0
 10
107.629
 20
88.5547
 11
107.427
 21
88.2366
  0
LINE
  8
0
 10
107.427
 20
88.2366
 11
107.187
 21
87.9464
  0
LINE
  8
0
 10
107.187
 20
87.9464
 11
106.912
 21
87.6885
  0
LINE
  8
0
 10
106.912
 20
87.6885
 11
106.607
 21
87.467
  0
LINE
  8
0
 10
106.607
 20
87.467
 11
106.277
 21
87.2855
  0
LINE
  8
0
 10
106.277
 20
87.2855
 11
105.927
 21
87.1468
  0
LINE
  8
0
 10
105.927
 20
87.1468
 11
105.562
 21
87.0531
  0
LINE
  8
0
 10
105.562
 20
87.0531
 11
105.188
 21
87.0059
  0
LINE
  8
0
 10
105.188
 20
87.0059
 11
104.812
 21
87.0059
  0
LINE
  8
0
 10
-105.188
 20
87.0059
 11
-105.562
 21
87.0531
  0
LINE
  8
0
 10
-105.562
 20
87.0531
 11
-105.927
 21
87.1468
  0
LINE
  8
0
 10
-105.927
 20
87.1468
 11
-106.277
 21
87.2855
  0
LINE
  8
0
 10
-106.277
 20
87.2855
 11
-106.607
 21
87.467
  0
LINE
  8
0
 10
-106.607
 20
87.467
 11
-106.912
 21
87.6885
  0
LINE
  8
0
 10
-106.912
 20
87.6885
 11
-107.187
 21
87.9464
  0
LINE
  8
0
 10
-107.187
 20
87.9464
 11
-107.427
 21
88.2366
  0
LINE
  8
0
 10
-107.427
 20
88.2366
 11
-107.629
 21
88.5547
  0
LINE
  8
0
 10
-107.629
 20
88.5547
 11
-107.789
 21
88.8956
  0
LINE
  8
0
 10
-107.789
 20
88.8956
 11
-107.906
 21
89.2539
  0
LINE
  8
0
 10
-107.906
 20
89.2539
 11
-107.976
 21
89.624
  0
LINE
  8
0
 10
-107.976
 20
89.624
 11
-108
 21
90
  0
LINE
  8
0
 10
-108
 20
90
 11
-107.976
 21
90.376
  0
LINE
  8
0
 10
-107.976
 20
90.376
 11
-107.906
 21
90.7461
  0
LINE
  8
0
 10
-107.906
 20
90.7461
 11
-107.789
 21
91.1044
  0
LINE
  8
0
 10
-107.789
 20
91.1044
 11
-107.629
 21
91.4453
  0
LINE
  8
0
 10
-107.629
 20
91.4453
 11
-107.427
 21
91.7634
  0
LINE
  8
0
 10
-107.427
 20
91.7634
 11
-107.187
 21
92.0536
  0
LINE
  8
0
 10
-107.187
 20
92.0536
 11
-106.912
 21
92.3115
  0
LINE
  8
0
 10
-106.912
 20
92.3115
 11
-106.607
 21
92.533
  0
LINE
  8
0
 10
-106.607
 20
92.533
 11
-106.277
 21
92.7145
  0
LINE
  8
0
 10
-106.277
 20
92.7145
 11
-105.927
 21
92.8532
  0
LINE
  8
0
 10
-105.927
 20
92.8532
 11
-105.562
 21
92.9469
  0
LINE
  8
0
 10
-105.562
 20
92.9469
 11
-105.188
 21
92.9941
  0
LINE
  8
0
 10
-105.188
 20
92.9941
 11
-104.812
 21
92.9941
  0
LINE
  8
0
 10
-104.812
 20
92.9941
 11
-104.438
 21
92.9469
  0
LINE
  8
0
 10
-104.438
 20
92.9469
 11
-104.073
 21
92.8532
  0
LINE
  8
0
 10
-104.073
 20
92.8532
 11
-103.723
 21
92.7145
  0
LINE
  8
0
 10
-103.723
 20
92.7145
 11
-103.393
 21
92.533
  0
LINE
  8
0
 10
-103.393
 20
92.533
 11
-103.088
 21
92.3115
  0
LINE
  8
0
 10
-103.088
 20
92.3115
 11
-102.813
 21
92.0536
  0
LINE
  8
0
 10
-102.813
 20
92.0536
 11
-102.573
 21
91.7634
  0
LINE
  8
0
 10
-102.573
 20
91.7634
 11
-102.371
 21
91.4453
  0
LINE
  8
0
 10
-102.371
 20
91.4453
 11
-102.211
 21
91.1044
  0
LINE
  8
0
 10
-102.211
 20
91.1044
 11
-102.094
 21
90.7461
  0
LINE
  8
0
 10
-102.094
 20
90.7461
 11
-102.024
 21
90.376
  0
LINE
  8
0
 10
-102.024
 20
90.376
 11
-102
 21
90
  0
LINE
  8
0
 10
-102
 20
90
 11
-102.024
 21
89.624
  0
LINE
  8
0
 10
-102.024
 20
89.624
 11
-102.094
 21
89.2539
  0
LINE
  8
0
 10
-102.094
 20
89.2539
 11
-102.211
 21
88.8956
  0
LINE
  8
0
 10
-102.211
 20
88.8956
 11
-102.371
 21
88.5547
  0
LINE
  8
0
 10
-102.371
 20
88.5547
 11
-102.573
 21
88.2366
  0
LINE
  8
0
 10
-102.573
 20
88.2366
 11
-102.813
 21
87.9464
  0
LINE
  8
0
 10
-102.813
 20
87.9464
 11
-103.088
 21
87.6885
  0
LINE
  8
0
 10
-103.088
 20
87.6885
 11
-103.393
 21
87.467
  0
LINE
  8
0
 10
-103.393
 20
87.467
 11
-103.723
 21
87.2855
  0
LINE
  8
0
 10
-103.723
 20
87.2855
 11
-104.073
 21
87.1468
  0
LINE
  8
0
 10
-104.073
 20
87.1468
 11
-104.438
 21
87.0531
  0
LINE
  8
0
 10
-104.438
 20
87.0531
 11
-104.812
 21
87.0059
  0
LINE
  8
0
 10
-104.812
 20
87.0059
 11
-105.188
 21
87.0059
  0
LINE
  8
0
 10
104.812
 20
-92.9941
 11
104.438
 21
-92.9469
  0
LINE
  8
0
 10
104.438
 20
-92.9469
 11
104.073
 21
-92.8532
  0
LINE
  8
0
 10
104.073
 20
-92.8532
 11
103.723
 21
-92.7145
  0
LINE
  8
0
 10
103.723
 20
-92.7145
 11
103.393
 21
-92.533
  0
LINE
  8
0
 10
103.393
 20
-92.533
 11
103.088
 21
-92.3115
  0
LINE
  8
0
 10
103.088
 20
-92.3115
 11
102.813
 21
-92.0536
  0
LINE
  8
0
 10
102.813
 20
-92.0536
 11
102.573
 21
-91.7634
  0
LINE
  8
0
 10
102.573
 20
-91.7634
 11
102.371
 21
-91.4453
  0
LINE
  8
0
 10
102.371
 20
-91.4453
 11
102.211
 21
-91.1044
  0
LINE
  8
0
 10
102.211
 20
-91.1044
 11
102.094
 21
-90.7461
  0
LINE
  8
0
 10
102.094
 20
-90.7461
 11
102.024
 21
-90.376
  0
LINE
  8
0
 10
102.024
 20
-90.376
 11
102
 21
-90
  0
LINE
  8
0
 10
102
 20
-90
 11
102.024
 21
-89.624
  0
LINE
  8
0
 10
102.024
 20
-89.624
 11
102.094
 21
-89.2539
  0
LINE
  8
0
 10
102.094
 20
-89.2539
 11
102.211
 21
-88.8956
  0
LINE
  8
0
 10
102.211
 20
-88.8956
 11
102.371
 21
-88.5547
  0
LINE
  8
0
 10
102.371
 20
-88.5547
 11
102.573
 21
-88.2366
  0
LINE
  8
0
 10
102.573
 20
-88.2366
 11
102.813
 21
-87.9464
  0
LINE
  8
0
 10
102.813
 20
-87.9464
 11
103.088
 21
-87.6885
  0
LINE
  8
0
 10
103.088
 20
-87.6885
 11
103.393
 21
-87.467
  0
LINE
  8
0
 10
103.393
 20
-87.467
 11
103.723
 21
-87.2855
  0
LINE
  8
0
 10
103.723
 20
-87.2855
 11
104.073
 21
-87.1468
  0
LINE
  8
0
 10
104.073
 20
-87.1468
 11
104.438
 21
-87.0531
  0
LINE
  8
0
 10
104.438
 20
-87.0531
 11
104.812
 21
-87.0059
  0
LINE
  8
0
 10
104.812
 20
-87.0059
 11
105.188
 21
-87.0059
  0
LINE
  8
0
 10
105.188
 20
-87.0059
 11
105.562
 21
-87.0531
  0
LINE
  8
0
 10
105.562
 20
-87.0531
 11
105.927
 21
-87.1468
  0
LINE
  8
0
 10
105.927
 20
-87.1468
 11
106.277
 21
-87.2855
  0
LINE
  8
0
 10
106.277
 20
-87.2855
 11
106.607
 21
-87.467
  0
LINE
  8
0
 10
106.607
 20
-87.467
 11
106.912
 21
-87.6885
  0
LINE
  8
0
 10
106.912
 20
-87.6885
 11
107.187
 21
-87.9464
  0
LINE
  8
0
 10
107.187
 20
-87.9464
 11
107.427
 21
-88.2366
  0
LINE
  8
0
 10
107.427
 20
-88.2366
 11
107.629
 21
-88.5547
  0
LINE
  8
0
 10
107.629
 20
-88.5547
 11
107.789
 21
-88.8956
  0
LINE
  8
0
 10
107.789
 20
-88.8956
 11
107.906
 21
-89.2539
  0
LINE
  8
0
 10
107.906
 20
-89.2539
 11
107.976
 21
-89.624
  0
LINE
  8
0
 10
107.976
 20
-89.624
 11
108
 21
-90
  0
LINE
  8
0
 10
108
 20
-90
 11
107.976
 21
-90.376
  0
LINE
  8
0
 10
107.976
 20
-90.376
 11
107.906
 21
-90.7461
  0
LINE
  8
0
 10
107.906
 20
-90.7461
 11
107.789
 21
-91.1044
  0
LINE
  8
0
 10
107.789
 20
-91.1044
 11
107.629
 21
-91.4453
  0
LINE
  8
0
 10
107.629
 20
-91.4453
 11
107.427
 21
-91.7634
  0
LINE
  8
0
 10
107.427
 20
-91.7634
 11
107.187
 21
-92.0536
  0
LINE
  8
0
 10
107.187
 20
-92.0536
 11
106.912
 21
-92.3115
  0
LINE
  8
0
 10
106.912
 20
-92.3115
 11
106.607
 21
-92.533
  0
LINE
  8
0
 10
106.607
 20
-92.533
 11
106.277
 21
-92.7145
  0
LINE
  8
0
 10
106.277
 20
-92.7145
 11
105.927
 21
-92.8532
  0
LINE
  8
0
 10
105.927
 20
-92.8532
 11
105.562
 21
-92.9469
  0
LINE
  8
0
 10
105.562
 20
-92.9469
 11
105.188
 21
-92.9941
  0
LINE
  8
0
 10
105.188
 20
-92.9941
 11
104.812
 21
-92.9941
  0
LINE
  8
0
 10
-105.188
 20
-92.9941
 11
-105.562
 21
-92.9469
  0
LINE
  8
0
 10
-105.562
 20
-92.9469
 11
-105.927
 21
-92.8532
  0
LINE
  8
0
 10
-105.927
 20
-92.8532
 11
-106.277
 21
-92.7145
  0
LINE
  8
0
 10
-106.277
 20
-92.7145
 11
-106.607
 21
-92.533
  0
LINE
  8
0
 10
-106.607
 20
-92.533
 11
-106.912
 21
-92.3115
  0
LINE
  8
0
 10
-106.912
 20
-92.3115
 11
-107.187
 21
-92.0536
  0
LINE
  8
0
 10
-107.187
 20
-92.0536
 11
-107.427
 21
-91.7634
  0
LINE
  8
0
 10
-107.427
 20
-91.7634
 11
-107.629
 21
-91.4453
  0
LINE
  8
0
 10
-107.629
 20
-91.4453
 11
-107.789
 21
-91.1044
  0
LINE
  8
0
 10
-107.789
 20
-91.1044
 11
-107.906
 21
-90.7461
  0
LINE
  8
0
 10
-107.906
 20
-90.7461
 11
-107.976
 21
-90.376
  0
LINE
  8
0
 10
-107.976
 20
-90.376
 11
-108
 21
-90
  0
LINE
  8
0
 10
-108
 20
-90
 11
-107.976
 21
-89.624
  0
LINE
  8
0
 10
-107.976
 20
-89.624
 11
-107.906
 21
-89.2539
  0
LINE
  8
0
 10
-107.906
 20
-89.2539
 11
-107.789
 21
-88.8956
  0
LINE
  8
0
 10
-107.789
 20
-88.8956
 11
-107.629
 21
-88.5547
  0
LINE
  8
0
 10
-107.629
 20
-88.5547
 11
-107.427
 21
-88.2366
  0
LINE
  8
0
 10
-107.427
 20
-88.2366
 11
-107.187
 21
-87.9464
  0
LINE
  8
0
 10
-107.187
 20
-87.9464
 11
-106.912
 21
-87.6885
  0
LINE
  8
0
 10
-106.912
 20
-87.6885
 11
-106.607
 21
-87.467
  0
LINE
  8
0
 10
-106.607
 20
-87.467
 11
-106.277
 21
-87.2855
  0
LINE
  8
0
 10
-106.277
 20
-87.2855
 11
-105.927
 21
-87.1468
  0
LINE
  8
0
 10
-105.927
 20
-87.1468
 11
-105.562
 21
-87.0531
  0
LINE
  8
0
 10
-105.562
 20
-87.0531
 11
-105.188
 21
-87.0059
  0
LINE
  8
0
 10
-105.188
 20
-87.0059
 11
-104.812
 21
-87.0059
  0
LINE
  8
0
 10
-104.812
 20
-87.0059
 11
-104.438
 21
-87.0531
  0
LINE
  8
0
 10
-104.438
 20
-87.0531
 11
-104.073
 21
-87.1468
  0
LINE
  8
0
 10
-104.073
 20
-87.1468
 11
-103.723
 21
-87.2855
  0
LINE
  8
0
 10
-103.723
 20
-87.2855
 11
-103.393
 21
-87.467
  0
LINE
  8
0
 10
-103.393
 20
-87.467
 11
-103.088
 21
-87.6885
  0
LINE
  8
0
 10
-103.088
 20
-87.6885
 11
-102.813
 21
-87.9464
  0
LINE
  8
0
 10
-102.813
 20
-87.9464
 11
-102.573
 21
-88.2366
  0
LINE
  8
0
 10
-102.573
 20
-88.2366
 11
-102.371
 21
-88.5547
  0
LINE
  8
0
 10
-102.371
 20
-88.5547
 11
-102.211
 21
-88.8956
  0
LINE
  8
0
 10
-102.211
 20
-88.8956
 11
-102.094
 21
-89.2539
  0
LINE
  8
0
 10
-102.094
 20
-89.2539
 11
-102.024
 21
-89.624
  0
LINE
  8
0
 10
-102.024
 20
-89.624
 11
-102
 21
-90
  0
LINE
  8
0
 10
-102
 20
-90
 11
-102.024
 21
-90.376
  0
LINE
  8
0
 10
-102.024
 20
-90.376
 11
-102.094
 21
-90.7461
  0
LINE
  8
0
 10
-102.094
 20
-90.7461
 11
-102.211
 21
-91.1044
  0
LINE
  8
0
 10
-102.211
 20
-91.1044
 11
-102.371
 21
-91.4453
  0
LINE
  8
0
 10
-102.371
 20
-91.4453
 11
-102.573
 21
-91.7634
  0
LINE
  8
0
 10
-102.573
 20
-91.7634
 11
-102.813
 21
-92.0536
  0
LINE
  8
0
 10
-102.813
 20
-92.0536
 11
-103.088
 21
-92.3115
  0
LINE
  8
0
 10
-103.088
 20
-92.3115
 11
-103.393
 21
-92.533
  0
LINE
  8
0
 10
-103.393
 20
-92.533
 11
-103.723
 21
-92.7145
  0
LINE
  8
0
 10
-103.723
 20
-92.7145
 11
-104.073
 21
-92.8532
  0
LINE
  8
0
 10
-104.073
 20
-92.8532
 11
-104.438
 21
-92.9469
  0
LINE
  8
0
 10
-104.438
 20
-92.9469
 11
-104.812
 21
-92.9941
  0
LINE
  8
0
 10
-104.812
 20
-92.9941
 11
-105.188
 21
-92.9941
  0
ENDSEC
  0
SECTION
  2
OBJECTS
  0
DICTIONARY
  0
ENDSEC
  0
EOF
