  0
SECTION
  2
BLOCKS
  0
ENDSEC
  0
SECTION
  2
ENTITIES
  0
LINE
  8
0
 10
145.437
 20
-36.9114
 11
146.045
 21
-36.7553
  0
LINE
  8
0
 10
146.045
 20
-36.7553
 11
146.629
 21
-36.5241
  0
LINE
  8
0
 10
146.629
 20
-36.5241
 11
147.179
 21
-36.2216
  0
LINE
  8
0
 10
147.179
 20
-36.2216
 11
147.687
 21
-35.8526
  0
LINE
  8
0
 10
147.687
 20
-35.8526
 11
148.145
 21
-35.4227
  0
LINE
  8
0
 10
148.145
 20
-35.4227
 11
148.545
 21
-34.9389
  0
LINE
  8
0
 10
148.545
 20
-34.9389
 11
148.882
 21
-34.4088
  0
LINE
  8
0
 10
148.882
 20
-34.4088
 11
149.149
 21
-33.8406
  0
LINE
  8
0
 10
149.149
 20
-33.8406
 11
149.343
 21
-33.2434
  0
LINE
  8
0
 10
149.343
 20
-33.2434
 11
149.461
 21
-32.6267
  0
LINE
  8
0
 10
149.461
 20
-32.6267
 11
149.5
 21
-32
  0
LINE
  8
0
 10
149.5
 20
-32
 11
149.5
 21
32
  0
LINE
  8
0
 10
149.5
 20
32
 11
149.461
 21
32.6267
  0
LINE
  8
0
 10
149.461
 20
32.6267
 11
149.343
 21
33.2434
  0
LINE
  8
0
 10
149.343
 20
33.2434
 11
149.149
 21
33.8406
  0
LINE
  8
0
 10
149.149
 20
33.8406
 11
148.882
 21
34.4088
  0
LINE
  8
0
 10
148.882
 20
34.4088
 11
148.545
 21
34.9389
  0
LINE
  8
0
 10
148.545
 20
34.9389
 11
148.145
 21
35.4227
  0
LINE
  8
0
 10
148.145
 20
35.4227
 11
147.687
 21
35.8526
  0
LINE
  8
0
 10
147.687
 20
35.8526
 11
147.179
 21
36.2216
  0
LINE
  8
0
 10
147.179
 20
36.2216
 11
146.629
 21
36.5241
  0
LINE
  8
0
 10
146.629
 20
36.5241
 11
146.045
 21
36.7553
  0
LINE
  8
0
 10
146.045
 20
36.7553
 11
145.437
 21
36.9114
  0
LINE
  8
0
 10
145.437
 20
36.9114
 11
144.814
 21
36.9901
  0
LINE
  8
0
 10
144.814
 20
36.9901
 11
-144.814
 21
36.9901
  0
LINE
  8
0
 10
-144.814
 20
36.9901
 11
-145.437
 21
36.9114
  0
LINE
  8
0
 10
-145.437
 20
36.9114
 11
-146.045
 21
36.7553
  0
LINE
  8
0
 10
-146.045
 20
36.7553
 11
-146.629
 21
36.5241
  0
LINE
  8
0
 10
-146.629
 20
36.5241
 11
-147.179
 21
36.2216
  0
LINE
  8
0
 10
-147.179
 20
36.2216
 11
-147.687
 21
35.8526
  0
LINE
  8
0
 10
-147.687
 20
35.8526
 11
-148.145
 21
35.4227
  0
LINE
  8
0
 10
-148.145
 20
35.4227
 11
-148.545
 21
34.9389
  0
LINE
  8
0
 10
-148.545
 20
34.9389
 11
-148.882
 21
34.4088
  0
LINE
  8
0
 10
-148.882
 20
34.4088
 11
-149.149
 21
33.8406
  0
LINE
  8
0
 10
-149.149
 20
33.8406
 11
-149.343
 21
33.2434
  0
LINE
  8
0
 10
-149.343
 20
33.2434
 11
-149.461
 21
32.6267
  0
LINE
  8
0
 10
-149.461
 20
32.6267
 11
-149.5
 21
32
  0
LINE
  8
0
 10
-149.5
 20
32
 11
-149.5
 21
-32
  0
LINE
  8
0
 10
-149.5
 20
-32
 11
-149.461
 21
-32.6267
  0
LINE
  8
0
 10
-149.461
 20
-32.6267
 11
-149.343
 21
-33.2434
  0
LINE
  8
0
 10
-149.343
 20
-33.2434
 11
-149.149
 21
-33.8406
  0
LINE
  8
0
 10
-149.149
 20
-33.8406
 11
-148.882
 21
-34.4088
  0
LINE
  8
0
 10
-148.882
 20
-34.4088
 11
-148.545
 21
-34.9389
  0
LINE
  8
0
 10
-148.545
 20
-34.9389
 11
-148.145
 21
-35.4227
  0
LINE
  8
0
 10
-148.145
 20
-35.4227
 11
-147.687
 21
-35.8526
  0
LINE
  8
0
 10
-147.687
 20
-35.8526
 11
-147.179
 21
-36.2216
  0
LINE
  8
0
 10
-147.179
 20
-36.2216
 11
-146.629
 21
-36.5241
  0
LINE
  8
0
 10
-146.629
 20
-36.5241
 11
-146.045
 21
-36.7553
  0
LINE
  8
0
 10
-146.045
 20
-36.7553
 11
-145.437
 21
-36.9114
  0
LINE
  8
0
 10
-145.437
 20
-36.9114
 11
-144.814
 21
-36.9901
  0
LINE
  8
0
 10
-144.814
 20
-36.9901
 11
144.814
 21
-36.9901
  0
LINE
  8
0
 10
144.814
 20
-36.9901
 11
145.437
 21
-36.9114
  0
LINE
  8
0
 10
-142.688
 20
27.0059
 11
-143.062
 21
27.0531
  0
LINE
  8
0
 10
-143.062
 20
27.0531
 11
-143.427
 21
27.1468
  0
LINE
  8
0
 10
-143.427
 20
27.1468
 11
-143.777
 21
27.2855
  0
LINE
  8
0
 10
-143.777
 20
27.2855
 11
-144.107
 21
27.467
  0
LINE
  8
0
 10
-144.107
 20
27.467
 11
-144.412
 21
27.6884
  0
LINE
  8
0
 10
-144.412
 20
27.6884
 11
-144.687
 21
27.9464
  0
LINE
  8
0
 10
-144.687
 20
27.9464
 11
-144.927
 21
28.2366
  0
LINE
  8
0
 10
-144.927
 20
28.2366
 11
-145.129
 21
28.5547
  0
LINE
  8
0
 10
-145.129
 20
28.5547
 11
-145.289
 21
28.8956
  0
LINE
  8
0
 10
-145.289
 20
28.8956
 11
-145.406
 21
29.2539
  0
LINE
  8
0
 10
-145.406
 20
29.2539
 11
-145.476
 21
29.624
  0
LINE
  8
0
 10
-145.476
 20
29.624
 11
-145.5
 21
30
  0
LINE
  8
0
 10
-145.5
 20
30
 11
-145.476
 21
30.376
  0
LINE
  8
0
 10
-145.476
 20
30.376
 11
-145.406
 21
30.7461
  0
LINE
  8
0
 10
-145.406
 20
30.7461
 11
-145.289
 21
31.1044
  0
LINE
  8
0
 10
-145.289
 20
31.1044
 11
-145.129
 21
31.4453
  0
LINE
  8
0
 10
-145.129
 20
31.4453
 11
-144.927
 21
31.7634
  0
LINE
  8
0
 10
-144.927
 20
31.7634
 11
-144.687
 21
32.0536
  0
LINE
  8
0
 10
-144.687
 20
32.0536
 11
-144.412
 21
32.3115
  0
LINE
  8
0
 10
-144.412
 20
32.3115
 11
-144.107
 21
32.533
  0
LINE
  8
0
 10
-144.107
 20
32.533
 11
-143.777
 21
32.7145
  0
LINE
  8
0
 10
-143.777
 20
32.7145
 11
-143.427
 21
32.8532
  0
LINE
  8
0
 10
-143.427
 20
32.8532
 11
-143.062
 21
32.9469
  0
LINE
  8
0
 10
-143.062
 20
32.9469
 11
-142.688
 21
32.9941
  0
LINE
  8
0
 10
-142.688
 20
32.9941
 11
-142.312
 21
32.9941
  0
LINE
  8
0
 10
-142.312
 20
32.9941
 11
-141.938
 21
32.9469
  0
LINE
  8
0
 10
-141.938
 20
32.9469
 11
-141.573
 21
32.8532
  0
LINE
  8
0
 10
-141.573
 20
32.8532
 11
-141.223
 21
32.7145
  0
LINE
  8
0
 10
-141.223
 20
32.7145
 11
-140.893
 21
32.533
  0
LINE
  8
0
 10
-140.893
 20
32.533
 11
-140.588
 21
32.3115
  0
LINE
  8
0
 10
-140.588
 20
32.3115
 11
-140.313
 21
32.0536
  0
LINE
  8
0
 10
-140.313
 20
32.0536
 11
-140.073
 21
31.7634
  0
LINE
  8
0
 10
-140.073
 20
31.7634
 11
-139.871
 21
31.4453
  0
LINE
  8
0
 10
-139.871
 20
31.4453
 11
-139.711
 21
31.1044
  0
LINE
  8
0
 10
-139.711
 20
31.1044
 11
-139.594
 21
30.7461
  0
LINE
  8
0
 10
-139.594
 20
30.7461
 11
-139.524
 21
30.376
  0
LINE
  8
0
 10
-139.524
 20
30.376
 11
-139.5
 21
30
  0
LINE
  8
0
 10
-139.5
 20
30
 11
-139.524
 21
29.624
  0
LINE
  8
0
 10
-139.524
 20
29.624
 11
-139.594
 21
29.2539
  0
LINE
  8
0
 10
-139.594
 20
29.2539
 11
-139.711
 21
28.8956
  0
LINE
  8
0
 10
-139.711
 20
28.8956
 11
-139.871
 21
28.5547
  0
LINE
  8
0
 10
-139.871
 20
28.5547
 11
-140.073
 21
28.2366
  0
LINE
  8
0
 10
-140.073
 20
28.2366
 11
-140.313
 21
27.9464
  0
LINE
  8
0
 10
-140.313
 20
27.9464
 11
-140.588
 21
27.6884
  0
LINE
  8
0
 10
-140.588
 20
27.6884
 11
-140.893
 21
27.467
  0
LINE
  8
0
 10
-140.893
 20
27.467
 11
-141.223
 21
27.2855
  0
LINE
  8
0
 10
-141.223
 20
27.2855
 11
-141.573
 21
27.1468
  0
LINE
  8
0
 10
-141.573
 20
27.1468
 11
-141.938
 21
27.0531
  0
LINE
  8
0
 10
-141.938
 20
27.0531
 11
-142.312
 21
27.0059
  0
LINE
  8
0
 10
-142.312
 20
27.0059
 11
-142.688
 21
27.0059
  0
LINE
  8
0
 10
-142.594
 20
21.003
 11
-142.781
 21
21.0266
  0
LINE
  8
0
 10
-142.781
 20
21.0266
 11
-142.964
 21
21.0734
  0
LINE
  8
0
 10
-142.964
 20
21.0734
 11
-143.139
 21
21.1427
  0
LINE
  8
0
 10
-143.139
 20
21.1427
 11
-143.304
 21
21.2335
  0
LINE
  8
0
 10
-143.304
 20
21.2335
 11
-143.456
 21
21.3442
  0
LINE
  8
0
 10
-143.456
 20
21.3442
 11
-143.593
 21
21.4732
  0
LINE
  8
0
 10
-143.593
 20
21.4732
 11
-143.714
 21
21.6183
  0
LINE
  8
0
 10
-143.714
 20
21.6183
 11
-143.814
 21
21.7774
  0
LINE
  8
0
 10
-143.814
 20
21.7774
 11
-143.895
 21
21.9478
  0
LINE
  8
0
 10
-143.895
 20
21.9478
 11
-143.953
 21
22.127
  0
LINE
  8
0
 10
-143.953
 20
22.127
 11
-143.988
 21
22.312
  0
LINE
  8
0
 10
-143.988
 20
22.312
 11
-144
 21
22.5
  0
LINE
  8
0
 10
-144
 20
22.5
 11
-143.988
 21
22.688
  0
LINE
  8
0
 10
-143.988
 20
22.688
 11
-143.953
 21
22.873
  0
LINE
  8
0
 10
-143.953
 20
22.873
 11
-143.895
 21
23.0522
  0
LINE
  8
0
 10
-143.895
 20
23.0522
 11
-143.814
 21
23.2226
  0
LINE
  8
0
 10
-143.814
 20
23.2226
 11
-143.714
 21
23.3817
  0
LINE
  8
0
 10
-143.714
 20
23.3817
 11
-143.593
 21
23.5268
  0
LINE
  8
0
 10
-143.593
 20
23.5268
 11
-143.456
 21
23.6558
  0
LINE
  8
0
 10
-143.456
 20
23.6558
 11
-143.304
 21
23.7665
  0
LINE
  8
0
 10
-143.304
 20
23.7665
 11
-143.139
 21
23.8572
  0
LINE
  8
0
 10
-143.139
 20
23.8572
 11
-142.964
 21
23.9266
  0
LINE
  8
0
 10
-142.964
 20
23.9266
 11
-142.781
 21
23.9734
  0
LINE
  8
0
 10
-142.781
 20
23.9734
 11
-142.594
 21
23.997
  0
LINE
  8
0
 10
-142.594
 20
23.997
 11
-142.406
 21
23.997
  0
LINE
  8
0
 10
-142.406
 20
23.997
 11
-142.219
 21
23.9734
  0
LINE
  8
0
 10
-142.219
 20
23.9734
 11
-142.036
 21
23.9266
  0
LINE
  8
0
 10
-142.036
 20
23.9266
 11
-141.861
 21
23.8572
  0
LINE
  8
0
 10
-141.861
 20
23.8572
 11
-141.696
 21
23.7665
  0
LINE
  8
0
 10
-141.696
 20
23.7665
 11
-141.544
 21
23.6558
  0
LINE
  8
0
 10
-141.544
 20
23.6558
 11
-141.407
 21
23.5268
  0
LINE
  8
0
 10
-141.407
 20
23.5268
 11
-141.286
 21
23.3817
  0
LINE
  8
0
 10
-141.286
 20
23.3817
 11
-141.186
 21
23.2226
  0
LINE
  8
0
 10
-141.186
 20
23.2226
 11
-141.105
 21
23.0522
  0
LINE
  8
0
 10
-141.105
 20
23.0522
 11
-141.047
 21
22.873
  0
LINE
  8
0
 10
-141.047
 20
22.873
 11
-141.012
 21
22.688
  0
LINE
  8
0
 10
-141.012
 20
22.688
 11
-141
 21
22.5
  0
LINE
  8
0
 10
-141
 20
22.5
 11
-141.012
 21
22.312
  0
LINE
  8
0
 10
-141.012
 20
22.312
 11
-141.047
 21
22.127
  0
LINE
  8
0
 10
-141.047
 20
22.127
 11
-141.105
 21
21.9478
  0
LINE
  8
0
 10
-141.105
 20
21.9478
 11
-141.186
 21
21.7774
  0
LINE
  8
0
 10
-141.186
 20
21.7774
 11
-141.286
 21
21.6183
  0
LINE
  8
0
 10
-141.286
 20
21.6183
 11
-141.407
 21
21.4732
  0
LINE
  8
0
 10
-141.407
 20
21.4732
 11
-141.544
 21
21.3442
  0
LINE
  8
0
 10
-141.544
 20
21.3442
 11
-141.696
 21
21.2335
  0
LINE
  8
0
 10
-141.696
 20
21.2335
 11
-141.861
 21
21.1427
  0
LINE
  8
0
 10
-141.861
 20
21.1427
 11
-142.036
 21
21.0734
  0
LINE
  8
0
 10
-142.036
 20
21.0734
 11
-142.219
 21
21.0266
  0
LINE
  8
0
 10
-142.219
 20
21.0266
 11
-142.406
 21
21.003
  0
LINE
  8
0
 10
-142.406
 20
21.003
 11
-142.594
 21
21.003
  0
LINE
  8
0
 10
-142.688
 20
12.0059
 11
-143.062
 21
12.0531
  0
LINE
  8
0
 10
-143.062
 20
12.0531
 11
-143.427
 21
12.1468
  0
LINE
  8
0
 10
-143.427
 20
12.1468
 11
-143.777
 21
12.2855
  0
LINE
  8
0
 10
-143.777
 20
12.2855
 11
-144.107
 21
12.467
  0
LINE
  8
0
 10
-144.107
 20
12.467
 11
-144.412
 21
12.6884
  0
LINE
  8
0
 10
-144.412
 20
12.6884
 11
-144.687
 21
12.9464
  0
LINE
  8
0
 10
-144.687
 20
12.9464
 11
-144.927
 21
13.2366
  0
LINE
  8
0
 10
-144.927
 20
13.2366
 11
-145.129
 21
13.5547
  0
LINE
  8
0
 10
-145.129
 20
13.5547
 11
-145.289
 21
13.8956
  0
LINE
  8
0
 10
-145.289
 20
13.8956
 11
-145.406
 21
14.2539
  0
LINE
  8
0
 10
-145.406
 20
14.2539
 11
-145.476
 21
14.624
  0
LINE
  8
0
 10
-145.476
 20
14.624
 11
-145.5
 21
15
  0
LINE
  8
0
 10
-145.5
 20
15
 11
-145.476
 21
15.376
  0
LINE
  8
0
 10
-145.476
 20
15.376
 11
-145.406
 21
15.7461
  0
LINE
  8
0
 10
-145.406
 20
15.7461
 11
-145.289
 21
16.1044
  0
LINE
  8
0
 10
-145.289
 20
16.1044
 11
-145.129
 21
16.4453
  0
LINE
  8
0
 10
-145.129
 20
16.4453
 11
-144.927
 21
16.7634
  0
LINE
  8
0
 10
-144.927
 20
16.7634
 11
-144.687
 21
17.0536
  0
LINE
  8
0
 10
-144.687
 20
17.0536
 11
-144.412
 21
17.3115
  0
LINE
  8
0
 10
-144.412
 20
17.3115
 11
-144.107
 21
17.533
  0
LINE
  8
0
 10
-144.107
 20
17.533
 11
-143.777
 21
17.7145
  0
LINE
  8
0
 10
-143.777
 20
17.7145
 11
-143.427
 21
17.8532
  0
LINE
  8
0
 10
-143.427
 20
17.8532
 11
-143.062
 21
17.9469
  0
LINE
  8
0
 10
-143.062
 20
17.9469
 11
-142.688
 21
17.9941
  0
LINE
  8
0
 10
-142.688
 20
17.9941
 11
-142.312
 21
17.9941
  0
LINE
  8
0
 10
-142.312
 20
17.9941
 11
-141.938
 21
17.9469
  0
LINE
  8
0
 10
-141.938
 20
17.9469
 11
-141.573
 21
17.8532
  0
LINE
  8
0
 10
-141.573
 20
17.8532
 11
-141.223
 21
17.7145
  0
LINE
  8
0
 10
-141.223
 20
17.7145
 11
-140.893
 21
17.533
  0
LINE
  8
0
 10
-140.893
 20
17.533
 11
-140.588
 21
17.3115
  0
LINE
  8
0
 10
-140.588
 20
17.3115
 11
-140.313
 21
17.0536
  0
LINE
  8
0
 10
-140.313
 20
17.0536
 11
-140.073
 21
16.7634
  0
LINE
  8
0
 10
-140.073
 20
16.7634
 11
-139.871
 21
16.4453
  0
LINE
  8
0
 10
-139.871
 20
16.4453
 11
-139.711
 21
16.1044
  0
LINE
  8
0
 10
-139.711
 20
16.1044
 11
-139.594
 21
15.7461
  0
LINE
  8
0
 10
-139.594
 20
15.7461
 11
-139.524
 21
15.376
  0
LINE
  8
0
 10
-139.524
 20
15.376
 11
-139.5
 21
15
  0
LINE
  8
0
 10
-139.5
 20
15
 11
-139.524
 21
14.624
  0
LINE
  8
0
 10
-139.524
 20
14.624
 11
-139.594
 21
14.2539
  0
LINE
  8
0
 10
-139.594
 20
14.2539
 11
-139.711
 21
13.8956
  0
LINE
  8
0
 10
-139.711
 20
13.8956
 11
-139.871
 21
13.5547
  0
LINE
  8
0
 10
-139.871
 20
13.5547
 11
-140.073
 21
13.2366
  0
LINE
  8
0
 10
-140.073
 20
13.2366
 11
-140.313
 21
12.9464
  0
LINE
  8
0
 10
-140.313
 20
12.9464
 11
-140.588
 21
12.6884
  0
LINE
  8
0
 10
-140.588
 20
12.6884
 11
-140.893
 21
12.467
  0
LINE
  8
0
 10
-140.893
 20
12.467
 11
-141.223
 21
12.2855
  0
LINE
  8
0
 10
-141.223
 20
12.2855
 11
-141.573
 21
12.1468
  0
LINE
  8
0
 10
-141.573
 20
12.1468
 11
-141.938
 21
12.0531
  0
LINE
  8
0
 10
-141.938
 20
12.0531
 11
-142.312
 21
12.0059
  0
LINE
  8
0
 10
-142.312
 20
12.0059
 11
-142.688
 21
12.0059
  0
LINE
  8
0
 10
-142.594
 20
6.00294
 11
-142.781
 21
6.02657
  0
LINE
  8
0
 10
-142.781
 20
6.02657
 11
-142.964
 21
6.07341
  0
LINE
  8
0
 10
-142.964
 20
6.07341
 11
-143.139
 21
6.14275
  0
LINE
  8
0
 10
-143.139
 20
6.14275
 11
-143.304
 21
6.23351
  0
LINE
  8
0
 10
-143.304
 20
6.23351
 11
-143.456
 21
6.34422
  0
LINE
  8
0
 10
-143.456
 20
6.34422
 11
-143.593
 21
6.47318
  0
LINE
  8
0
 10
-143.593
 20
6.47318
 11
-143.714
 21
6.61832
  0
LINE
  8
0
 10
-143.714
 20
6.61832
 11
-143.814
 21
6.77736
  0
LINE
  8
0
 10
-143.814
 20
6.77736
 11
-143.895
 21
6.9478
  0
LINE
  8
0
 10
-143.895
 20
6.9478
 11
-143.953
 21
7.12695
  0
LINE
  8
0
 10
-143.953
 20
7.12695
 11
-143.988
 21
7.312
  0
LINE
  8
0
 10
-143.988
 20
7.312
 11
-144
 21
7.5
  0
LINE
  8
0
 10
-144
 20
7.5
 11
-143.988
 21
7.68799
  0
LINE
  8
0
 10
-143.988
 20
7.68799
 11
-143.953
 21
7.87303
  0
LINE
  8
0
 10
-143.953
 20
7.87303
 11
-143.895
 21
8.05219
  0
LINE
  8
0
 10
-143.895
 20
8.05219
 11
-143.814
 21
8.22263
  0
LINE
  8
0
 10
-143.814
 20
8.22263
 11
-143.714
 21
8.38167
  0
LINE
  8
0
 10
-143.714
 20
8.38167
 11
-143.593
 21
8.52681
  0
LINE
  8
0
 10
-143.593
 20
8.52681
 11
-143.456
 21
8.65576
  0
LINE
  8
0
 10
-143.456
 20
8.65576
 11
-143.304
 21
8.76648
  0
LINE
  8
0
 10
-143.304
 20
8.76648
 11
-143.139
 21
8.85724
  0
LINE
  8
0
 10
-143.139
 20
8.85724
 11
-142.964
 21
8.92657
  0
LINE
  8
0
 10
-142.964
 20
8.92657
 11
-142.781
 21
8.97342
  0
LINE
  8
0
 10
-142.781
 20
8.97342
 11
-142.594
 21
8.99704
  0
LINE
  8
0
 10
-142.594
 20
8.99704
 11
-142.406
 21
8.99704
  0
LINE
  8
0
 10
-142.406
 20
8.99704
 11
-142.219
 21
8.97342
  0
LINE
  8
0
 10
-142.219
 20
8.97342
 11
-142.036
 21
8.92657
  0
LINE
  8
0
 10
-142.036
 20
8.92657
 11
-141.861
 21
8.85724
  0
LINE
  8
0
 10
-141.861
 20
8.85724
 11
-141.696
 21
8.76648
  0
LINE
  8
0
 10
-141.696
 20
8.76648
 11
-141.544
 21
8.65576
  0
LINE
  8
0
 10
-141.544
 20
8.65576
 11
-141.407
 21
8.52681
  0
LINE
  8
0
 10
-141.407
 20
8.52681
 11
-141.286
 21
8.38167
  0
LINE
  8
0
 10
-141.286
 20
8.38167
 11
-141.186
 21
8.22263
  0
LINE
  8
0
 10
-141.186
 20
8.22263
 11
-141.105
 21
8.05219
  0
LINE
  8
0
 10
-141.105
 20
8.05219
 11
-141.047
 21
7.87303
  0
LINE
  8
0
 10
-141.047
 20
7.87303
 11
-141.012
 21
7.68799
  0
LINE
  8
0
 10
-141.012
 20
7.68799
 11
-141
 21
7.5
  0
LINE
  8
0
 10
-141
 20
7.5
 11
-141.012
 21
7.312
  0
LINE
  8
0
 10
-141.012
 20
7.312
 11
-141.047
 21
7.12695
  0
LINE
  8
0
 10
-141.047
 20
7.12695
 11
-141.105
 21
6.9478
  0
LINE
  8
0
 10
-141.105
 20
6.9478
 11
-141.186
 21
6.77736
  0
LINE
  8
0
 10
-141.186
 20
6.77736
 11
-141.286
 21
6.61832
  0
LINE
  8
0
 10
-141.286
 20
6.61832
 11
-141.407
 21
6.47318
  0
LINE
  8
0
 10
-141.407
 20
6.47318
 11
-141.544
 21
6.34422
  0
LINE
  8
0
 10
-141.544
 20
6.34422
 11
-141.696
 21
6.23351
  0
LINE
  8
0
 10
-141.696
 20
6.23351
 11
-141.861
 21
6.14275
  0
LINE
  8
0
 10
-141.861
 20
6.14275
 11
-142.036
 21
6.07341
  0
LINE
  8
0
 10
-142.036
 20
6.07341
 11
-142.219
 21
6.02657
  0
LINE
  8
0
 10
-142.219
 20
6.02657
 11
-142.406
 21
6.00294
  0
LINE
  8
0
 10
-142.406
 20
6.00294
 11
-142.594
 21
6.00294
  0
LINE
  8
0
 10
-142.688
 20
-2.99408
 11
-143.062
 21
-2.94685
  0
LINE
  8
0
 10
-143.062
 20
-2.94685
 11
-143.427
 21
-2.85316
  0
LINE
  8
0
 10
-143.427
 20
-2.85316
 11
-143.777
 21
-2.71448
  0
LINE
  8
0
 10
-143.777
 20
-2.71448
 11
-144.107
 21
-2.53297
  0
LINE
  8
0
 10
-144.107
 20
-2.53297
 11
-144.412
 21
-2.31154
  0
LINE
  8
0
 10
-144.412
 20
-2.31154
 11
-144.687
 21
-2.05363
  0
LINE
  8
0
 10
-144.687
 20
-2.05363
 11
-144.927
 21
-1.76335
  0
LINE
  8
0
 10
-144.927
 20
-1.76335
 11
-145.129
 21
-1.44525
  0
LINE
  8
0
 10
-145.129
 20
-1.44525
 11
-145.289
 21
-1.10437
  0
LINE
  8
0
 10
-145.289
 20
-1.10437
 11
-145.406
 21
-0.746063
  0
LINE
  8
0
 10
-145.406
 20
-0.746063
 11
-145.476
 21
-0.375992
  0
LINE
  8
0
 10
-145.476
 20
-0.375992
 11
-145.5
 21
0
  0
LINE
  8
0
 10
-145.5
 20
0
 11
-145.476
 21
0.375992
  0
LINE
  8
0
 10
-145.476
 20
0.375992
 11
-145.406
 21
0.746063
  0
LINE
  8
0
 10
-145.406
 20
0.746063
 11
-145.289
 21
1.10437
  0
LINE
  8
0
 10
-145.289
 20
1.10437
 11
-145.129
 21
1.44525
  0
LINE
  8
0
 10
-145.129
 20
1.44525
 11
-144.927
 21
1.76335
  0
LINE
  8
0
 10
-144.927
 20
1.76335
 11
-144.687
 21
2.05363
  0
LINE
  8
0
 10
-144.687
 20
2.05363
 11
-144.412
 21
2.31154
  0
LINE
  8
0
 10
-144.412
 20
2.31154
 11
-144.107
 21
2.53297
  0
LINE
  8
0
 10
-144.107
 20
2.53297
 11
-143.777
 21
2.71448
  0
LINE
  8
0
 10
-143.777
 20
2.71448
 11
-143.427
 21
2.85316
  0
LINE
  8
0
 10
-143.427
 20
2.85316
 11
-143.062
 21
2.94685
  0
LINE
  8
0
 10
-143.062
 20
2.94685
 11
-142.688
 21
2.99408
  0
LINE
  8
0
 10
-142.688
 20
2.99408
 11
-142.312
 21
2.99408
  0
LINE
  8
0
 10
-142.312
 20
2.99408
 11
-141.938
 21
2.94685
  0
LINE
  8
0
 10
-141.938
 20
2.94685
 11
-141.573
 21
2.85316
  0
LINE
  8
0
 10
-141.573
 20
2.85316
 11
-141.223
 21
2.71448
  0
LINE
  8
0
 10
-141.223
 20
2.71448
 11
-140.893
 21
2.53297
  0
LINE
  8
0
 10
-140.893
 20
2.53297
 11
-140.588
 21
2.31154
  0
LINE
  8
0
 10
-140.588
 20
2.31154
 11
-140.313
 21
2.05363
  0
LINE
  8
0
 10
-140.313
 20
2.05363
 11
-140.073
 21
1.76335
  0
LINE
  8
0
 10
-140.073
 20
1.76335
 11
-139.871
 21
1.44525
  0
LINE
  8
0
 10
-139.871
 20
1.44525
 11
-139.711
 21
1.10437
  0
LINE
  8
0
 10
-139.711
 20
1.10437
 11
-139.594
 21
0.746063
  0
LINE
  8
0
 10
-139.594
 20
0.746063
 11
-139.524
 21
0.375992
  0
LINE
  8
0
 10
-139.524
 20
0.375992
 11
-139.5
 21
0
  0
LINE
  8
0
 10
-139.5
 20
0
 11
-139.524
 21
-0.375992
  0
LINE
  8
0
 10
-139.524
 20
-0.375992
 11
-139.594
 21
-0.746063
  0
LINE
  8
0
 10
-139.594
 20
-0.746063
 11
-139.711
 21
-1.10437
  0
LINE
  8
0
 10
-139.711
 20
-1.10437
 11
-139.871
 21
-1.44525
  0
LINE
  8
0
 10
-139.871
 20
-1.44525
 11
-140.073
 21
-1.76335
  0
LINE
  8
0
 10
-140.073
 20
-1.76335
 11
-140.313
 21
-2.05363
  0
LINE
  8
0
 10
-140.313
 20
-2.05363
 11
-140.588
 21
-2.31154
  0
LINE
  8
0
 10
-140.588
 20
-2.31154
 11
-140.893
 21
-2.53297
  0
LINE
  8
0
 10
-140.893
 20
-2.53297
 11
-141.223
 21
-2.71448
  0
LINE
  8
0
 10
-141.223
 20
-2.71448
 11
-141.573
 21
-2.85316
  0
LINE
  8
0
 10
-141.573
 20
-2.85316
 11
-141.938
 21
-2.94685
  0
LINE
  8
0
 10
-141.938
 20
-2.94685
 11
-142.312
 21
-2.99408
  0
LINE
  8
0
 10
-142.312
 20
-2.99408
 11
-142.688
 21
-2.99408
  0
LINE
  8
0
 10
-142.594
 20
-8.99704
 11
-142.781
 21
-8.97342
  0
LINE
  8
0
 10
-142.781
 20
-8.97342
 11
-142.964
 21
-8.92657
  0
LINE
  8
0
 10
-142.964
 20
-8.92657
 11
-143.139
 21
-8.85724
  0
LINE
  8
0
 10
-143.139
 20
-8.85724
 11
-143.304
 21
-8.76648
  0
LINE
  8
0
 10
-143.304
 20
-8.76648
 11
-143.456
 21
-8.65576
  0
LINE
  8
0
 10
-143.456
 20
-8.65576
 11
-143.593
 21
-8.52681
  0
LINE
  8
0
 10
-143.593
 20
-8.52681
 11
-143.714
 21
-8.38167
  0
LINE
  8
0
 10
-143.714
 20
-8.38167
 11
-143.814
 21
-8.22263
  0
LINE
  8
0
 10
-143.814
 20
-8.22263
 11
-143.895
 21
-8.05219
  0
LINE
  8
0
 10
-143.895
 20
-8.05219
 11
-143.953
 21
-7.87303
  0
LINE
  8
0
 10
-143.953
 20
-7.87303
 11
-143.988
 21
-7.68799
  0
LINE
  8
0
 10
-143.988
 20
-7.68799
 11
-144
 21
-7.5
  0
LINE
  8
0
 10
-144
 20
-7.5
 11
-143.988
 21
-7.312
  0
LINE
  8
0
 10
-143.988
 20
-7.312
 11
-143.953
 21
-7.12695
  0
LINE
  8
0
 10
-143.953
 20
-7.12695
 11
-143.895
 21
-6.9478
  0
LINE
  8
0
 10
-143.895
 20
-6.9478
 11
-143.814
 21
-6.77736
  0
LINE
  8
0
 10
-143.814
 20
-6.77736
 11
-143.714
 21
-6.61832
  0
LINE
  8
0
 10
-143.714
 20
-6.61832
 11
-143.593
 21
-6.47318
  0
LINE
  8
0
 10
-143.593
 20
-6.47318
 11
-143.456
 21
-6.34422
  0
LINE
  8
0
 10
-143.456
 20
-6.34422
 11
-143.304
 21
-6.23351
  0
LINE
  8
0
 10
-143.304
 20
-6.23351
 11
-143.139
 21
-6.14275
  0
LINE
  8
0
 10
-143.139
 20
-6.14275
 11
-142.964
 21
-6.07341
  0
LINE
  8
0
 10
-142.964
 20
-6.07341
 11
-142.781
 21
-6.02657
  0
LINE
  8
0
 10
-142.781
 20
-6.02657
 11
-142.594
 21
-6.00294
  0
LINE
  8
0
 10
-142.594
 20
-6.00294
 11
-142.406
 21
-6.00294
  0
LINE
  8
0
 10
-142.406
 20
-6.00294
 11
-142.219
 21
-6.02657
  0
LINE
  8
0
 10
-142.219
 20
-6.02657
 11
-142.036
 21
-6.07341
  0
LINE
  8
0
 10
-142.036
 20
-6.07341
 11
-141.861
 21
-6.14275
  0
LINE
  8
0
 10
-141.861
 20
-6.14275
 11
-141.696
 21
-6.23351
  0
LINE
  8
0
 10
-141.696
 20
-6.23351
 11
-141.544
 21
-6.34422
  0
LINE
  8
0
 10
-141.544
 20
-6.34422
 11
-141.407
 21
-6.47318
  0
LINE
  8
0
 10
-141.407
 20
-6.47318
 11
-141.286
 21
-6.61832
  0
LINE
  8
0
 10
-141.286
 20
-6.61832
 11
-141.186
 21
-6.77736
  0
LINE
  8
0
 10
-141.186
 20
-6.77736
 11
-141.105
 21
-6.9478
  0
LINE
  8
0
 10
-141.105
 20
-6.9478
 11
-141.047
 21
-7.12695
  0
LINE
  8
0
 10
-141.047
 20
-7.12695
 11
-141.012
 21
-7.312
  0
LINE
  8
0
 10
-141.012
 20
-7.312
 11
-141
 21
-7.5
  0
LINE
  8
0
 10
-141
 20
-7.5
 11
-141.012
 21
-7.68799
  0
LINE
  8
0
 10
-141.012
 20
-7.68799
 11
-141.047
 21
-7.87303
  0
LINE
  8
0
 10
-141.047
 20
-7.87303
 11
-141.105
 21
-8.05219
  0
LINE
  8
0
 10
-141.105
 20
-8.05219
 11
-141.186
 21
-8.22263
  0
LINE
  8
0
 10
-141.186
 20
-8.22263
 11
-141.286
 21
-8.38167
  0
LINE
  8
0
 10
-141.286
 20
-8.38167
 11
-141.407
 21
-8.52681
  0
LINE
  8
0
 10
-141.407
 20
-8.52681
 11
-141.544
 21
-8.65576
  0
LINE
  8
0
 10
-141.544
 20
-8.65576
 11
-141.696
 21
-8.76648
  0
LINE
  8
0
 10
-141.696
 20
-8.76648
 11
-141.861
 21
-8.85724
  0
LINE
  8
0
 10
-141.861
 20
-8.85724
 11
-142.036
 21
-8.92657
  0
LINE
  8
0
 10
-142.036
 20
-8.92657
 11
-142.219
 21
-8.97342
  0
LINE
  8
0
 10
-142.219
 20
-8.97342
 11
-142.406
 21
-8.99704
  0
LINE
  8
0
 10
-142.406
 20
-8.99704
 11
-142.594
 21
-8.99704
  0
LINE
  8
0
 10
-142.688
 20
-17.9941
 11
-143.062
 21
-17.9469
  0
LINE
  8
0
 10
-143.062
 20
-17.9469
 11
-143.427
 21
-17.8532
  0
LINE
  8
0
 10
-143.427
 20
-17.8532
 11
-143.777
 21
-17.7145
  0
LINE
  8
0
 10
-143.777
 20
-17.7145
 11
-144.107
 21
-17.533
  0
LINE
  8
0
 10
-144.107
 20
-17.533
 11
-144.412
 21
-17.3115
  0
LINE
  8
0
 10
-144.412
 20
-17.3115
 11
-144.687
 21
-17.0536
  0
LINE
  8
0
 10
-144.687
 20
-17.0536
 11
-144.927
 21
-16.7634
  0
LINE
  8
0
 10
-144.927
 20
-16.7634
 11
-145.129
 21
-16.4453
  0
LINE
  8
0
 10
-145.129
 20
-16.4453
 11
-145.289
 21
-16.1044
  0
LINE
  8
0
 10
-145.289
 20
-16.1044
 11
-145.406
 21
-15.7461
  0
LINE
  8
0
 10
-145.406
 20
-15.7461
 11
-145.476
 21
-15.376
  0
LINE
  8
0
 10
-145.476
 20
-15.376
 11
-145.5
 21
-15
  0
LINE
  8
0
 10
-145.5
 20
-15
 11
-145.476
 21
-14.624
  0
LINE
  8
0
 10
-145.476
 20
-14.624
 11
-145.406
 21
-14.2539
  0
LINE
  8
0
 10
-145.406
 20
-14.2539
 11
-145.289
 21
-13.8956
  0
LINE
  8
0
 10
-145.289
 20
-13.8956
 11
-145.129
 21
-13.5547
  0
LINE
  8
0
 10
-145.129
 20
-13.5547
 11
-144.927
 21
-13.2366
  0
LINE
  8
0
 10
-144.927
 20
-13.2366
 11
-144.687
 21
-12.9464
  0
LINE
  8
0
 10
-144.687
 20
-12.9464
 11
-144.412
 21
-12.6884
  0
LINE
  8
0
 10
-144.412
 20
-12.6884
 11
-144.107
 21
-12.467
  0
LINE
  8
0
 10
-144.107
 20
-12.467
 11
-143.777
 21
-12.2855
  0
LINE
  8
0
 10
-143.777
 20
-12.2855
 11
-143.427
 21
-12.1468
  0
LINE
  8
0
 10
-143.427
 20
-12.1468
 11
-143.062
 21
-12.0531
  0
LINE
  8
0
 10
-143.062
 20
-12.0531
 11
-142.688
 21
-12.0059
  0
LINE
  8
0
 10
-142.688
 20
-12.0059
 11
-142.312
 21
-12.0059
  0
LINE
  8
0
 10
-142.312
 20
-12.0059
 11
-141.938
 21
-12.0531
  0
LINE
  8
0
 10
-141.938
 20
-12.0531
 11
-141.573
 21
-12.1468
  0
LINE
  8
0
 10
-141.573
 20
-12.1468
 11
-141.223
 21
-12.2855
  0
LINE
  8
0
 10
-141.223
 20
-12.2855
 11
-140.893
 21
-12.467
  0
LINE
  8
0
 10
-140.893
 20
-12.467
 11
-140.588
 21
-12.6884
  0
LINE
  8
0
 10
-140.588
 20
-12.6884
 11
-140.313
 21
-12.9464
  0
LINE
  8
0
 10
-140.313
 20
-12.9464
 11
-140.073
 21
-13.2366
  0
LINE
  8
0
 10
-140.073
 20
-13.2366
 11
-139.871
 21
-13.5547
  0
LINE
  8
0
 10
-139.871
 20
-13.5547
 11
-139.711
 21
-13.8956
  0
LINE
  8
0
 10
-139.711
 20
-13.8956
 11
-139.594
 21
-14.2539
  0
LINE
  8
0
 10
-139.594
 20
-14.2539
 11
-139.524
 21
-14.624
  0
LINE
  8
0
 10
-139.524
 20
-14.624
 11
-139.5
 21
-15
  0
LINE
  8
0
 10
-139.5
 20
-15
 11
-139.524
 21
-15.376
  0
LINE
  8
0
 10
-139.524
 20
-15.376
 11
-139.594
 21
-15.7461
  0
LINE
  8
0
 10
-139.594
 20
-15.7461
 11
-139.711
 21
-16.1044
  0
LINE
  8
0
 10
-139.711
 20
-16.1044
 11
-139.871
 21
-16.4453
  0
LINE
  8
0
 10
-139.871
 20
-16.4453
 11
-140.073
 21
-16.7634
  0
LINE
  8
0
 10
-140.073
 20
-16.7634
 11
-140.313
 21
-17.0536
  0
LINE
  8
0
 10
-140.313
 20
-17.0536
 11
-140.588
 21
-17.3115
  0
LINE
  8
0
 10
-140.588
 20
-17.3115
 11
-140.893
 21
-17.533
  0
LINE
  8
0
 10
-140.893
 20
-17.533
 11
-141.223
 21
-17.7145
  0
LINE
  8
0
 10
-141.223
 20
-17.7145
 11
-141.573
 21
-17.8532
  0
LINE
  8
0
 10
-141.573
 20
-17.8532
 11
-141.938
 21
-17.9469
  0
LINE
  8
0
 10
-141.938
 20
-17.9469
 11
-142.312
 21
-17.9941
  0
LINE
  8
0
 10
-142.312
 20
-17.9941
 11
-142.688
 21
-17.9941
  0
LINE
  8
0
 10
-142.594
 20
-23.997
 11
-142.781
 21
-23.9734
  0
LINE
  8
0
 10
-142.781
 20
-23.9734
 11
-142.964
 21
-23.9266
  0
LINE
  8
0
 10
-142.964
 20
-23.9266
 11
-143.139
 21
-23.8572
  0
LINE
  8
0
 10
-143.139
 20
-23.8572
 11
-143.304
 21
-23.7665
  0
LINE
  8
0
 10
-143.304
 20
-23.7665
 11
-143.456
 21
-23.6558
  0
LINE
  8
0
 10
-143.456
 20
-23.6558
 11
-143.593
 21
-23.5268
  0
LINE
  8
0
 10
-143.593
 20
-23.5268
 11
-143.714
 21
-23.3817
  0
LINE
  8
0
 10
-143.714
 20
-23.3817
 11
-143.814
 21
-23.2226
  0
LINE
  8
0
 10
-143.814
 20
-23.2226
 11
-143.895
 21
-23.0522
  0
LINE
  8
0
 10
-143.895
 20
-23.0522
 11
-143.953
 21
-22.873
  0
LINE
  8
0
 10
-143.953
 20
-22.873
 11
-143.988
 21
-22.688
  0
LINE
  8
0
 10
-143.988
 20
-22.688
 11
-144
 21
-22.5
  0
LINE
  8
0
 10
-144
 20
-22.5
 11
-143.988
 21
-22.312
  0
LINE
  8
0
 10
-143.988
 20
-22.312
 11
-143.953
 21
-22.127
  0
LINE
  8
0
 10
-143.953
 20
-22.127
 11
-143.895
 21
-21.9478
  0
LINE
  8
0
 10
-143.895
 20
-21.9478
 11
-143.814
 21
-21.7774
  0
LINE
  8
0
 10
-143.814
 20
-21.7774
 11
-143.714
 21
-21.6183
  0
LINE
  8
0
 10
-143.714
 20
-21.6183
 11
-143.593
 21
-21.4732
  0
LINE
  8
0
 10
-143.593
 20
-21.4732
 11
-143.456
 21
-21.3442
  0
LINE
  8
0
 10
-143.456
 20
-21.3442
 11
-143.304
 21
-21.2335
  0
LINE
  8
0
 10
-143.304
 20
-21.2335
 11
-143.139
 21
-21.1427
  0
LINE
  8
0
 10
-143.139
 20
-21.1427
 11
-142.964
 21
-21.0734
  0
LINE
  8
0
 10
-142.964
 20
-21.0734
 11
-142.781
 21
-21.0266
  0
LINE
  8
0
 10
-142.781
 20
-21.0266
 11
-142.594
 21
-21.003
  0
LINE
  8
0
 10
-142.594
 20
-21.003
 11
-142.406
 21
-21.003
  0
LINE
  8
0
 10
-142.406
 20
-21.003
 11
-142.219
 21
-21.0266
  0
LINE
  8
0
 10
-142.219
 20
-21.0266
 11
-142.036
 21
-21.0734
  0
LINE
  8
0
 10
-142.036
 20
-21.0734
 11
-141.861
 21
-21.1427
  0
LINE
  8
0
 10
-141.861
 20
-21.1427
 11
-141.696
 21
-21.2335
  0
LINE
  8
0
 10
-141.696
 20
-21.2335
 11
-141.544
 21
-21.3442
  0
LINE
  8
0
 10
-141.544
 20
-21.3442
 11
-141.407
 21
-21.4732
  0
LINE
  8
0
 10
-141.407
 20
-21.4732
 11
-141.286
 21
-21.6183
  0
LINE
  8
0
 10
-141.286
 20
-21.6183
 11
-141.186
 21
-21.7774
  0
LINE
  8
0
 10
-141.186
 20
-21.7774
 11
-141.105
 21
-21.9478
  0
LINE
  8
0
 10
-141.105
 20
-21.9478
 11
-141.047
 21
-22.127
  0
LINE
  8
0
 10
-141.047
 20
-22.127
 11
-141.012
 21
-22.312
  0
LINE
  8
0
 10
-141.012
 20
-22.312
 11
-141
 21
-22.5
  0
LINE
  8
0
 10
-141
 20
-22.5
 11
-141.012
 21
-22.688
  0
LINE
  8
0
 10
-141.012
 20
-22.688
 11
-141.047
 21
-22.873
  0
LINE
  8
0
 10
-141.047
 20
-22.873
 11
-141.105
 21
-23.0522
  0
LINE
  8
0
 10
-141.105
 20
-23.0522
 11
-141.186
 21
-23.2226
  0
LINE
  8
0
 10
-141.186
 20
-23.2226
 11
-141.286
 21
-23.3817
  0
LINE
  8
0
 10
-141.286
 20
-23.3817
 11
-141.407
 21
-23.5268
  0
LINE
  8
0
 10
-141.407
 20
-23.5268
 11
-141.544
 21
-23.6558
  0
LINE
  8
0
 10
-141.544
 20
-23.6558
 11
-141.696
 21
-23.7665
  0
LINE
  8
0
 10
-141.696
 20
-23.7665
 11
-141.861
 21
-23.8572
  0
LINE
  8
0
 10
-141.861
 20
-23.8572
 11
-142.036
 21
-23.9266
  0
LINE
  8
0
 10
-142.036
 20
-23.9266
 11
-142.219
 21
-23.9734
  0
LINE
  8
0
 10
-142.219
 20
-23.9734
 11
-142.406
 21
-23.997
  0
LINE
  8
0
 10
-142.406
 20
-23.997
 11
-142.594
 21
-23.997
  0
LINE
  8
0
 10
-142.688
 20
-32.9941
 11
-143.062
 21
-32.9469
  0
LINE
  8
0
 10
-143.062
 20
-32.9469
 11
-143.427
 21
-32.8532
  0
LINE
  8
0
 10
-143.427
 20
-32.8532
 11
-143.777
 21
-32.7145
  0
LINE
  8
0
 10
-143.777
 20
-32.7145
 11
-144.107
 21
-32.533
  0
LINE
  8
0
 10
-144.107
 20
-32.533
 11
-144.412
 21
-32.3115
  0
LINE
  8
0
 10
-144.412
 20
-32.3115
 11
-144.687
 21
-32.0536
  0
LINE
  8
0
 10
-144.687
 20
-32.0536
 11
-144.927
 21
-31.7634
  0
LINE
  8
0
 10
-144.927
 20
-31.7634
 11
-145.129
 21
-31.4453
  0
LINE
  8
0
 10
-145.129
 20
-31.4453
 11
-145.289
 21
-31.1044
  0
LINE
  8
0
 10
-145.289
 20
-31.1044
 11
-145.406
 21
-30.7461
  0
LINE
  8
0
 10
-145.406
 20
-30.7461
 11
-145.476
 21
-30.376
  0
LINE
  8
0
 10
-145.476
 20
-30.376
 11
-145.5
 21
-30
  0
LINE
  8
0
 10
-145.5
 20
-30
 11
-145.476
 21
-29.624
  0
LINE
  8
0
 10
-145.476
 20
-29.624
 11
-145.406
 21
-29.2539
  0
LINE
  8
0
 10
-145.406
 20
-29.2539
 11
-145.289
 21
-28.8956
  0
LINE
  8
0
 10
-145.289
 20
-28.8956
 11
-145.129
 21
-28.5547
  0
LINE
  8
0
 10
-145.129
 20
-28.5547
 11
-144.927
 21
-28.2366
  0
LINE
  8
0
 10
-144.927
 20
-28.2366
 11
-144.687
 21
-27.9464
  0
LINE
  8
0
 10
-144.687
 20
-27.9464
 11
-144.412
 21
-27.6884
  0
LINE
  8
0
 10
-144.412
 20
-27.6884
 11
-144.107
 21
-27.467
  0
LINE
  8
0
 10
-144.107
 20
-27.467
 11
-143.777
 21
-27.2855
  0
LINE
  8
0
 10
-143.777
 20
-27.2855
 11
-143.427
 21
-27.1468
  0
LINE
  8
0
 10
-143.427
 20
-27.1468
 11
-143.062
 21
-27.0531
  0
LINE
  8
0
 10
-143.062
 20
-27.0531
 11
-142.688
 21
-27.0059
  0
LINE
  8
0
 10
-142.688
 20
-27.0059
 11
-142.312
 21
-27.0059
  0
LINE
  8
0
 10
-142.312
 20
-27.0059
 11
-141.938
 21
-27.0531
  0
LINE
  8
0
 10
-141.938
 20
-27.0531
 11
-141.573
 21
-27.1468
  0
LINE
  8
0
 10
-141.573
 20
-27.1468
 11
-141.223
 21
-27.2855
  0
LINE
  8
0
 10
-141.223
 20
-27.2855
 11
-140.893
 21
-27.467
  0
LINE
  8
0
 10
-140.893
 20
-27.467
 11
-140.588
 21
-27.6884
  0
LINE
  8
0
 10
-140.588
 20
-27.6884
 11
-140.313
 21
-27.9464
  0
LINE
  8
0
 10
-140.313
 20
-27.9464
 11
-140.073
 21
-28.2366
  0
LINE
  8
0
 10
-140.073
 20
-28.2366
 11
-139.871
 21
-28.5547
  0
LINE
  8
0
 10
-139.871
 20
-28.5547
 11
-139.711
 21
-28.8956
  0
LINE
  8
0
 10
-139.711
 20
-28.8956
 11
-139.594
 21
-29.2539
  0
LINE
  8
0
 10
-139.594
 20
-29.2539
 11
-139.524
 21
-29.624
  0
LINE
  8
0
 10
-139.524
 20
-29.624
 11
-139.5
 21
-30
  0
LINE
  8
0
 10
-139.5
 20
-30
 11
-139.524
 21
-30.376
  0
LINE
  8
0
 10
-139.524
 20
-30.376
 11
-139.594
 21
-30.7461
  0
LINE
  8
0
 10
-139.594
 20
-30.7461
 11
-139.711
 21
-31.1044
  0
LINE
  8
0
 10
-139.711
 20
-31.1044
 11
-139.871
 21
-31.4453
  0
LINE
  8
0
 10
-139.871
 20
-31.4453
 11
-140.073
 21
-31.7634
  0
LINE
  8
0
 10
-140.073
 20
-31.7634
 11
-140.313
 21
-32.0536
  0
LINE
  8
0
 10
-140.313
 20
-32.0536
 11
-140.588
 21
-32.3115
  0
LINE
  8
0
 10
-140.588
 20
-32.3115
 11
-140.893
 21
-32.533
  0
LINE
  8
0
 10
-140.893
 20
-32.533
 11
-141.223
 21
-32.7145
  0
LINE
  8
0
 10
-141.223
 20
-32.7145
 11
-141.573
 21
-32.8532
  0
LINE
  8
0
 10
-141.573
 20
-32.8532
 11
-141.938
 21
-32.9469
  0
LINE
  8
0
 10
-141.938
 20
-32.9469
 11
-142.312
 21
-32.9941
  0
LINE
  8
0
 10
-142.312
 20
-32.9941
 11
-142.688
 21
-32.9941
  0
ENDSEC
  0
SECTION
  2
OBJECTS
  0
DICTIONARY
  0
ENDSEC
  0
EOF
