  0
SECTION
  2
BLOCKS
  0
ENDSEC
  0
SECTION
  2
ENTITIES
  0
LINE
  8
0
 10
242.937
 20
-6.91142
 11
243.545
 21
-6.75528
  0
LINE
  8
0
 10
243.545
 20
-6.75528
 11
244.129
 21
-6.52412
  0
LINE
  8
0
 10
244.129
 20
-6.52412
 11
244.679
 21
-6.22163
  0
LINE
  8
0
 10
244.679
 20
-6.22163
 11
245.187
 21
-5.85255
  0
LINE
  8
0
 10
245.187
 20
-5.85255
 11
245.645
 21
-5.42273
  0
LINE
  8
0
 10
245.645
 20
-5.42273
 11
246.045
 21
-4.93892
  0
LINE
  8
0
 10
246.045
 20
-4.93892
 11
246.382
 21
-4.40877
  0
LINE
  8
0
 10
246.382
 20
-4.40877
 11
246.649
 21
-3.84062
  0
LINE
  8
0
 10
246.649
 20
-3.84062
 11
246.843
 21
-3.24344
  0
LINE
  8
0
 10
246.843
 20
-3.24344
 11
246.961
 21
-2.62666
  0
LINE
  8
0
 10
246.961
 20
-2.62666
 11
247
 21
-2
  0
LINE
  8
0
 10
247
 20
-2
 11
247
 21
2
  0
LINE
  8
0
 10
247
 20
2
 11
246.961
 21
2.62666
  0
LINE
  8
0
 10
246.961
 20
2.62666
 11
246.843
 21
3.24344
  0
LINE
  8
0
 10
246.843
 20
3.24344
 11
246.649
 21
3.84062
  0
LINE
  8
0
 10
246.649
 20
3.84062
 11
246.382
 21
4.40877
  0
LINE
  8
0
 10
246.382
 20
4.40877
 11
246.045
 21
4.93892
  0
LINE
  8
0
 10
246.045
 20
4.93892
 11
245.645
 21
5.42273
  0
LINE
  8
0
 10
245.645
 20
5.42273
 11
245.187
 21
5.85255
  0
LINE
  8
0
 10
245.187
 20
5.85255
 11
244.679
 21
6.22163
  0
LINE
  8
0
 10
244.679
 20
6.22163
 11
244.129
 21
6.52412
  0
LINE
  8
0
 10
244.129
 20
6.52412
 11
243.545
 21
6.75528
  0
LINE
  8
0
 10
243.545
 20
6.75528
 11
242.937
 21
6.91142
  0
LINE
  8
0
 10
242.937
 20
6.91142
 11
242.314
 21
6.99013
  0
LINE
  8
0
 10
242.314
 20
6.99013
 11
-242.314
 21
6.99013
  0
LINE
  8
0
 10
-242.314
 20
6.99013
 11
-242.937
 21
6.91142
  0
LINE
  8
0
 10
-242.937
 20
6.91142
 11
-243.545
 21
6.75528
  0
LINE
  8
0
 10
-243.545
 20
6.75528
 11
-244.129
 21
6.52412
  0
LINE
  8
0
 10
-244.129
 20
6.52412
 11
-244.679
 21
6.22163
  0
LINE
  8
0
 10
-244.679
 20
6.22163
 11
-245.187
 21
5.85255
  0
LINE
  8
0
 10
-245.187
 20
5.85255
 11
-245.645
 21
5.42273
  0
LINE
  8
0
 10
-245.645
 20
5.42273
 11
-246.045
 21
4.93892
  0
LINE
  8
0
 10
-246.045
 20
4.93892
 11
-246.382
 21
4.40877
  0
LINE
  8
0
 10
-246.382
 20
4.40877
 11
-246.649
 21
3.84062
  0
LINE
  8
0
 10
-246.649
 20
3.84062
 11
-246.843
 21
3.24344
  0
LINE
  8
0
 10
-246.843
 20
3.24344
 11
-246.961
 21
2.62666
  0
LINE
  8
0
 10
-246.961
 20
2.62666
 11
-247
 21
2
  0
LINE
  8
0
 10
-247
 20
2
 11
-247
 21
-2
  0
LINE
  8
0
 10
-247
 20
-2
 11
-246.961
 21
-2.62666
  0
LINE
  8
0
 10
-246.961
 20
-2.62666
 11
-246.843
 21
-3.24344
  0
LINE
  8
0
 10
-246.843
 20
-3.24344
 11
-246.649
 21
-3.84062
  0
LINE
  8
0
 10
-246.649
 20
-3.84062
 11
-246.382
 21
-4.40877
  0
LINE
  8
0
 10
-246.382
 20
-4.40877
 11
-246.045
 21
-4.93892
  0
LINE
  8
0
 10
-246.045
 20
-4.93892
 11
-245.645
 21
-5.42273
  0
LINE
  8
0
 10
-245.645
 20
-5.42273
 11
-245.187
 21
-5.85255
  0
LINE
  8
0
 10
-245.187
 20
-5.85255
 11
-244.679
 21
-6.22163
  0
LINE
  8
0
 10
-244.679
 20
-6.22163
 11
-244.129
 21
-6.52412
  0
LINE
  8
0
 10
-244.129
 20
-6.52412
 11
-243.545
 21
-6.75528
  0
LINE
  8
0
 10
-243.545
 20
-6.75528
 11
-242.937
 21
-6.91142
  0
LINE
  8
0
 10
-242.937
 20
-6.91142
 11
-242.314
 21
-6.99013
  0
LINE
  8
0
 10
-242.314
 20
-6.99013
 11
242.314
 21
-6.99013
  0
LINE
  8
0
 10
242.314
 20
-6.99013
 11
242.937
 21
-6.91142
  0
LINE
  8
0
 10
239.812
 20
-2.99408
 11
239.438
 21
-2.94685
  0
LINE
  8
0
 10
239.438
 20
-2.94685
 11
239.073
 21
-2.85316
  0
LINE
  8
0
 10
239.073
 20
-2.85316
 11
238.723
 21
-2.71448
  0
LINE
  8
0
 10
238.723
 20
-2.71448
 11
238.393
 21
-2.53297
  0
LINE
  8
0
 10
238.393
 20
-2.53297
 11
238.088
 21
-2.31154
  0
LINE
  8
0
 10
238.088
 20
-2.31154
 11
237.813
 21
-2.05363
  0
LINE
  8
0
 10
237.813
 20
-2.05363
 11
237.573
 21
-1.76335
  0
LINE
  8
0
 10
237.573
 20
-1.76335
 11
237.371
 21
-1.44525
  0
LINE
  8
0
 10
237.371
 20
-1.44525
 11
237.211
 21
-1.10437
  0
LINE
  8
0
 10
237.211
 20
-1.10437
 11
237.094
 21
-0.746063
  0
LINE
  8
0
 10
237.094
 20
-0.746063
 11
237.024
 21
-0.375992
  0
LINE
  8
0
 10
237.024
 20
-0.375992
 11
237
 21
0
  0
LINE
  8
0
 10
237
 20
0
 11
237.024
 21
0.375992
  0
LINE
  8
0
 10
237.024
 20
0.375992
 11
237.094
 21
0.746063
  0
LINE
  8
0
 10
237.094
 20
0.746063
 11
237.211
 21
1.10437
  0
LINE
  8
0
 10
237.211
 20
1.10437
 11
237.371
 21
1.44525
  0
LINE
  8
0
 10
237.371
 20
1.44525
 11
237.573
 21
1.76335
  0
LINE
  8
0
 10
237.573
 20
1.76335
 11
237.813
 21
2.05363
  0
LINE
  8
0
 10
237.813
 20
2.05363
 11
238.088
 21
2.31154
  0
LINE
  8
0
 10
238.088
 20
2.31154
 11
238.393
 21
2.53297
  0
LINE
  8
0
 10
238.393
 20
2.53297
 11
238.723
 21
2.71448
  0
LINE
  8
0
 10
238.723
 20
2.71448
 11
239.073
 21
2.85316
  0
LINE
  8
0
 10
239.073
 20
2.85316
 11
239.438
 21
2.94685
  0
LINE
  8
0
 10
239.438
 20
2.94685
 11
239.812
 21
2.99408
  0
LINE
  8
0
 10
239.812
 20
2.99408
 11
240.188
 21
2.99408
  0
LINE
  8
0
 10
240.188
 20
2.99408
 11
240.562
 21
2.94685
  0
LINE
  8
0
 10
240.562
 20
2.94685
 11
240.927
 21
2.85316
  0
LINE
  8
0
 10
240.927
 20
2.85316
 11
241.277
 21
2.71448
  0
LINE
  8
0
 10
241.277
 20
2.71448
 11
241.607
 21
2.53297
  0
LINE
  8
0
 10
241.607
 20
2.53297
 11
241.912
 21
2.31154
  0
LINE
  8
0
 10
241.912
 20
2.31154
 11
242.187
 21
2.05363
  0
LINE
  8
0
 10
242.187
 20
2.05363
 11
242.427
 21
1.76335
  0
LINE
  8
0
 10
242.427
 20
1.76335
 11
242.629
 21
1.44525
  0
LINE
  8
0
 10
242.629
 20
1.44525
 11
242.789
 21
1.10437
  0
LINE
  8
0
 10
242.789
 20
1.10437
 11
242.906
 21
0.746063
  0
LINE
  8
0
 10
242.906
 20
0.746063
 11
242.976
 21
0.375992
  0
LINE
  8
0
 10
242.976
 20
0.375992
 11
243
 21
0
  0
LINE
  8
0
 10
243
 20
0
 11
242.976
 21
-0.375992
  0
LINE
  8
0
 10
242.976
 20
-0.375992
 11
242.906
 21
-0.746063
  0
LINE
  8
0
 10
242.906
 20
-0.746063
 11
242.789
 21
-1.10437
  0
LINE
  8
0
 10
242.789
 20
-1.10437
 11
242.629
 21
-1.44525
  0
LINE
  8
0
 10
242.629
 20
-1.44525
 11
242.427
 21
-1.76335
  0
LINE
  8
0
 10
242.427
 20
-1.76335
 11
242.187
 21
-2.05363
  0
LINE
  8
0
 10
242.187
 20
-2.05363
 11
241.912
 21
-2.31154
  0
LINE
  8
0
 10
241.912
 20
-2.31154
 11
241.607
 21
-2.53297
  0
LINE
  8
0
 10
241.607
 20
-2.53297
 11
241.277
 21
-2.71448
  0
LINE
  8
0
 10
241.277
 20
-2.71448
 11
240.927
 21
-2.85316
  0
LINE
  8
0
 10
240.927
 20
-2.85316
 11
240.562
 21
-2.94685
  0
LINE
  8
0
 10
240.562
 20
-2.94685
 11
240.188
 21
-2.99408
  0
LINE
  8
0
 10
240.188
 20
-2.99408
 11
239.812
 21
-2.99408
  0
LINE
  8
0
 10
-240.188
 20
-2.99408
 11
-240.562
 21
-2.94685
  0
LINE
  8
0
 10
-240.562
 20
-2.94685
 11
-240.927
 21
-2.85316
  0
LINE
  8
0
 10
-240.927
 20
-2.85316
 11
-241.277
 21
-2.71448
  0
LINE
  8
0
 10
-241.277
 20
-2.71448
 11
-241.607
 21
-2.53297
  0
LINE
  8
0
 10
-241.607
 20
-2.53297
 11
-241.912
 21
-2.31154
  0
LINE
  8
0
 10
-241.912
 20
-2.31154
 11
-242.187
 21
-2.05363
  0
LINE
  8
0
 10
-242.187
 20
-2.05363
 11
-242.427
 21
-1.76335
  0
LINE
  8
0
 10
-242.427
 20
-1.76335
 11
-242.629
 21
-1.44525
  0
LINE
  8
0
 10
-242.629
 20
-1.44525
 11
-242.789
 21
-1.10437
  0
LINE
  8
0
 10
-242.789
 20
-1.10437
 11
-242.906
 21
-0.746063
  0
LINE
  8
0
 10
-242.906
 20
-0.746063
 11
-242.976
 21
-0.375992
  0
LINE
  8
0
 10
-242.976
 20
-0.375992
 11
-243
 21
0
  0
LINE
  8
0
 10
-243
 20
0
 11
-242.976
 21
0.375992
  0
LINE
  8
0
 10
-242.976
 20
0.375992
 11
-242.906
 21
0.746063
  0
LINE
  8
0
 10
-242.906
 20
0.746063
 11
-242.789
 21
1.10437
  0
LINE
  8
0
 10
-242.789
 20
1.10437
 11
-242.629
 21
1.44525
  0
LINE
  8
0
 10
-242.629
 20
1.44525
 11
-242.427
 21
1.76335
  0
LINE
  8
0
 10
-242.427
 20
1.76335
 11
-242.187
 21
2.05363
  0
LINE
  8
0
 10
-242.187
 20
2.05363
 11
-241.912
 21
2.31154
  0
LINE
  8
0
 10
-241.912
 20
2.31154
 11
-241.607
 21
2.53297
  0
LINE
  8
0
 10
-241.607
 20
2.53297
 11
-241.277
 21
2.71448
  0
LINE
  8
0
 10
-241.277
 20
2.71448
 11
-240.927
 21
2.85316
  0
LINE
  8
0
 10
-240.927
 20
2.85316
 11
-240.562
 21
2.94685
  0
LINE
  8
0
 10
-240.562
 20
2.94685
 11
-240.188
 21
2.99408
  0
LINE
  8
0
 10
-240.188
 20
2.99408
 11
-239.812
 21
2.99408
  0
LINE
  8
0
 10
-239.812
 20
2.99408
 11
-239.438
 21
2.94685
  0
LINE
  8
0
 10
-239.438
 20
2.94685
 11
-239.073
 21
2.85316
  0
LINE
  8
0
 10
-239.073
 20
2.85316
 11
-238.723
 21
2.71448
  0
LINE
  8
0
 10
-238.723
 20
2.71448
 11
-238.393
 21
2.53297
  0
LINE
  8
0
 10
-238.393
 20
2.53297
 11
-238.088
 21
2.31154
  0
LINE
  8
0
 10
-238.088
 20
2.31154
 11
-237.813
 21
2.05363
  0
LINE
  8
0
 10
-237.813
 20
2.05363
 11
-237.573
 21
1.76335
  0
LINE
  8
0
 10
-237.573
 20
1.76335
 11
-237.371
 21
1.44525
  0
LINE
  8
0
 10
-237.371
 20
1.44525
 11
-237.211
 21
1.10437
  0
LINE
  8
0
 10
-237.211
 20
1.10437
 11
-237.094
 21
0.746063
  0
LINE
  8
0
 10
-237.094
 20
0.746063
 11
-237.024
 21
0.375992
  0
LINE
  8
0
 10
-237.024
 20
0.375992
 11
-237
 21
0
  0
LINE
  8
0
 10
-237
 20
0
 11
-237.024
 21
-0.375992
  0
LINE
  8
0
 10
-237.024
 20
-0.375992
 11
-237.094
 21
-0.746063
  0
LINE
  8
0
 10
-237.094
 20
-0.746063
 11
-237.211
 21
-1.10437
  0
LINE
  8
0
 10
-237.211
 20
-1.10437
 11
-237.371
 21
-1.44525
  0
LINE
  8
0
 10
-237.371
 20
-1.44525
 11
-237.573
 21
-1.76335
  0
LINE
  8
0
 10
-237.573
 20
-1.76335
 11
-237.813
 21
-2.05363
  0
LINE
  8
0
 10
-237.813
 20
-2.05363
 11
-238.088
 21
-2.31154
  0
LINE
  8
0
 10
-238.088
 20
-2.31154
 11
-238.393
 21
-2.53297
  0
LINE
  8
0
 10
-238.393
 20
-2.53297
 11
-238.723
 21
-2.71448
  0
LINE
  8
0
 10
-238.723
 20
-2.71448
 11
-239.073
 21
-2.85316
  0
LINE
  8
0
 10
-239.073
 20
-2.85316
 11
-239.438
 21
-2.94685
  0
LINE
  8
0
 10
-239.438
 20
-2.94685
 11
-239.812
 21
-2.99408
  0
LINE
  8
0
 10
-239.812
 20
-2.99408
 11
-240.188
 21
-2.99408
  0
ENDSEC
  0
SECTION
  2
OBJECTS
  0
DICTIONARY
  0
ENDSEC
  0
EOF
