  0
SECTION
  2
BLOCKS
  0
ENDSEC
  0
SECTION
  2
ENTITIES
  0
LINE
  8
0
 10
40.4369
 20
-29.4114
 11
41.0451
 21
-29.2553
  0
LINE
  8
0
 10
41.0451
 20
-29.2553
 11
41.6289
 21
-29.0241
  0
LINE
  8
0
 10
41.6289
 20
-29.0241
 11
42.1791
 21
-28.7216
  0
LINE
  8
0
 10
42.1791
 20
-28.7216
 11
42.6871
 21
-28.3526
  0
LINE
  8
0
 10
42.6871
 20
-28.3526
 11
43.1448
 21
-27.9227
  0
LINE
  8
0
 10
43.1448
 20
-27.9227
 11
43.5451
 21
-27.4389
  0
LINE
  8
0
 10
43.5451
 20
-27.4389
 11
43.8815
 21
-26.9088
  0
LINE
  8
0
 10
43.8815
 20
-26.9088
 11
44.1489
 21
-26.3406
  0
LINE
  8
0
 10
44.1489
 20
-26.3406
 11
44.3429
 21
-25.7434
  0
LINE
  8
0
 10
44.3429
 20
-25.7434
 11
44.4606
 21
-25.1267
  0
LINE
  8
0
 10
44.4606
 20
-25.1267
 11
44.5
 21
-24.5
  0
LINE
  8
0
 10
44.5
 20
-24.5
 11
44.5
 21
24.5
  0
LINE
  8
0
 10
44.5
 20
24.5
 11
44.4606
 21
25.1267
  0
LINE
  8
0
 10
44.4606
 20
25.1267
 11
44.3429
 21
25.7434
  0
LINE
  8
0
 10
44.3429
 20
25.7434
 11
44.1489
 21
26.3406
  0
LINE
  8
0
 10
44.1489
 20
26.3406
 11
43.8815
 21
26.9088
  0
LINE
  8
0
 10
43.8815
 20
26.9088
 11
43.5451
 21
27.4389
  0
LINE
  8
0
 10
43.5451
 20
27.4389
 11
43.1448
 21
27.9227
  0
LINE
  8
0
 10
43.1448
 20
27.9227
 11
42.6871
 21
28.3526
  0
LINE
  8
0
 10
42.6871
 20
28.3526
 11
42.1791
 21
28.7216
  0
LINE
  8
0
 10
42.1791
 20
28.7216
 11
41.6289
 21
29.0241
  0
LINE
  8
0
 10
41.6289
 20
29.0241
 11
41.0451
 21
29.2553
  0
LINE
  8
0
 10
41.0451
 20
29.2553
 11
40.4369
 21
29.4114
  0
LINE
  8
0
 10
40.4369
 20
29.4114
 11
39.8139
 21
29.4901
  0
LINE
  8
0
 10
39.8139
 20
29.4901
 11
-39.8139
 21
29.4901
  0
LINE
  8
0
 10
-39.8139
 20
29.4901
 11
-40.4369
 21
29.4114
  0
LINE
  8
0
 10
-40.4369
 20
29.4114
 11
-41.0451
 21
29.2553
  0
LINE
  8
0
 10
-41.0451
 20
29.2553
 11
-41.6289
 21
29.0241
  0
LINE
  8
0
 10
-41.6289
 20
29.0241
 11
-42.1791
 21
28.7216
  0
LINE
  8
0
 10
-42.1791
 20
28.7216
 11
-42.6871
 21
28.3526
  0
LINE
  8
0
 10
-42.6871
 20
28.3526
 11
-43.1448
 21
27.9227
  0
LINE
  8
0
 10
-43.1448
 20
27.9227
 11
-43.5451
 21
27.4389
  0
LINE
  8
0
 10
-43.5451
 20
27.4389
 11
-43.8815
 21
26.9088
  0
LINE
  8
0
 10
-43.8815
 20
26.9088
 11
-44.1489
 21
26.3406
  0
LINE
  8
0
 10
-44.1489
 20
26.3406
 11
-44.3429
 21
25.7434
  0
LINE
  8
0
 10
-44.3429
 20
25.7434
 11
-44.4606
 21
25.1267
  0
LINE
  8
0
 10
-44.4606
 20
25.1267
 11
-44.5
 21
24.5
  0
LINE
  8
0
 10
-44.5
 20
24.5
 11
-44.5
 21
-24.5
  0
LINE
  8
0
 10
-44.5
 20
-24.5
 11
-44.4606
 21
-25.1267
  0
LINE
  8
0
 10
-44.4606
 20
-25.1267
 11
-44.3429
 21
-25.7434
  0
LINE
  8
0
 10
-44.3429
 20
-25.7434
 11
-44.1489
 21
-26.3406
  0
LINE
  8
0
 10
-44.1489
 20
-26.3406
 11
-43.8815
 21
-26.9088
  0
LINE
  8
0
 10
-43.8815
 20
-26.9088
 11
-43.5451
 21
-27.4389
  0
LINE
  8
0
 10
-43.5451
 20
-27.4389
 11
-43.1448
 21
-27.9227
  0
LINE
  8
0
 10
-43.1448
 20
-27.9227
 11
-42.6871
 21
-28.3526
  0
LINE
  8
0
 10
-42.6871
 20
-28.3526
 11
-42.1791
 21
-28.7216
  0
LINE
  8
0
 10
-42.1791
 20
-28.7216
 11
-41.6289
 21
-29.0241
  0
LINE
  8
0
 10
-41.6289
 20
-29.0241
 11
-41.0451
 21
-29.2553
  0
LINE
  8
0
 10
-41.0451
 20
-29.2553
 11
-40.4369
 21
-29.4114
  0
LINE
  8
0
 10
-40.4369
 20
-29.4114
 11
-39.8139
 21
-29.4901
  0
LINE
  8
0
 10
-39.8139
 20
-29.4901
 11
39.8139
 21
-29.4901
  0
LINE
  8
0
 10
39.8139
 20
-29.4901
 11
40.4369
 21
-29.4114
  0
LINE
  8
0
 10
-37.6884
 20
19.5059
 11
-38.0621
 21
19.5531
  0
LINE
  8
0
 10
-38.0621
 20
19.5531
 11
-38.427
 21
19.6468
  0
LINE
  8
0
 10
-38.427
 20
19.6468
 11
-38.7773
 21
19.7855
  0
LINE
  8
0
 10
-38.7773
 20
19.7855
 11
-39.1075
 21
19.967
  0
LINE
  8
0
 10
-39.1075
 20
19.967
 11
-39.4123
 21
20.1884
  0
LINE
  8
0
 10
-39.4123
 20
20.1884
 11
-39.6869
 21
20.4464
  0
LINE
  8
0
 10
-39.6869
 20
20.4464
 11
-39.927
 21
20.7366
  0
LINE
  8
0
 10
-39.927
 20
20.7366
 11
-40.1289
 21
21.0547
  0
LINE
  8
0
 10
-40.1289
 20
21.0547
 11
-40.2893
 21
21.3956
  0
LINE
  8
0
 10
-40.2893
 20
21.3956
 11
-40.4057
 21
21.7539
  0
LINE
  8
0
 10
-40.4057
 20
21.7539
 11
-40.4763
 21
22.124
  0
LINE
  8
0
 10
-40.4763
 20
22.124
 11
-40.5
 21
22.5
  0
LINE
  8
0
 10
-40.5
 20
22.5
 11
-40.4763
 21
22.876
  0
LINE
  8
0
 10
-40.4763
 20
22.876
 11
-40.4057
 21
23.2461
  0
LINE
  8
0
 10
-40.4057
 20
23.2461
 11
-40.2893
 21
23.6044
  0
LINE
  8
0
 10
-40.2893
 20
23.6044
 11
-40.1289
 21
23.9453
  0
LINE
  8
0
 10
-40.1289
 20
23.9453
 11
-39.927
 21
24.2634
  0
LINE
  8
0
 10
-39.927
 20
24.2634
 11
-39.6869
 21
24.5536
  0
LINE
  8
0
 10
-39.6869
 20
24.5536
 11
-39.4123
 21
24.8115
  0
LINE
  8
0
 10
-39.4123
 20
24.8115
 11
-39.1075
 21
25.033
  0
LINE
  8
0
 10
-39.1075
 20
25.033
 11
-38.7773
 21
25.2145
  0
LINE
  8
0
 10
-38.7773
 20
25.2145
 11
-38.427
 21
25.3532
  0
LINE
  8
0
 10
-38.427
 20
25.3532
 11
-38.0621
 21
25.4469
  0
LINE
  8
0
 10
-38.0621
 20
25.4469
 11
-37.6884
 21
25.4941
  0
LINE
  8
0
 10
-37.6884
 20
25.4941
 11
-37.3116
 21
25.4941
  0
LINE
  8
0
 10
-37.3116
 20
25.4941
 11
-36.9379
 21
25.4469
  0
LINE
  8
0
 10
-36.9379
 20
25.4469
 11
-36.5729
 21
25.3532
  0
LINE
  8
0
 10
-36.5729
 20
25.3532
 11
-36.2227
 21
25.2145
  0
LINE
  8
0
 10
-36.2227
 20
25.2145
 11
-35.8925
 21
25.033
  0
LINE
  8
0
 10
-35.8925
 20
25.033
 11
-35.5877
 21
24.8115
  0
LINE
  8
0
 10
-35.5877
 20
24.8115
 11
-35.3131
 21
24.5536
  0
LINE
  8
0
 10
-35.3131
 20
24.5536
 11
-35.0729
 21
24.2634
  0
LINE
  8
0
 10
-35.0729
 20
24.2634
 11
-34.8711
 21
23.9453
  0
LINE
  8
0
 10
-34.8711
 20
23.9453
 11
-34.7107
 21
23.6044
  0
LINE
  8
0
 10
-34.7107
 20
23.6044
 11
-34.5942
 21
23.2461
  0
LINE
  8
0
 10
-34.5942
 20
23.2461
 11
-34.5237
 21
22.876
  0
LINE
  8
0
 10
-34.5237
 20
22.876
 11
-34.5
 21
22.5
  0
LINE
  8
0
 10
-34.5
 20
22.5
 11
-34.5237
 21
22.124
  0
LINE
  8
0
 10
-34.5237
 20
22.124
 11
-34.5942
 21
21.7539
  0
LINE
  8
0
 10
-34.5942
 20
21.7539
 11
-34.7107
 21
21.3956
  0
LINE
  8
0
 10
-34.7107
 20
21.3956
 11
-34.8711
 21
21.0547
  0
LINE
  8
0
 10
-34.8711
 20
21.0547
 11
-35.0729
 21
20.7366
  0
LINE
  8
0
 10
-35.0729
 20
20.7366
 11
-35.3131
 21
20.4464
  0
LINE
  8
0
 10
-35.3131
 20
20.4464
 11
-35.5877
 21
20.1884
  0
LINE
  8
0
 10
-35.5877
 20
20.1884
 11
-35.8925
 21
19.967
  0
LINE
  8
0
 10
-35.8925
 20
19.967
 11
-36.2227
 21
19.7855
  0
LINE
  8
0
 10
-36.2227
 20
19.7855
 11
-36.5729
 21
19.6468
  0
LINE
  8
0
 10
-36.5729
 20
19.6468
 11
-36.9379
 21
19.5531
  0
LINE
  8
0
 10
-36.9379
 20
19.5531
 11
-37.3116
 21
19.5059
  0
LINE
  8
0
 10
-37.3116
 20
19.5059
 11
-37.6884
 21
19.5059
  0
LINE
  8
0
 10
37.3116
 20
19.5059
 11
36.9379
 21
19.5531
  0
LINE
  8
0
 10
36.9379
 20
19.5531
 11
36.5729
 21
19.6468
  0
LINE
  8
0
 10
36.5729
 20
19.6468
 11
36.2227
 21
19.7855
  0
LINE
  8
0
 10
36.2227
 20
19.7855
 11
35.8925
 21
19.967
  0
LINE
  8
0
 10
35.8925
 20
19.967
 11
35.5877
 21
20.1884
  0
LINE
  8
0
 10
35.5877
 20
20.1884
 11
35.3131
 21
20.4464
  0
LINE
  8
0
 10
35.3131
 20
20.4464
 11
35.0729
 21
20.7366
  0
LINE
  8
0
 10
35.0729
 20
20.7366
 11
34.8711
 21
21.0547
  0
LINE
  8
0
 10
34.8711
 20
21.0547
 11
34.7107
 21
21.3956
  0
LINE
  8
0
 10
34.7107
 20
21.3956
 11
34.5942
 21
21.7539
  0
LINE
  8
0
 10
34.5942
 20
21.7539
 11
34.5237
 21
22.124
  0
LINE
  8
0
 10
34.5237
 20
22.124
 11
34.5
 21
22.5
  0
LINE
  8
0
 10
34.5
 20
22.5
 11
34.5237
 21
22.876
  0
LINE
  8
0
 10
34.5237
 20
22.876
 11
34.5942
 21
23.2461
  0
LINE
  8
0
 10
34.5942
 20
23.2461
 11
34.7107
 21
23.6044
  0
LINE
  8
0
 10
34.7107
 20
23.6044
 11
34.8711
 21
23.9453
  0
LINE
  8
0
 10
34.8711
 20
23.9453
 11
35.0729
 21
24.2634
  0
LINE
  8
0
 10
35.0729
 20
24.2634
 11
35.3131
 21
24.5536
  0
LINE
  8
0
 10
35.3131
 20
24.5536
 11
35.5877
 21
24.8115
  0
LINE
  8
0
 10
35.5877
 20
24.8115
 11
35.8925
 21
25.033
  0
LINE
  8
0
 10
35.8925
 20
25.033
 11
36.2227
 21
25.2145
  0
LINE
  8
0
 10
36.2227
 20
25.2145
 11
36.5729
 21
25.3532
  0
LINE
  8
0
 10
36.5729
 20
25.3532
 11
36.9379
 21
25.4469
  0
LINE
  8
0
 10
36.9379
 20
25.4469
 11
37.3116
 21
25.4941
  0
LINE
  8
0
 10
37.3116
 20
25.4941
 11
37.6884
 21
25.4941
  0
LINE
  8
0
 10
37.6884
 20
25.4941
 11
38.0621
 21
25.4469
  0
LINE
  8
0
 10
38.0621
 20
25.4469
 11
38.427
 21
25.3532
  0
LINE
  8
0
 10
38.427
 20
25.3532
 11
38.7773
 21
25.2145
  0
LINE
  8
0
 10
38.7773
 20
25.2145
 11
39.1075
 21
25.033
  0
LINE
  8
0
 10
39.1075
 20
25.033
 11
39.4123
 21
24.8115
  0
LINE
  8
0
 10
39.4123
 20
24.8115
 11
39.6869
 21
24.5536
  0
LINE
  8
0
 10
39.6869
 20
24.5536
 11
39.927
 21
24.2634
  0
LINE
  8
0
 10
39.927
 20
24.2634
 11
40.1289
 21
23.9453
  0
LINE
  8
0
 10
40.1289
 20
23.9453
 11
40.2893
 21
23.6044
  0
LINE
  8
0
 10
40.2893
 20
23.6044
 11
40.4057
 21
23.2461
  0
LINE
  8
0
 10
40.4057
 20
23.2461
 11
40.4763
 21
22.876
  0
LINE
  8
0
 10
40.4763
 20
22.876
 11
40.5
 21
22.5
  0
LINE
  8
0
 10
40.5
 20
22.5
 11
40.4763
 21
22.124
  0
LINE
  8
0
 10
40.4763
 20
22.124
 11
40.4057
 21
21.7539
  0
LINE
  8
0
 10
40.4057
 20
21.7539
 11
40.2893
 21
21.3956
  0
LINE
  8
0
 10
40.2893
 20
21.3956
 11
40.1289
 21
21.0547
  0
LINE
  8
0
 10
40.1289
 20
21.0547
 11
39.927
 21
20.7366
  0
LINE
  8
0
 10
39.927
 20
20.7366
 11
39.6869
 21
20.4464
  0
LINE
  8
0
 10
39.6869
 20
20.4464
 11
39.4123
 21
20.1884
  0
LINE
  8
0
 10
39.4123
 20
20.1884
 11
39.1075
 21
19.967
  0
LINE
  8
0
 10
39.1075
 20
19.967
 11
38.7773
 21
19.7855
  0
LINE
  8
0
 10
38.7773
 20
19.7855
 11
38.427
 21
19.6468
  0
LINE
  8
0
 10
38.427
 20
19.6468
 11
38.0621
 21
19.5531
  0
LINE
  8
0
 10
38.0621
 20
19.5531
 11
37.6884
 21
19.5059
  0
LINE
  8
0
 10
37.6884
 20
19.5059
 11
37.3116
 21
19.5059
  0
LINE
  8
0
 10
37.3116
 20
-25.4941
 11
36.9379
 21
-25.4469
  0
LINE
  8
0
 10
36.9379
 20
-25.4469
 11
36.5729
 21
-25.3532
  0
LINE
  8
0
 10
36.5729
 20
-25.3532
 11
36.2227
 21
-25.2145
  0
LINE
  8
0
 10
36.2227
 20
-25.2145
 11
35.8925
 21
-25.033
  0
LINE
  8
0
 10
35.8925
 20
-25.033
 11
35.5877
 21
-24.8115
  0
LINE
  8
0
 10
35.5877
 20
-24.8115
 11
35.3131
 21
-24.5536
  0
LINE
  8
0
 10
35.3131
 20
-24.5536
 11
35.0729
 21
-24.2634
  0
LINE
  8
0
 10
35.0729
 20
-24.2634
 11
34.8711
 21
-23.9453
  0
LINE
  8
0
 10
34.8711
 20
-23.9453
 11
34.7107
 21
-23.6044
  0
LINE
  8
0
 10
34.7107
 20
-23.6044
 11
34.5942
 21
-23.2461
  0
LINE
  8
0
 10
34.5942
 20
-23.2461
 11
34.5237
 21
-22.876
  0
LINE
  8
0
 10
34.5237
 20
-22.876
 11
34.5
 21
-22.5
  0
LINE
  8
0
 10
34.5
 20
-22.5
 11
34.5237
 21
-22.124
  0
LINE
  8
0
 10
34.5237
 20
-22.124
 11
34.5942
 21
-21.7539
  0
LINE
  8
0
 10
34.5942
 20
-21.7539
 11
34.7107
 21
-21.3956
  0
LINE
  8
0
 10
34.7107
 20
-21.3956
 11
34.8711
 21
-21.0547
  0
LINE
  8
0
 10
34.8711
 20
-21.0547
 11
35.0729
 21
-20.7366
  0
LINE
  8
0
 10
35.0729
 20
-20.7366
 11
35.3131
 21
-20.4464
  0
LINE
  8
0
 10
35.3131
 20
-20.4464
 11
35.5877
 21
-20.1884
  0
LINE
  8
0
 10
35.5877
 20
-20.1884
 11
35.8925
 21
-19.967
  0
LINE
  8
0
 10
35.8925
 20
-19.967
 11
36.2227
 21
-19.7855
  0
LINE
  8
0
 10
36.2227
 20
-19.7855
 11
36.5729
 21
-19.6468
  0
LINE
  8
0
 10
36.5729
 20
-19.6468
 11
36.9379
 21
-19.5531
  0
LINE
  8
0
 10
36.9379
 20
-19.5531
 11
37.3116
 21
-19.5059
  0
LINE
  8
0
 10
37.3116
 20
-19.5059
 11
37.6884
 21
-19.5059
  0
LINE
  8
0
 10
37.6884
 20
-19.5059
 11
38.0621
 21
-19.5531
  0
LINE
  8
0
 10
38.0621
 20
-19.5531
 11
38.427
 21
-19.6468
  0
LINE
  8
0
 10
38.427
 20
-19.6468
 11
38.7773
 21
-19.7855
  0
LINE
  8
0
 10
38.7773
 20
-19.7855
 11
39.1075
 21
-19.967
  0
LINE
  8
0
 10
39.1075
 20
-19.967
 11
39.4123
 21
-20.1884
  0
LINE
  8
0
 10
39.4123
 20
-20.1884
 11
39.6869
 21
-20.4464
  0
LINE
  8
0
 10
39.6869
 20
-20.4464
 11
39.927
 21
-20.7366
  0
LINE
  8
0
 10
39.927
 20
-20.7366
 11
40.1289
 21
-21.0547
  0
LINE
  8
0
 10
40.1289
 20
-21.0547
 11
40.2893
 21
-21.3956
  0
LINE
  8
0
 10
40.2893
 20
-21.3956
 11
40.4057
 21
-21.7539
  0
LINE
  8
0
 10
40.4057
 20
-21.7539
 11
40.4763
 21
-22.124
  0
LINE
  8
0
 10
40.4763
 20
-22.124
 11
40.5
 21
-22.5
  0
LINE
  8
0
 10
40.5
 20
-22.5
 11
40.4763
 21
-22.876
  0
LINE
  8
0
 10
40.4763
 20
-22.876
 11
40.4057
 21
-23.2461
  0
LINE
  8
0
 10
40.4057
 20
-23.2461
 11
40.2893
 21
-23.6044
  0
LINE
  8
0
 10
40.2893
 20
-23.6044
 11
40.1289
 21
-23.9453
  0
LINE
  8
0
 10
40.1289
 20
-23.9453
 11
39.927
 21
-24.2634
  0
LINE
  8
0
 10
39.927
 20
-24.2634
 11
39.6869
 21
-24.5536
  0
LINE
  8
0
 10
39.6869
 20
-24.5536
 11
39.4123
 21
-24.8115
  0
LINE
  8
0
 10
39.4123
 20
-24.8115
 11
39.1075
 21
-25.033
  0
LINE
  8
0
 10
39.1075
 20
-25.033
 11
38.7773
 21
-25.2145
  0
LINE
  8
0
 10
38.7773
 20
-25.2145
 11
38.427
 21
-25.3532
  0
LINE
  8
0
 10
38.427
 20
-25.3532
 11
38.0621
 21
-25.4469
  0
LINE
  8
0
 10
38.0621
 20
-25.4469
 11
37.6884
 21
-25.4941
  0
LINE
  8
0
 10
37.6884
 20
-25.4941
 11
37.3116
 21
-25.4941
  0
LINE
  8
0
 10
-37.6884
 20
-25.4941
 11
-38.0621
 21
-25.4469
  0
LINE
  8
0
 10
-38.0621
 20
-25.4469
 11
-38.427
 21
-25.3532
  0
LINE
  8
0
 10
-38.427
 20
-25.3532
 11
-38.7773
 21
-25.2145
  0
LINE
  8
0
 10
-38.7773
 20
-25.2145
 11
-39.1075
 21
-25.033
  0
LINE
  8
0
 10
-39.1075
 20
-25.033
 11
-39.4123
 21
-24.8115
  0
LINE
  8
0
 10
-39.4123
 20
-24.8115
 11
-39.6869
 21
-24.5536
  0
LINE
  8
0
 10
-39.6869
 20
-24.5536
 11
-39.927
 21
-24.2634
  0
LINE
  8
0
 10
-39.927
 20
-24.2634
 11
-40.1289
 21
-23.9453
  0
LINE
  8
0
 10
-40.1289
 20
-23.9453
 11
-40.2893
 21
-23.6044
  0
LINE
  8
0
 10
-40.2893
 20
-23.6044
 11
-40.4057
 21
-23.2461
  0
LINE
  8
0
 10
-40.4057
 20
-23.2461
 11
-40.4763
 21
-22.876
  0
LINE
  8
0
 10
-40.4763
 20
-22.876
 11
-40.5
 21
-22.5
  0
LINE
  8
0
 10
-40.5
 20
-22.5
 11
-40.4763
 21
-22.124
  0
LINE
  8
0
 10
-40.4763
 20
-22.124
 11
-40.4057
 21
-21.7539
  0
LINE
  8
0
 10
-40.4057
 20
-21.7539
 11
-40.2893
 21
-21.3956
  0
LINE
  8
0
 10
-40.2893
 20
-21.3956
 11
-40.1289
 21
-21.0547
  0
LINE
  8
0
 10
-40.1289
 20
-21.0547
 11
-39.927
 21
-20.7366
  0
LINE
  8
0
 10
-39.927
 20
-20.7366
 11
-39.6869
 21
-20.4464
  0
LINE
  8
0
 10
-39.6869
 20
-20.4464
 11
-39.4123
 21
-20.1884
  0
LINE
  8
0
 10
-39.4123
 20
-20.1884
 11
-39.1075
 21
-19.967
  0
LINE
  8
0
 10
-39.1075
 20
-19.967
 11
-38.7773
 21
-19.7855
  0
LINE
  8
0
 10
-38.7773
 20
-19.7855
 11
-38.427
 21
-19.6468
  0
LINE
  8
0
 10
-38.427
 20
-19.6468
 11
-38.0621
 21
-19.5531
  0
LINE
  8
0
 10
-38.0621
 20
-19.5531
 11
-37.6884
 21
-19.5059
  0
LINE
  8
0
 10
-37.6884
 20
-19.5059
 11
-37.3116
 21
-19.5059
  0
LINE
  8
0
 10
-37.3116
 20
-19.5059
 11
-36.9379
 21
-19.5531
  0
LINE
  8
0
 10
-36.9379
 20
-19.5531
 11
-36.5729
 21
-19.6468
  0
LINE
  8
0
 10
-36.5729
 20
-19.6468
 11
-36.2227
 21
-19.7855
  0
LINE
  8
0
 10
-36.2227
 20
-19.7855
 11
-35.8925
 21
-19.967
  0
LINE
  8
0
 10
-35.8925
 20
-19.967
 11
-35.5877
 21
-20.1884
  0
LINE
  8
0
 10
-35.5877
 20
-20.1884
 11
-35.3131
 21
-20.4464
  0
LINE
  8
0
 10
-35.3131
 20
-20.4464
 11
-35.0729
 21
-20.7366
  0
LINE
  8
0
 10
-35.0729
 20
-20.7366
 11
-34.8711
 21
-21.0547
  0
LINE
  8
0
 10
-34.8711
 20
-21.0547
 11
-34.7107
 21
-21.3956
  0
LINE
  8
0
 10
-34.7107
 20
-21.3956
 11
-34.5942
 21
-21.7539
  0
LINE
  8
0
 10
-34.5942
 20
-21.7539
 11
-34.5237
 21
-22.124
  0
LINE
  8
0
 10
-34.5237
 20
-22.124
 11
-34.5
 21
-22.5
  0
LINE
  8
0
 10
-34.5
 20
-22.5
 11
-34.5237
 21
-22.876
  0
LINE
  8
0
 10
-34.5237
 20
-22.876
 11
-34.5942
 21
-23.2461
  0
LINE
  8
0
 10
-34.5942
 20
-23.2461
 11
-34.7107
 21
-23.6044
  0
LINE
  8
0
 10
-34.7107
 20
-23.6044
 11
-34.8711
 21
-23.9453
  0
LINE
  8
0
 10
-34.8711
 20
-23.9453
 11
-35.0729
 21
-24.2634
  0
LINE
  8
0
 10
-35.0729
 20
-24.2634
 11
-35.3131
 21
-24.5536
  0
LINE
  8
0
 10
-35.3131
 20
-24.5536
 11
-35.5877
 21
-24.8115
  0
LINE
  8
0
 10
-35.5877
 20
-24.8115
 11
-35.8925
 21
-25.033
  0
LINE
  8
0
 10
-35.8925
 20
-25.033
 11
-36.2227
 21
-25.2145
  0
LINE
  8
0
 10
-36.2227
 20
-25.2145
 11
-36.5729
 21
-25.3532
  0
LINE
  8
0
 10
-36.5729
 20
-25.3532
 11
-36.9379
 21
-25.4469
  0
LINE
  8
0
 10
-36.9379
 20
-25.4469
 11
-37.3116
 21
-25.4941
  0
LINE
  8
0
 10
-37.3116
 20
-25.4941
 11
-37.6884
 21
-25.4941
  0
ENDSEC
  0
SECTION
  2
OBJECTS
  0
DICTIONARY
  0
ENDSEC
  0
EOF
