  0
SECTION
  2
BLOCKS
  0
ENDSEC
  0
SECTION
  2
ENTITIES
  0
LINE
  8
0
 10
107.937
 20
-111.911
 11
108.545
 21
-111.755
  0
LINE
  8
0
 10
108.545
 20
-111.755
 11
109.129
 21
-111.524
  0
LINE
  8
0
 10
109.129
 20
-111.524
 11
109.679
 21
-111.222
  0
LINE
  8
0
 10
109.679
 20
-111.222
 11
110.187
 21
-110.853
  0
LINE
  8
0
 10
110.187
 20
-110.853
 11
110.645
 21
-110.423
  0
LINE
  8
0
 10
110.645
 20
-110.423
 11
111.045
 21
-109.939
  0
LINE
  8
0
 10
111.045
 20
-109.939
 11
111.382
 21
-109.409
  0
LINE
  8
0
 10
111.382
 20
-109.409
 11
111.649
 21
-108.841
  0
LINE
  8
0
 10
111.649
 20
-108.841
 11
111.843
 21
-108.243
  0
LINE
  8
0
 10
111.843
 20
-108.243
 11
111.961
 21
-107.627
  0
LINE
  8
0
 10
111.961
 20
-107.627
 11
112
 21
-107
  0
LINE
  8
0
 10
112
 20
-107
 11
112
 21
107
  0
LINE
  8
0
 10
112
 20
107
 11
111.961
 21
107.627
  0
LINE
  8
0
 10
111.961
 20
107.627
 11
111.843
 21
108.243
  0
LINE
  8
0
 10
111.843
 20
108.243
 11
111.649
 21
108.841
  0
LINE
  8
0
 10
111.649
 20
108.841
 11
111.382
 21
109.409
  0
LINE
  8
0
 10
111.382
 20
109.409
 11
111.045
 21
109.939
  0
LINE
  8
0
 10
111.045
 20
109.939
 11
110.645
 21
110.423
  0
LINE
  8
0
 10
110.645
 20
110.423
 11
110.187
 21
110.853
  0
LINE
  8
0
 10
110.187
 20
110.853
 11
109.679
 21
111.222
  0
LINE
  8
0
 10
109.679
 20
111.222
 11
109.129
 21
111.524
  0
LINE
  8
0
 10
109.129
 20
111.524
 11
108.545
 21
111.755
  0
LINE
  8
0
 10
108.545
 20
111.755
 11
107.937
 21
111.911
  0
LINE
  8
0
 10
107.937
 20
111.911
 11
107.314
 21
111.99
  0
LINE
  8
0
 10
107.314
 20
111.99
 11
-107.314
 21
111.99
  0
LINE
  8
0
 10
-107.314
 20
111.99
 11
-107.937
 21
111.911
  0
LINE
  8
0
 10
-107.937
 20
111.911
 11
-108.545
 21
111.755
  0
LINE
  8
0
 10
-108.545
 20
111.755
 11
-109.129
 21
111.524
  0
LINE
  8
0
 10
-109.129
 20
111.524
 11
-109.679
 21
111.222
  0
LINE
  8
0
 10
-109.679
 20
111.222
 11
-110.187
 21
110.853
  0
LINE
  8
0
 10
-110.187
 20
110.853
 11
-110.645
 21
110.423
  0
LINE
  8
0
 10
-110.645
 20
110.423
 11
-111.045
 21
109.939
  0
LINE
  8
0
 10
-111.045
 20
109.939
 11
-111.382
 21
109.409
  0
LINE
  8
0
 10
-111.382
 20
109.409
 11
-111.649
 21
108.841
  0
LINE
  8
0
 10
-111.649
 20
108.841
 11
-111.843
 21
108.243
  0
LINE
  8
0
 10
-111.843
 20
108.243
 11
-111.961
 21
107.627
  0
LINE
  8
0
 10
-111.961
 20
107.627
 11
-112
 21
107
  0
LINE
  8
0
 10
-112
 20
107
 11
-112
 21
-107
  0
LINE
  8
0
 10
-112
 20
-107
 11
-111.961
 21
-107.627
  0
LINE
  8
0
 10
-111.961
 20
-107.627
 11
-111.843
 21
-108.243
  0
LINE
  8
0
 10
-111.843
 20
-108.243
 11
-111.649
 21
-108.841
  0
LINE
  8
0
 10
-111.649
 20
-108.841
 11
-111.382
 21
-109.409
  0
LINE
  8
0
 10
-111.382
 20
-109.409
 11
-111.045
 21
-109.939
  0
LINE
  8
0
 10
-111.045
 20
-109.939
 11
-110.645
 21
-110.423
  0
LINE
  8
0
 10
-110.645
 20
-110.423
 11
-110.187
 21
-110.853
  0
LINE
  8
0
 10
-110.187
 20
-110.853
 11
-109.679
 21
-111.222
  0
LINE
  8
0
 10
-109.679
 20
-111.222
 11
-109.129
 21
-111.524
  0
LINE
  8
0
 10
-109.129
 20
-111.524
 11
-108.545
 21
-111.755
  0
LINE
  8
0
 10
-108.545
 20
-111.755
 11
-107.937
 21
-111.911
  0
LINE
  8
0
 10
-107.937
 20
-111.911
 11
-107.314
 21
-111.99
  0
LINE
  8
0
 10
-107.314
 20
-111.99
 11
107.314
 21
-111.99
  0
LINE
  8
0
 10
107.314
 20
-111.99
 11
107.937
 21
-111.911
  0
LINE
  8
0
 10
104.812
 20
102.006
 11
104.438
 21
102.053
  0
LINE
  8
0
 10
104.438
 20
102.053
 11
104.073
 21
102.147
  0
LINE
  8
0
 10
104.073
 20
102.147
 11
103.723
 21
102.286
  0
LINE
  8
0
 10
103.723
 20
102.286
 11
103.393
 21
102.467
  0
LINE
  8
0
 10
103.393
 20
102.467
 11
103.088
 21
102.688
  0
LINE
  8
0
 10
103.088
 20
102.688
 11
102.813
 21
102.946
  0
LINE
  8
0
 10
102.813
 20
102.946
 11
102.573
 21
103.237
  0
LINE
  8
0
 10
102.573
 20
103.237
 11
102.371
 21
103.555
  0
LINE
  8
0
 10
102.371
 20
103.555
 11
102.211
 21
103.896
  0
LINE
  8
0
 10
102.211
 20
103.896
 11
102.094
 21
104.254
  0
LINE
  8
0
 10
102.094
 20
104.254
 11
102.024
 21
104.624
  0
LINE
  8
0
 10
102.024
 20
104.624
 11
102
 21
105
  0
LINE
  8
0
 10
102
 20
105
 11
102.024
 21
105.376
  0
LINE
  8
0
 10
102.024
 20
105.376
 11
102.094
 21
105.746
  0
LINE
  8
0
 10
102.094
 20
105.746
 11
102.211
 21
106.104
  0
LINE
  8
0
 10
102.211
 20
106.104
 11
102.371
 21
106.445
  0
LINE
  8
0
 10
102.371
 20
106.445
 11
102.573
 21
106.763
  0
LINE
  8
0
 10
102.573
 20
106.763
 11
102.813
 21
107.054
  0
LINE
  8
0
 10
102.813
 20
107.054
 11
103.088
 21
107.312
  0
LINE
  8
0
 10
103.088
 20
107.312
 11
103.393
 21
107.533
  0
LINE
  8
0
 10
103.393
 20
107.533
 11
103.723
 21
107.714
  0
LINE
  8
0
 10
103.723
 20
107.714
 11
104.073
 21
107.853
  0
LINE
  8
0
 10
104.073
 20
107.853
 11
104.438
 21
107.947
  0
LINE
  8
0
 10
104.438
 20
107.947
 11
104.812
 21
107.994
  0
LINE
  8
0
 10
104.812
 20
107.994
 11
105.188
 21
107.994
  0
LINE
  8
0
 10
105.188
 20
107.994
 11
105.562
 21
107.947
  0
LINE
  8
0
 10
105.562
 20
107.947
 11
105.927
 21
107.853
  0
LINE
  8
0
 10
105.927
 20
107.853
 11
106.277
 21
107.714
  0
LINE
  8
0
 10
106.277
 20
107.714
 11
106.607
 21
107.533
  0
LINE
  8
0
 10
106.607
 20
107.533
 11
106.912
 21
107.312
  0
LINE
  8
0
 10
106.912
 20
107.312
 11
107.187
 21
107.054
  0
LINE
  8
0
 10
107.187
 20
107.054
 11
107.427
 21
106.763
  0
LINE
  8
0
 10
107.427
 20
106.763
 11
107.629
 21
106.445
  0
LINE
  8
0
 10
107.629
 20
106.445
 11
107.789
 21
106.104
  0
LINE
  8
0
 10
107.789
 20
106.104
 11
107.906
 21
105.746
  0
LINE
  8
0
 10
107.906
 20
105.746
 11
107.976
 21
105.376
  0
LINE
  8
0
 10
107.976
 20
105.376
 11
108
 21
105
  0
LINE
  8
0
 10
108
 20
105
 11
107.976
 21
104.624
  0
LINE
  8
0
 10
107.976
 20
104.624
 11
107.906
 21
104.254
  0
LINE
  8
0
 10
107.906
 20
104.254
 11
107.789
 21
103.896
  0
LINE
  8
0
 10
107.789
 20
103.896
 11
107.629
 21
103.555
  0
LINE
  8
0
 10
107.629
 20
103.555
 11
107.427
 21
103.237
  0
LINE
  8
0
 10
107.427
 20
103.237
 11
107.187
 21
102.946
  0
LINE
  8
0
 10
107.187
 20
102.946
 11
106.912
 21
102.688
  0
LINE
  8
0
 10
106.912
 20
102.688
 11
106.607
 21
102.467
  0
LINE
  8
0
 10
106.607
 20
102.467
 11
106.277
 21
102.286
  0
LINE
  8
0
 10
106.277
 20
102.286
 11
105.927
 21
102.147
  0
LINE
  8
0
 10
105.927
 20
102.147
 11
105.562
 21
102.053
  0
LINE
  8
0
 10
105.562
 20
102.053
 11
105.188
 21
102.006
  0
LINE
  8
0
 10
105.188
 20
102.006
 11
104.812
 21
102.006
  0
LINE
  8
0
 10
-105.188
 20
102.006
 11
-105.562
 21
102.053
  0
LINE
  8
0
 10
-105.562
 20
102.053
 11
-105.927
 21
102.147
  0
LINE
  8
0
 10
-105.927
 20
102.147
 11
-106.277
 21
102.286
  0
LINE
  8
0
 10
-106.277
 20
102.286
 11
-106.607
 21
102.467
  0
LINE
  8
0
 10
-106.607
 20
102.467
 11
-106.912
 21
102.688
  0
LINE
  8
0
 10
-106.912
 20
102.688
 11
-107.187
 21
102.946
  0
LINE
  8
0
 10
-107.187
 20
102.946
 11
-107.427
 21
103.237
  0
LINE
  8
0
 10
-107.427
 20
103.237
 11
-107.629
 21
103.555
  0
LINE
  8
0
 10
-107.629
 20
103.555
 11
-107.789
 21
103.896
  0
LINE
  8
0
 10
-107.789
 20
103.896
 11
-107.906
 21
104.254
  0
LINE
  8
0
 10
-107.906
 20
104.254
 11
-107.976
 21
104.624
  0
LINE
  8
0
 10
-107.976
 20
104.624
 11
-108
 21
105
  0
LINE
  8
0
 10
-108
 20
105
 11
-107.976
 21
105.376
  0
LINE
  8
0
 10
-107.976
 20
105.376
 11
-107.906
 21
105.746
  0
LINE
  8
0
 10
-107.906
 20
105.746
 11
-107.789
 21
106.104
  0
LINE
  8
0
 10
-107.789
 20
106.104
 11
-107.629
 21
106.445
  0
LINE
  8
0
 10
-107.629
 20
106.445
 11
-107.427
 21
106.763
  0
LINE
  8
0
 10
-107.427
 20
106.763
 11
-107.187
 21
107.054
  0
LINE
  8
0
 10
-107.187
 20
107.054
 11
-106.912
 21
107.312
  0
LINE
  8
0
 10
-106.912
 20
107.312
 11
-106.607
 21
107.533
  0
LINE
  8
0
 10
-106.607
 20
107.533
 11
-106.277
 21
107.714
  0
LINE
  8
0
 10
-106.277
 20
107.714
 11
-105.927
 21
107.853
  0
LINE
  8
0
 10
-105.927
 20
107.853
 11
-105.562
 21
107.947
  0
LINE
  8
0
 10
-105.562
 20
107.947
 11
-105.188
 21
107.994
  0
LINE
  8
0
 10
-105.188
 20
107.994
 11
-104.812
 21
107.994
  0
LINE
  8
0
 10
-104.812
 20
107.994
 11
-104.438
 21
107.947
  0
LINE
  8
0
 10
-104.438
 20
107.947
 11
-104.073
 21
107.853
  0
LINE
  8
0
 10
-104.073
 20
107.853
 11
-103.723
 21
107.714
  0
LINE
  8
0
 10
-103.723
 20
107.714
 11
-103.393
 21
107.533
  0
LINE
  8
0
 10
-103.393
 20
107.533
 11
-103.088
 21
107.312
  0
LINE
  8
0
 10
-103.088
 20
107.312
 11
-102.813
 21
107.054
  0
LINE
  8
0
 10
-102.813
 20
107.054
 11
-102.573
 21
106.763
  0
LINE
  8
0
 10
-102.573
 20
106.763
 11
-102.371
 21
106.445
  0
LINE
  8
0
 10
-102.371
 20
106.445
 11
-102.211
 21
106.104
  0
LINE
  8
0
 10
-102.211
 20
106.104
 11
-102.094
 21
105.746
  0
LINE
  8
0
 10
-102.094
 20
105.746
 11
-102.024
 21
105.376
  0
LINE
  8
0
 10
-102.024
 20
105.376
 11
-102
 21
105
  0
LINE
  8
0
 10
-102
 20
105
 11
-102.024
 21
104.624
  0
LINE
  8
0
 10
-102.024
 20
104.624
 11
-102.094
 21
104.254
  0
LINE
  8
0
 10
-102.094
 20
104.254
 11
-102.211
 21
103.896
  0
LINE
  8
0
 10
-102.211
 20
103.896
 11
-102.371
 21
103.555
  0
LINE
  8
0
 10
-102.371
 20
103.555
 11
-102.573
 21
103.237
  0
LINE
  8
0
 10
-102.573
 20
103.237
 11
-102.813
 21
102.946
  0
LINE
  8
0
 10
-102.813
 20
102.946
 11
-103.088
 21
102.688
  0
LINE
  8
0
 10
-103.088
 20
102.688
 11
-103.393
 21
102.467
  0
LINE
  8
0
 10
-103.393
 20
102.467
 11
-103.723
 21
102.286
  0
LINE
  8
0
 10
-103.723
 20
102.286
 11
-104.073
 21
102.147
  0
LINE
  8
0
 10
-104.073
 20
102.147
 11
-104.438
 21
102.053
  0
LINE
  8
0
 10
-104.438
 20
102.053
 11
-104.812
 21
102.006
  0
LINE
  8
0
 10
-104.812
 20
102.006
 11
-105.188
 21
102.006
  0
LINE
  8
0
 10
104.812
 20
-107.994
 11
104.438
 21
-107.947
  0
LINE
  8
0
 10
104.438
 20
-107.947
 11
104.073
 21
-107.853
  0
LINE
  8
0
 10
104.073
 20
-107.853
 11
103.723
 21
-107.714
  0
LINE
  8
0
 10
103.723
 20
-107.714
 11
103.393
 21
-107.533
  0
LINE
  8
0
 10
103.393
 20
-107.533
 11
103.088
 21
-107.312
  0
LINE
  8
0
 10
103.088
 20
-107.312
 11
102.813
 21
-107.054
  0
LINE
  8
0
 10
102.813
 20
-107.054
 11
102.573
 21
-106.763
  0
LINE
  8
0
 10
102.573
 20
-106.763
 11
102.371
 21
-106.445
  0
LINE
  8
0
 10
102.371
 20
-106.445
 11
102.211
 21
-106.104
  0
LINE
  8
0
 10
102.211
 20
-106.104
 11
102.094
 21
-105.746
  0
LINE
  8
0
 10
102.094
 20
-105.746
 11
102.024
 21
-105.376
  0
LINE
  8
0
 10
102.024
 20
-105.376
 11
102
 21
-105
  0
LINE
  8
0
 10
102
 20
-105
 11
102.024
 21
-104.624
  0
LINE
  8
0
 10
102.024
 20
-104.624
 11
102.094
 21
-104.254
  0
LINE
  8
0
 10
102.094
 20
-104.254
 11
102.211
 21
-103.896
  0
LINE
  8
0
 10
102.211
 20
-103.896
 11
102.371
 21
-103.555
  0
LINE
  8
0
 10
102.371
 20
-103.555
 11
102.573
 21
-103.237
  0
LINE
  8
0
 10
102.573
 20
-103.237
 11
102.813
 21
-102.946
  0
LINE
  8
0
 10
102.813
 20
-102.946
 11
103.088
 21
-102.688
  0
LINE
  8
0
 10
103.088
 20
-102.688
 11
103.393
 21
-102.467
  0
LINE
  8
0
 10
103.393
 20
-102.467
 11
103.723
 21
-102.286
  0
LINE
  8
0
 10
103.723
 20
-102.286
 11
104.073
 21
-102.147
  0
LINE
  8
0
 10
104.073
 20
-102.147
 11
104.438
 21
-102.053
  0
LINE
  8
0
 10
104.438
 20
-102.053
 11
104.812
 21
-102.006
  0
LINE
  8
0
 10
104.812
 20
-102.006
 11
105.188
 21
-102.006
  0
LINE
  8
0
 10
105.188
 20
-102.006
 11
105.562
 21
-102.053
  0
LINE
  8
0
 10
105.562
 20
-102.053
 11
105.927
 21
-102.147
  0
LINE
  8
0
 10
105.927
 20
-102.147
 11
106.277
 21
-102.286
  0
LINE
  8
0
 10
106.277
 20
-102.286
 11
106.607
 21
-102.467
  0
LINE
  8
0
 10
106.607
 20
-102.467
 11
106.912
 21
-102.688
  0
LINE
  8
0
 10
106.912
 20
-102.688
 11
107.187
 21
-102.946
  0
LINE
  8
0
 10
107.187
 20
-102.946
 11
107.427
 21
-103.237
  0
LINE
  8
0
 10
107.427
 20
-103.237
 11
107.629
 21
-103.555
  0
LINE
  8
0
 10
107.629
 20
-103.555
 11
107.789
 21
-103.896
  0
LINE
  8
0
 10
107.789
 20
-103.896
 11
107.906
 21
-104.254
  0
LINE
  8
0
 10
107.906
 20
-104.254
 11
107.976
 21
-104.624
  0
LINE
  8
0
 10
107.976
 20
-104.624
 11
108
 21
-105
  0
LINE
  8
0
 10
108
 20
-105
 11
107.976
 21
-105.376
  0
LINE
  8
0
 10
107.976
 20
-105.376
 11
107.906
 21
-105.746
  0
LINE
  8
0
 10
107.906
 20
-105.746
 11
107.789
 21
-106.104
  0
LINE
  8
0
 10
107.789
 20
-106.104
 11
107.629
 21
-106.445
  0
LINE
  8
0
 10
107.629
 20
-106.445
 11
107.427
 21
-106.763
  0
LINE
  8
0
 10
107.427
 20
-106.763
 11
107.187
 21
-107.054
  0
LINE
  8
0
 10
107.187
 20
-107.054
 11
106.912
 21
-107.312
  0
LINE
  8
0
 10
106.912
 20
-107.312
 11
106.607
 21
-107.533
  0
LINE
  8
0
 10
106.607
 20
-107.533
 11
106.277
 21
-107.714
  0
LINE
  8
0
 10
106.277
 20
-107.714
 11
105.927
 21
-107.853
  0
LINE
  8
0
 10
105.927
 20
-107.853
 11
105.562
 21
-107.947
  0
LINE
  8
0
 10
105.562
 20
-107.947
 11
105.188
 21
-107.994
  0
LINE
  8
0
 10
105.188
 20
-107.994
 11
104.812
 21
-107.994
  0
LINE
  8
0
 10
-105.188
 20
-107.994
 11
-105.562
 21
-107.947
  0
LINE
  8
0
 10
-105.562
 20
-107.947
 11
-105.927
 21
-107.853
  0
LINE
  8
0
 10
-105.927
 20
-107.853
 11
-106.277
 21
-107.714
  0
LINE
  8
0
 10
-106.277
 20
-107.714
 11
-106.607
 21
-107.533
  0
LINE
  8
0
 10
-106.607
 20
-107.533
 11
-106.912
 21
-107.312
  0
LINE
  8
0
 10
-106.912
 20
-107.312
 11
-107.187
 21
-107.054
  0
LINE
  8
0
 10
-107.187
 20
-107.054
 11
-107.427
 21
-106.763
  0
LINE
  8
0
 10
-107.427
 20
-106.763
 11
-107.629
 21
-106.445
  0
LINE
  8
0
 10
-107.629
 20
-106.445
 11
-107.789
 21
-106.104
  0
LINE
  8
0
 10
-107.789
 20
-106.104
 11
-107.906
 21
-105.746
  0
LINE
  8
0
 10
-107.906
 20
-105.746
 11
-107.976
 21
-105.376
  0
LINE
  8
0
 10
-107.976
 20
-105.376
 11
-108
 21
-105
  0
LINE
  8
0
 10
-108
 20
-105
 11
-107.976
 21
-104.624
  0
LINE
  8
0
 10
-107.976
 20
-104.624
 11
-107.906
 21
-104.254
  0
LINE
  8
0
 10
-107.906
 20
-104.254
 11
-107.789
 21
-103.896
  0
LINE
  8
0
 10
-107.789
 20
-103.896
 11
-107.629
 21
-103.555
  0
LINE
  8
0
 10
-107.629
 20
-103.555
 11
-107.427
 21
-103.237
  0
LINE
  8
0
 10
-107.427
 20
-103.237
 11
-107.187
 21
-102.946
  0
LINE
  8
0
 10
-107.187
 20
-102.946
 11
-106.912
 21
-102.688
  0
LINE
  8
0
 10
-106.912
 20
-102.688
 11
-106.607
 21
-102.467
  0
LINE
  8
0
 10
-106.607
 20
-102.467
 11
-106.277
 21
-102.286
  0
LINE
  8
0
 10
-106.277
 20
-102.286
 11
-105.927
 21
-102.147
  0
LINE
  8
0
 10
-105.927
 20
-102.147
 11
-105.562
 21
-102.053
  0
LINE
  8
0
 10
-105.562
 20
-102.053
 11
-105.188
 21
-102.006
  0
LINE
  8
0
 10
-105.188
 20
-102.006
 11
-104.812
 21
-102.006
  0
LINE
  8
0
 10
-104.812
 20
-102.006
 11
-104.438
 21
-102.053
  0
LINE
  8
0
 10
-104.438
 20
-102.053
 11
-104.073
 21
-102.147
  0
LINE
  8
0
 10
-104.073
 20
-102.147
 11
-103.723
 21
-102.286
  0
LINE
  8
0
 10
-103.723
 20
-102.286
 11
-103.393
 21
-102.467
  0
LINE
  8
0
 10
-103.393
 20
-102.467
 11
-103.088
 21
-102.688
  0
LINE
  8
0
 10
-103.088
 20
-102.688
 11
-102.813
 21
-102.946
  0
LINE
  8
0
 10
-102.813
 20
-102.946
 11
-102.573
 21
-103.237
  0
LINE
  8
0
 10
-102.573
 20
-103.237
 11
-102.371
 21
-103.555
  0
LINE
  8
0
 10
-102.371
 20
-103.555
 11
-102.211
 21
-103.896
  0
LINE
  8
0
 10
-102.211
 20
-103.896
 11
-102.094
 21
-104.254
  0
LINE
  8
0
 10
-102.094
 20
-104.254
 11
-102.024
 21
-104.624
  0
LINE
  8
0
 10
-102.024
 20
-104.624
 11
-102
 21
-105
  0
LINE
  8
0
 10
-102
 20
-105
 11
-102.024
 21
-105.376
  0
LINE
  8
0
 10
-102.024
 20
-105.376
 11
-102.094
 21
-105.746
  0
LINE
  8
0
 10
-102.094
 20
-105.746
 11
-102.211
 21
-106.104
  0
LINE
  8
0
 10
-102.211
 20
-106.104
 11
-102.371
 21
-106.445
  0
LINE
  8
0
 10
-102.371
 20
-106.445
 11
-102.573
 21
-106.763
  0
LINE
  8
0
 10
-102.573
 20
-106.763
 11
-102.813
 21
-107.054
  0
LINE
  8
0
 10
-102.813
 20
-107.054
 11
-103.088
 21
-107.312
  0
LINE
  8
0
 10
-103.088
 20
-107.312
 11
-103.393
 21
-107.533
  0
LINE
  8
0
 10
-103.393
 20
-107.533
 11
-103.723
 21
-107.714
  0
LINE
  8
0
 10
-103.723
 20
-107.714
 11
-104.073
 21
-107.853
  0
LINE
  8
0
 10
-104.073
 20
-107.853
 11
-104.438
 21
-107.947
  0
LINE
  8
0
 10
-104.438
 20
-107.947
 11
-104.812
 21
-107.994
  0
LINE
  8
0
 10
-104.812
 20
-107.994
 11
-105.188
 21
-107.994
  0
ENDSEC
  0
SECTION
  2
OBJECTS
  0
DICTIONARY
  0
ENDSEC
  0
EOF
