  0
SECTION
  2
BLOCKS
  0
ENDSEC
  0
SECTION
  2
ENTITIES
  0
LINE
  8
0
 10
85.4369
 20
-36.9114
 11
86.0451
 21
-36.7553
  0
LINE
  8
0
 10
86.0451
 20
-36.7553
 11
86.6289
 21
-36.5241
  0
LINE
  8
0
 10
86.6289
 20
-36.5241
 11
87.1791
 21
-36.2216
  0
LINE
  8
0
 10
87.1791
 20
-36.2216
 11
87.6871
 21
-35.8526
  0
LINE
  8
0
 10
87.6871
 20
-35.8526
 11
88.1448
 21
-35.4227
  0
LINE
  8
0
 10
88.1448
 20
-35.4227
 11
88.5451
 21
-34.9389
  0
LINE
  8
0
 10
88.5451
 20
-34.9389
 11
88.8815
 21
-34.4088
  0
LINE
  8
0
 10
88.8815
 20
-34.4088
 11
89.1489
 21
-33.8406
  0
LINE
  8
0
 10
89.1489
 20
-33.8406
 11
89.3429
 21
-33.2434
  0
LINE
  8
0
 10
89.3429
 20
-33.2434
 11
89.4606
 21
-32.6267
  0
LINE
  8
0
 10
89.4606
 20
-32.6267
 11
89.5
 21
-32
  0
LINE
  8
0
 10
89.5
 20
-32
 11
89.5
 21
32
  0
LINE
  8
0
 10
89.5
 20
32
 11
89.4606
 21
32.6267
  0
LINE
  8
0
 10
89.4606
 20
32.6267
 11
89.3429
 21
33.2434
  0
LINE
  8
0
 10
89.3429
 20
33.2434
 11
89.1489
 21
33.8406
  0
LINE
  8
0
 10
89.1489
 20
33.8406
 11
88.8815
 21
34.4088
  0
LINE
  8
0
 10
88.8815
 20
34.4088
 11
88.5451
 21
34.9389
  0
LINE
  8
0
 10
88.5451
 20
34.9389
 11
88.1448
 21
35.4227
  0
LINE
  8
0
 10
88.1448
 20
35.4227
 11
87.6871
 21
35.8526
  0
LINE
  8
0
 10
87.6871
 20
35.8526
 11
87.1791
 21
36.2216
  0
LINE
  8
0
 10
87.1791
 20
36.2216
 11
86.6289
 21
36.5241
  0
LINE
  8
0
 10
86.6289
 20
36.5241
 11
86.0451
 21
36.7553
  0
LINE
  8
0
 10
86.0451
 20
36.7553
 11
85.4369
 21
36.9114
  0
LINE
  8
0
 10
85.4369
 20
36.9114
 11
84.8139
 21
36.9901
  0
LINE
  8
0
 10
84.8139
 20
36.9901
 11
-84.8139
 21
36.9901
  0
LINE
  8
0
 10
-84.8139
 20
36.9901
 11
-85.4369
 21
36.9114
  0
LINE
  8
0
 10
-85.4369
 20
36.9114
 11
-86.0451
 21
36.7553
  0
LINE
  8
0
 10
-86.0451
 20
36.7553
 11
-86.6289
 21
36.5241
  0
LINE
  8
0
 10
-86.6289
 20
36.5241
 11
-87.1791
 21
36.2216
  0
LINE
  8
0
 10
-87.1791
 20
36.2216
 11
-87.6871
 21
35.8526
  0
LINE
  8
0
 10
-87.6871
 20
35.8526
 11
-88.1448
 21
35.4227
  0
LINE
  8
0
 10
-88.1448
 20
35.4227
 11
-88.5451
 21
34.9389
  0
LINE
  8
0
 10
-88.5451
 20
34.9389
 11
-88.8815
 21
34.4088
  0
LINE
  8
0
 10
-88.8815
 20
34.4088
 11
-89.1489
 21
33.8406
  0
LINE
  8
0
 10
-89.1489
 20
33.8406
 11
-89.3429
 21
33.2434
  0
LINE
  8
0
 10
-89.3429
 20
33.2434
 11
-89.4606
 21
32.6267
  0
LINE
  8
0
 10
-89.4606
 20
32.6267
 11
-89.5
 21
32
  0
LINE
  8
0
 10
-89.5
 20
32
 11
-89.5
 21
-32
  0
LINE
  8
0
 10
-89.5
 20
-32
 11
-89.4606
 21
-32.6267
  0
LINE
  8
0
 10
-89.4606
 20
-32.6267
 11
-89.3429
 21
-33.2434
  0
LINE
  8
0
 10
-89.3429
 20
-33.2434
 11
-89.1489
 21
-33.8406
  0
LINE
  8
0
 10
-89.1489
 20
-33.8406
 11
-88.8815
 21
-34.4088
  0
LINE
  8
0
 10
-88.8815
 20
-34.4088
 11
-88.5451
 21
-34.9389
  0
LINE
  8
0
 10
-88.5451
 20
-34.9389
 11
-88.1448
 21
-35.4227
  0
LINE
  8
0
 10
-88.1448
 20
-35.4227
 11
-87.6871
 21
-35.8526
  0
LINE
  8
0
 10
-87.6871
 20
-35.8526
 11
-87.1791
 21
-36.2216
  0
LINE
  8
0
 10
-87.1791
 20
-36.2216
 11
-86.6289
 21
-36.5241
  0
LINE
  8
0
 10
-86.6289
 20
-36.5241
 11
-86.0451
 21
-36.7553
  0
LINE
  8
0
 10
-86.0451
 20
-36.7553
 11
-85.4369
 21
-36.9114
  0
LINE
  8
0
 10
-85.4369
 20
-36.9114
 11
-84.8139
 21
-36.9901
  0
LINE
  8
0
 10
-84.8139
 20
-36.9901
 11
84.8139
 21
-36.9901
  0
LINE
  8
0
 10
84.8139
 20
-36.9901
 11
85.4369
 21
-36.9114
  0
LINE
  8
0
 10
-82.6884
 20
27.0059
 11
-83.0621
 21
27.0531
  0
LINE
  8
0
 10
-83.0621
 20
27.0531
 11
-83.427
 21
27.1468
  0
LINE
  8
0
 10
-83.427
 20
27.1468
 11
-83.7773
 21
27.2855
  0
LINE
  8
0
 10
-83.7773
 20
27.2855
 11
-84.1075
 21
27.467
  0
LINE
  8
0
 10
-84.1075
 20
27.467
 11
-84.4123
 21
27.6884
  0
LINE
  8
0
 10
-84.4123
 20
27.6884
 11
-84.6869
 21
27.9464
  0
LINE
  8
0
 10
-84.6869
 20
27.9464
 11
-84.927
 21
28.2366
  0
LINE
  8
0
 10
-84.927
 20
28.2366
 11
-85.1289
 21
28.5547
  0
LINE
  8
0
 10
-85.1289
 20
28.5547
 11
-85.2893
 21
28.8956
  0
LINE
  8
0
 10
-85.2893
 20
28.8956
 11
-85.4057
 21
29.2539
  0
LINE
  8
0
 10
-85.4057
 20
29.2539
 11
-85.4763
 21
29.624
  0
LINE
  8
0
 10
-85.4763
 20
29.624
 11
-85.5
 21
30
  0
LINE
  8
0
 10
-85.5
 20
30
 11
-85.4763
 21
30.376
  0
LINE
  8
0
 10
-85.4763
 20
30.376
 11
-85.4057
 21
30.7461
  0
LINE
  8
0
 10
-85.4057
 20
30.7461
 11
-85.2893
 21
31.1044
  0
LINE
  8
0
 10
-85.2893
 20
31.1044
 11
-85.1289
 21
31.4453
  0
LINE
  8
0
 10
-85.1289
 20
31.4453
 11
-84.927
 21
31.7634
  0
LINE
  8
0
 10
-84.927
 20
31.7634
 11
-84.6869
 21
32.0536
  0
LINE
  8
0
 10
-84.6869
 20
32.0536
 11
-84.4123
 21
32.3115
  0
LINE
  8
0
 10
-84.4123
 20
32.3115
 11
-84.1075
 21
32.533
  0
LINE
  8
0
 10
-84.1075
 20
32.533
 11
-83.7773
 21
32.7145
  0
LINE
  8
0
 10
-83.7773
 20
32.7145
 11
-83.427
 21
32.8532
  0
LINE
  8
0
 10
-83.427
 20
32.8532
 11
-83.0621
 21
32.9469
  0
LINE
  8
0
 10
-83.0621
 20
32.9469
 11
-82.6884
 21
32.9941
  0
LINE
  8
0
 10
-82.6884
 20
32.9941
 11
-82.3116
 21
32.9941
  0
LINE
  8
0
 10
-82.3116
 20
32.9941
 11
-81.9379
 21
32.9469
  0
LINE
  8
0
 10
-81.9379
 20
32.9469
 11
-81.573
 21
32.8532
  0
LINE
  8
0
 10
-81.573
 20
32.8532
 11
-81.2227
 21
32.7145
  0
LINE
  8
0
 10
-81.2227
 20
32.7145
 11
-80.8925
 21
32.533
  0
LINE
  8
0
 10
-80.8925
 20
32.533
 11
-80.5877
 21
32.3115
  0
LINE
  8
0
 10
-80.5877
 20
32.3115
 11
-80.3131
 21
32.0536
  0
LINE
  8
0
 10
-80.3131
 20
32.0536
 11
-80.073
 21
31.7634
  0
LINE
  8
0
 10
-80.073
 20
31.7634
 11
-79.8711
 21
31.4453
  0
LINE
  8
0
 10
-79.8711
 20
31.4453
 11
-79.7107
 21
31.1044
  0
LINE
  8
0
 10
-79.7107
 20
31.1044
 11
-79.5943
 21
30.7461
  0
LINE
  8
0
 10
-79.5943
 20
30.7461
 11
-79.5237
 21
30.376
  0
LINE
  8
0
 10
-79.5237
 20
30.376
 11
-79.5
 21
30
  0
LINE
  8
0
 10
-79.5
 20
30
 11
-79.5237
 21
29.624
  0
LINE
  8
0
 10
-79.5237
 20
29.624
 11
-79.5943
 21
29.2539
  0
LINE
  8
0
 10
-79.5943
 20
29.2539
 11
-79.7107
 21
28.8956
  0
LINE
  8
0
 10
-79.7107
 20
28.8956
 11
-79.8711
 21
28.5547
  0
LINE
  8
0
 10
-79.8711
 20
28.5547
 11
-80.073
 21
28.2366
  0
LINE
  8
0
 10
-80.073
 20
28.2366
 11
-80.3131
 21
27.9464
  0
LINE
  8
0
 10
-80.3131
 20
27.9464
 11
-80.5877
 21
27.6884
  0
LINE
  8
0
 10
-80.5877
 20
27.6884
 11
-80.8925
 21
27.467
  0
LINE
  8
0
 10
-80.8925
 20
27.467
 11
-81.2227
 21
27.2855
  0
LINE
  8
0
 10
-81.2227
 20
27.2855
 11
-81.573
 21
27.1468
  0
LINE
  8
0
 10
-81.573
 20
27.1468
 11
-81.9379
 21
27.0531
  0
LINE
  8
0
 10
-81.9379
 20
27.0531
 11
-82.3116
 21
27.0059
  0
LINE
  8
0
 10
-82.3116
 20
27.0059
 11
-82.6884
 21
27.0059
  0
LINE
  8
0
 10
82.3116
 20
27.0059
 11
81.9379
 21
27.0531
  0
LINE
  8
0
 10
81.9379
 20
27.0531
 11
81.573
 21
27.1468
  0
LINE
  8
0
 10
81.573
 20
27.1468
 11
81.2227
 21
27.2855
  0
LINE
  8
0
 10
81.2227
 20
27.2855
 11
80.8925
 21
27.467
  0
LINE
  8
0
 10
80.8925
 20
27.467
 11
80.5877
 21
27.6884
  0
LINE
  8
0
 10
80.5877
 20
27.6884
 11
80.3131
 21
27.9464
  0
LINE
  8
0
 10
80.3131
 20
27.9464
 11
80.073
 21
28.2366
  0
LINE
  8
0
 10
80.073
 20
28.2366
 11
79.8711
 21
28.5547
  0
LINE
  8
0
 10
79.8711
 20
28.5547
 11
79.7107
 21
28.8956
  0
LINE
  8
0
 10
79.7107
 20
28.8956
 11
79.5943
 21
29.2539
  0
LINE
  8
0
 10
79.5943
 20
29.2539
 11
79.5237
 21
29.624
  0
LINE
  8
0
 10
79.5237
 20
29.624
 11
79.5
 21
30
  0
LINE
  8
0
 10
79.5
 20
30
 11
79.5237
 21
30.376
  0
LINE
  8
0
 10
79.5237
 20
30.376
 11
79.5943
 21
30.7461
  0
LINE
  8
0
 10
79.5943
 20
30.7461
 11
79.7107
 21
31.1044
  0
LINE
  8
0
 10
79.7107
 20
31.1044
 11
79.8711
 21
31.4453
  0
LINE
  8
0
 10
79.8711
 20
31.4453
 11
80.073
 21
31.7634
  0
LINE
  8
0
 10
80.073
 20
31.7634
 11
80.3131
 21
32.0536
  0
LINE
  8
0
 10
80.3131
 20
32.0536
 11
80.5877
 21
32.3115
  0
LINE
  8
0
 10
80.5877
 20
32.3115
 11
80.8925
 21
32.533
  0
LINE
  8
0
 10
80.8925
 20
32.533
 11
81.2227
 21
32.7145
  0
LINE
  8
0
 10
81.2227
 20
32.7145
 11
81.573
 21
32.8532
  0
LINE
  8
0
 10
81.573
 20
32.8532
 11
81.9379
 21
32.9469
  0
LINE
  8
0
 10
81.9379
 20
32.9469
 11
82.3116
 21
32.9941
  0
LINE
  8
0
 10
82.3116
 20
32.9941
 11
82.6884
 21
32.9941
  0
LINE
  8
0
 10
82.6884
 20
32.9941
 11
83.0621
 21
32.9469
  0
LINE
  8
0
 10
83.0621
 20
32.9469
 11
83.427
 21
32.8532
  0
LINE
  8
0
 10
83.427
 20
32.8532
 11
83.7773
 21
32.7145
  0
LINE
  8
0
 10
83.7773
 20
32.7145
 11
84.1075
 21
32.533
  0
LINE
  8
0
 10
84.1075
 20
32.533
 11
84.4123
 21
32.3115
  0
LINE
  8
0
 10
84.4123
 20
32.3115
 11
84.6869
 21
32.0536
  0
LINE
  8
0
 10
84.6869
 20
32.0536
 11
84.927
 21
31.7634
  0
LINE
  8
0
 10
84.927
 20
31.7634
 11
85.1289
 21
31.4453
  0
LINE
  8
0
 10
85.1289
 20
31.4453
 11
85.2893
 21
31.1044
  0
LINE
  8
0
 10
85.2893
 20
31.1044
 11
85.4057
 21
30.7461
  0
LINE
  8
0
 10
85.4057
 20
30.7461
 11
85.4763
 21
30.376
  0
LINE
  8
0
 10
85.4763
 20
30.376
 11
85.5
 21
30
  0
LINE
  8
0
 10
85.5
 20
30
 11
85.4763
 21
29.624
  0
LINE
  8
0
 10
85.4763
 20
29.624
 11
85.4057
 21
29.2539
  0
LINE
  8
0
 10
85.4057
 20
29.2539
 11
85.2893
 21
28.8956
  0
LINE
  8
0
 10
85.2893
 20
28.8956
 11
85.1289
 21
28.5547
  0
LINE
  8
0
 10
85.1289
 20
28.5547
 11
84.927
 21
28.2366
  0
LINE
  8
0
 10
84.927
 20
28.2366
 11
84.6869
 21
27.9464
  0
LINE
  8
0
 10
84.6869
 20
27.9464
 11
84.4123
 21
27.6884
  0
LINE
  8
0
 10
84.4123
 20
27.6884
 11
84.1075
 21
27.467
  0
LINE
  8
0
 10
84.1075
 20
27.467
 11
83.7773
 21
27.2855
  0
LINE
  8
0
 10
83.7773
 20
27.2855
 11
83.427
 21
27.1468
  0
LINE
  8
0
 10
83.427
 20
27.1468
 11
83.0621
 21
27.0531
  0
LINE
  8
0
 10
83.0621
 20
27.0531
 11
82.6884
 21
27.0059
  0
LINE
  8
0
 10
82.6884
 20
27.0059
 11
82.3116
 21
27.0059
  0
LINE
  8
0
 10
-82.6884
 20
-32.9941
 11
-83.0621
 21
-32.9469
  0
LINE
  8
0
 10
-83.0621
 20
-32.9469
 11
-83.427
 21
-32.8532
  0
LINE
  8
0
 10
-83.427
 20
-32.8532
 11
-83.7773
 21
-32.7145
  0
LINE
  8
0
 10
-83.7773
 20
-32.7145
 11
-84.1075
 21
-32.533
  0
LINE
  8
0
 10
-84.1075
 20
-32.533
 11
-84.4123
 21
-32.3115
  0
LINE
  8
0
 10
-84.4123
 20
-32.3115
 11
-84.6869
 21
-32.0536
  0
LINE
  8
0
 10
-84.6869
 20
-32.0536
 11
-84.927
 21
-31.7634
  0
LINE
  8
0
 10
-84.927
 20
-31.7634
 11
-85.1289
 21
-31.4453
  0
LINE
  8
0
 10
-85.1289
 20
-31.4453
 11
-85.2893
 21
-31.1044
  0
LINE
  8
0
 10
-85.2893
 20
-31.1044
 11
-85.4057
 21
-30.7461
  0
LINE
  8
0
 10
-85.4057
 20
-30.7461
 11
-85.4763
 21
-30.376
  0
LINE
  8
0
 10
-85.4763
 20
-30.376
 11
-85.5
 21
-30
  0
LINE
  8
0
 10
-85.5
 20
-30
 11
-85.4763
 21
-29.624
  0
LINE
  8
0
 10
-85.4763
 20
-29.624
 11
-85.4057
 21
-29.2539
  0
LINE
  8
0
 10
-85.4057
 20
-29.2539
 11
-85.2893
 21
-28.8956
  0
LINE
  8
0
 10
-85.2893
 20
-28.8956
 11
-85.1289
 21
-28.5547
  0
LINE
  8
0
 10
-85.1289
 20
-28.5547
 11
-84.927
 21
-28.2366
  0
LINE
  8
0
 10
-84.927
 20
-28.2366
 11
-84.6869
 21
-27.9464
  0
LINE
  8
0
 10
-84.6869
 20
-27.9464
 11
-84.4123
 21
-27.6884
  0
LINE
  8
0
 10
-84.4123
 20
-27.6884
 11
-84.1075
 21
-27.467
  0
LINE
  8
0
 10
-84.1075
 20
-27.467
 11
-83.7773
 21
-27.2855
  0
LINE
  8
0
 10
-83.7773
 20
-27.2855
 11
-83.427
 21
-27.1468
  0
LINE
  8
0
 10
-83.427
 20
-27.1468
 11
-83.0621
 21
-27.0531
  0
LINE
  8
0
 10
-83.0621
 20
-27.0531
 11
-82.6884
 21
-27.0059
  0
LINE
  8
0
 10
-82.6884
 20
-27.0059
 11
-82.3116
 21
-27.0059
  0
LINE
  8
0
 10
-82.3116
 20
-27.0059
 11
-81.9379
 21
-27.0531
  0
LINE
  8
0
 10
-81.9379
 20
-27.0531
 11
-81.573
 21
-27.1468
  0
LINE
  8
0
 10
-81.573
 20
-27.1468
 11
-81.2227
 21
-27.2855
  0
LINE
  8
0
 10
-81.2227
 20
-27.2855
 11
-80.8925
 21
-27.467
  0
LINE
  8
0
 10
-80.8925
 20
-27.467
 11
-80.5877
 21
-27.6884
  0
LINE
  8
0
 10
-80.5877
 20
-27.6884
 11
-80.3131
 21
-27.9464
  0
LINE
  8
0
 10
-80.3131
 20
-27.9464
 11
-80.073
 21
-28.2366
  0
LINE
  8
0
 10
-80.073
 20
-28.2366
 11
-79.8711
 21
-28.5547
  0
LINE
  8
0
 10
-79.8711
 20
-28.5547
 11
-79.7107
 21
-28.8956
  0
LINE
  8
0
 10
-79.7107
 20
-28.8956
 11
-79.5943
 21
-29.2539
  0
LINE
  8
0
 10
-79.5943
 20
-29.2539
 11
-79.5237
 21
-29.624
  0
LINE
  8
0
 10
-79.5237
 20
-29.624
 11
-79.5
 21
-30
  0
LINE
  8
0
 10
-79.5
 20
-30
 11
-79.5237
 21
-30.376
  0
LINE
  8
0
 10
-79.5237
 20
-30.376
 11
-79.5943
 21
-30.7461
  0
LINE
  8
0
 10
-79.5943
 20
-30.7461
 11
-79.7107
 21
-31.1044
  0
LINE
  8
0
 10
-79.7107
 20
-31.1044
 11
-79.8711
 21
-31.4453
  0
LINE
  8
0
 10
-79.8711
 20
-31.4453
 11
-80.073
 21
-31.7634
  0
LINE
  8
0
 10
-80.073
 20
-31.7634
 11
-80.3131
 21
-32.0536
  0
LINE
  8
0
 10
-80.3131
 20
-32.0536
 11
-80.5877
 21
-32.3115
  0
LINE
  8
0
 10
-80.5877
 20
-32.3115
 11
-80.8925
 21
-32.533
  0
LINE
  8
0
 10
-80.8925
 20
-32.533
 11
-81.2227
 21
-32.7145
  0
LINE
  8
0
 10
-81.2227
 20
-32.7145
 11
-81.573
 21
-32.8532
  0
LINE
  8
0
 10
-81.573
 20
-32.8532
 11
-81.9379
 21
-32.9469
  0
LINE
  8
0
 10
-81.9379
 20
-32.9469
 11
-82.3116
 21
-32.9941
  0
LINE
  8
0
 10
-82.3116
 20
-32.9941
 11
-82.6884
 21
-32.9941
  0
LINE
  8
0
 10
82.3116
 20
-32.9941
 11
81.9379
 21
-32.9469
  0
LINE
  8
0
 10
81.9379
 20
-32.9469
 11
81.573
 21
-32.8532
  0
LINE
  8
0
 10
81.573
 20
-32.8532
 11
81.2227
 21
-32.7145
  0
LINE
  8
0
 10
81.2227
 20
-32.7145
 11
80.8925
 21
-32.533
  0
LINE
  8
0
 10
80.8925
 20
-32.533
 11
80.5877
 21
-32.3115
  0
LINE
  8
0
 10
80.5877
 20
-32.3115
 11
80.3131
 21
-32.0536
  0
LINE
  8
0
 10
80.3131
 20
-32.0536
 11
80.073
 21
-31.7634
  0
LINE
  8
0
 10
80.073
 20
-31.7634
 11
79.8711
 21
-31.4453
  0
LINE
  8
0
 10
79.8711
 20
-31.4453
 11
79.7107
 21
-31.1044
  0
LINE
  8
0
 10
79.7107
 20
-31.1044
 11
79.5943
 21
-30.7461
  0
LINE
  8
0
 10
79.5943
 20
-30.7461
 11
79.5237
 21
-30.376
  0
LINE
  8
0
 10
79.5237
 20
-30.376
 11
79.5
 21
-30
  0
LINE
  8
0
 10
79.5
 20
-30
 11
79.5237
 21
-29.624
  0
LINE
  8
0
 10
79.5237
 20
-29.624
 11
79.5943
 21
-29.2539
  0
LINE
  8
0
 10
79.5943
 20
-29.2539
 11
79.7107
 21
-28.8956
  0
LINE
  8
0
 10
79.7107
 20
-28.8956
 11
79.8711
 21
-28.5547
  0
LINE
  8
0
 10
79.8711
 20
-28.5547
 11
80.073
 21
-28.2366
  0
LINE
  8
0
 10
80.073
 20
-28.2366
 11
80.3131
 21
-27.9464
  0
LINE
  8
0
 10
80.3131
 20
-27.9464
 11
80.5877
 21
-27.6884
  0
LINE
  8
0
 10
80.5877
 20
-27.6884
 11
80.8925
 21
-27.467
  0
LINE
  8
0
 10
80.8925
 20
-27.467
 11
81.2227
 21
-27.2855
  0
LINE
  8
0
 10
81.2227
 20
-27.2855
 11
81.573
 21
-27.1468
  0
LINE
  8
0
 10
81.573
 20
-27.1468
 11
81.9379
 21
-27.0531
  0
LINE
  8
0
 10
81.9379
 20
-27.0531
 11
82.3116
 21
-27.0059
  0
LINE
  8
0
 10
82.3116
 20
-27.0059
 11
82.6884
 21
-27.0059
  0
LINE
  8
0
 10
82.6884
 20
-27.0059
 11
83.0621
 21
-27.0531
  0
LINE
  8
0
 10
83.0621
 20
-27.0531
 11
83.427
 21
-27.1468
  0
LINE
  8
0
 10
83.427
 20
-27.1468
 11
83.7773
 21
-27.2855
  0
LINE
  8
0
 10
83.7773
 20
-27.2855
 11
84.1075
 21
-27.467
  0
LINE
  8
0
 10
84.1075
 20
-27.467
 11
84.4123
 21
-27.6884
  0
LINE
  8
0
 10
84.4123
 20
-27.6884
 11
84.6869
 21
-27.9464
  0
LINE
  8
0
 10
84.6869
 20
-27.9464
 11
84.927
 21
-28.2366
  0
LINE
  8
0
 10
84.927
 20
-28.2366
 11
85.1289
 21
-28.5547
  0
LINE
  8
0
 10
85.1289
 20
-28.5547
 11
85.2893
 21
-28.8956
  0
LINE
  8
0
 10
85.2893
 20
-28.8956
 11
85.4057
 21
-29.2539
  0
LINE
  8
0
 10
85.4057
 20
-29.2539
 11
85.4763
 21
-29.624
  0
LINE
  8
0
 10
85.4763
 20
-29.624
 11
85.5
 21
-30
  0
LINE
  8
0
 10
85.5
 20
-30
 11
85.4763
 21
-30.376
  0
LINE
  8
0
 10
85.4763
 20
-30.376
 11
85.4057
 21
-30.7461
  0
LINE
  8
0
 10
85.4057
 20
-30.7461
 11
85.2893
 21
-31.1044
  0
LINE
  8
0
 10
85.2893
 20
-31.1044
 11
85.1289
 21
-31.4453
  0
LINE
  8
0
 10
85.1289
 20
-31.4453
 11
84.927
 21
-31.7634
  0
LINE
  8
0
 10
84.927
 20
-31.7634
 11
84.6869
 21
-32.0536
  0
LINE
  8
0
 10
84.6869
 20
-32.0536
 11
84.4123
 21
-32.3115
  0
LINE
  8
0
 10
84.4123
 20
-32.3115
 11
84.1075
 21
-32.533
  0
LINE
  8
0
 10
84.1075
 20
-32.533
 11
83.7773
 21
-32.7145
  0
LINE
  8
0
 10
83.7773
 20
-32.7145
 11
83.427
 21
-32.8532
  0
LINE
  8
0
 10
83.427
 20
-32.8532
 11
83.0621
 21
-32.9469
  0
LINE
  8
0
 10
83.0621
 20
-32.9469
 11
82.6884
 21
-32.9941
  0
LINE
  8
0
 10
82.6884
 20
-32.9941
 11
82.3116
 21
-32.9941
  0
ENDSEC
  0
SECTION
  2
OBJECTS
  0
DICTIONARY
  0
ENDSEC
  0
EOF
