  0
SECTION
  2
BLOCKS
  0
ENDSEC
  0
SECTION
  2
ENTITIES
  0
LINE
  8
0
 10
92.9369
 20
41.0886
 11
93.5451
 21
41.2447
  0
LINE
  8
0
 10
93.5451
 20
41.2447
 11
94.1289
 21
41.4759
  0
LINE
  8
0
 10
94.1289
 20
41.4759
 11
94.6791
 21
41.7784
  0
LINE
  8
0
 10
94.6791
 20
41.7784
 11
95.1871
 21
42.1474
  0
LINE
  8
0
 10
95.1871
 20
42.1474
 11
95.6448
 21
42.5773
  0
LINE
  8
0
 10
95.6448
 20
42.5773
 11
96.0451
 21
43.0611
  0
LINE
  8
0
 10
96.0451
 20
43.0611
 11
96.3815
 21
43.5912
  0
LINE
  8
0
 10
96.3815
 20
43.5912
 11
96.6489
 21
44.1594
  0
LINE
  8
0
 10
96.6489
 20
44.1594
 11
96.8429
 21
44.7566
  0
LINE
  8
0
 10
96.8429
 20
44.7566
 11
96.9606
 21
45.3733
  0
LINE
  8
0
 10
96.9606
 20
45.3733
 11
97
 21
46
  0
LINE
  8
0
 10
97
 20
46
 11
97
 21
50
  0
LINE
  8
0
 10
97
 20
50
 11
96.9606
 21
50.6267
  0
LINE
  8
0
 10
96.9606
 20
50.6267
 11
96.8429
 21
51.2434
  0
LINE
  8
0
 10
96.8429
 20
51.2434
 11
96.6489
 21
51.8406
  0
LINE
  8
0
 10
96.6489
 20
51.8406
 11
96.3815
 21
52.4088
  0
LINE
  8
0
 10
96.3815
 20
52.4088
 11
96.0451
 21
52.9389
  0
LINE
  8
0
 10
96.0451
 20
52.9389
 11
95.6448
 21
53.4227
  0
LINE
  8
0
 10
95.6448
 20
53.4227
 11
95.1871
 21
53.8526
  0
LINE
  8
0
 10
95.1871
 20
53.8526
 11
94.6791
 21
54.2216
  0
LINE
  8
0
 10
94.6791
 20
54.2216
 11
94.1289
 21
54.5241
  0
LINE
  8
0
 10
94.1289
 20
54.5241
 11
93.5451
 21
54.7553
  0
LINE
  8
0
 10
93.5451
 20
54.7553
 11
92.9369
 21
54.9114
  0
LINE
  8
0
 10
92.9369
 20
54.9114
 11
92.3139
 21
54.9901
  0
LINE
  8
0
 10
92.3139
 20
54.9901
 11
-92.3139
 21
54.9901
  0
LINE
  8
0
 10
-92.3139
 20
54.9901
 11
-92.9369
 21
54.9114
  0
LINE
  8
0
 10
-92.9369
 20
54.9114
 11
-93.5451
 21
54.7553
  0
LINE
  8
0
 10
-93.5451
 20
54.7553
 11
-94.1289
 21
54.5241
  0
LINE
  8
0
 10
-94.1289
 20
54.5241
 11
-94.6791
 21
54.2216
  0
LINE
  8
0
 10
-94.6791
 20
54.2216
 11
-95.1871
 21
53.8526
  0
LINE
  8
0
 10
-95.1871
 20
53.8526
 11
-95.6448
 21
53.4227
  0
LINE
  8
0
 10
-95.6448
 20
53.4227
 11
-96.0451
 21
52.9389
  0
LINE
  8
0
 10
-96.0451
 20
52.9389
 11
-96.3815
 21
52.4088
  0
LINE
  8
0
 10
-96.3815
 20
52.4088
 11
-96.6489
 21
51.8406
  0
LINE
  8
0
 10
-96.6489
 20
51.8406
 11
-96.8429
 21
51.2434
  0
LINE
  8
0
 10
-96.8429
 20
51.2434
 11
-96.9606
 21
50.6267
  0
LINE
  8
0
 10
-96.9606
 20
50.6267
 11
-97
 21
50
  0
LINE
  8
0
 10
-97
 20
50
 11
-97
 21
46
  0
LINE
  8
0
 10
-97
 20
46
 11
-96.9606
 21
45.3733
  0
LINE
  8
0
 10
-96.9606
 20
45.3733
 11
-96.8429
 21
44.7566
  0
LINE
  8
0
 10
-96.8429
 20
44.7566
 11
-96.6489
 21
44.1594
  0
LINE
  8
0
 10
-96.6489
 20
44.1594
 11
-96.3815
 21
43.5912
  0
LINE
  8
0
 10
-96.3815
 20
43.5912
 11
-96.0451
 21
43.0611
  0
LINE
  8
0
 10
-96.0451
 20
43.0611
 11
-95.6448
 21
42.5773
  0
LINE
  8
0
 10
-95.6448
 20
42.5773
 11
-95.1871
 21
42.1474
  0
LINE
  8
0
 10
-95.1871
 20
42.1474
 11
-94.6791
 21
41.7784
  0
LINE
  8
0
 10
-94.6791
 20
41.7784
 11
-94.1289
 21
41.4759
  0
LINE
  8
0
 10
-94.1289
 20
41.4759
 11
-93.5451
 21
41.2447
  0
LINE
  8
0
 10
-93.5451
 20
41.2447
 11
-92.9369
 21
41.0886
  0
LINE
  8
0
 10
-92.9369
 20
41.0886
 11
-92.3139
 21
41.0099
  0
LINE
  8
0
 10
-92.3139
 20
41.0099
 11
92.3139
 21
41.0099
  0
LINE
  8
0
 10
92.3139
 20
41.0099
 11
92.9369
 21
41.0886
  0
LINE
  8
0
 10
89.8116
 20
45.0059
 11
89.4379
 21
45.0531
  0
LINE
  8
0
 10
89.4379
 20
45.0531
 11
89.073
 21
45.1468
  0
LINE
  8
0
 10
89.073
 20
45.1468
 11
88.7227
 21
45.2855
  0
LINE
  8
0
 10
88.7227
 20
45.2855
 11
88.3925
 21
45.467
  0
LINE
  8
0
 10
88.3925
 20
45.467
 11
88.0877
 21
45.6885
  0
LINE
  8
0
 10
88.0877
 20
45.6885
 11
87.8131
 21
45.9464
  0
LINE
  8
0
 10
87.8131
 20
45.9464
 11
87.573
 21
46.2366
  0
LINE
  8
0
 10
87.573
 20
46.2366
 11
87.3711
 21
46.5547
  0
LINE
  8
0
 10
87.3711
 20
46.5547
 11
87.2107
 21
46.8956
  0
LINE
  8
0
 10
87.2107
 20
46.8956
 11
87.0943
 21
47.2539
  0
LINE
  8
0
 10
87.0943
 20
47.2539
 11
87.0237
 21
47.624
  0
LINE
  8
0
 10
87.0237
 20
47.624
 11
87
 21
48
  0
LINE
  8
0
 10
87
 20
48
 11
87.0237
 21
48.376
  0
LINE
  8
0
 10
87.0237
 20
48.376
 11
87.0943
 21
48.7461
  0
LINE
  8
0
 10
87.0943
 20
48.7461
 11
87.2107
 21
49.1044
  0
LINE
  8
0
 10
87.2107
 20
49.1044
 11
87.3711
 21
49.4453
  0
LINE
  8
0
 10
87.3711
 20
49.4453
 11
87.573
 21
49.7634
  0
LINE
  8
0
 10
87.573
 20
49.7634
 11
87.8131
 21
50.0536
  0
LINE
  8
0
 10
87.8131
 20
50.0536
 11
88.0877
 21
50.3115
  0
LINE
  8
0
 10
88.0877
 20
50.3115
 11
88.3925
 21
50.533
  0
LINE
  8
0
 10
88.3925
 20
50.533
 11
88.7227
 21
50.7145
  0
LINE
  8
0
 10
88.7227
 20
50.7145
 11
89.073
 21
50.8532
  0
LINE
  8
0
 10
89.073
 20
50.8532
 11
89.4379
 21
50.9469
  0
LINE
  8
0
 10
89.4379
 20
50.9469
 11
89.8116
 21
50.9941
  0
LINE
  8
0
 10
89.8116
 20
50.9941
 11
90.1884
 21
50.9941
  0
LINE
  8
0
 10
90.1884
 20
50.9941
 11
90.5621
 21
50.9469
  0
LINE
  8
0
 10
90.5621
 20
50.9469
 11
90.927
 21
50.8532
  0
LINE
  8
0
 10
90.927
 20
50.8532
 11
91.2773
 21
50.7145
  0
LINE
  8
0
 10
91.2773
 20
50.7145
 11
91.6075
 21
50.533
  0
LINE
  8
0
 10
91.6075
 20
50.533
 11
91.9123
 21
50.3115
  0
LINE
  8
0
 10
91.9123
 20
50.3115
 11
92.1869
 21
50.0536
  0
LINE
  8
0
 10
92.1869
 20
50.0536
 11
92.427
 21
49.7634
  0
LINE
  8
0
 10
92.427
 20
49.7634
 11
92.6289
 21
49.4453
  0
LINE
  8
0
 10
92.6289
 20
49.4453
 11
92.7893
 21
49.1044
  0
LINE
  8
0
 10
92.7893
 20
49.1044
 11
92.9057
 21
48.7461
  0
LINE
  8
0
 10
92.9057
 20
48.7461
 11
92.9763
 21
48.376
  0
LINE
  8
0
 10
92.9763
 20
48.376
 11
93
 21
48
  0
LINE
  8
0
 10
93
 20
48
 11
92.9763
 21
47.624
  0
LINE
  8
0
 10
92.9763
 20
47.624
 11
92.9057
 21
47.2539
  0
LINE
  8
0
 10
92.9057
 20
47.2539
 11
92.7893
 21
46.8956
  0
LINE
  8
0
 10
92.7893
 20
46.8956
 11
92.6289
 21
46.5547
  0
LINE
  8
0
 10
92.6289
 20
46.5547
 11
92.427
 21
46.2366
  0
LINE
  8
0
 10
92.427
 20
46.2366
 11
92.1869
 21
45.9464
  0
LINE
  8
0
 10
92.1869
 20
45.9464
 11
91.9123
 21
45.6885
  0
LINE
  8
0
 10
91.9123
 20
45.6885
 11
91.6075
 21
45.467
  0
LINE
  8
0
 10
91.6075
 20
45.467
 11
91.2773
 21
45.2855
  0
LINE
  8
0
 10
91.2773
 20
45.2855
 11
90.927
 21
45.1468
  0
LINE
  8
0
 10
90.927
 20
45.1468
 11
90.5621
 21
45.0531
  0
LINE
  8
0
 10
90.5621
 20
45.0531
 11
90.1884
 21
45.0059
  0
LINE
  8
0
 10
90.1884
 20
45.0059
 11
89.8116
 21
45.0059
  0
LINE
  8
0
 10
-90.1884
 20
45.0059
 11
-90.5621
 21
45.0531
  0
LINE
  8
0
 10
-90.5621
 20
45.0531
 11
-90.927
 21
45.1468
  0
LINE
  8
0
 10
-90.927
 20
45.1468
 11
-91.2773
 21
45.2855
  0
LINE
  8
0
 10
-91.2773
 20
45.2855
 11
-91.6075
 21
45.467
  0
LINE
  8
0
 10
-91.6075
 20
45.467
 11
-91.9123
 21
45.6885
  0
LINE
  8
0
 10
-91.9123
 20
45.6885
 11
-92.1869
 21
45.9464
  0
LINE
  8
0
 10
-92.1869
 20
45.9464
 11
-92.427
 21
46.2366
  0
LINE
  8
0
 10
-92.427
 20
46.2366
 11
-92.6289
 21
46.5547
  0
LINE
  8
0
 10
-92.6289
 20
46.5547
 11
-92.7893
 21
46.8956
  0
LINE
  8
0
 10
-92.7893
 20
46.8956
 11
-92.9057
 21
47.2539
  0
LINE
  8
0
 10
-92.9057
 20
47.2539
 11
-92.9763
 21
47.624
  0
LINE
  8
0
 10
-92.9763
 20
47.624
 11
-93
 21
48
  0
LINE
  8
0
 10
-93
 20
48
 11
-92.9763
 21
48.376
  0
LINE
  8
0
 10
-92.9763
 20
48.376
 11
-92.9057
 21
48.7461
  0
LINE
  8
0
 10
-92.9057
 20
48.7461
 11
-92.7893
 21
49.1044
  0
LINE
  8
0
 10
-92.7893
 20
49.1044
 11
-92.6289
 21
49.4453
  0
LINE
  8
0
 10
-92.6289
 20
49.4453
 11
-92.427
 21
49.7634
  0
LINE
  8
0
 10
-92.427
 20
49.7634
 11
-92.1869
 21
50.0536
  0
LINE
  8
0
 10
-92.1869
 20
50.0536
 11
-91.9123
 21
50.3115
  0
LINE
  8
0
 10
-91.9123
 20
50.3115
 11
-91.6075
 21
50.533
  0
LINE
  8
0
 10
-91.6075
 20
50.533
 11
-91.2773
 21
50.7145
  0
LINE
  8
0
 10
-91.2773
 20
50.7145
 11
-90.927
 21
50.8532
  0
LINE
  8
0
 10
-90.927
 20
50.8532
 11
-90.5621
 21
50.9469
  0
LINE
  8
0
 10
-90.5621
 20
50.9469
 11
-90.1884
 21
50.9941
  0
LINE
  8
0
 10
-90.1884
 20
50.9941
 11
-89.8116
 21
50.9941
  0
LINE
  8
0
 10
-89.8116
 20
50.9941
 11
-89.4379
 21
50.9469
  0
LINE
  8
0
 10
-89.4379
 20
50.9469
 11
-89.073
 21
50.8532
  0
LINE
  8
0
 10
-89.073
 20
50.8532
 11
-88.7227
 21
50.7145
  0
LINE
  8
0
 10
-88.7227
 20
50.7145
 11
-88.3925
 21
50.533
  0
LINE
  8
0
 10
-88.3925
 20
50.533
 11
-88.0877
 21
50.3115
  0
LINE
  8
0
 10
-88.0877
 20
50.3115
 11
-87.8131
 21
50.0536
  0
LINE
  8
0
 10
-87.8131
 20
50.0536
 11
-87.573
 21
49.7634
  0
LINE
  8
0
 10
-87.573
 20
49.7634
 11
-87.3711
 21
49.4453
  0
LINE
  8
0
 10
-87.3711
 20
49.4453
 11
-87.2107
 21
49.1044
  0
LINE
  8
0
 10
-87.2107
 20
49.1044
 11
-87.0943
 21
48.7461
  0
LINE
  8
0
 10
-87.0943
 20
48.7461
 11
-87.0237
 21
48.376
  0
LINE
  8
0
 10
-87.0237
 20
48.376
 11
-87
 21
48
  0
LINE
  8
0
 10
-87
 20
48
 11
-87.0237
 21
47.624
  0
LINE
  8
0
 10
-87.0237
 20
47.624
 11
-87.0943
 21
47.2539
  0
LINE
  8
0
 10
-87.0943
 20
47.2539
 11
-87.2107
 21
46.8956
  0
LINE
  8
0
 10
-87.2107
 20
46.8956
 11
-87.3711
 21
46.5547
  0
LINE
  8
0
 10
-87.3711
 20
46.5547
 11
-87.573
 21
46.2366
  0
LINE
  8
0
 10
-87.573
 20
46.2366
 11
-87.8131
 21
45.9464
  0
LINE
  8
0
 10
-87.8131
 20
45.9464
 11
-88.0877
 21
45.6885
  0
LINE
  8
0
 10
-88.0877
 20
45.6885
 11
-88.3925
 21
45.467
  0
LINE
  8
0
 10
-88.3925
 20
45.467
 11
-88.7227
 21
45.2855
  0
LINE
  8
0
 10
-88.7227
 20
45.2855
 11
-89.073
 21
45.1468
  0
LINE
  8
0
 10
-89.073
 20
45.1468
 11
-89.4379
 21
45.0531
  0
LINE
  8
0
 10
-89.4379
 20
45.0531
 11
-89.8116
 21
45.0059
  0
LINE
  8
0
 10
-89.8116
 20
45.0059
 11
-90.1884
 21
45.0059
  0
LINE
  8
0
 10
92.9369
 20
17.0886
 11
93.5451
 21
17.2447
  0
LINE
  8
0
 10
93.5451
 20
17.2447
 11
94.1289
 21
17.4759
  0
LINE
  8
0
 10
94.1289
 20
17.4759
 11
94.6791
 21
17.7784
  0
LINE
  8
0
 10
94.6791
 20
17.7784
 11
95.1871
 21
18.1474
  0
LINE
  8
0
 10
95.1871
 20
18.1474
 11
95.6448
 21
18.5773
  0
LINE
  8
0
 10
95.6448
 20
18.5773
 11
96.0451
 21
19.0611
  0
LINE
  8
0
 10
96.0451
 20
19.0611
 11
96.3815
 21
19.5912
  0
LINE
  8
0
 10
96.3815
 20
19.5912
 11
96.6489
 21
20.1594
  0
LINE
  8
0
 10
96.6489
 20
20.1594
 11
96.8429
 21
20.7566
  0
LINE
  8
0
 10
96.8429
 20
20.7566
 11
96.9606
 21
21.3733
  0
LINE
  8
0
 10
96.9606
 20
21.3733
 11
97
 21
22
  0
LINE
  8
0
 10
97
 20
22
 11
97
 21
26
  0
LINE
  8
0
 10
97
 20
26
 11
96.9606
 21
26.6267
  0
LINE
  8
0
 10
96.9606
 20
26.6267
 11
96.8429
 21
27.2434
  0
LINE
  8
0
 10
96.8429
 20
27.2434
 11
96.6489
 21
27.8406
  0
LINE
  8
0
 10
96.6489
 20
27.8406
 11
96.3815
 21
28.4088
  0
LINE
  8
0
 10
96.3815
 20
28.4088
 11
96.0451
 21
28.9389
  0
LINE
  8
0
 10
96.0451
 20
28.9389
 11
95.6448
 21
29.4227
  0
LINE
  8
0
 10
95.6448
 20
29.4227
 11
95.1871
 21
29.8526
  0
LINE
  8
0
 10
95.1871
 20
29.8526
 11
94.6791
 21
30.2216
  0
LINE
  8
0
 10
94.6791
 20
30.2216
 11
94.1289
 21
30.5241
  0
LINE
  8
0
 10
94.1289
 20
30.5241
 11
93.5451
 21
30.7553
  0
LINE
  8
0
 10
93.5451
 20
30.7553
 11
92.9369
 21
30.9114
  0
LINE
  8
0
 10
92.9369
 20
30.9114
 11
92.3139
 21
30.9901
  0
LINE
  8
0
 10
92.3139
 20
30.9901
 11
-92.3139
 21
30.9901
  0
LINE
  8
0
 10
-92.3139
 20
30.9901
 11
-92.9369
 21
30.9114
  0
LINE
  8
0
 10
-92.9369
 20
30.9114
 11
-93.5451
 21
30.7553
  0
LINE
  8
0
 10
-93.5451
 20
30.7553
 11
-94.1289
 21
30.5241
  0
LINE
  8
0
 10
-94.1289
 20
30.5241
 11
-94.6791
 21
30.2216
  0
LINE
  8
0
 10
-94.6791
 20
30.2216
 11
-95.1871
 21
29.8526
  0
LINE
  8
0
 10
-95.1871
 20
29.8526
 11
-95.6448
 21
29.4227
  0
LINE
  8
0
 10
-95.6448
 20
29.4227
 11
-96.0451
 21
28.9389
  0
LINE
  8
0
 10
-96.0451
 20
28.9389
 11
-96.3815
 21
28.4088
  0
LINE
  8
0
 10
-96.3815
 20
28.4088
 11
-96.6489
 21
27.8406
  0
LINE
  8
0
 10
-96.6489
 20
27.8406
 11
-96.8429
 21
27.2434
  0
LINE
  8
0
 10
-96.8429
 20
27.2434
 11
-96.9606
 21
26.6267
  0
LINE
  8
0
 10
-96.9606
 20
26.6267
 11
-97
 21
26
  0
LINE
  8
0
 10
-97
 20
26
 11
-97
 21
22
  0
LINE
  8
0
 10
-97
 20
22
 11
-96.9606
 21
21.3733
  0
LINE
  8
0
 10
-96.9606
 20
21.3733
 11
-96.8429
 21
20.7566
  0
LINE
  8
0
 10
-96.8429
 20
20.7566
 11
-96.6489
 21
20.1594
  0
LINE
  8
0
 10
-96.6489
 20
20.1594
 11
-96.3815
 21
19.5912
  0
LINE
  8
0
 10
-96.3815
 20
19.5912
 11
-96.0451
 21
19.0611
  0
LINE
  8
0
 10
-96.0451
 20
19.0611
 11
-95.6448
 21
18.5773
  0
LINE
  8
0
 10
-95.6448
 20
18.5773
 11
-95.1871
 21
18.1474
  0
LINE
  8
0
 10
-95.1871
 20
18.1474
 11
-94.6791
 21
17.7784
  0
LINE
  8
0
 10
-94.6791
 20
17.7784
 11
-94.1289
 21
17.4759
  0
LINE
  8
0
 10
-94.1289
 20
17.4759
 11
-93.5451
 21
17.2447
  0
LINE
  8
0
 10
-93.5451
 20
17.2447
 11
-92.9369
 21
17.0886
  0
LINE
  8
0
 10
-92.9369
 20
17.0886
 11
-92.3139
 21
17.0099
  0
LINE
  8
0
 10
-92.3139
 20
17.0099
 11
92.3139
 21
17.0099
  0
LINE
  8
0
 10
92.3139
 20
17.0099
 11
92.9369
 21
17.0886
  0
LINE
  8
0
 10
-90.1884
 20
21.0059
 11
-90.5621
 21
21.0531
  0
LINE
  8
0
 10
-90.5621
 20
21.0531
 11
-90.927
 21
21.1468
  0
LINE
  8
0
 10
-90.927
 20
21.1468
 11
-91.2773
 21
21.2855
  0
LINE
  8
0
 10
-91.2773
 20
21.2855
 11
-91.6075
 21
21.467
  0
LINE
  8
0
 10
-91.6075
 20
21.467
 11
-91.9123
 21
21.6885
  0
LINE
  8
0
 10
-91.9123
 20
21.6885
 11
-92.1869
 21
21.9464
  0
LINE
  8
0
 10
-92.1869
 20
21.9464
 11
-92.427
 21
22.2366
  0
LINE
  8
0
 10
-92.427
 20
22.2366
 11
-92.6289
 21
22.5547
  0
LINE
  8
0
 10
-92.6289
 20
22.5547
 11
-92.7893
 21
22.8956
  0
LINE
  8
0
 10
-92.7893
 20
22.8956
 11
-92.9057
 21
23.2539
  0
LINE
  8
0
 10
-92.9057
 20
23.2539
 11
-92.9763
 21
23.624
  0
LINE
  8
0
 10
-92.9763
 20
23.624
 11
-93
 21
24
  0
LINE
  8
0
 10
-93
 20
24
 11
-92.9763
 21
24.376
  0
LINE
  8
0
 10
-92.9763
 20
24.376
 11
-92.9057
 21
24.7461
  0
LINE
  8
0
 10
-92.9057
 20
24.7461
 11
-92.7893
 21
25.1044
  0
LINE
  8
0
 10
-92.7893
 20
25.1044
 11
-92.6289
 21
25.4453
  0
LINE
  8
0
 10
-92.6289
 20
25.4453
 11
-92.427
 21
25.7634
  0
LINE
  8
0
 10
-92.427
 20
25.7634
 11
-92.1869
 21
26.0536
  0
LINE
  8
0
 10
-92.1869
 20
26.0536
 11
-91.9123
 21
26.3115
  0
LINE
  8
0
 10
-91.9123
 20
26.3115
 11
-91.6075
 21
26.533
  0
LINE
  8
0
 10
-91.6075
 20
26.533
 11
-91.2773
 21
26.7145
  0
LINE
  8
0
 10
-91.2773
 20
26.7145
 11
-90.927
 21
26.8532
  0
LINE
  8
0
 10
-90.927
 20
26.8532
 11
-90.5621
 21
26.9469
  0
LINE
  8
0
 10
-90.5621
 20
26.9469
 11
-90.1884
 21
26.9941
  0
LINE
  8
0
 10
-90.1884
 20
26.9941
 11
-89.8116
 21
26.9941
  0
LINE
  8
0
 10
-89.8116
 20
26.9941
 11
-89.4379
 21
26.9469
  0
LINE
  8
0
 10
-89.4379
 20
26.9469
 11
-89.073
 21
26.8532
  0
LINE
  8
0
 10
-89.073
 20
26.8532
 11
-88.7227
 21
26.7145
  0
LINE
  8
0
 10
-88.7227
 20
26.7145
 11
-88.3925
 21
26.533
  0
LINE
  8
0
 10
-88.3925
 20
26.533
 11
-88.0877
 21
26.3115
  0
LINE
  8
0
 10
-88.0877
 20
26.3115
 11
-87.8131
 21
26.0536
  0
LINE
  8
0
 10
-87.8131
 20
26.0536
 11
-87.573
 21
25.7634
  0
LINE
  8
0
 10
-87.573
 20
25.7634
 11
-87.3711
 21
25.4453
  0
LINE
  8
0
 10
-87.3711
 20
25.4453
 11
-87.2107
 21
25.1044
  0
LINE
  8
0
 10
-87.2107
 20
25.1044
 11
-87.0943
 21
24.7461
  0
LINE
  8
0
 10
-87.0943
 20
24.7461
 11
-87.0237
 21
24.376
  0
LINE
  8
0
 10
-87.0237
 20
24.376
 11
-87
 21
24
  0
LINE
  8
0
 10
-87
 20
24
 11
-87.0237
 21
23.624
  0
LINE
  8
0
 10
-87.0237
 20
23.624
 11
-87.0943
 21
23.2539
  0
LINE
  8
0
 10
-87.0943
 20
23.2539
 11
-87.2107
 21
22.8956
  0
LINE
  8
0
 10
-87.2107
 20
22.8956
 11
-87.3711
 21
22.5547
  0
LINE
  8
0
 10
-87.3711
 20
22.5547
 11
-87.573
 21
22.2366
  0
LINE
  8
0
 10
-87.573
 20
22.2366
 11
-87.8131
 21
21.9464
  0
LINE
  8
0
 10
-87.8131
 20
21.9464
 11
-88.0877
 21
21.6885
  0
LINE
  8
0
 10
-88.0877
 20
21.6885
 11
-88.3925
 21
21.467
  0
LINE
  8
0
 10
-88.3925
 20
21.467
 11
-88.7227
 21
21.2855
  0
LINE
  8
0
 10
-88.7227
 20
21.2855
 11
-89.073
 21
21.1468
  0
LINE
  8
0
 10
-89.073
 20
21.1468
 11
-89.4379
 21
21.0531
  0
LINE
  8
0
 10
-89.4379
 20
21.0531
 11
-89.8116
 21
21.0059
  0
LINE
  8
0
 10
-89.8116
 20
21.0059
 11
-90.1884
 21
21.0059
  0
LINE
  8
0
 10
89.8116
 20
21.0059
 11
89.4379
 21
21.0531
  0
LINE
  8
0
 10
89.4379
 20
21.0531
 11
89.073
 21
21.1468
  0
LINE
  8
0
 10
89.073
 20
21.1468
 11
88.7227
 21
21.2855
  0
LINE
  8
0
 10
88.7227
 20
21.2855
 11
88.3925
 21
21.467
  0
LINE
  8
0
 10
88.3925
 20
21.467
 11
88.0877
 21
21.6885
  0
LINE
  8
0
 10
88.0877
 20
21.6885
 11
87.8131
 21
21.9464
  0
LINE
  8
0
 10
87.8131
 20
21.9464
 11
87.573
 21
22.2366
  0
LINE
  8
0
 10
87.573
 20
22.2366
 11
87.3711
 21
22.5547
  0
LINE
  8
0
 10
87.3711
 20
22.5547
 11
87.2107
 21
22.8956
  0
LINE
  8
0
 10
87.2107
 20
22.8956
 11
87.0943
 21
23.2539
  0
LINE
  8
0
 10
87.0943
 20
23.2539
 11
87.0237
 21
23.624
  0
LINE
  8
0
 10
87.0237
 20
23.624
 11
87
 21
24
  0
LINE
  8
0
 10
87
 20
24
 11
87.0237
 21
24.376
  0
LINE
  8
0
 10
87.0237
 20
24.376
 11
87.0943
 21
24.7461
  0
LINE
  8
0
 10
87.0943
 20
24.7461
 11
87.2107
 21
25.1044
  0
LINE
  8
0
 10
87.2107
 20
25.1044
 11
87.3711
 21
25.4453
  0
LINE
  8
0
 10
87.3711
 20
25.4453
 11
87.573
 21
25.7634
  0
LINE
  8
0
 10
87.573
 20
25.7634
 11
87.8131
 21
26.0536
  0
LINE
  8
0
 10
87.8131
 20
26.0536
 11
88.0877
 21
26.3115
  0
LINE
  8
0
 10
88.0877
 20
26.3115
 11
88.3925
 21
26.533
  0
LINE
  8
0
 10
88.3925
 20
26.533
 11
88.7227
 21
26.7145
  0
LINE
  8
0
 10
88.7227
 20
26.7145
 11
89.073
 21
26.8532
  0
LINE
  8
0
 10
89.073
 20
26.8532
 11
89.4379
 21
26.9469
  0
LINE
  8
0
 10
89.4379
 20
26.9469
 11
89.8116
 21
26.9941
  0
LINE
  8
0
 10
89.8116
 20
26.9941
 11
90.1884
 21
26.9941
  0
LINE
  8
0
 10
90.1884
 20
26.9941
 11
90.5621
 21
26.9469
  0
LINE
  8
0
 10
90.5621
 20
26.9469
 11
90.927
 21
26.8532
  0
LINE
  8
0
 10
90.927
 20
26.8532
 11
91.2773
 21
26.7145
  0
LINE
  8
0
 10
91.2773
 20
26.7145
 11
91.6075
 21
26.533
  0
LINE
  8
0
 10
91.6075
 20
26.533
 11
91.9123
 21
26.3115
  0
LINE
  8
0
 10
91.9123
 20
26.3115
 11
92.1869
 21
26.0536
  0
LINE
  8
0
 10
92.1869
 20
26.0536
 11
92.427
 21
25.7634
  0
LINE
  8
0
 10
92.427
 20
25.7634
 11
92.6289
 21
25.4453
  0
LINE
  8
0
 10
92.6289
 20
25.4453
 11
92.7893
 21
25.1044
  0
LINE
  8
0
 10
92.7893
 20
25.1044
 11
92.9057
 21
24.7461
  0
LINE
  8
0
 10
92.9057
 20
24.7461
 11
92.9763
 21
24.376
  0
LINE
  8
0
 10
92.9763
 20
24.376
 11
93
 21
24
  0
LINE
  8
0
 10
93
 20
24
 11
92.9763
 21
23.624
  0
LINE
  8
0
 10
92.9763
 20
23.624
 11
92.9057
 21
23.2539
  0
LINE
  8
0
 10
92.9057
 20
23.2539
 11
92.7893
 21
22.8956
  0
LINE
  8
0
 10
92.7893
 20
22.8956
 11
92.6289
 21
22.5547
  0
LINE
  8
0
 10
92.6289
 20
22.5547
 11
92.427
 21
22.2366
  0
LINE
  8
0
 10
92.427
 20
22.2366
 11
92.1869
 21
21.9464
  0
LINE
  8
0
 10
92.1869
 20
21.9464
 11
91.9123
 21
21.6885
  0
LINE
  8
0
 10
91.9123
 20
21.6885
 11
91.6075
 21
21.467
  0
LINE
  8
0
 10
91.6075
 20
21.467
 11
91.2773
 21
21.2855
  0
LINE
  8
0
 10
91.2773
 20
21.2855
 11
90.927
 21
21.1468
  0
LINE
  8
0
 10
90.927
 20
21.1468
 11
90.5621
 21
21.0531
  0
LINE
  8
0
 10
90.5621
 20
21.0531
 11
90.1884
 21
21.0059
  0
LINE
  8
0
 10
90.1884
 20
21.0059
 11
89.8116
 21
21.0059
  0
ENDSEC
  0
SECTION
  2
OBJECTS
  0
DICTIONARY
  0
ENDSEC
  0
EOF
