  0
SECTION
  2
BLOCKS
  0
ENDSEC
  0
SECTION
  2
ENTITIES
  0
LINE
  8
0
 10
152.937
 20
-6.91142
 11
153.545
 21
-6.75528
  0
LINE
  8
0
 10
153.545
 20
-6.75528
 11
154.129
 21
-6.52412
  0
LINE
  8
0
 10
154.129
 20
-6.52412
 11
154.679
 21
-6.22163
  0
LINE
  8
0
 10
154.679
 20
-6.22163
 11
155.187
 21
-5.85255
  0
LINE
  8
0
 10
155.187
 20
-5.85255
 11
155.645
 21
-5.42273
  0
LINE
  8
0
 10
155.645
 20
-5.42273
 11
156.045
 21
-4.93892
  0
LINE
  8
0
 10
156.045
 20
-4.93892
 11
156.382
 21
-4.40877
  0
LINE
  8
0
 10
156.382
 20
-4.40877
 11
156.649
 21
-3.84062
  0
LINE
  8
0
 10
156.649
 20
-3.84062
 11
156.843
 21
-3.24344
  0
LINE
  8
0
 10
156.843
 20
-3.24344
 11
156.961
 21
-2.62666
  0
LINE
  8
0
 10
156.961
 20
-2.62666
 11
157
 21
-2
  0
LINE
  8
0
 10
157
 20
-2
 11
157
 21
2
  0
LINE
  8
0
 10
157
 20
2
 11
156.961
 21
2.62666
  0
LINE
  8
0
 10
156.961
 20
2.62666
 11
156.843
 21
3.24344
  0
LINE
  8
0
 10
156.843
 20
3.24344
 11
156.649
 21
3.84062
  0
LINE
  8
0
 10
156.649
 20
3.84062
 11
156.382
 21
4.40877
  0
LINE
  8
0
 10
156.382
 20
4.40877
 11
156.045
 21
4.93892
  0
LINE
  8
0
 10
156.045
 20
4.93892
 11
155.645
 21
5.42273
  0
LINE
  8
0
 10
155.645
 20
5.42273
 11
155.187
 21
5.85255
  0
LINE
  8
0
 10
155.187
 20
5.85255
 11
154.679
 21
6.22163
  0
LINE
  8
0
 10
154.679
 20
6.22163
 11
154.129
 21
6.52412
  0
LINE
  8
0
 10
154.129
 20
6.52412
 11
153.545
 21
6.75528
  0
LINE
  8
0
 10
153.545
 20
6.75528
 11
152.937
 21
6.91142
  0
LINE
  8
0
 10
152.937
 20
6.91142
 11
152.314
 21
6.99013
  0
LINE
  8
0
 10
152.314
 20
6.99013
 11
-152.314
 21
6.99013
  0
LINE
  8
0
 10
-152.314
 20
6.99013
 11
-152.937
 21
6.91142
  0
LINE
  8
0
 10
-152.937
 20
6.91142
 11
-153.545
 21
6.75528
  0
LINE
  8
0
 10
-153.545
 20
6.75528
 11
-154.129
 21
6.52412
  0
LINE
  8
0
 10
-154.129
 20
6.52412
 11
-154.679
 21
6.22163
  0
LINE
  8
0
 10
-154.679
 20
6.22163
 11
-155.187
 21
5.85255
  0
LINE
  8
0
 10
-155.187
 20
5.85255
 11
-155.645
 21
5.42273
  0
LINE
  8
0
 10
-155.645
 20
5.42273
 11
-156.045
 21
4.93892
  0
LINE
  8
0
 10
-156.045
 20
4.93892
 11
-156.382
 21
4.40877
  0
LINE
  8
0
 10
-156.382
 20
4.40877
 11
-156.649
 21
3.84062
  0
LINE
  8
0
 10
-156.649
 20
3.84062
 11
-156.843
 21
3.24344
  0
LINE
  8
0
 10
-156.843
 20
3.24344
 11
-156.961
 21
2.62666
  0
LINE
  8
0
 10
-156.961
 20
2.62666
 11
-157
 21
2
  0
LINE
  8
0
 10
-157
 20
2
 11
-157
 21
-2
  0
LINE
  8
0
 10
-157
 20
-2
 11
-156.961
 21
-2.62666
  0
LINE
  8
0
 10
-156.961
 20
-2.62666
 11
-156.843
 21
-3.24344
  0
LINE
  8
0
 10
-156.843
 20
-3.24344
 11
-156.649
 21
-3.84062
  0
LINE
  8
0
 10
-156.649
 20
-3.84062
 11
-156.382
 21
-4.40877
  0
LINE
  8
0
 10
-156.382
 20
-4.40877
 11
-156.045
 21
-4.93892
  0
LINE
  8
0
 10
-156.045
 20
-4.93892
 11
-155.645
 21
-5.42273
  0
LINE
  8
0
 10
-155.645
 20
-5.42273
 11
-155.187
 21
-5.85255
  0
LINE
  8
0
 10
-155.187
 20
-5.85255
 11
-154.679
 21
-6.22163
  0
LINE
  8
0
 10
-154.679
 20
-6.22163
 11
-154.129
 21
-6.52412
  0
LINE
  8
0
 10
-154.129
 20
-6.52412
 11
-153.545
 21
-6.75528
  0
LINE
  8
0
 10
-153.545
 20
-6.75528
 11
-152.937
 21
-6.91142
  0
LINE
  8
0
 10
-152.937
 20
-6.91142
 11
-152.314
 21
-6.99013
  0
LINE
  8
0
 10
-152.314
 20
-6.99013
 11
152.314
 21
-6.99013
  0
LINE
  8
0
 10
152.314
 20
-6.99013
 11
152.937
 21
-6.91142
  0
LINE
  8
0
 10
-150.188
 20
-2.99408
 11
-150.562
 21
-2.94685
  0
LINE
  8
0
 10
-150.562
 20
-2.94685
 11
-150.927
 21
-2.85316
  0
LINE
  8
0
 10
-150.927
 20
-2.85316
 11
-151.277
 21
-2.71448
  0
LINE
  8
0
 10
-151.277
 20
-2.71448
 11
-151.607
 21
-2.53297
  0
LINE
  8
0
 10
-151.607
 20
-2.53297
 11
-151.912
 21
-2.31154
  0
LINE
  8
0
 10
-151.912
 20
-2.31154
 11
-152.187
 21
-2.05363
  0
LINE
  8
0
 10
-152.187
 20
-2.05363
 11
-152.427
 21
-1.76335
  0
LINE
  8
0
 10
-152.427
 20
-1.76335
 11
-152.629
 21
-1.44525
  0
LINE
  8
0
 10
-152.629
 20
-1.44525
 11
-152.789
 21
-1.10437
  0
LINE
  8
0
 10
-152.789
 20
-1.10437
 11
-152.906
 21
-0.746063
  0
LINE
  8
0
 10
-152.906
 20
-0.746063
 11
-152.976
 21
-0.375992
  0
LINE
  8
0
 10
-152.976
 20
-0.375992
 11
-153
 21
0
  0
LINE
  8
0
 10
-153
 20
0
 11
-152.976
 21
0.375992
  0
LINE
  8
0
 10
-152.976
 20
0.375992
 11
-152.906
 21
0.746063
  0
LINE
  8
0
 10
-152.906
 20
0.746063
 11
-152.789
 21
1.10437
  0
LINE
  8
0
 10
-152.789
 20
1.10437
 11
-152.629
 21
1.44525
  0
LINE
  8
0
 10
-152.629
 20
1.44525
 11
-152.427
 21
1.76335
  0
LINE
  8
0
 10
-152.427
 20
1.76335
 11
-152.187
 21
2.05363
  0
LINE
  8
0
 10
-152.187
 20
2.05363
 11
-151.912
 21
2.31154
  0
LINE
  8
0
 10
-151.912
 20
2.31154
 11
-151.607
 21
2.53297
  0
LINE
  8
0
 10
-151.607
 20
2.53297
 11
-151.277
 21
2.71448
  0
LINE
  8
0
 10
-151.277
 20
2.71448
 11
-150.927
 21
2.85316
  0
LINE
  8
0
 10
-150.927
 20
2.85316
 11
-150.562
 21
2.94685
  0
LINE
  8
0
 10
-150.562
 20
2.94685
 11
-150.188
 21
2.99408
  0
LINE
  8
0
 10
-150.188
 20
2.99408
 11
-149.812
 21
2.99408
  0
LINE
  8
0
 10
-149.812
 20
2.99408
 11
-149.438
 21
2.94685
  0
LINE
  8
0
 10
-149.438
 20
2.94685
 11
-149.073
 21
2.85316
  0
LINE
  8
0
 10
-149.073
 20
2.85316
 11
-148.723
 21
2.71448
  0
LINE
  8
0
 10
-148.723
 20
2.71448
 11
-148.393
 21
2.53297
  0
LINE
  8
0
 10
-148.393
 20
2.53297
 11
-148.088
 21
2.31154
  0
LINE
  8
0
 10
-148.088
 20
2.31154
 11
-147.813
 21
2.05363
  0
LINE
  8
0
 10
-147.813
 20
2.05363
 11
-147.573
 21
1.76335
  0
LINE
  8
0
 10
-147.573
 20
1.76335
 11
-147.371
 21
1.44525
  0
LINE
  8
0
 10
-147.371
 20
1.44525
 11
-147.211
 21
1.10437
  0
LINE
  8
0
 10
-147.211
 20
1.10437
 11
-147.094
 21
0.746063
  0
LINE
  8
0
 10
-147.094
 20
0.746063
 11
-147.024
 21
0.375992
  0
LINE
  8
0
 10
-147.024
 20
0.375992
 11
-147
 21
0
  0
LINE
  8
0
 10
-147
 20
0
 11
-147.024
 21
-0.375992
  0
LINE
  8
0
 10
-147.024
 20
-0.375992
 11
-147.094
 21
-0.746063
  0
LINE
  8
0
 10
-147.094
 20
-0.746063
 11
-147.211
 21
-1.10437
  0
LINE
  8
0
 10
-147.211
 20
-1.10437
 11
-147.371
 21
-1.44525
  0
LINE
  8
0
 10
-147.371
 20
-1.44525
 11
-147.573
 21
-1.76335
  0
LINE
  8
0
 10
-147.573
 20
-1.76335
 11
-147.813
 21
-2.05363
  0
LINE
  8
0
 10
-147.813
 20
-2.05363
 11
-148.088
 21
-2.31154
  0
LINE
  8
0
 10
-148.088
 20
-2.31154
 11
-148.393
 21
-2.53297
  0
LINE
  8
0
 10
-148.393
 20
-2.53297
 11
-148.723
 21
-2.71448
  0
LINE
  8
0
 10
-148.723
 20
-2.71448
 11
-149.073
 21
-2.85316
  0
LINE
  8
0
 10
-149.073
 20
-2.85316
 11
-149.438
 21
-2.94685
  0
LINE
  8
0
 10
-149.438
 20
-2.94685
 11
-149.812
 21
-2.99408
  0
LINE
  8
0
 10
-149.812
 20
-2.99408
 11
-150.188
 21
-2.99408
  0
ENDSEC
  0
SECTION
  2
OBJECTS
  0
DICTIONARY
  0
ENDSEC
  0
EOF
